500 0 8 0           
7 Unknown 11 ACIS 5.0 NT 24 Thu Mar 25 17:21:16 1999 
-1 9.9999999999999995e-007 1e-010 
body $-1 $8 $-1 $9 #
body $-1 $10 $-1 $11 #
body $-1 $12 $-1 $13 #
body $-1 $14 $-1 $15 #
body $-1 $16 $-1 $17 #
body $-1 $18 $-1 $19 #
body $-1 $20 $-1 $21 #
body $-1 $22 $-1 $23 #
lump $-1 $-1 $24 $0 #
transform $-1 1 0 0 0 1 0 0 0 1 69.853205969420458 46.892911030840516 13.521621771410063 1 rotate no_reflect no_shear #
lump $-1 $-1 $25 $1 #
transform $-1 1 0 0 0 1 0 0 0 1 69.853205969420458 46.892911030840516 13.521621771410063 1 rotate no_reflect no_shear #
lump $-1 $-1 $26 $2 #
transform $-1 1 0 0 0 1 0 0 0 1 69.853205969420458 46.892911030840516 13.521621771410063 1 rotate no_reflect no_shear #
lump $-1 $-1 $27 $3 #
transform $-1 1 0 0 0 1 0 0 0 1 69.853205969420458 46.892911030840516 13.521621771410063 1 rotate no_reflect no_shear #
lump $-1 $-1 $28 $4 #
transform $-1 1 0 0 0 1 0 0 0 1 69.853205969420458 46.892911030840516 13.521621771410063 1 rotate no_reflect no_shear #
lump $-1 $-1 $29 $5 #
transform $-1 1 0 0 0 1 0 0 0 1 69.853205969420458 46.892911030840516 13.521621771410063 1 rotate no_reflect no_shear #
lump $-1 $-1 $30 $6 #
transform $-1 1 0 0 0 1 0 0 0 1 69.853205969420458 46.892911030840516 13.521621771410063 1 rotate no_reflect no_shear #
lump $-1 $-1 $31 $7 #
transform $-1 1 0 0 0 1 0 0 0 1 69.853205969420458 46.892911030840516 13.521621771410063 1 rotate no_reflect no_shear #
shell $-1 $-1 $-1 $32 $-1 $8 #
shell $-1 $-1 $-1 $33 $-1 $10 #
shell $-1 $-1 $-1 $34 $-1 $12 #
shell $-1 $-1 $-1 $35 $-1 $14 #
shell $-1 $-1 $-1 $36 $-1 $16 #
shell $-1 $-1 $-1 $37 $-1 $18 #
shell $-1 $-1 $-1 $38 $-1 $20 #
shell $-1 $-1 $-1 $39 $-1 $22 #
face $-1 $40 $41 $24 $-1 $42 forward single #
face $-1 $43 $44 $25 $-1 $45 reversed single #
face $-1 $46 $47 $26 $-1 $48 reversed single #
face $-1 $49 $50 $27 $-1 $51 forward single #
face $-1 $52 $53 $28 $-1 $54 reversed single #
face $-1 $55 $56 $29 $-1 $57 forward single #
face $-1 $58 $59 $30 $-1 $60 forward single #
face $-1 $61 $62 $31 $-1 $63 forward single #
face $-1 $64 $65 $24 $-1 $66 reversed single #
loop $-1 $-1 $67 $32 #
plane-surface $-1 0 0 13.521621771410063 0 0 1 1 0 0 forward_v I I I I #
face $-1 $68 $69 $25 $-1 $70 reversed single #
loop $-1 $-1 $71 $33 #
plane-surface $-1 -62.384675372713389 -25.628306921406534 0 0 1 0 0 0 1 forward_v I I I I #
face $-1 $72 $73 $26 $-1 $74 reversed single #
loop $-1 $-1 $75 $34 #
plane-surface $-1 -54.91614477600632 59.000532041464602 172.89364365426641 1 0 0 0 -0.61566148304635926 -0.78801074757464917 forward_v I I I I #
face $-1 $76 $77 $27 $-1 $78 forward single #
loop $-1 $79 $80 $35 #
cone-surface $-1 -36.999232500546441 38.5688528576745 5.5666185878991419 0 -0.61566148304635926 -0.78801074757464917 2.5 0 0 1 I I 0 1 2.5 forward I I I I #
face $-1 $81 $82 $28 $-1 $83 reversed single #
loop $-1 $-1 $84 $36 #
plane-surface $-1 52.883267565550717 -145.6802634342215 109.08837328758534 -1 0 0 0 -0.70710678939079041 0.70710677298230451 forward_v I I I I #
face $-1 $85 $86 $29 $-1 $87 forward single #
loop $-1 $88 $89 $37 #
cone-surface $-1 23.290157138923988 -44.784721581123001 11.413432295878975 0 0.70710678939079041 -0.70710677298230451 1 0 0 1 I I 0 1 1 forward I I I I #
face $-1 $90 $91 $30 $-1 $92 forward single #
loop $-1 $93 $94 $38 #
cone-surface $-1 34.387573548909018 -44.784721581123001 11.413432295878975 0 0.70710678939079041 -0.70710677298230451 1 0 0 1 I I 0 1 1 forward I I I I #
face $-1 $95 $96 $31 $-1 $97 forward single #
loop $-1 $98 $99 $39 #
cone-surface $-1 45.484989958894033 -44.784721581123001 11.413432295878975 0 0.70710678939079041 -0.70710677298230451 1 0 0 1 I I 0 1 1 forward I I I I #
face $-1 $100 $101 $24 $-1 $102 reversed single #
loop $-1 $-1 $103 $40 #
plane-surface $-1 0 0 -13.521621771410063 0 0 1 1 0 0 forward_v I I I I #
coedge $-1 $104 $105 $106 $107 forward $41 $-1 #
face $-1 $108 $109 $25 $-1 $110 reversed single #
loop $-1 $-1 $111 $43 #
plane-surface $-1 -62.384675372713389 -19.849667488020394 0 0 -1 0 0 0 -1 forward_v I I I I #
coedge $-1 $112 $113 $114 $115 reversed $44 $-1 #
face $-1 $116 $117 $26 $-1 $118 reversed single #
loop $-1 $-1 $119 $46 #
plane-surface $-1 -36.999232500546441 -27.011324723887789 62.803489541368492 0 0.61566148304635926 0.78801074757464917 1 0 0 forward_v I I I I #
coedge $-1 $120 $121 $122 $123 reversed $47 $-1 #
face $-1 $-1 $124 $27 $-1 $125 forward single #
loop $-1 $126 $127 $49 #
cone-surface $-1 -36.999232500546441 34.888379209501572 0.85582723454895238 0 -0.61566148304635926 -0.78801074757464917 1.25 0 0 1 I I -0.70710678118654746 0.70710678118654746 1.25 forward I I I I #
loop $-1 $-1 $128 $35 #
coedge $-1 $80 $80 $129 $130 reversed $50 $-1 #
face $-1 $131 $132 $28 $-1 $133 reversed single #
loop $-1 $-1 $134 $52 #
plane-surface $-1 34.387573548909018 -46.892911030840509 10.301023176575043 0 -0.70710678939079041 0.70710677298230451 1 0 0 forward_v I I I I #
coedge $-1 $135 $136 $137 $138 reversed $53 $-1 #
face $-1 $-1 $139 $29 $-1 $140 forward single #
loop $-1 $141 $142 $55 #
cone-surface $-1 23.290157138923988 -43.933277996760431 10.561988731274242 0 0.70710678939079041 -0.70710677298230451 0.5 0 0 1 I I -0.70710678118654746 0.70710678118654746 0.5 forward I I I I #
loop $-1 $-1 $143 $37 #
coedge $-1 $89 $89 $144 $145 reversed $56 $-1 #
face $-1 $-1 $146 $30 $-1 $147 forward single #
loop $-1 $148 $149 $58 #
cone-surface $-1 34.387573548909018 -43.933277996760431 10.561988731274242 0 0.70710678939079041 -0.70710677298230451 0.5 0 0 1 I I -0.70710678118654746 0.70710678118654746 0.5 forward I I I I #
loop $-1 $-1 $150 $38 #
coedge $-1 $94 $94 $151 $152 reversed $59 $-1 #
face $-1 $-1 $153 $31 $-1 $154 forward single #
loop $-1 $155 $156 $61 #
cone-surface $-1 45.484989958894033 -43.933277996760431 10.561988731274242 0 0.70710678939079041 -0.70710677298230451 0.5 0 0 1 I I -0.70710678118654746 0.70710678118654746 0.5 forward I I I I #
loop $-1 $-1 $157 $39 #
coedge $-1 $99 $99 $158 $159 reversed $62 $-1 #
face $-1 $160 $161 $24 $-1 $162 reversed single #
loop $-1 $-1 $163 $64 #
plane-surface $-1 0 -46.892911030840516 0 0 1 0 0 0 1 forward_v I I I I #
coedge $-1 $164 $165 $166 $167 forward $65 $-1 #
coedge $-1 $168 $67 $169 $170 forward $41 $-1 #
coedge $-1 $67 $168 $171 $172 forward $41 $-1 #
coedge $-1 $173 $174 $67 $107 reversed $175 $-1 #
edge $-1 $176 -46.892911030840516 $177 46.892911030840516 $106 $178 forward 7 unknown #
face $-1 $179 $180 $25 $-1 $181 reversed single #
loop $-1 $-1 $182 $68 #
plane-surface $-1 -54.91614477600632 -22.738987204713464 0 -1 0 0 0 0 1 forward_v I I I I #
coedge $-1 $183 $184 $185 $186 forward $69 $-1 #
coedge $-1 $187 $71 $188 $189 reversed $44 $-1 #
coedge $-1 $71 $187 $190 $191 reversed $44 $-1 #
coedge $-1 $192 $193 $71 $115 forward $194 $-1 #
edge $-1 $195 -13.521621771410063 $196 13.521621771410063 $114 $197 forward 7 unknown #
face $-1 $198 $199 $26 $-1 $200 reversed single #
loop $-1 $-1 $201 $72 #
plane-surface $-1 -19.082320225086562 59.000532041464602 172.89364365426641 -1 0 0 0 0.61566148304635926 0.78801074757464917 forward_v I I I I #
coedge $-1 $202 $203 $204 $205 reversed $73 $-1 #
coedge $-1 $121 $75 $206 $207 reversed $47 $-1 #
coedge $-1 $75 $120 $202 $208 reversed $47 $-1 #
coedge $-1 $204 $209 $75 $123 forward $210 $-1 #
edge $-1 $211 -17.392645010108215 $212 -6.5663222525061364 $122 $213 forward 7 unknown #
loop $-1 $-1 $129 $76 #
plane-surface $-1 -36.999232500546441 -27.011324723887789 62.803489541368492 0 0.61566148304635926 0.78801074757464917 1 0 0 forward_v I I I I #
loop $-1 $-1 $214 $49 #
coedge $-1 $127 $127 $128 $215 reversed $77 $-1 #
coedge $-1 $128 $128 $127 $215 forward $79 $-1 #
coedge $-1 $129 $129 $80 $130 forward $124 $-1 #
edge $-1 $216 -1.802207455094331e-015 $216 6.2831853071795987 $129 $217 forward 7 unknown #
face $-1 $218 $219 $28 $-1 $220 forward single #
loop $-1 $-1 $221 $81 #
plane-surface $-1 15.891879532267318 -145.6802634342215 109.08837328758534 1 0 0 0 0.70710678939079041 -0.70710677298230451 forward_v I I I I #
coedge $-1 $222 $223 $224 $225 reversed $82 $-1 #
coedge $-1 $136 $84 $226 $227 reversed $53 $-1 #
coedge $-1 $84 $135 $222 $228 reversed $53 $-1 #
coedge $-1 $224 $229 $84 $138 forward $219 $-1 #
edge $-1 $230 25.947220686270235 $231 29.167819206370936 $137 $232 forward 7 unknown #
loop $-1 $-1 $144 $85 #
plane-surface $-1 34.387573548909018 -46.892911030840509 10.301023176575043 0 -0.70710678939079041 0.70710677298230451 1 0 0 forward_v I I I I #
loop $-1 $-1 $233 $55 #
coedge $-1 $142 $142 $143 $234 reversed $86 $-1 #
coedge $-1 $143 $143 $142 $234 forward $88 $-1 #
coedge $-1 $144 $144 $89 $145 forward $139 $-1 #
edge $-1 $235 1.2560740981099875e-015 $235 6.2831853071796013 $144 $236 forward 7 unknown #
loop $-1 $-1 $151 $90 #
plane-surface $-1 34.387573548909018 -46.892911030840509 10.301023176575043 0 -0.70710678939079041 0.70710677298230451 1 0 0 forward_v I I I I #
loop $-1 $-1 $237 $58 #
coedge $-1 $149 $149 $150 $238 reversed $91 $-1 #
coedge $-1 $150 $150 $149 $238 forward $93 $-1 #
coedge $-1 $151 $151 $94 $152 forward $146 $-1 #
edge $-1 $239 1.2560740981099875e-015 $239 6.2831853071796013 $151 $240 forward 7 unknown #
loop $-1 $-1 $158 $95 #
plane-surface $-1 34.387573548909018 -46.892911030840509 10.301023176575043 0 -0.70710678939079041 0.70710677298230451 1 0 0 forward_v I I I I #
loop $-1 $-1 $241 $61 #
coedge $-1 $156 $156 $157 $242 reversed $96 $-1 #
coedge $-1 $157 $157 $156 $242 forward $98 $-1 #
coedge $-1 $158 $158 $99 $159 forward $153 $-1 #
edge $-1 $243 1.2560740981099875e-015 $243 6.2831853071796013 $158 $244 forward 7 unknown #
face $-1 $245 $246 $24 $-1 $247 reversed single #
loop $-1 $-1 $248 $100 #
plane-surface $-1 -69.853205969420458 0 0 1 0 0 0 0 -1 forward_v I I I I #
coedge $-1 $249 $171 $250 $251 forward $101 $-1 #
coedge $-1 $252 $103 $249 $253 forward $65 $-1 #
coedge $-1 $103 $252 $254 $255 forward $65 $-1 #
coedge $-1 $174 $173 $103 $167 reversed $175 $-1 #
edge $-1 $256 -46.892911030840516 $257 46.892911030840516 $166 $258 forward 7 unknown #
coedge $-1 $105 $104 $259 $260 forward $41 $-1 #
coedge $-1 $261 $262 $104 $170 reversed $246 $-1 #
edge $-1 $177 -69.853205969420458 $263 69.853205969420458 $169 $264 forward 7 unknown #
coedge $-1 $163 $265 $105 $172 reversed $101 $-1 #
edge $-1 $266 -69.853205969420458 $176 69.853205969420458 $171 $267 forward 7 unknown #
coedge $-1 $166 $106 $265 $268 forward $175 $-1 #
coedge $-1 $106 $166 $261 $269 reversed $175 $-1 #
loop $-1 $-1 $173 $245 #
vertex $-1 $107 $270 #
vertex $-1 $107 $271 #
straight-curve $-1 69.853205969420458 0 13.521621771410063 0 1 0 I I #
face $-1 $272 $273 $25 $-1 $274 forward single #
loop $-1 $-1 $275 $108 #
plane-surface $-1 0 0 -13.521621771410063 0 0 1 1 0 0 forward_v I I I I #
coedge $-1 $276 $277 $187 $278 forward $109 $-1 #
coedge $-1 $279 $111 $275 $280 reversed $69 $-1 #
coedge $-1 $111 $279 $281 $282 reversed $69 $-1 #
coedge $-1 $277 $276 $111 $186 reversed $109 $-1 #
edge $-1 $283 -13.521621771410063 $284 13.521621771410063 $185 $285 forward 7 unknown #
coedge $-1 $113 $112 $182 $278 reversed $44 $-1 #
coedge $-1 $286 $287 $112 $189 forward $180 $-1 #
edge $-1 $288 23.723807089649625 $195 38.660868283063763 $188 $289 forward 7 unknown #
coedge $-1 $290 $291 $113 $191 forward $273 $-1 #
edge $-1 $196 -38.660868283063763 $292 -23.723807089649625 $190 $293 forward 7 unknown #
coedge $-1 $294 $114 $291 $295 reversed $194 $-1 #
coedge $-1 $114 $294 $286 $296 reversed $194 $-1 #
loop $-1 $-1 $294 $272 #
vertex $-1 $296 $297 #
vertex $-1 $115 $298 #
straight-curve $-1 -69.853205969420458 -25.628306921406534 0 0 0 1 I I #
face $-1 $-1 $210 $26 $-1 $299 forward single #
loop $-1 $-1 $300 $116 #
plane-surface $-1 0 46.892911030840516 0 0 -1 0 0 0 -1 forward_v I I I I #
coedge $-1 $301 $302 $303 $304 reversed $117 $-1 #
coedge $-1 $305 $119 $121 $208 forward $73 $-1 #
coedge $-1 $119 $305 $301 $306 forward $73 $-1 #
coedge $-1 $303 $122 $119 $205 forward $210 $-1 #
edge $-1 $212 -36.416528525733099 $307 -0.58270397481334157 $204 $308 forward 7 unknown #
coedge $-1 $309 $310 $120 $207 forward $199 $-1 #
edge $-1 $311 -81.383650584981226 $211 -72.925200055723138 $206 $312 forward 7 unknown #
edge $-1 $212 80.0470211748613 $311 93.785822061681046 $121 $313 forward 7 unknown #
coedge $-1 $122 $303 $309 $314 forward $210 $-1 #
loop $-1 $-1 $303 $198 #
vertex $-1 $207 $315 #
vertex $-1 $123 $316 #
straight-curve $-1 -54.91614477600632 29.500266020732301 13.521621771410068 0 -1 0 I I #
coedge $-1 $214 $214 $-1 $317 reversed $126 $-1 #
edge $-1 $318 0 $318 6.2831853071796004 $127 $319 forward 7 unknown #
vertex $-1 $130 $320 #
ellipse-curve $-1 -36.999232500546441 41.47974965203948 9.2923965067810208 0 0.61566148304635926 0.78801074757464917 2.5 0 0 1 I I #
face $-1 $-1 $321 $28 $-1 $322 reversed single #
loop $-1 $-1 $137 $131 #
plane-surface $-1 0 0 13.521621771410063 0 0 1 1 0 0 forward_v I I I I #
coedge $-1 $323 $324 $325 $326 reversed $132 $-1 #
coedge $-1 $327 $134 $136 $228 forward $82 $-1 #
coedge $-1 $134 $327 $323 $328 forward $82 $-1 #
coedge $-1 $325 $137 $134 $225 forward $219 $-1 #
edge $-1 $231 -35.689480791096209 $329 1.3019072421871911 $224 $330 forward 7 unknown #
coedge $-1 $331 $332 $135 $227 forward $321 $-1 #
edge $-1 $333 -44.243163467217634 $230 -41.02256487238261 $226 $334 forward 7 unknown #
edge $-1 $231 -4.5546141589302698 $333 1.0048591735576163e-014 $136 $335 forward 7 unknown #
coedge $-1 $137 $325 $331 $336 forward $219 $-1 #
vertex $-1 $227 $337 #
vertex $-1 $138 $338 #
straight-curve $-1 52.883267565550717 -72.840131717110751 13.521621771410061 0 1 0 I I #
coedge $-1 $233 $233 $-1 $339 reversed $141 $-1 #
edge $-1 $340 0 $340 6.2831853071796004 $142 $341 forward 7 unknown #
vertex $-1 $145 $342 #
ellipse-curve $-1 23.290157138923988 -45.282611770790169 11.911322473992547 0 -0.70710678939079041 0.70710677298230451 1 0 0 1 I I #
coedge $-1 $237 $237 $-1 $343 reversed $148 $-1 #
edge $-1 $344 0 $344 6.2831853071796004 $149 $345 forward 7 unknown #
vertex $-1 $152 $346 #
ellipse-curve $-1 34.387573548909018 -45.282611770790169 11.911322473992547 0 -0.70710678939079041 0.70710677298230451 1 0 0 1 I I #
coedge $-1 $241 $241 $-1 $347 reversed $155 $-1 #
edge $-1 $348 0 $348 6.2831853071796004 $156 $349 forward 7 unknown #
vertex $-1 $159 $350 #
ellipse-curve $-1 45.484989958894033 -45.282611770790169 11.911322473992547 0 -0.70710678939079041 0.70710677298230451 1 0 0 1 I I #
face $-1 $-1 $175 $24 $-1 $351 reversed single #
loop $-1 $-1 $261 $160 #
plane-surface $-1 0 46.892911030840516 0 0 -1 0 0 0 -1 forward_v I I I I #
coedge $-1 $352 $259 $262 $353 forward $161 $-1 #
coedge $-1 $265 $163 $164 $253 reversed $101 $-1 #
coedge $-1 $259 $352 $163 $251 reversed $161 $-1 #
edge $-1 $266 -13.521621771410063 $354 13.521621771410063 $250 $355 forward 7 unknown #
coedge $-1 $165 $164 $352 $356 forward $65 $-1 #
edge $-1 $257 -69.853205969420458 $354 69.853205969420458 $249 $357 forward 7 unknown #
coedge $-1 $262 $261 $165 $255 reversed $246 $-1 #
edge $-1 $358 -69.853205969420458 $256 69.853205969420458 $254 $359 forward 7 unknown #
vertex $-1 $167 $360 #
vertex $-1 $268 $361 #
straight-curve $-1 69.853205969420458 0 -13.521621771410063 0 -1 0 I I #
coedge $-1 $248 $250 $168 $260 reversed $161 $-1 #
edge $-1 $263 -46.892911030840516 $266 46.892911030840516 $259 $362 forward 7 unknown #
coedge $-1 $254 $169 $174 $269 forward $246 $-1 #
coedge $-1 $169 $254 $248 $353 reversed $246 $-1 #
vertex $-1 $170 $363 #
straight-curve $-1 0 46.892911030840516 13.521621771410063 -1 0 0 I I #
coedge $-1 $171 $249 $173 $268 reversed $101 $-1 #
vertex $-1 $260 $364 #
straight-curve $-1 0 -46.892911030840516 13.521621771410063 1 0 0 I I #
edge $-1 $176 -13.521621771410063 $257 13.521621771410063 $173 $365 forward 7 unknown #
edge $-1 $177 -13.521621771410063 $256 13.521621771410063 $174 $366 forward 7 unknown #
point $-1 69.853205969420458 -46.892911030840516 13.521621771410063 #
point $-1 69.853205969420458 46.892911030840516 13.521621771410063 #
face $-1 $-1 $194 $25 $-1 $367 reversed single #
loop $-1 $-1 $281 $179 #
plane-surface $-1 0 0 13.521621771410063 0 0 1 1 0 0 forward_v I I I I #
coedge $-1 $287 $286 $183 $280 forward $180 $-1 #
coedge $-1 $185 $182 $287 $368 reversed $109 $-1 #
coedge $-1 $182 $185 $290 $369 reversed $109 $-1 #
edge $-1 $292 -13.521621771410063 $288 13.521621771410063 $182 $370 forward 7 unknown #
coedge $-1 $184 $183 $294 $371 reversed $69 $-1 #
edge $-1 $372 -38.660868283063763 $284 -23.723807089649625 $275 $373 forward 7 unknown #
coedge $-1 $291 $290 $184 $282 forward $273 $-1 #
edge $-1 $283 23.723807089649625 $374 38.660868283063763 $281 $375 forward 7 unknown #
vertex $-1 $282 $376 #
vertex $-1 $280 $377 #
straight-curve $-1 -54.91614477600632 -19.849667488020394 0 0 0 -1 I I #
coedge $-1 $275 $188 $193 $296 forward $180 $-1 #
coedge $-1 $188 $275 $276 $368 forward $180 $-1 #
vertex $-1 $189 $378 #
straight-curve $-1 -31.192337686356694 -25.628306921406534 -13.521621771410063 -1 0 0 I I #
coedge $-1 $281 $190 $277 $369 forward $273 $-1 #
coedge $-1 $190 $281 $192 $295 forward $273 $-1 #
vertex $-1 $191 $379 #
straight-curve $-1 -31.192337686356694 -25.628306921406534 13.521621771410063 1 0 0 I I #
coedge $-1 $193 $192 $279 $371 forward $194 $-1 #
edge $-1 $374 19.849667488020394 $196 25.628306921406534 $192 $380 forward 7 unknown #
edge $-1 $195 -25.628306921406534 $372 -19.849667488020394 $193 $381 forward 7 unknown #
point $-1 -69.853205969420458 -25.628306921406534 -13.521621771410063 #
point $-1 -69.853205969420458 -25.628306921406534 13.521621771410063 #
plane-surface $-1 0 0 13.521621771410063 0 0 1 1 0 0 forward_v I I I I #
coedge $-1 $310 $309 $302 $382 forward $199 $-1 #
coedge $-1 $302 $201 $203 $306 reversed $117 $-1 #
coedge $-1 $201 $301 $300 $382 reversed $117 $-1 #
coedge $-1 $209 $204 $201 $304 forward $210 $-1 #
edge $-1 $307 6.5663222525061364 $383 17.392645010108215 $303 $384 forward 7 unknown #
coedge $-1 $203 $202 $310 $385 reversed $73 $-1 #
edge $-1 $386 -93.785822061681046 $307 -80.0470211748613 $301 $387 forward 7 unknown #
vertex $-1 $205 $388 #
straight-curve $-1 -18.49961625027322 36.066588273238445 13.521621771410061 1 0 0 I I #
coedge $-1 $300 $206 $209 $314 reversed $199 $-1 #
coedge $-1 $206 $300 $305 $385 forward $199 $-1 #
vertex $-1 $207 $389 #
straight-curve $-1 -54.91614477600632 46.892911030840516 86.446821827133206 0 0 1 I I #
straight-curve $-1 -54.91614477600632 -27.011324723887789 62.803489541368492 0 0.78801074757464917 -0.61566148304635926 I I #
edge $-1 $383 19.082320225086562 $211 54.91614477600632 $309 $390 forward 7 unknown #
point $-1 -54.91614477600632 46.892911030840516 13.521621771410063 #
point $-1 -54.91614477600632 36.066588273238438 13.521621771410061 #
edge $-1 $391 1 $391 0 $214 $-1 forward 7 unknown #
vertex $-1 $215 $392 #
ellipse-curve $-1 -36.999232500546441 35.65795606330952 1.8408406690172638 0 0.61566148304635926 0.78801074757464917 2.5 0 0 1 I I #
point $-1 -34.499232500546441 41.479749652039473 9.292396506781019 #
loop $-1 $-1 $226 $218 #
plane-surface $-1 0 -46.892911030840516 0 0 1 0 0 0 1 forward_v I I I I #
coedge $-1 $324 $221 $223 $328 reversed $132 $-1 #
coedge $-1 $221 $323 $393 $394 reversed $132 $-1 #
coedge $-1 $229 $224 $221 $326 forward $219 $-1 #
edge $-1 $329 -29.167819206370936 $395 -25.947220686270235 $325 $396 forward 7 unknown #
coedge $-1 $223 $222 $332 $397 reversed $82 $-1 #
edge $-1 $398 -1.0048591735576163e-014 $329 4.5546141589302698 $323 $399 forward 7 unknown #
vertex $-1 $225 $400 #
straight-curve $-1 17.193786774454509 -43.672312510739808 13.521621771410061 -1 0 0 I I #
coedge $-1 $393 $226 $229 $336 reversed $321 $-1 #
coedge $-1 $226 $393 $327 $397 forward $321 $-1 #
vertex $-1 $227 $401 #
straight-curve $-1 52.883267565550717 -46.892911030840516 54.544186643792671 0 0 1 I I #
straight-curve $-1 52.883267565550717 -46.892911030840509 10.301023176575043 0 -0.70710677298230451 -0.70710678939079041 I I #
edge $-1 $395 15.891879532267318 $230 52.883267565550717 $331 $402 forward 7 unknown #
point $-1 52.883267565550717 -46.892911030840516 13.521621771410063 #
point $-1 52.883267565550717 -43.672312510739815 13.521621771410063 #
edge $-1 $403 1 $403 0 $233 $-1 forward 7 unknown #
vertex $-1 $234 $404 #
ellipse-curve $-1 23.290157138923988 -44.286831391455827 10.915542117765394 0 -0.70710678939079041 0.70710677298230451 1 0 0 1 I I #
point $-1 24.290157138923988 -45.282611770790176 11.911322473992556 #
edge $-1 $405 1 $405 0 $237 $-1 forward 7 unknown #
vertex $-1 $238 $406 #
ellipse-curve $-1 34.387573548909018 -44.286831391455827 10.915542117765394 0 -0.70710678939079041 0.70710677298230451 1 0 0 1 I I #
point $-1 35.387573548909018 -45.282611770790176 11.911322473992556 #
edge $-1 $407 1 $407 0 $241 $-1 forward 7 unknown #
vertex $-1 $242 $408 #
ellipse-curve $-1 45.484989958894033 -44.286831391455827 10.915542117765394 0 -0.70710678939079041 0.70710677298230451 1 0 0 1 I I #
point $-1 46.484989958894033 -45.282611770790176 11.911322473992556 #
plane-surface $-1 69.853205969420458 0 0 -1 0 0 0 0 1 forward_v I I I I #
coedge $-1 $250 $248 $252 $356 reversed $161 $-1 #
edge $-1 $263 -13.521621771410063 $358 13.521621771410063 $262 $409 forward 7 unknown #
vertex $-1 $356 $410 #
straight-curve $-1 -69.853205969420458 -46.892911030840516 0 0 0 -1 I I #
edge $-1 $354 -46.892911030840516 $358 46.892911030840516 $352 $411 forward 7 unknown #
straight-curve $-1 0 -46.892911030840516 -13.521621771410063 -1 0 0 I I #
vertex $-1 $255 $412 #
straight-curve $-1 0 46.892911030840516 -13.521621771410063 1 0 0 I I #
point $-1 69.853205969420458 46.892911030840516 -13.521621771410063 #
point $-1 69.853205969420458 -46.892911030840516 -13.521621771410063 #
straight-curve $-1 -69.853205969420458 0 13.521621771410063 0 -1 0 I I #
point $-1 -69.853205969420458 46.892911030840516 13.521621771410063 #
point $-1 -69.853205969420458 -46.892911030840516 13.521621771410063 #
straight-curve $-1 69.853205969420458 -46.892911030840516 0 0 0 -1 I I #
straight-curve $-1 69.853205969420458 46.892911030840516 0 0 0 -1 I I #
plane-surface $-1 -69.853205969420458 0 0 1 0 0 0 0 -1 forward_v I I I I #
edge $-1 $284 8.4801738856636621 $288 14.258813319049802 $287 $413 forward 7 unknown #
edge $-1 $292 -14.258813319049802 $283 -8.4801738856636621 $290 $414 forward 7 unknown #
straight-curve $-1 -54.91614477600632 -25.628306921406534 0 0 0 -1 I I #
edge $-1 $374 -13.521621771410063 $372 13.521621771410063 $294 $415 forward 7 unknown #
vertex $-1 $371 $416 #
straight-curve $-1 -31.192337686356694 -19.849667488020394 -13.521621771410063 1 0 0 I I #
vertex $-1 $295 $417 #
straight-curve $-1 -31.192337686356694 -19.849667488020394 13.521621771410063 -1 0 0 I I #
point $-1 -54.91614477600632 -19.849667488020394 13.521621771410063 #
point $-1 -54.91614477600632 -19.849667488020394 -13.521621771410063 #
point $-1 -54.91614477600632 -25.628306921406534 -13.521621771410063 #
point $-1 -54.91614477600632 -25.628306921406534 13.521621771410063 #
straight-curve $-1 -69.853205969420458 0 13.521621771410063 0 -1 0 I I #
straight-curve $-1 -69.853205969420458 0 -13.521621771410063 0 1 0 I I #
edge $-1 $383 72.925200055723138 $386 81.383650584981226 $300 $418 forward 7 unknown #
vertex $-1 $314 $419 #
straight-curve $-1 -19.082320225086562 29.500266020732301 13.521621771410068 0 1 0 I I #
edge $-1 $386 0.58270397481334157 $311 36.416528525733099 $310 $420 forward 7 unknown #
vertex $-1 $385 $421 #
straight-curve $-1 -19.082320225086562 -27.011324723887789 62.803489541368492 0 -0.78801074757464917 0.61566148304635926 I I #
point $-1 -19.082320225086562 36.066588273238438 13.521621771410061 #
point $-1 -54.91614477600632 46.892911030840516 5.0631712421519808 #
straight-curve $-1 0 46.892911030840516 13.521621771410063 -1 0 0 I I #
vertex $-1 $317 $422 #
point $-1 -34.499232500546441 35.65795606330952 1.8408406690172638 #
coedge $-1 $332 $331 $324 $394 forward $321 $-1 #
edge $-1 $395 41.02256487238261 $398 44.243163467217634 $393 $423 forward 7 unknown #
vertex $-1 $336 $424 #
straight-curve $-1 15.891879532267318 -72.840131717110751 13.521621771410061 0 -1 0 I I #
edge $-1 $398 -1.3019072421871911 $333 35.689480791096209 $332 $425 forward 7 unknown #
vertex $-1 $397 $426 #
straight-curve $-1 15.891879532267318 -46.892911030840509 10.301023176575043 0 0.70710677298230451 0.70710678939079041 I I #
point $-1 15.891879532267318 -43.672312510739815 13.521621771410063 #
point $-1 52.883267565550717 -46.892911030840516 10.301023176575036 #
straight-curve $-1 0 -46.892911030840516 13.521621771410063 1 0 0 I I #
vertex $-1 $339 $427 #
point $-1 24.290157138923988 -44.286831391455827 10.915542117765394 #
vertex $-1 $343 $428 #
point $-1 35.387573548909018 -44.286831391455827 10.915542117765394 #
vertex $-1 $347 $429 #
point $-1 46.484989958894033 -44.286831391455827 10.915542117765394 #
straight-curve $-1 -69.853205969420458 46.892911030840516 0 0 0 -1 I I #
point $-1 -69.853205969420458 -46.892911030840516 -13.521621771410063 #
straight-curve $-1 -69.853205969420458 0 -13.521621771410063 0 1 0 I I #
point $-1 -69.853205969420458 46.892911030840516 -13.521621771410063 #
straight-curve $-1 -54.91614477600632 -11.369493602356732 -13.521621771410063 0 -1 0 I I #
straight-curve $-1 -54.91614477600632 -11.369493602356732 13.521621771410063 0 1 0 I I #
straight-curve $-1 -69.853205969420458 -19.849667488020394 0 0 0 -1 I I #
point $-1 -69.853205969420458 -19.849667488020394 -13.521621771410063 #
point $-1 -69.853205969420458 -19.849667488020394 13.521621771410063 #
straight-curve $-1 -19.082320225086562 46.892911030840516 86.446821827133206 0 0 -1 I I #
point $-1 -19.082320225086562 46.892911030840516 13.521621771410063 #
straight-curve $-1 -18.49961625027322 46.892911030840523 5.0631712421519737 -1 0 0 I I #
point $-1 -19.082320225086562 46.892911030840516 5.0631712421519808 #
point $-1 -36.999232500546441 34.118802355693624 -0.12918619991935909 #
straight-curve $-1 15.891879532267318 -46.892911030840516 54.544186643792671 0 0 -1 I I #
point $-1 15.891879532267318 -46.892911030840516 13.521621771410063 #
straight-curve $-1 17.193786774454509 -46.892911030840516 10.301023176575031 1 0 0 I I #
point $-1 15.891879532267318 -46.892911030840516 10.301023176575036 #
point $-1 23.290157138923988 -43.579724602065035 10.208435344783091 #
point $-1 34.387573548909018 -43.579724602065035 10.208435344783091 #
point $-1 45.484989958894033 -43.579724602065035 10.208435344783091 #
End-of-ACIS-data 