500 0 9 0           
7 Unknown 11 ACIS 5.0 NT 24 Fri Mar 26 20:10:30 1999 
-1 9.9999999999999995e-007 1e-010 
body $-1 $9 $-1 $10 #
body $-1 $11 $-1 $12 #
body $-1 $13 $-1 $14 #
body $-1 $15 $-1 $16 #
body $-1 $17 $-1 $18 #
body $-1 $19 $-1 $20 #
body $-1 $21 $-1 $22 #
body $-1 $23 $-1 $24 #
body $-1 $25 $-1 $26 #
lump $-1 $-1 $27 $0 #
transform $-1 1 0 0 0 1 0 0 0 1 72.353282265694133 35.841228566052457 16.543712567307765 1 rotate no_reflect no_shear #
lump $-1 $-1 $28 $1 #
transform $-1 1 0 0 0 1 0 0 0 1 72.353282265694133 35.841228566052457 16.543712567307765 1 rotate no_reflect no_shear #
lump $-1 $-1 $29 $2 #
transform $-1 1 0 0 0 1 0 0 0 1 72.353282265694133 35.841228566052457 16.543712567307765 1 rotate no_reflect no_shear #
lump $-1 $-1 $30 $3 #
transform $-1 1 0 0 0 1 0 0 0 1 72.353282265694133 35.841228566052457 16.543712567307765 1 rotate no_reflect no_shear #
lump $-1 $-1 $31 $4 #
transform $-1 1 0 0 0 1 0 0 0 1 72.353282265694133 35.841228566052457 16.543712567307765 1 rotate no_reflect no_shear #
lump $-1 $-1 $32 $5 #
transform $-1 1 0 0 0 1 0 0 0 1 72.353282265694133 35.841228566052457 16.543712567307765 1 rotate no_reflect no_shear #
lump $-1 $-1 $33 $6 #
transform $-1 1 0 0 0 1 0 0 0 1 72.353282265694133 35.841228566052457 16.543712567307765 1 rotate no_reflect no_shear #
lump $-1 $-1 $34 $7 #
transform $-1 1 0 0 0 1 0 0 0 1 72.353282265694133 35.841228566052457 16.543712567307765 1 rotate no_reflect no_shear #
lump $-1 $-1 $35 $8 #
transform $-1 1 0 0 0 1 0 0 0 1 72.353282265694133 35.841228566052457 16.543712567307765 1 rotate no_reflect no_shear #
shell $-1 $-1 $-1 $36 $-1 $9 #
shell $-1 $-1 $-1 $37 $-1 $11 #
shell $-1 $-1 $-1 $38 $-1 $13 #
shell $-1 $-1 $-1 $39 $-1 $15 #
shell $-1 $-1 $-1 $40 $-1 $17 #
shell $-1 $-1 $-1 $41 $-1 $19 #
shell $-1 $-1 $-1 $42 $-1 $21 #
shell $-1 $-1 $-1 $43 $-1 $23 #
shell $-1 $-1 $-1 $44 $-1 $25 #
face $-1 $45 $46 $27 $-1 $47 forward single #
face $-1 $48 $49 $28 $-1 $50 reversed single #
face $-1 $51 $52 $29 $-1 $53 reversed single #
face $-1 $54 $55 $30 $-1 $56 reversed single #
face $-1 $57 $58 $31 $-1 $59 forward single #
face $-1 $60 $61 $32 $-1 $62 forward single #
face $-1 $63 $64 $33 $-1 $65 forward single #
face $-1 $66 $67 $34 $-1 $68 reversed single #
face $-1 $69 $70 $35 $-1 $71 forward single #
face $-1 $72 $73 $27 $-1 $74 reversed single #
loop $-1 $-1 $75 $36 #
plane-surface $-1 0 0 16.543712567307765 0 0 1 1 0 0 forward_v I I I I #
face $-1 $76 $77 $28 $-1 $78 reversed single #
loop $-1 $-1 $79 $37 #
plane-surface $-1 -42.991840284990104 -27.542042616537543 0 1 0 0 0 0 -1 forward_v I I I I #
face $-1 $80 $81 $29 $-1 $82 reversed single #
loop $-1 $-1 $83 $38 #
plane-surface $-1 -41.128848708034354 19.242856667022629 0 0 1 0 0 0 1 forward_v I I I I #
face $-1 $84 $85 $30 $-1 $86 reversed single #
loop $-1 $-1 $87 $39 #
plane-surface $-1 -192.32046242594174 13.009465157079866 83.020685224265677 0 1 0 -0.82903758062907751 0 0.55919289150049634 forward_v I I I I #
face $-1 $88 $89 $31 $-1 $90 forward single #
loop $-1 $91 $92 $40 #
cone-surface $-1 -66.942915563425274 14.256143459068419 8.9586774163516694 0.82903758062907751 0 -0.55919289150049634 0.27959644575024817 0 0.41451879031453875 1 I I 0 1 0.5 forward I I I I #
face $-1 $93 $94 $32 $-1 $95 forward single #
loop $-1 $96 $97 $41 #
cone-surface $-1 -66.942915563425274 16.126160912051247 8.9586774163516694 0.82903758062907751 0 -0.55919289150049634 0.27959644575024817 0 0.41451879031453875 1 I I 0 1 0.5 forward I I I I #
face $-1 $98 $99 $33 $-1 $100 forward single #
loop $-1 $101 $102 $42 #
cone-surface $-1 -66.942915563425274 17.996178365034076 8.9586774163516694 0.82903758062907751 0 -0.55919289150049634 0.27959644575024817 0 0.41451879031453875 1 I I 0 1 0.5 forward I I I I #
face $-1 $103 $104 $34 $-1 $105 reversed single #
loop $-1 $-1 $106 $43 #
plane-surface $-1 40.339598779791217 7.1341172079417063 210.16662616029237 0 -1 0 -0.5877852598018023 0 -0.80901698891910034 forward_v I I I I #
face $-1 $107 $108 $35 $-1 $109 forward single #
loop $-1 $110 $111 $44 #
cone-surface $-1 65.677189164917209 2.6624305692852204 11.15775780071856 -0.5877852598018023 0 -0.80901698891910034 1.6180339778382007 0 -1.1755705196036046 1 I I 0 1 2 forward I I I I #
face $-1 $112 $113 $27 $-1 $114 reversed single #
loop $-1 $-1 $115 $45 #
plane-surface $-1 0 0 -16.543712567307765 0 0 1 1 0 0 forward_v I I I I #
coedge $-1 $116 $117 $118 $119 forward $46 $-1 #
face $-1 $120 $121 $28 $-1 $122 reversed single #
loop $-1 $-1 $123 $48 #
plane-surface $-1 -41.128848708034354 -19.242856667022629 0 0 -1 0 0 0 -1 forward_v I I I I #
coedge $-1 $124 $125 $126 $127 forward $49 $-1 #
face $-1 $128 $129 $29 $-1 $130 reversed single #
loop $-1 $-1 $131 $51 #
plane-surface $-1 -42.991840284990104 27.542042616537543 0 1 0 0 0 0 -1 forward_v I I I I #
coedge $-1 $132 $133 $134 $135 forward $52 $-1 #
face $-1 $136 $137 $30 $-1 $138 reversed single #
loop $-1 $-1 $139 $54 #
plane-surface $-1 -72.353282265694133 16.126160912051247 2.1018029848555102 -0.82903758062907751 0 0.55919289150049634 0.55919289150049634 0 0.82903758062907751 forward_v I I I I #
coedge $-1 $140 $141 $142 $143 reversed $55 $-1 #
face $-1 $-1 $144 $31 $-1 $145 forward single #
loop $-1 $146 $147 $57 #
cone-surface $-1 -66.195884820718931 14.256143459068419 8.4547988337465867 0.82903758062907751 0 -0.55919289150049634 0.13979822287512408 0 0.20725939515726938 1 I I -0.70710678118654746 0.70710678118654746 0.25 forward I I I I #
loop $-1 $-1 $148 $40 #
coedge $-1 $92 $92 $149 $150 reversed $58 $-1 #
face $-1 $-1 $151 $32 $-1 $152 forward single #
loop $-1 $153 $154 $60 #
cone-surface $-1 -66.195884820718931 16.126160912051247 8.4547988337465867 0.82903758062907751 0 -0.55919289150049634 0.13979822287512408 0 0.20725939515726938 1 I I -0.70710678118654746 0.70710678118654746 0.25 forward I I I I #
loop $-1 $-1 $155 $41 #
coedge $-1 $97 $97 $156 $157 reversed $61 $-1 #
face $-1 $-1 $158 $33 $-1 $159 forward single #
loop $-1 $160 $161 $63 #
cone-surface $-1 -66.195884820718931 17.996178365034076 8.4547988337465867 0.82903758062907751 0 -0.55919289150049634 0.13979822287512408 0 0.20725939515726938 1 I I -0.70710678118654746 0.70710678118654746 0.25 forward I I I I #
loop $-1 $-1 $162 $42 #
coedge $-1 $102 $102 $163 $164 reversed $64 $-1 #
face $-1 $165 $166 $34 $-1 $167 reversed single #
loop $-1 $-1 $168 $66 #
plane-surface $-1 -44.716786848317099 2.6624305692852204 93.096557046281148 0.5877852598018023 0 0.80901698891910034 0.80901698891910034 0 -0.5877852598018023 forward_v I I I I #
coedge $-1 $169 $170 $171 $172 reversed $67 $-1 #
face $-1 $-1 $173 $35 $-1 $174 forward single #
loop $-1 $175 $176 $69 #
cone-surface $-1 64.265370838935553 2.6624305692852204 9.21455661977771 -0.5877852598018023 0 -0.80901698891910034 0.80901698891910034 0 -0.5877852598018023 1 I I -0.70710678118654746 0.70710678118654746 1 forward I I I I #
loop $-1 $-1 $177 $44 #
coedge $-1 $111 $111 $178 $179 reversed $70 $-1 #
face $-1 $180 $181 $27 $-1 $182 reversed single #
loop $-1 $-1 $183 $72 #
plane-surface $-1 0 -35.841228566052457 0 0 1 0 0 0 1 forward_v I I I I #
coedge $-1 $184 $185 $186 $187 forward $73 $-1 #
coedge $-1 $188 $75 $189 $190 forward $46 $-1 #
coedge $-1 $75 $188 $191 $192 forward $46 $-1 #
coedge $-1 $193 $194 $75 $119 reversed $195 $-1 #
edge $-1 $196 -35.841228566052457 $197 35.841228566052457 $118 $198 forward 7 unknown #
face $-1 $199 $200 $28 $-1 $201 forward single #
loop $-1 $-1 $202 $76 #
plane-surface $-1 -39.265857131078604 -27.542042616537543 0 -1 0 0 0 0 1 forward_v I I I I #
coedge $-1 $203 $204 $205 $206 forward $77 $-1 #
coedge $-1 $207 $79 $208 $209 reversed $49 $-1 #
coedge $-1 $79 $207 $210 $211 reversed $49 $-1 #
coedge $-1 $204 $203 $79 $127 reversed $77 $-1 #
edge $-1 $212 -16.543712567307765 $213 16.543712567307765 $126 $214 forward 7 unknown #
face $-1 $215 $216 $29 $-1 $217 reversed single #
loop $-1 $-1 $218 $80 #
plane-surface $-1 -39.265857131078604 27.542042616537543 0 -1 0 0 0 0 1 forward_v I I I I #
coedge $-1 $219 $220 $221 $222 reversed $81 $-1 #
coedge $-1 $223 $83 $224 $225 reversed $52 $-1 #
coedge $-1 $83 $223 $226 $227 reversed $52 $-1 #
coedge $-1 $220 $219 $83 $135 reversed $81 $-1 #
edge $-1 $228 -16.543712567307765 $229 16.543712567307765 $134 $230 forward 7 unknown #
face $-1 $231 $232 $30 $-1 $233 reversed single #
loop $-1 $-1 $234 $84 #
plane-surface $-1 -192.32046242594174 19.242856667022629 83.020685224265677 0 -1 0 0.82903758062907751 0 -0.55919289150049634 forward_v I I I I #
coedge $-1 $235 $236 $237 $238 reversed $85 $-1 #
coedge $-1 $141 $87 $239 $240 reversed $55 $-1 #
coedge $-1 $87 $140 $235 $241 reversed $55 $-1 #
coedge $-1 $237 $242 $87 $143 forward $243 $-1 #
edge $-1 $244 23.806948947276737 $245 33.548139656716273 $142 $246 forward 7 unknown #
loop $-1 $-1 $149 $88 #
plane-surface $-1 -72.353282265694133 16.126160912051247 2.1018029848555102 -0.82903758062907751 0 0.55919289150049634 0.55919289150049634 0 0.82903758062907751 forward_v I I I I #
loop $-1 $-1 $247 $57 #
coedge $-1 $147 $147 $148 $248 reversed $89 $-1 #
coedge $-1 $148 $148 $147 $248 forward $91 $-1 #
coedge $-1 $149 $149 $92 $150 forward $144 $-1 #
edge $-1 $249 0 $249 6.2831853071796004 $149 $250 forward 7 unknown #
loop $-1 $-1 $156 $93 #
plane-surface $-1 -72.353282265694133 16.126160912051247 2.1018029848555102 -0.82903758062907751 0 0.55919289150049634 0.55919289150049634 0 0.82903758062907751 forward_v I I I I #
loop $-1 $-1 $251 $60 #
coedge $-1 $154 $154 $155 $252 reversed $94 $-1 #
coedge $-1 $155 $155 $154 $252 forward $96 $-1 #
coedge $-1 $156 $156 $97 $157 forward $151 $-1 #
edge $-1 $253 0 $253 6.2831853071796004 $156 $254 forward 7 unknown #
loop $-1 $-1 $163 $98 #
plane-surface $-1 -72.353282265694133 16.126160912051247 2.1018029848555102 -0.82903758062907751 0 0.55919289150049634 0.55919289150049634 0 0.82903758062907751 forward_v I I I I #
loop $-1 $-1 $255 $63 #
coedge $-1 $161 $161 $162 $256 reversed $99 $-1 #
coedge $-1 $162 $162 $161 $256 forward $101 $-1 #
coedge $-1 $163 $163 $102 $164 forward $158 $-1 #
edge $-1 $257 0 $257 6.2831853071796004 $163 $258 forward 7 unknown #
face $-1 $259 $260 $34 $-1 $261 forward single #
loop $-1 $-1 $262 $103 #
plane-surface $-1 40.339598779791217 -1.8092560693712656 210.16662616029237 0 1 0 0.5877852598018023 0 0.80901698891910034 forward_v I I I I #
coedge $-1 $263 $264 $265 $266 reversed $104 $-1 #
coedge $-1 $170 $106 $267 $268 reversed $67 $-1 #
coedge $-1 $106 $169 $263 $269 reversed $67 $-1 #
coedge $-1 $265 $270 $106 $172 forward $260 $-1 #
edge $-1 $271 -52.183482875798525 $272 -40.479362806604293 $171 $273 forward 7 unknown #
loop $-1 $-1 $178 $107 #
plane-surface $-1 -44.716786848317099 2.6624305692852204 93.096557046281148 0.5877852598018023 0 0.80901698891910034 0.80901698891910034 0 -0.5877852598018023 forward_v I I I I #
loop $-1 $-1 $274 $69 #
coedge $-1 $176 $176 $177 $275 reversed $108 $-1 #
coedge $-1 $177 $177 $176 $275 forward $110 $-1 #
coedge $-1 $178 $178 $111 $179 forward $173 $-1 #
edge $-1 $276 0 $276 6.2831853071796004 $178 $277 forward 7 unknown #
face $-1 $278 $279 $27 $-1 $280 reversed single #
loop $-1 $-1 $281 $112 #
plane-surface $-1 -72.353282265694133 0 0 1 0 0 0 0 -1 forward_v I I I I #
coedge $-1 $282 $191 $283 $284 forward $113 $-1 #
coedge $-1 $285 $115 $282 $286 forward $73 $-1 #
coedge $-1 $115 $285 $287 $288 forward $73 $-1 #
coedge $-1 $194 $193 $115 $187 reversed $195 $-1 #
edge $-1 $289 -35.841228566052457 $290 35.841228566052457 $186 $291 forward 7 unknown #
coedge $-1 $117 $116 $292 $293 forward $46 $-1 #
coedge $-1 $294 $295 $116 $190 reversed $279 $-1 #
edge $-1 $197 -72.353282265694133 $296 72.353282265694133 $189 $297 forward 7 unknown #
coedge $-1 $183 $298 $117 $192 reversed $113 $-1 #
edge $-1 $299 -72.353282265694133 $196 72.353282265694133 $191 $300 forward 7 unknown #
coedge $-1 $186 $118 $298 $301 forward $195 $-1 #
coedge $-1 $118 $186 $294 $302 reversed $195 $-1 #
loop $-1 $-1 $193 $278 #
vertex $-1 $119 $303 #
vertex $-1 $119 $304 #
straight-curve $-1 72.353282265694133 0 16.543712567307765 0 1 0 I I #
face $-1 $305 $306 $28 $-1 $307 reversed single #
loop $-1 $-1 $308 $120 #
plane-surface $-1 0 0 16.543712567307765 0 0 1 1 0 0 forward_v I I I I #
coedge $-1 $309 $310 $311 $312 reversed $121 $-1 #
coedge $-1 $126 $123 $313 $314 reversed $77 $-1 #
coedge $-1 $123 $126 $315 $316 reversed $77 $-1 #
coedge $-1 $310 $309 $123 $206 reversed $121 $-1 #
edge $-1 $317 -16.543712567307765 $318 16.543712567307765 $205 $319 forward 7 unknown #
coedge $-1 $125 $124 $320 $321 reversed $49 $-1 #
coedge $-1 $313 $322 $124 $209 forward $306 $-1 #
edge $-1 $323 -22.070207257783686 $213 -5.4718353587538573 $208 $324 forward 7 unknown #
coedge $-1 $325 $315 $125 $211 forward $200 $-1 #
edge $-1 $212 5.4718353587538573 $326 22.070207257783686 $210 $327 forward 7 unknown #
vertex $-1 $211 $328 #
vertex $-1 $209 $329 #
straight-curve $-1 -42.991840284990104 -19.242856667022629 0 0 0 -1 I I #
face $-1 $330 $331 $29 $-1 $332 forward single #
loop $-1 $-1 $333 $128 #
plane-surface $-1 0 0 -16.543712567307765 0 0 1 1 0 0 forward_v I I I I #
coedge $-1 $334 $335 $223 $336 forward $129 $-1 #
coedge $-1 $134 $131 $337 $338 reversed $81 $-1 #
coedge $-1 $131 $134 $339 $340 reversed $81 $-1 #
coedge $-1 $341 $342 $131 $222 forward $343 $-1 #
edge $-1 $344 -16.543712567307765 $345 16.543712567307765 $221 $346 forward 7 unknown #
coedge $-1 $133 $132 $218 $336 reversed $52 $-1 #
coedge $-1 $337 $333 $132 $225 forward $216 $-1 #
edge $-1 $347 18.701432777061427 $229 22.427415930972927 $224 $348 forward 7 unknown #
coedge $-1 $349 $339 $133 $227 forward $331 $-1 #
edge $-1 $228 -22.427415930972927 $350 -18.701432777061427 $226 $351 forward 7 unknown #
vertex $-1 $227 $352 #
vertex $-1 $225 $353 #
straight-curve $-1 -42.991840284990104 19.242856667022629 0 0 0 -1 I I #
face $-1 $-1 $243 $30 $-1 $354 forward single #
loop $-1 $-1 $355 $136 #
plane-surface $-1 -72.353282265694133 0 0 1 0 0 0 0 -1 forward_v I I I I #
coedge $-1 $356 $357 $358 $359 reversed $137 $-1 #
coedge $-1 $360 $139 $141 $241 forward $85 $-1 #
coedge $-1 $139 $360 $356 $361 forward $85 $-1 #
coedge $-1 $358 $142 $139 $238 forward $243 $-1 #
edge $-1 $245 4.9463847010542423 $362 11.179776210997005 $237 $363 forward 7 unknown #
coedge $-1 $364 $365 $140 $240 forward $232 $-1 #
edge $-1 $366 -39.408539627277328 $244 -24.966630044825074 $239 $367 forward 7 unknown #
edge $-1 $245 -17.420090379369373 $366 0 $141 $368 forward 7 unknown #
coedge $-1 $142 $358 $364 $369 forward $243 $-1 #
loop $-1 $-1 $358 $231 #
vertex $-1 $240 $370 #
vertex $-1 $143 $371 #
straight-curve $-1 -96.160231212970871 13.009465157079866 16.543712567307765 1 0 0 I I #
coedge $-1 $247 $247 $-1 $372 reversed $146 $-1 #
edge $-1 $373 0 $373 6.2831853071796004 $147 $374 forward 7 unknown #
vertex $-1 $150 $375 #
ellipse-curve $-1 -67.482686910974365 14.256143459068419 9.3227577760816356 -0.82903758062907751 0 0.55919289150049634 0.27959644575024817 0 0.41451879031453875 1 I I #
coedge $-1 $251 $251 $-1 $376 reversed $153 $-1 #
edge $-1 $377 0 $377 6.2831853071796004 $154 $378 forward 7 unknown #
vertex $-1 $157 $379 #
ellipse-curve $-1 -67.482686910974365 16.126160912051247 9.3227577760816356 -0.82903758062907751 0 0.55919289150049634 0.27959644575024817 0 0.41451879031453875 1 I I #
coedge $-1 $255 $255 $-1 $380 reversed $160 $-1 #
edge $-1 $381 0 $381 6.2831853071796004 $161 $382 forward 7 unknown #
vertex $-1 $164 $383 #
ellipse-curve $-1 -67.482686910974365 17.996178365034076 9.3227577760816356 -0.82903758062907751 0 0.55919289150049634 0.27959644575024817 0 0.41451879031453875 1 I I #
face $-1 $-1 $384 $34 $-1 $385 reversed single #
loop $-1 $-1 $171 $165 #
plane-surface $-1 0 0 16.543712567307765 0 0 1 1 0 0 forward_v I I I I #
coedge $-1 $386 $387 $388 $389 reversed $166 $-1 #
coedge $-1 $390 $168 $170 $269 forward $104 $-1 #
coedge $-1 $168 $390 $386 $391 forward $104 $-1 #
coedge $-1 $388 $171 $168 $266 forward $260 $-1 #
edge $-1 $272 -5.8029019232990962 $392 3.1404713540138758 $265 $393 forward 7 unknown #
coedge $-1 $394 $395 $169 $268 forward $384 $-1 #
edge $-1 $396 -97.04314166197338 $271 -88.539600512838419 $267 $397 forward 7 unknown #
edge $-1 $272 130.23947641148155 $396 144.7065645313883 $170 $398 forward 7 unknown #
coedge $-1 $171 $388 $394 $399 forward $260 $-1 #
vertex $-1 $172 $400 #
vertex $-1 $172 $401 #
straight-curve $-1 20.169799389895608 7.1341172079417063 16.543712567307765 -1 0 0 I I #
coedge $-1 $274 $274 $-1 $402 reversed $175 $-1 #
edge $-1 $403 0 $403 6.2831853071796004 $176 $404 forward 7 unknown #
vertex $-1 $179 $405 #
ellipse-curve $-1 66.501222231097046 2.6624305692852204 12.291941992740279 0.5877852598018023 0 0.80901698891910034 1.6180339778382007 0 -1.1755705196036046 1 I I #
face $-1 $-1 $195 $27 $-1 $406 reversed single #
loop $-1 $-1 $294 $180 #
plane-surface $-1 0 35.841228566052457 0 0 -1 0 0 0 -1 forward_v I I I I #
coedge $-1 $407 $292 $295 $408 forward $181 $-1 #
coedge $-1 $298 $183 $184 $286 reversed $113 $-1 #
coedge $-1 $292 $407 $183 $284 reversed $181 $-1 #
edge $-1 $299 -16.543712567307765 $409 16.543712567307765 $283 $410 forward 7 unknown #
coedge $-1 $185 $184 $407 $411 forward $73 $-1 #
edge $-1 $290 -72.353282265694133 $409 72.353282265694133 $282 $412 forward 7 unknown #
coedge $-1 $295 $294 $185 $288 reversed $279 $-1 #
edge $-1 $413 -72.353282265694133 $289 72.353282265694133 $287 $414 forward 7 unknown #
vertex $-1 $187 $415 #
vertex $-1 $301 $416 #
straight-curve $-1 72.353282265694133 0 -16.543712567307765 0 -1 0 I I #
coedge $-1 $281 $283 $188 $293 reversed $181 $-1 #
edge $-1 $296 -35.841228566052457 $299 35.841228566052457 $292 $417 forward 7 unknown #
coedge $-1 $287 $189 $194 $302 forward $279 $-1 #
coedge $-1 $189 $287 $281 $408 reversed $279 $-1 #
vertex $-1 $190 $418 #
straight-curve $-1 0 35.841228566052457 16.543712567307765 -1 0 0 I I #
coedge $-1 $191 $282 $193 $301 reversed $113 $-1 #
vertex $-1 $293 $419 #
straight-curve $-1 0 -35.841228566052457 16.543712567307765 1 0 0 I I #
edge $-1 $196 -16.543712567307765 $290 16.543712567307765 $193 $420 forward 7 unknown #
edge $-1 $197 -16.543712567307765 $289 16.543712567307765 $194 $421 forward 7 unknown #
point $-1 72.353282265694133 -35.841228566052457 16.543712567307765 #
point $-1 72.353282265694133 35.841228566052457 16.543712567307765 #
face $-1 $-1 $422 $28 $-1 $423 reversed single #
loop $-1 $-1 $424 $199 #
plane-surface $-1 0 0 -16.543712567307765 0 0 1 1 0 0 forward_v I I I I #
coedge $-1 $315 $325 $310 $425 forward $200 $-1 #
coedge $-1 $205 $202 $424 $426 reversed $121 $-1 #
coedge $-1 $202 $205 $308 $425 reversed $121 $-1 #
coedge $-1 $427 $428 $202 $312 forward $422 $-1 #
edge $-1 $429 -16.543712567307765 $430 16.543712567307765 $311 $431 forward 7 unknown #
coedge $-1 $424 $208 $203 $314 forward $306 $-1 #
edge $-1 $213 -22.427415930972927 $318 -18.701432777061427 $313 $432 forward 7 unknown #
coedge $-1 $210 $308 $204 $316 forward $200 $-1 #
edge $-1 $317 18.701432777061427 $212 22.427415930972927 $315 $433 forward 7 unknown #
vertex $-1 $316 $434 #
vertex $-1 $314 $435 #
straight-curve $-1 -39.265857131078604 -19.242856667022629 0 0 0 -1 I I #
coedge $-1 $428 $427 $207 $321 forward $422 $-1 #
edge $-1 $326 -16.543712567307765 $323 16.543712567307765 $320 $436 forward 7 unknown #
coedge $-1 $208 $424 $428 $437 forward $306 $-1 #
vertex $-1 $209 $438 #
straight-curve $-1 -42.991840284990104 -13.771021308268772 -16.543712567307765 0 1 0 I I #
coedge $-1 $308 $210 $427 $439 forward $200 $-1 #
vertex $-1 $439 $440 #
straight-curve $-1 -42.991840284990104 -13.771021308268772 16.543712567307765 0 -1 0 I I #
point $-1 -42.991840284990104 -19.242856667022629 16.543712567307765 #
point $-1 -42.991840284990104 -19.242856667022629 -16.543712567307765 #
face $-1 $-1 $343 $29 $-1 $441 reversed single #
loop $-1 $-1 $349 $215 #
plane-surface $-1 0 0 16.543712567307765 0 0 1 1 0 0 forward_v I I I I #
coedge $-1 $224 $442 $334 $443 forward $216 $-1 #
coedge $-1 $444 $218 $333 $443 reversed $129 $-1 #
coedge $-1 $218 $444 $349 $445 reversed $129 $-1 #
edge $-1 $350 -16.543712567307765 $347 16.543712567307765 $218 $446 forward 7 unknown #
coedge $-1 $442 $224 $219 $338 forward $216 $-1 #
edge $-1 $229 5.4718353587538573 $344 22.070207257783686 $337 $447 forward 7 unknown #
coedge $-1 $226 $448 $220 $340 forward $331 $-1 #
edge $-1 $345 -22.070207257783686 $228 -5.4718353587538573 $339 $449 forward 7 unknown #
coedge $-1 $450 $221 $448 $451 reversed $343 $-1 #
coedge $-1 $221 $450 $442 $452 reversed $343 $-1 #
loop $-1 $-1 $450 $330 #
vertex $-1 $452 $453 #
vertex $-1 $222 $454 #
straight-curve $-1 -42.991840284990104 35.841228566052457 0 0 0 1 I I #
vertex $-1 $225 $455 #
straight-curve $-1 -20.564424354017177 19.242856667022629 -16.543712567307765 -1 0 0 I I #
coedge $-1 $448 $226 $335 $445 forward $331 $-1 #
vertex $-1 $227 $456 #
straight-curve $-1 -20.564424354017177 19.242856667022629 16.543712567307765 1 0 0 I I #
point $-1 -42.991840284990104 19.242856667022629 16.543712567307765 #
point $-1 -42.991840284990104 19.242856667022629 -16.543712567307765 #
plane-surface $-1 0 0 16.543712567307765 0 0 1 1 0 0 forward_v I I I I #
coedge $-1 $365 $364 $357 $457 forward $232 $-1 #
coedge $-1 $357 $234 $236 $361 reversed $137 $-1 #
coedge $-1 $234 $356 $355 $457 reversed $137 $-1 #
coedge $-1 $242 $237 $234 $359 forward $243 $-1 #
edge $-1 $362 -33.548139656716273 $458 -23.806948947276737 $358 $459 forward 7 unknown #
coedge $-1 $236 $235 $365 $460 reversed $85 $-1 #
edge $-1 $461 0 $362 17.420090379369373 $356 $462 forward 7 unknown #
vertex $-1 $238 $463 #
straight-curve $-1 -62.612091556254597 8.0630804560256237 16.543712567307765 0 1 0 I I #
coedge $-1 $355 $239 $242 $369 reversed $232 $-1 #
coedge $-1 $239 $355 $360 $460 forward $232 $-1 #
vertex $-1 $240 $464 #
straight-curve $-1 -72.353282265694133 13.009465157079866 41.510342612132838 0 0 1 I I #
straight-curve $-1 -72.353282265694133 13.009465157079866 2.1018029848555102 -0.55919289150049634 0 -0.82903758062907751 I I #
edge $-1 $458 -19.242856667022629 $244 -13.009465157079866 $364 $465 forward 7 unknown #
point $-1 -72.353282265694133 13.009465157079866 16.543712567307765 #
point $-1 -62.612091556254597 13.009465157079866 16.543712567307765 #
edge $-1 $466 1 $466 0 $247 $-1 forward 7 unknown #
vertex $-1 $248 $467 #
ellipse-curve $-1 -66.403144215876196 14.256143459068419 8.5945970566217103 -0.82903758062907751 0 0.55919289150049634 0.27959644575024817 0 0.41451879031453875 1 I I #
point $-1 -67.203090465224108 14.256143459068419 9.7372765663961687 #
edge $-1 $468 1 $468 0 $251 $-1 forward 7 unknown #
vertex $-1 $252 $469 #
ellipse-curve $-1 -66.403144215876196 16.126160912051247 8.5945970566217103 -0.82903758062907751 0 0.55919289150049634 0.27959644575024817 0 0.41451879031453875 1 I I #
point $-1 -67.203090465224108 16.126160912051247 9.7372765663961687 #
edge $-1 $470 1 $470 0 $255 $-1 forward 7 unknown #
vertex $-1 $256 $471 #
ellipse-curve $-1 -66.403144215876196 17.996178365034076 8.5945970566217103 -0.82903758062907751 0 0.55919289150049634 0.27959644575024817 0 0.41451879031453875 1 I I #
point $-1 -67.203090465224108 17.996178365034076 9.7372765663961687 #
loop $-1 $-1 $267 $259 #
plane-surface $-1 72.353282265694133 0 0 -1 0 0 0 0 1 forward_v I I I I #
coedge $-1 $387 $262 $264 $391 reversed $166 $-1 #
coedge $-1 $262 $386 $472 $473 reversed $166 $-1 #
coedge $-1 $270 $265 $262 $389 forward $260 $-1 #
edge $-1 $392 40.479362806604293 $474 52.183482875798525 $388 $475 forward 7 unknown #
coedge $-1 $264 $263 $395 $476 reversed $104 $-1 #
edge $-1 $477 -144.7065645313883 $392 -130.23947641148155 $386 $478 forward 7 unknown #
vertex $-1 $266 $479 #
straight-curve $-1 60.649162196499915 1.3312152846426102 16.543712567307757 0 -1 0 I I #
coedge $-1 $472 $267 $270 $399 reversed $384 $-1 #
coedge $-1 $267 $472 $390 $476 forward $384 $-1 #
vertex $-1 $268 $480 #
straight-curve $-1 72.353282265694133 7.1341172079417063 105.08331308014618 0 0 1 I I #
straight-curve $-1 -44.716786848317099 7.1341172079417063 93.096557046281148 0.80901698891910034 0 -0.5877852598018023 I I #
edge $-1 $474 -1.8092560693712656 $271 7.1341172079417063 $394 $481 forward 7 unknown #
point $-1 72.353282265694133 7.1341172079417063 16.543712567307765 #
point $-1 60.649162196499901 7.1341172079417063 16.543712567307765 #
edge $-1 $482 1 $482 0 $274 $-1 forward 7 unknown #
vertex $-1 $275 $483 #
ellipse-curve $-1 64.853156098737358 2.6624305692852204 10.023573608696811 0.5877852598018023 0 0.80901698891910034 1.6180339778382007 0 -1.1755705196036046 1 I I #
point $-1 68.119256208935269 2.6624305692852204 11.116371473136706 #
plane-surface $-1 72.353282265694133 0 0 -1 0 0 0 0 1 forward_v I I I I #
coedge $-1 $283 $281 $285 $411 reversed $181 $-1 #
edge $-1 $296 -16.543712567307765 $413 16.543712567307765 $295 $484 forward 7 unknown #
vertex $-1 $411 $485 #
straight-curve $-1 -72.353282265694133 -35.841228566052457 0 0 0 -1 I I #
edge $-1 $409 -35.841228566052457 $413 35.841228566052457 $407 $486 forward 7 unknown #
straight-curve $-1 0 -35.841228566052457 -16.543712567307765 -1 0 0 I I #
vertex $-1 $288 $487 #
straight-curve $-1 0 35.841228566052457 -16.543712567307765 1 0 0 I I #
point $-1 72.353282265694133 35.841228566052457 -16.543712567307765 #
point $-1 72.353282265694133 -35.841228566052457 -16.543712567307765 #
straight-curve $-1 -72.353282265694133 0 16.543712567307765 0 -1 0 I I #
point $-1 -72.353282265694133 35.841228566052457 16.543712567307765 #
point $-1 -72.353282265694133 -35.841228566052457 16.543712567307765 #
straight-curve $-1 72.353282265694133 -35.841228566052457 0 0 0 -1 I I #
straight-curve $-1 72.353282265694133 35.841228566052457 0 0 0 -1 I I #
loop $-1 $-1 $311 $305 #
plane-surface $-1 0 -35.841228566052457 0 0 1 0 0 0 1 forward_v I I I I #
coedge $-1 $322 $313 $309 $426 forward $306 $-1 #
edge $-1 $430 -22.070207257783686 $317 -5.4718353587538573 $308 $488 forward 7 unknown #
edge $-1 $318 5.4718353587538573 $429 22.070207257783686 $424 $489 forward 7 unknown #
coedge $-1 $320 $311 $325 $439 reversed $422 $-1 #
coedge $-1 $311 $320 $322 $437 reversed $422 $-1 #
vertex $-1 $437 $490 #
vertex $-1 $312 $491 #
straight-curve $-1 -39.265857131078604 -35.841228566052457 0 0 0 1 I I #
straight-curve $-1 -20.564424354017177 -19.242856667022629 -16.543712567307765 1 0 0 I I #
straight-curve $-1 -20.564424354017177 -19.242856667022629 16.543712567307765 -1 0 0 I I #
point $-1 -39.265857131078604 -19.242856667022629 16.543712567307765 #
point $-1 -39.265857131078604 -19.242856667022629 -16.543712567307765 #
straight-curve $-1 -42.991840284990104 -35.841228566052457 0 0 0 -1 I I #
edge $-1 $429 39.265857131078604 $323 42.991840284990104 $428 $492 forward 7 unknown #
point $-1 -42.991840284990104 -35.841228566052457 -16.543712567307765 #
edge $-1 $326 -42.991840284990104 $430 -39.265857131078604 $427 $493 forward 7 unknown #
point $-1 -42.991840284990104 -35.841228566052457 16.543712567307765 #
plane-surface $-1 0 35.841228566052457 0 0 -1 0 0 0 -1 forward_v I I I I #
coedge $-1 $333 $337 $342 $452 forward $216 $-1 #
edge $-1 $494 -22.070207257783686 $347 -5.4718353587538573 $333 $495 forward 7 unknown #
coedge $-1 $335 $334 $450 $496 reversed $129 $-1 #
edge $-1 $350 5.4718353587538573 $497 22.070207257783686 $349 $498 forward 7 unknown #
straight-curve $-1 -39.265857131078604 19.242856667022629 0 0 0 -1 I I #
straight-curve $-1 -42.991840284990104 13.771021308268772 -16.543712567307765 0 1 0 I I #
coedge $-1 $339 $349 $341 $451 forward $331 $-1 #
straight-curve $-1 -42.991840284990104 13.771021308268772 16.543712567307765 0 -1 0 I I #
coedge $-1 $342 $341 $444 $496 forward $343 $-1 #
edge $-1 $497 39.265857131078604 $345 42.991840284990104 $341 $499 forward 7 unknown #
edge $-1 $344 -42.991840284990104 $494 -39.265857131078604 $342 $500 forward 7 unknown #
point $-1 -42.991840284990104 35.841228566052457 -16.543712567307765 #
point $-1 -42.991840284990104 35.841228566052457 16.543712567307765 #
point $-1 -39.265857131078604 19.242856667022629 -16.543712567307765 #
point $-1 -39.265857131078604 19.242856667022629 16.543712567307765 #
edge $-1 $458 24.966630044825074 $461 39.408539627277328 $355 $501 forward 7 unknown #
vertex $-1 $369 $502 #
straight-curve $-1 -96.160231212970871 19.242856667022629 16.543712567307765 -1 0 0 I I #
edge $-1 $461 -11.179776210997005 $366 -4.9463847010542423 $365 $503 forward 7 unknown #
vertex $-1 $460 $504 #
straight-curve $-1 -72.353282265694133 19.242856667022629 2.1018029848555102 0.55919289150049634 0 0.82903758062907751 I I #
point $-1 -62.612091556254597 19.242856667022629 16.543712567307765 #
point $-1 -72.353282265694133 13.009465157079866 2.1018029848555102 #
straight-curve $-1 -72.353282265694133 0 16.543712567307765 0 -1 0 I I #
vertex $-1 $372 $505 #
point $-1 -66.123547770125953 14.256143459068419 9.0091158469362504 #
vertex $-1 $376 $506 #
point $-1 -66.123547770125953 16.126160912051247 9.0091158469362504 #
vertex $-1 $380 $507 #
point $-1 -66.123547770125953 17.996178365034076 9.0091158469362504 #
coedge $-1 $395 $394 $387 $473 forward $384 $-1 #
edge $-1 $474 88.539600512838419 $477 97.04314166197338 $472 $508 forward 7 unknown #
vertex $-1 $399 $509 #
straight-curve $-1 20.169799389895608 -1.8092560693712656 16.543712567307765 1 0 0 I I #
edge $-1 $477 -3.1404713540138758 $396 5.8029019232990962 $395 $510 forward 7 unknown #
vertex $-1 $476 $511 #
straight-curve $-1 -44.716786848317099 -1.8092560693712656 93.096557046281148 -0.80901698891910034 0 0.5877852598018023 I I #
point $-1 60.649162196499901 -1.8092560693712656 16.543712567307765 #
point $-1 72.353282265694148 7.1341172079417063 8.0401714181728039 #
straight-curve $-1 72.353282265694133 0 16.543712567307765 0 1 0 I I #
vertex $-1 $402 $512 #
point $-1 66.471190076575553 2.6624305692852204 8.848003089093206 #
straight-curve $-1 -72.353282265694133 35.841228566052457 0 0 0 -1 I I #
point $-1 -72.353282265694133 -35.841228566052457 -16.543712567307765 #
straight-curve $-1 -72.353282265694133 0 -16.543712567307765 0 1 0 I I #
point $-1 -72.353282265694133 35.841228566052457 -16.543712567307765 #
straight-curve $-1 -39.265857131078604 -13.771021308268772 16.543712567307765 0 1 0 I I #
straight-curve $-1 -39.265857131078604 -13.771021308268772 -16.543712567307765 0 -1 0 I I #
point $-1 -39.265857131078604 -35.841228566052457 -16.543712567307765 #
point $-1 -39.265857131078604 -35.841228566052457 16.543712567307765 #
straight-curve $-1 0 -35.841228566052457 -16.543712567307765 -1 0 0 I I #
straight-curve $-1 0 -35.841228566052457 16.543712567307765 1 0 0 I I #
vertex $-1 $496 $513 #
straight-curve $-1 -39.265857131078604 13.771021308268772 -16.543712567307765 0 -1 0 I I #
edge $-1 $497 -16.543712567307765 $494 16.543712567307765 $450 $514 forward 7 unknown #
vertex $-1 $451 $515 #
straight-curve $-1 -39.265857131078604 13.771021308268772 16.543712567307765 0 1 0 I I #
straight-curve $-1 0 35.841228566052457 16.543712567307765 -1 0 0 I I #
straight-curve $-1 0 35.841228566052457 -16.543712567307765 1 0 0 I I #
straight-curve $-1 -72.353282265694133 19.242856667022629 41.510342612132838 0 0 -1 I I #
point $-1 -72.353282265694133 19.242856667022629 16.543712567307765 #
straight-curve $-1 -72.353282265694133 8.0630804560256237 2.1018029848555075 0 -1 0 I I #
point $-1 -72.353282265694133 19.242856667022629 2.1018029848555102 #
point $-1 -65.988625425561665 14.256143459068419 8.3150006108714631 #
point $-1 -65.988625425561665 16.126160912051247 8.3150006108714631 #
point $-1 -65.988625425561665 17.996178365034076 8.3150006108714631 #
straight-curve $-1 72.353282265694133 -1.8092560693712656 105.08331308014618 0 0 -1 I I #
point $-1 72.353282265694133 -1.8092560693712656 16.543712567307765 #
straight-curve $-1 72.353282265694148 1.3312152846426102 8.040171418172811 0 1 0 I I #
point $-1 72.353282265694148 -1.8092560693712656 8.0401714181728039 #
point $-1 63.677585579133748 2.6624305692852204 8.405539630858609 #
point $-1 -39.265857131078604 35.841228566052457 -16.543712567307765 #
straight-curve $-1 -39.265857131078604 35.841228566052457 0 0 0 -1 I I #
point $-1 -39.265857131078604 35.841228566052457 16.543712567307765 #
End-of-ACIS-data 