500 0 15 0           
7 Unknown 11 ACIS 5.0 NT 24 Fri Mar 26 17:18:04 1999 
-1 9.9999999999999995e-007 1e-010 
body $-1 $15 $-1 $16 #
body $-1 $17 $-1 $18 #
body $-1 $19 $-1 $20 #
body $-1 $21 $-1 $22 #
body $-1 $23 $-1 $24 #
body $-1 $25 $-1 $26 #
body $-1 $27 $-1 $28 #
body $-1 $29 $-1 $30 #
body $-1 $31 $-1 $32 #
body $-1 $33 $-1 $34 #
body $-1 $35 $-1 $36 #
body $-1 $37 $-1 $38 #
body $-1 $39 $-1 $40 #
body $-1 $41 $-1 $42 #
body $-1 $43 $-1 $44 #
lump $-1 $-1 $45 $0 #
transform $-1 1 0 0 0 1 0 0 0 1 41.96539201025422 26.937921576845028 13.073857022138395 1 rotate no_reflect no_shear #
lump $-1 $-1 $46 $1 #
transform $-1 1 0 0 0 1 0 0 0 1 41.96539201025422 26.937921576845028 13.073857022138395 1 rotate no_reflect no_shear #
lump $-1 $-1 $47 $2 #
transform $-1 1 0 0 0 1 0 0 0 1 41.96539201025422 26.937921576845028 13.073857022138395 1 rotate no_reflect no_shear #
lump $-1 $-1 $48 $3 #
transform $-1 1 0 0 0 1 0 0 0 1 41.96539201025422 26.937921576845028 13.073857022138395 1 rotate no_reflect no_shear #
lump $-1 $-1 $49 $4 #
transform $-1 1 0 0 0 1 0 0 0 1 41.96539201025422 26.937921576845028 13.073857022138395 1 rotate no_reflect no_shear #
lump $-1 $-1 $50 $5 #
transform $-1 1 0 0 0 1 0 0 0 1 41.96539201025422 26.937921576845028 13.073857022138395 1 rotate no_reflect no_shear #
lump $-1 $-1 $51 $6 #
transform $-1 1 0 0 0 1 0 0 0 1 41.96539201025422 26.937921576845028 13.073857022138395 1 rotate no_reflect no_shear #
lump $-1 $-1 $52 $7 #
transform $-1 1 0 0 0 1 0 0 0 1 41.96539201025422 26.937921576845028 13.073857022138395 1 rotate no_reflect no_shear #
lump $-1 $-1 $53 $8 #
transform $-1 1 0 0 0 1 0 0 0 1 41.96539201025422 26.937921576845028 13.073857022138395 1 rotate no_reflect no_shear #
lump $-1 $-1 $54 $9 #
transform $-1 1 0 0 0 1 0 0 0 1 41.96539201025422 26.937921576845028 13.073857022138395 1 rotate no_reflect no_shear #
lump $-1 $-1 $55 $10 #
transform $-1 1 0 0 0 1 0 0 0 1 41.96539201025422 26.937921576845028 13.073857022138395 1 rotate no_reflect no_shear #
lump $-1 $-1 $56 $11 #
transform $-1 1 0 0 0 1 0 0 0 1 41.96539201025422 26.937921576845028 13.073857022138395 1 rotate no_reflect no_shear #
lump $-1 $-1 $57 $12 #
transform $-1 1 0 0 0 1 0 0 0 1 41.96539201025422 26.937921576845028 13.073857022138395 1 rotate no_reflect no_shear #
lump $-1 $-1 $58 $13 #
transform $-1 1 0 0 0 1 0 0 0 1 41.96539201025422 26.937921576845028 13.073857022138395 1 rotate no_reflect no_shear #
lump $-1 $-1 $59 $14 #
transform $-1 1 0 0 0 1 0 0 0 1 41.96539201025422 26.937921576845028 13.073857022138395 1 rotate no_reflect no_shear #
shell $-1 $-1 $-1 $60 $-1 $15 #
shell $-1 $-1 $-1 $61 $-1 $17 #
shell $-1 $-1 $-1 $62 $-1 $19 #
shell $-1 $-1 $-1 $63 $-1 $21 #
shell $-1 $-1 $-1 $64 $-1 $23 #
shell $-1 $-1 $-1 $65 $-1 $25 #
shell $-1 $-1 $-1 $66 $-1 $27 #
shell $-1 $-1 $-1 $67 $-1 $29 #
shell $-1 $-1 $-1 $68 $-1 $31 #
shell $-1 $-1 $-1 $69 $-1 $33 #
shell $-1 $-1 $-1 $70 $-1 $35 #
shell $-1 $-1 $-1 $71 $-1 $37 #
shell $-1 $-1 $-1 $72 $-1 $39 #
shell $-1 $-1 $-1 $73 $-1 $41 #
shell $-1 $-1 $-1 $74 $-1 $43 #
face $-1 $75 $76 $45 $-1 $77 forward single #
face $-1 $78 $79 $46 $-1 $80 forward single #
face $-1 $81 $82 $47 $-1 $83 forward single #
face $-1 $84 $85 $48 $-1 $86 reversed single #
face $-1 $87 $88 $49 $-1 $89 forward single #
face $-1 $90 $91 $50 $-1 $92 reversed single #
face $-1 $93 $94 $51 $-1 $95 forward single #
face $-1 $96 $97 $52 $-1 $98 reversed single #
face $-1 $99 $100 $53 $-1 $101 forward single #
face $-1 $102 $103 $54 $-1 $104 reversed single #
face $-1 $105 $106 $55 $-1 $107 forward single #
face $-1 $108 $109 $56 $-1 $110 reversed single #
face $-1 $111 $112 $57 $-1 $113 forward single #
face $-1 $114 $115 $58 $-1 $116 reversed single #
face $-1 $117 $118 $59 $-1 $119 forward single #
face $-1 $120 $121 $45 $-1 $122 reversed single #
loop $-1 $-1 $123 $60 #
plane-surface $-1 0 0 13.073857022138395 0 0 1 1 0 0 forward_v I I I I #
face $-1 $124 $125 $46 $-1 $126 reversed single #
loop $-1 $-1 $127 $61 #
plane-surface $-1 0 -26.937921576845028 0 0 1 0 0 0 1 forward_v I I I I #
face $-1 $128 $129 $47 $-1 $130 reversed single #
loop $-1 $-1 $131 $62 #
plane-surface $-1 0 26.937921576845028 0 0 -1 0 0 0 -1 forward_v I I I I #
face $-1 $132 $133 $48 $-1 $134 reversed single #
loop $-1 $-1 $135 $63 #
plane-surface $-1 52.310436200497932 -4.240304340617941 119.70409946332437 0 -1 0 -0.7660444514056185 0 -0.64278759981090561 forward_v I I I I #
face $-1 $136 $137 $49 $-1 $138 forward single #
loop $-1 $139 $140 $64 #
cone-surface $-1 36.248133877785612 -6.6914278783171177 6.5581277214756257 -0.7660444514056185 0 -0.64278759981090561 0.64278759981090561 0 -0.7660444514056185 1 I I 0 1 1 forward I I I I #
face $-1 $141 $142 $50 $-1 $143 reversed single #
loop $-1 $-1 $144 $65 #
plane-surface $-1 52.310436200497932 2.4511235376991802 119.70409946332437 0 -1 0 -0.7660444514056185 0 -0.64278759981090561 forward_v I I I I #
face $-1 $145 $146 $51 $-1 $147 forward single #
loop $-1 $148 $149 $66 #
cone-surface $-1 36.248133877785612 3.5527136788005009e-015 6.5581277214756257 -0.7660444514056185 0 -0.64278759981090561 0.64278759981090561 0 -0.7660444514056185 1 I I 0 1 1 forward I I I I #
face $-1 $150 $151 $52 $-1 $152 reversed single #
loop $-1 $-1 $153 $67 #
plane-surface $-1 52.310436200497932 9.1425514160163015 119.70409946332437 0 -1 0 -0.7660444514056185 0 -0.64278759981090561 forward_v I I I I #
face $-1 $154 $155 $53 $-1 $156 forward single #
loop $-1 $157 $158 $68 #
cone-surface $-1 36.248133877785612 6.6914278783171284 6.5581277214756257 -0.7660444514056185 0 -0.64278759981090561 0.64278759981090561 0 -0.7660444514056185 1 I I 0 1 1 forward I I I I #
face $-1 $159 $160 $54 $-1 $161 reversed single #
loop $-1 $-1 $162 $69 #
plane-surface $-1 -105.30875948180707 -9.237330793303018 62.408575428385049 0 1 0 -0.75470958851134928 0 0.65605901945558964 forward_v I I I I #
face $-1 $163 $164 $55 $-1 $165 forward single #
loop $-1 $166 $167 $70 #
cone-surface $-1 -38.554896009492722 -6.7388175669604777 9.4092653238812218 0.75470958851134928 0 -0.65605901945558964 0.65605901945558964 0 0.75470958851134928 1 I I 0 1 1 forward I I I I #
face $-1 $168 $169 $56 $-1 $170 reversed single #
loop $-1 $-1 $171 $71 #
plane-surface $-1 -105.30875948180707 -2.4985132263425402 62.408575428385049 0 1 0 -0.75470958851134928 0 0.65605901945558964 forward_v I I I I #
face $-1 $172 $173 $57 $-1 $174 forward single #
loop $-1 $175 $176 $72 #
cone-surface $-1 -38.554896009492722 0 9.4092653238812218 0.75470958851134928 0 -0.65605901945558964 0.65605901945558964 0 0.75470958851134928 1 I I 0 1 1 forward I I I I #
face $-1 $177 $178 $58 $-1 $179 reversed single #
loop $-1 $-1 $180 $73 #
plane-surface $-1 -105.30875948180707 4.2403043406179375 62.408575428385049 0 1 0 -0.75470958851134928 0 0.65605901945558964 forward_v I I I I #
face $-1 $181 $182 $59 $-1 $183 forward single #
loop $-1 $184 $185 $74 #
cone-surface $-1 -38.554896009492722 6.7388175669604777 9.4092653238812218 0.75470958851134928 0 -0.65605901945558964 0.65605901945558964 0 0.75470958851134928 1 I I 0 1 1 forward I I I I #
face $-1 $186 $187 $45 $-1 $188 reversed single #
loop $-1 $-1 $189 $75 #
plane-surface $-1 0 0 -13.073857022138395 0 0 1 1 0 0 forward_v I I I I #
coedge $-1 $190 $191 $192 $193 forward $76 $-1 #
face $-1 $194 $195 $46 $-1 $196 forward single #
loop $-1 $-1 $197 $78 #
plane-surface $-1 -41.96539201025422 0 0 1 0 0 0 0 -1 forward_v I I I I #
coedge $-1 $198 $199 $200 $201 forward $79 $-1 #
face $-1 $202 $203 $47 $-1 $204 forward single #
loop $-1 $-1 $205 $81 #
plane-surface $-1 41.96539201025422 0 0 -1 0 0 0 0 1 forward_v I I I I #
coedge $-1 $206 $207 $208 $209 forward $82 $-1 #
face $-1 $210 $211 $48 $-1 $212 reversed single #
loop $-1 $-1 $213 $84 #
plane-surface $-1 -11.984275200535905 -6.6914278783171213 65.75443225253423 0.7660444514056185 0 0.64278759981090561 0.64278759981090561 0 -0.7660444514056185 forward_v I I I I #
coedge $-1 $214 $215 $216 $217 reversed $85 $-1 #
face $-1 $-1 $218 $49 $-1 $219 forward single #
loop $-1 $220 $221 $87 #
cone-surface $-1 35.020562080653377 -6.6914278783171177 5.5280727062264141 -0.7660444514056185 0 -0.64278759981090561 0.3213937999054528 0 -0.38302222570280925 1 I I -0.70710678118654746 0.70710678118654746 0.5 forward I I I I #
loop $-1 $-1 $222 $64 #
coedge $-1 $140 $140 $223 $224 reversed $88 $-1 #
face $-1 $225 $226 $50 $-1 $227 reversed single #
loop $-1 $-1 $228 $90 #
plane-surface $-1 -11.984275200535905 0 65.75443225253423 0.7660444514056185 0 0.64278759981090561 0.64278759981090561 0 -0.7660444514056185 forward_v I I I I #
coedge $-1 $229 $230 $231 $232 reversed $91 $-1 #
face $-1 $-1 $233 $51 $-1 $234 forward single #
loop $-1 $235 $236 $93 #
cone-surface $-1 35.020562080653377 3.5527136788005009e-015 5.5280727062264141 -0.7660444514056185 0 -0.64278759981090561 0.3213937999054528 0 -0.38302222570280925 1 I I -0.70710678118654746 0.70710678118654746 0.5 forward I I I I #
loop $-1 $-1 $237 $66 #
coedge $-1 $149 $149 $238 $239 reversed $94 $-1 #
face $-1 $240 $241 $52 $-1 $242 reversed single #
loop $-1 $-1 $243 $96 #
plane-surface $-1 -11.984275200535905 6.6914278783171213 65.75443225253423 0.7660444514056185 0 0.64278759981090561 0.64278759981090561 0 -0.7660444514056185 forward_v I I I I #
coedge $-1 $244 $245 $246 $247 reversed $97 $-1 #
face $-1 $-1 $248 $53 $-1 $249 forward single #
loop $-1 $250 $251 $99 #
cone-surface $-1 35.020562080653377 6.6914278783171284 5.5280727062264141 -0.7660444514056185 0 -0.64278759981090561 0.3213937999054528 0 -0.38302222570280925 1 I I -0.70710678118654746 0.70710678118654746 0.5 forward I I I I #
loop $-1 $-1 $252 $68 #
coedge $-1 $158 $158 $253 $254 reversed $100 $-1 #
face $-1 $255 $256 $54 $-1 $257 reversed single #
loop $-1 $-1 $258 $102 #
plane-surface $-1 -41.96539201025422 -6.7388175669604777 7.345027561751408 -0.75470958851134928 0 0.65605901945558964 0.65605901945558964 0 0.75470958851134928 forward_v I I I I #
coedge $-1 $259 $260 $261 $262 reversed $103 $-1 #
face $-1 $-1 $263 $55 $-1 $264 forward single #
loop $-1 $265 $266 $105 #
cone-surface $-1 -37.257042887503168 -6.7388175669604777 8.2810588460897456 0.75470958851134928 0 -0.65605901945558964 0.32802950972779482 0 0.37735479425567464 1 I I -0.70710678118654746 0.70710678118654746 0.5 forward I I I I #
loop $-1 $-1 $267 $70 #
coedge $-1 $167 $167 $268 $269 reversed $106 $-1 #
face $-1 $270 $271 $56 $-1 $272 reversed single #
loop $-1 $-1 $273 $108 #
plane-surface $-1 -41.96539201025422 0 7.345027561751408 -0.75470958851134928 0 0.65605901945558964 0.65605901945558964 0 0.75470958851134928 forward_v I I I I #
coedge $-1 $274 $275 $276 $277 reversed $109 $-1 #
face $-1 $-1 $278 $57 $-1 $279 forward single #
loop $-1 $280 $281 $111 #
cone-surface $-1 -37.257042887503168 0 8.2810588460897456 0.75470958851134928 0 -0.65605901945558964 0.32802950972779482 0 0.37735479425567464 1 I I -0.70710678118654746 0.70710678118654746 0.5 forward I I I I #
loop $-1 $-1 $282 $72 #
coedge $-1 $176 $176 $283 $284 reversed $112 $-1 #
face $-1 $285 $286 $58 $-1 $287 reversed single #
loop $-1 $-1 $288 $114 #
plane-surface $-1 -41.96539201025422 6.7388175669604777 7.345027561751408 -0.75470958851134928 0 0.65605901945558964 0.65605901945558964 0 0.75470958851134928 forward_v I I I I #
coedge $-1 $289 $290 $291 $292 reversed $115 $-1 #
face $-1 $-1 $293 $59 $-1 $294 forward single #
loop $-1 $295 $296 $117 #
cone-surface $-1 -37.257042887503168 6.7388175669604777 8.2810588460897456 0.75470958851134928 0 -0.65605901945558964 0.32802950972779482 0 0.37735479425567464 1 I I -0.70710678118654746 0.70710678118654746 0.5 forward I I I I #
loop $-1 $-1 $297 $74 #
coedge $-1 $185 $185 $298 $299 reversed $118 $-1 #
face $-1 $300 $301 $45 $-1 $302 reversed single #
loop $-1 $-1 $303 $120 #
plane-surface $-1 0 -26.937921576845028 0 0 1 0 0 0 1 forward_v I I I I #
coedge $-1 $304 $305 $306 $307 forward $121 $-1 #
coedge $-1 $308 $123 $309 $310 forward $76 $-1 #
coedge $-1 $123 $308 $311 $312 forward $76 $-1 #
coedge $-1 $313 $314 $123 $193 reversed $315 $-1 #
edge $-1 $316 -26.937921576845028 $317 26.937921576845028 $192 $318 forward 7 unknown #
face $-1 $319 $320 $46 $-1 $321 reversed single #
loop $-1 $-1 $322 $124 #
plane-surface $-1 0 -34.046425854340633 -4.8369911286886698 0 0 1 1 0 0 forward_v I I I I #
coedge $-1 $323 $324 $199 $325 forward $125 $-1 #
coedge $-1 $326 $127 $327 $328 reversed $79 $-1 #
coedge $-1 $127 $326 $197 $325 reversed $79 $-1 #
coedge $-1 $329 $322 $127 $201 reversed $195 $-1 #
edge $-1 $330 -41.96539201025422 $331 41.96539201025422 $200 $332 forward 7 unknown #
face $-1 $333 $334 $47 $-1 $335 reversed single #
loop $-1 $-1 $336 $128 #
plane-surface $-1 0 34.046425854340633 -4.8369911286886698 0 0 1 1 0 0 forward_v I I I I #
coedge $-1 $337 $338 $207 $339 forward $129 $-1 #
coedge $-1 $340 $131 $341 $342 reversed $82 $-1 #
coedge $-1 $131 $340 $205 $339 reversed $82 $-1 #
coedge $-1 $336 $343 $131 $209 reversed $203 $-1 #
edge $-1 $344 -41.96539201025422 $345 41.96539201025422 $208 $346 forward 7 unknown #
face $-1 $347 $348 $48 $-1 $349 forward single #
loop $-1 $-1 $350 $132 #
plane-surface $-1 52.310436200497932 -9.1425514160163015 119.70409946332437 0 1 0 0.7660444514056185 0 0.64278759981090561 forward_v I I I I #
coedge $-1 $351 $352 $353 $354 reversed $133 $-1 #
coedge $-1 $215 $135 $355 $356 reversed $85 $-1 #
coedge $-1 $135 $214 $351 $357 reversed $85 $-1 #
coedge $-1 $353 $358 $135 $217 forward $348 $-1 #
edge $-1 $359 -15.810173910005254 $360 -6.0647567879269104 $216 $361 forward 7 unknown #
loop $-1 $-1 $223 $136 #
plane-surface $-1 -11.984275200535905 -6.6914278783171213 65.75443225253423 0.7660444514056185 0 0.64278759981090561 0.64278759981090561 0 -0.7660444514056185 forward_v I I I I #
loop $-1 $-1 $362 $87 #
coedge $-1 $221 $221 $222 $363 reversed $137 $-1 #
coedge $-1 $222 $222 $221 $363 forward $139 $-1 #
coedge $-1 $223 $223 $140 $224 forward $218 $-1 #
edge $-1 $364 0 $364 6.2831853071796004 $223 $365 forward 7 unknown #
face $-1 $366 $367 $50 $-1 $368 reversed single #
loop $-1 $-1 $369 $141 #
plane-surface $-1 52.310436200497932 -2.4511235376991802 119.70409946332437 0 1 0 0.7660444514056185 0 0.64278759981090561 forward_v I I I I #
coedge $-1 $370 $371 $372 $373 reversed $142 $-1 #
coedge $-1 $230 $144 $374 $375 reversed $91 $-1 #
coedge $-1 $144 $229 $370 $376 reversed $91 $-1 #
coedge $-1 $372 $377 $144 $232 forward $378 $-1 #
edge $-1 $379 -15.810173910005254 $380 -6.0647567879269104 $231 $381 forward 7 unknown #
loop $-1 $-1 $238 $145 #
plane-surface $-1 -11.984275200535905 0 65.75443225253423 0.7660444514056185 0 0.64278759981090561 0.64278759981090561 0 -0.7660444514056185 forward_v I I I I #
loop $-1 $-1 $382 $93 #
coedge $-1 $236 $236 $237 $383 reversed $146 $-1 #
coedge $-1 $237 $237 $236 $383 forward $148 $-1 #
coedge $-1 $238 $238 $149 $239 forward $233 $-1 #
edge $-1 $384 0 $384 6.2831853071796004 $238 $385 forward 7 unknown #
face $-1 $386 $387 $52 $-1 $388 reversed single #
loop $-1 $-1 $389 $150 #
plane-surface $-1 52.310436200497932 4.240304340617941 119.70409946332437 0 1 0 0.7660444514056185 0 0.64278759981090561 forward_v I I I I #
coedge $-1 $390 $391 $392 $393 reversed $151 $-1 #
coedge $-1 $245 $153 $394 $395 reversed $97 $-1 #
coedge $-1 $153 $244 $390 $396 reversed $97 $-1 #
coedge $-1 $392 $397 $153 $247 forward $398 $-1 #
edge $-1 $399 -15.810173910005254 $400 -6.0647567879269104 $246 $401 forward 7 unknown #
loop $-1 $-1 $253 $154 #
plane-surface $-1 -11.984275200535905 6.6914278783171213 65.75443225253423 0.7660444514056185 0 0.64278759981090561 0.64278759981090561 0 -0.7660444514056185 forward_v I I I I #
loop $-1 $-1 $402 $99 #
coedge $-1 $251 $251 $252 $403 reversed $155 $-1 #
coedge $-1 $252 $252 $251 $403 forward $157 $-1 #
coedge $-1 $253 $253 $158 $254 forward $248 $-1 #
edge $-1 $404 0 $404 6.2831853071796004 $253 $405 forward 7 unknown #
face $-1 $406 $407 $54 $-1 $408 reversed single #
loop $-1 $-1 $409 $159 #
plane-surface $-1 -105.30875948180707 -4.2403043406179375 62.408575428385049 0 -1 0 0.75470958851134928 0 -0.65605901945558964 forward_v I I I I #
coedge $-1 $410 $411 $412 $413 reversed $160 $-1 #
coedge $-1 $260 $162 $414 $415 reversed $103 $-1 #
coedge $-1 $162 $259 $410 $416 reversed $103 $-1 #
coedge $-1 $412 $417 $162 $262 forward $418 $-1 #
edge $-1 $419 10.688987730649316 $420 15.668983076704549 $261 $421 forward 7 unknown #
loop $-1 $-1 $268 $163 #
plane-surface $-1 -41.96539201025422 -6.7388175669604777 7.345027561751408 -0.75470958851134928 0 0.65605901945558964 0.65605901945558964 0 0.75470958851134928 forward_v I I I I #
loop $-1 $-1 $422 $105 #
coedge $-1 $266 $266 $267 $423 reversed $164 $-1 #
coedge $-1 $267 $267 $266 $423 forward $166 $-1 #
coedge $-1 $268 $268 $167 $269 forward $263 $-1 #
edge $-1 $424 0 $424 6.2831853071796004 $268 $425 forward 7 unknown #
face $-1 $426 $427 $56 $-1 $428 forward single #
loop $-1 $-1 $429 $168 #
plane-surface $-1 -105.30875948180707 2.4985132263425402 62.408575428385049 0 -1 0 0.75470958851134928 0 -0.65605901945558964 forward_v I I I I #
coedge $-1 $430 $431 $432 $433 reversed $169 $-1 #
coedge $-1 $275 $171 $434 $435 reversed $109 $-1 #
coedge $-1 $171 $274 $430 $436 reversed $109 $-1 #
coedge $-1 $432 $437 $171 $277 forward $427 $-1 #
edge $-1 $438 10.688987730649316 $439 15.668983076704549 $276 $440 forward 7 unknown #
loop $-1 $-1 $283 $172 #
plane-surface $-1 -41.96539201025422 0 7.345027561751408 -0.75470958851134928 0 0.65605901945558964 0.65605901945558964 0 0.75470958851134928 forward_v I I I I #
loop $-1 $-1 $441 $111 #
coedge $-1 $281 $281 $282 $442 reversed $173 $-1 #
coedge $-1 $282 $282 $281 $442 forward $175 $-1 #
coedge $-1 $283 $283 $176 $284 forward $278 $-1 #
edge $-1 $443 0 $443 6.2831853071796004 $283 $444 forward 7 unknown #
face $-1 $445 $446 $58 $-1 $447 forward single #
loop $-1 $-1 $448 $177 #
plane-surface $-1 -105.30875948180707 9.237330793303018 62.408575428385049 0 -1 0 0.75470958851134928 0 -0.65605901945558964 forward_v I I I I #
coedge $-1 $449 $450 $451 $452 reversed $178 $-1 #
coedge $-1 $290 $180 $453 $454 reversed $115 $-1 #
coedge $-1 $180 $289 $449 $455 reversed $115 $-1 #
coedge $-1 $451 $456 $180 $292 forward $446 $-1 #
edge $-1 $457 10.688987730649316 $458 15.668983076704549 $291 $459 forward 7 unknown #
loop $-1 $-1 $298 $181 #
plane-surface $-1 -41.96539201025422 6.7388175669604777 7.345027561751408 -0.75470958851134928 0 0.65605901945558964 0.65605901945558964 0 0.75470958851134928 forward_v I I I I #
loop $-1 $-1 $460 $117 #
coedge $-1 $296 $296 $297 $461 reversed $182 $-1 #
coedge $-1 $297 $297 $296 $461 forward $184 $-1 #
coedge $-1 $298 $298 $185 $299 forward $293 $-1 #
edge $-1 $462 0 $462 6.2831853071796004 $298 $463 forward 7 unknown #
face $-1 $464 $465 $45 $-1 $466 reversed single #
loop $-1 $-1 $467 $186 #
plane-surface $-1 -41.96539201025422 0 0 1 0 0 0 0 -1 forward_v I I I I #
coedge $-1 $468 $311 $469 $470 forward $187 $-1 #
coedge $-1 $471 $189 $468 $472 forward $121 $-1 #
coedge $-1 $189 $471 $473 $474 forward $121 $-1 #
coedge $-1 $314 $313 $189 $307 reversed $315 $-1 #
edge $-1 $475 -26.937921576845028 $476 26.937921576845028 $306 $477 forward 7 unknown #
coedge $-1 $191 $190 $478 $479 forward $76 $-1 #
coedge $-1 $480 $481 $190 $310 reversed $465 $-1 #
edge $-1 $317 -41.96539201025422 $482 41.96539201025422 $309 $483 forward 7 unknown #
coedge $-1 $303 $484 $191 $312 reversed $187 $-1 #
edge $-1 $485 -41.96539201025422 $316 41.96539201025422 $311 $486 forward 7 unknown #
coedge $-1 $306 $192 $484 $487 forward $315 $-1 #
coedge $-1 $192 $306 $480 $488 reversed $315 $-1 #
loop $-1 $-1 $313 $464 #
vertex $-1 $193 $489 #
vertex $-1 $193 $490 #
straight-curve $-1 41.96539201025422 0 13.073857022138395 0 1 0 I I #
face $-1 $491 $492 $46 $-1 $493 reversed single #
loop $-1 $-1 $494 $194 #
plane-surface $-1 0 -34.046425854340633 -11.060589157275942 0 0 1 1 0 0 forward_v I I I I #
coedge $-1 $200 $495 $496 $497 forward $195 $-1 #
coedge $-1 $498 $197 $499 $500 reversed $125 $-1 #
coedge $-1 $197 $498 $329 $501 reversed $125 $-1 #
edge $-1 $330 4.8369911286886698 $502 11.060589157275942 $197 $503 forward 7 unknown #
coedge $-1 $199 $198 $504 $505 forward $79 $-1 #
coedge $-1 $496 $506 $198 $328 forward $507 $-1 #
edge $-1 $508 -11.060589157275942 $331 -4.8369911286886698 $327 $509 forward 7 unknown #
coedge $-1 $495 $200 $324 $501 forward $195 $-1 #
vertex $-1 $325 $510 #
vertex $-1 $497 $511 #
straight-curve $-1 0 -26.937921576845028 -4.8369911286886698 1 0 0 I I #
face $-1 $512 $513 $47 $-1 $514 reversed single #
loop $-1 $-1 $515 $202 #
plane-surface $-1 0 34.046425854340633 -11.060589157275942 0 0 1 1 0 0 forward_v I I I I #
coedge $-1 $516 $208 $338 $517 forward $203 $-1 #
coedge $-1 $518 $205 $515 $519 reversed $129 $-1 #
coedge $-1 $205 $518 $336 $517 reversed $129 $-1 #
edge $-1 $344 4.8369911286886698 $520 11.060589157275942 $205 $521 forward 7 unknown #
coedge $-1 $207 $206 $522 $523 forward $82 $-1 #
coedge $-1 $524 $525 $206 $342 forward $526 $-1 #
edge $-1 $527 -11.060589157275942 $345 -4.8369911286886698 $341 $528 forward 7 unknown #
coedge $-1 $208 $516 $524 $529 forward $203 $-1 #
vertex $-1 $339 $530 #
vertex $-1 $529 $531 #
straight-curve $-1 0 26.937921576845028 -4.8369911286886698 -1 0 0 I I #
face $-1 $-1 $532 $48 $-1 $533 reversed single #
loop $-1 $-1 $216 $210 #
plane-surface $-1 0 0 13.073857022138395 0 0 1 1 0 0 forward_v I I I I #
coedge $-1 $534 $535 $536 $537 reversed $211 $-1 #
coedge $-1 $538 $213 $215 $357 forward $133 $-1 #
coedge $-1 $213 $538 $534 $539 forward $133 $-1 #
coedge $-1 $536 $216 $213 $354 forward $348 $-1 #
edge $-1 $360 0.8945904014593804 $540 5.7968374768577409 $353 $541 forward 7 unknown #
coedge $-1 $542 $543 $214 $356 forward $532 $-1 #
edge $-1 $544 -58.392328880161777 $359 -46.778192709523793 $355 $545 forward 7 unknown #
edge $-1 $360 68.769606168065067 $544 83.930784020508455 $215 $546 forward 7 unknown #
coedge $-1 $216 $536 $542 $547 forward $348 $-1 #
vertex $-1 $356 $548 #
vertex $-1 $217 $549 #
straight-curve $-1 26.155218100248966 -4.240304340617941 13.073857022138398 -1 0 0 I I #
coedge $-1 $362 $362 $-1 $550 reversed $220 $-1 #
edge $-1 $551 0 $551 6.2831853071796004 $221 $552 forward 7 unknown #
vertex $-1 $224 $553 #
ellipse-curve $-1 37.092683449215052 -6.6914278783171177 7.2667889368193972 0.7660444514056185 0 0.64278759981090561 0.64278759981090561 0 -0.7660444514056185 1 I I #
face $-1 $-1 $378 $50 $-1 $554 forward single #
loop $-1 $-1 $555 $225 #
plane-surface $-1 41.96539201025422 0 0 -1 0 0 0 0 1 forward_v I I I I #
coedge $-1 $556 $557 $558 $559 reversed $226 $-1 #
coedge $-1 $560 $228 $230 $376 forward $142 $-1 #
coedge $-1 $228 $560 $556 $561 forward $142 $-1 #
coedge $-1 $558 $231 $228 $373 forward $378 $-1 #
edge $-1 $380 -2.4511235376991802 $562 2.4511235376991802 $372 $563 forward 7 unknown #
coedge $-1 $564 $565 $229 $375 forward $367 $-1 #
edge $-1 $566 -58.392328880161777 $379 -46.778192709523793 $374 $567 forward 7 unknown #
edge $-1 $380 68.769606168065067 $566 83.930784020508455 $230 $568 forward 7 unknown #
coedge $-1 $231 $558 $564 $569 forward $378 $-1 #
loop $-1 $-1 $558 $366 #
vertex $-1 $375 $570 #
vertex $-1 $232 $571 #
straight-curve $-1 26.155218100248966 2.4511235376991802 13.073857022138398 -1 0 0 I I #
coedge $-1 $382 $382 $-1 $572 reversed $235 $-1 #
edge $-1 $573 0 $573 6.2831853071796004 $236 $574 forward 7 unknown #
vertex $-1 $239 $575 #
ellipse-curve $-1 37.092683449215052 3.5527136788005009e-015 7.2667889368193972 0.7660444514056185 0 0.64278759981090561 0.64278759981090561 0 -0.7660444514056185 1 I I #
face $-1 $-1 $398 $52 $-1 $576 forward single #
loop $-1 $-1 $577 $240 #
plane-surface $-1 41.96539201025422 0 0 -1 0 0 0 0 1 forward_v I I I I #
coedge $-1 $578 $579 $580 $581 reversed $241 $-1 #
coedge $-1 $582 $243 $245 $396 forward $151 $-1 #
coedge $-1 $243 $582 $578 $583 forward $151 $-1 #
coedge $-1 $580 $246 $243 $393 forward $398 $-1 #
edge $-1 $400 -5.7968374768577409 $584 -0.8945904014593804 $392 $585 forward 7 unknown #
coedge $-1 $586 $587 $244 $395 forward $387 $-1 #
edge $-1 $588 -58.392328880161777 $399 -46.778192709523793 $394 $589 forward 7 unknown #
edge $-1 $400 68.769606168065067 $588 83.930784020508455 $245 $590 forward 7 unknown #
coedge $-1 $246 $580 $586 $591 forward $398 $-1 #
loop $-1 $-1 $580 $386 #
vertex $-1 $395 $592 #
vertex $-1 $247 $593 #
straight-curve $-1 26.155218100248966 9.1425514160163015 13.073857022138398 -1 0 0 I I #
coedge $-1 $402 $402 $-1 $594 reversed $250 $-1 #
edge $-1 $595 0 $595 6.2831853071796004 $251 $596 forward 7 unknown #
vertex $-1 $254 $597 #
ellipse-curve $-1 37.092683449215052 6.6914278783171284 7.2667889368193972 0.7660444514056185 0 0.64278759981090561 0.64278759981090561 0 -0.7660444514056185 1 I I #
face $-1 $-1 $418 $54 $-1 $598 forward single #
loop $-1 $-1 $599 $255 #
plane-surface $-1 -41.96539201025422 0 0 1 0 0 0 0 -1 forward_v I I I I #
coedge $-1 $600 $601 $602 $603 reversed $256 $-1 #
coedge $-1 $604 $258 $260 $416 forward $160 $-1 #
coedge $-1 $258 $604 $600 $605 forward $160 $-1 #
coedge $-1 $602 $261 $258 $413 forward $418 $-1 #
edge $-1 $420 -5.8679220098227791 $606 -0.87089555713769862 $412 $607 forward 7 unknown #
coedge $-1 $608 $609 $259 $415 forward $407 $-1 #
edge $-1 $610 -23.859260152441117 $419 -18.13043069205413 $414 $611 forward 7 unknown #
edge $-1 $420 -7.5907733883267552 $610 0 $260 $612 forward 7 unknown #
coedge $-1 $261 $602 $608 $613 forward $418 $-1 #
loop $-1 $-1 $602 $406 #
vertex $-1 $415 $614 #
vertex $-1 $262 $615 #
straight-curve $-1 -52.654379740903536 -9.237330793303018 13.073857022138395 1 0 0 I I #
coedge $-1 $422 $422 $-1 $616 reversed $265 $-1 #
edge $-1 $617 0 $617 6.2831853071796004 $266 $618 forward 7 unknown #
vertex $-1 $269 $619 #
ellipse-curve $-1 -39.475394337226604 -6.7388175669604777 10.209442291944901 -0.75470958851134928 0 0.65605901945558964 0.65605901945558964 0 0.75470958851134928 1 I I #
face $-1 $-1 $620 $56 $-1 $621 reversed single #
loop $-1 $-1 $276 $270 #
plane-surface $-1 0 0 13.073857022138395 0 0 1 1 0 0 forward_v I I I I #
coedge $-1 $622 $623 $624 $625 reversed $271 $-1 #
coedge $-1 $626 $273 $275 $436 forward $169 $-1 #
coedge $-1 $273 $626 $622 $627 forward $169 $-1 #
coedge $-1 $624 $276 $273 $433 forward $427 $-1 #
edge $-1 $439 -2.4985132263425402 $628 2.4985132263425402 $432 $629 forward 7 unknown #
coedge $-1 $630 $631 $274 $435 forward $620 $-1 #
edge $-1 $632 -23.859260152441117 $438 -18.13043069205413 $434 $633 forward 7 unknown #
edge $-1 $439 -7.5907733883267552 $632 0 $275 $634 forward 7 unknown #
coedge $-1 $276 $624 $630 $635 forward $427 $-1 #
vertex $-1 $277 $636 #
vertex $-1 $277 $637 #
straight-curve $-1 -52.654379740903536 -2.4985132263425402 13.073857022138395 1 0 0 I I #
coedge $-1 $441 $441 $-1 $638 reversed $280 $-1 #
edge $-1 $639 0 $639 6.2831853071796004 $281 $640 forward 7 unknown #
vertex $-1 $284 $641 #
ellipse-curve $-1 -39.475394337226604 0 10.209442291944901 -0.75470958851134928 0 0.65605901945558964 0.65605901945558964 0 0.75470958851134928 1 I I #
face $-1 $-1 $642 $58 $-1 $643 reversed single #
loop $-1 $-1 $291 $285 #
plane-surface $-1 0 0 13.073857022138395 0 0 1 1 0 0 forward_v I I I I #
coedge $-1 $644 $645 $646 $647 reversed $286 $-1 #
coedge $-1 $648 $288 $290 $455 forward $178 $-1 #
coedge $-1 $288 $648 $644 $649 forward $178 $-1 #
coedge $-1 $646 $291 $288 $452 forward $446 $-1 #
edge $-1 $458 0.87089555713769862 $650 5.8679220098227791 $451 $651 forward 7 unknown #
coedge $-1 $652 $653 $289 $454 forward $642 $-1 #
edge $-1 $654 -23.859260152441117 $457 -18.13043069205413 $453 $655 forward 7 unknown #
edge $-1 $458 -7.5907733883267552 $654 0 $290 $656 forward 7 unknown #
coedge $-1 $291 $646 $652 $657 forward $446 $-1 #
vertex $-1 $292 $658 #
vertex $-1 $292 $659 #
straight-curve $-1 -52.654379740903536 4.2403043406179375 13.073857022138395 1 0 0 I I #
coedge $-1 $460 $460 $-1 $660 reversed $295 $-1 #
edge $-1 $661 0 $661 6.2831853071796004 $296 $662 forward 7 unknown #
vertex $-1 $299 $663 #
ellipse-curve $-1 -39.475394337226604 6.7388175669604777 10.209442291944901 -0.75470958851134928 0 0.65605901945558964 0.65605901945558964 0 0.75470958851134928 1 I I #
face $-1 $-1 $315 $45 $-1 $664 reversed single #
loop $-1 $-1 $480 $300 #
plane-surface $-1 0 26.937921576845028 0 0 -1 0 0 0 -1 forward_v I I I I #
coedge $-1 $665 $478 $481 $666 forward $301 $-1 #
coedge $-1 $484 $303 $304 $472 reversed $187 $-1 #
coedge $-1 $478 $665 $303 $470 reversed $301 $-1 #
edge $-1 $485 -13.073857022138395 $667 13.073857022138395 $469 $668 forward 7 unknown #
coedge $-1 $305 $304 $665 $669 forward $121 $-1 #
edge $-1 $476 -41.96539201025422 $667 41.96539201025422 $468 $670 forward 7 unknown #
coedge $-1 $481 $480 $305 $474 reversed $465 $-1 #
edge $-1 $671 -41.96539201025422 $475 41.96539201025422 $473 $672 forward 7 unknown #
vertex $-1 $307 $673 #
vertex $-1 $487 $674 #
straight-curve $-1 41.96539201025422 0 -13.073857022138395 0 -1 0 I I #
coedge $-1 $467 $469 $308 $479 reversed $301 $-1 #
edge $-1 $482 -26.937921576845028 $485 26.937921576845028 $478 $675 forward 7 unknown #
coedge $-1 $473 $309 $314 $488 forward $465 $-1 #
coedge $-1 $309 $473 $467 $666 reversed $465 $-1 #
vertex $-1 $310 $676 #
straight-curve $-1 0 26.937921576845028 13.073857022138395 -1 0 0 I I #
coedge $-1 $311 $468 $313 $487 reversed $187 $-1 #
vertex $-1 $479 $677 #
straight-curve $-1 0 -26.937921576845028 13.073857022138395 1 0 0 I I #
edge $-1 $316 -13.073857022138395 $476 13.073857022138395 $313 $678 forward 7 unknown #
edge $-1 $317 -13.073857022138395 $475 13.073857022138395 $314 $679 forward 7 unknown #
point $-1 41.96539201025422 -26.937921576845028 13.073857022138395 #
point $-1 41.96539201025422 26.937921576845028 13.073857022138395 #
face $-1 $-1 $507 $46 $-1 $680 reversed single #
loop $-1 $-1 $681 $319 #
plane-surface $-1 0 -41.154930131836238 -7.9487901429823058 0 1 0 0 0 1 forward_v I I I I #
coedge $-1 $682 $504 $506 $683 forward $320 $-1 #
coedge $-1 $322 $329 $684 $685 forward $195 $-1 #
coedge $-1 $686 $327 $322 $497 reversed $507 $-1 #
edge $-1 $687 -7.1085042774956051 $331 7.1085042774956051 $496 $688 forward 7 unknown #
coedge $-1 $324 $323 $681 $689 reversed $125 $-1 #
coedge $-1 $504 $682 $323 $500 forward $320 $-1 #
edge $-1 $690 -7.1085042774956051 $502 7.1085042774956051 $323 $691 forward 7 unknown #
edge $-1 $330 -7.1085042774956051 $692 7.1085042774956051 $324 $693 forward 7 unknown #
vertex $-1 $325 $694 #
straight-curve $-1 -41.96539201025422 -26.937921576845028 0 0 0 -1 I I #
coedge $-1 $494 $499 $326 $505 reversed $320 $-1 #
edge $-1 $508 -41.96539201025422 $502 41.96539201025422 $504 $695 forward 7 unknown #
coedge $-1 $327 $686 $494 $683 reversed $507 $-1 #
loop $-1 $-1 $327 $491 #
vertex $-1 $328 $696 #
straight-curve $-1 41.96539201025422 -26.937921576845028 0 0 0 1 I I #
point $-1 -41.96539201025422 -26.937921576845028 -4.8369911286886698 #
point $-1 41.96539201025422 -26.937921576845028 -4.8369911286886698 #
face $-1 $-1 $526 $47 $-1 $697 reversed single #
loop $-1 $-1 $698 $333 #
plane-surface $-1 0 41.154930131836238 -7.9487901429823058 0 -1 0 0 0 -1 forward_v I I I I #
coedge $-1 $522 $699 $337 $519 forward $334 $-1 #
coedge $-1 $343 $336 $700 $701 forward $203 $-1 #
edge $-1 $344 -7.1085042774956051 $702 7.1085042774956051 $338 $703 forward 7 unknown #
coedge $-1 $338 $337 $698 $704 reversed $129 $-1 #
edge $-1 $705 -7.1085042774956051 $520 7.1085042774956051 $337 $706 forward 7 unknown #
vertex $-1 $339 $707 #
straight-curve $-1 41.96539201025422 26.937921576845028 0 0 0 -1 I I #
coedge $-1 $708 $515 $340 $523 reversed $334 $-1 #
edge $-1 $527 -41.96539201025422 $520 41.96539201025422 $522 $709 forward 7 unknown #
coedge $-1 $710 $341 $343 $529 reversed $526 $-1 #
coedge $-1 $341 $710 $708 $711 reversed $526 $-1 #
loop $-1 $-1 $341 $512 #
vertex $-1 $342 $712 #
straight-curve $-1 -41.96539201025422 26.937921576845028 0 0 0 1 I I #
edge $-1 $713 -7.1085042774956051 $345 7.1085042774956051 $524 $714 forward 7 unknown #
point $-1 41.96539201025422 26.937921576845028 -4.8369911286886698 #
point $-1 -41.96539201025422 26.937921576845028 -4.8369911286886698 #
loop $-1 $-1 $355 $347 #
plane-surface $-1 41.96539201025422 0 0 -1 0 0 0 0 1 forward_v I I I I #
coedge $-1 $535 $350 $352 $539 reversed $211 $-1 #
coedge $-1 $350 $534 $715 $716 reversed $211 $-1 #
coedge $-1 $358 $353 $350 $537 forward $348 $-1 #
edge $-1 $540 6.0647567879269104 $717 15.810173910005254 $536 $718 forward 7 unknown #
coedge $-1 $352 $351 $543 $719 reversed $133 $-1 #
edge $-1 $720 -83.930784020508455 $540 -68.769606168065067 $534 $721 forward 7 unknown #
vertex $-1 $354 $722 #
straight-curve $-1 32.219974888175884 -3.3457139391585606 13.073857022138384 0 -1 0 I I #
coedge $-1 $715 $355 $358 $547 reversed $532 $-1 #
coedge $-1 $355 $715 $538 $719 forward $532 $-1 #
vertex $-1 $356 $723 #
straight-curve $-1 41.96539201025422 -4.240304340617941 59.852049731662184 0 0 1 I I #
straight-curve $-1 -11.984275200535905 -4.240304340617941 65.75443225253423 0.64278759981090561 0 -0.7660444514056185 I I #
edge $-1 $717 -9.1425514160163015 $359 -4.240304340617941 $542 $724 forward 7 unknown #
point $-1 41.96539201025422 -4.240304340617941 13.073857022138395 #
point $-1 32.219974888175877 -4.240304340617941 13.073857022138398 #
edge $-1 $725 1 $725 0 $362 $-1 forward 7 unknown #
vertex $-1 $363 $726 #
ellipse-curve $-1 35.403584306356187 -6.6914278783171177 5.8494665061318667 0.7660444514056185 0 0.64278759981090561 0.64278759981090561 0 -0.7660444514056185 1 I I #
point $-1 37.735471049025939 -6.6914278783171177 6.5007444854137661 #
plane-surface $-1 0 0 13.073857022138395 0 0 1 1 0 0 forward_v I I I I #
coedge $-1 $565 $564 $557 $727 forward $367 $-1 #
coedge $-1 $557 $369 $371 $561 reversed $226 $-1 #
coedge $-1 $369 $556 $555 $727 reversed $226 $-1 #
coedge $-1 $377 $372 $369 $559 forward $378 $-1 #
edge $-1 $562 6.0647567879269104 $728 15.810173910005254 $558 $729 forward 7 unknown #
coedge $-1 $371 $370 $565 $730 reversed $142 $-1 #
edge $-1 $731 -83.930784020508455 $562 -68.769606168065067 $556 $732 forward 7 unknown #
vertex $-1 $373 $733 #
straight-curve $-1 32.219974888175884 0 13.073857022138384 0 -1 0 I I #
coedge $-1 $555 $374 $377 $569 reversed $367 $-1 #
coedge $-1 $374 $555 $560 $730 forward $367 $-1 #
vertex $-1 $375 $734 #
straight-curve $-1 41.96539201025422 2.4511235376991802 59.852049731662184 0 0 1 I I #
straight-curve $-1 -11.984275200535905 2.4511235376991802 65.75443225253423 0.64278759981090561 0 -0.7660444514056185 I I #
edge $-1 $728 -2.4511235376991802 $379 2.4511235376991802 $564 $735 forward 7 unknown #
point $-1 41.96539201025422 2.4511235376991802 13.073857022138395 #
point $-1 32.219974888175877 2.4511235376991802 13.073857022138398 #
edge $-1 $736 1 $736 0 $382 $-1 forward 7 unknown #
vertex $-1 $383 $737 #
ellipse-curve $-1 35.403584306356187 3.5527136788005009e-015 5.8494665061318667 0.7660444514056185 0 0.64278759981090561 0.64278759981090561 0 -0.7660444514056185 1 I I #
point $-1 37.735471049025939 3.5527136788005009e-015 6.5007444854137661 #
plane-surface $-1 0 0 13.073857022138395 0 0 1 1 0 0 forward_v I I I I #
coedge $-1 $587 $586 $579 $738 forward $387 $-1 #
coedge $-1 $579 $389 $391 $583 reversed $241 $-1 #
coedge $-1 $389 $578 $577 $738 reversed $241 $-1 #
coedge $-1 $397 $392 $389 $581 forward $398 $-1 #
edge $-1 $584 6.0647567879269104 $739 15.810173910005254 $580 $740 forward 7 unknown #
coedge $-1 $391 $390 $587 $741 reversed $151 $-1 #
edge $-1 $742 -83.930784020508455 $584 -68.769606168065067 $578 $743 forward 7 unknown #
vertex $-1 $393 $744 #
straight-curve $-1 32.219974888175884 3.3457139391585606 13.073857022138384 0 -1 0 I I #
coedge $-1 $577 $394 $397 $591 reversed $387 $-1 #
coedge $-1 $394 $577 $582 $741 forward $387 $-1 #
vertex $-1 $395 $745 #
straight-curve $-1 41.96539201025422 9.1425514160163015 59.852049731662184 0 0 1 I I #
straight-curve $-1 -11.984275200535905 9.1425514160163015 65.75443225253423 0.64278759981090561 0 -0.7660444514056185 I I #
edge $-1 $739 4.240304340617941 $399 9.1425514160163015 $586 $746 forward 7 unknown #
point $-1 41.96539201025422 9.1425514160163015 13.073857022138395 #
point $-1 32.219974888175877 9.1425514160163015 13.073857022138398 #
edge $-1 $747 1 $747 0 $402 $-1 forward 7 unknown #
vertex $-1 $403 $748 #
ellipse-curve $-1 35.403584306356187 6.6914278783171284 5.8494665061318667 0.7660444514056185 0 0.64278759981090561 0.64278759981090561 0 -0.7660444514056185 1 I I #
point $-1 37.735471049025939 6.6914278783171284 6.5007444854137661 #
plane-surface $-1 0 0 13.073857022138395 0 0 1 1 0 0 forward_v I I I I #
coedge $-1 $609 $608 $601 $749 forward $407 $-1 #
coedge $-1 $601 $409 $411 $605 reversed $256 $-1 #
coedge $-1 $409 $600 $599 $749 reversed $256 $-1 #
coedge $-1 $417 $412 $409 $603 forward $418 $-1 #
edge $-1 $606 -15.668983076704549 $750 -10.688987730649316 $602 $751 forward 7 unknown #
coedge $-1 $411 $410 $609 $752 reversed $160 $-1 #
edge $-1 $753 0 $606 7.5907733883267552 $600 $754 forward 7 unknown #
vertex $-1 $413 $755 #
straight-curve $-1 -36.98539666419898 -3.3694087834802389 13.073857022138395 0 1 0 I I #
coedge $-1 $599 $414 $417 $613 reversed $407 $-1 #
coedge $-1 $414 $599 $604 $752 forward $407 $-1 #
vertex $-1 $415 $756 #
straight-curve $-1 -41.96539201025422 -9.237330793303018 31.204287714192525 0 0 1 I I #
straight-curve $-1 -41.96539201025422 -9.237330793303018 7.345027561751408 -0.65605901945558964 0 -0.75470958851134928 I I #
edge $-1 $750 4.2403043406179375 $419 9.237330793303018 $608 $757 forward 7 unknown #
point $-1 -41.96539201025422 -9.237330793303018 13.073857022138395 #
point $-1 -36.985396664198987 -9.237330793303018 13.073857022138395 #
edge $-1 $758 1 $758 0 $422 $-1 forward 7 unknown #
vertex $-1 $423 $759 #
ellipse-curve $-1 -37.634397681758841 -6.7388175669604777 8.6090883558175406 -0.75470958851134928 0 0.65605901945558964 0.65605901945558964 0 0.75470958851134928 1 I I #
point $-1 -38.819335317771014 -6.7388175669604777 10.964151880456253 #
loop $-1 $-1 $434 $426 #
plane-surface $-1 -41.96539201025422 0 0 1 0 0 0 0 -1 forward_v I I I I #
coedge $-1 $623 $429 $431 $627 reversed $271 $-1 #
coedge $-1 $429 $622 $760 $761 reversed $271 $-1 #
coedge $-1 $437 $432 $429 $625 forward $427 $-1 #
edge $-1 $628 -15.668983076704549 $762 -10.688987730649316 $624 $763 forward 7 unknown #
coedge $-1 $431 $430 $631 $764 reversed $169 $-1 #
edge $-1 $765 0 $628 7.5907733883267552 $622 $766 forward 7 unknown #
vertex $-1 $433 $767 #
straight-curve $-1 -36.98539666419898 0 13.073857022138395 0 1 0 I I #
coedge $-1 $760 $434 $437 $635 reversed $620 $-1 #
coedge $-1 $434 $760 $626 $764 forward $620 $-1 #
vertex $-1 $435 $768 #
straight-curve $-1 -41.96539201025422 -2.4985132263425402 31.204287714192525 0 0 1 I I #
straight-curve $-1 -41.96539201025422 -2.4985132263425402 7.345027561751408 -0.65605901945558964 0 -0.75470958851134928 I I #
edge $-1 $762 -2.4985132263425402 $438 2.4985132263425402 $630 $769 forward 7 unknown #
point $-1 -41.96539201025422 -2.4985132263425402 13.073857022138395 #
point $-1 -36.985396664198987 -2.4985132263425402 13.073857022138395 #
edge $-1 $770 1 $770 0 $441 $-1 forward 7 unknown #
vertex $-1 $442 $771 #
ellipse-curve $-1 -37.634397681758841 0 8.6090883558175406 -0.75470958851134928 0 0.65605901945558964 0.65605901945558964 0 0.75470958851134928 1 I I #
point $-1 -38.819335317771014 0 10.964151880456253 #
loop $-1 $-1 $453 $445 #
plane-surface $-1 -41.96539201025422 0 0 1 0 0 0 0 -1 forward_v I I I I #
coedge $-1 $645 $448 $450 $649 reversed $286 $-1 #
coedge $-1 $448 $644 $772 $773 reversed $286 $-1 #
coedge $-1 $456 $451 $448 $647 forward $446 $-1 #
edge $-1 $650 -15.668983076704549 $774 -10.688987730649316 $646 $775 forward 7 unknown #
coedge $-1 $450 $449 $653 $776 reversed $178 $-1 #
edge $-1 $777 0 $650 7.5907733883267552 $644 $778 forward 7 unknown #
vertex $-1 $452 $779 #
straight-curve $-1 -36.98539666419898 3.3694087834802389 13.073857022138395 0 1 0 I I #
coedge $-1 $772 $453 $456 $657 reversed $642 $-1 #
coedge $-1 $453 $772 $648 $776 forward $642 $-1 #
vertex $-1 $454 $780 #
straight-curve $-1 -41.96539201025422 4.2403043406179375 31.204287714192525 0 0 1 I I #
straight-curve $-1 -41.96539201025422 4.2403043406179375 7.345027561751408 -0.65605901945558964 0 -0.75470958851134928 I I #
edge $-1 $774 -9.237330793303018 $457 -4.2403043406179375 $652 $781 forward 7 unknown #
point $-1 -41.96539201025422 4.2403043406179375 13.073857022138395 #
point $-1 -36.985396664198987 4.2403043406179375 13.073857022138395 #
edge $-1 $782 1 $782 0 $460 $-1 forward 7 unknown #
vertex $-1 $461 $783 #
ellipse-curve $-1 -37.634397681758841 6.7388175669604777 8.6090883558175406 -0.75470958851134928 0 0.65605901945558964 0.65605901945558964 0 0.75470958851134928 1 I I #
point $-1 -38.819335317771014 6.7388175669604777 10.964151880456253 #
plane-surface $-1 41.96539201025422 0 0 -1 0 0 0 0 1 forward_v I I I I #
coedge $-1 $469 $467 $471 $669 reversed $301 $-1 #
edge $-1 $482 -13.073857022138395 $671 13.073857022138395 $481 $784 forward 7 unknown #
vertex $-1 $669 $785 #
straight-curve $-1 -41.96539201025422 -26.937921576845028 0 0 0 -1 I I #
edge $-1 $667 -26.937921576845028 $671 26.937921576845028 $665 $786 forward 7 unknown #
straight-curve $-1 0 -26.937921576845028 -13.073857022138395 -1 0 0 I I #
vertex $-1 $474 $787 #
straight-curve $-1 0 26.937921576845028 -13.073857022138395 1 0 0 I I #
point $-1 41.96539201025422 26.937921576845028 -13.073857022138395 #
point $-1 41.96539201025422 -26.937921576845028 -13.073857022138395 #
straight-curve $-1 -41.96539201025422 0 13.073857022138395 0 -1 0 I I #
point $-1 -41.96539201025422 26.937921576845028 13.073857022138395 #
point $-1 -41.96539201025422 -26.937921576845028 13.073857022138395 #
straight-curve $-1 41.96539201025422 -26.937921576845028 0 0 0 -1 I I #
straight-curve $-1 41.96539201025422 26.937921576845028 0 0 0 -1 I I #
plane-surface $-1 41.96539201025422 0 0 -1 0 0 0 0 1 forward_v I I I I #
coedge $-1 $788 $684 $498 $689 forward $492 $-1 #
coedge $-1 $499 $494 $788 $789 forward $320 $-1 #
edge $-1 $508 -7.1085042774956051 $790 7.1085042774956051 $506 $791 forward 7 unknown #
coedge $-1 $681 $792 $495 $685 reversed $492 $-1 #
edge $-1 $692 -41.96539201025422 $687 41.96539201025422 $684 $793 forward 7 unknown #
coedge $-1 $506 $496 $792 $794 forward $507 $-1 #
vertex $-1 $497 $795 #
straight-curve $-1 41.96539201025422 -34.046425854340633 -4.8369911286886698 0 1 0 I I #
edge $-1 $692 -3.111799014293636 $690 3.111799014293636 $498 $796 forward 7 unknown #
vertex $-1 $500 $797 #
straight-curve $-1 -41.96539201025422 -34.046425854340633 -11.060589157275942 0 1 0 I I #
vertex $-1 $501 $798 #
straight-curve $-1 -41.96539201025422 -34.046425854340633 -4.8369911286886698 0 -1 0 I I #
point $-1 -41.96539201025422 -26.937921576845028 -11.060589157275942 #
straight-curve $-1 0 -26.937921576845028 -11.060589157275942 -1 0 0 I I #
point $-1 41.96539201025422 -26.937921576845028 -11.060589157275942 #
plane-surface $-1 -41.96539201025422 0 0 1 0 0 0 0 -1 forward_v I I I I #
coedge $-1 $799 $700 $518 $704 forward $513 $-1 #
coedge $-1 $515 $708 $799 $800 forward $334 $-1 #
coedge $-1 $698 $801 $516 $701 reversed $513 $-1 #
edge $-1 $702 -41.96539201025422 $713 41.96539201025422 $700 $802 forward 7 unknown #
vertex $-1 $517 $803 #
straight-curve $-1 41.96539201025422 34.046425854340633 -4.8369911286886698 0 1 0 I I #
edge $-1 $702 -3.111799014293636 $705 3.111799014293636 $518 $804 forward 7 unknown #
vertex $-1 $519 $805 #
straight-curve $-1 41.96539201025422 34.046425854340633 -11.060589157275942 0 -1 0 I I #
point $-1 41.96539201025422 26.937921576845028 -11.060589157275942 #
coedge $-1 $699 $522 $525 $711 forward $334 $-1 #
straight-curve $-1 0 26.937921576845028 -11.060589157275942 1 0 0 I I #
coedge $-1 $525 $524 $801 $806 forward $526 $-1 #
edge $-1 $527 -7.1085042774956051 $807 7.1085042774956051 $525 $808 forward 7 unknown #
point $-1 -41.96539201025422 26.937921576845028 -11.060589157275942 #
vertex $-1 $701 $809 #
straight-curve $-1 -41.96539201025422 34.046425854340633 -4.8369911286886698 0 -1 0 I I #
coedge $-1 $543 $542 $535 $716 forward $532 $-1 #
edge $-1 $717 46.778192709523793 $720 58.392328880161777 $715 $810 forward 7 unknown #
vertex $-1 $547 $811 #
straight-curve $-1 26.155218100248966 -9.1425514160163015 13.073857022138398 1 0 0 I I #
edge $-1 $720 -5.7968374768577409 $544 -0.8945904014593804 $543 $812 forward 7 unknown #
vertex $-1 $719 $813 #
straight-curve $-1 -11.984275200535905 -9.1425514160163015 65.75443225253423 -0.64278759981090561 0 0.7660444514056185 I I #
point $-1 32.219974888175877 -9.1425514160163015 13.073857022138398 #
point $-1 41.96539201025422 -4.240304340617941 1.459720851500407 #
straight-curve $-1 41.96539201025422 0 13.073857022138395 0 1 0 I I #
vertex $-1 $550 $814 #
point $-1 36.046371906167096 -6.6914278783171177 5.0834220547262481 #
edge $-1 $728 46.778192709523793 $731 58.392328880161777 $555 $815 forward 7 unknown #
vertex $-1 $569 $816 #
straight-curve $-1 26.155218100248966 -2.4511235376991802 13.073857022138398 1 0 0 I I #
edge $-1 $731 -2.4511235376991802 $566 2.4511235376991802 $565 $817 forward 7 unknown #
vertex $-1 $730 $818 #
straight-curve $-1 -11.984275200535905 -2.4511235376991802 65.75443225253423 -0.64278759981090561 0 0.7660444514056185 I I #
point $-1 32.219974888175877 -2.4511235376991802 13.073857022138398 #
point $-1 41.96539201025422 2.4511235376991802 1.459720851500407 #
straight-curve $-1 41.96539201025422 0 13.073857022138395 0 1 0 I I #
vertex $-1 $572 $819 #
point $-1 36.046371906167096 3.5527136788005009e-015 5.0834220547262481 #
edge $-1 $739 46.778192709523793 $742 58.392328880161777 $577 $820 forward 7 unknown #
vertex $-1 $591 $821 #
straight-curve $-1 26.155218100248966 4.240304340617941 13.073857022138398 1 0 0 I I #
edge $-1 $742 0.8945904014593804 $588 5.7968374768577409 $587 $822 forward 7 unknown #
vertex $-1 $741 $823 #
straight-curve $-1 -11.984275200535905 4.240304340617941 65.75443225253423 -0.64278759981090561 0 0.7660444514056185 I I #
point $-1 32.219974888175877 4.240304340617941 13.073857022138398 #
point $-1 41.96539201025422 9.1425514160163015 1.459720851500407 #
straight-curve $-1 41.96539201025422 0 13.073857022138395 0 1 0 I I #
vertex $-1 $594 $824 #
point $-1 36.046371906167096 6.6914278783171284 5.0834220547262481 #
edge $-1 $750 18.13043069205413 $753 23.859260152441117 $599 $825 forward 7 unknown #
vertex $-1 $613 $826 #
straight-curve $-1 -52.654379740903536 -4.2403043406179375 13.073857022138395 -1 0 0 I I #
edge $-1 $753 0.87089555713769862 $610 5.8679220098227791 $609 $827 forward 7 unknown #
vertex $-1 $752 $828 #
straight-curve $-1 -41.96539201025422 -4.2403043406179375 7.345027561751408 0.65605901945558964 0 0.75470958851134928 I I #
point $-1 -36.985396664198987 -4.2403043406179375 13.073857022138395 #
point $-1 -41.96539201025422 -9.237330793303018 7.345027561751408 #
straight-curve $-1 -41.96539201025422 0 13.073857022138395 0 -1 0 I I #
vertex $-1 $616 $829 #
point $-1 -36.978338662303251 -6.7388175669604777 9.3637979443288906 #
coedge $-1 $631 $630 $623 $761 forward $620 $-1 #
edge $-1 $762 18.13043069205413 $765 23.859260152441117 $760 $830 forward 7 unknown #
vertex $-1 $635 $831 #
straight-curve $-1 -52.654379740903536 2.4985132263425402 13.073857022138395 -1 0 0 I I #
edge $-1 $765 -2.4985132263425402 $632 2.4985132263425402 $631 $832 forward 7 unknown #
vertex $-1 $764 $833 #
straight-curve $-1 -41.96539201025422 2.4985132263425402 7.345027561751408 0.65605901945558964 0 0.75470958851134928 I I #
point $-1 -36.985396664198987 2.4985132263425402 13.073857022138395 #
point $-1 -41.96539201025422 -2.4985132263425402 7.345027561751408 #
straight-curve $-1 -41.96539201025422 0 13.073857022138395 0 -1 0 I I #
vertex $-1 $638 $834 #
point $-1 -36.978338662303251 0 9.3637979443288906 #
coedge $-1 $653 $652 $645 $773 forward $642 $-1 #
edge $-1 $774 18.13043069205413 $777 23.859260152441117 $772 $835 forward 7 unknown #
vertex $-1 $657 $836 #
straight-curve $-1 -52.654379740903536 9.237330793303018 13.073857022138395 -1 0 0 I I #
edge $-1 $777 -5.8679220098227791 $654 -0.87089555713769862 $653 $837 forward 7 unknown #
vertex $-1 $776 $838 #
straight-curve $-1 -41.96539201025422 9.237330793303018 7.345027561751408 0.65605901945558964 0 0.75470958851134928 I I #
point $-1 -36.985396664198987 9.237330793303018 13.073857022138395 #
point $-1 -41.96539201025422 4.2403043406179375 7.345027561751408 #
straight-curve $-1 -41.96539201025422 0 13.073857022138395 0 -1 0 I I #
vertex $-1 $660 $839 #
point $-1 -36.978338662303251 6.7388175669604777 9.3637979443288906 #
straight-curve $-1 -41.96539201025422 26.937921576845028 0 0 0 -1 I I #
point $-1 -41.96539201025422 -26.937921576845028 -13.073857022138395 #
straight-curve $-1 -41.96539201025422 0 -13.073857022138395 0 1 0 I I #
point $-1 -41.96539201025422 26.937921576845028 -13.073857022138395 #
coedge $-1 $792 $681 $682 $789 reversed $492 $-1 #
edge $-1 $790 -41.96539201025422 $690 41.96539201025422 $788 $840 forward 7 unknown #
vertex $-1 $794 $841 #
straight-curve $-1 41.96539201025422 -34.046425854340633 -11.060589157275942 0 -1 0 I I #
coedge $-1 $684 $788 $686 $794 reversed $492 $-1 #
straight-curve $-1 0 -41.154930131836238 -4.8369911286886698 1 0 0 I I #
edge $-1 $687 -3.111799014293636 $790 3.111799014293636 $686 $842 forward 7 unknown #
point $-1 41.96539201025422 -41.154930131836238 -4.8369911286886698 #
straight-curve $-1 -41.96539201025422 -41.154930131836238 -7.9487901429823058 0 0 -1 I I #
point $-1 -41.96539201025422 -41.154930131836238 -11.060589157275942 #
point $-1 -41.96539201025422 -41.154930131836238 -4.8369911286886698 #
coedge $-1 $801 $698 $699 $800 reversed $513 $-1 #
edge $-1 $807 -41.96539201025422 $705 41.96539201025422 $799 $843 forward 7 unknown #
coedge $-1 $700 $799 $710 $806 reversed $513 $-1 #
straight-curve $-1 0 41.154930131836238 -4.8369911286886698 -1 0 0 I I #
point $-1 41.96539201025422 41.154930131836238 -4.8369911286886698 #
straight-curve $-1 41.96539201025422 41.154930131836238 -7.9487901429823058 0 0 -1 I I #
point $-1 41.96539201025422 41.154930131836238 -11.060589157275942 #
edge $-1 $713 -3.111799014293636 $807 3.111799014293636 $801 $844 forward 7 unknown #
vertex $-1 $800 $845 #
straight-curve $-1 -41.96539201025422 34.046425854340633 -11.060589157275942 0 1 0 I I #
point $-1 -41.96539201025422 41.154930131836238 -4.8369911286886698 #
straight-curve $-1 41.96539201025422 -9.1425514160163015 59.852049731662184 0 0 -1 I I #
point $-1 41.96539201025422 -9.1425514160163015 13.073857022138395 #
straight-curve $-1 41.96539201025422 -3.3457139391585606 1.4597208515003963 0 1 0 I I #
point $-1 41.96539201025422 -9.1425514160163015 1.459720851500407 #
point $-1 34.637539854950568 -6.6914278783171177 5.2066789063209615 #
straight-curve $-1 41.96539201025422 -2.4511235376991802 59.852049731662184 0 0 -1 I I #
point $-1 41.96539201025422 -2.4511235376991802 13.073857022138395 #
straight-curve $-1 41.96539201025422 0 1.4597208515003963 0 1 0 I I #
point $-1 41.96539201025422 -2.4511235376991802 1.459720851500407 #
point $-1 34.637539854950568 3.5527136788005009e-015 5.2066789063209615 #
straight-curve $-1 41.96539201025422 4.240304340617941 59.852049731662184 0 0 -1 I I #
point $-1 41.96539201025422 4.240304340617941 13.073857022138395 #
straight-curve $-1 41.96539201025422 3.3457139391585606 1.4597208515003963 0 1 0 I I #
point $-1 41.96539201025422 4.240304340617941 1.459720851500407 #
point $-1 34.637539854950568 6.6914278783171284 5.2066789063209615 #
straight-curve $-1 -41.96539201025422 -4.2403043406179375 31.204287714192525 0 0 -1 I I #
point $-1 -41.96539201025422 -4.2403043406179375 13.073857022138395 #
straight-curve $-1 -41.96539201025422 -3.3694087834802389 7.3450275617514054 0 -1 0 I I #
point $-1 -41.96539201025422 -4.2403043406179375 7.345027561751408 #
point $-1 -36.879688093247495 -6.7388175669604777 7.9530293363619506 #
straight-curve $-1 -41.96539201025422 2.4985132263425402 31.204287714192525 0 0 -1 I I #
point $-1 -41.96539201025422 2.4985132263425402 13.073857022138395 #
straight-curve $-1 -41.96539201025422 0 7.3450275617514054 0 -1 0 I I #
point $-1 -41.96539201025422 2.4985132263425402 7.345027561751408 #
point $-1 -36.879688093247495 0 7.9530293363619506 #
straight-curve $-1 -41.96539201025422 9.237330793303018 31.204287714192525 0 0 -1 I I #
point $-1 -41.96539201025422 9.237330793303018 13.073857022138395 #
straight-curve $-1 -41.96539201025422 3.3694087834802389 7.3450275617514054 0 -1 0 I I #
point $-1 -41.96539201025422 9.237330793303018 7.345027561751408 #
point $-1 -36.879688093247495 6.7388175669604777 7.9530293363619506 #
straight-curve $-1 0 -41.154930131836238 -11.060589157275942 -1 0 0 I I #
point $-1 41.96539201025422 -41.154930131836238 -11.060589157275942 #
straight-curve $-1 41.96539201025422 -41.154930131836238 -7.9487901429823058 0 0 -1 I I #
straight-curve $-1 0 41.154930131836238 -11.060589157275942 1 0 0 I I #
straight-curve $-1 -41.96539201025422 41.154930131836238 -7.9487901429823058 0 0 -1 I I #
point $-1 -41.96539201025422 41.154930131836238 -11.060589157275942 #
End-of-ACIS-data 