500 0 8 0           
7 Unknown 11 ACIS 5.0 NT 24 Fri Mar 26 19:11:56 1999 
-1 9.9999999999999995e-007 1e-010 
body $-1 $8 $-1 $9 #
body $-1 $10 $-1 $11 #
body $-1 $12 $-1 $13 #
body $-1 $14 $-1 $15 #
body $-1 $16 $-1 $17 #
body $-1 $18 $-1 $19 #
body $-1 $20 $-1 $21 #
body $-1 $22 $-1 $23 #
lump $-1 $-1 $24 $0 #
transform $-1 1 0 0 0 1 0 0 0 1 42.447584459974976 20.818709077406105 6.4319626292981651 1 rotate no_reflect no_shear #
lump $-1 $-1 $25 $1 #
transform $-1 1 0 0 0 1 0 0 0 1 42.447584459974976 20.818709077406105 6.4319626292981651 1 rotate no_reflect no_shear #
lump $-1 $-1 $26 $2 #
transform $-1 1 0 0 0 1 0 0 0 1 42.447584459974976 20.818709077406105 6.4319626292981651 1 rotate no_reflect no_shear #
lump $-1 $-1 $27 $3 #
transform $-1 1 0 0 0 1 0 0 0 1 42.447584459974976 20.818709077406105 6.4319626292981651 1 rotate no_reflect no_shear #
lump $-1 $-1 $28 $4 #
transform $-1 1 0 0 0 1 0 0 0 1 42.447584459974976 20.818709077406105 6.4319626292981651 1 rotate no_reflect no_shear #
lump $-1 $-1 $29 $5 #
transform $-1 1 0 0 0 1 0 0 0 1 42.447584459974976 20.818709077406105 6.4319626292981651 1 rotate no_reflect no_shear #
lump $-1 $-1 $30 $6 #
transform $-1 1 0 0 0 1 0 0 0 1 42.447584459974976 20.818709077406105 6.4319626292981651 1 rotate no_reflect no_shear #
lump $-1 $-1 $31 $7 #
transform $-1 1 0 0 0 1 0 0 0 1 42.447584459974976 20.818709077406105 6.4319626292981651 1 rotate no_reflect no_shear #
shell $-1 $-1 $-1 $32 $-1 $8 #
shell $-1 $-1 $-1 $33 $-1 $10 #
shell $-1 $-1 $-1 $34 $-1 $12 #
shell $-1 $-1 $-1 $35 $-1 $14 #
shell $-1 $-1 $-1 $36 $-1 $16 #
shell $-1 $-1 $-1 $37 $-1 $18 #
shell $-1 $-1 $-1 $38 $-1 $20 #
shell $-1 $-1 $-1 $39 $-1 $22 #
face $-1 $40 $41 $24 $-1 $42 forward single #
face $-1 $43 $44 $25 $-1 $45 forward single #
face $-1 $46 $47 $26 $-1 $48 reversed single #
face $-1 $49 $50 $27 $-1 $51 forward single #
face $-1 $52 $53 $28 $-1 $54 forward single #
face $-1 $55 $56 $29 $-1 $57 forward single #
face $-1 $58 $59 $30 $-1 $60 reversed single #
face $-1 $61 $62 $31 $-1 $63 forward single #
face $-1 $64 $65 $24 $-1 $66 reversed single #
loop $-1 $-1 $67 $32 #
plane-surface $-1 0 0 6.4319626292981651 0 0 1 1 0 0 forward_v I I I I #
face $-1 $68 $69 $25 $-1 $70 reversed single #
loop $-1 $-1 $71 $33 #
plane-surface $-1 -40.133232121632851 0 -2.6755645442788696 0 0 1 1 0 0 forward_v I I I I #
face $-1 $72 $73 $26 $-1 $74 reversed single #
loop $-1 $-1 $75 $34 #
plane-surface $-1 3.1863325840078147 74.883477192140361 78.200921548415039 1 0 0 0 -0.87461971476443456 -0.48480960649040278 forward_v I I I I #
face $-1 $76 $77 $27 $-1 $78 forward single #
loop $-1 $79 $80 $35 #
cone-surface $-1 6.3061105170178067 18.270338308743789 3.0083694578808764 0 -0.87461971476443456 -0.48480960649040278 1 0 0 1 I I 0 1 1 forward I I I I #
face $-1 $81 $82 $28 $-1 $83 forward single #
loop $-1 $84 $85 $36 #
cone-surface $-1 10.985777416532791 18.270338308743789 3.0083694578808764 0 -0.87461971476443456 -0.48480960649040278 1 0 0 1 I I 0 1 1 forward I I I I #
face $-1 $86 $87 $29 $-1 $88 forward single #
loop $-1 $89 $90 $37 #
cone-surface $-1 15.665444316047775 18.270338308743789 3.0083694578808764 0 -0.87461971476443456 -0.48480960649040278 1 0 0 1 I I 0 1 1 forward I I I I #
face $-1 $91 $92 $30 $-1 $93 reversed single #
loop $-1 $-1 $94 $38 #
plane-surface $-1 -22.130334287944947 -92.813896125610199 48.064379143443183 -1 0 0 0 -0.84804810408105047 0.52991925155115449 forward_v I I I I #
face $-1 $95 $96 $31 $-1 $97 forward single #
loop $-1 $98 $99 $39 #
cone-surface $-1 -29.974607035617836 -19.346414277065957 4.489419073410736 0 0.84804810408105047 -0.52991925155115449 0.5 0 0 1 I I 0 1 0.5 forward I I I I #
face $-1 $100 $101 $24 $-1 $102 reversed single #
loop $-1 $-1 $103 $40 #
plane-surface $-1 0 0 -6.4319626292981651 0 0 1 1 0 0 forward_v I I I I #
coedge $-1 $104 $105 $106 $107 forward $41 $-1 #
face $-1 $108 $109 $25 $-1 $110 reversed single #
loop $-1 $-1 $111 $43 #
plane-surface $-1 -37.818879783290726 0 -4.5537635867885173 -1 0 0 0 0 1 forward_v I I I I #
coedge $-1 $112 $113 $114 $115 forward $44 $-1 #
face $-1 $116 $117 $26 $-1 $118 reversed single #
loop $-1 $-1 $119 $46 #
plane-surface $-1 10.985777416532791 0.63248876649524277 37.042928111397828 0 0.87461971476443456 0.48480960649040278 1 0 0 forward_v I I I I #
coedge $-1 $120 $121 $122 $123 reversed $47 $-1 #
face $-1 $-1 $124 $27 $-1 $125 forward single #
loop $-1 $126 $127 $49 #
cone-surface $-1 6.3061105170178067 16.893800532624013 2.2453421372132363 0 -0.87461971476443456 -0.48480960649040278 0.5 0 0 1 I I -0.70710678118654746 0.70710678118654746 0.5 forward I I I I #
loop $-1 $-1 $128 $35 #
coedge $-1 $80 $80 $129 $130 reversed $50 $-1 #
face $-1 $-1 $131 $28 $-1 $132 forward single #
loop $-1 $133 $134 $52 #
cone-surface $-1 10.985777416532791 16.893800532624013 2.2453421372132363 0 -0.87461971476443456 -0.48480960649040278 0.5 0 0 1 I I -0.70710678118654746 0.70710678118654746 0.5 forward I I I I #
loop $-1 $-1 $135 $36 #
coedge $-1 $85 $85 $136 $137 reversed $53 $-1 #
face $-1 $-1 $138 $29 $-1 $139 forward single #
loop $-1 $140 $141 $55 #
cone-surface $-1 15.665444316047775 16.893800532624013 2.2453421372132363 0 -0.87461971476443456 -0.48480960649040278 0.5 0 0 1 I I -0.70710678118654746 0.70710678118654746 0.5 forward I I I I #
loop $-1 $-1 $142 $37 #
coedge $-1 $90 $90 $143 $144 reversed $56 $-1 #
face $-1 $145 $146 $30 $-1 $147 reversed single #
loop $-1 $-1 $148 $58 #
plane-surface $-1 -29.974607035617836 -20.818709077406126 3.0767947690744748 0 -0.84804810408105047 0.52991925155115449 1 0 0 forward_v I I I I #
coedge $-1 $149 $150 $151 $152 reversed $59 $-1 #
face $-1 $-1 $153 $31 $-1 $154 forward single #
loop $-1 $155 $156 $61 #
cone-surface $-1 -29.974607035617836 -18.71037819900517 4.0919796347473705 0 0.84804810408105047 -0.52991925155115449 0.25 0 0 1 I I -0.70710678118654746 0.70710678118654746 0.25 forward I I I I #
loop $-1 $-1 $157 $39 #
coedge $-1 $99 $99 $158 $159 reversed $62 $-1 #
face $-1 $160 $161 $24 $-1 $162 reversed single #
loop $-1 $-1 $163 $64 #
plane-surface $-1 0 -20.818709077406105 0 0 1 0 0 0 1 forward_v I I I I #
coedge $-1 $164 $165 $166 $167 forward $65 $-1 #
coedge $-1 $168 $67 $169 $170 forward $41 $-1 #
coedge $-1 $67 $168 $171 $172 forward $41 $-1 #
coedge $-1 $173 $174 $67 $107 reversed $175 $-1 #
edge $-1 $176 -20.818709077406105 $177 20.818709077406105 $106 $178 forward 7 unknown #
face $-1 $179 $180 $25 $-1 $181 reversed single #
loop $-1 $-1 $182 $68 #
plane-surface $-1 0 0 -6.4319626292981651 0 0 1 1 0 0 forward_v I I I I #
coedge $-1 $183 $114 $184 $185 reversed $69 $-1 #
coedge $-1 $186 $71 $187 $188 reversed $44 $-1 #
coedge $-1 $71 $186 $189 $190 reversed $44 $-1 #
coedge $-1 $111 $191 $71 $115 reversed $69 $-1 #
edge $-1 $192 -20.818709077406105 $193 20.818709077406105 $114 $194 forward 7 unknown #
face $-1 $195 $196 $26 $-1 $197 reversed single #
loop $-1 $-1 $198 $72 #
plane-surface $-1 18.785222249057767 74.883477192140361 78.200921548415039 -1 0 0 0 0.87461971476443456 0.48480960649040278 forward_v I I I I #
coedge $-1 $199 $200 $201 $202 reversed $73 $-1 #
coedge $-1 $121 $75 $203 $204 reversed $47 $-1 #
coedge $-1 $75 $120 $199 $205 reversed $47 $-1 #
coedge $-1 $201 $206 $75 $123 forward $207 $-1 #
edge $-1 $208 16.623029518664076 $209 19.841315218513607 $122 $210 forward 7 unknown #
loop $-1 $-1 $129 $76 #
plane-surface $-1 10.985777416532791 0.63248876649524277 37.042928111397828 0 0.87461971476443456 0.48480960649040278 1 0 0 forward_v I I I I #
loop $-1 $-1 $211 $49 #
coedge $-1 $127 $127 $128 $212 reversed $77 $-1 #
coedge $-1 $128 $128 $127 $212 forward $79 $-1 #
coedge $-1 $129 $129 $80 $130 forward $124 $-1 #
edge $-1 $213 0 $213 6.2831853071796004 $129 $214 forward 7 unknown #
loop $-1 $-1 $136 $81 #
plane-surface $-1 10.985777416532791 0.63248876649524277 37.042928111397828 0 0.87461971476443456 0.48480960649040278 1 0 0 forward_v I I I I #
loop $-1 $-1 $215 $52 #
coedge $-1 $134 $134 $135 $216 reversed $82 $-1 #
coedge $-1 $135 $135 $134 $216 forward $84 $-1 #
coedge $-1 $136 $136 $85 $137 forward $131 $-1 #
edge $-1 $217 0 $217 6.2831853071796004 $136 $218 forward 7 unknown #
loop $-1 $-1 $143 $86 #
plane-surface $-1 10.985777416532791 0.63248876649524277 37.042928111397828 0 0.87461971476443456 0.48480960649040278 1 0 0 forward_v I I I I #
loop $-1 $-1 $219 $55 #
coedge $-1 $141 $141 $142 $220 reversed $87 $-1 #
coedge $-1 $142 $142 $141 $220 forward $89 $-1 #
coedge $-1 $143 $143 $90 $144 forward $138 $-1 #
edge $-1 $221 0 $221 6.2831853071796004 $143 $222 forward 7 unknown #
face $-1 $223 $224 $30 $-1 $225 forward single #
loop $-1 $-1 $226 $91 #
plane-surface $-1 -37.818879783290726 -92.813896125610199 48.064379143443183 1 0 0 0 0.84804810408105047 -0.52991925155115449 forward_v I I I I #
coedge $-1 $227 $228 $229 $230 reversed $92 $-1 #
coedge $-1 $150 $94 $231 $232 reversed $59 $-1 #
coedge $-1 $94 $149 $227 $233 reversed $59 $-1 #
coedge $-1 $229 $234 $94 $152 forward $224 $-1 #
edge $-1 $235 25.588238985398995 $236 27.684780481998207 $151 $237 forward 7 unknown #
loop $-1 $-1 $158 $95 #
plane-surface $-1 -29.974607035617836 -20.818709077406126 3.0767947690744748 0 -0.84804810408105047 0.52991925155115449 1 0 0 forward_v I I I I #
loop $-1 $-1 $238 $61 #
coedge $-1 $156 $156 $157 $239 reversed $96 $-1 #
coedge $-1 $157 $157 $156 $239 forward $98 $-1 #
coedge $-1 $158 $158 $99 $159 forward $153 $-1 #
edge $-1 $240 -1.5111603134505096e-015 $240 6.2831853071795987 $158 $241 forward 7 unknown #
face $-1 $242 $243 $24 $-1 $244 reversed single #
loop $-1 $-1 $245 $100 #
plane-surface $-1 -42.447584459974976 0 0 1 0 0 0 0 -1 forward_v I I I I #
coedge $-1 $246 $171 $247 $248 forward $101 $-1 #
coedge $-1 $249 $103 $246 $250 forward $65 $-1 #
coedge $-1 $103 $249 $251 $252 forward $65 $-1 #
coedge $-1 $174 $173 $103 $167 reversed $175 $-1 #
edge $-1 $253 -20.818709077406105 $254 20.818709077406105 $166 $255 forward 7 unknown #
coedge $-1 $105 $104 $256 $257 forward $41 $-1 #
coedge $-1 $258 $259 $104 $170 reversed $243 $-1 #
edge $-1 $177 -42.447584459974976 $260 42.447584459974976 $169 $261 forward 7 unknown #
coedge $-1 $163 $262 $105 $172 reversed $101 $-1 #
edge $-1 $263 -42.447584459974976 $176 42.447584459974976 $171 $264 forward 7 unknown #
coedge $-1 $166 $106 $262 $265 forward $175 $-1 #
coedge $-1 $106 $166 $258 $266 reversed $175 $-1 #
loop $-1 $-1 $173 $242 #
vertex $-1 $107 $267 #
vertex $-1 $107 $268 #
straight-curve $-1 42.447584459974976 0 6.4319626292981651 0 1 0 I I #
face $-1 $269 $270 $25 $-1 $271 reversed single #
loop $-1 $-1 $184 $108 #
plane-surface $-1 0 -20.818709077406105 0 0 1 0 0 0 1 forward_v I I I I #
coedge $-1 $272 $273 $183 $274 forward $109 $-1 #
coedge $-1 $191 $111 $182 $274 reversed $69 $-1 #
coedge $-1 $189 $275 $111 $185 forward $180 $-1 #
edge $-1 $276 -4.155080835903906 $192 -0.39868275088461091 $184 $277 forward 7 unknown #
coedge $-1 $113 $112 $278 $279 reversed $44 $-1 #
coedge $-1 $280 $281 $112 $188 forward $282 $-1 #
edge $-1 $283 -22.380968399158551 $193 -17.7522637224743 $187 $284 forward 7 unknown #
coedge $-1 $285 $184 $113 $190 forward $180 $-1 #
edge $-1 $192 17.7522637224743 $286 22.380968399158551 $189 $287 forward 7 unknown #
coedge $-1 $114 $183 $280 $288 reversed $69 $-1 #
vertex $-1 $190 $289 #
vertex $-1 $188 $290 #
straight-curve $-1 -37.818879783290726 0 -2.6755645442788696 0 1 0 I I #
face $-1 $-1 $207 $26 $-1 $291 forward single #
loop $-1 $-1 $292 $116 #
plane-surface $-1 0 20.818709077406105 0 0 -1 0 0 0 -1 forward_v I I I I #
coedge $-1 $293 $294 $295 $296 reversed $117 $-1 #
coedge $-1 $297 $119 $121 $205 forward $73 $-1 #
coedge $-1 $119 $297 $293 $298 forward $73 $-1 #
coedge $-1 $295 $122 $119 $202 forward $207 $-1 #
edge $-1 $209 -2.3065561242585808 $299 13.292333540791372 $201 $300 forward 7 unknown #
coedge $-1 $301 $302 $120 $204 forward $196 $-1 #
edge $-1 $303 -38.474439452899041 $208 -32.668498144909357 $203 $304 forward 7 unknown #
edge $-1 $209 34.999171600361493 $303 41.637418154812224 $121 $305 forward 7 unknown #
coedge $-1 $122 $295 $301 $306 forward $207 $-1 #
loop $-1 $-1 $295 $195 #
vertex $-1 $204 $307 #
vertex $-1 $123 $308 #
straight-curve $-1 3.1863325840078147 37.441738596070181 6.4319626292981624 0 -1 0 I I #
coedge $-1 $211 $211 $-1 $309 reversed $126 $-1 #
edge $-1 $310 0 $310 6.2831853071796004 $127 $311 forward 7 unknown #
vertex $-1 $130 $312 #
ellipse-curve $-1 6.3061105170178067 19.209566227481346 3.528991975303315 0 0.87461971476443456 0.48480960649040278 1 0 0 1 I I #
coedge $-1 $215 $215 $-1 $313 reversed $133 $-1 #
edge $-1 $314 0 $314 6.2831853071796004 $134 $315 forward 7 unknown #
vertex $-1 $137 $316 #
ellipse-curve $-1 10.985777416532791 19.209566227481346 3.528991975303315 0 0.87461971476443456 0.48480960649040278 1 0 0 1 I I #
coedge $-1 $219 $219 $-1 $317 reversed $140 $-1 #
edge $-1 $318 0 $318 6.2831853071796004 $141 $319 forward 7 unknown #
vertex $-1 $144 $320 #
ellipse-curve $-1 15.665444316047775 19.209566227481346 3.528991975303315 0 0.87461971476443456 0.48480960649040278 1 0 0 1 I I #
face $-1 $-1 $321 $30 $-1 $322 reversed single #
loop $-1 $-1 $151 $145 #
plane-surface $-1 0 0 6.4319626292981651 0 0 1 1 0 0 forward_v I I I I #
coedge $-1 $323 $324 $325 $326 reversed $146 $-1 #
coedge $-1 $327 $148 $150 $233 forward $92 $-1 #
coedge $-1 $148 $327 $323 $328 forward $92 $-1 #
coedge $-1 $325 $151 $148 $230 forward $224 $-1 #
edge $-1 $236 7.1430307701360292 $329 22.831576265481807 $229 $330 forward 7 unknown #
coedge $-1 $331 $332 $149 $232 forward $321 $-1 #
edge $-1 $333 -20.955394802647081 $235 -17.600226942423426 $231 $334 forward 7 unknown #
edge $-1 $236 -3.9563414434601789 $333 -4.0294802201000261e-014 $150 $335 forward 7 unknown #
coedge $-1 $151 $325 $331 $336 forward $224 $-1 #
vertex $-1 $152 $337 #
vertex $-1 $152 $338 #
straight-curve $-1 -22.130334287944947 -46.4069480628051 6.431962629298166 0 1 0 I I #
coedge $-1 $238 $238 $-1 $339 reversed $155 $-1 #
edge $-1 $340 0 $340 6.2831853071796004 $156 $341 forward 7 unknown #
vertex $-1 $159 $342 #
ellipse-curve $-1 -29.974607035617836 -19.770438329106504 4.7543786991863275 0 -0.84804810408105047 0.52991925155115449 0.5 0 0 1 I I #
face $-1 $-1 $175 $24 $-1 $343 reversed single #
loop $-1 $-1 $258 $160 #
plane-surface $-1 0 20.818709077406105 0 0 -1 0 0 0 -1 forward_v I I I I #
coedge $-1 $344 $256 $259 $345 forward $161 $-1 #
coedge $-1 $262 $163 $164 $250 reversed $101 $-1 #
coedge $-1 $256 $344 $163 $248 reversed $161 $-1 #
edge $-1 $263 -6.4319626292981651 $346 6.4319626292981651 $247 $347 forward 7 unknown #
coedge $-1 $165 $164 $344 $348 forward $65 $-1 #
edge $-1 $254 -42.447584459974976 $346 42.447584459974976 $246 $349 forward 7 unknown #
coedge $-1 $259 $258 $165 $252 reversed $243 $-1 #
edge $-1 $350 -42.447584459974976 $253 42.447584459974976 $251 $351 forward 7 unknown #
vertex $-1 $167 $352 #
vertex $-1 $265 $353 #
straight-curve $-1 42.447584459974976 0 -6.4319626292981651 0 -1 0 I I #
coedge $-1 $245 $247 $168 $257 reversed $161 $-1 #
edge $-1 $260 -20.818709077406105 $263 20.818709077406105 $256 $354 forward 7 unknown #
coedge $-1 $251 $169 $174 $266 forward $243 $-1 #
coedge $-1 $169 $251 $245 $345 reversed $243 $-1 #
vertex $-1 $170 $355 #
straight-curve $-1 0 20.818709077406105 6.4319626292981651 -1 0 0 I I #
coedge $-1 $171 $246 $173 $265 reversed $101 $-1 #
vertex $-1 $257 $356 #
straight-curve $-1 0 -20.818709077406105 6.4319626292981651 1 0 0 I I #
edge $-1 $176 -6.4319626292981651 $254 6.4319626292981651 $173 $357 forward 7 unknown #
edge $-1 $177 -6.4319626292981651 $253 6.4319626292981651 $174 $358 forward 7 unknown #
point $-1 42.447584459974976 -20.818709077406105 6.4319626292981651 #
point $-1 42.447584459974976 20.818709077406105 6.4319626292981651 #
face $-1 $-1 $282 $25 $-1 $359 reversed single #
loop $-1 $-1 $278 $179 #
plane-surface $-1 -42.447584459974976 0 0 1 0 0 0 0 -1 forward_v I I I I #
coedge $-1 $360 $182 $275 $361 forward $109 $-1 #
coedge $-1 $182 $360 $362 $363 forward $109 $-1 #
edge $-1 $364 -20.818709077406105 $276 20.818709077406105 $182 $365 forward 7 unknown #
coedge $-1 $184 $285 $272 $361 reversed $180 $-1 #
vertex $-1 $361 $366 #
straight-curve $-1 -37.818879783290726 -20.818709077406105 -2.2768817933942587 0 0 1 I I #
coedge $-1 $367 $368 $186 $279 forward $270 $-1 #
edge $-1 $286 -20.818709077406105 $283 20.818709077406105 $278 $369 forward 7 unknown #
coedge $-1 $362 $187 $191 $288 forward $282 $-1 #
coedge $-1 $187 $362 $367 $370 reversed $282 $-1 #
loop $-1 $-1 $280 $269 #
vertex $-1 $370 $371 #
straight-curve $-1 -20.066616060816425 20.818709077406105 -2.6755645442788696 1 0 0 I I #
coedge $-1 $275 $189 $368 $372 forward $180 $-1 #
vertex $-1 $372 $373 #
straight-curve $-1 -20.066616060816425 -20.818709077406105 -2.6755645442788696 -1 0 0 I I #
edge $-1 $193 0.39868275088461091 $364 4.155080835903906 $280 $374 forward 7 unknown #
point $-1 -37.818879783290726 -20.818709077406105 -2.6755645442788696 #
point $-1 -37.818879783290726 20.818709077406105 -2.6755645442788696 #
plane-surface $-1 0 0 6.4319626292981651 0 0 1 1 0 0 forward_v I I I I #
coedge $-1 $302 $301 $294 $375 forward $196 $-1 #
coedge $-1 $294 $198 $200 $298 reversed $117 $-1 #
coedge $-1 $198 $293 $292 $375 reversed $117 $-1 #
coedge $-1 $206 $201 $198 $296 forward $207 $-1 #
edge $-1 $299 -19.841315218513607 $376 -16.623029518664076 $295 $377 forward 7 unknown #
coedge $-1 $200 $199 $302 $378 reversed $73 $-1 #
edge $-1 $379 -41.637418154812224 $299 -34.999171600361493 $293 $380 forward 7 unknown #
vertex $-1 $202 $381 #
straight-curve $-1 5.4928887082663955 17.600423377556574 6.431962629298166 1 0 0 I I #
coedge $-1 $292 $203 $206 $306 reversed $196 $-1 #
coedge $-1 $203 $292 $297 $378 forward $196 $-1 #
vertex $-1 $204 $382 #
straight-curve $-1 3.1863325840078147 20.818709077406105 39.100460774207519 0 0 1 I I #
straight-curve $-1 3.1863325840078147 0.63248876649524277 37.042928111397828 0 0.48480960649040278 -0.87461971476443456 I I #
edge $-1 $376 -18.785222249057767 $208 -3.1863325840078147 $301 $383 forward 7 unknown #
point $-1 3.1863325840078147 20.818709077406105 6.4319626292981651 #
point $-1 3.1863325840078147 17.600423377556574 6.431962629298166 #
edge $-1 $384 1 $384 0 $211 $-1 forward 7 unknown #
vertex $-1 $212 $385 #
ellipse-curve $-1 6.3061105170178067 17.331110390006231 2.4877469404584378 0 0.87461971476443456 0.48480960649040278 1 0 0 1 I I #
point $-1 7.3061105170178067 19.209566227481346 3.528991975303315 #
edge $-1 $386 1 $386 0 $215 $-1 forward 7 unknown #
vertex $-1 $216 $387 #
ellipse-curve $-1 10.985777416532791 17.331110390006231 2.4877469404584378 0 0.87461971476443456 0.48480960649040278 1 0 0 1 I I #
point $-1 11.985777416532791 19.209566227481346 3.528991975303315 #
edge $-1 $388 1 $388 0 $219 $-1 forward 7 unknown #
vertex $-1 $220 $389 #
ellipse-curve $-1 15.665444316047775 17.331110390006231 2.4877469404584378 0 0.87461971476443456 0.48480960649040278 1 0 0 1 I I #
point $-1 16.665444316047775 19.209566227481346 3.528991975303315 #
loop $-1 $-1 $231 $223 #
plane-surface $-1 0 -20.818709077406105 0 0 1 0 0 0 1 forward_v I I I I #
coedge $-1 $324 $226 $228 $328 reversed $146 $-1 #
coedge $-1 $226 $323 $390 $391 reversed $146 $-1 #
coedge $-1 $234 $229 $226 $326 forward $224 $-1 #
edge $-1 $329 -27.684780481998207 $392 -25.588238985398995 $325 $393 forward 7 unknown #
coedge $-1 $228 $227 $332 $394 reversed $92 $-1 #
edge $-1 $395 4.0294802201000261e-014 $329 3.9563414434601789 $323 $396 forward 7 unknown #
vertex $-1 $230 $397 #
straight-curve $-1 -14.987303517808918 -18.722167580806897 6.4319626292981651 -1 0 0 I I #
coedge $-1 $390 $231 $234 $336 reversed $321 $-1 #
coedge $-1 $231 $390 $327 $394 forward $321 $-1 #
vertex $-1 $232 $398 #
straight-curve $-1 -22.130334287944947 -20.818709077406105 24.032189571721592 0 0 1 I I #
straight-curve $-1 -22.130334287944947 -20.818709077406126 3.0767947690744748 0 -0.52991925155115449 -0.84804810408105047 I I #
edge $-1 $392 -37.818879783290726 $235 -22.130334287944947 $331 $399 forward 7 unknown #
point $-1 -22.130334287944947 -20.818709077406105 6.4319626292981651 #
point $-1 -22.130334287944947 -18.722167580806893 6.4319626292981651 #
edge $-1 $400 1 $400 0 $238 $-1 forward 7 unknown #
vertex $-1 $239 $401 #
ellipse-curve $-1 -29.974607035617836 -18.922390225025431 4.2244594476351587 0 -0.84804810408105047 0.52991925155115449 0.5 0 0 1 I I #
point $-1 -29.474607035617836 -19.770438329106483 4.7543786991863133 #
plane-surface $-1 42.447584459974976 0 0 -1 0 0 0 0 1 forward_v I I I I #
coedge $-1 $247 $245 $249 $348 reversed $161 $-1 #
edge $-1 $260 -6.4319626292981651 $350 6.4319626292981651 $259 $402 forward 7 unknown #
vertex $-1 $348 $403 #
straight-curve $-1 -42.447584459974976 -20.818709077406105 0 0 0 -1 I I #
edge $-1 $346 -20.818709077406105 $350 20.818709077406105 $344 $404 forward 7 unknown #
straight-curve $-1 0 -20.818709077406105 -6.4319626292981651 -1 0 0 I I #
vertex $-1 $252 $405 #
straight-curve $-1 0 20.818709077406105 -6.4319626292981651 1 0 0 I I #
point $-1 42.447584459974976 20.818709077406105 -6.4319626292981651 #
point $-1 42.447584459974976 -20.818709077406105 -6.4319626292981651 #
straight-curve $-1 -42.447584459974976 0 6.4319626292981651 0 -1 0 I I #
point $-1 -42.447584459974976 20.818709077406105 6.4319626292981651 #
point $-1 -42.447584459974976 -20.818709077406105 6.4319626292981651 #
straight-curve $-1 42.447584459974976 -20.818709077406105 0 0 0 -1 I I #
straight-curve $-1 42.447584459974976 20.818709077406105 0 0 0 -1 I I #
plane-surface $-1 0 20.818709077406105 0 0 -1 0 0 0 -1 forward_v I I I I #
coedge $-1 $273 $272 $406 $407 forward $109 $-1 #
edge $-1 $276 37.818879783290726 $408 42.447584459974976 $275 $409 forward 7 unknown #
coedge $-1 $281 $280 $273 $363 reversed $282 $-1 #
edge $-1 $410 -42.447584459974976 $364 -37.818879783290726 $362 $411 forward 7 unknown #
vertex $-1 $288 $412 #
straight-curve $-1 -37.818879783290726 0 -6.4319626292981651 0 -1 0 I I #
point $-1 -37.818879783290726 -20.818709077406105 -6.4319626292981651 #
coedge $-1 $406 $278 $281 $370 forward $270 $-1 #
coedge $-1 $278 $406 $285 $372 reversed $270 $-1 #
straight-curve $-1 -42.447584459974976 0 -2.6755645442788696 0 1 0 I I #
edge $-1 $283 2.6755645442788696 $410 6.4319626292981651 $281 $413 forward 7 unknown #
point $-1 -42.447584459974976 20.818709077406105 -2.6755645442788696 #
edge $-1 $286 2.6755645442788696 $408 6.4319626292981651 $368 $414 forward 7 unknown #
point $-1 -42.447584459974976 -20.818709077406105 -2.6755645442788696 #
straight-curve $-1 -37.818879783290726 20.818709077406105 -2.2768817933942587 0 0 -1 I I #
edge $-1 $376 32.668498144909357 $379 38.474439452899041 $292 $415 forward 7 unknown #
vertex $-1 $306 $416 #
straight-curve $-1 18.785222249057767 37.441738596070181 6.4319626292981624 0 1 0 I I #
edge $-1 $379 -13.292333540791372 $303 2.3065561242585808 $302 $417 forward 7 unknown #
vertex $-1 $378 $418 #
straight-curve $-1 18.785222249057767 0.63248876649524277 37.042928111397828 0 -0.48480960649040278 0.87461971476443456 I I #
point $-1 18.785222249057767 17.600423377556574 6.431962629298166 #
point $-1 3.1863325840078147 20.818709077406105 0.62602132130847821 #
straight-curve $-1 0 20.818709077406105 6.4319626292981651 -1 0 0 I I #
vertex $-1 $309 $419 #
point $-1 7.3061105170178067 17.331110390006231 2.4877469404584378 #
vertex $-1 $313 $420 #
point $-1 11.985777416532791 17.331110390006231 2.4877469404584378 #
vertex $-1 $317 $421 #
point $-1 16.665444316047775 17.331110390006231 2.4877469404584378 #
coedge $-1 $332 $331 $324 $391 forward $321 $-1 #
edge $-1 $392 17.600226942423426 $395 20.955394802647081 $390 $422 forward 7 unknown #
vertex $-1 $336 $423 #
straight-curve $-1 -37.818879783290726 -46.4069480628051 6.431962629298166 0 -1 0 I I #
edge $-1 $395 -22.831576265481807 $333 -7.1430307701360292 $332 $424 forward 7 unknown #
vertex $-1 $394 $425 #
straight-curve $-1 -37.818879783290726 -20.818709077406126 3.0767947690744748 0 0.52991925155115449 0.84804810408105047 I I #
point $-1 -37.818879783290726 -18.722167580806893 6.4319626292981651 #
point $-1 -22.130334287944947 -20.818709077406105 3.076794769074509 #
straight-curve $-1 0 -20.818709077406105 6.4319626292981651 1 0 0 I I #
vertex $-1 $339 $426 #
point $-1 -29.474607035617836 -18.922390225025431 4.2244594476351587 #
straight-curve $-1 -42.447584459974976 20.818709077406105 0 0 0 -1 I I #
point $-1 -42.447584459974976 -20.818709077406105 -6.4319626292981651 #
straight-curve $-1 -42.447584459974976 0 -6.4319626292981651 0 1 0 I I #
point $-1 -42.447584459974976 20.818709077406105 -6.4319626292981651 #
coedge $-1 $368 $367 $360 $407 reversed $270 $-1 #
edge $-1 $408 -20.818709077406105 $410 20.818709077406105 $406 $427 forward 7 unknown #
vertex $-1 $407 $428 #
straight-curve $-1 0 -20.818709077406105 -6.4319626292981651 -1 0 0 I I #
vertex $-1 $363 $429 #
straight-curve $-1 0 20.818709077406105 -6.4319626292981651 1 0 0 I I #
point $-1 -37.818879783290726 20.818709077406105 -6.4319626292981651 #
straight-curve $-1 -42.447584459974976 20.818709077406105 0 0 0 -1 I I #
straight-curve $-1 -42.447584459974976 -20.818709077406105 0 0 0 -1 I I #
straight-curve $-1 18.785222249057767 20.818709077406105 39.100460774207519 0 0 -1 I I #
point $-1 18.785222249057767 20.818709077406105 6.4319626292981651 #
straight-curve $-1 5.4928887082663955 20.818709077406105 0.62602132130848176 -1 0 0 I I #
point $-1 18.785222249057767 20.818709077406105 0.62602132130847821 #
point $-1 6.3061105170178067 16.456490675241795 2.0029373339680347 #
point $-1 10.985777416532791 16.456490675241795 2.0029373339680347 #
point $-1 15.665444316047775 16.456490675241795 2.0029373339680347 #
straight-curve $-1 -37.818879783290726 -20.818709077406105 24.032189571721592 0 0 -1 I I #
point $-1 -37.818879783290726 -20.818709077406105 6.4319626292981651 #
straight-curve $-1 -14.987303517808918 -20.818709077406105 3.076794769074509 1 0 0 I I #
point $-1 -37.818879783290726 -20.818709077406105 3.076794769074509 #
point $-1 -29.974607035617836 -18.498366172984909 3.9594998218595818 #
straight-curve $-1 -42.447584459974976 0 -6.4319626292981651 0 1 0 I I #
point $-1 -42.447584459974976 -20.818709077406105 -6.4319626292981651 #
point $-1 -42.447584459974976 20.818709077406105 -6.4319626292981651 #
End-of-ACIS-data 