500 0 7 0           
7 Unknown 11 ACIS 5.0 NT 24 Thu Mar 25 16:49:57 1999 
-1 9.9999999999999995e-007 1e-010 
body $-1 $7 $-1 $8 #
body $-1 $9 $-1 $10 #
body $-1 $11 $-1 $12 #
body $-1 $13 $-1 $14 #
body $-1 $15 $-1 $16 #
body $-1 $17 $-1 $18 #
body $-1 $19 $-1 $20 #
lump $-1 $-1 $21 $0 #
transform $-1 1 0 0 0 1 0 0 0 1 44.743797112949004 21.072338886306543 4.3971714571099279 1 rotate no_reflect no_shear #
lump $-1 $-1 $22 $1 #
transform $-1 1 0 0 0 1 0 0 0 1 44.743797112949004 21.072338886306543 4.3971714571099279 1 rotate no_reflect no_shear #
lump $-1 $-1 $23 $2 #
transform $-1 1 0 0 0 1 0 0 0 1 44.743797112949004 21.072338886306543 4.3971714571099279 1 rotate no_reflect no_shear #
lump $-1 $-1 $24 $3 #
transform $-1 1 0 0 0 1 0 0 0 1 44.743797112949004 21.072338886306543 4.3971714571099279 1 rotate no_reflect no_shear #
lump $-1 $-1 $25 $4 #
transform $-1 1 0 0 0 1 0 0 0 1 44.743797112949004 21.072338886306543 4.3971714571099279 1 rotate no_reflect no_shear #
lump $-1 $-1 $26 $5 #
transform $-1 1 0 0 0 1 0 0 0 1 44.743797112949004 21.072338886306543 4.3971714571099279 1 rotate no_reflect no_shear #
lump $-1 $-1 $27 $6 #
transform $-1 1 0 0 0 1 0 0 0 1 44.743797112949004 21.072338886306543 4.3971714571099279 1 rotate no_reflect no_shear #
shell $-1 $-1 $-1 $28 $-1 $7 #
shell $-1 $-1 $-1 $29 $-1 $9 #
shell $-1 $-1 $-1 $30 $-1 $11 #
shell $-1 $-1 $-1 $31 $-1 $13 #
shell $-1 $-1 $-1 $32 $-1 $15 #
shell $-1 $-1 $-1 $33 $-1 $17 #
shell $-1 $-1 $-1 $34 $-1 $19 #
face $-1 $35 $36 $21 $-1 $37 forward single #
face $-1 $38 $39 $22 $-1 $40 forward single #
face $-1 $41 $42 $23 $-1 $43 forward single #
face $-1 $44 $45 $24 $-1 $46 reversed single #
face $-1 $47 $48 $25 $-1 $49 forward single #
face $-1 $50 $51 $26 $-1 $52 reversed single #
face $-1 $53 $54 $27 $-1 $55 forward single #
face $-1 $56 $57 $21 $-1 $58 reversed single #
loop $-1 $-1 $59 $28 #
plane-surface $-1 0 0 4.3971714571099279 0 0 1 1 0 0 forward_v I I I I #
face $-1 $60 $61 $22 $-1 $62 reversed single #
loop $-1 $-1 $63 $29 #
plane-surface $-1 0 -21.072338886306543 0 0 1 0 0 0 1 forward_v I I I I #
face $-1 $64 $65 $23 $-1 $66 reversed single #
loop $-1 $-1 $67 $30 #
plane-surface $-1 0 21.072338886306543 0 0 -1 0 0 0 -1 forward_v I I I I #
face $-1 $68 $69 $24 $-1 $70 reversed single #
loop $-1 $-1 $71 $31 #
plane-surface $-1 24.946301907806436 -2.2621813586295723 125.68348192713201 0 -1 0 -0.5877852598018023 0 -0.80901698891910034 forward_v I I I I #
face $-1 $72 $73 $25 $-1 $74 forward single #
loop $-1 $75 $76 $32 #
cone-surface $-1 41.689802286149913 -6.9206343721602117 1.8529431938025465 -0.5877852598018023 0 -0.80901698891910034 1.2135254833786506 0 -0.88167788970270344 1 I I 0 1 1.5 forward I I I I #
face $-1 $77 $78 $26 $-1 $79 reversed single #
loop $-1 $-1 $80 $33 #
plane-surface $-1 -97.343285934056723 -11.579087385690848 73.08399310602428 0 1 0 -0.5877852598018023 0 0.80901698891910034 forward_v I I I I #
face $-1 $81 $82 $27 $-1 $83 forward single #
loop $-1 $84 $85 $34 #
cone-surface $-1 -41.689802286149927 -6.9206343721602117 1.85294319380255 0.5877852598018023 0 -0.80901698891910034 1.2135254833786506 0 0.88167788970270344 1 I I 0 1 1.5 forward I I I I #
face $-1 $86 $87 $21 $-1 $88 reversed single #
loop $-1 $-1 $89 $35 #
plane-surface $-1 0 0 -4.3971714571099279 0 0 1 1 0 0 forward_v I I I I #
coedge $-1 $90 $91 $92 $93 forward $36 $-1 #
face $-1 $94 $95 $22 $-1 $96 forward single #
loop $-1 $-1 $97 $38 #
plane-surface $-1 -44.743797112949004 0 0 1 0 0 0 0 -1 forward_v I I I I #
coedge $-1 $98 $99 $100 $101 forward $39 $-1 #
face $-1 $102 $103 $23 $-1 $104 forward single #
loop $-1 $-1 $105 $41 #
plane-surface $-1 44.743797112949004 0 0 -1 0 0 0 0 1 forward_v I I I I #
coedge $-1 $106 $107 $108 $109 forward $42 $-1 #
face $-1 $110 $111 $24 $-1 $112 reversed single #
loop $-1 $-1 $113 $44 #
plane-surface $-1 -27.65318691330129 -6.9206343721602099 53.286497900881727 0.5877852598018023 0 0.80901698891910034 0.80901698891910034 0 -0.5877852598018023 forward_v I I I I #
coedge $-1 $114 $115 $116 $117 reversed $45 $-1 #
face $-1 $-1 $118 $25 $-1 $119 forward single #
loop $-1 $120 $121 $47 #
cone-surface $-1 40.748268673749259 -6.9206343721602117 0.55703337747379944 -0.5877852598018023 0 -0.80901698891910034 0.60676274168932531 0 -0.44083894485135172 1 I I -0.70710678118654757 0.70710678118654757 0.75 forward I I I I #
loop $-1 $-1 $122 $32 #
coedge $-1 $76 $76 $123 $124 reversed $48 $-1 #
face $-1 $125 $126 $26 $-1 $127 reversed single #
loop $-1 $-1 $128 $50 #
plane-surface $-1 -44.743797112948997 -6.9206343721602099 0.6870090797740005 -0.5877852598018023 0 0.80901698891910034 0.80901698891910034 0 0.5877852598018023 forward_v I I I I #
coedge $-1 $129 $130 $131 $132 reversed $51 $-1 #
face $-1 $-1 $133 $27 $-1 $134 forward single #
loop $-1 $135 $136 $53 #
cone-surface $-1 -40.748268673749273 -6.9206343721602117 0.55703337747380299 0.5877852598018023 0 -0.80901698891910034 0.60676274168932531 0 0.44083894485135172 1 I I -0.70710678118654757 0.70710678118654757 0.75 forward I I I I #
loop $-1 $-1 $137 $34 #
coedge $-1 $85 $85 $138 $139 reversed $54 $-1 #
face $-1 $140 $141 $21 $-1 $142 reversed single #
loop $-1 $-1 $143 $56 #
plane-surface $-1 0 -21.072338886306543 0 0 1 0 0 0 1 forward_v I I I I #
coedge $-1 $144 $145 $146 $147 forward $57 $-1 #
coedge $-1 $148 $59 $149 $150 forward $36 $-1 #
coedge $-1 $59 $148 $151 $152 forward $36 $-1 #
coedge $-1 $153 $154 $59 $93 reversed $155 $-1 #
edge $-1 $156 -21.072338886306543 $157 21.072338886306543 $92 $158 forward 7 unknown #
face $-1 $159 $160 $22 $-1 $161 reversed single #
loop $-1 $-1 $162 $60 #
plane-surface $-1 0 -22.982191739242648 1.6215738625301725 0 0 1 1 0 0 forward_v I I I I #
coedge $-1 $163 $164 $99 $165 forward $61 $-1 #
coedge $-1 $166 $63 $167 $168 reversed $39 $-1 #
coedge $-1 $63 $166 $97 $165 reversed $39 $-1 #
coedge $-1 $169 $162 $63 $101 reversed $95 $-1 #
edge $-1 $170 -44.743797112949004 $171 44.743797112949004 $100 $172 forward 7 unknown #
face $-1 $173 $174 $23 $-1 $175 reversed single #
loop $-1 $-1 $176 $64 #
plane-surface $-1 0 22.982191739242648 1.6215738625301725 0 0 1 1 0 0 forward_v I I I I #
coedge $-1 $177 $178 $107 $179 forward $65 $-1 #
coedge $-1 $180 $67 $181 $182 reversed $42 $-1 #
coedge $-1 $67 $180 $105 $179 reversed $42 $-1 #
coedge $-1 $176 $183 $67 $109 reversed $103 $-1 #
edge $-1 $184 -44.743797112949004 $185 44.743797112949004 $108 $186 forward 7 unknown #
face $-1 $187 $188 $24 $-1 $189 forward single #
loop $-1 $-1 $190 $68 #
plane-surface $-1 24.946301907806436 -11.579087385690848 125.68348192713201 0 1 0 0.5877852598018023 0 0.80901698891910034 forward_v I I I I #
coedge $-1 $191 $192 $193 $194 reversed $69 $-1 #
coedge $-1 $115 $71 $195 $196 reversed $45 $-1 #
coedge $-1 $71 $114 $191 $197 reversed $45 $-1 #
coedge $-1 $193 $198 $71 $117 forward $188 $-1 #
edge $-1 $199 -32.270646159045782 $200 -27.164045840546198 $116 $201 forward 7 unknown #
loop $-1 $-1 $123 $72 #
plane-surface $-1 -27.65318691330129 -6.9206343721602099 53.286497900881727 0.5877852598018023 0 0.80901698891910034 0.80901698891910034 0 -0.5877852598018023 forward_v I I I I #
loop $-1 $-1 $202 $47 #
coedge $-1 $121 $121 $122 $203 reversed $73 $-1 #
coedge $-1 $122 $122 $121 $203 forward $75 $-1 #
coedge $-1 $123 $123 $76 $124 forward $118 $-1 #
edge $-1 $204 0 $204 6.2831853071796004 $123 $205 forward 7 unknown #
face $-1 $206 $207 $26 $-1 $208 reversed single #
loop $-1 $-1 $209 $77 #
plane-surface $-1 -97.343285934056723 -2.2621813586295723 73.08399310602428 0 -1 0 0.5877852598018023 0 -0.80901698891910034 forward_v I I I I #
coedge $-1 $210 $211 $212 $213 reversed $78 $-1 #
coedge $-1 $130 $80 $214 $215 reversed $51 $-1 #
coedge $-1 $80 $129 $210 $216 reversed $51 $-1 #
coedge $-1 $212 $217 $80 $132 forward $218 $-1 #
edge $-1 $219 3.9278458540793579 $220 9.0344461725789458 $131 $221 forward 7 unknown #
loop $-1 $-1 $138 $81 #
plane-surface $-1 -44.743797112948997 -6.9206343721602099 0.6870090797740005 -0.5877852598018023 0 0.80901698891910034 0.80901698891910034 0 0.5877852598018023 forward_v I I I I #
loop $-1 $-1 $222 $53 #
coedge $-1 $136 $136 $137 $223 reversed $82 $-1 #
coedge $-1 $137 $137 $136 $223 forward $84 $-1 #
coedge $-1 $138 $138 $85 $139 forward $133 $-1 #
edge $-1 $224 0 $224 6.2831853071796004 $138 $225 forward 7 unknown #
face $-1 $226 $227 $21 $-1 $228 reversed single #
loop $-1 $-1 $229 $86 #
plane-surface $-1 -44.743797112949004 0 0 1 0 0 0 0 -1 forward_v I I I I #
coedge $-1 $230 $151 $231 $232 forward $87 $-1 #
coedge $-1 $233 $89 $230 $234 forward $57 $-1 #
coedge $-1 $89 $233 $235 $236 forward $57 $-1 #
coedge $-1 $154 $153 $89 $147 reversed $155 $-1 #
edge $-1 $237 -21.072338886306543 $238 21.072338886306543 $146 $239 forward 7 unknown #
coedge $-1 $91 $90 $240 $241 forward $36 $-1 #
coedge $-1 $242 $243 $90 $150 reversed $227 $-1 #
edge $-1 $157 -44.743797112949004 $244 44.743797112949004 $149 $245 forward 7 unknown #
coedge $-1 $143 $246 $91 $152 reversed $87 $-1 #
edge $-1 $247 -44.743797112949004 $156 44.743797112949004 $151 $248 forward 7 unknown #
coedge $-1 $146 $92 $246 $249 forward $155 $-1 #
coedge $-1 $92 $146 $242 $250 reversed $155 $-1 #
loop $-1 $-1 $153 $226 #
vertex $-1 $93 $251 #
vertex $-1 $93 $252 #
straight-curve $-1 44.743797112949004 0 4.3971714571099279 0 1 0 I I #
face $-1 $253 $254 $22 $-1 $255 reversed single #
loop $-1 $-1 $256 $94 #
plane-surface $-1 0 -22.982191739242648 -1.3784261374698279 0 0 1 1 0 0 forward_v I I I I #
coedge $-1 $100 $257 $258 $259 forward $95 $-1 #
coedge $-1 $260 $97 $261 $262 reversed $61 $-1 #
coedge $-1 $97 $260 $169 $263 reversed $61 $-1 #
edge $-1 $170 -1.6215738625301725 $264 1.3784261374698279 $97 $265 forward 7 unknown #
coedge $-1 $99 $98 $266 $267 forward $39 $-1 #
coedge $-1 $258 $268 $98 $168 forward $269 $-1 #
edge $-1 $270 -1.3784261374698279 $171 1.6215738625301725 $167 $271 forward 7 unknown #
coedge $-1 $257 $100 $164 $263 forward $95 $-1 #
vertex $-1 $165 $272 #
vertex $-1 $259 $273 #
straight-curve $-1 0 -21.072338886306543 1.6215738625301725 1 0 0 I I #
face $-1 $274 $275 $23 $-1 $276 reversed single #
loop $-1 $-1 $277 $102 #
plane-surface $-1 0 22.982191739242648 -1.3784261374698279 0 0 1 1 0 0 forward_v I I I I #
coedge $-1 $278 $108 $178 $279 forward $103 $-1 #
coedge $-1 $280 $105 $277 $281 reversed $65 $-1 #
coedge $-1 $105 $280 $176 $279 reversed $65 $-1 #
edge $-1 $184 -1.6215738625301725 $282 1.3784261374698279 $105 $283 forward 7 unknown #
coedge $-1 $107 $106 $284 $285 forward $42 $-1 #
coedge $-1 $286 $287 $106 $182 forward $288 $-1 #
edge $-1 $289 -1.3784261374698279 $185 1.6215738625301725 $181 $290 forward 7 unknown #
coedge $-1 $108 $278 $286 $291 forward $103 $-1 #
vertex $-1 $179 $292 #
vertex $-1 $291 $293 #
straight-curve $-1 0 21.072338886306543 1.6215738625301725 -1 0 0 I I #
face $-1 $-1 $294 $24 $-1 $295 reversed single #
loop $-1 $-1 $116 $110 #
plane-surface $-1 0 0 4.3971714571099279 0 0 1 1 0 0 forward_v I I I I #
coedge $-1 $296 $297 $298 $299 reversed $111 $-1 #
coedge $-1 $300 $113 $115 $197 forward $69 $-1 #
coedge $-1 $113 $300 $296 $301 forward $69 $-1 #
coedge $-1 $298 $116 $113 $194 forward $188 $-1 #
edge $-1 $200 -1.1981358274505327 $302 8.1187701996107435 $193 $303 forward 7 unknown #
coedge $-1 $304 $305 $114 $196 forward $294 $-1 #
edge $-1 $306 -62.154731883792017 $199 -58.444569506456077 $195 $307 forward 7 unknown #
edge $-1 $200 83.175489055742901 $306 89.487594225898022 $115 $308 forward 7 unknown #
coedge $-1 $116 $298 $304 $309 forward $188 $-1 #
vertex $-1 $196 $310 #
vertex $-1 $117 $311 #
straight-curve $-1 12.473150953903218 -2.2621813586295723 4.397171457109927 -1 0 0 I I #
coedge $-1 $202 $202 $-1 $312 reversed $120 $-1 #
edge $-1 $313 0 $313 6.2831853071796004 $121 $314 forward 7 unknown #
vertex $-1 $124 $315 #
ellipse-curve $-1 42.190496953699203 -6.9206343721602117 2.5420902684419544 0.5877852598018023 0 0.80901698891910034 1.2135254833786506 0 -0.88167788970270344 1 I I #
face $-1 $-1 $218 $26 $-1 $316 forward single #
loop $-1 $-1 $317 $125 #
plane-surface $-1 -44.743797112949004 0 0 1 0 0 0 0 -1 forward_v I I I I #
coedge $-1 $318 $319 $320 $321 reversed $126 $-1 #
coedge $-1 $322 $128 $130 $216 forward $78 $-1 #
coedge $-1 $128 $322 $318 $323 forward $78 $-1 #
coedge $-1 $320 $131 $128 $213 forward $218 $-1 #
edge $-1 $220 -8.1187701996107435 $324 1.1981358274505327 $212 $325 forward 7 unknown #
coedge $-1 $326 $327 $129 $215 forward $207 $-1 #
edge $-1 $328 -35.854987473238147 $219 -32.144825095902213 $214 $329 forward 7 unknown #
edge $-1 $220 -6.3121051701551201 $328 8.7502459990790685e-015 $130 $330 forward 7 unknown #
coedge $-1 $131 $320 $326 $331 forward $218 $-1 #
loop $-1 $-1 $320 $206 #
vertex $-1 $215 $332 #
vertex $-1 $132 $333 #
straight-curve $-1 -48.671642967028362 -11.579087385690848 4.397171457109927 1 0 0 I I #
coedge $-1 $222 $222 $-1 $334 reversed $135 $-1 #
edge $-1 $335 0 $335 6.2831853071796004 $136 $336 forward 7 unknown #
vertex $-1 $139 $337 #
ellipse-curve $-1 -42.190496953699217 -6.9206343721602117 2.5420902684419566 -0.5877852598018023 0 0.80901698891910034 1.2135254833786506 0 0.88167788970270344 1 I I #
face $-1 $-1 $155 $21 $-1 $338 reversed single #
loop $-1 $-1 $242 $140 #
plane-surface $-1 0 21.072338886306543 0 0 -1 0 0 0 -1 forward_v I I I I #
coedge $-1 $339 $240 $243 $340 forward $141 $-1 #
coedge $-1 $246 $143 $144 $234 reversed $87 $-1 #
coedge $-1 $240 $339 $143 $232 reversed $141 $-1 #
edge $-1 $247 -4.3971714571099279 $341 4.3971714571099279 $231 $342 forward 7 unknown #
coedge $-1 $145 $144 $339 $343 forward $57 $-1 #
edge $-1 $238 -44.743797112949004 $341 44.743797112949004 $230 $344 forward 7 unknown #
coedge $-1 $243 $242 $145 $236 reversed $227 $-1 #
edge $-1 $345 -44.743797112949004 $237 44.743797112949004 $235 $346 forward 7 unknown #
vertex $-1 $147 $347 #
vertex $-1 $249 $348 #
straight-curve $-1 44.743797112949004 0 -4.3971714571099279 0 -1 0 I I #
coedge $-1 $229 $231 $148 $241 reversed $141 $-1 #
edge $-1 $244 -21.072338886306543 $247 21.072338886306543 $240 $349 forward 7 unknown #
coedge $-1 $235 $149 $154 $250 forward $227 $-1 #
coedge $-1 $149 $235 $229 $340 reversed $227 $-1 #
vertex $-1 $150 $350 #
straight-curve $-1 0 21.072338886306543 4.3971714571099279 -1 0 0 I I #
coedge $-1 $151 $230 $153 $249 reversed $87 $-1 #
vertex $-1 $241 $351 #
straight-curve $-1 0 -21.072338886306543 4.3971714571099279 1 0 0 I I #
edge $-1 $156 -4.3971714571099279 $238 4.3971714571099279 $153 $352 forward 7 unknown #
edge $-1 $157 -4.3971714571099279 $237 4.3971714571099279 $154 $353 forward 7 unknown #
point $-1 44.743797112949004 -21.072338886306543 4.3971714571099279 #
point $-1 44.743797112949004 21.072338886306543 4.3971714571099279 #
face $-1 $-1 $269 $22 $-1 $354 reversed single #
loop $-1 $-1 $355 $159 #
plane-surface $-1 0 -24.892044592178753 0.12157386253017233 0 1 0 0 0 1 forward_v I I I I #
coedge $-1 $356 $266 $268 $357 forward $160 $-1 #
coedge $-1 $162 $169 $358 $359 forward $95 $-1 #
coedge $-1 $360 $167 $162 $259 reversed $269 $-1 #
edge $-1 $361 -1.9098528529361047 $171 1.9098528529361047 $258 $362 forward 7 unknown #
coedge $-1 $164 $163 $355 $363 reversed $61 $-1 #
coedge $-1 $266 $356 $163 $262 forward $160 $-1 #
edge $-1 $364 -1.9098528529361047 $264 1.9098528529361047 $163 $365 forward 7 unknown #
edge $-1 $170 -1.9098528529361047 $366 1.9098528529361047 $164 $367 forward 7 unknown #
vertex $-1 $165 $368 #
straight-curve $-1 -44.743797112949004 -21.072338886306543 0 0 0 -1 I I #
coedge $-1 $256 $261 $166 $267 reversed $160 $-1 #
edge $-1 $270 -44.743797112949004 $264 44.743797112949004 $266 $369 forward 7 unknown #
coedge $-1 $167 $360 $256 $357 reversed $269 $-1 #
loop $-1 $-1 $167 $253 #
vertex $-1 $168 $370 #
straight-curve $-1 44.743797112949004 -21.072338886306543 0 0 0 1 I I #
point $-1 -44.743797112949004 -21.072338886306543 1.6215738625301725 #
point $-1 44.743797112949004 -21.072338886306543 1.6215738625301725 #
face $-1 $-1 $288 $23 $-1 $371 reversed single #
loop $-1 $-1 $372 $173 #
plane-surface $-1 0 24.892044592178753 0.12157386253017233 0 -1 0 0 0 -1 forward_v I I I I #
coedge $-1 $284 $373 $177 $281 forward $174 $-1 #
coedge $-1 $183 $176 $374 $375 forward $103 $-1 #
edge $-1 $184 -1.9098528529361047 $376 1.9098528529361047 $178 $377 forward 7 unknown #
coedge $-1 $178 $177 $372 $378 reversed $65 $-1 #
edge $-1 $379 -1.9098528529361047 $282 1.9098528529361047 $177 $380 forward 7 unknown #
vertex $-1 $179 $381 #
straight-curve $-1 44.743797112949004 21.072338886306543 0 0 0 -1 I I #
coedge $-1 $382 $277 $180 $285 reversed $174 $-1 #
edge $-1 $289 -44.743797112949004 $282 44.743797112949004 $284 $383 forward 7 unknown #
coedge $-1 $384 $181 $183 $291 reversed $288 $-1 #
coedge $-1 $181 $384 $382 $385 reversed $288 $-1 #
loop $-1 $-1 $181 $274 #
vertex $-1 $182 $386 #
straight-curve $-1 -44.743797112949004 21.072338886306543 0 0 0 1 I I #
edge $-1 $387 -1.9098528529361047 $185 1.9098528529361047 $286 $388 forward 7 unknown #
point $-1 44.743797112949004 21.072338886306543 1.6215738625301725 #
point $-1 -44.743797112949004 21.072338886306543 1.6215738625301725 #
loop $-1 $-1 $195 $187 #
plane-surface $-1 44.743797112949004 0 0 -1 0 0 0 0 1 forward_v I I I I #
coedge $-1 $297 $190 $192 $301 reversed $111 $-1 #
coedge $-1 $190 $296 $389 $390 reversed $111 $-1 #
coedge $-1 $198 $193 $190 $299 forward $188 $-1 #
edge $-1 $302 27.164045840546198 $391 32.270646159045782 $298 $392 forward 7 unknown #
coedge $-1 $192 $191 $305 $393 reversed $69 $-1 #
edge $-1 $394 -89.487594225898022 $302 -83.175489055742901 $296 $395 forward 7 unknown #
vertex $-1 $194 $396 #
straight-curve $-1 39.637196794449409 -3.460317186080105 4.397171457109927 0 -1 0 I I #
coedge $-1 $389 $195 $198 $309 reversed $294 $-1 #
coedge $-1 $195 $389 $300 $393 forward $294 $-1 #
vertex $-1 $196 $397 #
straight-curve $-1 44.743797112949004 -2.2621813586295723 62.841740963566004 0 0 1 I I #
straight-curve $-1 -27.65318691330129 -2.2621813586295723 53.286497900881727 0.80901698891910034 0 -0.5877852598018023 I I #
edge $-1 $391 -11.579087385690848 $199 -2.2621813586295723 $304 $398 forward 7 unknown #
point $-1 44.743797112949004 -2.2621813586295723 4.3971714571099279 #
point $-1 39.637196794449416 -2.2621813586295723 4.3971714571099199 #
edge $-1 $399 1 $399 0 $202 $-1 forward 7 unknown #
vertex $-1 $203 $400 #
ellipse-curve $-1 41.189107618600609 -6.9206343721602117 1.1637961191631248 0.5877852598018023 0 0.80901698891910034 1.2135254833786506 0 -0.88167788970270344 1 I I #
point $-1 43.404022437077863 -6.9206343721602117 1.6604123787392648 #
plane-surface $-1 0 0 4.3971714571099279 0 0 1 1 0 0 forward_v I I I I #
coedge $-1 $327 $326 $319 $401 forward $207 $-1 #
coedge $-1 $319 $209 $211 $323 reversed $126 $-1 #
coedge $-1 $209 $318 $317 $401 reversed $126 $-1 #
coedge $-1 $217 $212 $209 $321 forward $218 $-1 #
edge $-1 $324 -9.0344461725789458 $402 -3.9278458540793579 $320 $403 forward 7 unknown #
coedge $-1 $211 $210 $327 $404 reversed $78 $-1 #
edge $-1 $405 -8.7502459990790685e-015 $324 6.3121051701551201 $318 $406 forward 7 unknown #
vertex $-1 $213 $407 #
straight-curve $-1 -39.637196794449409 -3.460317186080105 4.3971714571099287 0 1 0 I I #
coedge $-1 $317 $214 $217 $331 reversed $207 $-1 #
coedge $-1 $214 $317 $322 $404 forward $207 $-1 #
vertex $-1 $215 $408 #
straight-curve $-1 -44.743797112949004 -11.579087385690848 36.54199655301214 0 0 1 I I #
straight-curve $-1 -44.743797112948997 -11.579087385690848 0.6870090797740005 -0.80901698891910034 0 -0.5877852598018023 I I #
edge $-1 $402 2.2621813586295723 $219 11.579087385690848 $326 $409 forward 7 unknown #
point $-1 -44.743797112949004 -11.579087385690848 4.3971714571099279 #
point $-1 -39.637196794449416 -11.579087385690848 4.3971714571099279 #
edge $-1 $410 1 $410 0 $222 $-1 forward 7 unknown #
vertex $-1 $223 $411 #
ellipse-curve $-1 -41.189107618600623 -6.9206343721602117 1.1637961191631283 -0.5877852598018023 0 0.80901698891910034 1.2135254833786506 0 0.88167788970270344 1 I I #
point $-1 -40.976971470320571 -6.9206343721602117 3.4237681581446755 #
plane-surface $-1 44.743797112949004 0 0 -1 0 0 0 0 1 forward_v I I I I #
coedge $-1 $231 $229 $233 $343 reversed $141 $-1 #
edge $-1 $244 -4.3971714571099279 $345 4.3971714571099279 $243 $412 forward 7 unknown #
vertex $-1 $343 $413 #
straight-curve $-1 -44.743797112949004 -21.072338886306543 0 0 0 -1 I I #
edge $-1 $341 -21.072338886306543 $345 21.072338886306543 $339 $414 forward 7 unknown #
straight-curve $-1 0 -21.072338886306543 -4.3971714571099279 -1 0 0 I I #
vertex $-1 $236 $415 #
straight-curve $-1 0 21.072338886306543 -4.3971714571099279 1 0 0 I I #
point $-1 44.743797112949004 21.072338886306543 -4.3971714571099279 #
point $-1 44.743797112949004 -21.072338886306543 -4.3971714571099279 #
straight-curve $-1 -44.743797112949004 0 4.3971714571099279 0 -1 0 I I #
point $-1 -44.743797112949004 21.072338886306543 4.3971714571099279 #
point $-1 -44.743797112949004 -21.072338886306543 4.3971714571099279 #
straight-curve $-1 44.743797112949004 -21.072338886306543 0 0 0 -1 I I #
straight-curve $-1 44.743797112949004 21.072338886306543 0 0 0 -1 I I #
plane-surface $-1 44.743797112949004 0 0 -1 0 0 0 0 1 forward_v I I I I #
coedge $-1 $416 $358 $260 $363 forward $254 $-1 #
coedge $-1 $261 $256 $416 $417 forward $160 $-1 #
edge $-1 $270 -1.9098528529361047 $418 1.9098528529361047 $268 $419 forward 7 unknown #
coedge $-1 $355 $420 $257 $359 reversed $254 $-1 #
edge $-1 $366 -44.743797112949004 $361 44.743797112949004 $358 $421 forward 7 unknown #
coedge $-1 $268 $258 $420 $422 forward $269 $-1 #
vertex $-1 $259 $423 #
straight-curve $-1 44.743797112949004 -22.982191739242648 1.6215738625301725 0 1 0 I I #
edge $-1 $366 -1.5000000000000002 $364 1.5000000000000002 $260 $424 forward 7 unknown #
vertex $-1 $262 $425 #
straight-curve $-1 -44.743797112949004 -22.982191739242648 -1.3784261374698279 0 1 0 I I #
vertex $-1 $263 $426 #
straight-curve $-1 -44.743797112949004 -22.982191739242648 1.6215738625301725 0 -1 0 I I #
point $-1 -44.743797112949004 -21.072338886306543 -1.3784261374698279 #
straight-curve $-1 0 -21.072338886306543 -1.3784261374698279 -1 0 0 I I #
point $-1 44.743797112949004 -21.072338886306543 -1.3784261374698279 #
plane-surface $-1 -44.743797112949004 0 0 1 0 0 0 0 -1 forward_v I I I I #
coedge $-1 $427 $374 $280 $378 forward $275 $-1 #
coedge $-1 $277 $382 $427 $428 forward $174 $-1 #
coedge $-1 $372 $429 $278 $375 reversed $275 $-1 #
edge $-1 $376 -44.743797112949004 $387 44.743797112949004 $374 $430 forward 7 unknown #
vertex $-1 $279 $431 #
straight-curve $-1 44.743797112949004 22.982191739242648 1.6215738625301725 0 1 0 I I #
edge $-1 $376 -1.5000000000000002 $379 1.5000000000000002 $280 $432 forward 7 unknown #
vertex $-1 $281 $433 #
straight-curve $-1 44.743797112949004 22.982191739242648 -1.3784261374698279 0 -1 0 I I #
point $-1 44.743797112949004 21.072338886306543 -1.3784261374698279 #
coedge $-1 $373 $284 $287 $385 forward $174 $-1 #
straight-curve $-1 0 21.072338886306543 -1.3784261374698279 1 0 0 I I #
coedge $-1 $287 $286 $429 $434 forward $288 $-1 #
edge $-1 $289 -1.9098528529361047 $435 1.9098528529361047 $287 $436 forward 7 unknown #
point $-1 -44.743797112949004 21.072338886306543 -1.3784261374698279 #
vertex $-1 $375 $437 #
straight-curve $-1 -44.743797112949004 22.982191739242648 1.6215738625301725 0 -1 0 I I #
coedge $-1 $305 $304 $297 $390 forward $294 $-1 #
edge $-1 $391 58.444569506456077 $394 62.154731883792017 $389 $438 forward 7 unknown #
vertex $-1 $309 $439 #
straight-curve $-1 12.473150953903218 -11.579087385690848 4.397171457109927 1 0 0 I I #
edge $-1 $394 -8.1187701996107435 $306 1.1981358274505327 $305 $440 forward 7 unknown #
vertex $-1 $393 $441 #
straight-curve $-1 -27.65318691330129 -11.579087385690848 53.286497900881727 -0.80901698891910034 0 0.5877852598018023 I I #
point $-1 39.637196794449416 -11.579087385690848 4.3971714571099199 #
point $-1 44.743797112949004 -2.2621813586295723 0.68700907977398629 #
straight-curve $-1 44.743797112949004 0 4.3971714571099279 0 1 0 I I #
vertex $-1 $312 $442 #
point $-1 42.402633101979262 -6.9206343721602117 0.28211822946042131 #
edge $-1 $402 32.144825095902213 $405 35.854987473238147 $317 $443 forward 7 unknown #
vertex $-1 $331 $444 #
straight-curve $-1 -48.671642967028362 -2.2621813586295723 4.397171457109927 -1 0 0 I I #
edge $-1 $405 -1.1981358274505327 $328 8.1187701996107435 $327 $445 forward 7 unknown #
vertex $-1 $404 $446 #
straight-curve $-1 -44.743797112948997 -2.2621813586295723 0.6870090797740005 0.80901698891910034 0 0.5877852598018023 I I #
point $-1 -39.637196794449416 -2.2621813586295723 4.3971714571099279 #
point $-1 -44.743797112949004 -11.579087385690848 0.68700907977399539 #
straight-curve $-1 -44.743797112949004 0 4.3971714571099279 0 -1 0 I I #
vertex $-1 $334 $447 #
point $-1 -39.975582135221977 -6.9206343721602117 2.0454740088658316 #
straight-curve $-1 -44.743797112949004 21.072338886306543 0 0 0 -1 I I #
point $-1 -44.743797112949004 -21.072338886306543 -4.3971714571099279 #
straight-curve $-1 -44.743797112949004 0 -4.3971714571099279 0 1 0 I I #
point $-1 -44.743797112949004 21.072338886306543 -4.3971714571099279 #
coedge $-1 $420 $355 $356 $417 reversed $254 $-1 #
edge $-1 $418 -44.743797112949004 $364 44.743797112949004 $416 $448 forward 7 unknown #
vertex $-1 $422 $449 #
straight-curve $-1 44.743797112949004 -22.982191739242648 -1.3784261374698279 0 -1 0 I I #
coedge $-1 $358 $416 $360 $422 reversed $254 $-1 #
straight-curve $-1 0 -24.892044592178753 1.6215738625301725 1 0 0 I I #
edge $-1 $361 -1.5000000000000002 $418 1.5000000000000002 $360 $450 forward 7 unknown #
point $-1 44.743797112949004 -24.892044592178753 1.6215738625301725 #
straight-curve $-1 -44.743797112949004 -24.892044592178753 0.12157386253017233 0 0 -1 I I #
point $-1 -44.743797112949004 -24.892044592178753 -1.3784261374698279 #
point $-1 -44.743797112949004 -24.892044592178753 1.6215738625301725 #
coedge $-1 $429 $372 $373 $428 reversed $275 $-1 #
edge $-1 $435 -44.743797112949004 $379 44.743797112949004 $427 $451 forward 7 unknown #
coedge $-1 $374 $427 $384 $434 reversed $275 $-1 #
straight-curve $-1 0 24.892044592178753 1.6215738625301725 -1 0 0 I I #
point $-1 44.743797112949004 24.892044592178753 1.6215738625301725 #
straight-curve $-1 44.743797112949004 24.892044592178753 0.12157386253017233 0 0 -1 I I #
point $-1 44.743797112949004 24.892044592178753 -1.3784261374698279 #
edge $-1 $387 -1.5000000000000002 $435 1.5000000000000002 $429 $452 forward 7 unknown #
vertex $-1 $428 $453 #
straight-curve $-1 -44.743797112949004 22.982191739242648 -1.3784261374698279 0 1 0 I I #
point $-1 -44.743797112949004 24.892044592178753 1.6215738625301725 #
straight-curve $-1 44.743797112949004 -11.579087385690848 62.841740963566004 0 0 -1 I I #
point $-1 44.743797112949004 -11.579087385690848 4.3971714571099279 #
straight-curve $-1 44.743797112949004 -3.460317186080105 0.68700907977398984 0 1 0 I I #
point $-1 44.743797112949004 -11.579087385690848 0.68700907977398629 #
point $-1 40.307429728897908 -6.9206343721602117 -0.049729364215525873 #
straight-curve $-1 -44.743797112949004 -2.2621813586295723 36.54199655301214 0 0 -1 I I #
point $-1 -44.743797112949004 -2.2621813586295723 4.3971714571099279 #
straight-curve $-1 -44.743797112949004 -3.460317186080105 0.68700907977399273 0 -1 0 I I #
point $-1 -44.743797112949004 -2.2621813586295723 0.68700907977399539 #
point $-1 -40.307429728897922 -6.9206343721602117 -0.04972936421552232 #
straight-curve $-1 0 -24.892044592178753 -1.3784261374698279 -1 0 0 I I #
point $-1 44.743797112949004 -24.892044592178753 -1.3784261374698279 #
straight-curve $-1 44.743797112949004 -24.892044592178753 0.12157386253017233 0 0 -1 I I #
straight-curve $-1 0 24.892044592178753 -1.3784261374698279 1 0 0 I I #
straight-curve $-1 -44.743797112949004 24.892044592178753 0.12157386253017233 0 0 -1 I I #
point $-1 -44.743797112949004 24.892044592178753 -1.3784261374698279 #
End-of-ACIS-data 