500 0 3 0           
7 Unknown 11 ACIS 5.0 NT 24 Fri Mar 26 02:24:39 1999 
-1 9.9999999999999995e-007 1e-010 
body $-1 $3 $-1 $4 #
body $-1 $5 $-1 $6 #
body $-1 $7 $-1 $8 #
lump $-1 $-1 $9 $0 #
transform $-1 1 0 0 0 1 0 0 0 1 46.627399517807547 29.897203401871899 12.842010825535644 1 rotate no_reflect no_shear #
lump $-1 $-1 $10 $1 #
transform $-1 1 0 0 0 1 0 0 0 1 46.627399517807547 29.897203401871899 12.842010825535644 1 rotate no_reflect no_shear #
lump $-1 $-1 $11 $2 #
transform $-1 1 0 0 0 1 0 0 0 1 46.627399517807547 29.897203401871899 12.842010825535644 1 rotate no_reflect no_shear #
shell $-1 $-1 $-1 $12 $-1 $3 #
shell $-1 $-1 $-1 $13 $-1 $5 #
shell $-1 $-1 $-1 $14 $-1 $7 #
face $-1 $15 $16 $9 $-1 $17 forward single #
face $-1 $18 $19 $10 $-1 $20 reversed single #
face $-1 $21 $22 $11 $-1 $23 reversed single #
face $-1 $24 $25 $9 $-1 $26 reversed single #
loop $-1 $-1 $27 $12 #
plane-surface $-1 0 0 12.842010825535644 0 0 1 1 0 0 forward_v I I I I #
face $-1 $28 $29 $10 $-1 $30 forward single #
loop $-1 $-1 $31 $13 #
plane-surface $-1 0 -24.795781521602077 1.56532778845847 0 0 1 1 0 0 forward_v I I I I #
face $-1 $32 $33 $11 $-1 $34 forward single #
loop $-1 $-1 $35 $14 #
plane-surface $-1 0 24.795781521602073 1.56532778845847 0 0 1 1 0 0 forward_v I I I I #
face $-1 $36 $37 $9 $-1 $38 reversed single #
loop $-1 $-1 $39 $15 #
plane-surface $-1 0 0 -12.842010825535644 0 0 1 1 0 0 forward_v I I I I #
coedge $-1 $40 $41 $42 $43 forward $16 $-1 #
face $-1 $44 $45 $10 $-1 $46 forward single #
loop $-1 $-1 $47 $18 #
plane-surface $-1 0 -24.795781521602077 -1.8312776688793146 0 0 1 1 0 0 forward_v I I I I #
coedge $-1 $48 $49 $50 $51 reversed $19 $-1 #
face $-1 $52 $53 $11 $-1 $54 forward single #
loop $-1 $-1 $55 $21 #
plane-surface $-1 0 24.795781521602073 -1.8312776688793146 0 0 1 1 0 0 forward_v I I I I #
coedge $-1 $56 $57 $58 $59 reversed $22 $-1 #
face $-1 $60 $61 $9 $-1 $62 reversed single #
loop $-1 $-1 $63 $24 #
plane-surface $-1 0 -29.897203401871899 0 0 1 0 0 0 1 forward_v I I I I #
coedge $-1 $64 $65 $66 $67 forward $25 $-1 #
coedge $-1 $68 $27 $69 $70 forward $16 $-1 #
coedge $-1 $27 $68 $71 $72 forward $16 $-1 #
coedge $-1 $73 $74 $27 $43 reversed $75 $-1 #
edge $-1 $76 -29.897203401871899 $77 29.897203401871899 $42 $78 forward 7 unknown #
face $-1 $79 $80 $10 $-1 $81 reversed single #
loop $-1 $-1 $82 $28 #
plane-surface $-1 0 -19.694359641332255 -0.13297494021042233 0 -1 0 0 0 -1 forward_v I I I I #
coedge $-1 $83 $84 $85 $86 reversed $29 $-1 #
coedge $-1 $87 $31 $88 $89 reversed $19 $-1 #
coedge $-1 $31 $87 $90 $91 reversed $19 $-1 #
coedge $-1 $92 $93 $31 $51 forward $80 $-1 #
edge $-1 $94 -17.499312641070858 $95 -7.2964688805312168 $50 $96 forward 7 unknown #
face $-1 $97 $98 $11 $-1 $99 reversed single #
loop $-1 $-1 $100 $32 #
plane-surface $-1 0 19.694359641332252 -0.13297494021042233 0 1 0 0 0 1 forward_v I I I I #
coedge $-1 $101 $102 $103 $104 reversed $33 $-1 #
coedge $-1 $105 $35 $106 $107 reversed $22 $-1 #
coedge $-1 $35 $105 $108 $109 reversed $22 $-1 #
coedge $-1 $110 $111 $35 $59 forward $112 $-1 #
edge $-1 $113 7.296468880531215 $114 17.499312641070858 $58 $115 forward 7 unknown #
face $-1 $116 $117 $9 $-1 $118 reversed single #
loop $-1 $-1 $119 $36 #
plane-surface $-1 -46.627399517807547 0 0 1 0 0 0 0 -1 forward_v I I I I #
coedge $-1 $120 $71 $121 $122 forward $37 $-1 #
coedge $-1 $123 $39 $120 $124 forward $25 $-1 #
coedge $-1 $39 $123 $125 $126 forward $25 $-1 #
coedge $-1 $74 $73 $39 $67 reversed $75 $-1 #
edge $-1 $127 -29.897203401871899 $128 29.897203401871899 $66 $129 forward 7 unknown #
coedge $-1 $41 $40 $130 $131 forward $16 $-1 #
coedge $-1 $132 $133 $40 $70 reversed $117 $-1 #
edge $-1 $77 -46.627399517807547 $134 46.627399517807547 $69 $135 forward 7 unknown #
coedge $-1 $63 $136 $41 $72 reversed $37 $-1 #
edge $-1 $137 -46.627399517807547 $76 46.627399517807547 $71 $138 forward 7 unknown #
coedge $-1 $66 $42 $136 $139 forward $75 $-1 #
coedge $-1 $42 $66 $132 $140 reversed $75 $-1 #
loop $-1 $-1 $73 $116 #
vertex $-1 $43 $141 #
vertex $-1 $43 $142 #
straight-curve $-1 46.627399517807547 0 12.842010825535644 0 1 0 I I #
face $-1 $143 $144 $10 $-1 $145 reversed single #
loop $-1 $-1 $50 $44 #
plane-surface $-1 46.627399517807547 0 0 -1 0 0 0 0 1 forward_v I I I I #
coedge $-1 $90 $146 $92 $147 reversed $45 $-1 #
coedge $-1 $148 $47 $146 $149 reversed $29 $-1 #
coedge $-1 $47 $148 $150 $151 reversed $29 $-1 #
coedge $-1 $152 $92 $47 $86 forward $80 $-1 #
edge $-1 $153 7.2964688805312168 $154 17.499312641070858 $85 $155 forward 7 unknown #
coedge $-1 $49 $48 $156 $157 reversed $19 $-1 #
coedge $-1 $158 $159 $48 $89 forward $160 $-1 #
edge $-1 $161 -46.627399517807547 $94 46.627399517807547 $88 $162 forward 7 unknown #
coedge $-1 $163 $82 $49 $91 forward $45 $-1 #
edge $-1 $95 -46.627399517807547 $164 46.627399517807547 $90 $165 forward 7 unknown #
coedge $-1 $85 $50 $82 $147 forward $80 $-1 #
coedge $-1 $50 $166 $158 $167 forward $80 $-1 #
vertex $-1 $89 $168 #
vertex $-1 $51 $169 #
straight-curve $-1 46.627399517807547 -12.397890760801038 1.56532778845847 0 1 0 I I #
face $-1 $170 $171 $11 $-1 $99 reversed single #
loop $-1 $-1 $172 $52 #
plane-surface $-1 0 29.897203401871899 0 0 -1 0 0 0 -1 forward_v I I I I #
coedge $-1 $106 $173 $174 $175 reversed $53 $-1 #
coedge $-1 $176 $55 $172 $177 reversed $33 $-1 #
coedge $-1 $55 $176 $173 $178 reversed $33 $-1 #
coedge $-1 $111 $179 $55 $104 forward $112 $-1 #
edge $-1 $180 -17.499312641070858 $181 -7.296468880531215 $103 $182 forward 7 unknown #
coedge $-1 $57 $56 $183 $184 reversed $22 $-1 #
coedge $-1 $185 $100 $56 $107 forward $53 $-1 #
edge $-1 $186 -46.627399517807547 $113 46.627399517807547 $106 $187 forward 7 unknown #
coedge $-1 $188 $189 $57 $109 forward $171 $-1 #
edge $-1 $114 -46.627399517807547 $190 46.627399517807547 $108 $191 forward 7 unknown #
coedge $-1 $192 $58 $189 $193 reversed $112 $-1 #
coedge $-1 $58 $103 $185 $194 forward $112 $-1 #
loop $-1 $-1 $58 $195 #
vertex $-1 $59 $196 #
vertex $-1 $109 $197 #
straight-curve $-1 46.627399517807547 12.397890760801037 1.56532778845847 0 1 0 I I #
face $-1 $-1 $75 $9 $-1 $198 reversed single #
loop $-1 $-1 $132 $60 #
plane-surface $-1 0 29.897203401871899 0 0 -1 0 0 0 -1 forward_v I I I I #
coedge $-1 $199 $130 $133 $200 forward $61 $-1 #
coedge $-1 $136 $63 $64 $124 reversed $37 $-1 #
coedge $-1 $130 $199 $63 $122 reversed $61 $-1 #
edge $-1 $137 -12.842010825535644 $201 12.842010825535644 $121 $202 forward 7 unknown #
coedge $-1 $65 $64 $199 $203 forward $25 $-1 #
edge $-1 $128 -46.627399517807547 $201 46.627399517807547 $120 $204 forward 7 unknown #
coedge $-1 $133 $132 $65 $126 reversed $117 $-1 #
edge $-1 $205 -46.627399517807547 $127 46.627399517807547 $125 $206 forward 7 unknown #
vertex $-1 $67 $207 #
vertex $-1 $139 $208 #
straight-curve $-1 46.627399517807547 0 -12.842010825535644 0 -1 0 I I #
coedge $-1 $119 $121 $68 $131 reversed $61 $-1 #
edge $-1 $134 -29.897203401871899 $137 29.897203401871899 $130 $209 forward 7 unknown #
coedge $-1 $125 $69 $74 $140 forward $117 $-1 #
coedge $-1 $69 $125 $119 $200 reversed $117 $-1 #
vertex $-1 $70 $210 #
straight-curve $-1 0 29.897203401871899 12.842010825535644 -1 0 0 I I #
coedge $-1 $71 $120 $73 $139 reversed $37 $-1 #
vertex $-1 $131 $211 #
straight-curve $-1 0 -29.897203401871899 12.842010825535644 1 0 0 I I #
edge $-1 $76 -12.842010825535644 $128 12.842010825535644 $73 $212 forward 7 unknown #
edge $-1 $77 -12.842010825535644 $127 12.842010825535644 $74 $213 forward 7 unknown #
point $-1 46.627399517807547 -29.897203401871899 12.842010825535644 #
point $-1 46.627399517807547 29.897203401871899 12.842010825535644 #
face $-1 $214 $215 $10 $-1 $216 forward single #
loop $-1 $-1 $150 $79 #
plane-surface $-1 0 -29.897203401871899 0 0 1 0 0 0 1 forward_v I I I I #
coedge $-1 $82 $163 $83 $149 forward $45 $-1 #
edge $-1 $95 -1.6318152585636811 $153 1.7647901987741035 $92 $217 forward 7 unknown #
coedge $-1 $84 $83 $218 $219 reversed $29 $-1 #
edge $-1 $220 -46.627399517807547 $153 46.627399517807547 $146 $221 forward 7 unknown #
coedge $-1 $222 $223 $84 $151 forward $144 $-1 #
edge $-1 $154 -46.627399517807547 $224 46.627399517807547 $150 $225 forward 7 unknown #
coedge $-1 $226 $85 $223 $227 forward $80 $-1 #
vertex $-1 $86 $228 #
vertex $-1 $227 $229 #
straight-curve $-1 46.627399517807547 -12.397890760801038 -1.8312776688793146 0 -1 0 I I #
coedge $-1 $230 $231 $87 $157 forward $232 $-1 #
edge $-1 $164 7.2964688805312168 $161 17.499312641070858 $156 $233 forward 7 unknown #
coedge $-1 $234 $88 $93 $167 reversed $160 $-1 #
coedge $-1 $88 $234 $230 $235 forward $160 $-1 #
loop $-1 $-1 $88 $236 #
vertex $-1 $157 $237 #
straight-curve $-1 0 -29.897203401871899 1.56532778845847 1 0 0 I I #
coedge $-1 $146 $90 $231 $238 reversed $45 $-1 #
vertex $-1 $157 $239 #
straight-curve $-1 0 -19.694359641332255 1.56532778845847 -1 0 0 I I #
coedge $-1 $93 $240 $241 $242 reversed $80 $-1 #
edge $-1 $243 -12.842010825535644 $94 -1.56532778845847 $93 $244 forward 7 unknown #
point $-1 46.627399517807547 -29.897203401871899 1.56532778845847 #
point $-1 46.627399517807547 -19.694359641332255 1.56532778845847 #
face $-1 $245 $246 $11 $-1 $247 reversed single #
loop $-1 $-1 $108 $97 #
coedge $-1 $248 $249 $101 $177 forward $98 $-1 #
coedge $-1 $100 $185 $102 $178 forward $53 $-1 #
coedge $-1 $250 $183 $100 $175 forward $246 $-1 #
edge $-1 $186 -1.6318152585636811 $251 1.7647901987741035 $174 $252 forward 7 unknown #
coedge $-1 $102 $101 $250 $253 reversed $33 $-1 #
edge $-1 $254 -46.627399517807547 $180 46.627399517807547 $172 $255 forward 7 unknown #
edge $-1 $181 -46.627399517807547 $251 46.627399517807547 $173 $256 forward 7 unknown #
coedge $-1 $103 $257 $248 $258 reversed $112 $-1 #
vertex $-1 $258 $259 #
vertex $-1 $104 $260 #
straight-curve $-1 46.627399517807547 12.397890760801037 -1.8312776688793146 0 -1 0 I I #
coedge $-1 $174 $261 $105 $184 forward $246 $-1 #
edge $-1 $190 -17.499312641070858 $186 -7.296468880531215 $183 $262 forward 7 unknown #
coedge $-1 $173 $106 $111 $194 reversed $53 $-1 #
vertex $-1 $184 $263 #
straight-curve $-1 0 19.694359641332252 1.56532778845847 1 0 0 I I #
coedge $-1 $264 $108 $261 $265 reversed $171 $-1 #
coedge $-1 $108 $264 $110 $193 forward $171 $-1 #
vertex $-1 $184 $266 #
straight-curve $-1 0 29.897203401871899 1.56532778845847 -1 0 0 I I #
coedge $-1 $267 $110 $268 $269 reversed $112 $-1 #
edge $-1 $270 -12.842010825535644 $114 -1.56532778845847 $110 $271 forward 7 unknown #
edge $-1 $181 -1.7647901987741035 $113 1.6318152585636811 $111 $272 forward 7 unknown #
face $-1 $273 $112 $11 $-1 $274 reversed single #
point $-1 46.627399517807547 19.694359641332252 1.56532778845847 #
point $-1 46.627399517807547 29.897203401871895 1.56532778845847 #
plane-surface $-1 46.627399517807547 0 0 -1 0 0 0 0 1 forward_v I I I I #
coedge $-1 $121 $119 $123 $203 reversed $61 $-1 #
edge $-1 $134 -12.842010825535644 $205 12.842010825535644 $133 $275 forward 7 unknown #
vertex $-1 $203 $276 #
straight-curve $-1 -46.627399517807547 -29.897203401871899 0 0 0 -1 I I #
edge $-1 $201 -29.897203401871899 $205 29.897203401871899 $199 $277 forward 7 unknown #
straight-curve $-1 0 -29.897203401871899 -12.842010825535644 -1 0 0 I I #
vertex $-1 $126 $278 #
straight-curve $-1 0 29.897203401871899 -12.842010825535644 1 0 0 I I #
point $-1 46.627399517807547 29.897203401871899 -12.842010825535644 #
point $-1 46.627399517807547 -29.897203401871899 -12.842010825535644 #
straight-curve $-1 -46.627399517807547 0 12.842010825535644 0 -1 0 I I #
point $-1 -46.627399517807547 29.897203401871899 12.842010825535644 #
point $-1 -46.627399517807547 -29.897203401871899 12.842010825535644 #
straight-curve $-1 46.627399517807547 -29.897203401871899 0 0 0 -1 I I #
straight-curve $-1 46.627399517807547 29.897203401871899 0 0 0 -1 I I #
face $-1 $236 $279 $10 $-1 $280 reversed single #
loop $-1 $-1 $241 $143 #
plane-surface $-1 0 0 12.842010825535644 0 0 1 1 0 0 forward_v I I I I #
straight-curve $-1 46.627399517807547 -19.694359641332255 -0.066487470105211166 0 0 -1 I I #
coedge $-1 $231 $281 $148 $219 forward $232 $-1 #
edge $-1 $224 -17.499312641070858 $220 -7.2964688805312168 $218 $282 forward 7 unknown #
vertex $-1 $219 $283 #
straight-curve $-1 0 -19.694359641332255 -1.8312776688793146 1 0 0 I I #
coedge $-1 $284 $150 $281 $285 forward $144 $-1 #
coedge $-1 $150 $284 $152 $227 reversed $144 $-1 #
vertex $-1 $285 $286 #
straight-curve $-1 0 -29.897203401871899 -1.8312776688793146 -1 0 0 I I #
coedge $-1 $240 $152 $287 $288 reversed $80 $-1 #
edge $-1 $154 1.8312776688793146 $289 12.842010825535644 $152 $244 forward 7 unknown #
point $-1 46.627399517807547 -19.694359641332255 -1.8312776688793146 #
point $-1 46.627399517807547 -29.897203401871899 -1.8312776688793146 #
coedge $-1 $290 $156 $159 $235 reversed $232 $-1 #
coedge $-1 $156 $218 $163 $238 forward $232 $-1 #
loop $-1 $-1 $156 $291 #
straight-curve $-1 -46.627399517807547 -12.397890760801038 1.56532778845847 0 -1 0 I I #
coedge $-1 $159 $158 $292 $293 reversed $160 $-1 #
edge $-1 $294 -12.842010825535644 $161 -1.56532778845847 $230 $295 forward 7 unknown #
face $-1 $291 $160 $10 $-1 $145 reversed single #
point $-1 -46.627399517807547 -29.897203401871899 1.56532778845847 #
edge $-1 $220 -1.7647901987741035 $164 1.6318152585636811 $231 $296 forward 7 unknown #
point $-1 -46.627399517807547 -19.694359641332255 1.56532778845847 #
coedge $-1 $166 $226 $297 $298 reversed $80 $-1 #
coedge $-1 $299 $292 $166 $242 forward $215 $-1 #
edge $-1 $243 -29.897203401871899 $300 29.897203401871899 $166 $301 forward 7 unknown #
vertex $-1 $242 $302 #
straight-curve $-1 46.627399517807547 -29.897203401871899 0 0 0 -1 I I #
face $-1 $303 $304 $11 $-1 $305 reversed single #
loop $-1 $-1 $183 $170 #
plane-surface $-1 -46.627399517807547 0 0 1 0 0 0 0 -1 forward_v I I I I #
coedge $-1 $306 $172 $179 $258 forward $98 $-1 #
coedge $-1 $172 $306 $307 $308 reversed $98 $-1 #
coedge $-1 $307 $174 $176 $253 forward $246 $-1 #
vertex $-1 $253 $309 #
straight-curve $-1 -46.627399517807547 19.694359641332252 -0.066487470105211166 0 0 -1 I I #
edge $-1 $251 7.296468880531215 $254 17.499312641070858 $250 $310 forward 7 unknown #
vertex $-1 $308 $311 #
straight-curve $-1 0 29.897203401871899 -1.8312776688793146 1 0 0 I I #
straight-curve $-1 0 19.694359641332252 -1.8312776688793146 -1 0 0 I I #
coedge $-1 $179 $312 $313 $314 reversed $112 $-1 #
edge $-1 $180 1.8312776688793146 $315 12.842010825535644 $179 $271 forward 7 unknown #
point $-1 46.627399517807547 29.897203401871895 -1.8312776688793146 #
point $-1 46.627399517807547 19.694359641332252 -1.8312776688793146 #
coedge $-1 $183 $316 $188 $265 forward $246 $-1 #
straight-curve $-1 -46.627399517807547 12.397890760801037 1.56532778845847 0 -1 0 I I #
point $-1 -46.627399517807547 19.694359641332252 1.56532778845847 #
coedge $-1 $189 $188 $317 $318 reversed $171 $-1 #
edge $-1 $319 -12.842010825535644 $190 -1.56532778845847 $188 $320 forward 7 unknown #
point $-1 -46.627399517807547 29.897203401871895 1.56532778845847 #
coedge $-1 $321 $192 $322 $323 forward $112 $-1 #
coedge $-1 $317 $324 $192 $269 forward $325 $-1 #
edge $-1 $326 -29.897203401871899 $270 29.897203401871899 $192 $327 forward 7 unknown #
vertex $-1 $269 $328 #
straight-curve $-1 46.627399517807547 29.897203401871899 0 0 0 -1 I I #
straight-curve $-1 46.627399517807547 19.694359641332252 -0.066487470105211166 0 0 1 I I #
face $-1 $329 $330 $11 $-1 $331 reversed single #
plane-surface $-1 46.627399517807547 0 0 -1 0 0 0 0 1 forward_v I I I I #
straight-curve $-1 -46.627399517807547 29.897203401871899 0 0 0 -1 I I #
point $-1 -46.627399517807547 -29.897203401871899 -12.842010825535644 #
straight-curve $-1 -46.627399517807547 0 -12.842010825535644 0 1 0 I I #
point $-1 -46.627399517807547 29.897203401871899 -12.842010825535644 #
loop $-1 $-1 $287 $214 #
plane-surface $-1 0 0 -12.842010825535644 0 0 1 1 0 0 forward_v I I I I #
coedge $-1 $218 $332 $222 $285 reversed $232 $-1 #
straight-curve $-1 -46.627399517807547 -12.397890760801038 -1.8312776688793146 0 1 0 I I #
point $-1 -46.627399517807547 -19.694359641332255 -1.8312776688793146 #
coedge $-1 $223 $222 $333 $334 reversed $144 $-1 #
edge $-1 $224 1.8312776688793146 $335 12.842010825535644 $281 $295 forward 7 unknown #
point $-1 -46.627399517807547 -29.897203401871899 -1.8312776688793146 #
coedge $-1 $333 $336 $226 $288 forward $279 $-1 #
edge $-1 $337 -29.897203401871899 $289 29.897203401871899 $226 $338 forward 7 unknown #
vertex $-1 $227 $339 #
coedge $-1 $340 $230 $341 $342 reversed $232 $-1 #
face $-1 $343 $232 $10 $-1 $344 reversed single #
coedge $-1 $241 $341 $234 $293 forward $215 $-1 #
edge $-1 $294 -46.627399517807547 $243 46.627399517807547 $234 $345 forward 7 unknown #
vertex $-1 $342 $346 #
straight-curve $-1 -46.627399517807547 -29.897203401871899 0 0 0 -1 I I #
straight-curve $-1 -46.627399517807547 -19.694359641332255 -0.066487470105211166 0 0 1 I I #
coedge $-1 $347 $348 $240 $298 forward $349 $-1 #
edge $-1 $300 -12.842010825535644 $337 12.842010825535644 $240 $350 forward 7 unknown #
coedge $-1 $341 $241 $348 $351 forward $215 $-1 #
vertex $-1 $242 $352 #
straight-curve $-1 46.627399517807547 0 12.842010825535644 0 1 0 I I #
point $-1 46.627399517807547 -29.897203401871899 12.842010825535644 #
face $-1 $353 $354 $11 $-1 $355 forward single #
loop $-1 $-1 $356 $245 #
plane-surface $-1 0 -24.795781521602077 1.56532778845847 0 0 1 1 0 0 forward_v I I I I #
coedge $-1 $249 $248 $357 $358 reversed $98 $-1 #
coedge $-1 $359 $250 $249 $308 forward $246 $-1 #
edge $-1 $254 1.8312776688793146 $360 12.842010825535644 $249 $320 forward 7 unknown #
point $-1 -46.627399517807547 19.694359641332252 -1.8312776688793146 #
straight-curve $-1 -46.627399517807547 12.397890760801037 -1.8312776688793146 0 1 0 I I #
point $-1 -46.627399517807547 29.897203401871895 -1.8312776688793146 #
coedge $-1 $257 $361 $362 $363 forward $112 $-1 #
coedge $-1 $364 $357 $257 $314 forward $365 $-1 #
edge $-1 $315 -29.897203401871899 $366 29.897203401871899 $257 $367 forward 7 unknown #
vertex $-1 $314 $368 #
coedge $-1 $261 $369 $370 $371 reversed $246 $-1 #
coedge $-1 $370 $268 $264 $318 forward $325 $-1 #
edge $-1 $270 -46.627399517807547 $319 46.627399517807547 $264 $372 forward 7 unknown #
vertex $-1 $318 $373 #
straight-curve $-1 -46.627399517807547 29.897203401871899 0 0 0 -1 I I #
coedge $-1 $374 $267 $356 $375 forward $112 $-1 #
coedge $-1 $376 $377 $267 $323 reversed $378 $-1 #
edge $-1 $326 -12.842010825535644 $379 -1.56532778845847 $267 $380 forward 7 unknown #
coedge $-1 $268 $370 $376 $381 forward $325 $-1 #
loop $-1 $-1 $268 $329 #
vertex $-1 $269 $382 #
straight-curve $-1 46.627399517807547 0 12.842010825535644 0 1 0 I I #
point $-1 46.627399517807547 29.897203401871899 12.842010825535644 #
face $-1 $383 $325 $11 $-1 $384 forward single #
loop $-1 $-1 $385 $273 #
plane-surface $-1 0 -29.897203401871899 0 0 1 0 0 0 1 forward_v I I I I #
coedge $-1 $281 $340 $386 $387 reversed $232 $-1 #
coedge $-1 $386 $287 $284 $334 forward $279 $-1 #
edge $-1 $289 -46.627399517807547 $335 46.627399517807547 $284 $388 forward 7 unknown #
vertex $-1 $387 $389 #
coedge $-1 $287 $386 $347 $390 forward $279 $-1 #
vertex $-1 $288 $391 #
straight-curve $-1 46.627399517807547 0 -12.842010825535644 0 -1 0 I I #
point $-1 46.627399517807547 -29.897203401871899 -12.842010825535644 #
coedge $-1 $332 $290 $392 $393 forward $232 $-1 #
coedge $-1 $292 $299 $290 $342 forward $215 $-1 #
edge $-1 $394 -29.897203401871899 $294 29.897203401871899 $290 $395 forward 7 unknown #
face $-1 $-1 $349 $10 $-1 $396 reversed single #
plane-surface $-1 -46.627399517807547 0 0 1 0 0 0 0 -1 forward_v I I I I #
straight-curve $-1 0 -29.897203401871899 12.842010825535644 1 0 0 I I #
point $-1 -46.627399517807547 -29.897203401871899 12.842010825535644 #
coedge $-1 $392 $297 $336 $390 reversed $349 $-1 #
coedge $-1 $297 $392 $299 $351 reversed $349 $-1 #
loop $-1 $-1 $297 $343 #
straight-curve $-1 46.627399517807547 29.897203401871899 0 0 0 -1 I I #
edge $-1 $300 -46.627399517807547 $394 46.627399517807547 $348 $397 forward 7 unknown #
point $-1 46.627399517807547 29.897203401871899 12.842010825535644 #
face $-1 $195 $398 $11 $-1 $399 forward single #
loop $-1 $-1 $400 $303 #
plane-surface $-1 0 -24.795781521602077 -1.8312776688793146 0 0 1 1 0 0 forward_v I I I I #
coedge $-1 $401 $402 $321 $375 reversed $304 $-1 #
coedge $-1 $313 $403 $306 $358 forward $365 $-1 #
edge $-1 $360 -46.627399517807547 $315 46.627399517807547 $306 $404 forward 7 unknown #
coedge $-1 $405 $307 $403 $406 reversed $246 $-1 #
vertex $-1 $358 $407 #
coedge $-1 $312 $374 $400 $408 forward $112 $-1 #
coedge $-1 $385 $409 $312 $363 reversed $330 $-1 #
edge $-1 $410 1.8312776688793146 $366 12.842010825535644 $312 $380 forward 7 unknown #
coedge $-1 $403 $313 $409 $411 forward $365 $-1 #
loop $-1 $-1 $313 $383 #
vertex $-1 $363 $412 #
straight-curve $-1 46.627399517807547 0 -12.842010825535644 0 -1 0 I I #
point $-1 46.627399517807547 29.897203401871899 -12.842010825535644 #
coedge $-1 $316 $413 $414 $415 reversed $246 $-1 #
coedge $-1 $324 $317 $316 $371 forward $325 $-1 #
edge $-1 $319 -29.897203401871899 $416 29.897203401871899 $316 $417 forward 7 unknown #
straight-curve $-1 0 29.897203401871899 12.842010825535644 -1 0 0 I I #
point $-1 -46.627399517807547 29.897203401871899 12.842010825535644 #
coedge $-1 $361 $321 $418 $419 forward $112 $-1 #
edge $-1 $379 -17.499312641070858 $420 -7.2964688805312168 $321 $421 forward 7 unknown #
coedge $-1 $414 $322 $324 $381 reversed $378 $-1 #
coedge $-1 $322 $414 $401 $422 forward $378 $-1 #
loop $-1 $-1 $377 $423 #
vertex $-1 $422 $424 #
straight-curve $-1 46.627399517807547 -29.897203401871899 0 0 0 -1 I I #
edge $-1 $416 -46.627399517807547 $326 46.627399517807547 $376 $425 forward 7 unknown #
point $-1 46.627399517807547 -29.897203401871899 12.842010825535644 #
face $-1 $423 $365 $11 $-1 $426 reversed single #
plane-surface $-1 0 0 12.842010825535644 0 0 1 1 0 0 forward_v I I I I #
coedge $-1 $427 $362 $428 $429 forward $330 $-1 #
coedge $-1 $336 $333 $332 $387 forward $279 $-1 #
edge $-1 $335 -29.897203401871899 $430 29.897203401871899 $332 $431 forward 7 unknown #
straight-curve $-1 0 -29.897203401871899 -12.842010825535644 -1 0 0 I I #
point $-1 -46.627399517807547 -29.897203401871899 -12.842010825535644 #
edge $-1 $430 -46.627399517807547 $337 46.627399517807547 $347 $432 forward 7 unknown #
point $-1 46.627399517807547 29.897203401871899 -12.842010825535644 #
coedge $-1 $348 $347 $340 $393 reversed $349 $-1 #
edge $-1 $394 -12.842010825535644 $430 12.842010825535644 $392 $433 forward 7 unknown #
vertex $-1 $351 $434 #
straight-curve $-1 -46.627399517807547 0 12.842010825535644 0 -1 0 I I #
plane-surface $-1 0 29.897203401871899 0 0 -1 0 0 0 -1 forward_v I I I I #
straight-curve $-1 0 29.897203401871899 12.842010825535644 -1 0 0 I I #
loop $-1 $-1 $418 $353 #
plane-surface $-1 0 -19.694359641332255 -0.13297494021042233 0 -1 0 0 0 -1 forward_v I I I I #
coedge $-1 $435 $428 $361 $408 reversed $354 $-1 #
coedge $-1 $436 $356 $377 $422 reversed $304 $-1 #
coedge $-1 $356 $436 $437 $438 reversed $304 $-1 #
coedge $-1 $357 $364 $359 $406 forward $365 $-1 #
straight-curve $-1 0 29.897203401871899 -12.842010825535644 1 0 0 I I #
coedge $-1 $439 $359 $427 $440 reversed $246 $-1 #
edge $-1 $441 -29.897203401871899 $360 29.897203401871899 $359 $442 forward 7 unknown #
point $-1 -46.627399517807547 29.897203401871899 -12.842010825535644 #
edge $-1 $443 7.2964688805312168 $410 17.499312641070858 $361 $444 forward 7 unknown #
coedge $-1 $362 $427 $364 $411 reversed $330 $-1 #
vertex $-1 $363 $445 #
edge $-1 $366 -46.627399517807547 $441 46.627399517807547 $409 $446 forward 7 unknown #
point $-1 46.627399517807547 -29.897203401871899 -12.842010825535644 #
coedge $-1 $369 $447 $436 $448 forward $246 $-1 #
coedge $-1 $377 $376 $369 $415 forward $378 $-1 #
edge $-1 $416 -12.842010825535644 $449 -1.56532778845847 $369 $450 forward 7 unknown #
vertex $-1 $371 $451 #
straight-curve $-1 -46.627399517807547 0 12.842010825535644 0 -1 0 I I #
coedge $-1 $437 $452 $374 $419 reversed $398 $-1 #
edge $-1 $420 -1.6318152585636811 $443 1.7647901987741035 $374 $453 forward 7 unknown #
vertex $-1 $375 $454 #
straight-curve $-1 46.627399517807547 -12.397890760801038 1.56532778845847 0 1 0 I I #
edge $-1 $449 -46.627399517807547 $379 46.627399517807547 $377 $455 forward 7 unknown #
face $-1 $-1 $378 $11 $-1 $331 reversed single #
point $-1 46.627399517807547 -29.897203401871899 1.56532778845847 #
straight-curve $-1 0 -29.897203401871899 12.842010825535644 1 0 0 I I #
plane-surface $-1 0 0 -12.842010825535644 0 0 1 1 0 0 forward_v I I I I #
coedge $-1 $409 $385 $405 $440 forward $330 $-1 #
coedge $-1 $400 $456 $385 $429 reversed $354 $-1 #
edge $-1 $410 -46.627399517807547 $457 46.627399517807547 $385 $458 forward 7 unknown #
vertex $-1 $390 $459 #
straight-curve $-1 -46.627399517807547 0 -12.842010825535644 0 1 0 I I #
straight-curve $-1 0 29.897203401871899 -12.842010825535644 1 0 0 I I #
straight-curve $-1 -46.627399517807547 29.897203401871899 0 0 0 -1 I I #
point $-1 -46.627399517807547 29.897203401871899 12.842010825535644 #
coedge $-1 $456 $400 $452 $460 reversed $354 $-1 #
coedge $-1 $402 $401 $413 $448 reversed $304 $-1 #
coedge $-1 $461 $418 $402 $438 forward $398 $-1 #
edge $-1 $420 -46.627399517807547 $462 46.627399517807547 $437 $463 forward 7 unknown #
coedge $-1 $447 $405 $456 $464 forward $246 $-1 #
edge $-1 $457 1.8312776688793146 $441 12.842010825535644 $405 $450 forward 7 unknown #
vertex $-1 $406 $465 #
straight-curve $-1 -46.627399517807547 0 -12.842010825535644 0 1 0 I I #
vertex $-1 $408 $466 #
straight-curve $-1 46.627399517807547 -12.397890760801038 -1.8312776688793146 0 -1 0 I I #
point $-1 46.627399517807547 -29.897203401871899 -1.8312776688793146 #
straight-curve $-1 0 -29.897203401871899 -12.842010825535644 -1 0 0 I I #
coedge $-1 $413 $439 $461 $467 forward $246 $-1 #
edge $-1 $462 7.2964688805312168 $449 17.499312641070858 $413 $468 forward 7 unknown #
vertex $-1 $448 $469 #
straight-curve $-1 -46.627399517807547 -29.897203401871899 0 0 0 -1 I I #
point $-1 -46.627399517807547 -29.897203401871899 12.842010825535644 #
coedge $-1 $418 $461 $435 $460 forward $398 $-1 #
straight-curve $-1 46.627399517807547 -19.694359641332255 -0.066487470105211166 0 0 -1 I I #
point $-1 46.627399517807547 -19.694359641332255 1.56532778845847 #
straight-curve $-1 0 -29.897203401871899 1.56532778845847 1 0 0 I I #
coedge $-1 $428 $435 $439 $464 reversed $354 $-1 #
vertex $-1 $440 $470 #
straight-curve $-1 0 -29.897203401871899 -1.8312776688793146 -1 0 0 I I #
point $-1 -46.627399517807547 29.897203401871899 -12.842010825535644 #
edge $-1 $471 -46.627399517807547 $443 46.627399517807547 $452 $472 forward 7 unknown #
coedge $-1 $452 $437 $447 $467 reversed $398 $-1 #
vertex $-1 $448 $473 #
straight-curve $-1 0 -19.694359641332255 1.56532778845847 -1 0 0 I I #
edge $-1 $457 -17.499312641070858 $471 -7.2964688805312168 $439 $474 forward 7 unknown #
point $-1 -46.627399517807547 -29.897203401871899 -12.842010825535644 #
point $-1 46.627399517807547 -19.694359641332255 -1.8312776688793146 #
edge $-1 $471 -1.7647901987741035 $462 1.6318152585636811 $447 $475 forward 7 unknown #
straight-curve $-1 -46.627399517807547 -12.397890760801038 1.56532778845847 0 -1 0 I I #
point $-1 -46.627399517807547 -29.897203401871899 1.56532778845847 #
point $-1 -46.627399517807547 -29.897203401871899 -1.8312776688793146 #
vertex $-1 $464 $476 #
straight-curve $-1 0 -19.694359641332255 -1.8312776688793146 1 0 0 I I #
point $-1 -46.627399517807547 -19.694359641332255 1.56532778845847 #
straight-curve $-1 -46.627399517807547 -12.397890760801038 -1.8312776688793146 0 1 0 I I #
straight-curve $-1 -46.627399517807547 -19.694359641332255 -0.066487470105211166 0 0 1 I I #
point $-1 -46.627399517807547 -19.694359641332255 -1.8312776688793146 #
End-of-ACIS-data 