500 0 8 0           
7 Unknown 11 ACIS 5.0 NT 24 Fri Mar 26 17:24:14 1999 
-1 9.9999999999999995e-007 1e-010 
body $-1 $8 $-1 $9 #
body $-1 $10 $-1 $11 #
body $-1 $12 $-1 $13 #
body $-1 $14 $-1 $15 #
body $-1 $16 $-1 $17 #
body $-1 $18 $-1 $19 #
body $-1 $20 $-1 $21 #
body $-1 $22 $-1 $23 #
lump $-1 $-1 $24 $0 #
transform $-1 1 0 0 0 1 0 0 0 1 42.365794854579299 19.05756115659177 8.0805757600362487 1 rotate no_reflect no_shear #
lump $-1 $-1 $25 $1 #
transform $-1 1 0 0 0 1 0 0 0 1 42.365794854579299 19.05756115659177 8.0805757600362487 1 rotate no_reflect no_shear #
lump $-1 $-1 $26 $2 #
transform $-1 1 0 0 0 1 0 0 0 1 42.365794854579299 19.05756115659177 8.0805757600362487 1 rotate no_reflect no_shear #
lump $-1 $-1 $27 $3 #
transform $-1 1 0 0 0 1 0 0 0 1 42.365794854579299 19.05756115659177 8.0805757600362487 1 rotate no_reflect no_shear #
lump $-1 $-1 $28 $4 #
transform $-1 1 0 0 0 1 0 0 0 1 42.365794854579299 19.05756115659177 8.0805757600362487 1 rotate no_reflect no_shear #
lump $-1 $-1 $29 $5 #
transform $-1 1 0 0 0 1 0 0 0 1 42.365794854579299 19.05756115659177 8.0805757600362487 1 rotate no_reflect no_shear #
lump $-1 $-1 $30 $6 #
transform $-1 1 0 0 0 1 0 0 0 1 42.365794854579299 19.05756115659177 8.0805757600362487 1 rotate no_reflect no_shear #
lump $-1 $-1 $31 $7 #
transform $-1 1 0 0 0 1 0 0 0 1 42.365794854579299 19.05756115659177 8.0805757600362487 1 rotate no_reflect no_shear #
shell $-1 $-1 $-1 $32 $-1 $8 #
shell $-1 $-1 $-1 $33 $-1 $10 #
shell $-1 $-1 $-1 $34 $-1 $12 #
shell $-1 $-1 $-1 $35 $-1 $14 #
shell $-1 $-1 $-1 $36 $-1 $16 #
shell $-1 $-1 $-1 $37 $-1 $18 #
shell $-1 $-1 $-1 $38 $-1 $20 #
shell $-1 $-1 $-1 $39 $-1 $22 #
face $-1 $40 $41 $24 $-1 $42 forward single #
face $-1 $43 $44 $25 $-1 $45 reversed single #
face $-1 $46 $47 $26 $-1 $48 forward single #
face $-1 $49 $50 $27 $-1 $51 forward single #
face $-1 $52 $53 $28 $-1 $54 reversed single #
face $-1 $55 $56 $29 $-1 $57 forward single #
face $-1 $58 $59 $30 $-1 $60 forward single #
face $-1 $61 $62 $31 $-1 $63 forward single #
face $-1 $64 $65 $24 $-1 $66 reversed single #
loop $-1 $-1 $67 $32 #
plane-surface $-1 0 0 8.0805757600362487 0 0 1 1 0 0 forward_v I I I I #
face $-1 $68 $69 $25 $-1 $70 reversed single #
loop $-1 $-1 $71 $33 #
plane-surface $-1 -110.91509158311788 -11.027148492195789 54.734773794866264 0 1 0 -0.80901700255871778 0 0.5877852410284794 forward_v I I I I #
face $-1 $72 $73 $26 $-1 $74 forward single #
loop $-1 $75 $76 $34 #
cone-surface $-1 -40.81706188114439 -8.643570970687465 6.2117932169750105 0.80901700255871778 0 -0.5877852410284794 0.2938926205142397 0 0.40450850127935889 1 I I 0 1 0.5 forward I I I I #
face $-1 $77 $78 $27 $-1 $79 forward single #
loop $-1 $80 $81 $35 #
cone-surface $-1 -40.81706188114439 -5.0682046884249807 6.2117932169750105 0.80901700255871778 0 -0.5877852410284794 0.2938926205142397 0 0.40450850127935889 1 I I 0 1 0.5 forward I I I I #
face $-1 $82 $83 $28 $-1 $84 reversed single #
loop $-1 $-1 $85 $36 #
plane-surface $-1 1.1351891515687385e-006 -13.358536745169372 78.208016654261712 0.86602541151947299 0 0.49999998660252726 0.49999998660252726 0 -0.86602541151947299 forward_v I I I I #
face $-1 $86 $87 $29 $-1 $88 forward single #
loop $-1 $89 $90 $37 #
cone-surface $-1 40.988428997969336 -16.77795139202281 6.2012635508470657 -0.86602541151947299 0 -0.49999998660252726 0.24999999330126363 0 -0.43301270575973649 1 I I 0 1 0.5 forward I I I I #
face $-1 $91 $92 $30 $-1 $93 forward single #
loop $-1 $94 $95 $38 #
cone-surface $-1 40.988428997969336 -13.358536745169372 6.2012635508470657 -0.86602541151947299 0 -0.49999998660252726 0.24999999330126363 0 -0.43301270575973649 1 I I 0 1 0.5 forward I I I I #
face $-1 $96 $97 $31 $-1 $98 forward single #
loop $-1 $99 $100 $39 #
cone-surface $-1 40.988428997969336 -9.9391220983159343 6.2012635508470657 -0.86602541151947299 0 -0.49999998660252726 0.24999999330126363 0 -0.43301270575973649 1 I I 0 1 0.5 forward I I I I #
face $-1 $101 $102 $24 $-1 $103 reversed single #
loop $-1 $-1 $104 $40 #
plane-surface $-1 0 0 -8.0805757600362487 0 0 1 1 0 0 forward_v I I I I #
coedge $-1 $105 $106 $107 $108 forward $41 $-1 #
face $-1 $109 $110 $25 $-1 $111 reversed single #
loop $-1 $-1 $112 $43 #
plane-surface $-1 -42.365794854579292 -6.8558878295562238 4.9307959149422516 -0.80901700255871778 0 0.5877852410284794 0.5877852410284794 0 0.80901700255871778 forward_v I I I I #
coedge $-1 $113 $114 $115 $116 reversed $44 $-1 #
face $-1 $-1 $117 $26 $-1 $118 forward single #
loop $-1 $119 $120 $46 #
cone-surface $-1 -40.210299129225355 -8.643570970687465 5.7709542862036507 0.80901700255871778 0 -0.5877852410284794 0.14694631025711985 0 0.20225425063967944 1 I I -0.70710678118654746 0.70710678118654746 0.25 forward I I I I #
loop $-1 $-1 $121 $34 #
coedge $-1 $76 $76 $122 $123 reversed $47 $-1 #
face $-1 $-1 $124 $27 $-1 $125 forward single #
loop $-1 $126 $127 $49 #
cone-surface $-1 -40.210299129225355 -5.0682046884249807 5.7709542862036507 0.80901700255871778 0 -0.5877852410284794 0.14694631025711985 0 0.20225425063967944 1 I I -0.70710678118654746 0.70710678118654746 0.25 forward I I I I #
loop $-1 $-1 $128 $35 #
coedge $-1 $81 $81 $129 $130 reversed $50 $-1 #
face $-1 $131 $132 $28 $-1 $133 reversed single #
loop $-1 $-1 $134 $52 #
plane-surface $-1 73.379710981762372 -7.6595123337469744 120.57381037365184 0 -1 0 -0.86602541151947299 0 -0.49999998660252726 forward_v I I I I #
coedge $-1 $135 $136 $137 $138 reversed $53 $-1 #
face $-1 $-1 $139 $29 $-1 $140 forward single #
loop $-1 $141 $142 $55 #
cone-surface $-1 40.333405932495147 -16.77795139202281 5.8230858211811292 -0.86602541151947299 0 -0.49999998660252726 0.12499999665063181 0 -0.21650635287986825 1 I I -0.70710678118654746 0.70710678118654746 0.25 forward I I I I #
loop $-1 $-1 $143 $37 #
coedge $-1 $90 $90 $144 $145 reversed $56 $-1 #
face $-1 $-1 $146 $30 $-1 $147 forward single #
loop $-1 $148 $149 $58 #
cone-surface $-1 40.333405932495147 -13.358536745169372 5.8230858211811292 -0.86602541151947299 0 -0.49999998660252726 0.12499999665063181 0 -0.21650635287986825 1 I I -0.70710678118654746 0.70710678118654746 0.25 forward I I I I #
loop $-1 $-1 $150 $38 #
coedge $-1 $95 $95 $151 $152 reversed $59 $-1 #
face $-1 $-1 $153 $31 $-1 $154 forward single #
loop $-1 $155 $156 $61 #
cone-surface $-1 40.333405932495147 -9.9391220983159343 5.8230858211811292 -0.86602541151947299 0 -0.49999998660252726 0.12499999665063181 0 -0.21650635287986825 1 I I -0.70710678118654746 0.70710678118654746 0.25 forward I I I I #
loop $-1 $-1 $157 $39 #
coedge $-1 $100 $100 $158 $159 reversed $62 $-1 #
face $-1 $160 $161 $24 $-1 $162 reversed single #
loop $-1 $-1 $163 $64 #
plane-surface $-1 0 -19.05756115659177 0 0 1 0 0 0 1 forward_v I I I I #
coedge $-1 $164 $165 $166 $167 forward $65 $-1 #
coedge $-1 $168 $67 $169 $170 forward $41 $-1 #
coedge $-1 $67 $168 $171 $172 forward $41 $-1 #
coedge $-1 $173 $174 $67 $108 reversed $175 $-1 #
edge $-1 $176 -19.05756115659177 $177 19.05756115659177 $107 $178 forward 7 unknown #
face $-1 $179 $180 $25 $-1 $181 reversed single #
loop $-1 $-1 $182 $68 #
plane-surface $-1 -110.91509158311788 -2.684627166916659 54.734773794866264 0 -1 0 0.80901700255871778 0 -0.5877852410284794 forward_v I I I I #
coedge $-1 $183 $184 $185 $186 reversed $69 $-1 #
coedge $-1 $114 $71 $187 $188 reversed $44 $-1 #
coedge $-1 $71 $113 $183 $189 reversed $44 $-1 #
coedge $-1 $185 $190 $71 $116 forward $191 $-1 #
edge $-1 $192 13.091750936979643 $193 15.380199881290743 $115 $194 forward 7 unknown #
loop $-1 $-1 $122 $72 #
plane-surface $-1 -42.365794854579292 -6.8558878295562238 4.9307959149422516 -0.80901700255871778 0 0.5877852410284794 0.5877852410284794 0 0.80901700255871778 forward_v I I I I #
loop $-1 $-1 $195 $46 #
coedge $-1 $120 $120 $121 $196 reversed $73 $-1 #
coedge $-1 $121 $121 $120 $196 forward $75 $-1 #
coedge $-1 $122 $122 $76 $123 forward $117 $-1 #
edge $-1 $197 0 $197 6.2831853071796004 $122 $198 forward 7 unknown #
loop $-1 $-1 $129 $77 #
plane-surface $-1 -42.365794854579292 -6.8558878295562238 4.9307959149422516 -0.80901700255871778 0 0.5877852410284794 0.5877852410284794 0 0.80901700255871778 forward_v I I I I #
loop $-1 $-1 $199 $49 #
coedge $-1 $127 $127 $128 $200 reversed $78 $-1 #
coedge $-1 $128 $128 $127 $200 forward $80 $-1 #
coedge $-1 $129 $129 $81 $130 forward $124 $-1 #
edge $-1 $201 0 $201 6.2831853071796004 $129 $202 forward 7 unknown #
face $-1 $203 $204 $28 $-1 $205 forward single #
loop $-1 $-1 $137 $82 #
plane-surface $-1 42.365794854579299 0 0 -1 0 0 0 0 1 forward_v I I I I #
coedge $-1 $206 $207 $208 $209 reversed $83 $-1 #
coedge $-1 $210 $85 $211 $212 reversed $53 $-1 #
coedge $-1 $85 $210 $206 $213 forward $53 $-1 #
coedge $-1 $208 $214 $85 $138 forward $132 $-1 #
edge $-1 $215 -12.378292784007083 $216 -0.98024396116228818 $137 $217 forward 7 unknown #
loop $-1 $-1 $144 $86 #
plane-surface $-1 1.1351891515687385e-006 -13.358536745169372 78.208016654261712 0.86602541151947299 0 0.49999998660252726 0.49999998660252726 0 -0.86602541151947299 forward_v I I I I #
loop $-1 $-1 $218 $55 #
coedge $-1 $142 $142 $143 $219 reversed $87 $-1 #
coedge $-1 $143 $143 $142 $219 forward $89 $-1 #
coedge $-1 $144 $144 $90 $145 forward $139 $-1 #
edge $-1 $220 0 $220 6.2831853071796004 $144 $221 forward 7 unknown #
loop $-1 $-1 $151 $91 #
plane-surface $-1 1.1351891515687385e-006 -13.358536745169372 78.208016654261712 0.86602541151947299 0 0.49999998660252726 0.49999998660252726 0 -0.86602541151947299 forward_v I I I I #
loop $-1 $-1 $222 $58 #
coedge $-1 $149 $149 $150 $223 reversed $92 $-1 #
coedge $-1 $150 $150 $149 $223 forward $94 $-1 #
coedge $-1 $151 $151 $95 $152 forward $146 $-1 #
edge $-1 $224 0 $224 6.2831853071796004 $151 $225 forward 7 unknown #
loop $-1 $-1 $158 $96 #
plane-surface $-1 1.1351891515687385e-006 -13.358536745169372 78.208016654261712 0.86602541151947299 0 0.49999998660252726 0.49999998660252726 0 -0.86602541151947299 forward_v I I I I #
loop $-1 $-1 $226 $61 #
coedge $-1 $156 $156 $157 $227 reversed $97 $-1 #
coedge $-1 $157 $157 $156 $227 forward $99 $-1 #
coedge $-1 $158 $158 $100 $159 forward $153 $-1 #
edge $-1 $228 0 $228 6.2831853071796004 $158 $229 forward 7 unknown #
face $-1 $230 $231 $24 $-1 $232 reversed single #
loop $-1 $-1 $233 $101 #
plane-surface $-1 -42.365794854579299 0 0 1 0 0 0 0 -1 forward_v I I I I #
coedge $-1 $234 $171 $235 $236 forward $102 $-1 #
coedge $-1 $237 $104 $234 $238 forward $65 $-1 #
coedge $-1 $104 $237 $239 $240 forward $65 $-1 #
coedge $-1 $174 $173 $104 $167 reversed $175 $-1 #
edge $-1 $241 -19.05756115659177 $242 19.05756115659177 $166 $243 forward 7 unknown #
coedge $-1 $106 $105 $244 $245 forward $41 $-1 #
coedge $-1 $246 $247 $105 $170 reversed $231 $-1 #
edge $-1 $177 -42.365794854579299 $248 42.365794854579299 $169 $249 forward 7 unknown #
coedge $-1 $163 $250 $106 $172 reversed $102 $-1 #
edge $-1 $251 -42.365794854579299 $176 42.365794854579299 $171 $252 forward 7 unknown #
coedge $-1 $166 $107 $250 $253 forward $175 $-1 #
coedge $-1 $107 $166 $246 $254 reversed $175 $-1 #
loop $-1 $-1 $173 $230 #
vertex $-1 $108 $255 #
vertex $-1 $108 $256 #
straight-curve $-1 42.365794854579299 0 8.0805757600362487 0 1 0 I I #
face $-1 $-1 $191 $25 $-1 $257 forward single #
loop $-1 $-1 $258 $109 #
plane-surface $-1 -42.365794854579299 0 0 1 0 0 0 0 -1 forward_v I I I I #
coedge $-1 $259 $260 $261 $262 reversed $110 $-1 #
coedge $-1 $263 $112 $114 $189 forward $69 $-1 #
coedge $-1 $112 $263 $259 $264 forward $69 $-1 #
coedge $-1 $261 $115 $112 $186 forward $191 $-1 #
edge $-1 $193 -7.5992045774176766 $265 0.74331674786145285 $185 $266 forward 7 unknown #
coedge $-1 $267 $268 $113 $188 forward $180 $-1 #
edge $-1 $269 -22.436590982490891 $192 -19.286811137396882 $187 $270 forward 7 unknown #
edge $-1 $193 -3.8933419633110722 $269 1.2080531203272332e-014 $114 $271 forward 7 unknown #
coedge $-1 $115 $261 $267 $272 forward $191 $-1 #
loop $-1 $-1 $261 $179 #
vertex $-1 $188 $273 #
vertex $-1 $116 $274 #
straight-curve $-1 -55.457545791558942 -11.027148492195789 8.0805757600362469 1 0 0 I I #
coedge $-1 $195 $195 $-1 $275 reversed $119 $-1 #
edge $-1 $276 0 $276 6.2831853071796004 $120 $277 forward 7 unknown #
vertex $-1 $123 $278 #
ellipse-curve $-1 -41.221570382423749 -8.643570970687465 6.5056858374892492 -0.80901700255871778 0 0.5877852410284794 0.2938926205142397 0 0.40450850127935889 1 I I #
coedge $-1 $199 $199 $-1 $279 reversed $126 $-1 #
edge $-1 $280 0 $280 6.2831853071796004 $127 $281 forward 7 unknown #
vertex $-1 $130 $282 #
ellipse-curve $-1 -41.221570382423749 -5.0682046884249807 6.5056858374892492 -0.80901700255871778 0 0.5877852410284794 0.2938926205142397 0 0.40450850127935889 1 I I #
face $-1 $-1 $283 $28 $-1 $284 reversed single #
loop $-1 $-1 $285 $131 #
plane-surface $-1 0 0 8.0805757600362487 0 0 1 1 0 0 forward_v I I I I #
coedge $-1 $207 $134 $136 $213 reversed $83 $-1 #
coedge $-1 $134 $206 $285 $286 reversed $83 $-1 #
coedge $-1 $287 $137 $134 $209 forward $132 $-1 #
edge $-1 $216 -55.458598379137456 $288 -52.206329426789672 $208 $289 forward 7 unknown #
coedge $-1 $136 $135 $290 $291 reversed $53 $-1 #
coedge $-1 $292 $293 $135 $212 forward $283 $-1 #
edge $-1 $294 47.11112841270328 $215 50.866525089391509 $211 $295 forward 7 unknown #
edge $-1 $296 80.976193032470405 $216 84.731589709158641 $206 $297 forward 7 unknown #
coedge $-1 $137 $287 $292 $298 forward $132 $-1 #
vertex $-1 $212 $299 #
vertex $-1 $138 $300 #
straight-curve $-1 42.365794854579299 -6.6792683725846862 4.8283068076884703 0 1 0 I I #
coedge $-1 $218 $218 $-1 $301 reversed $141 $-1 #
edge $-1 $302 0 $302 6.2831853071796004 $142 $303 forward 7 unknown #
vertex $-1 $145 $304 #
ellipse-curve $-1 41.426945710563658 -16.77795139202281 6.4544412838623666 0.86602541151947299 0 0.49999998660252726 0.24999999330126363 0 -0.43301270575973649 1 I I #
coedge $-1 $222 $222 $-1 $305 reversed $148 $-1 #
edge $-1 $306 0 $306 6.2831853071796004 $149 $307 forward 7 unknown #
vertex $-1 $152 $308 #
ellipse-curve $-1 41.426945710563658 -13.358536745169372 6.4544412838623666 0.86602541151947299 0 0.49999998660252726 0.24999999330126363 0 -0.43301270575973649 1 I I #
coedge $-1 $226 $226 $-1 $309 reversed $155 $-1 #
edge $-1 $310 0 $310 6.2831853071796004 $156 $311 forward 7 unknown #
vertex $-1 $159 $312 #
ellipse-curve $-1 41.426945710563658 -9.9391220983159343 6.4544412838623666 0.86602541151947299 0 0.49999998660252726 0.24999999330126363 0 -0.43301270575973649 1 I I #
face $-1 $-1 $175 $24 $-1 $313 reversed single #
loop $-1 $-1 $246 $160 #
plane-surface $-1 0 19.05756115659177 0 0 -1 0 0 0 -1 forward_v I I I I #
coedge $-1 $314 $244 $247 $315 forward $161 $-1 #
coedge $-1 $250 $163 $164 $238 reversed $102 $-1 #
coedge $-1 $244 $314 $163 $236 reversed $161 $-1 #
edge $-1 $251 -8.0805757600362487 $316 8.0805757600362487 $235 $317 forward 7 unknown #
coedge $-1 $165 $164 $314 $318 forward $65 $-1 #
edge $-1 $242 -42.365794854579299 $316 42.365794854579299 $234 $319 forward 7 unknown #
coedge $-1 $247 $246 $165 $240 reversed $231 $-1 #
edge $-1 $320 -42.365794854579299 $241 42.365794854579299 $239 $321 forward 7 unknown #
vertex $-1 $167 $322 #
vertex $-1 $253 $323 #
straight-curve $-1 42.365794854579299 0 -8.0805757600362487 0 -1 0 I I #
coedge $-1 $233 $235 $168 $245 reversed $161 $-1 #
edge $-1 $248 -19.05756115659177 $251 19.05756115659177 $244 $324 forward 7 unknown #
coedge $-1 $239 $169 $174 $254 forward $231 $-1 #
coedge $-1 $169 $239 $233 $315 reversed $231 $-1 #
vertex $-1 $170 $325 #
straight-curve $-1 0 19.05756115659177 8.0805757600362487 -1 0 0 I I #
coedge $-1 $171 $234 $173 $253 reversed $102 $-1 #
vertex $-1 $245 $326 #
straight-curve $-1 0 -19.05756115659177 8.0805757600362487 1 0 0 I I #
edge $-1 $176 -8.0805757600362487 $242 8.0805757600362487 $173 $327 forward 7 unknown #
edge $-1 $177 -8.0805757600362487 $241 8.0805757600362487 $174 $328 forward 7 unknown #
point $-1 42.365794854579299 -19.05756115659177 8.0805757600362487 #
point $-1 42.365794854579299 19.05756115659177 8.0805757600362487 #
plane-surface $-1 0 0 8.0805757600362487 0 0 1 1 0 0 forward_v I I I I #
coedge $-1 $268 $267 $260 $329 forward $180 $-1 #
coedge $-1 $260 $182 $184 $264 reversed $110 $-1 #
coedge $-1 $182 $259 $258 $329 reversed $110 $-1 #
coedge $-1 $190 $185 $182 $262 forward $191 $-1 #
edge $-1 $265 -15.380199881290743 $330 -13.091750936979643 $261 $331 forward 7 unknown #
coedge $-1 $184 $183 $268 $332 reversed $69 $-1 #
edge $-1 $333 -1.2080531203272332e-014 $265 3.8933419633110722 $259 $334 forward 7 unknown #
vertex $-1 $186 $335 #
straight-curve $-1 -40.077345910268207 -3.4279439147781119 8.0805757600362487 0 1 0 I I #
coedge $-1 $258 $187 $190 $272 reversed $180 $-1 #
coedge $-1 $187 $258 $263 $332 forward $180 $-1 #
vertex $-1 $188 $336 #
straight-curve $-1 -42.365794854579299 -11.027148492195789 27.367386897433132 0 0 1 I I #
straight-curve $-1 -42.365794854579292 -11.027148492195789 4.9307959149422516 -0.5877852410284794 0 -0.80901700255871778 I I #
edge $-1 $330 2.684627166916659 $192 11.027148492195789 $267 $337 forward 7 unknown #
point $-1 -42.365794854579299 -11.027148492195789 8.0805757600362487 #
point $-1 -40.0773459102682 -11.027148492195789 8.0805757600362487 #
edge $-1 $338 1 $338 0 $195 $-1 forward 7 unknown #
vertex $-1 $196 $339 #
ellipse-curve $-1 -40.412553379865031 -8.643570970687465 5.9179005964607709 -0.80901700255871778 0 0.5877852410284794 0.2938926205142397 0 0.40450850127935889 1 I I #
point $-1 -40.927677761909514 -8.643570970687465 6.9101943387686084 #
edge $-1 $340 1 $340 0 $199 $-1 forward 7 unknown #
vertex $-1 $200 $341 #
ellipse-curve $-1 -40.412553379865031 -5.0682046884249807 5.9179005964607709 -0.80901700255871778 0 0.5877852410284794 0.2938926205142397 0 0.40450850127935889 1 I I #
point $-1 -40.927677761909514 -5.0682046884249807 6.9101943387686084 #
loop $-1 $-1 $211 $203 #
plane-surface $-1 0 -19.05756115659177 0 0 1 0 0 0 1 forward_v I I I I #
coedge $-1 $290 $342 $207 $286 forward $204 $-1 #
edge $-1 $288 -5.675939363698113 $296 -3.7982410756668301 $285 $343 forward 7 unknown #
coedge $-1 $214 $208 $342 $344 reversed $132 $-1 #
vertex $-1 $209 $345 #
straight-curve $-1 42.365794854579299 -7.6595123337469744 60.286905186825919 0 0 1 I I #
coedge $-1 $346 $285 $210 $291 forward $204 $-1 #
edge $-1 $296 0.98024396116228818 $294 12.378292784007083 $290 $347 forward 7 unknown #
coedge $-1 $293 $211 $214 $298 reversed $283 $-1 #
coedge $-1 $211 $292 $346 $348 reversed $283 $-1 #
vertex $-1 $348 $349 #
straight-curve $-1 16.932532991366429 -19.05756115659177 48.880010130794346 0.49999998660252726 0 -0.86602541151947299 I I #
vertex $-1 $291 $350 #
straight-curve $-1 1.1351891515687385e-006 -7.6595123337469744 78.208016654261712 0.49999998660252726 0 -0.86602541151947299 I I #
edge $-1 $351 -8.0805757600362487 $215 -4.8283068076884668 $214 $352 forward 7 unknown #
point $-1 42.365794854579299 -19.05756115659177 4.8283068076884668 #
point $-1 42.365794854579299 -7.6595123337469744 4.8283068076884632 #
edge $-1 $353 1 $353 0 $218 $-1 forward 7 unknown #
vertex $-1 $219 $354 #
ellipse-curve $-1 40.549912285375015 -16.77795139202281 5.9480858178317613 0.86602541151947299 0 0.49999998660252726 0.24999999330126363 0 -0.43301270575973649 1 I I #
point $-1 41.676945703864924 -16.77795139202281 6.0214285781026335 #
edge $-1 $355 1 $355 0 $222 $-1 forward 7 unknown #
vertex $-1 $223 $356 #
ellipse-curve $-1 40.549912285375015 -13.358536745169372 5.9480858178317613 0.86602541151947299 0 0.49999998660252726 0.24999999330126363 0 -0.43301270575973649 1 I I #
point $-1 41.676945703864924 -13.358536745169372 6.0214285781026335 #
edge $-1 $357 1 $357 0 $226 $-1 forward 7 unknown #
vertex $-1 $227 $358 #
ellipse-curve $-1 40.549912285375015 -9.9391220983159343 5.9480858178317613 0.86602541151947299 0 0.49999998660252726 0.24999999330126363 0 -0.43301270575973649 1 I I #
point $-1 41.676945703864924 -9.9391220983159343 6.0214285781026335 #
plane-surface $-1 42.365794854579299 0 0 -1 0 0 0 0 1 forward_v I I I I #
coedge $-1 $235 $233 $237 $318 reversed $161 $-1 #
edge $-1 $248 -8.0805757600362487 $320 8.0805757600362487 $247 $359 forward 7 unknown #
vertex $-1 $318 $360 #
straight-curve $-1 -42.365794854579299 -19.05756115659177 0 0 0 -1 I I #
edge $-1 $316 -19.05756115659177 $320 19.05756115659177 $314 $361 forward 7 unknown #
straight-curve $-1 0 -19.05756115659177 -8.0805757600362487 -1 0 0 I I #
vertex $-1 $240 $362 #
straight-curve $-1 0 19.05756115659177 -8.0805757600362487 1 0 0 I I #
point $-1 42.365794854579299 19.05756115659177 -8.0805757600362487 #
point $-1 42.365794854579299 -19.05756115659177 -8.0805757600362487 #
straight-curve $-1 -42.365794854579299 0 8.0805757600362487 0 -1 0 I I #
point $-1 -42.365794854579299 19.05756115659177 8.0805757600362487 #
point $-1 -42.365794854579299 -19.05756115659177 8.0805757600362487 #
straight-curve $-1 42.365794854579299 -19.05756115659177 0 0 0 -1 I I #
straight-curve $-1 42.365794854579299 19.05756115659177 0 0 0 -1 I I #
edge $-1 $330 19.286811137396882 $333 22.436590982490891 $258 $363 forward 7 unknown #
vertex $-1 $272 $364 #
straight-curve $-1 -55.457545791558942 -2.684627166916659 8.0805757600362469 -1 0 0 I I #
edge $-1 $333 -0.74331674786145285 $269 7.5992045774176766 $268 $365 forward 7 unknown #
vertex $-1 $332 $366 #
straight-curve $-1 -42.365794854579292 -2.684627166916659 4.9307959149422516 0.5877852410284794 0 0.80901700255871778 I I #
point $-1 -40.0773459102682 -2.684627166916659 8.0805757600362487 #
point $-1 -42.365794854579299 -11.027148492195789 4.9307959149422418 #
straight-curve $-1 -42.365794854579299 0 8.0805757600362487 0 -1 0 I I #
vertex $-1 $275 $367 #
point $-1 -40.118660759350796 -8.643570970687465 6.3224090977401293 #
vertex $-1 $279 $368 #
point $-1 -40.118660759350796 -5.0682046884249807 6.3224090977401293 #
coedge $-1 $285 $346 $287 $344 forward $204 $-1 #
straight-curve $-1 36.689855490881186 -7.6595123337469744 8.0805757600362469 -1 0 0 I I #
edge $-1 $351 -19.05756115659177 $288 -7.6595123337469744 $287 $369 forward 7 unknown #
point $-1 42.365794854579299 -7.6595123337469744 8.0805757600362487 #
coedge $-1 $342 $290 $293 $348 forward $204 $-1 #
straight-curve $-1 40.488096566548009 -6.6792683725846862 8.0805757600362469 0 -1 0 I I #
edge $-1 $294 40.488096566548016 $351 42.365794854579299 $293 $370 forward 7 unknown #
point $-1 40.488096566548016 -19.05756115659177 8.080575760036254 #
point $-1 40.488096566548016 -7.6595123337469744 8.080575760036254 #
vertex $-1 $344 $371 #
straight-curve $-1 42.365794854579299 -19.05756115659177 0 0 0 -1 I I #
vertex $-1 $301 $372 #
point $-1 40.799912278676281 -16.77795139202281 5.5150731120720247 #
vertex $-1 $305 $373 #
point $-1 40.799912278676281 -13.358536745169372 5.5150731120720247 #
vertex $-1 $309 $374 #
point $-1 40.799912278676281 -9.9391220983159343 5.5150731120720247 #
straight-curve $-1 -42.365794854579299 19.05756115659177 0 0 0 -1 I I #
point $-1 -42.365794854579299 -19.05756115659177 -8.0805757600362487 #
straight-curve $-1 -42.365794854579299 0 -8.0805757600362487 0 1 0 I I #
point $-1 -42.365794854579299 19.05756115659177 -8.0805757600362487 #
straight-curve $-1 -42.365794854579299 -2.684627166916659 27.367386897433132 0 0 -1 I I #
point $-1 -42.365794854579299 -2.684627166916659 8.0805757600362487 #
straight-curve $-1 -42.365794854579299 -3.4279439147781119 4.9307959149422409 0 -1 0 I I #
point $-1 -42.365794854579299 -2.684627166916659 4.9307959149422418 #
point $-1 -40.008044878585679 -8.643570970687465 5.6240079759465305 #
point $-1 -40.008044878585679 -5.0682046884249807 5.6240079759465305 #
straight-curve $-1 42.365794854579299 0 8.0805757600362487 0 1 0 I I #
straight-curve $-1 0 -19.05756115659177 8.0805757600362487 1 0 0 I I #
point $-1 42.365794854579299 -19.05756115659177 8.0805757600362487 #
point $-1 40.116899579615279 -16.77795139202281 5.6980858245304971 #
point $-1 40.116899579615279 -13.358536745169372 5.6980858245304971 #
point $-1 40.116899579615279 -9.9391220983159343 5.6980858245304971 #
End-of-ACIS-data 