500 0 11 0           
7 Unknown 11 ACIS 5.0 NT 24 Fri Mar 26 17:04:21 1999 
-1 9.9999999999999995e-007 1e-010 
body $-1 $11 $-1 $12 #
body $-1 $13 $-1 $14 #
body $-1 $15 $-1 $16 #
body $-1 $17 $-1 $18 #
body $-1 $19 $-1 $20 #
body $-1 $21 $-1 $22 #
body $-1 $23 $-1 $24 #
body $-1 $25 $-1 $26 #
body $-1 $27 $-1 $28 #
body $-1 $29 $-1 $30 #
body $-1 $31 $-1 $32 #
lump $-1 $-1 $33 $0 #
transform $-1 1 0 0 0 1 0 0 0 1 47.18771935178686 32.283128178497009 11.772745604739416 1 rotate no_reflect no_shear #
lump $-1 $-1 $34 $1 #
transform $-1 1 0 0 0 1 0 0 0 1 47.18771935178686 32.283128178497009 11.772745604739416 1 rotate no_reflect no_shear #
lump $-1 $-1 $35 $2 #
transform $-1 1 0 0 0 1 0 0 0 1 47.18771935178686 32.283128178497009 11.772745604739416 1 rotate no_reflect no_shear #
lump $-1 $-1 $36 $3 #
transform $-1 1 0 0 0 1 0 0 0 1 47.18771935178686 32.283128178497009 11.772745604739416 1 rotate no_reflect no_shear #
lump $-1 $-1 $37 $4 #
transform $-1 1 0 0 0 1 0 0 0 1 47.18771935178686 32.283128178497009 11.772745604739416 1 rotate no_reflect no_shear #
lump $-1 $-1 $38 $5 #
transform $-1 1 0 0 0 1 0 0 0 1 47.18771935178686 32.283128178497009 11.772745604739416 1 rotate no_reflect no_shear #
lump $-1 $-1 $39 $6 #
transform $-1 1 0 0 0 1 0 0 0 1 47.18771935178686 32.283128178497009 11.772745604739416 1 rotate no_reflect no_shear #
lump $-1 $-1 $40 $7 #
transform $-1 1 0 0 0 1 0 0 0 1 47.18771935178686 32.283128178497009 11.772745604739416 1 rotate no_reflect no_shear #
lump $-1 $-1 $41 $8 #
transform $-1 1 0 0 0 1 0 0 0 1 47.18771935178686 32.283128178497009 11.772745604739416 1 rotate no_reflect no_shear #
lump $-1 $-1 $42 $9 #
transform $-1 1 0 0 0 1 0 0 0 1 47.18771935178686 32.283128178497009 11.772745604739416 1 rotate no_reflect no_shear #
lump $-1 $-1 $43 $10 #
transform $-1 1 0 0 0 1 0 0 0 1 47.18771935178686 32.283128178497009 11.772745604739416 1 rotate no_reflect no_shear #
shell $-1 $-1 $-1 $44 $-1 $11 #
shell $-1 $-1 $-1 $45 $-1 $13 #
shell $-1 $-1 $-1 $46 $-1 $15 #
shell $-1 $-1 $-1 $47 $-1 $17 #
shell $-1 $-1 $-1 $48 $-1 $19 #
shell $-1 $-1 $-1 $49 $-1 $21 #
shell $-1 $-1 $-1 $50 $-1 $23 #
shell $-1 $-1 $-1 $51 $-1 $25 #
shell $-1 $-1 $-1 $52 $-1 $27 #
shell $-1 $-1 $-1 $53 $-1 $29 #
shell $-1 $-1 $-1 $54 $-1 $31 #
face $-1 $55 $56 $33 $-1 $57 forward single #
face $-1 $58 $59 $34 $-1 $60 reversed single #
face $-1 $61 $62 $35 $-1 $63 reversed single #
face $-1 $64 $65 $36 $-1 $66 reversed single #
face $-1 $67 $68 $37 $-1 $69 forward single #
face $-1 $70 $71 $38 $-1 $72 reversed single #
face $-1 $73 $74 $39 $-1 $75 forward single #
face $-1 $76 $77 $40 $-1 $78 reversed single #
face $-1 $79 $80 $41 $-1 $81 forward single #
face $-1 $82 $83 $42 $-1 $84 reversed single #
face $-1 $85 $86 $43 $-1 $87 forward single #
face $-1 $88 $89 $33 $-1 $90 reversed single #
loop $-1 $-1 $91 $44 #
plane-surface $-1 0 0 11.772745604739416 0 0 1 1 0 0 forward_v I I I I #
face $-1 $92 $93 $34 $-1 $94 reversed single #
loop $-1 $-1 $95 $45 #
plane-surface $-1 -39.862324479926066 -30.848345649131339 0 0 1 0 0 0 1 forward_v I I I I #
face $-1 $96 $97 $35 $-1 $98 reversed single #
loop $-1 $-1 $99 $46 #
plane-surface $-1 39.862324479926066 -30.848345649131339 0 0 1 0 0 0 1 forward_v I I I I #
face $-1 $100 $101 $36 $-1 $102 reversed single #
loop $-1 $-1 $103 $47 #
plane-surface $-1 -23.672162854028517 -95.432623463093705 75.500753076400301 -1 0 0 0 -0.66913061440640931 0.74314481823134659 forward_v I I I I #
face $-1 $104 $105 $37 $-1 $106 forward single #
loop $-1 $107 $108 $48 #
cone-surface $-1 -28.104546231046893 -28.04981149365662 7.8190152271341731 0 0.66913061440640931 -0.74314481823134659 2 0 0 1 I I 0 1 2 forward I I I I #
face $-1 $109 $110 $38 $-1 $111 reversed single #
loop $-1 $-1 $112 $49 #
plane-surface $-1 -13.800565454034 -95.432623463093705 75.500753076400301 1 0 0 0 0.66913061440640931 -0.74314481823134659 forward_v I I I I #
face $-1 $113 $114 $39 $-1 $115 forward single #
loop $-1 $116 $117 $50 #
cone-surface $-1 -9.368182077015625 -28.04981149365662 7.8190152271341731 0 0.66913061440640931 -0.74314481823134659 2 0 0 1 I I 0 1 2 forward I I I I #
face $-1 $118 $119 $40 $-1 $120 reversed single #
loop $-1 $-1 $121 $51 #
plane-surface $-1 4.935798699997263 -95.432623463093705 75.500753076400301 1 0 0 0 0.66913061440640931 -0.74314481823134659 forward_v I I I I #
face $-1 $122 $123 $41 $-1 $124 forward single #
loop $-1 $125 $126 $52 #
cone-surface $-1 9.3681820770156392 -28.04981149365662 7.8190152271341731 0 0.66913061440640931 -0.74314481823134659 2 0 0 1 I I 0 1 2 forward I I I I #
face $-1 $127 $128 $42 $-1 $129 reversed single #
loop $-1 $-1 $130 $53 #
plane-surface $-1 23.672162854028528 -95.432623463093705 75.500753076400301 1 0 0 0 0.66913061440640931 -0.74314481823134659 forward_v I I I I #
face $-1 $131 $132 $43 $-1 $133 forward single #
loop $-1 $134 $135 $54 #
cone-surface $-1 28.104546231046903 -28.04981149365662 7.8190152271341731 0 0.66913061440640931 -0.74314481823134659 2 0 0 1 I I 0 1 2 forward I I I I #
face $-1 $136 $137 $33 $-1 $138 reversed single #
loop $-1 $-1 $139 $55 #
plane-surface $-1 0 0 -11.772745604739416 0 0 1 1 0 0 forward_v I I I I #
coedge $-1 $140 $141 $142 $143 forward $56 $-1 #
face $-1 $144 $145 $34 $-1 $146 reversed single #
loop $-1 $-1 $147 $58 #
plane-surface $-1 -39.862324479926066 -24.123433738301856 0 0 -1 0 0 0 -1 forward_v I I I I #
coedge $-1 $148 $149 $150 $151 reversed $59 $-1 #
face $-1 $152 $153 $35 $-1 $154 reversed single #
loop $-1 $-1 $155 $61 #
plane-surface $-1 32.536929608065272 -27.485889693716597 0 1 0 0 0 0 -1 forward_v I I I I #
coedge $-1 $156 $157 $158 $159 forward $62 $-1 #
face $-1 $160 $161 $36 $-1 $162 reversed single #
loop $-1 $-1 $163 $64 #
plane-surface $-1 -28.104546231046893 -32.283128178497002 5.3661348355294223 0 -0.66913061440640931 0.74314481823134659 1 0 0 forward_v I I I I #
coedge $-1 $164 $165 $166 $167 reversed $65 $-1 #
face $-1 $-1 $168 $37 $-1 $169 forward single #
loop $-1 $170 $171 $67 #
cone-surface $-1 -28.104546231046893 -26.704995165895944 6.325445415902589 0 0.66913061440640931 -0.74314481823134659 1 0 0 1 I I -0.70710678118654746 0.70710678118654746 1 forward I I I I #
loop $-1 $-1 $172 $48 #
coedge $-1 $108 $108 $173 $174 reversed $68 $-1 #
face $-1 $175 $176 $38 $-1 $177 reversed single #
loop $-1 $-1 $178 $70 #
plane-surface $-1 -9.368182077015625 -32.283128178497002 5.3661348355294223 0 -0.66913061440640931 0.74314481823134659 1 0 0 forward_v I I I I #
coedge $-1 $179 $180 $181 $182 reversed $71 $-1 #
face $-1 $-1 $183 $39 $-1 $184 forward single #
loop $-1 $185 $186 $73 #
cone-surface $-1 -9.368182077015625 -26.704995165895944 6.325445415902589 0 0.66913061440640931 -0.74314481823134659 1 0 0 1 I I -0.70710678118654746 0.70710678118654746 1 forward I I I I #
loop $-1 $-1 $187 $50 #
coedge $-1 $117 $117 $188 $189 reversed $74 $-1 #
face $-1 $190 $191 $40 $-1 $192 reversed single #
loop $-1 $-1 $193 $76 #
plane-surface $-1 9.3681820770156392 -32.283128178497002 5.3661348355294223 0 -0.66913061440640931 0.74314481823134659 1 0 0 forward_v I I I I #
coedge $-1 $194 $195 $196 $197 reversed $77 $-1 #
face $-1 $-1 $198 $41 $-1 $199 forward single #
loop $-1 $200 $201 $79 #
cone-surface $-1 9.3681820770156392 -26.704995165895944 6.325445415902589 0 0.66913061440640931 -0.74314481823134659 1 0 0 1 I I -0.70710678118654746 0.70710678118654746 1 forward I I I I #
loop $-1 $-1 $202 $52 #
coedge $-1 $126 $126 $203 $204 reversed $80 $-1 #
face $-1 $205 $206 $42 $-1 $207 forward single #
loop $-1 $-1 $208 $82 #
plane-surface $-1 28.104546231046903 -32.283128178497002 5.3661348355294223 0 -0.66913061440640931 0.74314481823134659 1 0 0 forward_v I I I I #
coedge $-1 $209 $210 $211 $212 reversed $83 $-1 #
face $-1 $-1 $213 $43 $-1 $214 forward single #
loop $-1 $215 $216 $85 #
cone-surface $-1 28.104546231046903 -26.704995165895944 6.325445415902589 0 0.66913061440640931 -0.74314481823134659 1 0 0 1 I I -0.70710678118654746 0.70710678118654746 1 forward I I I I #
loop $-1 $-1 $217 $54 #
coedge $-1 $135 $135 $218 $219 reversed $86 $-1 #
face $-1 $220 $221 $33 $-1 $222 reversed single #
loop $-1 $-1 $223 $88 #
plane-surface $-1 0 -32.283128178497009 0 0 1 0 0 0 1 forward_v I I I I #
coedge $-1 $224 $225 $226 $227 forward $89 $-1 #
coedge $-1 $228 $91 $229 $230 forward $56 $-1 #
coedge $-1 $91 $228 $231 $232 forward $56 $-1 #
coedge $-1 $233 $234 $91 $143 reversed $235 $-1 #
edge $-1 $236 -32.283128178497009 $237 32.283128178497009 $142 $238 forward 7 unknown #
face $-1 $239 $240 $34 $-1 $241 reversed single #
loop $-1 $-1 $242 $92 #
plane-surface $-1 -32.536929608065272 -27.485889693716597 0 -1 0 0 0 0 1 forward_v I I I I #
coedge $-1 $243 $244 $245 $246 forward $93 $-1 #
coedge $-1 $247 $95 $248 $249 reversed $59 $-1 #
coedge $-1 $95 $247 $250 $251 reversed $59 $-1 #
coedge $-1 $252 $253 $95 $151 forward $254 $-1 #
edge $-1 $255 -11.772745604739416 $256 11.772745604739416 $150 $257 forward 7 unknown #
face $-1 $258 $259 $35 $-1 $260 reversed single #
loop $-1 $-1 $261 $96 #
plane-surface $-1 39.862324479926066 -24.123433738301856 0 0 -1 0 0 0 -1 forward_v I I I I #
coedge $-1 $262 $263 $264 $265 forward $97 $-1 #
coedge $-1 $266 $99 $267 $268 reversed $62 $-1 #
coedge $-1 $99 $266 $269 $270 reversed $62 $-1 #
coedge $-1 $263 $262 $99 $159 reversed $97 $-1 #
edge $-1 $271 -11.772745604739416 $272 11.772745604739416 $158 $273 forward 7 unknown #
face $-1 $274 $275 $36 $-1 $276 forward single #
loop $-1 $-1 $277 $100 #
plane-surface $-1 0 -32.283128178497009 0 0 1 0 0 0 1 forward_v I I I I #
coedge $-1 $278 $279 $280 $281 reversed $101 $-1 #
coedge $-1 $165 $103 $282 $283 reversed $65 $-1 #
coedge $-1 $103 $164 $278 $284 reversed $65 $-1 #
coedge $-1 $280 $285 $103 $167 forward $275 $-1 #
edge $-1 $286 15.433183553049844 $287 22.548445496022079 $166 $288 forward 7 unknown #
loop $-1 $-1 $173 $104 #
plane-surface $-1 -28.104546231046893 -32.283128178497002 5.3661348355294223 0 -0.66913061440640931 0.74314481823134659 1 0 0 forward_v I I I I #
loop $-1 $-1 $289 $67 #
coedge $-1 $171 $171 $172 $290 reversed $105 $-1 #
coedge $-1 $172 $172 $171 $290 forward $107 $-1 #
coedge $-1 $173 $173 $108 $174 forward $168 $-1 #
edge $-1 $291 -4.6283173449926694e-016 $291 6.2831853071795996 $173 $292 forward 7 unknown #
face $-1 $293 $294 $38 $-1 $295 forward single #
loop $-1 $-1 $296 $109 #
plane-surface $-1 -4.9357986999972487 -95.432623463093705 75.500753076400301 -1 0 0 0 -0.66913061440640931 0.74314481823134659 forward_v I I I I #
coedge $-1 $297 $298 $299 $300 reversed $110 $-1 #
coedge $-1 $180 $112 $301 $302 reversed $71 $-1 #
coedge $-1 $112 $179 $297 $303 reversed $71 $-1 #
coedge $-1 $299 $304 $112 $182 forward $305 $-1 #
edge $-1 $306 25.977630933460734 $307 32.384241702670735 $181 $308 forward 7 unknown #
loop $-1 $-1 $188 $113 #
plane-surface $-1 -9.368182077015625 -32.283128178497002 5.3661348355294223 0 -0.66913061440640931 0.74314481823134659 1 0 0 forward_v I I I I #
loop $-1 $-1 $309 $73 #
coedge $-1 $186 $186 $187 $310 reversed $114 $-1 #
coedge $-1 $187 $187 $186 $310 forward $116 $-1 #
coedge $-1 $188 $188 $117 $189 forward $183 $-1 #
edge $-1 $311 -4.6283173449926694e-016 $311 6.2831853071795996 $188 $312 forward 7 unknown #
face $-1 $313 $314 $40 $-1 $315 reversed single #
loop $-1 $-1 $316 $118 #
plane-surface $-1 13.800565454034015 -95.432623463093705 75.500753076400301 -1 0 0 0 -0.66913061440640931 0.74314481823134659 forward_v I I I I #
coedge $-1 $317 $318 $319 $320 reversed $119 $-1 #
coedge $-1 $195 $121 $321 $322 reversed $77 $-1 #
coedge $-1 $121 $194 $317 $323 reversed $77 $-1 #
coedge $-1 $319 $324 $121 $197 forward $314 $-1 #
edge $-1 $325 25.977630933460734 $326 32.384241702670735 $196 $327 forward 7 unknown #
loop $-1 $-1 $203 $122 #
plane-surface $-1 9.3681820770156392 -32.283128178497002 5.3661348355294223 0 -0.66913061440640931 0.74314481823134659 1 0 0 forward_v I I I I #
loop $-1 $-1 $328 $79 #
coedge $-1 $201 $201 $202 $329 reversed $123 $-1 #
coedge $-1 $202 $202 $201 $329 forward $125 $-1 #
coedge $-1 $203 $203 $126 $204 forward $198 $-1 #
edge $-1 $330 -4.6283173449926694e-016 $330 6.2831853071795996 $203 $331 forward 7 unknown #
face $-1 $332 $333 $42 $-1 $334 forward single #
loop $-1 $-1 $335 $127 #
plane-surface $-1 0 0 11.772745604739416 0 0 1 1 0 0 forward_v I I I I #
coedge $-1 $336 $337 $338 $339 reversed $128 $-1 #
coedge $-1 $210 $130 $340 $341 reversed $83 $-1 #
coedge $-1 $130 $209 $336 $342 reversed $83 $-1 #
coedge $-1 $338 $343 $130 $212 forward $344 $-1 #
edge $-1 $345 25.977630933460734 $346 32.384241702670735 $211 $347 forward 7 unknown #
loop $-1 $-1 $218 $131 #
plane-surface $-1 28.104546231046903 -32.283128178497002 5.3661348355294223 0 -0.66913061440640931 0.74314481823134659 1 0 0 forward_v I I I I #
loop $-1 $-1 $348 $85 #
coedge $-1 $216 $216 $217 $349 reversed $132 $-1 #
coedge $-1 $217 $217 $216 $349 forward $134 $-1 #
coedge $-1 $218 $218 $135 $219 forward $213 $-1 #
edge $-1 $350 -4.6283173449926694e-016 $350 6.2831853071795996 $218 $351 forward 7 unknown #
face $-1 $352 $353 $33 $-1 $354 reversed single #
loop $-1 $-1 $355 $136 #
plane-surface $-1 -47.18771935178686 0 0 1 0 0 0 0 -1 forward_v I I I I #
coedge $-1 $356 $231 $357 $358 forward $137 $-1 #
coedge $-1 $359 $139 $356 $360 forward $89 $-1 #
coedge $-1 $139 $359 $361 $362 forward $89 $-1 #
coedge $-1 $234 $233 $139 $227 reversed $235 $-1 #
edge $-1 $363 -32.283128178497009 $364 32.283128178497009 $226 $365 forward 7 unknown #
coedge $-1 $141 $140 $366 $367 forward $56 $-1 #
coedge $-1 $368 $369 $140 $230 reversed $353 $-1 #
edge $-1 $237 -47.18771935178686 $370 47.18771935178686 $229 $371 forward 7 unknown #
coedge $-1 $223 $372 $141 $232 reversed $137 $-1 #
edge $-1 $373 -47.18771935178686 $236 47.18771935178686 $231 $374 forward 7 unknown #
coedge $-1 $226 $142 $372 $375 forward $235 $-1 #
coedge $-1 $142 $226 $368 $376 reversed $235 $-1 #
loop $-1 $-1 $233 $352 #
vertex $-1 $143 $377 #
vertex $-1 $143 $378 #
straight-curve $-1 47.18771935178686 0 11.772745604739416 0 1 0 I I #
face $-1 $379 $380 $34 $-1 $381 forward single #
loop $-1 $-1 $382 $144 #
plane-surface $-1 0 0 -11.772745604739416 0 0 1 1 0 0 forward_v I I I I #
coedge $-1 $383 $384 $247 $385 forward $145 $-1 #
coedge $-1 $386 $147 $382 $387 reversed $93 $-1 #
coedge $-1 $147 $386 $388 $389 reversed $93 $-1 #
coedge $-1 $384 $383 $147 $246 reversed $145 $-1 #
edge $-1 $390 -11.772745604739416 $391 11.772745604739416 $245 $392 forward 7 unknown #
coedge $-1 $149 $148 $242 $385 reversed $59 $-1 #
coedge $-1 $393 $394 $148 $249 forward $240 $-1 #
edge $-1 $395 12.605767368102239 $255 27.256557111823827 $248 $396 forward 7 unknown #
coedge $-1 $397 $398 $149 $251 forward $380 $-1 #
edge $-1 $256 -27.256557111823827 $399 -12.605767368102239 $250 $400 forward 7 unknown #
coedge $-1 $401 $150 $398 $402 reversed $254 $-1 #
coedge $-1 $150 $401 $393 $403 reversed $254 $-1 #
loop $-1 $-1 $401 $379 #
vertex $-1 $403 $404 #
vertex $-1 $151 $405 #
straight-curve $-1 -47.18771935178686 -30.848345649131339 0 0 0 1 I I #
face $-1 $406 $407 $35 $-1 $408 forward single #
loop $-1 $-1 $267 $152 #
plane-surface $-1 0 0 -11.772745604739416 0 0 1 1 0 0 forward_v I I I I #
coedge $-1 $409 $410 $411 $412 reversed $153 $-1 #
coedge $-1 $158 $155 $413 $414 reversed $97 $-1 #
coedge $-1 $155 $158 $415 $416 reversed $97 $-1 #
coedge $-1 $410 $409 $155 $265 reversed $153 $-1 #
edge $-1 $417 -11.772745604739416 $418 11.772745604739416 $264 $419 forward 7 unknown #
coedge $-1 $157 $156 $420 $421 reversed $62 $-1 #
coedge $-1 $413 $422 $156 $268 forward $259 $-1 #
edge $-1 $423 -27.256557111823827 $272 -12.605767368102239 $267 $424 forward 7 unknown #
coedge $-1 $425 $415 $157 $270 forward $407 $-1 #
edge $-1 $271 12.605767368102239 $426 27.256557111823827 $269 $427 forward 7 unknown #
vertex $-1 $270 $428 #
vertex $-1 $268 $429 #
straight-curve $-1 32.536929608065272 -30.848345649131339 0 0 0 -1 I I #
face $-1 $-1 $430 $36 $-1 $431 forward single #
loop $-1 $-1 $432 $160 #
plane-surface $-1 0 0 11.772745604739416 0 0 1 1 0 0 forward_v I I I I #
coedge $-1 $433 $434 $435 $436 forward $161 $-1 #
coedge $-1 $437 $163 $165 $284 forward $101 $-1 #
coedge $-1 $163 $437 $438 $439 reversed $101 $-1 #
coedge $-1 $432 $166 $163 $281 forward $275 $-1 #
edge $-1 $287 9.619889738505071 $440 18.484656492541824 $280 $441 forward 7 unknown #
coedge $-1 $434 $433 $164 $283 forward $161 $-1 #
edge $-1 $442 -32.384241702670735 $286 -25.977630933460734 $282 $443 forward 7 unknown #
edge $-1 $287 -9.5745294435427155 $442 9.4405131238556439e-015 $165 $444 forward 7 unknown #
coedge $-1 $166 $432 $434 $445 forward $275 $-1 #
vertex $-1 $167 $446 #
vertex $-1 $167 $447 #
straight-curve $-1 -23.672162854028517 -47.716311731546853 11.772745604739416 0 1 0 I I #
coedge $-1 $289 $289 $-1 $448 reversed $170 $-1 #
edge $-1 $449 0 $449 6.2831853071796004 $171 $450 forward 7 unknown #
vertex $-1 $174 $451 #
ellipse-curve $-1 -28.104546231046893 -28.725497207010893 8.5694402201344158 0 -0.66913061440640931 0.74314481823134659 2 0 0 1 I I #
face $-1 $-1 $305 $38 $-1 $452 reversed single #
loop $-1 $-1 $453 $175 #
plane-surface $-1 0 0 11.772745604739416 0 0 1 1 0 0 forward_v I I I I #
coedge $-1 $454 $455 $456 $457 reversed $176 $-1 #
coedge $-1 $458 $178 $180 $303 forward $110 $-1 #
coedge $-1 $178 $458 $454 $459 forward $110 $-1 #
coedge $-1 $456 $181 $178 $300 forward $305 $-1 #
edge $-1 $307 -9.1164744155261879 $460 -0.25170766148943624 $299 $461 forward 7 unknown #
coedge $-1 $462 $463 $179 $302 forward $294 $-1 #
edge $-1 $464 -22.548445496022079 $306 -15.433183553049844 $301 $465 forward 7 unknown #
edge $-1 $307 -9.4405131238556439e-015 $464 9.5745294435427155 $180 $466 forward 7 unknown #
coedge $-1 $181 $456 $462 $467 reversed $305 $-1 #
loop $-1 $-1 $456 $293 #
vertex $-1 $467 $468 #
vertex $-1 $182 $469 #
straight-curve $-1 -13.800565454034 -32.283128178497009 37.75037653820015 0 0 -1 I I #
coedge $-1 $309 $309 $-1 $470 reversed $185 $-1 #
edge $-1 $471 0 $471 6.2831853071796004 $186 $472 forward 7 unknown #
vertex $-1 $189 $473 #
ellipse-curve $-1 -9.368182077015625 -28.725497207010893 8.5694402201344158 0 -0.66913061440640931 0.74314481823134659 2 0 0 1 I I #
face $-1 $-1 $474 $40 $-1 $475 forward single #
loop $-1 $-1 $196 $190 #
plane-surface $-1 0 -32.283128178497009 0 0 1 0 0 0 1 forward_v I I I I #
coedge $-1 $476 $477 $478 $479 reversed $191 $-1 #
coedge $-1 $480 $193 $195 $323 forward $119 $-1 #
coedge $-1 $193 $480 $476 $481 forward $119 $-1 #
coedge $-1 $478 $196 $193 $320 forward $314 $-1 #
edge $-1 $326 0.25170766148944335 $482 9.116474415526195 $319 $483 forward 7 unknown #
coedge $-1 $484 $485 $194 $322 forward $474 $-1 #
edge $-1 $486 -22.548445496022079 $325 -15.433183553049844 $321 $487 forward 7 unknown #
edge $-1 $326 -9.4405131238556439e-015 $486 9.5745294435427155 $195 $488 forward 7 unknown #
coedge $-1 $196 $478 $484 $489 reversed $314 $-1 #
vertex $-1 $489 $490 #
vertex $-1 $197 $491 #
straight-curve $-1 4.935798699997263 -32.283128178497009 37.75037653820015 0 0 -1 I I #
coedge $-1 $328 $328 $-1 $492 reversed $200 $-1 #
edge $-1 $493 0 $493 6.2831853071796004 $201 $494 forward 7 unknown #
vertex $-1 $204 $495 #
ellipse-curve $-1 9.3681820770156392 -28.725497207010893 8.5694402201344158 0 -0.66913061440640931 0.74314481823134659 2 0 0 1 I I #
face $-1 $-1 $344 $42 $-1 $496 reversed single #
loop $-1 $-1 $497 $205 #
plane-surface $-1 32.536929608065272 -27.485889693716597 0 1 0 0 0 0 -1 forward_v I I I I #
coedge $-1 $498 $499 $500 $501 forward $206 $-1 #
coedge $-1 $502 $208 $210 $342 forward $128 $-1 #
coedge $-1 $208 $502 $497 $503 reversed $128 $-1 #
coedge $-1 $504 $211 $208 $339 forward $344 $-1 #
edge $-1 $346 9.6198897385050763 $505 18.484656492541827 $338 $506 forward 7 unknown #
coedge $-1 $499 $498 $209 $341 forward $206 $-1 #
edge $-1 $507 -22.548445496022079 $345 -15.433183553049844 $340 $508 forward 7 unknown #
edge $-1 $346 -9.4405131238556439e-015 $507 9.5745294435427155 $210 $509 forward 7 unknown #
coedge $-1 $211 $504 $499 $510 reversed $344 $-1 #
loop $-1 $-1 $504 $332 #
vertex $-1 $510 $511 #
vertex $-1 $212 $512 #
straight-curve $-1 23.672162854028528 -32.283128178497009 37.75037653820015 0 0 -1 I I #
coedge $-1 $348 $348 $-1 $513 reversed $215 $-1 #
edge $-1 $514 0 $514 6.2831853071796004 $216 $515 forward 7 unknown #
vertex $-1 $219 $516 #
ellipse-curve $-1 28.104546231046903 -28.725497207010893 8.5694402201344158 0 -0.66913061440640931 0.74314481823134659 2 0 0 1 I I #
face $-1 $-1 $235 $33 $-1 $517 reversed single #
loop $-1 $-1 $368 $220 #
plane-surface $-1 0 32.283128178497009 0 0 -1 0 0 0 -1 forward_v I I I I #
coedge $-1 $518 $366 $369 $519 forward $221 $-1 #
coedge $-1 $372 $223 $224 $360 reversed $137 $-1 #
coedge $-1 $366 $518 $223 $358 reversed $221 $-1 #
edge $-1 $373 -11.772745604739416 $520 11.772745604739416 $357 $521 forward 7 unknown #
coedge $-1 $225 $224 $518 $522 forward $89 $-1 #
edge $-1 $364 -47.18771935178686 $520 47.18771935178686 $356 $523 forward 7 unknown #
coedge $-1 $369 $368 $225 $362 reversed $353 $-1 #
edge $-1 $524 -47.18771935178686 $363 47.18771935178686 $361 $525 forward 7 unknown #
vertex $-1 $227 $526 #
vertex $-1 $375 $527 #
straight-curve $-1 47.18771935178686 0 -11.772745604739416 0 -1 0 I I #
coedge $-1 $355 $357 $228 $367 reversed $221 $-1 #
edge $-1 $370 -32.283128178497009 $373 32.283128178497009 $366 $528 forward 7 unknown #
coedge $-1 $361 $229 $234 $376 forward $353 $-1 #
coedge $-1 $229 $361 $355 $519 reversed $353 $-1 #
vertex $-1 $230 $529 #
straight-curve $-1 0 32.283128178497009 11.772745604739416 -1 0 0 I I #
coedge $-1 $231 $356 $233 $375 reversed $137 $-1 #
vertex $-1 $367 $530 #
straight-curve $-1 0 -32.283128178497009 11.772745604739416 1 0 0 I I #
edge $-1 $236 -11.772745604739416 $364 11.772745604739416 $233 $531 forward 7 unknown #
edge $-1 $237 -11.772745604739416 $363 11.772745604739416 $234 $532 forward 7 unknown #
point $-1 47.18771935178686 -32.283128178497009 11.772745604739416 #
point $-1 47.18771935178686 32.283128178497009 11.772745604739416 #
face $-1 $-1 $254 $34 $-1 $533 reversed single #
loop $-1 $-1 $388 $239 #
plane-surface $-1 0 0 11.772745604739416 0 0 1 1 0 0 forward_v I I I I #
coedge $-1 $394 $393 $243 $387 forward $240 $-1 #
coedge $-1 $245 $242 $394 $534 reversed $145 $-1 #
coedge $-1 $242 $245 $397 $535 reversed $145 $-1 #
edge $-1 $399 -11.772745604739416 $395 11.772745604739416 $242 $536 forward 7 unknown #
coedge $-1 $244 $243 $401 $537 reversed $93 $-1 #
edge $-1 $538 -27.256557111823827 $391 -12.605767368102239 $382 $539 forward 7 unknown #
coedge $-1 $398 $397 $244 $389 forward $380 $-1 #
edge $-1 $390 12.605767368102239 $540 27.256557111823827 $388 $541 forward 7 unknown #
vertex $-1 $389 $542 #
vertex $-1 $387 $543 #
straight-curve $-1 -32.536929608065272 -24.123433738301856 0 0 0 -1 I I #
coedge $-1 $382 $248 $253 $403 forward $240 $-1 #
coedge $-1 $248 $382 $383 $534 forward $240 $-1 #
vertex $-1 $249 $544 #
straight-curve $-1 -19.931162239963033 -30.848345649131339 -11.772745604739416 -1 0 0 I I #
coedge $-1 $388 $250 $384 $535 forward $380 $-1 #
coedge $-1 $250 $388 $252 $402 forward $380 $-1 #
vertex $-1 $251 $545 #
straight-curve $-1 -19.931162239963033 -30.848345649131339 11.772745604739416 1 0 0 I I #
coedge $-1 $253 $252 $386 $537 forward $254 $-1 #
edge $-1 $540 24.123433738301856 $256 30.848345649131339 $252 $546 forward 7 unknown #
edge $-1 $255 -30.848345649131339 $538 -24.123433738301856 $253 $547 forward 7 unknown #
point $-1 -47.18771935178686 -30.848345649131339 -11.772745604739416 #
point $-1 -47.18771935178686 -30.848345649131339 11.772745604739416 #
face $-1 $-1 $548 $35 $-1 $549 reversed single #
loop $-1 $-1 $269 $258 #
plane-surface $-1 0 0 11.772745604739416 0 0 1 1 0 0 forward_v I I I I #
coedge $-1 $264 $261 $550 $551 reversed $153 $-1 #
coedge $-1 $261 $264 $552 $553 reversed $153 $-1 #
coedge $-1 $554 $555 $261 $412 forward $548 $-1 #
edge $-1 $556 -11.772745604739416 $557 11.772745604739416 $411 $558 forward 7 unknown #
coedge $-1 $550 $267 $262 $414 forward $259 $-1 #
edge $-1 $272 -17.105400802273039 $418 -10.380488891443557 $413 $559 forward 7 unknown #
coedge $-1 $269 $552 $263 $416 forward $407 $-1 #
edge $-1 $417 10.380488891443557 $271 17.105400802273039 $415 $560 forward 7 unknown #
vertex $-1 $416 $561 #
vertex $-1 $414 $562 #
straight-curve $-1 32.536929608065272 -24.123433738301856 0 0 0 -1 I I #
coedge $-1 $555 $554 $266 $421 forward $548 $-1 #
edge $-1 $426 -11.772745604739416 $423 11.772745604739416 $420 $563 forward 7 unknown #
coedge $-1 $267 $550 $555 $564 forward $259 $-1 #
vertex $-1 $421 $565 #
straight-curve $-1 19.931162239963033 -30.848345649131339 -11.772745604739416 -1 0 0 I I #
coedge $-1 $552 $269 $554 $566 forward $407 $-1 #
vertex $-1 $566 $567 #
straight-curve $-1 19.931162239963033 -30.848345649131339 11.772745604739416 1 0 0 I I #
point $-1 32.536929608065272 -30.848345649131339 11.772745604739416 #
point $-1 32.536929608065272 -30.848345649131339 -11.772745604739416 #
loop $-1 $-1 $438 $274 #
plane-surface $-1 -32.536929608065272 -27.485889693716597 0 -1 0 0 0 0 1 forward_v I I I I #
coedge $-1 $285 $280 $568 $569 forward $275 $-1 #
coedge $-1 $282 $277 $437 $570 forward $161 $-1 #
coedge $-1 $277 $282 $285 $445 reversed $161 $-1 #
coedge $-1 $568 $438 $277 $436 reversed $430 $-1 #
edge $-1 $571 25.977630933460734 $572 32.384241702670735 $277 $573 forward 7 unknown #
coedge $-1 $279 $278 $433 $570 reversed $101 $-1 #
coedge $-1 $435 $568 $279 $439 forward $430 $-1 #
edge $-1 $440 -9.5873305323931568 $572 -0.012801088850429812 $438 $574 forward 7 unknown #
vertex $-1 $569 $575 #
straight-curve $-1 -14.052273115523446 -25.167866235524773 11.772745604739416 -1 0 0 I I #
vertex $-1 $283 $576 #
straight-curve $-1 -23.672162854028517 -32.283128178497009 37.75037653820015 0 0 1 I I #
straight-curve $-1 -23.672162854028517 -32.283128178497002 5.3661348355294223 0 -0.74314481823134659 -0.66913061440640931 I I #
edge $-1 $571 -32.536929608065272 $286 -23.672162854028517 $434 $577 forward 7 unknown #
point $-1 -23.672162854028517 -32.283128178497009 11.772745604739416 #
point $-1 -23.672162854028517 -25.167866235524773 11.772745604739416 #
edge $-1 $578 1 $578 0 $289 $-1 forward 7 unknown #
vertex $-1 $290 $579 #
ellipse-curve $-1 -28.104546231046893 -27.374125780302354 7.0685902341339357 0 -0.66913061440640931 0.74314481823134659 2 0 0 1 I I #
point $-1 -26.104546231046893 -28.725497207010889 8.5694402201344104 #
plane-surface $-1 0 -32.283128178497009 0 0 1 0 0 0 1 forward_v I I I I #
coedge $-1 $463 $462 $455 $580 forward $294 $-1 #
coedge $-1 $455 $296 $298 $459 reversed $176 $-1 #
coedge $-1 $296 $454 $453 $580 reversed $176 $-1 #
coedge $-1 $304 $299 $296 $457 forward $305 $-1 #
edge $-1 $460 -32.384241702670735 $581 -25.977630933460734 $456 $582 forward 7 unknown #
coedge $-1 $298 $297 $463 $583 reversed $110 $-1 #
edge $-1 $584 -9.5745294435427155 $460 9.4405131238556439e-015 $454 $585 forward 7 unknown #
vertex $-1 $300 $586 #
straight-curve $-1 -4.6840910385078125 -32.283128178497009 5.3661348355294223 1 0 0 I I #
coedge $-1 $453 $301 $304 $467 forward $294 $-1 #
coedge $-1 $301 $453 $458 $583 forward $294 $-1 #
vertex $-1 $302 $587 #
straight-curve $-1 -13.800565454034 -47.716311731546853 11.772745604739416 0 -1 0 I I #
straight-curve $-1 -13.800565454034 -32.283128178497002 5.3661348355294223 0 0.74314481823134659 0.66913061440640931 I I #
edge $-1 $306 -13.800565454034 $581 -4.9357986999972487 $304 $588 forward 7 unknown #
point $-1 -13.800565454034 -32.283128178497009 11.772745604739416 #
point $-1 -13.800565454034 -32.283128178497009 5.3661348355294161 #
edge $-1 $589 1 $589 0 $309 $-1 forward 7 unknown #
vertex $-1 $310 $590 #
ellipse-curve $-1 -9.368182077015625 -27.374125780302354 7.0685902341339357 0 -0.66913061440640931 0.74314481823134659 2 0 0 1 I I #
point $-1 -7.368182077015625 -28.725497207010889 8.5694402201344104 #
loop $-1 $-1 $321 $313 #
plane-surface $-1 0 0 11.772745604739416 0 0 1 1 0 0 forward_v I I I I #
coedge $-1 $477 $316 $318 $481 reversed $191 $-1 #
coedge $-1 $316 $476 $591 $592 reversed $191 $-1 #
coedge $-1 $324 $319 $316 $479 forward $314 $-1 #
edge $-1 $482 -32.384241702670735 $593 -25.977630933460734 $478 $594 forward 7 unknown #
coedge $-1 $318 $317 $485 $595 reversed $119 $-1 #
edge $-1 $596 -9.5745294435427155 $482 9.4405131238556439e-015 $476 $597 forward 7 unknown #
vertex $-1 $320 $598 #
straight-curve $-1 4.6840910385078196 -32.283128178497009 5.3661348355294223 1 0 0 I I #
coedge $-1 $591 $321 $324 $489 forward $474 $-1 #
coedge $-1 $321 $591 $480 $595 forward $474 $-1 #
vertex $-1 $322 $599 #
straight-curve $-1 4.935798699997263 -47.716311731546853 11.772745604739416 0 -1 0 I I #
straight-curve $-1 4.935798699997263 -32.283128178497002 5.3661348355294223 0 0.74314481823134659 0.66913061440640931 I I #
edge $-1 $325 4.935798699997263 $593 13.800565454034015 $324 $600 forward 7 unknown #
point $-1 4.935798699997263 -32.283128178497009 11.772745604739416 #
point $-1 4.935798699997263 -32.283128178497009 5.3661348355294161 #
edge $-1 $601 1 $601 0 $328 $-1 forward 7 unknown #
vertex $-1 $329 $602 #
ellipse-curve $-1 9.3681820770156392 -27.374125780302354 7.0685902341339357 0 -0.66913061440640931 0.74314481823134659 2 0 0 1 I I #
point $-1 11.368182077015639 -28.725497207010889 8.5694402201344104 #
plane-surface $-1 0 -32.283128178497009 0 0 1 0 0 0 1 forward_v I I I I #
coedge $-1 $500 $603 $337 $503 forward $333 $-1 #
coedge $-1 $340 $335 $502 $604 forward $206 $-1 #
coedge $-1 $335 $340 $343 $510 forward $206 $-1 #
coedge $-1 $603 $497 $335 $501 reversed $333 $-1 #
edge $-1 $605 15.433183553049844 $606 22.548445496022083 $335 $607 forward 7 unknown #
coedge $-1 $337 $336 $498 $604 reversed $128 $-1 #
edge $-1 $505 0.012801088850429812 $606 9.5873305323931586 $497 $608 forward 7 unknown #
coedge $-1 $343 $338 $603 $609 forward $344 $-1 #
vertex $-1 $339 $610 #
straight-curve $-1 14.052273115523452 -32.283128178497009 5.3661348355294223 1 0 0 I I #
vertex $-1 $341 $611 #
straight-curve $-1 23.672162854028528 -47.716311731546853 11.772745604739416 0 -1 0 I I #
straight-curve $-1 23.672162854028528 -32.283128178497002 5.3661348355294223 0 0.74314481823134659 0.66913061440640931 I I #
edge $-1 $345 23.672162854028528 $605 32.536929608065279 $343 $612 forward 7 unknown #
point $-1 23.672162854028528 -32.283128178497009 11.772745604739416 #
point $-1 23.672162854028528 -32.283128178497009 5.3661348355294161 #
edge $-1 $613 1 $613 0 $348 $-1 forward 7 unknown #
vertex $-1 $349 $614 #
ellipse-curve $-1 28.104546231046903 -27.374125780302354 7.0685902341339357 0 -0.66913061440640931 0.74314481823134659 2 0 0 1 I I #
point $-1 30.104546231046903 -28.725497207010889 8.5694402201344104 #
plane-surface $-1 47.18771935178686 0 0 -1 0 0 0 0 1 forward_v I I I I #
coedge $-1 $357 $355 $359 $522 reversed $221 $-1 #
edge $-1 $370 -11.772745604739416 $524 11.772745604739416 $369 $615 forward 7 unknown #
vertex $-1 $522 $616 #
straight-curve $-1 -47.18771935178686 -32.283128178497009 0 0 0 -1 I I #
edge $-1 $520 -32.283128178497009 $524 32.283128178497009 $518 $617 forward 7 unknown #
straight-curve $-1 0 -32.283128178497009 -11.772745604739416 -1 0 0 I I #
vertex $-1 $362 $618 #
straight-curve $-1 0 32.283128178497009 -11.772745604739416 1 0 0 I I #
point $-1 47.18771935178686 32.283128178497009 -11.772745604739416 #
point $-1 47.18771935178686 -32.283128178497009 -11.772745604739416 #
straight-curve $-1 -47.18771935178686 0 11.772745604739416 0 -1 0 I I #
point $-1 -47.18771935178686 32.283128178497009 11.772745604739416 #
point $-1 -47.18771935178686 -32.283128178497009 11.772745604739416 #
straight-curve $-1 47.18771935178686 -32.283128178497009 0 0 0 -1 I I #
straight-curve $-1 47.18771935178686 32.283128178497009 0 0 0 -1 I I #
plane-surface $-1 -47.18771935178686 0 0 1 0 0 0 0 -1 forward_v I I I I #
edge $-1 $391 10.380488891443557 $395 17.105400802273039 $394 $619 forward 7 unknown #
edge $-1 $399 -17.105400802273039 $390 -10.380488891443557 $397 $620 forward 7 unknown #
straight-curve $-1 -32.536929608065272 -30.848345649131339 0 0 0 -1 I I #
edge $-1 $540 -11.772745604739416 $538 11.772745604739416 $401 $621 forward 7 unknown #
vertex $-1 $537 $622 #
straight-curve $-1 -19.931162239963033 -24.123433738301856 -11.772745604739416 1 0 0 I I #
vertex $-1 $402 $623 #
straight-curve $-1 -19.931162239963033 -24.123433738301856 11.772745604739416 -1 0 0 I I #
point $-1 -32.536929608065272 -24.123433738301856 11.772745604739416 #
point $-1 -32.536929608065272 -24.123433738301856 -11.772745604739416 #
point $-1 -32.536929608065272 -30.848345649131339 -11.772745604739416 #
point $-1 -32.536929608065272 -30.848345649131339 11.772745604739416 #
straight-curve $-1 -47.18771935178686 0 11.772745604739416 0 -1 0 I I #
straight-curve $-1 -47.18771935178686 0 -11.772745604739416 0 1 0 I I #
loop $-1 $-1 $420 $406 #
plane-surface $-1 47.18771935178686 0 0 -1 0 0 0 0 1 forward_v I I I I #
coedge $-1 $422 $413 $409 $551 forward $259 $-1 #
edge $-1 $418 12.605767368102239 $556 27.256557111823827 $550 $624 forward 7 unknown #
coedge $-1 $415 $425 $410 $553 forward $407 $-1 #
edge $-1 $557 -27.256557111823827 $417 -12.605767368102239 $552 $625 forward 7 unknown #
coedge $-1 $420 $411 $425 $566 reversed $548 $-1 #
coedge $-1 $411 $420 $422 $564 reversed $548 $-1 #
vertex $-1 $564 $626 #
vertex $-1 $412 $627 #
straight-curve $-1 47.18771935178686 -24.123433738301856 0 0 0 1 I I #
straight-curve $-1 32.536929608065272 -13.742944846858299 -11.772745604739416 0 1 0 I I #
straight-curve $-1 32.536929608065272 -13.742944846858299 11.772745604739416 0 -1 0 I I #
point $-1 32.536929608065272 -24.123433738301856 11.772745604739416 #
point $-1 32.536929608065272 -24.123433738301856 -11.772745604739416 #
straight-curve $-1 47.18771935178686 -30.848345649131339 0 0 0 -1 I I #
edge $-1 $556 24.123433738301856 $423 30.848345649131339 $555 $628 forward 7 unknown #
point $-1 47.18771935178686 -30.848345649131339 -11.772745604739416 #
edge $-1 $426 -30.848345649131339 $557 -24.123433738301856 $554 $629 forward 7 unknown #
point $-1 47.18771935178686 -30.848345649131339 11.772745604739416 #
coedge $-1 $438 $435 $432 $569 reversed $430 $-1 #
edge $-1 $440 -22.548445496022079 $571 -15.433183553049844 $432 $630 forward 7 unknown #
edge $-1 $572 -18.484656492541824 $442 -9.619889738505071 $433 $631 forward 7 unknown #
vertex $-1 $445 $632 #
vertex $-1 $436 $633 #
straight-curve $-1 -32.536929608065272 -32.283128178497009 37.75037653820015 0 0 -1 I I #
straight-curve $-1 -32.536929608065272 -32.292641241343922 5.3575692350818542 0 -0.74314481823134659 -0.66913061440640931 I I #
point $-1 -32.536929608065272 -25.167866235524773 11.772745604739416 #
point $-1 -23.672162854028517 -32.283128178497009 5.3661348355294161 #
straight-curve $-1 0 -32.283128178497009 11.772745604739416 1 0 0 I I #
vertex $-1 $448 $634 #
point $-1 -26.104546231046893 -27.374125780302354 7.0685902341339357 #
edge $-1 $581 15.433183553049844 $584 22.548445496022079 $453 $635 forward 7 unknown #
vertex $-1 $457 $636 #
straight-curve $-1 -4.9357986999972487 -32.283128178497009 37.75037653820015 0 0 1 I I #
edge $-1 $584 0.25170766148943624 $464 9.1164744155261879 $463 $637 forward 7 unknown #
vertex $-1 $583 $638 #
straight-curve $-1 -4.9357986999972487 -32.283128178497002 5.3661348355294223 0 -0.74314481823134659 -0.66913061440640931 I I #
point $-1 -4.9357986999972487 -32.283128178497009 5.3661348355294161 #
point $-1 -13.800565454034 -25.167866235524773 11.772745604739416 #
straight-curve $-1 0 -32.283128178497009 11.772745604739416 1 0 0 I I #
vertex $-1 $470 $639 #
point $-1 -7.368182077015625 -27.374125780302354 7.0685902341339357 #
coedge $-1 $485 $484 $477 $592 forward $474 $-1 #
edge $-1 $593 15.433183553049844 $596 22.548445496022079 $591 $640 forward 7 unknown #
vertex $-1 $592 $641 #
straight-curve $-1 13.800565454034015 -32.283128178497009 37.75037653820015 0 0 1 I I #
edge $-1 $596 -9.116474415526195 $486 -0.25170766148944335 $485 $642 forward 7 unknown #
vertex $-1 $595 $643 #
straight-curve $-1 13.800565454034015 -32.283128178497002 5.3661348355294223 0 -0.74314481823134659 -0.66913061440640931 I I #
point $-1 13.800565454034015 -32.283128178497009 5.3661348355294161 #
point $-1 4.935798699997263 -25.167866235524773 11.772745604739416 #
straight-curve $-1 0 -32.283128178497009 11.772745604739416 1 0 0 I I #
vertex $-1 $492 $644 #
point $-1 11.368182077015639 -27.374125780302354 7.0685902341339357 #
coedge $-1 $497 $500 $504 $609 reversed $333 $-1 #
edge $-1 $606 -18.48465649254182 $507 -9.6198897385050763 $498 $645 forward 7 unknown #
vertex $-1 $501 $646 #
vertex $-1 $503 $647 #
straight-curve $-1 32.536929608065279 -47.716311731546853 11.772745604739416 0 1 0 I I #
straight-curve $-1 32.536929608065272 -32.292641241343922 5.3575692350818542 0 0.74314481823134659 0.66913061440640931 I I #
edge $-1 $505 -32.384241702670735 $605 -25.977630933460734 $504 $648 forward 7 unknown #
point $-1 32.536929608065279 -32.283128178497009 5.3661348355294161 #
point $-1 23.672162854028528 -25.167866235524773 11.772745604739416 #
straight-curve $-1 0 -32.283128178497009 11.772745604739416 1 0 0 I I #
vertex $-1 $513 $649 #
point $-1 30.104546231046903 -27.374125780302354 7.0685902341339357 #
straight-curve $-1 -47.18771935178686 32.283128178497009 0 0 0 -1 I I #
point $-1 -47.18771935178686 -32.283128178497009 -11.772745604739416 #
straight-curve $-1 -47.18771935178686 0 -11.772745604739416 0 1 0 I I #
point $-1 -47.18771935178686 32.283128178497009 -11.772745604739416 #
straight-curve $-1 -32.536929608065272 -13.742944846858299 -11.772745604739416 0 -1 0 I I #
straight-curve $-1 -32.536929608065272 -13.742944846858299 11.772745604739416 0 1 0 I I #
straight-curve $-1 -47.18771935178686 -24.123433738301856 0 0 0 -1 I I #
point $-1 -47.18771935178686 -24.123433738301856 -11.772745604739416 #
point $-1 -47.18771935178686 -24.123433738301856 11.772745604739416 #
straight-curve $-1 19.931162239963033 -24.123433738301856 -11.772745604739416 1 0 0 I I #
straight-curve $-1 19.931162239963033 -24.123433738301856 11.772745604739416 -1 0 0 I I #
point $-1 47.18771935178686 -24.123433738301856 -11.772745604739416 #
point $-1 47.18771935178686 -24.123433738301856 11.772745604739416 #
straight-curve $-1 47.18771935178686 0 -11.772745604739416 0 -1 0 I I #
straight-curve $-1 47.18771935178686 0 11.772745604739416 0 1 0 I I #
straight-curve $-1 -32.536929608065272 -47.716311731546853 11.772745604739416 0 -1 0 I I #
straight-curve $-1 -14.052273115523446 -32.283128178497009 5.3661348355294223 1 0 0 I I #
point $-1 -32.536929608065272 -32.283128178497009 11.772745604739416 #
point $-1 -32.536929608065272 -32.283128178497009 5.3661348355294161 #
point $-1 -28.104546231046893 -26.035864551489535 5.5823005976712423 #
straight-curve $-1 -4.9357986999972487 -47.716311731546853 11.772745604739416 0 1 0 I I #
point $-1 -4.9357986999972487 -32.283128178497009 11.772745604739416 #
straight-curve $-1 -4.6840910385078125 -25.167866235524773 11.772745604739416 -1 0 0 I I #
point $-1 -4.9357986999972487 -25.167866235524773 11.772745604739416 #
point $-1 -9.368182077015625 -26.035864551489535 5.5823005976712423 #
straight-curve $-1 13.800565454034015 -47.716311731546853 11.772745604739416 0 1 0 I I #
point $-1 13.800565454034015 -32.283128178497009 11.772745604739416 #
straight-curve $-1 4.6840910385078196 -25.167866235524773 11.772745604739416 -1 0 0 I I #
point $-1 13.800565454034015 -25.167866235524773 11.772745604739416 #
point $-1 9.3681820770156392 -26.035864551489535 5.5823005976712423 #
straight-curve $-1 14.052273115523452 -25.167866235524773 11.772745604739416 -1 0 0 I I #
point $-1 32.536929608065279 -32.283128178497009 11.772745604739416 #
point $-1 32.536929608065272 -25.16786623552477 11.772745604739416 #
straight-curve $-1 32.536929608065279 -32.283128178497009 37.75037653820015 0 0 1 I I #
point $-1 28.104546231046903 -26.035864551489535 5.5823005976712423 #
End-of-ACIS-data 