500 0 9 0           
7 Unknown 11 ACIS 5.0 NT 24 Thu Mar 25 15:31:27 1999 
-1 9.9999999999999995e-007 1e-010 
body $-1 $9 $-1 $10 #
body $-1 $11 $-1 $12 #
body $-1 $13 $-1 $14 #
body $-1 $15 $-1 $16 #
body $-1 $17 $-1 $18 #
body $-1 $19 $-1 $20 #
body $-1 $21 $-1 $22 #
body $-1 $23 $-1 $24 #
body $-1 $25 $-1 $26 #
lump $-1 $-1 $27 $0 #
transform $-1 1 0 0 0 1 0 0 0 1 57.600634784997098 32.68682648537095 15.52342449269387 1 rotate no_reflect no_shear #
lump $-1 $-1 $28 $1 #
transform $-1 1 0 0 0 1 0 0 0 1 57.600634784997098 32.68682648537095 15.52342449269387 1 rotate no_reflect no_shear #
lump $-1 $-1 $29 $2 #
transform $-1 1 0 0 0 1 0 0 0 1 57.600634784997098 32.68682648537095 15.52342449269387 1 rotate no_reflect no_shear #
lump $-1 $-1 $30 $3 #
transform $-1 1 0 0 0 1 0 0 0 1 57.600634784997098 32.68682648537095 15.52342449269387 1 rotate no_reflect no_shear #
lump $-1 $-1 $31 $4 #
transform $-1 1 0 0 0 1 0 0 0 1 57.600634784997098 32.68682648537095 15.52342449269387 1 rotate no_reflect no_shear #
lump $-1 $-1 $32 $5 #
transform $-1 1 0 0 0 1 0 0 0 1 57.600634784997098 32.68682648537095 15.52342449269387 1 rotate no_reflect no_shear #
lump $-1 $-1 $33 $6 #
transform $-1 1 0 0 0 1 0 0 0 1 57.600634784997098 32.68682648537095 15.52342449269387 1 rotate no_reflect no_shear #
lump $-1 $-1 $34 $7 #
transform $-1 1 0 0 0 1 0 0 0 1 57.600634784997098 32.68682648537095 15.52342449269387 1 rotate no_reflect no_shear #
lump $-1 $-1 $35 $8 #
transform $-1 1 0 0 0 1 0 0 0 1 57.600634784997098 32.68682648537095 15.52342449269387 1 rotate no_reflect no_shear #
shell $-1 $-1 $-1 $36 $-1 $9 #
shell $-1 $-1 $-1 $37 $-1 $11 #
shell $-1 $-1 $-1 $38 $-1 $13 #
shell $-1 $-1 $-1 $39 $-1 $15 #
shell $-1 $-1 $-1 $40 $-1 $17 #
shell $-1 $-1 $-1 $41 $-1 $19 #
shell $-1 $-1 $-1 $42 $-1 $21 #
shell $-1 $-1 $-1 $43 $-1 $23 #
shell $-1 $-1 $-1 $44 $-1 $25 #
face $-1 $45 $46 $27 $-1 $47 forward single #
face $-1 $48 $49 $28 $-1 $50 forward single #
face $-1 $51 $52 $29 $-1 $53 reversed single #
face $-1 $54 $55 $30 $-1 $56 forward single #
face $-1 $57 $58 $31 $-1 $59 forward single #
face $-1 $60 $61 $32 $-1 $62 reversed single #
face $-1 $63 $64 $33 $-1 $65 forward single #
face $-1 $66 $67 $34 $-1 $68 forward single #
face $-1 $69 $70 $35 $-1 $71 forward single #
face $-1 $72 $73 $27 $-1 $74 reversed single #
loop $-1 $-1 $75 $36 #
plane-surface $-1 0 0 15.52342449269387 0 0 1 1 0 0 forward_v I I I I #
face $-1 $76 $77 $28 $-1 $78 forward single #
loop $-1 $-1 $79 $37 #
plane-surface $-1 0 -32.68682648537095 0 0 1 0 0 0 1 forward_v I I I I #
face $-1 $80 $81 $29 $-1 $82 reversed single #
loop $-1 $-1 $83 $38 #
plane-surface $-1 -153.10681659470328 -15.628465183712315 65.790668980723495 0 1 0 -0.82903758062907751 0 0.55919289150049634 forward_v I I I I #
face $-1 $84 $85 $30 $-1 $86 forward single #
loop $-1 $87 $88 $39 #
cone-surface $-1 -52.358138083493856 -12.962908920470021 8.130492401383151 0.82903758062907751 0 -0.55919289150049634 0.55919289150049634 0 0.82903758062907751 1 I I 0 1 1 forward I I I I #
face $-1 $89 $90 $31 $-1 $91 forward single #
loop $-1 $92 $93 $40 #
cone-surface $-1 -52.358138083493856 -8.9645745256065794 8.130492401383151 0.82903758062907751 0 -0.55919289150049634 0.55919289150049634 0 0.82903758062907751 1 I I 0 1 1 forward I I I I #
face $-1 $94 $95 $32 $-1 $96 reversed single #
loop $-1 $-1 $97 $41 #
plane-surface $-1 20.95179077036903 -6.4021966377202375 160.5246241658613 0 -1 0 -0.52991927123019833 0 -0.84804809178421925 forward_v I I I I #
face $-1 $98 $99 $33 $-1 $100 forward single #
loop $-1 $101 $102 $42 #
cone-surface $-1 46.09232300623043 -13.783211474513898 7.8326959869886261 -0.52991927123019833 0 -0.84804809178421925 0.42402404589210962 0 -0.26495963561509916 1 I I 0 1 0.5 forward I I I I #
face $-1 $103 $104 $34 $-1 $105 forward single #
loop $-1 $106 $107 $43 #
cone-surface $-1 46.09232300623043 -11.015330910716276 7.8326959869886261 -0.52991927123019833 0 -0.84804809178421925 0.42402404589210962 0 -0.26495963561509916 1 I I 0 1 0.5 forward I I I I #
face $-1 $108 $109 $35 $-1 $110 forward single #
loop $-1 $111 $112 $44 #
cone-surface $-1 46.09232300623043 -8.2474503469186544 7.8326959869886261 -0.52991927123019833 0 -0.84804809178421925 0.42402404589210962 0 -0.26495963561509916 1 I I 0 1 0.5 forward I I I I #
face $-1 $113 $114 $27 $-1 $115 reversed single #
loop $-1 $-1 $116 $45 #
plane-surface $-1 0 0 -15.52342449269387 0 0 1 1 0 0 forward_v I I I I #
coedge $-1 $117 $118 $119 $120 forward $46 $-1 #
face $-1 $121 $122 $28 $-1 $123 reversed single #
loop $-1 $-1 $124 $48 #
plane-surface $-1 0 0 15.52342449269387 0 0 1 1 0 0 forward_v I I I I #
coedge $-1 $125 $126 $127 $128 forward $49 $-1 #
face $-1 $129 $130 $29 $-1 $131 reversed single #
loop $-1 $-1 $132 $51 #
plane-surface $-1 -57.600634784997112 -10.9637417230383 1.3709379453503061 -0.82903758062907751 0 0.55919289150049634 0.55919289150049634 0 0.82903758062907751 forward_v I I I I #
coedge $-1 $133 $134 $135 $136 reversed $52 $-1 #
face $-1 $-1 $137 $30 $-1 $138 forward single #
loop $-1 $139 $140 $54 #
cone-surface $-1 -51.474108798360334 -12.962908920470021 7.5342071379939775 0.82903758062907751 0 -0.55919289150049634 0.27959644575024817 0 0.41451879031453875 1 I I -0.70710678118654746 0.70710678118654746 0.5 forward I I I I #
loop $-1 $-1 $141 $39 #
coedge $-1 $88 $88 $142 $143 reversed $55 $-1 #
face $-1 $-1 $144 $31 $-1 $145 forward single #
loop $-1 $146 $147 $57 #
cone-surface $-1 -51.474108798360334 -8.9645745256065794 7.5342071379939775 0.82903758062907751 0 -0.55919289150049634 0.27959644575024817 0 0.41451879031453875 1 I I -0.70710678118654746 0.70710678118654746 0.5 forward I I I I #
loop $-1 $-1 $148 $40 #
coedge $-1 $93 $93 $149 $150 reversed $58 $-1 #
face $-1 $151 $152 $32 $-1 $153 reversed single #
loop $-1 $-1 $154 $60 #
plane-surface $-1 -40.095582044955918 -11.015330910716276 62.828407335908281 0.52991927123019833 0 0.84804809178421925 0.84804809178421925 0 -0.52991927123019833 forward_v I I I I #
coedge $-1 $155 $156 $157 $158 reversed $61 $-1 #
face $-1 $-1 $159 $33 $-1 $160 forward single #
loop $-1 $161 $162 $63 #
cone-surface $-1 45.447741799729314 -13.783211474513898 6.8011504443926114 -0.52991927123019833 0 -0.84804809178421925 0.21201202294605481 0 -0.13247981780754958 1 I I -0.70710678118654746 0.70710678118654746 0.25 forward I I I I #
loop $-1 $-1 $163 $42 #
coedge $-1 $102 $102 $164 $165 reversed $64 $-1 #
face $-1 $-1 $166 $34 $-1 $167 forward single #
loop $-1 $168 $169 $66 #
cone-surface $-1 45.447741799729314 -11.015330910716276 6.8011504443926114 -0.52991927123019833 0 -0.84804809178421925 0.21201202294605481 0 -0.13247981780754958 1 I I -0.70710678118654746 0.70710678118654746 0.25 forward I I I I #
loop $-1 $-1 $170 $43 #
coedge $-1 $107 $107 $171 $172 reversed $67 $-1 #
face $-1 $-1 $173 $35 $-1 $174 forward single #
loop $-1 $175 $176 $69 #
cone-surface $-1 45.447741799729314 -8.2474503469186544 6.8011504443926114 -0.52991927123019833 0 -0.84804809178421925 0.21201202294605481 0 -0.13247981780754958 1 I I -0.70710678118654746 0.70710678118654746 0.25 forward I I I I #
loop $-1 $-1 $177 $44 #
coedge $-1 $112 $112 $178 $179 reversed $70 $-1 #
face $-1 $180 $181 $27 $-1 $182 reversed single #
loop $-1 $-1 $183 $72 #
plane-surface $-1 0 -32.68682648537095 0 0 1 0 0 0 1 forward_v I I I I #
coedge $-1 $184 $185 $186 $187 forward $73 $-1 #
coedge $-1 $188 $75 $189 $190 forward $46 $-1 #
coedge $-1 $75 $188 $191 $192 forward $46 $-1 #
coedge $-1 $193 $194 $75 $120 reversed $195 $-1 #
edge $-1 $196 -32.68682648537095 $197 32.68682648537095 $119 $198 forward 7 unknown #
face $-1 $199 $200 $28 $-1 $201 reversed single #
loop $-1 $-1 $202 $76 #
plane-surface $-1 -57.600634784997098 0 0 1 0 0 0 0 -1 forward_v I I I I #
coedge $-1 $203 $204 $205 $206 forward $77 $-1 #
coedge $-1 $205 $79 $202 $207 reversed $49 $-1 #
coedge $-1 $79 $205 $208 $209 reversed $49 $-1 #
coedge $-1 $210 $211 $79 $128 reversed $200 $-1 #
edge $-1 $212 -57.600634784997098 $213 57.600634784997098 $127 $214 forward 7 unknown #
face $-1 $215 $216 $29 $-1 $217 forward single #
loop $-1 $-1 $218 $80 #
plane-surface $-1 -153.10681659470328 -6.2990182623642852 65.790668980723495 0 -1 0 0.82903758062907751 0 -0.55919289150049634 forward_v I I I I #
coedge $-1 $219 $220 $221 $222 reversed $81 $-1 #
coedge $-1 $134 $83 $223 $224 reversed $52 $-1 #
coedge $-1 $83 $133 $219 $225 reversed $52 $-1 #
coedge $-1 $221 $226 $83 $136 forward $216 $-1 #
edge $-1 $227 18.95277351235454 $228 28.498745925723007 $135 $229 forward 7 unknown #
loop $-1 $-1 $142 $84 #
plane-surface $-1 -57.600634784997112 -10.9637417230383 1.3709379453503061 -0.82903758062907751 0 0.55919289150049634 0.55919289150049634 0 0.82903758062907751 forward_v I I I I #
loop $-1 $-1 $230 $54 #
coedge $-1 $140 $140 $141 $231 reversed $85 $-1 #
coedge $-1 $141 $141 $140 $231 forward $87 $-1 #
coedge $-1 $142 $142 $88 $143 forward $137 $-1 #
edge $-1 $232 0 $232 6.2831853071796004 $142 $233 forward 7 unknown #
loop $-1 $-1 $149 $89 #
plane-surface $-1 -57.600634784997112 -10.9637417230383 1.3709379453503061 -0.82903758062907751 0 0.55919289150049634 0.55919289150049634 0 0.82903758062907751 forward_v I I I I #
loop $-1 $-1 $234 $57 #
coedge $-1 $147 $147 $148 $235 reversed $90 $-1 #
coedge $-1 $148 $148 $147 $235 forward $92 $-1 #
coedge $-1 $149 $149 $93 $150 forward $144 $-1 #
edge $-1 $236 0 $236 6.2831853071796004 $149 $237 forward 7 unknown #
face $-1 $238 $239 $32 $-1 $240 reversed single #
loop $-1 $-1 $241 $94 #
plane-surface $-1 20.95179077036903 -15.628465183712315 160.5246241658613 0 1 0 0.52991927123019833 0 0.84804809178421925 forward_v I I I I #
coedge $-1 $242 $243 $244 $245 reversed $95 $-1 #
coedge $-1 $156 $97 $246 $247 reversed $61 $-1 #
coedge $-1 $97 $155 $242 $248 reversed $61 $-1 #
coedge $-1 $244 $249 $97 $158 forward $250 $-1 #
edge $-1 $251 -47.124739399812583 $252 -25.132318619666421 $157 $253 forward 7 unknown #
loop $-1 $-1 $164 $98 #
plane-surface $-1 -40.095582044955918 -11.015330910716276 62.828407335908281 0.52991927123019833 0 0.84804809178421925 0.84804809178421925 0 -0.52991927123019833 forward_v I I I I #
loop $-1 $-1 $254 $63 #
coedge $-1 $162 $162 $163 $255 reversed $99 $-1 #
coedge $-1 $163 $163 $162 $255 forward $101 $-1 #
coedge $-1 $164 $164 $102 $165 forward $159 $-1 #
edge $-1 $256 0 $256 6.2831853071796004 $164 $257 forward 7 unknown #
loop $-1 $-1 $171 $103 #
plane-surface $-1 -40.095582044955918 -11.015330910716276 62.828407335908281 0.52991927123019833 0 0.84804809178421925 0.84804809178421925 0 -0.52991927123019833 forward_v I I I I #
loop $-1 $-1 $258 $66 #
coedge $-1 $169 $169 $170 $259 reversed $104 $-1 #
coedge $-1 $170 $170 $169 $259 forward $106 $-1 #
coedge $-1 $171 $171 $107 $172 forward $166 $-1 #
edge $-1 $260 0 $260 6.2831853071796004 $171 $261 forward 7 unknown #
loop $-1 $-1 $178 $108 #
plane-surface $-1 -40.095582044955918 -11.015330910716276 62.828407335908281 0.52991927123019833 0 0.84804809178421925 0.84804809178421925 0 -0.52991927123019833 forward_v I I I I #
loop $-1 $-1 $262 $69 #
coedge $-1 $176 $176 $177 $263 reversed $109 $-1 #
coedge $-1 $177 $177 $176 $263 forward $111 $-1 #
coedge $-1 $178 $178 $112 $179 forward $173 $-1 #
edge $-1 $264 0 $264 6.2831853071796004 $178 $265 forward 7 unknown #
face $-1 $266 $267 $27 $-1 $268 reversed single #
loop $-1 $-1 $269 $113 #
plane-surface $-1 -57.600634784997098 0 0 1 0 0 0 0 -1 forward_v I I I I #
coedge $-1 $270 $191 $271 $272 forward $114 $-1 #
coedge $-1 $273 $116 $270 $274 forward $73 $-1 #
coedge $-1 $116 $273 $275 $276 forward $73 $-1 #
coedge $-1 $194 $193 $116 $187 reversed $195 $-1 #
edge $-1 $277 -32.68682648537095 $278 32.68682648537095 $186 $279 forward 7 unknown #
coedge $-1 $118 $117 $280 $281 forward $46 $-1 #
coedge $-1 $282 $283 $117 $190 reversed $267 $-1 #
edge $-1 $197 -57.600634784997098 $284 57.600634784997098 $189 $285 forward 7 unknown #
coedge $-1 $183 $286 $118 $192 reversed $114 $-1 #
edge $-1 $287 -57.600634784997098 $196 57.600634784997098 $191 $288 forward 7 unknown #
coedge $-1 $186 $119 $286 $289 forward $195 $-1 #
coedge $-1 $119 $186 $282 $290 reversed $195 $-1 #
loop $-1 $-1 $193 $266 #
vertex $-1 $120 $291 #
vertex $-1 $120 $292 #
straight-curve $-1 57.600634784997098 0 15.52342449269387 0 1 0 I I #
face $-1 $293 $294 $28 $-1 $295 reversed single #
loop $-1 $-1 $210 $121 #
plane-surface $-1 0 -41.216007136200268 7.8009862687000435 0 0 1 1 0 0 forward_v I I I I #
coedge $-1 $296 $297 $125 $207 forward $122 $-1 #
coedge $-1 $298 $124 $297 $299 forward $77 $-1 #
coedge $-1 $124 $298 $300 $301 forward $77 $-1 #
coedge $-1 $126 $125 $124 $206 reversed $49 $-1 #
edge $-1 $302 -57.600634784997098 $303 57.600634784997098 $124 $304 forward 7 unknown #
edge $-1 $303 -15.52342449269387 $213 -7.8009862687000435 $202 $305 forward 7 unknown #
coedge $-1 $300 $306 $126 $209 forward $307 $-1 #
edge $-1 $212 7.8009862687000435 $302 15.52342449269387 $208 $308 forward 7 unknown #
coedge $-1 $309 $127 $306 $310 forward $200 $-1 #
coedge $-1 $127 $309 $296 $311 forward $200 $-1 #
vertex $-1 $209 $312 #
vertex $-1 $207 $313 #
straight-curve $-1 0 -32.68682648537095 7.8009862687000435 -1 0 0 I I #
face $-1 $-1 $314 $29 $-1 $315 reversed single #
loop $-1 $-1 $135 $129 #
plane-surface $-1 0 0 15.52342449269387 0 0 1 1 0 0 forward_v I I I I #
coedge $-1 $316 $317 $318 $319 reversed $130 $-1 #
coedge $-1 $320 $132 $134 $225 forward $81 $-1 #
coedge $-1 $132 $320 $316 $321 forward $81 $-1 #
coedge $-1 $318 $135 $132 $222 forward $216 $-1 #
edge $-1 $228 -10.146594322193165 $322 -0.81714740084513515 $221 $323 forward 7 unknown #
coedge $-1 $324 $325 $133 $224 forward $314 $-1 #
edge $-1 $326 -31.52439654501142 $227 -17.371909997667878 $223 $327 forward 7 unknown #
edge $-1 $228 -17.070983123110768 $326 -2.5434524534472062e-014 $134 $328 forward 7 unknown #
coedge $-1 $135 $318 $324 $329 forward $216 $-1 #
vertex $-1 $224 $330 #
vertex $-1 $136 $331 #
straight-curve $-1 -76.553408297351638 -15.628465183712315 15.52342449269387 1 0 0 I I #
coedge $-1 $230 $230 $-1 $332 reversed $139 $-1 #
edge $-1 $333 0 $333 6.2831853071796004 $140 $334 forward 7 unknown #
vertex $-1 $143 $335 #
ellipse-curve $-1 -52.827648578312868 -12.962908920470021 8.4471812190220934 -0.82903758062907751 0 0.55919289150049634 0.55919289150049634 0 0.82903758062907751 1 I I #
coedge $-1 $234 $234 $-1 $336 reversed $146 $-1 #
edge $-1 $337 0 $337 6.2831853071796004 $147 $338 forward 7 unknown #
vertex $-1 $150 $339 #
ellipse-curve $-1 -52.827648578312868 -8.9645745256065794 8.4471812190220934 -0.82903758062907751 0 0.55919289150049634 0.55919289150049634 0 0.82903758062907751 1 I I #
face $-1 $-1 $250 $32 $-1 $340 forward single #
loop $-1 $-1 $341 $151 #
plane-surface $-1 57.600634784997098 0 0 -1 0 0 0 0 1 forward_v I I I I #
coedge $-1 $342 $343 $344 $345 reversed $152 $-1 #
coedge $-1 $346 $154 $156 $248 forward $95 $-1 #
coedge $-1 $154 $346 $342 $347 forward $95 $-1 #
coedge $-1 $344 $157 $154 $245 forward $250 $-1 #
edge $-1 $252 0.89453118236209939 $348 10.120799728354177 $244 $349 forward 7 unknown #
coedge $-1 $350 $351 $155 $247 forward $239 $-1 #
edge $-1 $352 -78.481277562347316 $251 -64.738887590236772 $246 $353 forward 7 unknown #
edge $-1 $252 89.268281814693637 $352 115.2012695699942 $156 $354 forward 7 unknown #
coedge $-1 $157 $344 $350 $355 forward $250 $-1 #
loop $-1 $-1 $344 $238 #
vertex $-1 $247 $356 #
vertex $-1 $158 $357 #
straight-curve $-1 10.475895385184515 -6.4021966377202375 15.523424492693863 -1 0 0 I I #
coedge $-1 $254 $254 $-1 $358 reversed $161 $-1 #
edge $-1 $359 0 $359 6.2831853071796004 $162 $360 forward 7 unknown #
vertex $-1 $165 $361 #
ellipse-curve $-1 46.60442439492401 -13.783211474513898 8.652229506638605 0.52991927123019833 0 0.84804809178421925 0.42402404589210962 0 -0.26495963561509916 1 I I #
coedge $-1 $258 $258 $-1 $362 reversed $168 $-1 #
edge $-1 $363 0 $363 6.2831853071796004 $169 $364 forward 7 unknown #
vertex $-1 $172 $365 #
ellipse-curve $-1 46.60442439492401 -11.015330910716276 8.652229506638605 0.52991927123019833 0 0.84804809178421925 0.42402404589210962 0 -0.26495963561509916 1 I I #
coedge $-1 $262 $262 $-1 $366 reversed $175 $-1 #
edge $-1 $367 0 $367 6.2831853071796004 $176 $368 forward 7 unknown #
vertex $-1 $179 $369 #
ellipse-curve $-1 46.60442439492401 -8.2474503469186544 8.652229506638605 0.52991927123019833 0 0.84804809178421925 0.42402404589210962 0 -0.26495963561509916 1 I I #
face $-1 $-1 $195 $27 $-1 $370 reversed single #
loop $-1 $-1 $282 $180 #
plane-surface $-1 0 32.68682648537095 0 0 -1 0 0 0 -1 forward_v I I I I #
coedge $-1 $371 $280 $283 $372 forward $181 $-1 #
coedge $-1 $286 $183 $184 $274 reversed $114 $-1 #
coedge $-1 $280 $371 $183 $272 reversed $181 $-1 #
edge $-1 $287 -15.52342449269387 $373 15.52342449269387 $271 $374 forward 7 unknown #
coedge $-1 $185 $184 $371 $375 forward $73 $-1 #
edge $-1 $278 -57.600634784997098 $373 57.600634784997098 $270 $376 forward 7 unknown #
coedge $-1 $283 $282 $185 $276 reversed $267 $-1 #
edge $-1 $377 -57.600634784997098 $277 57.600634784997098 $275 $378 forward 7 unknown #
vertex $-1 $187 $379 #
vertex $-1 $289 $380 #
straight-curve $-1 57.600634784997098 0 -15.52342449269387 0 -1 0 I I #
coedge $-1 $269 $271 $188 $281 reversed $181 $-1 #
edge $-1 $284 -32.68682648537095 $287 32.68682648537095 $280 $381 forward 7 unknown #
coedge $-1 $275 $189 $194 $290 forward $267 $-1 #
coedge $-1 $189 $275 $269 $372 reversed $267 $-1 #
vertex $-1 $190 $382 #
straight-curve $-1 0 32.68682648537095 15.52342449269387 -1 0 0 I I #
coedge $-1 $191 $270 $193 $289 reversed $114 $-1 #
vertex $-1 $281 $383 #
straight-curve $-1 0 -32.68682648537095 15.52342449269387 1 0 0 I I #
edge $-1 $196 -15.52342449269387 $278 15.52342449269387 $193 $384 forward 7 unknown #
edge $-1 $197 -15.52342449269387 $277 15.52342449269387 $194 $385 forward 7 unknown #
point $-1 57.600634784997098 -32.68682648537095 15.52342449269387 #
point $-1 57.600634784997098 32.68682648537095 15.52342449269387 #
face $-1 $-1 $307 $28 $-1 $386 reversed single #
loop $-1 $-1 $387 $199 #
plane-surface $-1 0 -49.745187787029586 11.662205380696957 0 1 0 0 0 1 forward_v I I I I #
coedge $-1 $388 $202 $211 $311 reversed $122 $-1 #
coedge $-1 $202 $388 $203 $299 reversed $122 $-1 #
coedge $-1 $204 $203 $389 $390 forward $77 $-1 #
edge $-1 $303 32.68682648537095 $391 49.745187787029586 $297 $392 forward 7 unknown #
coedge $-1 $393 $208 $204 $301 reversed $307 $-1 #
edge $-1 $394 -49.745187787029586 $302 -32.68682648537095 $300 $395 forward 7 unknown #
vertex $-1 $209 $396 #
vertex $-1 $299 $397 #
straight-curve $-1 0 -32.68682648537095 15.52342449269387 -1 0 0 I I #
straight-curve $-1 -57.600634784997098 -32.68682648537095 0 0 0 -1 I I #
coedge $-1 $208 $393 $210 $310 reversed $307 $-1 #
loop $-1 $-1 $208 $293 #
straight-curve $-1 57.600634784997098 -32.68682648537095 0 0 0 1 I I #
coedge $-1 $211 $210 $398 $399 forward $200 $-1 #
edge $-1 $212 -8.5291806508293178 $400 8.5291806508293178 $306 $401 forward 7 unknown #
edge $-1 $402 -8.5291806508293178 $213 8.5291806508293178 $296 $403 forward 7 unknown #
point $-1 57.600634784997098 -32.68682648537095 7.8009862687000435 #
point $-1 -57.600634784997098 -32.68682648537095 7.8009862687000435 #
loop $-1 $-1 $223 $215 #
plane-surface $-1 -57.600634784997098 0 0 1 0 0 0 0 -1 forward_v I I I I #
coedge $-1 $317 $218 $220 $321 reversed $130 $-1 #
coedge $-1 $218 $316 $404 $405 reversed $130 $-1 #
coedge $-1 $226 $221 $218 $319 forward $216 $-1 #
edge $-1 $322 -28.498745925723007 $406 -18.95277351235454 $318 $407 forward 7 unknown #
coedge $-1 $220 $219 $325 $408 reversed $81 $-1 #
edge $-1 $409 2.5434524534472062e-014 $322 17.070983123110768 $316 $410 forward 7 unknown #
vertex $-1 $222 $411 #
straight-curve $-1 -48.054662371628631 -5.48187086151915 15.52342449269387 0 1 0 I I #
coedge $-1 $404 $223 $226 $329 reversed $314 $-1 #
coedge $-1 $223 $404 $320 $408 forward $314 $-1 #
vertex $-1 $224 $412 #
straight-curve $-1 -57.600634784997098 -15.628465183712315 32.895334490361748 0 0 1 I I #
straight-curve $-1 -57.600634784997112 -15.628465183712315 1.3709379453503061 -0.55919289150049634 0 -0.82903758062907751 I I #
edge $-1 $406 6.2990182623642852 $227 15.628465183712315 $324 $413 forward 7 unknown #
point $-1 -57.600634784997098 -15.628465183712315 15.52342449269387 #
point $-1 -48.054662371628631 -15.628465183712315 15.52342449269387 #
edge $-1 $414 1 $414 0 $230 $-1 forward 7 unknown #
vertex $-1 $231 $415 #
ellipse-curve $-1 -51.888627588674872 -12.962908920470021 7.8138035837442255 -0.82903758062907751 0 0.55919289150049634 0.55919289150049634 0 0.82903758062907751 1 I I #
point $-1 -52.268455686812352 -12.962908920470021 9.276218799651156 #
edge $-1 $416 1 $416 0 $234 $-1 forward 7 unknown #
vertex $-1 $235 $417 #
ellipse-curve $-1 -51.888627588674872 -8.9645745256065794 7.8138035837442255 -0.82903758062907751 0 0.55919289150049634 0.55919289150049634 0 0.82903758062907751 1 I I #
point $-1 -52.268455686812352 -8.9645745256065794 9.276218799651156 #
plane-surface $-1 0 0 15.52342449269387 0 0 1 1 0 0 forward_v I I I I #
coedge $-1 $351 $350 $343 $418 forward $239 $-1 #
coedge $-1 $343 $241 $243 $347 reversed $152 $-1 #
coedge $-1 $241 $342 $341 $418 reversed $152 $-1 #
coedge $-1 $249 $244 $241 $345 forward $250 $-1 #
edge $-1 $348 25.132318619666421 $419 47.124739399812583 $344 $420 forward 7 unknown #
coedge $-1 $243 $242 $351 $421 reversed $95 $-1 #
edge $-1 $422 -115.2012695699942 $348 -89.268281814693637 $342 $423 forward 7 unknown #
vertex $-1 $245 $424 #
straight-curve $-1 35.608214004850922 -5.5076654553581381 15.523424492693874 0 -1 0 I I #
coedge $-1 $341 $246 $249 $355 reversed $239 $-1 #
coedge $-1 $246 $341 $346 $421 forward $239 $-1 #
vertex $-1 $247 $425 #
straight-curve $-1 57.600634784997098 -6.4021966377202375 80.262312082930649 0 0 1 I I #
straight-curve $-1 -40.095582044955918 -6.4021966377202375 62.828407335908281 0.84804809178421925 0 -0.52991927123019833 I I #
edge $-1 $419 -15.628465183712315 $251 -6.4021966377202375 $350 $426 forward 7 unknown #
point $-1 57.600634784997098 -6.4021966377202375 15.52342449269387 #
point $-1 35.608214004850936 -6.4021966377202375 15.52342449269387 #
edge $-1 $427 1 $427 0 $254 $-1 forward 7 unknown #
vertex $-1 $255 $428 #
ellipse-curve $-1 45.580221617536864 -13.783211474513898 7.0131624673386659 0.52991927123019833 0 0.84804809178421925 0.42402404589210962 0 -0.26495963561509916 1 I I #
point $-1 47.028448440816106 -13.783211474513898 8.3872698710234879 #
edge $-1 $429 1 $429 0 $258 $-1 forward 7 unknown #
vertex $-1 $259 $430 #
ellipse-curve $-1 45.580221617536864 -11.015330910716276 7.0131624673386659 0.52991927123019833 0 0.84804809178421925 0.42402404589210962 0 -0.26495963561509916 1 I I #
point $-1 47.028448440816106 -11.015330910716276 8.3872698710234879 #
edge $-1 $431 1 $431 0 $262 $-1 forward 7 unknown #
vertex $-1 $263 $432 #
ellipse-curve $-1 45.580221617536864 -8.2474503469186544 7.0131624673386659 0.52991927123019833 0 0.84804809178421925 0.42402404589210962 0 -0.26495963561509916 1 I I #
point $-1 47.028448440816106 -8.2474503469186544 8.3872698710234879 #
plane-surface $-1 57.600634784997098 0 0 -1 0 0 0 0 1 forward_v I I I I #
coedge $-1 $271 $269 $273 $375 reversed $181 $-1 #
edge $-1 $284 -15.52342449269387 $377 15.52342449269387 $283 $433 forward 7 unknown #
vertex $-1 $375 $434 #
straight-curve $-1 -57.600634784997098 -32.68682648537095 0 0 0 -1 I I #
edge $-1 $373 -32.68682648537095 $377 32.68682648537095 $371 $435 forward 7 unknown #
straight-curve $-1 0 -32.68682648537095 -15.52342449269387 -1 0 0 I I #
vertex $-1 $276 $436 #
straight-curve $-1 0 32.68682648537095 -15.52342449269387 1 0 0 I I #
point $-1 57.600634784997098 32.68682648537095 -15.52342449269387 #
point $-1 57.600634784997098 -32.68682648537095 -15.52342449269387 #
straight-curve $-1 -57.600634784997098 0 15.52342449269387 0 -1 0 I I #
point $-1 -57.600634784997098 32.68682648537095 15.52342449269387 #
point $-1 -57.600634784997098 -32.68682648537095 15.52342449269387 #
straight-curve $-1 57.600634784997098 -32.68682648537095 0 0 0 -1 I I #
straight-curve $-1 57.600634784997098 32.68682648537095 0 0 0 -1 I I #
plane-surface $-1 57.600634784997098 0 0 -1 0 0 0 0 1 forward_v I I I I #
coedge $-1 $398 $389 $388 $437 forward $294 $-1 #
coedge $-1 $297 $296 $387 $437 reversed $122 $-1 #
coedge $-1 $387 $438 $298 $390 reversed $294 $-1 #
edge $-1 $391 -57.600634784997098 $394 57.600634784997098 $389 $439 forward 7 unknown #
vertex $-1 $299 $440 #
straight-curve $-1 -57.600634784997098 0 15.52342449269387 0 -1 0 I I #
coedge $-1 $306 $300 $438 $441 forward $307 $-1 #
vertex $-1 $301 $442 #
straight-curve $-1 57.600634784997098 0 15.52342449269387 0 1 0 I I #
point $-1 57.600634784997098 -32.68682648537095 15.52342449269387 #
point $-1 -57.600634784997098 -32.68682648537095 15.52342449269387 #
coedge $-1 $438 $387 $309 $399 reversed $294 $-1 #
edge $-1 $400 -57.600634784997098 $402 57.600634784997098 $398 $443 forward 7 unknown #
vertex $-1 $441 $444 #
straight-curve $-1 57.600634784997098 -41.216007136200268 7.8009862687000435 0 -1 0 I I #
vertex $-1 $311 $445 #
straight-curve $-1 -57.600634784997098 -41.216007136200268 7.8009862687000435 0 1 0 I I #
coedge $-1 $325 $324 $317 $405 forward $314 $-1 #
edge $-1 $406 17.371909997667878 $409 31.52439654501142 $404 $446 forward 7 unknown #
vertex $-1 $329 $447 #
straight-curve $-1 -76.553408297351638 -6.2990182623642852 15.52342449269387 -1 0 0 I I #
edge $-1 $409 0.81714740084513515 $326 10.146594322193165 $325 $448 forward 7 unknown #
vertex $-1 $408 $449 #
straight-curve $-1 -57.600634784997112 -6.2990182623642852 1.3709379453503061 0.55919289150049634 0 0.82903758062907751 I I #
point $-1 -48.054662371628631 -6.2990182623642852 15.52342449269387 #
point $-1 -57.600634784997098 -15.628465183712315 1.3709379453503272 #
straight-curve $-1 -57.600634784997098 0 15.52342449269387 0 -1 0 I I #
vertex $-1 $332 $450 #
point $-1 -51.329434697174378 -12.962908920470021 8.6428411643733032 #
vertex $-1 $336 $451 #
point $-1 -51.329434697174378 -8.9645745256065794 8.6428411643733032 #
edge $-1 $419 64.738887590236772 $422 78.481277562347316 $341 $452 forward 7 unknown #
vertex $-1 $355 $453 #
straight-curve $-1 10.475895385184515 -15.628465183712315 15.523424492693863 1 0 0 I I #
edge $-1 $422 -10.120799728354177 $352 -0.89453118236209939 $351 $454 forward 7 unknown #
vertex $-1 $421 $455 #
straight-curve $-1 -40.095582044955918 -15.628465183712315 62.828407335908281 -0.84804809178421925 0 0.52991927123019833 I I #
point $-1 35.608214004850936 -15.628465183712315 15.52342449269387 #
point $-1 57.600634784997098 -6.4021966377202375 1.7810345205833329 #
straight-curve $-1 57.600634784997098 0 15.52342449269387 0 1 0 I I #
vertex $-1 $358 $456 #
point $-1 46.004245663428975 -13.783211474513898 6.7482028317235674 #
vertex $-1 $362 $457 #
point $-1 46.004245663428975 -11.015330910716276 6.7482028317235674 #
vertex $-1 $366 $458 #
point $-1 46.004245663428975 -8.2474503469186544 6.7482028317235674 #
straight-curve $-1 -57.600634784997098 32.68682648537095 0 0 0 -1 I I #
point $-1 -57.600634784997098 -32.68682648537095 -15.52342449269387 #
straight-curve $-1 -57.600634784997098 0 -15.52342449269387 0 1 0 I I #
point $-1 -57.600634784997098 32.68682648537095 -15.52342449269387 #
edge $-1 $391 -3.8612191119969133 $402 3.8612191119969133 $388 $459 forward 7 unknown #
coedge $-1 $389 $398 $393 $441 reversed $294 $-1 #
straight-curve $-1 0 -49.745187787029586 15.52342449269387 1 0 0 I I #
point $-1 -57.600634784997098 -49.745187787029586 15.52342449269387 #
edge $-1 $394 -3.8612191119969133 $400 3.8612191119969133 $393 $460 forward 7 unknown #
point $-1 57.600634784997098 -49.745187787029586 15.52342449269387 #
straight-curve $-1 0 -49.745187787029586 7.8009862687000435 -1 0 0 I I #
point $-1 57.600634784997098 -49.745187787029586 7.8009862687000435 #
point $-1 -57.600634784997098 -49.745187787029586 7.8009862687000435 #
straight-curve $-1 -57.600634784997098 -6.2990182623642852 32.895334490361748 0 0 -1 I I #
point $-1 -57.600634784997098 -6.2990182623642852 15.52342449269387 #
straight-curve $-1 -57.600634784997098 -5.48187086151915 1.3709379453503303 0 -1 0 I I #
point $-1 -57.600634784997098 -6.2990182623642852 1.3709379453503272 #
point $-1 -51.059590008045795 -12.962908920470021 7.2546106922437295 #
point $-1 -51.059590008045795 -8.9645745256065794 7.2546106922437295 #
straight-curve $-1 57.600634784997098 -15.628465183712315 80.262312082930649 0 0 -1 I I #
point $-1 57.600634784997098 -15.628465183712315 15.52342449269387 #
straight-curve $-1 57.600634784997098 -5.5076654553581381 1.7810345205833258 0 1 0 I I #
point $-1 57.600634784997098 -15.628465183712315 1.7810345205833329 #
point $-1 45.315261981921765 -13.783211474513898 6.5891384214465569 #
point $-1 45.315261981921765 -11.015330910716276 6.5891384214465569 #
point $-1 45.315261981921765 -8.2474503469186544 6.5891384214465569 #
straight-curve $-1 -57.600634784997098 -49.745187787029586 11.662205380696957 0 0 -1 I I #
straight-curve $-1 57.600634784997098 -49.745187787029586 11.662205380696957 0 0 -1 I I #
End-of-ACIS-data 