500 0 17 0           
7 Unknown 11 ACIS 5.0 NT 24 Fri Mar 26 20:05:07 1999 
-1 9.9999999999999995e-007 1e-010 
body $-1 $17 $-1 $18 #
body $-1 $19 $-1 $20 #
body $-1 $21 $-1 $22 #
body $-1 $23 $-1 $24 #
body $-1 $25 $-1 $26 #
body $-1 $27 $-1 $28 #
body $-1 $29 $-1 $30 #
body $-1 $31 $-1 $32 #
body $-1 $33 $-1 $34 #
body $-1 $35 $-1 $36 #
body $-1 $37 $-1 $38 #
body $-1 $39 $-1 $40 #
body $-1 $41 $-1 $42 #
body $-1 $43 $-1 $44 #
body $-1 $45 $-1 $46 #
body $-1 $47 $-1 $48 #
body $-1 $49 $-1 $50 #
lump $-1 $-1 $51 $0 #
transform $-1 1 0 0 0 1 0 0 0 1 63.048799096652118 31.476295664009026 6.5266699920644715 1 rotate no_reflect no_shear #
lump $-1 $-1 $52 $1 #
transform $-1 1 0 0 0 1 0 0 0 1 63.048799096652118 31.476295664009026 6.5266699920644715 1 rotate no_reflect no_shear #
lump $-1 $-1 $53 $2 #
transform $-1 1 0 0 0 1 0 0 0 1 63.048799096652118 31.476295664009026 6.5266699920644715 1 rotate no_reflect no_shear #
lump $-1 $-1 $54 $3 #
transform $-1 1 0 0 0 1 0 0 0 1 63.048799096652118 31.476295664009026 6.5266699920644715 1 rotate no_reflect no_shear #
lump $-1 $-1 $55 $4 #
transform $-1 1 0 0 0 1 0 0 0 1 63.048799096652118 31.476295664009026 6.5266699920644715 1 rotate no_reflect no_shear #
lump $-1 $-1 $56 $5 #
transform $-1 1 0 0 0 1 0 0 0 1 63.048799096652118 31.476295664009026 6.5266699920644715 1 rotate no_reflect no_shear #
lump $-1 $-1 $57 $6 #
transform $-1 1 0 0 0 1 0 0 0 1 63.048799096652118 31.476295664009026 6.5266699920644715 1 rotate no_reflect no_shear #
lump $-1 $-1 $58 $7 #
transform $-1 1 0 0 0 1 0 0 0 1 63.048799096652118 31.476295664009026 6.5266699920644715 1 rotate no_reflect no_shear #
lump $-1 $-1 $59 $8 #
transform $-1 1 0 0 0 1 0 0 0 1 63.048799096652118 31.476295664009026 6.5266699920644715 1 rotate no_reflect no_shear #
lump $-1 $-1 $60 $9 #
transform $-1 1 0 0 0 1 0 0 0 1 63.048799096652118 31.476295664009026 6.5266699920644715 1 rotate no_reflect no_shear #
lump $-1 $-1 $61 $10 #
transform $-1 1 0 0 0 1 0 0 0 1 63.048799096652118 31.476295664009026 6.5266699920644715 1 rotate no_reflect no_shear #
lump $-1 $-1 $62 $11 #
transform $-1 1 0 0 0 1 0 0 0 1 63.048799096652118 31.476295664009026 6.5266699920644715 1 rotate no_reflect no_shear #
lump $-1 $-1 $63 $12 #
transform $-1 1 0 0 0 1 0 0 0 1 63.048799096652118 31.476295664009026 6.5266699920644715 1 rotate no_reflect no_shear #
lump $-1 $-1 $64 $13 #
transform $-1 1 0 0 0 1 0 0 0 1 63.048799096652118 31.476295664009026 6.5266699920644715 1 rotate no_reflect no_shear #
lump $-1 $-1 $65 $14 #
transform $-1 1 0 0 0 1 0 0 0 1 63.048799096652118 31.476295664009026 6.5266699920644715 1 rotate no_reflect no_shear #
lump $-1 $-1 $66 $15 #
transform $-1 1 0 0 0 1 0 0 0 1 63.048799096652118 31.476295664009026 6.5266699920644715 1 rotate no_reflect no_shear #
lump $-1 $-1 $67 $16 #
transform $-1 1 0 0 0 1 0 0 0 1 63.048799096652118 31.476295664009026 6.5266699920644715 1 rotate no_reflect no_shear #
shell $-1 $-1 $-1 $68 $-1 $17 #
shell $-1 $-1 $-1 $69 $-1 $19 #
shell $-1 $-1 $-1 $70 $-1 $21 #
shell $-1 $-1 $-1 $71 $-1 $23 #
shell $-1 $-1 $-1 $72 $-1 $25 #
shell $-1 $-1 $-1 $73 $-1 $27 #
shell $-1 $-1 $-1 $74 $-1 $29 #
shell $-1 $-1 $-1 $75 $-1 $31 #
shell $-1 $-1 $-1 $76 $-1 $33 #
shell $-1 $-1 $-1 $77 $-1 $35 #
shell $-1 $-1 $-1 $78 $-1 $37 #
shell $-1 $-1 $-1 $79 $-1 $39 #
shell $-1 $-1 $-1 $80 $-1 $41 #
shell $-1 $-1 $-1 $81 $-1 $43 #
shell $-1 $-1 $-1 $82 $-1 $45 #
shell $-1 $-1 $-1 $83 $-1 $47 #
shell $-1 $-1 $-1 $84 $-1 $49 #
face $-1 $85 $86 $51 $-1 $87 forward single #
face $-1 $88 $89 $52 $-1 $90 reversed single #
face $-1 $91 $92 $53 $-1 $93 reversed single #
face $-1 $94 $95 $54 $-1 $96 forward single #
face $-1 $97 $98 $55 $-1 $99 forward single #
face $-1 $100 $101 $56 $-1 $102 reversed single #
face $-1 $103 $104 $57 $-1 $105 forward single #
face $-1 $106 $107 $58 $-1 $108 forward single #
face $-1 $109 $110 $59 $-1 $111 reversed single #
face $-1 $112 $113 $60 $-1 $114 forward single #
face $-1 $115 $116 $61 $-1 $117 forward single #
face $-1 $118 $119 $62 $-1 $120 reversed single #
face $-1 $121 $122 $63 $-1 $123 forward single #
face $-1 $124 $125 $64 $-1 $126 forward single #
face $-1 $127 $128 $65 $-1 $129 reversed single #
face $-1 $130 $131 $66 $-1 $132 forward single #
face $-1 $133 $134 $67 $-1 $135 forward single #
face $-1 $136 $137 $51 $-1 $138 reversed single #
loop $-1 $-1 $139 $68 #
plane-surface $-1 0 0 6.5266699920644715 0 0 1 1 0 0 forward_v I I I I #
face $-1 $140 $141 $52 $-1 $142 reversed single #
loop $-1 $-1 $143 $69 #
plane-surface $-1 -59.46338119269825 -28.476295664009026 0 0 -1 0 0 0 -1 forward_v I I I I #
face $-1 $144 $145 $53 $-1 $146 reversed single #
loop $-1 $-1 $147 $70 #
plane-surface $-1 -29.054667059850274 -130.84256008517428 78.010132496969575 -1 0 0 0 -0.78801076186113728 0.61566146476048833 forward_v I I I I #
face $-1 $148 $149 $54 $-1 $150 forward single #
loop $-1 $151 $152 $71 #
cone-surface $-1 -38.282069746314917 -27.767944207897052 2.4313964515003166 0 0.78801076186113728 -0.61566146476048833 1.5 0 0 1 I I 0 1 1.5 forward I I I I #
face $-1 $153 $154 $55 $-1 $155 forward single #
loop $-1 $156 $157 $72 #
cone-surface $-1 -32.745628134436132 -27.767944207897052 2.4313964515003166 0 0.78801076186113728 -0.61566146476048833 1.5 0 0 1 I I 0 1 1.5 forward I I I I #
face $-1 $158 $159 $56 $-1 $160 reversed single #
loop $-1 $-1 $161 $73 #
plane-surface $-1 -2.988489163630673 -130.84256008517428 78.010132496969575 -1 0 0 0 -0.78801076186113728 0.61566146476048833 forward_v I I I I #
face $-1 $162 $163 $57 $-1 $164 forward single #
loop $-1 $165 $166 $74 #
cone-surface $-1 -12.215891850095318 -27.767944207897052 2.4313964515003166 0 0.78801076186113728 -0.61566146476048833 1.5 0 0 1 I I 0 1 1.5 forward I I I I #
face $-1 $167 $168 $58 $-1 $169 forward single #
loop $-1 $170 $171 $75 #
cone-surface $-1 -6.6794502382165319 -27.767944207897052 2.4313964515003166 0 0.78801076186113728 -0.61566146476048833 1.5 0 0 1 I I 0 1 1.5 forward I I I I #
face $-1 $172 $173 $59 $-1 $174 reversed single #
loop $-1 $-1 $175 $76 #
plane-surface $-1 23.077688732588925 -130.84256008517428 78.010132496969575 -1 0 0 0 -0.78801076186113728 0.61566146476048833 forward_v I I I I #
face $-1 $176 $177 $60 $-1 $178 forward single #
loop $-1 $179 $180 $77 #
cone-surface $-1 13.850286046124282 -27.767944207897052 2.4313964515003166 0 0.78801076186113728 -0.61566146476048833 1.5 0 0 1 I I 0 1 1.5 forward I I I I #
face $-1 $181 $182 $61 $-1 $183 forward single #
loop $-1 $184 $185 $78 #
cone-surface $-1 19.386727658003068 -27.767944207897052 2.4313964515003166 0 0.78801076186113728 -0.61566146476048833 1.5 0 0 1 I I 0 1 1.5 forward I I I I #
face $-1 $186 $187 $62 $-1 $188 reversed single #
loop $-1 $-1 $189 $79 #
plane-surface $-1 49.143866628808524 -130.84256008517428 78.010132496969575 -1 0 0 0 -0.78801076186113728 0.61566146476048833 forward_v I I I I #
face $-1 $190 $191 $63 $-1 $192 forward single #
loop $-1 $193 $194 $80 #
cone-surface $-1 39.916463942343881 -27.767944207897052 2.4313964515003166 0 0.78801076186113728 -0.61566146476048833 1.5 0 0 1 I I 0 1 1.5 forward I I I I #
face $-1 $195 $196 $64 $-1 $197 forward single #
loop $-1 $198 $199 $81 #
cone-surface $-1 45.452905554222667 -27.767944207897052 2.4313964515003166 0 0.78801076186113728 -0.61566146476048833 1.5 0 0 1 I I 0 1 1.5 forward I I I I #
face $-1 $200 $201 $65 $-1 $202 reversed single #
loop $-1 $-1 $203 $82 #
plane-surface $-1 -22.232747813589199 109.20372521037905 118.65019368544822 1 0 0 0 -0.86602541151947299 -0.49999998660252726 forward_v I I I I #
face $-1 $204 $205 $66 $-1 $206 forward single #
loop $-1 $207 $208 $83 #
cone-surface $-1 -15.10706607166896 28.735942849338702 3.1299207068871726 0 -0.86602541151947299 -0.49999998660252726 1 0 0 1 I I 0 1 1 forward I I I I #
face $-1 $209 $210 $67 $-1 $211 forward single #
loop $-1 $212 $213 $84 #
cone-surface $-1 -4.4185434587885979 28.735942849338702 3.1299207068871726 0 -0.86602541151947299 -0.49999998660252726 1 0 0 1 I I 0 1 1 forward I I I I #
face $-1 $214 $215 $51 $-1 $216 reversed single #
loop $-1 $-1 $217 $85 #
plane-surface $-1 0 0 -6.5266699920644715 0 0 1 1 0 0 forward_v I I I I #
coedge $-1 $218 $219 $220 $221 forward $86 $-1 #
face $-1 $222 $223 $52 $-1 $224 forward single #
loop $-1 $-1 $225 $88 #
plane-surface $-1 -55.877963288744382 -29.976295664009026 0 -1 0 0 0 0 1 forward_v I I I I #
coedge $-1 $226 $227 $228 $229 forward $89 $-1 #
face $-1 $230 $231 $53 $-1 $232 reversed single #
loop $-1 $-1 $233 $91 #
plane-surface $-1 -35.513848940375524 -31.476295664009029 0.3767004905003688 0 -0.78801076186113728 0.61566146476048833 1 0 0 forward_v I I I I #
coedge $-1 $234 $235 $236 $237 reversed $92 $-1 #
face $-1 $-1 $238 $54 $-1 $239 forward single #
loop $-1 $240 $241 $94 #
cone-surface $-1 -38.282069746314917 -25.87102600150947 0.94936156314784537 0 0.78801076186113728 -0.61566146476048833 0.75 0 0 1 I I -0.70710678118654757 0.70710678118654757 0.75 forward I I I I #
loop $-1 $-1 $242 $71 #
coedge $-1 $152 $152 $243 $244 reversed $95 $-1 #
face $-1 $-1 $245 $55 $-1 $246 forward single #
loop $-1 $247 $248 $97 #
cone-surface $-1 -32.745628134436132 -25.87102600150947 0.94936156314784537 0 0.78801076186113728 -0.61566146476048833 0.75 0 0 1 I I -0.70710678118654757 0.70710678118654757 0.75 forward I I I I #
loop $-1 $-1 $249 $72 #
coedge $-1 $157 $157 $250 $251 reversed $98 $-1 #
face $-1 $252 $253 $56 $-1 $254 reversed single #
loop $-1 $-1 $255 $100 #
plane-surface $-1 -9.4476710441559248 -31.476295664009029 0.3767004905003688 0 -0.78801076186113728 0.61566146476048833 1 0 0 forward_v I I I I #
coedge $-1 $256 $257 $258 $259 reversed $101 $-1 #
face $-1 $-1 $260 $57 $-1 $261 forward single #
loop $-1 $262 $263 $103 #
cone-surface $-1 -12.215891850095318 -25.87102600150947 0.94936156314784537 0 0.78801076186113728 -0.61566146476048833 0.75 0 0 1 I I -0.70710678118654757 0.70710678118654757 0.75 forward I I I I #
loop $-1 $-1 $264 $74 #
coedge $-1 $166 $166 $265 $266 reversed $104 $-1 #
face $-1 $-1 $267 $58 $-1 $268 forward single #
loop $-1 $269 $270 $106 #
cone-surface $-1 -6.6794502382165319 -25.87102600150947 0.94936156314784537 0 0.78801076186113728 -0.61566146476048833 0.75 0 0 1 I I -0.70710678118654757 0.70710678118654757 0.75 forward I I I I #
loop $-1 $-1 $271 $75 #
coedge $-1 $171 $171 $272 $273 reversed $107 $-1 #
face $-1 $274 $275 $59 $-1 $276 reversed single #
loop $-1 $-1 $277 $109 #
plane-surface $-1 16.618506852063675 -31.476295664009029 0.3767004905003688 0 -0.78801076186113728 0.61566146476048833 1 0 0 forward_v I I I I #
coedge $-1 $278 $279 $280 $281 reversed $110 $-1 #
face $-1 $-1 $282 $60 $-1 $283 forward single #
loop $-1 $284 $285 $112 #
cone-surface $-1 13.850286046124282 -25.87102600150947 0.94936156314784537 0 0.78801076186113728 -0.61566146476048833 0.75 0 0 1 I I -0.70710678118654757 0.70710678118654757 0.75 forward I I I I #
loop $-1 $-1 $286 $77 #
coedge $-1 $180 $180 $287 $288 reversed $113 $-1 #
face $-1 $-1 $289 $61 $-1 $290 forward single #
loop $-1 $291 $292 $115 #
cone-surface $-1 19.386727658003068 -25.87102600150947 0.94936156314784537 0 0.78801076186113728 -0.61566146476048833 0.75 0 0 1 I I -0.70710678118654757 0.70710678118654757 0.75 forward I I I I #
loop $-1 $-1 $293 $78 #
coedge $-1 $185 $185 $294 $295 reversed $116 $-1 #
face $-1 $296 $297 $62 $-1 $298 reversed single #
loop $-1 $-1 $299 $118 #
plane-surface $-1 42.684684748283274 -31.476295664009029 0.3767004905003688 0 -0.78801076186113728 0.61566146476048833 1 0 0 forward_v I I I I #
coedge $-1 $300 $301 $302 $303 reversed $119 $-1 #
face $-1 $-1 $304 $63 $-1 $305 forward single #
loop $-1 $306 $307 $121 #
cone-surface $-1 39.916463942343881 -25.87102600150947 0.94936156314784537 0 0.78801076186113728 -0.61566146476048833 0.75 0 0 1 I I -0.70710678118654757 0.70710678118654757 0.75 forward I I I I #
loop $-1 $-1 $308 $80 #
coedge $-1 $194 $194 $309 $310 reversed $122 $-1 #
face $-1 $-1 $311 $64 $-1 $312 forward single #
loop $-1 $313 $314 $124 #
cone-surface $-1 45.452905554222667 -25.87102600150947 0.94936156314784537 0 0.78801076186113728 -0.61566146476048833 0.75 0 0 1 I I -0.70710678118654757 0.70710678118654757 0.75 forward I I I I #
loop $-1 $-1 $315 $81 #
coedge $-1 $199 $199 $316 $317 reversed $125 $-1 #
face $-1 $318 $319 $65 $-1 $320 reversed single #
loop $-1 $-1 $321 $127 #
plane-surface $-1 -9.7628047652287719 8.4340560135842679e-007 55.601396278185241 0 0.86602541151947299 0.49999998660252726 1 0 0 forward_v I I I I #
coedge $-1 $322 $323 $324 $325 reversed $128 $-1 #
face $-1 $-1 $326 $66 $-1 $327 forward single #
loop $-1 $328 $329 $130 #
cone-surface $-1 -15.10706607166896 27.134072029487083 2.2050801908802367 0 -0.86602541151947299 -0.49999998660252726 0.5 0 0 1 I I -0.70710678118654735 0.70710678118654768 0.5 forward I I I I #
loop $-1 $-1 $330 $83 #
coedge $-1 $208 $208 $331 $332 reversed $131 $-1 #
face $-1 $-1 $333 $67 $-1 $334 forward single #
loop $-1 $335 $336 $133 #
cone-surface $-1 -4.4185434587885979 27.134072029487083 2.2050801908802367 0 -0.86602541151947299 -0.49999998660252726 0.5 0 0 1 I I -0.70710678118654735 0.70710678118654768 0.5 forward I I I I #
loop $-1 $-1 $337 $84 #
coedge $-1 $213 $213 $338 $339 reversed $134 $-1 #
face $-1 $340 $341 $51 $-1 $342 reversed single #
loop $-1 $-1 $343 $136 #
plane-surface $-1 0 -31.476295664009026 0 0 1 0 0 0 1 forward_v I I I I #
coedge $-1 $344 $345 $346 $347 forward $137 $-1 #
coedge $-1 $348 $139 $349 $350 forward $86 $-1 #
coedge $-1 $139 $348 $351 $352 forward $86 $-1 #
coedge $-1 $353 $354 $139 $221 reversed $355 $-1 #
edge $-1 $356 -31.476295664009026 $357 31.476295664009026 $220 $358 forward 7 unknown #
face $-1 $359 $360 $52 $-1 $361 reversed single #
loop $-1 $-1 $362 $140 #
plane-surface $-1 0 0 6.5266699920644715 0 0 1 1 0 0 forward_v I I I I #
coedge $-1 $363 $364 $365 $366 reversed $141 $-1 #
coedge $-1 $367 $143 $368 $369 reversed $89 $-1 #
coedge $-1 $143 $367 $370 $371 reversed $89 $-1 #
coedge $-1 $364 $363 $143 $229 reversed $141 $-1 #
edge $-1 $372 -6.5266699920644715 $373 6.5266699920644715 $228 $374 forward 7 unknown #
face $-1 $375 $376 $53 $-1 $377 forward single #
loop $-1 $-1 $378 $144 #
plane-surface $-1 -41.973030820900775 -130.84256008517428 78.010132496969575 1 0 0 0 0.78801076186113728 -0.61566146476048833 forward_v I I I I #
coedge $-1 $379 $380 $381 $382 reversed $145 $-1 #
coedge $-1 $235 $147 $383 $384 reversed $92 $-1 #
coedge $-1 $147 $234 $379 $385 reversed $92 $-1 #
coedge $-1 $381 $386 $147 $237 forward $376 $-1 #
edge $-1 $387 33.944984378578113 $388 38.749867020818606 $236 $389 forward 7 unknown #
loop $-1 $-1 $243 $148 #
plane-surface $-1 -35.513848940375524 -31.476295664009029 0.3767004905003688 0 -0.78801076186113728 0.61566146476048833 1 0 0 forward_v I I I I #
loop $-1 $-1 $390 $94 #
coedge $-1 $241 $241 $242 $391 reversed $149 $-1 #
coedge $-1 $242 $242 $241 $391 forward $151 $-1 #
coedge $-1 $243 $243 $152 $244 forward $238 $-1 #
edge $-1 $392 -4.6659610211767781e-016 $392 6.2831853071795996 $243 $393 forward 7 unknown #
loop $-1 $-1 $250 $153 #
plane-surface $-1 -35.513848940375524 -31.476295664009029 0.3767004905003688 0 -0.78801076186113728 0.61566146476048833 1 0 0 forward_v I I I I #
loop $-1 $-1 $394 $97 #
coedge $-1 $248 $248 $249 $395 reversed $154 $-1 #
coedge $-1 $249 $249 $248 $395 forward $156 $-1 #
coedge $-1 $250 $250 $157 $251 forward $245 $-1 #
edge $-1 $396 -4.6659610211767781e-016 $396 6.2831853071795996 $250 $397 forward 7 unknown #
face $-1 $398 $399 $56 $-1 $400 reversed single #
loop $-1 $-1 $401 $158 #
plane-surface $-1 -15.906852924681177 -130.84256008517428 78.010132496969575 1 0 0 0 0.78801076186113728 -0.61566146476048833 forward_v I I I I #
coedge $-1 $402 $403 $404 $405 reversed $159 $-1 #
coedge $-1 $257 $161 $406 $407 reversed $101 $-1 #
coedge $-1 $161 $256 $402 $408 reversed $101 $-1 #
coedge $-1 $404 $409 $161 $259 forward $410 $-1 #
edge $-1 $411 33.944984378578113 $412 38.749867020818606 $258 $413 forward 7 unknown #
loop $-1 $-1 $265 $162 #
plane-surface $-1 -9.4476710441559248 -31.476295664009029 0.3767004905003688 0 -0.78801076186113728 0.61566146476048833 1 0 0 forward_v I I I I #
loop $-1 $-1 $414 $103 #
coedge $-1 $263 $263 $264 $415 reversed $163 $-1 #
coedge $-1 $264 $264 $263 $415 forward $165 $-1 #
coedge $-1 $265 $265 $166 $266 forward $260 $-1 #
edge $-1 $416 -4.6659610211767781e-016 $416 6.2831853071795996 $265 $417 forward 7 unknown #
loop $-1 $-1 $272 $167 #
plane-surface $-1 -9.4476710441559248 -31.476295664009029 0.3767004905003688 0 -0.78801076186113728 0.61566146476048833 1 0 0 forward_v I I I I #
loop $-1 $-1 $418 $106 #
coedge $-1 $270 $270 $271 $419 reversed $168 $-1 #
coedge $-1 $271 $271 $270 $419 forward $170 $-1 #
coedge $-1 $272 $272 $171 $273 forward $267 $-1 #
edge $-1 $420 -4.6659610211767781e-016 $420 6.2831853071795996 $272 $421 forward 7 unknown #
face $-1 $422 $423 $59 $-1 $424 reversed single #
loop $-1 $-1 $425 $172 #
plane-surface $-1 10.159324971538423 -130.84256008517428 78.010132496969575 1 0 0 0 0.78801076186113728 -0.61566146476048833 forward_v I I I I #
coedge $-1 $426 $427 $428 $429 reversed $173 $-1 #
coedge $-1 $279 $175 $430 $431 reversed $110 $-1 #
coedge $-1 $175 $278 $426 $432 reversed $110 $-1 #
coedge $-1 $428 $433 $175 $281 forward $434 $-1 #
edge $-1 $435 33.944984378578113 $436 38.749867020818606 $280 $437 forward 7 unknown #
loop $-1 $-1 $287 $176 #
plane-surface $-1 16.618506852063675 -31.476295664009029 0.3767004905003688 0 -0.78801076186113728 0.61566146476048833 1 0 0 forward_v I I I I #
loop $-1 $-1 $438 $112 #
coedge $-1 $285 $285 $286 $439 reversed $177 $-1 #
coedge $-1 $286 $286 $285 $439 forward $179 $-1 #
coedge $-1 $287 $287 $180 $288 forward $282 $-1 #
edge $-1 $440 -4.6659610211767781e-016 $440 6.2831853071795996 $287 $441 forward 7 unknown #
loop $-1 $-1 $294 $181 #
plane-surface $-1 16.618506852063675 -31.476295664009029 0.3767004905003688 0 -0.78801076186113728 0.61566146476048833 1 0 0 forward_v I I I I #
loop $-1 $-1 $442 $115 #
coedge $-1 $292 $292 $293 $443 reversed $182 $-1 #
coedge $-1 $293 $293 $292 $443 forward $184 $-1 #
coedge $-1 $294 $294 $185 $295 forward $289 $-1 #
edge $-1 $444 -4.6659610211767781e-016 $444 6.2831853071795996 $294 $445 forward 7 unknown #
face $-1 $446 $447 $62 $-1 $448 reversed single #
loop $-1 $-1 $449 $186 #
plane-surface $-1 36.225502867758024 -130.84256008517428 78.010132496969575 1 0 0 0 0.78801076186113728 -0.61566146476048833 forward_v I I I I #
coedge $-1 $450 $451 $452 $453 reversed $187 $-1 #
coedge $-1 $301 $189 $454 $455 reversed $119 $-1 #
coedge $-1 $189 $300 $450 $456 reversed $119 $-1 #
coedge $-1 $452 $457 $189 $303 forward $458 $-1 #
edge $-1 $459 33.944984378578113 $460 38.749867020818606 $302 $461 forward 7 unknown #
loop $-1 $-1 $309 $190 #
plane-surface $-1 42.684684748283274 -31.476295664009029 0.3767004905003688 0 -0.78801076186113728 0.61566146476048833 1 0 0 forward_v I I I I #
loop $-1 $-1 $462 $121 #
coedge $-1 $307 $307 $308 $463 reversed $191 $-1 #
coedge $-1 $308 $308 $307 $463 forward $193 $-1 #
coedge $-1 $309 $309 $194 $310 forward $304 $-1 #
edge $-1 $464 -4.6659610211767781e-016 $464 6.2831853071795996 $309 $465 forward 7 unknown #
loop $-1 $-1 $316 $195 #
plane-surface $-1 42.684684748283274 -31.476295664009029 0.3767004905003688 0 -0.78801076186113728 0.61566146476048833 1 0 0 forward_v I I I I #
loop $-1 $-1 $466 $124 #
coedge $-1 $314 $314 $315 $467 reversed $196 $-1 #
coedge $-1 $315 $315 $314 $467 forward $198 $-1 #
coedge $-1 $316 $316 $199 $317 forward $311 $-1 #
edge $-1 $468 -4.6659610211767781e-016 $468 6.2831853071795996 $316 $469 forward 7 unknown #
face $-1 $470 $471 $65 $-1 $472 reversed single #
loop $-1 $-1 $473 $200 #
plane-surface $-1 2.7071382831316555 109.20372521037905 118.65019368544822 -1 0 0 0 0.86602541151947299 0.49999998660252726 forward_v I I I I #
coedge $-1 $474 $475 $476 $477 reversed $201 $-1 #
coedge $-1 $323 $203 $478 $479 reversed $128 $-1 #
coedge $-1 $203 $322 $474 $480 reversed $128 $-1 #
coedge $-1 $476 $481 $203 $325 forward $482 $-1 #
edge $-1 $483 23.125566941180498 $484 26.268556342337412 $324 $485 forward 7 unknown #
loop $-1 $-1 $331 $204 #
plane-surface $-1 -9.7628047652287719 8.4340560135842679e-007 55.601396278185241 0 0.86602541151947299 0.49999998660252726 1 0 0 forward_v I I I I #
loop $-1 $-1 $486 $130 #
coedge $-1 $329 $329 $330 $487 reversed $205 $-1 #
coedge $-1 $330 $330 $329 $487 forward $207 $-1 #
coedge $-1 $331 $331 $208 $332 forward $326 $-1 #
edge $-1 $488 -1.648820551959064e-015 $488 6.2831853071795987 $331 $489 forward 7 unknown #
loop $-1 $-1 $338 $209 #
plane-surface $-1 -9.7628047652287719 8.4340560135842679e-007 55.601396278185241 0 0.86602541151947299 0.49999998660252726 1 0 0 forward_v I I I I #
loop $-1 $-1 $490 $133 #
coedge $-1 $336 $336 $337 $491 reversed $210 $-1 #
coedge $-1 $337 $337 $336 $491 forward $212 $-1 #
coedge $-1 $338 $338 $213 $339 forward $333 $-1 #
edge $-1 $492 -1.648820551959064e-015 $492 6.2831853071795987 $338 $493 forward 7 unknown #
face $-1 $494 $495 $51 $-1 $496 reversed single #
loop $-1 $-1 $497 $214 #
plane-surface $-1 -63.048799096652118 0 0 1 0 0 0 0 -1 forward_v I I I I #
coedge $-1 $498 $351 $499 $500 forward $215 $-1 #
coedge $-1 $501 $217 $498 $502 forward $137 $-1 #
coedge $-1 $217 $501 $503 $504 forward $137 $-1 #
coedge $-1 $354 $353 $217 $347 reversed $355 $-1 #
edge $-1 $505 -31.476295664009026 $506 31.476295664009026 $346 $507 forward 7 unknown #
coedge $-1 $219 $218 $508 $509 forward $86 $-1 #
coedge $-1 $510 $511 $218 $350 reversed $495 $-1 #
edge $-1 $357 -63.048799096652118 $512 63.048799096652118 $349 $513 forward 7 unknown #
coedge $-1 $343 $514 $219 $352 reversed $215 $-1 #
edge $-1 $515 -63.048799096652118 $356 63.048799096652118 $351 $516 forward 7 unknown #
coedge $-1 $346 $220 $514 $517 forward $355 $-1 #
coedge $-1 $220 $346 $510 $518 reversed $355 $-1 #
loop $-1 $-1 $353 $494 #
vertex $-1 $221 $519 #
vertex $-1 $221 $520 #
straight-curve $-1 63.048799096652118 0 6.5266699920644715 0 1 0 I I #
face $-1 $521 $522 $52 $-1 $523 reversed single #
loop $-1 $-1 $524 $222 #
plane-surface $-1 -63.048799096652118 0 0 1 0 0 0 0 -1 forward_v I I I I #
coedge $-1 $370 $525 $364 $526 forward $223 $-1 #
coedge $-1 $228 $225 $527 $528 reversed $141 $-1 #
coedge $-1 $225 $228 $362 $526 reversed $141 $-1 #
coedge $-1 $529 $530 $225 $366 forward $531 $-1 #
edge $-1 $532 -6.5266699920644715 $533 6.5266699920644715 $365 $534 forward 7 unknown #
coedge $-1 $227 $226 $524 $535 reversed $89 $-1 #
coedge $-1 $527 $536 $226 $369 forward $522 $-1 #
edge $-1 $537 -33.317108500302993 $373 -26.146272692395257 $368 $538 forward 7 unknown #
coedge $-1 $539 $362 $227 $371 forward $223 $-1 #
edge $-1 $372 26.146272692395257 $540 33.317108500302993 $370 $541 forward 7 unknown #
vertex $-1 $371 $542 #
vertex $-1 $369 $543 #
straight-curve $-1 -55.877963288744382 -28.476295664009026 0 0 0 -1 I I #
face $-1 $-1 $544 $53 $-1 $545 reversed single #
loop $-1 $-1 $236 $230 #
plane-surface $-1 0 0 6.5266699920644715 0 0 1 1 0 0 forward_v I I I I #
coedge $-1 $546 $547 $548 $549 reversed $231 $-1 #
coedge $-1 $550 $233 $235 $385 forward $145 $-1 #
coedge $-1 $233 $550 $546 $551 forward $145 $-1 #
coedge $-1 $548 $236 $233 $382 forward $376 $-1 #
edge $-1 $388 11.297742589662512 $552 24.216106350713012 $381 $553 forward 7 unknown #
coedge $-1 $554 $555 $234 $384 forward $544 $-1 #
edge $-1 $556 -38.628365757984412 $387 -32.478396256420318 $383 $557 forward 7 unknown #
edge $-1 $388 -7.8044232378743139 $556 -5.7742264423945871e-015 $235 $558 forward 7 unknown #
coedge $-1 $236 $548 $554 $559 forward $376 $-1 #
vertex $-1 $384 $560 #
vertex $-1 $237 $561 #
straight-curve $-1 -29.054667059850274 -65.421280042587142 6.5266699920644697 0 1 0 I I #
coedge $-1 $390 $390 $-1 $562 reversed $240 $-1 #
edge $-1 $563 0 $563 6.2831853071796004 $241 $564 forward 7 unknown #
vertex $-1 $244 $565 #
ellipse-curve $-1 -38.282069746314917 -29.073854342888779 3.4516852412824219 0 -0.78801076186113728 0.61566146476048833 1.5 0 0 1 I I #
coedge $-1 $394 $394 $-1 $566 reversed $247 $-1 #
edge $-1 $567 0 $567 6.2831853071796004 $248 $568 forward 7 unknown #
vertex $-1 $251 $569 #
ellipse-curve $-1 -32.745628134436132 -29.073854342888779 3.4516852412824219 0 -0.78801076186113728 0.61566146476048833 1.5 0 0 1 I I #
face $-1 $-1 $410 $56 $-1 $570 forward single #
loop $-1 $-1 $571 $252 #
plane-surface $-1 0 -31.476295664009026 0 0 1 0 0 0 1 forward_v I I I I #
coedge $-1 $572 $573 $574 $575 reversed $253 $-1 #
coedge $-1 $576 $255 $257 $408 forward $159 $-1 #
coedge $-1 $255 $576 $572 $577 forward $159 $-1 #
coedge $-1 $574 $258 $255 $405 forward $410 $-1 #
edge $-1 $412 -1.7353463584472895 $578 11.183017402603214 $404 $579 forward 7 unknown #
coedge $-1 $580 $581 $256 $407 forward $399 $-1 #
edge $-1 $582 -38.628365757984412 $411 -32.478396256420318 $406 $583 forward 7 unknown #
edge $-1 $412 -7.8044232378743139 $582 -5.7742264423945871e-015 $257 $584 forward 7 unknown #
coedge $-1 $258 $574 $580 $585 forward $410 $-1 #
loop $-1 $-1 $574 $398 #
vertex $-1 $407 $586 #
vertex $-1 $259 $587 #
straight-curve $-1 -2.988489163630673 -65.421280042587142 6.5266699920644697 0 1 0 I I #
coedge $-1 $414 $414 $-1 $588 reversed $262 $-1 #
edge $-1 $589 0 $589 6.2831853071796004 $263 $590 forward 7 unknown #
vertex $-1 $266 $591 #
ellipse-curve $-1 -12.215891850095318 -29.073854342888779 3.4516852412824219 0 -0.78801076186113728 0.61566146476048833 1.5 0 0 1 I I #
coedge $-1 $418 $418 $-1 $592 reversed $269 $-1 #
edge $-1 $593 0 $593 6.2831853071796004 $270 $594 forward 7 unknown #
vertex $-1 $273 $595 #
ellipse-curve $-1 -6.6794502382165319 -29.073854342888779 3.4516852412824219 0 -0.78801076186113728 0.61566146476048833 1.5 0 0 1 I I #
face $-1 $-1 $434 $59 $-1 $596 forward single #
loop $-1 $-1 $597 $274 #
plane-surface $-1 0 -31.476295664009026 0 0 1 0 0 0 1 forward_v I I I I #
coedge $-1 $598 $599 $600 $601 reversed $275 $-1 #
coedge $-1 $602 $277 $279 $432 forward $173 $-1 #
coedge $-1 $277 $602 $598 $603 forward $173 $-1 #
coedge $-1 $600 $280 $277 $429 forward $434 $-1 #
edge $-1 $436 -14.768435306557087 $604 -1.8500715455065855 $428 $605 forward 7 unknown #
coedge $-1 $606 $607 $278 $431 forward $423 $-1 #
edge $-1 $608 -38.628365757984412 $435 -32.478396256420318 $430 $609 forward 7 unknown #
edge $-1 $436 -7.8044232378743139 $608 -5.7742264423945871e-015 $279 $610 forward 7 unknown #
coedge $-1 $280 $600 $606 $611 forward $434 $-1 #
loop $-1 $-1 $600 $422 #
vertex $-1 $431 $612 #
vertex $-1 $281 $613 #
straight-curve $-1 23.077688732588925 -65.421280042587142 6.5266699920644697 0 1 0 I I #
coedge $-1 $438 $438 $-1 $614 reversed $284 $-1 #
edge $-1 $615 0 $615 6.2831853071796004 $285 $616 forward 7 unknown #
vertex $-1 $288 $617 #
ellipse-curve $-1 13.850286046124282 -29.073854342888779 3.4516852412824219 0 -0.78801076186113728 0.61566146476048833 1.5 0 0 1 I I #
coedge $-1 $442 $442 $-1 $618 reversed $291 $-1 #
edge $-1 $619 0 $619 6.2831853071796004 $292 $620 forward 7 unknown #
vertex $-1 $295 $621 #
ellipse-curve $-1 19.386727658003068 -29.073854342888779 3.4516852412824219 0 -0.78801076186113728 0.61566146476048833 1.5 0 0 1 I I #
face $-1 $-1 $458 $62 $-1 $622 forward single #
loop $-1 $-1 $623 $296 #
plane-surface $-1 0 -31.476295664009026 0 0 1 0 0 0 1 forward_v I I I I #
coedge $-1 $624 $625 $626 $627 reversed $297 $-1 #
coedge $-1 $628 $299 $301 $456 forward $187 $-1 #
coedge $-1 $299 $628 $624 $629 forward $187 $-1 #
coedge $-1 $626 $302 $299 $453 forward $458 $-1 #
edge $-1 $460 -27.801524254666887 $630 -14.883160493616387 $452 $631 forward 7 unknown #
coedge $-1 $632 $633 $300 $455 forward $447 $-1 #
edge $-1 $634 -38.628365757984412 $459 -32.478396256420318 $454 $635 forward 7 unknown #
edge $-1 $460 -7.8044232378743139 $634 -5.7742264423945871e-015 $301 $636 forward 7 unknown #
coedge $-1 $302 $626 $632 $637 forward $458 $-1 #
loop $-1 $-1 $626 $446 #
vertex $-1 $455 $638 #
vertex $-1 $303 $639 #
straight-curve $-1 49.143866628808524 -65.421280042587142 6.5266699920644697 0 1 0 I I #
coedge $-1 $462 $462 $-1 $640 reversed $306 $-1 #
edge $-1 $641 0 $641 6.2831853071796004 $307 $642 forward 7 unknown #
vertex $-1 $310 $643 #
ellipse-curve $-1 39.916463942343881 -29.073854342888779 3.4516852412824219 0 -0.78801076186113728 0.61566146476048833 1.5 0 0 1 I I #
coedge $-1 $466 $466 $-1 $644 reversed $313 $-1 #
edge $-1 $645 0 $645 6.2831853071796004 $314 $646 forward 7 unknown #
vertex $-1 $317 $647 #
ellipse-curve $-1 45.452905554222667 -29.073854342888779 3.4516852412824219 0 -0.78801076186113728 0.61566146476048833 1.5 0 0 1 I I #
face $-1 $-1 $482 $65 $-1 $648 forward single #
loop $-1 $-1 $649 $318 #
plane-surface $-1 0 31.476295664009026 0 0 -1 0 0 0 -1 forward_v I I I I #
coedge $-1 $650 $651 $652 $653 reversed $319 $-1 #
coedge $-1 $654 $321 $323 $480 forward $201 $-1 #
coedge $-1 $321 $654 $650 $655 forward $201 $-1 #
coedge $-1 $652 $324 $321 $477 forward $482 $-1 #
edge $-1 $484 -17.351345430974813 $656 7.5885406657460415 $476 $657 forward 7 unknown #
coedge $-1 $658 $659 $322 $479 forward $471 $-1 #
edge $-1 $660 -58.242244375602951 $483 -52.798426850659638 $478 $661 forward 7 unknown #
edge $-1 $484 56.666612357271809 $660 62.952591328018102 $323 $662 forward 7 unknown #
coedge $-1 $324 $652 $658 $663 forward $482 $-1 #
loop $-1 $-1 $652 $470 #
vertex $-1 $479 $664 #
vertex $-1 $325 $665 #
straight-curve $-1 -22.232747813589199 54.601862605189524 6.5266699920644697 0 -1 0 I I #
coedge $-1 $486 $486 $-1 $666 reversed $328 $-1 #
edge $-1 $667 0 $667 6.2831853071796004 $329 $668 forward 7 unknown #
vertex $-1 $332 $669 #
ellipse-curve $-1 -15.10706607166896 29.90480096343056 3.804761229592831 0 0.86602541151947299 0.49999998660252726 1 0 0 1 I I #
coedge $-1 $490 $490 $-1 $670 reversed $335 $-1 #
edge $-1 $671 0 $671 6.2831853071796004 $336 $672 forward 7 unknown #
vertex $-1 $339 $673 #
ellipse-curve $-1 -4.4185434587885979 29.90480096343056 3.804761229592831 0 0.86602541151947299 0.49999998660252726 1 0 0 1 I I #
face $-1 $-1 $355 $51 $-1 $674 reversed single #
loop $-1 $-1 $510 $340 #
plane-surface $-1 0 31.476295664009026 0 0 -1 0 0 0 -1 forward_v I I I I #
coedge $-1 $675 $508 $511 $676 forward $341 $-1 #
coedge $-1 $514 $343 $344 $502 reversed $215 $-1 #
coedge $-1 $508 $675 $343 $500 reversed $341 $-1 #
edge $-1 $515 -6.5266699920644715 $677 6.5266699920644715 $499 $678 forward 7 unknown #
coedge $-1 $345 $344 $675 $679 forward $137 $-1 #
edge $-1 $506 -63.048799096652118 $677 63.048799096652118 $498 $680 forward 7 unknown #
coedge $-1 $511 $510 $345 $504 reversed $495 $-1 #
edge $-1 $681 -63.048799096652118 $505 63.048799096652118 $503 $682 forward 7 unknown #
vertex $-1 $347 $683 #
vertex $-1 $517 $684 #
straight-curve $-1 63.048799096652118 0 -6.5266699920644715 0 -1 0 I I #
coedge $-1 $497 $499 $348 $509 reversed $341 $-1 #
edge $-1 $512 -31.476295664009026 $515 31.476295664009026 $508 $685 forward 7 unknown #
coedge $-1 $503 $349 $354 $518 forward $495 $-1 #
coedge $-1 $349 $503 $497 $676 reversed $495 $-1 #
vertex $-1 $350 $686 #
straight-curve $-1 0 31.476295664009026 6.5266699920644715 -1 0 0 I I #
coedge $-1 $351 $498 $353 $517 reversed $215 $-1 #
vertex $-1 $509 $687 #
straight-curve $-1 0 -31.476295664009026 6.5266699920644715 1 0 0 I I #
edge $-1 $356 -6.5266699920644715 $506 6.5266699920644715 $353 $688 forward 7 unknown #
edge $-1 $357 -6.5266699920644715 $505 6.5266699920644715 $354 $689 forward 7 unknown #
point $-1 63.048799096652118 -31.476295664009026 6.5266699920644715 #
point $-1 63.048799096652118 31.476295664009026 6.5266699920644715 #
face $-1 $-1 $531 $52 $-1 $690 reversed single #
loop $-1 $-1 $527 $359 #
plane-surface $-1 0 0 -6.5266699920644715 0 0 1 1 0 0 forward_v I I I I #
coedge $-1 $691 $692 $367 $535 forward $360 $-1 #
coedge $-1 $362 $539 $529 $693 forward $223 $-1 #
edge $-1 $533 -16.488147832004515 $372 -13.488147832004513 $362 $694 forward 7 unknown #
coedge $-1 $695 $368 $363 $528 forward $522 $-1 #
edge $-1 $373 13.488147832004513 $532 16.488147832004515 $527 $696 forward 7 unknown #
coedge $-1 $697 $365 $525 $693 reversed $531 $-1 #
coedge $-1 $365 $697 $695 $698 reversed $531 $-1 #
loop $-1 $-1 $365 $521 #
vertex $-1 $698 $699 #
vertex $-1 $366 $700 #
straight-curve $-1 -55.877963288744382 -31.476295664009026 0 0 0 1 I I #
edge $-1 $540 -6.5266699920644715 $537 6.5266699920644715 $524 $701 forward 7 unknown #
coedge $-1 $368 $695 $691 $702 forward $522 $-1 #
vertex $-1 $369 $703 #
straight-curve $-1 -29.731690596349125 -28.476295664009026 -6.5266699920644715 1 0 0 I I #
coedge $-1 $525 $370 $692 $704 forward $223 $-1 #
vertex $-1 $704 $705 #
straight-curve $-1 -29.731690596349125 -28.476295664009026 6.5266699920644715 -1 0 0 I I #
point $-1 -55.877963288744382 -28.476295664009026 6.5266699920644715 #
point $-1 -55.877963288744382 -28.476295664009026 -6.5266699920644715 #
loop $-1 $-1 $383 $375 #
plane-surface $-1 0 -31.476295664009026 0 0 1 0 0 0 1 forward_v I I I I #
coedge $-1 $547 $378 $380 $551 reversed $231 $-1 #
coedge $-1 $378 $546 $706 $707 reversed $231 $-1 #
coedge $-1 $386 $381 $378 $549 forward $376 $-1 #
edge $-1 $552 -38.749867020818606 $708 -33.944984378578113 $548 $709 forward 7 unknown #
coedge $-1 $380 $379 $555 $710 reversed $145 $-1 #
edge $-1 $711 5.7742264423945871e-015 $552 7.8044232378743139 $546 $712 forward 7 unknown #
vertex $-1 $382 $713 #
straight-curve $-1 -17.756924470187762 -26.671413021768537 6.5266699920644715 -1 0 0 I I #
coedge $-1 $706 $383 $386 $559 reversed $544 $-1 #
coedge $-1 $383 $706 $550 $710 forward $544 $-1 #
vertex $-1 $384 $714 #
straight-curve $-1 -29.054667059850274 -31.476295664009029 39.005066248484788 0 0 1 I I #
straight-curve $-1 -29.054667059850274 -31.476295664009029 0.3767004905003688 0 -0.61566146476048833 -0.78801076186113728 I I #
edge $-1 $708 -41.973030820900775 $387 -29.054667059850274 $554 $715 forward 7 unknown #
point $-1 -29.054667059850274 -31.476295664009026 6.5266699920644715 #
point $-1 -29.054667059850274 -26.671413021768537 6.5266699920644715 #
edge $-1 $716 1 $716 0 $390 $-1 forward 7 unknown #
vertex $-1 $391 $717 #
ellipse-curve $-1 -38.282069746314917 -26.462034072905322 1.4111076617182117 0 -0.78801076186113728 0.61566146476048833 1.5 0 0 1 I I #
point $-1 -36.782069746314917 -29.073854342888779 3.451685241282421 #
edge $-1 $718 1 $718 0 $394 $-1 forward 7 unknown #
vertex $-1 $395 $719 #
ellipse-curve $-1 -32.745628134436132 -26.462034072905322 1.4111076617182117 0 -0.78801076186113728 0.61566146476048833 1.5 0 0 1 I I #
point $-1 -31.245628134436132 -29.073854342888779 3.451685241282421 #
plane-surface $-1 0 0 6.5266699920644715 0 0 1 1 0 0 forward_v I I I I #
coedge $-1 $581 $580 $573 $720 forward $399 $-1 #
coedge $-1 $573 $401 $403 $577 reversed $253 $-1 #
coedge $-1 $401 $572 $571 $720 reversed $253 $-1 #
coedge $-1 $409 $404 $401 $575 forward $410 $-1 #
edge $-1 $578 -38.749867020818606 $721 -33.944984378578113 $574 $722 forward 7 unknown #
coedge $-1 $403 $402 $581 $723 reversed $159 $-1 #
edge $-1 $724 5.7742264423945871e-015 $578 7.8044232378743139 $572 $725 forward 7 unknown #
vertex $-1 $405 $726 #
straight-curve $-1 -4.7238355220779624 -26.671413021768537 6.5266699920644715 -1 0 0 I I #
coedge $-1 $571 $406 $409 $585 reversed $399 $-1 #
coedge $-1 $406 $571 $576 $723 forward $399 $-1 #
vertex $-1 $407 $727 #
straight-curve $-1 -2.988489163630673 -31.476295664009029 39.005066248484788 0 0 1 I I #
straight-curve $-1 -2.988489163630673 -31.476295664009029 0.3767004905003688 0 -0.61566146476048833 -0.78801076186113728 I I #
edge $-1 $721 -15.906852924681177 $411 -2.988489163630673 $580 $728 forward 7 unknown #
point $-1 -2.988489163630673 -31.476295664009026 6.5266699920644715 #
point $-1 -2.988489163630673 -26.671413021768537 6.5266699920644715 #
edge $-1 $729 1 $729 0 $414 $-1 forward 7 unknown #
vertex $-1 $415 $730 #
ellipse-curve $-1 -12.215891850095318 -26.462034072905322 1.4111076617182117 0 -0.78801076186113728 0.61566146476048833 1.5 0 0 1 I I #
point $-1 -10.715891850095318 -29.073854342888779 3.451685241282421 #
edge $-1 $731 1 $731 0 $418 $-1 forward 7 unknown #
vertex $-1 $419 $732 #
ellipse-curve $-1 -6.6794502382165319 -26.462034072905322 1.4111076617182117 0 -0.78801076186113728 0.61566146476048833 1.5 0 0 1 I I #
point $-1 -5.1794502382165319 -29.073854342888779 3.451685241282421 #
plane-surface $-1 0 0 6.5266699920644715 0 0 1 1 0 0 forward_v I I I I #
coedge $-1 $607 $606 $599 $733 forward $423 $-1 #
coedge $-1 $599 $425 $427 $603 reversed $275 $-1 #
coedge $-1 $425 $598 $597 $733 reversed $275 $-1 #
coedge $-1 $433 $428 $425 $601 forward $434 $-1 #
edge $-1 $604 -38.749867020818606 $734 -33.944984378578113 $600 $735 forward 7 unknown #
coedge $-1 $427 $426 $607 $736 reversed $173 $-1 #
edge $-1 $737 5.7742264423945871e-015 $604 7.8044232378743139 $598 $738 forward 7 unknown #
vertex $-1 $429 $739 #
straight-curve $-1 8.3092534260318374 -26.671413021768537 6.5266699920644715 -1 0 0 I I #
coedge $-1 $597 $430 $433 $611 reversed $423 $-1 #
coedge $-1 $430 $597 $602 $736 forward $423 $-1 #
vertex $-1 $431 $740 #
straight-curve $-1 23.077688732588925 -31.476295664009029 39.005066248484788 0 0 1 I I #
straight-curve $-1 23.077688732588925 -31.476295664009029 0.3767004905003688 0 -0.61566146476048833 -0.78801076186113728 I I #
edge $-1 $734 10.159324971538423 $435 23.077688732588925 $606 $741 forward 7 unknown #
point $-1 23.077688732588925 -31.476295664009026 6.5266699920644715 #
point $-1 23.077688732588925 -26.671413021768537 6.5266699920644715 #
edge $-1 $742 1 $742 0 $438 $-1 forward 7 unknown #
vertex $-1 $439 $743 #
ellipse-curve $-1 13.850286046124282 -26.462034072905322 1.4111076617182117 0 -0.78801076186113728 0.61566146476048833 1.5 0 0 1 I I #
point $-1 15.350286046124282 -29.073854342888779 3.451685241282421 #
edge $-1 $744 1 $744 0 $442 $-1 forward 7 unknown #
vertex $-1 $443 $745 #
ellipse-curve $-1 19.386727658003068 -26.462034072905322 1.4111076617182117 0 -0.78801076186113728 0.61566146476048833 1.5 0 0 1 I I #
point $-1 20.886727658003068 -29.073854342888779 3.451685241282421 #
plane-surface $-1 0 0 6.5266699920644715 0 0 1 1 0 0 forward_v I I I I #
coedge $-1 $633 $632 $625 $746 forward $447 $-1 #
coedge $-1 $625 $449 $451 $629 reversed $297 $-1 #
coedge $-1 $449 $624 $623 $746 reversed $297 $-1 #
coedge $-1 $457 $452 $449 $627 forward $458 $-1 #
edge $-1 $630 -38.749867020818606 $747 -33.944984378578113 $626 $748 forward 7 unknown #
coedge $-1 $451 $450 $633 $749 reversed $187 $-1 #
edge $-1 $750 5.7742264423945871e-015 $630 7.8044232378743139 $624 $751 forward 7 unknown #
vertex $-1 $453 $752 #
straight-curve $-1 21.342342374141637 -26.671413021768537 6.5266699920644715 -1 0 0 I I #
coedge $-1 $623 $454 $457 $637 reversed $447 $-1 #
coedge $-1 $454 $623 $628 $749 forward $447 $-1 #
vertex $-1 $455 $753 #
straight-curve $-1 49.143866628808524 -31.476295664009029 39.005066248484788 0 0 1 I I #
straight-curve $-1 49.143866628808524 -31.476295664009029 0.3767004905003688 0 -0.61566146476048833 -0.78801076186113728 I I #
edge $-1 $747 36.225502867758024 $459 49.143866628808524 $632 $754 forward 7 unknown #
point $-1 49.143866628808524 -31.476295664009026 6.5266699920644715 #
point $-1 49.143866628808524 -26.671413021768537 6.5266699920644715 #
edge $-1 $755 1 $755 0 $462 $-1 forward 7 unknown #
vertex $-1 $463 $756 #
ellipse-curve $-1 39.916463942343881 -26.462034072905322 1.4111076617182117 0 -0.78801076186113728 0.61566146476048833 1.5 0 0 1 I I #
point $-1 41.416463942343881 -29.073854342888779 3.451685241282421 #
edge $-1 $757 1 $757 0 $466 $-1 forward 7 unknown #
vertex $-1 $467 $758 #
ellipse-curve $-1 45.452905554222667 -26.462034072905322 1.4111076617182117 0 -0.78801076186113728 0.61566146476048833 1.5 0 0 1 I I #
point $-1 46.952905554222667 -29.073854342888779 3.451685241282421 #
plane-surface $-1 0 0 6.5266699920644715 0 0 1 1 0 0 forward_v I I I I #
coedge $-1 $659 $658 $651 $759 forward $471 $-1 #
coedge $-1 $651 $473 $475 $655 reversed $319 $-1 #
coedge $-1 $473 $650 $649 $759 reversed $319 $-1 #
coedge $-1 $481 $476 $473 $653 forward $482 $-1 #
edge $-1 $656 -26.268556342337412 $760 -23.125566941180498 $652 $761 forward 7 unknown #
coedge $-1 $475 $474 $659 $762 reversed $201 $-1 #
edge $-1 $763 -62.952591328018102 $656 -56.666612357271809 $650 $764 forward 7 unknown #
vertex $-1 $477 $765 #
straight-curve $-1 -4.881402382614386 28.333306262852112 6.5266699920644697 1 0 0 I I #
coedge $-1 $649 $478 $481 $663 reversed $471 $-1 #
coedge $-1 $478 $649 $654 $762 forward $471 $-1 #
vertex $-1 $479 $766 #
straight-curve $-1 -22.232747813589199 31.476295664009029 59.325096842724108 0 0 1 I I #
straight-curve $-1 -22.232747813589199 8.4340560135842679e-007 55.601396278185241 0 0.49999998660252726 -0.86602541151947299 I I #
edge $-1 $760 -2.7071382831316555 $483 22.232747813589199 $658 $767 forward 7 unknown #
point $-1 -22.232747813589199 31.476295664009026 6.5266699920644715 #
point $-1 -22.232747813589199 28.333306262852112 6.5266699920644697 #
edge $-1 $768 1 $768 0 $486 $-1 forward 7 unknown #
vertex $-1 $487 $769 #
ellipse-curve $-1 -15.10706607166896 27.567084735246819 2.4550801841815004 0 0.86602541151947299 0.49999998660252726 1 0 0 1 I I #
point $-1 -14.10706607166896 29.904800963430581 3.8047612295928452 #
edge $-1 $770 1 $770 0 $490 $-1 forward 7 unknown #
vertex $-1 $491 $771 #
ellipse-curve $-1 -4.4185434587885979 27.567084735246819 2.4550801841815004 0 0.86602541151947299 0.49999998660252726 1 0 0 1 I I #
point $-1 -3.4185434587885979 29.904800963430581 3.8047612295928452 #
plane-surface $-1 63.048799096652118 0 0 -1 0 0 0 0 1 forward_v I I I I #
coedge $-1 $499 $497 $501 $679 reversed $341 $-1 #
edge $-1 $512 -6.5266699920644715 $681 6.5266699920644715 $511 $772 forward 7 unknown #
vertex $-1 $679 $773 #
straight-curve $-1 -63.048799096652118 -31.476295664009026 0 0 0 -1 I I #
edge $-1 $677 -31.476295664009026 $681 31.476295664009026 $675 $774 forward 7 unknown #
straight-curve $-1 0 -31.476295664009026 -6.5266699920644715 -1 0 0 I I #
vertex $-1 $504 $775 #
straight-curve $-1 0 31.476295664009026 -6.5266699920644715 1 0 0 I I #
point $-1 63.048799096652118 31.476295664009026 -6.5266699920644715 #
point $-1 63.048799096652118 -31.476295664009026 -6.5266699920644715 #
straight-curve $-1 -63.048799096652118 0 6.5266699920644715 0 -1 0 I I #
point $-1 -63.048799096652118 31.476295664009026 6.5266699920644715 #
point $-1 -63.048799096652118 -31.476295664009026 6.5266699920644715 #
straight-curve $-1 63.048799096652118 -31.476295664009026 0 0 0 -1 I I #
straight-curve $-1 63.048799096652118 31.476295664009026 0 0 0 -1 I I #
plane-surface $-1 0 -31.476295664009026 0 0 1 0 0 0 1 forward_v I I I I #
coedge $-1 $776 $524 $536 $702 reversed $360 $-1 #
coedge $-1 $524 $776 $539 $704 reversed $360 $-1 #
edge $-1 $777 -63.048799096652118 $533 -55.877963288744382 $529 $778 forward 7 unknown #
straight-curve $-1 -55.877963288744382 -14.988147832004513 6.5266699920644715 0 1 0 I I #
coedge $-1 $536 $527 $530 $698 forward $522 $-1 #
straight-curve $-1 -55.877963288744382 -14.988147832004513 -6.5266699920644715 0 -1 0 I I #
coedge $-1 $530 $529 $776 $779 forward $531 $-1 #
edge $-1 $532 55.877963288744382 $780 63.048799096652118 $530 $781 forward 7 unknown #
point $-1 -55.877963288744382 -31.476295664009026 -6.5266699920644715 #
point $-1 -55.877963288744382 -31.476295664009026 6.5266699920644715 #
straight-curve $-1 -63.048799096652118 -28.476295664009026 0 0 0 -1 I I #
edge $-1 $780 -31.476295664009026 $537 -28.476295664009026 $691 $782 forward 7 unknown #
point $-1 -63.048799096652118 -28.476295664009026 -6.5266699920644715 #
edge $-1 $540 28.476295664009026 $777 31.476295664009026 $692 $783 forward 7 unknown #
point $-1 -63.048799096652118 -28.476295664009026 6.5266699920644715 #
coedge $-1 $555 $554 $547 $707 forward $544 $-1 #
edge $-1 $708 32.478396256420318 $711 38.628365757984412 $706 $784 forward 7 unknown #
vertex $-1 $559 $785 #
straight-curve $-1 -41.973030820900775 -65.421280042587142 6.5266699920644697 0 -1 0 I I #
edge $-1 $711 -24.216106350713012 $556 -11.297742589662512 $555 $786 forward 7 unknown #
vertex $-1 $710 $787 #
straight-curve $-1 -41.973030820900775 -31.476295664009029 0.3767004905003688 0 0.61566146476048833 0.78801076186113728 I I #
point $-1 -41.973030820900775 -26.671413021768537 6.5266699920644715 #
point $-1 -29.054667059850274 -31.476295664009026 0.37670049050037335 #
straight-curve $-1 0 -31.476295664009026 6.5266699920644715 1 0 0 I I #
vertex $-1 $562 $788 #
point $-1 -36.782069746314917 -26.462034072905322 1.4111076617182117 #
vertex $-1 $566 $789 #
point $-1 -31.245628134436132 -26.462034072905322 1.4111076617182117 #
edge $-1 $721 32.478396256420318 $724 38.628365757984412 $571 $790 forward 7 unknown #
vertex $-1 $585 $791 #
straight-curve $-1 -15.906852924681177 -65.421280042587142 6.5266699920644697 0 -1 0 I I #
edge $-1 $724 -11.183017402603214 $582 1.7353463584472895 $581 $792 forward 7 unknown #
vertex $-1 $723 $793 #
straight-curve $-1 -15.906852924681177 -31.476295664009029 0.3767004905003688 0 0.61566146476048833 0.78801076186113728 I I #
point $-1 -15.906852924681177 -26.671413021768537 6.5266699920644715 #
point $-1 -2.988489163630673 -31.476295664009026 0.37670049050037335 #
straight-curve $-1 0 -31.476295664009026 6.5266699920644715 1 0 0 I I #
vertex $-1 $588 $794 #
point $-1 -10.715891850095318 -26.462034072905322 1.4111076617182117 #
vertex $-1 $592 $795 #
point $-1 -5.1794502382165319 -26.462034072905322 1.4111076617182117 #
edge $-1 $734 32.478396256420318 $737 38.628365757984412 $597 $796 forward 7 unknown #
vertex $-1 $611 $797 #
straight-curve $-1 10.159324971538423 -65.421280042587142 6.5266699920644697 0 -1 0 I I #
edge $-1 $737 1.8500715455065855 $608 14.768435306557087 $607 $798 forward 7 unknown #
vertex $-1 $736 $799 #
straight-curve $-1 10.159324971538423 -31.476295664009029 0.3767004905003688 0 0.61566146476048833 0.78801076186113728 I I #
point $-1 10.159324971538423 -26.671413021768537 6.5266699920644715 #
point $-1 23.077688732588925 -31.476295664009026 0.37670049050037335 #
straight-curve $-1 0 -31.476295664009026 6.5266699920644715 1 0 0 I I #
vertex $-1 $614 $800 #
point $-1 15.350286046124282 -26.462034072905322 1.4111076617182117 #
vertex $-1 $618 $801 #
point $-1 20.886727658003068 -26.462034072905322 1.4111076617182117 #
edge $-1 $747 32.478396256420318 $750 38.628365757984412 $623 $802 forward 7 unknown #
vertex $-1 $637 $803 #
straight-curve $-1 36.225502867758024 -65.421280042587142 6.5266699920644697 0 -1 0 I I #
edge $-1 $750 14.883160493616387 $634 27.801524254666887 $633 $804 forward 7 unknown #
vertex $-1 $749 $805 #
straight-curve $-1 36.225502867758024 -31.476295664009029 0.3767004905003688 0 0.61566146476048833 0.78801076186113728 I I #
point $-1 36.225502867758024 -26.671413021768537 6.5266699920644715 #
point $-1 49.143866628808524 -31.476295664009026 0.37670049050037335 #
straight-curve $-1 0 -31.476295664009026 6.5266699920644715 1 0 0 I I #
vertex $-1 $640 $806 #
point $-1 41.416463942343881 -26.462034072905322 1.4111076617182117 #
vertex $-1 $644 $807 #
point $-1 46.952905554222667 -26.462034072905322 1.4111076617182117 #
edge $-1 $760 52.798426850659638 $763 58.242244375602951 $649 $808 forward 7 unknown #
vertex $-1 $663 $809 #
straight-curve $-1 2.7071382831316555 54.601862605189524 6.5266699920644697 0 1 0 I I #
edge $-1 $763 -7.5885406657460415 $660 17.351345430974813 $659 $810 forward 7 unknown #
vertex $-1 $762 $811 #
straight-curve $-1 2.7071382831316555 8.4340560135842679e-007 55.601396278185241 0 -0.49999998660252726 0.86602541151947299 I I #
point $-1 2.7071382831316555 28.333306262852112 6.5266699920644697 #
point $-1 -22.232747813589199 31.476295664009026 1.0828524671211568 #
straight-curve $-1 0 31.476295664009026 6.5266699920644715 -1 0 0 I I #
vertex $-1 $666 $812 #
point $-1 -14.10706607166896 27.567084735246819 2.4550801841815004 #
vertex $-1 $670 $813 #
point $-1 -3.4185434587885979 27.567084735246819 2.4550801841815004 #
straight-curve $-1 -63.048799096652118 31.476295664009026 0 0 0 -1 I I #
point $-1 -63.048799096652118 -31.476295664009026 -6.5266699920644715 #
straight-curve $-1 -63.048799096652118 0 -6.5266699920644715 0 1 0 I I #
point $-1 -63.048799096652118 31.476295664009026 -6.5266699920644715 #
coedge $-1 $692 $691 $697 $779 reversed $360 $-1 #
vertex $-1 $704 $814 #
straight-curve $-1 0 -31.476295664009026 6.5266699920644715 1 0 0 I I #
edge $-1 $777 -6.5266699920644715 $780 6.5266699920644715 $776 $815 forward 7 unknown #
vertex $-1 $702 $816 #
straight-curve $-1 0 -31.476295664009026 -6.5266699920644715 -1 0 0 I I #
straight-curve $-1 -63.048799096652118 0 -6.5266699920644715 0 1 0 I I #
straight-curve $-1 -63.048799096652118 0 6.5266699920644715 0 -1 0 I I #
straight-curve $-1 -41.973030820900775 -31.476295664009029 39.005066248484788 0 0 -1 I I #
point $-1 -41.973030820900775 -31.476295664009026 6.5266699920644715 #
straight-curve $-1 -17.756924470187762 -31.476295664009026 0.37670049050037407 1 0 0 I I #
point $-1 -41.973030820900775 -31.476295664009026 0.37670049050037335 #
point $-1 -38.282069746314917 -25.280017930113619 0.48761546457747912 #
point $-1 -32.745628134436132 -25.280017930113619 0.48761546457747912 #
straight-curve $-1 -15.906852924681177 -31.476295664009029 39.005066248484788 0 0 -1 I I #
point $-1 -15.906852924681177 -31.476295664009026 6.5266699920644715 #
straight-curve $-1 -4.7238355220779624 -31.476295664009026 0.37670049050037407 1 0 0 I I #
point $-1 -15.906852924681177 -31.476295664009026 0.37670049050037335 #
point $-1 -12.215891850095318 -25.280017930113619 0.48761546457747912 #
point $-1 -6.6794502382165319 -25.280017930113619 0.48761546457747912 #
straight-curve $-1 10.159324971538423 -31.476295664009029 39.005066248484788 0 0 -1 I I #
point $-1 10.159324971538423 -31.476295664009026 6.5266699920644715 #
straight-curve $-1 8.3092534260318374 -31.476295664009026 0.37670049050037407 1 0 0 I I #
point $-1 10.159324971538423 -31.476295664009026 0.37670049050037335 #
point $-1 13.850286046124282 -25.280017930113619 0.48761546457747912 #
point $-1 19.386727658003068 -25.280017930113619 0.48761546457747912 #
straight-curve $-1 36.225502867758024 -31.476295664009029 39.005066248484788 0 0 -1 I I #
point $-1 36.225502867758024 -31.476295664009026 6.5266699920644715 #
straight-curve $-1 21.342342374141637 -31.476295664009026 0.37670049050037407 1 0 0 I I #
point $-1 36.225502867758024 -31.476295664009026 0.37670049050037335 #
point $-1 39.916463942343881 -25.280017930113619 0.48761546457747912 #
point $-1 45.452905554222667 -25.280017930113619 0.48761546457747912 #
straight-curve $-1 2.7071382831316555 31.476295664009029 59.325096842724108 0 0 -1 I I #
point $-1 2.7071382831316555 31.476295664009026 6.5266699920644715 #
straight-curve $-1 -4.881402382614386 31.476295664009026 1.0828524671211568 -1 0 0 I I #
point $-1 2.7071382831316555 31.476295664009026 1.0828524671211568 #
point $-1 -15.10706607166896 26.701059323727346 1.9550801975789729 #
point $-1 -4.4185434587885979 26.701059323727346 1.9550801975789729 #
point $-1 -63.048799096652118 -31.476295664009026 6.5266699920644715 #
straight-curve $-1 -63.048799096652118 -31.476295664009026 0 0 0 -1 I I #
point $-1 -63.048799096652118 -31.476295664009026 -6.5266699920644715 #
End-of-ACIS-data 