500 0 4 0           
7 Unknown 11 ACIS 5.0 NT 24 Thu Mar 25 18:58:42 1999 
-1 9.9999999999999995e-007 1e-010 
body $-1 $4 $-1 $5 #
body $-1 $6 $-1 $7 #
body $-1 $8 $-1 $9 #
body $-1 $10 $-1 $11 #
lump $-1 $-1 $12 $0 #
transform $-1 1 0 0 0 1 0 0 0 1 64.932401501510668 31.649170533186659 13.174678367646292 1 rotate no_reflect no_shear #
lump $-1 $-1 $13 $1 #
transform $-1 1 0 0 0 1 0 0 0 1 64.932401501510668 31.649170533186659 13.174678367646292 1 rotate no_reflect no_shear #
lump $-1 $-1 $14 $2 #
transform $-1 1 0 0 0 1 0 0 0 1 64.932401501510668 31.649170533186659 13.174678367646292 1 rotate no_reflect no_shear #
lump $-1 $-1 $15 $3 #
transform $-1 1 0 0 0 1 0 0 0 1 64.932401501510668 31.649170533186659 13.174678367646292 1 rotate no_reflect no_shear #
shell $-1 $-1 $-1 $16 $-1 $4 #
shell $-1 $-1 $-1 $17 $-1 $6 #
shell $-1 $-1 $-1 $18 $-1 $8 #
shell $-1 $-1 $-1 $19 $-1 $10 #
face $-1 $20 $21 $12 $-1 $22 forward single #
face $-1 $23 $24 $13 $-1 $25 reversed single #
face $-1 $26 $27 $14 $-1 $28 reversed single #
face $-1 $29 $30 $15 $-1 $31 forward single #
face $-1 $32 $33 $12 $-1 $34 reversed single #
loop $-1 $-1 $35 $16 #
plane-surface $-1 0 0 13.174678367646292 0 0 1 1 0 0 forward_v I I I I #
face $-1 $36 $37 $13 $-1 $38 reversed single #
loop $-1 $-1 $39 $17 #
plane-surface $-1 0 -25.087435265451397 6.4567865526401054 0 0 1 1 0 0 forward_v I I I I #
face $-1 $40 $41 $14 $-1 $42 reversed single #
loop $-1 $-1 $43 $18 #
plane-surface $-1 17.611635636793331 61.72215468160212 141.63528956066651 1 0 0 0 -0.61566148304635926 -0.78801074757464917 forward_v I I I I #
face $-1 $44 $45 $15 $-1 $46 forward single #
loop $-1 $47 $48 $19 #
cone-surface $-1 35.234559303686382 21.646905263834388 4.471399127419371 0 -0.61566148304635926 -0.78801074757464917 5 0 0 1 I I 0 1 5 forward I I I I #
face $-1 $49 $50 $12 $-1 $51 reversed single #
loop $-1 $-1 $52 $20 #
plane-surface $-1 0 0 -13.174678367646292 0 0 1 1 0 0 forward_v I I I I #
coedge $-1 $53 $54 $55 $56 forward $21 $-1 #
face $-1 $57 $58 $13 $-1 $59 reversed single #
loop $-1 $-1 $60 $23 #
plane-surface $-1 0 -18.525699997716135 9.8157324601432006 0 -1 0 0 0 -1 forward_v I I I I #
coedge $-1 $61 $62 $63 $64 reversed $24 $-1 #
face $-1 $65 $66 $14 $-1 $67 reversed single #
loop $-1 $-1 $68 $26 #
plane-surface $-1 35.234559303686382 -18.230602530761288 39.30042906262112 0 0.61566148304635926 0.78801074757464917 1 0 0 forward_v I I I I #
coedge $-1 $69 $70 $71 $72 reversed $27 $-1 #
face $-1 $-1 $73 $15 $-1 $74 forward single #
loop $-1 $75 $76 $29 #
cone-surface $-1 35.234559303686382 18.325655163102258 0.22039293841723939 0 -0.61566148304635926 -0.78801074757464917 2.5 0 0 1 I I -0.70710678118654757 0.70710678118654746 2.5 forward I I I I #
loop $-1 $-1 $77 $19 #
coedge $-1 $48 $48 $78 $79 reversed $30 $-1 #
face $-1 $80 $81 $12 $-1 $82 reversed single #
loop $-1 $-1 $83 $32 #
plane-surface $-1 0 -31.649170533186659 0 0 1 0 0 0 1 forward_v I I I I #
coedge $-1 $84 $85 $86 $87 forward $33 $-1 #
coedge $-1 $88 $35 $89 $90 forward $21 $-1 #
coedge $-1 $35 $88 $91 $92 forward $21 $-1 #
coedge $-1 $93 $94 $35 $56 reversed $95 $-1 #
edge $-1 $96 -31.649170533186659 $97 31.649170533186659 $55 $98 forward 7 unknown #
face $-1 $99 $100 $13 $-1 $101 reversed single #
loop $-1 $-1 $102 $36 #
plane-surface $-1 -64.932401501510668 0 0 1 0 0 0 0 -1 forward_v I I I I #
coedge $-1 $103 $104 $105 $106 reversed $37 $-1 #
coedge $-1 $107 $39 $108 $109 reversed $24 $-1 #
coedge $-1 $39 $107 $103 $110 forward $24 $-1 #
coedge $-1 $105 $111 $39 $64 forward $112 $-1 #
edge $-1 $113 -19.105452900460961 $114 -5.9819823649904365 $63 $115 forward 7 unknown #
face $-1 $116 $117 $14 $-1 $118 forward single #
loop $-1 $-1 $119 $40 #
plane-surface $-1 52.857482970579433 61.72215468160212 141.63528956066651 -1 0 0 0 0.61566148304635926 0.78801074757464917 forward_v I I I I #
coedge $-1 $120 $121 $122 $123 reversed $41 $-1 #
coedge $-1 $70 $43 $124 $125 reversed $27 $-1 #
coedge $-1 $43 $69 $120 $126 reversed $27 $-1 #
coedge $-1 $122 $127 $43 $72 forward $117 $-1 #
edge $-1 $128 -0.78809319238559894 $129 15.652244560086487 $71 $130 forward 7 unknown #
loop $-1 $-1 $78 $44 #
plane-surface $-1 35.234559303686382 -18.230602530761288 39.30042906262112 0 0.61566148304635926 0.78801074757464917 1 0 0 forward_v I I I I #
loop $-1 $-1 $131 $29 #
coedge $-1 $76 $76 $77 $132 reversed $45 $-1 #
coedge $-1 $77 $77 $76 $132 forward $47 $-1 #
coedge $-1 $78 $78 $48 $79 forward $73 $-1 #
edge $-1 $133 -3.2809034584941053e-016 $133 6.2831853071796004 $78 $134 forward 7 unknown #
face $-1 $135 $136 $12 $-1 $137 reversed single #
loop $-1 $-1 $138 $49 #
plane-surface $-1 -64.932401501510668 0 0 1 0 0 0 0 -1 forward_v I I I I #
coedge $-1 $139 $91 $140 $141 forward $50 $-1 #
coedge $-1 $142 $52 $139 $143 forward $33 $-1 #
coedge $-1 $52 $142 $144 $145 forward $33 $-1 #
coedge $-1 $94 $93 $52 $87 reversed $95 $-1 #
edge $-1 $146 -31.649170533186659 $147 31.649170533186659 $86 $148 forward 7 unknown #
coedge $-1 $54 $53 $149 $150 forward $21 $-1 #
coedge $-1 $151 $152 $53 $90 reversed $136 $-1 #
edge $-1 $97 -64.932401501510668 $153 64.932401501510668 $89 $154 forward 7 unknown #
coedge $-1 $83 $155 $54 $92 reversed $50 $-1 #
edge $-1 $156 -64.932401501510668 $96 64.932401501510668 $91 $157 forward 7 unknown #
coedge $-1 $86 $55 $155 $158 forward $95 $-1 #
coedge $-1 $55 $86 $151 $159 reversed $95 $-1 #
loop $-1 $-1 $93 $135 #
vertex $-1 $56 $160 #
vertex $-1 $56 $161 #
straight-curve $-1 64.932401501510668 0 13.174678367646292 0 1 0 I I #
face $-1 $162 $163 $13 $-1 $164 forward single #
loop $-1 $-1 $108 $57 #
plane-surface $-1 0 -31.649170533186659 0 0 1 0 0 0 1 forward_v I I I I #
coedge $-1 $165 $166 $167 $168 forward $58 $-1 #
coedge $-1 $167 $60 $62 $110 reversed $37 $-1 #
coedge $-1 $60 $167 $169 $170 reversed $37 $-1 #
coedge $-1 $171 $63 $60 $106 forward $112 $-1 #
edge $-1 $114 1.5489203225685051 $172 8.2668121375746964 $105 $173 forward 7 unknown #
coedge $-1 $62 $61 $165 $174 reversed $24 $-1 #
coedge $-1 $175 $176 $61 $109 forward $100 $-1 #
edge $-1 $177 -64.932401501510668 $113 64.932401501510668 $108 $178 forward 7 unknown #
edge $-1 $179 -64.932401501510668 $114 64.932401501510668 $103 $180 forward 7 unknown #
coedge $-1 $63 $171 $175 $181 forward $112 $-1 #
loop $-1 $-1 $105 $162 #
vertex $-1 $109 $182 #
vertex $-1 $64 $183 #
straight-curve $-1 64.932401501510668 -12.543717632725699 6.4567865526401054 0 1 0 I I #
face $-1 $-1 $184 $14 $-1 $185 reversed single #
loop $-1 $-1 $71 $65 #
plane-surface $-1 0 0 13.174678367646292 0 0 1 1 0 0 forward_v I I I I #
coedge $-1 $186 $187 $188 $189 reversed $66 $-1 #
coedge $-1 $190 $68 $70 $126 forward $41 $-1 #
coedge $-1 $68 $190 $186 $191 forward $41 $-1 #
coedge $-1 $188 $71 $68 $123 forward $117 $-1 #
edge $-1 $129 -0.0056440150498602293 $192 35.240203318736242 $122 $193 forward 7 unknown #
coedge $-1 $194 $195 $69 $125 forward $184 $-1 #
edge $-1 $196 -70.487566253009788 $128 -57.64296641268696 $124 $197 forward 7 unknown #
edge $-1 $129 42.435252836837869 $196 63.298341066373311 $70 $198 forward 7 unknown #
coedge $-1 $71 $188 $194 $199 forward $117 $-1 #
vertex $-1 $125 $200 #
vertex $-1 $72 $201 #
straight-curve $-1 17.611635636793331 30.86107734080106 13.174678367646294 0 -1 0 I I #
coedge $-1 $131 $131 $-1 $202 reversed $75 $-1 #
edge $-1 $203 0 $203 6.2831853071796004 $76 $204 forward 7 unknown #
vertex $-1 $79 $205 #
ellipse-curve $-1 35.234559303686382 23.429001656950618 6.7523784474848769 0 0.61566148304635926 0.78801074757464917 5 0 0 1 I I #
face $-1 $-1 $95 $12 $-1 $206 reversed single #
loop $-1 $-1 $151 $80 #
plane-surface $-1 0 31.649170533186659 0 0 -1 0 0 0 -1 forward_v I I I I #
coedge $-1 $207 $149 $152 $208 forward $81 $-1 #
coedge $-1 $155 $83 $84 $143 reversed $50 $-1 #
coedge $-1 $149 $207 $83 $141 reversed $81 $-1 #
edge $-1 $156 -13.174678367646292 $209 13.174678367646292 $140 $210 forward 7 unknown #
coedge $-1 $85 $84 $207 $211 forward $33 $-1 #
edge $-1 $147 -64.932401501510668 $209 64.932401501510668 $139 $212 forward 7 unknown #
coedge $-1 $152 $151 $85 $145 reversed $136 $-1 #
edge $-1 $213 -64.932401501510668 $146 64.932401501510668 $144 $214 forward 7 unknown #
vertex $-1 $87 $215 #
vertex $-1 $158 $216 #
straight-curve $-1 64.932401501510668 0 -13.174678367646292 0 -1 0 I I #
coedge $-1 $138 $140 $88 $150 reversed $81 $-1 #
edge $-1 $153 -31.649170533186659 $156 31.649170533186659 $149 $217 forward 7 unknown #
coedge $-1 $144 $89 $94 $159 forward $136 $-1 #
coedge $-1 $89 $144 $138 $208 reversed $136 $-1 #
vertex $-1 $90 $218 #
straight-curve $-1 0 31.649170533186659 13.174678367646292 -1 0 0 I I #
coedge $-1 $91 $139 $93 $158 reversed $50 $-1 #
vertex $-1 $150 $219 #
straight-curve $-1 0 -31.649170533186659 13.174678367646292 1 0 0 I I #
edge $-1 $96 -13.174678367646292 $147 13.174678367646292 $93 $220 forward 7 unknown #
edge $-1 $97 -13.174678367646292 $146 13.174678367646292 $94 $221 forward 7 unknown #
point $-1 64.932401501510668 -31.649170533186659 13.174678367646292 #
point $-1 64.932401501510668 31.649170533186659 13.174678367646292 #
face $-1 $-1 $112 $13 $-1 $222 reversed single #
loop $-1 $-1 $169 $99 #
plane-surface $-1 0 0 13.174678367646292 0 0 1 1 0 0 forward_v I I I I #
coedge $-1 $223 $102 $107 $174 forward $58 $-1 #
coedge $-1 $102 $223 $224 $225 reversed $58 $-1 #
coedge $-1 $104 $103 $102 $168 reversed $37 $-1 #
edge $-1 $226 -8.2668121375746964 $179 -1.5489203225685051 $102 $227 forward 7 unknown #
coedge $-1 $224 $228 $104 $170 forward $163 $-1 #
edge $-1 $172 -64.932401501510668 $226 64.932401501510668 $169 $229 forward 7 unknown #
coedge $-1 $111 $105 $228 $230 reversed $112 $-1 #
vertex $-1 $106 $231 #
straight-curve $-1 64.932401501510668 -18.525699997716135 4.9078662300716003 0 0 1 I I #
edge $-1 $179 5.9819823649904365 $177 19.105452900460961 $165 $232 forward 7 unknown #
coedge $-1 $233 $108 $111 $181 reversed $100 $-1 #
coedge $-1 $108 $233 $223 $234 forward $100 $-1 #
vertex $-1 $109 $235 #
straight-curve $-1 0 -31.649170533186659 6.4567865526401054 1 0 0 I I #
vertex $-1 $174 $236 #
straight-curve $-1 0 -18.525699997716135 6.4567865526401054 1 0 0 I I #
edge $-1 $237 -13.174678367646292 $113 -6.4567865526401054 $111 $238 forward 7 unknown #
point $-1 64.932401501510668 -31.649170533186659 6.4567865526401054 #
point $-1 64.932401501510668 -18.525699997716135 6.4567865526401054 #
loop $-1 $-1 $124 $116 #
plane-surface $-1 0 31.649170533186659 0 0 -1 0 0 0 -1 forward_v I I I I #
coedge $-1 $187 $119 $121 $191 reversed $66 $-1 #
coedge $-1 $119 $186 $239 $240 reversed $66 $-1 #
coedge $-1 $127 $122 $119 $189 forward $117 $-1 #
edge $-1 $192 -15.652244560086487 $241 0.78809319238559894 $188 $242 forward 7 unknown #
coedge $-1 $121 $120 $195 $243 reversed $41 $-1 #
edge $-1 $244 -63.298341066373311 $192 -42.435252836837869 $186 $245 forward 7 unknown #
vertex $-1 $123 $246 #
straight-curve $-1 17.617279651843191 15.208832780714575 13.174678367646294 1 0 0 I I #
coedge $-1 $239 $124 $127 $199 reversed $184 $-1 #
coedge $-1 $124 $239 $190 $243 forward $184 $-1 #
vertex $-1 $125 $247 #
straight-curve $-1 17.611635636793331 31.649170533186659 70.817644780333254 0 0 1 I I #
straight-curve $-1 17.611635636793331 -18.230602530761288 39.30042906262112 0 0.78801074757464917 -0.61566148304635926 I I #
edge $-1 $241 -52.857482970579433 $128 -17.611635636793331 $194 $248 forward 7 unknown #
point $-1 17.611635636793331 31.649170533186659 13.174678367646292 #
point $-1 17.611635636793331 15.208832780714573 13.174678367646294 #
edge $-1 $249 1 $249 0 $131 $-1 forward 7 unknown #
vertex $-1 $132 $250 #
ellipse-curve $-1 35.234559303686382 19.864808870718157 2.1904198073538619 0 0.61566148304635926 0.78801074757464917 5 0 0 1 I I #
point $-1 40.234559303686382 23.429001656950618 6.7523784474848796 #
plane-surface $-1 64.932401501510668 0 0 -1 0 0 0 0 1 forward_v I I I I #
coedge $-1 $140 $138 $142 $211 reversed $81 $-1 #
edge $-1 $153 -13.174678367646292 $213 13.174678367646292 $152 $251 forward 7 unknown #
vertex $-1 $211 $252 #
straight-curve $-1 -64.932401501510668 -31.649170533186659 0 0 0 -1 I I #
edge $-1 $209 -31.649170533186659 $213 31.649170533186659 $207 $253 forward 7 unknown #
straight-curve $-1 0 -31.649170533186659 -13.174678367646292 -1 0 0 I I #
vertex $-1 $145 $254 #
straight-curve $-1 0 31.649170533186659 -13.174678367646292 1 0 0 I I #
point $-1 64.932401501510668 31.649170533186659 -13.174678367646292 #
point $-1 64.932401501510668 -31.649170533186659 -13.174678367646292 #
straight-curve $-1 -64.932401501510668 0 13.174678367646292 0 -1 0 I I #
point $-1 -64.932401501510668 31.649170533186659 13.174678367646292 #
point $-1 -64.932401501510668 -31.649170533186659 13.174678367646292 #
straight-curve $-1 64.932401501510668 -31.649170533186659 0 0 0 -1 I I #
straight-curve $-1 64.932401501510668 31.649170533186659 0 0 0 -1 I I #
plane-surface $-1 64.932401501510668 0 0 -1 0 0 0 0 1 forward_v I I I I #
coedge $-1 $166 $165 $176 $234 reversed $58 $-1 #
coedge $-1 $255 $169 $166 $225 forward $163 $-1 #
edge $-1 $226 18.525699997716135 $256 31.649170533186659 $166 $257 forward 7 unknown #
vertex $-1 $225 $258 #
straight-curve $-1 -64.932401501510668 -18.525699997716135 4.9078662300716003 0 0 -1 I I #
coedge $-1 $169 $255 $171 $230 forward $163 $-1 #
straight-curve $-1 0 -18.525699997716135 13.174678367646292 -1 0 0 I I #
edge $-1 $237 -31.649170533186659 $172 -18.525699997716135 $171 $259 forward 7 unknown #
point $-1 64.932401501510668 -18.525699997716135 13.174678367646296 #
straight-curve $-1 -64.932401501510668 -12.543717632725699 6.4567865526401054 0 -1 0 I I #
coedge $-1 $176 $175 $255 $260 reversed $100 $-1 #
edge $-1 $256 -13.174678367646292 $177 -6.4567865526401054 $223 $261 forward 7 unknown #
point $-1 -64.932401501510668 -31.649170533186659 6.4567865526401054 #
point $-1 -64.932401501510668 -18.525699997716135 6.4567865526401054 #
vertex $-1 $230 $262 #
straight-curve $-1 64.932401501510668 -31.649170533186659 0 0 0 -1 I I #
coedge $-1 $195 $194 $187 $240 forward $184 $-1 #
edge $-1 $241 57.64296641268696 $244 70.487566253009788 $239 $263 forward 7 unknown #
vertex $-1 $199 $264 #
straight-curve $-1 52.857482970579433 30.86107734080106 13.174678367646294 0 1 0 I I #
edge $-1 $244 -35.240203318736242 $196 0.0056440150498602293 $195 $265 forward 7 unknown #
vertex $-1 $243 $266 #
straight-curve $-1 52.857482970579433 -18.230602530761288 39.30042906262112 0 -0.78801074757464917 0.61566148304635926 I I #
point $-1 52.857482970579433 15.208832780714573 13.174678367646294 #
point $-1 17.611635636793331 31.649170533186663 0.33007852732346521 #
straight-curve $-1 0 31.649170533186659 13.174678367646292 -1 0 0 I I #
vertex $-1 $202 $267 #
point $-1 40.234559303686382 19.864808870718157 2.1904198073538619 #
straight-curve $-1 -64.932401501510668 31.649170533186659 0 0 0 -1 I I #
point $-1 -64.932401501510668 -31.649170533186659 -13.174678367646292 #
straight-curve $-1 -64.932401501510668 0 -13.174678367646292 0 1 0 I I #
point $-1 -64.932401501510668 31.649170533186659 -13.174678367646292 #
coedge $-1 $228 $224 $233 $260 forward $163 $-1 #
vertex $-1 $225 $268 #
straight-curve $-1 -64.932401501510668 0 13.174678367646292 0 -1 0 I I #
point $-1 -64.932401501510668 -18.525699997716135 13.174678367646296 #
straight-curve $-1 64.932401501510668 0 13.174678367646292 0 1 0 I I #
edge $-1 $256 -64.932401501510668 $237 64.932401501510668 $233 $269 forward 7 unknown #
straight-curve $-1 -64.932401501510668 -31.649170533186659 0 0 0 -1 I I #
point $-1 64.932401501510668 -31.649170533186659 13.174678367646292 #
straight-curve $-1 52.857482970579433 31.649170533186659 70.817644780333254 0 0 -1 I I #
point $-1 52.857482970579433 31.649170533186659 13.174678367646292 #
straight-curve $-1 17.617279651843191 31.649170533186663 0.3300785273234581 -1 0 0 I I #
point $-1 52.857482970579433 31.649170533186663 0.33007852732346521 #
point $-1 35.234559303686382 16.786501455486359 -1.7496339305193831 #
point $-1 -64.932401501510668 -31.649170533186659 13.174678367646292 #
straight-curve $-1 0 -31.649170533186659 13.174678367646292 1 0 0 I I #
End-of-ACIS-data 