500 0 3 0           
7 Unknown 11 ACIS 5.0 NT 24 Fri Mar 26 01:30:49 1999 
-1 9.9999999999999995e-007 1e-010 
body $-1 $3 $-1 $4 #
body $-1 $5 $-1 $6 #
body $-1 $7 $-1 $8 #
lump $-1 $-1 $9 $0 #
transform $-1 1 0 0 0 1 0 0 0 1 54.789269692068238 27.798778236780077 11.810344911405963 1 rotate no_reflect no_shear #
lump $-1 $-1 $10 $1 #
transform $-1 1 0 0 0 1 0 0 0 1 54.789269692068238 27.798778236780077 11.810344911405963 1 rotate no_reflect no_shear #
lump $-1 $-1 $11 $2 #
transform $-1 1 0 0 0 1 0 0 0 1 54.789269692068238 27.798778236780077 11.810344911405963 1 rotate no_reflect no_shear #
shell $-1 $-1 $-1 $12 $-1 $3 #
shell $-1 $-1 $-1 $13 $-1 $5 #
shell $-1 $-1 $-1 $14 $-1 $7 #
face $-1 $15 $16 $9 $-1 $17 forward single #
face $-1 $18 $19 $10 $-1 $20 reversed single #
face $-1 $21 $22 $11 $-1 $23 forward single #
face $-1 $24 $25 $9 $-1 $26 reversed single #
loop $-1 $-1 $27 $12 #
plane-surface $-1 0 0 11.810344911405963 0 0 1 1 0 0 forward_v I I I I #
face $-1 $28 $29 $10 $-1 $30 reversed single #
loop $-1 $-1 $31 $13 #
plane-surface $-1 41.335491718211905 -27.798778236780066 8.1962262011898517 0 -0.87461971476443456 0.48480960649040278 1 0 0 forward_v I I I I #
face $-1 $32 $33 $11 $-1 $34 forward single #
loop $-1 $35 $36 $14 #
cone-surface $-1 41.335491718211905 -26.039881014173567 9.5835472913811888 0 0.87461971476443456 -0.48480960649040278 0.5 0 0 1 I I 0 1 0.5 forward I I I I #
face $-1 $37 $38 $9 $-1 $39 reversed single #
loop $-1 $-1 $40 $15 #
plane-surface $-1 0 0 -11.810344911405963 0 0 1 1 0 0 forward_v I I I I #
coedge $-1 $41 $42 $43 $44 forward $16 $-1 #
face $-1 $45 $46 $10 $-1 $47 reversed single #
loop $-1 $-1 $48 $18 #
plane-surface $-1 27.881713744355579 -123.63832909723688 61.320954759806156 1 0 0 0 0.87461971476443456 -0.48480960649040278 forward_v I I I I #
coedge $-1 $49 $50 $51 $52 reversed $19 $-1 #
face $-1 $-1 $53 $11 $-1 $54 forward single #
loop $-1 $55 $56 $21 #
cone-surface $-1 41.335491718211905 -25.06399818277082 9.0426066248418664 0 0.87461971476443456 -0.48480960649040278 0.25 0 0 1 I I -0.70710678118654746 0.70710678118654746 0.25 forward I I I I #
loop $-1 $-1 $57 $14 #
coedge $-1 $36 $36 $58 $59 reversed $22 $-1 #
face $-1 $60 $61 $9 $-1 $62 reversed single #
loop $-1 $-1 $63 $24 #
plane-surface $-1 0 -27.798778236780077 0 0 1 0 0 0 1 forward_v I I I I #
coedge $-1 $64 $65 $66 $67 forward $25 $-1 #
coedge $-1 $68 $27 $69 $70 forward $16 $-1 #
coedge $-1 $27 $68 $71 $72 forward $16 $-1 #
coedge $-1 $73 $74 $27 $44 reversed $75 $-1 #
edge $-1 $76 -27.798778236780077 $77 27.798778236780077 $43 $78 forward 7 unknown #
face $-1 $79 $80 $10 $-1 $81 forward single #
loop $-1 $-1 $82 $28 #
plane-surface $-1 0 -27.798778236780077 0 0 1 0 0 0 1 forward_v I I I I #
coedge $-1 $83 $84 $85 $86 reversed $29 $-1 #
coedge $-1 $87 $31 $88 $89 reversed $19 $-1 #
coedge $-1 $31 $87 $83 $90 forward $19 $-1 #
coedge $-1 $85 $91 $31 $52 forward $80 $-1 #
edge $-1 $92 -34.121523832962282 $93 -7.2139678852496267 $51 $94 forward 7 unknown #
loop $-1 $-1 $58 $32 #
plane-surface $-1 41.335491718211905 -27.798778236780066 8.1962262011898517 0 -0.87461971476443456 0.48480960649040278 1 0 0 forward_v I I I I #
loop $-1 $-1 $95 $21 #
coedge $-1 $56 $56 $57 $96 reversed $33 $-1 #
coedge $-1 $57 $57 $56 $96 forward $35 $-1 #
coedge $-1 $58 $58 $36 $59 forward $53 $-1 #
edge $-1 $97 -1.0125180503774558e-015 $97 6.2831853071795996 $58 $98 forward 7 unknown #
face $-1 $99 $100 $9 $-1 $101 reversed single #
loop $-1 $-1 $102 $37 #
plane-surface $-1 -54.789269692068238 0 0 1 0 0 0 0 -1 forward_v I I I I #
coedge $-1 $103 $71 $104 $105 forward $38 $-1 #
coedge $-1 $106 $40 $103 $107 forward $25 $-1 #
coedge $-1 $40 $106 $108 $109 forward $25 $-1 #
coedge $-1 $74 $73 $40 $67 reversed $75 $-1 #
edge $-1 $110 -27.798778236780077 $111 27.798778236780077 $66 $112 forward 7 unknown #
coedge $-1 $42 $41 $113 $114 forward $16 $-1 #
coedge $-1 $115 $116 $41 $70 reversed $100 $-1 #
edge $-1 $77 -54.789269692068238 $117 54.789269692068238 $69 $118 forward 7 unknown #
coedge $-1 $63 $119 $42 $72 reversed $38 $-1 #
edge $-1 $120 -54.789269692068238 $76 54.789269692068238 $71 $121 forward 7 unknown #
coedge $-1 $66 $43 $119 $122 forward $75 $-1 #
coedge $-1 $43 $66 $115 $123 reversed $75 $-1 #
loop $-1 $-1 $73 $99 #
vertex $-1 $44 $124 #
vertex $-1 $44 $125 #
straight-curve $-1 54.789269692068238 0 11.810344911405963 0 1 0 I I #
face $-1 $-1 $126 $10 $-1 $127 reversed single #
loop $-1 $-1 $85 $45 #
plane-surface $-1 0 0 11.810344911405963 0 0 1 1 0 0 forward_v I I I I #
coedge $-1 $128 $129 $84 $130 forward $46 $-1 #
coedge $-1 $84 $48 $50 $90 reversed $29 $-1 #
coedge $-1 $48 $83 $82 $130 reversed $29 $-1 #
coedge $-1 $131 $51 $48 $86 forward $80 $-1 #
edge $-1 $93 -36.023724951628111 $132 -34.020386311838365 $85 $133 forward 7 unknown #
coedge $-1 $50 $49 $128 $134 reversed $19 $-1 #
coedge $-1 $135 $136 $49 $89 forward $126 $-1 #
edge $-1 $137 -3.1542668578289539 $92 0.97795043524857361 $88 $138 forward 7 unknown #
edge $-1 $139 -2.2257172995934122e-014 $93 4.1322172930775052 $83 $140 forward 7 unknown #
coedge $-1 $51 $131 $135 $141 forward $80 $-1 #
vertex $-1 $89 $142 #
vertex $-1 $52 $143 #
straight-curve $-1 20.667745859105953 -25.795439596990324 11.810344911405963 -1 0 0 I I #
coedge $-1 $95 $95 $-1 $144 reversed $55 $-1 #
edge $-1 $145 0 $145 6.2831853071796004 $56 $146 forward 7 unknown #
vertex $-1 $59 $147 #
ellipse-curve $-1 41.335491718211905 -26.797108916885197 10.003285556297906 0 -0.87461971476443456 0.48480960649040278 0.5 0 0 1 I I #
face $-1 $-1 $75 $9 $-1 $148 reversed single #
loop $-1 $-1 $115 $60 #
plane-surface $-1 0 27.798778236780077 0 0 -1 0 0 0 -1 forward_v I I I I #
coedge $-1 $149 $113 $116 $150 forward $61 $-1 #
coedge $-1 $119 $63 $64 $107 reversed $38 $-1 #
coedge $-1 $113 $149 $63 $105 reversed $61 $-1 #
edge $-1 $120 -11.810344911405963 $151 11.810344911405963 $104 $152 forward 7 unknown #
coedge $-1 $65 $64 $149 $153 forward $25 $-1 #
edge $-1 $111 -54.789269692068238 $151 54.789269692068238 $103 $154 forward 7 unknown #
coedge $-1 $116 $115 $65 $109 reversed $100 $-1 #
edge $-1 $155 -54.789269692068238 $110 54.789269692068238 $108 $156 forward 7 unknown #
vertex $-1 $67 $157 #
vertex $-1 $122 $158 #
straight-curve $-1 54.789269692068238 0 -11.810344911405963 0 -1 0 I I #
coedge $-1 $102 $104 $68 $114 reversed $61 $-1 #
edge $-1 $117 -27.798778236780077 $120 27.798778236780077 $113 $159 forward 7 unknown #
coedge $-1 $108 $69 $74 $123 forward $100 $-1 #
coedge $-1 $69 $108 $102 $150 reversed $100 $-1 #
vertex $-1 $70 $160 #
straight-curve $-1 0 27.798778236780077 11.810344911405963 -1 0 0 I I #
coedge $-1 $71 $103 $73 $122 reversed $38 $-1 #
vertex $-1 $114 $161 #
straight-curve $-1 0 -27.798778236780077 11.810344911405963 1 0 0 I I #
edge $-1 $76 -11.810344911405963 $111 11.810344911405963 $73 $162 forward 7 unknown #
edge $-1 $77 -11.810344911405963 $110 11.810344911405963 $74 $163 forward 7 unknown #
point $-1 54.789269692068238 -27.798778236780077 11.810344911405963 #
point $-1 54.789269692068238 27.798778236780077 11.810344911405963 #
loop $-1 $-1 $88 $79 #
plane-surface $-1 54.789269692068238 0 0 -1 0 0 0 0 1 forward_v I I I I #
coedge $-1 $164 $82 $87 $134 forward $46 $-1 #
coedge $-1 $82 $164 $131 $165 reversed $46 $-1 #
edge $-1 $132 18.850132468497115 $139 22.464251178713248 $82 $166 forward 7 unknown #
coedge $-1 $91 $85 $129 $165 forward $80 $-1 #
vertex $-1 $165 $167 #
straight-curve $-1 27.881713744355579 -61.819164548618438 11.810344911405963 0 -1 0 I I #
edge $-1 $139 7.2139678852496267 $137 34.121523832962282 $128 $168 forward 7 unknown #
coedge $-1 $136 $88 $91 $141 reversed $126 $-1 #
coedge $-1 $88 $135 $164 $169 forward $126 $-1 #
vertex $-1 $134 $170 #
straight-curve $-1 54.789269692068238 -26.269559362670304 10.955010180675101 0 0.48480960649040278 0.87461971476443456 I I #
vertex $-1 $134 $171 #
straight-curve $-1 27.881713744355579 -27.798778236780066 8.1962262011898517 0 0.48480960649040278 0.87461971476443456 I I #
edge $-1 $172 -27.798778236780077 $92 -25.795439596990324 $135 $173 forward 7 unknown #
point $-1 54.789269692068231 -25.795439596990324 11.810344911405963 #
point $-1 27.881713744355579 -25.795439596990324 11.810344911405963 #
edge $-1 $174 1 $174 0 $95 $-1 forward 7 unknown #
vertex $-1 $96 $175 #
ellipse-curve $-1 41.335491718211905 -25.282653111461929 9.1638090264644667 0 -0.87461971476443456 0.48480960649040278 0.5 0 0 1 I I #
point $-1 41.835491718211905 -26.797108916885207 10.003285556297911 #
plane-surface $-1 54.789269692068238 0 0 -1 0 0 0 0 1 forward_v I I I I #
coedge $-1 $104 $102 $106 $153 reversed $61 $-1 #
edge $-1 $117 -11.810344911405963 $155 11.810344911405963 $116 $176 forward 7 unknown #
vertex $-1 $153 $177 #
straight-curve $-1 -54.789269692068238 -27.798778236780077 0 0 0 -1 I I #
edge $-1 $151 -27.798778236780077 $155 27.798778236780077 $149 $178 forward 7 unknown #
straight-curve $-1 0 -27.798778236780077 -11.810344911405963 -1 0 0 I I #
vertex $-1 $109 $179 #
straight-curve $-1 0 27.798778236780077 -11.810344911405963 1 0 0 I I #
point $-1 54.789269692068238 27.798778236780077 -11.810344911405963 #
point $-1 54.789269692068238 -27.798778236780077 -11.810344911405963 #
straight-curve $-1 -54.789269692068238 0 11.810344911405963 0 -1 0 I I #
point $-1 -54.789269692068238 27.798778236780077 11.810344911405963 #
point $-1 -54.789269692068238 -27.798778236780077 11.810344911405963 #
straight-curve $-1 54.789269692068238 -27.798778236780077 0 0 0 -1 I I #
straight-curve $-1 54.789269692068238 27.798778236780077 0 0 0 -1 I I #
coedge $-1 $129 $128 $136 $169 reversed $46 $-1 #
edge $-1 $132 27.881713744355579 $172 54.789269692068238 $129 $180 forward 7 unknown #
straight-curve $-1 27.881713744355579 -27.79877823678008 30.660477379903078 0 0 -1 I I #
point $-1 27.881713744355579 -27.798778236780077 11.810344911405963 #
straight-curve $-1 20.667745859105953 -27.798778236780077 8.1962262011898375 1 0 0 I I #
edge $-1 $172 -11.810344911405963 $137 -8.1962262011898321 $136 $181 forward 7 unknown #
point $-1 54.789269692068231 -27.798778236780077 8.1962262011898321 #
point $-1 27.881713744355579 -27.798778236780077 8.1962262011898321 #
vertex $-1 $141 $182 #
straight-curve $-1 54.789269692068238 0 11.810344911405963 0 1 0 I I #
vertex $-1 $144 $183 #
point $-1 41.835491718211905 -25.282653111461929 9.1638090264644667 #
straight-curve $-1 -54.789269692068238 27.798778236780077 0 0 0 -1 I I #
point $-1 -54.789269692068238 -27.798778236780077 -11.810344911405963 #
straight-curve $-1 -54.789269692068238 0 -11.810344911405963 0 1 0 I I #
point $-1 -54.789269692068238 27.798778236780077 -11.810344911405963 #
straight-curve $-1 0 -27.798778236780077 11.810344911405963 1 0 0 I I #
straight-curve $-1 54.789269692068238 -27.798778236780077 0 0 0 -1 I I #
point $-1 54.789269692068238 -27.798778236780077 11.810344911405963 #
point $-1 41.335491718211905 -24.845343254079712 8.9214042232192661 #
End-of-ACIS-data 