500 0 8 0           
7 Unknown 11 ACIS 5.0 NT 24 Fri Mar 26 02:50:35 1999 
-1 9.9999999999999995e-007 1e-010 
body $-1 $8 $-1 $9 #
body $-1 $10 $-1 $11 #
body $-1 $12 $-1 $13 #
body $-1 $14 $-1 $15 #
body $-1 $16 $-1 $17 #
body $-1 $18 $-1 $19 #
body $-1 $20 $-1 $21 #
body $-1 $22 $-1 $23 #
lump $-1 $-1 $24 $0 #
transform $-1 1 0 0 0 1 0 0 0 1 62.650837733085112 40.950286936996889 10.121658189725572 1 rotate no_reflect no_shear #
lump $-1 $-1 $25 $1 #
transform $-1 1 0 0 0 1 0 0 0 1 62.650837733085112 40.950286936996889 10.121658189725572 1 rotate no_reflect no_shear #
lump $-1 $-1 $26 $2 #
transform $-1 1 0 0 0 1 0 0 0 1 62.650837733085112 40.950286936996889 10.121658189725572 1 rotate no_reflect no_shear #
lump $-1 $-1 $27 $3 #
transform $-1 1 0 0 0 1 0 0 0 1 62.650837733085112 40.950286936996889 10.121658189725572 1 rotate no_reflect no_shear #
lump $-1 $-1 $28 $4 #
transform $-1 1 0 0 0 1 0 0 0 1 62.650837733085112 40.950286936996889 10.121658189725572 1 rotate no_reflect no_shear #
lump $-1 $-1 $29 $5 #
transform $-1 1 0 0 0 1 0 0 0 1 62.650837733085112 40.950286936996889 10.121658189725572 1 rotate no_reflect no_shear #
lump $-1 $-1 $30 $6 #
transform $-1 1 0 0 0 1 0 0 0 1 62.650837733085112 40.950286936996889 10.121658189725572 1 rotate no_reflect no_shear #
lump $-1 $-1 $31 $7 #
transform $-1 1 0 0 0 1 0 0 0 1 62.650837733085112 40.950286936996889 10.121658189725572 1 rotate no_reflect no_shear #
shell $-1 $-1 $-1 $32 $-1 $8 #
shell $-1 $-1 $-1 $33 $-1 $10 #
shell $-1 $-1 $-1 $34 $-1 $12 #
shell $-1 $-1 $-1 $35 $-1 $14 #
shell $-1 $-1 $-1 $36 $-1 $16 #
shell $-1 $-1 $-1 $37 $-1 $18 #
shell $-1 $-1 $-1 $38 $-1 $20 #
shell $-1 $-1 $-1 $39 $-1 $22 #
face $-1 $40 $41 $24 $-1 $42 forward single #
face $-1 $43 $44 $25 $-1 $45 forward single #
face $-1 $46 $47 $26 $-1 $48 reversed single #
face $-1 $49 $50 $27 $-1 $51 forward single #
face $-1 $52 $53 $28 $-1 $54 forward single #
face $-1 $55 $56 $29 $-1 $57 reversed single #
face $-1 $58 $59 $30 $-1 $60 forward single #
face $-1 $61 $62 $31 $-1 $63 forward single #
face $-1 $64 $65 $24 $-1 $66 reversed single #
loop $-1 $-1 $67 $32 #
plane-surface $-1 0 0 10.121658189725572 0 0 1 1 0 0 forward_v I I I I #
face $-1 $68 $69 $25 $-1 $70 reversed single #
loop $-1 $-1 $71 $33 #
plane-surface $-1 -62.650837733085112 0 0 1 0 0 0 0 -1 forward_v I I I I #
face $-1 $72 $73 $26 $-1 $74 reversed single #
loop $-1 $-1 $75 $34 #
plane-surface $-1 -52.968518878974123 96.615173220759857 144.45917680658772 1 0 0 0 -0.81915205242281985 -0.57357642473473569 forward_v I I I I #
face $-1 $76 $77 $27 $-1 $78 forward single #
loop $-1 $79 $80 $35 #
cone-surface $-1 -43.500665213039909 38.18150758628439 7.0051036597491896 0 -0.81915205242281985 -0.57357642473473569 1 0 0 1 I I 0 1 1 forward I I I I #
face $-1 $81 $82 $28 $-1 $83 forward single #
loop $-1 $84 $85 $36 #
cone-surface $-1 -29.298884714138595 38.18150758628439 7.0051036597491896 0 -0.81915205242281985 -0.57357642473473569 1 0 0 1 I I 0 1 1 forward I I I I #
face $-1 $86 $87 $29 $-1 $88 reversed single #
loop $-1 $-1 $89 $37 #
plane-surface $-1 -29.444865058800922 -126.40582513400859 96.13404922520985 -1 0 0 0 -0.68199836817093118 0.7313536940579346 forward_v I I I I #
face $-1 $90 $91 $30 $-1 $92 forward single #
loop $-1 $93 $94 $38 #
cone-surface $-1 -46.247474930353206 -36.127227582111679 5.3715478089183613 0 0.68199836817093118 -0.7313536940579346 1.5 0 0 1 I I 0 1 1.5 forward I I I I #
face $-1 $95 $96 $31 $-1 $97 forward single #
loop $-1 $98 $99 $39 #
cone-surface $-1 -36.165909007421831 -36.127227582111679 5.3715478089183613 0 0.68199836817093118 -0.7313536940579346 1.5 0 0 1 I I 0 1 1.5 forward I I I I #
face $-1 $100 $101 $24 $-1 $102 reversed single #
loop $-1 $-1 $103 $40 #
plane-surface $-1 0 0 -10.121658189725572 0 0 1 1 0 0 forward_v I I I I #
coedge $-1 $104 $105 $106 $107 forward $41 $-1 #
face $-1 $108 $109 $25 $-1 $110 reversed single #
loop $-1 $-1 $111 $43 #
plane-surface $-1 0 0 -10.121658189725572 0 0 1 1 0 0 forward_v I I I I #
coedge $-1 $112 $113 $114 $115 forward $44 $-1 #
face $-1 $116 $117 $26 $-1 $118 reversed single #
loop $-1 $-1 $119 $46 #
plane-surface $-1 -36.399774963589252 -6.0259514093715723 72.589089779429656 0 0.81915205242281985 0.57357642473473569 1 0 0 forward_v I I I I #
coedge $-1 $120 $121 $122 $123 reversed $47 $-1 #
face $-1 $-1 $124 $27 $-1 $125 forward single #
loop $-1 $126 $127 $49 #
cone-surface $-1 -43.500665213039909 36.621188796772259 5.9125567142977857 0 -0.81915205242281985 -0.57357642473473569 0.5 0 0 1 I I -0.70710678118654746 0.70710678118654746 0.5 forward I I I I #
loop $-1 $-1 $128 $35 #
coedge $-1 $80 $80 $129 $130 reversed $50 $-1 #
face $-1 $-1 $131 $28 $-1 $132 forward single #
loop $-1 $133 $134 $52 #
cone-surface $-1 -29.298884714138595 36.621188796772259 5.9125567142977857 0 -0.81915205242281985 -0.57357642473473569 0.5 0 0 1 I I -0.70710678118654746 0.70710678118654746 0.5 forward I I I I #
loop $-1 $-1 $135 $36 #
coedge $-1 $85 $85 $136 $137 reversed $53 $-1 #
face $-1 $138 $139 $29 $-1 $140 reversed single #
loop $-1 $-1 $141 $55 #
plane-surface $-1 -41.206691968887519 -40.950286936996903 4.4942060013777763 0 -0.68199836817093118 0.7313536940579346 1 0 0 forward_v I I I I #
coedge $-1 $142 $143 $144 $145 reversed $56 $-1 #
face $-1 $-1 $146 $30 $-1 $147 forward single #
loop $-1 $148 $149 $58 #
cone-surface $-1 -46.247474930353206 -33.810021206000897 2.8866482517415992 0 0.68199836817093118 -0.7313536940579346 0.75 0 0 1 I I -0.70710678118654757 0.70710678118654757 0.75 forward I I I I #
loop $-1 $-1 $150 $38 #
coedge $-1 $94 $94 $151 $152 reversed $59 $-1 #
face $-1 $-1 $153 $31 $-1 $154 forward single #
loop $-1 $155 $156 $61 #
cone-surface $-1 -36.165909007421831 -33.810021206000897 2.8866482517415992 0 0.68199836817093118 -0.7313536940579346 0.75 0 0 1 I I -0.70710678118654757 0.70710678118654757 0.75 forward I I I I #
loop $-1 $-1 $157 $39 #
coedge $-1 $99 $99 $158 $159 reversed $62 $-1 #
face $-1 $160 $161 $24 $-1 $162 reversed single #
loop $-1 $-1 $163 $64 #
plane-surface $-1 0 -40.950286936996889 0 0 1 0 0 0 1 forward_v I I I I #
coedge $-1 $164 $165 $166 $167 forward $65 $-1 #
coedge $-1 $168 $67 $169 $170 forward $41 $-1 #
coedge $-1 $67 $168 $171 $172 forward $41 $-1 #
coedge $-1 $173 $174 $67 $107 reversed $175 $-1 #
edge $-1 $176 -40.950286936996889 $177 40.950286936996889 $106 $178 forward 7 unknown #
face $-1 $179 $180 $25 $-1 $181 reversed single #
loop $-1 $-1 $182 $68 #
plane-surface $-1 -67.491997160140613 -24.010139589987268 0 0 1 0 0 0 1 forward_v I I I I #
coedge $-1 $183 $184 $113 $185 forward $69 $-1 #
coedge $-1 $186 $71 $187 $188 reversed $44 $-1 #
coedge $-1 $71 $186 $111 $185 reversed $44 $-1 #
coedge $-1 $189 $190 $71 $115 reversed $191 $-1 #
edge $-1 $192 -10.121658189725572 $193 10.121658189725572 $114 $194 forward 7 unknown #
face $-1 $195 $196 $26 $-1 $197 forward single #
loop $-1 $-1 $198 $72 #
plane-surface $-1 -19.831031048204384 96.615173220759857 144.45917680658772 -1 0 0 0 0.81915205242281985 0.57357642473473569 forward_v I I I I #
coedge $-1 $199 $200 $201 $202 reversed $73 $-1 #
coedge $-1 $121 $75 $203 $204 reversed $47 $-1 #
coedge $-1 $75 $120 $199 $205 reversed $47 $-1 #
coedge $-1 $201 $206 $75 $123 forward $196 $-1 #
edge $-1 $207 7.3572996733830394 $208 10.593372848206592 $122 $209 forward 7 unknown #
loop $-1 $-1 $129 $76 #
plane-surface $-1 -36.399774963589252 -6.0259514093715723 72.589089779429656 0 0.81915205242281985 0.57357642473473569 1 0 0 forward_v I I I I #
loop $-1 $-1 $210 $49 #
coedge $-1 $127 $127 $128 $211 reversed $77 $-1 #
coedge $-1 $128 $128 $127 $211 forward $79 $-1 #
coedge $-1 $129 $129 $80 $130 forward $124 $-1 #
edge $-1 $212 1.8928460937401204e-015 $212 6.2831853071796022 $129 $213 forward 7 unknown #
loop $-1 $-1 $136 $81 #
plane-surface $-1 -36.399774963589252 -6.0259514093715723 72.589089779429656 0 0.81915205242281985 0.57357642473473569 1 0 0 forward_v I I I I #
loop $-1 $-1 $214 $52 #
coedge $-1 $134 $134 $135 $215 reversed $82 $-1 #
coedge $-1 $135 $135 $134 $215 forward $84 $-1 #
coedge $-1 $136 $136 $85 $137 forward $131 $-1 #
edge $-1 $216 1.8928460937401204e-015 $216 6.2831853071796022 $136 $217 forward 7 unknown #
face $-1 $218 $219 $29 $-1 $220 forward single #
loop $-1 $-1 $221 $86 #
plane-surface $-1 -52.968518878974116 -126.40582513400859 96.13404922520985 1 0 0 0 0.68199836817093118 -0.7313536940579346 forward_v I I I I #
coedge $-1 $222 $223 $224 $225 reversed $87 $-1 #
coedge $-1 $143 $89 $226 $227 reversed $56 $-1 #
coedge $-1 $89 $142 $222 $228 reversed $56 $-1 #
coedge $-1 $224 $229 $89 $145 forward $219 $-1 #
edge $-1 $230 22.252625630007408 $231 28.287329139812641 $144 $232 forward 7 unknown #
loop $-1 $-1 $151 $90 #
plane-surface $-1 -41.206691968887519 -40.950286936996903 4.4942060013777763 0 -0.68199836817093118 0.7313536940579346 1 0 0 forward_v I I I I #
loop $-1 $-1 $233 $58 #
coedge $-1 $149 $149 $150 $234 reversed $91 $-1 #
coedge $-1 $150 $150 $149 $234 forward $93 $-1 #
coedge $-1 $151 $151 $94 $152 forward $146 $-1 #
edge $-1 $235 -5.7385452197294479e-016 $235 6.2831853071795996 $151 $236 forward 7 unknown #
loop $-1 $-1 $158 $95 #
plane-surface $-1 -41.206691968887519 -40.950286936996903 4.4942060013777763 0 -0.68199836817093118 0.7313536940579346 1 0 0 forward_v I I I I #
loop $-1 $-1 $237 $61 #
coedge $-1 $156 $156 $157 $238 reversed $96 $-1 #
coedge $-1 $157 $157 $156 $238 forward $98 $-1 #
coedge $-1 $158 $158 $99 $159 forward $153 $-1 #
edge $-1 $239 -5.7385452197294479e-016 $239 6.2831853071795996 $158 $240 forward 7 unknown #
face $-1 $241 $242 $24 $-1 $243 reversed single #
loop $-1 $-1 $244 $100 #
plane-surface $-1 -62.650837733085112 0 0 1 0 0 0 0 -1 forward_v I I I I #
coedge $-1 $245 $171 $246 $247 forward $101 $-1 #
coedge $-1 $248 $103 $245 $249 forward $65 $-1 #
coedge $-1 $103 $248 $250 $251 forward $65 $-1 #
coedge $-1 $174 $173 $103 $167 reversed $175 $-1 #
edge $-1 $252 -40.950286936996889 $253 40.950286936996889 $166 $254 forward 7 unknown #
coedge $-1 $105 $104 $255 $256 forward $41 $-1 #
coedge $-1 $257 $258 $104 $170 reversed $242 $-1 #
edge $-1 $177 -62.650837733085112 $259 62.650837733085112 $169 $260 forward 7 unknown #
coedge $-1 $163 $261 $105 $172 reversed $101 $-1 #
edge $-1 $262 -62.650837733085112 $176 62.650837733085112 $171 $263 forward 7 unknown #
coedge $-1 $166 $106 $261 $264 forward $175 $-1 #
coedge $-1 $106 $166 $257 $265 reversed $175 $-1 #
loop $-1 $-1 $173 $241 #
vertex $-1 $107 $266 #
vertex $-1 $107 $267 #
straight-curve $-1 62.650837733085112 0 10.121658189725572 0 1 0 I I #
face $-1 $268 $191 $25 $-1 $269 reversed single #
loop $-1 $-1 $270 $108 #
plane-surface $-1 -72.333156587196115 -22.358555073766507 0 1 0 0 0 0 -1 forward_v I I I I #
coedge $-1 $271 $272 $273 $274 forward $109 $-1 #
coedge $-1 $275 $111 $271 $276 forward $69 $-1 #
coedge $-1 $111 $275 $189 $277 forward $69 $-1 #
edge $-1 $192 20.706970557545745 $278 24.010139589987268 $111 $279 forward 7 unknown #
coedge $-1 $113 $112 $280 $281 forward $44 $-1 #
coedge $-1 $282 $283 $112 $188 forward $284 $-1 #
edge $-1 $285 -24.010139589987268 $193 -20.706970557545745 $187 $286 forward 7 unknown #
coedge $-1 $287 $114 $184 $277 reversed $191 $-1 #
coedge $-1 $114 $287 $282 $288 reversed $191 $-1 #
loop $-1 $-1 $114 $179 #
vertex $-1 $185 $289 #
vertex $-1 $288 $290 #
straight-curve $-1 -62.650837733085112 -20.706970557545745 0 0 0 1 I I #
face $-1 $-1 $291 $26 $-1 $292 reversed single #
loop $-1 $-1 $122 $116 #
plane-surface $-1 0 0 10.121658189725572 0 0 1 1 0 0 forward_v I I I I #
coedge $-1 $293 $294 $295 $296 reversed $117 $-1 #
coedge $-1 $297 $119 $121 $205 forward $73 $-1 #
coedge $-1 $119 $297 $293 $298 forward $73 $-1 #
coedge $-1 $295 $122 $119 $202 forward $196 $-1 #
edge $-1 $208 -34.768631397179497 $299 -1.631143566409758 $201 $300 forward 7 unknown #
coedge $-1 $301 $302 $120 $204 forward $291 $-1 #
edge $-1 $303 -66.729521807352995 $207 -62.107930213568288 $203 $304 forward 7 unknown #
edge $-1 $208 76.258652352689722 $303 81.900573873993807 $121 $305 forward 7 unknown #
coedge $-1 $122 $295 $301 $306 forward $196 $-1 #
vertex $-1 $204 $307 #
vertex $-1 $123 $308 #
straight-curve $-1 -52.968518878974123 48.307586610379929 10.121658189725565 0 -1 0 I I #
coedge $-1 $210 $210 $-1 $309 reversed $126 $-1 #
edge $-1 $310 0 $310 6.2831853071796004 $127 $311 forward 7 unknown #
vertex $-1 $130 $312 #
ellipse-curve $-1 -43.500665213039909 39.332250349585109 7.810862392833223 0 0.81915205242281985 0.57357642473473569 1 0 0 1 I I #
coedge $-1 $214 $214 $-1 $313 reversed $133 $-1 #
edge $-1 $314 0 $314 6.2831853071796004 $134 $315 forward 7 unknown #
vertex $-1 $137 $316 #
ellipse-curve $-1 -29.298884714138595 39.332250349585109 7.810862392833223 0 0.81915205242281985 0.57357642473473569 1 0 0 1 I I #
face $-1 $-1 $317 $29 $-1 $318 reversed single #
loop $-1 $-1 $144 $138 #
plane-surface $-1 0 0 10.121658189725572 0 0 1 1 0 0 forward_v I I I I #
coedge $-1 $319 $320 $321 $322 reversed $139 $-1 #
coedge $-1 $323 $141 $143 $228 forward $87 $-1 #
coedge $-1 $141 $323 $319 $324 forward $87 $-1 #
coedge $-1 $321 $144 $141 $225 forward $219 $-1 #
edge $-1 $231 8.8415190743571621 $325 32.36517289453036 $224 $326 forward 7 unknown #
coedge $-1 $327 $328 $142 $227 forward $317 $-1 #
edge $-1 $329 -43.572818611227135 $230 -37.945366422879353 $226 $330 forward 7 unknown #
edge $-1 $231 -8.2514159138535845 $329 -1.9479204584885432e-014 $143 $331 forward 7 unknown #
coedge $-1 $144 $321 $327 $332 forward $219 $-1 #
vertex $-1 $145 $333 #
vertex $-1 $145 $334 #
straight-curve $-1 -29.444865058800922 -63.202912567004297 10.121658189725572 0 1 0 I I #
coedge $-1 $233 $233 $-1 $335 reversed $148 $-1 #
edge $-1 $336 0 $336 6.2831853071796004 $149 $337 forward 7 unknown #
vertex $-1 $152 $338 #
ellipse-curve $-1 -46.247474930353206 -37.932935182094276 7.3079320955516813 0 -0.68199836817093118 0.7313536940579346 1.5 0 0 1 I I #
coedge $-1 $237 $237 $-1 $339 reversed $155 $-1 #
edge $-1 $340 0 $340 6.2831853071796004 $156 $341 forward 7 unknown #
vertex $-1 $159 $342 #
ellipse-curve $-1 -36.165909007421831 -37.932935182094276 7.3079320955516813 0 -0.68199836817093118 0.7313536940579346 1.5 0 0 1 I I #
face $-1 $-1 $175 $24 $-1 $343 reversed single #
loop $-1 $-1 $257 $160 #
plane-surface $-1 0 40.950286936996889 0 0 -1 0 0 0 -1 forward_v I I I I #
coedge $-1 $344 $255 $258 $345 forward $161 $-1 #
coedge $-1 $261 $163 $164 $249 reversed $101 $-1 #
coedge $-1 $255 $344 $163 $247 reversed $161 $-1 #
edge $-1 $262 -10.121658189725572 $346 10.121658189725572 $246 $347 forward 7 unknown #
coedge $-1 $165 $164 $344 $348 forward $65 $-1 #
edge $-1 $253 -62.650837733085112 $346 62.650837733085112 $245 $349 forward 7 unknown #
coedge $-1 $258 $257 $165 $251 reversed $242 $-1 #
edge $-1 $350 -62.650837733085112 $252 62.650837733085112 $250 $351 forward 7 unknown #
vertex $-1 $167 $352 #
vertex $-1 $264 $353 #
straight-curve $-1 62.650837733085112 0 -10.121658189725572 0 -1 0 I I #
coedge $-1 $244 $246 $168 $256 reversed $161 $-1 #
edge $-1 $259 -40.950286936996889 $262 40.950286936996889 $255 $354 forward 7 unknown #
coedge $-1 $250 $169 $174 $265 forward $242 $-1 #
coedge $-1 $169 $250 $244 $345 reversed $242 $-1 #
vertex $-1 $170 $355 #
straight-curve $-1 0 40.950286936996889 10.121658189725572 -1 0 0 I I #
coedge $-1 $171 $245 $173 $264 reversed $101 $-1 #
vertex $-1 $256 $356 #
straight-curve $-1 0 -40.950286936996889 10.121658189725572 1 0 0 I I #
edge $-1 $176 -10.121658189725572 $253 10.121658189725572 $173 $357 forward 7 unknown #
edge $-1 $177 -10.121658189725572 $252 10.121658189725572 $174 $358 forward 7 unknown #
point $-1 62.650837733085112 -40.950286936996889 10.121658189725572 #
point $-1 62.650837733085112 40.950286936996889 10.121658189725572 #
face $-1 $-1 $284 $25 $-1 $359 forward single #
plane-surface $-1 -67.491997160140613 -20.706970557545745 0 0 -1 0 0 0 -1 forward_v I I I I #
coedge $-1 $360 $361 $287 $362 forward $180 $-1 #
coedge $-1 $280 $182 $183 $276 reversed $109 $-1 #
coedge $-1 $182 $280 $283 $363 reversed $109 $-1 #
coedge $-1 $361 $360 $182 $274 reversed $180 $-1 #
edge $-1 $364 -10.121658189725572 $365 10.121658189725572 $273 $366 forward 7 unknown #
coedge $-1 $184 $183 $360 $367 forward $69 $-1 #
edge $-1 $278 -4.8411594270554943 $365 4.8411594270555014 $271 $368 forward 7 unknown #
edge $-1 $369 -4.8411594270555014 $192 4.8411594270554943 $189 $370 forward 7 unknown #
vertex $-1 $276 $371 #
straight-curve $-1 -62.650837733085112 0 -10.121658189725572 0 -1 0 I I #
coedge $-1 $272 $271 $186 $281 reversed $109 $-1 #
edge $-1 $285 -10.121658189725572 $278 10.121658189725572 $280 $372 forward 7 unknown #
coedge $-1 $373 $187 $190 $288 forward $284 $-1 #
coedge $-1 $187 $373 $272 $363 forward $284 $-1 #
loop $-1 $-1 $187 $268 #
vertex $-1 $188 $374 #
straight-curve $-1 -62.650837733085112 0 10.121658189725572 0 1 0 I I #
coedge $-1 $190 $189 $270 $362 reversed $191 $-1 #
edge $-1 $193 -4.8411594270554943 $375 4.8411594270555014 $190 $376 forward 7 unknown #
point $-1 -62.650837733085119 -20.706970557545745 -10.121658189725572 #
point $-1 -62.650837733085119 -20.706970557545745 10.121658189725572 #
loop $-1 $-1 $203 $195 #
plane-surface $-1 0 40.950286936996889 0 0 -1 0 0 0 -1 forward_v I I I I #
coedge $-1 $294 $198 $200 $298 reversed $117 $-1 #
coedge $-1 $198 $293 $377 $378 reversed $117 $-1 #
coedge $-1 $206 $201 $198 $296 forward $196 $-1 #
edge $-1 $299 -10.593372848206592 $379 -7.3572996733830394 $295 $380 forward 7 unknown #
coedge $-1 $200 $199 $302 $381 reversed $73 $-1 #
edge $-1 $382 -81.900573873993807 $299 -76.258652352689722 $293 $383 forward 7 unknown #
vertex $-1 $202 $384 #
straight-curve $-1 -18.199887481794626 37.714213762173337 10.121658189725572 1 0 0 I I #
coedge $-1 $377 $203 $206 $306 reversed $291 $-1 #
coedge $-1 $203 $377 $297 $381 forward $291 $-1 #
vertex $-1 $204 $385 #
straight-curve $-1 -52.968518878974123 40.950286936996889 72.22958840329386 0 0 1 I I #
straight-curve $-1 -52.968518878974123 -6.0259514093715723 72.589089779429656 0 0.57357642473473569 -0.81915205242281985 I I #
edge $-1 $379 19.831031048204384 $207 52.968518878974123 $301 $386 forward 7 unknown #
point $-1 -52.968518878974123 40.950286936996889 10.121658189725572 #
point $-1 -52.968518878974123 37.714213762173337 10.121658189725572 #
edge $-1 $387 1 $387 0 $210 $-1 forward 7 unknown #
vertex $-1 $211 $388 #
ellipse-curve $-1 -43.500665213039909 37.03076482298367 6.1993449266651535 0 0.81915205242281985 0.57357642473473569 1 0 0 1 I I #
point $-1 -42.500665213039909 39.332250349585117 7.8108623928332257 #
edge $-1 $389 1 $389 0 $214 $-1 forward 7 unknown #
vertex $-1 $215 $390 #
ellipse-curve $-1 -29.298884714138595 37.03076482298367 6.1993449266651535 0 0.81915205242281985 0.57357642473473569 1 0 0 1 I I #
point $-1 -28.298884714138595 39.332250349585117 7.8108623928332257 #
loop $-1 $-1 $226 $218 #
plane-surface $-1 0 -40.950286936996889 0 0 1 0 0 0 1 forward_v I I I I #
coedge $-1 $320 $221 $223 $324 reversed $139 $-1 #
coedge $-1 $221 $319 $391 $392 reversed $139 $-1 #
coedge $-1 $229 $224 $221 $322 forward $219 $-1 #
edge $-1 $325 -28.287329139812641 $393 -22.252625630007408 $321 $394 forward 7 unknown #
coedge $-1 $223 $222 $328 $395 reversed $87 $-1 #
edge $-1 $396 1.9479204584885432e-014 $325 8.2514159138535845 $319 $397 forward 7 unknown #
vertex $-1 $225 $398 #
straight-curve $-1 -20.603345984443759 -34.915583427191663 10.121658189725572 -1 0 0 I I #
coedge $-1 $391 $226 $229 $332 reversed $317 $-1 #
coedge $-1 $226 $391 $323 $395 forward $317 $-1 #
vertex $-1 $227 $399 #
straight-curve $-1 -29.444865058800922 -40.950286936996889 48.067024612604925 0 0 1 I I #
straight-curve $-1 -29.444865058800922 -40.950286936996903 4.4942060013777763 0 -0.7313536940579346 -0.68199836817093118 I I #
edge $-1 $393 -52.968518878974116 $230 -29.444865058800922 $327 $400 forward 7 unknown #
point $-1 -29.444865058800922 -40.950286936996889 10.121658189725572 #
point $-1 -29.444865058800922 -34.915583427191656 10.121658189725572 #
edge $-1 $401 1 $401 0 $233 $-1 forward 7 unknown #
vertex $-1 $234 $402 #
ellipse-curve $-1 -46.247474930353206 -34.321519982129097 3.4351635222850501 0 -0.68199836817093118 0.7313536940579346 1.5 0 0 1 I I #
point $-1 -44.747474930353206 -37.932935182094269 7.3079320955516724 #
edge $-1 $403 1 $403 0 $237 $-1 forward 7 unknown #
vertex $-1 $238 $404 #
ellipse-curve $-1 -36.165909007421831 -34.321519982129097 3.4351635222850501 0 -0.68199836817093118 0.7313536940579346 1.5 0 0 1 I I #
point $-1 -34.665909007421831 -37.932935182094269 7.3079320955516724 #
plane-surface $-1 62.650837733085112 0 0 -1 0 0 0 0 1 forward_v I I I I #
coedge $-1 $246 $244 $248 $348 reversed $161 $-1 #
edge $-1 $259 -10.121658189725572 $350 10.121658189725572 $258 $405 forward 7 unknown #
vertex $-1 $348 $406 #
straight-curve $-1 -62.650837733085112 -40.950286936996889 0 0 0 -1 I I #
edge $-1 $346 -40.950286936996889 $350 40.950286936996889 $344 $407 forward 7 unknown #
straight-curve $-1 0 -40.950286936996889 -10.121658189725572 -1 0 0 I I #
vertex $-1 $251 $408 #
straight-curve $-1 0 40.950286936996889 -10.121658189725572 1 0 0 I I #
point $-1 62.650837733085112 40.950286936996889 -10.121658189725572 #
point $-1 62.650837733085112 -40.950286936996889 -10.121658189725572 #
straight-curve $-1 -62.650837733085112 0 10.121658189725572 0 -1 0 I I #
point $-1 -62.650837733085112 40.950286936996889 10.121658189725572 #
point $-1 -62.650837733085112 -40.950286936996889 10.121658189725572 #
straight-curve $-1 62.650837733085112 -40.950286936996889 0 0 0 -1 I I #
straight-curve $-1 62.650837733085112 40.950286936996889 0 0 0 -1 I I #
plane-surface $-1 0 0 10.121658189725572 0 0 1 1 0 0 forward_v I I I I #
coedge $-1 $273 $270 $275 $367 reversed $180 $-1 #
coedge $-1 $270 $273 $373 $409 reversed $180 $-1 #
edge $-1 $375 -10.121658189725572 $369 10.121658189725572 $287 $410 forward 7 unknown #
edge $-1 $364 -4.8411594270555014 $285 4.8411594270554943 $272 $411 forward 7 unknown #
vertex $-1 $409 $412 #
vertex $-1 $367 $413 #
straight-curve $-1 -72.333156587196115 -24.010139589987268 0 0 0 -1 I I #
edge $-1 $365 -1.6515845162207619 $369 1.6515845162207619 $360 $414 forward 7 unknown #
straight-curve $-1 -67.491997160140613 -24.010139589987268 -10.121658189725572 -1 0 0 I I #
vertex $-1 $277 $415 #
straight-curve $-1 -67.491997160140613 -20.706970557545745 -10.121658189725572 1 0 0 I I #
point $-1 -62.650837733085119 -24.010139589987268 -10.121658189725572 #
straight-curve $-1 -62.650837733085112 -24.010139589987268 0 0 0 -1 I I #
coedge $-1 $283 $282 $361 $409 forward $284 $-1 #
point $-1 -62.650837733085119 -24.010139589987268 10.121658189725572 #
vertex $-1 $288 $416 #
straight-curve $-1 -67.491997160140613 -20.706970557545745 10.121658189725572 -1 0 0 I I #
coedge $-1 $302 $301 $294 $378 forward $291 $-1 #
edge $-1 $379 62.107930213568288 $382 66.729521807352995 $377 $417 forward 7 unknown #
vertex $-1 $306 $418 #
straight-curve $-1 -19.831031048204384 48.307586610379929 10.121658189725565 0 1 0 I I #
edge $-1 $382 1.631143566409758 $303 34.768631397179497 $302 $419 forward 7 unknown #
vertex $-1 $381 $420 #
straight-curve $-1 -19.831031048204384 -6.0259514093715723 72.589089779429656 0 -0.57357642473473569 0.81915205242281985 I I #
point $-1 -19.831031048204384 37.714213762173337 10.121658189725572 #
point $-1 -52.968518878974123 40.950286936996889 5.500066595940865 #
straight-curve $-1 0 40.950286936996889 10.121658189725572 -1 0 0 I I #
vertex $-1 $309 $421 #
point $-1 -42.500665213039909 37.03076482298367 6.1993449266651535 #
vertex $-1 $313 $422 #
point $-1 -28.298884714138595 37.03076482298367 6.1993449266651535 #
coedge $-1 $328 $327 $320 $392 forward $317 $-1 #
edge $-1 $393 37.945366422879353 $396 43.572818611227135 $391 $423 forward 7 unknown #
vertex $-1 $332 $424 #
straight-curve $-1 -52.968518878974116 -63.202912567004297 10.121658189725572 0 -1 0 I I #
edge $-1 $396 -32.36517289453036 $329 -8.8415190743571621 $328 $425 forward 7 unknown #
vertex $-1 $395 $426 #
straight-curve $-1 -52.968518878974116 -40.950286936996903 4.4942060013777763 0 0.7313536940579346 0.68199836817093118 I I #
point $-1 -52.968518878974116 -34.915583427191656 10.121658189725572 #
point $-1 -29.444865058800922 -40.950286936996889 4.4942060013777896 #
straight-curve $-1 0 -40.950286936996889 10.121658189725572 1 0 0 I I #
vertex $-1 $335 $427 #
point $-1 -44.747474930353206 -34.321519982129097 3.4351635222850501 #
vertex $-1 $339 $428 #
point $-1 -34.665909007421831 -34.321519982129097 3.4351635222850501 #
straight-curve $-1 -62.650837733085112 40.950286936996889 0 0 0 -1 I I #
point $-1 -62.650837733085112 -40.950286936996889 -10.121658189725572 #
straight-curve $-1 -62.650837733085112 0 -10.121658189725572 0 1 0 I I #
point $-1 -62.650837733085112 40.950286936996889 -10.121658189725572 #
edge $-1 $375 -1.6515845162207619 $364 1.6515845162207619 $361 $429 forward 7 unknown #
straight-curve $-1 -72.333156587196115 -20.706970557545745 0 0 0 -1 I I #
straight-curve $-1 -67.491997160140613 -24.010139589987268 10.121658189725572 1 0 0 I I #
point $-1 -72.333156587196115 -24.010139589987268 10.121658189725572 #
point $-1 -72.333156587196115 -24.010139589987268 -10.121658189725572 #
straight-curve $-1 -72.333156587196115 -22.358555073766507 -10.121658189725572 0 1 0 I I #
point $-1 -72.333156587196115 -20.706970557545745 -10.121658189725572 #
point $-1 -72.333156587196115 -20.706970557545745 10.121658189725572 #
straight-curve $-1 -19.831031048204384 40.950286936996889 72.22958840329386 0 0 -1 I I #
point $-1 -19.831031048204384 40.950286936996889 10.121658189725572 #
straight-curve $-1 -18.199887481794626 40.950286936996889 5.5000665959408614 -1 0 0 I I #
point $-1 -19.831031048204384 40.950286936996889 5.500066595940865 #
point $-1 -43.500665213039909 36.211612770560848 5.625768501930418 #
point $-1 -29.298884714138595 36.211612770560848 5.625768501930418 #
straight-curve $-1 -52.968518878974116 -40.950286936996889 48.067024612604925 0 0 -1 I I #
point $-1 -52.968518878974116 -40.950286936996889 10.121658189725572 #
straight-curve $-1 -20.603345984443759 -40.950286936996889 4.4942060013777922 1 0 0 I I #
point $-1 -52.968518878974116 -40.950286936996889 4.4942060013777896 #
point $-1 -46.247474930353206 -33.298522429872698 2.3381329811981484 #
point $-1 -36.165909007421831 -33.298522429872698 2.3381329811981484 #
straight-curve $-1 -72.333156587196115 -22.358555073766507 10.121658189725572 0 -1 0 I I #
End-of-ACIS-data 