500 0 16 0           
7 Unknown 11 ACIS 5.0 NT 24 Fri Mar 26 20:34:33 1999 
-1 9.9999999999999995e-007 1e-010 
body $-1 $16 $-1 $17 #
body $-1 $18 $-1 $19 #
body $-1 $20 $-1 $21 #
body $-1 $22 $-1 $23 #
body $-1 $24 $-1 $25 #
body $-1 $26 $-1 $27 #
body $-1 $28 $-1 $29 #
body $-1 $30 $-1 $31 #
body $-1 $32 $-1 $33 #
body $-1 $34 $-1 $35 #
body $-1 $36 $-1 $37 #
body $-1 $38 $-1 $39 #
body $-1 $40 $-1 $41 #
body $-1 $42 $-1 $43 #
body $-1 $44 $-1 $45 #
body $-1 $46 $-1 $47 #
lump $-1 $-1 $48 $0 #
transform $-1 1 0 0 0 1 0 0 0 1 71.561021759697255 31.252993737295803 8.1602866670372016 1 rotate no_reflect no_shear #
lump $-1 $-1 $49 $1 #
transform $-1 1 0 0 0 1 0 0 0 1 71.561021759697255 31.252993737295803 8.1602866670372016 1 rotate no_reflect no_shear #
lump $-1 $-1 $50 $2 #
transform $-1 1 0 0 0 1 0 0 0 1 71.561021759697255 31.252993737295803 8.1602866670372016 1 rotate no_reflect no_shear #
lump $-1 $-1 $51 $3 #
transform $-1 1 0 0 0 1 0 0 0 1 71.561021759697255 31.252993737295803 8.1602866670372016 1 rotate no_reflect no_shear #
lump $-1 $-1 $52 $4 #
transform $-1 1 0 0 0 1 0 0 0 1 71.561021759697255 31.252993737295803 8.1602866670372016 1 rotate no_reflect no_shear #
lump $-1 $-1 $53 $5 #
transform $-1 1 0 0 0 1 0 0 0 1 71.561021759697255 31.252993737295803 8.1602866670372016 1 rotate no_reflect no_shear #
lump $-1 $-1 $54 $6 #
transform $-1 1 0 0 0 1 0 0 0 1 71.561021759697255 31.252993737295803 8.1602866670372016 1 rotate no_reflect no_shear #
lump $-1 $-1 $55 $7 #
transform $-1 1 0 0 0 1 0 0 0 1 71.561021759697255 31.252993737295803 8.1602866670372016 1 rotate no_reflect no_shear #
lump $-1 $-1 $56 $8 #
transform $-1 1 0 0 0 1 0 0 0 1 71.561021759697255 31.252993737295803 8.1602866670372016 1 rotate no_reflect no_shear #
lump $-1 $-1 $57 $9 #
transform $-1 1 0 0 0 1 0 0 0 1 71.561021759697255 31.252993737295803 8.1602866670372016 1 rotate no_reflect no_shear #
lump $-1 $-1 $58 $10 #
transform $-1 1 0 0 0 1 0 0 0 1 71.561021759697255 31.252993737295803 8.1602866670372016 1 rotate no_reflect no_shear #
lump $-1 $-1 $59 $11 #
transform $-1 1 0 0 0 1 0 0 0 1 71.561021759697255 31.252993737295803 8.1602866670372016 1 rotate no_reflect no_shear #
lump $-1 $-1 $60 $12 #
transform $-1 1 0 0 0 1 0 0 0 1 71.561021759697255 31.252993737295803 8.1602866670372016 1 rotate no_reflect no_shear #
lump $-1 $-1 $61 $13 #
transform $-1 1 0 0 0 1 0 0 0 1 71.561021759697255 31.252993737295803 8.1602866670372016 1 rotate no_reflect no_shear #
lump $-1 $-1 $62 $14 #
transform $-1 1 0 0 0 1 0 0 0 1 71.561021759697255 31.252993737295803 8.1602866670372016 1 rotate no_reflect no_shear #
lump $-1 $-1 $63 $15 #
transform $-1 1 0 0 0 1 0 0 0 1 71.561021759697255 31.252993737295803 8.1602866670372016 1 rotate no_reflect no_shear #
shell $-1 $-1 $-1 $64 $-1 $16 #
shell $-1 $-1 $-1 $65 $-1 $18 #
shell $-1 $-1 $-1 $66 $-1 $20 #
shell $-1 $-1 $-1 $67 $-1 $22 #
shell $-1 $-1 $-1 $68 $-1 $24 #
shell $-1 $-1 $-1 $69 $-1 $26 #
shell $-1 $-1 $-1 $70 $-1 $28 #
shell $-1 $-1 $-1 $71 $-1 $30 #
shell $-1 $-1 $-1 $72 $-1 $32 #
shell $-1 $-1 $-1 $73 $-1 $34 #
shell $-1 $-1 $-1 $74 $-1 $36 #
shell $-1 $-1 $-1 $75 $-1 $38 #
shell $-1 $-1 $-1 $76 $-1 $40 #
shell $-1 $-1 $-1 $77 $-1 $42 #
shell $-1 $-1 $-1 $78 $-1 $44 #
shell $-1 $-1 $-1 $79 $-1 $46 #
face $-1 $80 $81 $48 $-1 $82 forward single #
face $-1 $83 $84 $49 $-1 $85 forward single #
face $-1 $86 $87 $50 $-1 $88 reversed single #
face $-1 $89 $90 $51 $-1 $91 forward single #
face $-1 $92 $93 $52 $-1 $94 forward single #
face $-1 $95 $96 $53 $-1 $97 reversed single #
face $-1 $98 $99 $54 $-1 $100 forward single #
face $-1 $101 $102 $55 $-1 $103 forward single #
face $-1 $104 $105 $56 $-1 $106 reversed single #
face $-1 $107 $108 $57 $-1 $109 forward single #
face $-1 $110 $111 $58 $-1 $112 reversed single #
face $-1 $113 $114 $59 $-1 $115 forward single #
face $-1 $116 $117 $60 $-1 $118 reversed single #
face $-1 $119 $120 $61 $-1 $121 forward single #
face $-1 $122 $123 $62 $-1 $124 reversed single #
face $-1 $125 $126 $63 $-1 $127 forward single #
face $-1 $128 $129 $48 $-1 $130 reversed single #
loop $-1 $-1 $131 $64 #
plane-surface $-1 0 0 8.1602866670372016 0 0 1 1 0 0 forward_v I I I I #
face $-1 $132 $133 $49 $-1 $134 reversed single #
loop $-1 $-1 $135 $65 #
plane-surface $-1 0 -31.252993737295803 0 0 1 0 0 0 1 forward_v I I I I #
face $-1 $136 $137 $50 $-1 $138 reversed single #
loop $-1 $-1 $139 $66 #
plane-surface $-1 78.624861553181759 -5.6826998232530421 202.33663971625492 0 -1 0 -0.73135370988377701 0 -0.68199835119979291 forward_v I I I I #
face $-1 $140 $141 $51 $-1 $142 forward single #
loop $-1 $143 $144 $67 #
cone-surface $-1 67.416102806066831 -10.347326364142436 3.7665464187318904 -0.73135370988377701 0 -0.68199835119979291 0.34099917559989645 0 -0.36567685494188851 1 I I 0 1 0.5 forward I I I I #
face $-1 $145 $146 $52 $-1 $147 forward single #
loop $-1 $148 $149 $68 #
cone-surface $-1 67.416102806066831 -7.5485504396087997 3.7665464187318904 -0.73135370988377701 0 -0.68199835119979291 0.34099917559989645 0 -0.36567685494188851 1 I I 0 1 0.5 forward I I I I #
face $-1 $150 $151 $53 $-1 $152 reversed single #
loop $-1 $-1 $153 $69 #
plane-surface $-1 78.624861553181759 18.365241679004424 202.33663971625492 0 -1 0 -0.73135370988377701 0 -0.68199835119979291 forward_v I I I I #
face $-1 $154 $155 $54 $-1 $156 forward single #
loop $-1 $157 $158 $70 #
cone-surface $-1 67.416102806066831 13.700615138115026 3.7665464187318904 -0.73135370988377701 0 -0.68199835119979291 0.34099917559989645 0 -0.36567685494188851 1 I I 0 1 0.5 forward I I I I #
face $-1 $159 $160 $55 $-1 $161 forward single #
loop $-1 $162 $163 $71 #
cone-surface $-1 67.416102806066831 16.499391062648662 3.7665464187318904 -0.73135370988377701 0 -0.68199835119979291 0.34099917559989645 0 -0.36567685494188851 1 I I 0 1 0.5 forward I I I I #
face $-1 $164 $165 $56 $-1 $166 reversed single #
loop $-1 $-1 $167 $72 #
plane-surface $-1 -155.68604929310942 -25.10092903878958 118.86540708847417 0 1 0 -0.5877852598018023 0 0.80901698891910034 forward_v I I I I #
face $-1 $168 $169 $57 $-1 $170 forward single #
loop $-1 $171 $172 $73 #
cone-surface $-1 -66.872650211267157 -22.024967917383663 3.9805032754405705 0.5877852598018023 0 -0.80901698891910034 1.2135254833786506 0 0.88167788970270344 1 I I 0 1 1.5 forward I I I I #
face $-1 $173 $174 $58 $-1 $175 reversed single #
loop $-1 $-1 $176 $74 #
plane-surface $-1 -155.68604929310942 -8.3669288610317309 118.86540708847417 0 1 0 -0.5877852598018023 0 0.80901698891910034 forward_v I I I I #
face $-1 $177 $178 $59 $-1 $179 forward single #
loop $-1 $180 $181 $75 #
cone-surface $-1 -66.872650211267157 -5.2909677396258132 3.9805032754405705 0.5877852598018023 0 -0.80901698891910034 1.2135254833786506 0 0.88167788970270344 1 I I 0 1 1.5 forward I I I I #
face $-1 $182 $183 $60 $-1 $184 reversed single #
loop $-1 $-1 $185 $76 #
plane-surface $-1 -155.68604929310942 8.3670713167261184 118.86540708847417 0 1 0 -0.5877852598018023 0 0.80901698891910034 forward_v I I I I #
face $-1 $186 $187 $61 $-1 $188 forward single #
loop $-1 $189 $190 $77 #
cone-surface $-1 -66.872650211267157 11.443032438132036 3.9805032754405705 0.5877852598018023 0 -0.80901698891910034 1.2135254833786506 0 0.88167788970270344 1 I I 0 1 1.5 forward I I I I #
face $-1 $191 $192 $62 $-1 $193 reversed single #
loop $-1 $-1 $194 $78 #
plane-surface $-1 -155.68604929310942 25.101071494483968 118.86540708847417 0 1 0 -0.5877852598018023 0 0.80901698891910034 forward_v I I I I #
face $-1 $195 $196 $63 $-1 $197 forward single #
loop $-1 $198 $199 $79 #
cone-surface $-1 -66.872650211267157 28.177032615889885 3.9805032754405705 0.5877852598018023 0 -0.80901698891910034 1.2135254833786506 0 0.88167788970270344 1 I I 0 1 1.5 forward I I I I #
face $-1 $200 $201 $48 $-1 $202 reversed single #
loop $-1 $-1 $203 $80 #
plane-surface $-1 0 0 -8.1602866670372016 0 0 1 1 0 0 forward_v I I I I #
coedge $-1 $204 $205 $206 $207 forward $81 $-1 #
face $-1 $208 $209 $49 $-1 $210 reversed single #
loop $-1 $-1 $211 $83 #
plane-surface $-1 0 0 -8.1602866670372016 0 0 1 1 0 0 forward_v I I I I #
coedge $-1 $212 $213 $214 $215 forward $84 $-1 #
face $-1 $216 $217 $50 $-1 $218 reversed single #
loop $-1 $-1 $219 $86 #
plane-surface $-1 -26.047975940874807 -8.9479384018756178 104.72764201568286 0.73135370988377701 0 0.68199835119979291 0.68199835119979291 0 -0.73135370988377701 forward_v I I I I #
coedge $-1 $220 $221 $222 $223 reversed $87 $-1 #
face $-1 $-1 $224 $51 $-1 $225 forward single #
loop $-1 $226 $227 $89 #
cone-surface $-1 66.867587523653995 -10.347326364142436 3.2550476553320458 -0.73135370988377701 0 -0.68199835119979291 0.17049958779994823 0 -0.18283842747094425 1 I I -0.70710678118654746 0.70710678118654746 0.25 forward I I I I #
loop $-1 $-1 $228 $67 #
coedge $-1 $144 $144 $229 $230 reversed $90 $-1 #
face $-1 $-1 $231 $52 $-1 $232 forward single #
loop $-1 $233 $234 $92 #
cone-surface $-1 66.867587523653995 -7.5485504396087997 3.2550476553320458 -0.73135370988377701 0 -0.68199835119979291 0.17049958779994823 0 -0.18283842747094425 1 I I -0.70710678118654746 0.70710678118654746 0.25 forward I I I I #
loop $-1 $-1 $235 $68 #
coedge $-1 $149 $149 $236 $237 reversed $93 $-1 #
face $-1 $238 $239 $53 $-1 $240 reversed single #
loop $-1 $-1 $241 $95 #
plane-surface $-1 -26.047975940874807 15.100003100381848 104.72764201568286 0.73135370988377701 0 0.68199835119979291 0.68199835119979291 0 -0.73135370988377701 forward_v I I I I #
coedge $-1 $242 $243 $244 $245 reversed $96 $-1 #
face $-1 $-1 $246 $54 $-1 $247 forward single #
loop $-1 $248 $249 $98 #
cone-surface $-1 66.867587523653995 13.700615138115026 3.2550476553320458 -0.73135370988377701 0 -0.68199835119979291 0.17049958779994823 0 -0.18283842747094425 1 I I -0.70710678118654746 0.70710678118654746 0.25 forward I I I I #
loop $-1 $-1 $250 $70 #
coedge $-1 $158 $158 $251 $252 reversed $99 $-1 #
face $-1 $-1 $253 $55 $-1 $254 forward single #
loop $-1 $255 $256 $101 #
cone-surface $-1 66.867587523653995 16.499391062648662 3.2550476553320458 -0.73135370988377701 0 -0.68199835119979291 0.17049958779994823 0 -0.18283842747094425 1 I I -0.70710678118654746 0.70710678118654746 0.25 forward I I I I #
loop $-1 $-1 $257 $71 #
coedge $-1 $163 $163 $258 $259 reversed $102 $-1 #
face $-1 $260 $261 $56 $-1 $262 reversed single #
loop $-1 $-1 $263 $104 #
plane-surface $-1 -71.561021759697269 -22.024967917383663 3.0772423924651804 -0.5877852598018023 0 0.80901698891910034 0.80901698891910034 0 0.5877852598018023 forward_v I I I I #
coedge $-1 $264 $265 $266 $267 reversed $105 $-1 #
face $-1 $-1 $268 $57 $-1 $269 forward single #
loop $-1 $270 $271 $107 #
cone-surface $-1 -65.241544769942408 -22.024967917383663 1.735479279440618 0.5877852598018023 0 -0.80901698891910034 0.60676274168932531 0 0.44083894485135172 1 I I -0.70710678118654757 0.70710678118654757 0.75 forward I I I I #
loop $-1 $-1 $272 $73 #
coedge $-1 $172 $172 $273 $274 reversed $108 $-1 #
face $-1 $275 $276 $58 $-1 $277 reversed single #
loop $-1 $-1 $278 $110 #
plane-surface $-1 -71.561021759697269 -5.2909677396258132 3.0772423924651804 -0.5877852598018023 0 0.80901698891910034 0.80901698891910034 0 0.5877852598018023 forward_v I I I I #
coedge $-1 $279 $280 $281 $282 reversed $111 $-1 #
face $-1 $-1 $283 $59 $-1 $284 forward single #
loop $-1 $285 $286 $113 #
cone-surface $-1 -65.241544769942408 -5.2909677396258132 1.735479279440618 0.5877852598018023 0 -0.80901698891910034 0.60676274168932531 0 0.44083894485135172 1 I I -0.70710678118654757 0.70710678118654757 0.75 forward I I I I #
loop $-1 $-1 $287 $75 #
coedge $-1 $181 $181 $288 $289 reversed $114 $-1 #
face $-1 $290 $291 $60 $-1 $292 reversed single #
loop $-1 $-1 $293 $116 #
plane-surface $-1 -71.561021759697269 11.443032438132036 3.0772423924651804 -0.5877852598018023 0 0.80901698891910034 0.80901698891910034 0 0.5877852598018023 forward_v I I I I #
coedge $-1 $294 $295 $296 $297 reversed $117 $-1 #
face $-1 $-1 $298 $61 $-1 $299 forward single #
loop $-1 $300 $301 $119 #
cone-surface $-1 -65.241544769942408 11.443032438132036 1.735479279440618 0.5877852598018023 0 -0.80901698891910034 0.60676274168932531 0 0.44083894485135172 1 I I -0.70710678118654757 0.70710678118654757 0.75 forward I I I I #
loop $-1 $-1 $302 $77 #
coedge $-1 $190 $190 $303 $304 reversed $120 $-1 #
face $-1 $305 $306 $62 $-1 $307 forward single #
loop $-1 $-1 $308 $122 #
plane-surface $-1 -71.561021759697269 28.177032615889885 3.0772423924651804 -0.5877852598018023 0 0.80901698891910034 0.80901698891910034 0 0.5877852598018023 forward_v I I I I #
coedge $-1 $309 $310 $311 $312 reversed $123 $-1 #
face $-1 $-1 $313 $63 $-1 $314 forward single #
loop $-1 $315 $316 $125 #
cone-surface $-1 -65.241544769942408 28.177032615889885 1.735479279440618 0.5877852598018023 0 -0.80901698891910034 0.60676274168932531 0 0.44083894485135172 1 I I -0.70710678118654757 0.70710678118654757 0.75 forward I I I I #
loop $-1 $-1 $317 $79 #
coedge $-1 $199 $199 $318 $319 reversed $126 $-1 #
face $-1 $320 $321 $48 $-1 $322 reversed single #
loop $-1 $-1 $323 $128 #
plane-surface $-1 0 -31.252993737295803 0 0 1 0 0 0 1 forward_v I I I I #
coedge $-1 $324 $325 $326 $327 forward $129 $-1 #
coedge $-1 $328 $131 $329 $330 forward $81 $-1 #
coedge $-1 $131 $328 $331 $332 forward $81 $-1 #
coedge $-1 $333 $334 $131 $207 reversed $335 $-1 #
edge $-1 $336 -31.252993737295803 $337 31.252993737295803 $206 $338 forward 7 unknown #
face $-1 $339 $340 $49 $-1 $341 reversed single #
loop $-1 $-1 $342 $132 #
plane-surface $-1 -58.721274493064612 -37.405058435802026 0 0 1 0 0 0 1 forward_v I I I I #
coedge $-1 $343 $344 $213 $345 forward $133 $-1 #
coedge $-1 $346 $135 $347 $348 reversed $84 $-1 #
coedge $-1 $135 $346 $211 $345 reversed $84 $-1 #
coedge $-1 $349 $350 $135 $215 reversed $340 $-1 #
edge $-1 $351 -8.1602866670372016 $352 8.1602866670372016 $214 $353 forward 7 unknown #
face $-1 $354 $355 $50 $-1 $356 forward single #
loop $-1 $-1 $357 $136 #
plane-surface $-1 78.624861553181759 -12.213176980498194 202.33663971625492 0 1 0 0.73135370988377701 0 0.68199835119979291 forward_v I I I I #
coedge $-1 $358 $359 $360 $361 reversed $137 $-1 #
coedge $-1 $221 $139 $362 $363 reversed $87 $-1 #
coedge $-1 $139 $220 $358 $364 reversed $87 $-1 #
coedge $-1 $360 $365 $139 $223 forward $355 $-1 #
edge $-1 $366 -32.248590983106375 $367 -24.690106785729348 $222 $368 forward 7 unknown #
loop $-1 $-1 $229 $140 #
plane-surface $-1 -26.047975940874807 -8.9479384018756178 104.72764201568286 0.73135370988377701 0 0.68199835119979291 0.68199835119979291 0 -0.73135370988377701 forward_v I I I I #
loop $-1 $-1 $369 $89 #
coedge $-1 $227 $227 $228 $370 reversed $141 $-1 #
coedge $-1 $228 $228 $227 $370 forward $143 $-1 #
coedge $-1 $229 $229 $144 $230 forward $224 $-1 #
edge $-1 $371 0 $371 6.2831853071796004 $229 $372 forward 7 unknown #
loop $-1 $-1 $236 $145 #
plane-surface $-1 -26.047975940874807 -8.9479384018756178 104.72764201568286 0.73135370988377701 0 0.68199835119979291 0.68199835119979291 0 -0.73135370988377701 forward_v I I I I #
loop $-1 $-1 $373 $92 #
coedge $-1 $234 $234 $235 $374 reversed $146 $-1 #
coedge $-1 $235 $235 $234 $374 forward $148 $-1 #
coedge $-1 $236 $236 $149 $237 forward $231 $-1 #
edge $-1 $375 0 $375 6.2831853071796004 $236 $376 forward 7 unknown #
face $-1 $377 $378 $53 $-1 $379 reversed single #
loop $-1 $-1 $380 $150 #
plane-surface $-1 78.624861553181759 11.834764521759272 202.33663971625492 0 1 0 0.73135370988377701 0 0.68199835119979291 forward_v I I I I #
coedge $-1 $381 $382 $383 $384 reversed $151 $-1 #
coedge $-1 $243 $153 $385 $386 reversed $96 $-1 #
coedge $-1 $153 $242 $381 $387 reversed $96 $-1 #
coedge $-1 $383 $388 $153 $245 forward $389 $-1 #
edge $-1 $390 -32.248590983106375 $391 -24.690106785729348 $244 $392 forward 7 unknown #
loop $-1 $-1 $251 $154 #
plane-surface $-1 -26.047975940874807 15.100003100381848 104.72764201568286 0.73135370988377701 0 0.68199835119979291 0.68199835119979291 0 -0.73135370988377701 forward_v I I I I #
loop $-1 $-1 $393 $98 #
coedge $-1 $249 $249 $250 $394 reversed $155 $-1 #
coedge $-1 $250 $250 $249 $394 forward $157 $-1 #
coedge $-1 $251 $251 $158 $252 forward $246 $-1 #
edge $-1 $395 0 $395 6.2831853071796004 $251 $396 forward 7 unknown #
loop $-1 $-1 $258 $159 #
plane-surface $-1 -26.047975940874807 15.100003100381848 104.72764201568286 0.73135370988377701 0 0.68199835119979291 0.68199835119979291 0 -0.73135370988377701 forward_v I I I I #
loop $-1 $-1 $397 $101 #
coedge $-1 $256 $256 $257 $398 reversed $160 $-1 #
coedge $-1 $257 $257 $256 $398 forward $162 $-1 #
coedge $-1 $258 $258 $163 $259 forward $253 $-1 #
edge $-1 $399 0 $399 6.2831853071796004 $258 $400 forward 7 unknown #
face $-1 $401 $402 $56 $-1 $403 reversed single #
loop $-1 $-1 $404 $164 #
plane-surface $-1 -155.68604929310942 -18.949006795977745 118.86540708847417 0 -1 0 0.5877852598018023 0 -0.80901698891910034 forward_v I I I I #
coedge $-1 $405 $406 $407 $408 reversed $165 $-1 #
coedge $-1 $265 $167 $409 $410 reversed $105 $-1 #
coedge $-1 $167 $264 $405 $411 reversed $105 $-1 #
coedge $-1 $407 $412 $167 $267 forward $413 $-1 #
edge $-1 $414 6.2820028868574553 $415 13.278212990770839 $266 $416 forward 7 unknown #
loop $-1 $-1 $273 $168 #
plane-surface $-1 -71.561021759697269 -22.024967917383663 3.0772423924651804 -0.5877852598018023 0 0.80901698891910034 0.80901698891910034 0 0.5877852598018023 forward_v I I I I #
loop $-1 $-1 $417 $107 #
coedge $-1 $271 $271 $272 $418 reversed $169 $-1 #
coedge $-1 $272 $272 $271 $418 forward $171 $-1 #
coedge $-1 $273 $273 $172 $274 forward $268 $-1 #
edge $-1 $419 0 $419 6.2831853071796004 $273 $420 forward 7 unknown #
face $-1 $421 $422 $58 $-1 $423 forward single #
loop $-1 $-1 $424 $173 #
plane-surface $-1 -155.68604929310942 -2.2150066182198951 118.86540708847417 0 -1 0 0.5877852598018023 0 -0.80901698891910034 forward_v I I I I #
coedge $-1 $425 $426 $427 $428 reversed $174 $-1 #
coedge $-1 $280 $176 $429 $430 reversed $111 $-1 #
coedge $-1 $176 $279 $425 $431 reversed $111 $-1 #
coedge $-1 $427 $432 $176 $282 forward $422 $-1 #
edge $-1 $433 6.2820028868574553 $434 13.278212990770839 $281 $435 forward 7 unknown #
loop $-1 $-1 $288 $177 #
plane-surface $-1 -71.561021759697269 -5.2909677396258132 3.0772423924651804 -0.5877852598018023 0 0.80901698891910034 0.80901698891910034 0 0.5877852598018023 forward_v I I I I #
loop $-1 $-1 $436 $113 #
coedge $-1 $286 $286 $287 $437 reversed $178 $-1 #
coedge $-1 $287 $287 $286 $437 forward $180 $-1 #
coedge $-1 $288 $288 $181 $289 forward $283 $-1 #
edge $-1 $438 0 $438 6.2831853071796004 $288 $439 forward 7 unknown #
face $-1 $440 $441 $60 $-1 $442 forward single #
loop $-1 $-1 $443 $182 #
plane-surface $-1 -155.68604929310942 14.518993559537954 118.86540708847417 0 -1 0 0.5877852598018023 0 -0.80901698891910034 forward_v I I I I #
coedge $-1 $444 $445 $446 $447 reversed $183 $-1 #
coedge $-1 $295 $185 $448 $449 reversed $117 $-1 #
coedge $-1 $185 $294 $444 $450 reversed $117 $-1 #
coedge $-1 $446 $451 $185 $297 forward $441 $-1 #
edge $-1 $452 6.2820028868574553 $453 13.278212990770839 $296 $454 forward 7 unknown #
loop $-1 $-1 $303 $186 #
plane-surface $-1 -71.561021759697269 11.443032438132036 3.0772423924651804 -0.5877852598018023 0 0.80901698891910034 0.80901698891910034 0 0.5877852598018023 forward_v I I I I #
loop $-1 $-1 $455 $119 #
coedge $-1 $301 $301 $302 $456 reversed $187 $-1 #
coedge $-1 $302 $302 $301 $456 forward $189 $-1 #
coedge $-1 $303 $303 $190 $304 forward $298 $-1 #
edge $-1 $457 0 $457 6.2831853071796004 $303 $458 forward 7 unknown #
face $-1 $459 $460 $62 $-1 $461 reversed single #
loop $-1 $-1 $311 $191 #
plane-surface $-1 0 0 8.1602866670372016 0 0 1 1 0 0 forward_v I I I I #
coedge $-1 $462 $463 $464 $465 reversed $192 $-1 #
coedge $-1 $310 $194 $466 $467 reversed $123 $-1 #
coedge $-1 $194 $309 $462 $468 reversed $123 $-1 #
coedge $-1 $464 $469 $194 $312 forward $306 $-1 #
edge $-1 $470 6.2820028868574553 $471 13.278212990770839 $311 $472 forward 7 unknown #
loop $-1 $-1 $318 $195 #
plane-surface $-1 -71.561021759697269 28.177032615889885 3.0772423924651804 -0.5877852598018023 0 0.80901698891910034 0.80901698891910034 0 0.5877852598018023 forward_v I I I I #
loop $-1 $-1 $473 $125 #
coedge $-1 $316 $316 $317 $474 reversed $196 $-1 #
coedge $-1 $317 $317 $316 $474 forward $198 $-1 #
coedge $-1 $318 $318 $199 $319 forward $313 $-1 #
edge $-1 $475 0 $475 6.2831853071796004 $318 $476 forward 7 unknown #
face $-1 $477 $478 $48 $-1 $479 reversed single #
loop $-1 $-1 $480 $200 #
plane-surface $-1 -71.561021759697255 0 0 1 0 0 0 0 -1 forward_v I I I I #
coedge $-1 $481 $331 $482 $483 forward $201 $-1 #
coedge $-1 $484 $203 $481 $485 forward $129 $-1 #
coedge $-1 $203 $484 $486 $487 forward $129 $-1 #
coedge $-1 $334 $333 $203 $327 reversed $335 $-1 #
edge $-1 $488 -31.252993737295803 $489 31.252993737295803 $326 $490 forward 7 unknown #
coedge $-1 $205 $204 $491 $492 forward $81 $-1 #
coedge $-1 $493 $494 $204 $330 reversed $478 $-1 #
edge $-1 $337 -71.561021759697255 $495 71.561021759697255 $329 $496 forward 7 unknown #
coedge $-1 $323 $497 $205 $332 reversed $201 $-1 #
edge $-1 $498 -71.561021759697255 $336 71.561021759697255 $331 $499 forward 7 unknown #
coedge $-1 $326 $206 $497 $500 forward $335 $-1 #
coedge $-1 $206 $326 $493 $501 reversed $335 $-1 #
loop $-1 $-1 $333 $477 #
vertex $-1 $207 $502 #
vertex $-1 $207 $503 #
straight-curve $-1 71.561021759697255 0 8.1602866670372016 0 1 0 I I #
face $-1 $504 $505 $49 $-1 $506 reversed single #
loop $-1 $-1 $214 $208 #
plane-surface $-1 -60.853179580902129 -34.329026086548915 0 1 0 0 0 0 -1 forward_v I I I I #
coedge $-1 $507 $508 $509 $510 forward $209 $-1 #
coedge $-1 $511 $211 $512 $513 forward $133 $-1 #
coedge $-1 $211 $511 $349 $514 forward $133 $-1 #
edge $-1 $351 -60.853179580902129 $515 -56.589369405227096 $211 $516 forward 7 unknown #
coedge $-1 $213 $212 $517 $518 forward $84 $-1 #
coedge $-1 $519 $520 $212 $348 forward $521 $-1 #
edge $-1 $522 56.589369405227096 $352 60.853179580902129 $347 $523 forward 7 unknown #
coedge $-1 $509 $214 $344 $514 reversed $340 $-1 #
coedge $-1 $214 $509 $519 $524 reversed $340 $-1 #
vertex $-1 $345 $525 #
vertex $-1 $524 $526 #
straight-curve $-1 -60.853179580902129 -31.252993737295803 0 0 0 1 I I #
face $-1 $-1 $527 $50 $-1 $528 reversed single #
loop $-1 $-1 $222 $216 #
plane-surface $-1 0 0 8.1602866670372016 0 0 1 1 0 0 forward_v I I I I #
coedge $-1 $529 $530 $531 $532 reversed $217 $-1 #
coedge $-1 $533 $219 $221 $364 forward $137 $-1 #
coedge $-1 $219 $533 $529 $534 forward $137 $-1 #
coedge $-1 $531 $222 $219 $361 forward $355 $-1 #
edge $-1 $367 1.2087306223152332 $535 7.7392077795603846 $360 $536 forward 7 unknown #
coedge $-1 $537 $538 $220 $363 forward $527 $-1 #
edge $-1 $539 -101.11351533650117 $366 -93.008033191090263 $362 $540 forward 7 unknown #
edge $-1 $367 132.03919532177071 $539 143.12204351939448 $221 $541 forward 7 unknown #
coedge $-1 $222 $531 $537 $542 forward $355 $-1 #
vertex $-1 $223 $543 #
vertex $-1 $223 $544 #
straight-curve $-1 39.31243077659088 -5.6826998232530421 8.1602866670371981 -1 0 0 I I #
coedge $-1 $369 $369 $-1 $545 reversed $226 $-1 #
edge $-1 $546 0 $546 6.2831853071796004 $227 $547 forward 7 unknown #
vertex $-1 $230 $548 #
ellipse-curve $-1 67.781779661008713 -10.347326364142436 4.1075455943317776 0.73135370988377701 0 0.68199835119979291 0.34099917559989645 0 -0.36567685494188851 1 I I #
coedge $-1 $373 $373 $-1 $549 reversed $233 $-1 #
edge $-1 $550 0 $550 6.2831853071796004 $234 $551 forward 7 unknown #
vertex $-1 $237 $552 #
ellipse-curve $-1 67.781779661008713 -7.5485504396087997 4.1075455943317776 0.73135370988377701 0 0.68199835119979291 0.34099917559989645 0 -0.36567685494188851 1 I I #
face $-1 $-1 $389 $53 $-1 $553 forward single #
loop $-1 $-1 $554 $238 #
plane-surface $-1 71.561021759697255 0 0 -1 0 0 0 0 1 forward_v I I I I #
coedge $-1 $555 $556 $557 $558 reversed $239 $-1 #
coedge $-1 $559 $241 $243 $387 forward $151 $-1 #
coedge $-1 $241 $559 $555 $560 forward $151 $-1 #
coedge $-1 $557 $244 $241 $384 forward $389 $-1 #
edge $-1 $391 -10.8152401288135 $561 -4.2847629715683482 $383 $562 forward 7 unknown #
coedge $-1 $563 $564 $242 $386 forward $378 $-1 #
edge $-1 $565 -101.11351533650117 $390 -93.008033191090263 $385 $566 forward 7 unknown #
edge $-1 $391 132.03919532177071 $565 143.12204351939448 $243 $567 forward 7 unknown #
coedge $-1 $244 $557 $563 $568 forward $389 $-1 #
loop $-1 $-1 $557 $377 #
vertex $-1 $386 $569 #
vertex $-1 $245 $570 #
straight-curve $-1 39.31243077659088 18.365241679004424 8.1602866670371981 -1 0 0 I I #
coedge $-1 $393 $393 $-1 $571 reversed $248 $-1 #
edge $-1 $572 0 $572 6.2831853071796004 $249 $573 forward 7 unknown #
vertex $-1 $252 $574 #
ellipse-curve $-1 67.781779661008713 13.700615138115026 4.1075455943317776 0.73135370988377701 0 0.68199835119979291 0.34099917559989645 0 -0.36567685494188851 1 I I #
coedge $-1 $397 $397 $-1 $575 reversed $255 $-1 #
edge $-1 $576 0 $576 6.2831853071796004 $256 $577 forward 7 unknown #
vertex $-1 $259 $578 #
ellipse-curve $-1 67.781779661008713 16.499391062648662 4.1075455943317776 0.73135370988377701 0 0.68199835119979291 0.34099917559989645 0 -0.36567685494188851 1 I I #
face $-1 $-1 $413 $56 $-1 $579 forward single #
loop $-1 $-1 $580 $260 #
plane-surface $-1 -71.561021759697255 0 0 1 0 0 0 0 -1 forward_v I I I I #
coedge $-1 $581 $582 $583 $584 reversed $261 $-1 #
coedge $-1 $585 $263 $265 $411 forward $165 $-1 #
coedge $-1 $263 $585 $581 $586 forward $165 $-1 #
coedge $-1 $583 $266 $263 $408 forward $413 $-1 #
edge $-1 $415 -14.088445080097749 $587 -7.9365228372859136 $407 $588 forward 7 unknown #
coedge $-1 $589 $590 $264 $410 forward $402 $-1 #
edge $-1 $591 -56.355461151771898 $414 -51.272416877199888 $409 $592 forward 7 unknown #
edge $-1 $415 -8.6477913316267827 $591 -1.7500491998158137e-014 $265 $593 forward 7 unknown #
coedge $-1 $266 $583 $589 $594 forward $413 $-1 #
loop $-1 $-1 $583 $401 #
vertex $-1 $410 $595 #
vertex $-1 $267 $596 #
straight-curve $-1 -77.84302464655471 -25.10092903878958 8.1602866670372052 1 0 0 I I #
coedge $-1 $417 $417 $-1 $597 reversed $270 $-1 #
edge $-1 $598 0 $598 6.2831853071796004 $271 $599 forward 7 unknown #
vertex $-1 $274 $600 #
ellipse-curve $-1 -68.062916707740555 -22.024967917383663 5.618764529751199 -0.5877852598018023 0 0.80901698891910034 1.2135254833786506 0 0.88167788970270344 1 I I #
face $-1 $-1 $601 $58 $-1 $602 reversed single #
loop $-1 $-1 $281 $275 #
plane-surface $-1 0 0 8.1602866670372016 0 0 1 1 0 0 forward_v I I I I #
coedge $-1 $603 $604 $605 $606 reversed $276 $-1 #
coedge $-1 $607 $278 $280 $431 forward $174 $-1 #
coedge $-1 $278 $607 $603 $608 forward $174 $-1 #
coedge $-1 $605 $281 $278 $428 forward $422 $-1 #
edge $-1 $434 -5.7214449912188243 $609 0.43047725159301153 $427 $610 forward 7 unknown #
coedge $-1 $611 $612 $279 $430 forward $601 $-1 #
edge $-1 $613 -56.355461151771898 $433 -51.272416877199888 $429 $614 forward 7 unknown #
edge $-1 $434 -8.6477913316267827 $613 -1.7500491998158137e-014 $280 $615 forward 7 unknown #
coedge $-1 $281 $605 $611 $616 forward $422 $-1 #
vertex $-1 $430 $617 #
vertex $-1 $282 $618 #
straight-curve $-1 -77.84302464655471 -8.3669288610317309 8.1602866670372052 1 0 0 I I #
coedge $-1 $436 $436 $-1 $619 reversed $285 $-1 #
edge $-1 $620 0 $620 6.2831853071796004 $286 $621 forward 7 unknown #
vertex $-1 $289 $622 #
ellipse-curve $-1 -68.062916707740555 -5.2909677396258132 5.618764529751199 -0.5877852598018023 0 0.80901698891910034 1.2135254833786506 0 0.88167788970270344 1 I I #
face $-1 $-1 $623 $60 $-1 $624 reversed single #
loop $-1 $-1 $296 $290 #
plane-surface $-1 0 0 8.1602866670372016 0 0 1 1 0 0 forward_v I I I I #
coedge $-1 $625 $626 $627 $628 reversed $291 $-1 #
coedge $-1 $629 $293 $295 $450 forward $183 $-1 #
coedge $-1 $293 $629 $625 $630 forward $183 $-1 #
coedge $-1 $627 $296 $293 $447 forward $441 $-1 #
edge $-1 $453 2.6455550976601003 $631 8.7974773404719357 $446 $632 forward 7 unknown #
coedge $-1 $633 $634 $294 $449 forward $623 $-1 #
edge $-1 $635 -56.355461151771898 $452 -51.272416877199888 $448 $636 forward 7 unknown #
edge $-1 $453 -8.6477913316267827 $635 -1.7500491998158137e-014 $295 $637 forward 7 unknown #
coedge $-1 $296 $627 $633 $638 forward $441 $-1 #
vertex $-1 $297 $639 #
vertex $-1 $297 $640 #
straight-curve $-1 -77.84302464655471 8.3670713167261184 8.1602866670372052 1 0 0 I I #
coedge $-1 $455 $455 $-1 $641 reversed $300 $-1 #
edge $-1 $642 0 $642 6.2831853071796004 $301 $643 forward 7 unknown #
vertex $-1 $304 $644 #
ellipse-curve $-1 -68.062916707740555 11.443032438132036 5.618764529751199 -0.5877852598018023 0 0.80901698891910034 1.2135254833786506 0 0.88167788970270344 1 I I #
face $-1 $-1 $645 $62 $-1 $646 reversed single #
loop $-1 $-1 $647 $305 #
plane-surface $-1 0 31.252993737295803 0 0 -1 0 0 0 -1 forward_v I I I I #
coedge $-1 $648 $308 $310 $468 forward $192 $-1 #
coedge $-1 $308 $648 $647 $649 reversed $192 $-1 #
coedge $-1 $650 $311 $308 $465 forward $306 $-1 #
edge $-1 $471 11.012555186539025 $651 17.16447742935086 $464 $652 forward 7 unknown #
coedge $-1 $653 $654 $309 $467 forward $645 $-1 #
edge $-1 $655 -56.355461151771898 $470 -51.272416877199888 $466 $656 forward 7 unknown #
edge $-1 $471 -8.6477913316267827 $655 -1.7500491998158137e-014 $310 $657 forward 7 unknown #
coedge $-1 $311 $650 $653 $658 forward $306 $-1 #
vertex $-1 $467 $659 #
vertex $-1 $312 $660 #
straight-curve $-1 -77.84302464655471 25.101071494483968 8.1602866670372052 1 0 0 I I #
coedge $-1 $473 $473 $-1 $661 reversed $315 $-1 #
edge $-1 $662 0 $662 6.2831853071796004 $316 $663 forward 7 unknown #
vertex $-1 $319 $664 #
ellipse-curve $-1 -68.062916707740555 28.177032615889885 5.618764529751199 -0.5877852598018023 0 0.80901698891910034 1.2135254833786506 0 0.88167788970270344 1 I I #
face $-1 $-1 $335 $48 $-1 $665 reversed single #
loop $-1 $-1 $493 $320 #
plane-surface $-1 0 31.252993737295803 0 0 -1 0 0 0 -1 forward_v I I I I #
coedge $-1 $666 $491 $494 $667 forward $321 $-1 #
coedge $-1 $497 $323 $324 $485 reversed $201 $-1 #
coedge $-1 $491 $666 $323 $483 reversed $321 $-1 #
edge $-1 $498 -8.1602866670372016 $668 8.1602866670372016 $482 $669 forward 7 unknown #
coedge $-1 $325 $324 $666 $670 forward $129 $-1 #
edge $-1 $489 -71.561021759697255 $668 71.561021759697255 $481 $671 forward 7 unknown #
coedge $-1 $494 $493 $325 $487 reversed $478 $-1 #
edge $-1 $672 -71.561021759697255 $488 71.561021759697255 $486 $673 forward 7 unknown #
vertex $-1 $327 $674 #
vertex $-1 $500 $675 #
straight-curve $-1 71.561021759697255 0 -8.1602866670372016 0 -1 0 I I #
coedge $-1 $480 $482 $328 $492 reversed $321 $-1 #
edge $-1 $495 -31.252993737295803 $498 31.252993737295803 $491 $676 forward 7 unknown #
coedge $-1 $486 $329 $334 $501 forward $478 $-1 #
coedge $-1 $329 $486 $480 $667 reversed $478 $-1 #
vertex $-1 $330 $677 #
straight-curve $-1 0 31.252993737295803 8.1602866670372016 -1 0 0 I I #
coedge $-1 $331 $481 $333 $500 reversed $201 $-1 #
vertex $-1 $492 $678 #
straight-curve $-1 0 -31.252993737295803 8.1602866670372016 1 0 0 I I #
edge $-1 $336 -8.1602866670372016 $489 8.1602866670372016 $333 $679 forward 7 unknown #
edge $-1 $337 -8.1602866670372016 $488 8.1602866670372016 $334 $680 forward 7 unknown #
point $-1 71.561021759697255 -31.252993737295803 8.1602866670372016 #
point $-1 71.561021759697255 31.252993737295803 8.1602866670372016 #
face $-1 $-1 $521 $49 $-1 $681 forward single #
loop $-1 $-1 $682 $339 #
plane-surface $-1 -56.589369405227096 -34.329026086548915 0 -1 0 0 0 0 1 forward_v I I I I #
coedge $-1 $683 $342 $511 $684 reversed $209 $-1 #
coedge $-1 $342 $683 $685 $686 reversed $209 $-1 #
coedge $-1 $350 $349 $342 $510 reversed $340 $-1 #
edge $-1 $687 -8.1602866670372016 $688 8.1602866670372016 $509 $689 forward 7 unknown #
coedge $-1 $344 $343 $507 $684 forward $133 $-1 #
coedge $-1 $517 $682 $343 $513 reversed $505 $-1 #
edge $-1 $515 -3.0760323492531114 $690 3.0760323492531114 $512 $691 forward 7 unknown #
edge $-1 $688 -3.0760323492531114 $351 3.0760323492531114 $349 $692 forward 7 unknown #
vertex $-1 $513 $693 #
straight-curve $-1 0 -31.252993737295803 -8.1602866670372016 1 0 0 I I #
coedge $-1 $694 $512 $346 $518 reversed $505 $-1 #
edge $-1 $522 -8.1602866670372016 $515 8.1602866670372016 $517 $695 forward 7 unknown #
coedge $-1 $685 $347 $350 $524 forward $521 $-1 #
coedge $-1 $347 $685 $694 $696 forward $521 $-1 #
loop $-1 $-1 $347 $504 #
vertex $-1 $348 $697 #
straight-curve $-1 0 -31.252993737295803 8.1602866670372016 -1 0 0 I I #
edge $-1 $352 -3.0760323492531114 $687 3.0760323492531114 $350 $698 forward 7 unknown #
point $-1 -60.853179580902129 -31.252993737295803 -8.1602866670372016 #
point $-1 -60.853179580902129 -31.252993737295803 8.1602866670372016 #
loop $-1 $-1 $362 $354 #
plane-surface $-1 71.561021759697255 0 0 -1 0 0 0 0 1 forward_v I I I I #
coedge $-1 $530 $357 $359 $534 reversed $217 $-1 #
coedge $-1 $357 $529 $699 $700 reversed $217 $-1 #
coedge $-1 $365 $360 $357 $532 forward $355 $-1 #
edge $-1 $535 24.690106785729348 $701 32.248590983106375 $531 $702 forward 7 unknown #
coedge $-1 $359 $358 $538 $703 reversed $137 $-1 #
edge $-1 $704 -143.12204351939448 $535 -132.03919532177071 $529 $705 forward 7 unknown #
vertex $-1 $361 $706 #
straight-curve $-1 64.002537562320228 -4.4739692009378089 8.1602866670371981 0 -1 0 I I #
coedge $-1 $699 $362 $365 $542 reversed $527 $-1 #
coedge $-1 $362 $699 $533 $703 forward $527 $-1 #
vertex $-1 $363 $707 #
straight-curve $-1 71.561021759697255 -5.6826998232530421 101.16831985812746 0 0 1 I I #
straight-curve $-1 -26.047975940874807 -5.6826998232530421 104.72764201568286 0.68199835119979291 0 -0.73135370988377701 I I #
edge $-1 $701 -12.213176980498194 $366 -5.6826998232530421 $537 $708 forward 7 unknown #
point $-1 71.561021759697255 -5.6826998232530421 8.1602866670372016 #
point $-1 64.002537562320228 -5.6826998232530421 8.1602866670371981 #
edge $-1 $709 1 $709 0 $369 $-1 forward 7 unknown #
vertex $-1 $370 $710 #
ellipse-curve $-1 67.050425951124936 -10.347326364142436 3.425547243131994 0.73135370988377701 0 0.68199835119979291 0.34099917559989645 0 -0.36567685494188851 1 I I #
point $-1 68.122778836608617 -10.347326364142436 3.7418687393898984 #
edge $-1 $711 1 $711 0 $373 $-1 forward 7 unknown #
vertex $-1 $374 $712 #
ellipse-curve $-1 67.050425951124936 -7.5485504396087997 3.425547243131994 0.73135370988377701 0 0.68199835119979291 0.34099917559989645 0 -0.36567685494188851 1 I I #
point $-1 68.122778836608617 -7.5485504396087997 3.7418687393898984 #
plane-surface $-1 0 0 8.1602866670372016 0 0 1 1 0 0 forward_v I I I I #
coedge $-1 $564 $563 $556 $713 forward $378 $-1 #
coedge $-1 $556 $380 $382 $560 reversed $239 $-1 #
coedge $-1 $380 $555 $554 $713 reversed $239 $-1 #
coedge $-1 $388 $383 $380 $558 forward $389 $-1 #
edge $-1 $561 24.690106785729348 $714 32.248590983106375 $557 $715 forward 7 unknown #
coedge $-1 $382 $381 $564 $716 reversed $151 $-1 #
edge $-1 $717 -143.12204351939448 $561 -132.03919532177071 $555 $718 forward 7 unknown #
vertex $-1 $384 $719 #
straight-curve $-1 64.002537562320228 7.5500015501909239 8.1602866670371981 0 -1 0 I I #
coedge $-1 $554 $385 $388 $568 reversed $378 $-1 #
coedge $-1 $385 $554 $559 $716 forward $378 $-1 #
vertex $-1 $386 $720 #
straight-curve $-1 71.561021759697255 18.365241679004424 101.16831985812746 0 0 1 I I #
straight-curve $-1 -26.047975940874807 18.365241679004424 104.72764201568286 0.68199835119979291 0 -0.73135370988377701 I I #
edge $-1 $714 11.834764521759272 $390 18.365241679004424 $563 $721 forward 7 unknown #
point $-1 71.561021759697255 18.365241679004424 8.1602866670372016 #
point $-1 64.002537562320228 18.365241679004424 8.1602866670371981 #
edge $-1 $722 1 $722 0 $393 $-1 forward 7 unknown #
vertex $-1 $394 $723 #
ellipse-curve $-1 67.050425951124936 13.700615138115026 3.425547243131994 0.73135370988377701 0 0.68199835119979291 0.34099917559989645 0 -0.36567685494188851 1 I I #
point $-1 68.122778836608617 13.700615138115026 3.7418687393898984 #
edge $-1 $724 1 $724 0 $397 $-1 forward 7 unknown #
vertex $-1 $398 $725 #
ellipse-curve $-1 67.050425951124936 16.499391062648662 3.425547243131994 0.73135370988377701 0 0.68199835119979291 0.34099917559989645 0 -0.36567685494188851 1 I I #
point $-1 68.122778836608617 16.499391062648662 3.7418687393898984 #
plane-surface $-1 0 0 8.1602866670372016 0 0 1 1 0 0 forward_v I I I I #
coedge $-1 $590 $589 $582 $726 forward $402 $-1 #
coedge $-1 $582 $404 $406 $586 reversed $261 $-1 #
coedge $-1 $404 $581 $580 $726 reversed $261 $-1 #
coedge $-1 $412 $407 $404 $584 forward $413 $-1 #
edge $-1 $587 -13.278212990770839 $727 -6.2820028868574553 $583 $728 forward 7 unknown #
coedge $-1 $406 $405 $590 $729 reversed $165 $-1 #
edge $-1 $730 1.7500491998158137e-014 $587 8.6477913316267827 $581 $731 forward 7 unknown #
vertex $-1 $408 $732 #
straight-curve $-1 -64.564811655783885 -11.012483958691831 8.1602866670371998 0 1 0 I I #
coedge $-1 $580 $409 $412 $594 reversed $402 $-1 #
coedge $-1 $409 $580 $585 $729 forward $402 $-1 #
vertex $-1 $410 $733 #
straight-curve $-1 -71.561021759697255 -25.10092903878958 59.432703544237086 0 0 1 I I #
straight-curve $-1 -71.561021759697269 -25.10092903878958 3.0772423924651804 -0.80901698891910034 0 -0.5877852598018023 I I #
edge $-1 $727 18.949006795977745 $414 25.10092903878958 $589 $734 forward 7 unknown #
point $-1 -71.561021759697255 -25.10092903878958 8.1602866670372016 #
point $-1 -64.56481165578387 -25.10092903878958 8.1602866670372016 #
edge $-1 $735 1 $735 0 $417 $-1 forward 7 unknown #
vertex $-1 $418 $736 #
ellipse-curve $-1 -65.682383714793758 -22.024967917383663 2.3422420211299433 -0.5877852598018023 0 0.80901698891910034 1.2135254833786506 0 0.88167788970270344 1 I I #
point $-1 -66.849391224361909 -22.024967917383663 6.5004424194539006 #
loop $-1 $-1 $429 $421 #
plane-surface $-1 -71.561021759697255 0 0 1 0 0 0 0 -1 forward_v I I I I #
coedge $-1 $604 $424 $426 $608 reversed $276 $-1 #
coedge $-1 $424 $603 $737 $738 reversed $276 $-1 #
coedge $-1 $432 $427 $424 $606 forward $422 $-1 #
edge $-1 $609 -13.278212990770839 $739 -6.2820028868574553 $605 $740 forward 7 unknown #
coedge $-1 $426 $425 $612 $741 reversed $174 $-1 #
edge $-1 $742 1.7500491998158137e-014 $609 8.6477913316267827 $603 $743 forward 7 unknown #
vertex $-1 $428 $744 #
straight-curve $-1 -64.564811655783885 -2.6454838698129066 8.1602866670371998 0 1 0 I I #
coedge $-1 $737 $429 $432 $616 reversed $601 $-1 #
coedge $-1 $429 $737 $607 $741 forward $601 $-1 #
vertex $-1 $430 $745 #
straight-curve $-1 -71.561021759697255 -8.3669288610317309 59.432703544237086 0 0 1 I I #
straight-curve $-1 -71.561021759697269 -8.3669288610317309 3.0772423924651804 -0.80901698891910034 0 -0.5877852598018023 I I #
edge $-1 $739 2.2150066182198951 $433 8.3669288610317309 $611 $746 forward 7 unknown #
point $-1 -71.561021759697255 -8.3669288610317309 8.1602866670372016 #
point $-1 -64.56481165578387 -8.3669288610317309 8.1602866670372016 #
edge $-1 $747 1 $747 0 $436 $-1 forward 7 unknown #
vertex $-1 $437 $748 #
ellipse-curve $-1 -65.682383714793758 -5.2909677396258132 2.3422420211299433 -0.5877852598018023 0 0.80901698891910034 1.2135254833786506 0 0.88167788970270344 1 I I #
point $-1 -66.849391224361909 -5.2909677396258132 6.5004424194539006 #
loop $-1 $-1 $448 $440 #
plane-surface $-1 -71.561021759697255 0 0 1 0 0 0 0 -1 forward_v I I I I #
coedge $-1 $626 $443 $445 $630 reversed $291 $-1 #
coedge $-1 $443 $625 $749 $750 reversed $291 $-1 #
coedge $-1 $451 $446 $443 $628 forward $441 $-1 #
edge $-1 $631 -13.278212990770839 $751 -6.2820028868574553 $627 $752 forward 7 unknown #
coedge $-1 $445 $444 $634 $753 reversed $183 $-1 #
edge $-1 $754 1.7500491998158137e-014 $631 8.6477913316267827 $625 $755 forward 7 unknown #
vertex $-1 $447 $756 #
straight-curve $-1 -64.564811655783885 5.721516219066018 8.1602866670371998 0 1 0 I I #
coedge $-1 $749 $448 $451 $638 reversed $623 $-1 #
coedge $-1 $448 $749 $629 $753 forward $623 $-1 #
vertex $-1 $449 $757 #
straight-curve $-1 -71.561021759697255 8.3670713167261184 59.432703544237086 0 0 1 I I #
straight-curve $-1 -71.561021759697269 8.3670713167261184 3.0772423924651804 -0.80901698891910034 0 -0.5877852598018023 I I #
edge $-1 $751 -14.518993559537954 $452 -8.3670713167261184 $633 $758 forward 7 unknown #
point $-1 -71.561021759697255 8.3670713167261184 8.1602866670372016 #
point $-1 -64.56481165578387 8.3670713167261184 8.1602866670372016 #
edge $-1 $759 1 $759 0 $455 $-1 forward 7 unknown #
vertex $-1 $456 $760 #
ellipse-curve $-1 -65.682383714793758 11.443032438132036 2.3422420211299433 -0.5877852598018023 0 0.80901698891910034 1.2135254833786506 0 0.88167788970270344 1 I I #
point $-1 -66.849391224361909 11.443032438132036 6.5004424194539006 #
loop $-1 $-1 $466 $459 #
plane-surface $-1 -71.561021759697255 0 0 1 0 0 0 0 -1 forward_v I I I I #
coedge $-1 $761 $762 $463 $649 forward $460 $-1 #
coedge $-1 $463 $462 $654 $763 reversed $192 $-1 #
edge $-1 $651 19.394870982811334 $764 28.0426623144381 $647 $765 forward 7 unknown #
coedge $-1 $469 $464 $762 $766 forward $306 $-1 #
vertex $-1 $766 $767 #
straight-curve $-1 -64.564811655783885 14.088516307944943 8.1602866670371998 0 1 0 I I #
coedge $-1 $768 $466 $469 $658 reversed $645 $-1 #
coedge $-1 $466 $768 $648 $763 forward $645 $-1 #
vertex $-1 $467 $769 #
straight-curve $-1 -71.561021759697255 25.101071494483968 59.432703544237086 0 0 1 I I #
straight-curve $-1 -71.561021759697269 25.101071494483968 3.0772423924651804 -0.80901698891910034 0 -0.5877852598018023 I I #
edge $-1 $770 -31.252993737295803 $470 -25.101071494483968 $653 $771 forward 7 unknown #
point $-1 -71.561021759697255 25.101071494483968 8.1602866670372016 #
point $-1 -64.56481165578387 25.101071494483968 8.1602866670372016 #
edge $-1 $772 1 $772 0 $473 $-1 forward 7 unknown #
vertex $-1 $474 $773 #
ellipse-curve $-1 -65.682383714793758 28.177032615889885 2.3422420211299433 -0.5877852598018023 0 0.80901698891910034 1.2135254833786506 0 0.88167788970270344 1 I I #
point $-1 -66.849391224361909 28.177032615889885 6.5004424194539006 #
plane-surface $-1 71.561021759697255 0 0 -1 0 0 0 0 1 forward_v I I I I #
coedge $-1 $482 $480 $484 $670 reversed $321 $-1 #
edge $-1 $495 -8.1602866670372016 $672 8.1602866670372016 $494 $774 forward 7 unknown #
vertex $-1 $670 $775 #
straight-curve $-1 -71.561021759697255 -31.252993737295803 0 0 0 -1 I I #
edge $-1 $668 -31.252993737295803 $672 31.252993737295803 $666 $776 forward 7 unknown #
straight-curve $-1 0 -31.252993737295803 -8.1602866670372016 -1 0 0 I I #
vertex $-1 $487 $777 #
straight-curve $-1 0 31.252993737295803 -8.1602866670372016 1 0 0 I I #
point $-1 71.561021759697255 31.252993737295803 -8.1602866670372016 #
point $-1 71.561021759697255 -31.252993737295803 -8.1602866670372016 #
straight-curve $-1 -71.561021759697255 0 8.1602866670372016 0 -1 0 I I #
point $-1 -71.561021759697255 31.252993737295803 8.1602866670372016 #
point $-1 -71.561021759697255 -31.252993737295803 8.1602866670372016 #
straight-curve $-1 71.561021759697255 -31.252993737295803 0 0 0 -1 I I #
straight-curve $-1 71.561021759697255 31.252993737295803 0 0 0 -1 I I #
plane-surface $-1 0 0 8.1602866670372016 0 0 1 1 0 0 forward_v I I I I #
coedge $-1 $512 $694 $683 $778 forward $505 $-1 #
coedge $-1 $508 $507 $682 $778 reversed $209 $-1 #
edge $-1 $690 -2.1319050878375165 $688 2.1319050878375165 $507 $779 forward 7 unknown #
coedge $-1 $520 $519 $508 $686 forward $521 $-1 #
edge $-1 $687 -2.1319050878375165 $780 2.1319050878375165 $508 $781 forward 7 unknown #
vertex $-1 $524 $782 #
vertex $-1 $514 $783 #
straight-curve $-1 -60.853179580902129 -37.405058435802026 0 0 0 -1 I I #
vertex $-1 $778 $784 #
straight-curve $-1 -56.589369405227096 -34.329026086548915 -8.1602866670372016 0 -1 0 I I #
straight-curve $-1 -60.853179580902129 -34.329026086548915 -8.1602866670372016 0 1 0 I I #
point $-1 -56.589369405227096 -31.252993737295803 -8.1602866670372016 #
coedge $-1 $682 $517 $520 $696 reversed $505 $-1 #
straight-curve $-1 -56.589369405227096 -31.252993737295803 0 0 0 -1 I I #
edge $-1 $780 -3.0760323492531114 $522 3.0760323492531114 $694 $785 forward 7 unknown #
point $-1 -56.589369405227096 -31.252993737295803 8.1602866670372016 #
straight-curve $-1 -60.853179580902129 -34.329026086548915 8.1602866670372016 0 -1 0 I I #
coedge $-1 $538 $537 $530 $700 forward $527 $-1 #
edge $-1 $701 93.008033191090263 $704 101.11351533650117 $699 $786 forward 7 unknown #
vertex $-1 $542 $787 #
straight-curve $-1 39.31243077659088 -12.213176980498194 8.1602866670371981 1 0 0 I I #
edge $-1 $704 -7.7392077795603846 $539 -1.2087306223152332 $538 $788 forward 7 unknown #
vertex $-1 $703 $789 #
straight-curve $-1 -26.047975940874807 -12.213176980498194 104.72764201568286 -0.68199835119979291 0 0.73135370988377701 I I #
point $-1 64.002537562320228 -12.213176980498194 8.1602866670371981 #
point $-1 71.561021759697255 -5.6826998232530421 0.0548045216262949 #
straight-curve $-1 71.561021759697255 0 8.1602866670372016 0 1 0 I I #
vertex $-1 $545 $790 #
point $-1 67.39142512672484 -10.347326364142436 3.0598703881901055 #
vertex $-1 $549 $791 #
point $-1 67.39142512672484 -7.5485504396087997 3.0598703881901055 #
edge $-1 $714 93.008033191090263 $717 101.11351533650117 $554 $792 forward 7 unknown #
vertex $-1 $568 $793 #
straight-curve $-1 39.31243077659088 11.834764521759272 8.1602866670371981 1 0 0 I I #
edge $-1 $717 4.2847629715683482 $565 10.8152401288135 $564 $794 forward 7 unknown #
vertex $-1 $716 $795 #
straight-curve $-1 -26.047975940874807 11.834764521759272 104.72764201568286 -0.68199835119979291 0 0.73135370988377701 I I #
point $-1 64.002537562320228 11.834764521759272 8.1602866670371981 #
point $-1 71.561021759697255 18.365241679004424 0.0548045216262949 #
straight-curve $-1 71.561021759697255 0 8.1602866670372016 0 1 0 I I #
vertex $-1 $571 $796 #
point $-1 67.39142512672484 13.700615138115026 3.0598703881901055 #
vertex $-1 $575 $797 #
point $-1 67.39142512672484 16.499391062648662 3.0598703881901055 #
edge $-1 $727 51.272416877199888 $730 56.355461151771898 $580 $798 forward 7 unknown #
vertex $-1 $594 $799 #
straight-curve $-1 -77.84302464655471 -18.949006795977745 8.1602866670372052 -1 0 0 I I #
edge $-1 $730 7.9365228372859136 $591 14.088445080097749 $590 $800 forward 7 unknown #
vertex $-1 $729 $801 #
straight-curve $-1 -71.561021759697269 -18.949006795977745 3.0772423924651804 0.80901698891910034 0 0.5877852598018023 I I #
point $-1 -64.56481165578387 -18.949006795977745 8.1602866670372016 #
point $-1 -71.561021759697255 -25.10092903878958 3.0772423924651906 #
straight-curve $-1 -71.561021759697255 0 8.1602866670372016 0 -1 0 I I #
vertex $-1 $597 $802 #
point $-1 -64.468858231415112 -22.024967917383663 3.2239199108326466 #
coedge $-1 $612 $611 $604 $738 forward $601 $-1 #
edge $-1 $739 51.272416877199888 $742 56.355461151771898 $737 $803 forward 7 unknown #
vertex $-1 $616 $804 #
straight-curve $-1 -77.84302464655471 -2.2150066182198951 8.1602866670372052 -1 0 0 I I #
edge $-1 $742 -0.43047725159301153 $613 5.7214449912188243 $612 $805 forward 7 unknown #
vertex $-1 $741 $806 #
straight-curve $-1 -71.561021759697269 -2.2150066182198951 3.0772423924651804 0.80901698891910034 0 0.5877852598018023 I I #
point $-1 -64.56481165578387 -2.2150066182198951 8.1602866670372016 #
point $-1 -71.561021759697255 -8.3669288610317309 3.0772423924651906 #
straight-curve $-1 -71.561021759697255 0 8.1602866670372016 0 -1 0 I I #
vertex $-1 $619 $807 #
point $-1 -64.468858231415112 -5.2909677396258132 3.2239199108326466 #
coedge $-1 $634 $633 $626 $750 forward $623 $-1 #
edge $-1 $751 51.272416877199888 $754 56.355461151771898 $749 $808 forward 7 unknown #
vertex $-1 $638 $809 #
straight-curve $-1 -77.84302464655471 14.518993559537954 8.1602866670372052 -1 0 0 I I #
edge $-1 $754 -8.7974773404719357 $635 -2.6455550976601003 $634 $810 forward 7 unknown #
vertex $-1 $753 $811 #
straight-curve $-1 -71.561021759697269 14.518993559537954 3.0772423924651804 0.80901698891910034 0 0.5877852598018023 I I #
point $-1 -64.56481165578387 14.518993559537954 8.1602866670372016 #
point $-1 -71.561021759697255 8.3670713167261184 3.0772423924651906 #
straight-curve $-1 -71.561021759697255 0 8.1602866670372016 0 -1 0 I I #
vertex $-1 $641 $812 #
point $-1 -64.468858231415112 11.443032438132036 3.2239199108326466 #
coedge $-1 $762 $647 $768 $813 reversed $460 $-1 #
coedge $-1 $647 $761 $650 $766 reversed $460 $-1 #
edge $-1 $764 -17.16447742935086 $655 -11.012555186539025 $654 $814 forward 7 unknown #
vertex $-1 $649 $815 #
straight-curve $-1 -48.874031532795414 31.252993737295803 19.560305946491404 -0.80901698891910034 0 -0.5877852598018023 I I #
edge $-1 $651 64.56481165578387 $770 71.561021759697255 $762 $816 forward 7 unknown #
point $-1 -64.56481165578387 31.252993737295803 8.1602866670372016 #
coedge $-1 $654 $653 $761 $813 forward $645 $-1 #
point $-1 -71.561021759697255 25.101071494483968 3.0772423924651906 #
vertex $-1 $766 $817 #
straight-curve $-1 -71.561021759697255 0 8.1602866670372016 0 -1 0 I I #
vertex $-1 $661 $818 #
point $-1 -64.468858231415112 28.177032615889885 3.2239199108326466 #
straight-curve $-1 -71.561021759697255 31.252993737295803 0 0 0 -1 I I #
point $-1 -71.561021759697255 -31.252993737295803 -8.1602866670372016 #
straight-curve $-1 -71.561021759697255 0 -8.1602866670372016 0 1 0 I I #
point $-1 -71.561021759697255 31.252993737295803 -8.1602866670372016 #
edge $-1 $780 -8.1602866670372016 $690 8.1602866670372016 $682 $819 forward 7 unknown #
straight-curve $-1 -58.721274493064612 -37.405058435802026 -8.1602866670372016 -1 0 0 I I #
vertex $-1 $696 $820 #
straight-curve $-1 -58.721274493064612 -37.405058435802026 8.1602866670372016 1 0 0 I I #
point $-1 -60.853179580902129 -37.405058435802026 8.1602866670372016 #
point $-1 -60.853179580902129 -37.405058435802026 -8.1602866670372016 #
point $-1 -56.589369405227096 -37.405058435802026 -8.1602866670372016 #
straight-curve $-1 -56.589369405227096 -34.329026086548915 8.1602866670372016 0 1 0 I I #
straight-curve $-1 71.561021759697255 -12.213176980498194 101.16831985812746 0 0 -1 I I #
point $-1 71.561021759697255 -12.213176980498194 8.1602866670372016 #
straight-curve $-1 71.561021759697255 -4.4739692009378089 0.054804521626309111 0 1 0 I I #
point $-1 71.561021759697255 -12.213176980498194 0.0548045216262949 #
point $-1 66.684749096183054 -10.347326364142436 3.0845480675320975 #
point $-1 66.684749096183054 -7.5485504396087997 3.0845480675320975 #
straight-curve $-1 71.561021759697255 11.834764521759272 101.16831985812746 0 0 -1 I I #
point $-1 71.561021759697255 11.834764521759272 8.1602866670372016 #
straight-curve $-1 71.561021759697255 7.5500015501909239 0.054804521626309111 0 1 0 I I #
point $-1 71.561021759697255 11.834764521759272 0.0548045216262949 #
point $-1 66.684749096183054 13.700615138115026 3.0845480675320975 #
point $-1 66.684749096183054 16.499391062648662 3.0845480675320975 #
straight-curve $-1 -71.561021759697255 -18.949006795977745 59.432703544237086 0 0 -1 I I #
point $-1 -71.561021759697255 -18.949006795977745 8.1602866670372016 #
straight-curve $-1 -71.561021759697255 -11.012483958691831 3.0772423924651959 0 -1 0 I I #
point $-1 -71.561021759697255 -18.949006795977745 3.0772423924651906 #
point $-1 -64.800705825091057 -22.024967917383663 1.1287165377512927 #
straight-curve $-1 -71.561021759697255 -2.2150066182198951 59.432703544237086 0 0 -1 I I #
point $-1 -71.561021759697255 -2.2150066182198951 8.1602866670372016 #
straight-curve $-1 -71.561021759697255 -2.6454838698129066 3.0772423924651959 0 -1 0 I I #
point $-1 -71.561021759697255 -2.2150066182198951 3.0772423924651906 #
point $-1 -64.800705825091057 -5.2909677396258132 1.1287165377512927 #
straight-curve $-1 -71.561021759697255 14.518993559537954 59.432703544237086 0 0 -1 I I #
point $-1 -71.561021759697255 14.518993559537954 8.1602866670372016 #
straight-curve $-1 -71.561021759697255 5.721516219066018 3.0772423924651959 0 -1 0 I I #
point $-1 -71.561021759697255 14.518993559537954 3.0772423924651906 #
point $-1 -64.800705825091057 11.443032438132036 1.1287165377512927 #
edge $-1 $770 -8.1602866670372016 $764 -3.0772423924651906 $761 $821 forward 7 unknown #
straight-curve $-1 -71.561021759697255 14.088516307944943 3.0772423924651959 0 -1 0 I I #
point $-1 -71.561021759697255 31.252993737295803 3.0772423924651906 #
straight-curve $-1 0 31.252993737295803 8.1602866670372016 -1 0 0 I I #
point $-1 -71.561021759697255 31.252993737295803 8.1602866670372016 #
point $-1 -64.800705825091057 28.177032615889885 1.1287165377512927 #
straight-curve $-1 -56.589369405227096 -37.405058435802026 0 0 0 -1 I I #
point $-1 -56.589369405227096 -37.405058435802026 8.1602866670372016 #
straight-curve $-1 -71.561021759697255 31.252993737295803 0 0 0 -1 I I #
End-of-ACIS-data 