500 0 10 0           
7 Unknown 11 ACIS 5.0 NT 24 Fri Mar 26 18:55:47 1999 
-1 9.9999999999999995e-007 1e-010 
body $-1 $10 $-1 $11 #
body $-1 $12 $-1 $13 #
body $-1 $14 $-1 $15 #
body $-1 $16 $-1 $17 #
body $-1 $18 $-1 $19 #
body $-1 $20 $-1 $21 #
body $-1 $22 $-1 $23 #
body $-1 $24 $-1 $25 #
body $-1 $26 $-1 $27 #
body $-1 $28 $-1 $29 #
lump $-1 $-1 $30 $0 #
transform $-1 1 0 0 0 1 0 0 0 1 41.877498702963351 25.790696007444378 10.443394019457815 1 rotate no_reflect no_shear #
lump $-1 $-1 $31 $1 #
transform $-1 1 0 0 0 1 0 0 0 1 41.877498702963351 25.790696007444378 10.443394019457815 1 rotate no_reflect no_shear #
lump $-1 $-1 $32 $2 #
transform $-1 1 0 0 0 1 0 0 0 1 41.877498702963351 25.790696007444378 10.443394019457815 1 rotate no_reflect no_shear #
lump $-1 $-1 $33 $3 #
transform $-1 1 0 0 0 1 0 0 0 1 41.877498702963351 25.790696007444378 10.443394019457815 1 rotate no_reflect no_shear #
lump $-1 $-1 $34 $4 #
transform $-1 1 0 0 0 1 0 0 0 1 41.877498702963351 25.790696007444378 10.443394019457815 1 rotate no_reflect no_shear #
lump $-1 $-1 $35 $5 #
transform $-1 1 0 0 0 1 0 0 0 1 41.877498702963351 25.790696007444378 10.443394019457815 1 rotate no_reflect no_shear #
lump $-1 $-1 $36 $6 #
transform $-1 1 0 0 0 1 0 0 0 1 41.877498702963351 25.790696007444378 10.443394019457815 1 rotate no_reflect no_shear #
lump $-1 $-1 $37 $7 #
transform $-1 1 0 0 0 1 0 0 0 1 41.877498702963351 25.790696007444378 10.443394019457815 1 rotate no_reflect no_shear #
lump $-1 $-1 $38 $8 #
transform $-1 1 0 0 0 1 0 0 0 1 41.877498702963351 25.790696007444378 10.443394019457815 1 rotate no_reflect no_shear #
lump $-1 $-1 $39 $9 #
transform $-1 1 0 0 0 1 0 0 0 1 41.877498702963351 25.790696007444378 10.443394019457815 1 rotate no_reflect no_shear #
shell $-1 $-1 $-1 $40 $-1 $10 #
shell $-1 $-1 $-1 $41 $-1 $12 #
shell $-1 $-1 $-1 $42 $-1 $14 #
shell $-1 $-1 $-1 $43 $-1 $16 #
shell $-1 $-1 $-1 $44 $-1 $18 #
shell $-1 $-1 $-1 $45 $-1 $20 #
shell $-1 $-1 $-1 $46 $-1 $22 #
shell $-1 $-1 $-1 $47 $-1 $24 #
shell $-1 $-1 $-1 $48 $-1 $26 #
shell $-1 $-1 $-1 $49 $-1 $28 #
face $-1 $50 $51 $30 $-1 $52 forward single #
face $-1 $53 $54 $31 $-1 $55 forward single #
face $-1 $56 $57 $32 $-1 $58 reversed single #
face $-1 $59 $60 $33 $-1 $61 forward single #
face $-1 $62 $63 $34 $-1 $64 forward single #
face $-1 $65 $66 $35 $-1 $67 reversed single #
face $-1 $68 $69 $36 $-1 $70 forward single #
face $-1 $71 $72 $37 $-1 $73 forward single #
face $-1 $74 $75 $38 $-1 $76 reversed single #
face $-1 $77 $78 $39 $-1 $79 forward single #
face $-1 $80 $81 $30 $-1 $82 reversed single #
loop $-1 $-1 $83 $40 #
plane-surface $-1 0 0 10.443394019457815 0 0 1 1 0 0 forward_v I I I I #
face $-1 $84 $85 $31 $-1 $86 reversed single #
loop $-1 $-1 $87 $41 #
plane-surface $-1 -41.877498702963351 0 0 1 0 0 0 0 -1 forward_v I I I I #
face $-1 $88 $89 $32 $-1 $90 reversed single #
loop $-1 $-1 $91 $42 #
plane-surface $-1 -12.583447803804507 -85.014423318583184 61.836535104966586 -1 0 0 0 -0.70710678939079041 0.70710677298230451 forward_v I I I I #
face $-1 $92 $93 $33 $-1 $94 forward single #
loop $-1 $95 $96 $43 #
cone-surface $-1 -24.508616630920415 -21.163624846742504 5.8163227844180794 0 0.70710678939079041 -0.70710677298230451 1.5 0 0 1 I I 0 1 1.5 forward I I I I #
face $-1 $97 $98 $34 $-1 $99 forward single #
loop $-1 $100 $101 $44 #
cone-surface $-1 -17.353515334650869 -21.163624846742504 5.8163227844180794 0 0.70710678939079041 -0.70710677298230451 1.5 0 0 1 I I 0 1 1.5 forward I I I I #
face $-1 $102 $103 $35 $-1 $104 reversed single #
loop $-1 $-1 $105 $45 #
plane-surface $-1 37.321745322705311 -85.014423318583184 61.836535104966586 -1 0 0 0 -0.70710678939079041 0.70710677298230451 forward_v I I I I #
face $-1 $106 $107 $36 $-1 $108 forward single #
loop $-1 $109 $110 $46 #
cone-surface $-1 25.396576495589414 -21.163624846742504 5.8163227844180794 0 0.70710678939079041 -0.70710677298230451 1.5 0 0 1 I I 0 1 1.5 forward I I I I #
face $-1 $111 $112 $37 $-1 $113 forward single #
loop $-1 $114 $115 $47 #
cone-surface $-1 32.55167779185895 -21.163624846742504 5.8163227844180794 0 0.70710678939079041 -0.70710677298230451 1.5 0 0 1 I I 0 1 1.5 forward I I I I #
face $-1 $116 $117 $38 $-1 $118 reversed single #
loop $-1 $-1 $119 $48 #
plane-surface $-1 21.882125837481194 33.290426465245247 102.86837501752501 1 0 0 0 -0.5877852598018023 -0.80901698891910034 forward_v I I I I #
face $-1 $120 $121 $39 $-1 $122 forward single #
loop $-1 $123 $124 $49 #
cone-surface $-1 31.879812270222274 21.25022909348823 6.722083292795765 0 -0.5877852598018023 -0.80901698891910034 1.5 0 0 1 I I 0 1 1.5 forward I I I I #
face $-1 $125 $126 $30 $-1 $127 reversed single #
loop $-1 $-1 $128 $50 #
plane-surface $-1 0 0 -10.443394019457815 0 0 1 1 0 0 forward_v I I I I #
coedge $-1 $129 $130 $131 $132 forward $51 $-1 #
face $-1 $133 $134 $31 $-1 $135 reversed single #
loop $-1 $-1 $136 $53 #
plane-surface $-1 0 0 -10.443394019457815 0 0 1 1 0 0 forward_v I I I I #
coedge $-1 $137 $138 $139 $140 forward $54 $-1 #
face $-1 $141 $142 $32 $-1 $143 reversed single #
loop $-1 $-1 $144 $56 #
plane-surface $-1 -20.931065982785643 -25.790696007444375 2.6128091681204708 0 -0.70710678939079041 0.70710677298230451 1 0 0 forward_v I I I I #
coedge $-1 $145 $146 $147 $148 reversed $57 $-1 #
face $-1 $-1 $149 $33 $-1 $150 forward single #
loop $-1 $151 $152 $59 #
cone-surface $-1 -24.508616630920415 -19.921515928811441 4.5742138953102813 0 0.70710678939079041 -0.70710677298230451 0.75 0 0 1 I I -0.70710678118654757 0.70710678118654757 0.75 forward I I I I #
loop $-1 $-1 $153 $43 #
coedge $-1 $96 $96 $154 $155 reversed $60 $-1 #
face $-1 $-1 $156 $34 $-1 $157 forward single #
loop $-1 $158 $159 $62 #
cone-surface $-1 -17.353515334650869 -19.921515928811441 4.5742138953102813 0 0.70710678939079041 -0.70710677298230451 0.75 0 0 1 I I -0.70710678118654757 0.70710678118654757 0.75 forward I I I I #
loop $-1 $-1 $160 $44 #
coedge $-1 $101 $101 $161 $162 reversed $63 $-1 #
face $-1 $163 $164 $35 $-1 $165 reversed single #
loop $-1 $-1 $166 $65 #
plane-surface $-1 28.974127143724175 -25.790696007444375 2.6128091681204708 0 -0.70710678939079041 0.70710677298230451 1 0 0 forward_v I I I I #
coedge $-1 $167 $168 $169 $170 reversed $66 $-1 #
face $-1 $-1 $171 $36 $-1 $172 forward single #
loop $-1 $173 $174 $68 #
cone-surface $-1 25.396576495589414 -19.921515928811441 4.5742138953102813 0 0.70710678939079041 -0.70710677298230451 0.75 0 0 1 I I -0.70710678118654757 0.70710678118654757 0.75 forward I I I I #
loop $-1 $-1 $175 $46 #
coedge $-1 $110 $110 $176 $177 reversed $69 $-1 #
face $-1 $-1 $178 $37 $-1 $179 forward single #
loop $-1 $180 $181 $71 #
cone-surface $-1 32.55167779185895 -19.921515928811441 4.5742138953102813 0 0.70710678939079041 -0.70710677298230451 0.75 0 0 1 I I -0.70710678118654757 0.70710678118654757 0.75 forward I I I I #
loop $-1 $-1 $182 $47 #
coedge $-1 $115 $115 $183 $184 reversed $72 $-1 #
face $-1 $185 $186 $38 $-1 $187 reversed single #
loop $-1 $-1 $188 $74 #
plane-surface $-1 31.879812270222274 -15.939526444696654 35.109159209255125 0 0.5877852598018023 0.80901698891910034 1 0 0 forward_v I I I I #
coedge $-1 $189 $190 $191 $192 reversed $75 $-1 #
face $-1 $-1 $193 $39 $-1 $194 forward single #
loop $-1 $195 $196 $77 #
cone-surface $-1 31.879812270222274 20.159278161176719 5.2205181827507285 0 -0.5877852598018023 -0.80901698891910034 0.75 0 0 1 I I -0.70710678118654757 0.70710678118654757 0.75 forward I I I I #
loop $-1 $-1 $197 $49 #
coedge $-1 $124 $124 $198 $199 reversed $78 $-1 #
face $-1 $200 $201 $30 $-1 $202 reversed single #
loop $-1 $-1 $203 $80 #
plane-surface $-1 0 -25.790696007444378 0 0 1 0 0 0 1 forward_v I I I I #
coedge $-1 $204 $205 $206 $207 forward $81 $-1 #
coedge $-1 $208 $83 $209 $210 forward $51 $-1 #
coedge $-1 $83 $208 $211 $212 forward $51 $-1 #
coedge $-1 $213 $214 $83 $132 reversed $215 $-1 #
edge $-1 $216 -25.790696007444378 $217 25.790696007444378 $131 $218 forward 7 unknown #
face $-1 $219 $220 $31 $-1 $221 reversed single #
loop $-1 $-1 $222 $84 #
plane-surface $-1 -45.899029283432611 -13.83487363651234 0 0 1 0 0 0 1 forward_v I I I I #
coedge $-1 $223 $224 $138 $225 forward $85 $-1 #
coedge $-1 $226 $87 $227 $228 reversed $54 $-1 #
coedge $-1 $87 $226 $136 $225 reversed $54 $-1 #
coedge $-1 $229 $230 $87 $140 reversed $231 $-1 #
edge $-1 $232 -10.443394019457815 $233 10.443394019457815 $139 $234 forward 7 unknown #
face $-1 $235 $236 $32 $-1 $237 forward single #
loop $-1 $-1 $238 $88 #
plane-surface $-1 -29.27868416176678 -85.014423318583184 61.836535104966586 1 0 0 0 0.70710678939079041 -0.70710677298230451 forward_v I I I I #
coedge $-1 $239 $240 $241 $242 reversed $89 $-1 #
coedge $-1 $146 $91 $243 $244 reversed $57 $-1 #
coedge $-1 $91 $145 $239 $245 reversed $57 $-1 #
coedge $-1 $241 $246 $91 $148 forward $236 $-1 #
edge $-1 $247 16.716515651847214 $248 24.547100321475035 $147 $249 forward 7 unknown #
loop $-1 $-1 $154 $92 #
plane-surface $-1 -20.931065982785643 -25.790696007444375 2.6128091681204708 0 -0.70710678939079041 0.70710677298230451 1 0 0 forward_v I I I I #
loop $-1 $-1 $250 $59 #
coedge $-1 $152 $152 $153 $251 reversed $93 $-1 #
coedge $-1 $153 $153 $152 $251 forward $95 $-1 #
coedge $-1 $154 $154 $96 $155 forward $149 $-1 #
edge $-1 $252 7.772620265355633e-023 $252 6.2831853071796004 $154 $253 forward 7 unknown #
loop $-1 $-1 $161 $97 #
plane-surface $-1 -20.931065982785643 -25.790696007444375 2.6128091681204708 0 -0.70710678939079041 0.70710677298230451 1 0 0 forward_v I I I I #
loop $-1 $-1 $254 $62 #
coedge $-1 $159 $159 $160 $255 reversed $98 $-1 #
coedge $-1 $160 $160 $159 $255 forward $100 $-1 #
coedge $-1 $161 $161 $101 $162 forward $156 $-1 #
edge $-1 $256 7.772620265355633e-023 $256 6.2831853071796004 $161 $257 forward 7 unknown #
face $-1 $258 $259 $35 $-1 $260 reversed single #
loop $-1 $-1 $261 $102 #
plane-surface $-1 20.626508964743039 -85.014423318583184 61.836535104966586 1 0 0 0 0.70710678939079041 -0.70710677298230451 forward_v I I I I #
coedge $-1 $262 $263 $264 $265 reversed $103 $-1 #
coedge $-1 $168 $105 $266 $267 reversed $66 $-1 #
coedge $-1 $105 $167 $262 $268 reversed $66 $-1 #
coedge $-1 $264 $269 $105 $170 forward $270 $-1 #
edge $-1 $271 16.716515651847214 $272 24.547100321475035 $169 $273 forward 7 unknown #
loop $-1 $-1 $176 $106 #
plane-surface $-1 28.974127143724175 -25.790696007444375 2.6128091681204708 0 -0.70710678939079041 0.70710677298230451 1 0 0 forward_v I I I I #
loop $-1 $-1 $274 $68 #
coedge $-1 $174 $174 $175 $275 reversed $107 $-1 #
coedge $-1 $175 $175 $174 $275 forward $109 $-1 #
coedge $-1 $176 $176 $110 $177 forward $171 $-1 #
edge $-1 $276 7.772620265355633e-023 $276 6.2831853071796004 $176 $277 forward 7 unknown #
loop $-1 $-1 $183 $111 #
plane-surface $-1 28.974127143724175 -25.790696007444375 2.6128091681204708 0 -0.70710678939079041 0.70710677298230451 1 0 0 forward_v I I I I #
loop $-1 $-1 $278 $71 #
coedge $-1 $181 $181 $182 $279 reversed $112 $-1 #
coedge $-1 $182 $182 $181 $279 forward $114 $-1 #
coedge $-1 $183 $183 $115 $184 forward $178 $-1 #
edge $-1 $280 7.772620265355633e-023 $280 6.2831853071796004 $183 $281 forward 7 unknown #
face $-1 $282 $283 $38 $-1 $284 forward single #
loop $-1 $-1 $285 $116 #
plane-surface $-1 0 25.790696007444378 0 0 -1 0 0 0 -1 forward_v I I I I #
coedge $-1 $286 $287 $288 $289 reversed $117 $-1 #
coedge $-1 $190 $119 $290 $291 reversed $75 $-1 #
coedge $-1 $119 $189 $286 $292 reversed $75 $-1 #
coedge $-1 $288 $293 $119 $192 forward $283 $-1 #
edge $-1 $294 -9.1454827748217546 $295 -1.3647729218297684 $191 $296 forward 7 unknown #
loop $-1 $-1 $198 $120 #
plane-surface $-1 31.879812270222274 -15.939526444696654 35.109159209255125 0 0.5877852598018023 0.80901698891910034 1 0 0 forward_v I I I I #
loop $-1 $-1 $297 $77 #
coedge $-1 $196 $196 $197 $298 reversed $121 $-1 #
coedge $-1 $197 $197 $196 $298 forward $123 $-1 #
coedge $-1 $198 $198 $124 $199 forward $193 $-1 #
edge $-1 $299 -1.5642507392153615e-015 $299 6.2831853071795987 $198 $300 forward 7 unknown #
face $-1 $301 $302 $30 $-1 $303 reversed single #
loop $-1 $-1 $304 $125 #
plane-surface $-1 -41.877498702963351 0 0 1 0 0 0 0 -1 forward_v I I I I #
coedge $-1 $305 $211 $306 $307 forward $126 $-1 #
coedge $-1 $308 $128 $305 $309 forward $81 $-1 #
coedge $-1 $128 $308 $310 $311 forward $81 $-1 #
coedge $-1 $214 $213 $128 $207 reversed $215 $-1 #
edge $-1 $312 -25.790696007444378 $313 25.790696007444378 $206 $314 forward 7 unknown #
coedge $-1 $130 $129 $315 $316 forward $51 $-1 #
coedge $-1 $317 $318 $129 $210 reversed $302 $-1 #
edge $-1 $217 -41.877498702963351 $319 41.877498702963351 $209 $320 forward 7 unknown #
coedge $-1 $203 $321 $130 $212 reversed $126 $-1 #
edge $-1 $322 -41.877498702963351 $216 41.877498702963351 $211 $323 forward 7 unknown #
coedge $-1 $206 $131 $321 $324 forward $215 $-1 #
coedge $-1 $131 $206 $317 $325 reversed $215 $-1 #
loop $-1 $-1 $213 $301 #
vertex $-1 $132 $326 #
vertex $-1 $132 $327 #
straight-curve $-1 41.877498702963351 0 10.443394019457815 0 1 0 I I #
face $-1 $328 $231 $31 $-1 $329 reversed single #
loop $-1 $-1 $330 $133 #
plane-surface $-1 -49.920559863901872 -12.33487363651234 0 1 0 0 0 0 -1 forward_v I I I I #
coedge $-1 $331 $332 $333 $334 forward $134 $-1 #
coedge $-1 $335 $136 $331 $336 forward $85 $-1 #
coedge $-1 $136 $335 $229 $337 forward $85 $-1 #
edge $-1 $232 10.83487363651234 $338 13.83487363651234 $136 $339 forward 7 unknown #
coedge $-1 $138 $137 $340 $341 forward $54 $-1 #
coedge $-1 $342 $343 $137 $228 forward $344 $-1 #
edge $-1 $345 -13.83487363651234 $233 -10.83487363651234 $227 $346 forward 7 unknown #
coedge $-1 $347 $139 $224 $337 reversed $231 $-1 #
coedge $-1 $139 $347 $342 $348 reversed $231 $-1 #
loop $-1 $-1 $139 $219 #
vertex $-1 $225 $349 #
vertex $-1 $348 $350 #
straight-curve $-1 -41.877498702963351 -10.83487363651234 0 0 0 1 I I #
face $-1 $-1 $351 $32 $-1 $352 reversed single #
loop $-1 $-1 $147 $141 #
plane-surface $-1 0 0 10.443394019457815 0 0 1 1 0 0 forward_v I I I I #
coedge $-1 $353 $354 $355 $356 reversed $142 $-1 #
coedge $-1 $357 $144 $146 $245 forward $89 $-1 #
coedge $-1 $144 $357 $353 $358 forward $89 $-1 #
coedge $-1 $355 $147 $144 $242 forward $236 $-1 #
edge $-1 $248 2.1179148124116853 $359 18.813151170373956 $241 $360 forward 7 unknown #
coedge $-1 $361 $362 $145 $244 forward $351 $-1 #
edge $-1 $363 -28.305458384362826 $247 -20.47487353302548 $243 $364 forward 7 unknown #
edge $-1 $248 -11.074119169586545 $363 5.0242958677880813e-015 $146 $365 forward 7 unknown #
coedge $-1 $147 $355 $361 $366 forward $236 $-1 #
vertex $-1 $148 $367 #
vertex $-1 $148 $368 #
straight-curve $-1 -12.583447803804507 -42.507211659291592 10.443394019457813 0 1 0 I I #
coedge $-1 $250 $250 $-1 $369 reversed $151 $-1 #
edge $-1 $370 0 $370 6.2831853071796004 $152 $371 forward 7 unknown #
vertex $-1 $155 $372 #
ellipse-curve $-1 -24.508616630920415 -21.875403672630469 6.5281015937891418 0 -0.70710678939079041 0.70710677298230451 1.5 0 0 1 I I #
coedge $-1 $254 $254 $-1 $373 reversed $158 $-1 #
edge $-1 $374 0 $374 6.2831853071796004 $159 $375 forward 7 unknown #
vertex $-1 $162 $376 #
ellipse-curve $-1 -17.353515334650869 -21.875403672630469 6.5281015937891418 0 -0.70710678939079041 0.70710677298230451 1.5 0 0 1 I I #
face $-1 $-1 $270 $35 $-1 $377 forward single #
loop $-1 $-1 $378 $163 #
plane-surface $-1 0 -25.790696007444378 0 0 1 0 0 0 1 forward_v I I I I #
coedge $-1 $379 $380 $381 $382 reversed $164 $-1 #
coedge $-1 $383 $166 $168 $268 forward $103 $-1 #
coedge $-1 $166 $383 $379 $384 forward $103 $-1 #
coedge $-1 $381 $169 $166 $265 forward $270 $-1 #
edge $-1 $272 -22.834681750843224 $385 -6.1394453928809511 $264 $386 forward 7 unknown #
coedge $-1 $387 $388 $167 $267 forward $259 $-1 #
edge $-1 $389 -28.305458384362826 $271 -20.47487353302548 $266 $390 forward 7 unknown #
edge $-1 $272 -11.074119169586545 $389 5.0242958677880813e-015 $168 $391 forward 7 unknown #
coedge $-1 $169 $381 $387 $392 forward $270 $-1 #
loop $-1 $-1 $381 $258 #
vertex $-1 $267 $393 #
vertex $-1 $170 $394 #
straight-curve $-1 37.321745322705311 -42.507211659291592 10.443394019457813 0 1 0 I I #
coedge $-1 $274 $274 $-1 $395 reversed $173 $-1 #
edge $-1 $396 0 $396 6.2831853071796004 $174 $397 forward 7 unknown #
vertex $-1 $177 $398 #
ellipse-curve $-1 25.396576495589414 -21.875403672630469 6.5281015937891418 0 -0.70710678939079041 0.70710677298230451 1.5 0 0 1 I I #
coedge $-1 $278 $278 $-1 $399 reversed $180 $-1 #
edge $-1 $400 0 $400 6.2831853071796004 $181 $401 forward 7 unknown #
vertex $-1 $184 $402 #
ellipse-curve $-1 32.55167779185895 -21.875403672630469 6.5281015937891418 0 -0.70710678939079041 0.70710677298230451 1.5 0 0 1 I I #
face $-1 $-1 $403 $38 $-1 $404 reversed single #
loop $-1 $-1 $288 $185 #
plane-surface $-1 0 0 10.443394019457815 0 0 1 1 0 0 forward_v I I I I #
coedge $-1 $290 $405 $406 $407 forward $186 $-1 #
coedge $-1 $406 $188 $190 $292 forward $117 $-1 #
coedge $-1 $188 $406 $408 $409 reversed $117 $-1 #
coedge $-1 $410 $191 $188 $289 forward $283 $-1 #
edge $-1 $295 5.9422197023700569 $411 25.937592567852214 $288 $412 forward 7 unknown #
coedge $-1 $413 $285 $189 $291 forward $186 $-1 #
edge $-1 $414 -46.643810205917383 $294 -40.990793489304693 $290 $415 forward 7 unknown #
edge $-1 $295 41.963905658529882 $414 51.581392014888763 $190 $416 forward 7 unknown #
coedge $-1 $191 $410 $413 $417 forward $283 $-1 #
vertex $-1 $291 $418 #
vertex $-1 $192 $419 #
straight-curve $-1 21.882125837481194 16.645213232622623 10.443394019457813 0 -1 0 I I #
coedge $-1 $297 $297 $-1 $420 reversed $195 $-1 #
edge $-1 $421 0 $421 6.2831853071796004 $196 $422 forward 7 unknown #
vertex $-1 $199 $423 #
ellipse-curve $-1 31.879812270222274 21.900341080948383 7.6168856611514677 0 0.5877852598018023 0.80901698891910034 1.5 0 0 1 I I #
face $-1 $-1 $215 $30 $-1 $424 reversed single #
loop $-1 $-1 $317 $200 #
plane-surface $-1 0 25.790696007444378 0 0 -1 0 0 0 -1 forward_v I I I I #
coedge $-1 $425 $315 $318 $426 forward $201 $-1 #
coedge $-1 $321 $203 $204 $309 reversed $126 $-1 #
coedge $-1 $315 $425 $203 $307 reversed $201 $-1 #
edge $-1 $322 -10.443394019457815 $427 10.443394019457815 $306 $428 forward 7 unknown #
coedge $-1 $205 $204 $425 $429 forward $81 $-1 #
edge $-1 $313 -41.877498702963351 $427 41.877498702963351 $305 $430 forward 7 unknown #
coedge $-1 $318 $317 $205 $311 reversed $302 $-1 #
edge $-1 $431 -41.877498702963351 $312 41.877498702963351 $310 $432 forward 7 unknown #
vertex $-1 $207 $433 #
vertex $-1 $324 $434 #
straight-curve $-1 41.877498702963351 0 -10.443394019457815 0 -1 0 I I #
coedge $-1 $304 $306 $208 $316 reversed $201 $-1 #
edge $-1 $319 -25.790696007444378 $322 25.790696007444378 $315 $435 forward 7 unknown #
coedge $-1 $310 $209 $214 $325 forward $302 $-1 #
coedge $-1 $209 $310 $304 $426 reversed $302 $-1 #
vertex $-1 $210 $436 #
straight-curve $-1 0 25.790696007444378 10.443394019457815 -1 0 0 I I #
coedge $-1 $211 $305 $213 $324 reversed $126 $-1 #
vertex $-1 $316 $437 #
straight-curve $-1 0 -25.790696007444378 10.443394019457815 1 0 0 I I #
edge $-1 $216 -10.443394019457815 $313 10.443394019457815 $213 $438 forward 7 unknown #
edge $-1 $217 -10.443394019457815 $312 10.443394019457815 $214 $439 forward 7 unknown #
point $-1 41.877498702963351 -25.790696007444378 10.443394019457815 #
point $-1 41.877498702963351 25.790696007444378 10.443394019457815 #
face $-1 $-1 $344 $31 $-1 $440 forward single #
plane-surface $-1 -45.899029283432611 -10.83487363651234 0 0 -1 0 0 0 -1 forward_v I I I I #
coedge $-1 $441 $442 $347 $443 forward $220 $-1 #
coedge $-1 $340 $222 $223 $336 reversed $134 $-1 #
coedge $-1 $222 $340 $343 $444 reversed $134 $-1 #
coedge $-1 $442 $441 $222 $334 reversed $220 $-1 #
edge $-1 $445 -10.443394019457815 $446 10.443394019457815 $333 $447 forward 7 unknown #
coedge $-1 $224 $223 $441 $448 forward $85 $-1 #
edge $-1 $338 -4.0215305804692605 $446 4.0215305804692605 $331 $449 forward 7 unknown #
edge $-1 $450 -4.0215305804692605 $232 4.0215305804692605 $229 $451 forward 7 unknown #
vertex $-1 $336 $452 #
straight-curve $-1 -41.877498702963351 0 -10.443394019457815 0 -1 0 I I #
coedge $-1 $332 $331 $226 $341 reversed $134 $-1 #
edge $-1 $345 -10.443394019457815 $338 10.443394019457815 $340 $453 forward 7 unknown #
coedge $-1 $454 $227 $230 $348 forward $344 $-1 #
coedge $-1 $227 $454 $332 $444 forward $344 $-1 #
loop $-1 $-1 $227 $328 #
vertex $-1 $228 $455 #
straight-curve $-1 -41.877498702963351 0 10.443394019457815 0 1 0 I I #
coedge $-1 $230 $229 $330 $443 reversed $231 $-1 #
edge $-1 $233 -4.0215305804692605 $456 4.0215305804692605 $230 $457 forward 7 unknown #
point $-1 -41.877498702963351 -10.83487363651234 -10.443394019457815 #
point $-1 -41.877498702963351 -10.83487363651234 10.443394019457815 #
loop $-1 $-1 $243 $235 #
plane-surface $-1 0 -25.790696007444378 0 0 1 0 0 0 1 forward_v I I I I #
coedge $-1 $354 $238 $240 $358 reversed $142 $-1 #
coedge $-1 $238 $353 $458 $459 reversed $142 $-1 #
coedge $-1 $246 $241 $238 $356 forward $236 $-1 #
edge $-1 $359 -24.547100321475035 $460 -16.716515651847214 $355 $461 forward 7 unknown #
coedge $-1 $240 $239 $362 $462 reversed $89 $-1 #
edge $-1 $463 -5.0242958677880813e-015 $359 11.074119169586545 $353 $464 forward 7 unknown #
vertex $-1 $242 $465 #
straight-curve $-1 -10.465532991392822 -17.96011133781656 10.443394019457815 -1 0 0 I I #
coedge $-1 $458 $243 $246 $366 reversed $351 $-1 #
coedge $-1 $243 $458 $357 $462 forward $351 $-1 #
vertex $-1 $244 $466 #
straight-curve $-1 -12.583447803804507 -25.790696007444378 30.918267552483293 0 0 1 I I #
straight-curve $-1 -12.583447803804507 -25.790696007444375 2.6128091681204708 0 -0.70710677298230451 -0.70710678939079041 I I #
edge $-1 $460 -29.27868416176678 $247 -12.583447803804507 $361 $467 forward 7 unknown #
point $-1 -12.583447803804507 -25.790696007444378 10.443394019457815 #
point $-1 -12.583447803804507 -17.960111337816556 10.443394019457816 #
edge $-1 $468 1 $468 0 $250 $-1 forward 7 unknown #
vertex $-1 $251 $469 #
ellipse-curve $-1 -24.508616630920415 -20.451846020854536 5.1045439750470099 0 -0.70710678939079041 0.70710677298230451 1.5 0 0 1 I I #
point $-1 -23.008616630920415 -21.875403672630476 6.5281015937891489 #
edge $-1 $470 1 $470 0 $254 $-1 forward 7 unknown #
vertex $-1 $255 $471 #
ellipse-curve $-1 -17.353515334650869 -20.451846020854536 5.1045439750470099 0 -0.70710678939079041 0.70710677298230451 1.5 0 0 1 I I #
point $-1 -15.853515334650869 -21.875403672630476 6.5281015937891489 #
plane-surface $-1 0 0 10.443394019457815 0 0 1 1 0 0 forward_v I I I I #
coedge $-1 $388 $387 $380 $472 forward $259 $-1 #
coedge $-1 $380 $261 $263 $384 reversed $164 $-1 #
coedge $-1 $261 $379 $378 $472 reversed $164 $-1 #
coedge $-1 $269 $264 $261 $382 forward $270 $-1 #
edge $-1 $385 -24.547100321475035 $473 -16.716515651847214 $381 $474 forward 7 unknown #
coedge $-1 $263 $262 $388 $475 reversed $103 $-1 #
edge $-1 $476 -5.0242958677880813e-015 $385 11.074119169586545 $379 $477 forward 7 unknown #
vertex $-1 $265 $478 #
straight-curve $-1 14.487063571862087 -17.96011133781656 10.443394019457815 -1 0 0 I I #
coedge $-1 $378 $266 $269 $392 reversed $259 $-1 #
coedge $-1 $266 $378 $383 $475 forward $259 $-1 #
vertex $-1 $267 $479 #
straight-curve $-1 37.321745322705311 -25.790696007444378 30.918267552483293 0 0 1 I I #
straight-curve $-1 37.321745322705311 -25.790696007444375 2.6128091681204708 0 -0.70710677298230451 -0.70710678939079041 I I #
edge $-1 $473 20.626508964743039 $271 37.321745322705311 $387 $480 forward 7 unknown #
point $-1 37.321745322705311 -25.790696007444378 10.443394019457815 #
point $-1 37.321745322705311 -17.960111337816556 10.443394019457816 #
edge $-1 $481 1 $481 0 $274 $-1 forward 7 unknown #
vertex $-1 $275 $482 #
ellipse-curve $-1 25.396576495589414 -20.451846020854536 5.1045439750470099 0 -0.70710678939079041 0.70710677298230451 1.5 0 0 1 I I #
point $-1 26.896576495589414 -21.875403672630476 6.5281015937891489 #
edge $-1 $483 1 $483 0 $278 $-1 forward 7 unknown #
vertex $-1 $279 $484 #
ellipse-curve $-1 32.55167779185895 -20.451846020854536 5.1045439750470099 0 -0.70710678939079041 0.70710677298230451 1.5 0 0 1 I I #
point $-1 34.05167779185895 -21.875403672630476 6.5281015937891489 #
loop $-1 $-1 $408 $282 #
plane-surface $-1 41.877498702963351 0 0 -1 0 0 0 0 1 forward_v I I I I #
coedge $-1 $285 $413 $485 $486 forward $186 $-1 #
coedge $-1 $287 $286 $285 $407 reversed $117 $-1 #
edge $-1 $487 -25.937592567852214 $414 -5.9422197023700569 $285 $488 forward 7 unknown #
coedge $-1 $485 $489 $287 $409 forward $403 $-1 #
edge $-1 $411 25.197908680370027 $487 34.815395036728901 $408 $490 forward 7 unknown #
coedge $-1 $293 $288 $489 $491 forward $283 $-1 #
vertex $-1 $491 $492 #
straight-curve $-1 15.939906135111137 18.009986154452392 10.443394019457813 1 0 0 I I #
coedge $-1 $405 $290 $293 $417 reversed $186 $-1 #
vertex $-1 $291 $493 #
straight-curve $-1 21.882125837481194 25.790696007444378 51.434187508762506 0 0 1 I I #
straight-curve $-1 21.882125837481194 -15.939526444696654 35.109159209255125 0 0.80901698891910034 -0.5877852598018023 I I #
edge $-1 $494 -41.877498702963351 $294 -21.882125837481194 $413 $495 forward 7 unknown #
point $-1 21.882125837481194 25.790696007444378 10.443394019457815 #
point $-1 21.882125837481194 18.009986154452392 10.443394019457813 #
edge $-1 $496 1 $496 0 $297 $-1 forward 7 unknown #
vertex $-1 $298 $497 #
ellipse-curve $-1 31.879812270222274 20.600117106028069 5.8272809244400534 0 0.5877852598018023 0.80901698891910034 1.5 0 0 1 I I #
point $-1 33.379812270222274 21.900341080948387 7.6168856611514766 #
plane-surface $-1 41.877498702963351 0 0 -1 0 0 0 0 1 forward_v I I I I #
coedge $-1 $306 $304 $308 $429 reversed $201 $-1 #
edge $-1 $319 -10.443394019457815 $431 10.443394019457815 $318 $498 forward 7 unknown #
vertex $-1 $429 $499 #
straight-curve $-1 -41.877498702963351 -25.790696007444378 0 0 0 -1 I I #
edge $-1 $427 -25.790696007444378 $431 25.790696007444378 $425 $500 forward 7 unknown #
straight-curve $-1 0 -25.790696007444378 -10.443394019457815 -1 0 0 I I #
vertex $-1 $311 $501 #
straight-curve $-1 0 25.790696007444378 -10.443394019457815 1 0 0 I I #
point $-1 41.877498702963351 25.790696007444378 -10.443394019457815 #
point $-1 41.877498702963351 -25.790696007444378 -10.443394019457815 #
straight-curve $-1 -41.877498702963351 0 10.443394019457815 0 -1 0 I I #
point $-1 -41.877498702963351 25.790696007444378 10.443394019457815 #
point $-1 -41.877498702963351 -25.790696007444378 10.443394019457815 #
straight-curve $-1 41.877498702963351 -25.790696007444378 0 0 0 -1 I I #
straight-curve $-1 41.877498702963351 25.790696007444378 0 0 0 -1 I I #
plane-surface $-1 0 0 10.443394019457815 0 0 1 1 0 0 forward_v I I I I #
coedge $-1 $333 $330 $335 $448 reversed $220 $-1 #
coedge $-1 $330 $333 $454 $502 reversed $220 $-1 #
edge $-1 $456 -10.443394019457815 $450 10.443394019457815 $347 $503 forward 7 unknown #
edge $-1 $445 -4.0215305804692605 $345 4.0215305804692605 $332 $504 forward 7 unknown #
vertex $-1 $502 $505 #
vertex $-1 $448 $506 #
straight-curve $-1 -49.920559863901872 -13.83487363651234 0 0 0 -1 I I #
edge $-1 $446 -1.5 $450 1.5 $441 $507 forward 7 unknown #
straight-curve $-1 -45.899029283432611 -13.83487363651234 -10.443394019457815 -1 0 0 I I #
vertex $-1 $337 $508 #
straight-curve $-1 -45.899029283432611 -10.83487363651234 -10.443394019457815 1 0 0 I I #
point $-1 -41.877498702963351 -13.83487363651234 -10.443394019457815 #
straight-curve $-1 -41.877498702963351 -13.83487363651234 0 0 0 -1 I I #
coedge $-1 $343 $342 $442 $502 forward $344 $-1 #
point $-1 -41.877498702963351 -13.83487363651234 10.443394019457815 #
vertex $-1 $348 $509 #
straight-curve $-1 -45.899029283432611 -10.83487363651234 10.443394019457815 -1 0 0 I I #
coedge $-1 $362 $361 $354 $459 forward $351 $-1 #
edge $-1 $460 20.47487353302548 $463 28.305458384362826 $458 $510 forward 7 unknown #
vertex $-1 $366 $511 #
straight-curve $-1 -29.27868416176678 -42.507211659291592 10.443394019457813 0 -1 0 I I #
edge $-1 $463 -18.813151170373956 $363 -2.1179148124116853 $362 $512 forward 7 unknown #
vertex $-1 $462 $513 #
straight-curve $-1 -29.27868416176678 -25.790696007444375 2.6128091681204708 0 0.70710677298230451 0.70710678939079041 I I #
point $-1 -29.27868416176678 -17.960111337816556 10.443394019457816 #
point $-1 -12.583447803804507 -25.790696007444378 2.6128091681204673 #
straight-curve $-1 0 -25.790696007444378 10.443394019457815 1 0 0 I I #
vertex $-1 $369 $514 #
point $-1 -23.008616630920415 -20.451846020854536 5.1045439750470099 #
vertex $-1 $373 $515 #
point $-1 -15.853515334650869 -20.451846020854536 5.1045439750470099 #
edge $-1 $473 20.47487353302548 $476 28.305458384362826 $378 $516 forward 7 unknown #
vertex $-1 $392 $517 #
straight-curve $-1 20.626508964743039 -42.507211659291592 10.443394019457813 0 -1 0 I I #
edge $-1 $476 6.1394453928809511 $389 22.834681750843224 $388 $518 forward 7 unknown #
vertex $-1 $475 $519 #
straight-curve $-1 20.626508964743039 -25.790696007444375 2.6128091681204708 0 0.70710677298230451 0.70710678939079041 I I #
point $-1 20.626508964743039 -17.960111337816556 10.443394019457816 #
point $-1 37.321745322705311 -25.790696007444378 2.6128091681204673 #
straight-curve $-1 0 -25.790696007444378 10.443394019457815 1 0 0 I I #
vertex $-1 $395 $520 #
point $-1 26.896576495589414 -20.451846020854536 5.1045439750470099 #
vertex $-1 $399 $521 #
point $-1 34.05167779185895 -20.451846020854536 5.1045439750470099 #
coedge $-1 $489 $408 $405 $486 reversed $403 $-1 #
edge $-1 $494 -10.443394019457815 $487 -4.7903773028451226 $485 $522 forward 7 unknown #
vertex $-1 $409 $523 #
straight-curve $-1 15.939906135111137 25.790696007444375 4.7903773028451226 -1 0 0 I I #
coedge $-1 $408 $485 $410 $491 reversed $403 $-1 #
straight-curve $-1 41.877498702963351 -2.375550053199027 25.254353319611198 0 0.80901698891910034 -0.5877852598018023 I I #
edge $-1 $411 18.009986154452392 $494 25.790696007444378 $489 $524 forward 7 unknown #
point $-1 41.877498702963351 18.009986154452392 10.443394019457813 #
point $-1 21.882125837481194 25.790696007444382 4.7903773028451226 #
vertex $-1 $491 $525 #
straight-curve $-1 0 25.790696007444378 10.443394019457815 -1 0 0 I I #
vertex $-1 $420 $526 #
point $-1 33.379812270222274 20.600117106028069 5.8272809244400534 #
straight-curve $-1 -41.877498702963351 25.790696007444378 0 0 0 -1 I I #
point $-1 -41.877498702963351 -25.790696007444378 -10.443394019457815 #
straight-curve $-1 -41.877498702963351 0 -10.443394019457815 0 1 0 I I #
point $-1 -41.877498702963351 25.790696007444378 -10.443394019457815 #
edge $-1 $456 -1.5 $445 1.5 $442 $527 forward 7 unknown #
straight-curve $-1 -49.920559863901872 -10.83487363651234 0 0 0 -1 I I #
straight-curve $-1 -45.899029283432611 -13.83487363651234 10.443394019457815 1 0 0 I I #
point $-1 -49.920559863901872 -13.83487363651234 10.443394019457815 #
point $-1 -49.920559863901872 -13.83487363651234 -10.443394019457815 #
straight-curve $-1 -49.920559863901872 -12.33487363651234 -10.443394019457815 0 1 0 I I #
point $-1 -49.920559863901872 -10.83487363651234 -10.443394019457815 #
point $-1 -49.920559863901872 -10.83487363651234 10.443394019457815 #
straight-curve $-1 -29.27868416176678 -25.790696007444378 30.918267552483293 0 0 -1 I I #
point $-1 -29.27868416176678 -25.790696007444378 10.443394019457815 #
straight-curve $-1 -10.465532991392822 -25.790696007444378 2.6128091681204646 1 0 0 I I #
point $-1 -29.27868416176678 -25.790696007444378 2.6128091681204673 #
point $-1 -24.508616630920415 -19.391185836768347 4.0438838155735528 #
point $-1 -17.353515334650869 -19.391185836768347 4.0438838155735528 #
straight-curve $-1 20.626508964743039 -25.790696007444378 30.918267552483293 0 0 -1 I I #
point $-1 20.626508964743039 -25.790696007444378 10.443394019457815 #
straight-curve $-1 14.487063571862087 -25.790696007444378 2.6128091681204646 1 0 0 I I #
point $-1 20.626508964743039 -25.790696007444378 2.6128091681204673 #
point $-1 25.396576495589414 -19.391185836768347 4.0438838155735528 #
point $-1 32.55167779185895 -19.391185836768347 4.0438838155735528 #
straight-curve $-1 41.877498702963351 25.790696007444378 0 0 0 -1 I I #
point $-1 41.877498702963351 25.790696007444382 4.7903773028451226 #
straight-curve $-1 41.877498702963351 0 10.443394019457815 0 1 0 I I #
point $-1 41.877498702963351 25.790696007444378 10.443394019457815 #
point $-1 31.879812270222274 19.718439216325368 4.6137554410614037 #
straight-curve $-1 -49.920559863901872 -12.33487363651234 10.443394019457815 0 -1 0 I I #
End-of-ACIS-data 