500 0 5 0           
7 Unknown 11 ACIS 5.0 NT 24 Fri Mar 26 03:08:18 1999 
-1 9.9999999999999995e-007 1e-010 
body $-1 $5 $-1 $6 #
body $-1 $7 $-1 $8 #
body $-1 $9 $-1 $10 #
body $-1 $11 $-1 $12 #
body $-1 $13 $-1 $14 #
lump $-1 $-1 $15 $0 #
transform $-1 1 0 0 0 1 0 0 0 1 48.827173680837426 32.496810926593909 14.947323086069911 1 rotate no_reflect no_shear #
lump $-1 $-1 $16 $1 #
transform $-1 1 0 0 0 1 0 0 0 1 48.827173680837426 32.496810926593909 14.947323086069911 1 rotate no_reflect no_shear #
lump $-1 $-1 $17 $2 #
transform $-1 1 0 0 0 1 0 0 0 1 48.827173680837426 32.496810926593909 14.947323086069911 1 rotate no_reflect no_shear #
lump $-1 $-1 $18 $3 #
transform $-1 1 0 0 0 1 0 0 0 1 48.827173680837426 32.496810926593909 14.947323086069911 1 rotate no_reflect no_shear #
lump $-1 $-1 $19 $4 #
transform $-1 1 0 0 0 1 0 0 0 1 48.827173680837426 32.496810926593909 14.947323086069911 1 rotate no_reflect no_shear #
shell $-1 $-1 $-1 $20 $-1 $5 #
shell $-1 $-1 $-1 $21 $-1 $7 #
shell $-1 $-1 $-1 $22 $-1 $9 #
shell $-1 $-1 $-1 $23 $-1 $11 #
shell $-1 $-1 $-1 $24 $-1 $13 #
face $-1 $25 $26 $15 $-1 $27 forward single #
face $-1 $28 $29 $16 $-1 $30 forward single #
face $-1 $31 $32 $17 $-1 $33 forward single #
face $-1 $34 $35 $18 $-1 $36 reversed single #
face $-1 $37 $38 $19 $-1 $39 reversed single #
face $-1 $40 $41 $15 $-1 $42 reversed single #
loop $-1 $-1 $43 $20 #
plane-surface $-1 0 0 14.947323086069911 0 0 1 1 0 0 forward_v I I I I #
face $-1 $44 $45 $16 $-1 $46 reversed single #
loop $-1 $-1 $47 $21 #
plane-surface $-1 -56.748534167820914 0 -11.160473271723138 0 0 1 1 0 0 forward_v I I I I #
face $-1 $48 $49 $17 $-1 $50 forward single #
loop $-1 $-1 $51 $22 #
plane-surface $-1 -19.009235292508002 -23.211908629286715 72.10291192083578 0.71933980857756763 0 0.69465836192734942 0.69465836192734942 0 -0.71933980857756763 forward_v I I I I #
face $-1 $52 $53 $18 $-1 $54 reversed single #
loop $-1 $55 $56 $23 #
cone-surface $-1 40.477804981852181 -27.191152470989799 6.4429664815221033 -0.71933980857756763 0 -0.69465836192734942 1.7366459048183736 0 -1.7983495214439191 1 I I 0 1 2.5 forward I I I I #
face $-1 $57 $58 $19 $-1 $59 reversed single #
loop $-1 $60 $61 $24 #
cone-surface $-1 40.477804981852181 -19.23266478758363 6.4429664815221033 -0.71933980857756763 0 -0.69465836192734942 1.7366459048183736 0 -1.7983495214439191 1 I I 0 1 2.5 forward I I I I #
face $-1 $62 $63 $15 $-1 $64 reversed single #
loop $-1 $-1 $65 $25 #
plane-surface $-1 0 0 -14.947323086069911 0 0 1 1 0 0 forward_v I I I I #
coedge $-1 $66 $67 $68 $69 forward $26 $-1 #
face $-1 $70 $71 $16 $-1 $72 forward single #
loop $-1 $-1 $73 $28 #
plane-surface $-1 -64.669894654804409 0 -13.053898178896524 1 0 0 0 0 -1 forward_v I I I I #
coedge $-1 $74 $75 $76 $77 reversed $29 $-1 #
face $-1 $78 $79 $17 $-1 $80 reversed single #
loop $-1 $-1 $81 $31 #
plane-surface $-1 51.23742424540648 -13.92700633197952 139.93932089418121 0 -1 0 -0.71933980857756763 0 -0.69465836192734942 forward_v I I I I #
coedge $-1 $82 $83 $84 $85 reversed $32 $-1 #
face $-1 $86 $87 $18 $-1 $88 forward single #
loop $-1 $89 $90 $34 #
cone-surface $-1 37.550211386233961 -27.191152470989799 3.6158222761394292 -0.71933980857756763 0 -0.69465836192734942 0.86832295240918678 0 -0.89917476072195957 1 I I -0.70710678118654746 0.70710678118654746 1.25 forward I I I I #
loop $-1 $-1 $91 $23 #
coedge $-1 $56 $56 $92 $93 reversed $35 $-1 #
face $-1 $94 $95 $19 $-1 $96 reversed single #
loop $-1 $97 $98 $37 #
cone-surface $-1 37.550211386233961 -19.23266478758363 3.6158222761394292 -0.71933980857756763 0 -0.69465836192734942 0.86832295240918678 0 -0.89917476072195957 1 I I -0.70710678118654746 0.70710678118654746 1.25 forward I I I I #
loop $-1 $-1 $99 $24 #
coedge $-1 $61 $61 $100 $101 reversed $38 $-1 #
face $-1 $102 $103 $15 $-1 $104 reversed single #
loop $-1 $-1 $105 $40 #
plane-surface $-1 0 -32.496810926593909 0 0 1 0 0 0 1 forward_v I I I I #
coedge $-1 $106 $107 $108 $109 forward $41 $-1 #
coedge $-1 $110 $43 $111 $112 forward $26 $-1 #
coedge $-1 $43 $110 $113 $114 forward $26 $-1 #
coedge $-1 $115 $116 $43 $69 reversed $117 $-1 #
edge $-1 $118 -32.496810926593909 $119 32.496810926593909 $68 $120 forward 7 unknown #
face $-1 $121 $122 $16 $-1 $123 reversed single #
loop $-1 $-1 $124 $44 #
plane-surface $-1 0 0 14.947323086069911 0 0 1 1 0 0 forward_v I I I I #
coedge $-1 $125 $126 $127 $128 forward $45 $-1 #
coedge $-1 $129 $47 $130 $131 forward $29 $-1 #
coedge $-1 $47 $129 $132 $133 forward $29 $-1 #
coedge $-1 $134 $135 $47 $77 forward $136 $-1 #
edge $-1 $137 -32.496810926593909 $138 32.496810926593909 $76 $139 forward 7 unknown #
face $-1 $140 $141 $17 $-1 $142 reversed single #
loop $-1 $-1 $143 $48 #
plane-surface $-1 48.827173680837426 0 0 -1 0 0 0 0 1 forward_v I I I I #
coedge $-1 $144 $145 $143 $146 reversed $49 $-1 #
coedge $-1 $147 $51 $145 $148 reversed $32 $-1 #
coedge $-1 $51 $147 $149 $150 reversed $32 $-1 #
coedge $-1 $151 $143 $51 $85 forward $79 $-1 #
edge $-1 $152 2.3210520173361626 $153 20.890856611950554 $84 $154 forward 7 unknown #
face $-1 $155 $156 $18 $-1 $157 forward single #
loop $-1 $158 $92 $52 #
plane-surface $-1 -19.009235292508002 -23.211908629286715 72.10291192083578 0.71933980857756763 0 0.69465836192734942 0.69465836192734942 0 -0.71933980857756763 forward_v I I I I #
loop $-1 $-1 $159 $34 #
coedge $-1 $90 $90 $91 $160 forward $53 $-1 #
coedge $-1 $91 $91 $90 $160 reversed $55 $-1 #
coedge $-1 $92 $92 $56 $93 forward $87 $-1 #
edge $-1 $161 0 $161 6.2831853071796004 $92 $162 forward 7 unknown #
face $-1 $163 $164 $19 $-1 $165 reversed single #
loop $-1 $166 $167 $57 #
cone-surface $-1 40.477804981852181 -27.191152470989799 6.4429664815221033 -0.71933980857756763 0 -0.69465836192734942 1.7366459048183736 0 -1.7983495214439191 1 I I 0 1 2.5 forward I I I I #
loop $-1 $-1 $168 $37 #
coedge $-1 $98 $98 $99 $169 forward $58 $-1 #
coedge $-1 $99 $99 $98 $169 reversed $60 $-1 #
coedge $-1 $100 $100 $61 $101 forward $170 $-1 #
edge $-1 $171 0 $171 6.2831853071796004 $100 $172 forward 7 unknown #
face $-1 $173 $174 $15 $-1 $175 reversed single #
loop $-1 $-1 $176 $62 #
plane-surface $-1 -48.827173680837426 0 0 1 0 0 0 0 -1 forward_v I I I I #
coedge $-1 $177 $113 $178 $179 forward $63 $-1 #
coedge $-1 $180 $65 $177 $181 forward $41 $-1 #
coedge $-1 $65 $180 $182 $183 forward $41 $-1 #
coedge $-1 $116 $115 $65 $109 reversed $117 $-1 #
edge $-1 $184 -32.496810926593909 $185 32.496810926593909 $108 $186 forward 7 unknown #
coedge $-1 $67 $66 $187 $188 forward $26 $-1 #
coedge $-1 $189 $190 $66 $112 reversed $174 $-1 #
edge $-1 $119 -48.827173680837426 $191 48.827173680837426 $111 $192 forward 7 unknown #
coedge $-1 $105 $193 $67 $114 reversed $63 $-1 #
edge $-1 $194 -48.827173680837426 $118 48.827173680837426 $113 $195 forward 7 unknown #
coedge $-1 $108 $68 $193 $196 forward $117 $-1 #
coedge $-1 $68 $108 $189 $197 reversed $117 $-1 #
loop $-1 $-1 $115 $173 #
vertex $-1 $69 $198 #
vertex $-1 $69 $199 #
straight-curve $-1 48.827173680837426 0 14.947323086069911 0 1 0 I I #
face $-1 $200 $201 $16 $-1 $202 reversed single #
loop $-1 $-1 $203 $70 #
plane-surface $-1 0 0 -14.947323086069911 0 0 1 1 0 0 forward_v I I I I #
coedge $-1 $204 $205 $206 $207 forward $71 $-1 #
coedge $-1 $208 $73 $209 $210 reversed $45 $-1 #
coedge $-1 $73 $208 $129 $211 reversed $45 $-1 #
coedge $-1 $130 $212 $73 $128 reversed $213 $-1 #
edge $-1 $214 -1.8934249071733866 $215 1.8934249071733866 $127 $216 forward 7 unknown #
coedge $-1 $75 $74 $126 $211 forward $29 $-1 #
coedge $-1 $217 $127 $74 $131 reversed $213 $-1 #
edge $-1 $137 -7.9213604869834882 $214 7.9213604869834953 $130 $218 forward 7 unknown #
coedge $-1 $219 $220 $75 $133 reversed $201 $-1 #
edge $-1 $221 -7.9213604869834953 $138 7.9213604869834882 $132 $222 forward 7 unknown #
coedge $-1 $223 $76 $220 $224 reversed $136 $-1 #
coedge $-1 $76 $223 $217 $225 forward $136 $-1 #
loop $-1 $-1 $76 $200 #
vertex $-1 $225 $226 #
vertex $-1 $133 $227 #
straight-curve $-1 -48.827173680837426 0 -11.160473271723138 0 -1 0 I I #
face $-1 $228 $229 $17 $-1 $230 forward single #
loop $-1 $-1 $149 $78 #
plane-surface $-1 0 -32.496810926593909 0 0 1 0 0 0 1 forward_v I I I I #
coedge $-1 $84 $231 $81 $146 forward $79 $-1 #
coedge $-1 $145 $81 $232 $233 reversed $49 $-1 #
coedge $-1 $81 $144 $82 $148 forward $49 $-1 #
edge $-1 $234 55.022337361020689 $152 68.113408064169306 $143 $235 forward 7 unknown #
coedge $-1 $83 $82 $236 $237 reversed $32 $-1 #
edge $-1 $238 79.455617711170618 $152 97.654347361674851 $145 $239 forward 7 unknown #
coedge $-1 $240 $241 $83 $150 forward $141 $-1 #
edge $-1 $153 -65.118637807272648 $242 -46.919908156768422 $149 $243 forward 7 unknown #
coedge $-1 $244 $84 $241 $245 forward $79 $-1 #
vertex $-1 $85 $246 #
vertex $-1 $245 $247 #
straight-curve $-1 48.827173680837426 -11.605954314643357 1.8562523829212907 0 -1 0 I I #
face $-1 $248 $249 $18 $-1 $250 reversed single #
loop $-1 $-1 $251 $86 #
plane-surface $-1 51.23742424540648 -13.92700633197952 139.93932089418121 0 -1 0 -0.71933980857756763 0 -0.69465836192734942 forward_v I I I I #
loop $-1 $-1 $252 $52 #
coedge $-1 $159 $159 $-1 $253 forward $89 $-1 #
edge $-1 $254 0 $254 6.2831853071796004 $90 $255 forward 7 unknown #
vertex $-1 $93 $256 #
ellipse-curve $-1 42.506223816748459 -27.191152470989799 8.4017877344956045 -0.71933980857756763 0 -0.69465836192734942 1.7366459048183736 0 -1.7983495214439191 1 I I #
face $-1 $257 $170 $19 $-1 $258 forward single #
loop $-1 $259 $260 $94 #
cone-surface $-1 37.550211386233961 -27.191152470989799 3.6158222761394292 -0.71933980857756763 0 -0.69465836192734942 0.86832295240918678 0 -0.89917476072195957 1 I I -0.70710678118654746 0.70710678118654746 1.25 forward I I I I #
loop $-1 $-1 $261 $57 #
coedge $-1 $167 $167 $262 $263 reversed $95 $-1 #
coedge $-1 $168 $168 $-1 $264 forward $97 $-1 #
edge $-1 $265 0 $265 6.2831853071796004 $98 $266 forward 7 unknown #
loop $-1 $267 $100 $163 #
vertex $-1 $101 $268 #
ellipse-curve $-1 42.506223816748459 -19.23266478758363 8.4017877344956045 -0.71933980857756763 0 -0.69465836192734942 1.7366459048183736 0 -1.7983495214439191 1 I I #
face $-1 $-1 $117 $15 $-1 $269 reversed single #
loop $-1 $-1 $189 $102 #
plane-surface $-1 0 32.496810926593909 0 0 -1 0 0 0 -1 forward_v I I I I #
coedge $-1 $270 $187 $190 $271 forward $103 $-1 #
coedge $-1 $193 $105 $106 $181 reversed $63 $-1 #
coedge $-1 $187 $270 $105 $179 reversed $103 $-1 #
edge $-1 $194 -14.947323086069911 $272 14.947323086069911 $178 $273 forward 7 unknown #
coedge $-1 $107 $106 $270 $274 forward $41 $-1 #
edge $-1 $185 -48.827173680837426 $272 48.827173680837426 $177 $275 forward 7 unknown #
coedge $-1 $190 $189 $107 $183 reversed $174 $-1 #
edge $-1 $276 -48.827173680837426 $184 48.827173680837426 $182 $277 forward 7 unknown #
vertex $-1 $109 $278 #
vertex $-1 $196 $279 #
straight-curve $-1 48.827173680837426 0 -14.947323086069911 0 -1 0 I I #
coedge $-1 $176 $178 $110 $188 reversed $103 $-1 #
edge $-1 $191 -32.496810926593909 $194 32.496810926593909 $187 $280 forward 7 unknown #
coedge $-1 $182 $111 $116 $197 forward $174 $-1 #
coedge $-1 $111 $182 $176 $271 reversed $174 $-1 #
vertex $-1 $112 $281 #
straight-curve $-1 0 32.496810926593909 14.947323086069911 -1 0 0 I I #
coedge $-1 $113 $177 $115 $196 reversed $63 $-1 #
vertex $-1 $188 $282 #
straight-curve $-1 0 -32.496810926593909 14.947323086069911 1 0 0 I I #
edge $-1 $118 -14.947323086069911 $185 14.947323086069911 $115 $283 forward 7 unknown #
edge $-1 $119 -14.947323086069911 $184 14.947323086069911 $116 $284 forward 7 unknown #
point $-1 48.827173680837426 -32.496810926593909 14.947323086069911 #
point $-1 48.827173680837426 32.496810926593909 14.947323086069911 #
face $-1 $285 $136 $16 $-1 $286 reversed single #
loop $-1 $-1 $220 $121 #
plane-surface $-1 0 -32.496810926593909 0 0 1 0 0 0 1 forward_v I I I I #
coedge $-1 $287 $288 $289 $290 forward $122 $-1 #
coedge $-1 $291 $124 $292 $293 forward $71 $-1 #
coedge $-1 $124 $291 $294 $295 forward $71 $-1 #
coedge $-1 $296 $297 $124 $207 reversed $298 $-1 #
edge $-1 $299 -32.496810926593909 $300 32.496810926593909 $206 $301 forward 7 unknown #
coedge $-1 $126 $125 $219 $302 reversed $45 $-1 #
coedge $-1 $288 $287 $125 $210 forward $122 $-1 #
edge $-1 $303 -32.496810926593909 $215 32.496810926593909 $125 $304 forward 7 unknown #
edge $-1 $214 -32.496810926593909 $221 32.496810926593909 $126 $305 forward 7 unknown #
coedge $-1 $127 $306 $288 $307 reversed $213 $-1 #
loop $-1 $-1 $306 $285 #
vertex $-1 $131 $308 #
vertex $-1 $307 $309 #
straight-curve $-1 -64.669894654804409 32.496810926593909 -13.053898178896524 0 0 -1 I I #
coedge $-1 $292 $130 $135 $225 reversed $213 $-1 #
straight-curve $-1 -56.748534167820914 32.496810926593909 -11.160473271723138 -1 0 0 I I #
coedge $-1 $310 $132 $208 $302 forward $201 $-1 #
coedge $-1 $132 $294 $134 $224 forward $201 $-1 #
vertex $-1 $211 $311 #
straight-curve $-1 -56.748534167820914 -32.496810926593909 -11.160473271723138 1 0 0 I I #
coedge $-1 $135 $134 $291 $312 reversed $136 $-1 #
edge $-1 $313 -14.947323086069911 $138 11.160473271723138 $134 $314 forward 7 unknown #
edge $-1 $315 -14.947323086069911 $137 11.160473271723138 $217 $316 forward 7 unknown #
point $-1 -48.827173680837426 32.496810926593909 -11.160473271723138 #
point $-1 -48.827173680837426 -32.496810926593909 -11.160473271723138 #
face $-1 $317 $318 $17 $-1 $319 reversed single #
loop $-1 $-1 $320 $140 #
plane-surface $-1 -56.748534167820914 0 -11.160473271723138 0 0 1 1 0 0 forward_v I I I I #
coedge $-1 $143 $321 $322 $323 reversed $79 $-1 #
coedge $-1 $322 $236 $144 $233 forward $324 $-1 #
edge $-1 $238 10.566561829956232 $234 23.208461558134186 $232 $325 forward 7 unknown #
vertex $-1 $323 $326 #
straight-curve $-1 48.827173680837426 -13.92700633197952 69.969660447090604 0 0 -1 I I #
coedge $-1 $232 $327 $147 $237 forward $324 $-1 #
edge $-1 $242 -20.890856611950554 $238 -2.3210520173361626 $236 $328 forward 7 unknown #
vertex $-1 $237 $329 #
straight-curve $-1 -19.009235292508002 -13.92700633197952 72.10291192083578 0.69465836192734942 0 -0.71933980857756763 I I #
coedge $-1 $330 $149 $327 $331 reversed $141 $-1 #
coedge $-1 $149 $332 $151 $245 reversed $141 $-1 #
vertex $-1 $237 $333 #
straight-curve $-1 3.5919674106970412 -32.496810926593909 48.698680838036765 -0.69465836192734942 0 0.71933980857756763 I I #
coedge $-1 $321 $151 $334 $335 reversed $79 $-1 #
edge $-1 $153 -1.8562523829212996 $336 14.947323086069911 $151 $337 forward 7 unknown #
point $-1 48.827173680837426 -13.92700633197952 1.8562523829212978 #
point $-1 48.827173680837426 -32.496810926593909 1.8562523829212996 #
face $-1 $338 $339 $18 $-1 $340 reversed single #
loop $-1 $-1 $341 $155 #
plane-surface $-1 48.827173680837426 0 0 -1 0 0 0 0 1 forward_v I I I I #
coedge $-1 $342 $343 $341 $344 reversed $156 $-1 #
coedge $-1 $345 $346 $347 $348 reversed $158 $-1 #
edge $-1 $349 1 $349 0 $159 $-1 forward 7 unknown #
vertex $-1 $160 $350 #
ellipse-curve $-1 38.449386146955923 -27.191152470989799 4.4841452285486163 0.71933980857756763 0 0.69465836192734942 1.7366459048183736 0 -1.7983495214439191 1 I I #
point $-1 44.242869721566819 -27.191152470989799 6.603438213051672 #
face $-1 $351 $352 $19 $-1 $353 forward single #
plane-surface $-1 -19.009235292508002 -23.211908629286715 72.10291192083578 0.71933980857756763 0 0.69465836192734942 0.69465836192734942 0 -0.71933980857756763 forward_v I I I I #
loop $-1 $-1 $354 $94 #
coedge $-1 $260 $260 $261 $355 forward $164 $-1 #
coedge $-1 $261 $261 $260 $355 reversed $166 $-1 #
coedge $-1 $262 $262 $167 $263 forward $267 $-1 #
edge $-1 $356 0 $356 6.2831853071796004 $262 $357 forward 7 unknown #
edge $-1 $358 1 $358 0 $168 $-1 forward 7 unknown #
vertex $-1 $169 $359 #
ellipse-curve $-1 38.449386146955923 -19.23266478758363 4.4841452285486163 0.71933980857756763 0 0.69465836192734942 1.7366459048183736 0 -1.7983495214439191 1 I I #
loop $-1 $360 $262 $163 #
point $-1 44.242869721566819 -19.23266478758363 6.603438213051672 #
plane-surface $-1 48.827173680837426 0 0 -1 0 0 0 0 1 forward_v I I I I #
coedge $-1 $178 $176 $180 $274 reversed $103 $-1 #
edge $-1 $191 -14.947323086069911 $276 14.947323086069911 $190 $361 forward 7 unknown #
vertex $-1 $274 $362 #
straight-curve $-1 -48.827173680837426 -32.496810926593909 0 0 0 -1 I I #
edge $-1 $272 -32.496810926593909 $276 32.496810926593909 $270 $363 forward 7 unknown #
straight-curve $-1 0 -32.496810926593909 -14.947323086069911 -1 0 0 I I #
vertex $-1 $183 $364 #
straight-curve $-1 0 32.496810926593909 -14.947323086069911 1 0 0 I I #
point $-1 48.827173680837426 32.496810926593909 -14.947323086069911 #
point $-1 48.827173680837426 -32.496810926593909 -14.947323086069911 #
straight-curve $-1 -48.827173680837426 0 14.947323086069911 0 -1 0 I I #
point $-1 -48.827173680837426 32.496810926593909 14.947323086069911 #
point $-1 -48.827173680837426 -32.496810926593909 14.947323086069911 #
straight-curve $-1 48.827173680837426 -32.496810926593909 0 0 0 -1 I I #
straight-curve $-1 48.827173680837426 32.496810926593909 0 0 0 -1 I I #
face $-1 $365 $213 $16 $-1 $366 reversed single #
plane-surface $-1 -48.827173680837426 0 0 1 0 0 0 0 -1 forward_v I I I I #
coedge $-1 $209 $203 $310 $367 forward $122 $-1 #
coedge $-1 $203 $209 $212 $307 forward $122 $-1 #
coedge $-1 $297 $296 $203 $290 reversed $298 $-1 #
edge $-1 $368 -32.496810926593909 $369 32.496810926593909 $289 $370 forward 7 unknown #
coedge $-1 $205 $204 $223 $312 forward $71 $-1 #
coedge $-1 $306 $217 $204 $293 reversed $213 $-1 #
edge $-1 $300 -48.827173680837426 $315 48.827173680837426 $292 $371 forward 7 unknown #
coedge $-1 $220 $372 $205 $295 reversed $201 $-1 #
edge $-1 $313 -48.827173680837426 $299 48.827173680837426 $294 $373 forward 7 unknown #
coedge $-1 $289 $206 $372 $374 forward $298 $-1 #
coedge $-1 $206 $289 $306 $375 reversed $298 $-1 #
loop $-1 $-1 $296 $365 #
vertex $-1 $207 $376 #
vertex $-1 $207 $377 #
straight-curve $-1 48.827173680837426 0 14.947323086069911 0 1 0 I I #
edge $-1 $221 -1.8934249071733866 $303 1.8934249071733866 $208 $378 forward 7 unknown #
vertex $-1 $210 $379 #
straight-curve $-1 -64.669894654804409 0 -14.947323086069911 0 1 0 I I #
straight-curve $-1 -64.669894654804409 0 -11.160473271723138 0 -1 0 I I #
coedge $-1 $212 $292 $297 $375 forward $213 $-1 #
edge $-1 $215 -64.669894654804409 $368 48.827173680837426 $212 $380 forward 7 unknown #
point $-1 -64.669894654804409 32.496810926593909 -11.160473271723138 #
point $-1 -64.669894654804409 32.496810926593909 -14.947323086069911 #
coedge $-1 $372 $219 $287 $367 reversed $201 $-1 #
point $-1 -64.669894654804409 -32.496810926593909 -11.160473271723138 #
edge $-1 $315 -32.496810926593909 $313 32.496810926593909 $223 $381 forward 7 unknown #
vertex $-1 $312 $382 #
straight-curve $-1 -48.827173680837426 -32.496810926593909 0 0 0 -1 I I #
vertex $-1 $293 $383 #
straight-curve $-1 -48.827173680837426 32.496810926593909 0 0 0 -1 I I #
face $-1 $384 $324 $17 $-1 $385 forward single #
loop $-1 $-1 $386 $228 #
plane-surface $-1 -64.669894654804409 0 -13.053898178896524 1 0 0 0 0 -1 forward_v I I I I #
coedge $-1 $387 $388 $389 $390 reversed $229 $-1 #
coedge $-1 $231 $244 $391 $392 reversed $79 $-1 #
coedge $-1 $393 $232 $231 $323 forward $324 $-1 #
edge $-1 $234 -13.92700633197952 $394 32.496810926593909 $231 $395 forward 7 unknown #
loop $-1 $-1 $232 $317 #
straight-curve $-1 25.61871212270324 -13.92700633197952 14.947323086069915 1 0 0 I I #
point $-1 48.827173680837426 -13.92700633197952 14.947323086069911 #
coedge $-1 $236 $396 $240 $331 forward $324 $-1 #
straight-curve $-1 36.185273952659479 -11.605954314643357 14.947323086069908 0 1 0 I I #
point $-1 36.185273952659472 -13.92700633197952 14.947323086069915 #
coedge $-1 $397 $240 $398 $399 forward $141 $-1 #
edge $-1 $400 -48.827173680837426 $242 36.185273952659472 $240 $401 forward 7 unknown #
coedge $-1 $241 $402 $403 $404 reversed $141 $-1 #
point $-1 36.185273952659472 -32.496810926593909 14.947323086069915 #
coedge $-1 $403 $405 $244 $335 forward $406 $-1 #
edge $-1 $407 -32.496810926593909 $336 32.496810926593909 $244 $408 forward 7 unknown #
vertex $-1 $245 $409 #
straight-curve $-1 48.827173680837426 -32.496810926593909 0 0 0 -1 I I #
face $-1 $410 $411 $18 $-1 $412 forward single #
loop $-1 $-1 $413 $248 #
plane-surface $-1 0 -32.496810926593909 0 0 1 0 0 0 1 forward_v I I I I #
coedge $-1 $347 $414 $251 $344 forward $249 $-1 #
coedge $-1 $343 $251 $415 $416 reversed $156 $-1 #
coedge $-1 $251 $342 $345 $417 forward $156 $-1 #
edge $-1 $418 55.022337361020689 $419 68.113408064169306 $341 $420 forward 7 unknown #
coedge $-1 $421 $252 $343 $417 reversed $158 $-1 #
coedge $-1 $252 $421 $413 $422 reversed $158 $-1 #
coedge $-1 $423 $341 $252 $348 forward $249 $-1 #
edge $-1 $419 2.3210520173361626 $424 20.890856611950554 $347 $425 forward 7 unknown #
vertex $-1 $253 $426 #
point $-1 40.186032051774291 -27.191152470989799 2.6857957071046967 #
face $-1 $427 $428 $19 $-1 $429 reversed single #
loop $-1 $-1 $430 $257 #
plane-surface $-1 51.23742424540648 -13.92700633197952 139.93932089418121 0 -1 0 -0.71933980857756763 0 -0.69465836192734942 forward_v I I I I #
coedge $-1 $354 $354 $-1 $431 forward $259 $-1 #
edge $-1 $432 0 $432 6.2831853071796004 $260 $433 forward 7 unknown #
vertex $-1 $263 $434 #
ellipse-curve $-1 42.506223816748459 -27.191152470989799 8.4017877344956045 -0.71933980857756763 0 -0.69465836192734942 1.7366459048183736 0 -1.7983495214439191 1 I I #
vertex $-1 $264 $435 #
point $-1 40.186032051774291 -19.23266478758363 2.6857957071046967 #
loop $-1 $-1 $436 $163 #
straight-curve $-1 -48.827173680837426 32.496810926593909 0 0 0 -1 I I #
point $-1 -48.827173680837426 -32.496810926593909 -14.947323086069911 #
straight-curve $-1 -48.827173680837426 0 -14.947323086069911 0 1 0 I I #
point $-1 -48.827173680837426 32.496810926593909 -14.947323086069911 #
face $-1 $-1 $298 $16 $-1 $437 reversed single #
plane-surface $-1 0 32.496810926593909 0 0 -1 0 0 0 -1 forward_v I I I I #
edge $-1 $369 -105.57570784865834 $303 7.9213604869834953 $310 $438 forward 7 unknown #
vertex $-1 $290 $439 #
vertex $-1 $374 $440 #
straight-curve $-1 48.827173680837426 0 -14.947323086069911 0 -1 0 I I #
straight-curve $-1 0 32.496810926593909 14.947323086069911 -1 0 0 I I #
coedge $-1 $294 $310 $296 $374 reversed $201 $-1 #
straight-curve $-1 0 -32.496810926593909 14.947323086069911 1 0 0 I I #
edge $-1 $299 -14.947323086069911 $369 14.947323086069911 $296 $441 forward 7 unknown #
edge $-1 $300 -14.947323086069911 $368 14.947323086069911 $297 $442 forward 7 unknown #
point $-1 48.827173680837426 -32.496810926593909 14.947323086069911 #
point $-1 48.827173680837426 32.496810926593909 14.947323086069911 #
straight-curve $-1 -64.669894654804409 -32.496810926593909 -13.053898178896524 0 0 -1 I I #
point $-1 -64.669894654804409 -32.496810926593909 -14.947323086069911 #
straight-curve $-1 0 32.496810926593909 -14.947323086069911 1 0 0 I I #
straight-curve $-1 -48.827173680837426 0 14.947323086069911 0 -1 0 I I #
point $-1 -48.827173680837426 -32.496810926593909 14.947323086069911 #
point $-1 -48.827173680837426 32.496810926593909 14.947323086069911 #
face $-1 $443 $406 $17 $-1 $444 reversed single #
plane-surface $-1 0 0 14.947323086069911 0 0 1 1 0 0 forward_v I I I I #
coedge $-1 $445 $446 $447 $448 forward $318 $-1 #
coedge $-1 $449 $320 $450 $451 forward $229 $-1 #
coedge $-1 $320 $449 $397 $452 forward $229 $-1 #
coedge $-1 $398 $453 $320 $390 forward $454 $-1 #
edge $-1 $455 -32.496810926593909 $456 32.496810926593909 $389 $457 forward 7 unknown #
coedge $-1 $458 $459 $321 $392 forward $460 $-1 #
edge $-1 $394 -14.947323086069911 $407 14.947323086069911 $321 $461 forward 7 unknown #
coedge $-1 $396 $322 $459 $462 forward $324 $-1 #
vertex $-1 $323 $463 #
straight-curve $-1 48.827173680837426 0 14.947323086069911 0 1 0 I I #
coedge $-1 $327 $393 $464 $465 forward $324 $-1 #
coedge $-1 $402 $330 $388 $452 reversed $141 $-1 #
coedge $-1 $464 $389 $330 $399 reversed $454 $-1 #
edge $-1 $400 -14.947323086069911 $456 11.160473271723138 $398 $466 forward 7 unknown #
vertex $-1 $465 $467 #
straight-curve $-1 0 -32.496810926593909 14.947323086069911 1 0 0 I I #
coedge $-1 $332 $397 $468 $469 forward $141 $-1 #
coedge $-1 $470 $334 $332 $404 forward $406 $-1 #
edge $-1 $336 -105.57570784865834 $471 7.9213604869834953 $332 $472 forward 7 unknown #
coedge $-1 $334 $470 $458 $473 forward $406 $-1 #
loop $-1 $-1 $334 $384 #
vertex $-1 $335 $474 #
straight-curve $-1 48.827173680837426 0 -14.947323086069911 0 -1 0 I I #
point $-1 48.827173680837426 -32.496810926593909 -14.947323086069911 #
face $-1 $475 $476 $18 $-1 $477 reversed single #
loop $-1 $-1 $478 $338 #
plane-surface $-1 -56.748534167820914 0 -11.160473271723138 0 0 1 1 0 0 forward_v I I I I #
coedge $-1 $479 $480 $346 $422 forward $339 $-1 #
coedge $-1 $341 $481 $482 $483 reversed $249 $-1 #
coedge $-1 $482 $484 $342 $416 forward $485 $-1 #
edge $-1 $486 10.566561829956232 $418 23.208461558134186 $415 $487 forward 7 unknown #
edge $-1 $486 79.455617711170618 $419 97.654347361674851 $343 $488 forward 7 unknown #
vertex $-1 $483 $489 #
vertex $-1 $348 $490 #
straight-curve $-1 48.827173680837426 -13.92700633197952 69.969660447090604 0 0 -1 I I #
coedge $-1 $346 $345 $484 $491 reversed $158 $-1 #
edge $-1 $424 -65.118637807272648 $492 -46.919908156768422 $413 $493 forward 7 unknown #
coedge $-1 $494 $347 $480 $495 forward $249 $-1 #
vertex $-1 $495 $496 #
straight-curve $-1 48.827173680837426 -11.605954314643357 1.8562523829212907 0 -1 0 I I #
point $-1 36.651036625511999 -27.191152470989799 2.7474993237302425 #
face $-1 $497 $498 $19 $-1 $499 reversed single #
loop $-1 $-1 $500 $351 #
plane-surface $-1 48.827173680837426 0 0 -1 0 0 0 0 1 forward_v I I I I #
coedge $-1 $501 $502 $500 $503 reversed $352 $-1 #
edge $-1 $504 1 $504 0 $354 $-1 forward 7 unknown #
vertex $-1 $355 $505 #
ellipse-curve $-1 38.449386146955923 -27.191152470989799 4.4841452285486163 0.71933980857756763 0 0.69465836192734942 1.7366459048183736 0 -1.7983495214439191 1 I I #
point $-1 44.242869721566819 -27.191152470989799 6.603438213051672 #
point $-1 36.651036625511999 -19.23266478758363 2.7474993237302425 #
coedge $-1 $506 $507 $508 $509 reversed $360 $-1 #
plane-surface $-1 48.827173680837426 0 0 -1 0 0 0 0 1 forward_v I I I I #
straight-curve $-1 -56.748534167820914 -32.496810926593909 -14.947323086069911 -1 0 0 I I #
point $-1 48.827173680837426 32.496810926593909 -14.947323086069911 #
point $-1 48.827173680837426 -32.496810926593909 -14.947323086069911 #
straight-curve $-1 48.827173680837426 -32.496810926593909 0 0 0 -1 I I #
straight-curve $-1 48.827173680837426 32.496810926593909 0 0 0 -1 I I #
face $-1 $510 $454 $17 $-1 $511 reversed single #
plane-surface $-1 0 0 -14.947323086069911 0 0 1 1 0 0 forward_v I I I I #
coedge $-1 $468 $386 $470 $512 reversed $318 $-1 #
coedge $-1 $386 $468 $449 $513 reversed $318 $-1 #
coedge $-1 $450 $458 $386 $448 reversed $460 $-1 #
edge $-1 $514 -1.8934249071733866 $515 1.8934249071733866 $447 $516 forward 7 unknown #
coedge $-1 $388 $387 $446 $513 forward $229 $-1 #
coedge $-1 $517 $447 $387 $451 reversed $460 $-1 #
edge $-1 $455 -7.9213604869834882 $514 7.9213604869834953 $450 $518 forward 7 unknown #
edge $-1 $519 -7.9213604869834953 $456 7.9213604869834882 $397 $520 forward 7 unknown #
coedge $-1 $389 $464 $517 $521 forward $454 $-1 #
loop $-1 $-1 $389 $443 #
vertex $-1 $521 $522 #
vertex $-1 $452 $523 #
straight-curve $-1 -48.827173680837426 0 -11.160473271723138 0 -1 0 I I #
coedge $-1 $447 $391 $405 $473 reversed $460 $-1 #
coedge $-1 $391 $517 $393 $462 reversed $460 $-1 #
loop $-1 $-1 $391 $510 #
straight-curve $-1 48.827173680837426 32.496810926593909 0 0 0 -1 I I #
edge $-1 $394 -48.827173680837426 $524 48.827173680837426 $459 $525 forward 7 unknown #
point $-1 48.827173680837426 32.496810926593909 14.947323086069911 #
coedge $-1 $453 $398 $396 $465 reversed $454 $-1 #
edge $-1 $524 -32.496810926593909 $400 32.496810926593909 $464 $526 forward 7 unknown #
straight-curve $-1 -48.827173680837426 -32.496810926593909 0 0 0 -1 I I #
point $-1 -48.827173680837426 -32.496810926593909 14.947323086069911 #
coedge $-1 $446 $445 $402 $469 reversed $318 $-1 #
edge $-1 $519 -1.8934249071733866 $471 1.8934249071733866 $468 $527 forward 7 unknown #
coedge $-1 $405 $403 $445 $512 forward $406 $-1 #
vertex $-1 $512 $528 #
straight-curve $-1 -56.748534167820914 -32.496810926593909 -14.947323086069911 -1 0 0 I I #
edge $-1 $515 -64.669894654804409 $407 48.827173680837426 $458 $529 forward 7 unknown #
point $-1 48.827173680837426 32.496810926593909 -14.947323086069911 #
face $-1 $530 $485 $18 $-1 $531 forward single #
loop $-1 $-1 $532 $410 #
plane-surface $-1 -64.669894654804409 0 -13.053898178896524 1 0 0 0 0 -1 forward_v I I I I #
coedge $-1 $533 $534 $535 $536 reversed $411 $-1 #
coedge $-1 $537 $413 $538 $539 reversed $339 $-1 #
coedge $-1 $413 $540 $423 $495 reversed $339 $-1 #
coedge $-1 $414 $494 $541 $542 reversed $249 $-1 #
coedge $-1 $543 $415 $414 $483 forward $485 $-1 #
edge $-1 $418 -13.92700633197952 $544 32.496810926593909 $414 $545 forward 7 unknown #
coedge $-1 $415 $538 $421 $491 forward $485 $-1 #
loop $-1 $-1 $415 $475 #
vertex $-1 $491 $546 #
straight-curve $-1 25.61871212270324 -13.92700633197952 14.947323086069915 1 0 0 I I #
straight-curve $-1 -19.009235292508002 -13.92700633197952 72.10291192083578 0.69465836192734942 0 -0.71933980857756763 I I #
point $-1 48.827173680837426 -13.92700633197952 14.947323086069911 #
point $-1 48.827173680837426 -13.92700633197952 1.8562523829212978 #
edge $-1 $492 -20.890856611950554 $486 -2.3210520173361626 $484 $547 forward 7 unknown #
vertex $-1 $491 $548 #
straight-curve $-1 3.5919674106970412 -32.496810926593909 48.698680838036765 -0.69465836192734942 0 0.71933980857756763 I I #
coedge $-1 $481 $423 $549 $550 reversed $249 $-1 #
edge $-1 $424 -1.8562523829212996 $551 14.947323086069911 $423 $552 forward 7 unknown #
point $-1 48.827173680837426 -32.496810926593909 1.8562523829212996 #
face $-1 $553 $554 $19 $-1 $555 forward single #
loop $-1 $-1 $556 $427 #
plane-surface $-1 0 -32.496810926593909 0 0 1 0 0 0 1 forward_v I I I I #
coedge $-1 $508 $557 $430 $503 forward $428 $-1 #
coedge $-1 $502 $430 $558 $559 reversed $352 $-1 #
coedge $-1 $430 $501 $506 $560 forward $352 $-1 #
edge $-1 $561 55.022337361020689 $562 68.113408064169306 $500 $563 forward 7 unknown #
vertex $-1 $431 $564 #
point $-1 40.186032051774291 -27.191152470989799 2.6857957071046967 #
coedge $-1 $565 $436 $502 $560 reversed $360 $-1 #
coedge $-1 $436 $565 $556 $566 reversed $360 $-1 #
coedge $-1 $567 $500 $436 $509 forward $428 $-1 #
edge $-1 $562 2.3210520173361626 $568 20.890856611950554 $508 $569 forward 7 unknown #
face $-1 $-1 $460 $17 $-1 $570 reversed single #
plane-surface $-1 -48.827173680837426 0 0 1 0 0 0 0 -1 forward_v I I I I #
edge $-1 $471 -32.496810926593909 $515 32.496810926593909 $445 $571 forward 7 unknown #
edge $-1 $514 -32.496810926593909 $519 32.496810926593909 $446 $572 forward 7 unknown #
vertex $-1 $451 $573 #
vertex $-1 $473 $574 #
straight-curve $-1 -64.669894654804409 32.496810926593909 -13.053898178896524 0 0 -1 I I #
coedge $-1 $459 $450 $453 $521 reversed $460 $-1 #
straight-curve $-1 -56.748534167820914 32.496810926593909 -11.160473271723138 -1 0 0 I I #
vertex $-1 $513 $575 #
straight-curve $-1 -56.748534167820914 -32.496810926593909 -11.160473271723138 1 0 0 I I #
edge $-1 $524 -14.947323086069911 $455 11.160473271723138 $517 $576 forward 7 unknown #
point $-1 -48.827173680837426 32.496810926593909 -11.160473271723138 #
point $-1 -48.827173680837426 -32.496810926593909 -11.160473271723138 #
vertex $-1 $462 $577 #
straight-curve $-1 0 32.496810926593909 14.947323086069911 -1 0 0 I I #
straight-curve $-1 -48.827173680837426 0 14.947323086069911 0 -1 0 I I #
straight-curve $-1 -64.669894654804409 -32.496810926593909 -13.053898178896524 0 0 -1 I I #
point $-1 -64.669894654804409 -32.496810926593909 -14.947323086069911 #
straight-curve $-1 0 32.496810926593909 -14.947323086069911 1 0 0 I I #
face $-1 $578 $579 $18 $-1 $580 reversed single #
plane-surface $-1 0 0 14.947323086069911 0 0 1 1 0 0 forward_v I I I I #
coedge $-1 $581 $582 $583 $584 forward $476 $-1 #
coedge $-1 $585 $478 $586 $587 forward $411 $-1 #
coedge $-1 $478 $585 $588 $589 forward $411 $-1 #
coedge $-1 $590 $591 $478 $536 forward $592 $-1 #
edge $-1 $593 -32.496810926593909 $594 32.496810926593909 $535 $595 forward 7 unknown #
coedge $-1 $588 $479 $590 $596 forward $339 $-1 #
coedge $-1 $484 $597 $479 $539 forward $485 $-1 #
edge $-1 $598 -48.827173680837426 $492 36.185273952659472 $479 $599 forward 7 unknown #
coedge $-1 $480 $600 $601 $602 reversed $339 $-1 #
coedge $-1 $603 $604 $481 $542 forward $605 $-1 #
edge $-1 $544 -14.947323086069911 $606 14.947323086069911 $481 $607 forward 7 unknown #
coedge $-1 $597 $482 $604 $608 forward $485 $-1 #
vertex $-1 $483 $609 #
straight-curve $-1 48.827173680837426 0 14.947323086069911 0 1 0 I I #
point $-1 36.185273952659472 -13.92700633197952 14.947323086069915 #
straight-curve $-1 36.185273952659479 -11.605954314643357 14.947323086069908 0 1 0 I I #
point $-1 36.185273952659472 -32.496810926593909 14.947323086069915 #
coedge $-1 $601 $610 $494 $550 forward $579 $-1 #
edge $-1 $606 -32.496810926593909 $551 32.496810926593909 $494 $611 forward 7 unknown #
vertex $-1 $495 $612 #
straight-curve $-1 48.827173680837426 -32.496810926593909 0 0 0 -1 I I #
face $-1 $613 $614 $19 $-1 $615 reversed single #
loop $-1 $-1 $616 $497 #
plane-surface $-1 -56.748534167820914 0 -11.160473271723138 0 0 1 1 0 0 forward_v I I I I #
coedge $-1 $617 $618 $507 $566 forward $498 $-1 #
coedge $-1 $500 $619 $620 $621 reversed $428 $-1 #
coedge $-1 $620 $622 $501 $559 forward $623 $-1 #
edge $-1 $624 10.566561829956232 $561 23.208461558134186 $558 $625 forward 7 unknown #
edge $-1 $624 79.455617711170618 $562 97.654347361674851 $502 $626 forward 7 unknown #
vertex $-1 $621 $627 #
vertex $-1 $509 $628 #
straight-curve $-1 48.827173680837426 -13.92700633197952 69.969660447090604 0 0 -1 I I #
point $-1 36.651036625511999 -27.191152470989799 2.7474993237302425 #
coedge $-1 $507 $506 $622 $629 reversed $360 $-1 #
edge $-1 $568 -65.118637807272648 $630 -46.919908156768422 $556 $631 forward 7 unknown #
coedge $-1 $632 $508 $618 $633 forward $428 $-1 #
vertex $-1 $633 $634 #
straight-curve $-1 48.827173680837426 -11.605954314643357 1.8562523829212907 0 -1 0 I I #
plane-surface $-1 0 32.496810926593909 0 0 -1 0 0 0 -1 forward_v I I I I #
straight-curve $-1 -64.669894654804409 0 -14.947323086069911 0 1 0 I I #
straight-curve $-1 -64.669894654804409 0 -11.160473271723138 0 -1 0 I I #
point $-1 -64.669894654804409 32.496810926593909 -11.160473271723138 #
point $-1 -64.669894654804409 32.496810926593909 -14.947323086069911 #
point $-1 -64.669894654804409 -32.496810926593909 -11.160473271723138 #
straight-curve $-1 -48.827173680837426 32.496810926593909 0 0 0 -1 I I #
point $-1 -48.827173680837426 32.496810926593909 14.947323086069911 #
face $-1 $635 $592 $18 $-1 $636 reversed single #
loop $-1 $-1 $549 $530 #
plane-surface $-1 0 0 -14.947323086069911 0 0 1 1 0 0 forward_v I I I I #
coedge $-1 $637 $532 $638 $639 reversed $476 $-1 #
coedge $-1 $532 $637 $585 $640 reversed $476 $-1 #
coedge $-1 $586 $603 $532 $584 reversed $605 $-1 #
edge $-1 $641 -1.8934249071733866 $642 1.8934249071733866 $583 $643 forward 7 unknown #
coedge $-1 $534 $533 $582 $640 forward $411 $-1 #
coedge $-1 $644 $583 $533 $587 reversed $605 $-1 #
edge $-1 $593 -7.9213604869834882 $641 7.9213604869834953 $586 $645 forward 7 unknown #
coedge $-1 $600 $537 $534 $589 reversed $339 $-1 #
edge $-1 $646 -7.9213604869834953 $594 7.9213604869834882 $588 $647 forward 7 unknown #
coedge $-1 $648 $535 $537 $596 reversed $592 $-1 #
coedge $-1 $535 $648 $644 $649 forward $592 $-1 #
loop $-1 $-1 $535 $578 #
vertex $-1 $649 $650 #
vertex $-1 $589 $651 #
straight-curve $-1 -48.827173680837426 0 -11.160473271723138 0 -1 0 I I #
edge $-1 $598 -14.947323086069911 $594 11.160473271723138 $590 $652 forward 7 unknown #
coedge $-1 $538 $543 $648 $653 forward $485 $-1 #
vertex $-1 $653 $654 #
straight-curve $-1 0 -32.496810926593909 14.947323086069911 1 0 0 I I #
coedge $-1 $540 $588 $637 $655 forward $339 $-1 #
coedge $-1 $638 $549 $540 $602 forward $579 $-1 #
edge $-1 $551 -105.57570784865834 $656 7.9213604869834953 $540 $657 forward 7 unknown #
coedge $-1 $583 $541 $610 $658 reversed $605 $-1 #
coedge $-1 $541 $644 $543 $608 reversed $605 $-1 #
loop $-1 $-1 $541 $635 #
vertex $-1 $550 $659 #
straight-curve $-1 48.827173680837426 32.496810926593909 0 0 0 -1 I I #
edge $-1 $544 -48.827173680837426 $660 48.827173680837426 $604 $661 forward 7 unknown #
point $-1 48.827173680837426 32.496810926593909 14.947323086069911 #
coedge $-1 $549 $638 $603 $658 forward $579 $-1 #
straight-curve $-1 48.827173680837426 0 -14.947323086069911 0 -1 0 I I #
point $-1 48.827173680837426 -32.496810926593909 -14.947323086069911 #
face $-1 $662 $623 $19 $-1 $663 forward single #
loop $-1 $-1 $664 $553 #
plane-surface $-1 -64.669894654804409 0 -13.053898178896524 1 0 0 0 0 -1 forward_v I I I I #
coedge $-1 $665 $666 $667 $668 reversed $554 $-1 #
coedge $-1 $669 $556 $670 $671 reversed $498 $-1 #
coedge $-1 $556 $672 $567 $633 reversed $498 $-1 #
coedge $-1 $557 $632 $673 $674 reversed $428 $-1 #
coedge $-1 $675 $558 $557 $621 forward $623 $-1 #
edge $-1 $561 -13.92700633197952 $676 32.496810926593909 $557 $677 forward 7 unknown #
coedge $-1 $558 $670 $565 $629 forward $623 $-1 #
loop $-1 $-1 $558 $613 #
vertex $-1 $629 $678 #
straight-curve $-1 25.61871212270324 -13.92700633197952 14.947323086069915 1 0 0 I I #
straight-curve $-1 -19.009235292508002 -13.92700633197952 72.10291192083578 0.69465836192734942 0 -0.71933980857756763 I I #
point $-1 48.827173680837426 -13.92700633197952 14.947323086069911 #
point $-1 48.827173680837426 -13.92700633197952 1.8562523829212978 #
edge $-1 $630 -20.890856611950554 $624 -2.3210520173361626 $622 $679 forward 7 unknown #
vertex $-1 $629 $680 #
straight-curve $-1 3.5919674106970412 -32.496810926593909 48.698680838036765 -0.69465836192734942 0 0.71933980857756763 I I #
coedge $-1 $619 $567 $681 $682 reversed $428 $-1 #
edge $-1 $568 -1.8562523829212996 $683 14.947323086069911 $567 $684 forward 7 unknown #
point $-1 48.827173680837426 -32.496810926593909 1.8562523829212996 #
face $-1 $-1 $605 $18 $-1 $685 reversed single #
plane-surface $-1 -48.827173680837426 0 0 1 0 0 0 0 -1 forward_v I I I I #
coedge $-1 $582 $581 $600 $655 reversed $476 $-1 #
coedge $-1 $610 $601 $581 $639 forward $579 $-1 #
edge $-1 $656 -32.496810926593909 $642 32.496810926593909 $581 $686 forward 7 unknown #
edge $-1 $641 -32.496810926593909 $646 32.496810926593909 $582 $687 forward 7 unknown #
vertex $-1 $587 $688 #
vertex $-1 $658 $689 #
straight-curve $-1 -64.669894654804409 32.496810926593909 -13.053898178896524 0 0 -1 I I #
coedge $-1 $604 $586 $591 $649 reversed $605 $-1 #
straight-curve $-1 -56.748534167820914 32.496810926593909 -11.160473271723138 -1 0 0 I I #
vertex $-1 $640 $690 #
straight-curve $-1 -56.748534167820914 -32.496810926593909 -11.160473271723138 1 0 0 I I #
coedge $-1 $591 $590 $597 $653 reversed $592 $-1 #
edge $-1 $660 -14.947323086069911 $593 11.160473271723138 $644 $691 forward 7 unknown #
point $-1 -48.827173680837426 32.496810926593909 -11.160473271723138 #
point $-1 -48.827173680837426 -32.496810926593909 -11.160473271723138 #
straight-curve $-1 -48.827173680837426 -32.496810926593909 0 0 0 -1 I I #
edge $-1 $660 -32.496810926593909 $598 32.496810926593909 $648 $692 forward 7 unknown #
point $-1 -48.827173680837426 -32.496810926593909 14.947323086069911 #
edge $-1 $646 -1.8934249071733866 $656 1.8934249071733866 $637 $693 forward 7 unknown #
vertex $-1 $639 $694 #
straight-curve $-1 -56.748534167820914 -32.496810926593909 -14.947323086069911 -1 0 0 I I #
edge $-1 $642 -64.669894654804409 $606 48.827173680837426 $603 $695 forward 7 unknown #
point $-1 48.827173680837426 32.496810926593909 -14.947323086069911 #
vertex $-1 $608 $696 #
straight-curve $-1 0 32.496810926593909 14.947323086069911 -1 0 0 I I #
face $-1 $697 $698 $19 $-1 $699 reversed single #
plane-surface $-1 0 0 14.947323086069911 0 0 1 1 0 0 forward_v I I I I #
coedge $-1 $700 $701 $702 $703 forward $614 $-1 #
coedge $-1 $704 $616 $705 $706 forward $554 $-1 #
coedge $-1 $616 $704 $707 $708 forward $554 $-1 #
coedge $-1 $709 $710 $616 $668 forward $711 $-1 #
edge $-1 $712 -32.496810926593909 $713 32.496810926593909 $667 $714 forward 7 unknown #
coedge $-1 $707 $617 $709 $715 forward $498 $-1 #
coedge $-1 $622 $716 $617 $671 forward $623 $-1 #
edge $-1 $717 -48.827173680837426 $630 36.185273952659472 $617 $718 forward 7 unknown #
coedge $-1 $618 $719 $720 $721 reversed $498 $-1 #
coedge $-1 $722 $723 $619 $674 forward $724 $-1 #
edge $-1 $676 -14.947323086069911 $725 14.947323086069911 $619 $726 forward 7 unknown #
coedge $-1 $716 $620 $723 $727 forward $623 $-1 #
vertex $-1 $621 $728 #
straight-curve $-1 48.827173680837426 0 14.947323086069911 0 1 0 I I #
point $-1 36.185273952659472 -13.92700633197952 14.947323086069915 #
straight-curve $-1 36.185273952659479 -11.605954314643357 14.947323086069908 0 1 0 I I #
point $-1 36.185273952659472 -32.496810926593909 14.947323086069915 #
coedge $-1 $720 $729 $632 $682 forward $698 $-1 #
edge $-1 $725 -32.496810926593909 $683 32.496810926593909 $632 $730 forward 7 unknown #
vertex $-1 $633 $731 #
straight-curve $-1 48.827173680837426 -32.496810926593909 0 0 0 -1 I I #
plane-surface $-1 0 32.496810926593909 0 0 -1 0 0 0 -1 forward_v I I I I #
straight-curve $-1 -64.669894654804409 0 -14.947323086069911 0 1 0 I I #
straight-curve $-1 -64.669894654804409 0 -11.160473271723138 0 -1 0 I I #
point $-1 -64.669894654804409 32.496810926593909 -11.160473271723138 #
point $-1 -64.669894654804409 32.496810926593909 -14.947323086069911 #
point $-1 -64.669894654804409 -32.496810926593909 -11.160473271723138 #
straight-curve $-1 -48.827173680837426 32.496810926593909 0 0 0 -1 I I #
straight-curve $-1 -48.827173680837426 0 14.947323086069911 0 -1 0 I I #
straight-curve $-1 -64.669894654804409 -32.496810926593909 -13.053898178896524 0 0 -1 I I #
point $-1 -64.669894654804409 -32.496810926593909 -14.947323086069911 #
straight-curve $-1 0 32.496810926593909 -14.947323086069911 1 0 0 I I #
point $-1 -48.827173680837426 32.496810926593909 14.947323086069911 #
face $-1 $732 $711 $19 $-1 $733 reversed single #
loop $-1 $-1 $681 $662 #
plane-surface $-1 0 0 -14.947323086069911 0 0 1 1 0 0 forward_v I I I I #
coedge $-1 $734 $664 $735 $736 reversed $614 $-1 #
coedge $-1 $664 $734 $704 $737 reversed $614 $-1 #
coedge $-1 $705 $722 $664 $703 reversed $724 $-1 #
edge $-1 $738 -1.8934249071733866 $739 1.8934249071733866 $702 $740 forward 7 unknown #
coedge $-1 $666 $665 $701 $737 forward $554 $-1 #
coedge $-1 $741 $702 $665 $706 reversed $724 $-1 #
edge $-1 $712 -7.9213604869834882 $738 7.9213604869834953 $705 $742 forward 7 unknown #
coedge $-1 $719 $669 $666 $708 reversed $498 $-1 #
edge $-1 $743 -7.9213604869834953 $713 7.9213604869834882 $707 $744 forward 7 unknown #
coedge $-1 $745 $667 $669 $715 reversed $711 $-1 #
coedge $-1 $667 $745 $741 $746 forward $711 $-1 #
loop $-1 $-1 $667 $697 #
vertex $-1 $746 $747 #
vertex $-1 $708 $748 #
straight-curve $-1 -48.827173680837426 0 -11.160473271723138 0 -1 0 I I #
edge $-1 $717 -14.947323086069911 $713 11.160473271723138 $709 $749 forward 7 unknown #
coedge $-1 $670 $675 $745 $750 forward $623 $-1 #
vertex $-1 $750 $751 #
straight-curve $-1 0 -32.496810926593909 14.947323086069911 1 0 0 I I #
coedge $-1 $672 $707 $734 $752 forward $498 $-1 #
coedge $-1 $735 $681 $672 $721 forward $698 $-1 #
edge $-1 $683 -105.57570784865834 $753 7.9213604869834953 $672 $754 forward 7 unknown #
coedge $-1 $702 $673 $729 $755 reversed $724 $-1 #
coedge $-1 $673 $741 $675 $727 reversed $724 $-1 #
loop $-1 $-1 $673 $732 #
vertex $-1 $682 $756 #
straight-curve $-1 48.827173680837426 32.496810926593909 0 0 0 -1 I I #
edge $-1 $676 -48.827173680837426 $757 48.827173680837426 $723 $758 forward 7 unknown #
point $-1 48.827173680837426 32.496810926593909 14.947323086069911 #
coedge $-1 $681 $735 $722 $755 forward $698 $-1 #
straight-curve $-1 48.827173680837426 0 -14.947323086069911 0 -1 0 I I #
point $-1 48.827173680837426 -32.496810926593909 -14.947323086069911 #
face $-1 $-1 $724 $19 $-1 $759 reversed single #
plane-surface $-1 -48.827173680837426 0 0 1 0 0 0 0 -1 forward_v I I I I #
coedge $-1 $701 $700 $719 $752 reversed $614 $-1 #
coedge $-1 $729 $720 $700 $736 forward $698 $-1 #
edge $-1 $753 -32.496810926593909 $739 32.496810926593909 $700 $760 forward 7 unknown #
edge $-1 $738 -32.496810926593909 $743 32.496810926593909 $701 $761 forward 7 unknown #
vertex $-1 $706 $762 #
vertex $-1 $755 $763 #
straight-curve $-1 -64.669894654804409 32.496810926593909 -13.053898178896524 0 0 -1 I I #
coedge $-1 $723 $705 $710 $746 reversed $724 $-1 #
straight-curve $-1 -56.748534167820914 32.496810926593909 -11.160473271723138 -1 0 0 I I #
vertex $-1 $737 $764 #
straight-curve $-1 -56.748534167820914 -32.496810926593909 -11.160473271723138 1 0 0 I I #
coedge $-1 $710 $709 $716 $750 reversed $711 $-1 #
edge $-1 $757 -14.947323086069911 $712 11.160473271723138 $741 $765 forward 7 unknown #
point $-1 -48.827173680837426 32.496810926593909 -11.160473271723138 #
point $-1 -48.827173680837426 -32.496810926593909 -11.160473271723138 #
straight-curve $-1 -48.827173680837426 -32.496810926593909 0 0 0 -1 I I #
edge $-1 $757 -32.496810926593909 $717 32.496810926593909 $745 $766 forward 7 unknown #
point $-1 -48.827173680837426 -32.496810926593909 14.947323086069911 #
edge $-1 $743 -1.8934249071733866 $753 1.8934249071733866 $734 $767 forward 7 unknown #
vertex $-1 $736 $768 #
straight-curve $-1 -56.748534167820914 -32.496810926593909 -14.947323086069911 -1 0 0 I I #
edge $-1 $739 -64.669894654804409 $725 48.827173680837426 $722 $769 forward 7 unknown #
point $-1 48.827173680837426 32.496810926593909 -14.947323086069911 #
vertex $-1 $727 $770 #
straight-curve $-1 0 32.496810926593909 14.947323086069911 -1 0 0 I I #
plane-surface $-1 0 32.496810926593909 0 0 -1 0 0 0 -1 forward_v I I I I #
straight-curve $-1 -64.669894654804409 0 -14.947323086069911 0 1 0 I I #
straight-curve $-1 -64.669894654804409 0 -11.160473271723138 0 -1 0 I I #
point $-1 -64.669894654804409 32.496810926593909 -11.160473271723138 #
point $-1 -64.669894654804409 32.496810926593909 -14.947323086069911 #
point $-1 -64.669894654804409 -32.496810926593909 -11.160473271723138 #
straight-curve $-1 -48.827173680837426 32.496810926593909 0 0 0 -1 I I #
straight-curve $-1 -48.827173680837426 0 14.947323086069911 0 -1 0 I I #
straight-curve $-1 -64.669894654804409 -32.496810926593909 -13.053898178896524 0 0 -1 I I #
point $-1 -64.669894654804409 -32.496810926593909 -14.947323086069911 #
straight-curve $-1 0 32.496810926593909 -14.947323086069911 1 0 0 I I #
point $-1 -48.827173680837426 32.496810926593909 14.947323086069911 #
End-of-ACIS-data 