500 0 5 0           
7 Unknown 11 ACIS 5.0 NT 24 Fri Mar 26 14:49:45 1999 
-1 9.9999999999999995e-007 1e-010 
body $-1 $5 $-1 $6 #
body $-1 $7 $-1 $8 #
body $-1 $9 $-1 $10 #
body $-1 $11 $-1 $12 #
body $-1 $13 $-1 $14 #
lump $-1 $-1 $15 $0 #
transform $-1 1 0 0 0 1 0 0 0 1 74.83260597552416 40.153184453903869 8.0504886192927909 1 rotate no_reflect no_shear #
lump $-1 $-1 $16 $1 #
transform $-1 1 0 0 0 1 0 0 0 1 74.83260597552416 40.153184453903869 8.0504886192927909 1 rotate no_reflect no_shear #
lump $-1 $-1 $17 $2 #
transform $-1 1 0 0 0 1 0 0 0 1 74.83260597552416 40.153184453903869 8.0504886192927909 1 rotate no_reflect no_shear #
lump $-1 $-1 $18 $3 #
transform $-1 1 0 0 0 1 0 0 0 1 74.83260597552416 40.153184453903869 8.0504886192927909 1 rotate no_reflect no_shear #
lump $-1 $-1 $19 $4 #
transform $-1 1 0 0 0 1 0 0 0 1 74.83260597552416 40.153184453903869 8.0504886192927909 1 rotate no_reflect no_shear #
shell $-1 $-1 $-1 $20 $-1 $5 #
shell $-1 $-1 $-1 $21 $-1 $7 #
shell $-1 $-1 $-1 $22 $-1 $9 #
shell $-1 $-1 $-1 $23 $-1 $11 #
shell $-1 $-1 $-1 $24 $-1 $13 #
face $-1 $25 $26 $15 $-1 $27 forward single #
face $-1 $28 $29 $16 $-1 $30 forward single #
face $-1 $31 $32 $17 $-1 $33 forward single #
face $-1 $34 $35 $18 $-1 $36 reversed single #
face $-1 $37 $38 $19 $-1 $39 reversed single #
face $-1 $40 $41 $15 $-1 $42 reversed single #
loop $-1 $-1 $43 $20 #
plane-surface $-1 0 0 8.0504886192927909 0 0 1 1 0 0 forward_v I I I I #
face $-1 $44 $45 $16 $-1 $46 reversed single #
loop $-1 $-1 $47 $21 #
plane-surface $-1 0 -44.210943234325043 -5.0504886192927909 0 0 1 1 0 0 forward_v I I I I #
face $-1 $48 $49 $17 $-1 $50 forward single #
loop $-1 $-1 $51 $22 #
plane-surface $-1 -189.48281115907056 -4.9046953449446491 97.056687183536141 0 1 0 -0.7660444514056185 0 0.64278759981090561 forward_v I I I I #
face $-1 $52 $53 $18 $-1 $54 reversed single #
loop $-1 $55 $56 $23 #
cone-surface $-1 -70.696853413189103 -2.6114605090066689 3.5153793894144831 0.7660444514056185 0 -0.64278759981090561 0.64278759981090561 0 0.7660444514056185 1 I I 0 1 1 forward I I I I #
face $-1 $57 $58 $19 $-1 $59 reversed single #
loop $-1 $60 $61 $24 #
cone-surface $-1 -70.696853413189103 0.82839174490030842 3.5153793894144831 0.7660444514056185 0 -0.64278759981090561 0.64278759981090561 0 0.7660444514056185 1 I I 0 1 1 forward I I I I #
face $-1 $62 $63 $15 $-1 $64 reversed single #
loop $-1 $-1 $65 $25 #
plane-surface $-1 0 0 -8.0504886192927909 0 0 1 1 0 0 forward_v I I I I #
coedge $-1 $66 $67 $68 $69 forward $26 $-1 #
face $-1 $70 $71 $16 $-1 $72 forward single #
loop $-1 $-1 $73 $28 #
plane-surface $-1 0 -48.268702014746218 -6.5504886192927909 0 1 0 0 0 1 forward_v I I I I #
coedge $-1 $74 $75 $76 $77 forward $29 $-1 #
face $-1 $78 $79 $17 $-1 $80 forward single #
loop $-1 $-1 $81 $31 #
plane-surface $-1 -74.832605975524132 -0.89153438205318025 0.85374481833132165 -0.7660444514056185 0 0.64278759981090561 0.64278759981090561 0 0.7660444514056185 forward_v I I I I #
coedge $-1 $82 $83 $84 $85 reversed $32 $-1 #
face $-1 $86 $87 $18 $-1 $88 forward single #
loop $-1 $89 $90 $34 #
cone-surface $-1 -69.197471080631971 -2.6114605090066689 2.2572482601114512 0.7660444514056185 0 -0.64278759981090561 0.3213937999054528 0 0.38302222570280925 1 I I -0.70710678118654746 0.70710678118654746 0.5 forward I I I I #
loop $-1 $-1 $91 $23 #
coedge $-1 $56 $56 $92 $93 reversed $35 $-1 #
face $-1 $94 $95 $19 $-1 $96 reversed single #
loop $-1 $97 $98 $37 #
cone-surface $-1 -69.197471080631971 0.82839174490030842 2.2572482601114512 0.7660444514056185 0 -0.64278759981090561 0.3213937999054528 0 0.38302222570280925 1 I I -0.70710678118654746 0.70710678118654746 0.5 forward I I I I #
loop $-1 $-1 $99 $24 #
coedge $-1 $61 $61 $100 $101 reversed $38 $-1 #
face $-1 $102 $103 $15 $-1 $104 reversed single #
loop $-1 $-1 $105 $40 #
plane-surface $-1 0 -40.153184453903869 0 0 1 0 0 0 1 forward_v I I I I #
coedge $-1 $106 $107 $108 $109 forward $41 $-1 #
coedge $-1 $110 $43 $111 $112 forward $26 $-1 #
coedge $-1 $43 $110 $113 $114 forward $26 $-1 #
coedge $-1 $115 $116 $43 $69 reversed $117 $-1 #
edge $-1 $118 -40.153184453903869 $119 40.153184453903869 $68 $120 forward 7 unknown #
face $-1 $121 $122 $16 $-1 $123 reversed single #
loop $-1 $-1 $124 $44 #
plane-surface $-1 0 0 8.0504886192927909 0 0 1 1 0 0 forward_v I I I I #
coedge $-1 $125 $126 $127 $128 forward $45 $-1 #
coedge $-1 $129 $47 $130 $131 reversed $29 $-1 #
coedge $-1 $47 $129 $126 $132 forward $29 $-1 #
coedge $-1 $133 $134 $47 $77 reversed $135 $-1 #
edge $-1 $136 -4.0577587804211745 $137 4.0577587804211745 $76 $138 forward 7 unknown #
face $-1 $139 $140 $17 $-1 $141 forward single #
loop $-1 $-1 $142 $48 #
plane-surface $-1 -189.48281115907056 3.1216265808382886 97.056687183536141 0 -1 0 0.7660444514056185 0 -0.64278759981090561 forward_v I I I I #
coedge $-1 $143 $144 $145 $146 reversed $49 $-1 #
coedge $-1 $83 $51 $144 $147 forward $32 $-1 #
coedge $-1 $51 $82 $148 $149 reversed $32 $-1 #
coedge $-1 $150 $145 $51 $85 forward $140 $-1 #
edge $-1 $151 -25.947584514972661 $152 -19.908799604011122 $84 $153 forward 7 unknown #
face $-1 $154 $155 $18 $-1 $156 forward single #
loop $-1 $-1 $157 $52 #
plane-surface $-1 -189.48281115907056 -4.9046953449446491 97.056687183536141 0 1 0 -0.7660444514056185 0 0.64278759981090561 forward_v I I I I #
loop $-1 $-1 $158 $34 #
coedge $-1 $90 $90 $91 $159 forward $53 $-1 #
coedge $-1 $91 $91 $90 $159 reversed $55 $-1 #
coedge $-1 $92 $92 $56 $93 forward $155 $-1 #
edge $-1 $160 0 $160 6.2831853071796004 $92 $161 forward 7 unknown #
face $-1 $162 $163 $19 $-1 $164 reversed single #
loop $-1 $165 $166 $57 #
cone-surface $-1 -70.696853413189103 -2.6114605090066689 3.5153793894144831 0.7660444514056185 0 -0.64278759981090561 0.64278759981090561 0 0.7660444514056185 1 I I 0 1 1 forward I I I I #
loop $-1 $-1 $167 $37 #
coedge $-1 $98 $98 $99 $168 forward $58 $-1 #
coedge $-1 $99 $99 $98 $168 reversed $60 $-1 #
coedge $-1 $100 $100 $61 $101 forward $169 $-1 #
edge $-1 $170 0 $170 6.2831853071796004 $100 $171 forward 7 unknown #
face $-1 $172 $173 $15 $-1 $174 reversed single #
loop $-1 $-1 $175 $62 #
plane-surface $-1 -74.83260597552416 0 0 1 0 0 0 0 -1 forward_v I I I I #
coedge $-1 $176 $113 $177 $178 forward $63 $-1 #
coedge $-1 $179 $65 $176 $180 forward $41 $-1 #
coedge $-1 $65 $179 $181 $182 forward $41 $-1 #
coedge $-1 $116 $115 $65 $109 reversed $117 $-1 #
edge $-1 $183 -40.153184453903869 $184 40.153184453903869 $108 $185 forward 7 unknown #
coedge $-1 $67 $66 $186 $187 forward $26 $-1 #
coedge $-1 $188 $189 $66 $112 reversed $173 $-1 #
edge $-1 $119 -74.83260597552416 $190 74.83260597552416 $111 $191 forward 7 unknown #
coedge $-1 $105 $192 $67 $114 reversed $63 $-1 #
edge $-1 $193 -74.83260597552416 $118 74.83260597552416 $113 $194 forward 7 unknown #
coedge $-1 $108 $68 $192 $195 forward $117 $-1 #
coedge $-1 $68 $108 $188 $196 reversed $117 $-1 #
loop $-1 $-1 $115 $172 #
vertex $-1 $69 $197 #
vertex $-1 $69 $198 #
straight-curve $-1 74.83260597552416 0 8.0504886192927909 0 1 0 I I #
face $-1 $199 $200 $16 $-1 $201 reversed single #
loop $-1 $-1 $202 $70 #
plane-surface $-1 0 0 -8.0504886192927909 0 0 1 1 0 0 forward_v I I I I #
coedge $-1 $203 $204 $205 $206 forward $71 $-1 #
coedge $-1 $207 $73 $208 $209 reversed $45 $-1 #
coedge $-1 $73 $207 $75 $132 reversed $45 $-1 #
coedge $-1 $210 $211 $73 $128 reversed $212 $-1 #
edge $-1 $213 -1.5 $214 1.5 $127 $215 forward 7 unknown #
coedge $-1 $75 $74 $210 $216 forward $29 $-1 #
coedge $-1 $217 $218 $74 $131 forward $200 $-1 #
edge $-1 $219 -74.83260597552416 $137 74.83260597552416 $130 $220 forward 7 unknown #
edge $-1 $213 -74.83260597552416 $136 74.83260597552416 $126 $221 forward 7 unknown #
coedge $-1 $222 $76 $207 $223 forward $135 $-1 #
coedge $-1 $76 $205 $217 $224 forward $135 $-1 #
loop $-1 $-1 $134 $225 #
vertex $-1 $77 $226 #
vertex $-1 $77 $227 #
straight-curve $-1 74.83260597552416 -44.210943234325043 -5.0504886192927909 0 1 0 I I #
face $-1 $228 $229 $17 $-1 $230 forward single #
loop $-1 $-1 $231 $78 #
plane-surface $-1 0 0 8.0504886192927909 0 0 1 1 0 0 forward_v I I I I #
coedge $-1 $232 $233 $231 $234 reversed $79 $-1 #
coedge $-1 $235 $81 $233 $236 reversed $49 $-1 #
coedge $-1 $81 $235 $82 $147 reversed $49 $-1 #
coedge $-1 $84 $231 $81 $146 forward $140 $-1 #
edge $-1 $237 -3.5673937718648787 $151 4.458928153918059 $145 $238 forward 7 unknown #
edge $-1 $151 -9.3946817156055786 $239 4.4208768116316754e-014 $82 $240 forward 7 unknown #
coedge $-1 $241 $242 $83 $149 forward $243 $-1 #
edge $-1 $152 40.477854972475278 $239 47.674598773436784 $148 $244 forward 7 unknown #
coedge $-1 $245 $84 $242 $246 forward $140 $-1 #
vertex $-1 $146 $247 #
vertex $-1 $246 $248 #
straight-curve $-1 -94.741405579535282 -4.9046953449446491 8.0504886192927927 -1 0 0 I I #
face $-1 $249 $250 $18 $-1 $251 forward single #
loop $-1 $252 $92 $86 #
plane-surface $-1 -74.832605975524132 -0.89153438205318025 0.85374481833132165 -0.7660444514056185 0 0.64278759981090561 0.64278759981090561 0 0.7660444514056185 forward_v I I I I #
coedge $-1 $253 $254 $255 $256 reversed $87 $-1 #
coedge $-1 $158 $158 $-1 $257 forward $89 $-1 #
edge $-1 $258 0 $258 6.2831853071796004 $90 $259 forward 7 unknown #
vertex $-1 $93 $260 #
ellipse-curve $-1 -71.813213520043391 -2.6114605090066689 4.4521167188120385 0.7660444514056185 0 -0.64278759981090561 0.64278759981090561 0 0.7660444514056185 1 I I #
face $-1 $261 $262 $19 $-1 $263 forward single #
loop $-1 $264 $265 $94 #
cone-surface $-1 -69.197471080631971 -2.6114605090066689 2.2572482601114512 0.7660444514056185 0 -0.64278759981090561 0.3213937999054528 0 0.38302222570280925 1 I I -0.70710678118654746 0.70710678118654746 0.5 forward I I I I #
loop $-1 $-1 $266 $57 #
coedge $-1 $166 $166 $267 $268 reversed $95 $-1 #
coedge $-1 $167 $167 $-1 $269 forward $97 $-1 #
edge $-1 $270 0 $270 6.2831853071796004 $98 $271 forward 7 unknown #
loop $-1 $272 $100 $261 #
vertex $-1 $101 $273 #
ellipse-curve $-1 -71.813213520043391 0.82839174490030842 4.4521167188120385 0.7660444514056185 0 -0.64278759981090561 0.64278759981090561 0 0.7660444514056185 1 I I #
face $-1 $-1 $117 $15 $-1 $274 reversed single #
loop $-1 $-1 $188 $102 #
plane-surface $-1 0 40.153184453903869 0 0 -1 0 0 0 -1 forward_v I I I I #
coedge $-1 $275 $186 $189 $276 forward $103 $-1 #
coedge $-1 $192 $105 $106 $180 reversed $63 $-1 #
coedge $-1 $186 $275 $105 $178 reversed $103 $-1 #
edge $-1 $193 -8.0504886192927909 $277 8.0504886192927909 $177 $278 forward 7 unknown #
coedge $-1 $107 $106 $275 $279 forward $41 $-1 #
edge $-1 $184 -74.83260597552416 $277 74.83260597552416 $176 $280 forward 7 unknown #
coedge $-1 $189 $188 $107 $182 reversed $173 $-1 #
edge $-1 $281 -74.83260597552416 $183 74.83260597552416 $181 $282 forward 7 unknown #
vertex $-1 $109 $283 #
vertex $-1 $195 $284 #
straight-curve $-1 74.83260597552416 0 -8.0504886192927909 0 -1 0 I I #
coedge $-1 $175 $177 $110 $187 reversed $103 $-1 #
edge $-1 $190 -40.153184453903869 $193 40.153184453903869 $186 $285 forward 7 unknown #
coedge $-1 $181 $111 $116 $196 forward $173 $-1 #
coedge $-1 $111 $181 $175 $276 reversed $173 $-1 #
vertex $-1 $112 $286 #
straight-curve $-1 0 40.153184453903869 8.0504886192927909 -1 0 0 I I #
coedge $-1 $113 $176 $115 $195 reversed $63 $-1 #
vertex $-1 $187 $287 #
straight-curve $-1 0 -40.153184453903869 8.0504886192927909 1 0 0 I I #
edge $-1 $118 -8.0504886192927909 $184 8.0504886192927909 $115 $288 forward 7 unknown #
edge $-1 $119 -8.0504886192927909 $183 8.0504886192927909 $116 $289 forward 7 unknown #
point $-1 74.83260597552416 -40.153184453903869 8.0504886192927909 #
point $-1 74.83260597552416 40.153184453903869 8.0504886192927909 #
face $-1 $290 $212 $16 $-1 $291 reversed single #
loop $-1 $-1 $130 $121 #
plane-surface $-1 0 -40.153184453903869 0 0 1 0 0 0 1 forward_v I I I I #
coedge $-1 $208 $292 $222 $293 forward $122 $-1 #
coedge $-1 $294 $124 $295 $296 forward $71 $-1 #
coedge $-1 $124 $294 $297 $298 forward $71 $-1 #
coedge $-1 $134 $299 $124 $206 reversed $135 $-1 #
edge $-1 $300 -40.153184453903869 $301 40.153184453903869 $205 $302 forward 7 unknown #
coedge $-1 $126 $125 $133 $223 reversed $45 $-1 #
coedge $-1 $303 $202 $125 $209 forward $122 $-1 #
edge $-1 $304 -74.83260597552416 $214 74.83260597552416 $125 $305 forward 7 unknown #
coedge $-1 $306 $127 $129 $216 reversed $212 $-1 #
coedge $-1 $127 $307 $303 $308 reversed $212 $-1 #
loop $-1 $-1 $307 $199 #
vertex $-1 $216 $309 #
vertex $-1 $308 $310 #
straight-curve $-1 -74.83260597552416 -48.268702014746218 -6.5504886192927909 0 0 -1 I I #
edge $-1 $219 -4.0577587804211745 $213 4.0577587804211745 $210 $311 forward 7 unknown #
coedge $-1 $297 $130 $134 $224 reversed $200 $-1 #
coedge $-1 $130 $297 $306 $312 forward $200 $-1 #
vertex $-1 $312 $313 #
straight-curve $-1 0 -40.153184453903869 -5.0504886192927909 1 0 0 I I #
straight-curve $-1 0 -48.268702014746218 -5.0504886192927909 1 0 0 I I #
coedge $-1 $299 $133 $202 $293 reversed $135 $-1 #
edge $-1 $136 -1.5 $304 1.5 $133 $314 forward 7 unknown #
edge $-1 $300 -8.0504886192927909 $137 5.0504886192927909 $134 $315 forward 7 unknown #
face $-1 $-1 $135 $16 $-1 $316 reversed single #
point $-1 74.83260597552416 -48.268702014746218 -5.0504886192927909 #
point $-1 74.83260597552416 -40.153184453903869 -5.0504886192927909 #
face $-1 $317 $318 $17 $-1 $319 reversed single #
loop $-1 $-1 $320 $139 #
plane-surface $-1 0 -44.210943234325043 -5.0504886192927909 0 0 1 1 0 0 forward_v I I I I #
coedge $-1 $145 $321 $142 $234 forward $140 $-1 #
coedge $-1 $233 $142 $322 $323 reversed $79 $-1 #
coedge $-1 $142 $232 $143 $236 forward $79 $-1 #
edge $-1 $324 19.908799604011122 $237 25.947584514972661 $231 $325 forward 7 unknown #
coedge $-1 $144 $143 $241 $326 reversed $49 $-1 #
edge $-1 $327 -4.4208768116316754e-014 $237 9.3946817156055786 $233 $328 forward 7 unknown #
vertex $-1 $146 $329 #
straight-curve $-1 -68.793821064562621 -0.44576719102659013 8.0504886192927927 0 -1 0 I I #
vertex $-1 $326 $330 #
straight-curve $-1 -74.832605975524132 -4.9046953449446491 0.85374481833132165 -0.64278759981090561 0 -0.7660444514056185 I I #
coedge $-1 $322 $148 $235 $326 forward $243 $-1 #
coedge $-1 $148 $331 $150 $246 reversed $243 $-1 #
loop $-1 $-1 $322 $332 #
straight-curve $-1 -74.83260597552416 -4.9046953449446491 48.528343591768071 0 0 -1 I I #
coedge $-1 $333 $150 $334 $335 forward $140 $-1 #
edge $-1 $152 4.9046953449446491 $336 40.153184453903869 $242 $337 forward 7 unknown #
point $-1 -68.793821064562621 -4.9046953449446491 8.0504886192927891 #
point $-1 -74.83260597552416 -4.9046953449446491 8.0504886192927909 #
face $-1 $338 $339 $18 $-1 $340 forward single #
loop $-1 $-1 $341 $154 #
plane-surface $-1 -189.48281115907056 3.1216265808382886 97.056687183536141 0 -1 0 0.7660444514056185 0 -0.64278759981090561 forward_v I I I I #
loop $-1 $-1 $342 $86 #
coedge $-1 $254 $157 $343 $344 forward $87 $-1 #
coedge $-1 $157 $253 $345 $346 reversed $87 $-1 #
coedge $-1 $347 $348 $157 $256 forward $339 $-1 #
edge $-1 $349 -25.947584514972661 $350 -19.908799604011122 $255 $351 forward 7 unknown #
edge $-1 $352 1 $352 0 $158 $-1 forward 7 unknown #
vertex $-1 $159 $353 #
ellipse-curve $-1 -69.580493306334773 -2.6114605090066689 2.5786420600169038 -0.7660444514056185 0 0.64278759981090561 0.64278759981090561 0 0.7660444514056185 1 I I #
point $-1 -71.170425920232503 -2.6114605090066689 5.2181611702176802 #
face $-1 $354 $169 $19 $-1 $355 forward single #
loop $-1 $-1 $356 $162 #
plane-surface $-1 -189.48281115907056 -4.9046953449446491 97.056687183536141 0 1 0 -0.7660444514056185 0 0.64278759981090561 forward_v I I I I #
loop $-1 $-1 $357 $94 #
coedge $-1 $265 $265 $266 $358 forward $163 $-1 #
coedge $-1 $266 $266 $265 $358 reversed $165 $-1 #
coedge $-1 $267 $267 $166 $268 forward $272 $-1 #
edge $-1 $359 0 $359 6.2831853071796004 $267 $360 forward 7 unknown #
edge $-1 $361 1 $361 0 $167 $-1 forward 7 unknown #
vertex $-1 $168 $362 #
ellipse-curve $-1 -69.580493306334773 0.82839174490030842 2.5786420600169038 -0.7660444514056185 0 0.64278759981090561 0.64278759981090561 0 0.7660444514056185 1 I I #
loop $-1 $363 $267 $261 #
point $-1 -71.170425920232503 0.82839174490030842 5.2181611702176802 #
plane-surface $-1 74.83260597552416 0 0 -1 0 0 0 0 1 forward_v I I I I #
coedge $-1 $177 $175 $179 $279 reversed $103 $-1 #
edge $-1 $190 -8.0504886192927909 $281 8.0504886192927909 $189 $364 forward 7 unknown #
vertex $-1 $279 $365 #
straight-curve $-1 -74.83260597552416 -40.153184453903869 0 0 0 -1 I I #
edge $-1 $277 -40.153184453903869 $281 40.153184453903869 $275 $366 forward 7 unknown #
straight-curve $-1 0 -40.153184453903869 -8.0504886192927909 -1 0 0 I I #
vertex $-1 $182 $367 #
straight-curve $-1 0 40.153184453903869 -8.0504886192927909 1 0 0 I I #
point $-1 74.83260597552416 40.153184453903869 -8.0504886192927909 #
point $-1 74.83260597552416 -40.153184453903869 -8.0504886192927909 #
straight-curve $-1 -74.83260597552416 0 8.0504886192927909 0 -1 0 I I #
point $-1 -74.83260597552416 40.153184453903869 8.0504886192927909 #
point $-1 -74.83260597552416 -40.153184453903869 8.0504886192927909 #
straight-curve $-1 74.83260597552416 -40.153184453903869 0 0 0 -1 I I #
straight-curve $-1 74.83260597552416 40.153184453903869 0 0 0 -1 I I #
face $-1 $225 $368 $16 $-1 $369 reversed single #
plane-surface $-1 -74.83260597552416 0 0 1 0 0 0 0 -1 forward_v I I I I #
coedge $-1 $202 $303 $370 $371 forward $122 $-1 #
edge $-1 $372 -40.153184453903869 $304 48.268702014746218 $222 $373 forward 7 unknown #
coedge $-1 $204 $203 $374 $375 forward $71 $-1 #
coedge $-1 $376 $377 $203 $296 reversed $368 $-1 #
edge $-1 $301 -74.83260597552416 $378 74.83260597552416 $295 $379 forward 7 unknown #
coedge $-1 $218 $217 $204 $298 reversed $200 $-1 #
edge $-1 $380 -74.83260597552416 $300 74.83260597552416 $297 $381 forward 7 unknown #
coedge $-1 $205 $222 $376 $382 reversed $135 $-1 #
vertex $-1 $206 $383 #
vertex $-1 $206 $384 #
straight-curve $-1 74.83260597552416 0 8.0504886192927909 0 1 0 I I #
coedge $-1 $292 $208 $211 $308 forward $122 $-1 #
vertex $-1 $223 $385 #
straight-curve $-1 0 -48.268702014746218 -8.0504886192927909 -1 0 0 I I #
coedge $-1 $374 $210 $218 $312 reversed $212 $-1 #
coedge $-1 $211 $374 $377 $386 forward $212 $-1 #
edge $-1 $214 -48.268702014746218 $387 40.153184453903869 $211 $388 forward 7 unknown #
point $-1 -74.83260597552416 -48.268702014746218 -5.0504886192927909 #
point $-1 -74.83260597552416 -48.268702014746218 -8.0504886192927909 #
straight-curve $-1 -74.83260597552416 -44.210943234325043 -5.0504886192927909 0 -1 0 I I #
edge $-1 $380 -8.0504886192927909 $219 5.0504886192927909 $306 $389 forward 7 unknown #
point $-1 -74.83260597552416 -40.153184453903869 -5.0504886192927909 #
straight-curve $-1 74.83260597552416 -48.268702014746218 -6.5504886192927909 0 0 -1 I I #
straight-curve $-1 74.83260597552416 -40.153184453903869 0 0 0 -1 I I #
plane-surface $-1 74.83260597552416 0 0 -1 0 0 0 0 1 forward_v I I I I #
face $-1 $390 $391 $17 $-1 $392 reversed single #
loop $-1 $-1 $393 $228 #
plane-surface $-1 0 -48.268702014746218 -6.5504886192927909 0 1 0 0 0 1 forward_v I I I I #
coedge $-1 $394 $395 $396 $397 forward $229 $-1 #
coedge $-1 $231 $398 $399 $400 forward $140 $-1 #
coedge $-1 $399 $241 $232 $323 forward $243 $-1 #
edge $-1 $327 -47.674598773436784 $324 -40.477854972475278 $322 $401 forward 7 unknown #
vertex $-1 $323 $402 #
straight-curve $-1 -94.741405579535282 3.1216265808382886 8.0504886192927927 1 0 0 I I #
edge $-1 $239 -4.458928153918059 $327 3.5673937718648787 $241 $403 forward 7 unknown #
vertex $-1 $326 $404 #
straight-curve $-1 -74.832605975524132 3.1216265808382886 0.85374481833132165 0.64278759981090561 0 0.7660444514056185 I I #
point $-1 -68.793821064562621 3.1216265808382886 8.0504886192927891 #
point $-1 -74.83260597552416 -4.9046953449446491 0.85374481833128779 #
coedge $-1 $242 $405 $406 $407 reversed $243 $-1 #
face $-1 $408 $243 $17 $-1 $409 reversed single #
coedge $-1 $398 $245 $410 $411 forward $140 $-1 #
coedge $-1 $406 $412 $245 $335 reversed $413 $-1 #
edge $-1 $336 -74.83260597552416 $414 74.83260597552416 $334 $415 forward 7 unknown #
vertex $-1 $246 $416 #
straight-curve $-1 -74.83260597552416 0 8.0504886192927909 0 -1 0 I I #
face $-1 $417 $418 $18 $-1 $419 forward single #
loop $-1 $-1 $420 $249 #
plane-surface $-1 0 0 8.0504886192927909 0 0 1 1 0 0 forward_v I I I I #
coedge $-1 $421 $422 $420 $423 reversed $250 $-1 #
coedge $-1 $424 $343 $348 $425 reversed $252 $-1 #
coedge $-1 $342 $426 $253 $344 reversed $252 $-1 #
edge $-1 $349 -9.3946817156055786 $427 4.4208768116316754e-014 $253 $428 forward 7 unknown #
coedge $-1 $429 $430 $254 $346 forward $431 $-1 #
edge $-1 $350 40.477854972475278 $427 47.674598773436784 $345 $432 forward 7 unknown #
coedge $-1 $433 $255 $430 $434 forward $339 $-1 #
coedge $-1 $255 $420 $342 $425 forward $339 $-1 #
vertex $-1 $425 $435 #
vertex $-1 $434 $436 #
straight-curve $-1 -94.741405579535282 -4.9046953449446491 8.0504886192927927 -1 0 0 I I #
vertex $-1 $257 $437 #
point $-1 -68.937705706523872 -2.6114605090066689 3.3446865114225224 #
face $-1 $438 $439 $19 $-1 $440 forward single #
plane-surface $-1 -74.832605975524132 -0.89153438205318025 0.85374481833132165 -0.7660444514056185 0 0.64278759981090561 0.64278759981090561 0 0.7660444514056185 forward_v I I I I #
coedge $-1 $441 $442 $443 $444 reversed $262 $-1 #
coedge $-1 $357 $357 $-1 $445 forward $264 $-1 #
edge $-1 $446 0 $446 6.2831853071796004 $265 $447 forward 7 unknown #
vertex $-1 $268 $448 #
ellipse-curve $-1 -71.813213520043391 -2.6114605090066689 4.4521167188120385 0.7660444514056185 0 -0.64278759981090561 0.64278759981090561 0 0.7660444514056185 1 I I #
vertex $-1 $269 $449 #
point $-1 -68.937705706523872 0.82839174490030842 3.3446865114225224 #
loop $-1 $-1 $450 $261 #
straight-curve $-1 -74.83260597552416 40.153184453903869 0 0 0 -1 I I #
point $-1 -74.83260597552416 -40.153184453903869 -8.0504886192927909 #
straight-curve $-1 -74.83260597552416 0 -8.0504886192927909 0 1 0 I I #
point $-1 -74.83260597552416 40.153184453903869 -8.0504886192927909 #
loop $-1 $-1 $376 $290 #
plane-surface $-1 0 40.153184453903869 0 0 -1 0 0 0 -1 forward_v I I I I #
coedge $-1 $377 $376 $292 $371 reversed $368 $-1 #
edge $-1 $387 -74.83260597552416 $372 74.83260597552416 $370 $451 forward 7 unknown #
vertex $-1 $293 $452 #
straight-curve $-1 74.83260597552416 0 -8.0504886192927909 0 -1 0 I I #
coedge $-1 $307 $306 $294 $375 reversed $212 $-1 #
edge $-1 $378 -40.153184453903869 $380 40.153184453903869 $374 $453 forward 7 unknown #
coedge $-1 $370 $295 $299 $382 forward $368 $-1 #
coedge $-1 $295 $370 $307 $386 reversed $368 $-1 #
vertex $-1 $296 $454 #
straight-curve $-1 0 40.153184453903869 8.0504886192927909 -1 0 0 I I #
vertex $-1 $375 $455 #
straight-curve $-1 0 -40.153184453903869 8.0504886192927909 1 0 0 I I #
edge $-1 $301 -8.0504886192927909 $372 8.0504886192927909 $299 $456 forward 7 unknown #
point $-1 74.83260597552416 -40.153184453903869 8.0504886192927909 #
point $-1 74.83260597552416 40.153184453903869 8.0504886192927909 #
point $-1 74.83260597552416 -48.268702014746218 -8.0504886192927909 #
edge $-1 $378 -8.0504886192927909 $387 8.0504886192927909 $377 $457 forward 7 unknown #
vertex $-1 $371 $458 #
straight-curve $-1 -74.83260597552416 0 -8.0504886192927909 0 1 0 I I #
straight-curve $-1 -74.83260597552416 -40.153184453903869 0 0 0 -1 I I #
face $-1 $332 $413 $17 $-1 $459 reversed single #
loop $-1 $-1 $460 $317 #
plane-surface $-1 0 0 -8.0504886192927909 0 0 1 1 0 0 forward_v I I I I #
coedge $-1 $461 $462 $463 $464 forward $318 $-1 #
coedge $-1 $465 $320 $466 $467 reversed $229 $-1 #
coedge $-1 $320 $465 $462 $468 forward $229 $-1 #
coedge $-1 $469 $470 $320 $397 reversed $471 $-1 #
edge $-1 $472 -4.0577587804211745 $473 4.0577587804211745 $396 $474 forward 7 unknown #
coedge $-1 $321 $333 $475 $476 forward $140 $-1 #
coedge $-1 $477 $322 $321 $400 reversed $243 $-1 #
edge $-1 $478 -40.153184453903869 $324 -3.1216265808382886 $399 $337 forward 7 unknown #
straight-curve $-1 -74.83260597552416 3.1216265808382886 48.528343591768071 0 0 1 I I #
point $-1 -74.83260597552416 3.1216265808382886 8.0504886192927909 #
straight-curve $-1 -74.83260597552416 -0.44576719102659013 0.85374481833129534 0 1 0 I I #
point $-1 -74.83260597552416 3.1216265808382886 0.85374481833128779 #
coedge $-1 $331 $463 $465 $479 reversed $243 $-1 #
coedge $-1 $466 $334 $331 $407 forward $413 $-1 #
edge $-1 $336 -8.0504886192927909 $480 5.0504886192927909 $331 $481 forward 7 unknown #
face $-1 $482 $483 $17 $-1 $484 reversed single #
plane-surface $-1 -74.83260597552416 0 0 1 0 0 0 0 -1 forward_v I I I I #
coedge $-1 $470 $485 $333 $411 reversed $471 $-1 #
edge $-1 $414 -40.153184453903869 $486 40.153184453903869 $410 $487 forward 7 unknown #
coedge $-1 $334 $466 $470 $488 reversed $413 $-1 #
loop $-1 $-1 $466 $390 #
vertex $-1 $411 $489 #
straight-curve $-1 0 -40.153184453903869 8.0504886192927909 1 0 0 I I #
point $-1 -74.83260597552416 -40.153184453903869 8.0504886192927909 #
face $-1 $490 $491 $18 $-1 $492 reversed single #
loop $-1 $-1 $493 $338 #
plane-surface $-1 0 -44.210943234325043 -5.0504886192927909 0 0 1 1 0 0 forward_v I I I I #
coedge $-1 $348 $494 $341 $423 forward $339 $-1 #
coedge $-1 $422 $341 $495 $496 reversed $250 $-1 #
coedge $-1 $341 $421 $424 $497 forward $250 $-1 #
edge $-1 $498 19.908799604011122 $499 25.947584514972661 $420 $500 forward 7 unknown #
coedge $-1 $426 $342 $422 $497 reversed $252 $-1 #
edge $-1 $499 -3.5673937718648787 $349 4.458928153918059 $348 $501 forward 7 unknown #
coedge $-1 $343 $424 $429 $502 reversed $252 $-1 #
vertex $-1 $502 $503 #
straight-curve $-1 -74.832605975524132 -4.9046953449446491 0.85374481833132165 -0.64278759981090561 0 -0.7660444514056185 I I #
coedge $-1 $495 $345 $426 $502 forward $431 $-1 #
coedge $-1 $345 $504 $347 $434 reversed $431 $-1 #
loop $-1 $-1 $495 $505 #
straight-curve $-1 -74.83260597552416 -4.9046953449446491 48.528343591768071 0 0 -1 I I #
coedge $-1 $506 $347 $507 $508 forward $339 $-1 #
edge $-1 $350 4.9046953449446491 $509 40.153184453903869 $430 $510 forward 7 unknown #
point $-1 -68.793821064562621 -4.9046953449446491 8.0504886192927891 #
point $-1 -74.83260597552416 -4.9046953449446491 8.0504886192927909 #
point $-1 -68.814448854929168 -2.6114605090066689 1.9358544602059984 #
face $-1 $511 $512 $19 $-1 $513 forward single #
loop $-1 $-1 $514 $354 #
plane-surface $-1 -189.48281115907056 3.1216265808382886 97.056687183536141 0 -1 0 0.7660444514056185 0 -0.64278759981090561 forward_v I I I I #
coedge $-1 $442 $356 $515 $516 forward $262 $-1 #
coedge $-1 $356 $441 $517 $518 reversed $262 $-1 #
coedge $-1 $519 $520 $356 $444 forward $512 $-1 #
edge $-1 $521 -25.947584514972661 $522 -19.908799604011122 $443 $523 forward 7 unknown #
edge $-1 $524 1 $524 0 $357 $-1 forward 7 unknown #
vertex $-1 $358 $525 #
ellipse-curve $-1 -69.580493306334773 -2.6114605090066689 2.5786420600169038 -0.7660444514056185 0 0.64278759981090561 0.64278759981090561 0 0.7660444514056185 1 I I #
point $-1 -71.170425920232503 -2.6114605090066689 5.2181611702176802 #
point $-1 -68.814448854929168 0.82839174490030842 1.9358544602059984 #
coedge $-1 $526 $515 $520 $527 reversed $363 $-1 #
straight-curve $-1 0 40.153184453903869 -8.0504886192927909 1 0 0 I I #
point $-1 74.83260597552416 40.153184453903869 -8.0504886192927909 #
straight-curve $-1 -74.83260597552416 0 8.0504886192927909 0 -1 0 I I #
point $-1 -74.83260597552416 40.153184453903869 8.0504886192927909 #
point $-1 -74.83260597552416 -40.153184453903869 8.0504886192927909 #
straight-curve $-1 74.83260597552416 40.153184453903869 0 0 0 -1 I I #
straight-curve $-1 -74.83260597552416 40.153184453903869 0 0 0 -1 I I #
point $-1 -74.83260597552416 40.153184453903869 -8.0504886192927909 #
plane-surface $-1 0 -40.153184453903869 0 0 1 0 0 0 1 forward_v I I I I #
coedge $-1 $528 $529 $530 $531 forward $391 $-1 #
coedge $-1 $532 $393 $528 $533 reversed $318 $-1 #
coedge $-1 $393 $532 $395 $468 reversed $318 $-1 #
coedge $-1 $405 $534 $393 $464 reversed $243 $-1 #
edge $-1 $535 -1.5 $536 1.5 $463 $537 forward 7 unknown #
coedge $-1 $395 $394 $405 $479 forward $229 $-1 #
coedge $-1 $412 $406 $394 $467 forward $413 $-1 #
edge $-1 $480 -74.83260597552416 $473 74.83260597552416 $466 $538 forward 7 unknown #
edge $-1 $535 -74.83260597552416 $472 74.83260597552416 $462 $539 forward 7 unknown #
coedge $-1 $530 $396 $532 $540 forward $471 $-1 #
coedge $-1 $396 $410 $412 $488 forward $471 $-1 #
loop $-1 $-1 $470 $482 #
vertex $-1 $397 $541 #
vertex $-1 $397 $542 #
straight-curve $-1 74.83260597552416 -44.210943234325043 -5.0504886192927909 0 1 0 I I #
coedge $-1 $543 $544 $398 $476 reversed $483 $-1 #
edge $-1 $486 -74.83260597552416 $478 74.83260597552416 $475 $545 forward 7 unknown #
coedge $-1 $534 $399 $544 $546 forward $243 $-1 #
vertex $-1 $476 $547 #
edge $-1 $480 -4.0577587804211745 $535 4.0577587804211745 $405 $548 forward 7 unknown #
vertex $-1 $407 $549 #
straight-curve $-1 -74.83260597552416 -40.153184453903869 0 0 0 -1 I I #
face $-1 $-1 $471 $17 $-1 $550 reversed single #
loop $-1 $-1 $543 $408 #
plane-surface $-1 0 40.153184453903869 0 0 -1 0 0 0 -1 forward_v I I I I #
coedge $-1 $410 $530 $543 $551 reversed $471 $-1 #
vertex $-1 $411 $552 #
straight-curve $-1 74.83260597552416 0 8.0504886192927909 0 1 0 I I #
edge $-1 $414 -8.0504886192927909 $473 5.0504886192927909 $470 $553 forward 7 unknown #
point $-1 74.83260597552416 -40.153184453903869 8.0504886192927909 #
face $-1 $554 $555 $18 $-1 $556 reversed single #
loop $-1 $-1 $557 $417 #
plane-surface $-1 0 -48.268702014746218 -6.5504886192927909 0 1 0 0 0 1 forward_v I I I I #
coedge $-1 $558 $559 $560 $561 forward $418 $-1 #
coedge $-1 $420 $562 $563 $564 forward $339 $-1 #
coedge $-1 $563 $429 $421 $496 forward $431 $-1 #
edge $-1 $565 -47.674598773436784 $498 -40.477854972475278 $495 $566 forward 7 unknown #
edge $-1 $565 -4.4208768116316754e-014 $499 9.3946817156055786 $422 $567 forward 7 unknown #
vertex $-1 $496 $568 #
vertex $-1 $425 $569 #
straight-curve $-1 -94.741405579535282 3.1216265808382886 8.0504886192927927 1 0 0 I I #
straight-curve $-1 -68.793821064562621 -0.44576719102659013 8.0504886192927927 0 -1 0 I I #
edge $-1 $427 -4.458928153918059 $565 3.5673937718648787 $429 $570 forward 7 unknown #
point $-1 -74.83260597552416 -4.9046953449446491 0.85374481833128779 #
coedge $-1 $430 $571 $572 $573 reversed $431 $-1 #
face $-1 $574 $431 $18 $-1 $575 reversed single #
coedge $-1 $562 $433 $576 $577 forward $339 $-1 #
coedge $-1 $572 $578 $433 $508 reversed $579 $-1 #
edge $-1 $509 -74.83260597552416 $580 74.83260597552416 $507 $581 forward 7 unknown #
vertex $-1 $434 $582 #
straight-curve $-1 -74.83260597552416 0 8.0504886192927909 0 -1 0 I I #
face $-1 $583 $584 $19 $-1 $585 forward single #
loop $-1 $-1 $586 $438 #
plane-surface $-1 0 0 8.0504886192927909 0 0 1 1 0 0 forward_v I I I I #
coedge $-1 $587 $588 $586 $589 reversed $439 $-1 #
coedge $-1 $450 $590 $441 $516 reversed $363 $-1 #
edge $-1 $521 -9.3946817156055786 $591 4.4208768116316754e-014 $441 $592 forward 7 unknown #
coedge $-1 $593 $594 $442 $518 forward $595 $-1 #
edge $-1 $522 40.477854972475278 $591 47.674598773436784 $517 $596 forward 7 unknown #
coedge $-1 $597 $443 $594 $598 forward $512 $-1 #
coedge $-1 $443 $586 $450 $527 forward $512 $-1 #
vertex $-1 $527 $599 #
vertex $-1 $598 $600 #
straight-curve $-1 -94.741405579535282 -4.9046953449446491 8.0504886192927927 -1 0 0 I I #
vertex $-1 $445 $601 #
point $-1 -68.937705706523872 -2.6114605090066689 3.3446865114225224 #
coedge $-1 $590 $450 $588 $602 reversed $363 $-1 #
edge $-1 $603 -3.5673937718648787 $521 4.458928153918059 $520 $604 forward 7 unknown #
coedge $-1 $605 $460 $461 $533 forward $391 $-1 #
coedge $-1 $460 $605 $606 $607 forward $391 $-1 #
coedge $-1 $485 $469 $460 $531 reversed $471 $-1 #
edge $-1 $608 -40.153184453903869 $609 48.268702014746218 $530 $610 forward 7 unknown #
coedge $-1 $462 $461 $469 $540 reversed $318 $-1 #
edge $-1 $609 -74.83260597552416 $536 74.83260597552416 $461 $611 forward 7 unknown #
coedge $-1 $463 $477 $605 $612 reversed $243 $-1 #
vertex $-1 $479 $613 #
vertex $-1 $612 $614 #
straight-curve $-1 -74.83260597552416 -48.268702014746218 -6.5504886192927909 0 0 -1 I I #
straight-curve $-1 0 -40.153184453903869 -5.0504886192927909 1 0 0 I I #
straight-curve $-1 0 -48.268702014746218 -5.0504886192927909 1 0 0 I I #
edge $-1 $472 -1.5 $609 1.5 $469 $615 forward 7 unknown #
point $-1 74.83260597552416 -48.268702014746218 -5.0504886192927909 #
point $-1 74.83260597552416 -40.153184453903869 -5.0504886192927909 #
coedge $-1 $606 $475 $485 $551 forward $483 $-1 #
coedge $-1 $475 $606 $477 $546 reversed $483 $-1 #
straight-curve $-1 0 40.153184453903869 8.0504886192927909 -1 0 0 I I #
edge $-1 $478 -8.0504886192927909 $616 8.0504886192927909 $544 $617 forward 7 unknown #
point $-1 -74.83260597552416 40.153184453903869 8.0504886192927909 #
straight-curve $-1 -74.83260597552416 -44.210943234325043 -5.0504886192927909 0 -1 0 I I #
point $-1 -74.83260597552416 -40.153184453903869 -5.0504886192927909 #
plane-surface $-1 74.83260597552416 0 0 -1 0 0 0 0 1 forward_v I I I I #
edge $-1 $486 -8.0504886192927909 $608 8.0504886192927909 $485 $618 forward 7 unknown #
point $-1 74.83260597552416 40.153184453903869 8.0504886192927909 #
straight-curve $-1 74.83260597552416 -40.153184453903869 0 0 0 -1 I I #
face $-1 $505 $579 $18 $-1 $619 reversed single #
loop $-1 $-1 $620 $490 #
plane-surface $-1 0 0 -8.0504886192927909 0 0 1 1 0 0 forward_v I I I I #
coedge $-1 $621 $622 $623 $624 forward $491 $-1 #
coedge $-1 $625 $493 $626 $627 reversed $418 $-1 #
coedge $-1 $493 $625 $622 $628 forward $418 $-1 #
coedge $-1 $629 $630 $493 $561 reversed $631 $-1 #
edge $-1 $632 -4.0577587804211745 $633 4.0577587804211745 $560 $634 forward 7 unknown #
coedge $-1 $494 $506 $635 $636 forward $339 $-1 #
coedge $-1 $637 $495 $494 $564 reversed $431 $-1 #
edge $-1 $638 -40.153184453903869 $498 -3.1216265808382886 $563 $510 forward 7 unknown #
vertex $-1 $502 $639 #
straight-curve $-1 -74.83260597552416 3.1216265808382886 48.528343591768071 0 0 1 I I #
straight-curve $-1 -74.832605975524132 3.1216265808382886 0.85374481833132165 0.64278759981090561 0 0.7660444514056185 I I #
point $-1 -74.83260597552416 3.1216265808382886 8.0504886192927909 #
point $-1 -68.793821064562621 3.1216265808382886 8.0504886192927891 #
straight-curve $-1 -74.83260597552416 -0.44576719102659013 0.85374481833129534 0 1 0 I I #
coedge $-1 $504 $623 $625 $640 reversed $431 $-1 #
coedge $-1 $626 $507 $504 $573 forward $579 $-1 #
edge $-1 $509 -8.0504886192927909 $641 5.0504886192927909 $504 $642 forward 7 unknown #
face $-1 $643 $644 $18 $-1 $645 reversed single #
plane-surface $-1 -74.83260597552416 0 0 1 0 0 0 0 -1 forward_v I I I I #
coedge $-1 $630 $646 $506 $577 reversed $631 $-1 #
edge $-1 $580 -40.153184453903869 $647 40.153184453903869 $576 $648 forward 7 unknown #
coedge $-1 $507 $626 $630 $649 reversed $579 $-1 #
loop $-1 $-1 $626 $554 #
vertex $-1 $577 $650 #
straight-curve $-1 0 -40.153184453903869 8.0504886192927909 1 0 0 I I #
point $-1 -74.83260597552416 -40.153184453903869 8.0504886192927909 #
face $-1 $651 $652 $19 $-1 $653 reversed single #
loop $-1 $-1 $654 $511 #
plane-surface $-1 0 -44.210943234325043 -5.0504886192927909 0 0 1 1 0 0 forward_v I I I I #
coedge $-1 $520 $655 $514 $589 forward $512 $-1 #
coedge $-1 $588 $514 $656 $657 reversed $439 $-1 #
coedge $-1 $514 $587 $526 $602 forward $439 $-1 #
edge $-1 $658 19.908799604011122 $603 25.947584514972661 $586 $659 forward 7 unknown #
coedge $-1 $515 $526 $593 $660 reversed $363 $-1 #
vertex $-1 $660 $661 #
straight-curve $-1 -74.832605975524132 -4.9046953449446491 0.85374481833132165 -0.64278759981090561 0 -0.7660444514056185 I I #
coedge $-1 $656 $517 $590 $660 forward $595 $-1 #
coedge $-1 $517 $662 $519 $598 reversed $595 $-1 #
loop $-1 $-1 $656 $663 #
straight-curve $-1 -74.83260597552416 -4.9046953449446491 48.528343591768071 0 0 -1 I I #
coedge $-1 $664 $519 $665 $666 forward $512 $-1 #
edge $-1 $522 4.9046953449446491 $667 40.153184453903869 $594 $668 forward 7 unknown #
point $-1 -68.793821064562621 -4.9046953449446491 8.0504886192927891 #
point $-1 -74.83260597552416 -4.9046953449446491 8.0504886192927909 #
point $-1 -68.814448854929168 -2.6114605090066689 1.9358544602059984 #
edge $-1 $669 -4.4208768116316754e-014 $603 9.3946817156055786 $588 $670 forward 7 unknown #
vertex $-1 $527 $671 #
straight-curve $-1 -68.793821064562621 -0.44576719102659013 8.0504886192927927 0 -1 0 I I #
coedge $-1 $529 $528 $534 $612 forward $391 $-1 #
coedge $-1 $544 $543 $529 $607 reversed $483 $-1 #
edge $-1 $616 -74.83260597552416 $608 74.83260597552416 $606 $672 forward 7 unknown #
vertex $-1 $531 $673 #
vertex $-1 $540 $674 #
straight-curve $-1 74.83260597552416 0 -8.0504886192927909 0 -1 0 I I #
straight-curve $-1 0 -48.268702014746218 -8.0504886192927909 -1 0 0 I I #
edge $-1 $536 -48.268702014746218 $616 40.153184453903869 $534 $675 forward 7 unknown #
point $-1 -74.83260597552416 -48.268702014746218 -5.0504886192927909 #
point $-1 -74.83260597552416 -48.268702014746218 -8.0504886192927909 #
straight-curve $-1 74.83260597552416 -48.268702014746218 -6.5504886192927909 0 0 -1 I I #
vertex $-1 $607 $676 #
straight-curve $-1 -74.83260597552416 40.153184453903869 0 0 0 -1 I I #
straight-curve $-1 74.83260597552416 40.153184453903869 0 0 0 -1 I I #
plane-surface $-1 0 -40.153184453903869 0 0 1 0 0 0 1 forward_v I I I I #
coedge $-1 $677 $678 $679 $680 forward $555 $-1 #
coedge $-1 $681 $557 $677 $682 reversed $491 $-1 #
coedge $-1 $557 $681 $559 $628 reversed $491 $-1 #
coedge $-1 $571 $683 $557 $624 reversed $431 $-1 #
edge $-1 $684 -1.5 $685 1.5 $623 $686 forward 7 unknown #
coedge $-1 $559 $558 $571 $640 forward $418 $-1 #
coedge $-1 $578 $572 $558 $627 forward $579 $-1 #
edge $-1 $641 -74.83260597552416 $633 74.83260597552416 $626 $687 forward 7 unknown #
edge $-1 $684 -74.83260597552416 $632 74.83260597552416 $622 $688 forward 7 unknown #
coedge $-1 $679 $560 $681 $689 forward $631 $-1 #
coedge $-1 $560 $576 $578 $649 forward $631 $-1 #
loop $-1 $-1 $630 $643 #
vertex $-1 $561 $690 #
vertex $-1 $561 $691 #
straight-curve $-1 74.83260597552416 -44.210943234325043 -5.0504886192927909 0 1 0 I I #
coedge $-1 $692 $693 $562 $636 reversed $644 $-1 #
edge $-1 $647 -74.83260597552416 $638 74.83260597552416 $635 $694 forward 7 unknown #
coedge $-1 $683 $563 $693 $695 forward $431 $-1 #
vertex $-1 $636 $696 #
point $-1 -74.83260597552416 3.1216265808382886 0.85374481833128779 #
edge $-1 $641 -4.0577587804211745 $684 4.0577587804211745 $571 $697 forward 7 unknown #
vertex $-1 $573 $698 #
straight-curve $-1 -74.83260597552416 -40.153184453903869 0 0 0 -1 I I #
face $-1 $-1 $631 $18 $-1 $699 reversed single #
loop $-1 $-1 $692 $574 #
plane-surface $-1 0 40.153184453903869 0 0 -1 0 0 0 -1 forward_v I I I I #
coedge $-1 $576 $679 $692 $700 reversed $631 $-1 #
vertex $-1 $577 $701 #
straight-curve $-1 74.83260597552416 0 8.0504886192927909 0 1 0 I I #
edge $-1 $580 -8.0504886192927909 $633 5.0504886192927909 $630 $702 forward 7 unknown #
point $-1 74.83260597552416 -40.153184453903869 8.0504886192927909 #
face $-1 $703 $704 $19 $-1 $705 reversed single #
loop $-1 $-1 $706 $583 #
plane-surface $-1 0 -48.268702014746218 -6.5504886192927909 0 1 0 0 0 1 forward_v I I I I #
coedge $-1 $707 $708 $709 $710 forward $584 $-1 #
coedge $-1 $586 $711 $712 $713 forward $512 $-1 #
coedge $-1 $712 $593 $587 $657 forward $595 $-1 #
edge $-1 $669 -47.674598773436784 $658 -40.477854972475278 $656 $714 forward 7 unknown #
vertex $-1 $657 $715 #
straight-curve $-1 -94.741405579535282 3.1216265808382886 8.0504886192927927 1 0 0 I I #
edge $-1 $591 -4.458928153918059 $669 3.5673937718648787 $593 $716 forward 7 unknown #
point $-1 -74.83260597552416 -4.9046953449446491 0.85374481833128779 #
coedge $-1 $594 $717 $718 $719 reversed $595 $-1 #
face $-1 $720 $595 $19 $-1 $721 reversed single #
coedge $-1 $711 $597 $722 $723 forward $512 $-1 #
coedge $-1 $718 $724 $597 $666 reversed $725 $-1 #
edge $-1 $667 -74.83260597552416 $726 74.83260597552416 $665 $727 forward 7 unknown #
vertex $-1 $598 $728 #
straight-curve $-1 -74.83260597552416 0 8.0504886192927909 0 -1 0 I I #
vertex $-1 $660 $729 #
straight-curve $-1 -74.832605975524132 3.1216265808382886 0.85374481833132165 0.64278759981090561 0 0.7660444514056185 I I #
point $-1 -68.793821064562621 3.1216265808382886 8.0504886192927891 #
straight-curve $-1 0 40.153184453903869 -8.0504886192927909 1 0 0 I I #
point $-1 74.83260597552416 40.153184453903869 -8.0504886192927909 #
point $-1 74.83260597552416 -48.268702014746218 -8.0504886192927909 #
straight-curve $-1 -74.83260597552416 0 -8.0504886192927909 0 1 0 I I #
point $-1 -74.83260597552416 40.153184453903869 -8.0504886192927909 #
coedge $-1 $730 $620 $621 $682 forward $555 $-1 #
coedge $-1 $620 $730 $731 $732 forward $555 $-1 #
coedge $-1 $646 $629 $620 $680 reversed $631 $-1 #
edge $-1 $733 -40.153184453903869 $734 48.268702014746218 $679 $735 forward 7 unknown #
coedge $-1 $622 $621 $629 $689 reversed $491 $-1 #
edge $-1 $734 -74.83260597552416 $685 74.83260597552416 $621 $736 forward 7 unknown #
coedge $-1 $623 $637 $730 $737 reversed $431 $-1 #
vertex $-1 $640 $738 #
vertex $-1 $737 $739 #
straight-curve $-1 -74.83260597552416 -48.268702014746218 -6.5504886192927909 0 0 -1 I I #
straight-curve $-1 0 -40.153184453903869 -5.0504886192927909 1 0 0 I I #
straight-curve $-1 0 -48.268702014746218 -5.0504886192927909 1 0 0 I I #
edge $-1 $632 -1.5 $734 1.5 $629 $740 forward 7 unknown #
point $-1 74.83260597552416 -48.268702014746218 -5.0504886192927909 #
point $-1 74.83260597552416 -40.153184453903869 -5.0504886192927909 #
coedge $-1 $731 $635 $646 $700 forward $644 $-1 #
coedge $-1 $635 $731 $637 $695 reversed $644 $-1 #
straight-curve $-1 0 40.153184453903869 8.0504886192927909 -1 0 0 I I #
edge $-1 $638 -8.0504886192927909 $741 8.0504886192927909 $693 $742 forward 7 unknown #
point $-1 -74.83260597552416 40.153184453903869 8.0504886192927909 #
straight-curve $-1 -74.83260597552416 -44.210943234325043 -5.0504886192927909 0 -1 0 I I #
point $-1 -74.83260597552416 -40.153184453903869 -5.0504886192927909 #
plane-surface $-1 74.83260597552416 0 0 -1 0 0 0 0 1 forward_v I I I I #
edge $-1 $647 -8.0504886192927909 $733 8.0504886192927909 $646 $743 forward 7 unknown #
point $-1 74.83260597552416 40.153184453903869 8.0504886192927909 #
straight-curve $-1 74.83260597552416 -40.153184453903869 0 0 0 -1 I I #
face $-1 $663 $725 $19 $-1 $744 reversed single #
loop $-1 $-1 $745 $651 #
plane-surface $-1 0 0 -8.0504886192927909 0 0 1 1 0 0 forward_v I I I I #
coedge $-1 $746 $747 $748 $749 forward $652 $-1 #
coedge $-1 $750 $654 $751 $752 reversed $584 $-1 #
coedge $-1 $654 $750 $747 $753 forward $584 $-1 #
coedge $-1 $754 $755 $654 $710 reversed $756 $-1 #
edge $-1 $757 -4.0577587804211745 $758 4.0577587804211745 $709 $759 forward 7 unknown #
coedge $-1 $655 $664 $760 $761 forward $512 $-1 #
coedge $-1 $762 $656 $655 $713 reversed $595 $-1 #
edge $-1 $763 -40.153184453903869 $658 -3.1216265808382886 $712 $668 forward 7 unknown #
straight-curve $-1 -74.83260597552416 3.1216265808382886 48.528343591768071 0 0 1 I I #
point $-1 -74.83260597552416 3.1216265808382886 8.0504886192927909 #
straight-curve $-1 -74.83260597552416 -0.44576719102659013 0.85374481833129534 0 1 0 I I #
coedge $-1 $662 $748 $750 $764 reversed $595 $-1 #
coedge $-1 $751 $665 $662 $719 forward $725 $-1 #
edge $-1 $667 -8.0504886192927909 $765 5.0504886192927909 $662 $766 forward 7 unknown #
face $-1 $767 $768 $19 $-1 $769 reversed single #
plane-surface $-1 -74.83260597552416 0 0 1 0 0 0 0 -1 forward_v I I I I #
coedge $-1 $755 $770 $664 $723 reversed $756 $-1 #
edge $-1 $726 -40.153184453903869 $771 40.153184453903869 $722 $772 forward 7 unknown #
coedge $-1 $665 $751 $755 $773 reversed $725 $-1 #
loop $-1 $-1 $751 $703 #
vertex $-1 $723 $774 #
straight-curve $-1 0 -40.153184453903869 8.0504886192927909 1 0 0 I I #
point $-1 -74.83260597552416 -40.153184453903869 8.0504886192927909 #
point $-1 -74.83260597552416 3.1216265808382886 0.85374481833128779 #
coedge $-1 $678 $677 $683 $737 forward $555 $-1 #
coedge $-1 $693 $692 $678 $732 reversed $644 $-1 #
edge $-1 $741 -74.83260597552416 $733 74.83260597552416 $731 $775 forward 7 unknown #
vertex $-1 $680 $776 #
vertex $-1 $689 $777 #
straight-curve $-1 74.83260597552416 0 -8.0504886192927909 0 -1 0 I I #
straight-curve $-1 0 -48.268702014746218 -8.0504886192927909 -1 0 0 I I #
edge $-1 $685 -48.268702014746218 $741 40.153184453903869 $683 $778 forward 7 unknown #
point $-1 -74.83260597552416 -48.268702014746218 -5.0504886192927909 #
point $-1 -74.83260597552416 -48.268702014746218 -8.0504886192927909 #
straight-curve $-1 74.83260597552416 -48.268702014746218 -6.5504886192927909 0 0 -1 I I #
vertex $-1 $732 $779 #
straight-curve $-1 -74.83260597552416 40.153184453903869 0 0 0 -1 I I #
straight-curve $-1 74.83260597552416 40.153184453903869 0 0 0 -1 I I #
plane-surface $-1 0 -40.153184453903869 0 0 1 0 0 0 1 forward_v I I I I #
coedge $-1 $780 $781 $782 $783 forward $704 $-1 #
coedge $-1 $784 $706 $780 $785 reversed $652 $-1 #
coedge $-1 $706 $784 $708 $753 reversed $652 $-1 #
coedge $-1 $717 $786 $706 $749 reversed $595 $-1 #
edge $-1 $787 -1.5 $788 1.5 $748 $789 forward 7 unknown #
coedge $-1 $708 $707 $717 $764 forward $584 $-1 #
coedge $-1 $724 $718 $707 $752 forward $725 $-1 #
edge $-1 $765 -74.83260597552416 $758 74.83260597552416 $751 $790 forward 7 unknown #
edge $-1 $787 -74.83260597552416 $757 74.83260597552416 $747 $791 forward 7 unknown #
coedge $-1 $782 $709 $784 $792 forward $756 $-1 #
coedge $-1 $709 $722 $724 $773 forward $756 $-1 #
loop $-1 $-1 $755 $767 #
vertex $-1 $710 $793 #
vertex $-1 $710 $794 #
straight-curve $-1 74.83260597552416 -44.210943234325043 -5.0504886192927909 0 1 0 I I #
coedge $-1 $795 $796 $711 $761 reversed $768 $-1 #
edge $-1 $771 -74.83260597552416 $763 74.83260597552416 $760 $797 forward 7 unknown #
coedge $-1 $786 $712 $796 $798 forward $595 $-1 #
vertex $-1 $761 $799 #
edge $-1 $765 -4.0577587804211745 $787 4.0577587804211745 $717 $800 forward 7 unknown #
vertex $-1 $719 $801 #
straight-curve $-1 -74.83260597552416 -40.153184453903869 0 0 0 -1 I I #
face $-1 $-1 $756 $19 $-1 $802 reversed single #
loop $-1 $-1 $795 $720 #
plane-surface $-1 0 40.153184453903869 0 0 -1 0 0 0 -1 forward_v I I I I #
coedge $-1 $722 $782 $795 $803 reversed $756 $-1 #
vertex $-1 $723 $804 #
straight-curve $-1 74.83260597552416 0 8.0504886192927909 0 1 0 I I #
edge $-1 $726 -8.0504886192927909 $758 5.0504886192927909 $755 $805 forward 7 unknown #
point $-1 74.83260597552416 -40.153184453903869 8.0504886192927909 #
straight-curve $-1 0 40.153184453903869 -8.0504886192927909 1 0 0 I I #
point $-1 74.83260597552416 40.153184453903869 -8.0504886192927909 #
point $-1 74.83260597552416 -48.268702014746218 -8.0504886192927909 #
straight-curve $-1 -74.83260597552416 0 -8.0504886192927909 0 1 0 I I #
point $-1 -74.83260597552416 40.153184453903869 -8.0504886192927909 #
coedge $-1 $806 $745 $746 $785 forward $704 $-1 #
coedge $-1 $745 $806 $807 $808 forward $704 $-1 #
coedge $-1 $770 $754 $745 $783 reversed $756 $-1 #
edge $-1 $809 -40.153184453903869 $810 48.268702014746218 $782 $811 forward 7 unknown #
coedge $-1 $747 $746 $754 $792 reversed $652 $-1 #
edge $-1 $810 -74.83260597552416 $788 74.83260597552416 $746 $812 forward 7 unknown #
coedge $-1 $748 $762 $806 $813 reversed $595 $-1 #
vertex $-1 $764 $814 #
vertex $-1 $813 $815 #
straight-curve $-1 -74.83260597552416 -48.268702014746218 -6.5504886192927909 0 0 -1 I I #
straight-curve $-1 0 -40.153184453903869 -5.0504886192927909 1 0 0 I I #
straight-curve $-1 0 -48.268702014746218 -5.0504886192927909 1 0 0 I I #
edge $-1 $757 -1.5 $810 1.5 $754 $816 forward 7 unknown #
point $-1 74.83260597552416 -48.268702014746218 -5.0504886192927909 #
point $-1 74.83260597552416 -40.153184453903869 -5.0504886192927909 #
coedge $-1 $807 $760 $770 $803 forward $768 $-1 #
coedge $-1 $760 $807 $762 $798 reversed $768 $-1 #
straight-curve $-1 0 40.153184453903869 8.0504886192927909 -1 0 0 I I #
edge $-1 $763 -8.0504886192927909 $817 8.0504886192927909 $796 $818 forward 7 unknown #
point $-1 -74.83260597552416 40.153184453903869 8.0504886192927909 #
straight-curve $-1 -74.83260597552416 -44.210943234325043 -5.0504886192927909 0 -1 0 I I #
point $-1 -74.83260597552416 -40.153184453903869 -5.0504886192927909 #
plane-surface $-1 74.83260597552416 0 0 -1 0 0 0 0 1 forward_v I I I I #
edge $-1 $771 -8.0504886192927909 $809 8.0504886192927909 $770 $819 forward 7 unknown #
point $-1 74.83260597552416 40.153184453903869 8.0504886192927909 #
straight-curve $-1 74.83260597552416 -40.153184453903869 0 0 0 -1 I I #
coedge $-1 $781 $780 $786 $813 forward $704 $-1 #
coedge $-1 $796 $795 $781 $808 reversed $768 $-1 #
edge $-1 $817 -74.83260597552416 $809 74.83260597552416 $807 $820 forward 7 unknown #
vertex $-1 $783 $821 #
vertex $-1 $792 $822 #
straight-curve $-1 74.83260597552416 0 -8.0504886192927909 0 -1 0 I I #
straight-curve $-1 0 -48.268702014746218 -8.0504886192927909 -1 0 0 I I #
edge $-1 $788 -48.268702014746218 $817 40.153184453903869 $786 $823 forward 7 unknown #
point $-1 -74.83260597552416 -48.268702014746218 -5.0504886192927909 #
point $-1 -74.83260597552416 -48.268702014746218 -8.0504886192927909 #
straight-curve $-1 74.83260597552416 -48.268702014746218 -6.5504886192927909 0 0 -1 I I #
vertex $-1 $808 $824 #
straight-curve $-1 -74.83260597552416 40.153184453903869 0 0 0 -1 I I #
straight-curve $-1 74.83260597552416 40.153184453903869 0 0 0 -1 I I #
straight-curve $-1 0 40.153184453903869 -8.0504886192927909 1 0 0 I I #
point $-1 74.83260597552416 40.153184453903869 -8.0504886192927909 #
point $-1 74.83260597552416 -48.268702014746218 -8.0504886192927909 #
straight-curve $-1 -74.83260597552416 0 -8.0504886192927909 0 1 0 I I #
point $-1 -74.83260597552416 40.153184453903869 -8.0504886192927909 #
End-of-ACIS-data 