500 0 5 0           
7 Unknown 11 ACIS 5.0 NT 24 Thu Mar 25 22:18:17 1999 
-1 9.9999999999999995e-007 1e-010 
body $-1 $5 $-1 $6 #
body $-1 $7 $-1 $8 #
body $-1 $9 $-1 $10 #
body $-1 $11 $-1 $12 #
body $-1 $13 $-1 $14 #
lump $-1 $-1 $15 $0 #
transform $-1 1 0 0 0 1 0 0 0 1 49.210486159855954 21.476028658019477 10.101932728234328 1 rotate no_reflect no_shear #
lump $-1 $-1 $16 $1 #
transform $-1 1 0 0 0 1 0 0 0 1 49.210486159855954 21.476028658019477 10.101932728234328 1 rotate no_reflect no_shear #
lump $-1 $-1 $17 $2 #
transform $-1 1 0 0 0 1 0 0 0 1 49.210486159855954 21.476028658019477 10.101932728234328 1 rotate no_reflect no_shear #
lump $-1 $-1 $18 $3 #
transform $-1 1 0 0 0 1 0 0 0 1 49.210486159855954 21.476028658019477 10.101932728234328 1 rotate no_reflect no_shear #
lump $-1 $-1 $19 $4 #
transform $-1 1 0 0 0 1 0 0 0 1 49.210486159855954 21.476028658019477 10.101932728234328 1 rotate no_reflect no_shear #
shell $-1 $-1 $-1 $20 $-1 $5 #
shell $-1 $-1 $-1 $21 $-1 $7 #
shell $-1 $-1 $-1 $22 $-1 $9 #
shell $-1 $-1 $-1 $23 $-1 $11 #
shell $-1 $-1 $-1 $24 $-1 $13 #
face $-1 $25 $26 $15 $-1 $27 forward single #
face $-1 $28 $29 $16 $-1 $30 reversed single #
face $-1 $31 $32 $17 $-1 $33 reversed single #
face $-1 $34 $35 $18 $-1 $36 forward single #
face $-1 $37 $38 $19 $-1 $39 forward single #
face $-1 $40 $41 $15 $-1 $42 reversed single #
loop $-1 $-1 $43 $20 #
plane-surface $-1 0 0 10.101932728234328 0 0 1 1 0 0 forward_v I I I I #
face $-1 $44 $45 $16 $-1 $46 reversed single #
loop $-1 $-1 $47 $21 #
plane-surface $-1 -45.093264926876373 -17.552962952682346 0 0 -1 0 0 0 -1 forward_v I I I I #
face $-1 $48 $49 $17 $-1 $50 reversed single #
loop $-1 $-1 $51 $22 #
plane-surface $-1 87.575976036238359 14.9164291039015 135.32610934995205 0 1 0 0.87461971476443456 0 0.48480960649040278 forward_v I I I I #
face $-1 $52 $53 $18 $-1 $54 forward single #
loop $-1 $55 $56 $23 #
cone-surface $-1 46.014119836074833 16.790600405078063 5.3610059552428631 -0.87461971476443456 0 -0.48480960649040278 0.24240480324520139 0 -0.43730985738221728 1 I I 0 1 0.5 forward I I I I #
face $-1 $57 $58 $19 $-1 $59 forward single #
loop $-1 $60 $61 $24 #
cone-surface $-1 46.014119836074833 19.60185735684291 5.3610059552428631 -0.87461971476443456 0 -0.48480960649040278 0.24240480324520139 0 -0.43730985738221728 1 I I 0 1 0.5 forward I I I I #
face $-1 $62 $63 $15 $-1 $64 reversed single #
loop $-1 $-1 $65 $25 #
plane-surface $-1 0 0 -10.101932728234328 0 0 1 1 0 0 forward_v I I I I #
coedge $-1 $66 $67 $68 $69 forward $26 $-1 #
face $-1 $70 $71 $16 $-1 $72 forward single #
loop $-1 $-1 $73 $28 #
plane-surface $-1 -40.976043693896791 -19.514495805350911 0 -1 0 0 0 0 1 forward_v I I I I #
coedge $-1 $74 $75 $76 $77 forward $29 $-1 #
face $-1 $78 $79 $17 $-1 $80 reversed single #
loop $-1 $-1 $81 $31 #
plane-surface $-1 1.4950532991336161 18.196228880960486 87.610676489229689 0.87461971476443456 0 0.48480960649040278 0.48480960649040278 0 -0.87461971476443456 forward_v I I I I #
coedge $-1 $82 $83 $84 $85 reversed $32 $-1 #
face $-1 $-1 $86 $18 $-1 $87 forward single #
loop $-1 $88 $89 $34 #
cone-surface $-1 44.974916694044019 16.790600405078063 4.784966268683494 -0.87461971476443456 0 -0.48480960649040278 0.12120240162260069 0 -0.21865492869110864 1 I I -0.70710678118654746 0.70710678118654746 0.25 forward I I I I #
loop $-1 $-1 $90 $23 #
coedge $-1 $56 $56 $91 $92 reversed $35 $-1 #
face $-1 $-1 $93 $19 $-1 $94 forward single #
loop $-1 $95 $96 $37 #
cone-surface $-1 44.974916694044019 19.60185735684291 4.784966268683494 -0.87461971476443456 0 -0.48480960649040278 0.12120240162260069 0 -0.21865492869110864 1 I I -0.70710678118654746 0.70710678118654746 0.25 forward I I I I #
loop $-1 $-1 $97 $24 #
coedge $-1 $61 $61 $98 $99 reversed $38 $-1 #
face $-1 $100 $101 $15 $-1 $102 reversed single #
loop $-1 $-1 $103 $40 #
plane-surface $-1 0 -21.476028658019477 0 0 1 0 0 0 1 forward_v I I I I #
coedge $-1 $104 $105 $106 $107 forward $41 $-1 #
coedge $-1 $108 $43 $109 $110 forward $26 $-1 #
coedge $-1 $43 $108 $111 $112 forward $26 $-1 #
coedge $-1 $113 $114 $43 $69 reversed $115 $-1 #
edge $-1 $116 -21.476028658019477 $117 21.476028658019477 $68 $118 forward 7 unknown #
face $-1 $119 $120 $16 $-1 $121 reversed single #
loop $-1 $-1 $122 $44 #
plane-surface $-1 0 0 10.101932728234328 0 0 1 1 0 0 forward_v I I I I #
coedge $-1 $123 $124 $125 $126 reversed $45 $-1 #
coedge $-1 $127 $47 $128 $129 reversed $29 $-1 #
coedge $-1 $47 $127 $130 $131 reversed $29 $-1 #
coedge $-1 $124 $123 $47 $77 reversed $45 $-1 #
edge $-1 $132 -10.101932728234328 $133 10.101932728234328 $76 $134 forward 7 unknown #
face $-1 $135 $136 $17 $-1 $137 reversed single #
loop $-1 $-1 $84 $48 #
plane-surface $-1 49.210486159855954 0 0 -1 0 0 0 0 1 forward_v I I I I #
coedge $-1 $138 $139 $140 $141 reversed $49 $-1 #
coedge $-1 $83 $51 $142 $143 reversed $32 $-1 #
coedge $-1 $51 $82 $138 $144 reversed $32 $-1 #
coedge $-1 $140 $145 $51 $85 forward $79 $-1 #
edge $-1 $146 57.561121946741693 $147 66.133300922851049 $84 $148 forward 7 unknown #
loop $-1 $-1 $91 $52 #
plane-surface $-1 1.4950532991336161 18.196228880960486 87.610676489229689 0.87461971476443456 0 0.48480960649040278 0.48480960649040278 0 -0.87461971476443456 forward_v I I I I #
loop $-1 $-1 $149 $34 #
coedge $-1 $89 $89 $90 $150 reversed $53 $-1 #
coedge $-1 $90 $90 $89 $150 forward $55 $-1 #
coedge $-1 $91 $91 $56 $92 forward $86 $-1 #
edge $-1 $151 0 $151 6.2831853071796004 $91 $152 forward 7 unknown #
loop $-1 $-1 $98 $57 #
plane-surface $-1 1.4950532991336161 18.196228880960486 87.610676489229689 0.87461971476443456 0 0.48480960649040278 0.48480960649040278 0 -0.87461971476443456 forward_v I I I I #
loop $-1 $-1 $153 $37 #
coedge $-1 $96 $96 $97 $154 reversed $58 $-1 #
coedge $-1 $97 $97 $96 $154 forward $60 $-1 #
coedge $-1 $98 $98 $61 $99 forward $93 $-1 #
edge $-1 $155 0 $155 6.2831853071796004 $98 $156 forward 7 unknown #
face $-1 $157 $158 $15 $-1 $159 reversed single #
loop $-1 $-1 $160 $62 #
plane-surface $-1 -49.210486159855954 0 0 1 0 0 0 0 -1 forward_v I I I I #
coedge $-1 $161 $111 $162 $163 forward $63 $-1 #
coedge $-1 $164 $65 $161 $165 forward $41 $-1 #
coedge $-1 $65 $164 $166 $167 forward $41 $-1 #
coedge $-1 $114 $113 $65 $107 reversed $115 $-1 #
edge $-1 $168 -21.476028658019477 $169 21.476028658019477 $106 $170 forward 7 unknown #
coedge $-1 $67 $66 $171 $172 forward $26 $-1 #
coedge $-1 $173 $174 $66 $110 reversed $158 $-1 #
edge $-1 $117 -49.210486159855954 $175 49.210486159855954 $109 $176 forward 7 unknown #
coedge $-1 $103 $177 $67 $112 reversed $63 $-1 #
edge $-1 $178 -49.210486159855954 $116 49.210486159855954 $111 $179 forward 7 unknown #
coedge $-1 $106 $68 $177 $180 forward $115 $-1 #
coedge $-1 $68 $106 $173 $181 reversed $115 $-1 #
loop $-1 $-1 $113 $157 #
vertex $-1 $69 $182 #
vertex $-1 $69 $183 #
straight-curve $-1 49.210486159855954 0 10.101932728234328 0 1 0 I I #
face $-1 $184 $185 $16 $-1 $186 reversed single #
loop $-1 $-1 $187 $70 #
plane-surface $-1 -49.210486159855954 0 0 1 0 0 0 0 -1 forward_v I I I I #
coedge $-1 $130 $188 $124 $189 forward $71 $-1 #
coedge $-1 $76 $73 $190 $191 reversed $45 $-1 #
coedge $-1 $73 $76 $122 $189 reversed $45 $-1 #
coedge $-1 $192 $193 $73 $126 forward $194 $-1 #
edge $-1 $195 -10.101932728234328 $196 10.101932728234328 $125 $197 forward 7 unknown #
coedge $-1 $75 $74 $187 $198 reversed $29 $-1 #
coedge $-1 $190 $199 $74 $129 forward $185 $-1 #
edge $-1 $200 -26.663853696417767 $133 -18.429411230458605 $128 $201 forward 7 unknown #
coedge $-1 $202 $122 $75 $131 forward $71 $-1 #
edge $-1 $132 18.429411230458605 $203 26.663853696417767 $130 $204 forward 7 unknown #
vertex $-1 $131 $205 #
vertex $-1 $129 $206 #
straight-curve $-1 -40.976043693896791 -17.552962952682346 0 0 0 -1 I I #
face $-1 $-1 $207 $17 $-1 $208 forward single #
loop $-1 $-1 $209 $78 #
plane-surface $-1 0 21.476028658019477 0 0 -1 0 0 0 -1 forward_v I I I I #
coedge $-1 $210 $81 $83 $144 forward $49 $-1 #
coedge $-1 $81 $210 $209 $211 reversed $49 $-1 #
coedge $-1 $212 $84 $81 $141 forward $79 $-1 #
edge $-1 $147 5.8183146634212566 $213 12.377914217539233 $140 $214 forward 7 unknown #
coedge $-1 $215 $216 $82 $143 forward $207 $-1 #
edge $-1 $217 0.6708619208539659 $146 5.4224981417367744 $142 $218 forward 7 unknown #
edge $-1 $147 -98.420972319711879 $217 -88.619936702285699 $83 $219 forward 7 unknown #
coedge $-1 $84 $212 $215 $220 reversed $79 $-1 #
vertex $-1 $220 $221 #
vertex $-1 $85 $222 #
straight-curve $-1 49.210486159855954 14.9164291039015 67.663054674976024 0 0 -1 I I #
coedge $-1 $149 $149 $-1 $223 reversed $88 $-1 #
edge $-1 $224 0 $224 6.2831853071796004 $89 $225 forward 7 unknown #
vertex $-1 $92 $226 #
ellipse-curve $-1 46.83466804941456 16.790600405078063 5.8158432401796425 0.87461971476443456 0 0.48480960649040278 0.24240480324520139 0 -0.43730985738221728 1 I I #
coedge $-1 $153 $153 $-1 $227 reversed $95 $-1 #
edge $-1 $228 0 $228 6.2831853071796004 $96 $229 forward 7 unknown #
vertex $-1 $99 $230 #
ellipse-curve $-1 46.83466804941456 19.60185735684291 5.8158432401796425 0.87461971476443456 0 0.48480960649040278 0.24240480324520139 0 -0.43730985738221728 1 I I #
face $-1 $-1 $115 $15 $-1 $231 reversed single #
loop $-1 $-1 $173 $100 #
plane-surface $-1 0 21.476028658019477 0 0 -1 0 0 0 -1 forward_v I I I I #
coedge $-1 $232 $171 $174 $233 forward $101 $-1 #
coedge $-1 $177 $103 $104 $165 reversed $63 $-1 #
coedge $-1 $171 $232 $103 $163 reversed $101 $-1 #
edge $-1 $178 -10.101932728234328 $234 10.101932728234328 $162 $235 forward 7 unknown #
coedge $-1 $105 $104 $232 $236 forward $41 $-1 #
edge $-1 $169 -49.210486159855954 $234 49.210486159855954 $161 $237 forward 7 unknown #
coedge $-1 $174 $173 $105 $167 reversed $158 $-1 #
edge $-1 $238 -49.210486159855954 $168 49.210486159855954 $166 $239 forward 7 unknown #
vertex $-1 $107 $240 #
vertex $-1 $180 $241 #
straight-curve $-1 49.210486159855954 0 -10.101932728234328 0 -1 0 I I #
coedge $-1 $160 $162 $108 $172 reversed $101 $-1 #
edge $-1 $175 -21.476028658019477 $178 21.476028658019477 $171 $242 forward 7 unknown #
coedge $-1 $166 $109 $114 $181 forward $158 $-1 #
coedge $-1 $109 $166 $160 $233 reversed $158 $-1 #
vertex $-1 $110 $243 #
straight-curve $-1 0 21.476028658019477 10.101932728234328 -1 0 0 I I #
coedge $-1 $111 $161 $113 $180 reversed $63 $-1 #
vertex $-1 $172 $244 #
straight-curve $-1 0 -21.476028658019477 10.101932728234328 1 0 0 I I #
edge $-1 $116 -10.101932728234328 $169 10.101932728234328 $113 $245 forward 7 unknown #
edge $-1 $117 -10.101932728234328 $168 10.101932728234328 $114 $246 forward 7 unknown #
point $-1 49.210486159855954 -21.476028658019477 10.101932728234328 #
point $-1 49.210486159855954 21.476028658019477 10.101932728234328 #
face $-1 $-1 $194 $16 $-1 $247 reversed single #
loop $-1 $-1 $190 $119 #
plane-surface $-1 0 0 -10.101932728234328 0 0 1 1 0 0 forward_v I I I I #
coedge $-1 $248 $249 $127 $198 forward $120 $-1 #
coedge $-1 $122 $202 $192 $250 forward $71 $-1 #
edge $-1 $196 -11.718780755344021 $132 -7.7957150500068906 $122 $251 forward 7 unknown #
coedge $-1 $252 $128 $123 $191 forward $185 $-1 #
edge $-1 $133 7.7957150500068906 $195 11.718780755344021 $190 $253 forward 7 unknown #
coedge $-1 $254 $125 $188 $250 reversed $194 $-1 #
coedge $-1 $125 $254 $252 $255 reversed $194 $-1 #
loop $-1 $-1 $125 $184 #
vertex $-1 $255 $256 #
vertex $-1 $126 $257 #
straight-curve $-1 -40.976043693896791 -21.476028658019477 0 0 0 1 I I #
edge $-1 $203 -10.101932728234328 $200 10.101932728234328 $187 $258 forward 7 unknown #
coedge $-1 $128 $252 $248 $259 forward $185 $-1 #
vertex $-1 $129 $260 #
straight-curve $-1 -22.546632463438186 -17.552962952682346 -10.101932728234328 1 0 0 I I #
coedge $-1 $188 $130 $249 $261 forward $71 $-1 #
vertex $-1 $261 $262 #
straight-curve $-1 -22.546632463438186 -17.552962952682346 10.101932728234328 -1 0 0 I I #
point $-1 -40.976043693896791 -17.552962952682346 10.101932728234328 #
point $-1 -40.976043693896791 -17.552962952682346 -10.101932728234328 #
loop $-1 $-1 $142 $135 #
plane-surface $-1 0 0 10.101932728234328 0 0 1 1 0 0 forward_v I I I I #
coedge $-1 $263 $264 $139 $211 forward $136 $-1 #
coedge $-1 $139 $138 $216 $265 reversed $49 $-1 #
edge $-1 $213 -60.470367979864854 $266 -50.669332362438659 $209 $267 forward 7 unknown #
coedge $-1 $145 $140 $264 $268 reversed $79 $-1 #
vertex $-1 $211 $269 #
straight-curve $-1 49.210486159855954 9.0981144404802432 1.5297537521249751 0 1 0 I I #
coedge $-1 $270 $142 $145 $220 forward $207 $-1 #
coedge $-1 $142 $270 $210 $265 forward $207 $-1 #
vertex $-1 $143 $271 #
straight-curve $-1 43.787988018119179 14.9164291039015 10.101932728234331 1 0 0 I I #
straight-curve $-1 1.4950532991336161 14.9164291039015 87.610676489229689 -0.48480960649040278 0 0.87461971476443456 I I #
edge $-1 $146 14.9164291039015 $272 21.476028658019477 $145 $273 forward 7 unknown #
point $-1 49.210486159855954 14.9164291039015 10.101932728234328 #
point $-1 49.210486159855954 14.9164291039015 1.5297537521249751 #
edge $-1 $274 1 $274 0 $149 $-1 forward 7 unknown #
vertex $-1 $150 $275 #
ellipse-curve $-1 45.193571622735128 16.790600405078063 4.9061686703060943 0.87461971476443456 0 0.48480960649040278 0.24240480324520139 0 -0.43730985738221728 1 I I #
point $-1 47.07707285265974 16.790600405078063 5.3785333827974142 #
edge $-1 $276 1 $276 0 $153 $-1 forward 7 unknown #
vertex $-1 $154 $277 #
ellipse-curve $-1 45.193571622735128 19.60185735684291 4.9061686703060943 0.87461971476443456 0 0.48480960649040278 0.24240480324520139 0 -0.43730985738221728 1 I I #
point $-1 47.07707285265974 19.60185735684291 5.3785333827974142 #
plane-surface $-1 49.210486159855954 0 0 -1 0 0 0 0 1 forward_v I I I I #
coedge $-1 $162 $160 $164 $236 reversed $101 $-1 #
edge $-1 $175 -10.101932728234328 $238 10.101932728234328 $174 $278 forward 7 unknown #
vertex $-1 $236 $279 #
straight-curve $-1 -49.210486159855954 -21.476028658019477 0 0 0 -1 I I #
edge $-1 $234 -21.476028658019477 $238 21.476028658019477 $232 $280 forward 7 unknown #
straight-curve $-1 0 -21.476028658019477 -10.101932728234328 -1 0 0 I I #
vertex $-1 $167 $281 #
straight-curve $-1 0 21.476028658019477 -10.101932728234328 1 0 0 I I #
point $-1 49.210486159855954 21.476028658019477 -10.101932728234328 #
point $-1 49.210486159855954 -21.476028658019477 -10.101932728234328 #
straight-curve $-1 -49.210486159855954 0 10.101932728234328 0 -1 0 I I #
point $-1 -49.210486159855954 21.476028658019477 10.101932728234328 #
point $-1 -49.210486159855954 -21.476028658019477 10.101932728234328 #
straight-curve $-1 49.210486159855954 -21.476028658019477 0 0 0 -1 I I #
straight-curve $-1 49.210486159855954 21.476028658019477 0 0 0 -1 I I #
plane-surface $-1 0 -21.476028658019477 0 0 1 0 0 0 1 forward_v I I I I #
coedge $-1 $282 $187 $199 $259 reversed $120 $-1 #
coedge $-1 $187 $282 $202 $261 reversed $120 $-1 #
edge $-1 $283 -49.210486159855954 $196 -40.976043693896791 $192 $284 forward 7 unknown #
straight-curve $-1 -40.976043693896791 -9.7572479026754557 10.101932728234328 0 1 0 I I #
coedge $-1 $199 $190 $193 $255 forward $185 $-1 #
straight-curve $-1 -40.976043693896791 -9.7572479026754557 -10.101932728234328 0 -1 0 I I #
coedge $-1 $193 $192 $282 $285 forward $194 $-1 #
edge $-1 $195 40.976043693896791 $286 49.210486159855954 $193 $287 forward 7 unknown #
point $-1 -40.976043693896791 -21.476028658019477 -10.101932728234328 #
point $-1 -40.976043693896791 -21.476028658019477 10.101932728234328 #
straight-curve $-1 -49.210486159855954 -17.552962952682346 0 0 0 -1 I I #
edge $-1 $286 -21.476028658019477 $200 -17.552962952682346 $248 $288 forward 7 unknown #
point $-1 -49.210486159855954 -17.552962952682346 -10.101932728234328 #
edge $-1 $203 17.552962952682346 $283 21.476028658019477 $249 $289 forward 7 unknown #
point $-1 -49.210486159855954 -17.552962952682346 10.101932728234328 #
coedge $-1 $264 $209 $270 $290 reversed $136 $-1 #
coedge $-1 $209 $263 $212 $268 forward $136 $-1 #
edge $-1 $266 -12.37791421753923 $217 -5.8183146634212566 $216 $291 forward 7 unknown #
vertex $-1 $211 $292 #
straight-curve $-1 19.89387085520783 21.476028658019477 54.418329746374766 -0.48480960649040278 0 0.87461971476443456 I I #
edge $-1 $272 -10.101932728234328 $213 -1.5297537521249769 $212 $293 forward 7 unknown #
point $-1 49.210486159855954 21.476028658019477 1.5297537521249769 #
coedge $-1 $216 $215 $263 $290 forward $207 $-1 #
point $-1 44.458849938973145 14.9164291039015 10.101932728234331 #
vertex $-1 $220 $294 #
straight-curve $-1 49.210486159855954 0 10.101932728234328 0 1 0 I I #
vertex $-1 $223 $295 #
point $-1 45.435976425980328 16.790600405078063 4.4688588129238775 #
vertex $-1 $227 $296 #
point $-1 45.435976425980328 19.60185735684291 4.4688588129238775 #
straight-curve $-1 -49.210486159855954 21.476028658019477 0 0 0 -1 I I #
point $-1 -49.210486159855954 -21.476028658019477 -10.101932728234328 #
straight-curve $-1 -49.210486159855954 0 -10.101932728234328 0 1 0 I I #
point $-1 -49.210486159855954 21.476028658019477 -10.101932728234328 #
coedge $-1 $249 $248 $254 $285 reversed $120 $-1 #
vertex $-1 $261 $297 #
straight-curve $-1 0 -21.476028658019477 10.101932728234328 1 0 0 I I #
edge $-1 $283 -10.101932728234328 $286 10.101932728234328 $282 $298 forward 7 unknown #
vertex $-1 $259 $299 #
straight-curve $-1 0 -21.476028658019477 -10.101932728234328 -1 0 0 I I #
straight-curve $-1 -49.210486159855954 0 -10.101932728234328 0 1 0 I I #
straight-curve $-1 -49.210486159855954 0 10.101932728234328 0 -1 0 I I #
edge $-1 $272 -49.210486159855954 $266 -44.458849938973145 $263 $300 forward 7 unknown #
straight-curve $-1 44.458849938973145 9.0981144404802432 10.101932728234331 0 -1 0 I I #
point $-1 44.458849938973145 21.476028658019473 10.101932728234331 #
straight-curve $-1 49.210486159855954 21.476028658019477 0 0 0 -1 I I #
point $-1 49.210486159855954 21.476028658019477 10.101932728234328 #
point $-1 44.75626176535291 16.790600405078063 4.6637638670608936 #
point $-1 44.75626176535291 19.60185735684291 4.6637638670608936 #
point $-1 -49.210486159855954 -21.476028658019477 10.101932728234328 #
straight-curve $-1 -49.210486159855954 -21.476028658019477 0 0 0 -1 I I #
point $-1 -49.210486159855954 -21.476028658019477 -10.101932728234328 #
straight-curve $-1 0 21.476028658019477 10.101932728234328 -1 0 0 I I #
End-of-ACIS-data 