500 0 6 0           
7 Unknown 11 ACIS 5.0 NT 24 Thu Mar 25 23:19:17 1999 
-1 9.9999999999999995e-007 1e-010 
body $-1 $6 $-1 $7 #
body $-1 $8 $-1 $9 #
body $-1 $10 $-1 $11 #
body $-1 $12 $-1 $13 #
body $-1 $14 $-1 $15 #
body $-1 $16 $-1 $17 #
lump $-1 $-1 $18 $0 #
transform $-1 1 0 0 0 1 0 0 0 1 78.997772148808252 33.227185751887269 13.748816653901436 1 rotate no_reflect no_shear #
lump $-1 $-1 $19 $1 #
transform $-1 1 0 0 0 1 0 0 0 1 78.997772148808252 33.227185751887269 13.748816653901436 1 rotate no_reflect no_shear #
lump $-1 $-1 $20 $2 #
transform $-1 1 0 0 0 1 0 0 0 1 78.997772148808252 33.227185751887269 13.748816653901436 1 rotate no_reflect no_shear #
lump $-1 $-1 $21 $3 #
transform $-1 1 0 0 0 1 0 0 0 1 78.997772148808252 33.227185751887269 13.748816653901436 1 rotate no_reflect no_shear #
lump $-1 $-1 $22 $4 #
transform $-1 1 0 0 0 1 0 0 0 1 78.997772148808252 33.227185751887269 13.748816653901436 1 rotate no_reflect no_shear #
lump $-1 $-1 $23 $5 #
transform $-1 1 0 0 0 1 0 0 0 1 78.997772148808252 33.227185751887269 13.748816653901436 1 rotate no_reflect no_shear #
shell $-1 $-1 $-1 $24 $-1 $6 #
shell $-1 $-1 $-1 $25 $-1 $8 #
shell $-1 $-1 $-1 $26 $-1 $10 #
shell $-1 $-1 $-1 $27 $-1 $12 #
shell $-1 $-1 $-1 $28 $-1 $14 #
shell $-1 $-1 $-1 $29 $-1 $16 #
face $-1 $30 $31 $18 $-1 $32 forward single #
face $-1 $33 $34 $19 $-1 $35 reversed single #
face $-1 $36 $37 $20 $-1 $38 reversed single #
face $-1 $39 $40 $21 $-1 $41 reversed single #
face $-1 $42 $43 $22 $-1 $44 forward single #
face $-1 $45 $46 $23 $-1 $47 forward single #
face $-1 $48 $49 $18 $-1 $50 reversed single #
loop $-1 $-1 $51 $24 #
plane-surface $-1 0 0 13.748816653901436 0 0 1 1 0 0 forward_v I I I I #
face $-1 $52 $53 $19 $-1 $54 reversed single #
loop $-1 $-1 $55 $25 #
plane-surface $-1 0 -27.535963653561005 8.1139291642959179 0 0 1 1 0 0 forward_v I I I I #
face $-1 $56 $57 $20 $-1 $58 reversed single #
loop $-1 $-1 $59 $26 #
plane-surface $-1 0 27.535963653561005 8.1139291642959179 0 0 1 1 0 0 forward_v I I I I #
face $-1 $60 $61 $21 $-1 $62 reversed single #
loop $-1 $-1 $63 $27 #
plane-surface $-1 -206.81885381409907 10.095413100151962 101.8829136726967 0 1 0 -0.80901700255871778 0 0.5877852410284794 forward_v I I I I #
face $-1 $64 $65 $22 $-1 $66 forward single #
loop $-1 $67 $68 $28 #
cone-surface $-1 -75.837052445761742 13.452364087318472 10.335026515220349 0.80901700255871778 0 -0.5877852410284794 0.5877852410284794 0 0.80901700255871778 1 I I 0 1 1 forward I I I I #
face $-1 $69 $70 $23 $-1 $71 forward single #
loop $-1 $72 $73 $29 #
cone-surface $-1 -75.837052445761742 18.487790568068235 10.335026515220349 0.80901700255871778 0 -0.5877852410284794 0.5877852410284794 0 0.80901700255871778 1 I I 0 1 1 forward I I I I #
face $-1 $74 $75 $18 $-1 $76 reversed single #
loop $-1 $-1 $77 $30 #
plane-surface $-1 0 0 -13.748816653901436 0 0 1 1 0 0 forward_v I I I I #
coedge $-1 $78 $79 $80 $81 forward $31 $-1 #
face $-1 $82 $83 $19 $-1 $84 reversed single #
loop $-1 $-1 $85 $33 #
plane-surface $-1 0 -21.844741555234741 10.931372909098677 0 -1 0 0 0 -1 forward_v I I I I #
coedge $-1 $86 $87 $88 $89 reversed $34 $-1 #
face $-1 $90 $91 $20 $-1 $92 forward single #
loop $-1 $-1 $93 $36 #
plane-surface $-1 0 21.844741555234741 10.931372909098677 0 1 0 0 0 1 forward_v I I I I #
coedge $-1 $94 $95 $96 $97 reversed $37 $-1 #
face $-1 $98 $99 $21 $-1 $100 forward single #
loop $-1 $-1 $101 $39 #
plane-surface $-1 -78.997772148808252 15.970077327693353 9.0154645862963889 -0.80901700255871778 0 0.5877852410284794 0.5877852410284794 0 0.80901700255871778 forward_v I I I I #
coedge $-1 $102 $103 $104 $105 reversed $40 $-1 #
face $-1 $-1 $106 $22 $-1 $107 forward single #
loop $-1 $108 $109 $42 #
cone-surface $-1 -73.991314979659236 13.452364087318472 8.9940197898275613 0.80901700255871778 0 -0.5877852410284794 0.2938926205142397 0 0.40450850127935889 1 I I -0.70710678118654746 0.70710678118654746 0.5 forward I I I I #
loop $-1 $-1 $110 $28 #
coedge $-1 $68 $68 $111 $112 reversed $43 $-1 #
face $-1 $-1 $113 $23 $-1 $114 forward single #
loop $-1 $115 $116 $45 #
cone-surface $-1 -73.991314979659236 18.487790568068235 8.9940197898275613 0.80901700255871778 0 -0.5877852410284794 0.2938926205142397 0 0.40450850127935889 1 I I -0.70710678118654746 0.70710678118654746 0.5 forward I I I I #
loop $-1 $-1 $117 $29 #
coedge $-1 $73 $73 $118 $119 reversed $46 $-1 #
face $-1 $120 $121 $18 $-1 $122 reversed single #
loop $-1 $-1 $123 $48 #
plane-surface $-1 0 -33.227185751887269 0 0 1 0 0 0 1 forward_v I I I I #
coedge $-1 $124 $125 $126 $127 forward $49 $-1 #
coedge $-1 $128 $51 $129 $130 forward $31 $-1 #
coedge $-1 $51 $128 $131 $132 forward $31 $-1 #
coedge $-1 $133 $134 $51 $81 reversed $135 $-1 #
edge $-1 $136 -33.227185751887269 $137 33.227185751887269 $80 $138 forward 7 unknown #
face $-1 $139 $140 $19 $-1 $141 reversed single #
loop $-1 $-1 $142 $52 #
plane-surface $-1 -78.997772148808252 0 0 1 0 0 0 0 -1 forward_v I I I I #
coedge $-1 $143 $144 $145 $146 reversed $53 $-1 #
coedge $-1 $147 $55 $148 $149 reversed $34 $-1 #
coedge $-1 $55 $147 $143 $150 forward $34 $-1 #
coedge $-1 $145 $151 $55 $89 forward $152 $-1 #
edge $-1 $153 -19.459203925106767 $154 -8.0767597284542383 $88 $155 forward 7 unknown #
face $-1 $156 $157 $20 $-1 $158 reversed single #
loop $-1 $-1 $159 $56 #
plane-surface $-1 0 0 13.748816653901436 0 0 1 1 0 0 forward_v I I I I #
coedge $-1 $160 $161 $162 $163 reversed $57 $-1 #
coedge $-1 $164 $59 $160 $165 forward $37 $-1 #
coedge $-1 $59 $164 $166 $167 reversed $37 $-1 #
coedge $-1 $168 $169 $59 $97 forward $157 $-1 #
edge $-1 $170 8.0767597284542383 $171 19.459203925106767 $96 $172 forward 7 unknown #
face $-1 $173 $174 $21 $-1 $175 forward single #
loop $-1 $-1 $104 $60 #
plane-surface $-1 0 0 13.748816653901436 0 0 1 1 0 0 forward_v I I I I #
coedge $-1 $176 $177 $178 $179 reversed $61 $-1 #
coedge $-1 $103 $63 $180 $181 reversed $40 $-1 #
coedge $-1 $63 $102 $176 $182 reversed $40 $-1 #
coedge $-1 $178 $183 $63 $105 forward $99 $-1 #
edge $-1 $184 24.411654758241284 $185 27.850636234688011 $104 $186 forward 7 unknown #
loop $-1 $-1 $111 $64 #
plane-surface $-1 -78.997772148808252 15.970077327693353 9.0154645862963889 -0.80901700255871778 0 0.5877852410284794 0.5877852410284794 0 0.80901700255871778 forward_v I I I I #
loop $-1 $-1 $187 $42 #
coedge $-1 $109 $109 $110 $188 reversed $65 $-1 #
coedge $-1 $110 $110 $109 $188 forward $67 $-1 #
coedge $-1 $111 $111 $68 $112 forward $106 $-1 #
edge $-1 $189 0 $189 6.2831853071796004 $111 $190 forward 7 unknown #
loop $-1 $-1 $118 $69 #
plane-surface $-1 -78.997772148808252 15.970077327693353 9.0154645862963889 -0.80901700255871778 0 0.5877852410284794 0.5877852410284794 0 0.80901700255871778 forward_v I I I I #
loop $-1 $-1 $191 $45 #
coedge $-1 $116 $116 $117 $192 reversed $70 $-1 #
coedge $-1 $117 $117 $116 $192 forward $72 $-1 #
coedge $-1 $118 $118 $73 $119 forward $113 $-1 #
edge $-1 $193 0 $193 6.2831853071796004 $118 $194 forward 7 unknown #
face $-1 $195 $196 $18 $-1 $197 reversed single #
loop $-1 $-1 $198 $74 #
plane-surface $-1 -78.997772148808252 0 0 1 0 0 0 0 -1 forward_v I I I I #
coedge $-1 $199 $131 $200 $201 forward $75 $-1 #
coedge $-1 $202 $77 $199 $203 forward $49 $-1 #
coedge $-1 $77 $202 $204 $205 forward $49 $-1 #
coedge $-1 $134 $133 $77 $127 reversed $135 $-1 #
edge $-1 $206 -33.227185751887269 $207 33.227185751887269 $126 $208 forward 7 unknown #
coedge $-1 $79 $78 $209 $210 forward $31 $-1 #
coedge $-1 $211 $212 $78 $130 reversed $196 $-1 #
edge $-1 $137 -78.997772148808252 $213 78.997772148808252 $129 $214 forward 7 unknown #
coedge $-1 $123 $215 $79 $132 reversed $75 $-1 #
edge $-1 $216 -78.997772148808252 $136 78.997772148808252 $131 $217 forward 7 unknown #
coedge $-1 $126 $80 $215 $218 forward $135 $-1 #
coedge $-1 $80 $126 $211 $219 reversed $135 $-1 #
loop $-1 $-1 $133 $195 #
vertex $-1 $81 $220 #
vertex $-1 $81 $221 #
straight-curve $-1 78.997772148808252 0 13.748816653901436 0 1 0 I I #
face $-1 $222 $223 $19 $-1 $224 forward single #
loop $-1 $-1 $148 $82 #
plane-surface $-1 0 -33.227185751887269 0 0 1 0 0 0 1 forward_v I I I I #
coedge $-1 $225 $226 $227 $228 forward $83 $-1 #
coedge $-1 $227 $85 $87 $150 reversed $53 $-1 #
coedge $-1 $85 $227 $229 $230 reversed $53 $-1 #
coedge $-1 $231 $88 $85 $146 forward $152 $-1 #
edge $-1 $154 2.6482427097465795 $232 8.2831301993520974 $145 $233 forward 7 unknown #
coedge $-1 $87 $86 $225 $234 reversed $34 $-1 #
coedge $-1 $235 $236 $86 $149 forward $140 $-1 #
edge $-1 $237 -78.997772148808252 $153 78.997772148808252 $148 $238 forward 7 unknown #
edge $-1 $239 -78.997772148808252 $154 78.997772148808252 $143 $240 forward 7 unknown #
coedge $-1 $88 $231 $235 $241 forward $152 $-1 #
loop $-1 $-1 $145 $222 #
vertex $-1 $149 $242 #
vertex $-1 $89 $243 #
straight-curve $-1 78.997772148808252 -13.767981826780503 8.1139291642959179 0 1 0 I I #
face $-1 $244 $245 $20 $-1 $246 reversed single #
loop $-1 $-1 $169 $90 #
plane-surface $-1 78.997772148808252 0 0 -1 0 0 0 0 1 forward_v I I I I #
coedge $-1 $247 $248 $161 $249 forward $91 $-1 #
coedge $-1 $250 $93 $94 $165 reversed $57 $-1 #
coedge $-1 $93 $250 $159 $249 reversed $57 $-1 #
coedge $-1 $251 $252 $93 $163 forward $245 $-1 #
edge $-1 $253 2.6482427097465795 $254 8.2831301993520974 $162 $255 forward 7 unknown #
coedge $-1 $95 $94 $252 $256 reversed $37 $-1 #
edge $-1 $170 -78.997772148808252 $253 78.997772148808252 $160 $257 forward 7 unknown #
coedge $-1 $258 $259 $95 $167 forward $260 $-1 #
edge $-1 $171 -78.997772148808252 $261 78.997772148808252 $166 $262 forward 7 unknown #
coedge $-1 $263 $96 $259 $264 reversed $157 $-1 #
coedge $-1 $96 $263 $250 $265 forward $157 $-1 #
vertex $-1 $97 $266 #
vertex $-1 $167 $267 #
straight-curve $-1 78.997772148808252 13.767981826780503 8.1139291642959179 0 1 0 I I #
face $-1 $-1 $268 $21 $-1 $269 reversed single #
loop $-1 $-1 $270 $98 #
plane-surface $-1 0 21.844741555234741 10.931372909098677 0 1 0 0 0 1 forward_v I I I I #
coedge $-1 $271 $101 $103 $182 forward $61 $-1 #
coedge $-1 $101 $271 $270 $272 reversed $61 $-1 #
coedge $-1 $273 $104 $101 $179 forward $99 $-1 #
edge $-1 $185 2.1103744363052854 $274 13.859702891388064 $178 $275 forward 7 unknown #
coedge $-1 $276 $277 $102 $181 forward $268 $-1 #
edge $-1 $278 -41.925992250051962 $184 -37.192640182446915 $180 $279 forward 7 unknown #
edge $-1 $185 -5.8507448578146599 $278 0 $103 $280 forward 7 unknown #
coedge $-1 $104 $273 $276 $281 forward $99 $-1 #
vertex $-1 $181 $282 #
vertex $-1 $105 $283 #
straight-curve $-1 -103.40942690704954 10.095413100151962 13.748816653901436 1 0 0 I I #
coedge $-1 $187 $187 $-1 $284 reversed $108 $-1 #
edge $-1 $285 0 $285 6.2831853071796004 $109 $286 forward 7 unknown #
vertex $-1 $112 $287 #
ellipse-curve $-1 -77.278281410584896 13.452364087318472 11.382140620098903 -0.80901700255871778 0 0.5877852410284794 0.5877852410284794 0 0.80901700255871778 1 I I #
coedge $-1 $191 $191 $-1 $288 reversed $115 $-1 #
edge $-1 $289 0 $289 6.2831853071796004 $116 $290 forward 7 unknown #
vertex $-1 $119 $291 #
ellipse-curve $-1 -77.278281410584896 18.487790568068235 11.382140620098903 -0.80901700255871778 0 0.5877852410284794 0.5877852410284794 0 0.80901700255871778 1 I I #
face $-1 $-1 $135 $18 $-1 $292 reversed single #
loop $-1 $-1 $211 $120 #
plane-surface $-1 0 33.227185751887269 0 0 -1 0 0 0 -1 forward_v I I I I #
coedge $-1 $293 $209 $212 $294 forward $121 $-1 #
coedge $-1 $215 $123 $124 $203 reversed $75 $-1 #
coedge $-1 $209 $293 $123 $201 reversed $121 $-1 #
edge $-1 $216 -13.748816653901436 $295 13.748816653901436 $200 $296 forward 7 unknown #
coedge $-1 $125 $124 $293 $297 forward $49 $-1 #
edge $-1 $207 -78.997772148808252 $295 78.997772148808252 $199 $298 forward 7 unknown #
coedge $-1 $212 $211 $125 $205 reversed $196 $-1 #
edge $-1 $299 -78.997772148808252 $206 78.997772148808252 $204 $300 forward 7 unknown #
vertex $-1 $127 $301 #
vertex $-1 $218 $302 #
straight-curve $-1 78.997772148808252 0 -13.748816653901436 0 -1 0 I I #
coedge $-1 $198 $200 $128 $210 reversed $121 $-1 #
edge $-1 $213 -33.227185751887269 $216 33.227185751887269 $209 $303 forward 7 unknown #
coedge $-1 $204 $129 $134 $219 forward $196 $-1 #
coedge $-1 $129 $204 $198 $294 reversed $196 $-1 #
vertex $-1 $130 $304 #
straight-curve $-1 0 33.227185751887269 13.748816653901436 -1 0 0 I I #
coedge $-1 $131 $199 $133 $218 reversed $75 $-1 #
vertex $-1 $210 $305 #
straight-curve $-1 0 -33.227185751887269 13.748816653901436 1 0 0 I I #
edge $-1 $136 -13.748816653901436 $207 13.748816653901436 $133 $306 forward 7 unknown #
edge $-1 $137 -13.748816653901436 $206 13.748816653901436 $134 $307 forward 7 unknown #
point $-1 78.997772148808252 -33.227185751887269 13.748816653901436 #
point $-1 78.997772148808252 33.227185751887269 13.748816653901436 #
face $-1 $-1 $152 $19 $-1 $308 reversed single #
loop $-1 $-1 $229 $139 #
plane-surface $-1 0 0 13.748816653901436 0 0 1 1 0 0 forward_v I I I I #
coedge $-1 $309 $142 $147 $234 forward $83 $-1 #
coedge $-1 $142 $309 $310 $311 reversed $83 $-1 #
coedge $-1 $144 $143 $142 $228 reversed $53 $-1 #
edge $-1 $312 -8.2831301993520974 $239 -2.6482427097465795 $142 $313 forward 7 unknown #
coedge $-1 $310 $314 $144 $230 forward $223 $-1 #
edge $-1 $232 -78.997772148808252 $312 78.997772148808252 $229 $315 forward 7 unknown #
coedge $-1 $151 $145 $314 $316 reversed $152 $-1 #
vertex $-1 $146 $317 #
straight-curve $-1 78.997772148808252 -21.844741555234741 5.4656864545493384 0 0 1 I I #
edge $-1 $239 8.0767597284542383 $237 19.459203925106767 $225 $318 forward 7 unknown #
coedge $-1 $319 $148 $151 $241 reversed $140 $-1 #
coedge $-1 $148 $319 $309 $320 forward $140 $-1 #
vertex $-1 $149 $321 #
straight-curve $-1 0 -33.227185751887269 8.1139291642959179 1 0 0 I I #
vertex $-1 $234 $322 #
straight-curve $-1 0 -21.844741555234741 8.1139291642959179 1 0 0 I I #
edge $-1 $323 -13.748816653901436 $153 -8.1139291642959179 $151 $324 forward 7 unknown #
point $-1 78.997772148808252 -33.227185751887269 8.1139291642959179 #
point $-1 78.997772148808252 -21.844741555234741 8.1139291642959179 #
face $-1 $-1 $260 $20 $-1 $325 reversed single #
loop $-1 $-1 $162 $156 #
plane-surface $-1 -78.997772148808252 0 0 1 0 0 0 0 -1 forward_v I I I I #
coedge $-1 $326 $159 $263 $327 forward $91 $-1 #
coedge $-1 $159 $326 $251 $328 forward $91 $-1 #
edge $-1 $254 -78.997772148808252 $329 78.997772148808252 $159 $330 forward 7 unknown #
coedge $-1 $161 $160 $169 $265 reversed $57 $-1 #
coedge $-1 $331 $162 $248 $328 reversed $245 $-1 #
coedge $-1 $162 $331 $164 $256 forward $245 $-1 #
vertex $-1 $256 $332 #
vertex $-1 $163 $333 #
straight-curve $-1 -78.997772148808252 21.844741555234741 5.4656864545493384 0 0 1 I I #
edge $-1 $261 -19.459203925106767 $253 -8.0767597284542383 $252 $334 forward 7 unknown #
straight-curve $-1 0 21.844741555234741 8.1139291642959179 -1 0 0 I I #
coedge $-1 $335 $166 $331 $336 reversed $260 $-1 #
coedge $-1 $166 $335 $168 $264 forward $260 $-1 #
loop $-1 $-1 $166 $244 #
vertex $-1 $167 $337 #
straight-curve $-1 0 33.227185751887269 8.1139291642959179 -1 0 0 I I #
coedge $-1 $169 $168 $247 $327 reversed $157 $-1 #
edge $-1 $338 -13.748816653901436 $171 -8.1139291642959179 $168 $339 forward 7 unknown #
edge $-1 $329 -8.2831301993520974 $170 -2.6482427097465795 $169 $340 forward 7 unknown #
point $-1 78.997772148808252 21.844741555234741 8.1139291642959179 #
point $-1 78.997772148808252 33.227185751887269 8.1139291642959179 #
loop $-1 $-1 $180 $173 #
plane-surface $-1 -78.997772148808252 0 0 1 0 0 0 0 -1 forward_v I I I I #
coedge $-1 $341 $342 $177 $272 forward $174 $-1 #
coedge $-1 $177 $176 $277 $343 reversed $61 $-1 #
edge $-1 $274 18.141118618030823 $344 23.991863475845481 $270 $345 forward 7 unknown #
coedge $-1 $183 $178 $342 $346 forward $99 $-1 #
vertex $-1 $346 $347 #
straight-curve $-1 -75.558790672361525 7.9850386638466766 13.748816653901438 0 1 0 I I #
coedge $-1 $348 $180 $183 $281 reversed $268 $-1 #
coedge $-1 $180 $348 $271 $343 forward $268 $-1 #
vertex $-1 $181 $349 #
straight-curve $-1 -78.997772148808252 10.095413100151962 50.941456836348351 0 0 1 I I #
straight-curve $-1 -78.997772148808252 10.095413100151962 9.0154645862963889 -0.5877852410284794 0 -0.80901700255871778 I I #
edge $-1 $350 -21.844741555234741 $184 -10.095413100151962 $276 $351 forward 7 unknown #
point $-1 -78.997772148808252 10.095413100151962 13.748816653901436 #
point $-1 -75.558790672361525 10.095413100151962 13.748816653901436 #
edge $-1 $352 1 $352 0 $187 $-1 forward 7 unknown #
vertex $-1 $188 $353 #
ellipse-curve $-1 -74.395823480938589 13.452364087318472 9.2879124103418018 -0.80901700255871778 0 0.5877852410284794 0.5877852410284794 0 0.80901700255871778 1 I I #
point $-1 -76.690496169556411 13.452364087318472 12.191157622657617 #
edge $-1 $354 1 $354 0 $191 $-1 forward 7 unknown #
vertex $-1 $192 $355 #
ellipse-curve $-1 -74.395823480938589 18.487790568068235 9.2879124103418018 -0.80901700255871778 0 0.5877852410284794 0.5877852410284794 0 0.80901700255871778 1 I I #
point $-1 -76.690496169556411 18.487790568068235 12.191157622657617 #
plane-surface $-1 78.997772148808252 0 0 -1 0 0 0 0 1 forward_v I I I I #
coedge $-1 $200 $198 $202 $297 reversed $121 $-1 #
edge $-1 $213 -13.748816653901436 $299 13.748816653901436 $212 $356 forward 7 unknown #
vertex $-1 $297 $357 #
straight-curve $-1 -78.997772148808252 -33.227185751887269 0 0 0 -1 I I #
edge $-1 $295 -33.227185751887269 $299 33.227185751887269 $293 $358 forward 7 unknown #
straight-curve $-1 0 -33.227185751887269 -13.748816653901436 -1 0 0 I I #
vertex $-1 $205 $359 #
straight-curve $-1 0 33.227185751887269 -13.748816653901436 1 0 0 I I #
point $-1 78.997772148808252 33.227185751887269 -13.748816653901436 #
point $-1 78.997772148808252 -33.227185751887269 -13.748816653901436 #
straight-curve $-1 -78.997772148808252 0 13.748816653901436 0 -1 0 I I #
point $-1 -78.997772148808252 33.227185751887269 13.748816653901436 #
point $-1 -78.997772148808252 -33.227185751887269 13.748816653901436 #
straight-curve $-1 78.997772148808252 -33.227185751887269 0 0 0 -1 I I #
straight-curve $-1 78.997772148808252 33.227185751887269 0 0 0 -1 I I #
plane-surface $-1 78.997772148808252 0 0 -1 0 0 0 0 1 forward_v I I I I #
coedge $-1 $226 $225 $236 $320 reversed $83 $-1 #
coedge $-1 $360 $229 $226 $311 forward $223 $-1 #
edge $-1 $312 21.844741555234741 $361 33.227185751887269 $226 $362 forward 7 unknown #
vertex $-1 $311 $363 #
straight-curve $-1 -78.997772148808252 -21.844741555234741 5.4656864545493384 0 0 -1 I I #
coedge $-1 $229 $360 $231 $316 forward $223 $-1 #
straight-curve $-1 0 -21.844741555234741 13.748816653901436 -1 0 0 I I #
edge $-1 $323 -33.227185751887269 $232 -21.844741555234741 $231 $364 forward 7 unknown #
point $-1 78.997772148808252 -21.844741555234741 13.748816653901436 #
straight-curve $-1 -78.997772148808252 -13.767981826780503 8.1139291642959179 0 -1 0 I I #
coedge $-1 $236 $235 $360 $365 reversed $140 $-1 #
edge $-1 $361 -13.748816653901436 $237 -8.1139291642959179 $309 $366 forward 7 unknown #
point $-1 -78.997772148808252 -33.227185751887269 8.1139291642959179 #
point $-1 -78.997772148808252 -21.844741555234741 8.1139291642959179 #
vertex $-1 $316 $367 #
straight-curve $-1 78.997772148808252 -33.227185751887269 0 0 0 -1 I I #
plane-surface $-1 0 33.227185751887269 0 0 -1 0 0 0 -1 forward_v I I I I #
coedge $-1 $248 $247 $335 $368 forward $91 $-1 #
edge $-1 $329 21.844741555234741 $338 33.227185751887269 $263 $369 forward 7 unknown #
edge $-1 $370 -33.227185751887269 $254 -21.844741555234741 $251 $371 forward 7 unknown #
vertex $-1 $327 $372 #
straight-curve $-1 0 21.844741555234741 13.748816653901436 1 0 0 I I #
coedge $-1 $252 $251 $258 $336 forward $245 $-1 #
point $-1 -78.997772148808252 21.844741555234741 8.1139291642959179 #
point $-1 -78.997772148808252 21.844741555234741 13.748816653901436 #
straight-curve $-1 -78.997772148808252 13.767981826780503 8.1139291642959179 0 -1 0 I I #
coedge $-1 $259 $258 $326 $368 reversed $260 $-1 #
edge $-1 $370 -13.748816653901436 $261 -8.1139291642959179 $258 $373 forward 7 unknown #
point $-1 -78.997772148808252 33.227185751887269 8.1139291642959179 #
vertex $-1 $327 $374 #
straight-curve $-1 78.997772148808252 33.227185751887269 0 0 0 -1 I I #
straight-curve $-1 78.997772148808252 21.844741555234741 5.4656864545493384 0 0 -1 I I #
coedge $-1 $342 $270 $348 $375 reversed $174 $-1 #
coedge $-1 $270 $341 $273 $346 reversed $174 $-1 #
edge $-1 $344 -13.859702891388064 $278 -2.1103744363052854 $277 $376 forward 7 unknown #
vertex $-1 $272 $377 #
straight-curve $-1 -64.895708892936042 21.844741555234741 28.42529006132288 -0.5877852410284794 0 -0.80901700255871778 I I #
edge $-1 $274 75.558790672361525 $350 78.997772148808252 $273 $378 forward 7 unknown #
point $-1 -75.558790672361525 21.844741555234741 13.748816653901436 #
coedge $-1 $277 $276 $341 $375 forward $268 $-1 #
point $-1 -78.997772148808252 10.095413100151962 9.0154645862963889 #
vertex $-1 $281 $379 #
straight-curve $-1 -78.997772148808252 0 13.748816653901436 0 -1 0 I I #
vertex $-1 $284 $380 #
point $-1 -73.808038239910118 13.452364087318472 10.096929412900518 #
vertex $-1 $288 $381 #
point $-1 -73.808038239910118 18.487790568068235 10.096929412900518 #
straight-curve $-1 -78.997772148808252 33.227185751887269 0 0 0 -1 I I #
point $-1 -78.997772148808252 -33.227185751887269 -13.748816653901436 #
straight-curve $-1 -78.997772148808252 0 -13.748816653901436 0 1 0 I I #
point $-1 -78.997772148808252 33.227185751887269 -13.748816653901436 #
coedge $-1 $314 $310 $319 $365 forward $223 $-1 #
vertex $-1 $311 $382 #
straight-curve $-1 -78.997772148808252 0 13.748816653901436 0 -1 0 I I #
point $-1 -78.997772148808252 -21.844741555234741 13.748816653901436 #
straight-curve $-1 78.997772148808252 0 13.748816653901436 0 1 0 I I #
edge $-1 $361 -78.997772148808252 $323 78.997772148808252 $319 $383 forward 7 unknown #
straight-curve $-1 -78.997772148808252 -33.227185751887269 0 0 0 -1 I I #
point $-1 78.997772148808252 -33.227185751887269 13.748816653901436 #
edge $-1 $338 -78.997772148808252 $370 78.997772148808252 $335 $384 forward 7 unknown #
straight-curve $-1 78.997772148808252 0 13.748816653901436 0 1 0 I I #
vertex $-1 $368 $385 #
straight-curve $-1 -78.997772148808252 0 13.748816653901436 0 -1 0 I I #
point $-1 78.997772148808252 21.844741555234741 13.748816653901436 #
straight-curve $-1 -78.997772148808252 33.227185751887269 0 0 0 -1 I I #
point $-1 78.997772148808252 33.227185751887269 13.748816653901436 #
edge $-1 $350 -8.2831301993520974 $344 -3.5497781317470505 $348 $386 forward 7 unknown #
straight-curve $-1 -78.997772148808252 7.9850386638466766 9.015464586296396 0 -1 0 I I #
point $-1 -78.997772148808252 21.844741555234741 9.0154645862963889 #
straight-curve $-1 0 21.844741555234741 13.748816653901436 -1 0 0 I I #
point $-1 -78.997772148808252 21.844741555234741 13.748816653901436 #
point $-1 -73.586806478379884 13.452364087318472 8.7001271693133209 #
point $-1 -73.586806478379884 18.487790568068235 8.7001271693133209 #
point $-1 -78.997772148808252 -33.227185751887269 13.748816653901436 #
straight-curve $-1 0 -33.227185751887269 13.748816653901436 1 0 0 I I #
straight-curve $-1 0 33.227185751887269 13.748816653901436 -1 0 0 I I #
point $-1 -78.997772148808252 33.227185751887269 13.748816653901436 #
straight-curve $-1 -78.997772148808252 21.844741555234741 5.4656864545493384 0 0 -1 I I #
End-of-ACIS-data 