500 0 5 0           
7 Unknown 11 ACIS 5.0 NT 24 Fri Mar 26 19:16:52 1999 
-1 9.9999999999999995e-007 1e-010 
body $-1 $5 $-1 $6 #
body $-1 $7 $-1 $8 #
body $-1 $9 $-1 $10 #
body $-1 $11 $-1 $12 #
body $-1 $13 $-1 $14 #
lump $-1 $-1 $15 $0 #
transform $-1 1 0 0 0 1 0 0 0 1 50.478835413678397 28.35515746403896 12.172632770276513 1 rotate no_reflect no_shear #
lump $-1 $-1 $16 $1 #
transform $-1 1 0 0 0 1 0 0 0 1 50.478835413678397 28.35515746403896 12.172632770276513 1 rotate no_reflect no_shear #
lump $-1 $-1 $17 $2 #
transform $-1 1 0 0 0 1 0 0 0 1 50.478835413678397 28.35515746403896 12.172632770276513 1 rotate no_reflect no_shear #
lump $-1 $-1 $18 $3 #
transform $-1 1 0 0 0 1 0 0 0 1 50.478835413678397 28.35515746403896 12.172632770276513 1 rotate no_reflect no_shear #
lump $-1 $-1 $19 $4 #
transform $-1 1 0 0 0 1 0 0 0 1 50.478835413678397 28.35515746403896 12.172632770276513 1 rotate no_reflect no_shear #
shell $-1 $-1 $-1 $20 $-1 $5 #
shell $-1 $-1 $-1 $21 $-1 $7 #
shell $-1 $-1 $-1 $22 $-1 $9 #
shell $-1 $-1 $-1 $23 $-1 $11 #
shell $-1 $-1 $-1 $24 $-1 $13 #
face $-1 $25 $26 $15 $-1 $27 forward single #
face $-1 $28 $29 $16 $-1 $30 forward single #
face $-1 $31 $32 $17 $-1 $33 forward single #
face $-1 $34 $35 $18 $-1 $36 reversed single #
face $-1 $37 $38 $19 $-1 $39 forward single #
face $-1 $40 $41 $15 $-1 $42 reversed single #
loop $-1 $-1 $43 $20 #
plane-surface $-1 0 0 12.172632770276513 0 0 1 1 0 0 forward_v I I I I #
face $-1 $44 $45 $16 $-1 $46 reversed single #
loop $-1 $-1 $47 $21 #
plane-surface $-1 0 -28.35515746403896 0 0 1 0 0 0 1 forward_v I I I I #
face $-1 $48 $49 $17 $-1 $50 reversed single #
loop $-1 $-1 $51 $22 #
plane-surface $-1 0 28.35515746403896 0 0 -1 0 0 0 -1 forward_v I I I I #
face $-1 $52 $53 $18 $-1 $54 reversed single #
loop $-1 $-1 $55 $23 #
plane-surface $-1 -106.93364922499718 3.8350721599759403 89.778451668975265 0 1 0 -0.55919291073839883 0 0.82903756765294845 forward_v I I I I #
face $-1 $56 $57 $19 $-1 $58 forward single #
loop $-1 $59 $60 $24 #
cone-surface $-1 -45.229249111729075 7.228679249591778 8.0387992851300716 0.55919291073839883 0 -0.82903756765294845 0.82903756765294845 0 0.55919291073839883 1 I I 0 1 1 forward I I I I #
face $-1 $61 $62 $15 $-1 $63 reversed single #
loop $-1 $-1 $64 $25 #
plane-surface $-1 0 0 -12.172632770276513 0 0 1 1 0 0 forward_v I I I I #
coedge $-1 $65 $66 $67 $68 forward $26 $-1 #
face $-1 $69 $70 $16 $-1 $71 forward single #
loop $-1 $-1 $72 $28 #
plane-surface $-1 -50.478835413678397 0 0 1 0 0 0 0 -1 forward_v I I I I #
coedge $-1 $73 $74 $75 $76 forward $29 $-1 #
face $-1 $77 $78 $17 $-1 $79 forward single #
loop $-1 $-1 $80 $31 #
plane-surface $-1 50.478835413678397 0 0 -1 0 0 0 0 1 forward_v I I I I #
coedge $-1 $81 $82 $83 $84 forward $32 $-1 #
face $-1 $85 $86 $18 $-1 $87 reversed single #
loop $-1 $-1 $88 $34 #
plane-surface $-1 -50.478835413678404 7.2286792495917851 6.0807498103563518 -0.55919291073839883 0 0.82903756765294845 0.82903756765294845 0 0.55919291073839883 forward_v I I I I #
coedge $-1 $89 $90 $91 $92 reversed $35 $-1 #
face $-1 $-1 $93 $19 $-1 $94 forward single #
loop $-1 $95 $96 $37 #
cone-surface $-1 -44.215860219581117 7.228679249591778 6.5363884961172349 0.55919291073839883 0 -0.82903756765294845 0.41451878382647422 0 0.27959645536919941 1 I I -0.70710678118654746 0.70710678118654746 0.5 forward I I I I #
loop $-1 $-1 $97 $24 #
coedge $-1 $60 $60 $98 $99 reversed $38 $-1 #
face $-1 $100 $101 $15 $-1 $102 reversed single #
loop $-1 $-1 $103 $40 #
plane-surface $-1 0 -28.35515746403896 0 0 1 0 0 0 1 forward_v I I I I #
coedge $-1 $104 $105 $106 $107 forward $41 $-1 #
coedge $-1 $108 $43 $109 $110 forward $26 $-1 #
coedge $-1 $43 $108 $111 $112 forward $26 $-1 #
coedge $-1 $113 $114 $43 $68 reversed $115 $-1 #
edge $-1 $116 -28.35515746403896 $117 28.35515746403896 $67 $118 forward 7 unknown #
face $-1 $119 $120 $16 $-1 $121 reversed single #
loop $-1 $-1 $122 $44 #
plane-surface $-1 0 -34.879621017616415 8.7424205800256107 0 0 1 1 0 0 forward_v I I I I #
coedge $-1 $123 $124 $74 $125 forward $45 $-1 #
coedge $-1 $126 $47 $127 $128 reversed $29 $-1 #
coedge $-1 $47 $126 $72 $125 reversed $29 $-1 #
coedge $-1 $129 $122 $47 $76 reversed $70 $-1 #
edge $-1 $130 -50.478835413678397 $131 50.478835413678397 $75 $132 forward 7 unknown #
face $-1 $133 $134 $17 $-1 $135 reversed single #
loop $-1 $-1 $136 $48 #
plane-surface $-1 0 34.879621017616415 8.7424205800256107 0 0 1 1 0 0 forward_v I I I I #
coedge $-1 $137 $138 $82 $139 forward $49 $-1 #
coedge $-1 $140 $51 $141 $142 reversed $32 $-1 #
coedge $-1 $51 $140 $80 $139 reversed $32 $-1 #
coedge $-1 $136 $143 $51 $84 reversed $78 $-1 #
edge $-1 $144 -50.478835413678397 $145 50.478835413678397 $83 $146 forward 7 unknown #
face $-1 $147 $148 $18 $-1 $149 reversed single #
loop $-1 $-1 $150 $52 #
plane-surface $-1 -106.93364922499718 10.62228633920763 89.778451668975265 0 -1 0 0.55919291073839883 0 -0.82903756765294845 forward_v I I I I #
coedge $-1 $151 $152 $153 $154 reversed $53 $-1 #
coedge $-1 $90 $55 $155 $156 reversed $35 $-1 #
coedge $-1 $55 $89 $151 $157 reversed $35 $-1 #
coedge $-1 $153 $158 $55 $92 forward $159 $-1 #
edge $-1 $160 2.9879891988201948 $161 12.019576929161296 $91 $162 forward 7 unknown #
loop $-1 $-1 $98 $56 #
plane-surface $-1 -50.478835413678404 7.2286792495917851 6.0807498103563518 -0.55919291073839883 0 0.82903756765294845 0.82903756765294845 0 0.55919291073839883 forward_v I I I I #
loop $-1 $-1 $163 $37 #
coedge $-1 $96 $96 $97 $164 reversed $57 $-1 #
coedge $-1 $97 $97 $96 $164 forward $59 $-1 #
coedge $-1 $98 $98 $60 $99 forward $93 $-1 #
edge $-1 $165 0 $165 6.2831853071796004 $98 $166 forward 7 unknown #
face $-1 $167 $168 $15 $-1 $169 reversed single #
loop $-1 $-1 $170 $61 #
plane-surface $-1 -50.478835413678397 0 0 1 0 0 0 0 -1 forward_v I I I I #
coedge $-1 $171 $111 $172 $173 forward $62 $-1 #
coedge $-1 $174 $64 $171 $175 forward $41 $-1 #
coedge $-1 $64 $174 $176 $177 forward $41 $-1 #
coedge $-1 $114 $113 $64 $107 reversed $115 $-1 #
edge $-1 $178 -28.35515746403896 $179 28.35515746403896 $106 $180 forward 7 unknown #
coedge $-1 $66 $65 $181 $182 forward $26 $-1 #
coedge $-1 $183 $184 $65 $110 reversed $168 $-1 #
edge $-1 $117 -50.478835413678397 $185 50.478835413678397 $109 $186 forward 7 unknown #
coedge $-1 $103 $187 $66 $112 reversed $62 $-1 #
edge $-1 $188 -50.478835413678397 $116 50.478835413678397 $111 $189 forward 7 unknown #
coedge $-1 $106 $67 $187 $190 forward $115 $-1 #
coedge $-1 $67 $106 $183 $191 reversed $115 $-1 #
loop $-1 $-1 $113 $167 #
vertex $-1 $68 $192 #
vertex $-1 $68 $193 #
straight-curve $-1 50.478835413678397 0 12.172632770276513 0 1 0 I I #
face $-1 $194 $195 $16 $-1 $196 reversed single #
loop $-1 $-1 $197 $69 #
plane-surface $-1 0 -34.879621017616415 2.479163218036172 0 0 1 1 0 0 forward_v I I I I #
coedge $-1 $75 $198 $199 $200 forward $70 $-1 #
coedge $-1 $201 $72 $202 $203 reversed $45 $-1 #
coedge $-1 $72 $201 $129 $204 reversed $45 $-1 #
edge $-1 $130 -8.7424205800256107 $205 -2.479163218036172 $72 $206 forward 7 unknown #
coedge $-1 $74 $73 $207 $208 forward $29 $-1 #
coedge $-1 $199 $209 $73 $128 forward $210 $-1 #
edge $-1 $211 2.479163218036172 $131 8.7424205800256107 $127 $212 forward 7 unknown #
coedge $-1 $198 $75 $124 $204 forward $70 $-1 #
vertex $-1 $125 $213 #
vertex $-1 $200 $214 #
straight-curve $-1 0 -28.35515746403896 8.7424205800256107 1 0 0 I I #
face $-1 $215 $216 $17 $-1 $217 reversed single #
loop $-1 $-1 $218 $77 #
plane-surface $-1 0 34.879621017616415 2.479163218036172 0 0 1 1 0 0 forward_v I I I I #
coedge $-1 $219 $83 $138 $220 forward $78 $-1 #
coedge $-1 $221 $80 $218 $222 reversed $49 $-1 #
coedge $-1 $80 $221 $136 $220 reversed $49 $-1 #
edge $-1 $144 -8.7424205800256107 $223 -2.479163218036172 $80 $224 forward 7 unknown #
coedge $-1 $82 $81 $225 $226 forward $32 $-1 #
coedge $-1 $227 $228 $81 $142 forward $229 $-1 #
edge $-1 $230 2.479163218036172 $145 8.7424205800256107 $141 $231 forward 7 unknown #
coedge $-1 $83 $219 $227 $232 forward $78 $-1 #
vertex $-1 $139 $233 #
vertex $-1 $232 $234 #
straight-curve $-1 0 28.35515746403896 8.7424205800256107 -1 0 0 I I #
face $-1 $-1 $159 $18 $-1 $235 forward single #
loop $-1 $-1 $236 $85 #
plane-surface $-1 -50.478835413678397 0 0 1 0 0 0 0 -1 forward_v I I I I #
coedge $-1 $237 $238 $239 $240 reversed $86 $-1 #
coedge $-1 $241 $88 $90 $157 forward $53 $-1 #
coedge $-1 $88 $241 $237 $242 forward $53 $-1 #
coedge $-1 $239 $91 $88 $154 forward $159 $-1 #
edge $-1 $161 0.22073253518004776 $243 7.0079467144117373 $153 $244 forward 7 unknown #
coedge $-1 $245 $246 $89 $156 forward $148 $-1 #
edge $-1 $247 -38.808476024131274 $160 -32.716593064211118 $155 $248 forward 7 unknown #
edge $-1 $161 -10.894063288241615 $247 -8.3739815925159718e-015 $90 $249 forward 7 unknown #
coedge $-1 $91 $239 $245 $250 forward $159 $-1 #
loop $-1 $-1 $239 $147 #
vertex $-1 $156 $251 #
vertex $-1 $92 $252 #
straight-curve $-1 -53.466824612498591 3.8350721599759403 12.172632770276515 1 0 0 I I #
coedge $-1 $163 $163 $-1 $253 reversed $95 $-1 #
edge $-1 $254 0 $254 6.2831853071796004 $96 $255 forward 7 unknown #
vertex $-1 $99 $256 #
ellipse-curve $-1 -45.963041548507839 7.228679249591778 9.1266912903164386 -0.55919291073839883 0 0.82903756765294845 0.82903756765294845 0 0.55919291073839883 1 I I #
face $-1 $-1 $115 $15 $-1 $257 reversed single #
loop $-1 $-1 $184 $100 #
plane-surface $-1 0 28.35515746403896 0 0 -1 0 0 0 -1 forward_v I I I I #
coedge $-1 $258 $181 $184 $259 forward $101 $-1 #
coedge $-1 $187 $103 $104 $175 reversed $62 $-1 #
coedge $-1 $181 $258 $103 $173 reversed $101 $-1 #
edge $-1 $188 -12.172632770276513 $260 12.172632770276513 $172 $261 forward 7 unknown #
coedge $-1 $105 $104 $258 $262 forward $41 $-1 #
edge $-1 $179 -50.478835413678397 $260 50.478835413678397 $171 $263 forward 7 unknown #
coedge $-1 $184 $183 $105 $177 reversed $168 $-1 #
edge $-1 $264 -50.478835413678397 $178 50.478835413678397 $176 $265 forward 7 unknown #
vertex $-1 $107 $266 #
vertex $-1 $190 $267 #
straight-curve $-1 50.478835413678397 0 -12.172632770276513 0 -1 0 I I #
coedge $-1 $170 $172 $108 $182 reversed $101 $-1 #
edge $-1 $185 -28.35515746403896 $188 28.35515746403896 $181 $268 forward 7 unknown #
coedge $-1 $176 $109 $114 $191 forward $168 $-1 #
coedge $-1 $109 $176 $170 $259 reversed $168 $-1 #
vertex $-1 $110 $269 #
straight-curve $-1 0 28.35515746403896 12.172632770276513 -1 0 0 I I #
coedge $-1 $111 $171 $113 $190 reversed $62 $-1 #
vertex $-1 $182 $270 #
straight-curve $-1 0 -28.35515746403896 12.172632770276513 1 0 0 I I #
edge $-1 $116 -12.172632770276513 $179 12.172632770276513 $113 $271 forward 7 unknown #
edge $-1 $117 -12.172632770276513 $178 12.172632770276513 $114 $272 forward 7 unknown #
point $-1 50.478835413678397 -28.35515746403896 12.172632770276513 #
point $-1 50.478835413678397 28.35515746403896 12.172632770276513 #
face $-1 $-1 $210 $16 $-1 $273 reversed single #
loop $-1 $-1 $274 $119 #
plane-surface $-1 0 -41.40408457119387 5.6107918990308914 0 1 0 0 0 1 forward_v I I I I #
coedge $-1 $275 $207 $209 $276 forward $120 $-1 #
coedge $-1 $122 $129 $277 $278 forward $70 $-1 #
coedge $-1 $279 $127 $122 $200 reversed $210 $-1 #
edge $-1 $280 -6.5244635535774549 $131 6.5244635535774549 $199 $281 forward 7 unknown #
coedge $-1 $124 $123 $274 $282 reversed $45 $-1 #
coedge $-1 $207 $275 $123 $203 forward $120 $-1 #
edge $-1 $283 -6.5244635535774549 $205 6.5244635535774549 $123 $284 forward 7 unknown #
edge $-1 $130 -6.5244635535774549 $285 6.5244635535774549 $124 $286 forward 7 unknown #
vertex $-1 $125 $287 #
straight-curve $-1 -50.478835413678397 -28.35515746403896 0 0 0 -1 I I #
coedge $-1 $197 $202 $126 $208 reversed $120 $-1 #
edge $-1 $211 -50.478835413678397 $205 50.478835413678397 $207 $288 forward 7 unknown #
coedge $-1 $127 $279 $197 $276 reversed $210 $-1 #
loop $-1 $-1 $127 $194 #
vertex $-1 $128 $289 #
straight-curve $-1 50.478835413678397 -28.35515746403896 0 0 0 1 I I #
point $-1 -50.478835413678397 -28.35515746403896 8.7424205800256107 #
point $-1 50.478835413678397 -28.35515746403896 8.7424205800256107 #
face $-1 $-1 $229 $17 $-1 $290 reversed single #
loop $-1 $-1 $291 $133 #
plane-surface $-1 0 41.40408457119387 5.6107918990308914 0 -1 0 0 0 -1 forward_v I I I I #
coedge $-1 $225 $292 $137 $222 forward $134 $-1 #
coedge $-1 $143 $136 $293 $294 forward $78 $-1 #
edge $-1 $144 -6.5244635535774549 $295 6.5244635535774549 $138 $296 forward 7 unknown #
coedge $-1 $138 $137 $291 $297 reversed $49 $-1 #
edge $-1 $298 -6.5244635535774549 $223 6.5244635535774549 $137 $299 forward 7 unknown #
vertex $-1 $139 $300 #
straight-curve $-1 50.478835413678397 28.35515746403896 0 0 0 -1 I I #
coedge $-1 $301 $218 $140 $226 reversed $134 $-1 #
edge $-1 $230 -50.478835413678397 $223 50.478835413678397 $225 $302 forward 7 unknown #
coedge $-1 $303 $141 $143 $232 reversed $229 $-1 #
coedge $-1 $141 $303 $301 $304 reversed $229 $-1 #
loop $-1 $-1 $141 $215 #
vertex $-1 $142 $305 #
straight-curve $-1 -50.478835413678397 28.35515746403896 0 0 0 1 I I #
edge $-1 $306 -6.5244635535774549 $145 6.5244635535774549 $227 $307 forward 7 unknown #
point $-1 50.478835413678397 28.35515746403896 8.7424205800256107 #
point $-1 -50.478835413678397 28.35515746403896 8.7424205800256107 #
plane-surface $-1 0 0 12.172632770276513 0 0 1 1 0 0 forward_v I I I I #
coedge $-1 $246 $245 $238 $308 forward $148 $-1 #
coedge $-1 $238 $150 $152 $242 reversed $86 $-1 #
coedge $-1 $150 $237 $236 $308 reversed $86 $-1 #
coedge $-1 $158 $153 $150 $240 forward $159 $-1 #
edge $-1 $243 -12.019576929161296 $309 -2.9879891988201948 $239 $310 forward 7 unknown #
coedge $-1 $152 $151 $246 $311 reversed $53 $-1 #
edge $-1 $312 8.3739815925159718e-015 $243 10.894063288241615 $237 $313 forward 7 unknown #
vertex $-1 $154 $314 #
straight-curve $-1 -41.447247683337302 3.6143396247958925 12.172632770276511 0 1 0 I I #
coedge $-1 $236 $155 $158 $250 reversed $148 $-1 #
coedge $-1 $155 $236 $241 $311 forward $148 $-1 #
vertex $-1 $156 $315 #
straight-curve $-1 -50.478835413678397 3.8350721599759403 44.889225834487632 0 0 1 I I #
straight-curve $-1 -50.478835413678404 3.8350721599759403 6.0807498103563518 -0.82903756765294845 0 -0.55919291073839883 I I #
edge $-1 $309 -10.62228633920763 $160 -3.8350721599759403 $245 $316 forward 7 unknown #
point $-1 -50.478835413678397 3.8350721599759403 12.172632770276513 #
point $-1 -41.447247683337295 3.8350721599759403 12.172632770276513 #
edge $-1 $317 1 $317 0 $163 $-1 forward 7 unknown #
vertex $-1 $164 $318 #
ellipse-curve $-1 -44.495456674950319 7.228679249591778 6.950907279943709 -0.55919291073839883 0 0.82903756765294845 0.82903756765294845 0 0.55919291073839883 1 I I #
point $-1 -45.134003980854892 7.228679249591778 9.6858842010548312 #
plane-surface $-1 50.478835413678397 0 0 -1 0 0 0 0 1 forward_v I I I I #
coedge $-1 $172 $170 $174 $262 reversed $101 $-1 #
edge $-1 $185 -12.172632770276513 $264 12.172632770276513 $184 $319 forward 7 unknown #
vertex $-1 $262 $320 #
straight-curve $-1 -50.478835413678397 -28.35515746403896 0 0 0 -1 I I #
edge $-1 $260 -28.35515746403896 $264 28.35515746403896 $258 $321 forward 7 unknown #
straight-curve $-1 0 -28.35515746403896 -12.172632770276513 -1 0 0 I I #
vertex $-1 $177 $322 #
straight-curve $-1 0 28.35515746403896 -12.172632770276513 1 0 0 I I #
point $-1 50.478835413678397 28.35515746403896 -12.172632770276513 #
point $-1 50.478835413678397 -28.35515746403896 -12.172632770276513 #
straight-curve $-1 -50.478835413678397 0 12.172632770276513 0 -1 0 I I #
point $-1 -50.478835413678397 28.35515746403896 12.172632770276513 #
point $-1 -50.478835413678397 -28.35515746403896 12.172632770276513 #
straight-curve $-1 50.478835413678397 -28.35515746403896 0 0 0 -1 I I #
straight-curve $-1 50.478835413678397 28.35515746403896 0 0 0 -1 I I #
plane-surface $-1 50.478835413678397 0 0 -1 0 0 0 0 1 forward_v I I I I #
coedge $-1 $323 $277 $201 $282 forward $195 $-1 #
coedge $-1 $202 $197 $323 $324 forward $120 $-1 #
edge $-1 $211 -6.5244635535774549 $325 6.5244635535774549 $209 $326 forward 7 unknown #
coedge $-1 $274 $327 $198 $278 reversed $195 $-1 #
edge $-1 $285 -50.478835413678397 $280 50.478835413678397 $277 $328 forward 7 unknown #
coedge $-1 $209 $199 $327 $329 forward $210 $-1 #
vertex $-1 $200 $330 #
straight-curve $-1 50.478835413678397 -34.879621017616415 8.7424205800256107 0 1 0 I I #
edge $-1 $285 -3.1316286809947194 $283 3.1316286809947194 $201 $331 forward 7 unknown #
vertex $-1 $203 $332 #
straight-curve $-1 -50.478835413678397 -34.879621017616415 2.479163218036172 0 1 0 I I #
vertex $-1 $204 $333 #
straight-curve $-1 -50.478835413678397 -34.879621017616415 8.7424205800256107 0 -1 0 I I #
point $-1 -50.478835413678397 -28.35515746403896 2.479163218036172 #
straight-curve $-1 0 -28.35515746403896 2.479163218036172 -1 0 0 I I #
point $-1 50.478835413678397 -28.35515746403896 2.479163218036172 #
plane-surface $-1 -50.478835413678397 0 0 1 0 0 0 0 -1 forward_v I I I I #
coedge $-1 $334 $293 $221 $297 forward $216 $-1 #
coedge $-1 $218 $301 $334 $335 forward $134 $-1 #
coedge $-1 $291 $336 $219 $294 reversed $216 $-1 #
edge $-1 $295 -50.478835413678397 $306 50.478835413678397 $293 $337 forward 7 unknown #
vertex $-1 $220 $338 #
straight-curve $-1 50.478835413678397 34.879621017616415 8.7424205800256107 0 1 0 I I #
edge $-1 $295 -3.1316286809947194 $298 3.1316286809947194 $221 $339 forward 7 unknown #
vertex $-1 $222 $340 #
straight-curve $-1 50.478835413678397 34.879621017616415 2.479163218036172 0 -1 0 I I #
point $-1 50.478835413678397 28.35515746403896 2.479163218036172 #
coedge $-1 $292 $225 $228 $304 forward $134 $-1 #
straight-curve $-1 0 28.35515746403896 2.479163218036172 1 0 0 I I #
coedge $-1 $228 $227 $336 $341 forward $229 $-1 #
edge $-1 $230 -6.5244635535774549 $342 6.5244635535774549 $228 $343 forward 7 unknown #
point $-1 -50.478835413678397 28.35515746403896 2.479163218036172 #
vertex $-1 $294 $344 #
straight-curve $-1 -50.478835413678397 34.879621017616415 8.7424205800256107 0 -1 0 I I #
edge $-1 $309 32.716593064211118 $312 38.808476024131274 $236 $345 forward 7 unknown #
vertex $-1 $250 $346 #
straight-curve $-1 -53.466824612498591 10.62228633920763 12.172632770276515 -1 0 0 I I #
edge $-1 $312 -7.0079467144117373 $247 -0.22073253518004776 $246 $347 forward 7 unknown #
vertex $-1 $311 $348 #
straight-curve $-1 -50.478835413678404 10.62228633920763 6.0807498103563518 0.82903756765294845 0 0.55919291073839883 I I #
point $-1 -41.447247683337295 10.62228633920763 12.172632770276513 #
point $-1 -50.478835413678397 3.8350721599759403 6.0807498103563562 #
straight-curve $-1 -50.478835413678397 0 12.172632770276513 0 -1 0 I I #
vertex $-1 $253 $349 #
point $-1 -43.666419107297365 7.228679249591778 7.5101001906821079 #
straight-curve $-1 -50.478835413678397 28.35515746403896 0 0 0 -1 I I #
point $-1 -50.478835413678397 -28.35515746403896 -12.172632770276513 #
straight-curve $-1 -50.478835413678397 0 -12.172632770276513 0 1 0 I I #
point $-1 -50.478835413678397 28.35515746403896 -12.172632770276513 #
coedge $-1 $327 $274 $275 $324 reversed $195 $-1 #
edge $-1 $325 -50.478835413678397 $283 50.478835413678397 $323 $350 forward 7 unknown #
vertex $-1 $329 $351 #
straight-curve $-1 50.478835413678397 -34.879621017616415 2.479163218036172 0 -1 0 I I #
coedge $-1 $277 $323 $279 $329 reversed $195 $-1 #
straight-curve $-1 0 -41.40408457119387 8.7424205800256107 1 0 0 I I #
edge $-1 $280 -3.1316286809947194 $325 3.1316286809947194 $279 $352 forward 7 unknown #
point $-1 50.478835413678397 -41.40408457119387 8.7424205800256107 #
straight-curve $-1 -50.478835413678397 -41.40408457119387 5.6107918990308914 0 0 -1 I I #
point $-1 -50.478835413678397 -41.40408457119387 2.479163218036172 #
point $-1 -50.478835413678397 -41.40408457119387 8.7424205800256107 #
coedge $-1 $336 $291 $292 $335 reversed $216 $-1 #
edge $-1 $342 -50.478835413678397 $298 50.478835413678397 $334 $353 forward 7 unknown #
coedge $-1 $293 $334 $303 $341 reversed $216 $-1 #
straight-curve $-1 0 41.40408457119387 8.7424205800256107 -1 0 0 I I #
point $-1 50.478835413678397 41.40408457119387 8.7424205800256107 #
straight-curve $-1 50.478835413678397 41.40408457119387 5.6107918990308914 0 0 -1 I I #
point $-1 50.478835413678397 41.40408457119387 2.479163218036172 #
edge $-1 $306 -3.1316286809947194 $342 3.1316286809947194 $336 $354 forward 7 unknown #
vertex $-1 $335 $355 #
straight-curve $-1 -50.478835413678397 34.879621017616415 2.479163218036172 0 1 0 I I #
point $-1 -50.478835413678397 41.40408457119387 8.7424205800256107 #
straight-curve $-1 -50.478835413678397 10.62228633920763 44.889225834487632 0 0 -1 I I #
point $-1 -50.478835413678397 10.62228633920763 12.172632770276513 #
straight-curve $-1 -50.478835413678397 3.6143396247958925 6.0807498103563544 0 -1 0 I I #
point $-1 -50.478835413678397 10.62228633920763 6.0807498103563562 #
point $-1 -43.936263764211915 7.228679249591778 6.1218697122907608 #
straight-curve $-1 0 -41.40408457119387 2.479163218036172 -1 0 0 I I #
point $-1 50.478835413678397 -41.40408457119387 2.479163218036172 #
straight-curve $-1 50.478835413678397 -41.40408457119387 5.6107918990308914 0 0 -1 I I #
straight-curve $-1 0 41.40408457119387 2.479163218036172 1 0 0 I I #
straight-curve $-1 -50.478835413678397 41.40408457119387 5.6107918990308914 0 0 -1 I I #
point $-1 -50.478835413678397 41.40408457119387 2.479163218036172 #
End-of-ACIS-data 