500 0 2 0           
7 Unknown 11 ACIS 5.0 NT 24 Fri Mar 26 01:30:20 1999 
-1 9.9999999999999995e-007 1e-010 
body $-1 $2 $-1 $3 #
body $-1 $4 $-1 $5 #
lump $-1 $-1 $6 $0 #
transform $-1 1 0 0 0 1 0 0 0 1 78.056581316568497 53.799891814505742 18.54304141927804 1 rotate no_reflect no_shear #
lump $-1 $-1 $7 $1 #
transform $-1 1 0 0 0 1 0 0 0 1 78.056581316568497 53.799891814505742 18.54304141927804 1 rotate no_reflect no_shear #
shell $-1 $-1 $-1 $8 $-1 $2 #
shell $-1 $-1 $-1 $9 $-1 $4 #
face $-1 $10 $11 $6 $-1 $12 forward single #
face $-1 $13 $14 $7 $-1 $15 forward single #
face $-1 $16 $17 $6 $-1 $18 reversed single #
loop $-1 $-1 $19 $8 #
plane-surface $-1 0 0 18.54304141927804 0 0 1 1 0 0 forward_v I I I I #
face $-1 $20 $21 $7 $-1 $22 reversed single #
loop $-1 $-1 $23 $9 #
plane-surface $-1 0 -45.088985869172511 3.3316761562410795 0 0 1 1 0 0 forward_v I I I I #
face $-1 $24 $25 $6 $-1 $26 reversed single #
loop $-1 $-1 $27 $10 #
plane-surface $-1 0 0 -18.54304141927804 0 0 1 1 0 0 forward_v I I I I #
coedge $-1 $28 $29 $30 $31 forward $11 $-1 #
face $-1 $32 $33 $7 $-1 $34 reversed single #
loop $-1 $-1 $35 $13 #
plane-surface $-1 0 -45.088985869172511 -3.3585775827948074 0 0 1 1 0 0 forward_v I I I I #
coedge $-1 $36 $37 $38 $39 reversed $14 $-1 #
face $-1 $40 $41 $6 $-1 $42 reversed single #
loop $-1 $-1 $43 $16 #
plane-surface $-1 0 -53.799891814505742 0 0 1 0 0 0 1 forward_v I I I I #
coedge $-1 $44 $45 $46 $47 forward $17 $-1 #
coedge $-1 $48 $19 $49 $50 forward $11 $-1 #
coedge $-1 $19 $48 $51 $52 forward $11 $-1 #
coedge $-1 $53 $54 $19 $31 reversed $55 $-1 #
edge $-1 $56 -53.799891814505742 $57 53.799891814505742 $30 $58 forward 7 unknown #
face $-1 $59 $60 $7 $-1 $61 reversed single #
loop $-1 $-1 $62 $20 #
plane-surface $-1 0 -36.37807992383928 -0.013450713276863979 0 -1 0 0 0 -1 forward_v I I I I #
coedge $-1 $63 $64 $65 $66 reversed $21 $-1 #
coedge $-1 $67 $23 $68 $69 forward $14 $-1 #
coedge $-1 $23 $67 $70 $71 reversed $14 $-1 #
coedge $-1 $72 $73 $23 $39 forward $74 $-1 #
edge $-1 $75 13.833586989253025 $76 31.255398879919486 $38 $77 forward 7 unknown #
face $-1 $78 $79 $6 $-1 $80 reversed single #
loop $-1 $-1 $81 $24 #
plane-surface $-1 -78.056581316568497 0 0 1 0 0 0 0 -1 forward_v I I I I #
coedge $-1 $82 $51 $83 $84 forward $25 $-1 #
coedge $-1 $85 $27 $82 $86 forward $17 $-1 #
coedge $-1 $27 $85 $87 $88 forward $17 $-1 #
coedge $-1 $54 $53 $27 $47 reversed $55 $-1 #
edge $-1 $89 -53.799891814505742 $90 53.799891814505742 $46 $91 forward 7 unknown #
coedge $-1 $29 $28 $92 $93 forward $11 $-1 #
coedge $-1 $94 $95 $28 $50 reversed $79 $-1 #
edge $-1 $57 -78.056581316568497 $96 78.056581316568497 $49 $97 forward 7 unknown #
coedge $-1 $43 $98 $29 $52 reversed $25 $-1 #
edge $-1 $99 -78.056581316568497 $56 78.056581316568497 $51 $100 forward 7 unknown #
coedge $-1 $46 $30 $98 $101 forward $55 $-1 #
coedge $-1 $30 $46 $94 $102 reversed $55 $-1 #
loop $-1 $-1 $53 $78 #
vertex $-1 $31 $103 #
vertex $-1 $31 $104 #
straight-curve $-1 78.056581316568497 0 18.54304141927804 0 1 0 I I #
face $-1 $105 $106 $7 $-1 $107 reversed single #
loop $-1 $-1 $108 $32 #
plane-surface $-1 -78.056581316568497 0 0 1 0 0 0 0 -1 forward_v I I I I #
coedge $-1 $109 $68 $73 $110 reversed $33 $-1 #
coedge $-1 $111 $35 $112 $113 reversed $21 $-1 #
coedge $-1 $35 $111 $109 $114 forward $21 $-1 #
coedge $-1 $73 $72 $35 $66 forward $74 $-1 #
edge $-1 $115 -31.255398879919486 $116 -13.833586989253025 $65 $117 forward 7 unknown #
coedge $-1 $37 $36 $108 $118 reversed $14 $-1 #
coedge $-1 $62 $119 $36 $69 reversed $33 $-1 #
edge $-1 $75 -78.056581316568497 $120 78.056581316568497 $68 $121 forward 7 unknown #
coedge $-1 $122 $123 $37 $71 forward $106 $-1 #
edge $-1 $76 -78.056581316568497 $124 78.056581316568497 $70 $125 forward 7 unknown #
coedge $-1 $65 $38 $123 $126 forward $74 $-1 #
coedge $-1 $38 $65 $62 $110 forward $74 $-1 #
loop $-1 $-1 $38 $105 #
vertex $-1 $39 $127 #
vertex $-1 $126 $128 #
straight-curve $-1 78.056581316568497 -22.544492934586255 3.3316761562410795 0 -1 0 I I #
face $-1 $-1 $55 $6 $-1 $129 reversed single #
loop $-1 $-1 $94 $40 #
plane-surface $-1 0 53.799891814505742 0 0 -1 0 0 0 -1 forward_v I I I I #
coedge $-1 $130 $92 $95 $131 forward $41 $-1 #
coedge $-1 $98 $43 $44 $86 reversed $25 $-1 #
coedge $-1 $92 $130 $43 $84 reversed $41 $-1 #
edge $-1 $99 -18.54304141927804 $132 18.54304141927804 $83 $133 forward 7 unknown #
coedge $-1 $45 $44 $130 $134 forward $17 $-1 #
edge $-1 $90 -78.056581316568497 $132 78.056581316568497 $82 $135 forward 7 unknown #
coedge $-1 $95 $94 $45 $88 reversed $79 $-1 #
edge $-1 $136 -78.056581316568497 $89 78.056581316568497 $87 $137 forward 7 unknown #
vertex $-1 $47 $138 #
vertex $-1 $101 $139 #
straight-curve $-1 78.056581316568497 0 -18.54304141927804 0 -1 0 I I #
coedge $-1 $81 $83 $48 $93 reversed $41 $-1 #
edge $-1 $96 -53.799891814505742 $99 53.799891814505742 $92 $140 forward 7 unknown #
coedge $-1 $87 $49 $54 $102 forward $79 $-1 #
coedge $-1 $49 $87 $81 $131 reversed $79 $-1 #
vertex $-1 $50 $141 #
straight-curve $-1 0 53.799891814505742 18.54304141927804 -1 0 0 I I #
coedge $-1 $51 $82 $53 $101 reversed $25 $-1 #
vertex $-1 $93 $142 #
straight-curve $-1 0 -53.799891814505742 18.54304141927804 1 0 0 I I #
edge $-1 $56 -18.54304141927804 $90 18.54304141927804 $53 $143 forward 7 unknown #
edge $-1 $57 -18.54304141927804 $89 18.54304141927804 $54 $144 forward 7 unknown #
point $-1 78.056581316568497 -53.799891814505742 18.54304141927804 #
point $-1 78.056581316568497 53.799891814505742 18.54304141927804 #
face $-1 $-1 $74 $7 $-1 $145 reversed single #
loop $-1 $-1 $70 $59 #
plane-surface $-1 0 -53.799891814505742 0 0 1 0 0 0 1 forward_v I I I I #
coedge $-1 $146 $147 $67 $118 forward $60 $-1 #
coedge $-1 $119 $62 $64 $114 reversed $33 $-1 #
edge $-1 $116 -3.3518522261563755 $75 3.3384015128795115 $73 $148 forward 7 unknown #
coedge $-1 $64 $63 $149 $150 reversed $21 $-1 #
coedge $-1 $123 $122 $63 $113 forward $106 $-1 #
edge $-1 $151 -78.056581316568497 $115 78.056581316568497 $112 $152 forward 7 unknown #
edge $-1 $153 -78.056581316568497 $116 78.056581316568497 $109 $154 forward 7 unknown #
vertex $-1 $113 $155 #
vertex $-1 $66 $156 #
straight-curve $-1 78.056581316568497 -22.544492934586255 -3.3585775827948074 0 1 0 I I #
edge $-1 $124 -31.255398879919486 $120 -13.833586989253025 $108 $157 forward 7 unknown #
coedge $-1 $68 $109 $146 $158 reversed $33 $-1 #
vertex $-1 $118 $159 #
straight-curve $-1 0 -36.37807992383928 3.3316761562410795 -1 0 0 I I #
coedge $-1 $112 $70 $147 $160 forward $106 $-1 #
coedge $-1 $70 $112 $72 $126 reversed $106 $-1 #
vertex $-1 $160 $161 #
straight-curve $-1 0 -53.799891814505742 3.3316761562410795 -1 0 0 I I #
edge $-1 $76 -3.3316761562410795 $115 3.3585775827948074 $72 $162 forward 7 unknown #
point $-1 78.056581316568497 -36.37807992383928 3.3316761562410795 #
point $-1 78.056581316568497 -53.799891814505742 3.3316761562410795 #
plane-surface $-1 78.056581316568497 0 0 -1 0 0 0 0 1 forward_v I I I I #
coedge $-1 $83 $81 $85 $134 reversed $41 $-1 #
edge $-1 $96 -18.54304141927804 $136 18.54304141927804 $95 $163 forward 7 unknown #
vertex $-1 $134 $164 #
straight-curve $-1 -78.056581316568497 -53.799891814505742 0 0 0 -1 I I #
edge $-1 $132 -53.799891814505742 $136 53.799891814505742 $130 $165 forward 7 unknown #
straight-curve $-1 0 -53.799891814505742 -18.54304141927804 -1 0 0 I I #
vertex $-1 $88 $166 #
straight-curve $-1 0 53.799891814505742 -18.54304141927804 1 0 0 I I #
point $-1 78.056581316568497 53.799891814505742 -18.54304141927804 #
point $-1 78.056581316568497 -53.799891814505742 -18.54304141927804 #
straight-curve $-1 -78.056581316568497 0 18.54304141927804 0 -1 0 I I #
point $-1 -78.056581316568497 53.799891814505742 18.54304141927804 #
point $-1 -78.056581316568497 -53.799891814505742 18.54304141927804 #
straight-curve $-1 78.056581316568497 -53.799891814505742 0 0 0 -1 I I #
straight-curve $-1 78.056581316568497 53.799891814505742 0 0 0 -1 I I #
plane-surface $-1 78.056581316568497 0 0 -1 0 0 0 0 1 forward_v I I I I #
coedge $-1 $149 $108 $119 $158 forward $60 $-1 #
coedge $-1 $108 $149 $122 $160 reversed $60 $-1 #
straight-curve $-1 78.056581316568497 -36.37807992383928 -0.0067253566384319896 0 0 1 I I #
coedge $-1 $147 $146 $111 $150 forward $60 $-1 #
edge $-1 $153 13.833586989253025 $151 31.255398879919486 $149 $167 forward 7 unknown #
vertex $-1 $113 $168 #
straight-curve $-1 0 -53.799891814505742 -3.3585775827948074 1 0 0 I I #
vertex $-1 $150 $169 #
straight-curve $-1 0 -36.37807992383928 -3.3585775827948074 1 0 0 I I #
point $-1 78.056581316568497 -53.799891814505742 -3.3585775827948074 #
point $-1 78.056581316568497 -36.37807992383928 -3.3585775827948074 #
straight-curve $-1 -78.056581316568497 -22.544492934586255 3.3316761562410795 0 1 0 I I #
edge $-1 $120 -3.3384015128795115 $153 3.3518522261563755 $146 $170 forward 7 unknown #
point $-1 -78.056581316568497 -36.37807992383928 3.3316761562410795 #
edge $-1 $124 -3.3316761562410795 $151 3.3585775827948074 $147 $171 forward 7 unknown #
point $-1 -78.056581316568497 -53.799891814505742 3.3316761562410795 #
straight-curve $-1 78.056581316568497 -53.799891814505742 0 0 0 -1 I I #
straight-curve $-1 -78.056581316568497 53.799891814505742 0 0 0 -1 I I #
point $-1 -78.056581316568497 -53.799891814505742 -18.54304141927804 #
straight-curve $-1 -78.056581316568497 0 -18.54304141927804 0 1 0 I I #
point $-1 -78.056581316568497 53.799891814505742 -18.54304141927804 #
straight-curve $-1 -78.056581316568497 -22.544492934586255 -3.3585775827948074 0 -1 0 I I #
point $-1 -78.056581316568497 -53.799891814505742 -3.3585775827948074 #
point $-1 -78.056581316568497 -36.37807992383928 -3.3585775827948074 #
straight-curve $-1 -78.056581316568497 -36.37807992383928 -0.0067253566384319896 0 0 -1 I I #
straight-curve $-1 -78.056581316568497 -53.799891814505742 0 0 0 -1 I I #
End-of-ACIS-data 