500 0 6 0           
7 Unknown 11 ACIS 5.0 NT 24 Thu Mar 25 22:52:05 1999 
-1 9.9999999999999995e-007 1e-010 
body $-1 $6 $-1 $7 #
body $-1 $8 $-1 $9 #
body $-1 $10 $-1 $11 #
body $-1 $12 $-1 $13 #
body $-1 $14 $-1 $15 #
body $-1 $16 $-1 $17 #
lump $-1 $-1 $18 $0 #
transform $-1 1 0 0 0 1 0 0 0 1 66.14581743827631 40.774747070902293 14.413207966046109 1 rotate no_reflect no_shear #
lump $-1 $-1 $19 $1 #
transform $-1 1 0 0 0 1 0 0 0 1 66.14581743827631 40.774747070902293 14.413207966046109 1 rotate no_reflect no_shear #
lump $-1 $-1 $20 $2 #
transform $-1 1 0 0 0 1 0 0 0 1 66.14581743827631 40.774747070902293 14.413207966046109 1 rotate no_reflect no_shear #
lump $-1 $-1 $21 $3 #
transform $-1 1 0 0 0 1 0 0 0 1 66.14581743827631 40.774747070902293 14.413207966046109 1 rotate no_reflect no_shear #
lump $-1 $-1 $22 $4 #
transform $-1 1 0 0 0 1 0 0 0 1 66.14581743827631 40.774747070902293 14.413207966046109 1 rotate no_reflect no_shear #
lump $-1 $-1 $23 $5 #
transform $-1 1 0 0 0 1 0 0 0 1 66.14581743827631 40.774747070902293 14.413207966046109 1 rotate no_reflect no_shear #
shell $-1 $-1 $-1 $24 $-1 $6 #
shell $-1 $-1 $-1 $25 $-1 $8 #
shell $-1 $-1 $-1 $26 $-1 $10 #
shell $-1 $-1 $-1 $27 $-1 $12 #
shell $-1 $-1 $-1 $28 $-1 $14 #
shell $-1 $-1 $-1 $29 $-1 $16 #
face $-1 $30 $31 $18 $-1 $32 forward single #
face $-1 $33 $34 $19 $-1 $35 reversed single #
face $-1 $36 $37 $20 $-1 $38 reversed single #
face $-1 $39 $40 $21 $-1 $41 reversed single #
face $-1 $42 $43 $22 $-1 $44 forward single #
face $-1 $45 $46 $23 $-1 $47 forward single #
face $-1 $48 $49 $18 $-1 $50 reversed single #
loop $-1 $-1 $51 $24 #
plane-surface $-1 0 0 14.413207966046109 0 0 1 1 0 0 forward_v I I I I #
face $-1 $52 $53 $19 $-1 $54 reversed single #
loop $-1 $-1 $55 $25 #
plane-surface $-1 0 -35.758412298298602 7.7987124837431256 0 0 1 1 0 0 forward_v I I I I #
face $-1 $56 $57 $20 $-1 $58 reversed single #
loop $-1 $-1 $59 $26 #
plane-surface $-1 0 35.758412298298595 7.7987124837431256 0 0 1 1 0 0 forward_v I I I I #
face $-1 $60 $61 $21 $-1 $62 reversed single #
loop $-1 $-1 $63 $27 #
plane-surface $-1 24.060035665835443 20.402445863499626 189.44897172281202 0 -1 0 -0.52991927123019833 0 -0.84804809178421925 forward_v I I I I #
face $-1 $64 $65 $22 $-1 $66 forward single #
loop $-1 $67 $68 $28 #
cone-surface $-1 59.108301711907551 9.869247695190758 8.8157909016342977 -0.52991927123019833 0 -0.84804809178421925 1.6960961835684385 0 -1.0598385424603967 1 I I 0 1 2 forward I I I I #
face $-1 $69 $70 $23 $-1 $71 forward single #
loop $-1 $72 $73 $29 #
cone-surface $-1 59.108301711907551 16.189166596176079 8.8157909016342977 -0.52991927123019833 0 -0.84804809178421925 1.6960961835684385 0 -1.0598385424603967 1 I I 0 1 2 forward I I I I #
face $-1 $74 $75 $18 $-1 $76 reversed single #
loop $-1 $-1 $77 $30 #
plane-surface $-1 0 0 -14.413207966046109 0 0 1 1 0 0 forward_v I I I I #
coedge $-1 $78 $79 $80 $81 forward $31 $-1 #
face $-1 $82 $83 $19 $-1 $84 reversed single #
loop $-1 $-1 $85 $33 #
plane-surface $-1 0 -30.742077525694913 11.105960224894616 0 -1 0 0 0 -1 forward_v I I I I #
coedge $-1 $86 $87 $88 $89 reversed $34 $-1 #
face $-1 $90 $91 $20 $-1 $92 forward single #
loop $-1 $-1 $93 $36 #
plane-surface $-1 0 30.742077525694903 11.105960224894616 0 1 0 0 0 1 forward_v I I I I #
coedge $-1 $94 $95 $96 $97 reversed $37 $-1 #
face $-1 $98 $99 $21 $-1 $100 reversed single #
loop $-1 $-1 $101 $39 #
plane-surface $-1 -46.043851077798806 13.029207145683415 77.259303206736902 0.52991927123019833 0 0.84804809178421925 0.84804809178421925 0 -0.52991927123019833 forward_v I I I I #
coedge $-1 $102 $103 $104 $105 reversed $40 $-1 #
face $-1 $-1 $106 $22 $-1 $107 forward single #
loop $-1 $108 $109 $42 #
cone-surface $-1 57.348313781057342 9.869247695190758 5.9992214969099962 -0.52991927123019833 0 -0.84804809178421925 0.84804809178421925 0 -0.52991927123019833 1 I I -0.70710678118654746 0.70710678118654746 1 forward I I I I #
loop $-1 $-1 $110 $28 #
coedge $-1 $68 $68 $111 $112 reversed $43 $-1 #
face $-1 $-1 $113 $23 $-1 $114 forward single #
loop $-1 $115 $116 $45 #
cone-surface $-1 57.348313781057342 16.189166596176079 5.9992214969099962 -0.52991927123019833 0 -0.84804809178421925 0.84804809178421925 0 -0.52991927123019833 1 I I -0.70710678118654746 0.70710678118654746 1 forward I I I I #
loop $-1 $-1 $117 $29 #
coedge $-1 $73 $73 $118 $119 reversed $46 $-1 #
face $-1 $120 $121 $18 $-1 $122 reversed single #
loop $-1 $-1 $123 $48 #
plane-surface $-1 0 -40.774747070902293 0 0 1 0 0 0 1 forward_v I I I I #
coedge $-1 $124 $125 $126 $127 forward $49 $-1 #
coedge $-1 $128 $51 $129 $130 forward $31 $-1 #
coedge $-1 $51 $128 $131 $132 forward $31 $-1 #
coedge $-1 $133 $134 $51 $81 reversed $135 $-1 #
edge $-1 $136 -40.774747070902293 $137 40.774747070902293 $80 $138 forward 7 unknown #
face $-1 $139 $140 $19 $-1 $141 reversed single #
loop $-1 $-1 $142 $52 #
plane-surface $-1 -66.14581743827631 0 0 1 0 0 0 0 -1 forward_v I I I I #
coedge $-1 $143 $144 $145 $146 reversed $53 $-1 #
coedge $-1 $147 $55 $148 $149 reversed $34 $-1 #
coedge $-1 $55 $147 $143 $150 forward $34 $-1 #
coedge $-1 $145 $151 $55 $89 forward $152 $-1 #
edge $-1 $153 -22.895540921752993 $154 -12.862871376545613 $88 $155 forward 7 unknown #
face $-1 $156 $157 $20 $-1 $158 reversed single #
loop $-1 $-1 $159 $56 #
plane-surface $-1 0 0 14.413207966046109 0 0 1 1 0 0 forward_v I I I I #
coedge $-1 $160 $161 $162 $163 reversed $57 $-1 #
coedge $-1 $164 $59 $160 $165 forward $37 $-1 #
coedge $-1 $59 $164 $166 $167 reversed $37 $-1 #
coedge $-1 $168 $169 $59 $97 forward $157 $-1 #
edge $-1 $170 12.862871376545606 $171 22.895540921752989 $96 $172 forward 7 unknown #
face $-1 $173 $174 $21 $-1 $175 forward single #
loop $-1 $-1 $176 $60 #
plane-surface $-1 24.060035665835443 5.6559684278672044 189.44897172281202 0 1 0 0.52991927123019833 0 0.84804809178421925 forward_v I I I I #
coedge $-1 $177 $178 $179 $180 reversed $61 $-1 #
coedge $-1 $103 $63 $181 $182 reversed $40 $-1 #
coedge $-1 $63 $102 $177 $183 reversed $40 $-1 #
coedge $-1 $179 $184 $63 $105 forward $174 $-1 #
edge $-1 $185 -54.115799605358589 $186 -42.500905471861046 $104 $187 forward 7 unknown #
loop $-1 $-1 $111 $64 #
plane-surface $-1 -46.043851077798806 13.029207145683415 77.259303206736902 0.52991927123019833 0 0.84804809178421925 0.84804809178421925 0 -0.52991927123019833 forward_v I I I I #
loop $-1 $-1 $188 $42 #
coedge $-1 $109 $109 $110 $189 reversed $65 $-1 #
coedge $-1 $110 $110 $109 $189 forward $67 $-1 #
coedge $-1 $111 $111 $68 $112 forward $106 $-1 #
edge $-1 $190 0 $190 6.2831853071796004 $111 $191 forward 7 unknown #
loop $-1 $-1 $118 $69 #
plane-surface $-1 -46.043851077798806 13.029207145683415 77.259303206736902 0.52991927123019833 0 0.84804809178421925 0.84804809178421925 0 -0.52991927123019833 forward_v I I I I #
loop $-1 $-1 $192 $45 #
coedge $-1 $116 $116 $117 $193 reversed $70 $-1 #
coedge $-1 $117 $117 $116 $193 forward $72 $-1 #
coedge $-1 $118 $118 $73 $119 forward $113 $-1 #
edge $-1 $194 0 $194 6.2831853071796004 $118 $195 forward 7 unknown #
face $-1 $196 $197 $18 $-1 $198 reversed single #
loop $-1 $-1 $199 $74 #
plane-surface $-1 -66.14581743827631 0 0 1 0 0 0 0 -1 forward_v I I I I #
coedge $-1 $200 $131 $201 $202 forward $75 $-1 #
coedge $-1 $203 $77 $200 $204 forward $49 $-1 #
coedge $-1 $77 $203 $205 $206 forward $49 $-1 #
coedge $-1 $134 $133 $77 $127 reversed $135 $-1 #
edge $-1 $207 -40.774747070902293 $208 40.774747070902293 $126 $209 forward 7 unknown #
coedge $-1 $79 $78 $210 $211 forward $31 $-1 #
coedge $-1 $212 $213 $78 $130 reversed $197 $-1 #
edge $-1 $137 -66.14581743827631 $214 66.14581743827631 $129 $215 forward 7 unknown #
coedge $-1 $123 $216 $79 $132 reversed $75 $-1 #
edge $-1 $217 -66.14581743827631 $136 66.14581743827631 $131 $218 forward 7 unknown #
coedge $-1 $126 $80 $216 $219 forward $135 $-1 #
coedge $-1 $80 $126 $212 $220 reversed $135 $-1 #
loop $-1 $-1 $133 $196 #
vertex $-1 $81 $221 #
vertex $-1 $81 $222 #
straight-curve $-1 66.14581743827631 0 14.413207966046109 0 1 0 I I #
face $-1 $223 $224 $19 $-1 $225 forward single #
loop $-1 $-1 $148 $82 #
plane-surface $-1 0 -40.774747070902293 0 0 1 0 0 0 1 forward_v I I I I #
coedge $-1 $226 $227 $228 $229 forward $83 $-1 #
coedge $-1 $228 $85 $87 $150 reversed $53 $-1 #
coedge $-1 $85 $228 $230 $231 reversed $53 $-1 #
coedge $-1 $232 $88 $85 $146 forward $152 $-1 #
edge $-1 $154 2.2457323712958175 $233 8.8602278535987988 $145 $234 forward 7 unknown #
coedge $-1 $87 $86 $226 $235 reversed $34 $-1 #
coedge $-1 $236 $237 $86 $149 forward $140 $-1 #
edge $-1 $238 -66.14581743827631 $153 66.14581743827631 $148 $239 forward 7 unknown #
edge $-1 $240 -66.14581743827631 $154 66.14581743827631 $143 $241 forward 7 unknown #
coedge $-1 $88 $232 $236 $242 forward $152 $-1 #
loop $-1 $-1 $145 $223 #
vertex $-1 $149 $243 #
vertex $-1 $89 $244 #
straight-curve $-1 66.14581743827631 -17.879206149149301 7.7987124837431256 0 1 0 I I #
face $-1 $245 $246 $20 $-1 $247 reversed single #
loop $-1 $-1 $169 $90 #
plane-surface $-1 66.14581743827631 0 0 -1 0 0 0 0 1 forward_v I I I I #
coedge $-1 $248 $249 $161 $250 forward $91 $-1 #
coedge $-1 $251 $93 $94 $165 reversed $57 $-1 #
coedge $-1 $93 $251 $159 $250 reversed $57 $-1 #
coedge $-1 $252 $253 $93 $163 forward $246 $-1 #
edge $-1 $254 2.2457323712958175 $255 8.8602278535987988 $162 $256 forward 7 unknown #
coedge $-1 $95 $94 $253 $257 reversed $37 $-1 #
edge $-1 $170 -66.14581743827631 $254 66.14581743827631 $160 $258 forward 7 unknown #
coedge $-1 $259 $260 $95 $167 forward $261 $-1 #
edge $-1 $171 -66.14581743827631 $262 66.14581743827631 $166 $263 forward 7 unknown #
coedge $-1 $264 $96 $260 $265 reversed $157 $-1 #
coedge $-1 $96 $264 $251 $266 forward $157 $-1 #
vertex $-1 $97 $267 #
vertex $-1 $167 $268 #
straight-curve $-1 66.14581743827631 17.879206149149297 7.7987124837431256 0 1 0 I I #
face $-1 $-1 $269 $21 $-1 $270 reversed single #
loop $-1 $-1 $104 $98 #
plane-surface $-1 0 0 14.413207966046109 0 0 1 1 0 0 forward_v I I I I #
coedge $-1 $271 $272 $273 $274 reversed $99 $-1 #
coedge $-1 $275 $101 $103 $183 forward $61 $-1 #
coedge $-1 $101 $275 $271 $276 forward $61 $-1 #
coedge $-1 $273 $104 $101 $180 forward $174 $-1 #
edge $-1 $186 -13.887842290657918 $277 0.85863514497450311 $179 $278 forward 7 unknown #
coedge $-1 $279 $280 $102 $182 forward $269 $-1 #
edge $-1 $281 -87.569069398303355 $185 -80.311277895359893 $181 $282 forward 7 unknown #
edge $-1 $186 118.5956024863838 $281 132.29163487655262 $103 $283 forward 7 unknown #
coedge $-1 $104 $273 $279 $284 forward $174 $-1 #
vertex $-1 $182 $285 #
vertex $-1 $105 $286 #
straight-curve $-1 12.030017832917721 20.402445863499626 14.413207966046116 -1 0 0 I I #
coedge $-1 $188 $188 $-1 $287 reversed $108 $-1 #
edge $-1 $288 0 $288 6.2831853071796004 $109 $289 forward 7 unknown #
vertex $-1 $112 $290 #
ellipse-curve $-1 60.338370371527553 9.869247695190758 10.784312214574367 0.52991927123019833 0 0.84804809178421925 1.6960961835684385 0 -1.0598385424603967 1 I I #
coedge $-1 $192 $192 $-1 $291 reversed $115 $-1 #
edge $-1 $292 0 $292 6.2831853071796004 $116 $293 forward 7 unknown #
vertex $-1 $119 $294 #
ellipse-curve $-1 60.338370371527553 16.189166596176079 10.784312214574367 0.52991927123019833 0 0.84804809178421925 1.6960961835684385 0 -1.0598385424603967 1 I I #
face $-1 $-1 $135 $18 $-1 $295 reversed single #
loop $-1 $-1 $212 $120 #
plane-surface $-1 0 40.774747070902293 0 0 -1 0 0 0 -1 forward_v I I I I #
coedge $-1 $296 $210 $213 $297 forward $121 $-1 #
coedge $-1 $216 $123 $124 $204 reversed $75 $-1 #
coedge $-1 $210 $296 $123 $202 reversed $121 $-1 #
edge $-1 $217 -14.413207966046109 $298 14.413207966046109 $201 $299 forward 7 unknown #
coedge $-1 $125 $124 $296 $300 forward $49 $-1 #
edge $-1 $208 -66.14581743827631 $298 66.14581743827631 $200 $301 forward 7 unknown #
coedge $-1 $213 $212 $125 $206 reversed $197 $-1 #
edge $-1 $302 -66.14581743827631 $207 66.14581743827631 $205 $303 forward 7 unknown #
vertex $-1 $127 $304 #
vertex $-1 $219 $305 #
straight-curve $-1 66.14581743827631 0 -14.413207966046109 0 -1 0 I I #
coedge $-1 $199 $201 $128 $211 reversed $121 $-1 #
edge $-1 $214 -40.774747070902293 $217 40.774747070902293 $210 $306 forward 7 unknown #
coedge $-1 $205 $129 $134 $220 forward $197 $-1 #
coedge $-1 $129 $205 $199 $297 reversed $197 $-1 #
vertex $-1 $130 $307 #
straight-curve $-1 0 40.774747070902293 14.413207966046109 -1 0 0 I I #
coedge $-1 $131 $200 $133 $219 reversed $75 $-1 #
vertex $-1 $211 $308 #
straight-curve $-1 0 -40.774747070902293 14.413207966046109 1 0 0 I I #
edge $-1 $136 -14.413207966046109 $208 14.413207966046109 $133 $309 forward 7 unknown #
edge $-1 $137 -14.413207966046109 $207 14.413207966046109 $134 $310 forward 7 unknown #
point $-1 66.14581743827631 -40.774747070902293 14.413207966046109 #
point $-1 66.14581743827631 40.774747070902293 14.413207966046109 #
face $-1 $-1 $152 $19 $-1 $311 reversed single #
loop $-1 $-1 $230 $139 #
plane-surface $-1 0 0 14.413207966046109 0 0 1 1 0 0 forward_v I I I I #
coedge $-1 $312 $142 $147 $235 forward $83 $-1 #
coedge $-1 $142 $312 $313 $314 reversed $83 $-1 #
coedge $-1 $144 $143 $142 $229 reversed $53 $-1 #
edge $-1 $315 -8.8602278535987988 $240 -2.2457323712958175 $142 $316 forward 7 unknown #
coedge $-1 $313 $317 $144 $231 forward $224 $-1 #
edge $-1 $233 -66.14581743827631 $315 66.14581743827631 $230 $318 forward 7 unknown #
coedge $-1 $151 $145 $317 $319 reversed $152 $-1 #
vertex $-1 $146 $320 #
straight-curve $-1 66.14581743827631 -30.742077525694913 5.5529801124473082 0 0 1 I I #
edge $-1 $240 12.862871376545613 $238 22.895540921752993 $226 $321 forward 7 unknown #
coedge $-1 $322 $148 $151 $242 reversed $140 $-1 #
coedge $-1 $148 $322 $312 $323 forward $140 $-1 #
vertex $-1 $149 $324 #
straight-curve $-1 0 -40.774747070902293 7.7987124837431256 1 0 0 I I #
vertex $-1 $235 $325 #
straight-curve $-1 0 -30.742077525694913 7.7987124837431256 1 0 0 I I #
edge $-1 $326 -14.413207966046109 $153 -7.7987124837431256 $151 $327 forward 7 unknown #
point $-1 66.14581743827631 -40.774747070902293 7.7987124837431256 #
point $-1 66.14581743827631 -30.742077525694913 7.7987124837431256 #
face $-1 $-1 $261 $20 $-1 $328 reversed single #
loop $-1 $-1 $162 $156 #
plane-surface $-1 -66.14581743827631 0 0 1 0 0 0 0 -1 forward_v I I I I #
coedge $-1 $329 $159 $264 $330 forward $91 $-1 #
coedge $-1 $159 $329 $252 $331 forward $91 $-1 #
edge $-1 $255 -66.14581743827631 $332 66.14581743827631 $159 $333 forward 7 unknown #
coedge $-1 $161 $160 $169 $266 reversed $57 $-1 #
coedge $-1 $334 $162 $249 $331 reversed $246 $-1 #
coedge $-1 $162 $334 $164 $257 forward $246 $-1 #
vertex $-1 $257 $335 #
vertex $-1 $163 $336 #
straight-curve $-1 -66.14581743827631 30.742077525694903 5.5529801124473082 0 0 1 I I #
edge $-1 $262 -22.895540921752989 $254 -12.862871376545606 $253 $337 forward 7 unknown #
straight-curve $-1 0 30.742077525694903 7.7987124837431256 -1 0 0 I I #
coedge $-1 $338 $166 $334 $339 reversed $261 $-1 #
coedge $-1 $166 $338 $168 $265 forward $261 $-1 #
loop $-1 $-1 $166 $245 #
vertex $-1 $167 $340 #
straight-curve $-1 0 40.774747070902293 7.7987124837431256 -1 0 0 I I #
coedge $-1 $169 $168 $248 $330 reversed $157 $-1 #
edge $-1 $341 -14.413207966046109 $171 -7.7987124837431256 $168 $342 forward 7 unknown #
edge $-1 $332 -8.8602278535987988 $170 -2.2457323712958175 $169 $343 forward 7 unknown #
point $-1 66.14581743827631 30.742077525694903 7.7987124837431256 #
point $-1 66.14581743827631 40.774747070902286 7.7987124837431256 #
loop $-1 $-1 $181 $173 #
plane-surface $-1 66.14581743827631 0 0 -1 0 0 0 0 1 forward_v I I I I #
coedge $-1 $272 $176 $178 $276 reversed $99 $-1 #
coedge $-1 $176 $271 $344 $345 reversed $99 $-1 #
coedge $-1 $184 $179 $176 $274 forward $174 $-1 #
edge $-1 $277 42.500905471861046 $346 54.115799605358589 $273 $347 forward 7 unknown #
coedge $-1 $178 $177 $280 $348 reversed $61 $-1 #
edge $-1 $349 -132.29163487655262 $277 -118.5956024863838 $271 $350 forward 7 unknown #
vertex $-1 $180 $351 #
straight-curve $-1 54.530923304778788 6.5146035728417075 14.413207966046102 0 -1 0 I I #
coedge $-1 $344 $181 $184 $284 reversed $269 $-1 #
coedge $-1 $181 $344 $275 $348 forward $269 $-1 #
vertex $-1 $182 $352 #
straight-curve $-1 66.14581743827631 20.402445863499626 94.724485861406009 0 0 1 I I #
straight-curve $-1 -46.043851077798806 20.402445863499626 77.259303206736902 0.84804809178421925 0 -0.52991927123019833 I I #
edge $-1 $346 5.6559684278672044 $185 20.402445863499626 $279 $353 forward 7 unknown #
point $-1 66.14581743827631 20.402445863499626 14.413207966046109 #
point $-1 54.530923304778767 20.402445863499626 14.413207966046109 #
edge $-1 $354 1 $354 0 $188 $-1 forward 7 unknown #
vertex $-1 $189 $355 #
ellipse-curve $-1 57.878233052287541 9.869247695190758 6.8472695886942159 0.52991927123019833 0 0.84804809178421925 1.6960961835684385 0 -1.0598385424603967 1 I I #
point $-1 62.034466555096003 9.869247695190758 9.7244736721139837 #
edge $-1 $356 1 $356 0 $192 $-1 forward 7 unknown #
vertex $-1 $193 $357 #
ellipse-curve $-1 57.878233052287541 16.189166596176079 6.8472695886942159 0.52991927123019833 0 0.84804809178421925 1.6960961835684385 0 -1.0598385424603967 1 I I #
point $-1 62.034466555096003 16.189166596176079 9.7244736721139837 #
plane-surface $-1 66.14581743827631 0 0 -1 0 0 0 0 1 forward_v I I I I #
coedge $-1 $201 $199 $203 $300 reversed $121 $-1 #
edge $-1 $214 -14.413207966046109 $302 14.413207966046109 $213 $358 forward 7 unknown #
vertex $-1 $300 $359 #
straight-curve $-1 -66.14581743827631 -40.774747070902293 0 0 0 -1 I I #
edge $-1 $298 -40.774747070902293 $302 40.774747070902293 $296 $360 forward 7 unknown #
straight-curve $-1 0 -40.774747070902293 -14.413207966046109 -1 0 0 I I #
vertex $-1 $206 $361 #
straight-curve $-1 0 40.774747070902293 -14.413207966046109 1 0 0 I I #
point $-1 66.14581743827631 40.774747070902293 -14.413207966046109 #
point $-1 66.14581743827631 -40.774747070902293 -14.413207966046109 #
straight-curve $-1 -66.14581743827631 0 14.413207966046109 0 -1 0 I I #
point $-1 -66.14581743827631 40.774747070902293 14.413207966046109 #
point $-1 -66.14581743827631 -40.774747070902293 14.413207966046109 #
straight-curve $-1 66.14581743827631 -40.774747070902293 0 0 0 -1 I I #
straight-curve $-1 66.14581743827631 40.774747070902293 0 0 0 -1 I I #
plane-surface $-1 66.14581743827631 0 0 -1 0 0 0 0 1 forward_v I I I I #
coedge $-1 $227 $226 $237 $323 reversed $83 $-1 #
coedge $-1 $362 $230 $227 $314 forward $224 $-1 #
edge $-1 $315 30.742077525694913 $363 40.774747070902293 $227 $364 forward 7 unknown #
vertex $-1 $314 $365 #
straight-curve $-1 -66.14581743827631 -30.742077525694913 5.5529801124473082 0 0 -1 I I #
coedge $-1 $230 $362 $232 $319 forward $224 $-1 #
straight-curve $-1 0 -30.742077525694913 14.413207966046109 -1 0 0 I I #
edge $-1 $326 -40.774747070902293 $233 -30.742077525694913 $232 $366 forward 7 unknown #
point $-1 66.14581743827631 -30.742077525694913 14.413207966046107 #
straight-curve $-1 -66.14581743827631 -17.879206149149301 7.7987124837431256 0 -1 0 I I #
coedge $-1 $237 $236 $362 $367 reversed $140 $-1 #
edge $-1 $363 -14.413207966046109 $238 -7.7987124837431256 $312 $368 forward 7 unknown #
point $-1 -66.14581743827631 -40.774747070902293 7.7987124837431256 #
point $-1 -66.14581743827631 -30.742077525694913 7.7987124837431256 #
vertex $-1 $319 $369 #
straight-curve $-1 66.14581743827631 -40.774747070902293 0 0 0 -1 I I #
plane-surface $-1 0 40.774747070902293 0 0 -1 0 0 0 -1 forward_v I I I I #
coedge $-1 $249 $248 $338 $370 forward $91 $-1 #
edge $-1 $332 30.742077525694903 $341 40.774747070902293 $264 $371 forward 7 unknown #
edge $-1 $372 -40.774747070902293 $255 -30.742077525694903 $252 $373 forward 7 unknown #
vertex $-1 $330 $374 #
straight-curve $-1 0 30.742077525694903 14.413207966046109 1 0 0 I I #
coedge $-1 $253 $252 $259 $339 forward $246 $-1 #
point $-1 -66.14581743827631 30.742077525694903 7.7987124837431256 #
point $-1 -66.14581743827631 30.742077525694903 14.413207966046107 #
straight-curve $-1 -66.14581743827631 17.879206149149297 7.7987124837431256 0 -1 0 I I #
coedge $-1 $260 $259 $329 $370 reversed $261 $-1 #
edge $-1 $372 -14.413207966046109 $262 -7.7987124837431256 $259 $375 forward 7 unknown #
point $-1 -66.14581743827631 40.774747070902286 7.7987124837431256 #
vertex $-1 $330 $376 #
straight-curve $-1 66.14581743827631 40.774747070902293 0 0 0 -1 I I #
straight-curve $-1 66.14581743827631 30.742077525694903 5.5529801124473082 0 0 -1 I I #
coedge $-1 $280 $279 $272 $345 forward $269 $-1 #
edge $-1 $346 80.311277895359893 $349 87.569069398303355 $344 $377 forward 7 unknown #
vertex $-1 $284 $378 #
straight-curve $-1 12.030017832917721 5.6559684278672044 14.413207966046116 1 0 0 I I #
edge $-1 $349 -0.85863514497450311 $281 13.887842290657918 $280 $379 forward 7 unknown #
vertex $-1 $348 $380 #
straight-curve $-1 -46.043851077798806 5.6559684278672044 77.259303206736902 -0.84804809178421925 0 0.52991927123019833 I I #
point $-1 54.530923304778767 5.6559684278672044 14.413207966046109 #
point $-1 66.14581743827631 20.402445863499626 7.1554164631026538 #
straight-curve $-1 66.14581743827631 0 14.413207966046109 0 1 0 I I #
vertex $-1 $287 $381 #
point $-1 59.574329235855977 9.869247695190758 5.7874310462338183 #
vertex $-1 $291 $382 #
point $-1 59.574329235855977 16.189166596176079 5.7874310462338183 #
straight-curve $-1 -66.14581743827631 40.774747070902293 0 0 0 -1 I I #
point $-1 -66.14581743827631 -40.774747070902293 -14.413207966046109 #
straight-curve $-1 -66.14581743827631 0 -14.413207966046109 0 1 0 I I #
point $-1 -66.14581743827631 40.774747070902293 -14.413207966046109 #
coedge $-1 $317 $313 $322 $367 forward $224 $-1 #
vertex $-1 $314 $383 #
straight-curve $-1 -66.14581743827631 0 14.413207966046109 0 -1 0 I I #
point $-1 -66.14581743827631 -30.742077525694913 14.413207966046107 #
straight-curve $-1 66.14581743827631 0 14.413207966046109 0 1 0 I I #
edge $-1 $363 -66.14581743827631 $326 66.14581743827631 $322 $384 forward 7 unknown #
straight-curve $-1 -66.14581743827631 -40.774747070902293 0 0 0 -1 I I #
point $-1 66.14581743827631 -40.774747070902293 14.413207966046109 #
edge $-1 $341 -66.14581743827631 $372 66.14581743827631 $338 $385 forward 7 unknown #
straight-curve $-1 66.14581743827631 0 14.413207966046109 0 1 0 I I #
vertex $-1 $370 $386 #
straight-curve $-1 -66.14581743827631 0 14.413207966046109 0 -1 0 I I #
point $-1 66.14581743827631 30.742077525694903 14.413207966046107 #
straight-curve $-1 -66.14581743827631 40.774747070902293 0 0 0 -1 I I #
point $-1 66.14581743827631 40.774747070902293 14.413207966046109 #
straight-curve $-1 66.14581743827631 5.6559684278672044 94.724485861406009 0 0 -1 I I #
point $-1 66.14581743827631 5.6559684278672044 14.413207966046109 #
straight-curve $-1 66.14581743827631 6.5146035728417075 7.1554164631026467 0 1 0 I I #
point $-1 66.14581743827631 5.6559684278672044 7.1554164631026538 #
point $-1 56.818394509827144 9.869247695190758 5.1511734051257765 #
point $-1 56.818394509827144 16.189166596176079 5.1511734051257765 #
point $-1 -66.14581743827631 -40.774747070902293 14.413207966046109 #
straight-curve $-1 0 -40.774747070902293 14.413207966046109 1 0 0 I I #
straight-curve $-1 0 40.774747070902293 14.413207966046109 -1 0 0 I I #
point $-1 -66.14581743827631 40.774747070902293 14.413207966046109 #
End-of-ACIS-data 