500 0 9 0           
7 Unknown 11 ACIS 5.0 NT 24 Thu Mar 25 15:24:30 1999 
-1 9.9999999999999995e-007 1e-010 
body $-1 $9 $-1 $10 #
body $-1 $11 $-1 $12 #
body $-1 $13 $-1 $14 #
body $-1 $15 $-1 $16 #
body $-1 $17 $-1 $18 #
body $-1 $19 $-1 $20 #
body $-1 $21 $-1 $22 #
body $-1 $23 $-1 $24 #
body $-1 $25 $-1 $26 #
lump $-1 $-1 $27 $0 #
transform $-1 1 0 0 0 1 0 0 0 1 77.29972228156376 37.975166460996512 9.7103405777186005 1 rotate no_reflect no_shear #
lump $-1 $-1 $28 $1 #
transform $-1 1 0 0 0 1 0 0 0 1 77.29972228156376 37.975166460996512 9.7103405777186005 1 rotate no_reflect no_shear #
lump $-1 $-1 $29 $2 #
transform $-1 1 0 0 0 1 0 0 0 1 77.29972228156376 37.975166460996512 9.7103405777186005 1 rotate no_reflect no_shear #
lump $-1 $-1 $30 $3 #
transform $-1 1 0 0 0 1 0 0 0 1 77.29972228156376 37.975166460996512 9.7103405777186005 1 rotate no_reflect no_shear #
lump $-1 $-1 $31 $4 #
transform $-1 1 0 0 0 1 0 0 0 1 77.29972228156376 37.975166460996512 9.7103405777186005 1 rotate no_reflect no_shear #
lump $-1 $-1 $32 $5 #
transform $-1 1 0 0 0 1 0 0 0 1 77.29972228156376 37.975166460996512 9.7103405777186005 1 rotate no_reflect no_shear #
lump $-1 $-1 $33 $6 #
transform $-1 1 0 0 0 1 0 0 0 1 77.29972228156376 37.975166460996512 9.7103405777186005 1 rotate no_reflect no_shear #
lump $-1 $-1 $34 $7 #
transform $-1 1 0 0 0 1 0 0 0 1 77.29972228156376 37.975166460996512 9.7103405777186005 1 rotate no_reflect no_shear #
lump $-1 $-1 $35 $8 #
transform $-1 1 0 0 0 1 0 0 0 1 77.29972228156376 37.975166460996512 9.7103405777186005 1 rotate no_reflect no_shear #
shell $-1 $-1 $-1 $36 $-1 $9 #
shell $-1 $-1 $-1 $37 $-1 $11 #
shell $-1 $-1 $-1 $38 $-1 $13 #
shell $-1 $-1 $-1 $39 $-1 $15 #
shell $-1 $-1 $-1 $40 $-1 $17 #
shell $-1 $-1 $-1 $41 $-1 $19 #
shell $-1 $-1 $-1 $42 $-1 $21 #
shell $-1 $-1 $-1 $43 $-1 $23 #
shell $-1 $-1 $-1 $44 $-1 $25 #
face $-1 $45 $46 $27 $-1 $47 forward single #
face $-1 $48 $49 $28 $-1 $50 reversed single #
face $-1 $51 $52 $29 $-1 $53 reversed single #
face $-1 $54 $55 $30 $-1 $56 forward single #
face $-1 $57 $58 $31 $-1 $59 forward single #
face $-1 $60 $61 $32 $-1 $62 forward single #
face $-1 $63 $64 $33 $-1 $65 reversed single #
face $-1 $66 $67 $34 $-1 $68 forward single #
face $-1 $69 $70 $35 $-1 $71 forward single #
face $-1 $72 $73 $27 $-1 $74 reversed single #
loop $-1 $-1 $75 $36 #
plane-surface $-1 0 0 9.7103405777186005 0 0 1 1 0 0 forward_v I I I I #
face $-1 $76 $77 $28 $-1 $78 reversed single #
loop $-1 $-1 $79 $37 #
plane-surface $-1 -75.779803203634572 -33.71800284547934 0 1 0 0 0 0 -1 forward_v I I I I #
face $-1 $80 $81 $29 $-1 $82 reversed single #
loop $-1 $-1 $83 $38 #
plane-surface $-1 133.88704966970627 17.79787395955519 217.3628123396509 0 1 0 0.86602541151947299 0 0.49999998660252726 forward_v I I I I #
face $-1 $84 $85 $30 $-1 $86 forward single #
loop $-1 $87 $88 $39 #
cone-surface $-1 75.376775380313688 21.833332459843447 7.4220279819345105 -0.86602541151947299 0 -0.49999998660252726 0.49999998660252726 0 -0.86602541151947299 1 I I 0 1 1 forward I I I I #
face $-1 $89 $90 $31 $-1 $91 forward single #
loop $-1 $92 $93 $40 #
cone-surface $-1 75.376775380313688 27.88652021027584 7.4220279819345105 -0.86602541151947299 0 -0.49999998660252726 0.49999998660252726 0 -0.86602541151947299 1 I I 0 1 1 forward I I I I #
face $-1 $94 $95 $32 $-1 $96 forward single #
loop $-1 $97 $98 $41 #
cone-surface $-1 75.376775380313688 33.93970796070824 7.4220279819345105 -0.86602541151947299 0 -0.49999998660252726 0.49999998660252726 0 -0.86602541151947299 1 I I 0 1 1 forward I I I I #
face $-1 $99 $100 $33 $-1 $101 reversed single #
loop $-1 $-1 $102 $42 #
plane-surface $-1 -77.299722281563774 -19.896171587259264 4.5524726414589338 -0.54463904215088732 0 0.83867056331134215 0.83867056331134215 0 0.54463904215088732 forward_v I I I I #
face $-1 $103 $104 $34 $-1 $105 forward single #
loop $-1 $106 $107 $43 #
cone-surface $-1 -72.424502404050159 -23.995314862703363 5.7393534790081002 0.54463904215088732 0 -0.83867056331134215 1.2580058449670133 0 0.81695856322633098 1 I I 0 1 1.5 forward I I I I #
face $-1 $108 $109 $35 $-1 $110 forward single #
loop $-1 $111 $112 $44 #
cone-surface $-1 -72.424502404050159 -15.797028311815161 5.7393534790081002 0.54463904215088732 0 -0.83867056331134215 1.2580058449670133 0 0.81695856322633098 1 I I 0 1 1.5 forward I I I I #
face $-1 $113 $114 $27 $-1 $115 reversed single #
loop $-1 $-1 $116 $45 #
plane-surface $-1 0 0 -9.7103405777186005 0 0 1 1 0 0 forward_v I I I I #
coedge $-1 $117 $118 $119 $120 forward $46 $-1 #
face $-1 $121 $122 $28 $-1 $123 reversed single #
loop $-1 $-1 $124 $48 #
plane-surface $-1 -74.172812516333479 -29.460839229962168 0 0 -1 0 0 0 -1 forward_v I I I I #
coedge $-1 $125 $126 $127 $128 forward $49 $-1 #
face $-1 $129 $130 $29 $-1 $131 reversed single #
loop $-1 $-1 $132 $51 #
plane-surface $-1 2.0712418233870267e-006 27.886520210275854 140.06309212932899 0.86602541151947299 0 0.49999998660252726 0.49999998660252726 0 -0.86602541151947299 forward_v I I I I #
coedge $-1 $133 $134 $135 $136 reversed $52 $-1 #
face $-1 $-1 $137 $30 $-1 $138 forward single #
loop $-1 $139 $140 $54 #
cone-surface $-1 74.04107912387687 21.833332459843447 6.6508634162762199 -0.86602541151947299 0 -0.49999998660252726 0.24999999330126363 0 -0.43301270575973649 1 I I -0.70710678118654746 0.70710678118654746 0.5 forward I I I I #
loop $-1 $-1 $141 $39 #
coedge $-1 $88 $88 $142 $143 reversed $55 $-1 #
face $-1 $-1 $144 $31 $-1 $145 forward single #
loop $-1 $146 $147 $57 #
cone-surface $-1 74.04107912387687 27.88652021027584 6.6508634162762199 -0.86602541151947299 0 -0.49999998660252726 0.24999999330126363 0 -0.43301270575973649 1 I I -0.70710678118654746 0.70710678118654746 0.5 forward I I I I #
loop $-1 $-1 $148 $40 #
coedge $-1 $93 $93 $149 $150 reversed $58 $-1 #
face $-1 $-1 $151 $32 $-1 $152 forward single #
loop $-1 $153 $154 $60 #
cone-surface $-1 74.04107912387687 33.93970796070824 6.6508634162762199 -0.86602541151947299 0 -0.49999998660252726 0.24999999330126363 0 -0.43301270575973649 1 I I -0.70710678118654746 0.70710678118654746 0.5 forward I I I I #
loop $-1 $-1 $155 $41 #
coedge $-1 $98 $98 $156 $157 reversed $61 $-1 #
face $-1 $158 $159 $33 $-1 $160 forward single #
loop $-1 $-1 $161 $63 #
plane-surface $-1 -161.50061568548475 -10.331503944556363 134.21047590083771 0 -1 0 0.54463904215088732 0 -0.83867056331134215 forward_v I I I I #
coedge $-1 $162 $163 $164 $165 reversed $64 $-1 #
face $-1 $-1 $166 $34 $-1 $167 forward single #
loop $-1 $168 $169 $66 #
cone-surface $-1 -71.112013232464093 -23.995314862703363 3.7182974259439359 0.54463904215088732 0 -0.83867056331134215 0.62900292248350664 0 0.40847928161316549 1 I I -0.70710678118654757 0.70710678118654757 0.75 forward I I I I #
loop $-1 $-1 $170 $43 #
coedge $-1 $107 $107 $171 $172 reversed $67 $-1 #
face $-1 $-1 $173 $35 $-1 $174 forward single #
loop $-1 $175 $176 $69 #
cone-surface $-1 -71.112013232464093 -15.797028311815161 3.7182974259439359 0.54463904215088732 0 -0.83867056331134215 0.62900292248350664 0 0.40847928161316549 1 I I -0.70710678118654757 0.70710678118654757 0.75 forward I I I I #
loop $-1 $-1 $177 $44 #
coedge $-1 $112 $112 $178 $179 reversed $70 $-1 #
face $-1 $180 $181 $27 $-1 $182 reversed single #
loop $-1 $-1 $183 $72 #
plane-surface $-1 0 -37.975166460996512 0 0 1 0 0 0 1 forward_v I I I I #
coedge $-1 $184 $185 $186 $187 forward $73 $-1 #
coedge $-1 $188 $75 $189 $190 forward $46 $-1 #
coedge $-1 $75 $188 $191 $192 forward $46 $-1 #
coedge $-1 $193 $194 $75 $120 reversed $195 $-1 #
edge $-1 $196 -37.975166460996512 $197 37.975166460996512 $119 $198 forward 7 unknown #
face $-1 $199 $200 $28 $-1 $201 forward single #
loop $-1 $-1 $202 $76 #
plane-surface $-1 -72.565821829032387 -33.71800284547934 0 -1 0 0 0 0 1 forward_v I I I I #
coedge $-1 $203 $204 $205 $206 forward $77 $-1 #
coedge $-1 $207 $79 $208 $209 reversed $49 $-1 #
coedge $-1 $79 $207 $210 $211 reversed $49 $-1 #
coedge $-1 $204 $203 $79 $128 reversed $77 $-1 #
edge $-1 $212 -9.7103405777186005 $213 9.7103405777186005 $127 $214 forward 7 unknown #
face $-1 $215 $216 $29 $-1 $217 reversed single #
loop $-1 $-1 $135 $80 #
plane-surface $-1 77.29972228156376 0 0 -1 0 0 0 0 1 forward_v I I I I #
coedge $-1 $218 $219 $220 $221 reversed $81 $-1 #
coedge $-1 $134 $83 $222 $223 reversed $52 $-1 #
coedge $-1 $83 $133 $218 $224 reversed $52 $-1 #
coedge $-1 $220 $225 $83 $136 forward $130 $-1 #
edge $-1 $226 98.971065592106854 $227 102.50536163896093 $135 $228 forward 7 unknown #
loop $-1 $-1 $142 $84 #
plane-surface $-1 2.0712418233870267e-006 27.886520210275854 140.06309212932899 0.86602541151947299 0 0.49999998660252726 0.49999998660252726 0 -0.86602541151947299 forward_v I I I I #
loop $-1 $-1 $229 $54 #
coedge $-1 $140 $140 $141 $230 reversed $85 $-1 #
coedge $-1 $141 $141 $140 $230 forward $87 $-1 #
coedge $-1 $142 $142 $88 $143 forward $137 $-1 #
edge $-1 $231 0 $231 6.2831853071796004 $142 $232 forward 7 unknown #
loop $-1 $-1 $149 $89 #
plane-surface $-1 2.0712418233870267e-006 27.886520210275854 140.06309212932899 0.86602541151947299 0 0.49999998660252726 0.49999998660252726 0 -0.86602541151947299 forward_v I I I I #
loop $-1 $-1 $233 $57 #
coedge $-1 $147 $147 $148 $234 reversed $90 $-1 #
coedge $-1 $148 $148 $147 $234 forward $92 $-1 #
coedge $-1 $149 $149 $93 $150 forward $144 $-1 #
edge $-1 $235 0 $235 6.2831853071796004 $149 $236 forward 7 unknown #
loop $-1 $-1 $156 $94 #
plane-surface $-1 2.0712418233870267e-006 27.886520210275854 140.06309212932899 0.86602541151947299 0 0.49999998660252726 0.49999998660252726 0 -0.86602541151947299 forward_v I I I I #
loop $-1 $-1 $237 $60 #
coedge $-1 $154 $154 $155 $238 reversed $95 $-1 #
coedge $-1 $155 $155 $154 $238 forward $97 $-1 #
coedge $-1 $156 $156 $98 $157 forward $151 $-1 #
edge $-1 $239 0 $239 6.2831853071796004 $156 $240 forward 7 unknown #
face $-1 $241 $242 $33 $-1 $243 forward single #
loop $-1 $-1 $244 $99 #
plane-surface $-1 -74.172812516333479 -29.460839229962168 0 0 -1 0 0 0 -1 forward_v I I I I #
coedge $-1 $245 $246 $247 $248 reversed $100 $-1 #
coedge $-1 $249 $102 $244 $250 reversed $64 $-1 #
coedge $-1 $102 $249 $245 $251 forward $64 $-1 #
coedge $-1 $247 $252 $102 $165 forward $242 $-1 #
edge $-1 $253 -19.512753436332531 $254 -0.38341815092673137 $164 $255 forward 7 unknown #
loop $-1 $-1 $171 $103 #
plane-surface $-1 -77.299722281563774 -19.896171587259264 4.5524726414589338 -0.54463904215088732 0 0.83867056331134215 0.83867056331134215 0 0.54463904215088732 forward_v I I I I #
loop $-1 $-1 $256 $66 #
coedge $-1 $169 $169 $170 $257 reversed $104 $-1 #
coedge $-1 $170 $170 $169 $257 forward $106 $-1 #
coedge $-1 $171 $171 $107 $172 forward $166 $-1 #
edge $-1 $258 0 $258 6.2831853071796004 $171 $259 forward 7 unknown #
loop $-1 $-1 $178 $108 #
plane-surface $-1 -77.299722281563774 -19.896171587259264 4.5524726414589338 -0.54463904215088732 0 0.83867056331134215 0.83867056331134215 0 0.54463904215088732 forward_v I I I I #
loop $-1 $-1 $260 $69 #
coedge $-1 $176 $176 $177 $261 reversed $109 $-1 #
coedge $-1 $177 $177 $176 $261 forward $111 $-1 #
coedge $-1 $178 $178 $112 $179 forward $173 $-1 #
edge $-1 $262 0 $262 6.2831853071796004 $178 $263 forward 7 unknown #
face $-1 $264 $265 $27 $-1 $266 reversed single #
loop $-1 $-1 $267 $113 #
plane-surface $-1 -77.29972228156376 0 0 1 0 0 0 0 -1 forward_v I I I I #
coedge $-1 $268 $191 $269 $270 forward $114 $-1 #
coedge $-1 $271 $116 $268 $272 forward $73 $-1 #
coedge $-1 $116 $271 $273 $274 forward $73 $-1 #
coedge $-1 $194 $193 $116 $187 reversed $195 $-1 #
edge $-1 $275 -37.975166460996512 $276 37.975166460996512 $186 $277 forward 7 unknown #
coedge $-1 $118 $117 $278 $279 forward $46 $-1 #
coedge $-1 $280 $281 $117 $190 reversed $265 $-1 #
edge $-1 $197 -77.29972228156376 $282 77.29972228156376 $189 $283 forward 7 unknown #
coedge $-1 $183 $284 $118 $192 reversed $114 $-1 #
edge $-1 $285 -77.29972228156376 $196 77.29972228156376 $191 $286 forward 7 unknown #
coedge $-1 $186 $119 $284 $287 forward $195 $-1 #
coedge $-1 $119 $186 $280 $288 reversed $195 $-1 #
loop $-1 $-1 $193 $264 #
vertex $-1 $120 $289 #
vertex $-1 $120 $290 #
straight-curve $-1 77.29972228156376 0 9.7103405777186005 0 1 0 I I #
face $-1 $291 $292 $28 $-1 $293 reversed single #
loop $-1 $-1 $294 $121 #
plane-surface $-1 0 0 9.7103405777186005 0 0 1 1 0 0 forward_v I I I I #
coedge $-1 $295 $296 $297 $298 reversed $122 $-1 #
coedge $-1 $127 $124 $299 $300 reversed $77 $-1 #
coedge $-1 $124 $127 $301 $302 reversed $77 $-1 #
coedge $-1 $296 $295 $124 $206 reversed $122 $-1 #
edge $-1 $303 -9.7103405777186005 $304 9.7103405777186005 $205 $305 forward 7 unknown #
coedge $-1 $126 $125 $306 $307 reversed $49 $-1 #
coedge $-1 $299 $308 $125 $209 forward $292 $-1 #
edge $-1 $309 -21.116165038256842 $213 -12.601837807222498 $208 $310 forward 7 unknown #
coedge $-1 $311 $301 $126 $211 forward $200 $-1 #
edge $-1 $212 12.601837807222498 $312 21.116165038256842 $210 $313 forward 7 unknown #
vertex $-1 $211 $314 #
vertex $-1 $209 $315 #
straight-curve $-1 -75.779803203634572 -29.460839229962168 0 0 0 -1 I I #
face $-1 $-1 $316 $29 $-1 $317 forward single #
loop $-1 $-1 $318 $129 #
plane-surface $-1 0 37.975166460996512 0 0 -1 0 0 0 -1 forward_v I I I I #
coedge $-1 $319 $132 $134 $224 forward $81 $-1 #
coedge $-1 $132 $319 $318 $320 reversed $81 $-1 #
coedge $-1 $321 $135 $132 $221 forward $130 $-1 #
edge $-1 $227 3.8546138544172628 $322 24.031906355858585 $220 $323 forward 7 unknown #
coedge $-1 $324 $325 $133 $223 forward $316 $-1 #
edge $-1 $326 8.3156707455646455 $226 10.356197446710624 $222 $327 forward 7 unknown #
edge $-1 $227 -154.59944456312752 $326 -150.518391051484 $134 $328 forward 7 unknown #
coedge $-1 $135 $321 $324 $329 reversed $130 $-1 #
vertex $-1 $329 $330 #
vertex $-1 $136 $331 #
straight-curve $-1 77.29972228156376 17.79787395955519 108.68140616982545 0 0 -1 I I #
coedge $-1 $229 $229 $-1 $332 reversed $139 $-1 #
edge $-1 $333 0 $333 6.2831853071796004 $140 $334 forward 7 unknown #
vertex $-1 $143 $335 #
ellipse-curve $-1 76.279458930990771 21.833332459843447 7.9431925542915369 0.86602541151947299 0 0.49999998660252726 0.49999998660252726 0 -0.86602541151947299 1 I I #
coedge $-1 $233 $233 $-1 $336 reversed $146 $-1 #
edge $-1 $337 0 $337 6.2831853071796004 $147 $338 forward 7 unknown #
vertex $-1 $150 $339 #
ellipse-curve $-1 76.279458930990771 27.88652021027584 7.9431925542915369 0.86602541151947299 0 0.49999998660252726 0.49999998660252726 0 -0.86602541151947299 1 I I #
coedge $-1 $237 $237 $-1 $340 reversed $153 $-1 #
edge $-1 $341 0 $341 6.2831853071796004 $154 $342 forward 7 unknown #
vertex $-1 $157 $343 #
ellipse-curve $-1 76.279458930990771 33.93970796070824 7.9431925542915369 0.86602541151947299 0 0.49999998660252726 0.49999998660252726 0 -0.86602541151947299 1 I I #
face $-1 $-1 $344 $33 $-1 $345 reversed single #
loop $-1 $-1 $252 $158 #
plane-surface $-1 0 0 9.7103405777186005 0 0 1 1 0 0 forward_v I I I I #
coedge $-1 $346 $347 $162 $250 forward $159 $-1 #
coedge $-1 $246 $161 $163 $251 reversed $100 $-1 #
coedge $-1 $161 $245 $348 $349 reversed $100 $-1 #
coedge $-1 $350 $164 $161 $248 forward $242 $-1 #
edge $-1 $254 -11.393005536259992 $351 -3.4505855611786131 $247 $352 forward 7 unknown #
coedge $-1 $163 $162 $353 $354 reversed $64 $-1 #
edge $-1 $355 -0.071496417683543714 $253 9.398753669218447 $244 $356 forward 7 unknown #
edge $-1 $357 1.6755591966779756e-014 $254 9.4702500869020056 $245 $358 forward 7 unknown #
coedge $-1 $164 $350 $346 $359 forward $242 $-1 #
vertex $-1 $165 $360 #
vertex $-1 $165 $361 #
straight-curve $-1 -69.357302306482381 -9.9480857936296321 9.7103405777185987 0 1 0 I I #
coedge $-1 $256 $256 $-1 $362 reversed $168 $-1 #
edge $-1 $363 0 $363 6.2831853071796004 $169 $364 forward 7 unknown #
vertex $-1 $172 $365 #
ellipse-curve $-1 -73.328512294023071 -23.995314862703363 7.1314066095887743 -0.54463904215088732 0 0.83867056331134215 1.2580058449670133 0 0.81695856322633098 1 I I #
coedge $-1 $260 $260 $-1 $366 reversed $175 $-1 #
edge $-1 $367 0 $367 6.2831853071796004 $176 $368 forward 7 unknown #
vertex $-1 $179 $369 #
ellipse-curve $-1 -73.328512294023071 -15.797028311815161 7.1314066095887743 -0.54463904215088732 0 0.83867056331134215 1.2580058449670133 0 0.81695856322633098 1 I I #
face $-1 $-1 $195 $27 $-1 $370 reversed single #
loop $-1 $-1 $280 $180 #
plane-surface $-1 0 37.975166460996512 0 0 -1 0 0 0 -1 forward_v I I I I #
coedge $-1 $371 $278 $281 $372 forward $181 $-1 #
coedge $-1 $284 $183 $184 $272 reversed $114 $-1 #
coedge $-1 $278 $371 $183 $270 reversed $181 $-1 #
edge $-1 $285 -9.7103405777186005 $373 9.7103405777186005 $269 $374 forward 7 unknown #
coedge $-1 $185 $184 $371 $375 forward $73 $-1 #
edge $-1 $276 -77.29972228156376 $373 77.29972228156376 $268 $376 forward 7 unknown #
coedge $-1 $281 $280 $185 $274 reversed $265 $-1 #
edge $-1 $377 -77.29972228156376 $275 77.29972228156376 $273 $378 forward 7 unknown #
vertex $-1 $187 $379 #
vertex $-1 $287 $380 #
straight-curve $-1 77.29972228156376 0 -9.7103405777186005 0 -1 0 I I #
coedge $-1 $267 $269 $188 $279 reversed $181 $-1 #
edge $-1 $282 -37.975166460996512 $285 37.975166460996512 $278 $381 forward 7 unknown #
coedge $-1 $273 $189 $194 $288 forward $265 $-1 #
coedge $-1 $189 $273 $267 $372 reversed $265 $-1 #
vertex $-1 $190 $382 #
straight-curve $-1 0 37.975166460996512 9.7103405777186005 -1 0 0 I I #
coedge $-1 $191 $268 $193 $287 reversed $114 $-1 #
vertex $-1 $279 $383 #
straight-curve $-1 0 -37.975166460996512 9.7103405777186005 1 0 0 I I #
edge $-1 $196 -9.7103405777186005 $276 9.7103405777186005 $193 $384 forward 7 unknown #
edge $-1 $197 -9.7103405777186005 $275 9.7103405777186005 $194 $385 forward 7 unknown #
point $-1 77.29972228156376 -37.975166460996512 9.7103405777186005 #
point $-1 77.29972228156376 37.975166460996512 9.7103405777186005 #
face $-1 $-1 $386 $28 $-1 $387 reversed single #
loop $-1 $-1 $388 $199 #
plane-surface $-1 0 0 -9.7103405777186005 0 0 1 1 0 0 forward_v I I I I #
coedge $-1 $301 $311 $296 $389 forward $200 $-1 #
coedge $-1 $205 $202 $388 $390 reversed $122 $-1 #
coedge $-1 $202 $205 $294 $389 reversed $122 $-1 #
coedge $-1 $391 $392 $202 $298 forward $386 $-1 #
edge $-1 $393 -9.7103405777186005 $394 9.7103405777186005 $297 $395 forward 7 unknown #
coedge $-1 $388 $208 $203 $300 forward $292 $-1 #
edge $-1 $213 -38.693396945467832 $304 -35.479415570865648 $299 $396 forward 7 unknown #
coedge $-1 $210 $294 $204 $302 forward $200 $-1 #
edge $-1 $303 35.479415570865648 $212 38.693396945467832 $301 $397 forward 7 unknown #
vertex $-1 $302 $398 #
vertex $-1 $300 $399 #
straight-curve $-1 -72.565821829032387 -29.460839229962168 0 0 0 -1 I I #
coedge $-1 $392 $391 $207 $307 forward $386 $-1 #
edge $-1 $312 -9.7103405777186005 $309 9.7103405777186005 $306 $400 forward 7 unknown #
coedge $-1 $208 $388 $392 $401 forward $292 $-1 #
vertex $-1 $209 $402 #
straight-curve $-1 -75.779803203634572 -16.85900142273967 -9.7103405777186005 0 1 0 I I #
coedge $-1 $294 $210 $391 $403 forward $200 $-1 #
vertex $-1 $403 $404 #
straight-curve $-1 -75.779803203634572 -16.85900142273967 9.7103405777186005 0 -1 0 I I #
point $-1 -75.779803203634572 -29.460839229962168 9.7103405777186005 #
point $-1 -75.779803203634572 -29.460839229962168 -9.7103405777186005 #
loop $-1 $-1 $222 $215 #
plane-surface $-1 0 0 9.7103405777186005 0 0 1 1 0 0 forward_v I I I I #
coedge $-1 $405 $406 $219 $320 forward $216 $-1 #
coedge $-1 $219 $218 $325 $407 reversed $81 $-1 #
edge $-1 $322 -93.950346580941996 $408 -89.869293069298436 $318 $409 forward 7 unknown #
coedge $-1 $225 $220 $406 $410 reversed $130 $-1 #
vertex $-1 $320 $411 #
straight-curve $-1 77.29972228156376 13.943260105137927 6.1760445308644876 0 1 0 I I #
coedge $-1 $412 $222 $225 $329 forward $316 $-1 #
coedge $-1 $222 $412 $319 $407 forward $316 $-1 #
vertex $-1 $223 $413 #
straight-curve $-1 66.943524834853136 17.79787395955519 9.7103405777185969 1 0 0 I I #
straight-curve $-1 2.0712418233870267e-006 17.79787395955519 140.06309212932899 -0.49999998660252726 0 0.86602541151947299 I I #
edge $-1 $226 17.79787395955519 $414 37.975166460996512 $225 $415 forward 7 unknown #
point $-1 77.29972228156376 17.79787395955519 9.7103405777186005 #
point $-1 77.29972228156376 17.79787395955519 6.176044530864516 #
edge $-1 $416 1 $416 0 $229 $-1 forward 7 unknown #
vertex $-1 $230 $417 #
ellipse-curve $-1 74.474091829636606 21.833332459843447 6.9008634095774832 0.86602541151947299 0 0.49999998660252726 0.49999998660252726 0 -0.86602541151947299 1 I I #
point $-1 76.779458917593303 21.833332459843447 7.0771671427720646 #
edge $-1 $418 1 $418 0 $233 $-1 forward 7 unknown #
vertex $-1 $234 $419 #
ellipse-curve $-1 74.474091829636606 27.88652021027584 6.9008634095774832 0.86602541151947299 0 0.49999998660252726 0.49999998660252726 0 -0.86602541151947299 1 I I #
point $-1 76.779458917593303 27.88652021027584 7.0771671427720646 #
edge $-1 $420 1 $420 0 $237 $-1 forward 7 unknown #
vertex $-1 $238 $421 #
ellipse-curve $-1 74.474091829636606 33.93970796070824 6.9008634095774832 0.86602541151947299 0 0.49999998660252726 0.49999998660252726 0 -0.86602541151947299 1 I I #
point $-1 76.779458917593303 33.93970796070824 7.0771671427720646 #
loop $-1 $-1 $422 $241 #
plane-surface $-1 -77.29972228156376 0 0 1 0 0 0 0 -1 forward_v I I I I #
coedge $-1 $347 $244 $252 $359 reversed $159 $-1 #
coedge $-1 $244 $346 $422 $423 reversed $159 $-1 #
coedge $-1 $353 $424 $246 $349 forward $344 $-1 #
edge $-1 $351 57.394897372700257 $357 62.552765308959913 $348 $425 forward 7 unknown #
coedge $-1 $252 $247 $424 $426 forward $242 $-1 #
vertex $-1 $426 $427 #
straight-curve $-1 -80.750307842742373 -10.331503944556363 9.7103405777185969 -1 0 0 I I #
coedge $-1 $422 $348 $249 $354 forward $344 $-1 #
edge $-1 $357 0.38341815092673137 $355 19.512753436332531 $353 $428 forward 7 unknown #
vertex $-1 $423 $429 #
straight-curve $-1 -77.239760340670358 -29.460839229962168 4.5914123819033259 0.83867056331134215 0 0.54463904215088732 I I #
vertex $-1 $354 $430 #
straight-curve $-1 -77.299722281563774 -10.331503944556363 4.5524726414589338 0.83867056331134215 0 0.54463904215088732 I I #
edge $-1 $431 3.4505855611786131 $253 11.393005536259992 $252 $432 forward 7 unknown #
point $-1 -69.357302306482381 -29.460839229962165 9.7103405777186005 #
point $-1 -69.357302306482381 -10.331503944556363 9.7103405777186005 #
edge $-1 $433 1 $433 0 $256 $-1 forward 7 unknown #
vertex $-1 $257 $434 #
ellipse-curve $-1 -71.520492514077262 -23.995314862703363 4.3473003484274422 -0.54463904215088732 0 0.83867056331134215 1.2580058449670133 0 0.81695856322633098 1 I I #
point $-1 -72.07050644905604 -23.995314862703363 7.9483651728150901 #
edge $-1 $435 1 $435 0 $260 $-1 forward 7 unknown #
vertex $-1 $261 $436 #
ellipse-curve $-1 -71.520492514077262 -15.797028311815161 4.3473003484274422 -0.54463904215088732 0 0.83867056331134215 1.2580058449670133 0 0.81695856322633098 1 I I #
point $-1 -72.07050644905604 -15.797028311815161 7.9483651728150901 #
plane-surface $-1 77.29972228156376 0 0 -1 0 0 0 0 1 forward_v I I I I #
coedge $-1 $269 $267 $271 $375 reversed $181 $-1 #
edge $-1 $282 -9.7103405777186005 $377 9.7103405777186005 $281 $437 forward 7 unknown #
vertex $-1 $375 $438 #
straight-curve $-1 -77.29972228156376 -37.975166460996512 0 0 0 -1 I I #
edge $-1 $373 -37.975166460996512 $377 37.975166460996512 $371 $439 forward 7 unknown #
straight-curve $-1 0 -37.975166460996512 -9.7103405777186005 -1 0 0 I I #
vertex $-1 $274 $440 #
straight-curve $-1 0 37.975166460996512 -9.7103405777186005 1 0 0 I I #
point $-1 77.29972228156376 37.975166460996512 -9.7103405777186005 #
point $-1 77.29972228156376 -37.975166460996512 -9.7103405777186005 #
straight-curve $-1 -77.29972228156376 0 9.7103405777186005 0 -1 0 I I #
point $-1 -77.29972228156376 37.975166460996512 9.7103405777186005 #
point $-1 -77.29972228156376 -37.975166460996512 9.7103405777186005 #
straight-curve $-1 77.29972228156376 -37.975166460996512 0 0 0 -1 I I #
straight-curve $-1 77.29972228156376 37.975166460996512 0 0 0 -1 I I #
loop $-1 $-1 $297 $291 #
plane-surface $-1 0 -37.975166460996512 0 0 1 0 0 0 1 forward_v I I I I #
coedge $-1 $308 $299 $295 $390 forward $292 $-1 #
edge $-1 $394 -21.116165038256842 $303 -12.601837807222498 $294 $441 forward 7 unknown #
edge $-1 $304 12.601837807222498 $393 21.116165038256842 $388 $442 forward 7 unknown #
coedge $-1 $306 $297 $311 $403 reversed $386 $-1 #
coedge $-1 $297 $306 $308 $401 reversed $386 $-1 #
vertex $-1 $401 $443 #
vertex $-1 $298 $444 #
straight-curve $-1 -72.565821829032387 -37.975166460996512 0 0 0 1 I I #
straight-curve $-1 -37.08640625816674 -29.460839229962168 -9.7103405777186005 1 0 0 I I #
straight-curve $-1 -37.08640625816674 -29.460839229962168 9.7103405777186005 -1 0 0 I I #
point $-1 -72.565821829032387 -29.460839229962168 9.7103405777186005 #
point $-1 -72.565821829032387 -29.460839229962168 -9.7103405777186005 #
straight-curve $-1 -75.779803203634572 -37.975166460996512 0 0 0 -1 I I #
edge $-1 $393 72.565821829032387 $309 75.779803203634572 $392 $445 forward 7 unknown #
point $-1 -75.779803203634572 -37.975166460996512 -9.7103405777186005 #
edge $-1 $312 -75.779803203634572 $394 -72.565821829032387 $391 $446 forward 7 unknown #
point $-1 -75.779803203634572 -37.975166460996512 9.7103405777186005 #
coedge $-1 $406 $318 $412 $447 reversed $216 $-1 #
coedge $-1 $318 $405 $321 $410 forward $216 $-1 #
edge $-1 $408 -24.031906355858592 $326 -3.8546138544172628 $325 $448 forward 7 unknown #
vertex $-1 $320 $449 #
straight-curve $-1 30.324550249789969 37.975166460996512 87.539432091021908 -0.49999998660252726 0 0.86602541151947299 I I #
edge $-1 $414 -9.7103405777186005 $322 -6.1760445308644965 $321 $450 forward 7 unknown #
point $-1 77.29972228156376 37.975166460996512 6.1760445308644965 #
coedge $-1 $325 $324 $405 $447 forward $316 $-1 #
point $-1 75.259195580417781 17.79787395955519 9.7103405777185969 #
vertex $-1 $329 $451 #
straight-curve $-1 77.29972228156376 0 9.7103405777186005 0 1 0 I I #
vertex $-1 $332 $452 #
point $-1 74.974091816239138 21.833332459843447 6.0348379980580109 #
vertex $-1 $336 $453 #
point $-1 74.974091816239138 27.88652021027584 6.0348379980580109 #
vertex $-1 $340 $454 #
point $-1 74.974091816239138 33.93970796070824 6.0348379980580109 #
coedge $-1 $424 $353 $347 $423 forward $344 $-1 #
edge $-1 $355 -62.552765308959913 $431 -57.394897372700257 $422 $455 forward 7 unknown #
coedge $-1 $348 $422 $350 $426 reversed $344 $-1 #
straight-curve $-1 -77.29972228156376 -10.331503944556363 67.105237950418854 0 0 -1 I I #
edge $-1 $351 10.331503944556363 $431 29.460839229962165 $424 $456 forward 7 unknown #
point $-1 -77.29972228156376 -10.331503944556363 9.7103405777186005 #
straight-curve $-1 -77.29972228156376 -9.9480857936296321 4.5524726414589409 0 -1 0 I I #
point $-1 -77.29972228156376 -29.460839229962165 4.5524726414589427 #
point $-1 -77.29972228156376 -10.331503944556363 4.5524726414589427 #
vertex $-1 $423 $457 #
straight-curve $-1 -80.750307842742373 -29.460839229962165 9.7103405777185969 1 0 0 I I #
vertex $-1 $362 $458 #
point $-1 -70.262486669110245 -23.995314862703363 5.1642589116537732 #
vertex $-1 $366 $459 #
point $-1 -70.262486669110245 -15.797028311815161 5.1642589116537732 #
straight-curve $-1 -77.29972228156376 37.975166460996512 0 0 0 -1 I I #
point $-1 -77.29972228156376 -37.975166460996512 -9.7103405777186005 #
straight-curve $-1 -77.29972228156376 0 -9.7103405777186005 0 1 0 I I #
point $-1 -77.29972228156376 37.975166460996512 -9.7103405777186005 #
straight-curve $-1 -72.565821829032387 -16.85900142273967 9.7103405777186005 0 1 0 I I #
straight-curve $-1 -72.565821829032387 -16.85900142273967 -9.7103405777186005 0 -1 0 I I #
point $-1 -72.565821829032387 -37.975166460996512 -9.7103405777186005 #
point $-1 -72.565821829032387 -37.975166460996512 9.7103405777186005 #
straight-curve $-1 0 -37.975166460996512 -9.7103405777186005 -1 0 0 I I #
straight-curve $-1 0 -37.975166460996512 9.7103405777186005 1 0 0 I I #
edge $-1 $414 -77.29972228156376 $408 -75.259195580417781 $405 $460 forward 7 unknown #
straight-curve $-1 75.259195580417796 13.943260105137927 9.7103405777185969 0 -1 0 I I #
point $-1 75.259195580417781 37.975166460996519 9.7103405777185969 #
straight-curve $-1 77.29972228156376 37.975166460996512 0 0 0 -1 I I #
point $-1 77.29972228156376 37.975166460996512 9.7103405777186005 #
point $-1 73.608066418117133 21.833332459843447 6.4008634229749566 #
point $-1 73.608066418117133 27.88652021027584 6.4008634229749566 #
point $-1 73.608066418117133 33.93970796070824 6.4008634229749566 #
straight-curve $-1 -77.29972228156376 -29.460839229962165 67.105237950418854 0 0 1 I I #
straight-curve $-1 -77.29972228156376 0 9.7103405777186005 0 -1 0 I I #
point $-1 -77.29972228156376 -29.460839229962165 9.7103405777186005 #
point $-1 -70.703533950850925 -23.995314862703363 3.0892945034604291 #
point $-1 -70.703533950850925 -15.797028311815161 3.0892945034604291 #
straight-curve $-1 0 37.975166460996512 9.7103405777186005 -1 0 0 I I #
End-of-ACIS-data 