500 0 5 0           
7 Unknown 11 ACIS 5.0 NT 24 Thu Mar 25 15:09:10 1999 
-1 9.9999999999999995e-007 1e-010 
body $-1 $5 $-1 $6 #
body $-1 $7 $-1 $8 #
body $-1 $9 $-1 $10 #
body $-1 $11 $-1 $12 #
body $-1 $13 $-1 $14 #
lump $-1 $-1 $15 $0 #
transform $-1 1 0 0 0 1 0 0 0 1 42.310861537522506 22.736584061790715 4.8270919121144233 1 rotate no_reflect no_shear #
lump $-1 $-1 $16 $1 #
transform $-1 1 0 0 0 1 0 0 0 1 42.310861537522506 22.736584061790715 4.8270919121144233 1 rotate no_reflect no_shear #
lump $-1 $-1 $17 $2 #
transform $-1 1 0 0 0 1 0 0 0 1 42.310861537522506 22.736584061790715 4.8270919121144233 1 rotate no_reflect no_shear #
lump $-1 $-1 $18 $3 #
transform $-1 1 0 0 0 1 0 0 0 1 42.310861537522506 22.736584061790715 4.8270919121144233 1 rotate no_reflect no_shear #
lump $-1 $-1 $19 $4 #
transform $-1 1 0 0 0 1 0 0 0 1 42.310861537522506 22.736584061790715 4.8270919121144233 1 rotate no_reflect no_shear #
shell $-1 $-1 $-1 $20 $-1 $5 #
shell $-1 $-1 $-1 $21 $-1 $7 #
shell $-1 $-1 $-1 $22 $-1 $9 #
shell $-1 $-1 $-1 $23 $-1 $11 #
shell $-1 $-1 $-1 $24 $-1 $13 #
face $-1 $25 $26 $15 $-1 $27 forward single #
face $-1 $28 $29 $16 $-1 $30 forward single #
face $-1 $31 $32 $17 $-1 $33 forward single #
face $-1 $34 $35 $18 $-1 $36 reversed single #
face $-1 $37 $38 $19 $-1 $39 reversed single #
face $-1 $40 $41 $15 $-1 $42 reversed single #
loop $-1 $-1 $43 $20 #
plane-surface $-1 0 0 4.8270919121144233 0 0 1 1 0 0 forward_v I I I I #
face $-1 $44 $45 $16 $-1 $46 forward single #
loop $-1 $-1 $47 $21 #
plane-surface $-1 -40.810861537522506 -18.243079600754157 0 0 -1 0 0 0 -1 forward_v I I I I #
face $-1 $48 $49 $17 $-1 $50 forward single #
loop $-1 $-1 $51 $22 #
plane-surface $-1 -20.632856054437845 71.851146296303313 84.305028865350479 -1 0 0 0 0.85716730853699208 0.51503806187062418 forward_v I I I I #
face $-1 $52 $53 $18 $-1 $54 reversed single #
loop $-1 $55 $56 $23 #
cone-surface $-1 -36.117145685212598 21.087565789562113 2.8511081696231173 0 -0.85716730853699208 -0.51503806187062418 0.5 0 0 1 I I 0 1 0.5 forward I I I I #
face $-1 $57 $58 $19 $-1 $59 reversed single #
loop $-1 $60 $61 $24 #
cone-surface $-1 -26.826571906747745 21.087565789562113 2.8511081696231173 0 -0.85716730853699208 -0.51503806187062418 0.5 0 0 1 I I 0 1 0.5 forward I I I I #
face $-1 $62 $63 $15 $-1 $64 reversed single #
loop $-1 $-1 $65 $25 #
plane-surface $-1 0 0 -4.8270919121144233 0 0 1 1 0 0 forward_v I I I I #
coedge $-1 $66 $67 $68 $69 forward $26 $-1 #
face $-1 $70 $71 $16 $-1 $72 forward single #
loop $-1 $-1 $73 $28 #
plane-surface $-1 -39.310861537522506 -20.489831831272436 0 -1 0 0 0 0 1 forward_v I I I I #
coedge $-1 $74 $75 $76 $77 reversed $29 $-1 #
face $-1 $78 $79 $17 $-1 $80 reversed single #
loop $-1 $-1 $81 $31 #
plane-surface $-1 -31.471858795980175 -0.68382831569569191 40.721620620626624 0 0.85716730853699208 0.51503806187062418 1 0 0 forward_v I I I I #
coedge $-1 $82 $83 $84 $85 reversed $32 $-1 #
face $-1 $86 $87 $18 $-1 $88 forward single #
loop $-1 $89 $90 $34 #
cone-surface $-1 -36.117145685212598 20.150657880779512 2.2881571229782649 0 -0.85716730853699208 -0.51503806187062418 0.25 0 0 1 I I -0.70710678118654746 0.70710678118654746 0.25 forward I I I I #
loop $-1 $-1 $91 $23 #
coedge $-1 $56 $56 $92 $93 reversed $35 $-1 #
face $-1 $94 $95 $19 $-1 $96 reversed single #
loop $-1 $97 $98 $37 #
cone-surface $-1 -26.826571906747745 20.150657880779512 2.2881571229782649 0 -0.85716730853699208 -0.51503806187062418 0.25 0 0 1 I I -0.70710678118654746 0.70710678118654746 0.25 forward I I I I #
loop $-1 $-1 $99 $24 #
coedge $-1 $61 $61 $100 $101 reversed $38 $-1 #
face $-1 $102 $103 $15 $-1 $104 reversed single #
loop $-1 $-1 $105 $40 #
plane-surface $-1 0 -22.736584061790715 0 0 1 0 0 0 1 forward_v I I I I #
coedge $-1 $106 $107 $108 $109 forward $41 $-1 #
coedge $-1 $110 $43 $111 $112 forward $26 $-1 #
coedge $-1 $43 $110 $113 $114 forward $26 $-1 #
coedge $-1 $115 $116 $43 $69 reversed $117 $-1 #
edge $-1 $118 -22.736584061790715 $119 22.736584061790715 $68 $120 forward 7 unknown #
face $-1 $121 $122 $16 $-1 $123 reversed single #
loop $-1 $-1 $124 $44 #
plane-surface $-1 0 0 4.8270919121144233 0 0 1 1 0 0 forward_v I I I I #
coedge $-1 $125 $126 $127 $128 reversed $45 $-1 #
coedge $-1 $129 $47 $124 $130 reversed $29 $-1 #
coedge $-1 $47 $129 $131 $132 reversed $29 $-1 #
coedge $-1 $126 $125 $47 $77 forward $45 $-1 #
edge $-1 $133 -4.8270919121144233 $134 4.8270919121144233 $76 $135 forward 7 unknown #
face $-1 $136 $137 $17 $-1 $138 forward single #
loop $-1 $-1 $139 $48 #
plane-surface $-1 0 22.736584061790715 0 0 -1 0 0 0 -1 forward_v I I I I #
coedge $-1 $140 $141 $139 $142 reversed $49 $-1 #
coedge $-1 $83 $51 $141 $143 forward $32 $-1 #
coedge $-1 $51 $82 $144 $145 reversed $32 $-1 #
coedge $-1 $146 $139 $51 $85 forward $79 $-1 #
edge $-1 $147 -40.409006943189013 $148 -37.325422520560814 $84 $149 forward 7 unknown #
face $-1 $150 $151 $18 $-1 $152 forward single #
loop $-1 $-1 $153 $52 #
plane-surface $-1 -20.632856054437845 71.851146296303313 84.305028865350479 -1 0 0 0 0.85716730853699208 0.51503806187062418 forward_v I I I I #
loop $-1 $-1 $154 $34 #
coedge $-1 $90 $90 $91 $155 forward $53 $-1 #
coedge $-1 $91 $91 $90 $155 reversed $55 $-1 #
coedge $-1 $92 $92 $56 $93 forward $151 $-1 #
edge $-1 $156 3.2025152785405749e-016 $156 6.2831853071796004 $92 $157 forward 7 unknown #
face $-1 $158 $159 $19 $-1 $160 reversed single #
loop $-1 $161 $162 $57 #
cone-surface $-1 -36.117145685212598 21.087565789562113 2.8511081696231173 0 -0.85716730853699208 -0.51503806187062418 0.5 0 0 1 I I 0 1 0.5 forward I I I I #
loop $-1 $-1 $163 $37 #
coedge $-1 $98 $98 $99 $164 forward $58 $-1 #
coedge $-1 $99 $99 $98 $164 reversed $60 $-1 #
coedge $-1 $100 $100 $61 $101 forward $165 $-1 #
edge $-1 $166 3.2025152785405749e-016 $166 6.2831853071796004 $100 $167 forward 7 unknown #
face $-1 $168 $169 $15 $-1 $170 reversed single #
loop $-1 $-1 $171 $62 #
plane-surface $-1 -42.310861537522506 0 0 1 0 0 0 0 -1 forward_v I I I I #
coedge $-1 $172 $113 $173 $174 forward $63 $-1 #
coedge $-1 $175 $65 $172 $176 forward $41 $-1 #
coedge $-1 $65 $175 $177 $178 forward $41 $-1 #
coedge $-1 $116 $115 $65 $109 reversed $117 $-1 #
edge $-1 $179 -22.736584061790715 $180 22.736584061790715 $108 $181 forward 7 unknown #
coedge $-1 $67 $66 $182 $183 forward $26 $-1 #
coedge $-1 $184 $185 $66 $112 reversed $169 $-1 #
edge $-1 $119 -42.310861537522506 $186 42.310861537522506 $111 $187 forward 7 unknown #
coedge $-1 $105 $188 $67 $114 reversed $63 $-1 #
edge $-1 $189 -42.310861537522506 $118 42.310861537522506 $113 $190 forward 7 unknown #
coedge $-1 $108 $68 $188 $191 forward $117 $-1 #
coedge $-1 $68 $108 $184 $192 reversed $117 $-1 #
loop $-1 $-1 $115 $168 #
vertex $-1 $69 $193 #
vertex $-1 $69 $194 #
straight-curve $-1 42.310861537522506 0 4.8270919121144233 0 1 0 I I #
face $-1 $195 $196 $16 $-1 $197 reversed single #
loop $-1 $-1 $127 $70 #
plane-surface $-1 0 -22.736584061790715 0 0 1 0 0 0 1 forward_v I I I I #
coedge $-1 $198 $199 $74 $130 forward $71 $-1 #
coedge $-1 $76 $73 $198 $200 reversed $45 $-1 #
coedge $-1 $73 $76 $201 $202 reversed $45 $-1 #
coedge $-1 $203 $204 $73 $128 forward $122 $-1 #
edge $-1 $205 -4.8270919121144233 $206 4.8270919121144233 $127 $207 forward 7 unknown #
coedge $-1 $75 $74 $208 $209 reversed $29 $-1 #
edge $-1 $210 -21.905430768761253 $133 -18.905430768761253 $124 $211 forward 7 unknown #
coedge $-1 $212 $201 $75 $132 forward $196 $-1 #
edge $-1 $134 18.905430768761253 $213 21.905430768761253 $131 $214 forward 7 unknown #
vertex $-1 $130 $215 #
vertex $-1 $132 $216 #
straight-curve $-1 -39.310861537522506 -18.243079600754157 0 0 0 -1 I I #
face $-1 $217 $218 $17 $-1 $219 forward single #
loop $-1 $-1 $144 $78 #
plane-surface $-1 0 0 4.8270919121144233 0 0 1 1 0 0 forward_v I I I I #
coedge $-1 $84 $220 $81 $142 forward $79 $-1 #
coedge $-1 $221 $81 $222 $223 reversed $49 $-1 #
coedge $-1 $81 $221 $82 $143 reversed $49 $-1 #
edge $-1 $224 -26.574932139532418 $147 -4.8969266564477572 $139 $225 forward 7 unknown #
edge $-1 $147 -45.473168123581395 $226 -41.875755585892286 $82 $227 forward 7 unknown #
coedge $-1 $228 $229 $83 $145 forward $137 $-1 #
edge $-1 $148 13.188989086360941 $226 15.041793467521423 $144 $230 forward 7 unknown #
coedge $-1 $231 $84 $229 $232 reversed $79 $-1 #
vertex $-1 $142 $233 #
vertex $-1 $145 $234 #
straight-curve $-1 -20.632856054437845 22.736584061790715 42.15251443267524 0 0 1 I I #
face $-1 $235 $236 $18 $-1 $237 reversed single #
loop $-1 $238 $92 $86 #
plane-surface $-1 -31.471858795980175 -0.68382831569569191 40.721620620626624 0 0.85716730853699208 0.51503806187062418 1 0 0 forward_v I I I I #
coedge $-1 $239 $240 $241 $242 reversed $87 $-1 #
coedge $-1 $154 $154 $-1 $243 forward $89 $-1 #
edge $-1 $244 0 $244 6.2831853071796004 $90 $245 forward 7 unknown #
vertex $-1 $93 $246 #
ellipse-curve $-1 -36.117145685212598 21.810181871210478 3.2852997008003193 0 -0.85716730853699208 -0.51503806187062418 0.5 0 0 1 I I #
face $-1 $247 $248 $19 $-1 $249 forward single #
loop $-1 $250 $251 $94 #
cone-surface $-1 -36.117145685212598 20.150657880779512 2.2881571229782649 0 -0.85716730853699208 -0.51503806187062418 0.25 0 0 1 I I -0.70710678118654746 0.70710678118654746 0.25 forward I I I I #
loop $-1 $-1 $252 $57 #
coedge $-1 $162 $162 $253 $254 reversed $95 $-1 #
coedge $-1 $163 $163 $-1 $255 forward $97 $-1 #
edge $-1 $256 0 $256 6.2831853071796004 $98 $257 forward 7 unknown #
loop $-1 $258 $100 $247 #
vertex $-1 $101 $259 #
ellipse-curve $-1 -26.826571906747745 21.810181871210478 3.2852997008003193 0 -0.85716730853699208 -0.51503806187062418 0.5 0 0 1 I I #
face $-1 $-1 $117 $15 $-1 $260 reversed single #
loop $-1 $-1 $184 $102 #
plane-surface $-1 0 22.736584061790715 0 0 -1 0 0 0 -1 forward_v I I I I #
coedge $-1 $261 $182 $185 $262 forward $103 $-1 #
coedge $-1 $188 $105 $106 $176 reversed $63 $-1 #
coedge $-1 $182 $261 $105 $174 reversed $103 $-1 #
edge $-1 $189 -4.8270919121144233 $263 4.8270919121144233 $173 $264 forward 7 unknown #
coedge $-1 $107 $106 $261 $265 forward $41 $-1 #
edge $-1 $180 -42.310861537522506 $263 42.310861537522506 $172 $266 forward 7 unknown #
coedge $-1 $185 $184 $107 $178 reversed $169 $-1 #
edge $-1 $267 -42.310861537522506 $179 42.310861537522506 $177 $268 forward 7 unknown #
vertex $-1 $109 $269 #
vertex $-1 $191 $270 #
straight-curve $-1 42.310861537522506 0 -4.8270919121144233 0 -1 0 I I #
coedge $-1 $171 $173 $110 $183 reversed $103 $-1 #
edge $-1 $186 -22.736584061790715 $189 22.736584061790715 $182 $271 forward 7 unknown #
coedge $-1 $177 $111 $116 $192 forward $169 $-1 #
coedge $-1 $111 $177 $171 $262 reversed $169 $-1 #
vertex $-1 $112 $272 #
straight-curve $-1 0 22.736584061790715 4.8270919121144233 -1 0 0 I I #
coedge $-1 $113 $172 $115 $191 reversed $63 $-1 #
vertex $-1 $183 $273 #
straight-curve $-1 0 -22.736584061790715 4.8270919121144233 1 0 0 I I #
edge $-1 $118 -4.8270919121144233 $180 4.8270919121144233 $115 $274 forward 7 unknown #
edge $-1 $119 -4.8270919121144233 $179 4.8270919121144233 $116 $275 forward 7 unknown #
point $-1 42.310861537522506 -22.736584061790715 4.8270919121144233 #
point $-1 42.310861537522506 22.736584061790715 4.8270919121144233 #
face $-1 $276 $277 $16 $-1 $278 reversed single #
loop $-1 $-1 $131 $121 #
plane-surface $-1 0 0 -4.8270919121144233 0 0 1 1 0 0 forward_v I I I I #
coedge $-1 $279 $124 $125 $200 forward $71 $-1 #
coedge $-1 $124 $280 $281 $282 forward $71 $-1 #
edge $-1 $133 7.9981636851179392 $205 12.491668146154497 $198 $283 forward 7 unknown #
coedge $-1 $131 $284 $126 $202 forward $196 $-1 #
edge $-1 $206 -12.491668146154497 $134 -7.9981636851179392 $201 $285 forward 7 unknown #
coedge $-1 $286 $127 $284 $287 reversed $122 $-1 #
coedge $-1 $127 $286 $279 $288 reversed $122 $-1 #
vertex $-1 $288 $289 #
vertex $-1 $128 $290 #
straight-curve $-1 -39.310861537522506 -22.736584061790715 0 0 0 -1 I I #
coedge $-1 $281 $291 $129 $209 forward $277 $-1 #
edge $-1 $213 -4.8270919121144233 $210 4.8270919121144233 $208 $292 forward 7 unknown #
vertex $-1 $209 $293 #
straight-curve $-1 -20.405430768761253 -18.243079600754157 4.8270919121144233 1 0 0 I I #
coedge $-1 $294 $131 $291 $295 forward $196 $-1 #
vertex $-1 $295 $296 #
straight-curve $-1 -20.405430768761253 -18.243079600754157 -4.8270919121144233 -1 0 0 I I #
point $-1 -39.310861537522506 -18.243079600754157 4.8270919121144233 #
point $-1 -39.310861537522506 -18.243079600754157 -4.8270919121144233 #
face $-1 $297 $298 $17 $-1 $299 forward single #
loop $-1 $-1 $300 $136 #
plane-surface $-1 -40.810861537522506 -18.243079600754157 0 0 -1 0 0 0 -1 forward_v I I I I #
coedge $-1 $139 $301 $302 $303 reversed $79 $-1 #
coedge $-1 $141 $140 $228 $304 reversed $49 $-1 #
coedge $-1 $302 $305 $140 $223 forward $306 $-1 #
edge $-1 $307 24.247035807384698 $224 27.844448345073815 $222 $308 forward 7 unknown #
vertex $-1 $303 $309 #
straight-curve $-1 -15.735929397990088 22.736584061790715 1.7435074894862197 1 0 0 I I #
vertex $-1 $304 $310 #
straight-curve $-1 -20.632856054437845 -0.68382831569569191 40.721620620626624 0 -0.51503806187062418 0.85716730853699208 I I #
coedge $-1 $311 $144 $221 $304 forward $137 $-1 #
coedge $-1 $144 $312 $146 $232 forward $137 $-1 #
straight-curve $-1 -20.632856054437845 35.925573148151656 4.827091912114426 0 -1 0 I I #
coedge $-1 $301 $146 $313 $314 forward $79 $-1 #
edge $-1 $315 -42.310861537522506 $148 20.632856054437845 $146 $316 forward 7 unknown #
point $-1 -20.632856054437845 22.736584061790715 1.7435074894862268 #
point $-1 -20.632856054437845 22.736584061790715 4.8270919121144233 #
face $-1 $317 $318 $18 $-1 $319 forward single #
loop $-1 $-1 $320 $150 #
plane-surface $-1 0 22.736584061790715 0 0 -1 0 0 0 -1 forward_v I I I I #
loop $-1 $-1 $321 $86 #
coedge $-1 $240 $153 $322 $323 forward $87 $-1 #
coedge $-1 $153 $239 $324 $325 reversed $87 $-1 #
coedge $-1 $326 $320 $153 $242 forward $236 $-1 #
edge $-1 $327 -40.409006943189013 $328 -37.325422520560814 $241 $329 forward 7 unknown #
edge $-1 $330 1 $330 0 $154 $-1 forward 7 unknown #
vertex $-1 $155 $331 #
ellipse-curve $-1 -36.117145685212598 20.364949707913759 2.4169166384459211 0 0.85716730853699208 0.51503806187062418 0.5 0 0 1 I I #
point $-1 -35.617145685212598 21.810181871210467 3.2852997008003131 #
face $-1 $332 $165 $19 $-1 $333 forward single #
loop $-1 $-1 $334 $158 #
plane-surface $-1 -20.632856054437845 71.851146296303313 84.305028865350479 -1 0 0 0 0.85716730853699208 0.51503806187062418 forward_v I I I I #
loop $-1 $-1 $335 $94 #
coedge $-1 $251 $251 $252 $336 forward $159 $-1 #
coedge $-1 $252 $252 $251 $336 reversed $161 $-1 #
coedge $-1 $253 $253 $162 $254 forward $258 $-1 #
edge $-1 $337 3.2025152785405749e-016 $337 6.2831853071796004 $253 $338 forward 7 unknown #
edge $-1 $339 1 $339 0 $163 $-1 forward 7 unknown #
vertex $-1 $164 $340 #
ellipse-curve $-1 -26.826571906747745 20.364949707913759 2.4169166384459211 0 0.85716730853699208 0.51503806187062418 0.5 0 0 1 I I #
loop $-1 $341 $253 $247 #
point $-1 -26.326571906747745 21.810181871210467 3.2852997008003131 #
plane-surface $-1 42.310861537522506 0 0 -1 0 0 0 0 1 forward_v I I I I #
coedge $-1 $173 $171 $175 $265 reversed $103 $-1 #
edge $-1 $186 -4.8270919121144233 $267 4.8270919121144233 $185 $342 forward 7 unknown #
vertex $-1 $265 $343 #
straight-curve $-1 -42.310861537522506 -22.736584061790715 0 0 0 -1 I I #
edge $-1 $263 -22.736584061790715 $267 22.736584061790715 $261 $344 forward 7 unknown #
straight-curve $-1 0 -22.736584061790715 -4.8270919121144233 -1 0 0 I I #
vertex $-1 $178 $345 #
straight-curve $-1 0 22.736584061790715 -4.8270919121144233 1 0 0 I I #
point $-1 42.310861537522506 22.736584061790715 -4.8270919121144233 #
point $-1 42.310861537522506 -22.736584061790715 -4.8270919121144233 #
straight-curve $-1 -42.310861537522506 0 4.8270919121144233 0 -1 0 I I #
point $-1 -42.310861537522506 22.736584061790715 4.8270919121144233 #
point $-1 -42.310861537522506 -22.736584061790715 4.8270919121144233 #
straight-curve $-1 42.310861537522506 -22.736584061790715 0 0 0 -1 I I #
straight-curve $-1 42.310861537522506 22.736584061790715 0 0 0 -1 I I #
face $-1 $346 $347 $16 $-1 $348 reversed single #
loop $-1 $-1 $208 $195 #
plane-surface $-1 -42.310861537522506 0 0 1 0 0 0 0 -1 forward_v I I I I #
coedge $-1 $349 $198 $204 $288 forward $71 $-1 #
coedge $-1 $199 $349 $350 $351 forward $71 $-1 #
coedge $-1 $352 $208 $199 $282 reversed $277 $-1 #
edge $-1 $353 -22.736584061790715 $210 18.243079600754157 $281 $354 forward 7 unknown #
straight-curve $-1 -39.310861537522506 -10.244915915636218 4.8270919121144233 0 -1 0 I I #
coedge $-1 $201 $355 $203 $287 forward $196 $-1 #
straight-curve $-1 -39.310861537522506 -10.244915915636218 -4.8270919121144233 0 1 0 I I #
coedge $-1 $204 $203 $356 $357 reversed $122 $-1 #
edge $-1 $358 -42.310861537522506 $206 39.310861537522506 $203 $359 forward 7 unknown #
edge $-1 $205 -39.310861537522506 $360 42.310861537522506 $204 $361 forward 7 unknown #
point $-1 -39.310861537522506 -22.736584061790715 4.8270919121144233 #
point $-1 -39.310861537522506 -22.736584061790715 -4.8270919121144233 #
coedge $-1 $208 $352 $212 $295 reversed $277 $-1 #
straight-curve $-1 -42.310861537522506 -18.243079600754157 0 0 0 1 I I #
point $-1 -42.310861537522506 -18.243079600754157 4.8270919121144233 #
coedge $-1 $355 $212 $362 $363 forward $196 $-1 #
edge $-1 $213 -18.243079600754157 $364 22.736584061790715 $291 $365 forward 7 unknown #
point $-1 -42.310861537522506 -18.243079600754157 -4.8270919121144233 #
face $-1 $366 $367 $17 $-1 $368 reversed single #
loop $-1 $-1 $369 $217 #
plane-surface $-1 -39.310861537522506 -20.489831831272436 0 -1 0 0 0 0 1 forward_v I I I I #
coedge $-1 $370 $371 $372 $373 reversed $218 $-1 #
coedge $-1 $220 $231 $374 $375 reversed $79 $-1 #
coedge $-1 $376 $222 $220 $303 forward $306 $-1 #
edge $-1 $224 -1.7435074894862175 $377 4.8270919121144233 $220 $378 forward 7 unknown #
edge $-1 $226 4.8969266564477572 $307 26.574932139532418 $228 $379 forward 7 unknown #
coedge $-1 $222 $380 $311 $381 reversed $306 $-1 #
loop $-1 $-1 $222 $382 #
vertex $-1 $381 $383 #
straight-curve $-1 -42.310861537522506 8.3956333522871915 25.610858335130438 0 0.51503806187062429 -0.85716730853699219 I I #
point $-1 -42.310861537522506 22.736584061790715 1.7435074894862175 #
point $-1 -20.632856054437845 20.883779680630234 4.827091912114426 #
coedge $-1 $384 $228 $305 $381 forward $137 $-1 #
coedge $-1 $229 $385 $386 $387 forward $137 $-1 #
coedge $-1 $386 $388 $231 $314 reversed $389 $-1 #
edge $-1 $315 -4.8270919121144233 $390 4.8270919121144233 $313 $391 forward 7 unknown #
vertex $-1 $387 $392 #
straight-curve $-1 0 22.736584061790715 4.8270919121144233 -1 0 0 I I #
face $-1 $393 $394 $18 $-1 $395 forward single #
loop $-1 $-1 $324 $235 #
plane-surface $-1 0 0 4.8270919121144233 0 0 1 1 0 0 forward_v I I I I #
coedge $-1 $241 $396 $321 $397 forward $236 $-1 #
coedge $-1 $398 $322 $320 $397 reversed $238 $-1 #
coedge $-1 $321 $399 $239 $323 reversed $238 $-1 #
edge $-1 $327 -45.473168123581395 $400 -41.875755585892286 $239 $401 forward 7 unknown #
coedge $-1 $402 $403 $240 $325 forward $318 $-1 #
edge $-1 $328 13.188989086360941 $400 15.041793467521423 $324 $404 forward 7 unknown #
coedge $-1 $405 $241 $403 $406 reversed $236 $-1 #
vertex $-1 $397 $407 #
vertex $-1 $325 $408 #
straight-curve $-1 -20.632856054437845 22.736584061790715 42.15251443267524 0 0 1 I I #
vertex $-1 $243 $409 #
point $-1 -35.617145685212598 20.364949707913759 2.4169166384459211 #
face $-1 $410 $411 $19 $-1 $412 reversed single #
plane-surface $-1 -31.471858795980175 -0.68382831569569191 40.721620620626624 0 0.85716730853699208 0.51503806187062418 1 0 0 forward_v I I I I #
coedge $-1 $413 $414 $415 $416 reversed $248 $-1 #
coedge $-1 $335 $335 $-1 $417 forward $250 $-1 #
edge $-1 $418 0 $418 6.2831853071796004 $251 $419 forward 7 unknown #
vertex $-1 $254 $420 #
ellipse-curve $-1 -36.117145685212598 21.810181871210478 3.2852997008003193 0 -0.85716730853699208 -0.51503806187062418 0.5 0 0 1 I I #
vertex $-1 $255 $421 #
point $-1 -26.326571906747745 20.364949707913759 2.4169166384459211 #
loop $-1 $-1 $422 $247 #
straight-curve $-1 -42.310861537522506 22.736584061790715 0 0 0 -1 I I #
point $-1 -42.310861537522506 -22.736584061790715 -4.8270919121144233 #
straight-curve $-1 -42.310861537522506 0 -4.8270919121144233 0 1 0 I I #
point $-1 -42.310861537522506 22.736584061790715 -4.8270919121144233 #
face $-1 $-1 $423 $16 $-1 $424 reversed single #
loop $-1 $-1 $425 $276 #
plane-surface $-1 0 22.736584061790715 0 0 -1 0 0 0 -1 forward_v I I I I #
coedge $-1 $280 $279 $426 $427 forward $71 $-1 #
coedge $-1 $425 $428 $280 $351 reversed $347 $-1 #
edge $-1 $429 -42.310861537522506 $353 42.310861537522506 $350 $430 forward 7 unknown #
coedge $-1 $291 $281 $428 $431 forward $277 $-1 #
vertex $-1 $351 $432 #
straight-curve $-1 -42.310861537522506 0 4.8270919121144233 0 -1 0 I I #
coedge $-1 $284 $294 $433 $434 forward $196 $-1 #
coedge $-1 $433 $426 $286 $357 forward $423 $-1 #
edge $-1 $360 -4.8270919121144233 $358 4.8270919121144233 $356 $435 forward 7 unknown #
vertex $-1 $357 $436 #
straight-curve $-1 0 -22.736584061790715 -4.8270919121144233 -1 0 0 I I #
vertex $-1 $427 $437 #
straight-curve $-1 0 -22.736584061790715 4.8270919121144233 1 0 0 I I #
coedge $-1 $428 $425 $294 $363 reversed $347 $-1 #
edge $-1 $364 -42.310861537522506 $438 42.310861537522506 $362 $439 forward 7 unknown #
vertex $-1 $363 $440 #
straight-curve $-1 -42.310861537522506 0 -4.8270919121144233 0 1 0 I I #
face $-1 $382 $441 $17 $-1 $442 reversed single #
loop $-1 $-1 $443 $297 #
plane-surface $-1 0 -22.736584061790715 0 0 1 0 0 0 1 forward_v I I I I #
coedge $-1 $444 $445 $443 $446 reversed $298 $-1 #
coedge $-1 $447 $300 $384 $448 reversed $218 $-1 #
coedge $-1 $300 $447 $449 $450 reversed $218 $-1 #
coedge $-1 $445 $444 $300 $373 forward $298 $-1 #
edge $-1 $451 -4.8270919121144233 $452 4.8270919121144233 $372 $453 forward 7 unknown #
coedge $-1 $454 $455 $301 $375 forward $441 $-1 #
edge $-1 $377 -42.310861537522506 $390 42.310861537522506 $301 $456 forward 7 unknown #
coedge $-1 $380 $302 $455 $457 reversed $306 $-1 #
vertex $-1 $375 $458 #
straight-curve $-1 -42.310861537522506 22.736584061790715 0 0 0 -1 I I #
straight-curve $-1 -15.735929397990088 20.883779680630234 4.8270919121144225 -1 0 0 I I #
coedge $-1 $305 $376 $447 $459 forward $306 $-1 #
edge $-1 $307 -20.883779680630234 $460 18.243079600754157 $305 $461 forward 7 unknown #
face $-1 $462 $306 $17 $-1 $463 reversed single #
point $-1 -42.310861537522506 20.883779680630234 4.827091912114426 #
coedge $-1 $464 $311 $370 $448 forward $137 $-1 #
coedge $-1 $312 $464 $465 $466 forward $137 $-1 #
coedge $-1 $467 $313 $312 $387 reversed $389 $-1 #
edge $-1 $468 -22.736584061790715 $315 22.736584061790715 $386 $469 forward 7 unknown #
coedge $-1 $313 $467 $454 $470 reversed $389 $-1 #
loop $-1 $-1 $467 $462 #
vertex $-1 $470 $471 #
straight-curve $-1 42.310861537522506 22.736584061790715 0 0 0 -1 I I #
point $-1 42.310861537522506 22.736584061790715 4.8270919121144233 #
face $-1 $472 $473 $18 $-1 $474 forward single #
loop $-1 $-1 $475 $317 #
plane-surface $-1 -40.810861537522506 -18.243079600754157 0 0 -1 0 0 0 -1 forward_v I I I I #
coedge $-1 $320 $476 $477 $478 reversed $236 $-1 #
edge $-1 $479 -26.574932139532418 $327 -4.8969266564477572 $320 $480 forward 7 unknown #
coedge $-1 $399 $321 $481 $482 reversed $238 $-1 #
coedge $-1 $322 $398 $402 $483 reversed $238 $-1 #
vertex $-1 $483 $484 #
straight-curve $-1 -20.632856054437845 -0.68382831569569191 40.721620620626624 0 -0.51503806187062418 0.85716730853699208 I I #
coedge $-1 $485 $324 $399 $483 forward $318 $-1 #
coedge $-1 $324 $486 $326 $406 forward $318 $-1 #
straight-curve $-1 -20.632856054437845 35.925573148151656 4.827091912114426 0 -1 0 I I #
coedge $-1 $476 $326 $487 $488 forward $236 $-1 #
edge $-1 $489 -42.310861537522506 $328 20.632856054437845 $326 $490 forward 7 unknown #
point $-1 -20.632856054437845 22.736584061790715 1.7435074894862268 #
point $-1 -20.632856054437845 22.736584061790715 4.8270919121144233 #
point $-1 -36.117145685212598 19.936366053645266 2.1593976075106087 #
face $-1 $491 $492 $19 $-1 $493 forward single #
loop $-1 $-1 $494 $332 #
plane-surface $-1 0 22.736584061790715 0 0 -1 0 0 0 -1 forward_v I I I I #
coedge $-1 $414 $334 $495 $496 forward $248 $-1 #
coedge $-1 $334 $413 $497 $498 reversed $248 $-1 #
coedge $-1 $499 $494 $334 $416 forward $411 $-1 #
edge $-1 $500 -40.409006943189013 $501 -37.325422520560814 $415 $502 forward 7 unknown #
edge $-1 $503 1 $503 0 $335 $-1 forward 7 unknown #
vertex $-1 $336 $504 #
ellipse-curve $-1 -36.117145685212598 20.364949707913759 2.4169166384459211 0 0.85716730853699208 0.51503806187062418 0.5 0 0 1 I I #
point $-1 -35.617145685212598 21.810181871210467 3.2852997008003131 #
point $-1 -26.826571906747745 19.936366053645266 2.1593976075106087 #
coedge $-1 $505 $495 $494 $506 reversed $341 $-1 #
loop $-1 $-1 $356 $346 #
plane-surface $-1 42.310861537522506 0 0 -1 0 0 0 0 1 forward_v I I I I #
coedge $-1 $362 $350 $507 $508 forward $347 $-1 #
coedge $-1 $356 $507 $349 $427 reversed $423 $-1 #
edge $-1 $360 -22.736584061790715 $429 22.736584061790715 $426 $509 forward 7 unknown #
coedge $-1 $350 $362 $352 $431 reversed $347 $-1 #
vertex $-1 $427 $510 #
straight-curve $-1 0 22.736584061790715 4.8270919121144233 -1 0 0 I I #
edge $-1 $353 -4.8270919121144233 $364 4.8270919121144233 $428 $511 forward 7 unknown #
point $-1 -42.310861537522506 22.736584061790715 4.8270919121144233 #
coedge $-1 $507 $356 $355 $434 reversed $423 $-1 #
edge $-1 $438 -22.736584061790715 $358 22.736584061790715 $433 $512 forward 7 unknown #
straight-curve $-1 42.310861537522506 -22.736584061790715 0 0 0 -1 I I #
point $-1 42.310861537522506 -22.736584061790715 -4.8270919121144233 #
point $-1 42.310861537522506 -22.736584061790715 4.8270919121144233 #
vertex $-1 $434 $513 #
straight-curve $-1 0 22.736584061790715 -4.8270919121144233 1 0 0 I I #
point $-1 -42.310861537522506 22.736584061790715 -4.8270919121144233 #
loop $-1 $-1 $449 $366 #
plane-surface $-1 0 0 -4.8270919121144233 0 0 1 1 0 0 forward_v I I I I #
coedge $-1 $514 $465 $369 $446 forward $367 $-1 #
coedge $-1 $372 $369 $464 $515 reversed $298 $-1 #
coedge $-1 $369 $372 $516 $517 reversed $298 $-1 #
edge $-1 $518 -4.8270919121144233 $519 4.8270919121144233 $443 $520 forward 7 unknown #
coedge $-1 $371 $370 $380 $459 reversed $218 $-1 #
edge $-1 $460 -21.905430768761253 $451 -18.905430768761253 $384 $521 forward 7 unknown #
coedge $-1 $455 $516 $371 $450 forward $441 $-1 #
edge $-1 $452 18.905430768761253 $522 21.905430768761253 $449 $523 forward 7 unknown #
vertex $-1 $448 $524 #
vertex $-1 $450 $525 #
straight-curve $-1 -39.310861537522506 -18.243079600754157 0 0 0 -1 I I #
coedge $-1 $526 $374 $388 $470 forward $441 $-1 #
coedge $-1 $374 $449 $376 $457 forward $441 $-1 #
straight-curve $-1 0 22.736584061790715 -4.8270919121144233 1 0 0 I I #
edge $-1 $522 -18.243079600754157 $377 22.736584061790715 $376 $527 forward 7 unknown #
point $-1 -42.310861537522506 22.736584061790715 -4.8270919121144233 #
edge $-1 $522 -4.8270919121144233 $460 4.8270919121144233 $380 $528 forward 7 unknown #
vertex $-1 $459 $529 #
straight-curve $-1 -42.310861537522506 0 4.8270919121144233 0 -1 0 I I #
face $-1 $-1 $389 $17 $-1 $530 reversed single #
plane-surface $-1 -42.310861537522506 0 0 1 0 0 0 0 -1 forward_v I I I I #
coedge $-1 $385 $384 $444 $515 forward $137 $-1 #
coedge $-1 $443 $531 $385 $466 reversed $367 $-1 #
edge $-1 $518 -39.310861537522506 $468 42.310861537522506 $465 $532 forward 7 unknown #
coedge $-1 $388 $386 $531 $533 forward $389 $-1 #
vertex $-1 $387 $534 #
straight-curve $-1 42.310861537522506 0 4.8270919121144233 0 1 0 I I #
edge $-1 $390 -22.736584061790715 $535 22.736584061790715 $388 $536 forward 7 unknown #
point $-1 42.310861537522506 22.736584061790715 -4.8270919121144233 #
face $-1 $537 $538 $18 $-1 $539 reversed single #
loop $-1 $-1 $540 $393 #
plane-surface $-1 -39.310861537522506 -20.489831831272436 0 -1 0 0 0 0 1 forward_v I I I I #
coedge $-1 $541 $542 $543 $544 reversed $394 $-1 #
coedge $-1 $396 $405 $545 $546 reversed $236 $-1 #
coedge $-1 $547 $481 $396 $478 forward $548 $-1 #
edge $-1 $479 -1.7435074894862175 $549 4.8270919121144233 $396 $550 forward 7 unknown #
vertex $-1 $478 $551 #
straight-curve $-1 -15.735929397990088 22.736584061790715 1.7435074894862197 1 0 0 I I #
coedge $-1 $477 $552 $398 $482 forward $548 $-1 #
edge $-1 $553 24.247035807384698 $479 27.844448345073815 $481 $554 forward 7 unknown #
edge $-1 $400 4.8969266564477572 $553 26.574932139532418 $402 $555 forward 7 unknown #
point $-1 -20.632856054437845 20.883779680630234 4.827091912114426 #
coedge $-1 $556 $402 $552 $557 forward $318 $-1 #
coedge $-1 $403 $558 $559 $560 forward $318 $-1 #
coedge $-1 $559 $561 $405 $488 reversed $562 $-1 #
edge $-1 $489 -4.8270919121144233 $563 4.8270919121144233 $487 $564 forward 7 unknown #
vertex $-1 $560 $565 #
straight-curve $-1 0 22.736584061790715 4.8270919121144233 -1 0 0 I I #
face $-1 $566 $567 $19 $-1 $568 forward single #
loop $-1 $-1 $497 $410 #
plane-surface $-1 0 0 4.8270919121144233 0 0 1 1 0 0 forward_v I I I I #
coedge $-1 $415 $569 $422 $506 forward $411 $-1 #
coedge $-1 $422 $570 $413 $496 reversed $341 $-1 #
edge $-1 $500 -45.473168123581395 $571 -41.875755585892286 $413 $572 forward 7 unknown #
coedge $-1 $573 $574 $414 $498 forward $492 $-1 #
edge $-1 $501 13.188989086360941 $571 15.041793467521423 $497 $575 forward 7 unknown #
coedge $-1 $576 $415 $574 $577 reversed $411 $-1 #
vertex $-1 $506 $578 #
vertex $-1 $498 $579 #
straight-curve $-1 -20.632856054437845 22.736584061790715 42.15251443267524 0 0 1 I I #
vertex $-1 $417 $580 #
point $-1 -35.617145685212598 20.364949707913759 2.4169166384459211 #
coedge $-1 $570 $422 $581 $582 reversed $341 $-1 #
edge $-1 $583 -26.574932139532418 $500 -4.8969266564477572 $494 $584 forward 7 unknown #
coedge $-1 $426 $433 $425 $508 reversed $423 $-1 #
edge $-1 $429 -4.8270919121144233 $438 4.8270919121144233 $507 $585 forward 7 unknown #
straight-curve $-1 42.310861537522506 0 4.8270919121144233 0 1 0 I I #
point $-1 42.310861537522506 22.736584061790715 4.8270919121144233 #
straight-curve $-1 -42.310861537522506 22.736584061790715 0 0 0 -1 I I #
straight-curve $-1 42.310861537522506 0 -4.8270919121144233 0 -1 0 I I #
point $-1 42.310861537522506 22.736584061790715 -4.8270919121144233 #
coedge $-1 $531 $443 $526 $586 reversed $367 $-1 #
edge $-1 $451 7.9981636851179392 $518 12.491668146154497 $464 $587 forward 7 unknown #
coedge $-1 $449 $526 $445 $517 forward $441 $-1 #
edge $-1 $519 -12.491668146154497 $452 -7.9981636851179392 $516 $588 forward 7 unknown #
vertex $-1 $466 $589 #
vertex $-1 $446 $590 #
straight-curve $-1 -39.310861537522506 -22.736584061790715 0 0 0 -1 I I #
straight-curve $-1 -20.405430768761253 -18.243079600754157 4.8270919121144233 1 0 0 I I #
vertex $-1 $457 $591 #
straight-curve $-1 -20.405430768761253 -18.243079600754157 -4.8270919121144233 -1 0 0 I I #
point $-1 -39.310861537522506 -18.243079600754157 4.8270919121144233 #
point $-1 -39.310861537522506 -18.243079600754157 -4.8270919121144233 #
coedge $-1 $516 $454 $514 $586 forward $441 $-1 #
straight-curve $-1 -42.310861537522506 0 -4.8270919121144233 0 1 0 I I #
straight-curve $-1 -42.310861537522506 -18.243079600754157 0 0 0 1 I I #
point $-1 -42.310861537522506 -18.243079600754157 4.8270919121144233 #
plane-surface $-1 42.310861537522506 0 0 -1 0 0 0 0 1 forward_v I I I I #
coedge $-1 $465 $514 $467 $533 reversed $367 $-1 #
straight-curve $-1 0 -22.736584061790715 4.8270919121144233 1 0 0 I I #
edge $-1 $468 -4.8270919121144233 $535 4.8270919121144233 $467 $592 forward 7 unknown #
point $-1 42.310861537522506 -22.736584061790715 4.8270919121144233 #
vertex $-1 $533 $593 #
straight-curve $-1 42.310861537522506 0 -4.8270919121144233 0 -1 0 I I #
face $-1 $594 $595 $18 $-1 $596 reversed single #
loop $-1 $-1 $597 $472 #
plane-surface $-1 0 -22.736584061790715 0 0 1 0 0 0 1 forward_v I I I I #
coedge $-1 $598 $599 $597 $600 reversed $473 $-1 #
coedge $-1 $601 $475 $556 $602 reversed $394 $-1 #
coedge $-1 $475 $601 $603 $604 reversed $394 $-1 #
coedge $-1 $599 $598 $475 $544 forward $473 $-1 #
edge $-1 $605 -4.8270919121144233 $606 4.8270919121144233 $543 $607 forward 7 unknown #
coedge $-1 $608 $609 $476 $546 forward $595 $-1 #
edge $-1 $549 -42.310861537522506 $563 42.310861537522506 $476 $610 forward 7 unknown #
coedge $-1 $611 $477 $609 $612 reversed $548 $-1 #
loop $-1 $-1 $481 $594 #
vertex $-1 $546 $613 #
straight-curve $-1 -42.310861537522506 22.736584061790715 0 0 0 -1 I I #
point $-1 -42.310861537522506 22.736584061790715 1.7435074894862175 #
coedge $-1 $481 $611 $485 $557 reversed $548 $-1 #
vertex $-1 $557 $614 #
straight-curve $-1 -42.310861537522506 8.3956333522871915 25.610858335130438 0 0.51503806187062429 -0.85716730853699219 I I #
straight-curve $-1 -15.735929397990088 20.883779680630234 4.8270919121144225 -1 0 0 I I #
coedge $-1 $615 $485 $541 $602 forward $318 $-1 #
edge $-1 $553 -20.883779680630234 $616 18.243079600754157 $552 $617 forward 7 unknown #
coedge $-1 $486 $615 $618 $619 forward $318 $-1 #
coedge $-1 $620 $487 $486 $560 reversed $562 $-1 #
edge $-1 $621 -22.736584061790715 $489 22.736584061790715 $559 $622 forward 7 unknown #
coedge $-1 $487 $620 $608 $623 reversed $562 $-1 #
loop $-1 $-1 $620 $624 #
vertex $-1 $623 $625 #
straight-curve $-1 42.310861537522506 22.736584061790715 0 0 0 -1 I I #
point $-1 42.310861537522506 22.736584061790715 4.8270919121144233 #
face $-1 $626 $627 $19 $-1 $628 forward single #
loop $-1 $-1 $629 $491 #
plane-surface $-1 -40.810861537522506 -18.243079600754157 0 0 -1 0 0 0 -1 forward_v I I I I #
coedge $-1 $494 $630 $631 $632 reversed $411 $-1 #
coedge $-1 $495 $505 $573 $633 reversed $341 $-1 #
vertex $-1 $633 $634 #
straight-curve $-1 -20.632856054437845 -0.68382831569569191 40.721620620626624 0 -0.51503806187062418 0.85716730853699208 I I #
coedge $-1 $635 $497 $570 $633 forward $492 $-1 #
coedge $-1 $497 $636 $499 $577 forward $492 $-1 #
straight-curve $-1 -20.632856054437845 35.925573148151656 4.827091912114426 0 -1 0 I I #
coedge $-1 $630 $499 $637 $638 forward $411 $-1 #
edge $-1 $639 -42.310861537522506 $501 20.632856054437845 $499 $640 forward 7 unknown #
point $-1 -20.632856054437845 22.736584061790715 1.7435074894862268 #
point $-1 -20.632856054437845 22.736584061790715 4.8270919121144233 #
point $-1 -36.117145685212598 19.936366053645266 2.1593976075106087 #
coedge $-1 $631 $641 $505 $582 forward $642 $-1 #
edge $-1 $643 24.247035807384698 $583 27.844448345073815 $581 $644 forward 7 unknown #
vertex $-1 $632 $645 #
straight-curve $-1 -15.735929397990088 22.736584061790715 1.7435074894862197 1 0 0 I I #
straight-curve $-1 42.310861537522506 22.736584061790715 0 0 0 -1 I I #
edge $-1 $535 -42.310861537522506 $519 39.310861537522506 $514 $646 forward 7 unknown #
straight-curve $-1 -39.310861537522506 -10.244915915636218 4.8270919121144233 0 -1 0 I I #
straight-curve $-1 -39.310861537522506 -10.244915915636218 -4.8270919121144233 0 1 0 I I #
point $-1 -39.310861537522506 -22.736584061790715 4.8270919121144233 #
point $-1 -39.310861537522506 -22.736584061790715 -4.8270919121144233 #
point $-1 -42.310861537522506 -18.243079600754157 -4.8270919121144233 #
straight-curve $-1 42.310861537522506 -22.736584061790715 0 0 0 -1 I I #
point $-1 42.310861537522506 -22.736584061790715 -4.8270919121144233 #
face $-1 $624 $548 $18 $-1 $647 reversed single #
loop $-1 $-1 $603 $537 #
plane-surface $-1 0 0 -4.8270919121144233 0 0 1 1 0 0 forward_v I I I I #
coedge $-1 $648 $618 $540 $600 forward $538 $-1 #
coedge $-1 $543 $540 $615 $649 reversed $473 $-1 #
coedge $-1 $540 $543 $650 $651 reversed $473 $-1 #
edge $-1 $652 -4.8270919121144233 $653 4.8270919121144233 $597 $654 forward 7 unknown #
coedge $-1 $542 $541 $611 $655 reversed $394 $-1 #
edge $-1 $616 -21.905430768761253 $605 -18.905430768761253 $556 $656 forward 7 unknown #
coedge $-1 $609 $650 $542 $604 forward $595 $-1 #
edge $-1 $606 18.905430768761253 $657 21.905430768761253 $603 $658 forward 7 unknown #
vertex $-1 $602 $659 #
vertex $-1 $604 $660 #
straight-curve $-1 -39.310861537522506 -18.243079600754157 0 0 0 -1 I I #
coedge $-1 $661 $545 $561 $623 forward $595 $-1 #
coedge $-1 $545 $603 $547 $612 forward $595 $-1 #
straight-curve $-1 0 22.736584061790715 -4.8270919121144233 1 0 0 I I #
coedge $-1 $552 $547 $601 $655 forward $548 $-1 #
edge $-1 $657 -18.243079600754157 $549 22.736584061790715 $547 $662 forward 7 unknown #
point $-1 -42.310861537522506 22.736584061790715 -4.8270919121144233 #
point $-1 -42.310861537522506 20.883779680630234 4.827091912114426 #
coedge $-1 $558 $556 $598 $649 forward $318 $-1 #
vertex $-1 $655 $663 #
straight-curve $-1 -42.310861537522506 0 4.8270919121144233 0 -1 0 I I #
coedge $-1 $597 $664 $558 $619 reversed $538 $-1 #
edge $-1 $652 -39.310861537522506 $621 42.310861537522506 $618 $665 forward 7 unknown #
coedge $-1 $561 $559 $664 $666 forward $562 $-1 #
vertex $-1 $560 $667 #
straight-curve $-1 42.310861537522506 0 4.8270919121144233 0 1 0 I I #
edge $-1 $563 -22.736584061790715 $668 22.736584061790715 $561 $669 forward 7 unknown #
face $-1 $-1 $562 $18 $-1 $670 reversed single #
point $-1 42.310861537522506 22.736584061790715 -4.8270919121144233 #
face $-1 $671 $672 $19 $-1 $673 reversed single #
loop $-1 $-1 $674 $566 #
plane-surface $-1 -39.310861537522506 -20.489831831272436 0 -1 0 0 0 0 1 forward_v I I I I #
coedge $-1 $675 $676 $677 $678 reversed $567 $-1 #
coedge $-1 $569 $576 $679 $680 reversed $411 $-1 #
coedge $-1 $681 $581 $569 $632 forward $642 $-1 #
edge $-1 $583 -1.7435074894862175 $682 4.8270919121144233 $569 $683 forward 7 unknown #
edge $-1 $571 4.8969266564477572 $643 26.574932139532418 $573 $684 forward 7 unknown #
point $-1 -20.632856054437845 20.883779680630234 4.827091912114426 #
coedge $-1 $685 $573 $641 $686 forward $492 $-1 #
coedge $-1 $574 $687 $688 $689 forward $492 $-1 #
coedge $-1 $688 $690 $576 $638 reversed $691 $-1 #
edge $-1 $639 -4.8270919121144233 $692 4.8270919121144233 $637 $693 forward 7 unknown #
vertex $-1 $689 $694 #
straight-curve $-1 0 22.736584061790715 4.8270919121144233 -1 0 0 I I #
coedge $-1 $581 $695 $635 $686 reversed $642 $-1 #
loop $-1 $-1 $581 $696 #
vertex $-1 $686 $697 #
straight-curve $-1 -42.310861537522506 8.3956333522871915 25.610858335130438 0 0.51503806187062429 -0.85716730853699219 I I #
point $-1 -42.310861537522506 22.736584061790715 1.7435074894862175 #
straight-curve $-1 0 -22.736584061790715 -4.8270919121144233 -1 0 0 I I #
plane-surface $-1 -42.310861537522506 0 0 1 0 0 0 0 -1 forward_v I I I I #
coedge $-1 $664 $597 $661 $698 reversed $538 $-1 #
edge $-1 $605 7.9981636851179392 $652 12.491668146154497 $615 $699 forward 7 unknown #
coedge $-1 $603 $661 $599 $651 forward $595 $-1 #
edge $-1 $653 -12.491668146154497 $606 -7.9981636851179392 $650 $700 forward 7 unknown #
vertex $-1 $619 $701 #
vertex $-1 $600 $702 #
straight-curve $-1 -39.310861537522506 -22.736584061790715 0 0 0 -1 I I #
edge $-1 $657 -4.8270919121144233 $616 4.8270919121144233 $611 $703 forward 7 unknown #
straight-curve $-1 -20.405430768761253 -18.243079600754157 4.8270919121144233 1 0 0 I I #
vertex $-1 $612 $704 #
straight-curve $-1 -20.405430768761253 -18.243079600754157 -4.8270919121144233 -1 0 0 I I #
point $-1 -39.310861537522506 -18.243079600754157 4.8270919121144233 #
point $-1 -39.310861537522506 -18.243079600754157 -4.8270919121144233 #
coedge $-1 $650 $608 $648 $698 forward $595 $-1 #
straight-curve $-1 -42.310861537522506 0 -4.8270919121144233 0 1 0 I I #
point $-1 -42.310861537522506 -18.243079600754157 4.8270919121144233 #
coedge $-1 $618 $648 $620 $666 reversed $538 $-1 #
straight-curve $-1 0 -22.736584061790715 4.8270919121144233 1 0 0 I I #
edge $-1 $621 -4.8270919121144233 $668 4.8270919121144233 $620 $705 forward 7 unknown #
point $-1 42.310861537522506 -22.736584061790715 4.8270919121144233 #
vertex $-1 $666 $706 #
straight-curve $-1 42.310861537522506 0 -4.8270919121144233 0 -1 0 I I #
plane-surface $-1 42.310861537522506 0 0 -1 0 0 0 0 1 forward_v I I I I #
face $-1 $696 $707 $19 $-1 $708 reversed single #
loop $-1 $-1 $709 $626 #
plane-surface $-1 0 -22.736584061790715 0 0 1 0 0 0 1 forward_v I I I I #
coedge $-1 $710 $711 $709 $712 reversed $627 $-1 #
coedge $-1 $713 $629 $685 $714 reversed $567 $-1 #
coedge $-1 $629 $713 $715 $716 reversed $567 $-1 #
coedge $-1 $711 $710 $629 $678 forward $627 $-1 #
edge $-1 $717 -4.8270919121144233 $718 4.8270919121144233 $677 $719 forward 7 unknown #
coedge $-1 $720 $721 $630 $680 forward $707 $-1 #
edge $-1 $682 -42.310861537522506 $692 42.310861537522506 $630 $722 forward 7 unknown #
coedge $-1 $695 $631 $721 $723 reversed $642 $-1 #
vertex $-1 $680 $724 #
straight-curve $-1 -42.310861537522506 22.736584061790715 0 0 0 -1 I I #
straight-curve $-1 -15.735929397990088 20.883779680630234 4.8270919121144225 -1 0 0 I I #
coedge $-1 $725 $635 $675 $714 forward $492 $-1 #
edge $-1 $643 -20.883779680630234 $726 18.243079600754157 $641 $727 forward 7 unknown #
coedge $-1 $636 $725 $728 $729 forward $492 $-1 #
coedge $-1 $730 $637 $636 $689 reversed $691 $-1 #
edge $-1 $731 -22.736584061790715 $639 22.736584061790715 $688 $732 forward 7 unknown #
coedge $-1 $637 $730 $720 $733 reversed $691 $-1 #
loop $-1 $-1 $730 $734 #
vertex $-1 $733 $735 #
straight-curve $-1 42.310861537522506 22.736584061790715 0 0 0 -1 I I #
point $-1 42.310861537522506 22.736584061790715 4.8270919121144233 #
coedge $-1 $641 $681 $713 $736 forward $642 $-1 #
face $-1 $734 $642 $19 $-1 $737 reversed single #
point $-1 -42.310861537522506 20.883779680630234 4.827091912114426 #
edge $-1 $668 -42.310861537522506 $653 39.310861537522506 $648 $738 forward 7 unknown #
straight-curve $-1 -39.310861537522506 -10.244915915636218 4.8270919121144233 0 -1 0 I I #
straight-curve $-1 -39.310861537522506 -10.244915915636218 -4.8270919121144233 0 1 0 I I #
point $-1 -39.310861537522506 -22.736584061790715 4.8270919121144233 #
point $-1 -39.310861537522506 -22.736584061790715 -4.8270919121144233 #
straight-curve $-1 -42.310861537522506 -18.243079600754157 0 0 0 1 I I #
point $-1 -42.310861537522506 -18.243079600754157 -4.8270919121144233 #
straight-curve $-1 42.310861537522506 -22.736584061790715 0 0 0 -1 I I #
point $-1 42.310861537522506 -22.736584061790715 -4.8270919121144233 #
loop $-1 $-1 $715 $671 #
plane-surface $-1 0 0 -4.8270919121144233 0 0 1 1 0 0 forward_v I I I I #
coedge $-1 $739 $728 $674 $712 forward $672 $-1 #
coedge $-1 $677 $674 $725 $740 reversed $627 $-1 #
coedge $-1 $674 $677 $741 $742 reversed $627 $-1 #
edge $-1 $743 -4.8270919121144233 $744 4.8270919121144233 $709 $745 forward 7 unknown #
coedge $-1 $676 $675 $695 $736 reversed $567 $-1 #
edge $-1 $726 -21.905430768761253 $717 -18.905430768761253 $685 $746 forward 7 unknown #
coedge $-1 $721 $741 $676 $716 forward $707 $-1 #
edge $-1 $718 18.905430768761253 $747 21.905430768761253 $715 $748 forward 7 unknown #
vertex $-1 $714 $749 #
vertex $-1 $716 $750 #
straight-curve $-1 -39.310861537522506 -18.243079600754157 0 0 0 -1 I I #
coedge $-1 $751 $679 $690 $733 forward $707 $-1 #
coedge $-1 $679 $715 $681 $723 forward $707 $-1 #
straight-curve $-1 0 22.736584061790715 -4.8270919121144233 1 0 0 I I #
edge $-1 $747 -18.243079600754157 $682 22.736584061790715 $681 $752 forward 7 unknown #
point $-1 -42.310861537522506 22.736584061790715 -4.8270919121144233 #
coedge $-1 $687 $685 $710 $740 forward $492 $-1 #
vertex $-1 $736 $753 #
straight-curve $-1 -42.310861537522506 0 4.8270919121144233 0 -1 0 I I #
coedge $-1 $709 $754 $687 $729 reversed $672 $-1 #
edge $-1 $743 -39.310861537522506 $731 42.310861537522506 $728 $755 forward 7 unknown #
coedge $-1 $690 $688 $754 $756 forward $691 $-1 #
vertex $-1 $689 $757 #
straight-curve $-1 42.310861537522506 0 4.8270919121144233 0 1 0 I I #
edge $-1 $692 -22.736584061790715 $758 22.736584061790715 $690 $759 forward 7 unknown #
face $-1 $-1 $691 $19 $-1 $760 reversed single #
point $-1 42.310861537522506 22.736584061790715 -4.8270919121144233 #
edge $-1 $747 -4.8270919121144233 $726 4.8270919121144233 $695 $761 forward 7 unknown #
plane-surface $-1 -42.310861537522506 0 0 1 0 0 0 0 -1 forward_v I I I I #
straight-curve $-1 0 -22.736584061790715 -4.8270919121144233 -1 0 0 I I #
coedge $-1 $754 $709 $751 $762 reversed $672 $-1 #
edge $-1 $717 7.9981636851179392 $743 12.491668146154497 $725 $763 forward 7 unknown #
coedge $-1 $715 $751 $711 $742 forward $707 $-1 #
edge $-1 $744 -12.491668146154497 $718 -7.9981636851179392 $741 $764 forward 7 unknown #
vertex $-1 $729 $765 #
vertex $-1 $712 $766 #
straight-curve $-1 -39.310861537522506 -22.736584061790715 0 0 0 -1 I I #
straight-curve $-1 -20.405430768761253 -18.243079600754157 4.8270919121144233 1 0 0 I I #
vertex $-1 $723 $767 #
straight-curve $-1 -20.405430768761253 -18.243079600754157 -4.8270919121144233 -1 0 0 I I #
point $-1 -39.310861537522506 -18.243079600754157 4.8270919121144233 #
point $-1 -39.310861537522506 -18.243079600754157 -4.8270919121144233 #
coedge $-1 $741 $720 $739 $762 forward $707 $-1 #
straight-curve $-1 -42.310861537522506 0 -4.8270919121144233 0 1 0 I I #
point $-1 -42.310861537522506 -18.243079600754157 4.8270919121144233 #
coedge $-1 $728 $739 $730 $756 reversed $672 $-1 #
straight-curve $-1 0 -22.736584061790715 4.8270919121144233 1 0 0 I I #
edge $-1 $731 -4.8270919121144233 $758 4.8270919121144233 $730 $768 forward 7 unknown #
point $-1 42.310861537522506 -22.736584061790715 4.8270919121144233 #
vertex $-1 $756 $769 #
straight-curve $-1 42.310861537522506 0 -4.8270919121144233 0 -1 0 I I #
plane-surface $-1 42.310861537522506 0 0 -1 0 0 0 0 1 forward_v I I I I #
straight-curve $-1 -42.310861537522506 -18.243079600754157 0 0 0 1 I I #
edge $-1 $758 -42.310861537522506 $744 39.310861537522506 $739 $770 forward 7 unknown #
straight-curve $-1 -39.310861537522506 -10.244915915636218 4.8270919121144233 0 -1 0 I I #
straight-curve $-1 -39.310861537522506 -10.244915915636218 -4.8270919121144233 0 1 0 I I #
point $-1 -39.310861537522506 -22.736584061790715 4.8270919121144233 #
point $-1 -39.310861537522506 -22.736584061790715 -4.8270919121144233 #
point $-1 -42.310861537522506 -18.243079600754157 -4.8270919121144233 #
straight-curve $-1 42.310861537522506 -22.736584061790715 0 0 0 -1 I I #
point $-1 42.310861537522506 -22.736584061790715 -4.8270919121144233 #
straight-curve $-1 0 -22.736584061790715 -4.8270919121144233 -1 0 0 I I #
End-of-ACIS-data 