500 0 8 0           
7 Unknown 11 ACIS 5.0 NT 24 Fri Mar 26 19:18:23 1999 
-1 9.9999999999999995e-007 1e-010 
body $-1 $8 $-1 $9 #
body $-1 $10 $-1 $11 #
body $-1 $12 $-1 $13 #
body $-1 $14 $-1 $15 #
body $-1 $16 $-1 $17 #
body $-1 $18 $-1 $19 #
body $-1 $20 $-1 $21 #
body $-1 $22 $-1 $23 #
lump $-1 $-1 $24 $0 #
transform $-1 1 0 0 0 1 0 0 0 1 78.620563371684923 51.041582094582317 17.812915546927616 1 rotate no_reflect no_shear #
lump $-1 $-1 $25 $1 #
transform $-1 1 0 0 0 1 0 0 0 1 78.620563371684923 51.041582094582317 17.812915546927616 1 rotate no_reflect no_shear #
lump $-1 $-1 $26 $2 #
transform $-1 1 0 0 0 1 0 0 0 1 78.620563371684923 51.041582094582317 17.812915546927616 1 rotate no_reflect no_shear #
lump $-1 $-1 $27 $3 #
transform $-1 1 0 0 0 1 0 0 0 1 78.620563371684923 51.041582094582317 17.812915546927616 1 rotate no_reflect no_shear #
lump $-1 $-1 $28 $4 #
transform $-1 1 0 0 0 1 0 0 0 1 78.620563371684923 51.041582094582317 17.812915546927616 1 rotate no_reflect no_shear #
lump $-1 $-1 $29 $5 #
transform $-1 1 0 0 0 1 0 0 0 1 78.620563371684923 51.041582094582317 17.812915546927616 1 rotate no_reflect no_shear #
lump $-1 $-1 $30 $6 #
transform $-1 1 0 0 0 1 0 0 0 1 78.620563371684923 51.041582094582317 17.812915546927616 1 rotate no_reflect no_shear #
lump $-1 $-1 $31 $7 #
transform $-1 1 0 0 0 1 0 0 0 1 78.620563371684923 51.041582094582317 17.812915546927616 1 rotate no_reflect no_shear #
shell $-1 $-1 $-1 $32 $-1 $8 #
shell $-1 $-1 $-1 $33 $-1 $10 #
shell $-1 $-1 $-1 $34 $-1 $12 #
shell $-1 $-1 $-1 $35 $-1 $14 #
shell $-1 $-1 $-1 $36 $-1 $16 #
shell $-1 $-1 $-1 $37 $-1 $18 #
shell $-1 $-1 $-1 $38 $-1 $20 #
shell $-1 $-1 $-1 $39 $-1 $22 #
face $-1 $40 $41 $24 $-1 $42 forward single #
face $-1 $43 $44 $25 $-1 $45 forward single #
face $-1 $46 $47 $26 $-1 $48 reversed single #
face $-1 $49 $50 $27 $-1 $51 forward single #
face $-1 $52 $53 $28 $-1 $54 forward single #
face $-1 $55 $56 $29 $-1 $57 reversed single #
face $-1 $58 $59 $30 $-1 $60 forward single #
face $-1 $61 $62 $31 $-1 $63 forward single #
face $-1 $64 $65 $24 $-1 $66 reversed single #
loop $-1 $-1 $67 $32 #
plane-surface $-1 0 0 17.812915546927616 0 0 1 1 0 0 forward_v I I I I #
face $-1 $68 $69 $25 $-1 $70 reversed single #
loop $-1 $-1 $71 $33 #
plane-surface $-1 -78.620563371684923 0 0 1 0 0 0 0 -1 forward_v I I I I #
face $-1 $72 $73 $26 $-1 $74 reversed single #
loop $-1 $-1 $75 $34 #
plane-surface $-1 -20.531524767595851 -138.96970544599282 131.92160068408364 -1 0 0 0 -0.55919291073839883 0.82903756765294845 forward_v I I I I #
face $-1 $76 $77 $27 $-1 $78 forward single #
loop $-1 $79 $80 $35 #
cone-surface $-1 -50.033905144082254 -36.617407670282404 6.1619114034802713 0 0.55919291073839883 -0.82903756765294845 5 0 0 1 I I 0 1 5 forward I I I I #
face $-1 $81 $82 $28 $-1 $83 forward single #
loop $-1 $84 $85 $36 #
cone-surface $-1 -32.332476918190416 -36.617407670282404 6.1619114034802713 0 0.55919291073839883 -0.82903756765294845 5 0 0 1 I I 0 1 5 forward I I I I #
face $-1 $86 $87 $29 $-1 $88 reversed single #
loop $-1 $-1 $89 $37 #
plane-surface $-1 -27.682444164014424 130.29378754976955 180.34156757716775 1 0 0 0 -0.84804810408105047 -0.52991925155115449 forward_v I I I I #
face $-1 $90 $91 $30 $-1 $92 forward single #
loop $-1 $93 $94 $38 #
cone-surface $-1 -18.154066586169456 46.076169743497687 12.464678443001809 0 -0.84804810408105047 -0.52991925155115449 2 0 0 1 I I 0 1 2 forward I I I I #
face $-1 $95 $96 $31 $-1 $97 forward single #
loop $-1 $98 $99 $39 #
cone-surface $-1 -3.8615002194020036 46.076169743497687 12.464678443001809 0 -0.84804810408105047 -0.52991925155115449 2 0 0 1 I I 0 1 2 forward I I I I #
face $-1 $100 $101 $24 $-1 $102 reversed single #
loop $-1 $-1 $103 $40 #
plane-surface $-1 0 0 -17.812915546927616 0 0 1 1 0 0 forward_v I I I I #
coedge $-1 $104 $105 $106 $107 forward $41 $-1 #
face $-1 $108 $109 $25 $-1 $110 reversed single #
loop $-1 $-1 $111 $43 #
plane-surface $-1 0 0 -17.812915546927616 0 0 1 1 0 0 forward_v I I I I #
coedge $-1 $112 $113 $114 $115 forward $44 $-1 #
face $-1 $116 $117 $26 $-1 $118 reversed single #
loop $-1 $-1 $119 $46 #
plane-surface $-1 -41.183191031136332 -51.041582094582338 1.5627994337513087 0 -0.55919291073839883 0.82903756765294845 1 0 0 forward_v I I I I #
coedge $-1 $120 $121 $122 $123 reversed $47 $-1 #
face $-1 $-1 $124 $27 $-1 $125 forward single #
loop $-1 $126 $127 $49 #
cone-surface $-1 -50.033905144082254 -32.841144682950144 0.56337139748871579 0 0.55919291073839883 -0.82903756765294845 2.5 0 0 1 I I -0.70710678118654746 0.70710678118654746 2.5 forward I I I I #
loop $-1 $-1 $128 $35 #
coedge $-1 $80 $80 $129 $130 reversed $50 $-1 #
face $-1 $-1 $131 $28 $-1 $132 forward single #
loop $-1 $133 $134 $52 #
cone-surface $-1 -32.332476918190416 -32.841144682950144 0.56337139748871579 0 0.55919291073839883 -0.82903756765294845 2.5 0 0 1 I I -0.70710678118654746 0.70710678118654746 2.5 forward I I I I #
loop $-1 $-1 $135 $36 #
coedge $-1 $85 $85 $136 $137 reversed $53 $-1 #
face $-1 $138 $139 $29 $-1 $140 reversed single #
loop $-1 $-1 $141 $55 #
plane-surface $-1 -11.007783402785734 -3.0542518685134041 97.016467380260977 0 0.84804810408105047 0.52991925155115449 1 0 0 forward_v I I I I #
coedge $-1 $142 $143 $144 $145 reversed $56 $-1 #
face $-1 $-1 $146 $30 $-1 $147 forward single #
loop $-1 $148 $149 $58 #
cone-surface $-1 -18.154066586169456 42.564691041834287 10.270463095465995 0 -0.84804810408105047 -0.52991925155115449 1 0 0 1 I I -0.70710678118654746 0.70710678118654746 1 forward I I I I #
loop $-1 $-1 $150 $38 #
coedge $-1 $94 $94 $151 $152 reversed $59 $-1 #
face $-1 $-1 $153 $31 $-1 $154 forward single #
loop $-1 $155 $156 $61 #
cone-surface $-1 -3.8615002194020036 42.564691041834287 10.270463095465995 0 -0.84804810408105047 -0.52991925155115449 1 0 0 1 I I -0.70710678118654746 0.70710678118654746 1 forward I I I I #
loop $-1 $-1 $157 $39 #
coedge $-1 $99 $99 $158 $159 reversed $62 $-1 #
face $-1 $160 $161 $24 $-1 $162 reversed single #
loop $-1 $-1 $163 $64 #
plane-surface $-1 0 -51.041582094582317 0 0 1 0 0 0 1 forward_v I I I I #
coedge $-1 $164 $165 $166 $167 forward $65 $-1 #
coedge $-1 $168 $67 $169 $170 forward $41 $-1 #
coedge $-1 $67 $168 $171 $172 forward $41 $-1 #
coedge $-1 $173 $174 $67 $107 reversed $175 $-1 #
edge $-1 $176 -51.041582094582317 $177 51.041582094582317 $106 $178 forward 7 unknown #
face $-1 $179 $180 $25 $-1 $181 reversed single #
loop $-1 $-1 $182 $68 #
plane-surface $-1 -87.013416410188981 -25.103450295614572 0 0 1 0 0 0 1 forward_v I I I I #
coedge $-1 $183 $184 $113 $185 forward $69 $-1 #
coedge $-1 $186 $71 $187 $188 reversed $44 $-1 #
coedge $-1 $71 $186 $111 $185 reversed $44 $-1 #
coedge $-1 $189 $190 $71 $115 reversed $191 $-1 #
edge $-1 $192 -17.812915546927616 $193 17.812915546927616 $114 $194 forward 7 unknown #
face $-1 $195 $196 $26 $-1 $197 forward single #
loop $-1 $-1 $198 $72 #
plane-surface $-1 -61.834857294676809 -138.96970544599282 131.92160068408364 1 0 0 0 0.55919291073839883 -0.82903756765294845 forward_v I I I I #
coedge $-1 $199 $200 $201 $202 reversed $73 $-1 #
coedge $-1 $121 $75 $203 $204 reversed $47 $-1 #
coedge $-1 $75 $120 $199 $205 reversed $47 $-1 #
coedge $-1 $201 $206 $75 $123 forward $196 $-1 #
edge $-1 $207 18.443270628414091 $208 42.535058056041365 $122 $209 forward 7 unknown #
loop $-1 $-1 $129 $76 #
plane-surface $-1 -41.183191031136332 -51.041582094582338 1.5627994337513087 0 -0.55919291073839883 0.82903756765294845 1 0 0 forward_v I I I I #
loop $-1 $-1 $210 $49 #
coedge $-1 $127 $127 $128 $211 reversed $77 $-1 #
coedge $-1 $128 $128 $127 $211 forward $79 $-1 #
coedge $-1 $129 $129 $80 $130 forward $124 $-1 #
edge $-1 $212 5.6827941271038126e-016 $212 6.2831853071796013 $129 $213 forward 7 unknown #
loop $-1 $-1 $136 $81 #
plane-surface $-1 -41.183191031136332 -51.041582094582338 1.5627994337513087 0 -0.55919291073839883 0.82903756765294845 1 0 0 forward_v I I I I #
loop $-1 $-1 $214 $52 #
coedge $-1 $134 $134 $135 $215 reversed $82 $-1 #
coedge $-1 $135 $135 $134 $215 forward $84 $-1 #
coedge $-1 $136 $136 $85 $137 forward $131 $-1 #
edge $-1 $216 5.6827941271038126e-016 $216 6.2831853071796013 $136 $217 forward 7 unknown #
face $-1 $218 $219 $29 $-1 $220 reversed single #
loop $-1 $-1 $221 $86 #
plane-surface $-1 5.6668773584429566 130.29378754976955 180.34156757716775 -1 0 0 0 0.84804810408105047 0.52991925155115449 forward_v I I I I #
coedge $-1 $222 $223 $224 $225 reversed $87 $-1 #
coedge $-1 $143 $89 $226 $227 reversed $56 $-1 #
coedge $-1 $89 $142 $222 $228 reversed $56 $-1 #
coedge $-1 $224 $229 $89 $145 forward $230 $-1 #
edge $-1 $231 14.105311680302457 $232 18.709275187306986 $144 $233 forward 7 unknown #
loop $-1 $-1 $151 $90 #
plane-surface $-1 -11.007783402785734 -3.0542518685134041 97.016467380260977 0 0.84804810408105047 0.52991925155115449 1 0 0 forward_v I I I I #
loop $-1 $-1 $234 $58 #
coedge $-1 $149 $149 $150 $235 reversed $91 $-1 #
coedge $-1 $150 $150 $149 $235 forward $93 $-1 #
coedge $-1 $151 $151 $94 $152 forward $146 $-1 #
edge $-1 $236 2.636656775828858e-015 $236 6.2831853071796031 $151 $237 forward 7 unknown #
loop $-1 $-1 $158 $95 #
plane-surface $-1 -11.007783402785734 -3.0542518685134041 97.016467380260977 0 0.84804810408105047 0.52991925155115449 1 0 0 forward_v I I I I #
loop $-1 $-1 $238 $61 #
coedge $-1 $156 $156 $157 $239 reversed $96 $-1 #
coedge $-1 $157 $157 $156 $239 forward $98 $-1 #
coedge $-1 $158 $158 $99 $159 forward $153 $-1 #
edge $-1 $240 2.636656775828858e-015 $240 6.2831853071796031 $158 $241 forward 7 unknown #
face $-1 $242 $243 $24 $-1 $244 reversed single #
loop $-1 $-1 $245 $100 #
plane-surface $-1 -78.620563371684923 0 0 1 0 0 0 0 -1 forward_v I I I I #
coedge $-1 $246 $171 $247 $248 forward $101 $-1 #
coedge $-1 $249 $103 $246 $250 forward $65 $-1 #
coedge $-1 $103 $249 $251 $252 forward $65 $-1 #
coedge $-1 $174 $173 $103 $167 reversed $175 $-1 #
edge $-1 $253 -51.041582094582317 $254 51.041582094582317 $166 $255 forward 7 unknown #
coedge $-1 $105 $104 $256 $257 forward $41 $-1 #
coedge $-1 $258 $259 $104 $170 reversed $243 $-1 #
edge $-1 $177 -78.620563371684923 $260 78.620563371684923 $169 $261 forward 7 unknown #
coedge $-1 $163 $262 $105 $172 reversed $101 $-1 #
edge $-1 $263 -78.620563371684923 $176 78.620563371684923 $171 $264 forward 7 unknown #
coedge $-1 $166 $106 $262 $265 forward $175 $-1 #
coedge $-1 $106 $166 $258 $266 reversed $175 $-1 #
loop $-1 $-1 $173 $242 #
vertex $-1 $107 $267 #
vertex $-1 $107 $268 #
straight-curve $-1 78.620563371684923 0 17.812915546927616 0 1 0 I I #
face $-1 $269 $191 $25 $-1 $270 reversed single #
loop $-1 $-1 $271 $108 #
plane-surface $-1 -95.406269448693038 -20.259600648170828 0 1 0 0 0 0 -1 forward_v I I I I #
coedge $-1 $272 $273 $274 $275 forward $109 $-1 #
coedge $-1 $276 $111 $272 $277 forward $69 $-1 #
coedge $-1 $111 $276 $189 $278 forward $69 $-1 #
edge $-1 $192 15.415751000727084 $279 25.103450295614572 $111 $280 forward 7 unknown #
coedge $-1 $113 $112 $281 $282 forward $44 $-1 #
coedge $-1 $283 $284 $112 $188 forward $285 $-1 #
edge $-1 $286 -25.103450295614572 $193 -15.415751000727084 $187 $287 forward 7 unknown #
coedge $-1 $288 $114 $184 $278 reversed $191 $-1 #
coedge $-1 $114 $288 $283 $289 reversed $191 $-1 #
loop $-1 $-1 $114 $179 #
vertex $-1 $185 $290 #
vertex $-1 $289 $291 #
straight-curve $-1 -78.620563371684923 -15.415751000727084 0 0 0 1 I I #
face $-1 $-1 $292 $26 $-1 $293 reversed single #
loop $-1 $-1 $122 $116 #
plane-surface $-1 0 0 17.812915546927616 0 0 1 1 0 0 forward_v I I I I #
coedge $-1 $294 $295 $296 $297 reversed $117 $-1 #
coedge $-1 $298 $119 $121 $205 forward $73 $-1 #
coedge $-1 $119 $298 $294 $299 forward $73 $-1 #
coedge $-1 $296 $122 $119 $202 forward $196 $-1 #
edge $-1 $208 -0.06007074797231482 $300 41.243261779108643 $201 $301 forward 7 unknown #
coedge $-1 $302 $303 $120 $204 forward $292 $-1 #
edge $-1 $304 -64.398000908290499 $207 -48.147884795114209 $203 $305 forward 7 unknown #
edge $-1 $208 -29.059946578576035 $304 -2.5742773622256851e-014 $121 $306 forward 7 unknown #
coedge $-1 $122 $296 $302 $307 forward $196 $-1 #
vertex $-1 $123 $308 #
vertex $-1 $123 $309 #
straight-curve $-1 -20.531524767595851 -69.484852722996408 17.812915546927613 0 1 0 I I #
coedge $-1 $210 $210 $-1 $310 reversed $126 $-1 #
edge $-1 $311 0 $311 6.2831853071796004 $127 $312 forward 7 unknown #
vertex $-1 $130 $313 #
ellipse-curve $-1 -50.033905144082254 -38.995688380768676 9.6878574903394714 0 -0.55919291073839883 0.82903756765294845 5 0 0 1 I I #
coedge $-1 $214 $214 $-1 $314 reversed $133 $-1 #
edge $-1 $315 0 $315 6.2831853071796004 $134 $316 forward 7 unknown #
vertex $-1 $137 $317 #
ellipse-curve $-1 -32.332476918190416 -38.995688380768676 9.6878574903394714 0 -0.55919291073839883 0.82903756765294845 5 0 0 1 I I #
face $-1 $-1 $230 $29 $-1 $318 forward single #
loop $-1 $-1 $319 $138 #
plane-surface $-1 0 51.041582094582317 0 0 -1 0 0 0 -1 forward_v I I I I #
coedge $-1 $320 $321 $322 $323 reversed $139 $-1 #
coedge $-1 $324 $141 $143 $228 forward $87 $-1 #
coedge $-1 $141 $324 $320 $325 forward $87 $-1 #
coedge $-1 $322 $144 $141 $225 forward $230 $-1 #
edge $-1 $232 -22.178552462621557 $326 11.170769059835823 $224 $327 forward 7 unknown #
coedge $-1 $328 $329 $142 $227 forward $219 $-1 #
edge $-1 $330 -79.725750257538522 $231 -72.357868241656263 $226 $331 forward 7 unknown #
edge $-1 $232 93.395116918702115 $330 102.08316418916459 $143 $332 forward 7 unknown #
coedge $-1 $144 $322 $328 $333 forward $230 $-1 #
loop $-1 $-1 $322 $218 #
vertex $-1 $227 $334 #
vertex $-1 $145 $335 #
straight-curve $-1 -27.682444164014424 65.146893774884774 17.812915546927613 0 -1 0 I I #
coedge $-1 $234 $234 $-1 $336 reversed $148 $-1 #
edge $-1 $337 0 $337 6.2831853071796004 $149 $338 forward 7 unknown #
vertex $-1 $152 $339 #
ellipse-curve $-1 -18.154066586169456 48.739600341080049 14.128974538986476 0 0.84804810408105047 0.52991925155115449 2 0 0 1 I I #
coedge $-1 $238 $238 $-1 $340 reversed $155 $-1 #
edge $-1 $341 0 $341 6.2831853071796004 $156 $342 forward 7 unknown #
vertex $-1 $159 $343 #
ellipse-curve $-1 -3.8615002194020036 48.739600341080049 14.128974538986476 0 0.84804810408105047 0.52991925155115449 2 0 0 1 I I #
face $-1 $-1 $175 $24 $-1 $344 reversed single #
loop $-1 $-1 $258 $160 #
plane-surface $-1 0 51.041582094582317 0 0 -1 0 0 0 -1 forward_v I I I I #
coedge $-1 $345 $256 $259 $346 forward $161 $-1 #
coedge $-1 $262 $163 $164 $250 reversed $101 $-1 #
coedge $-1 $256 $345 $163 $248 reversed $161 $-1 #
edge $-1 $263 -17.812915546927616 $347 17.812915546927616 $247 $348 forward 7 unknown #
coedge $-1 $165 $164 $345 $349 forward $65 $-1 #
edge $-1 $254 -78.620563371684923 $347 78.620563371684923 $246 $350 forward 7 unknown #
coedge $-1 $259 $258 $165 $252 reversed $243 $-1 #
edge $-1 $351 -78.620563371684923 $253 78.620563371684923 $251 $352 forward 7 unknown #
vertex $-1 $167 $353 #
vertex $-1 $265 $354 #
straight-curve $-1 78.620563371684923 0 -17.812915546927616 0 -1 0 I I #
coedge $-1 $245 $247 $168 $257 reversed $161 $-1 #
edge $-1 $260 -51.041582094582317 $263 51.041582094582317 $256 $355 forward 7 unknown #
coedge $-1 $251 $169 $174 $266 forward $243 $-1 #
coedge $-1 $169 $251 $245 $346 reversed $243 $-1 #
vertex $-1 $170 $356 #
straight-curve $-1 0 51.041582094582317 17.812915546927616 -1 0 0 I I #
coedge $-1 $171 $246 $173 $265 reversed $101 $-1 #
vertex $-1 $257 $357 #
straight-curve $-1 0 -51.041582094582317 17.812915546927616 1 0 0 I I #
edge $-1 $176 -17.812915546927616 $254 17.812915546927616 $173 $358 forward 7 unknown #
edge $-1 $177 -17.812915546927616 $253 17.812915546927616 $174 $359 forward 7 unknown #
point $-1 78.620563371684923 -51.041582094582317 17.812915546927616 #
point $-1 78.620563371684923 51.041582094582317 17.812915546927616 #
face $-1 $-1 $285 $25 $-1 $360 forward single #
plane-surface $-1 -87.013416410188981 -15.415751000727084 0 0 -1 0 0 0 -1 forward_v I I I I #
coedge $-1 $361 $362 $288 $363 forward $180 $-1 #
coedge $-1 $281 $182 $183 $277 reversed $109 $-1 #
coedge $-1 $182 $281 $284 $364 reversed $109 $-1 #
coedge $-1 $362 $361 $182 $275 reversed $180 $-1 #
edge $-1 $365 -17.812915546927616 $366 17.812915546927616 $274 $367 forward 7 unknown #
coedge $-1 $184 $183 $361 $368 forward $69 $-1 #
edge $-1 $279 -8.3928530385040574 $366 8.3928530385040574 $272 $369 forward 7 unknown #
edge $-1 $370 -8.3928530385040574 $192 8.3928530385040574 $189 $371 forward 7 unknown #
vertex $-1 $277 $372 #
straight-curve $-1 -78.620563371684923 0 -17.812915546927616 0 -1 0 I I #
coedge $-1 $273 $272 $186 $282 reversed $109 $-1 #
edge $-1 $286 -17.812915546927616 $279 17.812915546927616 $281 $373 forward 7 unknown #
coedge $-1 $374 $187 $190 $289 forward $285 $-1 #
coedge $-1 $187 $374 $273 $364 forward $285 $-1 #
loop $-1 $-1 $187 $269 #
vertex $-1 $188 $375 #
straight-curve $-1 -78.620563371684923 0 17.812915546927616 0 1 0 I I #
coedge $-1 $190 $189 $271 $363 reversed $191 $-1 #
edge $-1 $193 -8.3928530385040574 $376 8.3928530385040574 $190 $377 forward 7 unknown #
point $-1 -78.620563371684923 -15.415751000727084 -17.812915546927616 #
point $-1 -78.620563371684923 -15.415751000727084 17.812915546927616 #
loop $-1 $-1 $203 $195 #
plane-surface $-1 0 -51.041582094582317 0 0 1 0 0 0 1 forward_v I I I I #
coedge $-1 $295 $198 $200 $299 reversed $117 $-1 #
coedge $-1 $198 $294 $378 $379 reversed $117 $-1 #
coedge $-1 $206 $201 $198 $297 forward $196 $-1 #
edge $-1 $300 -42.535058056041365 $380 -18.443270628414091 $296 $381 forward 7 unknown #
coedge $-1 $200 $199 $303 $382 reversed $73 $-1 #
edge $-1 $383 2.5742773622256851e-014 $300 29.059946578576035 $294 $384 forward 7 unknown #
vertex $-1 $202 $385 #
straight-curve $-1 -20.591595515568166 -26.949794666955039 17.812915546927616 -1 0 0 I I #
coedge $-1 $378 $203 $206 $307 reversed $292 $-1 #
coedge $-1 $203 $378 $298 $382 forward $292 $-1 #
vertex $-1 $204 $386 #
straight-curve $-1 -20.531524767595851 -51.041582094582317 65.960800342041821 0 0 1 I I #
straight-curve $-1 -20.531524767595851 -51.041582094582338 1.5627994337513087 0 -0.82903756765294845 -0.55919291073839883 I I #
edge $-1 $380 -61.834857294676809 $207 -20.531524767595851 $302 $387 forward 7 unknown #
point $-1 -20.531524767595851 -51.041582094582317 17.812915546927616 #
point $-1 -20.531524767595851 -26.949794666955039 17.812915546927616 #
edge $-1 $388 1 $388 0 $210 $-1 forward 7 unknown #
vertex $-1 $211 $389 #
ellipse-curve $-1 -50.033905144082254 -34.239126959796138 2.6359653166210868 0 -0.55919291073839883 0.82903756765294845 5 0 0 1 I I #
point $-1 -45.033905144082254 -38.995688380768662 9.6878574903394554 #
edge $-1 $390 1 $390 0 $214 $-1 forward 7 unknown #
vertex $-1 $215 $391 #
ellipse-curve $-1 -32.332476918190416 -34.239126959796138 2.6359653166210868 0 -0.55919291073839883 0.82903756765294845 5 0 0 1 I I #
point $-1 -27.332476918190416 -38.995688380768662 9.6878574903394554 #
plane-surface $-1 0 0 17.812915546927616 0 0 1 1 0 0 forward_v I I I I #
coedge $-1 $329 $328 $321 $392 forward $219 $-1 #
coedge $-1 $321 $221 $223 $325 reversed $139 $-1 #
coedge $-1 $221 $320 $319 $392 reversed $139 $-1 #
coedge $-1 $229 $224 $221 $323 forward $230 $-1 #
edge $-1 $326 -18.709275187306986 $393 -14.105311680302457 $322 $394 forward 7 unknown #
coedge $-1 $223 $222 $329 $395 reversed $87 $-1 #
edge $-1 $396 -102.08316418916459 $326 -93.395116918702115 $320 $397 forward 7 unknown #
vertex $-1 $225 $398 #
straight-curve $-1 -5.5038917013928668 46.437618587577774 17.81291554692762 1 0 0 I I #
coedge $-1 $319 $226 $229 $333 reversed $219 $-1 #
coedge $-1 $226 $319 $324 $395 forward $219 $-1 #
vertex $-1 $227 $399 #
straight-curve $-1 -27.682444164014424 51.041582094582317 90.170783788583876 0 0 1 I I #
straight-curve $-1 -27.682444164014424 -3.0542518685134041 97.016467380260977 0 0.52991925155115449 -0.84804810408105047 I I #
edge $-1 $393 -5.6668773584429566 $231 27.682444164014424 $328 $400 forward 7 unknown #
point $-1 -27.682444164014424 51.041582094582317 17.812915546927616 #
point $-1 -27.682444164014424 46.437618587577788 17.812915546927613 #
edge $-1 $401 1 $401 0 $234 $-1 forward 7 unknown #
vertex $-1 $235 $402 #
ellipse-curve $-1 -18.154066586169456 43.412739145915339 10.80038234701715 0 0.84804810408105047 0.52991925155115449 2 0 0 1 I I #
point $-1 -16.154066586169456 48.739600341080042 14.128974538986466 #
edge $-1 $403 1 $403 0 $238 $-1 forward 7 unknown #
vertex $-1 $239 $404 #
ellipse-curve $-1 -3.8615002194020036 43.412739145915339 10.80038234701715 0 0.84804810408105047 0.52991925155115449 2 0 0 1 I I #
point $-1 -1.8615002194020036 48.739600341080042 14.128974538986466 #
plane-surface $-1 78.620563371684923 0 0 -1 0 0 0 0 1 forward_v I I I I #
coedge $-1 $247 $245 $249 $349 reversed $161 $-1 #
edge $-1 $260 -17.812915546927616 $351 17.812915546927616 $259 $405 forward 7 unknown #
vertex $-1 $349 $406 #
straight-curve $-1 -78.620563371684923 -51.041582094582317 0 0 0 -1 I I #
edge $-1 $347 -51.041582094582317 $351 51.041582094582317 $345 $407 forward 7 unknown #
straight-curve $-1 0 -51.041582094582317 -17.812915546927616 -1 0 0 I I #
vertex $-1 $252 $408 #
straight-curve $-1 0 51.041582094582317 -17.812915546927616 1 0 0 I I #
point $-1 78.620563371684923 51.041582094582317 -17.812915546927616 #
point $-1 78.620563371684923 -51.041582094582317 -17.812915546927616 #
straight-curve $-1 -78.620563371684923 0 17.812915546927616 0 -1 0 I I #
point $-1 -78.620563371684923 51.041582094582317 17.812915546927616 #
point $-1 -78.620563371684923 -51.041582094582317 17.812915546927616 #
straight-curve $-1 78.620563371684923 -51.041582094582317 0 0 0 -1 I I #
straight-curve $-1 78.620563371684923 51.041582094582317 0 0 0 -1 I I #
plane-surface $-1 0 0 17.812915546927616 0 0 1 1 0 0 forward_v I I I I #
coedge $-1 $274 $271 $276 $368 reversed $180 $-1 #
coedge $-1 $271 $274 $374 $409 reversed $180 $-1 #
edge $-1 $376 -17.812915546927616 $370 17.812915546927616 $288 $410 forward 7 unknown #
edge $-1 $365 -8.3928530385040574 $286 8.3928530385040574 $273 $411 forward 7 unknown #
vertex $-1 $409 $412 #
vertex $-1 $368 $413 #
straight-curve $-1 -95.406269448693038 -25.103450295614572 0 0 0 -1 I I #
edge $-1 $366 -4.8438496474437436 $370 4.8438496474437436 $361 $414 forward 7 unknown #
straight-curve $-1 -87.013416410188981 -25.103450295614572 -17.812915546927616 -1 0 0 I I #
vertex $-1 $278 $415 #
straight-curve $-1 -87.013416410188981 -15.415751000727084 -17.812915546927616 1 0 0 I I #
point $-1 -78.620563371684923 -25.103450295614572 -17.812915546927616 #
straight-curve $-1 -78.620563371684923 -25.103450295614572 0 0 0 -1 I I #
coedge $-1 $284 $283 $362 $409 forward $285 $-1 #
point $-1 -78.620563371684923 -25.103450295614572 17.812915546927616 #
vertex $-1 $289 $416 #
straight-curve $-1 -87.013416410188981 -15.415751000727084 17.812915546927616 -1 0 0 I I #
coedge $-1 $303 $302 $295 $379 forward $292 $-1 #
edge $-1 $380 48.147884795114209 $383 64.398000908290499 $378 $417 forward 7 unknown #
vertex $-1 $307 $418 #
straight-curve $-1 -61.834857294676809 -69.484852722996408 17.812915546927613 0 -1 0 I I #
edge $-1 $383 -41.243261779108643 $304 0.06007074797231482 $303 $419 forward 7 unknown #
vertex $-1 $382 $420 #
straight-curve $-1 -61.834857294676809 -51.041582094582338 1.5627994337513087 0 0.82903756765294845 0.55919291073839883 I I #
point $-1 -61.834857294676809 -26.949794666955039 17.812915546927616 #
point $-1 -20.531524767595851 -51.041582094582317 1.5627994337513231 #
straight-curve $-1 0 -51.041582094582317 17.812915546927616 1 0 0 I I #
vertex $-1 $310 $421 #
point $-1 -45.033905144082254 -34.239126959796138 2.6359653166210868 #
vertex $-1 $314 $422 #
point $-1 -27.332476918190416 -34.239126959796138 2.6359653166210868 #
edge $-1 $393 72.357868241656263 $396 79.725750257538522 $319 $423 forward 7 unknown #
vertex $-1 $333 $424 #
straight-curve $-1 5.6668773584429566 65.146893774884774 17.812915546927613 0 1 0 I I #
edge $-1 $396 -11.170769059835823 $330 22.178552462621557 $329 $425 forward 7 unknown #
vertex $-1 $395 $426 #
straight-curve $-1 5.6668773584429566 -3.0542518685134041 97.016467380260977 0 -0.52991925155115449 0.84804810408105047 I I #
point $-1 5.6668773584429566 46.437618587577788 17.812915546927613 #
point $-1 -27.682444164014424 51.041582094582317 10.445033531045354 #
straight-curve $-1 0 51.041582094582317 17.812915546927616 -1 0 0 I I #
vertex $-1 $336 $427 #
point $-1 -16.154066586169456 43.412739145915339 10.80038234701715 #
vertex $-1 $340 $428 #
point $-1 -1.8615002194020036 43.412739145915339 10.80038234701715 #
straight-curve $-1 -78.620563371684923 51.041582094582317 0 0 0 -1 I I #
point $-1 -78.620563371684923 -51.041582094582317 -17.812915546927616 #
straight-curve $-1 -78.620563371684923 0 -17.812915546927616 0 1 0 I I #
point $-1 -78.620563371684923 51.041582094582317 -17.812915546927616 #
edge $-1 $376 -4.8438496474437436 $365 4.8438496474437436 $362 $429 forward 7 unknown #
straight-curve $-1 -95.406269448693038 -15.415751000727084 0 0 0 -1 I I #
straight-curve $-1 -87.013416410188981 -25.103450295614572 17.812915546927616 1 0 0 I I #
point $-1 -95.406269448693038 -25.103450295614572 17.812915546927616 #
point $-1 -95.406269448693038 -25.103450295614572 -17.812915546927616 #
straight-curve $-1 -95.406269448693038 -20.259600648170828 -17.812915546927616 0 1 0 I I #
point $-1 -95.406269448693038 -15.415751000727084 -17.812915546927616 #
point $-1 -95.406269448693038 -15.415751000727084 17.812915546927616 #
straight-curve $-1 -61.834857294676809 -51.041582094582317 65.960800342041821 0 0 -1 I I #
point $-1 -61.834857294676809 -51.041582094582317 17.812915546927616 #
straight-curve $-1 -20.591595515568166 -51.041582094582317 1.5627994337513222 1 0 0 I I #
point $-1 -61.834857294676809 -51.041582094582317 1.5627994337513231 #
point $-1 -50.033905144082254 -31.443162406104147 -1.5092225216436552 #
point $-1 -32.332476918190416 -31.443162406104147 -1.5092225216436552 #
straight-curve $-1 5.6668773584429566 51.041582094582317 90.170783788583876 0 0 -1 I I #
point $-1 5.6668773584429566 51.041582094582317 17.812915546927616 #
straight-curve $-1 -5.5038917013928668 51.04158209458231 10.445033531045347 -1 0 0 I I #
point $-1 5.6668773584429566 51.041582094582317 10.445033531045354 #
point $-1 -18.154066586169456 41.716642937753235 9.7405438439148408 #
point $-1 -3.8615002194020036 41.716642937753235 9.7405438439148408 #
straight-curve $-1 -95.406269448693038 -20.259600648170828 17.812915546927616 0 -1 0 I I #
End-of-ACIS-data 