500 0 17 0           
7 Unknown 11 ACIS 5.0 NT 24 Fri Mar 26 03:24:24 1999 
-1 9.9999999999999995e-007 1e-010 
body $-1 $17 $-1 $18 #
body $-1 $19 $-1 $20 #
body $-1 $21 $-1 $22 #
body $-1 $23 $-1 $24 #
body $-1 $25 $-1 $26 #
body $-1 $27 $-1 $28 #
body $-1 $29 $-1 $30 #
body $-1 $31 $-1 $32 #
body $-1 $33 $-1 $34 #
body $-1 $35 $-1 $36 #
body $-1 $37 $-1 $38 #
body $-1 $39 $-1 $40 #
body $-1 $41 $-1 $42 #
body $-1 $43 $-1 $44 #
body $-1 $45 $-1 $46 #
body $-1 $47 $-1 $48 #
body $-1 $49 $-1 $50 #
lump $-1 $-1 $51 $0 #
transform $-1 1 0 0 0 1 0 0 0 1 65.150914029358802 35.535054644389191 7.2924564791018609 1 rotate no_reflect no_shear #
lump $-1 $-1 $52 $1 #
transform $-1 1 0 0 0 1 0 0 0 1 65.150914029358802 35.535054644389191 7.2924564791018609 1 rotate no_reflect no_shear #
lump $-1 $-1 $53 $2 #
transform $-1 1 0 0 0 1 0 0 0 1 65.150914029358802 35.535054644389191 7.2924564791018609 1 rotate no_reflect no_shear #
lump $-1 $-1 $54 $3 #
transform $-1 1 0 0 0 1 0 0 0 1 65.150914029358802 35.535054644389191 7.2924564791018609 1 rotate no_reflect no_shear #
lump $-1 $-1 $55 $4 #
transform $-1 1 0 0 0 1 0 0 0 1 65.150914029358802 35.535054644389191 7.2924564791018609 1 rotate no_reflect no_shear #
lump $-1 $-1 $56 $5 #
transform $-1 1 0 0 0 1 0 0 0 1 65.150914029358802 35.535054644389191 7.2924564791018609 1 rotate no_reflect no_shear #
lump $-1 $-1 $57 $6 #
transform $-1 1 0 0 0 1 0 0 0 1 65.150914029358802 35.535054644389191 7.2924564791018609 1 rotate no_reflect no_shear #
lump $-1 $-1 $58 $7 #
transform $-1 1 0 0 0 1 0 0 0 1 65.150914029358802 35.535054644389191 7.2924564791018609 1 rotate no_reflect no_shear #
lump $-1 $-1 $59 $8 #
transform $-1 1 0 0 0 1 0 0 0 1 65.150914029358802 35.535054644389191 7.2924564791018609 1 rotate no_reflect no_shear #
lump $-1 $-1 $60 $9 #
transform $-1 1 0 0 0 1 0 0 0 1 65.150914029358802 35.535054644389191 7.2924564791018609 1 rotate no_reflect no_shear #
lump $-1 $-1 $61 $10 #
transform $-1 1 0 0 0 1 0 0 0 1 65.150914029358802 35.535054644389191 7.2924564791018609 1 rotate no_reflect no_shear #
lump $-1 $-1 $62 $11 #
transform $-1 1 0 0 0 1 0 0 0 1 65.150914029358802 35.535054644389191 7.2924564791018609 1 rotate no_reflect no_shear #
lump $-1 $-1 $63 $12 #
transform $-1 1 0 0 0 1 0 0 0 1 65.150914029358802 35.535054644389191 7.2924564791018609 1 rotate no_reflect no_shear #
lump $-1 $-1 $64 $13 #
transform $-1 1 0 0 0 1 0 0 0 1 65.150914029358802 35.535054644389191 7.2924564791018609 1 rotate no_reflect no_shear #
lump $-1 $-1 $65 $14 #
transform $-1 1 0 0 0 1 0 0 0 1 65.150914029358802 35.535054644389191 7.2924564791018609 1 rotate no_reflect no_shear #
lump $-1 $-1 $66 $15 #
transform $-1 1 0 0 0 1 0 0 0 1 65.150914029358802 35.535054644389191 7.2924564791018609 1 rotate no_reflect no_shear #
lump $-1 $-1 $67 $16 #
transform $-1 1 0 0 0 1 0 0 0 1 65.150914029358802 35.535054644389191 7.2924564791018609 1 rotate no_reflect no_shear #
shell $-1 $-1 $-1 $68 $-1 $17 #
shell $-1 $-1 $-1 $69 $-1 $19 #
shell $-1 $-1 $-1 $70 $-1 $21 #
shell $-1 $-1 $-1 $71 $-1 $23 #
shell $-1 $-1 $-1 $72 $-1 $25 #
shell $-1 $-1 $-1 $73 $-1 $27 #
shell $-1 $-1 $-1 $74 $-1 $29 #
shell $-1 $-1 $-1 $75 $-1 $31 #
shell $-1 $-1 $-1 $76 $-1 $33 #
shell $-1 $-1 $-1 $77 $-1 $35 #
shell $-1 $-1 $-1 $78 $-1 $37 #
shell $-1 $-1 $-1 $79 $-1 $39 #
shell $-1 $-1 $-1 $80 $-1 $41 #
shell $-1 $-1 $-1 $81 $-1 $43 #
shell $-1 $-1 $-1 $82 $-1 $45 #
shell $-1 $-1 $-1 $83 $-1 $47 #
shell $-1 $-1 $-1 $84 $-1 $49 #
face $-1 $85 $86 $51 $-1 $87 forward single #
face $-1 $88 $89 $52 $-1 $90 reversed single #
face $-1 $91 $92 $53 $-1 $93 reversed single #
face $-1 $94 $95 $54 $-1 $96 forward single #
face $-1 $97 $98 $55 $-1 $99 forward single #
face $-1 $100 $101 $56 $-1 $102 reversed single #
face $-1 $103 $104 $57 $-1 $105 forward single #
face $-1 $106 $107 $58 $-1 $108 forward single #
face $-1 $109 $110 $59 $-1 $111 reversed single #
face $-1 $112 $113 $60 $-1 $114 forward single #
face $-1 $115 $116 $61 $-1 $117 forward single #
face $-1 $118 $119 $62 $-1 $120 reversed single #
face $-1 $121 $122 $63 $-1 $123 forward single #
face $-1 $124 $125 $64 $-1 $126 forward single #
face $-1 $127 $128 $65 $-1 $129 reversed single #
face $-1 $130 $131 $66 $-1 $132 forward single #
face $-1 $133 $134 $67 $-1 $135 forward single #
face $-1 $136 $137 $51 $-1 $138 reversed single #
loop $-1 $-1 $139 $68 #
plane-surface $-1 0 0 7.2924564791018609 0 0 1 1 0 0 forward_v I I I I #
face $-1 $140 $141 $52 $-1 $142 reversed single #
loop $-1 $-1 $143 $69 #
plane-surface $-1 0 -31.851588518608722 4.2924564791018609 0 0 1 1 0 0 forward_v I I I I #
face $-1 $144 $145 $53 $-1 $146 reversed single #
loop $-1 $-1 $147 $70 #
plane-surface $-1 -170.56730839334395 -18.777264707316938 79.00341687171867 0 1 0 -0.80901700255871778 0 0.5877852410284794 forward_v I I I I #
face $-1 $148 $149 $54 $-1 $150 forward single #
loop $-1 $151 $152 $71 #
cone-surface $-1 -62.946757212809423 -16.910139971947498 4.5393778340714173 0.80901700255871778 0 -0.5877852410284794 0.2938926205142397 0 0.40450850127935889 1 I I 0 1 0.5 forward I I I I #
face $-1 $153 $154 $55 $-1 $155 forward single #
loop $-1 $156 $157 $72 #
cone-surface $-1 -62.946757212809423 -14.109452868893335 4.5393778340714173 0.80901700255871778 0 -0.5877852410284794 0.2938926205142397 0 0.40450850127935889 1 I I 0 1 0.5 forward I I I I #
face $-1 $158 $159 $56 $-1 $160 reversed single #
loop $-1 $-1 $161 $73 #
plane-surface $-1 -170.56730839334395 -2.8514704480125772 79.00341687171867 0 1 0 -0.80901700255871778 0 0.5877852410284794 forward_v I I I I #
face $-1 $162 $163 $57 $-1 $164 forward single #
loop $-1 $165 $166 $74 #
cone-surface $-1 -62.946757212809423 -0.9843457126431403 4.5393778340714173 0.80901700255871778 0 -0.5877852410284794 0.2938926205142397 0 0.40450850127935889 1 I I 0 1 0.5 forward I I I I #
face $-1 $167 $168 $58 $-1 $169 forward single #
loop $-1 $170 $171 $75 #
cone-surface $-1 -62.946757212809423 1.8163413904110257 4.5393778340714173 0.80901700255871778 0 -0.5877852410284794 0.2938926205142397 0 0.40450850127935889 1 I I 0 1 0.5 forward I I I I #
face $-1 $172 $173 $59 $-1 $174 reversed single #
loop $-1 $-1 $175 $76 #
plane-surface $-1 -170.56730839334395 13.074323811291784 79.00341687171867 0 1 0 -0.80901700255871778 0 0.5877852410284794 forward_v I I I I #
face $-1 $176 $177 $60 $-1 $178 forward single #
loop $-1 $179 $180 $77 #
cone-surface $-1 -62.946757212809423 14.941448546661221 4.5393778340714173 0.80901700255871778 0 -0.5877852410284794 0.2938926205142397 0 0.40450850127935889 1 I I 0 1 0.5 forward I I I I #
face $-1 $181 $182 $61 $-1 $183 forward single #
loop $-1 $184 $185 $78 #
cone-surface $-1 -62.946757212809423 17.742135649715387 4.5393778340714173 0.80901700255871778 0 -0.5877852410284794 0.2938926205142397 0 0.40450850127935889 1 I I 0 1 0.5 forward I I I I #
face $-1 $186 $187 $62 $-1 $188 reversed single #
loop $-1 $-1 $189 $79 #
plane-surface $-1 -170.56730839334395 29.000118070596137 79.00341687171867 0 1 0 -0.80901700255871778 0 0.5877852410284794 forward_v I I I I #
face $-1 $190 $191 $63 $-1 $192 forward single #
loop $-1 $193 $194 $80 #
cone-surface $-1 -62.946757212809423 30.867242805965574 4.5393778340714173 0.80901700255871778 0 -0.5877852410284794 0.2938926205142397 0 0.40450850127935889 1 I I 0 1 0.5 forward I I I I #
face $-1 $195 $196 $64 $-1 $197 forward single #
loop $-1 $198 $199 $81 #
cone-surface $-1 -62.946757212809423 33.667929909019747 4.5393778340714173 0.80901700255871778 0 -0.5877852410284794 0.2938926205142397 0 0.40450850127935889 1 I I 0 1 0.5 forward I I I I #
face $-1 $200 $201 $65 $-1 $202 reversed single #
loop $-1 $-1 $203 $82 #
plane-surface $-1 74.795104360309807 25.339648526172265 185.27088740111606 0 -1 0 -0.74314483375859142 0 -0.66913059716165679 forward_v I I I I #
face $-1 $204 $205 $66 $-1 $206 forward single #
loop $-1 $207 $208 $83 #
cone-surface $-1 61.249465036006612 17.487462429599795 3.2076284462341444 -0.74314483375859142 0 -0.66913059716165679 0.66913059716165679 0 -0.74314483375859142 1 I I 0 1 1 forward I I I I #
face $-1 $209 $210 $67 $-1 $211 forward single #
loop $-1 $212 $213 $84 #
cone-surface $-1 61.249465036006612 22.198774087543278 3.2076284462341444 -0.74314483375859142 0 -0.66913059716165679 0.66913059716165679 0 -0.74314483375859142 1 I I 0 1 1 forward I I I I #
face $-1 $214 $215 $51 $-1 $216 reversed single #
loop $-1 $-1 $217 $85 #
plane-surface $-1 0 0 -7.2924564791018609 0 0 1 1 0 0 forward_v I I I I #
coedge $-1 $218 $219 $220 $221 forward $86 $-1 #
face $-1 $222 $223 $52 $-1 $224 reversed single #
loop $-1 $-1 $225 $88 #
plane-surface $-1 0 -28.168122392828252 5.7924564791018609 0 -1 0 0 0 -1 forward_v I I I I #
coedge $-1 $226 $227 $228 $229 reversed $89 $-1 #
face $-1 $230 $231 $53 $-1 $232 reversed single #
loop $-1 $-1 $233 $91 #
plane-surface $-1 -65.150914029358802 -15.509796420420415 2.4139254597738642 -0.80901700255871778 0 0.5877852410284794 0.5877852410284794 0 0.80901700255871778 forward_v I I I I #
coedge $-1 $234 $235 $236 $237 reversed $92 $-1 #
face $-1 $-1 $238 $54 $-1 $239 forward single #
loop $-1 $240 $241 $94 #
cone-surface $-1 -62.312576223598555 -16.910139971947498 4.0786183884478548 0.80901700255871778 0 -0.5877852410284794 0.14694631025711985 0 0.20225425063967944 1 I I -0.70710678118654746 0.70710678118654746 0.25 forward I I I I #
loop $-1 $-1 $242 $71 #
coedge $-1 $152 $152 $243 $244 reversed $95 $-1 #
face $-1 $-1 $245 $55 $-1 $246 forward single #
loop $-1 $247 $248 $97 #
cone-surface $-1 -62.312576223598555 -14.109452868893335 4.0786183884478548 0.80901700255871778 0 -0.5877852410284794 0.14694631025711985 0 0.20225425063967944 1 I I -0.70710678118654746 0.70710678118654746 0.25 forward I I I I #
loop $-1 $-1 $249 $72 #
coedge $-1 $157 $157 $250 $251 reversed $98 $-1 #
face $-1 $252 $253 $56 $-1 $254 reversed single #
loop $-1 $-1 $255 $100 #
plane-surface $-1 -65.150914029358802 0.41599783888394626 2.4139254597738642 -0.80901700255871778 0 0.5877852410284794 0.5877852410284794 0 0.80901700255871778 forward_v I I I I #
coedge $-1 $256 $257 $258 $259 reversed $101 $-1 #
face $-1 $-1 $260 $57 $-1 $261 forward single #
loop $-1 $262 $263 $103 #
cone-surface $-1 -62.312576223598555 -0.9843457126431403 4.0786183884478548 0.80901700255871778 0 -0.5877852410284794 0.14694631025711985 0 0.20225425063967944 1 I I -0.70710678118654746 0.70710678118654746 0.25 forward I I I I #
loop $-1 $-1 $264 $74 #
coedge $-1 $166 $166 $265 $266 reversed $104 $-1 #
face $-1 $-1 $267 $58 $-1 $268 forward single #
loop $-1 $269 $270 $106 #
cone-surface $-1 -62.312576223598555 1.8163413904110257 4.0786183884478548 0.80901700255871778 0 -0.5877852410284794 0.14694631025711985 0 0.20225425063967944 1 I I -0.70710678118654746 0.70710678118654746 0.25 forward I I I I #
loop $-1 $-1 $271 $75 #
coedge $-1 $171 $171 $272 $273 reversed $107 $-1 #
face $-1 $274 $275 $59 $-1 $276 reversed single #
loop $-1 $-1 $277 $109 #
plane-surface $-1 -65.150914029358802 16.341792098188307 2.4139254597738642 -0.80901700255871778 0 0.5877852410284794 0.5877852410284794 0 0.80901700255871778 forward_v I I I I #
coedge $-1 $278 $279 $280 $281 reversed $110 $-1 #
face $-1 $-1 $282 $60 $-1 $283 forward single #
loop $-1 $284 $285 $112 #
cone-surface $-1 -62.312576223598555 14.941448546661221 4.0786183884478548 0.80901700255871778 0 -0.5877852410284794 0.14694631025711985 0 0.20225425063967944 1 I I -0.70710678118654746 0.70710678118654746 0.25 forward I I I I #
loop $-1 $-1 $286 $77 #
coedge $-1 $180 $180 $287 $288 reversed $113 $-1 #
face $-1 $-1 $289 $61 $-1 $290 forward single #
loop $-1 $291 $292 $115 #
cone-surface $-1 -62.312576223598555 17.742135649715387 4.0786183884478548 0.80901700255871778 0 -0.5877852410284794 0.14694631025711985 0 0.20225425063967944 1 I I -0.70710678118654746 0.70710678118654746 0.25 forward I I I I #
loop $-1 $-1 $293 $78 #
coedge $-1 $185 $185 $294 $295 reversed $116 $-1 #
face $-1 $296 $297 $62 $-1 $298 forward single #
loop $-1 $-1 $299 $118 #
plane-surface $-1 -65.150914029358802 32.267586357492661 2.4139254597738642 -0.80901700255871778 0 0.5877852410284794 0.5877852410284794 0 0.80901700255871778 forward_v I I I I #
coedge $-1 $300 $301 $302 $303 reversed $119 $-1 #
face $-1 $-1 $304 $63 $-1 $305 forward single #
loop $-1 $306 $307 $121 #
cone-surface $-1 -62.312576223598555 30.867242805965574 4.0786183884478548 0.80901700255871778 0 -0.5877852410284794 0.14694631025711985 0 0.20225425063967944 1 I I -0.70710678118654746 0.70710678118654746 0.25 forward I I I I #
loop $-1 $-1 $308 $80 #
coedge $-1 $194 $194 $309 $310 reversed $122 $-1 #
face $-1 $-1 $311 $64 $-1 $312 forward single #
loop $-1 $313 $314 $124 #
cone-surface $-1 -62.312576223598555 33.667929909019747 4.0786183884478548 0.80901700255871778 0 -0.5877852410284794 0.14694631025711985 0 0.20225425063967944 1 I I -0.70710678118654746 0.70710678118654746 0.25 forward I I I I #
loop $-1 $-1 $315 $81 #
coedge $-1 $199 $199 $316 $317 reversed $125 $-1 #
face $-1 $318 $319 $65 $-1 $320 reversed single #
loop $-1 $-1 $321 $127 #
plane-surface $-1 -22.038025990826455 19.843118258571536 98.081947380930814 0.74314483375859142 0 0.66913059716165679 0.66913059716165679 0 -0.74314483375859142 forward_v I I I I #
coedge $-1 $322 $323 $324 $325 reversed $128 $-1 #
face $-1 $-1 $326 $66 $-1 $327 forward single #
loop $-1 $328 $329 $130 #
cone-surface $-1 59.697302259274309 17.487462429599795 1.8100548394392577 -0.74314483375859142 0 -0.66913059716165679 0.3345652985808284 0 -0.37157241687929571 1 I I -0.70710678118654746 0.70710678118654746 0.5 forward I I I I #
loop $-1 $-1 $330 $83 #
coedge $-1 $208 $208 $331 $332 reversed $131 $-1 #
face $-1 $-1 $333 $67 $-1 $334 forward single #
loop $-1 $335 $336 $133 #
cone-surface $-1 59.697302259274309 22.198774087543278 1.8100548394392577 -0.74314483375859142 0 -0.66913059716165679 0.3345652985808284 0 -0.37157241687929571 1 I I -0.70710678118654746 0.70710678118654746 0.5 forward I I I I #
loop $-1 $-1 $337 $84 #
coedge $-1 $213 $213 $338 $339 reversed $134 $-1 #
face $-1 $340 $341 $51 $-1 $342 reversed single #
loop $-1 $-1 $343 $136 #
plane-surface $-1 0 -35.535054644389191 0 0 1 0 0 0 1 forward_v I I I I #
coedge $-1 $344 $345 $346 $347 forward $137 $-1 #
coedge $-1 $348 $139 $349 $350 forward $86 $-1 #
coedge $-1 $139 $348 $351 $352 forward $86 $-1 #
coedge $-1 $353 $354 $139 $221 reversed $355 $-1 #
edge $-1 $356 -35.535054644389191 $357 35.535054644389191 $220 $358 forward 7 unknown #
face $-1 $359 $360 $52 $-1 $361 reversed single #
loop $-1 $-1 $362 $140 #
plane-surface $-1 -65.150914029358802 0 0 1 0 0 0 0 -1 forward_v I I I I #
coedge $-1 $363 $364 $365 $366 reversed $141 $-1 #
coedge $-1 $367 $143 $368 $369 reversed $89 $-1 #
coedge $-1 $143 $367 $363 $370 forward $89 $-1 #
coedge $-1 $365 $371 $143 $229 forward $372 $-1 #
edge $-1 $373 -19.609260385084831 $374 -12.242328133523891 $228 $375 forward 7 unknown #
face $-1 $376 $377 $53 $-1 $378 forward single #
loop $-1 $-1 $379 $144 #
plane-surface $-1 -170.56730839334395 -12.242328133523891 79.00341687171867 0 -1 0 0.80901700255871778 0 -0.5877852410284794 forward_v I I I I #
coedge $-1 $380 $381 $382 $383 reversed $145 $-1 #
coedge $-1 $235 $147 $384 $385 reversed $92 $-1 #
coedge $-1 $147 $234 $380 $386 reversed $92 $-1 #
coedge $-1 $382 $387 $147 $237 forward $377 $-1 #
edge $-1 $388 20.132740167313173 $389 23.677200323269531 $236 $390 forward 7 unknown #
loop $-1 $-1 $243 $148 #
plane-surface $-1 -65.150914029358802 -15.509796420420415 2.4139254597738642 -0.80901700255871778 0 0.5877852410284794 0.5877852410284794 0 0.80901700255871778 forward_v I I I I #
loop $-1 $-1 $391 $94 #
coedge $-1 $241 $241 $242 $392 reversed $149 $-1 #
coedge $-1 $242 $242 $241 $392 forward $151 $-1 #
coedge $-1 $243 $243 $152 $244 forward $238 $-1 #
edge $-1 $393 0 $393 6.2831853071796004 $243 $394 forward 7 unknown #
loop $-1 $-1 $250 $153 #
plane-surface $-1 -65.150914029358802 -15.509796420420415 2.4139254597738642 -0.80901700255871778 0 0.5877852410284794 0.5877852410284794 0 0.80901700255871778 forward_v I I I I #
loop $-1 $-1 $395 $97 #
coedge $-1 $248 $248 $249 $396 reversed $154 $-1 #
coedge $-1 $249 $249 $248 $396 forward $156 $-1 #
coedge $-1 $250 $250 $157 $251 forward $245 $-1 #
edge $-1 $397 0 $397 6.2831853071796004 $250 $398 forward 7 unknown #
face $-1 $399 $400 $56 $-1 $401 forward single #
loop $-1 $-1 $402 $158 #
plane-surface $-1 -170.56730839334395 3.6834661257804697 79.00341687171867 0 -1 0 0.80901700255871778 0 -0.5877852410284794 forward_v I I I I #
coedge $-1 $403 $404 $405 $406 reversed $159 $-1 #
coedge $-1 $257 $161 $407 $408 reversed $101 $-1 #
coedge $-1 $161 $256 $403 $409 reversed $101 $-1 #
coedge $-1 $405 $410 $161 $259 forward $400 $-1 #
edge $-1 $411 20.132740167313173 $412 23.677200323269531 $258 $413 forward 7 unknown #
loop $-1 $-1 $265 $162 #
plane-surface $-1 -65.150914029358802 0.41599783888394626 2.4139254597738642 -0.80901700255871778 0 0.5877852410284794 0.5877852410284794 0 0.80901700255871778 forward_v I I I I #
loop $-1 $-1 $414 $103 #
coedge $-1 $263 $263 $264 $415 reversed $163 $-1 #
coedge $-1 $264 $264 $263 $415 forward $165 $-1 #
coedge $-1 $265 $265 $166 $266 forward $260 $-1 #
edge $-1 $416 0 $416 6.2831853071796004 $265 $417 forward 7 unknown #
loop $-1 $-1 $272 $167 #
plane-surface $-1 -65.150914029358802 0.41599783888394626 2.4139254597738642 -0.80901700255871778 0 0.5877852410284794 0.5877852410284794 0 0.80901700255871778 forward_v I I I I #
loop $-1 $-1 $418 $106 #
coedge $-1 $270 $270 $271 $419 reversed $168 $-1 #
coedge $-1 $271 $271 $270 $419 forward $170 $-1 #
coedge $-1 $272 $272 $171 $273 forward $267 $-1 #
edge $-1 $420 0 $420 6.2831853071796004 $272 $421 forward 7 unknown #
face $-1 $422 $423 $59 $-1 $424 forward single #
loop $-1 $-1 $425 $172 #
plane-surface $-1 -170.56730839334395 19.609260385084831 79.00341687171867 0 -1 0 0.80901700255871778 0 -0.5877852410284794 forward_v I I I I #
coedge $-1 $426 $427 $428 $429 reversed $173 $-1 #
coedge $-1 $279 $175 $430 $431 reversed $110 $-1 #
coedge $-1 $175 $278 $426 $432 reversed $110 $-1 #
coedge $-1 $428 $433 $175 $281 forward $423 $-1 #
edge $-1 $434 20.132740167313173 $435 23.677200323269531 $280 $436 forward 7 unknown #
loop $-1 $-1 $287 $176 #
plane-surface $-1 -65.150914029358802 16.341792098188307 2.4139254597738642 -0.80901700255871778 0 0.5877852410284794 0.5877852410284794 0 0.80901700255871778 forward_v I I I I #
loop $-1 $-1 $437 $112 #
coedge $-1 $285 $285 $286 $438 reversed $177 $-1 #
coedge $-1 $286 $286 $285 $438 forward $179 $-1 #
coedge $-1 $287 $287 $180 $288 forward $282 $-1 #
edge $-1 $439 0 $439 6.2831853071796004 $287 $440 forward 7 unknown #
loop $-1 $-1 $294 $181 #
plane-surface $-1 -65.150914029358802 16.341792098188307 2.4139254597738642 -0.80901700255871778 0 0.5877852410284794 0.5877852410284794 0 0.80901700255871778 forward_v I I I I #
loop $-1 $-1 $441 $115 #
coedge $-1 $292 $292 $293 $442 reversed $182 $-1 #
coedge $-1 $293 $293 $292 $442 forward $184 $-1 #
coedge $-1 $294 $294 $185 $295 forward $289 $-1 #
edge $-1 $443 0 $443 6.2831853071796004 $294 $444 forward 7 unknown #
face $-1 $445 $446 $62 $-1 $447 reversed single #
loop $-1 $-1 $302 $186 #
plane-surface $-1 0 0 7.2924564791018609 0 0 1 1 0 0 forward_v I I I I #
coedge $-1 $448 $449 $450 $451 reversed $187 $-1 #
coedge $-1 $301 $189 $452 $453 reversed $119 $-1 #
coedge $-1 $189 $300 $448 $454 reversed $119 $-1 #
coedge $-1 $450 $455 $189 $303 forward $297 $-1 #
edge $-1 $456 20.132740167313173 $457 23.677200323269531 $302 $458 forward 7 unknown #
loop $-1 $-1 $309 $190 #
plane-surface $-1 -65.150914029358802 32.267586357492661 2.4139254597738642 -0.80901700255871778 0 0.5877852410284794 0.5877852410284794 0 0.80901700255871778 forward_v I I I I #
loop $-1 $-1 $459 $121 #
coedge $-1 $307 $307 $308 $460 reversed $191 $-1 #
coedge $-1 $308 $308 $307 $460 forward $193 $-1 #
coedge $-1 $309 $309 $194 $310 forward $304 $-1 #
edge $-1 $461 0 $461 6.2831853071796004 $309 $462 forward 7 unknown #
loop $-1 $-1 $316 $195 #
plane-surface $-1 -65.150914029358802 32.267586357492661 2.4139254597738642 -0.80901700255871778 0 0.5877852410284794 0.5877852410284794 0 0.80901700255871778 forward_v I I I I #
loop $-1 $-1 $463 $124 #
coedge $-1 $314 $314 $315 $464 reversed $196 $-1 #
coedge $-1 $315 $315 $314 $464 forward $198 $-1 #
coedge $-1 $316 $316 $199 $317 forward $311 $-1 #
edge $-1 $465 0 $465 6.2831853071796004 $316 $466 forward 7 unknown #
face $-1 $467 $468 $65 $-1 $469 reversed single #
loop $-1 $-1 $470 $200 #
plane-surface $-1 74.795104360309807 14.346587990970807 185.27088740111606 0 1 0 0.74314483375859142 0 0.66913059716165679 forward_v I I I I #
coedge $-1 $471 $472 $473 $474 reversed $201 $-1 #
coedge $-1 $323 $203 $475 $476 reversed $128 $-1 #
coedge $-1 $203 $322 $471 $477 reversed $128 $-1 #
coedge $-1 $473 $478 $203 $325 forward $479 $-1 #
edge $-1 $480 -27.753361849203898 $481 -22.311644582205545 $324 $482 forward 7 unknown #
loop $-1 $-1 $331 $204 #
plane-surface $-1 -22.038025990826455 19.843118258571536 98.081947380930814 0.74314483375859142 0 0.66913059716165679 0.66913059716165679 0 -0.74314483375859142 forward_v I I I I #
loop $-1 $-1 $483 $130 #
coedge $-1 $329 $329 $330 $484 reversed $205 $-1 #
coedge $-1 $330 $330 $329 $484 forward $207 $-1 #
coedge $-1 $331 $331 $208 $332 forward $326 $-1 #
edge $-1 $485 0 $485 6.2831853071796004 $331 $486 forward 7 unknown #
loop $-1 $-1 $338 $209 #
plane-surface $-1 -22.038025990826455 19.843118258571536 98.081947380930814 0.74314483375859142 0 0.66913059716165679 0.66913059716165679 0 -0.74314483375859142 forward_v I I I I #
loop $-1 $-1 $487 $133 #
coedge $-1 $336 $336 $337 $488 reversed $210 $-1 #
coedge $-1 $337 $337 $336 $488 forward $212 $-1 #
coedge $-1 $338 $338 $213 $339 forward $333 $-1 #
edge $-1 $489 0 $489 6.2831853071796004 $338 $490 forward 7 unknown #
face $-1 $491 $492 $51 $-1 $493 reversed single #
loop $-1 $-1 $494 $214 #
plane-surface $-1 -65.150914029358802 0 0 1 0 0 0 0 -1 forward_v I I I I #
coedge $-1 $495 $351 $496 $497 forward $215 $-1 #
coedge $-1 $498 $217 $495 $499 forward $137 $-1 #
coedge $-1 $217 $498 $500 $501 forward $137 $-1 #
coedge $-1 $354 $353 $217 $347 reversed $355 $-1 #
edge $-1 $502 -35.535054644389191 $503 35.535054644389191 $346 $504 forward 7 unknown #
coedge $-1 $219 $218 $505 $506 forward $86 $-1 #
coedge $-1 $507 $508 $218 $350 reversed $492 $-1 #
edge $-1 $357 -65.150914029358802 $509 65.150914029358802 $349 $510 forward 7 unknown #
coedge $-1 $343 $511 $219 $352 reversed $215 $-1 #
edge $-1 $512 -65.150914029358802 $356 65.150914029358802 $351 $513 forward 7 unknown #
coedge $-1 $346 $220 $511 $514 forward $355 $-1 #
coedge $-1 $220 $346 $507 $515 reversed $355 $-1 #
loop $-1 $-1 $353 $491 #
vertex $-1 $221 $516 #
vertex $-1 $221 $517 #
straight-curve $-1 65.150914029358802 0 7.2924564791018609 0 1 0 I I #
face $-1 $518 $519 $52 $-1 $520 forward single #
loop $-1 $-1 $368 $222 #
plane-surface $-1 0 -35.535054644389191 0 0 1 0 0 0 1 forward_v I I I I #
coedge $-1 $521 $522 $523 $524 forward $223 $-1 #
coedge $-1 $523 $225 $227 $370 reversed $141 $-1 #
coedge $-1 $225 $523 $525 $526 reversed $141 $-1 #
coedge $-1 $527 $228 $225 $366 forward $372 $-1 #
edge $-1 $374 1.3962282395509305 $528 4.3962282395509309 $365 $529 forward 7 unknown #
coedge $-1 $227 $226 $521 $530 reversed $89 $-1 #
coedge $-1 $531 $532 $226 $369 forward $360 $-1 #
edge $-1 $533 -65.150914029358802 $373 65.150914029358802 $368 $534 forward 7 unknown #
edge $-1 $535 -65.150914029358802 $374 65.150914029358802 $363 $536 forward 7 unknown #
coedge $-1 $228 $527 $531 $537 forward $372 $-1 #
loop $-1 $-1 $365 $518 #
vertex $-1 $369 $538 #
vertex $-1 $229 $539 #
straight-curve $-1 65.150914029358802 -15.925794259304361 4.2924564791018609 0 1 0 I I #
face $-1 $-1 $540 $53 $-1 $541 reversed single #
loop $-1 $-1 $236 $230 #
plane-surface $-1 0 0 7.2924564791018609 0 0 1 1 0 0 forward_v I I I I #
coedge $-1 $542 $543 $544 $545 reversed $231 $-1 #
coedge $-1 $546 $233 $235 $386 forward $145 $-1 #
coedge $-1 $233 $546 $542 $547 forward $145 $-1 #
coedge $-1 $544 $236 $233 $383 forward $377 $-1 #
edge $-1 $389 -11.022366497106731 $548 -4.4874299233136838 $382 $549 forward 7 unknown #
coedge $-1 $550 $551 $234 $385 forward $540 $-1 #
edge $-1 $552 -37.087782976085471 $388 -32.209251956757477 $384 $553 forward 7 unknown #
edge $-1 $389 -6.0301959092311108 $552 0 $235 $554 forward 7 unknown #
coedge $-1 $236 $544 $550 $555 forward $377 $-1 #
vertex $-1 $385 $556 #
vertex $-1 $237 $557 #
straight-curve $-1 -85.283654196671975 -18.777264707316938 7.2924564791018582 1 0 0 I I #
coedge $-1 $391 $391 $-1 $558 reversed $240 $-1 #
edge $-1 $559 0 $559 6.2831853071796004 $241 $560 forward 7 unknown #
vertex $-1 $244 $561 #
ellipse-curve $-1 -63.378683951380623 -16.910139971947498 4.8531909694378648 -0.80901700255871778 0 0.5877852410284794 0.2938926205142397 0 0.40450850127935889 1 I I #
coedge $-1 $395 $395 $-1 $562 reversed $247 $-1 #
edge $-1 $563 0 $563 6.2831853071796004 $248 $564 forward 7 unknown #
vertex $-1 $251 $565 #
ellipse-curve $-1 -63.378683951380623 -14.109452868893335 4.8531909694378648 -0.80901700255871778 0 0.5877852410284794 0.2938926205142397 0 0.40450850127935889 1 I I #
face $-1 $-1 $566 $56 $-1 $567 reversed single #
loop $-1 $-1 $258 $252 #
plane-surface $-1 0 0 7.2924564791018609 0 0 1 1 0 0 forward_v I I I I #
coedge $-1 $568 $569 $570 $571 reversed $253 $-1 #
coedge $-1 $572 $255 $257 $409 forward $159 $-1 #
coedge $-1 $255 $572 $568 $573 forward $159 $-1 #
coedge $-1 $570 $258 $255 $406 forward $400 $-1 #
edge $-1 $412 -3.0594693674545503 $574 3.4754672063384966 $405 $575 forward 7 unknown #
coedge $-1 $576 $577 $256 $408 forward $566 $-1 #
edge $-1 $578 -37.087782976085471 $411 -32.209251956757477 $407 $579 forward 7 unknown #
edge $-1 $412 -6.0301959092311108 $578 0 $257 $580 forward 7 unknown #
coedge $-1 $258 $570 $576 $581 forward $400 $-1 #
vertex $-1 $259 $582 #
vertex $-1 $259 $583 #
straight-curve $-1 -85.283654196671975 -2.8514704480125772 7.2924564791018582 1 0 0 I I #
coedge $-1 $414 $414 $-1 $584 reversed $262 $-1 #
edge $-1 $585 0 $585 6.2831853071796004 $263 $586 forward 7 unknown #
vertex $-1 $266 $587 #
ellipse-curve $-1 -63.378683951380623 -0.9843457126431403 4.8531909694378648 -0.80901700255871778 0 0.5877852410284794 0.2938926205142397 0 0.40450850127935889 1 I I #
coedge $-1 $418 $418 $-1 $588 reversed $269 $-1 #
edge $-1 $589 0 $589 6.2831853071796004 $270 $590 forward 7 unknown #
vertex $-1 $273 $591 #
ellipse-curve $-1 -63.378683951380623 1.8163413904110257 4.8531909694378648 -0.80901700255871778 0 0.5877852410284794 0.2938926205142397 0 0.40450850127935889 1 I I #
face $-1 $-1 $592 $59 $-1 $593 reversed single #
loop $-1 $-1 $280 $274 #
plane-surface $-1 0 0 7.2924564791018609 0 0 1 1 0 0 forward_v I I I I #
coedge $-1 $594 $595 $596 $597 reversed $275 $-1 #
coedge $-1 $598 $277 $279 $432 forward $173 $-1 #
coedge $-1 $277 $598 $594 $599 forward $173 $-1 #
coedge $-1 $596 $280 $277 $429 forward $423 $-1 #
edge $-1 $435 4.9034277621976301 $600 11.438364335990677 $428 $601 forward 7 unknown #
coedge $-1 $602 $603 $278 $431 forward $592 $-1 #
edge $-1 $604 -37.087782976085471 $434 -32.209251956757477 $430 $605 forward 7 unknown #
edge $-1 $435 -6.0301959092311108 $604 0 $279 $606 forward 7 unknown #
coedge $-1 $280 $596 $602 $607 forward $423 $-1 #
vertex $-1 $281 $608 #
vertex $-1 $281 $609 #
straight-curve $-1 -85.283654196671975 13.074323811291784 7.2924564791018582 1 0 0 I I #
coedge $-1 $437 $437 $-1 $610 reversed $284 $-1 #
edge $-1 $611 0 $611 6.2831853071796004 $285 $612 forward 7 unknown #
vertex $-1 $288 $613 #
ellipse-curve $-1 -63.378683951380623 14.941448546661221 4.8531909694378648 -0.80901700255871778 0 0.5877852410284794 0.2938926205142397 0 0.40450850127935889 1 I I #
coedge $-1 $441 $441 $-1 $614 reversed $291 $-1 #
edge $-1 $615 0 $615 6.2831853071796004 $292 $616 forward 7 unknown #
vertex $-1 $295 $617 #
ellipse-curve $-1 -63.378683951380623 17.742135649715387 4.8531909694378648 -0.80901700255871778 0 0.5877852410284794 0.2938926205142397 0 0.40450850127935889 1 I I #
face $-1 $-1 $618 $62 $-1 $619 reversed single #
loop $-1 $-1 $620 $296 #
plane-surface $-1 0 35.535054644389191 0 0 -1 0 0 0 -1 forward_v I I I I #
coedge $-1 $621 $299 $301 $454 forward $187 $-1 #
coedge $-1 $299 $621 $620 $622 reversed $187 $-1 #
coedge $-1 $623 $302 $299 $451 forward $297 $-1 #
edge $-1 $457 12.866324891849807 $624 19.401261465642854 $450 $625 forward 7 unknown #
coedge $-1 $626 $627 $300 $453 forward $618 $-1 #
edge $-1 $628 -37.087782976085471 $456 -32.209251956757477 $452 $629 forward 7 unknown #
edge $-1 $457 -6.0301959092311108 $628 0 $301 $630 forward 7 unknown #
coedge $-1 $302 $623 $626 $631 forward $297 $-1 #
vertex $-1 $453 $632 #
vertex $-1 $303 $633 #
straight-curve $-1 -85.283654196671975 29.000118070596137 7.2924564791018582 1 0 0 I I #
coedge $-1 $459 $459 $-1 $634 reversed $306 $-1 #
edge $-1 $635 0 $635 6.2831853071796004 $307 $636 forward 7 unknown #
vertex $-1 $310 $637 #
ellipse-curve $-1 -63.378683951380623 30.867242805965574 4.8531909694378648 -0.80901700255871778 0 0.5877852410284794 0.2938926205142397 0 0.40450850127935889 1 I I #
coedge $-1 $463 $463 $-1 $638 reversed $313 $-1 #
edge $-1 $639 0 $639 6.2831853071796004 $314 $640 forward 7 unknown #
vertex $-1 $317 $641 #
ellipse-curve $-1 -63.378683951380623 33.667929909019747 4.8531909694378648 -0.80901700255871778 0 0.5877852410284794 0.2938926205142397 0 0.40450850127935889 1 I I #
face $-1 $-1 $479 $65 $-1 $642 forward single #
loop $-1 $-1 $643 $318 #
plane-surface $-1 65.150914029358802 0 0 -1 0 0 0 0 1 forward_v I I I I #
coedge $-1 $644 $645 $646 $647 reversed $319 $-1 #
coedge $-1 $648 $321 $323 $477 forward $201 $-1 #
coedge $-1 $321 $648 $644 $649 forward $201 $-1 #
coedge $-1 $646 $324 $321 $474 forward $479 $-1 #
edge $-1 $481 -15.418089396886497 $650 -4.4250288616850391 $473 $651 forward 7 unknown #
coedge $-1 $652 $653 $322 $476 forward $468 $-1 #
edge $-1 $654 -91.386626670763491 $480 -85.34298722145617 $475 $655 forward 7 unknown #
edge $-1 $481 122.16930910041376 $654 130.3018280587176 $323 $656 forward 7 unknown #
coedge $-1 $324 $646 $652 $657 forward $479 $-1 #
loop $-1 $-1 $646 $467 #
vertex $-1 $476 $658 #
vertex $-1 $325 $659 #
straight-curve $-1 37.397552180154904 25.339648526172265 7.2924564791018582 -1 0 0 I I #
coedge $-1 $483 $483 $-1 $660 reversed $328 $-1 #
edge $-1 $661 0 $661 6.2831853071796004 $329 $662 forward 7 unknown #
vertex $-1 $332 $663 #
ellipse-curve $-1 62.430055395859618 17.487462429599795 4.2706367544482013 0.74314483375859142 0 0.66913059716165679 0.66913059716165679 0 -0.74314483375859142 1 I I #
coedge $-1 $487 $487 $-1 $664 reversed $335 $-1 #
edge $-1 $665 0 $665 6.2831853071796004 $336 $666 forward 7 unknown #
vertex $-1 $339 $667 #
ellipse-curve $-1 62.430055395859618 22.198774087543278 4.2706367544482013 0.74314483375859142 0 0.66913059716165679 0.66913059716165679 0 -0.74314483375859142 1 I I #
face $-1 $-1 $355 $51 $-1 $668 reversed single #
loop $-1 $-1 $507 $340 #
plane-surface $-1 0 35.535054644389191 0 0 -1 0 0 0 -1 forward_v I I I I #
coedge $-1 $669 $505 $508 $670 forward $341 $-1 #
coedge $-1 $511 $343 $344 $499 reversed $215 $-1 #
coedge $-1 $505 $669 $343 $497 reversed $341 $-1 #
edge $-1 $512 -7.2924564791018609 $671 7.2924564791018609 $496 $672 forward 7 unknown #
coedge $-1 $345 $344 $669 $673 forward $137 $-1 #
edge $-1 $503 -65.150914029358802 $671 65.150914029358802 $495 $674 forward 7 unknown #
coedge $-1 $508 $507 $345 $501 reversed $492 $-1 #
edge $-1 $675 -65.150914029358802 $502 65.150914029358802 $500 $676 forward 7 unknown #
vertex $-1 $347 $677 #
vertex $-1 $514 $678 #
straight-curve $-1 65.150914029358802 0 -7.2924564791018609 0 -1 0 I I #
coedge $-1 $494 $496 $348 $506 reversed $341 $-1 #
edge $-1 $509 -35.535054644389191 $512 35.535054644389191 $505 $679 forward 7 unknown #
coedge $-1 $500 $349 $354 $515 forward $492 $-1 #
coedge $-1 $349 $500 $494 $670 reversed $492 $-1 #
vertex $-1 $350 $680 #
straight-curve $-1 0 35.535054644389191 7.2924564791018609 -1 0 0 I I #
coedge $-1 $351 $495 $353 $514 reversed $215 $-1 #
vertex $-1 $506 $681 #
straight-curve $-1 0 -35.535054644389191 7.2924564791018609 1 0 0 I I #
edge $-1 $356 -7.2924564791018609 $503 7.2924564791018609 $353 $682 forward 7 unknown #
edge $-1 $357 -7.2924564791018609 $502 7.2924564791018609 $354 $683 forward 7 unknown #
point $-1 65.150914029358802 -35.535054644389191 7.2924564791018609 #
point $-1 65.150914029358802 35.535054644389191 7.2924564791018609 #
face $-1 $-1 $372 $52 $-1 $684 reversed single #
loop $-1 $-1 $525 $359 #
plane-surface $-1 0 0 7.2924564791018609 0 0 1 1 0 0 forward_v I I I I #
coedge $-1 $685 $362 $367 $530 forward $223 $-1 #
coedge $-1 $362 $685 $686 $687 reversed $223 $-1 #
coedge $-1 $364 $363 $362 $524 reversed $141 $-1 #
edge $-1 $688 -4.3962282395509309 $535 -1.3962282395509305 $362 $689 forward 7 unknown #
coedge $-1 $686 $690 $364 $526 forward $519 $-1 #
edge $-1 $528 -65.150914029358802 $688 65.150914029358802 $525 $691 forward 7 unknown #
coedge $-1 $371 $365 $690 $692 reversed $372 $-1 #
vertex $-1 $366 $693 #
straight-curve $-1 65.150914029358802 -28.168122392828252 2.8962282395509305 0 0 1 I I #
edge $-1 $535 12.242328133523891 $533 19.609260385084831 $521 $694 forward 7 unknown #
coedge $-1 $695 $368 $371 $537 reversed $360 $-1 #
coedge $-1 $368 $695 $685 $696 forward $360 $-1 #
vertex $-1 $369 $697 #
straight-curve $-1 0 -35.535054644389191 4.2924564791018609 1 0 0 I I #
vertex $-1 $530 $698 #
straight-curve $-1 0 -28.168122392828252 4.2924564791018609 1 0 0 I I #
edge $-1 $699 -7.2924564791018609 $373 -4.2924564791018609 $371 $700 forward 7 unknown #
point $-1 65.150914029358802 -35.535054644389191 4.2924564791018609 #
point $-1 65.150914029358802 -28.168122392828252 4.2924564791018609 #
loop $-1 $-1 $384 $376 #
plane-surface $-1 -65.150914029358802 0 0 1 0 0 0 0 -1 forward_v I I I I #
coedge $-1 $543 $379 $381 $547 reversed $231 $-1 #
coedge $-1 $379 $542 $701 $702 reversed $231 $-1 #
coedge $-1 $387 $382 $379 $545 forward $377 $-1 #
edge $-1 $548 -23.677200323269531 $703 -20.132740167313173 $544 $704 forward 7 unknown #
coedge $-1 $381 $380 $551 $705 reversed $145 $-1 #
edge $-1 $706 0 $548 6.0301959092311108 $542 $707 forward 7 unknown #
vertex $-1 $383 $708 #
straight-curve $-1 -61.606453873402444 -7.7548982102102073 7.2924564791018618 0 1 0 I I #
coedge $-1 $701 $384 $387 $555 reversed $540 $-1 #
coedge $-1 $384 $701 $546 $705 forward $540 $-1 #
vertex $-1 $385 $709 #
straight-curve $-1 -65.150914029358802 -18.777264707316938 39.501708435859335 0 0 1 I I #
straight-curve $-1 -65.150914029358802 -18.777264707316938 2.4139254597738642 -0.5877852410284794 0 -0.80901700255871778 I I #
edge $-1 $703 12.242328133523891 $388 18.777264707316938 $550 $710 forward 7 unknown #
point $-1 -65.150914029358802 -18.777264707316938 7.2924564791018609 #
point $-1 -61.606453873402444 -18.777264707316938 7.2924564791018609 #
edge $-1 $711 1 $711 0 $391 $-1 forward 7 unknown #
vertex $-1 $392 $712 #
ellipse-curve $-1 -62.514830474238231 -16.910139971947498 4.2255646987049751 -0.80901700255871778 0 0.5877852410284794 0.2938926205142397 0 0.40450850127935889 1 I I #
point $-1 -63.084791330866373 -16.910139971947498 5.2576994707172187 #
edge $-1 $713 1 $713 0 $395 $-1 forward 7 unknown #
vertex $-1 $396 $714 #
ellipse-curve $-1 -62.514830474238231 -14.109452868893335 4.2255646987049751 -0.80901700255871778 0 0.5877852410284794 0.2938926205142397 0 0.40450850127935889 1 I I #
point $-1 -63.084791330866373 -14.109452868893335 5.2576994707172187 #
loop $-1 $-1 $407 $399 #
plane-surface $-1 -65.150914029358802 0 0 1 0 0 0 0 -1 forward_v I I I I #
coedge $-1 $569 $402 $404 $573 reversed $253 $-1 #
coedge $-1 $402 $568 $715 $716 reversed $253 $-1 #
coedge $-1 $410 $405 $402 $571 forward $400 $-1 #
edge $-1 $574 -23.677200323269531 $717 -20.132740167313173 $570 $718 forward 7 unknown #
coedge $-1 $404 $403 $577 $719 reversed $159 $-1 #
edge $-1 $720 0 $574 6.0301959092311108 $568 $721 forward 7 unknown #
vertex $-1 $406 $722 #
straight-curve $-1 -61.606453873402444 0.20799891944197313 7.2924564791018618 0 1 0 I I #
coedge $-1 $715 $407 $410 $581 reversed $566 $-1 #
coedge $-1 $407 $715 $572 $719 forward $566 $-1 #
vertex $-1 $408 $723 #
straight-curve $-1 -65.150914029358802 -2.8514704480125772 39.501708435859335 0 0 1 I I #
straight-curve $-1 -65.150914029358802 -2.8514704480125772 2.4139254597738642 -0.5877852410284794 0 -0.80901700255871778 I I #
edge $-1 $717 -3.6834661257804697 $411 2.8514704480125772 $576 $724 forward 7 unknown #
point $-1 -65.150914029358802 -2.8514704480125772 7.2924564791018609 #
point $-1 -61.606453873402444 -2.8514704480125772 7.2924564791018609 #
edge $-1 $725 1 $725 0 $414 $-1 forward 7 unknown #
vertex $-1 $415 $726 #
ellipse-curve $-1 -62.514830474238231 -0.9843457126431403 4.2255646987049751 -0.80901700255871778 0 0.5877852410284794 0.2938926205142397 0 0.40450850127935889 1 I I #
point $-1 -63.084791330866373 -0.9843457126431403 5.2576994707172187 #
edge $-1 $727 1 $727 0 $418 $-1 forward 7 unknown #
vertex $-1 $419 $728 #
ellipse-curve $-1 -62.514830474238231 1.8163413904110257 4.2255646987049751 -0.80901700255871778 0 0.5877852410284794 0.2938926205142397 0 0.40450850127935889 1 I I #
point $-1 -63.084791330866373 1.8163413904110257 5.2576994707172187 #
loop $-1 $-1 $430 $422 #
plane-surface $-1 -65.150914029358802 0 0 1 0 0 0 0 -1 forward_v I I I I #
coedge $-1 $595 $425 $427 $599 reversed $275 $-1 #
coedge $-1 $425 $594 $729 $730 reversed $275 $-1 #
coedge $-1 $433 $428 $425 $597 forward $423 $-1 #
edge $-1 $600 -23.677200323269531 $731 -20.132740167313173 $596 $732 forward 7 unknown #
coedge $-1 $427 $426 $603 $733 reversed $173 $-1 #
edge $-1 $734 0 $600 6.0301959092311108 $594 $735 forward 7 unknown #
vertex $-1 $429 $736 #
straight-curve $-1 -61.606453873402444 8.1708960490941536 7.2924564791018618 0 1 0 I I #
coedge $-1 $729 $430 $433 $607 reversed $592 $-1 #
coedge $-1 $430 $729 $598 $733 forward $592 $-1 #
vertex $-1 $431 $737 #
straight-curve $-1 -65.150914029358802 13.074323811291784 39.501708435859335 0 0 1 I I #
straight-curve $-1 -65.150914029358802 13.074323811291784 2.4139254597738642 -0.5877852410284794 0 -0.80901700255871778 I I #
edge $-1 $731 -19.609260385084831 $434 -13.074323811291784 $602 $738 forward 7 unknown #
point $-1 -65.150914029358802 13.074323811291784 7.2924564791018609 #
point $-1 -61.606453873402444 13.074323811291784 7.2924564791018609 #
edge $-1 $739 1 $739 0 $437 $-1 forward 7 unknown #
vertex $-1 $438 $740 #
ellipse-curve $-1 -62.514830474238231 14.941448546661221 4.2255646987049751 -0.80901700255871778 0 0.5877852410284794 0.2938926205142397 0 0.40450850127935889 1 I I #
point $-1 -63.084791330866373 14.941448546661221 5.2576994707172187 #
edge $-1 $741 1 $741 0 $441 $-1 forward 7 unknown #
vertex $-1 $442 $742 #
ellipse-curve $-1 -62.514830474238231 17.742135649715387 4.2255646987049751 -0.80901700255871778 0 0.5877852410284794 0.2938926205142397 0 0.40450850127935889 1 I I #
point $-1 -63.084791330866373 17.742135649715387 5.2576994707172187 #
loop $-1 $-1 $452 $445 #
plane-surface $-1 -65.150914029358802 0 0 1 0 0 0 0 -1 forward_v I I I I #
coedge $-1 $743 $744 $449 $622 forward $446 $-1 #
coedge $-1 $449 $448 $627 $745 reversed $187 $-1 #
edge $-1 $624 12.140723573821877 $746 18.170919483052991 $620 $747 forward 7 unknown #
coedge $-1 $455 $450 $744 $748 forward $297 $-1 #
vertex $-1 $748 $749 #
straight-curve $-1 -61.606453873402444 16.13379317874633 7.2924564791018618 0 1 0 I I #
coedge $-1 $750 $452 $455 $631 reversed $618 $-1 #
coedge $-1 $452 $750 $621 $745 forward $618 $-1 #
vertex $-1 $453 $751 #
straight-curve $-1 -65.150914029358802 29.000118070596137 39.501708435859335 0 0 1 I I #
straight-curve $-1 -65.150914029358802 29.000118070596137 2.4139254597738642 -0.5877852410284794 0 -0.80901700255871778 I I #
edge $-1 $752 -35.535054644389191 $456 -29.000118070596137 $626 $753 forward 7 unknown #
point $-1 -65.150914029358802 29.000118070596137 7.2924564791018609 #
point $-1 -61.606453873402444 29.000118070596137 7.2924564791018609 #
edge $-1 $754 1 $754 0 $459 $-1 forward 7 unknown #
vertex $-1 $460 $755 #
ellipse-curve $-1 -62.514830474238231 30.867242805965574 4.2255646987049751 -0.80901700255871778 0 0.5877852410284794 0.2938926205142397 0 0.40450850127935889 1 I I #
point $-1 -63.084791330866373 30.867242805965574 5.2576994707172187 #
edge $-1 $756 1 $756 0 $463 $-1 forward 7 unknown #
vertex $-1 $464 $757 #
ellipse-curve $-1 -62.514830474238231 33.667929909019747 4.2255646987049751 -0.80901700255871778 0 0.5877852410284794 0.2938926205142397 0 0.40450850127935889 1 I I #
point $-1 -63.084791330866373 33.667929909019747 5.2576994707172187 #
plane-surface $-1 0 0 7.2924564791018609 0 0 1 1 0 0 forward_v I I I I #
coedge $-1 $653 $652 $645 $758 forward $468 $-1 #
coedge $-1 $645 $470 $472 $649 reversed $319 $-1 #
coedge $-1 $470 $644 $643 $758 reversed $319 $-1 #
coedge $-1 $478 $473 $470 $647 forward $479 $-1 #
edge $-1 $650 22.311644582205545 $759 27.753361849203898 $646 $760 forward 7 unknown #
coedge $-1 $472 $471 $653 $761 reversed $201 $-1 #
edge $-1 $762 -130.3018280587176 $650 -122.16930910041376 $644 $763 forward 7 unknown #
vertex $-1 $474 $764 #
straight-curve $-1 59.709196762360435 9.9215591292857681 7.2924564791018653 0 -1 0 I I #
coedge $-1 $643 $475 $478 $657 reversed $468 $-1 #
coedge $-1 $475 $643 $648 $761 forward $468 $-1 #
vertex $-1 $476 $765 #
straight-curve $-1 65.150914029358802 25.339648526172265 92.635443700558028 0 0 1 I I #
straight-curve $-1 -22.038025990826455 25.339648526172265 98.081947380930814 0.66913059716165679 0 -0.74314483375859142 I I #
edge $-1 $759 14.346587990970807 $480 25.339648526172265 $652 $766 forward 7 unknown #
point $-1 65.150914029358802 25.339648526172265 7.2924564791018609 #
point $-1 59.709196762360449 25.339648526172265 7.2924564791018582 #
edge $-1 $767 1 $767 0 $483 $-1 forward 7 unknown #
vertex $-1 $484 $768 #
ellipse-curve $-1 60.068874676153605 17.487462429599795 2.1446201380200862 0.74314483375859142 0 0.66913059716165679 0.66913059716165679 0 -0.74314483375859142 1 I I #
point $-1 63.099185993021273 17.487462429599795 3.5274919206896111 #
edge $-1 $769 1 $769 0 $487 $-1 forward 7 unknown #
vertex $-1 $488 $770 #
ellipse-curve $-1 60.068874676153605 22.198774087543278 2.1446201380200862 0.74314483375859142 0 0.66913059716165679 0.66913059716165679 0 -0.74314483375859142 1 I I #
point $-1 63.099185993021273 22.198774087543278 3.5274919206896111 #
plane-surface $-1 65.150914029358802 0 0 -1 0 0 0 0 1 forward_v I I I I #
coedge $-1 $496 $494 $498 $673 reversed $341 $-1 #
edge $-1 $509 -7.2924564791018609 $675 7.2924564791018609 $508 $771 forward 7 unknown #
vertex $-1 $673 $772 #
straight-curve $-1 -65.150914029358802 -35.535054644389191 0 0 0 -1 I I #
edge $-1 $671 -35.535054644389191 $675 35.535054644389191 $669 $773 forward 7 unknown #
straight-curve $-1 0 -35.535054644389191 -7.2924564791018609 -1 0 0 I I #
vertex $-1 $501 $774 #
straight-curve $-1 0 35.535054644389191 -7.2924564791018609 1 0 0 I I #
point $-1 65.150914029358802 35.535054644389191 -7.2924564791018609 #
point $-1 65.150914029358802 -35.535054644389191 -7.2924564791018609 #
straight-curve $-1 -65.150914029358802 0 7.2924564791018609 0 -1 0 I I #
point $-1 -65.150914029358802 35.535054644389191 7.2924564791018609 #
point $-1 -65.150914029358802 -35.535054644389191 7.2924564791018609 #
straight-curve $-1 65.150914029358802 -35.535054644389191 0 0 0 -1 I I #
straight-curve $-1 65.150914029358802 35.535054644389191 0 0 0 -1 I I #
plane-surface $-1 65.150914029358802 0 0 -1 0 0 0 0 1 forward_v I I I I #
coedge $-1 $522 $521 $532 $696 reversed $223 $-1 #
coedge $-1 $775 $525 $522 $687 forward $519 $-1 #
edge $-1 $688 28.168122392828252 $776 35.535054644389191 $522 $777 forward 7 unknown #
vertex $-1 $687 $778 #
straight-curve $-1 -65.150914029358802 -28.168122392828252 2.8962282395509305 0 0 -1 I I #
coedge $-1 $525 $775 $527 $692 forward $519 $-1 #
straight-curve $-1 0 -28.168122392828252 7.2924564791018609 -1 0 0 I I #
edge $-1 $699 -35.535054644389191 $528 -28.168122392828252 $527 $779 forward 7 unknown #
point $-1 65.150914029358802 -28.168122392828252 7.2924564791018609 #
straight-curve $-1 -65.150914029358802 -15.925794259304361 4.2924564791018609 0 -1 0 I I #
coedge $-1 $532 $531 $775 $780 reversed $360 $-1 #
edge $-1 $776 -7.2924564791018609 $533 -4.2924564791018609 $685 $781 forward 7 unknown #
point $-1 -65.150914029358802 -35.535054644389191 4.2924564791018609 #
point $-1 -65.150914029358802 -28.168122392828252 4.2924564791018609 #
vertex $-1 $692 $782 #
straight-curve $-1 65.150914029358802 -35.535054644389191 0 0 0 -1 I I #
coedge $-1 $551 $550 $543 $702 forward $540 $-1 #
edge $-1 $703 32.209251956757477 $706 37.087782976085471 $701 $783 forward 7 unknown #
vertex $-1 $555 $784 #
straight-curve $-1 -85.283654196671975 -12.242328133523891 7.2924564791018582 -1 0 0 I I #
edge $-1 $706 4.4874299233136838 $552 11.022366497106731 $551 $785 forward 7 unknown #
vertex $-1 $705 $786 #
straight-curve $-1 -65.150914029358802 -12.242328133523891 2.4139254597738642 0.5877852410284794 0 0.80901700255871778 I I #
point $-1 -61.606453873402444 -12.242328133523891 7.2924564791018609 #
point $-1 -65.150914029358802 -18.777264707316938 2.4139254597738642 #
straight-curve $-1 -65.150914029358802 0 7.2924564791018609 0 -1 0 I I #
vertex $-1 $558 $787 #
point $-1 -62.220937853723996 -16.910139971947498 4.6300731999843334 #
vertex $-1 $562 $788 #
point $-1 -62.220937853723996 -14.109452868893335 4.6300731999843334 #
coedge $-1 $577 $576 $569 $716 forward $566 $-1 #
edge $-1 $717 32.209251956757477 $720 37.087782976085471 $715 $789 forward 7 unknown #
vertex $-1 $581 $790 #
straight-curve $-1 -85.283654196671975 3.6834661257804697 7.2924564791018582 -1 0 0 I I #
edge $-1 $720 -3.4754672063384966 $578 3.0594693674545503 $577 $791 forward 7 unknown #
vertex $-1 $719 $792 #
straight-curve $-1 -65.150914029358802 3.6834661257804697 2.4139254597738642 0.5877852410284794 0 0.80901700255871778 I I #
point $-1 -61.606453873402444 3.6834661257804697 7.2924564791018609 #
point $-1 -65.150914029358802 -2.8514704480125772 2.4139254597738642 #
straight-curve $-1 -65.150914029358802 0 7.2924564791018609 0 -1 0 I I #
vertex $-1 $584 $793 #
point $-1 -62.220937853723996 -0.9843457126431403 4.6300731999843334 #
vertex $-1 $588 $794 #
point $-1 -62.220937853723996 1.8163413904110257 4.6300731999843334 #
coedge $-1 $603 $602 $595 $730 forward $592 $-1 #
edge $-1 $731 32.209251956757477 $734 37.087782976085471 $729 $795 forward 7 unknown #
vertex $-1 $607 $796 #
straight-curve $-1 -85.283654196671975 19.609260385084831 7.2924564791018582 -1 0 0 I I #
edge $-1 $734 -11.438364335990677 $604 -4.9034277621976301 $603 $797 forward 7 unknown #
vertex $-1 $733 $798 #
straight-curve $-1 -65.150914029358802 19.609260385084831 2.4139254597738642 0.5877852410284794 0 0.80901700255871778 I I #
point $-1 -61.606453873402444 19.609260385084831 7.2924564791018609 #
point $-1 -65.150914029358802 13.074323811291784 2.4139254597738642 #
straight-curve $-1 -65.150914029358802 0 7.2924564791018609 0 -1 0 I I #
vertex $-1 $610 $799 #
point $-1 -62.220937853723996 14.941448546661221 4.6300731999843334 #
vertex $-1 $614 $800 #
point $-1 -62.220937853723996 17.742135649715387 4.6300731999843334 #
coedge $-1 $744 $620 $750 $801 reversed $446 $-1 #
coedge $-1 $620 $743 $623 $748 reversed $446 $-1 #
edge $-1 $746 -19.401261465642854 $628 -12.866324891849807 $627 $802 forward 7 unknown #
vertex $-1 $622 $803 #
straight-curve $-1 -54.470315741303409 35.535054644389191 17.1145082736892 -0.5877852410284794 0 -0.80901700255871778 I I #
edge $-1 $624 61.606453873402444 $752 65.150914029358802 $744 $804 forward 7 unknown #
point $-1 -61.606453873402444 35.535054644389184 7.2924564791018609 #
coedge $-1 $627 $626 $743 $801 forward $618 $-1 #
point $-1 -65.150914029358802 29.000118070596137 2.4139254597738642 #
vertex $-1 $748 $805 #
straight-curve $-1 -65.150914029358802 0 7.2924564791018609 0 -1 0 I I #
vertex $-1 $634 $806 #
point $-1 -62.220937853723996 30.867242805965574 4.6300731999843334 #
vertex $-1 $638 $807 #
point $-1 -62.220937853723996 33.667929909019747 4.6300731999843334 #
edge $-1 $759 85.34298722145617 $762 91.386626670763491 $643 $808 forward 7 unknown #
vertex $-1 $657 $809 #
straight-curve $-1 37.397552180154904 14.346587990970807 7.2924564791018582 1 0 0 I I #
edge $-1 $762 4.4250288616850391 $654 15.418089396886497 $653 $810 forward 7 unknown #
vertex $-1 $761 $811 #
straight-curve $-1 -22.038025990826455 14.346587990970807 98.081947380930814 -0.66913059716165679 0 0.74314483375859142 I I #
point $-1 59.709196762360449 14.346587990970807 7.2924564791018582 #
point $-1 65.150914029358802 25.339648526172265 1.2488170297945373 #
straight-curve $-1 65.150914029358802 0 7.2924564791018609 0 1 0 I I #
vertex $-1 $660 $812 #
point $-1 60.73800527331526 17.487462429599795 1.4014753042614947 #
vertex $-1 $664 $813 #
point $-1 60.73800527331526 22.198774087543278 1.4014753042614947 #
straight-curve $-1 -65.150914029358802 35.535054644389191 0 0 0 -1 I I #
point $-1 -65.150914029358802 -35.535054644389191 -7.2924564791018609 #
straight-curve $-1 -65.150914029358802 0 -7.2924564791018609 0 1 0 I I #
point $-1 -65.150914029358802 35.535054644389191 -7.2924564791018609 #
coedge $-1 $690 $686 $695 $780 forward $519 $-1 #
vertex $-1 $687 $814 #
straight-curve $-1 -65.150914029358802 0 7.2924564791018609 0 -1 0 I I #
point $-1 -65.150914029358802 -28.168122392828252 7.2924564791018609 #
straight-curve $-1 65.150914029358802 0 7.2924564791018609 0 1 0 I I #
edge $-1 $776 -65.150914029358802 $699 65.150914029358802 $695 $815 forward 7 unknown #
straight-curve $-1 -65.150914029358802 -35.535054644389191 0 0 0 -1 I I #
point $-1 65.150914029358802 -35.535054644389191 7.2924564791018609 #
straight-curve $-1 -65.150914029358802 -12.242328133523891 39.501708435859335 0 0 -1 I I #
point $-1 -65.150914029358802 -12.242328133523891 7.2924564791018609 #
straight-curve $-1 -65.150914029358802 -7.7548982102102073 2.4139254597738629 0 -1 0 I I #
point $-1 -65.150914029358802 -12.242328133523891 2.4139254597738642 #
point $-1 -62.110321972958879 -16.910139971947498 3.9316720781907351 #
point $-1 -62.110321972958879 -14.109452868893335 3.9316720781907351 #
straight-curve $-1 -65.150914029358802 3.6834661257804697 39.501708435859335 0 0 -1 I I #
point $-1 -65.150914029358802 3.6834661257804697 7.2924564791018609 #
straight-curve $-1 -65.150914029358802 0.20799891944197313 2.4139254597738629 0 -1 0 I I #
point $-1 -65.150914029358802 3.6834661257804697 2.4139254597738642 #
point $-1 -62.110321972958879 -0.9843457126431403 3.9316720781907351 #
point $-1 -62.110321972958879 1.8163413904110257 3.9316720781907351 #
straight-curve $-1 -65.150914029358802 19.609260385084831 39.501708435859335 0 0 -1 I I #
point $-1 -65.150914029358802 19.609260385084831 7.2924564791018609 #
straight-curve $-1 -65.150914029358802 8.1708960490941536 2.4139254597738629 0 -1 0 I I #
point $-1 -65.150914029358802 19.609260385084831 2.4139254597738642 #
point $-1 -62.110321972958879 14.941448546661221 3.9316720781907351 #
point $-1 -62.110321972958879 17.742135649715387 3.9316720781907351 #
edge $-1 $752 -7.2924564791018609 $746 -2.4139254597738642 $743 $816 forward 7 unknown #
straight-curve $-1 -65.150914029358802 16.13379317874633 2.4139254597738629 0 -1 0 I I #
point $-1 -65.150914029358802 35.535054644389184 2.4139254597738642 #
straight-curve $-1 0 35.535054644389191 7.2924564791018609 -1 0 0 I I #
point $-1 -65.150914029358802 35.535054644389191 7.2924564791018609 #
point $-1 -62.110321972958879 30.867242805965574 3.9316720781907351 #
point $-1 -62.110321972958879 33.667929909019747 3.9316720781907351 #
straight-curve $-1 65.150914029358802 14.346587990970807 92.635443700558028 0 0 -1 I I #
point $-1 65.150914029358802 14.346587990970807 7.2924564791018609 #
straight-curve $-1 65.150914029358802 9.9215591292857681 1.2488170297945373 0 1 0 I I #
point $-1 65.150914029358802 14.346587990970807 1.2488170297945373 #
point $-1 59.325729842395013 17.487462429599795 1.4754895408584292 #
point $-1 59.325729842395013 22.198774087543278 1.4754895408584292 #
point $-1 -65.150914029358802 -35.535054644389191 7.2924564791018609 #
straight-curve $-1 0 -35.535054644389191 7.2924564791018609 1 0 0 I I #
straight-curve $-1 -65.150914029358802 35.535054644389191 0 0 0 -1 I I #
End-of-ACIS-data 