500 0 7 0           
7 Unknown 11 ACIS 5.0 NT 24 Thu Mar 25 21:05:28 1999 
-1 9.9999999999999995e-007 1e-010 
body $-1 $7 $-1 $8 #
body $-1 $9 $-1 $10 #
body $-1 $11 $-1 $12 #
body $-1 $13 $-1 $14 #
body $-1 $15 $-1 $16 #
body $-1 $17 $-1 $18 #
body $-1 $19 $-1 $20 #
lump $-1 $-1 $21 $0 #
transform $-1 1 0 0 0 1 0 0 0 1 67.49595629749443 29.131590085808444 7.1022864638047221 1 rotate no_reflect no_shear #
lump $-1 $-1 $22 $1 #
transform $-1 1 0 0 0 1 0 0 0 1 67.49595629749443 29.131590085808444 7.1022864638047221 1 rotate no_reflect no_shear #
lump $-1 $-1 $23 $2 #
transform $-1 1 0 0 0 1 0 0 0 1 67.49595629749443 29.131590085808444 7.1022864638047221 1 rotate no_reflect no_shear #
lump $-1 $-1 $24 $3 #
transform $-1 1 0 0 0 1 0 0 0 1 67.49595629749443 29.131590085808444 7.1022864638047221 1 rotate no_reflect no_shear #
lump $-1 $-1 $25 $4 #
transform $-1 1 0 0 0 1 0 0 0 1 67.49595629749443 29.131590085808444 7.1022864638047221 1 rotate no_reflect no_shear #
lump $-1 $-1 $26 $5 #
transform $-1 1 0 0 0 1 0 0 0 1 67.49595629749443 29.131590085808444 7.1022864638047221 1 rotate no_reflect no_shear #
lump $-1 $-1 $27 $6 #
transform $-1 1 0 0 0 1 0 0 0 1 67.49595629749443 29.131590085808444 7.1022864638047221 1 rotate no_reflect no_shear #
shell $-1 $-1 $-1 $28 $-1 $7 #
shell $-1 $-1 $-1 $29 $-1 $9 #
shell $-1 $-1 $-1 $30 $-1 $11 #
shell $-1 $-1 $-1 $31 $-1 $13 #
shell $-1 $-1 $-1 $32 $-1 $15 #
shell $-1 $-1 $-1 $33 $-1 $17 #
shell $-1 $-1 $-1 $34 $-1 $19 #
face $-1 $35 $36 $21 $-1 $37 forward single #
face $-1 $38 $39 $22 $-1 $40 forward single #
face $-1 $41 $42 $23 $-1 $43 forward single #
face $-1 $44 $45 $24 $-1 $46 reversed single #
face $-1 $47 $48 $25 $-1 $49 forward single #
face $-1 $50 $51 $26 $-1 $52 reversed single #
face $-1 $53 $54 $27 $-1 $55 forward single #
face $-1 $56 $57 $21 $-1 $58 reversed single #
loop $-1 $-1 $59 $28 #
plane-surface $-1 0 0 7.1022864638047221 0 0 1 1 0 0 forward_v I I I I #
face $-1 $60 $61 $22 $-1 $62 reversed single #
loop $-1 $-1 $63 $29 #
plane-surface $-1 -64.484202753720595 0 4.5241301944145622 0 0 1 1 0 0 forward_v I I I I #
face $-1 $64 $65 $23 $-1 $66 reversed single #
loop $-1 $-1 $67 $30 #
plane-surface $-1 64.484202753720595 0 4.5241301944145622 0 0 1 1 0 0 forward_v I I I I #
face $-1 $68 $69 $24 $-1 $70 reversed single #
loop $-1 $-1 $71 $31 #
plane-surface $-1 -45.311050212052308 78.58486214578879 138.91556126076529 -1 0 0 0 0.68199836817093118 0.7313536940579346 forward_v I I I I #
face $-1 $72 $73 $25 $-1 $74 forward single #
loop $-1 $75 $76 $32 #
cone-surface $-1 -53.391749710999534 24.392749333426092 2.5190890586409966 0 -0.68199836817093118 -0.7313536940579346 1.5 0 0 1 I I 0 1 1.5 forward I I I I #
face $-1 $77 $78 $26 $-1 $79 reversed single #
loop $-1 $-1 $80 $33 #
plane-surface $-1 -38.391436525539426 -142.34533517040569 74.210189131131628 -1 0 0 0 -0.83867057594974714 0.54463902268945019 forward_v I I I I #
face $-1 $81 $82 $27 $-1 $83 forward single #
loop $-1 $84 $85 $34 #
cone-surface $-1 -49.931942867743089 -26.289882568144069 3.4023601877755909 0 0.83867057594974714 -0.54463902268945019 1 0 0 1 I I 0 1 1 forward I I I I #
face $-1 $86 $87 $21 $-1 $88 reversed single #
loop $-1 $-1 $89 $35 #
plane-surface $-1 0 0 -7.1022864638047221 0 0 1 1 0 0 forward_v I I I I #
coedge $-1 $90 $91 $92 $93 forward $36 $-1 #
face $-1 $94 $95 $22 $-1 $96 reversed single #
loop $-1 $-1 $97 $38 #
plane-surface $-1 -64.484202753720595 0 1.063350536435971 0 0 1 1 0 0 forward_v I I I I #
coedge $-1 $98 $99 $100 $101 forward $39 $-1 #
face $-1 $102 $103 $23 $-1 $104 reversed single #
loop $-1 $-1 $105 $41 #
plane-surface $-1 64.484202753720595 0 1.063350536435971 0 0 1 1 0 0 forward_v I I I I #
coedge $-1 $106 $107 $108 $109 reversed $42 $-1 #
face $-1 $110 $111 $24 $-1 $112 forward single #
loop $-1 $-1 $113 $44 #
plane-surface $-1 -53.391749710999534 -13.479401960266586 40.188727316474356 0 0.68199836817093118 0.7313536940579346 1 0 0 forward_v I I I I #
coedge $-1 $114 $115 $116 $117 reversed $45 $-1 #
face $-1 $-1 $118 $25 $-1 $119 forward single #
loop $-1 $120 $121 $47 #
cone-surface $-1 -53.391749710999534 22.707474274043168 0.71185285734484616 0 -0.68199836817093118 -0.7313536940579346 0.75 0 0 1 I I -0.70710678118654757 0.70710678118654757 0.75 forward I I I I #
loop $-1 $-1 $122 $32 #
coedge $-1 $76 $76 $123 $124 reversed $48 $-1 #
face $-1 $125 $126 $26 $-1 $127 forward single #
loop $-1 $-1 $128 $50 #
plane-surface $-1 -49.931942867743089 -29.131590085808455 0.68832578441721637 0 -0.83867057594974714 0.54463902268945019 1 0 0 forward_v I I I I #
coedge $-1 $129 $130 $131 $132 reversed $51 $-1 #
face $-1 $-1 $133 $27 $-1 $134 forward single #
loop $-1 $135 $136 $53 #
cone-surface $-1 -49.931942867743089 -25.111477079328665 2.6370947400954972 0 0.83867057594974714 -0.54463902268945019 0.5 0 0 1 I I -0.70710678118654746 0.70710678118654746 0.5 forward I I I I #
loop $-1 $-1 $137 $34 #
coedge $-1 $85 $85 $138 $139 reversed $54 $-1 #
face $-1 $140 $141 $21 $-1 $142 reversed single #
loop $-1 $-1 $143 $56 #
plane-surface $-1 0 -29.131590085808444 0 0 1 0 0 0 1 forward_v I I I I #
coedge $-1 $144 $145 $146 $147 forward $57 $-1 #
coedge $-1 $148 $59 $149 $150 forward $36 $-1 #
coedge $-1 $59 $148 $151 $152 forward $36 $-1 #
coedge $-1 $153 $154 $59 $93 reversed $155 $-1 #
edge $-1 $156 -29.131590085808444 $157 29.131590085808444 $92 $158 forward 7 unknown #
face $-1 $159 $160 $22 $-1 $161 reversed single #
loop $-1 $-1 $162 $60 #
plane-surface $-1 -61.47244920994676 0 2.7937403654252666 -1 0 0 0 0 1 forward_v I I I I #
coedge $-1 $163 $164 $165 $166 forward $61 $-1 #
coedge $-1 $167 $63 $168 $169 reversed $39 $-1 #
coedge $-1 $63 $167 $170 $171 reversed $39 $-1 #
coedge $-1 $162 $172 $63 $101 reversed $95 $-1 #
edge $-1 $173 -29.131590085808444 $174 29.131590085808444 $100 $175 forward 7 unknown #
face $-1 $176 $177 $23 $-1 $178 reversed single #
loop $-1 $-1 $179 $64 #
plane-surface $-1 61.47244920994676 0 2.7937403654252666 1 0 0 0 0 -1 forward_v I I I I #
coedge $-1 $180 $181 $182 $183 reversed $65 $-1 #
coedge $-1 $184 $67 $185 $186 reversed $42 $-1 #
coedge $-1 $67 $184 $187 $188 reversed $42 $-1 #
coedge $-1 $189 $190 $67 $109 forward $191 $-1 #
edge $-1 $192 -29.131590085808444 $193 29.131590085808444 $108 $194 forward 7 unknown #
face $-1 $195 $196 $24 $-1 $197 reversed single #
loop $-1 $-1 $198 $68 #
plane-surface $-1 0 0 7.1022864638047221 0 0 1 1 0 0 forward_v I I I I #
coedge $-1 $199 $200 $201 $202 reversed $69 $-1 #
coedge $-1 $115 $71 $203 $204 reversed $45 $-1 #
coedge $-1 $71 $114 $199 $205 reversed $45 $-1 #
coedge $-1 $201 $206 $71 $117 forward $196 $-1 #
edge $-1 $207 62.35549416657792 $208 69.004447115399955 $116 $209 forward 7 unknown #
loop $-1 $-1 $123 $72 #
plane-surface $-1 -53.391749710999534 -13.479401960266586 40.188727316474356 0 0.68199836817093118 0.7313536940579346 1 0 0 forward_v I I I I #
loop $-1 $-1 $210 $47 #
coedge $-1 $121 $121 $122 $211 reversed $73 $-1 #
coedge $-1 $122 $122 $121 $211 forward $75 $-1 #
coedge $-1 $123 $123 $76 $124 forward $118 $-1 #
edge $-1 $212 8.9266349386659439e-016 $212 6.2831853071796013 $123 $213 forward 7 unknown #
face $-1 $214 $215 $26 $-1 $216 forward single #
loop $-1 $-1 $131 $77 #
plane-surface $-1 0 0 7.1022864638047221 0 0 1 1 0 0 forward_v I I I I #
coedge $-1 $217 $218 $219 $220 reversed $78 $-1 #
coedge $-1 $130 $80 $221 $222 reversed $51 $-1 #
coedge $-1 $80 $129 $217 $223 reversed $51 $-1 #
coedge $-1 $219 $224 $80 $132 forward $126 $-1 #
edge $-1 $225 42.041077499394405 $226 46.206352133042074 $131 $227 forward 7 unknown #
loop $-1 $-1 $138 $81 #
plane-surface $-1 -49.931942867743089 -29.131590085808455 0.68832578441721637 0 -0.83867057594974714 0.54463902268945019 1 0 0 forward_v I I I I #
loop $-1 $-1 $228 $53 #
coedge $-1 $136 $136 $137 $229 reversed $82 $-1 #
coedge $-1 $137 $137 $136 $229 forward $84 $-1 #
coedge $-1 $138 $138 $85 $139 forward $133 $-1 #
edge $-1 $230 -4.5399415108705994e-016 $230 6.2831853071795996 $138 $231 forward 7 unknown #
face $-1 $232 $233 $21 $-1 $234 reversed single #
loop $-1 $-1 $235 $86 #
plane-surface $-1 -67.49595629749443 0 0 1 0 0 0 0 -1 forward_v I I I I #
coedge $-1 $236 $151 $237 $238 forward $87 $-1 #
coedge $-1 $239 $89 $236 $240 forward $57 $-1 #
coedge $-1 $89 $239 $241 $242 forward $57 $-1 #
coedge $-1 $154 $153 $89 $147 reversed $155 $-1 #
edge $-1 $243 -29.131590085808444 $244 29.131590085808444 $146 $245 forward 7 unknown #
coedge $-1 $91 $90 $246 $247 forward $36 $-1 #
coedge $-1 $248 $249 $90 $150 reversed $233 $-1 #
edge $-1 $157 -67.49595629749443 $250 67.49595629749443 $149 $251 forward 7 unknown #
coedge $-1 $143 $252 $91 $152 reversed $87 $-1 #
edge $-1 $253 -67.49595629749443 $156 67.49595629749443 $151 $254 forward 7 unknown #
coedge $-1 $146 $92 $252 $255 forward $155 $-1 #
coedge $-1 $92 $146 $248 $256 reversed $155 $-1 #
loop $-1 $-1 $153 $232 #
vertex $-1 $93 $257 #
vertex $-1 $93 $258 #
straight-curve $-1 67.49595629749443 0 7.1022864638047221 0 1 0 I I #
face $-1 $259 $260 $22 $-1 $261 reversed single #
loop $-1 $-1 $262 $94 #
plane-surface $-1 0 -29.131590085808444 0 0 1 0 0 0 1 forward_v I I I I #
coedge $-1 $165 $100 $263 $264 reversed $95 $-1 #
coedge $-1 $265 $97 $262 $266 reversed $61 $-1 #
coedge $-1 $97 $265 $267 $268 reversed $61 $-1 #
coedge $-1 $172 $162 $97 $166 reversed $95 $-1 #
edge $-1 $269 -29.131590085808444 $270 29.131590085808444 $165 $271 forward 7 unknown #
coedge $-1 $99 $98 $272 $273 reversed $39 $-1 #
coedge $-1 $274 $275 $98 $169 forward $276 $-1 #
edge $-1 $277 -35.253854920634133 $174 -29.230347833086462 $168 $278 forward 7 unknown #
coedge $-1 $279 $263 $99 $171 forward $160 $-1 #
edge $-1 $173 29.230347833086462 $280 35.253854920634133 $170 $281 forward 7 unknown #
coedge $-1 $100 $165 $274 $282 reversed $95 $-1 #
vertex $-1 $171 $283 #
vertex $-1 $169 $284 #
straight-curve $-1 -61.47244920994676 0 4.5241301944145622 0 1 0 I I #
face $-1 $285 $286 $23 $-1 $287 reversed single #
loop $-1 $-1 $187 $102 #
plane-surface $-1 0 -29.131590085808444 0 0 1 0 0 0 1 forward_v I I I I #
coedge $-1 $288 $289 $290 $291 reversed $103 $-1 #
coedge $-1 $292 $105 $293 $294 reversed $65 $-1 #
coedge $-1 $105 $292 $295 $296 reversed $65 $-1 #
coedge $-1 $190 $189 $105 $183 forward $191 $-1 #
edge $-1 $297 -29.131590085808444 $298 29.131590085808444 $182 $299 forward 7 unknown #
coedge $-1 $107 $106 $289 $300 forward $42 $-1 #
coedge $-1 $301 $290 $106 $186 forward $286 $-1 #
edge $-1 $302 29.230347833086462 $192 35.253854920634133 $185 $303 forward 7 unknown #
coedge $-1 $304 $305 $107 $188 forward $177 $-1 #
edge $-1 $193 -35.253854920634133 $306 -29.230347833086462 $187 $307 forward 7 unknown #
coedge $-1 $182 $108 $305 $308 forward $191 $-1 #
coedge $-1 $108 $182 $301 $309 reversed $191 $-1 #
loop $-1 $-1 $108 $285 #
vertex $-1 $309 $310 #
vertex $-1 $308 $311 #
straight-curve $-1 67.49595629749443 0 4.5241301944145622 0 -1 0 I I #
face $-1 $-1 $312 $24 $-1 $313 forward single #
loop $-1 $-1 $314 $110 #
plane-surface $-1 0 29.131590085808444 0 0 -1 0 0 0 -1 forward_v I I I I #
coedge $-1 $315 $316 $317 $318 forward $111 $-1 #
coedge $-1 $319 $113 $115 $205 forward $69 $-1 #
coedge $-1 $113 $319 $320 $321 forward $69 $-1 #
coedge $-1 $314 $116 $113 $202 forward $196 $-1 #
edge $-1 $208 18.615175356552541 $322 34.776574354446993 $201 $323 forward 7 unknown #
coedge $-1 $316 $315 $114 $204 forward $111 $-1 #
edge $-1 $324 -17.290969925341187 $207 -10.160840987085951 $203 $325 forward 7 unknown #
edge $-1 $208 -58.263180171616895 $324 -48.51395897237262 $115 $326 forward 7 unknown #
coedge $-1 $116 $314 $316 $327 reversed $196 $-1 #
vertex $-1 $327 $328 #
vertex $-1 $117 $329 #
straight-curve $-1 -45.311050212052308 29.131590085808444 69.457780630382643 0 0 -1 I I #
coedge $-1 $210 $210 $-1 $330 reversed $120 $-1 #
edge $-1 $331 0 $331 6.2831853071796004 $121 $332 forward 7 unknown #
vertex $-1 $124 $333 #
ellipse-curve $-1 -53.391749710999534 25.566525616680824 3.7778099893937021 0 0.68199836817093118 0.7313536940579346 1.5 0 0 1 I I #
face $-1 $-1 $334 $26 $-1 $335 reversed single #
loop $-1 $-1 $336 $125 #
plane-surface $-1 -61.47244920994676 0 2.7937403654252666 -1 0 0 0 0 1 forward_v I I I I #
coedge $-1 $337 $128 $130 $223 forward $78 $-1 #
coedge $-1 $128 $337 $336 $338 forward $78 $-1 #
coedge $-1 $339 $131 $128 $220 forward $126 $-1 #
edge $-1 $226 13.425465091667881 $340 36.506477776075208 $219 $341 forward 7 unknown #
coedge $-1 $342 $343 $129 $222 forward $334 $-1 #
edge $-1 $344 -36.416768781148583 $225 -30.00280810176109 $221 $345 forward 7 unknown #
edge $-1 $226 -7.6477712028039821 $344 -1.9585287993478785e-014 $130 $346 forward 7 unknown #
coedge $-1 $131 $339 $342 $347 forward $126 $-1 #
vertex $-1 $222 $348 #
vertex $-1 $132 $349 #
straight-curve $-1 -38.391436525539426 -71.172667585202845 7.1022864638047238 0 1 0 I I #
coedge $-1 $228 $228 $-1 $350 reversed $135 $-1 #
edge $-1 $351 0 $351 6.2831853071796004 $136 $352 forward 7 unknown #
vertex $-1 $139 $353 #
ellipse-curve $-1 -49.931942867743089 -27.048952768984613 3.8953061241109692 0 -0.83867057594974714 0.54463902268945019 1 0 0 1 I I #
face $-1 $-1 $155 $21 $-1 $354 reversed single #
loop $-1 $-1 $248 $140 #
plane-surface $-1 0 29.131590085808444 0 0 -1 0 0 0 -1 forward_v I I I I #
coedge $-1 $355 $246 $249 $356 forward $141 $-1 #
coedge $-1 $252 $143 $144 $240 reversed $87 $-1 #
coedge $-1 $246 $355 $143 $238 reversed $141 $-1 #
edge $-1 $253 -7.1022864638047221 $357 7.1022864638047221 $237 $358 forward 7 unknown #
coedge $-1 $145 $144 $355 $359 forward $57 $-1 #
edge $-1 $244 -67.49595629749443 $357 67.49595629749443 $236 $360 forward 7 unknown #
coedge $-1 $249 $248 $145 $242 reversed $233 $-1 #
edge $-1 $361 -67.49595629749443 $243 67.49595629749443 $241 $362 forward 7 unknown #
vertex $-1 $147 $363 #
vertex $-1 $255 $364 #
straight-curve $-1 67.49595629749443 0 -7.1022864638047221 0 -1 0 I I #
coedge $-1 $235 $237 $148 $247 reversed $141 $-1 #
edge $-1 $250 -29.131590085808444 $253 29.131590085808444 $246 $365 forward 7 unknown #
coedge $-1 $241 $149 $154 $256 forward $233 $-1 #
coedge $-1 $149 $241 $235 $356 reversed $233 $-1 #
vertex $-1 $150 $366 #
straight-curve $-1 0 29.131590085808444 7.1022864638047221 -1 0 0 I I #
coedge $-1 $151 $236 $153 $255 reversed $87 $-1 #
vertex $-1 $247 $367 #
straight-curve $-1 0 -29.131590085808444 7.1022864638047221 1 0 0 I I #
edge $-1 $156 -7.1022864638047221 $244 7.1022864638047221 $153 $368 forward 7 unknown #
edge $-1 $157 -7.1022864638047221 $243 7.1022864638047221 $154 $369 forward 7 unknown #
point $-1 67.49595629749443 -29.131590085808444 7.1022864638047221 #
point $-1 67.49595629749443 29.131590085808444 7.1022864638047221 #
face $-1 $-1 $276 $22 $-1 $370 reversed single #
loop $-1 $-1 $371 $159 #
plane-surface $-1 -67.49595629749443 0 0 1 0 0 0 0 -1 forward_v I I I I #
coedge $-1 $263 $279 $163 $266 forward $160 $-1 #
coedge $-1 $170 $262 $162 $264 forward $160 $-1 #
edge $-1 $270 -0.33351964627666231 $173 3.1272600117019289 $263 $372 forward 7 unknown #
coedge $-1 $164 $163 $371 $373 reversed $61 $-1 #
edge $-1 $374 -35.253854920634133 $270 -29.230347833086462 $262 $375 forward 7 unknown #
coedge $-1 $275 $274 $164 $268 forward $276 $-1 #
edge $-1 $269 29.230347833086462 $376 35.253854920634133 $267 $377 forward 7 unknown #
vertex $-1 $268 $378 #
vertex $-1 $266 $379 #
straight-curve $-1 -61.47244920994676 0 1.063350536435971 0 -1 0 I I #
coedge $-1 $380 $381 $167 $273 forward $260 $-1 #
edge $-1 $280 -29.131590085808444 $277 29.131590085808444 $272 $382 forward 7 unknown #
coedge $-1 $267 $168 $172 $282 forward $276 $-1 #
coedge $-1 $168 $267 $380 $383 reversed $276 $-1 #
loop $-1 $-1 $267 $259 #
vertex $-1 $383 $384 #
straight-curve $-1 -32.242101376860298 29.131590085808444 4.5241301944145622 1 0 0 I I #
coedge $-1 $262 $170 $381 $385 forward $160 $-1 #
vertex $-1 $385 $386 #
straight-curve $-1 -32.242101376860298 -29.131590085808444 4.5241301944145622 -1 0 0 I I #
edge $-1 $174 -3.1272600117019289 $269 0.33351964627666231 $274 $387 forward 7 unknown #
point $-1 -61.47244920994676 -29.131590085808444 4.5241301944145622 #
point $-1 -61.47244920994676 29.131590085808444 4.5241301944145622 #
face $-1 $-1 $191 $23 $-1 $388 reversed single #
loop $-1 $-1 $185 $176 #
plane-surface $-1 0 29.131590085808444 0 0 -1 0 0 0 -1 forward_v I I I I #
coedge $-1 $389 $179 $292 $390 reversed $103 $-1 #
coedge $-1 $179 $389 $184 $300 reversed $103 $-1 #
coedge $-1 $185 $295 $179 $291 forward $286 $-1 #
edge $-1 $391 -0.33351964627666231 $302 3.1272600117019289 $290 $392 forward 7 unknown #
coedge $-1 $181 $180 $288 $390 forward $65 $-1 #
coedge $-1 $305 $304 $180 $294 forward $177 $-1 #
edge $-1 $393 29.230347833086462 $297 35.253854920634133 $293 $394 forward 7 unknown #
coedge $-1 $290 $301 $181 $296 forward $286 $-1 #
edge $-1 $298 -35.253854920634133 $391 -29.230347833086462 $295 $395 forward 7 unknown #
vertex $-1 $183 $396 #
vertex $-1 $183 $397 #
straight-curve $-1 67.49595629749443 0 1.063350536435971 0 1 0 I I #
edge $-1 $302 -29.131590085808444 $306 29.131590085808444 $289 $398 forward 7 unknown #
coedge $-1 $295 $185 $190 $309 forward $286 $-1 #
vertex $-1 $186 $399 #
straight-curve $-1 32.242101376860298 29.131590085808444 4.5241301944145622 1 0 0 I I #
coedge $-1 $293 $187 $389 $400 forward $177 $-1 #
coedge $-1 $187 $293 $189 $308 reversed $177 $-1 #
vertex $-1 $188 $401 #
straight-curve $-1 32.242101376860298 -29.131590085808444 4.5241301944145622 -1 0 0 I I #
edge $-1 $193 -4.5241301944145622 $297 -1.063350536435971 $189 $402 forward 7 unknown #
edge $-1 $192 -4.5241301944145622 $298 -1.063350536435971 $190 $403 forward 7 unknown #
point $-1 67.49595629749443 29.131590085808444 4.5241301944145622 #
point $-1 67.49595629749443 -29.131590085808444 4.5241301944145622 #
loop $-1 $-1 $320 $195 #
plane-surface $-1 -61.47244920994676 0 2.7937403654252666 -1 0 0 0 0 1 forward_v I I I I #
coedge $-1 $206 $201 $404 $405 forward $196 $-1 #
coedge $-1 $203 $198 $319 $406 forward $111 $-1 #
coedge $-1 $198 $203 $206 $327 forward $111 $-1 #
coedge $-1 $404 $320 $198 $318 reversed $312 $-1 #
edge $-1 $407 10.160840987085951 $408 17.290969925341187 $198 $409 forward 7 unknown #
coedge $-1 $200 $199 $315 $406 reversed $69 $-1 #
coedge $-1 $317 $404 $200 $321 reversed $312 $-1 #
edge $-1 $408 48.51395897237262 $322 58.263180171616895 $320 $410 forward 7 unknown #
vertex $-1 $202 $411 #
straight-curve $-1 -26.695874855499767 29.131590085808444 0.4533335149826776 -1 0 0 I I #
vertex $-1 $204 $412 #
straight-curve $-1 -45.311050212052308 39.292431072894395 7.1022864638047167 0 1 0 I I #
straight-curve $-1 -45.311050212052308 -13.479401960266586 40.188727316474356 0 -0.7313536940579346 0.68199836817093118 I I #
edge $-1 $207 45.311050212052308 $407 61.47244920994676 $206 $413 forward 7 unknown #
point $-1 -45.311050212052308 29.131590085808444 7.1022864638047221 #
point $-1 -45.311050212052308 29.13159008580844 0.45333351498268115 #
edge $-1 $414 1 $414 0 $210 $-1 forward 7 unknown #
vertex $-1 $211 $415 #
ellipse-curve $-1 -53.391749710999534 23.218973050171368 1.260368127888297 0 0.68199836817093118 0.7313536940579346 1.5 0 0 1 I I #
point $-1 -51.891749710999534 25.566525616680821 3.7778099893936963 #
loop $-1 $-1 $221 $214 #
plane-surface $-1 0 -29.131590085808444 0 0 1 0 0 0 1 forward_v I I I I #
coedge $-1 $416 $417 $218 $338 reversed $215 $-1 #
coedge $-1 $218 $217 $343 $418 reversed $78 $-1 #
edge $-1 $419 1.9585287993478785e-014 $340 7.6477712028039821 $336 $420 forward 7 unknown #
coedge $-1 $224 $219 $417 $421 forward $126 $-1 #
vertex $-1 $421 $422 #
straight-curve $-1 -24.965971433871545 -24.966315452160771 7.1022864638047221 -1 0 0 I I #
coedge $-1 $423 $221 $224 $347 reversed $334 $-1 #
coedge $-1 $221 $423 $337 $418 forward $334 $-1 #
vertex $-1 $222 $424 #
straight-curve $-1 -38.391436525539426 -29.13159008580844 37.105094565565814 0 0 1 I I #
straight-curve $-1 -38.391436525539426 -29.131590085808455 0.68832578441721637 0 -0.54463902268945019 -0.83867057594974714 I I #
edge $-1 $425 -61.472449209946753 $225 -38.391436525539426 $342 $426 forward 7 unknown #
point $-1 -38.391436525539426 -29.131590085808444 7.1022864638047221 #
point $-1 -38.391436525539426 -24.966315452160774 7.1022864638047221 #
edge $-1 $427 1 $427 0 $228 $-1 forward 7 unknown #
vertex $-1 $229 $428 #
ellipse-curve $-1 -49.931942867743089 -25.53081236730354 2.9094142514402224 0 -0.83867057594974714 0.54463902268945019 1 0 0 1 I I #
point $-1 -48.931942867743089 -27.048952768984599 3.8953061241109594 #
plane-surface $-1 67.49595629749443 0 0 -1 0 0 0 0 1 forward_v I I I I #
coedge $-1 $237 $235 $239 $359 reversed $141 $-1 #
edge $-1 $250 -7.1022864638047221 $361 7.1022864638047221 $249 $429 forward 7 unknown #
vertex $-1 $359 $430 #
straight-curve $-1 -67.49595629749443 -29.131590085808444 0 0 0 -1 I I #
edge $-1 $357 -29.131590085808444 $361 29.131590085808444 $355 $431 forward 7 unknown #
straight-curve $-1 0 -29.131590085808444 -7.1022864638047221 -1 0 0 I I #
vertex $-1 $242 $432 #
straight-curve $-1 0 29.131590085808444 -7.1022864638047221 1 0 0 I I #
point $-1 67.49595629749443 29.131590085808444 -7.1022864638047221 #
point $-1 67.49595629749443 -29.131590085808444 -7.1022864638047221 #
straight-curve $-1 -67.49595629749443 0 7.1022864638047221 0 -1 0 I I #
point $-1 -67.49595629749443 29.131590085808444 7.1022864638047221 #
point $-1 -67.49595629749443 -29.131590085808444 7.1022864638047221 #
straight-curve $-1 67.49595629749443 -29.131590085808444 0 0 0 -1 I I #
straight-curve $-1 67.49595629749443 29.131590085808444 0 0 0 -1 I I #
plane-surface $-1 0 29.131590085808444 0 0 -1 0 0 0 -1 forward_v I I I I #
coedge $-1 $381 $380 $265 $373 forward $260 $-1 #
straight-curve $-1 -61.47244920994676 -29.131590085808444 1.3968701827126333 0 0 1 I I #
edge $-1 $376 -29.131590085808444 $374 29.131590085808444 $371 $433 forward 7 unknown #
vertex $-1 $266 $434 #
straight-curve $-1 -32.242101376860298 -29.131590085808444 1.063350536435971 1 0 0 I I #
vertex $-1 $268 $435 #
straight-curve $-1 -32.242101376860298 29.131590085808444 1.063350536435971 -1 0 0 I I #
point $-1 -61.47244920994676 29.131590085808444 1.063350536435971 #
point $-1 -61.47244920994676 -29.131590085808444 1.063350536435971 #
coedge $-1 $371 $272 $275 $383 forward $260 $-1 #
coedge $-1 $272 $371 $279 $385 reversed $260 $-1 #
straight-curve $-1 -67.49595629749443 0 4.5241301944145622 0 1 0 I I #
edge $-1 $277 -4.5241301944145622 $376 -1.063350536435971 $275 $436 forward 7 unknown #
point $-1 -67.49595629749443 29.131590085808444 4.5241301944145622 #
edge $-1 $280 -4.5241301944145622 $374 -1.063350536435971 $381 $437 forward 7 unknown #
point $-1 -67.49595629749443 -29.131590085808444 4.5241301944145622 #
straight-curve $-1 -61.47244920994676 29.131590085808444 1.3968701827126333 0 0 -1 I I #
plane-surface $-1 67.49595629749443 0 0 -1 0 0 0 0 1 forward_v I I I I #
coedge $-1 $289 $288 $304 $400 reversed $103 $-1 #
edge $-1 $393 -29.131590085808444 $391 29.131590085808444 $288 $438 forward 7 unknown #
vertex $-1 $296 $439 #
straight-curve $-1 61.47244920994676 29.131590085808444 1.3968701827126333 0 0 1 I I #
vertex $-1 $294 $440 #
straight-curve $-1 32.242101376860298 -29.131590085808444 1.063350536435971 1 0 0 I I #
straight-curve $-1 32.242101376860298 29.131590085808444 1.063350536435971 -1 0 0 I I #
point $-1 67.49595629749443 -29.131590085808444 1.063350536435971 #
point $-1 67.49595629749443 29.131590085808444 1.063350536435971 #
straight-curve $-1 61.47244920994676 0 4.5241301944145622 0 -1 0 I I #
point $-1 61.47244920994676 29.131590085808444 4.5241301944145622 #
edge $-1 $306 -3.1272600117019289 $393 0.33351964627666231 $304 $441 forward 7 unknown #
point $-1 61.47244920994676 -29.131590085808444 4.5241301944145622 #
straight-curve $-1 67.49595629749443 -29.131590085808444 0 0 0 -1 I I #
straight-curve $-1 67.49595629749443 29.131590085808444 0 0 0 -1 I I #
coedge $-1 $320 $317 $314 $405 reversed $312 $-1 #
edge $-1 $322 -69.004447115399955 $407 -62.35549416657792 $314 $442 forward 7 unknown #
edge $-1 $408 -34.776574354446993 $324 -18.615175356552541 $315 $443 forward 7 unknown #
vertex $-1 $318 $444 #
vertex $-1 $318 $445 #
straight-curve $-1 -61.47244920994676 39.292431072894395 7.1022864638047167 0 -1 0 I I #
straight-curve $-1 -61.47244920994676 -13.479401960266586 40.188727316474356 0 0.7313536940579346 -0.68199836817093118 I I #
point $-1 -61.47244920994676 29.13159008580844 0.45333351498268115 #
point $-1 -45.311050212052308 22.001461147553208 7.1022864638047238 #
straight-curve $-1 0 29.131590085808444 7.1022864638047221 -1 0 0 I I #
vertex $-1 $330 $446 #
point $-1 -51.891749710999534 23.218973050171368 1.260368127888297 #
coedge $-1 $417 $336 $423 $447 reversed $215 $-1 #
coedge $-1 $336 $416 $339 $421 reversed $215 $-1 #
edge $-1 $419 -36.506477776075208 $344 -13.425465091667881 $343 $448 forward 7 unknown #
vertex $-1 $447 $449 #
straight-curve $-1 -61.472449209946753 -29.131590085808455 0.68832578441721637 0 0.54463902268945019 0.83867057594974714 I I #
edge $-1 $340 -46.206352133042074 $425 -42.041077499394405 $339 $450 forward 7 unknown #
point $-1 -61.472449209946753 -24.966315452160774 7.1022864638047221 #
coedge $-1 $343 $342 $416 $447 forward $334 $-1 #
point $-1 -38.391436525539426 -29.131590085808444 0.6883257844172328 #
vertex $-1 $347 $451 #
straight-curve $-1 0 -29.131590085808444 7.1022864638047221 1 0 0 I I #
vertex $-1 $350 $452 #
point $-1 -48.931942867743089 -25.53081236730354 2.9094142514402224 #
straight-curve $-1 -67.49595629749443 29.131590085808444 0 0 0 -1 I I #
point $-1 -67.49595629749443 -29.131590085808444 -7.1022864638047221 #
straight-curve $-1 -67.49595629749443 0 -7.1022864638047221 0 1 0 I I #
point $-1 -67.49595629749443 29.131590085808444 -7.1022864638047221 #
straight-curve $-1 -67.49595629749443 0 1.063350536435971 0 -1 0 I I #
point $-1 -67.49595629749443 -29.131590085808444 1.063350536435971 #
point $-1 -67.49595629749443 29.131590085808444 1.063350536435971 #
straight-curve $-1 -67.49595629749443 29.131590085808444 0 0 0 -1 I I #
straight-curve $-1 -67.49595629749443 -29.131590085808444 0 0 0 -1 I I #
straight-curve $-1 61.47244920994676 0 1.063350536435971 0 1 0 I I #
point $-1 61.47244920994676 29.131590085808444 1.063350536435971 #
point $-1 61.47244920994676 -29.131590085808444 1.063350536435971 #
straight-curve $-1 61.47244920994676 -29.131590085808444 1.3968701827126333 0 0 -1 I I #
straight-curve $-1 -61.47244920994676 29.131590085808444 69.457780630382643 0 0 1 I I #
straight-curve $-1 -26.695874855499767 22.001461147553211 7.1022864638047238 1 0 0 I I #
point $-1 -61.47244920994676 29.131590085808444 7.1022864638047221 #
point $-1 -61.47244920994676 22.001461147553208 7.1022864638047238 #
point $-1 -53.391749710999534 22.195975497914969 0.16333758680139521 #
edge $-1 $425 30.00280810176109 $419 36.416768781148583 $423 $453 forward 7 unknown #
straight-curve $-1 -24.965971433871545 -29.131590085808444 0.68832578441722936 1 0 0 I I #
point $-1 -61.472449209946753 -29.131590085808444 0.6883257844172328 #
straight-curve $-1 -61.472449209946753 -71.172667585202845 7.1022864638047238 0 -1 0 I I #
point $-1 -61.472449209946753 -29.131590085808444 7.1022864638047221 #
point $-1 -49.931942867743089 -24.692141791353791 2.364775228750772 #
straight-curve $-1 -61.472449209946753 -29.13159008580844 37.105094565565814 0 0 -1 I I #
End-of-ACIS-data 