500 0 8 0           
7 Unknown 11 ACIS 5.0 NT 24 Fri Mar 26 03:25:37 1999 
-1 9.9999999999999995e-007 1e-010 
body $-1 $8 $-1 $9 #
body $-1 $10 $-1 $11 #
body $-1 $12 $-1 $13 #
body $-1 $14 $-1 $15 #
body $-1 $16 $-1 $17 #
body $-1 $18 $-1 $19 #
body $-1 $20 $-1 $21 #
body $-1 $22 $-1 $23 #
lump $-1 $-1 $24 $0 #
transform $-1 1 0 0 0 1 0 0 0 1 71.631824701681566 38.842344374431832 12.136587860003829 1 rotate no_reflect no_shear #
lump $-1 $-1 $25 $1 #
transform $-1 1 0 0 0 1 0 0 0 1 71.631824701681566 38.842344374431832 12.136587860003829 1 rotate no_reflect no_shear #
lump $-1 $-1 $26 $2 #
transform $-1 1 0 0 0 1 0 0 0 1 71.631824701681566 38.842344374431832 12.136587860003829 1 rotate no_reflect no_shear #
lump $-1 $-1 $27 $3 #
transform $-1 1 0 0 0 1 0 0 0 1 71.631824701681566 38.842344374431832 12.136587860003829 1 rotate no_reflect no_shear #
lump $-1 $-1 $28 $4 #
transform $-1 1 0 0 0 1 0 0 0 1 71.631824701681566 38.842344374431832 12.136587860003829 1 rotate no_reflect no_shear #
lump $-1 $-1 $29 $5 #
transform $-1 1 0 0 0 1 0 0 0 1 71.631824701681566 38.842344374431832 12.136587860003829 1 rotate no_reflect no_shear #
lump $-1 $-1 $30 $6 #
transform $-1 1 0 0 0 1 0 0 0 1 71.631824701681566 38.842344374431832 12.136587860003829 1 rotate no_reflect no_shear #
lump $-1 $-1 $31 $7 #
transform $-1 1 0 0 0 1 0 0 0 1 71.631824701681566 38.842344374431832 12.136587860003829 1 rotate no_reflect no_shear #
shell $-1 $-1 $-1 $32 $-1 $8 #
shell $-1 $-1 $-1 $33 $-1 $10 #
shell $-1 $-1 $-1 $34 $-1 $12 #
shell $-1 $-1 $-1 $35 $-1 $14 #
shell $-1 $-1 $-1 $36 $-1 $16 #
shell $-1 $-1 $-1 $37 $-1 $18 #
shell $-1 $-1 $-1 $38 $-1 $20 #
shell $-1 $-1 $-1 $39 $-1 $22 #
face $-1 $40 $41 $24 $-1 $42 forward single #
face $-1 $43 $44 $25 $-1 $45 forward single #
face $-1 $46 $47 $26 $-1 $48 reversed single #
face $-1 $49 $50 $27 $-1 $51 forward single #
face $-1 $52 $53 $28 $-1 $54 forward single #
face $-1 $55 $56 $29 $-1 $57 reversed single #
face $-1 $58 $59 $30 $-1 $60 forward single #
face $-1 $61 $62 $31 $-1 $63 forward single #
face $-1 $64 $65 $24 $-1 $66 reversed single #
loop $-1 $-1 $67 $32 #
plane-surface $-1 0 0 12.136587860003829 0 0 1 1 0 0 forward_v I I I I #
face $-1 $68 $69 $25 $-1 $70 reversed single #
loop $-1 $-1 $71 $33 #
plane-surface $-1 -71.631824701681566 0 0 1 0 0 0 0 -1 forward_v I I I I #
face $-1 $72 $73 $26 $-1 $74 reversed single #
loop $-1 $-1 $75 $34 #
plane-surface $-1 2.1358672247097559 98.653913465058679 155.32074877692537 1 0 0 0 -0.7660444514056185 -0.64278759981090561 forward_v I I I I #
face $-1 $76 $77 $27 $-1 $78 forward single #
loop $-1 $79 $80 $35 #
cone-surface $-1 13.020248511915909 33.839234916433391 6.6936000700901221 0 -0.7660444514056185 -0.64278759981090561 1.5 0 0 1 I I 0 1 1.5 forward I I I I #
face $-1 $81 $82 $28 $-1 $83 forward single #
loop $-1 $84 $85 $36 #
cone-surface $-1 29.346820442725146 33.839234916433391 6.6936000700901221 0 -0.7660444514056185 -0.64278759981090561 1.5 0 0 1 I I 0 1 1.5 forward I I I I #
face $-1 $86 $87 $29 $-1 $88 reversed single #
loop $-1 $-1 $89 $37 #
plane-surface $-1 40.231201729931314 -148.58866808799803 95.810824001685901 -1 0 0 0 -0.7660444514056185 0.64278759981090561 forward_v I I I I #
face $-1 $90 $91 $30 $-1 $92 forward single #
loop $-1 $93 $94 $38 #
cone-surface $-1 13.020248511915909 -33.839234916433384 6.6936000700901221 0 0.7660444514056185 -0.64278759981090561 1.5 0 0 1 I I 0 1 1.5 forward I I I I #
face $-1 $95 $96 $31 $-1 $97 forward single #
loop $-1 $98 $99 $39 #
cone-surface $-1 29.346820442725146 -33.839234916433384 6.6936000700901221 0 0.7660444514056185 -0.64278759981090561 1.5 0 0 1 I I 0 1 1.5 forward I I I I #
face $-1 $100 $101 $24 $-1 $102 reversed single #
loop $-1 $-1 $103 $40 #
plane-surface $-1 0 0 -12.136587860003829 0 0 1 1 0 0 forward_v I I I I #
coedge $-1 $104 $105 $106 $107 forward $41 $-1 #
face $-1 $108 $109 $25 $-1 $110 reversed single #
loop $-1 $-1 $111 $43 #
plane-surface $-1 0 0 -12.136587860003829 0 0 1 1 0 0 forward_v I I I I #
coedge $-1 $112 $113 $114 $115 forward $44 $-1 #
face $-1 $116 $117 $26 $-1 $118 reversed single #
loop $-1 $-1 $119 $46 #
plane-surface $-1 21.183534477320535 -11.092410248507491 63.232651436786497 0 0.7660444514056185 0.64278759981090561 1 0 0 forward_v I I I I #
coedge $-1 $120 $121 $122 $123 reversed $47 $-1 #
face $-1 $-1 $124 $27 $-1 $125 forward single #
loop $-1 $126 $127 $49 #
cone-surface $-1 13.020248511915909 31.791625941661181 4.9754521795466431 0 -0.7660444514056185 -0.64278759981090561 0.75 0 0 1 I I -0.70710678118654757 0.70710678118654757 0.75 forward I I I I #
loop $-1 $-1 $128 $35 #
coedge $-1 $80 $80 $129 $130 reversed $50 $-1 #
face $-1 $-1 $131 $28 $-1 $132 forward single #
loop $-1 $133 $134 $52 #
cone-surface $-1 29.346820442725146 31.791625941661181 4.9754521795466431 0 -0.7660444514056185 -0.64278759981090561 0.75 0 0 1 I I -0.70710678118654757 0.70710678118654757 0.75 forward I I I I #
loop $-1 $-1 $135 $36 #
coedge $-1 $85 $85 $136 $137 reversed $53 $-1 #
face $-1 $138 $139 $29 $-1 $140 reversed single #
loop $-1 $-1 $141 $55 #
plane-surface $-1 21.183534477320535 -38.84234437443186 3.7227266615470285 0 -0.7660444514056185 0.64278759981090561 1 0 0 forward_v I I I I #
coedge $-1 $142 $143 $144 $145 reversed $56 $-1 #
face $-1 $-1 $146 $30 $-1 $147 forward single #
loop $-1 $148 $149 $58 #
cone-surface $-1 13.020248511915909 -31.791625941661174 4.9754521795466431 0 0.7660444514056185 -0.64278759981090561 0.75 0 0 1 I I -0.70710678118654757 0.70710678118654757 0.75 forward I I I I #
loop $-1 $-1 $150 $38 #
coedge $-1 $94 $94 $151 $152 reversed $59 $-1 #
face $-1 $-1 $153 $31 $-1 $154 forward single #
loop $-1 $155 $156 $61 #
cone-surface $-1 29.346820442725146 -31.791625941661174 4.9754521795466431 0 0.7660444514056185 -0.64278759981090561 0.75 0 0 1 I I -0.70710678118654757 0.70710678118654757 0.75 forward I I I I #
loop $-1 $-1 $157 $39 #
coedge $-1 $99 $99 $158 $159 reversed $62 $-1 #
face $-1 $160 $161 $24 $-1 $162 reversed single #
loop $-1 $-1 $163 $64 #
plane-surface $-1 0 -38.842344374431832 0 0 1 0 0 0 1 forward_v I I I I #
coedge $-1 $164 $165 $166 $167 forward $65 $-1 #
coedge $-1 $168 $67 $169 $170 forward $41 $-1 #
coedge $-1 $67 $168 $171 $172 forward $41 $-1 #
coedge $-1 $173 $174 $67 $107 reversed $175 $-1 #
edge $-1 $176 -38.842344374431832 $177 38.842344374431832 $106 $178 forward 7 unknown #
face $-1 $179 $180 $25 $-1 $181 reversed single #
loop $-1 $-1 $182 $68 #
plane-surface $-1 -76.183384056556022 -19.651235201073685 0 0 1 0 0 0 1 forward_v I I I I #
coedge $-1 $183 $184 $113 $185 forward $69 $-1 #
coedge $-1 $186 $71 $187 $188 reversed $44 $-1 #
coedge $-1 $71 $186 $111 $185 reversed $44 $-1 #
coedge $-1 $189 $190 $71 $115 reversed $191 $-1 #
edge $-1 $192 -12.136587860003829 $193 12.136587860003829 $114 $194 forward 7 unknown #
face $-1 $195 $196 $26 $-1 $197 forward single #
loop $-1 $-1 $198 $72 #
plane-surface $-1 40.231201729931314 98.653913465058679 155.32074877692537 -1 0 0 0 0.7660444514056185 0.64278759981090561 forward_v I I I I #
coedge $-1 $199 $200 $201 $202 reversed $73 $-1 #
coedge $-1 $121 $75 $203 $204 reversed $47 $-1 #
coedge $-1 $75 $120 $199 $205 reversed $47 $-1 #
coedge $-1 $201 $206 $75 $123 forward $196 $-1 #
edge $-1 $207 10.484612358097507 $208 17.544680001658392 $122 $209 forward 7 unknown #
loop $-1 $-1 $129 $76 #
plane-surface $-1 21.183534477320535 -11.092410248507491 63.232651436786497 0 0.7660444514056185 0.64278759981090561 1 0 0 forward_v I I I I #
loop $-1 $-1 $210 $49 #
coedge $-1 $127 $127 $128 $211 reversed $77 $-1 #
coedge $-1 $128 $128 $127 $211 forward $79 $-1 #
coedge $-1 $129 $129 $80 $130 forward $124 $-1 #
edge $-1 $212 3.9520325982413845e-015 $212 6.283185307179604 $129 $213 forward 7 unknown #
loop $-1 $-1 $136 $81 #
plane-surface $-1 21.183534477320535 -11.092410248507491 63.232651436786497 0 0.7660444514056185 0.64278759981090561 1 0 0 forward_v I I I I #
loop $-1 $-1 $214 $52 #
coedge $-1 $134 $134 $135 $215 reversed $82 $-1 #
coedge $-1 $135 $135 $134 $215 forward $84 $-1 #
coedge $-1 $136 $136 $85 $137 forward $131 $-1 #
edge $-1 $216 3.9520325982413845e-015 $216 6.283185307179604 $136 $217 forward 7 unknown #
face $-1 $218 $219 $29 $-1 $220 forward single #
loop $-1 $-1 $221 $86 #
plane-surface $-1 2.1358672247097559 -148.58866808799803 95.810824001685901 1 0 0 0 0.7660444514056185 -0.64278759981090561 forward_v I I I I #
coedge $-1 $222 $223 $224 $225 reversed $87 $-1 #
coedge $-1 $143 $89 $226 $227 reversed $56 $-1 #
coedge $-1 $89 $142 $222 $228 reversed $56 $-1 #
coedge $-1 $224 $229 $89 $145 forward $219 $-1 #
edge $-1 $230 35.451989669567183 $231 42.512057313128039 $144 $232 forward 7 unknown #
loop $-1 $-1 $151 $90 #
plane-surface $-1 21.183534477320535 -38.84234437443186 3.7227266615470285 0 -0.7660444514056185 0.64278759981090561 1 0 0 forward_v I I I I #
loop $-1 $-1 $233 $58 #
coedge $-1 $149 $149 $150 $234 reversed $91 $-1 #
coedge $-1 $150 $150 $149 $234 forward $93 $-1 #
coedge $-1 $151 $151 $94 $152 forward $146 $-1 #
edge $-1 $235 -1.2979957771526842e-015 $235 6.2831853071795996 $151 $236 forward 7 unknown #
loop $-1 $-1 $158 $95 #
plane-surface $-1 21.183534477320535 -38.84234437443186 3.7227266615470285 0 -0.7660444514056185 0.64278759981090561 1 0 0 forward_v I I I I #
loop $-1 $-1 $237 $61 #
coedge $-1 $156 $156 $157 $238 reversed $96 $-1 #
coedge $-1 $157 $157 $156 $238 forward $98 $-1 #
coedge $-1 $158 $158 $99 $159 forward $153 $-1 #
edge $-1 $239 -1.2979957771526842e-015 $239 6.2831853071795996 $158 $240 forward 7 unknown #
face $-1 $241 $242 $24 $-1 $243 reversed single #
loop $-1 $-1 $244 $100 #
plane-surface $-1 -71.631824701681566 0 0 1 0 0 0 0 -1 forward_v I I I I #
coedge $-1 $245 $171 $246 $247 forward $101 $-1 #
coedge $-1 $248 $103 $245 $249 forward $65 $-1 #
coedge $-1 $103 $248 $250 $251 forward $65 $-1 #
coedge $-1 $174 $173 $103 $167 reversed $175 $-1 #
edge $-1 $252 -38.842344374431832 $253 38.842344374431832 $166 $254 forward 7 unknown #
coedge $-1 $105 $104 $255 $256 forward $41 $-1 #
coedge $-1 $257 $258 $104 $170 reversed $242 $-1 #
edge $-1 $177 -71.631824701681566 $259 71.631824701681566 $169 $260 forward 7 unknown #
coedge $-1 $163 $261 $105 $172 reversed $101 $-1 #
edge $-1 $262 -71.631824701681566 $176 71.631824701681566 $171 $263 forward 7 unknown #
coedge $-1 $166 $106 $261 $264 forward $175 $-1 #
coedge $-1 $106 $166 $257 $265 reversed $175 $-1 #
loop $-1 $-1 $173 $241 #
vertex $-1 $107 $266 #
vertex $-1 $107 $267 #
straight-curve $-1 71.631824701681566 0 12.136587860003829 0 1 0 I I #
face $-1 $268 $191 $25 $-1 $269 reversed single #
loop $-1 $-1 $270 $108 #
plane-surface $-1 -80.734943411430478 -18.151235201073685 0 1 0 0 0 0 -1 forward_v I I I I #
coedge $-1 $271 $272 $273 $274 forward $109 $-1 #
coedge $-1 $275 $111 $271 $276 forward $69 $-1 #
coedge $-1 $111 $275 $189 $277 forward $69 $-1 #
edge $-1 $192 16.651235201073685 $278 19.651235201073685 $111 $279 forward 7 unknown #
coedge $-1 $113 $112 $280 $281 forward $44 $-1 #
coedge $-1 $282 $283 $112 $188 forward $284 $-1 #
edge $-1 $285 -19.651235201073685 $193 -16.651235201073685 $187 $286 forward 7 unknown #
coedge $-1 $287 $114 $184 $277 reversed $191 $-1 #
coedge $-1 $114 $287 $282 $288 reversed $191 $-1 #
loop $-1 $-1 $114 $179 #
vertex $-1 $185 $289 #
vertex $-1 $288 $290 #
straight-curve $-1 -71.631824701681566 -16.651235201073685 0 0 0 1 I I #
face $-1 $-1 $291 $26 $-1 $292 reversed single #
loop $-1 $-1 $122 $116 #
plane-surface $-1 0 0 12.136587860003829 0 0 1 1 0 0 forward_v I I I I #
coedge $-1 $293 $294 $295 $296 reversed $117 $-1 #
coedge $-1 $297 $119 $121 $205 forward $73 $-1 #
coedge $-1 $119 $297 $293 $298 forward $73 $-1 #
coedge $-1 $295 $122 $119 $202 forward $196 $-1 #
edge $-1 $208 -8.4559000139505116 $299 29.639434491271047 $201 $300 forward 7 unknown #
coedge $-1 $301 $302 $120 $204 forward $291 $-1 #
edge $-1 $303 -73.937647726915657 $207 -65.523786528458857 $203 $304 forward 7 unknown #
edge $-1 $208 66.701173127781672 $303 77.68468874886365 $121 $305 forward 7 unknown #
coedge $-1 $122 $295 $301 $306 forward $196 $-1 #
vertex $-1 $204 $307 #
vertex $-1 $123 $308 #
straight-curve $-1 2.1358672247097559 49.326956732529339 12.136587860003829 0 -1 0 I I #
coedge $-1 $210 $210 $-1 $309 reversed $126 $-1 #
edge $-1 $310 0 $310 6.2831853071796004 $127 $311 forward 7 unknown #
vertex $-1 $130 $312 #
ellipse-curve $-1 13.020248511915909 35.31231055265139 7.9296572607754232 0 0.7660444514056185 0.64278759981090561 1.5 0 0 1 I I #
coedge $-1 $214 $214 $-1 $313 reversed $133 $-1 #
edge $-1 $314 0 $314 6.2831853071796004 $134 $315 forward 7 unknown #
vertex $-1 $137 $316 #
ellipse-curve $-1 29.346820442725146 35.31231055265139 7.9296572607754232 0 0.7660444514056185 0.64278759981090561 1.5 0 0 1 I I #
face $-1 $-1 $317 $29 $-1 $318 reversed single #
loop $-1 $-1 $144 $138 #
plane-surface $-1 0 0 12.136587860003829 0 0 1 1 0 0 forward_v I I I I #
coedge $-1 $319 $320 $321 $322 reversed $139 $-1 #
coedge $-1 $323 $141 $143 $228 forward $87 $-1 #
coedge $-1 $141 $323 $319 $324 forward $87 $-1 #
coedge $-1 $321 $144 $141 $225 forward $219 $-1 #
edge $-1 $231 -29.639434491271047 $325 8.4559000139505116 $224 $326 forward 7 unknown #
coedge $-1 $327 $328 $142 $227 forward $317 $-1 #
edge $-1 $329 -44.182685339295887 $230 -35.768824140839122 $226 $330 forward 7 unknown #
edge $-1 $231 -10.983515621082001 $329 -4.4123720097533069e-014 $143 $331 forward 7 unknown #
coedge $-1 $144 $321 $327 $332 forward $219 $-1 #
vertex $-1 $145 $333 #
vertex $-1 $145 $334 #
straight-curve $-1 40.231201729931314 -74.294334043999015 12.136587860003829 0 1 0 I I #
coedge $-1 $233 $233 $-1 $335 reversed $148 $-1 #
edge $-1 $336 0 $336 6.2831853071796004 $149 $337 forward 7 unknown #
vertex $-1 $152 $338 #
ellipse-curve $-1 13.020248511915909 -35.312310552651404 7.9296572607754419 0 -0.7660444514056185 0.64278759981090561 1.5 0 0 1 I I #
coedge $-1 $237 $237 $-1 $339 reversed $155 $-1 #
edge $-1 $340 0 $340 6.2831853071796004 $156 $341 forward 7 unknown #
vertex $-1 $159 $342 #
ellipse-curve $-1 29.346820442725146 -35.312310552651404 7.9296572607754419 0 -0.7660444514056185 0.64278759981090561 1.5 0 0 1 I I #
face $-1 $-1 $175 $24 $-1 $343 reversed single #
loop $-1 $-1 $257 $160 #
plane-surface $-1 0 38.842344374431832 0 0 -1 0 0 0 -1 forward_v I I I I #
coedge $-1 $344 $255 $258 $345 forward $161 $-1 #
coedge $-1 $261 $163 $164 $249 reversed $101 $-1 #
coedge $-1 $255 $344 $163 $247 reversed $161 $-1 #
edge $-1 $262 -12.136587860003829 $346 12.136587860003829 $246 $347 forward 7 unknown #
coedge $-1 $165 $164 $344 $348 forward $65 $-1 #
edge $-1 $253 -71.631824701681566 $346 71.631824701681566 $245 $349 forward 7 unknown #
coedge $-1 $258 $257 $165 $251 reversed $242 $-1 #
edge $-1 $350 -71.631824701681566 $252 71.631824701681566 $250 $351 forward 7 unknown #
vertex $-1 $167 $352 #
vertex $-1 $264 $353 #
straight-curve $-1 71.631824701681566 0 -12.136587860003829 0 -1 0 I I #
coedge $-1 $244 $246 $168 $256 reversed $161 $-1 #
edge $-1 $259 -38.842344374431832 $262 38.842344374431832 $255 $354 forward 7 unknown #
coedge $-1 $250 $169 $174 $265 forward $242 $-1 #
coedge $-1 $169 $250 $244 $345 reversed $242 $-1 #
vertex $-1 $170 $355 #
straight-curve $-1 0 38.842344374431832 12.136587860003829 -1 0 0 I I #
coedge $-1 $171 $245 $173 $264 reversed $101 $-1 #
vertex $-1 $256 $356 #
straight-curve $-1 0 -38.842344374431832 12.136587860003829 1 0 0 I I #
edge $-1 $176 -12.136587860003829 $253 12.136587860003829 $173 $357 forward 7 unknown #
edge $-1 $177 -12.136587860003829 $252 12.136587860003829 $174 $358 forward 7 unknown #
point $-1 71.631824701681566 -38.842344374431832 12.136587860003829 #
point $-1 71.631824701681566 38.842344374431832 12.136587860003829 #
face $-1 $-1 $284 $25 $-1 $359 forward single #
plane-surface $-1 -76.183384056556022 -16.651235201073685 0 0 -1 0 0 0 -1 forward_v I I I I #
coedge $-1 $360 $361 $287 $362 forward $180 $-1 #
coedge $-1 $280 $182 $183 $276 reversed $109 $-1 #
coedge $-1 $182 $280 $283 $363 reversed $109 $-1 #
coedge $-1 $361 $360 $182 $274 reversed $180 $-1 #
edge $-1 $364 -12.136587860003829 $365 12.136587860003829 $273 $366 forward 7 unknown #
coedge $-1 $184 $183 $360 $367 forward $69 $-1 #
edge $-1 $278 -4.5515593548744562 $365 4.5515593548744562 $271 $368 forward 7 unknown #
edge $-1 $369 -4.5515593548744562 $192 4.5515593548744562 $189 $370 forward 7 unknown #
vertex $-1 $276 $371 #
straight-curve $-1 -71.631824701681566 0 -12.136587860003829 0 -1 0 I I #
coedge $-1 $272 $271 $186 $281 reversed $109 $-1 #
edge $-1 $285 -12.136587860003829 $278 12.136587860003829 $280 $372 forward 7 unknown #
coedge $-1 $373 $187 $190 $288 forward $284 $-1 #
coedge $-1 $187 $373 $272 $363 forward $284 $-1 #
loop $-1 $-1 $187 $268 #
vertex $-1 $188 $374 #
straight-curve $-1 -71.631824701681566 0 12.136587860003829 0 1 0 I I #
coedge $-1 $190 $189 $270 $362 reversed $191 $-1 #
edge $-1 $193 -4.5515593548744562 $375 4.5515593548744562 $190 $376 forward 7 unknown #
point $-1 -71.631824701681566 -16.651235201073685 -12.136587860003829 #
point $-1 -71.631824701681566 -16.651235201073685 12.136587860003829 #
loop $-1 $-1 $203 $195 #
plane-surface $-1 0 38.842344374431832 0 0 -1 0 0 0 -1 forward_v I I I I #
coedge $-1 $294 $198 $200 $298 reversed $117 $-1 #
coedge $-1 $198 $293 $377 $378 reversed $117 $-1 #
coedge $-1 $206 $201 $198 $296 forward $196 $-1 #
edge $-1 $299 -17.544680001658392 $379 -10.484612358097507 $295 $380 forward 7 unknown #
coedge $-1 $200 $199 $302 $381 reversed $73 $-1 #
edge $-1 $382 -77.68468874886365 $299 -66.701173127781672 $293 $383 forward 7 unknown #
vertex $-1 $202 $384 #
straight-curve $-1 10.591767238660267 31.782276730870947 12.136587860003829 1 0 0 I I #
coedge $-1 $377 $203 $206 $306 reversed $291 $-1 #
coedge $-1 $203 $377 $297 $381 forward $291 $-1 #
vertex $-1 $204 $385 #
straight-curve $-1 2.1358672247097559 38.842344374431832 77.660374388462685 0 0 1 I I #
straight-curve $-1 2.1358672247097559 -11.092410248507491 63.232651436786497 0 0.64278759981090561 -0.7660444514056185 I I #
edge $-1 $379 -40.231201729931314 $207 -2.1358672247097559 $301 $386 forward 7 unknown #
point $-1 2.1358672247097559 38.842344374431832 12.136587860003829 #
point $-1 2.1358672247097559 31.782276730870947 12.136587860003829 #
edge $-1 $387 1 $387 0 $210 $-1 forward 7 unknown #
vertex $-1 $211 $388 #
ellipse-curve $-1 13.020248511915909 32.366159280215392 5.457542879404822 0 0.7660444514056185 0.64278759981090561 1.5 0 0 1 I I #
point $-1 14.520248511915909 35.312310552651397 7.9296572607754214 #
edge $-1 $389 1 $389 0 $214 $-1 forward 7 unknown #
vertex $-1 $215 $390 #
ellipse-curve $-1 29.346820442725146 32.366159280215392 5.457542879404822 0 0.7660444514056185 0.64278759981090561 1.5 0 0 1 I I #
point $-1 30.846820442725146 35.312310552651397 7.9296572607754214 #
loop $-1 $-1 $226 $218 #
plane-surface $-1 0 -38.842344374431832 0 0 1 0 0 0 1 forward_v I I I I #
coedge $-1 $320 $221 $223 $324 reversed $139 $-1 #
coedge $-1 $221 $319 $391 $392 reversed $139 $-1 #
coedge $-1 $229 $224 $221 $322 forward $219 $-1 #
edge $-1 $325 -42.512057313128039 $393 -35.451989669567183 $321 $394 forward 7 unknown #
coedge $-1 $223 $222 $328 $395 reversed $87 $-1 #
edge $-1 $396 4.4123720097533069e-014 $325 10.983515621082001 $319 $397 forward 7 unknown #
vertex $-1 $225 $398 #
straight-curve $-1 10.591767238660267 -31.782276730870976 12.136587860003829 -1 0 0 I I #
coedge $-1 $391 $226 $229 $332 reversed $317 $-1 #
coedge $-1 $226 $391 $323 $395 forward $317 $-1 #
vertex $-1 $227 $399 #
straight-curve $-1 40.231201729931314 -38.842344374431832 47.905412000842951 0 0 1 I I #
straight-curve $-1 40.231201729931314 -38.84234437443186 3.7227266615470285 0 -0.64278759981090561 -0.7660444514056185 I I #
edge $-1 $393 2.1358672247097559 $230 40.231201729931314 $327 $400 forward 7 unknown #
point $-1 40.231201729931314 -38.842344374431832 12.136587860003829 #
point $-1 40.231201729931314 -31.782276730870976 12.136587860003829 #
edge $-1 $401 1 $401 0 $233 $-1 forward 7 unknown #
vertex $-1 $234 $402 #
ellipse-curve $-1 13.020248511915909 -32.366159280215385 5.457542879404822 0 -0.7660444514056185 0.64278759981090561 1.5 0 0 1 I I #
point $-1 14.520248511915909 -35.312310552651383 7.9296572607754214 #
edge $-1 $403 1 $403 0 $237 $-1 forward 7 unknown #
vertex $-1 $238 $404 #
ellipse-curve $-1 29.346820442725146 -32.366159280215385 5.457542879404822 0 -0.7660444514056185 0.64278759981090561 1.5 0 0 1 I I #
point $-1 30.846820442725146 -35.312310552651383 7.9296572607754214 #
plane-surface $-1 71.631824701681566 0 0 -1 0 0 0 0 1 forward_v I I I I #
coedge $-1 $246 $244 $248 $348 reversed $161 $-1 #
edge $-1 $259 -12.136587860003829 $350 12.136587860003829 $258 $405 forward 7 unknown #
vertex $-1 $348 $406 #
straight-curve $-1 -71.631824701681566 -38.842344374431832 0 0 0 -1 I I #
edge $-1 $346 -38.842344374431832 $350 38.842344374431832 $344 $407 forward 7 unknown #
straight-curve $-1 0 -38.842344374431832 -12.136587860003829 -1 0 0 I I #
vertex $-1 $251 $408 #
straight-curve $-1 0 38.842344374431832 -12.136587860003829 1 0 0 I I #
point $-1 71.631824701681566 38.842344374431832 -12.136587860003829 #
point $-1 71.631824701681566 -38.842344374431832 -12.136587860003829 #
straight-curve $-1 -71.631824701681566 0 12.136587860003829 0 -1 0 I I #
point $-1 -71.631824701681566 38.842344374431832 12.136587860003829 #
point $-1 -71.631824701681566 -38.842344374431832 12.136587860003829 #
straight-curve $-1 71.631824701681566 -38.842344374431832 0 0 0 -1 I I #
straight-curve $-1 71.631824701681566 38.842344374431832 0 0 0 -1 I I #
plane-surface $-1 0 0 12.136587860003829 0 0 1 1 0 0 forward_v I I I I #
coedge $-1 $273 $270 $275 $367 reversed $180 $-1 #
coedge $-1 $270 $273 $373 $409 reversed $180 $-1 #
edge $-1 $375 -12.136587860003829 $369 12.136587860003829 $287 $410 forward 7 unknown #
edge $-1 $364 -4.5515593548744562 $285 4.5515593548744562 $272 $411 forward 7 unknown #
vertex $-1 $409 $412 #
vertex $-1 $367 $413 #
straight-curve $-1 -80.734943411430478 -19.651235201073685 0 0 0 -1 I I #
edge $-1 $365 -1.5 $369 1.5 $360 $414 forward 7 unknown #
straight-curve $-1 -76.183384056556022 -19.651235201073685 -12.136587860003829 -1 0 0 I I #
vertex $-1 $277 $415 #
straight-curve $-1 -76.183384056556022 -16.651235201073685 -12.136587860003829 1 0 0 I I #
point $-1 -71.631824701681566 -19.651235201073685 -12.136587860003829 #
straight-curve $-1 -71.631824701681566 -19.651235201073685 0 0 0 -1 I I #
coedge $-1 $283 $282 $361 $409 forward $284 $-1 #
point $-1 -71.631824701681566 -19.651235201073685 12.136587860003829 #
vertex $-1 $288 $416 #
straight-curve $-1 -76.183384056556022 -16.651235201073685 12.136587860003829 -1 0 0 I I #
coedge $-1 $302 $301 $294 $378 forward $291 $-1 #
edge $-1 $379 65.523786528458857 $382 73.937647726915657 $377 $417 forward 7 unknown #
vertex $-1 $306 $418 #
straight-curve $-1 40.231201729931314 49.326956732529339 12.136587860003829 0 1 0 I I #
edge $-1 $382 -29.639434491271047 $303 8.4559000139505116 $302 $419 forward 7 unknown #
vertex $-1 $381 $420 #
straight-curve $-1 40.231201729931314 -11.092410248507491 63.232651436786497 0 -0.64278759981090561 0.7660444514056185 I I #
point $-1 40.231201729931314 31.782276730870947 12.136587860003829 #
point $-1 2.1358672247097559 38.842344374431825 3.7227266615470356 #
straight-curve $-1 0 38.842344374431832 12.136587860003829 -1 0 0 I I #
vertex $-1 $309 $421 #
point $-1 14.520248511915909 32.366159280215392 5.457542879404822 #
vertex $-1 $313 $422 #
point $-1 30.846820442725146 32.366159280215392 5.457542879404822 #
coedge $-1 $328 $327 $320 $392 forward $317 $-1 #
edge $-1 $393 35.768824140839122 $396 44.182685339295887 $391 $423 forward 7 unknown #
vertex $-1 $332 $424 #
straight-curve $-1 2.1358672247097559 -74.294334043999015 12.136587860003829 0 -1 0 I I #
edge $-1 $396 -8.4559000139505116 $329 29.639434491271047 $328 $425 forward 7 unknown #
vertex $-1 $395 $426 #
straight-curve $-1 2.1358672247097559 -38.84234437443186 3.7227266615470285 0 0.64278759981090561 0.7660444514056185 I I #
point $-1 2.1358672247097559 -31.782276730870976 12.136587860003829 #
point $-1 40.231201729931314 -38.842344374431832 3.7227266615470622 #
straight-curve $-1 0 -38.842344374431832 12.136587860003829 1 0 0 I I #
vertex $-1 $335 $427 #
point $-1 14.520248511915909 -32.366159280215385 5.457542879404822 #
vertex $-1 $339 $428 #
point $-1 30.846820442725146 -32.366159280215385 5.457542879404822 #
straight-curve $-1 -71.631824701681566 38.842344374431832 0 0 0 -1 I I #
point $-1 -71.631824701681566 -38.842344374431832 -12.136587860003829 #
straight-curve $-1 -71.631824701681566 0 -12.136587860003829 0 1 0 I I #
point $-1 -71.631824701681566 38.842344374431832 -12.136587860003829 #
edge $-1 $375 -1.5 $364 1.5 $361 $429 forward 7 unknown #
straight-curve $-1 -80.734943411430478 -16.651235201073685 0 0 0 -1 I I #
straight-curve $-1 -76.183384056556022 -19.651235201073685 12.136587860003829 1 0 0 I I #
point $-1 -80.734943411430478 -19.651235201073685 12.136587860003829 #
point $-1 -80.734943411430478 -19.651235201073685 -12.136587860003829 #
straight-curve $-1 -80.734943411430478 -18.151235201073685 -12.136587860003829 0 1 0 I I #
point $-1 -80.734943411430478 -16.651235201073685 -12.136587860003829 #
point $-1 -80.734943411430478 -16.651235201073685 12.136587860003829 #
straight-curve $-1 40.231201729931314 38.842344374431832 77.660374388462685 0 0 -1 I I #
point $-1 40.231201729931314 38.842344374431832 12.136587860003829 #
straight-curve $-1 10.591767238660267 38.842344374431832 3.7227266615470285 -1 0 0 I I #
point $-1 40.231201729931314 38.842344374431825 3.7227266615470356 #
point $-1 13.020248511915909 31.217092603106966 4.4933614796884642 #
point $-1 29.346820442725146 31.217092603106966 4.4933614796884642 #
straight-curve $-1 2.1358672247097559 -38.842344374431832 47.905412000842951 0 0 -1 I I #
point $-1 2.1358672247097559 -38.842344374431832 12.136587860003829 #
straight-curve $-1 10.591767238660267 -38.842344374431832 3.7227266615470662 1 0 0 I I #
point $-1 2.1358672247097559 -38.842344374431832 3.7227266615470622 #
point $-1 13.020248511915909 -31.217092603106959 4.4933614796884642 #
point $-1 29.346820442725146 -31.217092603106959 4.4933614796884642 #
straight-curve $-1 -80.734943411430478 -18.151235201073685 12.136587860003829 0 -1 0 I I #
End-of-ACIS-data 