500 0 8 0           
7 Unknown 11 ACIS 5.0 NT 24 Thu Mar 25 15:40:14 1999 
-1 9.9999999999999995e-007 1e-010 
body $-1 $8 $-1 $9 #
body $-1 $10 $-1 $11 #
body $-1 $12 $-1 $13 #
body $-1 $14 $-1 $15 #
body $-1 $16 $-1 $17 #
body $-1 $18 $-1 $19 #
body $-1 $20 $-1 $21 #
body $-1 $22 $-1 $23 #
lump $-1 $-1 $24 $0 #
transform $-1 1 0 0 0 1 0 0 0 1 47.210913418988618 29.769083727991312 6.325850797742568 1 rotate no_reflect no_shear #
lump $-1 $-1 $25 $1 #
transform $-1 1 0 0 0 1 0 0 0 1 47.210913418988618 29.769083727991312 6.325850797742568 1 rotate no_reflect no_shear #
lump $-1 $-1 $26 $2 #
transform $-1 1 0 0 0 1 0 0 0 1 47.210913418988618 29.769083727991312 6.325850797742568 1 rotate no_reflect no_shear #
lump $-1 $-1 $27 $3 #
transform $-1 1 0 0 0 1 0 0 0 1 47.210913418988618 29.769083727991312 6.325850797742568 1 rotate no_reflect no_shear #
lump $-1 $-1 $28 $4 #
transform $-1 1 0 0 0 1 0 0 0 1 47.210913418988618 29.769083727991312 6.325850797742568 1 rotate no_reflect no_shear #
lump $-1 $-1 $29 $5 #
transform $-1 1 0 0 0 1 0 0 0 1 47.210913418988618 29.769083727991312 6.325850797742568 1 rotate no_reflect no_shear #
lump $-1 $-1 $30 $6 #
transform $-1 1 0 0 0 1 0 0 0 1 47.210913418988618 29.769083727991312 6.325850797742568 1 rotate no_reflect no_shear #
lump $-1 $-1 $31 $7 #
transform $-1 1 0 0 0 1 0 0 0 1 47.210913418988618 29.769083727991312 6.325850797742568 1 rotate no_reflect no_shear #
shell $-1 $-1 $-1 $32 $-1 $8 #
shell $-1 $-1 $-1 $33 $-1 $10 #
shell $-1 $-1 $-1 $34 $-1 $12 #
shell $-1 $-1 $-1 $35 $-1 $14 #
shell $-1 $-1 $-1 $36 $-1 $16 #
shell $-1 $-1 $-1 $37 $-1 $18 #
shell $-1 $-1 $-1 $38 $-1 $20 #
shell $-1 $-1 $-1 $39 $-1 $22 #
face $-1 $40 $41 $24 $-1 $42 forward single #
face $-1 $43 $44 $25 $-1 $45 forward single #
face $-1 $46 $47 $26 $-1 $48 reversed single #
face $-1 $49 $50 $27 $-1 $51 forward single #
face $-1 $52 $53 $28 $-1 $54 reversed single #
face $-1 $55 $56 $29 $-1 $57 forward single #
face $-1 $58 $59 $30 $-1 $60 reversed single #
face $-1 $61 $62 $31 $-1 $63 forward single #
face $-1 $64 $65 $24 $-1 $66 reversed single #
loop $-1 $-1 $67 $32 #
plane-surface $-1 0 0 6.325850797742568 0 0 1 1 0 0 forward_v I I I I #
face $-1 $68 $69 $25 $-1 $70 reversed single #
loop $-1 $-1 $71 $33 #
plane-surface $-1 0 -27.077980271139708 -3.325850797742568 0 0 1 1 0 0 forward_v I I I I #
face $-1 $72 $73 $26 $-1 $74 reversed single #
loop $-1 $-1 $75 $34 #
plane-surface $-1 -100.01092960575417 -24.386876814288104 78.815161703082083 0 1 0 -0.55919291073839883 0 0.82903756765294845 forward_v I I I I #
face $-1 $76 $77 $27 $-1 $78 forward single #
loop $-1 $79 $80 $35 #
cone-surface $-1 -42.104748920513792 -18.404341272383235 2.2237814739684896 0.55919291073839883 0 -0.82903756765294845 1.2435563514794228 0 0.83878936610759824 1 I I 0 1 1.5 forward I I I I #
face $-1 $81 $82 $28 $-1 $83 reversed single #
loop $-1 $-1 $84 $36 #
plane-surface $-1 77.249220844730843 -0.017384324994209166 130.35947906420628 0 -1 0 -0.84804810408105047 0 -0.52991925155115449 forward_v I I I I #
face $-1 $85 $86 $29 $-1 $87 forward single #
loop $-1 $88 $89 $37 #
cone-surface $-1 44.833452369088469 -5.9461716699063558 2.988298152851625 -0.84804810408105047 0 -0.52991925155115449 0.26495962577557725 0 -0.42402405204052523 1 I I 0 1 0.5 forward I I I I #
face $-1 $90 $91 $30 $-1 $92 reversed single #
loop $-1 $-1 $93 $38 #
plane-surface $-1 77.249220844730843 27.060595946145497 130.35947906420628 0 -1 0 -0.84804810408105047 0 -0.52991925155115449 forward_v I I I I #
face $-1 $94 $95 $31 $-1 $96 forward single #
loop $-1 $97 $98 $39 #
cone-surface $-1 44.833452369088469 21.131808601233349 2.988298152851625 -0.84804810408105047 0 -0.52991925155115449 0.26495962577557725 0 -0.42402405204052523 1 I I 0 1 0.5 forward I I I I #
face $-1 $99 $100 $24 $-1 $101 reversed single #
loop $-1 $-1 $102 $40 #
plane-surface $-1 0 0 -6.325850797742568 0 0 1 1 0 0 forward_v I I I I #
coedge $-1 $103 $104 $105 $106 forward $41 $-1 #
face $-1 $107 $108 $25 $-1 $109 reversed single #
loop $-1 $-1 $110 $43 #
plane-surface $-1 0 -24.386876814288104 -4.825850797742568 0 -1 0 0 0 -1 forward_v I I I I #
coedge $-1 $111 $112 $113 $114 reversed $44 $-1 #
face $-1 $115 $116 $26 $-1 $117 reversed single #
loop $-1 $-1 $118 $46 #
plane-surface $-1 -47.210913418988618 -18.404341272383231 0.535920047977541 -0.55919291073839883 0 0.82903756765294845 0.82903756765294845 0 0.55919291073839883 forward_v I I I I #
coedge $-1 $119 $120 $121 $122 reversed $47 $-1 #
face $-1 $-1 $123 $27 $-1 $124 forward single #
loop $-1 $125 $126 $49 #
cone-surface $-1 -40.871152327822209 -18.404341272383235 0.39489934933720239 0.55919291073839883 0 -0.82903756765294845 0.62177817573971139 0 0.41939468305379912 1 I I -0.70710678118654746 0.70710678118654768 0.75 forward I I I I #
loop $-1 $-1 $127 $35 #
coedge $-1 $80 $80 $128 $129 reversed $50 $-1 #
face $-1 $130 $131 $28 $-1 $132 reversed single #
loop $-1 $-1 $133 $52 #
plane-surface $-1 -2.8250303890850006 -5.9461716699063594 80.323535256132672 0.84804810408105047 0 0.52991925155115449 0.52991925155115449 0 -0.84804810408105047 forward_v I I I I #
coedge $-1 $134 $135 $136 $137 reversed $53 $-1 #
face $-1 $-1 $138 $29 $-1 $139 forward single #
loop $-1 $140 $141 $55 #
cone-surface $-1 44.142509401388473 -5.9461716699063558 2.5565490827857573 -0.84804810408105047 0 -0.52991925155115449 0.13247981288778862 0 -0.21201202602026262 1 I I -0.70710678118654746 0.70710678118654746 0.25 forward I I I I #
loop $-1 $-1 $142 $37 #
coedge $-1 $89 $89 $143 $144 reversed $56 $-1 #
face $-1 $145 $146 $30 $-1 $147 reversed single #
loop $-1 $-1 $148 $58 #
plane-surface $-1 -2.8250303890850006 21.131808601233349 80.323535256132672 0.84804810408105047 0 0.52991925155115449 0.52991925155115449 0 -0.84804810408105047 forward_v I I I I #
coedge $-1 $149 $150 $151 $152 reversed $59 $-1 #
face $-1 $-1 $153 $31 $-1 $154 forward single #
loop $-1 $155 $156 $61 #
cone-surface $-1 44.142509401388473 21.131808601233349 2.5565490827857573 -0.84804810408105047 0 -0.52991925155115449 0.13247981288778862 0 -0.21201202602026262 1 I I -0.70710678118654746 0.70710678118654746 0.25 forward I I I I #
loop $-1 $-1 $157 $39 #
coedge $-1 $98 $98 $158 $159 reversed $62 $-1 #
face $-1 $160 $161 $24 $-1 $162 reversed single #
loop $-1 $-1 $163 $64 #
plane-surface $-1 0 -29.769083727991312 0 0 1 0 0 0 1 forward_v I I I I #
coedge $-1 $164 $165 $166 $167 forward $65 $-1 #
coedge $-1 $168 $67 $169 $170 forward $41 $-1 #
coedge $-1 $67 $168 $171 $172 forward $41 $-1 #
coedge $-1 $173 $174 $67 $106 reversed $175 $-1 #
edge $-1 $176 -29.769083727991312 $177 29.769083727991312 $105 $178 forward 7 unknown #
face $-1 $179 $180 $25 $-1 $181 reversed single #
loop $-1 $-1 $182 $68 #
plane-surface $-1 0 0 -6.325850797742568 0 0 1 1 0 0 forward_v I I I I #
coedge $-1 $183 $184 $185 $186 reversed $69 $-1 #
coedge $-1 $187 $71 $184 $188 forward $44 $-1 #
coedge $-1 $71 $187 $189 $190 reversed $44 $-1 #
coedge $-1 $191 $185 $71 $114 forward $180 $-1 #
edge $-1 $192 10.84788667871825 $193 16.230093592421458 $113 $194 forward 7 unknown #
face $-1 $195 $196 $26 $-1 $197 forward single #
loop $-1 $-1 $198 $72 #
plane-surface $-1 -100.01092960575417 -12.421805730478358 78.815161703082083 0 -1 0 0.55919291073839883 0 -0.82903756765294845 forward_v I I I I #
coedge $-1 $199 $200 $201 $202 reversed $73 $-1 #
coedge $-1 $120 $75 $203 $204 reversed $47 $-1 #
coedge $-1 $75 $119 $199 $205 reversed $47 $-1 #
coedge $-1 $201 $206 $75 $122 forward $196 $-1 #
edge $-1 $207 2.7945513838884679 $208 11.378476561562572 $121 $209 forward 7 unknown #
loop $-1 $-1 $128 $76 #
plane-surface $-1 -47.210913418988618 -18.404341272383231 0.535920047977541 -0.55919291073839883 0 0.82903756765294845 0.82903756765294845 0 0.55919291073839883 forward_v I I I I #
loop $-1 $-1 $210 $49 #
coedge $-1 $126 $126 $127 $211 reversed $77 $-1 #
coedge $-1 $127 $127 $126 $211 forward $79 $-1 #
coedge $-1 $128 $128 $80 $129 forward $123 $-1 #
edge $-1 $212 0 $212 6.2831853071796004 $128 $213 forward 7 unknown #
face $-1 $214 $215 $28 $-1 $216 reversed single #
loop $-1 $-1 $217 $81 #
plane-surface $-1 77.249220844730843 -11.87495901481851 130.35947906420628 0 1 0 0.84804810408105047 0 0.52991925155115449 forward_v I I I I #
coedge $-1 $218 $219 $220 $221 reversed $82 $-1 #
coedge $-1 $135 $84 $222 $223 reversed $53 $-1 #
coedge $-1 $84 $134 $218 $224 reversed $53 $-1 #
coedge $-1 $220 $225 $84 $137 forward $226 $-1 #
edge $-1 $227 -8.5863029966231963 $228 -4.7892427801823629 $136 $229 forward 7 unknown #
loop $-1 $-1 $143 $85 #
plane-surface $-1 -2.8250303890850006 -5.9461716699063594 80.323535256132672 0.84804810408105047 0 0.52991925155115449 0.52991925155115449 0 -0.84804810408105047 forward_v I I I I #
loop $-1 $-1 $230 $55 #
coedge $-1 $141 $141 $142 $231 reversed $86 $-1 #
coedge $-1 $142 $142 $141 $231 forward $88 $-1 #
coedge $-1 $143 $143 $89 $144 forward $138 $-1 #
edge $-1 $232 0 $232 6.2831853071796004 $143 $233 forward 7 unknown #
face $-1 $234 $235 $30 $-1 $236 reversed single #
loop $-1 $-1 $237 $90 #
plane-surface $-1 77.249220844730843 15.203021256321199 130.35947906420628 0 1 0 0.84804810408105047 0 0.52991925155115449 forward_v I I I I #
coedge $-1 $238 $239 $240 $241 reversed $91 $-1 #
coedge $-1 $150 $93 $242 $243 reversed $59 $-1 #
coedge $-1 $93 $149 $238 $244 reversed $59 $-1 #
coedge $-1 $240 $245 $93 $152 forward $246 $-1 #
edge $-1 $247 -8.5863029966231963 $248 -4.7892427801823629 $151 $249 forward 7 unknown #
loop $-1 $-1 $158 $94 #
plane-surface $-1 -2.8250303890850006 21.131808601233349 80.323535256132672 0.84804810408105047 0 0.52991925155115449 0.52991925155115449 0 -0.84804810408105047 forward_v I I I I #
loop $-1 $-1 $250 $61 #
coedge $-1 $156 $156 $157 $251 reversed $95 $-1 #
coedge $-1 $157 $157 $156 $251 forward $97 $-1 #
coedge $-1 $158 $158 $98 $159 forward $153 $-1 #
edge $-1 $252 0 $252 6.2831853071796004 $158 $253 forward 7 unknown #
face $-1 $254 $255 $24 $-1 $256 reversed single #
loop $-1 $-1 $257 $99 #
plane-surface $-1 -47.210913418988618 0 0 1 0 0 0 0 -1 forward_v I I I I #
coedge $-1 $258 $171 $259 $260 forward $100 $-1 #
coedge $-1 $261 $102 $258 $262 forward $65 $-1 #
coedge $-1 $102 $261 $263 $264 forward $65 $-1 #
coedge $-1 $174 $173 $102 $167 reversed $175 $-1 #
edge $-1 $265 -29.769083727991312 $266 29.769083727991312 $166 $267 forward 7 unknown #
coedge $-1 $104 $103 $268 $269 forward $41 $-1 #
coedge $-1 $270 $271 $103 $170 reversed $255 $-1 #
edge $-1 $177 -47.210913418988618 $272 47.210913418988618 $169 $273 forward 7 unknown #
coedge $-1 $163 $274 $104 $172 reversed $100 $-1 #
edge $-1 $275 -47.210913418988618 $176 47.210913418988618 $171 $276 forward 7 unknown #
coedge $-1 $166 $105 $274 $277 forward $175 $-1 #
coedge $-1 $105 $166 $270 $278 reversed $175 $-1 #
loop $-1 $-1 $173 $254 #
vertex $-1 $106 $279 #
vertex $-1 $106 $280 #
straight-curve $-1 47.210913418988618 0 6.325850797742568 0 1 0 I I #
face $-1 $281 $282 $25 $-1 $283 reversed single #
loop $-1 $-1 $185 $107 #
plane-surface $-1 47.210913418988618 0 0 -1 0 0 0 0 1 forward_v I I I I #
coedge $-1 $284 $285 $183 $286 forward $108 $-1 #
coedge $-1 $287 $110 $182 $286 reversed $69 $-1 #
coedge $-1 $110 $287 $111 $188 reversed $69 $-1 #
coedge $-1 $113 $288 $110 $186 forward $180 $-1 #
edge $-1 $289 -3.912925398871284 $192 -0.91292539887128399 $185 $290 forward 7 unknown #
coedge $-1 $112 $111 $291 $292 reversed $44 $-1 #
edge $-1 $192 -47.210913418988618 $293 47.210913418988618 $184 $294 forward 7 unknown #
coedge $-1 $295 $296 $112 $190 forward $282 $-1 #
edge $-1 $193 -47.210913418988618 $297 47.210913418988618 $189 $298 forward 7 unknown #
coedge $-1 $288 $113 $296 $299 forward $180 $-1 #
vertex $-1 $114 $300 #
vertex $-1 $299 $301 #
straight-curve $-1 47.210913418988618 -13.538990135569854 -3.325850797742568 0 -1 0 I I #
face $-1 $-1 $302 $26 $-1 $303 reversed single #
loop $-1 $-1 $121 $115 #
plane-surface $-1 0 0 6.325850797742568 0 0 1 1 0 0 forward_v I I I I #
coedge $-1 $304 $305 $306 $307 reversed $116 $-1 #
coedge $-1 $308 $118 $120 $205 forward $73 $-1 #
coedge $-1 $118 $308 $304 $309 forward $73 $-1 #
coedge $-1 $306 $121 $118 $202 forward $196 $-1 #
edge $-1 $208 -15.184706178096489 $310 -3.2196350942867422 $201 $311 forward 7 unknown #
coedge $-1 $312 $313 $119 $204 forward $302 $-1 #
edge $-1 $314 -38.871660803563501 $207 -33.081730053798474 $203 $315 forward 7 unknown #
edge $-1 $208 -10.354084679148707 $314 0 $120 $316 forward 7 unknown #
coedge $-1 $121 $306 $312 $317 forward $196 $-1 #
vertex $-1 $204 $318 #
vertex $-1 $122 $319 #
straight-curve $-1 -50.005464802877086 -24.386876814288104 6.325850797742568 1 0 0 I I #
coedge $-1 $210 $210 $-1 $320 reversed $125 $-1 #
edge $-1 $321 0 $321 6.2831853071796004 $126 $322 forward 7 unknown #
vertex $-1 $129 $323 #
ellipse-curve $-1 -42.918950830151566 -18.404341272383235 3.4308854228600518 -0.55919291073839883 0 0.82903756765294845 1.2435563514794228 0 0.83878936610759824 1 I I #
face $-1 $-1 $226 $28 $-1 $324 forward single #
loop $-1 $-1 $325 $130 #
plane-surface $-1 47.210913418988618 0 0 -1 0 0 0 0 1 forward_v I I I I #
coedge $-1 $326 $327 $328 $329 reversed $131 $-1 #
coedge $-1 $330 $133 $135 $224 forward $82 $-1 #
coedge $-1 $133 $330 $326 $331 forward $82 $-1 #
coedge $-1 $328 $136 $133 $221 forward $226 $-1 #
edge $-1 $228 -2.9557015099589705 $332 8.9018731798653299 $220 $333 forward 7 unknown #
coedge $-1 $334 $335 $134 $223 forward $215 $-1 #
edge $-1 $336 -64.930455509786327 $227 -58.853888734360574 $222 $337 forward 7 unknown #
edge $-1 $228 87.25647059676453 $336 94.42182683797725 $135 $338 forward 7 unknown #
coedge $-1 $136 $328 $334 $339 forward $226 $-1 #
loop $-1 $-1 $328 $214 #
vertex $-1 $223 $340 #
vertex $-1 $137 $341 #
straight-curve $-1 38.624610422365421 -0.017384324994209166 6.325850797742568 -1 0 0 I I #
coedge $-1 $230 $230 $-1 $342 reversed $140 $-1 #
edge $-1 $343 0 $343 6.2831853071796004 $141 $344 forward 7 unknown #
vertex $-1 $144 $345 #
ellipse-curve $-1 45.312383310768197 -5.9461716699063558 3.2875674100296992 0.84804810408105047 0 0.52991925155115449 0.26495962577557725 0 -0.42402405204052523 1 I I #
face $-1 $-1 $246 $30 $-1 $346 forward single #
loop $-1 $-1 $347 $145 #
plane-surface $-1 47.210913418988618 0 0 -1 0 0 0 0 1 forward_v I I I I #
coedge $-1 $348 $349 $350 $351 reversed $146 $-1 #
coedge $-1 $352 $148 $150 $244 forward $91 $-1 #
coedge $-1 $148 $352 $348 $353 forward $91 $-1 #
coedge $-1 $350 $151 $148 $241 forward $246 $-1 #
edge $-1 $248 -16.494691645528825 $354 -4.6371169557045242 $240 $355 forward 7 unknown #
coedge $-1 $356 $357 $149 $243 forward $235 $-1 #
edge $-1 $358 -64.930455509786327 $247 -58.853888734360574 $242 $359 forward 7 unknown #
edge $-1 $248 87.25647059676453 $358 94.42182683797725 $150 $360 forward 7 unknown #
coedge $-1 $151 $350 $356 $361 forward $246 $-1 #
loop $-1 $-1 $350 $234 #
vertex $-1 $243 $362 #
vertex $-1 $152 $363 #
straight-curve $-1 38.624610422365421 27.060595946145497 6.325850797742568 -1 0 0 I I #
coedge $-1 $250 $250 $-1 $364 reversed $155 $-1 #
edge $-1 $365 0 $365 6.2831853071796004 $156 $366 forward 7 unknown #
vertex $-1 $159 $367 #
ellipse-curve $-1 45.312383310768197 21.131808601233349 3.2875674100296992 0.84804810408105047 0 0.52991925155115449 0.26495962577557725 0 -0.42402405204052523 1 I I #
face $-1 $-1 $175 $24 $-1 $368 reversed single #
loop $-1 $-1 $270 $160 #
plane-surface $-1 0 29.769083727991312 0 0 -1 0 0 0 -1 forward_v I I I I #
coedge $-1 $369 $268 $271 $370 forward $161 $-1 #
coedge $-1 $274 $163 $164 $262 reversed $100 $-1 #
coedge $-1 $268 $369 $163 $260 reversed $161 $-1 #
edge $-1 $275 -6.325850797742568 $371 6.325850797742568 $259 $372 forward 7 unknown #
coedge $-1 $165 $164 $369 $373 forward $65 $-1 #
edge $-1 $266 -47.210913418988618 $371 47.210913418988618 $258 $374 forward 7 unknown #
coedge $-1 $271 $270 $165 $264 reversed $255 $-1 #
edge $-1 $375 -47.210913418988618 $265 47.210913418988618 $263 $376 forward 7 unknown #
vertex $-1 $167 $377 #
vertex $-1 $277 $378 #
straight-curve $-1 47.210913418988618 0 -6.325850797742568 0 -1 0 I I #
coedge $-1 $257 $259 $168 $269 reversed $161 $-1 #
edge $-1 $272 -29.769083727991312 $275 29.769083727991312 $268 $379 forward 7 unknown #
coedge $-1 $263 $169 $174 $278 forward $255 $-1 #
coedge $-1 $169 $263 $257 $370 reversed $255 $-1 #
vertex $-1 $170 $380 #
straight-curve $-1 0 29.769083727991312 6.325850797742568 -1 0 0 I I #
coedge $-1 $171 $258 $173 $277 reversed $100 $-1 #
vertex $-1 $269 $381 #
straight-curve $-1 0 -29.769083727991312 6.325850797742568 1 0 0 I I #
edge $-1 $176 -6.325850797742568 $266 6.325850797742568 $173 $382 forward 7 unknown #
edge $-1 $177 -6.325850797742568 $265 6.325850797742568 $174 $383 forward 7 unknown #
point $-1 47.210913418988618 -29.769083727991312 6.325850797742568 #
point $-1 47.210913418988618 29.769083727991312 6.325850797742568 #
face $-1 $-1 $384 $25 $-1 $385 reversed single #
loop $-1 $-1 $189 $179 #
plane-surface $-1 0 -29.769083727991312 0 0 1 0 0 0 1 forward_v I I I I #
coedge $-1 $386 $182 $288 $387 forward $108 $-1 #
coedge $-1 $182 $386 $388 $389 forward $108 $-1 #
edge $-1 $390 -47.210913418988618 $289 47.210913418988618 $182 $391 forward 7 unknown #
coedge $-1 $184 $183 $392 $393 reversed $69 $-1 #
coedge $-1 $185 $191 $284 $387 reversed $180 $-1 #
vertex $-1 $387 $394 #
straight-curve $-1 47.210913418988618 -24.386876814288104 -2.412925398871284 0 0 1 I I #
coedge $-1 $392 $395 $187 $292 forward $384 $-1 #
edge $-1 $297 -16.230093592421458 $293 -10.84788667871825 $291 $396 forward 7 unknown #
vertex $-1 $292 $397 #
straight-curve $-1 0 -24.386876814288104 -3.325850797742568 -1 0 0 I I #
coedge $-1 $398 $189 $395 $399 forward $282 $-1 #
coedge $-1 $189 $398 $191 $299 reversed $282 $-1 #
vertex $-1 $399 $400 #
straight-curve $-1 0 -29.769083727991312 -3.325850797742568 -1 0 0 I I #
edge $-1 $193 3.325850797742568 $401 6.325850797742568 $191 $402 forward 7 unknown #
point $-1 47.210913418988618 -24.386876814288104 -3.325850797742568 #
point $-1 47.210913418988618 -29.769083727991312 -3.325850797742568 #
loop $-1 $-1 $203 $195 #
plane-surface $-1 -47.210913418988618 0 0 1 0 0 0 0 -1 forward_v I I I I #
coedge $-1 $305 $198 $200 $309 reversed $116 $-1 #
coedge $-1 $198 $304 $403 $404 reversed $116 $-1 #
coedge $-1 $206 $201 $198 $307 forward $196 $-1 #
edge $-1 $310 -11.378476561562572 $405 -2.7945513838884679 $306 $406 forward 7 unknown #
coedge $-1 $200 $199 $313 $407 reversed $73 $-1 #
edge $-1 $408 0 $310 10.354084679148707 $304 $409 forward 7 unknown #
vertex $-1 $202 $410 #
straight-curve $-1 -38.626988241314514 -9.2021706361916156 6.3258507977425671 0 1 0 I I #
coedge $-1 $403 $203 $206 $317 reversed $302 $-1 #
coedge $-1 $203 $403 $308 $407 forward $302 $-1 #
vertex $-1 $204 $411 #
straight-curve $-1 -47.210913418988618 -24.386876814288104 39.407580851541042 0 0 1 I I #
straight-curve $-1 -47.210913418988618 -24.386876814288104 0.535920047977541 -0.82903756765294845 0 -0.55919291073839883 I I #
edge $-1 $405 12.421805730478358 $207 24.386876814288104 $312 $412 forward 7 unknown #
point $-1 -47.210913418988618 -24.386876814288104 6.325850797742568 #
point $-1 -38.626988241314514 -24.386876814288104 6.325850797742568 #
edge $-1 $413 1 $413 0 $210 $-1 forward 7 unknown #
vertex $-1 $211 $414 #
ellipse-curve $-1 -41.290547010876011 -18.404341272383235 1.016677525076914 -0.55919291073839883 0 0.82903756765294845 1.2435563514794228 0 0.83878936610759824 1 I I #
point $-1 -41.67539447867216 -18.404341272383235 4.2696747889676638 #
plane-surface $-1 0 0 6.325850797742568 0 0 1 1 0 0 forward_v I I I I #
coedge $-1 $335 $334 $327 $415 forward $215 $-1 #
coedge $-1 $327 $217 $219 $331 reversed $131 $-1 #
coedge $-1 $217 $326 $325 $415 reversed $131 $-1 #
coedge $-1 $225 $220 $217 $329 forward $226 $-1 #
edge $-1 $332 4.7892427801823629 $416 8.5863029966231963 $328 $417 forward 7 unknown #
coedge $-1 $219 $218 $335 $418 reversed $82 $-1 #
edge $-1 $419 -94.42182683797725 $332 -87.25647059676453 $326 $420 forward 7 unknown #
vertex $-1 $221 $421 #
straight-curve $-1 43.413853202547784 -2.9730858349531797 6.325850797742568 0 -1 0 I I #
coedge $-1 $325 $222 $225 $339 reversed $215 $-1 #
coedge $-1 $222 $325 $330 $418 forward $215 $-1 #
vertex $-1 $223 $422 #
straight-curve $-1 47.210913418988618 -0.017384324994209166 65.179739532103142 0 0 1 I I #
straight-curve $-1 -2.8250303890850006 -0.017384324994209166 80.323535256132672 0.52991925155115449 0 -0.84804810408105047 I I #
edge $-1 $416 -11.87495901481851 $227 -0.017384324994209166 $334 $423 forward 7 unknown #
point $-1 47.210913418988618 -0.017384324994209166 6.325850797742568 #
point $-1 43.413853202547784 -0.017384324994209166 6.3258507977425751 #
edge $-1 $424 1 $424 0 $230 $-1 forward 7 unknown #
vertex $-1 $231 $425 #
ellipse-curve $-1 44.354521427408734 -5.9461716699063558 2.689028895673546 0.84804810408105047 0 0.52991925155115449 0.26495962577557725 0 -0.42402405204052523 1 I I #
point $-1 45.577342936543779 -5.9461716699063558 2.8635433579891787 #
plane-surface $-1 0 0 6.325850797742568 0 0 1 1 0 0 forward_v I I I I #
coedge $-1 $357 $356 $349 $426 forward $235 $-1 #
coedge $-1 $349 $237 $239 $353 reversed $146 $-1 #
coedge $-1 $237 $348 $347 $426 reversed $146 $-1 #
coedge $-1 $245 $240 $237 $351 forward $246 $-1 #
edge $-1 $354 4.7892427801823629 $427 8.5863029966231963 $350 $428 forward 7 unknown #
coedge $-1 $239 $238 $357 $429 reversed $91 $-1 #
edge $-1 $430 -94.42182683797725 $354 -87.25647059676453 $348 $431 forward 7 unknown #
vertex $-1 $241 $432 #
straight-curve $-1 43.413853202547784 10.565904300616674 6.325850797742568 0 -1 0 I I #
coedge $-1 $347 $242 $245 $361 reversed $235 $-1 #
coedge $-1 $242 $347 $352 $429 forward $235 $-1 #
vertex $-1 $243 $433 #
straight-curve $-1 47.210913418988618 27.060595946145497 65.179739532103142 0 0 1 I I #
straight-curve $-1 -2.8250303890850006 27.060595946145497 80.323535256132672 0.52991925155115449 0 -0.84804810408105047 I I #
edge $-1 $427 15.203021256321199 $247 27.060595946145497 $356 $434 forward 7 unknown #
point $-1 47.210913418988618 27.060595946145497 6.325850797742568 #
point $-1 43.413853202547784 27.060595946145497 6.3258507977425751 #
edge $-1 $435 1 $435 0 $250 $-1 forward 7 unknown #
vertex $-1 $251 $436 #
ellipse-curve $-1 44.354521427408734 21.131808601233349 2.689028895673546 0.84804810408105047 0 0.52991925155115449 0.26495962577557725 0 -0.42402405204052523 1 I I #
point $-1 45.577342936543779 21.131808601233349 2.8635433579891787 #
plane-surface $-1 47.210913418988618 0 0 -1 0 0 0 0 1 forward_v I I I I #
coedge $-1 $259 $257 $261 $373 reversed $161 $-1 #
edge $-1 $272 -6.325850797742568 $375 6.325850797742568 $271 $437 forward 7 unknown #
vertex $-1 $373 $438 #
straight-curve $-1 -47.210913418988618 -29.769083727991312 0 0 0 -1 I I #
edge $-1 $371 -29.769083727991312 $375 29.769083727991312 $369 $439 forward 7 unknown #
straight-curve $-1 0 -29.769083727991312 -6.325850797742568 -1 0 0 I I #
vertex $-1 $264 $440 #
straight-curve $-1 0 29.769083727991312 -6.325850797742568 1 0 0 I I #
point $-1 47.210913418988618 29.769083727991312 -6.325850797742568 #
point $-1 47.210913418988618 -29.769083727991312 -6.325850797742568 #
straight-curve $-1 -47.210913418988618 0 6.325850797742568 0 -1 0 I I #
point $-1 -47.210913418988618 29.769083727991312 6.325850797742568 #
point $-1 -47.210913418988618 -29.769083727991312 6.325850797742568 #
straight-curve $-1 47.210913418988618 -29.769083727991312 0 0 0 -1 I I #
straight-curve $-1 47.210913418988618 29.769083727991312 0 0 0 -1 I I #
loop $-1 $-1 $392 $281 #
plane-surface $-1 -47.210913418988618 0 0 1 0 0 0 0 -1 forward_v I I I I #
coedge $-1 $285 $284 $398 $441 forward $108 $-1 #
edge $-1 $289 24.386876814288104 $401 29.769083727991312 $288 $442 forward 7 unknown #
coedge $-1 $395 $392 $285 $389 reversed $384 $-1 #
edge $-1 $443 -29.769083727991312 $390 -24.386876814288104 $388 $444 forward 7 unknown #
vertex $-1 $393 $445 #
straight-curve $-1 0 -24.386876814288104 -6.325850797742568 1 0 0 I I #
coedge $-1 $388 $291 $287 $393 forward $384 $-1 #
edge $-1 $293 0.91292539887128399 $390 3.912925398871284 $392 $446 forward 7 unknown #
point $-1 47.210913418988618 -24.386876814288104 -6.325850797742568 #
coedge $-1 $291 $388 $295 $399 reversed $384 $-1 #
straight-curve $-1 -47.210913418988618 -13.538990135569854 -3.325850797742568 0 1 0 I I #
point $-1 -47.210913418988618 -24.386876814288104 -3.325850797742568 #
coedge $-1 $296 $295 $386 $441 reversed $282 $-1 #
edge $-1 $297 3.325850797742568 $443 6.325850797742568 $395 $447 forward 7 unknown #
point $-1 -47.210913418988618 -29.769083727991312 -3.325850797742568 #
vertex $-1 $299 $448 #
straight-curve $-1 47.210913418988618 -29.769083727991312 0 0 0 -1 I I #
coedge $-1 $313 $312 $305 $404 forward $302 $-1 #
edge $-1 $405 33.081730053798474 $408 38.871660803563501 $403 $449 forward 7 unknown #
vertex $-1 $317 $450 #
straight-curve $-1 -50.005464802877086 -12.421805730478358 6.325850797742568 -1 0 0 I I #
edge $-1 $408 3.2196350942867422 $314 15.184706178096489 $313 $451 forward 7 unknown #
vertex $-1 $407 $452 #
straight-curve $-1 -47.210913418988618 -12.421805730478358 0.535920047977541 0.82903756765294845 0 0.55919291073839883 I I #
point $-1 -38.626988241314514 -12.421805730478358 6.325850797742568 #
point $-1 -47.210913418988618 -24.386876814288104 0.535920047977541 #
straight-curve $-1 -47.210913418988618 0 6.325850797742568 0 -1 0 I I #
vertex $-1 $320 $453 #
point $-1 -40.046990659396585 -18.404341272383235 1.8554668911845122 #
edge $-1 $416 58.853888734360574 $419 64.930455509786327 $325 $454 forward 7 unknown #
vertex $-1 $339 $455 #
straight-curve $-1 38.624610422365421 -11.87495901481851 6.325850797742568 1 0 0 I I #
edge $-1 $419 -8.9018731798653299 $336 2.9557015099589705 $335 $456 forward 7 unknown #
vertex $-1 $418 $457 #
straight-curve $-1 -2.8250303890850006 -11.87495901481851 80.323535256132672 -0.52991925155115449 0 0.84804810408105047 I I #
point $-1 43.413853202547784 -11.87495901481851 6.3258507977425751 #
point $-1 47.210913418988618 -0.017384324994209166 0.24928402231681446 #
straight-curve $-1 47.210913418988618 0 6.325850797742568 0 1 0 I I #
vertex $-1 $342 $458 #
point $-1 44.619481053184316 -5.9461716699063558 2.2650048436330206 #
edge $-1 $427 58.853888734360574 $430 64.930455509786327 $347 $459 forward 7 unknown #
vertex $-1 $361 $460 #
straight-curve $-1 38.624610422365421 15.203021256321199 6.325850797742568 1 0 0 I I #
edge $-1 $430 4.6371169557045242 $358 16.494691645528825 $357 $461 forward 7 unknown #
vertex $-1 $429 $462 #
straight-curve $-1 -2.8250303890850006 15.203021256321199 80.323535256132672 -0.52991925155115449 0 0.84804810408105047 I I #
point $-1 43.413853202547784 15.203021256321199 6.3258507977425751 #
point $-1 47.210913418988618 27.060595946145497 0.24928402231681446 #
straight-curve $-1 47.210913418988618 0 6.325850797742568 0 1 0 I I #
vertex $-1 $364 $463 #
point $-1 44.619481053184316 21.131808601233349 2.2650048436330206 #
straight-curve $-1 -47.210913418988618 29.769083727991312 0 0 0 -1 I I #
point $-1 -47.210913418988618 -29.769083727991312 -6.325850797742568 #
straight-curve $-1 -47.210913418988618 0 -6.325850797742568 0 1 0 I I #
point $-1 -47.210913418988618 29.769083727991312 -6.325850797742568 #
edge $-1 $401 -47.210913418988618 $443 47.210913418988618 $398 $464 forward 7 unknown #
straight-curve $-1 47.210913418988618 0 -6.325850797742568 0 -1 0 I I #
vertex $-1 $389 $465 #
straight-curve $-1 -47.210913418988618 0 -6.325850797742568 0 1 0 I I #
point $-1 -47.210913418988618 -24.386876814288104 -6.325850797742568 #
straight-curve $-1 -47.210913418988618 -24.386876814288104 -2.412925398871284 0 0 -1 I I #
straight-curve $-1 -47.210913418988618 -29.769083727991312 0 0 0 -1 I I #
point $-1 47.210913418988618 -29.769083727991312 -6.325850797742568 #
straight-curve $-1 -47.210913418988618 -12.421805730478358 39.407580851541042 0 0 -1 I I #
point $-1 -47.210913418988618 -12.421805730478358 6.325850797742568 #
straight-curve $-1 -47.210913418988618 -9.2021706361916156 0.53592004797754222 0 -1 0 I I #
point $-1 -47.210913418988618 -12.421805730478358 0.535920047977541 #
point $-1 -40.451757644768406 -18.404341272383235 -0.22687882640250912 #
straight-curve $-1 47.210913418988618 -11.87495901481851 65.179739532103142 0 0 -1 I I #
point $-1 47.210913418988618 -11.87495901481851 6.325850797742568 #
straight-curve $-1 47.210913418988611 -2.9730858349531797 0.24928402231682156 0 1 0 I I #
point $-1 47.210913418988618 -11.87495901481851 0.24928402231681446 #
point $-1 43.930497375368212 -5.9461716699063558 2.4240692698979687 #
straight-curve $-1 47.210913418988618 15.203021256321199 65.179739532103142 0 0 -1 I I #
point $-1 47.210913418988618 15.203021256321199 6.325850797742568 #
straight-curve $-1 47.210913418988611 10.565904300616674 0.24928402231682156 0 1 0 I I #
point $-1 47.210913418988618 15.203021256321199 0.24928402231681446 #
point $-1 43.930497375368212 21.131808601233349 2.4240692698979687 #
straight-curve $-1 0 -29.769083727991312 -6.325850797742568 -1 0 0 I I #
point $-1 -47.210913418988618 -29.769083727991312 -6.325850797742568 #
End-of-ACIS-data 