500 0 8 0           
7 Unknown 11 ACIS 5.0 NT 24 Thu Mar 25 15:55:22 1999 
-1 9.9999999999999995e-007 1e-010 
body $-1 $8 $-1 $9 #
body $-1 $10 $-1 $11 #
body $-1 $12 $-1 $13 #
body $-1 $14 $-1 $15 #
body $-1 $16 $-1 $17 #
body $-1 $18 $-1 $19 #
body $-1 $20 $-1 $21 #
body $-1 $22 $-1 $23 #
lump $-1 $-1 $24 $0 #
transform $-1 1 0 0 0 1 0 0 0 1 54.38764610736412 30.97308973729232 8.74396402801138 1 rotate no_reflect no_shear #
lump $-1 $-1 $25 $1 #
transform $-1 1 0 0 0 1 0 0 0 1 54.38764610736412 30.97308973729232 8.74396402801138 1 rotate no_reflect no_shear #
lump $-1 $-1 $26 $2 #
transform $-1 1 0 0 0 1 0 0 0 1 54.38764610736412 30.97308973729232 8.74396402801138 1 rotate no_reflect no_shear #
lump $-1 $-1 $27 $3 #
transform $-1 1 0 0 0 1 0 0 0 1 54.38764610736412 30.97308973729232 8.74396402801138 1 rotate no_reflect no_shear #
lump $-1 $-1 $28 $4 #
transform $-1 1 0 0 0 1 0 0 0 1 54.38764610736412 30.97308973729232 8.74396402801138 1 rotate no_reflect no_shear #
lump $-1 $-1 $29 $5 #
transform $-1 1 0 0 0 1 0 0 0 1 54.38764610736412 30.97308973729232 8.74396402801138 1 rotate no_reflect no_shear #
lump $-1 $-1 $30 $6 #
transform $-1 1 0 0 0 1 0 0 0 1 54.38764610736412 30.97308973729232 8.74396402801138 1 rotate no_reflect no_shear #
lump $-1 $-1 $31 $7 #
transform $-1 1 0 0 0 1 0 0 0 1 54.38764610736412 30.97308973729232 8.74396402801138 1 rotate no_reflect no_shear #
shell $-1 $-1 $-1 $32 $-1 $8 #
shell $-1 $-1 $-1 $33 $-1 $10 #
shell $-1 $-1 $-1 $34 $-1 $12 #
shell $-1 $-1 $-1 $35 $-1 $14 #
shell $-1 $-1 $-1 $36 $-1 $16 #
shell $-1 $-1 $-1 $37 $-1 $18 #
shell $-1 $-1 $-1 $38 $-1 $20 #
shell $-1 $-1 $-1 $39 $-1 $22 #
face $-1 $40 $41 $24 $-1 $42 forward single #
face $-1 $43 $44 $25 $-1 $45 forward single #
face $-1 $46 $47 $26 $-1 $48 reversed single #
face $-1 $49 $50 $27 $-1 $51 forward single #
face $-1 $52 $53 $28 $-1 $54 reversed single #
face $-1 $55 $56 $29 $-1 $57 forward single #
face $-1 $58 $59 $30 $-1 $60 reversed single #
face $-1 $61 $62 $31 $-1 $63 forward single #
face $-1 $64 $65 $24 $-1 $66 reversed single #
loop $-1 $-1 $67 $32 #
plane-surface $-1 0 0 8.74396402801138 0 0 1 1 0 0 forward_v I I I I #
face $-1 $68 $69 $25 $-1 $70 reversed single #
loop $-1 $-1 $71 $33 #
plane-surface $-1 0 -27.308766522900953 -4.0705718339575068 0 0 1 1 0 0 forward_v I I I I #
face $-1 $72 $73 $26 $-1 $74 reversed single #
loop $-1 $-1 $75 $34 #
plane-surface $-1 -137.71435515848145 16.263188687775898 71.972665346541334 0 1 0 -0.7660444514056185 0 0.64278759981090561 forward_v I I I I #
face $-1 $76 $77 $27 $-1 $78 forward single #
loop $-1 $79 $80 $35 #
cone-surface $-1 -50.020955568007828 23.618139212534103 4.0899458727374416 0.7660444514056185 0 -0.64278759981090561 0.96418139971635841 0 1.1490666771084277 1 I I 0 1 1.5 forward I I I I #
face $-1 $81 $82 $28 $-1 $83 reversed single #
loop $-1 $-1 $84 $36 #
plane-surface $-1 49.019006111652189 -15.999663116735157 156.55516050101662 0 -1 0 -0.68199836817093118 0 -0.7313536940579346 forward_v I I I I #
face $-1 $85 $86 $29 $-1 $87 forward single #
loop $-1 $88 $89 $37 #
cone-surface $-1 50.564026486229508 -19.822053212622372 5.0880528405061627 -0.68199836817093118 0 -0.7313536940579346 0.3656768470289673 0 -0.34099918408546559 1 I I 0 1 0.5 forward I I I I #
face $-1 $90 $91 $30 $-1 $92 reversed single #
loop $-1 $-1 $93 $38 #
plane-surface $-1 49.019006111652189 11.309103406165796 156.55516050101662 0 -1 0 -0.68199836817093118 0 -0.7313536940579346 forward_v I I I I #
face $-1 $94 $95 $31 $-1 $96 forward single #
loop $-1 $97 $98 $39 #
cone-surface $-1 50.564026486229508 7.4867133102785814 5.0880528405061627 -0.68199836817093118 0 -0.7313536940579346 0.3656768470289673 0 -0.34099918408546559 1 I I 0 1 0.5 forward I I I I #
face $-1 $99 $100 $24 $-1 $101 reversed single #
loop $-1 $-1 $102 $40 #
plane-surface $-1 0 0 -8.74396402801138 0 0 1 1 0 0 forward_v I I I I #
coedge $-1 $103 $104 $105 $106 forward $41 $-1 #
face $-1 $107 $108 $25 $-1 $109 reversed single #
loop $-1 $-1 $110 $43 #
plane-surface $-1 0 -23.644443308509587 -6.4072679309844434 0 -1 0 0 0 -1 forward_v I I I I #
coedge $-1 $111 $112 $113 $114 reversed $44 $-1 #
face $-1 $115 $116 $26 $-1 $117 reversed single #
loop $-1 $-1 $118 $46 #
plane-surface $-1 -54.38764610736412 23.618139212534111 2.0532563451062771 -0.7660444514056185 0 0.64278759981090561 0.64278759981090561 0 0.7660444514056185 forward_v I I I I #
coedge $-1 $119 $120 $121 $122 reversed $47 $-1 #
face $-1 $-1 $123 $27 $-1 $124 forward single #
loop $-1 $125 $126 $49 #
cone-surface $-1 -47.886816791124801 23.618139212534103 2.2991908590578785 0.7660444514056185 0 -0.64278759981090561 0.48209069985817921 0 0.57453333855421385 1 I I -0.70710678118654757 0.70710678118654757 0.75 forward I I I I #
loop $-1 $-1 $127 $35 #
coedge $-1 $80 $80 $128 $129 reversed $50 $-1 #
face $-1 $130 $131 $28 $-1 $132 reversed single #
loop $-1 $-1 $133 $52 #
plane-surface $-1 -25.16556567610867 -19.822053212622372 77.001948717543826 0.68199836817093118 0 0.7313536940579346 0.7313536940579346 0 -0.68199836817093118 forward_v I I I I #
coedge $-1 $134 $135 $136 $137 reversed $53 $-1 #
face $-1 $-1 $138 $29 $-1 $139 forward single #
loop $-1 $140 $141 $55 #
cone-surface $-1 49.747650483105616 -19.822053212622372 4.212596778600652 -0.68199836817093118 0 -0.7313536940579346 0.18283842351448365 0 -0.17049959204273279 1 I I -0.70710678118654746 0.70710678118654746 0.25 forward I I I I #
loop $-1 $-1 $142 $37 #
coedge $-1 $89 $89 $143 $144 reversed $56 $-1 #
face $-1 $145 $146 $30 $-1 $147 reversed single #
loop $-1 $-1 $148 $58 #
plane-surface $-1 -25.16556567610867 7.4867133102785814 77.001948717543826 0.68199836817093118 0 0.7313536940579346 0.7313536940579346 0 -0.68199836817093118 forward_v I I I I #
coedge $-1 $149 $150 $151 $152 reversed $59 $-1 #
face $-1 $-1 $153 $31 $-1 $154 forward single #
loop $-1 $155 $156 $61 #
cone-surface $-1 49.747650483105616 7.4867133102785814 4.212596778600652 -0.68199836817093118 0 -0.7313536940579346 0.18283842351448365 0 -0.17049959204273279 1 I I -0.70710678118654746 0.70710678118654746 0.25 forward I I I I #
loop $-1 $-1 $157 $39 #
coedge $-1 $98 $98 $158 $159 reversed $62 $-1 #
face $-1 $160 $161 $24 $-1 $162 reversed single #
loop $-1 $-1 $163 $64 #
plane-surface $-1 0 -30.97308973729232 0 0 1 0 0 0 1 forward_v I I I I #
coedge $-1 $164 $165 $166 $167 forward $65 $-1 #
coedge $-1 $168 $67 $169 $170 forward $41 $-1 #
coedge $-1 $67 $168 $171 $172 forward $41 $-1 #
coedge $-1 $173 $174 $67 $106 reversed $175 $-1 #
edge $-1 $176 -30.97308973729232 $177 30.97308973729232 $105 $178 forward 7 unknown #
face $-1 $179 $180 $25 $-1 $181 reversed single #
loop $-1 $-1 $182 $68 #
plane-surface $-1 0 0 -8.74396402801138 0 0 1 1 0 0 forward_v I I I I #
coedge $-1 $183 $184 $185 $186 reversed $69 $-1 #
coedge $-1 $187 $71 $184 $188 forward $44 $-1 #
coedge $-1 $71 $187 $189 $190 reversed $44 $-1 #
coedge $-1 $191 $185 $71 $114 forward $180 $-1 #
edge $-1 $192 9.9900600470591101 $193 17.318706475841843 $113 $194 forward 7 unknown #
face $-1 $195 $196 $26 $-1 $197 reversed single #
loop $-1 $-1 $198 $72 #
plane-surface $-1 0 30.97308973729232 0 0 -1 0 0 0 -1 forward_v I I I I #
coedge $-1 $199 $200 $201 $202 reversed $73 $-1 #
coedge $-1 $120 $75 $203 $204 reversed $47 $-1 #
coedge $-1 $75 $119 $199 $205 reversed $47 $-1 #
coedge $-1 $201 $206 $75 $122 forward $207 $-1 #
edge $-1 $208 14.469531471876607 $209 20.083701673931557 $121 $210 forward 7 unknown #
loop $-1 $-1 $128 $76 #
plane-surface $-1 -54.38764610736412 23.618139212534111 2.0532563451062771 -0.7660444514056185 0 0.64278759981090561 0.64278759981090561 0 0.7660444514056185 forward_v I I I I #
loop $-1 $-1 $211 $49 #
coedge $-1 $126 $126 $127 $212 reversed $77 $-1 #
coedge $-1 $127 $127 $126 $212 forward $79 $-1 #
coedge $-1 $128 $128 $80 $129 forward $123 $-1 #
edge $-1 $213 0 $213 6.2831853071796004 $128 $214 forward 7 unknown #
face $-1 $215 $216 $28 $-1 $217 forward single #
loop $-1 $-1 $218 $81 #
plane-surface $-1 49.019006111652189 -23.644443308509587 156.55516050101662 0 1 0 0.68199836817093118 0 0.7313536940579346 forward_v I I I I #
coedge $-1 $219 $220 $221 $222 reversed $82 $-1 #
coedge $-1 $135 $84 $223 $224 reversed $53 $-1 #
coedge $-1 $84 $134 $219 $225 reversed $53 $-1 #
coedge $-1 $221 $226 $84 $137 forward $216 $-1 #
edge $-1 $227 -29.878143051538025 $228 -23.522656631431097 $136 $229 forward 7 unknown #
loop $-1 $-1 $143 $85 #
plane-surface $-1 -25.16556567610867 -19.822053212622372 77.001948717543826 0.68199836817093118 0 0.7313536940579346 0.7313536940579346 0 -0.68199836817093118 forward_v I I I I #
loop $-1 $-1 $230 $55 #
coedge $-1 $141 $141 $142 $231 reversed $86 $-1 #
coedge $-1 $142 $142 $141 $231 forward $88 $-1 #
coedge $-1 $143 $143 $89 $144 forward $138 $-1 #
edge $-1 $232 0 $232 6.2831853071796004 $143 $233 forward 7 unknown #
face $-1 $234 $235 $30 $-1 $236 reversed single #
loop $-1 $-1 $237 $90 #
plane-surface $-1 49.019006111652189 3.6643232143913655 156.55516050101662 0 1 0 0.68199836817093118 0 0.7313536940579346 forward_v I I I I #
coedge $-1 $238 $239 $240 $241 reversed $91 $-1 #
coedge $-1 $150 $93 $242 $243 reversed $59 $-1 #
coedge $-1 $93 $149 $238 $244 reversed $59 $-1 #
coedge $-1 $240 $245 $93 $152 forward $246 $-1 #
edge $-1 $247 -29.878143051538025 $248 -23.522656631431097 $151 $249 forward 7 unknown #
loop $-1 $-1 $158 $94 #
plane-surface $-1 -25.16556567610867 7.4867133102785814 77.001948717543826 0.68199836817093118 0 0.7313536940579346 0.7313536940579346 0 -0.68199836817093118 forward_v I I I I #
loop $-1 $-1 $250 $61 #
coedge $-1 $156 $156 $157 $251 reversed $95 $-1 #
coedge $-1 $157 $157 $156 $251 forward $97 $-1 #
coedge $-1 $158 $158 $98 $159 forward $153 $-1 #
edge $-1 $252 0 $252 6.2831853071796004 $158 $253 forward 7 unknown #
face $-1 $254 $255 $24 $-1 $256 reversed single #
loop $-1 $-1 $257 $99 #
plane-surface $-1 -54.38764610736412 0 0 1 0 0 0 0 -1 forward_v I I I I #
coedge $-1 $258 $171 $259 $260 forward $100 $-1 #
coedge $-1 $261 $102 $258 $262 forward $65 $-1 #
coedge $-1 $102 $261 $263 $264 forward $65 $-1 #
coedge $-1 $174 $173 $102 $167 reversed $175 $-1 #
edge $-1 $265 -30.97308973729232 $266 30.97308973729232 $166 $267 forward 7 unknown #
coedge $-1 $104 $103 $268 $269 forward $41 $-1 #
coedge $-1 $270 $271 $103 $170 reversed $255 $-1 #
edge $-1 $177 -54.38764610736412 $272 54.38764610736412 $169 $273 forward 7 unknown #
coedge $-1 $163 $274 $104 $172 reversed $100 $-1 #
edge $-1 $275 -54.38764610736412 $176 54.38764610736412 $171 $276 forward 7 unknown #
coedge $-1 $166 $105 $274 $277 forward $175 $-1 #
coedge $-1 $105 $166 $270 $278 reversed $175 $-1 #
loop $-1 $-1 $173 $254 #
vertex $-1 $106 $279 #
vertex $-1 $106 $280 #
straight-curve $-1 54.38764610736412 0 8.74396402801138 0 1 0 I I #
face $-1 $281 $282 $25 $-1 $283 reversed single #
loop $-1 $-1 $185 $107 #
plane-surface $-1 54.38764610736412 0 0 -1 0 0 0 0 1 forward_v I I I I #
coedge $-1 $284 $285 $183 $286 forward $108 $-1 #
coedge $-1 $287 $110 $182 $286 reversed $69 $-1 #
coedge $-1 $110 $287 $111 $188 reversed $69 $-1 #
coedge $-1 $113 $288 $110 $186 forward $180 $-1 #
edge $-1 $289 -5.5403300625191587 $192 -0.86693786846528509 $185 $290 forward 7 unknown #
coedge $-1 $112 $111 $291 $292 reversed $44 $-1 #
edge $-1 $192 -54.38764610736412 $293 54.38764610736412 $184 $294 forward 7 unknown #
coedge $-1 $295 $296 $112 $190 forward $282 $-1 #
edge $-1 $193 -54.38764610736412 $297 54.38764610736412 $189 $298 forward 7 unknown #
coedge $-1 $288 $113 $296 $299 forward $180 $-1 #
vertex $-1 $114 $300 #
vertex $-1 $299 $301 #
straight-curve $-1 54.38764610736412 -13.654383261450477 -4.0705718339575068 0 -1 0 I I #
face $-1 $-1 $207 $26 $-1 $302 forward single #
loop $-1 $-1 $303 $115 #
plane-surface $-1 -54.38764610736412 0 0 1 0 0 0 0 -1 forward_v I I I I #
coedge $-1 $304 $305 $200 $306 forward $116 $-1 #
coedge $-1 $307 $118 $120 $205 forward $73 $-1 #
coedge $-1 $118 $307 $198 $306 reversed $73 $-1 #
coedge $-1 $308 $121 $118 $202 forward $207 $-1 #
edge $-1 $209 4.4541190815088427 $309 19.164020131025268 $201 $310 forward 7 unknown #
coedge $-1 $311 $303 $119 $204 forward $196 $-1 #
edge $-1 $312 -33.93307632816439 $208 -27.242368645259287 $203 $313 forward 7 unknown #
edge $-1 $209 -8.734098485575208 $312 0 $120 $314 forward 7 unknown #
coedge $-1 $121 $308 $311 $315 forward $207 $-1 #
loop $-1 $-1 $201 $195 #
vertex $-1 $204 $316 #
vertex $-1 $122 $317 #
straight-curve $-1 -68.857177579240727 16.263188687775898 8.74396402801138 1 0 0 I I #
coedge $-1 $211 $211 $-1 $318 reversed $125 $-1 #
edge $-1 $319 0 $319 6.2831853071796004 $126 $320 forward 7 unknown #
vertex $-1 $129 $321 #
ellipse-curve $-1 -51.580561006336644 23.618139212534103 5.3986101865588285 -0.7660444514056185 0 0.64278759981090561 0.96418139971635841 0 1.1490666771084277 1 I I #
face $-1 $-1 $322 $28 $-1 $323 reversed single #
loop $-1 $-1 $136 $130 #
plane-surface $-1 0 0 8.74396402801138 0 0 1 1 0 0 forward_v I I I I #
coedge $-1 $324 $325 $326 $327 reversed $131 $-1 #
coedge $-1 $328 $133 $135 $225 forward $82 $-1 #
coedge $-1 $133 $328 $324 $329 forward $82 $-1 #
coedge $-1 $326 $136 $133 $222 forward $216 $-1 #
edge $-1 $228 6.0886365104239708 $330 13.733416702198401 $221 $331 forward 7 unknown #
coedge $-1 $332 $333 $134 $224 forward $322 $-1 #
edge $-1 $334 -75.460203320725341 $227 -69.533616222496931 $223 $335 forward 7 unknown #
edge $-1 $228 100.08526101403334 $334 108.77529221472824 $135 $336 forward 7 unknown #
coedge $-1 $136 $326 $332 $337 forward $216 $-1 #
vertex $-1 $224 $338 #
vertex $-1 $137 $339 #
straight-curve $-1 24.509503055826094 -15.999663116735157 8.7439640280113764 -1 0 0 I I #
coedge $-1 $230 $230 $-1 $340 reversed $140 $-1 #
edge $-1 $341 0 $341 6.2831853071796004 $141 $342 forward 7 unknown #
vertex $-1 $144 $343 #
ellipse-curve $-1 51.209902897310648 -19.822053212622372 5.7806704788971759 0.68199836817093118 0 0.7313536940579346 0.3656768470289673 0 -0.34099918408546559 1 I I #
face $-1 $-1 $246 $30 $-1 $344 forward single #
loop $-1 $-1 $345 $145 #
plane-surface $-1 54.38764610736412 0 0 -1 0 0 0 0 1 forward_v I I I I #
coedge $-1 $346 $347 $348 $349 reversed $146 $-1 #
coedge $-1 $350 $148 $150 $244 forward $91 $-1 #
coedge $-1 $148 $350 $346 $351 forward $91 $-1 #
coedge $-1 $348 $151 $148 $241 forward $246 $-1 #
edge $-1 $248 -7.5657467510265057 $352 0.079033440747925177 $240 $353 forward 7 unknown #
coedge $-1 $354 $355 $149 $243 forward $235 $-1 #
edge $-1 $356 -75.460203320725341 $247 -69.533616222496931 $242 $357 forward 7 unknown #
edge $-1 $248 100.08526101403334 $356 108.77529221472824 $150 $358 forward 7 unknown #
coedge $-1 $151 $348 $354 $359 forward $246 $-1 #
loop $-1 $-1 $348 $234 #
vertex $-1 $243 $360 #
vertex $-1 $152 $361 #
straight-curve $-1 24.509503055826094 11.309103406165796 8.7439640280113764 -1 0 0 I I #
coedge $-1 $250 $250 $-1 $362 reversed $155 $-1 #
edge $-1 $363 0 $363 6.2831853071796004 $156 $364 forward 7 unknown #
vertex $-1 $159 $365 #
ellipse-curve $-1 51.209902897310648 7.4867133102785814 5.7806704788971759 0.68199836817093118 0 0.7313536940579346 0.3656768470289673 0 -0.34099918408546559 1 I I #
face $-1 $-1 $175 $24 $-1 $366 reversed single #
loop $-1 $-1 $270 $160 #
plane-surface $-1 0 30.97308973729232 0 0 -1 0 0 0 -1 forward_v I I I I #
coedge $-1 $367 $268 $271 $368 forward $161 $-1 #
coedge $-1 $274 $163 $164 $262 reversed $100 $-1 #
coedge $-1 $268 $367 $163 $260 reversed $161 $-1 #
edge $-1 $275 -8.74396402801138 $369 8.74396402801138 $259 $370 forward 7 unknown #
coedge $-1 $165 $164 $367 $371 forward $65 $-1 #
edge $-1 $266 -54.38764610736412 $369 54.38764610736412 $258 $372 forward 7 unknown #
coedge $-1 $271 $270 $165 $264 reversed $255 $-1 #
edge $-1 $373 -54.38764610736412 $265 54.38764610736412 $263 $374 forward 7 unknown #
vertex $-1 $167 $375 #
vertex $-1 $277 $376 #
straight-curve $-1 54.38764610736412 0 -8.74396402801138 0 -1 0 I I #
coedge $-1 $257 $259 $168 $269 reversed $161 $-1 #
edge $-1 $272 -30.97308973729232 $275 30.97308973729232 $268 $377 forward 7 unknown #
coedge $-1 $263 $169 $174 $278 forward $255 $-1 #
coedge $-1 $169 $263 $257 $368 reversed $255 $-1 #
vertex $-1 $170 $378 #
straight-curve $-1 0 30.97308973729232 8.74396402801138 -1 0 0 I I #
coedge $-1 $171 $258 $173 $277 reversed $100 $-1 #
vertex $-1 $269 $379 #
straight-curve $-1 0 -30.97308973729232 8.74396402801138 1 0 0 I I #
edge $-1 $176 -8.74396402801138 $266 8.74396402801138 $173 $380 forward 7 unknown #
edge $-1 $177 -8.74396402801138 $265 8.74396402801138 $174 $381 forward 7 unknown #
point $-1 54.38764610736412 -30.97308973729232 8.74396402801138 #
point $-1 54.38764610736412 30.97308973729232 8.74396402801138 #
face $-1 $-1 $382 $25 $-1 $383 reversed single #
loop $-1 $-1 $189 $179 #
plane-surface $-1 0 -30.97308973729232 0 0 1 0 0 0 1 forward_v I I I I #
coedge $-1 $384 $182 $288 $385 forward $108 $-1 #
coedge $-1 $182 $384 $386 $387 forward $108 $-1 #
edge $-1 $388 -54.38764610736412 $289 54.38764610736412 $182 $389 forward 7 unknown #
coedge $-1 $184 $183 $390 $391 reversed $69 $-1 #
coedge $-1 $185 $191 $284 $385 reversed $180 $-1 #
vertex $-1 $385 $392 #
straight-curve $-1 54.38764610736412 -23.644443308509587 -3.2036339654922217 0 0 1 I I #
coedge $-1 $390 $393 $187 $292 forward $382 $-1 #
edge $-1 $297 -17.318706475841843 $293 -9.9900600470591101 $291 $394 forward 7 unknown #
vertex $-1 $292 $395 #
straight-curve $-1 0 -23.644443308509587 -4.0705718339575068 -1 0 0 I I #
coedge $-1 $396 $189 $393 $397 forward $282 $-1 #
coedge $-1 $189 $396 $191 $299 reversed $282 $-1 #
vertex $-1 $397 $398 #
straight-curve $-1 0 -30.97308973729232 -4.0705718339575068 -1 0 0 I I #
edge $-1 $193 4.0705718339575068 $399 8.74396402801138 $191 $400 forward 7 unknown #
point $-1 54.38764610736412 -23.644443308509587 -4.0705718339575068 #
point $-1 54.38764610736412 -30.97308973729232 -4.0705718339575068 #
plane-surface $-1 0 0 8.74396402801138 0 0 1 1 0 0 forward_v I I I I #
coedge $-1 $203 $401 $307 $402 forward $196 $-1 #
coedge $-1 $305 $198 $401 $403 reversed $116 $-1 #
coedge $-1 $198 $304 $308 $404 reversed $116 $-1 #
edge $-1 $309 7.9593109495425374 $405 16.693409435117744 $198 $406 forward 7 unknown #
coedge $-1 $200 $199 $303 $402 reversed $73 $-1 #
coedge $-1 $206 $201 $305 $404 forward $207 $-1 #
vertex $-1 $404 $407 #
straight-curve $-1 -48.773475905309169 11.809069606267055 8.74396402801138 0 1 0 I I #
coedge $-1 $401 $203 $206 $315 reversed $196 $-1 #
vertex $-1 $204 $408 #
straight-curve $-1 -54.38764610736412 16.263188687775898 35.986332673270667 0 0 1 I I #
straight-curve $-1 -54.38764610736412 16.263188687775898 2.0532563451062771 -0.64278759981090561 0 -0.7660444514056185 I I #
edge $-1 $409 -30.97308973729232 $208 -16.263188687775898 $311 $410 forward 7 unknown #
point $-1 -54.38764610736412 16.263188687775898 8.74396402801138 #
point $-1 -48.773475905309169 16.263188687775898 8.74396402801138 #
edge $-1 $411 1 $411 0 $211 $-1 forward 7 unknown #
vertex $-1 $212 $412 #
ellipse-curve $-1 -48.461350129679012 23.618139212534103 2.7812815589160578 -0.7660444514056185 0 0.64278759981090561 0.96418139971635841 0 1.1490666771084277 1 I I #
point $-1 -50.616379606620285 23.618139212534103 6.5476768636672551 #
loop $-1 $-1 $223 $215 #
plane-surface $-1 54.38764610736412 0 0 -1 0 0 0 0 1 forward_v I I I I #
coedge $-1 $325 $218 $220 $329 reversed $131 $-1 #
coedge $-1 $218 $324 $413 $414 reversed $131 $-1 #
coedge $-1 $226 $221 $218 $327 forward $216 $-1 #
edge $-1 $330 23.522656631431097 $415 29.878143051538025 $326 $416 forward 7 unknown #
coedge $-1 $220 $219 $333 $417 reversed $82 $-1 #
edge $-1 $418 -108.77529221472824 $330 -100.08526101403334 $324 $419 forward 7 unknown #
vertex $-1 $222 $420 #
straight-curve $-1 48.032159687257177 -9.9110266063111858 8.7439640280113835 0 -1 0 I I #
coedge $-1 $413 $223 $226 $337 reversed $322 $-1 #
coedge $-1 $223 $413 $328 $417 forward $322 $-1 #
vertex $-1 $224 $421 #
straight-curve $-1 54.38764610736412 -15.999663116735157 78.277580250508308 0 0 1 I I #
straight-curve $-1 -25.16556567610867 -15.999663116735157 77.001948717543826 0.7313536940579346 0 -0.68199836817093118 I I #
edge $-1 $415 -23.644443308509587 $227 -15.999663116735157 $332 $422 forward 7 unknown #
point $-1 54.38764610736412 -15.999663116735157 8.74396402801138 #
point $-1 48.032159687257192 -15.999663116735157 8.7439640280113764 #
edge $-1 $423 1 $423 0 $230 $-1 forward 7 unknown #
vertex $-1 $231 $424 #
ellipse-curve $-1 49.918150075148347 -19.822053212622372 4.3954352021151353 0.68199836817093118 0 0.7313536940579346 0.3656768470289673 0 -0.34099918408546559 1 I I #
point $-1 51.575579744339628 -19.822053212622372 5.4396712948117241 #
plane-surface $-1 0 0 8.74396402801138 0 0 1 1 0 0 forward_v I I I I #
coedge $-1 $355 $354 $347 $425 forward $235 $-1 #
coedge $-1 $347 $237 $239 $351 reversed $146 $-1 #
coedge $-1 $237 $346 $345 $425 reversed $146 $-1 #
coedge $-1 $245 $240 $237 $349 forward $246 $-1 #
edge $-1 $352 23.522656631431097 $426 29.878143051538025 $348 $427 forward 7 unknown #
coedge $-1 $239 $238 $355 $428 reversed $91 $-1 #
edge $-1 $429 -108.77529221472824 $352 -100.08526101403334 $346 $430 forward 7 unknown #
vertex $-1 $241 $431 #
straight-curve $-1 48.032159687257177 3.7433566551392907 8.7439640280113835 0 -1 0 I I #
coedge $-1 $345 $242 $245 $359 reversed $235 $-1 #
coedge $-1 $242 $345 $350 $428 forward $235 $-1 #
vertex $-1 $243 $432 #
straight-curve $-1 54.38764610736412 11.309103406165796 78.277580250508308 0 0 1 I I #
straight-curve $-1 -25.16556567610867 11.309103406165796 77.001948717543826 0.7313536940579346 0 -0.68199836817093118 I I #
edge $-1 $426 3.6643232143913655 $247 11.309103406165796 $354 $433 forward 7 unknown #
point $-1 54.38764610736412 11.309103406165796 8.74396402801138 #
point $-1 48.032159687257192 11.309103406165796 8.7439640280113764 #
edge $-1 $434 1 $434 0 $250 $-1 forward 7 unknown #
vertex $-1 $251 $435 #
ellipse-curve $-1 49.918150075148347 7.4867133102785814 4.3954352021151353 0.68199836817093118 0 0.7313536940579346 0.3656768470289673 0 -0.34099918408546559 1 I I #
point $-1 51.575579744339628 7.4867133102785814 5.4396712948117241 #
plane-surface $-1 54.38764610736412 0 0 -1 0 0 0 0 1 forward_v I I I I #
coedge $-1 $259 $257 $261 $371 reversed $161 $-1 #
edge $-1 $272 -8.74396402801138 $373 8.74396402801138 $271 $436 forward 7 unknown #
vertex $-1 $371 $437 #
straight-curve $-1 -54.38764610736412 -30.97308973729232 0 0 0 -1 I I #
edge $-1 $369 -30.97308973729232 $373 30.97308973729232 $367 $438 forward 7 unknown #
straight-curve $-1 0 -30.97308973729232 -8.74396402801138 -1 0 0 I I #
vertex $-1 $264 $439 #
straight-curve $-1 0 30.97308973729232 -8.74396402801138 1 0 0 I I #
point $-1 54.38764610736412 30.97308973729232 -8.74396402801138 #
point $-1 54.38764610736412 -30.97308973729232 -8.74396402801138 #
straight-curve $-1 -54.38764610736412 0 8.74396402801138 0 -1 0 I I #
point $-1 -54.38764610736412 30.97308973729232 8.74396402801138 #
point $-1 -54.38764610736412 -30.97308973729232 8.74396402801138 #
straight-curve $-1 54.38764610736412 -30.97308973729232 0 0 0 -1 I I #
straight-curve $-1 54.38764610736412 30.97308973729232 0 0 0 -1 I I #
loop $-1 $-1 $390 $281 #
plane-surface $-1 -54.38764610736412 0 0 1 0 0 0 0 -1 forward_v I I I I #
coedge $-1 $285 $284 $396 $440 forward $108 $-1 #
edge $-1 $289 23.644443308509587 $399 30.97308973729232 $288 $441 forward 7 unknown #
coedge $-1 $393 $390 $285 $387 reversed $382 $-1 #
edge $-1 $442 -30.97308973729232 $388 -23.644443308509587 $386 $443 forward 7 unknown #
vertex $-1 $391 $444 #
straight-curve $-1 0 -23.644443308509587 -8.74396402801138 1 0 0 I I #
coedge $-1 $386 $291 $287 $391 forward $382 $-1 #
edge $-1 $293 0.86693786846528509 $388 5.5403300625191587 $390 $445 forward 7 unknown #
point $-1 54.38764610736412 -23.644443308509587 -8.74396402801138 #
coedge $-1 $291 $386 $295 $397 reversed $382 $-1 #
straight-curve $-1 -54.38764610736412 -13.654383261450477 -4.0705718339575068 0 1 0 I I #
point $-1 -54.38764610736412 -23.644443308509587 -4.0705718339575068 #
coedge $-1 $296 $295 $384 $440 reversed $282 $-1 #
edge $-1 $297 4.0705718339575068 $442 8.74396402801138 $393 $446 forward 7 unknown #
point $-1 -54.38764610736412 -30.97308973729232 -4.0705718339575068 #
vertex $-1 $299 $447 #
straight-curve $-1 54.38764610736412 -30.97308973729232 0 0 0 -1 I I #
coedge $-1 $303 $311 $304 $403 forward $196 $-1 #
edge $-1 $405 -19.164020131025268 $312 -4.4541190815088427 $303 $448 forward 7 unknown #
edge $-1 $409 -8.74396402801138 $405 -2.0532563451062771 $304 $449 forward 7 unknown #
edge $-1 $309 48.773475905309169 $409 54.38764610736412 $305 $450 forward 7 unknown #
vertex $-1 $306 $451 #
straight-curve $-1 -43.65732952390406 30.97308973729232 14.841150017920423 -0.64278759981090572 0 -0.76604445140561861 I I #
point $-1 -48.773475905309169 30.973089737292323 8.74396402801138 #
point $-1 -54.38764610736412 16.263188687775898 2.0532563451062771 #
vertex $-1 $404 $452 #
straight-curve $-1 -54.38764610736412 0 8.74396402801138 0 -1 0 I I #
vertex $-1 $318 $453 #
point $-1 -47.497168729962659 23.618139212534103 3.9303482360244852 #
coedge $-1 $333 $332 $325 $414 forward $322 $-1 #
edge $-1 $415 69.533616222496931 $418 75.460203320725341 $413 $454 forward 7 unknown #
vertex $-1 $337 $455 #
straight-curve $-1 24.509503055826094 -23.644443308509587 8.7439640280113764 1 0 0 I I #
edge $-1 $418 -13.733416702198401 $334 -6.0886365104239708 $333 $456 forward 7 unknown #
vertex $-1 $417 $457 #
straight-curve $-1 -25.16556567610867 -23.644443308509587 77.001948717543826 -0.7313536940579346 0 0.68199836817093118 I I #
point $-1 48.032159687257192 -23.644443308509587 8.7439640280113764 #
point $-1 54.38764610736412 -15.999663116735157 2.8173769297829665 #
straight-curve $-1 54.38764610736412 0 8.74396402801138 0 1 0 I I #
vertex $-1 $340 $458 #
point $-1 50.283826922177319 -19.822053212622372 4.0544360180296701 #
edge $-1 $426 69.533616222496931 $429 75.460203320725341 $345 $459 forward 7 unknown #
vertex $-1 $359 $460 #
straight-curve $-1 24.509503055826094 3.6643232143913655 8.7439640280113764 1 0 0 I I #
edge $-1 $429 -0.079033440747925177 $356 7.5657467510265057 $355 $461 forward 7 unknown #
vertex $-1 $428 $462 #
straight-curve $-1 -25.16556567610867 3.6643232143913655 77.001948717543826 -0.7313536940579346 0 0.68199836817093118 I I #
point $-1 48.032159687257192 3.6643232143913655 8.7439640280113764 #
point $-1 54.38764610736412 11.309103406165796 2.8173769297829665 #
straight-curve $-1 54.38764610736412 0 8.74396402801138 0 1 0 I I #
vertex $-1 $362 $463 #
point $-1 50.283826922177319 7.4867133102785814 4.0544360180296701 #
straight-curve $-1 -54.38764610736412 30.97308973729232 0 0 0 -1 I I #
point $-1 -54.38764610736412 -30.97308973729232 -8.74396402801138 #
straight-curve $-1 -54.38764610736412 0 -8.74396402801138 0 1 0 I I #
point $-1 -54.38764610736412 30.97308973729232 -8.74396402801138 #
edge $-1 $399 -54.38764610736412 $442 54.38764610736412 $396 $464 forward 7 unknown #
straight-curve $-1 54.38764610736412 0 -8.74396402801138 0 -1 0 I I #
vertex $-1 $387 $465 #
straight-curve $-1 -54.38764610736412 0 -8.74396402801138 0 1 0 I I #
point $-1 -54.38764610736412 -23.644443308509587 -8.74396402801138 #
straight-curve $-1 -54.38764610736412 -23.644443308509587 -3.2036339654922217 0 0 -1 I I #
straight-curve $-1 -54.38764610736412 -30.97308973729232 0 0 0 -1 I I #
point $-1 54.38764610736412 -30.97308973729232 -8.74396402801138 #
straight-curve $-1 -54.38764610736412 11.809069606267055 2.0532563451062793 0 -1 0 I I #
straight-curve $-1 -54.38764610736412 30.97308973729232 0 0 0 -1 I I #
straight-curve $-1 0 30.97308973729232 8.74396402801138 -1 0 0 I I #
point $-1 -54.38764610736412 30.973089737292323 2.0532563451062771 #
point $-1 -54.38764610736412 30.97308973729232 8.74396402801138 #
point $-1 -47.31228345257059 23.618139212534103 1.8171001591996991 #
straight-curve $-1 54.38764610736412 -23.644443308509587 78.277580250508308 0 0 -1 I I #
point $-1 54.38764610736412 -23.644443308509587 8.74396402801138 #
straight-curve $-1 54.38764610736412 -9.9110266063111858 2.8173769297829807 0 1 0 I I #
point $-1 54.38764610736412 -23.644443308509587 2.8173769297829665 #
point $-1 49.577150891062885 -19.822053212622372 4.0297583550861686 #
straight-curve $-1 54.38764610736412 3.6643232143913655 78.277580250508308 0 0 -1 I I #
point $-1 54.38764610736412 3.6643232143913655 8.74396402801138 #
straight-curve $-1 54.38764610736412 3.7433566551392907 2.8173769297829807 0 1 0 I I #
point $-1 54.38764610736412 3.6643232143913655 2.8173769297829665 #
point $-1 49.577150891062885 7.4867133102785814 4.0297583550861686 #
straight-curve $-1 0 -30.97308973729232 -8.74396402801138 -1 0 0 I I #
point $-1 -54.38764610736412 -30.97308973729232 -8.74396402801138 #
End-of-ACIS-data 