500 0 7 0           
7 Unknown 11 ACIS 5.0 NT 24 Thu Mar 25 20:25:47 1999 
-1 9.9999999999999995e-007 1e-010 
body $-1 $7 $-1 $8 #
body $-1 $9 $-1 $10 #
body $-1 $11 $-1 $12 #
body $-1 $13 $-1 $14 #
body $-1 $15 $-1 $16 #
body $-1 $17 $-1 $18 #
body $-1 $19 $-1 $20 #
lump $-1 $-1 $21 $0 #
transform $-1 1 0 0 0 1 0 0 0 1 54.263130588702047 25.472057766565804 7.3966682836046527 1 rotate no_reflect no_shear #
lump $-1 $-1 $22 $1 #
transform $-1 1 0 0 0 1 0 0 0 1 54.263130588702047 25.472057766565804 7.3966682836046527 1 rotate no_reflect no_shear #
lump $-1 $-1 $23 $2 #
transform $-1 1 0 0 0 1 0 0 0 1 54.263130588702047 25.472057766565804 7.3966682836046527 1 rotate no_reflect no_shear #
lump $-1 $-1 $24 $3 #
transform $-1 1 0 0 0 1 0 0 0 1 54.263130588702047 25.472057766565804 7.3966682836046527 1 rotate no_reflect no_shear #
lump $-1 $-1 $25 $4 #
transform $-1 1 0 0 0 1 0 0 0 1 54.263130588702047 25.472057766565804 7.3966682836046527 1 rotate no_reflect no_shear #
lump $-1 $-1 $26 $5 #
transform $-1 1 0 0 0 1 0 0 0 1 54.263130588702047 25.472057766565804 7.3966682836046527 1 rotate no_reflect no_shear #
lump $-1 $-1 $27 $6 #
transform $-1 1 0 0 0 1 0 0 0 1 54.263130588702047 25.472057766565804 7.3966682836046527 1 rotate no_reflect no_shear #
shell $-1 $-1 $-1 $28 $-1 $7 #
shell $-1 $-1 $-1 $29 $-1 $9 #
shell $-1 $-1 $-1 $30 $-1 $11 #
shell $-1 $-1 $-1 $31 $-1 $13 #
shell $-1 $-1 $-1 $32 $-1 $15 #
shell $-1 $-1 $-1 $33 $-1 $17 #
shell $-1 $-1 $-1 $34 $-1 $19 #
face $-1 $35 $36 $21 $-1 $37 forward single #
face $-1 $38 $39 $22 $-1 $40 forward single #
face $-1 $41 $42 $23 $-1 $43 reversed single #
face $-1 $44 $45 $24 $-1 $46 forward single #
face $-1 $47 $48 $25 $-1 $49 forward single #
face $-1 $50 $51 $26 $-1 $52 reversed single #
face $-1 $53 $54 $27 $-1 $55 forward single #
face $-1 $56 $57 $21 $-1 $58 reversed single #
loop $-1 $-1 $59 $28 #
plane-surface $-1 0 0 7.3966682836046527 0 0 1 1 0 0 forward_v I I I I #
face $-1 $60 $61 $22 $-1 $62 reversed single #
loop $-1 $-1 $63 $29 #
plane-surface $-1 -51.191426328239857 0 -3.5117187766466529 0 0 1 1 0 0 forward_v I I I I #
face $-1 $64 $65 $23 $-1 $66 reversed single #
loop $-1 $-1 $67 $30 #
plane-surface $-1 4.6102577608927682 -117.50754780106826 59.230608013806815 1 0 0 0 0.84804810408105047 -0.52991925155115449 forward_v I I I I #
face $-1 $68 $69 $24 $-1 $70 forward single #
loop $-1 $71 $72 $31 #
cone-surface $-1 10.875560380064847 -23.221246185624306 4.2602697700549621 0 0.84804810408105047 -0.52991925155115449 1 0 0 1 I I 0 1 1 forward I I I I #
face $-1 $73 $74 $25 $-1 $75 forward single #
loop $-1 $76 $77 $32 #
cone-surface $-1 20.273514308822961 -23.221246185624306 4.2602697700549621 0 0.84804810408105047 -0.52991925155115449 1 0 0 1 I I 0 1 1 forward I I I I #
face $-1 $78 $79 $26 $-1 $80 reversed single #
loop $-1 $-1 $81 $33 #
plane-surface $-1 12.311081413900574 70.099338701548504 113.86605717024771 1 0 0 0 -0.73135370988377701 -0.68199835119979291 forward_v I I I I #
face $-1 $82 $83 $27 $-1 $84 forward single #
loop $-1 $85 $86 $34 #
cone-surface $-1 25.847508716401087 21.929208491940994 3.7796815001856094 0 -0.73135370988377701 -0.68199835119979291 1 0 0 1 I I 0 1 1 forward I I I I #
face $-1 $87 $88 $21 $-1 $89 reversed single #
loop $-1 $-1 $90 $35 #
plane-surface $-1 0 0 -7.3966682836046527 0 0 1 1 0 0 forward_v I I I I #
coedge $-1 $91 $92 $93 $94 forward $36 $-1 #
face $-1 $95 $96 $22 $-1 $97 reversed single #
loop $-1 $-1 $98 $38 #
plane-surface $-1 -48.119722067777673 0 -5.4541935301256528 -1 0 0 0 0 1 forward_v I I I I #
coedge $-1 $99 $100 $101 $102 forward $39 $-1 #
face $-1 $103 $104 $23 $-1 $105 reversed single #
loop $-1 $-1 $106 $41 #
plane-surface $-1 15.574537344443904 -25.472057766565797 1.7204529170317215 0 -0.84804810408105047 0.52991925155115449 1 0 0 forward_v I I I I #
coedge $-1 $107 $108 $109 $110 reversed $42 $-1 #
face $-1 $-1 $111 $24 $-1 $112 forward single #
loop $-1 $113 $114 $44 #
cone-surface $-1 10.875560380064847 -22.319857002332128 3.6970193140161545 0 0.84804810408105047 -0.52991925155115449 0.5 0 0 1 I I -0.70710678118654746 0.70710678118654746 0.5 forward I I I I #
loop $-1 $-1 $115 $31 #
coedge $-1 $72 $72 $116 $117 reversed $45 $-1 #
face $-1 $-1 $118 $25 $-1 $119 forward single #
loop $-1 $120 $121 $47 #
cone-surface $-1 20.273514308822961 -22.319857002332128 3.6970193140161545 0 0.84804810408105047 -0.52991925155115449 0.5 0 0 1 I I -0.70710678118654746 0.70710678118654746 0.5 forward I I I I #
loop $-1 $-1 $122 $32 #
coedge $-1 $77 $77 $123 $124 reversed $48 $-1 #
face $-1 $125 $126 $26 $-1 $127 reversed single #
loop $-1 $-1 $128 $50 #
plane-surface $-1 25.847508716401087 -9.2717450303616999 39.851325985380029 0 0.73135370988377701 0.68199835119979291 1 0 0 forward_v I I I I #
coedge $-1 $129 $130 $131 $132 reversed $51 $-1 #
face $-1 $-1 $133 $27 $-1 $134 forward single #
loop $-1 $135 $136 $53 #
cone-surface $-1 25.847508716401087 20.260355167315304 2.2234506362307602 0 -0.73135370988377701 -0.68199835119979291 0.5 0 0 1 I I -0.70710678118654746 0.70710678118654746 0.5 forward I I I I #
loop $-1 $-1 $137 $34 #
coedge $-1 $86 $86 $138 $139 reversed $54 $-1 #
face $-1 $140 $141 $21 $-1 $142 reversed single #
loop $-1 $-1 $143 $56 #
plane-surface $-1 0 -25.472057766565804 0 0 1 0 0 0 1 forward_v I I I I #
coedge $-1 $144 $145 $146 $147 forward $57 $-1 #
coedge $-1 $148 $59 $149 $150 forward $36 $-1 #
coedge $-1 $59 $148 $151 $152 forward $36 $-1 #
coedge $-1 $153 $154 $59 $94 reversed $155 $-1 #
edge $-1 $156 -25.472057766565804 $157 25.472057766565804 $93 $158 forward 7 unknown #
face $-1 $159 $160 $22 $-1 $161 reversed single #
loop $-1 $-1 $162 $60 #
plane-surface $-1 0 0 -7.3966682836046527 0 0 1 1 0 0 forward_v I I I I #
coedge $-1 $163 $101 $164 $165 reversed $61 $-1 #
coedge $-1 $166 $63 $167 $168 reversed $39 $-1 #
coedge $-1 $63 $166 $169 $170 reversed $39 $-1 #
coedge $-1 $98 $171 $63 $102 reversed $61 $-1 #
edge $-1 $172 -25.472057766565804 $173 25.472057766565804 $101 $174 forward 7 unknown #
face $-1 $175 $176 $23 $-1 $177 forward single #
loop $-1 $-1 $178 $64 #
plane-surface $-1 26.53881692799504 -117.50754780106826 59.230608013806815 -1 0 0 0 -0.84804810408105047 0.52991925155115449 forward_v I I I I #
coedge $-1 $179 $180 $181 $182 reversed $65 $-1 #
coedge $-1 $108 $67 $183 $184 reversed $42 $-1 #
coedge $-1 $67 $107 $179 $185 reversed $42 $-1 #
coedge $-1 $181 $186 $67 $110 forward $187 $-1 #
edge $-1 $188 22.218635723298753 $189 27.894851089871697 $109 $190 forward 7 unknown #
loop $-1 $-1 $116 $68 #
plane-surface $-1 15.574537344443904 -25.472057766565797 1.7204529170317215 0 -0.84804810408105047 0.52991925155115449 1 0 0 forward_v I I I I #
loop $-1 $-1 $191 $44 #
coedge $-1 $114 $114 $115 $192 reversed $69 $-1 #
coedge $-1 $115 $115 $114 $192 forward $71 $-1 #
coedge $-1 $116 $116 $72 $117 forward $111 $-1 #
edge $-1 $193 -3.7542794654976729e-016 $193 6.2831853071796004 $116 $194 forward 7 unknown #
loop $-1 $-1 $123 $73 #
plane-surface $-1 15.574537344443904 -25.472057766565797 1.7204529170317215 0 -0.84804810408105047 0.52991925155115449 1 0 0 forward_v I I I I #
loop $-1 $-1 $195 $47 #
coedge $-1 $121 $121 $122 $196 reversed $74 $-1 #
coedge $-1 $122 $122 $121 $196 forward $76 $-1 #
coedge $-1 $123 $123 $77 $124 forward $118 $-1 #
edge $-1 $197 -3.7542794654976729e-016 $197 6.2831853071796004 $123 $198 forward 7 unknown #
face $-1 $199 $200 $26 $-1 $201 reversed single #
loop $-1 $-1 $202 $78 #
plane-surface $-1 39.383936018901601 70.099338701548504 113.86605717024771 -1 0 0 0 0.73135370988377701 0.68199835119979291 forward_v I I I I #
coedge $-1 $203 $204 $205 $206 reversed $79 $-1 #
coedge $-1 $130 $81 $207 $208 reversed $51 $-1 #
coedge $-1 $81 $129 $203 $209 reversed $51 $-1 #
coedge $-1 $205 $210 $81 $132 forward $211 $-1 #
edge $-1 $212 9.5776115842084479 $213 14.056957194090451 $131 $214 forward 7 unknown #
loop $-1 $-1 $138 $82 #
plane-surface $-1 25.847508716401087 -9.2717450303616999 39.851325985380029 0 0.73135370988377701 0.68199835119979291 1 0 0 forward_v I I I I #
loop $-1 $-1 $215 $53 #
coedge $-1 $136 $136 $137 $216 reversed $83 $-1 #
coedge $-1 $137 $137 $136 $216 forward $85 $-1 #
coedge $-1 $138 $138 $86 $139 forward $133 $-1 #
edge $-1 $217 3.5069091583739096e-016 $217 6.2831853071796004 $138 $218 forward 7 unknown #
face $-1 $219 $220 $21 $-1 $221 reversed single #
loop $-1 $-1 $222 $87 #
plane-surface $-1 -54.263130588702047 0 0 1 0 0 0 0 -1 forward_v I I I I #
coedge $-1 $223 $151 $224 $225 forward $88 $-1 #
coedge $-1 $226 $90 $223 $227 forward $57 $-1 #
coedge $-1 $90 $226 $228 $229 forward $57 $-1 #
coedge $-1 $154 $153 $90 $147 reversed $155 $-1 #
edge $-1 $230 -25.472057766565804 $231 25.472057766565804 $146 $232 forward 7 unknown #
coedge $-1 $92 $91 $233 $234 forward $36 $-1 #
coedge $-1 $235 $236 $91 $150 reversed $220 $-1 #
edge $-1 $157 -54.263130588702047 $237 54.263130588702047 $149 $238 forward 7 unknown #
coedge $-1 $143 $239 $92 $152 reversed $88 $-1 #
edge $-1 $240 -54.263130588702047 $156 54.263130588702047 $151 $241 forward 7 unknown #
coedge $-1 $146 $93 $239 $242 forward $155 $-1 #
coedge $-1 $93 $146 $235 $243 reversed $155 $-1 #
loop $-1 $-1 $153 $219 #
vertex $-1 $94 $244 #
vertex $-1 $94 $245 #
straight-curve $-1 54.263130588702047 0 7.3966682836046527 0 1 0 I I #
face $-1 $246 $247 $22 $-1 $248 reversed single #
loop $-1 $-1 $164 $95 #
plane-surface $-1 0 -25.472057766565804 0 0 1 0 0 0 1 forward_v I I I I #
coedge $-1 $249 $250 $163 $251 forward $96 $-1 #
coedge $-1 $171 $98 $162 $251 reversed $61 $-1 #
coedge $-1 $169 $252 $98 $165 forward $160 $-1 #
edge $-1 $253 -4.6695715185418258 $172 -0.7846220115838265 $164 $254 forward 7 unknown #
coedge $-1 $100 $99 $255 $256 reversed $39 $-1 #
coedge $-1 $257 $258 $99 $168 forward $259 $-1 #
edge $-1 $260 -28.667417424582112 $173 -22.524008903657744 $167 $261 forward 7 unknown #
coedge $-1 $262 $164 $100 $170 forward $160 $-1 #
edge $-1 $172 22.524008903657744 $263 28.667417424582112 $169 $264 forward 7 unknown #
coedge $-1 $101 $163 $257 $265 reversed $61 $-1 #
vertex $-1 $170 $266 #
vertex $-1 $168 $267 #
straight-curve $-1 -48.119722067777673 0 -3.5117187766466529 0 1 0 I I #
face $-1 $-1 $187 $23 $-1 $268 reversed single #
loop $-1 $-1 $269 $103 #
plane-surface $-1 0 0 7.3966682836046527 0 0 1 1 0 0 forward_v I I I I #
coedge $-1 $270 $271 $272 $273 reversed $104 $-1 #
coedge $-1 $274 $106 $108 $185 forward $65 $-1 #
coedge $-1 $106 $274 $270 $275 forward $65 $-1 #
coedge $-1 $272 $109 $106 $182 forward $187 $-1 #
edge $-1 $189 -3.1770109113291838 $276 18.751548255773088 $181 $277 forward 7 unknown #
coedge $-1 $278 $279 $107 $184 forward $176 $-1 #
edge $-1 $280 -36.828609033348023 $188 -33.281716133968324 $183 $281 forward 7 unknown #
edge $-1 $189 -1.3368832564924053e-014 $280 6.69327051054929 $108 $282 forward 7 unknown #
coedge $-1 $109 $272 $278 $283 reversed $187 $-1 #
loop $-1 $-1 $272 $175 #
vertex $-1 $283 $284 #
vertex $-1 $110 $285 #
straight-curve $-1 4.6102577608927682 -25.472057766565804 29.615304006903408 0 0 -1 I I #
coedge $-1 $191 $191 $-1 $286 reversed $113 $-1 #
edge $-1 $287 0 $287 6.2831853071796004 $114 $288 forward 7 unknown #
vertex $-1 $117 $289 #
ellipse-curve $-1 10.875560380064847 -23.698611316875951 4.5585606003181862 0 -0.84804810408105047 0.52991925155115449 1 0 0 1 I I #
coedge $-1 $195 $195 $-1 $290 reversed $120 $-1 #
edge $-1 $291 0 $291 6.2831853071796004 $121 $292 forward 7 unknown #
vertex $-1 $124 $293 #
ellipse-curve $-1 20.273514308822961 -23.698611316875951 4.5585606003181862 0 -0.84804810408105047 0.52991925155115449 1 0 0 1 I I #
face $-1 $-1 $211 $26 $-1 $294 forward single #
loop $-1 $-1 $295 $125 #
plane-surface $-1 0 25.472057766565804 0 0 -1 0 0 0 -1 forward_v I I I I #
coedge $-1 $296 $297 $298 $299 reversed $126 $-1 #
coedge $-1 $300 $128 $130 $209 forward $79 $-1 #
coedge $-1 $128 $300 $296 $301 forward $79 $-1 #
coedge $-1 $298 $131 $128 $206 forward $211 $-1 #
edge $-1 $213 -0.61267294429996966 $302 26.460181660701057 $205 $303 forward 7 unknown #
coedge $-1 $304 $305 $129 $208 forward $200 $-1 #
edge $-1 $306 -54.339870491647368 $212 -49.536360301519203 $207 $307 forward 7 unknown #
edge $-1 $213 44.376144214723269 $306 50.944115533131587 $130 $308 forward 7 unknown #
coedge $-1 $131 $298 $304 $309 forward $211 $-1 #
loop $-1 $-1 $298 $199 #
vertex $-1 $208 $310 #
vertex $-1 $132 $311 #
straight-curve $-1 12.311081413900574 35.049669350774252 7.3966682836046544 0 -1 0 I I #
coedge $-1 $215 $215 $-1 $312 reversed $135 $-1 #
edge $-1 $313 0 $313 6.2831853071796004 $136 $314 forward 7 unknown #
vertex $-1 $139 $315 #
ellipse-curve $-1 25.847508716401087 23.232384961624803 4.9949131885405684 0 0.73135370988377701 0.68199835119979291 1 0 0 1 I I #
face $-1 $-1 $155 $21 $-1 $316 reversed single #
loop $-1 $-1 $235 $140 #
plane-surface $-1 0 25.472057766565804 0 0 -1 0 0 0 -1 forward_v I I I I #
coedge $-1 $317 $233 $236 $318 forward $141 $-1 #
coedge $-1 $239 $143 $144 $227 reversed $88 $-1 #
coedge $-1 $233 $317 $143 $225 reversed $141 $-1 #
edge $-1 $240 -7.3966682836046527 $319 7.3966682836046527 $224 $320 forward 7 unknown #
coedge $-1 $145 $144 $317 $321 forward $57 $-1 #
edge $-1 $231 -54.263130588702047 $319 54.263130588702047 $223 $322 forward 7 unknown #
coedge $-1 $236 $235 $145 $229 reversed $220 $-1 #
edge $-1 $323 -54.263130588702047 $230 54.263130588702047 $228 $324 forward 7 unknown #
vertex $-1 $147 $325 #
vertex $-1 $242 $326 #
straight-curve $-1 54.263130588702047 0 -7.3966682836046527 0 -1 0 I I #
coedge $-1 $222 $224 $148 $234 reversed $141 $-1 #
edge $-1 $237 -25.472057766565804 $240 25.472057766565804 $233 $327 forward 7 unknown #
coedge $-1 $228 $149 $154 $243 forward $220 $-1 #
coedge $-1 $149 $228 $222 $318 reversed $220 $-1 #
vertex $-1 $150 $328 #
straight-curve $-1 0 25.472057766565804 7.3966682836046527 -1 0 0 I I #
coedge $-1 $151 $223 $153 $242 reversed $88 $-1 #
vertex $-1 $234 $329 #
straight-curve $-1 0 -25.472057766565804 7.3966682836046527 1 0 0 I I #
edge $-1 $156 -7.3966682836046527 $231 7.3966682836046527 $153 $330 forward 7 unknown #
edge $-1 $157 -7.3966682836046527 $230 7.3966682836046527 $154 $331 forward 7 unknown #
point $-1 54.263130588702047 -25.472057766565804 7.3966682836046527 #
point $-1 54.263130588702047 25.472057766565804 7.3966682836046527 #
face $-1 $-1 $259 $22 $-1 $332 reversed single #
loop $-1 $-1 $255 $159 #
plane-surface $-1 -54.263130588702047 0 0 1 0 0 0 0 -1 forward_v I I I I #
coedge $-1 $333 $162 $252 $334 forward $96 $-1 #
coedge $-1 $162 $333 $335 $336 forward $96 $-1 #
edge $-1 $337 -25.472057766565804 $253 25.472057766565804 $162 $338 forward 7 unknown #
coedge $-1 $164 $262 $249 $334 reversed $160 $-1 #
vertex $-1 $334 $339 #
straight-curve $-1 -48.119722067777673 -25.472057766565804 -2.7270967650628264 0 0 1 I I #
coedge $-1 $340 $341 $166 $256 forward $247 $-1 #
edge $-1 $263 -25.472057766565804 $260 25.472057766565804 $255 $342 forward 7 unknown #
coedge $-1 $335 $167 $171 $265 forward $259 $-1 #
coedge $-1 $167 $335 $340 $343 reversed $259 $-1 #
loop $-1 $-1 $257 $246 #
vertex $-1 $343 $344 #
straight-curve $-1 -25.595713164119928 25.472057766565804 -3.5117187766466529 1 0 0 I I #
coedge $-1 $252 $169 $341 $345 forward $160 $-1 #
vertex $-1 $345 $346 #
straight-curve $-1 -25.595713164119928 -25.472057766565804 -3.5117187766466529 -1 0 0 I I #
edge $-1 $173 0.7846220115838265 $337 4.6695715185418258 $257 $347 forward 7 unknown #
point $-1 -48.119722067777673 -25.472057766565804 -3.5117187766466529 #
point $-1 -48.119722067777673 25.472057766565804 -3.5117187766466529 #
plane-surface $-1 0 -25.472057766565804 0 0 1 0 0 0 1 forward_v I I I I #
coedge $-1 $279 $278 $271 $348 forward $176 $-1 #
coedge $-1 $271 $178 $180 $275 reversed $104 $-1 #
coedge $-1 $178 $270 $269 $348 reversed $104 $-1 #
coedge $-1 $186 $181 $178 $273 forward $187 $-1 #
edge $-1 $276 -27.894851089871697 $349 -22.218635723298753 $272 $350 forward 7 unknown #
coedge $-1 $180 $179 $279 $351 reversed $65 $-1 #
edge $-1 $352 -6.69327051054929 $276 1.3368832564924053e-014 $270 $353 forward 7 unknown #
vertex $-1 $182 $354 #
straight-curve $-1 7.787268672221952 -25.472057766565804 1.7204529170317122 1 0 0 I I #
coedge $-1 $269 $183 $186 $283 forward $176 $-1 #
coedge $-1 $183 $269 $274 $351 forward $176 $-1 #
vertex $-1 $184 $355 #
straight-curve $-1 4.6102577608927682 -58.753773900534128 7.3966682836046544 0 -1 0 I I #
straight-curve $-1 4.6102577608927682 -25.472057766565797 1.7204529170317215 0 0.52991925155115449 0.84804810408105047 I I #
edge $-1 $188 4.6102577608927682 $349 26.53881692799504 $186 $356 forward 7 unknown #
point $-1 4.6102577608927682 -25.472057766565804 7.3966682836046527 #
point $-1 4.6102577608927682 -25.472057766565804 1.7204529170317102 #
edge $-1 $357 1 $357 0 $191 $-1 forward 7 unknown #
vertex $-1 $192 $358 #
ellipse-curve $-1 10.875560380064847 -22.743881054372654 3.9619789397917318 0 -0.84804810408105047 0.52991925155115449 1 0 0 1 I I #
point $-1 11.875560380064847 -23.698611316875962 4.5585606003181924 #
edge $-1 $359 1 $359 0 $195 $-1 forward 7 unknown #
vertex $-1 $196 $360 #
ellipse-curve $-1 20.273514308822961 -22.743881054372654 3.9619789397917318 0 -0.84804810408105047 0.52991925155115449 1 0 0 1 I I #
point $-1 21.273514308822961 -23.698611316875962 4.5585606003181924 #
plane-surface $-1 0 0 7.3966682836046527 0 0 1 1 0 0 forward_v I I I I #
coedge $-1 $305 $304 $297 $361 forward $200 $-1 #
coedge $-1 $297 $202 $204 $301 reversed $126 $-1 #
coedge $-1 $202 $296 $295 $361 reversed $126 $-1 #
coedge $-1 $210 $205 $202 $299 forward $211 $-1 #
edge $-1 $302 -14.056957194090451 $362 -9.5776115842084479 $298 $363 forward 7 unknown #
coedge $-1 $204 $203 $305 $364 reversed $79 $-1 #
edge $-1 $365 -50.944115533131587 $302 -44.376144214723269 $296 $366 forward 7 unknown #
vertex $-1 $206 $367 #
straight-curve $-1 12.923754358200544 20.992712156683801 7.3966682836046544 1 0 0 I I #
coedge $-1 $295 $207 $210 $309 reversed $200 $-1 #
coedge $-1 $207 $295 $300 $364 forward $200 $-1 #
vertex $-1 $208 $368 #
straight-curve $-1 12.311081413900574 25.472057766565804 56.933028585123857 0 0 1 I I #
straight-curve $-1 12.311081413900574 -9.2717450303616999 39.851325985380029 0 0.68199835119979291 -0.73135370988377701 I I #
edge $-1 $362 -39.383936018901601 $212 -12.311081413900574 $304 $369 forward 7 unknown #
point $-1 12.311081413900574 25.472057766565804 7.3966682836046527 #
point $-1 12.311081413900574 20.992712156683801 7.3966682836046544 #
edge $-1 $370 1 $370 0 $215 $-1 forward 7 unknown #
vertex $-1 $216 $371 #
ellipse-curve $-1 25.847508716401087 20.626032022257192 2.5644498118306567 0 0.73135370988377701 0.68199835119979291 1 0 0 1 I I #
point $-1 26.847508716401087 23.232384961624795 4.9949131885405613 #
plane-surface $-1 54.263130588702047 0 0 -1 0 0 0 0 1 forward_v I I I I #
coedge $-1 $224 $222 $226 $321 reversed $141 $-1 #
edge $-1 $237 -7.3966682836046527 $323 7.3966682836046527 $236 $372 forward 7 unknown #
vertex $-1 $321 $373 #
straight-curve $-1 -54.263130588702047 -25.472057766565804 0 0 0 -1 I I #
edge $-1 $319 -25.472057766565804 $323 25.472057766565804 $317 $374 forward 7 unknown #
straight-curve $-1 0 -25.472057766565804 -7.3966682836046527 -1 0 0 I I #
vertex $-1 $229 $375 #
straight-curve $-1 0 25.472057766565804 -7.3966682836046527 1 0 0 I I #
point $-1 54.263130588702047 25.472057766565804 -7.3966682836046527 #
point $-1 54.263130588702047 -25.472057766565804 -7.3966682836046527 #
straight-curve $-1 -54.263130588702047 0 7.3966682836046527 0 -1 0 I I #
point $-1 -54.263130588702047 25.472057766565804 7.3966682836046527 #
point $-1 -54.263130588702047 -25.472057766565804 7.3966682836046527 #
straight-curve $-1 54.263130588702047 -25.472057766565804 0 0 0 -1 I I #
straight-curve $-1 54.263130588702047 25.472057766565804 0 0 0 -1 I I #
plane-surface $-1 0 25.472057766565804 0 0 -1 0 0 0 -1 forward_v I I I I #
coedge $-1 $250 $249 $376 $377 forward $96 $-1 #
edge $-1 $253 48.119722067777673 $378 54.263130588702047 $252 $379 forward 7 unknown #
coedge $-1 $258 $257 $250 $336 reversed $259 $-1 #
edge $-1 $380 -54.263130588702047 $337 -48.119722067777673 $335 $381 forward 7 unknown #
vertex $-1 $265 $382 #
straight-curve $-1 -48.119722067777673 0 -7.3966682836046527 0 -1 0 I I #
point $-1 -48.119722067777673 -25.472057766565804 -7.3966682836046527 #
coedge $-1 $376 $255 $258 $343 forward $247 $-1 #
coedge $-1 $255 $376 $262 $345 reversed $247 $-1 #
straight-curve $-1 -54.263130588702047 0 -3.5117187766466529 0 1 0 I I #
edge $-1 $260 3.5117187766466529 $380 7.3966682836046527 $258 $383 forward 7 unknown #
point $-1 -54.26313058870204 25.472057766565804 -3.5117187766466529 #
edge $-1 $263 3.5117187766466529 $378 7.3966682836046527 $341 $384 forward 7 unknown #
point $-1 -54.26313058870204 -25.472057766565804 -3.5117187766466529 #
straight-curve $-1 -48.119722067777673 25.472057766565804 -2.7270967650628264 0 0 -1 I I #
edge $-1 $349 33.281716133968324 $352 36.828609033348023 $269 $385 forward 7 unknown #
vertex $-1 $273 $386 #
straight-curve $-1 26.53881692799504 -25.472057766565804 29.615304006903408 0 0 1 I I #
edge $-1 $352 -18.751548255773088 $280 3.1770109113291838 $279 $387 forward 7 unknown #
vertex $-1 $351 $388 #
straight-curve $-1 26.53881692799504 -25.472057766565797 1.7204529170317215 0 -0.52991925155115449 -0.84804810408105047 I I #
point $-1 26.53881692799504 -25.472057766565804 1.7204529170317102 #
point $-1 4.6102577608927682 -21.925164867186105 7.3966682836046527 #
straight-curve $-1 0 -25.472057766565804 7.3966682836046527 1 0 0 I I #
vertex $-1 $286 $389 #
point $-1 11.875560380064847 -22.743881054372654 3.9619789397917318 #
vertex $-1 $290 $390 #
point $-1 21.273514308822961 -22.743881054372654 3.9619789397917318 #
edge $-1 $362 49.536360301519203 $365 54.339870491647368 $295 $391 forward 7 unknown #
vertex $-1 $309 $392 #
straight-curve $-1 39.383936018901601 35.049669350774252 7.3966682836046544 0 1 0 I I #
edge $-1 $365 -26.460181660701057 $306 0.61267294429996966 $305 $393 forward 7 unknown #
vertex $-1 $364 $394 #
straight-curve $-1 39.383936018901601 -9.2717450303616999 39.851325985380029 0 -0.68199835119979291 0.73135370988377701 I I #
point $-1 39.383936018901601 20.992712156683801 7.3966682836046544 #
point $-1 12.311081413900574 25.472057766565804 2.5931580934764895 #
straight-curve $-1 0 25.472057766565804 7.3966682836046527 -1 0 0 I I #
vertex $-1 $312 $395 #
point $-1 26.847508716401087 20.626032022257192 2.5644498118306567 #
straight-curve $-1 -54.263130588702047 25.472057766565804 0 0 0 -1 I I #
point $-1 -54.263130588702047 -25.472057766565804 -7.3966682836046527 #
straight-curve $-1 -54.263130588702047 0 -7.3966682836046527 0 1 0 I I #
point $-1 -54.263130588702047 25.472057766565804 -7.3966682836046527 #
coedge $-1 $341 $340 $333 $377 reversed $247 $-1 #
edge $-1 $378 -25.472057766565804 $380 25.472057766565804 $376 $396 forward 7 unknown #
vertex $-1 $377 $397 #
straight-curve $-1 0 -25.472057766565804 -7.3966682836046527 -1 0 0 I I #
vertex $-1 $336 $398 #
straight-curve $-1 0 25.472057766565804 -7.3966682836046527 1 0 0 I I #
point $-1 -48.119722067777673 25.472057766565804 -7.3966682836046527 #
straight-curve $-1 -54.263130588702047 25.472057766565804 0 0 0 -1 I I #
straight-curve $-1 -54.263130588702047 -25.472057766565804 0 0 0 -1 I I #
straight-curve $-1 26.53881692799504 -58.753773900534128 7.3966682836046544 0 1 0 I I #
point $-1 26.53881692799504 -25.472057766565804 7.3966682836046527 #
straight-curve $-1 7.787268672221952 -21.925164867186105 7.3966682836046527 -1 0 0 I I #
point $-1 26.53881692799504 -21.925164867186105 7.3966682836046527 #
point $-1 10.875560380064847 -21.895832950291602 3.4320596882405772 #
point $-1 20.273514308822961 -21.895832950291602 3.4320596882405772 #
straight-curve $-1 39.383936018901601 25.472057766565804 56.933028585123857 0 0 -1 I I #
point $-1 39.383936018901601 25.472057766565804 7.3966682836046527 #
straight-curve $-1 12.923754358200544 25.472057766565804 2.5931580934764931 -1 0 0 I I #
point $-1 39.383936018901601 25.472057766565804 2.5931580934764895 #
point $-1 25.847508716401087 19.894678312373415 1.8824514606308638 #
straight-curve $-1 -54.263130588702047 0 -7.3966682836046527 0 1 0 I I #
point $-1 -54.263130588702047 -25.472057766565804 -7.3966682836046527 #
point $-1 -54.263130588702047 25.472057766565804 -7.3966682836046527 #
End-of-ACIS-data 