500 0 9 0           
7 Unknown 11 ACIS 5.0 NT 24 Fri Mar 26 14:51:50 1999 
-1 9.9999999999999995e-007 1e-010 
body $-1 $9 $-1 $10 #
body $-1 $11 $-1 $12 #
body $-1 $13 $-1 $14 #
body $-1 $15 $-1 $16 #
body $-1 $17 $-1 $18 #
body $-1 $19 $-1 $20 #
body $-1 $21 $-1 $22 #
body $-1 $23 $-1 $24 #
body $-1 $25 $-1 $26 #
lump $-1 $-1 $27 $0 #
transform $-1 1 0 0 0 1 0 0 0 1 47.099826044495984 24.700277437159642 10.307825975255847 1 rotate no_reflect no_shear #
lump $-1 $-1 $28 $1 #
transform $-1 1 0 0 0 1 0 0 0 1 47.099826044495984 24.700277437159642 10.307825975255847 1 rotate no_reflect no_shear #
lump $-1 $-1 $29 $2 #
transform $-1 1 0 0 0 1 0 0 0 1 47.099826044495984 24.700277437159642 10.307825975255847 1 rotate no_reflect no_shear #
lump $-1 $-1 $30 $3 #
transform $-1 1 0 0 0 1 0 0 0 1 47.099826044495984 24.700277437159642 10.307825975255847 1 rotate no_reflect no_shear #
lump $-1 $-1 $31 $4 #
transform $-1 1 0 0 0 1 0 0 0 1 47.099826044495984 24.700277437159642 10.307825975255847 1 rotate no_reflect no_shear #
lump $-1 $-1 $32 $5 #
transform $-1 1 0 0 0 1 0 0 0 1 47.099826044495984 24.700277437159642 10.307825975255847 1 rotate no_reflect no_shear #
lump $-1 $-1 $33 $6 #
transform $-1 1 0 0 0 1 0 0 0 1 47.099826044495984 24.700277437159642 10.307825975255847 1 rotate no_reflect no_shear #
lump $-1 $-1 $34 $7 #
transform $-1 1 0 0 0 1 0 0 0 1 47.099826044495984 24.700277437159642 10.307825975255847 1 rotate no_reflect no_shear #
lump $-1 $-1 $35 $8 #
transform $-1 1 0 0 0 1 0 0 0 1 47.099826044495984 24.700277437159642 10.307825975255847 1 rotate no_reflect no_shear #
shell $-1 $-1 $-1 $36 $-1 $9 #
shell $-1 $-1 $-1 $37 $-1 $11 #
shell $-1 $-1 $-1 $38 $-1 $13 #
shell $-1 $-1 $-1 $39 $-1 $15 #
shell $-1 $-1 $-1 $40 $-1 $17 #
shell $-1 $-1 $-1 $41 $-1 $19 #
shell $-1 $-1 $-1 $42 $-1 $21 #
shell $-1 $-1 $-1 $43 $-1 $23 #
shell $-1 $-1 $-1 $44 $-1 $25 #
face $-1 $45 $46 $27 $-1 $47 forward single #
face $-1 $48 $49 $28 $-1 $50 forward single #
face $-1 $51 $52 $29 $-1 $53 reversed single #
face $-1 $54 $55 $30 $-1 $56 forward single #
face $-1 $57 $58 $31 $-1 $59 forward single #
face $-1 $60 $61 $32 $-1 $62 forward single #
face $-1 $63 $64 $33 $-1 $65 reversed single #
face $-1 $66 $67 $34 $-1 $68 forward single #
face $-1 $69 $70 $35 $-1 $71 forward single #
face $-1 $72 $73 $27 $-1 $74 reversed single #
loop $-1 $-1 $75 $36 #
plane-surface $-1 0 0 10.307825975255847 0 0 1 1 0 0 forward_v I I I I #
face $-1 $76 $77 $28 $-1 $78 reversed single #
loop $-1 $-1 $79 $37 #
plane-surface $-1 -41.21757032173057 0 -5.1633818301174781 0 0 1 1 0 0 forward_v I I I I #
face $-1 $80 $81 $29 $-1 $82 reversed single #
loop $-1 $-1 $83 $38 #
plane-surface $-1 -35.335314598965155 -88.944286444121616 71.936871465538488 1 0 0 0 0.68199836817093118 -0.7313536940579346 forward_v I I I I #
face $-1 $84 $85 $30 $-1 $86 forward single #
loop $-1 $87 $88 $39 #
cone-surface $-1 -31.402770705858682 -20.342964731839675 6.1799043686623572 0 0.68199836817093118 -0.7313536940579346 1 0 0 1 I I 0 1 1 forward I I I I #
face $-1 $89 $90 $31 $-1 $91 forward single #
loop $-1 $92 $93 $40 #
cone-surface $-1 -25.503954866198971 -20.342964731839675 6.1799043686623572 0 0.68199836817093118 -0.7313536940579346 1 0 0 1 I I 0 1 1 forward I I I I #
face $-1 $94 $95 $32 $-1 $96 forward single #
loop $-1 $97 $98 $41 #
cone-surface $-1 -19.605139026539259 -20.342964731839675 6.1799043686623572 0 0.68199836817093118 -0.7313536940579346 1 0 0 1 I I 0 1 1 forward I I I I #
face $-1 $99 $100 $33 $-1 $101 reversed single #
loop $-1 $-1 $102 $42 #
plane-surface $-1 9.571593269732908 59.902445489564371 103.17000689762295 1 0 0 0 -0.73135370988377701 -0.68199835119979291 forward_v I I I I #
face $-1 $103 $104 $34 $-1 $105 forward single #
loop $-1 $106 $107 $43 #
cone-surface $-1 14.76369639971049 19.833444508977703 5.2796480771720873 0 -0.73135370988377701 -0.68199835119979291 2 0 0 1 I I 0 1 2 forward I I I I #
face $-1 $108 $109 $35 $-1 $110 forward single #
loop $-1 $111 $112 $44 #
cone-surface $-1 22.551851094676849 19.833444508977703 5.2796480771720873 0 -0.73135370988377701 -0.68199835119979291 2 0 0 1 I I 0 1 2 forward I I I I #
face $-1 $113 $114 $27 $-1 $115 reversed single #
loop $-1 $-1 $116 $45 #
plane-surface $-1 0 0 -10.307825975255847 0 0 1 1 0 0 forward_v I I I I #
coedge $-1 $117 $118 $119 $120 forward $46 $-1 #
face $-1 $121 $122 $28 $-1 $123 reversed single #
loop $-1 $-1 $124 $48 #
plane-surface $-1 -35.335314598965155 0 -7.7356039026866625 -1 0 0 0 0 1 forward_v I I I I #
coedge $-1 $125 $126 $127 $128 forward $49 $-1 #
face $-1 $129 $130 $29 $-1 $131 reversed single #
loop $-1 $-1 $132 $51 #
plane-surface $-1 -25.503954866198971 -24.700277437159642 3.0436079312819828 0 -0.68199836817093118 0.7313536940579346 1 0 0 forward_v I I I I #
coedge $-1 $133 $134 $135 $136 reversed $52 $-1 #
face $-1 $-1 $137 $30 $-1 $138 forward single #
loop $-1 $139 $140 $54 #
cone-surface $-1 -31.402770705858682 -19.539612822434556 5.3184149370268354 0 0.68199836817093118 -0.7313536940579346 0.5 0 0 1 I I -0.70710678118654746 0.70710678118654746 0.5 forward I I I I #
loop $-1 $-1 $141 $39 #
coedge $-1 $88 $88 $142 $143 reversed $55 $-1 #
face $-1 $-1 $144 $31 $-1 $145 forward single #
loop $-1 $146 $147 $57 #
cone-surface $-1 -25.503954866198971 -19.539612822434556 5.3184149370268354 0 0.68199836817093118 -0.7313536940579346 0.5 0 0 1 I I -0.70710678118654746 0.70710678118654746 0.5 forward I I I I #
loop $-1 $-1 $148 $40 #
coedge $-1 $93 $93 $149 $150 reversed $58 $-1 #
face $-1 $-1 $151 $32 $-1 $152 forward single #
loop $-1 $153 $154 $60 #
cone-surface $-1 -19.605139026539259 -19.539612822434556 5.3184149370268354 0 0.68199836817093118 -0.7313536940579346 0.5 0 0 1 I I -0.70710678118654746 0.70710678118654746 0.5 forward I I I I #
loop $-1 $-1 $155 $41 #
coedge $-1 $98 $98 $156 $157 reversed $61 $-1 #
face $-1 $158 $159 $33 $-1 $160 reversed single #
loop $-1 $-1 $161 $63 #
plane-surface $-1 18.657773747193659 -8.9908195354809948 38.925999489336306 0 0.73135370988377701 0.68199835119979291 1 0 0 forward_v I I I I #
coedge $-1 $162 $163 $164 $165 reversed $64 $-1 #
face $-1 $-1 $166 $34 $-1 $167 forward single #
loop $-1 $168 $169 $66 #
cone-surface $-1 14.76369639971049 17.737367411626849 3.3250246096735747 0 -0.73135370988377701 -0.68199835119979291 1 0 0 1 I I -0.70710678118654746 0.70710678118654746 1 forward I I I I #
loop $-1 $-1 $170 $43 #
coedge $-1 $107 $107 $171 $172 reversed $67 $-1 #
face $-1 $-1 $173 $35 $-1 $174 forward single #
loop $-1 $175 $176 $69 #
cone-surface $-1 22.551851094676849 17.737367411626849 3.3250246096735747 0 -0.73135370988377701 -0.68199835119979291 1 0 0 1 I I -0.70710678118654746 0.70710678118654746 1 forward I I I I #
loop $-1 $-1 $177 $44 #
coedge $-1 $112 $112 $178 $179 reversed $70 $-1 #
face $-1 $180 $181 $27 $-1 $182 reversed single #
loop $-1 $-1 $183 $72 #
plane-surface $-1 0 -24.700277437159642 0 0 1 0 0 0 1 forward_v I I I I #
coedge $-1 $184 $185 $186 $187 forward $73 $-1 #
coedge $-1 $188 $75 $189 $190 forward $46 $-1 #
coedge $-1 $75 $188 $191 $192 forward $46 $-1 #
coedge $-1 $193 $194 $75 $120 reversed $195 $-1 #
edge $-1 $196 -24.700277437159642 $197 24.700277437159642 $119 $198 forward 7 unknown #
face $-1 $199 $200 $28 $-1 $201 reversed single #
loop $-1 $-1 $202 $76 #
plane-surface $-1 0 0 -10.307825975255847 0 0 1 1 0 0 forward_v I I I I #
coedge $-1 $203 $127 $204 $205 reversed $77 $-1 #
coedge $-1 $206 $79 $207 $208 reversed $49 $-1 #
coedge $-1 $79 $206 $209 $210 reversed $49 $-1 #
coedge $-1 $124 $211 $79 $128 reversed $77 $-1 #
edge $-1 $212 -24.700277437159642 $213 24.700277437159642 $127 $214 forward 7 unknown #
face $-1 $215 $216 $29 $-1 $217 forward single #
loop $-1 $-1 $218 $80 #
plane-surface $-1 -15.672595133432786 -88.944286444121616 71.936871465538488 -1 0 0 0 -0.68199836817093118 0.7313536940579346 forward_v I I I I #
coedge $-1 $219 $220 $221 $222 reversed $81 $-1 #
coedge $-1 $134 $83 $223 $224 reversed $52 $-1 #
coedge $-1 $83 $133 $219 $225 reversed $52 $-1 #
coedge $-1 $221 $226 $83 $136 forward $227 $-1 #
edge $-1 $228 25.660609757513399 $229 32.924827801487261 $135 $230 forward 7 unknown #
loop $-1 $-1 $142 $84 #
plane-surface $-1 -25.503954866198971 -24.700277437159642 3.0436079312819828 0 -0.68199836817093118 0.7313536940579346 1 0 0 forward_v I I I I #
loop $-1 $-1 $231 $54 #
coedge $-1 $140 $140 $141 $232 reversed $85 $-1 #
coedge $-1 $141 $141 $140 $232 forward $87 $-1 #
coedge $-1 $142 $142 $88 $143 forward $137 $-1 #
edge $-1 $233 7.8108157428053546e-016 $233 6.2831853071796013 $142 $234 forward 7 unknown #
loop $-1 $-1 $149 $89 #
plane-surface $-1 -25.503954866198971 -24.700277437159642 3.0436079312819828 0 -0.68199836817093118 0.7313536940579346 1 0 0 forward_v I I I I #
loop $-1 $-1 $235 $57 #
coedge $-1 $147 $147 $148 $236 reversed $90 $-1 #
coedge $-1 $148 $148 $147 $236 forward $92 $-1 #
coedge $-1 $149 $149 $93 $150 forward $144 $-1 #
edge $-1 $237 7.8108157428053546e-016 $237 6.2831853071796013 $149 $238 forward 7 unknown #
loop $-1 $-1 $156 $94 #
plane-surface $-1 -25.503954866198971 -24.700277437159642 3.0436079312819828 0 -0.68199836817093118 0.7313536940579346 1 0 0 forward_v I I I I #
loop $-1 $-1 $239 $60 #
coedge $-1 $154 $154 $155 $240 reversed $95 $-1 #
coedge $-1 $155 $155 $154 $240 forward $97 $-1 #
coedge $-1 $156 $156 $98 $157 forward $151 $-1 #
edge $-1 $241 7.8108157428053546e-016 $241 6.2831853071796013 $156 $242 forward 7 unknown #
face $-1 $243 $244 $33 $-1 $245 reversed single #
loop $-1 $-1 $246 $99 #
plane-surface $-1 27.743954224654409 59.902445489564371 103.17000689762295 -1 0 0 0 0.73135370988377701 0.68199835119979291 forward_v I I I I #
coedge $-1 $247 $248 $249 $250 reversed $100 $-1 #
coedge $-1 $163 $102 $251 $252 reversed $64 $-1 #
coedge $-1 $102 $162 $247 $253 reversed $64 $-1 #
coedge $-1 $249 $254 $102 $165 forward $255 $-1 #
edge $-1 $256 5.2509453076225441 $257 12.255164389052258 $164 $258 forward 7 unknown #
loop $-1 $-1 $171 $103 #
plane-surface $-1 18.657773747193659 -8.9908195354809948 38.925999489336306 0 0.73135370988377701 0.68199835119979291 1 0 0 forward_v I I I I #
loop $-1 $-1 $259 $66 #
coedge $-1 $169 $169 $170 $260 reversed $104 $-1 #
coedge $-1 $170 $170 $169 $260 forward $106 $-1 #
coedge $-1 $171 $171 $107 $172 forward $166 $-1 #
edge $-1 $261 -8.6078151977605489e-016 $261 6.2831853071795996 $171 $262 forward 7 unknown #
loop $-1 $-1 $178 $108 #
plane-surface $-1 18.657773747193659 -8.9908195354809948 38.925999489336306 0 0.73135370988377701 0.68199835119979291 1 0 0 forward_v I I I I #
loop $-1 $-1 $263 $69 #
coedge $-1 $176 $176 $177 $264 reversed $109 $-1 #
coedge $-1 $177 $177 $176 $264 forward $111 $-1 #
coedge $-1 $178 $178 $112 $179 forward $173 $-1 #
edge $-1 $265 -8.6078151977605489e-016 $265 6.2831853071795996 $178 $266 forward 7 unknown #
face $-1 $267 $268 $27 $-1 $269 reversed single #
loop $-1 $-1 $270 $113 #
plane-surface $-1 -47.099826044495984 0 0 1 0 0 0 0 -1 forward_v I I I I #
coedge $-1 $271 $191 $272 $273 forward $114 $-1 #
coedge $-1 $274 $116 $271 $275 forward $73 $-1 #
coedge $-1 $116 $274 $276 $277 forward $73 $-1 #
coedge $-1 $194 $193 $116 $187 reversed $195 $-1 #
edge $-1 $278 -24.700277437159642 $279 24.700277437159642 $186 $280 forward 7 unknown #
coedge $-1 $118 $117 $281 $282 forward $46 $-1 #
coedge $-1 $283 $284 $117 $190 reversed $268 $-1 #
edge $-1 $197 -47.099826044495984 $285 47.099826044495984 $189 $286 forward 7 unknown #
coedge $-1 $183 $287 $118 $192 reversed $114 $-1 #
edge $-1 $288 -47.099826044495984 $196 47.099826044495984 $191 $289 forward 7 unknown #
coedge $-1 $186 $119 $287 $290 forward $195 $-1 #
coedge $-1 $119 $186 $283 $291 reversed $195 $-1 #
loop $-1 $-1 $193 $267 #
vertex $-1 $120 $292 #
vertex $-1 $120 $293 #
straight-curve $-1 47.099826044495984 0 10.307825975255847 0 1 0 I I #
face $-1 $294 $295 $28 $-1 $296 reversed single #
loop $-1 $-1 $204 $121 #
plane-surface $-1 0 -24.700277437159642 0 0 1 0 0 0 1 forward_v I I I I #
coedge $-1 $297 $298 $203 $299 forward $122 $-1 #
coedge $-1 $211 $124 $202 $299 reversed $77 $-1 #
coedge $-1 $209 $300 $124 $205 forward $200 $-1 #
edge $-1 $301 -6.4400240239125157 $212 -1.2955798787741468 $204 $302 forward 7 unknown #
coedge $-1 $126 $125 $303 $304 reversed $49 $-1 #
coedge $-1 $305 $306 $125 $208 forward $307 $-1 #
edge $-1 $308 -26.491040883630699 $213 -14.72652943809987 $207 $309 forward 7 unknown #
coedge $-1 $310 $204 $126 $210 forward $200 $-1 #
edge $-1 $212 14.72652943809987 $311 26.491040883630699 $209 $312 forward 7 unknown #
coedge $-1 $127 $203 $305 $313 reversed $77 $-1 #
vertex $-1 $210 $314 #
vertex $-1 $208 $315 #
straight-curve $-1 -35.335314598965155 0 -5.1633818301174781 0 1 0 I I #
face $-1 $-1 $227 $29 $-1 $316 reversed single #
loop $-1 $-1 $317 $129 #
plane-surface $-1 0 0 10.307825975255847 0 0 1 1 0 0 forward_v I I I I #
coedge $-1 $318 $319 $320 $321 reversed $130 $-1 #
coedge $-1 $322 $132 $134 $225 forward $81 $-1 #
coedge $-1 $132 $322 $318 $323 forward $81 $-1 #
coedge $-1 $320 $135 $132 $222 forward $227 $-1 #
edge $-1 $229 -22.583337165865672 $324 -2.9206177003333007 $221 $325 forward 7 unknown #
coedge $-1 $326 $327 $133 $224 forward $216 $-1 #
edge $-1 $328 -27.56178574490179 $228 -19.771865784901166 $223 $329 forward 7 unknown #
edge $-1 $229 0 $328 10.651371591190102 $134 $330 forward 7 unknown #
coedge $-1 $135 $320 $326 $331 reversed $227 $-1 #
loop $-1 $-1 $320 $215 #
vertex $-1 $331 $332 #
vertex $-1 $136 $333 #
straight-curve $-1 -35.335314598965155 -24.700277437159642 35.968435732769244 0 0 -1 I I #
coedge $-1 $231 $231 $-1 $334 reversed $139 $-1 #
edge $-1 $335 0 $335 6.2831853071796004 $140 $336 forward 7 unknown #
vertex $-1 $143 $337 #
ellipse-curve $-1 -31.402770705858682 -20.80531745715933 6.675716953268914 0 -0.68199836817093118 0.7313536940579346 1 0 0 1 I I #
coedge $-1 $235 $235 $-1 $338 reversed $146 $-1 #
edge $-1 $339 0 $339 6.2831853071796004 $147 $340 forward 7 unknown #
vertex $-1 $150 $341 #
ellipse-curve $-1 -25.503954866198971 -20.80531745715933 6.675716953268914 0 -0.68199836817093118 0.7313536940579346 1 0 0 1 I I #
coedge $-1 $239 $239 $-1 $342 reversed $153 $-1 #
edge $-1 $343 0 $343 6.2831853071796004 $154 $344 forward 7 unknown #
vertex $-1 $157 $345 #
ellipse-curve $-1 -19.605139026539259 -20.80531745715933 6.675716953268914 0 -0.68199836817093118 0.7313536940579346 1 0 0 1 I I #
face $-1 $-1 $255 $33 $-1 $346 forward single #
loop $-1 $-1 $347 $158 #
plane-surface $-1 0 24.700277437159642 0 0 -1 0 0 0 -1 forward_v I I I I #
coedge $-1 $348 $349 $350 $351 reversed $159 $-1 #
coedge $-1 $352 $161 $163 $253 forward $100 $-1 #
coedge $-1 $161 $352 $348 $353 forward $100 $-1 #
coedge $-1 $350 $164 $161 $250 forward $255 $-1 #
edge $-1 $257 0.24270639613607869 $354 18.41506735105758 $249 $355 forward 7 unknown #
coedge $-1 $356 $357 $162 $252 forward $244 $-1 #
edge $-1 $358 -48.788283037125673 $256 -41.277177473555632 $251 $359 forward 7 unknown #
edge $-1 $257 39.130414090096451 $358 49.400554874319269 $163 $360 forward 7 unknown #
coedge $-1 $164 $350 $356 $361 forward $255 $-1 #
loop $-1 $-1 $350 $243 #
vertex $-1 $252 $362 #
vertex $-1 $165 $363 #
straight-curve $-1 9.571593269732908 29.951222744782186 10.307825975255845 0 -1 0 I I #
coedge $-1 $259 $259 $-1 $364 reversed $168 $-1 #
edge $-1 $365 0 $365 6.2831853071796004 $169 $366 forward 7 unknown #
vertex $-1 $172 $367 #
ellipse-curve $-1 14.76369639971049 21.198167896444794 6.5522731934708212 0 0.73135370988377701 0.68199835119979291 2 0 0 1 I I #
coedge $-1 $263 $263 $-1 $368 reversed $175 $-1 #
edge $-1 $369 0 $369 6.2831853071796004 $176 $370 forward 7 unknown #
vertex $-1 $179 $371 #
ellipse-curve $-1 22.551851094676849 21.198167896444794 6.5522731934708212 0 0.73135370988377701 0.68199835119979291 2 0 0 1 I I #
face $-1 $-1 $195 $27 $-1 $372 reversed single #
loop $-1 $-1 $283 $180 #
plane-surface $-1 0 24.700277437159642 0 0 -1 0 0 0 -1 forward_v I I I I #
coedge $-1 $373 $281 $284 $374 forward $181 $-1 #
coedge $-1 $287 $183 $184 $275 reversed $114 $-1 #
coedge $-1 $281 $373 $183 $273 reversed $181 $-1 #
edge $-1 $288 -10.307825975255847 $375 10.307825975255847 $272 $376 forward 7 unknown #
coedge $-1 $185 $184 $373 $377 forward $73 $-1 #
edge $-1 $279 -47.099826044495984 $375 47.099826044495984 $271 $378 forward 7 unknown #
coedge $-1 $284 $283 $185 $277 reversed $268 $-1 #
edge $-1 $379 -47.099826044495984 $278 47.099826044495984 $276 $380 forward 7 unknown #
vertex $-1 $187 $381 #
vertex $-1 $290 $382 #
straight-curve $-1 47.099826044495984 0 -10.307825975255847 0 -1 0 I I #
coedge $-1 $270 $272 $188 $282 reversed $181 $-1 #
edge $-1 $285 -24.700277437159642 $288 24.700277437159642 $281 $383 forward 7 unknown #
coedge $-1 $276 $189 $194 $291 forward $268 $-1 #
coedge $-1 $189 $276 $270 $374 reversed $268 $-1 #
vertex $-1 $190 $384 #
straight-curve $-1 0 24.700277437159642 10.307825975255847 -1 0 0 I I #
coedge $-1 $191 $271 $193 $290 reversed $114 $-1 #
vertex $-1 $282 $385 #
straight-curve $-1 0 -24.700277437159642 10.307825975255847 1 0 0 I I #
edge $-1 $196 -10.307825975255847 $279 10.307825975255847 $193 $386 forward 7 unknown #
edge $-1 $197 -10.307825975255847 $278 10.307825975255847 $194 $387 forward 7 unknown #
point $-1 47.099826044495984 -24.700277437159642 10.307825975255847 #
point $-1 47.099826044495984 24.700277437159642 10.307825975255847 #
face $-1 $-1 $307 $28 $-1 $388 reversed single #
loop $-1 $-1 $303 $199 #
plane-surface $-1 -47.099826044495984 0 0 1 0 0 0 0 -1 forward_v I I I I #
coedge $-1 $389 $202 $300 $390 forward $122 $-1 #
coedge $-1 $202 $389 $391 $392 forward $122 $-1 #
edge $-1 $393 -24.700277437159642 $301 24.700277437159642 $202 $394 forward 7 unknown #
coedge $-1 $204 $310 $297 $390 reversed $200 $-1 #
vertex $-1 $390 $395 #
straight-curve $-1 -35.335314598965155 -24.700277437159642 -3.8678019513433313 0 0 1 I I #
coedge $-1 $396 $397 $206 $304 forward $295 $-1 #
edge $-1 $311 -24.700277437159642 $308 24.700277437159642 $303 $398 forward 7 unknown #
coedge $-1 $391 $207 $211 $313 forward $307 $-1 #
coedge $-1 $207 $391 $396 $399 reversed $307 $-1 #
loop $-1 $-1 $305 $294 #
vertex $-1 $399 $400 #
straight-curve $-1 -20.608785160865285 24.700277437159642 -5.1633818301174781 1 0 0 I I #
coedge $-1 $300 $209 $397 $401 forward $200 $-1 #
vertex $-1 $401 $402 #
straight-curve $-1 -20.608785160865285 -24.700277437159642 -5.1633818301174781 -1 0 0 I I #
edge $-1 $213 1.2955798787741468 $393 6.4400240239125157 $305 $403 forward 7 unknown #
point $-1 -35.335314598965155 -24.700277437159642 -5.1633818301174781 #
point $-1 -35.335314598965155 24.700277437159642 -5.1633818301174781 #
plane-surface $-1 0 -24.700277437159642 0 0 1 0 0 0 1 forward_v I I I I #
coedge $-1 $327 $326 $319 $404 forward $216 $-1 #
coedge $-1 $319 $218 $220 $323 reversed $130 $-1 #
coedge $-1 $218 $318 $317 $404 reversed $130 $-1 #
coedge $-1 $226 $221 $218 $321 forward $227 $-1 #
edge $-1 $324 -32.924827801487261 $405 -25.660609757513399 $320 $406 forward 7 unknown #
coedge $-1 $220 $219 $327 $407 reversed $81 $-1 #
edge $-1 $408 -10.651371591190102 $324 0 $318 $409 forward 7 unknown #
vertex $-1 $222 $410 #
straight-curve $-1 -12.751977433099485 -24.700277437159642 3.0436079312819841 1 0 0 I I #
coedge $-1 $317 $223 $226 $331 forward $216 $-1 #
coedge $-1 $223 $317 $322 $407 forward $216 $-1 #
vertex $-1 $224 $411 #
straight-curve $-1 -35.335314598965155 -44.472143222060808 10.307825975255845 0 -1 0 I I #
straight-curve $-1 -35.335314598965155 -24.700277437159642 3.0436079312819828 0 0.7313536940579346 0.68199836817093118 I I #
edge $-1 $228 -35.335314598965155 $405 -15.672595133432786 $226 $412 forward 7 unknown #
point $-1 -35.335314598965155 -24.700277437159642 10.307825975255847 #
point $-1 -35.335314598965155 -24.700277437159642 3.0436079312819828 #
edge $-1 $413 1 $413 0 $231 $-1 forward 7 unknown #
vertex $-1 $232 $414 #
ellipse-curve $-1 -31.402770705858682 -19.880612006520021 5.684091784055803 0 -0.68199836817093118 0.7313536940579346 1 0 0 1 I I #
point $-1 -30.402770705858682 -20.805317457159326 6.6757169532689113 #
edge $-1 $415 1 $415 0 $235 $-1 forward 7 unknown #
vertex $-1 $236 $416 #
ellipse-curve $-1 -25.503954866198971 -19.880612006520021 5.684091784055803 0 -0.68199836817093118 0.7313536940579346 1 0 0 1 I I #
point $-1 -24.503954866198971 -20.805317457159326 6.6757169532689113 #
edge $-1 $417 1 $417 0 $239 $-1 forward 7 unknown #
vertex $-1 $240 $418 #
ellipse-curve $-1 -19.605139026539259 -19.880612006520021 5.684091784055803 0 -0.68199836817093118 0.7313536940579346 1 0 0 1 I I #
point $-1 -18.605139026539259 -20.805317457159326 6.6757169532689113 #
plane-surface $-1 0 0 10.307825975255847 0 0 1 1 0 0 forward_v I I I I #
coedge $-1 $357 $356 $349 $419 forward $244 $-1 #
coedge $-1 $349 $246 $248 $353 reversed $159 $-1 #
coedge $-1 $246 $348 $347 $419 reversed $159 $-1 #
coedge $-1 $254 $249 $246 $351 forward $255 $-1 #
edge $-1 $354 -12.255164389052258 $420 -5.2509453076225441 $350 $421 forward 7 unknown #
coedge $-1 $248 $247 $357 $422 reversed $100 $-1 #
edge $-1 $423 -49.400554874319269 $354 -39.130414090096451 $348 $424 forward 7 unknown #
vertex $-1 $250 $425 #
straight-curve $-1 9.3288868735968293 17.696058355729932 10.307825975255845 1 0 0 I I #
coedge $-1 $347 $251 $254 $361 reversed $244 $-1 #
coedge $-1 $251 $347 $352 $422 forward $244 $-1 #
vertex $-1 $252 $426 #
straight-curve $-1 9.571593269732908 24.700277437159642 51.585003448811477 0 0 1 I I #
straight-curve $-1 9.571593269732908 -8.9908195354809948 38.925999489336306 0 0.68199835119979291 -0.73135370988377701 I I #
edge $-1 $420 -27.743954224654409 $256 -9.571593269732908 $356 $427 forward 7 unknown #
point $-1 9.571593269732908 24.700277437159642 10.307825975255847 #
point $-1 9.571593269732908 17.696058355729928 10.307825975255845 #
edge $-1 $428 1 $428 0 $259 $-1 forward 7 unknown #
vertex $-1 $260 $429 #
ellipse-curve $-1 14.76369639971049 18.468721121510626 4.0070229608733676 0 0.73135370988377701 0.68199835119979291 2 0 0 1 I I #
point $-1 16.76369639971049 21.198167896444776 6.5522731934708069 #
edge $-1 $430 1 $430 0 $263 $-1 forward 7 unknown #
vertex $-1 $264 $431 #
ellipse-curve $-1 22.551851094676849 18.468721121510626 4.0070229608733676 0 0.73135370988377701 0.68199835119979291 2 0 0 1 I I #
point $-1 24.551851094676849 21.198167896444776 6.5522731934708069 #
plane-surface $-1 47.099826044495984 0 0 -1 0 0 0 0 1 forward_v I I I I #
coedge $-1 $272 $270 $274 $377 reversed $181 $-1 #
edge $-1 $285 -10.307825975255847 $379 10.307825975255847 $284 $432 forward 7 unknown #
vertex $-1 $377 $433 #
straight-curve $-1 -47.099826044495984 -24.700277437159642 0 0 0 -1 I I #
edge $-1 $375 -24.700277437159642 $379 24.700277437159642 $373 $434 forward 7 unknown #
straight-curve $-1 0 -24.700277437159642 -10.307825975255847 -1 0 0 I I #
vertex $-1 $277 $435 #
straight-curve $-1 0 24.700277437159642 -10.307825975255847 1 0 0 I I #
point $-1 47.099826044495984 24.700277437159642 -10.307825975255847 #
point $-1 47.099826044495984 -24.700277437159642 -10.307825975255847 #
straight-curve $-1 -47.099826044495984 0 10.307825975255847 0 -1 0 I I #
point $-1 -47.099826044495984 24.700277437159642 10.307825975255847 #
point $-1 -47.099826044495984 -24.700277437159642 10.307825975255847 #
straight-curve $-1 47.099826044495984 -24.700277437159642 0 0 0 -1 I I #
straight-curve $-1 47.099826044495984 24.700277437159642 0 0 0 -1 I I #
plane-surface $-1 0 24.700277437159642 0 0 -1 0 0 0 -1 forward_v I I I I #
coedge $-1 $298 $297 $436 $437 forward $122 $-1 #
edge $-1 $301 35.335314598965155 $438 47.099826044495984 $300 $439 forward 7 unknown #
coedge $-1 $306 $305 $298 $392 reversed $307 $-1 #
edge $-1 $440 -47.099826044495984 $393 -35.335314598965155 $391 $441 forward 7 unknown #
vertex $-1 $313 $442 #
straight-curve $-1 -35.335314598965155 0 -10.307825975255847 0 -1 0 I I #
point $-1 -35.335314598965155 -24.700277437159642 -10.307825975255847 #
coedge $-1 $436 $303 $306 $399 forward $295 $-1 #
coedge $-1 $303 $436 $310 $401 reversed $295 $-1 #
straight-curve $-1 -47.099826044495984 0 -5.1633818301174781 0 1 0 I I #
edge $-1 $308 5.1633818301174781 $440 10.307825975255847 $306 $443 forward 7 unknown #
point $-1 -47.099826044495984 24.700277437159642 -5.1633818301174781 #
edge $-1 $311 5.1633818301174781 $438 10.307825975255847 $397 $444 forward 7 unknown #
point $-1 -47.099826044495984 -24.700277437159642 -5.1633818301174781 #
straight-curve $-1 -35.335314598965155 24.700277437159642 -3.8678019513433313 0 0 -1 I I #
edge $-1 $405 19.771865784901166 $408 27.56178574490179 $317 $445 forward 7 unknown #
vertex $-1 $321 $446 #
straight-curve $-1 -15.672595133432786 -24.700277437159642 35.968435732769244 0 0 1 I I #
edge $-1 $408 2.9206177003333007 $328 22.583337165865672 $327 $447 forward 7 unknown #
vertex $-1 $407 $448 #
straight-curve $-1 -15.672595133432786 -24.700277437159642 3.0436079312819828 0 -0.7313536940579346 -0.68199836817093118 I I #
point $-1 -15.672595133432786 -24.700277437159642 3.0436079312819828 #
point $-1 -35.335314598965155 -16.910357477159017 10.307825975255847 #
straight-curve $-1 0 -24.700277437159642 10.307825975255847 1 0 0 I I #
vertex $-1 $334 $449 #
point $-1 -30.402770705858682 -19.880612006520021 5.684091784055803 #
vertex $-1 $338 $450 #
point $-1 -24.503954866198971 -19.880612006520021 5.684091784055803 #
vertex $-1 $342 $451 #
point $-1 -18.605139026539259 -19.880612006520021 5.684091784055803 #
edge $-1 $420 41.277177473555632 $423 48.788283037125673 $347 $452 forward 7 unknown #
vertex $-1 $361 $453 #
straight-curve $-1 27.743954224654409 29.951222744782186 10.307825975255845 0 1 0 I I #
edge $-1 $423 -18.41506735105758 $358 -0.24270639613607869 $357 $454 forward 7 unknown #
vertex $-1 $422 $455 #
straight-curve $-1 27.743954224654409 -8.9908195354809948 38.925999489336306 0 -0.68199835119979291 0.73135370988377701 I I #
point $-1 27.743954224654409 17.696058355729928 10.307825975255845 #
point $-1 9.571593269732908 24.700277437159642 2.7967204116858042 #
straight-curve $-1 0 24.700277437159642 10.307825975255847 -1 0 0 I I #
vertex $-1 $364 $456 #
point $-1 16.76369639971049 18.468721121510626 4.0070229608733676 #
vertex $-1 $368 $457 #
point $-1 24.551851094676849 18.468721121510626 4.0070229608733676 #
straight-curve $-1 -47.099826044495984 24.700277437159642 0 0 0 -1 I I #
point $-1 -47.099826044495984 -24.700277437159642 -10.307825975255847 #
straight-curve $-1 -47.099826044495984 0 -10.307825975255847 0 1 0 I I #
point $-1 -47.099826044495984 24.700277437159642 -10.307825975255847 #
coedge $-1 $397 $396 $389 $437 reversed $295 $-1 #
edge $-1 $438 -24.700277437159642 $440 24.700277437159642 $436 $458 forward 7 unknown #
vertex $-1 $437 $459 #
straight-curve $-1 0 -24.700277437159642 -10.307825975255847 -1 0 0 I I #
vertex $-1 $392 $460 #
straight-curve $-1 0 24.700277437159642 -10.307825975255847 1 0 0 I I #
point $-1 -35.335314598965155 24.700277437159642 -10.307825975255847 #
straight-curve $-1 -47.099826044495984 24.700277437159642 0 0 0 -1 I I #
straight-curve $-1 -47.099826044495984 -24.700277437159642 0 0 0 -1 I I #
straight-curve $-1 -15.672595133432786 -44.472143222060808 10.307825975255845 0 1 0 I I #
point $-1 -15.672595133432786 -24.700277437159642 10.307825975255847 #
straight-curve $-1 -12.751977433099485 -16.910357477159021 10.307825975255847 -1 0 0 I I #
point $-1 -15.672595133432786 -16.910357477159017 10.307825975255847 #
point $-1 -31.402770705858682 -19.198613638349091 4.9527380899978679 #
point $-1 -25.503954866198971 -19.198613638349091 4.9527380899978679 #
point $-1 -19.605139026539259 -19.198613638349091 4.9527380899978679 #
straight-curve $-1 27.743954224654409 24.700277437159642 51.585003448811477 0 0 -1 I I #
point $-1 27.743954224654409 24.700277437159642 10.307825975255847 #
straight-curve $-1 9.3288868735968293 24.700277437159642 2.7967204116858042 -1 0 0 I I #
point $-1 27.743954224654409 24.700277437159642 2.7967204116858042 #
point $-1 14.76369639971049 17.006013701743072 2.6430262584737818 #
point $-1 22.551851094676849 17.006013701743072 2.6430262584737818 #
straight-curve $-1 -47.099826044495984 0 -10.307825975255847 0 1 0 I I #
point $-1 -47.099826044495984 -24.700277437159642 -10.307825975255847 #
point $-1 -47.099826044495984 24.700277437159642 -10.307825975255847 #
End-of-ACIS-data 