500 0 8 0           
7 Unknown 11 ACIS 5.0 NT 24 Thu Mar 25 23:52:02 1999 
-1 9.9999999999999995e-007 1e-010 
body $-1 $8 $-1 $9 #
body $-1 $10 $-1 $11 #
body $-1 $12 $-1 $13 #
body $-1 $14 $-1 $15 #
body $-1 $16 $-1 $17 #
body $-1 $18 $-1 $19 #
body $-1 $20 $-1 $21 #
body $-1 $22 $-1 $23 #
lump $-1 $-1 $24 $0 #
transform $-1 1 0 0 0 1 0 0 0 1 61.399578844569234 34.506462124171954 15.22593560521646 1 rotate no_reflect no_shear #
lump $-1 $-1 $25 $1 #
transform $-1 1 0 0 0 1 0 0 0 1 61.399578844569234 34.506462124171954 15.22593560521646 1 rotate no_reflect no_shear #
lump $-1 $-1 $26 $2 #
transform $-1 1 0 0 0 1 0 0 0 1 61.399578844569234 34.506462124171954 15.22593560521646 1 rotate no_reflect no_shear #
lump $-1 $-1 $27 $3 #
transform $-1 1 0 0 0 1 0 0 0 1 61.399578844569234 34.506462124171954 15.22593560521646 1 rotate no_reflect no_shear #
lump $-1 $-1 $28 $4 #
transform $-1 1 0 0 0 1 0 0 0 1 61.399578844569234 34.506462124171954 15.22593560521646 1 rotate no_reflect no_shear #
lump $-1 $-1 $29 $5 #
transform $-1 1 0 0 0 1 0 0 0 1 61.399578844569234 34.506462124171954 15.22593560521646 1 rotate no_reflect no_shear #
lump $-1 $-1 $30 $6 #
transform $-1 1 0 0 0 1 0 0 0 1 61.399578844569234 34.506462124171954 15.22593560521646 1 rotate no_reflect no_shear #
lump $-1 $-1 $31 $7 #
transform $-1 1 0 0 0 1 0 0 0 1 61.399578844569234 34.506462124171954 15.22593560521646 1 rotate no_reflect no_shear #
shell $-1 $-1 $-1 $32 $-1 $8 #
shell $-1 $-1 $-1 $33 $-1 $10 #
shell $-1 $-1 $-1 $34 $-1 $12 #
shell $-1 $-1 $-1 $35 $-1 $14 #
shell $-1 $-1 $-1 $36 $-1 $16 #
shell $-1 $-1 $-1 $37 $-1 $18 #
shell $-1 $-1 $-1 $38 $-1 $20 #
shell $-1 $-1 $-1 $39 $-1 $22 #
face $-1 $40 $41 $24 $-1 $42 forward single #
face $-1 $43 $44 $25 $-1 $45 forward single #
face $-1 $46 $47 $26 $-1 $48 reversed single #
face $-1 $49 $50 $27 $-1 $51 forward single #
face $-1 $52 $53 $28 $-1 $54 forward single #
face $-1 $55 $56 $29 $-1 $57 reversed single #
face $-1 $58 $59 $30 $-1 $60 forward single #
face $-1 $61 $62 $31 $-1 $63 forward single #
face $-1 $64 $65 $24 $-1 $66 reversed single #
loop $-1 $-1 $67 $32 #
plane-surface $-1 0 0 15.22593560521646 0 0 1 1 0 0 forward_v I I I I #
face $-1 $68 $69 $25 $-1 $70 reversed single #
loop $-1 $-1 $71 $33 #
plane-surface $-1 0 -34.506462124171954 0 0 1 0 0 0 1 forward_v I I I I #
face $-1 $72 $73 $26 $-1 $74 reversed single #
loop $-1 $-1 $75 $34 #
plane-surface $-1 -124.64582146268407 23.519922229646532 115.82983602418822 0 1 0 -0.51503808176128008 0 0.85716729658548041 forward_v I I I I #
face $-1 $76 $77 $27 $-1 $78 forward single #
loop $-1 $79 $80 $35 #
cone-surface $-1 -56.067455702762253 26.658933628082366 10.471524430900713 0.51503808176128008 0 -0.85716729658548041 1.2857509448782207 0 0.77255712264192011 1 I I 0 1 1.5 forward I I I I #
face $-1 $81 $82 $28 $-1 $83 forward single #
loop $-1 $84 $85 $36 #
cone-surface $-1 -56.067455702762253 31.367450725736113 10.471524430900713 0.51503808176128008 0 -0.85716729658548041 1.2857509448782207 0 0.77255712264192011 1 I I 0 1 1.5 forward I I I I #
face $-1 $86 $87 $29 $-1 $88 reversed single #
loop $-1 $-1 $89 $37 #
plane-surface $-1 73.513785630170688 22.026320810379364 179.16891180007704 0 -1 0 -0.75470958851134928 0 -0.65605901945558964 forward_v I I I I #
face $-1 $90 $91 $30 $-1 $92 forward single #
loop $-1 $93 $94 $38 #
cone-surface $-1 56.304346438890732 14.199955373554303 9.6607513388909503 -0.75470958851134928 0 -0.65605901945558964 0.65605901945558964 0 -0.75470958851134928 1 I I 0 1 1 forward I I I I #
face $-1 $95 $96 $31 $-1 $97 forward single #
loop $-1 $98 $99 $39 #
cone-surface $-1 56.304346438890732 18.895774635649339 9.6607513388909503 -0.75470958851134928 0 -0.65605901945558964 0.65605901945558964 0 -0.75470958851134928 1 I I 0 1 1 forward I I I I #
face $-1 $100 $101 $24 $-1 $102 reversed single #
loop $-1 $-1 $103 $40 #
plane-surface $-1 0 0 -15.22593560521646 0 0 1 1 0 0 forward_v I I I I #
coedge $-1 $104 $105 $106 $107 forward $41 $-1 #
face $-1 $108 $109 $25 $-1 $110 forward single #
loop $-1 $-1 $111 $43 #
plane-surface $-1 -61.399578844569234 0 0 1 0 0 0 0 -1 forward_v I I I I #
coedge $-1 $112 $113 $114 $115 forward $44 $-1 #
face $-1 $116 $117 $26 $-1 $118 forward single #
loop $-1 $-1 $119 $46 #
plane-surface $-1 -61.399578844569241 29.013192176909243 10.570414004815277 -0.51503808176128008 0 0.85716729658548041 0.85716729658548041 0 0.51503808176128008 forward_v I I I I #
coedge $-1 $120 $121 $122 $123 reversed $47 $-1 #
face $-1 $-1 $124 $27 $-1 $125 forward single #
loop $-1 $126 $127 $49 #
cone-surface $-1 -54.223098469088534 26.658933628082366 7.401998584346444 0.51503808176128008 0 -0.85716729658548041 0.64287547243911036 0 0.38627856132096006 1 I I -0.70710678118654757 0.70710678118654757 0.75 forward I I I I #
loop $-1 $-1 $128 $35 #
coedge $-1 $80 $80 $129 $130 reversed $50 $-1 #
face $-1 $-1 $131 $28 $-1 $132 forward single #
loop $-1 $133 $134 $52 #
cone-surface $-1 -54.223098469088534 31.367450725736113 7.401998584346444 0.51503808176128008 0 -0.85716729658548041 0.64287547243911036 0 0.38627856132096006 1 I I -0.70710678118654757 0.70710678118654757 0.75 forward I I I I #
loop $-1 $-1 $135 $36 #
coedge $-1 $85 $85 $136 $137 reversed $53 $-1 #
face $-1 $138 $139 $29 $-1 $140 reversed single #
loop $-1 $-1 $141 $55 #
plane-surface $-1 -19.163916138939314 16.547865004601825 98.605416816568521 0.75470958851134928 0 0.65605901945558964 0.65605901945558964 0 -0.75470958851134928 forward_v I I I I #
coedge $-1 $142 $143 $144 $145 reversed $56 $-1 #
face $-1 $-1 $146 $30 $-1 $147 forward single #
loop $-1 $148 $149 $58 #
cone-surface $-1 54.873169043910124 14.199955373554303 8.4166478417165997 -0.75470958851134928 0 -0.65605901945558964 0.32802950972779482 0 -0.37735479425567464 1 I I -0.70710678118654746 0.70710678118654746 0.5 forward I I I I #
loop $-1 $-1 $150 $38 #
coedge $-1 $94 $94 $151 $152 reversed $59 $-1 #
face $-1 $-1 $153 $31 $-1 $154 forward single #
loop $-1 $155 $156 $61 #
cone-surface $-1 54.873169043910124 18.895774635649339 8.4166478417165997 -0.75470958851134928 0 -0.65605901945558964 0.32802950972779482 0 -0.37735479425567464 1 I I -0.70710678118654746 0.70710678118654746 0.5 forward I I I I #
loop $-1 $-1 $157 $39 #
coedge $-1 $99 $99 $158 $159 reversed $62 $-1 #
face $-1 $160 $161 $24 $-1 $162 reversed single #
loop $-1 $-1 $163 $64 #
plane-surface $-1 0 -34.506462124171954 0 0 1 0 0 0 1 forward_v I I I I #
coedge $-1 $164 $165 $166 $167 forward $65 $-1 #
coedge $-1 $168 $67 $169 $170 forward $41 $-1 #
coedge $-1 $67 $168 $171 $172 forward $41 $-1 #
coedge $-1 $173 $174 $67 $107 reversed $175 $-1 #
edge $-1 $176 -34.506462124171954 $177 34.506462124171954 $106 $178 forward 7 unknown #
face $-1 $179 $180 $25 $-1 $181 reversed single #
loop $-1 $-1 $182 $68 #
plane-surface $-1 0 -40.832588141804258 12.702692703201869 0 0 1 1 0 0 forward_v I I I I #
coedge $-1 $183 $184 $113 $185 forward $69 $-1 #
coedge $-1 $186 $71 $187 $188 reversed $44 $-1 #
coedge $-1 $71 $186 $111 $185 reversed $44 $-1 #
coedge $-1 $189 $182 $71 $115 reversed $109 $-1 #
edge $-1 $190 -61.399578844569234 $191 61.399578844569234 $114 $192 forward 7 unknown #
face $-1 $193 $194 $26 $-1 $195 reversed single #
loop $-1 $-1 $122 $72 #
plane-surface $-1 0 0 15.22593560521646 0 0 1 1 0 0 forward_v I I I I #
coedge $-1 $196 $197 $198 $199 reversed $73 $-1 #
coedge $-1 $121 $75 $200 $201 reversed $47 $-1 #
coedge $-1 $75 $120 $196 $202 reversed $47 $-1 #
coedge $-1 $198 $203 $75 $123 forward $117 $-1 #
edge $-1 $204 0.9233318867728002 $205 8.6714208256812242 $122 $206 forward 7 unknown #
loop $-1 $-1 $129 $76 #
plane-surface $-1 -61.399578844569241 29.013192176909243 10.570414004815277 -0.51503808176128008 0 0.85716729658548041 0.85716729658548041 0 0.51503808176128008 forward_v I I I I #
loop $-1 $-1 $207 $49 #
coedge $-1 $127 $127 $128 $208 reversed $77 $-1 #
coedge $-1 $128 $128 $127 $208 forward $79 $-1 #
coedge $-1 $129 $129 $80 $130 forward $124 $-1 #
edge $-1 $209 0 $209 6.2831853071796004 $129 $210 forward 7 unknown #
loop $-1 $-1 $136 $81 #
plane-surface $-1 -61.399578844569241 29.013192176909243 10.570414004815277 -0.51503808176128008 0 0.85716729658548041 0.85716729658548041 0 0.51503808176128008 forward_v I I I I #
loop $-1 $-1 $211 $52 #
coedge $-1 $134 $134 $135 $212 reversed $82 $-1 #
coedge $-1 $135 $135 $134 $212 forward $84 $-1 #
coedge $-1 $136 $136 $85 $137 forward $131 $-1 #
edge $-1 $213 0 $213 6.2831853071796004 $136 $214 forward 7 unknown #
face $-1 $215 $216 $29 $-1 $217 reversed single #
loop $-1 $-1 $218 $86 #
plane-surface $-1 73.513785630170688 11.069409198824285 179.16891180007704 0 1 0 0.75470958851134928 0 0.65605901945558964 forward_v I I I I #
coedge $-1 $219 $220 $221 $222 reversed $87 $-1 #
coedge $-1 $143 $89 $223 $224 reversed $56 $-1 #
coedge $-1 $89 $142 $219 $225 reversed $56 $-1 #
coedge $-1 $221 $226 $89 $145 forward $227 $-1 #
edge $-1 $228 -24.64268602948389 $229 -16.559866419576728 $144 $230 forward 7 unknown #
loop $-1 $-1 $151 $90 #
plane-surface $-1 -19.163916138939314 16.547865004601825 98.605416816568521 0.75470958851134928 0 0.65605901945558964 0.65605901945558964 0 -0.75470958851134928 forward_v I I I I #
loop $-1 $-1 $231 $58 #
coedge $-1 $149 $149 $150 $232 reversed $91 $-1 #
coedge $-1 $150 $150 $149 $232 forward $93 $-1 #
coedge $-1 $151 $151 $94 $152 forward $146 $-1 #
edge $-1 $233 0 $233 6.2831853071796004 $151 $234 forward 7 unknown #
loop $-1 $-1 $158 $95 #
plane-surface $-1 -19.163916138939314 16.547865004601825 98.605416816568521 0.75470958851134928 0 0.65605901945558964 0.65605901945558964 0 -0.75470958851134928 forward_v I I I I #
loop $-1 $-1 $235 $61 #
coedge $-1 $156 $156 $157 $236 reversed $96 $-1 #
coedge $-1 $157 $157 $156 $236 forward $98 $-1 #
coedge $-1 $158 $158 $99 $159 forward $153 $-1 #
edge $-1 $237 0 $237 6.2831853071796004 $158 $238 forward 7 unknown #
face $-1 $239 $240 $24 $-1 $241 reversed single #
loop $-1 $-1 $242 $100 #
plane-surface $-1 -61.399578844569234 0 0 1 0 0 0 0 -1 forward_v I I I I #
coedge $-1 $243 $171 $244 $245 forward $101 $-1 #
coedge $-1 $246 $103 $243 $247 forward $65 $-1 #
coedge $-1 $103 $246 $248 $249 forward $65 $-1 #
coedge $-1 $174 $173 $103 $167 reversed $175 $-1 #
edge $-1 $250 -34.506462124171954 $251 34.506462124171954 $166 $252 forward 7 unknown #
coedge $-1 $105 $104 $253 $254 forward $41 $-1 #
coedge $-1 $255 $256 $104 $170 reversed $240 $-1 #
edge $-1 $177 -61.399578844569234 $257 61.399578844569234 $169 $258 forward 7 unknown #
coedge $-1 $163 $259 $105 $172 reversed $101 $-1 #
edge $-1 $260 -61.399578844569234 $176 61.399578844569234 $171 $261 forward 7 unknown #
coedge $-1 $166 $106 $259 $262 forward $175 $-1 #
coedge $-1 $106 $166 $255 $263 reversed $175 $-1 #
loop $-1 $-1 $173 $239 #
vertex $-1 $107 $264 #
vertex $-1 $107 $265 #
straight-curve $-1 61.399578844569234 0 15.22593560521646 0 1 0 I I #
face $-1 $266 $267 $25 $-1 $268 reversed single #
loop $-1 $-1 $269 $108 #
plane-surface $-1 0 -40.832588141804258 8.8699780189480038 0 0 1 1 0 0 forward_v I I I I #
coedge $-1 $114 $270 $271 $272 forward $109 $-1 #
coedge $-1 $273 $111 $274 $275 reversed $69 $-1 #
coedge $-1 $111 $273 $189 $276 reversed $69 $-1 #
edge $-1 $190 -12.702692703201869 $277 -8.8699780189480038 $111 $278 forward 7 unknown #
coedge $-1 $113 $112 $279 $280 forward $44 $-1 #
coedge $-1 $271 $281 $112 $188 forward $282 $-1 #
edge $-1 $283 8.8699780189480038 $191 12.702692703201869 $187 $284 forward 7 unknown #
coedge $-1 $270 $114 $184 $276 forward $109 $-1 #
vertex $-1 $185 $285 #
vertex $-1 $272 $286 #
straight-curve $-1 0 -34.506462124171954 12.702692703201869 1 0 0 I I #
face $-1 $-1 $287 $26 $-1 $288 reversed single #
loop $-1 $-1 $289 $116 #
plane-surface $-1 0 34.506462124171954 0 0 -1 0 0 0 -1 forward_v I I I I #
coedge $-1 $290 $119 $121 $202 forward $73 $-1 #
coedge $-1 $119 $290 $289 $291 reversed $73 $-1 #
coedge $-1 $292 $122 $119 $199 forward $117 $-1 #
edge $-1 $205 9.0133261411919108 $293 19.999866035717332 $198 $294 forward 7 unknown #
coedge $-1 $295 $296 $120 $201 forward $287 $-1 #
edge $-1 $297 -47.344504007278829 $204 -42.688982406877656 $200 $298 forward 7 unknown #
edge $-1 $205 -9.0391793641368334 $297 -7.9203227973758348e-015 $121 $299 forward 7 unknown #
coedge $-1 $122 $292 $295 $300 forward $117 $-1 #
vertex $-1 $201 $301 #
vertex $-1 $123 $302 #
straight-curve $-1 -62.322910731342034 23.519922229646532 15.225935605216463 1 0 0 I I #
coedge $-1 $207 $207 $-1 $303 reversed $126 $-1 #
edge $-1 $304 0 $304 6.2831853071796004 $127 $305 forward 7 unknown #
vertex $-1 $130 $306 #
ellipse-curve $-1 -57.525534375115015 26.658933628082366 12.898174805015874 -0.51503808176128008 0 0.85716729658548041 1.2857509448782207 0 0.77255712264192011 1 I I #
coedge $-1 $211 $211 $-1 $307 reversed $133 $-1 #
edge $-1 $308 0 $308 6.2831853071796004 $134 $309 forward 7 unknown #
vertex $-1 $137 $310 #
ellipse-curve $-1 -57.525534375115015 31.367450725736113 12.898174805015874 -0.51503808176128008 0 0.85716729658548041 1.2857509448782207 0 0.77255712264192011 1 I I #
face $-1 $-1 $227 $29 $-1 $311 forward single #
loop $-1 $-1 $312 $138 #
plane-surface $-1 61.399578844569234 0 0 -1 0 0 0 0 1 forward_v I I I I #
coedge $-1 $313 $314 $315 $316 reversed $139 $-1 #
coedge $-1 $317 $141 $143 $225 forward $87 $-1 #
coedge $-1 $141 $317 $313 $318 forward $87 $-1 #
coedge $-1 $315 $144 $141 $222 forward $227 $-1 #
edge $-1 $229 -13.752388308078451 $319 -2.7954766965233731 $221 $320 forward 7 unknown #
coedge $-1 $321 $322 $142 $224 forward $216 $-1 #
edge $-1 $323 -83.656740852580015 $228 -74.358520294822057 $223 $324 forward 7 unknown #
edge $-1 $229 110.47889477039315 $323 122.79915768913854 $143 $325 forward 7 unknown #
coedge $-1 $144 $315 $321 $326 forward $227 $-1 #
loop $-1 $-1 $315 $215 #
vertex $-1 $224 $327 #
vertex $-1 $145 $328 #
straight-curve $-1 36.756892815085344 22.026320810379364 15.225935605216463 -1 0 0 I I #
coedge $-1 $231 $231 $-1 $329 reversed $148 $-1 #
edge $-1 $330 0 $330 6.2831853071796004 $149 $331 forward 7 unknown #
vertex $-1 $152 $332 #
ellipse-curve $-1 57.358169039615653 14.199955373554303 10.57682532633749 0.75470958851134928 0 0.65605901945558964 0.65605901945558964 0 -0.75470958851134928 1 I I #
coedge $-1 $235 $235 $-1 $333 reversed $155 $-1 #
edge $-1 $334 0 $334 6.2831853071796004 $156 $335 forward 7 unknown #
vertex $-1 $159 $336 #
ellipse-curve $-1 57.358169039615653 18.895774635649339 10.57682532633749 0.75470958851134928 0 0.65605901945558964 0.65605901945558964 0 -0.75470958851134928 1 I I #
face $-1 $-1 $175 $24 $-1 $337 reversed single #
loop $-1 $-1 $255 $160 #
plane-surface $-1 0 34.506462124171954 0 0 -1 0 0 0 -1 forward_v I I I I #
coedge $-1 $338 $253 $256 $339 forward $161 $-1 #
coedge $-1 $259 $163 $164 $247 reversed $101 $-1 #
coedge $-1 $253 $338 $163 $245 reversed $161 $-1 #
edge $-1 $260 -15.22593560521646 $340 15.22593560521646 $244 $341 forward 7 unknown #
coedge $-1 $165 $164 $338 $342 forward $65 $-1 #
edge $-1 $251 -61.399578844569234 $340 61.399578844569234 $243 $343 forward 7 unknown #
coedge $-1 $256 $255 $165 $249 reversed $240 $-1 #
edge $-1 $344 -61.399578844569234 $250 61.399578844569234 $248 $345 forward 7 unknown #
vertex $-1 $167 $346 #
vertex $-1 $262 $347 #
straight-curve $-1 61.399578844569234 0 -15.22593560521646 0 -1 0 I I #
coedge $-1 $242 $244 $168 $254 reversed $161 $-1 #
edge $-1 $257 -34.506462124171954 $260 34.506462124171954 $253 $348 forward 7 unknown #
coedge $-1 $248 $169 $174 $263 forward $240 $-1 #
coedge $-1 $169 $248 $242 $339 reversed $240 $-1 #
vertex $-1 $170 $349 #
straight-curve $-1 0 34.506462124171954 15.22593560521646 -1 0 0 I I #
coedge $-1 $171 $243 $173 $262 reversed $101 $-1 #
vertex $-1 $254 $350 #
straight-curve $-1 0 -34.506462124171954 15.22593560521646 1 0 0 I I #
edge $-1 $176 -15.22593560521646 $251 15.22593560521646 $173 $351 forward 7 unknown #
edge $-1 $177 -15.22593560521646 $250 15.22593560521646 $174 $352 forward 7 unknown #
point $-1 61.399578844569234 -34.506462124171954 15.22593560521646 #
point $-1 61.399578844569234 34.506462124171954 15.22593560521646 #
face $-1 $-1 $282 $25 $-1 $353 reversed single #
loop $-1 $-1 $354 $179 #
plane-surface $-1 0 -47.158714159436563 10.786335361074936 0 1 0 0 0 1 forward_v I I I I #
coedge $-1 $355 $279 $281 $356 forward $180 $-1 #
coedge $-1 $182 $189 $357 $358 forward $109 $-1 #
coedge $-1 $359 $187 $182 $272 reversed $282 $-1 #
edge $-1 $360 -6.3261260176323049 $191 6.3261260176323049 $271 $361 forward 7 unknown #
coedge $-1 $184 $183 $354 $362 reversed $69 $-1 #
coedge $-1 $279 $355 $183 $275 forward $180 $-1 #
edge $-1 $363 -6.3261260176323049 $277 6.3261260176323049 $183 $364 forward 7 unknown #
edge $-1 $190 -6.3261260176323049 $365 6.3261260176323049 $184 $366 forward 7 unknown #
vertex $-1 $185 $367 #
straight-curve $-1 -61.399578844569234 -34.506462124171954 0 0 0 -1 I I #
coedge $-1 $269 $274 $186 $280 reversed $180 $-1 #
edge $-1 $283 -61.399578844569234 $277 61.399578844569234 $279 $368 forward 7 unknown #
coedge $-1 $187 $359 $269 $356 reversed $282 $-1 #
loop $-1 $-1 $187 $266 #
vertex $-1 $188 $369 #
straight-curve $-1 61.399578844569234 -34.506462124171954 0 0 0 1 I I #
point $-1 -61.399578844569234 -34.506462124171954 12.702692703201869 #
point $-1 61.399578844569234 -34.506462124171954 12.702692703201869 #
loop $-1 $-1 $200 $193 #
plane-surface $-1 -61.399578844569234 0 0 1 0 0 0 0 -1 forward_v I I I I #
coedge $-1 $370 $371 $197 $291 forward $194 $-1 #
coedge $-1 $197 $196 $296 $372 reversed $73 $-1 #
edge $-1 $293 14.55359326447509 $373 23.592772628611918 $289 $374 forward 7 unknown #
coedge $-1 $203 $198 $371 $375 forward $117 $-1 #
vertex $-1 $375 $376 #
straight-curve $-1 -53.65148990566081 14.506596088454621 15.225935605216458 0 1 0 I I #
coedge $-1 $377 $200 $203 $300 reversed $287 $-1 #
coedge $-1 $200 $377 $290 $372 forward $287 $-1 #
vertex $-1 $201 $378 #
straight-curve $-1 -61.399578844569234 23.519922229646532 57.914918012094112 0 0 1 I I #
straight-curve $-1 -61.399578844569241 23.519922229646532 10.570414004815277 -0.85716729658548041 0 -0.51503808176128008 I I #
edge $-1 $379 -34.506462124171954 $204 -23.519922229646532 $295 $380 forward 7 unknown #
point $-1 -61.399578844569234 23.519922229646532 15.22593560521646 #
point $-1 -53.65148990566081 23.519922229646532 15.22593560521646 #
edge $-1 $381 1 $381 0 $207 $-1 forward 7 unknown #
vertex $-1 $208 $382 #
ellipse-curve $-1 -54.60937703040949 26.658933628082366 8.0448740567855541 -0.51503808176128008 0 0.85716729658548041 1.2857509448782207 0 0.77255712264192011 1 I I #
point $-1 -56.239783430236798 26.658933628082366 13.670731927657791 #
edge $-1 $383 1 $383 0 $211 $-1 forward 7 unknown #
vertex $-1 $212 $384 #
ellipse-curve $-1 -54.60937703040949 31.367450725736113 8.0448740567855541 -0.51503808176128008 0 0.85716729658548041 1.2857509448782207 0 0.77255712264192011 1 I I #
point $-1 -56.239783430236798 31.367450725736113 13.670731927657791 #
plane-surface $-1 0 0 15.22593560521646 0 0 1 1 0 0 forward_v I I I I #
coedge $-1 $322 $321 $314 $385 forward $216 $-1 #
coedge $-1 $314 $218 $220 $318 reversed $139 $-1 #
coedge $-1 $218 $313 $312 $385 reversed $139 $-1 #
coedge $-1 $226 $221 $218 $316 forward $227 $-1 #
edge $-1 $319 16.559866419576728 $386 24.64268602948389 $315 $387 forward 7 unknown #
coedge $-1 $220 $219 $322 $388 reversed $87 $-1 #
edge $-1 $389 -122.79915768913854 $319 -110.47889477039315 $313 $390 forward 7 unknown #
vertex $-1 $222 $391 #
straight-curve $-1 53.316759234662086 8.2739325023009123 15.225935605216456 0 -1 0 I I #
coedge $-1 $312 $223 $226 $326 reversed $216 $-1 #
coedge $-1 $223 $312 $317 $388 forward $216 $-1 #
vertex $-1 $224 $392 #
straight-curve $-1 61.399578844569234 22.026320810379364 89.58445590003852 0 0 1 I I #
straight-curve $-1 -19.163916138939314 22.026320810379364 98.605416816568521 0.65605901945558964 0 -0.75470958851134928 I I #
edge $-1 $386 11.069409198824285 $228 22.026320810379364 $321 $393 forward 7 unknown #
point $-1 61.399578844569234 22.026320810379364 15.22593560521646 #
point $-1 53.316759234662072 22.026320810379364 15.225935605216463 #
edge $-1 $394 1 $394 0 $231 $-1 forward 7 unknown #
vertex $-1 $232 $395 #
ellipse-curve $-1 55.250523838165797 14.199955373554303 8.7446773514443947 0.75470958851134928 0 0.65605901945558964 0.65605901945558964 0 -0.75470958851134928 1 I I #
point $-1 58.014228059071264 14.199955373554303 9.8221157378261577 #
edge $-1 $396 1 $396 0 $235 $-1 forward 7 unknown #
vertex $-1 $236 $397 #
ellipse-curve $-1 55.250523838165797 18.895774635649339 8.7446773514443947 0.75470958851134928 0 0.65605901945558964 0.65605901945558964 0 -0.75470958851134928 1 I I #
point $-1 58.014228059071264 18.895774635649339 9.8221157378261577 #
plane-surface $-1 61.399578844569234 0 0 -1 0 0 0 0 1 forward_v I I I I #
coedge $-1 $244 $242 $246 $342 reversed $161 $-1 #
edge $-1 $257 -15.22593560521646 $344 15.22593560521646 $256 $398 forward 7 unknown #
vertex $-1 $342 $399 #
straight-curve $-1 -61.399578844569234 -34.506462124171954 0 0 0 -1 I I #
edge $-1 $340 -34.506462124171954 $344 34.506462124171954 $338 $400 forward 7 unknown #
straight-curve $-1 0 -34.506462124171954 -15.22593560521646 -1 0 0 I I #
vertex $-1 $249 $401 #
straight-curve $-1 0 34.506462124171954 -15.22593560521646 1 0 0 I I #
point $-1 61.399578844569234 34.506462124171954 -15.22593560521646 #
point $-1 61.399578844569234 -34.506462124171954 -15.22593560521646 #
straight-curve $-1 -61.399578844569234 0 15.22593560521646 0 -1 0 I I #
point $-1 -61.399578844569234 34.506462124171954 15.22593560521646 #
point $-1 -61.399578844569234 -34.506462124171954 15.22593560521646 #
straight-curve $-1 61.399578844569234 -34.506462124171954 0 0 0 -1 I I #
straight-curve $-1 61.399578844569234 34.506462124171954 0 0 0 -1 I I #
plane-surface $-1 61.399578844569234 0 0 -1 0 0 0 0 1 forward_v I I I I #
coedge $-1 $402 $357 $273 $362 forward $267 $-1 #
coedge $-1 $274 $269 $402 $403 forward $180 $-1 #
edge $-1 $283 -6.3261260176323049 $404 6.3261260176323049 $281 $405 forward 7 unknown #
coedge $-1 $354 $406 $270 $358 reversed $267 $-1 #
edge $-1 $365 -61.399578844569234 $360 61.399578844569234 $357 $407 forward 7 unknown #
coedge $-1 $281 $271 $406 $408 forward $282 $-1 #
vertex $-1 $272 $409 #
straight-curve $-1 61.399578844569234 -40.832588141804258 12.702692703201869 0 1 0 I I #
edge $-1 $365 -1.9163573421269327 $363 1.9163573421269327 $273 $410 forward 7 unknown #
vertex $-1 $275 $411 #
straight-curve $-1 -61.399578844569234 -40.832588141804258 8.8699780189480038 0 1 0 I I #
vertex $-1 $276 $412 #
straight-curve $-1 -61.399578844569234 -40.832588141804258 12.702692703201869 0 -1 0 I I #
point $-1 -61.399578844569234 -34.506462124171954 8.8699780189480038 #
straight-curve $-1 0 -34.506462124171954 8.8699780189480038 -1 0 0 I I #
point $-1 61.399578844569234 -34.506462124171954 8.8699780189480038 #
coedge $-1 $371 $289 $377 $413 reversed $194 $-1 #
coedge $-1 $289 $370 $292 $375 reversed $194 $-1 #
edge $-1 $373 -19.999866035717332 $297 -9.0133261411919108 $296 $414 forward 7 unknown #
vertex $-1 $291 $415 #
straight-curve $-1 -41.176625711546038 34.506462124171954 22.721590362885593 -0.85716729658548041 0 -0.51503808176128008 I I #
edge $-1 $293 53.65148990566081 $379 61.399578844569234 $371 $416 forward 7 unknown #
point $-1 -53.65148990566081 34.506462124171954 15.22593560521646 #
coedge $-1 $296 $295 $370 $413 forward $287 $-1 #
point $-1 -61.399578844569234 23.519922229646532 10.57041400481528 #
vertex $-1 $375 $417 #
straight-curve $-1 -61.399578844569234 0 15.22593560521646 0 -1 0 I I #
vertex $-1 $303 $418 #
point $-1 -53.323626085531274 26.658933628082366 8.8174311794274747 #
vertex $-1 $307 $419 #
point $-1 -53.323626085531274 31.367450725736113 8.8174311794274747 #
edge $-1 $386 74.358520294822057 $389 83.656740852580015 $312 $420 forward 7 unknown #
vertex $-1 $326 $421 #
straight-curve $-1 36.756892815085344 11.069409198824285 15.225935605216463 1 0 0 I I #
edge $-1 $389 2.7954766965233731 $323 13.752388308078451 $322 $422 forward 7 unknown #
vertex $-1 $388 $423 #
straight-curve $-1 -19.163916138939314 11.069409198824285 98.605416816568521 -0.65605901945558964 0 0.75470958851134928 I I #
point $-1 53.316759234662072 11.069409198824285 15.225935605216463 #
point $-1 61.399578844569234 22.026320810379364 5.9277150474585056 #
straight-curve $-1 61.399578844569234 0 15.22593560521646 0 1 0 I I #
vertex $-1 $329 $424 #
point $-1 55.906582857621387 14.199955373554303 7.9899677629330457 #
vertex $-1 $333 $425 #
point $-1 55.906582857621387 18.895774635649339 7.9899677629330457 #
straight-curve $-1 -61.399578844569234 34.506462124171954 0 0 0 -1 I I #
point $-1 -61.399578844569234 -34.506462124171954 -15.22593560521646 #
straight-curve $-1 -61.399578844569234 0 -15.22593560521646 0 1 0 I I #
point $-1 -61.399578844569234 34.506462124171954 -15.22593560521646 #
coedge $-1 $406 $354 $355 $403 reversed $267 $-1 #
edge $-1 $404 -61.399578844569234 $363 61.399578844569234 $402 $426 forward 7 unknown #
vertex $-1 $408 $427 #
straight-curve $-1 61.399578844569234 -40.832588141804258 8.8699780189480038 0 -1 0 I I #
coedge $-1 $357 $402 $359 $408 reversed $267 $-1 #
straight-curve $-1 0 -47.158714159436563 12.702692703201869 1 0 0 I I #
edge $-1 $360 -1.9163573421269327 $404 1.9163573421269327 $359 $428 forward 7 unknown #
point $-1 61.399578844569234 -47.158714159436563 12.702692703201869 #
straight-curve $-1 -61.399578844569234 -47.158714159436563 10.786335361074936 0 0 -1 I I #
point $-1 -61.399578844569234 -47.158714159436563 8.8699780189480038 #
point $-1 -61.399578844569234 -47.158714159436563 12.702692703201869 #
edge $-1 $379 -15.22593560521646 $373 -10.57041400481528 $370 $429 forward 7 unknown #
straight-curve $-1 -61.399578844569234 14.506596088454621 10.570414004815278 0 -1 0 I I #
point $-1 -61.399578844569234 34.506462124171954 10.57041400481528 #
straight-curve $-1 0 34.506462124171954 15.22593560521646 -1 0 0 I I #
point $-1 -61.399578844569234 34.506462124171954 15.22593560521646 #
point $-1 -53.836819907767577 26.658933628082366 6.7591231119073338 #
point $-1 -53.836819907767577 31.367450725736113 6.7591231119073338 #
straight-curve $-1 61.399578844569234 11.069409198824285 89.58445590003852 0 0 -1 I I #
point $-1 61.399578844569234 11.069409198824285 15.22593560521646 #
straight-curve $-1 61.399578844569234 8.2739325023009123 5.9277150474584985 0 1 0 I I #
point $-1 61.399578844569234 11.069409198824285 5.9277150474585056 #
point $-1 54.495814249654451 14.199955373554303 8.0886183319888048 #
point $-1 54.495814249654451 18.895774635649339 8.0886183319888048 #
straight-curve $-1 0 -47.158714159436563 8.8699780189480038 -1 0 0 I I #
point $-1 61.399578844569234 -47.158714159436563 8.8699780189480038 #
straight-curve $-1 61.399578844569234 -47.158714159436563 10.786335361074936 0 0 -1 I I #
straight-curve $-1 -61.399578844569234 34.506462124171954 0 0 0 -1 I I #
End-of-ACIS-data 