500 0 6 0           
7 Unknown 11 ACIS 5.0 NT 24 Fri Mar 26 03:06:13 1999 
-1 9.9999999999999995e-007 1e-010 
body $-1 $6 $-1 $7 #
body $-1 $8 $-1 $9 #
body $-1 $10 $-1 $11 #
body $-1 $12 $-1 $13 #
body $-1 $14 $-1 $15 #
body $-1 $16 $-1 $17 #
lump $-1 $-1 $18 $0 #
transform $-1 1 0 0 0 1 0 0 0 1 44.198126163518175 19.184174607398823 6.6205806109172833 1 rotate no_reflect no_shear #
lump $-1 $-1 $19 $1 #
transform $-1 1 0 0 0 1 0 0 0 1 44.198126163518175 19.184174607398823 6.6205806109172833 1 rotate no_reflect no_shear #
lump $-1 $-1 $20 $2 #
transform $-1 1 0 0 0 1 0 0 0 1 44.198126163518175 19.184174607398823 6.6205806109172833 1 rotate no_reflect no_shear #
lump $-1 $-1 $21 $3 #
transform $-1 1 0 0 0 1 0 0 0 1 44.198126163518175 19.184174607398823 6.6205806109172833 1 rotate no_reflect no_shear #
lump $-1 $-1 $22 $4 #
transform $-1 1 0 0 0 1 0 0 0 1 44.198126163518175 19.184174607398823 6.6205806109172833 1 rotate no_reflect no_shear #
lump $-1 $-1 $23 $5 #
transform $-1 1 0 0 0 1 0 0 0 1 44.198126163518175 19.184174607398823 6.6205806109172833 1 rotate no_reflect no_shear #
shell $-1 $-1 $-1 $24 $-1 $6 #
shell $-1 $-1 $-1 $25 $-1 $8 #
shell $-1 $-1 $-1 $26 $-1 $10 #
shell $-1 $-1 $-1 $27 $-1 $12 #
shell $-1 $-1 $-1 $28 $-1 $14 #
shell $-1 $-1 $-1 $29 $-1 $16 #
face $-1 $30 $31 $18 $-1 $32 forward single #
face $-1 $33 $34 $19 $-1 $35 forward single #
face $-1 $36 $37 $20 $-1 $38 reversed single #
face $-1 $39 $40 $21 $-1 $41 forward single #
face $-1 $42 $43 $22 $-1 $44 reversed single #
face $-1 $45 $46 $23 $-1 $47 forward single #
face $-1 $48 $49 $18 $-1 $50 reversed single #
loop $-1 $-1 $51 $24 #
plane-surface $-1 0 0 6.6205806109172833 0 0 1 1 0 0 forward_v I I I I #
face $-1 $52 $53 $19 $-1 $54 reversed single #
loop $-1 $-1 $55 $25 #
plane-surface $-1 0 -15.891818282317544 6.0158060827563329 0 0 1 1 0 0 forward_v I I I I #
face $-1 $56 $57 $20 $-1 $58 reversed single #
loop $-1 $-1 $59 $26 #
plane-surface $-1 -92.342176360643407 11.145242626121579 76.08247275446702 0 1 0 -0.54463904215088732 0 0.83867056331134215 forward_v I I I I #
face $-1 $60 $61 $21 $-1 $62 forward single #
loop $-1 $63 $64 $27 #
cone-surface $-1 -39.680227722851583 15.164708616760201 2.867702117039113 0.54463904215088732 0 -0.83867056331134215 0.83867056331134215 0 0.54463904215088732 1 I I 0 1 1 forward I I I I #
face $-1 $65 $66 $22 $-1 $67 reversed single #
loop $-1 $-1 $68 $28 #
plane-surface $-1 -29.937208570208952 15.164708616760201 50.09118821786511 0.54463904215088732 0 0.83867056331134215 0.83867056331134215 0 -0.54463904215088732 forward_v I I I I #
face $-1 $69 $70 $23 $-1 $71 forward single #
loop $-1 $72 $73 $29 #
cone-surface $-1 39.680227722851562 15.164708616760201 2.8677021170391166 -0.54463904215088732 0 -0.83867056331134215 0.83867056331134215 0 -0.54463904215088732 1 I I 0 1 1 forward I I I I #
face $-1 $74 $75 $18 $-1 $76 reversed single #
loop $-1 $-1 $77 $30 #
plane-surface $-1 0 0 -6.6205806109172833 0 0 1 1 0 0 forward_v I I I I #
coedge $-1 $78 $79 $80 $81 forward $31 $-1 #
face $-1 $82 $83 $19 $-1 $84 reversed single #
loop $-1 $-1 $85 $33 #
plane-surface $-1 0 -15.891818282317544 3.0158060827563329 0 0 1 1 0 0 forward_v I I I I #
coedge $-1 $86 $87 $88 $89 reversed $34 $-1 #
face $-1 $90 $91 $20 $-1 $92 forward single #
loop $-1 $-1 $93 $36 #
plane-surface $-1 -44.198126163518182 15.164708616760201 1.9471380207398994 -0.54463904215088732 0 0.83867056331134215 0.83867056331134215 0 0.54463904215088732 forward_v I I I I #
coedge $-1 $94 $95 $96 $97 reversed $37 $-1 #
face $-1 $-1 $98 $21 $-1 $99 forward single #
loop $-1 $100 $101 $39 #
cone-surface $-1 -38.488244946589901 15.164708616760201 1.0322096365939615 0.54463904215088732 0 -0.83867056331134215 0.41933528165567108 0 0.27231952107544366 1 I I -0.70710678118654746 0.70710678118654746 0.5 forward I I I I #
loop $-1 $-1 $102 $27 #
coedge $-1 $64 $64 $103 $104 reversed $40 $-1 #
face $-1 $105 $106 $22 $-1 $107 reversed single #
loop $-1 $-1 $108 $42 #
plane-surface $-1 18.206841626916273 11.145242626121579 124.22652295159223 0 1 0 0.54463904215088732 0 0.83867056331134215 forward_v I I I I #
coedge $-1 $109 $110 $111 $112 reversed $43 $-1 #
face $-1 $-1 $113 $23 $-1 $114 forward single #
loop $-1 $115 $116 $45 #
cone-surface $-1 38.48824494658988 15.164708616760201 1.032209636593965 -0.54463904215088732 0 -0.83867056331134215 0.41933528165567108 0 -0.27231952107544366 1 I I -0.70710678118654746 0.70710678118654746 0.5 forward I I I I #
loop $-1 $-1 $117 $29 #
coedge $-1 $73 $73 $118 $119 reversed $46 $-1 #
face $-1 $120 $121 $18 $-1 $122 reversed single #
loop $-1 $-1 $123 $48 #
plane-surface $-1 0 -19.184174607398823 0 0 1 0 0 0 1 forward_v I I I I #
coedge $-1 $124 $125 $126 $127 forward $49 $-1 #
coedge $-1 $128 $51 $129 $130 forward $31 $-1 #
coedge $-1 $51 $128 $131 $132 forward $31 $-1 #
coedge $-1 $133 $134 $51 $81 reversed $135 $-1 #
edge $-1 $136 -19.184174607398823 $137 19.184174607398823 $80 $138 forward 7 unknown #
face $-1 $139 $140 $19 $-1 $141 reversed single #
loop $-1 $-1 $142 $52 #
plane-surface $-1 0 -12.599461957236265 4.5158060827563329 0 -1 0 0 0 -1 forward_v I I I I #
coedge $-1 $143 $144 $145 $146 reversed $53 $-1 #
coedge $-1 $147 $55 $148 $149 forward $34 $-1 #
coedge $-1 $55 $147 $150 $151 reversed $34 $-1 #
coedge $-1 $152 $153 $55 $89 forward $154 $-1 #
edge $-1 $155 4.653552816077493 $156 11.238265466240051 $88 $157 forward 7 unknown #
face $-1 $158 $159 $20 $-1 $160 reversed single #
loop $-1 $-1 $96 $56 #
plane-surface $-1 0 0 6.6205806109172833 0 0 1 1 0 0 forward_v I I I I #
coedge $-1 $161 $162 $163 $164 reversed $57 $-1 #
coedge $-1 $95 $59 $165 $166 reversed $37 $-1 #
coedge $-1 $59 $94 $161 $167 reversed $37 $-1 #
coedge $-1 $163 $168 $59 $97 forward $91 $-1 #
edge $-1 $169 1.9729620168035282 $170 9.1694323877642319 $96 $171 forward 7 unknown #
loop $-1 $-1 $103 $60 #
plane-surface $-1 -44.198126163518182 15.164708616760201 1.9471380207398994 -0.54463904215088732 0 0.83867056331134215 0.83867056331134215 0 0.54463904215088732 forward_v I I I I #
loop $-1 $-1 $172 $39 #
coedge $-1 $101 $101 $102 $173 reversed $61 $-1 #
coedge $-1 $102 $102 $101 $173 forward $63 $-1 #
coedge $-1 $103 $103 $64 $104 forward $98 $-1 #
edge $-1 $174 0 $174 6.2831853071796004 $103 $175 forward 7 unknown #
face $-1 $176 $177 $22 $-1 $178 forward single #
loop $-1 $-1 $179 $65 #
plane-surface $-1 44.198126163518175 0 0 -1 0 0 0 0 1 forward_v I I I I #
coedge $-1 $180 $181 $182 $183 reversed $66 $-1 #
coedge $-1 $184 $68 $185 $186 reversed $43 $-1 #
coedge $-1 $68 $184 $180 $187 forward $43 $-1 #
coedge $-1 $182 $188 $68 $112 forward $177 $-1 #
edge $-1 $189 -11.601820299018723 $190 -3.5628883177414785 $111 $191 forward 7 unknown #
loop $-1 $-1 $118 $69 #
plane-surface $-1 -29.937208570208952 15.164708616760201 50.09118821786511 0.54463904215088732 0 0.83867056331134215 0.83867056331134215 0 -0.54463904215088732 forward_v I I I I #
loop $-1 $-1 $192 $45 #
coedge $-1 $116 $116 $117 $193 reversed $70 $-1 #
coedge $-1 $117 $117 $116 $193 forward $72 $-1 #
coedge $-1 $118 $118 $73 $119 forward $113 $-1 #
edge $-1 $194 0 $194 6.2831853071796004 $118 $195 forward 7 unknown #
face $-1 $196 $197 $18 $-1 $198 reversed single #
loop $-1 $-1 $199 $74 #
plane-surface $-1 -44.198126163518175 0 0 1 0 0 0 0 -1 forward_v I I I I #
coedge $-1 $200 $131 $201 $202 forward $75 $-1 #
coedge $-1 $203 $77 $200 $204 forward $49 $-1 #
coedge $-1 $77 $203 $205 $206 forward $49 $-1 #
coedge $-1 $134 $133 $77 $127 reversed $135 $-1 #
edge $-1 $207 -19.184174607398823 $208 19.184174607398823 $126 $209 forward 7 unknown #
coedge $-1 $79 $78 $210 $211 forward $31 $-1 #
coedge $-1 $212 $213 $78 $130 reversed $197 $-1 #
edge $-1 $137 -44.198126163518175 $214 44.198126163518175 $129 $215 forward 7 unknown #
coedge $-1 $123 $216 $79 $132 reversed $75 $-1 #
edge $-1 $217 -44.198126163518175 $136 44.198126163518175 $131 $218 forward 7 unknown #
coedge $-1 $126 $80 $216 $219 forward $135 $-1 #
coedge $-1 $80 $126 $212 $220 reversed $135 $-1 #
loop $-1 $-1 $133 $196 #
vertex $-1 $81 $221 #
vertex $-1 $81 $222 #
straight-curve $-1 44.198126163518175 0 6.6205806109172833 0 1 0 I I #
face $-1 $223 $224 $19 $-1 $225 reversed single #
loop $-1 $-1 $226 $82 #
plane-surface $-1 -44.198126163518175 0 0 1 0 0 0 0 -1 forward_v I I I I #
coedge $-1 $227 $148 $153 $228 reversed $83 $-1 #
coedge $-1 $229 $85 $230 $231 reversed $53 $-1 #
coedge $-1 $85 $229 $227 $232 forward $53 $-1 #
coedge $-1 $153 $152 $85 $146 forward $154 $-1 #
edge $-1 $233 -11.238265466240051 $234 -4.653552816077493 $145 $235 forward 7 unknown #
coedge $-1 $87 $86 $226 $236 reversed $34 $-1 #
coedge $-1 $142 $237 $86 $149 reversed $83 $-1 #
edge $-1 $155 -44.198126163518175 $238 44.198126163518175 $148 $239 forward 7 unknown #
coedge $-1 $240 $241 $87 $151 forward $224 $-1 #
edge $-1 $156 -44.198126163518175 $242 44.198126163518175 $150 $243 forward 7 unknown #
coedge $-1 $145 $88 $241 $244 forward $154 $-1 #
coedge $-1 $88 $145 $142 $228 forward $154 $-1 #
loop $-1 $-1 $88 $223 #
vertex $-1 $89 $245 #
vertex $-1 $244 $246 #
straight-curve $-1 44.198126163518175 -7.9459091411587721 6.0158060827563329 0 -1 0 I I #
face $-1 $-1 $247 $20 $-1 $248 reversed single #
loop $-1 $-1 $249 $90 #
plane-surface $-1 0 19.184174607398823 0 0 -1 0 0 0 -1 forward_v I I I I #
coedge $-1 $250 $93 $95 $167 forward $57 $-1 #
coedge $-1 $93 $250 $249 $251 reversed $57 $-1 #
coedge $-1 $252 $96 $93 $164 forward $91 $-1 #
edge $-1 $170 3.5628883177414785 $253 11.601820299018723 $163 $254 forward 7 unknown #
coedge $-1 $255 $256 $94 $166 forward $247 $-1 #
edge $-1 $257 -36.094098356493603 $169 -31.420655766316226 $165 $258 forward 7 unknown #
edge $-1 $170 -8.580807155728376 $257 -8.4987301443310198e-015 $95 $259 forward 7 unknown #
coedge $-1 $96 $252 $255 $260 forward $91 $-1 #
vertex $-1 $166 $261 #
vertex $-1 $97 $262 #
straight-curve $-1 -46.171088180321703 11.145242626121579 6.6205806109172869 1 0 0 I I #
coedge $-1 $172 $172 $-1 $263 reversed $100 $-1 #
edge $-1 $264 0 $264 6.2831853071796004 $101 $265 forward 7 unknown #
vertex $-1 $104 $266 #
ellipse-curve $-1 -40.59989097803782 15.164708616760201 4.2838593158285931 -0.54463904215088732 0 0.83867056331134215 0.83867056331134215 0 0.54463904215088732 1 I I #
face $-1 $-1 $267 $22 $-1 $268 reversed single #
loop $-1 $-1 $182 $105 #
plane-surface $-1 0 0 6.6205806109172833 0 0 1 1 0 0 forward_v I I I I #
coedge $-1 $269 $270 $181 $271 forward $106 $-1 #
coedge $-1 $181 $108 $110 $187 reversed $66 $-1 #
coedge $-1 $108 $180 $179 $271 reversed $66 $-1 #
coedge $-1 $272 $111 $108 $183 forward $177 $-1 #
edge $-1 $190 27.898234979099293 $273 35.094705350060039 $182 $274 forward 7 unknown #
coedge $-1 $110 $109 $269 $275 reversed $43 $-1 #
coedge $-1 $276 $277 $109 $186 forward $267 $-1 #
edge $-1 $278 -62.201716153674283 $189 -53.620908997945875 $185 $279 forward 7 unknown #
edge $-1 $280 -88.39625232703635 $190 -79.815445171307942 $180 $281 forward 7 unknown #
coedge $-1 $111 $272 $276 $282 forward $177 $-1 #
vertex $-1 $186 $283 #
vertex $-1 $112 $284 #
straight-curve $-1 37.001655792557443 7.5823543083801006 6.6205806109172833 0 -1 0 I I #
coedge $-1 $192 $192 $-1 $285 reversed $115 $-1 #
edge $-1 $286 0 $286 6.2831853071796004 $116 $287 forward 7 unknown #
vertex $-1 $119 $288 #
ellipse-curve $-1 40.599890978037799 15.164708616760201 4.283859315828586 0.54463904215088732 0 0.83867056331134215 0.83867056331134215 0 -0.54463904215088732 1 I I #
face $-1 $-1 $135 $18 $-1 $289 reversed single #
loop $-1 $-1 $212 $120 #
plane-surface $-1 0 19.184174607398823 0 0 -1 0 0 0 -1 forward_v I I I I #
coedge $-1 $290 $210 $213 $291 forward $121 $-1 #
coedge $-1 $216 $123 $124 $204 reversed $75 $-1 #
coedge $-1 $210 $290 $123 $202 reversed $121 $-1 #
edge $-1 $217 -6.6205806109172833 $292 6.6205806109172833 $201 $293 forward 7 unknown #
coedge $-1 $125 $124 $290 $294 forward $49 $-1 #
edge $-1 $208 -44.198126163518175 $292 44.198126163518175 $200 $295 forward 7 unknown #
coedge $-1 $213 $212 $125 $206 reversed $197 $-1 #
edge $-1 $296 -44.198126163518175 $207 44.198126163518175 $205 $297 forward 7 unknown #
vertex $-1 $127 $298 #
vertex $-1 $219 $299 #
straight-curve $-1 44.198126163518175 0 -6.6205806109172833 0 -1 0 I I #
coedge $-1 $199 $201 $128 $211 reversed $121 $-1 #
edge $-1 $214 -19.184174607398823 $217 19.184174607398823 $210 $300 forward 7 unknown #
coedge $-1 $205 $129 $134 $220 forward $197 $-1 #
coedge $-1 $129 $205 $199 $291 reversed $197 $-1 #
vertex $-1 $130 $301 #
straight-curve $-1 0 19.184174607398823 6.6205806109172833 -1 0 0 I I #
coedge $-1 $131 $200 $133 $219 reversed $75 $-1 #
vertex $-1 $211 $302 #
straight-curve $-1 0 -19.184174607398823 6.6205806109172833 1 0 0 I I #
edge $-1 $136 -6.6205806109172833 $208 6.6205806109172833 $133 $303 forward 7 unknown #
edge $-1 $137 -6.6205806109172833 $207 6.6205806109172833 $134 $304 forward 7 unknown #
point $-1 44.198126163518175 -19.184174607398823 6.6205806109172833 #
point $-1 44.198126163518175 19.184174607398823 6.6205806109172833 #
face $-1 $-1 $154 $19 $-1 $305 reversed single #
loop $-1 $-1 $150 $139 #
plane-surface $-1 0 -19.184174607398823 0 0 1 0 0 0 1 forward_v I I I I #
coedge $-1 $306 $307 $147 $236 forward $140 $-1 #
coedge $-1 $237 $142 $144 $232 reversed $83 $-1 #
edge $-1 $234 0.75790304137816644 $155 3.7579030413781664 $153 $308 forward 7 unknown #
coedge $-1 $144 $143 $309 $310 reversed $53 $-1 #
coedge $-1 $241 $240 $143 $231 forward $224 $-1 #
edge $-1 $311 -44.198126163518175 $233 44.198126163518175 $230 $312 forward 7 unknown #
edge $-1 $313 -44.198126163518175 $234 44.198126163518175 $227 $314 forward 7 unknown #
vertex $-1 $231 $315 #
vertex $-1 $146 $316 #
straight-curve $-1 44.198126163518175 -7.9459091411587721 3.0158060827563329 0 1 0 I I #
edge $-1 $242 -11.238265466240051 $238 -4.653552816077493 $226 $317 forward 7 unknown #
coedge $-1 $148 $227 $306 $318 reversed $83 $-1 #
vertex $-1 $236 $319 #
straight-curve $-1 0 -12.599461957236265 6.0158060827563329 -1 0 0 I I #
coedge $-1 $230 $150 $307 $320 forward $224 $-1 #
coedge $-1 $150 $230 $152 $244 reversed $224 $-1 #
vertex $-1 $320 $321 #
straight-curve $-1 0 -19.184174607398823 6.0158060827563329 -1 0 0 I I #
edge $-1 $156 -6.0158060827563329 $233 -3.0158060827563329 $152 $322 forward 7 unknown #
point $-1 44.198126163518175 -12.599461957236265 6.0158060827563329 #
point $-1 44.198126163518175 -19.184174607398823 6.0158060827563329 #
loop $-1 $-1 $165 $158 #
plane-surface $-1 -44.198126163518175 0 0 1 0 0 0 0 -1 forward_v I I I I #
coedge $-1 $323 $324 $162 $251 forward $159 $-1 #
coedge $-1 $162 $161 $256 $325 reversed $57 $-1 #
edge $-1 $253 9.422782834427732 $326 18.003589990156097 $249 $327 forward 7 unknown #
coedge $-1 $168 $163 $324 $328 forward $91 $-1 #
vertex $-1 $328 $329 #
straight-curve $-1 -37.001655792557472 7.5823543083801006 6.6205806109172833 0 1 0 I I #
coedge $-1 $330 $165 $168 $260 reversed $247 $-1 #
coedge $-1 $165 $330 $250 $325 forward $247 $-1 #
vertex $-1 $166 $331 #
straight-curve $-1 -44.198126163518175 11.145242626121579 38.04123637723351 0 0 1 I I #
straight-curve $-1 -44.198126163518182 11.145242626121579 1.9471380207398994 -0.83867056331134215 0 -0.54463904215088732 I I #
edge $-1 $332 -19.184174607398823 $169 -11.145242626121579 $255 $333 forward 7 unknown #
point $-1 -44.198126163518175 11.145242626121579 6.6205806109172833 #
point $-1 -37.001655792557472 11.145242626121579 6.6205806109172833 #
edge $-1 $334 1 $334 0 $172 $-1 forward 7 unknown #
vertex $-1 $173 $335 #
ellipse-curve $-1 -38.760564467665347 15.164708616760201 1.4515449182496325 -0.54463904215088732 0 0.83867056331134215 0.83867056331134215 0 0.54463904215088732 1 I I #
point $-1 -39.76122041472648 15.164708616760201 4.8284983579794805 #
loop $-1 $-1 $185 $176 #
plane-surface $-1 0 19.184174607398823 0 0 -1 0 0 0 -1 forward_v I I I I #
coedge $-1 $336 $179 $184 $275 forward $106 $-1 #
coedge $-1 $179 $336 $272 $337 reversed $106 $-1 #
edge $-1 $273 55.492680864878835 $280 60.16612345505623 $179 $338 forward 7 unknown #
coedge $-1 $188 $182 $270 $337 forward $177 $-1 #
vertex $-1 $337 $339 #
straight-curve $-1 9.1034208134581363 11.145242626121579 6.6205806109172869 1 0 0 I I #
edge $-1 $280 3.5628883177414785 $278 11.601820299018723 $269 $340 forward 7 unknown #
coedge $-1 $277 $185 $188 $282 reversed $267 $-1 #
coedge $-1 $185 $276 $336 $341 forward $267 $-1 #
vertex $-1 $186 $342 #
straight-curve $-1 -7.9686221620160511 19.184174607398823 35.824621126818421 -0.83867056331134215 0 0.54463904215088732 I I #
vertex $-1 $275 $343 #
straight-curve $-1 -29.937208570208952 11.145242626121579 50.09118821786511 -0.83867056331134215 0 0.54463904215088732 I I #
edge $-1 $344 -44.198126163518175 $189 -37.001655792557429 $276 $345 forward 7 unknown #
point $-1 37.001655792557429 19.184174607398823 6.6205806109172869 #
point $-1 37.001655792557429 11.145242626121579 6.6205806109172869 #
edge $-1 $346 1 $346 0 $192 $-1 forward 7 unknown #
vertex $-1 $193 $347 #
ellipse-curve $-1 38.760564467665326 15.164708616760201 1.4515449182496361 0.54463904215088732 0 0.83867056331134215 0.83867056331134215 0 -0.54463904215088732 1 I I #
point $-1 41.438561541349145 15.164708616760201 3.7392202736777098 #
plane-surface $-1 44.198126163518175 0 0 -1 0 0 0 0 1 forward_v I I I I #
coedge $-1 $201 $199 $203 $294 reversed $121 $-1 #
edge $-1 $214 -6.6205806109172833 $296 6.6205806109172833 $213 $348 forward 7 unknown #
vertex $-1 $294 $349 #
straight-curve $-1 -44.198126163518175 -19.184174607398823 0 0 0 -1 I I #
edge $-1 $292 -19.184174607398823 $296 19.184174607398823 $290 $350 forward 7 unknown #
straight-curve $-1 0 -19.184174607398823 -6.6205806109172833 -1 0 0 I I #
vertex $-1 $206 $351 #
straight-curve $-1 0 19.184174607398823 -6.6205806109172833 1 0 0 I I #
point $-1 44.198126163518175 19.184174607398823 -6.6205806109172833 #
point $-1 44.198126163518175 -19.184174607398823 -6.6205806109172833 #
straight-curve $-1 -44.198126163518175 0 6.6205806109172833 0 -1 0 I I #
point $-1 -44.198126163518175 19.184174607398823 6.6205806109172833 #
point $-1 -44.198126163518175 -19.184174607398823 6.6205806109172833 #
straight-curve $-1 44.198126163518175 -19.184174607398823 0 0 0 -1 I I #
straight-curve $-1 44.198126163518175 19.184174607398823 0 0 0 -1 I I #
plane-surface $-1 44.198126163518175 0 0 -1 0 0 0 0 1 forward_v I I I I #
coedge $-1 $309 $226 $237 $318 forward $140 $-1 #
coedge $-1 $226 $309 $240 $320 reversed $140 $-1 #
straight-curve $-1 44.198126163518175 -12.599461957236265 2.2579030413781664 0 0 1 I I #
coedge $-1 $307 $306 $229 $310 forward $140 $-1 #
edge $-1 $313 4.653552816077493 $311 11.238265466240051 $309 $352 forward 7 unknown #
vertex $-1 $231 $353 #
straight-curve $-1 0 -19.184174607398823 3.0158060827563329 1 0 0 I I #
vertex $-1 $310 $354 #
straight-curve $-1 0 -12.599461957236265 3.0158060827563329 1 0 0 I I #
point $-1 44.198126163518175 -19.184174607398823 3.0158060827563329 #
point $-1 44.198126163518175 -12.599461957236265 3.0158060827563329 #
straight-curve $-1 -44.198126163518175 -7.9459091411587721 6.0158060827563329 0 1 0 I I #
edge $-1 $238 -3.7579030413781664 $313 -0.75790304137816644 $306 $355 forward 7 unknown #
point $-1 -44.198126163518175 -12.599461957236265 6.0158060827563329 #
edge $-1 $242 -6.0158060827563329 $311 -3.0158060827563329 $307 $356 forward 7 unknown #
point $-1 -44.198126163518175 -19.184174607398823 6.0158060827563329 #
straight-curve $-1 44.198126163518175 -19.184174607398823 0 0 0 -1 I I #
coedge $-1 $324 $249 $330 $357 reversed $159 $-1 #
coedge $-1 $249 $323 $252 $328 reversed $159 $-1 #
edge $-1 $326 -11.601820299018723 $257 -3.5628883177414785 $256 $358 forward 7 unknown #
vertex $-1 $251 $359 #
straight-curve $-1 -29.099045204847521 19.184174607398823 11.752596028255825 -0.83867056331134215 0 -0.54463904215088732 I I #
edge $-1 $253 37.001655792557472 $332 44.198126163518175 $324 $360 forward 7 unknown #
point $-1 -37.001655792557472 19.184174607398823 6.6205806109172833 #
coedge $-1 $256 $255 $323 $357 forward $247 $-1 #
point $-1 -44.198126163518175 11.145242626121579 1.9471380207399041 #
vertex $-1 $328 $361 #
straight-curve $-1 -44.198126163518175 0 6.6205806109172833 0 -1 0 I I #
vertex $-1 $263 $362 #
point $-1 -37.921893904354 15.164708616760201 1.9961839604005198 #
coedge $-1 $270 $269 $277 $341 reversed $106 $-1 #
edge $-1 $273 11.145242626121579 $344 19.184174607398823 $270 $363 forward 7 unknown #
straight-curve $-1 44.198126163518175 11.145242626121579 62.113261475796115 0 0 -1 I I #
point $-1 44.198126163518175 11.145242626121579 6.6205806109172833 #
straight-curve $-1 44.198126163518175 7.5823543083801006 1.9471380207398852 0 1 0 I I #
edge $-1 $344 -6.6205806109172833 $278 -1.9471380207398852 $336 $364 forward 7 unknown #
point $-1 44.198126163518168 19.184174607398823 1.9471380207398852 #
point $-1 44.198126163518168 11.145242626121579 1.9471380207398852 #
vertex $-1 $337 $365 #
straight-curve $-1 0 19.184174607398823 6.6205806109172833 -1 0 0 I I #
vertex $-1 $285 $366 #
point $-1 39.599235030976665 15.164708616760201 0.90690587609874873 #
straight-curve $-1 -44.198126163518175 19.184174607398823 0 0 0 -1 I I #
point $-1 -44.198126163518175 -19.184174607398823 -6.6205806109172833 #
straight-curve $-1 -44.198126163518175 0 -6.6205806109172833 0 1 0 I I #
point $-1 -44.198126163518175 19.184174607398823 -6.6205806109172833 #
straight-curve $-1 -44.198126163518175 -7.9459091411587721 3.0158060827563329 0 -1 0 I I #
point $-1 -44.198126163518175 -19.184174607398823 3.0158060827563329 #
point $-1 -44.198126163518175 -12.599461957236265 3.0158060827563329 #
straight-curve $-1 -44.198126163518175 -12.599461957236265 2.2579030413781664 0 0 -1 I I #
straight-curve $-1 -44.198126163518175 -19.184174607398823 0 0 0 -1 I I #
edge $-1 $332 -6.6205806109172833 $326 -1.9471380207399041 $323 $367 forward 7 unknown #
straight-curve $-1 -44.198126163518175 7.5823543083801006 1.9471380207399058 0 -1 0 I I #
point $-1 -44.198126163518175 19.184174607398823 1.9471380207399041 #
straight-curve $-1 0 19.184174607398823 6.6205806109172833 -1 0 0 I I #
point $-1 -44.198126163518175 19.184174607398823 6.6205806109172833 #
point $-1 -38.215925425514456 15.164708616760201 0.61287435493829046 #
straight-curve $-1 44.198126163518175 0 6.6205806109172833 0 1 0 I I #
straight-curve $-1 44.198126163518175 19.184174607398823 0 0 0 -1 I I #
point $-1 44.198126163518175 19.184174607398823 6.6205806109172833 #
point $-1 38.215925425514435 15.164708616760201 0.61287435493829401 #
straight-curve $-1 -44.198126163518175 19.184174607398823 0 0 0 -1 I I #
End-of-ACIS-data 