500 0 11 0           
7 Unknown 11 ACIS 5.0 NT 24 Fri Mar 26 02:53:54 1999 
-1 9.9999999999999995e-007 1e-010 
body $-1 $11 $-1 $12 #
body $-1 $13 $-1 $14 #
body $-1 $15 $-1 $16 #
body $-1 $17 $-1 $18 #
body $-1 $19 $-1 $20 #
body $-1 $21 $-1 $22 #
body $-1 $23 $-1 $24 #
body $-1 $25 $-1 $26 #
body $-1 $27 $-1 $28 #
body $-1 $29 $-1 $30 #
body $-1 $31 $-1 $32 #
lump $-1 $-1 $33 $0 #
transform $-1 1 0 0 0 1 0 0 0 1 74.10138248847926 35.537545853357294 8.056276073729931 1 rotate no_reflect no_shear #
lump $-1 $-1 $34 $1 #
transform $-1 1 0 0 0 1 0 0 0 1 74.10138248847926 35.537545853357294 8.056276073729931 1 rotate no_reflect no_shear #
lump $-1 $-1 $35 $2 #
transform $-1 1 0 0 0 1 0 0 0 1 74.10138248847926 35.537545853357294 8.056276073729931 1 rotate no_reflect no_shear #
lump $-1 $-1 $36 $3 #
transform $-1 1 0 0 0 1 0 0 0 1 74.10138248847926 35.537545853357294 8.056276073729931 1 rotate no_reflect no_shear #
lump $-1 $-1 $37 $4 #
transform $-1 1 0 0 0 1 0 0 0 1 74.10138248847926 35.537545853357294 8.056276073729931 1 rotate no_reflect no_shear #
lump $-1 $-1 $38 $5 #
transform $-1 1 0 0 0 1 0 0 0 1 74.10138248847926 35.537545853357294 8.056276073729931 1 rotate no_reflect no_shear #
lump $-1 $-1 $39 $6 #
transform $-1 1 0 0 0 1 0 0 0 1 74.10138248847926 35.537545853357294 8.056276073729931 1 rotate no_reflect no_shear #
lump $-1 $-1 $40 $7 #
transform $-1 1 0 0 0 1 0 0 0 1 74.10138248847926 35.537545853357294 8.056276073729931 1 rotate no_reflect no_shear #
lump $-1 $-1 $41 $8 #
transform $-1 1 0 0 0 1 0 0 0 1 74.10138248847926 35.537545853357294 8.056276073729931 1 rotate no_reflect no_shear #
lump $-1 $-1 $42 $9 #
transform $-1 1 0 0 0 1 0 0 0 1 74.10138248847926 35.537545853357294 8.056276073729931 1 rotate no_reflect no_shear #
lump $-1 $-1 $43 $10 #
transform $-1 1 0 0 0 1 0 0 0 1 74.10138248847926 35.537545853357294 8.056276073729931 1 rotate no_reflect no_shear #
shell $-1 $-1 $-1 $44 $-1 $11 #
shell $-1 $-1 $-1 $45 $-1 $13 #
shell $-1 $-1 $-1 $46 $-1 $15 #
shell $-1 $-1 $-1 $47 $-1 $17 #
shell $-1 $-1 $-1 $48 $-1 $19 #
shell $-1 $-1 $-1 $49 $-1 $21 #
shell $-1 $-1 $-1 $50 $-1 $23 #
shell $-1 $-1 $-1 $51 $-1 $25 #
shell $-1 $-1 $-1 $52 $-1 $27 #
shell $-1 $-1 $-1 $53 $-1 $29 #
shell $-1 $-1 $-1 $54 $-1 $31 #
face $-1 $55 $56 $33 $-1 $57 forward single #
face $-1 $58 $59 $34 $-1 $60 reversed single #
face $-1 $61 $62 $35 $-1 $63 reversed single #
face $-1 $64 $65 $36 $-1 $66 reversed single #
face $-1 $67 $68 $37 $-1 $69 forward single #
face $-1 $70 $71 $38 $-1 $72 forward single #
face $-1 $73 $74 $39 $-1 $75 reversed single #
face $-1 $76 $77 $40 $-1 $78 forward single #
face $-1 $79 $80 $41 $-1 $81 forward single #
face $-1 $82 $83 $42 $-1 $84 reversed single #
face $-1 $85 $86 $43 $-1 $87 forward single #
face $-1 $88 $89 $33 $-1 $90 reversed single #
loop $-1 $-1 $91 $44 #
plane-surface $-1 0 0 8.056276073729931 0 0 1 1 0 0 forward_v I I I I #
face $-1 $92 $93 $34 $-1 $94 reversed single #
loop $-1 $-1 $95 $45 #
plane-surface $-1 0 -30.685229654300066 5.056276073729931 0 0 1 1 0 0 forward_v I I I I #
face $-1 $96 $97 $35 $-1 $98 reversed single #
loop $-1 $-1 $99 $46 #
plane-surface $-1 0 30.685229654300066 5.056276073729931 0 0 1 1 0 0 forward_v I I I I #
face $-1 $100 $101 $36 $-1 $102 reversed single #
loop $-1 $-1 $103 $47 #
plane-surface $-1 -167.36840565659512 -14.614175363611887 119.92098367582911 0 1 0 -0.62932039886446345 0 0.77714595512881146 forward_v I I I I #
face $-1 $104 $105 $37 $-1 $106 forward single #
loop $-1 $107 $108 $48 #
cone-surface $-1 -71.441340170602757 -12.218161718794736 5.6403481512619758 0.62932039886446345 0 -0.77714595512881146 0.38857297756440573 0 0.31466019943223172 1 I I 0 1 0.5 forward I I I I #
face $-1 $109 $110 $38 $-1 $111 forward single #
loop $-1 $112 $113 $49 #
cone-surface $-1 -71.441340170602757 -8.6241412515690072 5.6403481512619758 0.62932039886446345 0 -0.77714595512881146 0.38857297756440573 0 0.31466019943223172 1 I I 0 1 0.5 forward I I I I #
face $-1 $114 $115 $39 $-1 $116 reversed single #
loop $-1 $-1 $117 $50 #
plane-surface $-1 -167.36840565659512 6.2281276067518601 119.92098367582911 0 1 0 -0.62932039886446345 0 0.77714595512881146 forward_v I I I I #
face $-1 $118 $119 $40 $-1 $120 forward single #
loop $-1 $121 $122 $51 #
cone-surface $-1 -71.441340170602757 8.6241412515690072 5.6403481512619758 0.62932039886446345 0 -0.77714595512881146 0.38857297756440573 0 0.31466019943223172 1 I I 0 1 0.5 forward I I I I #
face $-1 $123 $124 $41 $-1 $125 forward single #
loop $-1 $126 $127 $52 #
cone-surface $-1 -71.441340170602757 12.21816171879474 5.6403481512619758 0.62932039886446345 0 -0.77714595512881146 0.38857297756440573 0 0.31466019943223172 1 I I 0 1 0.5 forward I I I I #
face $-1 $128 $129 $42 $-1 $130 reversed single #
loop $-1 $-1 $131 $53 #
plane-surface $-1 30.525098062118772 3.9741325023399341 209.31679208737802 0 -1 0 -0.54463904215088732 0 -0.83867056331134215 forward_v I I I I #
face $-1 $132 $133 $43 $-1 $134 forward single #
loop $-1 $135 $136 $54 #
cone-surface $-1 70.031442245136617 0.61289448545893777 4.3599454660766845 -0.54463904215088732 0 -0.83867056331134215 1.2580058449670133 0 -0.81695856322633098 1 I I 0 1 1.5 forward I I I I #
face $-1 $137 $138 $33 $-1 $139 reversed single #
loop $-1 $-1 $140 $55 #
plane-surface $-1 0 0 -8.056276073729931 0 0 1 1 0 0 forward_v I I I I #
coedge $-1 $141 $142 $143 $144 forward $56 $-1 #
face $-1 $145 $146 $34 $-1 $147 reversed single #
loop $-1 $-1 $148 $58 #
plane-surface $-1 0 -25.832913455242839 6.556276073729931 0 -1 0 0 0 -1 forward_v I I I I #
coedge $-1 $149 $150 $151 $152 reversed $59 $-1 #
face $-1 $153 $154 $35 $-1 $155 forward single #
loop $-1 $-1 $156 $61 #
plane-surface $-1 0 25.832913455242839 6.556276073729931 0 1 0 0 0 1 forward_v I I I I #
coedge $-1 $157 $158 $159 $160 reversed $62 $-1 #
face $-1 $161 $162 $36 $-1 $163 reversed single #
loop $-1 $-1 $164 $64 #
plane-surface $-1 -74.101382488479246 -10.421151485181873 4.7458043350799102 -0.62932039886446345 0 0.77714595512881146 0.77714595512881146 0 0.62932039886446345 forward_v I I I I #
coedge $-1 $165 $166 $167 $168 reversed $65 $-1 #
face $-1 $-1 $169 $37 $-1 $170 forward single #
loop $-1 $171 $172 $67 #
cone-surface $-1 -70.668013779408028 -12.218161718794736 4.6853696093368189 0.62932039886446345 0 -0.77714595512881146 0.19428648878220287 0 0.15733009971611586 1 I I -0.70710678118654746 0.70710678118654746 0.25 forward I I I I #
loop $-1 $-1 $173 $48 #
coedge $-1 $108 $108 $174 $175 reversed $68 $-1 #
face $-1 $-1 $176 $38 $-1 $177 forward single #
loop $-1 $178 $179 $70 #
cone-surface $-1 -70.668013779408028 -8.6241412515690072 4.6853696093368189 0.62932039886446345 0 -0.77714595512881146 0.19428648878220287 0 0.15733009971611586 1 I I -0.70710678118654746 0.70710678118654746 0.25 forward I I I I #
loop $-1 $-1 $180 $49 #
coedge $-1 $113 $113 $181 $182 reversed $71 $-1 #
face $-1 $183 $184 $39 $-1 $185 reversed single #
loop $-1 $-1 $186 $73 #
plane-surface $-1 -74.101382488479246 10.421151485181873 4.7458043350799102 -0.62932039886446345 0 0.77714595512881146 0.77714595512881146 0 0.62932039886446345 forward_v I I I I #
coedge $-1 $187 $188 $189 $190 reversed $74 $-1 #
face $-1 $-1 $191 $40 $-1 $192 forward single #
loop $-1 $193 $194 $76 #
cone-surface $-1 -70.668013779408028 8.6241412515690072 4.6853696093368189 0.62932039886446345 0 -0.77714595512881146 0.19428648878220287 0 0.15733009971611586 1 I I -0.70710678118654746 0.70710678118654746 0.25 forward I I I I #
loop $-1 $-1 $195 $51 #
coedge $-1 $122 $122 $196 $197 reversed $77 $-1 #
face $-1 $-1 $198 $41 $-1 $199 forward single #
loop $-1 $200 $201 $79 #
cone-surface $-1 -70.668013779408028 12.21816171879474 4.6853696093368189 0.62932039886446345 0 -0.77714595512881146 0.19428648878220287 0 0.15733009971611586 1 I I -0.70710678118654746 0.70710678118654746 0.25 forward I I I I #
loop $-1 $-1 $202 $52 #
coedge $-1 $127 $127 $203 $204 reversed $80 $-1 #
face $-1 $205 $206 $42 $-1 $207 reversed single #
loop $-1 $-1 $208 $82 #
plane-surface $-1 -50.191913899044991 0.61289448545893777 85.023495699853768 0.54463904215088732 0 0.83867056331134215 0.83867056331134215 0 -0.54463904215088732 forward_v I I I I #
coedge $-1 $209 $210 $211 $212 reversed $83 $-1 #
face $-1 $-1 $213 $43 $-1 $214 forward single #
loop $-1 $215 $216 $85 #
cone-surface $-1 68.440109585555831 0.61289448545893777 1.9095081034598866 -0.54463904215088732 0 -0.83867056331134215 0.62900292248350664 0 -0.40847928161316549 1 I I -0.70710678118654757 0.70710678118654757 0.75 forward I I I I #
loop $-1 $-1 $217 $54 #
coedge $-1 $136 $136 $218 $219 reversed $86 $-1 #
face $-1 $220 $221 $33 $-1 $222 reversed single #
loop $-1 $-1 $223 $88 #
plane-surface $-1 0 -35.537545853357294 0 0 1 0 0 0 1 forward_v I I I I #
coedge $-1 $224 $225 $226 $227 forward $89 $-1 #
coedge $-1 $228 $91 $229 $230 forward $56 $-1 #
coedge $-1 $91 $228 $231 $232 forward $56 $-1 #
coedge $-1 $233 $234 $91 $144 reversed $235 $-1 #
edge $-1 $236 -35.537545853357294 $237 35.537545853357294 $143 $238 forward 7 unknown #
face $-1 $239 $240 $34 $-1 $241 reversed single #
loop $-1 $-1 $242 $92 #
plane-surface $-1 -74.10138248847926 0 0 1 0 0 0 0 -1 forward_v I I I I #
coedge $-1 $243 $244 $245 $246 reversed $93 $-1 #
coedge $-1 $247 $95 $248 $249 reversed $59 $-1 #
coedge $-1 $95 $247 $243 $250 forward $59 $-1 #
coedge $-1 $245 $251 $95 $152 forward $252 $-1 #
edge $-1 $253 -20.194931026207261 $254 -10.490298628092805 $151 $255 forward 7 unknown #
face $-1 $256 $257 $35 $-1 $258 reversed single #
loop $-1 $-1 $259 $96 #
plane-surface $-1 0 0 8.056276073729931 0 0 1 1 0 0 forward_v I I I I #
coedge $-1 $260 $261 $262 $263 reversed $97 $-1 #
coedge $-1 $264 $99 $260 $265 forward $62 $-1 #
coedge $-1 $99 $264 $266 $267 reversed $62 $-1 #
coedge $-1 $268 $269 $99 $160 forward $257 $-1 #
edge $-1 $270 10.490298628092805 $271 20.194931026207261 $159 $272 forward 7 unknown #
face $-1 $273 $274 $36 $-1 $275 reversed single #
loop $-1 $-1 $276 $100 #
plane-surface $-1 -167.36840565659512 -6.2281276067518601 119.92098367582911 0 -1 0 0.62932039886446345 0 -0.77714595512881146 forward_v I I I I #
coedge $-1 $277 $278 $279 $280 reversed $101 $-1 #
coedge $-1 $166 $103 $281 $282 reversed $65 $-1 #
coedge $-1 $103 $165 $277 $283 reversed $65 $-1 #
coedge $-1 $279 $284 $103 $168 forward $285 $-1 #
edge $-1 $286 9.5828203398182978 $287 13.670912392614127 $167 $288 forward 7 unknown #
loop $-1 $-1 $174 $104 #
plane-surface $-1 -74.101382488479246 -10.421151485181873 4.7458043350799102 -0.62932039886446345 0 0.77714595512881146 0.77714595512881146 0 0.62932039886446345 forward_v I I I I #
loop $-1 $-1 $289 $67 #
coedge $-1 $172 $172 $173 $290 reversed $105 $-1 #
coedge $-1 $173 $173 $172 $290 forward $107 $-1 #
coedge $-1 $174 $174 $108 $175 forward $169 $-1 #
edge $-1 $291 0 $291 6.2831853071796004 $174 $292 forward 7 unknown #
loop $-1 $-1 $181 $109 #
plane-surface $-1 -74.101382488479246 -10.421151485181873 4.7458043350799102 -0.62932039886446345 0 0.77714595512881146 0.77714595512881146 0 0.62932039886446345 forward_v I I I I #
loop $-1 $-1 $293 $70 #
coedge $-1 $179 $179 $180 $294 reversed $110 $-1 #
coedge $-1 $180 $180 $179 $294 forward $112 $-1 #
coedge $-1 $181 $181 $113 $182 forward $176 $-1 #
edge $-1 $295 0 $295 6.2831853071796004 $181 $296 forward 7 unknown #
face $-1 $297 $298 $39 $-1 $299 forward single #
loop $-1 $-1 $300 $114 #
plane-surface $-1 -167.36840565659512 14.614175363611887 119.92098367582911 0 -1 0 0.62932039886446345 0 -0.77714595512881146 forward_v I I I I #
coedge $-1 $301 $302 $303 $304 reversed $115 $-1 #
coedge $-1 $188 $117 $305 $306 reversed $74 $-1 #
coedge $-1 $117 $187 $301 $307 reversed $74 $-1 #
coedge $-1 $303 $308 $117 $190 forward $298 $-1 #
edge $-1 $309 9.5828203398182978 $310 13.670912392614127 $189 $311 forward 7 unknown #
loop $-1 $-1 $196 $118 #
plane-surface $-1 -74.101382488479246 10.421151485181873 4.7458043350799102 -0.62932039886446345 0 0.77714595512881146 0.77714595512881146 0 0.62932039886446345 forward_v I I I I #
loop $-1 $-1 $312 $76 #
coedge $-1 $194 $194 $195 $313 reversed $119 $-1 #
coedge $-1 $195 $195 $194 $313 forward $121 $-1 #
coedge $-1 $196 $196 $122 $197 forward $191 $-1 #
edge $-1 $314 0 $314 6.2831853071796004 $196 $315 forward 7 unknown #
loop $-1 $-1 $203 $123 #
plane-surface $-1 -74.101382488479246 10.421151485181873 4.7458043350799102 -0.62932039886446345 0 0.77714595512881146 0.77714595512881146 0 0.62932039886446345 forward_v I I I I #
loop $-1 $-1 $316 $79 #
coedge $-1 $201 $201 $202 $317 reversed $124 $-1 #
coedge $-1 $202 $202 $201 $317 forward $126 $-1 #
coedge $-1 $203 $203 $127 $204 forward $198 $-1 #
edge $-1 $318 0 $318 6.2831853071796004 $203 $319 forward 7 unknown #
face $-1 $320 $321 $42 $-1 $322 forward single #
loop $-1 $-1 $323 $128 #
plane-surface $-1 30.525098062118772 -2.7483435314220586 209.31679208737802 0 1 0 0.54463904215088732 0 0.83867056331134215 forward_v I I I I #
coedge $-1 $324 $325 $326 $327 reversed $129 $-1 #
coedge $-1 $210 $131 $328 $329 reversed $83 $-1 #
coedge $-1 $131 $209 $324 $330 reversed $83 $-1 #
coedge $-1 $326 $331 $131 $212 forward $321 $-1 #
edge $-1 $332 -58.838833457419874 $333 -53.064659726669895 $211 $334 forward 7 unknown #
loop $-1 $-1 $218 $132 #
plane-surface $-1 -50.191913899044991 0.61289448545893777 85.023495699853768 0.54463904215088732 0 0.83867056331134215 0.83867056331134215 0 -0.54463904215088732 forward_v I I I I #
loop $-1 $-1 $335 $85 #
coedge $-1 $216 $216 $217 $336 reversed $133 $-1 #
coedge $-1 $217 $217 $216 $336 forward $135 $-1 #
coedge $-1 $218 $218 $136 $219 forward $213 $-1 #
edge $-1 $337 0 $337 6.2831853071796004 $218 $338 forward 7 unknown #
face $-1 $339 $340 $33 $-1 $341 reversed single #
loop $-1 $-1 $342 $137 #
plane-surface $-1 -74.10138248847926 0 0 1 0 0 0 0 -1 forward_v I I I I #
coedge $-1 $343 $231 $344 $345 forward $138 $-1 #
coedge $-1 $346 $140 $343 $347 forward $89 $-1 #
coedge $-1 $140 $346 $348 $349 forward $89 $-1 #
coedge $-1 $234 $233 $140 $227 reversed $235 $-1 #
edge $-1 $350 -35.537545853357294 $351 35.537545853357294 $226 $352 forward 7 unknown #
coedge $-1 $142 $141 $353 $354 forward $56 $-1 #
coedge $-1 $355 $356 $141 $230 reversed $340 $-1 #
edge $-1 $237 -74.10138248847926 $357 74.10138248847926 $229 $358 forward 7 unknown #
coedge $-1 $223 $359 $142 $232 reversed $138 $-1 #
edge $-1 $360 -74.10138248847926 $236 74.10138248847926 $231 $361 forward 7 unknown #
coedge $-1 $226 $143 $359 $362 forward $235 $-1 #
coedge $-1 $143 $226 $355 $363 reversed $235 $-1 #
loop $-1 $-1 $233 $339 #
vertex $-1 $144 $364 #
vertex $-1 $144 $365 #
straight-curve $-1 74.10138248847926 0 8.056276073729931 0 1 0 I I #
face $-1 $366 $367 $34 $-1 $368 forward single #
loop $-1 $-1 $248 $145 #
plane-surface $-1 0 -35.537545853357294 0 0 1 0 0 0 1 forward_v I I I I #
coedge $-1 $369 $370 $371 $372 forward $146 $-1 #
coedge $-1 $371 $148 $150 $250 reversed $93 $-1 #
coedge $-1 $148 $371 $373 $374 reversed $93 $-1 #
coedge $-1 $375 $151 $148 $246 forward $252 $-1 #
edge $-1 $254 1.7781380368649655 $376 4.7781380368649655 $245 $377 forward 7 unknown #
coedge $-1 $150 $149 $369 $378 reversed $59 $-1 #
coedge $-1 $379 $380 $149 $249 forward $240 $-1 #
edge $-1 $381 -74.10138248847926 $253 74.10138248847926 $248 $382 forward 7 unknown #
edge $-1 $383 -74.10138248847926 $254 74.10138248847926 $243 $384 forward 7 unknown #
coedge $-1 $151 $375 $379 $385 forward $252 $-1 #
loop $-1 $-1 $245 $366 #
vertex $-1 $249 $386 #
vertex $-1 $152 $387 #
straight-curve $-1 74.10138248847926 -15.342614827150033 5.056276073729931 0 1 0 I I #
face $-1 $388 $389 $35 $-1 $390 reversed single #
loop $-1 $-1 $269 $153 #
plane-surface $-1 74.10138248847926 0 0 -1 0 0 0 0 1 forward_v I I I I #
coedge $-1 $391 $392 $261 $393 forward $154 $-1 #
coedge $-1 $394 $156 $157 $265 reversed $97 $-1 #
coedge $-1 $156 $394 $259 $393 reversed $97 $-1 #
coedge $-1 $395 $396 $156 $263 forward $389 $-1 #
edge $-1 $397 1.7781380368649655 $398 4.7781380368649655 $262 $399 forward 7 unknown #
coedge $-1 $158 $157 $396 $400 reversed $62 $-1 #
edge $-1 $270 -74.10138248847926 $397 74.10138248847926 $260 $401 forward 7 unknown #
coedge $-1 $402 $403 $158 $267 forward $404 $-1 #
edge $-1 $271 -74.10138248847926 $405 74.10138248847926 $266 $406 forward 7 unknown #
coedge $-1 $407 $159 $403 $408 reversed $257 $-1 #
coedge $-1 $159 $407 $394 $409 forward $257 $-1 #
vertex $-1 $160 $410 #
vertex $-1 $267 $411 #
straight-curve $-1 74.10138248847926 15.342614827150033 5.056276073729931 0 1 0 I I #
face $-1 $-1 $285 $36 $-1 $412 forward single #
loop $-1 $-1 $413 $161 #
plane-surface $-1 -74.10138248847926 0 0 1 0 0 0 0 -1 forward_v I I I I #
coedge $-1 $414 $415 $416 $417 reversed $162 $-1 #
coedge $-1 $418 $164 $166 $283 forward $101 $-1 #
coedge $-1 $164 $418 $414 $419 forward $101 $-1 #
coedge $-1 $416 $167 $164 $280 forward $285 $-1 #
edge $-1 $287 -9.40359962102095 $420 -1.0175518641609234 $279 $421 forward 7 unknown #
coedge $-1 $422 $423 $165 $282 forward $274 $-1 #
edge $-1 $424 -55.214687502834657 $286 -51.90421576418462 $281 $425 forward 7 unknown #
edge $-1 $287 -5.2603915980212719 $424 1.8310242626372826e-014 $166 $426 forward 7 unknown #
coedge $-1 $167 $416 $422 $427 forward $285 $-1 #
loop $-1 $-1 $416 $273 #
vertex $-1 $282 $428 #
vertex $-1 $168 $429 #
straight-curve $-1 -83.684202828297558 -14.614175363611887 8.0562760737299328 1 0 0 I I #
coedge $-1 $289 $289 $-1 $430 reversed $171 $-1 #
edge $-1 $431 0 $431 6.2831853071796004 $172 $432 forward 7 unknown #
vertex $-1 $175 $433 #
ellipse-curve $-1 -72.057336462081352 -12.218161718794736 6.4010402044049082 -0.62932039886446345 0 0.77714595512881146 0.38857297756440573 0 0.31466019943223172 1 I I #
coedge $-1 $293 $293 $-1 $434 reversed $178 $-1 #
edge $-1 $435 0 $435 6.2831853071796004 $179 $436 forward 7 unknown #
vertex $-1 $182 $437 #
ellipse-curve $-1 -72.057336462081352 -8.6241412515690072 6.4010402044049082 -0.62932039886446345 0 0.77714595512881146 0.38857297756440573 0 0.31466019943223172 1 I I #
face $-1 $-1 $438 $39 $-1 $439 reversed single #
loop $-1 $-1 $189 $183 #
plane-surface $-1 0 0 8.056276073729931 0 0 1 1 0 0 forward_v I I I I #
coedge $-1 $440 $441 $442 $443 reversed $184 $-1 #
coedge $-1 $444 $186 $188 $307 forward $115 $-1 #
coedge $-1 $186 $444 $440 $445 forward $115 $-1 #
coedge $-1 $442 $189 $186 $304 forward $298 $-1 #
edge $-1 $310 1.0175518641609234 $446 9.40359962102095 $303 $447 forward 7 unknown #
coedge $-1 $448 $449 $187 $306 forward $438 $-1 #
edge $-1 $450 -55.214687502834657 $309 -51.90421576418462 $305 $451 forward 7 unknown #
edge $-1 $310 -5.2603915980212719 $450 1.8310242626372826e-014 $188 $452 forward 7 unknown #
coedge $-1 $189 $442 $448 $453 forward $298 $-1 #
vertex $-1 $190 $454 #
vertex $-1 $190 $455 #
straight-curve $-1 -83.684202828297558 6.2281276067518601 8.0562760737299328 1 0 0 I I #
coedge $-1 $312 $312 $-1 $456 reversed $193 $-1 #
edge $-1 $457 0 $457 6.2831853071796004 $194 $458 forward 7 unknown #
vertex $-1 $197 $459 #
ellipse-curve $-1 -72.057336462081352 8.6241412515690072 6.4010402044049082 -0.62932039886446345 0 0.77714595512881146 0.38857297756440573 0 0.31466019943223172 1 I I #
coedge $-1 $316 $316 $-1 $460 reversed $200 $-1 #
edge $-1 $461 0 $461 6.2831853071796004 $201 $462 forward 7 unknown #
vertex $-1 $204 $463 #
ellipse-curve $-1 -72.057336462081352 12.21816171879474 6.4010402044049082 -0.62932039886446345 0 0.77714595512881146 0.38857297756440573 0 0.31466019943223172 1 I I #
face $-1 $-1 $464 $42 $-1 $465 reversed single #
loop $-1 $-1 $211 $205 #
plane-surface $-1 0 0 8.056276073729931 0 0 1 1 0 0 forward_v I I I I #
coedge $-1 $466 $467 $468 $469 reversed $206 $-1 #
coedge $-1 $470 $208 $210 $330 forward $129 $-1 #
coedge $-1 $208 $470 $466 $471 forward $129 $-1 #
coedge $-1 $468 $211 $208 $327 forward $321 $-1 #
edge $-1 $333 -3.6676852596104652 $472 3.0547907741515274 $326 $473 forward 7 unknown #
coedge $-1 $474 $475 $209 $329 forward $464 $-1 #
edge $-1 $476 -100.351912304999 $332 -96.602119969959077 $328 $477 forward 7 unknown #
edge $-1 $333 141.31785213591201 $476 148.20276497695852 $210 $478 forward 7 unknown #
coedge $-1 $211 $468 $474 $479 forward $321 $-1 #
vertex $-1 $329 $480 #
vertex $-1 $212 $481 #
straight-curve $-1 15.262549031059386 3.9741325023399341 8.0562760737299328 -1 0 0 I I #
coedge $-1 $335 $335 $-1 $482 reversed $215 $-1 #
edge $-1 $483 0 $483 6.2831853071796004 $216 $484 forward 7 unknown #
vertex $-1 $219 $485 #
ellipse-curve $-1 71.214295623104249 0.61289448545893777 6.1813799062099886 0.54463904215088732 0 0.83867056331134215 1.2580058449670133 0 -0.81695856322633098 1 I I #
face $-1 $-1 $235 $33 $-1 $486 reversed single #
loop $-1 $-1 $355 $220 #
plane-surface $-1 0 35.537545853357294 0 0 -1 0 0 0 -1 forward_v I I I I #
coedge $-1 $487 $353 $356 $488 forward $221 $-1 #
coedge $-1 $359 $223 $224 $347 reversed $138 $-1 #
coedge $-1 $353 $487 $223 $345 reversed $221 $-1 #
edge $-1 $360 -8.056276073729931 $489 8.056276073729931 $344 $490 forward 7 unknown #
coedge $-1 $225 $224 $487 $491 forward $89 $-1 #
edge $-1 $351 -74.10138248847926 $489 74.10138248847926 $343 $492 forward 7 unknown #
coedge $-1 $356 $355 $225 $349 reversed $340 $-1 #
edge $-1 $493 -74.10138248847926 $350 74.10138248847926 $348 $494 forward 7 unknown #
vertex $-1 $227 $495 #
vertex $-1 $362 $496 #
straight-curve $-1 74.10138248847926 0 -8.056276073729931 0 -1 0 I I #
coedge $-1 $342 $344 $228 $354 reversed $221 $-1 #
edge $-1 $357 -35.537545853357294 $360 35.537545853357294 $353 $497 forward 7 unknown #
coedge $-1 $348 $229 $234 $363 forward $340 $-1 #
coedge $-1 $229 $348 $342 $488 reversed $340 $-1 #
vertex $-1 $230 $498 #
straight-curve $-1 0 35.537545853357294 8.056276073729931 -1 0 0 I I #
coedge $-1 $231 $343 $233 $362 reversed $138 $-1 #
vertex $-1 $354 $499 #
straight-curve $-1 0 -35.537545853357294 8.056276073729931 1 0 0 I I #
edge $-1 $236 -8.056276073729931 $351 8.056276073729931 $233 $500 forward 7 unknown #
edge $-1 $237 -8.056276073729931 $350 8.056276073729931 $234 $501 forward 7 unknown #
point $-1 74.10138248847926 -35.537545853357294 8.056276073729931 #
point $-1 74.10138248847926 35.537545853357294 8.056276073729931 #
face $-1 $-1 $252 $34 $-1 $502 reversed single #
loop $-1 $-1 $373 $239 #
plane-surface $-1 0 0 8.056276073729931 0 0 1 1 0 0 forward_v I I I I #
coedge $-1 $503 $242 $247 $378 forward $146 $-1 #
coedge $-1 $242 $503 $504 $505 reversed $146 $-1 #
coedge $-1 $244 $243 $242 $372 reversed $93 $-1 #
edge $-1 $506 -4.7781380368649655 $383 -1.7781380368649655 $242 $507 forward 7 unknown #
coedge $-1 $504 $508 $244 $374 forward $367 $-1 #
edge $-1 $376 -74.10138248847926 $506 74.10138248847926 $373 $509 forward 7 unknown #
coedge $-1 $251 $245 $508 $510 reversed $252 $-1 #
vertex $-1 $246 $511 #
straight-curve $-1 74.10138248847926 -25.832913455242839 3.2781380368649655 0 0 1 I I #
edge $-1 $383 10.490298628092805 $381 20.194931026207261 $369 $512 forward 7 unknown #
coedge $-1 $513 $248 $251 $385 reversed $240 $-1 #
coedge $-1 $248 $513 $503 $514 forward $240 $-1 #
vertex $-1 $249 $515 #
straight-curve $-1 0 -35.537545853357294 5.056276073729931 1 0 0 I I #
vertex $-1 $378 $516 #
straight-curve $-1 0 -25.832913455242839 5.056276073729931 1 0 0 I I #
edge $-1 $517 -8.056276073729931 $253 -5.056276073729931 $251 $518 forward 7 unknown #
point $-1 74.10138248847926 -35.537545853357294 5.056276073729931 #
point $-1 74.10138248847926 -25.832913455242839 5.056276073729931 #
face $-1 $-1 $404 $35 $-1 $519 reversed single #
loop $-1 $-1 $262 $256 #
plane-surface $-1 -74.10138248847926 0 0 1 0 0 0 0 -1 forward_v I I I I #
coedge $-1 $520 $259 $407 $521 forward $154 $-1 #
coedge $-1 $259 $520 $395 $522 forward $154 $-1 #
edge $-1 $398 -74.10138248847926 $523 74.10138248847926 $259 $524 forward 7 unknown #
coedge $-1 $261 $260 $269 $409 reversed $97 $-1 #
coedge $-1 $525 $262 $392 $522 reversed $389 $-1 #
coedge $-1 $262 $525 $264 $400 forward $389 $-1 #
vertex $-1 $400 $526 #
vertex $-1 $263 $527 #
straight-curve $-1 -74.10138248847926 25.832913455242839 3.2781380368649655 0 0 1 I I #
edge $-1 $405 -20.194931026207261 $397 -10.490298628092805 $396 $528 forward 7 unknown #
straight-curve $-1 0 25.832913455242839 5.056276073729931 -1 0 0 I I #
coedge $-1 $529 $266 $525 $530 reversed $404 $-1 #
coedge $-1 $266 $529 $268 $408 forward $404 $-1 #
loop $-1 $-1 $266 $388 #
vertex $-1 $267 $531 #
straight-curve $-1 0 35.537545853357294 5.056276073729931 -1 0 0 I I #
coedge $-1 $269 $268 $391 $521 reversed $257 $-1 #
edge $-1 $532 -8.056276073729931 $271 -5.056276073729931 $268 $533 forward 7 unknown #
edge $-1 $523 -4.7781380368649655 $270 -1.7781380368649655 $269 $534 forward 7 unknown #
point $-1 74.10138248847926 25.832913455242839 5.056276073729931 #
point $-1 74.10138248847926 35.537545853357294 5.056276073729931 #
plane-surface $-1 0 0 8.056276073729931 0 0 1 1 0 0 forward_v I I I I #
coedge $-1 $423 $422 $415 $535 forward $274 $-1 #
coedge $-1 $415 $276 $278 $419 reversed $162 $-1 #
coedge $-1 $276 $414 $413 $535 reversed $162 $-1 #
coedge $-1 $284 $279 $276 $417 forward $285 $-1 #
edge $-1 $420 -13.670912392614127 $536 -9.5828203398182978 $416 $537 forward 7 unknown #
coedge $-1 $278 $277 $423 $538 reversed $101 $-1 #
edge $-1 $539 -1.8310242626372826e-014 $420 5.2603915980212719 $414 $540 forward 7 unknown #
vertex $-1 $280 $541 #
straight-curve $-1 -70.01329043568343 -5.2105757425909367 8.0562760737299275 0 1 0 I I #
coedge $-1 $413 $281 $284 $427 reversed $274 $-1 #
coedge $-1 $281 $413 $418 $538 forward $274 $-1 #
vertex $-1 $282 $542 #
straight-curve $-1 -74.10138248847926 -14.614175363611887 59.960491837914553 0 0 1 I I #
straight-curve $-1 -74.101382488479246 -14.614175363611887 4.7458043350799102 -0.77714595512881146 0 -0.62932039886446345 I I #
edge $-1 $536 6.2281276067518601 $286 14.614175363611887 $422 $543 forward 7 unknown #
point $-1 -74.10138248847926 -14.614175363611887 8.056276073729931 #
point $-1 -70.01329043568343 -14.614175363611887 8.056276073729931 #
edge $-1 $544 1 $544 0 $289 $-1 forward 7 unknown #
vertex $-1 $290 $545 #
ellipse-curve $-1 -70.825343879124148 -12.218161718794736 4.879656098119022 -0.62932039886446345 0 0.77714595512881146 0.38857297756440573 0 0.31466019943223172 1 I I #
point $-1 -71.668763484516958 -12.218161718794736 6.7157004038371602 #
edge $-1 $546 1 $546 0 $293 $-1 forward 7 unknown #
vertex $-1 $294 $547 #
ellipse-curve $-1 -70.825343879124148 -8.6241412515690072 4.879656098119022 -0.62932039886446345 0 0.77714595512881146 0.38857297756440573 0 0.31466019943223172 1 I I #
point $-1 -71.668763484516958 -8.6241412515690072 6.7157004038371602 #
loop $-1 $-1 $305 $297 #
plane-surface $-1 -74.10138248847926 0 0 1 0 0 0 0 -1 forward_v I I I I #
coedge $-1 $441 $300 $302 $445 reversed $184 $-1 #
coedge $-1 $300 $440 $548 $549 reversed $184 $-1 #
coedge $-1 $308 $303 $300 $443 forward $298 $-1 #
edge $-1 $446 -13.670912392614127 $550 -9.5828203398182978 $442 $551 forward 7 unknown #
coedge $-1 $302 $301 $449 $552 reversed $115 $-1 #
edge $-1 $553 -1.8310242626372826e-014 $446 5.2603915980212719 $440 $554 forward 7 unknown #
vertex $-1 $304 $555 #
straight-curve $-1 -70.01329043568343 5.2105757425909367 8.0562760737299275 0 1 0 I I #
coedge $-1 $548 $305 $308 $453 reversed $438 $-1 #
coedge $-1 $305 $548 $444 $552 forward $438 $-1 #
vertex $-1 $306 $556 #
straight-curve $-1 -74.10138248847926 6.2281276067518601 59.960491837914553 0 0 1 I I #
straight-curve $-1 -74.101382488479246 6.2281276067518601 4.7458043350799102 -0.77714595512881146 0 -0.62932039886446345 I I #
edge $-1 $550 -14.614175363611887 $309 -6.2281276067518601 $448 $557 forward 7 unknown #
point $-1 -74.10138248847926 6.2281276067518601 8.056276073729931 #
point $-1 -70.01329043568343 6.2281276067518601 8.056276073729931 #
edge $-1 $558 1 $558 0 $312 $-1 forward 7 unknown #
vertex $-1 $313 $559 #
ellipse-curve $-1 -70.825343879124148 8.6241412515690072 4.879656098119022 -0.62932039886446345 0 0.77714595512881146 0.38857297756440573 0 0.31466019943223172 1 I I #
point $-1 -71.668763484516958 8.6241412515690072 6.7157004038371602 #
edge $-1 $560 1 $560 0 $316 $-1 forward 7 unknown #
vertex $-1 $317 $561 #
ellipse-curve $-1 -70.825343879124148 12.21816171879474 4.879656098119022 -0.62932039886446345 0 0.77714595512881146 0.38857297756440573 0 0.31466019943223172 1 I I #
point $-1 -71.668763484516958 12.21816171879474 6.7157004038371602 #
loop $-1 $-1 $328 $320 #
plane-surface $-1 74.10138248847926 0 0 -1 0 0 0 0 1 forward_v I I I I #
coedge $-1 $467 $323 $325 $471 reversed $206 $-1 #
coedge $-1 $323 $466 $562 $563 reversed $206 $-1 #
coedge $-1 $331 $326 $323 $469 forward $321 $-1 #
edge $-1 $472 53.064659726669895 $564 58.838833457419874 $468 $565 forward 7 unknown #
coedge $-1 $325 $324 $475 $566 reversed $129 $-1 #
edge $-1 $567 -148.20276497695852 $472 -141.31785213591201 $466 $568 forward 7 unknown #
vertex $-1 $327 $569 #
straight-curve $-1 68.327208757729295 0.30644724272946888 8.0562760737299186 0 -1 0 I I #
coedge $-1 $562 $328 $331 $479 reversed $464 $-1 #
coedge $-1 $328 $562 $470 $566 forward $464 $-1 #
vertex $-1 $329 $570 #
straight-curve $-1 74.10138248847926 3.9741325023399341 104.65839604368901 0 0 1 I I #
straight-curve $-1 -50.191913899044991 3.9741325023399341 85.023495699853768 0.83867056331134215 0 -0.54463904215088732 I I #
edge $-1 $564 -2.7483435314220586 $332 3.9741325023399341 $474 $571 forward 7 unknown #
point $-1 74.10138248847926 3.9741325023399341 8.056276073729931 #
point $-1 68.327208757729281 3.9741325023399341 8.0562760737299328 #
edge $-1 $572 1 $572 0 $335 $-1 forward 7 unknown #
vertex $-1 $336 $573 #
ellipse-curve $-1 68.848588867168999 0.61289448545893777 2.5385110259433934 0.54463904215088732 0 0.83867056331134215 1.2580058449670133 0 -0.81695856322633098 1 I I #
point $-1 72.472301468071265 0.61289448545893777 5.3644213429836434 #
plane-surface $-1 74.10138248847926 0 0 -1 0 0 0 0 1 forward_v I I I I #
coedge $-1 $344 $342 $346 $491 reversed $221 $-1 #
edge $-1 $357 -8.056276073729931 $493 8.056276073729931 $356 $574 forward 7 unknown #
vertex $-1 $491 $575 #
straight-curve $-1 -74.10138248847926 -35.537545853357294 0 0 0 -1 I I #
edge $-1 $489 -35.537545853357294 $493 35.537545853357294 $487 $576 forward 7 unknown #
straight-curve $-1 0 -35.537545853357294 -8.056276073729931 -1 0 0 I I #
vertex $-1 $349 $577 #
straight-curve $-1 0 35.537545853357294 -8.056276073729931 1 0 0 I I #
point $-1 74.10138248847926 35.537545853357294 -8.056276073729931 #
point $-1 74.10138248847926 -35.537545853357294 -8.056276073729931 #
straight-curve $-1 -74.10138248847926 0 8.056276073729931 0 -1 0 I I #
point $-1 -74.10138248847926 35.537545853357294 8.056276073729931 #
point $-1 -74.10138248847926 -35.537545853357294 8.056276073729931 #
straight-curve $-1 74.10138248847926 -35.537545853357294 0 0 0 -1 I I #
straight-curve $-1 74.10138248847926 35.537545853357294 0 0 0 -1 I I #
plane-surface $-1 74.10138248847926 0 0 -1 0 0 0 0 1 forward_v I I I I #
coedge $-1 $370 $369 $380 $514 reversed $146 $-1 #
coedge $-1 $578 $373 $370 $505 forward $367 $-1 #
edge $-1 $506 25.832913455242839 $579 35.537545853357294 $370 $580 forward 7 unknown #
vertex $-1 $505 $581 #
straight-curve $-1 -74.10138248847926 -25.832913455242839 3.2781380368649655 0 0 -1 I I #
coedge $-1 $373 $578 $375 $510 forward $367 $-1 #
straight-curve $-1 0 -25.832913455242839 8.056276073729931 -1 0 0 I I #
edge $-1 $517 -35.537545853357294 $376 -25.832913455242839 $375 $582 forward 7 unknown #
point $-1 74.10138248847926 -25.832913455242839 8.056276073729931 #
straight-curve $-1 -74.10138248847926 -15.342614827150033 5.056276073729931 0 -1 0 I I #
coedge $-1 $380 $379 $578 $583 reversed $240 $-1 #
edge $-1 $579 -8.056276073729931 $381 -5.056276073729931 $503 $584 forward 7 unknown #
point $-1 -74.10138248847926 -35.537545853357294 5.056276073729931 #
point $-1 -74.10138248847926 -25.832913455242839 5.056276073729931 #
vertex $-1 $510 $585 #
straight-curve $-1 74.10138248847926 -35.537545853357294 0 0 0 -1 I I #
plane-surface $-1 0 35.537545853357294 0 0 -1 0 0 0 -1 forward_v I I I I #
coedge $-1 $392 $391 $529 $586 forward $154 $-1 #
edge $-1 $523 25.832913455242839 $532 35.537545853357294 $407 $587 forward 7 unknown #
edge $-1 $588 -35.537545853357294 $398 -25.832913455242839 $395 $589 forward 7 unknown #
vertex $-1 $521 $590 #
straight-curve $-1 0 25.832913455242839 8.056276073729931 1 0 0 I I #
coedge $-1 $396 $395 $402 $530 forward $389 $-1 #
point $-1 -74.10138248847926 25.832913455242839 5.056276073729931 #
point $-1 -74.10138248847926 25.832913455242839 8.056276073729931 #
straight-curve $-1 -74.10138248847926 15.342614827150033 5.056276073729931 0 -1 0 I I #
coedge $-1 $403 $402 $520 $586 reversed $404 $-1 #
edge $-1 $588 -8.056276073729931 $405 -5.056276073729931 $402 $591 forward 7 unknown #
point $-1 -74.10138248847926 35.537545853357294 5.056276073729931 #
vertex $-1 $521 $592 #
straight-curve $-1 74.10138248847926 35.537545853357294 0 0 0 -1 I I #
straight-curve $-1 74.10138248847926 25.832913455242839 3.2781380368649655 0 0 -1 I I #
edge $-1 $536 51.90421576418462 $539 55.214687502834657 $413 $593 forward 7 unknown #
vertex $-1 $427 $594 #
straight-curve $-1 -83.684202828297558 -6.2281276067518601 8.0562760737299328 -1 0 0 I I #
edge $-1 $539 1.0175518641609234 $424 9.40359962102095 $423 $595 forward 7 unknown #
vertex $-1 $538 $596 #
straight-curve $-1 -74.101382488479246 -6.2281276067518601 4.7458043350799102 0.77714595512881146 0 0.62932039886446345 I I #
point $-1 -70.01329043568343 -6.2281276067518601 8.056276073729931 #
point $-1 -74.10138248847926 -14.614175363611887 4.7458043350798986 #
straight-curve $-1 -74.10138248847926 0 8.056276073729931 0 -1 0 I I #
vertex $-1 $430 $597 #
point $-1 -70.43677090155974 -12.218161718794736 5.1943162975512536 #
vertex $-1 $434 $598 #
point $-1 -70.43677090155974 -8.6241412515690072 5.1943162975512536 #
coedge $-1 $449 $448 $441 $549 forward $438 $-1 #
edge $-1 $550 51.90421576418462 $553 55.214687502834657 $548 $599 forward 7 unknown #
vertex $-1 $453 $600 #
straight-curve $-1 -83.684202828297558 14.614175363611887 8.0562760737299328 -1 0 0 I I #
edge $-1 $553 -9.40359962102095 $450 -1.0175518641609234 $449 $601 forward 7 unknown #
vertex $-1 $552 $602 #
straight-curve $-1 -74.101382488479246 14.614175363611887 4.7458043350799102 0.77714595512881146 0 0.62932039886446345 I I #
point $-1 -70.01329043568343 14.614175363611887 8.056276073729931 #
point $-1 -74.10138248847926 6.2281276067518601 4.7458043350798986 #
straight-curve $-1 -74.10138248847926 0 8.056276073729931 0 -1 0 I I #
vertex $-1 $456 $603 #
point $-1 -70.43677090155974 8.6241412515690072 5.1943162975512536 #
vertex $-1 $460 $604 #
point $-1 -70.43677090155974 12.21816171879474 5.1943162975512536 #
coedge $-1 $475 $474 $467 $563 forward $464 $-1 #
edge $-1 $564 96.602119969959077 $567 100.351912304999 $562 $605 forward 7 unknown #
vertex $-1 $479 $606 #
straight-curve $-1 15.262549031059386 -2.7483435314220586 8.0562760737299328 1 0 0 I I #
edge $-1 $567 -3.0547907741515274 $476 3.6676852596104652 $475 $607 forward 7 unknown #
vertex $-1 $566 $608 #
straight-curve $-1 -50.191913899044991 -2.7483435314220586 85.023495699853768 -0.83867056331134215 0 0.54463904215088732 I I #
point $-1 68.327208757729281 -2.7483435314220586 8.0562760737299328 #
point $-1 74.10138248847926 3.9741325023399341 4.3064837386900052 #
straight-curve $-1 74.10138248847926 0 8.056276073729931 0 1 0 I I #
vertex $-1 $482 $609 #
point $-1 70.106594712136015 0.61289448545893777 1.7215524627170624 #
straight-curve $-1 -74.10138248847926 35.537545853357294 0 0 0 -1 I I #
point $-1 -74.10138248847926 -35.537545853357294 -8.056276073729931 #
straight-curve $-1 -74.10138248847926 0 -8.056276073729931 0 1 0 I I #
point $-1 -74.10138248847926 35.537545853357294 -8.056276073729931 #
coedge $-1 $508 $504 $513 $583 forward $367 $-1 #
vertex $-1 $505 $610 #
straight-curve $-1 -74.10138248847926 0 8.056276073729931 0 -1 0 I I #
point $-1 -74.10138248847926 -25.832913455242839 8.056276073729931 #
straight-curve $-1 74.10138248847926 0 8.056276073729931 0 1 0 I I #
edge $-1 $579 -74.10138248847926 $517 74.10138248847926 $513 $611 forward 7 unknown #
straight-curve $-1 -74.10138248847926 -35.537545853357294 0 0 0 -1 I I #
point $-1 74.10138248847926 -35.537545853357294 8.056276073729931 #
edge $-1 $532 -74.10138248847926 $588 74.10138248847926 $529 $612 forward 7 unknown #
straight-curve $-1 74.10138248847926 0 8.056276073729931 0 1 0 I I #
vertex $-1 $586 $613 #
straight-curve $-1 -74.10138248847926 0 8.056276073729931 0 -1 0 I I #
point $-1 74.10138248847926 25.832913455242839 8.056276073729931 #
straight-curve $-1 -74.10138248847926 35.537545853357294 0 0 0 -1 I I #
point $-1 74.10138248847926 35.537545853357294 8.056276073729931 #
straight-curve $-1 -74.10138248847926 -6.2281276067518601 59.960491837914553 0 0 -1 I I #
point $-1 -74.10138248847926 -6.2281276067518601 8.056276073729931 #
straight-curve $-1 -74.10138248847926 -5.2105757425909367 4.7458043350799013 0 -1 0 I I #
point $-1 -74.10138248847926 -6.2281276067518601 4.7458043350798986 #
point $-1 -70.510683679691908 -12.218161718794736 4.4910831205546158 #
point $-1 -70.510683679691908 -8.6241412515690072 4.4910831205546158 #
straight-curve $-1 -74.10138248847926 14.614175363611887 59.960491837914553 0 0 -1 I I #
point $-1 -74.10138248847926 14.614175363611887 8.056276073729931 #
straight-curve $-1 -74.10138248847926 5.2105757425909367 4.7458043350799013 0 -1 0 I I #
point $-1 -74.10138248847926 14.614175363611887 4.7458043350798986 #
point $-1 -70.510683679691908 8.6241412515690072 4.4910831205546158 #
point $-1 -70.510683679691908 12.21816171879474 4.4910831205546158 #
straight-curve $-1 74.10138248847926 -2.7483435314220586 104.65839604368901 0 0 -1 I I #
point $-1 74.10138248847926 -2.7483435314220586 8.056276073729931 #
straight-curve $-1 74.10138248847926 0.30644724272946888 4.3064837386900123 0 1 0 I I #
point $-1 74.10138248847926 -2.7483435314220586 4.3064837386900052 #
point $-1 68.031630303942663 0.61289448545893777 1.2805051809763799 #
point $-1 -74.10138248847926 -35.537545853357294 8.056276073729931 #
straight-curve $-1 0 -35.537545853357294 8.056276073729931 1 0 0 I I #
straight-curve $-1 0 35.537545853357294 8.056276073729931 -1 0 0 I I #
point $-1 -74.10138248847926 35.537545853357294 8.056276073729931 #
End-of-ACIS-data 