500 0 5 0           
7 Unknown 11 ACIS 5.0 NT 24 Fri Mar 26 17:20:44 1999 
-1 9.9999999999999995e-007 1e-010 
body $-1 $5 $-1 $6 #
body $-1 $7 $-1 $8 #
body $-1 $9 $-1 $10 #
body $-1 $11 $-1 $12 #
body $-1 $13 $-1 $14 #
lump $-1 $-1 $15 $0 #
transform $-1 1 0 0 0 1 0 0 0 1 62.348094119083228 31.739550571373382 8.6839883061439718 1 rotate no_reflect no_shear #
lump $-1 $-1 $16 $1 #
transform $-1 1 0 0 0 1 0 0 0 1 62.348094119083228 31.739550571373382 8.6839883061439718 1 rotate no_reflect no_shear #
lump $-1 $-1 $17 $2 #
transform $-1 1 0 0 0 1 0 0 0 1 62.348094119083228 31.739550571373382 8.6839883061439718 1 rotate no_reflect no_shear #
lump $-1 $-1 $18 $3 #
transform $-1 1 0 0 0 1 0 0 0 1 62.348094119083228 31.739550571373382 8.6839883061439718 1 rotate no_reflect no_shear #
lump $-1 $-1 $19 $4 #
transform $-1 1 0 0 0 1 0 0 0 1 62.348094119083228 31.739550571373382 8.6839883061439718 1 rotate no_reflect no_shear #
shell $-1 $-1 $-1 $20 $-1 $5 #
shell $-1 $-1 $-1 $21 $-1 $7 #
shell $-1 $-1 $-1 $22 $-1 $9 #
shell $-1 $-1 $-1 $23 $-1 $11 #
shell $-1 $-1 $-1 $24 $-1 $13 #
face $-1 $25 $26 $15 $-1 $27 forward single #
face $-1 $28 $29 $16 $-1 $30 reversed single #
face $-1 $31 $32 $17 $-1 $33 forward single #
face $-1 $34 $35 $18 $-1 $36 reversed single #
face $-1 $37 $38 $19 $-1 $39 reversed single #
face $-1 $40 $41 $15 $-1 $42 reversed single #
loop $-1 $-1 $43 $20 #
plane-surface $-1 0 0 8.6839883061439718 0 0 1 1 0 0 forward_v I I I I #
face $-1 $44 $45 $16 $-1 $46 forward single #
loop $-1 $-1 $47 $21 #
plane-surface $-1 -58.39125964023232 0 -4.0522981901383641 0 0 1 1 0 0 forward_v I I I I #
face $-1 $48 $49 $17 $-1 $50 forward single #
loop $-1 $-1 $51 $22 #
plane-surface $-1 71.577387298078762 13.053056052723747 179.07615626809542 0 1 0 0.74314483375859142 0 0.66913059716165679 forward_v I I I I #
face $-1 $52 $53 $18 $-1 $54 reversed single #
loop $-1 $55 $56 $23 #
cone-surface $-1 58.112380205890254 18.392054486623646 4.3294588331437627 -0.74314483375859142 0 -0.66913059716165679 1.0036958957424851 0 -1.1147172506378871 1 I I 0 1 1.5 forward I I I I #
face $-1 $57 $58 $19 $-1 $59 reversed single #
loop $-1 $60 $61 $24 #
cone-surface $-1 58.112380205890254 26.400552137473486 4.3294588331437627 -0.74314483375859142 0 -0.66913059716165679 1.0036958957424851 0 -1.1147172506378871 1 I I 0 1 1.5 forward I I I I #
face $-1 $62 $63 $15 $-1 $64 reversed single #
loop $-1 $-1 $65 $25 #
plane-surface $-1 0 0 -8.6839883061439718 0 0 1 1 0 0 forward_v I I I I #
coedge $-1 $66 $67 $68 $69 forward $26 $-1 #
face $-1 $70 $71 $16 $-1 $72 reversed single #
loop $-1 $-1 $73 $28 #
plane-surface $-1 -54.434425161381412 0 -6.3681432481411679 -1 0 0 0 0 1 forward_v I I I I #
coedge $-1 $74 $75 $76 $77 reversed $29 $-1 #
face $-1 $78 $79 $17 $-1 $80 reversed single #
loop $-1 $-1 $81 $31 #
plane-surface $-1 -21.089940780503468 22.396303312048563 95.638121368508735 0.74314483375859142 0 0.66913059716165679 0.66913059716165679 0 -0.74314483375859142 forward_v I I I I #
coedge $-1 $82 $83 $84 $85 reversed $32 $-1 #
face $-1 $86 $87 $18 $-1 $88 forward single #
loop $-1 $89 $90 $34 #
cone-surface $-1 55.891399552595175 18.392054486623646 2.3296789203810437 -0.74314483375859142 0 -0.66913059716165679 0.50184794787124254 0 -0.55735862531894353 1 I I -0.70710678118654757 0.70710678118654757 0.75 forward I I I I #
loop $-1 $-1 $91 $23 #
coedge $-1 $56 $56 $92 $93 reversed $35 $-1 #
face $-1 $94 $95 $19 $-1 $96 reversed single #
loop $-1 $97 $98 $37 #
cone-surface $-1 55.891399552595175 26.400552137473486 2.3296789203810437 -0.74314483375859142 0 -0.66913059716165679 0.50184794787124254 0 -0.55735862531894353 1 I I -0.70710678118654757 0.70710678118654757 0.75 forward I I I I #
loop $-1 $-1 $99 $24 #
coedge $-1 $61 $61 $100 $101 reversed $38 $-1 #
face $-1 $102 $103 $15 $-1 $104 reversed single #
loop $-1 $-1 $105 $40 #
plane-surface $-1 0 -31.739550571373382 0 0 1 0 0 0 1 forward_v I I I I #
coedge $-1 $106 $107 $108 $109 forward $41 $-1 #
coedge $-1 $110 $43 $111 $112 forward $26 $-1 #
coedge $-1 $43 $110 $113 $114 forward $26 $-1 #
coedge $-1 $115 $116 $43 $69 reversed $117 $-1 #
edge $-1 $118 -31.739550571373382 $119 31.739550571373382 $68 $120 forward 7 unknown #
face $-1 $121 $122 $16 $-1 $123 reversed single #
loop $-1 $-1 $124 $44 #
plane-surface $-1 -62.348094119083228 0 0 1 0 0 0 0 -1 forward_v I I I I #
coedge $-1 $76 $125 $126 $127 reversed $45 $-1 #
coedge $-1 $128 $47 $129 $130 reversed $29 $-1 #
coedge $-1 $47 $128 $131 $132 reversed $29 $-1 #
coedge $-1 $133 $73 $47 $77 forward $45 $-1 #
edge $-1 $134 -31.739550571373382 $135 31.739550571373382 $76 $136 forward 7 unknown #
face $-1 $137 $138 $17 $-1 $139 forward single #
loop $-1 $-1 $140 $48 #
plane-surface $-1 62.348094119083228 0 0 -1 0 0 0 0 1 forward_v I I I I #
coedge $-1 $141 $142 $140 $143 reversed $49 $-1 #
coedge $-1 $83 $51 $142 $144 forward $32 $-1 #
coedge $-1 $51 $82 $145 $146 reversed $32 $-1 #
coedge $-1 $147 $140 $51 $85 forward $79 $-1 #
edge $-1 $148 -86.567284844121218 $149 -80.854089827903735 $84 $150 forward 7 unknown #
face $-1 $151 $152 $18 $-1 $153 forward single #
loop $-1 $-1 $154 $52 #
plane-surface $-1 71.577387298078762 13.053056052723747 179.07615626809542 0 1 0 0.74314483375859142 0 0.66913059716165679 forward_v I I I I #
loop $-1 $-1 $155 $34 #
coedge $-1 $90 $90 $91 $156 forward $53 $-1 #
coedge $-1 $91 $91 $90 $156 reversed $55 $-1 #
coedge $-1 $92 $92 $56 $93 forward $152 $-1 #
edge $-1 $157 0 $157 6.2831853071796004 $92 $158 forward 7 unknown #
face $-1 $159 $160 $19 $-1 $161 reversed single #
loop $-1 $162 $163 $57 #
cone-surface $-1 58.112380205890254 18.392054486623646 4.3294588331437627 -0.74314483375859142 0 -0.66913059716165679 1.0036958957424851 0 -1.1147172506378871 1 I I 0 1 1.5 forward I I I I #
loop $-1 $-1 $164 $37 #
coedge $-1 $98 $98 $99 $165 forward $58 $-1 #
coedge $-1 $99 $99 $98 $165 reversed $60 $-1 #
coedge $-1 $100 $100 $61 $101 forward $166 $-1 #
edge $-1 $167 0 $167 6.2831853071796004 $100 $168 forward 7 unknown #
face $-1 $169 $170 $15 $-1 $171 reversed single #
loop $-1 $-1 $172 $62 #
plane-surface $-1 -62.348094119083228 0 0 1 0 0 0 0 -1 forward_v I I I I #
coedge $-1 $173 $113 $174 $175 forward $63 $-1 #
coedge $-1 $176 $65 $173 $177 forward $41 $-1 #
coedge $-1 $65 $176 $178 $179 forward $41 $-1 #
coedge $-1 $116 $115 $65 $109 reversed $117 $-1 #
edge $-1 $180 -31.739550571373382 $181 31.739550571373382 $108 $182 forward 7 unknown #
coedge $-1 $67 $66 $183 $184 forward $26 $-1 #
coedge $-1 $185 $186 $66 $112 reversed $170 $-1 #
edge $-1 $119 -62.348094119083228 $187 62.348094119083228 $111 $188 forward 7 unknown #
coedge $-1 $105 $189 $67 $114 reversed $63 $-1 #
edge $-1 $190 -62.348094119083228 $118 62.348094119083228 $113 $191 forward 7 unknown #
coedge $-1 $108 $68 $189 $192 forward $117 $-1 #
coedge $-1 $68 $108 $185 $193 reversed $117 $-1 #
loop $-1 $-1 $115 $169 #
vertex $-1 $69 $194 #
vertex $-1 $69 $195 #
straight-curve $-1 62.348094119083228 0 8.6839883061439718 0 1 0 I I #
face $-1 $196 $197 $16 $-1 $198 forward single #
loop $-1 $-1 $129 $70 #
plane-surface $-1 0 -31.739550571373382 0 0 1 0 0 0 1 forward_v I I I I #
coedge $-1 $199 $200 $128 $201 forward $71 $-1 #
coedge $-1 $73 $133 $202 $203 reversed $45 $-1 #
coedge $-1 $204 $129 $73 $127 forward $122 $-1 #
edge $-1 $134 0.86822656606778015 $205 5.4999166820733878 $126 $206 forward 7 unknown #
coedge $-1 $75 $74 $124 $201 reversed $29 $-1 #
coedge $-1 $126 $207 $74 $130 forward $122 $-1 #
edge $-1 $208 -33.152464298967068 $134 -25.238795341265252 $129 $209 forward 7 unknown #
coedge $-1 $210 $211 $75 $132 forward $212 $-1 #
edge $-1 $135 25.238795341265252 $213 33.152464298967068 $131 $214 forward 7 unknown #
coedge $-1 $125 $76 $211 $215 reversed $45 $-1 #
vertex $-1 $130 $216 #
vertex $-1 $132 $217 #
straight-curve $-1 -54.434425161381412 0 -4.0522981901383641 0 1 0 I I #
face $-1 $218 $219 $17 $-1 $220 reversed single #
loop $-1 $-1 $145 $78 #
plane-surface $-1 0 0 8.6839883061439718 0 0 1 1 0 0 forward_v I I I I #
coedge $-1 $84 $221 $81 $143 forward $79 $-1 #
coedge $-1 $222 $81 $223 $224 reversed $49 $-1 #
coedge $-1 $81 $222 $82 $144 reversed $49 $-1 #
edge $-1 $225 -20.541398915349099 $148 -1.8549043966994656 $140 $226 forward 7 unknown #
edge $-1 $148 -124.69618823816646 $227 -117.00832611938949 $82 $228 forward 7 unknown #
coedge $-1 $229 $230 $83 $146 forward $138 $-1 #
edge $-1 $149 -26.559400470043848 $227 -21.415216699610134 $145 $231 forward 7 unknown #
coedge $-1 $232 $84 $230 $233 reversed $79 $-1 #
vertex $-1 $143 $234 #
vertex $-1 $146 $235 #
straight-curve $-1 62.348094119083228 13.053056052723747 89.538078134047709 0 0 1 I I #
face $-1 $236 $237 $18 $-1 $238 reversed single #
loop $-1 $239 $92 $86 #
plane-surface $-1 -21.089940780503468 22.396303312048563 95.638121368508735 0.74314483375859142 0 0.66913059716165679 0.66913059716165679 0 -0.74314483375859142 forward_v I I I I #
coedge $-1 $240 $241 $242 $243 reversed $87 $-1 #
coedge $-1 $155 $155 $-1 $244 forward $89 $-1 #
edge $-1 $245 0 $245 6.2831853071796004 $90 $246 forward 7 unknown #
vertex $-1 $93 $247 #
ellipse-curve $-1 59.776002233866379 18.392054486623646 5.8273907980352302 -0.74314483375859142 0 -0.66913059716165679 1.0036958957424851 0 -1.1147172506378871 1 I I #
face $-1 $248 $249 $19 $-1 $250 forward single #
loop $-1 $251 $252 $94 #
cone-surface $-1 55.891399552595175 18.392054486623646 2.3296789203810437 -0.74314483375859142 0 -0.66913059716165679 0.50184794787124254 0 -0.55735862531894353 1 I I -0.70710678118654757 0.70710678118654757 0.75 forward I I I I #
loop $-1 $-1 $253 $57 #
coedge $-1 $163 $163 $254 $255 reversed $95 $-1 #
coedge $-1 $164 $164 $-1 $256 forward $97 $-1 #
edge $-1 $257 0 $257 6.2831853071796004 $98 $258 forward 7 unknown #
loop $-1 $259 $100 $248 #
vertex $-1 $101 $260 #
ellipse-curve $-1 59.776002233866379 26.400552137473486 5.8273907980352302 -0.74314483375859142 0 -0.66913059716165679 1.0036958957424851 0 -1.1147172506378871 1 I I #
face $-1 $-1 $117 $15 $-1 $261 reversed single #
loop $-1 $-1 $185 $102 #
plane-surface $-1 0 31.739550571373382 0 0 -1 0 0 0 -1 forward_v I I I I #
coedge $-1 $262 $183 $186 $263 forward $103 $-1 #
coedge $-1 $189 $105 $106 $177 reversed $63 $-1 #
coedge $-1 $183 $262 $105 $175 reversed $103 $-1 #
edge $-1 $190 -8.6839883061439718 $264 8.6839883061439718 $174 $265 forward 7 unknown #
coedge $-1 $107 $106 $262 $266 forward $41 $-1 #
edge $-1 $181 -62.348094119083228 $264 62.348094119083228 $173 $267 forward 7 unknown #
coedge $-1 $186 $185 $107 $179 reversed $170 $-1 #
edge $-1 $268 -62.348094119083228 $180 62.348094119083228 $178 $269 forward 7 unknown #
vertex $-1 $109 $270 #
vertex $-1 $192 $271 #
straight-curve $-1 62.348094119083228 0 -8.6839883061439718 0 -1 0 I I #
coedge $-1 $172 $174 $110 $184 reversed $103 $-1 #
edge $-1 $187 -31.739550571373382 $190 31.739550571373382 $183 $272 forward 7 unknown #
coedge $-1 $178 $111 $116 $193 forward $170 $-1 #
coedge $-1 $111 $178 $172 $263 reversed $170 $-1 #
vertex $-1 $112 $273 #
straight-curve $-1 0 31.739550571373382 8.6839883061439718 -1 0 0 I I #
coedge $-1 $113 $173 $115 $192 reversed $63 $-1 #
vertex $-1 $184 $274 #
straight-curve $-1 0 -31.739550571373382 8.6839883061439718 1 0 0 I I #
edge $-1 $118 -8.6839883061439718 $181 8.6839883061439718 $115 $275 forward 7 unknown #
edge $-1 $119 -8.6839883061439718 $180 8.6839883061439718 $116 $276 forward 7 unknown #
point $-1 62.348094119083228 -31.739550571373382 8.6839883061439718 #
point $-1 62.348094119083228 31.739550571373382 8.6839883061439718 #
face $-1 $277 $278 $16 $-1 $279 reversed single #
loop $-1 $-1 $280 $121 #
plane-surface $-1 0 0 8.6839883061439718 0 0 1 1 0 0 forward_v I I I I #
coedge $-1 $281 $124 $207 $282 reversed $71 $-1 #
coedge $-1 $124 $281 $210 $283 forward $71 $-1 #
edge $-1 $213 -31.739550571373382 $208 31.739550571373382 $124 $284 forward 7 unknown #
coedge $-1 $285 $286 $125 $203 forward $278 $-1 #
edge $-1 $205 -31.739550571373382 $287 31.739550571373382 $202 $288 forward 7 unknown #
coedge $-1 $289 $126 $286 $290 reversed $122 $-1 #
vertex $-1 $127 $291 #
straight-curve $-1 -54.434425161381412 -31.739550571373382 -3.184071624070584 0 0 -1 I I #
coedge $-1 $129 $292 $199 $282 forward $122 $-1 #
vertex $-1 $130 $293 #
straight-curve $-1 -29.19562982011616 -31.739550571373382 -4.0522981901383641 1 0 0 I I #
coedge $-1 $294 $131 $200 $283 reversed $212 $-1 #
coedge $-1 $131 $295 $133 $215 forward $212 $-1 #
loop $-1 $-1 $131 $277 #
vertex $-1 $201 $296 #
straight-curve $-1 -29.19562982011616 31.739550571373382 -4.0522981901383641 -1 0 0 I I #
edge $-1 $287 -5.4999166820733878 $135 -0.86822656606778015 $211 $297 forward 7 unknown #
point $-1 -54.434425161381412 -31.739550571373382 -4.0522981901383641 #
point $-1 -54.434425161381412 31.739550571373382 -4.0522981901383641 #
face $-1 $298 $299 $17 $-1 $300 forward single #
loop $-1 $-1 $301 $137 #
plane-surface $-1 -58.39125964023232 0 -4.0522981901383641 0 0 1 1 0 0 forward_v I I I I #
coedge $-1 $140 $302 $303 $304 reversed $79 $-1 #
coedge $-1 $142 $141 $229 $305 reversed $49 $-1 #
coedge $-1 $303 $306 $141 $224 forward $307 $-1 #
edge $-1 $308 74.415875882416145 $225 82.103738001193122 $223 $309 forward 7 unknown #
vertex $-1 $304 $310 #
straight-curve $-1 62.348094119083243 11.198151656024281 2.9707932899264833 0 -1 0 I I #
vertex $-1 $305 $311 #
straight-curve $-1 -21.089940780503468 13.053056052723747 95.638121368508735 -0.66913059716165679 0 0.74314483375859142 I I #
coedge $-1 $312 $145 $222 $305 forward $138 $-1 #
coedge $-1 $145 $313 $147 $233 forward $138 $-1 #
straight-curve $-1 35.788693649039381 13.053056052723747 8.6839883061439735 -1 0 0 I I #
coedge $-1 $302 $147 $314 $315 forward $79 $-1 #
edge $-1 $316 -31.739550571373382 $149 13.053056052723747 $147 $317 forward 7 unknown #
point $-1 62.348094119083228 13.053056052723747 2.9707932899264904 #
point $-1 62.348094119083228 13.053056052723747 8.6839883061439718 #
face $-1 $318 $319 $18 $-1 $320 forward single #
loop $-1 $-1 $321 $151 #
plane-surface $-1 62.348094119083228 0 0 -1 0 0 0 0 1 forward_v I I I I #
loop $-1 $-1 $322 $86 #
coedge $-1 $241 $154 $323 $324 forward $87 $-1 #
coedge $-1 $154 $240 $325 $326 reversed $87 $-1 #
coedge $-1 $327 $321 $154 $243 forward $237 $-1 #
edge $-1 $328 -86.567284844121218 $329 -80.854089827903735 $242 $330 forward 7 unknown #
edge $-1 $331 1 $331 0 $155 $-1 forward 7 unknown #
vertex $-1 $156 $332 #
ellipse-curve $-1 56.448758177914115 18.392054486623646 2.8315268682522863 0.74314483375859142 0 0.66913059716165679 1.0036958957424851 0 -1.1147172506378871 1 I I #
point $-1 60.779698129608867 18.392054486623646 4.7126735473973511 #
face $-1 $333 $166 $19 $-1 $334 forward single #
loop $-1 $-1 $335 $159 #
plane-surface $-1 71.577387298078762 13.053056052723747 179.07615626809542 0 1 0 0.74314483375859142 0 0.66913059716165679 forward_v I I I I #
loop $-1 $-1 $336 $94 #
coedge $-1 $252 $252 $253 $337 forward $160 $-1 #
coedge $-1 $253 $253 $252 $337 reversed $162 $-1 #
coedge $-1 $254 $254 $163 $255 forward $259 $-1 #
edge $-1 $338 0 $338 6.2831853071796004 $254 $339 forward 7 unknown #
edge $-1 $340 1 $340 0 $164 $-1 forward 7 unknown #
vertex $-1 $165 $341 #
ellipse-curve $-1 56.448758177914115 26.400552137473486 2.8315268682522863 0.74314483375859142 0 0.66913059716165679 1.0036958957424851 0 -1.1147172506378871 1 I I #
loop $-1 $342 $254 $248 #
point $-1 60.779698129608867 26.400552137473486 4.7126735473973511 #
plane-surface $-1 62.348094119083228 0 0 -1 0 0 0 0 1 forward_v I I I I #
coedge $-1 $174 $172 $176 $266 reversed $103 $-1 #
edge $-1 $187 -8.6839883061439718 $268 8.6839883061439718 $186 $343 forward 7 unknown #
vertex $-1 $266 $344 #
straight-curve $-1 -62.348094119083228 -31.739550571373382 0 0 0 -1 I I #
edge $-1 $264 -31.739550571373382 $268 31.739550571373382 $262 $345 forward 7 unknown #
straight-curve $-1 0 -31.739550571373382 -8.6839883061439718 -1 0 0 I I #
vertex $-1 $179 $346 #
straight-curve $-1 0 31.739550571373382 -8.6839883061439718 1 0 0 I I #
point $-1 62.348094119083228 31.739550571373382 -8.6839883061439718 #
point $-1 62.348094119083228 -31.739550571373382 -8.6839883061439718 #
straight-curve $-1 -62.348094119083228 0 8.6839883061439718 0 -1 0 I I #
point $-1 -62.348094119083228 31.739550571373382 8.6839883061439718 #
point $-1 -62.348094119083228 -31.739550571373382 8.6839883061439718 #
straight-curve $-1 62.348094119083228 -31.739550571373382 0 0 0 -1 I I #
straight-curve $-1 62.348094119083228 31.739550571373382 0 0 0 -1 I I #
face $-1 $347 $212 $16 $-1 $348 reversed single #
loop $-1 $-1 $202 $196 #
plane-surface $-1 0 0 -8.6839883061439718 0 0 1 1 0 0 forward_v I I I I #
coedge $-1 $349 $350 $351 $352 forward $197 $-1 #
coedge $-1 $200 $199 $353 $354 reversed $71 $-1 #
edge $-1 $355 -8.6839883061439718 $208 4.0522981901383641 $199 $356 forward 7 unknown #
edge $-1 $357 -8.6839883061439718 $213 4.0522981901383641 $210 $358 forward 7 unknown #
straight-curve $-1 -62.348094119083228 0 -4.0522981901383641 0 -1 0 I I #
coedge $-1 $359 $202 $295 $360 forward $278 $-1 #
coedge $-1 $202 $359 $204 $290 forward $278 $-1 #
vertex $-1 $360 $361 #
straight-curve $-1 -54.434425161381412 0 -8.6839883061439718 0 1 0 I I #
coedge $-1 $292 $204 $362 $363 reversed $122 $-1 #
edge $-1 $364 -62.348094119083228 $205 54.434425161381412 $204 $365 forward 7 unknown #
point $-1 -54.434425161381412 -31.739550571373382 -8.6839883061439718 #
coedge $-1 $207 $289 $350 $366 reversed $122 $-1 #
point $-1 -62.348094119083228 -31.739550571373382 -4.0522981901383641 #
coedge $-1 $367 $210 $349 $368 reversed $212 $-1 #
coedge $-1 $211 $367 $285 $360 reversed $212 $-1 #
point $-1 -62.348094119083228 31.739550571373382 -4.0522981901383641 #
straight-curve $-1 -54.434425161381412 31.739550571373382 -3.184071624070584 0 0 1 I I #
face $-1 $369 $370 $17 $-1 $371 reversed single #
loop $-1 $-1 $372 $218 #
plane-surface $-1 -54.434425161381412 0 -6.3681432481411679 -1 0 0 0 0 1 forward_v I I I I #
coedge $-1 $373 $374 $375 $376 reversed $219 $-1 #
coedge $-1 $221 $232 $377 $378 reversed $79 $-1 #
coedge $-1 $379 $223 $221 $304 forward $307 $-1 #
edge $-1 $225 -2.9707932899264966 $380 8.6839883061439718 $221 $381 forward 7 unknown #
edge $-1 $227 1.8549043966994656 $308 20.541398915349099 $229 $382 forward 7 unknown #
coedge $-1 $223 $383 $312 $384 reversed $307 $-1 #
loop $-1 $-1 $223 $385 #
vertex $-1 $384 $386 #
straight-curve $-1 7.4099708811406551 31.739550571373382 63.9857620177821 0.66913059716165679 0 -0.74314483375859142 I I #
point $-1 62.348094119083228 31.739550571373382 2.9707932899264966 #
point $-1 57.203910348649515 13.053056052723747 8.6839883061439735 #
coedge $-1 $387 $229 $306 $384 forward $138 $-1 #
coedge $-1 $230 $387 $388 $389 forward $138 $-1 #
coedge $-1 $388 $390 $232 $315 reversed $391 $-1 #
edge $-1 $316 -8.6839883061439718 $392 8.6839883061439718 $232 $393 forward 7 unknown #
vertex $-1 $233 $394 #
straight-curve $-1 62.348094119083228 0 8.6839883061439718 0 1 0 I I #
face $-1 $395 $396 $18 $-1 $397 reversed single #
loop $-1 $-1 $325 $236 #
plane-surface $-1 0 0 8.6839883061439718 0 0 1 1 0 0 forward_v I I I I #
coedge $-1 $242 $398 $322 $399 forward $237 $-1 #
coedge $-1 $400 $323 $321 $399 reversed $239 $-1 #
coedge $-1 $322 $401 $240 $324 reversed $239 $-1 #
edge $-1 $328 -124.69618823816646 $402 -117.00832611938949 $240 $403 forward 7 unknown #
coedge $-1 $404 $405 $241 $326 forward $319 $-1 #
edge $-1 $329 -26.559400470043848 $402 -21.415216699610134 $325 $406 forward 7 unknown #
coedge $-1 $407 $242 $405 $408 reversed $237 $-1 #
vertex $-1 $399 $409 #
vertex $-1 $326 $410 #
straight-curve $-1 62.348094119083228 13.053056052723747 89.538078134047709 0 0 1 I I #
vertex $-1 $244 $411 #
point $-1 57.452454073656604 18.392054486623646 1.7168096176143992 #
face $-1 $412 $413 $19 $-1 $414 reversed single #
plane-surface $-1 -21.089940780503468 22.396303312048563 95.638121368508735 0.74314483375859142 0 0.66913059716165679 0.66913059716165679 0 -0.74314483375859142 forward_v I I I I #
coedge $-1 $415 $416 $417 $418 reversed $249 $-1 #
coedge $-1 $336 $336 $-1 $419 forward $251 $-1 #
edge $-1 $420 0 $420 6.2831853071796004 $252 $421 forward 7 unknown #
vertex $-1 $255 $422 #
ellipse-curve $-1 59.776002233866379 18.392054486623646 5.8273907980352302 -0.74314483375859142 0 -0.66913059716165679 1.0036958957424851 0 -1.1147172506378871 1 I I #
vertex $-1 $256 $423 #
point $-1 57.452454073656604 26.400552137473486 1.7168096176143992 #
loop $-1 $-1 $424 $248 #
straight-curve $-1 -62.348094119083228 31.739550571373382 0 0 0 -1 I I #
point $-1 -62.348094119083228 -31.739550571373382 -8.6839883061439718 #
straight-curve $-1 -62.348094119083228 0 -8.6839883061439718 0 1 0 I I #
point $-1 -62.348094119083228 31.739550571373382 -8.6839883061439718 #
face $-1 $-1 $425 $16 $-1 $426 reversed single #
plane-surface $-1 0 31.739550571373382 0 0 -1 0 0 0 -1 forward_v I I I I #
coedge $-1 $353 $280 $294 $368 forward $197 $-1 #
coedge $-1 $280 $353 $292 $366 forward $197 $-1 #
coedge $-1 $362 $427 $280 $352 reversed $425 $-1 #
edge $-1 $428 -31.739550571373382 $429 31.739550571373382 $351 $430 forward 7 unknown #
coedge $-1 $350 $349 $281 $354 forward $197 $-1 #
edge $-1 $357 -31.739550571373382 $355 31.739550571373382 $281 $431 forward 7 unknown #
vertex $-1 $354 $432 #
straight-curve $-1 -62.348094119083228 -31.739550571373382 0 0 0 -1 I I #
vertex $-1 $368 $433 #
straight-curve $-1 -62.348094119083228 31.739550571373382 0 0 0 -1 I I #
coedge $-1 $286 $285 $434 $435 forward $278 $-1 #
edge $-1 $287 -54.434425161381412 $436 62.348094119083228 $295 $437 forward 7 unknown #
point $-1 -54.434425161381412 31.739550571373382 -8.6839883061439718 #
coedge $-1 $434 $351 $289 $363 forward $425 $-1 #
edge $-1 $428 -8.6839883061439718 $364 8.6839883061439718 $362 $438 forward 7 unknown #
vertex $-1 $363 $439 #
straight-curve $-1 0 -31.739550571373382 -8.6839883061439718 -1 0 0 I I #
edge $-1 $355 -62.348094119083228 $428 62.348094119083228 $292 $440 forward 7 unknown #
coedge $-1 $295 $294 $427 $441 forward $212 $-1 #
edge $-1 $429 -62.348094119083228 $357 62.348094119083228 $294 $442 forward 7 unknown #
face $-1 $443 $391 $17 $-1 $444 reversed single #
loop $-1 $-1 $445 $298 #
plane-surface $-1 -62.348094119083228 0 0 1 0 0 0 0 -1 forward_v I I I I #
coedge $-1 $375 $446 $447 $448 reversed $299 $-1 #
coedge $-1 $449 $301 $450 $451 reversed $219 $-1 #
coedge $-1 $301 $449 $452 $453 reversed $219 $-1 #
coedge $-1 $454 $372 $301 $376 forward $299 $-1 #
edge $-1 $455 -31.739550571373382 $456 31.739550571373382 $375 $457 forward 7 unknown #
coedge $-1 $458 $459 $302 $378 forward $460 $-1 #
edge $-1 $380 -31.739550571373382 $392 31.739550571373382 $302 $461 forward 7 unknown #
coedge $-1 $462 $303 $459 $463 reversed $307 $-1 #
vertex $-1 $378 $464 #
straight-curve $-1 62.348094119083228 31.739550571373382 0 0 0 -1 I I #
straight-curve $-1 57.203910348649515 11.198151656024281 8.6839883061439735 0 1 0 I I #
coedge $-1 $306 $452 $465 $466 reversed $307 $-1 #
edge $-1 $308 -57.203910348649515 $467 62.348094119083228 $306 $468 forward 7 unknown #
face $-1 $-1 $307 $17 $-1 $469 reversed single #
point $-1 57.203910348649515 31.739550571373378 8.6839883061439735 #
coedge $-1 $313 $312 $470 $471 forward $138 $-1 #
coedge $-1 $472 $314 $313 $389 reversed $391 $-1 #
edge $-1 $473 -62.348094119083228 $316 62.348094119083228 $388 $474 forward 7 unknown #
coedge $-1 $314 $447 $458 $475 reversed $391 $-1 #
loop $-1 $-1 $450 $369 #
vertex $-1 $315 $476 #
straight-curve $-1 62.348094119083228 -31.739550571373382 0 0 0 -1 I I #
point $-1 62.348094119083228 -31.739550571373382 8.6839883061439718 #
face $-1 $477 $478 $18 $-1 $479 forward single #
loop $-1 $-1 $480 $318 #
plane-surface $-1 -58.39125964023232 0 -4.0522981901383641 0 0 1 1 0 0 forward_v I I I I #
coedge $-1 $321 $481 $482 $483 reversed $237 $-1 #
edge $-1 $484 -20.541398915349099 $328 -1.8549043966994656 $321 $485 forward 7 unknown #
coedge $-1 $401 $322 $486 $487 reversed $239 $-1 #
coedge $-1 $323 $400 $404 $488 reversed $239 $-1 #
vertex $-1 $488 $489 #
straight-curve $-1 -21.089940780503468 13.053056052723747 95.638121368508735 -0.66913059716165679 0 0.74314483375859142 I I #
coedge $-1 $490 $325 $401 $488 forward $319 $-1 #
coedge $-1 $325 $491 $327 $408 forward $319 $-1 #
straight-curve $-1 35.788693649039381 13.053056052723747 8.6839883061439735 -1 0 0 I I #
coedge $-1 $481 $327 $492 $493 forward $237 $-1 #
edge $-1 $494 -31.739550571373382 $329 13.053056052723747 $327 $495 forward 7 unknown #
point $-1 62.348094119083228 13.053056052723747 2.9707932899264904 #
point $-1 62.348094119083228 13.053056052723747 8.6839883061439718 #
point $-1 55.334040927276234 18.392054486623646 1.8278309725098012 #
face $-1 $496 $497 $19 $-1 $498 forward single #
loop $-1 $-1 $499 $333 #
plane-surface $-1 62.348094119083228 0 0 -1 0 0 0 0 1 forward_v I I I I #
coedge $-1 $416 $335 $500 $501 forward $249 $-1 #
coedge $-1 $335 $415 $502 $503 reversed $249 $-1 #
coedge $-1 $504 $499 $335 $418 forward $413 $-1 #
edge $-1 $505 -86.567284844121218 $506 -80.854089827903735 $417 $507 forward 7 unknown #
edge $-1 $508 1 $508 0 $336 $-1 forward 7 unknown #
vertex $-1 $337 $509 #
ellipse-curve $-1 56.448758177914115 18.392054486623646 2.8315268682522863 0.74314483375859142 0 0.66913059716165679 1.0036958957424851 0 -1.1147172506378871 1 I I #
point $-1 60.779698129608867 18.392054486623646 4.7126735473973511 #
point $-1 55.334040927276234 26.400552137473486 1.8278309725098012 #
coedge $-1 $510 $500 $499 $511 reversed $342 $-1 #
loop $-1 $-1 $362 $347 #
plane-surface $-1 62.348094119083228 0 0 -1 0 0 0 0 1 forward_v I I I I #
coedge $-1 $351 $434 $367 $441 reversed $425 $-1 #
vertex $-1 $352 $512 #
vertex $-1 $352 $513 #
straight-curve $-1 62.348094119083228 0 8.6839883061439718 0 1 0 I I #
straight-curve $-1 -62.348094119083228 0 8.6839883061439718 0 -1 0 I I #
point $-1 -62.348094119083228 -31.739550571373382 8.6839883061439718 #
point $-1 -62.348094119083228 31.739550571373382 8.6839883061439718 #
coedge $-1 $427 $362 $359 $435 reversed $425 $-1 #
edge $-1 $436 -31.739550571373382 $364 31.739550571373382 $434 $514 forward 7 unknown #
vertex $-1 $435 $515 #
straight-curve $-1 0 31.739550571373382 -8.6839883061439718 1 0 0 I I #
straight-curve $-1 62.348094119083228 -31.739550571373382 0 0 0 -1 I I #
point $-1 62.348094119083228 -31.739550571373382 -8.6839883061439718 #
straight-curve $-1 0 -31.739550571373382 8.6839883061439718 1 0 0 I I #
edge $-1 $429 -8.6839883061439718 $436 8.6839883061439718 $427 $516 forward 7 unknown #
straight-curve $-1 0 31.739550571373382 8.6839883061439718 -1 0 0 I I #
face $-1 $385 $460 $17 $-1 $517 reversed single #
plane-surface $-1 0 -31.739550571373382 0 0 1 0 0 0 1 forward_v I I I I #
coedge $-1 $518 $465 $449 $519 forward $370 $-1 #
coedge $-1 $372 $454 $520 $521 reversed $299 $-1 #
coedge $-1 $390 $450 $372 $448 forward $391 $-1 #
edge $-1 $455 0.86822656606778015 $522 5.4999166820733878 $447 $523 forward 7 unknown #
coedge $-1 $374 $373 $445 $519 reversed $219 $-1 #
coedge $-1 $447 $472 $373 $451 forward $391 $-1 #
edge $-1 $524 -33.152464298967068 $455 -25.238795341265252 $450 $525 forward 7 unknown #
coedge $-1 $383 $462 $374 $453 forward $307 $-1 #
edge $-1 $456 25.238795341265252 $526 33.152464298967068 $452 $527 forward 7 unknown #
coedge $-1 $446 $375 $462 $528 reversed $299 $-1 #
vertex $-1 $451 $529 #
vertex $-1 $453 $530 #
straight-curve $-1 -54.434425161381412 0 -4.0522981901383641 0 1 0 I I #
coedge $-1 $520 $377 $390 $475 forward $460 $-1 #
coedge $-1 $377 $520 $379 $463 forward $460 $-1 #
loop $-1 $-1 $520 $443 #
straight-curve $-1 62.348094119083228 0 -8.6839883061439718 0 -1 0 I I #
coedge $-1 $452 $379 $454 $528 forward $307 $-1 #
edge $-1 $531 -54.434425161381412 $380 62.348094119083228 $379 $532 forward 7 unknown #
point $-1 62.348094119083228 31.739550571373382 -8.6839883061439718 #
coedge $-1 $445 $470 $383 $466 forward $370 $-1 #
edge $-1 $467 -8.6839883061439718 $526 4.0522981901383641 $383 $533 forward 7 unknown #
vertex $-1 $384 $534 #
straight-curve $-1 0 31.739550571373382 8.6839883061439718 -1 0 0 I I #
plane-surface $-1 0 31.739550571373382 0 0 -1 0 0 0 -1 forward_v I I I I #
coedge $-1 $465 $518 $387 $471 reversed $370 $-1 #
edge $-1 $467 -31.739550571373382 $473 31.739550571373382 $470 $535 forward 7 unknown #
coedge $-1 $450 $388 $518 $536 forward $391 $-1 #
vertex $-1 $471 $537 #
straight-curve $-1 0 -31.739550571373382 8.6839883061439718 1 0 0 I I #
edge $-1 $392 -62.348094119083228 $522 54.434425161381412 $390 $538 forward 7 unknown #
point $-1 62.348094119083228 -31.739550571373382 -8.6839883061439718 #
face $-1 $539 $540 $18 $-1 $541 reversed single #
loop $-1 $-1 $542 $395 #
plane-surface $-1 -54.434425161381412 0 -6.3681432481411679 -1 0 0 0 0 1 forward_v I I I I #
coedge $-1 $543 $544 $545 $546 reversed $396 $-1 #
coedge $-1 $398 $407 $547 $548 reversed $237 $-1 #
coedge $-1 $549 $486 $398 $483 forward $550 $-1 #
edge $-1 $484 -2.9707932899264966 $551 8.6839883061439718 $398 $552 forward 7 unknown #
vertex $-1 $483 $553 #
straight-curve $-1 62.348094119083243 11.198151656024281 2.9707932899264833 0 -1 0 I I #
coedge $-1 $482 $554 $400 $487 forward $550 $-1 #
edge $-1 $555 74.415875882416145 $484 82.103738001193122 $486 $556 forward 7 unknown #
edge $-1 $402 1.8549043966994656 $555 20.541398915349099 $404 $557 forward 7 unknown #
point $-1 57.203910348649515 13.053056052723747 8.6839883061439735 #
coedge $-1 $558 $404 $554 $559 forward $319 $-1 #
coedge $-1 $405 $558 $560 $561 forward $319 $-1 #
coedge $-1 $560 $562 $407 $493 reversed $563 $-1 #
edge $-1 $494 -8.6839883061439718 $564 8.6839883061439718 $407 $565 forward 7 unknown #
vertex $-1 $408 $566 #
straight-curve $-1 62.348094119083228 0 8.6839883061439718 0 1 0 I I #
face $-1 $567 $568 $19 $-1 $569 reversed single #
loop $-1 $-1 $502 $412 #
plane-surface $-1 0 0 8.6839883061439718 0 0 1 1 0 0 forward_v I I I I #
coedge $-1 $417 $570 $424 $511 forward $413 $-1 #
coedge $-1 $424 $571 $415 $501 reversed $342 $-1 #
edge $-1 $505 -124.69618823816646 $572 -117.00832611938949 $415 $573 forward 7 unknown #
coedge $-1 $574 $575 $416 $503 forward $497 $-1 #
edge $-1 $506 -26.559400470043848 $572 -21.415216699610134 $502 $576 forward 7 unknown #
coedge $-1 $577 $417 $575 $578 reversed $413 $-1 #
vertex $-1 $511 $579 #
vertex $-1 $503 $580 #
straight-curve $-1 62.348094119083228 13.053056052723747 89.538078134047709 0 0 1 I I #
vertex $-1 $419 $581 #
point $-1 57.452454073656604 18.392054486623646 1.7168096176143992 #
coedge $-1 $571 $424 $582 $583 reversed $342 $-1 #
edge $-1 $584 -20.541398915349099 $505 -1.8549043966994656 $499 $585 forward 7 unknown #
point $-1 62.348094119083228 -31.739550571373382 8.6839883061439718 #
point $-1 62.348094119083228 31.739550571373382 8.6839883061439718 #
straight-curve $-1 62.348094119083228 0 -8.6839883061439718 0 -1 0 I I #
point $-1 62.348094119083228 31.739550571373382 -8.6839883061439718 #
straight-curve $-1 62.348094119083228 31.739550571373382 0 0 0 -1 I I #
plane-surface $-1 0 0 -8.6839883061439718 0 0 1 1 0 0 forward_v I I I I #
coedge $-1 $470 $445 $472 $536 reversed $370 $-1 #
edge $-1 $526 -31.739550571373382 $524 31.739550571373382 $445 $586 forward 7 unknown #
coedge $-1 $459 $458 $446 $521 forward $460 $-1 #
edge $-1 $522 -31.739550571373382 $531 31.739550571373382 $520 $587 forward 7 unknown #
vertex $-1 $448 $588 #
straight-curve $-1 -54.434425161381412 -31.739550571373382 -3.184071624070584 0 0 -1 I I #
vertex $-1 $451 $589 #
straight-curve $-1 -29.19562982011616 -31.739550571373382 -4.0522981901383641 1 0 0 I I #
vertex $-1 $519 $590 #
straight-curve $-1 -29.19562982011616 31.739550571373382 -4.0522981901383641 -1 0 0 I I #
edge $-1 $531 -5.4999166820733878 $456 -0.86822656606778015 $462 $591 forward 7 unknown #
point $-1 -54.434425161381412 -31.739550571373382 -4.0522981901383641 #
point $-1 -54.434425161381412 31.739550571373382 -4.0522981901383641 #
vertex $-1 $463 $592 #
straight-curve $-1 0 31.739550571373382 -8.6839883061439718 1 0 0 I I #
straight-curve $-1 -62.348094119083228 31.739550571373382 0 0 0 -1 I I #
point $-1 -62.348094119083228 31.739550571373382 8.6839883061439718 #
straight-curve $-1 -62.348094119083228 0 8.6839883061439718 0 -1 0 I I #
edge $-1 $473 -8.6839883061439718 $524 4.0522981901383641 $518 $593 forward 7 unknown #
point $-1 -62.348094119083228 -31.739550571373382 8.6839883061439718 #
straight-curve $-1 0 -31.739550571373382 -8.6839883061439718 -1 0 0 I I #
face $-1 $594 $563 $18 $-1 $595 reversed single #
loop $-1 $-1 $596 $477 #
plane-surface $-1 -62.348094119083228 0 0 1 0 0 0 0 -1 forward_v I I I I #
coedge $-1 $545 $597 $598 $599 reversed $478 $-1 #
coedge $-1 $600 $480 $601 $602 reversed $396 $-1 #
coedge $-1 $480 $600 $603 $604 reversed $396 $-1 #
coedge $-1 $605 $542 $480 $546 forward $478 $-1 #
edge $-1 $606 -31.739550571373382 $607 31.739550571373382 $545 $608 forward 7 unknown #
coedge $-1 $609 $610 $481 $548 forward $611 $-1 #
edge $-1 $551 -31.739550571373382 $564 31.739550571373382 $481 $612 forward 7 unknown #
coedge $-1 $613 $482 $610 $614 reversed $550 $-1 #
loop $-1 $-1 $486 $615 #
vertex $-1 $548 $616 #
straight-curve $-1 62.348094119083228 31.739550571373382 0 0 0 -1 I I #
point $-1 62.348094119083228 31.739550571373382 2.9707932899264966 #
coedge $-1 $486 $617 $490 $559 reversed $550 $-1 #
vertex $-1 $559 $618 #
straight-curve $-1 7.4099708811406551 31.739550571373382 63.9857620177821 0.66913059716165679 0 -0.74314483375859142 I I #
straight-curve $-1 57.203910348649515 11.198151656024281 8.6839883061439735 0 1 0 I I #
coedge $-1 $491 $490 $619 $620 forward $319 $-1 #
edge $-1 $555 -57.203910348649515 $621 62.348094119083228 $554 $622 forward 7 unknown #
coedge $-1 $623 $492 $491 $561 reversed $563 $-1 #
edge $-1 $624 -62.348094119083228 $494 62.348094119083228 $560 $625 forward 7 unknown #
coedge $-1 $492 $598 $609 $626 reversed $563 $-1 #
loop $-1 $-1 $601 $539 #
vertex $-1 $493 $627 #
straight-curve $-1 62.348094119083228 -31.739550571373382 0 0 0 -1 I I #
point $-1 62.348094119083228 -31.739550571373382 8.6839883061439718 #
face $-1 $628 $629 $19 $-1 $630 forward single #
loop $-1 $-1 $631 $496 #
plane-surface $-1 -58.39125964023232 0 -4.0522981901383641 0 0 1 1 0 0 forward_v I I I I #
coedge $-1 $499 $632 $633 $634 reversed $413 $-1 #
coedge $-1 $500 $510 $574 $635 reversed $342 $-1 #
vertex $-1 $635 $636 #
straight-curve $-1 -21.089940780503468 13.053056052723747 95.638121368508735 -0.66913059716165679 0 0.74314483375859142 I I #
coedge $-1 $637 $502 $571 $635 forward $497 $-1 #
coedge $-1 $502 $638 $504 $578 forward $497 $-1 #
straight-curve $-1 35.788693649039381 13.053056052723747 8.6839883061439735 -1 0 0 I I #
coedge $-1 $632 $504 $639 $640 forward $413 $-1 #
edge $-1 $641 -31.739550571373382 $506 13.053056052723747 $504 $642 forward 7 unknown #
point $-1 62.348094119083228 13.053056052723747 2.9707932899264904 #
point $-1 62.348094119083228 13.053056052723747 8.6839883061439718 #
point $-1 55.334040927276234 18.392054486623646 1.8278309725098012 #
coedge $-1 $633 $643 $510 $583 forward $644 $-1 #
edge $-1 $645 74.415875882416145 $584 82.103738001193122 $582 $646 forward 7 unknown #
vertex $-1 $634 $647 #
straight-curve $-1 62.348094119083243 11.198151656024281 2.9707932899264833 0 -1 0 I I #
straight-curve $-1 -62.348094119083228 0 -4.0522981901383641 0 -1 0 I I #
straight-curve $-1 -54.434425161381412 0 -8.6839883061439718 0 1 0 I I #
point $-1 -54.434425161381412 -31.739550571373382 -8.6839883061439718 #
point $-1 -62.348094119083228 -31.739550571373382 -4.0522981901383641 #
point $-1 -62.348094119083228 31.739550571373382 -4.0522981901383641 #
straight-curve $-1 -54.434425161381412 31.739550571373382 -3.184071624070584 0 0 1 I I #
point $-1 -54.434425161381412 31.739550571373382 -8.6839883061439718 #
straight-curve $-1 -62.348094119083228 -31.739550571373382 0 0 0 -1 I I #
face $-1 $615 $611 $18 $-1 $648 reversed single #
plane-surface $-1 0 -31.739550571373382 0 0 1 0 0 0 1 forward_v I I I I #
coedge $-1 $649 $650 $600 $651 forward $540 $-1 #
coedge $-1 $542 $605 $652 $653 reversed $478 $-1 #
coedge $-1 $562 $601 $542 $599 forward $563 $-1 #
edge $-1 $606 0.86822656606778015 $654 5.4999166820733878 $598 $655 forward 7 unknown #
coedge $-1 $544 $543 $596 $651 reversed $396 $-1 #
coedge $-1 $598 $623 $543 $602 forward $563 $-1 #
edge $-1 $656 -33.152464298967068 $606 -25.238795341265252 $601 $657 forward 7 unknown #
coedge $-1 $617 $613 $544 $604 forward $550 $-1 #
edge $-1 $607 25.238795341265252 $658 33.152464298967068 $603 $659 forward 7 unknown #
coedge $-1 $597 $545 $613 $660 reversed $478 $-1 #
vertex $-1 $602 $661 #
vertex $-1 $604 $662 #
straight-curve $-1 -54.434425161381412 0 -4.0522981901383641 0 1 0 I I #
coedge $-1 $652 $547 $562 $626 forward $611 $-1 #
coedge $-1 $547 $652 $549 $614 forward $611 $-1 #
loop $-1 $-1 $652 $594 #
straight-curve $-1 62.348094119083228 0 -8.6839883061439718 0 -1 0 I I #
coedge $-1 $603 $549 $605 $660 forward $550 $-1 #
edge $-1 $663 -54.434425161381412 $551 62.348094119083228 $549 $664 forward 7 unknown #
face $-1 $-1 $550 $18 $-1 $665 reversed single #
point $-1 62.348094119083228 31.739550571373382 -8.6839883061439718 #
coedge $-1 $554 $603 $650 $666 reversed $550 $-1 #
point $-1 57.203910348649515 31.739550571373378 8.6839883061439735 #
coedge $-1 $650 $649 $558 $620 reversed $540 $-1 #
edge $-1 $621 -31.739550571373382 $624 31.739550571373382 $619 $667 forward 7 unknown #
vertex $-1 $559 $668 #
straight-curve $-1 0 31.739550571373382 8.6839883061439718 -1 0 0 I I #
coedge $-1 $601 $560 $649 $669 forward $563 $-1 #
vertex $-1 $620 $670 #
straight-curve $-1 0 -31.739550571373382 8.6839883061439718 1 0 0 I I #
edge $-1 $564 -62.348094119083228 $654 54.434425161381412 $562 $671 forward 7 unknown #
point $-1 62.348094119083228 -31.739550571373382 -8.6839883061439718 #
face $-1 $672 $673 $19 $-1 $674 reversed single #
loop $-1 $-1 $675 $567 #
plane-surface $-1 -54.434425161381412 0 -6.3681432481411679 -1 0 0 0 0 1 forward_v I I I I #
coedge $-1 $676 $677 $678 $679 reversed $568 $-1 #
coedge $-1 $570 $577 $680 $681 reversed $413 $-1 #
coedge $-1 $682 $582 $570 $634 forward $644 $-1 #
edge $-1 $584 -2.9707932899264966 $683 8.6839883061439718 $570 $684 forward 7 unknown #
edge $-1 $572 1.8549043966994656 $645 20.541398915349099 $574 $685 forward 7 unknown #
point $-1 57.203910348649515 13.053056052723747 8.6839883061439735 #
coedge $-1 $686 $574 $643 $687 forward $497 $-1 #
coedge $-1 $575 $686 $688 $689 forward $497 $-1 #
coedge $-1 $688 $690 $577 $640 reversed $691 $-1 #
edge $-1 $641 -8.6839883061439718 $692 8.6839883061439718 $577 $693 forward 7 unknown #
vertex $-1 $578 $694 #
straight-curve $-1 62.348094119083228 0 8.6839883061439718 0 1 0 I I #
coedge $-1 $582 $695 $637 $687 reversed $644 $-1 #
loop $-1 $-1 $582 $696 #
vertex $-1 $687 $697 #
straight-curve $-1 7.4099708811406551 31.739550571373382 63.9857620177821 0.66913059716165679 0 -0.74314483375859142 I I #
point $-1 62.348094119083228 31.739550571373382 2.9707932899264966 #
plane-surface $-1 0 0 -8.6839883061439718 0 0 1 1 0 0 forward_v I I I I #
coedge $-1 $619 $596 $623 $669 reversed $540 $-1 #
coedge $-1 $596 $619 $617 $666 forward $540 $-1 #
edge $-1 $658 -31.739550571373382 $656 31.739550571373382 $596 $698 forward 7 unknown #
coedge $-1 $610 $609 $597 $653 forward $611 $-1 #
edge $-1 $654 -31.739550571373382 $663 31.739550571373382 $652 $699 forward 7 unknown #
vertex $-1 $599 $700 #
straight-curve $-1 -54.434425161381412 -31.739550571373382 -3.184071624070584 0 0 -1 I I #
vertex $-1 $602 $701 #
straight-curve $-1 -29.19562982011616 -31.739550571373382 -4.0522981901383641 1 0 0 I I #
vertex $-1 $651 $702 #
straight-curve $-1 -29.19562982011616 31.739550571373382 -4.0522981901383641 -1 0 0 I I #
edge $-1 $663 -5.4999166820733878 $607 -0.86822656606778015 $613 $703 forward 7 unknown #
point $-1 -54.434425161381412 -31.739550571373382 -4.0522981901383641 #
point $-1 -54.434425161381412 31.739550571373382 -4.0522981901383641 #
vertex $-1 $614 $704 #
straight-curve $-1 0 31.739550571373382 -8.6839883061439718 1 0 0 I I #
plane-surface $-1 0 31.739550571373382 0 0 -1 0 0 0 -1 forward_v I I I I #
edge $-1 $621 -8.6839883061439718 $658 4.0522981901383641 $617 $705 forward 7 unknown #
straight-curve $-1 -62.348094119083228 0 8.6839883061439718 0 -1 0 I I #
point $-1 -62.348094119083228 31.739550571373382 8.6839883061439718 #
edge $-1 $624 -8.6839883061439718 $656 4.0522981901383641 $649 $706 forward 7 unknown #
point $-1 -62.348094119083228 -31.739550571373382 8.6839883061439718 #
straight-curve $-1 0 -31.739550571373382 -8.6839883061439718 -1 0 0 I I #
face $-1 $707 $691 $19 $-1 $708 reversed single #
loop $-1 $-1 $709 $628 #
plane-surface $-1 -62.348094119083228 0 0 1 0 0 0 0 -1 forward_v I I I I #
coedge $-1 $678 $710 $711 $712 reversed $629 $-1 #
coedge $-1 $713 $631 $714 $715 reversed $568 $-1 #
coedge $-1 $631 $713 $716 $717 reversed $568 $-1 #
coedge $-1 $718 $675 $631 $679 forward $629 $-1 #
edge $-1 $719 -31.739550571373382 $720 31.739550571373382 $678 $721 forward 7 unknown #
coedge $-1 $722 $723 $632 $681 forward $724 $-1 #
edge $-1 $683 -31.739550571373382 $692 31.739550571373382 $632 $725 forward 7 unknown #
coedge $-1 $726 $633 $723 $727 reversed $644 $-1 #
vertex $-1 $681 $728 #
straight-curve $-1 62.348094119083228 31.739550571373382 0 0 0 -1 I I #
straight-curve $-1 57.203910348649515 11.198151656024281 8.6839883061439735 0 1 0 I I #
coedge $-1 $638 $637 $729 $730 forward $497 $-1 #
edge $-1 $645 -57.203910348649515 $731 62.348094119083228 $643 $732 forward 7 unknown #
coedge $-1 $733 $639 $638 $689 reversed $691 $-1 #
edge $-1 $734 -62.348094119083228 $641 62.348094119083228 $688 $735 forward 7 unknown #
coedge $-1 $639 $711 $722 $736 reversed $691 $-1 #
loop $-1 $-1 $714 $672 #
vertex $-1 $640 $737 #
straight-curve $-1 62.348094119083228 -31.739550571373382 0 0 0 -1 I I #
point $-1 62.348094119083228 -31.739550571373382 8.6839883061439718 #
coedge $-1 $643 $716 $738 $739 reversed $644 $-1 #
face $-1 $-1 $644 $19 $-1 $740 reversed single #
point $-1 57.203910348649515 31.739550571373378 8.6839883061439735 #
straight-curve $-1 -62.348094119083228 0 -4.0522981901383641 0 -1 0 I I #
straight-curve $-1 -54.434425161381412 0 -8.6839883061439718 0 1 0 I I #
point $-1 -54.434425161381412 -31.739550571373382 -8.6839883061439718 #
point $-1 -62.348094119083228 -31.739550571373382 -4.0522981901383641 #
point $-1 -62.348094119083228 31.739550571373382 -4.0522981901383641 #
straight-curve $-1 -54.434425161381412 31.739550571373382 -3.184071624070584 0 0 1 I I #
point $-1 -54.434425161381412 31.739550571373382 -8.6839883061439718 #
straight-curve $-1 -62.348094119083228 31.739550571373382 0 0 0 -1 I I #
straight-curve $-1 -62.348094119083228 -31.739550571373382 0 0 0 -1 I I #
face $-1 $696 $724 $19 $-1 $741 reversed single #
plane-surface $-1 0 -31.739550571373382 0 0 1 0 0 0 1 forward_v I I I I #
coedge $-1 $742 $738 $713 $743 forward $673 $-1 #
coedge $-1 $675 $718 $744 $745 reversed $629 $-1 #
coedge $-1 $690 $714 $675 $712 forward $691 $-1 #
edge $-1 $719 0.86822656606778015 $746 5.4999166820733878 $711 $747 forward 7 unknown #
coedge $-1 $677 $676 $709 $743 reversed $568 $-1 #
coedge $-1 $711 $733 $676 $715 forward $691 $-1 #
edge $-1 $748 -33.152464298967068 $719 -25.238795341265252 $714 $749 forward 7 unknown #
coedge $-1 $695 $726 $677 $717 forward $644 $-1 #
edge $-1 $720 25.238795341265252 $750 33.152464298967068 $716 $751 forward 7 unknown #
coedge $-1 $710 $678 $726 $752 reversed $629 $-1 #
vertex $-1 $715 $753 #
vertex $-1 $717 $754 #
straight-curve $-1 -54.434425161381412 0 -4.0522981901383641 0 1 0 I I #
coedge $-1 $744 $680 $690 $736 forward $724 $-1 #
coedge $-1 $680 $744 $682 $727 forward $724 $-1 #
loop $-1 $-1 $744 $707 #
straight-curve $-1 62.348094119083228 0 -8.6839883061439718 0 -1 0 I I #
coedge $-1 $716 $682 $718 $752 forward $644 $-1 #
edge $-1 $755 -54.434425161381412 $683 62.348094119083228 $682 $756 forward 7 unknown #
point $-1 62.348094119083228 31.739550571373382 -8.6839883061439718 #
coedge $-1 $738 $742 $686 $730 reversed $673 $-1 #
edge $-1 $731 -31.739550571373382 $734 31.739550571373382 $729 $757 forward 7 unknown #
vertex $-1 $687 $758 #
straight-curve $-1 0 31.739550571373382 8.6839883061439718 -1 0 0 I I #
coedge $-1 $714 $688 $742 $759 forward $691 $-1 #
vertex $-1 $730 $760 #
straight-curve $-1 0 -31.739550571373382 8.6839883061439718 1 0 0 I I #
edge $-1 $692 -62.348094119083228 $746 54.434425161381412 $690 $761 forward 7 unknown #
point $-1 62.348094119083228 -31.739550571373382 -8.6839883061439718 #
coedge $-1 $709 $729 $695 $739 forward $673 $-1 #
edge $-1 $731 -8.6839883061439718 $750 4.0522981901383641 $695 $762 forward 7 unknown #
plane-surface $-1 0 31.739550571373382 0 0 -1 0 0 0 -1 forward_v I I I I #
plane-surface $-1 0 0 -8.6839883061439718 0 0 1 1 0 0 forward_v I I I I #
coedge $-1 $729 $709 $733 $759 reversed $673 $-1 #
edge $-1 $750 -31.739550571373382 $748 31.739550571373382 $709 $763 forward 7 unknown #
coedge $-1 $723 $722 $710 $745 forward $724 $-1 #
edge $-1 $746 -31.739550571373382 $755 31.739550571373382 $744 $764 forward 7 unknown #
vertex $-1 $712 $765 #
straight-curve $-1 -54.434425161381412 -31.739550571373382 -3.184071624070584 0 0 -1 I I #
vertex $-1 $715 $766 #
straight-curve $-1 -29.19562982011616 -31.739550571373382 -4.0522981901383641 1 0 0 I I #
vertex $-1 $743 $767 #
straight-curve $-1 -29.19562982011616 31.739550571373382 -4.0522981901383641 -1 0 0 I I #
edge $-1 $755 -5.4999166820733878 $720 -0.86822656606778015 $726 $768 forward 7 unknown #
point $-1 -54.434425161381412 -31.739550571373382 -4.0522981901383641 #
point $-1 -54.434425161381412 31.739550571373382 -4.0522981901383641 #
vertex $-1 $727 $769 #
straight-curve $-1 0 31.739550571373382 -8.6839883061439718 1 0 0 I I #
straight-curve $-1 -62.348094119083228 0 8.6839883061439718 0 -1 0 I I #
point $-1 -62.348094119083228 31.739550571373382 8.6839883061439718 #
edge $-1 $734 -8.6839883061439718 $748 4.0522981901383641 $742 $770 forward 7 unknown #
point $-1 -62.348094119083228 -31.739550571373382 8.6839883061439718 #
straight-curve $-1 0 -31.739550571373382 -8.6839883061439718 -1 0 0 I I #
straight-curve $-1 -62.348094119083228 31.739550571373382 0 0 0 -1 I I #
straight-curve $-1 -62.348094119083228 0 -4.0522981901383641 0 -1 0 I I #
straight-curve $-1 -54.434425161381412 0 -8.6839883061439718 0 1 0 I I #
point $-1 -54.434425161381412 -31.739550571373382 -8.6839883061439718 #
point $-1 -62.348094119083228 -31.739550571373382 -4.0522981901383641 #
point $-1 -62.348094119083228 31.739550571373382 -4.0522981901383641 #
straight-curve $-1 -54.434425161381412 31.739550571373382 -3.184071624070584 0 0 1 I I #
point $-1 -54.434425161381412 31.739550571373382 -8.6839883061439718 #
straight-curve $-1 -62.348094119083228 -31.739550571373382 0 0 0 -1 I I #
End-of-ACIS-data 