500 0 5 0           
7 Unknown 11 ACIS 5.0 NT 24 Fri Mar 26 19:37:32 1999 
-1 9.9999999999999995e-007 1e-010 
body $-1 $5 $-1 $6 #
body $-1 $7 $-1 $8 #
body $-1 $9 $-1 $10 #
body $-1 $11 $-1 $12 #
body $-1 $13 $-1 $14 #
lump $-1 $-1 $15 $0 #
transform $-1 1 0 0 0 1 0 0 0 1 49.853816339609978 26.087024596665934 6.6268064404818334 1 rotate no_reflect no_shear #
lump $-1 $-1 $16 $1 #
transform $-1 1 0 0 0 1 0 0 0 1 49.853816339609978 26.087024596665934 6.6268064404818334 1 rotate no_reflect no_shear #
lump $-1 $-1 $17 $2 #
transform $-1 1 0 0 0 1 0 0 0 1 49.853816339609978 26.087024596665934 6.6268064404818334 1 rotate no_reflect no_shear #
lump $-1 $-1 $18 $3 #
transform $-1 1 0 0 0 1 0 0 0 1 49.853816339609978 26.087024596665934 6.6268064404818334 1 rotate no_reflect no_shear #
lump $-1 $-1 $19 $4 #
transform $-1 1 0 0 0 1 0 0 0 1 49.853816339609978 26.087024596665934 6.6268064404818334 1 rotate no_reflect no_shear #
shell $-1 $-1 $-1 $20 $-1 $5 #
shell $-1 $-1 $-1 $21 $-1 $7 #
shell $-1 $-1 $-1 $22 $-1 $9 #
shell $-1 $-1 $-1 $23 $-1 $11 #
shell $-1 $-1 $-1 $24 $-1 $13 #
face $-1 $25 $26 $15 $-1 $27 forward single #
face $-1 $28 $29 $16 $-1 $30 reversed single #
face $-1 $31 $32 $17 $-1 $33 forward single #
face $-1 $34 $35 $18 $-1 $36 reversed single #
face $-1 $37 $38 $19 $-1 $39 reversed single #
face $-1 $40 $41 $15 $-1 $42 reversed single #
loop $-1 $-1 $43 $20 #
plane-surface $-1 0 0 6.6268064404818334 0 0 1 1 0 0 forward_v I I I I #
face $-1 $44 $45 $16 $-1 $46 reversed single #
loop $-1 $-1 $47 $21 #
plane-surface $-1 0 -29.137477059564095 3.6268064404818334 0 0 1 1 0 0 forward_v I I I I #
face $-1 $48 $49 $17 $-1 $50 forward single #
loop $-1 $-1 $51 $22 #
plane-surface $-1 -30.585689843803564 44.424528536402086 113.26589948624769 -1 0 0 0 0.6018150307709319 0.79863550430605224 forward_v I I I I #
face $-1 $52 $53 $18 $-1 $54 reversed single #
loop $-1 $55 $56 $23 #
cone-surface $-1 -44.348637340808146 22.316271663014909 3.2933825516302342 0 -0.6018150307709319 -0.79863550430605224 1.5 0 0 1 I I 0 1 1.5 forward I I I I #
face $-1 $57 $58 $19 $-1 $59 reversed single #
loop $-1 $60 $61 $24 #
cone-surface $-1 -36.090868842605403 22.316271663014909 3.2933825516302342 0 -0.6018150307709319 -0.79863550430605224 1.5 0 0 1 I I 0 1 1.5 forward I I I I #
face $-1 $62 $63 $15 $-1 $64 reversed single #
loop $-1 $-1 $65 $25 #
plane-surface $-1 0 0 -6.6268064404818334 0 0 1 1 0 0 forward_v I I I I #
coedge $-1 $66 $67 $68 $69 forward $26 $-1 #
face $-1 $70 $71 $16 $-1 $72 forward single #
loop $-1 $-1 $73 $28 #
plane-surface $-1 0 -32.187929522462255 5.1268064404818334 0 1 0 0 0 1 forward_v I I I I #
coedge $-1 $74 $75 $76 $77 forward $29 $-1 #
face $-1 $78 $79 $17 $-1 $80 reversed single #
loop $-1 $-1 $81 $31 #
plane-surface $-1 -40.219753091706771 -15.581023492539444 33.635843978316245 0 0.6018150307709319 0.79863550430605224 1 0 0 forward_v I I I I #
coedge $-1 $82 $83 $84 $85 reversed $32 $-1 #
face $-1 $86 $87 $18 $-1 $88 forward single #
loop $-1 $89 $90 $34 #
cone-surface $-1 -44.348637340808146 21.007080155830906 1.5560267759964601 0 -0.6018150307709319 -0.79863550430605224 0.75 0 0 1 I I -0.70710678118654757 0.70710678118654757 0.75 forward I I I I #
loop $-1 $-1 $91 $23 #
coedge $-1 $56 $56 $92 $93 reversed $35 $-1 #
face $-1 $94 $95 $19 $-1 $96 reversed single #
loop $-1 $97 $98 $37 #
cone-surface $-1 -36.090868842605403 21.007080155830906 1.5560267759964601 0 -0.6018150307709319 -0.79863550430605224 0.75 0 0 1 I I -0.70710678118654757 0.70710678118654757 0.75 forward I I I I #
loop $-1 $-1 $99 $24 #
coedge $-1 $61 $61 $100 $101 reversed $38 $-1 #
face $-1 $102 $103 $15 $-1 $104 reversed single #
loop $-1 $-1 $105 $40 #
plane-surface $-1 0 -26.087024596665934 0 0 1 0 0 0 1 forward_v I I I I #
coedge $-1 $106 $107 $108 $109 forward $41 $-1 #
coedge $-1 $110 $43 $111 $112 forward $26 $-1 #
coedge $-1 $43 $110 $113 $114 forward $26 $-1 #
coedge $-1 $115 $116 $43 $69 reversed $117 $-1 #
edge $-1 $118 -26.087024596665934 $119 26.087024596665934 $68 $120 forward 7 unknown #
face $-1 $121 $122 $16 $-1 $123 reversed single #
loop $-1 $-1 $124 $44 #
plane-surface $-1 0 0 6.6268064404818334 0 0 1 1 0 0 forward_v I I I I #
coedge $-1 $125 $126 $127 $128 forward $45 $-1 #
coedge $-1 $129 $47 $125 $130 forward $29 $-1 #
coedge $-1 $47 $129 $131 $132 reversed $29 $-1 #
coedge $-1 $133 $134 $47 $77 reversed $135 $-1 #
edge $-1 $136 -3.0504524628981606 $137 3.0504524628981606 $76 $138 forward 7 unknown #
face $-1 $139 $140 $17 $-1 $141 forward single #
loop $-1 $-1 $142 $48 #
plane-surface $-1 0 26.087024596665934 0 0 -1 0 0 0 -1 forward_v I I I I #
coedge $-1 $143 $144 $142 $145 reversed $49 $-1 #
coedge $-1 $83 $51 $144 $146 forward $32 $-1 #
coedge $-1 $51 $82 $147 $148 reversed $32 $-1 #
coedge $-1 $149 $142 $51 $85 forward $79 $-1 #
edge $-1 $150 -54.396232785536739 $151 -50.006143302642009 $84 $152 forward 7 unknown #
face $-1 $153 $154 $18 $-1 $155 forward single #
loop $-1 $-1 $156 $52 #
plane-surface $-1 -30.585689843803564 44.424528536402086 113.26589948624769 -1 0 0 0 0.6018150307709319 0.79863550430605224 forward_v I I I I #
loop $-1 $-1 $157 $34 #
coedge $-1 $90 $90 $91 $158 forward $53 $-1 #
coedge $-1 $91 $91 $90 $158 reversed $55 $-1 #
coedge $-1 $92 $92 $56 $93 forward $154 $-1 #
edge $-1 $159 1.7817304099396953e-015 $159 6.2831853071796022 $92 $160 forward 7 unknown #
face $-1 $161 $162 $19 $-1 $163 reversed single #
loop $-1 $164 $165 $57 #
cone-surface $-1 -44.348637340808146 22.316271663014909 3.2933825516302342 0 -0.6018150307709319 -0.79863550430605224 1.5 0 0 1 I I 0 1 1.5 forward I I I I #
loop $-1 $-1 $166 $37 #
coedge $-1 $98 $98 $99 $167 forward $58 $-1 #
coedge $-1 $99 $99 $98 $167 reversed $60 $-1 #
coedge $-1 $100 $100 $61 $101 forward $168 $-1 #
edge $-1 $169 1.7817304099396953e-015 $169 6.2831853071796022 $100 $170 forward 7 unknown #
face $-1 $171 $172 $15 $-1 $173 reversed single #
loop $-1 $-1 $174 $62 #
plane-surface $-1 -49.853816339609978 0 0 1 0 0 0 0 -1 forward_v I I I I #
coedge $-1 $175 $113 $176 $177 forward $63 $-1 #
coedge $-1 $178 $65 $175 $179 forward $41 $-1 #
coedge $-1 $65 $178 $180 $181 forward $41 $-1 #
coedge $-1 $116 $115 $65 $109 reversed $117 $-1 #
edge $-1 $182 -26.087024596665934 $183 26.087024596665934 $108 $184 forward 7 unknown #
coedge $-1 $67 $66 $185 $186 forward $26 $-1 #
coedge $-1 $187 $188 $66 $112 reversed $172 $-1 #
edge $-1 $119 -49.853816339609978 $189 49.853816339609978 $111 $190 forward 7 unknown #
coedge $-1 $105 $191 $67 $114 reversed $63 $-1 #
edge $-1 $192 -49.853816339609978 $118 49.853816339609978 $113 $193 forward 7 unknown #
coedge $-1 $108 $68 $191 $194 forward $117 $-1 #
coedge $-1 $68 $108 $187 $195 reversed $117 $-1 #
loop $-1 $-1 $115 $171 #
vertex $-1 $69 $196 #
vertex $-1 $69 $197 #
straight-curve $-1 49.853816339609978 0 6.6268064404818334 0 1 0 I I #
face $-1 $198 $199 $16 $-1 $200 reversed single #
loop $-1 $-1 $201 $70 #
plane-surface $-1 0 0 -6.6268064404818334 0 0 1 1 0 0 forward_v I I I I #
coedge $-1 $202 $203 $204 $205 forward $71 $-1 #
coedge $-1 $206 $73 $74 $130 reversed $45 $-1 #
coedge $-1 $73 $206 $203 $207 reversed $45 $-1 #
coedge $-1 $208 $209 $73 $128 reversed $210 $-1 #
edge $-1 $211 -1.5 $212 1.5 $127 $213 forward 7 unknown #
coedge $-1 $75 $74 $209 $214 forward $29 $-1 #
edge $-1 $137 -49.853816339609978 $212 49.853816339609978 $125 $215 forward 7 unknown #
coedge $-1 $216 $217 $75 $132 forward $199 $-1 #
edge $-1 $136 -49.853816339609978 $218 49.853816339609978 $131 $219 forward 7 unknown #
coedge $-1 $220 $76 $217 $221 forward $135 $-1 #
coedge $-1 $76 $204 $206 $222 forward $135 $-1 #
loop $-1 $-1 $133 $223 #
vertex $-1 $221 $224 #
vertex $-1 $222 $225 #
straight-curve $-1 49.853816339609978 -29.137477059564095 3.6268064404818334 0 -1 0 I I #
face $-1 $226 $227 $17 $-1 $228 reversed single #
loop $-1 $-1 $147 $78 #
plane-surface $-1 0 0 6.6268064404818334 0 0 1 1 0 0 forward_v I I I I #
coedge $-1 $84 $229 $81 $145 forward $79 $-1 #
coedge $-1 $230 $81 $231 $232 reversed $49 $-1 #
coedge $-1 $81 $230 $82 $146 reversed $49 $-1 #
edge $-1 $233 -29.743939793756592 $150 -10.475813297950179 $142 $234 forward 7 unknown #
edge $-1 $150 -52.174049193331882 $235 -44.87930037778473 $82 $236 forward 7 unknown #
coedge $-1 $237 $238 $83 $148 forward $140 $-1 #
edge $-1 $151 -3.874760328464891 $235 1.9510850706255773 $147 $239 forward 7 unknown #
coedge $-1 $240 $84 $238 $241 reversed $79 $-1 #
vertex $-1 $145 $242 #
vertex $-1 $148 $243 #
straight-curve $-1 -30.585689843803564 26.087024596665934 56.632949743123845 0 0 1 I I #
face $-1 $244 $245 $18 $-1 $246 reversed single #
loop $-1 $247 $92 $86 #
plane-surface $-1 -40.219753091706771 -15.581023492539444 33.635843978316245 0 0.6018150307709319 0.79863550430605224 1 0 0 forward_v I I I I #
coedge $-1 $248 $249 $250 $251 reversed $87 $-1 #
coedge $-1 $157 $157 $-1 $252 forward $89 $-1 #
edge $-1 $253 0 $253 6.2831853071796004 $90 $254 forward 7 unknown #
vertex $-1 $93 $255 #
ellipse-curve $-1 -44.348637340808146 23.17410189712071 4.4317616990344648 0 -0.6018150307709319 -0.79863550430605224 1.5 0 0 1 I I #
face $-1 $256 $257 $19 $-1 $258 forward single #
loop $-1 $259 $260 $94 #
cone-surface $-1 -44.348637340808146 21.007080155830906 1.5560267759964601 0 -0.6018150307709319 -0.79863550430605224 0.75 0 0 1 I I -0.70710678118654757 0.70710678118654757 0.75 forward I I I I #
loop $-1 $-1 $261 $57 #
coedge $-1 $165 $165 $262 $263 reversed $95 $-1 #
coedge $-1 $166 $166 $-1 $264 forward $97 $-1 #
edge $-1 $265 0 $265 6.2831853071796004 $98 $266 forward 7 unknown #
loop $-1 $267 $100 $256 #
vertex $-1 $101 $268 #
ellipse-curve $-1 -36.090868842605403 23.17410189712071 4.4317616990344648 0 -0.6018150307709319 -0.79863550430605224 1.5 0 0 1 I I #
face $-1 $-1 $117 $15 $-1 $269 reversed single #
loop $-1 $-1 $187 $102 #
plane-surface $-1 0 26.087024596665934 0 0 -1 0 0 0 -1 forward_v I I I I #
coedge $-1 $270 $185 $188 $271 forward $103 $-1 #
coedge $-1 $191 $105 $106 $179 reversed $63 $-1 #
coedge $-1 $185 $270 $105 $177 reversed $103 $-1 #
edge $-1 $192 -6.6268064404818334 $272 6.6268064404818334 $176 $273 forward 7 unknown #
coedge $-1 $107 $106 $270 $274 forward $41 $-1 #
edge $-1 $183 -49.853816339609978 $272 49.853816339609978 $175 $275 forward 7 unknown #
coedge $-1 $188 $187 $107 $181 reversed $172 $-1 #
edge $-1 $276 -49.853816339609978 $182 49.853816339609978 $180 $277 forward 7 unknown #
vertex $-1 $109 $278 #
vertex $-1 $194 $279 #
straight-curve $-1 49.853816339609978 0 -6.6268064404818334 0 -1 0 I I #
coedge $-1 $174 $176 $110 $186 reversed $103 $-1 #
edge $-1 $189 -26.087024596665934 $192 26.087024596665934 $185 $280 forward 7 unknown #
coedge $-1 $180 $111 $116 $195 forward $172 $-1 #
coedge $-1 $111 $180 $174 $271 reversed $172 $-1 #
vertex $-1 $112 $281 #
straight-curve $-1 0 26.087024596665934 6.6268064404818334 -1 0 0 I I #
coedge $-1 $113 $175 $115 $194 reversed $63 $-1 #
vertex $-1 $186 $282 #
straight-curve $-1 0 -26.087024596665934 6.6268064404818334 1 0 0 I I #
edge $-1 $118 -6.6268064404818334 $183 6.6268064404818334 $115 $283 forward 7 unknown #
edge $-1 $119 -6.6268064404818334 $182 6.6268064404818334 $116 $284 forward 7 unknown #
point $-1 49.853816339609978 -26.087024596665934 6.6268064404818334 #
point $-1 49.853816339609978 26.087024596665934 6.6268064404818334 #
face $-1 $285 $210 $16 $-1 $286 reversed single #
loop $-1 $-1 $131 $121 #
plane-surface $-1 0 -26.087024596665934 0 0 1 0 0 0 1 forward_v I I I I #
coedge $-1 $287 $288 $220 $289 forward $122 $-1 #
coedge $-1 $290 $124 $291 $292 forward $71 $-1 #
coedge $-1 $124 $290 $126 $207 forward $71 $-1 #
coedge $-1 $134 $293 $124 $205 reversed $135 $-1 #
edge $-1 $294 -32.187929522462255 $295 26.087024596665934 $204 $296 forward 7 unknown #
coedge $-1 $126 $125 $134 $222 reversed $45 $-1 #
edge $-1 $211 -49.853816339609978 $294 49.853816339609978 $126 $297 forward 7 unknown #
coedge $-1 $298 $127 $290 $299 reversed $210 $-1 #
coedge $-1 $127 $300 $129 $214 reversed $210 $-1 #
loop $-1 $-1 $298 $198 #
vertex $-1 $299 $301 #
vertex $-1 $214 $302 #
straight-curve $-1 -49.853816339609978 -32.187929522462255 5.1268064404818334 0 0 -1 I I #
edge $-1 $212 -3.0504524628981606 $218 3.0504524628981606 $209 $303 forward 7 unknown #
straight-curve $-1 0 -32.187929522462255 3.6268064404818334 -1 0 0 I I #
coedge $-1 $304 $131 $300 $305 forward $199 $-1 #
coedge $-1 $131 $304 $133 $221 reversed $199 $-1 #
vertex $-1 $305 $306 #
straight-curve $-1 0 -26.087024596665934 3.6268064404818334 -1 0 0 I I #
coedge $-1 $293 $133 $201 $289 reversed $135 $-1 #
edge $-1 $136 -3.6268064404818334 $307 6.6268064404818334 $133 $308 forward 7 unknown #
edge $-1 $294 -1.5 $137 1.5 $134 $309 forward 7 unknown #
face $-1 $-1 $135 $16 $-1 $310 reversed single #
point $-1 49.853816339609978 -26.087024596665934 3.6268064404818334 #
point $-1 49.853816339609978 -32.187929522462255 3.6268064404818334 #
face $-1 $311 $312 $17 $-1 $313 reversed single #
loop $-1 $-1 $314 $139 #
plane-surface $-1 0 -29.137477059564095 3.6268064404818334 0 0 1 1 0 0 forward_v I I I I #
coedge $-1 $142 $315 $316 $317 reversed $79 $-1 #
coedge $-1 $144 $143 $237 $318 reversed $49 $-1 #
coedge $-1 $316 $319 $143 $232 forward $320 $-1 #
edge $-1 $321 28.536242861092063 $233 35.830991676639201 $231 $322 forward 7 unknown #
vertex $-1 $317 $323 #
straight-curve $-1 -20.109876545853385 26.087024596665934 2.2367169575871149 1 0 0 I I #
vertex $-1 $318 $324 #
straight-curve $-1 -30.585689843803564 -15.581023492539444 33.635843978316245 0 -0.79863550430605224 0.6018150307709319 I I #
coedge $-1 $325 $147 $230 $318 forward $140 $-1 #
coedge $-1 $147 $326 $149 $241 forward $140 $-1 #
straight-curve $-1 -30.585689843803564 22.212264268201043 6.6268064404818361 0 -1 0 I I #
coedge $-1 $315 $149 $327 $328 forward $79 $-1 #
edge $-1 $329 -49.853816339609978 $151 30.585689843803564 $149 $330 forward 7 unknown #
point $-1 -30.585689843803564 26.087024596665934 2.2367169575871095 #
point $-1 -30.585689843803564 26.087024596665934 6.6268064404818334 #
face $-1 $331 $332 $18 $-1 $333 forward single #
loop $-1 $-1 $334 $153 #
plane-surface $-1 0 26.087024596665934 0 0 -1 0 0 0 -1 forward_v I I I I #
loop $-1 $-1 $335 $86 #
coedge $-1 $249 $156 $336 $337 forward $87 $-1 #
coedge $-1 $156 $248 $338 $339 reversed $87 $-1 #
coedge $-1 $340 $334 $156 $251 forward $245 $-1 #
edge $-1 $341 -54.396232785536739 $342 -50.006143302642009 $250 $343 forward 7 unknown #
edge $-1 $344 1 $344 0 $157 $-1 forward 7 unknown #
vertex $-1 $158 $345 #
ellipse-curve $-1 -44.348637340808146 21.458441428909104 2.1550034042259991 0 0.6018150307709319 0.79863550430605224 1.5 0 0 1 I I #
point $-1 -42.848637340808146 23.17410189712071 4.4317616990344693 #
face $-1 $346 $168 $19 $-1 $347 forward single #
loop $-1 $-1 $348 $161 #
plane-surface $-1 -30.585689843803564 44.424528536402086 113.26589948624769 -1 0 0 0 0.6018150307709319 0.79863550430605224 forward_v I I I I #
loop $-1 $-1 $349 $94 #
coedge $-1 $260 $260 $261 $350 forward $162 $-1 #
coedge $-1 $261 $261 $260 $350 reversed $164 $-1 #
coedge $-1 $262 $262 $165 $263 forward $267 $-1 #
edge $-1 $351 1.7817304099396953e-015 $351 6.2831853071796022 $262 $352 forward 7 unknown #
edge $-1 $353 1 $353 0 $166 $-1 forward 7 unknown #
vertex $-1 $167 $354 #
ellipse-curve $-1 -36.090868842605403 21.458441428909104 2.1550034042259991 0 0.6018150307709319 0.79863550430605224 1.5 0 0 1 I I #
loop $-1 $355 $262 $256 #
point $-1 -34.590868842605403 23.17410189712071 4.4317616990344693 #
plane-surface $-1 49.853816339609978 0 0 -1 0 0 0 0 1 forward_v I I I I #
coedge $-1 $176 $174 $178 $274 reversed $103 $-1 #
edge $-1 $189 -6.6268064404818334 $276 6.6268064404818334 $188 $356 forward 7 unknown #
vertex $-1 $274 $357 #
straight-curve $-1 -49.853816339609978 -26.087024596665934 0 0 0 -1 I I #
edge $-1 $272 -26.087024596665934 $276 26.087024596665934 $270 $358 forward 7 unknown #
straight-curve $-1 0 -26.087024596665934 -6.6268064404818334 -1 0 0 I I #
vertex $-1 $181 $359 #
straight-curve $-1 0 26.087024596665934 -6.6268064404818334 1 0 0 I I #
point $-1 49.853816339609978 26.087024596665934 -6.6268064404818334 #
point $-1 49.853816339609978 -26.087024596665934 -6.6268064404818334 #
straight-curve $-1 -49.853816339609978 0 6.6268064404818334 0 -1 0 I I #
point $-1 -49.853816339609978 26.087024596665934 6.6268064404818334 #
point $-1 -49.853816339609978 -26.087024596665934 6.6268064404818334 #
straight-curve $-1 49.853816339609978 -26.087024596665934 0 0 0 -1 I I #
straight-curve $-1 49.853816339609978 26.087024596665934 0 0 0 -1 I I #
face $-1 $223 $360 $16 $-1 $361 reversed single #
plane-surface $-1 -49.853816339609978 0 0 1 0 0 0 0 -1 forward_v I I I I #
coedge $-1 $362 $201 $304 $363 forward $122 $-1 #
coedge $-1 $201 $362 $364 $365 forward $122 $-1 #
edge $-1 $366 -26.087024596665934 $307 26.087024596665934 $220 $367 forward 7 unknown #
coedge $-1 $203 $202 $208 $299 forward $71 $-1 #
coedge $-1 $368 $369 $202 $292 reversed $360 $-1 #
edge $-1 $295 -49.853816339609978 $370 49.853816339609978 $291 $371 forward 7 unknown #
coedge $-1 $204 $220 $368 $372 reversed $135 $-1 #
vertex $-1 $205 $373 #
vertex $-1 $205 $374 #
straight-curve $-1 49.853816339609978 0 6.6268064404818334 0 1 0 I I #
straight-curve $-1 0 -32.187929522462255 6.6268064404818334 1 0 0 I I #
coedge $-1 $375 $208 $369 $376 forward $210 $-1 #
edge $-1 $370 -26.087024596665934 $211 32.187929522462255 $208 $377 forward 7 unknown #
coedge $-1 $209 $375 $216 $305 reversed $210 $-1 #
point $-1 -49.853816339609978 -32.187929522462255 6.6268064404818334 #
point $-1 -49.853816339609978 -32.187929522462255 3.6268064404818334 #
straight-curve $-1 -49.853816339609978 -29.137477059564095 3.6268064404818334 0 1 0 I I #
coedge $-1 $217 $216 $287 $363 reversed $199 $-1 #
edge $-1 $218 -3.6268064404818334 $378 6.6268064404818334 $300 $379 forward 7 unknown #
point $-1 -49.853816339609978 -26.087024596665934 3.6268064404818334 #
vertex $-1 $221 $380 #
straight-curve $-1 49.853816339609978 -26.087024596665934 0 0 0 -1 I I #
straight-curve $-1 49.853816339609978 -32.187929522462255 5.1268064404818334 0 0 -1 I I #
plane-surface $-1 49.853816339609978 0 0 -1 0 0 0 0 1 forward_v I I I I #
face $-1 $381 $382 $17 $-1 $383 reversed single #
loop $-1 $-1 $384 $226 #
plane-surface $-1 0 -32.187929522462255 5.1268064404818334 0 1 0 0 0 1 forward_v I I I I #
coedge $-1 $385 $386 $387 $388 forward $227 $-1 #
coedge $-1 $229 $240 $389 $390 reversed $79 $-1 #
coedge $-1 $391 $231 $229 $317 forward $320 $-1 #
edge $-1 $233 -2.2367169575871131 $392 6.6268064404818334 $229 $393 forward 7 unknown #
edge $-1 $235 10.475813297950179 $321 29.743939793756592 $237 $394 forward 7 unknown #
coedge $-1 $231 $395 $325 $396 reversed $320 $-1 #
loop $-1 $-1 $231 $397 #
vertex $-1 $396 $398 #
straight-curve $-1 -49.853816339609978 -2.5288775107927748 23.800346316016739 0 0.79863550430605224 -0.6018150307709319 I I #
point $-1 -49.853816339609978 26.087024596665934 2.2367169575871131 #
point $-1 -30.585689843803564 20.261179197575466 6.6268064404818325 #
coedge $-1 $399 $237 $319 $396 forward $140 $-1 #
coedge $-1 $238 $399 $400 $401 forward $140 $-1 #
coedge $-1 $400 $402 $240 $328 reversed $403 $-1 #
edge $-1 $329 -6.6268064404818334 $404 6.6268064404818334 $327 $405 forward 7 unknown #
vertex $-1 $401 $406 #
straight-curve $-1 0 26.087024596665934 6.6268064404818334 -1 0 0 I I #
face $-1 $407 $408 $18 $-1 $409 reversed single #
loop $-1 $-1 $338 $244 #
plane-surface $-1 0 0 6.6268064404818334 0 0 1 1 0 0 forward_v I I I I #
coedge $-1 $250 $410 $335 $411 forward $245 $-1 #
coedge $-1 $412 $336 $334 $411 reversed $247 $-1 #
coedge $-1 $335 $413 $248 $337 reversed $247 $-1 #
edge $-1 $341 -52.174049193331882 $414 -44.87930037778473 $248 $415 forward 7 unknown #
coedge $-1 $416 $417 $249 $339 forward $332 $-1 #
edge $-1 $342 -3.874760328464891 $414 1.9510850706255773 $338 $418 forward 7 unknown #
coedge $-1 $419 $250 $417 $420 reversed $245 $-1 #
vertex $-1 $411 $421 #
vertex $-1 $339 $422 #
straight-curve $-1 -30.585689843803564 26.087024596665934 56.632949743123845 0 0 1 I I #
vertex $-1 $252 $423 #
point $-1 -42.848637340808146 21.458441428909104 2.1550034042259991 #
face $-1 $424 $425 $19 $-1 $426 reversed single #
plane-surface $-1 -40.219753091706771 -15.581023492539444 33.635843978316245 0 0.6018150307709319 0.79863550430605224 1 0 0 forward_v I I I I #
coedge $-1 $427 $428 $429 $430 reversed $257 $-1 #
coedge $-1 $349 $349 $-1 $431 forward $259 $-1 #
edge $-1 $432 0 $432 6.2831853071796004 $260 $433 forward 7 unknown #
vertex $-1 $263 $434 #
ellipse-curve $-1 -44.348637340808146 23.17410189712071 4.4317616990344648 0 -0.6018150307709319 -0.79863550430605224 1.5 0 0 1 I I #
vertex $-1 $264 $435 #
point $-1 -34.590868842605403 21.458441428909104 2.1550034042259991 #
loop $-1 $-1 $436 $256 #
straight-curve $-1 -49.853816339609978 26.087024596665934 0 0 0 -1 I I #
point $-1 -49.853816339609978 -26.087024596665934 -6.6268064404818334 #
straight-curve $-1 -49.853816339609978 0 -6.6268064404818334 0 1 0 I I #
point $-1 -49.853816339609978 26.087024596665934 -6.6268064404818334 #
loop $-1 $-1 $368 $285 #
plane-surface $-1 0 26.087024596665934 0 0 -1 0 0 0 -1 forward_v I I I I #
coedge $-1 $288 $287 $375 $437 forward $122 $-1 #
edge $-1 $307 -49.853816339609978 $378 49.853816339609978 $304 $438 forward 7 unknown #
coedge $-1 $369 $368 $288 $365 reversed $360 $-1 #
edge $-1 $439 -49.853816339609978 $366 49.853816339609978 $364 $440 forward 7 unknown #
vertex $-1 $289 $441 #
straight-curve $-1 49.853816339609978 0 -6.6268064404818334 0 -1 0 I I #
coedge $-1 $364 $291 $293 $372 forward $360 $-1 #
coedge $-1 $291 $364 $298 $376 reversed $360 $-1 #
vertex $-1 $292 $442 #
straight-curve $-1 0 26.087024596665934 6.6268064404818334 -1 0 0 I I #
edge $-1 $295 -6.6268064404818334 $366 6.6268064404818334 $293 $443 forward 7 unknown #
point $-1 49.853816339609978 -32.187929522462255 6.6268064404818334 #
point $-1 49.853816339609978 26.087024596665934 6.6268064404818334 #
coedge $-1 $300 $298 $362 $437 reversed $210 $-1 #
edge $-1 $370 -6.6268064404818334 $439 6.6268064404818334 $369 $444 forward 7 unknown #
straight-curve $-1 -49.853816339609978 0 6.6268064404818334 0 -1 0 I I #
vertex $-1 $437 $445 #
straight-curve $-1 -49.853816339609978 -26.087024596665934 0 0 0 -1 I I #
point $-1 49.853816339609978 -26.087024596665934 -6.6268064404818334 #
face $-1 $397 $446 $17 $-1 $447 reversed single #
loop $-1 $-1 $448 $311 #
plane-surface $-1 0 0 -6.6268064404818334 0 0 1 1 0 0 forward_v I I I I #
coedge $-1 $449 $450 $395 $451 forward $312 $-1 #
coedge $-1 $452 $314 $449 $453 forward $227 $-1 #
coedge $-1 $314 $452 $454 $455 reversed $227 $-1 #
coedge $-1 $456 $457 $314 $388 reversed $403 $-1 #
edge $-1 $458 -3.0504524628981606 $459 3.0504524628981606 $387 $460 forward 7 unknown #
coedge $-1 $448 $461 $315 $390 forward $382 $-1 #
edge $-1 $392 -49.853816339609978 $404 49.853816339609978 $315 $462 forward 7 unknown #
coedge $-1 $463 $316 $461 $464 reversed $320 $-1 #
vertex $-1 $390 $465 #
straight-curve $-1 -49.853816339609978 26.087024596665934 0 0 0 -1 I I #
straight-curve $-1 -20.109876545853385 20.261179197575466 6.6268064404818325 -1 0 0 I I #
coedge $-1 $319 $466 $384 $451 reversed $320 $-1 #
edge $-1 $321 -20.261179197575466 $467 32.187929522462255 $319 $468 forward 7 unknown #
face $-1 $469 $320 $17 $-1 $470 reversed single #
point $-1 -49.853816339609978 20.261179197575466 6.6268064404818325 #
coedge $-1 $326 $325 $450 $471 forward $140 $-1 #
coedge $-1 $457 $327 $326 $401 reversed $403 $-1 #
edge $-1 $472 -32.187929522462255 $329 26.087024596665934 $400 $473 forward 7 unknown #
coedge $-1 $327 $456 $448 $474 reversed $403 $-1 #
loop $-1 $-1 $456 $469 #
vertex $-1 $474 $475 #
straight-curve $-1 49.853816339609978 26.087024596665934 0 0 0 -1 I I #
point $-1 49.853816339609978 26.087024596665934 6.6268064404818334 #
face $-1 $476 $477 $18 $-1 $478 reversed single #
loop $-1 $-1 $479 $331 #
plane-surface $-1 0 -29.137477059564095 3.6268064404818334 0 0 1 1 0 0 forward_v I I I I #
coedge $-1 $334 $480 $481 $482 reversed $245 $-1 #
edge $-1 $483 -29.743939793756592 $341 -10.475813297950179 $334 $484 forward 7 unknown #
coedge $-1 $413 $335 $485 $486 reversed $247 $-1 #
coedge $-1 $336 $412 $416 $487 reversed $247 $-1 #
vertex $-1 $487 $488 #
straight-curve $-1 -30.585689843803564 -15.581023492539444 33.635843978316245 0 -0.79863550430605224 0.6018150307709319 I I #
coedge $-1 $489 $338 $413 $487 forward $332 $-1 #
coedge $-1 $338 $490 $340 $420 forward $332 $-1 #
straight-curve $-1 -30.585689843803564 22.212264268201043 6.6268064404818361 0 -1 0 I I #
coedge $-1 $480 $340 $491 $492 forward $245 $-1 #
edge $-1 $493 -49.853816339609978 $342 30.585689843803564 $340 $494 forward 7 unknown #
point $-1 -30.585689843803564 26.087024596665934 2.2367169575871095 #
point $-1 -30.585689843803564 26.087024596665934 6.6268064404818334 #
point $-1 -44.348637340808146 20.555718882752707 0.95705014776692088 #
face $-1 $495 $496 $19 $-1 $497 forward single #
loop $-1 $-1 $498 $346 #
plane-surface $-1 0 26.087024596665934 0 0 -1 0 0 0 -1 forward_v I I I I #
coedge $-1 $428 $348 $499 $500 forward $257 $-1 #
coedge $-1 $348 $427 $501 $502 reversed $257 $-1 #
coedge $-1 $503 $498 $348 $430 forward $425 $-1 #
edge $-1 $504 -54.396232785536739 $505 -50.006143302642009 $429 $506 forward 7 unknown #
edge $-1 $507 1 $507 0 $349 $-1 forward 7 unknown #
vertex $-1 $350 $508 #
ellipse-curve $-1 -44.348637340808146 21.458441428909104 2.1550034042259991 0 0.6018150307709319 0.79863550430605224 1.5 0 0 1 I I #
point $-1 -42.848637340808146 23.17410189712071 4.4317616990344693 #
point $-1 -36.090868842605403 20.555718882752707 0.95705014776692088 #
coedge $-1 $509 $499 $498 $510 reversed $355 $-1 #
edge $-1 $378 -26.087024596665934 $439 26.087024596665934 $375 $511 forward 7 unknown #
straight-curve $-1 0 -26.087024596665934 -6.6268064404818334 -1 0 0 I I #
vertex $-1 $365 $512 #
straight-curve $-1 0 26.087024596665934 -6.6268064404818334 1 0 0 I I #
point $-1 49.853816339609978 26.087024596665934 -6.6268064404818334 #
point $-1 -49.853816339609978 26.087024596665934 6.6268064404818334 #
straight-curve $-1 49.853816339609978 26.087024596665934 0 0 0 -1 I I #
straight-curve $-1 -49.853816339609978 26.087024596665934 0 0 0 -1 I I #
point $-1 -49.853816339609978 -26.087024596665934 -6.6268064404818334 #
loop $-1 $-1 $454 $381 #
plane-surface $-1 0 -26.087024596665934 0 0 1 0 0 0 1 forward_v I I I I #
coedge $-1 $513 $389 $402 $474 forward $382 $-1 #
coedge $-1 $514 $384 $385 $453 reversed $312 $-1 #
coedge $-1 $384 $514 $399 $471 reversed $312 $-1 #
edge $-1 $467 -1.5 $515 1.5 $395 $516 forward 7 unknown #
coedge $-1 $386 $385 $466 $517 forward $227 $-1 #
edge $-1 $459 -49.853816339609978 $515 49.853816339609978 $449 $518 forward 7 unknown #
coedge $-1 $519 $520 $386 $455 forward $446 $-1 #
edge $-1 $458 -49.853816339609978 $521 49.853816339609978 $454 $522 forward 7 unknown #
coedge $-1 $402 $387 $520 $523 forward $403 $-1 #
coedge $-1 $387 $400 $514 $524 forward $403 $-1 #
vertex $-1 $523 $525 #
vertex $-1 $524 $526 #
straight-curve $-1 49.853816339609978 -29.137477059564095 3.6268064404818334 0 -1 0 I I #
coedge $-1 $389 $513 $391 $464 forward $382 $-1 #
straight-curve $-1 0 26.087024596665934 -6.6268064404818334 1 0 0 I I #
coedge $-1 $466 $391 $519 $527 reversed $320 $-1 #
edge $-1 $528 -26.087024596665934 $392 26.087024596665934 $391 $529 forward 7 unknown #
point $-1 -49.853816339609978 26.087024596665934 -6.6268064404818334 #
coedge $-1 $395 $463 $452 $517 reversed $320 $-1 #
vertex $-1 $396 $530 #
straight-curve $-1 -49.853816339609978 0 6.6268064404818334 0 -1 0 I I #
face $-1 $-1 $403 $17 $-1 $531 reversed single #
plane-surface $-1 -49.853816339609978 0 0 1 0 0 0 0 -1 forward_v I I I I #
edge $-1 $467 -49.853816339609978 $472 49.853816339609978 $450 $532 forward 7 unknown #
vertex $-1 $401 $533 #
straight-curve $-1 49.853816339609978 0 6.6268064404818334 0 1 0 I I #
edge $-1 $404 -26.087024596665934 $534 26.087024596665934 $402 $535 forward 7 unknown #
point $-1 49.853816339609978 26.087024596665934 -6.6268064404818334 #
face $-1 $536 $537 $18 $-1 $538 reversed single #
loop $-1 $-1 $539 $407 #
plane-surface $-1 0 -32.187929522462255 5.1268064404818334 0 1 0 0 0 1 forward_v I I I I #
coedge $-1 $540 $541 $542 $543 forward $408 $-1 #
coedge $-1 $410 $419 $544 $545 reversed $245 $-1 #
coedge $-1 $546 $485 $410 $482 forward $547 $-1 #
edge $-1 $483 -2.2367169575871131 $548 6.6268064404818334 $410 $549 forward 7 unknown #
vertex $-1 $482 $550 #
straight-curve $-1 -20.109876545853385 26.087024596665934 2.2367169575871149 1 0 0 I I #
coedge $-1 $481 $551 $412 $486 forward $547 $-1 #
edge $-1 $552 28.536242861092063 $483 35.830991676639201 $485 $553 forward 7 unknown #
edge $-1 $414 10.475813297950179 $552 29.743939793756592 $416 $554 forward 7 unknown #
point $-1 -30.585689843803564 20.261179197575466 6.6268064404818325 #
coedge $-1 $555 $416 $551 $556 forward $332 $-1 #
coedge $-1 $417 $555 $557 $558 forward $332 $-1 #
coedge $-1 $557 $559 $419 $492 reversed $560 $-1 #
edge $-1 $493 -6.6268064404818334 $561 6.6268064404818334 $491 $562 forward 7 unknown #
vertex $-1 $558 $563 #
straight-curve $-1 0 26.087024596665934 6.6268064404818334 -1 0 0 I I #
face $-1 $564 $565 $19 $-1 $566 reversed single #
loop $-1 $-1 $501 $424 #
plane-surface $-1 0 0 6.6268064404818334 0 0 1 1 0 0 forward_v I I I I #
coedge $-1 $429 $567 $436 $510 forward $425 $-1 #
coedge $-1 $436 $568 $427 $500 reversed $355 $-1 #
edge $-1 $504 -52.174049193331882 $569 -44.87930037778473 $427 $570 forward 7 unknown #
coedge $-1 $571 $572 $428 $502 forward $496 $-1 #
edge $-1 $505 -3.874760328464891 $569 1.9510850706255773 $501 $573 forward 7 unknown #
coedge $-1 $574 $429 $572 $575 reversed $425 $-1 #
vertex $-1 $510 $576 #
vertex $-1 $502 $577 #
straight-curve $-1 -30.585689843803564 26.087024596665934 56.632949743123845 0 0 1 I I #
vertex $-1 $431 $578 #
point $-1 -42.848637340808146 21.458441428909104 2.1550034042259991 #
coedge $-1 $568 $436 $579 $580 reversed $355 $-1 #
edge $-1 $581 -29.743939793756592 $504 -10.475813297950179 $498 $582 forward 7 unknown #
straight-curve $-1 -49.853816339609978 0 -6.6268064404818334 0 1 0 I I #
point $-1 -49.853816339609978 26.087024596665934 -6.6268064404818334 #
coedge $-1 $461 $448 $583 $584 forward $382 $-1 #
coedge $-1 $450 $449 $457 $524 reversed $312 $-1 #
vertex $-1 $517 $585 #
straight-curve $-1 -49.853816339609978 -32.187929522462255 5.1268064404818334 0 0 -1 I I #
edge $-1 $515 -3.0504524628981606 $521 3.0504524628981606 $466 $586 forward 7 unknown #
straight-curve $-1 0 -32.187929522462255 3.6268064404818334 -1 0 0 I I #
coedge $-1 $583 $454 $463 $527 forward $446 $-1 #
coedge $-1 $454 $583 $456 $523 reversed $446 $-1 #
vertex $-1 $527 $587 #
straight-curve $-1 0 -26.087024596665934 3.6268064404818334 -1 0 0 I I #
edge $-1 $458 -3.6268064404818334 $534 6.6268064404818334 $456 $588 forward 7 unknown #
edge $-1 $472 -1.5 $459 1.5 $457 $589 forward 7 unknown #
point $-1 49.853816339609978 -26.087024596665934 3.6268064404818334 #
point $-1 49.853816339609978 -32.187929522462255 3.6268064404818334 #
edge $-1 $521 -3.6268064404818334 $528 6.6268064404818334 $463 $590 forward 7 unknown #
vertex $-1 $464 $591 #
straight-curve $-1 -49.853816339609978 0 -6.6268064404818334 0 1 0 I I #
point $-1 -49.853816339609978 -32.187929522462255 6.6268064404818334 #
plane-surface $-1 49.853816339609978 0 0 -1 0 0 0 0 1 forward_v I I I I #
straight-curve $-1 0 -32.187929522462255 6.6268064404818334 1 0 0 I I #
point $-1 49.853816339609978 -32.187929522462255 6.6268064404818334 #
vertex $-1 $523 $592 #
straight-curve $-1 49.853816339609978 0 -6.6268064404818334 0 -1 0 I I #
face $-1 $593 $594 $18 $-1 $595 reversed single #
loop $-1 $-1 $596 $476 #
plane-surface $-1 0 0 -6.6268064404818334 0 0 1 1 0 0 forward_v I I I I #
coedge $-1 $597 $598 $599 $600 forward $477 $-1 #
coedge $-1 $601 $479 $597 $602 forward $408 $-1 #
coedge $-1 $479 $601 $603 $604 reversed $408 $-1 #
coedge $-1 $605 $606 $479 $543 reversed $560 $-1 #
edge $-1 $607 -3.0504524628981606 $608 3.0504524628981606 $542 $609 forward 7 unknown #
coedge $-1 $596 $610 $480 $545 forward $537 $-1 #
edge $-1 $548 -49.853816339609978 $561 49.853816339609978 $480 $611 forward 7 unknown #
coedge $-1 $612 $481 $610 $613 reversed $547 $-1 #
loop $-1 $-1 $485 $593 #
vertex $-1 $545 $614 #
straight-curve $-1 -49.853816339609978 26.087024596665934 0 0 0 -1 I I #
point $-1 -49.853816339609978 26.087024596665934 2.2367169575871131 #
coedge $-1 $485 $599 $489 $556 reversed $547 $-1 #
vertex $-1 $556 $615 #
straight-curve $-1 -49.853816339609978 -2.5288775107927748 23.800346316016739 0 0.79863550430605224 -0.6018150307709319 I I #
straight-curve $-1 -20.109876545853385 20.261179197575466 6.6268064404818325 -1 0 0 I I #
coedge $-1 $490 $489 $598 $616 forward $332 $-1 #
edge $-1 $552 -20.261179197575466 $617 32.187929522462255 $551 $618 forward 7 unknown #
coedge $-1 $606 $491 $490 $558 reversed $560 $-1 #
edge $-1 $619 -32.187929522462255 $493 26.087024596665934 $557 $620 forward 7 unknown #
coedge $-1 $491 $605 $596 $621 reversed $560 $-1 #
loop $-1 $-1 $605 $622 #
vertex $-1 $621 $623 #
straight-curve $-1 49.853816339609978 26.087024596665934 0 0 0 -1 I I #
point $-1 49.853816339609978 26.087024596665934 6.6268064404818334 #
face $-1 $624 $625 $19 $-1 $626 reversed single #
loop $-1 $-1 $627 $495 #
plane-surface $-1 0 -29.137477059564095 3.6268064404818334 0 0 1 1 0 0 forward_v I I I I #
coedge $-1 $498 $628 $629 $630 reversed $425 $-1 #
coedge $-1 $499 $509 $571 $631 reversed $355 $-1 #
vertex $-1 $631 $632 #
straight-curve $-1 -30.585689843803564 -15.581023492539444 33.635843978316245 0 -0.79863550430605224 0.6018150307709319 I I #
coedge $-1 $633 $501 $568 $631 forward $496 $-1 #
coedge $-1 $501 $634 $503 $575 forward $496 $-1 #
straight-curve $-1 -30.585689843803564 22.212264268201043 6.6268064404818361 0 -1 0 I I #
coedge $-1 $628 $503 $635 $636 forward $425 $-1 #
edge $-1 $637 -49.853816339609978 $505 30.585689843803564 $503 $638 forward 7 unknown #
point $-1 -30.585689843803564 26.087024596665934 2.2367169575871095 #
point $-1 -30.585689843803564 26.087024596665934 6.6268064404818334 #
point $-1 -44.348637340808146 20.555718882752707 0.95705014776692088 #
coedge $-1 $629 $639 $509 $580 forward $640 $-1 #
edge $-1 $641 28.536242861092063 $581 35.830991676639201 $579 $642 forward 7 unknown #
vertex $-1 $630 $643 #
straight-curve $-1 -20.109876545853385 26.087024596665934 2.2367169575871149 1 0 0 I I #
coedge $-1 $520 $519 $513 $584 reversed $446 $-1 #
edge $-1 $534 -49.853816339609978 $528 49.853816339609978 $583 $644 forward 7 unknown #
point $-1 -49.853816339609978 -32.187929522462255 3.6268064404818334 #
straight-curve $-1 -49.853816339609978 -29.137477059564095 3.6268064404818334 0 1 0 I I #
point $-1 -49.853816339609978 -26.087024596665934 3.6268064404818334 #
straight-curve $-1 49.853816339609978 -26.087024596665934 0 0 0 -1 I I #
straight-curve $-1 49.853816339609978 -32.187929522462255 5.1268064404818334 0 0 -1 I I #
straight-curve $-1 -49.853816339609978 -26.087024596665934 0 0 0 -1 I I #
point $-1 -49.853816339609978 -26.087024596665934 -6.6268064404818334 #
point $-1 49.853816339609978 -26.087024596665934 -6.6268064404818334 #
face $-1 $622 $547 $18 $-1 $645 reversed single #
loop $-1 $-1 $603 $536 #
plane-surface $-1 0 -26.087024596665934 0 0 1 0 0 0 1 forward_v I I I I #
coedge $-1 $646 $544 $559 $621 forward $537 $-1 #
coedge $-1 $647 $539 $540 $602 reversed $477 $-1 #
coedge $-1 $539 $647 $555 $616 reversed $477 $-1 #
coedge $-1 $551 $648 $539 $600 reversed $547 $-1 #
edge $-1 $617 -1.5 $649 1.5 $599 $650 forward 7 unknown #
coedge $-1 $541 $540 $648 $651 forward $408 $-1 #
edge $-1 $608 -49.853816339609978 $649 49.853816339609978 $597 $652 forward 7 unknown #
coedge $-1 $653 $654 $541 $604 forward $594 $-1 #
edge $-1 $607 -49.853816339609978 $655 49.853816339609978 $603 $656 forward 7 unknown #
coedge $-1 $559 $542 $654 $657 forward $560 $-1 #
coedge $-1 $542 $557 $647 $658 forward $560 $-1 #
vertex $-1 $657 $659 #
vertex $-1 $658 $660 #
straight-curve $-1 49.853816339609978 -29.137477059564095 3.6268064404818334 0 -1 0 I I #
coedge $-1 $544 $646 $546 $613 forward $537 $-1 #
straight-curve $-1 0 26.087024596665934 -6.6268064404818334 1 0 0 I I #
coedge $-1 $648 $546 $653 $661 reversed $547 $-1 #
edge $-1 $662 -26.087024596665934 $548 26.087024596665934 $546 $663 forward 7 unknown #
point $-1 -49.853816339609978 26.087024596665934 -6.6268064404818334 #
point $-1 -49.853816339609978 20.261179197575466 6.6268064404818325 #
edge $-1 $617 -49.853816339609978 $619 49.853816339609978 $598 $664 forward 7 unknown #
vertex $-1 $556 $665 #
straight-curve $-1 -49.853816339609978 0 6.6268064404818334 0 -1 0 I I #
vertex $-1 $558 $666 #
straight-curve $-1 49.853816339609978 0 6.6268064404818334 0 1 0 I I #
edge $-1 $561 -26.087024596665934 $667 26.087024596665934 $559 $668 forward 7 unknown #
face $-1 $-1 $560 $18 $-1 $669 reversed single #
point $-1 49.853816339609978 26.087024596665934 -6.6268064404818334 #
face $-1 $670 $671 $19 $-1 $672 reversed single #
loop $-1 $-1 $673 $564 #
plane-surface $-1 0 -32.187929522462255 5.1268064404818334 0 1 0 0 0 1 forward_v I I I I #
coedge $-1 $674 $675 $676 $677 forward $565 $-1 #
coedge $-1 $567 $574 $678 $679 reversed $425 $-1 #
coedge $-1 $680 $579 $567 $630 forward $640 $-1 #
edge $-1 $581 -2.2367169575871131 $681 6.6268064404818334 $567 $682 forward 7 unknown #
edge $-1 $569 10.475813297950179 $641 29.743939793756592 $571 $683 forward 7 unknown #
point $-1 -30.585689843803564 20.261179197575466 6.6268064404818325 #
coedge $-1 $684 $571 $639 $685 forward $496 $-1 #
coedge $-1 $572 $684 $686 $687 forward $496 $-1 #
coedge $-1 $686 $688 $574 $636 reversed $689 $-1 #
edge $-1 $637 -6.6268064404818334 $690 6.6268064404818334 $635 $691 forward 7 unknown #
vertex $-1 $687 $692 #
straight-curve $-1 0 26.087024596665934 6.6268064404818334 -1 0 0 I I #
coedge $-1 $579 $693 $633 $685 reversed $640 $-1 #
loop $-1 $-1 $579 $694 #
vertex $-1 $685 $695 #
straight-curve $-1 -49.853816339609978 -2.5288775107927748 23.800346316016739 0 0.79863550430605224 -0.6018150307709319 I I #
point $-1 -49.853816339609978 26.087024596665934 2.2367169575871131 #
straight-curve $-1 0 -26.087024596665934 -6.6268064404818334 -1 0 0 I I #
plane-surface $-1 -49.853816339609978 0 0 1 0 0 0 0 -1 forward_v I I I I #
coedge $-1 $610 $596 $696 $697 forward $537 $-1 #
coedge $-1 $598 $597 $606 $658 reversed $477 $-1 #
coedge $-1 $599 $612 $601 $651 reversed $547 $-1 #
vertex $-1 $651 $698 #
straight-curve $-1 -49.853816339609978 -32.187929522462255 5.1268064404818334 0 0 -1 I I #
edge $-1 $649 -3.0504524628981606 $655 3.0504524628981606 $648 $699 forward 7 unknown #
straight-curve $-1 0 -32.187929522462255 3.6268064404818334 -1 0 0 I I #
coedge $-1 $696 $603 $612 $661 forward $594 $-1 #
coedge $-1 $603 $696 $605 $657 reversed $594 $-1 #
vertex $-1 $661 $700 #
straight-curve $-1 0 -26.087024596665934 3.6268064404818334 -1 0 0 I I #
edge $-1 $607 -3.6268064404818334 $667 6.6268064404818334 $605 $701 forward 7 unknown #
edge $-1 $619 -1.5 $608 1.5 $606 $702 forward 7 unknown #
point $-1 49.853816339609978 -26.087024596665934 3.6268064404818334 #
point $-1 49.853816339609978 -32.187929522462255 3.6268064404818334 #
edge $-1 $655 -3.6268064404818334 $662 6.6268064404818334 $612 $703 forward 7 unknown #
vertex $-1 $613 $704 #
straight-curve $-1 -49.853816339609978 0 -6.6268064404818334 0 1 0 I I #
straight-curve $-1 0 -32.187929522462255 6.6268064404818334 1 0 0 I I #
point $-1 -49.853816339609978 -32.187929522462255 6.6268064404818334 #
point $-1 49.853816339609978 -32.187929522462255 6.6268064404818334 #
vertex $-1 $657 $705 #
straight-curve $-1 49.853816339609978 0 -6.6268064404818334 0 -1 0 I I #
plane-surface $-1 49.853816339609978 0 0 -1 0 0 0 0 1 forward_v I I I I #
face $-1 $694 $706 $19 $-1 $707 reversed single #
loop $-1 $-1 $708 $624 #
plane-surface $-1 0 0 -6.6268064404818334 0 0 1 1 0 0 forward_v I I I I #
coedge $-1 $709 $710 $693 $711 forward $625 $-1 #
coedge $-1 $712 $627 $709 $713 forward $565 $-1 #
coedge $-1 $627 $712 $714 $715 reversed $565 $-1 #
coedge $-1 $716 $717 $627 $677 reversed $689 $-1 #
edge $-1 $718 -3.0504524628981606 $719 3.0504524628981606 $676 $720 forward 7 unknown #
coedge $-1 $708 $721 $628 $679 forward $671 $-1 #
edge $-1 $681 -49.853816339609978 $690 49.853816339609978 $628 $722 forward 7 unknown #
coedge $-1 $723 $629 $721 $724 reversed $640 $-1 #
vertex $-1 $679 $725 #
straight-curve $-1 -49.853816339609978 26.087024596665934 0 0 0 -1 I I #
straight-curve $-1 -20.109876545853385 20.261179197575466 6.6268064404818325 -1 0 0 I I #
coedge $-1 $634 $633 $710 $726 forward $496 $-1 #
edge $-1 $641 -20.261179197575466 $727 32.187929522462255 $639 $728 forward 7 unknown #
coedge $-1 $717 $635 $634 $687 reversed $689 $-1 #
edge $-1 $729 -32.187929522462255 $637 26.087024596665934 $686 $730 forward 7 unknown #
coedge $-1 $635 $716 $708 $731 reversed $689 $-1 #
loop $-1 $-1 $716 $732 #
vertex $-1 $731 $733 #
straight-curve $-1 49.853816339609978 26.087024596665934 0 0 0 -1 I I #
point $-1 49.853816339609978 26.087024596665934 6.6268064404818334 #
coedge $-1 $639 $734 $673 $711 reversed $640 $-1 #
face $-1 $732 $640 $19 $-1 $735 reversed single #
point $-1 -49.853816339609978 20.261179197575466 6.6268064404818325 #
coedge $-1 $654 $653 $646 $697 reversed $594 $-1 #
edge $-1 $667 -49.853816339609978 $662 49.853816339609978 $696 $736 forward 7 unknown #
point $-1 -49.853816339609978 -32.187929522462255 3.6268064404818334 #
straight-curve $-1 -49.853816339609978 -29.137477059564095 3.6268064404818334 0 1 0 I I #
point $-1 -49.853816339609978 -26.087024596665934 3.6268064404818334 #
straight-curve $-1 49.853816339609978 -26.087024596665934 0 0 0 -1 I I #
straight-curve $-1 49.853816339609978 -32.187929522462255 5.1268064404818334 0 0 -1 I I #
straight-curve $-1 -49.853816339609978 -26.087024596665934 0 0 0 -1 I I #
point $-1 -49.853816339609978 -26.087024596665934 -6.6268064404818334 #
point $-1 49.853816339609978 -26.087024596665934 -6.6268064404818334 #
loop $-1 $-1 $714 $670 #
plane-surface $-1 0 -26.087024596665934 0 0 1 0 0 0 1 forward_v I I I I #
coedge $-1 $737 $678 $688 $731 forward $671 $-1 #
coedge $-1 $738 $673 $674 $713 reversed $625 $-1 #
coedge $-1 $673 $738 $684 $726 reversed $625 $-1 #
edge $-1 $727 -1.5 $739 1.5 $693 $740 forward 7 unknown #
coedge $-1 $675 $674 $734 $741 forward $565 $-1 #
edge $-1 $719 -49.853816339609978 $739 49.853816339609978 $709 $742 forward 7 unknown #
coedge $-1 $743 $744 $675 $715 forward $706 $-1 #
edge $-1 $718 -49.853816339609978 $745 49.853816339609978 $714 $746 forward 7 unknown #
coedge $-1 $688 $676 $744 $747 forward $689 $-1 #
coedge $-1 $676 $686 $738 $748 forward $689 $-1 #
vertex $-1 $747 $749 #
vertex $-1 $748 $750 #
straight-curve $-1 49.853816339609978 -29.137477059564095 3.6268064404818334 0 -1 0 I I #
coedge $-1 $678 $737 $680 $724 forward $671 $-1 #
straight-curve $-1 0 26.087024596665934 -6.6268064404818334 1 0 0 I I #
coedge $-1 $734 $680 $743 $751 reversed $640 $-1 #
edge $-1 $752 -26.087024596665934 $681 26.087024596665934 $680 $753 forward 7 unknown #
point $-1 -49.853816339609978 26.087024596665934 -6.6268064404818334 #
edge $-1 $727 -49.853816339609978 $729 49.853816339609978 $710 $754 forward 7 unknown #
vertex $-1 $685 $755 #
straight-curve $-1 -49.853816339609978 0 6.6268064404818334 0 -1 0 I I #
vertex $-1 $687 $756 #
straight-curve $-1 49.853816339609978 0 6.6268064404818334 0 1 0 I I #
edge $-1 $690 -26.087024596665934 $757 26.087024596665934 $688 $758 forward 7 unknown #
face $-1 $-1 $689 $19 $-1 $759 reversed single #
point $-1 49.853816339609978 26.087024596665934 -6.6268064404818334 #
coedge $-1 $693 $723 $712 $741 reversed $640 $-1 #
plane-surface $-1 -49.853816339609978 0 0 1 0 0 0 0 -1 forward_v I I I I #
straight-curve $-1 0 -26.087024596665934 -6.6268064404818334 -1 0 0 I I #
coedge $-1 $721 $708 $760 $761 forward $671 $-1 #
coedge $-1 $710 $709 $717 $748 reversed $625 $-1 #
vertex $-1 $741 $762 #
straight-curve $-1 -49.853816339609978 -32.187929522462255 5.1268064404818334 0 0 -1 I I #
edge $-1 $739 -3.0504524628981606 $745 3.0504524628981606 $734 $763 forward 7 unknown #
straight-curve $-1 0 -32.187929522462255 3.6268064404818334 -1 0 0 I I #
coedge $-1 $760 $714 $723 $751 forward $706 $-1 #
coedge $-1 $714 $760 $716 $747 reversed $706 $-1 #
vertex $-1 $751 $764 #
straight-curve $-1 0 -26.087024596665934 3.6268064404818334 -1 0 0 I I #
edge $-1 $718 -3.6268064404818334 $757 6.6268064404818334 $716 $765 forward 7 unknown #
edge $-1 $729 -1.5 $719 1.5 $717 $766 forward 7 unknown #
point $-1 49.853816339609978 -26.087024596665934 3.6268064404818334 #
point $-1 49.853816339609978 -32.187929522462255 3.6268064404818334 #
edge $-1 $745 -3.6268064404818334 $752 6.6268064404818334 $723 $767 forward 7 unknown #
vertex $-1 $724 $768 #
straight-curve $-1 -49.853816339609978 0 -6.6268064404818334 0 1 0 I I #
straight-curve $-1 0 -32.187929522462255 6.6268064404818334 1 0 0 I I #
point $-1 -49.853816339609978 -32.187929522462255 6.6268064404818334 #
point $-1 49.853816339609978 -32.187929522462255 6.6268064404818334 #
vertex $-1 $747 $769 #
straight-curve $-1 49.853816339609978 0 -6.6268064404818334 0 -1 0 I I #
plane-surface $-1 49.853816339609978 0 0 -1 0 0 0 0 1 forward_v I I I I #
coedge $-1 $744 $743 $737 $761 reversed $706 $-1 #
edge $-1 $757 -49.853816339609978 $752 49.853816339609978 $760 $770 forward 7 unknown #
point $-1 -49.853816339609978 -32.187929522462255 3.6268064404818334 #
straight-curve $-1 -49.853816339609978 -29.137477059564095 3.6268064404818334 0 1 0 I I #
point $-1 -49.853816339609978 -26.087024596665934 3.6268064404818334 #
straight-curve $-1 49.853816339609978 -26.087024596665934 0 0 0 -1 I I #
straight-curve $-1 49.853816339609978 -32.187929522462255 5.1268064404818334 0 0 -1 I I #
straight-curve $-1 -49.853816339609978 -26.087024596665934 0 0 0 -1 I I #
point $-1 -49.853816339609978 -26.087024596665934 -6.6268064404818334 #
point $-1 49.853816339609978 -26.087024596665934 -6.6268064404818334 #
straight-curve $-1 0 -26.087024596665934 -6.6268064404818334 -1 0 0 I I #
End-of-ACIS-data 