500 0 4 0           
7 Unknown 11 ACIS 5.0 NT 24 Fri Mar 26 17:34:35 1999 
-1 9.9999999999999995e-007 1e-010 
body $-1 $4 $-1 $5 #
body $-1 $6 $-1 $7 #
body $-1 $8 $-1 $9 #
body $-1 $10 $-1 $11 #
lump $-1 $-1 $12 $0 #
transform $-1 1 0 0 0 1 0 0 0 1 61.986754966887418 31.060156024363877 10.553552265915561 1 rotate no_reflect no_shear #
lump $-1 $-1 $13 $1 #
transform $-1 1 0 0 0 1 0 0 0 1 61.986754966887418 31.060156024363877 10.553552265915561 1 rotate no_reflect no_shear #
lump $-1 $-1 $14 $2 #
transform $-1 1 0 0 0 1 0 0 0 1 61.986754966887418 31.060156024363877 10.553552265915561 1 rotate no_reflect no_shear #
lump $-1 $-1 $15 $3 #
transform $-1 1 0 0 0 1 0 0 0 1 61.986754966887418 31.060156024363877 10.553552265915561 1 rotate no_reflect no_shear #
shell $-1 $-1 $-1 $16 $-1 $4 #
shell $-1 $-1 $-1 $17 $-1 $6 #
shell $-1 $-1 $-1 $18 $-1 $8 #
shell $-1 $-1 $-1 $19 $-1 $10 #
face $-1 $20 $21 $12 $-1 $22 forward single #
face $-1 $23 $24 $13 $-1 $25 reversed single #
face $-1 $26 $27 $14 $-1 $28 reversed single #
face $-1 $29 $30 $15 $-1 $31 forward single #
face $-1 $32 $33 $12 $-1 $34 reversed single #
loop $-1 $-1 $35 $16 #
plane-surface $-1 0 0 10.553552265915561 0 0 1 1 0 0 forward_v I I I I #
face $-1 $36 $37 $13 $-1 $38 reversed single #
loop $-1 $-1 $39 $17 #
plane-surface $-1 -56.22626818190038 0 4.9035835608420433 0 0 1 1 0 0 forward_v I I I I #
face $-1 $40 $41 $14 $-1 $42 reversed single #
loop $-1 $-1 $43 $18 #
plane-surface $-1 83.353502263073835 23.532139362600574 177.20930478495137 0 -1 0 -0.78801076186113728 0 -0.61566146476048833 forward_v I I I I #
face $-1 $44 $45 $15 $-1 $46 forward single #
loop $-1 $47 $48 $19 #
cone-surface $-1 58.618589626193049 18.002318744315971 6.4878802046337238 -0.78801076186113728 0 -0.61566146476048833 0.61566146476048833 0 -0.78801076186113728 1 I I 0 1 1 forward I I I I #
face $-1 $49 $50 $12 $-1 $51 reversed single #
loop $-1 $-1 $52 $20 #
plane-surface $-1 0 0 -10.553552265915561 0 0 1 1 0 0 forward_v I I I I #
coedge $-1 $53 $54 $55 $56 forward $21 $-1 #
face $-1 $57 $58 $13 $-1 $59 reversed single #
loop $-1 $-1 $60 $23 #
plane-surface $-1 -50.465781396913343 0 7.7285679133788019 -1 0 0 0 0 1 forward_v I I I I #
coedge $-1 $61 $62 $63 $64 forward $24 $-1 #
face $-1 $65 $66 $14 $-1 $67 reversed single #
loop $-1 $-1 $68 $26 #
plane-surface $-1 -14.338957750439349 18.002318744315971 100.8835920676246 0.78801076186113728 0 0.61566146476048833 0.61566146476048833 0 -0.78801076186113728 forward_v I I I I #
coedge $-1 $69 $70 $71 $72 reversed $27 $-1 #
face $-1 $-1 $73 $15 $-1 $74 forward single #
loop $-1 $75 $76 $29 #
cone-surface $-1 57.732495368978334 18.002318744315971 5.7955875168737041 -0.78801076186113728 0 -0.61566146476048833 0.30783073238024417 0 -0.39400538093056864 1 I I -0.70710678118654746 0.70710678118654746 0.5 forward I I I I #
loop $-1 $-1 $77 $19 #
coedge $-1 $48 $48 $78 $79 reversed $30 $-1 #
face $-1 $80 $81 $12 $-1 $82 reversed single #
loop $-1 $-1 $83 $32 #
plane-surface $-1 0 -31.060156024363877 0 0 1 0 0 0 1 forward_v I I I I #
coedge $-1 $84 $85 $86 $87 forward $33 $-1 #
coedge $-1 $88 $35 $89 $90 forward $21 $-1 #
coedge $-1 $35 $88 $91 $92 forward $21 $-1 #
coedge $-1 $93 $94 $35 $56 reversed $95 $-1 #
edge $-1 $96 -31.060156024363877 $97 31.060156024363877 $55 $98 forward 7 unknown #
face $-1 $99 $100 $13 $-1 $101 reversed single #
loop $-1 $-1 $102 $36 #
plane-surface $-1 0 31.060156024363877 0 0 -1 0 0 0 -1 forward_v I I I I #
coedge $-1 $63 $103 $104 $105 reversed $37 $-1 #
coedge $-1 $106 $39 $107 $108 reversed $24 $-1 #
coedge $-1 $39 $106 $109 $110 reversed $24 $-1 #
coedge $-1 $111 $60 $39 $64 reversed $37 $-1 #
edge $-1 $112 -31.060156024363877 $113 31.060156024363877 $63 $114 forward 7 unknown #
face $-1 $115 $116 $14 $-1 $117 forward single #
loop $-1 $-1 $118 $40 #
plane-surface $-1 83.353502263073835 12.472498126031368 177.20930478495137 0 1 0 0.78801076186113728 0 0.61566146476048833 forward_v I I I I #
coedge $-1 $119 $120 $121 $122 reversed $41 $-1 #
coedge $-1 $70 $43 $123 $124 reversed $27 $-1 #
coedge $-1 $43 $69 $119 $125 reversed $27 $-1 #
coedge $-1 $121 $126 $43 $72 forward $116 $-1 #
edge $-1 $127 -20.3100038353505 $128 -14.557850906530078 $71 $129 forward 7 unknown #
loop $-1 $-1 $78 $44 #
plane-surface $-1 -14.338957750439349 18.002318744315971 100.8835920676246 0.78801076186113728 0 0.61566146476048833 0.61566146476048833 0 -0.78801076186113728 forward_v I I I I #
loop $-1 $-1 $130 $29 #
coedge $-1 $76 $76 $77 $131 reversed $45 $-1 #
coedge $-1 $77 $77 $76 $131 forward $47 $-1 #
coedge $-1 $78 $78 $48 $79 forward $73 $-1 #
edge $-1 $132 0 $132 6.2831853071796004 $78 $133 forward 7 unknown #
face $-1 $134 $135 $12 $-1 $136 reversed single #
loop $-1 $-1 $137 $49 #
plane-surface $-1 -61.986754966887418 0 0 1 0 0 0 0 -1 forward_v I I I I #
coedge $-1 $138 $91 $139 $140 forward $50 $-1 #
coedge $-1 $141 $52 $138 $142 forward $33 $-1 #
coedge $-1 $52 $141 $143 $144 forward $33 $-1 #
coedge $-1 $94 $93 $52 $87 reversed $95 $-1 #
edge $-1 $145 -31.060156024363877 $146 31.060156024363877 $86 $147 forward 7 unknown #
coedge $-1 $54 $53 $148 $149 forward $21 $-1 #
coedge $-1 $150 $151 $53 $90 reversed $135 $-1 #
edge $-1 $97 -61.986754966887418 $152 61.986754966887418 $89 $153 forward 7 unknown #
coedge $-1 $83 $154 $54 $92 reversed $50 $-1 #
edge $-1 $155 -61.986754966887418 $96 61.986754966887418 $91 $156 forward 7 unknown #
coedge $-1 $86 $55 $154 $157 forward $95 $-1 #
coedge $-1 $55 $86 $150 $158 reversed $95 $-1 #
loop $-1 $-1 $93 $134 #
vertex $-1 $56 $159 #
vertex $-1 $56 $160 #
straight-curve $-1 61.986754966887418 0 10.553552265915561 0 1 0 I I #
face $-1 $161 $162 $13 $-1 $163 forward single #
loop $-1 $-1 $164 $57 #
plane-surface $-1 -61.986754966887418 0 0 1 0 0 0 0 -1 forward_v I I I I #
coedge $-1 $109 $165 $111 $166 forward $58 $-1 #
coedge $-1 $60 $111 $167 $168 reversed $37 $-1 #
coedge $-1 $169 $107 $60 $105 forward $170 $-1 #
edge $-1 $113 1.0392996041526423 $171 6.6892683092261587 $104 $172 forward 7 unknown #
coedge $-1 $62 $61 $164 $173 reversed $24 $-1 #
coedge $-1 $104 $174 $61 $108 forward $170 $-1 #
edge $-1 $175 -33.873620875937227 $113 -22.352647305963153 $107 $176 forward 7 unknown #
coedge $-1 $177 $102 $62 $110 forward $58 $-1 #
edge $-1 $112 22.352647305963153 $178 33.873620875937227 $109 $179 forward 7 unknown #
coedge $-1 $103 $63 $102 $166 reversed $37 $-1 #
vertex $-1 $110 $180 #
vertex $-1 $108 $181 #
straight-curve $-1 -50.465781396913343 0 4.9035835608420433 0 -1 0 I I #
face $-1 $-1 $182 $14 $-1 $183 reversed single #
loop $-1 $-1 $71 $65 #
plane-surface $-1 0 0 10.553552265915561 0 0 1 1 0 0 forward_v I I I I #
coedge $-1 $184 $185 $186 $187 reversed $66 $-1 #
coedge $-1 $188 $68 $70 $125 forward $41 $-1 #
coedge $-1 $68 $188 $184 $189 forward $41 $-1 #
coedge $-1 $186 $71 $68 $122 forward $116 $-1 #
edge $-1 $128 -14.530979990442589 $190 -3.4713387538733826 $121 $191 forward 7 unknown #
coedge $-1 $192 $193 $69 $124 forward $182 $-1 #
edge $-1 $194 -85.413520338364265 $127 -78.051100126560129 $123 $195 forward 7 unknown #
edge $-1 $128 114.63046467584532 $194 123.97350993377485 $70 $196 forward 7 unknown #
coedge $-1 $71 $186 $192 $197 forward $116 $-1 #
vertex $-1 $124 $198 #
vertex $-1 $72 $199 #
straight-curve $-1 41.676751131536918 23.532139362600574 10.553552265915556 -1 0 0 I I #
coedge $-1 $130 $130 $-1 $200 reversed $75 $-1 #
edge $-1 $201 0 $201 6.2831853071796004 $76 $202 forward 7 unknown #
vertex $-1 $79 $203 #
ellipse-curve $-1 59.110678502477207 18.002318744315971 6.8723421600135062 0.78801076186113728 0 0.61566146476048833 0.61566146476048833 0 -0.78801076186113728 1 I I #
face $-1 $-1 $95 $12 $-1 $204 reversed single #
loop $-1 $-1 $150 $80 #
plane-surface $-1 0 31.060156024363877 0 0 -1 0 0 0 -1 forward_v I I I I #
coedge $-1 $205 $148 $151 $206 forward $81 $-1 #
coedge $-1 $154 $83 $84 $142 reversed $50 $-1 #
coedge $-1 $148 $205 $83 $140 reversed $81 $-1 #
edge $-1 $155 -10.553552265915561 $207 10.553552265915561 $139 $208 forward 7 unknown #
coedge $-1 $85 $84 $205 $209 forward $33 $-1 #
edge $-1 $146 -61.986754966887418 $207 61.986754966887418 $138 $210 forward 7 unknown #
coedge $-1 $151 $150 $85 $144 reversed $135 $-1 #
edge $-1 $211 -61.986754966887418 $145 61.986754966887418 $143 $212 forward 7 unknown #
vertex $-1 $87 $213 #
vertex $-1 $157 $214 #
straight-curve $-1 61.986754966887418 0 -10.553552265915561 0 -1 0 I I #
coedge $-1 $137 $139 $88 $149 reversed $81 $-1 #
edge $-1 $152 -31.060156024363877 $155 31.060156024363877 $148 $215 forward 7 unknown #
coedge $-1 $143 $89 $94 $158 forward $135 $-1 #
coedge $-1 $89 $143 $137 $206 reversed $135 $-1 #
vertex $-1 $90 $216 #
straight-curve $-1 0 31.060156024363877 10.553552265915561 -1 0 0 I I #
coedge $-1 $91 $138 $93 $157 reversed $50 $-1 #
vertex $-1 $149 $217 #
straight-curve $-1 0 -31.060156024363877 10.553552265915561 1 0 0 I I #
edge $-1 $96 -10.553552265915561 $146 10.553552265915561 $93 $218 forward 7 unknown #
edge $-1 $97 -10.553552265915561 $145 10.553552265915561 $94 $219 forward 7 unknown #
point $-1 61.986754966887418 -31.060156024363877 10.553552265915561 #
point $-1 61.986754966887418 31.060156024363877 10.553552265915561 #
face $-1 $-1 $170 $13 $-1 $220 reversed single #
loop $-1 $-1 $167 $99 #
plane-surface $-1 0 0 10.553552265915561 0 0 1 1 0 0 forward_v I I I I #
coedge $-1 $221 $222 $106 $173 forward $100 $-1 #
coedge $-1 $102 $177 $223 $224 reversed $58 $-1 #
edge $-1 $225 -6.6892683092261587 $112 -1.0392996041526423 $102 $226 forward 7 unknown #
coedge $-1 $223 $227 $103 $168 forward $162 $-1 #
edge $-1 $171 -31.060156024363877 $225 31.060156024363877 $167 $228 forward 7 unknown #
coedge $-1 $174 $104 $227 $229 reversed $170 $-1 #
loop $-1 $-1 $104 $161 #
vertex $-1 $105 $230 #
straight-curve $-1 -50.465781396913343 -31.060156024363877 3.8642839566894009 0 0 1 I I #
edge $-1 $178 -31.060156024363877 $175 31.060156024363877 $164 $231 forward 7 unknown #
coedge $-1 $107 $169 $221 $232 forward $170 $-1 #
vertex $-1 $173 $233 #
straight-curve $-1 -28.11313409095019 -31.060156024363877 4.9035835608420433 1 0 0 I I #
coedge $-1 $165 $109 $222 $234 reversed $58 $-1 #
vertex $-1 $173 $235 #
straight-curve $-1 -28.11313409095019 31.060156024363877 4.9035835608420433 -1 0 0 I I #
point $-1 -50.465781396913343 31.060156024363877 4.9035835608420433 #
point $-1 -50.465781396913343 -31.060156024363877 4.9035835608420433 #
loop $-1 $-1 $123 $115 #
plane-surface $-1 61.986754966887418 0 0 -1 0 0 0 0 1 forward_v I I I I #
coedge $-1 $185 $118 $120 $189 reversed $66 $-1 #
coedge $-1 $118 $184 $236 $237 reversed $66 $-1 #
coedge $-1 $126 $121 $118 $187 forward $116 $-1 #
edge $-1 $190 14.557850906530078 $238 20.3100038353505 $186 $239 forward 7 unknown #
coedge $-1 $120 $119 $193 $240 reversed $41 $-1 #
edge $-1 $241 -123.97350993377485 $190 -114.63046467584532 $184 $242 forward 7 unknown #
vertex $-1 $122 $243 #
straight-curve $-1 56.234602038066996 9.0011593721579857 10.553552265915563 0 -1 0 I I #
coedge $-1 $236 $123 $126 $197 reversed $182 $-1 #
coedge $-1 $123 $236 $188 $240 forward $182 $-1 #
vertex $-1 $124 $244 #
straight-curve $-1 61.986754966887418 23.532139362600574 88.604652392475685 0 0 1 I I #
straight-curve $-1 -14.338957750439349 23.532139362600574 100.8835920676246 0.61566146476048833 0 -0.78801076186113728 I I #
edge $-1 $238 12.472498126031368 $127 23.532139362600574 $192 $245 forward 7 unknown #
point $-1 61.986754966887418 23.532139362600574 10.553552265915561 #
point $-1 56.234602038066996 23.532139362600574 10.553552265915556 #
edge $-1 $246 1 $246 0 $130 $-1 forward 7 unknown #
vertex $-1 $131 $247 #
ellipse-curve $-1 58.126500749908899 18.002318744315971 6.1034182492539486 0.78801076186113728 0 0.61566146476048833 0.61566146476048833 0 -0.78801076186113728 1 I I #
point $-1 59.726339967237685 18.002318744315971 6.0843313981523623 #
plane-surface $-1 61.986754966887418 0 0 -1 0 0 0 0 1 forward_v I I I I #
coedge $-1 $139 $137 $141 $209 reversed $81 $-1 #
edge $-1 $152 -10.553552265915561 $211 10.553552265915561 $151 $248 forward 7 unknown #
vertex $-1 $209 $249 #
straight-curve $-1 -61.986754966887418 -31.060156024363877 0 0 0 -1 I I #
edge $-1 $207 -31.060156024363877 $211 31.060156024363877 $205 $250 forward 7 unknown #
straight-curve $-1 0 -31.060156024363877 -10.553552265915561 -1 0 0 I I #
vertex $-1 $144 $251 #
straight-curve $-1 0 31.060156024363877 -10.553552265915561 1 0 0 I I #
point $-1 61.986754966887418 31.060156024363877 -10.553552265915561 #
point $-1 61.986754966887418 -31.060156024363877 -10.553552265915561 #
straight-curve $-1 -61.986754966887418 0 10.553552265915561 0 -1 0 I I #
point $-1 -61.986754966887418 31.060156024363877 10.553552265915561 #
point $-1 -61.986754966887418 -31.060156024363877 10.553552265915561 #
straight-curve $-1 61.986754966887418 -31.060156024363877 0 0 0 -1 I I #
straight-curve $-1 61.986754966887418 31.060156024363877 0 0 0 -1 I I #
plane-surface $-1 0 -31.060156024363877 0 0 1 0 0 0 1 forward_v I I I I #
coedge $-1 $252 $164 $174 $232 reversed $100 $-1 #
coedge $-1 $164 $252 $177 $234 forward $100 $-1 #
coedge $-1 $253 $167 $165 $224 forward $162 $-1 #
edge $-1 $225 50.465781396913343 $254 61.986754966887418 $165 $255 forward 7 unknown #
vertex $-1 $224 $256 #
straight-curve $-1 -50.465781396913343 31.060156024363877 3.8642839566894009 0 0 -1 I I #
coedge $-1 $167 $253 $169 $229 forward $162 $-1 #
straight-curve $-1 -50.465781396913343 0 10.553552265915561 0 1 0 I I #
edge $-1 $257 -61.986754966887418 $171 -50.465781396913343 $169 $258 forward 7 unknown #
point $-1 -50.465781396913343 -31.060156024363877 10.55355226591556 #
straight-curve $-1 -61.986754966887418 0 4.9035835608420433 0 -1 0 I I #
edge $-1 $257 -10.553552265915561 $175 -4.9035835608420433 $221 $259 forward 7 unknown #
point $-1 -61.986754966887418 -31.060156024363877 4.9035835608420433 #
edge $-1 $254 -10.553552265915561 $178 -4.9035835608420433 $177 $260 forward 7 unknown #
point $-1 -61.986754966887418 31.060156024363877 4.9035835608420433 #
coedge $-1 $193 $192 $185 $237 forward $182 $-1 #
edge $-1 $238 78.051100126560129 $241 85.413520338364265 $236 $261 forward 7 unknown #
vertex $-1 $197 $262 #
straight-curve $-1 41.676751131536918 12.472498126031368 10.553552265915556 1 0 0 I I #
edge $-1 $241 3.4713387538733826 $194 14.530979990442589 $193 $263 forward 7 unknown #
vertex $-1 $240 $264 #
straight-curve $-1 -14.338957750439349 12.472498126031368 100.8835920676246 -0.61566146476048833 0 0.78801076186113728 I I #
point $-1 56.234602038066996 12.472498126031368 10.553552265915556 #
point $-1 61.986754966887418 23.532139362600574 3.1911320541114208 #
straight-curve $-1 61.986754966887418 0 10.553552265915561 0 1 0 I I #
vertex $-1 $200 $265 #
point $-1 58.742162214669392 18.002318744315971 5.315407487392811 #
straight-curve $-1 -61.986754966887418 31.060156024363877 0 0 0 -1 I I #
point $-1 -61.986754966887418 -31.060156024363877 -10.553552265915561 #
straight-curve $-1 -61.986754966887418 0 -10.553552265915561 0 1 0 I I #
point $-1 -61.986754966887418 31.060156024363877 -10.553552265915561 #
coedge $-1 $222 $221 $253 $266 reversed $100 $-1 #
coedge $-1 $227 $223 $252 $266 forward $162 $-1 #
vertex $-1 $224 $267 #
straight-curve $-1 0 31.060156024363877 10.553552265915561 -1 0 0 I I #
point $-1 -50.465781396913343 31.060156024363877 10.55355226591556 #
vertex $-1 $266 $268 #
straight-curve $-1 0 -31.060156024363877 10.553552265915561 1 0 0 I I #
straight-curve $-1 -61.986754966887418 -31.060156024363877 0 0 0 -1 I I #
straight-curve $-1 -61.986754966887418 31.060156024363877 0 0 0 -1 I I #
straight-curve $-1 61.986754966887418 12.472498126031368 88.604652392475685 0 0 -1 I I #
point $-1 61.986754966887418 12.472498126031368 10.553552265915561 #
straight-curve $-1 61.986754966887418 9.0011593721579857 3.1911320541114137 0 1 0 I I #
point $-1 61.986754966887418 12.472498126031368 3.1911320541114208 #
point $-1 57.338489988047769 18.002318744315971 5.4877567844934596 #
edge $-1 $254 -31.060156024363877 $257 31.060156024363877 $252 $269 forward 7 unknown #
point $-1 -61.986754966887418 31.060156024363877 10.553552265915561 #
point $-1 -61.986754966887418 -31.060156024363877 10.553552265915561 #
straight-curve $-1 -61.986754966887418 0 10.553552265915561 0 -1 0 I I #
End-of-ACIS-data 