500 0 10 0           
7 Unknown 11 ACIS 5.0 NT 24 Thu Mar 25 21:17:35 1999 
-1 9.9999999999999995e-007 1e-010 
body $-1 $10 $-1 $11 #
body $-1 $12 $-1 $13 #
body $-1 $14 $-1 $15 #
body $-1 $16 $-1 $17 #
body $-1 $18 $-1 $19 #
body $-1 $20 $-1 $21 #
body $-1 $22 $-1 $23 #
body $-1 $24 $-1 $25 #
body $-1 $26 $-1 $27 #
body $-1 $28 $-1 $29 #
lump $-1 $-1 $30 $0 #
transform $-1 1 0 0 0 1 0 0 0 1 41.721243934446242 19.597283296250573 5.3130425782721025 1 rotate no_reflect no_shear #
lump $-1 $-1 $31 $1 #
transform $-1 1 0 0 0 1 0 0 0 1 41.721243934446242 19.597283296250573 5.3130425782721025 1 rotate no_reflect no_shear #
lump $-1 $-1 $32 $2 #
transform $-1 1 0 0 0 1 0 0 0 1 41.721243934446242 19.597283296250573 5.3130425782721025 1 rotate no_reflect no_shear #
lump $-1 $-1 $33 $3 #
transform $-1 1 0 0 0 1 0 0 0 1 41.721243934446242 19.597283296250573 5.3130425782721025 1 rotate no_reflect no_shear #
lump $-1 $-1 $34 $4 #
transform $-1 1 0 0 0 1 0 0 0 1 41.721243934446242 19.597283296250573 5.3130425782721025 1 rotate no_reflect no_shear #
lump $-1 $-1 $35 $5 #
transform $-1 1 0 0 0 1 0 0 0 1 41.721243934446242 19.597283296250573 5.3130425782721025 1 rotate no_reflect no_shear #
lump $-1 $-1 $36 $6 #
transform $-1 1 0 0 0 1 0 0 0 1 41.721243934446242 19.597283296250573 5.3130425782721025 1 rotate no_reflect no_shear #
lump $-1 $-1 $37 $7 #
transform $-1 1 0 0 0 1 0 0 0 1 41.721243934446242 19.597283296250573 5.3130425782721025 1 rotate no_reflect no_shear #
lump $-1 $-1 $38 $8 #
transform $-1 1 0 0 0 1 0 0 0 1 41.721243934446242 19.597283296250573 5.3130425782721025 1 rotate no_reflect no_shear #
lump $-1 $-1 $39 $9 #
transform $-1 1 0 0 0 1 0 0 0 1 41.721243934446242 19.597283296250573 5.3130425782721025 1 rotate no_reflect no_shear #
shell $-1 $-1 $-1 $40 $-1 $10 #
shell $-1 $-1 $-1 $41 $-1 $12 #
shell $-1 $-1 $-1 $42 $-1 $14 #
shell $-1 $-1 $-1 $43 $-1 $16 #
shell $-1 $-1 $-1 $44 $-1 $18 #
shell $-1 $-1 $-1 $45 $-1 $20 #
shell $-1 $-1 $-1 $46 $-1 $22 #
shell $-1 $-1 $-1 $47 $-1 $24 #
shell $-1 $-1 $-1 $48 $-1 $26 #
shell $-1 $-1 $-1 $49 $-1 $28 #
face $-1 $50 $51 $30 $-1 $52 forward single #
face $-1 $53 $54 $31 $-1 $55 forward single #
face $-1 $56 $57 $32 $-1 $58 forward single #
face $-1 $59 $60 $33 $-1 $61 reversed single #
face $-1 $62 $63 $34 $-1 $64 forward single #
face $-1 $65 $66 $35 $-1 $67 forward single #
face $-1 $68 $69 $36 $-1 $70 forward single #
face $-1 $71 $72 $37 $-1 $73 reversed single #
face $-1 $74 $75 $38 $-1 $76 forward single #
face $-1 $77 $78 $39 $-1 $79 forward single #
face $-1 $80 $81 $30 $-1 $82 reversed single #
loop $-1 $-1 $83 $40 #
plane-surface $-1 0 0 5.3130425782721025 0 0 1 1 0 0 forward_v I I I I #
face $-1 $84 $85 $31 $-1 $86 reversed single #
loop $-1 $-1 $87 $41 #
plane-surface $-1 0 -19.597283296250573 0 0 1 0 0 0 1 forward_v I I I I #
face $-1 $88 $89 $32 $-1 $90 reversed single #
loop $-1 $-1 $91 $42 #
plane-surface $-1 0 19.597283296250573 0 0 -1 0 0 0 -1 forward_v I I I I #
face $-1 $92 $93 $33 $-1 $94 reversed single #
loop $-1 $-1 $95 $43 #
plane-surface $-1 -110.07332913151578 7.908530350890123 49.428531942464268 0 1 0 -0.81915205242281985 0 0.57357642473473569 forward_v I I I I #
face $-1 $96 $97 $34 $-1 $98 forward single #
loop $-1 $99 $100 $44 #
cone-surface $-1 -39.635391719346472 9.2737154189232882 2.8980428896987949 0.81915205242281985 0 -0.57357642473473569 0.28678821236736785 0 0.40957602621140993 1 I I 0 1 0.5 forward I I I I #
face $-1 $101 $102 $35 $-1 $103 forward single #
loop $-1 $104 $105 $45 #
cone-surface $-1 -39.635391719346472 11.32149302097304 2.8980428896987949 0.81915205242281985 0 -0.57357642473473569 0.28678821236736785 0 0.40957602621140993 1 I I 0 1 0.5 forward I I I I #
face $-1 $106 $107 $36 $-1 $108 forward single #
loop $-1 $109 $110 $46 #
cone-surface $-1 -39.635391719346472 13.369270623022793 2.8980428896987949 0.81915205242281985 0 -0.57357642473473569 0.28678821236736785 0 0.40957602621140993 1 I I 0 1 0.5 forward I I I I #
face $-1 $111 $112 $37 $-1 $113 reversed single #
loop $-1 $-1 $114 $47 #
plane-surface $-1 52.006102278395936 -5.0537133912343792 119.31260458438138 0 -1 0 -0.7660444514056185 0 -0.64278759981090561 forward_v I I I I #
face $-1 $115 $116 $38 $-1 $117 forward single #
loop $-1 $118 $119 $48 #
cone-surface $-1 39.642466093683097 -10.515481753365286 3.0424780599258874 -0.7660444514056185 0 -0.64278759981090561 0.64278759981090561 0 -0.7660444514056185 1 I I 0 1 1 forward I I I I #
face $-1 $120 $121 $39 $-1 $122 forward single #
loop $-1 $123 $124 $49 #
cone-surface $-1 39.642466093683097 -7.2384207360867396 3.0424780599258874 -0.7660444514056185 0 -0.64278759981090561 0.64278759981090561 0 -0.7660444514056185 1 I I 0 1 1 forward I I I I #
face $-1 $125 $126 $30 $-1 $127 reversed single #
loop $-1 $-1 $128 $50 #
plane-surface $-1 0 0 -5.3130425782721025 0 0 1 1 0 0 forward_v I I I I #
coedge $-1 $129 $130 $131 $132 forward $51 $-1 #
face $-1 $133 $134 $31 $-1 $135 forward single #
loop $-1 $-1 $136 $53 #
plane-surface $-1 -41.721243934446242 0 0 1 0 0 0 0 -1 forward_v I I I I #
coedge $-1 $137 $138 $139 $140 forward $54 $-1 #
face $-1 $141 $142 $32 $-1 $143 forward single #
loop $-1 $-1 $144 $56 #
plane-surface $-1 41.721243934446242 0 0 -1 0 0 0 0 1 forward_v I I I I #
coedge $-1 $145 $146 $147 $148 forward $57 $-1 #
face $-1 $149 $150 $33 $-1 $151 reversed single #
loop $-1 $-1 $152 $59 #
plane-surface $-1 -41.72124393444625 11.321493020973044 1.5678880796533647 -0.81915205242281985 0 0.57357642473473569 0.57357642473473569 0 0.81915205242281985 forward_v I I I I #
coedge $-1 $153 $154 $155 $156 reversed $60 $-1 #
face $-1 $-1 $157 $34 $-1 $158 forward single #
loop $-1 $159 $160 $62 #
cone-surface $-1 -38.65594415741301 9.2737154189232882 2.2122263442511736 0.81915205242281985 0 -0.57357642473473569 0.14339410618368392 0 0.20478801310570496 1 I I -0.70710678118654746 0.70710678118654746 0.25 forward I I I I #
loop $-1 $-1 $161 $44 #
coedge $-1 $100 $100 $162 $163 reversed $63 $-1 #
face $-1 $-1 $164 $35 $-1 $165 forward single #
loop $-1 $166 $167 $65 #
cone-surface $-1 -38.65594415741301 11.32149302097304 2.2122263442511736 0.81915205242281985 0 -0.57357642473473569 0.14339410618368392 0 0.20478801310570496 1 I I -0.70710678118654746 0.70710678118654746 0.25 forward I I I I #
loop $-1 $-1 $168 $45 #
coedge $-1 $105 $105 $169 $170 reversed $66 $-1 #
face $-1 $-1 $171 $36 $-1 $172 forward single #
loop $-1 $173 $174 $68 #
cone-surface $-1 -38.65594415741301 13.369270623022793 2.2122263442511736 0.81915205242281985 0 -0.57357642473473569 0.14339410618368392 0 0.20478801310570496 1 I I -0.70710678118654746 0.70710678118654746 0.25 forward I I I I #
loop $-1 $-1 $175 $46 #
coedge $-1 $110 $110 $176 $177 reversed $69 $-1 #
face $-1 $178 $179 $37 $-1 $180 reversed single #
loop $-1 $-1 $181 $71 #
plane-surface $-1 -11.914552565049782 -8.8769512447260155 65.676808084885366 0.7660444514056185 0 0.64278759981090561 0.64278759981090561 0 -0.7660444514056185 forward_v I I I I #
coedge $-1 $182 $183 $184 $185 reversed $72 $-1 #
face $-1 $-1 $186 $38 $-1 $187 forward single #
loop $-1 $188 $189 $74 #
cone-surface $-1 38.672958253484389 -10.515481753365286 2.2289644100904349 -0.7660444514056185 0 -0.64278759981090561 0.3213937999054528 0 -0.38302222570280925 1 I I -0.70710678118654746 0.70710678118654746 0.5 forward I I I I #
loop $-1 $-1 $190 $48 #
coedge $-1 $119 $119 $191 $192 reversed $75 $-1 #
face $-1 $-1 $193 $39 $-1 $194 forward single #
loop $-1 $195 $196 $77 #
cone-surface $-1 38.672958253484389 -7.2384207360867396 2.2289644100904349 -0.7660444514056185 0 -0.64278759981090561 0.3213937999054528 0 -0.38302222570280925 1 I I -0.70710678118654746 0.70710678118654746 0.5 forward I I I I #
loop $-1 $-1 $197 $49 #
coedge $-1 $124 $124 $198 $199 reversed $78 $-1 #
face $-1 $200 $201 $30 $-1 $202 reversed single #
loop $-1 $-1 $203 $80 #
plane-surface $-1 0 -19.597283296250573 0 0 1 0 0 0 1 forward_v I I I I #
coedge $-1 $204 $205 $206 $207 forward $81 $-1 #
coedge $-1 $208 $83 $209 $210 forward $51 $-1 #
coedge $-1 $83 $208 $211 $212 forward $51 $-1 #
coedge $-1 $213 $214 $83 $132 reversed $215 $-1 #
edge $-1 $216 -19.597283296250573 $217 19.597283296250573 $131 $218 forward 7 unknown #
face $-1 $219 $220 $31 $-1 $221 reversed single #
loop $-1 $-1 $222 $84 #
plane-surface $-1 0 -22.028697098847879 1.0916633684146611 0 0 1 1 0 0 forward_v I I I I #
coedge $-1 $223 $224 $138 $225 forward $85 $-1 #
coedge $-1 $226 $87 $227 $228 reversed $54 $-1 #
coedge $-1 $87 $226 $136 $225 reversed $54 $-1 #
coedge $-1 $229 $222 $87 $140 reversed $134 $-1 #
edge $-1 $230 -41.721243934446242 $231 41.721243934446242 $139 $232 forward 7 unknown #
face $-1 $233 $234 $32 $-1 $235 reversed single #
loop $-1 $-1 $236 $88 #
plane-surface $-1 0 22.028697098847879 1.0916633684146611 0 0 1 1 0 0 forward_v I I I I #
coedge $-1 $237 $238 $146 $239 forward $89 $-1 #
coedge $-1 $240 $91 $241 $242 reversed $57 $-1 #
coedge $-1 $91 $240 $144 $239 reversed $57 $-1 #
coedge $-1 $236 $243 $91 $148 reversed $142 $-1 #
edge $-1 $244 -41.721243934446242 $245 41.721243934446242 $147 $246 forward 7 unknown #
face $-1 $247 $248 $33 $-1 $249 reversed single #
loop $-1 $-1 $250 $92 #
plane-surface $-1 -110.07332913151578 14.734455691055965 49.428531942464268 0 -1 0 0.81915205242281985 0 -0.57357642473473569 forward_v I I I I #
coedge $-1 $251 $252 $253 $254 reversed $93 $-1 #
coedge $-1 $154 $95 $255 $256 reversed $60 $-1 #
coedge $-1 $95 $153 $251 $257 reversed $60 $-1 #
coedge $-1 $253 $258 $95 $156 forward $259 $-1 #
edge $-1 $260 13.315420631311646 $261 15.937805963855673 $155 $262 forward 7 unknown #
loop $-1 $-1 $162 $96 #
plane-surface $-1 -41.72124393444625 11.321493020973044 1.5678880796533647 -0.81915205242281985 0 0.57357642473473569 0.57357642473473569 0 0.81915205242281985 forward_v I I I I #
loop $-1 $-1 $263 $62 #
coedge $-1 $160 $160 $161 $264 reversed $97 $-1 #
coedge $-1 $161 $161 $160 $264 forward $99 $-1 #
coedge $-1 $162 $162 $100 $163 forward $157 $-1 #
edge $-1 $265 0 $265 6.2831853071796004 $162 $266 forward 7 unknown #
loop $-1 $-1 $169 $101 #
plane-surface $-1 -41.72124393444625 11.321493020973044 1.5678880796533647 -0.81915205242281985 0 0.57357642473473569 0.57357642473473569 0 0.81915205242281985 forward_v I I I I #
loop $-1 $-1 $267 $65 #
coedge $-1 $167 $167 $168 $268 reversed $102 $-1 #
coedge $-1 $168 $168 $167 $268 forward $104 $-1 #
coedge $-1 $169 $169 $105 $170 forward $164 $-1 #
edge $-1 $269 0 $269 6.2831853071796004 $169 $270 forward 7 unknown #
loop $-1 $-1 $176 $106 #
plane-surface $-1 -41.72124393444625 11.321493020973044 1.5678880796533647 -0.81915205242281985 0 0.57357642473473569 0.57357642473473569 0 0.81915205242281985 forward_v I I I I #
loop $-1 $-1 $271 $68 #
coedge $-1 $174 $174 $175 $272 reversed $107 $-1 #
coedge $-1 $175 $175 $174 $272 forward $109 $-1 #
coedge $-1 $176 $176 $110 $177 forward $171 $-1 #
edge $-1 $273 0 $273 6.2831853071796004 $176 $274 forward 7 unknown #
face $-1 $275 $276 $37 $-1 $277 forward single #
loop $-1 $-1 $278 $111 #
plane-surface $-1 52.006102278395936 -12.700189098217653 119.31260458438138 0 1 0 0.7660444514056185 0 0.64278759981090561 forward_v I I I I #
coedge $-1 $279 $280 $281 $282 reversed $112 $-1 #
coedge $-1 $183 $114 $283 $284 reversed $72 $-1 #
coedge $-1 $114 $182 $279 $285 reversed $72 $-1 #
coedge $-1 $281 $286 $114 $185 forward $276 $-1 #
edge $-1 $287 -15.718192795248275 $288 -12.733608342713747 $184 $289 forward 7 unknown #
loop $-1 $-1 $191 $115 #
plane-surface $-1 -11.914552565049782 -8.8769512447260155 65.676808084885366 0.7660444514056185 0 0.64278759981090561 0.64278759981090561 0 -0.7660444514056185 forward_v I I I I #
loop $-1 $-1 $290 $74 #
coedge $-1 $189 $189 $190 $291 reversed $116 $-1 #
coedge $-1 $190 $190 $189 $291 forward $118 $-1 #
coedge $-1 $191 $191 $119 $192 forward $186 $-1 #
edge $-1 $292 0 $292 6.2831853071796004 $191 $293 forward 7 unknown #
loop $-1 $-1 $198 $120 #
plane-surface $-1 -11.914552565049782 -8.8769512447260155 65.676808084885366 0.7660444514056185 0 0.64278759981090561 0.64278759981090561 0 -0.7660444514056185 forward_v I I I I #
loop $-1 $-1 $294 $77 #
coedge $-1 $196 $196 $197 $295 reversed $121 $-1 #
coedge $-1 $197 $197 $196 $295 forward $123 $-1 #
coedge $-1 $198 $198 $124 $199 forward $193 $-1 #
edge $-1 $296 0 $296 6.2831853071796004 $198 $297 forward 7 unknown #
face $-1 $298 $299 $30 $-1 $300 reversed single #
loop $-1 $-1 $301 $125 #
plane-surface $-1 -41.721243934446242 0 0 1 0 0 0 0 -1 forward_v I I I I #
coedge $-1 $302 $211 $303 $304 forward $126 $-1 #
coedge $-1 $305 $128 $302 $306 forward $81 $-1 #
coedge $-1 $128 $305 $307 $308 forward $81 $-1 #
coedge $-1 $214 $213 $128 $207 reversed $215 $-1 #
edge $-1 $309 -19.597283296250573 $310 19.597283296250573 $206 $311 forward 7 unknown #
coedge $-1 $130 $129 $312 $313 forward $51 $-1 #
coedge $-1 $314 $315 $129 $210 reversed $299 $-1 #
edge $-1 $217 -41.721243934446242 $316 41.721243934446242 $209 $317 forward 7 unknown #
coedge $-1 $203 $318 $130 $212 reversed $126 $-1 #
edge $-1 $319 -41.721243934446242 $216 41.721243934446242 $211 $320 forward 7 unknown #
coedge $-1 $206 $131 $318 $321 forward $215 $-1 #
coedge $-1 $131 $206 $314 $322 reversed $215 $-1 #
loop $-1 $-1 $213 $298 #
vertex $-1 $132 $323 #
vertex $-1 $132 $324 #
straight-curve $-1 41.721243934446242 0 5.3130425782721025 0 1 0 I I #
face $-1 $325 $326 $31 $-1 $327 reversed single #
loop $-1 $-1 $328 $133 #
plane-surface $-1 0 -22.028697098847879 -1.9083366315853389 0 0 1 1 0 0 forward_v I I I I #
coedge $-1 $139 $329 $330 $331 forward $134 $-1 #
coedge $-1 $332 $136 $333 $334 reversed $85 $-1 #
coedge $-1 $136 $332 $229 $335 reversed $85 $-1 #
edge $-1 $230 -1.0916633684146611 $336 1.9083366315853389 $136 $337 forward 7 unknown #
coedge $-1 $138 $137 $338 $339 forward $54 $-1 #
coedge $-1 $330 $340 $137 $228 forward $341 $-1 #
edge $-1 $342 -1.9083366315853389 $231 1.0916633684146611 $227 $343 forward 7 unknown #
coedge $-1 $329 $139 $224 $335 forward $134 $-1 #
vertex $-1 $225 $344 #
vertex $-1 $331 $345 #
straight-curve $-1 0 -19.597283296250573 1.0916633684146611 1 0 0 I I #
face $-1 $346 $347 $32 $-1 $348 reversed single #
loop $-1 $-1 $349 $141 #
plane-surface $-1 0 22.028697098847879 -1.9083366315853389 0 0 1 1 0 0 forward_v I I I I #
coedge $-1 $350 $147 $238 $351 forward $142 $-1 #
coedge $-1 $352 $144 $349 $353 reversed $89 $-1 #
coedge $-1 $144 $352 $236 $351 reversed $89 $-1 #
edge $-1 $244 -1.0916633684146611 $354 1.9083366315853389 $144 $355 forward 7 unknown #
coedge $-1 $146 $145 $356 $357 forward $57 $-1 #
coedge $-1 $358 $359 $145 $242 forward $360 $-1 #
edge $-1 $361 -1.9083366315853389 $245 1.0916633684146611 $241 $362 forward 7 unknown #
coedge $-1 $147 $350 $358 $363 forward $142 $-1 #
vertex $-1 $239 $364 #
vertex $-1 $363 $365 #
straight-curve $-1 0 19.597283296250573 1.0916633684146611 -1 0 0 I I #
face $-1 $-1 $259 $33 $-1 $366 forward single #
loop $-1 $-1 $367 $149 #
plane-surface $-1 -41.721243934446242 0 0 1 0 0 0 0 -1 forward_v I I I I #
coedge $-1 $368 $369 $370 $371 reversed $150 $-1 #
coedge $-1 $372 $152 $154 $257 forward $93 $-1 #
coedge $-1 $152 $372 $368 $373 forward $93 $-1 #
coedge $-1 $370 $155 $152 $254 forward $259 $-1 #
edge $-1 $261 2.247783840403601 $374 9.073709180569443 $253 $375 forward 7 unknown #
coedge $-1 $376 $377 $153 $256 forward $248 $-1 #
edge $-1 $378 -23.146377891578759 $260 -19.401223392960031 $255 $379 forward 7 unknown #
edge $-1 $261 -4.5719893975015147 $378 -1.2442367137257826e-014 $154 $380 forward 7 unknown #
coedge $-1 $155 $370 $376 $381 forward $259 $-1 #
loop $-1 $-1 $370 $247 #
vertex $-1 $256 $382 #
vertex $-1 $156 $383 #
straight-curve $-1 -55.036664565757889 7.908530350890123 5.3130425782721034 1 0 0 I I #
coedge $-1 $263 $263 $-1 $384 reversed $159 $-1 #
edge $-1 $385 0 $385 6.2831853071796004 $160 $386 forward 7 unknown #
vertex $-1 $163 $387 #
ellipse-curve $-1 -40.410051268174229 9.2737154189232882 3.4404653289627349 -0.81915205242281985 0 0.57357642473473569 0.28678821236736785 0 0.40957602621140993 1 I I #
coedge $-1 $267 $267 $-1 $388 reversed $166 $-1 #
edge $-1 $389 0 $389 6.2831853071796004 $167 $390 forward 7 unknown #
vertex $-1 $170 $391 #
ellipse-curve $-1 -40.410051268174229 11.32149302097304 3.4404653289627349 -0.81915205242281985 0 0.57357642473473569 0.28678821236736785 0 0.40957602621140993 1 I I #
coedge $-1 $271 $271 $-1 $392 reversed $173 $-1 #
edge $-1 $393 0 $393 6.2831853071796004 $174 $394 forward 7 unknown #
vertex $-1 $177 $395 #
ellipse-curve $-1 -40.410051268174229 13.369270623022793 3.4404653289627349 -0.81915205242281985 0 0.57357642473473569 0.28678821236736785 0 0.40957602621140993 1 I I #
face $-1 $-1 $396 $37 $-1 $397 reversed single #
loop $-1 $-1 $184 $178 #
plane-surface $-1 0 0 5.3130425782721025 0 0 1 1 0 0 forward_v I I I I #
coedge $-1 $398 $399 $400 $401 reversed $179 $-1 #
coedge $-1 $402 $181 $183 $285 forward $112 $-1 #
coedge $-1 $181 $402 $398 $403 forward $112 $-1 #
coedge $-1 $400 $184 $181 $282 forward $276 $-1 #
edge $-1 $288 0.61523776887137149 $404 8.2617134758546449 $281 $405 forward 7 unknown #
coedge $-1 $406 $407 $182 $284 forward $396 $-1 #
edge $-1 $408 -57.900149050751061 $287 -54.343259713918584 $283 $409 forward 7 unknown #
edge $-1 $288 78.799298651470579 $408 83.442487868892542 $183 $410 forward 7 unknown #
coedge $-1 $184 $400 $406 $411 forward $276 $-1 #
vertex $-1 $284 $412 #
vertex $-1 $185 $413 #
straight-curve $-1 26.003051139197968 -5.0537133912343792 5.3130425782721034 -1 0 0 I I #
coedge $-1 $290 $290 $-1 $414 reversed $188 $-1 #
edge $-1 $415 0 $415 6.2831853071796004 $189 $416 forward 7 unknown #
vertex $-1 $192 $417 #
ellipse-curve $-1 40.228951708178975 -10.515481753365286 3.5345979098558726 0.7660444514056185 0 0.64278759981090561 0.64278759981090561 0 -0.7660444514056185 1 I I #
coedge $-1 $294 $294 $-1 $418 reversed $195 $-1 #
edge $-1 $419 0 $419 6.2831853071796004 $196 $420 forward 7 unknown #
vertex $-1 $199 $421 #
ellipse-curve $-1 40.228951708178975 -7.2384207360867396 3.5345979098558726 0.7660444514056185 0 0.64278759981090561 0.64278759981090561 0 -0.7660444514056185 1 I I #
face $-1 $-1 $215 $30 $-1 $422 reversed single #
loop $-1 $-1 $314 $200 #
plane-surface $-1 0 19.597283296250573 0 0 -1 0 0 0 -1 forward_v I I I I #
coedge $-1 $423 $312 $315 $424 forward $201 $-1 #
coedge $-1 $318 $203 $204 $306 reversed $126 $-1 #
coedge $-1 $312 $423 $203 $304 reversed $201 $-1 #
edge $-1 $319 -5.3130425782721025 $425 5.3130425782721025 $303 $426 forward 7 unknown #
coedge $-1 $205 $204 $423 $427 forward $81 $-1 #
edge $-1 $310 -41.721243934446242 $425 41.721243934446242 $302 $428 forward 7 unknown #
coedge $-1 $315 $314 $205 $308 reversed $299 $-1 #
edge $-1 $429 -41.721243934446242 $309 41.721243934446242 $307 $430 forward 7 unknown #
vertex $-1 $207 $431 #
vertex $-1 $321 $432 #
straight-curve $-1 41.721243934446242 0 -5.3130425782721025 0 -1 0 I I #
coedge $-1 $301 $303 $208 $313 reversed $201 $-1 #
edge $-1 $316 -19.597283296250573 $319 19.597283296250573 $312 $433 forward 7 unknown #
coedge $-1 $307 $209 $214 $322 forward $299 $-1 #
coedge $-1 $209 $307 $301 $424 reversed $299 $-1 #
vertex $-1 $210 $434 #
straight-curve $-1 0 19.597283296250573 5.3130425782721025 -1 0 0 I I #
coedge $-1 $211 $302 $213 $321 reversed $126 $-1 #
vertex $-1 $313 $435 #
straight-curve $-1 0 -19.597283296250573 5.3130425782721025 1 0 0 I I #
edge $-1 $216 -5.3130425782721025 $310 5.3130425782721025 $213 $436 forward 7 unknown #
edge $-1 $217 -5.3130425782721025 $309 5.3130425782721025 $214 $437 forward 7 unknown #
point $-1 41.721243934446242 -19.597283296250573 5.3130425782721025 #
point $-1 41.721243934446242 19.597283296250573 5.3130425782721025 #
face $-1 $-1 $341 $31 $-1 $438 reversed single #
loop $-1 $-1 $439 $219 #
plane-surface $-1 0 -24.460110901445184 -0.40833663158533895 0 1 0 0 0 1 forward_v I I I I #
coedge $-1 $440 $338 $340 $441 forward $220 $-1 #
coedge $-1 $222 $229 $442 $443 forward $134 $-1 #
coedge $-1 $444 $227 $222 $331 reversed $341 $-1 #
edge $-1 $445 -2.4314138025973051 $231 2.4314138025973051 $330 $446 forward 7 unknown #
coedge $-1 $224 $223 $439 $447 reversed $85 $-1 #
coedge $-1 $338 $440 $223 $334 forward $220 $-1 #
edge $-1 $448 -2.4314138025973051 $336 2.4314138025973051 $223 $449 forward 7 unknown #
edge $-1 $230 -2.4314138025973051 $450 2.4314138025973051 $224 $451 forward 7 unknown #
vertex $-1 $225 $452 #
straight-curve $-1 -41.721243934446242 -19.597283296250573 0 0 0 -1 I I #
coedge $-1 $328 $333 $226 $339 reversed $220 $-1 #
edge $-1 $342 -41.721243934446242 $336 41.721243934446242 $338 $453 forward 7 unknown #
coedge $-1 $227 $444 $328 $441 reversed $341 $-1 #
loop $-1 $-1 $227 $325 #
vertex $-1 $228 $454 #
straight-curve $-1 41.721243934446242 -19.597283296250573 0 0 0 1 I I #
point $-1 -41.721243934446242 -19.597283296250573 1.0916633684146611 #
point $-1 41.721243934446242 -19.597283296250573 1.0916633684146611 #
face $-1 $-1 $360 $32 $-1 $455 reversed single #
loop $-1 $-1 $456 $233 #
plane-surface $-1 0 24.460110901445184 -0.40833663158533895 0 -1 0 0 0 -1 forward_v I I I I #
coedge $-1 $356 $457 $237 $353 forward $234 $-1 #
coedge $-1 $243 $236 $458 $459 forward $142 $-1 #
edge $-1 $244 -2.4314138025973051 $460 2.4314138025973051 $238 $461 forward 7 unknown #
coedge $-1 $238 $237 $456 $462 reversed $89 $-1 #
edge $-1 $463 -2.4314138025973051 $354 2.4314138025973051 $237 $464 forward 7 unknown #
vertex $-1 $239 $465 #
straight-curve $-1 41.721243934446242 19.597283296250573 0 0 0 -1 I I #
coedge $-1 $466 $349 $240 $357 reversed $234 $-1 #
edge $-1 $361 -41.721243934446242 $354 41.721243934446242 $356 $467 forward 7 unknown #
coedge $-1 $468 $241 $243 $363 reversed $360 $-1 #
coedge $-1 $241 $468 $466 $469 reversed $360 $-1 #
loop $-1 $-1 $241 $346 #
vertex $-1 $242 $470 #
straight-curve $-1 -41.721243934446242 19.597283296250573 0 0 0 1 I I #
edge $-1 $471 -2.4314138025973051 $245 2.4314138025973051 $358 $472 forward 7 unknown #
point $-1 41.721243934446242 19.597283296250573 1.0916633684146611 #
point $-1 -41.721243934446242 19.597283296250573 1.0916633684146611 #
plane-surface $-1 0 0 5.3130425782721025 0 0 1 1 0 0 forward_v I I I I #
coedge $-1 $377 $376 $369 $473 forward $248 $-1 #
coedge $-1 $369 $250 $252 $373 reversed $150 $-1 #
coedge $-1 $250 $368 $367 $473 reversed $150 $-1 #
coedge $-1 $258 $253 $250 $371 forward $259 $-1 #
edge $-1 $374 -15.937805963855673 $474 -13.315420631311646 $370 $475 forward 7 unknown #
coedge $-1 $252 $251 $377 $476 reversed $93 $-1 #
edge $-1 $477 1.2442367137257826e-014 $374 4.5719893975015147 $368 $478 forward 7 unknown #
vertex $-1 $254 $479 #
straight-curve $-1 -39.098858601902222 5.660746510486522 5.3130425782721025 0 1 0 I I #
coedge $-1 $367 $255 $258 $381 reversed $248 $-1 #
coedge $-1 $255 $367 $372 $476 forward $248 $-1 #
vertex $-1 $256 $480 #
straight-curve $-1 -41.721243934446242 7.908530350890123 24.714265971232134 0 0 1 I I #
straight-curve $-1 -41.72124393444625 7.908530350890123 1.5678880796533647 -0.57357642473473569 0 -0.81915205242281985 I I #
edge $-1 $474 -14.734455691055965 $260 -7.908530350890123 $376 $481 forward 7 unknown #
point $-1 -41.721243934446242 7.908530350890123 5.3130425782721025 #
point $-1 -39.098858601902215 7.908530350890123 5.3130425782721034 #
edge $-1 $482 1 $482 0 $263 $-1 forward 7 unknown #
vertex $-1 $264 $483 #
ellipse-curve $-1 -38.860732170518716 9.2737154189232882 2.3556204504348575 -0.81915205242281985 0 0.57357642473473569 0.28678821236736785 0 0.40957602621140993 1 I I #
point $-1 -40.123263055806859 9.2737154189232882 3.8500413551741417 #
edge $-1 $484 1 $484 0 $267 $-1 forward 7 unknown #
vertex $-1 $268 $485 #
ellipse-curve $-1 -38.860732170518716 11.32149302097304 2.3556204504348575 -0.81915205242281985 0 0.57357642473473569 0.28678821236736785 0 0.40957602621140993 1 I I #
point $-1 -40.123263055806859 11.32149302097304 3.8500413551741417 #
edge $-1 $486 1 $486 0 $271 $-1 forward 7 unknown #
vertex $-1 $272 $487 #
ellipse-curve $-1 -38.860732170518716 13.369270623022793 2.3556204504348575 -0.81915205242281985 0 0.57357642473473569 0.28678821236736785 0 0.40957602621140993 1 I I #
point $-1 -40.123263055806859 13.369270623022793 3.8500413551741417 #
loop $-1 $-1 $283 $275 #
plane-surface $-1 41.721243934446242 0 0 -1 0 0 0 0 1 forward_v I I I I #
coedge $-1 $399 $278 $280 $403 reversed $179 $-1 #
coedge $-1 $278 $398 $488 $489 reversed $179 $-1 #
coedge $-1 $286 $281 $278 $401 forward $276 $-1 #
edge $-1 $404 12.733608342713747 $490 15.718192795248275 $400 $491 forward 7 unknown #
coedge $-1 $280 $279 $407 $492 reversed $112 $-1 #
edge $-1 $493 -83.442487868892542 $404 -78.799298651470579 $398 $494 forward 7 unknown #
vertex $-1 $282 $495 #
straight-curve $-1 38.736659481911715 -4.4384756223630077 5.3130425782721034 0 -1 0 I I #
coedge $-1 $488 $283 $286 $411 reversed $396 $-1 #
coedge $-1 $283 $488 $402 $492 forward $396 $-1 #
vertex $-1 $284 $496 #
straight-curve $-1 41.721243934446242 -5.0537133912343792 59.656302292190688 0 0 1 I I #
straight-curve $-1 -11.914552565049782 -5.0537133912343792 65.676808084885366 0.64278759981090561 0 -0.7660444514056185 I I #
edge $-1 $490 -12.700189098217653 $287 -5.0537133912343792 $406 $497 forward 7 unknown #
point $-1 41.721243934446242 -5.0537133912343792 5.3130425782721025 #
point $-1 38.736659481911715 -5.0537133912343792 5.3130425782721034 #
edge $-1 $498 1 $498 0 $290 $-1 forward 7 unknown #
vertex $-1 $291 $499 #
ellipse-curve $-1 39.055980479187198 -10.515481753365286 2.5503582099958875 0.7660444514056185 0 0.64278759981090561 0.64278759981090561 0 -0.7660444514056185 1 I I #
point $-1 40.871739307989898 -10.515481753365286 2.7685534584502678 #
edge $-1 $500 1 $500 0 $294 $-1 forward 7 unknown #
vertex $-1 $295 $501 #
ellipse-curve $-1 39.055980479187198 -7.2384207360867396 2.5503582099958875 0.7660444514056185 0 0.64278759981090561 0.64278759981090561 0 -0.7660444514056185 1 I I #
point $-1 40.871739307989898 -7.2384207360867396 2.7685534584502678 #
plane-surface $-1 41.721243934446242 0 0 -1 0 0 0 0 1 forward_v I I I I #
coedge $-1 $303 $301 $305 $427 reversed $201 $-1 #
edge $-1 $316 -5.3130425782721025 $429 5.3130425782721025 $315 $502 forward 7 unknown #
vertex $-1 $427 $503 #
straight-curve $-1 -41.721243934446242 -19.597283296250573 0 0 0 -1 I I #
edge $-1 $425 -19.597283296250573 $429 19.597283296250573 $423 $504 forward 7 unknown #
straight-curve $-1 0 -19.597283296250573 -5.3130425782721025 -1 0 0 I I #
vertex $-1 $308 $505 #
straight-curve $-1 0 19.597283296250573 -5.3130425782721025 1 0 0 I I #
point $-1 41.721243934446242 19.597283296250573 -5.3130425782721025 #
point $-1 41.721243934446242 -19.597283296250573 -5.3130425782721025 #
straight-curve $-1 -41.721243934446242 0 5.3130425782721025 0 -1 0 I I #
point $-1 -41.721243934446242 19.597283296250573 5.3130425782721025 #
point $-1 -41.721243934446242 -19.597283296250573 5.3130425782721025 #
straight-curve $-1 41.721243934446242 -19.597283296250573 0 0 0 -1 I I #
straight-curve $-1 41.721243934446242 19.597283296250573 0 0 0 -1 I I #
plane-surface $-1 41.721243934446242 0 0 -1 0 0 0 0 1 forward_v I I I I #
coedge $-1 $506 $442 $332 $447 forward $326 $-1 #
coedge $-1 $333 $328 $506 $507 forward $220 $-1 #
edge $-1 $342 -2.4314138025973051 $508 2.4314138025973051 $340 $509 forward 7 unknown #
coedge $-1 $439 $510 $329 $443 reversed $326 $-1 #
edge $-1 $450 -41.721243934446242 $445 41.721243934446242 $442 $511 forward 7 unknown #
coedge $-1 $340 $330 $510 $512 forward $341 $-1 #
vertex $-1 $331 $513 #
straight-curve $-1 41.721243934446242 -22.028697098847879 1.0916633684146611 0 1 0 I I #
edge $-1 $450 -1.5 $448 1.5 $332 $514 forward 7 unknown #
vertex $-1 $334 $515 #
straight-curve $-1 -41.721243934446242 -22.028697098847879 -1.9083366315853389 0 1 0 I I #
vertex $-1 $335 $516 #
straight-curve $-1 -41.721243934446242 -22.028697098847879 1.0916633684146611 0 -1 0 I I #
point $-1 -41.721243934446242 -19.597283296250573 -1.9083366315853389 #
straight-curve $-1 0 -19.597283296250573 -1.9083366315853389 -1 0 0 I I #
point $-1 41.721243934446242 -19.597283296250573 -1.9083366315853389 #
plane-surface $-1 -41.721243934446242 0 0 1 0 0 0 0 -1 forward_v I I I I #
coedge $-1 $517 $458 $352 $462 forward $347 $-1 #
coedge $-1 $349 $466 $517 $518 forward $234 $-1 #
coedge $-1 $456 $519 $350 $459 reversed $347 $-1 #
edge $-1 $460 -41.721243934446242 $471 41.721243934446242 $458 $520 forward 7 unknown #
vertex $-1 $351 $521 #
straight-curve $-1 41.721243934446242 22.028697098847879 1.0916633684146611 0 1 0 I I #
edge $-1 $460 -1.5 $463 1.5 $352 $522 forward 7 unknown #
vertex $-1 $353 $523 #
straight-curve $-1 41.721243934446242 22.028697098847879 -1.9083366315853389 0 -1 0 I I #
point $-1 41.721243934446242 19.597283296250573 -1.9083366315853389 #
coedge $-1 $457 $356 $359 $469 forward $234 $-1 #
straight-curve $-1 0 19.597283296250573 -1.9083366315853389 1 0 0 I I #
coedge $-1 $359 $358 $519 $524 forward $360 $-1 #
edge $-1 $361 -2.4314138025973051 $525 2.4314138025973051 $359 $526 forward 7 unknown #
point $-1 -41.721243934446242 19.597283296250573 -1.9083366315853389 #
vertex $-1 $459 $527 #
straight-curve $-1 -41.721243934446242 22.028697098847879 1.0916633684146611 0 -1 0 I I #
edge $-1 $474 19.401223392960031 $477 23.146377891578759 $367 $528 forward 7 unknown #
vertex $-1 $381 $529 #
straight-curve $-1 -55.036664565757889 14.734455691055965 5.3130425782721034 -1 0 0 I I #
edge $-1 $477 -9.073709180569443 $378 -2.247783840403601 $377 $530 forward 7 unknown #
vertex $-1 $476 $531 #
straight-curve $-1 -41.72124393444625 14.734455691055965 1.5678880796533647 0.57357642473473569 0 0.81915205242281985 I I #
point $-1 -39.098858601902215 14.734455691055965 5.3130425782721034 #
point $-1 -41.721243934446242 7.908530350890123 1.567888079653375 #
straight-curve $-1 -41.721243934446242 0 5.3130425782721025 0 -1 0 I I #
vertex $-1 $384 $532 #
point $-1 -38.573943958151347 9.2737154189232882 2.7651964766462673 #
vertex $-1 $388 $533 #
point $-1 -38.573943958151347 11.32149302097304 2.7651964766462673 #
vertex $-1 $392 $534 #
point $-1 -38.573943958151347 13.369270623022793 2.7651964766462673 #
coedge $-1 $407 $406 $399 $489 forward $396 $-1 #
edge $-1 $490 54.343259713918584 $493 57.900149050751061 $488 $535 forward 7 unknown #
vertex $-1 $411 $536 #
straight-curve $-1 26.003051139197968 -12.700189098217653 5.3130425782721034 1 0 0 I I #
edge $-1 $493 -8.2617134758546449 $408 -0.61523776887137149 $407 $537 forward 7 unknown #
vertex $-1 $492 $538 #
straight-curve $-1 -11.914552565049782 -12.700189098217653 65.676808084885366 -0.64278759981090561 0 0.7660444514056185 I I #
point $-1 38.736659481911715 -12.700189098217653 5.3130425782721034 #
point $-1 41.721243934446242 -5.0537133912343792 1.7561532414396268 #
straight-curve $-1 41.721243934446242 0 5.3130425782721025 0 1 0 I I #
vertex $-1 $414 $539 #
point $-1 39.6987680789981 -10.515481753365286 1.7843137585902693 #
vertex $-1 $418 $540 #
point $-1 39.6987680789981 -7.2384207360867396 1.7843137585902693 #
straight-curve $-1 -41.721243934446242 19.597283296250573 0 0 0 -1 I I #
point $-1 -41.721243934446242 -19.597283296250573 -5.3130425782721025 #
straight-curve $-1 -41.721243934446242 0 -5.3130425782721025 0 1 0 I I #
point $-1 -41.721243934446242 19.597283296250573 -5.3130425782721025 #
coedge $-1 $510 $439 $440 $507 reversed $326 $-1 #
edge $-1 $508 -41.721243934446242 $448 41.721243934446242 $506 $541 forward 7 unknown #
vertex $-1 $512 $542 #
straight-curve $-1 41.721243934446242 -22.028697098847879 -1.9083366315853389 0 -1 0 I I #
coedge $-1 $442 $506 $444 $512 reversed $326 $-1 #
straight-curve $-1 0 -24.460110901445184 1.0916633684146611 1 0 0 I I #
edge $-1 $445 -1.5 $508 1.5 $444 $543 forward 7 unknown #
point $-1 41.721243934446242 -24.460110901445184 1.0916633684146611 #
straight-curve $-1 -41.721243934446242 -24.460110901445184 -0.40833663158533895 0 0 -1 I I #
point $-1 -41.721243934446242 -24.460110901445184 -1.9083366315853389 #
point $-1 -41.721243934446242 -24.460110901445184 1.0916633684146611 #
coedge $-1 $519 $456 $457 $518 reversed $347 $-1 #
edge $-1 $525 -41.721243934446242 $463 41.721243934446242 $517 $544 forward 7 unknown #
coedge $-1 $458 $517 $468 $524 reversed $347 $-1 #
straight-curve $-1 0 24.460110901445184 1.0916633684146611 -1 0 0 I I #
point $-1 41.721243934446242 24.460110901445184 1.0916633684146611 #
straight-curve $-1 41.721243934446242 24.460110901445184 -0.40833663158533895 0 0 -1 I I #
point $-1 41.721243934446242 24.460110901445184 -1.9083366315853389 #
edge $-1 $471 -1.5 $525 1.5 $519 $545 forward 7 unknown #
vertex $-1 $518 $546 #
straight-curve $-1 -41.721243934446242 22.028697098847879 -1.9083366315853389 0 1 0 I I #
point $-1 -41.721243934446242 24.460110901445184 1.0916633684146611 #
straight-curve $-1 -41.721243934446242 14.734455691055965 24.714265971232134 0 0 -1 I I #
point $-1 -41.721243934446242 14.734455691055965 5.3130425782721025 #
straight-curve $-1 -41.721243934446242 5.660746510486522 1.5678880796533805 0 -1 0 I I #
point $-1 -41.721243934446242 14.734455691055965 1.567888079653375 #
point $-1 -38.451156144307305 9.2737154189232882 2.0688322380674897 #
point $-1 -38.451156144307305 11.32149302097304 2.0688322380674897 #
point $-1 -38.451156144307305 13.369270623022793 2.0688322380674897 #
straight-curve $-1 41.721243934446242 -12.700189098217653 59.656302292190688 0 0 -1 I I #
point $-1 41.721243934446242 -12.700189098217653 5.3130425782721025 #
straight-curve $-1 41.721243934446235 -4.4384756223630077 1.7561532414396339 0 1 0 I I #
point $-1 41.721243934446242 -12.700189098217653 1.7561532414396268 #
point $-1 38.289936027781579 -10.515481753365286 1.9075706101849821 #
point $-1 38.289936027781579 -7.2384207360867396 1.9075706101849821 #
straight-curve $-1 0 -24.460110901445184 -1.9083366315853389 -1 0 0 I I #
point $-1 41.721243934446242 -24.460110901445184 -1.9083366315853389 #
straight-curve $-1 41.721243934446242 -24.460110901445184 -0.40833663158533895 0 0 -1 I I #
straight-curve $-1 0 24.460110901445184 -1.9083366315853389 1 0 0 I I #
straight-curve $-1 -41.721243934446242 24.460110901445184 -0.40833663158533895 0 0 -1 I I #
point $-1 -41.721243934446242 24.460110901445184 -1.9083366315853389 #
End-of-ACIS-data 