500 0 7 0           
7 Unknown 11 ACIS 5.0 NT 24 Thu Mar 25 21:26:01 1999 
-1 9.9999999999999995e-007 1e-010 
body $-1 $7 $-1 $8 #
body $-1 $9 $-1 $10 #
body $-1 $11 $-1 $12 #
body $-1 $13 $-1 $14 #
body $-1 $15 $-1 $16 #
body $-1 $17 $-1 $18 #
body $-1 $19 $-1 $20 #
lump $-1 $-1 $21 $0 #
transform $-1 1 0 0 0 1 0 0 0 1 55.090792565691089 38.261427185154126 15.833997769589129 1 rotate no_reflect no_shear #
lump $-1 $-1 $22 $1 #
transform $-1 1 0 0 0 1 0 0 0 1 55.090792565691089 38.261427185154126 15.833997769589129 1 rotate no_reflect no_shear #
lump $-1 $-1 $23 $2 #
transform $-1 1 0 0 0 1 0 0 0 1 55.090792565691089 38.261427185154126 15.833997769589129 1 rotate no_reflect no_shear #
lump $-1 $-1 $24 $3 #
transform $-1 1 0 0 0 1 0 0 0 1 55.090792565691089 38.261427185154126 15.833997769589129 1 rotate no_reflect no_shear #
lump $-1 $-1 $25 $4 #
transform $-1 1 0 0 0 1 0 0 0 1 55.090792565691089 38.261427185154126 15.833997769589129 1 rotate no_reflect no_shear #
lump $-1 $-1 $26 $5 #
transform $-1 1 0 0 0 1 0 0 0 1 55.090792565691089 38.261427185154126 15.833997769589129 1 rotate no_reflect no_shear #
lump $-1 $-1 $27 $6 #
transform $-1 1 0 0 0 1 0 0 0 1 55.090792565691089 38.261427185154126 15.833997769589129 1 rotate no_reflect no_shear #
shell $-1 $-1 $-1 $28 $-1 $7 #
shell $-1 $-1 $-1 $29 $-1 $9 #
shell $-1 $-1 $-1 $30 $-1 $11 #
shell $-1 $-1 $-1 $31 $-1 $13 #
shell $-1 $-1 $-1 $32 $-1 $15 #
shell $-1 $-1 $-1 $33 $-1 $17 #
shell $-1 $-1 $-1 $34 $-1 $19 #
face $-1 $35 $36 $21 $-1 $37 reversed single #
face $-1 $38 $39 $22 $-1 $40 forward single #
face $-1 $41 $42 $23 $-1 $43 reversed single #
face $-1 $44 $45 $24 $-1 $46 forward single #
face $-1 $47 $48 $25 $-1 $49 forward single #
face $-1 $50 $51 $26 $-1 $52 reversed single #
face $-1 $53 $54 $27 $-1 $55 forward single #
face $-1 $56 $57 $21 $-1 $58 forward single #
loop $-1 $-1 $59 $28 #
plane-surface $-1 0 -38.261427185154126 0 0 1 0 0 0 1 forward_v I I I I #
face $-1 $60 $61 $22 $-1 $62 reversed single #
loop $-1 $-1 $63 $29 #
plane-surface $-1 0 -38.261427185154126 0 0 1 0 0 0 1 forward_v I I I I #
face $-1 $64 $65 $23 $-1 $66 reversed single #
loop $-1 $-1 $67 $30 #
plane-surface $-1 22.693933485640642 21.914611795430506 156.32493974207082 0 1 0 0.54463904215088732 0 0.83867056331134215 forward_v I I I I #
face $-1 $68 $69 $24 $-1 $70 forward single #
loop $-1 $71 $72 $31 #
cone-surface $-1 44.800369619672821 26.585130478208676 8.1633432178474017 -0.54463904215088732 0 -0.83867056331134215 1.2580058449670133 0 -0.81695856322633098 1 I I 0 1 1.5 forward I I I I #
face $-1 $73 $74 $25 $-1 $75 forward single #
loop $-1 $76 $77 $32 #
cone-surface $-1 44.800369619672821 33.590908502375946 8.1633432178474017 -0.54463904215088732 0 -0.83867056331134215 1.2580058449670133 0 -0.81695856322633098 1 I I 0 1 1.5 forward I I I I #
face $-1 $78 $79 $26 $-1 $80 reversed single #
loop $-1 $-1 $81 $33 #
plane-surface $-1 -151.45777912559385 28.723623435967461 66.155520125882063 0 1 0 -0.87461971476443456 0 0.48480960649040278 forward_v I I I I #
face $-1 $82 $83 $27 $-1 $84 forward single #
loop $-1 $85 $86 $34 #
cone-surface $-1 -53.540695843465379 33.492525310560801 13.902550751815422 0.87461971476443456 0 -0.48480960649040278 0.24240480324520139 0 0.43730985738221728 1 I I 0 1 0.5 forward I I I I #
face $-1 $87 $88 $21 $-1 $89 reversed single #
loop $-1 $-1 $90 $35 #
plane-surface $-1 0 0 15.833997769589129 0 0 1 1 0 0 forward_v I I I I #
coedge $-1 $91 $92 $93 $94 reversed $36 $-1 #
face $-1 $95 $96 $22 $-1 $97 reversed single #
loop $-1 $-1 $98 $38 #
plane-surface $-1 0 0 -15.833997769589129 0 0 1 1 0 0 forward_v I I I I #
coedge $-1 $99 $100 $101 $102 forward $39 $-1 #
face $-1 $103 $104 $23 $-1 $105 reversed single #
loop $-1 $-1 $106 $41 #
plane-surface $-1 -37.315259502981796 30.088019490292318 63.918887673397933 0.54463904215088732 0 0.83867056331134215 0.83867056331134215 0 -0.54463904215088732 forward_v I I I I #
coedge $-1 $107 $108 $109 $110 reversed $42 $-1 #
face $-1 $-1 $111 $24 $-1 $112 forward single #
loop $-1 $113 $114 $44 #
cone-surface $-1 43.282375490129269 26.585130478208676 5.8258372860289818 -0.54463904215088732 0 -0.83867056331134215 0.62900292248350664 0 -0.40847928161316549 1 I I -0.70710678118654757 0.70710678118654757 0.75 forward I I I I #
loop $-1 $-1 $115 $31 #
coedge $-1 $72 $72 $116 $117 reversed $45 $-1 #
face $-1 $-1 $118 $25 $-1 $119 forward single #
loop $-1 $120 $121 $47 #
cone-surface $-1 43.282375490129269 33.590908502375946 5.8258372860289818 -0.54463904215088732 0 -0.83867056331134215 0.62900292248350664 0 -0.40847928161316549 1 I I -0.70710678118654757 0.70710678118654757 0.75 forward I I I I #
loop $-1 $-1 $122 $32 #
coedge $-1 $77 $77 $123 $124 reversed $48 $-1 #
face $-1 $125 $126 $26 $-1 $127 reversed single #
loop $-1 $-1 $128 $50 #
plane-surface $-1 -55.090792565691103 33.492525310560801 12.738429195847857 -0.87461971476443456 0 0.48480960649040278 0.48480960649040278 0 0.87461971476443456 forward_v I I I I #
coedge $-1 $129 $130 $131 $132 reversed $51 $-1 #
face $-1 $-1 $133 $27 $-1 $134 forward single #
loop $-1 $135 $136 $53 #
cone-surface $-1 -52.629895000634193 33.492525310560801 13.397685619289749 0.87461971476443456 0 -0.48480960649040278 0.12120240162260069 0 0.21865492869110864 1 I I -0.70710678118654746 0.70710678118654746 0.25 forward I I I I #
loop $-1 $-1 $137 $34 #
coedge $-1 $86 $86 $138 $139 reversed $54 $-1 #
face $-1 $140 $141 $21 $-1 $142 reversed single #
loop $-1 $-1 $143 $56 #
plane-surface $-1 0 0 -15.833997769589129 0 0 1 1 0 0 forward_v I I I I #
coedge $-1 $144 $145 $146 $147 forward $57 $-1 #
coedge $-1 $148 $59 $149 $150 reversed $36 $-1 #
coedge $-1 $59 $148 $151 $152 forward $36 $-1 #
coedge $-1 $153 $143 $59 $94 forward $88 $-1 #
edge $-1 $154 -55.090792565691089 $155 55.090792565691089 $59 $156 forward 7 unknown #
face $-1 $157 $158 $22 $-1 $159 reversed single #
loop $-1 $-1 $160 $60 #
plane-surface $-1 -31.501444843040261 -51.829743060689758 0 0 1 0 0 0 1 forward_v I I I I #
coedge $-1 $161 $162 $100 $163 forward $61 $-1 #
coedge $-1 $164 $63 $165 $166 reversed $39 $-1 #
coedge $-1 $63 $164 $98 $163 reversed $39 $-1 #
coedge $-1 $167 $168 $63 $102 reversed $158 $-1 #
edge $-1 $169 -15.833997769589129 $170 15.833997769589129 $101 $171 forward 7 unknown #
face $-1 $172 $173 $23 $-1 $174 forward single #
loop $-1 $-1 $175 $64 #
plane-surface $-1 0 38.261427185154126 0 0 -1 0 0 0 -1 forward_v I I I I #
coedge $-1 $176 $177 $178 $179 reversed $65 $-1 #
coedge $-1 $108 $67 $180 $181 reversed $42 $-1 #
coedge $-1 $67 $107 $176 $182 reversed $42 $-1 #
coedge $-1 $178 $183 $67 $110 forward $184 $-1 #
edge $-1 $185 62.32847210144628 $186 74.252775186259925 $109 $187 forward 7 unknown #
loop $-1 $-1 $116 $68 #
plane-surface $-1 -37.315259502981796 30.088019490292318 63.918887673397933 0.54463904215088732 0 0.83867056331134215 0.83867056331134215 0 -0.54463904215088732 forward_v I I I I #
loop $-1 $-1 $188 $44 #
coedge $-1 $114 $114 $115 $189 reversed $69 $-1 #
coedge $-1 $115 $115 $114 $189 forward $71 $-1 #
coedge $-1 $116 $116 $72 $117 forward $111 $-1 #
edge $-1 $190 0 $190 6.2831853071796004 $116 $191 forward 7 unknown #
loop $-1 $-1 $123 $73 #
plane-surface $-1 -37.315259502981796 30.088019490292318 63.918887673397933 0.54463904215088732 0 0.83867056331134215 0.83867056331134215 0 -0.54463904215088732 forward_v I I I I #
loop $-1 $-1 $192 $47 #
coedge $-1 $121 $121 $122 $193 reversed $74 $-1 #
coedge $-1 $122 $122 $121 $193 forward $76 $-1 #
coedge $-1 $123 $123 $77 $124 forward $118 $-1 #
edge $-1 $194 0 $194 6.2831853071796004 $123 $195 forward 7 unknown #
face $-1 $196 $197 $26 $-1 $198 reversed single #
loop $-1 $-1 $199 $78 #
plane-surface $-1 0 38.261427185154126 0 0 -1 0 0 0 -1 forward_v I I I I #
coedge $-1 $200 $201 $202 $203 reversed $79 $-1 #
coedge $-1 $130 $81 $204 $205 reversed $51 $-1 #
coedge $-1 $81 $129 $200 $206 reversed $51 $-1 #
coedge $-1 $202 $207 $81 $132 forward $208 $-1 #
edge $-1 $209 20.638096997105833 $210 22.353998613277106 $131 $211 forward 7 unknown #
loop $-1 $-1 $138 $82 #
plane-surface $-1 -55.090792565691103 33.492525310560801 12.738429195847857 -0.87461971476443456 0 0.48480960649040278 0.48480960649040278 0 0.87461971476443456 forward_v I I I I #
loop $-1 $-1 $212 $53 #
coedge $-1 $136 $136 $137 $213 reversed $83 $-1 #
coedge $-1 $137 $137 $136 $213 forward $85 $-1 #
coedge $-1 $138 $138 $86 $139 forward $133 $-1 #
edge $-1 $214 0 $214 6.2831853071796004 $138 $215 forward 7 unknown #
face $-1 $216 $217 $21 $-1 $218 reversed single #
loop $-1 $-1 $219 $87 #
plane-surface $-1 -55.090792565691089 0 0 1 0 0 0 0 -1 forward_v I I I I #
coedge $-1 $93 $220 $221 $222 forward $88 $-1 #
coedge $-1 $223 $90 $224 $225 forward $57 $-1 #
coedge $-1 $90 $223 $148 $226 forward $57 $-1 #
coedge $-1 $149 $227 $90 $147 reversed $228 $-1 #
edge $-1 $229 -38.261427185154126 $230 38.261427185154126 $146 $231 forward 7 unknown #
coedge $-1 $92 $91 $145 $226 reversed $36 $-1 #
coedge $-1 $221 $146 $91 $150 forward $228 $-1 #
edge $-1 $229 -15.833997769589129 $154 15.833997769589129 $149 $232 forward 7 unknown #
coedge $-1 $233 $234 $92 $152 reversed $141 $-1 #
edge $-1 $235 -15.833997769589129 $155 15.833997769589129 $151 $236 forward 7 unknown #
coedge $-1 $220 $93 $234 $237 forward $88 $-1 #
vertex $-1 $150 $238 #
vertex $-1 $237 $239 #
straight-curve $-1 0 -38.261427185154126 -15.833997769589129 -1 0 0 I I #
face $-1 $240 $241 $22 $-1 $242 reversed single #
loop $-1 $-1 $101 $95 #
plane-surface $-1 -34.088320060788043 -45.045585122921942 0 1 0 0 0 0 -1 forward_v I I I I #
coedge $-1 $243 $244 $245 $246 forward $96 $-1 #
coedge $-1 $247 $98 $248 $249 forward $61 $-1 #
coedge $-1 $98 $247 $167 $250 forward $61 $-1 #
edge $-1 $169 -34.088320060788043 $251 -28.914569625292479 $98 $252 forward 7 unknown #
coedge $-1 $100 $99 $253 $254 forward $39 $-1 #
coedge $-1 $255 $256 $99 $166 forward $257 $-1 #
edge $-1 $258 28.914569625292479 $170 34.088320060788043 $165 $259 forward 7 unknown #
coedge $-1 $245 $101 $162 $250 reversed $158 $-1 #
coedge $-1 $101 $245 $255 $260 reversed $158 $-1 #
vertex $-1 $163 $261 #
vertex $-1 $260 $262 #
straight-curve $-1 -34.088320060788043 -38.261427185154126 0 0 0 1 I I #
face $-1 $-1 $184 $23 $-1 $263 reversed single #
loop $-1 $-1 $264 $103 #
plane-surface $-1 0 0 15.833997769589129 0 0 1 1 0 0 forward_v I I I I #
coedge $-1 $265 $266 $177 $267 forward $104 $-1 #
coedge $-1 $268 $106 $108 $182 forward $65 $-1 #
coedge $-1 $106 $268 $175 $267 reversed $65 $-1 #
coedge $-1 $269 $109 $106 $179 forward $184 $-1 #
edge $-1 $186 6.8706020502843472 $270 23.217417440007967 $178 $271 forward 7 unknown #
coedge $-1 $272 $264 $107 $181 forward $173 $-1 #
edge $-1 $273 25.382009626694995 $185 43.743825822870768 $180 $274 forward 7 unknown #
edge $-1 $186 -110.18158513138218 $273 -88.287629388286334 $108 $275 forward 7 unknown #
coedge $-1 $109 $269 $272 $276 reversed $184 $-1 #
loop $-1 $-1 $178 $172 #
vertex $-1 $276 $277 #
vertex $-1 $110 $278 #
straight-curve $-1 55.090792565691089 21.914611795430506 78.162469871035412 0 0 -1 I I #
coedge $-1 $188 $188 $-1 $279 reversed $113 $-1 #
edge $-1 $280 0 $280 6.2831853071796004 $114 $281 forward 7 unknown #
vertex $-1 $117 $282 #
ellipse-curve $-1 45.909884467603213 26.585130478208676 9.8718462271823189 0.54463904215088732 0 0.83867056331134215 1.2580058449670133 0 -0.81695856322633098 1 I I #
coedge $-1 $192 $192 $-1 $283 reversed $120 $-1 #
edge $-1 $284 0 $284 6.2831853071796004 $121 $285 forward 7 unknown #
vertex $-1 $124 $286 #
ellipse-curve $-1 45.909884467603213 33.590908502375946 9.8718462271823189 0.54463904215088732 0 0.83867056331134215 1.2580058449670133 0 -0.81695856322633098 1 I I #
face $-1 $-1 $208 $26 $-1 $287 forward single #
loop $-1 $-1 $288 $125 #
plane-surface $-1 -55.090792565691089 0 0 1 0 0 0 0 -1 forward_v I I I I #
coedge $-1 $289 $290 $201 $291 forward $126 $-1 #
coedge $-1 $292 $128 $130 $206 forward $79 $-1 #
coedge $-1 $128 $292 $199 $291 reversed $79 $-1 #
coedge $-1 $293 $131 $128 $203 forward $208 $-1 #
edge $-1 $210 11.977360780687061 $294 21.51516452987374 $202 $295 forward 7 unknown #
coedge $-1 $296 $288 $129 $205 forward $197 $-1 #
edge $-1 $297 -20.33933086709315 $209 -17.243762293351903 $204 $298 forward 7 unknown #
edge $-1 $210 -3.5393308903115863 $297 -2.8640472853114764e-014 $130 $299 forward 7 unknown #
coedge $-1 $131 $293 $296 $300 forward $208 $-1 #
loop $-1 $-1 $202 $196 #
vertex $-1 $205 $301 #
vertex $-1 $132 $302 #
straight-curve $-1 -75.728889562796923 28.723623435967461 15.833997769589129 1 0 0 I I #
coedge $-1 $212 $212 $-1 $303 reversed $135 $-1 #
edge $-1 $304 0 $304 6.2831853071796004 $136 $305 forward 7 unknown #
vertex $-1 $139 $306 #
ellipse-curve $-1 -54.232841757605456 33.492525310560801 14.286213482718498 -0.87461971476443456 0 0.48480960649040278 0.24240480324520139 0 0.43730985738221728 1 I I #
face $-1 $-1 $228 $21 $-1 $307 reversed single #
loop $-1 $-1 $308 $140 #
plane-surface $-1 0 38.261427185154126 0 0 -1 0 0 0 -1 forward_v I I I I #
coedge $-1 $234 $233 $309 $310 forward $141 $-1 #
coedge $-1 $143 $153 $311 $312 forward $88 $-1 #
coedge $-1 $227 $149 $143 $222 reversed $228 $-1 #
edge $-1 $313 -38.261427185154126 $154 38.261427185154126 $221 $314 forward 7 unknown #
coedge $-1 $145 $144 $233 $315 forward $57 $-1 #
coedge $-1 $308 $309 $144 $225 reversed $217 $-1 #
edge $-1 $230 -55.090792565691089 $316 55.090792565691089 $224 $317 forward 7 unknown #
edge $-1 $235 -55.090792565691089 $229 55.090792565691089 $148 $318 forward 7 unknown #
coedge $-1 $146 $221 $308 $319 reversed $228 $-1 #
loop $-1 $-1 $149 $216 #
vertex $-1 $147 $320 #
vertex $-1 $147 $321 #
straight-curve $-1 55.090792565691089 0 15.833997769589129 0 1 0 I I #
straight-curve $-1 55.090792565691089 -38.261427185154126 0 0 0 -1 I I #
coedge $-1 $219 $151 $223 $315 reversed $141 $-1 #
coedge $-1 $151 $219 $153 $237 reversed $141 $-1 #
vertex $-1 $315 $322 #
straight-curve $-1 -55.090792565691089 -38.261427185154126 0 0 0 -1 I I #
edge $-1 $155 -38.261427185154126 $323 38.261427185154126 $234 $324 forward 7 unknown #
point $-1 55.090792565691089 -38.261427185154126 -15.833997769589129 #
point $-1 -55.090792565691089 -38.261427185154126 -15.833997769589129 #
face $-1 $-1 $257 $22 $-1 $325 forward single #
loop $-1 $-1 $326 $157 #
plane-surface $-1 -28.914569625292479 -45.045585122921942 0 -1 0 0 0 0 1 forward_v I I I I #
coedge $-1 $327 $160 $247 $328 reversed $96 $-1 #
coedge $-1 $160 $327 $329 $330 reversed $96 $-1 #
coedge $-1 $168 $167 $160 $246 reversed $158 $-1 #
edge $-1 $331 -15.833997769589129 $332 15.833997769589129 $245 $333 forward 7 unknown #
coedge $-1 $162 $161 $243 $328 forward $61 $-1 #
coedge $-1 $253 $326 $161 $249 reversed $241 $-1 #
edge $-1 $251 -6.7841579377678158 $334 6.7841579377678158 $248 $335 forward 7 unknown #
edge $-1 $332 -6.7841579377678158 $169 6.7841579377678158 $167 $336 forward 7 unknown #
vertex $-1 $249 $337 #
straight-curve $-1 0 -38.261427185154126 -15.833997769589129 1 0 0 I I #
coedge $-1 $338 $248 $164 $254 reversed $241 $-1 #
edge $-1 $258 -15.833997769589129 $251 15.833997769589129 $253 $339 forward 7 unknown #
coedge $-1 $329 $165 $168 $260 forward $257 $-1 #
coedge $-1 $165 $329 $338 $340 forward $257 $-1 #
loop $-1 $-1 $165 $240 #
vertex $-1 $166 $341 #
straight-curve $-1 0 -38.261427185154126 15.833997769589129 -1 0 0 I I #
edge $-1 $170 -6.7841579377678158 $331 6.7841579377678158 $168 $342 forward 7 unknown #
point $-1 -34.088320060788043 -38.261427185154126 -15.833997769589129 #
point $-1 -34.088320060788043 -38.261427185154126 15.833997769589129 #
plane-surface $-1 55.090792565691089 0 0 -1 0 0 0 0 1 forward_v I I I I #
coedge $-1 $180 $343 $268 $344 forward $173 $-1 #
coedge $-1 $266 $175 $343 $345 reversed $104 $-1 #
coedge $-1 $175 $265 $269 $346 forward $104 $-1 #
edge $-1 $270 -77.127619398750028 $347 -55.233663655654212 $175 $348 forward 7 unknown #
coedge $-1 $177 $176 $264 $344 reversed $65 $-1 #
coedge $-1 $183 $178 $266 $346 reversed $184 $-1 #
vertex $-1 $179 $349 #
straight-curve $-1 55.090792565691089 15.044009745146159 3.9096946847754985 0 1 0 I I #
coedge $-1 $343 $180 $183 $276 forward $173 $-1 #
vertex $-1 $181 $350 #
straight-curve $-1 11.346966742820321 21.914611795430506 15.833997769589132 1 0 0 I I #
straight-curve $-1 -37.315259502981796 21.914611795430506 63.918887673397933 -0.83867056331134215 0 0.54463904215088732 I I #
edge $-1 $185 21.914611795430506 $351 38.261427185154126 $183 $352 forward 7 unknown #
point $-1 55.090792565691089 21.914611795430506 15.833997769589129 #
point $-1 55.090792565691096 21.914611795430506 3.909694684775495 #
edge $-1 $353 1 $353 0 $188 $-1 forward 7 unknown #
vertex $-1 $189 $354 #
ellipse-curve $-1 43.690854771742437 26.585130478208676 6.4548402085124881 0.54463904215088732 0 0.83867056331134215 1.2580058449670133 0 -0.81695856322633098 1 I I #
point $-1 47.167890312570222 26.585130478208676 9.0548876639559808 #
edge $-1 $355 1 $355 0 $192 $-1 forward 7 unknown #
vertex $-1 $193 $356 #
ellipse-curve $-1 43.690854771742437 33.590908502375946 6.4548402085124881 0.54463904215088732 0 0.83867056331134215 1.2580058449670133 0 -0.81695856322633098 1 I I #
point $-1 47.167890312570222 33.590908502375946 9.0548876639559808 #
plane-surface $-1 0 0 15.833997769589129 0 0 1 1 0 0 forward_v I I I I #
coedge $-1 $204 $357 $292 $358 forward $197 $-1 #
coedge $-1 $290 $199 $357 $359 reversed $126 $-1 #
coedge $-1 $199 $289 $293 $360 reversed $126 $-1 #
edge $-1 $294 4.244301187287272 $361 7.7836320775988295 $199 $362 forward 7 unknown #
coedge $-1 $201 $200 $288 $358 reversed $79 $-1 #
coedge $-1 $207 $202 $290 $360 forward $208 $-1 #
vertex $-1 $360 $363 #
straight-curve $-1 -53.374890949519823 16.7462626552804 15.833997769589129 0 1 0 I I #
coedge $-1 $357 $204 $207 $300 reversed $197 $-1 #
vertex $-1 $205 $364 #
straight-curve $-1 -55.090792565691089 28.723623435967461 33.077760062941032 0 0 1 I I #
straight-curve $-1 -55.090792565691103 28.723623435967461 12.738429195847857 -0.48480960649040278 0 -0.87461971476443456 I I #
edge $-1 $365 -38.261427185154126 $209 -28.723623435967461 $296 $366 forward 7 unknown #
point $-1 -55.090792565691089 28.723623435967461 15.833997769589129 #
point $-1 -53.374890949519816 28.723623435967461 15.833997769589129 #
edge $-1 $367 1 $367 0 $212 $-1 forward 7 unknown #
vertex $-1 $213 $368 #
ellipse-curve $-1 -52.848549929325301 33.492525310560801 13.51888802091235 -0.87461971476443456 0 0.48480960649040278 0.24240480324520139 0 0.43730985738221728 1 I I #
point $-1 -53.990436954360248 33.492525310560801 14.723523340100714 #
plane-surface $-1 55.090792565691089 0 0 -1 0 0 0 0 1 forward_v I I I I #
coedge $-1 $311 $224 $227 $319 forward $217 $-1 #
coedge $-1 $224 $311 $219 $310 reversed $217 $-1 #
edge $-1 $316 -15.833997769589129 $323 15.833997769589129 $309 $369 forward 7 unknown #
coedge $-1 $309 $308 $220 $312 reversed $217 $-1 #
edge $-1 $323 -55.090792565691089 $313 55.090792565691089 $311 $370 forward 7 unknown #
vertex $-1 $222 $371 #
straight-curve $-1 55.090792565691089 0 -15.833997769589129 0 -1 0 I I #
edge $-1 $316 -38.261427185154126 $235 38.261427185154126 $233 $372 forward 7 unknown #
vertex $-1 $225 $373 #
straight-curve $-1 0 38.261427185154126 15.833997769589129 -1 0 0 I I #
straight-curve $-1 0 -38.261427185154126 15.833997769589129 1 0 0 I I #
edge $-1 $230 -15.833997769589129 $313 15.833997769589129 $227 $374 forward 7 unknown #
point $-1 55.090792565691089 -38.261427185154126 15.833997769589129 #
point $-1 55.090792565691089 38.261427185154126 15.833997769589129 #
point $-1 -55.090792565691089 -38.261427185154126 15.833997769589129 #
vertex $-1 $312 $375 #
straight-curve $-1 -55.090792565691089 0 -15.833997769589129 0 1 0 I I #
plane-surface $-1 0 0 15.833997769589129 0 0 1 1 0 0 forward_v I I I I #
coedge $-1 $248 $338 $327 $376 forward $241 $-1 #
coedge $-1 $244 $243 $326 $376 reversed $96 $-1 #
edge $-1 $334 -2.5868752177477816 $332 2.5868752177477816 $243 $377 forward 7 unknown #
coedge $-1 $256 $255 $244 $330 forward $257 $-1 #
edge $-1 $331 -2.5868752177477816 $378 2.5868752177477816 $244 $379 forward 7 unknown #
vertex $-1 $260 $380 #
vertex $-1 $250 $381 #
straight-curve $-1 -34.088320060788043 -51.829743060689758 0 0 0 -1 I I #
vertex $-1 $376 $382 #
straight-curve $-1 -28.914569625292479 -45.045585122921942 -15.833997769589129 0 -1 0 I I #
straight-curve $-1 -34.088320060788043 -45.045585122921942 -15.833997769589129 0 1 0 I I #
point $-1 -28.914569625292479 -38.261427185154126 -15.833997769589129 #
coedge $-1 $326 $253 $256 $340 reversed $241 $-1 #
straight-curve $-1 -28.914569625292479 -38.261427185154126 0 0 0 -1 I I #
edge $-1 $378 -6.7841579377678158 $258 6.7841579377678158 $338 $383 forward 7 unknown #
point $-1 -28.914569625292479 -38.261427185154126 15.833997769589129 #
straight-curve $-1 -34.088320060788043 -45.045585122921942 15.833997769589129 0 -1 0 I I #
coedge $-1 $264 $272 $265 $345 forward $173 $-1 #
edge $-1 $347 -23.217417440007974 $273 -6.8706020502843472 $264 $384 forward 7 unknown #
edge $-1 $351 -55.090792565691089 $347 -36.728976369515316 $265 $385 forward 7 unknown #
edge $-1 $351 -15.833997769589129 $270 -3.9096946847754959 $269 $386 forward 7 unknown #
vertex $-1 $344 $387 #
straight-curve $-1 -9.5938714423214044 38.261427185154126 45.916407437488914 -0.83867056331134215 0 0.54463904215088732 I I #
point $-1 55.090792565691089 38.261427185154126 3.9096946847754959 #
point $-1 36.728976369515316 21.914611795430506 15.833997769589132 #
vertex $-1 $276 $388 #
straight-curve $-1 55.090792565691089 0 15.833997769589129 0 1 0 I I #
vertex $-1 $279 $389 #
point $-1 44.948860616709446 26.585130478208676 5.6378816452861571 #
vertex $-1 $283 $390 #
point $-1 44.948860616709446 33.590908502375946 5.6378816452861571 #
coedge $-1 $288 $296 $289 $359 forward $197 $-1 #
edge $-1 $361 -21.51516452987374 $297 -11.977360780687061 $288 $391 forward 7 unknown #
edge $-1 $365 -15.833997769589129 $361 -12.738429195847882 $289 $392 forward 7 unknown #
edge $-1 $294 53.374890949519816 $365 55.090792565691089 $290 $393 forward 7 unknown #
vertex $-1 $358 $394 #
straight-curve $-1 -51.317212961084323 38.261427185154126 19.546147263388672 -0.48480960649040278 0 -0.87461971476443456 I I #
point $-1 -53.374890949519816 38.26142718515414 15.833997769589129 #
point $-1 -55.090792565691089 28.723623435967461 12.738429195847882 #
vertex $-1 $360 $395 #
straight-curve $-1 -55.090792565691089 0 15.833997769589129 0 -1 0 I I #
vertex $-1 $303 $396 #
point $-1 -52.606145126080101 33.492525310560801 13.956197878294567 #
straight-curve $-1 -55.090792565691089 38.261427185154126 0 0 0 -1 I I #
straight-curve $-1 0 38.261427185154126 -15.833997769589129 1 0 0 I I #
point $-1 55.090792565691089 38.261427185154126 -15.833997769589129 #
straight-curve $-1 -55.090792565691089 0 15.833997769589129 0 -1 0 I I #
point $-1 -55.090792565691089 38.261427185154126 15.833997769589129 #
straight-curve $-1 55.090792565691089 38.261427185154126 0 0 0 -1 I I #
point $-1 -55.090792565691089 38.261427185154126 -15.833997769589129 #
edge $-1 $378 -15.833997769589129 $334 15.833997769589129 $326 $397 forward 7 unknown #
straight-curve $-1 -31.501444843040261 -51.829743060689758 -15.833997769589129 -1 0 0 I I #
vertex $-1 $340 $398 #
straight-curve $-1 -31.501444843040261 -51.829743060689758 15.833997769589129 1 0 0 I I #
point $-1 -34.088320060788043 -51.829743060689758 15.833997769589129 #
point $-1 -34.088320060788043 -51.829743060689758 -15.833997769589129 #
point $-1 -28.914569625292479 -51.829743060689758 -15.833997769589129 #
straight-curve $-1 -28.914569625292479 -45.045585122921942 15.833997769589129 0 1 0 I I #
straight-curve $-1 36.728976369515323 15.044009745146159 15.833997769589125 0 -1 0 I I #
straight-curve $-1 0 38.261427185154126 15.833997769589129 -1 0 0 I I #
straight-curve $-1 55.090792565691089 38.261427185154126 0 0 0 -1 I I #
point $-1 36.728976369515316 38.261427185154133 15.833997769589132 #
point $-1 55.090792565691089 38.261427185154126 15.833997769589129 #
point $-1 42.873896208516101 26.585130478208676 5.1968343635454755 #
point $-1 42.873896208516101 33.590908502375946 5.1968343635454755 #
straight-curve $-1 -55.090792565691089 16.7462626552804 12.738429195847875 0 -1 0 I I #
straight-curve $-1 -55.090792565691089 38.261427185154126 0 0 0 -1 I I #
straight-curve $-1 0 38.261427185154126 15.833997769589129 -1 0 0 I I #
point $-1 -55.090792565691089 38.26142718515414 12.738429195847882 #
point $-1 -55.090792565691089 38.261427185154126 15.833997769589129 #
point $-1 -52.411240071943084 33.492525310560801 13.276483217667149 #
straight-curve $-1 -28.914569625292479 -51.829743060689758 0 0 0 -1 I I #
point $-1 -28.914569625292479 -51.829743060689758 15.833997769589129 #
End-of-ACIS-data 