500 0 9 0           
7 Unknown 11 ACIS 5.0 NT 24 Fri Mar 26 20:39:26 1999 
-1 9.9999999999999995e-007 1e-010 
body $-1 $9 $-1 $10 #
body $-1 $11 $-1 $12 #
body $-1 $13 $-1 $14 #
body $-1 $15 $-1 $16 #
body $-1 $17 $-1 $18 #
body $-1 $19 $-1 $20 #
body $-1 $21 $-1 $22 #
body $-1 $23 $-1 $24 #
body $-1 $25 $-1 $26 #
lump $-1 $-1 $27 $0 #
transform $-1 1 0 0 0 1 0 0 0 1 66.252021851252778 45.470800482583805 21.668813210104613 1 rotate no_reflect no_shear #
lump $-1 $-1 $28 $1 #
transform $-1 1 0 0 0 1 0 0 0 1 66.252021851252778 45.470800482583805 21.668813210104613 1 rotate no_reflect no_shear #
lump $-1 $-1 $29 $2 #
transform $-1 1 0 0 0 1 0 0 0 1 66.252021851252778 45.470800482583805 21.668813210104613 1 rotate no_reflect no_shear #
lump $-1 $-1 $30 $3 #
transform $-1 1 0 0 0 1 0 0 0 1 66.252021851252778 45.470800482583805 21.668813210104613 1 rotate no_reflect no_shear #
lump $-1 $-1 $31 $4 #
transform $-1 1 0 0 0 1 0 0 0 1 66.252021851252778 45.470800482583805 21.668813210104613 1 rotate no_reflect no_shear #
lump $-1 $-1 $32 $5 #
transform $-1 1 0 0 0 1 0 0 0 1 66.252021851252778 45.470800482583805 21.668813210104613 1 rotate no_reflect no_shear #
lump $-1 $-1 $33 $6 #
transform $-1 1 0 0 0 1 0 0 0 1 66.252021851252778 45.470800482583805 21.668813210104613 1 rotate no_reflect no_shear #
lump $-1 $-1 $34 $7 #
transform $-1 1 0 0 0 1 0 0 0 1 66.252021851252778 45.470800482583805 21.668813210104613 1 rotate no_reflect no_shear #
lump $-1 $-1 $35 $8 #
transform $-1 1 0 0 0 1 0 0 0 1 66.252021851252778 45.470800482583805 21.668813210104613 1 rotate no_reflect no_shear #
shell $-1 $-1 $-1 $36 $-1 $9 #
shell $-1 $-1 $-1 $37 $-1 $11 #
shell $-1 $-1 $-1 $38 $-1 $13 #
shell $-1 $-1 $-1 $39 $-1 $15 #
shell $-1 $-1 $-1 $40 $-1 $17 #
shell $-1 $-1 $-1 $41 $-1 $19 #
shell $-1 $-1 $-1 $42 $-1 $21 #
shell $-1 $-1 $-1 $43 $-1 $23 #
shell $-1 $-1 $-1 $44 $-1 $25 #
face $-1 $45 $46 $27 $-1 $47 forward single #
face $-1 $48 $49 $28 $-1 $50 reversed single #
face $-1 $51 $52 $29 $-1 $53 reversed single #
face $-1 $54 $55 $30 $-1 $56 forward single #
face $-1 $57 $58 $31 $-1 $59 forward single #
face $-1 $60 $61 $32 $-1 $62 forward single #
face $-1 $63 $64 $33 $-1 $65 reversed single #
face $-1 $66 $67 $34 $-1 $68 forward single #
face $-1 $69 $70 $35 $-1 $71 forward single #
face $-1 $72 $73 $27 $-1 $74 reversed single #
loop $-1 $-1 $75 $36 #
plane-surface $-1 0 0 21.668813210104613 0 0 1 1 0 0 forward_v I I I I #
face $-1 $76 $77 $28 $-1 $78 reversed single #
loop $-1 $-1 $79 $37 #
plane-surface $-1 -62.683978341773134 -29.704630978861097 0 0 -1 0 0 0 -1 forward_v I I I I #
face $-1 $80 $81 $29 $-1 $82 reversed single #
loop $-1 $-1 $83 $38 #
plane-surface $-1 -173.45004611436315 24.994513000301794 82.66008817493568 0 1 0 -0.80901700255871778 0 0.5877852410284794 forward_v I I I I #
face $-1 $84 $85 $30 $-1 $86 forward single #
loop $-1 $87 $88 $39 #
cone-surface $-1 -58.67258141526839 28.029749436803833 12.174214448347124 0.80901700255871778 0 -0.5877852410284794 0.8816778615427191 0 1.2135255038380768 1 I I 0 1 1.5 forward I I I I #
face $-1 $89 $90 $31 $-1 $91 forward single #
loop $-1 $92 $93 $40 #
cone-surface $-1 -58.67258141526839 32.582604091556895 12.174214448347124 0.80901700255871778 0 -0.5877852410284794 0.8816778615427191 0 1.2135255038380768 1 I I 0 1 1.5 forward I I I I #
face $-1 $94 $95 $32 $-1 $96 forward single #
loop $-1 $97 $98 $41 #
cone-surface $-1 -58.67258141526839 37.135458746309958 12.174214448347124 0.80901700255871778 0 -0.5877852410284794 0.8816778615427191 0 1.2135255038380768 1 I I 0 1 1.5 forward I I I I #
face $-1 $99 $100 $33 $-1 $101 reversed single #
loop $-1 $-1 $102 $42 #
plane-surface $-1 20.918517418283045 -1.275111472588911 183.90916524143907 0 -1 0 -0.51503808176128008 0 -0.85716729658548041 forward_v I I I I #
face $-1 $103 $104 $34 $-1 $105 forward single #
loop $-1 $106 $107 $43 #
cone-surface $-1 49.365913426219763 -6.8856805707353246 10.894339501786675 -0.51503808176128008 0 -0.85716729658548041 0.85716729658548041 0 -0.51503808176128008 1 I I 0 1 1 forward I I I I #
face $-1 $108 $109 $35 $-1 $110 forward single #
loop $-1 $111 $112 $44 #
cone-surface $-1 49.365913426219763 -3.5193391118474793 10.894339501786675 -0.51503808176128008 0 -0.85716729658548041 0.85716729658548041 0 -0.51503808176128008 1 I I 0 1 1 forward I I I I #
face $-1 $113 $114 $27 $-1 $115 reversed single #
loop $-1 $-1 $116 $45 #
plane-surface $-1 0 0 -21.668813210104613 0 0 1 1 0 0 forward_v I I I I #
coedge $-1 $117 $118 $119 $120 forward $46 $-1 #
face $-1 $121 $122 $28 $-1 $123 forward single #
loop $-1 $-1 $124 $48 #
plane-surface $-1 -59.11593483229349 -37.587715730722451 0 -1 0 0 0 0 1 forward_v I I I I #
coedge $-1 $125 $126 $127 $128 forward $49 $-1 #
face $-1 $129 $130 $29 $-1 $131 reversed single #
loop $-1 $-1 $132 $51 #
plane-surface $-1 -66.252021851252763 32.582604091556895 4.7761669100102893 -0.80901700255871778 0 0.5877852410284794 0.5877852410284794 0 0.80901700255871778 forward_v I I I I #
coedge $-1 $133 $134 $135 $136 reversed $52 $-1 #
face $-1 $-1 $137 $30 $-1 $138 forward single #
loop $-1 $139 $140 $54 #
cone-surface $-1 -56.622991021475649 28.029749436803833 10.685099905865446 0.80901700255871778 0 -0.5877852410284794 0.44083893077135955 0 0.60676275191903839 1 I I -0.70710678118654757 0.70710678118654757 0.75 forward I I I I #
loop $-1 $-1 $141 $39 #
coedge $-1 $88 $88 $142 $143 reversed $55 $-1 #
face $-1 $-1 $144 $31 $-1 $145 forward single #
loop $-1 $146 $147 $57 #
cone-surface $-1 -56.622991021475649 32.582604091556895 10.685099905865446 0.80901700255871778 0 -0.5877852410284794 0.44083893077135955 0 0.60676275191903839 1 I I -0.70710678118654757 0.70710678118654757 0.75 forward I I I I #
loop $-1 $-1 $148 $40 #
coedge $-1 $93 $93 $149 $150 reversed $58 $-1 #
face $-1 $-1 $151 $32 $-1 $152 forward single #
loop $-1 $153 $154 $60 #
cone-surface $-1 -56.622991021475649 37.135458746309958 10.685099905865446 0.80901700255871778 0 -0.5877852410284794 0.44083893077135955 0 0.60676275191903839 1 I I -0.70710678118654757 0.70710678118654757 0.75 forward I I I I #
loop $-1 $-1 $155 $41 #
coedge $-1 $98 $98 $156 $157 reversed $61 $-1 #
face $-1 $158 $159 $33 $-1 $160 reversed single #
loop $-1 $-1 $161 $63 #
plane-surface $-1 -47.326111075868241 -5.2025098412914019 70.331032314318037 0.51503808176128008 0 0.85716729658548041 0.85716729658548041 0 -0.51503808176128008 forward_v I I I I #
coedge $-1 $162 $163 $164 $165 reversed $64 $-1 #
face $-1 $-1 $166 $34 $-1 $167 forward single #
loop $-1 $168 $169 $66 #
cone-surface $-1 48.517586746611073 -6.8856805707353246 9.4824868401449329 -0.51503808176128008 0 -0.85716729658548041 0.4285836482927402 0 -0.25751904088064004 1 I I -0.70710678118654746 0.70710678118654746 0.5 forward I I I I #
loop $-1 $-1 $170 $43 #
coedge $-1 $107 $107 $171 $172 reversed $67 $-1 #
face $-1 $-1 $173 $35 $-1 $174 forward single #
loop $-1 $175 $176 $69 #
cone-surface $-1 48.517586746611073 -3.5193391118474793 9.4824868401449329 -0.51503808176128008 0 -0.85716729658548041 0.4285836482927402 0 -0.25751904088064004 1 I I -0.70710678118654746 0.70710678118654746 0.5 forward I I I I #
loop $-1 $-1 $177 $44 #
coedge $-1 $112 $112 $178 $179 reversed $70 $-1 #
face $-1 $180 $181 $27 $-1 $182 reversed single #
loop $-1 $-1 $183 $72 #
plane-surface $-1 0 -45.470800482583805 0 0 1 0 0 0 1 forward_v I I I I #
coedge $-1 $184 $185 $186 $187 forward $73 $-1 #
coedge $-1 $188 $75 $189 $190 forward $46 $-1 #
coedge $-1 $75 $188 $191 $192 forward $46 $-1 #
coedge $-1 $193 $194 $75 $120 reversed $195 $-1 #
edge $-1 $196 -45.470800482583805 $197 45.470800482583805 $119 $198 forward 7 unknown #
face $-1 $199 $200 $28 $-1 $201 reversed single #
loop $-1 $-1 $202 $76 #
plane-surface $-1 0 0 21.668813210104613 0 0 1 1 0 0 forward_v I I I I #
coedge $-1 $203 $204 $205 $206 reversed $77 $-1 #
coedge $-1 $207 $79 $208 $209 reversed $49 $-1 #
coedge $-1 $79 $207 $210 $211 reversed $49 $-1 #
coedge $-1 $204 $203 $79 $128 reversed $77 $-1 #
edge $-1 $212 -21.668813210104613 $213 21.668813210104613 $127 $214 forward 7 unknown #
face $-1 $215 $216 $29 $-1 $217 reversed single #
loop $-1 $-1 $218 $80 #
plane-surface $-1 -173.45004611436315 40.170695182811997 82.66008817493568 0 -1 0 0.80901700255871778 0 -0.5877852410284794 forward_v I I I I #
coedge $-1 $219 $220 $221 $222 reversed $81 $-1 #
coedge $-1 $134 $83 $223 $224 reversed $52 $-1 #
coedge $-1 $83 $133 $219 $225 reversed $52 $-1 #
coedge $-1 $221 $226 $83 $136 forward $227 $-1 #
edge $-1 $228 20.473001205928796 $229 32.746226794150161 $135 $230 forward 7 unknown #
loop $-1 $-1 $142 $84 #
plane-surface $-1 -66.252021851252763 32.582604091556895 4.7761669100102893 -0.80901700255871778 0 0.5877852410284794 0.5877852410284794 0 0.80901700255871778 forward_v I I I I #
loop $-1 $-1 $231 $54 #
coedge $-1 $140 $140 $141 $232 reversed $85 $-1 #
coedge $-1 $141 $141 $140 $232 forward $87 $-1 #
coedge $-1 $142 $142 $88 $143 forward $137 $-1 #
edge $-1 $233 0 $233 6.2831853071796004 $142 $234 forward 7 unknown #
loop $-1 $-1 $149 $89 #
plane-surface $-1 -66.252021851252763 32.582604091556895 4.7761669100102893 -0.80901700255871778 0 0.5877852410284794 0.5877852410284794 0 0.80901700255871778 forward_v I I I I #
loop $-1 $-1 $235 $57 #
coedge $-1 $147 $147 $148 $236 reversed $90 $-1 #
coedge $-1 $148 $148 $147 $236 forward $92 $-1 #
coedge $-1 $149 $149 $93 $150 forward $144 $-1 #
edge $-1 $237 0 $237 6.2831853071796004 $149 $238 forward 7 unknown #
loop $-1 $-1 $156 $94 #
plane-surface $-1 -66.252021851252763 32.582604091556895 4.7761669100102893 -0.80901700255871778 0 0.5877852410284794 0.5877852410284794 0 0.80901700255871778 forward_v I I I I #
loop $-1 $-1 $239 $60 #
coedge $-1 $154 $154 $155 $240 reversed $95 $-1 #
coedge $-1 $155 $155 $154 $240 forward $97 $-1 #
coedge $-1 $156 $156 $98 $157 forward $151 $-1 #
edge $-1 $241 0 $241 6.2831853071796004 $156 $242 forward 7 unknown #
face $-1 $243 $244 $33 $-1 $245 forward single #
loop $-1 $-1 $246 $99 #
plane-surface $-1 20.918517418283045 -9.1299082099938929 183.90916524143907 0 1 0 0.51503808176128008 0 0.85716729658548041 forward_v I I I I #
coedge $-1 $247 $248 $249 $250 reversed $100 $-1 #
coedge $-1 $163 $102 $251 $252 reversed $64 $-1 #
coedge $-1 $102 $162 $247 $253 reversed $64 $-1 #
coedge $-1 $249 $254 $102 $165 forward $244 $-1 #
edge $-1 $255 -55.792763142111255 $256 -23.202161569501357 $164 $257 forward 7 unknown #
loop $-1 $-1 $171 $103 #
plane-surface $-1 -47.326111075868241 -5.2025098412914019 70.331032314318037 0.51503808176128008 0 0.85716729658548041 0.85716729658548041 0 -0.51503808176128008 forward_v I I I I #
loop $-1 $-1 $258 $66 #
coedge $-1 $169 $169 $170 $259 reversed $104 $-1 #
coedge $-1 $170 $170 $169 $259 forward $106 $-1 #
coedge $-1 $171 $171 $107 $172 forward $166 $-1 #
edge $-1 $260 0 $260 6.2831853071796004 $171 $261 forward 7 unknown #
loop $-1 $-1 $178 $108 #
plane-surface $-1 -47.326111075868241 -5.2025098412914019 70.331032314318037 0.51503808176128008 0 0.85716729658548041 0.85716729658548041 0 -0.51503808176128008 forward_v I I I I #
loop $-1 $-1 $262 $69 #
coedge $-1 $176 $176 $177 $263 reversed $109 $-1 #
coedge $-1 $177 $177 $176 $263 forward $111 $-1 #
coedge $-1 $178 $178 $112 $179 forward $173 $-1 #
edge $-1 $264 0 $264 6.2831853071796004 $178 $265 forward 7 unknown #
face $-1 $266 $267 $27 $-1 $268 reversed single #
loop $-1 $-1 $269 $113 #
plane-surface $-1 -66.252021851252778 0 0 1 0 0 0 0 -1 forward_v I I I I #
coedge $-1 $270 $191 $271 $272 forward $114 $-1 #
coedge $-1 $273 $116 $270 $274 forward $73 $-1 #
coedge $-1 $116 $273 $275 $276 forward $73 $-1 #
coedge $-1 $194 $193 $116 $187 reversed $195 $-1 #
edge $-1 $277 -45.470800482583805 $278 45.470800482583805 $186 $279 forward 7 unknown #
coedge $-1 $118 $117 $280 $281 forward $46 $-1 #
coedge $-1 $282 $283 $117 $190 reversed $267 $-1 #
edge $-1 $197 -66.252021851252778 $284 66.252021851252778 $189 $285 forward 7 unknown #
coedge $-1 $183 $286 $118 $192 reversed $114 $-1 #
edge $-1 $287 -66.252021851252778 $196 66.252021851252778 $191 $288 forward 7 unknown #
coedge $-1 $186 $119 $286 $289 forward $195 $-1 #
coedge $-1 $119 $186 $282 $290 reversed $195 $-1 #
loop $-1 $-1 $193 $266 #
vertex $-1 $120 $291 #
vertex $-1 $120 $292 #
straight-curve $-1 66.252021851252778 0 21.668813210104613 0 1 0 I I #
face $-1 $293 $294 $28 $-1 $295 reversed single #
loop $-1 $-1 $296 $121 #
plane-surface $-1 -66.252021851252778 0 0 1 0 0 0 0 -1 forward_v I I I I #
coedge $-1 $210 $297 $204 $298 forward $122 $-1 #
coedge $-1 $127 $124 $299 $300 reversed $77 $-1 #
coedge $-1 $124 $127 $202 $298 reversed $77 $-1 #
coedge $-1 $301 $302 $124 $206 forward $303 $-1 #
edge $-1 $304 -21.668813210104613 $305 21.668813210104613 $205 $306 forward 7 unknown #
coedge $-1 $126 $125 $296 $307 reversed $49 $-1 #
coedge $-1 $299 $308 $125 $209 forward $294 $-1 #
edge $-1 $309 -34.910032680366214 $213 -27.773945661406923 $208 $310 forward 7 unknown #
coedge $-1 $311 $202 $126 $211 forward $122 $-1 #
edge $-1 $212 27.773945661406923 $312 34.910032680366214 $210 $313 forward 7 unknown #
vertex $-1 $211 $314 #
vertex $-1 $209 $315 #
straight-curve $-1 -59.11593483229349 -29.704630978861097 0 0 0 -1 I I #
face $-1 $-1 $227 $29 $-1 $316 forward single #
loop $-1 $-1 $317 $129 #
plane-surface $-1 -66.252021851252778 0 0 1 0 0 0 0 -1 forward_v I I I I #
coedge $-1 $318 $319 $320 $321 reversed $130 $-1 #
coedge $-1 $322 $132 $134 $225 forward $81 $-1 #
coedge $-1 $132 $322 $318 $323 forward $81 $-1 #
coedge $-1 $320 $135 $132 $222 forward $227 $-1 #
edge $-1 $229 8.703210954523346 $324 23.879393137033549 $221 $325 forward 7 unknown #
coedge $-1 $326 $327 $133 $224 forward $216 $-1 #
edge $-1 $328 -36.553877177457572 $228 -19.661230877363227 $223 $329 forward 7 unknown #
edge $-1 $229 -20.880458935556511 $328 2.4161062406544664e-014 $134 $330 forward 7 unknown #
coedge $-1 $135 $320 $326 $331 forward $227 $-1 #
loop $-1 $-1 $320 $215 #
vertex $-1 $224 $332 #
vertex $-1 $136 $333 #
straight-curve $-1 -86.725023057181573 24.994513000301794 21.668813210104613 1 0 0 I I #
coedge $-1 $231 $231 $-1 $334 reversed $139 $-1 #
edge $-1 $335 0 $335 6.2831853071796004 $140 $336 forward 7 unknown #
vertex $-1 $143 $337 #
ellipse-curve $-1 -60.115409057142095 28.029749436803833 13.222490060057442 -0.80901700255871778 0 0.5877852410284794 0.8816778615427191 0 1.2135255038380768 1 I I #
coedge $-1 $235 $235 $-1 $338 reversed $146 $-1 #
edge $-1 $339 0 $339 6.2831853071796004 $147 $340 forward 7 unknown #
vertex $-1 $150 $341 #
ellipse-curve $-1 -60.115409057142095 32.582604091556895 13.222490060057442 -0.80901700255871778 0 0.5877852410284794 0.8816778615427191 0 1.2135255038380768 1 I I #
coedge $-1 $239 $239 $-1 $342 reversed $153 $-1 #
edge $-1 $343 0 $343 6.2831853071796004 $154 $344 forward 7 unknown #
vertex $-1 $157 $345 #
ellipse-curve $-1 -60.115409057142095 37.135458746309958 13.222490060057442 -0.80901700255871778 0 0.5877852410284794 0.8816778615427191 0 1.2135255038380768 1 I I #
face $-1 $-1 $346 $33 $-1 $347 reversed single #
loop $-1 $-1 $164 $158 #
plane-surface $-1 0 0 21.668813210104613 0 0 1 1 0 0 forward_v I I I I #
coedge $-1 $348 $349 $350 $351 reversed $159 $-1 #
coedge $-1 $352 $161 $163 $253 forward $100 $-1 #
coedge $-1 $161 $352 $348 $353 forward $100 $-1 #
coedge $-1 $350 $164 $161 $250 forward $244 $-1 #
edge $-1 $256 -1.32614344805679 $354 6.5286532893481919 $249 $355 forward 7 unknown #
coedge $-1 $356 $357 $162 $252 forward $346 $-1 #
edge $-1 $358 -89.868178800552769 $255 -70.285769410614918 $251 $359 forward 7 unknown #
edge $-1 $256 94.482759289959318 $358 132.50404370250553 $163 $360 forward 7 unknown #
coedge $-1 $164 $350 $356 $361 forward $244 $-1 #
vertex $-1 $165 $362 #
vertex $-1 $165 $363 #
straight-curve $-1 10.459258709141523 -1.275111472588911 21.668813210104616 -1 0 0 I I #
coedge $-1 $258 $258 $-1 $364 reversed $168 $-1 #
edge $-1 $365 0 $365 6.2831853071796004 $169 $366 forward 7 unknown #
vertex $-1 $172 $367 #
ellipse-curve $-1 49.956721064947821 -6.8856805707353246 11.877608515135691 0.51503808176128008 0 0.85716729658548041 0.85716729658548041 0 -0.51503808176128008 1 I I #
coedge $-1 $262 $262 $-1 $368 reversed $175 $-1 #
edge $-1 $369 0 $369 6.2831853071796004 $176 $370 forward 7 unknown #
vertex $-1 $179 $371 #
ellipse-curve $-1 49.956721064947821 -3.5193391118474793 11.877608515135691 0.51503808176128008 0 0.85716729658548041 0.85716729658548041 0 -0.51503808176128008 1 I I #
face $-1 $-1 $195 $27 $-1 $372 reversed single #
loop $-1 $-1 $282 $180 #
plane-surface $-1 0 45.470800482583805 0 0 -1 0 0 0 -1 forward_v I I I I #
coedge $-1 $373 $280 $283 $374 forward $181 $-1 #
coedge $-1 $286 $183 $184 $274 reversed $114 $-1 #
coedge $-1 $280 $373 $183 $272 reversed $181 $-1 #
edge $-1 $287 -21.668813210104613 $375 21.668813210104613 $271 $376 forward 7 unknown #
coedge $-1 $185 $184 $373 $377 forward $73 $-1 #
edge $-1 $278 -66.252021851252778 $375 66.252021851252778 $270 $378 forward 7 unknown #
coedge $-1 $283 $282 $185 $276 reversed $267 $-1 #
edge $-1 $379 -66.252021851252778 $277 66.252021851252778 $275 $380 forward 7 unknown #
vertex $-1 $187 $381 #
vertex $-1 $289 $382 #
straight-curve $-1 66.252021851252778 0 -21.668813210104613 0 -1 0 I I #
coedge $-1 $269 $271 $188 $281 reversed $181 $-1 #
edge $-1 $284 -45.470800482583805 $287 45.470800482583805 $280 $383 forward 7 unknown #
coedge $-1 $275 $189 $194 $290 forward $267 $-1 #
coedge $-1 $189 $275 $269 $374 reversed $267 $-1 #
vertex $-1 $190 $384 #
straight-curve $-1 0 45.470800482583805 21.668813210104613 -1 0 0 I I #
coedge $-1 $191 $270 $193 $289 reversed $114 $-1 #
vertex $-1 $281 $385 #
straight-curve $-1 0 -45.470800482583805 21.668813210104613 1 0 0 I I #
edge $-1 $196 -21.668813210104613 $278 21.668813210104613 $193 $386 forward 7 unknown #
edge $-1 $197 -21.668813210104613 $277 21.668813210104613 $194 $387 forward 7 unknown #
point $-1 66.252021851252778 -45.470800482583805 21.668813210104613 #
point $-1 66.252021851252778 45.470800482583805 21.668813210104613 #
face $-1 $-1 $303 $28 $-1 $388 reversed single #
loop $-1 $-1 $299 $199 #
plane-surface $-1 0 0 -21.668813210104613 0 0 1 1 0 0 forward_v I I I I #
coedge $-1 $389 $390 $207 $307 forward $200 $-1 #
coedge $-1 $202 $311 $301 $391 forward $122 $-1 #
edge $-1 $305 -26.676942617222579 $212 -10.910773113499872 $202 $392 forward 7 unknown #
coedge $-1 $393 $208 $203 $300 forward $294 $-1 #
edge $-1 $213 10.910773113499872 $304 26.676942617222579 $299 $394 forward 7 unknown #
coedge $-1 $395 $205 $297 $391 reversed $303 $-1 #
coedge $-1 $205 $395 $393 $396 reversed $303 $-1 #
loop $-1 $-1 $205 $293 #
vertex $-1 $396 $397 #
vertex $-1 $206 $398 #
straight-curve $-1 -59.11593483229349 -45.470800482583805 0 0 0 1 I I #
edge $-1 $312 -21.668813210104613 $309 21.668813210104613 $296 $399 forward 7 unknown #
coedge $-1 $208 $393 $389 $400 forward $294 $-1 #
vertex $-1 $209 $401 #
straight-curve $-1 -31.341989170886567 -29.704630978861097 -21.668813210104613 1 0 0 I I #
coedge $-1 $297 $210 $390 $402 forward $122 $-1 #
vertex $-1 $402 $403 #
straight-curve $-1 -31.341989170886567 -29.704630978861097 21.668813210104613 -1 0 0 I I #
point $-1 -59.11593483229349 -29.704630978861097 21.668813210104613 #
point $-1 -59.11593483229349 -29.704630978861097 -21.668813210104613 #
plane-surface $-1 0 0 21.668813210104613 0 0 1 1 0 0 forward_v I I I I #
coedge $-1 $327 $326 $319 $404 forward $216 $-1 #
coedge $-1 $319 $218 $220 $323 reversed $130 $-1 #
coedge $-1 $218 $318 $317 $404 reversed $130 $-1 #
coedge $-1 $226 $221 $218 $321 forward $227 $-1 #
edge $-1 $324 -32.746226794150161 $405 -20.473001205928796 $320 $406 forward 7 unknown #
coedge $-1 $220 $219 $327 $407 reversed $81 $-1 #
edge $-1 $408 -2.4161062406544664e-014 $324 20.880458935556511 $318 $409 forward 7 unknown #
vertex $-1 $222 $410 #
straight-curve $-1 -53.978796263031413 16.291302045778448 21.668813210104613 0 1 0 I I #
coedge $-1 $317 $223 $226 $331 reversed $216 $-1 #
coedge $-1 $223 $317 $322 $407 forward $216 $-1 #
vertex $-1 $224 $411 #
straight-curve $-1 -66.252021851252778 24.994513000301794 41.33004408746784 0 0 1 I I #
straight-curve $-1 -66.252021851252763 24.994513000301794 4.7761669100102893 -0.5877852410284794 0 -0.80901700255871778 I I #
edge $-1 $405 -40.170695182811997 $228 -24.994513000301794 $326 $412 forward 7 unknown #
point $-1 -66.252021851252778 24.994513000301794 21.668813210104613 #
point $-1 -53.978796263031413 24.994513000301794 21.668813210104613 #
edge $-1 $413 1 $413 0 $231 $-1 forward 7 unknown #
vertex $-1 $232 $414 #
ellipse-curve $-1 -57.229753773394684 28.029749436803833 11.125938836636806 -0.80901700255871778 0 0.5877852410284794 0.8816778615427191 0 1.2135255038380768 1 I I #
point $-1 -59.233731195599375 28.029749436803833 14.43601556389552 #
edge $-1 $415 1 $415 0 $235 $-1 forward 7 unknown #
vertex $-1 $236 $416 #
ellipse-curve $-1 -57.229753773394684 32.582604091556895 11.125938836636806 -0.80901700255871778 0 0.5877852410284794 0.8816778615427191 0 1.2135255038380768 1 I I #
point $-1 -59.233731195599375 32.582604091556895 14.43601556389552 #
edge $-1 $417 1 $417 0 $239 $-1 forward 7 unknown #
vertex $-1 $240 $418 #
ellipse-curve $-1 -57.229753773394684 37.135458746309958 11.125938836636806 -0.80901700255871778 0 0.5877852410284794 0.8816778615427191 0 1.2135255038380768 1 I I #
point $-1 -59.233731195599375 37.135458746309958 14.43601556389552 #
loop $-1 $-1 $251 $243 #
plane-surface $-1 66.252021851252778 0 0 -1 0 0 0 0 1 forward_v I I I I #
coedge $-1 $349 $246 $248 $353 reversed $159 $-1 #
coedge $-1 $246 $348 $419 $420 reversed $159 $-1 #
coedge $-1 $254 $249 $246 $351 forward $244 $-1 #
edge $-1 $354 23.202161569501357 $421 55.792763142111255 $350 $422 forward 7 unknown #
coedge $-1 $248 $247 $357 $423 reversed $100 $-1 #
edge $-1 $424 -132.50404370250553 $354 -94.482759289959318 $348 $425 forward 7 unknown #
vertex $-1 $250 $426 #
straight-curve $-1 33.661420278642908 -2.601254920645701 21.668813210104606 0 -1 0 I I #
coedge $-1 $419 $251 $254 $361 reversed $346 $-1 #
coedge $-1 $251 $419 $352 $423 forward $346 $-1 #
vertex $-1 $252 $427 #
straight-curve $-1 66.252021851252778 -1.275111472588911 91.954582620719535 0 0 1 I I #
straight-curve $-1 -47.326111075868241 -1.275111472588911 70.331032314318037 0.85716729658548041 0 -0.51503808176128008 I I #
edge $-1 $421 -9.1299082099938929 $255 -1.275111472588911 $356 $428 forward 7 unknown #
point $-1 66.252021851252778 -1.275111472588911 21.668813210104613 #
point $-1 33.661420278642879 -1.275111472588911 21.668813210104616 #
edge $-1 $429 1 $429 0 $258 $-1 forward 7 unknown #
vertex $-1 $259 $430 #
ellipse-curve $-1 48.775105787491711 -6.8856805707353246 9.911070488437673 0.51503808176128008 0 0.85716729658548041 0.85716729658548041 0 -0.51503808176128008 1 I I #
point $-1 50.813888361533301 -6.8856805707353246 11.362570433374396 #
edge $-1 $431 1 $431 0 $262 $-1 forward 7 unknown #
vertex $-1 $263 $432 #
ellipse-curve $-1 48.775105787491711 -3.5193391118474793 9.911070488437673 0.51503808176128008 0 0.85716729658548041 0.85716729658548041 0 -0.51503808176128008 1 I I #
point $-1 50.813888361533301 -3.5193391118474793 11.362570433374396 #
plane-surface $-1 66.252021851252778 0 0 -1 0 0 0 0 1 forward_v I I I I #
coedge $-1 $271 $269 $273 $377 reversed $181 $-1 #
edge $-1 $284 -21.668813210104613 $379 21.668813210104613 $283 $433 forward 7 unknown #
vertex $-1 $377 $434 #
straight-curve $-1 -66.252021851252778 -45.470800482583805 0 0 0 -1 I I #
edge $-1 $375 -45.470800482583805 $379 45.470800482583805 $373 $435 forward 7 unknown #
straight-curve $-1 0 -45.470800482583805 -21.668813210104613 -1 0 0 I I #
vertex $-1 $276 $436 #
straight-curve $-1 0 45.470800482583805 -21.668813210104613 1 0 0 I I #
point $-1 66.252021851252778 45.470800482583805 -21.668813210104613 #
point $-1 66.252021851252778 -45.470800482583805 -21.668813210104613 #
straight-curve $-1 -66.252021851252778 0 21.668813210104613 0 -1 0 I I #
point $-1 -66.252021851252778 45.470800482583805 21.668813210104613 #
point $-1 -66.252021851252778 -45.470800482583805 21.668813210104613 #
straight-curve $-1 66.252021851252778 -45.470800482583805 0 0 0 -1 I I #
straight-curve $-1 66.252021851252778 45.470800482583805 0 0 0 -1 I I #
plane-surface $-1 0 -45.470800482583805 0 0 1 0 0 0 1 forward_v I I I I #
coedge $-1 $437 $296 $308 $400 reversed $200 $-1 #
coedge $-1 $296 $437 $311 $402 reversed $200 $-1 #
edge $-1 $438 -66.252021851252778 $305 -59.11593483229349 $301 $439 forward 7 unknown #
straight-curve $-1 -59.11593483229349 -18.793857865361225 21.668813210104613 0 1 0 I I #
coedge $-1 $308 $299 $302 $396 forward $294 $-1 #
straight-curve $-1 -59.11593483229349 -18.793857865361225 -21.668813210104613 0 -1 0 I I #
coedge $-1 $302 $301 $437 $440 forward $303 $-1 #
edge $-1 $304 59.11593483229349 $441 66.252021851252778 $302 $442 forward 7 unknown #
point $-1 -59.11593483229349 -45.470800482583805 -21.668813210104613 #
point $-1 -59.11593483229349 -45.470800482583805 21.668813210104613 #
straight-curve $-1 -66.252021851252778 -29.704630978861097 0 0 0 -1 I I #
edge $-1 $441 -45.470800482583805 $309 -29.704630978861097 $389 $443 forward 7 unknown #
point $-1 -66.252021851252778 -29.704630978861097 -21.668813210104613 #
edge $-1 $312 29.704630978861097 $438 45.470800482583805 $390 $444 forward 7 unknown #
point $-1 -66.252021851252778 -29.704630978861097 21.668813210104613 #
edge $-1 $405 19.661230877363227 $408 36.553877177457572 $317 $445 forward 7 unknown #
vertex $-1 $331 $446 #
straight-curve $-1 -86.725023057181573 40.170695182811997 21.668813210104613 -1 0 0 I I #
edge $-1 $408 -23.879393137033549 $328 -8.703210954523346 $327 $447 forward 7 unknown #
vertex $-1 $407 $448 #
straight-curve $-1 -66.252021851252763 40.170695182811997 4.7761669100102893 0.5877852410284794 0 0.80901700255871778 I I #
point $-1 -53.978796263031413 40.170695182811997 21.668813210104613 #
point $-1 -66.252021851252778 24.994513000301794 4.7761669100102697 #
straight-curve $-1 -66.252021851252778 0 21.668813210104613 0 -1 0 I I #
vertex $-1 $334 $449 #
point $-1 -56.348075911851971 28.029749436803833 12.339464340474882 #
vertex $-1 $338 $450 #
point $-1 -56.348075911851971 32.582604091556895 12.339464340474882 #
vertex $-1 $342 $451 #
point $-1 -56.348075911851971 37.135458746309958 12.339464340474882 #
coedge $-1 $357 $356 $349 $420 forward $346 $-1 #
edge $-1 $421 70.285769410614918 $424 89.868178800552769 $419 $452 forward 7 unknown #
vertex $-1 $361 $453 #
straight-curve $-1 10.459258709141523 -9.1299082099938929 21.668813210104616 1 0 0 I I #
edge $-1 $424 -6.5286532893481919 $358 1.32614344805679 $357 $454 forward 7 unknown #
vertex $-1 $423 $455 #
straight-curve $-1 -47.326111075868241 -9.1299082099938929 70.331032314318037 -0.85716729658548041 0 0.51503808176128008 I I #
point $-1 33.661420278642879 -9.1299082099938929 21.668813210104616 #
point $-1 66.252021851252778 -1.275111472588911 2.0864038201667654 #
straight-curve $-1 66.252021851252778 0 21.668813210104613 0 1 0 I I #
vertex $-1 $364 $456 #
point $-1 49.632273084077191 -6.8856805707353246 9.3960324066763938 #
vertex $-1 $368 $457 #
point $-1 49.632273084077191 -3.5193391118474793 9.3960324066763938 #
straight-curve $-1 -66.252021851252778 45.470800482583805 0 0 0 -1 I I #
point $-1 -66.252021851252778 -45.470800482583805 -21.668813210104613 #
straight-curve $-1 -66.252021851252778 0 -21.668813210104613 0 1 0 I I #
point $-1 -66.252021851252778 45.470800482583805 -21.668813210104613 #
coedge $-1 $390 $389 $395 $440 reversed $200 $-1 #
vertex $-1 $402 $458 #
straight-curve $-1 0 -45.470800482583805 21.668813210104613 1 0 0 I I #
edge $-1 $438 -21.668813210104613 $441 21.668813210104613 $437 $459 forward 7 unknown #
vertex $-1 $400 $460 #
straight-curve $-1 0 -45.470800482583805 -21.668813210104613 -1 0 0 I I #
straight-curve $-1 -66.252021851252778 0 -21.668813210104613 0 1 0 I I #
straight-curve $-1 -66.252021851252778 0 21.668813210104613 0 -1 0 I I #
straight-curve $-1 -66.252021851252778 40.170695182811997 41.33004408746784 0 0 -1 I I #
point $-1 -66.252021851252778 40.170695182811997 21.668813210104613 #
straight-curve $-1 -66.252021851252778 16.291302045778448 4.7761669100102733 0 -1 0 I I #
point $-1 -66.252021851252778 40.170695182811997 4.7761669100102697 #
point $-1 -56.016228269556613 28.029749436803833 10.244260975094086 #
point $-1 -56.016228269556613 32.582604091556895 10.244260975094086 #
point $-1 -56.016228269556613 37.135458746309958 10.244260975094086 #
straight-curve $-1 66.252021851252778 -9.1299082099938929 91.954582620719535 0 0 -1 I I #
point $-1 66.252021851252778 -9.1299082099938929 21.668813210104613 #
straight-curve $-1 66.252021851252778 -2.601254920645701 2.0864038201667654 0 1 0 I I #
point $-1 66.252021851252778 -9.1299082099938929 2.0864038201667654 #
point $-1 48.260067705730435 -6.8856805707353246 9.0539031918521928 #
point $-1 48.260067705730435 -3.5193391118474793 9.0539031918521928 #
point $-1 -66.252021851252778 -45.470800482583805 21.668813210104613 #
straight-curve $-1 -66.252021851252778 -45.470800482583805 0 0 0 -1 I I #
point $-1 -66.252021851252778 -45.470800482583805 -21.668813210104613 #
End-of-ACIS-data 