500 0 8 0           
7 Unknown 11 ACIS 5.0 NT 24 Fri Mar 26 17:25:16 1999 
-1 9.9999999999999995e-007 1e-010 
body $-1 $8 $-1 $9 #
body $-1 $10 $-1 $11 #
body $-1 $12 $-1 $13 #
body $-1 $14 $-1 $15 #
body $-1 $16 $-1 $17 #
body $-1 $18 $-1 $19 #
body $-1 $20 $-1 $21 #
body $-1 $22 $-1 $23 #
lump $-1 $-1 $24 $0 #
transform $-1 1 0 0 0 1 0 0 0 1 75.73107089449752 40.759388221900089 10.946210042880837 1 rotate no_reflect no_shear #
lump $-1 $-1 $25 $1 #
transform $-1 1 0 0 0 1 0 0 0 1 75.73107089449752 40.759388221900089 10.946210042880837 1 rotate no_reflect no_shear #
lump $-1 $-1 $26 $2 #
transform $-1 1 0 0 0 1 0 0 0 1 75.73107089449752 40.759388221900089 10.946210042880837 1 rotate no_reflect no_shear #
lump $-1 $-1 $27 $3 #
transform $-1 1 0 0 0 1 0 0 0 1 75.73107089449752 40.759388221900089 10.946210042880837 1 rotate no_reflect no_shear #
lump $-1 $-1 $28 $4 #
transform $-1 1 0 0 0 1 0 0 0 1 75.73107089449752 40.759388221900089 10.946210042880837 1 rotate no_reflect no_shear #
lump $-1 $-1 $29 $5 #
transform $-1 1 0 0 0 1 0 0 0 1 75.73107089449752 40.759388221900089 10.946210042880837 1 rotate no_reflect no_shear #
lump $-1 $-1 $30 $6 #
transform $-1 1 0 0 0 1 0 0 0 1 75.73107089449752 40.759388221900089 10.946210042880837 1 rotate no_reflect no_shear #
lump $-1 $-1 $31 $7 #
transform $-1 1 0 0 0 1 0 0 0 1 75.73107089449752 40.759388221900089 10.946210042880837 1 rotate no_reflect no_shear #
shell $-1 $-1 $-1 $32 $-1 $8 #
shell $-1 $-1 $-1 $33 $-1 $10 #
shell $-1 $-1 $-1 $34 $-1 $12 #
shell $-1 $-1 $-1 $35 $-1 $14 #
shell $-1 $-1 $-1 $36 $-1 $16 #
shell $-1 $-1 $-1 $37 $-1 $18 #
shell $-1 $-1 $-1 $38 $-1 $20 #
shell $-1 $-1 $-1 $39 $-1 $22 #
face $-1 $40 $41 $24 $-1 $42 forward single #
face $-1 $43 $44 $25 $-1 $45 forward single #
face $-1 $46 $47 $26 $-1 $48 reversed single #
face $-1 $49 $50 $27 $-1 $51 forward single #
face $-1 $52 $53 $28 $-1 $54 forward single #
face $-1 $55 $56 $29 $-1 $57 reversed single #
face $-1 $58 $59 $30 $-1 $60 forward single #
face $-1 $61 $62 $31 $-1 $63 forward single #
face $-1 $64 $65 $24 $-1 $66 reversed single #
loop $-1 $-1 $67 $32 #
plane-surface $-1 0 0 10.946210042880837 0 0 1 1 0 0 forward_v I I I I #
face $-1 $68 $69 $25 $-1 $70 reversed single #
loop $-1 $-1 $71 $33 #
plane-surface $-1 0 -36.582377005945958 -7.9462100428808373 0 0 1 1 0 0 forward_v I I I I #
face $-1 $72 $73 $26 $-1 $74 reversed single #
loop $-1 $-1 $75 $34 #
plane-surface $-1 -27.779923484926655 72.725616325067222 174.40805664881609 1 0 0 0 -0.62932039886446345 -0.77714595512881146 forward_v I I I I #
face $-1 $76 $77 $27 $-1 $78 forward single #
loop $-1 $79 $80 $35 #
cone-surface $-1 -19.842802489233321 35.902794479867083 6.4050261627063865 0 -0.62932039886446345 -0.77714595512881146 2 0 0 1 I I 0 1 2 forward I I I I #
face $-1 $81 $82 $28 $-1 $83 forward single #
loop $-1 $84 $85 $36 #
cone-surface $-1 -7.93712099569332 35.902794479867083 6.4050261627063865 0 -0.62932039886446345 -0.77714595512881146 2 0 0 1 I I 0 1 2 forward I I I I #
face $-1 $86 $87 $29 $-1 $88 reversed single #
loop $-1 $-1 $89 $37 #
plane-surface $-1 -13.889961742463328 -22.592599158449062 56.699865802352065 0 0.62932039886446345 0.77714595512881146 1 0 0 forward_v I I I I #
face $-1 $90 $91 $30 $-1 $92 forward single #
loop $-1 $93 $94 $38 #
cone-surface $-1 7.9371209956933342 35.902794479867083 6.4050261627063865 0 -0.62932039886446345 -0.77714595512881146 2 0 0 1 I I 0 1 2 forward I I I I #
face $-1 $95 $96 $31 $-1 $97 forward single #
loop $-1 $98 $99 $39 #
cone-surface $-1 19.842802489233335 35.902794479867083 6.4050261627063865 0 -0.62932039886446345 -0.77714595512881146 2 0 0 1 I I 0 1 2 forward I I I I #
face $-1 $100 $101 $24 $-1 $102 reversed single #
loop $-1 $-1 $103 $40 #
plane-surface $-1 0 0 -10.946210042880837 0 0 1 1 0 0 forward_v I I I I #
coedge $-1 $104 $105 $106 $107 forward $41 $-1 #
face $-1 $108 $109 $25 $-1 $110 reversed single #
loop $-1 $-1 $111 $43 #
plane-surface $-1 0 -32.405365789991819 -9.4462100428808373 0 -1 0 0 0 -1 forward_v I I I I #
coedge $-1 $112 $113 $114 $115 reversed $44 $-1 #
face $-1 $116 $117 $26 $-1 $118 reversed single #
loop $-1 $-1 $119 $46 #
plane-surface $-1 -13.889961742463328 -22.592599158449062 56.699865802352065 0 0.62932039886446345 0.77714595512881146 1 0 0 forward_v I I I I #
coedge $-1 $120 $121 $122 $123 reversed $47 $-1 #
face $-1 $-1 $124 $27 $-1 $125 forward single #
loop $-1 $126 $127 $49 #
cone-surface $-1 -19.842802489233321 33.842344910758605 3.8605829009451877 0 -0.62932039886446345 -0.77714595512881146 1 0 0 1 I I -0.70710678118654746 0.70710678118654746 1 forward I I I I #
loop $-1 $-1 $128 $35 #
coedge $-1 $80 $80 $129 $130 reversed $50 $-1 #
face $-1 $-1 $131 $28 $-1 $132 forward single #
loop $-1 $133 $134 $52 #
cone-surface $-1 -7.93712099569332 33.842344910758605 3.8605829009451877 0 -0.62932039886446345 -0.77714595512881146 1 0 0 1 I I -0.70710678118654746 0.70710678118654746 1 forward I I I I #
loop $-1 $-1 $135 $36 #
coedge $-1 $85 $85 $136 $137 reversed $53 $-1 #
face $-1 $138 $139 $29 $-1 $140 forward single #
loop $-1 $-1 $141 $55 #
plane-surface $-1 27.779923484926655 72.725616325067222 174.40805664881609 -1 0 0 0 0.62932039886446345 0.77714595512881146 forward_v I I I I #
coedge $-1 $142 $143 $144 $145 reversed $56 $-1 #
face $-1 $-1 $146 $30 $-1 $147 forward single #
loop $-1 $148 $149 $58 #
cone-surface $-1 7.9371209956933342 33.842344910758605 3.8605829009451877 0 -0.62932039886446345 -0.77714595512881146 1 0 0 1 I I -0.70710678118654746 0.70710678118654746 1 forward I I I I #
loop $-1 $-1 $150 $38 #
coedge $-1 $94 $94 $151 $152 reversed $59 $-1 #
face $-1 $-1 $153 $31 $-1 $154 forward single #
loop $-1 $155 $156 $61 #
cone-surface $-1 19.842802489233335 33.842344910758605 3.8605829009451877 0 -0.62932039886446345 -0.77714595512881146 1 0 0 1 I I -0.70710678118654746 0.70710678118654746 1 forward I I I I #
loop $-1 $-1 $157 $39 #
coedge $-1 $99 $99 $158 $159 reversed $62 $-1 #
face $-1 $160 $161 $24 $-1 $162 reversed single #
loop $-1 $-1 $163 $64 #
plane-surface $-1 0 -40.759388221900089 0 0 1 0 0 0 1 forward_v I I I I #
coedge $-1 $164 $165 $166 $167 forward $65 $-1 #
coedge $-1 $168 $67 $169 $170 forward $41 $-1 #
coedge $-1 $67 $168 $171 $172 forward $41 $-1 #
coedge $-1 $173 $174 $67 $107 reversed $175 $-1 #
edge $-1 $176 -40.759388221900089 $177 40.759388221900089 $106 $178 forward 7 unknown #
face $-1 $179 $180 $25 $-1 $181 reversed single #
loop $-1 $-1 $182 $68 #
plane-surface $-1 0 0 -10.946210042880837 0 0 1 1 0 0 forward_v I I I I #
coedge $-1 $183 $184 $185 $186 reversed $69 $-1 #
coedge $-1 $187 $71 $184 $188 forward $44 $-1 #
coedge $-1 $71 $187 $189 $190 reversed $44 $-1 #
coedge $-1 $191 $185 $71 $115 forward $180 $-1 #
edge $-1 $192 14.11417728701884 $193 22.468199718927117 $114 $194 forward 7 unknown #
face $-1 $195 $196 $26 $-1 $197 reversed single #
loop $-1 $-1 $198 $72 #
plane-surface $-1 0 72.725616325067222 174.40805664881609 -1 0 0 0 0.62932039886446345 0.77714595512881146 forward_v I I I I #
coedge $-1 $199 $200 $201 $202 reversed $73 $-1 #
coedge $-1 $121 $75 $203 $204 reversed $47 $-1 #
coedge $-1 $75 $120 $199 $205 reversed $47 $-1 #
coedge $-1 $201 $206 $75 $123 forward $207 $-1 #
edge $-1 $208 -4.3965800593664781 $209 2.4543490842114934 $122 $210 forward 7 unknown #
loop $-1 $-1 $129 $76 #
plane-surface $-1 -13.889961742463328 -22.592599158449062 56.699865802352065 0 0.62932039886446345 0.77714595512881146 1 0 0 forward_v I I I I #
loop $-1 $-1 $211 $49 #
coedge $-1 $127 $127 $128 $212 reversed $77 $-1 #
coedge $-1 $128 $128 $127 $212 forward $79 $-1 #
coedge $-1 $129 $129 $80 $130 forward $124 $-1 #
edge $-1 $213 -5.2518187581664207e-016 $213 6.2831853071795996 $129 $214 forward 7 unknown #
loop $-1 $-1 $136 $81 #
plane-surface $-1 -13.889961742463328 -22.592599158449062 56.699865802352065 0 0.62932039886446345 0.77714595512881146 1 0 0 forward_v I I I I #
loop $-1 $-1 $215 $52 #
coedge $-1 $134 $134 $135 $216 reversed $82 $-1 #
coedge $-1 $135 $135 $134 $216 forward $84 $-1 #
coedge $-1 $136 $136 $85 $137 forward $131 $-1 #
edge $-1 $217 -5.2518187581664207e-016 $217 6.2831853071795996 $136 $218 forward 7 unknown #
face $-1 $219 $220 $29 $-1 $221 forward single #
loop $-1 $-1 $222 $86 #
plane-surface $-1 0 0 10.946210042880837 0 0 1 1 0 0 forward_v I I I I #
coedge $-1 $223 $224 $225 $226 reversed $87 $-1 #
coedge $-1 $227 $89 $228 $229 reversed $56 $-1 #
coedge $-1 $89 $227 $222 $230 reversed $56 $-1 #
coedge $-1 $231 $232 $89 $145 forward $220 $-1 #
edge $-1 $233 -81.518776443800178 $234 -72.70327776126193 $144 $235 forward 7 unknown #
loop $-1 $-1 $151 $90 #
plane-surface $-1 -13.889961742463328 -22.592599158449062 56.699865802352065 0 0.62932039886446345 0.77714595512881146 1 0 0 forward_v I I I I #
loop $-1 $-1 $236 $58 #
coedge $-1 $149 $149 $150 $237 reversed $91 $-1 #
coedge $-1 $150 $150 $149 $237 forward $93 $-1 #
coedge $-1 $151 $151 $94 $152 forward $146 $-1 #
edge $-1 $238 -5.2518187581664207e-016 $238 6.2831853071795996 $151 $239 forward 7 unknown #
loop $-1 $-1 $158 $95 #
plane-surface $-1 -13.889961742463328 -22.592599158449062 56.699865802352065 0 0.62932039886446345 0.77714595512881146 1 0 0 forward_v I I I I #
loop $-1 $-1 $240 $61 #
coedge $-1 $156 $156 $157 $241 reversed $96 $-1 #
coedge $-1 $157 $157 $156 $241 forward $98 $-1 #
coedge $-1 $158 $158 $99 $159 forward $153 $-1 #
edge $-1 $242 -5.2518187581664207e-016 $242 6.2831853071795996 $158 $243 forward 7 unknown #
face $-1 $244 $245 $24 $-1 $246 reversed single #
loop $-1 $-1 $247 $100 #
plane-surface $-1 -75.73107089449752 0 0 1 0 0 0 0 -1 forward_v I I I I #
coedge $-1 $248 $171 $249 $250 forward $101 $-1 #
coedge $-1 $251 $103 $248 $252 forward $65 $-1 #
coedge $-1 $103 $251 $253 $254 forward $65 $-1 #
coedge $-1 $174 $173 $103 $167 reversed $175 $-1 #
edge $-1 $255 -40.759388221900089 $256 40.759388221900089 $166 $257 forward 7 unknown #
coedge $-1 $105 $104 $258 $259 forward $41 $-1 #
coedge $-1 $260 $261 $104 $170 reversed $245 $-1 #
edge $-1 $177 -75.73107089449752 $262 75.73107089449752 $169 $263 forward 7 unknown #
coedge $-1 $163 $264 $105 $172 reversed $101 $-1 #
edge $-1 $265 -75.73107089449752 $176 75.73107089449752 $171 $266 forward 7 unknown #
coedge $-1 $166 $106 $264 $267 forward $175 $-1 #
coedge $-1 $106 $166 $260 $268 reversed $175 $-1 #
loop $-1 $-1 $173 $244 #
vertex $-1 $107 $269 #
vertex $-1 $107 $270 #
straight-curve $-1 75.73107089449752 0 10.946210042880837 0 1 0 I I #
face $-1 $271 $272 $25 $-1 $273 reversed single #
loop $-1 $-1 $185 $108 #
plane-surface $-1 75.73107089449752 0 0 -1 0 0 0 0 1 forward_v I I I I #
coedge $-1 $274 $275 $183 $276 forward $109 $-1 #
coedge $-1 $277 $111 $182 $276 reversed $69 $-1 #
coedge $-1 $111 $277 $112 $188 reversed $69 $-1 #
coedge $-1 $114 $278 $111 $186 forward $180 $-1 #
edge $-1 $279 -6.2231050214404187 $192 -3.2231050214404187 $185 $280 forward 7 unknown #
coedge $-1 $113 $112 $281 $282 reversed $44 $-1 #
edge $-1 $192 -75.73107089449752 $283 75.73107089449752 $184 $284 forward 7 unknown #
coedge $-1 $285 $286 $113 $190 forward $272 $-1 #
edge $-1 $193 -75.73107089449752 $287 75.73107089449752 $189 $288 forward 7 unknown #
coedge $-1 $278 $114 $286 $289 forward $180 $-1 #
vertex $-1 $115 $290 #
vertex $-1 $289 $291 #
straight-curve $-1 75.73107089449752 -18.291188502972979 -7.9462100428808373 0 -1 0 I I #
face $-1 $-1 $207 $26 $-1 $292 forward single #
loop $-1 $-1 $293 $116 #
plane-surface $-1 0 40.759388221900089 0 0 -1 0 0 0 -1 forward_v I I I I #
coedge $-1 $294 $295 $296 $297 reversed $117 $-1 #
coedge $-1 $298 $119 $121 $205 forward $73 $-1 #
coedge $-1 $119 $298 $294 $299 forward $73 $-1 #
coedge $-1 $296 $122 $119 $202 forward $207 $-1 #
edge $-1 $209 -20.834942613694992 $300 6.9449808712316639 $201 $301 forward 7 unknown #
coedge $-1 $302 $303 $120 $204 forward $196 $-1 #
edge $-1 $304 -81.805591428611336 $208 -76.257818281527207 $203 $305 forward 7 unknown #
edge $-1 $209 72.70327776126193 $304 81.518776443800178 $121 $306 forward 7 unknown #
coedge $-1 $122 $296 $302 $307 forward $207 $-1 #
loop $-1 $-1 $296 $195 #
vertex $-1 $204 $308 #
vertex $-1 $123 $309 #
straight-curve $-1 -27.779923484926655 36.362808162533611 10.946210042880836 0 -1 0 I I #
coedge $-1 $211 $211 $-1 $310 reversed $126 $-1 #
edge $-1 $311 0 $311 6.2831853071796004 $127 $312 forward 7 unknown #
vertex $-1 $130 $313 #
ellipse-curve $-1 -19.842802489233321 37.333923650111096 8.1723234693387781 0 0.62932039886446345 0.77714595512881146 2 0 0 1 I I #
coedge $-1 $215 $215 $-1 $314 reversed $133 $-1 #
edge $-1 $315 0 $315 6.2831853071796004 $134 $316 forward 7 unknown #
vertex $-1 $137 $317 #
ellipse-curve $-1 -7.93712099569332 37.333923650111096 8.1723234693387781 0 0.62932039886446345 0.77714595512881146 2 0 0 1 I I #
face $-1 $-1 $318 $29 $-1 $319 reversed single #
loop $-1 $-1 $231 $138 #
plane-surface $-1 0 72.725616325067222 174.40805664881609 -1 0 0 0 0.62932039886446345 0.77714595512881146 forward_v I I I I #
coedge $-1 $225 $320 $143 $230 forward $139 $-1 #
coedge $-1 $224 $141 $227 $321 reversed $87 $-1 #
coedge $-1 $141 $223 $322 $323 reversed $87 $-1 #
coedge $-1 $324 $222 $141 $226 forward $139 $-1 #
edge $-1 $325 -2.4543490842114934 $326 4.3965800593664781 $225 $327 forward 7 unknown #
coedge $-1 $143 $142 $223 $321 forward $56 $-1 #
coedge $-1 $328 $322 $142 $229 forward $318 $-1 #
edge $-1 $329 -34.724904356158319 $233 -6.9449808712316639 $228 $330 forward 7 unknown #
edge $-1 $234 6.9449808712316639 $325 34.724904356158319 $222 $331 forward 7 unknown #
coedge $-1 $232 $144 $320 $332 reversed $220 $-1 #
coedge $-1 $144 $231 $328 $333 reversed $220 $-1 #
vertex $-1 $229 $334 #
vertex $-1 $230 $335 #
straight-curve $-1 0 -22.592599158449062 56.699865802352065 0 -0.77714595512881146 0.62932039886446345 I I #
coedge $-1 $236 $236 $-1 $336 reversed $148 $-1 #
edge $-1 $337 0 $337 6.2831853071796004 $149 $338 forward 7 unknown #
vertex $-1 $152 $339 #
ellipse-curve $-1 7.9371209956933342 37.333923650111096 8.1723234693387781 0 0.62932039886446345 0.77714595512881146 2 0 0 1 I I #
coedge $-1 $240 $240 $-1 $340 reversed $155 $-1 #
edge $-1 $341 0 $341 6.2831853071796004 $156 $342 forward 7 unknown #
vertex $-1 $159 $343 #
ellipse-curve $-1 19.842802489233335 37.333923650111096 8.1723234693387781 0 0.62932039886446345 0.77714595512881146 2 0 0 1 I I #
face $-1 $-1 $175 $24 $-1 $344 reversed single #
loop $-1 $-1 $260 $160 #
plane-surface $-1 0 40.759388221900089 0 0 -1 0 0 0 -1 forward_v I I I I #
coedge $-1 $345 $258 $261 $346 forward $161 $-1 #
coedge $-1 $264 $163 $164 $252 reversed $101 $-1 #
coedge $-1 $258 $345 $163 $250 reversed $161 $-1 #
edge $-1 $265 -10.946210042880837 $347 10.946210042880837 $249 $348 forward 7 unknown #
coedge $-1 $165 $164 $345 $349 forward $65 $-1 #
edge $-1 $256 -75.73107089449752 $347 75.73107089449752 $248 $350 forward 7 unknown #
coedge $-1 $261 $260 $165 $254 reversed $245 $-1 #
edge $-1 $351 -75.73107089449752 $255 75.73107089449752 $253 $352 forward 7 unknown #
vertex $-1 $167 $353 #
vertex $-1 $267 $354 #
straight-curve $-1 75.73107089449752 0 -10.946210042880837 0 -1 0 I I #
coedge $-1 $247 $249 $168 $259 reversed $161 $-1 #
edge $-1 $262 -40.759388221900089 $265 40.759388221900089 $258 $355 forward 7 unknown #
coedge $-1 $253 $169 $174 $268 forward $245 $-1 #
coedge $-1 $169 $253 $247 $346 reversed $245 $-1 #
vertex $-1 $170 $356 #
straight-curve $-1 0 40.759388221900089 10.946210042880837 -1 0 0 I I #
coedge $-1 $171 $248 $173 $267 reversed $101 $-1 #
vertex $-1 $259 $357 #
straight-curve $-1 0 -40.759388221900089 10.946210042880837 1 0 0 I I #
edge $-1 $176 -10.946210042880837 $256 10.946210042880837 $173 $358 forward 7 unknown #
edge $-1 $177 -10.946210042880837 $255 10.946210042880837 $174 $359 forward 7 unknown #
point $-1 75.73107089449752 -40.759388221900089 10.946210042880837 #
point $-1 75.73107089449752 40.759388221900089 10.946210042880837 #
face $-1 $-1 $360 $25 $-1 $361 reversed single #
loop $-1 $-1 $189 $179 #
plane-surface $-1 0 -40.759388221900089 0 0 1 0 0 0 1 forward_v I I I I #
coedge $-1 $362 $182 $278 $363 forward $109 $-1 #
coedge $-1 $182 $362 $364 $365 forward $109 $-1 #
edge $-1 $366 -75.73107089449752 $279 75.73107089449752 $182 $367 forward 7 unknown #
coedge $-1 $184 $183 $368 $369 reversed $69 $-1 #
coedge $-1 $185 $191 $274 $363 reversed $180 $-1 #
vertex $-1 $363 $370 #
straight-curve $-1 75.73107089449752 -32.405365789991819 -4.7231050214404187 0 0 1 I I #
coedge $-1 $368 $371 $187 $282 forward $360 $-1 #
edge $-1 $287 -22.468199718927117 $283 -14.11417728701884 $281 $372 forward 7 unknown #
vertex $-1 $282 $373 #
straight-curve $-1 0 -32.405365789991819 -7.9462100428808373 -1 0 0 I I #
coedge $-1 $374 $189 $371 $375 forward $272 $-1 #
coedge $-1 $189 $374 $191 $289 reversed $272 $-1 #
vertex $-1 $375 $376 #
straight-curve $-1 0 -40.759388221900089 -7.9462100428808373 -1 0 0 I I #
edge $-1 $193 7.9462100428808373 $377 10.946210042880837 $191 $378 forward 7 unknown #
point $-1 75.73107089449752 -32.405365789991819 -7.9462100428808373 #
point $-1 75.73107089449752 -40.759388221900096 -7.9462100428808373 #
plane-surface $-1 0 0 10.946210042880837 0 0 1 1 0 0 forward_v I I I I #
coedge $-1 $303 $302 $295 $379 forward $196 $-1 #
coedge $-1 $295 $198 $200 $299 reversed $117 $-1 #
coedge $-1 $198 $294 $293 $379 reversed $117 $-1 #
coedge $-1 $206 $201 $198 $297 forward $207 $-1 #
edge $-1 $300 -2.4543490842114934 $380 4.3965800593664781 $296 $381 forward 7 unknown #
coedge $-1 $200 $199 $303 $382 reversed $73 $-1 #
edge $-1 $383 -81.518776443800178 $300 -72.70327776126193 $294 $384 forward 7 unknown #
vertex $-1 $202 $385 #
straight-curve $-1 -6.9449808712316639 33.90845907832211 10.946210042880836 1 0 0 I I #
coedge $-1 $293 $203 $206 $307 reversed $196 $-1 #
coedge $-1 $203 $293 $298 $382 forward $196 $-1 #
vertex $-1 $204 $386 #
straight-curve $-1 -27.779923484926655 40.759388221900089 87.204028324408043 0 0 1 I I #
straight-curve $-1 -27.779923484926655 -22.592599158449062 56.699865802352065 0 0.77714595512881146 -0.62932039886446345 I I #
edge $-1 $380 0 $208 27.779923484926655 $302 $387 forward 7 unknown #
point $-1 -27.779923484926655 40.759388221900089 10.946210042880837 #
point $-1 -27.779923484926655 33.908459078322117 10.946210042880828 #
edge $-1 $388 1 $388 0 $211 $-1 forward 7 unknown #
vertex $-1 $212 $389 #
ellipse-curve $-1 -19.842802489233321 34.47166530962307 4.6377288560739993 0 0.62932039886446345 0.77714595512881146 2 0 0 1 I I #
point $-1 -17.842802489233321 37.333923650111089 8.172323469338771 #
edge $-1 $390 1 $390 0 $215 $-1 forward 7 unknown #
vertex $-1 $216 $391 #
ellipse-curve $-1 -7.93712099569332 34.47166530962307 4.6377288560739993 0 0.62932039886446345 0.77714595512881146 2 0 0 1 I I #
point $-1 -5.93712099569332 37.333923650111089 8.172323469338771 #
loop $-1 $-1 $228 $219 #
plane-surface $-1 0 40.759388221900089 0 0 -1 0 0 0 -1 forward_v I I I I #
coedge $-1 $222 $324 $231 $332 forward $139 $-1 #
edge $-1 $329 -81.518776443800178 $325 -72.70327776126193 $223 $392 forward 7 unknown #
coedge $-1 $228 $393 $224 $323 forward $318 $-1 #
edge $-1 $326 76.257818281527207 $329 81.805591428611336 $322 $394 forward 7 unknown #
coedge $-1 $320 $225 $393 $395 forward $139 $-1 #
vertex $-1 $226 $396 #
vertex $-1 $395 $397 #
straight-curve $-1 27.779923484926655 36.362808162533611 10.946210042880836 0 1 0 I I #
coedge $-1 $393 $228 $232 $333 forward $318 $-1 #
vertex $-1 $323 $398 #
straight-curve $-1 -6.9449808712316639 40.759388221900089 5.3984368957967028 -1 0 0 I I #
straight-curve $-1 -6.9449808712316639 33.90845907832211 10.946210042880836 1 0 0 I I #
edge $-1 $399 -4.3965800593664781 $234 2.4543490842114934 $320 $400 forward 7 unknown #
edge $-1 $233 -81.805591428611336 $399 -76.257818281527207 $328 $401 forward 7 unknown #
point $-1 0 40.759388221900082 5.3984368957967064 #
point $-1 0 33.908459078322117 10.946210042880828 #
edge $-1 $402 1 $402 0 $236 $-1 forward 7 unknown #
vertex $-1 $237 $403 #
ellipse-curve $-1 7.9371209956933342 34.47166530962307 4.6377288560739993 0 0.62932039886446345 0.77714595512881146 2 0 0 1 I I #
point $-1 9.9371209956933342 37.333923650111089 8.172323469338771 #
edge $-1 $404 1 $404 0 $240 $-1 forward 7 unknown #
vertex $-1 $241 $405 #
ellipse-curve $-1 19.842802489233335 34.47166530962307 4.6377288560739993 0 0.62932039886446345 0.77714595512881146 2 0 0 1 I I #
point $-1 21.842802489233335 37.333923650111089 8.172323469338771 #
plane-surface $-1 75.73107089449752 0 0 -1 0 0 0 0 1 forward_v I I I I #
coedge $-1 $249 $247 $251 $349 reversed $161 $-1 #
edge $-1 $262 -10.946210042880837 $351 10.946210042880837 $261 $406 forward 7 unknown #
vertex $-1 $349 $407 #
straight-curve $-1 -75.73107089449752 -40.759388221900089 0 0 0 -1 I I #
edge $-1 $347 -40.759388221900089 $351 40.759388221900089 $345 $408 forward 7 unknown #
straight-curve $-1 0 -40.759388221900089 -10.946210042880837 -1 0 0 I I #
vertex $-1 $254 $409 #
straight-curve $-1 0 40.759388221900089 -10.946210042880837 1 0 0 I I #
point $-1 75.73107089449752 40.759388221900089 -10.946210042880837 #
point $-1 75.73107089449752 -40.759388221900089 -10.946210042880837 #
straight-curve $-1 -75.73107089449752 0 10.946210042880837 0 -1 0 I I #
point $-1 -75.73107089449752 40.759388221900089 10.946210042880837 #
point $-1 -75.73107089449752 -40.759388221900089 10.946210042880837 #
straight-curve $-1 75.73107089449752 -40.759388221900089 0 0 0 -1 I I #
straight-curve $-1 75.73107089449752 40.759388221900089 0 0 0 -1 I I #
loop $-1 $-1 $368 $271 #
plane-surface $-1 -75.73107089449752 0 0 1 0 0 0 0 -1 forward_v I I I I #
coedge $-1 $275 $274 $374 $410 forward $109 $-1 #
edge $-1 $279 32.405365789991819 $377 40.759388221900089 $278 $411 forward 7 unknown #
coedge $-1 $371 $368 $275 $365 reversed $360 $-1 #
edge $-1 $412 -40.759388221900089 $366 -32.405365789991819 $364 $413 forward 7 unknown #
vertex $-1 $369 $414 #
straight-curve $-1 0 -32.405365789991819 -10.946210042880837 1 0 0 I I #
coedge $-1 $364 $281 $277 $369 forward $360 $-1 #
edge $-1 $283 3.2231050214404187 $366 6.2231050214404187 $368 $415 forward 7 unknown #
point $-1 75.73107089449752 -32.405365789991819 -10.946210042880837 #
coedge $-1 $281 $364 $285 $375 reversed $360 $-1 #
straight-curve $-1 -75.73107089449752 -18.291188502972979 -7.9462100428808373 0 1 0 I I #
point $-1 -75.73107089449752 -32.405365789991819 -7.9462100428808373 #
coedge $-1 $286 $285 $362 $410 reversed $272 $-1 #
edge $-1 $287 7.9462100428808373 $412 10.946210042880837 $371 $416 forward 7 unknown #
point $-1 -75.73107089449752 -40.759388221900096 -7.9462100428808373 #
vertex $-1 $289 $417 #
straight-curve $-1 75.73107089449752 -40.759388221900089 0 0 0 -1 I I #
edge $-1 $380 76.257818281527207 $383 81.805591428611336 $293 $418 forward 7 unknown #
vertex $-1 $307 $419 #
straight-curve $-1 0 36.362808162533611 10.946210042880836 0 1 0 I I #
edge $-1 $383 -6.9449808712316639 $304 20.834942613694992 $303 $420 forward 7 unknown #
vertex $-1 $382 $421 #
straight-curve $-1 0 -22.592599158449062 56.699865802352065 0 -0.77714595512881146 0.62932039886446345 I I #
point $-1 0 33.908459078322117 10.946210042880828 #
point $-1 -27.779923484926655 40.759388221900082 5.3984368957967064 #
straight-curve $-1 0 40.759388221900089 10.946210042880837 -1 0 0 I I #
vertex $-1 $310 $422 #
point $-1 -17.842802489233321 34.47166530962307 4.6377288560739993 #
vertex $-1 $314 $423 #
point $-1 -5.93712099569332 34.47166530962307 4.6377288560739993 #
straight-curve $-1 27.779923484926655 -22.592599158449062 56.699865802352065 0 -0.77714595512881146 0.62932039886446345 I I #
coedge $-1 $322 $328 $324 $395 reversed $318 $-1 #
straight-curve $-1 27.779923484926655 40.759388221900089 87.204028324408043 0 0 -1 I I #
edge $-1 $326 -27.779923484926655 $399 0 $393 $424 forward 7 unknown #
point $-1 27.779923484926655 33.908459078322117 10.946210042880828 #
point $-1 27.779923484926655 40.759388221900089 10.946210042880837 #
point $-1 27.779923484926655 40.759388221900082 5.3984368957967064 #
vertex $-1 $333 $425 #
straight-curve $-1 0 36.362808162533611 10.946210042880836 0 -1 0 I I #
straight-curve $-1 0 40.759388221900089 87.204028324408043 0 0 1 I I #
vertex $-1 $336 $426 #
point $-1 9.9371209956933342 34.47166530962307 4.6377288560739993 #
vertex $-1 $340 $427 #
point $-1 21.842802489233335 34.47166530962307 4.6377288560739993 #
straight-curve $-1 -75.73107089449752 40.759388221900089 0 0 0 -1 I I #
point $-1 -75.73107089449752 -40.759388221900089 -10.946210042880837 #
straight-curve $-1 -75.73107089449752 0 -10.946210042880837 0 1 0 I I #
point $-1 -75.73107089449752 40.759388221900089 -10.946210042880837 #
edge $-1 $377 -75.73107089449752 $412 75.73107089449752 $374 $428 forward 7 unknown #
straight-curve $-1 75.73107089449752 0 -10.946210042880837 0 -1 0 I I #
vertex $-1 $365 $429 #
straight-curve $-1 -75.73107089449752 0 -10.946210042880837 0 1 0 I I #
point $-1 -75.73107089449752 -32.405365789991819 -10.946210042880837 #
straight-curve $-1 -75.73107089449752 -32.405365789991819 -4.7231050214404187 0 0 -1 I I #
straight-curve $-1 -75.73107089449752 -40.759388221900089 0 0 0 -1 I I #
point $-1 75.73107089449752 -40.759388221900089 -10.946210042880837 #
straight-curve $-1 0 40.759388221900089 87.204028324408043 0 0 -1 I I #
point $-1 0 40.759388221900089 10.946210042880837 #
straight-curve $-1 -6.9449808712316639 40.759388221900089 5.3984368957967028 -1 0 0 I I #
point $-1 0 40.759388221900082 5.3984368957967064 #
point $-1 -19.842802489233321 33.21302451189414 3.0834369458163762 #
point $-1 -7.93712099569332 33.21302451189414 3.0834369458163762 #
straight-curve $-1 0 40.759388221900089 10.946210042880837 -1 0 0 I I #
point $-1 0 40.759388221900089 10.946210042880837 #
point $-1 7.9371209956933342 33.21302451189414 3.0834369458163762 #
point $-1 19.842802489233335 33.21302451189414 3.0834369458163762 #
straight-curve $-1 0 -40.759388221900089 -10.946210042880837 -1 0 0 I I #
point $-1 -75.73107089449752 -40.759388221900089 -10.946210042880837 #
End-of-ACIS-data 