500 0 13 0           
7 Unknown 11 ACIS 5.0 NT 24 Thu Mar 25 16:13:59 1999 
-1 9.9999999999999995e-007 1e-010 
body $-1 $13 $-1 $14 #
body $-1 $15 $-1 $16 #
body $-1 $17 $-1 $18 #
body $-1 $19 $-1 $20 #
body $-1 $21 $-1 $22 #
body $-1 $23 $-1 $24 #
body $-1 $25 $-1 $26 #
body $-1 $27 $-1 $28 #
body $-1 $29 $-1 $30 #
body $-1 $31 $-1 $32 #
body $-1 $33 $-1 $34 #
body $-1 $35 $-1 $36 #
body $-1 $37 $-1 $38 #
lump $-1 $-1 $39 $0 #
transform $-1 1 0 0 0 1 0 0 0 1 79.730216376232192 54.764368447369151 23.68587765737696 1 rotate no_reflect no_shear #
lump $-1 $-1 $40 $1 #
transform $-1 1 0 0 0 1 0 0 0 1 79.730216376232192 54.764368447369151 23.68587765737696 1 rotate no_reflect no_shear #
lump $-1 $-1 $41 $2 #
transform $-1 1 0 0 0 1 0 0 0 1 79.730216376232192 54.764368447369151 23.68587765737696 1 rotate no_reflect no_shear #
lump $-1 $-1 $42 $3 #
transform $-1 1 0 0 0 1 0 0 0 1 79.730216376232192 54.764368447369151 23.68587765737696 1 rotate no_reflect no_shear #
lump $-1 $-1 $43 $4 #
transform $-1 1 0 0 0 1 0 0 0 1 79.730216376232192 54.764368447369151 23.68587765737696 1 rotate no_reflect no_shear #
lump $-1 $-1 $44 $5 #
transform $-1 1 0 0 0 1 0 0 0 1 79.730216376232192 54.764368447369151 23.68587765737696 1 rotate no_reflect no_shear #
lump $-1 $-1 $45 $6 #
transform $-1 1 0 0 0 1 0 0 0 1 79.730216376232192 54.764368447369151 23.68587765737696 1 rotate no_reflect no_shear #
lump $-1 $-1 $46 $7 #
transform $-1 1 0 0 0 1 0 0 0 1 79.730216376232192 54.764368447369151 23.68587765737696 1 rotate no_reflect no_shear #
lump $-1 $-1 $47 $8 #
transform $-1 1 0 0 0 1 0 0 0 1 79.730216376232192 54.764368447369151 23.68587765737696 1 rotate no_reflect no_shear #
lump $-1 $-1 $48 $9 #
transform $-1 1 0 0 0 1 0 0 0 1 79.730216376232192 54.764368447369151 23.68587765737696 1 rotate no_reflect no_shear #
lump $-1 $-1 $49 $10 #
transform $-1 1 0 0 0 1 0 0 0 1 79.730216376232192 54.764368447369151 23.68587765737696 1 rotate no_reflect no_shear #
lump $-1 $-1 $50 $11 #
transform $-1 1 0 0 0 1 0 0 0 1 79.730216376232192 54.764368447369151 23.68587765737696 1 rotate no_reflect no_shear #
lump $-1 $-1 $51 $12 #
transform $-1 1 0 0 0 1 0 0 0 1 79.730216376232192 54.764368447369151 23.68587765737696 1 rotate no_reflect no_shear #
shell $-1 $-1 $-1 $52 $-1 $13 #
shell $-1 $-1 $-1 $53 $-1 $15 #
shell $-1 $-1 $-1 $54 $-1 $17 #
shell $-1 $-1 $-1 $55 $-1 $19 #
shell $-1 $-1 $-1 $56 $-1 $21 #
shell $-1 $-1 $-1 $57 $-1 $23 #
shell $-1 $-1 $-1 $58 $-1 $25 #
shell $-1 $-1 $-1 $59 $-1 $27 #
shell $-1 $-1 $-1 $60 $-1 $29 #
shell $-1 $-1 $-1 $61 $-1 $31 #
shell $-1 $-1 $-1 $62 $-1 $33 #
shell $-1 $-1 $-1 $63 $-1 $35 #
shell $-1 $-1 $-1 $64 $-1 $37 #
face $-1 $65 $66 $39 $-1 $67 forward single #
face $-1 $68 $69 $40 $-1 $70 forward single #
face $-1 $71 $72 $41 $-1 $73 reversed single #
face $-1 $74 $75 $42 $-1 $76 forward single #
face $-1 $77 $78 $43 $-1 $79 forward single #
face $-1 $80 $81 $44 $-1 $82 forward single #
face $-1 $83 $84 $45 $-1 $85 reversed single #
face $-1 $86 $87 $46 $-1 $88 forward single #
face $-1 $89 $90 $47 $-1 $91 forward single #
face $-1 $92 $93 $48 $-1 $94 forward single #
face $-1 $95 $96 $49 $-1 $97 reversed single #
face $-1 $98 $99 $50 $-1 $100 forward single #
face $-1 $101 $102 $51 $-1 $103 forward single #
face $-1 $104 $105 $39 $-1 $106 reversed single #
loop $-1 $-1 $107 $52 #
plane-surface $-1 0 0 23.68587765737696 0 0 1 1 0 0 forward_v I I I I #
face $-1 $108 $109 $40 $-1 $110 reversed single #
loop $-1 $-1 $111 $53 #
plane-surface $-1 -79.730216376232192 0 0 1 0 0 0 0 -1 forward_v I I I I #
face $-1 $112 $113 $41 $-1 $114 reversed single #
loop $-1 $-1 $115 $54 #
plane-surface $-1 -12.679271192208006 125.71536873597213 183.73766555766051 1 0 0 0 -0.82903758062907751 -0.55919289150049634 forward_v I I I I #
face $-1 $116 $117 $42 $-1 $118 forward single #
loop $-1 $119 $120 $55 #
cone-surface $-1 -10.025043631140477 47.12133417621682 13.101789018363313 0 -0.82903758062907751 -0.55919289150049634 1 0 0 1 I I 0 1 1 forward I I I I #
face $-1 $121 $122 $43 $-1 $123 forward single #
loop $-1 $124 $125 $56 #
cone-surface $-1 -6.0437022895391976 47.12133417621682 13.101789018363313 0 -0.82903758062907751 -0.55919289150049634 1 0 0 1 I I 0 1 1 forward I I I I #
face $-1 $126 $127 $44 $-1 $128 forward single #
loop $-1 $129 $130 $57 #
cone-surface $-1 -2.0623609479379184 47.12133417621682 13.101789018363313 0 -0.82903758062907751 -0.55919289150049634 1 0 0 1 I I 0 1 1 forward I I I I #
face $-1 $131 $132 $45 $-1 $133 reversed single #
loop $-1 $-1 $134 $58 #
plane-surface $-1 28.707420200367054 125.71536873597213 183.73766555766051 1 0 0 0 -0.82903758062907751 -0.55919289150049634 forward_v I I I I #
face $-1 $135 $136 $46 $-1 $137 forward single #
loop $-1 $138 $139 $59 #
cone-surface $-1 31.361647761434583 47.12133417621682 13.101789018363313 0 -0.82903758062907751 -0.55919289150049634 1 0 0 1 I I 0 1 1 forward I I I I #
face $-1 $140 $141 $47 $-1 $142 forward single #
loop $-1 $143 $144 $60 #
cone-surface $-1 35.342989103035862 47.12133417621682 13.101789018363313 0 -0.82903758062907751 -0.55919289150049634 1 0 0 1 I I 0 1 1 forward I I I I #
face $-1 $145 $146 $48 $-1 $147 forward single #
loop $-1 $148 $149 $61 #
cone-surface $-1 39.324330444637141 47.12133417621682 13.101789018363313 0 -0.82903758062907751 -0.55919289150049634 1 0 0 1 I I 0 1 1 forward I I I I #
face $-1 $150 $151 $49 $-1 $152 reversed single #
loop $-1 $-1 $153 $62 #
plane-surface $-1 -2.2751717285209025 -141.61274580263733 145.62850353066429 -1 0 0 0 -0.54463904215088732 0.83867056331134215 forward_v I I I I #
face $-1 $154 $155 $50 $-1 $156 forward single #
loop $-1 $157 $158 $63 #
cone-surface $-1 -30.15322646116001 -44.015476467420847 15.21863625062173 0 0.54463904215088732 -0.83867056331134215 2 0 0 1 I I 0 1 2 forward I I I I #
face $-1 $159 $160 $51 $-1 $161 forward single #
loop $-1 $162 $163 $64 #
cone-surface $-1 -13.426393621576551 -44.015476467420847 15.21863625062173 0 0.54463904215088732 -0.83867056331134215 2 0 0 1 I I 0 1 2 forward I I I I #
face $-1 $164 $165 $39 $-1 $166 reversed single #
loop $-1 $-1 $167 $65 #
plane-surface $-1 0 0 -23.68587765737696 0 0 1 1 0 0 forward_v I I I I #
coedge $-1 $168 $169 $170 $171 forward $66 $-1 #
face $-1 $172 $173 $40 $-1 $174 forward single #
loop $-1 $-1 $175 $68 #
plane-surface $-1 0 54.764368447369151 0 0 -1 0 0 0 -1 forward_v I I I I #
coedge $-1 $176 $177 $178 $179 forward $69 $-1 #
face $-1 $180 $181 $41 $-1 $182 reversed single #
loop $-1 $-1 $183 $71 #
plane-surface $-1 -6.0437022895391976 -6.4833226391966434 94.568525086889494 0 0.82903758062907751 0.55919289150049634 1 0 0 forward_v I I I I #
coedge $-1 $184 $185 $186 $187 reversed $72 $-1 #
face $-1 $-1 $188 $42 $-1 $189 forward single #
loop $-1 $190 $191 $74 #
cone-surface $-1 -10.025043631140477 45.782152708804574 12.198499741129471 0 -0.82903758062907751 -0.55919289150049634 0.5 0 0 1 I I -0.70710678118654746 0.70710678118654746 0.5 forward I I I I #
loop $-1 $-1 $192 $55 #
coedge $-1 $120 $120 $193 $194 reversed $75 $-1 #
face $-1 $-1 $195 $43 $-1 $196 forward single #
loop $-1 $197 $198 $77 #
cone-surface $-1 -6.0437022895391976 45.782152708804574 12.198499741129471 0 -0.82903758062907751 -0.55919289150049634 0.5 0 0 1 I I -0.70710678118654746 0.70710678118654746 0.5 forward I I I I #
loop $-1 $-1 $199 $56 #
coedge $-1 $125 $125 $200 $201 reversed $78 $-1 #
face $-1 $-1 $202 $44 $-1 $203 forward single #
loop $-1 $204 $205 $80 #
cone-surface $-1 -2.0623609479379184 45.782152708804574 12.198499741129471 0 -0.82903758062907751 -0.55919289150049634 0.5 0 0 1 I I -0.70710678118654746 0.70710678118654746 0.5 forward I I I I #
loop $-1 $-1 $206 $57 #
coedge $-1 $130 $130 $207 $208 reversed $81 $-1 #
face $-1 $209 $210 $45 $-1 $211 reversed single #
loop $-1 $-1 $212 $83 #
plane-surface $-1 35.342989103035862 -6.4833226391966434 94.568525086889494 0 0.82903758062907751 0.55919289150049634 1 0 0 forward_v I I I I #
coedge $-1 $213 $214 $215 $216 reversed $84 $-1 #
face $-1 $-1 $217 $46 $-1 $218 forward single #
loop $-1 $219 $220 $86 #
cone-surface $-1 31.361647761434583 45.782152708804574 12.198499741129471 0 -0.82903758062907751 -0.55919289150049634 0.5 0 0 1 I I -0.70710678118654746 0.70710678118654746 0.5 forward I I I I #
loop $-1 $-1 $221 $59 #
coedge $-1 $139 $139 $222 $223 reversed $87 $-1 #
face $-1 $-1 $224 $47 $-1 $225 forward single #
loop $-1 $226 $227 $89 #
cone-surface $-1 35.342989103035862 45.782152708804574 12.198499741129471 0 -0.82903758062907751 -0.55919289150049634 0.5 0 0 1 I I -0.70710678118654746 0.70710678118654746 0.5 forward I I I I #
loop $-1 $-1 $228 $60 #
coedge $-1 $144 $144 $229 $230 reversed $90 $-1 #
face $-1 $-1 $231 $48 $-1 $232 forward single #
loop $-1 $233 $234 $92 #
cone-surface $-1 39.324330444637141 45.782152708804574 12.198499741129471 0 -0.82903758062907751 -0.55919289150049634 0.5 0 0 1 I I -0.70710678118654746 0.70710678118654746 0.5 forward I I I I #
loop $-1 $-1 $235 $61 #
coedge $-1 $149 $149 $236 $237 reversed $93 $-1 #
face $-1 $238 $239 $49 $-1 $240 reversed single #
loop $-1 $-1 $241 $95 #
plane-surface $-1 -21.789810041368277 -54.764368447369151 11.893732568284577 0 -0.54463904215088732 0.83867056331134215 1 0 0 forward_v I I I I #
coedge $-1 $242 $243 $244 $245 reversed $96 $-1 #
face $-1 $-1 $246 $50 $-1 $247 forward single #
loop $-1 $248 $249 $98 #
cone-surface $-1 -30.15322646116001 -41.80110081165536 11.808796825101329 0 0.54463904215088732 -0.83867056331134215 1 0 0 1 I I -0.70710678118654746 0.70710678118654746 1 forward I I I I #
loop $-1 $-1 $250 $63 #
coedge $-1 $158 $158 $251 $252 reversed $99 $-1 #
face $-1 $-1 $253 $51 $-1 $254 forward single #
loop $-1 $255 $256 $101 #
cone-surface $-1 -13.426393621576551 -41.80110081165536 11.808796825101329 0 0.54463904215088732 -0.83867056331134215 1 0 0 1 I I -0.70710678118654746 0.70710678118654746 1 forward I I I I #
loop $-1 $-1 $257 $64 #
coedge $-1 $163 $163 $258 $259 reversed $102 $-1 #
face $-1 $260 $261 $39 $-1 $262 reversed single #
loop $-1 $-1 $263 $104 #
plane-surface $-1 0 -54.764368447369151 0 0 1 0 0 0 1 forward_v I I I I #
coedge $-1 $264 $265 $266 $267 forward $105 $-1 #
coedge $-1 $268 $107 $269 $270 forward $66 $-1 #
coedge $-1 $107 $268 $271 $272 forward $66 $-1 #
coedge $-1 $273 $274 $107 $171 reversed $275 $-1 #
edge $-1 $276 -54.764368447369151 $277 54.764368447369151 $170 $278 forward 7 unknown #
face $-1 $279 $280 $40 $-1 $281 reversed single #
loop $-1 $-1 $178 $108 #
plane-surface $-1 -94.379859782980503 0 0.7832133971978763 0 0 1 1 0 0 forward_v I I I I #
coedge $-1 $282 $283 $177 $284 forward $109 $-1 #
coedge $-1 $285 $111 $286 $287 reversed $69 $-1 #
coedge $-1 $111 $285 $175 $284 reversed $69 $-1 #
coedge $-1 $288 $289 $111 $179 reversed $173 $-1 #
edge $-1 $290 -54.764368447369151 $291 54.764368447369151 $178 $292 forward 7 unknown #
face $-1 $293 $294 $41 $-1 $295 forward single #
loop $-1 $-1 $296 $112 #
plane-surface $-1 0.59186661312961064 125.71536873597213 183.73766555766051 -1 0 0 0 0.82903758062907751 0.55919289150049634 forward_v I I I I #
coedge $-1 $297 $298 $299 $300 reversed $113 $-1 #
coedge $-1 $185 $115 $301 $302 reversed $72 $-1 #
coedge $-1 $115 $184 $297 $303 reversed $72 $-1 #
coedge $-1 $299 $304 $115 $187 forward $294 $-1 #
edge $-1 $305 8.0933159206169165 $306 21.530059108726107 $186 $307 forward 7 unknown #
loop $-1 $-1 $193 $116 #
plane-surface $-1 -6.0437022895391976 -6.4833226391966434 94.568525086889494 0 0.82903758062907751 0.55919289150049634 1 0 0 forward_v I I I I #
loop $-1 $-1 $308 $74 #
coedge $-1 $191 $191 $192 $309 reversed $117 $-1 #
coedge $-1 $192 $192 $191 $309 forward $119 $-1 #
coedge $-1 $193 $193 $120 $194 forward $188 $-1 #
edge $-1 $310 3.0611446339873936e-016 $310 6.2831853071796004 $193 $311 forward 7 unknown #
loop $-1 $-1 $200 $121 #
plane-surface $-1 -6.0437022895391976 -6.4833226391966434 94.568525086889494 0 0.82903758062907751 0.55919289150049634 1 0 0 forward_v I I I I #
loop $-1 $-1 $312 $77 #
coedge $-1 $198 $198 $199 $313 reversed $122 $-1 #
coedge $-1 $199 $199 $198 $313 forward $124 $-1 #
coedge $-1 $200 $200 $125 $201 forward $195 $-1 #
edge $-1 $314 3.0611446339873936e-016 $314 6.2831853071796004 $200 $315 forward 7 unknown #
loop $-1 $-1 $207 $126 #
plane-surface $-1 -6.0437022895391976 -6.4833226391966434 94.568525086889494 0 0.82903758062907751 0.55919289150049634 1 0 0 forward_v I I I I #
loop $-1 $-1 $316 $80 #
coedge $-1 $205 $205 $206 $317 reversed $127 $-1 #
coedge $-1 $206 $206 $205 $317 forward $129 $-1 #
coedge $-1 $207 $207 $130 $208 forward $202 $-1 #
edge $-1 $318 3.0611446339873936e-016 $318 6.2831853071796004 $207 $319 forward 7 unknown #
face $-1 $320 $321 $45 $-1 $322 forward single #
loop $-1 $-1 $323 $131 #
plane-surface $-1 41.97855800570467 125.71536873597213 183.73766555766051 -1 0 0 0 0.82903758062907751 0.55919289150049634 forward_v I I I I #
coedge $-1 $324 $325 $326 $327 reversed $132 $-1 #
coedge $-1 $214 $134 $328 $329 reversed $84 $-1 #
coedge $-1 $134 $213 $324 $330 reversed $84 $-1 #
coedge $-1 $326 $331 $134 $216 forward $321 $-1 #
edge $-1 $332 8.0933159206169165 $333 21.530059108726107 $215 $334 forward 7 unknown #
loop $-1 $-1 $222 $135 #
plane-surface $-1 35.342989103035862 -6.4833226391966434 94.568525086889494 0 0.82903758062907751 0.55919289150049634 1 0 0 forward_v I I I I #
loop $-1 $-1 $335 $86 #
coedge $-1 $220 $220 $221 $336 reversed $136 $-1 #
coedge $-1 $221 $221 $220 $336 forward $138 $-1 #
coedge $-1 $222 $222 $139 $223 forward $217 $-1 #
edge $-1 $337 3.0611446339873936e-016 $337 6.2831853071796004 $222 $338 forward 7 unknown #
loop $-1 $-1 $229 $140 #
plane-surface $-1 35.342989103035862 -6.4833226391966434 94.568525086889494 0 0.82903758062907751 0.55919289150049634 1 0 0 forward_v I I I I #
loop $-1 $-1 $339 $89 #
coedge $-1 $227 $227 $228 $340 reversed $141 $-1 #
coedge $-1 $228 $228 $227 $340 forward $143 $-1 #
coedge $-1 $229 $229 $144 $230 forward $224 $-1 #
edge $-1 $341 3.0611446339873936e-016 $341 6.2831853071796004 $229 $342 forward 7 unknown #
loop $-1 $-1 $236 $145 #
plane-surface $-1 35.342989103035862 -6.4833226391966434 94.568525086889494 0 0.82903758062907751 0.55919289150049634 1 0 0 forward_v I I I I #
loop $-1 $-1 $343 $92 #
coedge $-1 $234 $234 $235 $344 reversed $146 $-1 #
coedge $-1 $235 $235 $234 $344 forward $148 $-1 #
coedge $-1 $236 $236 $149 $237 forward $231 $-1 #
edge $-1 $345 3.0611446339873936e-016 $345 6.2831853071796004 $236 $346 forward 7 unknown #
face $-1 $347 $348 $49 $-1 $349 reversed single #
loop $-1 $-1 $350 $150 #
plane-surface $-1 -41.304448354215651 -141.61274580263733 145.62850353066429 1 0 0 0 0.54463904215088732 -0.83867056331134215 forward_v I I I I #
coedge $-1 $351 $352 $353 $354 reversed $151 $-1 #
coedge $-1 $243 $153 $355 $356 reversed $96 $-1 #
coedge $-1 $153 $242 $351 $357 reversed $96 $-1 #
coedge $-1 $353 $358 $153 $245 forward $359 $-1 #
edge $-1 $360 16.042004453949517 $361 34.200315186616983 $244 $362 forward 7 unknown #
loop $-1 $-1 $251 $154 #
plane-surface $-1 -21.789810041368277 -54.764368447369151 11.893732568284577 0 -0.54463904215088732 0.83867056331134215 1 0 0 forward_v I I I I #
loop $-1 $-1 $363 $98 #
coedge $-1 $249 $249 $250 $364 reversed $155 $-1 #
coedge $-1 $250 $250 $249 $364 forward $157 $-1 #
coedge $-1 $251 $251 $158 $252 forward $246 $-1 #
edge $-1 $365 8.1320024813685592e-016 $365 6.2831853071796013 $251 $366 forward 7 unknown #
loop $-1 $-1 $258 $159 #
plane-surface $-1 -21.789810041368277 -54.764368447369151 11.893732568284577 0 -0.54463904215088732 0.83867056331134215 1 0 0 forward_v I I I I #
loop $-1 $-1 $367 $101 #
coedge $-1 $256 $256 $257 $368 reversed $160 $-1 #
coedge $-1 $257 $257 $256 $368 forward $162 $-1 #
coedge $-1 $258 $258 $163 $259 forward $253 $-1 #
edge $-1 $369 8.1320024813685592e-016 $369 6.2831853071796013 $258 $370 forward 7 unknown #
face $-1 $371 $372 $39 $-1 $373 reversed single #
loop $-1 $-1 $374 $164 #
plane-surface $-1 -79.730216376232192 0 0 1 0 0 0 0 -1 forward_v I I I I #
coedge $-1 $375 $271 $374 $376 forward $165 $-1 #
coedge $-1 $377 $167 $375 $378 forward $105 $-1 #
coedge $-1 $167 $377 $379 $380 forward $105 $-1 #
coedge $-1 $274 $273 $167 $267 reversed $275 $-1 #
edge $-1 $381 -54.764368447369151 $382 54.764368447369151 $266 $383 forward 7 unknown #
coedge $-1 $169 $168 $384 $385 forward $66 $-1 #
coedge $-1 $386 $387 $168 $270 reversed $372 $-1 #
edge $-1 $277 -79.730216376232192 $388 79.730216376232192 $269 $389 forward 7 unknown #
coedge $-1 $263 $390 $169 $272 reversed $165 $-1 #
edge $-1 $391 -79.730216376232192 $276 79.730216376232192 $271 $392 forward 7 unknown #
coedge $-1 $266 $170 $390 $393 forward $275 $-1 #
coedge $-1 $170 $266 $386 $394 reversed $275 $-1 #
loop $-1 $-1 $273 $371 #
vertex $-1 $171 $395 #
vertex $-1 $171 $396 #
straight-curve $-1 79.730216376232192 0 23.68587765737696 0 1 0 I I #
face $-1 $397 $398 $40 $-1 $399 reversed single #
loop $-1 $-1 $400 $172 #
plane-surface $-1 -94.379859782980503 0 -5.4453621032310409 0 0 1 1 0 0 forward_v I I I I #
coedge $-1 $401 $175 $402 $403 reversed $109 $-1 #
coedge $-1 $175 $401 $288 $404 reversed $109 $-1 #
edge $-1 $290 -0.7832133971978763 $405 5.4453621032310409 $175 $406 forward 7 unknown #
coedge $-1 $177 $176 $400 $407 forward $69 $-1 #
coedge $-1 $408 $409 $176 $287 forward $410 $-1 #
edge $-1 $411 -5.4453621032310409 $291 0.7832133971978763 $286 $412 forward 7 unknown #
coedge $-1 $413 $178 $283 $404 forward $173 $-1 #
coedge $-1 $178 $413 $408 $414 forward $173 $-1 #
vertex $-1 $284 $415 #
vertex $-1 $414 $416 #
straight-curve $-1 -79.730216376232192 0 0.7832133971978763 0 -1 0 I I #
face $-1 $-1 $417 $41 $-1 $418 reversed single #
loop $-1 $-1 $186 $180 #
plane-surface $-1 0 0 23.68587765737696 0 0 1 1 0 0 forward_v I I I I #
coedge $-1 $419 $420 $421 $422 reversed $181 $-1 #
coedge $-1 $423 $183 $185 $303 forward $113 $-1 #
coedge $-1 $183 $423 $419 $424 forward $113 $-1 #
coedge $-1 $421 $186 $183 $300 forward $294 $-1 #
edge $-1 $306 -9.6574200474384071 $425 3.6137177578992095 $299 $426 forward 7 unknown #
coedge $-1 $427 $428 $184 $302 forward $417 $-1 #
edge $-1 $429 -88.103746736513372 $305 -68.18295512145329 $301 $430 forward 7 unknown #
edge $-1 $306 85.499920734264492 $429 109.5287368947383 $185 $431 forward 7 unknown #
coedge $-1 $186 $421 $427 $432 forward $294 $-1 #
vertex $-1 $302 $433 #
vertex $-1 $187 $434 #
straight-curve $-1 -12.679271192208006 62.857684367986067 23.685877657376963 0 -1 0 I I #
coedge $-1 $308 $308 $-1 $435 reversed $190 $-1 #
edge $-1 $436 0 $436 6.2831853071796004 $191 $437 forward 7 unknown #
vertex $-1 $194 $438 #
ellipse-curve $-1 -10.025043631140477 48.045996853314556 13.725481849846924 0 0.82903758062907751 0.55919289150049634 1 0 0 1 I I #
coedge $-1 $312 $312 $-1 $439 reversed $197 $-1 #
edge $-1 $440 0 $440 6.2831853071796004 $198 $441 forward 7 unknown #
vertex $-1 $201 $442 #
ellipse-curve $-1 -6.0437022895391976 48.045996853314556 13.725481849846924 0 0.82903758062907751 0.55919289150049634 1 0 0 1 I I #
coedge $-1 $316 $316 $-1 $443 reversed $204 $-1 #
edge $-1 $444 0 $444 6.2831853071796004 $205 $445 forward 7 unknown #
vertex $-1 $208 $446 #
ellipse-curve $-1 -2.0623609479379184 48.045996853314556 13.725481849846924 0 0.82903758062907751 0.55919289150049634 1 0 0 1 I I #
face $-1 $-1 $447 $45 $-1 $448 reversed single #
loop $-1 $-1 $215 $209 #
plane-surface $-1 0 0 23.68587765737696 0 0 1 1 0 0 forward_v I I I I #
coedge $-1 $449 $450 $451 $452 reversed $210 $-1 #
coedge $-1 $453 $212 $214 $330 forward $132 $-1 #
coedge $-1 $212 $453 $449 $454 forward $132 $-1 #
coedge $-1 $451 $215 $212 $327 forward $321 $-1 #
edge $-1 $333 11.035925648849123 $455 24.307063454186739 $326 $456 forward 7 unknown #
coedge $-1 $457 $458 $213 $329 forward $447 $-1 #
edge $-1 $459 -88.103746736513372 $332 -68.18295512145329 $328 $460 forward 7 unknown #
edge $-1 $333 85.499920734264492 $459 109.5287368947383 $214 $461 forward 7 unknown #
coedge $-1 $215 $451 $457 $462 forward $321 $-1 #
vertex $-1 $216 $463 #
vertex $-1 $216 $464 #
straight-curve $-1 28.707420200367054 62.857684367986067 23.685877657376963 0 -1 0 I I #
coedge $-1 $335 $335 $-1 $465 reversed $219 $-1 #
edge $-1 $466 0 $466 6.2831853071796004 $220 $467 forward 7 unknown #
vertex $-1 $223 $468 #
ellipse-curve $-1 31.361647761434583 48.045996853314556 13.725481849846924 0 0.82903758062907751 0.55919289150049634 1 0 0 1 I I #
coedge $-1 $339 $339 $-1 $469 reversed $226 $-1 #
edge $-1 $470 0 $470 6.2831853071796004 $227 $471 forward 7 unknown #
vertex $-1 $230 $472 #
ellipse-curve $-1 35.342989103035862 48.045996853314556 13.725481849846924 0 0.82903758062907751 0.55919289150049634 1 0 0 1 I I #
coedge $-1 $343 $343 $-1 $473 reversed $233 $-1 #
edge $-1 $474 0 $474 6.2831853071796004 $234 $475 forward 7 unknown #
vertex $-1 $237 $476 #
ellipse-curve $-1 39.324330444637141 48.045996853314556 13.725481849846924 0 0.82903758062907751 0.55919289150049634 1 0 0 1 I I #
face $-1 $-1 $359 $49 $-1 $477 forward single #
loop $-1 $-1 $478 $238 #
plane-surface $-1 0 -54.764368447369151 0 0 1 0 0 0 1 forward_v I I I I #
coedge $-1 $479 $480 $481 $482 reversed $239 $-1 #
coedge $-1 $483 $241 $243 $357 forward $151 $-1 #
coedge $-1 $241 $483 $479 $484 forward $151 $-1 #
coedge $-1 $481 $244 $241 $354 forward $359 $-1 #
edge $-1 $361 -8.6197332921632359 $485 30.409543333531513 $353 $486 forward 7 unknown #
coedge $-1 $487 $488 $242 $356 forward $348 $-1 #
edge $-1 $489 -60.920519197047568 $360 -49.128374107955182 $355 $490 forward 7 unknown #
edge $-1 $361 -21.651303297176177 $489 0 $243 $491 forward 7 unknown #
coedge $-1 $244 $481 $487 $492 forward $359 $-1 #
loop $-1 $-1 $481 $347 #
vertex $-1 $356 $493 #
vertex $-1 $245 $494 #
straight-curve $-1 -2.2751717285209025 -70.806372901318667 23.685877657376963 0 1 0 I I #
coedge $-1 $363 $363 $-1 $495 reversed $248 $-1 #
edge $-1 $496 0 $496 6.2831853071796004 $249 $497 forward 7 unknown #
vertex $-1 $252 $498 #
ellipse-curve $-1 -30.15322646116001 -45.685213081035428 17.789805112830763 0 -0.54463904215088732 0.83867056331134215 2 0 0 1 I I #
coedge $-1 $367 $367 $-1 $499 reversed $255 $-1 #
edge $-1 $500 0 $500 6.2831853071796004 $256 $501 forward 7 unknown #
vertex $-1 $259 $502 #
ellipse-curve $-1 -13.426393621576551 -45.685213081035428 17.789805112830763 0 -0.54463904215088732 0.83867056331134215 2 0 0 1 I I #
face $-1 $-1 $275 $39 $-1 $503 reversed single #
loop $-1 $-1 $386 $260 #
plane-surface $-1 0 54.764368447369151 0 0 -1 0 0 0 -1 forward_v I I I I #
coedge $-1 $384 $504 $263 $376 reversed $261 $-1 #
coedge $-1 $390 $263 $264 $378 reversed $165 $-1 #
edge $-1 $391 -23.68587765737696 $505 23.68587765737696 $374 $506 forward 7 unknown #
coedge $-1 $265 $264 $504 $507 forward $105 $-1 #
edge $-1 $382 -79.730216376232192 $505 79.730216376232192 $375 $508 forward 7 unknown #
coedge $-1 $387 $386 $265 $380 reversed $372 $-1 #
edge $-1 $509 -79.730216376232192 $381 79.730216376232192 $379 $510 forward 7 unknown #
vertex $-1 $267 $511 #
vertex $-1 $393 $512 #
straight-curve $-1 79.730216376232192 0 -23.68587765737696 0 -1 0 I I #
coedge $-1 $513 $374 $268 $385 reversed $261 $-1 #
edge $-1 $388 -54.764368447369151 $391 54.764368447369151 $384 $514 forward 7 unknown #
coedge $-1 $379 $269 $274 $394 forward $372 $-1 #
coedge $-1 $269 $379 $513 $515 reversed $372 $-1 #
vertex $-1 $270 $516 #
straight-curve $-1 0 54.764368447369151 23.68587765737696 -1 0 0 I I #
coedge $-1 $271 $375 $273 $393 reversed $165 $-1 #
vertex $-1 $385 $517 #
straight-curve $-1 0 -54.764368447369151 23.68587765737696 1 0 0 I I #
edge $-1 $276 -23.68587765737696 $382 23.68587765737696 $273 $518 forward 7 unknown #
edge $-1 $277 -23.68587765737696 $381 23.68587765737696 $274 $519 forward 7 unknown #
point $-1 79.730216376232192 -54.764368447369151 23.68587765737696 #
point $-1 79.730216376232192 54.764368447369151 23.68587765737696 #
face $-1 $-1 $410 $40 $-1 $520 reversed single #
loop $-1 $-1 $521 $279 #
plane-surface $-1 -109.02950318972881 0 -2.3310743530165823 1 0 0 0 0 -1 forward_v I I I I #
coedge $-1 $522 $402 $285 $407 reversed $280 $-1 #
coedge $-1 $283 $282 $521 $523 reversed $109 $-1 #
coedge $-1 $400 $524 $282 $403 forward $280 $-1 #
edge $-1 $525 -14.649643406748311 $405 14.649643406748311 $282 $526 forward 7 unknown #
edge $-1 $290 -14.649643406748311 $527 14.649643406748311 $283 $528 forward 7 unknown #
vertex $-1 $284 $529 #
straight-curve $-1 -79.730216376232192 54.764368447369151 0 0 0 -1 I I #
edge $-1 $411 -54.764368447369151 $405 54.764368447369151 $400 $530 forward 7 unknown #
coedge $-1 $531 $286 $289 $414 reversed $410 $-1 #
coedge $-1 $286 $531 $522 $532 reversed $410 $-1 #
loop $-1 $-1 $286 $397 #
vertex $-1 $287 $533 #
straight-curve $-1 -79.730216376232192 -54.764368447369151 0 0 0 1 I I #
coedge $-1 $289 $288 $534 $535 forward $173 $-1 #
edge $-1 $536 -14.649643406748311 $291 14.649643406748311 $408 $537 forward 7 unknown #
point $-1 -79.730216376232192 54.764368447369151 0.7832133971978763 #
point $-1 -79.730216376232192 -54.764368447369151 0.7832133971978763 #
loop $-1 $-1 $301 $293 #
plane-surface $-1 0 54.764368447369151 0 0 -1 0 0 0 -1 forward_v I I I I #
coedge $-1 $420 $296 $298 $424 reversed $181 $-1 #
coedge $-1 $296 $419 $538 $539 reversed $181 $-1 #
coedge $-1 $304 $299 $296 $422 forward $294 $-1 #
edge $-1 $425 -21.530059108726107 $540 -8.0933159206169165 $421 $541 forward 7 unknown #
coedge $-1 $298 $297 $428 $542 reversed $113 $-1 #
edge $-1 $543 -109.5287368947383 $425 -85.499920734264492 $419 $544 forward 7 unknown #
vertex $-1 $300 $545 #
straight-curve $-1 -3.0218511447695988 41.32762525925996 23.685877657376963 1 0 0 I I #
coedge $-1 $538 $301 $304 $432 reversed $417 $-1 #
coedge $-1 $301 $538 $423 $542 forward $417 $-1 #
vertex $-1 $302 $546 #
straight-curve $-1 -12.679271192208006 54.764368447369151 91.868832778830253 0 0 1 I I #
straight-curve $-1 -12.679271192208006 -6.4833226391966434 94.568525086889494 0 0.55919289150049634 -0.82903758062907751 I I #
edge $-1 $540 -0.59186661312961064 $305 12.679271192208006 $427 $547 forward 7 unknown #
point $-1 -12.679271192208006 54.764368447369151 23.68587765737696 #
point $-1 -12.679271192208006 41.32762525925996 23.685877657376963 #
edge $-1 $548 1 $548 0 $308 $-1 forward 7 unknown #
vertex $-1 $309 $549 #
ellipse-curve $-1 -10.025043631140477 46.196671499119113 12.47809618687972 0 0.82903758062907751 0.55919289150049634 1 0 0 1 I I #
point $-1 -9.0250436311404769 48.045996853314527 13.725481849846904 #
edge $-1 $550 1 $550 0 $312 $-1 forward 7 unknown #
vertex $-1 $313 $551 #
ellipse-curve $-1 -6.0437022895391976 46.196671499119113 12.47809618687972 0 0.82903758062907751 0.55919289150049634 1 0 0 1 I I #
point $-1 -5.0437022895391976 48.045996853314527 13.725481849846904 #
edge $-1 $552 1 $552 0 $316 $-1 forward 7 unknown #
vertex $-1 $317 $553 #
ellipse-curve $-1 -2.0623609479379184 46.196671499119113 12.47809618687972 0 0.82903758062907751 0.55919289150049634 1 0 0 1 I I #
point $-1 -1.0623609479379184 48.045996853314527 13.725481849846904 #
loop $-1 $-1 $328 $320 #
plane-surface $-1 0 54.764368447369151 0 0 -1 0 0 0 -1 forward_v I I I I #
coedge $-1 $450 $323 $325 $454 reversed $210 $-1 #
coedge $-1 $323 $449 $554 $555 reversed $210 $-1 #
coedge $-1 $331 $326 $323 $452 forward $321 $-1 #
edge $-1 $455 -21.530059108726107 $556 -8.0933159206169165 $451 $557 forward 7 unknown #
coedge $-1 $325 $324 $458 $558 reversed $132 $-1 #
edge $-1 $559 -109.5287368947383 $455 -85.499920734264492 $449 $560 forward 7 unknown #
vertex $-1 $327 $561 #
straight-curve $-1 17.671494551517931 41.32762525925996 23.685877657376963 1 0 0 I I #
coedge $-1 $554 $328 $331 $462 reversed $447 $-1 #
coedge $-1 $328 $554 $453 $558 forward $447 $-1 #
vertex $-1 $329 $562 #
straight-curve $-1 28.707420200367054 54.764368447369151 91.868832778830253 0 0 1 I I #
straight-curve $-1 28.707420200367054 -6.4833226391966434 94.568525086889494 0 0.55919289150049634 -0.82903758062907751 I I #
edge $-1 $556 -41.97855800570467 $332 -28.707420200367054 $457 $563 forward 7 unknown #
point $-1 28.707420200367054 54.764368447369151 23.68587765737696 #
point $-1 28.707420200367054 41.32762525925996 23.685877657376963 #
edge $-1 $564 1 $564 0 $335 $-1 forward 7 unknown #
vertex $-1 $336 $565 #
ellipse-curve $-1 31.361647761434583 46.196671499119113 12.47809618687972 0 0.82903758062907751 0.55919289150049634 1 0 0 1 I I #
point $-1 32.361647761434583 48.045996853314527 13.725481849846904 #
edge $-1 $566 1 $566 0 $339 $-1 forward 7 unknown #
vertex $-1 $340 $567 #
ellipse-curve $-1 35.342989103035862 46.196671499119113 12.47809618687972 0 0.82903758062907751 0.55919289150049634 1 0 0 1 I I #
point $-1 36.342989103035862 48.045996853314527 13.725481849846904 #
edge $-1 $568 1 $568 0 $343 $-1 forward 7 unknown #
vertex $-1 $344 $569 #
ellipse-curve $-1 39.324330444637141 46.196671499119113 12.47809618687972 0 0.82903758062907751 0.55919289150049634 1 0 0 1 I I #
point $-1 40.324330444637141 48.045996853314527 13.725481849846904 #
plane-surface $-1 0 0 23.68587765737696 0 0 1 1 0 0 forward_v I I I I #
coedge $-1 $488 $487 $480 $570 forward $348 $-1 #
coedge $-1 $480 $350 $352 $484 reversed $239 $-1 #
coedge $-1 $350 $479 $478 $570 reversed $239 $-1 #
coedge $-1 $358 $353 $350 $482 forward $359 $-1 #
edge $-1 $485 -34.200315186616983 $571 -16.042004453949517 $481 $572 forward 7 unknown #
coedge $-1 $352 $351 $488 $573 reversed $151 $-1 #
edge $-1 $574 0 $485 21.651303297176177 $479 $575 forward 7 unknown #
vertex $-1 $354 $576 #
straight-curve $-1 -10.894905020684138 -36.606057714701684 23.68587765737696 -1 0 0 I I #
coedge $-1 $478 $355 $358 $492 reversed $348 $-1 #
coedge $-1 $355 $478 $483 $573 forward $348 $-1 #
vertex $-1 $356 $577 #
straight-curve $-1 -2.2751717285209025 -54.764368447369151 72.814251765332145 0 0 1 I I #
straight-curve $-1 -2.2751717285209025 -54.764368447369151 11.893732568284577 0 -0.83867056331134215 -0.54463904215088732 I I #
edge $-1 $571 -41.304448354215651 $360 -2.2751717285209025 $487 $578 forward 7 unknown #
point $-1 -2.2751717285209025 -54.764368447369151 23.68587765737696 #
point $-1 -2.2751717285209025 -36.606057714701684 23.68587765737696 #
edge $-1 $579 1 $579 0 $363 $-1 forward 7 unknown #
vertex $-1 $364 $580 #
ellipse-curve $-1 -30.15322646116001 -42.345739853806251 12.647467388412672 0 -0.54463904215088732 0.83867056331134215 2 0 0 1 I I #
point $-1 -28.15322646116001 -45.685213081035442 17.789805112830788 #
edge $-1 $581 1 $581 0 $367 $-1 forward 7 unknown #
vertex $-1 $368 $582 #
ellipse-curve $-1 -13.426393621576551 -42.345739853806251 12.647467388412672 0 -0.54463904215088732 0.83867056331134215 2 0 0 1 I I #
point $-1 -11.426393621576551 -45.685213081035442 17.789805112830788 #
plane-surface $-1 79.730216376232192 0 0 -1 0 0 0 0 1 forward_v I I I I #
coedge $-1 $374 $513 $377 $507 reversed $261 $-1 #
vertex $-1 $507 $583 #
straight-curve $-1 -79.730216376232192 -54.764368447369151 0 0 0 -1 I I #
edge $-1 $505 -54.764368447369151 $509 54.764368447369151 $504 $584 forward 7 unknown #
straight-curve $-1 0 -54.764368447369151 -23.68587765737696 -1 0 0 I I #
vertex $-1 $380 $585 #
straight-curve $-1 0 54.764368447369151 -23.68587765737696 1 0 0 I I #
point $-1 79.730216376232192 54.764368447369151 -23.68587765737696 #
point $-1 79.730216376232192 -54.764368447369151 -23.68587765737696 #
coedge $-1 $504 $384 $387 $515 forward $261 $-1 #
straight-curve $-1 -79.730216376232192 0 23.68587765737696 0 -1 0 I I #
edge $-1 $388 -23.68587765737696 $509 23.68587765737696 $387 $586 forward 7 unknown #
point $-1 -79.730216376232192 54.764368447369151 23.68587765737696 #
point $-1 -79.730216376232192 -54.764368447369151 23.68587765737696 #
straight-curve $-1 79.730216376232192 -54.764368447369151 0 0 0 -1 I I #
straight-curve $-1 79.730216376232192 54.764368447369151 0 0 0 -1 I I #
plane-surface $-1 0 -54.764368447369151 0 0 1 0 0 0 1 forward_v I I I I #
coedge $-1 $587 $534 $401 $523 forward $398 $-1 #
coedge $-1 $524 $400 $409 $532 forward $280 $-1 #
edge $-1 $527 -3.1142877502144586 $525 3.1142877502144586 $401 $588 forward 7 unknown #
coedge $-1 $402 $522 $587 $589 forward $280 $-1 #
vertex $-1 $403 $590 #
straight-curve $-1 -94.379859782980503 54.764368447369151 -5.4453621032310409 1 0 0 I I #
vertex $-1 $404 $591 #
straight-curve $-1 -94.379859782980503 54.764368447369151 0.7832133971978763 -1 0 0 I I #
point $-1 -79.730216376232192 54.764368447369151 -5.4453621032310409 #
straight-curve $-1 -79.730216376232192 0 -5.4453621032310409 0 1 0 I I #
coedge $-1 $409 $408 $592 $593 forward $410 $-1 #
edge $-1 $411 -14.649643406748311 $594 14.649643406748311 $409 $595 forward 7 unknown #
point $-1 -79.730216376232192 -54.764368447369151 -5.4453621032310409 #
coedge $-1 $521 $592 $413 $535 reversed $398 $-1 #
edge $-1 $527 -54.764368447369151 $536 54.764368447369151 $534 $596 forward 7 unknown #
vertex $-1 $535 $597 #
straight-curve $-1 -94.379859782980503 -54.764368447369151 0.7832133971978763 1 0 0 I I #
coedge $-1 $428 $427 $420 $539 forward $417 $-1 #
edge $-1 $540 68.18295512145329 $543 88.103746736513372 $538 $598 forward 7 unknown #
vertex $-1 $432 $599 #
straight-curve $-1 0.59186661312961064 62.857684367986067 23.685877657376963 0 1 0 I I #
edge $-1 $543 -3.6137177578992095 $429 9.6574200474384071 $428 $600 forward 7 unknown #
vertex $-1 $542 $601 #
straight-curve $-1 0.59186661312961064 -6.4833226391966434 94.568525086889494 0 -0.55919289150049634 0.82903758062907751 I I #
point $-1 0.59186661312961064 41.32762525925996 23.685877657376963 #
point $-1 -12.679271192208006 54.764368447369151 3.7650860423168808 #
straight-curve $-1 0 54.764368447369151 23.68587765737696 -1 0 0 I I #
vertex $-1 $435 $602 #
point $-1 -9.0250436311404769 46.196671499119113 12.47809618687972 #
vertex $-1 $439 $603 #
point $-1 -5.0437022895391976 46.196671499119113 12.47809618687972 #
vertex $-1 $443 $604 #
point $-1 -1.0623609479379184 46.196671499119113 12.47809618687972 #
coedge $-1 $458 $457 $450 $555 forward $447 $-1 #
edge $-1 $556 68.18295512145329 $559 88.103746736513372 $554 $605 forward 7 unknown #
vertex $-1 $462 $606 #
straight-curve $-1 41.97855800570467 62.857684367986067 23.685877657376963 0 1 0 I I #
edge $-1 $559 -24.307063454186739 $459 -11.035925648849123 $458 $607 forward 7 unknown #
vertex $-1 $558 $608 #
straight-curve $-1 41.97855800570467 -6.4833226391966434 94.568525086889494 0 -0.55919289150049634 0.82903758062907751 I I #
point $-1 41.97855800570467 41.32762525925996 23.685877657376963 #
point $-1 28.707420200367054 54.764368447369151 3.7650860423168808 #
straight-curve $-1 0 54.764368447369151 23.68587765737696 -1 0 0 I I #
vertex $-1 $465 $609 #
point $-1 32.361647761434583 46.196671499119113 12.47809618687972 #
vertex $-1 $469 $610 #
point $-1 36.342989103035862 46.196671499119113 12.47809618687972 #
vertex $-1 $473 $611 #
point $-1 40.324330444637141 46.196671499119113 12.47809618687972 #
edge $-1 $571 49.128374107955182 $574 60.920519197047568 $478 $612 forward 7 unknown #
vertex $-1 $492 $613 #
straight-curve $-1 -41.304448354215651 -70.806372901318667 23.685877657376963 0 -1 0 I I #
edge $-1 $574 -30.409543333531513 $489 8.6197332921632359 $488 $614 forward 7 unknown #
vertex $-1 $573 $615 #
straight-curve $-1 -41.304448354215651 -54.764368447369151 11.893732568284577 0 0.83867056331134215 0.54463904215088732 I I #
point $-1 -41.304448354215651 -36.606057714701684 23.68587765737696 #
point $-1 -2.2751717285209025 -54.764368447369151 11.893732568284577 #
straight-curve $-1 0 -54.764368447369151 23.68587765737696 1 0 0 I I #
vertex $-1 $495 $616 #
point $-1 -28.15322646116001 -42.345739853806251 12.647467388412672 #
vertex $-1 $499 $617 #
point $-1 -11.426393621576551 -42.345739853806251 12.647467388412672 #
point $-1 -79.730216376232192 -54.764368447369151 -23.68587765737696 #
straight-curve $-1 -79.730216376232192 0 -23.68587765737696 0 1 0 I I #
point $-1 -79.730216376232192 54.764368447369151 -23.68587765737696 #
straight-curve $-1 -79.730216376232192 54.764368447369151 0 0 0 -1 I I #
coedge $-1 $592 $521 $524 $589 reversed $398 $-1 #
straight-curve $-1 -109.02950318972881 54.764368447369151 -2.3310743530165823 0 0 -1 I I #
edge $-1 $594 -54.764368447369151 $525 54.764368447369151 $587 $618 forward 7 unknown #
point $-1 -109.02950318972881 54.764368447369151 -5.4453621032310409 #
point $-1 -109.02950318972881 54.764368447369151 0.7832133971978763 #
coedge $-1 $534 $587 $531 $593 reversed $398 $-1 #
edge $-1 $536 -3.1142877502144586 $594 3.1142877502144586 $592 $619 forward 7 unknown #
vertex $-1 $589 $620 #
straight-curve $-1 -94.379859782980503 -54.764368447369151 -5.4453621032310409 -1 0 0 I I #
straight-curve $-1 -109.02950318972881 0 0.7832133971978763 0 -1 0 I I #
point $-1 -109.02950318972881 -54.764368447369151 0.7832133971978763 #
straight-curve $-1 0.59186661312961064 54.764368447369151 91.868832778830253 0 0 -1 I I #
point $-1 0.59186661312961064 54.764368447369151 23.68587765737696 #
straight-curve $-1 -3.0218511447695988 54.764368447369151 3.765086042316895 -1 0 0 I I #
point $-1 0.59186661312961064 54.764368447369151 3.7650860423168808 #
point $-1 -10.025043631140477 45.367633918490036 11.918903295379222 #
point $-1 -6.0437022895391976 45.367633918490036 11.918903295379222 #
point $-1 -2.0623609479379184 45.367633918490036 11.918903295379222 #
straight-curve $-1 41.97855800570467 54.764368447369151 91.868832778830253 0 0 -1 I I #
point $-1 41.97855800570467 54.764368447369151 23.68587765737696 #
straight-curve $-1 17.671494551517931 54.764368447369151 3.765086042316895 -1 0 0 I I #
point $-1 41.97855800570467 54.764368447369151 3.7650860423168808 #
point $-1 31.361647761434583 45.367633918490036 11.918903295379222 #
point $-1 35.342989103035862 45.367633918490036 11.918903295379222 #
point $-1 39.324330444637141 45.367633918490036 11.918903295379222 #
straight-curve $-1 -41.304448354215651 -54.764368447369151 72.814251765332145 0 0 -1 I I #
point $-1 -41.304448354215651 -54.764368447369151 23.68587765737696 #
straight-curve $-1 -10.894905020684138 -54.764368447369151 11.893732568284578 1 0 0 I I #
point $-1 -41.304448354215651 -54.764368447369151 11.893732568284577 #
point $-1 -30.15322646116001 -41.256461769504469 10.970126261789986 #
point $-1 -13.426393621576551 -41.256461769504469 10.970126261789986 #
straight-curve $-1 -109.02950318972881 0 -5.4453621032310409 0 1 0 I I #
straight-curve $-1 -109.02950318972881 -54.764368447369151 -2.3310743530165823 0 0 -1 I I #
point $-1 -109.02950318972881 -54.764368447369151 -5.4453621032310409 #
End-of-ACIS-data 