500 0 14 0           
7 Unknown 11 ACIS 5.0 NT 24 Thu Mar 25 21:43:26 1999 
-1 9.9999999999999995e-007 1e-010 
body $-1 $14 $-1 $15 #
body $-1 $16 $-1 $17 #
body $-1 $18 $-1 $19 #
body $-1 $20 $-1 $21 #
body $-1 $22 $-1 $23 #
body $-1 $24 $-1 $25 #
body $-1 $26 $-1 $27 #
body $-1 $28 $-1 $29 #
body $-1 $30 $-1 $31 #
body $-1 $32 $-1 $33 #
body $-1 $34 $-1 $35 #
body $-1 $36 $-1 $37 #
body $-1 $38 $-1 $39 #
body $-1 $40 $-1 $41 #
lump $-1 $-1 $42 $0 #
transform $-1 1 0 0 0 1 0 0 0 1 56.60328989532151 31.958652446314751 14.078894865643894 1 rotate no_reflect no_shear #
lump $-1 $-1 $43 $1 #
transform $-1 1 0 0 0 1 0 0 0 1 56.60328989532151 31.958652446314751 14.078894865643894 1 rotate no_reflect no_shear #
lump $-1 $-1 $44 $2 #
transform $-1 1 0 0 0 1 0 0 0 1 56.60328989532151 31.958652446314751 14.078894865643894 1 rotate no_reflect no_shear #
lump $-1 $-1 $45 $3 #
transform $-1 1 0 0 0 1 0 0 0 1 56.60328989532151 31.958652446314751 14.078894865643894 1 rotate no_reflect no_shear #
lump $-1 $-1 $46 $4 #
transform $-1 1 0 0 0 1 0 0 0 1 56.60328989532151 31.958652446314751 14.078894865643894 1 rotate no_reflect no_shear #
lump $-1 $-1 $47 $5 #
transform $-1 1 0 0 0 1 0 0 0 1 56.60328989532151 31.958652446314751 14.078894865643894 1 rotate no_reflect no_shear #
lump $-1 $-1 $48 $6 #
transform $-1 1 0 0 0 1 0 0 0 1 56.60328989532151 31.958652446314751 14.078894865643894 1 rotate no_reflect no_shear #
lump $-1 $-1 $49 $7 #
transform $-1 1 0 0 0 1 0 0 0 1 56.60328989532151 31.958652446314751 14.078894865643894 1 rotate no_reflect no_shear #
lump $-1 $-1 $50 $8 #
transform $-1 1 0 0 0 1 0 0 0 1 56.60328989532151 31.958652446314751 14.078894865643894 1 rotate no_reflect no_shear #
lump $-1 $-1 $51 $9 #
transform $-1 1 0 0 0 1 0 0 0 1 56.60328989532151 31.958652446314751 14.078894865643894 1 rotate no_reflect no_shear #
lump $-1 $-1 $52 $10 #
transform $-1 1 0 0 0 1 0 0 0 1 56.60328989532151 31.958652446314751 14.078894865643894 1 rotate no_reflect no_shear #
lump $-1 $-1 $53 $11 #
transform $-1 1 0 0 0 1 0 0 0 1 56.60328989532151 31.958652446314751 14.078894865643894 1 rotate no_reflect no_shear #
lump $-1 $-1 $54 $12 #
transform $-1 1 0 0 0 1 0 0 0 1 56.60328989532151 31.958652446314751 14.078894865643894 1 rotate no_reflect no_shear #
lump $-1 $-1 $55 $13 #
transform $-1 1 0 0 0 1 0 0 0 1 56.60328989532151 31.958652446314751 14.078894865643894 1 rotate no_reflect no_shear #
shell $-1 $-1 $-1 $56 $-1 $14 #
shell $-1 $-1 $-1 $57 $-1 $16 #
shell $-1 $-1 $-1 $58 $-1 $18 #
shell $-1 $-1 $-1 $59 $-1 $20 #
shell $-1 $-1 $-1 $60 $-1 $22 #
shell $-1 $-1 $-1 $61 $-1 $24 #
shell $-1 $-1 $-1 $62 $-1 $26 #
shell $-1 $-1 $-1 $63 $-1 $28 #
shell $-1 $-1 $-1 $64 $-1 $30 #
shell $-1 $-1 $-1 $65 $-1 $32 #
shell $-1 $-1 $-1 $66 $-1 $34 #
shell $-1 $-1 $-1 $67 $-1 $36 #
shell $-1 $-1 $-1 $68 $-1 $38 #
shell $-1 $-1 $-1 $69 $-1 $40 #
face $-1 $70 $71 $42 $-1 $72 forward single #
face $-1 $73 $74 $43 $-1 $75 reversed single #
face $-1 $76 $77 $44 $-1 $78 reversed single #
face $-1 $79 $80 $45 $-1 $81 forward single #
face $-1 $82 $83 $46 $-1 $84 reversed single #
face $-1 $85 $86 $47 $-1 $87 forward single #
face $-1 $88 $89 $48 $-1 $90 reversed single #
face $-1 $91 $92 $49 $-1 $93 forward single #
face $-1 $94 $95 $50 $-1 $96 reversed single #
face $-1 $97 $98 $51 $-1 $99 forward single #
face $-1 $100 $101 $52 $-1 $102 reversed single #
face $-1 $103 $104 $53 $-1 $105 forward single #
face $-1 $106 $107 $54 $-1 $108 reversed single #
face $-1 $109 $110 $55 $-1 $111 forward single #
face $-1 $112 $113 $42 $-1 $114 reversed single #
loop $-1 $-1 $115 $56 #
plane-surface $-1 0 0 14.078894865643894 0 0 1 1 0 0 forward_v I I I I #
face $-1 $116 $117 $43 $-1 $118 reversed single #
loop $-1 $-1 $119 $57 #
plane-surface $-1 -48.332107806008622 0 7.1780150036758616 0 0 1 1 0 0 forward_v I I I I #
face $-1 $120 $121 $44 $-1 $122 reversed single #
loop $-1 $-1 $123 $58 #
plane-surface $-1 -30.317441005193629 55.7629443567075 131.2826456281523 1 0 0 0 -0.64278761758704617 -0.76604443648966558 forward_v I I I I #
face $-1 $124 $125 $45 $-1 $126 forward single #
loop $-1 $127 $128 $59 #
cone-surface $-1 -20.848082635705602 23.921798676891637 6.7289940152060774 0 -0.64278761758704617 -0.76604443648966558 2.5 0 0 1 I I 0 1 2.5 forward I I I I #
face $-1 $129 $130 $46 $-1 $131 reversed single #
loop $-1 $-1 $132 $60 #
plane-surface $-1 27.921088444843356 55.7629443567075 131.2826456281523 1 0 0 0 -0.64278761758704617 -0.76604443648966558 forward_v I I I I #
face $-1 $133 $134 $47 $-1 $135 forward single #
loop $-1 $136 $137 $61 #
cone-surface $-1 37.390446814331384 23.921798676891637 6.7289940152060774 0 -0.64278761758704617 -0.76604443648966558 2.5 0 0 1 I I 0 1 2.5 forward I I I I #
face $-1 $138 $139 $48 $-1 $140 reversed single #
loop $-1 $-1 $141 $62 #
plane-surface $-1 -20.07758647507184 -128.99563175413846 67.636218480107331 -1 0 0 0 -0.85716730853699208 0.51503806187062418 forward_v I I I I #
face $-1 $142 $143 $49 $-1 $144 forward single #
loop $-1 $145 $146 $63 #
cone-surface $-1 -28.016312553831533 -29.510962217564533 11.091148248002911 0 0.85716730853699208 -0.51503806187062418 1 0 0 1 I I 0 1 1 forward I I I I #
face $-1 $147 $148 $50 $-1 $149 reversed single #
loop $-1 $-1 $150 $64 #
plane-surface $-1 4.114076620357773 -128.99563175413846 67.636218480107331 -1 0 0 0 -0.85716730853699208 0.51503806187062418 forward_v I I I I #
face $-1 $151 $152 $51 $-1 $153 forward single #
loop $-1 $154 $155 $65 #
cone-surface $-1 -3.8246494584019217 -29.510962217564533 11.091148248002911 0 0.85716730853699208 -0.51503806187062418 1 0 0 1 I I 0 1 1 forward I I I I #
face $-1 $156 $157 $52 $-1 $158 reversed single #
loop $-1 $-1 $159 $66 #
plane-surface $-1 28.305739715787375 -128.99563175413846 67.636218480107331 -1 0 0 0 -0.85716730853699208 0.51503806187062418 forward_v I I I I #
face $-1 $160 $161 $53 $-1 $162 forward single #
loop $-1 $163 $164 $67 #
cone-surface $-1 20.367013637027682 -29.510962217564533 11.091148248002911 0 0.85716730853699208 -0.51503806187062418 1 0 0 1 I I 0 1 1 forward I I I I #
face $-1 $165 $166 $54 $-1 $167 reversed single #
loop $-1 $-1 $168 $68 #
plane-surface $-1 52.497402811216979 -128.99563175413846 67.636218480107331 -1 0 0 0 -0.85716730853699208 0.51503806187062418 forward_v I I I I #
face $-1 $169 $170 $55 $-1 $171 forward single #
loop $-1 $172 $173 $69 #
cone-surface $-1 44.558676732457286 -29.510962217564533 11.091148248002911 0 0.85716730853699208 -0.51503806187062418 1 0 0 1 I I 0 1 1 forward I I I I #
face $-1 $174 $175 $42 $-1 $176 reversed single #
loop $-1 $-1 $177 $70 #
plane-surface $-1 0 0 -14.078894865643894 0 0 1 1 0 0 forward_v I I I I #
coedge $-1 $178 $179 $180 $181 forward $71 $-1 #
face $-1 $182 $183 $43 $-1 $184 reversed single #
loop $-1 $-1 $185 $73 #
plane-surface $-1 -40.060925716695735 0 10.62845493465988 -1 0 0 0 0 1 forward_v I I I I #
coedge $-1 $186 $187 $188 $189 forward $74 $-1 #
face $-1 $190 $191 $44 $-1 $192 reversed single #
loop $-1 $-1 $193 $76 #
plane-surface $-1 -20.848082635705602 -17.00484336209778 44.561375005506804 0 0.64278761758704617 0.76604443648966558 1 0 0 forward_v I I I I #
coedge $-1 $194 $195 $196 $197 reversed $77 $-1 #
face $-1 $-1 $198 $45 $-1 $199 forward single #
loop $-1 $200 $201 $79 #
cone-surface $-1 -20.848082635705602 21.399406061199436 3.7229236164838131 0 -0.64278761758704617 -0.76604443648966558 1.25 0 0 1 I I -0.70710678118654746 0.70710678118654746 1.25 forward I I I I #
loop $-1 $-1 $202 $59 #
coedge $-1 $128 $128 $203 $204 reversed $80 $-1 #
face $-1 $205 $206 $46 $-1 $207 reversed single #
loop $-1 $-1 $208 $82 #
plane-surface $-1 37.390446814331384 -17.00484336209778 44.561375005506804 0 0.64278761758704617 0.76604443648966558 1 0 0 forward_v I I I I #
coedge $-1 $209 $210 $211 $212 reversed $83 $-1 #
face $-1 $-1 $213 $47 $-1 $214 forward single #
loop $-1 $215 $216 $85 #
cone-surface $-1 37.390446814331384 21.399406061199436 3.7229236164838131 0 -0.64278761758704617 -0.76604443648966558 1.25 0 0 1 I I -0.70710678118654746 0.70710678118654746 1.25 forward I I I I #
loop $-1 $-1 $217 $61 #
coedge $-1 $137 $137 $218 $219 reversed $86 $-1 #
face $-1 $220 $221 $48 $-1 $222 reversed single #
loop $-1 $-1 $223 $88 #
plane-surface $-1 -28.016312553831533 -31.958652446314744 9.3305210337323814 0 -0.85716730853699208 0.51503806187062418 1 0 0 forward_v I I I I #
coedge $-1 $224 $225 $226 $227 reversed $89 $-1 #
face $-1 $-1 $228 $49 $-1 $229 forward single #
loop $-1 $230 $231 $91 #
cone-surface $-1 -28.016312553831533 -28.061243705398105 10.220069515382372 0 0.85716730853699208 -0.51503806187062418 0.5 0 0 1 I I -0.70710678118654746 0.70710678118654746 0.5 forward I I I I #
loop $-1 $-1 $232 $63 #
coedge $-1 $146 $146 $233 $234 reversed $92 $-1 #
face $-1 $235 $236 $50 $-1 $237 reversed single #
loop $-1 $-1 $238 $94 #
plane-surface $-1 -3.8246494584019217 -31.958652446314744 9.3305210337323814 0 -0.85716730853699208 0.51503806187062418 1 0 0 forward_v I I I I #
coedge $-1 $239 $240 $241 $242 reversed $95 $-1 #
face $-1 $-1 $243 $51 $-1 $244 forward single #
loop $-1 $245 $246 $97 #
cone-surface $-1 -3.8246494584019217 -28.061243705398105 10.220069515382372 0 0.85716730853699208 -0.51503806187062418 0.5 0 0 1 I I -0.70710678118654746 0.70710678118654746 0.5 forward I I I I #
loop $-1 $-1 $247 $65 #
coedge $-1 $155 $155 $248 $249 reversed $98 $-1 #
face $-1 $250 $251 $52 $-1 $252 reversed single #
loop $-1 $-1 $253 $100 #
plane-surface $-1 20.367013637027682 -31.958652446314744 9.3305210337323814 0 -0.85716730853699208 0.51503806187062418 1 0 0 forward_v I I I I #
coedge $-1 $254 $255 $256 $257 reversed $101 $-1 #
face $-1 $-1 $258 $53 $-1 $259 forward single #
loop $-1 $260 $261 $103 #
cone-surface $-1 20.367013637027682 -28.061243705398105 10.220069515382372 0 0.85716730853699208 -0.51503806187062418 0.5 0 0 1 I I -0.70710678118654746 0.70710678118654746 0.5 forward I I I I #
loop $-1 $-1 $262 $67 #
coedge $-1 $164 $164 $263 $264 reversed $104 $-1 #
face $-1 $265 $266 $54 $-1 $267 reversed single #
loop $-1 $-1 $268 $106 #
plane-surface $-1 44.558676732457286 -31.958652446314744 9.3305210337323814 0 -0.85716730853699208 0.51503806187062418 1 0 0 forward_v I I I I #
coedge $-1 $269 $270 $271 $272 reversed $107 $-1 #
face $-1 $-1 $273 $55 $-1 $274 forward single #
loop $-1 $275 $276 $109 #
cone-surface $-1 44.558676732457286 -28.061243705398105 10.220069515382372 0 0.85716730853699208 -0.51503806187062418 0.5 0 0 1 I I -0.70710678118654746 0.70710678118654746 0.5 forward I I I I #
loop $-1 $-1 $277 $69 #
coedge $-1 $173 $173 $278 $279 reversed $110 $-1 #
face $-1 $280 $281 $42 $-1 $282 reversed single #
loop $-1 $-1 $283 $112 #
plane-surface $-1 0 -31.958652446314751 0 0 1 0 0 0 1 forward_v I I I I #
coedge $-1 $284 $285 $286 $287 forward $113 $-1 #
coedge $-1 $288 $115 $289 $290 forward $71 $-1 #
coedge $-1 $115 $288 $291 $292 forward $71 $-1 #
coedge $-1 $293 $294 $115 $181 reversed $295 $-1 #
edge $-1 $296 -31.958652446314751 $297 31.958652446314751 $180 $298 forward 7 unknown #
face $-1 $299 $300 $43 $-1 $301 reversed single #
loop $-1 $-1 $302 $116 #
plane-surface $-1 0 31.958652446314751 0 0 -1 0 0 0 -1 forward_v I I I I #
coedge $-1 $188 $303 $304 $305 reversed $117 $-1 #
coedge $-1 $306 $119 $307 $308 reversed $74 $-1 #
coedge $-1 $119 $306 $309 $310 reversed $74 $-1 #
coedge $-1 $311 $185 $119 $189 reversed $117 $-1 #
edge $-1 $312 -31.958652446314751 $313 31.958652446314751 $188 $314 forward 7 unknown #
face $-1 $315 $316 $44 $-1 $317 forward single #
loop $-1 $-1 $318 $120 #
plane-surface $-1 -11.378724266217574 55.7629443567075 131.2826456281523 -1 0 0 0 0.64278761758704617 0.76604443648966558 forward_v I I I I #
coedge $-1 $319 $320 $321 $322 reversed $121 $-1 #
coedge $-1 $195 $123 $323 $324 reversed $77 $-1 #
coedge $-1 $123 $194 $319 $325 reversed $77 $-1 #
coedge $-1 $321 $326 $123 $197 forward $316 $-1 #
edge $-1 $327 -4.0771802679610012 $328 8.558711083468463 $196 $329 forward 7 unknown #
loop $-1 $-1 $203 $124 #
plane-surface $-1 -20.848082635705602 -17.00484336209778 44.561375005506804 0 0.64278761758704617 0.76604443648966558 1 0 0 forward_v I I I I #
loop $-1 $-1 $330 $79 #
coedge $-1 $201 $201 $202 $331 reversed $125 $-1 #
coedge $-1 $202 $202 $201 $331 forward $127 $-1 #
coedge $-1 $203 $203 $128 $204 forward $198 $-1 #
edge $-1 $332 8.070450215296347e-016 $332 6.2831853071796013 $203 $333 forward 7 unknown #
face $-1 $334 $335 $46 $-1 $336 forward single #
loop $-1 $-1 $337 $129 #
plane-surface $-1 46.859805183819411 55.7629443567075 131.2826456281523 -1 0 0 0 0.64278761758704617 0.76604443648966558 forward_v I I I I #
coedge $-1 $338 $339 $340 $341 reversed $130 $-1 #
coedge $-1 $210 $132 $342 $343 reversed $83 $-1 #
coedge $-1 $132 $209 $338 $344 reversed $83 $-1 #
coedge $-1 $340 $345 $132 $212 forward $335 $-1 #
edge $-1 $346 -4.0771802679610012 $347 8.558711083468463 $211 $348 forward 7 unknown #
loop $-1 $-1 $218 $133 #
plane-surface $-1 37.390446814331384 -17.00484336209778 44.561375005506804 0 0.64278761758704617 0.76604443648966558 1 0 0 forward_v I I I I #
loop $-1 $-1 $349 $85 #
coedge $-1 $216 $216 $217 $350 reversed $134 $-1 #
coedge $-1 $217 $217 $216 $350 forward $136 $-1 #
coedge $-1 $218 $218 $137 $219 forward $213 $-1 #
edge $-1 $351 8.070450215296347e-016 $351 6.2831853071796013 $218 $352 forward 7 unknown #
face $-1 $353 $354 $48 $-1 $355 reversed single #
loop $-1 $-1 $356 $138 #
plane-surface $-1 -35.955038632591226 -128.99563175413846 67.636218480107331 1 0 0 0 0.85716730853699208 -0.51503806187062418 forward_v I I I I #
coedge $-1 $357 $358 $359 $360 reversed $139 $-1 #
coedge $-1 $225 $141 $361 $362 reversed $89 $-1 #
coedge $-1 $141 $224 $357 $363 reversed $89 $-1 #
coedge $-1 $359 $364 $141 $227 forward $365 $-1 #
edge $-1 $366 32.539163430754478 $367 35.392274172459068 $226 $368 forward 7 unknown #
loop $-1 $-1 $233 $142 #
plane-surface $-1 -28.016312553831533 -31.958652446314744 9.3305210337323814 0 -0.85716730853699208 0.51503806187062418 1 0 0 forward_v I I I I #
loop $-1 $-1 $369 $91 #
coedge $-1 $231 $231 $232 $370 reversed $143 $-1 #
coedge $-1 $232 $232 $231 $370 forward $145 $-1 #
coedge $-1 $233 $233 $146 $234 forward $228 $-1 #
edge $-1 $371 -6.1429551296134909e-016 $371 6.2831853071795996 $233 $372 forward 7 unknown #
face $-1 $373 $374 $50 $-1 $375 reversed single #
loop $-1 $-1 $376 $147 #
plane-surface $-1 -11.763375537161616 -128.99563175413846 67.636218480107331 1 0 0 0 0.85716730853699208 -0.51503806187062418 forward_v I I I I #
coedge $-1 $377 $378 $379 $380 reversed $148 $-1 #
coedge $-1 $240 $150 $381 $382 reversed $95 $-1 #
coedge $-1 $150 $239 $377 $383 reversed $95 $-1 #
coedge $-1 $379 $384 $150 $242 forward $385 $-1 #
edge $-1 $386 32.539163430754478 $387 35.392274172459068 $241 $388 forward 7 unknown #
loop $-1 $-1 $248 $151 #
plane-surface $-1 -3.8246494584019217 -31.958652446314744 9.3305210337323814 0 -0.85716730853699208 0.51503806187062418 1 0 0 forward_v I I I I #
loop $-1 $-1 $389 $97 #
coedge $-1 $246 $246 $247 $390 reversed $152 $-1 #
coedge $-1 $247 $247 $246 $390 forward $154 $-1 #
coedge $-1 $248 $248 $155 $249 forward $243 $-1 #
edge $-1 $391 -6.1429551296134909e-016 $391 6.2831853071795996 $248 $392 forward 7 unknown #
face $-1 $393 $394 $52 $-1 $395 reversed single #
loop $-1 $-1 $396 $156 #
plane-surface $-1 12.428287558267987 -128.99563175413846 67.636218480107331 1 0 0 0 0.85716730853699208 -0.51503806187062418 forward_v I I I I #
coedge $-1 $397 $398 $399 $400 reversed $157 $-1 #
coedge $-1 $255 $159 $401 $402 reversed $101 $-1 #
coedge $-1 $159 $254 $397 $403 reversed $101 $-1 #
coedge $-1 $399 $404 $159 $257 forward $405 $-1 #
edge $-1 $406 32.539163430754478 $407 35.392274172459068 $256 $408 forward 7 unknown #
loop $-1 $-1 $263 $160 #
plane-surface $-1 20.367013637027682 -31.958652446314744 9.3305210337323814 0 -0.85716730853699208 0.51503806187062418 1 0 0 forward_v I I I I #
loop $-1 $-1 $409 $103 #
coedge $-1 $261 $261 $262 $410 reversed $161 $-1 #
coedge $-1 $262 $262 $261 $410 forward $163 $-1 #
coedge $-1 $263 $263 $164 $264 forward $258 $-1 #
edge $-1 $411 -6.1429551296134909e-016 $411 6.2831853071795996 $263 $412 forward 7 unknown #
face $-1 $413 $414 $54 $-1 $415 reversed single #
loop $-1 $-1 $416 $165 #
plane-surface $-1 36.619950653697593 -128.99563175413846 67.636218480107331 1 0 0 0 0.85716730853699208 -0.51503806187062418 forward_v I I I I #
coedge $-1 $417 $418 $419 $420 reversed $166 $-1 #
coedge $-1 $270 $168 $421 $422 reversed $107 $-1 #
coedge $-1 $168 $269 $417 $423 reversed $107 $-1 #
coedge $-1 $419 $424 $168 $272 forward $425 $-1 #
edge $-1 $426 32.539163430754478 $427 35.392274172459068 $271 $428 forward 7 unknown #
loop $-1 $-1 $278 $169 #
plane-surface $-1 44.558676732457286 -31.958652446314744 9.3305210337323814 0 -0.85716730853699208 0.51503806187062418 1 0 0 forward_v I I I I #
loop $-1 $-1 $429 $109 #
coedge $-1 $276 $276 $277 $430 reversed $170 $-1 #
coedge $-1 $277 $277 $276 $430 forward $172 $-1 #
coedge $-1 $278 $278 $173 $279 forward $273 $-1 #
edge $-1 $431 -6.1429551296134909e-016 $431 6.2831853071795996 $278 $432 forward 7 unknown #
face $-1 $433 $434 $42 $-1 $435 reversed single #
loop $-1 $-1 $436 $174 #
plane-surface $-1 -56.60328989532151 0 0 1 0 0 0 0 -1 forward_v I I I I #
coedge $-1 $437 $291 $438 $439 forward $175 $-1 #
coedge $-1 $440 $177 $437 $441 forward $113 $-1 #
coedge $-1 $177 $440 $442 $443 forward $113 $-1 #
coedge $-1 $294 $293 $177 $287 reversed $295 $-1 #
edge $-1 $444 -31.958652446314751 $445 31.958652446314751 $286 $446 forward 7 unknown #
coedge $-1 $179 $178 $447 $448 forward $71 $-1 #
coedge $-1 $449 $450 $178 $290 reversed $434 $-1 #
edge $-1 $297 -56.60328989532151 $451 56.60328989532151 $289 $452 forward 7 unknown #
coedge $-1 $283 $453 $179 $292 reversed $175 $-1 #
edge $-1 $454 -56.60328989532151 $296 56.60328989532151 $291 $455 forward 7 unknown #
coedge $-1 $286 $180 $453 $456 forward $295 $-1 #
coedge $-1 $180 $286 $449 $457 reversed $295 $-1 #
loop $-1 $-1 $293 $433 #
vertex $-1 $181 $458 #
vertex $-1 $181 $459 #
straight-curve $-1 56.60328989532151 0 14.078894865643894 0 1 0 I I #
face $-1 $460 $461 $43 $-1 $462 forward single #
loop $-1 $-1 $463 $182 #
plane-surface $-1 -56.60328989532151 0 0 1 0 0 0 0 -1 forward_v I I I I #
coedge $-1 $309 $464 $311 $465 forward $183 $-1 #
coedge $-1 $185 $311 $466 $467 reversed $117 $-1 #
coedge $-1 $468 $307 $185 $305 forward $469 $-1 #
edge $-1 $313 1.8637875363459218 $470 8.7646673983139571 $304 $471 forward 7 unknown #
coedge $-1 $187 $186 $463 $472 reversed $74 $-1 #
coedge $-1 $304 $473 $186 $308 forward $469 $-1 #
edge $-1 $474 -32.437235992317198 $313 -15.894871813691424 $307 $475 forward 7 unknown #
coedge $-1 $476 $302 $187 $310 forward $183 $-1 #
edge $-1 $312 15.894871813691424 $477 32.437235992317198 $309 $478 forward 7 unknown #
coedge $-1 $303 $188 $302 $465 reversed $117 $-1 #
vertex $-1 $310 $479 #
vertex $-1 $308 $480 #
straight-curve $-1 -40.060925716695735 0 7.1780150036758616 0 -1 0 I I #
face $-1 $-1 $481 $44 $-1 $482 reversed single #
loop $-1 $-1 $196 $190 #
plane-surface $-1 0 0 14.078894865643894 0 0 1 1 0 0 forward_v I I I I #
coedge $-1 $483 $484 $485 $486 reversed $191 $-1 #
coedge $-1 $487 $193 $195 $325 forward $121 $-1 #
coedge $-1 $193 $487 $483 $488 forward $121 $-1 #
coedge $-1 $485 $196 $193 $322 forward $316 $-1 #
edge $-1 $328 -19.893399687340828 $489 -0.95468294836477341 $321 $490 forward 7 unknown #
coedge $-1 $491 $492 $194 $324 forward $481 $-1 #
edge $-1 $493 -62.165199943087529 $327 -51.562427948432251 $323 $494 forward 7 unknown #
edge $-1 $328 47.422320072515987 $493 63.917304892629531 $195 $495 forward 7 unknown #
coedge $-1 $196 $485 $491 $496 forward $316 $-1 #
vertex $-1 $324 $497 #
vertex $-1 $197 $498 #
straight-curve $-1 -30.317441005193629 27.88147217835375 14.078894865643896 0 -1 0 I I #
coedge $-1 $330 $330 $-1 $499 reversed $200 $-1 #
edge $-1 $500 0 $500 6.2831853071796004 $201 $501 forward 7 unknown #
vertex $-1 $204 $502 #
ellipse-curve $-1 -20.848082635705602 25.640706770600026 8.7775088683162554 0 0.64278761758704617 0.76604443648966558 2.5 0 0 1 I I #
face $-1 $-1 $503 $46 $-1 $504 reversed single #
loop $-1 $-1 $211 $205 #
plane-surface $-1 0 0 14.078894865643894 0 0 1 1 0 0 forward_v I I I I #
coedge $-1 $505 $506 $507 $508 reversed $206 $-1 #
coedge $-1 $509 $208 $210 $344 forward $130 $-1 #
coedge $-1 $208 $509 $505 $510 forward $130 $-1 #
coedge $-1 $507 $211 $208 $341 forward $335 $-1 #
edge $-1 $347 9.2258650376776643 $511 28.164581776653719 $340 $512 forward 7 unknown #
coedge $-1 $513 $514 $209 $343 forward $503 $-1 #
edge $-1 $515 -62.165199943087529 $346 -51.562427948432251 $342 $516 forward 7 unknown #
edge $-1 $347 47.422320072515987 $515 63.917304892629531 $210 $517 forward 7 unknown #
coedge $-1 $211 $507 $513 $518 forward $335 $-1 #
vertex $-1 $212 $519 #
vertex $-1 $212 $520 #
straight-curve $-1 27.921088444843356 27.88147217835375 14.078894865643896 0 -1 0 I I #
coedge $-1 $349 $349 $-1 $521 reversed $215 $-1 #
edge $-1 $522 0 $522 6.2831853071796004 $216 $523 forward 7 unknown #
vertex $-1 $219 $524 #
ellipse-curve $-1 37.390446814331384 25.640706770600026 8.7775088683162554 0 0.64278761758704617 0.76604443648966558 2.5 0 0 1 I I #
face $-1 $-1 $365 $48 $-1 $525 forward single #
loop $-1 $-1 $526 $220 #
plane-surface $-1 0 -31.958652446314751 0 0 1 0 0 0 1 forward_v I I I I #
coedge $-1 $527 $528 $529 $530 reversed $221 $-1 #
coedge $-1 $531 $223 $225 $363 forward $139 $-1 #
coedge $-1 $223 $531 $527 $532 forward $139 $-1 #
coedge $-1 $529 $226 $223 $360 forward $365 $-1 #
edge $-1 $367 6.0694301981560734 $533 21.946882355675459 $359 $534 forward 7 unknown #
coedge $-1 $535 $536 $224 $362 forward $354 $-1 #
edge $-1 $537 -24.487588206321298 $366 -19.739214374409769 $361 $538 forward 7 unknown #
edge $-1 $367 -5.5396114441368622 $537 1.431801061223127e-014 $225 $539 forward 7 unknown #
coedge $-1 $226 $529 $535 $540 forward $365 $-1 #
loop $-1 $-1 $529 $353 #
vertex $-1 $362 $541 #
vertex $-1 $227 $542 #
straight-curve $-1 -20.07758647507184 -64.497815877069229 14.078894865643896 0 1 0 I I #
coedge $-1 $369 $369 $-1 $543 reversed $230 $-1 #
edge $-1 $544 0 $544 6.2831853071796004 $231 $545 forward 7 unknown #
vertex $-1 $234 $546 #
ellipse-curve $-1 -28.016312553831533 -30.532097075462456 11.704707949688133 0 -0.85716730853699208 0.51503806187062418 1 0 0 1 I I #
face $-1 $-1 $385 $50 $-1 $547 forward single #
loop $-1 $-1 $548 $235 #
plane-surface $-1 0 -31.958652446314751 0 0 1 0 0 0 1 forward_v I I I I #
coedge $-1 $549 $550 $551 $552 reversed $236 $-1 #
coedge $-1 $553 $238 $240 $383 forward $148 $-1 #
coedge $-1 $238 $553 $549 $554 forward $148 $-1 #
coedge $-1 $551 $241 $238 $380 forward $385 $-1 #
edge $-1 $387 -6.0264013495587339 $555 9.8510508079606556 $379 $556 forward 7 unknown #
coedge $-1 $557 $558 $239 $382 forward $374 $-1 #
edge $-1 $559 -24.487588206321298 $386 -19.739214374409769 $381 $560 forward 7 unknown #
edge $-1 $387 -5.5396114441368622 $559 1.431801061223127e-014 $240 $561 forward 7 unknown #
coedge $-1 $241 $551 $557 $562 forward $385 $-1 #
loop $-1 $-1 $551 $373 #
vertex $-1 $382 $563 #
vertex $-1 $242 $564 #
straight-curve $-1 4.114076620357773 -64.497815877069229 14.078894865643896 0 1 0 I I #
coedge $-1 $389 $389 $-1 $565 reversed $245 $-1 #
edge $-1 $566 0 $566 6.2831853071796004 $246 $567 forward 7 unknown #
vertex $-1 $249 $568 #
ellipse-curve $-1 -3.8246494584019217 -30.532097075462456 11.704707949688133 0 -0.85716730853699208 0.51503806187062418 1 0 0 1 I I #
face $-1 $-1 $405 $52 $-1 $569 forward single #
loop $-1 $-1 $570 $250 #
plane-surface $-1 0 -31.958652446314751 0 0 1 0 0 0 1 forward_v I I I I #
coedge $-1 $571 $572 $573 $574 reversed $251 $-1 #
coedge $-1 $575 $253 $255 $403 forward $157 $-1 #
coedge $-1 $253 $575 $571 $576 forward $157 $-1 #
coedge $-1 $573 $256 $253 $400 forward $405 $-1 #
edge $-1 $407 -18.122232897273534 $577 -2.2447807397541464 $399 $578 forward 7 unknown #
coedge $-1 $579 $580 $254 $402 forward $394 $-1 #
edge $-1 $581 -24.487588206321298 $406 -19.739214374409769 $401 $582 forward 7 unknown #
edge $-1 $407 -5.5396114441368622 $581 1.431801061223127e-014 $255 $583 forward 7 unknown #
coedge $-1 $256 $573 $579 $584 forward $405 $-1 #
loop $-1 $-1 $573 $393 #
vertex $-1 $402 $585 #
vertex $-1 $257 $586 #
straight-curve $-1 28.305739715787375 -64.497815877069229 14.078894865643896 0 1 0 I I #
coedge $-1 $409 $409 $-1 $587 reversed $260 $-1 #
edge $-1 $588 0 $588 6.2831853071796004 $261 $589 forward 7 unknown #
vertex $-1 $264 $590 #
ellipse-curve $-1 20.367013637027682 -30.532097075462456 11.704707949688133 0 -0.85716730853699208 0.51503806187062418 1 0 0 1 I I #
face $-1 $-1 $425 $54 $-1 $591 forward single #
loop $-1 $-1 $592 $265 #
plane-surface $-1 0 -31.958652446314751 0 0 1 0 0 0 1 forward_v I I I I #
coedge $-1 $593 $594 $595 $596 reversed $266 $-1 #
coedge $-1 $597 $268 $270 $423 forward $166 $-1 #
coedge $-1 $268 $597 $593 $598 forward $166 $-1 #
coedge $-1 $595 $271 $268 $420 forward $425 $-1 #
edge $-1 $427 -30.218064444988336 $599 -14.34061228746895 $419 $600 forward 7 unknown #
coedge $-1 $601 $602 $269 $422 forward $414 $-1 #
edge $-1 $603 -24.487588206321298 $426 -19.739214374409769 $421 $604 forward 7 unknown #
edge $-1 $427 -5.5396114441368622 $603 1.431801061223127e-014 $270 $605 forward 7 unknown #
coedge $-1 $271 $595 $601 $606 forward $425 $-1 #
loop $-1 $-1 $595 $413 #
vertex $-1 $422 $607 #
vertex $-1 $272 $608 #
straight-curve $-1 52.497402811216979 -64.497815877069229 14.078894865643896 0 1 0 I I #
coedge $-1 $429 $429 $-1 $609 reversed $275 $-1 #
edge $-1 $610 0 $610 6.2831853071796004 $276 $611 forward 7 unknown #
vertex $-1 $279 $612 #
ellipse-curve $-1 44.558676732457286 -30.532097075462456 11.704707949688133 0 -0.85716730853699208 0.51503806187062418 1 0 0 1 I I #
face $-1 $-1 $295 $42 $-1 $613 reversed single #
loop $-1 $-1 $449 $280 #
plane-surface $-1 0 31.958652446314751 0 0 -1 0 0 0 -1 forward_v I I I I #
coedge $-1 $614 $447 $450 $615 forward $281 $-1 #
coedge $-1 $453 $283 $284 $441 reversed $175 $-1 #
coedge $-1 $447 $614 $283 $439 reversed $281 $-1 #
edge $-1 $454 -14.078894865643894 $616 14.078894865643894 $438 $617 forward 7 unknown #
coedge $-1 $285 $284 $614 $618 forward $113 $-1 #
edge $-1 $445 -56.60328989532151 $616 56.60328989532151 $437 $619 forward 7 unknown #
coedge $-1 $450 $449 $285 $443 reversed $434 $-1 #
edge $-1 $620 -56.60328989532151 $444 56.60328989532151 $442 $621 forward 7 unknown #
vertex $-1 $287 $622 #
vertex $-1 $456 $623 #
straight-curve $-1 56.60328989532151 0 -14.078894865643894 0 -1 0 I I #
coedge $-1 $436 $438 $288 $448 reversed $281 $-1 #
edge $-1 $451 -31.958652446314751 $454 31.958652446314751 $447 $624 forward 7 unknown #
coedge $-1 $442 $289 $294 $457 forward $434 $-1 #
coedge $-1 $289 $442 $436 $615 reversed $434 $-1 #
vertex $-1 $290 $625 #
straight-curve $-1 0 31.958652446314751 14.078894865643894 -1 0 0 I I #
coedge $-1 $291 $437 $293 $456 reversed $175 $-1 #
vertex $-1 $448 $626 #
straight-curve $-1 0 -31.958652446314751 14.078894865643894 1 0 0 I I #
edge $-1 $296 -14.078894865643894 $445 14.078894865643894 $293 $627 forward 7 unknown #
edge $-1 $297 -14.078894865643894 $444 14.078894865643894 $294 $628 forward 7 unknown #
point $-1 56.60328989532151 -31.958652446314751 14.078894865643894 #
point $-1 56.60328989532151 31.958652446314751 14.078894865643894 #
face $-1 $-1 $469 $43 $-1 $629 reversed single #
loop $-1 $-1 $466 $299 #
plane-surface $-1 0 0 14.078894865643894 0 0 1 1 0 0 forward_v I I I I #
coedge $-1 $630 $631 $306 $472 forward $300 $-1 #
coedge $-1 $302 $476 $632 $633 reversed $183 $-1 #
edge $-1 $634 -8.7646673983139571 $312 -1.8637875363459218 $302 $635 forward 7 unknown #
coedge $-1 $632 $636 $303 $467 forward $461 $-1 #
edge $-1 $470 -31.958652446314751 $634 31.958652446314751 $466 $637 forward 7 unknown #
coedge $-1 $473 $304 $636 $638 reversed $469 $-1 #
loop $-1 $-1 $304 $460 #
vertex $-1 $305 $639 #
straight-curve $-1 -40.060925716695735 -31.958652446314751 5.3142274673299399 0 0 1 I I #
edge $-1 $477 -31.958652446314751 $474 31.958652446314751 $463 $640 forward 7 unknown #
coedge $-1 $307 $468 $630 $641 forward $469 $-1 #
vertex $-1 $472 $642 #
straight-curve $-1 -24.166053903004311 -31.958652446314751 7.1780150036758616 1 0 0 I I #
coedge $-1 $464 $309 $631 $643 reversed $183 $-1 #
vertex $-1 $472 $644 #
straight-curve $-1 -24.166053903004311 31.958652446314751 7.1780150036758616 -1 0 0 I I #
point $-1 -40.060925716695735 31.958652446314751 7.1780150036758616 #
point $-1 -40.060925716695735 -31.958652446314751 7.1780150036758616 #
loop $-1 $-1 $323 $315 #
plane-surface $-1 0 31.958652446314751 0 0 -1 0 0 0 -1 forward_v I I I I #
coedge $-1 $484 $318 $320 $488 reversed $191 $-1 #
coedge $-1 $318 $483 $645 $646 reversed $191 $-1 #
coedge $-1 $326 $321 $318 $486 forward $316 $-1 #
edge $-1 $489 -8.558711083468463 $647 4.0771802679610012 $485 $648 forward 7 unknown #
coedge $-1 $320 $319 $492 $649 reversed $121 $-1 #
edge $-1 $650 -63.917304892629531 $489 -47.422320072515987 $483 $651 forward 7 unknown #
vertex $-1 $322 $652 #
straight-curve $-1 -10.424041317852801 19.32276109488528 14.0788948656439 1 0 0 I I #
coedge $-1 $645 $323 $326 $496 reversed $481 $-1 #
coedge $-1 $323 $645 $487 $649 forward $481 $-1 #
vertex $-1 $324 $653 #
straight-curve $-1 -30.317441005193629 31.958652446314751 65.641322814076148 0 0 1 I I #
straight-curve $-1 -30.317441005193629 -17.00484336209778 44.561375005506804 0 0.76604443648966558 -0.64278761758704617 I I #
edge $-1 $647 11.378724266217574 $327 30.317441005193629 $491 $654 forward 7 unknown #
point $-1 -30.317441005193629 31.958652446314751 14.078894865643894 #
point $-1 -30.317441005193629 19.322761094885287 14.078894865643893 #
edge $-1 $655 1 $655 0 $330 $-1 forward 7 unknown #
vertex $-1 $331 $656 #
ellipse-curve $-1 -20.848082635705602 22.202890583183244 4.680479162095895 0 0.64278761758704617 0.76604443648966558 2.5 0 0 1 I I #
point $-1 -18.348082635705602 25.640706770600033 8.7775088683162608 #
loop $-1 $-1 $342 $334 #
plane-surface $-1 0 31.958652446314751 0 0 -1 0 0 0 -1 forward_v I I I I #
coedge $-1 $506 $337 $339 $510 reversed $206 $-1 #
coedge $-1 $337 $505 $657 $658 reversed $206 $-1 #
coedge $-1 $345 $340 $337 $508 forward $335 $-1 #
edge $-1 $511 -8.558711083468463 $659 4.0771802679610012 $507 $660 forward 7 unknown #
coedge $-1 $339 $338 $514 $661 reversed $130 $-1 #
edge $-1 $662 -63.917304892629531 $511 -47.422320072515987 $505 $663 forward 7 unknown #
vertex $-1 $341 $664 #
straight-curve $-1 18.695223407165692 19.32276109488528 14.0788948656439 1 0 0 I I #
coedge $-1 $657 $342 $345 $518 reversed $503 $-1 #
coedge $-1 $342 $657 $509 $661 forward $503 $-1 #
vertex $-1 $343 $665 #
straight-curve $-1 27.921088444843356 31.958652446314751 65.641322814076148 0 0 1 I I #
straight-curve $-1 27.921088444843356 -17.00484336209778 44.561375005506804 0 0.76604443648966558 -0.64278761758704617 I I #
edge $-1 $659 -46.859805183819411 $346 -27.921088444843356 $513 $666 forward 7 unknown #
point $-1 27.921088444843356 31.958652446314751 14.078894865643894 #
point $-1 27.921088444843356 19.322761094885287 14.078894865643893 #
edge $-1 $667 1 $667 0 $349 $-1 forward 7 unknown #
vertex $-1 $350 $668 #
ellipse-curve $-1 37.390446814331384 22.202890583183244 4.680479162095895 0 0.64278761758704617 0.76604443648966558 2.5 0 0 1 I I #
point $-1 39.890446814331384 25.640706770600033 8.7775088683162608 #
plane-surface $-1 0 0 14.078894865643894 0 0 1 1 0 0 forward_v I I I I #
coedge $-1 $536 $535 $528 $669 forward $354 $-1 #
coedge $-1 $528 $356 $358 $532 reversed $221 $-1 #
coedge $-1 $356 $527 $526 $669 reversed $221 $-1 #
coedge $-1 $364 $359 $356 $530 forward $365 $-1 #
edge $-1 $533 -35.392274172459068 $670 -32.539163430754478 $529 $671 forward 7 unknown #
coedge $-1 $358 $357 $536 $672 reversed $139 $-1 #
edge $-1 $673 -1.431801061223127e-014 $533 5.5396114441368622 $527 $674 forward 7 unknown #
vertex $-1 $360 $675 #
straight-curve $-1 -14.008156276915766 -29.105541704610161 14.078894865643894 -1 0 0 I I #
coedge $-1 $526 $361 $364 $540 reversed $354 $-1 #
coedge $-1 $361 $526 $531 $672 forward $354 $-1 #
vertex $-1 $362 $676 #
straight-curve $-1 -20.07758647507184 -31.958652446314751 33.818109240053666 0 0 1 I I #
straight-curve $-1 -20.07758647507184 -31.958652446314744 9.3305210337323814 0 -0.51503806187062418 -0.85716730853699208 I I #
edge $-1 $670 -35.955038632591226 $366 -20.07758647507184 $535 $677 forward 7 unknown #
point $-1 -20.07758647507184 -31.958652446314751 14.078894865643894 #
point $-1 -20.07758647507184 -29.105541704610165 14.078894865643894 #
edge $-1 $678 1 $678 0 $369 $-1 forward 7 unknown #
vertex $-1 $370 $679 #
ellipse-curve $-1 -28.016312553831533 -28.489827359666602 10.477588546317683 0 -0.85716730853699208 0.51503806187062418 1 0 0 1 I I #
point $-1 -27.016312553831533 -30.532097075462463 11.704707949688137 #
plane-surface $-1 0 0 14.078894865643894 0 0 1 1 0 0 forward_v I I I I #
coedge $-1 $558 $557 $550 $680 forward $374 $-1 #
coedge $-1 $550 $376 $378 $554 reversed $236 $-1 #
coedge $-1 $376 $549 $548 $680 reversed $236 $-1 #
coedge $-1 $384 $379 $376 $552 forward $385 $-1 #
edge $-1 $555 -35.392274172459068 $681 -32.539163430754478 $551 $682 forward 7 unknown #
coedge $-1 $378 $377 $558 $683 reversed $148 $-1 #
edge $-1 $684 -1.431801061223127e-014 $555 5.5396114441368622 $549 $685 forward 7 unknown #
vertex $-1 $380 $686 #
straight-curve $-1 -1.9123247292009609 -29.105541704610161 14.078894865643894 -1 0 0 I I #
coedge $-1 $548 $381 $384 $562 reversed $374 $-1 #
coedge $-1 $381 $548 $553 $683 forward $374 $-1 #
vertex $-1 $382 $687 #
straight-curve $-1 4.114076620357773 -31.958652446314751 33.818109240053666 0 0 1 I I #
straight-curve $-1 4.114076620357773 -31.958652446314744 9.3305210337323814 0 -0.51503806187062418 -0.85716730853699208 I I #
edge $-1 $681 -11.763375537161616 $386 4.114076620357773 $557 $688 forward 7 unknown #
point $-1 4.114076620357773 -31.958652446314751 14.078894865643894 #
point $-1 4.114076620357773 -29.105541704610165 14.078894865643894 #
edge $-1 $689 1 $689 0 $389 $-1 forward 7 unknown #
vertex $-1 $390 $690 #
ellipse-curve $-1 -3.8246494584019217 -28.489827359666602 10.477588546317683 0 -0.85716730853699208 0.51503806187062418 1 0 0 1 I I #
point $-1 -2.8246494584019217 -30.532097075462463 11.704707949688137 #
plane-surface $-1 0 0 14.078894865643894 0 0 1 1 0 0 forward_v I I I I #
coedge $-1 $580 $579 $572 $691 forward $394 $-1 #
coedge $-1 $572 $396 $398 $576 reversed $251 $-1 #
coedge $-1 $396 $571 $570 $691 reversed $251 $-1 #
coedge $-1 $404 $399 $396 $574 forward $405 $-1 #
edge $-1 $577 -35.392274172459068 $692 -32.539163430754478 $573 $693 forward 7 unknown #
coedge $-1 $398 $397 $580 $694 reversed $157 $-1 #
edge $-1 $695 -1.431801061223127e-014 $577 5.5396114441368622 $571 $696 forward 7 unknown #
vertex $-1 $400 $697 #
straight-curve $-1 10.183506818513841 -29.105541704610161 14.078894865643894 -1 0 0 I I #
coedge $-1 $570 $401 $404 $584 reversed $394 $-1 #
coedge $-1 $401 $570 $575 $694 forward $394 $-1 #
vertex $-1 $402 $698 #
straight-curve $-1 28.305739715787375 -31.958652446314751 33.818109240053666 0 0 1 I I #
straight-curve $-1 28.305739715787375 -31.958652446314744 9.3305210337323814 0 -0.51503806187062418 -0.85716730853699208 I I #
edge $-1 $692 12.428287558267987 $406 28.305739715787375 $579 $699 forward 7 unknown #
point $-1 28.305739715787375 -31.958652446314751 14.078894865643894 #
point $-1 28.305739715787375 -29.105541704610165 14.078894865643894 #
edge $-1 $700 1 $700 0 $409 $-1 forward 7 unknown #
vertex $-1 $410 $701 #
ellipse-curve $-1 20.367013637027682 -28.489827359666602 10.477588546317683 0 -0.85716730853699208 0.51503806187062418 1 0 0 1 I I #
point $-1 21.367013637027682 -30.532097075462463 11.704707949688137 #
plane-surface $-1 0 0 14.078894865643894 0 0 1 1 0 0 forward_v I I I I #
coedge $-1 $602 $601 $594 $702 forward $414 $-1 #
coedge $-1 $594 $416 $418 $598 reversed $266 $-1 #
coedge $-1 $416 $593 $592 $702 reversed $266 $-1 #
coedge $-1 $424 $419 $416 $596 forward $425 $-1 #
edge $-1 $599 -35.392274172459068 $703 -32.539163430754478 $595 $704 forward 7 unknown #
coedge $-1 $418 $417 $602 $705 reversed $166 $-1 #
edge $-1 $706 -1.431801061223127e-014 $599 5.5396114441368622 $593 $707 forward 7 unknown #
vertex $-1 $420 $708 #
straight-curve $-1 22.279338366228643 -29.105541704610161 14.078894865643894 -1 0 0 I I #
coedge $-1 $592 $421 $424 $606 reversed $414 $-1 #
coedge $-1 $421 $592 $597 $705 forward $414 $-1 #
vertex $-1 $422 $709 #
straight-curve $-1 52.497402811216979 -31.958652446314751 33.818109240053666 0 0 1 I I #
straight-curve $-1 52.497402811216979 -31.958652446314744 9.3305210337323814 0 -0.51503806187062418 -0.85716730853699208 I I #
edge $-1 $703 36.619950653697593 $426 52.497402811216979 $601 $710 forward 7 unknown #
point $-1 52.497402811216979 -31.958652446314751 14.078894865643894 #
point $-1 52.497402811216979 -29.105541704610165 14.078894865643894 #
edge $-1 $711 1 $711 0 $429 $-1 forward 7 unknown #
vertex $-1 $430 $712 #
ellipse-curve $-1 44.558676732457286 -28.489827359666602 10.477588546317683 0 -0.85716730853699208 0.51503806187062418 1 0 0 1 I I #
point $-1 45.558676732457286 -30.532097075462463 11.704707949688137 #
plane-surface $-1 56.60328989532151 0 0 -1 0 0 0 0 1 forward_v I I I I #
coedge $-1 $438 $436 $440 $618 reversed $281 $-1 #
edge $-1 $451 -14.078894865643894 $620 14.078894865643894 $450 $713 forward 7 unknown #
vertex $-1 $618 $714 #
straight-curve $-1 -56.60328989532151 -31.958652446314751 0 0 0 -1 I I #
edge $-1 $616 -31.958652446314751 $620 31.958652446314751 $614 $715 forward 7 unknown #
straight-curve $-1 0 -31.958652446314751 -14.078894865643894 -1 0 0 I I #
vertex $-1 $443 $716 #
straight-curve $-1 0 31.958652446314751 -14.078894865643894 1 0 0 I I #
point $-1 56.60328989532151 31.958652446314751 -14.078894865643894 #
point $-1 56.60328989532151 -31.958652446314751 -14.078894865643894 #
straight-curve $-1 -56.60328989532151 0 14.078894865643894 0 -1 0 I I #
point $-1 -56.60328989532151 31.958652446314751 14.078894865643894 #
point $-1 -56.60328989532151 -31.958652446314751 14.078894865643894 #
straight-curve $-1 56.60328989532151 -31.958652446314751 0 0 0 -1 I I #
straight-curve $-1 56.60328989532151 31.958652446314751 0 0 0 -1 I I #
plane-surface $-1 0 -31.958652446314751 0 0 1 0 0 0 1 forward_v I I I I #
coedge $-1 $717 $463 $473 $641 reversed $300 $-1 #
coedge $-1 $463 $717 $476 $643 forward $300 $-1 #
coedge $-1 $718 $466 $464 $633 forward $461 $-1 #
edge $-1 $634 40.060925716695735 $719 56.60328989532151 $464 $720 forward 7 unknown #
vertex $-1 $633 $721 #
straight-curve $-1 -40.060925716695735 31.958652446314751 5.3142274673299399 0 0 -1 I I #
coedge $-1 $466 $718 $468 $638 forward $461 $-1 #
straight-curve $-1 -40.060925716695735 0 14.078894865643894 0 1 0 I I #
edge $-1 $722 -56.60328989532151 $470 -40.060925716695735 $468 $723 forward 7 unknown #
point $-1 -40.060925716695735 -31.958652446314751 14.078894865643898 #
straight-curve $-1 -56.60328989532151 0 7.1780150036758616 0 -1 0 I I #
edge $-1 $722 -14.078894865643894 $474 -7.1780150036758616 $630 $724 forward 7 unknown #
point $-1 -56.60328989532151 -31.958652446314751 7.1780150036758616 #
edge $-1 $719 -14.078894865643894 $477 -7.1780150036758616 $476 $725 forward 7 unknown #
point $-1 -56.60328989532151 31.958652446314751 7.1780150036758616 #
coedge $-1 $492 $491 $484 $646 forward $481 $-1 #
edge $-1 $647 51.562427948432251 $650 62.165199943087529 $645 $726 forward 7 unknown #
vertex $-1 $496 $727 #
straight-curve $-1 -11.378724266217574 27.88147217835375 14.078894865643896 0 1 0 I I #
edge $-1 $650 0.95468294836477341 $493 19.893399687340828 $492 $728 forward 7 unknown #
vertex $-1 $649 $729 #
straight-curve $-1 -11.378724266217574 -17.00484336209778 44.561375005506804 0 -0.76604443648966558 0.64278761758704617 I I #
point $-1 -11.378724266217574 19.322761094885287 14.078894865643893 #
point $-1 -30.317441005193629 31.958652446314751 3.4761228709886183 #
straight-curve $-1 0 31.958652446314751 14.078894865643894 -1 0 0 I I #
vertex $-1 $499 $730 #
point $-1 -18.348082635705602 22.202890583183244 4.680479162095895 #
coedge $-1 $514 $513 $506 $658 forward $503 $-1 #
edge $-1 $659 51.562427948432251 $662 62.165199943087529 $657 $731 forward 7 unknown #
vertex $-1 $518 $732 #
straight-curve $-1 46.859805183819411 27.88147217835375 14.078894865643896 0 1 0 I I #
edge $-1 $662 -28.164581776653719 $515 -9.2258650376776643 $514 $733 forward 7 unknown #
vertex $-1 $661 $734 #
straight-curve $-1 46.859805183819411 -17.00484336209778 44.561375005506804 0 -0.76604443648966558 0.64278761758704617 I I #
point $-1 46.859805183819411 19.322761094885287 14.078894865643893 #
point $-1 27.921088444843356 31.958652446314751 3.4761228709886183 #
straight-curve $-1 0 31.958652446314751 14.078894865643894 -1 0 0 I I #
vertex $-1 $521 $735 #
point $-1 39.890446814331384 22.202890583183244 4.680479162095895 #
edge $-1 $670 19.739214374409769 $673 24.487588206321298 $526 $736 forward 7 unknown #
vertex $-1 $540 $737 #
straight-curve $-1 -35.955038632591226 -64.497815877069229 14.078894865643896 0 -1 0 I I #
edge $-1 $673 -21.946882355675459 $537 -6.0694301981560734 $536 $738 forward 7 unknown #
vertex $-1 $672 $739 #
straight-curve $-1 -35.955038632591226 -31.958652446314744 9.3305210337323814 0 0.51503806187062418 0.85716730853699208 I I #
point $-1 -35.955038632591226 -29.105541704610165 14.078894865643894 #
point $-1 -20.07758647507184 -31.958652446314751 9.330521033732369 #
straight-curve $-1 0 -31.958652446314751 14.078894865643894 1 0 0 I I #
vertex $-1 $543 $740 #
point $-1 -27.016312553831533 -28.489827359666602 10.477588546317683 #
edge $-1 $681 19.739214374409769 $684 24.487588206321298 $548 $741 forward 7 unknown #
vertex $-1 $562 $742 #
straight-curve $-1 -11.763375537161616 -64.497815877069229 14.078894865643896 0 -1 0 I I #
edge $-1 $684 -9.8510508079606556 $559 6.0264013495587339 $558 $743 forward 7 unknown #
vertex $-1 $683 $744 #
straight-curve $-1 -11.763375537161616 -31.958652446314744 9.3305210337323814 0 0.51503806187062418 0.85716730853699208 I I #
point $-1 -11.763375537161616 -29.105541704610165 14.078894865643894 #
point $-1 4.114076620357773 -31.958652446314751 9.330521033732369 #
straight-curve $-1 0 -31.958652446314751 14.078894865643894 1 0 0 I I #
vertex $-1 $565 $745 #
point $-1 -2.8246494584019217 -28.489827359666602 10.477588546317683 #
edge $-1 $692 19.739214374409769 $695 24.487588206321298 $570 $746 forward 7 unknown #
vertex $-1 $584 $747 #
straight-curve $-1 12.428287558267987 -64.497815877069229 14.078894865643896 0 -1 0 I I #
edge $-1 $695 2.2447807397541464 $581 18.122232897273534 $580 $748 forward 7 unknown #
vertex $-1 $694 $749 #
straight-curve $-1 12.428287558267987 -31.958652446314744 9.3305210337323814 0 0.51503806187062418 0.85716730853699208 I I #
point $-1 12.428287558267987 -29.105541704610165 14.078894865643894 #
point $-1 28.305739715787375 -31.958652446314751 9.330521033732369 #
straight-curve $-1 0 -31.958652446314751 14.078894865643894 1 0 0 I I #
vertex $-1 $587 $750 #
point $-1 21.367013637027682 -28.489827359666602 10.477588546317683 #
edge $-1 $703 19.739214374409769 $706 24.487588206321298 $592 $751 forward 7 unknown #
vertex $-1 $606 $752 #
straight-curve $-1 36.619950653697593 -64.497815877069229 14.078894865643896 0 -1 0 I I #
edge $-1 $706 14.34061228746895 $603 30.218064444988336 $602 $753 forward 7 unknown #
vertex $-1 $705 $754 #
straight-curve $-1 36.619950653697593 -31.958652446314744 9.3305210337323814 0 0.51503806187062418 0.85716730853699208 I I #
point $-1 36.619950653697593 -29.105541704610165 14.078894865643894 #
point $-1 52.497402811216979 -31.958652446314751 9.330521033732369 #
straight-curve $-1 0 -31.958652446314751 14.078894865643894 1 0 0 I I #
vertex $-1 $609 $755 #
point $-1 45.558676732457286 -28.489827359666602 10.477588546317683 #
straight-curve $-1 -56.60328989532151 31.958652446314751 0 0 0 -1 I I #
point $-1 -56.60328989532151 -31.958652446314751 -14.078894865643894 #
straight-curve $-1 -56.60328989532151 0 -14.078894865643894 0 1 0 I I #
point $-1 -56.60328989532151 31.958652446314751 -14.078894865643894 #
coedge $-1 $631 $630 $718 $756 reversed $300 $-1 #
coedge $-1 $636 $632 $717 $756 forward $461 $-1 #
vertex $-1 $633 $757 #
straight-curve $-1 0 31.958652446314751 14.078894865643894 -1 0 0 I I #
point $-1 -40.060925716695735 31.958652446314751 14.078894865643898 #
vertex $-1 $756 $758 #
straight-curve $-1 0 -31.958652446314751 14.078894865643894 1 0 0 I I #
straight-curve $-1 -56.60328989532151 -31.958652446314751 0 0 0 -1 I I #
straight-curve $-1 -56.60328989532151 31.958652446314751 0 0 0 -1 I I #
straight-curve $-1 -11.378724266217574 31.958652446314751 65.641322814076148 0 0 -1 I I #
point $-1 -11.378724266217574 31.958652446314751 14.078894865643894 #
straight-curve $-1 -10.424041317852801 31.958652446314744 3.4761228709886289 -1 0 0 I I #
point $-1 -11.378724266217574 31.958652446314751 3.4761228709886183 #
point $-1 -20.848082635705602 20.595921539215627 2.7653680708717312 #
straight-curve $-1 46.859805183819411 31.958652446314751 65.641322814076148 0 0 -1 I I #
point $-1 46.859805183819411 31.958652446314751 14.078894865643894 #
straight-curve $-1 18.695223407165692 31.958652446314744 3.4761228709886289 -1 0 0 I I #
point $-1 46.859805183819411 31.958652446314751 3.4761228709886183 #
point $-1 37.390446814331384 20.595921539215627 2.7653680708717312 #
straight-curve $-1 -35.955038632591226 -31.958652446314751 33.818109240053666 0 0 -1 I I #
point $-1 -35.955038632591226 -31.958652446314751 14.078894865643894 #
straight-curve $-1 -14.008156276915766 -31.958652446314751 9.3305210337323654 1 0 0 I I #
point $-1 -35.955038632591226 -31.958652446314751 9.330521033732369 #
point $-1 -28.016312553831533 -27.632660051129609 9.9625504844470605 #
straight-curve $-1 -11.763375537161616 -31.958652446314751 33.818109240053666 0 0 -1 I I #
point $-1 -11.763375537161616 -31.958652446314751 14.078894865643894 #
straight-curve $-1 -1.9123247292009609 -31.958652446314751 9.3305210337323654 1 0 0 I I #
point $-1 -11.763375537161616 -31.958652446314751 9.330521033732369 #
point $-1 -3.8246494584019217 -27.632660051129609 9.9625504844470605 #
straight-curve $-1 12.428287558267987 -31.958652446314751 33.818109240053666 0 0 -1 I I #
point $-1 12.428287558267987 -31.958652446314751 14.078894865643894 #
straight-curve $-1 10.183506818513841 -31.958652446314751 9.3305210337323654 1 0 0 I I #
point $-1 12.428287558267987 -31.958652446314751 9.330521033732369 #
point $-1 20.367013637027682 -27.632660051129609 9.9625504844470605 #
straight-curve $-1 36.619950653697593 -31.958652446314751 33.818109240053666 0 0 -1 I I #
point $-1 36.619950653697593 -31.958652446314751 14.078894865643894 #
straight-curve $-1 22.279338366228643 -31.958652446314751 9.3305210337323654 1 0 0 I I #
point $-1 36.619950653697593 -31.958652446314751 9.330521033732369 #
point $-1 44.558676732457286 -27.632660051129609 9.9625504844470605 #
edge $-1 $719 -31.958652446314751 $722 31.958652446314751 $717 $759 forward 7 unknown #
point $-1 -56.60328989532151 31.958652446314751 14.078894865643894 #
point $-1 -56.60328989532151 -31.958652446314751 14.078894865643894 #
straight-curve $-1 -56.60328989532151 0 14.078894865643894 0 -1 0 I I #
End-of-ACIS-data 