500 0 19 0           
7 Unknown 11 ACIS 5.0 NT 24 Thu Mar 25 21:28:45 1999 
-1 9.9999999999999995e-007 1e-010 
body $-1 $19 $-1 $20 #
body $-1 $21 $-1 $22 #
body $-1 $23 $-1 $24 #
body $-1 $25 $-1 $26 #
body $-1 $27 $-1 $28 #
body $-1 $29 $-1 $30 #
body $-1 $31 $-1 $32 #
body $-1 $33 $-1 $34 #
body $-1 $35 $-1 $36 #
body $-1 $37 $-1 $38 #
body $-1 $39 $-1 $40 #
body $-1 $41 $-1 $42 #
body $-1 $43 $-1 $44 #
body $-1 $45 $-1 $46 #
body $-1 $47 $-1 $48 #
body $-1 $49 $-1 $50 #
body $-1 $51 $-1 $52 #
body $-1 $53 $-1 $54 #
body $-1 $55 $-1 $56 #
lump $-1 $-1 $57 $0 #
transform $-1 1 0 0 0 1 0 0 0 1 59.204687643055514 33.068041363815574 7.3532416696423057 1 rotate no_reflect no_shear #
lump $-1 $-1 $58 $1 #
transform $-1 1 0 0 0 1 0 0 0 1 59.204687643055514 33.068041363815574 7.3532416696423057 1 rotate no_reflect no_shear #
lump $-1 $-1 $59 $2 #
transform $-1 1 0 0 0 1 0 0 0 1 59.204687643055514 33.068041363815574 7.3532416696423057 1 rotate no_reflect no_shear #
lump $-1 $-1 $60 $3 #
transform $-1 1 0 0 0 1 0 0 0 1 59.204687643055514 33.068041363815574 7.3532416696423057 1 rotate no_reflect no_shear #
lump $-1 $-1 $61 $4 #
transform $-1 1 0 0 0 1 0 0 0 1 59.204687643055514 33.068041363815574 7.3532416696423057 1 rotate no_reflect no_shear #
lump $-1 $-1 $62 $5 #
transform $-1 1 0 0 0 1 0 0 0 1 59.204687643055514 33.068041363815574 7.3532416696423057 1 rotate no_reflect no_shear #
lump $-1 $-1 $63 $6 #
transform $-1 1 0 0 0 1 0 0 0 1 59.204687643055514 33.068041363815574 7.3532416696423057 1 rotate no_reflect no_shear #
lump $-1 $-1 $64 $7 #
transform $-1 1 0 0 0 1 0 0 0 1 59.204687643055514 33.068041363815574 7.3532416696423057 1 rotate no_reflect no_shear #
lump $-1 $-1 $65 $8 #
transform $-1 1 0 0 0 1 0 0 0 1 59.204687643055514 33.068041363815574 7.3532416696423057 1 rotate no_reflect no_shear #
lump $-1 $-1 $66 $9 #
transform $-1 1 0 0 0 1 0 0 0 1 59.204687643055514 33.068041363815574 7.3532416696423057 1 rotate no_reflect no_shear #
lump $-1 $-1 $67 $10 #
transform $-1 1 0 0 0 1 0 0 0 1 59.204687643055514 33.068041363815574 7.3532416696423057 1 rotate no_reflect no_shear #
lump $-1 $-1 $68 $11 #
transform $-1 1 0 0 0 1 0 0 0 1 59.204687643055514 33.068041363815574 7.3532416696423057 1 rotate no_reflect no_shear #
lump $-1 $-1 $69 $12 #
transform $-1 1 0 0 0 1 0 0 0 1 59.204687643055514 33.068041363815574 7.3532416696423057 1 rotate no_reflect no_shear #
lump $-1 $-1 $70 $13 #
transform $-1 1 0 0 0 1 0 0 0 1 59.204687643055514 33.068041363815574 7.3532416696423057 1 rotate no_reflect no_shear #
lump $-1 $-1 $71 $14 #
transform $-1 1 0 0 0 1 0 0 0 1 59.204687643055514 33.068041363815574 7.3532416696423057 1 rotate no_reflect no_shear #
lump $-1 $-1 $72 $15 #
transform $-1 1 0 0 0 1 0 0 0 1 59.204687643055514 33.068041363815574 7.3532416696423057 1 rotate no_reflect no_shear #
lump $-1 $-1 $73 $16 #
transform $-1 1 0 0 0 1 0 0 0 1 59.204687643055514 33.068041363815574 7.3532416696423057 1 rotate no_reflect no_shear #
lump $-1 $-1 $74 $17 #
transform $-1 1 0 0 0 1 0 0 0 1 59.204687643055514 33.068041363815574 7.3532416696423057 1 rotate no_reflect no_shear #
lump $-1 $-1 $75 $18 #
transform $-1 1 0 0 0 1 0 0 0 1 59.204687643055514 33.068041363815574 7.3532416696423057 1 rotate no_reflect no_shear #
shell $-1 $-1 $-1 $76 $-1 $19 #
shell $-1 $-1 $-1 $77 $-1 $21 #
shell $-1 $-1 $-1 $78 $-1 $23 #
shell $-1 $-1 $-1 $79 $-1 $25 #
shell $-1 $-1 $-1 $80 $-1 $27 #
shell $-1 $-1 $-1 $81 $-1 $29 #
shell $-1 $-1 $-1 $82 $-1 $31 #
shell $-1 $-1 $-1 $83 $-1 $33 #
shell $-1 $-1 $-1 $84 $-1 $35 #
shell $-1 $-1 $-1 $85 $-1 $37 #
shell $-1 $-1 $-1 $86 $-1 $39 #
shell $-1 $-1 $-1 $87 $-1 $41 #
shell $-1 $-1 $-1 $88 $-1 $43 #
shell $-1 $-1 $-1 $89 $-1 $45 #
shell $-1 $-1 $-1 $90 $-1 $47 #
shell $-1 $-1 $-1 $91 $-1 $49 #
shell $-1 $-1 $-1 $92 $-1 $51 #
shell $-1 $-1 $-1 $93 $-1 $53 #
shell $-1 $-1 $-1 $94 $-1 $55 #
face $-1 $95 $96 $57 $-1 $97 reversed single #
face $-1 $98 $99 $58 $-1 $100 forward single #
face $-1 $101 $102 $59 $-1 $103 forward single #
face $-1 $104 $105 $60 $-1 $106 reversed single #
face $-1 $107 $108 $61 $-1 $109 forward single #
face $-1 $110 $111 $62 $-1 $112 forward single #
face $-1 $113 $114 $63 $-1 $115 forward single #
face $-1 $116 $117 $64 $-1 $118 reversed single #
face $-1 $119 $120 $65 $-1 $121 forward single #
face $-1 $122 $123 $66 $-1 $124 forward single #
face $-1 $125 $126 $67 $-1 $127 forward single #
face $-1 $128 $129 $68 $-1 $130 reversed single #
face $-1 $131 $132 $69 $-1 $133 forward single #
face $-1 $134 $135 $70 $-1 $136 forward single #
face $-1 $137 $138 $71 $-1 $139 forward single #
face $-1 $140 $141 $72 $-1 $142 reversed single #
face $-1 $143 $144 $73 $-1 $145 forward single #
face $-1 $146 $147 $74 $-1 $148 forward single #
face $-1 $149 $150 $75 $-1 $151 forward single #
face $-1 $152 $153 $57 $-1 $154 forward single #
loop $-1 $-1 $155 $76 #
plane-surface $-1 59.204687643055514 0 0 -1 0 0 0 0 1 forward_v I I I I #
face $-1 $156 $157 $58 $-1 $158 forward single #
loop $-1 $-1 $159 $77 #
plane-surface $-1 -59.204687643055514 0 0 1 0 0 0 0 -1 forward_v I I I I #
face $-1 $160 $161 $59 $-1 $162 reversed single #
loop $-1 $-1 $163 $78 #
plane-surface $-1 59.204687643055514 0 0 -1 0 0 0 0 1 forward_v I I I I #
face $-1 $164 $165 $60 $-1 $166 reversed single #
loop $-1 $-1 $167 $79 #
plane-surface $-1 -29.383256581622039 -119.66717726433328 81.670897270351716 -1 0 0 0 -0.73135370988377701 0.68199835119979291 forward_v I I I I #
face $-1 $168 $169 $61 $-1 $170 forward single #
loop $-1 $171 $172 $80 #
cone-surface $-1 -42.958689333129328 -29.100646581952947 3.2338211091942606 0 0.73135370988377701 -0.68199835119979291 1 0 0 1 I I 0 1 1 forward I I I I #
face $-1 $173 $174 $62 $-1 $175 forward single #
loop $-1 $176 $177 $81 #
cone-surface $-1 -37.867902051314097 -29.100646581952947 3.2338211091942606 0 0.73135370988377701 -0.68199835119979291 1 0 0 1 I I 0 1 1 forward I I I I #
face $-1 $178 $179 $63 $-1 $180 forward single #
loop $-1 $181 $182 $82 #
cone-surface $-1 -32.777114769498866 -29.100646581952947 3.2338211091942606 0 0.73135370988377701 -0.68199835119979291 1 0 0 1 I I 0 1 1 forward I I I I #
face $-1 $183 $184 $64 $-1 $185 reversed single #
loop $-1 $-1 $186 $83 #
plane-surface $-1 46.352547521006144 -119.66717726433328 81.670897270351716 -1 0 0 0 -0.73135370988377701 0.68199835119979291 forward_v I I I I #
face $-1 $187 $188 $65 $-1 $189 forward single #
loop $-1 $190 $191 $84 #
cone-surface $-1 32.777114769498844 -29.100646581952947 3.2338211091942606 0 0.73135370988377701 -0.68199835119979291 1 0 0 1 I I 0 1 1 forward I I I I #
face $-1 $192 $193 $66 $-1 $194 forward single #
loop $-1 $195 $196 $85 #
cone-surface $-1 37.867902051314083 -29.100646581952947 3.2338211091942606 0 0.73135370988377701 -0.68199835119979291 1 0 0 1 I I 0 1 1 forward I I I I #
face $-1 $197 $198 $67 $-1 $199 forward single #
loop $-1 $200 $201 $86 #
cone-surface $-1 42.958689333129321 -29.100646581952947 3.2338211091942606 0 0.73135370988377701 -0.68199835119979291 1 0 0 1 I I 0 1 1 forward I I I I #
face $-1 $202 $203 $68 $-1 $204 reversed single #
loop $-1 $-1 $205 $87 #
plane-surface $-1 -46.352547521006159 74.562477889275726 130.03976673038514 1 0 0 0 -0.73135370988377701 -0.68199835119979291 forward_v I I I I #
face $-1 $206 $207 $69 $-1 $208 forward single #
loop $-1 $209 $210 $88 #
cone-surface $-1 -42.958689333129328 29.100646581952947 3.2338211091942659 0 -0.73135370988377701 -0.68199835119979291 1 0 0 1 I I 0 1 1 forward I I I I #
face $-1 $211 $212 $70 $-1 $213 forward single #
loop $-1 $214 $215 $89 #
cone-surface $-1 -37.867902051314097 29.100646581952947 3.2338211091942659 0 -0.73135370988377701 -0.68199835119979291 1 0 0 1 I I 0 1 1 forward I I I I #
face $-1 $216 $217 $71 $-1 $218 forward single #
loop $-1 $219 $220 $90 #
cone-surface $-1 -32.777114769498866 29.100646581952947 3.2338211091942659 0 -0.73135370988377701 -0.68199835119979291 1 0 0 1 I I 0 1 1 forward I I I I #
face $-1 $221 $222 $72 $-1 $223 reversed single #
loop $-1 $-1 $224 $91 #
plane-surface $-1 29.383256581622025 74.562477889275726 130.03976673038514 1 0 0 0 -0.73135370988377701 -0.68199835119979291 forward_v I I I I #
face $-1 $225 $226 $73 $-1 $227 forward single #
loop $-1 $228 $229 $92 #
cone-surface $-1 32.777114769498844 29.100646581952947 3.2338211091942659 0 -0.73135370988377701 -0.68199835119979291 1 0 0 1 I I 0 1 1 forward I I I I #
face $-1 $230 $231 $74 $-1 $232 forward single #
loop $-1 $233 $234 $93 #
cone-surface $-1 37.867902051314083 29.100646581952947 3.2338211091942659 0 -0.73135370988377701 -0.68199835119979291 1 0 0 1 I I 0 1 1 forward I I I I #
face $-1 $235 $236 $75 $-1 $237 forward single #
loop $-1 $238 $239 $94 #
cone-surface $-1 42.958689333129321 29.100646581952947 3.2338211091942659 0 -0.73135370988377701 -0.68199835119979291 1 0 0 1 I I 0 1 1 forward I I I I #
face $-1 $240 $241 $57 $-1 $242 reversed single #
loop $-1 $-1 $243 $95 #
plane-surface $-1 0 0 7.3532416696423057 0 0 1 1 0 0 forward_v I I I I #
coedge $-1 $244 $245 $246 $247 reversed $96 $-1 #
face $-1 $248 $249 $58 $-1 $250 reversed single #
loop $-1 $-1 $251 $98 #
plane-surface $-1 0 0 7.3532416696423057 0 0 1 1 0 0 forward_v I I I I #
coedge $-1 $252 $253 $254 $255 forward $99 $-1 #
face $-1 $256 $257 $59 $-1 $258 reversed single #
loop $-1 $-1 $259 $101 #
plane-surface $-1 0 -33.068041363815574 0 0 1 0 0 0 1 forward_v I I I I #
coedge $-1 $260 $261 $262 $263 forward $102 $-1 #
face $-1 $264 $265 $60 $-1 $266 reversed single #
loop $-1 $-1 $267 $104 #
plane-surface $-1 -37.867902051314097 -33.068041363815553 0.91589855862649472 0 -0.73135370988377701 0.68199835119979291 1 0 0 forward_v I I I I #
coedge $-1 $268 $269 $270 $271 reversed $105 $-1 #
face $-1 $-1 $272 $61 $-1 $273 forward single #
loop $-1 $274 $275 $107 #
cone-surface $-1 -42.958689333129328 -27.769034655059393 1.9920729286542285 0 0.73135370988377701 -0.68199835119979291 0.5 0 0 1 I I -0.70710678118654746 0.70710678118654746 0.5 forward I I I I #
loop $-1 $-1 $276 $80 #
coedge $-1 $172 $172 $277 $278 reversed $108 $-1 #
face $-1 $-1 $279 $62 $-1 $280 forward single #
loop $-1 $281 $282 $110 #
cone-surface $-1 -37.867902051314097 -27.769034655059393 1.9920729286542285 0 0.73135370988377701 -0.68199835119979291 0.5 0 0 1 I I -0.70710678118654746 0.70710678118654746 0.5 forward I I I I #
loop $-1 $-1 $283 $81 #
coedge $-1 $177 $177 $284 $285 reversed $111 $-1 #
face $-1 $-1 $286 $63 $-1 $287 forward single #
loop $-1 $288 $289 $113 #
cone-surface $-1 -32.777114769498866 -27.769034655059393 1.9920729286542285 0 0.73135370988377701 -0.68199835119979291 0.5 0 0 1 I I -0.70710678118654746 0.70710678118654746 0.5 forward I I I I #
loop $-1 $-1 $290 $82 #
coedge $-1 $182 $182 $291 $292 reversed $114 $-1 #
face $-1 $293 $294 $64 $-1 $295 reversed single #
loop $-1 $-1 $296 $116 #
plane-surface $-1 37.867902051314083 -33.068041363815553 0.91589855862649472 0 -0.73135370988377701 0.68199835119979291 1 0 0 forward_v I I I I #
coedge $-1 $297 $298 $299 $300 reversed $117 $-1 #
face $-1 $-1 $301 $65 $-1 $302 forward single #
loop $-1 $303 $304 $119 #
cone-surface $-1 32.777114769498844 -27.769034655059393 1.9920729286542285 0 0.73135370988377701 -0.68199835119979291 0.5 0 0 1 I I -0.70710678118654746 0.70710678118654746 0.5 forward I I I I #
loop $-1 $-1 $305 $84 #
coedge $-1 $191 $191 $306 $307 reversed $120 $-1 #
face $-1 $-1 $308 $66 $-1 $309 forward single #
loop $-1 $310 $311 $122 #
cone-surface $-1 37.867902051314083 -27.769034655059393 1.9920729286542285 0 0.73135370988377701 -0.68199835119979291 0.5 0 0 1 I I -0.70710678118654746 0.70710678118654746 0.5 forward I I I I #
loop $-1 $-1 $312 $85 #
coedge $-1 $196 $196 $313 $314 reversed $123 $-1 #
face $-1 $-1 $315 $67 $-1 $316 forward single #
loop $-1 $317 $318 $125 #
cone-surface $-1 42.958689333129321 -27.769034655059393 1.9920729286542285 0 0.73135370988377701 -0.68199835119979291 0.5 0 0 1 I I -0.70710678118654746 0.70710678118654746 0.5 forward I I I I #
loop $-1 $-1 $319 $86 #
coedge $-1 $201 $201 $320 $321 reversed $126 $-1 #
face $-1 $322 $323 $68 $-1 $324 reversed single #
loop $-1 $-1 $325 $128 #
plane-surface $-1 -37.867902051314097 -12.036658011241997 49.284768018659918 0 0.73135370988377701 0.68199835119979291 1 0 0 forward_v I I I I #
coedge $-1 $326 $327 $328 $329 reversed $129 $-1 #
face $-1 $-1 $330 $69 $-1 $331 forward single #
loop $-1 $332 $333 $131 #
cone-surface $-1 -42.958689333129328 27.769034655059393 1.9920729286542338 0 -0.73135370988377701 -0.68199835119979291 0.5 0 0 1 I I -0.70710678118654746 0.70710678118654746 0.5 forward I I I I #
loop $-1 $-1 $334 $88 #
coedge $-1 $210 $210 $335 $336 reversed $132 $-1 #
face $-1 $-1 $337 $70 $-1 $338 forward single #
loop $-1 $339 $340 $134 #
cone-surface $-1 -37.867902051314097 27.769034655059393 1.9920729286542338 0 -0.73135370988377701 -0.68199835119979291 0.5 0 0 1 I I -0.70710678118654746 0.70710678118654746 0.5 forward I I I I #
loop $-1 $-1 $341 $89 #
coedge $-1 $215 $215 $342 $343 reversed $135 $-1 #
face $-1 $-1 $344 $71 $-1 $345 forward single #
loop $-1 $346 $347 $137 #
cone-surface $-1 -32.777114769498866 27.769034655059393 1.9920729286542338 0 -0.73135370988377701 -0.68199835119979291 0.5 0 0 1 I I -0.70710678118654746 0.70710678118654746 0.5 forward I I I I #
loop $-1 $-1 $348 $90 #
coedge $-1 $220 $220 $349 $350 reversed $138 $-1 #
face $-1 $351 $352 $72 $-1 $353 reversed single #
loop $-1 $-1 $354 $140 #
plane-surface $-1 37.867902051314083 -12.036658011241997 49.284768018659918 0 0.73135370988377701 0.68199835119979291 1 0 0 forward_v I I I I #
coedge $-1 $355 $356 $357 $358 reversed $141 $-1 #
face $-1 $-1 $359 $73 $-1 $360 forward single #
loop $-1 $361 $362 $143 #
cone-surface $-1 32.777114769498844 27.769034655059393 1.9920729286542338 0 -0.73135370988377701 -0.68199835119979291 0.5 0 0 1 I I -0.70710678118654746 0.70710678118654746 0.5 forward I I I I #
loop $-1 $-1 $363 $92 #
coedge $-1 $229 $229 $364 $365 reversed $144 $-1 #
face $-1 $-1 $366 $74 $-1 $367 forward single #
loop $-1 $368 $369 $146 #
cone-surface $-1 37.867902051314083 27.769034655059393 1.9920729286542338 0 -0.73135370988377701 -0.68199835119979291 0.5 0 0 1 I I -0.70710678118654746 0.70710678118654746 0.5 forward I I I I #
loop $-1 $-1 $370 $93 #
coedge $-1 $234 $234 $371 $372 reversed $147 $-1 #
face $-1 $-1 $373 $75 $-1 $374 forward single #
loop $-1 $375 $376 $149 #
cone-surface $-1 42.958689333129321 27.769034655059393 1.9920729286542338 0 -0.73135370988377701 -0.68199835119979291 0.5 0 0 1 I I -0.70710678118654746 0.70710678118654746 0.5 forward I I I I #
loop $-1 $-1 $377 $94 #
coedge $-1 $239 $239 $378 $379 reversed $150 $-1 #
face $-1 $380 $381 $57 $-1 $382 reversed single #
loop $-1 $-1 $246 $152 #
plane-surface $-1 0 0 -7.3532416696423057 0 0 1 1 0 0 forward_v I I I I #
coedge $-1 $383 $384 $385 $386 forward $153 $-1 #
coedge $-1 $385 $155 $387 $388 reversed $96 $-1 #
coedge $-1 $155 $385 $389 $390 forward $96 $-1 #
coedge $-1 $391 $392 $155 $247 forward $241 $-1 #
edge $-1 $393 -33.068041363815574 $394 33.068041363815574 $155 $395 forward 7 unknown #
face $-1 $396 $397 $58 $-1 $398 reversed single #
loop $-1 $-1 $399 $156 #
plane-surface $-1 -66.941540213143995 -31.568041363815574 0 1 0 0 0 0 -1 forward_v I I I I #
coedge $-1 $400 $401 $252 $402 forward $157 $-1 #
coedge $-1 $403 $159 $251 $402 reversed $99 $-1 #
coedge $-1 $159 $403 $404 $405 reversed $99 $-1 #
coedge $-1 $406 $407 $159 $255 reversed $397 $-1 #
edge $-1 $408 -7.3532416696423057 $409 7.3532416696423057 $254 $410 forward 7 unknown #
face $-1 $411 $412 $59 $-1 $413 reversed single #
loop $-1 $-1 $414 $160 #
plane-surface $-1 0 0 -7.3532416696423057 0 0 1 1 0 0 forward_v I I I I #
coedge $-1 $415 $416 $417 $418 forward $161 $-1 #
coedge $-1 $417 $163 $414 $419 reversed $102 $-1 #
coedge $-1 $163 $417 $420 $421 reversed $102 $-1 #
coedge $-1 $422 $423 $163 $263 reversed $412 $-1 #
edge $-1 $424 -7.3532416696423057 $425 7.3532416696423057 $262 $426 forward 7 unknown #
face $-1 $427 $428 $60 $-1 $429 forward single #
loop $-1 $-1 $430 $164 #
plane-surface $-1 -46.352547521006159 -119.66717726433328 81.670897270351716 1 0 0 0 0.73135370988377701 -0.68199835119979291 forward_v I I I I #
coedge $-1 $431 $432 $433 $434 reversed $165 $-1 #
coedge $-1 $269 $167 $435 $436 reversed $105 $-1 #
coedge $-1 $167 $268 $431 $437 reversed $105 $-1 #
coedge $-1 $433 $438 $167 $271 forward $428 $-1 #
edge $-1 $439 26.765547268351064 $440 32.768466688173 $270 $441 forward 7 unknown #
loop $-1 $-1 $277 $168 #
plane-surface $-1 -37.867902051314097 -33.068041363815553 0.91589855862649472 0 -0.73135370988377701 0.68199835119979291 1 0 0 forward_v I I I I #
loop $-1 $-1 $442 $107 #
coedge $-1 $275 $275 $276 $443 reversed $169 $-1 #
coedge $-1 $276 $276 $275 $443 forward $171 $-1 #
coedge $-1 $277 $277 $172 $278 forward $272 $-1 #
edge $-1 $444 3.5069091583739096e-016 $444 6.2831853071796004 $277 $445 forward 7 unknown #
loop $-1 $-1 $284 $173 #
plane-surface $-1 -37.867902051314097 -33.068041363815553 0.91589855862649472 0 -0.73135370988377701 0.68199835119979291 1 0 0 forward_v I I I I #
loop $-1 $-1 $446 $110 #
coedge $-1 $282 $282 $283 $447 reversed $174 $-1 #
coedge $-1 $283 $283 $282 $447 forward $176 $-1 #
coedge $-1 $284 $284 $177 $285 forward $279 $-1 #
edge $-1 $448 3.5069091583739096e-016 $448 6.2831853071796004 $284 $449 forward 7 unknown #
loop $-1 $-1 $291 $178 #
plane-surface $-1 -37.867902051314097 -33.068041363815553 0.91589855862649472 0 -0.73135370988377701 0.68199835119979291 1 0 0 forward_v I I I I #
loop $-1 $-1 $450 $113 #
coedge $-1 $289 $289 $290 $451 reversed $179 $-1 #
coedge $-1 $290 $290 $289 $451 forward $181 $-1 #
coedge $-1 $291 $291 $182 $292 forward $286 $-1 #
edge $-1 $452 3.5069091583739096e-016 $452 6.2831853071796004 $291 $453 forward 7 unknown #
face $-1 $454 $455 $64 $-1 $456 reversed single #
loop $-1 $-1 $457 $183 #
plane-surface $-1 29.383256581622025 -119.66717726433328 81.670897270351716 1 0 0 0 0.73135370988377701 -0.68199835119979291 forward_v I I I I #
coedge $-1 $458 $459 $460 $461 reversed $184 $-1 #
coedge $-1 $298 $186 $462 $463 reversed $117 $-1 #
coedge $-1 $186 $297 $458 $464 reversed $117 $-1 #
coedge $-1 $460 $465 $186 $300 forward $466 $-1 #
edge $-1 $467 26.765547268351064 $468 32.768466688173 $299 $469 forward 7 unknown #
loop $-1 $-1 $306 $187 #
plane-surface $-1 37.867902051314083 -33.068041363815553 0.91589855862649472 0 -0.73135370988377701 0.68199835119979291 1 0 0 forward_v I I I I #
loop $-1 $-1 $470 $119 #
coedge $-1 $304 $304 $305 $471 reversed $188 $-1 #
coedge $-1 $305 $305 $304 $471 forward $190 $-1 #
coedge $-1 $306 $306 $191 $307 forward $301 $-1 #
edge $-1 $472 3.5069091583739096e-016 $472 6.2831853071796004 $306 $473 forward 7 unknown #
loop $-1 $-1 $313 $192 #
plane-surface $-1 37.867902051314083 -33.068041363815553 0.91589855862649472 0 -0.73135370988377701 0.68199835119979291 1 0 0 forward_v I I I I #
loop $-1 $-1 $474 $122 #
coedge $-1 $311 $311 $312 $475 reversed $193 $-1 #
coedge $-1 $312 $312 $311 $475 forward $195 $-1 #
coedge $-1 $313 $313 $196 $314 forward $308 $-1 #
edge $-1 $476 3.5069091583739096e-016 $476 6.2831853071796004 $313 $477 forward 7 unknown #
loop $-1 $-1 $320 $197 #
plane-surface $-1 37.867902051314083 -33.068041363815553 0.91589855862649472 0 -0.73135370988377701 0.68199835119979291 1 0 0 forward_v I I I I #
loop $-1 $-1 $478 $125 #
coedge $-1 $318 $318 $319 $479 reversed $198 $-1 #
coedge $-1 $319 $319 $318 $479 forward $200 $-1 #
coedge $-1 $320 $320 $201 $321 forward $315 $-1 #
edge $-1 $480 3.5069091583739096e-016 $480 6.2831853071796004 $320 $481 forward 7 unknown #
face $-1 $482 $483 $68 $-1 $484 reversed single #
loop $-1 $-1 $485 $202 #
plane-surface $-1 -29.383256581622039 74.562477889275726 130.03976673038514 -1 0 0 0 0.73135370988377701 0.68199835119979291 forward_v I I I I #
coedge $-1 $486 $487 $488 $489 reversed $203 $-1 #
coedge $-1 $327 $205 $490 $491 reversed $129 $-1 #
coedge $-1 $205 $326 $486 $492 reversed $129 $-1 #
coedge $-1 $488 $493 $205 $329 forward $494 $-1 #
edge $-1 $495 4.213197580822289 $496 10.216117000644239 $328 $497 forward 7 unknown #
loop $-1 $-1 $335 $206 #
plane-surface $-1 -37.867902051314097 -12.036658011241997 49.284768018659918 0 0.73135370988377701 0.68199835119979291 1 0 0 forward_v I I I I #
loop $-1 $-1 $498 $131 #
coedge $-1 $333 $333 $334 $499 reversed $207 $-1 #
coedge $-1 $334 $334 $333 $499 forward $209 $-1 #
coedge $-1 $335 $335 $210 $336 forward $330 $-1 #
edge $-1 $500 -5.1809249388385278e-017 $500 6.2831853071796004 $335 $501 forward 7 unknown #
loop $-1 $-1 $342 $211 #
plane-surface $-1 -37.867902051314097 -12.036658011241997 49.284768018659918 0 0.73135370988377701 0.68199835119979291 1 0 0 forward_v I I I I #
loop $-1 $-1 $502 $134 #
coedge $-1 $340 $340 $341 $503 reversed $212 $-1 #
coedge $-1 $341 $341 $340 $503 forward $214 $-1 #
coedge $-1 $342 $342 $215 $343 forward $337 $-1 #
edge $-1 $504 -5.1809249388385278e-017 $504 6.2831853071796004 $342 $505 forward 7 unknown #
loop $-1 $-1 $349 $216 #
plane-surface $-1 -37.867902051314097 -12.036658011241997 49.284768018659918 0 0.73135370988377701 0.68199835119979291 1 0 0 forward_v I I I I #
loop $-1 $-1 $506 $137 #
coedge $-1 $347 $347 $348 $507 reversed $217 $-1 #
coedge $-1 $348 $348 $347 $507 forward $219 $-1 #
coedge $-1 $349 $349 $220 $350 forward $344 $-1 #
edge $-1 $508 -5.1809249388385278e-017 $508 6.2831853071796004 $349 $509 forward 7 unknown #
face $-1 $510 $511 $72 $-1 $512 forward single #
loop $-1 $-1 $513 $221 #
plane-surface $-1 46.352547521006144 74.562477889275726 130.03976673038514 -1 0 0 0 0.73135370988377701 0.68199835119979291 forward_v I I I I #
coedge $-1 $514 $515 $516 $517 reversed $222 $-1 #
coedge $-1 $356 $224 $518 $519 reversed $141 $-1 #
coedge $-1 $224 $355 $514 $520 reversed $141 $-1 #
coedge $-1 $516 $521 $224 $358 forward $511 $-1 #
edge $-1 $522 4.213197580822289 $523 10.216117000644239 $357 $524 forward 7 unknown #
loop $-1 $-1 $364 $225 #
plane-surface $-1 37.867902051314083 -12.036658011241997 49.284768018659918 0 0.73135370988377701 0.68199835119979291 1 0 0 forward_v I I I I #
loop $-1 $-1 $525 $143 #
coedge $-1 $362 $362 $363 $526 reversed $226 $-1 #
coedge $-1 $363 $363 $362 $526 forward $228 $-1 #
coedge $-1 $364 $364 $229 $365 forward $359 $-1 #
edge $-1 $527 -5.1809249388385278e-017 $527 6.2831853071796004 $364 $528 forward 7 unknown #
loop $-1 $-1 $371 $230 #
plane-surface $-1 37.867902051314083 -12.036658011241997 49.284768018659918 0 0.73135370988377701 0.68199835119979291 1 0 0 forward_v I I I I #
loop $-1 $-1 $529 $146 #
coedge $-1 $369 $369 $370 $530 reversed $231 $-1 #
coedge $-1 $370 $370 $369 $530 forward $233 $-1 #
coedge $-1 $371 $371 $234 $372 forward $366 $-1 #
edge $-1 $531 -5.1809249388385278e-017 $531 6.2831853071796004 $371 $532 forward 7 unknown #
loop $-1 $-1 $378 $235 #
plane-surface $-1 37.867902051314083 -12.036658011241997 49.284768018659918 0 0.73135370988377701 0.68199835119979291 1 0 0 forward_v I I I I #
loop $-1 $-1 $533 $149 #
coedge $-1 $376 $376 $377 $534 reversed $236 $-1 #
coedge $-1 $377 $377 $376 $534 forward $238 $-1 #
coedge $-1 $378 $378 $239 $379 forward $373 $-1 #
edge $-1 $535 -5.1809249388385278e-017 $535 6.2831853071796004 $378 $536 forward 7 unknown #
face $-1 $537 $538 $57 $-1 $539 reversed single #
loop $-1 $-1 $540 $240 #
plane-surface $-1 0 -33.068041363815574 0 0 1 0 0 0 1 forward_v I I I I #
coedge $-1 $541 $243 $542 $543 forward $153 $-1 #
coedge $-1 $243 $541 $544 $545 forward $153 $-1 #
coedge $-1 $245 $244 $243 $386 reversed $96 $-1 #
edge $-1 $546 -33.068041363815574 $547 33.068041363815574 $385 $548 forward 7 unknown #
coedge $-1 $549 $542 $244 $388 forward $550 $-1 #
edge $-1 $547 -7.3532416696423057 $393 7.3532416696423057 $244 $551 forward 7 unknown #
coedge $-1 $544 $552 $245 $390 reversed $381 $-1 #
edge $-1 $546 -7.3532416696423057 $394 7.3532416696423057 $245 $553 forward 7 unknown #
coedge $-1 $554 $246 $552 $555 forward $241 $-1 #
coedge $-1 $246 $554 $549 $556 forward $241 $-1 #
vertex $-1 $247 $557 #
vertex $-1 $390 $558 #
straight-curve $-1 59.204687643055514 0 -7.3532416696423057 0 -1 0 I I #
face $-1 $559 $560 $58 $-1 $561 reversed single #
loop $-1 $-1 $254 $248 #
plane-surface $-1 -63.073113928099758 -30.068041363815574 0 0 -1 0 0 0 -1 forward_v I I I I #
coedge $-1 $562 $563 $564 $565 forward $249 $-1 #
coedge $-1 $566 $251 $407 $567 forward $157 $-1 #
coedge $-1 $251 $566 $568 $569 forward $157 $-1 #
edge $-1 $570 -33.068041363815574 $409 -30.068041363815574 $251 $571 forward 7 unknown #
coedge $-1 $253 $252 $572 $573 reversed $99 $-1 #
coedge $-1 $574 $575 $253 $405 forward $560 $-1 #
edge $-1 $408 30.068041363815574 $576 33.068041363815574 $404 $577 forward 7 unknown #
coedge $-1 $564 $254 $575 $578 reversed $397 $-1 #
coedge $-1 $254 $564 $400 $567 reversed $397 $-1 #
vertex $-1 $405 $579 #
vertex $-1 $567 $580 #
straight-curve $-1 -59.204687643055514 -30.068041363815574 0 0 0 1 I I #
face $-1 $581 $582 $59 $-1 $583 reversed single #
loop $-1 $-1 $584 $256 #
plane-surface $-1 63.073113928099751 -30.068041363815574 0 0 -1 0 0 0 -1 forward_v I I I I #
coedge $-1 $585 $586 $260 $419 forward $257 $-1 #
coedge $-1 $587 $259 $586 $588 reversed $161 $-1 #
coedge $-1 $259 $587 $589 $590 reversed $161 $-1 #
coedge $-1 $261 $260 $259 $418 reversed $102 $-1 #
edge $-1 $591 -7.3532416696423057 $592 7.3532416696423057 $259 $593 forward 7 unknown #
edge $-1 $592 -33.068041363815574 $425 -30.068041363815574 $414 $594 forward 7 unknown #
coedge $-1 $589 $595 $261 $421 forward $596 $-1 #
edge $-1 $424 30.068041363815574 $591 33.068041363815574 $420 $597 forward 7 unknown #
coedge $-1 $584 $262 $595 $598 reversed $412 $-1 #
coedge $-1 $262 $584 $585 $599 reversed $412 $-1 #
vertex $-1 $421 $600 #
vertex $-1 $599 $601 #
straight-curve $-1 59.204687643055514 -30.068041363815574 0 0 0 -1 I I #
face $-1 $-1 $602 $60 $-1 $603 reversed single #
loop $-1 $-1 $270 $264 #
plane-surface $-1 0 0 7.3532416696423057 0 0 1 1 0 0 forward_v I I I I #
coedge $-1 $604 $605 $606 $607 reversed $265 $-1 #
coedge $-1 $608 $267 $269 $437 forward $165 $-1 #
coedge $-1 $267 $608 $604 $609 forward $165 $-1 #
coedge $-1 $606 $270 $267 $434 forward $428 $-1 #
edge $-1 $440 10.44930555596499 $610 27.41859649534911 $433 $611 forward 7 unknown #
coedge $-1 $612 $613 $268 $436 forward $602 $-1 #
edge $-1 $614 -39.919550076549385 $439 -33.48220696553355 $435 $615 forward 7 unknown #
edge $-1 $440 -8.8019559127399525 $614 3.1264163221236078e-014 $269 $616 forward 7 unknown #
coedge $-1 $270 $606 $612 $617 forward $428 $-1 #
vertex $-1 $271 $618 #
vertex $-1 $271 $619 #
straight-curve $-1 -29.383256581622039 -59.833588632166638 7.3532416696423084 0 1 0 I I #
coedge $-1 $442 $442 $-1 $620 reversed $274 $-1 #
edge $-1 $621 0 $621 6.2831853071796004 $275 $622 forward 7 unknown #
vertex $-1 $278 $623 #
ellipse-curve $-1 -42.958689333129328 -30.066581653904606 4.1345701141343891 0 -0.73135370988377701 0.68199835119979291 1 0 0 1 I I #
coedge $-1 $446 $446 $-1 $624 reversed $281 $-1 #
edge $-1 $625 0 $625 6.2831853071796004 $282 $626 forward 7 unknown #
vertex $-1 $285 $627 #
ellipse-curve $-1 -37.867902051314097 -30.066581653904606 4.1345701141343891 0 -0.73135370988377701 0.68199835119979291 1 0 0 1 I I #
coedge $-1 $450 $450 $-1 $628 reversed $288 $-1 #
edge $-1 $629 0 $629 6.2831853071796004 $289 $630 forward 7 unknown #
vertex $-1 $292 $631 #
ellipse-curve $-1 -32.777114769498866 -30.066581653904606 4.1345701141343891 0 -0.73135370988377701 0.68199835119979291 1 0 0 1 I I #
face $-1 $-1 $466 $64 $-1 $632 forward single #
loop $-1 $-1 $633 $293 #
plane-surface $-1 0 -33.068041363815574 0 0 1 0 0 0 1 forward_v I I I I #
coedge $-1 $634 $635 $636 $637 reversed $294 $-1 #
coedge $-1 $638 $296 $298 $464 forward $184 $-1 #
coedge $-1 $296 $638 $634 $639 forward $184 $-1 #
coedge $-1 $636 $299 $296 $461 forward $466 $-1 #
edge $-1 $468 -27.418596495349103 $640 -10.449305555964983 $460 $641 forward 7 unknown #
coedge $-1 $642 $643 $297 $463 forward $455 $-1 #
edge $-1 $644 -39.919550076549385 $467 -33.48220696553355 $462 $645 forward 7 unknown #
edge $-1 $468 -8.8019559127399525 $644 3.1264163221236078e-014 $298 $646 forward 7 unknown #
coedge $-1 $299 $636 $642 $647 forward $466 $-1 #
loop $-1 $-1 $636 $454 #
vertex $-1 $463 $648 #
vertex $-1 $300 $649 #
straight-curve $-1 46.352547521006144 -59.833588632166638 7.3532416696423084 0 1 0 I I #
coedge $-1 $470 $470 $-1 $650 reversed $303 $-1 #
edge $-1 $651 0 $651 6.2831853071796004 $304 $652 forward 7 unknown #
vertex $-1 $307 $653 #
ellipse-curve $-1 32.777114769498844 -30.066581653904606 4.1345701141343891 0 -0.73135370988377701 0.68199835119979291 1 0 0 1 I I #
coedge $-1 $474 $474 $-1 $654 reversed $310 $-1 #
edge $-1 $655 0 $655 6.2831853071796004 $311 $656 forward 7 unknown #
vertex $-1 $314 $657 #
ellipse-curve $-1 37.867902051314083 -30.066581653904606 4.1345701141343891 0 -0.73135370988377701 0.68199835119979291 1 0 0 1 I I #
coedge $-1 $478 $478 $-1 $658 reversed $317 $-1 #
edge $-1 $659 0 $659 6.2831853071796004 $318 $660 forward 7 unknown #
vertex $-1 $321 $661 #
ellipse-curve $-1 42.958689333129321 -30.066581653904606 4.1345701141343891 0 -0.73135370988377701 0.68199835119979291 1 0 0 1 I I #
face $-1 $-1 $494 $68 $-1 $662 forward single #
loop $-1 $-1 $663 $322 #
plane-surface $-1 0 33.068041363815574 0 0 -1 0 0 0 -1 forward_v I I I I #
coedge $-1 $664 $665 $666 $667 reversed $323 $-1 #
coedge $-1 $668 $325 $327 $492 forward $203 $-1 #
coedge $-1 $325 $668 $664 $669 forward $203 $-1 #
coedge $-1 $666 $328 $325 $489 forward $494 $-1 #
edge $-1 $496 -27.41859649534911 $670 -10.44930555596499 $488 $671 forward 7 unknown #
coedge $-1 $672 $673 $326 $491 forward $483 $-1 #
edge $-1 $674 -64.103984806566103 $495 -57.666641695550261 $490 $675 forward 7 unknown #
edge $-1 $496 57.334126814891178 $674 66.136082727631191 $327 $676 forward 7 unknown #
coedge $-1 $328 $666 $672 $677 forward $494 $-1 #
loop $-1 $-1 $666 $482 #
vertex $-1 $491 $678 #
vertex $-1 $329 $679 #
straight-curve $-1 -46.352547521006159 37.281238944637863 7.3532416696423084 0 -1 0 I I #
coedge $-1 $498 $498 $-1 $680 reversed $332 $-1 #
edge $-1 $681 0 $681 6.2831853071796004 $333 $682 forward 7 unknown #
vertex $-1 $336 $683 #
ellipse-curve $-1 -42.958689333129328 30.066581653904599 4.1345701141343882 0 0.73135370988377701 0.68199835119979291 1 0 0 1 I I #
coedge $-1 $502 $502 $-1 $684 reversed $339 $-1 #
edge $-1 $685 0 $685 6.2831853071796004 $340 $686 forward 7 unknown #
vertex $-1 $343 $687 #
ellipse-curve $-1 -37.867902051314097 30.066581653904599 4.1345701141343882 0 0.73135370988377701 0.68199835119979291 1 0 0 1 I I #
coedge $-1 $506 $506 $-1 $688 reversed $346 $-1 #
edge $-1 $689 0 $689 6.2831853071796004 $347 $690 forward 7 unknown #
vertex $-1 $350 $691 #
ellipse-curve $-1 -32.777114769498866 30.066581653904599 4.1345701141343882 0 0.73135370988377701 0.68199835119979291 1 0 0 1 I I #
face $-1 $-1 $692 $72 $-1 $693 reversed single #
loop $-1 $-1 $357 $351 #
plane-surface $-1 0 0 7.3532416696423057 0 0 1 1 0 0 forward_v I I I I #
coedge $-1 $694 $695 $696 $697 reversed $352 $-1 #
coedge $-1 $698 $354 $356 $520 forward $222 $-1 #
coedge $-1 $354 $698 $694 $699 forward $222 $-1 #
coedge $-1 $696 $357 $354 $517 forward $511 $-1 #
edge $-1 $523 10.449305555964983 $700 27.418596495349103 $516 $701 forward 7 unknown #
coedge $-1 $702 $703 $355 $519 forward $692 $-1 #
edge $-1 $704 -64.103984806566103 $522 -57.666641695550261 $518 $705 forward 7 unknown #
edge $-1 $523 57.334126814891178 $704 66.136082727631191 $356 $706 forward 7 unknown #
coedge $-1 $357 $696 $702 $707 forward $511 $-1 #
vertex $-1 $519 $708 #
vertex $-1 $358 $709 #
straight-curve $-1 29.383256581622025 37.281238944637863 7.3532416696423084 0 -1 0 I I #
coedge $-1 $525 $525 $-1 $710 reversed $361 $-1 #
edge $-1 $711 0 $711 6.2831853071796004 $362 $712 forward 7 unknown #
vertex $-1 $365 $713 #
ellipse-curve $-1 32.777114769498844 30.066581653904599 4.1345701141343882 0 0.73135370988377701 0.68199835119979291 1 0 0 1 I I #
coedge $-1 $529 $529 $-1 $714 reversed $368 $-1 #
edge $-1 $715 0 $715 6.2831853071796004 $369 $716 forward 7 unknown #
vertex $-1 $372 $717 #
ellipse-curve $-1 37.867902051314083 30.066581653904599 4.1345701141343882 0 0.73135370988377701 0.68199835119979291 1 0 0 1 I I #
coedge $-1 $533 $533 $-1 $718 reversed $375 $-1 #
edge $-1 $719 0 $719 6.2831853071796004 $376 $720 forward 7 unknown #
vertex $-1 $379 $721 #
ellipse-curve $-1 42.958689333129321 30.066581653904599 4.1345701141343882 0 0.73135370988377701 0.68199835119979291 1 0 0 1 I I #
face $-1 $-1 $550 $57 $-1 $722 reversed single #
loop $-1 $-1 $723 $380 #
plane-surface $-1 -59.204687643055514 0 0 1 0 0 0 0 -1 forward_v I I I I #
coedge $-1 $552 $544 $724 $725 forward $381 $-1 #
coedge $-1 $384 $383 $723 $726 forward $153 $-1 #
coedge $-1 $387 $727 $383 $543 reversed $550 $-1 #
edge $-1 $547 -59.204687643055514 $728 59.204687643055514 $542 $729 forward 7 unknown #
coedge $-1 $540 $389 $384 $545 reversed $381 $-1 #
edge $-1 $730 -59.204687643055514 $546 59.204687643055514 $544 $731 forward 7 unknown #
vertex $-1 $386 $732 #
vertex $-1 $386 $733 #
straight-curve $-1 59.204687643055514 0 7.3532416696423057 0 1 0 I I #
coedge $-1 $727 $387 $392 $556 reversed $550 $-1 #
loop $-1 $-1 $387 $537 #
straight-curve $-1 59.204687643055514 33.068041363815574 0 0 0 -1 I I #
coedge $-1 $389 $540 $391 $555 reversed $381 $-1 #
straight-curve $-1 59.204687643055514 -33.068041363815574 0 0 0 -1 I I #
coedge $-1 $392 $391 $734 $735 forward $241 $-1 #
edge $-1 $394 -59.204687643055514 $736 59.204687643055514 $552 $737 forward 7 unknown #
edge $-1 $738 -59.204687643055514 $393 59.204687643055514 $549 $739 forward 7 unknown #
point $-1 59.204687643055514 33.068041363815574 -7.3532416696423057 #
point $-1 59.204687643055514 -33.068041363815574 -7.3532416696423057 #
face $-1 $-1 $740 $58 $-1 $741 reversed single #
loop $-1 $-1 $404 $396 #
plane-surface $-1 0 0 -7.3532416696423057 0 0 1 1 0 0 forward_v I I I I #
coedge $-1 $742 $399 $743 $744 reversed $249 $-1 #
coedge $-1 $399 $742 $566 $745 reversed $249 $-1 #
coedge $-1 $407 $406 $399 $565 reversed $397 $-1 #
edge $-1 $746 -7.3532416696423057 $747 7.3532416696423057 $564 $748 forward 7 unknown #
coedge $-1 $401 $400 $563 $745 forward $157 $-1 #
edge $-1 $409 -3.8684262850442437 $746 3.8684262850442366 $407 $749 forward 7 unknown #
coedge $-1 $750 $572 $401 $569 reversed $740 $-1 #
edge $-1 $751 -66.941540213143995 $570 -59.204687643055514 $568 $752 forward 7 unknown #
vertex $-1 $573 $753 #
straight-curve $-1 -59.204687643055514 0 7.3532416696423057 0 1 0 I I #
coedge $-1 $568 $754 $403 $573 forward $740 $-1 #
edge $-1 $576 -7.3532416696423057 $570 7.3532416696423057 $572 $755 forward 7 unknown #
coedge $-1 $743 $404 $754 $756 forward $560 $-1 #
coedge $-1 $404 $743 $406 $578 forward $560 $-1 #
vertex $-1 $756 $757 #
straight-curve $-1 -59.204687643055514 0 -7.3532416696423057 0 -1 0 I I #
edge $-1 $747 -3.8684262850442366 $408 3.8684262850442437 $406 $758 forward 7 unknown #
point $-1 -59.204687643055514 -30.068041363815574 -7.3532416696423057 #
point $-1 -59.204687643055514 -30.068041363815574 7.3532416696423057 #
face $-1 $-1 $596 $59 $-1 $759 forward single #
loop $-1 $-1 $760 $411 #
plane-surface $-1 66.941540213143995 -31.568041363815574 0 -1 0 0 0 0 1 forward_v I I I I #
coedge $-1 $423 $422 $761 $762 forward $412 $-1 #
coedge $-1 $763 $414 $423 $599 forward $257 $-1 #
coedge $-1 $414 $763 $415 $588 forward $257 $-1 #
coedge $-1 $416 $415 $760 $764 reversed $161 $-1 #
edge $-1 $765 -3.8684262850442437 $592 3.8684262850442366 $415 $766 forward 7 unknown #
coedge $-1 $767 $420 $416 $590 forward $596 $-1 #
edge $-1 $591 -3.8684262850442366 $768 3.8684262850442437 $416 $769 forward 7 unknown #
vertex $-1 $590 $770 #
vertex $-1 $419 $771 #
straight-curve $-1 59.204687643055514 -33.068041363815574 0 0 0 -1 I I #
straight-curve $-1 59.204687643055514 0 -7.3532416696423057 0 1 0 I I #
coedge $-1 $420 $767 $422 $598 forward $596 $-1 #
loop $-1 $-1 $420 $581 #
straight-curve $-1 59.204687643055514 0 7.3532416696423057 0 -1 0 I I #
edge $-1 $772 -3.8684262850442437 $424 3.8684262850442437 $422 $773 forward 7 unknown #
edge $-1 $425 -3.8684262850442437 $774 3.8684262850442437 $423 $775 forward 7 unknown #
point $-1 59.204687643055507 -30.068041363815574 7.3532416696423057 #
point $-1 59.204687643055507 -30.068041363815574 -7.3532416696423057 #
loop $-1 $-1 $435 $427 #
plane-surface $-1 0 -33.068041363815574 0 0 1 0 0 0 1 forward_v I I I I #
coedge $-1 $605 $430 $432 $609 reversed $265 $-1 #
coedge $-1 $430 $604 $776 $777 reversed $265 $-1 #
coedge $-1 $438 $433 $430 $607 forward $428 $-1 #
edge $-1 $610 -32.768466688173 $778 -26.765547268351064 $606 $779 forward 7 unknown #
coedge $-1 $432 $431 $613 $780 reversed $165 $-1 #
edge $-1 $781 -3.1264163221236078e-014 $610 8.8019559127399525 $604 $782 forward 7 unknown #
vertex $-1 $434 $783 #
straight-curve $-1 -18.933951025657048 -27.065121943993635 7.3532416696423057 -1 0 0 I I #
coedge $-1 $776 $435 $438 $617 reversed $602 $-1 #
coedge $-1 $435 $776 $608 $780 forward $602 $-1 #
vertex $-1 $436 $784 #
straight-curve $-1 -29.383256581622039 -33.068041363815574 40.835448635175858 0 0 1 I I #
straight-curve $-1 -29.383256581622039 -33.068041363815553 0.91589855862649472 0 -0.68199835119979291 -0.73135370988377701 I I #
edge $-1 $778 -109.42566144910592 $439 -92.456370509721793 $612 $785 forward 7 unknown #
point $-1 -29.383256581622042 -33.068041363815574 7.3532416696423057 #
point $-1 -29.383256581622039 -27.065121943993638 7.3532416696423057 #
edge $-1 $786 1 $786 0 $442 $-1 forward 7 unknown #
vertex $-1 $443 $787 #
ellipse-curve $-1 -42.958689333129328 -28.134711510001281 2.3330721042541249 0 -0.73135370988377701 0.68199835119979291 1 0 0 1 I I #
point $-1 -41.958689333129328 -30.066581653904613 4.1345701141343962 #
edge $-1 $788 1 $788 0 $446 $-1 forward 7 unknown #
vertex $-1 $447 $789 #
ellipse-curve $-1 -37.867902051314097 -28.134711510001281 2.3330721042541249 0 -0.73135370988377701 0.68199835119979291 1 0 0 1 I I #
point $-1 -36.867902051314097 -30.066581653904613 4.1345701141343962 #
edge $-1 $790 1 $790 0 $450 $-1 forward 7 unknown #
vertex $-1 $451 $791 #
ellipse-curve $-1 -32.777114769498866 -28.134711510001281 2.3330721042541249 0 -0.73135370988377701 0.68199835119979291 1 0 0 1 I I #
point $-1 -31.777114769498866 -30.066581653904613 4.1345701141343962 #
plane-surface $-1 0 0 7.3532416696423057 0 0 1 1 0 0 forward_v I I I I #
coedge $-1 $643 $642 $635 $792 forward $455 $-1 #
coedge $-1 $635 $457 $459 $639 reversed $294 $-1 #
coedge $-1 $457 $634 $633 $792 reversed $294 $-1 #
coedge $-1 $465 $460 $457 $637 forward $466 $-1 #
edge $-1 $640 -32.768466688173 $793 -26.765547268351064 $636 $794 forward 7 unknown #
coedge $-1 $459 $458 $643 $795 reversed $184 $-1 #
edge $-1 $796 -3.1264163221236078e-014 $640 8.8019559127399525 $634 $797 forward 7 unknown #
vertex $-1 $461 $798 #
straight-curve $-1 18.933951025657041 -27.065121943993635 7.3532416696423057 -1 0 0 I I #
coedge $-1 $633 $462 $465 $647 reversed $455 $-1 #
coedge $-1 $462 $633 $638 $795 forward $455 $-1 #
vertex $-1 $463 $799 #
straight-curve $-1 46.352547521006144 -33.068041363815574 40.835448635175858 0 0 1 I I #
straight-curve $-1 46.352547521006144 -33.068041363815553 0.91589855862649472 0 -0.68199835119979291 -0.73135370988377701 I I #
edge $-1 $793 -33.689857346477723 $467 -16.720566407093607 $642 $800 forward 7 unknown #
point $-1 46.352547521006144 -33.068041363815574 7.3532416696423057 #
point $-1 46.352547521006144 -27.065121943993638 7.3532416696423057 #
edge $-1 $801 1 $801 0 $470 $-1 forward 7 unknown #
vertex $-1 $471 $802 #
ellipse-curve $-1 32.777114769498844 -28.134711510001281 2.3330721042541249 0 -0.73135370988377701 0.68199835119979291 1 0 0 1 I I #
point $-1 33.777114769498844 -30.066581653904613 4.1345701141343962 #
edge $-1 $803 1 $803 0 $474 $-1 forward 7 unknown #
vertex $-1 $475 $804 #
ellipse-curve $-1 37.867902051314083 -28.134711510001281 2.3330721042541249 0 -0.73135370988377701 0.68199835119979291 1 0 0 1 I I #
point $-1 38.867902051314083 -30.066581653904613 4.1345701141343962 #
edge $-1 $805 1 $805 0 $478 $-1 forward 7 unknown #
vertex $-1 $479 $806 #
ellipse-curve $-1 42.958689333129321 -28.134711510001281 2.3330721042541249 0 -0.73135370988377701 0.68199835119979291 1 0 0 1 I I #
point $-1 43.958689333129321 -30.066581653904613 4.1345701141343962 #
plane-surface $-1 0 0 7.3532416696423057 0 0 1 1 0 0 forward_v I I I I #
coedge $-1 $673 $672 $665 $807 forward $483 $-1 #
coedge $-1 $665 $485 $487 $669 reversed $323 $-1 #
coedge $-1 $485 $664 $663 $807 reversed $323 $-1 #
coedge $-1 $493 $488 $485 $667 forward $494 $-1 #
edge $-1 $670 -10.216117000644239 $808 -4.213197580822289 $666 $809 forward 7 unknown #
coedge $-1 $487 $486 $673 $810 reversed $203 $-1 #
edge $-1 $811 -66.136082727631191 $670 -57.334126814891178 $664 $812 forward 7 unknown #
vertex $-1 $489 $813 #
straight-curve $-1 -18.933951025657048 27.065121943993631 7.3532416696423049 1 0 0 I I #
coedge $-1 $663 $490 $493 $677 reversed $483 $-1 #
coedge $-1 $490 $663 $668 $810 forward $483 $-1 #
vertex $-1 $491 $814 #
straight-curve $-1 -46.352547521006159 33.068041363815574 65.01988336519257 0 0 1 I I #
straight-curve $-1 -46.352547521006159 -12.036658011241997 49.284768018659918 0 0.68199835119979291 -0.73135370988377701 I I #
edge $-1 $808 29.383256581622039 $495 46.352547521006159 $672 $815 forward 7 unknown #
point $-1 -46.352547521006159 33.068041363815574 7.3532416696423057 #
point $-1 -46.352547521006159 27.065121943993624 7.3532416696423084 #
edge $-1 $816 1 $816 0 $498 $-1 forward 7 unknown #
vertex $-1 $499 $817 #
ellipse-curve $-1 -42.958689333129328 28.134711510001281 2.3330721042541303 0 0.73135370988377701 0.68199835119979291 1 0 0 1 I I #
point $-1 -41.958689333129328 30.066581653904613 4.1345701141344016 #
edge $-1 $818 1 $818 0 $502 $-1 forward 7 unknown #
vertex $-1 $503 $819 #
ellipse-curve $-1 -37.867902051314097 28.134711510001281 2.3330721042541303 0 0.73135370988377701 0.68199835119979291 1 0 0 1 I I #
point $-1 -36.867902051314097 30.066581653904613 4.1345701141344016 #
edge $-1 $820 1 $820 0 $506 $-1 forward 7 unknown #
vertex $-1 $507 $821 #
ellipse-curve $-1 -32.777114769498866 28.134711510001281 2.3330721042541303 0 0.73135370988377701 0.68199835119979291 1 0 0 1 I I #
point $-1 -31.777114769498866 30.066581653904613 4.1345701141344016 #
loop $-1 $-1 $518 $510 #
plane-surface $-1 0 33.068041363815574 0 0 -1 0 0 0 -1 forward_v I I I I #
coedge $-1 $695 $513 $515 $699 reversed $352 $-1 #
coedge $-1 $513 $694 $822 $823 reversed $352 $-1 #
coedge $-1 $521 $516 $513 $697 forward $511 $-1 #
edge $-1 $700 -10.216117000644239 $824 -4.213197580822289 $696 $825 forward 7 unknown #
coedge $-1 $515 $514 $703 $826 reversed $222 $-1 #
edge $-1 $827 -66.136082727631191 $700 -57.334126814891178 $694 $828 forward 7 unknown #
vertex $-1 $517 $829 #
straight-curve $-1 18.933951025657041 27.065121943993631 7.3532416696423049 1 0 0 I I #
coedge $-1 $822 $518 $521 $707 reversed $692 $-1 #
coedge $-1 $518 $822 $698 $826 forward $692 $-1 #
vertex $-1 $519 $830 #
straight-curve $-1 29.383256581622025 33.068041363815574 65.01988336519257 0 0 1 I I #
straight-curve $-1 29.383256581622025 -12.036658011241997 49.284768018659918 0 0.68199835119979291 -0.73135370988377701 I I #
edge $-1 $824 -46.352547521006144 $522 -29.383256581622025 $702 $831 forward 7 unknown #
point $-1 29.383256581622025 33.068041363815574 7.3532416696423057 #
point $-1 29.383256581622025 27.065121943993624 7.3532416696423084 #
edge $-1 $832 1 $832 0 $525 $-1 forward 7 unknown #
vertex $-1 $526 $833 #
ellipse-curve $-1 32.777114769498844 28.134711510001281 2.3330721042541303 0 0.73135370988377701 0.68199835119979291 1 0 0 1 I I #
point $-1 33.777114769498844 30.066581653904613 4.1345701141344016 #
edge $-1 $834 1 $834 0 $529 $-1 forward 7 unknown #
vertex $-1 $530 $835 #
ellipse-curve $-1 37.867902051314083 28.134711510001281 2.3330721042541303 0 0.73135370988377701 0.68199835119979291 1 0 0 1 I I #
point $-1 38.867902051314083 30.066581653904613 4.1345701141344016 #
edge $-1 $836 1 $836 0 $533 $-1 forward 7 unknown #
vertex $-1 $534 $837 #
ellipse-curve $-1 42.958689333129321 28.134711510001281 2.3330721042541303 0 0.73135370988377701 0.68199835119979291 1 0 0 1 I I #
point $-1 43.958689333129321 30.066581653904613 4.1345701141344016 #
plane-surface $-1 0 33.068041363815574 0 0 -1 0 0 0 -1 forward_v I I I I #
coedge $-1 $838 $724 $541 $726 reversed $538 $-1 #
coedge $-1 $723 $734 $540 $725 reversed $538 $-1 #
edge $-1 $730 -7.3532416696423057 $736 7.3532416696423057 $724 $839 forward 7 unknown #
edge $-1 $728 -33.068041363815574 $730 33.068041363815574 $723 $840 forward 7 unknown #
coedge $-1 $542 $549 $838 $841 reversed $550 $-1 #
vertex $-1 $543 $842 #
straight-curve $-1 0 33.068041363815574 7.3532416696423057 -1 0 0 I I #
vertex $-1 $726 $843 #
straight-curve $-1 0 -33.068041363815574 7.3532416696423057 1 0 0 I I #
point $-1 59.204687643055514 -33.068041363815574 7.3532416696423057 #
point $-1 59.204687643055514 33.068041363815574 7.3532416696423057 #
coedge $-1 $724 $838 $554 $735 reversed $538 $-1 #
edge $-1 $736 -33.068041363815574 $738 33.068041363815574 $734 $844 forward 7 unknown #
vertex $-1 $735 $845 #
straight-curve $-1 0 -33.068041363815574 -7.3532416696423057 -1 0 0 I I #
vertex $-1 $556 $846 #
straight-curve $-1 0 33.068041363815574 -7.3532416696423057 1 0 0 I I #
loop $-1 $-1 $572 $559 #
plane-surface $-1 0 -33.068041363815574 0 0 1 0 0 0 1 forward_v I I I I #
coedge $-1 $563 $562 $750 $847 reversed $249 $-1 #
coedge $-1 $575 $574 $562 $744 forward $560 $-1 #
edge $-1 $848 -1.5 $747 1.5 $562 $849 forward 7 unknown #
edge $-1 $746 -1.5 $751 1.5 $563 $850 forward 7 unknown #
vertex $-1 $567 $851 #
vertex $-1 $578 $852 #
straight-curve $-1 -66.941540213143995 -30.068041363815574 0 0 0 -1 I I #
straight-curve $-1 -63.073113928099758 -30.068041363815574 7.3532416696423057 -1 0 0 I I #
coedge $-1 $754 $568 $742 $847 forward $740 $-1 #
vertex $-1 $745 $853 #
straight-curve $-1 0 -33.068041363815574 7.3532416696423057 1 0 0 I I #
point $-1 -59.204687643055514 -33.068041363815574 7.3532416696423057 #
coedge $-1 $572 $750 $574 $756 reversed $740 $-1 #
straight-curve $-1 -59.204687643055514 -33.068041363815574 0 0 0 1 I I #
edge $-1 $576 -3.8684262850442437 $848 3.8684262850442366 $754 $854 forward 7 unknown #
point $-1 -59.204687643055514 -33.068041363815574 -7.3532416696423057 #
straight-curve $-1 -63.073113928099758 -30.068041363815574 -7.3532416696423057 1 0 0 I I #
plane-surface $-1 0 0 7.3532416696423057 0 0 1 1 0 0 forward_v I I I I #
coedge $-1 $855 $856 $587 $764 forward $582 $-1 #
coedge $-1 $856 $855 $584 $762 reversed $582 $-1 #
edge $-1 $772 -7.3532416696423057 $774 7.3532416696423057 $761 $857 forward 7 unknown #
coedge $-1 $586 $585 $855 $858 forward $257 $-1 #
edge $-1 $768 -7.3532416696423057 $765 7.3532416696423057 $760 $859 forward 7 unknown #
vertex $-1 $764 $860 #
straight-curve $-1 63.073113928099751 -33.068041363815574 -7.3532416696423057 -1 0 0 I I #
coedge $-1 $595 $589 $856 $861 forward $596 $-1 #
vertex $-1 $861 $862 #
straight-curve $-1 63.073113928099751 -33.068041363815574 7.3532416696423057 1 0 0 I I #
point $-1 59.204687643055514 -33.068041363815574 7.3532416696423057 #
point $-1 59.204687643055514 -33.068041363815574 -7.3532416696423057 #
vertex $-1 $861 $863 #
straight-curve $-1 63.073113928099751 -30.068041363815574 7.3532416696423057 -1 0 0 I I #
vertex $-1 $858 $864 #
straight-curve $-1 63.073113928099751 -30.068041363815574 -7.3532416696423057 1 0 0 I I #
coedge $-1 $613 $612 $605 $777 forward $602 $-1 #
edge $-1 $778 33.48220696553355 $781 39.919550076549385 $776 $865 forward 7 unknown #
vertex $-1 $617 $866 #
straight-curve $-1 -46.352547521006159 -59.833588632166638 7.3532416696423084 0 -1 0 I I #
edge $-1 $781 -27.41859649534911 $614 -10.44930555596499 $613 $867 forward 7 unknown #
vertex $-1 $780 $868 #
straight-curve $-1 -46.352547521006159 -33.068041363815553 0.91589855862649472 0 0.68199835119979291 0.73135370988377701 I I #
point $-1 -46.352547521006159 -27.065121943993638 7.3532416696423057 #
point $-1 -29.383256581622039 -33.068041363815574 0.91589855862647185 #
straight-curve $-1 63.073113928099751 -33.068041363815574 7.3532416696423057 1 0 0 I I #
vertex $-1 $620 $869 #
point $-1 -41.958689333129328 -28.134711510001281 2.3330721042541249 #
vertex $-1 $624 $870 #
point $-1 -36.867902051314097 -28.134711510001281 2.3330721042541249 #
vertex $-1 $628 $871 #
point $-1 -31.777114769498866 -28.134711510001281 2.3330721042541249 #
edge $-1 $793 33.48220696553355 $796 39.919550076549385 $633 $872 forward 7 unknown #
vertex $-1 $647 $873 #
straight-curve $-1 29.383256581622025 -59.833588632166638 7.3532416696423084 0 -1 0 I I #
edge $-1 $796 10.449305555964983 $644 27.418596495349103 $643 $874 forward 7 unknown #
vertex $-1 $795 $875 #
straight-curve $-1 29.383256581622025 -33.068041363815553 0.91589855862649472 0 0.68199835119979291 0.73135370988377701 I I #
point $-1 29.383256581622025 -27.065121943993638 7.3532416696423057 #
point $-1 46.352547521006144 -33.068041363815574 0.91589855862647185 #
straight-curve $-1 63.073113928099751 -33.068041363815574 7.3532416696423057 1 0 0 I I #
vertex $-1 $650 $876 #
point $-1 33.777114769498844 -28.134711510001281 2.3330721042541249 #
vertex $-1 $654 $877 #
point $-1 38.867902051314083 -28.134711510001281 2.3330721042541249 #
vertex $-1 $658 $878 #
point $-1 43.958689333129321 -28.134711510001281 2.3330721042541249 #
edge $-1 $808 57.666641695550261 $811 64.103984806566103 $663 $879 forward 7 unknown #
vertex $-1 $677 $880 #
straight-curve $-1 -29.383256581622039 37.281238944637863 7.3532416696423084 0 1 0 I I #
edge $-1 $811 10.44930555596499 $674 27.41859649534911 $673 $881 forward 7 unknown #
vertex $-1 $810 $882 #
straight-curve $-1 -29.383256581622039 -12.036658011241997 49.284768018659918 0 -0.68199835119979291 0.73135370988377701 I I #
point $-1 -29.383256581622039 27.065121943993624 7.3532416696423084 #
point $-1 -46.352547521006159 33.068041363815581 0.91589855862645919 #
straight-curve $-1 0 33.068041363815574 7.3532416696423057 -1 0 0 I I #
vertex $-1 $680 $883 #
point $-1 -41.958689333129328 28.134711510001281 2.3330721042541303 #
vertex $-1 $684 $884 #
point $-1 -36.867902051314097 28.134711510001281 2.3330721042541303 #
vertex $-1 $688 $885 #
point $-1 -31.777114769498866 28.134711510001281 2.3330721042541303 #
coedge $-1 $703 $702 $695 $823 forward $692 $-1 #
edge $-1 $824 57.666641695550261 $827 64.103984806566103 $822 $886 forward 7 unknown #
vertex $-1 $707 $887 #
straight-curve $-1 46.352547521006144 37.281238944637863 7.3532416696423084 0 1 0 I I #
edge $-1 $827 -27.418596495349103 $704 -10.449305555964983 $703 $888 forward 7 unknown #
vertex $-1 $826 $889 #
straight-curve $-1 46.352547521006144 -12.036658011241997 49.284768018659918 0 -0.68199835119979291 0.73135370988377701 I I #
point $-1 46.352547521006144 27.065121943993624 7.3532416696423084 #
point $-1 29.383256581622025 33.068041363815581 0.91589855862645919 #
straight-curve $-1 0 33.068041363815574 7.3532416696423057 -1 0 0 I I #
vertex $-1 $710 $890 #
point $-1 33.777114769498844 28.134711510001281 2.3330721042541303 #
vertex $-1 $714 $891 #
point $-1 38.867902051314083 28.134711510001281 2.3330721042541303 #
vertex $-1 $718 $892 #
point $-1 43.958689333129321 28.134711510001281 2.3330721042541303 #
coedge $-1 $734 $723 $727 $841 forward $538 $-1 #
straight-curve $-1 -59.204687643055514 -33.068041363815574 0 0 0 -1 I I #
straight-curve $-1 -59.204687643055514 0 7.3532416696423057 0 -1 0 I I #
edge $-1 $728 -7.3532416696423057 $738 7.3532416696423057 $727 $893 forward 7 unknown #
point $-1 -59.204687643055514 33.068041363815574 7.3532416696423057 #
point $-1 -59.204687643055514 -33.068041363815574 7.3532416696423057 #
straight-curve $-1 -59.204687643055514 0 -7.3532416696423057 0 1 0 I I #
point $-1 -59.204687643055514 -33.068041363815574 -7.3532416696423057 #
point $-1 -59.204687643055514 33.068041363815574 -7.3532416696423057 #
edge $-1 $751 -7.3532416696423057 $848 7.3532416696423057 $742 $894 forward 7 unknown #
vertex $-1 $744 $895 #
straight-curve $-1 -66.941540213143995 -31.568041363815574 -7.3532416696423057 0 1 0 I I #
straight-curve $-1 -66.941540213143995 -31.568041363815574 7.3532416696423057 0 -1 0 I I #
point $-1 -66.941540213143995 -30.068041363815574 7.3532416696423057 #
point $-1 -66.941540213143995 -30.068041363815574 -7.3532416696423057 #
point $-1 -66.941540213143995 -33.068041363815574 7.3532416696423057 #
straight-curve $-1 -63.073113928099758 -33.068041363815574 -7.3532416696423057 -1 0 0 I I #
coedge $-1 $761 $760 $763 $858 reversed $582 $-1 #
coedge $-1 $760 $761 $767 $861 reversed $582 $-1 #
straight-curve $-1 66.941540213143995 -30.068041363815574 0 0 0 -1 I I #
edge $-1 $774 -1.5 $765 1.5 $855 $896 forward 7 unknown #
straight-curve $-1 66.941540213143995 -33.068041363815574 0 0 0 -1 I I #
point $-1 66.941540213143995 -33.068041363815574 -7.3532416696423057 #
edge $-1 $768 -1.5 $772 1.5 $856 $897 forward 7 unknown #
point $-1 66.941540213143995 -33.068041363815574 7.3532416696423057 #
point $-1 66.941540213143995 -30.068041363815574 7.3532416696423057 #
point $-1 66.941540213143995 -30.068041363815574 -7.3532416696423057 #
straight-curve $-1 -46.352547521006159 -33.068041363815574 40.835448635175858 0 0 -1 I I #
point $-1 -46.352547521006166 -33.068041363815574 7.3532416696423057 #
straight-curve $-1 -18.933951025657048 -33.068041363815574 0.91589855862647929 1 0 0 I I #
point $-1 -46.352547521006159 -33.068041363815574 0.91589855862647185 #
point $-1 -42.958689333129328 -27.403357800117504 1.651073753054332 #
point $-1 -37.867902051314097 -27.403357800117504 1.651073753054332 #
point $-1 -32.777114769498866 -27.403357800117504 1.651073753054332 #
straight-curve $-1 29.383256581622025 -33.068041363815574 40.835448635175858 0 0 -1 I I #
point $-1 29.383256581622028 -33.068041363815574 7.3532416696423057 #
straight-curve $-1 18.933951025657041 -33.068041363815574 0.91589855862647929 1 0 0 I I #
point $-1 29.383256581622025 -33.068041363815574 0.91589855862647185 #
point $-1 32.777114769498844 -27.403357800117504 1.651073753054332 #
point $-1 37.867902051314083 -27.403357800117504 1.651073753054332 #
point $-1 42.958689333129321 -27.403357800117504 1.651073753054332 #
straight-curve $-1 -29.383256581622039 33.068041363815574 65.01988336519257 0 0 -1 I I #
point $-1 -29.383256581622039 33.068041363815574 7.3532416696423057 #
straight-curve $-1 -18.933951025657048 33.068041363815574 0.91589855862646274 -1 0 0 I I #
point $-1 -29.383256581622039 33.068041363815581 0.91589855862645919 #
point $-1 -42.958689333129328 27.403357800117504 1.6510737530543373 #
point $-1 -37.867902051314097 27.403357800117504 1.6510737530543373 #
point $-1 -32.777114769498866 27.403357800117504 1.6510737530543373 #
straight-curve $-1 46.352547521006144 33.068041363815574 65.01988336519257 0 0 -1 I I #
point $-1 46.352547521006144 33.068041363815574 7.3532416696423057 #
straight-curve $-1 18.933951025657041 33.068041363815574 0.91589855862646274 -1 0 0 I I #
point $-1 46.352547521006144 33.068041363815581 0.91589855862645919 #
point $-1 32.777114769498844 27.403357800117504 1.6510737530543373 #
point $-1 37.867902051314083 27.403357800117504 1.6510737530543373 #
point $-1 42.958689333129321 27.403357800117504 1.6510737530543373 #
straight-curve $-1 -59.204687643055514 33.068041363815574 0 0 0 -1 I I #
straight-curve $-1 -66.941540213143995 -33.068041363815574 0 0 0 -1 I I #
point $-1 -66.941540213143995 -33.068041363815574 -7.3532416696423057 #
straight-curve $-1 66.941540213143995 -31.568041363815574 -7.3532416696423057 0 -1 0 I I #
straight-curve $-1 66.941540213143995 -31.568041363815574 7.3532416696423057 0 1 0 I I #
End-of-ACIS-data 