500 0 8 0           
7 Unknown 11 ACIS 5.0 NT 24 Fri Mar 26 18:15:43 1999 
-1 9.9999999999999995e-007 1e-010 
body $-1 $8 $-1 $9 #
body $-1 $10 $-1 $11 #
body $-1 $12 $-1 $13 #
body $-1 $14 $-1 $15 #
body $-1 $16 $-1 $17 #
body $-1 $18 $-1 $19 #
body $-1 $20 $-1 $21 #
body $-1 $22 $-1 $23 #
lump $-1 $-1 $24 $0 #
transform $-1 1 0 0 0 1 0 0 0 1 52.063356425672168 35.228367361291333 10.347788634264864 1 rotate no_reflect no_shear #
lump $-1 $-1 $25 $1 #
transform $-1 1 0 0 0 1 0 0 0 1 52.063356425672168 35.228367361291333 10.347788634264864 1 rotate no_reflect no_shear #
lump $-1 $-1 $26 $2 #
transform $-1 1 0 0 0 1 0 0 0 1 52.063356425672168 35.228367361291333 10.347788634264864 1 rotate no_reflect no_shear #
lump $-1 $-1 $27 $3 #
transform $-1 1 0 0 0 1 0 0 0 1 52.063356425672168 35.228367361291333 10.347788634264864 1 rotate no_reflect no_shear #
lump $-1 $-1 $28 $4 #
transform $-1 1 0 0 0 1 0 0 0 1 52.063356425672168 35.228367361291333 10.347788634264864 1 rotate no_reflect no_shear #
lump $-1 $-1 $29 $5 #
transform $-1 1 0 0 0 1 0 0 0 1 52.063356425672168 35.228367361291333 10.347788634264864 1 rotate no_reflect no_shear #
lump $-1 $-1 $30 $6 #
transform $-1 1 0 0 0 1 0 0 0 1 52.063356425672168 35.228367361291333 10.347788634264864 1 rotate no_reflect no_shear #
lump $-1 $-1 $31 $7 #
transform $-1 1 0 0 0 1 0 0 0 1 52.063356425672168 35.228367361291333 10.347788634264864 1 rotate no_reflect no_shear #
shell $-1 $-1 $-1 $32 $-1 $8 #
shell $-1 $-1 $-1 $33 $-1 $10 #
shell $-1 $-1 $-1 $34 $-1 $12 #
shell $-1 $-1 $-1 $35 $-1 $14 #
shell $-1 $-1 $-1 $36 $-1 $16 #
shell $-1 $-1 $-1 $37 $-1 $18 #
shell $-1 $-1 $-1 $38 $-1 $20 #
shell $-1 $-1 $-1 $39 $-1 $22 #
face $-1 $40 $41 $24 $-1 $42 forward single #
face $-1 $43 $44 $25 $-1 $45 forward single #
face $-1 $46 $47 $26 $-1 $48 reversed single #
face $-1 $49 $50 $27 $-1 $51 forward single #
face $-1 $52 $53 $28 $-1 $54 forward single #
face $-1 $55 $56 $29 $-1 $57 reversed single #
face $-1 $58 $59 $30 $-1 $60 forward single #
face $-1 $61 $62 $31 $-1 $63 forward single #
face $-1 $64 $65 $24 $-1 $66 reversed single #
loop $-1 $-1 $67 $32 #
plane-surface $-1 0 0 10.347788634264864 0 0 1 1 0 0 forward_v I I I I #
face $-1 $68 $69 $25 $-1 $70 reversed single #
loop $-1 $-1 $71 $33 #
plane-surface $-1 0 -29.491090633634833 -5.4223446432225462 0 0 1 1 0 0 forward_v I I I I #
face $-1 $72 $73 $26 $-1 $74 reversed single #
loop $-1 $-1 $75 $34 #
plane-surface $-1 -37.952211836541736 56.878527948998325 129.94998298383888 -1 0 0 0 0.69465837861970381 0.71933979245794832 forward_v I I I I #
face $-1 $76 $77 $27 $-1 $78 forward single #
loop $-1 $79 $80 $35 #
cone-surface $-1 -48.031600828777755 32.581447143276485 7.7602794564234241 0 -0.69465837861970381 -0.71933979245794832 0.5 0 0 1 I I 0 1 0.5 forward I I I I #
face $-1 $81 $82 $28 $-1 $83 forward single #
loop $-1 $84 $85 $36 #
cone-surface $-1 -41.983967433436142 32.581447143276485 7.7602794564234241 0 -0.69465837861970381 -0.71933979245794832 0.5 0 0 1 I I 0 1 0.5 forward I I I I #
face $-1 $86 $87 $29 $-1 $88 reversed single #
loop $-1 $-1 $89 $37 #
plane-surface $-1 14.111144589130436 56.878527948998325 129.94998298383888 -1 0 0 0 0.69465837861970381 0.71933979245794832 forward_v I I I I #
face $-1 $90 $91 $30 $-1 $92 forward single #
loop $-1 $93 $94 $38 #
cone-surface $-1 4.0317555968944134 32.581447143276485 7.7602794564234241 0 -0.69465837861970381 -0.71933979245794832 0.5 0 0 1 I I 0 1 0.5 forward I I I I #
face $-1 $95 $96 $31 $-1 $97 forward single #
loop $-1 $98 $99 $39 #
cone-surface $-1 10.079388992236026 32.581447143276485 7.7602794564234241 0 -0.69465837861970381 -0.71933979245794832 0.5 0 0 1 I I 0 1 0.5 forward I I I I #
face $-1 $100 $101 $24 $-1 $102 reversed single #
loop $-1 $-1 $103 $40 #
plane-surface $-1 0 0 -10.347788634264864 0 0 1 1 0 0 forward_v I I I I #
coedge $-1 $104 $105 $106 $107 forward $41 $-1 #
face $-1 $108 $109 $25 $-1 $110 reversed single #
loop $-1 $-1 $111 $43 #
plane-surface $-1 0 -29.491090633634833 -9.5371435673457299 0 0 1 1 0 0 forward_v I I I I #
coedge $-1 $112 $113 $114 $115 reversed $44 $-1 #
face $-1 $116 $117 $26 $-1 $118 reversed single #
loop $-1 $-1 $119 $46 #
plane-surface $-1 -45.007784131106952 -15.453965571316004 55.047494972024467 0 0.69465837861970381 0.71933979245794832 1 0 0 forward_v I I I I #
coedge $-1 $120 $121 $122 $123 reversed $47 $-1 #
face $-1 $-1 $124 $27 $-1 $125 forward single #
loop $-1 $126 $127 $49 #
cone-surface $-1 -48.031600828777755 31.958078857210367 7.1147627142016265 0 -0.69465837861970381 -0.71933979245794832 0.25 0 0 1 I I -0.70710678118654746 0.70710678118654746 0.25 forward I I I I #
loop $-1 $-1 $128 $35 #
coedge $-1 $80 $80 $129 $130 reversed $50 $-1 #
face $-1 $-1 $131 $28 $-1 $132 forward single #
loop $-1 $133 $134 $52 #
cone-surface $-1 -41.983967433436142 31.958078857210367 7.1147627142016265 0 -0.69465837861970381 -0.71933979245794832 0.25 0 0 1 I I -0.70710678118654746 0.70710678118654746 0.25 forward I I I I #
loop $-1 $-1 $135 $36 #
coedge $-1 $85 $85 $136 $137 reversed $53 $-1 #
face $-1 $138 $139 $29 $-1 $140 reversed single #
loop $-1 $-1 $141 $55 #
plane-surface $-1 7.0555722945652164 -15.453965571316004 55.047494972024467 0 0.69465837861970381 0.71933979245794832 1 0 0 forward_v I I I I #
coedge $-1 $142 $143 $144 $145 reversed $56 $-1 #
face $-1 $-1 $146 $30 $-1 $147 forward single #
loop $-1 $148 $149 $58 #
cone-surface $-1 4.0317555968944134 31.958078857210367 7.1147627142016265 0 -0.69465837861970381 -0.71933979245794832 0.25 0 0 1 I I -0.70710678118654746 0.70710678118654746 0.25 forward I I I I #
loop $-1 $-1 $150 $38 #
coedge $-1 $94 $94 $151 $152 reversed $59 $-1 #
face $-1 $-1 $153 $31 $-1 $154 forward single #
loop $-1 $155 $156 $61 #
cone-surface $-1 10.079388992236026 31.958078857210367 7.1147627142016265 0 -0.69465837861970381 -0.71933979245794832 0.25 0 0 1 I I -0.70710678118654746 0.70710678118654746 0.25 forward I I I I #
loop $-1 $-1 $157 $39 #
coedge $-1 $99 $99 $158 $159 reversed $62 $-1 #
face $-1 $160 $161 $24 $-1 $162 reversed single #
loop $-1 $-1 $163 $64 #
plane-surface $-1 0 -35.228367361291333 0 0 1 0 0 0 1 forward_v I I I I #
coedge $-1 $164 $165 $166 $167 forward $65 $-1 #
coedge $-1 $168 $67 $169 $170 forward $41 $-1 #
coedge $-1 $67 $168 $171 $172 forward $41 $-1 #
coedge $-1 $173 $174 $67 $107 reversed $175 $-1 #
edge $-1 $176 -35.228367361291333 $177 35.228367361291333 $106 $178 forward 7 unknown #
face $-1 $179 $180 $25 $-1 $181 reversed single #
loop $-1 $-1 $182 $68 #
plane-surface $-1 0 -23.753813905978333 -7.479744105284138 0 -1 0 0 0 -1 forward_v I I I I #
coedge $-1 $183 $184 $185 $186 reversed $69 $-1 #
coedge $-1 $187 $71 $188 $189 forward $44 $-1 #
coedge $-1 $71 $187 $190 $191 reversed $44 $-1 #
coedge $-1 $192 $193 $71 $115 forward $194 $-1 #
edge $-1 $195 9.0082685891609167 $196 20.482822044473917 $114 $197 forward 7 unknown #
face $-1 $198 $199 $26 $-1 $200 forward single #
loop $-1 $-1 $122 $72 #
plane-surface $-1 0 35.228367361291333 0 0 -1 0 0 0 -1 forward_v I I I I #
coedge $-1 $201 $202 $203 $204 reversed $73 $-1 #
coedge $-1 $121 $75 $205 $206 reversed $47 $-1 #
coedge $-1 $75 $120 $201 $207 reversed $47 $-1 #
coedge $-1 $203 $208 $75 $123 forward $117 $-1 #
edge $-1 $209 54.627202857654574 $210 58.870857625122838 $122 $211 forward 7 unknown #
loop $-1 $-1 $129 $76 #
plane-surface $-1 -45.007784131106952 -15.453965571316004 55.047494972024467 0 0.69465837861970381 0.71933979245794832 1 0 0 forward_v I I I I #
loop $-1 $-1 $212 $49 #
coedge $-1 $127 $127 $128 $213 reversed $77 $-1 #
coedge $-1 $128 $128 $127 $213 forward $79 $-1 #
coedge $-1 $129 $129 $80 $130 forward $124 $-1 #
edge $-1 $214 -3.5074398622107038e-016 $214 6.2831853071796004 $129 $215 forward 7 unknown #
loop $-1 $-1 $136 $81 #
plane-surface $-1 -45.007784131106952 -15.453965571316004 55.047494972024467 0 0.69465837861970381 0.71933979245794832 1 0 0 forward_v I I I I #
loop $-1 $-1 $216 $52 #
coedge $-1 $134 $134 $135 $217 reversed $82 $-1 #
coedge $-1 $135 $135 $134 $217 forward $84 $-1 #
coedge $-1 $136 $136 $85 $137 forward $131 $-1 #
edge $-1 $218 -3.5074398622107038e-016 $218 6.2831853071796004 $136 $219 forward 7 unknown #
face $-1 $220 $221 $29 $-1 $222 forward single #
loop $-1 $-1 $223 $86 #
plane-surface $-1 -2.6645352591003757e-015 56.878527948998325 129.94998298383888 1 0 0 0 -0.69465837861970381 -0.71933979245794832 forward_v I I I I #
coedge $-1 $224 $225 $226 $227 reversed $87 $-1 #
coedge $-1 $143 $89 $228 $229 reversed $56 $-1 #
coedge $-1 $89 $142 $224 $230 reversed $56 $-1 #
coedge $-1 $226 $231 $89 $145 forward $232 $-1 #
edge $-1 $233 54.627202857654574 $234 58.870857625122838 $144 $235 forward 7 unknown #
loop $-1 $-1 $151 $90 #
plane-surface $-1 7.0555722945652164 -15.453965571316004 55.047494972024467 0 0.69465837861970381 0.71933979245794832 1 0 0 forward_v I I I I #
loop $-1 $-1 $236 $58 #
coedge $-1 $149 $149 $150 $237 reversed $91 $-1 #
coedge $-1 $150 $150 $149 $237 forward $93 $-1 #
coedge $-1 $151 $151 $94 $152 forward $146 $-1 #
edge $-1 $238 -3.5074398622107038e-016 $238 6.2831853071796004 $151 $239 forward 7 unknown #
loop $-1 $-1 $158 $95 #
plane-surface $-1 7.0555722945652164 -15.453965571316004 55.047494972024467 0 0.69465837861970381 0.71933979245794832 1 0 0 forward_v I I I I #
loop $-1 $-1 $240 $61 #
coedge $-1 $156 $156 $157 $241 reversed $96 $-1 #
coedge $-1 $157 $157 $156 $241 forward $98 $-1 #
coedge $-1 $158 $158 $99 $159 forward $153 $-1 #
edge $-1 $242 -3.5074398622107038e-016 $242 6.2831853071796004 $158 $243 forward 7 unknown #
face $-1 $244 $245 $24 $-1 $246 reversed single #
loop $-1 $-1 $247 $100 #
plane-surface $-1 -52.063356425672168 0 0 1 0 0 0 0 -1 forward_v I I I I #
coedge $-1 $248 $171 $249 $250 forward $101 $-1 #
coedge $-1 $251 $103 $248 $252 forward $65 $-1 #
coedge $-1 $103 $251 $253 $254 forward $65 $-1 #
coedge $-1 $174 $173 $103 $167 reversed $175 $-1 #
edge $-1 $255 -35.228367361291333 $256 35.228367361291333 $166 $257 forward 7 unknown #
coedge $-1 $105 $104 $258 $259 forward $41 $-1 #
coedge $-1 $260 $261 $104 $170 reversed $245 $-1 #
edge $-1 $177 -52.063356425672168 $262 52.063356425672168 $169 $263 forward 7 unknown #
coedge $-1 $163 $264 $105 $172 reversed $101 $-1 #
edge $-1 $265 -52.063356425672168 $176 52.063356425672168 $171 $266 forward 7 unknown #
coedge $-1 $166 $106 $264 $267 forward $175 $-1 #
coedge $-1 $106 $166 $260 $268 reversed $175 $-1 #
loop $-1 $-1 $173 $244 #
vertex $-1 $107 $269 #
vertex $-1 $107 $270 #
straight-curve $-1 52.063356425672168 0 10.347788634264864 0 1 0 I I #
face $-1 $271 $272 $25 $-1 $273 reversed single #
loop $-1 $-1 $274 $108 #
plane-surface $-1 -52.063356425672168 0 0 1 0 0 0 0 -1 forward_v I I I I #
coedge $-1 $275 $188 $193 $276 reversed $109 $-1 #
coedge $-1 $277 $111 $278 $279 reversed $69 $-1 #
coedge $-1 $111 $277 $275 $280 forward $69 $-1 #
coedge $-1 $193 $192 $111 $186 forward $194 $-1 #
edge $-1 $281 -20.482822044473917 $282 -9.0082685891609167 $185 $283 forward 7 unknown #
coedge $-1 $113 $112 $274 $284 reversed $44 $-1 #
coedge $-1 $182 $285 $112 $189 reversed $109 $-1 #
edge $-1 $195 -52.063356425672168 $286 52.063356425672168 $188 $287 forward 7 unknown #
coedge $-1 $288 $289 $113 $191 forward $272 $-1 #
edge $-1 $196 -52.063356425672168 $290 52.063356425672168 $190 $291 forward 7 unknown #
coedge $-1 $185 $114 $289 $292 forward $194 $-1 #
coedge $-1 $114 $185 $182 $276 forward $194 $-1 #
loop $-1 $-1 $114 $271 #
vertex $-1 $115 $293 #
vertex $-1 $292 $294 #
straight-curve $-1 52.063356425672168 -14.745545316817417 -5.4223446432225462 0 -1 0 I I #
face $-1 $-1 $295 $26 $-1 $296 reversed single #
loop $-1 $-1 $205 $116 #
plane-surface $-1 0 0 10.347788634264864 0 0 1 1 0 0 forward_v I I I I #
coedge $-1 $297 $119 $121 $207 forward $73 $-1 #
coedge $-1 $119 $297 $298 $299 reversed $73 $-1 #
coedge $-1 $300 $122 $119 $204 forward $117 $-1 #
edge $-1 $210 15.44831977098826 $301 29.559464360118692 $203 $302 forward 7 unknown #
coedge $-1 $303 $304 $120 $206 forward $199 $-1 #
edge $-1 $305 2.3946703335848909 $209 6.7891033867921706 $205 $306 forward 7 unknown #
edge $-1 $210 -70.456734722582667 $305 -64.347753821926915 $121 $307 forward 7 unknown #
coedge $-1 $122 $300 $303 $308 reversed $117 $-1 #
vertex $-1 $308 $309 #
vertex $-1 $123 $310 #
straight-curve $-1 -37.952211836541736 35.228367361291333 64.97499149191944 0 0 -1 I I #
coedge $-1 $212 $212 $-1 $311 reversed $126 $-1 #
edge $-1 $312 0 $312 6.2831853071796004 $127 $313 forward 7 unknown #
vertex $-1 $130 $314 #
ellipse-curve $-1 -48.031600828777755 33.031150834687679 8.2259612505307409 0 0.69465837861970381 0.71933979245794832 0.5 0 0 1 I I #
coedge $-1 $216 $216 $-1 $315 reversed $133 $-1 #
edge $-1 $316 0 $316 6.2831853071796004 $134 $317 forward 7 unknown #
vertex $-1 $137 $318 #
ellipse-curve $-1 -41.983967433436142 33.031150834687679 8.2259612505307409 0 0.69465837861970381 0.71933979245794832 0.5 0 0 1 I I #
face $-1 $-1 $232 $29 $-1 $319 reversed single #
loop $-1 $-1 $320 $138 #
plane-surface $-1 0 0 10.347788634264864 0 0 1 1 0 0 forward_v I I I I #
coedge $-1 $321 $322 $323 $324 reversed $139 $-1 #
coedge $-1 $325 $141 $143 $230 forward $87 $-1 #
coedge $-1 $141 $325 $321 $326 forward $87 $-1 #
coedge $-1 $323 $144 $141 $227 forward $232 $-1 #
edge $-1 $234 -10.583358441847828 $327 3.5277861472826109 $226 $328 forward 7 unknown #
coedge $-1 $329 $330 $142 $229 forward $221 $-1 #
edge $-1 $331 2.3946703335848909 $233 6.7891033867921706 $228 $332 forward 7 unknown #
edge $-1 $234 -70.456734722582667 $331 -64.347753821926915 $143 $333 forward 7 unknown #
coedge $-1 $144 $323 $329 $334 reversed $232 $-1 #
loop $-1 $-1 $323 $220 #
vertex $-1 $334 $335 #
vertex $-1 $145 $336 #
straight-curve $-1 14.111144589130436 35.228367361291333 64.97499149191944 0 0 -1 I I #
coedge $-1 $236 $236 $-1 $337 reversed $148 $-1 #
edge $-1 $338 0 $338 6.2831853071796004 $149 $339 forward 7 unknown #
vertex $-1 $152 $340 #
ellipse-curve $-1 4.0317555968944134 33.031150834687679 8.2259612505307409 0 0.69465837861970381 0.71933979245794832 0.5 0 0 1 I I #
coedge $-1 $240 $240 $-1 $341 reversed $155 $-1 #
edge $-1 $342 0 $342 6.2831853071796004 $156 $343 forward 7 unknown #
vertex $-1 $159 $344 #
ellipse-curve $-1 10.079388992236026 33.031150834687679 8.2259612505307409 0 0.69465837861970381 0.71933979245794832 0.5 0 0 1 I I #
face $-1 $-1 $175 $24 $-1 $345 reversed single #
loop $-1 $-1 $260 $160 #
plane-surface $-1 0 35.228367361291333 0 0 -1 0 0 0 -1 forward_v I I I I #
coedge $-1 $346 $258 $261 $347 forward $161 $-1 #
coedge $-1 $264 $163 $164 $252 reversed $101 $-1 #
coedge $-1 $258 $346 $163 $250 reversed $161 $-1 #
edge $-1 $265 -10.347788634264864 $348 10.347788634264864 $249 $349 forward 7 unknown #
coedge $-1 $165 $164 $346 $350 forward $65 $-1 #
edge $-1 $256 -52.063356425672168 $348 52.063356425672168 $248 $351 forward 7 unknown #
coedge $-1 $261 $260 $165 $254 reversed $245 $-1 #
edge $-1 $352 -52.063356425672168 $255 52.063356425672168 $253 $353 forward 7 unknown #
vertex $-1 $167 $354 #
vertex $-1 $267 $355 #
straight-curve $-1 52.063356425672168 0 -10.347788634264864 0 -1 0 I I #
coedge $-1 $247 $249 $168 $259 reversed $161 $-1 #
edge $-1 $262 -35.228367361291333 $265 35.228367361291333 $258 $356 forward 7 unknown #
coedge $-1 $253 $169 $174 $268 forward $245 $-1 #
coedge $-1 $169 $253 $247 $347 reversed $245 $-1 #
vertex $-1 $170 $357 #
straight-curve $-1 0 35.228367361291333 10.347788634264864 -1 0 0 I I #
coedge $-1 $171 $248 $173 $267 reversed $101 $-1 #
vertex $-1 $259 $358 #
straight-curve $-1 0 -35.228367361291333 10.347788634264864 1 0 0 I I #
edge $-1 $176 -10.347788634264864 $256 10.347788634264864 $173 $359 forward 7 unknown #
edge $-1 $177 -10.347788634264864 $255 10.347788634264864 $174 $360 forward 7 unknown #
point $-1 52.063356425672168 -35.228367361291333 10.347788634264864 #
point $-1 52.063356425672168 35.228367361291333 10.347788634264864 #
face $-1 $-1 $194 $25 $-1 $361 reversed single #
loop $-1 $-1 $190 $179 #
plane-surface $-1 0 -35.228367361291333 0 0 1 0 0 0 1 forward_v I I I I #
coedge $-1 $362 $363 $187 $284 forward $180 $-1 #
coedge $-1 $285 $182 $184 $280 reversed $109 $-1 #
edge $-1 $282 -5.7972715147036613 $195 -1.6824725905804772 $193 $364 forward 7 unknown #
coedge $-1 $184 $183 $365 $366 reversed $69 $-1 #
coedge $-1 $289 $288 $183 $279 forward $272 $-1 #
edge $-1 $367 -52.063356425672168 $281 52.063356425672168 $278 $368 forward 7 unknown #
edge $-1 $369 -52.063356425672168 $282 52.063356425672168 $275 $370 forward 7 unknown #
vertex $-1 $279 $371 #
vertex $-1 $186 $372 #
straight-curve $-1 52.063356425672168 -14.745545316817417 -9.5371435673457299 0 1 0 I I #
edge $-1 $290 -20.482822044473917 $286 -9.0082685891609167 $274 $373 forward 7 unknown #
coedge $-1 $188 $275 $362 $374 reversed $109 $-1 #
vertex $-1 $284 $375 #
straight-curve $-1 0 -23.753813905978333 -5.4223446432225462 -1 0 0 I I #
coedge $-1 $278 $190 $363 $376 forward $272 $-1 #
coedge $-1 $190 $278 $192 $292 reversed $272 $-1 #
vertex $-1 $376 $377 #
straight-curve $-1 0 -35.228367361291333 -5.4223446432225462 -1 0 0 I I #
edge $-1 $196 5.4223446432225462 $281 9.5371435673457299 $192 $378 forward 7 unknown #
point $-1 52.063356425672168 -23.753813905978333 -5.4223446432225462 #
point $-1 52.063356425672168 -35.228367361291333 -5.4223446432225462 #
loop $-1 $-1 $298 $198 #
plane-surface $-1 -52.063356425672168 0 0 1 0 0 0 0 -1 forward_v I I I I #
coedge $-1 $202 $201 $304 $379 reversed $73 $-1 #
coedge $-1 $380 $381 $202 $299 forward $295 $-1 #
edge $-1 $301 -45.77880672704989 $382 -39.669825826394138 $298 $383 forward 7 unknown #
coedge $-1 $208 $203 $381 $384 reversed $117 $-1 #
vertex $-1 $204 $385 #
straight-curve $-1 -22.503892065553476 35.228367361291333 6.1041338667966052 -1 0 0 I I #
coedge $-1 $386 $205 $208 $308 forward $199 $-1 #
coedge $-1 $205 $386 $297 $379 forward $199 $-1 #
vertex $-1 $206 $387 #
straight-curve $-1 -37.952211836541736 28.439263974499163 10.347788634264866 0 1 0 I I #
straight-curve $-1 -37.952211836541736 -15.453965571316004 55.047494972024467 0 -0.71933979245794832 0.69465837861970381 I I #
edge $-1 $209 37.952211836541736 $388 52.063356425672168 $208 $389 forward 7 unknown #
point $-1 -37.952211836541736 35.228367361291333 10.347788634264864 #
point $-1 -37.952211836541736 35.228367361291333 6.1041338667966016 #
edge $-1 $390 1 $390 0 $212 $-1 forward 7 unknown #
vertex $-1 $213 $391 #
ellipse-curve $-1 -48.031600828777755 32.13174345186529 7.2945976623161135 0 0.69465837861970381 0.71933979245794832 0.5 0 0 1 I I #
point $-1 -47.531600828777755 33.031150834687672 8.2259612505307338 #
edge $-1 $392 1 $392 0 $216 $-1 forward 7 unknown #
vertex $-1 $217 $393 #
ellipse-curve $-1 -41.983967433436142 32.13174345186529 7.2945976623161135 0 0.69465837861970381 0.71933979245794832 0.5 0 0 1 I I #
point $-1 -41.483967433436142 33.031150834687672 8.2259612505307338 #
plane-surface $-1 0 35.228367361291333 0 0 -1 0 0 0 -1 forward_v I I I I #
coedge $-1 $330 $329 $322 $394 forward $221 $-1 #
coedge $-1 $322 $223 $225 $326 reversed $139 $-1 #
coedge $-1 $223 $321 $320 $394 reversed $139 $-1 #
coedge $-1 $231 $226 $223 $324 forward $232 $-1 #
edge $-1 $327 -58.870857625122838 $395 -54.627202857654574 $323 $396 forward 7 unknown #
coedge $-1 $225 $224 $330 $397 reversed $87 $-1 #
edge $-1 $398 64.347753821926915 $327 70.456734722582667 $321 $399 forward 7 unknown #
vertex $-1 $227 $400 #
straight-curve $-1 3.5277861472826082 35.228367361291333 6.1041338667966052 -1 0 0 I I #
coedge $-1 $320 $228 $231 $334 forward $221 $-1 #
coedge $-1 $228 $320 $325 $397 forward $221 $-1 #
vertex $-1 $229 $401 #
straight-curve $-1 14.111144589130436 28.439263974499163 10.347788634264866 0 1 0 I I #
straight-curve $-1 14.111144589130436 -15.453965571316004 55.047494972024467 0 -0.71933979245794832 0.69465837861970381 I I #
edge $-1 $233 -14.111144589130436 $395 2.6645352591003757e-015 $231 $402 forward 7 unknown #
point $-1 14.111144589130436 35.228367361291333 10.347788634264864 #
point $-1 14.111144589130436 35.228367361291333 6.1041338667966016 #
edge $-1 $403 1 $403 0 $236 $-1 forward 7 unknown #
vertex $-1 $237 $404 #
ellipse-curve $-1 4.0317555968944134 32.13174345186529 7.2945976623161135 0 0.69465837861970381 0.71933979245794832 0.5 0 0 1 I I #
point $-1 4.5317555968944134 33.031150834687672 8.2259612505307338 #
edge $-1 $405 1 $405 0 $240 $-1 forward 7 unknown #
vertex $-1 $241 $406 #
ellipse-curve $-1 10.079388992236026 32.13174345186529 7.2945976623161135 0 0.69465837861970381 0.71933979245794832 0.5 0 0 1 I I #
point $-1 10.579388992236026 33.031150834687672 8.2259612505307338 #
plane-surface $-1 52.063356425672168 0 0 -1 0 0 0 0 1 forward_v I I I I #
coedge $-1 $249 $247 $251 $350 reversed $161 $-1 #
edge $-1 $262 -10.347788634264864 $352 10.347788634264864 $261 $407 forward 7 unknown #
vertex $-1 $350 $408 #
straight-curve $-1 -52.063356425672168 -35.228367361291333 0 0 0 -1 I I #
edge $-1 $348 -35.228367361291333 $352 35.228367361291333 $346 $409 forward 7 unknown #
straight-curve $-1 0 -35.228367361291333 -10.347788634264864 -1 0 0 I I #
vertex $-1 $254 $410 #
straight-curve $-1 0 35.228367361291333 -10.347788634264864 1 0 0 I I #
point $-1 52.063356425672168 35.228367361291333 -10.347788634264864 #
point $-1 52.063356425672168 -35.228367361291333 -10.347788634264864 #
straight-curve $-1 -52.063356425672168 0 10.347788634264864 0 -1 0 I I #
point $-1 -52.063356425672168 35.228367361291333 10.347788634264864 #
point $-1 -52.063356425672168 -35.228367361291333 10.347788634264864 #
straight-curve $-1 52.063356425672168 -35.228367361291333 0 0 0 -1 I I #
straight-curve $-1 52.063356425672168 35.228367361291333 0 0 0 -1 I I #
plane-surface $-1 52.063356425672168 0 0 -1 0 0 0 0 1 forward_v I I I I #
coedge $-1 $365 $274 $285 $374 forward $180 $-1 #
coedge $-1 $274 $365 $288 $376 reversed $180 $-1 #
straight-curve $-1 52.063356425672168 -23.753813905978333 -3.739872052642069 0 0 1 I I #
coedge $-1 $363 $362 $277 $366 forward $180 $-1 #
edge $-1 $369 9.0082685891609167 $367 20.482822044473917 $365 $411 forward 7 unknown #
vertex $-1 $279 $412 #
straight-curve $-1 0 -35.228367361291333 -9.5371435673457299 1 0 0 I I #
vertex $-1 $366 $413 #
straight-curve $-1 0 -23.753813905978333 -9.5371435673457299 1 0 0 I I #
point $-1 52.063356425672168 -35.228367361291333 -9.5371435673457299 #
point $-1 52.063356425672168 -23.753813905978333 -9.5371435673457299 #
straight-curve $-1 -52.063356425672168 -14.745545316817417 -5.4223446432225462 0 1 0 I I #
edge $-1 $286 1.6824725905804772 $369 5.7972715147036613 $362 $414 forward 7 unknown #
point $-1 -52.063356425672168 -23.753813905978333 -5.4223446432225462 #
edge $-1 $290 5.4223446432225462 $367 9.5371435673457299 $363 $415 forward 7 unknown #
point $-1 -52.063356425672168 -35.228367361291333 -5.4223446432225462 #
straight-curve $-1 52.063356425672168 -35.228367361291333 0 0 0 -1 I I #
edge $-1 $382 -29.559464360118692 $305 -15.44831977098826 $304 $416 forward 7 unknown #
coedge $-1 $381 $298 $386 $417 reversed $295 $-1 #
coedge $-1 $298 $380 $300 $384 forward $295 $-1 #
vertex $-1 $299 $418 #
straight-curve $-1 -52.063356425672168 2.297850031282735 37.904765522953873 0 -0.71933979245794832 0.69465837861970381 I I #
edge $-1 $388 -10.347788634264864 $301 -6.104133866796607 $300 $419 forward 7 unknown #
point $-1 -52.063356425672168 35.228367361291333 6.104133866796607 #
coedge $-1 $304 $303 $380 $417 forward $199 $-1 #
point $-1 -37.952211836541736 30.833934308084054 10.347788634264866 #
vertex $-1 $308 $420 #
straight-curve $-1 0 35.228367361291333 10.347788634264864 -1 0 0 I I #
vertex $-1 $311 $421 #
point $-1 -47.531600828777755 32.13174345186529 7.2945976623161135 #
vertex $-1 $315 $422 #
point $-1 -41.483967433436142 32.13174345186529 7.2945976623161135 #
edge $-1 $395 -6.7891033867921706 $398 -2.3946703335848909 $320 $423 forward 7 unknown #
vertex $-1 $394 $424 #
straight-curve $-1 -2.6645352591003757e-015 35.228367361291333 64.97499149191944 0 0 1 I I #
edge $-1 $398 -3.5277861472826109 $331 10.583358441847828 $330 $425 forward 7 unknown #
vertex $-1 $397 $426 #
straight-curve $-1 -2.6645352591003757e-015 -15.453965571316004 55.047494972024467 0 0.71933979245794832 -0.69465837861970381 I I #
point $-1 -2.6645352591003757e-015 35.228367361291333 6.1041338667966016 #
point $-1 14.111144589130436 30.833934308084054 10.347788634264866 #
straight-curve $-1 0 35.228367361291333 10.347788634264864 -1 0 0 I I #
vertex $-1 $337 $427 #
point $-1 4.5317555968944134 32.13174345186529 7.2945976623161135 #
vertex $-1 $341 $428 #
point $-1 10.579388992236026 32.13174345186529 7.2945976623161135 #
straight-curve $-1 -52.063356425672168 35.228367361291333 0 0 0 -1 I I #
point $-1 -52.063356425672168 -35.228367361291333 -10.347788634264864 #
straight-curve $-1 -52.063356425672168 0 -10.347788634264864 0 1 0 I I #
point $-1 -52.063356425672168 35.228367361291333 -10.347788634264864 #
straight-curve $-1 -52.063356425672168 -14.745545316817417 -9.5371435673457299 0 -1 0 I I #
point $-1 -52.063356425672168 -35.228367361291333 -9.5371435673457299 #
point $-1 -52.063356425672168 -23.753813905978333 -9.5371435673457299 #
straight-curve $-1 -52.063356425672168 -23.753813905978333 -3.739872052642069 0 0 -1 I I #
straight-curve $-1 -52.063356425672168 -35.228367361291333 0 0 0 -1 I I #
straight-curve $-1 -22.503892065553476 30.833934308084057 10.347788634264866 1 0 0 I I #
edge $-1 $388 -35.228367361291333 $382 -30.833934308084054 $380 $429 forward 7 unknown #
point $-1 -52.063356425672168 30.833934308084054 10.347788634264866 #
straight-curve $-1 -52.063356425672168 35.228367361291333 0 0 0 -1 I I #
point $-1 -52.063356425672168 35.228367361291333 10.347788634264864 #
point $-1 -48.031600828777755 31.78441426255544 6.9349277660871396 #
point $-1 -41.983967433436142 31.78441426255544 6.9349277660871396 #
straight-curve $-1 -2.6645352591003757e-015 28.439263974499163 10.347788634264866 0 -1 0 I I #
point $-1 -2.6645352591003757e-015 35.228367361291333 10.347788634264864 #
straight-curve $-1 3.5277861472826082 30.833934308084057 10.347788634264866 1 0 0 I I #
point $-1 -2.6645352591003757e-015 30.833934308084054 10.347788634264866 #
point $-1 4.0317555968944134 31.78441426255544 6.9349277660871396 #
point $-1 10.079388992236026 31.78441426255544 6.9349277660871396 #
straight-curve $-1 -52.063356425672168 0 10.347788634264864 0 -1 0 I I #
End-of-ACIS-data 