500 0 12 0           
7 Unknown 11 ACIS 5.0 NT 24 Fri Mar 26 16:51:04 1999 
-1 9.9999999999999995e-007 1e-010 
body $-1 $12 $-1 $13 #
body $-1 $14 $-1 $15 #
body $-1 $16 $-1 $17 #
body $-1 $18 $-1 $19 #
body $-1 $20 $-1 $21 #
body $-1 $22 $-1 $23 #
body $-1 $24 $-1 $25 #
body $-1 $26 $-1 $27 #
body $-1 $28 $-1 $29 #
body $-1 $30 $-1 $31 #
body $-1 $32 $-1 $33 #
body $-1 $34 $-1 $35 #
lump $-1 $-1 $36 $0 #
transform $-1 1 0 0 0 1 0 0 0 1 75.70299386577959 49.760157532919116 18.516968439646472 1 rotate no_reflect no_shear #
lump $-1 $-1 $37 $1 #
transform $-1 1 0 0 0 1 0 0 0 1 75.70299386577959 49.760157532919116 18.516968439646472 1 rotate no_reflect no_shear #
lump $-1 $-1 $38 $2 #
transform $-1 1 0 0 0 1 0 0 0 1 75.70299386577959 49.760157532919116 18.516968439646472 1 rotate no_reflect no_shear #
lump $-1 $-1 $39 $3 #
transform $-1 1 0 0 0 1 0 0 0 1 75.70299386577959 49.760157532919116 18.516968439646472 1 rotate no_reflect no_shear #
lump $-1 $-1 $40 $4 #
transform $-1 1 0 0 0 1 0 0 0 1 75.70299386577959 49.760157532919116 18.516968439646472 1 rotate no_reflect no_shear #
lump $-1 $-1 $41 $5 #
transform $-1 1 0 0 0 1 0 0 0 1 75.70299386577959 49.760157532919116 18.516968439646472 1 rotate no_reflect no_shear #
lump $-1 $-1 $42 $6 #
transform $-1 1 0 0 0 1 0 0 0 1 75.70299386577959 49.760157532919116 18.516968439646472 1 rotate no_reflect no_shear #
lump $-1 $-1 $43 $7 #
transform $-1 1 0 0 0 1 0 0 0 1 75.70299386577959 49.760157532919116 18.516968439646472 1 rotate no_reflect no_shear #
lump $-1 $-1 $44 $8 #
transform $-1 1 0 0 0 1 0 0 0 1 75.70299386577959 49.760157532919116 18.516968439646472 1 rotate no_reflect no_shear #
lump $-1 $-1 $45 $9 #
transform $-1 1 0 0 0 1 0 0 0 1 75.70299386577959 49.760157532919116 18.516968439646472 1 rotate no_reflect no_shear #
lump $-1 $-1 $46 $10 #
transform $-1 1 0 0 0 1 0 0 0 1 75.70299386577959 49.760157532919116 18.516968439646472 1 rotate no_reflect no_shear #
lump $-1 $-1 $47 $11 #
transform $-1 1 0 0 0 1 0 0 0 1 75.70299386577959 49.760157532919116 18.516968439646472 1 rotate no_reflect no_shear #
shell $-1 $-1 $-1 $48 $-1 $12 #
shell $-1 $-1 $-1 $49 $-1 $14 #
shell $-1 $-1 $-1 $50 $-1 $16 #
shell $-1 $-1 $-1 $51 $-1 $18 #
shell $-1 $-1 $-1 $52 $-1 $20 #
shell $-1 $-1 $-1 $53 $-1 $22 #
shell $-1 $-1 $-1 $54 $-1 $24 #
shell $-1 $-1 $-1 $55 $-1 $26 #
shell $-1 $-1 $-1 $56 $-1 $28 #
shell $-1 $-1 $-1 $57 $-1 $30 #
shell $-1 $-1 $-1 $58 $-1 $32 #
shell $-1 $-1 $-1 $59 $-1 $34 #
face $-1 $60 $61 $36 $-1 $62 forward single #
face $-1 $63 $64 $37 $-1 $65 forward single #
face $-1 $66 $67 $38 $-1 $68 reversed single #
face $-1 $69 $70 $39 $-1 $71 forward single #
face $-1 $72 $73 $40 $-1 $74 forward single #
face $-1 $75 $76 $41 $-1 $77 forward single #
face $-1 $78 $79 $42 $-1 $80 reversed single #
face $-1 $81 $82 $43 $-1 $83 forward single #
face $-1 $84 $85 $44 $-1 $86 forward single #
face $-1 $87 $88 $45 $-1 $89 forward single #
face $-1 $90 $91 $46 $-1 $92 reversed single #
face $-1 $93 $94 $47 $-1 $95 forward single #
face $-1 $96 $97 $36 $-1 $98 reversed single #
loop $-1 $-1 $99 $48 #
plane-surface $-1 0 0 18.516968439646472 0 0 1 1 0 0 forward_v I I I I #
face $-1 $100 $101 $37 $-1 $102 reversed single #
loop $-1 $-1 $103 $49 #
plane-surface $-1 0 -38.52882812799254 0.040851024611772146 0 0 1 1 0 0 forward_v I I I I #
face $-1 $104 $105 $38 $-1 $106 reversed single #
loop $-1 $-1 $107 $50 #
plane-surface $-1 116.55909555740793 -13.651130987677636 213.87776509532503 0 1 0 0.82903758062907751 0 0.55919289150049634 forward_v I I I I #
face $-1 $108 $109 $39 $-1 $110 forward single #
loop $-1 $111 $112 $51 #
cone-surface $-1 69.55058464323362 -10.862714788474662 10.326853819464873 -0.82903758062907751 0 -0.55919289150049634 0.55919289150049634 0 -0.82903758062907751 1 I I 0 1 1 forward I I I I #
face $-1 $113 $114 $40 $-1 $115 forward single #
loop $-1 $116 $117 $52 #
cone-surface $-1 69.55058464323362 -6.6800904896701923 10.326853819464873 -0.82903758062907751 0 -0.55919289150049634 0.55919289150049634 0 -0.82903758062907751 1 I I 0 1 1 forward I I I I #
face $-1 $118 $119 $41 $-1 $120 forward single #
loop $-1 $121 $122 $53 #
cone-surface $-1 69.55058464323362 -2.4974661908657225 10.326853819464873 -0.82903758062907751 0 -0.55919289150049634 0.55919289150049634 0 -0.82903758062907751 1 I I 0 1 1 forward I I I I #
face $-1 $123 $124 $42 $-1 $125 reversed single #
loop $-1 $-1 $126 $54 #
plane-surface $-1 116.55909555740793 24.877697140314904 213.87776509532503 0 1 0 0.82903758062907751 0 0.55919289150049634 forward_v I I I I #
face $-1 $127 $128 $43 $-1 $129 forward single #
loop $-1 $130 $131 $55 #
cone-surface $-1 69.55058464323362 27.666113339517871 10.326853819464873 -0.82903758062907751 0 -0.55919289150049634 0.55919289150049634 0 -0.82903758062907751 1 I I 0 1 1 forward I I I I #
face $-1 $132 $133 $44 $-1 $134 forward single #
loop $-1 $135 $136 $56 #
cone-surface $-1 69.55058464323362 31.848737638322355 10.326853819464873 -0.82903758062907751 0 -0.55919289150049634 0.55919289150049634 0 -0.82903758062907751 1 I I 0 1 1 forward I I I I #
face $-1 $137 $138 $45 $-1 $139 forward single #
loop $-1 $140 $141 $57 #
cone-surface $-1 69.55058464323362 36.03136193712681 10.326853819464873 -0.82903758062907751 0 -0.55919289150049634 0.55919289150049634 0 -0.82903758062907751 1 I I 0 1 1 forward I I I I #
face $-1 $142 $143 $46 $-1 $144 reversed single #
loop $-1 $-1 $145 $58 #
plane-surface $-1 -178.96163043001098 29.225951254334404 111.04624233762824 0 1 0 -0.68199836817093118 0 0.7313536940579346 forward_v I I I I #
face $-1 $146 $147 $47 $-1 $148 forward single #
loop $-1 $149 $150 $59 #
cone-surface $-1 -63.755102146668449 39.493054393626757 7.0693464098742504 0.68199836817093118 0 -0.7313536940579346 2.1940610821738038 0 2.0459951045127935 1 I I 0 1 3 forward I I I I #
face $-1 $151 $152 $36 $-1 $153 reversed single #
loop $-1 $-1 $154 $60 #
plane-surface $-1 0 0 -18.516968439646472 0 0 1 1 0 0 forward_v I I I I #
coedge $-1 $155 $156 $157 $158 forward $61 $-1 #
face $-1 $159 $160 $37 $-1 $161 reversed single #
loop $-1 $-1 $162 $63 #
plane-surface $-1 0 -38.52882812799254 -5.9338338878002972 0 0 1 1 0 0 forward_v I I I I #
coedge $-1 $163 $164 $165 $166 reversed $64 $-1 #
face $-1 $167 $168 $38 $-1 $169 reversed single #
loop $-1 $-1 $170 $66 #
plane-surface $-1 -8.9621582043196781 -6.6800904896701851 129.21261302522578 0.82903758062907751 0 0.55919289150049634 0.55919289150049634 0 -0.82903758062907751 forward_v I I I I #
coedge $-1 $171 $172 $173 $174 reversed $67 $-1 #
face $-1 $-1 $175 $39 $-1 $176 forward single #
loop $-1 $177 $178 $69 #
cone-surface $-1 67.983656302991008 -10.862714788474662 9.2699473416071818 -0.82903758062907751 0 -0.55919289150049634 0.27959644575024817 0 -0.41451879031453875 1 I I -0.70710678118654746 0.70710678118654746 0.5 forward I I I I #
loop $-1 $-1 $179 $51 #
coedge $-1 $112 $112 $180 $181 reversed $70 $-1 #
face $-1 $-1 $182 $40 $-1 $183 forward single #
loop $-1 $184 $185 $72 #
cone-surface $-1 67.983656302991008 -6.6800904896701923 9.2699473416071818 -0.82903758062907751 0 -0.55919289150049634 0.27959644575024817 0 -0.41451879031453875 1 I I -0.70710678118654746 0.70710678118654746 0.5 forward I I I I #
loop $-1 $-1 $186 $52 #
coedge $-1 $117 $117 $187 $188 reversed $73 $-1 #
face $-1 $-1 $189 $41 $-1 $190 forward single #
loop $-1 $191 $192 $75 #
cone-surface $-1 67.983656302991008 -2.4974661908657225 9.2699473416071818 -0.82903758062907751 0 -0.55919289150049634 0.27959644575024817 0 -0.41451879031453875 1 I I -0.70710678118654746 0.70710678118654746 0.5 forward I I I I #
loop $-1 $-1 $193 $53 #
coedge $-1 $122 $122 $194 $195 reversed $76 $-1 #
face $-1 $196 $197 $42 $-1 $198 reversed single #
loop $-1 $-1 $199 $78 #
plane-surface $-1 -8.9621582043196781 31.848737638322355 129.21261302522578 0.82903758062907751 0 0.55919289150049634 0.55919289150049634 0 -0.82903758062907751 forward_v I I I I #
coedge $-1 $200 $201 $202 $203 reversed $79 $-1 #
face $-1 $-1 $204 $43 $-1 $205 forward single #
loop $-1 $206 $207 $81 #
cone-surface $-1 67.983656302991008 27.666113339517871 9.2699473416071818 -0.82903758062907751 0 -0.55919289150049634 0.27959644575024817 0 -0.41451879031453875 1 I I -0.70710678118654746 0.70710678118654746 0.5 forward I I I I #
loop $-1 $-1 $208 $55 #
coedge $-1 $131 $131 $209 $210 reversed $82 $-1 #
face $-1 $-1 $211 $44 $-1 $212 forward single #
loop $-1 $213 $214 $84 #
cone-surface $-1 67.983656302991008 31.848737638322355 9.2699473416071818 -0.82903758062907751 0 -0.55919289150049634 0.27959644575024817 0 -0.41451879031453875 1 I I -0.70710678118654746 0.70710678118654746 0.5 forward I I I I #
loop $-1 $-1 $215 $56 #
coedge $-1 $136 $136 $216 $217 reversed $85 $-1 #
face $-1 $-1 $218 $45 $-1 $219 forward single #
loop $-1 $220 $221 $87 #
cone-surface $-1 67.983656302991008 36.03136193712681 9.2699473416071818 -0.82903758062907751 0 -0.55919289150049634 0.27959644575024817 0 -0.41451879031453875 1 I I -0.70710678118654746 0.70710678118654746 0.5 forward I I I I #
loop $-1 $-1 $222 $57 #
coedge $-1 $141 $141 $223 $224 reversed $88 $-1 #
face $-1 $225 $226 $46 $-1 $227 forward single #
loop $-1 $-1 $228 $90 #
plane-surface $-1 -75.702993865779604 39.493054393626757 0.3149139076621168 -0.68199836817093118 0 0.7313536940579346 0.7313536940579346 0 0.68199836817093118 forward_v I I I I #
coedge $-1 $229 $230 $231 $232 reversed $91 $-1 #
face $-1 $-1 $233 $47 $-1 $234 forward single #
loop $-1 $235 $236 $93 #
cone-surface $-1 -60.543869527495616 39.493054393626757 3.6257211050072975 0.68199836817093118 0 -0.7313536940579346 1.0970305410869019 0 1.0229975522563968 1 I I -0.70710678118654757 0.70710678118654757 1.5 forward I I I I #
loop $-1 $-1 $237 $59 #
coedge $-1 $150 $150 $238 $239 reversed $94 $-1 #
face $-1 $240 $241 $36 $-1 $242 reversed single #
loop $-1 $-1 $243 $96 #
plane-surface $-1 0 -49.760157532919116 0 0 1 0 0 0 1 forward_v I I I I #
coedge $-1 $244 $245 $246 $247 forward $97 $-1 #
coedge $-1 $248 $99 $249 $250 forward $61 $-1 #
coedge $-1 $99 $248 $251 $252 forward $61 $-1 #
coedge $-1 $253 $254 $99 $158 reversed $255 $-1 #
edge $-1 $256 -49.760157532919116 $257 49.760157532919116 $157 $258 forward 7 unknown #
face $-1 $259 $260 $37 $-1 $261 reversed single #
loop $-1 $-1 $262 $100 #
plane-surface $-1 0 -27.297498723065967 -2.9464914315942625 0 -1 0 0 0 -1 forward_v I I I I #
coedge $-1 $263 $264 $265 $266 reversed $101 $-1 #
coedge $-1 $267 $103 $268 $269 forward $64 $-1 #
coedge $-1 $103 $267 $270 $271 reversed $64 $-1 #
coedge $-1 $272 $273 $103 $166 forward $274 $-1 #
edge $-1 $275 8.0330846590696972 $276 30.495743468922839 $165 $277 forward 7 unknown #
face $-1 $278 $279 $38 $-1 $280 forward single #
loop $-1 $-1 $281 $104 #
plane-surface $-1 116.55909555740793 0.29095000833726559 213.87776509532503 0 -1 0 -0.82903758062907751 0 -0.55919289150049634 forward_v I I I I #
coedge $-1 $282 $283 $284 $285 reversed $105 $-1 #
coedge $-1 $172 $107 $286 $287 reversed $67 $-1 #
coedge $-1 $107 $171 $282 $288 reversed $67 $-1 #
coedge $-1 $284 $289 $107 $174 forward $290 $-1 #
edge $-1 $291 88.42191410801604 $292 103.24752328416437 $173 $293 forward 7 unknown #
loop $-1 $-1 $180 $108 #
plane-surface $-1 -8.9621582043196781 -6.6800904896701851 129.21261302522578 0.82903758062907751 0 0.55919289150049634 0.55919289150049634 0 -0.82903758062907751 forward_v I I I I #
loop $-1 $-1 $294 $69 #
coedge $-1 $178 $178 $179 $295 reversed $109 $-1 #
coedge $-1 $179 $179 $178 $295 forward $111 $-1 #
coedge $-1 $180 $180 $112 $181 forward $175 $-1 #
edge $-1 $296 0 $296 6.2831853071796004 $180 $297 forward 7 unknown #
loop $-1 $-1 $187 $113 #
plane-surface $-1 -8.9621582043196781 -6.6800904896701851 129.21261302522578 0.82903758062907751 0 0.55919289150049634 0.55919289150049634 0 -0.82903758062907751 forward_v I I I I #
loop $-1 $-1 $298 $72 #
coedge $-1 $185 $185 $186 $299 reversed $114 $-1 #
coedge $-1 $186 $186 $185 $299 forward $116 $-1 #
coedge $-1 $187 $187 $117 $188 forward $182 $-1 #
edge $-1 $300 0 $300 6.2831853071796004 $187 $301 forward 7 unknown #
loop $-1 $-1 $194 $118 #
plane-surface $-1 -8.9621582043196781 -6.6800904896701851 129.21261302522578 0.82903758062907751 0 0.55919289150049634 0.55919289150049634 0 -0.82903758062907751 forward_v I I I I #
loop $-1 $-1 $302 $75 #
coedge $-1 $192 $192 $193 $303 reversed $119 $-1 #
coedge $-1 $193 $193 $192 $303 forward $121 $-1 #
coedge $-1 $194 $194 $122 $195 forward $189 $-1 #
edge $-1 $304 0 $304 6.2831853071796004 $194 $305 forward 7 unknown #
face $-1 $306 $307 $42 $-1 $308 reversed single #
loop $-1 $-1 $309 $123 #
plane-surface $-1 116.55909555740793 38.819778136329802 213.87776509532503 0 -1 0 -0.82903758062907751 0 -0.55919289150049634 forward_v I I I I #
coedge $-1 $310 $311 $312 $313 reversed $124 $-1 #
coedge $-1 $201 $126 $314 $315 reversed $79 $-1 #
coedge $-1 $126 $200 $310 $316 reversed $79 $-1 #
coedge $-1 $312 $317 $126 $203 forward $307 $-1 #
edge $-1 $318 88.42191410801604 $319 103.24752328416437 $202 $320 forward 7 unknown #
loop $-1 $-1 $209 $127 #
plane-surface $-1 -8.9621582043196781 31.848737638322355 129.21261302522578 0.82903758062907751 0 0.55919289150049634 0.55919289150049634 0 -0.82903758062907751 forward_v I I I I #
loop $-1 $-1 $321 $81 #
coedge $-1 $207 $207 $208 $322 reversed $128 $-1 #
coedge $-1 $208 $208 $207 $322 forward $130 $-1 #
coedge $-1 $209 $209 $131 $210 forward $204 $-1 #
edge $-1 $323 0 $323 6.2831853071796004 $209 $324 forward 7 unknown #
loop $-1 $-1 $216 $132 #
plane-surface $-1 -8.9621582043196781 31.848737638322355 129.21261302522578 0.82903758062907751 0 0.55919289150049634 0.55919289150049634 0 -0.82903758062907751 forward_v I I I I #
loop $-1 $-1 $325 $84 #
coedge $-1 $214 $214 $215 $326 reversed $133 $-1 #
coedge $-1 $215 $215 $214 $326 forward $135 $-1 #
coedge $-1 $216 $216 $136 $217 forward $211 $-1 #
edge $-1 $327 0 $327 6.2831853071796004 $216 $328 forward 7 unknown #
loop $-1 $-1 $223 $137 #
plane-surface $-1 -8.9621582043196781 31.848737638322355 129.21261302522578 0.82903758062907751 0 0.55919289150049634 0.55919289150049634 0 -0.82903758062907751 forward_v I I I I #
loop $-1 $-1 $329 $87 #
coedge $-1 $221 $221 $222 $330 reversed $138 $-1 #
coedge $-1 $222 $222 $221 $330 forward $140 $-1 #
coedge $-1 $223 $223 $141 $224 forward $218 $-1 #
edge $-1 $331 0 $331 6.2831853071796004 $223 $332 forward 7 unknown #
face $-1 $333 $334 $46 $-1 $335 reversed single #
loop $-1 $-1 $231 $142 #
plane-surface $-1 0 0 18.516968439646472 0 0 1 1 0 0 forward_v I I I I #
coedge $-1 $336 $337 $338 $339 reversed $143 $-1 #
coedge $-1 $230 $145 $340 $341 reversed $91 $-1 #
coedge $-1 $145 $229 $336 $342 reversed $91 $-1 #
coedge $-1 $338 $343 $145 $232 forward $226 $-1 #
edge $-1 $344 13.777821349225903 $345 33.297134653615302 $231 $346 forward 7 unknown #
loop $-1 $-1 $238 $146 #
plane-surface $-1 -75.702993865779604 39.493054393626757 0.3149139076621168 -0.68199836817093118 0 0.7313536940579346 0.7313536940579346 0 0.68199836817093118 forward_v I I I I #
loop $-1 $-1 $347 $93 #
coedge $-1 $236 $236 $237 $348 reversed $147 $-1 #
coedge $-1 $237 $237 $236 $348 forward $149 $-1 #
coedge $-1 $238 $238 $150 $239 forward $233 $-1 #
edge $-1 $349 0 $349 6.2831853071796004 $238 $350 forward 7 unknown #
face $-1 $351 $352 $36 $-1 $353 reversed single #
loop $-1 $-1 $354 $151 #
plane-surface $-1 -75.70299386577959 0 0 1 0 0 0 0 -1 forward_v I I I I #
coedge $-1 $355 $251 $356 $357 forward $152 $-1 #
coedge $-1 $358 $154 $355 $359 forward $97 $-1 #
coedge $-1 $154 $358 $360 $361 forward $97 $-1 #
coedge $-1 $254 $253 $154 $247 reversed $255 $-1 #
edge $-1 $362 -49.760157532919116 $363 49.760157532919116 $246 $364 forward 7 unknown #
coedge $-1 $156 $155 $365 $366 forward $61 $-1 #
coedge $-1 $367 $368 $155 $250 reversed $352 $-1 #
edge $-1 $257 -75.70299386577959 $369 75.70299386577959 $249 $370 forward 7 unknown #
coedge $-1 $243 $371 $156 $252 reversed $152 $-1 #
edge $-1 $372 -75.70299386577959 $256 75.70299386577959 $251 $373 forward 7 unknown #
coedge $-1 $246 $157 $371 $374 forward $255 $-1 #
coedge $-1 $157 $246 $367 $375 reversed $255 $-1 #
loop $-1 $-1 $253 $351 #
vertex $-1 $158 $376 #
vertex $-1 $158 $377 #
straight-curve $-1 75.70299386577959 0 18.516968439646472 0 1 0 I I #
face $-1 $378 $379 $37 $-1 $380 reversed single #
loop $-1 $-1 $381 $159 #
plane-surface $-1 -75.70299386577959 0 0 1 0 0 0 0 -1 forward_v I I I I #
coedge $-1 $382 $268 $273 $383 reversed $160 $-1 #
coedge $-1 $384 $162 $385 $386 reversed $101 $-1 #
coedge $-1 $162 $384 $382 $387 forward $101 $-1 #
coedge $-1 $273 $272 $162 $266 forward $274 $-1 #
edge $-1 $388 -30.495743468922839 $389 -8.0330846590696972 $265 $390 forward 7 unknown #
coedge $-1 $164 $163 $381 $391 reversed $64 $-1 #
coedge $-1 $262 $392 $163 $269 reversed $160 $-1 #
edge $-1 $275 -75.70299386577959 $393 75.70299386577959 $268 $394 forward 7 unknown #
coedge $-1 $395 $396 $164 $271 forward $379 $-1 #
edge $-1 $276 -75.70299386577959 $397 75.70299386577959 $270 $398 forward 7 unknown #
coedge $-1 $265 $165 $396 $399 forward $274 $-1 #
coedge $-1 $165 $265 $262 $383 forward $274 $-1 #
loop $-1 $-1 $165 $378 #
vertex $-1 $166 $400 #
vertex $-1 $399 $401 #
straight-curve $-1 75.70299386577959 -19.26441406399627 0.040851024611772146 0 -1 0 I I #
face $-1 $-1 $290 $38 $-1 $402 reversed single #
loop $-1 $-1 $403 $167 #
plane-surface $-1 0 0 18.516968439646472 0 0 1 1 0 0 forward_v I I I I #
coedge $-1 $404 $405 $406 $407 reversed $168 $-1 #
coedge $-1 $408 $170 $172 $288 forward $105 $-1 #
coedge $-1 $170 $408 $404 $409 forward $105 $-1 #
coedge $-1 $406 $173 $170 $285 forward $290 $-1 #
edge $-1 $292 -10.311085742842543 $410 3.6309952531723582 $284 $411 forward 7 unknown #
coedge $-1 $412 $413 $171 $287 forward $279 $-1 #
edge $-1 $414 7.4234467418397898 $291 17.423446087075625 $286 $415 forward 7 unknown #
edge $-1 $292 -151.40598773155921 $414 -133.52307201994745 $172 $416 forward 7 unknown #
coedge $-1 $173 $406 $412 $417 reversed $290 $-1 #
loop $-1 $-1 $406 $278 #
vertex $-1 $417 $418 #
vertex $-1 $174 $419 #
straight-curve $-1 75.70299386577959 -13.651130987677636 106.93888254766252 0 0 -1 I I #
coedge $-1 $294 $294 $-1 $420 reversed $177 $-1 #
edge $-1 $421 0 $421 6.2831853071796004 $178 $422 forward 7 unknown #
vertex $-1 $181 $423 #
ellipse-curve $-1 70.702994193161672 -10.862714788474662 11.104163851572302 0.82903758062907751 0 0.55919289150049634 0.55919289150049634 0 -0.82903758062907751 1 I I #
coedge $-1 $298 $298 $-1 $424 reversed $184 $-1 #
edge $-1 $425 0 $425 6.2831853071796004 $185 $426 forward 7 unknown #
vertex $-1 $188 $427 #
ellipse-curve $-1 70.702994193161672 -6.6800904896701923 11.104163851572302 0.82903758062907751 0 0.55919289150049634 0.55919289150049634 0 -0.82903758062907751 1 I I #
coedge $-1 $302 $302 $-1 $428 reversed $191 $-1 #
edge $-1 $429 0 $429 6.2831853071796004 $192 $430 forward 7 unknown #
vertex $-1 $195 $431 #
ellipse-curve $-1 70.702994193161672 -2.4974661908657225 11.104163851572302 0.82903758062907751 0 0.55919289150049634 0.55919289150049634 0 -0.82903758062907751 1 I I #
face $-1 $-1 $432 $42 $-1 $433 forward single #
loop $-1 $-1 $202 $196 #
plane-surface $-1 75.70299386577959 0 0 -1 0 0 0 0 1 forward_v I I I I #
coedge $-1 $434 $435 $436 $437 reversed $197 $-1 #
coedge $-1 $438 $199 $201 $316 forward $124 $-1 #
coedge $-1 $199 $438 $434 $439 forward $124 $-1 #
coedge $-1 $436 $202 $199 $313 forward $307 $-1 #
edge $-1 $319 8.9533283211537267 $440 22.895409317168625 $312 $441 forward 7 unknown #
coedge $-1 $442 $443 $200 $315 forward $432 $-1 #
edge $-1 $444 7.4234467418397898 $318 17.423446087075625 $314 $445 forward 7 unknown #
edge $-1 $319 -151.40598773155921 $444 -133.52307201994745 $201 $446 forward 7 unknown #
coedge $-1 $202 $436 $442 $447 reversed $307 $-1 #
vertex $-1 $447 $448 #
vertex $-1 $203 $449 #
straight-curve $-1 75.70299386577959 24.877697140314904 106.93888254766252 0 0 -1 I I #
coedge $-1 $321 $321 $-1 $450 reversed $206 $-1 #
edge $-1 $451 0 $451 6.2831853071796004 $207 $452 forward 7 unknown #
vertex $-1 $210 $453 #
ellipse-curve $-1 70.702994193161672 27.666113339517871 11.104163851572302 0.82903758062907751 0 0.55919289150049634 0.55919289150049634 0 -0.82903758062907751 1 I I #
coedge $-1 $325 $325 $-1 $454 reversed $213 $-1 #
edge $-1 $455 0 $455 6.2831853071796004 $214 $456 forward 7 unknown #
vertex $-1 $217 $457 #
ellipse-curve $-1 70.702994193161672 31.848737638322355 11.104163851572302 0.82903758062907751 0 0.55919289150049634 0.55919289150049634 0 -0.82903758062907751 1 I I #
coedge $-1 $329 $329 $-1 $458 reversed $220 $-1 #
edge $-1 $459 0 $459 6.2831853071796004 $221 $460 forward 7 unknown #
vertex $-1 $224 $461 #
ellipse-curve $-1 70.702994193161672 36.03136193712681 11.104163851572302 0.82903758062907751 0 0.55919289150049634 0.55919289150049634 0 -0.82903758062907751 1 I I #
face $-1 $-1 $462 $46 $-1 $463 reversed single #
loop $-1 $-1 $464 $225 #
plane-surface $-1 0 49.760157532919116 0 0 -1 0 0 0 -1 forward_v I I I I #
coedge $-1 $465 $228 $230 $342 forward $143 $-1 #
coedge $-1 $228 $465 $464 $466 reversed $143 $-1 #
coedge $-1 $467 $231 $228 $339 forward $226 $-1 #
edge $-1 $345 9.479424057521026 $468 30.013630336105731 $338 $469 forward 7 unknown #
coedge $-1 $470 $471 $229 $341 forward $462 $-1 #
edge $-1 $472 -55.208207261151991 $344 -37.006152729167653 $340 $473 forward 7 unknown #
edge $-1 $345 -26.689293378811023 $472 -1.9441346070330422e-014 $230 $474 forward 7 unknown #
coedge $-1 $231 $467 $470 $475 forward $226 $-1 #
vertex $-1 $341 $476 #
vertex $-1 $232 $477 #
straight-curve $-1 -89.480815215005492 29.225951254334404 18.516968439646476 1 0 0 I I #
coedge $-1 $347 $347 $-1 $478 reversed $235 $-1 #
edge $-1 $479 0 $479 6.2831853071796004 $236 $480 forward 7 unknown #
vertex $-1 $239 $481 #
ellipse-curve $-1 -65.943337213584883 39.493054393626757 9.4159411736543035 -0.68199836817093118 0 0.7313536940579346 2.1940610821738038 0 2.0459951045127935 1 I I #
face $-1 $-1 $255 $36 $-1 $482 reversed single #
loop $-1 $-1 $367 $240 #
plane-surface $-1 0 49.760157532919116 0 0 -1 0 0 0 -1 forward_v I I I I #
coedge $-1 $483 $365 $368 $484 forward $241 $-1 #
coedge $-1 $371 $243 $244 $359 reversed $152 $-1 #
coedge $-1 $365 $483 $243 $357 reversed $241 $-1 #
edge $-1 $372 -18.516968439646472 $485 18.516968439646472 $356 $486 forward 7 unknown #
coedge $-1 $245 $244 $483 $487 forward $97 $-1 #
edge $-1 $363 -75.70299386577959 $485 75.70299386577959 $355 $488 forward 7 unknown #
coedge $-1 $368 $367 $245 $361 reversed $352 $-1 #
edge $-1 $489 -75.70299386577959 $362 75.70299386577959 $360 $490 forward 7 unknown #
vertex $-1 $247 $491 #
vertex $-1 $374 $492 #
straight-curve $-1 75.70299386577959 0 -18.516968439646472 0 -1 0 I I #
coedge $-1 $354 $356 $248 $366 reversed $241 $-1 #
edge $-1 $369 -49.760157532919116 $372 49.760157532919116 $365 $493 forward 7 unknown #
coedge $-1 $360 $249 $254 $375 forward $352 $-1 #
coedge $-1 $249 $360 $354 $484 reversed $352 $-1 #
vertex $-1 $250 $494 #
straight-curve $-1 0 49.760157532919116 18.516968439646472 -1 0 0 I I #
coedge $-1 $251 $355 $253 $374 reversed $152 $-1 #
vertex $-1 $366 $495 #
straight-curve $-1 0 -49.760157532919116 18.516968439646472 1 0 0 I I #
edge $-1 $256 -18.516968439646472 $363 18.516968439646472 $253 $496 forward 7 unknown #
edge $-1 $257 -18.516968439646472 $362 18.516968439646472 $254 $497 forward 7 unknown #
point $-1 75.70299386577959 -49.760157532919116 18.516968439646472 #
point $-1 75.70299386577959 49.760157532919116 18.516968439646472 #
face $-1 $-1 $274 $37 $-1 $498 reversed single #
loop $-1 $-1 $270 $259 #
plane-surface $-1 0 -49.760157532919116 0 0 1 0 0 0 1 forward_v I I I I #
coedge $-1 $499 $500 $267 $391 forward $260 $-1 #
coedge $-1 $392 $262 $264 $387 reversed $160 $-1 #
edge $-1 $389 -4.4605881720031659 $275 1.5140967404089034 $273 $501 forward 7 unknown #
coedge $-1 $264 $263 $502 $503 reversed $101 $-1 #
coedge $-1 $396 $395 $263 $386 forward $379 $-1 #
edge $-1 $504 -75.70299386577959 $388 75.70299386577959 $385 $505 forward 7 unknown #
edge $-1 $506 -75.70299386577959 $389 75.70299386577959 $382 $507 forward 7 unknown #
vertex $-1 $386 $508 #
vertex $-1 $266 $509 #
straight-curve $-1 75.70299386577959 -19.26441406399627 -5.9338338878002972 0 1 0 I I #
edge $-1 $397 -30.495743468922839 $393 -8.0330846590696972 $381 $510 forward 7 unknown #
coedge $-1 $268 $382 $499 $511 reversed $160 $-1 #
vertex $-1 $391 $512 #
straight-curve $-1 0 -27.297498723065967 0.040851024611772146 -1 0 0 I I #
coedge $-1 $385 $270 $500 $513 forward $379 $-1 #
coedge $-1 $270 $385 $272 $399 reversed $379 $-1 #
vertex $-1 $513 $514 #
straight-curve $-1 0 -49.760157532919116 0.040851024611772146 -1 0 0 I I #
edge $-1 $276 -0.040851024611772146 $388 5.9338338878002972 $272 $515 forward 7 unknown #
point $-1 75.70299386577959 -27.297498723065967 0.040851024611772146 #
point $-1 75.70299386577959 -49.760157532919109 0.040851024611772146 #
plane-surface $-1 75.70299386577959 0 0 -1 0 0 0 0 1 forward_v I I I I #
coedge $-1 $413 $412 $405 $516 forward $279 $-1 #
coedge $-1 $405 $281 $283 $409 reversed $168 $-1 #
coedge $-1 $281 $404 $403 $516 reversed $168 $-1 #
coedge $-1 $289 $284 $281 $407 forward $290 $-1 #
edge $-1 $410 -103.24752328416437 $517 -88.42191410801604 $406 $518 forward 7 unknown #
coedge $-1 $283 $282 $413 $519 reversed $105 $-1 #
edge $-1 $520 133.52307201994745 $410 151.40598773155921 $404 $521 forward 7 unknown #
vertex $-1 $285 $522 #
straight-curve $-1 75.702993865779604 -3.3400452448350926 3.6913592634981427 0 1 0 I I #
coedge $-1 $403 $286 $289 $417 forward $279 $-1 #
coedge $-1 $286 $403 $408 $519 forward $279 $-1 #
vertex $-1 $287 $523 #
straight-curve $-1 58.279547778703964 -13.651130987677636 18.516968439646476 1 0 0 I I #
straight-curve $-1 -8.9621582043196781 -13.651130987677636 129.21261302522578 -0.55919289150049634 0 0.82903758062907751 I I #
edge $-1 $291 -13.651130987677636 $517 0.29095000833726559 $289 $524 forward 7 unknown #
point $-1 75.70299386577959 -13.651130987677636 18.516968439646472 #
point $-1 75.70299386577959 -13.651130987677636 3.6913592634981427 #
edge $-1 $525 1 $525 0 $294 $-1 forward 7 unknown #
vertex $-1 $295 $526 #
ellipse-curve $-1 68.398175093305554 -10.862714788474662 9.5495437873574307 0.82903758062907751 0 0.55919289150049634 0.55919289150049634 0 -0.82903758062907751 1 I I #
point $-1 71.262187084662187 -10.862714788474662 10.27512627094324 #
edge $-1 $527 1 $527 0 $298 $-1 forward 7 unknown #
vertex $-1 $299 $528 #
ellipse-curve $-1 68.398175093305554 -6.6800904896701923 9.5495437873574307 0.82903758062907751 0 0.55919289150049634 0.55919289150049634 0 -0.82903758062907751 1 I I #
point $-1 71.262187084662187 -6.6800904896701923 10.27512627094324 #
edge $-1 $529 1 $529 0 $302 $-1 forward 7 unknown #
vertex $-1 $303 $530 #
ellipse-curve $-1 68.398175093305554 -2.4974661908657225 9.5495437873574307 0.82903758062907751 0 0.55919289150049634 0.55919289150049634 0 -0.82903758062907751 1 I I #
point $-1 71.262187084662187 -2.4974661908657225 10.27512627094324 #
loop $-1 $-1 $314 $306 #
plane-surface $-1 0 0 18.516968439646472 0 0 1 1 0 0 forward_v I I I I #
coedge $-1 $435 $309 $311 $439 reversed $197 $-1 #
coedge $-1 $309 $434 $531 $532 reversed $197 $-1 #
coedge $-1 $317 $312 $309 $437 forward $307 $-1 #
edge $-1 $440 -103.24752328416437 $533 -88.42191410801604 $436 $534 forward 7 unknown #
coedge $-1 $311 $310 $443 $535 reversed $124 $-1 #
edge $-1 $536 133.52307201994745 $440 151.40598773155921 $434 $537 forward 7 unknown #
vertex $-1 $313 $538 #
straight-curve $-1 75.702993865779604 15.924368819161177 3.6913592634981427 0 1 0 I I #
coedge $-1 $531 $314 $317 $447 forward $432 $-1 #
coedge $-1 $314 $531 $438 $535 forward $432 $-1 #
vertex $-1 $315 $539 #
straight-curve $-1 58.279547778703964 24.877697140314904 18.516968439646476 1 0 0 I I #
straight-curve $-1 -8.9621582043196781 24.877697140314904 129.21261302522578 -0.55919289150049634 0 0.82903758062907751 I I #
edge $-1 $318 24.877697140314904 $533 38.819778136329802 $317 $540 forward 7 unknown #
point $-1 75.70299386577959 24.877697140314904 18.516968439646472 #
point $-1 75.70299386577959 24.877697140314904 3.6913592634981427 #
edge $-1 $541 1 $541 0 $321 $-1 forward 7 unknown #
vertex $-1 $322 $542 #
ellipse-curve $-1 68.398175093305554 27.666113339517871 9.5495437873574307 0.82903758062907751 0 0.55919289150049634 0.55919289150049634 0 -0.82903758062907751 1 I I #
point $-1 71.262187084662187 27.666113339517871 10.27512627094324 #
edge $-1 $543 1 $543 0 $325 $-1 forward 7 unknown #
vertex $-1 $326 $544 #
ellipse-curve $-1 68.398175093305554 31.848737638322355 9.5495437873574307 0.82903758062907751 0 0.55919289150049634 0.55919289150049634 0 -0.82903758062907751 1 I I #
point $-1 71.262187084662187 31.848737638322355 10.27512627094324 #
edge $-1 $545 1 $545 0 $329 $-1 forward 7 unknown #
vertex $-1 $330 $546 #
ellipse-curve $-1 68.398175093305554 36.03136193712681 9.5495437873574307 0.82903758062907751 0 0.55919289150049634 0.55919289150049634 0 -0.82903758062907751 1 I I #
point $-1 71.262187084662187 36.03136193712681 10.27512627094324 #
loop $-1 $-1 $340 $333 #
plane-surface $-1 -75.70299386577959 0 0 1 0 0 0 0 -1 forward_v I I I I #
coedge $-1 $547 $548 $337 $466 forward $334 $-1 #
coedge $-1 $337 $336 $471 $549 reversed $143 $-1 #
edge $-1 $468 0.88615334311056781 $550 27.575446721921566 $464 $551 forward 7 unknown #
coedge $-1 $343 $338 $548 $552 forward $226 $-1 #
vertex $-1 $552 $553 #
straight-curve $-1 -56.18368056139019 19.746527196813378 18.516968439646472 0 1 0 I I #
coedge $-1 $554 $340 $343 $475 reversed $462 $-1 #
coedge $-1 $340 $554 $465 $549 forward $462 $-1 #
vertex $-1 $341 $555 #
straight-curve $-1 -75.70299386577959 29.225951254334404 55.523121168814122 0 0 1 I I #
straight-curve $-1 -75.702993865779604 29.225951254334404 0.3149139076621168 -0.7313536940579346 0 -0.68199836817093118 I I #
edge $-1 $556 -49.760157532919116 $344 -29.225951254334404 $470 $557 forward 7 unknown #
point $-1 -75.70299386577959 29.225951254334404 18.516968439646472 #
point $-1 -56.18368056139019 29.225951254334404 18.516968439646472 #
edge $-1 $558 1 $558 0 $347 $-1 forward 7 unknown #
vertex $-1 $348 $559 #
ellipse-curve $-1 -61.566867079752015 39.493054393626757 4.7227516460941992 -0.68199836817093118 0 0.7313536940579346 2.1940610821738038 0 2.0459951045127935 1 I I #
point $-1 -63.749276131411079 39.493054393626757 11.461936278167096 #
plane-surface $-1 75.70299386577959 0 0 -1 0 0 0 0 1 forward_v I I I I #
coedge $-1 $356 $354 $358 $487 reversed $241 $-1 #
edge $-1 $369 -18.516968439646472 $489 18.516968439646472 $368 $560 forward 7 unknown #
vertex $-1 $487 $561 #
straight-curve $-1 -75.70299386577959 -49.760157532919116 0 0 0 -1 I I #
edge $-1 $485 -49.760157532919116 $489 49.760157532919116 $483 $562 forward 7 unknown #
straight-curve $-1 0 -49.760157532919116 -18.516968439646472 -1 0 0 I I #
vertex $-1 $361 $563 #
straight-curve $-1 0 49.760157532919116 -18.516968439646472 1 0 0 I I #
point $-1 75.70299386577959 49.760157532919116 -18.516968439646472 #
point $-1 75.70299386577959 -49.760157532919116 -18.516968439646472 #
straight-curve $-1 -75.70299386577959 0 18.516968439646472 0 -1 0 I I #
point $-1 -75.70299386577959 49.760157532919116 18.516968439646472 #
point $-1 -75.70299386577959 -49.760157532919116 18.516968439646472 #
straight-curve $-1 75.70299386577959 -49.760157532919116 0 0 0 -1 I I #
straight-curve $-1 75.70299386577959 49.760157532919116 0 0 0 -1 I I #
plane-surface $-1 75.70299386577959 0 0 -1 0 0 0 0 1 forward_v I I I I #
coedge $-1 $502 $381 $392 $511 forward $260 $-1 #
coedge $-1 $381 $502 $395 $513 reversed $260 $-1 #
straight-curve $-1 75.70299386577959 -27.297498723065967 -1.4732457157971313 0 0 1 I I #
coedge $-1 $500 $499 $384 $503 forward $260 $-1 #
edge $-1 $506 8.0330846590696972 $504 30.495743468922839 $502 $564 forward 7 unknown #
vertex $-1 $386 $565 #
straight-curve $-1 0 -49.760157532919116 -5.9338338878002972 1 0 0 I I #
vertex $-1 $503 $566 #
straight-curve $-1 0 -27.297498723065967 -5.9338338878002972 1 0 0 I I #
point $-1 75.70299386577959 -49.760157532919109 -5.9338338878002972 #
point $-1 75.70299386577959 -27.297498723065967 -5.9338338878002972 #
straight-curve $-1 -75.70299386577959 -19.26441406399627 0.040851024611772146 0 1 0 I I #
edge $-1 $393 -1.5140967404089034 $506 4.4605881720031659 $499 $567 forward 7 unknown #
point $-1 -75.70299386577959 -27.297498723065967 0.040851024611772146 #
edge $-1 $397 -0.040851024611772146 $504 5.9338338878002972 $500 $568 forward 7 unknown #
point $-1 -75.70299386577959 -49.760157532919109 0.040851024611772146 #
straight-curve $-1 75.70299386577959 -49.760157532919116 0 0 0 -1 I I #
edge $-1 $517 -17.423446087075625 $520 -7.4234467418397898 $403 $569 forward 7 unknown #
vertex $-1 $516 $570 #
straight-curve $-1 75.70299386577959 0.29095000833726559 106.93888254766252 0 0 1 I I #
edge $-1 $520 -3.6309952531723582 $414 10.311085742842543 $413 $571 forward 7 unknown #
vertex $-1 $519 $572 #
straight-curve $-1 -8.9621582043196781 0.29095000833726559 129.21261302522578 0.55919289150049634 0 -0.82903758062907751 I I #
point $-1 75.70299386577959 0.29095000833726559 3.6913592634981427 #
point $-1 65.702994520543754 -13.651130987677636 18.516968439646476 #
straight-curve $-1 75.70299386577959 0 18.516968439646472 0 1 0 I I #
vertex $-1 $420 $573 #
point $-1 68.957367984806041 -10.862714788474662 8.7205062067283521 #
vertex $-1 $424 $574 #
point $-1 68.957367984806041 -6.6800904896701923 8.7205062067283521 #
vertex $-1 $428 $575 #
point $-1 68.957367984806041 -2.4974661908657225 8.7205062067283521 #
coedge $-1 $443 $442 $435 $532 forward $432 $-1 #
edge $-1 $533 -17.423446087075625 $536 -7.4234467418397898 $531 $576 forward 7 unknown #
vertex $-1 $532 $577 #
straight-curve $-1 75.70299386577959 38.819778136329802 106.93888254766252 0 0 1 I I #
edge $-1 $536 -22.895409317168625 $444 -8.9533283211537267 $443 $578 forward 7 unknown #
vertex $-1 $535 $579 #
straight-curve $-1 -8.9621582043196781 38.819778136329802 129.21261302522578 0.55919289150049634 0 -0.82903758062907751 I I #
point $-1 75.70299386577959 38.819778136329802 3.6913592634981427 #
point $-1 65.702994520543754 24.877697140314904 18.516968439646476 #
straight-curve $-1 75.70299386577959 0 18.516968439646472 0 1 0 I I #
vertex $-1 $450 $580 #
point $-1 68.957367984806041 27.666113339517871 8.7205062067283521 #
vertex $-1 $454 $581 #
point $-1 68.957367984806041 31.848737638322355 8.7205062067283521 #
vertex $-1 $458 $582 #
point $-1 68.957367984806041 36.03136193712681 8.7205062067283521 #
coedge $-1 $548 $464 $554 $583 reversed $334 $-1 #
coedge $-1 $464 $547 $467 $552 reversed $334 $-1 #
edge $-1 $550 -30.013630336105731 $472 -9.479424057521026 $471 $584 forward 7 unknown #
vertex $-1 $466 $585 #
straight-curve $-1 -55.535589040404489 49.760157532919116 19.121323573597095 -0.7313536940579346 0 -0.68199836817093118 I I #
edge $-1 $468 56.18368056139019 $556 75.70299386577959 $548 $586 forward 7 unknown #
point $-1 -56.18368056139019 49.760157532919109 18.516968439646472 #
coedge $-1 $471 $470 $547 $583 forward $462 $-1 #
point $-1 -75.70299386577959 29.225951254334404 0.31491390766213007 #
vertex $-1 $552 $587 #
straight-curve $-1 -75.70299386577959 0 18.516968439646472 0 -1 0 I I #
vertex $-1 $478 $588 #
point $-1 -59.372805997578212 39.493054393626757 6.7687467506069927 #
straight-curve $-1 -75.70299386577959 49.760157532919116 0 0 0 -1 I I #
point $-1 -75.70299386577959 -49.760157532919116 -18.516968439646472 #
straight-curve $-1 -75.70299386577959 0 -18.516968439646472 0 1 0 I I #
point $-1 -75.70299386577959 49.760157532919116 -18.516968439646472 #
straight-curve $-1 -75.70299386577959 -19.26441406399627 -5.9338338878002972 0 -1 0 I I #
point $-1 -75.70299386577959 -49.760157532919109 -5.9338338878002972 #
point $-1 -75.70299386577959 -27.297498723065967 -5.9338338878002972 #
straight-curve $-1 -75.70299386577959 -27.297498723065967 -1.4732457157971313 0 0 -1 I I #
straight-curve $-1 -75.70299386577959 -49.760157532919116 0 0 0 -1 I I #
straight-curve $-1 58.279547778703964 0.29095000833726559 18.516968439646476 -1 0 0 I I #
point $-1 75.70299386577959 0.29095000833726559 18.516968439646472 #
straight-curve $-1 65.702994520543754 -3.3400452448350926 18.516968439646476 0 -1 0 I I #
point $-1 65.702994520543754 0.29095000833726559 18.516968439646476 #
point $-1 67.569137512676463 -10.862714788474662 8.9903508958569329 #
point $-1 67.569137512676463 -6.6800904896701923 8.9903508958569329 #
point $-1 67.569137512676463 -2.4974661908657225 8.9903508958569329 #
straight-curve $-1 58.279547778703964 38.819778136329802 18.516968439646476 -1 0 0 I I #
point $-1 75.70299386577959 38.819778136329802 18.516968439646472 #
straight-curve $-1 65.702994520543754 15.924368819161177 18.516968439646476 0 -1 0 I I #
point $-1 65.702994520543754 38.819778136329802 18.516968439646476 #
point $-1 67.569137512676463 27.666113339517871 8.9903508958569329 #
point $-1 67.569137512676463 31.848737638322355 8.9903508958569329 #
point $-1 67.569137512676463 36.03136193712681 8.9903508958569329 #
edge $-1 $556 -18.516968439646472 $550 -0.31491390766213007 $547 $589 forward 7 unknown #
straight-curve $-1 -75.70299386577959 19.746527196813378 0.3149139076621319 0 -1 0 I I #
point $-1 -75.70299386577959 49.760157532919109 0.31491390766213007 #
straight-curve $-1 0 49.760157532919116 18.516968439646472 -1 0 0 I I #
point $-1 -75.70299386577959 49.760157532919116 18.516968439646472 #
point $-1 -59.520871975239217 39.493054393626757 2.5286905639203958 #
straight-curve $-1 -75.70299386577959 49.760157532919116 0 0 0 -1 I I #
End-of-ACIS-data 