500 0 18 0           
7 Unknown 11 ACIS 5.0 NT 24 Thu Mar 25 21:20:04 1999 
-1 9.9999999999999995e-007 1e-010 
body $-1 $18 $-1 $19 #
body $-1 $20 $-1 $21 #
body $-1 $22 $-1 $23 #
body $-1 $24 $-1 $25 #
body $-1 $26 $-1 $27 #
body $-1 $28 $-1 $29 #
body $-1 $30 $-1 $31 #
body $-1 $32 $-1 $33 #
body $-1 $34 $-1 $35 #
body $-1 $36 $-1 $37 #
body $-1 $38 $-1 $39 #
body $-1 $40 $-1 $41 #
body $-1 $42 $-1 $43 #
body $-1 $44 $-1 $45 #
body $-1 $46 $-1 $47 #
body $-1 $48 $-1 $49 #
body $-1 $50 $-1 $51 #
body $-1 $52 $-1 $53 #
lump $-1 $-1 $54 $0 #
transform $-1 1 0 0 0 1 0 0 0 1 55.471663563951537 27.858567937509886 8.1350725258116281 1 rotate no_reflect no_shear #
lump $-1 $-1 $55 $1 #
transform $-1 1 0 0 0 1 0 0 0 1 55.471663563951537 27.858567937509886 8.1350725258116281 1 rotate no_reflect no_shear #
lump $-1 $-1 $56 $2 #
transform $-1 1 0 0 0 1 0 0 0 1 55.471663563951537 27.858567937509886 8.1350725258116281 1 rotate no_reflect no_shear #
lump $-1 $-1 $57 $3 #
transform $-1 1 0 0 0 1 0 0 0 1 55.471663563951537 27.858567937509886 8.1350725258116281 1 rotate no_reflect no_shear #
lump $-1 $-1 $58 $4 #
transform $-1 1 0 0 0 1 0 0 0 1 55.471663563951537 27.858567937509886 8.1350725258116281 1 rotate no_reflect no_shear #
lump $-1 $-1 $59 $5 #
transform $-1 1 0 0 0 1 0 0 0 1 55.471663563951537 27.858567937509886 8.1350725258116281 1 rotate no_reflect no_shear #
lump $-1 $-1 $60 $6 #
transform $-1 1 0 0 0 1 0 0 0 1 55.471663563951537 27.858567937509886 8.1350725258116281 1 rotate no_reflect no_shear #
lump $-1 $-1 $61 $7 #
transform $-1 1 0 0 0 1 0 0 0 1 55.471663563951537 27.858567937509886 8.1350725258116281 1 rotate no_reflect no_shear #
lump $-1 $-1 $62 $8 #
transform $-1 1 0 0 0 1 0 0 0 1 55.471663563951537 27.858567937509886 8.1350725258116281 1 rotate no_reflect no_shear #
lump $-1 $-1 $63 $9 #
transform $-1 1 0 0 0 1 0 0 0 1 55.471663563951537 27.858567937509886 8.1350725258116281 1 rotate no_reflect no_shear #
lump $-1 $-1 $64 $10 #
transform $-1 1 0 0 0 1 0 0 0 1 55.471663563951537 27.858567937509886 8.1350725258116281 1 rotate no_reflect no_shear #
lump $-1 $-1 $65 $11 #
transform $-1 1 0 0 0 1 0 0 0 1 55.471663563951537 27.858567937509886 8.1350725258116281 1 rotate no_reflect no_shear #
lump $-1 $-1 $66 $12 #
transform $-1 1 0 0 0 1 0 0 0 1 55.471663563951537 27.858567937509886 8.1350725258116281 1 rotate no_reflect no_shear #
lump $-1 $-1 $67 $13 #
transform $-1 1 0 0 0 1 0 0 0 1 55.471663563951537 27.858567937509886 8.1350725258116281 1 rotate no_reflect no_shear #
lump $-1 $-1 $68 $14 #
transform $-1 1 0 0 0 1 0 0 0 1 55.471663563951537 27.858567937509886 8.1350725258116281 1 rotate no_reflect no_shear #
lump $-1 $-1 $69 $15 #
transform $-1 1 0 0 0 1 0 0 0 1 55.471663563951537 27.858567937509886 8.1350725258116281 1 rotate no_reflect no_shear #
lump $-1 $-1 $70 $16 #
transform $-1 1 0 0 0 1 0 0 0 1 55.471663563951537 27.858567937509886 8.1350725258116281 1 rotate no_reflect no_shear #
lump $-1 $-1 $71 $17 #
transform $-1 1 0 0 0 1 0 0 0 1 55.471663563951537 27.858567937509886 8.1350725258116281 1 rotate no_reflect no_shear #
shell $-1 $-1 $-1 $72 $-1 $18 #
shell $-1 $-1 $-1 $73 $-1 $20 #
shell $-1 $-1 $-1 $74 $-1 $22 #
shell $-1 $-1 $-1 $75 $-1 $24 #
shell $-1 $-1 $-1 $76 $-1 $26 #
shell $-1 $-1 $-1 $77 $-1 $28 #
shell $-1 $-1 $-1 $78 $-1 $30 #
shell $-1 $-1 $-1 $79 $-1 $32 #
shell $-1 $-1 $-1 $80 $-1 $34 #
shell $-1 $-1 $-1 $81 $-1 $36 #
shell $-1 $-1 $-1 $82 $-1 $38 #
shell $-1 $-1 $-1 $83 $-1 $40 #
shell $-1 $-1 $-1 $84 $-1 $42 #
shell $-1 $-1 $-1 $85 $-1 $44 #
shell $-1 $-1 $-1 $86 $-1 $46 #
shell $-1 $-1 $-1 $87 $-1 $48 #
shell $-1 $-1 $-1 $88 $-1 $50 #
shell $-1 $-1 $-1 $89 $-1 $52 #
face $-1 $90 $91 $54 $-1 $92 forward single #
face $-1 $93 $94 $55 $-1 $95 reversed single #
face $-1 $96 $97 $56 $-1 $98 reversed single #
face $-1 $99 $100 $57 $-1 $101 forward single #
face $-1 $102 $103 $58 $-1 $104 forward single #
face $-1 $105 $106 $59 $-1 $107 forward single #
face $-1 $108 $109 $60 $-1 $110 reversed single #
face $-1 $111 $112 $61 $-1 $113 forward single #
face $-1 $114 $115 $62 $-1 $116 forward single #
face $-1 $117 $118 $63 $-1 $119 reversed single #
face $-1 $120 $121 $64 $-1 $122 forward single #
face $-1 $123 $124 $65 $-1 $125 forward single #
face $-1 $126 $127 $66 $-1 $128 reversed single #
face $-1 $129 $130 $67 $-1 $131 forward single #
face $-1 $132 $133 $68 $-1 $134 forward single #
face $-1 $135 $136 $69 $-1 $137 reversed single #
face $-1 $138 $139 $70 $-1 $140 forward single #
face $-1 $141 $142 $71 $-1 $143 forward single #
face $-1 $144 $145 $54 $-1 $146 reversed single #
loop $-1 $-1 $147 $72 #
plane-surface $-1 0 0 8.1350725258116281 0 0 1 1 0 0 forward_v I I I I #
face $-1 $148 $149 $55 $-1 $150 reversed single #
loop $-1 $-1 $151 $73 #
plane-surface $-1 0 -24.458915989778244 4.2539624221401642 0 0 1 1 0 0 forward_v I I I I #
face $-1 $152 $153 $56 $-1 $154 reversed single #
loop $-1 $-1 $155 $74 #
plane-surface $-1 55.471665384363561 22.689350055381489 161.75305127386963 0 -1 0 -0.70710678939079041 0 -0.70710677298230451 forward_v I I I I #
face $-1 $156 $157 $57 $-1 $158 forward single #
loop $-1 $159 $160 $75 #
cone-surface $-1 53.478320641798916 14.878513677884168 6.1417295738117721 -0.70710678939079041 0 -0.70710677298230451 0.17677669324557613 0 -0.1767766973476976 1 I I 0 1 0.25 forward I I I I #
face $-1 $161 $162 $58 $-1 $163 forward single #
loop $-1 $164 $165 $76 #
cone-surface $-1 53.478320641798916 17.807577319445667 6.1417295738117721 -0.70710678939079041 0 -0.70710677298230451 0.17677669324557613 0 -0.1767766973476976 1 I I 0 1 0.25 forward I I I I #
face $-1 $166 $167 $59 $-1 $168 forward single #
loop $-1 $169 $170 $77 #
cone-surface $-1 53.478320641798916 20.736640961007165 6.1417295738117721 -0.70710678939079041 0 -0.70710677298230451 0.17677669324557613 0 -0.1767766973476976 1 I I 0 1 0.25 forward I I I I #
face $-1 $171 $172 $60 $-1 $173 reversed single #
loop $-1 $-1 $174 $78 #
plane-surface $-1 -147.44785107300859 -18.850341851133258 62.956598235956996 0 1 0 -0.82903758062907751 0 0.55919289150049634 forward_v I I I I #
face $-1 $175 $176 $61 $-1 $177 forward single #
loop $-1 $178 $179 $79 #
cone-surface $-1 -52.609554047344758 -16.656842563679316 4.2377317572781026 0.82903758062907751 0 -0.55919289150049634 0.27959644575024817 0 0.41451879031453875 1 I I 0 1 0.5 forward I I I I #
face $-1 $180 $181 $62 $-1 $182 forward single #
loop $-1 $183 $184 $80 #
cone-surface $-1 -52.609554047344758 -13.3665936324984 4.2377317572781026 0.82903758062907751 0 -0.55919289150049634 0.27959644575024817 0 0.41451879031453875 1 I I 0 1 0.5 forward I I I I #
face $-1 $185 $186 $63 $-1 $187 reversed single #
loop $-1 $-1 $188 $81 #
plane-surface $-1 -147.44785107300859 -6.576095153919594 62.956598235956996 0 1 0 -0.82903758062907751 0 0.55919289150049634 forward_v I I I I #
face $-1 $189 $190 $64 $-1 $191 forward single #
loop $-1 $192 $193 $82 #
cone-surface $-1 -52.609554047344758 -4.3825958664656532 4.2377317572781026 0.82903758062907751 0 -0.55919289150049634 0.27959644575024817 0 0.41451879031453875 1 I I 0 1 0.5 forward I I I I #
face $-1 $194 $195 $65 $-1 $196 forward single #
loop $-1 $197 $198 $83 #
cone-surface $-1 -52.609554047344758 -1.0923469352847341 4.2377317572781026 0.82903758062907751 0 -0.55919289150049634 0.27959644575024817 0 0.41451879031453875 1 I I 0 1 0.5 forward I I I I #
face $-1 $199 $200 $66 $-1 $201 reversed single #
loop $-1 $-1 $202 $84 #
plane-surface $-1 -147.44785107300859 5.6981515432940721 62.956598235956996 0 1 0 -0.82903758062907751 0 0.55919289150049634 forward_v I I I I #
face $-1 $203 $204 $67 $-1 $205 forward single #
loop $-1 $206 $207 $85 #
cone-surface $-1 -52.609554047344758 7.8916508307480093 4.2377317572781026 0.82903758062907751 0 -0.55919289150049634 0.27959644575024817 0 0.41451879031453875 1 I I 0 1 0.5 forward I I I I #
face $-1 $208 $209 $68 $-1 $210 forward single #
loop $-1 $211 $212 $86 #
cone-surface $-1 -52.609554047344758 11.181899761928928 4.2377317572781026 0.82903758062907751 0 -0.55919289150049634 0.27959644575024817 0 0.41451879031453875 1 I I 0 1 0.5 forward I I I I #
face $-1 $213 $214 $69 $-1 $215 reversed single #
loop $-1 $-1 $216 $87 #
plane-surface $-1 -147.44785107300859 17.972398240507736 62.956598235956996 0 1 0 -0.82903758062907751 0 0.55919289150049634 forward_v I I I I #
face $-1 $217 $218 $70 $-1 $219 forward single #
loop $-1 $220 $221 $88 #
cone-surface $-1 -52.609554047344758 20.165897527961672 4.2377317572781026 0.82903758062907751 0 -0.55919289150049634 0.27959644575024817 0 0.41451879031453875 1 I I 0 1 0.5 forward I I I I #
face $-1 $222 $223 $71 $-1 $224 forward single #
loop $-1 $225 $226 $89 #
cone-surface $-1 -52.609554047344758 23.456146459142591 4.2377317572781026 0.82903758062907751 0 -0.55919289150049634 0.27959644575024817 0 0.41451879031453875 1 I I 0 1 0.5 forward I I I I #
face $-1 $227 $228 $54 $-1 $229 reversed single #
loop $-1 $-1 $230 $90 #
plane-surface $-1 0 0 -8.1350725258116281 0 0 1 1 0 0 forward_v I I I I #
coedge $-1 $231 $232 $233 $234 forward $91 $-1 #
face $-1 $235 $236 $55 $-1 $237 reversed single #
loop $-1 $-1 $238 $93 #
plane-surface $-1 0 -21.059264042046603 6.1945174739758961 0 -1 0 0 0 -1 forward_v I I I I #
coedge $-1 $239 $240 $241 $242 reversed $94 $-1 #
face $-1 $243 $244 $56 $-1 $245 reversed single #
loop $-1 $-1 $246 $96 #
plane-surface $-1 -22.977114465380168 17.807577319445659 83.304273244537924 0.70710678939079041 0 0.70710677298230451 0.70710677298230451 0 -0.70710678939079041 forward_v I I I I #
coedge $-1 $247 $248 $249 $250 reversed $97 $-1 #
face $-1 $-1 $251 $57 $-1 $252 forward single #
loop $-1 $253 $254 $99 #
cone-surface $-1 53.036378898429675 14.878513677884168 5.699787840697832 -0.70710678939079041 0 -0.70710677298230451 0.088388346622788064 0 -0.088388348673848802 1 I I -0.70710678118654746 0.70710678118654746 0.125 forward I I I I #
loop $-1 $-1 $255 $75 #
coedge $-1 $160 $160 $256 $257 reversed $100 $-1 #
face $-1 $-1 $258 $58 $-1 $259 forward single #
loop $-1 $260 $261 $102 #
cone-surface $-1 53.036378898429675 17.807577319445667 5.699787840697832 -0.70710678939079041 0 -0.70710677298230451 0.088388346622788064 0 -0.088388348673848802 1 I I -0.70710678118654746 0.70710678118654746 0.125 forward I I I I #
loop $-1 $-1 $262 $76 #
coedge $-1 $165 $165 $263 $264 reversed $103 $-1 #
face $-1 $-1 $265 $59 $-1 $266 forward single #
loop $-1 $267 $268 $105 #
cone-surface $-1 53.036378898429675 20.736640961007165 5.699787840697832 -0.70710678939079041 0 -0.70710677298230451 0.088388346622788064 0 -0.088388348673848802 1 I I -0.70710678118654746 0.70710678118654746 0.125 forward I I I I #
loop $-1 $-1 $269 $77 #
coedge $-1 $170 $170 $270 $271 reversed $106 $-1 #
face $-1 $272 $273 $60 $-1 $274 reversed single #
loop $-1 $-1 $275 $108 #
plane-surface $-1 -55.471663563951523 -15.011718098088858 0.91787834661941758 -0.82903758062907751 0 0.55919289150049634 0.55919289150049634 0 0.82903758062907751 forward_v I I I I #
coedge $-1 $276 $277 $278 $279 reversed $109 $-1 #
face $-1 $-1 $280 $61 $-1 $281 forward single #
loop $-1 $282 $283 $111 #
cone-surface $-1 -51.974214530557383 -16.656842563679316 3.8091898554655526 0.82903758062907751 0 -0.55919289150049634 0.13979822287512408 0 0.20725939515726938 1 I I -0.70710678118654691 0.70710678118654813 0.25 forward I I I I #
loop $-1 $-1 $284 $79 #
coedge $-1 $179 $179 $285 $286 reversed $112 $-1 #
face $-1 $-1 $287 $62 $-1 $288 forward single #
loop $-1 $289 $290 $114 #
cone-surface $-1 -51.974214530557383 -13.3665936324984 3.8091898554655526 0.82903758062907751 0 -0.55919289150049634 0.13979822287512408 0 0.20725939515726938 1 I I -0.70710678118654691 0.70710678118654813 0.25 forward I I I I #
loop $-1 $-1 $291 $80 #
coedge $-1 $184 $184 $292 $293 reversed $115 $-1 #
face $-1 $294 $295 $63 $-1 $296 reversed single #
loop $-1 $-1 $297 $117 #
plane-surface $-1 -55.471663563951523 -2.7374714008751937 0.91787834661941758 -0.82903758062907751 0 0.55919289150049634 0.55919289150049634 0 0.82903758062907751 forward_v I I I I #
coedge $-1 $298 $299 $300 $301 reversed $118 $-1 #
face $-1 $-1 $302 $64 $-1 $303 forward single #
loop $-1 $304 $305 $120 #
cone-surface $-1 -51.974214530557383 -4.3825958664656532 3.8091898554655526 0.82903758062907751 0 -0.55919289150049634 0.13979822287512408 0 0.20725939515726938 1 I I -0.70710678118654691 0.70710678118654813 0.25 forward I I I I #
loop $-1 $-1 $306 $82 #
coedge $-1 $193 $193 $307 $308 reversed $121 $-1 #
face $-1 $-1 $309 $65 $-1 $310 forward single #
loop $-1 $311 $312 $123 #
cone-surface $-1 -51.974214530557383 -1.0923469352847341 3.8091898554655526 0.82903758062907751 0 -0.55919289150049634 0.13979822287512408 0 0.20725939515726938 1 I I -0.70710678118654691 0.70710678118654813 0.25 forward I I I I #
loop $-1 $-1 $313 $83 #
coedge $-1 $198 $198 $314 $315 reversed $124 $-1 #
face $-1 $316 $317 $66 $-1 $318 reversed single #
loop $-1 $-1 $319 $126 #
plane-surface $-1 -55.471663563951523 9.5367752963384724 0.91787834661941758 -0.82903758062907751 0 0.55919289150049634 0.55919289150049634 0 0.82903758062907751 forward_v I I I I #
coedge $-1 $320 $321 $322 $323 reversed $127 $-1 #
face $-1 $-1 $324 $67 $-1 $325 forward single #
loop $-1 $326 $327 $129 #
cone-surface $-1 -51.974214530557383 7.8916508307480093 3.8091898554655526 0.82903758062907751 0 -0.55919289150049634 0.13979822287512408 0 0.20725939515726938 1 I I -0.70710678118654691 0.70710678118654813 0.25 forward I I I I #
loop $-1 $-1 $328 $85 #
coedge $-1 $207 $207 $329 $330 reversed $130 $-1 #
face $-1 $-1 $331 $68 $-1 $332 forward single #
loop $-1 $333 $334 $132 #
cone-surface $-1 -51.974214530557383 11.181899761928928 3.8091898554655526 0.82903758062907751 0 -0.55919289150049634 0.13979822287512408 0 0.20725939515726938 1 I I -0.70710678118654691 0.70710678118654813 0.25 forward I I I I #
loop $-1 $-1 $335 $86 #
coedge $-1 $212 $212 $336 $337 reversed $133 $-1 #
face $-1 $338 $339 $69 $-1 $340 reversed single #
loop $-1 $-1 $341 $135 #
plane-surface $-1 -55.471663563951523 21.811021993552135 0.91787834661941758 -0.82903758062907751 0 0.55919289150049634 0.55919289150049634 0 0.82903758062907751 forward_v I I I I #
coedge $-1 $342 $343 $344 $345 reversed $136 $-1 #
face $-1 $-1 $346 $70 $-1 $347 forward single #
loop $-1 $348 $349 $138 #
cone-surface $-1 -51.974214530557383 20.165897527961672 3.8091898554655526 0.82903758062907751 0 -0.55919289150049634 0.13979822287512408 0 0.20725939515726938 1 I I -0.70710678118654691 0.70710678118654813 0.25 forward I I I I #
loop $-1 $-1 $350 $88 #
coedge $-1 $221 $221 $351 $352 reversed $139 $-1 #
face $-1 $-1 $353 $71 $-1 $354 forward single #
loop $-1 $355 $356 $141 #
cone-surface $-1 -51.974214530557383 23.456146459142591 3.8091898554655526 0.82903758062907751 0 -0.55919289150049634 0.13979822287512408 0 0.20725939515726938 1 I I -0.70710678118654691 0.70710678118654813 0.25 forward I I I I #
loop $-1 $-1 $357 $89 #
coedge $-1 $226 $226 $358 $359 reversed $142 $-1 #
face $-1 $360 $361 $54 $-1 $362 reversed single #
loop $-1 $-1 $363 $144 #
plane-surface $-1 0 -27.858567937509886 0 0 1 0 0 0 1 forward_v I I I I #
coedge $-1 $364 $365 $366 $367 forward $145 $-1 #
coedge $-1 $368 $147 $369 $370 forward $91 $-1 #
coedge $-1 $147 $368 $371 $372 forward $91 $-1 #
coedge $-1 $373 $374 $147 $234 reversed $375 $-1 #
edge $-1 $376 -27.858567937509886 $377 27.858567937509886 $233 $378 forward 7 unknown #
face $-1 $379 $380 $55 $-1 $381 reversed single #
loop $-1 $-1 $382 $148 #
plane-surface $-1 -55.471663563951537 0 0 1 0 0 0 0 -1 forward_v I I I I #
coedge $-1 $383 $384 $385 $386 reversed $149 $-1 #
coedge $-1 $387 $151 $388 $389 reversed $94 $-1 #
coedge $-1 $151 $387 $383 $390 forward $94 $-1 #
coedge $-1 $385 $391 $151 $242 forward $392 $-1 #
edge $-1 $393 -15.629109942620763 $394 -8.8298060471574811 $241 $395 forward 7 unknown #
face $-1 $396 $397 $56 $-1 $398 reversed single #
loop $-1 $-1 $399 $152 #
plane-surface $-1 55.471665384363561 12.92580458350983 161.75305127386963 0 1 0 0.70710678939079041 0 0.70710677298230451 forward_v I I I I #
coedge $-1 $400 $401 $402 $403 reversed $153 $-1 #
coedge $-1 $248 $155 $404 $405 reversed $97 $-1 #
coedge $-1 $155 $247 $400 $406 reversed $97 $-1 #
coedge $-1 $402 $407 $155 $250 forward $408 $-1 #
edge $-1 $409 -27.735830871769757 $410 -24.456251816855307 $249 $411 forward 7 unknown #
loop $-1 $-1 $256 $156 #
plane-surface $-1 -22.977114465380168 17.807577319445659 83.304273244537924 0.70710678939079041 0 0.70710677298230451 0.70710677298230451 0 -0.70710678939079041 forward_v I I I I #
loop $-1 $-1 $412 $99 #
coedge $-1 $254 $254 $255 $413 reversed $157 $-1 #
coedge $-1 $255 $255 $254 $413 forward $159 $-1 #
coedge $-1 $256 $256 $160 $257 forward $251 $-1 #
edge $-1 $414 0 $414 6.2831853071796004 $256 $415 forward 7 unknown #
loop $-1 $-1 $263 $161 #
plane-surface $-1 -22.977114465380168 17.807577319445659 83.304273244537924 0.70710678939079041 0 0.70710677298230451 0.70710677298230451 0 -0.70710678939079041 forward_v I I I I #
loop $-1 $-1 $416 $102 #
coedge $-1 $261 $261 $262 $417 reversed $162 $-1 #
coedge $-1 $262 $262 $261 $417 forward $164 $-1 #
coedge $-1 $263 $263 $165 $264 forward $258 $-1 #
edge $-1 $418 0 $418 6.2831853071796004 $263 $419 forward 7 unknown #
loop $-1 $-1 $270 $166 #
plane-surface $-1 -22.977114465380168 17.807577319445659 83.304273244537924 0.70710678939079041 0 0.70710677298230451 0.70710677298230451 0 -0.70710678939079041 forward_v I I I I #
loop $-1 $-1 $420 $105 #
coedge $-1 $268 $268 $269 $421 reversed $167 $-1 #
coedge $-1 $269 $269 $268 $421 forward $169 $-1 #
coedge $-1 $270 $270 $170 $271 forward $265 $-1 #
edge $-1 $422 0 $422 6.2831853071796004 $270 $423 forward 7 unknown #
face $-1 $424 $425 $60 $-1 $426 forward single #
loop $-1 $-1 $427 $171 #
plane-surface $-1 -147.44785107300859 -11.173094345044458 62.956598235956996 0 -1 0 0.82903758062907751 0 -0.55919289150049634 forward_v I I I I #
coedge $-1 $428 $429 $430 $431 reversed $172 $-1 #
coedge $-1 $277 $174 $432 $433 reversed $109 $-1 #
coedge $-1 $174 $276 $428 $434 reversed $109 $-1 #
coedge $-1 $430 $435 $174 $279 forward $425 $-1 #
edge $-1 $436 18.252261972552759 $437 23.120320762506125 $278 $438 forward 7 unknown #
loop $-1 $-1 $285 $175 #
plane-surface $-1 -55.471663563951523 -15.011718098088858 0.91787834661941758 -0.82903758062907751 0 0.55919289150049634 0.55919289150049634 0 0.82903758062907751 forward_v I I I I #
loop $-1 $-1 $439 $111 #
coedge $-1 $283 $283 $284 $440 reversed $176 $-1 #
coedge $-1 $284 $284 $283 $440 forward $178 $-1 #
coedge $-1 $285 $285 $179 $286 forward $280 $-1 #
edge $-1 $441 0 $441 6.2831853071796004 $285 $442 forward 7 unknown #
loop $-1 $-1 $292 $180 #
plane-surface $-1 -55.471663563951523 -15.011718098088858 0.91787834661941758 -0.82903758062907751 0 0.55919289150049634 0.55919289150049634 0 0.82903758062907751 forward_v I I I I #
loop $-1 $-1 $443 $114 #
coedge $-1 $290 $290 $291 $444 reversed $181 $-1 #
coedge $-1 $291 $291 $290 $444 forward $183 $-1 #
coedge $-1 $292 $292 $184 $293 forward $287 $-1 #
edge $-1 $445 0 $445 6.2831853071796004 $292 $446 forward 7 unknown #
face $-1 $447 $448 $63 $-1 $449 forward single #
loop $-1 $-1 $450 $185 #
plane-surface $-1 -147.44785107300859 1.1011523521692066 62.956598235956996 0 -1 0 0.82903758062907751 0 -0.55919289150049634 forward_v I I I I #
coedge $-1 $451 $452 $453 $454 reversed $186 $-1 #
coedge $-1 $299 $188 $455 $456 reversed $118 $-1 #
coedge $-1 $188 $298 $451 $457 reversed $118 $-1 #
coedge $-1 $453 $458 $188 $301 forward $448 $-1 #
edge $-1 $459 18.252261972552759 $460 23.120320762506125 $300 $461 forward 7 unknown #
loop $-1 $-1 $307 $189 #
plane-surface $-1 -55.471663563951523 -2.7374714008751937 0.91787834661941758 -0.82903758062907751 0 0.55919289150049634 0.55919289150049634 0 0.82903758062907751 forward_v I I I I #
loop $-1 $-1 $462 $120 #
coedge $-1 $305 $305 $306 $463 reversed $190 $-1 #
coedge $-1 $306 $306 $305 $463 forward $192 $-1 #
coedge $-1 $307 $307 $193 $308 forward $302 $-1 #
edge $-1 $464 0 $464 6.2831853071796004 $307 $465 forward 7 unknown #
loop $-1 $-1 $314 $194 #
plane-surface $-1 -55.471663563951523 -2.7374714008751937 0.91787834661941758 -0.82903758062907751 0 0.55919289150049634 0.55919289150049634 0 0.82903758062907751 forward_v I I I I #
loop $-1 $-1 $466 $123 #
coedge $-1 $312 $312 $313 $467 reversed $195 $-1 #
coedge $-1 $313 $313 $312 $467 forward $197 $-1 #
coedge $-1 $314 $314 $198 $315 forward $309 $-1 #
edge $-1 $468 0 $468 6.2831853071796004 $314 $469 forward 7 unknown #
face $-1 $470 $471 $66 $-1 $472 forward single #
loop $-1 $-1 $473 $199 #
plane-surface $-1 -147.44785107300859 13.375399049382873 62.956598235956996 0 -1 0 0.82903758062907751 0 -0.55919289150049634 forward_v I I I I #
coedge $-1 $474 $475 $476 $477 reversed $200 $-1 #
coedge $-1 $321 $202 $478 $479 reversed $127 $-1 #
coedge $-1 $202 $320 $474 $480 reversed $127 $-1 #
coedge $-1 $476 $481 $202 $323 forward $471 $-1 #
edge $-1 $482 18.252261972552759 $483 23.120320762506125 $322 $484 forward 7 unknown #
loop $-1 $-1 $329 $203 #
plane-surface $-1 -55.471663563951523 9.5367752963384724 0.91787834661941758 -0.82903758062907751 0 0.55919289150049634 0.55919289150049634 0 0.82903758062907751 forward_v I I I I #
loop $-1 $-1 $485 $129 #
coedge $-1 $327 $327 $328 $486 reversed $204 $-1 #
coedge $-1 $328 $328 $327 $486 forward $206 $-1 #
coedge $-1 $329 $329 $207 $330 forward $324 $-1 #
edge $-1 $487 0 $487 6.2831853071796004 $329 $488 forward 7 unknown #
loop $-1 $-1 $336 $208 #
plane-surface $-1 -55.471663563951523 9.5367752963384724 0.91787834661941758 -0.82903758062907751 0 0.55919289150049634 0.55919289150049634 0 0.82903758062907751 forward_v I I I I #
loop $-1 $-1 $489 $132 #
coedge $-1 $334 $334 $335 $490 reversed $209 $-1 #
coedge $-1 $335 $335 $334 $490 forward $211 $-1 #
coedge $-1 $336 $336 $212 $337 forward $331 $-1 #
edge $-1 $491 0 $491 6.2831853071796004 $336 $492 forward 7 unknown #
face $-1 $493 $494 $69 $-1 $495 forward single #
loop $-1 $-1 $496 $213 #
plane-surface $-1 -147.44785107300859 25.649645746596534 62.956598235956996 0 -1 0 0.82903758062907751 0 -0.55919289150049634 forward_v I I I I #
coedge $-1 $497 $498 $499 $500 reversed $214 $-1 #
coedge $-1 $343 $216 $501 $502 reversed $136 $-1 #
coedge $-1 $216 $342 $497 $503 reversed $136 $-1 #
coedge $-1 $499 $504 $216 $345 forward $494 $-1 #
edge $-1 $505 18.252261972552759 $506 23.120320762506125 $344 $507 forward 7 unknown #
loop $-1 $-1 $351 $217 #
plane-surface $-1 -55.471663563951523 21.811021993552135 0.91787834661941758 -0.82903758062907751 0 0.55919289150049634 0.55919289150049634 0 0.82903758062907751 forward_v I I I I #
loop $-1 $-1 $508 $138 #
coedge $-1 $349 $349 $350 $509 reversed $218 $-1 #
coedge $-1 $350 $350 $349 $509 forward $220 $-1 #
coedge $-1 $351 $351 $221 $352 forward $346 $-1 #
edge $-1 $510 0 $510 6.2831853071796004 $351 $511 forward 7 unknown #
loop $-1 $-1 $358 $222 #
plane-surface $-1 -55.471663563951523 21.811021993552135 0.91787834661941758 -0.82903758062907751 0 0.55919289150049634 0.55919289150049634 0 0.82903758062907751 forward_v I I I I #
loop $-1 $-1 $512 $141 #
coedge $-1 $356 $356 $357 $513 reversed $223 $-1 #
coedge $-1 $357 $357 $356 $513 forward $225 $-1 #
coedge $-1 $358 $358 $226 $359 forward $353 $-1 #
edge $-1 $514 0 $514 6.2831853071796004 $358 $515 forward 7 unknown #
face $-1 $516 $517 $54 $-1 $518 reversed single #
loop $-1 $-1 $519 $227 #
plane-surface $-1 -55.471663563951537 0 0 1 0 0 0 0 -1 forward_v I I I I #
coedge $-1 $520 $371 $521 $522 forward $228 $-1 #
coedge $-1 $523 $230 $520 $524 forward $145 $-1 #
coedge $-1 $230 $523 $525 $526 forward $145 $-1 #
coedge $-1 $374 $373 $230 $367 reversed $375 $-1 #
edge $-1 $527 -27.858567937509886 $528 27.858567937509886 $366 $529 forward 7 unknown #
coedge $-1 $232 $231 $530 $531 forward $91 $-1 #
coedge $-1 $532 $533 $231 $370 reversed $517 $-1 #
edge $-1 $377 -55.471663563951537 $534 55.471663563951537 $369 $535 forward 7 unknown #
coedge $-1 $363 $536 $232 $372 reversed $228 $-1 #
edge $-1 $537 -55.471663563951537 $376 55.471663563951537 $371 $538 forward 7 unknown #
coedge $-1 $366 $233 $536 $539 forward $375 $-1 #
coedge $-1 $233 $366 $532 $540 reversed $375 $-1 #
loop $-1 $-1 $373 $516 #
vertex $-1 $234 $541 #
vertex $-1 $234 $542 #
straight-curve $-1 55.471663563951537 0 8.1350725258116281 0 1 0 I I #
face $-1 $543 $544 $55 $-1 $545 forward single #
loop $-1 $-1 $388 $235 #
plane-surface $-1 0 -27.858567937509886 0 0 1 0 0 0 1 forward_v I I I I #
coedge $-1 $546 $547 $548 $549 forward $236 $-1 #
coedge $-1 $548 $238 $240 $390 reversed $149 $-1 #
coedge $-1 $238 $548 $550 $551 reversed $149 $-1 #
coedge $-1 $552 $241 $238 $386 forward $392 $-1 #
edge $-1 $394 1.1567036851522161 $553 5.03781378882368 $385 $554 forward 7 unknown #
coedge $-1 $240 $239 $546 $555 reversed $94 $-1 #
coedge $-1 $556 $557 $239 $389 forward $380 $-1 #
edge $-1 $558 -55.471663563951537 $393 55.471663563951537 $388 $559 forward 7 unknown #
edge $-1 $560 -55.471663563951537 $394 55.471663563951537 $383 $561 forward 7 unknown #
coedge $-1 $241 $552 $556 $562 forward $392 $-1 #
loop $-1 $-1 $385 $543 #
vertex $-1 $389 $563 #
vertex $-1 $242 $564 #
straight-curve $-1 55.471663563951537 -12.229457994889122 4.2539624221401642 0 1 0 I I #
face $-1 $-1 $408 $56 $-1 $565 forward single #
loop $-1 $-1 $566 $243 #
plane-surface $-1 55.471663563951537 0 0 -1 0 0 0 0 1 forward_v I I I I #
coedge $-1 $567 $568 $569 $570 reversed $244 $-1 #
coedge $-1 $571 $246 $248 $406 forward $153 $-1 #
coedge $-1 $246 $571 $567 $572 forward $153 $-1 #
coedge $-1 $569 $249 $246 $403 forward $408 $-1 #
edge $-1 $410 -13.785561395658659 $573 -4.0220159237870003 $402 $574 forward 7 unknown #
coedge $-1 $575 $576 $247 $405 forward $397 $-1 #
edge $-1 $577 -76.02103224214062 $409 -72.741453111123192 $404 $578 forward 7 unknown #
edge $-1 $410 106.30530189575542 $577 110.9433271279031 $248 $579 forward 7 unknown #
coedge $-1 $249 $569 $575 $580 forward $408 $-1 #
loop $-1 $-1 $569 $396 #
vertex $-1 $405 $581 #
vertex $-1 $250 $582 #
straight-curve $-1 27.735832692181781 22.689350055381489 8.1350725258116228 -1 0 0 I I #
coedge $-1 $412 $412 $-1 $583 reversed $253 $-1 #
edge $-1 $584 0 $584 6.2831853071796004 $254 $585 forward 7 unknown #
vertex $-1 $257 $586 #
ellipse-curve $-1 53.831874036494305 14.878513677884168 6.4952829603029194 0.70710678939079041 0 0.70710677298230451 0.17677669324557613 0 -0.1767766973476976 1 I I #
coedge $-1 $416 $416 $-1 $587 reversed $260 $-1 #
edge $-1 $588 0 $588 6.2831853071796004 $261 $589 forward 7 unknown #
vertex $-1 $264 $590 #
ellipse-curve $-1 53.831874036494305 17.807577319445667 6.4952829603029194 0.70710678939079041 0 0.70710677298230451 0.17677669324557613 0 -0.1767766973476976 1 I I #
coedge $-1 $420 $420 $-1 $591 reversed $267 $-1 #
edge $-1 $592 0 $592 6.2831853071796004 $268 $593 forward 7 unknown #
vertex $-1 $271 $594 #
ellipse-curve $-1 53.831874036494305 20.736640961007165 6.4952829603029194 0.70710678939079041 0 0.70710677298230451 0.17677669324557613 0 -0.1767766973476976 1 I I #
face $-1 $-1 $595 $60 $-1 $596 reversed single #
loop $-1 $-1 $278 $272 #
plane-surface $-1 0 0 8.1350725258116281 0 0 1 1 0 0 forward_v I I I I #
coedge $-1 $597 $598 $599 $600 reversed $273 $-1 #
coedge $-1 $601 $275 $277 $434 forward $172 $-1 #
coedge $-1 $275 $601 $597 $602 forward $172 $-1 #
coedge $-1 $599 $278 $275 $431 forward $425 $-1 #
edge $-1 $437 -11.34448280208883 $603 -3.6672352960000287 $430 $604 forward 7 unknown #
coedge $-1 $605 $606 $276 $433 forward $595 $-1 #
edge $-1 $607 -30.560420771359102 $436 -23.343226592166872 $432 $608 forward 7 unknown #
edge $-1 $437 -8.7055090719961949 $607 2.5434524534472062e-014 $277 $609 forward 7 unknown #
coedge $-1 $278 $599 $605 $610 forward $425 $-1 #
vertex $-1 $433 $611 #
vertex $-1 $279 $612 #
straight-curve $-1 -73.723925536504296 -18.850341851133258 8.1350725258116299 1 0 0 I I #
coedge $-1 $439 $439 $-1 $613 reversed $282 $-1 #
edge $-1 $614 0 $614 6.2831853071796004 $283 $615 forward 7 unknown #
vertex $-1 $286 $616 #
ellipse-curve $-1 -53.037634168974847 -16.656842563679316 4.5264754362155184 -0.82903758062907751 0 0.55919289150049634 0.27959644575024817 0 0.41451879031453875 1 I I #
coedge $-1 $443 $443 $-1 $617 reversed $289 $-1 #
edge $-1 $618 0 $618 6.2831853071796004 $290 $619 forward 7 unknown #
vertex $-1 $293 $620 #
ellipse-curve $-1 -53.037634168974847 -13.3665936324984 4.5264754362155184 -0.82903758062907751 0 0.55919289150049634 0.27959644575024817 0 0.41451879031453875 1 I I #
face $-1 $-1 $621 $63 $-1 $622 reversed single #
loop $-1 $-1 $300 $294 #
plane-surface $-1 0 0 8.1350725258116281 0 0 1 1 0 0 forward_v I I I I #
coedge $-1 $623 $624 $625 $626 reversed $295 $-1 #
coedge $-1 $627 $297 $299 $457 forward $186 $-1 #
coedge $-1 $297 $627 $623 $628 forward $186 $-1 #
coedge $-1 $625 $300 $297 $454 forward $448 $-1 #
edge $-1 $460 -5.2073594534819971 $629 2.4698880526068034 $453 $630 forward 7 unknown #
coedge $-1 $631 $632 $298 $456 forward $621 $-1 #
edge $-1 $633 -30.560420771359102 $459 -23.343226592166872 $455 $634 forward 7 unknown #
edge $-1 $460 -8.7055090719961949 $633 2.5434524534472062e-014 $299 $635 forward 7 unknown #
coedge $-1 $300 $625 $631 $636 forward $448 $-1 #
vertex $-1 $301 $637 #
vertex $-1 $301 $638 #
straight-curve $-1 -73.723925536504296 -6.576095153919594 8.1350725258116299 1 0 0 I I #
coedge $-1 $462 $462 $-1 $639 reversed $304 $-1 #
edge $-1 $640 0 $640 6.2831853071796004 $305 $641 forward 7 unknown #
vertex $-1 $308 $642 #
ellipse-curve $-1 -53.037634168974847 -4.3825958664656532 4.5264754362155184 -0.82903758062907751 0 0.55919289150049634 0.27959644575024817 0 0.41451879031453875 1 I I #
coedge $-1 $466 $466 $-1 $643 reversed $311 $-1 #
edge $-1 $644 0 $644 6.2831853071796004 $312 $645 forward 7 unknown #
vertex $-1 $315 $646 #
ellipse-curve $-1 -53.037634168974847 -1.0923469352847341 4.5264754362155184 -0.82903758062907751 0 0.55919289150049634 0.27959644575024817 0 0.41451879031453875 1 I I #
face $-1 $-1 $647 $66 $-1 $648 reversed single #
loop $-1 $-1 $322 $316 #
plane-surface $-1 0 0 8.1350725258116281 0 0 1 1 0 0 forward_v I I I I #
coedge $-1 $649 $650 $651 $652 reversed $317 $-1 #
coedge $-1 $653 $319 $321 $480 forward $200 $-1 #
coedge $-1 $319 $653 $649 $654 forward $200 $-1 #
coedge $-1 $651 $322 $319 $477 forward $471 $-1 #
edge $-1 $483 0.92976389512483593 $655 8.6070114012136365 $476 $656 forward 7 unknown #
coedge $-1 $657 $658 $320 $479 forward $647 $-1 #
edge $-1 $659 -30.560420771359102 $482 -23.343226592166872 $478 $660 forward 7 unknown #
edge $-1 $483 -8.7055090719961949 $659 2.5434524534472062e-014 $321 $661 forward 7 unknown #
coedge $-1 $322 $651 $657 $662 forward $471 $-1 #
vertex $-1 $323 $663 #
vertex $-1 $323 $664 #
straight-curve $-1 -73.723925536504296 5.6981515432940721 8.1350725258116299 1 0 0 I I #
coedge $-1 $485 $485 $-1 $665 reversed $326 $-1 #
edge $-1 $666 0 $666 6.2831853071796004 $327 $667 forward 7 unknown #
vertex $-1 $330 $668 #
ellipse-curve $-1 -53.037634168974847 7.8916508307480093 4.5264754362155184 -0.82903758062907751 0 0.55919289150049634 0.27959644575024817 0 0.41451879031453875 1 I I #
coedge $-1 $489 $489 $-1 $669 reversed $333 $-1 #
edge $-1 $670 0 $670 6.2831853071796004 $334 $671 forward 7 unknown #
vertex $-1 $337 $672 #
ellipse-curve $-1 -53.037634168974847 11.181899761928928 4.5264754362155184 -0.82903758062907751 0 0.55919289150049634 0.27959644575024817 0 0.41451879031453875 1 I I #
face $-1 $-1 $673 $69 $-1 $674 reversed single #
loop $-1 $-1 $344 $338 #
plane-surface $-1 0 0 8.1350725258116281 0 0 1 1 0 0 forward_v I I I I #
coedge $-1 $675 $676 $677 $678 reversed $339 $-1 #
coedge $-1 $679 $341 $343 $503 forward $214 $-1 #
coedge $-1 $341 $679 $675 $680 forward $214 $-1 #
coedge $-1 $677 $344 $341 $500 forward $494 $-1 #
edge $-1 $506 7.066887243731669 $681 14.744134749820466 $499 $682 forward 7 unknown #
coedge $-1 $683 $684 $342 $502 forward $673 $-1 #
edge $-1 $685 -30.560420771359102 $505 -23.343226592166872 $501 $686 forward 7 unknown #
edge $-1 $506 -8.7055090719961949 $685 2.5434524534472062e-014 $343 $687 forward 7 unknown #
coedge $-1 $344 $677 $683 $688 forward $494 $-1 #
vertex $-1 $345 $689 #
vertex $-1 $345 $690 #
straight-curve $-1 -73.723925536504296 17.972398240507736 8.1350725258116299 1 0 0 I I #
coedge $-1 $508 $508 $-1 $691 reversed $348 $-1 #
edge $-1 $692 0 $692 6.2831853071796004 $349 $693 forward 7 unknown #
vertex $-1 $352 $694 #
ellipse-curve $-1 -53.037634168974847 20.165897527961672 4.5264754362155184 -0.82903758062907751 0 0.55919289150049634 0.27959644575024817 0 0.41451879031453875 1 I I #
coedge $-1 $512 $512 $-1 $695 reversed $355 $-1 #
edge $-1 $696 0 $696 6.2831853071796004 $356 $697 forward 7 unknown #
vertex $-1 $359 $698 #
ellipse-curve $-1 -53.037634168974847 23.456146459142591 4.5264754362155184 -0.82903758062907751 0 0.55919289150049634 0.27959644575024817 0 0.41451879031453875 1 I I #
face $-1 $-1 $375 $54 $-1 $699 reversed single #
loop $-1 $-1 $532 $360 #
plane-surface $-1 0 27.858567937509886 0 0 -1 0 0 0 -1 forward_v I I I I #
coedge $-1 $700 $530 $533 $701 forward $361 $-1 #
coedge $-1 $536 $363 $364 $524 reversed $228 $-1 #
coedge $-1 $530 $700 $363 $522 reversed $361 $-1 #
edge $-1 $537 -8.1350725258116281 $702 8.1350725258116281 $521 $703 forward 7 unknown #
coedge $-1 $365 $364 $700 $704 forward $145 $-1 #
edge $-1 $528 -55.471663563951537 $702 55.471663563951537 $520 $705 forward 7 unknown #
coedge $-1 $533 $532 $365 $526 reversed $517 $-1 #
edge $-1 $706 -55.471663563951537 $527 55.471663563951537 $525 $707 forward 7 unknown #
vertex $-1 $367 $708 #
vertex $-1 $539 $709 #
straight-curve $-1 55.471663563951537 0 -8.1350725258116281 0 -1 0 I I #
coedge $-1 $519 $521 $368 $531 reversed $361 $-1 #
edge $-1 $534 -27.858567937509886 $537 27.858567937509886 $530 $710 forward 7 unknown #
coedge $-1 $525 $369 $374 $540 forward $517 $-1 #
coedge $-1 $369 $525 $519 $701 reversed $517 $-1 #
vertex $-1 $370 $711 #
straight-curve $-1 0 27.858567937509886 8.1350725258116281 -1 0 0 I I #
coedge $-1 $371 $520 $373 $539 reversed $228 $-1 #
vertex $-1 $531 $712 #
straight-curve $-1 0 -27.858567937509886 8.1350725258116281 1 0 0 I I #
edge $-1 $376 -8.1350725258116281 $528 8.1350725258116281 $373 $713 forward 7 unknown #
edge $-1 $377 -8.1350725258116281 $527 8.1350725258116281 $374 $714 forward 7 unknown #
point $-1 55.471663563951537 -27.858567937509886 8.1350725258116281 #
point $-1 55.471663563951537 27.858567937509886 8.1350725258116281 #
face $-1 $-1 $392 $55 $-1 $715 reversed single #
loop $-1 $-1 $550 $379 #
plane-surface $-1 0 0 8.1350725258116281 0 0 1 1 0 0 forward_v I I I I #
coedge $-1 $716 $382 $387 $555 forward $236 $-1 #
coedge $-1 $382 $716 $717 $718 reversed $236 $-1 #
coedge $-1 $384 $383 $382 $549 reversed $149 $-1 #
edge $-1 $719 -5.03781378882368 $560 -1.1567036851522161 $382 $720 forward 7 unknown #
coedge $-1 $717 $721 $384 $551 forward $544 $-1 #
edge $-1 $553 -55.471663563951537 $719 55.471663563951537 $550 $722 forward 7 unknown #
coedge $-1 $391 $385 $721 $723 reversed $392 $-1 #
vertex $-1 $386 $724 #
straight-curve $-1 55.471663563951537 -21.059264042046603 3.0972587369879481 0 0 1 I I #
edge $-1 $560 8.8298060471574811 $558 15.629109942620763 $546 $725 forward 7 unknown #
coedge $-1 $726 $388 $391 $562 reversed $380 $-1 #
coedge $-1 $388 $726 $716 $727 forward $380 $-1 #
vertex $-1 $389 $728 #
straight-curve $-1 0 -27.858567937509886 4.2539624221401642 1 0 0 I I #
vertex $-1 $555 $729 #
straight-curve $-1 0 -21.059264042046603 4.2539624221401642 1 0 0 I I #
edge $-1 $730 -8.1350725258116281 $393 -4.2539624221401642 $391 $731 forward 7 unknown #
point $-1 55.471663563951537 -27.858567937509886 4.2539624221401642 #
point $-1 55.471663563951537 -21.059264042046603 4.2539624221401642 #
plane-surface $-1 0 0 8.1350725258116281 0 0 1 1 0 0 forward_v I I I I #
coedge $-1 $576 $575 $568 $732 forward $397 $-1 #
coedge $-1 $568 $399 $401 $572 reversed $244 $-1 #
coedge $-1 $399 $567 $566 $732 reversed $244 $-1 #
coedge $-1 $407 $402 $399 $570 forward $408 $-1 #
edge $-1 $573 24.456251816855307 $733 27.735830871769757 $569 $734 forward 7 unknown #
coedge $-1 $401 $400 $576 $735 reversed $153 $-1 #
edge $-1 $736 -110.9433271279031 $573 -106.30530189575542 $567 $737 forward 7 unknown #
vertex $-1 $403 $738 #
straight-curve $-1 52.192084509037088 8.9037886597228297 8.1350725258116299 0 -1 0 I I #
coedge $-1 $566 $404 $407 $580 reversed $397 $-1 #
coedge $-1 $404 $566 $571 $735 forward $397 $-1 #
vertex $-1 $405 $739 #
straight-curve $-1 55.471663563951537 22.689350055381489 80.876525636934815 0 0 1 I I #
straight-curve $-1 -22.977114465380168 22.689350055381489 83.304273244537924 0.70710677298230451 0 -0.70710678939079041 I I #
edge $-1 $733 12.92580458350983 $409 22.689350055381489 $575 $740 forward 7 unknown #
point $-1 55.471663563951537 22.689350055381489 8.1350725258116281 #
point $-1 52.192084509037088 22.689350055381489 8.1350725258116228 #
edge $-1 $741 1 $741 0 $412 $-1 forward 7 unknown #
vertex $-1 $413 $742 #
ellipse-curve $-1 53.12476724710352 14.878513677884168 5.7881761873206203 0.70710678939079041 0 0.70710677298230451 0.17677669324557613 0 -0.1767766973476976 1 I I #
point $-1 54.008650729739891 14.878513677884168 6.3185062629552267 #
edge $-1 $743 1 $743 0 $416 $-1 forward 7 unknown #
vertex $-1 $417 $744 #
ellipse-curve $-1 53.12476724710352 17.807577319445667 5.7881761873206203 0.70710678939079041 0 0.70710677298230451 0.17677669324557613 0 -0.1767766973476976 1 I I #
point $-1 54.008650729739891 17.807577319445667 6.3185062629552267 #
edge $-1 $745 1 $745 0 $420 $-1 forward 7 unknown #
vertex $-1 $421 $746 #
ellipse-curve $-1 53.12476724710352 20.736640961007165 5.7881761873206203 0.70710678939079041 0 0.70710677298230451 0.17677669324557613 0 -0.1767766973476976 1 I I #
point $-1 54.008650729739891 20.736640961007165 6.3185062629552267 #
loop $-1 $-1 $432 $424 #
plane-surface $-1 -55.471663563951537 0 0 1 0 0 0 0 -1 forward_v I I I I #
coedge $-1 $598 $427 $429 $602 reversed $273 $-1 #
coedge $-1 $427 $597 $747 $748 reversed $273 $-1 #
coedge $-1 $435 $430 $427 $600 forward $425 $-1 #
edge $-1 $603 -23.120320762506125 $749 -18.252261972552759 $599 $750 forward 7 unknown #
coedge $-1 $429 $428 $606 $751 reversed $172 $-1 #
edge $-1 $752 -2.5434524534472062e-014 $603 8.7055090719961949 $597 $753 forward 7 unknown #
vertex $-1 $431 $754 #
straight-curve $-1 -50.603604773998164 -7.505859049044429 8.1350725258116281 0 1 0 I I #
coedge $-1 $747 $432 $435 $610 reversed $595 $-1 #
coedge $-1 $432 $747 $601 $751 forward $595 $-1 #
vertex $-1 $433 $755 #
straight-curve $-1 -55.471663563951537 -18.850341851133258 31.478299117978498 0 0 1 I I #
straight-curve $-1 -55.471663563951523 -18.850341851133258 0.91787834661941758 -0.55919289150049634 0 -0.82903758062907751 I I #
edge $-1 $749 11.173094345044458 $436 18.850341851133258 $605 $756 forward 7 unknown #
point $-1 -55.471663563951537 -18.850341851133258 8.1350725258116281 #
point $-1 -50.603604773998171 -18.850341851133258 8.1350725258116299 #
edge $-1 $757 1 $757 0 $439 $-1 forward 7 unknown #
vertex $-1 $440 $758 #
ellipse-curve $-1 -52.181473925714656 -16.656842563679316 3.948988078340677 -0.82903758062907751 0 0.55919289150049634 0.27959644575024817 0 0.41451879031453875 1 I I #
point $-1 -52.758037723224618 -16.656842563679316 4.9409942265300675 #
edge $-1 $759 1 $759 0 $443 $-1 forward 7 unknown #
vertex $-1 $444 $760 #
ellipse-curve $-1 -52.181473925714656 -13.3665936324984 3.948988078340677 -0.82903758062907751 0 0.55919289150049634 0.27959644575024817 0 0.41451879031453875 1 I I #
point $-1 -52.758037723224618 -13.3665936324984 4.9409942265300675 #
loop $-1 $-1 $455 $447 #
plane-surface $-1 -55.471663563951537 0 0 1 0 0 0 0 -1 forward_v I I I I #
coedge $-1 $624 $450 $452 $628 reversed $295 $-1 #
coedge $-1 $450 $623 $761 $762 reversed $295 $-1 #
coedge $-1 $458 $453 $450 $626 forward $448 $-1 #
edge $-1 $629 -23.120320762506125 $763 -18.252261972552759 $625 $764 forward 7 unknown #
coedge $-1 $452 $451 $632 $765 reversed $186 $-1 #
edge $-1 $766 -2.5434524534472062e-014 $629 8.7055090719961949 $623 $767 forward 7 unknown #
vertex $-1 $454 $768 #
straight-curve $-1 -50.603604773998164 -1.3687357004375968 8.1350725258116281 0 1 0 I I #
coedge $-1 $761 $455 $458 $636 reversed $621 $-1 #
coedge $-1 $455 $761 $627 $765 forward $621 $-1 #
vertex $-1 $456 $769 #
straight-curve $-1 -55.471663563951537 -6.576095153919594 31.478299117978498 0 0 1 I I #
straight-curve $-1 -55.471663563951523 -6.576095153919594 0.91787834661941758 -0.55919289150049634 0 -0.82903758062907751 I I #
edge $-1 $763 -1.1011523521692066 $459 6.576095153919594 $631 $770 forward 7 unknown #
point $-1 -55.471663563951537 -6.576095153919594 8.1350725258116281 #
point $-1 -50.603604773998171 -6.576095153919594 8.1350725258116299 #
edge $-1 $771 1 $771 0 $462 $-1 forward 7 unknown #
vertex $-1 $463 $772 #
ellipse-curve $-1 -52.181473925714656 -4.3825958664656532 3.948988078340677 -0.82903758062907751 0 0.55919289150049634 0.27959644575024817 0 0.41451879031453875 1 I I #
point $-1 -52.758037723224618 -4.3825958664656532 4.9409942265300675 #
edge $-1 $773 1 $773 0 $466 $-1 forward 7 unknown #
vertex $-1 $467 $774 #
ellipse-curve $-1 -52.181473925714656 -1.0923469352847341 3.948988078340677 -0.82903758062907751 0 0.55919289150049634 0.27959644575024817 0 0.41451879031453875 1 I I #
point $-1 -52.758037723224618 -1.0923469352847341 4.9409942265300675 #
loop $-1 $-1 $478 $470 #
plane-surface $-1 -55.471663563951537 0 0 1 0 0 0 0 -1 forward_v I I I I #
coedge $-1 $650 $473 $475 $654 reversed $317 $-1 #
coedge $-1 $473 $649 $775 $776 reversed $317 $-1 #
coedge $-1 $481 $476 $473 $652 forward $471 $-1 #
edge $-1 $655 -23.120320762506125 $777 -18.252261972552759 $651 $778 forward 7 unknown #
coedge $-1 $475 $474 $658 $779 reversed $200 $-1 #
edge $-1 $780 -2.5434524534472062e-014 $655 8.7055090719961949 $649 $781 forward 7 unknown #
vertex $-1 $477 $782 #
straight-curve $-1 -50.603604773998164 4.7683876481692362 8.1350725258116281 0 1 0 I I #
coedge $-1 $775 $478 $481 $662 reversed $647 $-1 #
coedge $-1 $478 $775 $653 $779 forward $647 $-1 #
vertex $-1 $479 $783 #
straight-curve $-1 -55.471663563951537 5.6981515432940721 31.478299117978498 0 0 1 I I #
straight-curve $-1 -55.471663563951523 5.6981515432940721 0.91787834661941758 -0.55919289150049634 0 -0.82903758062907751 I I #
edge $-1 $777 -13.375399049382873 $482 -5.6981515432940721 $657 $784 forward 7 unknown #
point $-1 -55.471663563951537 5.6981515432940721 8.1350725258116281 #
point $-1 -50.603604773998171 5.6981515432940721 8.1350725258116299 #
edge $-1 $785 1 $785 0 $485 $-1 forward 7 unknown #
vertex $-1 $486 $786 #
ellipse-curve $-1 -52.181473925714656 7.8916508307480093 3.948988078340677 -0.82903758062907751 0 0.55919289150049634 0.27959644575024817 0 0.41451879031453875 1 I I #
point $-1 -52.758037723224618 7.8916508307480093 4.9409942265300675 #
edge $-1 $787 1 $787 0 $489 $-1 forward 7 unknown #
vertex $-1 $490 $788 #
ellipse-curve $-1 -52.181473925714656 11.181899761928928 3.948988078340677 -0.82903758062907751 0 0.55919289150049634 0.27959644575024817 0 0.41451879031453875 1 I I #
point $-1 -52.758037723224618 11.181899761928928 4.9409942265300675 #
loop $-1 $-1 $501 $493 #
plane-surface $-1 -55.471663563951537 0 0 1 0 0 0 0 -1 forward_v I I I I #
coedge $-1 $676 $496 $498 $680 reversed $339 $-1 #
coedge $-1 $496 $675 $789 $790 reversed $339 $-1 #
coedge $-1 $504 $499 $496 $678 forward $494 $-1 #
edge $-1 $681 -23.120320762506125 $791 -18.252261972552759 $677 $792 forward 7 unknown #
coedge $-1 $498 $497 $684 $793 reversed $214 $-1 #
edge $-1 $794 -2.5434524534472062e-014 $681 8.7055090719961949 $675 $795 forward 7 unknown #
vertex $-1 $500 $796 #
straight-curve $-1 -50.603604773998164 10.905510996776068 8.1350725258116281 0 1 0 I I #
coedge $-1 $789 $501 $504 $688 reversed $673 $-1 #
coedge $-1 $501 $789 $679 $793 forward $673 $-1 #
vertex $-1 $502 $797 #
straight-curve $-1 -55.471663563951537 17.972398240507736 31.478299117978498 0 0 1 I I #
straight-curve $-1 -55.471663563951523 17.972398240507736 0.91787834661941758 -0.55919289150049634 0 -0.82903758062907751 I I #
edge $-1 $791 -25.649645746596534 $505 -17.972398240507736 $683 $798 forward 7 unknown #
point $-1 -55.471663563951537 17.972398240507736 8.1350725258116281 #
point $-1 -50.603604773998171 17.972398240507736 8.1350725258116299 #
edge $-1 $799 1 $799 0 $508 $-1 forward 7 unknown #
vertex $-1 $509 $800 #
ellipse-curve $-1 -52.181473925714656 20.165897527961672 3.948988078340677 -0.82903758062907751 0 0.55919289150049634 0.27959644575024817 0 0.41451879031453875 1 I I #
point $-1 -52.758037723224618 20.165897527961672 4.9409942265300675 #
edge $-1 $801 1 $801 0 $512 $-1 forward 7 unknown #
vertex $-1 $513 $802 #
ellipse-curve $-1 -52.181473925714656 23.456146459142591 3.948988078340677 -0.82903758062907751 0 0.55919289150049634 0.27959644575024817 0 0.41451879031453875 1 I I #
point $-1 -52.758037723224618 23.456146459142591 4.9409942265300675 #
plane-surface $-1 55.471663563951537 0 0 -1 0 0 0 0 1 forward_v I I I I #
coedge $-1 $521 $519 $523 $704 reversed $361 $-1 #
edge $-1 $534 -8.1350725258116281 $706 8.1350725258116281 $533 $803 forward 7 unknown #
vertex $-1 $704 $804 #
straight-curve $-1 -55.471663563951537 -27.858567937509886 0 0 0 -1 I I #
edge $-1 $702 -27.858567937509886 $706 27.858567937509886 $700 $805 forward 7 unknown #
straight-curve $-1 0 -27.858567937509886 -8.1350725258116281 -1 0 0 I I #
vertex $-1 $526 $806 #
straight-curve $-1 0 27.858567937509886 -8.1350725258116281 1 0 0 I I #
point $-1 55.471663563951537 27.858567937509886 -8.1350725258116281 #
point $-1 55.471663563951537 -27.858567937509886 -8.1350725258116281 #
straight-curve $-1 -55.471663563951537 0 8.1350725258116281 0 -1 0 I I #
point $-1 -55.471663563951537 27.858567937509886 8.1350725258116281 #
point $-1 -55.471663563951537 -27.858567937509886 8.1350725258116281 #
straight-curve $-1 55.471663563951537 -27.858567937509886 0 0 0 -1 I I #
straight-curve $-1 55.471663563951537 27.858567937509886 0 0 0 -1 I I #
plane-surface $-1 55.471663563951537 0 0 -1 0 0 0 0 1 forward_v I I I I #
coedge $-1 $547 $546 $557 $727 reversed $236 $-1 #
coedge $-1 $807 $550 $547 $718 forward $544 $-1 #
edge $-1 $719 21.059264042046603 $808 27.858567937509886 $547 $809 forward 7 unknown #
vertex $-1 $718 $810 #
straight-curve $-1 -55.471663563951537 -21.059264042046603 3.0972587369879481 0 0 -1 I I #
coedge $-1 $550 $807 $552 $723 forward $544 $-1 #
straight-curve $-1 0 -21.059264042046603 8.1350725258116281 -1 0 0 I I #
edge $-1 $730 -27.858567937509886 $553 -21.059264042046603 $552 $811 forward 7 unknown #
point $-1 55.471663563951537 -21.059264042046603 8.1350725258116281 #
straight-curve $-1 -55.471663563951537 -12.229457994889122 4.2539624221401642 0 -1 0 I I #
coedge $-1 $557 $556 $807 $812 reversed $380 $-1 #
edge $-1 $808 -8.1350725258116281 $558 -4.2539624221401642 $716 $813 forward 7 unknown #
point $-1 -55.471663563951537 -27.858567937509886 4.2539624221401642 #
point $-1 -55.471663563951537 -21.059264042046603 4.2539624221401642 #
vertex $-1 $723 $814 #
straight-curve $-1 55.471663563951537 -27.858567937509886 0 0 0 -1 I I #
edge $-1 $733 72.741453111123192 $736 76.02103224214062 $566 $815 forward 7 unknown #
vertex $-1 $580 $816 #
straight-curve $-1 27.735832692181781 12.92580458350983 8.1350725258116228 1 0 0 I I #
edge $-1 $736 4.0220159237870003 $577 13.785561395658659 $576 $817 forward 7 unknown #
vertex $-1 $735 $818 #
straight-curve $-1 -22.977114465380168 12.92580458350983 83.304273244537924 -0.70710677298230451 0 0.70710678939079041 I I #
point $-1 52.192084509037088 12.92580458350983 8.1350725258116228 #
point $-1 55.471663563951537 22.689350055381489 4.8554933947941947 #
straight-curve $-1 55.471663563951537 0 8.1350725258116281 0 1 0 I I #
vertex $-1 $583 $819 #
point $-1 53.301543940349099 14.878513677884168 5.6113994899729223 #
vertex $-1 $587 $820 #
point $-1 53.301543940349099 17.807577319445667 5.6113994899729223 #
vertex $-1 $591 $821 #
point $-1 53.301543940349099 20.736640961007165 5.6113994899729223 #
coedge $-1 $606 $605 $598 $748 forward $595 $-1 #
edge $-1 $749 23.343226592166872 $752 30.560420771359102 $747 $822 forward 7 unknown #
vertex $-1 $610 $823 #
straight-curve $-1 -73.723925536504296 -11.173094345044458 8.1350725258116299 -1 0 0 I I #
edge $-1 $752 3.6672352960000287 $607 11.34448280208883 $606 $824 forward 7 unknown #
vertex $-1 $751 $825 #
straight-curve $-1 -55.471663563951523 -11.173094345044458 0.91787834661941758 0.55919289150049634 0 0.82903758062907751 I I #
point $-1 -50.603604773998171 -11.173094345044458 8.1350725258116299 #
point $-1 -55.471663563951537 -18.850341851133258 0.91787834661939649 #
straight-curve $-1 -55.471663563951537 0 8.1350725258116281 0 -1 0 I I #
vertex $-1 $613 $826 #
point $-1 -51.901877479964405 -16.656842563679316 4.3635068686552154 #
vertex $-1 $617 $827 #
point $-1 -51.901877479964405 -13.3665936324984 4.3635068686552154 #
coedge $-1 $632 $631 $624 $762 forward $621 $-1 #
edge $-1 $763 23.343226592166872 $766 30.560420771359102 $761 $828 forward 7 unknown #
vertex $-1 $636 $829 #
straight-curve $-1 -73.723925536504296 1.1011523521692066 8.1350725258116299 -1 0 0 I I #
edge $-1 $766 -2.4698880526068034 $633 5.2073594534819971 $632 $830 forward 7 unknown #
vertex $-1 $765 $831 #
straight-curve $-1 -55.471663563951523 1.1011523521692066 0.91787834661941758 0.55919289150049634 0 0.82903758062907751 I I #
point $-1 -50.603604773998171 1.1011523521692066 8.1350725258116299 #
point $-1 -55.471663563951537 -6.576095153919594 0.91787834661939649 #
straight-curve $-1 -55.471663563951537 0 8.1350725258116281 0 -1 0 I I #
vertex $-1 $639 $832 #
point $-1 -51.901877479964405 -4.3825958664656532 4.3635068686552154 #
vertex $-1 $643 $833 #
point $-1 -51.901877479964405 -1.0923469352847341 4.3635068686552154 #
coedge $-1 $658 $657 $650 $776 forward $647 $-1 #
edge $-1 $777 23.343226592166872 $780 30.560420771359102 $775 $834 forward 7 unknown #
vertex $-1 $662 $835 #
straight-curve $-1 -73.723925536504296 13.375399049382873 8.1350725258116299 -1 0 0 I I #
edge $-1 $780 -8.6070114012136365 $659 -0.92976389512483593 $658 $836 forward 7 unknown #
vertex $-1 $779 $837 #
straight-curve $-1 -55.471663563951523 13.375399049382873 0.91787834661941758 0.55919289150049634 0 0.82903758062907751 I I #
point $-1 -50.603604773998171 13.375399049382873 8.1350725258116299 #
point $-1 -55.471663563951537 5.6981515432940721 0.91787834661939649 #
straight-curve $-1 -55.471663563951537 0 8.1350725258116281 0 -1 0 I I #
vertex $-1 $665 $838 #
point $-1 -51.901877479964405 7.8916508307480093 4.3635068686552154 #
vertex $-1 $669 $839 #
point $-1 -51.901877479964405 11.181899761928928 4.3635068686552154 #
coedge $-1 $684 $683 $676 $790 forward $673 $-1 #
edge $-1 $791 23.343226592166872 $794 30.560420771359102 $789 $840 forward 7 unknown #
vertex $-1 $688 $841 #
straight-curve $-1 -73.723925536504296 25.649645746596534 8.1350725258116299 -1 0 0 I I #
edge $-1 $794 -14.744134749820466 $685 -7.066887243731669 $684 $842 forward 7 unknown #
vertex $-1 $793 $843 #
straight-curve $-1 -55.471663563951523 25.649645746596534 0.91787834661941758 0.55919289150049634 0 0.82903758062907751 I I #
point $-1 -50.603604773998171 25.649645746596534 8.1350725258116299 #
point $-1 -55.471663563951537 17.972398240507736 0.91787834661939649 #
straight-curve $-1 -55.471663563951537 0 8.1350725258116281 0 -1 0 I I #
vertex $-1 $691 $844 #
point $-1 -51.901877479964405 20.165897527961672 4.3635068686552154 #
vertex $-1 $695 $845 #
point $-1 -51.901877479964405 23.456146459142591 4.3635068686552154 #
straight-curve $-1 -55.471663563951537 27.858567937509886 0 0 0 -1 I I #
point $-1 -55.471663563951537 -27.858567937509886 -8.1350725258116281 #
straight-curve $-1 -55.471663563951537 0 -8.1350725258116281 0 1 0 I I #
point $-1 -55.471663563951537 27.858567937509886 -8.1350725258116281 #
coedge $-1 $721 $717 $726 $812 forward $544 $-1 #
vertex $-1 $718 $846 #
straight-curve $-1 -55.471663563951537 0 8.1350725258116281 0 -1 0 I I #
point $-1 -55.471663563951537 -21.059264042046603 8.1350725258116281 #
straight-curve $-1 55.471663563951537 0 8.1350725258116281 0 1 0 I I #
edge $-1 $808 -55.471663563951537 $730 55.471663563951537 $726 $847 forward 7 unknown #
straight-curve $-1 -55.471663563951537 -27.858567937509886 0 0 0 -1 I I #
point $-1 55.471663563951537 -27.858567937509886 8.1350725258116281 #
straight-curve $-1 55.471663563951537 12.92580458350983 80.876525636934815 0 0 -1 I I #
point $-1 55.471663563951537 12.92580458350983 8.1350725258116281 #
straight-curve $-1 55.471663563951537 8.9037886597228297 4.8554933947942018 0 1 0 I I #
point $-1 55.471663563951537 12.92580458350983 4.8554933947941947 #
point $-1 52.947990549755829 14.878513677884168 5.6113994940750436 #
point $-1 52.947990549755829 17.807577319445667 5.6113994940750436 #
point $-1 52.947990549755829 20.736640961007165 5.6113994940750436 #
straight-curve $-1 -55.471663563951537 -11.173094345044458 31.478299117978498 0 0 -1 I I #
point $-1 -55.471663563951537 -11.173094345044458 8.1350725258116281 #
straight-curve $-1 -55.471663563951537 -7.505859049044429 0.91787834661940038 0 -1 0 I I #
point $-1 -55.471663563951537 -11.173094345044458 0.91787834661939649 #
point $-1 -51.76695513540011 -16.656842563679316 3.6693916325904281 #
point $-1 -51.76695513540011 -13.3665936324984 3.6693916325904281 #
straight-curve $-1 -55.471663563951537 1.1011523521692066 31.478299117978498 0 0 -1 I I #
point $-1 -55.471663563951537 1.1011523521692066 8.1350725258116281 #
straight-curve $-1 -55.471663563951537 -1.3687357004375968 0.91787834661940038 0 -1 0 I I #
point $-1 -55.471663563951537 1.1011523521692066 0.91787834661939649 #
point $-1 -51.76695513540011 -4.3825958664656532 3.6693916325904281 #
point $-1 -51.76695513540011 -1.0923469352847341 3.6693916325904281 #
straight-curve $-1 -55.471663563951537 13.375399049382873 31.478299117978498 0 0 -1 I I #
point $-1 -55.471663563951537 13.375399049382873 8.1350725258116281 #
straight-curve $-1 -55.471663563951537 4.7683876481692362 0.91787834661940038 0 -1 0 I I #
point $-1 -55.471663563951537 13.375399049382873 0.91787834661939649 #
point $-1 -51.76695513540011 7.8916508307480093 3.6693916325904281 #
point $-1 -51.76695513540011 11.181899761928928 3.6693916325904281 #
straight-curve $-1 -55.471663563951537 25.649645746596534 31.478299117978498 0 0 -1 I I #
point $-1 -55.471663563951537 25.649645746596534 8.1350725258116281 #
straight-curve $-1 -55.471663563951537 10.905510996776068 0.91787834661940038 0 -1 0 I I #
point $-1 -55.471663563951537 25.649645746596534 0.91787834661939649 #
point $-1 -51.76695513540011 20.165897527961672 3.6693916325904281 #
point $-1 -51.76695513540011 23.456146459142591 3.6693916325904281 #
point $-1 -55.471663563951537 -27.858567937509886 8.1350725258116281 #
straight-curve $-1 0 -27.858567937509886 8.1350725258116281 1 0 0 I I #
End-of-ACIS-data 