500 0 4 0           
7 Unknown 11 ACIS 5.0 NT 24 Fri Mar 26 18:46:20 1999 
-1 9.9999999999999995e-007 1e-010 
body $-1 $4 $-1 $5 #
body $-1 $6 $-1 $7 #
body $-1 $8 $-1 $9 #
body $-1 $10 $-1 $11 #
lump $-1 $-1 $12 $0 #
transform $-1 1 0 0 0 1 0 0 0 1 78.497268593401898 40.717388695169369 17.783459619600158 1 rotate no_reflect no_shear #
lump $-1 $-1 $13 $1 #
transform $-1 1 0 0 0 1 0 0 0 1 78.497268593401898 40.717388695169369 17.783459619600158 1 rotate no_reflect no_shear #
lump $-1 $-1 $14 $2 #
transform $-1 1 0 0 0 1 0 0 0 1 78.497268593401898 40.717388695169369 17.783459619600158 1 rotate no_reflect no_shear #
lump $-1 $-1 $15 $3 #
transform $-1 1 0 0 0 1 0 0 0 1 78.497268593401898 40.717388695169369 17.783459619600158 1 rotate no_reflect no_shear #
shell $-1 $-1 $-1 $16 $-1 $4 #
shell $-1 $-1 $-1 $17 $-1 $6 #
shell $-1 $-1 $-1 $18 $-1 $8 #
shell $-1 $-1 $-1 $19 $-1 $10 #
face $-1 $20 $21 $12 $-1 $22 forward single #
face $-1 $23 $24 $13 $-1 $25 forward single #
face $-1 $26 $27 $14 $-1 $28 reversed single #
face $-1 $29 $30 $15 $-1 $31 forward single #
face $-1 $32 $33 $12 $-1 $34 reversed single #
loop $-1 $-1 $35 $16 #
plane-surface $-1 0 0 17.783459619600158 0 0 1 1 0 0 forward_v I I I I #
face $-1 $36 $37 $13 $-1 $38 forward single #
loop $-1 $-1 $39 $17 #
plane-surface $-1 0 -40.717388695169369 0 0 1 0 0 0 1 forward_v I I I I #
face $-1 $40 $41 $14 $-1 $42 reversed single #
loop $-1 $-1 $43 $18 #
plane-surface $-1 4.7515860272303243 82.255467476271633 179.18053918407625 1 0 0 0 -0.6560590369687036 -0.75470957328743171 forward_v I I I I #
face $-1 $44 $45 $15 $-1 $46 forward single #
loop $-1 $47 $48 $19 #
cone-surface $-1 25.044640396804837 33.479309539057979 11.156875501714952 0 -0.6560590369687036 -0.75470957328743171 2 0 0 1 I I 0 1 2 forward I I I I #
face $-1 $49 $50 $12 $-1 $51 reversed single #
loop $-1 $-1 $52 $20 #
plane-surface $-1 0 0 -17.783459619600158 0 0 1 1 0 0 forward_v I I I I #
coedge $-1 $53 $54 $55 $56 forward $21 $-1 #
face $-1 $57 $58 $13 $-1 $59 reversed single #
loop $-1 $-1 $60 $23 #
plane-surface $-1 0 0 17.783459619600158 0 0 1 1 0 0 forward_v I I I I #
coedge $-1 $61 $62 $63 $64 forward $24 $-1 #
face $-1 $65 $66 $14 $-1 $67 reversed single #
loop $-1 $-1 $68 $26 #
plane-surface $-1 25.044640396804837 -20.74221739985019 60.695259015365735 0 0.6560590369687036 0.75470957328743171 1 0 0 forward_v I I I I #
coedge $-1 $69 $70 $71 $72 reversed $27 $-1 #
face $-1 $-1 $73 $15 $-1 $74 forward single #
loop $-1 $75 $76 $29 #
cone-surface $-1 25.044640396804837 31.632785759510305 9.0326929278927111 0 -0.6560590369687036 -0.75470957328743171 1 0 0 1 I I -0.70710678118654746 0.70710678118654746 1 forward I I I I #
loop $-1 $-1 $77 $19 #
coedge $-1 $48 $48 $78 $79 reversed $30 $-1 #
face $-1 $80 $81 $12 $-1 $82 reversed single #
loop $-1 $-1 $83 $32 #
plane-surface $-1 0 -40.717388695169369 0 0 1 0 0 0 1 forward_v I I I I #
coedge $-1 $84 $85 $86 $87 forward $33 $-1 #
coedge $-1 $88 $35 $89 $90 forward $21 $-1 #
coedge $-1 $35 $88 $91 $92 forward $21 $-1 #
coedge $-1 $93 $94 $35 $56 reversed $95 $-1 #
edge $-1 $96 -40.717388695169369 $97 40.717388695169369 $55 $98 forward 7 unknown #
face $-1 $99 $100 $13 $-1 $101 reversed single #
loop $-1 $-1 $102 $36 #
plane-surface $-1 -78.497268593401898 0 0 1 0 0 0 0 -1 forward_v I I I I #
coedge $-1 $103 $104 $62 $105 forward $37 $-1 #
coedge $-1 $106 $39 $107 $108 reversed $24 $-1 #
coedge $-1 $39 $106 $60 $105 reversed $24 $-1 #
coedge $-1 $109 $110 $39 $64 reversed $111 $-1 #
edge $-1 $112 -17.783459619600158 $113 17.783459619600158 $63 $114 forward 7 unknown #
face $-1 $115 $116 $14 $-1 $117 reversed single #
loop $-1 $-1 $118 $40 #
plane-surface $-1 45.33769476637935 82.255467476271633 179.18053918407625 -1 0 0 0 0.6560590369687036 0.75470957328743171 forward_v I I I I #
coedge $-1 $119 $120 $121 $122 reversed $41 $-1 #
coedge $-1 $70 $43 $123 $124 reversed $27 $-1 #
coedge $-1 $43 $69 $119 $125 reversed $27 $-1 #
coedge $-1 $121 $126 $43 $72 forward $127 $-1 #
edge $-1 $128 0.41034504296644769 $129 12.505573870031327 $71 $130 forward 7 unknown #
loop $-1 $-1 $78 $44 #
plane-surface $-1 25.044640396804837 -20.74221739985019 60.695259015365735 0 0.6560590369687036 0.75470957328743171 1 0 0 forward_v I I I I #
loop $-1 $-1 $131 $29 #
coedge $-1 $76 $76 $77 $132 reversed $45 $-1 #
coedge $-1 $77 $77 $76 $132 forward $47 $-1 #
coedge $-1 $78 $78 $48 $79 forward $73 $-1 #
edge $-1 $133 2.7995237654562005e-015 $133 6.2831853071796031 $78 $134 forward 7 unknown #
face $-1 $135 $136 $12 $-1 $137 reversed single #
loop $-1 $-1 $138 $49 #
plane-surface $-1 -78.497268593401898 0 0 1 0 0 0 0 -1 forward_v I I I I #
coedge $-1 $139 $91 $140 $141 forward $50 $-1 #
coedge $-1 $142 $52 $139 $143 forward $33 $-1 #
coedge $-1 $52 $142 $144 $145 forward $33 $-1 #
coedge $-1 $94 $93 $52 $87 reversed $95 $-1 #
edge $-1 $146 -40.717388695169369 $147 40.717388695169369 $86 $148 forward 7 unknown #
coedge $-1 $54 $53 $149 $150 forward $21 $-1 #
coedge $-1 $151 $152 $53 $90 reversed $136 $-1 #
edge $-1 $97 -78.497268593401898 $153 78.497268593401898 $89 $154 forward 7 unknown #
coedge $-1 $83 $155 $54 $92 reversed $50 $-1 #
edge $-1 $156 -78.497268593401898 $96 78.497268593401898 $91 $157 forward 7 unknown #
coedge $-1 $86 $55 $155 $158 forward $95 $-1 #
coedge $-1 $55 $86 $151 $159 reversed $95 $-1 #
loop $-1 $-1 $93 $135 #
vertex $-1 $56 $160 #
vertex $-1 $56 $161 #
straight-curve $-1 78.497268593401898 0 17.783459619600158 0 1 0 I I #
face $-1 $162 $111 $13 $-1 $163 reversed single #
loop $-1 $-1 $164 $57 #
plane-surface $-1 -74.067278385418675 -55.773537393732902 0 0 1 0 0 0 1 forward_v I I I I #
coedge $-1 $165 $166 $106 $167 forward $58 $-1 #
coedge $-1 $168 $60 $166 $169 forward $37 $-1 #
coedge $-1 $60 $168 $109 $170 forward $37 $-1 #
edge $-1 $112 69.637288177435451 $171 78.497268593401898 $60 $172 forward 7 unknown #
coedge $-1 $62 $61 $102 $167 reversed $24 $-1 #
coedge $-1 $173 $174 $61 $108 forward $175 $-1 #
edge $-1 $176 -78.497268593401898 $113 -69.637288177435451 $107 $177 forward 7 unknown #
coedge $-1 $178 $63 $104 $170 reversed $111 $-1 #
coedge $-1 $63 $178 $173 $179 reversed $111 $-1 #
loop $-1 $-1 $178 $99 #
vertex $-1 $105 $180 #
vertex $-1 $179 $181 #
straight-curve $-1 -69.637288177435451 -40.717388695169369 0 0 0 -1 I I #
face $-1 $-1 $127 $14 $-1 $182 forward single #
loop $-1 $-1 $183 $65 #
plane-surface $-1 0 40.717388695169369 0 0 -1 0 0 0 -1 forward_v I I I I #
coedge $-1 $184 $185 $186 $187 reversed $66 $-1 #
coedge $-1 $188 $68 $70 $125 forward $41 $-1 #
coedge $-1 $68 $188 $184 $189 forward $41 $-1 #
coedge $-1 $186 $71 $68 $122 forward $127 $-1 #
edge $-1 $129 -7.7707341711720943 $190 32.815374567976932 $121 $191 forward 7 unknown #
coedge $-1 $192 $193 $69 $124 forward $116 $-1 #
edge $-1 $194 -82.321032207138799 $128 -71.806809972437975 $123 $195 forward 7 unknown #
edge $-1 $129 65.408441889678031 $194 81.43477739033878 $70 $196 forward 7 unknown #
coedge $-1 $71 $186 $192 $197 forward $127 $-1 #
loop $-1 $-1 $186 $115 #
vertex $-1 $124 $198 #
vertex $-1 $72 $199 #
straight-curve $-1 4.7515860272303243 41.127733738135817 17.783459619600166 0 -1 0 I I #
coedge $-1 $131 $131 $-1 $200 reversed $75 $-1 #
edge $-1 $201 0 $201 6.2831853071796004 $76 $202 forward 7 unknown #
vertex $-1 $79 $203 #
ellipse-curve $-1 25.044640396804837 34.669774281636933 12.526348502249744 0 0.6560590369687036 0.75470957328743171 2 0 0 1 I I #
face $-1 $-1 $95 $12 $-1 $204 reversed single #
loop $-1 $-1 $151 $80 #
plane-surface $-1 0 40.717388695169369 0 0 -1 0 0 0 -1 forward_v I I I I #
coedge $-1 $205 $149 $152 $206 forward $81 $-1 #
coedge $-1 $155 $83 $84 $143 reversed $50 $-1 #
coedge $-1 $149 $205 $83 $141 reversed $81 $-1 #
edge $-1 $156 -17.783459619600158 $207 17.783459619600158 $140 $208 forward 7 unknown #
coedge $-1 $85 $84 $205 $209 forward $33 $-1 #
edge $-1 $147 -78.497268593401898 $207 78.497268593401898 $139 $210 forward 7 unknown #
coedge $-1 $152 $151 $85 $145 reversed $136 $-1 #
edge $-1 $211 -78.497268593401898 $146 78.497268593401898 $144 $212 forward 7 unknown #
vertex $-1 $87 $213 #
vertex $-1 $158 $214 #
straight-curve $-1 78.497268593401898 0 -17.783459619600158 0 -1 0 I I #
coedge $-1 $138 $140 $88 $150 reversed $81 $-1 #
edge $-1 $153 -40.717388695169369 $156 40.717388695169369 $149 $215 forward 7 unknown #
coedge $-1 $144 $89 $94 $159 forward $136 $-1 #
coedge $-1 $89 $144 $138 $206 reversed $136 $-1 #
vertex $-1 $90 $216 #
straight-curve $-1 0 40.717388695169369 17.783459619600158 -1 0 0 I I #
coedge $-1 $91 $139 $93 $158 reversed $50 $-1 #
vertex $-1 $150 $217 #
straight-curve $-1 0 -40.717388695169369 17.783459619600158 1 0 0 I I #
edge $-1 $96 -17.783459619600158 $147 17.783459619600158 $93 $218 forward 7 unknown #
edge $-1 $97 -17.783459619600158 $146 17.783459619600158 $94 $219 forward 7 unknown #
point $-1 78.497268593401898 -40.717388695169369 17.783459619600158 #
point $-1 78.497268593401898 40.717388695169369 17.783459619600158 #
face $-1 $-1 $175 $13 $-1 $220 reversed single #
plane-surface $-1 -69.637288177435451 -48.245463044451135 0 -1 0 0 0 0 1 forward_v I I I I #
coedge $-1 $221 $222 $223 $224 forward $100 $-1 #
coedge $-1 $223 $102 $174 $225 reversed $58 $-1 #
coedge $-1 $102 $223 $103 $169 reversed $58 $-1 #
edge $-1 $171 -17.783459619600158 $176 17.783459619600158 $102 $226 forward 7 unknown #
coedge $-1 $104 $103 $222 $227 forward $37 $-1 #
edge $-1 $171 40.717388695169369 $228 55.773537393732902 $166 $229 forward 7 unknown #
edge $-1 $230 -7.5280743492817663 $112 7.5280743492817663 $109 $231 forward 7 unknown #
vertex $-1 $169 $232 #
straight-curve $-1 0 -40.717388695169369 17.783459619600158 -1 0 0 I I #
coedge $-1 $233 $107 $110 $179 forward $175 $-1 #
coedge $-1 $107 $233 $165 $225 forward $175 $-1 #
loop $-1 $-1 $107 $162 #
vertex $-1 $167 $234 #
straight-curve $-1 0 -40.717388695169369 -17.783459619600158 1 0 0 I I #
coedge $-1 $110 $109 $235 $236 forward $111 $-1 #
edge $-1 $113 -7.5280743492817663 $237 7.5280743492817663 $110 $238 forward 7 unknown #
point $-1 -69.637288177435451 -40.717388695169369 17.783459619600158 #
point $-1 -69.637288177435451 -40.717388695169369 -17.783459619600158 #
plane-surface $-1 0 0 17.783459619600158 0 0 1 1 0 0 forward_v I I I I #
coedge $-1 $193 $192 $185 $239 forward $116 $-1 #
coedge $-1 $185 $118 $120 $189 reversed $66 $-1 #
coedge $-1 $118 $184 $183 $239 reversed $66 $-1 #
coedge $-1 $126 $121 $118 $187 forward $127 $-1 #
edge $-1 $190 -12.505573870031327 $240 -0.41034504296644769 $186 $241 forward 7 unknown #
coedge $-1 $120 $119 $193 $242 reversed $41 $-1 #
edge $-1 $243 -81.43477739033878 $190 -65.408441889678031 $184 $244 forward 7 unknown #
vertex $-1 $122 $245 #
straight-curve $-1 12.522320198402419 28.62215986810449 17.783459619600162 1 0 0 I I #
coedge $-1 $183 $123 $126 $197 reversed $116 $-1 #
coedge $-1 $123 $183 $188 $242 forward $116 $-1 #
vertex $-1 $124 $246 #
straight-curve $-1 4.7515860272303243 40.717388695169369 89.590269592038126 0 0 1 I I #
straight-curve $-1 4.7515860272303243 -20.74221739985019 60.695259015365735 0 0.75470957328743171 -0.6560590369687036 I I #
edge $-1 $240 -45.33769476637935 $128 -4.7515860272303243 $192 $247 forward 7 unknown #
point $-1 4.7515860272303243 40.717388695169369 17.783459619600158 #
point $-1 4.7515860272303243 28.62215986810449 17.783459619600158 #
edge $-1 $248 1 $248 0 $131 $-1 forward 7 unknown #
vertex $-1 $132 $249 #
ellipse-curve $-1 25.044640396804837 32.288844796479012 9.7874025011801429 0 0.6560590369687036 0.75470957328743171 2 0 0 1 I I #
point $-1 27.044640396804837 34.669774281636954 12.52634850224976 #
plane-surface $-1 78.497268593401898 0 0 -1 0 0 0 0 1 forward_v I I I I #
coedge $-1 $140 $138 $142 $209 reversed $81 $-1 #
edge $-1 $153 -17.783459619600158 $211 17.783459619600158 $152 $250 forward 7 unknown #
vertex $-1 $209 $251 #
straight-curve $-1 -78.497268593401898 -40.717388695169369 0 0 0 -1 I I #
edge $-1 $207 -40.717388695169369 $211 40.717388695169369 $205 $252 forward 7 unknown #
straight-curve $-1 0 -40.717388695169369 -17.783459619600158 -1 0 0 I I #
vertex $-1 $145 $253 #
straight-curve $-1 0 40.717388695169369 -17.783459619600158 1 0 0 I I #
point $-1 78.497268593401898 40.717388695169369 -17.783459619600158 #
point $-1 78.497268593401898 -40.717388695169369 -17.783459619600158 #
straight-curve $-1 -78.497268593401898 0 17.783459619600158 0 -1 0 I I #
point $-1 -78.497268593401898 40.717388695169369 17.783459619600158 #
point $-1 -78.497268593401898 -40.717388695169369 17.783459619600158 #
straight-curve $-1 78.497268593401898 -40.717388695169369 0 0 0 -1 I I #
straight-curve $-1 78.497268593401898 40.717388695169369 0 0 0 -1 I I #
plane-surface $-1 0 0 -17.783459619600158 0 0 1 1 0 0 forward_v I I I I #
coedge $-1 $235 $164 $233 $254 reversed $100 $-1 #
coedge $-1 $164 $235 $168 $227 reversed $100 $-1 #
coedge $-1 $166 $165 $164 $224 reversed $58 $-1 #
edge $-1 $228 -17.783459619600158 $255 17.783459619600158 $223 $256 forward 7 unknown #
edge $-1 $255 -55.773537393732902 $176 -40.717388695169369 $165 $257 forward 7 unknown #
straight-curve $-1 -78.497268593401898 -40.717388695169369 0 0 0 -1 I I #
edge $-1 $228 -4.4299902079832236 $230 4.4299902079832236 $222 $258 forward 7 unknown #
vertex $-1 $169 $259 #
straight-curve $-1 -78.497268593401898 0 17.783459619600158 0 -1 0 I I #
vertex $-1 $170 $260 #
straight-curve $-1 -69.637288177435451 -48.245463044451135 17.783459619600158 0 1 0 I I #
point $-1 -78.497268593401898 -40.717388695169369 17.783459619600158 #
coedge $-1 $174 $173 $221 $254 forward $175 $-1 #
point $-1 -78.497268593401898 -40.717388695169369 -17.783459619600158 #
coedge $-1 $222 $221 $178 $236 reversed $100 $-1 #
edge $-1 $230 -17.783459619600158 $237 17.783459619600158 $178 $261 forward 7 unknown #
vertex $-1 $236 $262 #
straight-curve $-1 -69.637288177435451 -48.245463044451135 -17.783459619600158 0 -1 0 I I #
edge $-1 $240 71.806809972437975 $243 82.321032207138799 $183 $263 forward 7 unknown #
vertex $-1 $197 $264 #
straight-curve $-1 45.33769476637935 41.127733738135817 17.783459619600166 0 1 0 I I #
edge $-1 $243 -32.815374567976932 $194 7.7707341711720943 $193 $265 forward 7 unknown #
vertex $-1 $242 $266 #
straight-curve $-1 45.33769476637935 -20.74221739985019 60.695259015365735 0 -0.75470957328743171 0.6560590369687036 I I #
point $-1 45.33769476637935 28.62215986810449 17.783459619600158 #
point $-1 4.7515860272303243 40.717388695169369 7.269237384899327 #
straight-curve $-1 0 40.717388695169369 17.783459619600158 -1 0 0 I I #
vertex $-1 $200 $267 #
point $-1 27.044640396804837 32.288844796479012 9.7874025011801429 #
straight-curve $-1 -78.497268593401898 40.717388695169369 0 0 0 -1 I I #
point $-1 -78.497268593401898 -40.717388695169369 -17.783459619600158 #
straight-curve $-1 -78.497268593401898 0 -17.783459619600158 0 1 0 I I #
point $-1 -78.497268593401898 40.717388695169369 -17.783459619600158 #
edge $-1 $237 -4.4299902079832236 $255 4.4299902079832236 $221 $268 forward 7 unknown #
vertex $-1 $225 $269 #
straight-curve $-1 -78.497268593401898 -55.773537393732902 0 0 0 -1 I I #
straight-curve $-1 -78.497268593401898 0 -17.783459619600158 0 1 0 I I #
straight-curve $-1 -74.067278385418675 -55.773537393732902 17.783459619600158 1 0 0 I I #
point $-1 -78.497268593401898 -55.773537393732902 17.783459619600158 #
point $-1 -69.637288177435451 -55.773537393732902 17.783459619600158 #
straight-curve $-1 -69.637288177435451 -55.773537393732902 0 0 0 -1 I I #
point $-1 -69.637288177435451 -55.773537393732902 -17.783459619600158 #
straight-curve $-1 45.33769476637935 40.717388695169369 89.590269592038126 0 0 -1 I I #
point $-1 45.33769476637935 40.717388695169369 17.783459619600158 #
straight-curve $-1 12.522320198402419 40.717388695169362 7.2692373848993341 -1 0 0 I I #
point $-1 45.33769476637935 40.717388695169369 7.269237384899327 #
point $-1 25.044640396804837 30.976726722541603 8.2779833546052792 #
straight-curve $-1 -74.067278385418675 -55.773537393732902 -17.783459619600158 -1 0 0 I I #
point $-1 -78.497268593401898 -55.773537393732902 -17.783459619600158 #
End-of-ACIS-data 