500 0 9 0           
7 Unknown 11 ACIS 5.0 NT 24 Thu Mar 25 18:01:22 1999 
-1 9.9999999999999995e-007 1e-010 
body $-1 $9 $-1 $10 #
body $-1 $11 $-1 $12 #
body $-1 $13 $-1 $14 #
body $-1 $15 $-1 $16 #
body $-1 $17 $-1 $18 #
body $-1 $19 $-1 $20 #
body $-1 $21 $-1 $22 #
body $-1 $23 $-1 $24 #
body $-1 $25 $-1 $26 #
lump $-1 $-1 $27 $0 #
transform $-1 1 0 0 0 1 0 0 0 1 48.373058259834593 30.170161434942521 9.8699620197719167 1 rotate no_reflect no_shear #
lump $-1 $-1 $28 $1 #
transform $-1 1 0 0 0 1 0 0 0 1 48.373058259834593 30.170161434942521 9.8699620197719167 1 rotate no_reflect no_shear #
lump $-1 $-1 $29 $2 #
transform $-1 1 0 0 0 1 0 0 0 1 48.373058259834593 30.170161434942521 9.8699620197719167 1 rotate no_reflect no_shear #
lump $-1 $-1 $30 $3 #
transform $-1 1 0 0 0 1 0 0 0 1 48.373058259834593 30.170161434942521 9.8699620197719167 1 rotate no_reflect no_shear #
lump $-1 $-1 $31 $4 #
transform $-1 1 0 0 0 1 0 0 0 1 48.373058259834593 30.170161434942521 9.8699620197719167 1 rotate no_reflect no_shear #
lump $-1 $-1 $32 $5 #
transform $-1 1 0 0 0 1 0 0 0 1 48.373058259834593 30.170161434942521 9.8699620197719167 1 rotate no_reflect no_shear #
lump $-1 $-1 $33 $6 #
transform $-1 1 0 0 0 1 0 0 0 1 48.373058259834593 30.170161434942521 9.8699620197719167 1 rotate no_reflect no_shear #
lump $-1 $-1 $34 $7 #
transform $-1 1 0 0 0 1 0 0 0 1 48.373058259834593 30.170161434942521 9.8699620197719167 1 rotate no_reflect no_shear #
lump $-1 $-1 $35 $8 #
transform $-1 1 0 0 0 1 0 0 0 1 48.373058259834593 30.170161434942521 9.8699620197719167 1 rotate no_reflect no_shear #
shell $-1 $-1 $-1 $36 $-1 $9 #
shell $-1 $-1 $-1 $37 $-1 $11 #
shell $-1 $-1 $-1 $38 $-1 $13 #
shell $-1 $-1 $-1 $39 $-1 $15 #
shell $-1 $-1 $-1 $40 $-1 $17 #
shell $-1 $-1 $-1 $41 $-1 $19 #
shell $-1 $-1 $-1 $42 $-1 $21 #
shell $-1 $-1 $-1 $43 $-1 $23 #
shell $-1 $-1 $-1 $44 $-1 $25 #
face $-1 $45 $46 $27 $-1 $47 forward single #
face $-1 $48 $49 $28 $-1 $50 reversed single #
face $-1 $51 $52 $29 $-1 $53 reversed single #
face $-1 $54 $55 $30 $-1 $56 forward single #
face $-1 $57 $58 $31 $-1 $59 forward single #
face $-1 $60 $61 $32 $-1 $62 forward single #
face $-1 $63 $64 $33 $-1 $65 reversed single #
face $-1 $66 $67 $34 $-1 $68 forward single #
face $-1 $69 $70 $35 $-1 $71 forward single #
face $-1 $72 $73 $27 $-1 $74 reversed single #
loop $-1 $-1 $75 $36 #
plane-surface $-1 0 0 9.8699620197719167 0 0 1 1 0 0 forward_v I I I I #
face $-1 $76 $77 $28 $-1 $78 reversed single #
loop $-1 $-1 $79 $37 #
plane-surface $-1 -44.013310456197559 -25.054787506434089 0 0 1 0 0 0 1 forward_v I I I I #
face $-1 $80 $81 $29 $-1 $82 reversed single #
loop $-1 $-1 $83 $38 #
plane-surface $-1 -9.6186336753869544 -94.905949823182823 72.280474129430502 -1 0 0 0 -0.66913061440640931 0.74314481823134659 forward_v I I I I #
face $-1 $84 $85 $30 $-1 $86 forward single #
loop $-1 $87 $88 $39 #
cone-surface $-1 -23.591351980070002 -23.565117196370991 3.6416026778821378 0 0.66913061440640931 -0.74314481823134659 1.5 0 0 1 I I 0 1 1.5 forward I I I I #
face $-1 $89 $90 $31 $-1 $91 forward single #
loop $-1 $92 $93 $40 #
cone-surface $-1 -18.351582615813857 -23.565117196370991 3.6416026778821378 0 0.66913061440640931 -0.74314481823134659 1.5 0 0 1 I I 0 1 1.5 forward I I I I #
face $-1 $94 $95 $32 $-1 $96 forward single #
loop $-1 $97 $98 $41 #
cone-surface $-1 -13.111813251557713 -23.565117196370991 3.6416026778821378 0 0.66913061440640931 -0.74314481823134659 1.5 0 0 1 I I 0 1 1.5 forward I I I I #
face $-1 $99 $100 $33 $-1 $101 reversed single #
loop $-1 $-1 $102 $42 #
plane-surface $-1 -2.723396822887878 36.233556374665589 116.21741404661857 1 0 0 0 -0.57357644374324357 -0.81915203911291934 forward_v I I I I #
face $-1 $103 $104 $34 $-1 $105 forward single #
loop $-1 $106 $107 $43 #
cone-surface $-1 1.3660575807948305 24.519167710907844 5.7043287989533447 0 -0.57357644374324357 -0.81915203911291934 0.5 0 0 1 I I 0 1 0.5 forward I I I I #
face $-1 $108 $109 $35 $-1 $110 forward single #
loop $-1 $111 $112 $44 #
cone-surface $-1 7.5002391863188933 24.519167710907844 5.7043287989533447 0 -0.57357644374324357 -0.81915203911291934 0.5 0 0 1 I I 0 1 0.5 forward I I I I #
face $-1 $113 $114 $27 $-1 $115 reversed single #
loop $-1 $-1 $116 $45 #
plane-surface $-1 0 0 -9.8699620197719167 0 0 1 1 0 0 forward_v I I I I #
coedge $-1 $117 $118 $119 $120 forward $46 $-1 #
face $-1 $121 $122 $28 $-1 $123 reversed single #
loop $-1 $-1 $124 $48 #
plane-surface $-1 -44.013310456197559 -19.253778852789281 0 0 -1 0 0 0 -1 forward_v I I I I #
coedge $-1 $125 $126 $127 $128 reversed $49 $-1 #
face $-1 $129 $130 $29 $-1 $131 reversed single #
loop $-1 $-1 $132 $51 #
plane-surface $-1 -18.351582615813861 -30.170161434942514 0.38409895383226456 0 -0.66913061440640931 0.74314481823134659 1 0 0 forward_v I I I I #
coedge $-1 $133 $134 $135 $136 reversed $52 $-1 #
face $-1 $-1 $137 $30 $-1 $138 forward single #
loop $-1 $139 $140 $54 #
cone-surface $-1 -23.591351980070002 -21.725783999775231 1.5988162552886696 0 0.66913061440640931 -0.74314481823134659 0.75 0 0 1 I I -0.70710678118654757 0.70710678118654757 0.75 forward I I I I #
loop $-1 $-1 $141 $39 #
coedge $-1 $88 $88 $142 $143 reversed $55 $-1 #
face $-1 $-1 $144 $31 $-1 $145 forward single #
loop $-1 $146 $147 $57 #
cone-surface $-1 -18.351582615813857 -21.725783999775231 1.5988162552886696 0 0.66913061440640931 -0.74314481823134659 0.75 0 0 1 I I -0.70710678118654757 0.70710678118654757 0.75 forward I I I I #
loop $-1 $-1 $148 $40 #
coedge $-1 $93 $93 $149 $150 reversed $58 $-1 #
face $-1 $-1 $151 $32 $-1 $152 forward single #
loop $-1 $153 $154 $60 #
cone-surface $-1 -13.111813251557713 -21.725783999775231 1.5988162552886696 0 0.66913061440640931 -0.74314481823134659 0.75 0 0 1 I I -0.70710678118654757 0.70710678118654757 0.75 forward I I I I #
loop $-1 $-1 $155 $41 #
coedge $-1 $98 $98 $156 $157 reversed $61 $-1 #
face $-1 $158 $159 $33 $-1 $160 reversed single #
loop $-1 $-1 $161 $63 #
plane-surface $-1 4.433148383556869 -19.25773708465573 36.967635423275468 0 0.57357644374324357 0.81915203911291934 1 0 0 forward_v I I I I #
coedge $-1 $162 $163 $164 $165 reversed $64 $-1 #
face $-1 $-1 $166 $34 $-1 $167 forward single #
loop $-1 $168 $169 $66 #
cone-surface $-1 1.3660575807948305 24.088985378100411 5.0899647696186552 0 -0.57357644374324357 -0.81915203911291934 0.25 0 0 1 I I -0.70710678118654746 0.70710678118654746 0.25 forward I I I I #
loop $-1 $-1 $170 $43 #
coedge $-1 $107 $107 $171 $172 reversed $67 $-1 #
face $-1 $-1 $173 $35 $-1 $174 forward single #
loop $-1 $175 $176 $69 #
cone-surface $-1 7.5002391863188933 24.088985378100411 5.0899647696186552 0 -0.57357644374324357 -0.81915203911291934 0.25 0 0 1 I I -0.70710678118654746 0.70710678118654746 0.25 forward I I I I #
loop $-1 $-1 $177 $44 #
coedge $-1 $112 $112 $178 $179 reversed $70 $-1 #
face $-1 $180 $181 $27 $-1 $182 reversed single #
loop $-1 $-1 $183 $72 #
plane-surface $-1 0 -30.170161434942521 0 0 1 0 0 0 1 forward_v I I I I #
coedge $-1 $184 $185 $186 $187 forward $73 $-1 #
coedge $-1 $188 $75 $189 $190 forward $46 $-1 #
coedge $-1 $75 $188 $191 $192 forward $46 $-1 #
coedge $-1 $193 $194 $75 $120 reversed $195 $-1 #
edge $-1 $196 -30.170161434942521 $197 30.170161434942521 $119 $198 forward 7 unknown #
face $-1 $199 $200 $28 $-1 $201 reversed single #
loop $-1 $-1 $202 $76 #
plane-surface $-1 -39.653562652560524 -22.154283179611685 0 -1 0 0 0 0 1 forward_v I I I I #
coedge $-1 $203 $204 $205 $206 forward $77 $-1 #
coedge $-1 $207 $79 $208 $209 reversed $49 $-1 #
coedge $-1 $79 $207 $210 $211 reversed $49 $-1 #
coedge $-1 $212 $213 $79 $128 forward $214 $-1 #
edge $-1 $215 -9.8699620197719167 $216 9.8699620197719167 $127 $217 forward 7 unknown #
face $-1 $218 $219 $29 $-1 $220 reversed single #
loop $-1 $-1 $221 $80 #
plane-surface $-1 -27.084531556240769 -94.905949823182823 72.280474129430502 1 0 0 0 0.66913061440640931 -0.74314481823134659 forward_v I I I I #
coedge $-1 $222 $223 $224 $225 reversed $81 $-1 #
coedge $-1 $134 $83 $226 $227 reversed $52 $-1 #
coedge $-1 $83 $133 $222 $228 reversed $52 $-1 #
coedge $-1 $224 $229 $83 $136 forward $230 $-1 #
edge $-1 $231 17.28281347664889 $232 27.817931482210064 $135 $233 forward 7 unknown #
loop $-1 $-1 $142 $84 #
plane-surface $-1 -18.351582615813861 -30.170161434942514 0.38409895383226456 0 -0.66913061440640931 0.74314481823134659 1 0 0 forward_v I I I I #
loop $-1 $-1 $234 $54 #
coedge $-1 $140 $140 $141 $235 reversed $85 $-1 #
coedge $-1 $141 $141 $140 $235 forward $87 $-1 #
coedge $-1 $142 $142 $88 $143 forward $137 $-1 #
edge $-1 $236 1.2342179586647117e-015 $236 6.2831853071796013 $142 $237 forward 7 unknown #
loop $-1 $-1 $149 $89 #
plane-surface $-1 -18.351582615813861 -30.170161434942514 0.38409895383226456 0 -0.66913061440640931 0.74314481823134659 1 0 0 forward_v I I I I #
loop $-1 $-1 $238 $57 #
coedge $-1 $147 $147 $148 $239 reversed $90 $-1 #
coedge $-1 $148 $148 $147 $239 forward $92 $-1 #
coedge $-1 $149 $149 $93 $150 forward $144 $-1 #
edge $-1 $240 1.2342179586647117e-015 $240 6.2831853071796013 $149 $241 forward 7 unknown #
loop $-1 $-1 $156 $94 #
plane-surface $-1 -18.351582615813861 -30.170161434942514 0.38409895383226456 0 -0.66913061440640931 0.74314481823134659 1 0 0 forward_v I I I I #
loop $-1 $-1 $242 $60 #
coedge $-1 $154 $154 $155 $243 reversed $95 $-1 #
coedge $-1 $155 $155 $154 $243 forward $97 $-1 #
coedge $-1 $156 $156 $98 $157 forward $151 $-1 #
edge $-1 $244 1.2342179586647117e-015 $244 6.2831853071796013 $156 $245 forward 7 unknown #
face $-1 $246 $247 $33 $-1 $248 reversed single #
loop $-1 $-1 $249 $99 #
plane-surface $-1 11.589693590001616 36.233556374665589 116.21741404661857 -1 0 0 0 0.57357644374324357 0.81915203911291934 forward_v I I I I #
coedge $-1 $250 $251 $252 $253 reversed $100 $-1 #
coedge $-1 $163 $102 $254 $255 reversed $64 $-1 #
coedge $-1 $102 $162 $250 $256 reversed $64 $-1 #
coedge $-1 $252 $257 $102 $165 forward $258 $-1 #
edge $-1 $259 -12.053383247609727 $260 -1.3249722432836215 $164 $261 forward 7 unknown #
loop $-1 $-1 $171 $103 #
plane-surface $-1 4.433148383556869 -19.25773708465573 36.967635423275468 0 0.57357644374324357 0.81915203911291934 1 0 0 forward_v I I I I #
loop $-1 $-1 $262 $66 #
coedge $-1 $169 $169 $170 $263 reversed $104 $-1 #
coedge $-1 $170 $170 $169 $263 forward $106 $-1 #
coedge $-1 $171 $171 $107 $172 forward $166 $-1 #
edge $-1 $264 -2.7637959924610318e-015 $264 6.2831853071795978 $171 $265 forward 7 unknown #
loop $-1 $-1 $178 $108 #
plane-surface $-1 4.433148383556869 -19.25773708465573 36.967635423275468 0 0.57357644374324357 0.81915203911291934 1 0 0 forward_v I I I I #
loop $-1 $-1 $266 $69 #
coedge $-1 $176 $176 $177 $267 reversed $109 $-1 #
coedge $-1 $177 $177 $176 $267 forward $111 $-1 #
coedge $-1 $178 $178 $112 $179 forward $173 $-1 #
edge $-1 $268 -2.7637959924610318e-015 $268 6.2831853071795978 $178 $269 forward 7 unknown #
face $-1 $270 $271 $27 $-1 $272 reversed single #
loop $-1 $-1 $273 $113 #
plane-surface $-1 -48.373058259834593 0 0 1 0 0 0 0 -1 forward_v I I I I #
coedge $-1 $274 $191 $275 $276 forward $114 $-1 #
coedge $-1 $277 $116 $274 $278 forward $73 $-1 #
coedge $-1 $116 $277 $279 $280 forward $73 $-1 #
coedge $-1 $194 $193 $116 $187 reversed $195 $-1 #
edge $-1 $281 -30.170161434942521 $282 30.170161434942521 $186 $283 forward 7 unknown #
coedge $-1 $118 $117 $284 $285 forward $46 $-1 #
coedge $-1 $286 $287 $117 $190 reversed $271 $-1 #
edge $-1 $197 -48.373058259834593 $288 48.373058259834593 $189 $289 forward 7 unknown #
coedge $-1 $183 $290 $118 $192 reversed $114 $-1 #
edge $-1 $291 -48.373058259834593 $196 48.373058259834593 $191 $292 forward 7 unknown #
coedge $-1 $186 $119 $290 $293 forward $195 $-1 #
coedge $-1 $119 $186 $286 $294 reversed $195 $-1 #
loop $-1 $-1 $193 $270 #
vertex $-1 $120 $295 #
vertex $-1 $120 $296 #
straight-curve $-1 48.373058259834593 0 9.8699620197719167 0 1 0 I I #
face $-1 $297 $298 $28 $-1 $299 forward single #
loop $-1 $-1 $300 $121 #
plane-surface $-1 0 0 -9.8699620197719167 0 0 1 1 0 0 forward_v I I I I #
coedge $-1 $301 $302 $207 $303 forward $122 $-1 #
coedge $-1 $304 $124 $300 $305 reversed $77 $-1 #
coedge $-1 $124 $304 $306 $307 reversed $77 $-1 #
coedge $-1 $302 $301 $124 $206 reversed $122 $-1 #
edge $-1 $308 -9.8699620197719167 $309 9.8699620197719167 $205 $310 forward 7 unknown #
coedge $-1 $126 $125 $202 $303 reversed $49 $-1 #
coedge $-1 $311 $312 $125 $209 forward $200 $-1 #
edge $-1 $313 17.646907424461745 $215 26.366403031735814 $208 $314 forward 7 unknown #
coedge $-1 $315 $316 $126 $211 forward $298 $-1 #
edge $-1 $216 -26.366403031735814 $317 -17.646907424461745 $210 $318 forward 7 unknown #
coedge $-1 $319 $127 $316 $320 reversed $214 $-1 #
coedge $-1 $127 $319 $311 $321 reversed $214 $-1 #
loop $-1 $-1 $319 $297 #
vertex $-1 $321 $322 #
vertex $-1 $128 $323 #
straight-curve $-1 -48.373058259834593 -25.054787506434089 0 0 0 1 I I #
face $-1 $-1 $230 $29 $-1 $324 forward single #
loop $-1 $-1 $325 $129 #
plane-surface $-1 0 -30.170161434942521 0 0 1 0 0 0 1 forward_v I I I I #
coedge $-1 $326 $327 $328 $329 reversed $130 $-1 #
coedge $-1 $330 $132 $134 $228 forward $81 $-1 #
coedge $-1 $132 $330 $326 $331 forward $81 $-1 #
coedge $-1 $328 $135 $132 $225 forward $230 $-1 #
edge $-1 $232 0.44284236748002392 $332 17.908740248333839 $224 $333 forward 7 unknown #
coedge $-1 $334 $335 $133 $227 forward $219 $-1 #
edge $-1 $336 -35.756138110882993 $231 -26.270275044943332 $226 $337 forward 7 unknown #
edge $-1 $232 -14.176399736775803 $336 9.5519457560449789e-015 $134 $338 forward 7 unknown #
coedge $-1 $135 $328 $334 $339 forward $230 $-1 #
loop $-1 $-1 $328 $218 #
vertex $-1 $227 $340 #
vertex $-1 $136 $341 #
straight-curve $-1 -9.6186336753869544 -47.452974911591411 9.8699620197719184 0 1 0 I I #
coedge $-1 $234 $234 $-1 $342 reversed $139 $-1 #
edge $-1 $343 0 $343 6.2831853071796004 $140 $344 forward 7 unknown #
vertex $-1 $143 $345 #
ellipse-curve $-1 -23.591351980070002 -24.902602432161938 5.1270304868020862 0 -0.66913061440640931 0.74314481823134659 1.5 0 0 1 I I #
coedge $-1 $238 $238 $-1 $346 reversed $146 $-1 #
edge $-1 $347 0 $347 6.2831853071796004 $147 $348 forward 7 unknown #
vertex $-1 $150 $349 #
ellipse-curve $-1 -18.351582615813857 -24.902602432161938 5.1270304868020862 0 -0.66913061440640931 0.74314481823134659 1.5 0 0 1 I I #
coedge $-1 $242 $242 $-1 $350 reversed $153 $-1 #
edge $-1 $351 0 $351 6.2831853071796004 $154 $352 forward 7 unknown #
vertex $-1 $157 $353 #
ellipse-curve $-1 -13.111813251557713 -24.902602432161938 5.1270304868020862 0 -0.66913061440640931 0.74314481823134659 1.5 0 0 1 I I #
face $-1 $-1 $258 $33 $-1 $354 forward single #
loop $-1 $-1 $355 $158 #
plane-surface $-1 0 30.170161434942521 0 0 -1 0 0 0 -1 forward_v I I I I #
coedge $-1 $356 $357 $358 $359 reversed $159 $-1 #
coedge $-1 $360 $161 $163 $256 forward $100 $-1 #
coedge $-1 $161 $360 $356 $361 forward $100 $-1 #
coedge $-1 $358 $164 $161 $253 forward $258 $-1 #
edge $-1 $260 -4.9399710146663125 $362 9.3731193982231815 $252 $363 forward 7 unknown #
coedge $-1 $364 $365 $162 $255 forward $247 $-1 #
edge $-1 $366 -55.750859406061593 $259 -48.238745003537367 $254 $367 forward 7 unknown #
edge $-1 $260 47.243351255257586 $366 60.340322869885043 $163 $368 forward 7 unknown #
coedge $-1 $164 $358 $364 $369 forward $258 $-1 #
loop $-1 $-1 $358 $246 #
vertex $-1 $255 $370 #
vertex $-1 $165 $371 #
straight-curve $-1 -2.723396822887878 18.116778187332795 9.8699620197719184 0 -1 0 I I #
coedge $-1 $262 $262 $-1 $372 reversed $168 $-1 #
edge $-1 $373 0 $373 6.2831853071796004 $169 $374 forward 7 unknown #
vertex $-1 $172 $375 #
ellipse-curve $-1 1.3660575807948305 24.805955932779469 6.1139048185098073 0 0.57357644374324357 0.81915203911291934 0.5 0 0 1 I I #
coedge $-1 $266 $266 $-1 $376 reversed $175 $-1 #
edge $-1 $377 0 $377 6.2831853071796004 $176 $378 forward 7 unknown #
vertex $-1 $179 $379 #
ellipse-curve $-1 7.5002391863188933 24.805955932779469 6.1139048185098073 0 0.57357644374324357 0.81915203911291934 0.5 0 0 1 I I #
face $-1 $-1 $195 $27 $-1 $380 reversed single #
loop $-1 $-1 $286 $180 #
plane-surface $-1 0 30.170161434942521 0 0 -1 0 0 0 -1 forward_v I I I I #
coedge $-1 $381 $284 $287 $382 forward $181 $-1 #
coedge $-1 $290 $183 $184 $278 reversed $114 $-1 #
coedge $-1 $284 $381 $183 $276 reversed $181 $-1 #
edge $-1 $291 -9.8699620197719167 $383 9.8699620197719167 $275 $384 forward 7 unknown #
coedge $-1 $185 $184 $381 $385 forward $73 $-1 #
edge $-1 $282 -48.373058259834593 $383 48.373058259834593 $274 $386 forward 7 unknown #
coedge $-1 $287 $286 $185 $280 reversed $271 $-1 #
edge $-1 $387 -48.373058259834593 $281 48.373058259834593 $279 $388 forward 7 unknown #
vertex $-1 $187 $389 #
vertex $-1 $293 $390 #
straight-curve $-1 48.373058259834593 0 -9.8699620197719167 0 -1 0 I I #
coedge $-1 $273 $275 $188 $285 reversed $181 $-1 #
edge $-1 $288 -30.170161434942521 $291 30.170161434942521 $284 $391 forward 7 unknown #
coedge $-1 $279 $189 $194 $294 forward $271 $-1 #
coedge $-1 $189 $279 $273 $382 reversed $271 $-1 #
vertex $-1 $190 $392 #
straight-curve $-1 0 30.170161434942521 9.8699620197719167 -1 0 0 I I #
coedge $-1 $191 $274 $193 $293 reversed $114 $-1 #
vertex $-1 $285 $393 #
straight-curve $-1 0 -30.170161434942521 9.8699620197719167 1 0 0 I I #
edge $-1 $196 -9.8699620197719167 $282 9.8699620197719167 $193 $394 forward 7 unknown #
edge $-1 $197 -9.8699620197719167 $281 9.8699620197719167 $194 $395 forward 7 unknown #
point $-1 48.373058259834593 -30.170161434942521 9.8699620197719167 #
point $-1 48.373058259834593 30.170161434942521 9.8699620197719167 #
face $-1 $-1 $214 $28 $-1 $396 reversed single #
loop $-1 $-1 $306 $199 #
plane-surface $-1 0 0 9.8699620197719167 0 0 1 1 0 0 forward_v I I I I #
coedge $-1 $312 $311 $203 $305 forward $200 $-1 #
coedge $-1 $205 $202 $312 $397 reversed $122 $-1 #
coedge $-1 $202 $205 $315 $398 reversed $122 $-1 #
edge $-1 $317 -9.8699620197719167 $313 9.8699620197719167 $202 $399 forward 7 unknown #
coedge $-1 $204 $203 $319 $400 reversed $77 $-1 #
edge $-1 $401 -26.366403031735814 $309 -17.646907424461745 $300 $402 forward 7 unknown #
coedge $-1 $316 $315 $204 $307 forward $298 $-1 #
edge $-1 $308 17.646907424461745 $403 26.366403031735814 $306 $404 forward 7 unknown #
vertex $-1 $307 $405 #
vertex $-1 $305 $406 #
straight-curve $-1 -39.653562652560524 -19.253778852789281 0 0 0 -1 I I #
coedge $-1 $300 $208 $213 $321 forward $200 $-1 #
coedge $-1 $208 $300 $301 $397 forward $200 $-1 #
vertex $-1 $209 $407 #
straight-curve $-1 -22.006655228098779 -25.054787506434089 -9.8699620197719167 -1 0 0 I I #
coedge $-1 $306 $210 $302 $398 forward $298 $-1 #
coedge $-1 $210 $306 $212 $320 forward $298 $-1 #
vertex $-1 $211 $408 #
straight-curve $-1 -22.006655228098779 -25.054787506434089 9.8699620197719167 1 0 0 I I #
coedge $-1 $213 $212 $304 $400 forward $214 $-1 #
edge $-1 $403 19.253778852789281 $216 25.054787506434089 $212 $409 forward 7 unknown #
edge $-1 $215 -25.054787506434089 $401 -19.253778852789281 $213 $410 forward 7 unknown #
point $-1 -48.373058259834593 -25.054787506434089 -9.8699620197719167 #
point $-1 -48.373058259834593 -25.054787506434089 9.8699620197719167 #
plane-surface $-1 0 0 9.8699620197719167 0 0 1 1 0 0 forward_v I I I I #
coedge $-1 $335 $334 $327 $411 forward $219 $-1 #
coedge $-1 $327 $221 $223 $331 reversed $130 $-1 #
coedge $-1 $221 $326 $325 $411 reversed $130 $-1 #
coedge $-1 $229 $224 $221 $329 forward $230 $-1 #
edge $-1 $332 -27.817931482210064 $412 -17.28281347664889 $328 $413 forward 7 unknown #
coedge $-1 $223 $222 $335 $414 reversed $81 $-1 #
edge $-1 $415 -9.5519457560449789e-015 $332 14.176399736775803 $326 $416 forward 7 unknown #
vertex $-1 $225 $417 #
straight-curve $-1 -9.1757913079069304 -19.635043429381351 9.8699620197719167 -1 0 0 I I #
coedge $-1 $325 $226 $229 $339 reversed $219 $-1 #
coedge $-1 $226 $325 $330 $414 forward $219 $-1 #
vertex $-1 $227 $418 #
straight-curve $-1 -9.6186336753869544 -30.170161434942521 36.140237064715251 0 0 1 I I #
straight-curve $-1 -9.6186336753869544 -30.170161434942514 0.38409895383226456 0 -0.74314481823134659 -0.66913061440640931 I I #
edge $-1 $412 -27.084531556240769 $231 -9.6186336753869544 $334 $419 forward 7 unknown #
point $-1 -9.6186336753869544 -30.170161434942521 9.8699620197719167 #
point $-1 -9.6186336753869544 -19.635043429381348 9.8699620197719167 #
edge $-1 $420 1 $420 0 $234 $-1 forward 7 unknown #
vertex $-1 $235 $421 #
ellipse-curve $-1 -23.591351980070002 -22.227631960580037 2.1561748689621796 0 -0.66913061440640931 0.74314481823134659 1.5 0 0 1 I I #
point $-1 -22.091351980070002 -24.902602432161945 5.1270304868020968 #
edge $-1 $422 1 $422 0 $238 $-1 forward 7 unknown #
vertex $-1 $239 $423 #
ellipse-curve $-1 -18.351582615813857 -22.227631960580037 2.1561748689621796 0 -0.66913061440640931 0.74314481823134659 1.5 0 0 1 I I #
point $-1 -16.851582615813857 -24.902602432161945 5.1270304868020968 #
edge $-1 $424 1 $424 0 $242 $-1 forward 7 unknown #
vertex $-1 $243 $425 #
ellipse-curve $-1 -13.111813251557713 -22.227631960580037 2.1561748689621796 0 -0.66913061440640931 0.74314481823134659 1.5 0 0 1 I I #
point $-1 -11.611813251557713 -24.902602432161945 5.1270304868020968 #
plane-surface $-1 0 0 9.8699620197719167 0 0 1 1 0 0 forward_v I I I I #
coedge $-1 $365 $364 $357 $426 forward $247 $-1 #
coedge $-1 $357 $249 $251 $361 reversed $159 $-1 #
coedge $-1 $249 $356 $355 $426 reversed $159 $-1 #
coedge $-1 $257 $252 $249 $359 forward $258 $-1 #
edge $-1 $362 1.3249722432836215 $427 12.053383247609727 $358 $428 forward 7 unknown #
coedge $-1 $251 $250 $365 $429 reversed $100 $-1 #
edge $-1 $430 -60.340322869885043 $362 -47.243351255257586 $356 $431 forward 7 unknown #
vertex $-1 $253 $432 #
straight-curve $-1 2.2165741917784345 19.44175043061642 9.8699620197719184 1 0 0 I I #
coedge $-1 $355 $254 $257 $369 reversed $247 $-1 #
coedge $-1 $254 $355 $360 $429 forward $247 $-1 #
vertex $-1 $255 $433 #
straight-curve $-1 -2.723396822887878 30.170161434942521 58.108707023309286 0 0 1 I I #
straight-curve $-1 -2.723396822887878 -19.25773708465573 36.967635423275468 0 0.81915203911291934 -0.57357644374324357 I I #
edge $-1 $427 -11.589693590001616 $259 2.723396822887878 $364 $434 forward 7 unknown #
point $-1 -2.723396822887878 30.170161434942521 9.8699620197719167 #
point $-1 -2.723396822887878 19.441750430616416 9.8699620197719184 #
edge $-1 $435 1 $435 0 $262 $-1 forward 7 unknown #
vertex $-1 $263 $436 #
ellipse-curve $-1 1.3660575807948305 24.232379489036223 5.2947527793968847 0 0.57357644374324357 0.81915203911291934 0.5 0 0 1 I I #
point $-1 1.8660575807948305 24.805955932779465 6.1139048185098046 #
edge $-1 $437 1 $437 0 $266 $-1 forward 7 unknown #
vertex $-1 $267 $438 #
ellipse-curve $-1 7.5002391863188933 24.232379489036223 5.2947527793968847 0 0.57357644374324357 0.81915203911291934 0.5 0 0 1 I I #
point $-1 8.0002391863188933 24.805955932779465 6.1139048185098046 #
plane-surface $-1 48.373058259834593 0 0 -1 0 0 0 0 1 forward_v I I I I #
coedge $-1 $275 $273 $277 $385 reversed $181 $-1 #
edge $-1 $288 -9.8699620197719167 $387 9.8699620197719167 $287 $439 forward 7 unknown #
vertex $-1 $385 $440 #
straight-curve $-1 -48.373058259834593 -30.170161434942521 0 0 0 -1 I I #
edge $-1 $383 -30.170161434942521 $387 30.170161434942521 $381 $441 forward 7 unknown #
straight-curve $-1 0 -30.170161434942521 -9.8699620197719167 -1 0 0 I I #
vertex $-1 $280 $442 #
straight-curve $-1 0 30.170161434942521 -9.8699620197719167 1 0 0 I I #
point $-1 48.373058259834593 30.170161434942521 -9.8699620197719167 #
point $-1 48.373058259834593 -30.170161434942521 -9.8699620197719167 #
straight-curve $-1 -48.373058259834593 0 9.8699620197719167 0 -1 0 I I #
point $-1 -48.373058259834593 30.170161434942521 9.8699620197719167 #
point $-1 -48.373058259834593 -30.170161434942521 9.8699620197719167 #
straight-curve $-1 48.373058259834593 -30.170161434942521 0 0 0 -1 I I #
straight-curve $-1 48.373058259834593 30.170161434942521 0 0 0 -1 I I #
plane-surface $-1 -48.373058259834593 0 0 1 0 0 0 0 -1 forward_v I I I I #
edge $-1 $309 8.176637262983439 $313 13.977645916628246 $312 $443 forward 7 unknown #
edge $-1 $317 -13.977645916628246 $308 -8.176637262983439 $315 $444 forward 7 unknown #
straight-curve $-1 -39.653562652560524 -25.054787506434089 0 0 0 -1 I I #
edge $-1 $403 -9.8699620197719167 $401 9.8699620197719167 $319 $445 forward 7 unknown #
vertex $-1 $400 $446 #
straight-curve $-1 -22.006655228098779 -19.253778852789281 -9.8699620197719167 1 0 0 I I #
vertex $-1 $320 $447 #
straight-curve $-1 -22.006655228098779 -19.253778852789281 9.8699620197719167 -1 0 0 I I #
point $-1 -39.653562652560524 -19.253778852789281 9.8699620197719167 #
point $-1 -39.653562652560524 -19.253778852789281 -9.8699620197719167 #
point $-1 -39.653562652560524 -25.054787506434089 -9.8699620197719167 #
point $-1 -39.653562652560524 -25.054787506434089 9.8699620197719167 #
straight-curve $-1 -48.373058259834593 0 9.8699620197719167 0 -1 0 I I #
straight-curve $-1 -48.373058259834593 0 -9.8699620197719167 0 1 0 I I #
edge $-1 $412 26.270275044943332 $415 35.756138110882993 $325 $448 forward 7 unknown #
vertex $-1 $339 $449 #
straight-curve $-1 -27.084531556240769 -47.452974911591411 9.8699620197719184 0 -1 0 I I #
edge $-1 $415 -17.908740248333839 $336 -0.44284236748002392 $335 $450 forward 7 unknown #
vertex $-1 $414 $451 #
straight-curve $-1 -27.084531556240769 -30.170161434942514 0.38409895383226456 0 0.74314481823134659 0.66913061440640931 I I #
point $-1 -27.084531556240769 -19.635043429381348 9.8699620197719167 #
point $-1 -9.6186336753869544 -30.170161434942521 0.38409895383225817 #
straight-curve $-1 0 -30.170161434942521 9.8699620197719167 1 0 0 I I #
vertex $-1 $342 $452 #
point $-1 -22.091351980070002 -22.227631960580037 2.1561748689621796 #
vertex $-1 $346 $453 #
point $-1 -16.851582615813857 -22.227631960580037 2.1561748689621796 #
vertex $-1 $350 $454 #
point $-1 -11.611813251557713 -22.227631960580037 2.1561748689621796 #
edge $-1 $427 48.238745003537367 $430 55.750859406061593 $355 $455 forward 7 unknown #
vertex $-1 $369 $456 #
straight-curve $-1 11.589693590001616 18.116778187332795 9.8699620197719184 0 1 0 I I #
edge $-1 $430 -9.3731193982231815 $366 4.9399710146663125 $365 $457 forward 7 unknown #
vertex $-1 $429 $458 #
straight-curve $-1 11.589693590001616 -19.25773708465573 36.967635423275468 0 -0.81915203911291934 0.57357644374324357 I I #
point $-1 11.589693590001616 19.441750430616416 9.8699620197719184 #
point $-1 -2.723396822887878 30.170161434942521 2.3578476172476925 #
straight-curve $-1 0 30.170161434942521 9.8699620197719167 -1 0 0 I I #
vertex $-1 $372 $459 #
point $-1 1.8660575807948305 24.232379489036223 5.2947527793968847 #
vertex $-1 $376 $460 #
point $-1 8.0002391863188933 24.232379489036223 5.2947527793968847 #
straight-curve $-1 -48.373058259834593 30.170161434942521 0 0 0 -1 I I #
point $-1 -48.373058259834593 -30.170161434942521 -9.8699620197719167 #
straight-curve $-1 -48.373058259834593 0 -9.8699620197719167 0 1 0 I I #
point $-1 -48.373058259834593 30.170161434942521 -9.8699620197719167 #
straight-curve $-1 -39.653562652560524 -11.077141589805843 -9.8699620197719167 0 -1 0 I I #
straight-curve $-1 -39.653562652560524 -11.077141589805843 9.8699620197719167 0 1 0 I I #
straight-curve $-1 -48.373058259834593 -19.253778852789281 0 0 0 -1 I I #
point $-1 -48.373058259834593 -19.253778852789281 -9.8699620197719167 #
point $-1 -48.373058259834593 -19.253778852789281 9.8699620197719167 #
straight-curve $-1 -27.084531556240769 -30.170161434942521 36.140237064715251 0 0 -1 I I #
point $-1 -27.084531556240769 -30.170161434942521 9.8699620197719167 #
straight-curve $-1 -9.1757913079069304 -30.170161434942521 0.3840989538322569 1 0 0 I I #
point $-1 -27.084531556240769 -30.170161434942521 0.38409895383225817 #
point $-1 -23.591351980070002 -21.223936038970425 1.0414576416151595 #
point $-1 -18.351582615813857 -21.223936038970425 1.0414576416151595 #
point $-1 -13.111813251557713 -21.223936038970425 1.0414576416151595 #
straight-curve $-1 11.589693590001616 30.170161434942521 58.108707023309286 0 0 -1 I I #
point $-1 11.589693590001616 30.170161434942521 9.8699620197719167 #
straight-curve $-1 2.2165741917784345 30.170161434942528 2.3578476172476961 -1 0 0 I I #
point $-1 11.589693590001616 30.170161434942521 2.3578476172476925 #
point $-1 1.3660575807948305 23.945591267164598 4.8851767598404257 #
point $-1 7.5002391863188933 23.945591267164598 4.8851767598404257 #
End-of-ACIS-data 