500 0 15 0           
7 Unknown 11 ACIS 5.0 NT 24 Thu Mar 25 15:35:36 1999 
-1 9.9999999999999995e-007 1e-010 
body $-1 $15 $-1 $16 #
body $-1 $17 $-1 $18 #
body $-1 $19 $-1 $20 #
body $-1 $21 $-1 $22 #
body $-1 $23 $-1 $24 #
body $-1 $25 $-1 $26 #
body $-1 $27 $-1 $28 #
body $-1 $29 $-1 $30 #
body $-1 $31 $-1 $32 #
body $-1 $33 $-1 $34 #
body $-1 $35 $-1 $36 #
body $-1 $37 $-1 $38 #
body $-1 $39 $-1 $40 #
body $-1 $41 $-1 $42 #
body $-1 $43 $-1 $44 #
lump $-1 $-1 $45 $0 #
transform $-1 1 0 0 0 1 0 0 0 1 63.037812433240759 34.082396468010288 7.7073625778469026 1 rotate no_reflect no_shear #
lump $-1 $-1 $46 $1 #
transform $-1 1 0 0 0 1 0 0 0 1 63.037812433240759 34.082396468010288 7.7073625778469026 1 rotate no_reflect no_shear #
lump $-1 $-1 $47 $2 #
transform $-1 1 0 0 0 1 0 0 0 1 63.037812433240759 34.082396468010288 7.7073625778469026 1 rotate no_reflect no_shear #
lump $-1 $-1 $48 $3 #
transform $-1 1 0 0 0 1 0 0 0 1 63.037812433240759 34.082396468010288 7.7073625778469026 1 rotate no_reflect no_shear #
lump $-1 $-1 $49 $4 #
transform $-1 1 0 0 0 1 0 0 0 1 63.037812433240759 34.082396468010288 7.7073625778469026 1 rotate no_reflect no_shear #
lump $-1 $-1 $50 $5 #
transform $-1 1 0 0 0 1 0 0 0 1 63.037812433240759 34.082396468010288 7.7073625778469026 1 rotate no_reflect no_shear #
lump $-1 $-1 $51 $6 #
transform $-1 1 0 0 0 1 0 0 0 1 63.037812433240759 34.082396468010288 7.7073625778469026 1 rotate no_reflect no_shear #
lump $-1 $-1 $52 $7 #
transform $-1 1 0 0 0 1 0 0 0 1 63.037812433240759 34.082396468010288 7.7073625778469026 1 rotate no_reflect no_shear #
lump $-1 $-1 $53 $8 #
transform $-1 1 0 0 0 1 0 0 0 1 63.037812433240759 34.082396468010288 7.7073625778469026 1 rotate no_reflect no_shear #
lump $-1 $-1 $54 $9 #
transform $-1 1 0 0 0 1 0 0 0 1 63.037812433240759 34.082396468010288 7.7073625778469026 1 rotate no_reflect no_shear #
lump $-1 $-1 $55 $10 #
transform $-1 1 0 0 0 1 0 0 0 1 63.037812433240759 34.082396468010288 7.7073625778469026 1 rotate no_reflect no_shear #
lump $-1 $-1 $56 $11 #
transform $-1 1 0 0 0 1 0 0 0 1 63.037812433240759 34.082396468010288 7.7073625778469026 1 rotate no_reflect no_shear #
lump $-1 $-1 $57 $12 #
transform $-1 1 0 0 0 1 0 0 0 1 63.037812433240759 34.082396468010288 7.7073625778469026 1 rotate no_reflect no_shear #
lump $-1 $-1 $58 $13 #
transform $-1 1 0 0 0 1 0 0 0 1 63.037812433240759 34.082396468010288 7.7073625778469026 1 rotate no_reflect no_shear #
lump $-1 $-1 $59 $14 #
transform $-1 1 0 0 0 1 0 0 0 1 63.037812433240759 34.082396468010288 7.7073625778469026 1 rotate no_reflect no_shear #
shell $-1 $-1 $-1 $60 $-1 $15 #
shell $-1 $-1 $-1 $61 $-1 $17 #
shell $-1 $-1 $-1 $62 $-1 $19 #
shell $-1 $-1 $-1 $63 $-1 $21 #
shell $-1 $-1 $-1 $64 $-1 $23 #
shell $-1 $-1 $-1 $65 $-1 $25 #
shell $-1 $-1 $-1 $66 $-1 $27 #
shell $-1 $-1 $-1 $67 $-1 $29 #
shell $-1 $-1 $-1 $68 $-1 $31 #
shell $-1 $-1 $-1 $69 $-1 $33 #
shell $-1 $-1 $-1 $70 $-1 $35 #
shell $-1 $-1 $-1 $71 $-1 $37 #
shell $-1 $-1 $-1 $72 $-1 $39 #
shell $-1 $-1 $-1 $73 $-1 $41 #
shell $-1 $-1 $-1 $74 $-1 $43 #
face $-1 $75 $76 $45 $-1 $77 forward single #
face $-1 $78 $79 $46 $-1 $80 forward single #
face $-1 $81 $82 $47 $-1 $83 forward single #
face $-1 $84 $85 $48 $-1 $86 reversed single #
face $-1 $87 $88 $49 $-1 $89 forward single #
face $-1 $90 $91 $50 $-1 $92 forward single #
face $-1 $93 $94 $51 $-1 $95 forward single #
face $-1 $96 $97 $52 $-1 $98 reversed single #
face $-1 $99 $100 $53 $-1 $101 forward single #
face $-1 $102 $103 $54 $-1 $104 reversed single #
face $-1 $105 $106 $55 $-1 $107 forward single #
face $-1 $108 $109 $56 $-1 $110 reversed single #
face $-1 $111 $112 $57 $-1 $113 forward single #
face $-1 $114 $115 $58 $-1 $116 reversed single #
face $-1 $117 $118 $59 $-1 $119 forward single #
face $-1 $120 $121 $45 $-1 $122 reversed single #
loop $-1 $-1 $123 $60 #
plane-surface $-1 0 0 7.7073625778469026 0 0 1 1 0 0 forward_v I I I I #
face $-1 $124 $125 $46 $-1 $126 reversed single #
loop $-1 $-1 $127 $61 #
plane-surface $-1 0 -29.567376097159894 -4.6357550166093286 0 0 1 1 0 0 forward_v I I I I #
face $-1 $128 $129 $47 $-1 $130 reversed single #
loop $-1 $-1 $131 $62 #
plane-surface $-1 0 29.567376097159894 -4.6357550166093286 0 0 1 1 0 0 forward_v I I I I #
face $-1 $132 $133 $48 $-1 $134 reversed single #
loop $-1 $-1 $135 $63 #
plane-surface $-1 22.929522593855793 19.558609834088688 176.35940384142472 0 -1 0 -0.52991927123019833 0 -0.84804809178421925 forward_v I I I I #
face $-1 $136 $137 $49 $-1 $138 forward single #
loop $-1 $139 $140 $64 #
cone-surface $-1 58.58154649958631 9.3911934492162104 4.5378864082377106 -0.52991927123019833 0 -0.84804809178421925 0.84804809178421925 0 -0.52991927123019833 1 I I 0 1 1 forward I I I I #
face $-1 $141 $142 $50 $-1 $143 forward single #
loop $-1 $144 $145 $65 #
cone-surface $-1 58.58154649958631 13.203974593543386 4.5378864082377106 -0.52991927123019833 0 -0.84804809178421925 0.84804809178421925 0 -0.52991927123019833 1 I I 0 1 1 forward I I I I #
face $-1 $146 $147 $51 $-1 $148 forward single #
loop $-1 $149 $150 $66 #
cone-surface $-1 58.58154649958631 17.016755737870561 4.5378864082377106 -0.52991927123019833 0 -0.84804809178421925 0.84804809178421925 0 -0.52991927123019833 1 I I 0 1 1 forward I I I I #
face $-1 $151 $152 $52 $-1 $153 reversed single #
loop $-1 $-1 $154 $67 #
plane-surface $-1 -138.9120184917268 -19.316557679831973 105.34382729221312 0 1 0 -0.6018150307709319 0 0.79863550430605224 forward_v I I I I #
face $-1 $155 $156 $53 $-1 $157 forward single #
loop $-1 $158 $159 $68 #
cone-surface $-1 -60.711830889932294 -15.921367771493362 5.7820420599054207 0.6018150307709319 0 -0.79863550430605224 0.39931775215302612 0 0.30090751538546595 1 I I 0 1 0.5 forward I I I I #
face $-1 $160 $161 $54 $-1 $162 reversed single #
loop $-1 $-1 $163 $69 #
plane-surface $-1 -138.9120184917268 -6.7903798166772225 105.34382729221312 0 1 0 -0.6018150307709319 0 0.79863550430605224 forward_v I I I I #
face $-1 $164 $165 $55 $-1 $166 forward single #
loop $-1 $167 $168 $70 #
cone-surface $-1 -60.711830889932294 -3.3951899083386117 5.7820420599054207 0.6018150307709319 0 -0.79863550430605224 0.39931775215302612 0 0.30090751538546595 1 I I 0 1 0.5 forward I I I I #
face $-1 $169 $170 $56 $-1 $171 reversed single #
loop $-1 $-1 $172 $71 #
plane-surface $-1 -138.9120184917268 5.735798046477524 105.34382729221312 0 1 0 -0.6018150307709319 0 0.79863550430605224 forward_v I I I I #
face $-1 $173 $174 $57 $-1 $175 forward single #
loop $-1 $176 $177 $72 #
cone-surface $-1 -60.711830889932294 9.1309879548161348 5.7820420599054207 0.6018150307709319 0 -0.79863550430605224 0.39931775215302612 0 0.30090751538546595 1 I I 0 1 0.5 forward I I I I #
face $-1 $178 $179 $58 $-1 $180 reversed single #
loop $-1 $-1 $181 $73 #
plane-surface $-1 -138.9120184917268 18.261975909632273 105.34382729221312 0 1 0 -0.6018150307709319 0 0.79863550430605224 forward_v I I I I #
face $-1 $182 $183 $59 $-1 $184 forward single #
loop $-1 $185 $186 $74 #
cone-surface $-1 -60.711830889932294 21.657165817970885 5.7820420599054207 0.6018150307709319 0 -0.79863550430605224 0.39931775215302612 0 0.30090751538546595 1 I I 0 1 0.5 forward I I I I #
face $-1 $187 $188 $45 $-1 $189 reversed single #
loop $-1 $-1 $190 $75 #
plane-surface $-1 0 0 -7.7073625778469026 0 0 1 1 0 0 forward_v I I I I #
coedge $-1 $191 $192 $193 $194 forward $76 $-1 #
face $-1 $195 $196 $46 $-1 $197 reversed single #
loop $-1 $-1 $198 $78 #
plane-surface $-1 0 -25.0523557263095 -6.1715587972281156 0 -1 0 0 0 -1 forward_v I I I I #
coedge $-1 $199 $200 $201 $202 reversed $79 $-1 #
face $-1 $203 $204 $47 $-1 $205 reversed single #
loop $-1 $-1 $206 $81 #
plane-surface $-1 0 25.0523557263095 -6.1715587972281156 0 1 0 0 0 1 forward_v I I I I #
coedge $-1 $207 $208 $209 $210 reversed $82 $-1 #
face $-1 $211 $212 $48 $-1 $213 reversed single #
loop $-1 $-1 $214 $84 #
plane-surface $-1 -43.880380655281954 13.203974593543393 69.441210752902023 0.52991927123019833 0 0.84804809178421925 0.84804809178421925 0 -0.52991927123019833 forward_v I I I I #
coedge $-1 $215 $216 $217 $218 reversed $85 $-1 #
face $-1 $-1 $219 $49 $-1 $220 forward single #
loop $-1 $221 $222 $87 #
cone-surface $-1 57.922013958930336 9.3911934492162104 3.4824137297777309 -0.52991927123019833 0 -0.84804809178421925 0.42402404589210962 0 -0.26495963561509916 1 I I -0.70710678118654746 0.70710678118654746 0.5 forward I I I I #
loop $-1 $-1 $223 $64 #
coedge $-1 $140 $140 $224 $225 reversed $88 $-1 #
face $-1 $-1 $226 $50 $-1 $227 forward single #
loop $-1 $228 $229 $90 #
cone-surface $-1 57.922013958930336 13.203974593543386 3.4824137297777309 -0.52991927123019833 0 -0.84804809178421925 0.42402404589210962 0 -0.26495963561509916 1 I I -0.70710678118654746 0.70710678118654746 0.5 forward I I I I #
loop $-1 $-1 $230 $65 #
coedge $-1 $145 $145 $231 $232 reversed $91 $-1 #
face $-1 $-1 $233 $51 $-1 $234 forward single #
loop $-1 $235 $236 $93 #
cone-surface $-1 57.922013958930336 17.016755737870561 3.4824137297777309 -0.52991927123019833 0 -0.84804809178421925 0.42402404589210962 0 -0.26495963561509916 1 I I -0.70710678118654746 0.70710678118654746 0.5 forward I I I I #
loop $-1 $-1 $237 $66 #
coedge $-1 $150 $150 $238 $239 reversed $94 $-1 #
face $-1 $240 $241 $52 $-1 $242 reversed single #
loop $-1 $-1 $243 $96 #
plane-surface $-1 -63.037812433240759 -15.921367771493362 4.655357046269998 -0.6018150307709319 0 0.79863550430605224 0.79863550430605224 0 0.6018150307709319 forward_v I I I I #
coedge $-1 $244 $245 $246 $247 reversed $97 $-1 #
face $-1 $-1 $248 $53 $-1 $249 forward single #
loop $-1 $250 $251 $99 #
cone-surface $-1 -60.260469616854095 -15.921367771493362 5.1830654316758817 0.6018150307709319 0 -0.79863550430605224 0.19965887607651306 0 0.15045375769273298 1 I I -0.70710678118654746 0.70710678118654746 0.25 forward I I I I #
loop $-1 $-1 $252 $68 #
coedge $-1 $159 $159 $253 $254 reversed $100 $-1 #
face $-1 $255 $256 $54 $-1 $257 reversed single #
loop $-1 $-1 $258 $102 #
plane-surface $-1 -63.037812433240759 -3.3951899083386117 4.655357046269998 -0.6018150307709319 0 0.79863550430605224 0.79863550430605224 0 0.6018150307709319 forward_v I I I I #
coedge $-1 $259 $260 $261 $262 reversed $103 $-1 #
face $-1 $-1 $263 $55 $-1 $264 forward single #
loop $-1 $265 $266 $105 #
cone-surface $-1 -60.260469616854095 -3.3951899083386117 5.1830654316758817 0.6018150307709319 0 -0.79863550430605224 0.19965887607651306 0 0.15045375769273298 1 I I -0.70710678118654746 0.70710678118654746 0.25 forward I I I I #
loop $-1 $-1 $267 $70 #
coedge $-1 $168 $168 $268 $269 reversed $106 $-1 #
face $-1 $270 $271 $56 $-1 $272 reversed single #
loop $-1 $-1 $273 $108 #
plane-surface $-1 -63.037812433240759 9.1309879548161348 4.655357046269998 -0.6018150307709319 0 0.79863550430605224 0.79863550430605224 0 0.6018150307709319 forward_v I I I I #
coedge $-1 $274 $275 $276 $277 reversed $109 $-1 #
face $-1 $-1 $278 $57 $-1 $279 forward single #
loop $-1 $280 $281 $111 #
cone-surface $-1 -60.260469616854095 9.1309879548161348 5.1830654316758817 0.6018150307709319 0 -0.79863550430605224 0.19965887607651306 0 0.15045375769273298 1 I I -0.70710678118654746 0.70710678118654746 0.25 forward I I I I #
loop $-1 $-1 $282 $72 #
coedge $-1 $177 $177 $283 $284 reversed $112 $-1 #
face $-1 $285 $286 $58 $-1 $287 reversed single #
loop $-1 $-1 $288 $114 #
plane-surface $-1 -63.037812433240759 21.657165817970885 4.655357046269998 -0.6018150307709319 0 0.79863550430605224 0.79863550430605224 0 0.6018150307709319 forward_v I I I I #
coedge $-1 $289 $290 $291 $292 reversed $115 $-1 #
face $-1 $-1 $293 $59 $-1 $294 forward single #
loop $-1 $295 $296 $117 #
cone-surface $-1 -60.260469616854095 21.657165817970885 5.1830654316758817 0.6018150307709319 0 -0.79863550430605224 0.19965887607651306 0 0.15045375769273298 1 I I -0.70710678118654746 0.70710678118654746 0.25 forward I I I I #
loop $-1 $-1 $297 $74 #
coedge $-1 $186 $186 $298 $299 reversed $118 $-1 #
face $-1 $300 $301 $45 $-1 $302 reversed single #
loop $-1 $-1 $303 $120 #
plane-surface $-1 0 -34.082396468010288 0 0 1 0 0 0 1 forward_v I I I I #
coedge $-1 $304 $305 $306 $307 forward $121 $-1 #
coedge $-1 $308 $123 $309 $310 forward $76 $-1 #
coedge $-1 $123 $308 $311 $312 forward $76 $-1 #
coedge $-1 $313 $314 $123 $194 reversed $315 $-1 #
edge $-1 $316 -34.082396468010288 $317 34.082396468010288 $193 $318 forward 7 unknown #
face $-1 $319 $320 $46 $-1 $321 reversed single #
loop $-1 $-1 $322 $124 #
plane-surface $-1 0 0 -7.7073625778469026 0 0 1 1 0 0 forward_v I I I I #
coedge $-1 $323 $324 $325 $326 reversed $125 $-1 #
coedge $-1 $327 $127 $324 $328 forward $79 $-1 #
coedge $-1 $127 $327 $329 $330 reversed $79 $-1 #
coedge $-1 $331 $325 $127 $202 forward $320 $-1 #
edge $-1 $332 10.268667677729553 $333 19.298708419430341 $201 $334 forward 7 unknown #
face $-1 $335 $336 $47 $-1 $337 reversed single #
loop $-1 $-1 $209 $128 #
plane-surface $-1 63.037812433240759 0 0 -1 0 0 0 0 1 forward_v I I I I #
coedge $-1 $338 $339 $340 $341 reversed $129 $-1 #
coedge $-1 $342 $131 $343 $344 reversed $82 $-1 #
coedge $-1 $131 $342 $339 $345 forward $82 $-1 #
coedge $-1 $346 $347 $131 $210 forward $204 $-1 #
edge $-1 $348 -19.298708419430341 $349 -10.268667677729553 $209 $350 forward 7 unknown #
face $-1 $351 $352 $48 $-1 $353 forward single #
loop $-1 $-1 $354 $132 #
plane-surface $-1 22.929522593855793 6.849339352998097 176.35940384142472 0 1 0 0.52991927123019833 0 0.84804809178421925 forward_v I I I I #
coedge $-1 $355 $356 $357 $358 reversed $133 $-1 #
coedge $-1 $216 $135 $359 $360 reversed $85 $-1 #
coedge $-1 $135 $215 $355 $361 reversed $85 $-1 #
coedge $-1 $357 $362 $135 $218 forward $352 $-1 #
edge $-1 $363 -51.573051136312863 $364 -43.449665079085683 $217 $365 forward 7 unknown #
loop $-1 $-1 $224 $136 #
plane-surface $-1 -43.880380655281954 13.203974593543393 69.441210752902023 0.52991927123019833 0 0.84804809178421925 0.84804809178421925 0 -0.52991927123019833 forward_v I I I I #
loop $-1 $-1 $366 $87 #
coedge $-1 $222 $222 $223 $367 reversed $137 $-1 #
coedge $-1 $223 $223 $222 $367 forward $139 $-1 #
coedge $-1 $224 $224 $140 $225 forward $219 $-1 #
edge $-1 $368 0 $368 6.2831853071796004 $224 $369 forward 7 unknown #
loop $-1 $-1 $231 $141 #
plane-surface $-1 -43.880380655281954 13.203974593543393 69.441210752902023 0.52991927123019833 0 0.84804809178421925 0.84804809178421925 0 -0.52991927123019833 forward_v I I I I #
loop $-1 $-1 $370 $90 #
coedge $-1 $229 $229 $230 $371 reversed $142 $-1 #
coedge $-1 $230 $230 $229 $371 forward $144 $-1 #
coedge $-1 $231 $231 $145 $232 forward $226 $-1 #
edge $-1 $372 0 $372 6.2831853071796004 $231 $373 forward 7 unknown #
loop $-1 $-1 $238 $146 #
plane-surface $-1 -43.880380655281954 13.203974593543393 69.441210752902023 0.52991927123019833 0 0.84804809178421925 0.84804809178421925 0 -0.52991927123019833 forward_v I I I I #
loop $-1 $-1 $374 $93 #
coedge $-1 $236 $236 $237 $375 reversed $147 $-1 #
coedge $-1 $237 $237 $236 $375 forward $149 $-1 #
coedge $-1 $238 $238 $150 $239 forward $233 $-1 #
edge $-1 $376 0 $376 6.2831853071796004 $238 $377 forward 7 unknown #
face $-1 $378 $379 $52 $-1 $380 reversed single #
loop $-1 $-1 $381 $151 #
plane-surface $-1 -138.9120184917268 -12.52617786315475 105.34382729221312 0 -1 0 0.6018150307709319 0 -0.79863550430605224 forward_v I I I I #
coedge $-1 $382 $383 $384 $385 reversed $152 $-1 #
coedge $-1 $245 $154 $386 $387 reversed $97 $-1 #
coedge $-1 $154 $244 $382 $388 reversed $97 $-1 #
coedge $-1 $384 $389 $154 $247 forward $390 $-1 #
edge $-1 $391 6.4181968126226394 $392 10.468344868468627 $246 $393 forward 7 unknown #
loop $-1 $-1 $253 $155 #
plane-surface $-1 -63.037812433240759 -15.921367771493362 4.655357046269998 -0.6018150307709319 0 0.79863550430605224 0.79863550430605224 0 0.6018150307709319 forward_v I I I I #
loop $-1 $-1 $394 $99 #
coedge $-1 $251 $251 $252 $395 reversed $156 $-1 #
coedge $-1 $252 $252 $251 $395 forward $158 $-1 #
coedge $-1 $253 $253 $159 $254 forward $248 $-1 #
edge $-1 $396 0 $396 6.2831853071796004 $253 $397 forward 7 unknown #
face $-1 $398 $399 $54 $-1 $400 forward single #
loop $-1 $-1 $401 $160 #
plane-surface $-1 -138.9120184917268 -8.8817841970012523e-016 105.34382729221312 0 -1 0 0.6018150307709319 0 -0.79863550430605224 forward_v I I I I #
coedge $-1 $402 $403 $404 $405 reversed $161 $-1 #
coedge $-1 $260 $163 $406 $407 reversed $103 $-1 #
coedge $-1 $163 $259 $402 $408 reversed $103 $-1 #
coedge $-1 $404 $409 $163 $262 forward $399 $-1 #
edge $-1 $410 6.4181968126226394 $411 10.468344868468627 $261 $412 forward 7 unknown #
loop $-1 $-1 $268 $164 #
plane-surface $-1 -63.037812433240759 -3.3951899083386117 4.655357046269998 -0.6018150307709319 0 0.79863550430605224 0.79863550430605224 0 0.6018150307709319 forward_v I I I I #
loop $-1 $-1 $413 $105 #
coedge $-1 $266 $266 $267 $414 reversed $165 $-1 #
coedge $-1 $267 $267 $266 $414 forward $167 $-1 #
coedge $-1 $268 $268 $168 $269 forward $263 $-1 #
edge $-1 $415 0 $415 6.2831853071796004 $268 $416 forward 7 unknown #
face $-1 $417 $418 $56 $-1 $419 forward single #
loop $-1 $-1 $420 $169 #
plane-surface $-1 -138.9120184917268 12.526177863154746 105.34382729221312 0 -1 0 0.6018150307709319 0 -0.79863550430605224 forward_v I I I I #
coedge $-1 $421 $422 $423 $424 reversed $170 $-1 #
coedge $-1 $275 $172 $425 $426 reversed $109 $-1 #
coedge $-1 $172 $274 $421 $427 reversed $109 $-1 #
coedge $-1 $423 $428 $172 $277 forward $418 $-1 #
edge $-1 $429 6.4181968126226394 $430 10.468344868468627 $276 $431 forward 7 unknown #
loop $-1 $-1 $283 $173 #
plane-surface $-1 -63.037812433240759 9.1309879548161348 4.655357046269998 -0.6018150307709319 0 0.79863550430605224 0.79863550430605224 0 0.6018150307709319 forward_v I I I I #
loop $-1 $-1 $432 $111 #
coedge $-1 $281 $281 $282 $433 reversed $174 $-1 #
coedge $-1 $282 $282 $281 $433 forward $176 $-1 #
coedge $-1 $283 $283 $177 $284 forward $278 $-1 #
edge $-1 $434 0 $434 6.2831853071796004 $283 $435 forward 7 unknown #
face $-1 $436 $437 $58 $-1 $438 forward single #
loop $-1 $-1 $439 $178 #
plane-surface $-1 -138.9120184917268 25.052355726309496 105.34382729221312 0 -1 0 0.6018150307709319 0 -0.79863550430605224 forward_v I I I I #
coedge $-1 $440 $441 $442 $443 reversed $179 $-1 #
coedge $-1 $290 $181 $444 $445 reversed $115 $-1 #
coedge $-1 $181 $289 $440 $446 reversed $115 $-1 #
coedge $-1 $442 $447 $181 $292 forward $437 $-1 #
edge $-1 $448 6.4181968126226394 $449 10.468344868468627 $291 $450 forward 7 unknown #
loop $-1 $-1 $298 $182 #
plane-surface $-1 -63.037812433240759 21.657165817970885 4.655357046269998 -0.6018150307709319 0 0.79863550430605224 0.79863550430605224 0 0.6018150307709319 forward_v I I I I #
loop $-1 $-1 $451 $117 #
coedge $-1 $296 $296 $297 $452 reversed $183 $-1 #
coedge $-1 $297 $297 $296 $452 forward $185 $-1 #
coedge $-1 $298 $298 $186 $299 forward $293 $-1 #
edge $-1 $453 0 $453 6.2831853071796004 $298 $454 forward 7 unknown #
face $-1 $455 $456 $45 $-1 $457 reversed single #
loop $-1 $-1 $458 $187 #
plane-surface $-1 -63.037812433240759 0 0 1 0 0 0 0 -1 forward_v I I I I #
coedge $-1 $459 $311 $460 $461 forward $188 $-1 #
coedge $-1 $462 $190 $459 $463 forward $121 $-1 #
coedge $-1 $190 $462 $464 $465 forward $121 $-1 #
coedge $-1 $314 $313 $190 $307 reversed $315 $-1 #
edge $-1 $466 -34.082396468010288 $467 34.082396468010288 $306 $468 forward 7 unknown #
coedge $-1 $192 $191 $469 $470 forward $76 $-1 #
coedge $-1 $471 $472 $191 $310 reversed $456 $-1 #
edge $-1 $317 -63.037812433240759 $473 63.037812433240759 $309 $474 forward 7 unknown #
coedge $-1 $303 $475 $192 $312 reversed $188 $-1 #
edge $-1 $476 -63.037812433240759 $316 63.037812433240759 $311 $477 forward 7 unknown #
coedge $-1 $306 $193 $475 $478 forward $315 $-1 #
coedge $-1 $193 $306 $471 $479 reversed $315 $-1 #
loop $-1 $-1 $313 $455 #
vertex $-1 $194 $480 #
vertex $-1 $194 $481 #
straight-curve $-1 63.037812433240759 0 7.7073625778469026 0 1 0 I I #
face $-1 $482 $483 $46 $-1 $484 reversed single #
loop $-1 $-1 $325 $195 #
plane-surface $-1 63.037812433240759 0 0 -1 0 0 0 0 1 forward_v I I I I #
coedge $-1 $485 $486 $323 $487 forward $196 $-1 #
coedge $-1 $488 $198 $322 $487 reversed $125 $-1 #
coedge $-1 $198 $488 $199 $328 reversed $125 $-1 #
coedge $-1 $201 $489 $198 $326 forward $320 $-1 #
edge $-1 $490 -4.6215831792328448 $332 -1.5499756179952708 $325 $491 forward 7 unknown #
coedge $-1 $200 $199 $492 $493 reversed $79 $-1 #
edge $-1 $332 -63.037812433240759 $494 63.037812433240759 $324 $495 forward 7 unknown #
coedge $-1 $496 $497 $200 $330 forward $483 $-1 #
edge $-1 $333 -63.037812433240759 $498 63.037812433240759 $329 $499 forward 7 unknown #
coedge $-1 $489 $201 $497 $500 forward $320 $-1 #
vertex $-1 $202 $501 #
vertex $-1 $500 $502 #
straight-curve $-1 63.037812433240759 -14.783688048579947 -4.6357550166093286 0 -1 0 I I #
face $-1 $503 $504 $47 $-1 $505 reversed single #
loop $-1 $-1 $506 $203 #
plane-surface $-1 0 0 -7.7073625778469026 0 0 1 1 0 0 forward_v I I I I #
coedge $-1 $507 $206 $506 $508 reversed $129 $-1 #
coedge $-1 $206 $507 $208 $345 reversed $129 $-1 #
coedge $-1 $509 $510 $206 $341 forward $504 $-1 #
edge $-1 $511 -4.6215831792328448 $512 -1.5499756179952708 $340 $513 forward 7 unknown #
coedge $-1 $208 $207 $509 $514 reversed $82 $-1 #
coedge $-1 $515 $516 $207 $344 forward $517 $-1 #
edge $-1 $518 -63.037812433240759 $348 63.037812433240759 $343 $519 forward 7 unknown #
edge $-1 $512 -63.037812433240759 $349 63.037812433240759 $339 $520 forward 7 unknown #
coedge $-1 $521 $209 $507 $522 forward $204 $-1 #
coedge $-1 $209 $521 $515 $523 reversed $204 $-1 #
vertex $-1 $523 $524 #
vertex $-1 $210 $525 #
straight-curve $-1 63.037812433240759 14.783688048579947 -4.6357550166093286 0 -1 0 I I #
face $-1 $-1 $526 $48 $-1 $527 reversed single #
loop $-1 $-1 $217 $211 #
plane-surface $-1 0 0 7.7073625778469026 0 0 1 1 0 0 forward_v I I I I #
coedge $-1 $528 $529 $530 $531 reversed $212 $-1 #
coedge $-1 $532 $214 $216 $361 forward $133 $-1 #
coedge $-1 $214 $532 $528 $533 forward $133 $-1 #
coedge $-1 $530 $217 $214 $358 forward $352 $-1 #
edge $-1 $364 -12.956622537316992 $534 -0.24735205622640066 $357 $535 forward 7 unknown #
coedge $-1 $536 $537 $215 $360 forward $526 $-1 #
edge $-1 $538 -85.548394416948099 $363 -80.472339342865453 $359 $539 forward 7 unknown #
edge $-1 $364 116.49670341624126 $538 126.07562486648153 $216 $540 forward 7 unknown #
coedge $-1 $217 $530 $536 $541 forward $352 $-1 #
vertex $-1 $360 $542 #
vertex $-1 $218 $543 #
straight-curve $-1 11.464761296927897 19.558609834088688 7.7073625778469079 -1 0 0 I I #
coedge $-1 $366 $366 $-1 $544 reversed $221 $-1 #
edge $-1 $545 0 $545 6.2831853071796004 $222 $546 forward 7 unknown #
vertex $-1 $225 $547 #
ellipse-curve $-1 58.976119404627184 9.3911934492162104 5.1693350408055743 0.52991927123019833 0 0.84804809178421925 0.84804809178421925 0 -0.52991927123019833 1 I I #
coedge $-1 $370 $370 $-1 $548 reversed $228 $-1 #
edge $-1 $549 0 $549 6.2831853071796004 $229 $550 forward 7 unknown #
vertex $-1 $232 $551 #
ellipse-curve $-1 58.976119404627184 13.203974593543386 5.1693350408055743 0.52991927123019833 0 0.84804809178421925 0.84804809178421925 0 -0.52991927123019833 1 I I #
coedge $-1 $374 $374 $-1 $552 reversed $235 $-1 #
edge $-1 $553 0 $553 6.2831853071796004 $236 $554 forward 7 unknown #
vertex $-1 $239 $555 #
ellipse-curve $-1 58.976119404627184 17.016755737870561 5.1693350408055743 0.52991927123019833 0 0.84804809178421925 0.84804809178421925 0 -0.52991927123019833 1 I I #
face $-1 $-1 $390 $52 $-1 $556 forward single #
loop $-1 $-1 $557 $240 #
plane-surface $-1 -63.037812433240759 0 0 1 0 0 0 0 -1 forward_v I I I I #
coedge $-1 $558 $559 $560 $561 reversed $241 $-1 #
coedge $-1 $562 $243 $245 $388 forward $152 $-1 #
coedge $-1 $243 $562 $558 $563 forward $152 $-1 #
coedge $-1 $560 $246 $243 $385 forward $390 $-1 #
edge $-1 $392 -11.355873794085293 $564 -4.5654939774080692 $384 $565 forward 7 unknown #
coedge $-1 $566 $567 $244 $387 forward $379 $-1 #
edge $-1 $568 -48.016556599836562 $391 -44.964551068259659 $386 $569 forward 7 unknown #
edge $-1 $392 -5.0713348379937457 $568 0 $245 $570 forward 7 unknown #
coedge $-1 $246 $560 $566 $571 forward $390 $-1 #
loop $-1 $-1 $560 $378 #
vertex $-1 $387 $572 #
vertex $-1 $247 $573 #
straight-curve $-1 -69.456009245863399 -19.316557679831973 7.7073625778469008 1 0 0 I I #
coedge $-1 $394 $394 $-1 $574 reversed $250 $-1 #
edge $-1 $575 0 $575 6.2831853071796004 $251 $576 forward 7 unknown #
vertex $-1 $254 $577 #
ellipse-curve $-1 -61.012738405317762 -15.921367771493362 6.1813598120584521 -0.6018150307709319 0 0.79863550430605224 0.39931775215302612 0 0.30090751538546595 1 I I #
face $-1 $-1 $578 $54 $-1 $579 reversed single #
loop $-1 $-1 $261 $255 #
plane-surface $-1 0 0 7.7073625778469026 0 0 1 1 0 0 forward_v I I I I #
coedge $-1 $580 $581 $582 $583 reversed $256 $-1 #
coedge $-1 $584 $258 $260 $408 forward $161 $-1 #
coedge $-1 $258 $584 $580 $585 forward $161 $-1 #
coedge $-1 $582 $261 $258 $405 forward $399 $-1 #
edge $-1 $411 -5.0927848625079166 $586 1.6975949541693049 $404 $587 forward 7 unknown #
coedge $-1 $588 $589 $259 $407 forward $578 $-1 #
edge $-1 $590 -48.016556599836562 $410 -44.964551068259659 $406 $591 forward 7 unknown #
edge $-1 $411 -5.0713348379937457 $590 0 $260 $592 forward 7 unknown #
coedge $-1 $261 $582 $588 $593 forward $399 $-1 #
vertex $-1 $407 $594 #
vertex $-1 $262 $595 #
straight-curve $-1 -69.456009245863399 -6.7903798166772225 7.7073625778469008 1 0 0 I I #
coedge $-1 $413 $413 $-1 $596 reversed $265 $-1 #
edge $-1 $597 0 $597 6.2831853071796004 $266 $598 forward 7 unknown #
vertex $-1 $269 $599 #
ellipse-curve $-1 -61.012738405317762 -3.3951899083386117 6.1813598120584521 -0.6018150307709319 0 0.79863550430605224 0.39931775215302612 0 0.30090751538546595 1 I I #
face $-1 $-1 $600 $56 $-1 $601 reversed single #
loop $-1 $-1 $276 $270 #
plane-surface $-1 0 0 7.7073625778469026 0 0 1 1 0 0 forward_v I I I I #
coedge $-1 $602 $603 $604 $605 reversed $271 $-1 #
coedge $-1 $606 $273 $275 $427 forward $170 $-1 #
coedge $-1 $273 $606 $602 $607 forward $170 $-1 #
coedge $-1 $604 $276 $273 $424 forward $418 $-1 #
edge $-1 $430 1.1703040690694566 $608 7.9606838857466791 $423 $609 forward 7 unknown #
coedge $-1 $610 $611 $274 $426 forward $600 $-1 #
edge $-1 $612 -48.016556599836562 $429 -44.964551068259659 $425 $613 forward 7 unknown #
edge $-1 $430 -5.0713348379937457 $612 0 $275 $614 forward 7 unknown #
coedge $-1 $276 $604 $610 $615 forward $418 $-1 #
vertex $-1 $277 $616 #
vertex $-1 $277 $617 #
straight-curve $-1 -69.456009245863399 5.735798046477524 7.7073625778469008 1 0 0 I I #
coedge $-1 $432 $432 $-1 $618 reversed $280 $-1 #
edge $-1 $619 0 $619 6.2831853071796004 $281 $620 forward 7 unknown #
vertex $-1 $284 $621 #
ellipse-curve $-1 -61.012738405317762 9.1309879548161348 6.1813598120584521 -0.6018150307709319 0 0.79863550430605224 0.39931775215302612 0 0.30090751538546595 1 I I #
face $-1 $-1 $622 $58 $-1 $623 reversed single #
loop $-1 $-1 $291 $285 #
plane-surface $-1 0 0 7.7073625778469026 0 0 1 1 0 0 forward_v I I I I #
coedge $-1 $624 $625 $626 $627 reversed $286 $-1 #
coedge $-1 $628 $288 $290 $446 forward $179 $-1 #
coedge $-1 $288 $628 $624 $629 forward $179 $-1 #
coedge $-1 $626 $291 $288 $443 forward $437 $-1 #
edge $-1 $449 7.4333930006468307 $630 14.223772817324054 $442 $631 forward 7 unknown #
coedge $-1 $632 $633 $289 $445 forward $622 $-1 #
edge $-1 $634 -48.016556599836562 $448 -44.964551068259659 $444 $635 forward 7 unknown #
edge $-1 $449 -5.0713348379937457 $634 0 $290 $636 forward 7 unknown #
coedge $-1 $291 $626 $632 $637 forward $437 $-1 #
vertex $-1 $292 $638 #
vertex $-1 $292 $639 #
straight-curve $-1 -69.456009245863399 18.261975909632273 7.7073625778469008 1 0 0 I I #
coedge $-1 $451 $451 $-1 $640 reversed $295 $-1 #
edge $-1 $641 0 $641 6.2831853071796004 $296 $642 forward 7 unknown #
vertex $-1 $299 $643 #
ellipse-curve $-1 -61.012738405317762 21.657165817970885 6.1813598120584521 -0.6018150307709319 0 0.79863550430605224 0.39931775215302612 0 0.30090751538546595 1 I I #
face $-1 $-1 $315 $45 $-1 $644 reversed single #
loop $-1 $-1 $471 $300 #
plane-surface $-1 0 34.082396468010288 0 0 -1 0 0 0 -1 forward_v I I I I #
coedge $-1 $645 $469 $472 $646 forward $301 $-1 #
coedge $-1 $475 $303 $304 $463 reversed $188 $-1 #
coedge $-1 $469 $645 $303 $461 reversed $301 $-1 #
edge $-1 $476 -7.7073625778469026 $647 7.7073625778469026 $460 $648 forward 7 unknown #
coedge $-1 $305 $304 $645 $649 forward $121 $-1 #
edge $-1 $467 -63.037812433240759 $647 63.037812433240759 $459 $650 forward 7 unknown #
coedge $-1 $472 $471 $305 $465 reversed $456 $-1 #
edge $-1 $651 -63.037812433240759 $466 63.037812433240759 $464 $652 forward 7 unknown #
vertex $-1 $307 $653 #
vertex $-1 $478 $654 #
straight-curve $-1 63.037812433240759 0 -7.7073625778469026 0 -1 0 I I #
coedge $-1 $458 $460 $308 $470 reversed $301 $-1 #
edge $-1 $473 -34.082396468010288 $476 34.082396468010288 $469 $655 forward 7 unknown #
coedge $-1 $464 $309 $314 $479 forward $456 $-1 #
coedge $-1 $309 $464 $458 $646 reversed $456 $-1 #
vertex $-1 $310 $656 #
straight-curve $-1 0 34.082396468010288 7.7073625778469026 -1 0 0 I I #
coedge $-1 $311 $459 $313 $478 reversed $188 $-1 #
vertex $-1 $470 $657 #
straight-curve $-1 0 -34.082396468010288 7.7073625778469026 1 0 0 I I #
edge $-1 $316 -7.7073625778469026 $467 7.7073625778469026 $313 $658 forward 7 unknown #
edge $-1 $317 -7.7073625778469026 $466 7.7073625778469026 $314 $659 forward 7 unknown #
point $-1 63.037812433240759 -34.082396468010288 7.7073625778469026 #
point $-1 63.037812433240759 34.082396468010288 7.7073625778469026 #
face $-1 $-1 $660 $46 $-1 $661 reversed single #
loop $-1 $-1 $329 $319 #
plane-surface $-1 0 -34.082396468010288 0 0 1 0 0 0 1 forward_v I I I I #
coedge $-1 $662 $322 $489 $663 forward $196 $-1 #
coedge $-1 $322 $662 $664 $665 forward $196 $-1 #
edge $-1 $666 -63.037812433240759 $490 63.037812433240759 $322 $667 forward 7 unknown #
coedge $-1 $324 $323 $668 $669 reversed $125 $-1 #
coedge $-1 $325 $331 $485 $663 reversed $320 $-1 #
vertex $-1 $663 $670 #
straight-curve $-1 63.037812433240759 -25.0523557263095 -3.0857793986140578 0 0 1 I I #
coedge $-1 $668 $671 $327 $493 forward $660 $-1 #
edge $-1 $498 -19.298708419430341 $494 -10.268667677729553 $492 $672 forward 7 unknown #
vertex $-1 $493 $673 #
straight-curve $-1 0 -25.0523557263095 -4.6357550166093286 -1 0 0 I I #
coedge $-1 $674 $329 $671 $675 forward $483 $-1 #
coedge $-1 $329 $674 $331 $500 reversed $483 $-1 #
vertex $-1 $675 $676 #
straight-curve $-1 0 -34.082396468010288 -4.6357550166093286 -1 0 0 I I #
edge $-1 $333 4.6357550166093286 $677 7.7073625778469026 $331 $678 forward 7 unknown #
point $-1 63.037812433240759 -25.0523557263095 -4.6357550166093286 #
point $-1 63.037812433240759 -34.082396468010288 -4.6357550166093286 #
face $-1 $-1 $517 $47 $-1 $679 reversed single #
loop $-1 $-1 $509 $335 #
plane-surface $-1 -63.037812433240759 0 0 1 0 0 0 0 -1 forward_v I I I I #
coedge $-1 $680 $681 $338 $508 forward $336 $-1 #
coedge $-1 $339 $338 $346 $522 reversed $129 $-1 #
edge $-1 $682 -63.037812433240759 $511 63.037812433240759 $506 $683 forward 7 unknown #
coedge $-1 $684 $340 $342 $514 forward $504 $-1 #
coedge $-1 $340 $684 $680 $685 reversed $504 $-1 #
vertex $-1 $685 $686 #
vertex $-1 $514 $687 #
straight-curve $-1 -63.037812433240759 25.0523557263095 -3.0857793986140578 0 0 1 I I #
edge $-1 $512 10.268667677729553 $518 19.298708419430341 $509 $688 forward 7 unknown #
coedge $-1 $689 $343 $347 $523 forward $517 $-1 #
coedge $-1 $343 $689 $684 $690 reversed $517 $-1 #
loop $-1 $-1 $343 $503 #
vertex $-1 $690 $691 #
straight-curve $-1 0 34.082396468010288 -4.6357550166093286 1 0 0 I I #
straight-curve $-1 0 25.0523557263095 -4.6357550166093286 1 0 0 I I #
coedge $-1 $347 $346 $681 $692 reversed $204 $-1 #
edge $-1 $349 1.5499756179952708 $682 4.6215831792328448 $346 $693 forward 7 unknown #
edge $-1 $348 4.6357550166093286 $694 7.7073625778469026 $347 $695 forward 7 unknown #
point $-1 63.037812433240759 34.082396468010288 -4.6357550166093286 #
point $-1 63.037812433240759 25.0523557263095 -4.6357550166093286 #
loop $-1 $-1 $359 $351 #
plane-surface $-1 63.037812433240759 0 0 -1 0 0 0 0 1 forward_v I I I I #
coedge $-1 $529 $354 $356 $533 reversed $212 $-1 #
coedge $-1 $354 $528 $696 $697 reversed $212 $-1 #
coedge $-1 $362 $357 $354 $531 forward $352 $-1 #
edge $-1 $534 43.449665079085683 $698 51.573051136312863 $530 $699 forward 7 unknown #
coedge $-1 $356 $355 $537 $700 reversed $133 $-1 #
edge $-1 $701 -126.07562486648153 $534 -116.49670341624126 $528 $702 forward 7 unknown #
vertex $-1 $358 $703 #
straight-curve $-1 54.914426376013608 6.6019872967716964 7.7073625778468937 0 -1 0 I I #
coedge $-1 $696 $359 $362 $541 reversed $526 $-1 #
coedge $-1 $359 $696 $532 $700 forward $526 $-1 #
vertex $-1 $360 $704 #
straight-curve $-1 63.037812433240759 19.558609834088688 88.179701920712361 0 0 1 I I #
straight-curve $-1 -43.880380655281954 19.558609834088688 69.441210752902023 0.84804809178421925 0 -0.52991927123019833 I I #
edge $-1 $698 6.849339352998097 $363 19.558609834088688 $536 $705 forward 7 unknown #
point $-1 63.037812433240759 19.558609834088688 7.7073625778469026 #
point $-1 54.91442637601358 19.558609834088688 7.7073625778469008 #
edge $-1 $706 1 $706 0 $366 $-1 forward 7 unknown #
vertex $-1 $367 $707 #
ellipse-curve $-1 58.186973594545435 9.3911934492162104 3.9064377756698407 0.52991927123019833 0 0.84804809178421925 0.84804809178421925 0 -0.52991927123019833 1 I I #
point $-1 59.824167496411405 9.3911934492162104 4.6394157695753817 #
edge $-1 $708 1 $708 0 $370 $-1 forward 7 unknown #
vertex $-1 $371 $709 #
ellipse-curve $-1 58.186973594545435 13.203974593543386 3.9064377756698407 0.52991927123019833 0 0.84804809178421925 0.84804809178421925 0 -0.52991927123019833 1 I I #
point $-1 59.824167496411405 13.203974593543386 4.6394157695753817 #
edge $-1 $710 1 $710 0 $374 $-1 forward 7 unknown #
vertex $-1 $375 $711 #
ellipse-curve $-1 58.186973594545435 17.016755737870561 3.9064377756698407 0.52991927123019833 0 0.84804809178421925 0.84804809178421925 0 -0.52991927123019833 1 I I #
point $-1 59.824167496411405 17.016755737870561 4.6394157695753817 #
plane-surface $-1 0 0 7.7073625778469026 0 0 1 1 0 0 forward_v I I I I #
coedge $-1 $567 $566 $559 $712 forward $379 $-1 #
coedge $-1 $559 $381 $383 $563 reversed $241 $-1 #
coedge $-1 $381 $558 $557 $712 reversed $241 $-1 #
coedge $-1 $389 $384 $381 $561 forward $390 $-1 #
edge $-1 $564 -10.468344868468627 $713 -6.4181968126226394 $560 $714 forward 7 unknown #
coedge $-1 $383 $382 $567 $715 reversed $152 $-1 #
edge $-1 $716 0 $564 5.0713348379937457 $558 $717 forward 7 unknown #
vertex $-1 $385 $718 #
straight-curve $-1 -58.987664377394765 -7.9606838857466808 7.7073625778469044 0 1 0 I I #
coedge $-1 $557 $386 $389 $571 reversed $379 $-1 #
coedge $-1 $386 $557 $562 $715 forward $379 $-1 #
vertex $-1 $387 $719 #
straight-curve $-1 -63.037812433240759 -19.316557679831973 52.67191364610656 0 0 1 I I #
straight-curve $-1 -63.037812433240759 -19.316557679831973 4.655357046269998 -0.79863550430605224 0 -0.6018150307709319 I I #
edge $-1 $713 12.52617786315475 $391 19.316557679831973 $566 $720 forward 7 unknown #
point $-1 -63.037812433240759 -19.316557679831973 7.7073625778469026 #
point $-1 -58.987664377394772 -19.316557679831973 7.7073625778469026 #
edge $-1 $721 1 $721 0 $394 $-1 forward 7 unknown #
vertex $-1 $395 $722 #
ellipse-curve $-1 -60.410923374546826 -15.921367771493362 5.3827243077523947 -0.6018150307709319 0 0.79863550430605224 0.39931775215302612 0 0.30090751538546595 1 I I #
point $-1 -60.613420653164731 -15.921367771493362 6.4822673274439131 #
loop $-1 $-1 $406 $398 #
plane-surface $-1 -63.037812433240759 0 0 1 0 0 0 0 -1 forward_v I I I I #
coedge $-1 $581 $401 $403 $585 reversed $256 $-1 #
coedge $-1 $401 $580 $723 $724 reversed $256 $-1 #
coedge $-1 $409 $404 $401 $583 forward $399 $-1 #
edge $-1 $586 -10.468344868468627 $725 -6.4181968126226394 $582 $726 forward 7 unknown #
coedge $-1 $403 $402 $589 $727 reversed $161 $-1 #
edge $-1 $728 0 $586 5.0713348379937457 $580 $729 forward 7 unknown #
vertex $-1 $405 $730 #
straight-curve $-1 -58.987664377394765 -1.6975949541693058 7.7073625778469044 0 1 0 I I #
coedge $-1 $723 $406 $409 $593 reversed $578 $-1 #
coedge $-1 $406 $723 $584 $727 forward $578 $-1 #
vertex $-1 $407 $731 #
straight-curve $-1 -63.037812433240759 -6.7903798166772225 52.67191364610656 0 0 1 I I #
straight-curve $-1 -63.037812433240759 -6.7903798166772225 4.655357046269998 -0.79863550430605224 0 -0.6018150307709319 I I #
edge $-1 $725 8.8817841970012523e-016 $410 6.7903798166772225 $588 $732 forward 7 unknown #
point $-1 -63.037812433240759 -6.7903798166772225 7.7073625778469026 #
point $-1 -58.987664377394772 -6.7903798166772225 7.7073625778469026 #
edge $-1 $733 1 $733 0 $413 $-1 forward 7 unknown #
vertex $-1 $414 $734 #
ellipse-curve $-1 -60.410923374546826 -3.3951899083386117 5.3827243077523947 -0.6018150307709319 0 0.79863550430605224 0.39931775215302612 0 0.30090751538546595 1 I I #
point $-1 -60.613420653164731 -3.3951899083386117 6.4822673274439131 #
loop $-1 $-1 $425 $417 #
plane-surface $-1 -63.037812433240759 0 0 1 0 0 0 0 -1 forward_v I I I I #
coedge $-1 $603 $420 $422 $607 reversed $271 $-1 #
coedge $-1 $420 $602 $735 $736 reversed $271 $-1 #
coedge $-1 $428 $423 $420 $605 forward $418 $-1 #
edge $-1 $608 -10.468344868468627 $737 -6.4181968126226394 $604 $738 forward 7 unknown #
coedge $-1 $422 $421 $611 $739 reversed $170 $-1 #
edge $-1 $740 0 $608 5.0713348379937457 $602 $741 forward 7 unknown #
vertex $-1 $424 $742 #
straight-curve $-1 -58.987664377394765 4.5654939774080674 7.7073625778469044 0 1 0 I I #
coedge $-1 $735 $425 $428 $615 reversed $600 $-1 #
coedge $-1 $425 $735 $606 $739 forward $600 $-1 #
vertex $-1 $426 $743 #
straight-curve $-1 -63.037812433240759 5.735798046477524 52.67191364610656 0 0 1 I I #
straight-curve $-1 -63.037812433240759 5.735798046477524 4.655357046269998 -0.79863550430605224 0 -0.6018150307709319 I I #
edge $-1 $737 -12.526177863154746 $429 -5.735798046477524 $610 $744 forward 7 unknown #
point $-1 -63.037812433240759 5.735798046477524 7.7073625778469026 #
point $-1 -58.987664377394772 5.735798046477524 7.7073625778469026 #
edge $-1 $745 1 $745 0 $432 $-1 forward 7 unknown #
vertex $-1 $433 $746 #
ellipse-curve $-1 -60.410923374546826 9.1309879548161348 5.3827243077523947 -0.6018150307709319 0 0.79863550430605224 0.39931775215302612 0 0.30090751538546595 1 I I #
point $-1 -60.613420653164731 9.1309879548161348 6.4822673274439131 #
loop $-1 $-1 $444 $436 #
plane-surface $-1 -63.037812433240759 0 0 1 0 0 0 0 -1 forward_v I I I I #
coedge $-1 $625 $439 $441 $629 reversed $286 $-1 #
coedge $-1 $439 $624 $747 $748 reversed $286 $-1 #
coedge $-1 $447 $442 $439 $627 forward $437 $-1 #
edge $-1 $630 -10.468344868468627 $749 -6.4181968126226394 $626 $750 forward 7 unknown #
coedge $-1 $441 $440 $633 $751 reversed $179 $-1 #
edge $-1 $752 0 $630 5.0713348379937457 $624 $753 forward 7 unknown #
vertex $-1 $443 $754 #
straight-curve $-1 -58.987664377394765 10.828582908985442 7.7073625778469044 0 1 0 I I #
coedge $-1 $747 $444 $447 $637 reversed $622 $-1 #
coedge $-1 $444 $747 $628 $751 forward $622 $-1 #
vertex $-1 $445 $755 #
straight-curve $-1 -63.037812433240759 18.261975909632273 52.67191364610656 0 0 1 I I #
straight-curve $-1 -63.037812433240759 18.261975909632273 4.655357046269998 -0.79863550430605224 0 -0.6018150307709319 I I #
edge $-1 $749 -25.052355726309496 $448 -18.261975909632273 $632 $756 forward 7 unknown #
point $-1 -63.037812433240759 18.261975909632273 7.7073625778469026 #
point $-1 -58.987664377394772 18.261975909632273 7.7073625778469026 #
edge $-1 $757 1 $757 0 $451 $-1 forward 7 unknown #
vertex $-1 $452 $758 #
ellipse-curve $-1 -60.410923374546826 21.657165817970885 5.3827243077523947 -0.6018150307709319 0 0.79863550430605224 0.39931775215302612 0 0.30090751538546595 1 I I #
point $-1 -60.613420653164731 21.657165817970885 6.4822673274439131 #
plane-surface $-1 63.037812433240759 0 0 -1 0 0 0 0 1 forward_v I I I I #
coedge $-1 $460 $458 $462 $649 reversed $301 $-1 #
edge $-1 $473 -7.7073625778469026 $651 7.7073625778469026 $472 $759 forward 7 unknown #
vertex $-1 $649 $760 #
straight-curve $-1 -63.037812433240759 -34.082396468010288 0 0 0 -1 I I #
edge $-1 $647 -34.082396468010288 $651 34.082396468010288 $645 $761 forward 7 unknown #
straight-curve $-1 0 -34.082396468010288 -7.7073625778469026 -1 0 0 I I #
vertex $-1 $465 $762 #
straight-curve $-1 0 34.082396468010288 -7.7073625778469026 1 0 0 I I #
point $-1 63.037812433240759 34.082396468010288 -7.7073625778469026 #
point $-1 63.037812433240759 -34.082396468010288 -7.7073625778469026 #
straight-curve $-1 -63.037812433240759 0 7.7073625778469026 0 -1 0 I I #
point $-1 -63.037812433240759 34.082396468010288 7.7073625778469026 #
point $-1 -63.037812433240759 -34.082396468010288 7.7073625778469026 #
straight-curve $-1 63.037812433240759 -34.082396468010288 0 0 0 -1 I I #
straight-curve $-1 63.037812433240759 34.082396468010288 0 0 0 -1 I I #
loop $-1 $-1 $668 $482 #
plane-surface $-1 -63.037812433240759 0 0 1 0 0 0 0 -1 forward_v I I I I #
coedge $-1 $486 $485 $674 $763 forward $196 $-1 #
edge $-1 $490 25.0523557263095 $677 34.082396468010288 $489 $764 forward 7 unknown #
coedge $-1 $671 $668 $486 $665 reversed $660 $-1 #
edge $-1 $765 -34.082396468010288 $666 -25.0523557263095 $664 $766 forward 7 unknown #
vertex $-1 $669 $767 #
straight-curve $-1 0 -25.0523557263095 -7.7073625778469026 1 0 0 I I #
coedge $-1 $664 $492 $488 $669 forward $660 $-1 #
edge $-1 $494 1.5499756179952708 $666 4.6215831792328448 $668 $768 forward 7 unknown #
point $-1 63.037812433240759 -25.0523557263095 -7.7073625778469026 #
coedge $-1 $492 $664 $496 $675 reversed $660 $-1 #
straight-curve $-1 -63.037812433240759 -14.783688048579947 -4.6357550166093286 0 1 0 I I #
point $-1 -63.037812433240759 -25.0523557263095 -4.6357550166093286 #
coedge $-1 $497 $496 $662 $763 reversed $483 $-1 #
edge $-1 $498 4.6357550166093286 $765 7.7073625778469026 $671 $769 forward 7 unknown #
point $-1 -63.037812433240759 -34.082396468010288 -4.6357550166093286 #
vertex $-1 $500 $770 #
straight-curve $-1 63.037812433240759 -34.082396468010288 0 0 0 -1 I I #
plane-surface $-1 0 34.082396468010288 0 0 -1 0 0 0 -1 forward_v I I I I #
coedge $-1 $771 $506 $510 $685 forward $336 $-1 #
coedge $-1 $506 $771 $521 $692 forward $336 $-1 #
vertex $-1 $508 $772 #
straight-curve $-1 0 25.0523557263095 -7.7073625778469026 -1 0 0 I I #
coedge $-1 $510 $509 $516 $690 forward $504 $-1 #
edge $-1 $511 25.0523557263095 $773 34.082396468010288 $510 $774 forward 7 unknown #
point $-1 -63.037812433240759 25.0523557263095 -7.7073625778469026 #
point $-1 -63.037812433240759 25.0523557263095 -4.6357550166093286 #
straight-curve $-1 -63.037812433240759 14.783688048579947 -4.6357550166093286 0 1 0 I I #
coedge $-1 $516 $515 $771 $775 reversed $517 $-1 #
edge $-1 $518 4.6357550166093286 $773 7.7073625778469026 $516 $776 forward 7 unknown #
point $-1 -63.037812433240759 34.082396468010288 -4.6357550166093286 #
edge $-1 $694 -34.082396468010288 $682 -25.0523557263095 $521 $777 forward 7 unknown #
straight-curve $-1 63.037812433240759 25.0523557263095 -3.0857793986140578 0 0 -1 I I #
vertex $-1 $692 $778 #
straight-curve $-1 63.037812433240759 34.082396468010288 0 0 0 -1 I I #
coedge $-1 $537 $536 $529 $697 forward $526 $-1 #
edge $-1 $698 80.472339342865453 $701 85.548394416948099 $696 $779 forward 7 unknown #
vertex $-1 $541 $780 #
straight-curve $-1 11.464761296927897 6.849339352998097 7.7073625778469079 1 0 0 I I #
edge $-1 $701 0.24735205622640066 $538 12.956622537316992 $537 $781 forward 7 unknown #
vertex $-1 $700 $782 #
straight-curve $-1 -43.880380655281954 6.849339352998097 69.441210752902023 -0.84804809178421925 0 0.52991927123019833 I I #
point $-1 54.91442637601358 6.849339352998097 7.7073625778469008 #
point $-1 63.037812433240759 19.558609834088688 2.6313075037642619 #
straight-curve $-1 63.037812433240759 0 7.7073625778469026 0 1 0 I I #
vertex $-1 $544 $783 #
point $-1 59.035021686329657 9.3911934492162104 3.376518504439642 #
vertex $-1 $548 $784 #
point $-1 59.035021686329657 13.203974593543386 3.376518504439642 #
vertex $-1 $552 $785 #
point $-1 59.035021686329657 17.016755737870561 3.376518504439642 #
edge $-1 $713 44.964551068259659 $716 48.016556599836562 $557 $786 forward 7 unknown #
vertex $-1 $571 $787 #
straight-curve $-1 -69.456009245863399 -12.52617786315475 7.7073625778469008 -1 0 0 I I #
edge $-1 $716 4.5654939774080692 $568 11.355873794085293 $567 $788 forward 7 unknown #
vertex $-1 $715 $789 #
straight-curve $-1 -63.037812433240759 -12.52617786315475 4.655357046269998 0.79863550430605224 0 0.6018150307709319 I I #
point $-1 -58.987664377394772 -12.52617786315475 7.7073625778469026 #
point $-1 -63.037812433240759 -19.316557679831973 4.655357046269998 #
straight-curve $-1 -63.037812433240759 0 7.7073625778469026 0 -1 0 I I #
vertex $-1 $574 $790 #
point $-1 -60.011605622393802 -15.921367771493362 5.6836318231378611 #
coedge $-1 $589 $588 $581 $724 forward $578 $-1 #
edge $-1 $725 44.964551068259659 $728 48.016556599836562 $723 $791 forward 7 unknown #
vertex $-1 $593 $792 #
straight-curve $-1 -69.456009245863399 -8.8817841970012523e-016 7.7073625778469008 -1 0 0 I I #
edge $-1 $728 -1.6975949541693049 $590 5.0927848625079166 $589 $793 forward 7 unknown #
vertex $-1 $727 $794 #
straight-curve $-1 -63.037812433240759 -8.8817841970012523e-016 4.655357046269998 0.79863550430605224 0 0.6018150307709319 I I #
point $-1 -58.987664377394772 -8.8817841970012523e-016 7.7073625778469026 #
point $-1 -63.037812433240759 -6.7903798166772225 4.655357046269998 #
straight-curve $-1 -63.037812433240759 0 7.7073625778469026 0 -1 0 I I #
vertex $-1 $596 $795 #
point $-1 -60.011605622393802 -3.3951899083386117 5.6836318231378611 #
coedge $-1 $611 $610 $603 $736 forward $600 $-1 #
edge $-1 $737 44.964551068259659 $740 48.016556599836562 $735 $796 forward 7 unknown #
vertex $-1 $615 $797 #
straight-curve $-1 -69.456009245863399 12.526177863154746 7.7073625778469008 -1 0 0 I I #
edge $-1 $740 -7.9606838857466791 $612 -1.1703040690694566 $611 $798 forward 7 unknown #
vertex $-1 $739 $799 #
straight-curve $-1 -63.037812433240759 12.526177863154746 4.655357046269998 0.79863550430605224 0 0.6018150307709319 I I #
point $-1 -58.987664377394772 12.526177863154746 7.7073625778469026 #
point $-1 -63.037812433240759 5.735798046477524 4.655357046269998 #
straight-curve $-1 -63.037812433240759 0 7.7073625778469026 0 -1 0 I I #
vertex $-1 $618 $800 #
point $-1 -60.011605622393802 9.1309879548161348 5.6836318231378611 #
coedge $-1 $633 $632 $625 $748 forward $622 $-1 #
edge $-1 $749 44.964551068259659 $752 48.016556599836562 $747 $801 forward 7 unknown #
vertex $-1 $637 $802 #
straight-curve $-1 -69.456009245863399 25.052355726309496 7.7073625778469008 -1 0 0 I I #
edge $-1 $752 -14.223772817324054 $634 -7.4333930006468307 $633 $803 forward 7 unknown #
vertex $-1 $751 $804 #
straight-curve $-1 -63.037812433240759 25.052355726309496 4.655357046269998 0.79863550430605224 0 0.6018150307709319 I I #
point $-1 -58.987664377394772 25.052355726309496 7.7073625778469026 #
point $-1 -63.037812433240759 18.261975909632273 4.655357046269998 #
straight-curve $-1 -63.037812433240759 0 7.7073625778469026 0 -1 0 I I #
vertex $-1 $640 $805 #
point $-1 -60.011605622393802 21.657165817970885 5.6836318231378611 #
straight-curve $-1 -63.037812433240759 34.082396468010288 0 0 0 -1 I I #
point $-1 -63.037812433240759 -34.082396468010288 -7.7073625778469026 #
straight-curve $-1 -63.037812433240759 0 -7.7073625778469026 0 1 0 I I #
point $-1 -63.037812433240759 34.082396468010288 -7.7073625778469026 #
edge $-1 $677 -63.037812433240759 $765 63.037812433240759 $674 $806 forward 7 unknown #
straight-curve $-1 63.037812433240759 0 -7.7073625778469026 0 -1 0 I I #
vertex $-1 $665 $807 #
straight-curve $-1 -63.037812433240759 0 -7.7073625778469026 0 1 0 I I #
point $-1 -63.037812433240759 -25.0523557263095 -7.7073625778469026 #
straight-curve $-1 -63.037812433240759 -25.0523557263095 -3.0857793986140578 0 0 -1 I I #
straight-curve $-1 -63.037812433240759 -34.082396468010288 0 0 0 -1 I I #
point $-1 63.037812433240759 -34.082396468010288 -7.7073625778469026 #
coedge $-1 $681 $680 $689 $775 forward $336 $-1 #
point $-1 63.037812433240759 25.0523557263095 -7.7073625778469026 #
vertex $-1 $775 $808 #
straight-curve $-1 -63.037812433240759 0 -7.7073625778469026 0 1 0 I I #
edge $-1 $773 -63.037812433240759 $694 63.037812433240759 $689 $809 forward 7 unknown #
straight-curve $-1 -63.037812433240759 34.082396468010288 0 0 0 -1 I I #
straight-curve $-1 63.037812433240759 0 -7.7073625778469026 0 -1 0 I I #
point $-1 63.037812433240759 34.082396468010288 -7.7073625778469026 #
straight-curve $-1 63.037812433240759 6.849339352998097 88.179701920712361 0 0 -1 I I #
point $-1 63.037812433240759 6.849339352998097 7.7073625778469026 #
straight-curve $-1 63.037812433240774 6.6019872967716964 2.6313075037642619 0 1 0 I I #
point $-1 63.037812433240759 6.849339352998097 2.6313075037642619 #
point $-1 57.657054323315236 9.3911934492162104 3.058389683885621 #
point $-1 57.657054323315236 13.203974593543386 3.058389683885621 #
point $-1 57.657054323315236 17.016755737870561 3.058389683885621 #
straight-curve $-1 -63.037812433240759 -12.52617786315475 52.67191364610656 0 0 -1 I I #
point $-1 -63.037812433240759 -12.52617786315475 7.7073625778469026 #
straight-curve $-1 -63.037812433240759 -7.9606838857466808 4.655357046269998 0 -1 0 I I #
point $-1 -63.037812433240759 -12.52617786315475 4.655357046269998 #
point $-1 -60.110015859161365 -15.921367771493362 4.9834065555993687 #
straight-curve $-1 -63.037812433240759 -8.8817841970012523e-016 52.67191364610656 0 0 -1 I I #
point $-1 -63.037812433240759 -8.8817841970012523e-016 7.7073625778469026 #
straight-curve $-1 -63.037812433240759 -1.6975949541693058 4.655357046269998 0 -1 0 I I #
point $-1 -63.037812433240759 -8.8817841970012523e-016 4.655357046269998 #
point $-1 -60.110015859161365 -3.3951899083386117 4.9834065555993687 #
straight-curve $-1 -63.037812433240759 12.526177863154746 52.67191364610656 0 0 -1 I I #
point $-1 -63.037812433240759 12.526177863154746 7.7073625778469026 #
straight-curve $-1 -63.037812433240759 4.5654939774080674 4.655357046269998 0 -1 0 I I #
point $-1 -63.037812433240759 12.526177863154746 4.655357046269998 #
point $-1 -60.110015859161365 9.1309879548161348 4.9834065555993687 #
straight-curve $-1 -63.037812433240759 25.052355726309496 52.67191364610656 0 0 -1 I I #
point $-1 -63.037812433240759 25.052355726309496 7.7073625778469026 #
straight-curve $-1 -63.037812433240759 10.828582908985442 4.655357046269998 0 -1 0 I I #
point $-1 -63.037812433240759 25.052355726309496 4.655357046269998 #
point $-1 -60.110015859161365 21.657165817970885 4.9834065555993687 #
straight-curve $-1 0 -34.082396468010288 -7.7073625778469026 -1 0 0 I I #
point $-1 -63.037812433240759 -34.082396468010288 -7.7073625778469026 #
point $-1 -63.037812433240759 34.082396468010288 -7.7073625778469026 #
straight-curve $-1 0 34.082396468010288 -7.7073625778469026 1 0 0 I I #
End-of-ACIS-data 