500 0 14 0           
7 Unknown 11 ACIS 5.0 NT 24 Thu Mar 25 23:04:53 1999 
-1 9.9999999999999995e-007 1e-010 
body $-1 $14 $-1 $15 #
body $-1 $16 $-1 $17 #
body $-1 $18 $-1 $19 #
body $-1 $20 $-1 $21 #
body $-1 $22 $-1 $23 #
body $-1 $24 $-1 $25 #
body $-1 $26 $-1 $27 #
body $-1 $28 $-1 $29 #
body $-1 $30 $-1 $31 #
body $-1 $32 $-1 $33 #
body $-1 $34 $-1 $35 #
body $-1 $36 $-1 $37 #
body $-1 $38 $-1 $39 #
body $-1 $40 $-1 $41 #
lump $-1 $-1 $42 $0 #
transform $-1 1 0 0 0 1 0 0 0 1 72.167729728080076 39.465949454342471 14.140991630561192 1 rotate no_reflect no_shear #
lump $-1 $-1 $43 $1 #
transform $-1 1 0 0 0 1 0 0 0 1 72.167729728080076 39.465949454342471 14.140991630561192 1 rotate no_reflect no_shear #
lump $-1 $-1 $44 $2 #
transform $-1 1 0 0 0 1 0 0 0 1 72.167729728080076 39.465949454342471 14.140991630561192 1 rotate no_reflect no_shear #
lump $-1 $-1 $45 $3 #
transform $-1 1 0 0 0 1 0 0 0 1 72.167729728080076 39.465949454342471 14.140991630561192 1 rotate no_reflect no_shear #
lump $-1 $-1 $46 $4 #
transform $-1 1 0 0 0 1 0 0 0 1 72.167729728080076 39.465949454342471 14.140991630561192 1 rotate no_reflect no_shear #
lump $-1 $-1 $47 $5 #
transform $-1 1 0 0 0 1 0 0 0 1 72.167729728080076 39.465949454342471 14.140991630561192 1 rotate no_reflect no_shear #
lump $-1 $-1 $48 $6 #
transform $-1 1 0 0 0 1 0 0 0 1 72.167729728080076 39.465949454342471 14.140991630561192 1 rotate no_reflect no_shear #
lump $-1 $-1 $49 $7 #
transform $-1 1 0 0 0 1 0 0 0 1 72.167729728080076 39.465949454342471 14.140991630561192 1 rotate no_reflect no_shear #
lump $-1 $-1 $50 $8 #
transform $-1 1 0 0 0 1 0 0 0 1 72.167729728080076 39.465949454342471 14.140991630561192 1 rotate no_reflect no_shear #
lump $-1 $-1 $51 $9 #
transform $-1 1 0 0 0 1 0 0 0 1 72.167729728080076 39.465949454342471 14.140991630561192 1 rotate no_reflect no_shear #
lump $-1 $-1 $52 $10 #
transform $-1 1 0 0 0 1 0 0 0 1 72.167729728080076 39.465949454342471 14.140991630561192 1 rotate no_reflect no_shear #
lump $-1 $-1 $53 $11 #
transform $-1 1 0 0 0 1 0 0 0 1 72.167729728080076 39.465949454342471 14.140991630561192 1 rotate no_reflect no_shear #
lump $-1 $-1 $54 $12 #
transform $-1 1 0 0 0 1 0 0 0 1 72.167729728080076 39.465949454342471 14.140991630561192 1 rotate no_reflect no_shear #
lump $-1 $-1 $55 $13 #
transform $-1 1 0 0 0 1 0 0 0 1 72.167729728080076 39.465949454342471 14.140991630561192 1 rotate no_reflect no_shear #
shell $-1 $-1 $-1 $56 $-1 $14 #
shell $-1 $-1 $-1 $57 $-1 $16 #
shell $-1 $-1 $-1 $58 $-1 $18 #
shell $-1 $-1 $-1 $59 $-1 $20 #
shell $-1 $-1 $-1 $60 $-1 $22 #
shell $-1 $-1 $-1 $61 $-1 $24 #
shell $-1 $-1 $-1 $62 $-1 $26 #
shell $-1 $-1 $-1 $63 $-1 $28 #
shell $-1 $-1 $-1 $64 $-1 $30 #
shell $-1 $-1 $-1 $65 $-1 $32 #
shell $-1 $-1 $-1 $66 $-1 $34 #
shell $-1 $-1 $-1 $67 $-1 $36 #
shell $-1 $-1 $-1 $68 $-1 $38 #
shell $-1 $-1 $-1 $69 $-1 $40 #
face $-1 $70 $71 $42 $-1 $72 forward single #
face $-1 $73 $74 $43 $-1 $75 reversed single #
face $-1 $76 $77 $44 $-1 $78 reversed single #
face $-1 $79 $80 $45 $-1 $81 forward single #
face $-1 $82 $83 $46 $-1 $84 reversed single #
face $-1 $85 $86 $47 $-1 $87 forward single #
face $-1 $88 $89 $48 $-1 $90 reversed single #
face $-1 $91 $92 $49 $-1 $93 forward single #
face $-1 $94 $95 $50 $-1 $96 reversed single #
face $-1 $97 $98 $51 $-1 $99 forward single #
face $-1 $100 $101 $52 $-1 $102 reversed single #
face $-1 $103 $104 $53 $-1 $105 forward single #
face $-1 $106 $107 $54 $-1 $108 forward single #
face $-1 $109 $110 $55 $-1 $111 forward single #
face $-1 $112 $113 $42 $-1 $114 reversed single #
loop $-1 $-1 $115 $56 #
plane-surface $-1 0 0 14.140991630561192 0 0 1 1 0 0 forward_v I I I I #
face $-1 $116 $117 $43 $-1 $118 reversed single #
loop $-1 $-1 $119 $57 #
plane-surface $-1 -56.277298008024239 -36.57944710377609 0 -1 0 0 0 0 1 forward_v I I I I #
face $-1 $120 $121 $44 $-1 $122 reversed single #
loop $-1 $-1 $123 $58 #
plane-surface $-1 -49.122848811890805 -39.465949454342464 10.216514069493769 0 -0.51503808176128008 0.85716729658548041 1 0 0 forward_v I I I I #
face $-1 $124 $125 $45 $-1 $126 forward single #
loop $-1 $127 $128 $59 #
cone-surface $-1 -49.122848811890805 -35.49477962156805 11.004676675165543 0 0.51503808176128008 -0.85716729658548041 1.5 0 0 1 I I 0 1 1.5 forward I I I I #
face $-1 $129 $130 $46 $-1 $131 reversed single #
loop $-1 $-1 $132 $60 #
plane-surface $-1 -9.857142681731295 -113.8042076227762 133.93614965295379 -1 0 0 0 -0.51503808176128008 0.85716729658548041 forward_v I I I I #
face $-1 $133 $134 $47 $-1 $135 forward single #
loop $-1 $136 $137 $61 #
cone-surface $-1 -17.011591877864724 -35.49477962156805 11.004676675165543 0 0.51503808176128008 -0.85716729658548041 1.5 0 0 1 I I 0 1 1.5 forward I I I I #
face $-1 $138 $139 $48 $-1 $140 reversed single #
loop $-1 $-1 $141 $62 #
plane-surface $-1 22.254114252294784 -113.8042076227762 133.93614965295379 -1 0 0 0 -0.51503808176128008 0.85716729658548041 forward_v I I I I #
face $-1 $142 $143 $49 $-1 $144 forward single #
loop $-1 $145 $146 $63 #
cone-surface $-1 15.099665056161356 -35.49477962156805 11.004676675165543 0 0.51503808176128008 -0.85716729658548041 1.5 0 0 1 I I 0 1 1.5 forward I I I I #
face $-1 $147 $148 $50 $-1 $149 reversed single #
loop $-1 $-1 $150 $64 #
plane-surface $-1 54.365371186320871 -113.8042076227762 133.93614965295379 -1 0 0 0 -0.51503808176128008 0.85716729658548041 forward_v I I I I #
face $-1 $151 $152 $51 $-1 $153 forward single #
loop $-1 $154 $155 $65 #
cone-surface $-1 47.210921990187444 -35.49477962156805 11.004676675165543 0 0.51503808176128008 -0.85716729658548041 1.5 0 0 1 I I 0 1 1.5 forward I I I I #
face $-1 $156 $157 $52 $-1 $158 reversed single #
loop $-1 $-1 $159 $66 #
plane-surface $-1 -41.634406817309639 88.461487630769767 162.962203330569 1 0 0 0 -0.71933980857756763 -0.69465836192734942 forward_v I I I I #
face $-1 $160 $161 $53 $-1 $162 forward single #
loop $-1 $163 $164 $67 #
cone-surface $-1 -34.737566987619509 31.914867767001905 6.5717471848021303 0 -0.71933980857756763 -0.69465836192734942 2.5 0 0 1 I I 0 1 2.5 forward I I I I #
face $-1 $165 $166 $54 $-1 $167 forward single #
loop $-1 $168 $169 $68 #
cone-surface $-1 -24.392307243084304 31.914867767001905 6.5717471848021303 0 -0.71933980857756763 -0.69465836192734942 2.5 0 0 1 I I 0 1 2.5 forward I I I I #
face $-1 $170 $171 $55 $-1 $172 forward single #
loop $-1 $173 $174 $69 #
cone-surface $-1 -14.047047498549105 31.914867767001905 6.5717471848021303 0 -0.71933980857756763 -0.69465836192734942 2.5 0 0 1 I I 0 1 2.5 forward I I I I #
face $-1 $175 $176 $42 $-1 $177 reversed single #
loop $-1 $-1 $178 $70 #
plane-surface $-1 0 0 -14.140991630561192 0 0 1 1 0 0 forward_v I I I I #
coedge $-1 $179 $180 $181 $182 forward $71 $-1 #
face $-1 $183 $184 $43 $-1 $185 forward single #
loop $-1 $-1 $186 $73 #
plane-surface $-1 -64.222513868052161 -33.692944753209709 0 0 -1 0 0 0 -1 forward_v I I I I #
coedge $-1 $187 $188 $189 $190 reversed $74 $-1 #
face $-1 $191 $192 $44 $-1 $193 forward single #
loop $-1 $-1 $194 $76 #
plane-surface $-1 -41.968399615757377 -113.8042076227762 133.93614965295379 -1 0 0 0 -0.51503808176128008 0.85716729658548041 forward_v I I I I #
coedge $-1 $195 $196 $197 $198 reversed $77 $-1 #
face $-1 $-1 $199 $45 $-1 $200 forward single #
loop $-1 $201 $202 $79 #
cone-surface $-1 -49.122848811890805 -34.403044910261769 9.1877250278644915 0 0.51503808176128008 -0.85716729658548041 0.75 0 0 1 I I -0.70710678118654757 0.70710678118654757 0.75 forward I I I I #
loop $-1 $-1 $203 $59 #
coedge $-1 $128 $128 $204 $205 reversed $80 $-1 #
face $-1 $206 $207 $46 $-1 $208 reversed single #
loop $-1 $-1 $209 $82 #
plane-surface $-1 -17.011591877864724 -39.465949454342464 10.216514069493769 0 -0.51503808176128008 0.85716729658548041 1 0 0 forward_v I I I I #
coedge $-1 $210 $211 $212 $213 reversed $83 $-1 #
face $-1 $-1 $214 $47 $-1 $215 forward single #
loop $-1 $216 $217 $85 #
cone-surface $-1 -17.011591877864724 -34.403044910261769 9.1877250278644915 0 0.51503808176128008 -0.85716729658548041 0.75 0 0 1 I I -0.70710678118654757 0.70710678118654757 0.75 forward I I I I #
loop $-1 $-1 $218 $61 #
coedge $-1 $137 $137 $219 $220 reversed $86 $-1 #
face $-1 $221 $222 $48 $-1 $223 reversed single #
loop $-1 $-1 $224 $88 #
plane-surface $-1 15.099665056161356 -39.465949454342464 10.216514069493769 0 -0.51503808176128008 0.85716729658548041 1 0 0 forward_v I I I I #
coedge $-1 $225 $226 $227 $228 reversed $89 $-1 #
face $-1 $-1 $229 $49 $-1 $230 forward single #
loop $-1 $231 $232 $91 #
cone-surface $-1 15.099665056161356 -34.403044910261769 9.1877250278644915 0 0.51503808176128008 -0.85716729658548041 0.75 0 0 1 I I -0.70710678118654757 0.70710678118654757 0.75 forward I I I I #
loop $-1 $-1 $233 $63 #
coedge $-1 $146 $146 $234 $235 reversed $92 $-1 #
face $-1 $236 $237 $50 $-1 $238 reversed single #
loop $-1 $-1 $239 $94 #
plane-surface $-1 47.210921990187444 -39.465949454342464 10.216514069493769 0 -0.51503808176128008 0.85716729658548041 1 0 0 forward_v I I I I #
coedge $-1 $240 $241 $242 $243 reversed $95 $-1 #
face $-1 $-1 $244 $51 $-1 $245 forward single #
loop $-1 $246 $247 $97 #
cone-surface $-1 47.210921990187444 -34.403044910261769 9.1877250278644915 0 0.51503808176128008 -0.85716729658548041 0.75 0 0 1 I I -0.70710678118654757 0.70710678118654757 0.75 forward I I I I #
loop $-1 $-1 $248 $65 #
coedge $-1 $155 $155 $249 $250 reversed $98 $-1 #
face $-1 $251 $252 $52 $-1 $253 reversed single #
loop $-1 $-1 $254 $100 #
plane-surface $-1 -24.392307243084304 -15.364754145379749 62.698369496721426 0 0.71933980857756763 0.69465836192734942 1 0 0 forward_v I I I I #
coedge $-1 $255 $256 $257 $258 reversed $101 $-1 #
face $-1 $-1 $259 $53 $-1 $260 forward single #
loop $-1 $261 $262 $103 #
cone-surface $-1 -34.737566987619509 27.434306305580371 2.2449193793724369 0 -0.71933980857756763 -0.69465836192734942 1.25 0 0 1 I I -0.70710678118654746 0.70710678118654746 1.25 forward I I I I #
loop $-1 $-1 $263 $67 #
coedge $-1 $164 $164 $264 $265 reversed $104 $-1 #
face $-1 $-1 $266 $54 $-1 $267 forward single #
loop $-1 $268 $269 $106 #
cone-surface $-1 -24.392307243084304 27.434306305580371 2.2449193793724369 0 -0.71933980857756763 -0.69465836192734942 1.25 0 0 1 I I -0.70710678118654746 0.70710678118654746 1.25 forward I I I I #
loop $-1 $-1 $270 $68 #
coedge $-1 $169 $169 $271 $272 reversed $107 $-1 #
face $-1 $-1 $273 $55 $-1 $274 forward single #
loop $-1 $275 $276 $109 #
cone-surface $-1 -14.047047498549105 27.434306305580371 2.2449193793724369 0 -0.71933980857756763 -0.69465836192734942 1.25 0 0 1 I I -0.70710678118654746 0.70710678118654746 1.25 forward I I I I #
loop $-1 $-1 $277 $69 #
coedge $-1 $174 $174 $278 $279 reversed $110 $-1 #
face $-1 $280 $281 $42 $-1 $282 reversed single #
loop $-1 $-1 $283 $112 #
plane-surface $-1 0 -39.465949454342471 0 0 1 0 0 0 1 forward_v I I I I #
coedge $-1 $284 $285 $286 $287 forward $113 $-1 #
coedge $-1 $288 $115 $289 $290 forward $71 $-1 #
coedge $-1 $115 $288 $291 $292 forward $71 $-1 #
coedge $-1 $293 $294 $115 $182 reversed $295 $-1 #
edge $-1 $296 -39.465949454342471 $297 39.465949454342471 $181 $298 forward 7 unknown #
face $-1 $299 $300 $43 $-1 $301 reversed single #
loop $-1 $-1 $302 $116 #
plane-surface $-1 0 0 14.140991630561192 0 0 1 1 0 0 forward_v I I I I #
coedge $-1 $303 $304 $305 $306 forward $117 $-1 #
coedge $-1 $305 $119 $307 $308 reversed $74 $-1 #
coedge $-1 $119 $305 $302 $309 reversed $74 $-1 #
coedge $-1 $310 $311 $119 $190 forward $312 $-1 #
edge $-1 $313 -14.140991630561192 $314 14.140991630561192 $189 $315 forward 7 unknown #
face $-1 $316 $317 $44 $-1 $318 forward single #
loop $-1 $-1 $319 $120 #
plane-surface $-1 0 0 14.140991630561192 0 0 1 1 0 0 forward_v I I I I #
coedge $-1 $320 $321 $322 $323 reversed $121 $-1 #
coedge $-1 $324 $123 $325 $326 reversed $77 $-1 #
coedge $-1 $123 $324 $320 $327 forward $77 $-1 #
coedge $-1 $322 $328 $123 $198 forward $329 $-1 #
edge $-1 $330 -31.715873602078837 $331 -17.406975209811975 $197 $332 forward 7 unknown #
loop $-1 $-1 $204 $124 #
plane-surface $-1 -49.122848811890805 -39.465949454342464 10.216514069493769 0 -0.51503808176128008 0.85716729658548041 1 0 0 forward_v I I I I #
loop $-1 $-1 $333 $79 #
coedge $-1 $202 $202 $203 $334 reversed $125 $-1 #
coedge $-1 $203 $203 $202 $334 forward $127 $-1 #
coedge $-1 $204 $204 $128 $205 forward $199 $-1 #
edge $-1 $335 2.0913331627885476e-016 $335 6.2831853071796004 $204 $336 forward 7 unknown #
face $-1 $337 $338 $46 $-1 $339 forward single #
loop $-1 $-1 $340 $129 #
plane-surface $-1 -24.166041073998151 -113.8042076227762 133.93614965295379 1 0 0 0 0.51503808176128008 -0.85716729658548041 forward_v I I I I #
coedge $-1 $341 $342 $343 $344 reversed $130 $-1 #
coedge $-1 $211 $132 $345 $346 reversed $83 $-1 #
coedge $-1 $132 $210 $341 $347 reversed $83 $-1 #
coedge $-1 $343 $348 $132 $213 forward $338 $-1 #
edge $-1 $349 17.436154357045631 $350 23.967581722623869 $212 $351 forward 7 unknown #
loop $-1 $-1 $219 $133 #
plane-surface $-1 -17.011591877864724 -39.465949454342464 10.216514069493769 0 -0.51503808176128008 0.85716729658548041 1 0 0 forward_v I I I I #
loop $-1 $-1 $352 $85 #
coedge $-1 $217 $217 $218 $353 reversed $134 $-1 #
coedge $-1 $218 $218 $217 $353 forward $136 $-1 #
coedge $-1 $219 $219 $137 $220 forward $214 $-1 #
edge $-1 $354 2.0913331627885476e-016 $354 6.2831853071796004 $219 $355 forward 7 unknown #
face $-1 $356 $357 $48 $-1 $358 reversed single #
loop $-1 $-1 $359 $138 #
plane-surface $-1 7.9452158600279272 -113.8042076227762 133.93614965295379 1 0 0 0 0.51503808176128008 -0.85716729658548041 forward_v I I I I #
coedge $-1 $360 $361 $362 $363 reversed $139 $-1 #
coedge $-1 $226 $141 $364 $365 reversed $89 $-1 #
coedge $-1 $141 $225 $360 $366 reversed $89 $-1 #
coedge $-1 $362 $367 $141 $228 forward $368 $-1 #
edge $-1 $369 17.436154357045631 $370 23.967581722623869 $227 $371 forward 7 unknown #
loop $-1 $-1 $234 $142 #
plane-surface $-1 15.099665056161356 -39.465949454342464 10.216514069493769 0 -0.51503808176128008 0.85716729658548041 1 0 0 forward_v I I I I #
loop $-1 $-1 $372 $91 #
coedge $-1 $232 $232 $233 $373 reversed $143 $-1 #
coedge $-1 $233 $233 $232 $373 forward $145 $-1 #
coedge $-1 $234 $234 $146 $235 forward $229 $-1 #
edge $-1 $374 2.0913331627885476e-016 $374 6.2831853071796004 $234 $375 forward 7 unknown #
face $-1 $376 $377 $50 $-1 $378 reversed single #
loop $-1 $-1 $379 $147 #
plane-surface $-1 40.056472794054017 -113.8042076227762 133.93614965295379 1 0 0 0 0.51503808176128008 -0.85716729658548041 forward_v I I I I #
coedge $-1 $380 $381 $382 $383 reversed $148 $-1 #
coedge $-1 $241 $150 $384 $385 reversed $95 $-1 #
coedge $-1 $150 $240 $380 $386 reversed $95 $-1 #
coedge $-1 $382 $387 $150 $243 forward $388 $-1 #
edge $-1 $389 17.436154357045631 $390 23.967581722623869 $242 $391 forward 7 unknown #
loop $-1 $-1 $249 $151 #
plane-surface $-1 47.210921990187444 -39.465949454342464 10.216514069493769 0 -0.51503808176128008 0.85716729658548041 1 0 0 forward_v I I I I #
loop $-1 $-1 $392 $97 #
coedge $-1 $247 $247 $248 $393 reversed $152 $-1 #
coedge $-1 $248 $248 $247 $393 forward $154 $-1 #
coedge $-1 $249 $249 $155 $250 forward $244 $-1 #
edge $-1 $394 2.0913331627885476e-016 $394 6.2831853071796004 $249 $395 forward 7 unknown #
face $-1 $396 $397 $52 $-1 $398 reversed single #
loop $-1 $-1 $399 $156 #
plane-surface $-1 -7.1502076688589682 88.461487630769767 162.962203330569 -1 0 0 0 0.71933980857756763 0.69465836192734942 forward_v I I I I #
coedge $-1 $400 $401 $402 $403 reversed $157 $-1 #
coedge $-1 $256 $159 $404 $405 reversed $101 $-1 #
coedge $-1 $159 $255 $400 $406 reversed $101 $-1 #
coedge $-1 $402 $407 $159 $258 forward $408 $-1 #
edge $-1 $409 4.7647943610424122 $410 12.704184334324403 $257 $411 forward 7 unknown #
loop $-1 $-1 $264 $160 #
plane-surface $-1 -24.392307243084304 -15.364754145379749 62.698369496721426 0 0.71933980857756763 0.69465836192734942 1 0 0 forward_v I I I I #
loop $-1 $-1 $412 $103 #
coedge $-1 $262 $262 $263 $413 reversed $161 $-1 #
coedge $-1 $263 $263 $262 $413 forward $163 $-1 #
coedge $-1 $264 $264 $164 $265 forward $259 $-1 #
edge $-1 $414 5.1112167552785169e-016 $414 6.2831853071796013 $264 $415 forward 7 unknown #
loop $-1 $-1 $271 $165 #
plane-surface $-1 -24.392307243084304 -15.364754145379749 62.698369496721426 0 0.71933980857756763 0.69465836192734942 1 0 0 forward_v I I I I #
loop $-1 $-1 $416 $106 #
coedge $-1 $269 $269 $270 $417 reversed $166 $-1 #
coedge $-1 $270 $270 $269 $417 forward $168 $-1 #
coedge $-1 $271 $271 $169 $272 forward $266 $-1 #
edge $-1 $418 5.1112167552785169e-016 $418 6.2831853071796013 $271 $419 forward 7 unknown #
loop $-1 $-1 $278 $170 #
plane-surface $-1 -24.392307243084304 -15.364754145379749 62.698369496721426 0 0.71933980857756763 0.69465836192734942 1 0 0 forward_v I I I I #
loop $-1 $-1 $420 $109 #
coedge $-1 $276 $276 $277 $421 reversed $171 $-1 #
coedge $-1 $277 $277 $276 $421 forward $173 $-1 #
coedge $-1 $278 $278 $174 $279 forward $273 $-1 #
edge $-1 $422 5.1112167552785169e-016 $422 6.2831853071796013 $278 $423 forward 7 unknown #
face $-1 $424 $425 $42 $-1 $426 reversed single #
loop $-1 $-1 $427 $175 #
plane-surface $-1 -72.167729728080076 0 0 1 0 0 0 0 -1 forward_v I I I I #
coedge $-1 $428 $291 $429 $430 forward $176 $-1 #
coedge $-1 $431 $178 $428 $432 forward $113 $-1 #
coedge $-1 $178 $431 $433 $434 forward $113 $-1 #
coedge $-1 $294 $293 $178 $287 reversed $295 $-1 #
edge $-1 $435 -39.465949454342471 $436 39.465949454342471 $286 $437 forward 7 unknown #
coedge $-1 $180 $179 $438 $439 forward $71 $-1 #
coedge $-1 $440 $441 $179 $290 reversed $425 $-1 #
edge $-1 $297 -72.167729728080076 $442 72.167729728080076 $289 $443 forward 7 unknown #
coedge $-1 $283 $444 $180 $292 reversed $176 $-1 #
edge $-1 $445 -72.167729728080076 $296 72.167729728080076 $291 $446 forward 7 unknown #
coedge $-1 $286 $181 $444 $447 forward $295 $-1 #
coedge $-1 $181 $286 $440 $448 reversed $295 $-1 #
loop $-1 $-1 $293 $424 #
vertex $-1 $182 $449 #
vertex $-1 $182 $450 #
straight-curve $-1 72.167729728080076 0 14.140991630561192 0 1 0 I I #
face $-1 $451 $452 $43 $-1 $453 reversed single #
loop $-1 $-1 $454 $183 #
plane-surface $-1 -72.167729728080076 0 0 1 0 0 0 0 -1 forward_v I I I I #
coedge $-1 $455 $456 $188 $309 forward $184 $-1 #
coedge $-1 $457 $186 $458 $459 reversed $117 $-1 #
coedge $-1 $186 $457 $455 $460 reversed $117 $-1 #
coedge $-1 $188 $187 $186 $306 reversed $74 $-1 #
edge $-1 $461 -14.140991630561192 $462 14.140991630561192 $305 $463 forward 7 unknown #
coedge $-1 $464 $458 $187 $308 forward $452 $-1 #
edge $-1 $462 15.403221201321664 $313 21.176225902454426 $307 $465 forward 7 unknown #
edge $-1 $314 -21.176225902454426 $461 -15.403221201321664 $302 $466 forward 7 unknown #
coedge $-1 $467 $189 $456 $468 reversed $312 $-1 #
coedge $-1 $189 $467 $464 $469 reversed $312 $-1 #
loop $-1 $-1 $189 $451 #
vertex $-1 $469 $470 #
vertex $-1 $190 $471 #
straight-curve $-1 -56.277298008024239 -39.465949454342471 0 0 0 1 I I #
face $-1 $-1 $329 $44 $-1 $472 reversed single #
loop $-1 $-1 $325 $191 #
plane-surface $-1 -56.277298008024239 -36.57944710377609 0 -1 0 0 0 0 1 forward_v I I I I #
coedge $-1 $473 $474 $321 $475 forward $192 $-1 #
coedge $-1 $321 $194 $196 $327 reversed $121 $-1 #
coedge $-1 $194 $320 $319 $475 reversed $121 $-1 #
coedge $-1 $476 $197 $194 $323 forward $329 $-1 #
edge $-1 $331 -56.751560756983125 $477 -52.827083195915705 $322 $478 forward 7 unknown #
coedge $-1 $196 $195 $473 $479 reversed $77 $-1 #
coedge $-1 $480 $481 $195 $326 forward $317 $-1 #
edge $-1 $482 -9.0136205288727673 $330 -1.3938391961082883 $325 $483 forward 7 unknown #
edge $-1 $484 -7.6197813327644717 $331 7.9203227973758348e-015 $320 $485 forward 7 unknown #
coedge $-1 $197 $476 $480 $486 forward $329 $-1 #
loop $-1 $-1 $322 $316 #
vertex $-1 $326 $487 #
vertex $-1 $198 $488 #
straight-curve $-1 -24.561424405945402 -39.465949454342471 10.216514069493764 1 0 0 I I #
coedge $-1 $333 $333 $-1 $489 reversed $201 $-1 #
edge $-1 $490 0 $490 6.2831853071796004 $202 $491 forward 7 unknown #
vertex $-1 $205 $492 #
ellipse-curve $-1 -49.122848811890805 -36.200235771553359 12.178752850027474 0 -0.51503808176128008 0.85716729658548041 1.5 0 0 1 I I #
face $-1 $-1 $493 $46 $-1 $494 reversed single #
loop $-1 $-1 $212 $206 #
plane-surface $-1 0 0 14.140991630561192 0 0 1 1 0 0 forward_v I I I I #
coedge $-1 $495 $496 $497 $498 reversed $207 $-1 #
coedge $-1 $499 $209 $211 $347 forward $130 $-1 #
coedge $-1 $209 $499 $495 $500 forward $130 $-1 #
coedge $-1 $497 $212 $209 $344 forward $338 $-1 #
edge $-1 $350 1.351346742798933 $501 15.660245135065789 $343 $502 forward 7 unknown #
coedge $-1 $503 $504 $210 $346 forward $493 $-1 #
edge $-1 $505 -56.751560756983125 $349 -52.827083195915705 $345 $506 forward 7 unknown #
edge $-1 $350 -7.6197813327644717 $505 7.9203227973758348e-015 $211 $507 forward 7 unknown #
coedge $-1 $212 $497 $503 $508 forward $338 $-1 #
vertex $-1 $346 $509 #
vertex $-1 $213 $510 #
straight-curve $-1 -9.857142681731295 -56.902103811388102 14.140991630561189 0 1 0 I I #
coedge $-1 $352 $352 $-1 $511 reversed $216 $-1 #
edge $-1 $512 0 $512 6.2831853071796004 $217 $513 forward 7 unknown #
vertex $-1 $220 $514 #
ellipse-curve $-1 -17.011591877864724 -36.200235771553359 12.178752850027474 0 -0.51503808176128008 0.85716729658548041 1.5 0 0 1 I I #
face $-1 $-1 $368 $48 $-1 $515 forward single #
loop $-1 $-1 $516 $221 #
plane-surface $-1 0 -39.465949454342471 0 0 1 0 0 0 1 forward_v I I I I #
coedge $-1 $517 $518 $519 $520 reversed $222 $-1 #
coedge $-1 $521 $224 $226 $366 forward $139 $-1 #
coedge $-1 $224 $521 $517 $522 forward $139 $-1 #
coedge $-1 $519 $227 $224 $363 forward $368 $-1 #
edge $-1 $370 -14.704281724214106 $523 -0.39538333194724906 $362 $524 forward 7 unknown #
coedge $-1 $525 $526 $225 $365 forward $357 $-1 #
edge $-1 $527 -56.751560756983125 $369 -52.827083195915705 $364 $528 forward 7 unknown #
edge $-1 $370 -7.6197813327644717 $527 7.9203227973758348e-015 $226 $529 forward 7 unknown #
coedge $-1 $227 $519 $525 $530 forward $368 $-1 #
loop $-1 $-1 $519 $356 #
vertex $-1 $365 $531 #
vertex $-1 $228 $532 #
straight-curve $-1 22.254114252294784 -56.902103811388102 14.140991630561189 0 1 0 I I #
coedge $-1 $372 $372 $-1 $533 reversed $231 $-1 #
edge $-1 $534 0 $534 6.2831853071796004 $232 $535 forward 7 unknown #
vertex $-1 $235 $536 #
ellipse-curve $-1 15.099665056161356 -36.200235771553359 12.178752850027474 0 -0.51503808176128008 0.85716729658548041 1.5 0 0 1 I I #
face $-1 $-1 $388 $50 $-1 $537 forward single #
loop $-1 $-1 $538 $236 #
plane-surface $-1 0 -39.465949454342471 0 0 1 0 0 0 1 forward_v I I I I #
coedge $-1 $539 $540 $541 $542 reversed $237 $-1 #
coedge $-1 $543 $239 $241 $386 forward $148 $-1 #
coedge $-1 $239 $543 $539 $544 forward $148 $-1 #
coedge $-1 $541 $242 $239 $383 forward $388 $-1 #
edge $-1 $390 -30.759910191227149 $545 -16.451011798960295 $382 $546 forward 7 unknown #
coedge $-1 $547 $548 $240 $385 forward $377 $-1 #
edge $-1 $549 -56.751560756983125 $389 -52.827083195915705 $384 $550 forward 7 unknown #
edge $-1 $390 -7.6197813327644717 $549 7.9203227973758348e-015 $241 $551 forward 7 unknown #
coedge $-1 $242 $541 $547 $552 forward $388 $-1 #
loop $-1 $-1 $541 $376 #
vertex $-1 $385 $553 #
vertex $-1 $243 $554 #
straight-curve $-1 54.365371186320871 -56.902103811388102 14.140991630561189 0 1 0 I I #
coedge $-1 $392 $392 $-1 $555 reversed $246 $-1 #
edge $-1 $556 0 $556 6.2831853071796004 $247 $557 forward 7 unknown #
vertex $-1 $250 $558 #
ellipse-curve $-1 47.210921990187444 -36.200235771553359 12.178752850027474 0 -0.51503808176128008 0.85716729658548041 1.5 0 0 1 I I #
face $-1 $-1 $408 $52 $-1 $559 forward single #
loop $-1 $-1 $560 $251 #
plane-surface $-1 0 39.465949454342471 0 0 -1 0 0 0 -1 forward_v I I I I #
coedge $-1 $561 $562 $563 $564 reversed $252 $-1 #
coedge $-1 $565 $254 $256 $406 forward $157 $-1 #
coedge $-1 $254 $565 $561 $566 forward $157 $-1 #
coedge $-1 $563 $257 $254 $403 forward $408 $-1 #
edge $-1 $410 -29.438253195767487 $567 5.0459459526831836 $402 $568 forward 7 unknown #
coedge $-1 $569 $570 $255 $405 forward $397 $-1 #
edge $-1 $571 -75.561589220200418 $409 -67.34011003472331 $404 $572 forward 7 unknown #
edge $-1 $410 67.502698011636895 $571 78.931898908684943 $256 $573 forward 7 unknown #
coedge $-1 $257 $563 $569 $574 forward $408 $-1 #
loop $-1 $-1 $563 $396 #
vertex $-1 $405 $575 #
vertex $-1 $258 $576 #
straight-curve $-1 -41.634406817309639 44.230743815384884 14.140991630561189 0 -1 0 I I #
coedge $-1 $412 $412 $-1 $577 reversed $261 $-1 #
edge $-1 $578 0 $578 6.2831853071796004 $262 $579 forward 7 unknown #
vertex $-1 $265 $580 #
ellipse-curve $-1 -34.737566987619509 35.496254467701476 10.030252037822638 0 0.71933980857756763 0.69465836192734942 2.5 0 0 1 I I #
coedge $-1 $416 $416 $-1 $581 reversed $268 $-1 #
edge $-1 $582 0 $582 6.2831853071796004 $269 $583 forward 7 unknown #
vertex $-1 $272 $584 #
ellipse-curve $-1 -24.392307243084304 35.496254467701476 10.030252037822638 0 0.71933980857756763 0.69465836192734942 2.5 0 0 1 I I #
coedge $-1 $420 $420 $-1 $585 reversed $275 $-1 #
edge $-1 $586 0 $586 6.2831853071796004 $276 $587 forward 7 unknown #
vertex $-1 $279 $588 #
ellipse-curve $-1 -14.047047498549105 35.496254467701476 10.030252037822638 0 0.71933980857756763 0.69465836192734942 2.5 0 0 1 I I #
face $-1 $-1 $295 $42 $-1 $589 reversed single #
loop $-1 $-1 $440 $280 #
plane-surface $-1 0 39.465949454342471 0 0 -1 0 0 0 -1 forward_v I I I I #
coedge $-1 $590 $438 $441 $591 forward $281 $-1 #
coedge $-1 $444 $283 $284 $432 reversed $176 $-1 #
coedge $-1 $438 $590 $283 $430 reversed $281 $-1 #
edge $-1 $445 -14.140991630561192 $592 14.140991630561192 $429 $593 forward 7 unknown #
coedge $-1 $285 $284 $590 $594 forward $113 $-1 #
edge $-1 $436 -72.167729728080076 $592 72.167729728080076 $428 $595 forward 7 unknown #
coedge $-1 $441 $440 $285 $434 reversed $425 $-1 #
edge $-1 $596 -72.167729728080076 $435 72.167729728080076 $433 $597 forward 7 unknown #
vertex $-1 $287 $598 #
vertex $-1 $447 $599 #
straight-curve $-1 72.167729728080076 0 -14.140991630561192 0 -1 0 I I #
coedge $-1 $427 $429 $288 $439 reversed $281 $-1 #
edge $-1 $442 -39.465949454342471 $445 39.465949454342471 $438 $600 forward 7 unknown #
coedge $-1 $433 $289 $294 $448 forward $425 $-1 #
coedge $-1 $289 $433 $427 $591 reversed $425 $-1 #
vertex $-1 $290 $601 #
straight-curve $-1 0 39.465949454342471 14.140991630561192 -1 0 0 I I #
coedge $-1 $291 $428 $293 $447 reversed $176 $-1 #
vertex $-1 $439 $602 #
straight-curve $-1 0 -39.465949454342471 14.140991630561192 1 0 0 I I #
edge $-1 $296 -14.140991630561192 $436 14.140991630561192 $293 $603 forward 7 unknown #
edge $-1 $297 -14.140991630561192 $435 14.140991630561192 $294 $604 forward 7 unknown #
point $-1 72.167729728080076 -39.465949454342471 14.140991630561192 #
point $-1 72.167729728080076 39.465949454342471 14.140991630561192 #
face $-1 $-1 $312 $43 $-1 $605 reversed single #
loop $-1 $-1 $307 $299 #
plane-surface $-1 0 0 -14.140991630561192 0 0 1 1 0 0 forward_v I I I I #
coedge $-1 $606 $607 $457 $608 forward $300 $-1 #
coedge $-1 $609 $302 $304 $460 forward $184 $-1 #
coedge $-1 $302 $609 $310 $468 forward $184 $-1 #
coedge $-1 $304 $303 $454 $608 reversed $117 $-1 #
coedge $-1 $307 $610 $303 $459 forward $452 $-1 #
edge $-1 $611 -40.056472794053995 $462 -24.166041073998159 $458 $612 forward 7 unknown #
edge $-1 $461 24.166041073998159 $613 40.056472794053995 $455 $614 forward 7 unknown #
vertex $-1 $460 $615 #
vertex $-1 $459 $616 #
straight-curve $-1 -56.277298008024239 -33.692944753209709 0 0 0 -1 I I #
coedge $-1 $610 $307 $311 $469 forward $452 $-1 #
straight-curve $-1 -56.277298008024239 -18.289723551888045 -14.140991630561192 0 -1 0 I I #
straight-curve $-1 -56.277298008024239 -18.289723551888045 14.140991630561192 0 1 0 I I #
coedge $-1 $311 $310 $617 $618 forward $312 $-1 #
edge $-1 $619 -72.167729728080076 $314 -56.277298008024239 $310 $620 forward 7 unknown #
edge $-1 $313 56.277298008024239 $621 72.167729728080076 $311 $622 forward 7 unknown #
point $-1 -56.277298008024239 -39.465949454342471 -14.140991630561192 #
point $-1 -56.277298008024239 -39.465949454342471 14.140991630561192 #
plane-surface $-1 0 -39.465949454342471 0 0 1 0 0 0 1 forward_v I I I I #
coedge $-1 $623 $319 $324 $479 forward $192 $-1 #
coedge $-1 $319 $623 $476 $624 forward $192 $-1 #
edge $-1 $477 17.436154357045631 $484 23.967581722623869 $319 $625 forward 7 unknown #
coedge $-1 $328 $322 $474 $624 reversed $329 $-1 #
vertex $-1 $475 $626 #
straight-curve $-1 -41.968399615757377 -39.465949454342471 66.968074826476894 0 0 1 I I #
edge $-1 $484 17.406975209811975 $482 31.71587360207883 $473 $627 forward 7 unknown #
coedge $-1 $481 $325 $328 $486 reversed $317 $-1 #
coedge $-1 $325 $480 $623 $628 reversed $317 $-1 #
vertex $-1 $628 $629 #
straight-curve $-1 -56.277298008024239 -40.660702829945492 9.4986338036464684 0 -0.85716729658548041 -0.51503808176128008 I I #
vertex $-1 $479 $630 #
straight-curve $-1 -41.968399615757377 -39.465949454342464 10.216514069493769 0 -0.85716729658548041 -0.51503808176128008 I I #
edge $-1 $631 -14.140991630561192 $330 -10.216514069493766 $328 $632 forward 7 unknown #
point $-1 -56.277298008024239 -39.465949454342471 10.216514069493766 #
point $-1 -41.968399615757377 -39.465949454342471 10.216514069493766 #
edge $-1 $633 1 $633 0 $333 $-1 forward 7 unknown #
vertex $-1 $334 $634 #
ellipse-curve $-1 -49.122848811890805 -34.789323471582726 9.8306005003036017 0 -0.51503808176128008 0.85716729658548041 1.5 0 0 1 I I #
point $-1 -47.622848811890805 -36.200235771553366 12.178752850027486 #
loop $-1 $-1 $345 $337 #
plane-surface $-1 0 -39.465949454342471 0 0 1 0 0 0 1 forward_v I I I I #
coedge $-1 $496 $340 $342 $500 reversed $207 $-1 #
coedge $-1 $340 $495 $635 $636 reversed $207 $-1 #
coedge $-1 $348 $343 $340 $498 forward $338 $-1 #
edge $-1 $501 -23.967581722623869 $637 -17.436154357045631 $497 $638 forward 7 unknown #
coedge $-1 $342 $341 $504 $639 reversed $130 $-1 #
edge $-1 $640 -7.9203227973758348e-015 $501 7.6197813327644717 $495 $641 forward 7 unknown #
vertex $-1 $344 $642 #
straight-curve $-1 -8.5057959389323621 -32.93452208876424 14.140991630561192 -1 0 0 I I #
coedge $-1 $635 $345 $348 $508 reversed $493 $-1 #
coedge $-1 $345 $635 $499 $639 forward $493 $-1 #
vertex $-1 $346 $643 #
straight-curve $-1 -9.857142681731295 -39.465949454342471 66.968074826476894 0 0 1 I I #
straight-curve $-1 -9.857142681731295 -39.465949454342464 10.216514069493769 0 -0.85716729658548041 -0.51503808176128008 I I #
edge $-1 $637 -24.166041073998151 $349 -9.857142681731295 $503 $644 forward 7 unknown #
point $-1 -9.857142681731295 -39.465949454342471 14.140991630561192 #
point $-1 -9.857142681731295 -32.934522088764233 14.140991630561192 #
edge $-1 $645 1 $645 0 $352 $-1 forward 7 unknown #
vertex $-1 $353 $646 #
ellipse-curve $-1 -17.011591877864724 -34.789323471582726 9.8306005003036017 0 -0.51503808176128008 0.85716729658548041 1.5 0 0 1 I I #
point $-1 -15.511591877864724 -36.200235771553366 12.178752850027486 #
plane-surface $-1 0 0 14.140991630561192 0 0 1 1 0 0 forward_v I I I I #
coedge $-1 $526 $525 $518 $647 forward $357 $-1 #
coedge $-1 $518 $359 $361 $522 reversed $222 $-1 #
coedge $-1 $359 $517 $516 $647 reversed $222 $-1 #
coedge $-1 $367 $362 $359 $520 forward $368 $-1 #
edge $-1 $523 -23.967581722623869 $648 -17.436154357045631 $519 $649 forward 7 unknown #
coedge $-1 $361 $360 $526 $650 reversed $139 $-1 #
edge $-1 $651 -7.9203227973758348e-015 $523 7.6197813327644717 $517 $652 forward 7 unknown #
vertex $-1 $363 $653 #
straight-curve $-1 7.5498325280806782 -32.93452208876424 14.140991630561192 -1 0 0 I I #
coedge $-1 $516 $364 $367 $530 reversed $357 $-1 #
coedge $-1 $364 $516 $521 $650 forward $357 $-1 #
vertex $-1 $365 $654 #
straight-curve $-1 22.254114252294784 -39.465949454342471 66.968074826476894 0 0 1 I I #
straight-curve $-1 22.254114252294784 -39.465949454342464 10.216514069493769 0 -0.85716729658548041 -0.51503808176128008 I I #
edge $-1 $648 7.9452158600279272 $369 22.254114252294784 $525 $655 forward 7 unknown #
point $-1 22.254114252294784 -39.465949454342471 14.140991630561192 #
point $-1 22.254114252294784 -32.934522088764233 14.140991630561192 #
edge $-1 $656 1 $656 0 $372 $-1 forward 7 unknown #
vertex $-1 $373 $657 #
ellipse-curve $-1 15.099665056161356 -34.789323471582726 9.8306005003036017 0 -0.51503808176128008 0.85716729658548041 1.5 0 0 1 I I #
point $-1 16.599665056161356 -36.200235771553366 12.178752850027486 #
plane-surface $-1 0 0 14.140991630561192 0 0 1 1 0 0 forward_v I I I I #
coedge $-1 $548 $547 $540 $658 forward $377 $-1 #
coedge $-1 $540 $379 $381 $544 reversed $237 $-1 #
coedge $-1 $379 $539 $538 $658 reversed $237 $-1 #
coedge $-1 $387 $382 $379 $542 forward $388 $-1 #
edge $-1 $545 -23.967581722623869 $659 -17.436154357045631 $541 $660 forward 7 unknown #
coedge $-1 $381 $380 $548 $661 reversed $148 $-1 #
edge $-1 $662 -7.9203227973758348e-015 $545 7.6197813327644717 $539 $663 forward 7 unknown #
vertex $-1 $383 $664 #
straight-curve $-1 23.605460995093722 -32.93452208876424 14.140991630561192 -1 0 0 I I #
coedge $-1 $538 $384 $387 $552 reversed $377 $-1 #
coedge $-1 $384 $538 $543 $661 forward $377 $-1 #
vertex $-1 $385 $665 #
straight-curve $-1 54.365371186320871 -39.465949454342471 66.968074826476894 0 0 1 I I #
straight-curve $-1 54.365371186320871 -39.465949454342464 10.216514069493769 0 -0.85716729658548041 -0.51503808176128008 I I #
edge $-1 $659 40.056472794054017 $389 54.365371186320871 $547 $666 forward 7 unknown #
point $-1 54.365371186320871 -39.465949454342471 14.140991630561192 #
point $-1 54.365371186320871 -32.934522088764233 14.140991630561192 #
edge $-1 $667 1 $667 0 $392 $-1 forward 7 unknown #
vertex $-1 $393 $668 #
ellipse-curve $-1 47.210921990187444 -34.789323471582726 9.8306005003036017 0 -0.51503808176128008 0.85716729658548041 1.5 0 0 1 I I #
point $-1 48.710921990187444 -36.200235771553366 12.178752850027486 #
plane-surface $-1 0 0 14.140991630561192 0 0 1 1 0 0 forward_v I I I I #
coedge $-1 $570 $569 $562 $669 forward $397 $-1 #
coedge $-1 $562 $399 $401 $566 reversed $252 $-1 #
coedge $-1 $399 $561 $560 $669 reversed $252 $-1 #
coedge $-1 $407 $402 $399 $564 forward $408 $-1 #
edge $-1 $567 -12.704184334324403 $670 -4.7647943610424122 $563 $671 forward 7 unknown #
coedge $-1 $401 $400 $570 $672 reversed $157 $-1 #
edge $-1 $673 -78.931898908684943 $567 -67.502698011636895 $561 $674 forward 7 unknown #
vertex $-1 $403 $675 #
straight-curve $-1 -12.196153621542152 31.526559481060481 14.140991630561189 1 0 0 I I #
coedge $-1 $560 $404 $407 $574 reversed $397 $-1 #
coedge $-1 $404 $560 $565 $672 forward $397 $-1 #
vertex $-1 $405 $676 #
straight-curve $-1 -41.634406817309639 39.465949454342471 81.481101665284498 0 0 1 I I #
straight-curve $-1 -41.634406817309639 -15.364754145379749 62.698369496721426 0 0.69465836192734942 -0.71933980857756763 I I #
edge $-1 $670 7.1502076688589682 $409 41.634406817309639 $569 $677 forward 7 unknown #
point $-1 -41.634406817309639 39.465949454342471 14.140991630561192 #
point $-1 -41.634406817309639 31.526559481060481 14.140991630561189 #
edge $-1 $678 1 $678 0 $412 $-1 forward 7 unknown #
vertex $-1 $413 $679 #
ellipse-curve $-1 -34.737566987619509 28.33348106630233 3.1132423317816236 0 0.71933980857756763 0.69465836192734942 2.5 0 0 1 I I #
point $-1 -32.237566987619509 35.496254467701476 10.030252037822637 #
edge $-1 $680 1 $680 0 $416 $-1 forward 7 unknown #
vertex $-1 $417 $681 #
ellipse-curve $-1 -24.392307243084304 28.33348106630233 3.1132423317816236 0 0.71933980857756763 0.69465836192734942 2.5 0 0 1 I I #
point $-1 -21.892307243084304 35.496254467701476 10.030252037822637 #
edge $-1 $682 1 $682 0 $420 $-1 forward 7 unknown #
vertex $-1 $421 $683 #
ellipse-curve $-1 -14.047047498549105 28.33348106630233 3.1132423317816236 0 0.71933980857756763 0.69465836192734942 2.5 0 0 1 I I #
point $-1 -11.547047498549105 35.496254467701476 10.030252037822637 #
plane-surface $-1 72.167729728080076 0 0 -1 0 0 0 0 1 forward_v I I I I #
coedge $-1 $429 $427 $431 $594 reversed $281 $-1 #
edge $-1 $442 -14.140991630561192 $596 14.140991630561192 $441 $684 forward 7 unknown #
vertex $-1 $594 $685 #
straight-curve $-1 -72.167729728080076 -39.465949454342471 0 0 0 -1 I I #
edge $-1 $592 -39.465949454342471 $596 39.465949454342471 $590 $686 forward 7 unknown #
straight-curve $-1 0 -39.465949454342471 -14.140991630561192 -1 0 0 I I #
vertex $-1 $434 $687 #
straight-curve $-1 0 39.465949454342471 -14.140991630561192 1 0 0 I I #
point $-1 72.167729728080076 39.465949454342471 -14.140991630561192 #
point $-1 72.167729728080076 -39.465949454342471 -14.140991630561192 #
straight-curve $-1 -72.167729728080076 0 14.140991630561192 0 -1 0 I I #
point $-1 -72.167729728080076 39.465949454342471 14.140991630561192 #
point $-1 -72.167729728080076 -39.465949454342471 14.140991630561192 #
straight-curve $-1 72.167729728080076 -39.465949454342471 0 0 0 -1 I I #
straight-curve $-1 72.167729728080076 39.465949454342471 0 0 0 -1 I I #
plane-surface $-1 0 -39.465949454342471 0 0 1 0 0 0 1 forward_v I I I I #
coedge $-1 $617 $454 $610 $688 reversed $300 $-1 #
coedge $-1 $454 $617 $609 $689 reversed $300 $-1 #
edge $-1 $613 -14.140991630561192 $611 14.140991630561192 $454 $690 forward 7 unknown #
coedge $-1 $456 $455 $607 $689 forward $184 $-1 #
coedge $-1 $458 $464 $606 $688 forward $452 $-1 #
vertex $-1 $459 $691 #
straight-curve $-1 -32.111256934026081 -33.692944753209709 -14.140991630561192 1 0 0 I I #
vertex $-1 $689 $692 #
straight-curve $-1 -32.111256934026081 -33.692944753209709 14.140991630561192 -1 0 0 I I #
point $-1 -56.277298008024239 -33.692944753209709 14.140991630561192 #
point $-1 -56.277298008024239 -33.692944753209709 -14.140991630561192 #
coedge $-1 $607 $606 $467 $618 reversed $300 $-1 #
edge $-1 $619 -14.140991630561192 $621 14.140991630561192 $617 $693 forward 7 unknown #
vertex $-1 $689 $694 #
straight-curve $-1 0 -39.465949454342471 14.140991630561192 1 0 0 I I #
vertex $-1 $688 $695 #
straight-curve $-1 0 -39.465949454342471 -14.140991630561192 -1 0 0 I I #
coedge $-1 $474 $473 $481 $628 forward $192 $-1 #
edge $-1 $631 -56.277298008024239 $477 -41.968399615757377 $476 $696 forward 7 unknown #
straight-curve $-1 -41.968399615757377 -56.902103811388102 14.140991630561189 0 1 0 I I #
point $-1 -41.968399615757377 -39.465949454342471 14.140991630561192 #
straight-curve $-1 -24.561424405945402 -32.93452208876424 14.140991630561192 -1 0 0 I I #
edge $-1 $482 -23.967581722623869 $631 -17.436154357045631 $623 $697 forward 7 unknown #
point $-1 -56.277298008024232 -32.934522088764233 14.140991630561192 #
point $-1 -41.968399615757377 -32.934522088764233 14.140991630561192 #
vertex $-1 $624 $698 #
straight-curve $-1 -56.277298008024239 -39.465949454342471 0 0 0 -1 I I #
vertex $-1 $489 $699 #
point $-1 -47.622848811890805 -34.789323471582726 9.8306005003036017 #
coedge $-1 $504 $503 $496 $636 forward $493 $-1 #
edge $-1 $637 52.827083195915705 $640 56.751560756983125 $635 $700 forward 7 unknown #
vertex $-1 $508 $701 #
straight-curve $-1 -24.166041073998151 -56.902103811388102 14.140991630561189 0 -1 0 I I #
edge $-1 $640 -15.660245135065789 $505 -1.351346742798933 $504 $702 forward 7 unknown #
vertex $-1 $639 $703 #
straight-curve $-1 -24.166041073998151 -39.465949454342464 10.216514069493769 0 0.85716729658548041 0.51503808176128008 I I #
point $-1 -24.166041073998151 -32.934522088764233 14.140991630561192 #
point $-1 -9.857142681731295 -39.465949454342471 10.216514069493766 #
straight-curve $-1 0 -39.465949454342471 14.140991630561192 1 0 0 I I #
vertex $-1 $511 $704 #
point $-1 -15.511591877864724 -34.789323471582726 9.8306005003036017 #
edge $-1 $648 52.827083195915705 $651 56.751560756983125 $516 $705 forward 7 unknown #
vertex $-1 $530 $706 #
straight-curve $-1 7.9452158600279272 -56.902103811388102 14.140991630561189 0 -1 0 I I #
edge $-1 $651 0.39538333194724906 $527 14.704281724214106 $526 $707 forward 7 unknown #
vertex $-1 $650 $708 #
straight-curve $-1 7.9452158600279272 -39.465949454342464 10.216514069493769 0 0.85716729658548041 0.51503808176128008 I I #
point $-1 7.9452158600279272 -32.934522088764233 14.140991630561192 #
point $-1 22.254114252294784 -39.465949454342471 10.216514069493766 #
straight-curve $-1 0 -39.465949454342471 14.140991630561192 1 0 0 I I #
vertex $-1 $533 $709 #
point $-1 16.599665056161356 -34.789323471582726 9.8306005003036017 #
edge $-1 $659 52.827083195915705 $662 56.751560756983125 $538 $710 forward 7 unknown #
vertex $-1 $552 $711 #
straight-curve $-1 40.056472794054017 -56.902103811388102 14.140991630561189 0 -1 0 I I #
edge $-1 $662 16.451011798960295 $549 30.759910191227149 $548 $712 forward 7 unknown #
vertex $-1 $661 $713 #
straight-curve $-1 40.056472794054017 -39.465949454342464 10.216514069493769 0 0.85716729658548041 0.51503808176128008 I I #
point $-1 40.056472794054017 -32.934522088764233 14.140991630561192 #
point $-1 54.365371186320871 -39.465949454342471 10.216514069493766 #
straight-curve $-1 0 -39.465949454342471 14.140991630561192 1 0 0 I I #
vertex $-1 $555 $714 #
point $-1 48.710921990187444 -34.789323471582726 9.8306005003036017 #
edge $-1 $670 67.34011003472331 $673 75.561589220200418 $560 $715 forward 7 unknown #
vertex $-1 $574 $716 #
straight-curve $-1 -7.1502076688589682 44.230743815384884 14.140991630561189 0 1 0 I I #
edge $-1 $673 -5.0459459526831836 $571 29.438253195767487 $570 $717 forward 7 unknown #
vertex $-1 $672 $718 #
straight-curve $-1 -7.1502076688589682 -15.364754145379749 62.698369496721426 0 -0.69465836192734942 0.71933980857756763 I I #
point $-1 -7.1502076688589682 31.526559481060481 14.140991630561189 #
point $-1 -41.634406817309639 39.465949454342471 5.9195124450840808 #
straight-curve $-1 0 39.465949454342471 14.140991630561192 -1 0 0 I I #
vertex $-1 $577 $719 #
point $-1 -32.237566987619509 28.33348106630233 3.1132423317816236 #
vertex $-1 $581 $720 #
point $-1 -21.892307243084304 28.33348106630233 3.1132423317816236 #
vertex $-1 $585 $721 #
point $-1 -11.547047498549105 28.33348106630233 3.1132423317816236 #
straight-curve $-1 -72.167729728080076 39.465949454342471 0 0 0 -1 I I #
point $-1 -72.167729728080076 -39.465949454342471 -14.140991630561192 #
straight-curve $-1 -72.167729728080076 0 -14.140991630561192 0 1 0 I I #
point $-1 -72.167729728080076 39.465949454342471 -14.140991630561192 #
edge $-1 $621 -39.465949454342471 $611 -33.692944753209709 $606 $722 forward 7 unknown #
edge $-1 $613 33.692944753209709 $619 39.465949454342471 $607 $723 forward 7 unknown #
straight-curve $-1 -72.167729728080076 -33.692944753209709 0 0 0 -1 I I #
point $-1 -72.167729728080076 -33.692944753209709 -14.140991630561192 #
point $-1 -72.167729728080076 -33.692944753209709 14.140991630561192 #
straight-curve $-1 -72.167729728080076 -39.465949454342471 0 0 0 -1 I I #
point $-1 -72.167729728080076 -39.465949454342471 14.140991630561192 #
point $-1 -72.167729728080076 -39.465949454342471 -14.140991630561192 #
straight-curve $-1 0 -39.465949454342471 14.140991630561192 1 0 0 I I #
straight-curve $-1 -56.277298008024232 -56.902103811388102 14.140991630561189 0 -1 0 I I #
point $-1 -56.277298008024239 -39.465949454342471 14.140991630561192 #
point $-1 -49.122848811890805 -34.016766348940813 8.5448495554253814 #
straight-curve $-1 -24.166041073998151 -39.465949454342471 66.968074826476894 0 0 -1 I I #
point $-1 -24.166041073998151 -39.465949454342471 14.140991630561192 #
straight-curve $-1 -8.5057959389323621 -39.465949454342471 10.216514069493764 1 0 0 I I #
point $-1 -24.166041073998151 -39.465949454342471 10.216514069493766 #
point $-1 -17.011591877864724 -34.016766348940813 8.5448495554253814 #
straight-curve $-1 7.9452158600279272 -39.465949454342471 66.968074826476894 0 0 -1 I I #
point $-1 7.9452158600279272 -39.465949454342471 14.140991630561192 #
straight-curve $-1 7.5498325280806782 -39.465949454342471 10.216514069493764 1 0 0 I I #
point $-1 7.9452158600279272 -39.465949454342471 10.216514069493766 #
point $-1 15.099665056161356 -34.016766348940813 8.5448495554253814 #
straight-curve $-1 40.056472794054017 -39.465949454342471 66.968074826476894 0 0 -1 I I #
point $-1 40.056472794054017 -39.465949454342471 14.140991630561192 #
straight-curve $-1 23.605460995093722 -39.465949454342471 10.216514069493764 1 0 0 I I #
point $-1 40.056472794054017 -39.465949454342471 10.216514069493766 #
point $-1 47.210921990187444 -34.016766348940813 8.5448495554253814 #
straight-curve $-1 -7.1502076688589682 39.465949454342471 81.481101665284498 0 0 -1 I I #
point $-1 -7.1502076688589682 39.465949454342471 14.140991630561192 #
straight-curve $-1 -12.196153621542152 39.465949454342478 5.9195124450840737 -1 0 0 I I #
point $-1 -7.1502076688589682 39.465949454342471 5.9195124450840808 #
point $-1 -34.737566987619509 26.535131544858412 1.3765964269632502 #
point $-1 -24.392307243084304 26.535131544858412 1.3765964269632502 #
point $-1 -14.047047498549105 26.535131544858412 1.3765964269632502 #
straight-curve $-1 -72.167729728080076 0 -14.140991630561192 0 1 0 I I #
straight-curve $-1 -72.167729728080076 0 14.140991630561192 0 -1 0 I I #
End-of-ACIS-data 