500 0 10 0           
7 Unknown 11 ACIS 5.0 NT 24 Thu Mar 25 16:15:58 1999 
-1 9.9999999999999995e-007 1e-010 
body $-1 $10 $-1 $11 #
body $-1 $12 $-1 $13 #
body $-1 $14 $-1 $15 #
body $-1 $16 $-1 $17 #
body $-1 $18 $-1 $19 #
body $-1 $20 $-1 $21 #
body $-1 $22 $-1 $23 #
body $-1 $24 $-1 $25 #
body $-1 $26 $-1 $27 #
body $-1 $28 $-1 $29 #
lump $-1 $-1 $30 $0 #
transform $-1 1 0 0 0 1 0 0 0 1 65.749076815088358 42.969360348796897 9.6985624337788661 1 rotate no_reflect no_shear #
lump $-1 $-1 $31 $1 #
transform $-1 1 0 0 0 1 0 0 0 1 65.749076815088358 42.969360348796897 9.6985624337788661 1 rotate no_reflect no_shear #
lump $-1 $-1 $32 $2 #
transform $-1 1 0 0 0 1 0 0 0 1 65.749076815088358 42.969360348796897 9.6985624337788661 1 rotate no_reflect no_shear #
lump $-1 $-1 $33 $3 #
transform $-1 1 0 0 0 1 0 0 0 1 65.749076815088358 42.969360348796897 9.6985624337788661 1 rotate no_reflect no_shear #
lump $-1 $-1 $34 $4 #
transform $-1 1 0 0 0 1 0 0 0 1 65.749076815088358 42.969360348796897 9.6985624337788661 1 rotate no_reflect no_shear #
lump $-1 $-1 $35 $5 #
transform $-1 1 0 0 0 1 0 0 0 1 65.749076815088358 42.969360348796897 9.6985624337788661 1 rotate no_reflect no_shear #
lump $-1 $-1 $36 $6 #
transform $-1 1 0 0 0 1 0 0 0 1 65.749076815088358 42.969360348796897 9.6985624337788661 1 rotate no_reflect no_shear #
lump $-1 $-1 $37 $7 #
transform $-1 1 0 0 0 1 0 0 0 1 65.749076815088358 42.969360348796897 9.6985624337788661 1 rotate no_reflect no_shear #
lump $-1 $-1 $38 $8 #
transform $-1 1 0 0 0 1 0 0 0 1 65.749076815088358 42.969360348796897 9.6985624337788661 1 rotate no_reflect no_shear #
lump $-1 $-1 $39 $9 #
transform $-1 1 0 0 0 1 0 0 0 1 65.749076815088358 42.969360348796897 9.6985624337788661 1 rotate no_reflect no_shear #
shell $-1 $-1 $-1 $40 $-1 $10 #
shell $-1 $-1 $-1 $41 $-1 $12 #
shell $-1 $-1 $-1 $42 $-1 $14 #
shell $-1 $-1 $-1 $43 $-1 $16 #
shell $-1 $-1 $-1 $44 $-1 $18 #
shell $-1 $-1 $-1 $45 $-1 $20 #
shell $-1 $-1 $-1 $46 $-1 $22 #
shell $-1 $-1 $-1 $47 $-1 $24 #
shell $-1 $-1 $-1 $48 $-1 $26 #
shell $-1 $-1 $-1 $49 $-1 $28 #
face $-1 $50 $51 $30 $-1 $52 forward single #
face $-1 $53 $54 $31 $-1 $55 forward single #
face $-1 $56 $57 $32 $-1 $58 reversed single #
face $-1 $59 $60 $33 $-1 $61 forward single #
face $-1 $62 $63 $34 $-1 $64 reversed single #
face $-1 $65 $66 $35 $-1 $67 forward single #
face $-1 $68 $69 $36 $-1 $70 forward single #
face $-1 $71 $72 $37 $-1 $73 reversed single #
face $-1 $74 $75 $38 $-1 $76 forward single #
face $-1 $77 $78 $39 $-1 $79 forward single #
face $-1 $80 $81 $30 $-1 $82 reversed single #
loop $-1 $-1 $83 $40 #
plane-surface $-1 0 0 9.6985624337788661 0 0 1 1 0 0 forward_v I I I I #
face $-1 $84 $85 $31 $-1 $86 reversed single #
loop $-1 $-1 $87 $41 #
plane-surface $-1 -60.843531682276293 0 7.5612865064941301 0 0 1 1 0 0 forward_v I I I I #
face $-1 $88 $89 $32 $-1 $90 reversed single #
loop $-1 $-1 $91 $42 #
plane-surface $-1 40.976788959219704 -125.72383084128022 107.72656883004599 1 0 0 0 0.62932039886446345 -0.77714595512881146 forward_v I I I I #
face $-1 $92 $93 $33 $-1 $94 forward single #
loop $-1 $95 $96 $43 #
cone-surface $-1 53.362932887154031 -39.258500470978618 6.2093502618489405 0 0.62932039886446345 -0.77714595512881146 1.5 0 0 1 I I 0 1 1.5 forward I I I I #
face $-1 $97 $98 $34 $-1 $99 reversed single #
loop $-1 $-1 $100 $44 #
plane-surface $-1 -8.7922803888098038 61.661866368402585 156.60341936736646 1 0 0 0 -0.64278761758704617 -0.76604443648966558 forward_v I I I I #
face $-1 $101 $102 $35 $-1 $103 forward single #
loop $-1 $104 $105 $45 #
cone-surface $-1 -4.8786159540606988 36.258768898321804 3.6069179045487827 0 -0.64278761758704617 -0.76604443648966558 1.5 0 0 1 I I 0 1 1.5 forward I I I I #
face $-1 $106 $107 $36 $-1 $108 forward single #
loop $-1 $109 $110 $46 #
cone-surface $-1 0.99188069806295687 36.258768898321804 3.6069179045487827 0 -0.64278761758704617 -0.76604443648966558 1.5 0 0 1 I I 0 1 1.5 forward I I I I #
face $-1 $111 $112 $37 $-1 $113 reversed single #
loop $-1 $-1 $114 $47 #
plane-surface $-1 -1.9433676279988674 -22.863518520634088 55.869990370306255 0 0.64278761758704617 0.76604443648966558 1 0 0 forward_v I I I I #
face $-1 $115 $116 $38 $-1 $117 forward single #
loop $-1 $118 $119 $48 #
cone-surface $-1 8.8192095675611881 36.258768898321804 3.6069179045487827 0 -0.64278761758704617 -0.76604443648966558 1.5 0 0 1 I I 0 1 1.5 forward I I I I #
face $-1 $120 $121 $39 $-1 $122 forward single #
loop $-1 $123 $124 $49 #
cone-surface $-1 14.689706219684837 36.258768898321804 3.6069179045487827 0 -0.64278761758704617 -0.76604443648966558 1.5 0 0 1 I I 0 1 1.5 forward I I I I #
face $-1 $125 $126 $30 $-1 $127 reversed single #
loop $-1 $-1 $128 $50 #
plane-surface $-1 0 0 -9.6985624337788661 0 0 1 1 0 0 forward_v I I I I #
coedge $-1 $129 $130 $131 $132 forward $51 $-1 #
face $-1 $133 $134 $31 $-1 $135 reversed single #
loop $-1 $-1 $136 $53 #
plane-surface $-1 -60.843531682276293 0 4.5612865064941284 0 0 1 1 0 0 forward_v I I I I #
coedge $-1 $137 $138 $139 $140 forward $54 $-1 #
face $-1 $141 $142 $32 $-1 $143 forward single #
loop $-1 $-1 $144 $56 #
plane-surface $-1 53.362932887154031 -42.969360348796911 5.533310629447115 0 -0.62932039886446345 0.77714595512881146 1 0 0 forward_v I I I I #
coedge $-1 $145 $146 $147 $148 reversed $57 $-1 #
face $-1 $-1 $149 $33 $-1 $150 forward single #
loop $-1 $151 $152 $59 #
cone-surface $-1 53.362932887154031 -37.647479045845117 4.2199045257382988 0 0.62932039886446345 -0.77714595512881146 0.75 0 0 1 I I -0.70710678118654757 0.70710678118654757 0.75 forward I I I I #
loop $-1 $-1 $153 $43 #
coedge $-1 $96 $96 $154 $155 reversed $60 $-1 #
face $-1 $156 $157 $34 $-1 $158 reversed single #
loop $-1 $-1 $159 $62 #
plane-surface $-1 -1.9433676279988674 -22.863518520634088 55.869990370306255 0 0.64278761758704617 0.76604443648966558 1 0 0 forward_v I I I I #
coedge $-1 $160 $161 $162 $163 reversed $63 $-1 #
face $-1 $-1 $164 $35 $-1 $165 forward single #
loop $-1 $166 $167 $65 #
cone-surface $-1 -4.8786159540606988 34.470044186339166 1.475198847530196 0 -0.64278761758704617 -0.76604443648966558 0.75 0 0 1 I I -0.70710678118654757 0.70710678118654757 0.75 forward I I I I #
loop $-1 $-1 $168 $45 #
coedge $-1 $105 $105 $169 $170 reversed $66 $-1 #
face $-1 $-1 $171 $36 $-1 $172 forward single #
loop $-1 $173 $174 $68 #
cone-surface $-1 0.99188069806295687 34.470044186339166 1.475198847530196 0 -0.64278761758704617 -0.76604443648966558 0.75 0 0 1 I I -0.70710678118654757 0.70710678118654757 0.75 forward I I I I #
loop $-1 $-1 $175 $46 #
coedge $-1 $110 $110 $176 $177 reversed $69 $-1 #
face $-1 $178 $179 $37 $-1 $180 forward single #
loop $-1 $-1 $181 $71 #
plane-surface $-1 18.603370654433949 61.661866368402585 156.60341936736646 -1 0 0 0 0.64278761758704617 0.76604443648966558 forward_v I I I I #
coedge $-1 $182 $183 $184 $185 reversed $72 $-1 #
face $-1 $-1 $186 $38 $-1 $187 forward single #
loop $-1 $188 $189 $74 #
cone-surface $-1 8.8192095675611881 34.470044186339166 1.475198847530196 0 -0.64278761758704617 -0.76604443648966558 0.75 0 0 1 I I -0.70710678118654757 0.70710678118654757 0.75 forward I I I I #
loop $-1 $-1 $190 $48 #
coedge $-1 $119 $119 $191 $192 reversed $75 $-1 #
face $-1 $-1 $193 $39 $-1 $194 forward single #
loop $-1 $195 $196 $77 #
cone-surface $-1 14.689706219684837 34.470044186339166 1.475198847530196 0 -0.64278761758704617 -0.76604443648966558 0.75 0 0 1 I I -0.70710678118654757 0.70710678118654757 0.75 forward I I I I #
loop $-1 $-1 $197 $49 #
coedge $-1 $124 $124 $198 $199 reversed $78 $-1 #
face $-1 $200 $201 $30 $-1 $202 reversed single #
loop $-1 $-1 $203 $80 #
plane-surface $-1 0 -42.969360348796897 0 0 1 0 0 0 1 forward_v I I I I #
coedge $-1 $204 $205 $206 $207 forward $81 $-1 #
coedge $-1 $208 $83 $209 $210 forward $51 $-1 #
coedge $-1 $83 $208 $211 $212 forward $51 $-1 #
coedge $-1 $213 $214 $83 $132 reversed $215 $-1 #
edge $-1 $216 -42.969360348796897 $217 42.969360348796897 $131 $218 forward 7 unknown #
face $-1 $219 $220 $31 $-1 $221 reversed single #
loop $-1 $-1 $222 $84 #
plane-surface $-1 -55.937986549464227 0 6.0612865064941293 -1 0 0 0 0 1 forward_v I I I I #
coedge $-1 $223 $224 $225 $226 forward $85 $-1 #
coedge $-1 $227 $87 $228 $229 reversed $54 $-1 #
coedge $-1 $87 $227 $230 $231 reversed $54 $-1 #
coedge $-1 $222 $232 $87 $140 reversed $134 $-1 #
edge $-1 $233 -42.969360348796897 $234 42.969360348796897 $139 $235 forward 7 unknown #
face $-1 $236 $237 $32 $-1 $238 reversed single #
loop $-1 $-1 $239 $88 #
plane-surface $-1 0 0 9.6985624337788661 0 0 1 1 0 0 forward_v I I I I #
coedge $-1 $240 $241 $242 $243 reversed $89 $-1 #
coedge $-1 $146 $91 $244 $245 reversed $57 $-1 #
coedge $-1 $91 $145 $240 $246 reversed $57 $-1 #
coedge $-1 $242 $247 $91 $148 forward $237 $-1 #
edge $-1 $248 44.164721981244128 $249 48.329973785575866 $147 $250 forward 7 unknown #
loop $-1 $-1 $154 $92 #
plane-surface $-1 53.362932887154031 -42.969360348796911 5.533310629447115 0 -0.62932039886446345 0.77714595512881146 1 0 0 forward_v I I I I #
loop $-1 $-1 $251 $59 #
coedge $-1 $152 $152 $153 $252 reversed $93 $-1 #
coedge $-1 $153 $153 $152 $252 forward $95 $-1 #
coedge $-1 $154 $154 $96 $155 forward $149 $-1 #
edge $-1 $253 -8.8033274925872106e-016 $253 6.2831853071795996 $154 $254 forward 7 unknown #
face $-1 $255 $256 $34 $-1 $257 reversed single #
loop $-1 $-1 $258 $97 #
plane-surface $-1 4.9055451328120689 61.661866368402585 156.60341936736646 -1 0 0 0 0.64278761758704617 0.76604443648966558 forward_v I I I I #
coedge $-1 $259 $260 $261 $262 reversed $98 $-1 #
coedge $-1 $161 $100 $263 $264 reversed $63 $-1 #
coedge $-1 $100 $160 $259 $265 reversed $63 $-1 #
coedge $-1 $261 $266 $100 $163 forward $267 $-1 #
edge $-1 $268 -12.138427164595605 $269 -1.3305122612301545 $162 $270 forward 7 unknown #
loop $-1 $-1 $169 $101 #
plane-surface $-1 -1.9433676279988674 -22.863518520634088 55.869990370306255 0 0.64278761758704617 0.76604443648966558 1 0 0 forward_v I I I I #
loop $-1 $-1 $271 $65 #
coedge $-1 $167 $167 $168 $272 reversed $102 $-1 #
coedge $-1 $168 $168 $167 $272 forward $104 $-1 #
coedge $-1 $169 $169 $105 $170 forward $164 $-1 #
edge $-1 $273 2.2836403615650844e-015 $273 6.2831853071796031 $169 $274 forward 7 unknown #
loop $-1 $-1 $176 $106 #
plane-surface $-1 -1.9433676279988674 -22.863518520634088 55.869990370306255 0 0.64278761758704617 0.76604443648966558 1 0 0 forward_v I I I I #
loop $-1 $-1 $275 $68 #
coedge $-1 $174 $174 $175 $276 reversed $107 $-1 #
coedge $-1 $175 $175 $174 $276 forward $109 $-1 #
coedge $-1 $176 $176 $110 $177 forward $171 $-1 #
edge $-1 $277 2.2836403615650844e-015 $277 6.2831853071796031 $176 $278 forward 7 unknown #
face $-1 $279 $280 $37 $-1 $281 forward single #
loop $-1 $-1 $282 $111 #
plane-surface $-1 0 0 9.6985624337788661 0 0 1 1 0 0 forward_v I I I I #
coedge $-1 $283 $284 $285 $286 reversed $112 $-1 #
coedge $-1 $287 $114 $288 $289 reversed $72 $-1 #
coedge $-1 $114 $287 $282 $290 reversed $72 $-1 #
coedge $-1 $291 $292 $114 $185 forward $280 $-1 #
edge $-1 $293 -85.938720697593766 $294 -71.829989678161255 $184 $295 forward 7 unknown #
loop $-1 $-1 $191 $115 #
plane-surface $-1 -1.9433676279988674 -22.863518520634088 55.869990370306255 0 0.64278761758704617 0.76604443648966558 1 0 0 forward_v I I I I #
loop $-1 $-1 $296 $74 #
coedge $-1 $189 $189 $190 $297 reversed $116 $-1 #
coedge $-1 $190 $190 $189 $297 forward $118 $-1 #
coedge $-1 $191 $191 $119 $192 forward $186 $-1 #
edge $-1 $298 2.2836403615650844e-015 $298 6.2831853071796031 $191 $299 forward 7 unknown #
loop $-1 $-1 $198 $120 #
plane-surface $-1 -1.9433676279988674 -22.863518520634088 55.869990370306255 0 0.64278761758704617 0.76604443648966558 1 0 0 forward_v I I I I #
loop $-1 $-1 $300 $77 #
coedge $-1 $196 $196 $197 $301 reversed $121 $-1 #
coedge $-1 $197 $197 $196 $301 forward $123 $-1 #
coedge $-1 $198 $198 $124 $199 forward $193 $-1 #
edge $-1 $302 2.2836403615650844e-015 $302 6.2831853071796031 $198 $303 forward 7 unknown #
face $-1 $304 $305 $30 $-1 $306 reversed single #
loop $-1 $-1 $307 $125 #
plane-surface $-1 -65.749076815088358 0 0 1 0 0 0 0 -1 forward_v I I I I #
coedge $-1 $308 $211 $309 $310 forward $126 $-1 #
coedge $-1 $311 $128 $308 $312 forward $81 $-1 #
coedge $-1 $128 $311 $313 $314 forward $81 $-1 #
coedge $-1 $214 $213 $128 $207 reversed $215 $-1 #
edge $-1 $315 -42.969360348796897 $316 42.969360348796897 $206 $317 forward 7 unknown #
coedge $-1 $130 $129 $318 $319 forward $51 $-1 #
coedge $-1 $320 $321 $129 $210 reversed $305 $-1 #
edge $-1 $217 -65.749076815088358 $322 65.749076815088358 $209 $323 forward 7 unknown #
coedge $-1 $203 $324 $130 $212 reversed $126 $-1 #
edge $-1 $325 -65.749076815088358 $216 65.749076815088358 $211 $326 forward 7 unknown #
coedge $-1 $206 $131 $324 $327 forward $215 $-1 #
coedge $-1 $131 $206 $320 $328 reversed $215 $-1 #
loop $-1 $-1 $213 $304 #
vertex $-1 $132 $329 #
vertex $-1 $132 $330 #
straight-curve $-1 65.749076815088358 0 9.6985624337788661 0 1 0 I I #
face $-1 $331 $332 $31 $-1 $333 reversed single #
loop $-1 $-1 $334 $133 #
plane-surface $-1 0 -42.969360348796897 0 0 1 0 0 0 1 forward_v I I I I #
coedge $-1 $225 $139 $335 $336 reversed $134 $-1 #
coedge $-1 $337 $136 $334 $338 reversed $85 $-1 #
coedge $-1 $136 $337 $339 $340 reversed $85 $-1 #
coedge $-1 $232 $222 $136 $226 reversed $134 $-1 #
edge $-1 $341 -42.969360348796897 $342 42.969360348796897 $225 $343 forward 7 unknown #
coedge $-1 $138 $137 $344 $345 reversed $54 $-1 #
coedge $-1 $346 $347 $137 $229 forward $348 $-1 #
edge $-1 $349 -35.327310973950212 $234 -25.516220708326081 $228 $350 forward 7 unknown #
coedge $-1 $351 $335 $138 $231 forward $220 $-1 #
edge $-1 $233 25.516220708326081 $352 35.327310973950212 $230 $353 forward 7 unknown #
coedge $-1 $139 $225 $346 $354 reversed $134 $-1 #
vertex $-1 $231 $355 #
vertex $-1 $229 $356 #
straight-curve $-1 -55.937986549464227 0 7.5612865064941301 0 1 0 I I #
face $-1 $-1 $357 $32 $-1 $358 reversed single #
loop $-1 $-1 $147 $141 #
plane-surface $-1 0 -42.969360348796897 0 0 1 0 0 0 1 forward_v I I I I #
coedge $-1 $244 $359 $360 $361 forward $142 $-1 #
coedge $-1 $360 $144 $146 $246 forward $89 $-1 #
coedge $-1 $144 $360 $362 $363 reversed $89 $-1 #
coedge $-1 $364 $147 $144 $243 forward $237 $-1 #
edge $-1 $249 14.295322515642688 $365 39.067610371511343 $242 $366 forward 7 unknown #
coedge $-1 $367 $239 $145 $245 forward $142 $-1 #
edge $-1 $368 -25.036212575509396 $248 -19.892555071843212 $244 $369 forward 7 unknown #
edge $-1 $249 1.8310242626372826e-014 $368 6.6186505504151292 $146 $370 forward 7 unknown #
coedge $-1 $147 $364 $367 $371 reversed $237 $-1 #
vertex $-1 $371 $372 #
vertex $-1 $148 $373 #
straight-curve $-1 40.976788959219704 -42.969360348796897 53.863284415022996 0 0 -1 I I #
coedge $-1 $251 $251 $-1 $374 reversed $151 $-1 #
edge $-1 $375 0 $375 6.2831853071796004 $152 $376 forward 7 unknown #
vertex $-1 $155 $377 #
ellipse-curve $-1 53.362932887154031 -40.397531596963795 7.6159365316130021 0 -0.62932039886446345 0.77714595512881146 1.5 0 0 1 I I #
face $-1 $-1 $267 $34 $-1 $378 forward single #
loop $-1 $-1 $379 $156 #
plane-surface $-1 0 42.969360348796897 0 0 -1 0 0 0 -1 forward_v I I I I #
coedge $-1 $380 $381 $382 $383 reversed $157 $-1 #
coedge $-1 $384 $159 $161 $265 forward $98 $-1 #
coedge $-1 $159 $384 $380 $385 forward $98 $-1 #
coedge $-1 $382 $162 $159 $262 forward $267 $-1 #
edge $-1 $269 -7.8205965748103701 $386 5.8772289468115027 $261 $387 forward 7 unknown #
coedge $-1 $388 $389 $160 $264 forward $256 $-1 #
edge $-1 $390 -77.672064849061854 $268 -68.603147249904367 $263 $391 forward 7 unknown #
edge $-1 $269 71.829989678161255 $390 85.938720697593766 $161 $392 forward 7 unknown #
coedge $-1 $162 $382 $388 $393 forward $267 $-1 #
loop $-1 $-1 $382 $255 #
vertex $-1 $264 $394 #
vertex $-1 $163 $395 #
straight-curve $-1 -8.7922803888098038 30.830933184201292 9.6985624337788607 0 -1 0 I I #
coedge $-1 $271 $271 $-1 $396 reversed $166 $-1 #
edge $-1 $397 0 $397 6.2831853071796004 $167 $398 forward 7 unknown #
vertex $-1 $170 $399 #
ellipse-curve $-1 -4.8786159540606988 37.565402897114168 5.1641036342001261 0 0.64278761758704617 0.76604443648966558 1.5 0 0 1 I I #
coedge $-1 $275 $275 $-1 $400 reversed $173 $-1 #
edge $-1 $401 0 $401 6.2831853071796004 $174 $402 forward 7 unknown #
vertex $-1 $177 $403 #
ellipse-curve $-1 0.99188069806295687 37.565402897114168 5.1641036342001261 0 0.64278761758704617 0.76604443648966558 1.5 0 0 1 I I #
face $-1 $-1 $404 $37 $-1 $405 reversed single #
loop $-1 $-1 $291 $178 #
plane-surface $-1 4.9055451328120689 61.661866368402585 156.60341936736646 -1 0 0 0 0.64278761758704617 0.76604443648966558 forward_v I I I I #
coedge $-1 $285 $406 $183 $290 forward $179 $-1 #
coedge $-1 $284 $181 $287 $407 reversed $112 $-1 #
coedge $-1 $181 $283 $408 $409 reversed $112 $-1 #
coedge $-1 $410 $282 $181 $286 forward $179 $-1 #
edge $-1 $411 1.3305122612301545 $412 12.138427164595605 $285 $413 forward 7 unknown #
coedge $-1 $183 $182 $283 $407 forward $72 $-1 #
coedge $-1 $414 $408 $182 $289 forward $404 $-1 #
edge $-1 $415 -19.575054468433382 $293 -5.8772289468115027 $288 $416 forward 7 unknown #
edge $-1 $294 5.8772289468115027 $411 19.575054468433382 $282 $417 forward 7 unknown #
coedge $-1 $292 $184 $406 $418 reversed $280 $-1 #
coedge $-1 $184 $291 $414 $419 reversed $280 $-1 #
vertex $-1 $289 $420 #
vertex $-1 $290 $421 #
straight-curve $-1 4.9055451328120689 -22.863518520634088 55.869990370306255 0 -0.76604443648966558 0.64278761758704617 I I #
coedge $-1 $296 $296 $-1 $422 reversed $188 $-1 #
edge $-1 $423 0 $423 6.2831853071796004 $189 $424 forward 7 unknown #
vertex $-1 $192 $425 #
ellipse-curve $-1 8.8192095675611881 37.565402897114168 5.1641036342001261 0 0.64278761758704617 0.76604443648966558 1.5 0 0 1 I I #
coedge $-1 $300 $300 $-1 $426 reversed $195 $-1 #
edge $-1 $427 0 $427 6.2831853071796004 $196 $428 forward 7 unknown #
vertex $-1 $199 $429 #
ellipse-curve $-1 14.689706219684837 37.565402897114168 5.1641036342001261 0 0.64278761758704617 0.76604443648966558 1.5 0 0 1 I I #
face $-1 $-1 $215 $30 $-1 $430 reversed single #
loop $-1 $-1 $320 $200 #
plane-surface $-1 0 42.969360348796897 0 0 -1 0 0 0 -1 forward_v I I I I #
coedge $-1 $431 $318 $321 $432 forward $201 $-1 #
coedge $-1 $324 $203 $204 $312 reversed $126 $-1 #
coedge $-1 $318 $431 $203 $310 reversed $201 $-1 #
edge $-1 $325 -9.6985624337788661 $433 9.6985624337788661 $309 $434 forward 7 unknown #
coedge $-1 $205 $204 $431 $435 forward $81 $-1 #
edge $-1 $316 -65.749076815088358 $433 65.749076815088358 $308 $436 forward 7 unknown #
coedge $-1 $321 $320 $205 $314 reversed $305 $-1 #
edge $-1 $437 -65.749076815088358 $315 65.749076815088358 $313 $438 forward 7 unknown #
vertex $-1 $207 $439 #
vertex $-1 $327 $440 #
straight-curve $-1 65.749076815088358 0 -9.6985624337788661 0 -1 0 I I #
coedge $-1 $307 $309 $208 $319 reversed $201 $-1 #
edge $-1 $322 -42.969360348796897 $325 42.969360348796897 $318 $441 forward 7 unknown #
coedge $-1 $313 $209 $214 $328 forward $305 $-1 #
coedge $-1 $209 $313 $307 $432 reversed $305 $-1 #
vertex $-1 $210 $442 #
straight-curve $-1 0 42.969360348796897 9.6985624337788661 -1 0 0 I I #
coedge $-1 $211 $308 $213 $327 reversed $126 $-1 #
vertex $-1 $319 $443 #
straight-curve $-1 0 -42.969360348796897 9.6985624337788661 1 0 0 I I #
edge $-1 $216 -9.6985624337788661 $316 9.6985624337788661 $213 $444 forward 7 unknown #
edge $-1 $217 -9.6985624337788661 $315 9.6985624337788661 $214 $445 forward 7 unknown #
point $-1 65.749076815088358 -42.969360348796897 9.6985624337788661 #
point $-1 65.749076815088358 42.969360348796897 9.6985624337788661 #
face $-1 $-1 $348 $31 $-1 $446 reversed single #
loop $-1 $-1 $447 $219 #
plane-surface $-1 -65.749076815088358 0 0 1 0 0 0 0 -1 forward_v I I I I #
coedge $-1 $335 $351 $223 $338 forward $220 $-1 #
coedge $-1 $230 $334 $222 $336 forward $220 $-1 #
edge $-1 $342 1.5306432532470637 $233 4.5306432532470655 $335 $448 forward 7 unknown #
coedge $-1 $224 $223 $447 $449 reversed $85 $-1 #
edge $-1 $450 -35.327310973950212 $342 -25.516220708326081 $334 $451 forward 7 unknown #
coedge $-1 $347 $346 $224 $340 forward $348 $-1 #
edge $-1 $341 25.516220708326081 $452 35.327310973950212 $339 $453 forward 7 unknown #
vertex $-1 $340 $454 #
vertex $-1 $338 $455 #
straight-curve $-1 -55.937986549464227 0 4.5612865064941284 0 -1 0 I I #
coedge $-1 $456 $457 $227 $345 forward $332 $-1 #
edge $-1 $352 -42.969360348796897 $349 42.969360348796897 $344 $458 forward 7 unknown #
coedge $-1 $339 $228 $232 $354 forward $348 $-1 #
coedge $-1 $228 $339 $456 $459 reversed $348 $-1 #
loop $-1 $-1 $339 $331 #
vertex $-1 $459 $460 #
straight-curve $-1 -30.421765841138146 42.969360348796897 7.5612865064941301 1 0 0 I I #
coedge $-1 $334 $230 $457 $461 forward $220 $-1 #
vertex $-1 $461 $462 #
straight-curve $-1 -30.421765841138146 -42.969360348796897 7.5612865064941301 -1 0 0 I I #
edge $-1 $234 -4.5306432532470655 $341 -1.5306432532470637 $346 $463 forward 7 unknown #
point $-1 -55.937986549464227 -42.969360348796897 7.5612865064941301 #
point $-1 -55.937986549464227 42.969360348796897 7.5612865064941301 #
loop $-1 $-1 $362 $236 #
plane-surface $-1 65.749076815088358 0 0 -1 0 0 0 0 1 forward_v I I I I #
coedge $-1 $239 $367 $464 $465 forward $142 $-1 #
coedge $-1 $241 $240 $239 $361 reversed $89 $-1 #
edge $-1 $466 -39.067610371511343 $368 -14.295322515642688 $239 $467 forward 7 unknown #
coedge $-1 $464 $468 $241 $363 forward $357 $-1 #
edge $-1 $365 -14.955619668587593 $466 -8.3369691181724832 $362 $469 forward 7 unknown #
coedge $-1 $247 $242 $468 $470 reversed $237 $-1 #
vertex $-1 $243 $471 #
straight-curve $-1 26.681466443577015 -42.969360348796897 5.5333106294471239 1 0 0 I I #
coedge $-1 $359 $244 $247 $371 forward $142 $-1 #
vertex $-1 $245 $472 #
straight-curve $-1 40.976788959219704 -62.861915420640109 9.6985624337788678 0 -1 0 I I #
straight-curve $-1 40.976788959219704 -42.969360348796911 5.533310629447115 0 0.77714595512881146 0.62932039886446345 I I #
edge $-1 $248 40.976788959219704 $473 65.749076815088358 $247 $474 forward 7 unknown #
point $-1 40.976788959219704 -42.969360348796897 9.6985624337788661 #
point $-1 40.976788959219704 -42.969360348796897 5.5333106294471266 #
edge $-1 $475 1 $475 0 $251 $-1 forward 7 unknown #
vertex $-1 $252 $476 #
ellipse-curve $-1 53.362932887154031 -38.119469344993462 4.8027639920849072 0 -0.62932039886446345 0.77714595512881146 1.5 0 0 1 I I #
point $-1 54.862932887154031 -40.397531596963773 7.6159365316129737 #
plane-surface $-1 0 0 9.6985624337788661 0 0 1 1 0 0 forward_v I I I I #
coedge $-1 $389 $388 $381 $477 forward $256 $-1 #
coedge $-1 $381 $258 $260 $385 reversed $157 $-1 #
coedge $-1 $258 $380 $379 $477 reversed $157 $-1 #
coedge $-1 $266 $261 $258 $383 forward $267 $-1 #
edge $-1 $386 1.3305122612301545 $478 12.138427164595605 $382 $479 forward 7 unknown #
coedge $-1 $260 $259 $389 $480 reversed $98 $-1 #
edge $-1 $481 -85.938720697593766 $386 -71.829989678161255 $380 $482 forward 7 unknown #
vertex $-1 $262 $483 #
straight-curve $-1 -0.97168381399943371 32.161445445431433 9.6985624337788678 1 0 0 I I #
coedge $-1 $379 $263 $266 $393 reversed $256 $-1 #
coedge $-1 $263 $379 $384 $480 forward $256 $-1 #
vertex $-1 $264 $484 #
straight-curve $-1 -8.7922803888098038 42.969360348796897 78.301709683683228 0 0 1 I I #
straight-curve $-1 -8.7922803888098038 -22.863518520634088 55.869990370306255 0 0.76604443648966558 -0.64278761758704617 I I #
edge $-1 $478 -4.9055451328120689 $268 8.7922803888098038 $388 $485 forward 7 unknown #
point $-1 -8.7922803888098038 42.969360348796897 9.6985624337788661 #
point $-1 -8.7922803888098038 32.161445445431447 9.6985624337788678 #
edge $-1 $486 1 $486 0 $271 $-1 forward 7 unknown #
vertex $-1 $272 $487 #
ellipse-curve $-1 -4.8786159540606988 34.952134899529447 2.0497321748974451 0 0.64278761758704617 0.76604443648966558 1.5 0 0 1 I I #
point $-1 -3.3786159540606988 37.565402897114168 5.1641036342001208 #
edge $-1 $488 1 $488 0 $275 $-1 forward 7 unknown #
vertex $-1 $276 $489 #
ellipse-curve $-1 0.99188069806295687 34.952134899529447 2.0497321748974451 0 0.64278761758704617 0.76604443648966558 1.5 0 0 1 I I #
point $-1 2.4918806980629569 37.565402897114168 5.1641036342001208 #
loop $-1 $-1 $288 $279 #
plane-surface $-1 0 42.969360348796897 0 0 -1 0 0 0 -1 forward_v I I I I #
coedge $-1 $282 $410 $291 $418 forward $179 $-1 #
edge $-1 $415 -85.938720697593766 $411 -71.829989678161255 $283 $490 forward 7 unknown #
coedge $-1 $288 $491 $284 $409 forward $404 $-1 #
edge $-1 $412 68.603147249904367 $415 77.672064849061854 $408 $492 forward 7 unknown #
coedge $-1 $406 $285 $491 $493 forward $179 $-1 #
vertex $-1 $286 $494 #
vertex $-1 $493 $495 #
straight-curve $-1 18.603370654433949 30.830933184201292 9.6985624337788607 0 1 0 I I #
coedge $-1 $491 $288 $292 $419 forward $404 $-1 #
vertex $-1 $409 $496 #
straight-curve $-1 -0.97168381399943371 42.96936034879689 0.62964483462138432 -1 0 0 I I #
straight-curve $-1 -0.97168381399943371 32.161445445431433 9.6985624337788678 1 0 0 I I #
edge $-1 $497 -12.138427164595605 $294 -1.3305122612301545 $406 $498 forward 7 unknown #
edge $-1 $293 -77.672064849061854 $497 -68.603147249904367 $414 $499 forward 7 unknown #
point $-1 4.9055451328120689 42.969360348796897 0.62964483462137366 #
point $-1 4.9055451328120689 32.161445445431447 9.6985624337788678 #
edge $-1 $500 1 $500 0 $296 $-1 forward 7 unknown #
vertex $-1 $297 $501 #
ellipse-curve $-1 8.8192095675611881 34.952134899529447 2.0497321748974451 0 0.64278761758704617 0.76604443648966558 1.5 0 0 1 I I #
point $-1 10.319209567561188 37.565402897114168 5.1641036342001208 #
edge $-1 $502 1 $502 0 $300 $-1 forward 7 unknown #
vertex $-1 $301 $503 #
ellipse-curve $-1 14.689706219684837 34.952134899529447 2.0497321748974451 0 0.64278761758704617 0.76604443648966558 1.5 0 0 1 I I #
point $-1 16.189706219684837 37.565402897114168 5.1641036342001208 #
plane-surface $-1 65.749076815088358 0 0 -1 0 0 0 0 1 forward_v I I I I #
coedge $-1 $309 $307 $311 $435 reversed $201 $-1 #
edge $-1 $322 -9.6985624337788661 $437 9.6985624337788661 $321 $504 forward 7 unknown #
vertex $-1 $435 $505 #
straight-curve $-1 -65.749076815088358 -42.969360348796897 0 0 0 -1 I I #
edge $-1 $433 -42.969360348796897 $437 42.969360348796897 $431 $506 forward 7 unknown #
straight-curve $-1 0 -42.969360348796897 -9.6985624337788661 -1 0 0 I I #
vertex $-1 $314 $507 #
straight-curve $-1 0 42.969360348796897 -9.6985624337788661 1 0 0 I I #
point $-1 65.749076815088358 42.969360348796897 -9.6985624337788661 #
point $-1 65.749076815088358 -42.969360348796897 -9.6985624337788661 #
straight-curve $-1 -65.749076815088358 0 9.6985624337788661 0 -1 0 I I #
point $-1 -65.749076815088358 42.969360348796897 9.6985624337788661 #
point $-1 -65.749076815088358 -42.969360348796897 9.6985624337788661 #
straight-curve $-1 65.749076815088358 -42.969360348796897 0 0 0 -1 I I #
straight-curve $-1 65.749076815088358 42.969360348796897 0 0 0 -1 I I #
plane-surface $-1 0 42.969360348796897 0 0 -1 0 0 0 -1 forward_v I I I I #
coedge $-1 $457 $456 $337 $449 forward $332 $-1 #
straight-curve $-1 -55.937986549464227 -42.969360348796897 3.0306432532470646 0 0 1 I I #
edge $-1 $452 -42.969360348796897 $450 42.969360348796897 $447 $508 forward 7 unknown #
vertex $-1 $338 $509 #
straight-curve $-1 -30.421765841138146 -42.969360348796897 4.5612865064941284 1 0 0 I I #
vertex $-1 $340 $510 #
straight-curve $-1 -30.421765841138146 42.969360348796897 4.5612865064941284 -1 0 0 I I #
point $-1 -55.937986549464227 42.969360348796897 4.5612865064941284 #
point $-1 -55.937986549464227 -42.969360348796897 4.5612865064941284 #
coedge $-1 $447 $344 $347 $459 forward $332 $-1 #
coedge $-1 $344 $447 $351 $461 reversed $332 $-1 #
straight-curve $-1 -65.749076815088358 0 7.5612865064941301 0 1 0 I I #
edge $-1 $349 -7.5612865064941301 $452 -4.5612865064941284 $347 $511 forward 7 unknown #
point $-1 -65.749076815088358 42.969360348796897 7.5612865064941301 #
edge $-1 $352 -7.5612865064941301 $450 -4.5612865064941284 $457 $512 forward 7 unknown #
point $-1 -65.749076815088358 -42.969360348796897 7.5612865064941301 #
straight-curve $-1 -55.937986549464227 42.969360348796897 3.0306432532470646 0 0 -1 I I #
coedge $-1 $468 $362 $359 $465 reversed $357 $-1 #
edge $-1 $473 -42.969360348796897 $466 -37.825702845130714 $464 $513 forward 7 unknown #
vertex $-1 $363 $514 #
straight-curve $-1 26.681466443577015 -37.825702845130714 9.6985624337788643 -1 0 0 I I #
coedge $-1 $362 $464 $364 $470 forward $357 $-1 #
straight-curve $-1 65.749076815088358 -31.346661016909152 14.945187164547884 0 0.77714595512881146 0.62932039886446345 I I #
edge $-1 $473 -9.6985624337788661 $365 -5.5333106294471266 $468 $515 forward 7 unknown #
point $-1 65.749076815088358 -42.969360348796897 5.5333106294471266 #
point $-1 40.976788959219704 -37.825702845130714 9.6985624337788661 #
vertex $-1 $465 $516 #
straight-curve $-1 0 -42.969360348796897 9.6985624337788661 1 0 0 I I #
vertex $-1 $374 $517 #
point $-1 54.862932887154031 -38.119469344993462 4.8027639920849072 #
edge $-1 $478 68.603147249904367 $481 77.672064849061854 $379 $518 forward 7 unknown #
vertex $-1 $393 $519 #
straight-curve $-1 4.9055451328120689 30.830933184201292 9.6985624337788607 0 1 0 I I #
edge $-1 $481 -5.8772289468115027 $390 7.8205965748103701 $389 $520 forward 7 unknown #
vertex $-1 $480 $521 #
straight-curve $-1 4.9055451328120689 -22.863518520634088 55.869990370306255 0 -0.76604443648966558 0.64278761758704617 I I #
point $-1 4.9055451328120689 32.161445445431447 9.6985624337788678 #
point $-1 -8.7922803888098038 42.969360348796897 0.62964483462137366 #
straight-curve $-1 0 42.969360348796897 9.6985624337788661 -1 0 0 I I #
vertex $-1 $396 $522 #
point $-1 -3.3786159540606988 34.952134899529447 2.0497321748974451 #
vertex $-1 $400 $523 #
point $-1 2.4918806980629569 34.952134899529447 2.0497321748974451 #
straight-curve $-1 18.603370654433949 -22.863518520634088 55.869990370306255 0 -0.76604443648966558 0.64278761758704617 I I #
coedge $-1 $408 $414 $410 $493 reversed $404 $-1 #
straight-curve $-1 18.603370654433949 42.969360348796897 78.301709683683228 0 0 -1 I I #
edge $-1 $412 -18.603370654433949 $497 -4.9055451328120689 $491 $524 forward 7 unknown #
point $-1 18.603370654433949 32.161445445431447 9.6985624337788678 #
point $-1 18.603370654433949 42.969360348796897 9.6985624337788661 #
point $-1 18.603370654433949 42.969360348796897 0.62964483462137366 #
vertex $-1 $419 $525 #
straight-curve $-1 4.9055451328120689 30.830933184201292 9.6985624337788607 0 -1 0 I I #
straight-curve $-1 4.9055451328120689 42.969360348796897 78.301709683683228 0 0 1 I I #
vertex $-1 $422 $526 #
point $-1 10.319209567561188 34.952134899529447 2.0497321748974451 #
vertex $-1 $426 $527 #
point $-1 16.189706219684837 34.952134899529447 2.0497321748974451 #
straight-curve $-1 -65.749076815088358 42.969360348796897 0 0 0 -1 I I #
point $-1 -65.749076815088358 -42.969360348796897 -9.6985624337788661 #
straight-curve $-1 -65.749076815088358 0 -9.6985624337788661 0 1 0 I I #
point $-1 -65.749076815088358 42.969360348796897 -9.6985624337788661 #
straight-curve $-1 -65.749076815088358 0 4.5612865064941284 0 -1 0 I I #
point $-1 -65.749076815088358 -42.969360348796897 4.5612865064941284 #
point $-1 -65.749076815088358 42.969360348796897 4.5612865064941284 #
straight-curve $-1 -65.749076815088358 42.969360348796897 0 0 0 -1 I I #
straight-curve $-1 -65.749076815088358 -42.969360348796897 0 0 0 -1 I I #
straight-curve $-1 65.749076815088358 0 9.6985624337788661 0 1 0 I I #
point $-1 65.749076815088358 -37.825702845130714 9.6985624337788661 #
straight-curve $-1 65.749076815088358 -42.969360348796897 0 0 0 -1 I I #
point $-1 65.749076815088358 -42.969360348796897 9.6985624337788661 #
point $-1 53.362932887154031 -37.175488746696772 3.6370450593916903 #
straight-curve $-1 4.9055451328120689 42.969360348796897 78.301709683683228 0 0 -1 I I #
point $-1 4.9055451328120689 42.969360348796897 9.6985624337788661 #
straight-curve $-1 -0.97168381399943371 42.96936034879689 0.62964483462138432 -1 0 0 I I #
point $-1 4.9055451328120689 42.969360348796897 0.62964483462137366 #
point $-1 -4.8786159540606988 33.987953473148885 0.90066552016294688 #
point $-1 0.99188069806295687 33.987953473148885 0.90066552016294688 #
straight-curve $-1 0 42.969360348796897 9.6985624337788661 -1 0 0 I I #
point $-1 4.9055451328120689 42.969360348796897 9.6985624337788661 #
point $-1 8.8192095675611881 33.987953473148885 0.90066552016294688 #
point $-1 14.689706219684837 33.987953473148885 0.90066552016294688 #
End-of-ACIS-data 