500 0 13 0           
7 Unknown 11 ACIS 5.0 NT 24 Fri Mar 26 17:46:55 1999 
-1 9.9999999999999995e-007 1e-010 
body $-1 $13 $-1 $14 #
body $-1 $15 $-1 $16 #
body $-1 $17 $-1 $18 #
body $-1 $19 $-1 $20 #
body $-1 $21 $-1 $22 #
body $-1 $23 $-1 $24 #
body $-1 $25 $-1 $26 #
body $-1 $27 $-1 $28 #
body $-1 $29 $-1 $30 #
body $-1 $31 $-1 $32 #
body $-1 $33 $-1 $34 #
body $-1 $35 $-1 $36 #
body $-1 $37 $-1 $38 #
lump $-1 $-1 $39 $0 #
transform $-1 1 0 0 0 1 0 0 0 1 49.286172063356425 21.653005113536601 5.0262435436283681 1 rotate no_reflect no_shear #
lump $-1 $-1 $40 $1 #
transform $-1 1 0 0 0 1 0 0 0 1 2.5071501643690883 21.653005113536601 8.5524870872567362 1 rotate no_reflect no_shear #
lump $-1 $-1 $41 $2 #
transform $-1 1 0 0 0 1 0 0 0 1 96.065193962343756 21.653005113536601 8.5524870872567362 1 rotate no_reflect no_shear #
lump $-1 $-1 $42 $3 #
transform $-1 1 0 0 0 0.8660253999169214 0.50000000669873634 0 -0.50000000669873634 0.8660253999169214 11.750807341331125 -49.286172723666574 92.27022979165308 1 rotate no_reflect no_shear #
lump $-1 $-1 $43 $4 #
transform $-1 1 0 0 0 -0.8660253999169214 -0.50000000669873634 0 0.50000000669873634 -0.8660253999169214 7.7089031337753564 4.9752305895530036 4.5835459506799534 1 rotate no_reflect no_shear #
lump $-1 $-1 $44 $5 #
transform $-1 1 0 0 0 -0.8660253999169214 -0.50000000669873634 0 0.50000000669873634 -0.8660253999169214 11.750807341331125 4.9752305895530036 4.5835459506799534 1 rotate no_reflect no_shear #
lump $-1 $-1 $45 $6 #
transform $-1 1 0 0 0 -0.8660253999169214 -0.50000000669873634 0 0.50000000669873634 -0.8660253999169214 15.792711548886894 4.9752305895530036 4.5835459506799534 1 rotate no_reflect no_shear #
lump $-1 $-1 $46 $7 #
transform $-1 1 0 0 0 0.61566146476048833 -0.78801076186113728 0 0.78801076186113728 0.61566146476048833 39.21729733966891 94.320236531469817 99.924128421272258 1 rotate no_reflect no_shear #
lump $-1 $-1 $47 $8 #
transform $-1 1 0 0 0 -0.61566146476048833 0.78801076186113728 0 -0.78801076186113728 -0.61566146476048833 36.877567840157397 38.810047228304867 5.5773367894952059 1 rotate no_reflect no_shear #
lump $-1 $-1 $48 $9 #
transform $-1 1 0 0 0 -0.61566146476048833 0.78801076186113728 0 -0.78801076186113728 -0.61566146476048833 41.557026839180416 38.810047228304867 5.5773367894952059 1 rotate no_reflect no_shear #
lump $-1 $-1 $49 $10 #
transform $-1 1 0 0 0 0.61566146476048833 -0.78801076186113728 0 0.78801076186113728 0.61566146476048833 59.355046787043939 94.320236531469817 99.924128421272258 1 rotate no_reflect no_shear #
lump $-1 $-1 $50 $11 #
transform $-1 1 0 0 0 -0.61566146476048833 0.78801076186113728 0 -0.78801076186113728 -0.61566146476048833 57.015317287532426 38.810047228304867 5.5773367894952059 1 rotate no_reflect no_shear #
lump $-1 $-1 $51 $12 #
transform $-1 1 0 0 0 -0.61566146476048833 0.78801076186113728 0 -0.78801076186113728 -0.61566146476048833 61.694776286555445 38.810047228304867 5.5773367894952059 1 rotate no_reflect no_shear #
shell $-1 $-1 $-1 $52 $-1 $13 #
shell $-1 $-1 $-1 $53 $-1 $15 #
shell $-1 $-1 $-1 $54 $-1 $17 #
shell $-1 $-1 $-1 $55 $-1 $19 #
shell $-1 $-1 $-1 $56 $-1 $21 #
shell $-1 $-1 $-1 $57 $-1 $23 #
shell $-1 $-1 $-1 $58 $-1 $25 #
shell $-1 $-1 $-1 $59 $-1 $27 #
shell $-1 $-1 $-1 $60 $-1 $29 #
shell $-1 $-1 $-1 $61 $-1 $31 #
shell $-1 $-1 $-1 $62 $-1 $33 #
shell $-1 $-1 $-1 $63 $-1 $35 #
shell $-1 $-1 $-1 $64 $-1 $37 #
face $-1 $65 $66 $39 $-1 $67 forward single #
face $-1 $68 $69 $40 $-1 $70 forward single #
face $-1 $71 $72 $41 $-1 $73 forward single #
face $-1 $74 $75 $42 $-1 $76 forward single #
face $-1 $77 $78 $43 $-1 $79 forward single #
face $-1 $80 $81 $44 $-1 $82 forward single #
face $-1 $83 $84 $45 $-1 $85 forward single #
face $-1 $86 $87 $46 $-1 $88 forward single #
face $-1 $89 $90 $47 $-1 $91 forward single #
face $-1 $92 $93 $48 $-1 $94 forward single #
face $-1 $95 $96 $49 $-1 $97 forward single #
face $-1 $98 $99 $50 $-1 $100 forward single #
face $-1 $101 $102 $51 $-1 $103 forward single #
face $-1 $104 $105 $39 $-1 $106 reversed single #
loop $-1 $-1 $107 $52 #
plane-surface $-1 0 0 5.0262435436283681 0 0 1 1 0 0 forward_v I I I I #
face $-1 $108 $109 $40 $-1 $110 reversed single #
loop $-1 $-1 $111 $53 #
plane-surface $-1 0 0 1.5 0 0 1 1 0 0 forward_v I I I I #
face $-1 $112 $113 $41 $-1 $114 reversed single #
loop $-1 $-1 $115 $54 #
plane-surface $-1 0 0 1.5 0 0 1 1 0 0 forward_v I I I I #
face $-1 $116 $117 $42 $-1 $118 reversed single #
loop $-1 $-1 $119 $55 #
plane-surface $-1 0 0 98.572344126712849 0 0 1 1 0 0 forward_v I I I I #
face $-1 $120 $121 $43 $-1 $122 forward single #
loop $-1 $123 $124 $56 #
cone-surface $-1 0 0 -2.4986266670735802 0 0 1 1 0 0 1 I I 0 1 1 forward I I I I #
face $-1 $125 $126 $44 $-1 $127 forward single #
loop $-1 $128 $129 $57 #
cone-surface $-1 0 0 -2.4986266670735802 0 0 1 1 0 0 1 I I 0 1 1 forward I I I I #
face $-1 $130 $131 $45 $-1 $132 forward single #
loop $-1 $133 $134 $58 #
cone-surface $-1 0 0 -2.4986266670735802 0 0 1 1 0 0 1 I I 0 1 1 forward I I I I #
face $-1 $135 $136 $46 $-1 $137 reversed single #
loop $-1 $-1 $138 $59 #
plane-surface $-1 0 0 98.572344126712849 0 0 1 1 0 0 forward_v I I I I #
face $-1 $139 $140 $47 $-1 $141 forward single #
loop $-1 $142 $143 $60 #
cone-surface $-1 0 0 -2.0029831843012786 0 0 1 1.5 0 0 1 I I 0 1 1.5 forward I I I I #
face $-1 $144 $145 $48 $-1 $146 forward single #
loop $-1 $147 $148 $61 #
cone-surface $-1 0 0 -2.0029831843012786 0 0 1 1.5 0 0 1 I I 0 1 1.5 forward I I I I #
face $-1 $149 $150 $49 $-1 $151 reversed single #
loop $-1 $-1 $152 $62 #
plane-surface $-1 0 0 98.572344126712849 0 0 1 1 0 0 forward_v I I I I #
face $-1 $153 $154 $50 $-1 $155 forward single #
loop $-1 $156 $157 $63 #
cone-surface $-1 0 0 -2.0029831843012786 0 0 1 1.5 0 0 1 I I 0 1 1.5 forward I I I I #
face $-1 $158 $159 $51 $-1 $160 forward single #
loop $-1 $161 $162 $64 #
cone-surface $-1 0 0 -2.0029831843012786 0 0 1 1.5 0 0 1 I I 0 1 1.5 forward I I I I #
face $-1 $163 $164 $39 $-1 $165 reversed single #
loop $-1 $-1 $166 $65 #
plane-surface $-1 0 0 -5.0262435436283681 0 0 1 1 0 0 forward_v I I I I #
coedge $-1 $167 $168 $169 $170 forward $66 $-1 #
face $-1 $171 $172 $40 $-1 $173 reversed single #
loop $-1 $-1 $174 $68 #
plane-surface $-1 0 0 -1.5 0 0 1 1 0 0 forward_v I I I I #
coedge $-1 $175 $176 $177 $178 forward $69 $-1 #
face $-1 $179 $180 $41 $-1 $181 reversed single #
loop $-1 $-1 $182 $71 #
plane-surface $-1 0 0 -1.5 0 0 1 1 0 0 forward_v I I I I #
coedge $-1 $183 $184 $185 $186 forward $72 $-1 #
face $-1 $187 $188 $42 $-1 $189 reversed single #
loop $-1 $-1 $190 $74 #
plane-surface $-1 0 0 -98.572344126712849 0 0 1 1 0 0 forward_v I I I I #
coedge $-1 $191 $192 $193 $194 forward $75 $-1 #
face $-1 $-1 $195 $43 $-1 $196 forward single #
loop $-1 $-1 $197 $77 #
plane-surface $-1 0 0 -4.4972533341471603 0 0 -1 -1 0 0 forward_v I I I I #
loop $-1 $-1 $198 $56 #
coedge $-1 $124 $124 $197 $199 reversed $78 $-1 #
face $-1 $-1 $200 $44 $-1 $201 forward single #
loop $-1 $-1 $202 $80 #
plane-surface $-1 0 0 -4.4972533341471603 0 0 -1 -1 0 0 forward_v I I I I #
loop $-1 $-1 $203 $57 #
coedge $-1 $129 $129 $202 $204 reversed $81 $-1 #
face $-1 $-1 $205 $45 $-1 $206 forward single #
loop $-1 $-1 $207 $83 #
plane-surface $-1 0 0 -4.4972533341471603 0 0 -1 -1 0 0 forward_v I I I I #
loop $-1 $-1 $208 $58 #
coedge $-1 $134 $134 $207 $209 reversed $84 $-1 #
face $-1 $210 $211 $46 $-1 $212 reversed single #
loop $-1 $-1 $213 $86 #
plane-surface $-1 0 0 -98.572344126712849 0 0 1 1 0 0 forward_v I I I I #
coedge $-1 $214 $215 $216 $217 forward $87 $-1 #
face $-1 $-1 $218 $47 $-1 $219 forward single #
loop $-1 $-1 $220 $89 #
plane-surface $-1 0 0 -3.2559663686025573 0 0 -1 -1 0 0 forward_v I I I I #
loop $-1 $-1 $221 $60 #
coedge $-1 $143 $143 $220 $222 reversed $90 $-1 #
face $-1 $-1 $223 $48 $-1 $224 forward single #
loop $-1 $-1 $225 $92 #
plane-surface $-1 0 0 -3.2559663686025573 0 0 -1 -1 0 0 forward_v I I I I #
loop $-1 $-1 $226 $61 #
coedge $-1 $148 $148 $225 $227 reversed $93 $-1 #
face $-1 $228 $229 $49 $-1 $230 reversed single #
loop $-1 $-1 $231 $95 #
plane-surface $-1 0 0 -98.572344126712849 0 0 1 1 0 0 forward_v I I I I #
coedge $-1 $232 $233 $234 $235 forward $96 $-1 #
face $-1 $-1 $236 $50 $-1 $237 forward single #
loop $-1 $-1 $238 $98 #
plane-surface $-1 0 0 -3.2559663686025573 0 0 -1 -1 0 0 forward_v I I I I #
loop $-1 $-1 $239 $63 #
coedge $-1 $157 $157 $238 $240 reversed $99 $-1 #
face $-1 $-1 $241 $51 $-1 $242 forward single #
loop $-1 $-1 $243 $101 #
plane-surface $-1 0 0 -3.2559663686025573 0 0 -1 -1 0 0 forward_v I I I I #
loop $-1 $-1 $244 $64 #
coedge $-1 $162 $162 $243 $245 reversed $102 $-1 #
face $-1 $246 $247 $39 $-1 $248 reversed single #
loop $-1 $-1 $249 $104 #
plane-surface $-1 0 -21.653005113536601 0 0 1 0 0 0 1 forward_v I I I I #
coedge $-1 $250 $251 $252 $253 forward $105 $-1 #
coedge $-1 $254 $107 $255 $256 forward $66 $-1 #
coedge $-1 $107 $254 $257 $258 forward $66 $-1 #
coedge $-1 $259 $260 $107 $170 reversed $261 $-1 #
edge $-1 $262 -21.653005113536601 $263 21.653005113536601 $169 $264 forward 7 unknown #
face $-1 $265 $266 $40 $-1 $267 reversed single #
loop $-1 $-1 $268 $108 #
plane-surface $-1 0 -21.653005113536601 0 0 1 0 0 0 1 forward_v I I I I #
coedge $-1 $269 $270 $271 $272 forward $109 $-1 #
coedge $-1 $273 $111 $274 $275 forward $69 $-1 #
coedge $-1 $111 $273 $276 $277 forward $69 $-1 #
coedge $-1 $278 $279 $111 $178 reversed $280 $-1 #
edge $-1 $281 -21.653005113536601 $282 21.653005113536601 $177 $283 forward 7 unknown #
face $-1 $284 $285 $41 $-1 $286 reversed single #
loop $-1 $-1 $287 $112 #
plane-surface $-1 0 -21.653005113536601 0 0 1 0 0 0 1 forward_v I I I I #
coedge $-1 $288 $289 $290 $291 forward $113 $-1 #
coedge $-1 $292 $115 $293 $294 forward $72 $-1 #
coedge $-1 $115 $292 $295 $296 forward $72 $-1 #
coedge $-1 $297 $298 $115 $186 reversed $299 $-1 #
edge $-1 $300 -21.653005113536601 $301 21.653005113536601 $185 $302 forward 7 unknown #
face $-1 $303 $304 $42 $-1 $305 reversed single #
loop $-1 $-1 $306 $116 #
plane-surface $-1 0 -197.1446882534257 0 0 1 0 0 0 1 forward_v I I I I #
coedge $-1 $307 $308 $309 $310 forward $117 $-1 #
coedge $-1 $311 $119 $312 $313 forward $75 $-1 #
coedge $-1 $119 $311 $314 $315 forward $75 $-1 #
coedge $-1 $316 $317 $119 $194 reversed $318 $-1 #
edge $-1 $319 -197.1446882534257 $320 197.1446882534257 $193 $321 forward 7 unknown #
loop $-1 $322 $323 $120 #
cone-surface $-1 0 0 0 0 0 1 0.5 0 0 1 I I -0.70710678118654746 0.70710678118654746 0.5 forward I I I I #
coedge $-1 $197 $197 $124 $199 forward $121 $-1 #
coedge $-1 $198 $198 $323 $324 forward $123 $-1 #
edge $-1 $325 0 $325 6.2831853071796004 $197 $326 forward 7 unknown #
loop $-1 $327 $328 $125 #
cone-surface $-1 0 0 0 0 0 1 0.5 0 0 1 I I -0.70710678118654746 0.70710678118654746 0.5 forward I I I I #
coedge $-1 $202 $202 $129 $204 forward $126 $-1 #
coedge $-1 $203 $203 $328 $329 forward $128 $-1 #
edge $-1 $330 0 $330 6.2831853071796004 $202 $331 forward 7 unknown #
loop $-1 $332 $333 $130 #
cone-surface $-1 0 0 0 0 0 1 0.5 0 0 1 I I -0.70710678118654746 0.70710678118654746 0.5 forward I I I I #
coedge $-1 $207 $207 $134 $209 forward $131 $-1 #
coedge $-1 $208 $208 $333 $334 forward $133 $-1 #
edge $-1 $335 0 $335 6.2831853071796004 $207 $336 forward 7 unknown #
face $-1 $337 $338 $46 $-1 $339 reversed single #
loop $-1 $-1 $340 $135 #
plane-surface $-1 0 -197.1446882534257 0 0 1 0 0 0 1 forward_v I I I I #
coedge $-1 $341 $342 $343 $344 forward $136 $-1 #
coedge $-1 $345 $138 $346 $347 forward $87 $-1 #
coedge $-1 $138 $345 $348 $349 forward $87 $-1 #
coedge $-1 $350 $351 $138 $217 reversed $352 $-1 #
edge $-1 $353 -197.1446882534257 $354 197.1446882534257 $216 $355 forward 7 unknown #
loop $-1 $356 $357 $139 #
cone-surface $-1 0 0 0 0 0 1 0.75 0 0 1 I I -0.70710678118654757 0.70710678118654757 0.75 forward I I I I #
coedge $-1 $220 $220 $143 $222 forward $140 $-1 #
coedge $-1 $221 $221 $357 $358 forward $142 $-1 #
edge $-1 $359 0 $359 6.2831853071796004 $220 $360 forward 7 unknown #
loop $-1 $361 $362 $144 #
cone-surface $-1 0 0 0 0 0 1 0.75 0 0 1 I I -0.70710678118654757 0.70710678118654757 0.75 forward I I I I #
coedge $-1 $225 $225 $148 $227 forward $145 $-1 #
coedge $-1 $226 $226 $362 $363 forward $147 $-1 #
edge $-1 $364 0 $364 6.2831853071796004 $225 $365 forward 7 unknown #
face $-1 $366 $367 $49 $-1 $368 reversed single #
loop $-1 $-1 $369 $149 #
plane-surface $-1 0 -197.1446882534257 0 0 1 0 0 0 1 forward_v I I I I #
coedge $-1 $370 $371 $372 $373 forward $150 $-1 #
coedge $-1 $374 $152 $375 $376 forward $96 $-1 #
coedge $-1 $152 $374 $377 $378 forward $96 $-1 #
coedge $-1 $379 $380 $152 $235 reversed $381 $-1 #
edge $-1 $382 -197.1446882534257 $383 197.1446882534257 $234 $384 forward 7 unknown #
loop $-1 $385 $386 $153 #
cone-surface $-1 0 0 0 0 0 1 0.75 0 0 1 I I -0.70710678118654757 0.70710678118654757 0.75 forward I I I I #
coedge $-1 $238 $238 $157 $240 forward $154 $-1 #
coedge $-1 $239 $239 $386 $387 forward $156 $-1 #
edge $-1 $388 0 $388 6.2831853071796004 $238 $389 forward 7 unknown #
loop $-1 $390 $391 $158 #
cone-surface $-1 0 0 0 0 0 1 0.75 0 0 1 I I -0.70710678118654757 0.70710678118654757 0.75 forward I I I I #
coedge $-1 $243 $243 $162 $245 forward $159 $-1 #
coedge $-1 $244 $244 $391 $392 forward $161 $-1 #
edge $-1 $393 0 $393 6.2831853071796004 $243 $394 forward 7 unknown #
face $-1 $395 $396 $39 $-1 $397 reversed single #
loop $-1 $-1 $398 $163 #
plane-surface $-1 -49.286172063356425 0 0 1 0 0 0 0 -1 forward_v I I I I #
coedge $-1 $399 $257 $400 $401 forward $164 $-1 #
coedge $-1 $402 $166 $399 $403 forward $105 $-1 #
coedge $-1 $166 $402 $404 $405 forward $105 $-1 #
coedge $-1 $260 $259 $166 $253 reversed $261 $-1 #
edge $-1 $406 -21.653005113536601 $407 21.653005113536601 $252 $408 forward 7 unknown #
coedge $-1 $168 $167 $409 $410 forward $66 $-1 #
coedge $-1 $411 $412 $167 $256 reversed $396 $-1 #
edge $-1 $263 -49.286172063356425 $413 49.286172063356425 $255 $414 forward 7 unknown #
coedge $-1 $249 $415 $168 $258 reversed $164 $-1 #
edge $-1 $416 -49.286172063356425 $262 49.286172063356425 $257 $417 forward 7 unknown #
coedge $-1 $252 $169 $415 $418 forward $261 $-1 #
coedge $-1 $169 $252 $411 $419 reversed $261 $-1 #
loop $-1 $-1 $259 $395 #
vertex $-1 $170 $420 #
vertex $-1 $170 $421 #
straight-curve $-1 49.286172063356425 0 5.0262435436283681 0 1 0 I I #
face $-1 $422 $423 $40 $-1 $424 reversed single #
loop $-1 $-1 $425 $171 #
plane-surface $-1 -2.5071501643690883 0 0 1 0 0 0 0 -1 forward_v I I I I #
coedge $-1 $426 $276 $427 $428 forward $172 $-1 #
coedge $-1 $429 $174 $426 $430 forward $109 $-1 #
coedge $-1 $174 $429 $431 $432 forward $109 $-1 #
coedge $-1 $279 $278 $174 $272 reversed $280 $-1 #
edge $-1 $433 -21.653005113536601 $434 21.653005113536601 $271 $435 forward 7 unknown #
coedge $-1 $176 $175 $436 $437 forward $69 $-1 #
coedge $-1 $438 $439 $175 $275 reversed $423 $-1 #
edge $-1 $282 -2.5071501643690883 $440 2.5071501643690883 $274 $441 forward 7 unknown #
coedge $-1 $268 $442 $176 $277 reversed $172 $-1 #
edge $-1 $443 -2.5071501643690883 $281 2.5071501643690883 $276 $444 forward 7 unknown #
coedge $-1 $271 $177 $442 $445 forward $280 $-1 #
coedge $-1 $177 $271 $438 $446 reversed $280 $-1 #
loop $-1 $-1 $278 $422 #
vertex $-1 $178 $447 #
vertex $-1 $178 $448 #
straight-curve $-1 2.5071501643690883 0 1.5 0 1 0 I I #
face $-1 $449 $450 $41 $-1 $451 reversed single #
loop $-1 $-1 $452 $179 #
plane-surface $-1 -2.5071501643690866 0 0 1 0 0 0 0 -1 forward_v I I I I #
coedge $-1 $453 $295 $454 $455 forward $180 $-1 #
coedge $-1 $456 $182 $453 $457 forward $113 $-1 #
coedge $-1 $182 $456 $458 $459 forward $113 $-1 #
coedge $-1 $298 $297 $182 $291 reversed $299 $-1 #
edge $-1 $460 -21.653005113536601 $461 21.653005113536601 $290 $462 forward 7 unknown #
coedge $-1 $184 $183 $463 $464 forward $72 $-1 #
coedge $-1 $465 $466 $183 $294 reversed $450 $-1 #
edge $-1 $301 -2.5071501643690866 $467 2.5071501643690866 $293 $468 forward 7 unknown #
coedge $-1 $287 $469 $184 $296 reversed $180 $-1 #
edge $-1 $470 -2.5071501643690866 $300 2.5071501643690866 $295 $471 forward 7 unknown #
coedge $-1 $290 $185 $469 $472 forward $299 $-1 #
coedge $-1 $185 $290 $465 $473 reversed $299 $-1 #
loop $-1 $-1 $297 $449 #
vertex $-1 $186 $474 #
vertex $-1 $186 $475 #
straight-curve $-1 2.5071501643690866 0 1.5 0 1 0 I I #
face $-1 $476 $477 $42 $-1 $478 reversed single #
loop $-1 $-1 $479 $187 #
plane-surface $-1 -6.7365070125929485 0 0 1 0 0 0 0 -1 forward_v I I I I #
coedge $-1 $480 $314 $481 $482 forward $188 $-1 #
coedge $-1 $483 $190 $480 $484 forward $117 $-1 #
coedge $-1 $190 $483 $485 $486 forward $117 $-1 #
coedge $-1 $317 $316 $190 $310 reversed $318 $-1 #
edge $-1 $487 -197.1446882534257 $488 197.1446882534257 $309 $489 forward 7 unknown #
coedge $-1 $192 $191 $490 $491 forward $75 $-1 #
coedge $-1 $492 $493 $191 $313 reversed $477 $-1 #
edge $-1 $320 -6.7365070125929485 $494 6.7365070125929485 $312 $495 forward 7 unknown #
coedge $-1 $306 $496 $192 $315 reversed $188 $-1 #
edge $-1 $497 -6.7365070125929485 $319 6.7365070125929485 $314 $498 forward 7 unknown #
coedge $-1 $309 $193 $496 $499 forward $318 $-1 #
coedge $-1 $193 $309 $492 $500 reversed $318 $-1 #
loop $-1 $-1 $316 $476 #
vertex $-1 $194 $501 #
vertex $-1 $194 $502 #
straight-curve $-1 6.7365070125929485 0 98.572344126712849 0 1 0 I I #
loop $-1 $-1 $503 $120 #
coedge $-1 $323 $323 $198 $324 reversed $195 $-1 #
edge $-1 $504 0 $504 6.2831853071796004 $323 $505 forward 7 unknown #
vertex $-1 $199 $506 #
ellipse-curve $-1 0 0 -4.4972533341471603 0 0 -1 1 0 0 1 I I #
loop $-1 $-1 $507 $125 #
coedge $-1 $328 $328 $203 $329 reversed $200 $-1 #
edge $-1 $508 0 $508 6.2831853071796004 $328 $509 forward 7 unknown #
vertex $-1 $204 $510 #
ellipse-curve $-1 0 0 -4.4972533341471603 0 0 -1 1 0 0 1 I I #
loop $-1 $-1 $511 $130 #
coedge $-1 $333 $333 $208 $334 reversed $205 $-1 #
edge $-1 $512 0 $512 6.2831853071796004 $333 $513 forward 7 unknown #
vertex $-1 $209 $514 #
ellipse-curve $-1 0 0 -4.4972533341471603 0 0 -1 1 0 0 1 I I #
face $-1 $515 $516 $46 $-1 $517 reversed single #
loop $-1 $-1 $518 $210 #
plane-surface $-1 -5.4593688321935261 0 0 1 0 0 0 0 -1 forward_v I I I I #
coedge $-1 $519 $348 $520 $521 forward $211 $-1 #
coedge $-1 $522 $213 $519 $523 forward $136 $-1 #
coedge $-1 $213 $522 $524 $525 forward $136 $-1 #
coedge $-1 $351 $350 $213 $344 reversed $352 $-1 #
edge $-1 $526 -197.1446882534257 $527 197.1446882534257 $343 $528 forward 7 unknown #
coedge $-1 $215 $214 $529 $530 forward $87 $-1 #
coedge $-1 $531 $532 $214 $347 reversed $516 $-1 #
edge $-1 $354 -5.4593688321935261 $533 5.4593688321935261 $346 $534 forward 7 unknown #
coedge $-1 $340 $535 $215 $349 reversed $211 $-1 #
edge $-1 $536 -5.4593688321935261 $353 5.4593688321935261 $348 $537 forward 7 unknown #
coedge $-1 $343 $216 $535 $538 forward $352 $-1 #
coedge $-1 $216 $343 $531 $539 reversed $352 $-1 #
loop $-1 $-1 $350 $515 #
vertex $-1 $217 $540 #
vertex $-1 $217 $541 #
straight-curve $-1 5.4593688321935261 0 98.572344126712849 0 1 0 I I #
loop $-1 $-1 $542 $139 #
coedge $-1 $357 $357 $221 $358 reversed $218 $-1 #
edge $-1 $543 0 $543 6.2831853071796004 $357 $544 forward 7 unknown #
vertex $-1 $222 $545 #
ellipse-curve $-1 0 0 -3.2559663686025573 0 0 -1 1.5 0 0 1 I I #
loop $-1 $-1 $546 $144 #
coedge $-1 $362 $362 $226 $363 reversed $223 $-1 #
edge $-1 $547 0 $547 6.2831853071796004 $362 $548 forward 7 unknown #
vertex $-1 $227 $549 #
ellipse-curve $-1 0 0 -3.2559663686025573 0 0 -1 1.5 0 0 1 I I #
face $-1 $550 $551 $49 $-1 $552 reversed single #
loop $-1 $-1 $553 $228 #
plane-surface $-1 -5.4593688321935261 0 0 1 0 0 0 0 -1 forward_v I I I I #
coedge $-1 $554 $377 $555 $556 forward $229 $-1 #
coedge $-1 $557 $231 $554 $558 forward $150 $-1 #
coedge $-1 $231 $557 $559 $560 forward $150 $-1 #
coedge $-1 $380 $379 $231 $373 reversed $381 $-1 #
edge $-1 $561 -197.1446882534257 $562 197.1446882534257 $372 $563 forward 7 unknown #
coedge $-1 $233 $232 $564 $565 forward $96 $-1 #
coedge $-1 $566 $567 $232 $376 reversed $551 $-1 #
edge $-1 $383 -5.4593688321935261 $568 5.4593688321935261 $375 $569 forward 7 unknown #
coedge $-1 $369 $570 $233 $378 reversed $229 $-1 #
edge $-1 $571 -5.4593688321935261 $382 5.4593688321935261 $377 $572 forward 7 unknown #
coedge $-1 $372 $234 $570 $573 forward $381 $-1 #
coedge $-1 $234 $372 $566 $574 reversed $381 $-1 #
loop $-1 $-1 $379 $550 #
vertex $-1 $235 $575 #
vertex $-1 $235 $576 #
straight-curve $-1 5.4593688321935261 0 98.572344126712849 0 1 0 I I #
loop $-1 $-1 $577 $153 #
coedge $-1 $386 $386 $239 $387 reversed $236 $-1 #
edge $-1 $578 0 $578 6.2831853071796004 $386 $579 forward 7 unknown #
vertex $-1 $240 $580 #
ellipse-curve $-1 0 0 -3.2559663686025573 0 0 -1 1.5 0 0 1 I I #
loop $-1 $-1 $581 $158 #
coedge $-1 $391 $391 $244 $392 reversed $241 $-1 #
edge $-1 $582 0 $582 6.2831853071796004 $391 $583 forward 7 unknown #
vertex $-1 $245 $584 #
ellipse-curve $-1 0 0 -3.2559663686025573 0 0 -1 1.5 0 0 1 I I #
face $-1 $-1 $261 $39 $-1 $585 reversed single #
loop $-1 $-1 $411 $246 #
plane-surface $-1 0 21.653005113536601 0 0 -1 0 0 0 -1 forward_v I I I I #
coedge $-1 $586 $409 $412 $587 forward $247 $-1 #
coedge $-1 $415 $249 $250 $403 reversed $164 $-1 #
coedge $-1 $409 $586 $249 $401 reversed $247 $-1 #
edge $-1 $416 -5.0262435436283681 $588 5.0262435436283681 $400 $589 forward 7 unknown #
coedge $-1 $251 $250 $586 $590 forward $105 $-1 #
edge $-1 $407 -49.286172063356425 $588 49.286172063356425 $399 $591 forward 7 unknown #
coedge $-1 $412 $411 $251 $405 reversed $396 $-1 #
edge $-1 $592 -49.286172063356425 $406 49.286172063356425 $404 $593 forward 7 unknown #
vertex $-1 $253 $594 #
vertex $-1 $418 $595 #
straight-curve $-1 49.286172063356425 0 -5.0262435436283681 0 -1 0 I I #
coedge $-1 $398 $400 $254 $410 reversed $247 $-1 #
edge $-1 $413 -21.653005113536601 $416 21.653005113536601 $409 $596 forward 7 unknown #
coedge $-1 $404 $255 $260 $419 forward $396 $-1 #
coedge $-1 $255 $404 $398 $587 reversed $396 $-1 #
vertex $-1 $256 $597 #
straight-curve $-1 0 21.653005113536601 5.0262435436283681 -1 0 0 I I #
coedge $-1 $257 $399 $259 $418 reversed $164 $-1 #
vertex $-1 $410 $598 #
straight-curve $-1 0 -21.653005113536601 5.0262435436283681 1 0 0 I I #
edge $-1 $262 -5.0262435436283681 $407 5.0262435436283681 $259 $599 forward 7 unknown #
edge $-1 $263 -5.0262435436283681 $406 5.0262435436283681 $260 $600 forward 7 unknown #
point $-1 49.286172063356425 -21.653005113536601 5.0262435436283681 #
point $-1 49.286172063356425 21.653005113536601 5.0262435436283681 #
face $-1 $-1 $280 $40 $-1 $601 reversed single #
loop $-1 $-1 $438 $265 #
plane-surface $-1 0 21.653005113536601 0 0 -1 0 0 0 -1 forward_v I I I I #
coedge $-1 $602 $436 $439 $603 forward $266 $-1 #
coedge $-1 $442 $268 $269 $430 reversed $172 $-1 #
coedge $-1 $436 $602 $268 $428 reversed $266 $-1 #
edge $-1 $443 -1.5 $604 1.5 $427 $605 forward 7 unknown #
coedge $-1 $270 $269 $602 $606 forward $109 $-1 #
edge $-1 $434 -2.5071501643690883 $604 2.5071501643690883 $426 $607 forward 7 unknown #
coedge $-1 $439 $438 $270 $432 reversed $423 $-1 #
edge $-1 $608 -2.5071501643690883 $433 2.5071501643690883 $431 $609 forward 7 unknown #
vertex $-1 $272 $610 #
vertex $-1 $445 $611 #
straight-curve $-1 2.5071501643690883 0 -1.5 0 -1 0 I I #
coedge $-1 $425 $427 $273 $437 reversed $266 $-1 #
edge $-1 $440 -21.653005113536601 $443 21.653005113536601 $436 $612 forward 7 unknown #
coedge $-1 $431 $274 $279 $446 forward $423 $-1 #
coedge $-1 $274 $431 $425 $603 reversed $423 $-1 #
vertex $-1 $275 $613 #
straight-curve $-1 0 21.653005113536601 1.5 -1 0 0 I I #
coedge $-1 $276 $426 $278 $445 reversed $172 $-1 #
vertex $-1 $437 $614 #
straight-curve $-1 0 -21.653005113536601 1.5 1 0 0 I I #
edge $-1 $281 -1.5 $434 1.5 $278 $615 forward 7 unknown #
edge $-1 $282 -1.5 $433 1.5 $279 $616 forward 7 unknown #
point $-1 2.5071501643690883 -21.653005113536601 1.5 #
point $-1 2.5071501643690883 21.653005113536601 1.5 #
face $-1 $-1 $299 $41 $-1 $617 reversed single #
loop $-1 $-1 $465 $284 #
plane-surface $-1 0 21.653005113536601 0 0 -1 0 0 0 -1 forward_v I I I I #
coedge $-1 $618 $463 $466 $619 forward $285 $-1 #
coedge $-1 $469 $287 $288 $457 reversed $180 $-1 #
coedge $-1 $463 $618 $287 $455 reversed $285 $-1 #
edge $-1 $470 -1.5 $620 1.5 $454 $621 forward 7 unknown #
coedge $-1 $289 $288 $618 $622 forward $113 $-1 #
edge $-1 $461 -2.5071501643690866 $620 2.5071501643690866 $453 $623 forward 7 unknown #
coedge $-1 $466 $465 $289 $459 reversed $450 $-1 #
edge $-1 $624 -2.5071501643690866 $460 2.5071501643690866 $458 $625 forward 7 unknown #
vertex $-1 $291 $626 #
vertex $-1 $472 $627 #
straight-curve $-1 2.5071501643690866 0 -1.5 0 -1 0 I I #
coedge $-1 $452 $454 $292 $464 reversed $285 $-1 #
edge $-1 $467 -21.653005113536601 $470 21.653005113536601 $463 $628 forward 7 unknown #
coedge $-1 $458 $293 $298 $473 forward $450 $-1 #
coedge $-1 $293 $458 $452 $619 reversed $450 $-1 #
vertex $-1 $294 $629 #
straight-curve $-1 0 21.653005113536601 1.5 -1 0 0 I I #
coedge $-1 $295 $453 $297 $472 reversed $180 $-1 #
vertex $-1 $464 $630 #
straight-curve $-1 0 -21.653005113536601 1.5 1 0 0 I I #
edge $-1 $300 -1.5 $461 1.5 $297 $631 forward 7 unknown #
edge $-1 $301 -1.5 $460 1.5 $298 $632 forward 7 unknown #
point $-1 2.5071501643690866 -21.653005113536601 1.5 #
point $-1 2.5071501643690866 21.653005113536601 1.5 #
face $-1 $-1 $318 $42 $-1 $633 reversed single #
loop $-1 $-1 $492 $303 #
plane-surface $-1 0 197.1446882534257 0 0 -1 0 0 0 -1 forward_v I I I I #
coedge $-1 $634 $490 $493 $635 forward $304 $-1 #
coedge $-1 $496 $306 $307 $484 reversed $188 $-1 #
coedge $-1 $490 $634 $306 $482 reversed $304 $-1 #
edge $-1 $497 -98.572344126712849 $636 98.572344126712849 $481 $637 forward 7 unknown #
coedge $-1 $308 $307 $634 $638 forward $117 $-1 #
edge $-1 $488 -6.7365070125929485 $636 6.7365070125929485 $480 $639 forward 7 unknown #
coedge $-1 $493 $492 $308 $486 reversed $477 $-1 #
edge $-1 $640 -6.7365070125929485 $487 6.7365070125929485 $485 $641 forward 7 unknown #
vertex $-1 $310 $642 #
vertex $-1 $499 $643 #
straight-curve $-1 6.7365070125929485 0 -98.572344126712849 0 -1 0 I I #
coedge $-1 $479 $481 $311 $491 reversed $304 $-1 #
edge $-1 $494 -197.1446882534257 $497 197.1446882534257 $490 $644 forward 7 unknown #
coedge $-1 $485 $312 $317 $500 forward $477 $-1 #
coedge $-1 $312 $485 $479 $635 reversed $477 $-1 #
vertex $-1 $313 $645 #
straight-curve $-1 0 197.1446882534257 98.572344126712849 -1 0 0 I I #
coedge $-1 $314 $480 $316 $499 reversed $188 $-1 #
vertex $-1 $491 $646 #
straight-curve $-1 0 -197.1446882534257 98.572344126712849 1 0 0 I I #
edge $-1 $319 -98.572344126712849 $488 98.572344126712849 $316 $647 forward 7 unknown #
edge $-1 $320 -98.572344126712849 $487 98.572344126712849 $317 $648 forward 7 unknown #
point $-1 6.7365070125929485 -197.1446882534257 98.572344126712849 #
point $-1 6.7365070125929485 197.1446882534257 98.572344126712849 #
coedge $-1 $503 $503 $-1 $649 reversed $322 $-1 #
vertex $-1 $324 $650 #
ellipse-curve $-1 0 0 -0.5 0 0 -1 1 0 0 1 I I #
point $-1 1 0 -4.4972533341471603 #
coedge $-1 $507 $507 $-1 $651 reversed $327 $-1 #
vertex $-1 $329 $652 #
ellipse-curve $-1 0 0 -0.5 0 0 -1 1 0 0 1 I I #
point $-1 1 0 -4.4972533341471603 #
coedge $-1 $511 $511 $-1 $653 reversed $332 $-1 #
vertex $-1 $334 $654 #
ellipse-curve $-1 0 0 -0.5 0 0 -1 1 0 0 1 I I #
point $-1 1 0 -4.4972533341471603 #
face $-1 $-1 $352 $46 $-1 $655 reversed single #
loop $-1 $-1 $531 $337 #
plane-surface $-1 0 197.1446882534257 0 0 -1 0 0 0 -1 forward_v I I I I #
coedge $-1 $656 $529 $532 $657 forward $338 $-1 #
coedge $-1 $535 $340 $341 $523 reversed $211 $-1 #
coedge $-1 $529 $656 $340 $521 reversed $338 $-1 #
edge $-1 $536 -98.572344126712849 $658 98.572344126712849 $520 $659 forward 7 unknown #
coedge $-1 $342 $341 $656 $660 forward $136 $-1 #
edge $-1 $527 -5.4593688321935261 $658 5.4593688321935261 $519 $661 forward 7 unknown #
coedge $-1 $532 $531 $342 $525 reversed $516 $-1 #
edge $-1 $662 -5.4593688321935261 $526 5.4593688321935261 $524 $663 forward 7 unknown #
vertex $-1 $344 $664 #
vertex $-1 $538 $665 #
straight-curve $-1 5.4593688321935261 0 -98.572344126712849 0 -1 0 I I #
coedge $-1 $518 $520 $345 $530 reversed $338 $-1 #
edge $-1 $533 -197.1446882534257 $536 197.1446882534257 $529 $666 forward 7 unknown #
coedge $-1 $524 $346 $351 $539 forward $516 $-1 #
coedge $-1 $346 $524 $518 $657 reversed $516 $-1 #
vertex $-1 $347 $667 #
straight-curve $-1 0 197.1446882534257 98.572344126712849 -1 0 0 I I #
coedge $-1 $348 $519 $350 $538 reversed $211 $-1 #
vertex $-1 $530 $668 #
straight-curve $-1 0 -197.1446882534257 98.572344126712849 1 0 0 I I #
edge $-1 $353 -98.572344126712849 $527 98.572344126712849 $350 $669 forward 7 unknown #
edge $-1 $354 -98.572344126712849 $526 98.572344126712849 $351 $670 forward 7 unknown #
point $-1 5.4593688321935261 -197.1446882534257 98.572344126712849 #
point $-1 5.4593688321935261 197.1446882534257 98.572344126712849 #
coedge $-1 $542 $542 $-1 $671 reversed $356 $-1 #
vertex $-1 $358 $672 #
ellipse-curve $-1 0 0 -0.75 0 0 -1 1.5 0 0 1 I I #
point $-1 1.5 0 -3.2559663686025573 #
coedge $-1 $546 $546 $-1 $673 reversed $361 $-1 #
vertex $-1 $363 $674 #
ellipse-curve $-1 0 0 -0.75 0 0 -1 1.5 0 0 1 I I #
point $-1 1.5 0 -3.2559663686025573 #
face $-1 $-1 $381 $49 $-1 $675 reversed single #
loop $-1 $-1 $566 $366 #
plane-surface $-1 0 197.1446882534257 0 0 -1 0 0 0 -1 forward_v I I I I #
coedge $-1 $676 $564 $567 $677 forward $367 $-1 #
coedge $-1 $570 $369 $370 $558 reversed $229 $-1 #
coedge $-1 $564 $676 $369 $556 reversed $367 $-1 #
edge $-1 $571 -98.572344126712849 $678 98.572344126712849 $555 $679 forward 7 unknown #
coedge $-1 $371 $370 $676 $680 forward $150 $-1 #
edge $-1 $562 -5.4593688321935261 $678 5.4593688321935261 $554 $681 forward 7 unknown #
coedge $-1 $567 $566 $371 $560 reversed $551 $-1 #
edge $-1 $682 -5.4593688321935261 $561 5.4593688321935261 $559 $683 forward 7 unknown #
vertex $-1 $373 $684 #
vertex $-1 $573 $685 #
straight-curve $-1 5.4593688321935261 0 -98.572344126712849 0 -1 0 I I #
coedge $-1 $553 $555 $374 $565 reversed $367 $-1 #
edge $-1 $568 -197.1446882534257 $571 197.1446882534257 $564 $686 forward 7 unknown #
coedge $-1 $559 $375 $380 $574 forward $551 $-1 #
coedge $-1 $375 $559 $553 $677 reversed $551 $-1 #
vertex $-1 $376 $687 #
straight-curve $-1 0 197.1446882534257 98.572344126712849 -1 0 0 I I #
coedge $-1 $377 $554 $379 $573 reversed $229 $-1 #
vertex $-1 $565 $688 #
straight-curve $-1 0 -197.1446882534257 98.572344126712849 1 0 0 I I #
edge $-1 $382 -98.572344126712849 $562 98.572344126712849 $379 $689 forward 7 unknown #
edge $-1 $383 -98.572344126712849 $561 98.572344126712849 $380 $690 forward 7 unknown #
point $-1 5.4593688321935261 -197.1446882534257 98.572344126712849 #
point $-1 5.4593688321935261 197.1446882534257 98.572344126712849 #
coedge $-1 $577 $577 $-1 $691 reversed $385 $-1 #
vertex $-1 $387 $692 #
ellipse-curve $-1 0 0 -0.75 0 0 -1 1.5 0 0 1 I I #
point $-1 1.5 0 -3.2559663686025573 #
coedge $-1 $581 $581 $-1 $693 reversed $390 $-1 #
vertex $-1 $392 $694 #
ellipse-curve $-1 0 0 -0.75 0 0 -1 1.5 0 0 1 I I #
point $-1 1.5 0 -3.2559663686025573 #
plane-surface $-1 49.286172063356425 0 0 -1 0 0 0 0 1 forward_v I I I I #
coedge $-1 $400 $398 $402 $590 reversed $247 $-1 #
edge $-1 $413 -5.0262435436283681 $592 5.0262435436283681 $412 $695 forward 7 unknown #
vertex $-1 $590 $696 #
straight-curve $-1 -49.286172063356425 -21.653005113536601 0 0 0 -1 I I #
edge $-1 $588 -21.653005113536601 $592 21.653005113536601 $586 $697 forward 7 unknown #
straight-curve $-1 0 -21.653005113536601 -5.0262435436283681 -1 0 0 I I #
vertex $-1 $405 $698 #
straight-curve $-1 0 21.653005113536601 -5.0262435436283681 1 0 0 I I #
point $-1 49.286172063356425 21.653005113536601 -5.0262435436283681 #
point $-1 49.286172063356425 -21.653005113536601 -5.0262435436283681 #
straight-curve $-1 -49.286172063356425 0 5.0262435436283681 0 -1 0 I I #
point $-1 -49.286172063356425 21.653005113536601 5.0262435436283681 #
point $-1 -49.286172063356425 -21.653005113536601 5.0262435436283681 #
straight-curve $-1 49.286172063356425 -21.653005113536601 0 0 0 -1 I I #
straight-curve $-1 49.286172063356425 21.653005113536601 0 0 0 -1 I I #
plane-surface $-1 2.5071501643690883 0 0 -1 0 0 0 0 1 forward_v I I I I #
coedge $-1 $427 $425 $429 $606 reversed $266 $-1 #
edge $-1 $440 -1.5 $608 1.5 $439 $699 forward 7 unknown #
vertex $-1 $606 $700 #
straight-curve $-1 -2.5071501643690883 -21.653005113536601 0 0 0 -1 I I #
edge $-1 $604 -21.653005113536601 $608 21.653005113536601 $602 $701 forward 7 unknown #
straight-curve $-1 0 -21.653005113536601 -1.5 -1 0 0 I I #
vertex $-1 $432 $702 #
straight-curve $-1 0 21.653005113536601 -1.5 1 0 0 I I #
point $-1 2.5071501643690883 21.653005113536601 -1.5 #
point $-1 2.5071501643690883 -21.653005113536601 -1.5 #
straight-curve $-1 -2.5071501643690883 0 1.5 0 -1 0 I I #
point $-1 -2.5071501643690883 21.653005113536601 1.5 #
point $-1 -2.5071501643690883 -21.653005113536601 1.5 #
straight-curve $-1 2.5071501643690883 -21.653005113536601 0 0 0 -1 I I #
straight-curve $-1 2.5071501643690883 21.653005113536601 0 0 0 -1 I I #
plane-surface $-1 2.5071501643690866 0 0 -1 0 0 0 0 1 forward_v I I I I #
coedge $-1 $454 $452 $456 $622 reversed $285 $-1 #
edge $-1 $467 -1.5 $624 1.5 $466 $703 forward 7 unknown #
vertex $-1 $622 $704 #
straight-curve $-1 -2.5071501643690866 -21.653005113536601 0 0 0 -1 I I #
edge $-1 $620 -21.653005113536601 $624 21.653005113536601 $618 $705 forward 7 unknown #
straight-curve $-1 0 -21.653005113536601 -1.5 -1 0 0 I I #
vertex $-1 $459 $706 #
straight-curve $-1 0 21.653005113536601 -1.5 1 0 0 I I #
point $-1 2.5071501643690866 21.653005113536601 -1.5 #
point $-1 2.5071501643690866 -21.653005113536601 -1.5 #
straight-curve $-1 -2.5071501643690866 0 1.5 0 -1 0 I I #
point $-1 -2.5071501643690866 21.653005113536601 1.5 #
point $-1 -2.5071501643690866 -21.653005113536601 1.5 #
straight-curve $-1 2.5071501643690866 -21.653005113536601 0 0 0 -1 I I #
straight-curve $-1 2.5071501643690866 21.653005113536601 0 0 0 -1 I I #
plane-surface $-1 6.7365070125929485 0 0 -1 0 0 0 0 1 forward_v I I I I #
coedge $-1 $481 $479 $483 $638 reversed $304 $-1 #
edge $-1 $494 -98.572344126712849 $640 98.572344126712849 $493 $707 forward 7 unknown #
vertex $-1 $638 $708 #
straight-curve $-1 -6.7365070125929485 -197.1446882534257 0 0 0 -1 I I #
edge $-1 $636 -197.1446882534257 $640 197.1446882534257 $634 $709 forward 7 unknown #
straight-curve $-1 0 -197.1446882534257 -98.572344126712849 -1 0 0 I I #
vertex $-1 $486 $710 #
straight-curve $-1 0 197.1446882534257 -98.572344126712849 1 0 0 I I #
point $-1 6.7365070125929485 197.1446882534257 -98.572344126712849 #
point $-1 6.7365070125929485 -197.1446882534257 -98.572344126712849 #
straight-curve $-1 -6.7365070125929485 0 98.572344126712849 0 -1 0 I I #
point $-1 -6.7365070125929485 197.1446882534257 98.572344126712849 #
point $-1 -6.7365070125929485 -197.1446882534257 98.572344126712849 #
straight-curve $-1 6.7365070125929485 -197.1446882534257 0 0 0 -1 I I #
straight-curve $-1 6.7365070125929485 197.1446882534257 0 0 0 -1 I I #
edge $-1 $711 1 $711 0 $503 $-1 forward 7 unknown #
point $-1 1 0 -0.5 #
edge $-1 $712 1 $712 0 $507 $-1 forward 7 unknown #
point $-1 1 0 -0.5 #
edge $-1 $713 1 $713 0 $511 $-1 forward 7 unknown #
point $-1 1 0 -0.5 #
plane-surface $-1 5.4593688321935261 0 0 -1 0 0 0 0 1 forward_v I I I I #
coedge $-1 $520 $518 $522 $660 reversed $338 $-1 #
edge $-1 $533 -98.572344126712849 $662 98.572344126712849 $532 $714 forward 7 unknown #
vertex $-1 $660 $715 #
straight-curve $-1 -5.4593688321935261 -197.1446882534257 0 0 0 -1 I I #
edge $-1 $658 -197.1446882534257 $662 197.1446882534257 $656 $716 forward 7 unknown #
straight-curve $-1 0 -197.1446882534257 -98.572344126712849 -1 0 0 I I #
vertex $-1 $525 $717 #
straight-curve $-1 0 197.1446882534257 -98.572344126712849 1 0 0 I I #
point $-1 5.4593688321935261 197.1446882534257 -98.572344126712849 #
point $-1 5.4593688321935261 -197.1446882534257 -98.572344126712849 #
straight-curve $-1 -5.4593688321935261 0 98.572344126712849 0 -1 0 I I #
point $-1 -5.4593688321935261 197.1446882534257 98.572344126712849 #
point $-1 -5.4593688321935261 -197.1446882534257 98.572344126712849 #
straight-curve $-1 5.4593688321935261 -197.1446882534257 0 0 0 -1 I I #
straight-curve $-1 5.4593688321935261 197.1446882534257 0 0 0 -1 I I #
edge $-1 $718 1 $718 0 $542 $-1 forward 7 unknown #
point $-1 1.5 0 -0.75 #
edge $-1 $719 1 $719 0 $546 $-1 forward 7 unknown #
point $-1 1.5 0 -0.75 #
plane-surface $-1 5.4593688321935261 0 0 -1 0 0 0 0 1 forward_v I I I I #
coedge $-1 $555 $553 $557 $680 reversed $367 $-1 #
edge $-1 $568 -98.572344126712849 $682 98.572344126712849 $567 $720 forward 7 unknown #
vertex $-1 $680 $721 #
straight-curve $-1 -5.4593688321935261 -197.1446882534257 0 0 0 -1 I I #
edge $-1 $678 -197.1446882534257 $682 197.1446882534257 $676 $722 forward 7 unknown #
straight-curve $-1 0 -197.1446882534257 -98.572344126712849 -1 0 0 I I #
vertex $-1 $560 $723 #
straight-curve $-1 0 197.1446882534257 -98.572344126712849 1 0 0 I I #
point $-1 5.4593688321935261 197.1446882534257 -98.572344126712849 #
point $-1 5.4593688321935261 -197.1446882534257 -98.572344126712849 #
straight-curve $-1 -5.4593688321935261 0 98.572344126712849 0 -1 0 I I #
point $-1 -5.4593688321935261 197.1446882534257 98.572344126712849 #
point $-1 -5.4593688321935261 -197.1446882534257 98.572344126712849 #
straight-curve $-1 5.4593688321935261 -197.1446882534257 0 0 0 -1 I I #
straight-curve $-1 5.4593688321935261 197.1446882534257 0 0 0 -1 I I #
edge $-1 $724 1 $724 0 $577 $-1 forward 7 unknown #
point $-1 1.5 0 -0.75 #
edge $-1 $725 1 $725 0 $581 $-1 forward 7 unknown #
point $-1 1.5 0 -0.75 #
straight-curve $-1 -49.286172063356425 21.653005113536601 0 0 0 -1 I I #
point $-1 -49.286172063356425 -21.653005113536601 -5.0262435436283681 #
straight-curve $-1 -49.286172063356425 0 -5.0262435436283681 0 1 0 I I #
point $-1 -49.286172063356425 21.653005113536601 -5.0262435436283681 #
straight-curve $-1 -2.5071501643690883 21.653005113536601 0 0 0 -1 I I #
point $-1 -2.5071501643690883 -21.653005113536601 -1.5 #
straight-curve $-1 -2.5071501643690883 0 -1.5 0 1 0 I I #
point $-1 -2.5071501643690883 21.653005113536601 -1.5 #
straight-curve $-1 -2.5071501643690866 21.653005113536601 0 0 0 -1 I I #
point $-1 -2.5071501643690866 -21.653005113536601 -1.5 #
straight-curve $-1 -2.5071501643690866 0 -1.5 0 1 0 I I #
point $-1 -2.5071501643690866 21.653005113536601 -1.5 #
straight-curve $-1 -6.7365070125929485 197.1446882534257 0 0 0 -1 I I #
point $-1 -6.7365070125929485 -197.1446882534257 -98.572344126712849 #
straight-curve $-1 -6.7365070125929485 0 -98.572344126712849 0 1 0 I I #
point $-1 -6.7365070125929485 197.1446882534257 -98.572344126712849 #
vertex $-1 $649 $726 #
vertex $-1 $651 $727 #
vertex $-1 $653 $728 #
straight-curve $-1 -5.4593688321935261 197.1446882534257 0 0 0 -1 I I #
point $-1 -5.4593688321935261 -197.1446882534257 -98.572344126712849 #
straight-curve $-1 -5.4593688321935261 0 -98.572344126712849 0 1 0 I I #
point $-1 -5.4593688321935261 197.1446882534257 -98.572344126712849 #
vertex $-1 $671 $729 #
vertex $-1 $673 $730 #
straight-curve $-1 -5.4593688321935261 197.1446882534257 0 0 0 -1 I I #
point $-1 -5.4593688321935261 -197.1446882534257 -98.572344126712849 #
straight-curve $-1 -5.4593688321935261 0 -98.572344126712849 0 1 0 I I #
point $-1 -5.4593688321935261 197.1446882534257 -98.572344126712849 #
vertex $-1 $691 $731 #
vertex $-1 $693 $732 #
point $-1 0 0 0.5 #
point $-1 0 0 0.5 #
point $-1 0 0 0.5 #
point $-1 0 0 0.75 #
point $-1 0 0 0.75 #
point $-1 0 0 0.75 #
point $-1 0 0 0.75 #
End-of-ACIS-data 