500 0 5 0           
7 Unknown 11 ACIS 5.0 NT 24 Fri Mar 26 18:46:02 1999 
-1 9.9999999999999995e-007 1e-010 
body $-1 $5 $-1 $6 #
body $-1 $7 $-1 $8 #
body $-1 $9 $-1 $10 #
body $-1 $11 $-1 $12 #
body $-1 $13 $-1 $14 #
lump $-1 $-1 $15 $0 #
transform $-1 1 0 0 0 1 0 0 0 1 61.978209784234139 26.599730410922767 9.9332340839007003 1 rotate no_reflect no_shear #
lump $-1 $-1 $16 $1 #
transform $-1 1 0 0 0 1 0 0 0 1 61.978209784234139 26.599730410922767 9.9332340839007003 1 rotate no_reflect no_shear #
lump $-1 $-1 $17 $2 #
transform $-1 1 0 0 0 1 0 0 0 1 61.978209784234139 26.599730410922767 9.9332340839007003 1 rotate no_reflect no_shear #
lump $-1 $-1 $18 $3 #
transform $-1 1 0 0 0 1 0 0 0 1 61.978209784234139 26.599730410922767 9.9332340839007003 1 rotate no_reflect no_shear #
lump $-1 $-1 $19 $4 #
transform $-1 1 0 0 0 1 0 0 0 1 61.978209784234139 26.599730410922767 9.9332340839007003 1 rotate no_reflect no_shear #
shell $-1 $-1 $-1 $20 $-1 $5 #
shell $-1 $-1 $-1 $21 $-1 $7 #
shell $-1 $-1 $-1 $22 $-1 $9 #
shell $-1 $-1 $-1 $23 $-1 $11 #
shell $-1 $-1 $-1 $24 $-1 $13 #
face $-1 $25 $26 $15 $-1 $27 forward single #
face $-1 $28 $29 $16 $-1 $30 reversed single #
face $-1 $31 $32 $17 $-1 $33 reversed single #
face $-1 $34 $35 $18 $-1 $36 forward single #
face $-1 $37 $38 $19 $-1 $39 forward single #
face $-1 $40 $41 $15 $-1 $42 reversed single #
loop $-1 $-1 $43 $20 #
plane-surface $-1 0 0 9.9332340839007003 0 0 1 1 0 0 forward_v I I I I #
face $-1 $44 $45 $16 $-1 $46 reversed single #
loop $-1 $-1 $47 $21 #
plane-surface $-1 -57.518885829251808 0 4.7780896126227379 0 0 1 1 0 0 forward_v I I I I #
face $-1 $48 $49 $17 $-1 $50 reversed single #
loop $-1 $-1 $51 $22 #
plane-surface $-1 33.864926172374673 74.438606741397535 127.60718877024139 1 0 0 0 -0.69465837861970381 -0.71933979245794832 forward_v I I I I #
face $-1 $52 $53 $18 $-1 $54 forward single #
loop $-1 $55 $56 $23 #
cone-surface $-1 41.897292918620224 20.644476843150816 4.071891088957126 0 -0.69465837861970381 -0.71933979245794832 1.5 0 0 1 I I 0 1 1.5 forward I I I I #
face $-1 $57 $58 $19 $-1 $59 forward single #
loop $-1 $60 $61 $24 #
cone-surface $-1 53.945843037988567 20.644476843150816 4.071891088957126 0 -0.69465837861970381 -0.71933979245794832 1.5 0 0 1 I I 0 1 1.5 forward I I I I #
face $-1 $62 $63 $15 $-1 $64 reversed single #
loop $-1 $-1 $65 $25 #
plane-surface $-1 0 0 -9.9332340839007003 0 0 1 1 0 0 forward_v I I I I #
coedge $-1 $66 $67 $68 $69 forward $26 $-1 #
face $-1 $70 $71 $16 $-1 $72 reversed single #
loop $-1 $-1 $73 $28 #
plane-surface $-1 -53.059561874269477 0 7.3556618482617182 -1 0 0 0 0 1 forward_v I I I I #
coedge $-1 $74 $75 $76 $77 forward $29 $-1 #
face $-1 $78 $79 $17 $-1 $80 forward single #
loop $-1 $-1 $81 $31 #
plane-surface $-1 47.92156797830441 -11.668758695538358 38.440403644029061 0 0.69465837861970381 0.71933979245794832 1 0 0 forward_v I I I I #
coedge $-1 $82 $83 $84 $85 reversed $32 $-1 #
face $-1 $-1 $86 $18 $-1 $87 forward single #
loop $-1 $88 $89 $34 #
cone-surface $-1 41.897292918620224 18.542455259804903 1.8951840685787396 0 -0.69465837861970381 -0.71933979245794832 0.75 0 0 1 I I -0.70710678118654757 0.70710678118654757 0.75 forward I I I I #
loop $-1 $-1 $90 $23 #
coedge $-1 $56 $56 $91 $92 reversed $35 $-1 #
face $-1 $-1 $93 $19 $-1 $94 forward single #
loop $-1 $95 $96 $37 #
cone-surface $-1 53.945843037988567 18.542455259804903 1.8951840685787396 0 -0.69465837861970381 -0.71933979245794832 0.75 0 0 1 I I -0.70710678118654757 0.70710678118654757 0.75 forward I I I I #
loop $-1 $-1 $97 $24 #
coedge $-1 $61 $61 $98 $99 reversed $38 $-1 #
face $-1 $100 $101 $15 $-1 $102 reversed single #
loop $-1 $-1 $103 $40 #
plane-surface $-1 0 -26.599730410922767 0 0 1 0 0 0 1 forward_v I I I I #
coedge $-1 $104 $105 $106 $107 forward $41 $-1 #
coedge $-1 $108 $43 $109 $110 forward $26 $-1 #
coedge $-1 $43 $108 $111 $112 forward $26 $-1 #
coedge $-1 $113 $114 $43 $69 reversed $115 $-1 #
edge $-1 $116 -26.599730410922767 $117 26.599730410922767 $68 $118 forward 7 unknown #
face $-1 $119 $120 $16 $-1 $121 reversed single #
loop $-1 $-1 $122 $44 #
plane-surface $-1 0 26.599730410922767 0 0 -1 0 0 0 -1 forward_v I I I I #
coedge $-1 $76 $123 $124 $125 reversed $45 $-1 #
coedge $-1 $126 $47 $127 $128 reversed $29 $-1 #
coedge $-1 $47 $126 $129 $130 reversed $29 $-1 #
coedge $-1 $131 $73 $47 $77 reversed $45 $-1 #
edge $-1 $132 -26.599730410922767 $133 26.599730410922767 $76 $134 forward 7 unknown #
face $-1 $135 $136 $17 $-1 $137 reversed single #
loop $-1 $-1 $84 $48 #
plane-surface $-1 0 0 9.9332340839007003 0 0 1 1 0 0 forward_v I I I I #
coedge $-1 $138 $139 $140 $141 reversed $49 $-1 #
coedge $-1 $83 $51 $142 $143 reversed $32 $-1 #
coedge $-1 $51 $82 $138 $144 reversed $32 $-1 #
coedge $-1 $140 $145 $51 $85 forward $79 $-1 #
edge $-1 $146 10.619572959776001 $147 19.368024496557663 $84 $148 forward 7 unknown #
loop $-1 $-1 $91 $52 #
plane-surface $-1 47.92156797830441 -11.668758695538358 38.440403644029061 0 0.69465837861970381 0.71933979245794832 1 0 0 forward_v I I I I #
loop $-1 $-1 $149 $34 #
coedge $-1 $89 $89 $90 $150 reversed $53 $-1 #
coedge $-1 $90 $90 $89 $150 forward $55 $-1 #
coedge $-1 $91 $91 $56 $92 forward $86 $-1 #
edge $-1 $151 -2.3594839419206514e-016 $151 6.2831853071796004 $91 $152 forward 7 unknown #
loop $-1 $-1 $98 $57 #
plane-surface $-1 47.92156797830441 -11.668758695538358 38.440403644029061 0 0.69465837861970381 0.71933979245794832 1 0 0 forward_v I I I I #
loop $-1 $-1 $153 $37 #
coedge $-1 $96 $96 $97 $154 reversed $58 $-1 #
coedge $-1 $97 $97 $96 $154 forward $60 $-1 #
coedge $-1 $98 $98 $61 $99 forward $93 $-1 #
edge $-1 $155 -2.3594839419206514e-016 $155 6.2831853071796004 $98 $156 forward 7 unknown #
face $-1 $157 $158 $15 $-1 $159 reversed single #
loop $-1 $-1 $160 $62 #
plane-surface $-1 -61.978209784234139 0 0 1 0 0 0 0 -1 forward_v I I I I #
coedge $-1 $161 $111 $162 $163 forward $63 $-1 #
coedge $-1 $164 $65 $161 $165 forward $41 $-1 #
coedge $-1 $65 $164 $166 $167 forward $41 $-1 #
coedge $-1 $114 $113 $65 $107 reversed $115 $-1 #
edge $-1 $168 -26.599730410922767 $169 26.599730410922767 $106 $170 forward 7 unknown #
coedge $-1 $67 $66 $171 $172 forward $26 $-1 #
coedge $-1 $173 $174 $66 $110 reversed $158 $-1 #
edge $-1 $117 -61.978209784234139 $175 61.978209784234139 $109 $176 forward 7 unknown #
coedge $-1 $103 $177 $67 $112 reversed $63 $-1 #
edge $-1 $178 -61.978209784234139 $116 61.978209784234139 $111 $179 forward 7 unknown #
coedge $-1 $106 $68 $177 $180 forward $115 $-1 #
coedge $-1 $68 $106 $173 $181 reversed $115 $-1 #
loop $-1 $-1 $113 $157 #
vertex $-1 $69 $182 #
vertex $-1 $69 $183 #
straight-curve $-1 61.978209784234139 0 9.9332340839007003 0 1 0 I I #
face $-1 $184 $185 $16 $-1 $186 forward single #
loop $-1 $-1 $187 $70 #
plane-surface $-1 -61.978209784234139 0 0 1 0 0 0 0 -1 forward_v I I I I #
coedge $-1 $129 $188 $131 $189 forward $71 $-1 #
coedge $-1 $73 $131 $190 $191 reversed $45 $-1 #
coedge $-1 $192 $127 $73 $125 forward $193 $-1 #
edge $-1 $133 1.1002586884918788 $194 6.2554031597698394 $124 $195 forward 7 unknown #
coedge $-1 $75 $74 $187 $196 reversed $29 $-1 #
coedge $-1 $124 $197 $74 $128 forward $193 $-1 #
edge $-1 $198 -33.218766869608231 $133 -24.300118959643573 $127 $199 forward 7 unknown #
coedge $-1 $200 $122 $75 $130 forward $71 $-1 #
edge $-1 $132 24.300118959643573 $201 33.218766869608231 $129 $202 forward 7 unknown #
coedge $-1 $123 $76 $122 $189 reversed $45 $-1 #
vertex $-1 $130 $203 #
vertex $-1 $128 $204 #
straight-curve $-1 -53.059561874269477 0 4.7780896126227379 0 -1 0 I I #
face $-1 $-1 $205 $17 $-1 $206 reversed single #
loop $-1 $-1 $207 $78 #
plane-surface $-1 61.978209784234139 0 0 -1 0 0 0 0 1 forward_v I I I I #
coedge $-1 $208 $81 $83 $144 forward $49 $-1 #
coedge $-1 $81 $208 $207 $209 reversed $49 $-1 #
coedge $-1 $210 $84 $81 $141 forward $79 $-1 #
edge $-1 $147 9.9041421832224685 $211 38.017425795081941 $140 $212 forward 7 unknown #
coedge $-1 $213 $214 $82 $143 forward $205 $-1 #
edge $-1 $215 -62.318641939037313 $146 -53.870360301219996 $142 $216 forward 7 unknown #
edge $-1 $147 41.037681884399809 $215 53.199460821845534 $83 $217 forward 7 unknown #
coedge $-1 $84 $210 $213 $218 forward $79 $-1 #
vertex $-1 $143 $219 #
vertex $-1 $85 $220 #
straight-curve $-1 33.864926172374673 37.219303370698768 9.9332340839007003 0 -1 0 I I #
coedge $-1 $149 $149 $-1 $221 reversed $88 $-1 #
edge $-1 $222 0 $222 6.2831853071796004 $89 $223 forward 7 unknown #
vertex $-1 $92 $224 #
ellipse-curve $-1 41.897292918620224 22.225504642531941 5.709093264992041 0 0.69465837861970381 0.71933979245794832 1.5 0 0 1 I I #
coedge $-1 $153 $153 $-1 $225 reversed $95 $-1 #
edge $-1 $226 0 $226 6.2831853071796004 $96 $227 forward 7 unknown #
vertex $-1 $99 $228 #
ellipse-curve $-1 53.945843037988567 22.225504642531941 5.709093264992041 0 0.69465837861970381 0.71933979245794832 1.5 0 0 1 I I #
face $-1 $-1 $115 $15 $-1 $229 reversed single #
loop $-1 $-1 $173 $100 #
plane-surface $-1 0 26.599730410922767 0 0 -1 0 0 0 -1 forward_v I I I I #
coedge $-1 $230 $171 $174 $231 forward $101 $-1 #
coedge $-1 $177 $103 $104 $165 reversed $63 $-1 #
coedge $-1 $171 $230 $103 $163 reversed $101 $-1 #
edge $-1 $178 -9.9332340839007003 $232 9.9332340839007003 $162 $233 forward 7 unknown #
coedge $-1 $105 $104 $230 $234 forward $41 $-1 #
edge $-1 $169 -61.978209784234139 $232 61.978209784234139 $161 $235 forward 7 unknown #
coedge $-1 $174 $173 $105 $167 reversed $158 $-1 #
edge $-1 $236 -61.978209784234139 $168 61.978209784234139 $166 $237 forward 7 unknown #
vertex $-1 $107 $238 #
vertex $-1 $180 $239 #
straight-curve $-1 61.978209784234139 0 -9.9332340839007003 0 -1 0 I I #
coedge $-1 $160 $162 $108 $172 reversed $101 $-1 #
edge $-1 $175 -26.599730410922767 $178 26.599730410922767 $171 $240 forward 7 unknown #
coedge $-1 $166 $109 $114 $181 forward $158 $-1 #
coedge $-1 $109 $166 $160 $231 reversed $158 $-1 #
vertex $-1 $110 $241 #
straight-curve $-1 0 26.599730410922767 9.9332340839007003 -1 0 0 I I #
coedge $-1 $111 $161 $113 $180 reversed $63 $-1 #
vertex $-1 $172 $242 #
straight-curve $-1 0 -26.599730410922767 9.9332340839007003 1 0 0 I I #
edge $-1 $116 -9.9332340839007003 $169 9.9332340839007003 $113 $243 forward 7 unknown #
edge $-1 $117 -9.9332340839007003 $168 9.9332340839007003 $114 $244 forward 7 unknown #
point $-1 61.978209784234139 -26.599730410922767 9.9332340839007003 #
point $-1 61.978209784234139 26.599730410922767 9.9332340839007003 #
face $-1 $-1 $193 $16 $-1 $245 reversed single #
loop $-1 $-1 $190 $119 #
plane-surface $-1 0 0 9.9332340839007003 0 0 1 1 0 0 forward_v I I I I #
coedge $-1 $246 $247 $126 $196 forward $120 $-1 #
coedge $-1 $122 $200 $248 $249 reversed $71 $-1 #
edge $-1 $250 -6.2554031597698394 $132 -1.1002586884918788 $122 $251 forward 7 unknown #
coedge $-1 $248 $252 $123 $191 forward $185 $-1 #
edge $-1 $194 -26.599730410922767 $250 26.599730410922767 $190 $253 forward 7 unknown #
coedge $-1 $197 $124 $252 $254 reversed $193 $-1 #
loop $-1 $-1 $124 $184 #
vertex $-1 $125 $255 #
straight-curve $-1 -53.059561874269477 -26.599730410922767 3.6778309241308591 0 0 1 I I #
edge $-1 $201 -26.599730410922767 $198 26.599730410922767 $187 $256 forward 7 unknown #
coedge $-1 $127 $192 $246 $257 forward $193 $-1 #
vertex $-1 $196 $258 #
straight-curve $-1 -28.759442914625904 -26.599730410922767 4.7780896126227379 1 0 0 I I #
coedge $-1 $188 $129 $247 $259 reversed $71 $-1 #
vertex $-1 $196 $260 #
straight-curve $-1 -28.759442914625904 26.599730410922767 4.7780896126227379 -1 0 0 I I #
point $-1 -53.059561874269477 26.599730410922767 4.7780896126227379 #
point $-1 -53.059561874269477 -26.599730410922767 4.7780896126227379 #
loop $-1 $-1 $142 $135 #
plane-surface $-1 0 26.599730410922767 0 0 -1 0 0 0 -1 forward_v I I I I #
coedge $-1 $261 $262 $139 $209 forward $136 $-1 #
coedge $-1 $139 $138 $214 $263 reversed $49 $-1 #
edge $-1 $211 23.489306420830495 $264 35.651085358276219 $207 $265 forward 7 unknown #
coedge $-1 $145 $140 $262 $266 forward $79 $-1 #
vertex $-1 $266 $267 #
straight-curve $-1 23.960783989152205 17.851278874141101 9.9332340839006967 1 0 0 I I #
coedge $-1 $268 $142 $145 $218 reversed $205 $-1 #
coedge $-1 $142 $268 $208 $263 forward $205 $-1 #
vertex $-1 $143 $269 #
straight-curve $-1 33.864926172374673 26.599730410922767 63.803594385120697 0 0 1 I I #
straight-curve $-1 33.864926172374673 -11.668758695538358 38.440403644029061 0 0.71933979245794832 -0.69465837861970381 I I #
edge $-1 $270 -61.978209784234139 $146 -33.864926172374673 $213 $271 forward 7 unknown #
point $-1 33.864926172374673 26.599730410922767 9.9332340839007003 #
point $-1 33.864926172374673 17.851278874141105 9.9332340839006967 #
edge $-1 $272 1 $272 0 $149 $-1 forward 7 unknown #
vertex $-1 $150 $273 #
ellipse-curve $-1 41.897292918620224 19.06344904376968 2.4346889129222009 0 0.69465837861970381 0.71933979245794832 1.5 0 0 1 I I #
point $-1 43.397292918620224 22.225504642531952 5.7090932649920525 #
edge $-1 $274 1 $274 0 $153 $-1 forward 7 unknown #
vertex $-1 $154 $275 #
ellipse-curve $-1 53.945843037988567 19.06344904376968 2.4346889129222009 0 0.69465837861970381 0.71933979245794832 1.5 0 0 1 I I #
point $-1 55.445843037988567 22.225504642531952 5.7090932649920525 #
plane-surface $-1 61.978209784234139 0 0 -1 0 0 0 0 1 forward_v I I I I #
coedge $-1 $162 $160 $164 $234 reversed $101 $-1 #
edge $-1 $175 -9.9332340839007003 $236 9.9332340839007003 $174 $276 forward 7 unknown #
vertex $-1 $234 $277 #
straight-curve $-1 -61.978209784234139 -26.599730410922767 0 0 0 -1 I I #
edge $-1 $232 -26.599730410922767 $236 26.599730410922767 $230 $278 forward 7 unknown #
straight-curve $-1 0 -26.599730410922767 -9.9332340839007003 -1 0 0 I I #
vertex $-1 $167 $279 #
straight-curve $-1 0 26.599730410922767 -9.9332340839007003 1 0 0 I I #
point $-1 61.978209784234139 26.599730410922767 -9.9332340839007003 #
point $-1 61.978209784234139 -26.599730410922767 -9.9332340839007003 #
straight-curve $-1 -61.978209784234139 0 9.9332340839007003 0 -1 0 I I #
point $-1 -61.978209784234139 26.599730410922767 9.9332340839007003 #
point $-1 -61.978209784234139 -26.599730410922767 9.9332340839007003 #
straight-curve $-1 61.978209784234139 -26.599730410922767 0 0 0 -1 I I #
straight-curve $-1 61.978209784234139 26.599730410922767 0 0 0 -1 I I #
plane-surface $-1 0 -26.599730410922767 0 0 1 0 0 0 1 forward_v I I I I #
coedge $-1 $280 $187 $197 $257 reversed $120 $-1 #
coedge $-1 $187 $280 $200 $259 forward $120 $-1 #
coedge $-1 $281 $190 $188 $249 forward $185 $-1 #
edge $-1 $250 53.059561874269477 $282 61.978209784234139 $188 $283 forward 7 unknown #
vertex $-1 $249 $284 #
straight-curve $-1 -53.059561874269477 26.599730410922767 3.6778309241308591 0 0 -1 I I #
coedge $-1 $190 $281 $192 $254 forward $185 $-1 #
straight-curve $-1 -53.059561874269477 0 9.9332340839007003 0 1 0 I I #
edge $-1 $285 -61.978209784234139 $194 -53.059561874269477 $192 $286 forward 7 unknown #
point $-1 -53.059561874269477 -26.599730410922767 9.9332340839006985 #
straight-curve $-1 -61.978209784234139 0 4.7780896126227379 0 -1 0 I I #
edge $-1 $285 -9.9332340839007003 $198 -4.7780896126227379 $246 $287 forward 7 unknown #
point $-1 -61.978209784234139 -26.599730410922767 4.7780896126227379 #
edge $-1 $282 -9.9332340839007003 $201 -4.7780896126227379 $200 $288 forward 7 unknown #
point $-1 -61.978209784234139 26.599730410922767 4.7780896126227379 #
coedge $-1 $262 $207 $268 $289 reversed $136 $-1 #
coedge $-1 $207 $261 $210 $266 reversed $136 $-1 #
edge $-1 $264 -38.017425795081941 $215 -9.9041421832224685 $214 $290 forward 7 unknown #
vertex $-1 $209 $291 #
straight-curve $-1 61.978209784234139 0.9544860683997447 26.250277597096208 0 0.71933979245794832 -0.69465837861970381 I I #
edge $-1 $211 17.851278874141105 $270 26.599730410922767 $262 $292 forward 7 unknown #
point $-1 61.978209784234146 17.851278874141105 9.9332340839006967 #
coedge $-1 $214 $213 $261 $289 forward $205 $-1 #
point $-1 33.864926172374673 26.599730410922767 1.4849524460833834 #
vertex $-1 $266 $293 #
straight-curve $-1 0 26.599730410922767 9.9332340839007003 -1 0 0 I I #
vertex $-1 $221 $294 #
point $-1 43.397292918620224 19.06344904376968 2.4346889129222009 #
vertex $-1 $225 $295 #
point $-1 55.445843037988567 19.06344904376968 2.4346889129222009 #
straight-curve $-1 -61.978209784234139 26.599730410922767 0 0 0 -1 I I #
point $-1 -61.978209784234139 -26.599730410922767 -9.9332340839007003 #
straight-curve $-1 -61.978209784234139 0 -9.9332340839007003 0 1 0 I I #
point $-1 -61.978209784234139 26.599730410922767 -9.9332340839007003 #
coedge $-1 $247 $246 $281 $296 reversed $120 $-1 #
coedge $-1 $252 $248 $280 $296 forward $185 $-1 #
vertex $-1 $249 $297 #
straight-curve $-1 0 26.599730410922767 9.9332340839007003 -1 0 0 I I #
point $-1 -53.059561874269477 26.599730410922767 9.9332340839006985 #
vertex $-1 $296 $298 #
straight-curve $-1 0 -26.599730410922767 9.9332340839007003 1 0 0 I I #
straight-curve $-1 -61.978209784234139 -26.599730410922767 0 0 0 -1 I I #
straight-curve $-1 -61.978209784234139 26.599730410922767 0 0 0 -1 I I #
edge $-1 $270 -9.9332340839007003 $264 -1.4849524460833834 $261 $299 forward 7 unknown #
straight-curve $-1 23.960783989152205 26.599730410922763 1.4849524460833834 -1 0 0 I I #
point $-1 61.978209784234146 26.599730410922767 1.4849524460833834 #
straight-curve $-1 61.978209784234139 0 9.9332340839007003 0 1 0 I I #
point $-1 61.978209784234139 26.599730410922767 9.9332340839007003 #
point $-1 41.897292918620224 18.021461475840127 1.3556792242352782 #
point $-1 53.945843037988567 18.021461475840127 1.3556792242352782 #
edge $-1 $282 -26.599730410922767 $285 26.599730410922767 $280 $300 forward 7 unknown #
point $-1 -61.978209784234139 26.599730410922767 9.9332340839007003 #
point $-1 -61.978209784234139 -26.599730410922767 9.9332340839007003 #
straight-curve $-1 61.978209784234139 26.599730410922767 0 0 0 -1 I I #
straight-curve $-1 -61.978209784234139 0 9.9332340839007003 0 -1 0 I I #
End-of-ACIS-data 