500 0 6 0           
7 Unknown 11 ACIS 5.0 NT 24 Fri Mar 26 15:17:34 1999 
-1 9.9999999999999995e-007 1e-010 
body $-1 $6 $-1 $7 #
body $-1 $8 $-1 $9 #
body $-1 $10 $-1 $11 #
body $-1 $12 $-1 $13 #
body $-1 $14 $-1 $15 #
body $-1 $16 $-1 $17 #
lump $-1 $-1 $18 $0 #
transform $-1 1 0 0 0 1 0 0 0 1 57.256385998107852 25.976544518810734 8.2740134125301612 1 rotate no_reflect no_shear #
lump $-1 $-1 $19 $1 #
transform $-1 1 0 0 0 1 0 0 0 1 57.256385998107852 25.976544518810734 8.2740134125301612 1 rotate no_reflect no_shear #
lump $-1 $-1 $20 $2 #
transform $-1 1 0 0 0 1 0 0 0 1 57.256385998107852 25.976544518810734 8.2740134125301612 1 rotate no_reflect no_shear #
lump $-1 $-1 $21 $3 #
transform $-1 1 0 0 0 1 0 0 0 1 57.256385998107852 25.976544518810734 8.2740134125301612 1 rotate no_reflect no_shear #
lump $-1 $-1 $22 $4 #
transform $-1 1 0 0 0 1 0 0 0 1 57.256385998107852 25.976544518810734 8.2740134125301612 1 rotate no_reflect no_shear #
lump $-1 $-1 $23 $5 #
transform $-1 1 0 0 0 1 0 0 0 1 57.256385998107852 25.976544518810734 8.2740134125301612 1 rotate no_reflect no_shear #
shell $-1 $-1 $-1 $24 $-1 $6 #
shell $-1 $-1 $-1 $25 $-1 $8 #
shell $-1 $-1 $-1 $26 $-1 $10 #
shell $-1 $-1 $-1 $27 $-1 $12 #
shell $-1 $-1 $-1 $28 $-1 $14 #
shell $-1 $-1 $-1 $29 $-1 $16 #
face $-1 $30 $31 $18 $-1 $32 forward single #
face $-1 $33 $34 $19 $-1 $35 forward single #
face $-1 $36 $37 $20 $-1 $38 reversed single #
face $-1 $39 $40 $21 $-1 $41 forward single #
face $-1 $42 $43 $22 $-1 $44 forward single #
face $-1 $45 $46 $23 $-1 $47 forward single #
face $-1 $48 $49 $18 $-1 $50 reversed single #
loop $-1 $-1 $51 $24 #
plane-surface $-1 0 0 8.2740134125301612 0 0 1 1 0 0 forward_v I I I I #
face $-1 $52 $53 $19 $-1 $54 reversed single #
loop $-1 $-1 $55 $25 #
plane-surface $-1 -57.256385998107852 0 0 1 0 0 0 0 -1 forward_v I I I I #
face $-1 $56 $57 $20 $-1 $58 reversed single #
loop $-1 $-1 $59 $26 #
plane-surface $-1 50.848491269864589 -25.976544518810726 4.251627072725114 0 -0.52991927123019833 0.84804809178421925 1 0 0 forward_v I I I I #
face $-1 $60 $61 $21 $-1 $62 forward single #
loop $-1 $63 $64 $27 #
cone-surface $-1 47.003754432918633 -21.823661999233398 4.7676265924762102 0 0.52991927123019833 -0.84804809178421925 1 0 0 1 I I 0 1 1 forward I I I I #
face $-1 $65 $66 $22 $-1 $67 forward single #
loop $-1 $68 $69 $28 #
cone-surface $-1 50.848491269864589 -21.823661999233398 4.7676265924762102 0 0.52991927123019833 -0.84804809178421925 1 0 0 1 I I 0 1 1 forward I I I I #
face $-1 $70 $71 $23 $-1 $72 forward single #
loop $-1 $73 $74 $29 #
cone-surface $-1 54.693228106810544 -21.823661999233398 4.7676265924762102 0 0.52991927123019833 -0.84804809178421925 1 0 0 1 I I 0 1 1 forward I I I I #
face $-1 $75 $76 $18 $-1 $77 reversed single #
loop $-1 $-1 $78 $30 #
plane-surface $-1 0 0 -8.2740134125301612 0 0 1 1 0 0 forward_v I I I I #
coedge $-1 $79 $80 $81 $82 forward $31 $-1 #
face $-1 $83 $84 $19 $-1 $85 reversed single #
loop $-1 $-1 $86 $33 #
plane-surface $-1 0 0 -8.2740134125301612 0 0 1 1 0 0 forward_v I I I I #
coedge $-1 $87 $88 $89 $90 forward $34 $-1 #
face $-1 $91 $92 $20 $-1 $93 reversed single #
loop $-1 $-1 $94 $36 #
plane-surface $-1 44.440596541621325 -86.659069201595216 101.36396484903722 1 0 0 0 0.52991927123019833 -0.84804809178421925 forward_v I I I I #
coedge $-1 $95 $96 $97 $98 reversed $37 $-1 #
face $-1 $-1 $99 $21 $-1 $100 forward single #
loop $-1 $101 $102 $39 #
cone-surface $-1 47.003754432918633 -20.624401659315939 2.8484088964326677 0 0.52991927123019833 -0.84804809178421925 0.5 0 0 1 I I -0.70710678118654724 0.70710678118654791 0.5 forward I I I I #
loop $-1 $-1 $103 $27 #
coedge $-1 $64 $64 $104 $105 reversed $40 $-1 #
face $-1 $-1 $106 $22 $-1 $107 forward single #
loop $-1 $108 $109 $42 #
cone-surface $-1 50.848491269864589 -20.624401659315939 2.8484088964326677 0 0.52991927123019833 -0.84804809178421925 0.5 0 0 1 I I -0.70710678118654724 0.70710678118654791 0.5 forward I I I I #
loop $-1 $-1 $110 $28 #
coedge $-1 $69 $69 $111 $112 reversed $43 $-1 #
face $-1 $-1 $113 $23 $-1 $114 forward single #
loop $-1 $115 $116 $45 #
cone-surface $-1 54.693228106810544 -20.624401659315939 2.8484088964326677 0 0.52991927123019833 -0.84804809178421925 0.5 0 0 1 I I -0.70710678118654724 0.70710678118654791 0.5 forward I I I I #
loop $-1 $-1 $117 $29 #
coedge $-1 $74 $74 $118 $119 reversed $46 $-1 #
face $-1 $120 $121 $18 $-1 $122 reversed single #
loop $-1 $-1 $123 $48 #
plane-surface $-1 0 -25.976544518810734 0 0 1 0 0 0 1 forward_v I I I I #
coedge $-1 $124 $125 $126 $127 forward $49 $-1 #
coedge $-1 $128 $51 $129 $130 forward $31 $-1 #
coedge $-1 $51 $128 $131 $132 forward $31 $-1 #
coedge $-1 $133 $134 $51 $82 reversed $135 $-1 #
edge $-1 $136 -25.976544518810734 $137 25.976544518810734 $81 $138 forward 7 unknown #
face $-1 $139 $140 $19 $-1 $141 reversed single #
loop $-1 $-1 $142 $52 #
plane-surface $-1 -60.745266283084945 -25.476544518810734 0 0 1 0 0 0 1 forward_v I I I I #
coedge $-1 $143 $144 $88 $145 forward $53 $-1 #
coedge $-1 $146 $55 $147 $148 reversed $34 $-1 #
coedge $-1 $55 $146 $86 $145 reversed $34 $-1 #
coedge $-1 $149 $150 $55 $90 reversed $151 $-1 #
edge $-1 $152 -8.2740134125301612 $153 8.2740134125301612 $89 $154 forward 7 unknown #
face $-1 $155 $156 $20 $-1 $157 forward single #
loop $-1 $-1 $158 $56 #
plane-surface $-1 0 -25.976544518810734 0 0 1 0 0 0 1 forward_v I I I I #
coedge $-1 $159 $160 $161 $162 reversed $57 $-1 #
coedge $-1 $163 $59 $164 $165 reversed $37 $-1 #
coedge $-1 $59 $163 $159 $166 forward $37 $-1 #
coedge $-1 $161 $167 $59 $98 forward $156 $-1 #
edge $-1 $168 -31.832140363175558 $169 -19.016350906689031 $97 $170 forward 7 unknown #
loop $-1 $-1 $104 $60 #
plane-surface $-1 50.848491269864589 -25.976544518810726 4.251627072725114 0 -0.52991927123019833 0.84804809178421925 1 0 0 forward_v I I I I #
loop $-1 $-1 $171 $39 #
coedge $-1 $102 $102 $103 $172 reversed $61 $-1 #
coedge $-1 $103 $103 $102 $172 forward $63 $-1 #
coedge $-1 $104 $104 $64 $105 forward $99 $-1 #
edge $-1 $173 5.6353594053339759e-016 $173 6.2831853071796013 $104 $174 forward 7 unknown #
loop $-1 $-1 $111 $65 #
plane-surface $-1 50.848491269864589 -25.976544518810726 4.251627072725114 0 -0.52991927123019833 0.84804809178421925 1 0 0 forward_v I I I I #
loop $-1 $-1 $175 $42 #
coedge $-1 $109 $109 $110 $176 reversed $66 $-1 #
coedge $-1 $110 $110 $109 $176 forward $68 $-1 #
coedge $-1 $111 $111 $69 $112 forward $106 $-1 #
edge $-1 $177 5.6353594053339759e-016 $177 6.2831853071796013 $111 $178 forward 7 unknown #
loop $-1 $-1 $118 $70 #
plane-surface $-1 50.848491269864589 -25.976544518810726 4.251627072725114 0 -0.52991927123019833 0.84804809178421925 1 0 0 forward_v I I I I #
loop $-1 $-1 $179 $45 #
coedge $-1 $116 $116 $117 $180 reversed $71 $-1 #
coedge $-1 $117 $117 $116 $180 forward $73 $-1 #
coedge $-1 $118 $118 $74 $119 forward $113 $-1 #
edge $-1 $181 5.6353594053339759e-016 $181 6.2831853071796013 $118 $182 forward 7 unknown #
face $-1 $183 $184 $18 $-1 $185 reversed single #
loop $-1 $-1 $186 $75 #
plane-surface $-1 -57.256385998107852 0 0 1 0 0 0 0 -1 forward_v I I I I #
coedge $-1 $187 $131 $188 $189 forward $76 $-1 #
coedge $-1 $190 $78 $187 $191 forward $49 $-1 #
coedge $-1 $78 $190 $192 $193 forward $49 $-1 #
coedge $-1 $134 $133 $78 $127 reversed $135 $-1 #
edge $-1 $194 -25.976544518810734 $195 25.976544518810734 $126 $196 forward 7 unknown #
coedge $-1 $80 $79 $197 $198 forward $31 $-1 #
coedge $-1 $199 $200 $79 $130 reversed $184 $-1 #
edge $-1 $137 -57.256385998107852 $201 57.256385998107852 $129 $202 forward 7 unknown #
coedge $-1 $123 $203 $80 $132 reversed $76 $-1 #
edge $-1 $204 -57.256385998107852 $136 57.256385998107852 $131 $205 forward 7 unknown #
coedge $-1 $126 $81 $203 $206 forward $135 $-1 #
coedge $-1 $81 $126 $199 $207 reversed $135 $-1 #
loop $-1 $-1 $133 $183 #
vertex $-1 $82 $208 #
vertex $-1 $82 $209 #
straight-curve $-1 57.256385998107852 0 8.2740134125301612 0 1 0 I I #
face $-1 $210 $151 $19 $-1 $211 reversed single #
loop $-1 $-1 $212 $83 #
plane-surface $-1 -64.23414656806203 -23.347097742810242 0 1 0 0 0 0 -1 forward_v I I I I #
coedge $-1 $213 $214 $215 $216 forward $84 $-1 #
coedge $-1 $217 $86 $213 $218 forward $53 $-1 #
coedge $-1 $86 $217 $149 $219 forward $53 $-1 #
edge $-1 $152 21.217650966809749 $220 25.476544518810734 $86 $221 forward 7 unknown #
coedge $-1 $88 $87 $222 $223 forward $34 $-1 #
coedge $-1 $224 $225 $87 $148 forward $226 $-1 #
edge $-1 $227 -25.476544518810734 $153 -21.217650966809749 $147 $228 forward 7 unknown #
coedge $-1 $229 $89 $144 $219 reversed $151 $-1 #
coedge $-1 $89 $229 $224 $230 reversed $151 $-1 #
loop $-1 $-1 $89 $139 #
vertex $-1 $145 $231 #
vertex $-1 $230 $232 #
straight-curve $-1 -57.256385998107852 -21.217650966809749 0 0 0 1 I I #
face $-1 $-1 $233 $20 $-1 $234 reversed single #
loop $-1 $-1 $161 $91 #
plane-surface $-1 0 0 8.2740134125301612 0 0 1 1 0 0 forward_v I I I I #
coedge $-1 $235 $236 $160 $237 forward $92 $-1 #
coedge $-1 $160 $94 $96 $166 reversed $57 $-1 #
coedge $-1 $94 $159 $158 $237 reversed $57 $-1 #
coedge $-1 $238 $97 $94 $162 forward $156 $-1 #
edge $-1 $169 -23.790153712536856 $239 -17.352990081986874 $161 $240 forward 7 unknown #
coedge $-1 $96 $95 $235 $241 reversed $37 $-1 #
coedge $-1 $242 $243 $95 $165 forward $233 $-1 #
edge $-1 $244 -9.8881699452020992 $168 -2.2976055740156127 $164 $245 forward 7 unknown #
edge $-1 $246 -8.3790584163743152e-015 $169 7.5905643711864794 $159 $247 forward 7 unknown #
coedge $-1 $97 $238 $242 $248 forward $156 $-1 #
vertex $-1 $165 $249 #
vertex $-1 $98 $250 #
straight-curve $-1 25.424245634932294 -19.539380888260752 8.2740134125301612 -1 0 0 I I #
coedge $-1 $171 $171 $-1 $251 reversed $101 $-1 #
edge $-1 $252 0 $252 6.2831853071796004 $102 $253 forward 7 unknown #
vertex $-1 $105 $254 #
ellipse-curve $-1 47.003754432918633 -22.75796270353575 6.2628202426276314 0 -0.52991927123019833 0.84804809178421925 1 0 0 1 I I #
coedge $-1 $175 $175 $-1 $255 reversed $108 $-1 #
edge $-1 $256 0 $256 6.2831853071796004 $109 $257 forward 7 unknown #
vertex $-1 $112 $258 #
ellipse-curve $-1 50.848491269864589 -22.75796270353575 6.2628202426276314 0 -0.52991927123019833 0.84804809178421925 1 0 0 1 I I #
coedge $-1 $179 $179 $-1 $259 reversed $115 $-1 #
edge $-1 $260 0 $260 6.2831853071796004 $116 $261 forward 7 unknown #
vertex $-1 $119 $262 #
ellipse-curve $-1 54.693228106810544 -22.75796270353575 6.2628202426276314 0 -0.52991927123019833 0.84804809178421925 1 0 0 1 I I #
face $-1 $-1 $135 $18 $-1 $263 reversed single #
loop $-1 $-1 $199 $120 #
plane-surface $-1 0 25.976544518810734 0 0 -1 0 0 0 -1 forward_v I I I I #
coedge $-1 $264 $197 $200 $265 forward $121 $-1 #
coedge $-1 $203 $123 $124 $191 reversed $76 $-1 #
coedge $-1 $197 $264 $123 $189 reversed $121 $-1 #
edge $-1 $204 -8.2740134125301612 $266 8.2740134125301612 $188 $267 forward 7 unknown #
coedge $-1 $125 $124 $264 $268 forward $49 $-1 #
edge $-1 $195 -57.256385998107852 $266 57.256385998107852 $187 $269 forward 7 unknown #
coedge $-1 $200 $199 $125 $193 reversed $184 $-1 #
edge $-1 $270 -57.256385998107852 $194 57.256385998107852 $192 $271 forward 7 unknown #
vertex $-1 $127 $272 #
vertex $-1 $206 $273 #
straight-curve $-1 57.256385998107852 0 -8.2740134125301612 0 -1 0 I I #
coedge $-1 $186 $188 $128 $198 reversed $121 $-1 #
edge $-1 $201 -25.976544518810734 $204 25.976544518810734 $197 $274 forward 7 unknown #
coedge $-1 $192 $129 $134 $207 forward $184 $-1 #
coedge $-1 $129 $192 $186 $265 reversed $184 $-1 #
vertex $-1 $130 $275 #
straight-curve $-1 0 25.976544518810734 8.2740134125301612 -1 0 0 I I #
coedge $-1 $131 $187 $133 $206 reversed $76 $-1 #
vertex $-1 $198 $276 #
straight-curve $-1 0 -25.976544518810734 8.2740134125301612 1 0 0 I I #
edge $-1 $136 -8.2740134125301612 $195 8.2740134125301612 $133 $277 forward 7 unknown #
edge $-1 $137 -8.2740134125301612 $194 8.2740134125301612 $134 $278 forward 7 unknown #
point $-1 57.256385998107852 -25.976544518810734 8.2740134125301612 #
point $-1 57.256385998107852 25.976544518810734 8.2740134125301612 #
face $-1 $-1 $226 $19 $-1 $279 forward single #
plane-surface $-1 -60.745266283084945 -21.217650966809749 0 0 -1 0 0 0 -1 forward_v I I I I #
coedge $-1 $280 $281 $229 $282 forward $140 $-1 #
coedge $-1 $222 $142 $143 $218 reversed $84 $-1 #
coedge $-1 $142 $222 $225 $283 reversed $84 $-1 #
coedge $-1 $281 $280 $142 $216 reversed $140 $-1 #
edge $-1 $284 -8.2740134125301612 $285 8.2740134125301612 $215 $286 forward 7 unknown #
coedge $-1 $144 $143 $280 $287 forward $53 $-1 #
edge $-1 $220 -3.4888802849770926 $285 3.4888802849770855 $213 $288 forward 7 unknown #
edge $-1 $289 -3.4888802849770855 $152 3.4888802849770926 $149 $290 forward 7 unknown #
vertex $-1 $218 $291 #
straight-curve $-1 -57.256385998107852 0 -8.2740134125301612 0 -1 0 I I #
coedge $-1 $214 $213 $146 $223 reversed $84 $-1 #
edge $-1 $227 -8.2740134125301612 $220 8.2740134125301612 $222 $292 forward 7 unknown #
coedge $-1 $293 $147 $150 $230 forward $226 $-1 #
coedge $-1 $147 $293 $214 $283 forward $226 $-1 #
loop $-1 $-1 $147 $210 #
vertex $-1 $148 $294 #
straight-curve $-1 -57.256385998107852 0 8.2740134125301612 0 1 0 I I #
coedge $-1 $150 $149 $212 $282 reversed $151 $-1 #
edge $-1 $153 -3.4888802849770926 $295 3.4888802849770855 $150 $296 forward 7 unknown #
point $-1 -57.256385998107852 -21.217650966809749 -8.2740134125301612 #
point $-1 -57.256385998107852 -21.217650966809749 8.2740134125301612 #
loop $-1 $-1 $164 $155 #
plane-surface $-1 57.256385998107852 0 0 -1 0 0 0 0 1 forward_v I I I I #
coedge $-1 $297 $158 $163 $241 forward $92 $-1 #
coedge $-1 $158 $297 $238 $298 reversed $92 $-1 #
edge $-1 $239 42.407969011988449 $246 46.430355351793501 $158 $299 forward 7 unknown #
coedge $-1 $167 $161 $236 $298 forward $156 $-1 #
vertex $-1 $298 $300 #
straight-curve $-1 44.440596541621325 -43.329534600797608 8.2740134125301594 0 -1 0 I I #
edge $-1 $246 19.016350906689031 $244 31.832140363175558 $235 $301 forward 7 unknown #
coedge $-1 $243 $164 $167 $248 reversed $233 $-1 #
coedge $-1 $164 $242 $297 $302 forward $233 $-1 #
vertex $-1 $241 $303 #
straight-curve $-1 57.256385998107852 -17.590900865544025 9.491558883886956 0 0.84804809178421925 0.52991927123019833 I I #
vertex $-1 $241 $304 #
straight-curve $-1 44.440596541621325 -25.976544518810726 4.251627072725114 0 0.84804809178421925 0.52991927123019833 I I #
edge $-1 $305 -25.976544518810734 $168 -19.539380888260752 $242 $306 forward 7 unknown #
point $-1 57.256385998107852 -19.539380888260752 8.2740134125301612 #
point $-1 44.440596541621325 -19.539380888260752 8.2740134125301612 #
edge $-1 $307 1 $307 0 $171 $-1 forward 7 unknown #
vertex $-1 $172 $308 #
ellipse-curve $-1 47.003754432918633 -20.889361294931039 3.2724329423247775 0 -0.52991927123019833 0.84804809178421925 1 0 0 1 I I #
point $-1 48.003754432918633 -22.757962703535757 6.2628202426276438 #
edge $-1 $309 1 $309 0 $175 $-1 forward 7 unknown #
vertex $-1 $176 $310 #
ellipse-curve $-1 50.848491269864589 -20.889361294931039 3.2724329423247775 0 -0.52991927123019833 0.84804809178421925 1 0 0 1 I I #
point $-1 51.848491269864589 -22.757962703535757 6.2628202426276438 #
edge $-1 $311 1 $311 0 $179 $-1 forward 7 unknown #
vertex $-1 $180 $312 #
ellipse-curve $-1 54.693228106810544 -20.889361294931039 3.2724329423247775 0 -0.52991927123019833 0.84804809178421925 1 0 0 1 I I #
point $-1 55.693228106810544 -22.757962703535757 6.2628202426276438 #
plane-surface $-1 57.256385998107852 0 0 -1 0 0 0 0 1 forward_v I I I I #
coedge $-1 $188 $186 $190 $268 reversed $121 $-1 #
edge $-1 $201 -8.2740134125301612 $270 8.2740134125301612 $200 $313 forward 7 unknown #
vertex $-1 $268 $314 #
straight-curve $-1 -57.256385998107852 -25.976544518810734 0 0 0 -1 I I #
edge $-1 $266 -25.976544518810734 $270 25.976544518810734 $264 $315 forward 7 unknown #
straight-curve $-1 0 -25.976544518810734 -8.2740134125301612 -1 0 0 I I #
vertex $-1 $193 $316 #
straight-curve $-1 0 25.976544518810734 -8.2740134125301612 1 0 0 I I #
point $-1 57.256385998107852 25.976544518810734 -8.2740134125301612 #
point $-1 57.256385998107852 -25.976544518810734 -8.2740134125301612 #
straight-curve $-1 -57.256385998107852 0 8.2740134125301612 0 -1 0 I I #
point $-1 -57.256385998107852 25.976544518810734 8.2740134125301612 #
point $-1 -57.256385998107852 -25.976544518810734 8.2740134125301612 #
straight-curve $-1 57.256385998107852 -25.976544518810734 0 0 0 -1 I I #
straight-curve $-1 57.256385998107852 25.976544518810734 0 0 0 -1 I I #
plane-surface $-1 0 0 8.2740134125301612 0 0 1 1 0 0 forward_v I I I I #
coedge $-1 $215 $212 $217 $287 reversed $140 $-1 #
coedge $-1 $212 $215 $293 $317 reversed $140 $-1 #
edge $-1 $295 -8.2740134125301612 $289 8.2740134125301612 $229 $318 forward 7 unknown #
edge $-1 $284 -3.4888802849770855 $227 3.4888802849770926 $214 $319 forward 7 unknown #
vertex $-1 $317 $320 #
vertex $-1 $287 $321 #
straight-curve $-1 -64.23414656806203 -25.476544518810734 0 0 0 -1 I I #
edge $-1 $285 -2.129446776000492 $289 2.129446776000492 $280 $322 forward 7 unknown #
straight-curve $-1 -60.745266283084945 -25.476544518810734 -8.2740134125301612 -1 0 0 I I #
vertex $-1 $219 $323 #
straight-curve $-1 -60.745266283084945 -21.217650966809749 -8.2740134125301612 1 0 0 I I #
point $-1 -57.256385998107852 -25.476544518810734 -8.2740134125301612 #
straight-curve $-1 -57.256385998107852 -25.476544518810734 0 0 0 -1 I I #
coedge $-1 $225 $224 $281 $317 forward $226 $-1 #
point $-1 -57.256385998107852 -25.476544518810734 8.2740134125301612 #
vertex $-1 $230 $324 #
straight-curve $-1 -60.745266283084945 -21.217650966809749 8.2740134125301612 -1 0 0 I I #
coedge $-1 $236 $235 $243 $302 reversed $92 $-1 #
edge $-1 $239 44.440596541621325 $305 57.256385998107852 $236 $325 forward 7 unknown #
straight-curve $-1 44.440596541621325 -25.976544518810734 50.681982424518608 0 0 -1 I I #
point $-1 44.440596541621325 -25.976544518810734 8.2740134125301612 #
straight-curve $-1 25.424245634932294 -25.976544518810734 4.2516270727251095 1 0 0 I I #
edge $-1 $305 -8.2740134125301612 $244 -4.2516270727251095 $243 $326 forward 7 unknown #
point $-1 57.256385998107852 -25.976544518810734 4.2516270727251095 #
point $-1 44.440596541621325 -25.976544518810734 4.2516270727251095 #
vertex $-1 $248 $327 #
straight-curve $-1 57.256385998107852 0 8.2740134125301612 0 1 0 I I #
vertex $-1 $251 $328 #
point $-1 48.003754432918633 -20.889361294931039 3.2724329423247775 #
vertex $-1 $255 $329 #
point $-1 51.848491269864589 -20.889361294931039 3.2724329423247775 #
vertex $-1 $259 $330 #
point $-1 55.693228106810544 -20.889361294931039 3.2724329423247775 #
straight-curve $-1 -57.256385998107852 25.976544518810734 0 0 0 -1 I I #
point $-1 -57.256385998107852 -25.976544518810734 -8.2740134125301612 #
straight-curve $-1 -57.256385998107852 0 -8.2740134125301612 0 1 0 I I #
point $-1 -57.256385998107852 25.976544518810734 -8.2740134125301612 #
edge $-1 $295 -2.129446776000492 $284 2.129446776000492 $281 $331 forward 7 unknown #
straight-curve $-1 -64.23414656806203 -21.217650966809749 0 0 0 -1 I I #
straight-curve $-1 -60.745266283084945 -25.476544518810734 8.2740134125301612 1 0 0 I I #
point $-1 -64.23414656806203 -25.476544518810734 8.2740134125301612 #
point $-1 -64.23414656806203 -25.476544518810734 -8.2740134125301612 #
straight-curve $-1 -64.23414656806203 -23.347097742810242 -8.2740134125301612 0 1 0 I I #
point $-1 -64.23414656806203 -21.217650966809749 -8.2740134125301612 #
point $-1 -64.23414656806203 -21.217650966809749 8.2740134125301612 #
straight-curve $-1 0 -25.976544518810734 8.2740134125301612 1 0 0 I I #
straight-curve $-1 57.256385998107852 -25.976544518810734 0 0 0 -1 I I #
point $-1 57.256385998107852 -25.976544518810734 8.2740134125301612 #
point $-1 47.003754432918633 -20.35944202370084 2.4243848505405579 #
point $-1 50.848491269864589 -20.35944202370084 2.4243848505405579 #
point $-1 54.693228106810544 -20.35944202370084 2.4243848505405579 #
straight-curve $-1 -64.23414656806203 -23.347097742810242 8.2740134125301612 0 -1 0 I I #
End-of-ACIS-data 