500 0 11 0           
7 Unknown 11 ACIS 5.0 NT 24 Thu Mar 25 15:49:10 1999 
-1 9.9999999999999995e-007 1e-010 
body $-1 $11 $-1 $12 #
body $-1 $13 $-1 $14 #
body $-1 $15 $-1 $16 #
body $-1 $17 $-1 $18 #
body $-1 $19 $-1 $20 #
body $-1 $21 $-1 $22 #
body $-1 $23 $-1 $24 #
body $-1 $25 $-1 $26 #
body $-1 $27 $-1 $28 #
body $-1 $29 $-1 $30 #
body $-1 $31 $-1 $32 #
lump $-1 $-1 $33 $0 #
transform $-1 1 0 0 0 1 0 0 0 1 73.571581163975949 43.856224527279274 11.451845707581009 1 rotate no_reflect no_shear #
lump $-1 $-1 $34 $1 #
transform $-1 1 0 0 0 1 0 0 0 1 73.571581163975949 43.856224527279274 11.451845707581009 1 rotate no_reflect no_shear #
lump $-1 $-1 $35 $2 #
transform $-1 1 0 0 0 1 0 0 0 1 73.571581163975949 43.856224527279274 11.451845707581009 1 rotate no_reflect no_shear #
lump $-1 $-1 $36 $3 #
transform $-1 1 0 0 0 1 0 0 0 1 73.571581163975949 43.856224527279274 11.451845707581009 1 rotate no_reflect no_shear #
lump $-1 $-1 $37 $4 #
transform $-1 1 0 0 0 1 0 0 0 1 73.571581163975949 43.856224527279274 11.451845707581009 1 rotate no_reflect no_shear #
lump $-1 $-1 $38 $5 #
transform $-1 1 0 0 0 1 0 0 0 1 73.571581163975949 43.856224527279274 11.451845707581009 1 rotate no_reflect no_shear #
lump $-1 $-1 $39 $6 #
transform $-1 1 0 0 0 1 0 0 0 1 73.571581163975949 43.856224527279274 11.451845707581009 1 rotate no_reflect no_shear #
lump $-1 $-1 $40 $7 #
transform $-1 1 0 0 0 1 0 0 0 1 73.571581163975949 43.856224527279274 11.451845707581009 1 rotate no_reflect no_shear #
lump $-1 $-1 $41 $8 #
transform $-1 1 0 0 0 1 0 0 0 1 73.571581163975949 43.856224527279274 11.451845707581009 1 rotate no_reflect no_shear #
lump $-1 $-1 $42 $9 #
transform $-1 1 0 0 0 1 0 0 0 1 73.571581163975949 43.856224527279274 11.451845707581009 1 rotate no_reflect no_shear #
lump $-1 $-1 $43 $10 #
transform $-1 1 0 0 0 1 0 0 0 1 73.571581163975949 43.856224527279274 11.451845707581009 1 rotate no_reflect no_shear #
shell $-1 $-1 $-1 $44 $-1 $11 #
shell $-1 $-1 $-1 $45 $-1 $13 #
shell $-1 $-1 $-1 $46 $-1 $15 #
shell $-1 $-1 $-1 $47 $-1 $17 #
shell $-1 $-1 $-1 $48 $-1 $19 #
shell $-1 $-1 $-1 $49 $-1 $21 #
shell $-1 $-1 $-1 $50 $-1 $23 #
shell $-1 $-1 $-1 $51 $-1 $25 #
shell $-1 $-1 $-1 $52 $-1 $27 #
shell $-1 $-1 $-1 $53 $-1 $29 #
shell $-1 $-1 $-1 $54 $-1 $31 #
face $-1 $55 $56 $33 $-1 $57 forward single #
face $-1 $58 $59 $34 $-1 $60 forward single #
face $-1 $61 $62 $35 $-1 $63 forward single #
face $-1 $64 $65 $36 $-1 $66 reversed single #
face $-1 $67 $68 $37 $-1 $69 forward single #
face $-1 $70 $71 $38 $-1 $72 reversed single #
face $-1 $73 $74 $39 $-1 $75 forward single #
face $-1 $76 $77 $40 $-1 $78 reversed single #
face $-1 $79 $80 $41 $-1 $81 forward single #
face $-1 $82 $83 $42 $-1 $84 reversed single #
face $-1 $85 $86 $43 $-1 $87 forward single #
face $-1 $88 $89 $33 $-1 $90 reversed single #
loop $-1 $-1 $91 $44 #
plane-surface $-1 0 0 11.451845707581009 0 0 1 1 0 0 forward_v I I I I #
face $-1 $92 $93 $34 $-1 $94 reversed single #
loop $-1 $-1 $95 $45 #
plane-surface $-1 0 -39.185362416840825 10.951845707581011 0 0 1 1 0 0 forward_v I I I I #
face $-1 $96 $97 $35 $-1 $98 reversed single #
loop $-1 $-1 $99 $46 #
plane-surface $-1 0 39.185362416840825 10.951845707581011 0 0 1 1 0 0 forward_v I I I I #
face $-1 $100 $101 $36 $-1 $102 reversed single #
loop $-1 $-1 $103 $47 #
plane-surface $-1 30.306853316328514 -23.958202513414939 206.62896924134236 0 1 0 0.54463904215088732 0 0.83867056331134215 forward_v I I I I #
face $-1 $104 $105 $37 $-1 $106 forward single #
loop $-1 $107 $108 $48 #
cone-surface $-1 66.856908470281041 -20.163103209879296 6.8487972796340593 -0.54463904215088732 0 -0.83867056331134215 0.41933528165567108 0 -0.27231952107544366 1 I I 0 1 0.5 forward I I I I #
face $-1 $109 $110 $38 $-1 $111 reversed single #
loop $-1 $-1 $112 $49 #
plane-surface $-1 30.306853316328514 16.36800390634366 206.62896924134236 0 1 0 0.54463904215088732 0 0.83867056331134215 forward_v I I I I #
face $-1 $113 $114 $39 $-1 $115 forward single #
loop $-1 $116 $117 $50 #
cone-surface $-1 66.856908470281041 20.163103209879303 6.8487972796340593 -0.54463904215088732 0 -0.83867056331134215 0.41933528165567108 0 -0.27231952107544366 1 I I 0 1 0.5 forward I I I I #
face $-1 $118 $119 $40 $-1 $120 reversed single #
loop $-1 $-1 $121 $51 #
plane-surface $-1 -153.7114921533242 -16.368003906343652 126.48905825199409 0 -1 0 0.54463904215088732 0 -0.83867056331134215 forward_v I I I I #
face $-1 $122 $123 $41 $-1 $124 forward single #
loop $-1 $125 $126 $52 #
cone-surface $-1 -66.85690847028107 -20.163103209879296 6.8487972796340522 0.54463904215088732 0 -0.83867056331134215 0.41933528165567108 0 0.27231952107544366 1 I I 0 1 0.5 forward I I I I #
face $-1 $127 $128 $42 $-1 $129 reversed single #
loop $-1 $-1 $130 $53 #
plane-surface $-1 -153.7114921533242 23.958202513414946 126.48905825199409 0 -1 0 0.54463904215088732 0 -0.83867056331134215 forward_v I I I I #
face $-1 $131 $132 $43 $-1 $133 forward single #
loop $-1 $134 $135 $54 #
cone-surface $-1 -66.85690847028107 20.163103209879303 6.8487972796340522 0.54463904215088732 0 -0.83867056331134215 0.41933528165567108 0 0.27231952107544366 1 I I 0 1 0.5 forward I I I I #
face $-1 $136 $137 $33 $-1 $138 reversed single #
loop $-1 $-1 $139 $55 #
plane-surface $-1 0 0 -11.451845707581009 0 0 1 1 0 0 forward_v I I I I #
coedge $-1 $140 $141 $142 $143 forward $56 $-1 #
face $-1 $144 $145 $34 $-1 $146 reversed single #
loop $-1 $-1 $147 $58 #
plane-surface $-1 0 -39.185362416840825 7.8781922678431044 0 0 1 1 0 0 forward_v I I I I #
coedge $-1 $148 $149 $150 $151 reversed $59 $-1 #
face $-1 $152 $153 $35 $-1 $154 reversed single #
loop $-1 $-1 $155 $61 #
plane-surface $-1 0 39.185362416840825 7.8781922678431044 0 0 1 1 0 0 forward_v I I I I #
coedge $-1 $156 $157 $158 $159 reversed $62 $-1 #
face $-1 $160 $161 $36 $-1 $162 reversed single #
loop $-1 $-1 $163 $64 #
plane-surface $-1 -49.833057673019738 -20.163103209879296 83.224330404346688 0.54463904215088732 0 0.83867056331134215 0.83867056331134215 0 -0.54463904215088732 forward_v I I I I #
coedge $-1 $164 $165 $166 $167 reversed $65 $-1 #
face $-1 $-1 $168 $37 $-1 $169 forward single #
loop $-1 $170 $171 $67 #
cone-surface $-1 66.448429188667873 -20.163103209879296 6.219794357150553 -0.54463904215088732 0 -0.83867056331134215 0.20966764082783554 0 -0.13615976053772183 1 I I -0.70710678118654746 0.70710678118654746 0.25 forward I I I I #
loop $-1 $-1 $172 $48 #
coedge $-1 $108 $108 $173 $174 reversed $68 $-1 #
face $-1 $175 $176 $38 $-1 $177 reversed single #
loop $-1 $-1 $178 $70 #
plane-surface $-1 -49.833057673019738 20.163103209879303 83.224330404346688 0.54463904215088732 0 0.83867056331134215 0.83867056331134215 0 -0.54463904215088732 forward_v I I I I #
coedge $-1 $179 $180 $181 $182 reversed $71 $-1 #
face $-1 $-1 $183 $39 $-1 $184 forward single #
loop $-1 $185 $186 $73 #
cone-surface $-1 66.448429188667873 20.163103209879303 6.219794357150553 -0.54463904215088732 0 -0.83867056331134215 0.20966764082783554 0 -0.13615976053772183 1 I I -0.70710678118654746 0.70710678118654746 0.25 forward I I I I #
loop $-1 $-1 $187 $50 #
coedge $-1 $117 $117 $188 $189 reversed $74 $-1 #
face $-1 $190 $191 $40 $-1 $192 reversed single #
loop $-1 $-1 $193 $76 #
plane-surface $-1 -73.571581163975949 -20.163103209879296 3.0844194149984219 -0.54463904215088732 0 0.83867056331134215 0.83867056331134215 0 0.54463904215088732 forward_v I I I I #
coedge $-1 $194 $195 $196 $197 reversed $77 $-1 #
face $-1 $-1 $198 $41 $-1 $199 forward single #
loop $-1 $200 $201 $79 #
cone-surface $-1 -66.448429188667902 -20.163103209879296 6.2197943571505458 0.54463904215088732 0 -0.83867056331134215 0.20966764082783554 0 0.13615976053772183 1 I I -0.70710678118654746 0.70710678118654746 0.25 forward I I I I #
loop $-1 $-1 $202 $52 #
coedge $-1 $126 $126 $203 $204 reversed $80 $-1 #
face $-1 $205 $206 $42 $-1 $207 reversed single #
loop $-1 $-1 $208 $82 #
plane-surface $-1 -73.571581163975949 20.163103209879303 3.0844194149984219 -0.54463904215088732 0 0.83867056331134215 0.83867056331134215 0 0.54463904215088732 forward_v I I I I #
coedge $-1 $209 $210 $211 $212 reversed $83 $-1 #
face $-1 $-1 $213 $43 $-1 $214 forward single #
loop $-1 $215 $216 $85 #
cone-surface $-1 -66.448429188667902 20.163103209879303 6.2197943571505458 0.54463904215088732 0 -0.83867056331134215 0.20966764082783554 0 0.13615976053772183 1 I I -0.70710678118654746 0.70710678118654746 0.25 forward I I I I #
loop $-1 $-1 $217 $54 #
coedge $-1 $135 $135 $218 $219 reversed $86 $-1 #
face $-1 $220 $221 $33 $-1 $222 reversed single #
loop $-1 $-1 $223 $88 #
plane-surface $-1 0 -43.856224527279274 0 0 1 0 0 0 1 forward_v I I I I #
coedge $-1 $224 $225 $226 $227 forward $89 $-1 #
coedge $-1 $228 $91 $229 $230 forward $56 $-1 #
coedge $-1 $91 $228 $231 $232 forward $56 $-1 #
coedge $-1 $233 $234 $91 $143 reversed $235 $-1 #
edge $-1 $236 -43.856224527279274 $237 43.856224527279274 $142 $238 forward 7 unknown #
face $-1 $239 $240 $34 $-1 $241 reversed single #
loop $-1 $-1 $242 $92 #
plane-surface $-1 0 -34.514500306402375 9.4150189877120578 0 -1 0 0 0 -1 forward_v I I I I #
coedge $-1 $243 $244 $245 $246 reversed $93 $-1 #
coedge $-1 $247 $95 $248 $249 forward $59 $-1 #
coedge $-1 $95 $247 $250 $251 reversed $59 $-1 #
coedge $-1 $252 $253 $95 $151 forward $254 $-1 #
edge $-1 $255 14.921819097981963 $256 24.263543318858861 $150 $257 forward 7 unknown #
face $-1 $258 $259 $35 $-1 $260 reversed single #
loop $-1 $-1 $261 $96 #
plane-surface $-1 0 34.514500306402375 9.4150189877120578 0 1 0 0 0 1 forward_v I I I I #
coedge $-1 $262 $263 $264 $265 reversed $97 $-1 #
coedge $-1 $266 $99 $267 $268 reversed $62 $-1 #
coedge $-1 $99 $266 $269 $270 forward $62 $-1 #
coedge $-1 $271 $272 $99 $159 forward $259 $-1 #
edge $-1 $273 -24.263543318858861 $274 -14.921819097981963 $158 $275 forward 7 unknown #
face $-1 $276 $277 $36 $-1 $278 forward single #
loop $-1 $-1 $279 $100 #
plane-surface $-1 30.306853316328514 -16.368003906343652 206.62896924134236 0 -1 0 -0.54463904215088732 0 -0.83867056331134215 forward_v I I I I #
coedge $-1 $280 $281 $282 $283 reversed $101 $-1 #
coedge $-1 $165 $103 $284 $285 reversed $65 $-1 #
coedge $-1 $103 $164 $280 $286 reversed $65 $-1 #
coedge $-1 $282 $287 $103 $167 forward $288 $-1 #
edge $-1 $289 91.862638913090166 $290 100.23006520567274 $166 $291 forward 7 unknown #
loop $-1 $-1 $173 $104 #
plane-surface $-1 -49.833057673019738 -20.163103209879296 83.224330404346688 0.54463904215088732 0 0.83867056331134215 0.83867056331134215 0 -0.54463904215088732 forward_v I I I I #
loop $-1 $-1 $292 $67 #
coedge $-1 $171 $171 $172 $293 reversed $105 $-1 #
coedge $-1 $172 $172 $171 $293 forward $107 $-1 #
coedge $-1 $173 $173 $108 $174 forward $168 $-1 #
edge $-1 $294 0 $294 6.2831853071796004 $173 $295 forward 7 unknown #
face $-1 $296 $297 $38 $-1 $298 reversed single #
loop $-1 $-1 $299 $109 #
plane-surface $-1 30.306853316328514 23.958202513414946 206.62896924134236 0 -1 0 -0.54463904215088732 0 -0.83867056331134215 forward_v I I I I #
coedge $-1 $300 $301 $302 $303 reversed $110 $-1 #
coedge $-1 $180 $112 $304 $305 reversed $71 $-1 #
coedge $-1 $112 $179 $300 $306 reversed $71 $-1 #
coedge $-1 $302 $307 $112 $182 forward $297 $-1 #
edge $-1 $308 91.862638913090166 $309 100.23006520567274 $181 $310 forward 7 unknown #
loop $-1 $-1 $188 $113 #
plane-surface $-1 -49.833057673019738 20.163103209879303 83.224330404346688 0.54463904215088732 0 0.83867056331134215 0.83867056331134215 0 -0.54463904215088732 forward_v I I I I #
loop $-1 $-1 $311 $73 #
coedge $-1 $186 $186 $187 $312 reversed $114 $-1 #
coedge $-1 $187 $187 $186 $312 forward $116 $-1 #
coedge $-1 $188 $188 $117 $189 forward $183 $-1 #
edge $-1 $313 0 $313 6.2831853071796004 $188 $314 forward 7 unknown #
face $-1 $315 $316 $40 $-1 $317 reversed single #
loop $-1 $-1 $318 $118 #
plane-surface $-1 -153.7114921533242 -23.958202513414939 126.48905825199409 0 1 0 -0.54463904215088732 0 0.83867056331134215 forward_v I I I I #
coedge $-1 $319 $320 $321 $322 reversed $119 $-1 #
coedge $-1 $195 $121 $323 $324 reversed $77 $-1 #
coedge $-1 $121 $194 $319 $325 reversed $77 $-1 #
coedge $-1 $321 $326 $121 $197 forward $316 $-1 #
edge $-1 $327 51.79268341841604 $328 60.160109710998626 $196 $329 forward 7 unknown #
loop $-1 $-1 $203 $122 #
plane-surface $-1 -73.571581163975949 -20.163103209879296 3.0844194149984219 -0.54463904215088732 0 0.83867056331134215 0.83867056331134215 0 0.54463904215088732 forward_v I I I I #
loop $-1 $-1 $330 $79 #
coedge $-1 $201 $201 $202 $331 reversed $123 $-1 #
coedge $-1 $202 $202 $201 $331 forward $125 $-1 #
coedge $-1 $203 $203 $126 $204 forward $198 $-1 #
edge $-1 $332 0 $332 6.2831853071796004 $203 $333 forward 7 unknown #
face $-1 $334 $335 $42 $-1 $336 reversed single #
loop $-1 $-1 $337 $127 #
plane-surface $-1 -153.7114921533242 16.36800390634366 126.48905825199409 0 1 0 -0.54463904215088732 0 0.83867056331134215 forward_v I I I I #
coedge $-1 $338 $339 $340 $341 reversed $128 $-1 #
coedge $-1 $210 $130 $342 $343 reversed $83 $-1 #
coedge $-1 $130 $209 $338 $344 reversed $83 $-1 #
coedge $-1 $340 $345 $130 $212 forward $335 $-1 #
edge $-1 $346 51.79268341841604 $347 60.160109710998626 $211 $348 forward 7 unknown #
loop $-1 $-1 $218 $131 #
plane-surface $-1 -73.571581163975949 20.163103209879303 3.0844194149984219 -0.54463904215088732 0 0.83867056331134215 0.83867056331134215 0 0.54463904215088732 forward_v I I I I #
loop $-1 $-1 $349 $85 #
coedge $-1 $216 $216 $217 $350 reversed $132 $-1 #
coedge $-1 $217 $217 $216 $350 forward $134 $-1 #
coedge $-1 $218 $218 $135 $219 forward $213 $-1 #
edge $-1 $351 0 $351 6.2831853071796004 $218 $352 forward 7 unknown #
face $-1 $353 $354 $33 $-1 $355 reversed single #
loop $-1 $-1 $356 $136 #
plane-surface $-1 -73.571581163975949 0 0 1 0 0 0 0 -1 forward_v I I I I #
coedge $-1 $357 $231 $358 $359 forward $137 $-1 #
coedge $-1 $360 $139 $357 $361 forward $89 $-1 #
coedge $-1 $139 $360 $362 $363 forward $89 $-1 #
coedge $-1 $234 $233 $139 $227 reversed $235 $-1 #
edge $-1 $364 -43.856224527279274 $365 43.856224527279274 $226 $366 forward 7 unknown #
coedge $-1 $141 $140 $367 $368 forward $56 $-1 #
coedge $-1 $369 $370 $140 $230 reversed $354 $-1 #
edge $-1 $237 -73.571581163975949 $371 73.571581163975949 $229 $372 forward 7 unknown #
coedge $-1 $223 $373 $141 $232 reversed $137 $-1 #
edge $-1 $374 -73.571581163975949 $236 73.571581163975949 $231 $375 forward 7 unknown #
coedge $-1 $226 $142 $373 $376 forward $235 $-1 #
coedge $-1 $142 $226 $369 $377 reversed $235 $-1 #
loop $-1 $-1 $233 $353 #
vertex $-1 $143 $378 #
vertex $-1 $143 $379 #
straight-curve $-1 73.571581163975949 0 11.451845707581009 0 1 0 I I #
face $-1 $380 $381 $34 $-1 $382 reversed single #
loop $-1 $-1 $383 $144 #
plane-surface $-1 -73.571581163975949 0 0 1 0 0 0 0 -1 forward_v I I I I #
coedge $-1 $384 $248 $253 $385 reversed $145 $-1 #
coedge $-1 $386 $147 $387 $388 reversed $93 $-1 #
coedge $-1 $147 $386 $384 $389 forward $93 $-1 #
coedge $-1 $253 $252 $147 $246 forward $254 $-1 #
edge $-1 $390 -24.263543318858861 $391 -14.921819097981963 $245 $392 forward 7 unknown #
coedge $-1 $149 $148 $383 $393 reversed $59 $-1 #
coedge $-1 $242 $394 $148 $249 reversed $145 $-1 #
edge $-1 $255 -73.571581163975949 $395 73.571581163975949 $248 $396 forward 7 unknown #
coedge $-1 $397 $398 $149 $251 forward $381 $-1 #
edge $-1 $256 -73.571581163975949 $399 73.571581163975949 $250 $400 forward 7 unknown #
coedge $-1 $245 $150 $398 $401 forward $254 $-1 #
coedge $-1 $150 $245 $242 $385 forward $254 $-1 #
loop $-1 $-1 $150 $380 #
vertex $-1 $151 $402 #
vertex $-1 $401 $403 #
straight-curve $-1 73.571581163975949 -19.592681208420412 10.951845707581011 0 -1 0 I I #
face $-1 $404 $405 $35 $-1 $406 reversed single #
loop $-1 $-1 $158 $152 #
plane-surface $-1 73.571581163975949 0 0 -1 0 0 0 0 1 forward_v I I I I #
coedge $-1 $407 $269 $408 $409 reversed $153 $-1 #
coedge $-1 $410 $155 $407 $411 forward $97 $-1 #
coedge $-1 $155 $410 $412 $413 reversed $97 $-1 #
coedge $-1 $272 $271 $155 $265 forward $259 $-1 #
edge $-1 $414 14.921819097981963 $415 24.263543318858861 $264 $416 forward 7 unknown #
coedge $-1 $157 $156 $417 $418 reversed $62 $-1 #
coedge $-1 $419 $420 $156 $268 forward $421 $-1 #
edge $-1 $422 -73.571581163975949 $273 73.571581163975949 $267 $423 forward 7 unknown #
coedge $-1 $261 $424 $157 $270 reversed $153 $-1 #
edge $-1 $425 -73.571581163975949 $274 73.571581163975949 $269 $426 forward 7 unknown #
coedge $-1 $264 $158 $424 $427 forward $259 $-1 #
coedge $-1 $158 $264 $419 $428 reversed $259 $-1 #
vertex $-1 $428 $429 #
vertex $-1 $159 $430 #
straight-curve $-1 73.571581163975949 19.592681208420412 10.951845707581011 0 -1 0 I I #
face $-1 $-1 $288 $36 $-1 $431 reversed single #
loop $-1 $-1 $432 $160 #
plane-surface $-1 0 0 11.451845707581009 0 0 1 1 0 0 forward_v I I I I #
coedge $-1 $433 $434 $435 $436 reversed $161 $-1 #
coedge $-1 $437 $163 $165 $286 forward $101 $-1 #
coedge $-1 $163 $437 $433 $438 forward $101 $-1 #
coedge $-1 $435 $166 $163 $283 forward $288 $-1 #
edge $-1 $290 -13.876650908475291 $439 -6.2864523014040046 $282 $440 forward 7 unknown #
coedge $-1 $441 $442 $164 $285 forward $277 $-1 #
edge $-1 $443 45.53344816057281 $289 58.418154505811692 $284 $444 forward 7 unknown #
edge $-1 $290 -147.1431623279519 $443 -131.77991135802887 $165 $445 forward 7 unknown #
coedge $-1 $166 $435 $441 $446 reversed $288 $-1 #
loop $-1 $-1 $435 $276 #
vertex $-1 $446 $447 #
vertex $-1 $167 $448 #
straight-curve $-1 73.571581163975949 -23.958202513414939 103.31448462067118 0 0 -1 I I #
coedge $-1 $292 $292 $-1 $449 reversed $170 $-1 #
edge $-1 $450 0 $450 6.2831853071796004 $171 $451 forward 7 unknown #
vertex $-1 $174 $452 #
ellipse-curve $-1 67.129227991356487 -20.163103209879296 7.2681325612897361 0.54463904215088732 0 0.83867056331134215 0.41933528165567108 0 -0.27231952107544366 1 I I #
face $-1 $-1 $453 $38 $-1 $454 forward single #
loop $-1 $-1 $181 $175 #
plane-surface $-1 73.571581163975949 0 0 -1 0 0 0 0 1 forward_v I I I I #
coedge $-1 $455 $456 $457 $458 reversed $176 $-1 #
coedge $-1 $459 $178 $180 $306 forward $110 $-1 #
coedge $-1 $178 $459 $455 $460 forward $110 $-1 #
coedge $-1 $457 $181 $178 $303 forward $297 $-1 #
edge $-1 $309 6.2864523014040081 $461 13.876650908475295 $302 $462 forward 7 unknown #
coedge $-1 $463 $464 $179 $305 forward $453 $-1 #
edge $-1 $465 45.53344816057281 $308 58.418154505811692 $304 $466 forward 7 unknown #
edge $-1 $309 -147.1431623279519 $465 -131.77991135802887 $180 $467 forward 7 unknown #
coedge $-1 $181 $457 $463 $468 reversed $297 $-1 #
vertex $-1 $468 $469 #
vertex $-1 $182 $470 #
straight-curve $-1 73.571581163975949 16.36800390634366 103.31448462067118 0 0 -1 I I #
coedge $-1 $311 $311 $-1 $471 reversed $185 $-1 #
edge $-1 $472 0 $472 6.2831853071796004 $186 $473 forward 7 unknown #
vertex $-1 $189 $474 #
ellipse-curve $-1 67.129227991356487 20.163103209879303 7.2681325612897361 0.54463904215088732 0 0.83867056331134215 0.41933528165567108 0 -0.27231952107544366 1 I I #
face $-1 $-1 $475 $40 $-1 $476 forward single #
loop $-1 $-1 $196 $190 #
plane-surface $-1 -73.571581163975949 0 0 1 0 0 0 0 -1 forward_v I I I I #
coedge $-1 $477 $478 $479 $480 reversed $191 $-1 #
coedge $-1 $481 $193 $195 $325 forward $119 $-1 #
coedge $-1 $193 $481 $477 $482 forward $119 $-1 #
coedge $-1 $479 $196 $193 $322 forward $316 $-1 #
edge $-1 $328 6.2864523014040046 $483 13.876650908475291 $321 $484 forward 7 unknown #
coedge $-1 $485 $486 $194 $324 forward $475 $-1 #
edge $-1 $487 -16.168871257925048 $327 -3.2841649126861512 $323 $488 forward 7 unknown #
edge $-1 $328 0 $487 15.363250969923062 $195 $489 forward 7 unknown #
coedge $-1 $196 $479 $485 $490 reversed $316 $-1 #
vertex $-1 $490 $491 #
vertex $-1 $197 $492 #
straight-curve $-1 -73.571581163975949 -16.368003906343652 63.244529125997047 0 0 -1 I I #
coedge $-1 $330 $330 $-1 $493 reversed $200 $-1 #
edge $-1 $494 0 $494 6.2831853071796004 $201 $495 forward 7 unknown #
vertex $-1 $204 $496 #
ellipse-curve $-1 -67.129227991356501 -20.163103209879296 7.2681325612897121 -0.54463904215088732 0 0.83867056331134215 0.41933528165567108 0 0.27231952107544366 1 I I #
face $-1 $-1 $497 $42 $-1 $498 forward single #
loop $-1 $-1 $211 $205 #
plane-surface $-1 -73.571581163975949 0 0 1 0 0 0 0 -1 forward_v I I I I #
coedge $-1 $499 $500 $501 $502 reversed $206 $-1 #
coedge $-1 $503 $208 $210 $344 forward $128 $-1 #
coedge $-1 $208 $503 $499 $504 forward $128 $-1 #
coedge $-1 $501 $211 $208 $341 forward $335 $-1 #
edge $-1 $347 -13.876650908475295 $505 -6.2864523014040081 $340 $506 forward 7 unknown #
coedge $-1 $507 $508 $209 $343 forward $497 $-1 #
edge $-1 $509 -16.168871257925048 $346 -3.2841649126861512 $342 $510 forward 7 unknown #
edge $-1 $347 0 $509 15.363250969923062 $210 $511 forward 7 unknown #
coedge $-1 $211 $501 $507 $512 reversed $335 $-1 #
vertex $-1 $512 $513 #
vertex $-1 $212 $514 #
straight-curve $-1 -73.571581163975949 23.958202513414946 63.244529125997047 0 0 -1 I I #
coedge $-1 $349 $349 $-1 $515 reversed $215 $-1 #
edge $-1 $516 0 $516 6.2831853071796004 $216 $517 forward 7 unknown #
vertex $-1 $219 $518 #
ellipse-curve $-1 -67.129227991356501 20.163103209879303 7.2681325612897121 -0.54463904215088732 0 0.83867056331134215 0.41933528165567108 0 0.27231952107544366 1 I I #
face $-1 $-1 $235 $33 $-1 $519 reversed single #
loop $-1 $-1 $369 $220 #
plane-surface $-1 0 43.856224527279274 0 0 -1 0 0 0 -1 forward_v I I I I #
coedge $-1 $520 $367 $370 $521 forward $221 $-1 #
coedge $-1 $373 $223 $224 $361 reversed $137 $-1 #
coedge $-1 $367 $520 $223 $359 reversed $221 $-1 #
edge $-1 $374 -11.451845707581009 $522 11.451845707581009 $358 $523 forward 7 unknown #
coedge $-1 $225 $224 $520 $524 forward $89 $-1 #
edge $-1 $365 -73.571581163975949 $522 73.571581163975949 $357 $525 forward 7 unknown #
coedge $-1 $370 $369 $225 $363 reversed $354 $-1 #
edge $-1 $526 -73.571581163975949 $364 73.571581163975949 $362 $527 forward 7 unknown #
vertex $-1 $227 $528 #
vertex $-1 $376 $529 #
straight-curve $-1 73.571581163975949 0 -11.451845707581009 0 -1 0 I I #
coedge $-1 $356 $358 $228 $368 reversed $221 $-1 #
edge $-1 $371 -43.856224527279274 $374 43.856224527279274 $367 $530 forward 7 unknown #
coedge $-1 $362 $229 $234 $377 forward $354 $-1 #
coedge $-1 $229 $362 $356 $521 reversed $354 $-1 #
vertex $-1 $230 $531 #
straight-curve $-1 0 43.856224527279274 11.451845707581009 -1 0 0 I I #
coedge $-1 $231 $357 $233 $376 reversed $137 $-1 #
vertex $-1 $368 $532 #
straight-curve $-1 0 -43.856224527279274 11.451845707581009 1 0 0 I I #
edge $-1 $236 -11.451845707581009 $365 11.451845707581009 $233 $533 forward 7 unknown #
edge $-1 $237 -11.451845707581009 $364 11.451845707581009 $234 $534 forward 7 unknown #
point $-1 73.571581163975949 -43.856224527279274 11.451845707581009 #
point $-1 73.571581163975949 43.856224527279274 11.451845707581009 #
face $-1 $-1 $254 $34 $-1 $535 reversed single #
loop $-1 $-1 $250 $239 #
plane-surface $-1 0 -43.856224527279274 0 0 1 0 0 0 1 forward_v I I I I #
coedge $-1 $536 $537 $247 $393 forward $240 $-1 #
coedge $-1 $394 $242 $244 $389 reversed $145 $-1 #
edge $-1 $391 3.1706827739870755 $255 6.2443362137249823 $253 $538 forward 7 unknown #
coedge $-1 $244 $243 $539 $540 reversed $93 $-1 #
coedge $-1 $398 $397 $243 $388 forward $381 $-1 #
edge $-1 $541 -73.571581163975949 $390 73.571581163975949 $387 $542 forward 7 unknown #
edge $-1 $543 -73.571581163975949 $391 73.571581163975949 $384 $544 forward 7 unknown #
vertex $-1 $388 $545 #
vertex $-1 $246 $546 #
straight-curve $-1 73.571581163975949 -19.592681208420412 7.8781922678431044 0 1 0 I I #
edge $-1 $399 -24.263543318858861 $395 -14.921819097981963 $383 $547 forward 7 unknown #
coedge $-1 $248 $384 $536 $548 reversed $145 $-1 #
vertex $-1 $393 $549 #
straight-curve $-1 0 -34.514500306402375 10.951845707581011 -1 0 0 I I #
coedge $-1 $387 $250 $537 $550 forward $381 $-1 #
coedge $-1 $250 $387 $252 $401 reversed $381 $-1 #
vertex $-1 $550 $551 #
straight-curve $-1 0 -43.856224527279274 10.951845707581011 -1 0 0 I I #
edge $-1 $256 -10.951845707581011 $390 -7.8781922678431044 $252 $552 forward 7 unknown #
point $-1 73.571581163975949 -34.514500306402375 10.951845707581011 #
point $-1 73.571581163975949 -43.856224527279274 10.951845707581011 #
face $-1 $-1 $421 $35 $-1 $553 reversed single #
loop $-1 $-1 $417 $258 #
plane-surface $-1 -73.571581163975949 0 0 1 0 0 0 0 -1 forward_v I I I I #
coedge $-1 $424 $261 $262 $411 reversed $153 $-1 #
coedge $-1 $417 $554 $261 $409 forward $405 $-1 #
edge $-1 $555 3.1706827739870755 $425 6.2443362137249823 $408 $556 forward 7 unknown #
coedge $-1 $263 $262 $554 $557 reversed $97 $-1 #
edge $-1 $414 -73.571581163975949 $555 73.571581163975949 $407 $558 forward 7 unknown #
coedge $-1 $420 $419 $263 $413 forward $421 $-1 #
edge $-1 $415 -73.571581163975949 $559 73.571581163975949 $412 $560 forward 7 unknown #
vertex $-1 $265 $561 #
vertex $-1 $413 $562 #
straight-curve $-1 73.571581163975949 19.592681208420412 7.8781922678431044 0 1 0 I I #
coedge $-1 $563 $408 $266 $418 forward $405 $-1 #
edge $-1 $425 14.921819097981963 $422 24.263543318858861 $417 $564 forward 7 unknown #
coedge $-1 $412 $267 $272 $428 forward $421 $-1 #
coedge $-1 $267 $412 $563 $565 reversed $421 $-1 #
loop $-1 $-1 $267 $404 #
vertex $-1 $565 $566 #
straight-curve $-1 0 43.856224527279274 10.951845707581011 1 0 0 I I #
coedge $-1 $269 $407 $271 $427 reversed $153 $-1 #
vertex $-1 $418 $567 #
straight-curve $-1 0 34.514500306402375 10.951845707581011 1 0 0 I I #
edge $-1 $274 -6.2443362137249823 $414 -3.1706827739870755 $271 $568 forward 7 unknown #
edge $-1 $273 -10.951845707581011 $415 -7.8781922678431044 $272 $569 forward 7 unknown #
point $-1 73.571581163975949 43.856224527279274 10.951845707581011 #
point $-1 73.571581163975949 34.514500306402375 10.951845707581011 #
plane-surface $-1 73.571581163975949 0 0 -1 0 0 0 0 1 forward_v I I I I #
coedge $-1 $442 $441 $434 $570 forward $277 $-1 #
coedge $-1 $434 $279 $281 $438 reversed $161 $-1 #
coedge $-1 $279 $433 $432 $570 reversed $161 $-1 #
coedge $-1 $287 $282 $279 $436 forward $288 $-1 #
edge $-1 $439 -100.23006520567274 $571 -91.862638913090166 $435 $572 forward 7 unknown #
coedge $-1 $281 $280 $442 $573 reversed $101 $-1 #
edge $-1 $574 131.77991135802887 $439 147.1431623279519 $433 $575 forward 7 unknown #
vertex $-1 $283 $576 #
straight-curve $-1 73.571581163975949 -10.081551604939648 3.084419414998429 0 1 0 I I #
coedge $-1 $432 $284 $287 $446 forward $277 $-1 #
coedge $-1 $284 $432 $437 $573 forward $277 $-1 #
vertex $-1 $285 $577 #
straight-curve $-1 15.153426658164257 -23.958202513414939 11.451845707581015 1 0 0 I I #
straight-curve $-1 -49.833057673019738 -23.958202513414939 83.224330404346688 -0.83867056331134215 0 0.54463904215088732 I I #
edge $-1 $289 -23.958202513414939 $571 -16.368003906343652 $287 $578 forward 7 unknown #
point $-1 73.571581163975949 -23.958202513414939 11.451845707581009 #
point $-1 73.571581163975935 -23.958202513414939 3.0844194149984361 #
edge $-1 $579 1 $579 0 $292 $-1 forward 7 unknown #
vertex $-1 $293 $580 #
ellipse-curve $-1 66.584588949205596 -20.163103209879296 6.4294619979783887 0.54463904215088732 0 0.83867056331134215 0.41933528165567108 0 -0.27231952107544366 1 I I #
point $-1 67.548563273012149 -20.163103209879296 6.9958130402142871 #
loop $-1 $-1 $304 $296 #
plane-surface $-1 0 0 11.451845707581009 0 0 1 1 0 0 forward_v I I I I #
coedge $-1 $456 $299 $301 $460 reversed $176 $-1 #
coedge $-1 $299 $455 $581 $582 reversed $176 $-1 #
coedge $-1 $307 $302 $299 $458 forward $297 $-1 #
edge $-1 $461 -100.23006520567274 $583 -91.862638913090166 $457 $584 forward 7 unknown #
coedge $-1 $301 $300 $464 $585 reversed $110 $-1 #
edge $-1 $586 131.77991135802887 $461 147.1431623279519 $455 $587 forward 7 unknown #
vertex $-1 $303 $588 #
straight-curve $-1 73.571581163975949 10.081551604939651 3.084419414998429 0 1 0 I I #
coedge $-1 $581 $304 $307 $468 forward $453 $-1 #
coedge $-1 $304 $581 $459 $585 forward $453 $-1 #
vertex $-1 $305 $589 #
straight-curve $-1 15.153426658164257 16.36800390634366 11.451845707581015 1 0 0 I I #
straight-curve $-1 -49.833057673019738 16.36800390634366 83.224330404346688 -0.83867056331134215 0 0.54463904215088732 I I #
edge $-1 $308 16.36800390634366 $583 23.958202513414946 $307 $590 forward 7 unknown #
point $-1 73.571581163975949 16.36800390634366 11.451845707581009 #
point $-1 73.571581163975935 16.36800390634366 3.0844194149984361 #
edge $-1 $591 1 $591 0 $311 $-1 forward 7 unknown #
vertex $-1 $312 $592 #
ellipse-curve $-1 66.584588949205596 20.163103209879303 6.4294619979783887 0.54463904215088732 0 0.83867056331134215 0.41933528165567108 0 -0.27231952107544366 1 I I #
point $-1 67.548563273012149 20.163103209879303 6.9958130402142871 #
loop $-1 $-1 $323 $315 #
plane-surface $-1 0 0 11.451845707581009 0 0 1 1 0 0 forward_v I I I I #
coedge $-1 $478 $318 $320 $482 reversed $191 $-1 #
coedge $-1 $318 $477 $593 $594 reversed $191 $-1 #
coedge $-1 $326 $321 $318 $480 forward $316 $-1 #
edge $-1 $483 -60.160109710998626 $595 -51.79268341841604 $479 $596 forward 7 unknown #
coedge $-1 $320 $319 $486 $597 reversed $119 $-1 #
edge $-1 $598 -15.363250969923062 $483 0 $477 $599 forward 7 unknown #
vertex $-1 $322 $600 #
straight-curve $-1 -73.571581163975949 -10.081551604939648 3.0844194149984245 0 -1 0 I I #
coedge $-1 $593 $323 $326 $490 forward $475 $-1 #
coedge $-1 $323 $593 $481 $597 forward $475 $-1 #
vertex $-1 $324 $601 #
straight-curve $-1 -76.855746076662101 -16.368003906343652 11.451845707581008 -1 0 0 I I #
straight-curve $-1 -73.571581163975949 -16.368003906343652 3.0844194149984219 0.83867056331134215 0 0.54463904215088732 I I #
edge $-1 $327 16.368003906343652 $595 23.958202513414939 $326 $602 forward 7 unknown #
point $-1 -73.571581163975949 -16.368003906343652 11.451845707581009 #
point $-1 -73.571581163975949 -16.368003906343652 3.0844194149984219 #
edge $-1 $603 1 $603 0 $330 $-1 forward 7 unknown #
vertex $-1 $331 $604 #
ellipse-curve $-1 -66.584588949205624 -20.163103209879296 6.4294619979783816 -0.54463904215088732 0 0.83867056331134215 0.41933528165567108 0 0.27231952107544366 1 I I #
point $-1 -66.709892709700839 -20.163103209879296 7.5404520823651673 #
loop $-1 $-1 $342 $334 #
plane-surface $-1 0 0 11.451845707581009 0 0 1 1 0 0 forward_v I I I I #
coedge $-1 $500 $337 $339 $504 reversed $206 $-1 #
coedge $-1 $337 $499 $605 $606 reversed $206 $-1 #
coedge $-1 $345 $340 $337 $502 forward $335 $-1 #
edge $-1 $505 -60.160109710998626 $607 -51.79268341841604 $501 $608 forward 7 unknown #
coedge $-1 $339 $338 $508 $609 reversed $128 $-1 #
edge $-1 $610 -15.363250969923062 $505 0 $499 $611 forward 7 unknown #
vertex $-1 $341 $612 #
straight-curve $-1 -73.571581163975949 10.081551604939651 3.0844194149984245 0 -1 0 I I #
coedge $-1 $605 $342 $345 $512 forward $497 $-1 #
coedge $-1 $342 $605 $503 $609 forward $497 $-1 #
vertex $-1 $343 $613 #
straight-curve $-1 -76.855746076662101 23.958202513414946 11.451845707581008 -1 0 0 I I #
straight-curve $-1 -73.571581163975949 23.958202513414946 3.0844194149984219 0.83867056331134215 0 0.54463904215088732 I I #
edge $-1 $346 -23.958202513414946 $607 -16.36800390634366 $345 $614 forward 7 unknown #
point $-1 -73.571581163975949 23.958202513414946 11.451845707581009 #
point $-1 -73.571581163975949 23.958202513414946 3.0844194149984219 #
edge $-1 $615 1 $615 0 $349 $-1 forward 7 unknown #
vertex $-1 $350 $616 #
ellipse-curve $-1 -66.584588949205624 20.163103209879303 6.4294619979783816 -0.54463904215088732 0 0.83867056331134215 0.41933528165567108 0 0.27231952107544366 1 I I #
point $-1 -66.709892709700839 20.163103209879303 7.5404520823651673 #
plane-surface $-1 73.571581163975949 0 0 -1 0 0 0 0 1 forward_v I I I I #
coedge $-1 $358 $356 $360 $524 reversed $221 $-1 #
edge $-1 $371 -11.451845707581009 $526 11.451845707581009 $370 $617 forward 7 unknown #
vertex $-1 $524 $618 #
straight-curve $-1 -73.571581163975949 -43.856224527279274 0 0 0 -1 I I #
edge $-1 $522 -43.856224527279274 $526 43.856224527279274 $520 $619 forward 7 unknown #
straight-curve $-1 0 -43.856224527279274 -11.451845707581009 -1 0 0 I I #
vertex $-1 $363 $620 #
straight-curve $-1 0 43.856224527279274 -11.451845707581009 1 0 0 I I #
point $-1 73.571581163975949 43.856224527279274 -11.451845707581009 #
point $-1 73.571581163975949 -43.856224527279274 -11.451845707581009 #
straight-curve $-1 -73.571581163975949 0 11.451845707581009 0 -1 0 I I #
point $-1 -73.571581163975949 43.856224527279274 11.451845707581009 #
point $-1 -73.571581163975949 -43.856224527279274 11.451845707581009 #
straight-curve $-1 73.571581163975949 -43.856224527279274 0 0 0 -1 I I #
straight-curve $-1 73.571581163975949 43.856224527279274 0 0 0 -1 I I #
plane-surface $-1 73.571581163975949 0 0 -1 0 0 0 0 1 forward_v I I I I #
coedge $-1 $539 $383 $394 $548 forward $240 $-1 #
coedge $-1 $383 $539 $397 $550 reversed $240 $-1 #
straight-curve $-1 73.571581163975949 -34.514500306402375 4.7075094938560289 0 0 1 I I #
coedge $-1 $537 $536 $386 $540 forward $240 $-1 #
edge $-1 $543 14.921819097981963 $541 24.263543318858861 $539 $621 forward 7 unknown #
vertex $-1 $388 $622 #
straight-curve $-1 0 -43.856224527279274 7.8781922678431044 1 0 0 I I #
vertex $-1 $540 $623 #
straight-curve $-1 0 -34.514500306402375 7.8781922678431044 1 0 0 I I #
point $-1 73.571581163975949 -43.856224527279274 7.8781922678431044 #
point $-1 73.571581163975949 -34.514500306402375 7.8781922678431044 #
straight-curve $-1 -73.571581163975949 -19.592681208420412 10.951845707581011 0 1 0 I I #
edge $-1 $395 -6.2443362137249823 $543 -3.1706827739870755 $536 $624 forward 7 unknown #
point $-1 -73.571581163975949 -34.514500306402375 10.951845707581011 #
edge $-1 $399 -10.951845707581011 $541 -7.8781922678431044 $537 $625 forward 7 unknown #
point $-1 -73.571581163975949 -43.856224527279274 10.951845707581011 #
straight-curve $-1 73.571581163975949 -43.856224527279274 0 0 0 -1 I I #
plane-surface $-1 0 43.856224527279274 0 0 -1 0 0 0 -1 forward_v I I I I #
coedge $-1 $408 $563 $410 $557 forward $405 $-1 #
vertex $-1 $557 $626 #
straight-curve $-1 -73.571581163975949 34.514500306402375 4.7075094938560289 0 0 1 I I #
edge $-1 $559 -24.263543318858861 $555 -14.921819097981963 $554 $627 forward 7 unknown #
straight-curve $-1 0 34.514500306402375 7.8781922678431044 -1 0 0 I I #
vertex $-1 $413 $628 #
straight-curve $-1 0 43.856224527279274 7.8781922678431044 -1 0 0 I I #
point $-1 73.571581163975949 34.514500306402375 7.8781922678431044 #
point $-1 73.571581163975949 43.856224527279274 7.8781922678431044 #
coedge $-1 $554 $417 $420 $565 forward $405 $-1 #
straight-curve $-1 -73.571581163975949 19.592681208420412 10.951845707581011 0 1 0 I I #
edge $-1 $422 -10.951845707581011 $559 -7.8781922678431044 $420 $629 forward 7 unknown #
point $-1 -73.571581163975949 43.856224527279274 10.951845707581011 #
point $-1 -73.571581163975949 34.514500306402375 10.951845707581011 #
straight-curve $-1 73.571581163975949 34.514500306402375 4.7075094938560289 0 0 -1 I I #
straight-curve $-1 73.571581163975949 43.856224527279274 0 0 0 -1 I I #
edge $-1 $571 -58.418154505811692 $574 -45.53344816057281 $432 $630 forward 7 unknown #
vertex $-1 $570 $631 #
straight-curve $-1 73.571581163975949 -16.368003906343652 103.31448462067118 0 0 1 I I #
edge $-1 $574 6.2864523014040046 $443 13.876650908475291 $442 $632 forward 7 unknown #
vertex $-1 $573 $633 #
straight-curve $-1 -49.833057673019738 -16.368003906343652 83.224330404346688 0.83867056331134215 0 -0.54463904215088732 I I #
point $-1 73.571581163975935 -16.368003906343652 3.0844194149984361 #
point $-1 60.686874818737067 -23.958202513414939 11.451845707581015 #
straight-curve $-1 73.571581163975949 0 11.451845707581009 0 1 0 I I #
vertex $-1 $449 $634 #
point $-1 67.003924230861273 -20.163103209879296 6.157142476902945 #
coedge $-1 $464 $463 $456 $582 forward $453 $-1 #
edge $-1 $583 -58.418154505811692 $586 -45.53344816057281 $581 $635 forward 7 unknown #
vertex $-1 $582 $636 #
straight-curve $-1 73.571581163975949 23.958202513414946 103.31448462067118 0 0 1 I I #
edge $-1 $586 -13.876650908475295 $465 -6.2864523014040081 $464 $637 forward 7 unknown #
vertex $-1 $585 $638 #
straight-curve $-1 -49.833057673019738 23.958202513414946 83.224330404346688 0.83867056331134215 0 -0.54463904215088732 I I #
point $-1 73.571581163975935 23.958202513414946 3.0844194149984361 #
point $-1 60.686874818737067 16.36800390634366 11.451845707581015 #
straight-curve $-1 73.571581163975949 0 11.451845707581009 0 1 0 I I #
vertex $-1 $471 $639 #
point $-1 67.003924230861273 20.163103209879303 6.157142476902945 #
coedge $-1 $486 $485 $478 $594 forward $475 $-1 #
edge $-1 $595 3.2841649126861512 $598 16.168871257925048 $593 $640 forward 7 unknown #
vertex $-1 $594 $641 #
straight-curve $-1 -73.571581163975949 -23.958202513414939 63.244529125997047 0 0 1 I I #
edge $-1 $598 -13.876650908475291 $487 -6.2864523014040046 $486 $642 forward 7 unknown #
vertex $-1 $597 $643 #
straight-curve $-1 -73.571581163975949 -23.958202513414939 3.0844194149984219 -0.83867056331134215 0 -0.54463904215088732 I I #
point $-1 -73.571581163975949 -23.958202513414939 3.0844194149984219 #
point $-1 -60.686874818737053 -16.368003906343652 11.451845707581009 #
straight-curve $-1 -73.571581163975949 0 11.451845707581009 0 -1 0 I I #
vertex $-1 $493 $644 #
point $-1 -66.165253667549948 -20.163103209879296 6.7017815190538252 #
coedge $-1 $508 $507 $500 $606 forward $497 $-1 #
edge $-1 $607 3.2841649126861512 $610 16.168871257925048 $605 $645 forward 7 unknown #
vertex $-1 $606 $646 #
straight-curve $-1 -73.571581163975949 16.36800390634366 63.244529125997047 0 0 1 I I #
edge $-1 $610 6.2864523014040081 $509 13.876650908475295 $508 $647 forward 7 unknown #
vertex $-1 $609 $648 #
straight-curve $-1 -73.571581163975949 16.36800390634366 3.0844194149984219 -0.83867056331134215 0 -0.54463904215088732 I I #
point $-1 -73.571581163975949 16.36800390634366 3.0844194149984219 #
point $-1 -60.686874818737053 23.958202513414946 11.451845707581009 #
straight-curve $-1 -73.571581163975949 0 11.451845707581009 0 -1 0 I I #
vertex $-1 $515 $649 #
point $-1 -66.165253667549948 20.163103209879303 6.7017815190538252 #
straight-curve $-1 -73.571581163975949 43.856224527279274 0 0 0 -1 I I #
point $-1 -73.571581163975949 -43.856224527279274 -11.451845707581009 #
straight-curve $-1 -73.571581163975949 0 -11.451845707581009 0 1 0 I I #
point $-1 -73.571581163975949 43.856224527279274 -11.451845707581009 #
straight-curve $-1 -73.571581163975949 -19.592681208420412 7.8781922678431044 0 -1 0 I I #
point $-1 -73.571581163975949 -43.856224527279274 7.8781922678431044 #
point $-1 -73.571581163975949 -34.514500306402375 7.8781922678431044 #
straight-curve $-1 -73.571581163975949 -34.514500306402375 4.7075094938560289 0 0 -1 I I #
straight-curve $-1 -73.571581163975949 -43.856224527279274 0 0 0 -1 I I #
point $-1 -73.571581163975949 34.514500306402375 7.8781922678431044 #
straight-curve $-1 -73.571581163975949 19.592681208420412 7.8781922678431044 0 -1 0 I I #
point $-1 -73.571581163975949 43.856224527279274 7.8781922678431044 #
straight-curve $-1 -73.571581163975949 43.856224527279274 0 0 0 -1 I I #
straight-curve $-1 15.153426658164257 -16.368003906343652 11.451845707581015 -1 0 0 I I #
point $-1 73.571581163975949 -16.368003906343652 11.451845707581009 #
straight-curve $-1 60.686874818737074 -10.081551604939648 11.451845707581001 0 -1 0 I I #
point $-1 60.686874818737067 -16.368003906343652 11.451845707581015 #
point $-1 66.312269428130151 -20.163103209879296 6.0101267163227172 #
straight-curve $-1 15.153426658164257 23.958202513414946 11.451845707581015 -1 0 0 I I #
point $-1 73.571581163975949 23.958202513414946 11.451845707581009 #
straight-curve $-1 60.686874818737074 10.081551604939651 11.451845707581001 0 -1 0 I I #
point $-1 60.686874818737067 23.958202513414946 11.451845707581015 #
point $-1 66.312269428130151 20.163103209879303 6.0101267163227172 #
straight-curve $-1 -76.855746076662101 -23.958202513414939 11.451845707581008 1 0 0 I I #
point $-1 -73.571581163975949 -23.958202513414939 11.451845707581009 #
straight-curve $-1 -60.686874818737053 -10.081551604939648 11.451845707581008 0 1 0 I I #
point $-1 -60.686874818737053 -23.958202513414939 11.451845707581009 #
point $-1 -66.312269428130179 -20.163103209879296 6.0101267163227101 #
straight-curve $-1 -76.855746076662101 16.36800390634366 11.451845707581008 1 0 0 I I #
point $-1 -73.571581163975949 16.36800390634366 11.451845707581009 #
straight-curve $-1 -60.686874818737053 10.081551604939651 11.451845707581008 0 1 0 I I #
point $-1 -60.686874818737053 16.36800390634366 11.451845707581009 #
point $-1 -66.312269428130179 20.163103209879303 6.0101267163227101 #
End-of-ACIS-data 