500 0 10 0           
7 Unknown 11 ACIS 5.0 NT 24 Thu Mar 25 22:27:36 1999 
-1 9.9999999999999995e-007 1e-010 
body $-1 $10 $-1 $11 #
body $-1 $12 $-1 $13 #
body $-1 $14 $-1 $15 #
body $-1 $16 $-1 $17 #
body $-1 $18 $-1 $19 #
body $-1 $20 $-1 $21 #
body $-1 $22 $-1 $23 #
body $-1 $24 $-1 $25 #
body $-1 $26 $-1 $27 #
body $-1 $28 $-1 $29 #
lump $-1 $-1 $30 $0 #
transform $-1 1 0 0 0 1 0 0 0 1 60.709860530411696 31.217396773488776 7.3458582666092473 1 rotate no_reflect no_shear #
lump $-1 $-1 $31 $1 #
transform $-1 1 0 0 0 1 0 0 0 1 60.709860530411696 31.217396773488776 7.3458582666092473 1 rotate no_reflect no_shear #
lump $-1 $-1 $32 $2 #
transform $-1 1 0 0 0 1 0 0 0 1 60.709860530411696 31.217396773488776 7.3458582666092473 1 rotate no_reflect no_shear #
lump $-1 $-1 $33 $3 #
transform $-1 1 0 0 0 1 0 0 0 1 60.709860530411696 31.217396773488776 7.3458582666092473 1 rotate no_reflect no_shear #
lump $-1 $-1 $34 $4 #
transform $-1 1 0 0 0 1 0 0 0 1 60.709860530411696 31.217396773488776 7.3458582666092473 1 rotate no_reflect no_shear #
lump $-1 $-1 $35 $5 #
transform $-1 1 0 0 0 1 0 0 0 1 60.709860530411696 31.217396773488776 7.3458582666092473 1 rotate no_reflect no_shear #
lump $-1 $-1 $36 $6 #
transform $-1 1 0 0 0 1 0 0 0 1 60.709860530411696 31.217396773488776 7.3458582666092473 1 rotate no_reflect no_shear #
lump $-1 $-1 $37 $7 #
transform $-1 1 0 0 0 1 0 0 0 1 60.709860530411696 31.217396773488776 7.3458582666092473 1 rotate no_reflect no_shear #
lump $-1 $-1 $38 $8 #
transform $-1 1 0 0 0 1 0 0 0 1 60.709860530411696 31.217396773488776 7.3458582666092473 1 rotate no_reflect no_shear #
lump $-1 $-1 $39 $9 #
transform $-1 1 0 0 0 1 0 0 0 1 60.709860530411696 31.217396773488776 7.3458582666092473 1 rotate no_reflect no_shear #
shell $-1 $-1 $-1 $40 $-1 $10 #
shell $-1 $-1 $-1 $41 $-1 $12 #
shell $-1 $-1 $-1 $42 $-1 $14 #
shell $-1 $-1 $-1 $43 $-1 $16 #
shell $-1 $-1 $-1 $44 $-1 $18 #
shell $-1 $-1 $-1 $45 $-1 $20 #
shell $-1 $-1 $-1 $46 $-1 $22 #
shell $-1 $-1 $-1 $47 $-1 $24 #
shell $-1 $-1 $-1 $48 $-1 $26 #
shell $-1 $-1 $-1 $49 $-1 $28 #
face $-1 $50 $51 $30 $-1 $52 forward single #
face $-1 $53 $54 $31 $-1 $55 reversed single #
face $-1 $56 $57 $32 $-1 $58 forward single #
face $-1 $59 $60 $33 $-1 $61 forward single #
face $-1 $62 $63 $34 $-1 $64 reversed single #
face $-1 $65 $66 $35 $-1 $67 forward single #
face $-1 $68 $69 $36 $-1 $70 forward single #
face $-1 $71 $72 $37 $-1 $73 reversed single #
face $-1 $74 $75 $38 $-1 $76 forward single #
face $-1 $77 $78 $39 $-1 $79 forward single #
face $-1 $80 $81 $30 $-1 $82 reversed single #
loop $-1 $-1 $83 $40 #
plane-surface $-1 0 0 7.3458582666092473 0 0 1 1 0 0 forward_v I I I I #
face $-1 $84 $85 $31 $-1 $86 reversed single #
loop $-1 $-1 $87 $41 #
plane-surface $-1 -42.983440942878083 -95.560046871014279 106.24543667463421 -1 0 0 0 -0.52991927123019833 0.84804809178421925 forward_v I I I I #
face $-1 $88 $89 $32 $-1 $90 forward single #
loop $-1 $91 $92 $42 #
cone-surface $-1 -55.645169219687808 -26.546090680388552 3.0471283427121789 0 0.52991927123019833 -0.84804809178421925 1.5 0 0 1 I I 0 1 1.5 forward I I I I #
face $-1 $93 $94 $33 $-1 $95 forward single #
loop $-1 $96 $97 $43 #
cone-surface $-1 -48.04813225360197 -26.546090680388552 3.0471283427121789 0 0.52991927123019833 -0.84804809178421925 1.5 0 0 1 I I 0 1 1.5 forward I I I I #
face $-1 $98 $99 $34 $-1 $100 reversed single #
loop $-1 $-1 $101 $44 #
plane-surface $-1 17.726419587533613 -95.560046871014279 106.24543667463421 -1 0 0 0 -0.52991927123019833 0.84804809178421925 forward_v I I I I #
face $-1 $102 $103 $35 $-1 $104 forward single #
loop $-1 $105 $106 $45 #
cone-surface $-1 5.0646913107238944 -26.546090680388552 3.0471283427121789 0 0.52991927123019833 -0.84804809178421925 1.5 0 0 1 I I 0 1 1.5 forward I I I I #
face $-1 $107 $108 $36 $-1 $109 forward single #
loop $-1 $110 $111 $46 #
cone-surface $-1 12.661728276809733 -26.546090680388552 3.0471283427121789 0 0.52991927123019833 -0.84804809178421925 1.5 0 0 1 I I 0 1 1.5 forward I I I I #
face $-1 $112 $113 $37 $-1 $114 reversed single #
loop $-1 $-1 $115 $47 #
plane-surface $-1 -46.295025180169525 81.893115058123342 128.85481668104413 1 0 0 0 -0.75470958851134928 -0.65605901945558964 forward_v I I I I #
face $-1 $116 $117 $38 $-1 $118 forward single #
loop $-1 $119 $120 $48 #
cone-surface $-1 -36.686325116676073 27.980658093067994 3.8884056739982458 0 -0.75470958851134928 -0.65605901945558964 1 0 0 1 I I 0 1 1 forward I I I I #
face $-1 $121 $122 $39 $-1 $123 forward single #
loop $-1 $124 $125 $49 #
cone-surface $-1 -22.273275021435893 27.980658093067994 3.8884056739982458 0 -0.75470958851134928 -0.65605901945558964 1 0 0 1 I I 0 1 1 forward I I I I #
face $-1 $126 $127 $30 $-1 $128 reversed single #
loop $-1 $-1 $129 $50 #
plane-surface $-1 0 0 -7.3458582666092473 0 0 1 1 0 0 forward_v I I I I #
coedge $-1 $130 $131 $132 $133 forward $51 $-1 #
face $-1 $134 $135 $31 $-1 $136 forward single #
loop $-1 $-1 $137 $53 #
plane-surface $-1 -51.846650736644889 -31.217396773488787 3.2756739240307553 0 -0.52991927123019833 0.84804809178421925 1 0 0 forward_v I I I I #
coedge $-1 $138 $139 $140 $141 reversed $54 $-1 #
face $-1 $-1 $142 $32 $-1 $143 forward single #
loop $-1 $144 $145 $56 #
cone-surface $-1 -55.645169219687808 -24.734173345567271 0.14745452126620151 0 0.52991927123019833 -0.84804809178421925 0.75 0 0 1 I I -0.70710678118654757 0.70710678118654757 0.75 forward I I I I #
loop $-1 $-1 $146 $42 #
coedge $-1 $92 $92 $147 $148 reversed $57 $-1 #
face $-1 $-1 $149 $33 $-1 $150 forward single #
loop $-1 $151 $152 $59 #
cone-surface $-1 -48.04813225360197 -24.734173345567271 0.14745452126620151 0 0.52991927123019833 -0.84804809178421925 0.75 0 0 1 I I -0.70710678118654757 0.70710678118654757 0.75 forward I I I I #
loop $-1 $-1 $153 $43 #
coedge $-1 $97 $97 $154 $155 reversed $60 $-1 #
face $-1 $156 $157 $34 $-1 $158 reversed single #
loop $-1 $-1 $159 $62 #
plane-surface $-1 8.8632097937668064 -31.217396773488787 3.2756739240307553 0 -0.52991927123019833 0.84804809178421925 1 0 0 forward_v I I I I #
coedge $-1 $160 $161 $162 $163 reversed $63 $-1 #
face $-1 $-1 $164 $35 $-1 $165 forward single #
loop $-1 $166 $167 $65 #
cone-surface $-1 5.0646913107238944 -24.734173345567271 0.14745452126620151 0 0.52991927123019833 -0.84804809178421925 0.75 0 0 1 I I -0.70710678118654757 0.70710678118654757 0.75 forward I I I I #
loop $-1 $-1 $168 $45 #
coedge $-1 $106 $106 $169 $170 reversed $66 $-1 #
face $-1 $-1 $171 $36 $-1 $172 forward single #
loop $-1 $173 $174 $68 #
cone-surface $-1 12.661728276809733 -24.734173345567271 0.14745452126620151 0 0.52991927123019833 -0.84804809178421925 0.75 0 0 1 I I -0.70710678118654757 0.70710678118654757 0.75 forward I I I I #
loop $-1 $-1 $175 $46 #
coedge $-1 $111 $111 $176 $177 reversed $69 $-1 #
face $-1 $178 $179 $37 $-1 $180 reversed single #
loop $-1 $-1 $181 $71 #
plane-surface $-1 -29.479800069055983 -9.743512660853483 49.196313539309131 0 0.75470958851134928 0.65605901945558964 1 0 0 forward_v I I I I #
coedge $-1 $182 $183 $184 $185 reversed $72 $-1 #
face $-1 $-1 $186 $38 $-1 $187 forward single #
loop $-1 $188 $189 $74 #
cone-surface $-1 -36.686325116676073 26.656996929636531 2.7377646086247518 0 -0.75470958851134928 -0.65605901945558964 0.5 0 0 1 I I -0.70710678118654746 0.70710678118654746 0.5 forward I I I I #
loop $-1 $-1 $190 $48 #
coedge $-1 $120 $120 $191 $192 reversed $75 $-1 #
face $-1 $-1 $193 $39 $-1 $194 forward single #
loop $-1 $195 $196 $77 #
cone-surface $-1 -22.273275021435893 26.656996929636531 2.7377646086247518 0 -0.75470958851134928 -0.65605901945558964 0.5 0 0 1 I I -0.70710678118654746 0.70710678118654746 0.5 forward I I I I #
loop $-1 $-1 $197 $49 #
coedge $-1 $125 $125 $198 $199 reversed $78 $-1 #
face $-1 $200 $201 $30 $-1 $202 reversed single #
loop $-1 $-1 $203 $80 #
plane-surface $-1 0 -31.217396773488776 0 0 1 0 0 0 1 forward_v I I I I #
coedge $-1 $204 $205 $206 $207 forward $81 $-1 #
coedge $-1 $208 $83 $209 $210 forward $51 $-1 #
coedge $-1 $83 $208 $211 $212 forward $51 $-1 #
coedge $-1 $213 $214 $83 $133 reversed $215 $-1 #
edge $-1 $216 -31.217396773488776 $217 31.217396773488776 $132 $218 forward 7 unknown #
face $-1 $219 $220 $31 $-1 $221 reversed single #
loop $-1 $-1 $140 $84 #
plane-surface $-1 0 0 7.3458582666092473 0 0 1 1 0 0 forward_v I I I I #
coedge $-1 $222 $223 $224 $225 reversed $85 $-1 #
coedge $-1 $139 $87 $226 $227 reversed $54 $-1 #
coedge $-1 $87 $138 $222 $228 reversed $54 $-1 #
coedge $-1 $224 $229 $87 $141 forward $135 $-1 #
edge $-1 $230 16.562626662018364 $231 23.076283085421501 $140 $232 forward 7 unknown #
loop $-1 $-1 $147 $88 #
plane-surface $-1 -51.846650736644889 -31.217396773488787 3.2756739240307553 0 -0.52991927123019833 0.84804809178421925 1 0 0 forward_v I I I I #
loop $-1 $-1 $233 $56 #
coedge $-1 $145 $145 $146 $234 reversed $89 $-1 #
coedge $-1 $146 $146 $145 $234 forward $91 $-1 #
coedge $-1 $147 $147 $92 $148 forward $142 $-1 #
edge $-1 $235 -5.635359405333972e-016 $235 6.2831853071795996 $147 $236 forward 7 unknown #
loop $-1 $-1 $154 $93 #
plane-surface $-1 -51.846650736644889 -31.217396773488787 3.2756739240307553 0 -0.52991927123019833 0.84804809178421925 1 0 0 forward_v I I I I #
loop $-1 $-1 $237 $59 #
coedge $-1 $152 $152 $153 $238 reversed $94 $-1 #
coedge $-1 $153 $153 $152 $238 forward $96 $-1 #
coedge $-1 $154 $154 $97 $155 forward $149 $-1 #
edge $-1 $239 -5.635359405333972e-016 $239 6.2831853071795996 $154 $240 forward 7 unknown #
face $-1 $241 $242 $34 $-1 $243 reversed single #
loop $-1 $-1 $244 $98 #
plane-surface $-1 -1.7763568394002505e-015 -95.560046871014279 106.24543667463421 1 0 0 0 0.52991927123019833 -0.84804809178421925 forward_v I I I I #
coedge $-1 $245 $246 $247 $248 reversed $99 $-1 #
coedge $-1 $161 $101 $249 $250 reversed $63 $-1 #
coedge $-1 $101 $160 $245 $251 reversed $63 $-1 #
coedge $-1 $247 $252 $101 $163 forward $253 $-1 #
edge $-1 $254 16.562626662018364 $255 23.076283085421501 $162 $256 forward 7 unknown #
loop $-1 $-1 $169 $102 #
plane-surface $-1 8.8632097937668064 -31.217396773488787 3.2756739240307553 0 -0.52991927123019833 0.84804809178421925 1 0 0 forward_v I I I I #
loop $-1 $-1 $257 $65 #
coedge $-1 $167 $167 $168 $258 reversed $103 $-1 #
coedge $-1 $168 $168 $167 $258 forward $105 $-1 #
coedge $-1 $169 $169 $106 $170 forward $164 $-1 #
edge $-1 $259 -5.635359405333972e-016 $259 6.2831853071795996 $169 $260 forward 7 unknown #
loop $-1 $-1 $176 $107 #
plane-surface $-1 8.8632097937668064 -31.217396773488787 3.2756739240307553 0 -0.52991927123019833 0.84804809178421925 1 0 0 forward_v I I I I #
loop $-1 $-1 $261 $68 #
coedge $-1 $174 $174 $175 $262 reversed $108 $-1 #
coedge $-1 $175 $175 $174 $262 forward $110 $-1 #
coedge $-1 $176 $176 $111 $177 forward $171 $-1 #
edge $-1 $263 -5.635359405333972e-016 $263 6.2831853071795996 $176 $264 forward 7 unknown #
face $-1 $265 $266 $37 $-1 $267 forward single #
loop $-1 $-1 $268 $112 #
plane-surface $-1 -12.664574957942442 81.893115058123342 128.85481668104413 -1 0 0 0 0.75470958851134928 0.65605901945558964 forward_v I I I I #
coedge $-1 $269 $270 $271 $272 reversed $113 $-1 #
coedge $-1 $183 $115 $273 $274 reversed $72 $-1 #
coedge $-1 $115 $182 $269 $275 reversed $72 $-1 #
coedge $-1 $271 $276 $115 $185 forward $266 $-1 #
edge $-1 $277 9.7291607555728952 $278 14.310025378062853 $184 $279 forward 7 unknown #
loop $-1 $-1 $191 $116 #
plane-surface $-1 -29.479800069055983 -9.743512660853483 49.196313539309131 0 0.75470958851134928 0.65605901945558964 1 0 0 forward_v I I I I #
loop $-1 $-1 $280 $74 #
coedge $-1 $189 $189 $190 $281 reversed $117 $-1 #
coedge $-1 $190 $190 $189 $281 forward $119 $-1 #
coedge $-1 $191 $191 $120 $192 forward $186 $-1 #
edge $-1 $282 -9.2888094809691531e-016 $282 6.2831853071795996 $191 $283 forward 7 unknown #
loop $-1 $-1 $198 $121 #
plane-surface $-1 -29.479800069055983 -9.743512660853483 49.196313539309131 0 0.75470958851134928 0.65605901945558964 1 0 0 forward_v I I I I #
loop $-1 $-1 $284 $77 #
coedge $-1 $196 $196 $197 $285 reversed $122 $-1 #
coedge $-1 $197 $197 $196 $285 forward $124 $-1 #
coedge $-1 $198 $198 $125 $199 forward $193 $-1 #
edge $-1 $286 -9.2888094809691531e-016 $286 6.2831853071795996 $198 $287 forward 7 unknown #
face $-1 $288 $289 $30 $-1 $290 reversed single #
loop $-1 $-1 $291 $126 #
plane-surface $-1 -60.709860530411696 0 0 1 0 0 0 0 -1 forward_v I I I I #
coedge $-1 $292 $211 $293 $294 forward $127 $-1 #
coedge $-1 $295 $129 $292 $296 forward $81 $-1 #
coedge $-1 $129 $295 $297 $298 forward $81 $-1 #
coedge $-1 $214 $213 $129 $207 reversed $215 $-1 #
edge $-1 $299 -31.217396773488776 $300 31.217396773488776 $206 $301 forward 7 unknown #
coedge $-1 $131 $130 $302 $303 forward $51 $-1 #
coedge $-1 $304 $305 $130 $210 reversed $289 $-1 #
edge $-1 $217 -60.709860530411696 $306 60.709860530411696 $209 $307 forward 7 unknown #
coedge $-1 $203 $308 $131 $212 reversed $127 $-1 #
edge $-1 $309 -60.709860530411696 $216 60.709860530411696 $211 $310 forward 7 unknown #
coedge $-1 $206 $132 $308 $311 forward $215 $-1 #
coedge $-1 $132 $206 $304 $312 reversed $215 $-1 #
loop $-1 $-1 $213 $288 #
vertex $-1 $133 $313 #
vertex $-1 $133 $314 #
straight-curve $-1 60.709860530411696 0 7.3458582666092473 0 1 0 I I #
face $-1 $-1 $315 $31 $-1 $316 reversed single #
loop $-1 $-1 $317 $134 #
plane-surface $-1 -60.709860530411696 0 0 1 0 0 0 0 -1 forward_v I I I I #
coedge $-1 $318 $137 $139 $228 forward $85 $-1 #
coedge $-1 $137 $318 $317 $319 reversed $85 $-1 #
coedge $-1 $320 $140 $137 $225 forward $135 $-1 #
edge $-1 $231 17.060115574555638 $321 34.786535162089251 $224 $322 forward 7 unknown #
coedge $-1 $323 $324 $138 $227 forward $315 $-1 #
edge $-1 $325 -49.847044413286341 $230 -45.776860070707855 $226 $326 forward 7 unknown #
edge $-1 $231 -7.680763020996821 $325 -1.2568587624561472e-014 $139 $327 forward 7 unknown #
coedge $-1 $140 $320 $323 $328 forward $135 $-1 #
vertex $-1 $227 $329 #
vertex $-1 $141 $330 #
straight-curve $-1 -42.983440942878083 -47.78002343550714 7.3458582666092482 0 1 0 I I #
coedge $-1 $233 $233 $-1 $331 reversed $144 $-1 #
edge $-1 $332 0 $332 6.2831853071796004 $145 $333 forward 7 unknown #
vertex $-1 $148 $334 #
ellipse-curve $-1 -55.645169219687808 -27.960568561787198 5.3107660953200106 0 -0.52991927123019833 0.84804809178421925 1.5 0 0 1 I I #
coedge $-1 $237 $237 $-1 $335 reversed $151 $-1 #
edge $-1 $336 0 $336 6.2831853071796004 $152 $337 forward 7 unknown #
vertex $-1 $155 $338 #
ellipse-curve $-1 -48.04813225360197 -27.960568561787198 5.3107660953200106 0 -0.52991927123019833 0.84804809178421925 1.5 0 0 1 I I #
face $-1 $-1 $253 $34 $-1 $339 forward single #
loop $-1 $-1 $340 $156 #
plane-surface $-1 0 -31.217396773488776 0 0 1 0 0 0 1 forward_v I I I I #
coedge $-1 $341 $342 $343 $344 reversed $157 $-1 #
coedge $-1 $345 $159 $161 $251 forward $99 $-1 #
coedge $-1 $159 $345 $341 $346 forward $99 $-1 #
coedge $-1 $343 $162 $159 $248 forward $253 $-1 #
edge $-1 $255 -13.29481469065021 $347 4.431604896883405 $247 $348 forward 7 unknown #
coedge $-1 $349 $350 $160 $250 forward $242 $-1 #
edge $-1 $351 -49.847044413286341 $254 -45.776860070707855 $249 $352 forward 7 unknown #
edge $-1 $255 -7.680763020996821 $351 -1.2568587624561472e-014 $161 $353 forward 7 unknown #
coedge $-1 $162 $343 $349 $354 forward $253 $-1 #
loop $-1 $-1 $343 $241 #
vertex $-1 $250 $355 #
vertex $-1 $163 $356 #
straight-curve $-1 17.726419587533613 -47.78002343550714 7.3458582666092482 0 1 0 I I #
coedge $-1 $257 $257 $-1 $357 reversed $166 $-1 #
edge $-1 $358 0 $358 6.2831853071796004 $167 $359 forward 7 unknown #
vertex $-1 $170 $360 #
ellipse-curve $-1 5.0646913107238944 -27.960568561787198 5.3107660953200106 0 -0.52991927123019833 0.84804809178421925 1.5 0 0 1 I I #
coedge $-1 $261 $261 $-1 $361 reversed $173 $-1 #
edge $-1 $362 0 $362 6.2831853071796004 $174 $363 forward 7 unknown #
vertex $-1 $177 $364 #
ellipse-curve $-1 12.661728276809733 -27.960568561787198 5.3107660953200106 0 -0.52991927123019833 0.84804809178421925 1.5 0 0 1 I I #
face $-1 $-1 $365 $37 $-1 $366 reversed single #
loop $-1 $-1 $184 $178 #
plane-surface $-1 0 0 7.3458582666092473 0 0 1 1 0 0 forward_v I I I I #
coedge $-1 $367 $368 $369 $370 reversed $179 $-1 #
coedge $-1 $371 $181 $183 $275 forward $113 $-1 #
coedge $-1 $181 $371 $367 $372 forward $113 $-1 #
coedge $-1 $369 $184 $181 $272 forward $266 $-1 #
edge $-1 $278 -31.555125145641533 $373 2.0753250765855498 $271 $374 forward 7 unknown #
coedge $-1 $375 $376 $182 $274 forward $365 $-1 #
edge $-1 $377 -62.35123214784339 $277 -57.081550073912815 $273 $378 forward 7 unknown #
edge $-1 $278 55.452396404886208 $377 62.434793546977538 $183 $379 forward 7 unknown #
coedge $-1 $184 $369 $375 $380 forward $266 $-1 #
vertex $-1 $274 $381 #
vertex $-1 $185 $382 #
straight-curve $-1 -46.295025180169525 40.946557529061671 7.3458582666092482 0 -1 0 I I #
coedge $-1 $280 $280 $-1 $383 reversed $188 $-1 #
edge $-1 $384 0 $384 6.2831853071796004 $189 $385 forward 7 unknown #
vertex $-1 $192 $386 #
ellipse-curve $-1 -36.686325116676073 28.926964462243799 4.711017229643959 0 0.75470958851134928 0.65605901945558964 1 0 0 1 I I #
coedge $-1 $284 $284 $-1 $387 reversed $195 $-1 #
edge $-1 $388 0 $388 6.2831853071796004 $196 $389 forward 7 unknown #
vertex $-1 $199 $390 #
ellipse-curve $-1 -22.273275021435893 28.926964462243799 4.711017229643959 0 0.75470958851134928 0.65605901945558964 1 0 0 1 I I #
face $-1 $-1 $215 $30 $-1 $391 reversed single #
loop $-1 $-1 $304 $200 #
plane-surface $-1 0 31.217396773488776 0 0 -1 0 0 0 -1 forward_v I I I I #
coedge $-1 $392 $302 $305 $393 forward $201 $-1 #
coedge $-1 $308 $203 $204 $296 reversed $127 $-1 #
coedge $-1 $302 $392 $203 $294 reversed $201 $-1 #
edge $-1 $309 -7.3458582666092473 $394 7.3458582666092473 $293 $395 forward 7 unknown #
coedge $-1 $205 $204 $392 $396 forward $81 $-1 #
edge $-1 $300 -60.709860530411696 $394 60.709860530411696 $292 $397 forward 7 unknown #
coedge $-1 $305 $304 $205 $298 reversed $289 $-1 #
edge $-1 $398 -60.709860530411696 $299 60.709860530411696 $297 $399 forward 7 unknown #
vertex $-1 $207 $400 #
vertex $-1 $311 $401 #
straight-curve $-1 60.709860530411696 0 -7.3458582666092473 0 -1 0 I I #
coedge $-1 $291 $293 $208 $303 reversed $201 $-1 #
edge $-1 $306 -31.217396773488776 $309 31.217396773488776 $302 $402 forward 7 unknown #
coedge $-1 $297 $209 $214 $312 forward $289 $-1 #
coedge $-1 $209 $297 $291 $393 reversed $289 $-1 #
vertex $-1 $210 $403 #
straight-curve $-1 0 31.217396773488776 7.3458582666092473 -1 0 0 I I #
coedge $-1 $211 $292 $213 $311 reversed $127 $-1 #
vertex $-1 $303 $404 #
straight-curve $-1 0 -31.217396773488776 7.3458582666092473 1 0 0 I I #
edge $-1 $216 -7.3458582666092473 $300 7.3458582666092473 $213 $405 forward 7 unknown #
edge $-1 $217 -7.3458582666092473 $299 7.3458582666092473 $214 $406 forward 7 unknown #
point $-1 60.709860530411696 -31.217396773488776 7.3458582666092473 #
point $-1 60.709860530411696 31.217396773488776 7.3458582666092473 #
loop $-1 $-1 $226 $219 #
plane-surface $-1 0 -31.217396773488776 0 0 1 0 0 0 1 forward_v I I I I #
coedge $-1 $407 $408 $223 $319 forward $220 $-1 #
coedge $-1 $223 $222 $324 $409 reversed $85 $-1 #
edge $-1 $321 4.6882424918121135 $410 12.369005512808922 $317 $411 forward 7 unknown #
coedge $-1 $229 $224 $408 $412 forward $135 $-1 #
vertex $-1 $412 $413 #
straight-curve $-1 -25.923325368322445 -24.703740350085639 7.3458582666092465 -1 0 0 I I #
coedge $-1 $414 $226 $229 $328 reversed $315 $-1 #
coedge $-1 $226 $414 $318 $409 forward $315 $-1 #
vertex $-1 $227 $415 #
straight-curve $-1 -42.983440942878083 -31.217396773488773 53.122718337317103 0 0 1 I I #
straight-curve $-1 -42.983440942878083 -31.217396773488787 3.2756739240307553 0 -0.84804809178421925 -0.52991927123019833 I I #
edge $-1 $416 -60.709860530411696 $230 -42.983440942878083 $323 $417 forward 7 unknown #
point $-1 -42.983440942878083 -31.217396773488776 7.3458582666092473 #
point $-1 -42.983440942878083 -24.703740350085639 7.3458582666092473 #
edge $-1 $418 1 $418 0 $233 $-1 forward 7 unknown #
vertex $-1 $234 $419 #
ellipse-curve $-1 -55.645169219687808 -25.13161279898992 0.78349059010436595 0 -0.52991927123019833 0.84804809178421925 1.5 0 0 1 I I #
point $-1 -54.145169219687808 -27.960568561787188 5.310766095319992 #
edge $-1 $420 1 $420 0 $237 $-1 forward 7 unknown #
vertex $-1 $238 $421 #
ellipse-curve $-1 -48.04813225360197 -25.13161279898992 0.78349059010436595 0 -0.52991927123019833 0.84804809178421925 1.5 0 0 1 I I #
point $-1 -46.54813225360197 -27.960568561787188 5.310766095319992 #
plane-surface $-1 0 0 7.3458582666092473 0 0 1 1 0 0 forward_v I I I I #
coedge $-1 $350 $349 $342 $422 forward $242 $-1 #
coedge $-1 $342 $244 $246 $346 reversed $157 $-1 #
coedge $-1 $244 $341 $340 $422 reversed $157 $-1 #
coedge $-1 $252 $247 $244 $344 forward $253 $-1 #
edge $-1 $347 -23.076283085421501 $423 -16.562626662018364 $343 $424 forward 7 unknown #
coedge $-1 $246 $245 $350 $425 reversed $99 $-1 #
edge $-1 $426 1.2568587624561472e-014 $347 7.680763020996821 $341 $427 forward 7 unknown #
vertex $-1 $248 $428 #
straight-curve $-1 4.4316048968834032 -24.703740350085639 7.3458582666092465 -1 0 0 I I #
coedge $-1 $340 $249 $252 $354 reversed $242 $-1 #
coedge $-1 $249 $340 $345 $425 forward $242 $-1 #
vertex $-1 $250 $429 #
straight-curve $-1 17.726419587533613 -31.217396773488773 53.122718337317103 0 0 1 I I #
straight-curve $-1 17.726419587533613 -31.217396773488787 3.2756739240307553 0 -0.84804809178421925 -0.52991927123019833 I I #
edge $-1 $423 -1.7763568394002505e-015 $254 17.726419587533613 $349 $430 forward 7 unknown #
point $-1 17.726419587533613 -31.217396773488776 7.3458582666092473 #
point $-1 17.726419587533613 -24.703740350085639 7.3458582666092473 #
edge $-1 $431 1 $431 0 $257 $-1 forward 7 unknown #
vertex $-1 $258 $432 #
ellipse-curve $-1 5.0646913107238944 -25.13161279898992 0.78349059010436595 0 -0.52991927123019833 0.84804809178421925 1.5 0 0 1 I I #
point $-1 6.5646913107238944 -27.960568561787188 5.310766095319992 #
edge $-1 $433 1 $433 0 $261 $-1 forward 7 unknown #
vertex $-1 $262 $434 #
ellipse-curve $-1 12.661728276809733 -25.13161279898992 0.78349059010436595 0 -0.52991927123019833 0.84804809178421925 1.5 0 0 1 I I #
point $-1 14.161728276809733 -27.960568561787188 5.310766095319992 #
loop $-1 $-1 $273 $265 #
plane-surface $-1 0 31.217396773488776 0 0 -1 0 0 0 -1 forward_v I I I I #
coedge $-1 $368 $268 $270 $372 reversed $179 $-1 #
coedge $-1 $268 $367 $435 $436 reversed $179 $-1 #
coedge $-1 $276 $271 $268 $370 forward $266 $-1 #
edge $-1 $373 -14.310025378062853 $437 -9.7291607555728952 $369 $438 forward 7 unknown #
coedge $-1 $270 $269 $376 $439 reversed $113 $-1 #
edge $-1 $440 -62.434793546977538 $373 -55.452396404886208 $367 $441 forward 7 unknown #
vertex $-1 $272 $442 #
straight-curve $-1 -14.739900034527992 26.636532150998818 7.3458582666092447 1 0 0 I I #
coedge $-1 $435 $273 $276 $380 reversed $365 $-1 #
coedge $-1 $273 $435 $371 $439 forward $365 $-1 #
vertex $-1 $274 $443 #
straight-curve $-1 -46.295025180169525 31.217396773488776 64.427408340522064 0 0 1 I I #
straight-curve $-1 -46.295025180169525 -9.743512660853483 49.196313539309131 0 0.65605901945558964 -0.75470958851134928 I I #
edge $-1 $437 12.664574957942442 $277 46.295025180169525 $375 $444 forward 7 unknown #
point $-1 -46.295025180169525 31.217396773488776 7.3458582666092473 #
point $-1 -46.295025180169525 26.636532150998818 7.3458582666092482 #
edge $-1 $445 1 $445 0 $280 $-1 forward 7 unknown #
vertex $-1 $281 $446 #
ellipse-curve $-1 -36.686325116676073 27.034351723892204 3.0657941183525468 0 0.75470958851134928 0.65605901945558964 1 0 0 1 I I #
point $-1 -35.686325116676073 28.926964462243781 4.7110172296439448 #
edge $-1 $447 1 $447 0 $284 $-1 forward 7 unknown #
vertex $-1 $285 $448 #
ellipse-curve $-1 -22.273275021435893 27.034351723892204 3.0657941183525468 0 0.75470958851134928 0.65605901945558964 1 0 0 1 I I #
point $-1 -21.273275021435893 28.926964462243781 4.7110172296439448 #
plane-surface $-1 60.709860530411696 0 0 -1 0 0 0 0 1 forward_v I I I I #
coedge $-1 $293 $291 $295 $396 reversed $201 $-1 #
edge $-1 $306 -7.3458582666092473 $398 7.3458582666092473 $305 $449 forward 7 unknown #
vertex $-1 $396 $450 #
straight-curve $-1 -60.709860530411696 -31.217396773488776 0 0 0 -1 I I #
edge $-1 $394 -31.217396773488776 $398 31.217396773488776 $392 $451 forward 7 unknown #
straight-curve $-1 0 -31.217396773488776 -7.3458582666092473 -1 0 0 I I #
vertex $-1 $298 $452 #
straight-curve $-1 0 31.217396773488776 -7.3458582666092473 1 0 0 I I #
point $-1 60.709860530411696 31.217396773488776 -7.3458582666092473 #
point $-1 60.709860530411696 -31.217396773488776 -7.3458582666092473 #
straight-curve $-1 -60.709860530411696 0 7.3458582666092473 0 -1 0 I I #
point $-1 -60.709860530411696 31.217396773488776 7.3458582666092473 #
point $-1 -60.709860530411696 -31.217396773488776 7.3458582666092473 #
straight-curve $-1 60.709860530411696 -31.217396773488776 0 0 0 -1 I I #
straight-curve $-1 60.709860530411696 31.217396773488776 0 0 0 -1 I I #
coedge $-1 $408 $317 $414 $453 reversed $220 $-1 #
coedge $-1 $317 $407 $320 $412 reversed $220 $-1 #
edge $-1 $410 -34.786535162089251 $325 -17.060115574555638 $324 $454 forward 7 unknown #
vertex $-1 $319 $455 #
straight-curve $-1 -60.709860530411696 -20.727885251082682 9.830248311220771 0 -0.84804809178421925 -0.52991927123019833 I I #
edge $-1 $321 24.703740350085639 $416 31.217396773488776 $408 $456 forward 7 unknown #
point $-1 -60.709860530411696 -24.703740350085639 7.3458582666092473 #
coedge $-1 $324 $323 $407 $453 forward $315 $-1 #
point $-1 -42.983440942878083 -31.217396773488776 3.275673924030762 #
vertex $-1 $412 $457 #
straight-curve $-1 0 -31.217396773488776 7.3458582666092473 1 0 0 I I #
vertex $-1 $331 $458 #
point $-1 -54.145169219687808 -25.13161279898992 0.78349059010436595 #
vertex $-1 $335 $459 #
point $-1 -46.54813225360197 -25.13161279898992 0.78349059010436595 #
edge $-1 $423 45.776860070707855 $426 49.847044413286341 $340 $460 forward 7 unknown #
vertex $-1 $354 $461 #
straight-curve $-1 -1.7763568394002505e-015 -47.78002343550714 7.3458582666092482 0 -1 0 I I #
edge $-1 $426 -4.431604896883405 $351 13.29481469065021 $350 $462 forward 7 unknown #
vertex $-1 $425 $463 #
straight-curve $-1 -1.7763568394002505e-015 -31.217396773488787 3.2756739240307553 0 0.84804809178421925 0.52991927123019833 I I #
point $-1 -1.7763568394002505e-015 -24.703740350085639 7.3458582666092473 #
point $-1 17.726419587533613 -31.217396773488776 3.275673924030762 #
straight-curve $-1 0 -31.217396773488776 7.3458582666092473 1 0 0 I I #
vertex $-1 $357 $464 #
point $-1 6.5646913107238944 -25.13161279898992 0.78349059010436595 #
vertex $-1 $361 $465 #
point $-1 14.161728276809733 -25.13161279898992 0.78349059010436595 #
coedge $-1 $376 $375 $368 $436 forward $365 $-1 #
edge $-1 $437 57.081550073912815 $440 62.35123214784339 $435 $466 forward 7 unknown #
vertex $-1 $380 $467 #
straight-curve $-1 -12.664574957942442 40.946557529061671 7.3458582666092482 0 1 0 I I #
edge $-1 $440 -2.0753250765855498 $377 31.555125145641533 $376 $468 forward 7 unknown #
vertex $-1 $439 $469 #
straight-curve $-1 -12.664574957942442 -9.743512660853483 49.196313539309131 0 -0.65605901945558964 0.75470958851134928 I I #
point $-1 -12.664574957942442 26.636532150998818 7.3458582666092482 #
point $-1 -46.295025180169525 31.217396773488773 2.0761761926786733 #
straight-curve $-1 0 31.217396773488776 7.3458582666092473 -1 0 0 I I #
vertex $-1 $383 $470 #
point $-1 -35.686325116676073 27.034351723892204 3.0657941183525468 #
vertex $-1 $387 $471 #
point $-1 -21.273275021435893 27.034351723892204 3.0657941183525468 #
straight-curve $-1 -60.709860530411696 31.217396773488776 0 0 0 -1 I I #
point $-1 -60.709860530411696 -31.217396773488776 -7.3458582666092473 #
straight-curve $-1 -60.709860530411696 0 -7.3458582666092473 0 1 0 I I #
point $-1 -60.709860530411696 31.217396773488776 -7.3458582666092473 #
edge $-1 $416 -7.3458582666092473 $410 -3.275673924030762 $407 $472 forward 7 unknown #
straight-curve $-1 -25.923325368322445 -31.217396773488776 3.2756739240307606 1 0 0 I I #
point $-1 -60.709860530411696 -31.217396773488776 3.275673924030762 #
straight-curve $-1 -60.709860530411696 0 7.3458582666092473 0 -1 0 I I #
point $-1 -60.709860530411696 -31.217396773488776 7.3458582666092473 #
point $-1 -55.645169219687808 -24.336733892144622 -0.48858154757196293 #
point $-1 -48.04813225360197 -24.336733892144622 -0.48858154757196293 #
straight-curve $-1 -1.7763568394002505e-015 -31.217396773488773 53.122718337317103 0 0 -1 I I #
point $-1 -1.7763568394002505e-015 -31.217396773488776 7.3458582666092473 #
straight-curve $-1 4.4316048968834032 -31.217396773488776 3.2756739240307606 1 0 0 I I #
point $-1 -1.7763568394002505e-015 -31.217396773488776 3.275673924030762 #
point $-1 5.0646913107238944 -24.336733892144622 -0.48858154757196293 #
point $-1 12.661728276809733 -24.336733892144622 -0.48858154757196293 #
straight-curve $-1 -12.664574957942442 31.217396773488776 64.427408340522064 0 0 -1 I I #
point $-1 -12.664574957942442 31.217396773488776 7.3458582666092473 #
straight-curve $-1 -14.739900034527992 31.217396773488776 2.0761761926786626 -1 0 0 I I #
point $-1 -12.664574957942442 31.217396773488773 2.0761761926786733 #
point $-1 -36.686325116676073 26.279642135380858 2.4097350988969568 #
point $-1 -22.273275021435893 26.279642135380858 2.4097350988969568 #
straight-curve $-1 -60.709860530411696 -31.217396773488776 0 0 0 -1 I I #
End-of-ACIS-data 