500 0 10 0           
7 Unknown 11 ACIS 5.0 NT 24 Fri Mar 26 01:50:58 1999 
-1 9.9999999999999995e-007 1e-010 
body $-1 $10 $-1 $11 #
body $-1 $12 $-1 $13 #
body $-1 $14 $-1 $15 #
body $-1 $16 $-1 $17 #
body $-1 $18 $-1 $19 #
body $-1 $20 $-1 $21 #
body $-1 $22 $-1 $23 #
body $-1 $24 $-1 $25 #
body $-1 $26 $-1 $27 #
body $-1 $28 $-1 $29 #
lump $-1 $-1 $30 $0 #
transform $-1 1 0 0 0 1 0 0 0 1 77.764824365977972 32.136164746765679 11.707383215280352 1 rotate no_reflect no_shear #
lump $-1 $-1 $31 $1 #
transform $-1 1 0 0 0 1 0 0 0 1 77.764824365977972 32.136164746765679 11.707383215280352 1 rotate no_reflect no_shear #
lump $-1 $-1 $32 $2 #
transform $-1 1 0 0 0 1 0 0 0 1 77.764824365977972 32.136164746765679 11.707383215280352 1 rotate no_reflect no_shear #
lump $-1 $-1 $33 $3 #
transform $-1 1 0 0 0 1 0 0 0 1 77.764824365977972 32.136164746765679 11.707383215280352 1 rotate no_reflect no_shear #
lump $-1 $-1 $34 $4 #
transform $-1 1 0 0 0 1 0 0 0 1 77.764824365977972 32.136164746765679 11.707383215280352 1 rotate no_reflect no_shear #
lump $-1 $-1 $35 $5 #
transform $-1 1 0 0 0 1 0 0 0 1 77.764824365977972 32.136164746765679 11.707383215280352 1 rotate no_reflect no_shear #
lump $-1 $-1 $36 $6 #
transform $-1 1 0 0 0 1 0 0 0 1 77.764824365977972 32.136164746765679 11.707383215280352 1 rotate no_reflect no_shear #
lump $-1 $-1 $37 $7 #
transform $-1 1 0 0 0 1 0 0 0 1 77.764824365977972 32.136164746765679 11.707383215280352 1 rotate no_reflect no_shear #
lump $-1 $-1 $38 $8 #
transform $-1 1 0 0 0 1 0 0 0 1 77.764824365977972 32.136164746765679 11.707383215280352 1 rotate no_reflect no_shear #
lump $-1 $-1 $39 $9 #
transform $-1 1 0 0 0 1 0 0 0 1 77.764824365977972 32.136164746765679 11.707383215280352 1 rotate no_reflect no_shear #
shell $-1 $-1 $-1 $40 $-1 $10 #
shell $-1 $-1 $-1 $41 $-1 $12 #
shell $-1 $-1 $-1 $42 $-1 $14 #
shell $-1 $-1 $-1 $43 $-1 $16 #
shell $-1 $-1 $-1 $44 $-1 $18 #
shell $-1 $-1 $-1 $45 $-1 $20 #
shell $-1 $-1 $-1 $46 $-1 $22 #
shell $-1 $-1 $-1 $47 $-1 $24 #
shell $-1 $-1 $-1 $48 $-1 $26 #
shell $-1 $-1 $-1 $49 $-1 $28 #
face $-1 $50 $51 $30 $-1 $52 reversed single #
face $-1 $53 $54 $31 $-1 $55 forward single #
face $-1 $56 $57 $32 $-1 $58 reversed single #
face $-1 $59 $60 $33 $-1 $61 forward single #
face $-1 $62 $63 $34 $-1 $64 forward single #
face $-1 $65 $66 $35 $-1 $67 reversed single #
face $-1 $68 $69 $36 $-1 $70 forward single #
face $-1 $71 $72 $37 $-1 $73 forward single #
face $-1 $74 $75 $38 $-1 $76 reversed single #
face $-1 $77 $78 $39 $-1 $79 forward single #
face $-1 $80 $81 $30 $-1 $82 forward single #
loop $-1 $-1 $83 $40 #
plane-surface $-1 -77.764824365977972 0 0 1 0 0 0 0 -1 forward_v I I I I #
face $-1 $84 $85 $31 $-1 $86 reversed single #
loop $-1 $-1 $87 $41 #
plane-surface $-1 -77.764824365977972 0 0 1 0 0 0 0 -1 forward_v I I I I #
face $-1 $88 $89 $32 $-1 $90 reversed single #
loop $-1 $-1 $91 $42 #
plane-surface $-1 -38.441680902343791 -157.96229497290295 93.474299998743163 -1 0 0 0 -0.80901700255871778 0.5877852410284794 forward_v I I I I #
face $-1 $92 $93 $33 $-1 $94 forward single #
loop $-1 $95 $96 $43 #
cone-surface $-1 -60.061131243193465 -26.303623092911014 5.1914743667043197 0 0.80901700255871778 -0.5877852410284794 2.5 0 0 1 I I 0 1 2.5 forward I I I I #
face $-1 $97 $98 $34 $-1 $99 forward single #
loop $-1 $100 $101 $44 #
cone-surface $-1 -47.089461038683659 -26.303623092911014 5.1914743667043197 0 0.80901700255871778 -0.5877852410284794 2.5 0 0 1 I I 0 1 2.5 forward I I I I #
face $-1 $102 $103 $35 $-1 $104 reversed single #
loop $-1 $-1 $105 $45 #
plane-surface $-1 34.795186970411862 -157.96229497290295 93.474299998743163 -1 0 0 0 -0.80901700255871778 0.5877852410284794 forward_v I I I I #
face $-1 $106 $107 $36 $-1 $108 forward single #
loop $-1 $109 $110 $46 #
cone-surface $-1 13.175736629562181 -26.303623092911014 5.1914743667043197 0 0.80901700255871778 -0.5877852410284794 2.5 0 0 1 I I 0 1 2.5 forward I I I I #
face $-1 $111 $112 $37 $-1 $113 forward single #
loop $-1 $114 $115 $47 #
cone-surface $-1 26.147406834072001 -26.303623092911014 5.1914743667043197 0 0.80901700255871778 -0.5877852410284794 2.5 0 0 1 I I 0 1 2.5 forward I I I I #
face $-1 $116 $117 $38 $-1 $118 reversed single #
loop $-1 $-1 $119 $48 #
plane-surface $-1 39.704902114042582 112.55751755893263 150.80081517471496 1 0 0 0 -0.77714596973225614 -0.62932038083071107 forward_v I I I I #
face $-1 $120 $121 $39 $-1 $122 forward single #
loop $-1 $123 $124 $49 #
cone-surface $-1 56.187499914501501 26.512577484937317 5.6502343522540333 0 -0.77714596973225614 -0.62932038083071107 2.5 0 0 1 I I 0 1 2.5 forward I I I I #
face $-1 $125 $126 $30 $-1 $127 reversed single #
loop $-1 $-1 $128 $50 #
plane-surface $-1 0 0 11.707383215280352 0 0 1 1 0 0 forward_v I I I I #
coedge $-1 $129 $130 $131 $132 reversed $51 $-1 #
face $-1 $133 $134 $31 $-1 $135 reversed single #
loop $-1 $-1 $136 $53 #
plane-surface $-1 0 0 -11.707383215280352 0 0 1 1 0 0 forward_v I I I I #
coedge $-1 $137 $138 $139 $140 forward $54 $-1 #
face $-1 $141 $142 $32 $-1 $143 reversed single #
loop $-1 $-1 $144 $56 #
plane-surface $-1 -53.575296140938562 -32.136164746765672 2.0562679317556984 0 -0.80901700255871778 0.5877852410284794 1 0 0 forward_v I I I I #
coedge $-1 $145 $146 $147 $148 reversed $57 $-1 #
face $-1 $-1 $149 $33 $-1 $150 forward single #
loop $-1 $151 $152 $59 #
cone-surface $-1 -60.061131243193465 -22.965782931287642 2.7663916086050087 0 0.80901700255871778 -0.5877852410284794 1.25 0 0 1 I I -0.70710678118654746 0.70710678118654746 1.25 forward I I I I #
loop $-1 $-1 $153 $43 #
coedge $-1 $96 $96 $154 $155 reversed $60 $-1 #
face $-1 $-1 $156 $34 $-1 $157 forward single #
loop $-1 $158 $159 $62 #
cone-surface $-1 -47.089461038683659 -22.965782931287642 2.7663916086050087 0 0.80901700255871778 -0.5877852410284794 1.25 0 0 1 I I -0.70710678118654746 0.70710678118654746 1.25 forward I I I I #
loop $-1 $-1 $160 $44 #
coedge $-1 $101 $101 $161 $162 reversed $63 $-1 #
face $-1 $163 $164 $35 $-1 $165 reversed single #
loop $-1 $-1 $166 $65 #
plane-surface $-1 19.661571731817091 -32.136164746765672 2.0562679317556984 0 -0.80901700255871778 0.5877852410284794 1 0 0 forward_v I I I I #
coedge $-1 $167 $168 $169 $170 reversed $66 $-1 #
face $-1 $-1 $171 $36 $-1 $172 forward single #
loop $-1 $173 $174 $68 #
cone-surface $-1 13.175736629562181 -22.965782931287642 2.7663916086050087 0 0.80901700255871778 -0.5877852410284794 1.25 0 0 1 I I -0.70710678118654746 0.70710678118654746 1.25 forward I I I I #
loop $-1 $-1 $175 $46 #
coedge $-1 $110 $110 $176 $177 reversed $69 $-1 #
face $-1 $-1 $178 $37 $-1 $179 forward single #
loop $-1 $180 $181 $71 #
cone-surface $-1 26.147406834072001 -22.965782931287642 2.7663916086050087 0 0.80901700255871778 -0.5877852410284794 1.25 0 0 1 I I -0.70710678118654746 0.70710678118654746 1.25 forward I I I I #
loop $-1 $-1 $182 $47 #
coedge $-1 $115 $115 $183 $184 reversed $72 $-1 #
face $-1 $185 $186 $38 $-1 $187 reversed single #
loop $-1 $-1 $188 $74 #
plane-surface $-1 56.187499914501473 -8.3117221269804276 52.922837404253727 0 0.77714596973225614 0.62932038083071107 1 0 0 forward_v I I I I #
coedge $-1 $189 $190 $191 $192 reversed $75 $-1 #
face $-1 $-1 $193 $39 $-1 $194 forward single #
loop $-1 $195 $196 $77 #
cone-surface $-1 56.187499914501501 23.45369328494057 3.1731988343033848 0 -0.77714596973225614 -0.62932038083071107 1.25 0 0 1 I I -0.70710678118654746 0.70710678118654746 1.25 forward I I I I #
loop $-1 $-1 $197 $49 #
coedge $-1 $124 $124 $198 $199 reversed $78 $-1 #
face $-1 $200 $201 $30 $-1 $202 reversed single #
loop $-1 $-1 $203 $80 #
plane-surface $-1 0 0 -11.707383215280352 0 0 1 1 0 0 forward_v I I I I #
coedge $-1 $204 $205 $206 $207 forward $81 $-1 #
coedge $-1 $208 $83 $209 $210 reversed $51 $-1 #
coedge $-1 $83 $208 $211 $212 forward $51 $-1 #
coedge $-1 $213 $214 $83 $132 forward $126 $-1 #
edge $-1 $215 -32.136164746765679 $216 32.136164746765679 $83 $217 forward 7 unknown #
face $-1 $218 $219 $31 $-1 $220 reversed single #
loop $-1 $-1 $221 $84 #
plane-surface $-1 -82.292780859200292 -27.606156688377656 0 0 1 0 0 0 1 forward_v I I I I #
coedge $-1 $222 $223 $138 $224 forward $85 $-1 #
coedge $-1 $225 $87 $226 $227 reversed $54 $-1 #
coedge $-1 $87 $225 $136 $224 reversed $54 $-1 #
coedge $-1 $228 $229 $87 $140 reversed $230 $-1 #
edge $-1 $231 -11.707383215280352 $232 11.707383215280352 $139 $233 forward 7 unknown #
face $-1 $234 $235 $32 $-1 $236 forward single #
loop $-1 $-1 $237 $88 #
plane-surface $-1 -68.708911379533333 -157.96229497290295 93.474299998743163 1 0 0 0 0.80901700255871778 -0.5877852410284794 forward_v I I I I #
coedge $-1 $238 $239 $240 $241 reversed $89 $-1 #
coedge $-1 $146 $91 $242 $243 reversed $57 $-1 #
coedge $-1 $91 $145 $238 $244 reversed $57 $-1 #
coedge $-1 $240 $245 $91 $148 forward $235 $-1 #
edge $-1 $246 46.844982739685797 $247 53.856928230545194 $147 $248 forward 7 unknown #
loop $-1 $-1 $154 $92 #
plane-surface $-1 -53.575296140938562 -32.136164746765672 2.0562679317556984 0 -0.80901700255871778 0.5877852410284794 1 0 0 forward_v I I I I #
loop $-1 $-1 $249 $59 #
coedge $-1 $152 $152 $153 $250 reversed $93 $-1 #
coedge $-1 $153 $153 $152 $250 forward $95 $-1 #
coedge $-1 $154 $154 $96 $155 forward $149 $-1 #
edge $-1 $251 -7.5438707136300201e-016 $251 6.2831853071795996 $154 $252 forward 7 unknown #
loop $-1 $-1 $161 $97 #
plane-surface $-1 -53.575296140938562 -32.136164746765672 2.0562679317556984 0 -0.80901700255871778 0.5877852410284794 1 0 0 forward_v I I I I #
loop $-1 $-1 $253 $62 #
coedge $-1 $159 $159 $160 $254 reversed $98 $-1 #
coedge $-1 $160 $160 $159 $254 forward $100 $-1 #
coedge $-1 $161 $161 $101 $162 forward $156 $-1 #
edge $-1 $255 -7.5438707136300201e-016 $255 6.2831853071795996 $161 $256 forward 7 unknown #
face $-1 $257 $258 $35 $-1 $259 reversed single #
loop $-1 $-1 $260 $102 #
plane-surface $-1 4.5279564932223195 -157.96229497290295 93.474299998743163 1 0 0 0 0.80901700255871778 -0.5877852410284794 forward_v I I I I #
coedge $-1 $261 $262 $263 $264 reversed $103 $-1 #
coedge $-1 $168 $105 $265 $266 reversed $66 $-1 #
coedge $-1 $105 $167 $261 $267 reversed $66 $-1 #
coedge $-1 $263 $268 $105 $170 forward $269 $-1 #
edge $-1 $270 46.844982739685797 $271 53.856928230545194 $169 $272 forward 7 unknown #
loop $-1 $-1 $176 $106 #
plane-surface $-1 19.661571731817091 -32.136164746765672 2.0562679317556984 0 -0.80901700255871778 0.5877852410284794 1 0 0 forward_v I I I I #
loop $-1 $-1 $273 $68 #
coedge $-1 $174 $174 $175 $274 reversed $107 $-1 #
coedge $-1 $175 $175 $174 $274 forward $109 $-1 #
coedge $-1 $176 $176 $110 $177 forward $171 $-1 #
edge $-1 $275 -7.5438707136300201e-016 $275 6.2831853071795996 $176 $276 forward 7 unknown #
loop $-1 $-1 $183 $111 #
plane-surface $-1 19.661571731817091 -32.136164746765672 2.0562679317556984 0 -0.80901700255871778 0.5877852410284794 1 0 0 forward_v I I I I #
loop $-1 $-1 $277 $71 #
coedge $-1 $181 $181 $182 $278 reversed $112 $-1 #
coedge $-1 $182 $182 $181 $278 forward $114 $-1 #
coedge $-1 $183 $183 $115 $184 forward $178 $-1 #
edge $-1 $279 -7.5438707136300201e-016 $279 6.2831853071795996 $183 $280 forward 7 unknown #
face $-1 $281 $282 $38 $-1 $283 reversed single #
loop $-1 $-1 $284 $116 #
plane-surface $-1 72.670097714960363 112.55751755893263 150.80081517471496 -1 0 0 0 0.77714596973225614 0.62932038083071107 forward_v I I I I #
coedge $-1 $285 $286 $287 $288 reversed $117 $-1 #
coedge $-1 $190 $119 $289 $290 reversed $75 $-1 #
coedge $-1 $119 $189 $285 $291 reversed $75 $-1 #
coedge $-1 $287 $292 $119 $192 forward $293 $-1 #
edge $-1 $294 24.142594032700636 $295 31.214865080694516 $191 $296 forward 7 unknown #
loop $-1 $-1 $198 $120 #
plane-surface $-1 56.187499914501473 -8.3117221269804276 52.922837404253727 0 0.77714596973225614 0.62932038083071107 1 0 0 forward_v I I I I #
loop $-1 $-1 $297 $77 #
coedge $-1 $196 $196 $197 $298 reversed $121 $-1 #
coedge $-1 $197 $197 $196 $298 forward $123 $-1 #
coedge $-1 $198 $198 $124 $199 forward $193 $-1 #
edge $-1 $299 4.7417245671627588e-016 $299 6.2831853071796013 $198 $300 forward 7 unknown #
face $-1 $301 $302 $30 $-1 $303 reversed single #
loop $-1 $-1 $209 $125 #
plane-surface $-1 0 -32.136164746765679 0 0 1 0 0 0 1 forward_v I I I I #
coedge $-1 $214 $213 $304 $305 forward $126 $-1 #
coedge $-1 $306 $128 $307 $308 forward $81 $-1 #
coedge $-1 $128 $306 $309 $310 forward $81 $-1 #
coedge $-1 $311 $312 $128 $207 reversed $313 $-1 #
edge $-1 $314 -32.136164746765679 $315 32.136164746765679 $206 $316 forward 7 unknown #
coedge $-1 $130 $129 $306 $317 reversed $51 $-1 #
coedge $-1 $318 $309 $129 $210 forward $201 $-1 #
edge $-1 $319 -11.707383215280352 $215 11.707383215280352 $129 $320 forward 7 unknown #
coedge $-1 $307 $321 $130 $212 reversed $302 $-1 #
edge $-1 $322 -11.707383215280352 $216 11.707383215280352 $211 $323 forward 7 unknown #
coedge $-1 $203 $131 $321 $324 forward $126 $-1 #
coedge $-1 $131 $203 $318 $325 forward $126 $-1 #
vertex $-1 $132 $326 #
vertex $-1 $324 $327 #
straight-curve $-1 -77.764824365977972 0 -11.707383215280352 0 1 0 I I #
face $-1 $328 $230 $31 $-1 $329 reversed single #
loop $-1 $-1 $330 $133 #
plane-surface $-1 -86.820737352422611 -24.375916479904859 0 1 0 0 0 0 -1 forward_v I I I I #
coedge $-1 $331 $332 $333 $334 forward $134 $-1 #
coedge $-1 $335 $136 $331 $336 forward $85 $-1 #
coedge $-1 $136 $335 $228 $337 forward $85 $-1 #
edge $-1 $231 21.145676271432063 $338 27.606156688377656 $136 $339 forward 7 unknown #
coedge $-1 $138 $137 $340 $341 forward $54 $-1 #
coedge $-1 $342 $343 $137 $227 forward $344 $-1 #
edge $-1 $345 -27.606156688377656 $232 -21.145676271432063 $226 $346 forward 7 unknown #
coedge $-1 $347 $139 $223 $337 reversed $230 $-1 #
coedge $-1 $139 $347 $342 $348 reversed $230 $-1 #
loop $-1 $-1 $139 $218 #
vertex $-1 $224 $349 #
vertex $-1 $348 $350 #
straight-curve $-1 -77.764824365977972 -21.145676271432063 0 0 0 1 I I #
face $-1 $-1 $351 $32 $-1 $352 reversed single #
loop $-1 $-1 $147 $141 #
plane-surface $-1 0 0 11.707383215280352 0 0 1 1 0 0 forward_v I I I I #
coedge $-1 $353 $354 $355 $356 reversed $142 $-1 #
coedge $-1 $357 $144 $146 $244 forward $89 $-1 #
coedge $-1 $144 $357 $353 $358 forward $89 $-1 #
coedge $-1 $355 $147 $144 $241 forward $235 $-1 #
edge $-1 $247 11.65403283187451 $359 41.921263309064052 $240 $360 forward 7 unknown #
coedge $-1 $361 $362 $145 $243 forward $351 $-1 #
edge $-1 $363 -44.68088206761589 $246 -35.02976678409123 $242 $364 forward 7 unknown #
edge $-1 $247 -11.92943442844909 $363 1.2080531203272332e-014 $146 $365 forward 7 unknown #
coedge $-1 $147 $355 $361 $366 forward $235 $-1 #
vertex $-1 $148 $367 #
vertex $-1 $148 $368 #
straight-curve $-1 -38.441680902343791 -78.981147486451476 11.707383215280352 0 1 0 I I #
coedge $-1 $249 $249 $-1 $369 reversed $151 $-1 #
edge $-1 $370 0 $370 6.2831853071796004 $152 $371 forward 7 unknown #
vertex $-1 $155 $372 #
ellipse-curve $-1 -60.061131243193465 -28.630192001335978 6.8818255735180234 0 -0.80901700255871778 0.5877852410284794 2.5 0 0 1 I I #
coedge $-1 $253 $253 $-1 $373 reversed $158 $-1 #
edge $-1 $374 0 $374 6.2831853071796004 $159 $375 forward 7 unknown #
vertex $-1 $162 $376 #
ellipse-curve $-1 -47.089461038683659 -28.630192001335978 6.8818255735180234 0 -0.80901700255871778 0.5877852410284794 2.5 0 0 1 I I #
face $-1 $-1 $269 $35 $-1 $377 forward single #
loop $-1 $-1 $378 $163 #
plane-surface $-1 0 -32.136164746765679 0 0 1 0 0 0 1 forward_v I I I I #
coedge $-1 $379 $380 $381 $382 reversed $164 $-1 #
coedge $-1 $383 $166 $168 $267 forward $103 $-1 #
coedge $-1 $166 $383 $379 $384 forward $103 $-1 #
coedge $-1 $381 $169 $166 $264 forward $269 $-1 #
edge $-1 $271 -24.964401104503317 $385 5.3028293726862259 $263 $386 forward 7 unknown #
coedge $-1 $387 $388 $167 $266 forward $258 $-1 #
edge $-1 $389 -44.68088206761589 $270 -35.02976678409123 $265 $390 forward 7 unknown #
edge $-1 $271 -11.92943442844909 $389 1.2080531203272332e-014 $168 $391 forward 7 unknown #
coedge $-1 $169 $381 $387 $392 forward $269 $-1 #
loop $-1 $-1 $381 $257 #
vertex $-1 $266 $393 #
vertex $-1 $170 $394 #
straight-curve $-1 34.795186970411862 -78.981147486451476 11.707383215280352 0 1 0 I I #
coedge $-1 $273 $273 $-1 $395 reversed $173 $-1 #
edge $-1 $396 0 $396 6.2831853071796004 $174 $397 forward 7 unknown #
vertex $-1 $177 $398 #
ellipse-curve $-1 13.175736629562181 -28.630192001335978 6.8818255735180234 0 -0.80901700255871778 0.5877852410284794 2.5 0 0 1 I I #
coedge $-1 $277 $277 $-1 $399 reversed $180 $-1 #
edge $-1 $400 0 $400 6.2831853071796004 $181 $401 forward 7 unknown #
vertex $-1 $184 $402 #
ellipse-curve $-1 26.147406834072001 -28.630192001335978 6.8818255735180234 0 -0.80901700255871778 0.5877852410284794 2.5 0 0 1 I I #
face $-1 $-1 $293 $38 $-1 $403 forward single #
loop $-1 $-1 $404 $185 #
plane-surface $-1 0 32.136164746765679 0 0 -1 0 0 0 -1 forward_v I I I I #
coedge $-1 $405 $406 $407 $408 reversed $186 $-1 #
coedge $-1 $409 $188 $190 $291 forward $117 $-1 #
coedge $-1 $188 $409 $405 $410 forward $117 $-1 #
coedge $-1 $407 $191 $188 $288 forward $293 $-1 #
edge $-1 $295 11.611152156791846 $411 44.576347757709627 $287 $412 forward 7 unknown #
coedge $-1 $413 $414 $189 $290 forward $282 $-1 #
edge $-1 $415 -72.426552014305287 $294 -63.693024372077126 $289 $416 forward 7 unknown #
edge $-1 $295 53.034379375566985 $415 64.272329493531373 $190 $417 forward 7 unknown #
coedge $-1 $191 $407 $413 $418 forward $293 $-1 #
loop $-1 $-1 $407 $281 #
vertex $-1 $290 $419 #
vertex $-1 $192 $420 #
straight-curve $-1 39.704902114042582 56.278758779466315 11.707383215280345 0 -1 0 I I #
coedge $-1 $297 $297 $-1 $421 reversed $195 $-1 #
edge $-1 $422 0 $422 6.2831853071796004 $196 $423 forward 7 unknown #
vertex $-1 $199 $424 #
ellipse-curve $-1 56.187499914501501 28.600029222768732 7.3406193941662847 0 0.77714596973225614 0.62932038083071107 2.5 0 0 1 I I #
face $-1 $-1 $313 $30 $-1 $425 reversed single #
loop $-1 $-1 $426 $200 #
plane-surface $-1 0 32.136164746765679 0 0 -1 0 0 0 -1 forward_v I I I I #
coedge $-1 $312 $311 $203 $305 reversed $313 $-1 #
edge $-1 $427 -32.136164746765679 $428 32.136164746765679 $304 $429 forward 7 unknown #
coedge $-1 $205 $204 $208 $317 forward $81 $-1 #
coedge $-1 $426 $211 $204 $308 reversed $302 $-1 #
edge $-1 $315 -77.764824365977972 $322 77.764824365977972 $307 $430 forward 7 unknown #
coedge $-1 $209 $431 $205 $310 reversed $201 $-1 #
edge $-1 $319 -77.764824365977972 $314 77.764824365977972 $309 $432 forward 7 unknown #
coedge $-1 $304 $206 $431 $433 forward $313 $-1 #
coedge $-1 $206 $304 $426 $434 reversed $313 $-1 #
loop $-1 $-1 $311 $301 #
vertex $-1 $207 $435 #
vertex $-1 $207 $436 #
straight-curve $-1 77.764824365977972 0 11.707383215280352 0 1 0 I I #
edge $-1 $322 -32.136164746765679 $319 32.136164746765679 $208 $437 forward 7 unknown #
coedge $-1 $431 $209 $214 $325 reversed $201 $-1 #
vertex $-1 $317 $438 #
straight-curve $-1 -77.764824365977972 -32.136164746765679 0 0 0 -1 I I #
coedge $-1 $211 $426 $213 $324 reversed $302 $-1 #
vertex $-1 $308 $439 #
straight-curve $-1 -77.764824365977972 32.136164746765679 0 0 0 -1 I I #
edge $-1 $216 -77.764824365977972 $427 77.764824365977972 $321 $440 forward 7 unknown #
edge $-1 $428 -77.764824365977972 $215 77.764824365977972 $318 $441 forward 7 unknown #
point $-1 -77.764824365977972 -32.136164746765679 -11.707383215280352 #
point $-1 -77.764824365977972 32.136164746765679 -11.707383215280352 #
face $-1 $-1 $344 $31 $-1 $442 forward single #
plane-surface $-1 -82.292780859200292 -21.145676271432063 0 0 -1 0 0 0 -1 forward_v I I I I #
coedge $-1 $443 $444 $347 $445 forward $219 $-1 #
coedge $-1 $340 $221 $222 $336 reversed $134 $-1 #
coedge $-1 $221 $340 $343 $446 reversed $134 $-1 #
coedge $-1 $444 $443 $221 $334 reversed $219 $-1 #
edge $-1 $447 -11.707383215280352 $448 11.707383215280352 $333 $449 forward 7 unknown #
coedge $-1 $223 $222 $443 $450 forward $85 $-1 #
edge $-1 $338 -4.5279564932223195 $448 4.5279564932223195 $331 $451 forward 7 unknown #
edge $-1 $452 -4.5279564932223195 $231 4.5279564932223195 $228 $453 forward 7 unknown #
vertex $-1 $336 $454 #
straight-curve $-1 -77.764824365977972 0 -11.707383215280352 0 -1 0 I I #
coedge $-1 $332 $331 $225 $341 reversed $134 $-1 #
edge $-1 $345 -11.707383215280352 $338 11.707383215280352 $340 $455 forward 7 unknown #
coedge $-1 $456 $226 $229 $348 forward $344 $-1 #
coedge $-1 $226 $456 $332 $446 forward $344 $-1 #
loop $-1 $-1 $226 $328 #
vertex $-1 $227 $457 #
straight-curve $-1 -77.764824365977972 0 11.707383215280352 0 1 0 I I #
coedge $-1 $229 $228 $330 $445 reversed $230 $-1 #
edge $-1 $232 -4.5279564932223195 $458 4.5279564932223195 $229 $459 forward 7 unknown #
point $-1 -77.764824365977972 -21.145676271432063 -11.707383215280352 #
point $-1 -77.764824365977972 -21.145676271432063 11.707383215280352 #
loop $-1 $-1 $242 $234 #
plane-surface $-1 0 -32.136164746765679 0 0 1 0 0 0 1 forward_v I I I I #
coedge $-1 $354 $237 $239 $358 reversed $142 $-1 #
coedge $-1 $237 $353 $460 $461 reversed $142 $-1 #
coedge $-1 $245 $240 $237 $356 forward $235 $-1 #
edge $-1 $359 -53.856928230545194 $462 -46.844982739685797 $355 $463 forward 7 unknown #
coedge $-1 $239 $238 $362 $464 reversed $89 $-1 #
edge $-1 $465 -1.2080531203272332e-014 $359 11.92943442844909 $353 $466 forward 7 unknown #
vertex $-1 $241 $467 #
straight-curve $-1 -26.787648070469281 -25.124219255906283 11.707383215280352 -1 0 0 I I #
coedge $-1 $460 $242 $245 $366 reversed $351 $-1 #
coedge $-1 $242 $460 $357 $464 forward $351 $-1 #
vertex $-1 $243 $468 #
straight-curve $-1 -38.441680902343791 -32.136164746765679 46.737149999371582 0 0 1 I I #
straight-curve $-1 -38.441680902343791 -32.136164746765672 2.0562679317556984 0 -0.5877852410284794 -0.80901700255871778 I I #
edge $-1 $462 -68.708911379533333 $246 -38.441680902343791 $361 $469 forward 7 unknown #
point $-1 -38.441680902343791 -32.136164746765679 11.707383215280352 #
point $-1 -38.441680902343791 -25.124219255906283 11.707383215280352 #
edge $-1 $470 1 $470 0 $249 $-1 forward 7 unknown #
vertex $-1 $250 $471 #
ellipse-curve $-1 -60.061131243193465 -23.97705418448604 3.5011231598906081 0 -0.80901700255871778 0.5877852410284794 2.5 0 0 1 I I #
point $-1 -57.561131243193465 -28.630192001335992 6.8818255735180314 #
edge $-1 $472 1 $472 0 $253 $-1 forward 7 unknown #
vertex $-1 $254 $473 #
ellipse-curve $-1 -47.089461038683659 -23.97705418448604 3.5011231598906081 0 -0.80901700255871778 0.5877852410284794 2.5 0 0 1 I I #
point $-1 -44.589461038683659 -28.630192001335992 6.8818255735180314 #
plane-surface $-1 0 0 11.707383215280352 0 0 1 1 0 0 forward_v I I I I #
coedge $-1 $388 $387 $380 $474 forward $258 $-1 #
coedge $-1 $380 $260 $262 $384 reversed $164 $-1 #
coedge $-1 $260 $379 $378 $474 reversed $164 $-1 #
coedge $-1 $268 $263 $260 $382 forward $269 $-1 #
edge $-1 $385 -53.856928230545194 $475 -46.844982739685797 $381 $476 forward 7 unknown #
coedge $-1 $262 $261 $388 $477 reversed $103 $-1 #
edge $-1 $478 -1.2080531203272332e-014 $385 11.92943442844909 $379 $479 forward 7 unknown #
vertex $-1 $264 $480 #
straight-curve $-1 9.8307858659085454 -25.124219255906283 11.707383215280352 -1 0 0 I I #
coedge $-1 $378 $265 $268 $392 reversed $258 $-1 #
coedge $-1 $265 $378 $383 $477 forward $258 $-1 #
vertex $-1 $266 $481 #
straight-curve $-1 34.795186970411862 -32.136164746765679 46.737149999371582 0 0 1 I I #
straight-curve $-1 34.795186970411862 -32.136164746765672 2.0562679317556984 0 -0.5877852410284794 -0.80901700255871778 I I #
edge $-1 $475 4.5279564932223195 $270 34.795186970411862 $387 $482 forward 7 unknown #
point $-1 34.795186970411862 -32.136164746765679 11.707383215280352 #
point $-1 34.795186970411862 -25.124219255906283 11.707383215280352 #
edge $-1 $483 1 $483 0 $273 $-1 forward 7 unknown #
vertex $-1 $274 $484 #
ellipse-curve $-1 13.175736629562181 -23.97705418448604 3.5011231598906081 0 -0.80901700255871778 0.5877852410284794 2.5 0 0 1 I I #
point $-1 15.675736629562181 -28.630192001335992 6.8818255735180314 #
edge $-1 $485 1 $485 0 $277 $-1 forward 7 unknown #
vertex $-1 $278 $486 #
ellipse-curve $-1 26.147406834072001 -23.97705418448604 3.5011231598906081 0 -0.80901700255871778 0.5877852410284794 2.5 0 0 1 I I #
point $-1 28.647406834072001 -28.630192001335992 6.8818255735180314 #
plane-surface $-1 0 0 11.707383215280352 0 0 1 1 0 0 forward_v I I I I #
coedge $-1 $414 $413 $406 $487 forward $282 $-1 #
coedge $-1 $406 $284 $286 $410 reversed $186 $-1 #
coedge $-1 $284 $405 $404 $487 reversed $186 $-1 #
coedge $-1 $292 $287 $284 $408 forward $293 $-1 #
edge $-1 $411 -31.214865080694516 $488 -24.142594032700636 $407 $489 forward 7 unknown #
coedge $-1 $286 $285 $414 $490 reversed $117 $-1 #
edge $-1 $491 -64.272329493531373 $411 -53.034379375566985 $405 $492 forward 7 unknown #
vertex $-1 $288 $493 #
straight-curve $-1 28.093749957250736 25.0638936987718 11.707383215280352 1 0 0 I I #
coedge $-1 $404 $289 $292 $418 reversed $282 $-1 #
coedge $-1 $289 $404 $409 $490 forward $282 $-1 #
vertex $-1 $290 $494 #
straight-curve $-1 39.704902114042582 32.136164746765679 75.400407587357478 0 0 1 I I #
straight-curve $-1 39.704902114042582 -8.3117221269804276 52.922837404253727 0 0.62932038083071107 -0.77714596973225614 I I #
edge $-1 $488 -72.670097714960363 $294 -39.704902114042582 $413 $495 forward 7 unknown #
point $-1 39.704902114042582 32.136164746765679 11.707383215280352 #
point $-1 39.704902114042582 25.0638936987718 11.707383215280352 #
edge $-1 $496 1 $496 0 $297 $-1 forward 7 unknown #
vertex $-1 $298 $497 #
ellipse-curve $-1 56.187499914501501 24.425125747105891 3.9598493103417738 0 0.77714596973225614 0.62932038083071107 2.5 0 0 1 I I #
point $-1 58.687499914501501 28.600029222768743 7.3406193941662918 #
plane-surface $-1 77.764824365977972 0 0 -1 0 0 0 0 1 forward_v I I I I #
coedge $-1 $321 $307 $312 $434 forward $302 $-1 #
vertex $-1 $305 $498 #
vertex $-1 $433 $499 #
straight-curve $-1 77.764824365977972 0 -11.707383215280352 0 -1 0 I I #
straight-curve $-1 0 32.136164746765679 11.707383215280352 -1 0 0 I I #
coedge $-1 $309 $318 $311 $433 reversed $201 $-1 #
straight-curve $-1 0 -32.136164746765679 11.707383215280352 1 0 0 I I #
edge $-1 $314 -11.707383215280352 $428 11.707383215280352 $311 $500 forward 7 unknown #
edge $-1 $315 -11.707383215280352 $427 11.707383215280352 $312 $501 forward 7 unknown #
point $-1 77.764824365977972 -32.136164746765679 11.707383215280352 #
point $-1 77.764824365977972 32.136164746765679 11.707383215280352 #
straight-curve $-1 -77.764824365977972 0 11.707383215280352 0 -1 0 I I #
point $-1 -77.764824365977972 -32.136164746765679 11.707383215280352 #
point $-1 -77.764824365977972 32.136164746765679 11.707383215280352 #
straight-curve $-1 0 32.136164746765679 -11.707383215280352 1 0 0 I I #
straight-curve $-1 0 -32.136164746765679 -11.707383215280352 -1 0 0 I I #
plane-surface $-1 0 0 11.707383215280352 0 0 1 1 0 0 forward_v I I I I #
coedge $-1 $333 $330 $335 $450 reversed $219 $-1 #
coedge $-1 $330 $333 $456 $502 reversed $219 $-1 #
edge $-1 $458 -11.707383215280352 $452 11.707383215280352 $347 $503 forward 7 unknown #
edge $-1 $447 -4.5279564932223195 $345 4.5279564932223195 $332 $504 forward 7 unknown #
vertex $-1 $502 $505 #
vertex $-1 $450 $506 #
straight-curve $-1 -86.820737352422611 -27.606156688377656 0 0 0 -1 I I #
edge $-1 $448 -3.2302402084727966 $452 3.2302402084727966 $443 $507 forward 7 unknown #
straight-curve $-1 -82.292780859200292 -27.606156688377656 -11.707383215280352 -1 0 0 I I #
vertex $-1 $337 $508 #
straight-curve $-1 -82.292780859200292 -21.145676271432063 -11.707383215280352 1 0 0 I I #
point $-1 -77.764824365977972 -27.606156688377656 -11.707383215280352 #
straight-curve $-1 -77.764824365977972 -27.606156688377656 0 0 0 -1 I I #
coedge $-1 $343 $342 $444 $502 forward $344 $-1 #
point $-1 -77.764824365977972 -27.606156688377656 11.707383215280352 #
vertex $-1 $348 $509 #
straight-curve $-1 -82.292780859200292 -21.145676271432063 11.707383215280352 -1 0 0 I I #
coedge $-1 $362 $361 $354 $461 forward $351 $-1 #
edge $-1 $462 35.02976678409123 $465 44.68088206761589 $460 $510 forward 7 unknown #
vertex $-1 $366 $511 #
straight-curve $-1 -68.708911379533333 -78.981147486451476 11.707383215280352 0 -1 0 I I #
edge $-1 $465 -41.921263309064052 $363 -11.65403283187451 $362 $512 forward 7 unknown #
vertex $-1 $464 $513 #
straight-curve $-1 -68.708911379533333 -32.136164746765672 2.0562679317556984 0 0.5877852410284794 0.80901700255871778 I I #
point $-1 -68.708911379533333 -25.124219255906283 11.707383215280352 #
point $-1 -38.441680902343791 -32.136164746765679 2.0562679317556887 #
straight-curve $-1 0 -32.136164746765679 11.707383215280352 1 0 0 I I #
vertex $-1 $369 $514 #
point $-1 -57.561131243193465 -23.97705418448604 3.5011231598906081 #
vertex $-1 $373 $515 #
point $-1 -44.589461038683659 -23.97705418448604 3.5011231598906081 #
edge $-1 $475 35.02976678409123 $478 44.68088206761589 $378 $516 forward 7 unknown #
vertex $-1 $392 $517 #
straight-curve $-1 4.5279564932223195 -78.981147486451476 11.707383215280352 0 -1 0 I I #
edge $-1 $478 -5.3028293726862259 $389 24.964401104503317 $388 $518 forward 7 unknown #
vertex $-1 $477 $519 #
straight-curve $-1 4.5279564932223195 -32.136164746765672 2.0562679317556984 0 0.5877852410284794 0.80901700255871778 I I #
point $-1 4.5279564932223195 -25.124219255906283 11.707383215280352 #
point $-1 34.795186970411862 -32.136164746765679 2.0562679317556887 #
straight-curve $-1 0 -32.136164746765679 11.707383215280352 1 0 0 I I #
vertex $-1 $395 $520 #
point $-1 15.675736629562181 -23.97705418448604 3.5011231598906081 #
vertex $-1 $399 $521 #
point $-1 28.647406834072001 -23.97705418448604 3.5011231598906081 #
edge $-1 $488 63.693024372077126 $491 72.426552014305287 $404 $522 forward 7 unknown #
vertex $-1 $418 $523 #
straight-curve $-1 72.670097714960363 56.278758779466315 11.707383215280345 0 1 0 I I #
edge $-1 $491 -44.576347757709627 $415 -11.611152156791846 $414 $524 forward 7 unknown #
vertex $-1 $490 $525 #
straight-curve $-1 72.670097714960363 -8.3117221269804276 52.922837404253727 0 -0.62932038083071107 0.77714596973225614 I I #
point $-1 72.670097714960363 25.0638936987718 11.707383215280352 #
point $-1 39.704902114042582 32.136164746765679 2.9738555730521981 #
straight-curve $-1 0 32.136164746765679 11.707383215280352 -1 0 0 I I #
vertex $-1 $421 $526 #
point $-1 58.687499914501501 24.425125747105891 3.9598493103417738 #
point $-1 77.764824365977972 32.136164746765679 -11.707383215280352 #
point $-1 77.764824365977972 -32.136164746765679 -11.707383215280352 #
straight-curve $-1 77.764824365977972 -32.136164746765679 0 0 0 -1 I I #
straight-curve $-1 77.764824365977972 32.136164746765679 0 0 0 -1 I I #
edge $-1 $458 -3.2302402084727966 $447 3.2302402084727966 $444 $527 forward 7 unknown #
straight-curve $-1 -86.820737352422611 -21.145676271432063 0 0 0 -1 I I #
straight-curve $-1 -82.292780859200292 -27.606156688377656 11.707383215280352 1 0 0 I I #
point $-1 -86.820737352422611 -27.606156688377656 11.707383215280352 #
point $-1 -86.820737352422611 -27.606156688377656 -11.707383215280352 #
straight-curve $-1 -86.820737352422611 -24.375916479904859 -11.707383215280352 0 1 0 I I #
point $-1 -86.820737352422611 -21.145676271432063 -11.707383215280352 #
point $-1 -86.820737352422611 -21.145676271432063 11.707383215280352 #
straight-curve $-1 -68.708911379533333 -32.136164746765679 46.737149999371582 0 0 -1 I I #
point $-1 -68.708911379533333 -32.136164746765679 11.707383215280352 #
straight-curve $-1 -26.787648070469281 -32.136164746765679 2.0562679317556842 1 0 0 I I #
point $-1 -68.708911379533333 -32.136164746765679 2.0562679317556887 #
point $-1 -60.061131243193465 -21.954511678089244 2.0316600573194092 #
point $-1 -47.089461038683659 -21.954511678089244 2.0316600573194092 #
straight-curve $-1 4.5279564932223195 -32.136164746765679 46.737149999371582 0 0 -1 I I #
point $-1 4.5279564932223195 -32.136164746765679 11.707383215280352 #
straight-curve $-1 9.8307858659085454 -32.136164746765679 2.0562679317556842 1 0 0 I I #
point $-1 4.5279564932223195 -32.136164746765679 2.0562679317556887 #
point $-1 13.175736629562181 -21.954511678089244 2.0316600573194092 #
point $-1 26.147406834072001 -21.954511678089244 2.0316600573194092 #
straight-curve $-1 72.670097714960363 32.136164746765679 75.400407587357478 0 0 -1 I I #
point $-1 72.670097714960363 32.136164746765679 11.707383215280352 #
straight-curve $-1 28.093749957250736 32.136164746765679 2.9738555730522052 -1 0 0 I I #
point $-1 72.670097714960363 32.136164746765679 2.9738555730521981 #
point $-1 56.187499914501501 22.482260822775249 2.3865483582649958 #
straight-curve $-1 -86.820737352422611 -24.375916479904859 11.707383215280352 0 -1 0 I I #
End-of-ACIS-data 