500 0 14 0           
7 Unknown 11 ACIS 5.0 NT 24 Thu Mar 25 20:36:10 1999 
-1 9.9999999999999995e-007 1e-010 
body $-1 $14 $-1 $15 #
body $-1 $16 $-1 $17 #
body $-1 $18 $-1 $19 #
body $-1 $20 $-1 $21 #
body $-1 $22 $-1 $23 #
body $-1 $24 $-1 $25 #
body $-1 $26 $-1 $27 #
body $-1 $28 $-1 $29 #
body $-1 $30 $-1 $31 #
body $-1 $32 $-1 $33 #
body $-1 $34 $-1 $35 #
body $-1 $36 $-1 $37 #
body $-1 $38 $-1 $39 #
body $-1 $40 $-1 $41 #
lump $-1 $-1 $42 $0 #
transform $-1 1 0 0 0 1 0 0 0 1 49.120151371806998 27.76959270262882 10.297385666472106 1 rotate no_reflect no_shear #
lump $-1 $-1 $43 $1 #
transform $-1 1 0 0 0 1 0 0 0 1 49.120151371806998 27.76959270262882 10.297385666472106 1 rotate no_reflect no_shear #
lump $-1 $-1 $44 $2 #
transform $-1 1 0 0 0 1 0 0 0 1 49.120151371806998 27.76959270262882 10.297385666472106 1 rotate no_reflect no_shear #
lump $-1 $-1 $45 $3 #
transform $-1 1 0 0 0 1 0 0 0 1 49.120151371806998 27.76959270262882 10.297385666472106 1 rotate no_reflect no_shear #
lump $-1 $-1 $46 $4 #
transform $-1 1 0 0 0 1 0 0 0 1 49.120151371806998 27.76959270262882 10.297385666472106 1 rotate no_reflect no_shear #
lump $-1 $-1 $47 $5 #
transform $-1 1 0 0 0 1 0 0 0 1 49.120151371806998 27.76959270262882 10.297385666472106 1 rotate no_reflect no_shear #
lump $-1 $-1 $48 $6 #
transform $-1 1 0 0 0 1 0 0 0 1 49.120151371806998 27.76959270262882 10.297385666472106 1 rotate no_reflect no_shear #
lump $-1 $-1 $49 $7 #
transform $-1 1 0 0 0 1 0 0 0 1 49.120151371806998 27.76959270262882 10.297385666472106 1 rotate no_reflect no_shear #
lump $-1 $-1 $50 $8 #
transform $-1 1 0 0 0 1 0 0 0 1 49.120151371806998 27.76959270262882 10.297385666472106 1 rotate no_reflect no_shear #
lump $-1 $-1 $51 $9 #
transform $-1 1 0 0 0 1 0 0 0 1 49.120151371806998 27.76959270262882 10.297385666472106 1 rotate no_reflect no_shear #
lump $-1 $-1 $52 $10 #
transform $-1 1 0 0 0 1 0 0 0 1 49.120151371806998 27.76959270262882 10.297385666472106 1 rotate no_reflect no_shear #
lump $-1 $-1 $53 $11 #
transform $-1 1 0 0 0 1 0 0 0 1 49.120151371806998 27.76959270262882 10.297385666472106 1 rotate no_reflect no_shear #
lump $-1 $-1 $54 $12 #
transform $-1 1 0 0 0 1 0 0 0 1 49.120151371806998 27.76959270262882 10.297385666472106 1 rotate no_reflect no_shear #
lump $-1 $-1 $55 $13 #
transform $-1 1 0 0 0 1 0 0 0 1 49.120151371806998 27.76959270262882 10.297385666472106 1 rotate no_reflect no_shear #
shell $-1 $-1 $-1 $56 $-1 $14 #
shell $-1 $-1 $-1 $57 $-1 $16 #
shell $-1 $-1 $-1 $58 $-1 $18 #
shell $-1 $-1 $-1 $59 $-1 $20 #
shell $-1 $-1 $-1 $60 $-1 $22 #
shell $-1 $-1 $-1 $61 $-1 $24 #
shell $-1 $-1 $-1 $62 $-1 $26 #
shell $-1 $-1 $-1 $63 $-1 $28 #
shell $-1 $-1 $-1 $64 $-1 $30 #
shell $-1 $-1 $-1 $65 $-1 $32 #
shell $-1 $-1 $-1 $66 $-1 $34 #
shell $-1 $-1 $-1 $67 $-1 $36 #
shell $-1 $-1 $-1 $68 $-1 $38 #
shell $-1 $-1 $-1 $69 $-1 $40 #
face $-1 $70 $71 $42 $-1 $72 forward single #
face $-1 $73 $74 $43 $-1 $75 forward single #
face $-1 $76 $77 $44 $-1 $78 forward single #
face $-1 $79 $80 $45 $-1 $81 reversed single #
face $-1 $82 $83 $46 $-1 $84 forward single #
face $-1 $85 $86 $47 $-1 $87 forward single #
face $-1 $88 $89 $48 $-1 $90 reversed single #
face $-1 $91 $92 $49 $-1 $93 forward single #
face $-1 $94 $95 $50 $-1 $96 forward single #
face $-1 $97 $98 $51 $-1 $99 forward single #
face $-1 $100 $101 $52 $-1 $102 reversed single #
face $-1 $103 $104 $53 $-1 $105 forward single #
face $-1 $106 $107 $54 $-1 $108 forward single #
face $-1 $109 $110 $55 $-1 $111 forward single #
face $-1 $112 $113 $42 $-1 $114 reversed single #
loop $-1 $-1 $115 $56 #
plane-surface $-1 0 0 10.297385666472106 0 0 1 1 0 0 forward_v I I I I #
face $-1 $116 $117 $43 $-1 $118 reversed single #
loop $-1 $-1 $119 $57 #
plane-surface $-1 0 -23.594800566072671 3.0923714296987095 0 0 1 1 0 0 forward_v I I I I #
face $-1 $120 $121 $44 $-1 $122 reversed single #
loop $-1 $-1 $123 $58 #
plane-surface $-1 0 24.009936022219186 -5.2501676655888421 0 0 1 1 0 0 forward_v I I I I #
face $-1 $124 $125 $45 $-1 $126 reversed single #
loop $-1 $-1 $127 $59 #
plane-surface $-1 20.234405716838566 0.15232675097274395 138.27079328506505 0 1 0 0.54463904215088732 0 0.83867056331134215 forward_v I I I I #
face $-1 $128 $129 $46 $-1 $130 forward single #
loop $-1 $131 $132 $60 #
cone-surface $-1 41.958031446500407 2.5392831540643925 4.7008715916402135 -0.54463904215088732 0 -0.83867056331134215 0.83867056331134215 0 -0.54463904215088732 1 I I 0 1 1 forward I I I I #
face $-1 $133 $134 $47 $-1 $135 forward single #
loop $-1 $136 $137 $61 #
cone-surface $-1 41.958031446500407 6.1197177587018601 4.7008715916402135 -0.54463904215088732 0 -0.83867056331134215 0.83867056331134215 0 -0.54463904215088732 1 I I 0 1 1 forward I I I I #
face $-1 $138 $139 $48 $-1 $140 reversed single #
loop $-1 $-1 $141 $62 #
plane-surface $-1 -129.59389699487758 -6.2673814728829527 61.355851038811267 0 -1 0 0.81915205242281985 0 -0.57357642473473569 forward_v I I I I #
face $-1 $142 $143 $49 $-1 $144 forward single #
loop $-1 $145 $146 $63 #
cone-surface $-1 -46.858576793775384 -11.469671767180248 7.365669334004239 0.81915205242281985 0 -0.57357642473473569 0.28678821236736785 0 0.40957602621140993 1 I I 0 1 0.5 forward I I I I #
face $-1 $147 $148 $50 $-1 $149 forward single #
loop $-1 $150 $151 $64 #
cone-surface $-1 -46.858576793775384 -9.5188129068187628 7.365669334004239 0.81915205242281985 0 -0.57357642473473569 0.28678821236736785 0 0.40957602621140993 1 I I 0 1 0.5 forward I I I I #
face $-1 $152 $153 $51 $-1 $154 forward single #
loop $-1 $155 $156 $65 #
cone-surface $-1 -46.858576793775384 -7.5679540464572774 7.365669334004239 0.81915205242281985 0 -0.57357642473473569 0.28678821236736785 0 0.40957602621140993 1 I I 0 1 0.5 forward I I I I #
face $-1 $157 $158 $52 $-1 $159 reversed single #
loop $-1 $-1 $160 $66 #
plane-surface $-1 -129.59389699487758 13.567762412780088 61.355851038811267 0 -1 0 0.81915205242281985 0 -0.57357642473473569 forward_v I I I I #
face $-1 $161 $162 $53 $-1 $163 forward single #
loop $-1 $164 $165 $67 #
cone-surface $-1 -46.858576793775384 8.365472118482792 7.365669334004239 0.81915205242281985 0 -0.57357642473473569 0.28678821236736785 0 0.40957602621140993 1 I I 0 1 0.5 forward I I I I #
face $-1 $166 $167 $54 $-1 $168 forward single #
loop $-1 $169 $170 $68 #
cone-surface $-1 -46.858576793775384 10.316330978844277 7.365669334004239 0.81915205242281985 0 -0.57357642473473569 0.28678821236736785 0 0.40957602621140993 1 I I 0 1 0.5 forward I I I I #
face $-1 $171 $172 $55 $-1 $173 forward single #
loop $-1 $174 $175 $69 #
cone-surface $-1 -46.858576793775384 12.267189839205763 7.365669334004239 0.81915205242281985 0 -0.57357642473473569 0.28678821236736785 0 0.40957602621140993 1 I I 0 1 0.5 forward I I I I #
face $-1 $176 $177 $42 $-1 $178 reversed single #
loop $-1 $-1 $179 $70 #
plane-surface $-1 0 0 -10.297385666472106 0 0 1 1 0 0 forward_v I I I I #
coedge $-1 $180 $181 $182 $183 forward $71 $-1 #
face $-1 $184 $185 $43 $-1 $186 reversed single #
loop $-1 $-1 $187 $73 #
plane-surface $-1 0 -23.594800566072671 -1.8706246601577741 0 0 1 1 0 0 forward_v I I I I #
coedge $-1 $188 $189 $190 $191 reversed $74 $-1 #
face $-1 $192 $193 $44 $-1 $194 reversed single #
loop $-1 $-1 $195 $76 #
plane-surface $-1 0 20.250279341809556 -7.7737766660304741 0 1 0 0 0 1 forward_v I I I I #
coedge $-1 $196 $197 $198 $199 reversed $77 $-1 #
face $-1 $200 $201 $45 $-1 $202 reversed single #
loop $-1 $-1 $203 $79 #
plane-surface $-1 -33.271098670056546 4.3295004563831228 55.87954324320151 0.54463904215088732 0 0.83867056331134215 0.83867056331134215 0 -0.54463904215088732 forward_v I I I I #
coedge $-1 $204 $205 $206 $207 reversed $80 $-1 #
face $-1 $-1 $208 $46 $-1 $209 forward single #
loop $-1 $210 $211 $82 #
cone-surface $-1 40.624033961045413 2.5392831540643925 2.646695640235496 -0.54463904215088732 0 -0.83867056331134215 0.41933528165567108 0 -0.27231952107544366 1 I I -0.70710678118654746 0.70710678118654746 0.5 forward I I I I #
loop $-1 $-1 $212 $60 #
coedge $-1 $132 $132 $213 $214 reversed $83 $-1 #
face $-1 $-1 $215 $47 $-1 $216 forward single #
loop $-1 $217 $218 $85 #
cone-surface $-1 40.624033961045413 6.1197177587018601 2.646695640235496 -0.54463904215088732 0 -0.83867056331134215 0.41933528165567108 0 -0.27231952107544366 1 I I -0.70710678118654746 0.70710678118654746 0.5 forward I I I I #
loop $-1 $-1 $219 $61 #
coedge $-1 $137 $137 $220 $221 reversed $86 $-1 #
face $-1 $222 $223 $48 $-1 $224 reversed single #
loop $-1 $-1 $225 $88 #
plane-surface $-1 -49.120151371806998 -9.5188129068187628 5.0075294262711054 -0.81915205242281985 0 0.57357642473473569 0.57357642473473569 0 0.81915205242281985 forward_v I I I I #
coedge $-1 $226 $227 $228 $229 reversed $89 $-1 #
face $-1 $-1 $230 $49 $-1 $231 forward single #
loop $-1 $232 $233 $91 #
cone-surface $-1 -46.244212754458268 -11.469671767180248 6.9354870154531874 0.81915205242281985 0 -0.57357642473473569 0.14339410618368392 0 0.20478801310570496 1 I I -0.70710678118654746 0.70710678118654746 0.25 forward I I I I #
loop $-1 $-1 $234 $63 #
coedge $-1 $146 $146 $235 $236 reversed $92 $-1 #
face $-1 $-1 $237 $50 $-1 $238 forward single #
loop $-1 $239 $240 $94 #
cone-surface $-1 -46.244212754458268 -9.5188129068187628 6.9354870154531874 0.81915205242281985 0 -0.57357642473473569 0.14339410618368392 0 0.20478801310570496 1 I I -0.70710678118654746 0.70710678118654746 0.25 forward I I I I #
loop $-1 $-1 $241 $64 #
coedge $-1 $151 $151 $242 $243 reversed $95 $-1 #
face $-1 $-1 $244 $51 $-1 $245 forward single #
loop $-1 $246 $247 $97 #
cone-surface $-1 -46.244212754458268 -7.5679540464572774 6.9354870154531874 0.81915205242281985 0 -0.57357642473473569 0.14339410618368392 0 0.20478801310570496 1 I I -0.70710678118654746 0.70710678118654746 0.25 forward I I I I #
loop $-1 $-1 $248 $65 #
coedge $-1 $156 $156 $249 $250 reversed $98 $-1 #
face $-1 $251 $252 $52 $-1 $253 reversed single #
loop $-1 $-1 $254 $100 #
plane-surface $-1 -49.120151371806998 10.316330978844277 5.0075294262711054 -0.81915205242281985 0 0.57357642473473569 0.57357642473473569 0 0.81915205242281985 forward_v I I I I #
coedge $-1 $255 $256 $257 $258 reversed $101 $-1 #
face $-1 $-1 $259 $53 $-1 $260 forward single #
loop $-1 $261 $262 $103 #
cone-surface $-1 -46.244212754458268 8.365472118482792 6.9354870154531874 0.81915205242281985 0 -0.57357642473473569 0.14339410618368392 0 0.20478801310570496 1 I I -0.70710678118654746 0.70710678118654746 0.25 forward I I I I #
loop $-1 $-1 $263 $67 #
coedge $-1 $165 $165 $264 $265 reversed $104 $-1 #
face $-1 $-1 $266 $54 $-1 $267 forward single #
loop $-1 $268 $269 $106 #
cone-surface $-1 -46.244212754458268 10.316330978844277 6.9354870154531874 0.81915205242281985 0 -0.57357642473473569 0.14339410618368392 0 0.20478801310570496 1 I I -0.70710678118654746 0.70710678118654746 0.25 forward I I I I #
loop $-1 $-1 $270 $68 #
coedge $-1 $170 $170 $271 $272 reversed $107 $-1 #
face $-1 $-1 $273 $55 $-1 $274 forward single #
loop $-1 $275 $276 $109 #
cone-surface $-1 -46.244212754458268 12.267189839205763 6.9354870154531874 0.81915205242281985 0 -0.57357642473473569 0.14339410618368392 0 0.20478801310570496 1 I I -0.70710678118654746 0.70710678118654746 0.25 forward I I I I #
loop $-1 $-1 $277 $69 #
coedge $-1 $175 $175 $278 $279 reversed $110 $-1 #
face $-1 $280 $281 $42 $-1 $282 reversed single #
loop $-1 $-1 $283 $112 #
plane-surface $-1 0 -27.76959270262882 0 0 1 0 0 0 1 forward_v I I I I #
coedge $-1 $284 $285 $286 $287 forward $113 $-1 #
coedge $-1 $288 $115 $289 $290 forward $71 $-1 #
coedge $-1 $115 $288 $291 $292 forward $71 $-1 #
coedge $-1 $293 $294 $115 $183 reversed $295 $-1 #
edge $-1 $296 -27.76959270262882 $297 27.76959270262882 $182 $298 forward 7 unknown #
face $-1 $299 $300 $43 $-1 $301 reversed single #
loop $-1 $-1 $302 $116 #
plane-surface $-1 0 -19.420008429516521 0.61087338477046771 0 -1 0 0 0 -1 forward_v I I I I #
coedge $-1 $303 $304 $305 $306 reversed $117 $-1 #
coedge $-1 $307 $119 $308 $309 forward $74 $-1 #
coedge $-1 $119 $307 $310 $311 reversed $74 $-1 #
coedge $-1 $312 $313 $119 $191 forward $314 $-1 #
edge $-1 $315 7.6226081464801858 $316 15.972192419592485 $190 $317 forward 7 unknown #
face $-1 $318 $319 $44 $-1 $320 reversed single #
loop $-1 $-1 $198 $120 #
plane-surface $-1 49.120151371806998 0 0 -1 0 0 0 0 1 forward_v I I I I #
coedge $-1 $321 $322 $323 $324 reversed $121 $-1 #
coedge $-1 $325 $123 $326 $327 reversed $77 $-1 #
coedge $-1 $123 $325 $322 $328 forward $77 $-1 #
coedge $-1 $329 $330 $123 $199 forward $193 $-1 #
edge $-1 $331 -15.764624691519224 $332 -8.2453113306999626 $198 $333 forward 7 unknown #
face $-1 $334 $335 $45 $-1 $336 forward single #
loop $-1 $-1 $337 $124 #
plane-surface $-1 20.234405716838566 8.5066741617935016 138.27079328506505 0 -1 0 -0.54463904215088732 0 -0.83867056331134215 forward_v I I I I #
coedge $-1 $338 $339 $340 $341 reversed $125 $-1 #
coedge $-1 $205 $127 $342 $343 reversed $80 $-1 #
coedge $-1 $127 $204 $338 $344 reversed $80 $-1 #
coedge $-1 $340 $345 $127 $207 forward $346 $-1 #
edge $-1 $347 58.838010976060417 $348 66.761357786226128 $206 $349 forward 7 unknown #
loop $-1 $-1 $213 $128 #
plane-surface $-1 -33.271098670056546 4.3295004563831228 55.87954324320151 0.54463904215088732 0 0.83867056331134215 0.83867056331134215 0 -0.54463904215088732 forward_v I I I I #
loop $-1 $-1 $350 $82 #
coedge $-1 $211 $211 $212 $351 reversed $129 $-1 #
coedge $-1 $212 $212 $211 $351 forward $131 $-1 #
coedge $-1 $213 $213 $132 $214 forward $208 $-1 #
edge $-1 $352 0 $352 6.2831853071796004 $213 $353 forward 7 unknown #
loop $-1 $-1 $220 $133 #
plane-surface $-1 -33.271098670056546 4.3295004563831228 55.87954324320151 0.54463904215088732 0 0.83867056331134215 0.83867056331134215 0 -0.54463904215088732 forward_v I I I I #
loop $-1 $-1 $354 $85 #
coedge $-1 $218 $218 $219 $355 reversed $134 $-1 #
coedge $-1 $219 $219 $218 $355 forward $136 $-1 #
coedge $-1 $220 $220 $137 $221 forward $215 $-1 #
edge $-1 $356 0 $356 6.2831853071796004 $220 $357 forward 7 unknown #
face $-1 $358 $359 $48 $-1 $360 reversed single #
loop $-1 $-1 $361 $138 #
plane-surface $-1 -129.59389699487758 -12.770244340754573 61.355851038811267 0 1 0 -0.81915205242281985 0 0.57357642473473569 forward_v I I I I #
coedge $-1 $362 $363 $364 $365 reversed $139 $-1 #
coedge $-1 $227 $141 $366 $367 reversed $89 $-1 #
coedge $-1 $141 $226 $362 $368 reversed $89 $-1 #
coedge $-1 $364 $369 $141 $229 forward $359 $-1 #
edge $-1 $370 20.380539852933527 $371 25.670396093134528 $228 $372 forward 7 unknown #
loop $-1 $-1 $235 $142 #
plane-surface $-1 -49.120151371806998 -9.5188129068187628 5.0075294262711054 -0.81915205242281985 0 0.57357642473473569 0.57357642473473569 0 0.81915205242281985 forward_v I I I I #
loop $-1 $-1 $373 $91 #
coedge $-1 $233 $233 $234 $374 reversed $143 $-1 #
coedge $-1 $234 $234 $233 $374 forward $145 $-1 #
coedge $-1 $235 $235 $146 $236 forward $230 $-1 #
edge $-1 $375 0 $375 6.2831853071796004 $235 $376 forward 7 unknown #
loop $-1 $-1 $242 $147 #
plane-surface $-1 -49.120151371806998 -9.5188129068187628 5.0075294262711054 -0.81915205242281985 0 0.57357642473473569 0.57357642473473569 0 0.81915205242281985 forward_v I I I I #
loop $-1 $-1 $377 $94 #
coedge $-1 $240 $240 $241 $378 reversed $148 $-1 #
coedge $-1 $241 $241 $240 $378 forward $150 $-1 #
coedge $-1 $242 $242 $151 $243 forward $237 $-1 #
edge $-1 $379 0 $379 6.2831853071796004 $242 $380 forward 7 unknown #
loop $-1 $-1 $249 $152 #
plane-surface $-1 -49.120151371806998 -9.5188129068187628 5.0075294262711054 -0.81915205242281985 0 0.57357642473473569 0.57357642473473569 0 0.81915205242281985 forward_v I I I I #
loop $-1 $-1 $381 $97 #
coedge $-1 $247 $247 $248 $382 reversed $153 $-1 #
coedge $-1 $248 $248 $247 $382 forward $155 $-1 #
coedge $-1 $249 $249 $156 $250 forward $244 $-1 #
edge $-1 $383 0 $383 6.2831853071796004 $249 $384 forward 7 unknown #
face $-1 $385 $386 $52 $-1 $387 forward single #
loop $-1 $-1 $388 $157 #
plane-surface $-1 -129.59389699487758 7.0648995449084673 61.355851038811267 0 1 0 -0.81915205242281985 0 0.57357642473473569 forward_v I I I I #
coedge $-1 $389 $390 $391 $392 reversed $158 $-1 #
coedge $-1 $256 $160 $393 $394 reversed $101 $-1 #
coedge $-1 $160 $255 $389 $395 reversed $101 $-1 #
coedge $-1 $391 $396 $160 $258 forward $397 $-1 #
edge $-1 $398 20.380539852933527 $399 25.670396093134528 $257 $400 forward 7 unknown #
loop $-1 $-1 $264 $161 #
plane-surface $-1 -49.120151371806998 10.316330978844277 5.0075294262711054 -0.81915205242281985 0 0.57357642473473569 0.57357642473473569 0 0.81915205242281985 forward_v I I I I #
loop $-1 $-1 $401 $103 #
coedge $-1 $262 $262 $263 $402 reversed $162 $-1 #
coedge $-1 $263 $263 $262 $402 forward $164 $-1 #
coedge $-1 $264 $264 $165 $265 forward $259 $-1 #
edge $-1 $403 0 $403 6.2831853071796004 $264 $404 forward 7 unknown #
loop $-1 $-1 $271 $166 #
plane-surface $-1 -49.120151371806998 10.316330978844277 5.0075294262711054 -0.81915205242281985 0 0.57357642473473569 0.57357642473473569 0 0.81915205242281985 forward_v I I I I #
loop $-1 $-1 $405 $106 #
coedge $-1 $269 $269 $270 $406 reversed $167 $-1 #
coedge $-1 $270 $270 $269 $406 forward $169 $-1 #
coedge $-1 $271 $271 $170 $272 forward $266 $-1 #
edge $-1 $407 0 $407 6.2831853071796004 $271 $408 forward 7 unknown #
loop $-1 $-1 $278 $171 #
plane-surface $-1 -49.120151371806998 10.316330978844277 5.0075294262711054 -0.81915205242281985 0 0.57357642473473569 0.57357642473473569 0 0.81915205242281985 forward_v I I I I #
loop $-1 $-1 $409 $109 #
coedge $-1 $276 $276 $277 $410 reversed $172 $-1 #
coedge $-1 $277 $277 $276 $410 forward $174 $-1 #
coedge $-1 $278 $278 $175 $279 forward $273 $-1 #
edge $-1 $411 0 $411 6.2831853071796004 $278 $412 forward 7 unknown #
face $-1 $413 $414 $42 $-1 $415 reversed single #
loop $-1 $-1 $416 $176 #
plane-surface $-1 -49.120151371806998 0 0 1 0 0 0 0 -1 forward_v I I I I #
coedge $-1 $417 $291 $418 $419 forward $177 $-1 #
coedge $-1 $420 $179 $417 $421 forward $113 $-1 #
coedge $-1 $179 $420 $422 $423 forward $113 $-1 #
coedge $-1 $294 $293 $179 $287 reversed $295 $-1 #
edge $-1 $424 -27.76959270262882 $425 27.76959270262882 $286 $426 forward 7 unknown #
coedge $-1 $181 $180 $427 $428 forward $71 $-1 #
coedge $-1 $429 $430 $180 $290 reversed $414 $-1 #
edge $-1 $297 -49.120151371806998 $431 49.120151371806998 $289 $432 forward 7 unknown #
coedge $-1 $283 $433 $181 $292 reversed $177 $-1 #
edge $-1 $434 -49.120151371806998 $296 49.120151371806998 $291 $435 forward 7 unknown #
coedge $-1 $286 $182 $433 $436 forward $295 $-1 #
coedge $-1 $182 $286 $429 $437 reversed $295 $-1 #
loop $-1 $-1 $293 $413 #
vertex $-1 $183 $438 #
vertex $-1 $183 $439 #
straight-curve $-1 49.120151371806998 0 10.297385666472106 0 1 0 I I #
face $-1 $440 $441 $43 $-1 $442 reversed single #
loop $-1 $-1 $443 $184 #
plane-surface $-1 -49.120151371806998 0 0 1 0 0 0 0 -1 forward_v I I I I #
coedge $-1 $444 $308 $313 $445 reversed $185 $-1 #
coedge $-1 $446 $187 $447 $448 reversed $117 $-1 #
coedge $-1 $187 $446 $444 $449 forward $117 $-1 #
coedge $-1 $313 $312 $187 $306 forward $314 $-1 #
edge $-1 $450 -15.972192419592485 $451 -7.6226081464801858 $305 $452 forward 7 unknown #
coedge $-1 $189 $188 $443 $453 reversed $74 $-1 #
coedge $-1 $302 $454 $188 $309 reversed $185 $-1 #
edge $-1 $315 -49.120151371806998 $455 49.120151371806998 $308 $456 forward 7 unknown #
coedge $-1 $457 $458 $189 $311 forward $441 $-1 #
edge $-1 $316 -49.120151371806998 $459 49.120151371806998 $310 $460 forward 7 unknown #
coedge $-1 $305 $190 $458 $461 forward $314 $-1 #
coedge $-1 $190 $305 $302 $445 forward $314 $-1 #
loop $-1 $-1 $190 $440 #
vertex $-1 $191 $462 #
vertex $-1 $461 $463 #
straight-curve $-1 49.120151371806998 -11.797400283036335 3.0923714296987095 0 -1 0 I I #
face $-1 $464 $465 $44 $-1 $466 reversed single #
loop $-1 $-1 $467 $192 #
plane-surface $-1 0 0 -10.297385666472106 0 0 1 1 0 0 forward_v I I I I #
coedge $-1 $468 $195 $467 $469 reversed $121 $-1 #
coedge $-1 $195 $468 $197 $328 reversed $121 $-1 #
coedge $-1 $470 $471 $195 $324 forward $465 $-1 #
edge $-1 $472 -6.4104973334568687 $473 -1.363279332573605 $323 $474 forward 7 unknown #
coedge $-1 $197 $196 $470 $475 reversed $77 $-1 #
coedge $-1 $476 $477 $196 $327 forward $478 $-1 #
edge $-1 $479 -49.120151371806998 $331 49.120151371806998 $326 $480 forward 7 unknown #
edge $-1 $473 -49.120151371806998 $332 49.120151371806998 $322 $481 forward 7 unknown #
coedge $-1 $482 $198 $468 $483 forward $193 $-1 #
coedge $-1 $198 $482 $476 $484 reversed $193 $-1 #
vertex $-1 $484 $485 #
vertex $-1 $199 $486 #
straight-curve $-1 49.120151371806998 12.004968011109593 -5.2501676655888421 0 -1 0 I I #
face $-1 $-1 $346 $45 $-1 $487 reversed single #
loop $-1 $-1 $488 $200 #
plane-surface $-1 0 0 10.297385666472106 0 0 1 1 0 0 forward_v I I I I #
coedge $-1 $489 $490 $491 $492 reversed $201 $-1 #
coedge $-1 $493 $203 $205 $344 forward $125 $-1 #
coedge $-1 $203 $493 $489 $494 forward $125 $-1 #
coedge $-1 $491 $206 $203 $341 forward $346 $-1 #
edge $-1 $348 -2.0124234772188174 $495 6.3419239336019402 $340 $496 forward 7 unknown #
coedge $-1 $497 $498 $204 $343 forward $335 $-1 #
edge $-1 $499 26.802064591533558 $347 39.002948513387715 $342 $500 forward 7 unknown #
edge $-1 $348 -98.240302743613995 $499 -83.692416534658335 $205 $501 forward 7 unknown #
coedge $-1 $206 $491 $497 $502 reversed $346 $-1 #
loop $-1 $-1 $491 $334 #
vertex $-1 $502 $503 #
vertex $-1 $207 $504 #
straight-curve $-1 49.120151371806998 0.15232675097274395 69.135396642532527 0 0 -1 I I #
coedge $-1 $350 $350 $-1 $505 reversed $210 $-1 #
edge $-1 $506 0 $506 6.2831853071796004 $211 $507 forward 7 unknown #
vertex $-1 $214 $508 #
ellipse-curve $-1 43.019709410879948 2.5392831540643925 6.3357122613892436 0.54463904215088732 0 0.83867056331134215 0.83867056331134215 0 -0.54463904215088732 1 I I #
coedge $-1 $354 $354 $-1 $509 reversed $217 $-1 #
edge $-1 $510 0 $510 6.2831853071796004 $218 $511 forward 7 unknown #
vertex $-1 $221 $512 #
ellipse-curve $-1 43.019709410879948 6.1197177587018601 6.3357122613892436 0.54463904215088732 0 0.83867056331134215 0.83867056331134215 0 -0.54463904215088732 1 I I #
face $-1 $-1 $513 $48 $-1 $514 forward single #
loop $-1 $-1 $228 $222 #
plane-surface $-1 -49.120151371806998 0 0 1 0 0 0 0 -1 forward_v I I I I #
coedge $-1 $515 $516 $517 $518 reversed $223 $-1 #
coedge $-1 $519 $225 $227 $368 forward $139 $-1 #
coedge $-1 $225 $519 $515 $520 forward $139 $-1 #
coedge $-1 $517 $228 $225 $365 forward $359 $-1 #
edge $-1 $371 1.5079750194735713 $521 8.0108378873451915 $364 $522 forward 7 unknown #
coedge $-1 $523 $524 $226 $367 forward $513 $-1 #
edge $-1 $525 -19.380794229272205 $370 -15.676797125631794 $366 $526 forward 7 unknown #
edge $-1 $371 0 $525 6.4577220121161938 $227 $527 forward 7 unknown #
coedge $-1 $228 $517 $523 $528 reversed $359 $-1 #
vertex $-1 $528 $529 #
vertex $-1 $229 $530 #
straight-curve $-1 -49.120151371806998 -6.2673814728829527 30.677925519405633 0 0 -1 I I #
coedge $-1 $373 $373 $-1 $531 reversed $232 $-1 #
edge $-1 $532 0 $532 6.2831853071796004 $233 $533 forward 7 unknown #
vertex $-1 $236 $534 #
ellipse-curve $-1 -47.268152819986796 -11.469671767180248 7.6524575463716058 -0.81915205242281985 0 0.57357642473473569 0.28678821236736785 0 0.40957602621140993 1 I I #
coedge $-1 $377 $377 $-1 $535 reversed $239 $-1 #
edge $-1 $536 0 $536 6.2831853071796004 $240 $537 forward 7 unknown #
vertex $-1 $243 $538 #
ellipse-curve $-1 -47.268152819986796 -9.5188129068187628 7.6524575463716058 -0.81915205242281985 0 0.57357642473473569 0.28678821236736785 0 0.40957602621140993 1 I I #
coedge $-1 $381 $381 $-1 $539 reversed $246 $-1 #
edge $-1 $540 0 $540 6.2831853071796004 $247 $541 forward 7 unknown #
vertex $-1 $250 $542 #
ellipse-curve $-1 -47.268152819986796 -7.5679540464572774 7.6524575463716058 -0.81915205242281985 0 0.57357642473473569 0.28678821236736785 0 0.40957602621140993 1 I I #
face $-1 $-1 $397 $52 $-1 $543 reversed single #
loop $-1 $-1 $544 $251 #
plane-surface $-1 0 0 10.297385666472106 0 0 1 1 0 0 forward_v I I I I #
coedge $-1 $545 $546 $547 $548 reversed $252 $-1 #
coedge $-1 $549 $254 $256 $395 forward $158 $-1 #
coedge $-1 $254 $549 $545 $550 forward $158 $-1 #
coedge $-1 $547 $257 $254 $392 forward $397 $-1 #
edge $-1 $399 -8.4095969233579488 $551 -1.9067340554863286 $391 $552 forward 7 unknown #
coedge $-1 $553 $554 $255 $394 forward $386 $-1 #
edge $-1 $555 -19.380794229272205 $398 -15.676797125631794 $393 $556 forward 7 unknown #
edge $-1 $399 0 $555 6.4577220121161938 $256 $557 forward 7 unknown #
coedge $-1 $257 $547 $553 $558 reversed $397 $-1 #
loop $-1 $-1 $547 $385 #
vertex $-1 $558 $559 #
vertex $-1 $258 $560 #
straight-curve $-1 -49.120151371806998 13.567762412780088 30.677925519405633 0 0 -1 I I #
coedge $-1 $401 $401 $-1 $561 reversed $261 $-1 #
edge $-1 $562 0 $562 6.2831853071796004 $262 $563 forward 7 unknown #
vertex $-1 $265 $564 #
ellipse-curve $-1 -47.268152819986796 8.365472118482792 7.6524575463716058 -0.81915205242281985 0 0.57357642473473569 0.28678821236736785 0 0.40957602621140993 1 I I #
coedge $-1 $405 $405 $-1 $565 reversed $268 $-1 #
edge $-1 $566 0 $566 6.2831853071796004 $269 $567 forward 7 unknown #
vertex $-1 $272 $568 #
ellipse-curve $-1 -47.268152819986796 10.316330978844277 7.6524575463716058 -0.81915205242281985 0 0.57357642473473569 0.28678821236736785 0 0.40957602621140993 1 I I #
coedge $-1 $409 $409 $-1 $569 reversed $275 $-1 #
edge $-1 $570 0 $570 6.2831853071796004 $276 $571 forward 7 unknown #
vertex $-1 $279 $572 #
ellipse-curve $-1 -47.268152819986796 12.267189839205763 7.6524575463716058 -0.81915205242281985 0 0.57357642473473569 0.28678821236736785 0 0.40957602621140993 1 I I #
face $-1 $-1 $295 $42 $-1 $573 reversed single #
loop $-1 $-1 $429 $280 #
plane-surface $-1 0 27.76959270262882 0 0 -1 0 0 0 -1 forward_v I I I I #
coedge $-1 $574 $427 $430 $575 forward $281 $-1 #
coedge $-1 $433 $283 $284 $421 reversed $177 $-1 #
coedge $-1 $427 $574 $283 $419 reversed $281 $-1 #
edge $-1 $434 -10.297385666472106 $576 10.297385666472106 $418 $577 forward 7 unknown #
coedge $-1 $285 $284 $574 $578 forward $113 $-1 #
edge $-1 $425 -49.120151371806998 $576 49.120151371806998 $417 $579 forward 7 unknown #
coedge $-1 $430 $429 $285 $423 reversed $414 $-1 #
edge $-1 $580 -49.120151371806998 $424 49.120151371806998 $422 $581 forward 7 unknown #
vertex $-1 $287 $582 #
vertex $-1 $436 $583 #
straight-curve $-1 49.120151371806998 0 -10.297385666472106 0 -1 0 I I #
coedge $-1 $416 $418 $288 $428 reversed $281 $-1 #
edge $-1 $431 -27.76959270262882 $434 27.76959270262882 $427 $584 forward 7 unknown #
coedge $-1 $422 $289 $294 $437 forward $414 $-1 #
coedge $-1 $289 $422 $416 $575 reversed $414 $-1 #
vertex $-1 $290 $585 #
straight-curve $-1 0 27.76959270262882 10.297385666472106 -1 0 0 I I #
coedge $-1 $291 $417 $293 $436 reversed $177 $-1 #
vertex $-1 $428 $586 #
straight-curve $-1 0 -27.76959270262882 10.297385666472106 1 0 0 I I #
edge $-1 $296 -10.297385666472106 $425 10.297385666472106 $293 $587 forward 7 unknown #
edge $-1 $297 -10.297385666472106 $424 10.297385666472106 $294 $588 forward 7 unknown #
point $-1 49.120151371806998 -27.76959270262882 10.297385666472106 #
point $-1 49.120151371806998 27.76959270262882 10.297385666472106 #
face $-1 $-1 $314 $43 $-1 $589 reversed single #
loop $-1 $-1 $310 $299 #
plane-surface $-1 0 -27.76959270262882 0 0 1 0 0 0 1 forward_v I I I I #
coedge $-1 $590 $591 $307 $453 forward $300 $-1 #
coedge $-1 $454 $302 $304 $449 reversed $185 $-1 #
edge $-1 $451 -2.1760613525430079 $315 2.7869347373134756 $313 $592 forward 7 unknown #
coedge $-1 $304 $303 $593 $594 reversed $117 $-1 #
coedge $-1 $458 $457 $303 $448 forward $441 $-1 #
edge $-1 $595 -49.120151371806998 $450 49.120151371806998 $447 $596 forward 7 unknown #
edge $-1 $597 -49.120151371806998 $451 49.120151371806998 $444 $598 forward 7 unknown #
vertex $-1 $448 $599 #
vertex $-1 $306 $600 #
straight-curve $-1 49.120151371806998 -11.797400283036335 -1.8706246601577741 0 1 0 I I #
edge $-1 $459 -15.972192419592485 $455 -7.6226081464801858 $443 $601 forward 7 unknown #
coedge $-1 $308 $444 $590 $602 reversed $185 $-1 #
vertex $-1 $453 $603 #
straight-curve $-1 0 -19.420008429516521 3.0923714296987095 -1 0 0 I I #
coedge $-1 $447 $310 $591 $604 forward $441 $-1 #
coedge $-1 $310 $447 $312 $461 reversed $441 $-1 #
vertex $-1 $604 $605 #
straight-curve $-1 0 -27.76959270262882 3.0923714296987095 -1 0 0 I I #
edge $-1 $316 -3.0923714296987095 $450 1.8706246601577741 $312 $606 forward 7 unknown #
point $-1 49.120151371806998 -19.420008429516521 3.0923714296987095 #
point $-1 49.120151371806998 -27.76959270262882 3.0923714296987095 #
face $-1 $-1 $478 $44 $-1 $607 reversed single #
loop $-1 $-1 $470 $318 #
plane-surface $-1 -49.120151371806998 0 0 1 0 0 0 0 -1 forward_v I I I I #
coedge $-1 $608 $609 $321 $469 forward $319 $-1 #
coedge $-1 $322 $321 $329 $483 reversed $121 $-1 #
edge $-1 $610 -49.120151371806998 $472 49.120151371806998 $467 $611 forward 7 unknown #
coedge $-1 $612 $323 $325 $475 forward $465 $-1 #
coedge $-1 $323 $612 $608 $613 reversed $465 $-1 #
vertex $-1 $613 $614 #
vertex $-1 $475 $615 #
straight-curve $-1 -49.120151371806998 20.250279341809556 -3.8868883330152371 0 0 1 I I #
edge $-1 $473 8.2453113306999626 $479 15.764624691519224 $470 $616 forward 7 unknown #
coedge $-1 $617 $326 $330 $484 forward $478 $-1 #
coedge $-1 $326 $617 $612 $618 reversed $478 $-1 #
loop $-1 $-1 $326 $464 #
vertex $-1 $618 $619 #
straight-curve $-1 0 27.76959270262882 -5.2501676655888421 1 0 0 I I #
straight-curve $-1 0 20.250279341809556 -5.2501676655888421 1 0 0 I I #
coedge $-1 $330 $329 $609 $620 reversed $193 $-1 #
edge $-1 $332 1.363279332573605 $610 6.4104973334568687 $329 $621 forward 7 unknown #
edge $-1 $331 5.2501676655888421 $622 10.297385666472106 $330 $623 forward 7 unknown #
point $-1 49.120151371806998 27.769592702628817 -5.2501676655888421 #
point $-1 49.120151371806998 20.250279341809556 -5.2501676655888421 #
plane-surface $-1 49.120151371806998 0 0 -1 0 0 0 0 1 forward_v I I I I #
coedge $-1 $498 $497 $490 $624 forward $335 $-1 #
coedge $-1 $490 $337 $339 $494 reversed $201 $-1 #
coedge $-1 $337 $489 $488 $624 reversed $201 $-1 #
coedge $-1 $345 $340 $337 $492 forward $346 $-1 #
edge $-1 $495 -66.761357786226128 $625 -58.838010976060417 $491 $626 forward 7 unknown #
coedge $-1 $339 $338 $498 $627 reversed $125 $-1 #
edge $-1 $628 83.692416534658335 $495 98.240302743613995 $489 $629 forward 7 unknown #
vertex $-1 $341 $630 #
straight-curve $-1 49.120151371806998 2.1647502281915614 2.3740388563063952 0 1 0 I I #
coedge $-1 $488 $342 $345 $502 forward $335 $-1 #
coedge $-1 $342 $488 $493 $627 forward $335 $-1 #
vertex $-1 $343 $631 #
straight-curve $-1 10.117202858419283 0.15232675097274395 10.29738566647211 1 0 0 I I #
straight-curve $-1 -33.271098670056546 0.15232675097274395 55.87954324320151 -0.83867056331134215 0 0.54463904215088732 I I #
edge $-1 $347 0.15232675097274395 $625 8.5066741617935016 $345 $632 forward 7 unknown #
point $-1 49.120151371806998 0.15232675097274395 10.297385666472106 #
point $-1 49.120151371806998 0.15232675097274395 2.3740388563063988 #
edge $-1 $633 1 $633 0 $350 $-1 forward 7 unknown #
vertex $-1 $351 $634 #
ellipse-curve $-1 40.896353482120858 2.5392831540643925 3.066030921891167 0.54463904215088732 0 0.83867056331134215 0.83867056331134215 0 -0.54463904215088732 1 I I #
point $-1 43.858379974191294 2.5392831540643925 5.7910732192383723 #
edge $-1 $635 1 $635 0 $354 $-1 forward 7 unknown #
vertex $-1 $355 $636 #
ellipse-curve $-1 40.896353482120858 6.1197177587018601 3.066030921891167 0.54463904215088732 0 0.83867056331134215 0.83867056331134215 0 -0.54463904215088732 1 I I #
point $-1 43.858379974191294 6.1197177587018601 5.7910732192383723 #
loop $-1 $-1 $366 $358 #
plane-surface $-1 0 0 10.297385666472106 0 0 1 1 0 0 forward_v I I I I #
coedge $-1 $516 $361 $363 $520 reversed $223 $-1 #
coedge $-1 $361 $515 $637 $638 reversed $223 $-1 #
coedge $-1 $369 $364 $361 $518 forward $359 $-1 #
edge $-1 $521 -25.670396093134528 $639 -20.380539852933527 $517 $640 forward 7 unknown #
coedge $-1 $363 $362 $524 $641 reversed $139 $-1 #
edge $-1 $642 -6.4577220121161938 $521 0 $515 $643 forward 7 unknown #
vertex $-1 $365 $644 #
straight-curve $-1 -49.120151371806998 -4.7594064534093814 5.0075294262711108 0 -1 0 I I #
coedge $-1 $637 $366 $369 $528 forward $513 $-1 #
coedge $-1 $366 $637 $519 $641 forward $513 $-1 #
vertex $-1 $367 $645 #
straight-curve $-1 -64.796948497438791 -6.2673814728829527 10.297385666472106 -1 0 0 I I #
straight-curve $-1 -49.120151371806998 -6.2673814728829527 5.0075294262711054 0.57357642473473569 0 0.81915205242281985 I I #
edge $-1 $370 6.2673814728829527 $639 12.770244340754573 $369 $646 forward 7 unknown #
point $-1 -49.120151371806998 -6.2673814728829527 10.297385666472106 #
point $-1 -49.120151371806998 -6.2673814728829527 5.0075294262711054 #
edge $-1 $647 1 $647 0 $373 $-1 forward 7 unknown #
vertex $-1 $374 $648 #
ellipse-curve $-1 -46.449000767563973 -11.469671767180248 7.0788811216368712 -0.81915205242281985 0 0.57357642473473569 0.28678821236736785 0 0.40957602621140993 1 I I #
point $-1 -46.981364607619426 -11.469671767180248 8.062033572583017 #
edge $-1 $649 1 $649 0 $377 $-1 forward 7 unknown #
vertex $-1 $378 $650 #
ellipse-curve $-1 -46.449000767563973 -9.5188129068187628 7.0788811216368712 -0.81915205242281985 0 0.57357642473473569 0.28678821236736785 0 0.40957602621140993 1 I I #
point $-1 -46.981364607619426 -9.5188129068187628 8.062033572583017 #
edge $-1 $651 1 $651 0 $381 $-1 forward 7 unknown #
vertex $-1 $382 $652 #
ellipse-curve $-1 -46.449000767563973 -7.5679540464572774 7.0788811216368712 -0.81915205242281985 0 0.57357642473473569 0.28678821236736785 0 0.40957602621140993 1 I I #
point $-1 -46.981364607619426 -7.5679540464572774 8.062033572583017 #
plane-surface $-1 -49.120151371806998 0 0 1 0 0 0 0 -1 forward_v I I I I #
coedge $-1 $554 $553 $546 $653 forward $386 $-1 #
coedge $-1 $546 $388 $390 $550 reversed $252 $-1 #
coedge $-1 $388 $545 $544 $653 reversed $252 $-1 #
coedge $-1 $396 $391 $388 $548 forward $397 $-1 #
edge $-1 $551 -25.670396093134528 $654 -20.380539852933527 $547 $655 forward 7 unknown #
coedge $-1 $390 $389 $554 $656 reversed $158 $-1 #
edge $-1 $657 -6.4577220121161938 $551 0 $545 $658 forward 7 unknown #
vertex $-1 $392 $659 #
straight-curve $-1 -49.120151371806998 5.1581654894221387 5.0075294262711108 0 -1 0 I I #
coedge $-1 $544 $393 $396 $558 forward $386 $-1 #
coedge $-1 $393 $544 $549 $656 forward $386 $-1 #
vertex $-1 $394 $660 #
straight-curve $-1 -64.796948497438791 13.567762412780088 10.297385666472106 -1 0 0 I I #
straight-curve $-1 -49.120151371806998 13.567762412780088 5.0075294262711054 0.57357642473473569 0 0.81915205242281985 I I #
edge $-1 $398 -13.567762412780088 $654 -7.0648995449084673 $396 $661 forward 7 unknown #
point $-1 -49.120151371806998 13.567762412780088 10.297385666472106 #
point $-1 -49.120151371806998 13.567762412780088 5.0075294262711054 #
edge $-1 $662 1 $662 0 $401 $-1 forward 7 unknown #
vertex $-1 $402 $663 #
ellipse-curve $-1 -46.449000767563973 8.365472118482792 7.0788811216368712 -0.81915205242281985 0 0.57357642473473569 0.28678821236736785 0 0.40957602621140993 1 I I #
point $-1 -46.981364607619426 8.365472118482792 8.062033572583017 #
edge $-1 $664 1 $664 0 $405 $-1 forward 7 unknown #
vertex $-1 $406 $665 #
ellipse-curve $-1 -46.449000767563973 10.316330978844277 7.0788811216368712 -0.81915205242281985 0 0.57357642473473569 0.28678821236736785 0 0.40957602621140993 1 I I #
point $-1 -46.981364607619426 10.316330978844277 8.062033572583017 #
edge $-1 $666 1 $666 0 $409 $-1 forward 7 unknown #
vertex $-1 $410 $667 #
ellipse-curve $-1 -46.449000767563973 12.267189839205763 7.0788811216368712 -0.81915205242281985 0 0.57357642473473569 0.28678821236736785 0 0.40957602621140993 1 I I #
point $-1 -46.981364607619426 12.267189839205763 8.062033572583017 #
plane-surface $-1 49.120151371806998 0 0 -1 0 0 0 0 1 forward_v I I I I #
coedge $-1 $418 $416 $420 $578 reversed $281 $-1 #
edge $-1 $431 -10.297385666472106 $580 10.297385666472106 $430 $668 forward 7 unknown #
vertex $-1 $578 $669 #
straight-curve $-1 -49.120151371806998 -27.76959270262882 0 0 0 -1 I I #
edge $-1 $576 -27.76959270262882 $580 27.76959270262882 $574 $670 forward 7 unknown #
straight-curve $-1 0 -27.76959270262882 -10.297385666472106 -1 0 0 I I #
vertex $-1 $423 $671 #
straight-curve $-1 0 27.76959270262882 -10.297385666472106 1 0 0 I I #
point $-1 49.120151371806998 27.76959270262882 -10.297385666472106 #
point $-1 49.120151371806998 -27.76959270262882 -10.297385666472106 #
straight-curve $-1 -49.120151371806998 0 10.297385666472106 0 -1 0 I I #
point $-1 -49.120151371806998 27.76959270262882 10.297385666472106 #
point $-1 -49.120151371806998 -27.76959270262882 10.297385666472106 #
straight-curve $-1 49.120151371806998 -27.76959270262882 0 0 0 -1 I I #
straight-curve $-1 49.120151371806998 27.76959270262882 0 0 0 -1 I I #
plane-surface $-1 49.120151371806998 0 0 -1 0 0 0 0 1 forward_v I I I I #
coedge $-1 $593 $443 $454 $602 forward $300 $-1 #
coedge $-1 $443 $593 $457 $604 reversed $300 $-1 #
straight-curve $-1 49.120151371806998 -19.420008429516521 0.30543669238523385 0 0 1 I I #
coedge $-1 $591 $590 $446 $594 forward $300 $-1 #
edge $-1 $597 7.6226081464801858 $595 15.972192419592485 $593 $672 forward 7 unknown #
vertex $-1 $448 $673 #
straight-curve $-1 0 -27.76959270262882 -1.8706246601577741 1 0 0 I I #
vertex $-1 $594 $674 #
straight-curve $-1 0 -19.420008429516521 -1.8706246601577741 1 0 0 I I #
point $-1 49.120151371806998 -27.76959270262882 -1.8706246601577741 #
point $-1 49.120151371806998 -19.420008429516521 -1.8706246601577741 #
straight-curve $-1 -49.120151371806998 -11.797400283036335 3.0923714296987095 0 1 0 I I #
edge $-1 $455 -2.7869347373134756 $597 2.1760613525430079 $590 $675 forward 7 unknown #
point $-1 -49.120151371806998 -19.420008429516521 3.0923714296987095 #
edge $-1 $459 -3.0923714296987095 $595 1.8706246601577741 $591 $676 forward 7 unknown #
point $-1 -49.120151371806998 -27.76959270262882 3.0923714296987095 #
straight-curve $-1 49.120151371806998 -27.76959270262882 0 0 0 -1 I I #
plane-surface $-1 0 27.76959270262882 0 0 -1 0 0 0 -1 forward_v I I I I #
coedge $-1 $677 $467 $471 $613 forward $319 $-1 #
coedge $-1 $467 $677 $482 $620 forward $319 $-1 #
vertex $-1 $469 $678 #
straight-curve $-1 0 20.250279341809556 -10.297385666472106 -1 0 0 I I #
coedge $-1 $471 $470 $477 $618 forward $465 $-1 #
edge $-1 $472 20.250279341809556 $679 27.76959270262882 $471 $680 forward 7 unknown #
point $-1 -49.120151371806998 20.250279341809556 -10.297385666472106 #
point $-1 -49.120151371806998 20.250279341809556 -5.2501676655888421 #
straight-curve $-1 -49.120151371806998 12.004968011109593 -5.2501676655888421 0 1 0 I I #
coedge $-1 $477 $476 $677 $681 reversed $478 $-1 #
edge $-1 $479 5.2501676655888421 $679 10.297385666472106 $477 $682 forward 7 unknown #
point $-1 -49.120151371806998 27.769592702628817 -5.2501676655888421 #
edge $-1 $622 -27.76959270262882 $610 -20.250279341809556 $482 $683 forward 7 unknown #
straight-curve $-1 49.120151371806998 20.250279341809556 -3.8868883330152371 0 0 -1 I I #
vertex $-1 $620 $684 #
straight-curve $-1 49.120151371806998 27.76959270262882 0 0 0 -1 I I #
edge $-1 $625 -39.002948513387715 $628 -26.802064591533558 $488 $685 forward 7 unknown #
vertex $-1 $624 $686 #
straight-curve $-1 49.120151371806998 8.5066741617935016 69.135396642532527 0 0 1 I I #
edge $-1 $628 -6.3419239336019402 $499 2.0124234772188174 $498 $687 forward 7 unknown #
vertex $-1 $627 $688 #
straight-curve $-1 -33.271098670056546 8.5066741617935016 55.87954324320151 0.83867056331134215 0 -0.54463904215088732 I I #
point $-1 49.120151371806998 8.5066741617935016 2.3740388563063988 #
point $-1 36.919267449952841 0.15232675097274395 10.29738566647211 #
straight-curve $-1 49.120151371806998 0 10.297385666472106 0 1 0 I I #
vertex $-1 $505 $689 #
point $-1 41.735024045432198 2.5392831540643925 2.5213918797402797 #
vertex $-1 $509 $690 #
point $-1 41.735024045432198 6.1197177587018601 2.5213918797402797 #
coedge $-1 $524 $523 $516 $638 forward $513 $-1 #
edge $-1 $639 15.676797125631794 $642 19.380794229272205 $637 $691 forward 7 unknown #
vertex $-1 $638 $692 #
straight-curve $-1 -49.120151371806998 -12.770244340754573 30.677925519405633 0 0 1 I I #
edge $-1 $642 -8.0108378873451915 $525 -1.5079750194735713 $524 $693 forward 7 unknown #
vertex $-1 $641 $694 #
straight-curve $-1 -49.120151371806998 -12.770244340754573 5.0075294262711054 -0.57357642473473569 0 -0.81915205242281985 I I #
point $-1 -49.120151371806998 -12.770244340754573 5.0075294262711054 #
point $-1 -45.416154268166586 -6.2673814728829527 10.297385666472106 #
straight-curve $-1 -49.120151371806998 0 10.297385666472106 0 -1 0 I I #
vertex $-1 $531 $695 #
point $-1 -46.162212555196604 -11.469671767180248 7.4884571478482815 #
vertex $-1 $535 $696 #
point $-1 -46.162212555196604 -9.5188129068187628 7.4884571478482815 #
vertex $-1 $539 $697 #
point $-1 -46.162212555196604 -7.5679540464572774 7.4884571478482815 #
edge $-1 $654 15.676797125631794 $657 19.380794229272205 $544 $698 forward 7 unknown #
vertex $-1 $653 $699 #
straight-curve $-1 -49.120151371806998 7.0648995449084673 30.677925519405633 0 0 1 I I #
edge $-1 $657 1.9067340554863286 $555 8.4095969233579488 $554 $700 forward 7 unknown #
vertex $-1 $656 $701 #
straight-curve $-1 -49.120151371806998 7.0648995449084673 5.0075294262711054 -0.57357642473473569 0 -0.81915205242281985 I I #
point $-1 -49.120151371806998 7.0648995449084673 5.0075294262711054 #
point $-1 -45.416154268166586 13.567762412780088 10.297385666472106 #
straight-curve $-1 -49.120151371806998 0 10.297385666472106 0 -1 0 I I #
vertex $-1 $561 $702 #
point $-1 -46.162212555196604 8.365472118482792 7.4884571478482815 #
vertex $-1 $565 $703 #
point $-1 -46.162212555196604 10.316330978844277 7.4884571478482815 #
vertex $-1 $569 $704 #
point $-1 -46.162212555196604 12.267189839205763 7.4884571478482815 #
straight-curve $-1 -49.120151371806998 27.76959270262882 0 0 0 -1 I I #
point $-1 -49.120151371806998 -27.76959270262882 -10.297385666472106 #
straight-curve $-1 -49.120151371806998 0 -10.297385666472106 0 1 0 I I #
point $-1 -49.120151371806998 27.76959270262882 -10.297385666472106 #
straight-curve $-1 -49.120151371806998 -11.797400283036335 -1.8706246601577741 0 -1 0 I I #
point $-1 -49.120151371806998 -27.76959270262882 -1.8706246601577741 #
point $-1 -49.120151371806998 -19.420008429516521 -1.8706246601577741 #
straight-curve $-1 -49.120151371806998 -19.420008429516521 0.30543669238523385 0 0 -1 I I #
straight-curve $-1 -49.120151371806998 -27.76959270262882 0 0 0 -1 I I #
coedge $-1 $609 $608 $617 $681 forward $319 $-1 #
point $-1 49.120151371806998 20.250279341809556 -10.297385666472106 #
vertex $-1 $681 $705 #
straight-curve $-1 -49.120151371806998 0 -10.297385666472106 0 1 0 I I #
edge $-1 $679 -49.120151371806998 $622 49.120151371806998 $617 $706 forward 7 unknown #
straight-curve $-1 -49.120151371806998 27.76959270262882 0 0 0 -1 I I #
straight-curve $-1 49.120151371806998 0 -10.297385666472106 0 -1 0 I I #
point $-1 49.120151371806998 27.76959270262882 -10.297385666472106 #
straight-curve $-1 10.117202858419283 8.5066741617935016 10.29738566647211 -1 0 0 I I #
point $-1 49.120151371806998 8.5066741617935016 10.297385666472106 #
straight-curve $-1 36.919267449952855 2.1647502281915614 10.297385666472103 0 -1 0 I I #
point $-1 36.919267449952841 8.5066741617935016 10.29738566647211 #
point $-1 40.351714439969967 2.5392831540643925 2.227360358579825 #
point $-1 40.351714439969967 6.1197177587018601 2.227360358579825 #
straight-curve $-1 -64.796948497438791 -12.770244340754573 10.297385666472106 1 0 0 I I #
point $-1 -49.120151371806998 -12.770244340754573 10.297385666472106 #
straight-curve $-1 -45.416154268166594 -4.7594064534093814 10.297385666472106 0 1 0 I I #
point $-1 -45.416154268166586 -12.770244340754573 10.297385666472106 #
point $-1 -46.039424741352562 -11.469671767180248 6.7920929092695035 #
point $-1 -46.039424741352562 -9.5188129068187628 6.7920929092695035 #
point $-1 -46.039424741352562 -7.5679540464572774 6.7920929092695035 #
straight-curve $-1 -64.796948497438791 7.0648995449084673 10.297385666472106 1 0 0 I I #
point $-1 -49.120151371806998 7.0648995449084673 10.297385666472106 #
straight-curve $-1 -45.416154268166594 5.1581654894221387 10.297385666472106 0 1 0 I I #
point $-1 -45.416154268166586 7.0648995449084673 10.297385666472106 #
point $-1 -46.039424741352562 8.365472118482792 6.7920929092695035 #
point $-1 -46.039424741352562 10.316330978844277 6.7920929092695035 #
point $-1 -46.039424741352562 12.267189839205763 6.7920929092695035 #
point $-1 -49.120151371806998 27.76959270262882 -10.297385666472106 #
straight-curve $-1 0 27.76959270262882 -10.297385666472106 1 0 0 I I #
End-of-ACIS-data 