500 0 10 0           
7 Unknown 11 ACIS 5.0 NT 24 Fri Mar 26 14:40:22 1999 
-1 9.9999999999999995e-007 1e-010 
body $-1 $10 $-1 $11 #
body $-1 $12 $-1 $13 #
body $-1 $14 $-1 $15 #
body $-1 $16 $-1 $17 #
body $-1 $18 $-1 $19 #
body $-1 $20 $-1 $21 #
body $-1 $22 $-1 $23 #
body $-1 $24 $-1 $25 #
body $-1 $26 $-1 $27 #
body $-1 $28 $-1 $29 #
lump $-1 $-1 $30 $0 #
transform $-1 1 0 0 0 1 0 0 0 1 65.839411603137307 28.297866311547097 10.129266456133792 1 rotate no_reflect no_shear #
lump $-1 $-1 $31 $1 #
transform $-1 1 0 0 0 1 0 0 0 1 65.839411603137307 28.297866311547097 10.129266456133792 1 rotate no_reflect no_shear #
lump $-1 $-1 $32 $2 #
transform $-1 1 0 0 0 1 0 0 0 1 65.839411603137307 28.297866311547097 10.129266456133792 1 rotate no_reflect no_shear #
lump $-1 $-1 $33 $3 #
transform $-1 1 0 0 0 1 0 0 0 1 65.839411603137307 28.297866311547097 10.129266456133792 1 rotate no_reflect no_shear #
lump $-1 $-1 $34 $4 #
transform $-1 1 0 0 0 1 0 0 0 1 65.839411603137307 28.297866311547097 10.129266456133792 1 rotate no_reflect no_shear #
lump $-1 $-1 $35 $5 #
transform $-1 1 0 0 0 1 0 0 0 1 65.839411603137307 28.297866311547097 10.129266456133792 1 rotate no_reflect no_shear #
lump $-1 $-1 $36 $6 #
transform $-1 1 0 0 0 1 0 0 0 1 65.839411603137307 28.297866311547097 10.129266456133792 1 rotate no_reflect no_shear #
lump $-1 $-1 $37 $7 #
transform $-1 1 0 0 0 1 0 0 0 1 65.839411603137307 28.297866311547097 10.129266456133792 1 rotate no_reflect no_shear #
lump $-1 $-1 $38 $8 #
transform $-1 1 0 0 0 1 0 0 0 1 65.839411603137307 28.297866311547097 10.129266456133792 1 rotate no_reflect no_shear #
lump $-1 $-1 $39 $9 #
transform $-1 1 0 0 0 1 0 0 0 1 65.839411603137307 28.297866311547097 10.129266456133792 1 rotate no_reflect no_shear #
shell $-1 $-1 $-1 $40 $-1 $10 #
shell $-1 $-1 $-1 $41 $-1 $12 #
shell $-1 $-1 $-1 $42 $-1 $14 #
shell $-1 $-1 $-1 $43 $-1 $16 #
shell $-1 $-1 $-1 $44 $-1 $18 #
shell $-1 $-1 $-1 $45 $-1 $20 #
shell $-1 $-1 $-1 $46 $-1 $22 #
shell $-1 $-1 $-1 $47 $-1 $24 #
shell $-1 $-1 $-1 $48 $-1 $26 #
shell $-1 $-1 $-1 $49 $-1 $28 #
face $-1 $50 $51 $30 $-1 $52 forward single #
face $-1 $53 $54 $31 $-1 $55 forward single #
face $-1 $56 $57 $32 $-1 $58 forward single #
face $-1 $59 $60 $33 $-1 $61 reversed single #
face $-1 $62 $63 $34 $-1 $64 forward single #
face $-1 $65 $66 $35 $-1 $67 forward single #
face $-1 $68 $69 $36 $-1 $70 reversed single #
face $-1 $71 $72 $37 $-1 $73 forward single #
face $-1 $74 $75 $38 $-1 $76 forward single #
face $-1 $77 $78 $39 $-1 $79 forward single #
face $-1 $80 $81 $30 $-1 $82 reversed single #
loop $-1 $-1 $83 $40 #
plane-surface $-1 0 0 10.129266456133792 0 0 1 1 0 0 forward_v I I I I #
face $-1 $84 $85 $31 $-1 $86 reversed single #
loop $-1 $-1 $87 $41 #
plane-surface $-1 -60.287663506119415 0 9.6292664561337915 0 0 1 1 0 0 forward_v I I I I #
face $-1 $88 $89 $32 $-1 $90 reversed single #
loop $-1 $-1 $91 $42 #
plane-surface $-1 60.287663506119415 0 9.6292664561337915 0 0 1 1 0 0 forward_v I I I I #
face $-1 $92 $93 $33 $-1 $94 reversed single #
loop $-1 $-1 $95 $43 #
plane-surface $-1 40.942772090381709 -9.5720700553453639 43.824226501614888 0 0.74314483375859142 0.66913059716165679 1 0 0 forward_v I I I I #
face $-1 $96 $97 $34 $-1 $98 forward single #
loop $-1 $99 $100 $44 #
cone-surface $-1 35.031424953787507 22.441546848288795 4.0646875118389243 0 -0.74314483375859142 -0.66913059716165679 1.5 0 0 1 I I 0 1 1.5 forward I I I I #
face $-1 $101 $102 $35 $-1 $103 forward single #
loop $-1 $104 $105 $45 #
cone-surface $-1 46.854119226975911 22.441546848288795 4.0646875118389243 0 -0.74314483375859142 -0.66913059716165679 1.5 0 0 1 I I 0 1 1.5 forward I I I I #
face $-1 $106 $107 $36 $-1 $108 reversed single #
loop $-1 $-1 $109 $46 #
plane-surface $-1 -31.667492601999658 -121.40885621969345 93.45149197442727 1 0 0 0 0.70710678939079041 -0.70710677298230451 forward_v I I I I #
face $-1 $110 $111 $37 $-1 $112 forward single #
loop $-1 $113 $114 $47 #
cone-surface $-1 -27.686388959933332 -23.045141190178875 4.8765412295063619 0 0.70710678939079041 -0.70710677298230451 1 0 0 1 I I 0 1 1 forward I I I I #
face $-1 $115 $116 $38 $-1 $117 forward single #
loop $-1 $118 $119 $48 #
cone-surface $-1 -21.714733496833851 -23.045141190178875 4.8765412295063619 0 0.70710678939079041 -0.70710677298230451 1 0 0 1 I I 0 1 1 forward I I I I #
face $-1 $120 $121 $39 $-1 $122 forward single #
loop $-1 $123 $124 $49 #
cone-surface $-1 -15.743078033734371 -23.045141190178875 4.8765412295063619 0 0.70710678939079041 -0.70710677298230451 1 0 0 1 I I 0 1 1 forward I I I I #
face $-1 $125 $126 $30 $-1 $127 reversed single #
loop $-1 $-1 $128 $50 #
plane-surface $-1 0 0 -10.129266456133792 0 0 1 1 0 0 forward_v I I I I #
coedge $-1 $129 $130 $131 $132 forward $51 $-1 #
face $-1 $133 $134 $31 $-1 $135 reversed single #
loop $-1 $-1 $136 $53 #
plane-surface $-1 -60.287663506119415 0 3.738792127643868 0 0 1 1 0 0 forward_v I I I I #
coedge $-1 $137 $138 $139 $140 forward $54 $-1 #
face $-1 $141 $142 $32 $-1 $143 reversed single #
loop $-1 $-1 $144 $56 #
plane-surface $-1 60.287663506119415 0 3.738792127643868 0 0 1 1 0 0 forward_v I I I I #
coedge $-1 $145 $146 $147 $148 reversed $57 $-1 #
face $-1 $149 $150 $33 $-1 $151 forward single #
loop $-1 $-1 $152 $59 #
plane-surface $-1 27.149628771661895 88.284367125808529 131.93455610717365 1 0 0 0 -0.74314483375859142 -0.66913059716165679 forward_v I I I I #
coedge $-1 $153 $154 $155 $156 reversed $60 $-1 #
face $-1 $-1 $157 $34 $-1 $158 forward single #
loop $-1 $159 $160 $62 #
cone-surface $-1 35.031424953787507 19.793298172001485 1.680193752749787 0 -0.74314483375859142 -0.66913059716165679 0.75 0 0 1 I I -0.70710678118654757 0.70710678118654757 0.75 forward I I I I #
loop $-1 $-1 $161 $44 #
coedge $-1 $100 $100 $162 $163 reversed $63 $-1 #
face $-1 $-1 $164 $35 $-1 $165 forward single #
loop $-1 $166 $167 $65 #
cone-surface $-1 46.854119226975911 19.793298172001485 1.680193752749787 0 -0.74314483375859142 -0.66913059716165679 0.75 0 0 1 I I -0.70710678118654757 0.70710678118654757 0.75 forward I I I I #
loop $-1 $-1 $168 $45 #
coedge $-1 $105 $105 $169 $170 reversed $66 $-1 #
face $-1 $171 $172 $36 $-1 $173 reversed single #
loop $-1 $-1 $174 $68 #
plane-surface $-1 -21.714733496833858 -28.297866311547097 0.34050422693103144 0 -0.70710678939079041 0.70710677298230451 1 0 0 forward_v I I I I #
coedge $-1 $175 $176 $177 $178 reversed $69 $-1 #
face $-1 $-1 $179 $37 $-1 $180 forward single #
loop $-1 $181 $182 $71 #
cone-surface $-1 -27.686388959933332 -22.333243675142015 4.1646437309891571 0 0.70710678939079041 -0.70710677298230451 0.5 0 0 1 I I -0.70710678118654746 0.70710678118654746 0.5 forward I I I I #
loop $-1 $-1 $183 $47 #
coedge $-1 $114 $114 $184 $185 reversed $72 $-1 #
face $-1 $-1 $186 $38 $-1 $187 forward single #
loop $-1 $188 $189 $74 #
cone-surface $-1 -21.714733496833851 -22.333243675142015 4.1646437309891571 0 0.70710678939079041 -0.70710677298230451 0.5 0 0 1 I I -0.70710678118654746 0.70710678118654746 0.5 forward I I I I #
loop $-1 $-1 $190 $48 #
coedge $-1 $119 $119 $191 $192 reversed $75 $-1 #
face $-1 $-1 $193 $39 $-1 $194 forward single #
loop $-1 $195 $196 $77 #
cone-surface $-1 -15.743078033734371 -22.333243675142015 4.1646437309891571 0 0.70710678939079041 -0.70710677298230451 0.5 0 0 1 I I -0.70710678118654746 0.70710678118654746 0.5 forward I I I I #
loop $-1 $-1 $197 $49 #
coedge $-1 $124 $124 $198 $199 reversed $78 $-1 #
face $-1 $200 $201 $30 $-1 $202 reversed single #
loop $-1 $-1 $203 $80 #
plane-surface $-1 0 -28.297866311547097 0 0 1 0 0 0 1 forward_v I I I I #
coedge $-1 $204 $205 $206 $207 forward $81 $-1 #
coedge $-1 $208 $83 $209 $210 forward $51 $-1 #
coedge $-1 $83 $208 $211 $212 forward $51 $-1 #
coedge $-1 $213 $214 $83 $132 reversed $215 $-1 #
edge $-1 $216 -28.297866311547097 $217 28.297866311547097 $131 $218 forward 7 unknown #
face $-1 $219 $220 $31 $-1 $221 reversed single #
loop $-1 $-1 $222 $84 #
plane-surface $-1 -54.735915409101523 0 6.6840292918888302 -1 0 0 0 0 1 forward_v I I I I #
coedge $-1 $223 $224 $225 $226 forward $85 $-1 #
coedge $-1 $227 $87 $228 $229 reversed $54 $-1 #
coedge $-1 $87 $227 $230 $231 reversed $54 $-1 #
coedge $-1 $222 $232 $87 $140 reversed $134 $-1 #
edge $-1 $233 -28.297866311547097 $234 28.297866311547097 $139 $235 forward 7 unknown #
face $-1 $236 $237 $32 $-1 $238 reversed single #
loop $-1 $-1 $239 $88 #
plane-surface $-1 54.735915409101523 0 6.6840292918888302 1 0 0 0 0 -1 forward_v I I I I #
coedge $-1 $240 $241 $242 $243 reversed $89 $-1 #
coedge $-1 $244 $91 $245 $246 reversed $57 $-1 #
coedge $-1 $91 $244 $247 $248 reversed $57 $-1 #
coedge $-1 $249 $250 $91 $148 forward $251 $-1 #
edge $-1 $252 -28.297866311547097 $253 28.297866311547097 $147 $254 forward 7 unknown #
face $-1 $255 $256 $33 $-1 $257 reversed single #
loop $-1 $-1 $258 $92 #
plane-surface $-1 54.735915409101523 0 6.6840292918888302 1 0 0 0 0 -1 forward_v I I I I #
coedge $-1 $259 $260 $261 $262 reversed $93 $-1 #
coedge $-1 $263 $95 $258 $264 forward $60 $-1 #
coedge $-1 $95 $263 $259 $265 forward $60 $-1 #
coedge $-1 $261 $266 $95 $156 forward $256 $-1 #
edge $-1 $267 -34.264529363910668 $268 -6.6782427264710407 $155 $269 forward 7 unknown #
loop $-1 $-1 $162 $96 #
plane-surface $-1 40.942772090381709 -9.5720700553453639 43.824226501614888 0 0.74314483375859142 0.66913059716165679 1 0 0 forward_v I I I I #
loop $-1 $-1 $270 $62 #
coedge $-1 $160 $160 $161 $271 reversed $97 $-1 #
coedge $-1 $161 $161 $160 $271 forward $99 $-1 #
coedge $-1 $162 $162 $100 $163 forward $157 $-1 #
edge $-1 $272 1.1412338447944289e-015 $272 6.2831853071796013 $162 $273 forward 7 unknown #
loop $-1 $-1 $169 $101 #
plane-surface $-1 40.942772090381709 -9.5720700553453639 43.824226501614888 0 0.74314483375859142 0.66913059716165679 1 0 0 forward_v I I I I #
loop $-1 $-1 $274 $65 #
coedge $-1 $167 $167 $168 $275 reversed $102 $-1 #
coedge $-1 $168 $168 $167 $275 forward $104 $-1 #
coedge $-1 $169 $169 $105 $170 forward $164 $-1 #
edge $-1 $276 1.1412338447944289e-015 $276 6.2831853071796013 $169 $277 forward 7 unknown #
face $-1 $278 $279 $36 $-1 $280 forward single #
loop $-1 $-1 $281 $106 #
plane-surface $-1 -11.761974391668058 -121.40885621969345 93.45149197442727 -1 0 0 0 -0.70710678939079041 0.70710677298230451 forward_v I I I I #
coedge $-1 $282 $283 $284 $285 reversed $107 $-1 #
coedge $-1 $176 $109 $286 $287 reversed $69 $-1 #
coedge $-1 $109 $175 $282 $288 reversed $69 $-1 #
coedge $-1 $284 $289 $109 $178 forward $290 $-1 #
edge $-1 $291 36.596479531079844 $292 46.385241760282604 $177 $293 forward 7 unknown #
loop $-1 $-1 $184 $110 #
plane-surface $-1 -21.714733496833858 -28.297866311547097 0.34050422693103144 0 -0.70710678939079041 0.70710677298230451 1 0 0 forward_v I I I I #
loop $-1 $-1 $294 $71 #
coedge $-1 $182 $182 $183 $295 reversed $111 $-1 #
coedge $-1 $183 $183 $182 $295 forward $113 $-1 #
coedge $-1 $184 $184 $114 $185 forward $179 $-1 #
edge $-1 $296 -6.2803693246568909e-016 $296 6.2831853071795996 $184 $297 forward 7 unknown #
loop $-1 $-1 $191 $115 #
plane-surface $-1 -21.714733496833858 -28.297866311547097 0.34050422693103144 0 -0.70710678939079041 0.70710677298230451 1 0 0 forward_v I I I I #
loop $-1 $-1 $298 $74 #
coedge $-1 $189 $189 $190 $299 reversed $116 $-1 #
coedge $-1 $190 $190 $189 $299 forward $118 $-1 #
coedge $-1 $191 $191 $119 $192 forward $186 $-1 #
edge $-1 $300 -6.2803693246568909e-016 $300 6.2831853071795996 $191 $301 forward 7 unknown #
loop $-1 $-1 $198 $120 #
plane-surface $-1 -21.714733496833858 -28.297866311547097 0.34050422693103144 0 -0.70710678939079041 0.70710677298230451 1 0 0 forward_v I I I I #
loop $-1 $-1 $302 $77 #
coedge $-1 $196 $196 $197 $303 reversed $121 $-1 #
coedge $-1 $197 $197 $196 $303 forward $123 $-1 #
coedge $-1 $198 $198 $124 $199 forward $193 $-1 #
edge $-1 $304 -6.2803693246568909e-016 $304 6.2831853071795996 $198 $305 forward 7 unknown #
face $-1 $306 $307 $30 $-1 $308 reversed single #
loop $-1 $-1 $309 $125 #
plane-surface $-1 -65.839411603137307 0 0 1 0 0 0 0 -1 forward_v I I I I #
coedge $-1 $310 $211 $311 $312 forward $126 $-1 #
coedge $-1 $313 $128 $310 $314 forward $81 $-1 #
coedge $-1 $128 $313 $315 $316 forward $81 $-1 #
coedge $-1 $214 $213 $128 $207 reversed $215 $-1 #
edge $-1 $317 -28.297866311547097 $318 28.297866311547097 $206 $319 forward 7 unknown #
coedge $-1 $130 $129 $320 $321 forward $51 $-1 #
coedge $-1 $322 $323 $129 $210 reversed $307 $-1 #
edge $-1 $217 -65.839411603137307 $324 65.839411603137307 $209 $325 forward 7 unknown #
coedge $-1 $203 $326 $130 $212 reversed $126 $-1 #
edge $-1 $327 -65.839411603137307 $216 65.839411603137307 $211 $328 forward 7 unknown #
coedge $-1 $206 $131 $326 $329 forward $215 $-1 #
coedge $-1 $131 $206 $322 $330 reversed $215 $-1 #
loop $-1 $-1 $213 $306 #
vertex $-1 $132 $331 #
vertex $-1 $132 $332 #
straight-curve $-1 65.839411603137307 0 10.129266456133792 0 1 0 I I #
face $-1 $333 $334 $31 $-1 $335 reversed single #
loop $-1 $-1 $336 $133 #
plane-surface $-1 0 -28.297866311547097 0 0 1 0 0 0 1 forward_v I I I I #
coedge $-1 $225 $139 $337 $338 reversed $134 $-1 #
coedge $-1 $339 $136 $336 $340 reversed $85 $-1 #
coedge $-1 $136 $339 $341 $342 reversed $85 $-1 #
coedge $-1 $232 $222 $136 $226 reversed $134 $-1 #
edge $-1 $343 -28.297866311547097 $344 28.297866311547097 $225 $345 forward 7 unknown #
coedge $-1 $138 $137 $346 $347 reversed $54 $-1 #
coedge $-1 $348 $349 $137 $229 forward $350 $-1 #
edge $-1 $351 -35.6955798500776 $234 -24.592083656041815 $228 $352 forward 7 unknown #
coedge $-1 $353 $337 $138 $231 forward $220 $-1 #
edge $-1 $233 24.592083656041815 $354 35.6955798500776 $230 $355 forward 7 unknown #
coedge $-1 $139 $225 $348 $356 reversed $134 $-1 #
vertex $-1 $231 $357 #
vertex $-1 $229 $358 #
straight-curve $-1 -54.735915409101523 0 9.6292664561337915 0 1 0 I I #
face $-1 $359 $360 $32 $-1 $361 reversed single #
loop $-1 $-1 $247 $141 #
plane-surface $-1 0 -28.297866311547097 0 0 1 0 0 0 1 forward_v I I I I #
coedge $-1 $362 $363 $364 $365 reversed $142 $-1 #
coedge $-1 $364 $144 $366 $367 reversed $89 $-1 #
coedge $-1 $144 $364 $368 $369 reversed $89 $-1 #
coedge $-1 $250 $249 $144 $243 forward $251 $-1 #
edge $-1 $370 -28.297866311547097 $371 28.297866311547097 $242 $372 forward 7 unknown #
coedge $-1 $146 $145 $373 $374 forward $57 $-1 #
coedge $-1 $375 $376 $145 $246 forward $360 $-1 #
edge $-1 $377 24.592083656041815 $252 35.6955798500776 $245 $378 forward 7 unknown #
coedge $-1 $379 $380 $146 $248 forward $237 $-1 #
edge $-1 $253 -35.6955798500776 $381 -24.592083656041815 $247 $382 forward 7 unknown #
coedge $-1 $242 $147 $380 $383 forward $251 $-1 #
coedge $-1 $147 $242 $375 $384 reversed $251 $-1 #
loop $-1 $-1 $147 $359 #
vertex $-1 $384 $385 #
vertex $-1 $383 $386 #
straight-curve $-1 65.839411603137307 0 9.6292664561337915 0 -1 0 I I #
face $-1 $-1 $387 $33 $-1 $388 forward single #
loop $-1 $-1 $266 $149 #
plane-surface $-1 0 28.297866311547097 0 0 -1 0 0 0 -1 forward_v I I I I #
coedge $-1 $389 $390 $153 $264 reversed $150 $-1 #
coedge $-1 $260 $152 $154 $265 reversed $93 $-1 #
coedge $-1 $152 $259 $391 $392 reversed $93 $-1 #
coedge $-1 $393 $155 $152 $262 forward $256 $-1 #
edge $-1 $268 -64.201877863606938 $394 -55.838011597453033 $261 $395 forward 7 unknown #
coedge $-1 $154 $153 $396 $397 reversed $60 $-1 #
edge $-1 $267 -56.595732623094165 $398 -45.341040554722895 $258 $399 forward 7 unknown #
edge $-1 $400 45.341040554722895 $268 56.595732623094165 $259 $401 forward 7 unknown #
coedge $-1 $155 $393 $389 $402 forward $256 $-1 #
vertex $-1 $156 $403 #
vertex $-1 $156 $404 #
straight-curve $-1 20.471386045190854 28.297866311547097 1.7654001899798857 -1 0 0 I I #
coedge $-1 $270 $270 $-1 $405 reversed $159 $-1 #
edge $-1 $406 0 $406 6.2831853071796004 $160 $407 forward 7 unknown #
vertex $-1 $163 $408 #
ellipse-curve $-1 35.031424953787507 24.532436899257178 5.9473333230568342 0 0.74314483375859142 0.66913059716165679 1.5 0 0 1 I I #
coedge $-1 $274 $274 $-1 $409 reversed $166 $-1 #
edge $-1 $410 0 $410 6.2831853071796004 $167 $411 forward 7 unknown #
vertex $-1 $170 $412 #
ellipse-curve $-1 46.854119226975911 24.532436899257178 5.9473333230568342 0 0.74314483375859142 0.66913059716165679 1.5 0 0 1 I I #
face $-1 $-1 $290 $36 $-1 $413 reversed single #
loop $-1 $-1 $414 $171 #
plane-surface $-1 0 0 10.129266456133792 0 0 1 1 0 0 forward_v I I I I #
coedge $-1 $415 $416 $417 $418 reversed $172 $-1 #
coedge $-1 $419 $174 $176 $288 forward $107 $-1 #
coedge $-1 $174 $419 $415 $420 forward $107 $-1 #
coedge $-1 $417 $177 $174 $285 forward $290 $-1 #
edge $-1 $292 -20.810125853582729 $421 -0.90460764325112919 $284 $422 forward 7 unknown #
coedge $-1 $423 $424 $175 $287 forward $279 $-1 #
edge $-1 $425 -42.195323800353151 $291 -32.406561798299627 $286 $426 forward 7 unknown #
edge $-1 $292 0 $425 13.843400142765274 $176 $427 forward 7 unknown #
coedge $-1 $177 $417 $423 $428 reversed $290 $-1 #
loop $-1 $-1 $417 $278 #
vertex $-1 $428 $429 #
vertex $-1 $178 $430 #
straight-curve $-1 -31.667492601999658 -28.297866311547097 46.725745987213635 0 0 -1 I I #
coedge $-1 $294 $294 $-1 $431 reversed $181 $-1 #
edge $-1 $432 0 $432 6.2831853071796004 $182 $433 forward 7 unknown #
vertex $-1 $185 $434 #
ellipse-curve $-1 -27.686388959933332 -23.403485310520335 5.2348853415324106 0 -0.70710678939079041 0.70710677298230451 1 0 0 1 I I #
coedge $-1 $298 $298 $-1 $435 reversed $188 $-1 #
edge $-1 $436 0 $436 6.2831853071796004 $189 $437 forward 7 unknown #
vertex $-1 $192 $438 #
ellipse-curve $-1 -21.714733496833851 -23.403485310520335 5.2348853415324106 0 -0.70710678939079041 0.70710677298230451 1 0 0 1 I I #
coedge $-1 $302 $302 $-1 $439 reversed $195 $-1 #
edge $-1 $440 0 $440 6.2831853071796004 $196 $441 forward 7 unknown #
vertex $-1 $199 $442 #
ellipse-curve $-1 -15.743078033734371 -23.403485310520335 5.2348853415324106 0 -0.70710678939079041 0.70710677298230451 1 0 0 1 I I #
face $-1 $-1 $215 $30 $-1 $443 reversed single #
loop $-1 $-1 $322 $200 #
plane-surface $-1 0 28.297866311547097 0 0 -1 0 0 0 -1 forward_v I I I I #
coedge $-1 $444 $320 $323 $445 forward $201 $-1 #
coedge $-1 $326 $203 $204 $314 reversed $126 $-1 #
coedge $-1 $320 $444 $203 $312 reversed $201 $-1 #
edge $-1 $327 -10.129266456133792 $446 10.129266456133792 $311 $447 forward 7 unknown #
coedge $-1 $205 $204 $444 $448 forward $81 $-1 #
edge $-1 $318 -65.839411603137307 $446 65.839411603137307 $310 $449 forward 7 unknown #
coedge $-1 $323 $322 $205 $316 reversed $307 $-1 #
edge $-1 $450 -65.839411603137307 $317 65.839411603137307 $315 $451 forward 7 unknown #
vertex $-1 $207 $452 #
vertex $-1 $329 $453 #
straight-curve $-1 65.839411603137307 0 -10.129266456133792 0 -1 0 I I #
coedge $-1 $309 $311 $208 $321 reversed $201 $-1 #
edge $-1 $324 -28.297866311547097 $327 28.297866311547097 $320 $454 forward 7 unknown #
coedge $-1 $315 $209 $214 $330 forward $307 $-1 #
coedge $-1 $209 $315 $309 $445 reversed $307 $-1 #
vertex $-1 $210 $455 #
straight-curve $-1 0 28.297866311547097 10.129266456133792 -1 0 0 I I #
coedge $-1 $211 $310 $213 $329 reversed $126 $-1 #
vertex $-1 $321 $456 #
straight-curve $-1 0 -28.297866311547097 10.129266456133792 1 0 0 I I #
edge $-1 $216 -10.129266456133792 $318 10.129266456133792 $213 $457 forward 7 unknown #
edge $-1 $217 -10.129266456133792 $317 10.129266456133792 $214 $458 forward 7 unknown #
point $-1 65.839411603137307 -28.297866311547097 10.129266456133792 #
point $-1 65.839411603137307 28.297866311547097 10.129266456133792 #
face $-1 $-1 $350 $31 $-1 $459 reversed single #
loop $-1 $-1 $460 $219 #
plane-surface $-1 -65.839411603137307 0 0 1 0 0 0 0 -1 forward_v I I I I #
coedge $-1 $337 $353 $223 $340 forward $220 $-1 #
coedge $-1 $230 $336 $222 $338 forward $220 $-1 #
edge $-1 $344 0.39677748169945293 $233 6.2872518101893764 $337 $461 forward 7 unknown #
coedge $-1 $224 $223 $460 $462 reversed $85 $-1 #
edge $-1 $463 -35.6955798500776 $344 -24.592083656041815 $336 $464 forward 7 unknown #
coedge $-1 $349 $348 $224 $342 forward $350 $-1 #
edge $-1 $343 24.592083656041815 $465 35.6955798500776 $341 $466 forward 7 unknown #
vertex $-1 $342 $467 #
vertex $-1 $340 $468 #
straight-curve $-1 -54.735915409101523 0 3.738792127643868 0 -1 0 I I #
coedge $-1 $469 $470 $227 $347 forward $334 $-1 #
edge $-1 $354 -28.297866311547097 $351 28.297866311547097 $346 $471 forward 7 unknown #
coedge $-1 $341 $228 $232 $356 forward $350 $-1 #
coedge $-1 $228 $341 $469 $472 reversed $350 $-1 #
loop $-1 $-1 $341 $333 #
vertex $-1 $472 $473 #
straight-curve $-1 -30.143831753059708 28.297866311547097 9.6292664561337915 1 0 0 I I #
coedge $-1 $336 $230 $470 $474 forward $220 $-1 #
vertex $-1 $474 $475 #
straight-curve $-1 -30.143831753059708 -28.297866311547097 9.6292664561337915 -1 0 0 I I #
edge $-1 $234 -6.2872518101893764 $343 -0.39677748169945293 $348 $476 forward 7 unknown #
point $-1 -54.735915409101523 -28.297866311547097 9.6292664561337915 #
point $-1 -54.735915409101523 28.297866311547097 9.6292664561337915 #
face $-1 $-1 $251 $32 $-1 $477 reversed single #
loop $-1 $-1 $245 $236 #
plane-surface $-1 0 28.297866311547097 0 0 -1 0 0 0 -1 forward_v I I I I #
coedge $-1 $373 $239 $379 $478 reversed $142 $-1 #
coedge $-1 $239 $373 $376 $479 reversed $142 $-1 #
coedge $-1 $241 $240 $239 $365 forward $89 $-1 #
edge $-1 $480 -28.297866311547097 $481 28.297866311547097 $239 $482 forward 7 unknown #
coedge $-1 $380 $379 $240 $367 forward $237 $-1 #
edge $-1 $480 24.592083656041815 $370 35.6955798500776 $366 $483 forward 7 unknown #
coedge $-1 $376 $375 $241 $369 forward $360 $-1 #
edge $-1 $371 -35.6955798500776 $481 -24.592083656041815 $368 $484 forward 7 unknown #
vertex $-1 $243 $485 #
vertex $-1 $243 $486 #
straight-curve $-1 65.839411603137307 0 3.738792127643868 0 1 0 I I #
coedge $-1 $363 $362 $244 $374 reversed $142 $-1 #
edge $-1 $377 -28.297866311547097 $381 28.297866311547097 $373 $487 forward 7 unknown #
coedge $-1 $368 $245 $250 $384 forward $360 $-1 #
coedge $-1 $245 $368 $363 $479 forward $360 $-1 #
vertex $-1 $246 $488 #
straight-curve $-1 30.143831753059708 28.297866311547097 9.6292664561337915 1 0 0 I I #
coedge $-1 $366 $247 $362 $478 forward $237 $-1 #
coedge $-1 $247 $366 $249 $383 reversed $237 $-1 #
vertex $-1 $248 $489 #
straight-curve $-1 30.143831753059708 -28.297866311547097 9.6292664561337915 -1 0 0 I I #
edge $-1 $253 -9.6292664561337915 $370 -3.738792127643868 $249 $490 forward 7 unknown #
edge $-1 $252 -9.6292664561337915 $371 -3.738792127643868 $250 $491 forward 7 unknown #
point $-1 65.839411603137307 28.297866311547097 9.6292664561337915 #
point $-1 65.839411603137307 -28.297866311547097 9.6292664561337915 #
loop $-1 $-1 $492 $255 #
plane-surface $-1 0 0 10.129266456133792 0 0 1 1 0 0 forward_v I I I I #
coedge $-1 $390 $258 $266 $402 reversed $150 $-1 #
coedge $-1 $258 $389 $492 $493 reversed $150 $-1 #
coedge $-1 $396 $494 $260 $392 forward $387 $-1 #
edge $-1 $394 15.844317251357168 $400 23.375176075936999 $391 $495 forward 7 unknown #
coedge $-1 $266 $261 $494 $496 reversed $256 $-1 #
vertex $-1 $392 $497 #
straight-curve $-1 27.149628771661895 28.297866311547097 65.967278053586824 0 0 1 I I #
coedge $-1 $492 $391 $263 $397 forward $387 $-1 #
edge $-1 $400 6.6782427264710407 $398 34.264529363910668 $396 $498 forward 7 unknown #
vertex $-1 $493 $499 #
straight-curve $-1 54.735915409101523 -9.5720700553453639 43.824226501614888 0 -0.66913059716165679 0.74314483375859142 I I #
vertex $-1 $397 $500 #
straight-curve $-1 27.149628771661895 -9.5720700553453639 43.824226501614888 0 0.66913059716165679 -0.74314483375859142 I I #
edge $-1 $501 55.838011597453033 $267 64.201877863606938 $266 $502 forward 7 unknown #
point $-1 54.735915409101523 28.297866311547097 1.7654001899798857 #
point $-1 27.149628771661895 28.297866311547097 1.7654001899798857 #
edge $-1 $503 1 $503 0 $270 $-1 forward 7 unknown #
vertex $-1 $271 $504 #
ellipse-curve $-1 35.031424953787507 20.350656797320429 2.1820417006210295 0 0.74314483375859142 0.66913059716165679 1.5 0 0 1 I I #
point $-1 36.531424953787507 24.532436899257164 5.9473333230568191 #
edge $-1 $505 1 $505 0 $274 $-1 forward 7 unknown #
vertex $-1 $275 $506 #
ellipse-curve $-1 46.854119226975911 20.350656797320429 2.1820417006210295 0 0.74314483375859142 0.66913059716165679 1.5 0 0 1 I I #
point $-1 48.354119226975911 24.532436899257164 5.9473333230568191 #
plane-surface $-1 0 -28.297866311547097 0 0 1 0 0 0 1 forward_v I I I I #
coedge $-1 $424 $423 $416 $507 forward $279 $-1 #
coedge $-1 $416 $281 $283 $420 reversed $172 $-1 #
coedge $-1 $281 $415 $414 $507 reversed $172 $-1 #
coedge $-1 $289 $284 $281 $418 forward $290 $-1 #
edge $-1 $421 -46.385241760282604 $508 -36.596479531079844 $417 $509 forward 7 unknown #
coedge $-1 $283 $282 $424 $510 reversed $107 $-1 #
edge $-1 $511 -13.843400142765274 $421 0 $415 $512 forward 7 unknown #
vertex $-1 $285 $513 #
straight-curve $-1 -10.857366748416929 -28.297866311547097 0.34050422693103144 1 0 0 I I #
coedge $-1 $414 $286 $289 $428 forward $279 $-1 #
coedge $-1 $286 $414 $419 $510 forward $279 $-1 #
vertex $-1 $287 $514 #
straight-curve $-1 -31.667492601999658 -60.704428109846724 10.129266456133792 0 -1 0 I I #
straight-curve $-1 -31.667492601999658 -28.297866311547097 0.34050422693103144 0 0.70710677298230451 0.70710678939079041 I I #
edge $-1 $291 -31.667492601999658 $508 -11.761974391668058 $289 $515 forward 7 unknown #
point $-1 -31.667492601999658 -28.297866311547097 10.129266456133792 #
point $-1 -31.667492601999658 -28.297866311547097 0.34050422693103144 #
edge $-1 $516 1 $516 0 $294 $-1 forward 7 unknown #
vertex $-1 $295 $517 #
ellipse-curve $-1 -27.686388959933332 -22.686797069837411 4.5181971174803097 0 -0.70710678939079041 0.70710677298230451 1 0 0 1 I I #
point $-1 -26.686388959933332 -23.403485310520338 5.2348853415324132 #
edge $-1 $518 1 $518 0 $298 $-1 forward 7 unknown #
vertex $-1 $299 $519 #
ellipse-curve $-1 -21.714733496833851 -22.686797069837411 4.5181971174803097 0 -0.70710678939079041 0.70710677298230451 1 0 0 1 I I #
point $-1 -20.714733496833851 -23.403485310520338 5.2348853415324132 #
edge $-1 $520 1 $520 0 $302 $-1 forward 7 unknown #
vertex $-1 $303 $521 #
ellipse-curve $-1 -15.743078033734371 -22.686797069837411 4.5181971174803097 0 -0.70710678939079041 0.70710677298230451 1 0 0 1 I I #
point $-1 -14.743078033734371 -23.403485310520338 5.2348853415324132 #
plane-surface $-1 65.839411603137307 0 0 -1 0 0 0 0 1 forward_v I I I I #
coedge $-1 $311 $309 $313 $448 reversed $201 $-1 #
edge $-1 $324 -10.129266456133792 $450 10.129266456133792 $323 $522 forward 7 unknown #
vertex $-1 $448 $523 #
straight-curve $-1 -65.839411603137307 -28.297866311547097 0 0 0 -1 I I #
edge $-1 $446 -28.297866311547097 $450 28.297866311547097 $444 $524 forward 7 unknown #
straight-curve $-1 0 -28.297866311547097 -10.129266456133792 -1 0 0 I I #
vertex $-1 $316 $525 #
straight-curve $-1 0 28.297866311547097 -10.129266456133792 1 0 0 I I #
point $-1 65.839411603137307 28.297866311547097 -10.129266456133792 #
point $-1 65.839411603137307 -28.297866311547097 -10.129266456133792 #
straight-curve $-1 -65.839411603137307 0 10.129266456133792 0 -1 0 I I #
point $-1 -65.839411603137307 28.297866311547097 10.129266456133792 #
point $-1 -65.839411603137307 -28.297866311547097 10.129266456133792 #
straight-curve $-1 65.839411603137307 -28.297866311547097 0 0 0 -1 I I #
straight-curve $-1 65.839411603137307 28.297866311547097 0 0 0 -1 I I #
plane-surface $-1 0 28.297866311547097 0 0 -1 0 0 0 -1 forward_v I I I I #
coedge $-1 $470 $469 $339 $462 forward $334 $-1 #
straight-curve $-1 -54.735915409101523 -28.297866311547097 3.3420146459444151 0 0 1 I I #
edge $-1 $465 -28.297866311547097 $463 28.297866311547097 $460 $526 forward 7 unknown #
vertex $-1 $340 $527 #
straight-curve $-1 -30.143831753059708 -28.297866311547097 3.738792127643868 1 0 0 I I #
vertex $-1 $342 $528 #
straight-curve $-1 -30.143831753059708 28.297866311547097 3.738792127643868 -1 0 0 I I #
point $-1 -54.735915409101523 28.297866311547097 3.738792127643868 #
point $-1 -54.735915409101523 -28.297866311547097 3.738792127643868 #
coedge $-1 $460 $346 $349 $472 forward $334 $-1 #
coedge $-1 $346 $460 $353 $474 reversed $334 $-1 #
straight-curve $-1 -65.839411603137307 0 9.6292664561337915 0 1 0 I I #
edge $-1 $351 -9.6292664561337915 $465 -3.738792127643868 $349 $529 forward 7 unknown #
point $-1 -65.839411603137307 28.297866311547097 9.6292664561337915 #
edge $-1 $354 -9.6292664561337915 $463 -3.738792127643868 $470 $530 forward 7 unknown #
point $-1 -65.839411603137307 -28.297866311547097 9.6292664561337915 #
straight-curve $-1 -54.735915409101523 28.297866311547097 3.3420146459444151 0 0 -1 I I #
plane-surface $-1 65.839411603137307 0 0 -1 0 0 0 0 1 forward_v I I I I #
edge $-1 $381 -6.2872518101893764 $480 -0.39677748169945293 $379 $531 forward 7 unknown #
edge $-1 $481 0.39677748169945293 $377 6.2872518101893764 $376 $532 forward 7 unknown #
vertex $-1 $367 $533 #
vertex $-1 $369 $534 #
straight-curve $-1 54.735915409101523 0 3.738792127643868 0 1 0 I I #
straight-curve $-1 30.143831753059708 -28.297866311547097 3.738792127643868 1 0 0 I I #
straight-curve $-1 30.143831753059708 28.297866311547097 3.738792127643868 -1 0 0 I I #
point $-1 65.839411603137307 -28.297866311547097 3.738792127643868 #
point $-1 65.839411603137307 28.297866311547097 3.738792127643868 #
straight-curve $-1 54.735915409101523 0 9.6292664561337915 0 -1 0 I I #
point $-1 54.735915409101523 28.297866311547097 9.6292664561337915 #
point $-1 54.735915409101523 -28.297866311547097 9.6292664561337915 #
straight-curve $-1 65.839411603137307 -28.297866311547097 0 0 0 -1 I I #
straight-curve $-1 65.839411603137307 28.297866311547097 0 0 0 -1 I I #
coedge $-1 $494 $396 $390 $493 forward $387 $-1 #
edge $-1 $398 -23.375176075936999 $501 -15.844317251357168 $492 $535 forward 7 unknown #
coedge $-1 $391 $492 $393 $496 forward $387 $-1 #
straight-curve $-1 27.149628771661895 44.142183562904265 10.129266456133792 0 -1 0 I I #
edge $-1 $501 -54.735915409101523 $394 -27.149628771661895 $393 $536 forward 7 unknown #
point $-1 27.149628771661895 28.297866311547097 10.129266456133792 #
straight-curve $-1 20.471386045190854 20.767007486967259 10.129266456133792 1 0 0 I I #
point $-1 54.735915409101523 20.767007486967266 10.129266456133792 #
point $-1 27.149628771661895 20.767007486967266 10.129266456133792 #
vertex $-1 $496 $537 #
straight-curve $-1 54.735915409101523 28.297866311547097 65.967278053586824 0 0 -1 I I #
vertex $-1 $405 $538 #
point $-1 36.531424953787507 20.350656797320429 2.1820417006210295 #
vertex $-1 $409 $539 #
point $-1 48.354119226975911 20.350656797320429 2.1820417006210295 #
edge $-1 $508 32.406561798299627 $511 42.195323800353151 $414 $540 forward 7 unknown #
vertex $-1 $418 $541 #
straight-curve $-1 -11.761974391668058 -28.297866311547097 46.725745987213635 0 0 1 I I #
edge $-1 $511 0.90460764325112919 $425 20.810125853582729 $424 $542 forward 7 unknown #
vertex $-1 $510 $543 #
straight-curve $-1 -11.761974391668058 -28.297866311547097 0.34050422693103144 0 -0.70710677298230451 -0.70710678939079041 I I #
point $-1 -11.761974391668058 -28.297866311547097 0.34050422693103144 #
point $-1 -31.667492601999658 -18.509104309493573 10.129266456133792 #
straight-curve $-1 0 -28.297866311547097 10.129266456133792 1 0 0 I I #
vertex $-1 $431 $544 #
point $-1 -26.686388959933332 -22.686797069837411 4.5181971174803097 #
vertex $-1 $435 $545 #
point $-1 -20.714733496833851 -22.686797069837411 4.5181971174803097 #
vertex $-1 $439 $546 #
point $-1 -14.743078033734371 -22.686797069837411 4.5181971174803097 #
straight-curve $-1 -65.839411603137307 28.297866311547097 0 0 0 -1 I I #
point $-1 -65.839411603137307 -28.297866311547097 -10.129266456133792 #
straight-curve $-1 -65.839411603137307 0 -10.129266456133792 0 1 0 I I #
point $-1 -65.839411603137307 28.297866311547097 -10.129266456133792 #
straight-curve $-1 -65.839411603137307 0 3.738792127643868 0 -1 0 I I #
point $-1 -65.839411603137307 -28.297866311547097 3.738792127643868 #
point $-1 -65.839411603137307 28.297866311547097 3.738792127643868 #
straight-curve $-1 -65.839411603137307 28.297866311547097 0 0 0 -1 I I #
straight-curve $-1 -65.839411603137307 -28.297866311547097 0 0 0 -1 I I #
straight-curve $-1 54.735915409101523 -28.297866311547097 3.3420146459444151 0 0 -1 I I #
straight-curve $-1 54.735915409101523 28.297866311547097 3.3420146459444151 0 0 1 I I #
point $-1 54.735915409101523 -28.297866311547097 3.738792127643868 #
point $-1 54.735915409101523 28.297866311547097 3.738792127643868 #
straight-curve $-1 54.735915409101523 44.142183562904265 10.129266456133792 0 1 0 I I #
straight-curve $-1 0 28.297866311547097 10.129266456133792 -1 0 0 I I #
point $-1 54.735915409101523 28.297866311547097 10.129266456133792 #
point $-1 35.031424953787507 19.235939546682541 1.1783458048785445 #
point $-1 46.854119226975911 19.235939546682541 1.1783458048785445 #
straight-curve $-1 -11.761974391668058 -60.704428109846724 10.129266456133792 0 1 0 I I #
point $-1 -11.761974391668058 -28.297866311547097 10.129266456133792 #
straight-curve $-1 -10.857366748416929 -18.509104309493569 10.129266456133792 -1 0 0 I I #
point $-1 -11.761974391668058 -18.509104309493573 10.129266456133792 #
point $-1 -27.686388959933332 -21.979690280446619 3.8110903444980049 #
point $-1 -21.714733496833851 -21.979690280446619 3.8110903444980049 #
point $-1 -15.743078033734371 -21.979690280446619 3.8110903444980049 #
End-of-ACIS-data 