500 0 11 0           
7 Unknown 11 ACIS 5.0 NT 24 Thu Mar 25 15:23:44 1999 
-1 9.9999999999999995e-007 1e-010 
body $-1 $11 $-1 $12 #
body $-1 $13 $-1 $14 #
body $-1 $15 $-1 $16 #
body $-1 $17 $-1 $18 #
body $-1 $19 $-1 $20 #
body $-1 $21 $-1 $22 #
body $-1 $23 $-1 $24 #
body $-1 $25 $-1 $26 #
body $-1 $27 $-1 $28 #
body $-1 $29 $-1 $30 #
body $-1 $31 $-1 $32 #
lump $-1 $-1 $33 $0 #
transform $-1 1 0 0 0 1 0 0 0 1 77.449873348185676 39.194122130790582 18.151996856093003 1 rotate no_reflect no_shear #
lump $-1 $-1 $34 $1 #
transform $-1 1 0 0 0 1 0 0 0 1 77.449873348185676 39.194122130790582 18.151996856093003 1 rotate no_reflect no_shear #
lump $-1 $-1 $35 $2 #
transform $-1 1 0 0 0 1 0 0 0 1 77.449873348185676 39.194122130790582 18.151996856093003 1 rotate no_reflect no_shear #
lump $-1 $-1 $36 $3 #
transform $-1 1 0 0 0 1 0 0 0 1 77.449873348185676 39.194122130790582 18.151996856093003 1 rotate no_reflect no_shear #
lump $-1 $-1 $37 $4 #
transform $-1 1 0 0 0 1 0 0 0 1 77.449873348185676 39.194122130790582 18.151996856093003 1 rotate no_reflect no_shear #
lump $-1 $-1 $38 $5 #
transform $-1 1 0 0 0 1 0 0 0 1 77.449873348185676 39.194122130790582 18.151996856093003 1 rotate no_reflect no_shear #
lump $-1 $-1 $39 $6 #
transform $-1 1 0 0 0 1 0 0 0 1 77.449873348185676 39.194122130790582 18.151996856093003 1 rotate no_reflect no_shear #
lump $-1 $-1 $40 $7 #
transform $-1 1 0 0 0 1 0 0 0 1 77.449873348185676 39.194122130790582 18.151996856093003 1 rotate no_reflect no_shear #
lump $-1 $-1 $41 $8 #
transform $-1 1 0 0 0 1 0 0 0 1 77.449873348185676 39.194122130790582 18.151996856093003 1 rotate no_reflect no_shear #
lump $-1 $-1 $42 $9 #
transform $-1 1 0 0 0 1 0 0 0 1 77.449873348185676 39.194122130790582 18.151996856093003 1 rotate no_reflect no_shear #
lump $-1 $-1 $43 $10 #
transform $-1 1 0 0 0 1 0 0 0 1 77.449873348185676 39.194122130790582 18.151996856093003 1 rotate no_reflect no_shear #
shell $-1 $-1 $-1 $44 $-1 $11 #
shell $-1 $-1 $-1 $45 $-1 $13 #
shell $-1 $-1 $-1 $46 $-1 $15 #
shell $-1 $-1 $-1 $47 $-1 $17 #
shell $-1 $-1 $-1 $48 $-1 $19 #
shell $-1 $-1 $-1 $49 $-1 $21 #
shell $-1 $-1 $-1 $50 $-1 $23 #
shell $-1 $-1 $-1 $51 $-1 $25 #
shell $-1 $-1 $-1 $52 $-1 $27 #
shell $-1 $-1 $-1 $53 $-1 $29 #
shell $-1 $-1 $-1 $54 $-1 $31 #
face $-1 $55 $56 $33 $-1 $57 forward single #
face $-1 $58 $59 $34 $-1 $60 reversed single #
face $-1 $61 $62 $35 $-1 $63 forward single #
face $-1 $64 $65 $36 $-1 $66 reversed single #
face $-1 $67 $68 $37 $-1 $69 forward single #
face $-1 $70 $71 $38 $-1 $72 forward single #
face $-1 $73 $74 $39 $-1 $75 forward single #
face $-1 $76 $77 $40 $-1 $78 reversed single #
face $-1 $79 $80 $41 $-1 $81 forward single #
face $-1 $82 $83 $42 $-1 $84 reversed single #
face $-1 $85 $86 $43 $-1 $87 forward single #
face $-1 $88 $89 $33 $-1 $90 reversed single #
loop $-1 $-1 $91 $44 #
plane-surface $-1 0 0 18.151996856093003 0 0 1 1 0 0 forward_v I I I I #
face $-1 $92 $93 $34 $-1 $94 reversed single #
loop $-1 $-1 $95 $45 #
plane-surface $-1 -50.293174246039612 -29.772057464272407 0 1 0 0 0 0 -1 forward_v I I I I #
face $-1 $96 $97 $35 $-1 $98 reversed single #
loop $-1 $-1 $99 $46 #
plane-surface $-1 0 39.194122130790582 0 0 -1 0 0 0 -1 forward_v I I I I #
face $-1 $100 $101 $36 $-1 $102 reversed single #
loop $-1 $-1 $103 $47 #
plane-surface $-1 -157.22914175199293 16.092162112333675 136.34438899751109 0 1 0 -0.51503808176128008 0 0.85716729658548041 forward_v I I I I #
face $-1 $104 $105 $37 $-1 $106 forward single #
loop $-1 $107 $108 $48 #
cone-surface $-1 -64.364605633956032 18.292798261312193 9.2787920829621839 0.51503808176128008 0 -0.85716729658548041 0.85716729658548041 0 0.51503808176128008 1 I I 0 1 1 forward I I I I #
face $-1 $109 $110 $38 $-1 $111 forward single #
loop $-1 $112 $113 $49 #
cone-surface $-1 -64.364605633956032 21.593752484779962 9.2787920829621839 0.51503808176128008 0 -0.85716729658548041 0.85716729658548041 0 0.51503808176128008 1 I I 0 1 1 forward I I I I #
face $-1 $114 $115 $39 $-1 $116 forward single #
loop $-1 $117 $118 $50 #
cone-surface $-1 -64.364605633956032 24.894706708247732 9.2787920829621839 0.51503808176128008 0 -0.85716729658548041 0.85716729658548041 0 0.51503808176128008 1 I I 0 1 1 forward I I I I #
face $-1 $119 $120 $40 $-1 $121 reversed single #
loop $-1 $-1 $122 $51 #
plane-surface $-1 73.626728596533283 -10.322742333388767 228.19721252422252 0 -1 0 -0.69465837861970381 0 -0.71933979245794832 forward_v I I I I #
face $-1 $123 $124 $41 $-1 $125 forward single #
loop $-1 $126 $127 $52 #
cone-surface $-1 72.318732984335782 -13.725757113736915 13.163374961164124 -0.69465837861970381 0 -0.71933979245794832 0.71933979245794832 0 -0.69465837861970381 1 I I 0 1 1 forward I I I I #
face $-1 $128 $129 $42 $-1 $130 reversed single #
loop $-1 $-1 $131 $53 #
plane-surface $-1 73.626728596533283 13.399925494101478 228.19721252422252 0 -1 0 -0.69465837861970381 0 -0.71933979245794832 forward_v I I I I #
face $-1 $132 $133 $43 $-1 $134 forward single #
loop $-1 $135 $136 $54 #
cone-surface $-1 72.318732984335782 9.99691071375333 13.163374961164124 -0.69465837861970381 0 -0.71933979245794832 0.71933979245794832 0 -0.69465837861970381 1 I I 0 1 1 forward I I I I #
face $-1 $137 $138 $33 $-1 $139 reversed single #
loop $-1 $-1 $140 $55 #
plane-surface $-1 0 0 -18.151996856093003 0 0 1 1 0 0 forward_v I I I I #
coedge $-1 $141 $142 $143 $144 forward $56 $-1 #
face $-1 $145 $146 $34 $-1 $147 reversed single #
loop $-1 $-1 $148 $58 #
plane-surface $-1 -45.719526941019637 -20.349992797754233 0 0 -1 0 0 0 -1 forward_v I I I I #
coedge $-1 $149 $150 $151 $152 forward $59 $-1 #
face $-1 $153 $154 $35 $-1 $155 forward single #
loop $-1 $-1 $156 $61 #
plane-surface $-1 -77.449873348185676 0 0 1 0 0 0 0 -1 forward_v I I I I #
coedge $-1 $157 $158 $159 $160 forward $62 $-1 #
face $-1 $161 $162 $36 $-1 $163 reversed single #
loop $-1 $-1 $164 $64 #
plane-surface $-1 -77.449873348185648 21.593752484779962 3.5693918800067479 -0.51503808176128008 0 0.85716729658548041 0.85716729658548041 0 0.51503808176128008 forward_v I I I I #
coedge $-1 $165 $166 $167 $168 reversed $65 $-1 #
face $-1 $-1 $169 $37 $-1 $170 forward single #
loop $-1 $171 $172 $67 #
cone-surface $-1 -63.156583789607659 18.292798261312193 7.2683061495817363 0.51503808176128008 0 -0.85716729658548041 0.4285836482927402 0 0.25751904088064004 1 I I -0.70710678118654746 0.70710678118654746 0.5 forward I I I I #
loop $-1 $-1 $173 $48 #
coedge $-1 $108 $108 $174 $175 reversed $68 $-1 #
face $-1 $-1 $176 $38 $-1 $177 forward single #
loop $-1 $178 $179 $70 #
cone-surface $-1 -63.156583789607659 21.593752484779962 7.2683061495817363 0.51503808176128008 0 -0.85716729658548041 0.4285836482927402 0 0.25751904088064004 1 I I -0.70710678118654746 0.70710678118654746 0.5 forward I I I I #
loop $-1 $-1 $180 $49 #
coedge $-1 $113 $113 $181 $182 reversed $71 $-1 #
face $-1 $-1 $183 $39 $-1 $184 forward single #
loop $-1 $185 $186 $73 #
cone-surface $-1 -63.156583789607659 24.894706708247732 7.2683061495817363 0.51503808176128008 0 -0.85716729658548041 0.4285836482927402 0 0.25751904088064004 1 I I -0.70710678118654746 0.70710678118654746 0.5 forward I I I I #
loop $-1 $-1 $187 $50 #
coedge $-1 $118 $118 $188 $189 reversed $74 $-1 #
face $-1 $190 $191 $40 $-1 $192 reversed single #
loop $-1 $-1 $193 $76 #
plane-surface $-1 -33.975678292170855 -13.725757113736915 116.77166088386599 0.69465837861970381 0 0.71933979245794832 0.71933979245794832 0 -0.69465837861970381 forward_v I I I I #
coedge $-1 $194 $195 $196 $197 reversed $77 $-1 #
face $-1 $-1 $198 $41 $-1 $199 forward single #
loop $-1 $200 $201 $79 #
cone-surface $-1 71.491214592324255 -13.725757113736915 12.306454600471856 -0.69465837861970381 0 -0.71933979245794832 0.35966989622897416 0 -0.3473291893098519 1 I I -0.70710678118654746 0.70710678118654746 0.5 forward I I I I #
loop $-1 $-1 $202 $52 #
coedge $-1 $127 $127 $203 $204 reversed $80 $-1 #
face $-1 $205 $206 $42 $-1 $207 reversed single #
loop $-1 $-1 $208 $82 #
plane-surface $-1 -33.975678292170855 9.99691071375333 116.77166088386599 0.69465837861970381 0 0.71933979245794832 0.71933979245794832 0 -0.69465837861970381 forward_v I I I I #
coedge $-1 $209 $210 $211 $212 reversed $83 $-1 #
face $-1 $-1 $213 $43 $-1 $214 forward single #
loop $-1 $215 $216 $85 #
cone-surface $-1 71.491214592324255 9.99691071375333 12.306454600471856 -0.69465837861970381 0 -0.71933979245794832 0.35966989622897416 0 -0.3473291893098519 1 I I -0.70710678118654746 0.70710678118654746 0.5 forward I I I I #
loop $-1 $-1 $217 $54 #
coedge $-1 $136 $136 $218 $219 reversed $86 $-1 #
face $-1 $220 $221 $33 $-1 $222 reversed single #
loop $-1 $-1 $223 $88 #
plane-surface $-1 0 -39.194122130790582 0 0 1 0 0 0 1 forward_v I I I I #
coedge $-1 $224 $225 $226 $227 forward $89 $-1 #
coedge $-1 $228 $91 $229 $230 forward $56 $-1 #
coedge $-1 $91 $228 $231 $232 forward $56 $-1 #
coedge $-1 $233 $234 $91 $144 reversed $235 $-1 #
edge $-1 $236 -39.194122130790582 $237 39.194122130790582 $143 $238 forward 7 unknown #
face $-1 $239 $240 $34 $-1 $241 forward single #
loop $-1 $-1 $242 $92 #
plane-surface $-1 -41.145879635999663 -29.772057464272407 0 -1 0 0 0 0 1 forward_v I I I I #
coedge $-1 $243 $244 $245 $246 forward $93 $-1 #
coedge $-1 $247 $95 $248 $249 reversed $59 $-1 #
coedge $-1 $95 $247 $250 $251 reversed $59 $-1 #
coedge $-1 $244 $243 $95 $152 reversed $93 $-1 #
edge $-1 $252 -18.151996856093003 $253 18.151996856093003 $151 $254 forward 7 unknown #
face $-1 $255 $256 $35 $-1 $257 reversed single #
loop $-1 $-1 $258 $96 #
plane-surface $-1 0 0 18.151996856093003 0 0 1 1 0 0 forward_v I I I I #
coedge $-1 $259 $260 $158 $261 forward $97 $-1 #
coedge $-1 $262 $99 $263 $264 reversed $62 $-1 #
coedge $-1 $99 $262 $156 $261 reversed $62 $-1 #
coedge $-1 $265 $266 $99 $160 reversed $256 $-1 #
edge $-1 $267 -77.449873348185676 $268 77.449873348185676 $159 $269 forward 7 unknown #
face $-1 $270 $271 $36 $-1 $272 forward single #
loop $-1 $-1 $273 $100 #
plane-surface $-1 -157.22914175199293 27.09534285722625 136.34438899751109 0 -1 0 0.51503808176128008 0 -0.85716729658548041 forward_v I I I I #
coedge $-1 $274 $275 $276 $277 reversed $101 $-1 #
coedge $-1 $166 $103 $278 $279 reversed $65 $-1 #
coedge $-1 $103 $165 $274 $280 reversed $65 $-1 #
coedge $-1 $276 $281 $103 $168 forward $271 $-1 #
edge $-1 $282 1.1646975278107874 $283 25.434227349334677 $167 $284 forward 7 unknown #
loop $-1 $-1 $174 $104 #
plane-surface $-1 -77.449873348185648 21.593752484779962 3.5693918800067479 -0.51503808176128008 0 0.85716729658548041 0.85716729658548041 0 0.51503808176128008 forward_v I I I I #
loop $-1 $-1 $285 $67 #
coedge $-1 $172 $172 $173 $286 reversed $105 $-1 #
coedge $-1 $173 $173 $172 $286 forward $107 $-1 #
coedge $-1 $174 $174 $108 $175 forward $169 $-1 #
edge $-1 $287 0 $287 6.2831853071796004 $174 $288 forward 7 unknown #
loop $-1 $-1 $181 $109 #
plane-surface $-1 -77.449873348185648 21.593752484779962 3.5693918800067479 -0.51503808176128008 0 0.85716729658548041 0.85716729658548041 0 0.51503808176128008 forward_v I I I I #
loop $-1 $-1 $289 $70 #
coedge $-1 $179 $179 $180 $290 reversed $110 $-1 #
coedge $-1 $180 $180 $179 $290 forward $112 $-1 #
coedge $-1 $181 $181 $113 $182 forward $176 $-1 #
edge $-1 $291 0 $291 6.2831853071796004 $181 $292 forward 7 unknown #
loop $-1 $-1 $188 $114 #
plane-surface $-1 -77.449873348185648 21.593752484779962 3.5693918800067479 -0.51503808176128008 0 0.85716729658548041 0.85716729658548041 0 0.51503808176128008 forward_v I I I I #
loop $-1 $-1 $293 $73 #
coedge $-1 $186 $186 $187 $294 reversed $115 $-1 #
coedge $-1 $187 $187 $186 $294 forward $117 $-1 #
coedge $-1 $188 $188 $118 $189 forward $183 $-1 #
edge $-1 $295 0 $295 6.2831853071796004 $188 $296 forward 7 unknown #
face $-1 $297 $298 $40 $-1 $299 reversed single #
loop $-1 $-1 $300 $119 #
plane-surface $-1 73.626728596533283 -17.128771894085062 228.19721252422252 0 1 0 0.69465837861970381 0 0.71933979245794832 forward_v I I I I #
coedge $-1 $301 $302 $303 $304 reversed $120 $-1 #
coedge $-1 $195 $122 $305 $306 reversed $77 $-1 #
coedge $-1 $122 $194 $301 $307 reversed $77 $-1 #
coedge $-1 $303 $308 $122 $197 forward $309 $-1 #
edge $-1 $310 -40.636509049919034 $311 -31.33460672762255 $196 $312 forward 7 unknown #
loop $-1 $-1 $203 $123 #
plane-surface $-1 -33.975678292170855 -13.725757113736915 116.77166088386599 0.69465837861970381 0 0.71933979245794832 0.71933979245794832 0 -0.69465837861970381 forward_v I I I I #
loop $-1 $-1 $313 $79 #
coedge $-1 $201 $201 $202 $314 reversed $124 $-1 #
coedge $-1 $202 $202 $201 $314 forward $126 $-1 #
coedge $-1 $203 $203 $127 $204 forward $198 $-1 #
edge $-1 $315 0 $315 6.2831853071796004 $203 $316 forward 7 unknown #
face $-1 $317 $318 $42 $-1 $319 reversed single #
loop $-1 $-1 $320 $128 #
plane-surface $-1 73.626728596533283 6.5938959334051823 228.19721252422252 0 1 0 0.69465837861970381 0 0.71933979245794832 forward_v I I I I #
coedge $-1 $321 $322 $323 $324 reversed $129 $-1 #
coedge $-1 $210 $131 $325 $326 reversed $83 $-1 #
coedge $-1 $131 $209 $321 $327 reversed $83 $-1 #
coedge $-1 $323 $328 $131 $212 forward $329 $-1 #
edge $-1 $330 -40.636509049919034 $331 -31.33460672762255 $211 $332 forward 7 unknown #
loop $-1 $-1 $218 $132 #
plane-surface $-1 -33.975678292170855 9.99691071375333 116.77166088386599 0.69465837861970381 0 0.71933979245794832 0.71933979245794832 0 -0.69465837861970381 forward_v I I I I #
loop $-1 $-1 $333 $85 #
coedge $-1 $216 $216 $217 $334 reversed $133 $-1 #
coedge $-1 $217 $217 $216 $334 forward $135 $-1 #
coedge $-1 $218 $218 $136 $219 forward $213 $-1 #
edge $-1 $335 0 $335 6.2831853071796004 $218 $336 forward 7 unknown #
face $-1 $337 $338 $33 $-1 $339 reversed single #
loop $-1 $-1 $340 $137 #
plane-surface $-1 -77.449873348185676 0 0 1 0 0 0 0 -1 forward_v I I I I #
coedge $-1 $341 $231 $342 $343 forward $138 $-1 #
coedge $-1 $344 $140 $341 $345 forward $89 $-1 #
coedge $-1 $140 $344 $346 $347 forward $89 $-1 #
coedge $-1 $234 $233 $140 $227 reversed $235 $-1 #
edge $-1 $348 -39.194122130790582 $349 39.194122130790582 $226 $350 forward 7 unknown #
coedge $-1 $142 $141 $351 $352 forward $56 $-1 #
coedge $-1 $353 $354 $141 $230 reversed $338 $-1 #
edge $-1 $237 -77.449873348185676 $355 77.449873348185676 $229 $356 forward 7 unknown #
coedge $-1 $223 $357 $142 $232 reversed $138 $-1 #
edge $-1 $358 -77.449873348185676 $236 77.449873348185676 $231 $359 forward 7 unknown #
coedge $-1 $226 $143 $357 $360 forward $235 $-1 #
coedge $-1 $143 $226 $353 $361 reversed $235 $-1 #
loop $-1 $-1 $233 $337 #
vertex $-1 $144 $362 #
vertex $-1 $144 $363 #
straight-curve $-1 77.449873348185676 0 18.151996856093003 0 1 0 I I #
face $-1 $364 $365 $34 $-1 $366 reversed single #
loop $-1 $-1 $367 $145 #
plane-surface $-1 0 0 18.151996856093003 0 0 1 1 0 0 forward_v I I I I #
coedge $-1 $368 $369 $370 $371 reversed $146 $-1 #
coedge $-1 $151 $148 $372 $373 reversed $93 $-1 #
coedge $-1 $148 $151 $374 $375 reversed $93 $-1 #
coedge $-1 $369 $368 $148 $246 reversed $146 $-1 #
edge $-1 $376 -18.151996856093003 $377 18.151996856093003 $245 $378 forward 7 unknown #
coedge $-1 $150 $149 $379 $380 reversed $59 $-1 #
coedge $-1 $372 $381 $149 $249 forward $365 $-1 #
edge $-1 $382 -24.308093398654378 $253 -5.4639640656180291 $248 $383 forward 7 unknown #
coedge $-1 $384 $374 $150 $251 forward $240 $-1 #
edge $-1 $252 5.4639640656180291 $385 24.308093398654378 $250 $386 forward 7 unknown #
vertex $-1 $251 $387 #
vertex $-1 $249 $388 #
straight-curve $-1 -50.293174246039612 -20.349992797754233 0 0 0 -1 I I #
face $-1 $389 $390 $35 $-1 $391 reversed single #
loop $-1 $-1 $266 $153 #
plane-surface $-1 0 45.243511767572748 14.222231076566271 0 0 1 1 0 0 forward_v I I I I #
coedge $-1 $392 $393 $262 $394 forward $154 $-1 #
coedge $-1 $395 $156 $393 $396 reversed $97 $-1 #
coedge $-1 $156 $395 $265 $397 reversed $97 $-1 #
edge $-1 $267 14.222231076566271 $398 18.151996856093003 $156 $399 forward 7 unknown #
coedge $-1 $158 $157 $258 $394 reversed $62 $-1 #
coedge $-1 $400 $401 $157 $264 forward $402 $-1 #
edge $-1 $403 -18.151996856093003 $268 -14.222231076566271 $263 $404 forward 7 unknown #
coedge $-1 $405 $159 $260 $397 forward $256 $-1 #
coedge $-1 $159 $405 $400 $406 forward $256 $-1 #
vertex $-1 $261 $407 #
vertex $-1 $264 $408 #
straight-curve $-1 0 39.194122130790582 14.222231076566271 1 0 0 I I #
face $-1 $-1 $409 $36 $-1 $410 reversed single #
loop $-1 $-1 $167 $161 #
plane-surface $-1 0 0 18.151996856093003 0 0 1 1 0 0 forward_v I I I I #
coedge $-1 $411 $412 $413 $414 reversed $162 $-1 #
coedge $-1 $415 $164 $166 $280 forward $101 $-1 #
coedge $-1 $164 $415 $411 $416 forward $101 $-1 #
coedge $-1 $413 $167 $164 $277 forward $271 $-1 #
edge $-1 $283 5.2952858699436938 $417 16.298466614836268 $276 $418 forward 7 unknown #
coedge $-1 $419 $420 $165 $279 forward $409 $-1 #
edge $-1 $421 -64.602802618748811 $282 -50.020197642662538 $278 $422 forward 7 unknown #
edge $-1 $283 -28.313644160482269 $421 3.3053628318135693e-014 $166 $423 forward 7 unknown #
coedge $-1 $167 $413 $419 $424 forward $271 $-1 #
vertex $-1 $168 $425 #
vertex $-1 $168 $426 #
straight-curve $-1 -78.614570875996463 16.092162112333675 18.151996856093007 1 0 0 I I #
coedge $-1 $285 $285 $-1 $427 reversed $171 $-1 #
edge $-1 $428 0 $428 6.2831853071796004 $172 $429 forward 7 unknown #
vertex $-1 $175 $430 #
ellipse-curve $-1 -65.315108437423746 18.292798261312193 10.860694368049858 -0.51503808176128008 0 0.85716729658548041 0.85716729658548041 0 0.51503808176128008 1 I I #
coedge $-1 $289 $289 $-1 $431 reversed $178 $-1 #
edge $-1 $432 0 $432 6.2831853071796004 $179 $433 forward 7 unknown #
vertex $-1 $182 $434 #
ellipse-curve $-1 -65.315108437423746 21.593752484779962 10.860694368049858 -0.51503808176128008 0 0.85716729658548041 0.85716729658548041 0 0.51503808176128008 1 I I #
coedge $-1 $293 $293 $-1 $435 reversed $185 $-1 #
edge $-1 $436 0 $436 6.2831853071796004 $186 $437 forward 7 unknown #
vertex $-1 $189 $438 #
ellipse-curve $-1 -65.315108437423746 24.894706708247732 10.860694368049858 -0.51503808176128008 0 0.85716729658548041 0.85716729658548041 0 0.51503808176128008 1 I I #
face $-1 $-1 $309 $40 $-1 $439 forward single #
loop $-1 $-1 $440 $190 #
plane-surface $-1 77.449873348185676 0 0 -1 0 0 0 0 1 forward_v I I I I #
coedge $-1 $441 $442 $443 $444 reversed $191 $-1 #
coedge $-1 $445 $193 $195 $307 forward $120 $-1 #
coedge $-1 $193 $445 $441 $446 forward $120 $-1 #
coedge $-1 $443 $196 $193 $304 forward $309 $-1 #
edge $-1 $311 3.4598637765203097 $447 10.265893337216605 $303 $448 forward 7 unknown #
coedge $-1 $449 $450 $194 $306 forward $298 $-1 #
edge $-1 $451 -104.92935226694941 $310 -95.946609406018254 $305 $452 forward 7 unknown #
edge $-1 $311 141.96858061905431 $451 154.89974669637132 $195 $453 forward 7 unknown #
coedge $-1 $196 $443 $449 $454 forward $309 $-1 #
loop $-1 $-1 $443 $297 #
vertex $-1 $306 $455 #
vertex $-1 $197 $456 #
straight-curve $-1 36.813364298266642 -10.322742333388767 18.151996856093007 -1 0 0 I I #
coedge $-1 $313 $313 $-1 $457 reversed $200 $-1 #
edge $-1 $458 0 $458 6.2831853071796004 $201 $459 forward 7 unknown #
vertex $-1 $204 $460 #
ellipse-curve $-1 72.798922187037448 -13.725757113736915 13.660625425627414 0.69465837861970381 0 0.71933979245794832 0.71933979245794832 0 -0.69465837861970381 1 I I #
face $-1 $-1 $329 $42 $-1 $461 forward single #
loop $-1 $-1 $462 $205 #
plane-surface $-1 77.449873348185676 0 0 -1 0 0 0 0 1 forward_v I I I I #
coedge $-1 $463 $464 $465 $466 reversed $206 $-1 #
coedge $-1 $467 $208 $210 $327 forward $129 $-1 #
coedge $-1 $208 $467 $463 $468 forward $129 $-1 #
coedge $-1 $465 $211 $208 $324 forward $329 $-1 #
edge $-1 $331 -8.4014701372248126 $469 -1.5954405765285173 $323 $470 forward 7 unknown #
coedge $-1 $471 $472 $209 $326 forward $318 $-1 #
edge $-1 $473 -104.92935226694941 $330 -95.946609406018254 $325 $474 forward 7 unknown #
edge $-1 $331 141.96858061905431 $473 154.89974669637132 $210 $475 forward 7 unknown #
coedge $-1 $211 $465 $471 $476 forward $329 $-1 #
loop $-1 $-1 $465 $317 #
vertex $-1 $326 $477 #
vertex $-1 $212 $478 #
straight-curve $-1 36.813364298266642 13.399925494101478 18.151996856093007 -1 0 0 I I #
coedge $-1 $333 $333 $-1 $479 reversed $215 $-1 #
edge $-1 $480 0 $480 6.2831853071796004 $216 $481 forward 7 unknown #
vertex $-1 $219 $482 #
ellipse-curve $-1 72.798922187037448 9.99691071375333 13.660625425627414 0.69465837861970381 0 0.71933979245794832 0.71933979245794832 0 -0.69465837861970381 1 I I #
face $-1 $-1 $235 $33 $-1 $483 reversed single #
loop $-1 $-1 $353 $220 #
plane-surface $-1 0 39.194122130790582 0 0 -1 0 0 0 -1 forward_v I I I I #
coedge $-1 $484 $351 $354 $485 forward $221 $-1 #
coedge $-1 $357 $223 $224 $345 reversed $138 $-1 #
coedge $-1 $351 $484 $223 $343 reversed $221 $-1 #
edge $-1 $358 -18.151996856093003 $486 18.151996856093003 $342 $487 forward 7 unknown #
coedge $-1 $225 $224 $484 $488 forward $89 $-1 #
edge $-1 $349 -77.449873348185676 $486 77.449873348185676 $341 $489 forward 7 unknown #
coedge $-1 $354 $353 $225 $347 reversed $338 $-1 #
edge $-1 $490 -77.449873348185676 $348 77.449873348185676 $346 $491 forward 7 unknown #
vertex $-1 $227 $492 #
vertex $-1 $360 $493 #
straight-curve $-1 77.449873348185676 0 -18.151996856093003 0 -1 0 I I #
coedge $-1 $340 $342 $228 $352 reversed $221 $-1 #
edge $-1 $355 -39.194122130790582 $358 39.194122130790582 $351 $494 forward 7 unknown #
coedge $-1 $346 $229 $234 $361 forward $338 $-1 #
coedge $-1 $229 $346 $340 $485 reversed $338 $-1 #
vertex $-1 $230 $495 #
straight-curve $-1 0 39.194122130790582 18.151996856093003 -1 0 0 I I #
coedge $-1 $231 $341 $233 $360 reversed $138 $-1 #
vertex $-1 $352 $496 #
straight-curve $-1 0 -39.194122130790582 18.151996856093003 1 0 0 I I #
edge $-1 $236 -18.151996856093003 $349 18.151996856093003 $233 $497 forward 7 unknown #
edge $-1 $237 -18.151996856093003 $348 18.151996856093003 $234 $498 forward 7 unknown #
point $-1 77.449873348185676 -39.194122130790582 18.151996856093003 #
point $-1 77.449873348185676 39.194122130790582 18.151996856093003 #
face $-1 $-1 $499 $34 $-1 $500 reversed single #
loop $-1 $-1 $501 $239 #
plane-surface $-1 0 0 -18.151996856093003 0 0 1 1 0 0 forward_v I I I I #
coedge $-1 $374 $384 $369 $502 forward $240 $-1 #
coedge $-1 $245 $242 $501 $503 reversed $146 $-1 #
coedge $-1 $242 $245 $367 $502 reversed $146 $-1 #
coedge $-1 $504 $505 $242 $371 forward $499 $-1 #
edge $-1 $506 -18.151996856093003 $507 18.151996856093003 $370 $508 forward 7 unknown #
coedge $-1 $501 $248 $243 $373 forward $365 $-1 #
edge $-1 $253 -27.433410775529794 $377 -18.286116165489844 $372 $509 forward 7 unknown #
coedge $-1 $250 $367 $244 $375 forward $240 $-1 #
edge $-1 $376 18.286116165489844 $252 27.433410775529794 $374 $510 forward 7 unknown #
vertex $-1 $375 $511 #
vertex $-1 $373 $512 #
straight-curve $-1 -41.145879635999663 -20.349992797754233 0 0 0 -1 I I #
coedge $-1 $505 $504 $247 $380 forward $499 $-1 #
edge $-1 $385 -18.151996856093003 $382 18.151996856093003 $379 $513 forward 7 unknown #
coedge $-1 $248 $501 $505 $514 forward $365 $-1 #
vertex $-1 $249 $515 #
straight-curve $-1 -50.293174246039612 -14.886028732136204 -18.151996856093003 0 1 0 I I #
coedge $-1 $367 $250 $504 $516 forward $240 $-1 #
vertex $-1 $516 $517 #
straight-curve $-1 -50.293174246039612 -14.886028732136204 18.151996856093003 0 -1 0 I I #
point $-1 -50.293174246039612 -20.349992797754233 18.151996856093003 #
point $-1 -50.293174246039612 -20.349992797754233 -18.151996856093003 #
face $-1 $-1 $402 $35 $-1 $518 reversed single #
loop $-1 $-1 $519 $255 #
plane-surface $-1 0 51.292901404354915 16.187113966329637 0 -1 0 0 0 -1 forward_v I I I I #
coedge $-1 $520 $258 $401 $521 forward $154 $-1 #
coedge $-1 $258 $520 $259 $396 forward $154 $-1 #
edge $-1 $398 -77.449873348185676 $403 77.449873348185676 $258 $522 forward 7 unknown #
coedge $-1 $260 $259 $523 $524 forward $97 $-1 #
edge $-1 $525 -51.292901404354915 $398 -39.194122130790582 $259 $526 forward 7 unknown #
edge $-1 $267 -6.0493896367821662 $527 6.0493896367821662 $260 $528 forward 7 unknown #
vertex $-1 $394 $529 #
straight-curve $-1 -77.449873348185676 39.194122130790582 0 0 0 1 I I #
coedge $-1 $530 $263 $266 $406 reversed $402 $-1 #
coedge $-1 $263 $530 $392 $521 reversed $402 $-1 #
loop $-1 $-1 $263 $389 #
vertex $-1 $521 $531 #
straight-curve $-1 77.449873348185676 39.194122130790582 0 0 0 -1 I I #
coedge $-1 $266 $265 $532 $533 forward $256 $-1 #
edge $-1 $534 -6.0493896367821662 $268 6.0493896367821662 $400 $535 forward 7 unknown #
point $-1 -77.449873348185676 39.194122130790582 14.222231076566271 #
point $-1 77.449873348185676 39.194122130790582 14.222231076566271 #
loop $-1 $-1 $278 $270 #
plane-surface $-1 -77.449873348185676 0 0 1 0 0 0 0 -1 forward_v I I I I #
coedge $-1 $412 $273 $275 $416 reversed $162 $-1 #
coedge $-1 $273 $411 $536 $537 reversed $162 $-1 #
coedge $-1 $281 $276 $273 $414 forward $271 $-1 #
edge $-1 $417 -25.434227349334677 $538 -1.1646975278107874 $413 $539 forward 7 unknown #
coedge $-1 $275 $274 $420 $540 reversed $101 $-1 #
edge $-1 $541 -3.3053628318135693e-014 $417 28.313644160482269 $411 $542 forward 7 unknown #
vertex $-1 $277 $543 #
straight-curve $-1 -53.180343526661787 10.796876242389981 18.151996856093003 0 1 0 I I #
coedge $-1 $536 $278 $281 $424 reversed $409 $-1 #
coedge $-1 $278 $536 $415 $540 forward $409 $-1 #
vertex $-1 $279 $544 #
straight-curve $-1 -77.449873348185676 16.092162112333675 68.172194498755545 0 0 1 I I #
straight-curve $-1 -77.449873348185648 16.092162112333675 3.5693918800067479 -0.85716729658548041 0 -0.51503808176128008 I I #
edge $-1 $538 -27.09534285722625 $282 -16.092162112333675 $419 $545 forward 7 unknown #
point $-1 -77.449873348185676 16.092162112333675 18.151996856093003 #
point $-1 -53.180343526661787 16.092162112333675 18.151996856093003 #
edge $-1 $546 1 $546 0 $285 $-1 forward 7 unknown #
vertex $-1 $286 $547 #
ellipse-curve $-1 -63.414102830488297 18.292798261312193 7.6968897978744764 -0.51503808176128008 0 0.85716729658548041 0.85716729658548041 0 0.51503808176128008 1 I I #
point $-1 -64.457941140838287 18.292798261312193 11.375732449811171 #
edge $-1 $548 1 $548 0 $289 $-1 forward 7 unknown #
vertex $-1 $290 $549 #
ellipse-curve $-1 -63.414102830488297 21.593752484779962 7.6968897978744764 -0.51503808176128008 0 0.85716729658548041 0.85716729658548041 0 0.51503808176128008 1 I I #
point $-1 -64.457941140838287 21.593752484779962 11.375732449811171 #
edge $-1 $550 1 $550 0 $293 $-1 forward 7 unknown #
vertex $-1 $294 $551 #
ellipse-curve $-1 -63.414102830488297 24.894706708247732 7.6968897978744764 -0.51503808176128008 0 0.85716729658548041 0.85716729658548041 0 0.51503808176128008 1 I I #
point $-1 -64.457941140838287 24.894706708247732 11.375732449811171 #
plane-surface $-1 0 0 18.151996856093003 0 0 1 1 0 0 forward_v I I I I #
coedge $-1 $450 $449 $442 $552 forward $298 $-1 #
coedge $-1 $442 $300 $302 $446 reversed $191 $-1 #
coedge $-1 $300 $441 $440 $552 reversed $191 $-1 #
coedge $-1 $308 $303 $300 $444 forward $309 $-1 #
edge $-1 $447 31.33460672762255 $553 40.636509049919034 $443 $554 forward 7 unknown #
coedge $-1 $302 $301 $450 $555 reversed $120 $-1 #
edge $-1 $556 -154.89974669637132 $447 -141.96858061905431 $441 $557 forward 7 unknown #
vertex $-1 $304 $558 #
straight-curve $-1 68.147971025889191 -6.8628785568684574 18.151996856093007 0 -1 0 I I #
coedge $-1 $440 $305 $308 $454 reversed $298 $-1 #
coedge $-1 $305 $440 $445 $555 forward $298 $-1 #
vertex $-1 $306 $559 #
straight-curve $-1 77.449873348185676 -10.322742333388767 114.09860626211126 0 0 1 I I #
straight-curve $-1 -33.975678292170855 -10.322742333388767 116.77166088386599 0.71933979245794832 0 -0.69465837861970381 I I #
edge $-1 $553 -17.128771894085062 $310 -10.322742333388767 $449 $560 forward 7 unknown #
point $-1 77.449873348185676 -10.322742333388767 18.151996856093003 #
point $-1 68.147971025889191 -10.322742333388767 18.151996856093007 #
edge $-1 $561 1 $561 0 $313 $-1 forward 7 unknown #
vertex $-1 $314 $562 #
ellipse-curve $-1 71.838543781634101 -13.725757113736915 12.66612449670083 0.69465837861970381 0 0.71933979245794832 0.71933979245794832 0 -0.69465837861970381 1 I I #
point $-1 73.518261979495392 -13.725757113736915 12.965967047007712 #
plane-surface $-1 0 0 18.151996856093003 0 0 1 1 0 0 forward_v I I I I #
coedge $-1 $472 $471 $464 $563 forward $318 $-1 #
coedge $-1 $464 $320 $322 $468 reversed $206 $-1 #
coedge $-1 $320 $463 $462 $563 reversed $206 $-1 #
coedge $-1 $328 $323 $320 $466 forward $329 $-1 #
edge $-1 $469 31.33460672762255 $564 40.636509049919034 $465 $565 forward 7 unknown #
coedge $-1 $322 $321 $472 $566 reversed $129 $-1 #
edge $-1 $567 -154.89974669637132 $469 -141.96858061905431 $463 $568 forward 7 unknown #
vertex $-1 $324 $569 #
straight-curve $-1 68.147971025889191 4.998455356876665 18.151996856093007 0 -1 0 I I #
coedge $-1 $462 $325 $328 $476 reversed $318 $-1 #
coedge $-1 $325 $462 $467 $566 forward $318 $-1 #
vertex $-1 $326 $570 #
straight-curve $-1 77.449873348185676 13.399925494101478 114.09860626211126 0 0 1 I I #
straight-curve $-1 -33.975678292170855 13.399925494101478 116.77166088386599 0.71933979245794832 0 -0.69465837861970381 I I #
edge $-1 $564 6.5938959334051823 $330 13.399925494101478 $471 $571 forward 7 unknown #
point $-1 77.449873348185676 13.399925494101478 18.151996856093003 #
point $-1 68.147971025889191 13.399925494101478 18.151996856093007 #
edge $-1 $572 1 $572 0 $333 $-1 forward 7 unknown #
vertex $-1 $334 $573 #
ellipse-curve $-1 71.838543781634101 9.99691071375333 12.66612449670083 0.69465837861970381 0 0.71933979245794832 0.71933979245794832 0 -0.69465837861970381 1 I I #
point $-1 73.518261979495392 9.99691071375333 12.965967047007712 #
plane-surface $-1 77.449873348185676 0 0 -1 0 0 0 0 1 forward_v I I I I #
coedge $-1 $342 $340 $344 $488 reversed $221 $-1 #
edge $-1 $355 -18.151996856093003 $490 18.151996856093003 $354 $574 forward 7 unknown #
vertex $-1 $488 $575 #
straight-curve $-1 -77.449873348185676 -39.194122130790582 0 0 0 -1 I I #
edge $-1 $486 -39.194122130790582 $490 39.194122130790582 $484 $576 forward 7 unknown #
straight-curve $-1 0 -39.194122130790582 -18.151996856093003 -1 0 0 I I #
vertex $-1 $347 $577 #
straight-curve $-1 0 39.194122130790582 -18.151996856093003 1 0 0 I I #
point $-1 77.449873348185676 39.194122130790582 -18.151996856093003 #
point $-1 77.449873348185676 -39.194122130790582 -18.151996856093003 #
straight-curve $-1 -77.449873348185676 0 18.151996856093003 0 -1 0 I I #
point $-1 -77.449873348185676 39.194122130790582 18.151996856093003 #
point $-1 -77.449873348185676 -39.194122130790582 18.151996856093003 #
straight-curve $-1 77.449873348185676 -39.194122130790582 0 0 0 -1 I I #
straight-curve $-1 77.449873348185676 39.194122130790582 0 0 0 -1 I I #
loop $-1 $-1 $370 $364 #
plane-surface $-1 0 -39.194122130790582 0 0 1 0 0 0 1 forward_v I I I I #
coedge $-1 $381 $372 $368 $503 forward $365 $-1 #
edge $-1 $507 -24.308093398654378 $376 -5.4639640656180291 $367 $578 forward 7 unknown #
edge $-1 $377 5.4639640656180291 $506 24.308093398654378 $501 $579 forward 7 unknown #
coedge $-1 $379 $370 $384 $516 reversed $499 $-1 #
coedge $-1 $370 $379 $381 $514 reversed $499 $-1 #
vertex $-1 $514 $580 #
vertex $-1 $371 $581 #
straight-curve $-1 -41.145879635999663 -39.194122130790582 0 0 0 1 I I #
straight-curve $-1 -22.859763470509819 -20.349992797754233 -18.151996856093003 1 0 0 I I #
straight-curve $-1 -22.859763470509819 -20.349992797754233 18.151996856093003 -1 0 0 I I #
point $-1 -41.145879635999663 -20.349992797754233 18.151996856093003 #
point $-1 -41.145879635999663 -20.349992797754233 -18.151996856093003 #
straight-curve $-1 -50.293174246039612 -39.194122130790582 0 0 0 -1 I I #
edge $-1 $506 41.145879635999663 $382 50.293174246039612 $505 $582 forward 7 unknown #
point $-1 -50.293174246039612 -39.194122130790582 -18.151996856093003 #
edge $-1 $385 -50.293174246039612 $507 -41.145879635999663 $504 $583 forward 7 unknown #
point $-1 -50.293174246039612 -39.194122130790582 18.151996856093003 #
plane-surface $-1 77.449873348185676 0 0 -1 0 0 0 0 1 forward_v I I I I #
coedge $-1 $532 $584 $530 $585 forward $390 $-1 #
coedge $-1 $393 $392 $584 $586 forward $154 $-1 #
edge $-1 $403 39.194122130790582 $587 51.292901404354915 $401 $588 forward 7 unknown #
straight-curve $-1 0 39.194122130790582 18.151996856093003 1 0 0 I I #
coedge $-1 $584 $532 $395 $524 reversed $390 $-1 #
edge $-1 $525 -1.9648828897633663 $527 1.9648828897633663 $523 $589 forward 7 unknown #
vertex $-1 $586 $590 #
straight-curve $-1 -77.449873348185676 0 18.151996856093003 0 -1 0 I I #
vertex $-1 $533 $591 #
straight-curve $-1 -77.449873348185676 45.243511767572748 14.222231076566271 0 1 0 I I #
point $-1 -77.449873348185676 39.194122130790582 18.151996856093003 #
coedge $-1 $401 $400 $519 $585 reversed $402 $-1 #
point $-1 77.449873348185676 39.194122130790582 18.151996856093003 #
coedge $-1 $523 $519 $405 $533 reversed $390 $-1 #
edge $-1 $527 -77.449873348185676 $534 77.449873348185676 $532 $592 forward 7 unknown #
vertex $-1 $406 $593 #
straight-curve $-1 77.449873348185676 45.243511767572748 14.222231076566271 0 -1 0 I I #
coedge $-1 $420 $419 $412 $537 forward $409 $-1 #
edge $-1 $538 50.020197642662538 $541 64.602802618748811 $536 $594 forward 7 unknown #
vertex $-1 $424 $595 #
straight-curve $-1 -78.614570875996463 27.09534285722625 18.151996856093007 -1 0 0 I I #
edge $-1 $541 -16.298466614836268 $421 -5.2952858699436938 $420 $596 forward 7 unknown #
vertex $-1 $540 $597 #
straight-curve $-1 -77.449873348185648 27.09534285722625 3.5693918800067479 0.85716729658548041 0 0.51503808176128008 I I #
point $-1 -53.180343526661787 27.09534285722625 18.151996856093003 #
point $-1 -77.449873348185676 16.092162112333675 3.569391880006731 #
straight-curve $-1 -77.449873348185676 0 18.151996856093003 0 -1 0 I I #
vertex $-1 $427 $598 #
point $-1 -62.556935533902816 18.292798261312193 8.2119278796357573 #
vertex $-1 $431 $599 #
point $-1 -62.556935533902816 21.593752484779962 8.2119278796357573 #
vertex $-1 $435 $600 #
point $-1 -62.556935533902816 24.894706708247732 8.2119278796357573 #
edge $-1 $553 95.946609406018254 $556 104.92935226694941 $440 $601 forward 7 unknown #
vertex $-1 $454 $602 #
straight-curve $-1 36.813364298266642 -17.128771894085062 18.151996856093007 1 0 0 I I #
edge $-1 $556 -10.265893337216605 $451 -3.4598637765203097 $450 $603 forward 7 unknown #
vertex $-1 $555 $604 #
straight-curve $-1 -33.975678292170855 -17.128771894085062 116.77166088386599 -0.71933979245794832 0 0.69465837861970381 I I #
point $-1 68.147971025889191 -17.128771894085062 18.151996856093007 #
point $-1 77.449873348185676 -10.322742333388767 9.1692539951618528 #
straight-curve $-1 77.449873348185676 0 18.151996856093003 0 1 0 I I #
vertex $-1 $457 $605 #
point $-1 72.55788357409206 -13.725757113736915 11.971466118081127 #
edge $-1 $564 95.946609406018254 $567 104.92935226694941 $462 $606 forward 7 unknown #
vertex $-1 $476 $607 #
straight-curve $-1 36.813364298266642 6.5938959334051823 18.151996856093007 1 0 0 I I #
edge $-1 $567 1.5954405765285173 $473 8.4014701372248126 $472 $608 forward 7 unknown #
vertex $-1 $566 $609 #
straight-curve $-1 -33.975678292170855 6.5938959334051823 116.77166088386599 -0.71933979245794832 0 0.69465837861970381 I I #
point $-1 68.147971025889191 6.5938959334051823 18.151996856093007 #
point $-1 77.449873348185676 13.399925494101478 9.1692539951618528 #
straight-curve $-1 77.449873348185676 0 18.151996856093003 0 1 0 I I #
vertex $-1 $479 $610 #
point $-1 72.55788357409206 9.99691071375333 11.971466118081127 #
straight-curve $-1 -77.449873348185676 39.194122130790582 0 0 0 -1 I I #
point $-1 -77.449873348185676 -39.194122130790582 -18.151996856093003 #
straight-curve $-1 -77.449873348185676 0 -18.151996856093003 0 1 0 I I #
point $-1 -77.449873348185676 39.194122130790582 -18.151996856093003 #
straight-curve $-1 -41.145879635999663 -14.886028732136204 18.151996856093003 0 1 0 I I #
straight-curve $-1 -41.145879635999663 -14.886028732136204 -18.151996856093003 0 -1 0 I I #
point $-1 -41.145879635999663 -39.194122130790582 -18.151996856093003 #
point $-1 -41.145879635999663 -39.194122130790582 18.151996856093003 #
straight-curve $-1 0 -39.194122130790582 -18.151996856093003 -1 0 0 I I #
straight-curve $-1 0 -39.194122130790582 18.151996856093003 1 0 0 I I #
coedge $-1 $519 $523 $520 $586 reversed $390 $-1 #
edge $-1 $587 -1.9648828897633663 $534 1.9648828897633663 $530 $611 forward 7 unknown #
edge $-1 $587 -77.449873348185676 $525 77.449873348185676 $584 $612 forward 7 unknown #
vertex $-1 $521 $613 #
straight-curve $-1 77.449873348185676 0 18.151996856093003 0 1 0 I I #
straight-curve $-1 -77.449873348185676 51.292901404354915 16.187113966329637 0 0 -1 I I #
point $-1 -77.449873348185676 51.292901404354915 18.151996856093003 #
point $-1 -77.449873348185676 51.292901404354915 14.222231076566271 #
straight-curve $-1 0 51.292901404354915 14.222231076566271 1 0 0 I I #
point $-1 77.449873348185676 51.292901404354915 14.222231076566271 #
straight-curve $-1 -77.449873348185676 27.09534285722625 68.172194498755545 0 0 -1 I I #
point $-1 -77.449873348185676 27.09534285722625 18.151996856093003 #
straight-curve $-1 -77.449873348185676 10.796876242389981 3.5693918800067275 0 -1 0 I I #
point $-1 -77.449873348185676 27.09534285722625 3.569391880006731 #
point $-1 -62.899064748727021 18.292798261312193 6.8397225012889962 #
point $-1 -62.899064748727021 21.593752484779962 6.8397225012889962 #
point $-1 -62.899064748727021 24.894706708247732 6.8397225012889962 #
straight-curve $-1 77.449873348185676 -17.128771894085062 114.09860626211126 0 0 -1 I I #
point $-1 77.449873348185676 -17.128771894085062 18.151996856093003 #
straight-curve $-1 77.449873348185662 -6.8628785568684574 9.1692539951618528 0 1 0 I I #
point $-1 77.449873348185676 -17.128771894085062 9.1692539951618528 #
point $-1 71.143885403014409 -13.725757113736915 11.946784704242882 #
straight-curve $-1 77.449873348185676 6.5938959334051823 114.09860626211126 0 0 -1 I I #
point $-1 77.449873348185676 6.5938959334051823 18.151996856093003 #
straight-curve $-1 77.449873348185662 4.998455356876665 9.1692539951618528 0 1 0 I I #
point $-1 77.449873348185676 6.5938959334051823 9.1692539951618528 #
point $-1 71.143885403014409 9.99691071375333 11.946784704242882 #
straight-curve $-1 77.449873348185676 51.292901404354915 16.187113966329637 0 0 -1 I I #
straight-curve $-1 0 51.292901404354915 18.151996856093003 -1 0 0 I I #
point $-1 77.449873348185676 51.292901404354915 18.151996856093003 #
End-of-ACIS-data 