500 0 10 0           
7 Unknown 11 ACIS 5.0 NT 24 Fri Mar 26 20:36:23 1999 
-1 9.9999999999999995e-007 1e-010 
body $-1 $10 $-1 $11 #
body $-1 $12 $-1 $13 #
body $-1 $14 $-1 $15 #
body $-1 $16 $-1 $17 #
body $-1 $18 $-1 $19 #
body $-1 $20 $-1 $21 #
body $-1 $22 $-1 $23 #
body $-1 $24 $-1 $25 #
body $-1 $26 $-1 $27 #
body $-1 $28 $-1 $29 #
lump $-1 $-1 $30 $0 #
transform $-1 1 0 0 0 1 0 0 0 1 59.500106814783166 36.502671810423109 17.304875442852001 1 rotate no_reflect no_shear #
lump $-1 $-1 $31 $1 #
transform $-1 1 0 0 0 1 0 0 0 1 59.500106814783166 36.502671810423109 17.304875442852001 1 rotate no_reflect no_shear #
lump $-1 $-1 $32 $2 #
transform $-1 1 0 0 0 1 0 0 0 1 59.500106814783166 36.502671810423109 17.304875442852001 1 rotate no_reflect no_shear #
lump $-1 $-1 $33 $3 #
transform $-1 1 0 0 0 1 0 0 0 1 59.500106814783166 36.502671810423109 17.304875442852001 1 rotate no_reflect no_shear #
lump $-1 $-1 $34 $4 #
transform $-1 1 0 0 0 1 0 0 0 1 59.500106814783166 36.502671810423109 17.304875442852001 1 rotate no_reflect no_shear #
lump $-1 $-1 $35 $5 #
transform $-1 1 0 0 0 1 0 0 0 1 59.500106814783166 36.502671810423109 17.304875442852001 1 rotate no_reflect no_shear #
lump $-1 $-1 $36 $6 #
transform $-1 1 0 0 0 1 0 0 0 1 59.500106814783166 36.502671810423109 17.304875442852001 1 rotate no_reflect no_shear #
lump $-1 $-1 $37 $7 #
transform $-1 1 0 0 0 1 0 0 0 1 59.500106814783166 36.502671810423109 17.304875442852001 1 rotate no_reflect no_shear #
lump $-1 $-1 $38 $8 #
transform $-1 1 0 0 0 1 0 0 0 1 59.500106814783166 36.502671810423109 17.304875442852001 1 rotate no_reflect no_shear #
lump $-1 $-1 $39 $9 #
transform $-1 1 0 0 0 1 0 0 0 1 59.500106814783166 36.502671810423109 17.304875442852001 1 rotate no_reflect no_shear #
shell $-1 $-1 $-1 $40 $-1 $10 #
shell $-1 $-1 $-1 $41 $-1 $12 #
shell $-1 $-1 $-1 $42 $-1 $14 #
shell $-1 $-1 $-1 $43 $-1 $16 #
shell $-1 $-1 $-1 $44 $-1 $18 #
shell $-1 $-1 $-1 $45 $-1 $20 #
shell $-1 $-1 $-1 $46 $-1 $22 #
shell $-1 $-1 $-1 $47 $-1 $24 #
shell $-1 $-1 $-1 $48 $-1 $26 #
shell $-1 $-1 $-1 $49 $-1 $28 #
face $-1 $50 $51 $30 $-1 $52 forward single #
face $-1 $53 $54 $31 $-1 $55 forward single #
face $-1 $56 $57 $32 $-1 $58 reversed single #
face $-1 $59 $60 $33 $-1 $61 forward single #
face $-1 $62 $63 $34 $-1 $64 forward single #
face $-1 $65 $66 $35 $-1 $67 forward single #
face $-1 $68 $69 $36 $-1 $70 reversed single #
face $-1 $71 $72 $37 $-1 $73 forward single #
face $-1 $74 $75 $38 $-1 $76 forward single #
face $-1 $77 $78 $39 $-1 $79 forward single #
face $-1 $80 $81 $30 $-1 $82 reversed single #
loop $-1 $-1 $83 $40 #
plane-surface $-1 0 0 17.304875442852001 0 0 1 1 0 0 forward_v I I I I #
face $-1 $84 $85 $31 $-1 $86 reversed single #
loop $-1 $-1 $87 $41 #
plane-surface $-1 -59.500106814783166 0 0 1 0 0 0 0 -1 forward_v I I I I #
face $-1 $88 $89 $32 $-1 $90 reversed single #
loop $-1 $-1 $91 $42 #
plane-surface $-1 53.769855959372585 -99.56317829324081 113.52934980698504 -1 0 0 0 -0.52991927123019833 0.84804809178421925 forward_v I I I I #
face $-1 $92 $93 $33 $-1 $94 forward single #
loop $-1 $95 $96 $43 #
cone-surface $-1 38.420080513932774 -32.361084889318207 14.340338379817897 0 0.52991927123019833 -0.84804809178421925 1 0 0 1 I I 0 1 1 forward I I I I #
face $-1 $97 $98 $34 $-1 $99 forward single #
loop $-1 $100 $101 $44 #
cone-surface $-1 44.176246305972711 -32.361084889318207 14.340338379817897 0 0.52991927123019833 -0.84804809178421925 1 0 0 1 I I 0 1 1 forward I I I I #
face $-1 $102 $103 $35 $-1 $104 forward single #
loop $-1 $105 $106 $45 #
cone-surface $-1 49.932412098012648 -32.361084889318207 14.340338379817897 0 0.52991927123019833 -0.84804809178421925 1 0 0 1 I I 0 1 1 forward I I I I #
face $-1 $107 $108 $36 $-1 $109 reversed single #
loop $-1 $-1 $110 $46 #
plane-surface $-1 47.313231881040672 96.543090512509266 136.3865845955325 1 0 0 0 -0.83867057594974714 -0.54463902268945019 forward_v I I I I #
face $-1 $111 $112 $37 $-1 $113 forward single #
loop $-1 $114 $115 $47 #
cone-surface $-1 49.750606867789173 33.709854710572912 13.47943161922019 0 -0.83867057594974714 -0.54463902268945019 0.5 0 0 1 I I 0 1 0.5 forward I I I I #
face $-1 $116 $117 $38 $-1 $118 forward single #
loop $-1 $119 $120 $48 #
cone-surface $-1 53.406669347911915 33.709854710572912 13.47943161922019 0 -0.83867057594974714 -0.54463902268945019 0.5 0 0 1 I I 0 1 0.5 forward I I I I #
face $-1 $121 $122 $39 $-1 $123 forward single #
loop $-1 $124 $125 $49 #
cone-surface $-1 57.062731828034657 33.709854710572912 13.47943161922019 0 -0.83867057594974714 -0.54463902268945019 0.5 0 0 1 I I 0 1 0.5 forward I I I I #
face $-1 $126 $127 $30 $-1 $128 reversed single #
loop $-1 $-1 $129 $50 #
plane-surface $-1 0 0 -17.304875442852001 0 0 1 1 0 0 forward_v I I I I #
coedge $-1 $130 $131 $132 $133 forward $51 $-1 #
face $-1 $134 $135 $31 $-1 $136 forward single #
loop $-1 $-1 $137 $53 #
plane-surface $-1 0 36.502671810423109 0 0 -1 0 0 0 -1 forward_v I I I I #
coedge $-1 $138 $139 $140 $141 forward $54 $-1 #
face $-1 $142 $143 $32 $-1 $144 reversed single #
loop $-1 $-1 $145 $56 #
plane-surface $-1 44.176246305972697 -36.502671810423109 12.611445716516883 0 -0.52991927123019833 0.84804809178421925 1 0 0 forward_v I I I I #
coedge $-1 $146 $147 $148 $149 reversed $57 $-1 #
face $-1 $-1 $150 $33 $-1 $151 forward single #
loop $-1 $152 $153 $59 #
cone-surface $-1 38.420080513932774 -31.710067088989469 13.298492134059245 0 0.52991927123019833 -0.84804809178421925 0.5 0 0 1 I I -0.70710678118654746 0.70710678118654746 0.5 forward I I I I #
loop $-1 $-1 $154 $43 #
coedge $-1 $96 $96 $155 $156 reversed $60 $-1 #
face $-1 $-1 $157 $34 $-1 $158 forward single #
loop $-1 $159 $160 $62 #
cone-surface $-1 44.176246305972711 -31.710067088989469 13.298492134059245 0 0.52991927123019833 -0.84804809178421925 0.5 0 0 1 I I -0.70710678118654746 0.70710678118654746 0.5 forward I I I I #
loop $-1 $-1 $161 $44 #
coedge $-1 $101 $101 $162 $163 reversed $63 $-1 #
face $-1 $-1 $164 $35 $-1 $165 forward single #
loop $-1 $166 $167 $65 #
cone-surface $-1 49.932412098012648 -31.710067088989469 13.298492134059245 0 0.52991927123019833 -0.84804809178421925 0.5 0 0 1 I I -0.70710678118654746 0.70710678118654746 0.5 forward I I I I #
loop $-1 $-1 $168 $45 #
coedge $-1 $106 $106 $169 $170 reversed $66 $-1 #
face $-1 $171 $172 $36 $-1 $173 reversed single #
loop $-1 $-1 $174 $68 #
plane-surface $-1 53.406669347911915 -3.2588871903420795 71.574424544489702 0 0.83867057594974714 0.54463902268945019 1 0 0 forward_v I I I I #
coedge $-1 $175 $176 $177 $178 reversed $69 $-1 #
face $-1 $-1 $179 $37 $-1 $180 forward single #
loop $-1 $181 $182 $71 #
cone-surface $-1 49.750606867789173 32.966621401082492 12.996770280049319 0 -0.83867057594974714 -0.54463902268945019 0.25 0 0 1 I I -0.70710678118654746 0.70710678118654746 0.25 forward I I I I #
loop $-1 $-1 $183 $47 #
coedge $-1 $115 $115 $184 $185 reversed $72 $-1 #
face $-1 $-1 $186 $38 $-1 $187 forward single #
loop $-1 $188 $189 $74 #
cone-surface $-1 53.406669347911915 32.966621401082492 12.996770280049319 0 -0.83867057594974714 -0.54463902268945019 0.25 0 0 1 I I -0.70710678118654746 0.70710678118654746 0.25 forward I I I I #
loop $-1 $-1 $190 $48 #
coedge $-1 $120 $120 $191 $192 reversed $75 $-1 #
face $-1 $-1 $193 $39 $-1 $194 forward single #
loop $-1 $195 $196 $77 #
cone-surface $-1 57.062731828034657 32.966621401082492 12.996770280049319 0 -0.83867057594974714 -0.54463902268945019 0.25 0 0 1 I I -0.70710678118654746 0.70710678118654746 0.25 forward I I I I #
loop $-1 $-1 $197 $49 #
coedge $-1 $125 $125 $198 $199 reversed $78 $-1 #
face $-1 $200 $201 $30 $-1 $202 reversed single #
loop $-1 $-1 $203 $80 #
plane-surface $-1 0 -36.502671810423109 0 0 1 0 0 0 1 forward_v I I I I #
coedge $-1 $204 $205 $206 $207 forward $81 $-1 #
coedge $-1 $208 $83 $209 $210 forward $51 $-1 #
coedge $-1 $83 $208 $211 $212 forward $51 $-1 #
coedge $-1 $213 $214 $83 $133 reversed $215 $-1 #
edge $-1 $216 -36.502671810423109 $217 36.502671810423109 $132 $218 forward 7 unknown #
face $-1 $219 $220 $31 $-1 $221 reversed single #
loop $-1 $-1 $140 $84 #
plane-surface $-1 -66.001072208131887 0 -9.935608468320666 0 0 1 1 0 0 forward_v I I I I #
coedge $-1 $222 $223 $139 $224 forward $85 $-1 #
coedge $-1 $225 $87 $226 $227 reversed $54 $-1 #
coedge $-1 $87 $225 $137 $224 reversed $54 $-1 #
coedge $-1 $228 $229 $87 $141 reversed $135 $-1 #
edge $-1 $230 -36.502671810423109 $231 36.502671810423109 $140 $232 forward 7 unknown #
face $-1 $233 $234 $32 $-1 $235 reversed single #
loop $-1 $-1 $236 $88 #
plane-surface $-1 34.582636652572809 -99.56317829324081 113.52934980698504 1 0 0 0 0.52991927123019833 -0.84804809178421925 forward_v I I I I #
coedge $-1 $237 $238 $239 $240 reversed $89 $-1 #
coedge $-1 $147 $91 $241 $242 reversed $57 $-1 #
coedge $-1 $91 $146 $237 $243 reversed $57 $-1 #
coedge $-1 $239 $244 $91 $149 forward $245 $-1 #
edge $-1 $246 13.278917336197296 $247 20.789974848979831 $148 $248 forward 7 unknown #
loop $-1 $-1 $155 $92 #
plane-surface $-1 44.176246305972697 -36.502671810423109 12.611445716516883 0 -0.52991927123019833 0.84804809178421925 1 0 0 forward_v I I I I #
loop $-1 $-1 $249 $59 #
coedge $-1 $153 $153 $154 $250 reversed $93 $-1 #
coedge $-1 $154 $154 $153 $250 forward $95 $-1 #
coedge $-1 $155 $155 $96 $156 forward $150 $-1 #
edge $-1 $251 5.0844183901451577e-015 $251 6.2831853071796058 $155 $252 forward 7 unknown #
loop $-1 $-1 $162 $97 #
plane-surface $-1 44.176246305972697 -36.502671810423109 12.611445716516883 0 -0.52991927123019833 0.84804809178421925 1 0 0 forward_v I I I I #
loop $-1 $-1 $253 $62 #
coedge $-1 $160 $160 $161 $254 reversed $98 $-1 #
coedge $-1 $161 $161 $160 $254 forward $100 $-1 #
coedge $-1 $162 $162 $101 $163 forward $157 $-1 #
edge $-1 $255 5.0844183901451577e-015 $255 6.2831853071796058 $162 $256 forward 7 unknown #
loop $-1 $-1 $169 $102 #
plane-surface $-1 44.176246305972697 -36.502671810423109 12.611445716516883 0 -0.52991927123019833 0.84804809178421925 1 0 0 forward_v I I I I #
loop $-1 $-1 $257 $65 #
coedge $-1 $167 $167 $168 $258 reversed $103 $-1 #
coedge $-1 $168 $168 $167 $258 forward $105 $-1 #
coedge $-1 $169 $169 $106 $170 forward $164 $-1 #
edge $-1 $259 5.0844183901451577e-015 $259 6.2831853071796058 $169 $260 forward 7 unknown #
face $-1 $261 $262 $36 $-1 $263 reversed single #
loop $-1 $-1 $264 $107 #
plane-surface $-1 59.500106814783166 0 0 -1 0 0 0 0 1 forward_v I I I I #
coedge $-1 $265 $266 $267 $268 reversed $108 $-1 #
coedge $-1 $176 $110 $269 $270 reversed $69 $-1 #
coedge $-1 $110 $175 $265 $271 reversed $69 $-1 #
coedge $-1 $267 $272 $110 $178 forward $273 $-1 #
edge $-1 $274 11.768873445831524 $275 16.287376314525908 $177 $276 forward 7 unknown #
loop $-1 $-1 $184 $111 #
plane-surface $-1 53.406669347911915 -3.2588871903420795 71.574424544489702 0 0.83867057594974714 0.54463902268945019 1 0 0 forward_v I I I I #
loop $-1 $-1 $277 $71 #
coedge $-1 $182 $182 $183 $278 reversed $112 $-1 #
coedge $-1 $183 $183 $182 $278 forward $114 $-1 #
coedge $-1 $184 $184 $115 $185 forward $179 $-1 #
edge $-1 $279 2.9795564271841615e-015 $279 6.2831853071796031 $184 $280 forward 7 unknown #
loop $-1 $-1 $191 $116 #
plane-surface $-1 53.406669347911915 -3.2588871903420795 71.574424544489702 0 0.83867057594974714 0.54463902268945019 1 0 0 forward_v I I I I #
loop $-1 $-1 $281 $74 #
coedge $-1 $189 $189 $190 $282 reversed $117 $-1 #
coedge $-1 $190 $190 $189 $282 forward $119 $-1 #
coedge $-1 $191 $191 $120 $192 forward $186 $-1 #
edge $-1 $283 2.9795564271841615e-015 $283 6.2831853071796031 $191 $284 forward 7 unknown #
loop $-1 $-1 $198 $121 #
plane-surface $-1 53.406669347911915 -3.2588871903420795 71.574424544489702 0 0.83867057594974714 0.54463902268945019 1 0 0 forward_v I I I I #
loop $-1 $-1 $285 $77 #
coedge $-1 $196 $196 $197 $286 reversed $122 $-1 #
coedge $-1 $197 $197 $196 $286 forward $124 $-1 #
coedge $-1 $198 $198 $125 $199 forward $193 $-1 #
edge $-1 $287 2.9795564271841615e-015 $287 6.2831853071796031 $198 $288 forward 7 unknown #
face $-1 $289 $290 $30 $-1 $291 reversed single #
loop $-1 $-1 $292 $126 #
plane-surface $-1 -59.500106814783166 0 0 1 0 0 0 0 -1 forward_v I I I I #
coedge $-1 $293 $211 $292 $294 forward $127 $-1 #
coedge $-1 $295 $129 $293 $296 forward $81 $-1 #
coedge $-1 $129 $295 $297 $298 forward $81 $-1 #
coedge $-1 $214 $213 $129 $207 reversed $215 $-1 #
edge $-1 $299 -36.502671810423109 $300 36.502671810423109 $206 $301 forward 7 unknown #
coedge $-1 $131 $130 $302 $303 forward $51 $-1 #
coedge $-1 $304 $305 $130 $210 reversed $290 $-1 #
edge $-1 $217 -59.500106814783166 $306 59.500106814783166 $209 $307 forward 7 unknown #
coedge $-1 $203 $308 $131 $212 reversed $127 $-1 #
edge $-1 $309 -59.500106814783166 $216 59.500106814783166 $211 $310 forward 7 unknown #
coedge $-1 $206 $132 $308 $311 forward $215 $-1 #
coedge $-1 $132 $206 $304 $312 reversed $215 $-1 #
loop $-1 $-1 $213 $289 #
vertex $-1 $133 $313 #
vertex $-1 $133 $314 #
straight-curve $-1 59.500106814783166 0 17.304875442852001 0 1 0 I I #
face $-1 $315 $316 $31 $-1 $317 reversed single #
loop $-1 $-1 $318 $134 #
plane-surface $-1 -72.502037601480609 0 -13.620241955586334 1 0 0 0 0 -1 forward_v I I I I #
coedge $-1 $319 $137 $320 $321 reversed $85 $-1 #
coedge $-1 $137 $319 $228 $322 reversed $85 $-1 #
edge $-1 $230 9.935608468320666 $323 17.304875442852001 $137 $324 forward 7 unknown #
coedge $-1 $139 $138 $325 $326 reversed $54 $-1 #
coedge $-1 $327 $328 $138 $227 forward $329 $-1 #
edge $-1 $330 -17.304875442852001 $231 -9.935608468320666 $226 $331 forward 7 unknown #
coedge $-1 $332 $140 $223 $322 forward $135 $-1 #
coedge $-1 $140 $332 $327 $333 forward $135 $-1 #
vertex $-1 $224 $334 #
vertex $-1 $333 $335 #
straight-curve $-1 -59.500106814783166 0 -9.935608468320666 0 -1 0 I I #
face $-1 $-1 $245 $32 $-1 $336 forward single #
loop $-1 $-1 $337 $142 #
plane-surface $-1 0 -36.502671810423109 0 0 1 0 0 0 1 forward_v I I I I #
coedge $-1 $338 $339 $340 $341 reversed $143 $-1 #
coedge $-1 $342 $145 $147 $243 forward $89 $-1 #
coedge $-1 $145 $342 $338 $343 forward $89 $-1 #
coedge $-1 $340 $148 $145 $240 forward $245 $-1 #
edge $-1 $247 -31.681732806386236 $344 -12.494513499586461 $239 $345 forward 7 unknown #
coedge $-1 $346 $347 $146 $242 forward $234 $-1 #
edge $-1 $348 -44.153229186975636 $246 -39.459799460640518 $241 $349 forward 7 unknown #
edge $-1 $247 -8.8568768511464082 $348 0 $147 $350 forward 7 unknown #
coedge $-1 $148 $340 $346 $351 forward $245 $-1 #
loop $-1 $-1 $340 $233 #
vertex $-1 $242 $352 #
vertex $-1 $149 $353 #
straight-curve $-1 53.769855959372585 -49.781589146620405 17.304875442852001 0 1 0 I I #
coedge $-1 $249 $249 $-1 $354 reversed $152 $-1 #
edge $-1 $355 0 $355 6.2831853071796004 $153 $356 forward 7 unknown #
vertex $-1 $156 $357 #
ellipse-curve $-1 38.420080513932774 -32.747143054031845 14.958160579684442 0 -0.52991927123019833 0.84804809178421925 1 0 0 1 I I #
coedge $-1 $253 $253 $-1 $358 reversed $159 $-1 #
edge $-1 $359 0 $359 6.2831853071796004 $160 $360 forward 7 unknown #
vertex $-1 $163 $361 #
ellipse-curve $-1 44.176246305972711 -32.747143054031845 14.958160579684442 0 -0.52991927123019833 0.84804809178421925 1 0 0 1 I I #
coedge $-1 $257 $257 $-1 $362 reversed $166 $-1 #
edge $-1 $363 0 $363 6.2831853071796004 $167 $364 forward 7 unknown #
vertex $-1 $170 $365 #
ellipse-curve $-1 49.932412098012648 -32.747143054031845 14.958160579684442 0 -0.52991927123019833 0.84804809178421925 1 0 0 1 I I #
face $-1 $-1 $273 $36 $-1 $366 forward single #
loop $-1 $-1 $367 $171 #
plane-surface $-1 0 36.502671810423109 0 0 -1 0 0 0 -1 forward_v I I I I #
coedge $-1 $368 $369 $266 $370 forward $172 $-1 #
coedge $-1 $371 $174 $176 $271 forward $108 $-1 #
coedge $-1 $174 $371 $264 $370 reversed $108 $-1 #
coedge $-1 $372 $177 $174 $268 forward $273 $-1 #
edge $-1 $275 20.609897207084714 $373 32.796772140827201 $267 $374 forward 7 unknown #
coedge $-1 $375 $367 $175 $270 forward $262 $-1 #
edge $-1 $376 -57.846301335180868 $274 -50.888416854914247 $269 $377 forward 7 unknown #
edge $-1 $275 64.709017649964068 $376 73.005343620846247 $176 $378 forward 7 unknown #
coedge $-1 $177 $372 $375 $379 forward $273 $-1 #
loop $-1 $-1 $267 $261 #
vertex $-1 $270 $380 #
vertex $-1 $178 $381 #
straight-curve $-1 47.313231881040672 48.271545256254633 17.304875442852001 0 -1 0 I I #
coedge $-1 $277 $277 $-1 $382 reversed $181 $-1 #
edge $-1 $383 0 $383 6.2831853071796004 $182 $384 forward 7 unknown #
vertex $-1 $185 $385 #
ellipse-curve $-1 49.750606867789173 34.243420376075903 13.8259332027187 0 0.83867057594974714 0.54463902268945019 0.5 0 0 1 I I #
coedge $-1 $281 $281 $-1 $386 reversed $188 $-1 #
edge $-1 $387 0 $387 6.2831853071796004 $189 $388 forward 7 unknown #
vertex $-1 $192 $389 #
ellipse-curve $-1 53.406669347911915 34.243420376075903 13.8259332027187 0 0.83867057594974714 0.54463902268945019 0.5 0 0 1 I I #
coedge $-1 $285 $285 $-1 $390 reversed $195 $-1 #
edge $-1 $391 0 $391 6.2831853071796004 $196 $392 forward 7 unknown #
vertex $-1 $199 $393 #
ellipse-curve $-1 57.062731828034657 34.243420376075903 13.8259332027187 0 0.83867057594974714 0.54463902268945019 0.5 0 0 1 I I #
face $-1 $-1 $215 $30 $-1 $394 reversed single #
loop $-1 $-1 $304 $200 #
plane-surface $-1 0 36.502671810423109 0 0 -1 0 0 0 -1 forward_v I I I I #
coedge $-1 $302 $395 $203 $294 reversed $201 $-1 #
coedge $-1 $308 $203 $204 $296 reversed $127 $-1 #
edge $-1 $309 -17.304875442852001 $396 17.304875442852001 $292 $397 forward 7 unknown #
coedge $-1 $205 $204 $395 $398 forward $81 $-1 #
edge $-1 $300 -59.500106814783166 $396 59.500106814783166 $293 $399 forward 7 unknown #
coedge $-1 $305 $304 $205 $298 reversed $290 $-1 #
edge $-1 $400 -59.500106814783166 $299 59.500106814783166 $297 $401 forward 7 unknown #
vertex $-1 $207 $402 #
vertex $-1 $311 $403 #
straight-curve $-1 59.500106814783166 0 -17.304875442852001 0 -1 0 I I #
coedge $-1 $404 $292 $208 $303 reversed $201 $-1 #
edge $-1 $306 -36.502671810423109 $309 36.502671810423109 $302 $405 forward 7 unknown #
coedge $-1 $297 $209 $214 $312 forward $290 $-1 #
coedge $-1 $209 $297 $404 $406 reversed $290 $-1 #
vertex $-1 $210 $407 #
straight-curve $-1 0 36.502671810423109 17.304875442852001 -1 0 0 I I #
coedge $-1 $211 $293 $213 $311 reversed $127 $-1 #
vertex $-1 $303 $408 #
straight-curve $-1 0 -36.502671810423109 17.304875442852001 1 0 0 I I #
edge $-1 $216 -17.304875442852001 $300 17.304875442852001 $213 $409 forward 7 unknown #
edge $-1 $217 -17.304875442852001 $299 17.304875442852001 $214 $410 forward 7 unknown #
point $-1 59.500106814783166 -36.502671810423109 17.304875442852001 #
point $-1 59.500106814783166 36.502671810423109 17.304875442852001 #
face $-1 $-1 $329 $31 $-1 $411 reversed single #
loop $-1 $-1 $325 $219 #
plane-surface $-1 0 0 -17.304875442852001 0 0 1 1 0 0 forward_v I I I I #
coedge $-1 $412 $413 $319 $414 forward $220 $-1 #
coedge $-1 $223 $222 $318 $414 reversed $85 $-1 #
coedge $-1 $325 $415 $222 $321 forward $316 $-1 #
edge $-1 $416 -72.502037601480609 $323 -59.500106814783166 $222 $417 forward 7 unknown #
edge $-1 $230 -6.5009653933487215 $418 6.5009653933487215 $223 $419 forward 7 unknown #
vertex $-1 $224 $420 #
straight-curve $-1 -59.500106814783166 36.502671810423109 0 0 0 -1 I I #
coedge $-1 $421 $320 $225 $326 forward $316 $-1 #
edge $-1 $323 -36.502671810423109 $330 36.502671810423109 $325 $422 forward 7 unknown #
coedge $-1 $423 $226 $229 $333 reversed $329 $-1 #
coedge $-1 $226 $423 $421 $424 reversed $329 $-1 #
loop $-1 $-1 $226 $315 #
vertex $-1 $424 $425 #
straight-curve $-1 -59.500106814783166 -36.502671810423109 0 0 0 1 I I #
coedge $-1 $229 $228 $413 $426 forward $135 $-1 #
edge $-1 $427 -6.5009653933487215 $231 6.5009653933487215 $327 $428 forward 7 unknown #
point $-1 -59.500106814783166 36.502671810423109 -9.935608468320666 #
point $-1 -59.500106814783166 -36.502671810423109 -9.935608468320666 #
plane-surface $-1 0 0 17.304875442852001 0 0 1 1 0 0 forward_v I I I I #
coedge $-1 $347 $346 $339 $429 forward $234 $-1 #
coedge $-1 $339 $236 $238 $343 reversed $143 $-1 #
coedge $-1 $236 $338 $337 $429 reversed $143 $-1 #
coedge $-1 $244 $239 $236 $341 forward $245 $-1 #
edge $-1 $344 -20.789974848979831 $430 -13.278917336197296 $340 $431 forward 7 unknown #
coedge $-1 $238 $237 $347 $432 reversed $89 $-1 #
edge $-1 $433 0 $344 8.8568768511464082 $338 $434 forward 7 unknown #
vertex $-1 $240 $435 #
straight-curve $-1 22.088123152986348 -28.991614297640574 17.304875442852001 -1 0 0 I I #
coedge $-1 $337 $241 $244 $351 reversed $234 $-1 #
coedge $-1 $241 $337 $342 $432 forward $234 $-1 #
vertex $-1 $242 $436 #
straight-curve $-1 53.769855959372585 -36.502671810423109 56.764674903492519 0 0 1 I I #
straight-curve $-1 53.769855959372585 -36.502671810423109 12.611445716516883 0 -0.84804809178421925 -0.52991927123019833 I I #
edge $-1 $430 34.582636652572809 $246 53.769855959372585 $346 $437 forward 7 unknown #
point $-1 53.769855959372585 -36.502671810423109 17.304875442852001 #
point $-1 53.769855959372585 -28.991614297640574 17.304875442852001 #
edge $-1 $438 1 $438 0 $249 $-1 forward 7 unknown #
vertex $-1 $250 $439 #
ellipse-curve $-1 38.420080513932774 -31.975026724604568 13.722516179951354 0 -0.52991927123019833 0.84804809178421925 1 0 0 1 I I #
point $-1 39.420080513932774 -32.747143054031838 14.95816057968444 #
edge $-1 $440 1 $440 0 $253 $-1 forward 7 unknown #
vertex $-1 $254 $441 #
ellipse-curve $-1 44.176246305972711 -31.975026724604568 13.722516179951354 0 -0.52991927123019833 0.84804809178421925 1 0 0 1 I I #
point $-1 45.176246305972711 -32.747143054031838 14.95816057968444 #
edge $-1 $442 1 $442 0 $257 $-1 forward 7 unknown #
vertex $-1 $258 $443 #
ellipse-curve $-1 49.932412098012648 -31.975026724604568 13.722516179951354 0 -0.52991927123019833 0.84804809178421925 1 0 0 1 I I #
point $-1 50.932412098012648 -32.747143054031838 14.95816057968444 #
plane-surface $-1 0 0 17.304875442852001 0 0 1 1 0 0 forward_v I I I I #
coedge $-1 $269 $444 $371 $445 forward $262 $-1 #
coedge $-1 $369 $264 $444 $446 reversed $172 $-1 #
coedge $-1 $264 $368 $372 $447 reversed $172 $-1 #
edge $-1 $373 33.807877154763062 $448 42.104203125645263 $264 $449 forward 7 unknown #
coedge $-1 $266 $265 $367 $445 reversed $108 $-1 #
coedge $-1 $272 $267 $369 $447 forward $273 $-1 #
vertex $-1 $447 $450 #
straight-curve $-1 26.703334673955958 31.984168941728722 17.304875442852001 1 0 0 I I #
coedge $-1 $444 $269 $272 $379 reversed $262 $-1 #
vertex $-1 $270 $451 #
straight-curve $-1 47.313231881040672 36.502671810423109 68.193292297766249 0 0 1 I I #
straight-curve $-1 47.313231881040672 -3.2588871903420795 71.574424544489702 0 0.54463902268945019 -0.83867057594974714 I I #
edge $-1 $452 -59.500106814783166 $274 -47.313231881040672 $375 $453 forward 7 unknown #
point $-1 47.313231881040672 36.502671810423109 17.304875442852001 #
point $-1 47.313231881040672 31.984168941728726 17.304875442851994 #
edge $-1 $454 1 $454 0 $277 $-1 forward 7 unknown #
vertex $-1 $278 $455 #
ellipse-curve $-1 49.750606867789173 33.176289045069929 13.132930035721682 0 0.83867057594974714 0.54463902268945019 0.5 0 0 1 I I #
point $-1 50.250606867789173 34.243420376075903 13.825933202718698 #
edge $-1 $456 1 $456 0 $281 $-1 forward 7 unknown #
vertex $-1 $282 $457 #
ellipse-curve $-1 53.406669347911915 33.176289045069929 13.132930035721682 0 0.83867057594974714 0.54463902268945019 0.5 0 0 1 I I #
point $-1 53.906669347911915 34.243420376075903 13.825933202718698 #
edge $-1 $458 1 $458 0 $285 $-1 forward 7 unknown #
vertex $-1 $286 $459 #
ellipse-curve $-1 57.062731828034657 33.176289045069929 13.132930035721682 0 0.83867057594974714 0.54463902268945019 0.5 0 0 1 I I #
point $-1 57.562731828034657 34.243420376075903 13.825933202718698 #
plane-surface $-1 59.500106814783166 0 0 -1 0 0 0 0 1 forward_v I I I I #
coedge $-1 $292 $404 $295 $398 reversed $201 $-1 #
vertex $-1 $398 $460 #
straight-curve $-1 -59.500106814783166 -36.502671810423109 0 0 0 -1 I I #
edge $-1 $396 -36.502671810423109 $400 36.502671810423109 $395 $461 forward 7 unknown #
straight-curve $-1 0 -36.502671810423109 -17.304875442852001 -1 0 0 I I #
vertex $-1 $298 $462 #
straight-curve $-1 0 36.502671810423109 -17.304875442852001 1 0 0 I I #
point $-1 59.500106814783166 36.502671810423109 -17.304875442852001 #
point $-1 59.500106814783166 -36.502671810423109 -17.304875442852001 #
coedge $-1 $395 $302 $305 $406 forward $201 $-1 #
straight-curve $-1 -59.500106814783166 0 17.304875442852001 0 -1 0 I I #
edge $-1 $306 -17.304875442852001 $400 17.304875442852001 $305 $463 forward 7 unknown #
point $-1 -59.500106814783166 36.502671810423109 17.304875442852001 #
point $-1 -59.500106814783166 -36.502671810423109 17.304875442852001 #
straight-curve $-1 59.500106814783166 -36.502671810423109 0 0 0 -1 I I #
straight-curve $-1 59.500106814783166 36.502671810423109 0 0 0 -1 I I #
plane-surface $-1 0 -36.502671810423109 0 0 1 0 0 0 1 forward_v I I I I #
coedge $-1 $464 $318 $415 $465 reversed $220 $-1 #
coedge $-1 $318 $464 $332 $426 reversed $220 $-1 #
edge $-1 $418 -3.6846334872656676 $416 3.6846334872656676 $319 $466 forward 7 unknown #
coedge $-1 $320 $421 $412 $465 forward $316 $-1 #
vertex $-1 $321 $467 #
straight-curve $-1 0 36.502671810423109 -17.304875442852001 1 0 0 I I #
vertex $-1 $322 $468 #
straight-curve $-1 -66.001072208131887 36.502671810423109 -9.935608468320666 -1 0 0 I I #
point $-1 -59.500106814783166 36.502671810423109 -17.304875442852001 #
coedge $-1 $415 $325 $328 $424 forward $316 $-1 #
straight-curve $-1 -59.500106814783166 0 -17.304875442852001 0 -1 0 I I #
coedge $-1 $328 $327 $464 $469 forward $329 $-1 #
edge $-1 $330 -6.5009653933487215 $470 6.5009653933487215 $328 $471 forward 7 unknown #
point $-1 -59.500106814783166 -36.502671810423109 -17.304875442852001 #
edge $-1 $418 -36.502671810423109 $427 36.502671810423109 $413 $472 forward 7 unknown #
vertex $-1 $426 $473 #
straight-curve $-1 -66.001072208131887 -36.502671810423109 -9.935608468320666 1 0 0 I I #
edge $-1 $430 39.459799460640518 $433 44.153229186975636 $337 $474 forward 7 unknown #
vertex $-1 $351 $475 #
straight-curve $-1 34.582636652572809 -49.781589146620405 17.304875442852001 0 -1 0 I I #
edge $-1 $433 12.494513499586461 $348 31.681732806386236 $347 $476 forward 7 unknown #
vertex $-1 $432 $477 #
straight-curve $-1 34.582636652572809 -36.502671810423109 12.611445716516883 0 0.84804809178421925 0.52991927123019833 I I #
point $-1 34.582636652572809 -28.991614297640574 17.304875442852001 #
point $-1 53.769855959372585 -36.502671810423109 12.611445716516883 #
straight-curve $-1 0 -36.502671810423109 17.304875442852001 1 0 0 I I #
vertex $-1 $354 $478 #
point $-1 39.420080513932774 -31.975026724604568 13.722516179951354 #
vertex $-1 $358 $479 #
point $-1 45.176246305972711 -31.975026724604568 13.722516179951354 #
vertex $-1 $362 $480 #
point $-1 50.932412098012648 -31.975026724604568 13.722516179951354 #
coedge $-1 $367 $375 $368 $446 forward $262 $-1 #
edge $-1 $448 -32.796772140827201 $376 -20.609897207084714 $367 $481 forward 7 unknown #
edge $-1 $452 -17.304875442852001 $448 -10.34699096258538 $368 $482 forward 7 unknown #
edge $-1 $373 31.984168941728726 $452 36.502671810423109 $369 $483 forward 7 unknown #
vertex $-1 $370 $484 #
straight-curve $-1 59.500106814783166 13.571079768953577 45.658547247875433 0 0.54463902268945019 -0.83867057594974714 I I #
point $-1 59.500106814783159 31.984168941728726 17.304875442851994 #
point $-1 47.313231881040672 36.502671810423109 10.34699096258538 #
vertex $-1 $447 $485 #
straight-curve $-1 0 36.502671810423109 17.304875442852001 -1 0 0 I I #
vertex $-1 $382 $486 #
point $-1 50.250606867789173 33.176289045069929 13.132930035721682 #
vertex $-1 $386 $487 #
point $-1 53.906669347911915 33.176289045069929 13.132930035721682 #
vertex $-1 $390 $488 #
point $-1 57.562731828034657 33.176289045069929 13.132930035721682 #
point $-1 -59.500106814783166 -36.502671810423109 -17.304875442852001 #
straight-curve $-1 -59.500106814783166 0 -17.304875442852001 0 1 0 I I #
point $-1 -59.500106814783166 36.502671810423109 -17.304875442852001 #
straight-curve $-1 -59.500106814783166 36.502671810423109 0 0 0 -1 I I #
coedge $-1 $413 $412 $423 $469 reversed $220 $-1 #
edge $-1 $470 -36.502671810423109 $416 36.502671810423109 $412 $489 forward 7 unknown #
straight-curve $-1 -72.502037601480609 36.502671810423109 -13.620241955586334 0 0 -1 I I #
point $-1 -72.502037601480609 36.502671810423109 -17.304875442852001 #
point $-1 -72.502037601480609 36.502671810423109 -9.935608468320666 #
edge $-1 $427 -3.6846334872656676 $470 3.6846334872656676 $464 $490 forward 7 unknown #
vertex $-1 $465 $491 #
straight-curve $-1 -66.001072208131887 -36.502671810423109 -17.304875442852001 -1 0 0 I I #
straight-curve $-1 -72.502037601480609 0 -9.935608468320666 0 -1 0 I I #
point $-1 -72.502037601480609 -36.502671810423109 -9.935608468320666 #
straight-curve $-1 34.582636652572809 -36.502671810423109 56.764674903492519 0 0 -1 I I #
point $-1 34.582636652572809 -36.502671810423109 17.304875442852001 #
straight-curve $-1 22.088123152986348 -36.502671810423109 12.611445716516881 1 0 0 I I #
point $-1 34.582636652572809 -36.502671810423109 12.611445716516883 #
point $-1 38.420080513932774 -31.445107453374369 12.874468088167136 #
point $-1 44.176246305972711 -31.445107453374369 12.874468088167136 #
point $-1 49.932412098012648 -31.445107453374369 12.874468088167136 #
straight-curve $-1 26.703334673955958 36.502671810423109 10.346990962585373 -1 0 0 I I #
straight-curve $-1 59.500106814783166 36.502671810423109 0 0 0 -1 I I #
straight-curve $-1 59.500106814783166 0 17.304875442852001 0 1 0 I I #
point $-1 59.500106814783159 36.502671810423109 10.34699096258538 #
point $-1 59.500106814783166 36.502671810423109 17.304875442852001 #
point $-1 49.750606867789173 32.756953757095054 12.860610524376956 #
point $-1 53.406669347911915 32.756953757095054 12.860610524376956 #
point $-1 57.062731828034657 32.756953757095054 12.860610524376956 #
straight-curve $-1 -72.502037601480609 0 -17.304875442852001 0 1 0 I I #
straight-curve $-1 -72.502037601480609 -36.502671810423109 -13.620241955586334 0 0 -1 I I #
point $-1 -72.502037601480609 -36.502671810423109 -17.304875442852001 #
End-of-ACIS-data 