500 0 5 0           
7 Unknown 11 ACIS 5.0 NT 24 Thu Mar 25 16:23:30 1999 
-1 9.9999999999999995e-007 1e-010 
body $-1 $5 $-1 $6 #
body $-1 $7 $-1 $8 #
body $-1 $9 $-1 $10 #
body $-1 $11 $-1 $12 #
body $-1 $13 $-1 $14 #
lump $-1 $-1 $15 $0 #
transform $-1 1 0 0 0 1 0 0 0 1 55.432599871822262 33.174466390772643 13.271710183316182 1 rotate no_reflect no_shear #
lump $-1 $-1 $16 $1 #
transform $-1 1 0 0 0 1 0 0 0 1 55.432599871822262 33.174466390772643 13.271710183316182 1 rotate no_reflect no_shear #
lump $-1 $-1 $17 $2 #
transform $-1 1 0 0 0 1 0 0 0 1 55.432599871822262 33.174466390772643 13.271710183316182 1 rotate no_reflect no_shear #
lump $-1 $-1 $18 $3 #
transform $-1 1 0 0 0 1 0 0 0 1 55.432599871822262 33.174466390772643 13.271710183316182 1 rotate no_reflect no_shear #
lump $-1 $-1 $19 $4 #
transform $-1 1 0 0 0 1 0 0 0 1 55.432599871822262 33.174466390772643 13.271710183316182 1 rotate no_reflect no_shear #
shell $-1 $-1 $-1 $20 $-1 $5 #
shell $-1 $-1 $-1 $21 $-1 $7 #
shell $-1 $-1 $-1 $22 $-1 $9 #
shell $-1 $-1 $-1 $23 $-1 $11 #
shell $-1 $-1 $-1 $24 $-1 $13 #
face $-1 $25 $26 $15 $-1 $27 forward single #
face $-1 $28 $29 $16 $-1 $30 reversed single #
face $-1 $31 $32 $17 $-1 $33 forward single #
face $-1 $34 $35 $18 $-1 $36 reversed single #
face $-1 $37 $38 $19 $-1 $39 reversed single #
face $-1 $40 $41 $15 $-1 $42 reversed single #
loop $-1 $-1 $43 $20 #
plane-surface $-1 0 0 13.271710183316182 0 0 1 1 0 0 forward_v I I I I #
face $-1 $44 $45 $16 $-1 $46 forward single #
loop $-1 $-1 $47 $21 #
plane-surface $-1 -49.289815525388384 0 -8.9604599152643587 0 0 1 1 0 0 forward_v I I I I #
face $-1 $48 $49 $17 $-1 $50 forward single #
loop $-1 $-1 $51 $22 #
plane-surface $-1 98.648975387714486 -8.0637822406933122 151.48549779016636 0 -1 0 -0.87461971476443456 0 -0.48480960649040278 forward_v I I I I #
face $-1 $52 $53 $18 $-1 $54 reversed single #
loop $-1 $55 $56 $23 #
cone-surface $-1 51.509624774849179 -13.852163928825156 6.7676684289312359 -0.87461971476443456 0 -0.48480960649040278 0.48480960649040278 0 -0.87461971476443456 1 I I 0 1 1 forward I I I I #
face $-1 $57 $58 $19 $-1 $59 reversed single #
loop $-1 $60 $61 $24 #
cone-surface $-1 51.509624774849179 -10.379134915946054 6.7676684289312359 -0.87461971476443456 0 -0.48480960649040278 0.48480960649040278 0 -0.87461971476443456 1 I I 0 1 1 forward I I I I #
face $-1 $62 $63 $15 $-1 $64 reversed single #
loop $-1 $-1 $65 $25 #
plane-surface $-1 0 0 -13.271710183316182 0 0 1 1 0 0 forward_v I I I I #
coedge $-1 $66 $67 $68 $69 forward $26 $-1 #
face $-1 $70 $71 $16 $-1 $72 reversed single #
loop $-1 $-1 $73 $28 #
plane-surface $-1 -43.147031178954506 0 -11.11608504929027 -1 0 0 0 0 1 forward_v I I I I #
coedge $-1 $74 $75 $76 $77 reversed $29 $-1 #
face $-1 $78 $79 $17 $-1 $80 forward single #
loop $-1 $-1 $81 $31 #
plane-surface $-1 1.6840860106260465 -12.115649422385601 97.736983928970162 0.87461971476443456 0 0.48480960649040278 0.48480960649040278 0 -0.87461971476443456 forward_v I I I I #
coedge $-1 $82 $83 $84 $85 reversed $32 $-1 #
face $-1 $86 $87 $18 $-1 $88 forward single #
loop $-1 $89 $90 $34 #
cone-surface $-1 50.613664734087422 -13.852163928825156 6.2710296870183324 -0.87461971476443456 0 -0.48480960649040278 0.24240480324520139 0 -0.43730985738221728 1 I I -0.70710678118654746 0.70710678118654746 0.5 forward I I I I #
loop $-1 $-1 $91 $23 #
coedge $-1 $56 $56 $92 $93 reversed $35 $-1 #
face $-1 $94 $95 $19 $-1 $96 reversed single #
loop $-1 $97 $98 $37 #
cone-surface $-1 50.613664734087422 -10.379134915946054 6.2710296870183324 -0.87461971476443456 0 -0.48480960649040278 0.24240480324520139 0 -0.43730985738221728 1 I I -0.70710678118654746 0.70710678118654746 0.5 forward I I I I #
loop $-1 $-1 $99 $24 #
coedge $-1 $61 $61 $100 $101 reversed $38 $-1 #
face $-1 $102 $103 $15 $-1 $104 reversed single #
loop $-1 $-1 $105 $40 #
plane-surface $-1 0 -33.174466390772643 0 0 1 0 0 0 1 forward_v I I I I #
coedge $-1 $106 $107 $108 $109 forward $41 $-1 #
coedge $-1 $110 $43 $111 $112 forward $26 $-1 #
coedge $-1 $43 $110 $113 $114 forward $26 $-1 #
coedge $-1 $115 $116 $43 $69 reversed $117 $-1 #
edge $-1 $118 -33.174466390772643 $119 33.174466390772643 $68 $120 forward 7 unknown #
face $-1 $121 $122 $16 $-1 $123 reversed single #
loop $-1 $-1 $124 $44 #
plane-surface $-1 -55.432599871822262 0 0 1 0 0 0 0 -1 forward_v I I I I #
coedge $-1 $76 $125 $126 $127 reversed $45 $-1 #
coedge $-1 $128 $47 $129 $130 reversed $29 $-1 #
coedge $-1 $47 $128 $131 $132 reversed $29 $-1 #
coedge $-1 $133 $73 $47 $77 forward $45 $-1 #
edge $-1 $134 -33.174466390772643 $135 33.174466390772643 $76 $136 forward 7 unknown #
face $-1 $137 $138 $17 $-1 $139 forward single #
loop $-1 $-1 $140 $48 #
plane-surface $-1 98.648975387714486 -16.167516604077889 151.48549779016636 0 1 0 0.87461971476443456 0 0.48480960649040278 forward_v I I I I #
coedge $-1 $141 $142 $143 $144 reversed $49 $-1 #
coedge $-1 $83 $51 $142 $145 forward $32 $-1 #
coedge $-1 $51 $82 $146 $147 reversed $32 $-1 #
coedge $-1 $148 $143 $51 $85 forward $138 $-1 #
edge $-1 $149 -0.82053764922208927 $150 6.1081121779650189 $84 $151 forward 7 unknown #
face $-1 $152 $153 $18 $-1 $154 forward single #
loop $-1 $-1 $155 $52 #
plane-surface $-1 98.648975387714486 -8.0637822406933122 151.48549779016636 0 -1 0 -0.87461971476443456 0 -0.48480960649040278 forward_v I I I I #
loop $-1 $-1 $156 $34 #
coedge $-1 $90 $90 $91 $157 forward $53 $-1 #
coedge $-1 $91 $91 $90 $157 reversed $55 $-1 #
coedge $-1 $92 $92 $56 $93 forward $153 $-1 #
edge $-1 $158 0 $158 6.2831853071796004 $92 $159 forward 7 unknown #
face $-1 $160 $161 $19 $-1 $162 reversed single #
loop $-1 $163 $164 $57 #
cone-surface $-1 51.509624774849179 -13.852163928825156 6.7676684289312359 -0.87461971476443456 0 -0.48480960649040278 0.48480960649040278 0 -0.87461971476443456 1 I I 0 1 1 forward I I I I #
loop $-1 $-1 $165 $37 #
coedge $-1 $98 $98 $99 $166 forward $58 $-1 #
coedge $-1 $99 $99 $98 $166 reversed $60 $-1 #
coedge $-1 $100 $100 $61 $101 forward $167 $-1 #
edge $-1 $168 0 $168 6.2831853071796004 $100 $169 forward 7 unknown #
face $-1 $170 $171 $15 $-1 $172 reversed single #
loop $-1 $-1 $173 $62 #
plane-surface $-1 -55.432599871822262 0 0 1 0 0 0 0 -1 forward_v I I I I #
coedge $-1 $174 $113 $175 $176 forward $63 $-1 #
coedge $-1 $177 $65 $174 $178 forward $41 $-1 #
coedge $-1 $65 $177 $179 $180 forward $41 $-1 #
coedge $-1 $116 $115 $65 $109 reversed $117 $-1 #
edge $-1 $181 -33.174466390772643 $182 33.174466390772643 $108 $183 forward 7 unknown #
coedge $-1 $67 $66 $184 $185 forward $26 $-1 #
coedge $-1 $186 $187 $66 $112 reversed $171 $-1 #
edge $-1 $119 -55.432599871822262 $188 55.432599871822262 $111 $189 forward 7 unknown #
coedge $-1 $105 $190 $67 $114 reversed $63 $-1 #
edge $-1 $191 -55.432599871822262 $118 55.432599871822262 $113 $192 forward 7 unknown #
coedge $-1 $108 $68 $190 $193 forward $117 $-1 #
coedge $-1 $68 $108 $186 $194 reversed $117 $-1 #
loop $-1 $-1 $115 $170 #
vertex $-1 $69 $195 #
vertex $-1 $69 $196 #
straight-curve $-1 55.432599871822262 0 13.271710183316182 0 1 0 I I #
face $-1 $197 $198 $16 $-1 $199 forward single #
loop $-1 $-1 $129 $70 #
plane-surface $-1 0 -33.174466390772643 0 0 1 0 0 0 1 forward_v I I I I #
coedge $-1 $200 $201 $128 $202 forward $71 $-1 #
coedge $-1 $73 $133 $203 $204 reversed $45 $-1 #
coedge $-1 $205 $129 $73 $127 forward $122 $-1 #
edge $-1 $134 3.4024173906192239 $206 7.7136676586710458 $126 $207 forward 7 unknown #
coedge $-1 $75 $74 $124 $202 reversed $29 $-1 #
coedge $-1 $126 $208 $74 $130 forward $122 $-1 #
edge $-1 $209 -30.78769210912807 $134 -18.502123416260314 $129 $210 forward 7 unknown #
coedge $-1 $211 $212 $75 $132 forward $213 $-1 #
edge $-1 $135 18.502123416260314 $214 30.78769210912807 $131 $215 forward 7 unknown #
coedge $-1 $125 $76 $212 $216 reversed $45 $-1 #
vertex $-1 $130 $217 #
vertex $-1 $132 $218 #
straight-curve $-1 -43.147031178954506 0 -8.9604599152643587 0 1 0 I I #
face $-1 $219 $220 $17 $-1 $221 reversed single #
loop $-1 $-1 $222 $78 #
plane-surface $-1 0 0 13.271710183316182 0 0 1 1 0 0 forward_v I I I I #
coedge $-1 $223 $224 $222 $225 reversed $79 $-1 #
coedge $-1 $226 $81 $224 $227 reversed $49 $-1 #
coedge $-1 $81 $226 $82 $145 reversed $49 $-1 #
coedge $-1 $84 $222 $81 $144 forward $138 $-1 #
edge $-1 $228 -10.109691892885088 $149 -2.0059575295005114 $143 $229 forward 7 unknown #
edge $-1 $149 96.573713489185877 $230 110.86519974364457 $82 $231 forward 7 unknown #
coedge $-1 $232 $233 $83 $147 forward $234 $-1 #
edge $-1 $150 62.471038711767001 $230 74.970654343201488 $146 $235 forward 7 unknown #
coedge $-1 $236 $84 $233 $237 forward $138 $-1 #
vertex $-1 $144 $238 #
vertex $-1 $237 $239 #
straight-curve $-1 49.324487693857243 -8.0637822406933122 13.271710183316188 1 0 0 I I #
face $-1 $240 $241 $18 $-1 $242 forward single #
loop $-1 $243 $92 $86 #
plane-surface $-1 1.6840860106260465 -12.115649422385601 97.736983928970162 0.87461971476443456 0 0.48480960649040278 0.48480960649040278 0 -0.87461971476443456 forward_v I I I I #
coedge $-1 $244 $245 $246 $247 reversed $87 $-1 #
coedge $-1 $156 $156 $-1 $248 forward $89 $-1 #
edge $-1 $249 0 $249 6.2831853071796004 $90 $250 forward 7 unknown #
vertex $-1 $93 $251 #
ellipse-curve $-1 51.968274958228712 -13.852163928825156 7.0219023675989343 -0.87461971476443456 0 -0.48480960649040278 0.48480960649040278 0 -0.87461971476443456 1 I I #
face $-1 $252 $253 $19 $-1 $254 forward single #
loop $-1 $255 $256 $94 #
cone-surface $-1 50.613664734087422 -13.852163928825156 6.2710296870183324 -0.87461971476443456 0 -0.48480960649040278 0.24240480324520139 0 -0.43730985738221728 1 I I -0.70710678118654746 0.70710678118654746 0.5 forward I I I I #
loop $-1 $-1 $257 $57 #
coedge $-1 $164 $164 $258 $259 reversed $95 $-1 #
coedge $-1 $165 $165 $-1 $260 forward $97 $-1 #
edge $-1 $261 0 $261 6.2831853071796004 $98 $262 forward 7 unknown #
loop $-1 $263 $100 $252 #
vertex $-1 $101 $264 #
ellipse-curve $-1 51.968274958228712 -10.379134915946054 7.0219023675989343 -0.87461971476443456 0 -0.48480960649040278 0.48480960649040278 0 -0.87461971476443456 1 I I #
face $-1 $-1 $117 $15 $-1 $265 reversed single #
loop $-1 $-1 $186 $102 #
plane-surface $-1 0 33.174466390772643 0 0 -1 0 0 0 -1 forward_v I I I I #
coedge $-1 $266 $184 $187 $267 forward $103 $-1 #
coedge $-1 $190 $105 $106 $178 reversed $63 $-1 #
coedge $-1 $184 $266 $105 $176 reversed $103 $-1 #
edge $-1 $191 -13.271710183316182 $268 13.271710183316182 $175 $269 forward 7 unknown #
coedge $-1 $107 $106 $266 $270 forward $41 $-1 #
edge $-1 $182 -55.432599871822262 $268 55.432599871822262 $174 $271 forward 7 unknown #
coedge $-1 $187 $186 $107 $180 reversed $171 $-1 #
edge $-1 $272 -55.432599871822262 $181 55.432599871822262 $179 $273 forward 7 unknown #
vertex $-1 $109 $274 #
vertex $-1 $193 $275 #
straight-curve $-1 55.432599871822262 0 -13.271710183316182 0 -1 0 I I #
coedge $-1 $173 $175 $110 $185 reversed $103 $-1 #
edge $-1 $188 -33.174466390772643 $191 33.174466390772643 $184 $276 forward 7 unknown #
coedge $-1 $179 $111 $116 $194 forward $171 $-1 #
coedge $-1 $111 $179 $173 $267 reversed $171 $-1 #
vertex $-1 $112 $277 #
straight-curve $-1 0 33.174466390772643 13.271710183316182 -1 0 0 I I #
coedge $-1 $113 $174 $115 $193 reversed $63 $-1 #
vertex $-1 $185 $278 #
straight-curve $-1 0 -33.174466390772643 13.271710183316182 1 0 0 I I #
edge $-1 $118 -13.271710183316182 $182 13.271710183316182 $115 $279 forward 7 unknown #
edge $-1 $119 -13.271710183316182 $181 13.271710183316182 $116 $280 forward 7 unknown #
point $-1 55.432599871822262 -33.174466390772643 13.271710183316182 #
point $-1 55.432599871822262 33.174466390772643 13.271710183316182 #
face $-1 $281 $282 $16 $-1 $283 reversed single #
loop $-1 $-1 $284 $121 #
plane-surface $-1 0 0 13.271710183316182 0 0 1 1 0 0 forward_v I I I I #
coedge $-1 $285 $124 $208 $286 reversed $71 $-1 #
coedge $-1 $124 $285 $211 $287 forward $71 $-1 #
edge $-1 $214 -33.174466390772643 $209 33.174466390772643 $124 $288 forward 7 unknown #
coedge $-1 $289 $290 $125 $204 forward $282 $-1 #
edge $-1 $206 -33.174466390772643 $291 33.174466390772643 $203 $292 forward 7 unknown #
coedge $-1 $293 $126 $290 $294 reversed $122 $-1 #
vertex $-1 $127 $295 #
straight-curve $-1 -43.147031178954506 -33.174466390772643 -5.5580425246451348 0 0 -1 I I #
coedge $-1 $129 $296 $200 $286 forward $122 $-1 #
vertex $-1 $130 $297 #
straight-curve $-1 -24.644907762694192 -33.174466390772643 -8.9604599152643587 1 0 0 I I #
coedge $-1 $298 $131 $201 $287 reversed $213 $-1 #
coedge $-1 $131 $299 $133 $216 forward $213 $-1 #
loop $-1 $-1 $131 $281 #
vertex $-1 $202 $300 #
straight-curve $-1 -24.644907762694192 33.174466390772643 -8.9604599152643587 -1 0 0 I I #
edge $-1 $291 -7.7136676586710458 $135 -3.4024173906192239 $212 $301 forward 7 unknown #
point $-1 -43.147031178954506 -33.174466390772643 -8.9604599152643587 #
point $-1 -43.147031178954506 33.174466390772643 -8.9604599152643587 #
face $-1 $302 $303 $17 $-1 $304 forward single #
loop $-1 $-1 $305 $137 #
plane-surface $-1 -49.289815525388384 0 -8.9604599152643587 0 0 1 1 0 0 forward_v I I I I #
coedge $-1 $143 $306 $140 $225 forward $138 $-1 #
coedge $-1 $224 $140 $307 $308 reversed $79 $-1 #
coedge $-1 $140 $223 $141 $227 forward $79 $-1 #
edge $-1 $309 -6.1081121779650189 $228 0.82053764922208927 $222 $310 forward 7 unknown #
coedge $-1 $142 $141 $232 $311 reversed $49 $-1 #
edge $-1 $312 -110.86519974364457 $228 -96.573713489185877 $224 $313 forward 7 unknown #
vertex $-1 $144 $314 #
straight-curve $-1 48.503950044635161 -6.0578247111928007 13.271710183316188 0 1 0 I I #
vertex $-1 $311 $315 #
straight-curve $-1 1.6840860106260465 -8.0637822406933122 97.736983928970162 0.48480960649040278 0 -0.87461971476443456 I I #
coedge $-1 $307 $146 $226 $311 forward $234 $-1 #
coedge $-1 $146 $316 $148 $237 reversed $234 $-1 #
loop $-1 $-1 $307 $317 #
straight-curve $-1 55.432599871822262 -8.0637822406933122 75.742748895083182 0 0 -1 I I #
coedge $-1 $318 $148 $319 $320 forward $138 $-1 #
edge $-1 $150 -8.0637822406933122 $321 33.174466390772643 $233 $322 forward 7 unknown #
point $-1 48.503950044635154 -8.0637822406933122 13.271710183316188 #
point $-1 55.432599871822262 -8.0637822406933122 13.271710183316182 #
face $-1 $323 $324 $18 $-1 $325 forward single #
loop $-1 $-1 $326 $152 #
plane-surface $-1 98.648975387714486 -16.167516604077889 151.48549779016636 0 1 0 0.87461971476443456 0 0.48480960649040278 forward_v I I I I #
loop $-1 $-1 $327 $86 #
coedge $-1 $245 $155 $328 $329 forward $87 $-1 #
coedge $-1 $155 $244 $330 $331 reversed $87 $-1 #
coedge $-1 $332 $333 $155 $247 forward $324 $-1 #
edge $-1 $334 -0.82053764922208927 $335 6.1081121779650189 $246 $336 forward 7 unknown #
edge $-1 $337 1 $337 0 $156 $-1 forward 7 unknown #
vertex $-1 $157 $338 #
ellipse-curve $-1 51.05097459146964 -13.852163928825156 6.5134344902635339 0.87461971476443456 0 0.48480960649040278 0.48480960649040278 0 -0.87461971476443456 1 I I #
point $-1 52.45308456471912 -13.852163928825156 6.1472826528345035 #
face $-1 $339 $167 $19 $-1 $340 forward single #
loop $-1 $-1 $341 $160 #
plane-surface $-1 98.648975387714486 -8.0637822406933122 151.48549779016636 0 -1 0 -0.87461971476443456 0 -0.48480960649040278 forward_v I I I I #
loop $-1 $-1 $342 $94 #
coedge $-1 $256 $256 $257 $343 forward $161 $-1 #
coedge $-1 $257 $257 $256 $343 reversed $163 $-1 #
coedge $-1 $258 $258 $164 $259 forward $263 $-1 #
edge $-1 $344 0 $344 6.2831853071796004 $258 $345 forward 7 unknown #
edge $-1 $346 1 $346 0 $165 $-1 forward 7 unknown #
vertex $-1 $166 $347 #
ellipse-curve $-1 51.05097459146964 -10.379134915946054 6.5134344902635339 0.87461971476443456 0 0.48480960649040278 0.48480960649040278 0 -0.87461971476443456 1 I I #
loop $-1 $348 $258 $252 #
point $-1 52.45308456471912 -10.379134915946054 6.1472826528345035 #
plane-surface $-1 55.432599871822262 0 0 -1 0 0 0 0 1 forward_v I I I I #
coedge $-1 $175 $173 $177 $270 reversed $103 $-1 #
edge $-1 $188 -13.271710183316182 $272 13.271710183316182 $187 $349 forward 7 unknown #
vertex $-1 $270 $350 #
straight-curve $-1 -55.432599871822262 -33.174466390772643 0 0 0 -1 I I #
edge $-1 $268 -33.174466390772643 $272 33.174466390772643 $266 $351 forward 7 unknown #
straight-curve $-1 0 -33.174466390772643 -13.271710183316182 -1 0 0 I I #
vertex $-1 $180 $352 #
straight-curve $-1 0 33.174466390772643 -13.271710183316182 1 0 0 I I #
point $-1 55.432599871822262 33.174466390772643 -13.271710183316182 #
point $-1 55.432599871822262 -33.174466390772643 -13.271710183316182 #
straight-curve $-1 -55.432599871822262 0 13.271710183316182 0 -1 0 I I #
point $-1 -55.432599871822262 33.174466390772643 13.271710183316182 #
point $-1 -55.432599871822262 -33.174466390772643 13.271710183316182 #
straight-curve $-1 55.432599871822262 -33.174466390772643 0 0 0 -1 I I #
straight-curve $-1 55.432599871822262 33.174466390772643 0 0 0 -1 I I #
face $-1 $353 $213 $16 $-1 $354 reversed single #
loop $-1 $-1 $203 $197 #
plane-surface $-1 0 0 -13.271710183316182 0 0 1 1 0 0 forward_v I I I I #
coedge $-1 $355 $356 $357 $358 forward $198 $-1 #
coedge $-1 $201 $200 $359 $360 reversed $71 $-1 #
edge $-1 $361 -13.271710183316182 $209 8.9604599152643587 $200 $362 forward 7 unknown #
edge $-1 $363 -13.271710183316182 $214 8.9604599152643587 $211 $364 forward 7 unknown #
straight-curve $-1 -55.432599871822262 0 -8.9604599152643587 0 -1 0 I I #
coedge $-1 $365 $203 $299 $366 forward $282 $-1 #
coedge $-1 $203 $365 $205 $294 forward $282 $-1 #
vertex $-1 $366 $367 #
straight-curve $-1 -43.147031178954506 0 -13.271710183316182 0 1 0 I I #
coedge $-1 $296 $205 $368 $369 reversed $122 $-1 #
edge $-1 $370 -55.432599871822262 $206 43.147031178954506 $205 $371 forward 7 unknown #
point $-1 -43.147031178954506 -33.174466390772643 -13.271710183316181 #
coedge $-1 $208 $293 $356 $372 reversed $122 $-1 #
point $-1 -55.432599871822262 -33.174466390772643 -8.9604599152643587 #
coedge $-1 $373 $211 $355 $374 reversed $213 $-1 #
coedge $-1 $212 $373 $289 $366 reversed $213 $-1 #
point $-1 -55.432599871822262 33.174466390772643 -8.9604599152643587 #
straight-curve $-1 -43.147031178954506 33.174466390772643 -5.5580425246451348 0 0 1 I I #
face $-1 $375 $376 $17 $-1 $377 reversed single #
loop $-1 $-1 $378 $219 #
plane-surface $-1 -43.147031178954506 0 -11.11608504929027 -1 0 0 0 0 1 forward_v I I I I #
coedge $-1 $379 $380 $381 $382 reversed $220 $-1 #
coedge $-1 $222 $383 $384 $385 forward $138 $-1 #
coedge $-1 $384 $232 $223 $308 forward $234 $-1 #
edge $-1 $312 -74.970654343201488 $309 -62.471038711767001 $307 $386 forward 7 unknown #
vertex $-1 $308 $387 #
straight-curve $-1 49.324487693857243 -16.167516604077889 13.271710183316188 -1 0 0 I I #
edge $-1 $230 2.0059575295005114 $312 10.109691892885088 $232 $388 forward 7 unknown #
vertex $-1 $311 $389 #
straight-curve $-1 1.6840860106260465 -16.167516604077889 97.736983928970162 -0.48480960649040278 0 0.87461971476443456 I I #
point $-1 48.503950044635154 -16.167516604077889 13.271710183316188 #
point $-1 55.432599871822262 -8.0637822406933122 0.77209455188169329 #
coedge $-1 $233 $390 $391 $392 reversed $234 $-1 #
face $-1 $-1 $234 $17 $-1 $393 reversed single #
coedge $-1 $383 $236 $394 $395 forward $138 $-1 #
coedge $-1 $391 $396 $236 $320 reversed $397 $-1 #
edge $-1 $321 -55.432599871822262 $398 55.432599871822262 $319 $399 forward 7 unknown #
vertex $-1 $237 $400 #
straight-curve $-1 55.432599871822262 0 13.271710183316182 0 1 0 I I #
face $-1 $401 $402 $18 $-1 $403 reversed single #
loop $-1 $-1 $404 $240 #
plane-surface $-1 0 0 13.271710183316182 0 0 1 1 0 0 forward_v I I I I #
coedge $-1 $405 $406 $404 $407 reversed $241 $-1 #
coedge $-1 $408 $328 $333 $409 reversed $243 $-1 #
coedge $-1 $327 $410 $244 $329 reversed $243 $-1 #
edge $-1 $334 96.573713489185877 $411 110.86519974364457 $244 $412 forward 7 unknown #
coedge $-1 $413 $414 $245 $331 forward $415 $-1 #
edge $-1 $335 62.471038711767001 $411 74.970654343201488 $330 $416 forward 7 unknown #
coedge $-1 $417 $246 $414 $418 forward $324 $-1 #
coedge $-1 $246 $404 $327 $409 forward $324 $-1 #
vertex $-1 $409 $419 #
vertex $-1 $418 $420 #
straight-curve $-1 49.324487693857243 -8.0637822406933122 13.271710183316188 1 0 0 I I #
vertex $-1 $248 $421 #
point $-1 51.535784197960041 -13.852163928825156 5.6388147754990996 #
face $-1 $422 $423 $19 $-1 $424 forward single #
plane-surface $-1 1.6840860106260465 -12.115649422385601 97.736983928970162 0.87461971476443456 0 0.48480960649040278 0.48480960649040278 0 -0.87461971476443456 forward_v I I I I #
coedge $-1 $425 $426 $427 $428 reversed $253 $-1 #
coedge $-1 $342 $342 $-1 $429 forward $255 $-1 #
edge $-1 $430 0 $430 6.2831853071796004 $256 $431 forward 7 unknown #
vertex $-1 $259 $432 #
ellipse-curve $-1 51.968274958228712 -13.852163928825156 7.0219023675989343 -0.87461971476443456 0 -0.48480960649040278 0.48480960649040278 0 -0.87461971476443456 1 I I #
vertex $-1 $260 $433 #
point $-1 51.535784197960041 -10.379134915946054 5.6388147754990996 #
loop $-1 $-1 $434 $252 #
straight-curve $-1 -55.432599871822262 33.174466390772643 0 0 0 -1 I I #
point $-1 -55.432599871822262 -33.174466390772643 -13.271710183316182 #
straight-curve $-1 -55.432599871822262 0 -13.271710183316182 0 1 0 I I #
point $-1 -55.432599871822262 33.174466390772643 -13.271710183316182 #
face $-1 $-1 $435 $16 $-1 $436 reversed single #
plane-surface $-1 0 33.174466390772643 0 0 -1 0 0 0 -1 forward_v I I I I #
coedge $-1 $359 $284 $298 $374 forward $198 $-1 #
coedge $-1 $284 $359 $296 $372 forward $198 $-1 #
coedge $-1 $368 $437 $284 $358 reversed $435 $-1 #
edge $-1 $438 -33.174466390772643 $439 33.174466390772643 $357 $440 forward 7 unknown #
coedge $-1 $356 $355 $285 $360 forward $198 $-1 #
edge $-1 $363 -33.174466390772643 $361 33.174466390772643 $285 $441 forward 7 unknown #
vertex $-1 $360 $442 #
straight-curve $-1 -55.432599871822262 -33.174466390772643 0 0 0 -1 I I #
vertex $-1 $374 $443 #
straight-curve $-1 -55.432599871822262 33.174466390772643 0 0 0 -1 I I #
coedge $-1 $290 $289 $444 $445 forward $282 $-1 #
edge $-1 $291 -43.147031178954506 $446 55.432599871822262 $299 $447 forward 7 unknown #
point $-1 -43.147031178954506 33.174466390772643 -13.271710183316181 #
coedge $-1 $444 $357 $293 $369 forward $435 $-1 #
edge $-1 $438 -13.271710183316182 $370 13.271710183316182 $368 $448 forward 7 unknown #
vertex $-1 $369 $449 #
straight-curve $-1 0 -33.174466390772643 -13.271710183316182 -1 0 0 I I #
edge $-1 $361 -55.432599871822262 $438 55.432599871822262 $296 $450 forward 7 unknown #
coedge $-1 $299 $298 $437 $451 forward $213 $-1 #
edge $-1 $439 -55.432599871822262 $363 55.432599871822262 $298 $452 forward 7 unknown #
face $-1 $453 $454 $17 $-1 $455 reversed single #
loop $-1 $-1 $456 $302 #
plane-surface $-1 -55.432599871822262 0 0 1 0 0 0 0 -1 forward_v I I I I #
coedge $-1 $381 $457 $458 $459 reversed $303 $-1 #
coedge $-1 $460 $305 $461 $462 reversed $220 $-1 #
coedge $-1 $305 $460 $463 $464 reversed $220 $-1 #
coedge $-1 $465 $378 $305 $382 forward $303 $-1 #
edge $-1 $466 -33.174466390772643 $467 33.174466390772643 $381 $468 forward 7 unknown #
coedge $-1 $306 $318 $469 $470 forward $138 $-1 #
coedge $-1 $471 $307 $306 $385 reversed $234 $-1 #
edge $-1 $472 -33.174466390772643 $309 -16.167516604077889 $384 $322 forward 7 unknown #
straight-curve $-1 55.432599871822262 -16.167516604077889 75.742748895083182 0 0 1 I I #
point $-1 55.432599871822262 -16.167516604077889 13.271710183316182 #
straight-curve $-1 55.432599871822262 -6.0578247111928007 0.7720945518817004 0 -1 0 I I #
point $-1 55.432599871822262 -16.167516604077889 0.77209455188169329 #
coedge $-1 $316 $471 $473 $474 reversed $234 $-1 #
coedge $-1 $475 $319 $316 $392 forward $397 $-1 #
edge $-1 $321 -13.271710183316182 $476 13.271710183316182 $316 $477 forward 7 unknown #
plane-surface $-1 55.432599871822262 0 0 -1 0 0 0 0 1 forward_v I I I I #
coedge $-1 $478 $479 $318 $395 reversed $376 $-1 #
edge $-1 $398 -33.174466390772643 $480 33.174466390772643 $394 $481 forward 7 unknown #
coedge $-1 $319 $463 $478 $482 reversed $397 $-1 #
loop $-1 $-1 $463 $483 #
vertex $-1 $320 $484 #
straight-curve $-1 0 33.174466390772643 13.271710183316182 -1 0 0 I I #
point $-1 55.432599871822262 33.174466390772643 13.271710183316182 #
face $-1 $485 $486 $18 $-1 $487 forward single #
loop $-1 $-1 $488 $323 #
plane-surface $-1 -49.289815525388384 0 -8.9604599152643587 0 0 1 1 0 0 forward_v I I I I #
coedge $-1 $333 $489 $326 $407 forward $324 $-1 #
coedge $-1 $406 $326 $490 $491 reversed $241 $-1 #
coedge $-1 $326 $405 $408 $492 forward $241 $-1 #
edge $-1 $493 -6.1081121779650189 $494 0.82053764922208927 $404 $495 forward 7 unknown #
coedge $-1 $410 $327 $406 $492 reversed $243 $-1 #
edge $-1 $494 -10.109691892885088 $334 -2.0059575295005114 $333 $496 forward 7 unknown #
coedge $-1 $328 $408 $413 $497 reversed $243 $-1 #
vertex $-1 $497 $498 #
straight-curve $-1 1.6840860106260465 -8.0637822406933122 97.736983928970162 0.48480960649040278 0 -0.87461971476443456 I I #
coedge $-1 $490 $330 $410 $497 forward $415 $-1 #
coedge $-1 $330 $499 $332 $418 reversed $415 $-1 #
loop $-1 $-1 $490 $500 #
straight-curve $-1 55.432599871822262 -8.0637822406933122 75.742748895083182 0 0 -1 I I #
coedge $-1 $501 $332 $502 $503 forward $324 $-1 #
edge $-1 $335 -8.0637822406933122 $504 33.174466390772643 $414 $505 forward 7 unknown #
point $-1 48.503950044635154 -8.0637822406933122 13.271710183316188 #
point $-1 55.432599871822262 -8.0637822406933122 13.271710183316182 #
point $-1 50.176354876705204 -13.852163928825156 6.0286248837731309 #
face $-1 $506 $507 $19 $-1 $508 forward single #
loop $-1 $-1 $509 $339 #
plane-surface $-1 98.648975387714486 -16.167516604077889 151.48549779016636 0 1 0 0.87461971476443456 0 0.48480960649040278 forward_v I I I I #
coedge $-1 $426 $341 $510 $511 forward $253 $-1 #
coedge $-1 $341 $425 $512 $513 reversed $253 $-1 #
coedge $-1 $514 $515 $341 $428 forward $507 $-1 #
edge $-1 $516 -0.82053764922208927 $517 6.1081121779650189 $427 $518 forward 7 unknown #
edge $-1 $519 1 $519 0 $342 $-1 forward 7 unknown #
vertex $-1 $343 $520 #
ellipse-curve $-1 51.05097459146964 -13.852163928825156 6.5134344902635339 0.87461971476443456 0 0.48480960649040278 0.48480960649040278 0 -0.87461971476443456 1 I I #
point $-1 52.45308456471912 -13.852163928825156 6.1472826528345035 #
point $-1 50.176354876705204 -10.379134915946054 6.0286248837731309 #
coedge $-1 $521 $510 $515 $522 reversed $348 $-1 #
loop $-1 $-1 $368 $353 #
plane-surface $-1 55.432599871822262 0 0 -1 0 0 0 0 1 forward_v I I I I #
coedge $-1 $357 $444 $373 $451 reversed $435 $-1 #
vertex $-1 $358 $523 #
vertex $-1 $358 $524 #
straight-curve $-1 55.432599871822262 0 13.271710183316182 0 1 0 I I #
straight-curve $-1 -55.432599871822262 0 13.271710183316182 0 -1 0 I I #
point $-1 -55.432599871822262 -33.174466390772643 13.271710183316182 #
point $-1 -55.432599871822262 33.174466390772643 13.271710183316182 #
coedge $-1 $437 $368 $365 $445 reversed $435 $-1 #
edge $-1 $446 -33.174466390772643 $370 33.174466390772643 $444 $525 forward 7 unknown #
vertex $-1 $445 $526 #
straight-curve $-1 0 33.174466390772643 -13.271710183316182 1 0 0 I I #
straight-curve $-1 55.432599871822262 -33.174466390772643 0 0 0 -1 I I #
point $-1 55.432599871822262 -33.174466390772643 -13.271710183316182 #
straight-curve $-1 0 -33.174466390772643 13.271710183316182 1 0 0 I I #
edge $-1 $439 -13.271710183316182 $446 13.271710183316182 $437 $527 forward 7 unknown #
straight-curve $-1 0 33.174466390772643 13.271710183316182 -1 0 0 I I #
face $-1 $483 $528 $17 $-1 $529 reversed single #
loop $-1 $-1 $461 $375 #
plane-surface $-1 0 -33.174466390772643 0 0 1 0 0 0 1 forward_v I I I I #
coedge $-1 $479 $478 $460 $530 forward $376 $-1 #
coedge $-1 $378 $465 $531 $532 reversed $303 $-1 #
coedge $-1 $533 $461 $378 $459 forward $454 $-1 #
edge $-1 $466 3.4024173906192239 $534 7.7136676586710458 $458 $535 forward 7 unknown #
coedge $-1 $380 $379 $456 $530 reversed $220 $-1 #
coedge $-1 $458 $536 $379 $462 forward $454 $-1 #
edge $-1 $537 -30.78769210912807 $466 -18.502123416260314 $461 $538 forward 7 unknown #
coedge $-1 $396 $539 $380 $464 forward $397 $-1 #
edge $-1 $467 18.502123416260314 $540 30.78769210912807 $463 $541 forward 7 unknown #
coedge $-1 $457 $381 $539 $542 reversed $303 $-1 #
vertex $-1 $462 $543 #
vertex $-1 $464 $544 #
straight-curve $-1 -43.147031178954506 0 -8.9604599152643587 0 1 0 I I #
coedge $-1 $536 $545 $383 $470 reversed $454 $-1 #
edge $-1 $480 -55.432599871822262 $472 55.432599871822262 $469 $546 forward 7 unknown #
coedge $-1 $390 $384 $545 $547 forward $234 $-1 #
vertex $-1 $385 $548 #
coedge $-1 $549 $550 $390 $474 forward $528 $-1 #
edge $-1 $476 -33.174466390772643 $551 33.174466390772643 $390 $552 forward 7 unknown #
coedge $-1 $539 $391 $550 $553 reversed $397 $-1 #
vertex $-1 $474 $554 #
straight-curve $-1 55.432599871822262 33.174466390772643 0 0 0 -1 I I #
coedge $-1 $456 $394 $396 $482 forward $376 $-1 #
coedge $-1 $394 $456 $536 $555 reversed $376 $-1 #
vertex $-1 $395 $556 #
straight-curve $-1 -55.432599871822262 0 13.271710183316182 0 -1 0 I I #
edge $-1 $398 -13.271710183316182 $540 8.9604599152643587 $396 $557 forward 7 unknown #
face $-1 $317 $397 $17 $-1 $558 reversed single #
point $-1 -55.432599871822262 33.174466390772643 13.271710183316182 #
face $-1 $559 $560 $18 $-1 $561 reversed single #
loop $-1 $-1 $562 $401 #
plane-surface $-1 -43.147031178954506 0 -11.11608504929027 -1 0 0 0 0 1 forward_v I I I I #
coedge $-1 $563 $564 $565 $566 reversed $402 $-1 #
coedge $-1 $404 $567 $568 $569 forward $324 $-1 #
coedge $-1 $568 $413 $405 $491 forward $415 $-1 #
edge $-1 $570 -74.970654343201488 $493 -62.471038711767001 $490 $571 forward 7 unknown #
edge $-1 $570 -110.86519974364457 $494 -96.573713489185877 $406 $572 forward 7 unknown #
vertex $-1 $491 $573 #
vertex $-1 $409 $574 #
straight-curve $-1 49.324487693857243 -16.167516604077889 13.271710183316188 -1 0 0 I I #
straight-curve $-1 48.503950044635161 -6.0578247111928007 13.271710183316188 0 1 0 I I #
edge $-1 $411 2.0059575295005114 $570 10.109691892885088 $413 $575 forward 7 unknown #
point $-1 55.432599871822262 -8.0637822406933122 0.77209455188169329 #
coedge $-1 $414 $576 $577 $578 reversed $415 $-1 #
face $-1 $-1 $415 $18 $-1 $579 reversed single #
coedge $-1 $567 $417 $580 $581 forward $324 $-1 #
coedge $-1 $577 $582 $417 $503 reversed $583 $-1 #
edge $-1 $504 -55.432599871822262 $584 55.432599871822262 $502 $585 forward 7 unknown #
vertex $-1 $418 $586 #
straight-curve $-1 55.432599871822262 0 13.271710183316182 0 1 0 I I #
face $-1 $587 $588 $19 $-1 $589 reversed single #
loop $-1 $-1 $590 $422 #
plane-surface $-1 0 0 13.271710183316182 0 0 1 1 0 0 forward_v I I I I #
coedge $-1 $591 $592 $590 $593 reversed $423 $-1 #
coedge $-1 $434 $594 $425 $511 reversed $348 $-1 #
edge $-1 $516 96.573713489185877 $595 110.86519974364457 $425 $596 forward 7 unknown #
coedge $-1 $597 $598 $426 $513 forward $599 $-1 #
edge $-1 $517 62.471038711767001 $595 74.970654343201488 $512 $600 forward 7 unknown #
coedge $-1 $601 $427 $598 $602 forward $507 $-1 #
coedge $-1 $427 $590 $434 $522 forward $507 $-1 #
vertex $-1 $522 $603 #
vertex $-1 $602 $604 #
straight-curve $-1 49.324487693857243 -8.0637822406933122 13.271710183316188 1 0 0 I I #
vertex $-1 $429 $605 #
point $-1 51.535784197960041 -13.852163928825156 5.6388147754990996 #
coedge $-1 $594 $434 $592 $606 reversed $348 $-1 #
edge $-1 $607 -10.109691892885088 $516 -2.0059575295005114 $515 $608 forward 7 unknown #
point $-1 55.432599871822262 -33.174466390772643 13.271710183316182 #
point $-1 55.432599871822262 33.174466390772643 13.271710183316182 #
straight-curve $-1 55.432599871822262 0 -13.271710183316182 0 -1 0 I I #
point $-1 55.432599871822262 33.174466390772643 -13.271710183316182 #
straight-curve $-1 55.432599871822262 33.174466390772643 0 0 0 -1 I I #
loop $-1 $-1 $531 $453 #
plane-surface $-1 0 0 -13.271710183316182 0 0 1 1 0 0 forward_v I I I I #
edge $-1 $540 -33.174466390772643 $537 33.174466390772643 $456 $609 forward 7 unknown #
coedge $-1 $550 $549 $457 $532 forward $528 $-1 #
edge $-1 $534 -33.174466390772643 $610 33.174466390772643 $531 $611 forward 7 unknown #
coedge $-1 $545 $458 $549 $612 reversed $454 $-1 #
vertex $-1 $459 $613 #
straight-curve $-1 -43.147031178954506 -33.174466390772643 -5.5580425246451348 0 0 -1 I I #
coedge $-1 $461 $469 $479 $555 forward $454 $-1 #
vertex $-1 $462 $614 #
straight-curve $-1 -24.644907762694192 -33.174466390772643 -8.9604599152643587 1 0 0 I I #
coedge $-1 $463 $475 $465 $542 forward $397 $-1 #
vertex $-1 $530 $615 #
straight-curve $-1 -24.644907762694192 33.174466390772643 -8.9604599152643587 -1 0 0 I I #
edge $-1 $610 -7.7136676586710458 $467 -3.4024173906192239 $539 $616 forward 7 unknown #
point $-1 -43.147031178954506 -33.174466390772643 -8.9604599152643587 #
point $-1 -43.147031178954506 33.174466390772643 -8.9604599152643587 #
coedge $-1 $469 $533 $471 $547 reversed $454 $-1 #
straight-curve $-1 0 -33.174466390772643 13.271710183316182 1 0 0 I I #
edge $-1 $472 -13.271710183316182 $551 13.271710183316182 $471 $617 forward 7 unknown #
point $-1 55.432599871822262 -33.174466390772643 13.271710183316182 #
coedge $-1 $531 $473 $533 $612 forward $528 $-1 #
coedge $-1 $473 $531 $475 $553 forward $528 $-1 #
vertex $-1 $547 $618 #
straight-curve $-1 55.432599871822262 0 -13.271710183316182 0 -1 0 I I #
edge $-1 $610 -43.147031178954506 $476 55.432599871822262 $475 $619 forward 7 unknown #
point $-1 55.432599871822262 33.174466390772643 -13.271710183316182 #
edge $-1 $480 -13.271710183316182 $537 8.9604599152643587 $479 $620 forward 7 unknown #
point $-1 -55.432599871822262 -33.174466390772643 13.271710183316182 #
straight-curve $-1 -55.432599871822262 33.174466390772643 0 0 0 -1 I I #
plane-surface $-1 0 33.174466390772643 0 0 -1 0 0 0 -1 forward_v I I I I #
face $-1 $621 $622 $18 $-1 $623 reversed single #
loop $-1 $-1 $624 $485 #
plane-surface $-1 -55.432599871822262 0 0 1 0 0 0 0 -1 forward_v I I I I #
coedge $-1 $565 $625 $626 $627 reversed $486 $-1 #
coedge $-1 $628 $488 $629 $630 reversed $402 $-1 #
coedge $-1 $488 $628 $631 $632 reversed $402 $-1 #
coedge $-1 $633 $562 $488 $566 forward $486 $-1 #
edge $-1 $634 -33.174466390772643 $635 33.174466390772643 $565 $636 forward 7 unknown #
coedge $-1 $489 $501 $637 $638 forward $324 $-1 #
coedge $-1 $639 $490 $489 $569 reversed $415 $-1 #
edge $-1 $640 -33.174466390772643 $493 -16.167516604077889 $568 $505 forward 7 unknown #
vertex $-1 $497 $641 #
straight-curve $-1 55.432599871822262 -16.167516604077889 75.742748895083182 0 0 1 I I #
straight-curve $-1 1.6840860106260465 -16.167516604077889 97.736983928970162 -0.48480960649040278 0 0.87461971476443456 I I #
point $-1 55.432599871822262 -16.167516604077889 13.271710183316182 #
point $-1 48.503950044635154 -16.167516604077889 13.271710183316188 #
straight-curve $-1 55.432599871822262 -6.0578247111928007 0.7720945518817004 0 -1 0 I I #
coedge $-1 $499 $639 $642 $643 reversed $415 $-1 #
coedge $-1 $644 $502 $499 $578 forward $583 $-1 #
edge $-1 $504 -13.271710183316182 $645 13.271710183316182 $499 $646 forward 7 unknown #
plane-surface $-1 55.432599871822262 0 0 -1 0 0 0 0 1 forward_v I I I I #
coedge $-1 $647 $648 $501 $581 reversed $560 $-1 #
edge $-1 $584 -33.174466390772643 $649 33.174466390772643 $580 $650 forward 7 unknown #
coedge $-1 $502 $631 $647 $651 reversed $583 $-1 #
loop $-1 $-1 $631 $652 #
vertex $-1 $503 $653 #
straight-curve $-1 0 33.174466390772643 13.271710183316182 -1 0 0 I I #
point $-1 55.432599871822262 33.174466390772643 13.271710183316182 #
face $-1 $654 $655 $19 $-1 $656 forward single #
loop $-1 $-1 $657 $506 #
plane-surface $-1 -49.289815525388384 0 -8.9604599152643587 0 0 1 1 0 0 forward_v I I I I #
coedge $-1 $515 $658 $509 $593 forward $507 $-1 #
coedge $-1 $592 $509 $659 $660 reversed $423 $-1 #
coedge $-1 $509 $591 $521 $606 forward $423 $-1 #
edge $-1 $661 -6.1081121779650189 $607 0.82053764922208927 $590 $662 forward 7 unknown #
coedge $-1 $510 $521 $597 $663 reversed $348 $-1 #
vertex $-1 $663 $664 #
straight-curve $-1 1.6840860106260465 -8.0637822406933122 97.736983928970162 0.48480960649040278 0 -0.87461971476443456 I I #
coedge $-1 $659 $512 $594 $663 forward $599 $-1 #
coedge $-1 $512 $665 $514 $602 reversed $599 $-1 #
loop $-1 $-1 $659 $666 #
straight-curve $-1 55.432599871822262 -8.0637822406933122 75.742748895083182 0 0 -1 I I #
coedge $-1 $667 $514 $668 $669 forward $507 $-1 #
edge $-1 $517 -8.0637822406933122 $670 33.174466390772643 $598 $671 forward 7 unknown #
point $-1 48.503950044635154 -8.0637822406933122 13.271710183316188 #
point $-1 55.432599871822262 -8.0637822406933122 13.271710183316182 #
point $-1 50.176354876705204 -13.852163928825156 6.0286248837731309 #
edge $-1 $672 -110.86519974364457 $607 -96.573713489185877 $592 $673 forward 7 unknown #
vertex $-1 $522 $674 #
straight-curve $-1 48.503950044635161 -6.0578247111928007 13.271710183316188 0 1 0 I I #
straight-curve $-1 -55.432599871822262 0 -8.9604599152643587 0 -1 0 I I #
vertex $-1 $553 $675 #
straight-curve $-1 -43.147031178954506 0 -13.271710183316182 0 1 0 I I #
edge $-1 $551 -55.432599871822262 $534 43.147031178954506 $533 $676 forward 7 unknown #
point $-1 -43.147031178954506 -33.174466390772643 -13.271710183316181 #
point $-1 -55.432599871822262 -33.174466390772643 -8.9604599152643587 #
point $-1 -55.432599871822262 33.174466390772643 -8.9604599152643587 #
straight-curve $-1 -43.147031178954506 33.174466390772643 -5.5580425246451348 0 0 1 I I #
straight-curve $-1 55.432599871822262 -33.174466390772643 0 0 0 -1 I I #
point $-1 55.432599871822262 -33.174466390772643 -13.271710183316182 #
straight-curve $-1 0 33.174466390772643 -13.271710183316182 1 0 0 I I #
straight-curve $-1 -55.432599871822262 -33.174466390772643 0 0 0 -1 I I #
face $-1 $652 $677 $18 $-1 $678 reversed single #
loop $-1 $-1 $629 $559 #
plane-surface $-1 0 -33.174466390772643 0 0 1 0 0 0 1 forward_v I I I I #
coedge $-1 $648 $647 $628 $679 forward $560 $-1 #
coedge $-1 $562 $633 $680 $681 reversed $486 $-1 #
coedge $-1 $682 $629 $562 $627 forward $622 $-1 #
edge $-1 $634 3.4024173906192239 $683 7.7136676586710458 $626 $684 forward 7 unknown #
coedge $-1 $564 $563 $624 $679 reversed $402 $-1 #
coedge $-1 $626 $685 $563 $630 forward $622 $-1 #
edge $-1 $686 -30.78769210912807 $634 -18.502123416260314 $629 $687 forward 7 unknown #
coedge $-1 $582 $688 $564 $632 forward $583 $-1 #
edge $-1 $635 18.502123416260314 $689 30.78769210912807 $631 $690 forward 7 unknown #
coedge $-1 $625 $565 $688 $691 reversed $486 $-1 #
vertex $-1 $630 $692 #
vertex $-1 $632 $693 #
straight-curve $-1 -43.147031178954506 0 -8.9604599152643587 0 1 0 I I #
coedge $-1 $685 $694 $567 $638 reversed $622 $-1 #
edge $-1 $649 -55.432599871822262 $640 55.432599871822262 $637 $695 forward 7 unknown #
coedge $-1 $576 $568 $694 $696 forward $415 $-1 #
vertex $-1 $569 $697 #
point $-1 55.432599871822262 -16.167516604077889 0.77209455188169329 #
coedge $-1 $698 $699 $576 $643 forward $677 $-1 #
edge $-1 $645 -33.174466390772643 $700 33.174466390772643 $576 $701 forward 7 unknown #
coedge $-1 $688 $577 $699 $702 reversed $583 $-1 #
vertex $-1 $643 $703 #
straight-curve $-1 55.432599871822262 33.174466390772643 0 0 0 -1 I I #
coedge $-1 $624 $580 $582 $651 forward $560 $-1 #
coedge $-1 $580 $624 $685 $704 reversed $560 $-1 #
vertex $-1 $581 $705 #
straight-curve $-1 -55.432599871822262 0 13.271710183316182 0 -1 0 I I #
edge $-1 $584 -13.271710183316182 $689 8.9604599152643587 $582 $706 forward 7 unknown #
face $-1 $500 $583 $18 $-1 $707 reversed single #
point $-1 -55.432599871822262 33.174466390772643 13.271710183316182 #
face $-1 $708 $709 $19 $-1 $710 reversed single #
loop $-1 $-1 $711 $587 #
plane-surface $-1 -43.147031178954506 0 -11.11608504929027 -1 0 0 0 0 1 forward_v I I I I #
coedge $-1 $712 $713 $714 $715 reversed $588 $-1 #
coedge $-1 $590 $716 $717 $718 forward $507 $-1 #
coedge $-1 $717 $597 $591 $660 forward $599 $-1 #
edge $-1 $672 -74.970654343201488 $661 -62.471038711767001 $659 $719 forward 7 unknown #
vertex $-1 $660 $720 #
straight-curve $-1 49.324487693857243 -16.167516604077889 13.271710183316188 -1 0 0 I I #
edge $-1 $595 2.0059575295005114 $672 10.109691892885088 $597 $721 forward 7 unknown #
point $-1 55.432599871822262 -8.0637822406933122 0.77209455188169329 #
coedge $-1 $598 $722 $723 $724 reversed $599 $-1 #
face $-1 $-1 $599 $19 $-1 $725 reversed single #
coedge $-1 $716 $601 $726 $727 forward $507 $-1 #
coedge $-1 $723 $728 $601 $669 reversed $729 $-1 #
edge $-1 $670 -55.432599871822262 $730 55.432599871822262 $668 $731 forward 7 unknown #
vertex $-1 $602 $732 #
straight-curve $-1 55.432599871822262 0 13.271710183316182 0 1 0 I I #
vertex $-1 $663 $733 #
straight-curve $-1 1.6840860106260465 -16.167516604077889 97.736983928970162 -0.48480960649040278 0 0.87461971476443456 I I #
point $-1 48.503950044635154 -16.167516604077889 13.271710183316188 #
point $-1 -43.147031178954506 33.174466390772643 -13.271710183316181 #
straight-curve $-1 0 -33.174466390772643 -13.271710183316182 -1 0 0 I I #
loop $-1 $-1 $680 $621 #
plane-surface $-1 0 0 -13.271710183316182 0 0 1 1 0 0 forward_v I I I I #
edge $-1 $689 -33.174466390772643 $686 33.174466390772643 $624 $734 forward 7 unknown #
coedge $-1 $699 $698 $625 $681 forward $677 $-1 #
edge $-1 $683 -33.174466390772643 $735 33.174466390772643 $680 $736 forward 7 unknown #
coedge $-1 $694 $626 $698 $737 reversed $622 $-1 #
vertex $-1 $627 $738 #
straight-curve $-1 -43.147031178954506 -33.174466390772643 -5.5580425246451348 0 0 -1 I I #
coedge $-1 $629 $637 $648 $704 forward $622 $-1 #
vertex $-1 $630 $739 #
straight-curve $-1 -24.644907762694192 -33.174466390772643 -8.9604599152643587 1 0 0 I I #
coedge $-1 $631 $644 $633 $691 forward $583 $-1 #
vertex $-1 $679 $740 #
straight-curve $-1 -24.644907762694192 33.174466390772643 -8.9604599152643587 -1 0 0 I I #
edge $-1 $735 -7.7136676586710458 $635 -3.4024173906192239 $688 $741 forward 7 unknown #
point $-1 -43.147031178954506 -33.174466390772643 -8.9604599152643587 #
point $-1 -43.147031178954506 33.174466390772643 -8.9604599152643587 #
coedge $-1 $637 $682 $639 $696 reversed $622 $-1 #
straight-curve $-1 0 -33.174466390772643 13.271710183316182 1 0 0 I I #
edge $-1 $640 -13.271710183316182 $700 13.271710183316182 $639 $742 forward 7 unknown #
point $-1 55.432599871822262 -33.174466390772643 13.271710183316182 #
coedge $-1 $680 $642 $682 $737 forward $677 $-1 #
coedge $-1 $642 $680 $644 $702 forward $677 $-1 #
vertex $-1 $696 $743 #
straight-curve $-1 55.432599871822262 0 -13.271710183316182 0 -1 0 I I #
edge $-1 $735 -43.147031178954506 $645 55.432599871822262 $644 $744 forward 7 unknown #
point $-1 55.432599871822262 33.174466390772643 -13.271710183316182 #
edge $-1 $649 -13.271710183316182 $686 8.9604599152643587 $648 $745 forward 7 unknown #
point $-1 -55.432599871822262 -33.174466390772643 13.271710183316182 #
straight-curve $-1 -55.432599871822262 33.174466390772643 0 0 0 -1 I I #
plane-surface $-1 0 33.174466390772643 0 0 -1 0 0 0 -1 forward_v I I I I #
face $-1 $746 $747 $19 $-1 $748 reversed single #
loop $-1 $-1 $749 $654 #
plane-surface $-1 -55.432599871822262 0 0 1 0 0 0 0 -1 forward_v I I I I #
coedge $-1 $714 $750 $751 $752 reversed $655 $-1 #
coedge $-1 $753 $657 $754 $755 reversed $588 $-1 #
coedge $-1 $657 $753 $756 $757 reversed $588 $-1 #
coedge $-1 $758 $711 $657 $715 forward $655 $-1 #
edge $-1 $759 -33.174466390772643 $760 33.174466390772643 $714 $761 forward 7 unknown #
coedge $-1 $658 $667 $762 $763 forward $507 $-1 #
coedge $-1 $764 $659 $658 $718 reversed $599 $-1 #
edge $-1 $765 -33.174466390772643 $661 -16.167516604077889 $717 $671 forward 7 unknown #
straight-curve $-1 55.432599871822262 -16.167516604077889 75.742748895083182 0 0 1 I I #
point $-1 55.432599871822262 -16.167516604077889 13.271710183316182 #
straight-curve $-1 55.432599871822262 -6.0578247111928007 0.7720945518817004 0 -1 0 I I #
coedge $-1 $665 $764 $766 $767 reversed $599 $-1 #
coedge $-1 $768 $668 $665 $724 forward $729 $-1 #
edge $-1 $670 -13.271710183316182 $769 13.271710183316182 $665 $770 forward 7 unknown #
plane-surface $-1 55.432599871822262 0 0 -1 0 0 0 0 1 forward_v I I I I #
coedge $-1 $771 $772 $667 $727 reversed $709 $-1 #
edge $-1 $730 -33.174466390772643 $773 33.174466390772643 $726 $774 forward 7 unknown #
coedge $-1 $668 $756 $771 $775 reversed $729 $-1 #
loop $-1 $-1 $756 $776 #
vertex $-1 $669 $777 #
straight-curve $-1 0 33.174466390772643 13.271710183316182 -1 0 0 I I #
point $-1 55.432599871822262 33.174466390772643 13.271710183316182 #
point $-1 55.432599871822262 -16.167516604077889 0.77209455188169329 #
straight-curve $-1 -55.432599871822262 0 -8.9604599152643587 0 -1 0 I I #
vertex $-1 $702 $778 #
straight-curve $-1 -43.147031178954506 0 -13.271710183316182 0 1 0 I I #
edge $-1 $700 -55.432599871822262 $683 43.147031178954506 $682 $779 forward 7 unknown #
point $-1 -43.147031178954506 -33.174466390772643 -13.271710183316181 #
point $-1 -55.432599871822262 -33.174466390772643 -8.9604599152643587 #
point $-1 -55.432599871822262 33.174466390772643 -8.9604599152643587 #
straight-curve $-1 -43.147031178954506 33.174466390772643 -5.5580425246451348 0 0 1 I I #
straight-curve $-1 55.432599871822262 -33.174466390772643 0 0 0 -1 I I #
point $-1 55.432599871822262 -33.174466390772643 -13.271710183316182 #
straight-curve $-1 0 33.174466390772643 -13.271710183316182 1 0 0 I I #
straight-curve $-1 -55.432599871822262 -33.174466390772643 0 0 0 -1 I I #
face $-1 $776 $780 $19 $-1 $781 reversed single #
loop $-1 $-1 $754 $708 #
plane-surface $-1 0 -33.174466390772643 0 0 1 0 0 0 1 forward_v I I I I #
coedge $-1 $772 $771 $753 $782 forward $709 $-1 #
coedge $-1 $711 $758 $783 $784 reversed $655 $-1 #
coedge $-1 $785 $754 $711 $752 forward $747 $-1 #
edge $-1 $759 3.4024173906192239 $786 7.7136676586710458 $751 $787 forward 7 unknown #
coedge $-1 $713 $712 $749 $782 reversed $588 $-1 #
coedge $-1 $751 $788 $712 $755 forward $747 $-1 #
edge $-1 $789 -30.78769210912807 $759 -18.502123416260314 $754 $790 forward 7 unknown #
coedge $-1 $728 $791 $713 $757 forward $729 $-1 #
edge $-1 $760 18.502123416260314 $792 30.78769210912807 $756 $793 forward 7 unknown #
coedge $-1 $750 $714 $791 $794 reversed $655 $-1 #
vertex $-1 $755 $795 #
vertex $-1 $757 $796 #
straight-curve $-1 -43.147031178954506 0 -8.9604599152643587 0 1 0 I I #
coedge $-1 $788 $797 $716 $763 reversed $747 $-1 #
edge $-1 $773 -55.432599871822262 $765 55.432599871822262 $762 $798 forward 7 unknown #
coedge $-1 $722 $717 $797 $799 forward $599 $-1 #
vertex $-1 $718 $800 #
coedge $-1 $801 $802 $722 $767 forward $780 $-1 #
edge $-1 $769 -33.174466390772643 $803 33.174466390772643 $722 $804 forward 7 unknown #
coedge $-1 $791 $723 $802 $805 reversed $729 $-1 #
vertex $-1 $767 $806 #
straight-curve $-1 55.432599871822262 33.174466390772643 0 0 0 -1 I I #
coedge $-1 $749 $726 $728 $775 forward $709 $-1 #
coedge $-1 $726 $749 $788 $807 reversed $709 $-1 #
vertex $-1 $727 $808 #
straight-curve $-1 -55.432599871822262 0 13.271710183316182 0 -1 0 I I #
edge $-1 $730 -13.271710183316182 $792 8.9604599152643587 $728 $809 forward 7 unknown #
face $-1 $666 $729 $19 $-1 $810 reversed single #
point $-1 -55.432599871822262 33.174466390772643 13.271710183316182 #
point $-1 -43.147031178954506 33.174466390772643 -13.271710183316181 #
straight-curve $-1 0 -33.174466390772643 -13.271710183316182 -1 0 0 I I #
loop $-1 $-1 $783 $746 #
plane-surface $-1 0 0 -13.271710183316182 0 0 1 1 0 0 forward_v I I I I #
edge $-1 $792 -33.174466390772643 $789 33.174466390772643 $749 $811 forward 7 unknown #
coedge $-1 $802 $801 $750 $784 forward $780 $-1 #
edge $-1 $786 -33.174466390772643 $812 33.174466390772643 $783 $813 forward 7 unknown #
coedge $-1 $797 $751 $801 $814 reversed $747 $-1 #
vertex $-1 $752 $815 #
straight-curve $-1 -43.147031178954506 -33.174466390772643 -5.5580425246451348 0 0 -1 I I #
coedge $-1 $754 $762 $772 $807 forward $747 $-1 #
vertex $-1 $755 $816 #
straight-curve $-1 -24.644907762694192 -33.174466390772643 -8.9604599152643587 1 0 0 I I #
coedge $-1 $756 $768 $758 $794 forward $729 $-1 #
vertex $-1 $782 $817 #
straight-curve $-1 -24.644907762694192 33.174466390772643 -8.9604599152643587 -1 0 0 I I #
edge $-1 $812 -7.7136676586710458 $760 -3.4024173906192239 $791 $818 forward 7 unknown #
point $-1 -43.147031178954506 -33.174466390772643 -8.9604599152643587 #
point $-1 -43.147031178954506 33.174466390772643 -8.9604599152643587 #
coedge $-1 $762 $785 $764 $799 reversed $747 $-1 #
straight-curve $-1 0 -33.174466390772643 13.271710183316182 1 0 0 I I #
edge $-1 $765 -13.271710183316182 $803 13.271710183316182 $764 $819 forward 7 unknown #
point $-1 55.432599871822262 -33.174466390772643 13.271710183316182 #
coedge $-1 $783 $766 $785 $814 forward $780 $-1 #
coedge $-1 $766 $783 $768 $805 forward $780 $-1 #
vertex $-1 $799 $820 #
straight-curve $-1 55.432599871822262 0 -13.271710183316182 0 -1 0 I I #
edge $-1 $812 -43.147031178954506 $769 55.432599871822262 $768 $821 forward 7 unknown #
point $-1 55.432599871822262 33.174466390772643 -13.271710183316182 #
edge $-1 $773 -13.271710183316182 $789 8.9604599152643587 $772 $822 forward 7 unknown #
point $-1 -55.432599871822262 -33.174466390772643 13.271710183316182 #
straight-curve $-1 -55.432599871822262 33.174466390772643 0 0 0 -1 I I #
plane-surface $-1 0 33.174466390772643 0 0 -1 0 0 0 -1 forward_v I I I I #
straight-curve $-1 -55.432599871822262 0 -8.9604599152643587 0 -1 0 I I #
vertex $-1 $805 $823 #
straight-curve $-1 -43.147031178954506 0 -13.271710183316182 0 1 0 I I #
edge $-1 $803 -55.432599871822262 $786 43.147031178954506 $785 $824 forward 7 unknown #
point $-1 -43.147031178954506 -33.174466390772643 -13.271710183316181 #
point $-1 -55.432599871822262 -33.174466390772643 -8.9604599152643587 #
point $-1 -55.432599871822262 33.174466390772643 -8.9604599152643587 #
straight-curve $-1 -43.147031178954506 33.174466390772643 -5.5580425246451348 0 0 1 I I #
straight-curve $-1 55.432599871822262 -33.174466390772643 0 0 0 -1 I I #
point $-1 55.432599871822262 -33.174466390772643 -13.271710183316182 #
straight-curve $-1 0 33.174466390772643 -13.271710183316182 1 0 0 I I #
straight-curve $-1 -55.432599871822262 -33.174466390772643 0 0 0 -1 I I #
point $-1 -43.147031178954506 33.174466390772643 -13.271710183316181 #
straight-curve $-1 0 -33.174466390772643 -13.271710183316182 -1 0 0 I I #
End-of-ACIS-data 