500 0 7 0           
7 Unknown 11 ACIS 5.0 NT 24 Fri Mar 26 02:15:26 1999 
-1 9.9999999999999995e-007 1e-010 
body $-1 $7 $-1 $8 #
body $-1 $9 $-1 $10 #
body $-1 $11 $-1 $12 #
body $-1 $13 $-1 $14 #
body $-1 $15 $-1 $16 #
body $-1 $17 $-1 $18 #
body $-1 $19 $-1 $20 #
lump $-1 $-1 $21 $0 #
transform $-1 1 0 0 0 1 0 0 0 1 78.870815149388108 46.336333110547066 15.959145510800195 1 rotate no_reflect no_shear #
lump $-1 $-1 $22 $1 #
transform $-1 1 0 0 0 1 0 0 0 1 78.870815149388108 46.336333110547066 15.959145510800195 1 rotate no_reflect no_shear #
lump $-1 $-1 $23 $2 #
transform $-1 1 0 0 0 1 0 0 0 1 78.870815149388108 46.336333110547066 15.959145510800195 1 rotate no_reflect no_shear #
lump $-1 $-1 $24 $3 #
transform $-1 1 0 0 0 1 0 0 0 1 78.870815149388108 46.336333110547066 15.959145510800195 1 rotate no_reflect no_shear #
lump $-1 $-1 $25 $4 #
transform $-1 1 0 0 0 1 0 0 0 1 78.870815149388108 46.336333110547066 15.959145510800195 1 rotate no_reflect no_shear #
lump $-1 $-1 $26 $5 #
transform $-1 1 0 0 0 1 0 0 0 1 78.870815149388108 46.336333110547066 15.959145510800195 1 rotate no_reflect no_shear #
lump $-1 $-1 $27 $6 #
transform $-1 1 0 0 0 1 0 0 0 1 78.870815149388108 46.336333110547066 15.959145510800195 1 rotate no_reflect no_shear #
shell $-1 $-1 $-1 $28 $-1 $7 #
shell $-1 $-1 $-1 $29 $-1 $9 #
shell $-1 $-1 $-1 $30 $-1 $11 #
shell $-1 $-1 $-1 $31 $-1 $13 #
shell $-1 $-1 $-1 $32 $-1 $15 #
shell $-1 $-1 $-1 $33 $-1 $17 #
shell $-1 $-1 $-1 $34 $-1 $19 #
face $-1 $35 $36 $21 $-1 $37 forward single #
face $-1 $38 $39 $22 $-1 $40 forward single #
face $-1 $41 $42 $23 $-1 $43 reversed single #
face $-1 $44 $45 $24 $-1 $46 forward single #
face $-1 $47 $48 $25 $-1 $49 forward single #
face $-1 $50 $51 $26 $-1 $52 reversed single #
face $-1 $53 $54 $27 $-1 $55 forward single #
face $-1 $56 $57 $21 $-1 $58 reversed single #
loop $-1 $-1 $59 $28 #
plane-surface $-1 0 0 15.959145510800195 0 0 1 1 0 0 forward_v I I I I #
face $-1 $60 $61 $22 $-1 $62 reversed single #
loop $-1 $-1 $63 $29 #
plane-surface $-1 0 -46.336333110547066 0 0 1 0 0 0 1 forward_v I I I I #
face $-1 $64 $65 $23 $-1 $66 reversed single #
loop $-1 $-1 $67 $30 #
plane-surface $-1 82.764106782125793 6.2787863689402386 223.58622569885608 0 -1 0 -0.71933980857756763 0 -0.69465836192734942 forward_v I I I I #
face $-1 $68 $69 $24 $-1 $70 forward single #
loop $-1 $71 $72 $31 #
cone-surface $-1 68.5503220977251 -7.643890795598459 5.4727824240234781 -0.71933980857756763 0 -0.69465836192734942 1.7366459048183736 0 -1.7983495214439191 1 I I 0 1 2.5 forward I I I I #
face $-1 $73 $74 $25 $-1 $75 forward single #
loop $-1 $76 $77 $32 #
cone-surface $-1 68.5503220977251 0.70971550312476239 5.4727824240234781 -0.71933980857756763 0 -0.69465836192734942 1.7366459048183736 0 -1.7983495214439191 1 I I 0 1 2.5 forward I I I I #
face $-1 $78 $79 $26 $-1 $80 reversed single #
loop $-1 $-1 $81 $33 #
plane-surface $-1 -160.11376183236683 24.76966407518993 138.50701217365989 0 1 0 -0.51503808176128008 0 0.85716729658548041 forward_v I I I I #
face $-1 $82 $83 $27 $-1 $84 forward single #
loop $-1 $85 $86 $34 #
cone-surface $-1 -65.736402077647966 35.552998592868498 5.3055542541319891 0.51503808176128008 0 -0.85716729658548041 2.5715018897564415 0 1.5451142452838402 1 I I 0 1 3 forward I I I I #
face $-1 $87 $88 $21 $-1 $89 reversed single #
loop $-1 $-1 $90 $35 #
plane-surface $-1 0 0 -15.959145510800195 0 0 1 1 0 0 forward_v I I I I #
coedge $-1 $91 $92 $93 $94 forward $36 $-1 #
face $-1 $95 $96 $22 $-1 $97 forward single #
loop $-1 $-1 $98 $38 #
plane-surface $-1 -78.870815149388108 0 0 1 0 0 0 0 -1 forward_v I I I I #
coedge $-1 $99 $100 $101 $102 forward $39 $-1 #
face $-1 $103 $104 $23 $-1 $105 reversed single #
loop $-1 $-1 $106 $41 #
plane-surface $-1 -30.705727361709336 -3.4670876462368483 114.00968318775865 0.71933980857756763 0 0.69465836192734942 0.69465836192734942 0 -0.71933980857756763 forward_v I I I I #
coedge $-1 $107 $108 $109 $110 reversed $42 $-1 #
face $-1 $-1 $111 $24 $-1 $112 forward single #
loop $-1 $113 $114 $44 #
cone-surface $-1 64.775774865371062 -7.643890795598459 1.8277446182758901 -0.71933980857756763 0 -0.69465836192734942 0.86832295240918678 0 -0.89917476072195957 1 I I -0.70710678118654746 0.70710678118654746 1.25 forward I I I I #
loop $-1 $-1 $115 $31 #
coedge $-1 $72 $72 $116 $117 reversed $45 $-1 #
face $-1 $-1 $118 $25 $-1 $119 forward single #
loop $-1 $120 $121 $47 #
cone-surface $-1 64.775774865371062 0.70971550312476239 1.8277446182758901 -0.71933980857756763 0 -0.69465836192734942 0.86832295240918678 0 -0.89917476072195957 1 I I -0.70710678118654746 0.70710678118654746 1.25 forward I I I I #
loop $-1 $-1 $122 $32 #
coedge $-1 $77 $77 $123 $124 reversed $48 $-1 #
face $-1 $125 $126 $26 $-1 $127 forward single #
loop $-1 $-1 $128 $50 #
plane-surface $-1 -78.870815149388122 35.552998592868498 3.2960453714715641 -0.51503808176128008 0 0.85716729658548041 0.85716729658548041 0 0.51503808176128008 forward_v I I I I #
coedge $-1 $129 $130 $131 $132 reversed $51 $-1 #
face $-1 $-1 $133 $27 $-1 $134 forward single #
loop $-1 $135 $136 $53 #
cone-surface $-1 -62.366900564902679 35.552998592868498 -0.30223787775012312 0.51503808176128008 0 -0.85716729658548041 1.2857509448782207 0 0.77255712264192011 1 I I -0.70710678118654757 0.70710678118654757 1.5 forward I I I I #
loop $-1 $-1 $137 $34 #
coedge $-1 $86 $86 $138 $139 reversed $54 $-1 #
face $-1 $140 $141 $21 $-1 $142 reversed single #
loop $-1 $-1 $143 $56 #
plane-surface $-1 0 -46.336333110547066 0 0 1 0 0 0 1 forward_v I I I I #
coedge $-1 $144 $145 $146 $147 forward $57 $-1 #
coedge $-1 $148 $59 $149 $150 forward $36 $-1 #
coedge $-1 $59 $148 $151 $152 forward $36 $-1 #
coedge $-1 $153 $154 $59 $94 reversed $155 $-1 #
edge $-1 $156 -46.336333110547066 $157 46.336333110547066 $93 $158 forward 7 unknown #
face $-1 $159 $160 $22 $-1 $161 reversed single #
loop $-1 $-1 $162 $60 #
plane-surface $-1 0 -53.107409836706523 4.1996480434540153 0 0 1 1 0 0 forward_v I I I I #
coedge $-1 $163 $164 $100 $165 forward $61 $-1 #
coedge $-1 $166 $63 $167 $168 reversed $39 $-1 #
coedge $-1 $63 $166 $98 $165 reversed $39 $-1 #
coedge $-1 $169 $162 $63 $102 reversed $96 $-1 #
edge $-1 $170 -78.870815149388108 $171 78.870815149388108 $101 $172 forward 7 unknown #
face $-1 $173 $174 $23 $-1 $175 reversed single #
loop $-1 $-1 $176 $64 #
plane-surface $-1 82.764106782125793 -13.212961661413935 223.58622569885608 0 1 0 0.71933980857756763 0 0.69465836192734942 forward_v I I I I #
coedge $-1 $177 $178 $179 $180 reversed $65 $-1 #
coedge $-1 $108 $67 $181 $182 reversed $42 $-1 #
coedge $-1 $67 $107 $177 $183 reversed $42 $-1 #
coedge $-1 $179 $184 $67 $110 forward $185 $-1 #
edge $-1 $186 -37.488761758325211 $187 -22.598520598263349 $109 $188 forward 7 unknown #
loop $-1 $-1 $116 $68 #
plane-surface $-1 -30.705727361709336 -3.4670876462368483 114.00968318775865 0.71933980857756763 0 0.69465836192734942 0.69465836192734942 0 -0.71933980857756763 forward_v I I I I #
loop $-1 $-1 $189 $44 #
coedge $-1 $114 $114 $115 $190 reversed $69 $-1 #
coedge $-1 $115 $115 $114 $190 forward $71 $-1 #
coedge $-1 $116 $116 $72 $117 forward $111 $-1 #
edge $-1 $191 0 $191 6.2831853071796004 $116 $192 forward 7 unknown #
loop $-1 $-1 $123 $73 #
plane-surface $-1 -30.705727361709336 -3.4670876462368483 114.00968318775865 0.71933980857756763 0 0.69465836192734942 0.69465836192734942 0 -0.71933980857756763 forward_v I I I I #
loop $-1 $-1 $193 $47 #
coedge $-1 $121 $121 $122 $194 reversed $74 $-1 #
coedge $-1 $122 $122 $121 $194 forward $76 $-1 #
coedge $-1 $123 $123 $77 $124 forward $118 $-1 #
edge $-1 $195 0 $195 6.2831853071796004 $123 $196 forward 7 unknown #
face $-1 $197 $198 $26 $-1 $199 reversed single #
loop $-1 $-1 $131 $78 #
plane-surface $-1 0 0 15.959145510800195 0 0 1 1 0 0 forward_v I I I I #
coedge $-1 $200 $201 $202 $203 reversed $79 $-1 #
coedge $-1 $130 $81 $204 $205 reversed $51 $-1 #
coedge $-1 $81 $129 $200 $206 reversed $51 $-1 #
coedge $-1 $202 $207 $81 $132 forward $126 $-1 #
edge $-1 $208 1.1860657667953092 $209 22.261003130068858 $131 $210 forward 7 unknown #
loop $-1 $-1 $138 $82 #
plane-surface $-1 -78.870815149388122 35.552998592868498 3.2960453714715641 -0.51503808176128008 0 0.85716729658548041 0.85716729658548041 0 0.51503808176128008 forward_v I I I I #
loop $-1 $-1 $211 $53 #
coedge $-1 $136 $136 $137 $212 reversed $83 $-1 #
coedge $-1 $137 $137 $136 $212 forward $85 $-1 #
coedge $-1 $138 $138 $86 $139 forward $133 $-1 #
edge $-1 $213 0 $213 6.2831853071796004 $138 $214 forward 7 unknown #
face $-1 $215 $216 $21 $-1 $217 reversed single #
loop $-1 $-1 $218 $87 #
plane-surface $-1 -78.870815149388108 0 0 1 0 0 0 0 -1 forward_v I I I I #
coedge $-1 $219 $151 $220 $221 forward $88 $-1 #
coedge $-1 $222 $90 $219 $223 forward $57 $-1 #
coedge $-1 $90 $222 $224 $225 forward $57 $-1 #
coedge $-1 $154 $153 $90 $147 reversed $155 $-1 #
edge $-1 $226 -46.336333110547066 $227 46.336333110547066 $146 $228 forward 7 unknown #
coedge $-1 $92 $91 $229 $230 forward $36 $-1 #
coedge $-1 $231 $232 $91 $150 reversed $216 $-1 #
edge $-1 $157 -78.870815149388108 $233 78.870815149388108 $149 $234 forward 7 unknown #
coedge $-1 $143 $235 $92 $152 reversed $88 $-1 #
edge $-1 $236 -78.870815149388108 $156 78.870815149388108 $151 $237 forward 7 unknown #
coedge $-1 $146 $93 $235 $238 forward $155 $-1 #
coedge $-1 $93 $146 $231 $239 reversed $155 $-1 #
loop $-1 $-1 $153 $215 #
vertex $-1 $94 $240 #
vertex $-1 $94 $241 #
straight-curve $-1 78.870815149388108 0 15.959145510800195 0 1 0 I I #
face $-1 $242 $243 $22 $-1 $244 reversed single #
loop $-1 $-1 $245 $95 #
plane-surface $-1 0 -53.107409836706523 -2.2696334336953932 0 0 1 1 0 0 forward_v I I I I #
coedge $-1 $101 $246 $247 $248 forward $96 $-1 #
coedge $-1 $249 $98 $250 $251 reversed $61 $-1 #
coedge $-1 $98 $249 $169 $252 reversed $61 $-1 #
edge $-1 $170 -4.1996480434540153 $253 2.2696334336953932 $98 $254 forward 7 unknown #
coedge $-1 $100 $99 $255 $256 forward $39 $-1 #
coedge $-1 $247 $257 $99 $168 forward $258 $-1 #
edge $-1 $259 -2.2696334336953932 $171 4.1996480434540153 $167 $260 forward 7 unknown #
coedge $-1 $246 $101 $164 $252 forward $96 $-1 #
vertex $-1 $165 $261 #
vertex $-1 $248 $262 #
straight-curve $-1 0 -46.336333110547066 4.1996480434540153 1 0 0 I I #
face $-1 $-1 $185 $23 $-1 $263 forward single #
loop $-1 $-1 $264 $103 #
plane-surface $-1 78.870815149388108 0 0 -1 0 0 0 0 1 forward_v I I I I #
coedge $-1 $265 $266 $267 $268 reversed $104 $-1 #
coedge $-1 $269 $106 $108 $183 forward $65 $-1 #
coedge $-1 $106 $269 $265 $270 forward $65 $-1 #
coedge $-1 $267 $109 $106 $180 forward $185 $-1 #
edge $-1 $187 -8.0123301920586627 $271 11.479417838295511 $179 $272 forward 7 unknown #
coedge $-1 $273 $274 $107 $182 forward $174 $-1 #
edge $-1 $275 -111.25326380550452 $186 -95.833967338627843 $181 $276 forward 7 unknown #
edge $-1 $187 136.30628599694063 $275 157.74163029877622 $108 $277 forward 7 unknown #
coedge $-1 $109 $267 $273 $278 forward $185 $-1 #
loop $-1 $-1 $267 $173 #
vertex $-1 $182 $279 #
vertex $-1 $110 $280 #
straight-curve $-1 41.382053391062897 6.2787863689402386 15.959145510800198 -1 0 0 I I #
coedge $-1 $189 $189 $-1 $281 reversed $113 $-1 #
edge $-1 $282 0 $282 6.2831853071796004 $114 $283 forward 7 unknown #
vertex $-1 $117 $284 #
ellipse-curve $-1 71.425694569357177 -7.643890795598459 8.2494972773618702 0.71933980857756763 0 0.69465836192734942 1.7366459048183736 0 -1.7983495214439191 1 I I #
coedge $-1 $193 $193 $-1 $285 reversed $120 $-1 #
edge $-1 $286 0 $286 6.2831853071796004 $121 $287 forward 7 unknown #
vertex $-1 $124 $288 #
ellipse-curve $-1 71.425694569357177 0.70971550312476239 8.2494972773618702 0.71933980857756763 0 0.69465836192734942 1.7366459048183736 0 -1.7983495214439191 1 I I #
face $-1 $-1 $289 $26 $-1 $290 reversed single #
loop $-1 $-1 $291 $125 #
plane-surface $-1 0 46.336333110547066 0 0 -1 0 0 0 -1 forward_v I I I I #
coedge $-1 $292 $128 $130 $206 forward $79 $-1 #
coedge $-1 $128 $292 $291 $293 reversed $79 $-1 #
coedge $-1 $294 $131 $128 $203 forward $126 $-1 #
edge $-1 $209 6.9931647787556805 $295 28.559833814112817 $202 $296 forward 7 unknown #
coedge $-1 $297 $298 $129 $205 forward $289 $-1 #
edge $-1 $299 -65.957460715358366 $208 -53.294360576029746 $204 $300 forward 7 unknown #
edge $-1 $209 -24.58672589029635 $299 -1.6526814159067847e-014 $130 $301 forward 7 unknown #
coedge $-1 $131 $294 $297 $302 forward $126 $-1 #
vertex $-1 $205 $303 #
vertex $-1 $132 $304 #
straight-curve $-1 -80.056880916183417 24.76966407518993 15.959145510800198 1 0 0 I I #
coedge $-1 $211 $211 $-1 $305 reversed $135 $-1 #
edge $-1 $306 0 $306 6.2831853071796004 $136 $307 forward 7 unknown #
vertex $-1 $139 $308 #
ellipse-curve $-1 -68.33334646775134 35.552998592868498 9.6275954411358846 -0.51503808176128008 0 0.85716729658548041 2.5715018897564415 0 1.5451142452838402 1 I I #
face $-1 $-1 $155 $21 $-1 $309 reversed single #
loop $-1 $-1 $231 $140 #
plane-surface $-1 0 46.336333110547066 0 0 -1 0 0 0 -1 forward_v I I I I #
coedge $-1 $310 $229 $232 $311 forward $141 $-1 #
coedge $-1 $235 $143 $144 $223 reversed $88 $-1 #
coedge $-1 $229 $310 $143 $221 reversed $141 $-1 #
edge $-1 $236 -15.959145510800195 $312 15.959145510800195 $220 $313 forward 7 unknown #
coedge $-1 $145 $144 $310 $314 forward $57 $-1 #
edge $-1 $227 -78.870815149388108 $312 78.870815149388108 $219 $315 forward 7 unknown #
coedge $-1 $232 $231 $145 $225 reversed $216 $-1 #
edge $-1 $316 -78.870815149388108 $226 78.870815149388108 $224 $317 forward 7 unknown #
vertex $-1 $147 $318 #
vertex $-1 $238 $319 #
straight-curve $-1 78.870815149388108 0 -15.959145510800195 0 -1 0 I I #
coedge $-1 $218 $220 $148 $230 reversed $141 $-1 #
edge $-1 $233 -46.336333110547066 $236 46.336333110547066 $229 $320 forward 7 unknown #
coedge $-1 $224 $149 $154 $239 forward $216 $-1 #
coedge $-1 $149 $224 $218 $311 reversed $216 $-1 #
vertex $-1 $150 $321 #
straight-curve $-1 0 46.336333110547066 15.959145510800195 -1 0 0 I I #
coedge $-1 $151 $219 $153 $238 reversed $88 $-1 #
vertex $-1 $230 $322 #
straight-curve $-1 0 -46.336333110547066 15.959145510800195 1 0 0 I I #
edge $-1 $156 -15.959145510800195 $227 15.959145510800195 $153 $323 forward 7 unknown #
edge $-1 $157 -15.959145510800195 $226 15.959145510800195 $154 $324 forward 7 unknown #
point $-1 78.870815149388108 -46.336333110547066 15.959145510800195 #
point $-1 78.870815149388108 46.336333110547066 15.959145510800195 #
face $-1 $-1 $258 $22 $-1 $325 reversed single #
loop $-1 $-1 $326 $159 #
plane-surface $-1 0 -59.87848656286598 0.96500730487931108 0 1 0 0 0 1 forward_v I I I I #
coedge $-1 $327 $255 $257 $328 forward $160 $-1 #
coedge $-1 $162 $169 $329 $330 forward $96 $-1 #
coedge $-1 $331 $167 $162 $248 reversed $258 $-1 #
edge $-1 $332 -6.7710767261594569 $171 6.7710767261594569 $247 $333 forward 7 unknown #
coedge $-1 $164 $163 $326 $334 reversed $61 $-1 #
coedge $-1 $255 $327 $163 $251 forward $160 $-1 #
edge $-1 $335 -6.7710767261594569 $253 6.7710767261594569 $163 $336 forward 7 unknown #
edge $-1 $170 -6.7710767261594569 $337 6.7710767261594569 $164 $338 forward 7 unknown #
vertex $-1 $165 $339 #
straight-curve $-1 -78.870815149388108 -46.336333110547066 0 0 0 -1 I I #
coedge $-1 $245 $250 $166 $256 reversed $160 $-1 #
edge $-1 $259 -78.870815149388108 $253 78.870815149388108 $255 $340 forward 7 unknown #
coedge $-1 $167 $331 $245 $328 reversed $258 $-1 #
loop $-1 $-1 $167 $242 #
vertex $-1 $168 $341 #
straight-curve $-1 78.870815149388108 -46.336333110547066 0 0 0 1 I I #
point $-1 -78.870815149388108 -46.336333110547066 4.1996480434540153 #
point $-1 78.870815149388108 -46.336333110547066 4.1996480434540153 #
plane-surface $-1 0 0 15.959145510800195 0 0 1 1 0 0 forward_v I I I I #
coedge $-1 $274 $273 $266 $342 forward $174 $-1 #
coedge $-1 $266 $176 $178 $270 reversed $104 $-1 #
coedge $-1 $176 $265 $264 $342 reversed $104 $-1 #
coedge $-1 $184 $179 $176 $268 forward $185 $-1 #
edge $-1 $271 22.598520598263349 $343 37.488761758325211 $267 $344 forward 7 unknown #
coedge $-1 $178 $177 $274 $345 reversed $65 $-1 #
edge $-1 $346 -157.74163029877622 $271 -136.30628599694063 $265 $347 forward 7 unknown #
vertex $-1 $180 $348 #
straight-curve $-1 63.980573989326231 -1.7335438231184241 15.959145510800198 0 -1 0 I I #
coedge $-1 $264 $181 $184 $278 reversed $174 $-1 #
coedge $-1 $181 $264 $269 $345 forward $174 $-1 #
vertex $-1 $182 $349 #
straight-curve $-1 78.870815149388108 6.2787863689402386 111.79311284942804 0 0 1 I I #
straight-curve $-1 -30.705727361709336 6.2787863689402386 114.00968318775865 0.69465836192734942 0 -0.71933980857756763 I I #
edge $-1 $343 -13.212961661413935 $186 6.2787863689402386 $273 $350 forward 7 unknown #
point $-1 78.870815149388108 6.2787863689402386 15.959145510800195 #
point $-1 63.980573989326246 6.2787863689402386 15.959145510800198 #
edge $-1 $351 1 $351 0 $189 $-1 forward 7 unknown #
vertex $-1 $190 $352 #
ellipse-curve $-1 65.674949626093024 -7.643890795598459 2.6960675706850767 0.71933980857756763 0 0.69465836192734942 1.7366459048183736 0 -1.7983495214439191 1 I I #
point $-1 73.162340474175551 -7.643890795598459 6.4511477559179609 #
edge $-1 $353 1 $353 0 $193 $-1 forward 7 unknown #
vertex $-1 $194 $354 #
ellipse-curve $-1 65.674949626093024 0.70971550312476239 2.6960675706850767 0.71933980857756763 0 0.69465836192734942 1.7366459048183736 0 -1.7983495214439191 1 I I #
point $-1 73.162340474175551 0.70971550312476239 6.4511477559179609 #
loop $-1 $-1 $204 $197 #
plane-surface $-1 -78.870815149388108 0 0 1 0 0 0 0 -1 forward_v I I I I #
coedge $-1 $355 $356 $201 $293 forward $198 $-1 #
coedge $-1 $201 $200 $298 $357 reversed $79 $-1 #
edge $-1 $295 8.3672213674903055 $358 32.953947257786638 $291 $359 forward 7 unknown #
coedge $-1 $207 $202 $356 $360 forward $126 $-1 #
vertex $-1 $360 $361 #
straight-curve $-1 -57.795877786114566 17.776499296434249 15.959145510800195 0 1 0 I I #
coedge $-1 $362 $204 $207 $302 reversed $289 $-1 #
coedge $-1 $204 $362 $292 $357 forward $289 $-1 #
vertex $-1 $205 $363 #
straight-curve $-1 -78.870815149388108 24.76966407518993 69.253506086829944 0 0 1 I I #
straight-curve $-1 -78.870815149388122 24.76966407518993 3.2960453714715641 -0.85716729658548041 0 -0.51503808176128008 I I #
edge $-1 $364 -46.336333110547066 $208 -24.76966407518993 $297 $365 forward 7 unknown #
point $-1 -78.870815149388108 24.76966407518993 15.959145510800195 #
point $-1 -57.795877786114559 24.76966407518993 15.959145510800195 #
edge $-1 $366 1 $366 0 $211 $-1 forward 7 unknown #
vertex $-1 $212 $367 #
ellipse-curve $-1 -63.139457687544599 35.552998592868498 0.98351306712809761 -0.51503808176128008 0 0.85716729658548041 2.5715018897564415 0 1.5451142452838402 1 I I #
point $-1 -65.761844577994893 35.552998592868498 11.172709686419719 #
plane-surface $-1 78.870815149388108 0 0 -1 0 0 0 0 1 forward_v I I I I #
coedge $-1 $220 $218 $222 $314 reversed $141 $-1 #
edge $-1 $233 -15.959145510800195 $316 15.959145510800195 $232 $368 forward 7 unknown #
vertex $-1 $314 $369 #
straight-curve $-1 -78.870815149388108 -46.336333110547066 0 0 0 -1 I I #
edge $-1 $312 -46.336333110547066 $316 46.336333110547066 $310 $370 forward 7 unknown #
straight-curve $-1 0 -46.336333110547066 -15.959145510800195 -1 0 0 I I #
vertex $-1 $225 $371 #
straight-curve $-1 0 46.336333110547066 -15.959145510800195 1 0 0 I I #
point $-1 78.870815149388108 46.336333110547066 -15.959145510800195 #
point $-1 78.870815149388108 -46.336333110547066 -15.959145510800195 #
straight-curve $-1 -78.870815149388108 0 15.959145510800195 0 -1 0 I I #
point $-1 -78.870815149388108 46.336333110547066 15.959145510800195 #
point $-1 -78.870815149388108 -46.336333110547066 15.959145510800195 #
straight-curve $-1 78.870815149388108 -46.336333110547066 0 0 0 -1 I I #
straight-curve $-1 78.870815149388108 46.336333110547066 0 0 0 -1 I I #
plane-surface $-1 78.870815149388108 0 0 -1 0 0 0 0 1 forward_v I I I I #
coedge $-1 $372 $329 $249 $334 forward $243 $-1 #
coedge $-1 $250 $245 $372 $373 forward $160 $-1 #
edge $-1 $259 -6.7710767261594569 $374 6.7710767261594569 $257 $375 forward 7 unknown #
coedge $-1 $326 $376 $246 $330 reversed $243 $-1 #
edge $-1 $337 -78.870815149388108 $332 78.870815149388108 $329 $377 forward 7 unknown #
coedge $-1 $257 $247 $376 $378 forward $258 $-1 #
vertex $-1 $248 $379 #
straight-curve $-1 78.870815149388108 -53.107409836706523 4.1996480434540153 0 1 0 I I #
edge $-1 $337 -3.2346407385747042 $335 3.2346407385747042 $249 $380 forward 7 unknown #
vertex $-1 $251 $381 #
straight-curve $-1 -78.870815149388108 -53.107409836706523 -2.2696334336953932 0 1 0 I I #
vertex $-1 $252 $382 #
straight-curve $-1 -78.870815149388108 -53.107409836706523 4.1996480434540153 0 -1 0 I I #
point $-1 -78.870815149388108 -46.336333110547066 -2.2696334336953932 #
straight-curve $-1 0 -46.336333110547066 -2.2696334336953932 -1 0 0 I I #
point $-1 78.870815149388108 -46.336333110547066 -2.2696334336953932 #
edge $-1 $343 95.833967338627843 $346 111.25326380550452 $264 $383 forward 7 unknown #
vertex $-1 $278 $384 #
straight-curve $-1 41.382053391062897 -13.212961661413935 15.959145510800198 1 0 0 I I #
edge $-1 $346 -11.479417838295511 $275 8.0123301920586627 $274 $385 forward 7 unknown #
vertex $-1 $345 $386 #
straight-curve $-1 -30.705727361709336 -13.212961661413935 114.00968318775865 -0.69465836192734942 0 0.71933980857756763 I I #
point $-1 63.980573989326246 -13.212961661413935 15.959145510800198 #
point $-1 78.870815149388093 6.2787863689402386 0.53984904392352462 #
straight-curve $-1 78.870815149388108 0 15.959145510800195 0 1 0 I I #
vertex $-1 $281 $387 #
point $-1 67.411595530911399 -7.643890795598459 0.89771804924115772 #
vertex $-1 $285 $388 #
point $-1 67.411595530911399 0.70971550312476239 0.89771804924115772 #
coedge $-1 $356 $291 $362 $389 reversed $198 $-1 #
coedge $-1 $291 $355 $294 $360 reversed $198 $-1 #
edge $-1 $358 -28.559833814112817 $299 -6.9931647787556805 $298 $390 forward 7 unknown #
vertex $-1 $293 $391 #
straight-curve $-1 -50.62376926661063 46.336333110547066 20.268583153584402 -0.85716729658548041 0 -0.51503808176128008 I I #
edge $-1 $295 57.795877786114559 $364 78.870815149388108 $356 $392 forward 7 unknown #
point $-1 -57.795877786114559 46.336333110547066 15.959145510800195 #
coedge $-1 $298 $297 $355 $389 forward $289 $-1 #
point $-1 -78.870815149388108 24.76966407518993 3.2960453714715725 #
vertex $-1 $360 $393 #
straight-curve $-1 -78.870815149388108 0 15.959145510800195 0 -1 0 I I #
vertex $-1 $305 $394 #
point $-1 -60.567955797788159 35.552998592868498 2.5286273124119378 #
straight-curve $-1 -78.870815149388108 46.336333110547066 0 0 0 -1 I I #
point $-1 -78.870815149388108 -46.336333110547066 -15.959145510800195 #
straight-curve $-1 -78.870815149388108 0 -15.959145510800195 0 1 0 I I #
point $-1 -78.870815149388108 46.336333110547066 -15.959145510800195 #
coedge $-1 $376 $326 $327 $373 reversed $243 $-1 #
edge $-1 $374 -78.870815149388108 $335 78.870815149388108 $372 $395 forward 7 unknown #
vertex $-1 $378 $396 #
straight-curve $-1 78.870815149388108 -53.107409836706523 -2.2696334336953932 0 -1 0 I I #
coedge $-1 $329 $372 $331 $378 reversed $243 $-1 #
straight-curve $-1 0 -59.87848656286598 4.1996480434540153 1 0 0 I I #
edge $-1 $332 -3.2346407385747042 $374 3.2346407385747042 $331 $397 forward 7 unknown #
point $-1 78.870815149388108 -59.87848656286598 4.1996480434540153 #
straight-curve $-1 -78.870815149388108 -59.87848656286598 0.96500730487931108 0 0 -1 I I #
point $-1 -78.870815149388108 -59.87848656286598 -2.2696334336953932 #
point $-1 -78.870815149388108 -59.87848656286598 4.1996480434540153 #
straight-curve $-1 78.870815149388108 -13.212961661413935 111.79311284942804 0 0 -1 I I #
point $-1 78.870815149388108 -13.212961661413935 15.959145510800195 #
straight-curve $-1 78.870815149388108 -1.7335438231184241 0.53984904392352462 0 1 0 I I #
point $-1 78.870815149388093 -13.212961661413935 0.53984904392352462 #
point $-1 63.8766001046491 -7.643890795598459 0.9594216658667033 #
point $-1 63.8766001046491 0.70971550312476239 0.9594216658667033 #
edge $-1 $364 -15.959145510800195 $358 -3.2960453714715725 $355 $398 forward 7 unknown #
straight-curve $-1 -78.870815149388108 17.776499296434249 3.2960453714715703 0 -1 0 I I #
point $-1 -78.870815149388108 46.336333110547066 3.2960453714715725 #
straight-curve $-1 0 46.336333110547066 15.959145510800195 -1 0 0 I I #
point $-1 -78.870815149388108 46.336333110547066 15.959145510800195 #
point $-1 -61.594343442260758 35.552998592868498 -1.5879888226283438 #
straight-curve $-1 0 -59.87848656286598 -2.2696334336953932 -1 0 0 I I #
point $-1 78.870815149388108 -59.87848656286598 -2.2696334336953932 #
straight-curve $-1 78.870815149388108 -59.87848656286598 0.96500730487931108 0 0 -1 I I #
straight-curve $-1 -78.870815149388108 46.336333110547066 0 0 0 -1 I I #
End-of-ACIS-data 