500 0 4 0           
7 Unknown 11 ACIS 5.0 NT 24 Thu Mar 25 22:42:19 1999 
-1 9.9999999999999995e-007 1e-010 
body $-1 $4 $-1 $5 #
body $-1 $6 $-1 $7 #
body $-1 $8 $-1 $9 #
body $-1 $10 $-1 $11 #
lump $-1 $-1 $12 $0 #
transform $-1 1 0 0 0 1 0 0 0 1 54.228949858088932 31.72377844324361 7.2686730984936077 1 rotate no_reflect no_shear #
lump $-1 $-1 $13 $1 #
transform $-1 1 0 0 0 1 0 0 0 1 54.228949858088932 31.72377844324361 7.2686730984936077 1 rotate no_reflect no_shear #
lump $-1 $-1 $14 $2 #
transform $-1 1 0 0 0 1 0 0 0 1 54.228949858088932 31.72377844324361 7.2686730984936077 1 rotate no_reflect no_shear #
lump $-1 $-1 $15 $3 #
transform $-1 1 0 0 0 1 0 0 0 1 54.228949858088932 31.72377844324361 7.2686730984936077 1 rotate no_reflect no_shear #
shell $-1 $-1 $-1 $16 $-1 $4 #
shell $-1 $-1 $-1 $17 $-1 $6 #
shell $-1 $-1 $-1 $18 $-1 $8 #
shell $-1 $-1 $-1 $19 $-1 $10 #
face $-1 $20 $21 $12 $-1 $22 forward single #
face $-1 $23 $24 $13 $-1 $25 forward single #
face $-1 $26 $27 $14 $-1 $28 reversed single #
face $-1 $29 $30 $15 $-1 $31 forward single #
face $-1 $32 $33 $12 $-1 $34 reversed single #
loop $-1 $-1 $35 $16 #
plane-surface $-1 0 0 7.2686730984936077 0 0 1 1 0 0 forward_v I I I I #
face $-1 $36 $37 $13 $-1 $38 forward single #
loop $-1 $-1 $39 $17 #
plane-surface $-1 -54.228949858088932 0 0 1 0 0 0 0 -1 forward_v I I I I #
face $-1 $40 $41 $14 $-1 $42 reversed single #
loop $-1 $-1 $43 $18 #
plane-surface $-1 28.813162364884178 88.128212289820709 114.73362133787046 1 0 0 0 -0.83867057594974714 -0.54463902268945019 forward_v I I I I #
face $-1 $44 $45 $15 $-1 $46 forward single #
loop $-1 $47 $48 $19 #
cone-surface $-1 38.959336249329546 29.146894733575781 4.2024464778785537 0 -0.83867057594974714 -0.54463902268945019 1 0 0 1 I I 0 1 1 forward I I I I #
face $-1 $49 $50 $12 $-1 $51 reversed single #
loop $-1 $-1 $52 $20 #
plane-surface $-1 0 0 -7.2686730984936077 0 0 1 1 0 0 forward_v I I I I #
coedge $-1 $53 $54 $55 $56 forward $21 $-1 #
face $-1 $57 $58 $13 $-1 $59 reversed single #
loop $-1 $-1 $60 $23 #
plane-surface $-1 0 0 7.2686730984936077 0 0 1 1 0 0 forward_v I I I I #
coedge $-1 $61 $62 $63 $64 forward $24 $-1 #
face $-1 $65 $66 $14 $-1 $67 reversed single #
loop $-1 $-1 $68 $26 #
plane-surface $-1 38.95933624932956 -2.83223693144609 55.663216833500954 0 0.83867057594974714 0.54463902268945019 1 0 0 forward_v I I I I #
coedge $-1 $69 $70 $71 $72 reversed $27 $-1 #
face $-1 $-1 $73 $15 $-1 $74 forward single #
loop $-1 $75 $76 $29 #
cone-surface $-1 38.959336249329546 27.714791843447657 3.2724280167123965 0 -0.83867057594974714 -0.54463902268945019 0.5 0 0 1 I I -0.70710678118654746 0.70710678118654746 0.5 forward I I I I #
loop $-1 $-1 $77 $19 #
coedge $-1 $48 $48 $78 $79 reversed $30 $-1 #
face $-1 $80 $81 $12 $-1 $82 reversed single #
loop $-1 $-1 $83 $32 #
plane-surface $-1 0 -31.72377844324361 0 0 1 0 0 0 1 forward_v I I I I #
coedge $-1 $84 $85 $86 $87 forward $33 $-1 #
coedge $-1 $88 $35 $89 $90 forward $21 $-1 #
coedge $-1 $35 $88 $91 $92 forward $21 $-1 #
coedge $-1 $93 $94 $35 $56 reversed $95 $-1 #
edge $-1 $96 -31.72377844324361 $97 31.72377844324361 $55 $98 forward 7 unknown #
face $-1 $99 $100 $13 $-1 $101 reversed single #
loop $-1 $-1 $102 $36 #
plane-surface $-1 -62.413989966774288 -29.804846083292471 0 1 0 0 0 0 -1 forward_v I I I I #
coedge $-1 $103 $104 $61 $105 forward $37 $-1 #
coedge $-1 $106 $39 $60 $105 reversed $24 $-1 #
coedge $-1 $39 $106 $107 $108 reversed $24 $-1 #
coedge $-1 $109 $110 $39 $64 reversed $100 $-1 #
edge $-1 $111 -7.2686730984936077 $112 7.2686730984936077 $63 $113 forward 7 unknown #
face $-1 $114 $115 $14 $-1 $116 forward single #
loop $-1 $-1 $117 $40 #
plane-surface $-1 49.105510133774942 88.128212289820709 114.73362133787046 -1 0 0 0 0.83867057594974714 0.54463902268945019 forward_v I I I I #
coedge $-1 $118 $119 $120 $121 reversed $41 $-1 #
coedge $-1 $70 $43 $122 $123 reversed $27 $-1 #
coedge $-1 $43 $69 $118 $124 reversed $27 $-1 #
coedge $-1 $120 $125 $43 $72 forward $115 $-1 #
edge $-1 $126 12.340327701666745 $127 15.46855991669592 $71 $128 forward 7 unknown #
loop $-1 $-1 $78 $44 #
plane-surface $-1 38.95933624932956 -2.83223693144609 55.663216833500954 0 0.83867057594974714 0.54463902268945019 1 0 0 forward_v I I I I #
loop $-1 $-1 $129 $29 #
coedge $-1 $76 $76 $77 $130 reversed $45 $-1 #
coedge $-1 $77 $77 $76 $130 forward $47 $-1 #
coedge $-1 $78 $78 $48 $79 forward $73 $-1 #
edge $-1 $131 -5.9944162894154966e-016 $131 6.2831853071795996 $78 $132 forward 7 unknown #
face $-1 $133 $134 $12 $-1 $135 reversed single #
loop $-1 $-1 $136 $49 #
plane-surface $-1 -54.228949858088932 0 0 1 0 0 0 0 -1 forward_v I I I I #
coedge $-1 $137 $91 $138 $139 forward $50 $-1 #
coedge $-1 $140 $52 $137 $141 forward $33 $-1 #
coedge $-1 $52 $140 $142 $143 forward $33 $-1 #
coedge $-1 $94 $93 $52 $87 reversed $95 $-1 #
edge $-1 $144 -31.72377844324361 $145 31.72377844324361 $86 $146 forward 7 unknown #
coedge $-1 $54 $53 $147 $148 forward $21 $-1 #
coedge $-1 $149 $150 $53 $90 reversed $134 $-1 #
edge $-1 $97 -54.228949858088932 $151 54.228949858088932 $89 $152 forward 7 unknown #
coedge $-1 $83 $153 $54 $92 reversed $50 $-1 #
edge $-1 $154 -54.228949858088932 $96 54.228949858088932 $91 $155 forward 7 unknown #
coedge $-1 $86 $55 $153 $156 forward $95 $-1 #
coedge $-1 $55 $86 $149 $157 reversed $95 $-1 #
loop $-1 $-1 $93 $133 #
vertex $-1 $56 $158 #
vertex $-1 $56 $159 #
straight-curve $-1 54.228949858088932 0 7.2686730984936077 0 1 0 I I #
face $-1 $160 $161 $13 $-1 $162 reversed single #
loop $-1 $-1 $63 $57 #
plane-surface $-1 -58.32146991243161 -27.885913723341332 0 0 -1 0 0 0 -1 forward_v I I I I #
coedge $-1 $163 $164 $165 $166 forward $58 $-1 #
coedge $-1 $167 $60 $110 $168 forward $37 $-1 #
coedge $-1 $60 $167 $169 $170 forward $37 $-1 #
edge $-1 $171 -31.72377844324361 $112 -27.885913723341332 $60 $172 forward 7 unknown #
coedge $-1 $62 $61 $173 $174 reversed $24 $-1 #
coedge $-1 $175 $176 $62 $108 forward $161 $-1 #
edge $-1 $111 27.885913723341332 $177 31.72377844324361 $107 $178 forward 7 unknown #
coedge $-1 $165 $63 $176 $179 reversed $100 $-1 #
coedge $-1 $63 $165 $103 $168 reversed $100 $-1 #
vertex $-1 $108 $180 #
vertex $-1 $168 $181 #
straight-curve $-1 -54.228949858088932 -27.885913723341332 0 0 0 1 I I #
face $-1 $-1 $182 $14 $-1 $183 reversed single #
loop $-1 $-1 $71 $65 #
plane-surface $-1 0 0 7.2686730984936077 0 0 1 1 0 0 forward_v I I I I #
coedge $-1 $184 $185 $186 $187 reversed $66 $-1 #
coedge $-1 $188 $68 $70 $124 forward $41 $-1 #
coedge $-1 $68 $188 $184 $189 forward $41 $-1 #
coedge $-1 $186 $71 $68 $121 forward $115 $-1 #
edge $-1 $127 9.3334942402193981 $190 29.625842009110162 $120 $191 forward 7 unknown #
coedge $-1 $192 $193 $69 $123 forward $182 $-1 #
edge $-1 $194 -54.915192912028864 $126 -50.098137570441622 $122 $195 forward 7 unknown #
edge $-1 $127 57.7038769724373 $194 63.447556886487234 $70 $196 forward 7 unknown #
coedge $-1 $71 $186 $192 $197 forward $115 $-1 #
vertex $-1 $123 $198 #
vertex $-1 $72 $199 #
straight-curve $-1 28.813162364884178 44.064106144910355 7.2686730984936077 0 -1 0 I I #
coedge $-1 $129 $129 $-1 $200 reversed $75 $-1 #
edge $-1 $201 0 $201 6.2831853071796004 $76 $202 forward 7 unknown #
vertex $-1 $79 $203 #
ellipse-curve $-1 38.959336249329546 30.159662335729024 4.8601454276999805 0 0.83867057594974714 0.54463902268945019 1 0 0 1 I I #
face $-1 $-1 $95 $12 $-1 $204 reversed single #
loop $-1 $-1 $149 $80 #
plane-surface $-1 0 31.72377844324361 0 0 -1 0 0 0 -1 forward_v I I I I #
coedge $-1 $205 $147 $150 $206 forward $81 $-1 #
coedge $-1 $153 $83 $84 $141 reversed $50 $-1 #
coedge $-1 $147 $205 $83 $139 reversed $81 $-1 #
edge $-1 $154 -7.2686730984936077 $207 7.2686730984936077 $138 $208 forward 7 unknown #
coedge $-1 $85 $84 $205 $209 forward $33 $-1 #
edge $-1 $145 -54.228949858088932 $207 54.228949858088932 $137 $210 forward 7 unknown #
coedge $-1 $150 $149 $85 $143 reversed $134 $-1 #
edge $-1 $211 -54.228949858088932 $144 54.228949858088932 $142 $212 forward 7 unknown #
vertex $-1 $87 $213 #
vertex $-1 $156 $214 #
straight-curve $-1 54.228949858088932 0 -7.2686730984936077 0 -1 0 I I #
coedge $-1 $136 $138 $88 $148 reversed $81 $-1 #
edge $-1 $151 -31.72377844324361 $154 31.72377844324361 $147 $215 forward 7 unknown #
coedge $-1 $142 $89 $94 $157 forward $134 $-1 #
coedge $-1 $89 $142 $136 $206 reversed $134 $-1 #
vertex $-1 $90 $216 #
straight-curve $-1 0 31.72377844324361 7.2686730984936077 -1 0 0 I I #
coedge $-1 $91 $137 $93 $156 reversed $50 $-1 #
vertex $-1 $148 $217 #
straight-curve $-1 0 -31.72377844324361 7.2686730984936077 1 0 0 I I #
edge $-1 $96 -7.2686730984936077 $145 7.2686730984936077 $93 $218 forward 7 unknown #
edge $-1 $97 -7.2686730984936077 $144 7.2686730984936077 $94 $219 forward 7 unknown #
point $-1 54.228949858088932 -31.72377844324361 7.2686730984936077 #
point $-1 54.228949858088932 31.72377844324361 7.2686730984936077 #
face $-1 $-1 $220 $13 $-1 $221 reversed single #
loop $-1 $-1 $107 $99 #
plane-surface $-1 0 0 -7.2686730984936077 0 0 1 1 0 0 forward_v I I I I #
coedge $-1 $222 $102 $223 $224 reversed $58 $-1 #
coedge $-1 $102 $222 $167 $225 reversed $58 $-1 #
coedge $-1 $110 $109 $102 $166 reversed $100 $-1 #
edge $-1 $226 -7.2686730984936077 $227 7.2686730984936077 $165 $228 forward 7 unknown #
coedge $-1 $104 $103 $164 $225 forward $37 $-1 #
edge $-1 $112 -4.0925200543426783 $226 4.0925200543426783 $110 $229 forward 7 unknown #
coedge $-1 $230 $173 $104 $170 reversed $220 $-1 #
edge $-1 $231 -62.413989966774288 $171 -54.228949858088932 $169 $232 forward 7 unknown #
vertex $-1 $174 $233 #
straight-curve $-1 -54.228949858088932 0 7.2686730984936077 0 1 0 I I #
coedge $-1 $169 $234 $106 $174 forward $220 $-1 #
edge $-1 $177 -7.2686730984936077 $171 7.2686730984936077 $173 $235 forward 7 unknown #
coedge $-1 $223 $107 $234 $236 forward $161 $-1 #
coedge $-1 $107 $223 $109 $179 forward $161 $-1 #
vertex $-1 $236 $237 #
straight-curve $-1 -54.228949858088932 0 -7.2686730984936077 0 -1 0 I I #
edge $-1 $227 -4.0925200543426783 $111 4.0925200543426783 $109 $238 forward 7 unknown #
point $-1 -54.228949858088932 -27.885913723341332 -7.2686730984936077 #
point $-1 -54.228949858088932 -27.885913723341332 7.2686730984936077 #
loop $-1 $-1 $122 $114 #
plane-surface $-1 0 31.72377844324361 0 0 -1 0 0 0 -1 forward_v I I I I #
coedge $-1 $185 $117 $119 $189 reversed $66 $-1 #
coedge $-1 $117 $184 $239 $240 reversed $66 $-1 #
coedge $-1 $125 $120 $117 $187 forward $115 $-1 #
edge $-1 $190 -15.46855991669592 $241 -12.340327701666745 $186 $242 forward 7 unknown #
coedge $-1 $119 $118 $193 $243 reversed $41 $-1 #
edge $-1 $244 -63.447556886487234 $190 -57.7038769724373 $184 $245 forward 7 unknown #
vertex $-1 $121 $246 #
straight-curve $-1 19.47966812466478 28.595546228214438 7.2686730984936041 1 0 0 I I #
coedge $-1 $239 $122 $125 $197 reversed $182 $-1 #
coedge $-1 $122 $239 $188 $243 forward $182 $-1 #
vertex $-1 $123 $247 #
straight-curve $-1 28.813162364884178 31.72377844324361 57.36681066893523 0 0 1 I I #
straight-curve $-1 28.813162364884178 -2.83223693144609 55.663216833500954 0 0.54463902268945019 -0.83867057594974714 I I #
edge $-1 $241 -49.105510133774942 $126 -28.813162364884178 $192 $248 forward 7 unknown #
point $-1 28.813162364884178 31.72377844324361 7.2686730984936077 #
point $-1 28.813162364884178 28.595546228214435 7.2686730984936077 #
edge $-1 $249 1 $249 0 $129 $-1 forward 7 unknown #
vertex $-1 $130 $250 #
ellipse-curve $-1 38.959336249329546 28.134127131422531 3.5447475280571217 0 0.83867057594974714 0.54463902268945019 1 0 0 1 I I #
point $-1 39.959336249329546 30.159662335729031 4.8601454276999858 #
plane-surface $-1 54.228949858088932 0 0 -1 0 0 0 0 1 forward_v I I I I #
coedge $-1 $138 $136 $140 $209 reversed $81 $-1 #
edge $-1 $151 -7.2686730984936077 $211 7.2686730984936077 $150 $251 forward 7 unknown #
vertex $-1 $209 $252 #
straight-curve $-1 -54.228949858088932 -31.72377844324361 0 0 0 -1 I I #
edge $-1 $207 -31.72377844324361 $211 31.72377844324361 $205 $253 forward 7 unknown #
straight-curve $-1 0 -31.72377844324361 -7.2686730984936077 -1 0 0 I I #
vertex $-1 $143 $254 #
straight-curve $-1 0 31.72377844324361 -7.2686730984936077 1 0 0 I I #
point $-1 54.228949858088932 31.72377844324361 -7.2686730984936077 #
point $-1 54.228949858088932 -31.72377844324361 -7.2686730984936077 #
straight-curve $-1 -54.228949858088932 0 7.2686730984936077 0 -1 0 I I #
point $-1 -54.228949858088932 31.72377844324361 7.2686730984936077 #
point $-1 -54.228949858088932 -31.72377844324361 7.2686730984936077 #
straight-curve $-1 54.228949858088932 -31.72377844324361 0 0 0 -1 I I #
straight-curve $-1 54.228949858088932 31.72377844324361 0 0 0 -1 I I #
loop $-1 $-1 $173 $160 #
plane-surface $-1 0 -31.72377844324361 0 0 1 0 0 0 1 forward_v I I I I #
coedge $-1 $164 $163 $230 $255 reversed $58 $-1 #
coedge $-1 $176 $175 $163 $224 forward $161 $-1 #
edge $-1 $256 -1.918932359951139 $227 1.918932359951139 $163 $257 forward 7 unknown #
edge $-1 $226 -1.918932359951139 $231 1.918932359951139 $164 $258 forward 7 unknown #
vertex $-1 $168 $259 #
vertex $-1 $179 $260 #
straight-curve $-1 -62.413989966774288 -27.885913723341332 0 0 0 -1 I I #
straight-curve $-1 -58.32146991243161 -27.885913723341332 7.2686730984936077 -1 0 0 I I #
coedge $-1 $234 $169 $222 $255 forward $220 $-1 #
vertex $-1 $225 $261 #
straight-curve $-1 0 -31.72377844324361 7.2686730984936077 1 0 0 I I #
point $-1 -54.228949858088932 -31.72377844324361 7.2686730984936077 #
coedge $-1 $173 $230 $175 $236 reversed $220 $-1 #
straight-curve $-1 -54.228949858088932 -31.72377844324361 0 0 0 1 I I #
edge $-1 $177 -4.0925200543426783 $256 4.0925200543426783 $234 $262 forward 7 unknown #
point $-1 -54.228949858088932 -31.72377844324361 -7.2686730984936077 #
straight-curve $-1 -58.32146991243161 -27.885913723341332 -7.2686730984936077 1 0 0 I I #
coedge $-1 $193 $192 $185 $240 forward $182 $-1 #
edge $-1 $241 50.098137570441622 $244 54.915192912028864 $239 $263 forward 7 unknown #
vertex $-1 $197 $264 #
straight-curve $-1 49.105510133774942 44.064106144910355 7.2686730984936077 0 1 0 I I #
edge $-1 $244 -29.625842009110162 $194 -9.3334942402193981 $193 $265 forward 7 unknown #
vertex $-1 $243 $266 #
straight-curve $-1 49.105510133774942 -2.83223693144609 55.663216833500954 0 -0.54463902268945019 0.83867057594974714 I I #
point $-1 49.105510133774942 28.595546228214435 7.2686730984936077 #
point $-1 28.813162364884178 31.72377844324361 2.4516177569063657 #
straight-curve $-1 0 31.72377844324361 7.2686730984936077 -1 0 0 I I #
vertex $-1 $200 $267 #
point $-1 39.959336249329546 28.134127131422531 3.5447475280571217 #
straight-curve $-1 -54.228949858088932 31.72377844324361 0 0 0 -1 I I #
point $-1 -54.228949858088932 -31.72377844324361 -7.2686730984936077 #
straight-curve $-1 -54.228949858088932 0 -7.2686730984936077 0 1 0 I I #
point $-1 -54.228949858088932 31.72377844324361 -7.2686730984936077 #
edge $-1 $231 -7.2686730984936077 $256 7.2686730984936077 $222 $268 forward 7 unknown #
vertex $-1 $224 $269 #
straight-curve $-1 -62.413989966774288 -29.804846083292471 -7.2686730984936077 0 1 0 I I #
straight-curve $-1 -62.413989966774288 -29.804846083292471 7.2686730984936077 0 -1 0 I I #
point $-1 -62.413989966774288 -27.885913723341332 7.2686730984936077 #
point $-1 -62.413989966774288 -27.885913723341332 -7.2686730984936077 #
point $-1 -62.413989966774288 -31.72377844324361 7.2686730984936077 #
straight-curve $-1 -58.32146991243161 -31.72377844324361 -7.2686730984936077 -1 0 0 I I #
straight-curve $-1 49.105510133774942 31.72377844324361 57.36681066893523 0 0 -1 I I #
point $-1 49.105510133774942 31.72377844324361 7.2686730984936077 #
straight-curve $-1 19.47966812466478 31.72377844324361 2.4516177569063622 -1 0 0 I I #
point $-1 49.105510133774942 31.72377844324361 2.4516177569063657 #
point $-1 38.959336249329546 27.295456555472782 3.0001085053676713 #
straight-curve $-1 -62.413989966774288 -31.72377844324361 0 0 0 -1 I I #
point $-1 -62.413989966774288 -31.72377844324361 -7.2686730984936077 #
End-of-ACIS-data 