500 0 7 0           
7 Unknown 11 ACIS 5.0 NT 24 Fri Mar 26 02:28:36 1999 
-1 9.9999999999999995e-007 1e-010 
body $-1 $7 $-1 $8 #
body $-1 $9 $-1 $10 #
body $-1 $11 $-1 $12 #
body $-1 $13 $-1 $14 #
body $-1 $15 $-1 $16 #
body $-1 $17 $-1 $18 #
body $-1 $19 $-1 $20 #
lump $-1 $-1 $21 $0 #
transform $-1 1 0 0 0 1 0 0 0 1 61.192052980132452 30.79304671130723 13.469267879242933 1 rotate no_reflect no_shear #
lump $-1 $-1 $22 $1 #
transform $-1 1 0 0 0 1 0 0 0 1 61.192052980132452 30.79304671130723 13.469267879242933 1 rotate no_reflect no_shear #
lump $-1 $-1 $23 $2 #
transform $-1 1 0 0 0 1 0 0 0 1 61.192052980132452 30.79304671130723 13.469267879242933 1 rotate no_reflect no_shear #
lump $-1 $-1 $24 $3 #
transform $-1 1 0 0 0 1 0 0 0 1 61.192052980132452 30.79304671130723 13.469267879242933 1 rotate no_reflect no_shear #
lump $-1 $-1 $25 $4 #
transform $-1 1 0 0 0 1 0 0 0 1 61.192052980132452 30.79304671130723 13.469267879242933 1 rotate no_reflect no_shear #
lump $-1 $-1 $26 $5 #
transform $-1 1 0 0 0 1 0 0 0 1 61.192052980132452 30.79304671130723 13.469267879242933 1 rotate no_reflect no_shear #
lump $-1 $-1 $27 $6 #
transform $-1 1 0 0 0 1 0 0 0 1 61.192052980132452 30.79304671130723 13.469267879242933 1 rotate no_reflect no_shear #
shell $-1 $-1 $-1 $28 $-1 $7 #
shell $-1 $-1 $-1 $29 $-1 $9 #
shell $-1 $-1 $-1 $30 $-1 $11 #
shell $-1 $-1 $-1 $31 $-1 $13 #
shell $-1 $-1 $-1 $32 $-1 $15 #
shell $-1 $-1 $-1 $33 $-1 $17 #
shell $-1 $-1 $-1 $34 $-1 $19 #
face $-1 $35 $36 $21 $-1 $37 forward single #
face $-1 $38 $39 $22 $-1 $40 forward single #
face $-1 $41 $42 $23 $-1 $43 reversed single #
face $-1 $44 $45 $24 $-1 $46 forward single #
face $-1 $47 $48 $25 $-1 $49 reversed single #
face $-1 $50 $51 $26 $-1 $52 forward single #
face $-1 $53 $54 $27 $-1 $55 forward single #
face $-1 $56 $57 $21 $-1 $58 reversed single #
loop $-1 $-1 $59 $28 #
plane-surface $-1 0 0 13.469267879242933 0 0 1 1 0 0 forward_v I I I I #
face $-1 $60 $61 $22 $-1 $62 reversed single #
loop $-1 $-1 $63 $29 #
plane-surface $-1 -61.192052980132452 0 0 1 0 0 0 0 -1 forward_v I I I I #
face $-1 $64 $65 $23 $-1 $66 reversed single #
loop $-1 $-1 $67 $30 #
plane-surface $-1 -33.405715970663493 76.047511291242884 134.89377583426139 1 0 0 0 -0.71933980857756763 -0.69465836192734942 forward_v I I I I #
face $-1 $68 $69 $24 $-1 $70 forward single #
loop $-1 $71 $72 $31 #
cone-surface $-1 -21.460231264903165 26.025638310918374 8.5992975546795929 0 -0.71933980857756763 -0.69465836192734942 1 0 0 1 I I 0 1 1 forward I I I I #
face $-1 $73 $74 $25 $-1 $75 reversed single #
loop $-1 $-1 $76 $32 #
plane-surface $-1 0.30640968811983171 -135.69670142497355 69.97694544958182 -1 0 0 0 -0.85716730853699208 0.51503806187062418 forward_v I I I I #
face $-1 $77 $78 $26 $-1 $79 forward single #
loop $-1 $80 $81 $33 #
cone-surface $-1 -21.491401323876836 -27.64801205362032 9.494977572468235 0 0.85716730853699208 -0.51503806187062418 1.5 0 0 1 I I 0 1 1.5 forward I I I I #
face $-1 $82 $83 $27 $-1 $84 forward single #
loop $-1 $85 $86 $34 #
cone-surface $-1 -8.4127147166788276 -27.64801205362032 9.494977572468235 0 0.85716730853699208 -0.51503806187062418 1.5 0 0 1 I I 0 1 1.5 forward I I I I #
face $-1 $87 $88 $21 $-1 $89 reversed single #
loop $-1 $-1 $90 $35 #
plane-surface $-1 0 0 -13.469267879242933 0 0 1 1 0 0 forward_v I I I I #
coedge $-1 $91 $92 $93 $94 forward $36 $-1 #
face $-1 $95 $96 $22 $-1 $97 forward single #
loop $-1 $-1 $98 $38 #
plane-surface $-1 0 30.79304671130723 0 0 -1 0 0 0 -1 forward_v I I I I #
coedge $-1 $99 $100 $101 $102 forward $39 $-1 #
face $-1 $103 $104 $23 $-1 $105 reversed single #
loop $-1 $-1 $106 $41 #
plane-surface $-1 -21.460231264903165 -11.988248063150834 49.878633261960601 0 0.71933980857756763 0.69465836192734942 1 0 0 forward_v I I I I #
coedge $-1 $107 $108 $109 $110 reversed $42 $-1 #
face $-1 $-1 $111 $24 $-1 $112 forward single #
loop $-1 $113 $114 $44 #
cone-surface $-1 -21.460231264903165 24.709150086766652 7.327979684625598 0 -0.71933980857756763 -0.69465836192734942 0.5 0 0 1 I I -0.70710678118654746 0.70710678118654746 0.5 forward I I I I #
loop $-1 $-1 $115 $31 #
coedge $-1 $72 $72 $116 $117 reversed $45 $-1 #
face $-1 $118 $119 $25 $-1 $120 reversed single #
loop $-1 $-1 $121 $47 #
plane-surface $-1 -14.952058020277839 -30.793046711307241 6.9444727120378786 0 -0.85716730853699208 0.51503806187062418 1 0 0 forward_v I I I I #
coedge $-1 $122 $123 $124 $125 reversed $48 $-1 #
face $-1 $-1 $126 $26 $-1 $127 forward single #
loop $-1 $128 $129 $50 #
cone-surface $-1 -21.491401323876836 -25.820348078582246 8.3968063028930988 0 0.85716730853699208 -0.51503806187062418 0.75 0 0 1 I I -0.70710678118654757 0.70710678118654757 0.75 forward I I I I #
loop $-1 $-1 $130 $33 #
coedge $-1 $81 $81 $131 $132 reversed $51 $-1 #
face $-1 $-1 $133 $27 $-1 $134 forward single #
loop $-1 $135 $136 $53 #
cone-surface $-1 -8.4127147166788276 -25.820348078582246 8.3968063028930988 0 0.85716730853699208 -0.51503806187062418 0.75 0 0 1 I I -0.70710678118654757 0.70710678118654757 0.75 forward I I I I #
loop $-1 $-1 $137 $34 #
coedge $-1 $86 $86 $138 $139 reversed $54 $-1 #
face $-1 $140 $141 $21 $-1 $142 reversed single #
loop $-1 $-1 $143 $56 #
plane-surface $-1 0 -30.79304671130723 0 0 1 0 0 0 1 forward_v I I I I #
coedge $-1 $144 $145 $146 $147 forward $57 $-1 #
coedge $-1 $148 $59 $149 $150 forward $36 $-1 #
coedge $-1 $59 $148 $151 $152 forward $36 $-1 #
coedge $-1 $153 $154 $59 $94 reversed $155 $-1 #
edge $-1 $156 -30.79304671130723 $157 30.79304671130723 $93 $158 forward 7 unknown #
face $-1 $159 $160 $22 $-1 $161 reversed single #
loop $-1 $-1 $101 $60 #
plane-surface $-1 -68.408114488796301 0 -7.9336764191061571 0 0 1 1 0 0 forward_v I I I I #
coedge $-1 $162 $163 $100 $164 forward $61 $-1 #
coedge $-1 $165 $63 $166 $167 reversed $39 $-1 #
coedge $-1 $63 $165 $98 $164 reversed $39 $-1 #
coedge $-1 $168 $169 $63 $102 reversed $96 $-1 #
edge $-1 $170 -30.79304671130723 $171 30.79304671130723 $101 $172 forward 7 unknown #
face $-1 $173 $174 $23 $-1 $175 forward single #
loop $-1 $-1 $176 $64 #
plane-surface $-1 -9.5147465591428322 76.047511291242884 134.89377583426139 -1 0 0 0 0.71933980857756763 0.69465836192734942 forward_v I I I I #
coedge $-1 $177 $178 $179 $180 reversed $65 $-1 #
coedge $-1 $108 $67 $181 $182 reversed $42 $-1 #
coedge $-1 $67 $107 $177 $183 reversed $42 $-1 #
coedge $-1 $179 $184 $67 $110 forward $174 $-1 #
edge $-1 $185 7.2307089343142117 $186 14.851889095366019 $109 $187 forward 7 unknown #
loop $-1 $-1 $116 $68 #
plane-surface $-1 -21.460231264903165 -11.988248063150834 49.878633261960601 0 0.71933980857756763 0.69465836192734942 1 0 0 forward_v I I I I #
loop $-1 $-1 $188 $44 #
coedge $-1 $114 $114 $115 $189 reversed $69 $-1 #
coedge $-1 $115 $115 $114 $189 forward $71 $-1 #
coedge $-1 $116 $116 $72 $117 forward $111 $-1 #
edge $-1 $190 3.5074445250725914e-016 $190 6.2831853071796004 $116 $191 forward 7 unknown #
face $-1 $192 $193 $25 $-1 $194 reversed single #
loop $-1 $-1 $195 $73 #
plane-surface $-1 -30.21052572867551 -135.69670142497355 69.97694544958182 1 0 0 0 0.85716730853699208 -0.51503806187062418 forward_v I I I I #
coedge $-1 $196 $197 $198 $199 reversed $74 $-1 #
coedge $-1 $123 $76 $200 $201 reversed $48 $-1 #
coedge $-1 $76 $122 $196 $202 reversed $48 $-1 #
coedge $-1 $198 $203 $76 $125 forward $204 $-1 #
edge $-1 $205 37.05530400117955 $206 40.975796329282687 $124 $207 forward 7 unknown #
loop $-1 $-1 $131 $77 #
plane-surface $-1 -14.952058020277839 -30.793046711307241 6.9444727120378786 0 -0.85716730853699208 0.51503806187062418 1 0 0 forward_v I I I I #
loop $-1 $-1 $208 $50 #
coedge $-1 $129 $129 $130 $209 reversed $78 $-1 #
coedge $-1 $130 $130 $129 $209 forward $80 $-1 #
coedge $-1 $131 $131 $81 $132 forward $126 $-1 #
edge $-1 $210 -4.0079449439197804e-016 $210 6.2831853071796004 $131 $211 forward 7 unknown #
loop $-1 $-1 $138 $82 #
plane-surface $-1 -14.952058020277839 -30.793046711307241 6.9444727120378786 0 -0.85716730853699208 0.51503806187062418 1 0 0 forward_v I I I I #
loop $-1 $-1 $212 $53 #
coedge $-1 $136 $136 $137 $213 reversed $83 $-1 #
coedge $-1 $137 $137 $136 $213 forward $85 $-1 #
coedge $-1 $138 $138 $86 $139 forward $133 $-1 #
edge $-1 $214 -4.0079449439197804e-016 $214 6.2831853071796004 $138 $215 forward 7 unknown #
face $-1 $216 $217 $21 $-1 $218 reversed single #
loop $-1 $-1 $219 $87 #
plane-surface $-1 -61.192052980132452 0 0 1 0 0 0 0 -1 forward_v I I I I #
coedge $-1 $220 $151 $219 $221 forward $88 $-1 #
coedge $-1 $222 $90 $220 $223 forward $57 $-1 #
coedge $-1 $90 $222 $224 $225 forward $57 $-1 #
coedge $-1 $154 $153 $90 $147 reversed $155 $-1 #
edge $-1 $226 -30.79304671130723 $227 30.79304671130723 $146 $228 forward 7 unknown #
coedge $-1 $92 $91 $229 $230 forward $36 $-1 #
coedge $-1 $231 $232 $91 $150 reversed $217 $-1 #
edge $-1 $157 -61.192052980132452 $233 61.192052980132452 $149 $234 forward 7 unknown #
coedge $-1 $143 $235 $92 $152 reversed $88 $-1 #
edge $-1 $236 -61.192052980132452 $156 61.192052980132452 $151 $237 forward 7 unknown #
coedge $-1 $146 $93 $235 $238 forward $155 $-1 #
coedge $-1 $93 $146 $231 $239 reversed $155 $-1 #
loop $-1 $-1 $153 $216 #
vertex $-1 $94 $240 #
vertex $-1 $94 $241 #
straight-curve $-1 61.192052980132452 0 13.469267879242933 0 1 0 I I #
face $-1 $242 $243 $22 $-1 $244 reversed single #
loop $-1 $-1 $245 $95 #
plane-surface $-1 -68.408114488796301 0 -12.969267879242935 0 0 1 1 0 0 forward_v I I I I #
coedge $-1 $246 $98 $247 $248 reversed $61 $-1 #
coedge $-1 $98 $246 $168 $249 reversed $61 $-1 #
edge $-1 $170 7.9336764191061571 $250 12.969267879242935 $98 $251 forward 7 unknown #
coedge $-1 $100 $99 $245 $252 forward $39 $-1 #
coedge $-1 $253 $254 $99 $167 forward $255 $-1 #
edge $-1 $256 -12.969267879242935 $171 -7.9336764191061571 $166 $257 forward 7 unknown #
coedge $-1 $258 $101 $163 $249 forward $96 $-1 #
coedge $-1 $101 $258 $253 $259 forward $96 $-1 #
vertex $-1 $164 $260 #
vertex $-1 $259 $261 #
straight-curve $-1 -61.192052980132452 0 -7.9336764191061571 0 -1 0 I I #
face $-1 $-1 $262 $23 $-1 $263 reversed single #
loop $-1 $-1 $109 $103 #
plane-surface $-1 0 0 13.469267879242933 0 0 1 1 0 0 forward_v I I I I #
coedge $-1 $264 $265 $266 $267 reversed $104 $-1 #
coedge $-1 $268 $106 $108 $183 forward $65 $-1 #
coedge $-1 $106 $268 $264 $269 forward $65 $-1 #
coedge $-1 $266 $109 $106 $180 forward $174 $-1 #
edge $-1 $186 -22.675600338211911 $270 1.2153690733087501 $179 $271 forward 7 unknown #
coedge $-1 $272 $273 $107 $182 forward $262 $-1 #
edge $-1 $274 -61.869583308833768 $185 -53.97762003788776 $181 $275 forward 7 unknown #
edge $-1 $186 50.614973547361501 $274 61.586093422614454 $108 $276 forward 7 unknown #
coedge $-1 $109 $266 $272 $277 forward $174 $-1 #
vertex $-1 $182 $278 #
vertex $-1 $110 $279 #
straight-curve $-1 -33.405715970663493 38.023755645621442 13.469267879242935 0 -1 0 I I #
coedge $-1 $188 $188 $-1 $280 reversed $113 $-1 #
edge $-1 $281 0 $281 6.2831853071796004 $114 $282 forward 7 unknown #
vertex $-1 $117 $283 #
ellipse-curve $-1 -21.460231264903165 26.982456630781328 9.5232862437699275 0 0.71933980857756763 0.69465836192734942 1 0 0 1 I I #
face $-1 $-1 $204 $25 $-1 $284 forward single #
loop $-1 $-1 $285 $118 #
plane-surface $-1 0 -30.79304671130723 0 0 1 0 0 0 1 forward_v I I I I #
coedge $-1 $286 $287 $288 $289 reversed $119 $-1 #
coedge $-1 $290 $121 $123 $202 forward $74 $-1 #
coedge $-1 $121 $290 $286 $291 forward $74 $-1 #
coedge $-1 $288 $124 $121 $199 forward $204 $-1 #
edge $-1 $206 -7.7824386982587512 $292 22.73449671853659 $198 $293 forward 7 unknown #
coedge $-1 $294 $295 $122 $201 forward $193 $-1 #
edge $-1 $296 -28.044000012753013 $205 -21.519204845547975 $200 $297 forward 7 unknown #
edge $-1 $206 -7.6120438824732313 $296 -2.0715698412831909e-014 $123 $298 forward 7 unknown #
coedge $-1 $124 $288 $294 $299 forward $204 $-1 #
loop $-1 $-1 $288 $192 #
vertex $-1 $201 $300 #
vertex $-1 $125 $301 #
straight-curve $-1 0.30640968811983171 -67.848350712486777 13.469267879242935 0 1 0 I I #
coedge $-1 $208 $208 $-1 $302 reversed $128 $-1 #
edge $-1 $303 0 $303 6.2831853071796004 $129 $304 forward 7 unknown #
vertex $-1 $132 $305 #
ellipse-curve $-1 -21.491401323876836 -28.832800547255662 10.20687029564041 0 -0.85716730853699208 0.51503806187062418 1.5 0 0 1 I I #
coedge $-1 $212 $212 $-1 $306 reversed $135 $-1 #
edge $-1 $307 0 $307 6.2831853071796004 $136 $308 forward 7 unknown #
vertex $-1 $139 $309 #
ellipse-curve $-1 -8.4127147166788276 -28.832800547255662 10.20687029564041 0 -0.85716730853699208 0.51503806187062418 1.5 0 0 1 I I #
face $-1 $-1 $155 $21 $-1 $310 reversed single #
loop $-1 $-1 $231 $140 #
plane-surface $-1 0 30.79304671130723 0 0 -1 0 0 0 -1 forward_v I I I I #
coedge $-1 $229 $311 $143 $221 reversed $141 $-1 #
coedge $-1 $235 $143 $144 $223 reversed $88 $-1 #
edge $-1 $236 -13.469267879242933 $312 13.469267879242933 $219 $313 forward 7 unknown #
coedge $-1 $145 $144 $311 $314 forward $57 $-1 #
edge $-1 $227 -61.192052980132452 $312 61.192052980132452 $220 $315 forward 7 unknown #
coedge $-1 $232 $231 $145 $225 reversed $217 $-1 #
edge $-1 $316 -61.192052980132452 $226 61.192052980132452 $224 $317 forward 7 unknown #
vertex $-1 $147 $318 #
vertex $-1 $238 $319 #
straight-curve $-1 61.192052980132452 0 -13.469267879242933 0 -1 0 I I #
coedge $-1 $320 $219 $148 $230 reversed $141 $-1 #
edge $-1 $233 -30.79304671130723 $236 30.79304671130723 $229 $321 forward 7 unknown #
coedge $-1 $224 $149 $154 $239 forward $217 $-1 #
coedge $-1 $149 $224 $320 $322 reversed $217 $-1 #
vertex $-1 $150 $323 #
straight-curve $-1 0 30.79304671130723 13.469267879242933 -1 0 0 I I #
coedge $-1 $151 $220 $153 $238 reversed $88 $-1 #
vertex $-1 $230 $324 #
straight-curve $-1 0 -30.79304671130723 13.469267879242933 1 0 0 I I #
edge $-1 $156 -13.469267879242933 $227 13.469267879242933 $153 $325 forward 7 unknown #
edge $-1 $157 -13.469267879242933 $226 13.469267879242933 $154 $326 forward 7 unknown #
point $-1 61.192052980132452 -30.79304671130723 13.469267879242933 #
point $-1 61.192052980132452 30.79304671130723 13.469267879242933 #
face $-1 $-1 $255 $22 $-1 $327 reversed single #
loop $-1 $-1 $328 $159 #
plane-surface $-1 -75.624175997460156 0 -10.451472149174545 1 0 0 0 0 -1 forward_v I I I I #
coedge $-1 $329 $247 $165 $252 reversed $160 $-1 #
coedge $-1 $163 $162 $328 $330 reversed $61 $-1 #
coedge $-1 $245 $331 $162 $248 forward $160 $-1 #
edge $-1 $332 -7.2160615086638558 $250 7.2160615086638487 $162 $333 forward 7 unknown #
edge $-1 $170 -7.2160615086638487 $334 7.2160615086638558 $163 $335 forward 7 unknown #
vertex $-1 $164 $336 #
straight-curve $-1 -61.192052980132452 30.79304671130723 0 0 0 -1 I I #
edge $-1 $256 -30.79304671130723 $250 30.79304671130723 $245 $337 forward 7 unknown #
coedge $-1 $338 $166 $169 $259 reversed $255 $-1 #
coedge $-1 $166 $338 $329 $339 reversed $255 $-1 #
loop $-1 $-1 $166 $242 #
vertex $-1 $167 $340 #
straight-curve $-1 -61.192052980132452 -30.79304671130723 0 0 0 1 I I #
coedge $-1 $169 $168 $341 $342 forward $96 $-1 #
edge $-1 $343 -7.2160615086638558 $171 7.2160615086638487 $253 $344 forward 7 unknown #
point $-1 -61.192052980132452 30.79304671130723 -7.9336764191061571 #
point $-1 -61.192052980132452 -30.79304671130723 -7.9336764191061571 #
loop $-1 $-1 $181 $173 #
plane-surface $-1 0 30.79304671130723 0 0 -1 0 0 0 -1 forward_v I I I I #
coedge $-1 $265 $176 $178 $269 reversed $104 $-1 #
coedge $-1 $176 $264 $345 $346 reversed $104 $-1 #
coedge $-1 $184 $179 $176 $267 forward $174 $-1 #
edge $-1 $270 -14.851889095366019 $347 -7.2307089343142117 $266 $348 forward 7 unknown #
coedge $-1 $178 $177 $273 $349 reversed $65 $-1 #
edge $-1 $350 -61.586093422614454 $270 -50.614973547361501 $264 $351 forward 7 unknown #
vertex $-1 $180 $352 #
straight-curve $-1 -10.730115632451582 23.171866550255423 13.469267879242935 1 0 0 I I #
coedge $-1 $345 $181 $184 $277 reversed $262 $-1 #
coedge $-1 $181 $345 $268 $349 forward $262 $-1 #
vertex $-1 $182 $353 #
straight-curve $-1 -33.405715970663493 30.79304671130723 67.446887917130695 0 0 1 I I #
straight-curve $-1 -33.405715970663493 -11.988248063150834 49.878633261960601 0 0.69465836192734942 -0.71933980857756763 I I #
edge $-1 $347 9.5147465591428322 $185 33.405715970663493 $272 $354 forward 7 unknown #
point $-1 -33.405715970663493 30.79304671130723 13.469267879242933 #
point $-1 -33.405715970663493 23.171866550255423 13.469267879242935 #
edge $-1 $355 1 $355 0 $188 $-1 forward 7 unknown #
vertex $-1 $189 $356 #
ellipse-curve $-1 -21.460231264903165 25.068819991055435 7.6753088655892725 0 0.71933980857756763 0.69465836192734942 1 0 0 1 I I #
point $-1 -20.460231264903165 26.982456630781314 9.5232862437699133 #
plane-surface $-1 0 0 13.469267879242933 0 0 1 1 0 0 forward_v I I I I #
coedge $-1 $295 $294 $287 $357 forward $193 $-1 #
coedge $-1 $287 $195 $197 $291 reversed $119 $-1 #
coedge $-1 $195 $286 $285 $357 reversed $119 $-1 #
coedge $-1 $203 $198 $195 $289 forward $204 $-1 #
edge $-1 $292 -40.975796329282687 $358 -37.05530400117955 $288 $359 forward 7 unknown #
coedge $-1 $197 $196 $295 $360 reversed $74 $-1 #
edge $-1 $361 2.0715698412831909e-014 $292 7.6120438824732313 $286 $362 forward 7 unknown #
vertex $-1 $199 $363 #
straight-curve $-1 -7.4760290101389195 -26.872554383204086 13.469267879242933 -1 0 0 I I #
coedge $-1 $285 $200 $203 $299 reversed $193 $-1 #
coedge $-1 $200 $285 $290 $360 forward $193 $-1 #
vertex $-1 $201 $364 #
straight-curve $-1 0.30640968811983171 -30.793046711307227 34.98847272479091 0 0 1 I I #
straight-curve $-1 0.30640968811983171 -30.793046711307241 6.9444727120378786 0 -0.51503806187062418 -0.85716730853699208 I I #
edge $-1 $358 -30.21052572867551 $205 0.30640968811983171 $294 $365 forward 7 unknown #
point $-1 0.30640968811983171 -30.79304671130723 13.469267879242933 #
point $-1 0.30640968811983171 -26.872554383204086 13.469267879242933 #
edge $-1 $366 1 $366 0 $208 $-1 forward 7 unknown #
vertex $-1 $209 $367 #
ellipse-curve $-1 -21.491401323876836 -26.463223559984989 8.7830848492960669 0 -0.85716730853699208 0.51503806187062418 1.5 0 0 1 I I #
point $-1 -19.991401323876836 -28.832800547255651 10.206870295640403 #
edge $-1 $368 1 $368 0 $212 $-1 forward 7 unknown #
vertex $-1 $213 $369 #
ellipse-curve $-1 -8.4127147166788276 -26.463223559984989 8.7830848492960669 0 -0.85716730853699208 0.51503806187062418 1.5 0 0 1 I I #
point $-1 -6.9127147166788276 -28.832800547255651 10.206870295640403 #
plane-surface $-1 61.192052980132452 0 0 -1 0 0 0 0 1 forward_v I I I I #
coedge $-1 $219 $320 $222 $314 reversed $141 $-1 #
vertex $-1 $314 $370 #
straight-curve $-1 -61.192052980132452 -30.79304671130723 0 0 0 -1 I I #
edge $-1 $312 -30.79304671130723 $316 30.79304671130723 $311 $371 forward 7 unknown #
straight-curve $-1 0 -30.79304671130723 -13.469267879242933 -1 0 0 I I #
vertex $-1 $225 $372 #
straight-curve $-1 0 30.79304671130723 -13.469267879242933 1 0 0 I I #
point $-1 61.192052980132452 30.79304671130723 -13.469267879242933 #
point $-1 61.192052980132452 -30.79304671130723 -13.469267879242933 #
coedge $-1 $311 $229 $232 $322 forward $141 $-1 #
straight-curve $-1 -61.192052980132452 0 13.469267879242933 0 -1 0 I I #
edge $-1 $233 -13.469267879242933 $316 13.469267879242933 $232 $373 forward 7 unknown #
point $-1 -61.192052980132452 30.79304671130723 13.469267879242933 #
point $-1 -61.192052980132452 -30.79304671130723 13.469267879242933 #
straight-curve $-1 61.192052980132452 -30.79304671130723 0 0 0 -1 I I #
straight-curve $-1 61.192052980132452 30.79304671130723 0 0 0 -1 I I #
plane-surface $-1 0 -30.79304671130723 0 0 1 0 0 0 1 forward_v I I I I #
coedge $-1 $374 $341 $246 $330 forward $243 $-1 #
coedge $-1 $331 $245 $254 $339 forward $160 $-1 #
edge $-1 $334 -2.5177957300683884 $332 2.5177957300683893 $246 $375 forward 7 unknown #
coedge $-1 $247 $329 $374 $376 forward $160 $-1 #
vertex $-1 $248 $377 #
straight-curve $-1 -68.408114488796301 30.79304671130723 -12.969267879242935 1 0 0 I I #
vertex $-1 $249 $378 #
straight-curve $-1 -68.408114488796301 30.79304671130723 -7.9336764191061571 -1 0 0 I I #
point $-1 -61.192052980132452 30.79304671130723 -12.969267879242935 #
straight-curve $-1 -61.192052980132452 0 -12.969267879242935 0 1 0 I I #
coedge $-1 $254 $253 $379 $380 forward $255 $-1 #
edge $-1 $256 -7.2160615086638487 $381 7.2160615086638558 $254 $382 forward 7 unknown #
point $-1 -61.192052980132452 -30.79304671130723 -12.969267879242935 #
coedge $-1 $328 $379 $258 $342 reversed $243 $-1 #
edge $-1 $334 -30.79304671130723 $343 30.79304671130723 $341 $383 forward 7 unknown #
vertex $-1 $342 $384 #
straight-curve $-1 -68.408114488796301 -30.79304671130723 -7.9336764191061571 1 0 0 I I #
coedge $-1 $273 $272 $265 $346 forward $262 $-1 #
edge $-1 $347 53.97762003788776 $350 61.869583308833768 $345 $385 forward 7 unknown #
vertex $-1 $277 $386 #
straight-curve $-1 -9.5147465591428322 38.023755645621442 13.469267879242935 0 1 0 I I #
edge $-1 $350 -1.2153690733087501 $274 22.675600338211911 $273 $387 forward 7 unknown #
vertex $-1 $349 $388 #
straight-curve $-1 -9.5147465591428322 -11.988248063150834 49.878633261960601 0 -0.69465836192734942 0.71933980857756763 I I #
point $-1 -9.5147465591428322 23.171866550255423 13.469267879242935 #
point $-1 -33.405715970663493 30.793046711307227 5.5773046082969273 #
straight-curve $-1 0 30.79304671130723 13.469267879242933 -1 0 0 I I #
vertex $-1 $280 $389 #
point $-1 -20.460231264903165 25.068819991055435 7.6753088655892725 #
edge $-1 $358 21.519204845547975 $361 28.044000012753013 $285 $390 forward 7 unknown #
vertex $-1 $299 $391 #
straight-curve $-1 -30.21052572867551 -67.848350712486777 13.469267879242935 0 -1 0 I I #
edge $-1 $361 -22.73449671853659 $296 7.7824386982587512 $295 $392 forward 7 unknown #
vertex $-1 $360 $393 #
straight-curve $-1 -30.21052572867551 -30.793046711307241 6.9444727120378786 0 0.51503806187062418 0.85716730853699208 I I #
point $-1 -30.21052572867551 -26.872554383204086 13.469267879242933 #
point $-1 0.30640968811983171 -30.79304671130723 6.9444727120378964 #
straight-curve $-1 0 -30.79304671130723 13.469267879242933 1 0 0 I I #
vertex $-1 $302 $394 #
point $-1 -19.991401323876836 -26.463223559984989 8.7830848492960669 #
vertex $-1 $306 $395 #
point $-1 -6.9127147166788276 -26.463223559984989 8.7830848492960669 #
point $-1 -61.192052980132452 -30.79304671130723 -13.469267879242933 #
straight-curve $-1 -61.192052980132452 0 -13.469267879242933 0 1 0 I I #
point $-1 -61.192052980132452 30.79304671130723 -13.469267879242933 #
straight-curve $-1 -61.192052980132452 30.79304671130723 0 0 0 -1 I I #
coedge $-1 $379 $328 $331 $376 reversed $243 $-1 #
straight-curve $-1 -75.624175997460156 30.79304671130723 -10.451472149174545 0 0 -1 I I #
edge $-1 $381 -30.79304671130723 $332 30.79304671130723 $374 $396 forward 7 unknown #
point $-1 -75.624175997460156 30.79304671130723 -12.969267879242935 #
point $-1 -75.624175997460156 30.79304671130723 -7.9336764191061571 #
coedge $-1 $341 $374 $338 $380 reversed $243 $-1 #
edge $-1 $343 -2.5177957300683884 $381 2.5177957300683893 $379 $397 forward 7 unknown #
vertex $-1 $376 $398 #
straight-curve $-1 -68.408114488796301 -30.79304671130723 -12.969267879242935 -1 0 0 I I #
straight-curve $-1 -75.624175997460156 0 -7.9336764191061571 0 -1 0 I I #
point $-1 -75.624175997460156 -30.79304671130723 -7.9336764191061571 #
straight-curve $-1 -9.5147465591428322 30.79304671130723 67.446887917130695 0 0 -1 I I #
point $-1 -9.5147465591428322 30.79304671130723 13.469267879242933 #
straight-curve $-1 -10.730115632451582 30.79304671130723 5.5773046082969273 -1 0 0 I I #
point $-1 -9.5147465591428322 30.793046711307227 5.5773046082969273 #
point $-1 -21.460231264903165 24.349480182477869 6.9806505036619235 #
straight-curve $-1 -30.21052572867551 -30.793046711307227 34.98847272479091 0 0 -1 I I #
point $-1 -30.21052572867551 -30.79304671130723 13.469267879242933 #
straight-curve $-1 -7.4760290101389195 -30.79304671130723 6.9444727120378911 1 0 0 I I #
point $-1 -30.21052572867551 -30.79304671130723 6.9444727120378964 #
point $-1 -21.491401323876836 -25.177472597179502 8.0105277564901307 #
point $-1 -8.4127147166788276 -25.177472597179502 8.0105277564901307 #
straight-curve $-1 -75.624175997460156 0 -12.969267879242935 0 1 0 I I #
straight-curve $-1 -75.624175997460156 -30.79304671130723 -10.451472149174545 0 0 -1 I I #
point $-1 -75.624175997460156 -30.79304671130723 -12.969267879242935 #
End-of-ACIS-data 