500 0 21 0           
7 Unknown 11 ACIS 5.0 NT 24 Fri Mar 26 01:04:32 1999 
-1 9.9999999999999995e-007 1e-010 
body $-1 $21 $-1 $22 #
body $-1 $23 $-1 $24 #
body $-1 $25 $-1 $26 #
body $-1 $27 $-1 $28 #
body $-1 $29 $-1 $30 #
body $-1 $31 $-1 $32 #
body $-1 $33 $-1 $34 #
body $-1 $35 $-1 $36 #
body $-1 $37 $-1 $38 #
body $-1 $39 $-1 $40 #
body $-1 $41 $-1 $42 #
body $-1 $43 $-1 $44 #
body $-1 $45 $-1 $46 #
body $-1 $47 $-1 $48 #
body $-1 $49 $-1 $50 #
body $-1 $51 $-1 $52 #
body $-1 $53 $-1 $54 #
body $-1 $55 $-1 $56 #
body $-1 $57 $-1 $58 #
body $-1 $59 $-1 $60 #
body $-1 $61 $-1 $62 #
lump $-1 $-1 $63 $0 #
transform $-1 1 0 0 0 1 0 0 0 1 57.603076265755178 37.495881047625517 18.329806580064403 1 rotate no_reflect no_shear #
lump $-1 $-1 $64 $1 #
transform $-1 1 0 0 0 1 0 0 0 1 57.603076265755178 37.495881047625517 18.329806580064403 1 rotate no_reflect no_shear #
lump $-1 $-1 $65 $2 #
transform $-1 1 0 0 0 1 0 0 0 1 57.603076265755178 37.495881047625517 18.329806580064403 1 rotate no_reflect no_shear #
lump $-1 $-1 $66 $3 #
transform $-1 1 0 0 0 1 0 0 0 1 57.603076265755178 37.495881047625517 18.329806580064403 1 rotate no_reflect no_shear #
lump $-1 $-1 $67 $4 #
transform $-1 1 0 0 0 1 0 0 0 1 57.603076265755178 37.495881047625517 18.329806580064403 1 rotate no_reflect no_shear #
lump $-1 $-1 $68 $5 #
transform $-1 1 0 0 0 1 0 0 0 1 57.603076265755178 37.495881047625517 18.329806580064403 1 rotate no_reflect no_shear #
lump $-1 $-1 $69 $6 #
transform $-1 1 0 0 0 1 0 0 0 1 57.603076265755178 37.495881047625517 18.329806580064403 1 rotate no_reflect no_shear #
lump $-1 $-1 $70 $7 #
transform $-1 1 0 0 0 1 0 0 0 1 57.603076265755178 37.495881047625517 18.329806580064403 1 rotate no_reflect no_shear #
lump $-1 $-1 $71 $8 #
transform $-1 1 0 0 0 1 0 0 0 1 57.603076265755178 37.495881047625517 18.329806580064403 1 rotate no_reflect no_shear #
lump $-1 $-1 $72 $9 #
transform $-1 1 0 0 0 1 0 0 0 1 57.603076265755178 37.495881047625517 18.329806580064403 1 rotate no_reflect no_shear #
lump $-1 $-1 $73 $10 #
transform $-1 1 0 0 0 1 0 0 0 1 57.603076265755178 37.495881047625517 18.329806580064403 1 rotate no_reflect no_shear #
lump $-1 $-1 $74 $11 #
transform $-1 1 0 0 0 1 0 0 0 1 57.603076265755178 37.495881047625517 18.329806580064403 1 rotate no_reflect no_shear #
lump $-1 $-1 $75 $12 #
transform $-1 1 0 0 0 1 0 0 0 1 57.603076265755178 37.495881047625517 18.329806580064403 1 rotate no_reflect no_shear #
lump $-1 $-1 $76 $13 #
transform $-1 1 0 0 0 1 0 0 0 1 57.603076265755178 37.495881047625517 18.329806580064403 1 rotate no_reflect no_shear #
lump $-1 $-1 $77 $14 #
transform $-1 1 0 0 0 1 0 0 0 1 57.603076265755178 37.495881047625517 18.329806580064403 1 rotate no_reflect no_shear #
lump $-1 $-1 $78 $15 #
transform $-1 1 0 0 0 1 0 0 0 1 57.603076265755178 37.495881047625517 18.329806580064403 1 rotate no_reflect no_shear #
lump $-1 $-1 $79 $16 #
transform $-1 1 0 0 0 1 0 0 0 1 57.603076265755178 37.495881047625517 18.329806580064403 1 rotate no_reflect no_shear #
lump $-1 $-1 $80 $17 #
transform $-1 1 0 0 0 1 0 0 0 1 57.603076265755178 37.495881047625517 18.329806580064403 1 rotate no_reflect no_shear #
lump $-1 $-1 $81 $18 #
transform $-1 1 0 0 0 1 0 0 0 1 57.603076265755178 37.495881047625517 18.329806580064403 1 rotate no_reflect no_shear #
lump $-1 $-1 $82 $19 #
transform $-1 1 0 0 0 1 0 0 0 1 57.603076265755178 37.495881047625517 18.329806580064403 1 rotate no_reflect no_shear #
lump $-1 $-1 $83 $20 #
transform $-1 1 0 0 0 1 0 0 0 1 57.603076265755178 37.495881047625517 18.329806580064403 1 rotate no_reflect no_shear #
shell $-1 $-1 $-1 $84 $-1 $21 #
shell $-1 $-1 $-1 $85 $-1 $23 #
shell $-1 $-1 $-1 $86 $-1 $25 #
shell $-1 $-1 $-1 $87 $-1 $27 #
shell $-1 $-1 $-1 $88 $-1 $29 #
shell $-1 $-1 $-1 $89 $-1 $31 #
shell $-1 $-1 $-1 $90 $-1 $33 #
shell $-1 $-1 $-1 $91 $-1 $35 #
shell $-1 $-1 $-1 $92 $-1 $37 #
shell $-1 $-1 $-1 $93 $-1 $39 #
shell $-1 $-1 $-1 $94 $-1 $41 #
shell $-1 $-1 $-1 $95 $-1 $43 #
shell $-1 $-1 $-1 $96 $-1 $45 #
shell $-1 $-1 $-1 $97 $-1 $47 #
shell $-1 $-1 $-1 $98 $-1 $49 #
shell $-1 $-1 $-1 $99 $-1 $51 #
shell $-1 $-1 $-1 $100 $-1 $53 #
shell $-1 $-1 $-1 $101 $-1 $55 #
shell $-1 $-1 $-1 $102 $-1 $57 #
shell $-1 $-1 $-1 $103 $-1 $59 #
shell $-1 $-1 $-1 $104 $-1 $61 #
face $-1 $105 $106 $63 $-1 $107 forward single #
face $-1 $108 $109 $64 $-1 $110 forward single #
face $-1 $111 $112 $65 $-1 $113 reversed single #
face $-1 $114 $115 $66 $-1 $116 forward single #
face $-1 $117 $118 $67 $-1 $119 forward single #
face $-1 $120 $121 $68 $-1 $122 forward single #
face $-1 $123 $124 $69 $-1 $125 reversed single #
face $-1 $126 $127 $70 $-1 $128 forward single #
face $-1 $129 $130 $71 $-1 $131 forward single #
face $-1 $132 $133 $72 $-1 $134 forward single #
face $-1 $135 $136 $73 $-1 $137 reversed single #
face $-1 $138 $139 $74 $-1 $140 forward single #
face $-1 $141 $142 $75 $-1 $143 forward single #
face $-1 $144 $145 $76 $-1 $146 forward single #
face $-1 $147 $148 $77 $-1 $149 reversed single #
face $-1 $150 $151 $78 $-1 $152 forward single #
face $-1 $153 $154 $79 $-1 $155 forward single #
face $-1 $156 $157 $80 $-1 $158 forward single #
face $-1 $159 $160 $81 $-1 $161 reversed single #
face $-1 $162 $163 $82 $-1 $164 forward single #
face $-1 $165 $166 $83 $-1 $167 forward single #
face $-1 $168 $169 $63 $-1 $170 reversed single #
loop $-1 $-1 $171 $84 #
plane-surface $-1 0 0 18.329806580064403 0 0 1 1 0 0 forward_v I I I I #
face $-1 $172 $173 $64 $-1 $174 reversed single #
loop $-1 $-1 $175 $85 #
plane-surface $-1 -48.840783174758712 0 8.2200200892990587 0 0 1 1 0 0 forward_v I I I I #
face $-1 $176 $177 $65 $-1 $178 reversed single #
loop $-1 $-1 $179 $86 #
plane-surface $-1 -31.613444953999647 79.83403389489888 135.96856695235286 1 0 0 0 -0.77714596973225614 -0.62932038083071107 forward_v I I I I #
face $-1 $180 $181 $66 $-1 $182 forward single #
loop $-1 $183 $184 $87 #
cone-surface $-1 -28.422375662476295 31.51573929931638 11.225054769259135 0 -0.77714596973225614 -0.62932038083071107 1.5 0 0 1 I I 0 1 1.5 forward I I I I #
face $-1 $185 $186 $67 $-1 $187 forward single #
loop $-1 $188 $189 $88 #
cone-surface $-1 -23.635771725191269 31.51573929931638 11.225054769259135 0 -0.77714596973225614 -0.62932038083071107 1.5 0 0 1 I I 0 1 1.5 forward I I I I #
face $-1 $190 $191 $68 $-1 $192 forward single #
loop $-1 $193 $194 $89 #
cone-surface $-1 -18.849167787906239 31.51573929931638 11.225054769259135 0 -0.77714596973225614 -0.62932038083071107 1.5 0 0 1 I I 0 1 1.5 forward I I I I #
face $-1 $195 $196 $69 $-1 $197 reversed single #
loop $-1 $-1 $198 $90 #
plane-surface $-1 -10.01473507654115 79.83403389489888 135.96856695235286 1 0 0 0 -0.77714596973225614 -0.62932038083071107 forward_v I I I I #
face $-1 $199 $200 $70 $-1 $201 forward single #
loop $-1 $202 $203 $91 #
cone-surface $-1 -6.823665785017802 31.51573929931638 11.225054769259135 0 -0.77714596973225614 -0.62932038083071107 1.5 0 0 1 I I 0 1 1.5 forward I I I I #
face $-1 $204 $205 $71 $-1 $206 forward single #
loop $-1 $207 $208 $92 #
cone-surface $-1 -2.0370618477327724 31.51573929931638 11.225054769259135 0 -0.77714596973225614 -0.62932038083071107 1.5 0 0 1 I I 0 1 1.5 forward I I I I #
face $-1 $209 $210 $72 $-1 $211 forward single #
loop $-1 $212 $213 $93 #
cone-surface $-1 2.74954208955225 31.51573929931638 11.225054769259135 0 -0.77714596973225614 -0.62932038083071107 1.5 0 0 1 I I 0 1 1.5 forward I I I I #
face $-1 $214 $215 $73 $-1 $216 reversed single #
loop $-1 $-1 $217 $94 #
plane-surface $-1 11.583974800917339 79.83403389489888 135.96856695235286 1 0 0 0 -0.77714596973225614 -0.62932038083071107 forward_v I I I I #
face $-1 $218 $219 $74 $-1 $220 forward single #
loop $-1 $221 $222 $95 #
cone-surface $-1 14.775044092440694 31.51573929931638 11.225054769259135 0 -0.77714596973225614 -0.62932038083071107 1.5 0 0 1 I I 0 1 1.5 forward I I I I #
face $-1 $223 $224 $75 $-1 $225 forward single #
loop $-1 $226 $227 $96 #
cone-surface $-1 19.561648029725717 31.51573929931638 11.225054769259135 0 -0.77714596973225614 -0.62932038083071107 1.5 0 0 1 I I 0 1 1.5 forward I I I I #
face $-1 $228 $229 $76 $-1 $230 forward single #
loop $-1 $231 $232 $97 #
cone-surface $-1 24.348251967010739 31.51573929931638 11.225054769259135 0 -0.77714596973225614 -0.62932038083071107 1.5 0 0 1 I I 0 1 1.5 forward I I I I #
face $-1 $233 $234 $77 $-1 $235 reversed single #
loop $-1 $-1 $236 $98 #
plane-surface $-1 33.182684678375828 79.83403389489888 135.96856695235286 1 0 0 0 -0.77714596973225614 -0.62932038083071107 forward_v I I I I #
face $-1 $237 $238 $78 $-1 $239 forward single #
loop $-1 $240 $241 $99 #
cone-surface $-1 36.373753969899184 31.51573929931638 11.225054769259135 0 -0.77714596973225614 -0.62932038083071107 1.5 0 0 1 I I 0 1 1.5 forward I I I I #
face $-1 $242 $243 $79 $-1 $244 forward single #
loop $-1 $245 $246 $100 #
cone-surface $-1 41.160357907184206 31.51573929931638 11.225054769259135 0 -0.77714596973225614 -0.62932038083071107 1.5 0 0 1 I I 0 1 1.5 forward I I I I #
face $-1 $247 $248 $80 $-1 $249 forward single #
loop $-1 $250 $251 $101 #
cone-surface $-1 45.946961844469229 31.51573929931638 11.225054769259135 0 -0.77714596973225614 -0.62932038083071107 1.5 0 0 1 I I 0 1 1.5 forward I I I I #
face $-1 $252 $253 $81 $-1 $254 reversed single #
loop $-1 $-1 $255 $102 #
plane-surface $-1 -0.11775188861925656 -127.02787817584837 82.859152583292556 -1 0 0 0 -0.77714596973225614 0.62932038083071107 forward_v I I I I #
face $-1 $256 $257 $82 $-1 $258 forward single #
loop $-1 $259 $260 $103 #
cone-surface $-1 -16.482903198936178 -32.018421658544874 12.522027382460889 0 0.77714596973225614 -0.62932038083071107 2 0 0 1 I I 0 1 2 forward I I I I #
face $-1 $261 $262 $83 $-1 $263 forward single #
loop $-1 $264 $265 $104 #
cone-surface $-1 -6.6638124127460259 -32.018421658544874 12.522027382460889 0 0.77714596973225614 -0.62932038083071107 2 0 0 1 I I 0 1 2 forward I I I I #
face $-1 $266 $267 $63 $-1 $268 reversed single #
loop $-1 $-1 $269 $105 #
plane-surface $-1 0 0 -18.329806580064403 0 0 1 1 0 0 forward_v I I I I #
coedge $-1 $270 $271 $272 $273 forward $106 $-1 #
face $-1 $274 $275 $64 $-1 $276 reversed single #
loop $-1 $-1 $277 $108 #
plane-surface $-1 -48.840783174758712 0 2.2276328079804806 0 0 1 1 0 0 forward_v I I I I #
coedge $-1 $278 $279 $280 $281 forward $109 $-1 #
face $-1 $282 $283 $65 $-1 $284 reversed single #
loop $-1 $-1 $285 $111 #
plane-surface $-1 -23.635771725191269 -9.6979632333239465 63.46698716718177 0 0.77714596973225614 0.62932038083071107 1 0 0 forward_v I I I I #
coedge $-1 $286 $287 $288 $289 reversed $112 $-1 #
face $-1 $-1 $290 $66 $-1 $291 forward single #
loop $-1 $292 $293 $114 #
cone-surface $-1 -28.422375662476295 30.273976634111165 10.219495216994407 0 -0.77714596973225614 -0.62932038083071107 0.75 0 0 1 I I -0.70710678118654757 0.70710678118654757 0.75 forward I I I I #
loop $-1 $-1 $294 $87 #
coedge $-1 $184 $184 $295 $296 reversed $115 $-1 #
face $-1 $-1 $297 $67 $-1 $298 forward single #
loop $-1 $299 $300 $117 #
cone-surface $-1 -23.635771725191269 30.273976634111165 10.219495216994407 0 -0.77714596973225614 -0.62932038083071107 0.75 0 0 1 I I -0.70710678118654757 0.70710678118654757 0.75 forward I I I I #
loop $-1 $-1 $301 $88 #
coedge $-1 $189 $189 $302 $303 reversed $118 $-1 #
face $-1 $-1 $304 $68 $-1 $305 forward single #
loop $-1 $306 $307 $120 #
cone-surface $-1 -18.849167787906239 30.273976634111165 10.219495216994407 0 -0.77714596973225614 -0.62932038083071107 0.75 0 0 1 I I -0.70710678118654757 0.70710678118654757 0.75 forward I I I I #
loop $-1 $-1 $308 $89 #
coedge $-1 $194 $194 $309 $310 reversed $121 $-1 #
face $-1 $311 $312 $69 $-1 $313 reversed single #
loop $-1 $-1 $314 $123 #
plane-surface $-1 -2.0370618477327724 -9.6979632333239465 63.46698716718177 0 0.77714596973225614 0.62932038083071107 1 0 0 forward_v I I I I #
coedge $-1 $315 $316 $317 $318 reversed $124 $-1 #
face $-1 $-1 $319 $70 $-1 $320 forward single #
loop $-1 $321 $322 $126 #
cone-surface $-1 -6.823665785017802 30.273976634111165 10.219495216994407 0 -0.77714596973225614 -0.62932038083071107 0.75 0 0 1 I I -0.70710678118654757 0.70710678118654757 0.75 forward I I I I #
loop $-1 $-1 $323 $91 #
coedge $-1 $203 $203 $324 $325 reversed $127 $-1 #
face $-1 $-1 $326 $71 $-1 $327 forward single #
loop $-1 $328 $329 $129 #
cone-surface $-1 -2.0370618477327724 30.273976634111165 10.219495216994407 0 -0.77714596973225614 -0.62932038083071107 0.75 0 0 1 I I -0.70710678118654757 0.70710678118654757 0.75 forward I I I I #
loop $-1 $-1 $330 $92 #
coedge $-1 $208 $208 $331 $332 reversed $130 $-1 #
face $-1 $-1 $333 $72 $-1 $334 forward single #
loop $-1 $335 $336 $132 #
cone-surface $-1 2.74954208955225 30.273976634111165 10.219495216994407 0 -0.77714596973225614 -0.62932038083071107 0.75 0 0 1 I I -0.70710678118654757 0.70710678118654757 0.75 forward I I I I #
loop $-1 $-1 $337 $93 #
coedge $-1 $213 $213 $338 $339 reversed $133 $-1 #
face $-1 $340 $341 $73 $-1 $342 reversed single #
loop $-1 $-1 $343 $135 #
plane-surface $-1 19.561648029725717 -9.6979632333239465 63.46698716718177 0 0.77714596973225614 0.62932038083071107 1 0 0 forward_v I I I I #
coedge $-1 $344 $345 $346 $347 reversed $136 $-1 #
face $-1 $-1 $348 $74 $-1 $349 forward single #
loop $-1 $350 $351 $138 #
cone-surface $-1 14.775044092440694 30.273976634111165 10.219495216994407 0 -0.77714596973225614 -0.62932038083071107 0.75 0 0 1 I I -0.70710678118654757 0.70710678118654757 0.75 forward I I I I #
loop $-1 $-1 $352 $95 #
coedge $-1 $222 $222 $353 $354 reversed $139 $-1 #
face $-1 $-1 $355 $75 $-1 $356 forward single #
loop $-1 $357 $358 $141 #
cone-surface $-1 19.561648029725717 30.273976634111165 10.219495216994407 0 -0.77714596973225614 -0.62932038083071107 0.75 0 0 1 I I -0.70710678118654757 0.70710678118654757 0.75 forward I I I I #
loop $-1 $-1 $359 $96 #
coedge $-1 $227 $227 $360 $361 reversed $142 $-1 #
face $-1 $-1 $362 $76 $-1 $363 forward single #
loop $-1 $364 $365 $144 #
cone-surface $-1 24.348251967010739 30.273976634111165 10.219495216994407 0 -0.77714596973225614 -0.62932038083071107 0.75 0 0 1 I I -0.70710678118654757 0.70710678118654757 0.75 forward I I I I #
loop $-1 $-1 $366 $97 #
coedge $-1 $232 $232 $367 $368 reversed $145 $-1 #
face $-1 $369 $370 $77 $-1 $371 reversed single #
loop $-1 $-1 $372 $147 #
plane-surface $-1 41.160357907184206 -9.6979632333239465 63.46698716718177 0 0.77714596973225614 0.62932038083071107 1 0 0 forward_v I I I I #
coedge $-1 $373 $374 $375 $376 reversed $148 $-1 #
face $-1 $-1 $377 $78 $-1 $378 forward single #
loop $-1 $379 $380 $150 #
cone-surface $-1 36.373753969899184 30.273976634111165 10.219495216994407 0 -0.77714596973225614 -0.62932038083071107 0.75 0 0 1 I I -0.70710678118654757 0.70710678118654757 0.75 forward I I I I #
loop $-1 $-1 $381 $99 #
coedge $-1 $241 $241 $382 $383 reversed $151 $-1 #
face $-1 $-1 $384 $79 $-1 $385 forward single #
loop $-1 $386 $387 $153 #
cone-surface $-1 41.160357907184206 30.273976634111165 10.219495216994407 0 -0.77714596973225614 -0.62932038083071107 0.75 0 0 1 I I -0.70710678118654757 0.70710678118654757 0.75 forward I I I I #
loop $-1 $-1 $388 $100 #
coedge $-1 $246 $246 $389 $390 reversed $154 $-1 #
face $-1 $-1 $391 $80 $-1 $392 forward single #
loop $-1 $393 $394 $156 #
cone-surface $-1 45.946961844469229 30.273976634111165 10.219495216994407 0 -0.77714596973225614 -0.62932038083071107 0.75 0 0 1 I I -0.70710678118654757 0.70710678118654757 0.75 forward I I I I #
loop $-1 $-1 $395 $101 #
coedge $-1 $251 $251 $396 $397 reversed $157 $-1 #
face $-1 $398 $399 $81 $-1 $400 reversed single #
loop $-1 $-1 $401 $159 #
plane-surface $-1 -11.573357805841098 -37.495881047625531 10.357572798121467 0 -0.77714596973225614 0.62932038083071107 1 0 0 forward_v I I I I #
coedge $-1 $402 $403 $404 $405 reversed $160 $-1 #
face $-1 $-1 $406 $82 $-1 $407 forward single #
loop $-1 $408 $409 $162 #
cone-surface $-1 -16.482903198936178 -28.991710025702332 10.071044694998136 0 0.77714596973225614 -0.62932038083071107 1 0 0 1 I I -0.70710678118654746 0.70710678118654746 1 forward I I I I #
loop $-1 $-1 $410 $103 #
coedge $-1 $260 $260 $411 $412 reversed $163 $-1 #
face $-1 $-1 $413 $83 $-1 $414 forward single #
loop $-1 $415 $416 $165 #
cone-surface $-1 -6.6638124127460259 -28.991710025702332 10.071044694998136 0 0.77714596973225614 -0.62932038083071107 1 0 0 1 I I -0.70710678118654746 0.70710678118654746 1 forward I I I I #
loop $-1 $-1 $417 $104 #
coedge $-1 $265 $265 $418 $419 reversed $166 $-1 #
face $-1 $420 $421 $63 $-1 $422 reversed single #
loop $-1 $-1 $423 $168 #
plane-surface $-1 0 -37.495881047625517 0 0 1 0 0 0 1 forward_v I I I I #
coedge $-1 $424 $425 $426 $427 forward $169 $-1 #
coedge $-1 $428 $171 $429 $430 forward $106 $-1 #
coedge $-1 $171 $428 $431 $432 forward $106 $-1 #
coedge $-1 $433 $434 $171 $273 reversed $435 $-1 #
edge $-1 $436 -37.495881047625517 $437 37.495881047625517 $272 $438 forward 7 unknown #
face $-1 $439 $440 $64 $-1 $441 reversed single #
loop $-1 $-1 $442 $172 #
plane-surface $-1 -40.078490083762247 0 5.2238264486397696 -1 0 0 0 0 1 forward_v I I I I #
coedge $-1 $443 $444 $445 $446 forward $173 $-1 #
coedge $-1 $447 $175 $448 $449 reversed $109 $-1 #
coedge $-1 $175 $447 $450 $451 reversed $109 $-1 #
coedge $-1 $442 $452 $175 $281 reversed $275 $-1 #
edge $-1 $453 -37.495881047625517 $454 37.495881047625517 $280 $455 forward 7 unknown #
face $-1 $456 $457 $65 $-1 $458 forward single #
loop $-1 $-1 $459 $176 #
plane-surface $-1 -15.658098496382891 79.83403389489888 135.96856695235286 -1 0 0 0 0.77714596973225614 0.62932038083071107 forward_v I I I I #
coedge $-1 $460 $461 $462 $463 reversed $177 $-1 #
coedge $-1 $287 $179 $464 $465 reversed $112 $-1 #
coedge $-1 $179 $286 $460 $466 reversed $112 $-1 #
coedge $-1 $462 $467 $179 $289 forward $457 $-1 #
edge $-1 $468 2.4211358998239234 $469 13.063613020630122 $288 $470 forward 7 unknown #
loop $-1 $-1 $295 $180 #
plane-surface $-1 -23.635771725191269 -9.6979632333239465 63.46698716718177 0 0.77714596973225614 0.62932038083071107 1 0 0 forward_v I I I I #
loop $-1 $-1 $471 $114 #
coedge $-1 $293 $293 $294 $472 reversed $181 $-1 #
coedge $-1 $294 $294 $293 $472 forward $183 $-1 #
coedge $-1 $295 $295 $184 $296 forward $290 $-1 #
edge $-1 $473 7.0024265568967864e-016 $473 6.2831853071796013 $295 $474 forward 7 unknown #
loop $-1 $-1 $302 $185 #
plane-surface $-1 -23.635771725191269 -9.6979632333239465 63.46698716718177 0 0.77714596973225614 0.62932038083071107 1 0 0 forward_v I I I I #
loop $-1 $-1 $475 $117 #
coedge $-1 $300 $300 $301 $476 reversed $186 $-1 #
coedge $-1 $301 $301 $300 $476 forward $188 $-1 #
coedge $-1 $302 $302 $189 $303 forward $297 $-1 #
edge $-1 $477 7.0024265568967864e-016 $477 6.2831853071796013 $302 $478 forward 7 unknown #
loop $-1 $-1 $309 $190 #
plane-surface $-1 -23.635771725191269 -9.6979632333239465 63.46698716718177 0 0.77714596973225614 0.62932038083071107 1 0 0 forward_v I I I I #
loop $-1 $-1 $479 $120 #
coedge $-1 $307 $307 $308 $480 reversed $191 $-1 #
coedge $-1 $308 $308 $307 $480 forward $193 $-1 #
coedge $-1 $309 $309 $194 $310 forward $304 $-1 #
edge $-1 $481 7.0024265568967864e-016 $481 6.2831853071796013 $309 $482 forward 7 unknown #
face $-1 $483 $484 $69 $-1 $485 forward single #
loop $-1 $-1 $486 $195 #
plane-surface $-1 5.9406113810756054 79.83403389489888 135.96856695235286 -1 0 0 0 0.77714596973225614 0.62932038083071107 forward_v I I I I #
coedge $-1 $487 $488 $489 $490 reversed $196 $-1 #
coedge $-1 $316 $198 $491 $492 reversed $124 $-1 #
coedge $-1 $198 $315 $487 $493 reversed $124 $-1 #
coedge $-1 $489 $494 $198 $318 forward $484 $-1 #
edge $-1 $495 2.4211358998239234 $496 13.063613020630122 $317 $497 forward 7 unknown #
loop $-1 $-1 $324 $199 #
plane-surface $-1 -2.0370618477327724 -9.6979632333239465 63.46698716718177 0 0.77714596973225614 0.62932038083071107 1 0 0 forward_v I I I I #
loop $-1 $-1 $498 $126 #
coedge $-1 $322 $322 $323 $499 reversed $200 $-1 #
coedge $-1 $323 $323 $322 $499 forward $202 $-1 #
coedge $-1 $324 $324 $203 $325 forward $319 $-1 #
edge $-1 $500 7.0024265568967864e-016 $500 6.2831853071796013 $324 $501 forward 7 unknown #
loop $-1 $-1 $331 $204 #
plane-surface $-1 -2.0370618477327724 -9.6979632333239465 63.46698716718177 0 0.77714596973225614 0.62932038083071107 1 0 0 forward_v I I I I #
loop $-1 $-1 $502 $129 #
coedge $-1 $329 $329 $330 $503 reversed $205 $-1 #
coedge $-1 $330 $330 $329 $503 forward $207 $-1 #
coedge $-1 $331 $331 $208 $332 forward $326 $-1 #
edge $-1 $504 7.0024265568967864e-016 $504 6.2831853071796013 $331 $505 forward 7 unknown #
loop $-1 $-1 $338 $209 #
plane-surface $-1 -2.0370618477327724 -9.6979632333239465 63.46698716718177 0 0.77714596973225614 0.62932038083071107 1 0 0 forward_v I I I I #
loop $-1 $-1 $506 $132 #
coedge $-1 $336 $336 $337 $507 reversed $210 $-1 #
coedge $-1 $337 $337 $336 $507 forward $212 $-1 #
coedge $-1 $338 $338 $213 $339 forward $333 $-1 #
edge $-1 $508 7.0024265568967864e-016 $508 6.2831853071796013 $338 $509 forward 7 unknown #
face $-1 $510 $511 $73 $-1 $512 forward single #
loop $-1 $-1 $513 $214 #
plane-surface $-1 27.539321258534095 79.83403389489888 135.96856695235286 -1 0 0 0 0.77714596973225614 0.62932038083071107 forward_v I I I I #
coedge $-1 $514 $515 $516 $517 reversed $215 $-1 #
coedge $-1 $345 $217 $518 $519 reversed $136 $-1 #
coedge $-1 $217 $344 $514 $520 reversed $136 $-1 #
coedge $-1 $516 $521 $217 $347 forward $511 $-1 #
edge $-1 $522 2.4211358998239234 $523 13.063613020630122 $346 $524 forward 7 unknown #
loop $-1 $-1 $353 $218 #
plane-surface $-1 19.561648029725717 -9.6979632333239465 63.46698716718177 0 0.77714596973225614 0.62932038083071107 1 0 0 forward_v I I I I #
loop $-1 $-1 $525 $138 #
coedge $-1 $351 $351 $352 $526 reversed $219 $-1 #
coedge $-1 $352 $352 $351 $526 forward $221 $-1 #
coedge $-1 $353 $353 $222 $354 forward $348 $-1 #
edge $-1 $527 7.0024265568967864e-016 $527 6.2831853071796013 $353 $528 forward 7 unknown #
loop $-1 $-1 $360 $223 #
plane-surface $-1 19.561648029725717 -9.6979632333239465 63.46698716718177 0 0.77714596973225614 0.62932038083071107 1 0 0 forward_v I I I I #
loop $-1 $-1 $529 $141 #
coedge $-1 $358 $358 $359 $530 reversed $224 $-1 #
coedge $-1 $359 $359 $358 $530 forward $226 $-1 #
coedge $-1 $360 $360 $227 $361 forward $355 $-1 #
edge $-1 $531 7.0024265568967864e-016 $531 6.2831853071796013 $360 $532 forward 7 unknown #
loop $-1 $-1 $367 $228 #
plane-surface $-1 19.561648029725717 -9.6979632333239465 63.46698716718177 0 0.77714596973225614 0.62932038083071107 1 0 0 forward_v I I I I #
loop $-1 $-1 $533 $144 #
coedge $-1 $365 $365 $366 $534 reversed $229 $-1 #
coedge $-1 $366 $366 $365 $534 forward $231 $-1 #
coedge $-1 $367 $367 $232 $368 forward $362 $-1 #
edge $-1 $535 7.0024265568967864e-016 $535 6.2831853071796013 $367 $536 forward 7 unknown #
face $-1 $537 $538 $77 $-1 $539 forward single #
loop $-1 $-1 $540 $233 #
plane-surface $-1 49.138031135992584 79.83403389489888 135.96856695235286 -1 0 0 0 0.77714596973225614 0.62932038083071107 forward_v I I I I #
coedge $-1 $541 $542 $543 $544 reversed $234 $-1 #
coedge $-1 $374 $236 $545 $546 reversed $148 $-1 #
coedge $-1 $236 $373 $541 $547 reversed $148 $-1 #
coedge $-1 $543 $548 $236 $376 forward $538 $-1 #
edge $-1 $549 2.4211358998239234 $550 13.063613020630122 $375 $551 forward 7 unknown #
loop $-1 $-1 $382 $237 #
plane-surface $-1 41.160357907184206 -9.6979632333239465 63.46698716718177 0 0.77714596973225614 0.62932038083071107 1 0 0 forward_v I I I I #
loop $-1 $-1 $552 $150 #
coedge $-1 $380 $380 $381 $553 reversed $238 $-1 #
coedge $-1 $381 $381 $380 $553 forward $240 $-1 #
coedge $-1 $382 $382 $241 $383 forward $377 $-1 #
edge $-1 $554 7.0024265568967864e-016 $554 6.2831853071796013 $382 $555 forward 7 unknown #
loop $-1 $-1 $389 $242 #
plane-surface $-1 41.160357907184206 -9.6979632333239465 63.46698716718177 0 0.77714596973225614 0.62932038083071107 1 0 0 forward_v I I I I #
loop $-1 $-1 $556 $153 #
coedge $-1 $387 $387 $388 $557 reversed $243 $-1 #
coedge $-1 $388 $388 $387 $557 forward $245 $-1 #
coedge $-1 $389 $389 $246 $390 forward $384 $-1 #
edge $-1 $558 7.0024265568967864e-016 $558 6.2831853071796013 $389 $559 forward 7 unknown #
loop $-1 $-1 $396 $247 #
plane-surface $-1 41.160357907184206 -9.6979632333239465 63.46698716718177 0 0.77714596973225614 0.62932038083071107 1 0 0 forward_v I I I I #
loop $-1 $-1 $560 $156 #
coedge $-1 $394 $394 $395 $561 reversed $248 $-1 #
coedge $-1 $395 $395 $394 $561 forward $250 $-1 #
coedge $-1 $396 $396 $251 $397 forward $391 $-1 #
edge $-1 $562 7.0024265568967864e-016 $562 6.2831853071796013 $396 $563 forward 7 unknown #
face $-1 $564 $565 $81 $-1 $566 reversed single #
loop $-1 $-1 $567 $252 #
plane-surface $-1 -23.02896372306294 -127.02787817584837 82.859152583292556 1 0 0 0 0.77714596973225614 -0.62932038083071107 forward_v I I I I #
coedge $-1 $568 $569 $570 $571 reversed $253 $-1 #
coedge $-1 $403 $255 $572 $573 reversed $160 $-1 #
coedge $-1 $255 $402 $568 $574 reversed $160 $-1 #
coedge $-1 $570 $575 $255 $405 forward $576 $-1 #
edge $-1 $577 26.018058040298669 $578 32.473845492239363 $404 $579 forward 7 unknown #
loop $-1 $-1 $411 $256 #
plane-surface $-1 -11.573357805841098 -37.495881047625531 10.357572798121467 0 -0.77714596973225614 0.62932038083071107 1 0 0 forward_v I I I I #
loop $-1 $-1 $580 $162 #
coedge $-1 $409 $409 $410 $581 reversed $257 $-1 #
coedge $-1 $410 $410 $409 $581 forward $259 $-1 #
coedge $-1 $411 $411 $260 $412 forward $406 $-1 #
edge $-1 $582 -3.601197042614006e-016 $582 6.2831853071796004 $411 $583 forward 7 unknown #
loop $-1 $-1 $418 $261 #
plane-surface $-1 -11.573357805841098 -37.495881047625531 10.357572798121467 0 -0.77714596973225614 0.62932038083071107 1 0 0 forward_v I I I I #
loop $-1 $-1 $584 $165 #
coedge $-1 $416 $416 $417 $585 reversed $262 $-1 #
coedge $-1 $417 $417 $416 $585 forward $264 $-1 #
coedge $-1 $418 $418 $265 $419 forward $413 $-1 #
edge $-1 $586 -3.601197042614006e-016 $586 6.2831853071796004 $418 $587 forward 7 unknown #
face $-1 $588 $589 $63 $-1 $590 reversed single #
loop $-1 $-1 $591 $266 #
plane-surface $-1 -57.603076265755178 0 0 1 0 0 0 0 -1 forward_v I I I I #
coedge $-1 $592 $431 $593 $594 forward $267 $-1 #
coedge $-1 $595 $269 $592 $596 forward $169 $-1 #
coedge $-1 $269 $595 $597 $598 forward $169 $-1 #
coedge $-1 $434 $433 $269 $427 reversed $435 $-1 #
edge $-1 $599 -37.495881047625517 $600 37.495881047625517 $426 $601 forward 7 unknown #
coedge $-1 $271 $270 $602 $603 forward $106 $-1 #
coedge $-1 $604 $605 $270 $430 reversed $589 $-1 #
edge $-1 $437 -57.603076265755178 $606 57.603076265755178 $429 $607 forward 7 unknown #
coedge $-1 $423 $608 $271 $432 reversed $267 $-1 #
edge $-1 $609 -57.603076265755178 $436 57.603076265755178 $431 $610 forward 7 unknown #
coedge $-1 $426 $272 $608 $611 forward $435 $-1 #
coedge $-1 $272 $426 $604 $612 reversed $435 $-1 #
loop $-1 $-1 $433 $588 #
vertex $-1 $273 $613 #
vertex $-1 $273 $614 #
straight-curve $-1 57.603076265755178 0 18.329806580064403 0 1 0 I I #
face $-1 $615 $616 $64 $-1 $617 reversed single #
loop $-1 $-1 $618 $274 #
plane-surface $-1 0 -37.495881047625517 0 0 1 0 0 0 1 forward_v I I I I #
coedge $-1 $445 $280 $619 $620 reversed $275 $-1 #
coedge $-1 $621 $277 $618 $622 reversed $173 $-1 #
coedge $-1 $277 $621 $623 $624 reversed $173 $-1 #
coedge $-1 $452 $442 $277 $446 reversed $275 $-1 #
edge $-1 $625 -37.495881047625517 $626 37.495881047625517 $445 $627 forward 7 unknown #
coedge $-1 $279 $278 $628 $629 reversed $109 $-1 #
coedge $-1 $630 $631 $278 $449 forward $632 $-1 #
edge $-1 $633 -33.182684678375821 $454 -15.658098496382891 $448 $634 forward 7 unknown #
coedge $-1 $635 $619 $279 $451 forward $440 $-1 #
edge $-1 $453 15.658098496382891 $636 33.182684678375821 $450 $637 forward 7 unknown #
coedge $-1 $280 $445 $630 $638 reversed $275 $-1 #
vertex $-1 $451 $639 #
vertex $-1 $449 $640 #
straight-curve $-1 -40.078490083762247 0 8.2200200892990587 0 1 0 I I #
face $-1 $-1 $641 $65 $-1 $642 reversed single #
loop $-1 $-1 $288 $282 #
plane-surface $-1 0 0 18.329806580064403 0 0 1 1 0 0 forward_v I I I I #
coedge $-1 $643 $644 $645 $646 reversed $283 $-1 #
coedge $-1 $647 $285 $287 $466 forward $177 $-1 #
coedge $-1 $285 $647 $643 $648 forward $177 $-1 #
coedge $-1 $645 $288 $285 $463 forward $457 $-1 #
edge $-1 $469 -19.795559091404012 $649 -3.8402126337872566 $462 $650 forward 7 unknown #
coedge $-1 $651 $652 $286 $465 forward $641 $-1 #
edge $-1 $653 -62.796841984439169 $468 -49.65447689611203 $464 $654 forward 7 unknown #
edge $-1 $469 58.080698279459796 $653 74.991762095251033 $287 $655 forward 7 unknown #
coedge $-1 $288 $645 $651 $656 forward $457 $-1 #
vertex $-1 $465 $657 #
vertex $-1 $289 $658 #
straight-curve $-1 -31.613444953999647 39.91701694744944 18.3298065800644 0 -1 0 I I #
coedge $-1 $471 $471 $-1 $659 reversed $292 $-1 #
edge $-1 $660 0 $660 6.2831853071796004 $293 $661 forward 7 unknown #
vertex $-1 $296 $662 #
ellipse-curve $-1 -28.422375662476295 32.174642487222414 11.758624035900837 0 0.77714596973225614 0.62932038083071107 1.5 0 0 1 I I #
coedge $-1 $475 $475 $-1 $663 reversed $299 $-1 #
edge $-1 $664 0 $664 6.2831853071796004 $300 $665 forward 7 unknown #
vertex $-1 $303 $666 #
ellipse-curve $-1 -23.635771725191269 32.174642487222414 11.758624035900837 0 0.77714596973225614 0.62932038083071107 1.5 0 0 1 I I #
coedge $-1 $479 $479 $-1 $667 reversed $306 $-1 #
edge $-1 $668 0 $668 6.2831853071796004 $307 $669 forward 7 unknown #
vertex $-1 $310 $670 #
ellipse-curve $-1 -18.849167787906239 32.174642487222414 11.758624035900837 0 0.77714596973225614 0.62932038083071107 1.5 0 0 1 I I #
face $-1 $-1 $671 $69 $-1 $672 reversed single #
loop $-1 $-1 $317 $311 #
plane-surface $-1 0 0 18.329806580064403 0 0 1 1 0 0 forward_v I I I I #
coedge $-1 $673 $674 $675 $676 reversed $312 $-1 #
coedge $-1 $677 $314 $316 $493 forward $196 $-1 #
coedge $-1 $314 $677 $673 $678 forward $196 $-1 #
coedge $-1 $675 $317 $314 $490 forward $484 $-1 #
edge $-1 $496 -8.996204152674764 $679 6.9591423049419916 $489 $680 forward 7 unknown #
coedge $-1 $681 $682 $315 $492 forward $671 $-1 #
edge $-1 $683 -62.796841984439169 $495 -49.65447689611203 $491 $684 forward 7 unknown #
edge $-1 $496 58.080698279459796 $683 74.991762095251033 $316 $685 forward 7 unknown #
coedge $-1 $317 $675 $681 $686 forward $484 $-1 #
vertex $-1 $318 $687 #
vertex $-1 $318 $688 #
straight-curve $-1 -10.01473507654115 39.91701694744944 18.3298065800644 0 -1 0 I I #
coedge $-1 $498 $498 $-1 $689 reversed $321 $-1 #
edge $-1 $690 0 $690 6.2831853071796004 $322 $691 forward 7 unknown #
vertex $-1 $325 $692 #
ellipse-curve $-1 -6.823665785017802 32.174642487222414 11.758624035900837 0 0.77714596973225614 0.62932038083071107 1.5 0 0 1 I I #
coedge $-1 $502 $502 $-1 $693 reversed $328 $-1 #
edge $-1 $694 0 $694 6.2831853071796004 $329 $695 forward 7 unknown #
vertex $-1 $332 $696 #
ellipse-curve $-1 -2.0370618477327724 32.174642487222414 11.758624035900837 0 0.77714596973225614 0.62932038083071107 1.5 0 0 1 I I #
coedge $-1 $506 $506 $-1 $697 reversed $335 $-1 #
edge $-1 $698 0 $698 6.2831853071796004 $336 $699 forward 7 unknown #
vertex $-1 $339 $700 #
ellipse-curve $-1 2.74954208955225 32.174642487222414 11.758624035900837 0 0.77714596973225614 0.62932038083071107 1.5 0 0 1 I I #
face $-1 $-1 $701 $73 $-1 $702 reversed single #
loop $-1 $-1 $346 $340 #
plane-surface $-1 0 0 18.329806580064403 0 0 1 1 0 0 forward_v I I I I #
coedge $-1 $703 $704 $705 $706 reversed $341 $-1 #
coedge $-1 $707 $343 $345 $520 forward $215 $-1 #
coedge $-1 $343 $707 $703 $708 forward $215 $-1 #
coedge $-1 $705 $346 $343 $517 forward $511 $-1 #
edge $-1 $523 1.8031507860544806 $709 17.758497243671236 $516 $710 forward 7 unknown #
coedge $-1 $711 $712 $344 $519 forward $701 $-1 #
edge $-1 $713 -62.796841984439169 $522 -49.65447689611203 $518 $714 forward 7 unknown #
edge $-1 $523 58.080698279459796 $713 74.991762095251033 $345 $715 forward 7 unknown #
coedge $-1 $346 $705 $711 $716 forward $511 $-1 #
vertex $-1 $347 $717 #
vertex $-1 $347 $718 #
straight-curve $-1 11.583974800917339 39.91701694744944 18.3298065800644 0 -1 0 I I #
coedge $-1 $525 $525 $-1 $719 reversed $350 $-1 #
edge $-1 $720 0 $720 6.2831853071796004 $351 $721 forward 7 unknown #
vertex $-1 $354 $722 #
ellipse-curve $-1 14.775044092440694 32.174642487222414 11.758624035900837 0 0.77714596973225614 0.62932038083071107 1.5 0 0 1 I I #
coedge $-1 $529 $529 $-1 $723 reversed $357 $-1 #
edge $-1 $724 0 $724 6.2831853071796004 $358 $725 forward 7 unknown #
vertex $-1 $361 $726 #
ellipse-curve $-1 19.561648029725717 32.174642487222414 11.758624035900837 0 0.77714596973225614 0.62932038083071107 1.5 0 0 1 I I #
coedge $-1 $533 $533 $-1 $727 reversed $364 $-1 #
edge $-1 $728 0 $728 6.2831853071796004 $365 $729 forward 7 unknown #
vertex $-1 $368 $730 #
ellipse-curve $-1 24.348251967010739 32.174642487222414 11.758624035900837 0 0.77714596973225614 0.62932038083071107 1.5 0 0 1 I I #
face $-1 $-1 $731 $77 $-1 $732 reversed single #
loop $-1 $-1 $375 $369 #
plane-surface $-1 0 0 18.329806580064403 0 0 1 1 0 0 forward_v I I I I #
coedge $-1 $733 $734 $735 $736 reversed $370 $-1 #
coedge $-1 $737 $372 $374 $547 forward $234 $-1 #
coedge $-1 $372 $737 $733 $738 forward $234 $-1 #
coedge $-1 $735 $375 $372 $544 forward $538 $-1 #
edge $-1 $550 12.602505724783725 $739 28.557852182400481 $543 $740 forward 7 unknown #
coedge $-1 $741 $742 $373 $546 forward $731 $-1 #
edge $-1 $743 -62.796841984439169 $549 -49.65447689611203 $545 $744 forward 7 unknown #
edge $-1 $550 58.080698279459796 $743 74.991762095251033 $374 $745 forward 7 unknown #
coedge $-1 $375 $735 $741 $746 forward $538 $-1 #
vertex $-1 $376 $747 #
vertex $-1 $376 $748 #
straight-curve $-1 33.182684678375828 39.91701694744944 18.3298065800644 0 -1 0 I I #
coedge $-1 $552 $552 $-1 $749 reversed $379 $-1 #
edge $-1 $750 0 $750 6.2831853071796004 $380 $751 forward 7 unknown #
vertex $-1 $383 $752 #
ellipse-curve $-1 36.373753969899184 32.174642487222414 11.758624035900837 0 0.77714596973225614 0.62932038083071107 1.5 0 0 1 I I #
coedge $-1 $556 $556 $-1 $753 reversed $386 $-1 #
edge $-1 $754 0 $754 6.2831853071796004 $387 $755 forward 7 unknown #
vertex $-1 $390 $756 #
ellipse-curve $-1 41.160357907184206 32.174642487222414 11.758624035900837 0 0.77714596973225614 0.62932038083071107 1.5 0 0 1 I I #
coedge $-1 $560 $560 $-1 $757 reversed $393 $-1 #
edge $-1 $758 0 $758 6.2831853071796004 $394 $759 forward 7 unknown #
vertex $-1 $397 $760 #
ellipse-curve $-1 45.946961844469229 32.174642487222414 11.758624035900837 0 0.77714596973225614 0.62932038083071107 1.5 0 0 1 I I #
face $-1 $-1 $576 $81 $-1 $761 forward single #
loop $-1 $-1 $762 $398 #
plane-surface $-1 0 -37.495881047625517 0 0 1 0 0 0 1 forward_v I I I I #
coedge $-1 $763 $764 $765 $766 reversed $399 $-1 #
coedge $-1 $767 $401 $403 $574 forward $253 $-1 #
coedge $-1 $401 $767 $763 $768 forward $253 $-1 #
coedge $-1 $765 $404 $401 $571 forward $576 $-1 #
edge $-1 $578 -5.6689270143012926 $769 17.242284820142391 $570 $770 forward 7 unknown #
coedge $-1 $771 $772 $402 $573 forward $565 $-1 #
edge $-1 $773 -31.072003493524793 $577 -23.099769711581875 $572 $774 forward 7 unknown #
edge $-1 $578 -10.258347971217745 $773 -2.2748066086763162e-014 $403 $775 forward 7 unknown #
coedge $-1 $404 $765 $771 $776 forward $576 $-1 #
loop $-1 $-1 $765 $564 #
vertex $-1 $573 $777 #
vertex $-1 $405 $778 #
straight-curve $-1 -0.11775188861925656 -63.513939087924186 18.329806580064407 0 1 0 I I #
coedge $-1 $580 $580 $-1 $779 reversed $408 $-1 #
edge $-1 $780 0 $780 6.2831853071796004 $409 $781 forward 7 unknown #
vertex $-1 $412 $782 #
ellipse-curve $-1 -16.482903198936178 -34.267987321655177 14.343689689092942 0 -0.77714596973225614 0.62932038083071107 2 0 0 1 I I #
coedge $-1 $584 $584 $-1 $783 reversed $415 $-1 #
edge $-1 $784 0 $784 6.2831853071796004 $416 $785 forward 7 unknown #
vertex $-1 $419 $786 #
ellipse-curve $-1 -6.6638124127460259 -34.267987321655177 14.343689689092942 0 -0.77714596973225614 0.62932038083071107 2 0 0 1 I I #
face $-1 $-1 $435 $63 $-1 $787 reversed single #
loop $-1 $-1 $604 $420 #
plane-surface $-1 0 37.495881047625517 0 0 -1 0 0 0 -1 forward_v I I I I #
coedge $-1 $788 $602 $605 $789 forward $421 $-1 #
coedge $-1 $608 $423 $424 $596 reversed $267 $-1 #
coedge $-1 $602 $788 $423 $594 reversed $421 $-1 #
edge $-1 $609 -18.329806580064403 $790 18.329806580064403 $593 $791 forward 7 unknown #
coedge $-1 $425 $424 $788 $792 forward $169 $-1 #
edge $-1 $600 -57.603076265755178 $790 57.603076265755178 $592 $793 forward 7 unknown #
coedge $-1 $605 $604 $425 $598 reversed $589 $-1 #
edge $-1 $794 -57.603076265755178 $599 57.603076265755178 $597 $795 forward 7 unknown #
vertex $-1 $427 $796 #
vertex $-1 $611 $797 #
straight-curve $-1 57.603076265755178 0 -18.329806580064403 0 -1 0 I I #
coedge $-1 $591 $593 $428 $603 reversed $421 $-1 #
edge $-1 $606 -37.495881047625517 $609 37.495881047625517 $602 $798 forward 7 unknown #
coedge $-1 $597 $429 $434 $612 forward $589 $-1 #
coedge $-1 $429 $597 $591 $789 reversed $589 $-1 #
vertex $-1 $430 $799 #
straight-curve $-1 0 37.495881047625517 18.329806580064403 -1 0 0 I I #
coedge $-1 $431 $592 $433 $611 reversed $267 $-1 #
vertex $-1 $603 $800 #
straight-curve $-1 0 -37.495881047625517 18.329806580064403 1 0 0 I I #
edge $-1 $436 -18.329806580064403 $600 18.329806580064403 $433 $801 forward 7 unknown #
edge $-1 $437 -18.329806580064403 $599 18.329806580064403 $434 $802 forward 7 unknown #
point $-1 57.603076265755178 -37.495881047625517 18.329806580064403 #
point $-1 57.603076265755178 37.495881047625517 18.329806580064403 #
face $-1 $-1 $632 $64 $-1 $803 reversed single #
loop $-1 $-1 $804 $439 #
plane-surface $-1 -57.603076265755178 0 0 1 0 0 0 0 -1 forward_v I I I I #
coedge $-1 $619 $635 $443 $622 forward $440 $-1 #
coedge $-1 $450 $618 $442 $620 forward $440 $-1 #
edge $-1 $626 -0.38428041633940424 $453 5.6081068649791739 $619 $805 forward 7 unknown #
coedge $-1 $444 $443 $804 $806 reversed $173 $-1 #
edge $-1 $807 -33.182684678375821 $626 -15.658098496382891 $618 $808 forward 7 unknown #
coedge $-1 $631 $630 $444 $624 forward $632 $-1 #
edge $-1 $625 15.658098496382891 $809 33.182684678375821 $623 $810 forward 7 unknown #
vertex $-1 $624 $811 #
vertex $-1 $622 $812 #
straight-curve $-1 -40.078490083762247 0 2.2276328079804806 0 -1 0 I I #
coedge $-1 $813 $814 $447 $629 forward $616 $-1 #
edge $-1 $636 -37.495881047625517 $633 37.495881047625517 $628 $815 forward 7 unknown #
coedge $-1 $623 $448 $452 $638 forward $632 $-1 #
coedge $-1 $448 $623 $813 $816 reversed $632 $-1 #
loop $-1 $-1 $623 $615 #
vertex $-1 $816 $817 #
straight-curve $-1 -24.420391587379356 37.495881047625517 8.2200200892990587 1 0 0 I I #
coedge $-1 $618 $450 $814 $818 forward $440 $-1 #
vertex $-1 $818 $819 #
straight-curve $-1 -24.420391587379356 -37.495881047625517 8.2200200892990587 -1 0 0 I I #
edge $-1 $454 -5.6081068649791739 $625 0.38428041633940424 $630 $820 forward 7 unknown #
point $-1 -40.078490083762247 -37.495881047625517 8.2200200892990587 #
point $-1 -40.078490083762247 37.495881047625517 8.2200200892990587 #
loop $-1 $-1 $464 $456 #
plane-surface $-1 0 37.495881047625517 0 0 -1 0 0 0 -1 forward_v I I I I #
coedge $-1 $644 $459 $461 $648 reversed $283 $-1 #
coedge $-1 $459 $643 $821 $822 reversed $283 $-1 #
coedge $-1 $467 $462 $459 $646 forward $457 $-1 #
edge $-1 $649 -13.063613020630122 $823 -2.4211358998239234 $645 $824 forward 7 unknown #
coedge $-1 $461 $460 $652 $825 reversed $177 $-1 #
edge $-1 $826 -74.991762095251033 $649 -58.080698279459796 $643 $827 forward 7 unknown #
vertex $-1 $463 $828 #
straight-curve $-1 -11.817885862595634 26.853403926819322 18.329806580064403 1 0 0 I I #
coedge $-1 $821 $464 $467 $656 reversed $641 $-1 #
coedge $-1 $464 $821 $647 $825 forward $641 $-1 #
vertex $-1 $465 $829 #
straight-curve $-1 -31.613444953999647 37.495881047625517 67.984283476176429 0 0 1 I I #
straight-curve $-1 -31.613444953999647 -9.6979632333239465 63.46698716718177 0 0.62932038083071107 -0.77714596973225614 I I #
edge $-1 $823 15.658098496382891 $468 31.613444953999647 $651 $830 forward 7 unknown #
point $-1 -31.613444953999647 37.495881047625517 18.329806580064403 #
point $-1 -31.613444953999647 26.853403926819318 18.3298065800644 #
edge $-1 $831 1 $831 0 $471 $-1 forward 7 unknown #
vertex $-1 $472 $832 #
ellipse-curve $-1 -28.422375662476295 30.856836111410356 10.691485502617439 0 0.77714596973225614 0.62932038083071107 1.5 0 0 1 I I #
point $-1 -26.922375662476295 32.174642487222407 11.75862403590083 #
edge $-1 $833 1 $833 0 $475 $-1 forward 7 unknown #
vertex $-1 $476 $834 #
ellipse-curve $-1 -23.635771725191269 30.856836111410356 10.691485502617439 0 0.77714596973225614 0.62932038083071107 1.5 0 0 1 I I #
point $-1 -22.135771725191269 32.174642487222407 11.75862403590083 #
edge $-1 $835 1 $835 0 $479 $-1 forward 7 unknown #
vertex $-1 $480 $836 #
ellipse-curve $-1 -18.849167787906239 30.856836111410356 10.691485502617439 0 0.77714596973225614 0.62932038083071107 1.5 0 0 1 I I #
point $-1 -17.349167787906239 32.174642487222407 11.75862403590083 #
loop $-1 $-1 $491 $483 #
plane-surface $-1 0 37.495881047625517 0 0 -1 0 0 0 -1 forward_v I I I I #
coedge $-1 $674 $486 $488 $678 reversed $312 $-1 #
coedge $-1 $486 $673 $837 $838 reversed $312 $-1 #
coedge $-1 $494 $489 $486 $676 forward $484 $-1 #
edge $-1 $679 -13.063613020630122 $839 -2.4211358998239234 $675 $840 forward 7 unknown #
coedge $-1 $488 $487 $682 $841 reversed $196 $-1 #
edge $-1 $842 -74.991762095251033 $679 -58.080698279459796 $673 $843 forward 7 unknown #
vertex $-1 $490 $844 #
straight-curve $-1 -1.0185309238663862 26.853403926819322 18.329806580064403 1 0 0 I I #
coedge $-1 $837 $491 $494 $686 reversed $671 $-1 #
coedge $-1 $491 $837 $677 $841 forward $671 $-1 #
vertex $-1 $492 $845 #
straight-curve $-1 -10.01473507654115 37.495881047625517 67.984283476176429 0 0 1 I I #
straight-curve $-1 -10.01473507654115 -9.6979632333239465 63.46698716718177 0 0.62932038083071107 -0.77714596973225614 I I #
edge $-1 $839 -5.9406113810756054 $495 10.01473507654115 $681 $846 forward 7 unknown #
point $-1 -10.01473507654115 37.495881047625517 18.329806580064403 #
point $-1 -10.01473507654115 26.853403926819318 18.3298065800644 #
edge $-1 $847 1 $847 0 $498 $-1 forward 7 unknown #
vertex $-1 $499 $848 #
ellipse-curve $-1 -6.823665785017802 30.856836111410356 10.691485502617439 0 0.77714596973225614 0.62932038083071107 1.5 0 0 1 I I #
point $-1 -5.323665785017802 32.174642487222407 11.75862403590083 #
edge $-1 $849 1 $849 0 $502 $-1 forward 7 unknown #
vertex $-1 $503 $850 #
ellipse-curve $-1 -2.0370618477327724 30.856836111410356 10.691485502617439 0 0.77714596973225614 0.62932038083071107 1.5 0 0 1 I I #
point $-1 -0.53706184773277243 32.174642487222407 11.75862403590083 #
edge $-1 $851 1 $851 0 $506 $-1 forward 7 unknown #
vertex $-1 $507 $852 #
ellipse-curve $-1 2.74954208955225 30.856836111410356 10.691485502617439 0 0.77714596973225614 0.62932038083071107 1.5 0 0 1 I I #
point $-1 4.24954208955225 32.174642487222407 11.75862403590083 #
loop $-1 $-1 $518 $510 #
plane-surface $-1 0 37.495881047625517 0 0 -1 0 0 0 -1 forward_v I I I I #
coedge $-1 $704 $513 $515 $708 reversed $341 $-1 #
coedge $-1 $513 $703 $853 $854 reversed $341 $-1 #
coedge $-1 $521 $516 $513 $706 forward $511 $-1 #
edge $-1 $709 -13.063613020630122 $855 -2.4211358998239234 $705 $856 forward 7 unknown #
coedge $-1 $515 $514 $712 $857 reversed $215 $-1 #
edge $-1 $858 -74.991762095251033 $709 -58.080698279459796 $703 $859 forward 7 unknown #
vertex $-1 $517 $860 #
straight-curve $-1 9.7808240148628585 26.853403926819322 18.329806580064403 1 0 0 I I #
coedge $-1 $853 $518 $521 $716 reversed $701 $-1 #
coedge $-1 $518 $853 $707 $857 forward $701 $-1 #
vertex $-1 $519 $861 #
straight-curve $-1 11.583974800917339 37.495881047625517 67.984283476176429 0 0 1 I I #
straight-curve $-1 11.583974800917339 -9.6979632333239465 63.46698716718177 0 0.62932038083071107 -0.77714596973225614 I I #
edge $-1 $855 -27.539321258534095 $522 -11.583974800917339 $711 $862 forward 7 unknown #
point $-1 11.583974800917339 37.495881047625517 18.329806580064403 #
point $-1 11.583974800917339 26.853403926819318 18.3298065800644 #
edge $-1 $863 1 $863 0 $525 $-1 forward 7 unknown #
vertex $-1 $526 $864 #
ellipse-curve $-1 14.775044092440694 30.856836111410356 10.691485502617439 0 0.77714596973225614 0.62932038083071107 1.5 0 0 1 I I #
point $-1 16.275044092440694 32.174642487222407 11.75862403590083 #
edge $-1 $865 1 $865 0 $529 $-1 forward 7 unknown #
vertex $-1 $530 $866 #
ellipse-curve $-1 19.561648029725717 30.856836111410356 10.691485502617439 0 0.77714596973225614 0.62932038083071107 1.5 0 0 1 I I #
point $-1 21.061648029725717 32.174642487222407 11.75862403590083 #
edge $-1 $867 1 $867 0 $533 $-1 forward 7 unknown #
vertex $-1 $534 $868 #
ellipse-curve $-1 24.348251967010739 30.856836111410356 10.691485502617439 0 0.77714596973225614 0.62932038083071107 1.5 0 0 1 I I #
point $-1 25.848251967010739 32.174642487222407 11.75862403590083 #
loop $-1 $-1 $545 $537 #
plane-surface $-1 0 37.495881047625517 0 0 -1 0 0 0 -1 forward_v I I I I #
coedge $-1 $734 $540 $542 $738 reversed $370 $-1 #
coedge $-1 $540 $733 $869 $870 reversed $370 $-1 #
coedge $-1 $548 $543 $540 $736 forward $538 $-1 #
edge $-1 $739 -13.063613020630122 $871 -2.4211358998239234 $735 $872 forward 7 unknown #
coedge $-1 $542 $541 $742 $873 reversed $234 $-1 #
edge $-1 $874 -74.991762095251033 $739 -58.080698279459796 $733 $875 forward 7 unknown #
vertex $-1 $544 $876 #
straight-curve $-1 20.580178953592103 26.853403926819322 18.329806580064403 1 0 0 I I #
coedge $-1 $869 $545 $548 $746 reversed $731 $-1 #
coedge $-1 $545 $869 $737 $873 forward $731 $-1 #
vertex $-1 $546 $877 #
straight-curve $-1 33.182684678375828 37.495881047625517 67.984283476176429 0 0 1 I I #
straight-curve $-1 33.182684678375828 -9.6979632333239465 63.46698716718177 0 0.62932038083071107 -0.77714596973225614 I I #
edge $-1 $871 -49.138031135992584 $549 -33.182684678375828 $741 $878 forward 7 unknown #
point $-1 33.182684678375828 37.495881047625517 18.329806580064403 #
point $-1 33.182684678375828 26.853403926819318 18.3298065800644 #
edge $-1 $879 1 $879 0 $552 $-1 forward 7 unknown #
vertex $-1 $553 $880 #
ellipse-curve $-1 36.373753969899184 30.856836111410356 10.691485502617439 0 0.77714596973225614 0.62932038083071107 1.5 0 0 1 I I #
point $-1 37.873753969899184 32.174642487222407 11.75862403590083 #
edge $-1 $881 1 $881 0 $556 $-1 forward 7 unknown #
vertex $-1 $557 $882 #
ellipse-curve $-1 41.160357907184206 30.856836111410356 10.691485502617439 0 0.77714596973225614 0.62932038083071107 1.5 0 0 1 I I #
point $-1 42.660357907184206 32.174642487222407 11.75862403590083 #
edge $-1 $883 1 $883 0 $560 $-1 forward 7 unknown #
vertex $-1 $561 $884 #
ellipse-curve $-1 45.946961844469229 30.856836111410356 10.691485502617439 0 0.77714596973225614 0.62932038083071107 1.5 0 0 1 I I #
point $-1 47.446961844469229 32.174642487222407 11.75862403590083 #
plane-surface $-1 0 0 18.329806580064403 0 0 1 1 0 0 forward_v I I I I #
coedge $-1 $772 $771 $764 $885 forward $565 $-1 #
coedge $-1 $764 $567 $569 $768 reversed $399 $-1 #
coedge $-1 $567 $763 $762 $885 reversed $399 $-1 #
coedge $-1 $575 $570 $567 $766 forward $576 $-1 #
edge $-1 $769 -32.473845492239363 $886 -26.018058040298669 $765 $887 forward 7 unknown #
coedge $-1 $569 $568 $772 $888 reversed $253 $-1 #
edge $-1 $889 2.2748066086763162e-014 $769 10.258347971217745 $763 $890 forward 7 unknown #
vertex $-1 $571 $891 #
straight-curve $-1 -5.7866789029205492 -31.04009359568483 18.329806580064403 -1 0 0 I I #
coedge $-1 $762 $572 $575 $776 reversed $565 $-1 #
coedge $-1 $572 $762 $767 $888 forward $565 $-1 #
vertex $-1 $573 $892 #
straight-curve $-1 -0.11775188861925656 -37.495881047625517 41.429576291646278 0 0 1 I I #
straight-curve $-1 -0.11775188861925656 -37.495881047625531 10.357572798121467 0 -0.62932038083071107 -0.77714596973225614 I I #
edge $-1 $886 -23.02896372306294 $577 -0.11775188861925656 $771 $893 forward 7 unknown #
point $-1 -0.11775188861925656 -37.495881047625517 18.329806580064403 #
point $-1 -0.11775188861925656 -31.040093595684827 18.329806580064403 #
edge $-1 $894 1 $894 0 $580 $-1 forward 7 unknown #
vertex $-1 $581 $895 #
ellipse-curve $-1 -16.482903198936178 -29.768855995434588 10.700365075828847 0 -0.77714596973225614 0.62932038083071107 2 0 0 1 I I #
point $-1 -14.482903198936178 -34.267987321655163 14.34368968909293 #
edge $-1 $896 1 $896 0 $584 $-1 forward 7 unknown #
vertex $-1 $585 $897 #
ellipse-curve $-1 -6.6638124127460259 -29.768855995434588 10.700365075828847 0 -0.77714596973225614 0.62932038083071107 2 0 0 1 I I #
point $-1 -4.6638124127460259 -34.267987321655163 14.34368968909293 #
plane-surface $-1 57.603076265755178 0 0 -1 0 0 0 0 1 forward_v I I I I #
coedge $-1 $593 $591 $595 $792 reversed $421 $-1 #
edge $-1 $606 -18.329806580064403 $794 18.329806580064403 $605 $898 forward 7 unknown #
vertex $-1 $792 $899 #
straight-curve $-1 -57.603076265755178 -37.495881047625517 0 0 0 -1 I I #
edge $-1 $790 -37.495881047625517 $794 37.495881047625517 $788 $900 forward 7 unknown #
straight-curve $-1 0 -37.495881047625517 -18.329806580064403 -1 0 0 I I #
vertex $-1 $598 $901 #
straight-curve $-1 0 37.495881047625517 -18.329806580064403 1 0 0 I I #
point $-1 57.603076265755178 37.495881047625517 -18.329806580064403 #
point $-1 57.603076265755178 -37.495881047625517 -18.329806580064403 #
straight-curve $-1 -57.603076265755178 0 18.329806580064403 0 -1 0 I I #
point $-1 -57.603076265755178 37.495881047625517 18.329806580064403 #
point $-1 -57.603076265755178 -37.495881047625517 18.329806580064403 #
straight-curve $-1 57.603076265755178 -37.495881047625517 0 0 0 -1 I I #
straight-curve $-1 57.603076265755178 37.495881047625517 0 0 0 -1 I I #
plane-surface $-1 0 37.495881047625517 0 0 -1 0 0 0 -1 forward_v I I I I #
coedge $-1 $814 $813 $621 $806 forward $616 $-1 #
straight-curve $-1 -40.078490083762247 -37.495881047625517 2.6119132243198848 0 0 1 I I #
edge $-1 $809 -37.495881047625517 $807 37.495881047625517 $804 $902 forward 7 unknown #
vertex $-1 $622 $903 #
straight-curve $-1 -24.420391587379356 -37.495881047625517 2.2276328079804806 1 0 0 I I #
vertex $-1 $624 $904 #
straight-curve $-1 -24.420391587379356 37.495881047625517 2.2276328079804806 -1 0 0 I I #
point $-1 -40.078490083762247 37.495881047625517 2.2276328079804806 #
point $-1 -40.078490083762247 -37.495881047625517 2.2276328079804806 #
coedge $-1 $804 $628 $631 $816 forward $616 $-1 #
coedge $-1 $628 $804 $635 $818 reversed $616 $-1 #
straight-curve $-1 -57.603076265755178 0 8.2200200892990587 0 1 0 I I #
edge $-1 $633 -8.2200200892990587 $809 -2.2276328079804806 $631 $905 forward 7 unknown #
point $-1 -57.603076265755178 37.495881047625517 8.2200200892990587 #
edge $-1 $636 -8.2200200892990587 $807 -2.2276328079804806 $814 $906 forward 7 unknown #
point $-1 -57.603076265755178 -37.495881047625517 8.2200200892990587 #
straight-curve $-1 -40.078490083762247 37.495881047625517 2.6119132243198848 0 0 -1 I I #
coedge $-1 $652 $651 $644 $822 forward $641 $-1 #
edge $-1 $823 49.65447689611203 $826 62.796841984439169 $821 $907 forward 7 unknown #
vertex $-1 $656 $908 #
straight-curve $-1 -15.658098496382891 39.91701694744944 18.3298065800644 0 1 0 I I #
edge $-1 $826 3.8402126337872566 $653 19.795559091404012 $652 $909 forward 7 unknown #
vertex $-1 $825 $910 #
straight-curve $-1 -15.658098496382891 -9.6979632333239465 63.46698716718177 0 -0.62932038083071107 0.77714596973225614 I I #
point $-1 -15.658098496382891 26.853403926819318 18.3298065800644 #
point $-1 -31.613444953999647 37.495881047625517 5.1874414917372604 #
straight-curve $-1 0 37.495881047625517 18.329806580064403 -1 0 0 I I #
vertex $-1 $659 $911 #
point $-1 -26.922375662476295 30.856836111410356 10.691485502617439 #
vertex $-1 $663 $912 #
point $-1 -22.135771725191269 30.856836111410356 10.691485502617439 #
vertex $-1 $667 $913 #
point $-1 -17.349167787906239 30.856836111410356 10.691485502617439 #
coedge $-1 $682 $681 $674 $838 forward $671 $-1 #
edge $-1 $839 49.65447689611203 $842 62.796841984439169 $837 $914 forward 7 unknown #
vertex $-1 $686 $915 #
straight-curve $-1 5.9406113810756054 39.91701694744944 18.3298065800644 0 1 0 I I #
edge $-1 $842 -6.9591423049419916 $683 8.996204152674764 $682 $916 forward 7 unknown #
vertex $-1 $841 $917 #
straight-curve $-1 5.9406113810756054 -9.6979632333239465 63.46698716718177 0 -0.62932038083071107 0.77714596973225614 I I #
point $-1 5.9406113810756054 26.853403926819318 18.3298065800644 #
point $-1 -10.01473507654115 37.495881047625517 5.1874414917372604 #
straight-curve $-1 0 37.495881047625517 18.329806580064403 -1 0 0 I I #
vertex $-1 $689 $918 #
point $-1 -5.323665785017802 30.856836111410356 10.691485502617439 #
vertex $-1 $693 $919 #
point $-1 -0.53706184773277243 30.856836111410356 10.691485502617439 #
vertex $-1 $697 $920 #
point $-1 4.24954208955225 30.856836111410356 10.691485502617439 #
coedge $-1 $712 $711 $704 $854 forward $701 $-1 #
edge $-1 $855 49.65447689611203 $858 62.796841984439169 $853 $921 forward 7 unknown #
vertex $-1 $716 $922 #
straight-curve $-1 27.539321258534095 39.91701694744944 18.3298065800644 0 1 0 I I #
edge $-1 $858 -17.758497243671236 $713 -1.8031507860544806 $712 $923 forward 7 unknown #
vertex $-1 $857 $924 #
straight-curve $-1 27.539321258534095 -9.6979632333239465 63.46698716718177 0 -0.62932038083071107 0.77714596973225614 I I #
point $-1 27.539321258534095 26.853403926819318 18.3298065800644 #
point $-1 11.583974800917339 37.495881047625517 5.1874414917372604 #
straight-curve $-1 0 37.495881047625517 18.329806580064403 -1 0 0 I I #
vertex $-1 $719 $925 #
point $-1 16.275044092440694 30.856836111410356 10.691485502617439 #
vertex $-1 $723 $926 #
point $-1 21.061648029725717 30.856836111410356 10.691485502617439 #
vertex $-1 $727 $927 #
point $-1 25.848251967010739 30.856836111410356 10.691485502617439 #
coedge $-1 $742 $741 $734 $870 forward $731 $-1 #
edge $-1 $871 49.65447689611203 $874 62.796841984439169 $869 $928 forward 7 unknown #
vertex $-1 $746 $929 #
straight-curve $-1 49.138031135992584 39.91701694744944 18.3298065800644 0 1 0 I I #
edge $-1 $874 -28.557852182400481 $743 -12.602505724783725 $742 $930 forward 7 unknown #
vertex $-1 $873 $931 #
straight-curve $-1 49.138031135992584 -9.6979632333239465 63.46698716718177 0 -0.62932038083071107 0.77714596973225614 I I #
point $-1 49.138031135992584 26.853403926819318 18.3298065800644 #
point $-1 33.182684678375828 37.495881047625517 5.1874414917372604 #
straight-curve $-1 0 37.495881047625517 18.329806580064403 -1 0 0 I I #
vertex $-1 $749 $932 #
point $-1 37.873753969899184 30.856836111410356 10.691485502617439 #
vertex $-1 $753 $933 #
point $-1 42.660357907184206 30.856836111410356 10.691485502617439 #
vertex $-1 $757 $934 #
point $-1 47.446961844469229 30.856836111410356 10.691485502617439 #
edge $-1 $886 23.099769711581875 $889 31.072003493524793 $762 $935 forward 7 unknown #
vertex $-1 $776 $936 #
straight-curve $-1 -23.02896372306294 -63.513939087924186 18.329806580064407 0 -1 0 I I #
edge $-1 $889 -17.242284820142391 $773 5.6689270143012926 $772 $937 forward 7 unknown #
vertex $-1 $888 $938 #
straight-curve $-1 -23.02896372306294 -37.495881047625531 10.357572798121467 0 0.62932038083071107 0.77714596973225614 I I #
point $-1 -23.02896372306294 -31.040093595684827 18.329806580064403 #
point $-1 -0.11775188861925656 -37.495881047625517 10.357572798121485 #
straight-curve $-1 0 -37.495881047625517 18.329806580064403 1 0 0 I I #
vertex $-1 $779 $939 #
point $-1 -14.482903198936178 -29.768855995434588 10.700365075828847 #
vertex $-1 $783 $940 #
point $-1 -4.6638124127460259 -29.768855995434588 10.700365075828847 #
straight-curve $-1 -57.603076265755178 37.495881047625517 0 0 0 -1 I I #
point $-1 -57.603076265755178 -37.495881047625517 -18.329806580064403 #
straight-curve $-1 -57.603076265755178 0 -18.329806580064403 0 1 0 I I #
point $-1 -57.603076265755178 37.495881047625517 -18.329806580064403 #
straight-curve $-1 -57.603076265755178 0 2.2276328079804806 0 -1 0 I I #
point $-1 -57.603076265755178 -37.495881047625517 2.2276328079804806 #
point $-1 -57.603076265755178 37.495881047625517 2.2276328079804806 #
straight-curve $-1 -57.603076265755178 37.495881047625517 0 0 0 -1 I I #
straight-curve $-1 -57.603076265755178 -37.495881047625517 0 0 0 -1 I I #
straight-curve $-1 -15.658098496382891 37.495881047625517 67.984283476176429 0 0 -1 I I #
point $-1 -15.658098496382891 37.495881047625517 18.329806580064403 #
straight-curve $-1 -11.817885862595634 37.495881047625517 5.1874414917372604 -1 0 0 I I #
point $-1 -15.658098496382891 37.495881047625517 5.1874414917372604 #
point $-1 -28.422375662476295 29.691117156811973 9.747504931371374 #
point $-1 -23.635771725191269 29.691117156811973 9.747504931371374 #
point $-1 -18.849167787906239 29.691117156811973 9.747504931371374 #
straight-curve $-1 5.9406113810756054 37.495881047625517 67.984283476176429 0 0 -1 I I #
point $-1 5.9406113810756054 37.495881047625517 18.329806580064403 #
straight-curve $-1 -1.0185309238663862 37.495881047625517 5.1874414917372604 -1 0 0 I I #
point $-1 5.9406113810756054 37.495881047625517 5.1874414917372604 #
point $-1 -6.823665785017802 29.691117156811973 9.747504931371374 #
point $-1 -2.0370618477327724 29.691117156811973 9.747504931371374 #
point $-1 2.74954208955225 29.691117156811973 9.747504931371374 #
straight-curve $-1 27.539321258534095 37.495881047625517 67.984283476176429 0 0 -1 I I #
point $-1 27.539321258534095 37.495881047625517 18.329806580064403 #
straight-curve $-1 9.7808240148628585 37.495881047625517 5.1874414917372604 -1 0 0 I I #
point $-1 27.539321258534095 37.495881047625517 5.1874414917372604 #
point $-1 14.775044092440694 29.691117156811973 9.747504931371374 #
point $-1 19.561648029725717 29.691117156811973 9.747504931371374 #
point $-1 24.348251967010739 29.691117156811973 9.747504931371374 #
straight-curve $-1 49.138031135992584 37.495881047625517 67.984283476176429 0 0 -1 I I #
point $-1 49.138031135992584 37.495881047625517 18.329806580064403 #
straight-curve $-1 20.580178953592103 37.495881047625517 5.1874414917372604 -1 0 0 I I #
point $-1 49.138031135992584 37.495881047625517 5.1874414917372604 #
point $-1 36.373753969899184 29.691117156811973 9.747504931371374 #
point $-1 41.160357907184206 29.691117156811973 9.747504931371374 #
point $-1 45.946961844469229 29.691117156811973 9.747504931371374 #
straight-curve $-1 -23.02896372306294 -37.495881047625517 41.429576291646278 0 0 -1 I I #
point $-1 -23.02896372306294 -37.495881047625517 18.329806580064403 #
straight-curve $-1 -5.7866789029205492 -37.495881047625517 10.357572798121488 1 0 0 I I #
point $-1 -23.02896372306294 -37.495881047625517 10.357572798121485 #
point $-1 -16.482903198936178 -28.214564055970076 9.4417243141674252 #
point $-1 -6.6638124127460259 -28.214564055970076 9.4417243141674252 #
End-of-ACIS-data 