500 0 12 0           
7 Unknown 11 ACIS 5.0 NT 24 Thu Mar 25 19:52:33 1999 
-1 9.9999999999999995e-007 1e-010 
body $-1 $12 $-1 $13 #
body $-1 $14 $-1 $15 #
body $-1 $16 $-1 $17 #
body $-1 $18 $-1 $19 #
body $-1 $20 $-1 $21 #
body $-1 $22 $-1 $23 #
body $-1 $24 $-1 $25 #
body $-1 $26 $-1 $27 #
body $-1 $28 $-1 $29 #
body $-1 $30 $-1 $31 #
body $-1 $32 $-1 $33 #
body $-1 $34 $-1 $35 #
lump $-1 $-1 $36 $0 #
transform $-1 1 0 0 0 1 0 0 0 1 42.878505813776059 26.897504672378957 6.7167010172207888 1 rotate no_reflect no_shear #
lump $-1 $-1 $37 $1 #
transform $-1 1 0 0 0 1 0 0 0 1 42.878505813776059 26.897504672378957 6.7167010172207888 1 rotate no_reflect no_shear #
lump $-1 $-1 $38 $2 #
transform $-1 1 0 0 0 1 0 0 0 1 42.878505813776059 26.897504672378957 6.7167010172207888 1 rotate no_reflect no_shear #
lump $-1 $-1 $39 $3 #
transform $-1 1 0 0 0 1 0 0 0 1 42.878505813776059 26.897504672378957 6.7167010172207888 1 rotate no_reflect no_shear #
lump $-1 $-1 $40 $4 #
transform $-1 1 0 0 0 1 0 0 0 1 42.878505813776059 26.897504672378957 6.7167010172207888 1 rotate no_reflect no_shear #
lump $-1 $-1 $41 $5 #
transform $-1 1 0 0 0 1 0 0 0 1 42.878505813776059 26.897504672378957 6.7167010172207888 1 rotate no_reflect no_shear #
lump $-1 $-1 $42 $6 #
transform $-1 1 0 0 0 1 0 0 0 1 42.878505813776059 26.897504672378957 6.7167010172207888 1 rotate no_reflect no_shear #
lump $-1 $-1 $43 $7 #
transform $-1 1 0 0 0 1 0 0 0 1 42.878505813776059 26.897504672378957 6.7167010172207888 1 rotate no_reflect no_shear #
lump $-1 $-1 $44 $8 #
transform $-1 1 0 0 0 1 0 0 0 1 42.878505813776059 26.897504672378957 6.7167010172207888 1 rotate no_reflect no_shear #
lump $-1 $-1 $45 $9 #
transform $-1 1 0 0 0 1 0 0 0 1 42.878505813776059 26.897504672378957 6.7167010172207888 1 rotate no_reflect no_shear #
lump $-1 $-1 $46 $10 #
transform $-1 1 0 0 0 1 0 0 0 1 42.878505813776059 26.897504672378957 6.7167010172207888 1 rotate no_reflect no_shear #
lump $-1 $-1 $47 $11 #
transform $-1 1 0 0 0 1 0 0 0 1 42.878505813776059 26.897504672378957 6.7167010172207888 1 rotate no_reflect no_shear #
shell $-1 $-1 $-1 $48 $-1 $12 #
shell $-1 $-1 $-1 $49 $-1 $14 #
shell $-1 $-1 $-1 $50 $-1 $16 #
shell $-1 $-1 $-1 $51 $-1 $18 #
shell $-1 $-1 $-1 $52 $-1 $20 #
shell $-1 $-1 $-1 $53 $-1 $22 #
shell $-1 $-1 $-1 $54 $-1 $24 #
shell $-1 $-1 $-1 $55 $-1 $26 #
shell $-1 $-1 $-1 $56 $-1 $28 #
shell $-1 $-1 $-1 $57 $-1 $30 #
shell $-1 $-1 $-1 $58 $-1 $32 #
shell $-1 $-1 $-1 $59 $-1 $34 #
face $-1 $60 $61 $36 $-1 $62 reversed single #
face $-1 $63 $64 $37 $-1 $65 forward single #
face $-1 $66 $67 $38 $-1 $68 forward single #
face $-1 $69 $70 $39 $-1 $71 reversed single #
face $-1 $72 $73 $40 $-1 $74 forward single #
face $-1 $75 $76 $41 $-1 $77 forward single #
face $-1 $78 $79 $42 $-1 $80 reversed single #
face $-1 $81 $82 $43 $-1 $83 forward single #
face $-1 $84 $85 $44 $-1 $86 forward single #
face $-1 $87 $88 $45 $-1 $89 reversed single #
face $-1 $90 $91 $46 $-1 $92 forward single #
face $-1 $93 $94 $47 $-1 $95 forward single #
face $-1 $96 $97 $36 $-1 $98 reversed single #
loop $-1 $-1 $99 $48 #
plane-surface $-1 0 26.897504672378957 0 0 -1 0 0 0 -1 forward_v I I I I #
face $-1 $100 $101 $37 $-1 $102 reversed single #
loop $-1 $-1 $103 $49 #
plane-surface $-1 0 -26.897504672378957 0 0 1 0 0 0 1 forward_v I I I I #
face $-1 $104 $105 $38 $-1 $106 reversed single #
loop $-1 $-1 $107 $50 #
plane-surface $-1 0 26.897504672378957 0 0 -1 0 0 0 -1 forward_v I I I I #
face $-1 $108 $109 $39 $-1 $110 reversed single #
loop $-1 $-1 $111 $51 #
plane-surface $-1 72.218487598269419 -8.6826504801339794 118.64717708526298 0 -1 0 -0.85716730853699208 0 -0.51503806187062418 forward_v I I I I #
face $-1 $112 $113 $40 $-1 $114 forward single #
loop $-1 $115 $116 $52 #
cone-surface $-1 40.723723014370002 -13.449206610138509 3.5863040675888573 -0.85716730853699208 0 -0.51503806187062418 0.25751903093531209 0 -0.42858365426849604 1 I I 0 1 0.5 forward I I I I #
face $-1 $117 $118 $41 $-1 $119 forward single #
loop $-1 $120 $121 $53 #
cone-surface $-1 40.723723014370002 -10.589272932135792 3.5863040675888573 -0.85716730853699208 0 -0.51503806187062418 0.25751903093531209 0 -0.42858365426849604 1 I I 0 1 0.5 forward I I I I #
face $-1 $122 $123 $42 $-1 $124 reversed single #
loop $-1 $-1 $125 $54 #
plane-surface $-1 72.218487598269419 3.6363195153035539 118.64717708526298 0 -1 0 -0.85716730853699208 0 -0.51503806187062418 forward_v I I I I #
face $-1 $126 $127 $43 $-1 $128 forward single #
loop $-1 $129 $130 $55 #
cone-surface $-1 40.723723014370002 -1.1302366147009764 3.5863040675888573 -0.85716730853699208 0 -0.51503806187062418 0.25751903093531209 0 -0.42858365426849604 1 I I 0 1 0.5 forward I I I I #
face $-1 $131 $132 $44 $-1 $133 forward single #
loop $-1 $134 $135 $56 #
cone-surface $-1 40.723723014370002 1.7296970633017423 3.5863040675888573 -0.85716730853699208 0 -0.51503806187062418 0.25751903093531209 0 -0.42858365426849604 1 I I 0 1 0.5 forward I I I I #
face $-1 $136 $137 $45 $-1 $138 reversed single #
loop $-1 $-1 $139 $57 #
plane-surface $-1 72.218487598269419 15.955289510741089 118.64717708526298 0 -1 0 -0.85716730853699208 0 -0.51503806187062418 forward_v I I I I #
face $-1 $140 $141 $46 $-1 $142 forward single #
loop $-1 $143 $144 $58 #
cone-surface $-1 40.723723014370002 11.188733380736558 3.5863040675888573 -0.85716730853699208 0 -0.51503806187062418 0.25751903093531209 0 -0.42858365426849604 1 I I 0 1 0.5 forward I I I I #
face $-1 $145 $146 $47 $-1 $147 forward single #
loop $-1 $148 $149 $59 #
cone-surface $-1 40.723723014370002 14.048667058739277 3.5863040675888573 -0.85716730853699208 0 -0.51503806187062418 0.25751903093531209 0 -0.42858365426849604 1 I I 0 1 0.5 forward I I I I #
face $-1 $150 $151 $36 $-1 $152 forward single #
loop $-1 $-1 $153 $60 #
plane-surface $-1 0 -26.897504672378957 0 0 1 0 0 0 1 forward_v I I I I #
coedge $-1 $154 $155 $156 $157 reversed $61 $-1 #
face $-1 $158 $159 $37 $-1 $160 reversed single #
loop $-1 $-1 $161 $63 #
plane-surface $-1 0 0 -6.7167010172207888 0 0 1 1 0 0 forward_v I I I I #
coedge $-1 $162 $163 $164 $165 forward $64 $-1 #
face $-1 $166 $167 $38 $-1 $168 reversed single #
loop $-1 $-1 $169 $66 #
plane-surface $-1 0 0 -6.7167010172207888 0 0 1 1 0 0 forward_v I I I I #
coedge $-1 $170 $171 $172 $173 forward $67 $-1 #
face $-1 $174 $175 $39 $-1 $176 reversed single #
loop $-1 $-1 $177 $69 #
plane-surface $-1 -1.2896192466949685 -12.019239771137151 74.479052024791955 0.85716730853699208 0 0.51503806187062418 0.51503806187062418 0 -0.85716730853699208 forward_v I I I I #
coedge $-1 $178 $179 $180 $181 reversed $70 $-1 #
face $-1 $-1 $182 $40 $-1 $183 forward single #
loop $-1 $184 $185 $72 #
cone-surface $-1 40.080847532967255 -13.449206610138509 3.2000255211858892 -0.85716730853699208 0 -0.51503806187062418 0.12875951546765604 0 -0.21429182713424802 1 I I -0.70710678118654746 0.70710678118654746 0.25 forward I I I I #
loop $-1 $-1 $186 $52 #
coedge $-1 $116 $116 $187 $188 reversed $73 $-1 #
face $-1 $-1 $189 $41 $-1 $190 forward single #
loop $-1 $191 $192 $75 #
cone-surface $-1 40.080847532967255 -10.589272932135792 3.2000255211858892 -0.85716730853699208 0 -0.51503806187062418 0.12875951546765604 0 -0.21429182713424802 1 I I -0.70710678118654746 0.70710678118654746 0.25 forward I I I I #
loop $-1 $-1 $193 $53 #
coedge $-1 $121 $121 $194 $195 reversed $76 $-1 #
face $-1 $196 $197 $42 $-1 $198 reversed single #
loop $-1 $-1 $199 $78 #
plane-surface $-1 -1.2896192466949685 0.29973022430038299 74.479052024791955 0.85716730853699208 0 0.51503806187062418 0.51503806187062418 0 -0.85716730853699208 forward_v I I I I #
coedge $-1 $200 $201 $202 $203 reversed $79 $-1 #
face $-1 $-1 $204 $43 $-1 $205 forward single #
loop $-1 $206 $207 $81 #
cone-surface $-1 40.080847532967255 -1.1302366147009764 3.2000255211858892 -0.85716730853699208 0 -0.51503806187062418 0.12875951546765604 0 -0.21429182713424802 1 I I -0.70710678118654746 0.70710678118654746 0.25 forward I I I I #
loop $-1 $-1 $208 $55 #
coedge $-1 $130 $130 $209 $210 reversed $82 $-1 #
face $-1 $-1 $211 $44 $-1 $212 forward single #
loop $-1 $213 $214 $84 #
cone-surface $-1 40.080847532967255 1.7296970633017423 3.2000255211858892 -0.85716730853699208 0 -0.51503806187062418 0.12875951546765604 0 -0.21429182713424802 1 I I -0.70710678118654746 0.70710678118654746 0.25 forward I I I I #
loop $-1 $-1 $215 $56 #
coedge $-1 $135 $135 $216 $217 reversed $85 $-1 #
face $-1 $218 $219 $45 $-1 $220 reversed single #
loop $-1 $-1 $221 $87 #
plane-surface $-1 -1.2896192466949685 12.618700219737917 74.479052024791955 0.85716730853699208 0 0.51503806187062418 0.51503806187062418 0 -0.85716730853699208 forward_v I I I I #
coedge $-1 $222 $223 $224 $225 reversed $88 $-1 #
face $-1 $-1 $226 $46 $-1 $227 forward single #
loop $-1 $228 $229 $90 #
cone-surface $-1 40.080847532967255 11.188733380736558 3.2000255211858892 -0.85716730853699208 0 -0.51503806187062418 0.12875951546765604 0 -0.21429182713424802 1 I I -0.70710678118654746 0.70710678118654746 0.25 forward I I I I #
loop $-1 $-1 $230 $58 #
coedge $-1 $144 $144 $231 $232 reversed $91 $-1 #
face $-1 $-1 $233 $47 $-1 $234 forward single #
loop $-1 $235 $236 $93 #
cone-surface $-1 40.080847532967255 14.048667058739277 3.2000255211858892 -0.85716730853699208 0 -0.51503806187062418 0.12875951546765604 0 -0.21429182713424802 1 I I -0.70710678118654746 0.70710678118654746 0.25 forward I I I I #
loop $-1 $-1 $237 $59 #
coedge $-1 $149 $149 $238 $239 reversed $94 $-1 #
face $-1 $240 $241 $36 $-1 $242 reversed single #
loop $-1 $-1 $243 $96 #
plane-surface $-1 0 0 6.7167010172207888 0 0 1 1 0 0 forward_v I I I I #
coedge $-1 $244 $245 $246 $247 reversed $97 $-1 #
coedge $-1 $248 $99 $249 $250 reversed $61 $-1 #
coedge $-1 $99 $248 $251 $252 forward $61 $-1 #
coedge $-1 $253 $254 $99 $157 forward $241 $-1 #
edge $-1 $255 -42.878505813776059 $256 42.878505813776059 $99 $257 forward 7 unknown #
face $-1 $258 $259 $37 $-1 $260 reversed single #
loop $-1 $-1 $261 $100 #
plane-surface $-1 -32.581104012891437 -35.316554351601617 0 0 1 0 0 0 1 forward_v I I I I #
coedge $-1 $262 $263 $163 $264 forward $101 $-1 #
coedge $-1 $265 $103 $266 $267 reversed $64 $-1 #
coedge $-1 $103 $265 $161 $264 reversed $64 $-1 #
coedge $-1 $268 $269 $103 $165 reversed $259 $-1 #
edge $-1 $270 -6.7167010172207888 $271 6.7167010172207888 $164 $272 forward 7 unknown #
face $-1 $273 $274 $38 $-1 $275 reversed single #
loop $-1 $-1 $276 $104 #
plane-surface $-1 -34.081104012891437 31.107029511990291 0 1 0 0 0 0 -1 forward_v I I I I #
coedge $-1 $277 $278 $171 $279 forward $105 $-1 #
coedge $-1 $280 $107 $281 $282 reversed $67 $-1 #
coedge $-1 $107 $280 $169 $279 reversed $67 $-1 #
coedge $-1 $283 $284 $107 $173 reversed $285 $-1 #
edge $-1 $286 -6.7167010172207888 $287 6.7167010172207888 $172 $288 forward 7 unknown #
face $-1 $289 $290 $39 $-1 $291 forward single #
loop $-1 $-1 $292 $108 #
plane-surface $-1 72.218487598269419 -15.355829062140323 118.64717708526298 0 1 0 0.85716730853699208 0 0.51503806187062418 forward_v I I I I #
coedge $-1 $293 $294 $295 $296 reversed $109 $-1 #
coedge $-1 $179 $111 $297 $298 reversed $70 $-1 #
coedge $-1 $111 $178 $293 $299 reversed $70 $-1 #
coedge $-1 $295 $300 $111 $181 forward $290 $-1 #
edge $-1 $301 -6.7692620146413489 $302 -3.3168637243662431 $180 $303 forward 7 unknown #
loop $-1 $-1 $187 $112 #
plane-surface $-1 -1.2896192466949685 -12.019239771137151 74.479052024791955 0.85716730853699208 0 0.51503806187062418 0.51503806187062418 0 -0.85716730853699208 forward_v I I I I #
loop $-1 $-1 $304 $72 #
coedge $-1 $185 $185 $186 $305 reversed $113 $-1 #
coedge $-1 $186 $186 $185 $305 forward $115 $-1 #
coedge $-1 $187 $187 $116 $188 forward $182 $-1 #
edge $-1 $306 0 $306 6.2831853071796004 $187 $307 forward 7 unknown #
loop $-1 $-1 $194 $117 #
plane-surface $-1 -1.2896192466949685 -12.019239771137151 74.479052024791955 0.85716730853699208 0 0.51503806187062418 0.51503806187062418 0 -0.85716730853699208 forward_v I I I I #
loop $-1 $-1 $308 $75 #
coedge $-1 $192 $192 $193 $309 reversed $118 $-1 #
coedge $-1 $193 $193 $192 $309 forward $120 $-1 #
coedge $-1 $194 $194 $121 $195 forward $189 $-1 #
edge $-1 $310 0 $310 6.2831853071796004 $194 $311 forward 7 unknown #
face $-1 $312 $313 $42 $-1 $314 reversed single #
loop $-1 $-1 $315 $122 #
plane-surface $-1 72.218487598269419 -3.0368590667027879 118.64717708526298 0 1 0 0.85716730853699208 0 0.51503806187062418 forward_v I I I I #
coedge $-1 $316 $317 $318 $319 reversed $123 $-1 #
coedge $-1 $201 $125 $320 $321 reversed $79 $-1 #
coedge $-1 $125 $200 $316 $322 reversed $79 $-1 #
coedge $-1 $318 $323 $125 $203 forward $324 $-1 #
edge $-1 $325 -6.7692620146413489 $326 -3.3168637243662431 $202 $327 forward 7 unknown #
loop $-1 $-1 $209 $126 #
plane-surface $-1 -1.2896192466949685 0.29973022430038299 74.479052024791955 0.85716730853699208 0 0.51503806187062418 0.51503806187062418 0 -0.85716730853699208 forward_v I I I I #
loop $-1 $-1 $328 $81 #
coedge $-1 $207 $207 $208 $329 reversed $127 $-1 #
coedge $-1 $208 $208 $207 $329 forward $129 $-1 #
coedge $-1 $209 $209 $130 $210 forward $204 $-1 #
edge $-1 $330 0 $330 6.2831853071796004 $209 $331 forward 7 unknown #
loop $-1 $-1 $216 $131 #
plane-surface $-1 -1.2896192466949685 0.29973022430038299 74.479052024791955 0.85716730853699208 0 0.51503806187062418 0.51503806187062418 0 -0.85716730853699208 forward_v I I I I #
loop $-1 $-1 $332 $84 #
coedge $-1 $214 $214 $215 $333 reversed $132 $-1 #
coedge $-1 $215 $215 $214 $333 forward $134 $-1 #
coedge $-1 $216 $216 $135 $217 forward $211 $-1 #
edge $-1 $334 0 $334 6.2831853071796004 $216 $335 forward 7 unknown #
face $-1 $336 $337 $45 $-1 $338 reversed single #
loop $-1 $-1 $339 $136 #
plane-surface $-1 72.218487598269419 9.2821109287347454 118.64717708526298 0 1 0 0.85716730853699208 0 0.51503806187062418 forward_v I I I I #
coedge $-1 $340 $341 $342 $343 reversed $137 $-1 #
coedge $-1 $223 $139 $344 $345 reversed $88 $-1 #
coedge $-1 $139 $222 $340 $346 reversed $88 $-1 #
coedge $-1 $342 $347 $139 $225 forward $348 $-1 #
edge $-1 $349 -6.7692620146413489 $350 -3.3168637243662431 $224 $351 forward 7 unknown #
loop $-1 $-1 $231 $140 #
plane-surface $-1 -1.2896192466949685 12.618700219737917 74.479052024791955 0.85716730853699208 0 0.51503806187062418 0.51503806187062418 0 -0.85716730853699208 forward_v I I I I #
loop $-1 $-1 $352 $90 #
coedge $-1 $229 $229 $230 $353 reversed $141 $-1 #
coedge $-1 $230 $230 $229 $353 forward $143 $-1 #
coedge $-1 $231 $231 $144 $232 forward $226 $-1 #
edge $-1 $354 0 $354 6.2831853071796004 $231 $355 forward 7 unknown #
loop $-1 $-1 $238 $145 #
plane-surface $-1 -1.2896192466949685 12.618700219737917 74.479052024791955 0.85716730853699208 0 0.51503806187062418 0.51503806187062418 0 -0.85716730853699208 forward_v I I I I #
loop $-1 $-1 $356 $93 #
coedge $-1 $236 $236 $237 $357 reversed $146 $-1 #
coedge $-1 $237 $237 $236 $357 forward $148 $-1 #
coedge $-1 $238 $238 $149 $239 forward $233 $-1 #
edge $-1 $358 0 $358 6.2831853071796004 $238 $359 forward 7 unknown #
face $-1 $360 $361 $36 $-1 $362 reversed single #
loop $-1 $-1 $253 $150 #
plane-surface $-1 0 0 -6.7167010172207888 0 0 1 1 0 0 forward_v I I I I #
coedge $-1 $363 $364 $365 $366 forward $151 $-1 #
coedge $-1 $367 $153 $368 $369 reversed $97 $-1 #
coedge $-1 $153 $367 $370 $371 forward $97 $-1 #
coedge $-1 $254 $253 $153 $247 forward $241 $-1 #
edge $-1 $372 -42.878505813776059 $373 42.878505813776059 $153 $374 forward 7 unknown #
coedge $-1 $155 $154 $363 $375 reversed $61 $-1 #
coedge $-1 $376 $377 $154 $250 forward $361 $-1 #
edge $-1 $378 -6.7167010172207888 $255 6.7167010172207888 $154 $379 forward 7 unknown #
coedge $-1 $365 $380 $155 $252 reversed $381 $-1 #
edge $-1 $382 -6.7167010172207888 $256 6.7167010172207888 $251 $383 forward 7 unknown #
coedge $-1 $246 $156 $380 $384 forward $241 $-1 #
coedge $-1 $156 $246 $376 $385 forward $241 $-1 #
vertex $-1 $157 $386 #
vertex $-1 $384 $387 #
straight-curve $-1 0 26.897504672378957 -6.7167010172207888 1 0 0 I I #
face $-1 $388 $389 $37 $-1 $390 reversed single #
loop $-1 $-1 $164 $158 #
plane-surface $-1 -34.081104012891437 -31.107029511990287 0 1 0 0 0 0 -1 forward_v I I I I #
coedge $-1 $391 $392 $393 $394 forward $159 $-1 #
coedge $-1 $395 $161 $396 $397 forward $101 $-1 #
coedge $-1 $161 $395 $268 $398 forward $101 $-1 #
edge $-1 $270 -34.081104012891437 $399 -31.081104012891437 $161 $400 forward 7 unknown #
coedge $-1 $163 $162 $401 $402 forward $64 $-1 #
coedge $-1 $403 $404 $162 $267 forward $405 $-1 #
edge $-1 $406 31.081104012891437 $271 34.081104012891437 $266 $407 forward 7 unknown #
coedge $-1 $393 $164 $263 $398 reversed $259 $-1 #
coedge $-1 $164 $393 $403 $408 reversed $259 $-1 #
vertex $-1 $264 $409 #
vertex $-1 $408 $410 #
straight-curve $-1 -34.081104012891437 -26.897504672378957 0 0 0 1 I I #
face $-1 $411 $285 $38 $-1 $412 reversed single #
loop $-1 $-1 $413 $166 #
plane-surface $-1 -32.581104012891437 35.316554351601624 0 0 -1 0 0 0 -1 forward_v I I I I #
coedge $-1 $414 $415 $416 $417 forward $167 $-1 #
coedge $-1 $418 $169 $414 $419 forward $105 $-1 #
coedge $-1 $169 $418 $283 $420 forward $105 $-1 #
edge $-1 $286 31.081104012891437 $421 34.081104012891437 $169 $422 forward 7 unknown #
coedge $-1 $171 $170 $423 $424 forward $67 $-1 #
coedge $-1 $425 $426 $170 $282 forward $427 $-1 #
edge $-1 $428 -34.081104012891437 $287 -31.081104012891437 $281 $429 forward 7 unknown #
coedge $-1 $430 $172 $278 $420 reversed $285 $-1 #
coedge $-1 $172 $430 $425 $431 reversed $285 $-1 #
loop $-1 $-1 $172 $273 #
vertex $-1 $279 $432 #
vertex $-1 $431 $433 #
straight-curve $-1 -31.081104012891437 26.897504672378957 0 0 0 1 I I #
face $-1 $-1 $434 $39 $-1 $435 reversed single #
loop $-1 $-1 $180 $174 #
plane-surface $-1 0 0 6.7167010172207888 0 0 1 1 0 0 forward_v I I I I #
coedge $-1 $436 $437 $438 $439 reversed $175 $-1 #
coedge $-1 $440 $177 $179 $299 forward $109 $-1 #
coedge $-1 $177 $440 $436 $441 forward $109 $-1 #
coedge $-1 $438 $180 $177 $296 forward $290 $-1 #
edge $-1 $302 2.6730305945654038 $442 9.3462091765717474 $295 $443 forward 7 unknown #
coedge $-1 $444 $445 $178 $298 forward $434 $-1 #
edge $-1 $446 -58.35264336280391 $301 -52.606887525410698 $297 $447 forward 7 unknown #
edge $-1 $302 79.053821036674336 $446 85.757011627552131 $179 $448 forward 7 unknown #
coedge $-1 $180 $438 $444 $449 forward $290 $-1 #
vertex $-1 $181 $450 #
vertex $-1 $181 $451 #
straight-curve $-1 36.10924379913471 -8.6826504801339794 6.7167010172207853 -1 0 0 I I #
coedge $-1 $304 $304 $-1 $452 reversed $184 $-1 #
edge $-1 $453 0 $453 6.2831853071796004 $185 $454 forward 7 unknown #
vertex $-1 $188 $455 #
ellipse-curve $-1 41.152306668638502 -13.449206610138509 3.8438230985241733 0.85716730853699208 0 0.51503806187062418 0.25751903093531209 0 -0.42858365426849604 1 I I #
coedge $-1 $308 $308 $-1 $456 reversed $191 $-1 #
edge $-1 $457 0 $457 6.2831853071796004 $192 $458 forward 7 unknown #
vertex $-1 $195 $459 #
ellipse-curve $-1 41.152306668638502 -10.589272932135792 3.8438230985241733 0.85716730853699208 0 0.51503806187062418 0.25751903093531209 0 -0.42858365426849604 1 I I #
face $-1 $-1 $324 $42 $-1 $460 forward single #
loop $-1 $-1 $461 $196 #
plane-surface $-1 42.878505813776059 0 0 -1 0 0 0 0 1 forward_v I I I I #
coedge $-1 $462 $463 $464 $465 reversed $197 $-1 #
coedge $-1 $466 $199 $201 $322 forward $123 $-1 #
coedge $-1 $199 $466 $462 $467 forward $123 $-1 #
coedge $-1 $464 $202 $199 $319 forward $324 $-1 #
edge $-1 $326 -3.4864544031533624 $468 3.1867241788529794 $318 $469 forward 7 unknown #
coedge $-1 $470 $471 $200 $321 forward $313 $-1 #
edge $-1 $472 -58.35264336280391 $325 -52.606887525410698 $320 $473 forward 7 unknown #
edge $-1 $326 79.053821036674336 $472 85.757011627552131 $201 $474 forward 7 unknown #
coedge $-1 $202 $464 $470 $475 forward $324 $-1 #
loop $-1 $-1 $464 $312 #
vertex $-1 $321 $476 #
vertex $-1 $203 $477 #
straight-curve $-1 36.10924379913471 3.6363195153035539 6.7167010172207853 -1 0 0 I I #
coedge $-1 $328 $328 $-1 $478 reversed $206 $-1 #
edge $-1 $479 0 $479 6.2831853071796004 $207 $480 forward 7 unknown #
vertex $-1 $210 $481 #
ellipse-curve $-1 41.152306668638502 -1.1302366147009764 3.8438230985241733 0.85716730853699208 0 0.51503806187062418 0.25751903093531209 0 -0.42858365426849604 1 I I #
coedge $-1 $332 $332 $-1 $482 reversed $213 $-1 #
edge $-1 $483 0 $483 6.2831853071796004 $214 $484 forward 7 unknown #
vertex $-1 $217 $485 #
ellipse-curve $-1 41.152306668638502 1.7296970633017423 3.8438230985241733 0.85716730853699208 0 0.51503806187062418 0.25751903093531209 0 -0.42858365426849604 1 I I #
face $-1 $-1 $348 $45 $-1 $486 forward single #
loop $-1 $-1 $487 $218 #
plane-surface $-1 42.878505813776059 0 0 -1 0 0 0 0 1 forward_v I I I I #
coedge $-1 $488 $489 $490 $491 reversed $219 $-1 #
coedge $-1 $492 $221 $223 $346 forward $137 $-1 #
coedge $-1 $221 $492 $488 $493 forward $137 $-1 #
coedge $-1 $490 $224 $221 $343 forward $348 $-1 #
edge $-1 $350 -9.6459394008721304 $494 -2.9727608188657868 $342 $495 forward 7 unknown #
coedge $-1 $496 $497 $222 $345 forward $337 $-1 #
edge $-1 $498 -58.35264336280391 $349 -52.606887525410698 $344 $499 forward 7 unknown #
edge $-1 $350 79.053821036674336 $498 85.757011627552131 $223 $500 forward 7 unknown #
coedge $-1 $224 $490 $496 $501 forward $348 $-1 #
loop $-1 $-1 $490 $336 #
vertex $-1 $345 $502 #
vertex $-1 $225 $503 #
straight-curve $-1 36.10924379913471 15.955289510741089 6.7167010172207853 -1 0 0 I I #
coedge $-1 $352 $352 $-1 $504 reversed $228 $-1 #
edge $-1 $505 0 $505 6.2831853071796004 $229 $506 forward 7 unknown #
vertex $-1 $232 $507 #
ellipse-curve $-1 41.152306668638502 11.188733380736558 3.8438230985241733 0.85716730853699208 0 0.51503806187062418 0.25751903093531209 0 -0.42858365426849604 1 I I #
coedge $-1 $356 $356 $-1 $508 reversed $235 $-1 #
edge $-1 $509 0 $509 6.2831853071796004 $236 $510 forward 7 unknown #
vertex $-1 $239 $511 #
ellipse-curve $-1 41.152306668638502 14.048667058739277 3.8438230985241733 0.85716730853699208 0 0.51503806187062418 0.25751903093531209 0 -0.42858365426849604 1 I I #
face $-1 $-1 $381 $36 $-1 $512 reversed single #
loop $-1 $-1 $249 $240 #
plane-surface $-1 -42.878505813776059 0 0 1 0 0 0 0 -1 forward_v I I I I #
coedge $-1 $513 $243 $248 $375 forward $151 $-1 #
coedge $-1 $243 $513 $367 $514 forward $151 $-1 #
coedge $-1 $368 $251 $243 $366 reversed $381 $-1 #
edge $-1 $515 -26.897504672378957 $382 26.897504672378957 $365 $516 forward 7 unknown #
coedge $-1 $245 $244 $364 $514 reversed $97 $-1 #
coedge $-1 $380 $365 $244 $369 forward $381 $-1 #
edge $-1 $515 -6.7167010172207888 $372 6.7167010172207888 $368 $517 forward 7 unknown #
coedge $-1 $377 $376 $245 $371 reversed $361 $-1 #
edge $-1 $518 -6.7167010172207888 $373 6.7167010172207888 $370 $519 forward 7 unknown #
vertex $-1 $369 $520 #
vertex $-1 $385 $521 #
straight-curve $-1 0 -26.897504672378957 -6.7167010172207888 -1 0 0 I I #
edge $-1 $382 -42.878505813776059 $378 42.878505813776059 $248 $522 forward 7 unknown #
coedge $-1 $370 $249 $254 $385 reversed $361 $-1 #
coedge $-1 $249 $370 $513 $523 reversed $361 $-1 #
vertex $-1 $375 $524 #
straight-curve $-1 -42.878505813776059 26.897504672378957 0 0 0 -1 I I #
coedge $-1 $251 $368 $253 $384 reversed $381 $-1 #
loop $-1 $-1 $368 $360 #
vertex $-1 $366 $525 #
straight-curve $-1 42.878505813776059 26.897504672378957 0 0 0 -1 I I #
edge $-1 $256 -26.897504672378957 $372 26.897504672378957 $380 $526 forward 7 unknown #
edge $-1 $373 -26.897504672378957 $255 26.897504672378957 $376 $527 forward 7 unknown #
point $-1 -42.878505813776059 26.897504672378957 -6.7167010172207888 #
point $-1 42.878505813776059 26.897504672378957 -6.7167010172207888 #
face $-1 $-1 $405 $37 $-1 $528 forward single #
loop $-1 $-1 $529 $258 #
plane-surface $-1 -31.081104012891437 -31.107029511990287 0 -1 0 0 0 0 1 forward_v I I I I #
coedge $-1 $530 $261 $395 $531 reversed $159 $-1 #
coedge $-1 $261 $530 $532 $533 reversed $159 $-1 #
coedge $-1 $269 $268 $261 $394 reversed $259 $-1 #
edge $-1 $534 -6.7167010172207888 $535 6.7167010172207888 $393 $536 forward 7 unknown #
coedge $-1 $263 $262 $391 $531 forward $101 $-1 #
coedge $-1 $401 $529 $262 $397 reversed $389 $-1 #
edge $-1 $399 -4.2095248396113298 $537 4.2095248396113298 $396 $538 forward 7 unknown #
edge $-1 $535 -4.2095248396113298 $270 4.2095248396113298 $268 $539 forward 7 unknown #
vertex $-1 $397 $540 #
straight-curve $-1 0 -26.897504672378957 -6.7167010172207888 1 0 0 I I #
coedge $-1 $541 $396 $265 $402 reversed $389 $-1 #
edge $-1 $406 -6.7167010172207888 $399 6.7167010172207888 $401 $542 forward 7 unknown #
coedge $-1 $532 $266 $269 $408 forward $405 $-1 #
coedge $-1 $266 $532 $541 $543 forward $405 $-1 #
loop $-1 $-1 $266 $388 #
vertex $-1 $267 $544 #
straight-curve $-1 0 -26.897504672378957 6.7167010172207888 -1 0 0 I I #
edge $-1 $271 -4.2095248396113298 $534 4.2095248396113298 $269 $545 forward 7 unknown #
point $-1 -34.081104012891437 -26.897504672378957 -6.7167010172207888 #
point $-1 -34.081104012891437 -26.897504672378957 6.7167010172207888 #
face $-1 $-1 $427 $38 $-1 $546 forward single #
plane-surface $-1 -31.081104012891437 31.107029511990291 0 -1 0 0 0 0 1 forward_v I I I I #
coedge $-1 $547 $548 $430 $549 forward $274 $-1 #
coedge $-1 $423 $276 $277 $419 reversed $167 $-1 #
coedge $-1 $276 $423 $426 $550 reversed $167 $-1 #
coedge $-1 $548 $547 $276 $417 reversed $274 $-1 #
edge $-1 $551 -6.7167010172207888 $552 6.7167010172207888 $416 $553 forward 7 unknown #
coedge $-1 $278 $277 $547 $554 forward $105 $-1 #
edge $-1 $421 -4.2095248396113298 $552 4.2095248396113334 $414 $555 forward 7 unknown #
edge $-1 $556 -4.2095248396113334 $286 4.2095248396113298 $283 $557 forward 7 unknown #
vertex $-1 $419 $558 #
straight-curve $-1 0 26.897504672378957 -6.7167010172207888 -1 0 0 I I #
coedge $-1 $415 $414 $280 $424 reversed $167 $-1 #
edge $-1 $428 -6.7167010172207888 $421 6.7167010172207888 $423 $559 forward 7 unknown #
coedge $-1 $560 $281 $284 $431 forward $427 $-1 #
coedge $-1 $281 $560 $415 $550 forward $427 $-1 #
loop $-1 $-1 $281 $411 #
vertex $-1 $282 $561 #
straight-curve $-1 0 26.897504672378957 6.7167010172207888 1 0 0 I I #
coedge $-1 $284 $283 $413 $549 reversed $285 $-1 #
edge $-1 $287 -4.2095248396113298 $562 4.2095248396113334 $284 $563 forward 7 unknown #
point $-1 -31.081104012891437 26.897504672378961 -6.7167010172207888 #
point $-1 -31.081104012891437 26.897504672378961 6.7167010172207888 #
loop $-1 $-1 $297 $289 #
plane-surface $-1 42.878505813776059 0 0 -1 0 0 0 0 1 forward_v I I I I #
coedge $-1 $437 $292 $294 $441 reversed $175 $-1 #
coedge $-1 $292 $436 $564 $565 reversed $175 $-1 #
coedge $-1 $300 $295 $292 $439 forward $290 $-1 #
edge $-1 $442 3.3168637243662431 $566 6.7692620146413489 $438 $567 forward 7 unknown #
coedge $-1 $294 $293 $445 $568 reversed $109 $-1 #
edge $-1 $569 -85.757011627552131 $442 -79.053821036674336 $436 $570 forward 7 unknown #
vertex $-1 $296 $571 #
straight-curve $-1 39.426107523500953 -6.0096198855685756 6.7167010172207853 0 -1 0 I I #
coedge $-1 $564 $297 $300 $449 reversed $434 $-1 #
coedge $-1 $297 $564 $440 $568 forward $434 $-1 #
vertex $-1 $298 $572 #
straight-curve $-1 42.878505813776059 -8.6826504801339794 59.323588542631491 0 0 1 I I #
straight-curve $-1 -1.2896192466949685 -8.6826504801339794 74.479052024791955 0.51503806187062418 0 -0.85716730853699208 I I #
edge $-1 $566 -15.355829062140323 $301 -8.6826504801339794 $444 $573 forward 7 unknown #
point $-1 42.878505813776059 -8.6826504801339794 6.7167010172207888 #
point $-1 39.426107523500953 -8.6826504801339794 6.7167010172207853 #
edge $-1 $574 1 $574 0 $304 $-1 forward 7 unknown #
vertex $-1 $305 $575 #
ellipse-curve $-1 40.295139360101501 -13.449206610138509 3.3287850366535454 0.85716730853699208 0 0.51503806187062418 0.25751903093531209 0 -0.42858365426849604 1 I I #
point $-1 41.409825699573808 -13.449206610138509 3.4152394442556733 #
edge $-1 $576 1 $576 0 $308 $-1 forward 7 unknown #
vertex $-1 $309 $577 #
ellipse-curve $-1 40.295139360101501 -10.589272932135792 3.3287850366535454 0.85716730853699208 0 0.51503806187062418 0.25751903093531209 0 -0.42858365426849604 1 I I #
point $-1 41.409825699573808 -10.589272932135792 3.4152394442556733 #
plane-surface $-1 0 0 6.7167010172207888 0 0 1 1 0 0 forward_v I I I I #
coedge $-1 $471 $470 $463 $578 forward $313 $-1 #
coedge $-1 $463 $315 $317 $467 reversed $197 $-1 #
coedge $-1 $315 $462 $461 $578 reversed $197 $-1 #
coedge $-1 $323 $318 $315 $465 forward $324 $-1 #
edge $-1 $468 3.3168637243662431 $579 6.7692620146413489 $464 $580 forward 7 unknown #
coedge $-1 $317 $316 $471 $581 reversed $123 $-1 #
edge $-1 $582 -85.757011627552131 $468 -79.053821036674336 $462 $583 forward 7 unknown #
vertex $-1 $319 $584 #
straight-curve $-1 39.426107523500953 0.14986511215019149 6.7167010172207853 0 -1 0 I I #
coedge $-1 $461 $320 $323 $475 reversed $313 $-1 #
coedge $-1 $320 $461 $466 $581 forward $313 $-1 #
vertex $-1 $321 $585 #
straight-curve $-1 42.878505813776059 3.6363195153035539 59.323588542631491 0 0 1 I I #
straight-curve $-1 -1.2896192466949685 3.6363195153035539 74.479052024791955 0.51503806187062418 0 -0.85716730853699208 I I #
edge $-1 $579 -3.0368590667027879 $325 3.6363195153035539 $470 $586 forward 7 unknown #
point $-1 42.878505813776059 3.6363195153035539 6.7167010172207888 #
point $-1 39.426107523500953 3.6363195153035539 6.7167010172207853 #
edge $-1 $587 1 $587 0 $328 $-1 forward 7 unknown #
vertex $-1 $329 $588 #
ellipse-curve $-1 40.295139360101501 -1.1302366147009764 3.3287850366535454 0.85716730853699208 0 0.51503806187062418 0.25751903093531209 0 -0.42858365426849604 1 I I #
point $-1 41.409825699573808 -1.1302366147009764 3.4152394442556733 #
edge $-1 $589 1 $589 0 $332 $-1 forward 7 unknown #
vertex $-1 $333 $590 #
ellipse-curve $-1 40.295139360101501 1.7296970633017423 3.3287850366535454 0.85716730853699208 0 0.51503806187062418 0.25751903093531209 0 -0.42858365426849604 1 I I #
point $-1 41.409825699573808 1.7296970633017423 3.4152394442556733 #
plane-surface $-1 0 0 6.7167010172207888 0 0 1 1 0 0 forward_v I I I I #
coedge $-1 $497 $496 $489 $591 forward $337 $-1 #
coedge $-1 $489 $339 $341 $493 reversed $219 $-1 #
coedge $-1 $339 $488 $487 $591 reversed $219 $-1 #
coedge $-1 $347 $342 $339 $491 forward $348 $-1 #
edge $-1 $494 3.3168637243662431 $592 6.7692620146413489 $490 $593 forward 7 unknown #
coedge $-1 $341 $340 $497 $594 reversed $137 $-1 #
edge $-1 $595 -85.757011627552131 $494 -79.053821036674336 $488 $596 forward 7 unknown #
vertex $-1 $343 $597 #
straight-curve $-1 39.426107523500953 6.3093501098689586 6.7167010172207853 0 -1 0 I I #
coedge $-1 $487 $344 $347 $501 reversed $337 $-1 #
coedge $-1 $344 $487 $492 $594 forward $337 $-1 #
vertex $-1 $345 $598 #
straight-curve $-1 42.878505813776059 15.955289510741089 59.323588542631491 0 0 1 I I #
straight-curve $-1 -1.2896192466949685 15.955289510741089 74.479052024791955 0.51503806187062418 0 -0.85716730853699208 I I #
edge $-1 $592 9.2821109287347454 $349 15.955289510741089 $496 $599 forward 7 unknown #
point $-1 42.878505813776059 15.955289510741089 6.7167010172207888 #
point $-1 39.426107523500953 15.955289510741089 6.7167010172207853 #
edge $-1 $600 1 $600 0 $352 $-1 forward 7 unknown #
vertex $-1 $353 $601 #
ellipse-curve $-1 40.295139360101501 11.188733380736558 3.3287850366535454 0.85716730853699208 0 0.51503806187062418 0.25751903093531209 0 -0.42858365426849604 1 I I #
point $-1 41.409825699573808 11.188733380736558 3.4152394442556733 #
edge $-1 $602 1 $602 0 $356 $-1 forward 7 unknown #
vertex $-1 $357 $603 #
ellipse-curve $-1 40.295139360101501 14.048667058739277 3.3287850366535454 0.85716730853699208 0 0.51503806187062418 0.25751903093531209 0 -0.42858365426849604 1 I I #
point $-1 41.409825699573808 14.048667058739277 3.4152394442556733 #
plane-surface $-1 42.878505813776059 0 0 -1 0 0 0 0 1 forward_v I I I I #
coedge $-1 $364 $363 $377 $523 forward $151 $-1 #
edge $-1 $518 -42.878505813776059 $515 42.878505813776059 $367 $604 forward 7 unknown #
vertex $-1 $366 $605 #
straight-curve $-1 42.878505813776059 0 6.7167010172207888 0 1 0 I I #
straight-curve $-1 42.878505813776059 -26.897504672378957 0 0 0 -1 I I #
vertex $-1 $523 $606 #
straight-curve $-1 -42.878505813776059 -26.897504672378957 0 0 0 -1 I I #
point $-1 42.878505813776059 -26.897504672378957 -6.7167010172207888 #
point $-1 -42.878505813776059 -26.897504672378957 -6.7167010172207888 #
straight-curve $-1 0 26.897504672378957 6.7167010172207888 -1 0 0 I I #
edge $-1 $378 -26.897504672378957 $518 26.897504672378957 $377 $607 forward 7 unknown #
point $-1 -42.878505813776059 26.897504672378957 6.7167010172207888 #
point $-1 42.878505813776059 26.897504672378957 6.7167010172207888 #
straight-curve $-1 42.878505813776059 0 -6.7167010172207888 0 -1 0 I I #
straight-curve $-1 -42.878505813776059 0 -6.7167010172207888 0 1 0 I I #
plane-surface $-1 0 0 6.7167010172207888 0 0 1 1 0 0 forward_v I I I I #
coedge $-1 $396 $541 $530 $608 forward $389 $-1 #
coedge $-1 $392 $391 $529 $608 reversed $159 $-1 #
edge $-1 $537 -1.5 $535 1.5 $391 $609 forward 7 unknown #
coedge $-1 $404 $403 $392 $533 forward $405 $-1 #
edge $-1 $534 -1.5 $610 1.5 $392 $611 forward 7 unknown #
vertex $-1 $408 $612 #
vertex $-1 $398 $613 #
straight-curve $-1 -34.081104012891437 -35.316554351601617 0 0 0 -1 I I #
vertex $-1 $608 $614 #
straight-curve $-1 -31.081104012891437 -31.107029511990287 -6.7167010172207888 0 -1 0 I I #
straight-curve $-1 -34.081104012891437 -31.107029511990287 -6.7167010172207888 0 1 0 I I #
point $-1 -31.081104012891437 -26.897504672378957 -6.7167010172207888 #
coedge $-1 $529 $401 $404 $543 reversed $389 $-1 #
straight-curve $-1 -31.081104012891437 -26.897504672378957 0 0 0 -1 I I #
edge $-1 $610 -4.2095248396113298 $406 4.2095248396113298 $541 $615 forward 7 unknown #
point $-1 -31.081104012891437 -26.897504672378957 6.7167010172207888 #
straight-curve $-1 -34.081104012891437 -31.107029511990287 6.7167010172207888 0 -1 0 I I #
plane-surface $-1 0 0 6.7167010172207888 0 0 1 1 0 0 forward_v I I I I #
coedge $-1 $416 $413 $418 $554 reversed $274 $-1 #
coedge $-1 $413 $416 $560 $616 reversed $274 $-1 #
edge $-1 $562 -6.7167010172207888 $556 6.7167010172207888 $430 $617 forward 7 unknown #
edge $-1 $551 -4.2095248396113334 $428 4.2095248396113298 $415 $618 forward 7 unknown #
vertex $-1 $616 $619 #
vertex $-1 $554 $620 #
straight-curve $-1 -34.081104012891437 35.316554351601624 0 0 0 -1 I I #
edge $-1 $552 -1.5 $556 1.5 $547 $621 forward 7 unknown #
straight-curve $-1 -34.081104012891437 31.107029511990291 -6.7167010172207888 0 1 0 I I #
vertex $-1 $420 $622 #
straight-curve $-1 -31.081104012891437 31.107029511990291 -6.7167010172207888 0 -1 0 I I #
point $-1 -34.081104012891437 26.897504672378961 -6.7167010172207888 #
straight-curve $-1 -34.081104012891437 26.897504672378957 0 0 0 -1 I I #
coedge $-1 $426 $425 $548 $616 forward $427 $-1 #
point $-1 -34.081104012891437 26.897504672378961 6.7167010172207888 #
vertex $-1 $431 $623 #
straight-curve $-1 -31.081104012891437 31.107029511990291 6.7167010172207888 0 1 0 I I #
coedge $-1 $445 $444 $437 $565 forward $434 $-1 #
edge $-1 $566 52.606887525410698 $569 58.35264336280391 $564 $624 forward 7 unknown #
vertex $-1 $449 $625 #
straight-curve $-1 36.10924379913471 -15.355829062140323 6.7167010172207853 1 0 0 I I #
edge $-1 $569 -9.3462091765717474 $446 -2.6730305945654038 $445 $626 forward 7 unknown #
vertex $-1 $568 $627 #
straight-curve $-1 -1.2896192466949685 -15.355829062140323 74.479052024791955 -0.51503806187062418 0 0.85716730853699208 I I #
point $-1 39.426107523500953 -15.355829062140323 6.7167010172207853 #
point $-1 42.878505813776059 -8.6826504801339794 0.97094517982758077 #
straight-curve $-1 42.878505813776059 0 6.7167010172207888 0 1 0 I I #
vertex $-1 $452 $628 #
point $-1 40.552658391036815 -13.449206610138509 2.900201382385049 #
vertex $-1 $456 $629 #
point $-1 40.552658391036815 -10.589272932135792 2.900201382385049 #
edge $-1 $579 52.606887525410698 $582 58.35264336280391 $461 $630 forward 7 unknown #
vertex $-1 $475 $631 #
straight-curve $-1 36.10924379913471 -3.0368590667027879 6.7167010172207853 1 0 0 I I #
edge $-1 $582 -3.1867241788529794 $472 3.4864544031533624 $471 $632 forward 7 unknown #
vertex $-1 $581 $633 #
straight-curve $-1 -1.2896192466949685 -3.0368590667027879 74.479052024791955 -0.51503806187062418 0 0.85716730853699208 I I #
point $-1 39.426107523500953 -3.0368590667027879 6.7167010172207853 #
point $-1 42.878505813776059 3.6363195153035539 0.97094517982758077 #
straight-curve $-1 42.878505813776059 0 6.7167010172207888 0 1 0 I I #
vertex $-1 $478 $634 #
point $-1 40.552658391036815 -1.1302366147009764 2.900201382385049 #
vertex $-1 $482 $635 #
point $-1 40.552658391036815 1.7296970633017423 2.900201382385049 #
edge $-1 $592 52.606887525410698 $595 58.35264336280391 $487 $636 forward 7 unknown #
vertex $-1 $501 $637 #
straight-curve $-1 36.10924379913471 9.2821109287347454 6.7167010172207853 1 0 0 I I #
edge $-1 $595 2.9727608188657868 $498 9.6459394008721304 $497 $638 forward 7 unknown #
vertex $-1 $594 $639 #
straight-curve $-1 -1.2896192466949685 9.2821109287347454 74.479052024791955 -0.51503806187062418 0 0.85716730853699208 I I #
point $-1 39.426107523500953 9.2821109287347454 6.7167010172207853 #
point $-1 42.878505813776059 15.955289510741089 0.97094517982758077 #
straight-curve $-1 42.878505813776059 0 6.7167010172207888 0 1 0 I I #
vertex $-1 $504 $640 #
point $-1 40.552658391036815 11.188733380736558 2.900201382385049 #
vertex $-1 $508 $641 #
point $-1 40.552658391036815 14.048667058739277 2.900201382385049 #
straight-curve $-1 0 -26.897504672378957 6.7167010172207888 1 0 0 I I #
point $-1 42.878505813776059 -26.897504672378957 6.7167010172207888 #
point $-1 -42.878505813776059 -26.897504672378957 6.7167010172207888 #
straight-curve $-1 -42.878505813776059 0 6.7167010172207888 0 -1 0 I I #
edge $-1 $610 -6.7167010172207888 $537 6.7167010172207888 $529 $642 forward 7 unknown #
straight-curve $-1 -32.581104012891437 -35.316554351601617 -6.7167010172207888 -1 0 0 I I #
vertex $-1 $543 $643 #
straight-curve $-1 -32.581104012891437 -35.316554351601617 6.7167010172207888 1 0 0 I I #
point $-1 -34.081104012891437 -35.316554351601617 6.7167010172207888 #
point $-1 -34.081104012891437 -35.316554351601617 -6.7167010172207888 #
point $-1 -31.081104012891437 -35.316554351601617 -6.7167010172207888 #
straight-curve $-1 -31.081104012891437 -31.107029511990287 6.7167010172207888 0 1 0 I I #
edge $-1 $562 -1.5 $551 1.5 $548 $644 forward 7 unknown #
straight-curve $-1 -31.081104012891437 35.316554351601624 0 0 0 -1 I I #
straight-curve $-1 -34.081104012891437 31.107029511990291 6.7167010172207888 0 -1 0 I I #
point $-1 -34.081104012891437 35.316554351601624 6.7167010172207888 #
point $-1 -34.081104012891437 35.316554351601624 -6.7167010172207888 #
straight-curve $-1 -32.581104012891437 35.316554351601624 -6.7167010172207888 1 0 0 I I #
point $-1 -31.081104012891437 35.316554351601624 -6.7167010172207888 #
point $-1 -31.081104012891437 35.316554351601624 6.7167010172207888 #
straight-curve $-1 42.878505813776059 -15.355829062140323 59.323588542631491 0 0 -1 I I #
point $-1 42.878505813776059 -15.355829062140323 6.7167010172207888 #
straight-curve $-1 42.878505813776059 -6.0096198855685756 0.97094517982756656 0 1 0 I I #
point $-1 42.878505813776059 -15.355829062140323 0.97094517982758077 #
point $-1 39.866555705833008 -13.449206610138509 3.071266005718233 #
point $-1 39.866555705833008 -10.589272932135792 3.071266005718233 #
straight-curve $-1 42.878505813776059 -3.0368590667027879 59.323588542631491 0 0 -1 I I #
point $-1 42.878505813776059 -3.0368590667027879 6.7167010172207888 #
straight-curve $-1 42.878505813776059 0.14986511215019149 0.97094517982756656 0 1 0 I I #
point $-1 42.878505813776059 -3.0368590667027879 0.97094517982758077 #
point $-1 39.866555705833008 -1.1302366147009764 3.071266005718233 #
point $-1 39.866555705833008 1.7296970633017423 3.071266005718233 #
straight-curve $-1 42.878505813776059 9.2821109287347454 59.323588542631491 0 0 -1 I I #
point $-1 42.878505813776059 9.2821109287347454 6.7167010172207888 #
straight-curve $-1 42.878505813776059 6.3093501098689586 0.97094517982756656 0 1 0 I I #
point $-1 42.878505813776059 9.2821109287347454 0.97094517982758077 #
point $-1 39.866555705833008 11.188733380736558 3.071266005718233 #
point $-1 39.866555705833008 14.048667058739277 3.071266005718233 #
straight-curve $-1 -31.081104012891437 -35.316554351601617 0 0 0 -1 I I #
point $-1 -31.081104012891437 -35.316554351601617 6.7167010172207888 #
straight-curve $-1 -32.581104012891437 35.316554351601624 6.7167010172207888 -1 0 0 I I #
End-of-ACIS-data 