500 0 17 0           
7 Unknown 11 ACIS 5.0 NT 24 Fri Mar 26 15:23:00 1999 
-1 9.9999999999999995e-007 1e-010 
body $-1 $17 $-1 $18 #
body $-1 $19 $-1 $20 #
body $-1 $21 $-1 $22 #
body $-1 $23 $-1 $24 #
body $-1 $25 $-1 $26 #
body $-1 $27 $-1 $28 #
body $-1 $29 $-1 $30 #
body $-1 $31 $-1 $32 #
body $-1 $33 $-1 $34 #
body $-1 $35 $-1 $36 #
body $-1 $37 $-1 $38 #
body $-1 $39 $-1 $40 #
body $-1 $41 $-1 $42 #
body $-1 $43 $-1 $44 #
body $-1 $45 $-1 $46 #
body $-1 $47 $-1 $48 #
body $-1 $49 $-1 $50 #
lump $-1 $-1 $51 $0 #
transform $-1 1 0 0 0 1 0 0 0 1 45.992614520706809 19.215219428208869 7.511803790019969 1 rotate no_reflect no_shear #
lump $-1 $-1 $52 $1 #
transform $-1 0.52991925155115449 0 -0.84804810408105047 0 1 0 0.84804810408105047 0 0.52991925155115449 121.24838440605819 8.8136339855912116 134.45528983747272 1 rotate no_reflect no_shear #
lump $-1 $-1 $53 $2 #
transform $-1 0.52991925155115449 0 -0.84804810408105047 0 -1 0 -0.84804810408105047 0 -0.52991925155115449 87.797446826476062 6.7406438343377566 10.175587911210854 1 rotate no_reflect no_shear #
lump $-1 $-1 $54 $3 #
transform $-1 0.52991925155115449 0 -0.84804810408105047 0 -1 0 -0.84804810408105047 0 -0.52991925155115449 87.797446826476062 8.8136339855912116 10.175587911210854 1 rotate no_reflect no_shear #
lump $-1 $-1 $55 $4 #
transform $-1 0.52991925155115449 0 -0.84804810408105047 0 -1 0 -0.84804810408105047 0 -0.52991925155115449 87.797446826476062 10.886624136844667 10.175587911210854 1 rotate no_reflect no_shear #
lump $-1 $-1 $56 $5 #
transform $-1 0.52991925155115449 0 -0.84804810408105047 0 1 0 0.84804810408105047 0 0.52991925155115449 121.24838440605819 28.028853413800078 134.45528983747272 1 rotate no_reflect no_shear #
lump $-1 $-1 $57 $6 #
transform $-1 0.52991925155115449 0 -0.84804810408105047 0 -1 0 -0.84804810408105047 0 -0.52991925155115449 87.797446826476062 25.955863262546625 10.175587911210854 1 rotate no_reflect no_shear #
lump $-1 $-1 $58 $7 #
transform $-1 0.52991925155115449 0 -0.84804810408105047 0 -1 0 -0.84804810408105047 0 -0.52991925155115449 87.797446826476062 28.028853413800078 10.175587911210854 1 rotate no_reflect no_shear #
lump $-1 $-1 $59 $8 #
transform $-1 0.52991925155115449 0 -0.84804810408105047 0 -1 0 -0.84804810408105047 0 -0.52991925155115449 87.797446826476062 30.101843565053535 10.175587911210854 1 rotate no_reflect no_shear #
lump $-1 $-1 $60 $9 #
transform $-1 0.52991925155115449 0 0.84804810408105047 0 1 0 -0.84804810408105047 0 0.52991925155115449 -78.007899092031991 8.8136339855912116 56.447390745440707 1 rotate no_reflect no_shear #
lump $-1 $-1 $61 $10 #
transform $-1 0.52991925155115449 0 0.84804810408105047 0 -1 0 0.84804810408105047 0 -0.52991925155115449 4.1877822149375685 6.7406438343377566 10.175587911210858 1 rotate no_reflect no_shear #
lump $-1 $-1 $62 $11 #
transform $-1 0.52991925155115449 0 0.84804810408105047 0 -1 0 0.84804810408105047 0 -0.52991925155115449 4.1877822149375685 8.8136339855912116 10.175587911210858 1 rotate no_reflect no_shear #
lump $-1 $-1 $63 $12 #
transform $-1 0.52991925155115449 0 0.84804810408105047 0 -1 0 0.84804810408105047 0 -0.52991925155115449 4.1877822149375685 10.886624136844667 10.175587911210858 1 rotate no_reflect no_shear #
lump $-1 $-1 $64 $13 #
transform $-1 0.52991925155115449 0 0.84804810408105047 0 1 0 -0.84804810408105047 0 0.52991925155115449 -78.007899092031991 28.028853413800078 56.447390745440707 1 rotate no_reflect no_shear #
lump $-1 $-1 $65 $14 #
transform $-1 0.52991925155115449 0 0.84804810408105047 0 -1 0 0.84804810408105047 0 -0.52991925155115449 4.1877822149375685 25.955863262546625 10.175587911210858 1 rotate no_reflect no_shear #
lump $-1 $-1 $66 $15 #
transform $-1 0.52991925155115449 0 0.84804810408105047 0 -1 0 0.84804810408105047 0 -0.52991925155115449 4.1877822149375685 28.028853413800078 10.175587911210858 1 rotate no_reflect no_shear #
lump $-1 $-1 $67 $16 #
transform $-1 0.52991925155115449 0 0.84804810408105047 0 -1 0 0.84804810408105047 0 -0.52991925155115449 4.1877822149375685 30.101843565053535 10.175587911210858 1 rotate no_reflect no_shear #
shell $-1 $-1 $-1 $68 $-1 $17 #
shell $-1 $-1 $-1 $69 $-1 $19 #
shell $-1 $-1 $-1 $70 $-1 $21 #
shell $-1 $-1 $-1 $71 $-1 $23 #
shell $-1 $-1 $-1 $72 $-1 $25 #
shell $-1 $-1 $-1 $73 $-1 $27 #
shell $-1 $-1 $-1 $74 $-1 $29 #
shell $-1 $-1 $-1 $75 $-1 $31 #
shell $-1 $-1 $-1 $76 $-1 $33 #
shell $-1 $-1 $-1 $77 $-1 $35 #
shell $-1 $-1 $-1 $78 $-1 $37 #
shell $-1 $-1 $-1 $79 $-1 $39 #
shell $-1 $-1 $-1 $80 $-1 $41 #
shell $-1 $-1 $-1 $81 $-1 $43 #
shell $-1 $-1 $-1 $82 $-1 $45 #
shell $-1 $-1 $-1 $83 $-1 $47 #
shell $-1 $-1 $-1 $84 $-1 $49 #
face $-1 $85 $86 $51 $-1 $87 forward single #
face $-1 $88 $89 $52 $-1 $90 forward single #
face $-1 $91 $92 $53 $-1 $93 forward single #
face $-1 $94 $95 $54 $-1 $96 forward single #
face $-1 $97 $98 $55 $-1 $99 forward single #
face $-1 $100 $101 $56 $-1 $102 forward single #
face $-1 $103 $104 $57 $-1 $105 forward single #
face $-1 $106 $107 $58 $-1 $108 forward single #
face $-1 $109 $110 $59 $-1 $111 forward single #
face $-1 $112 $113 $60 $-1 $114 forward single #
face $-1 $115 $116 $61 $-1 $117 forward single #
face $-1 $118 $119 $62 $-1 $120 forward single #
face $-1 $121 $122 $63 $-1 $123 forward single #
face $-1 $124 $125 $64 $-1 $126 forward single #
face $-1 $127 $128 $65 $-1 $129 forward single #
face $-1 $130 $131 $66 $-1 $132 forward single #
face $-1 $133 $134 $67 $-1 $135 forward single #
face $-1 $136 $137 $51 $-1 $138 reversed single #
loop $-1 $-1 $139 $68 #
plane-surface $-1 0 0 7.511803790019969 0 0 1 1 0 0 forward_v I I I I #
face $-1 $140 $141 $52 $-1 $142 reversed single #
loop $-1 $-1 $143 $69 #
plane-surface $-1 0 0 91.985229041413618 0 0 1 1 0 0 forward_v I I I I #
face $-1 $144 $145 $53 $-1 $146 forward single #
loop $-1 $147 $148 $70 #
cone-surface $-1 0 0 -1.2454908902249215 0 0 1 0.5 0 0 1 I I 0 1 0.5 forward I I I I #
face $-1 $149 $150 $54 $-1 $151 forward single #
loop $-1 $152 $153 $71 #
cone-surface $-1 0 0 -1.2454908902249215 0 0 1 0.5 0 0 1 I I 0 1 0.5 forward I I I I #
face $-1 $154 $155 $55 $-1 $156 forward single #
loop $-1 $157 $158 $72 #
cone-surface $-1 0 0 -1.2454908902249215 0 0 1 0.5 0 0 1 I I 0 1 0.5 forward I I I I #
face $-1 $159 $160 $56 $-1 $161 reversed single #
loop $-1 $-1 $162 $73 #
plane-surface $-1 0 0 91.985229041413618 0 0 1 1 0 0 forward_v I I I I #
face $-1 $163 $164 $57 $-1 $165 forward single #
loop $-1 $166 $167 $74 #
cone-surface $-1 0 0 -1.2454908902249215 0 0 1 0.5 0 0 1 I I 0 1 0.5 forward I I I I #
face $-1 $168 $169 $58 $-1 $170 forward single #
loop $-1 $171 $172 $75 #
cone-surface $-1 0 0 -1.2454908902249215 0 0 1 0.5 0 0 1 I I 0 1 0.5 forward I I I I #
face $-1 $173 $174 $59 $-1 $175 forward single #
loop $-1 $176 $177 $76 #
cone-surface $-1 0 0 -1.2454908902249215 0 0 1 0.5 0 0 1 I I 0 1 0.5 forward I I I I #
face $-1 $178 $179 $60 $-1 $180 reversed single #
loop $-1 $-1 $181 $77 #
plane-surface $-1 0 0 91.985229041413618 0 0 1 1 0 0 forward_v I I I I #
face $-1 $182 $183 $61 $-1 $184 forward single #
loop $-1 $185 $186 $78 #
cone-surface $-1 0 0 -1.2454908902249215 0 0 1 0.5 0 0 1 I I 0 1 0.5 forward I I I I #
face $-1 $187 $188 $62 $-1 $189 forward single #
loop $-1 $190 $191 $79 #
cone-surface $-1 0 0 -1.2454908902249215 0 0 1 0.5 0 0 1 I I 0 1 0.5 forward I I I I #
face $-1 $192 $193 $63 $-1 $194 forward single #
loop $-1 $195 $196 $80 #
cone-surface $-1 0 0 -1.2454908902249215 0 0 1 0.5 0 0 1 I I 0 1 0.5 forward I I I I #
face $-1 $197 $198 $64 $-1 $199 reversed single #
loop $-1 $-1 $200 $81 #
plane-surface $-1 0 0 91.985229041413618 0 0 1 1 0 0 forward_v I I I I #
face $-1 $201 $202 $65 $-1 $203 forward single #
loop $-1 $204 $205 $82 #
cone-surface $-1 0 0 -1.2454908902249215 0 0 1 0.5 0 0 1 I I 0 1 0.5 forward I I I I #
face $-1 $206 $207 $66 $-1 $208 forward single #
loop $-1 $209 $210 $83 #
cone-surface $-1 0 0 -1.2454908902249215 0 0 1 0.5 0 0 1 I I 0 1 0.5 forward I I I I #
face $-1 $211 $212 $67 $-1 $213 forward single #
loop $-1 $214 $215 $84 #
cone-surface $-1 0 0 -1.2454908902249215 0 0 1 0.5 0 0 1 I I 0 1 0.5 forward I I I I #
face $-1 $216 $217 $51 $-1 $218 reversed single #
loop $-1 $-1 $219 $85 #
plane-surface $-1 0 0 -7.511803790019969 0 0 1 1 0 0 forward_v I I I I #
coedge $-1 $220 $221 $222 $223 forward $86 $-1 #
face $-1 $224 $225 $52 $-1 $226 reversed single #
loop $-1 $-1 $227 $88 #
plane-surface $-1 0 0 -91.985229041413618 0 0 1 1 0 0 forward_v I I I I #
coedge $-1 $228 $229 $230 $231 forward $89 $-1 #
face $-1 $-1 $232 $53 $-1 $233 forward single #
loop $-1 $-1 $234 $91 #
plane-surface $-1 0 0 -2.2409817804498426 0 0 -1 -1 0 0 forward_v I I I I #
loop $-1 $-1 $235 $70 #
coedge $-1 $148 $148 $234 $236 reversed $92 $-1 #
face $-1 $-1 $237 $54 $-1 $238 forward single #
loop $-1 $-1 $239 $94 #
plane-surface $-1 0 0 -2.2409817804498426 0 0 -1 -1 0 0 forward_v I I I I #
loop $-1 $-1 $240 $71 #
coedge $-1 $153 $153 $239 $241 reversed $95 $-1 #
face $-1 $-1 $242 $55 $-1 $243 forward single #
loop $-1 $-1 $244 $97 #
plane-surface $-1 0 0 -2.2409817804498426 0 0 -1 -1 0 0 forward_v I I I I #
loop $-1 $-1 $245 $72 #
coedge $-1 $158 $158 $244 $246 reversed $98 $-1 #
face $-1 $247 $248 $56 $-1 $249 reversed single #
loop $-1 $-1 $250 $100 #
plane-surface $-1 0 0 -91.985229041413618 0 0 1 1 0 0 forward_v I I I I #
coedge $-1 $251 $252 $253 $254 forward $101 $-1 #
face $-1 $-1 $255 $57 $-1 $256 forward single #
loop $-1 $-1 $257 $103 #
plane-surface $-1 0 0 -2.2409817804498426 0 0 -1 -1 0 0 forward_v I I I I #
loop $-1 $-1 $258 $74 #
coedge $-1 $167 $167 $257 $259 reversed $104 $-1 #
face $-1 $-1 $260 $58 $-1 $261 forward single #
loop $-1 $-1 $262 $106 #
plane-surface $-1 0 0 -2.2409817804498426 0 0 -1 -1 0 0 forward_v I I I I #
loop $-1 $-1 $263 $75 #
coedge $-1 $172 $172 $262 $264 reversed $107 $-1 #
face $-1 $-1 $265 $59 $-1 $266 forward single #
loop $-1 $-1 $267 $109 #
plane-surface $-1 0 0 -2.2409817804498426 0 0 -1 -1 0 0 forward_v I I I I #
loop $-1 $-1 $268 $76 #
coedge $-1 $177 $177 $267 $269 reversed $110 $-1 #
face $-1 $270 $271 $60 $-1 $272 reversed single #
loop $-1 $-1 $273 $112 #
plane-surface $-1 0 0 -91.985229041413618 0 0 1 1 0 0 forward_v I I I I #
coedge $-1 $274 $275 $276 $277 forward $113 $-1 #
face $-1 $-1 $278 $61 $-1 $279 forward single #
loop $-1 $-1 $280 $115 #
plane-surface $-1 0 0 -2.2409817804498426 0 0 -1 -1 0 0 forward_v I I I I #
loop $-1 $-1 $281 $78 #
coedge $-1 $186 $186 $280 $282 reversed $116 $-1 #
face $-1 $-1 $283 $62 $-1 $284 forward single #
loop $-1 $-1 $285 $118 #
plane-surface $-1 0 0 -2.2409817804498426 0 0 -1 -1 0 0 forward_v I I I I #
loop $-1 $-1 $286 $79 #
coedge $-1 $191 $191 $285 $287 reversed $119 $-1 #
face $-1 $-1 $288 $63 $-1 $289 forward single #
loop $-1 $-1 $290 $121 #
plane-surface $-1 0 0 -2.2409817804498426 0 0 -1 -1 0 0 forward_v I I I I #
loop $-1 $-1 $291 $80 #
coedge $-1 $196 $196 $290 $292 reversed $122 $-1 #
face $-1 $293 $294 $64 $-1 $295 reversed single #
loop $-1 $-1 $296 $124 #
plane-surface $-1 0 0 -91.985229041413618 0 0 1 1 0 0 forward_v I I I I #
coedge $-1 $297 $298 $299 $300 forward $125 $-1 #
face $-1 $-1 $301 $65 $-1 $302 forward single #
loop $-1 $-1 $303 $127 #
plane-surface $-1 0 0 -2.2409817804498426 0 0 -1 -1 0 0 forward_v I I I I #
loop $-1 $-1 $304 $82 #
coedge $-1 $205 $205 $303 $305 reversed $128 $-1 #
face $-1 $-1 $306 $66 $-1 $307 forward single #
loop $-1 $-1 $308 $130 #
plane-surface $-1 0 0 -2.2409817804498426 0 0 -1 -1 0 0 forward_v I I I I #
loop $-1 $-1 $309 $83 #
coedge $-1 $210 $210 $308 $310 reversed $131 $-1 #
face $-1 $-1 $311 $67 $-1 $312 forward single #
loop $-1 $-1 $313 $133 #
plane-surface $-1 0 0 -2.2409817804498426 0 0 -1 -1 0 0 forward_v I I I I #
loop $-1 $-1 $314 $84 #
coedge $-1 $215 $215 $313 $315 reversed $134 $-1 #
face $-1 $316 $317 $51 $-1 $318 reversed single #
loop $-1 $-1 $319 $136 #
plane-surface $-1 0 -19.215219428208869 0 0 1 0 0 0 1 forward_v I I I I #
coedge $-1 $320 $321 $322 $323 forward $137 $-1 #
coedge $-1 $324 $139 $325 $326 forward $86 $-1 #
coedge $-1 $139 $324 $327 $328 forward $86 $-1 #
coedge $-1 $329 $330 $139 $223 reversed $331 $-1 #
edge $-1 $332 -19.215219428208869 $333 19.215219428208869 $222 $334 forward 7 unknown #
face $-1 $335 $336 $52 $-1 $337 reversed single #
loop $-1 $-1 $338 $140 #
plane-surface $-1 0 -3.4549835854224242 0 0 1 0 0 0 1 forward_v I I I I #
coedge $-1 $339 $340 $341 $342 forward $141 $-1 #
coedge $-1 $343 $143 $344 $345 forward $89 $-1 #
coedge $-1 $143 $343 $346 $347 forward $89 $-1 #
coedge $-1 $348 $349 $143 $231 reversed $350 $-1 #
edge $-1 $351 -3.4549835854224242 $352 3.4549835854224242 $230 $353 forward 7 unknown #
loop $-1 $354 $355 $144 #
cone-surface $-1 0 0 0 0 0 1 0.25 0 0 1 I I -0.70710678118654746 0.70710678118654746 0.25 forward I I I I #
coedge $-1 $234 $234 $148 $236 forward $145 $-1 #
coedge $-1 $235 $235 $355 $356 forward $147 $-1 #
edge $-1 $357 0 $357 6.2831853071796004 $234 $358 forward 7 unknown #
loop $-1 $359 $360 $149 #
cone-surface $-1 0 0 0 0 0 1 0.25 0 0 1 I I -0.70710678118654746 0.70710678118654746 0.25 forward I I I I #
coedge $-1 $239 $239 $153 $241 forward $150 $-1 #
coedge $-1 $240 $240 $360 $361 forward $152 $-1 #
edge $-1 $362 0 $362 6.2831853071796004 $239 $363 forward 7 unknown #
loop $-1 $364 $365 $154 #
cone-surface $-1 0 0 0 0 0 1 0.25 0 0 1 I I -0.70710678118654746 0.70710678118654746 0.25 forward I I I I #
coedge $-1 $244 $244 $158 $246 forward $155 $-1 #
coedge $-1 $245 $245 $365 $366 forward $157 $-1 #
edge $-1 $367 0 $367 6.2831853071796004 $244 $368 forward 7 unknown #
face $-1 $369 $370 $56 $-1 $371 reversed single #
loop $-1 $-1 $372 $159 #
plane-surface $-1 0 -3.4549835854224242 0 0 1 0 0 0 1 forward_v I I I I #
coedge $-1 $373 $374 $375 $376 forward $160 $-1 #
coedge $-1 $377 $162 $378 $379 forward $101 $-1 #
coedge $-1 $162 $377 $380 $381 forward $101 $-1 #
coedge $-1 $382 $383 $162 $254 reversed $384 $-1 #
edge $-1 $385 -3.4549835854224242 $386 3.4549835854224242 $253 $387 forward 7 unknown #
loop $-1 $388 $389 $163 #
cone-surface $-1 0 0 0 0 0 1 0.25 0 0 1 I I -0.70710678118654746 0.70710678118654746 0.25 forward I I I I #
coedge $-1 $257 $257 $167 $259 forward $164 $-1 #
coedge $-1 $258 $258 $389 $390 forward $166 $-1 #
edge $-1 $391 0 $391 6.2831853071796004 $257 $392 forward 7 unknown #
loop $-1 $393 $394 $168 #
cone-surface $-1 0 0 0 0 0 1 0.25 0 0 1 I I -0.70710678118654746 0.70710678118654746 0.25 forward I I I I #
coedge $-1 $262 $262 $172 $264 forward $169 $-1 #
coedge $-1 $263 $263 $394 $395 forward $171 $-1 #
edge $-1 $396 0 $396 6.2831853071796004 $262 $397 forward 7 unknown #
loop $-1 $398 $399 $173 #
cone-surface $-1 0 0 0 0 0 1 0.25 0 0 1 I I -0.70710678118654746 0.70710678118654746 0.25 forward I I I I #
coedge $-1 $267 $267 $177 $269 forward $174 $-1 #
coedge $-1 $268 $268 $399 $400 forward $176 $-1 #
edge $-1 $401 0 $401 6.2831853071796004 $267 $402 forward 7 unknown #
face $-1 $403 $404 $60 $-1 $405 reversed single #
loop $-1 $-1 $406 $178 #
plane-surface $-1 0 -3.4549835854224242 0 0 1 0 0 0 1 forward_v I I I I #
coedge $-1 $407 $408 $409 $410 forward $179 $-1 #
coedge $-1 $411 $181 $412 $413 forward $113 $-1 #
coedge $-1 $181 $411 $414 $415 forward $113 $-1 #
coedge $-1 $416 $417 $181 $277 reversed $418 $-1 #
edge $-1 $419 -3.4549835854224242 $420 3.4549835854224242 $276 $421 forward 7 unknown #
loop $-1 $422 $423 $182 #
cone-surface $-1 0 0 0 0 0 1 0.25 0 0 1 I I -0.70710678118654746 0.70710678118654746 0.25 forward I I I I #
coedge $-1 $280 $280 $186 $282 forward $183 $-1 #
coedge $-1 $281 $281 $423 $424 forward $185 $-1 #
edge $-1 $425 0 $425 6.2831853071796004 $280 $426 forward 7 unknown #
loop $-1 $427 $428 $187 #
cone-surface $-1 0 0 0 0 0 1 0.25 0 0 1 I I -0.70710678118654746 0.70710678118654746 0.25 forward I I I I #
coedge $-1 $285 $285 $191 $287 forward $188 $-1 #
coedge $-1 $286 $286 $428 $429 forward $190 $-1 #
edge $-1 $430 0 $430 6.2831853071796004 $285 $431 forward 7 unknown #
loop $-1 $432 $433 $192 #
cone-surface $-1 0 0 0 0 0 1 0.25 0 0 1 I I -0.70710678118654746 0.70710678118654746 0.25 forward I I I I #
coedge $-1 $290 $290 $196 $292 forward $193 $-1 #
coedge $-1 $291 $291 $433 $434 forward $195 $-1 #
edge $-1 $435 0 $435 6.2831853071796004 $290 $436 forward 7 unknown #
face $-1 $437 $438 $64 $-1 $439 reversed single #
loop $-1 $-1 $440 $197 #
plane-surface $-1 0 -3.4549835854224242 0 0 1 0 0 0 1 forward_v I I I I #
coedge $-1 $441 $442 $443 $444 forward $198 $-1 #
coedge $-1 $445 $200 $446 $447 forward $125 $-1 #
coedge $-1 $200 $445 $448 $449 forward $125 $-1 #
coedge $-1 $450 $451 $200 $300 reversed $452 $-1 #
edge $-1 $453 -3.4549835854224242 $454 3.4549835854224242 $299 $455 forward 7 unknown #
loop $-1 $456 $457 $201 #
cone-surface $-1 0 0 0 0 0 1 0.25 0 0 1 I I -0.70710678118654746 0.70710678118654746 0.25 forward I I I I #
coedge $-1 $303 $303 $205 $305 forward $202 $-1 #
coedge $-1 $304 $304 $457 $458 forward $204 $-1 #
edge $-1 $459 0 $459 6.2831853071796004 $303 $460 forward 7 unknown #
loop $-1 $461 $462 $206 #
cone-surface $-1 0 0 0 0 0 1 0.25 0 0 1 I I -0.70710678118654746 0.70710678118654746 0.25 forward I I I I #
coedge $-1 $308 $308 $210 $310 forward $207 $-1 #
coedge $-1 $309 $309 $462 $463 forward $209 $-1 #
edge $-1 $464 0 $464 6.2831853071796004 $308 $465 forward 7 unknown #
loop $-1 $466 $467 $211 #
cone-surface $-1 0 0 0 0 0 1 0.25 0 0 1 I I -0.70710678118654746 0.70710678118654746 0.25 forward I I I I #
coedge $-1 $313 $313 $215 $315 forward $212 $-1 #
coedge $-1 $314 $314 $467 $468 forward $214 $-1 #
edge $-1 $469 0 $469 6.2831853071796004 $313 $470 forward 7 unknown #
face $-1 $471 $472 $51 $-1 $473 reversed single #
loop $-1 $-1 $474 $216 #
plane-surface $-1 -45.992614520706809 0 0 1 0 0 0 0 -1 forward_v I I I I #
coedge $-1 $475 $327 $476 $477 forward $217 $-1 #
coedge $-1 $478 $219 $475 $479 forward $137 $-1 #
coedge $-1 $219 $478 $480 $481 forward $137 $-1 #
coedge $-1 $330 $329 $219 $323 reversed $331 $-1 #
edge $-1 $482 -19.215219428208869 $483 19.215219428208869 $322 $484 forward 7 unknown #
coedge $-1 $221 $220 $485 $486 forward $86 $-1 #
coedge $-1 $487 $488 $220 $326 reversed $472 $-1 #
edge $-1 $333 -45.992614520706809 $489 45.992614520706809 $325 $490 forward 7 unknown #
coedge $-1 $319 $491 $221 $328 reversed $217 $-1 #
edge $-1 $492 -45.992614520706809 $332 45.992614520706809 $327 $493 forward 7 unknown #
coedge $-1 $322 $222 $491 $494 forward $331 $-1 #
coedge $-1 $222 $322 $487 $495 reversed $331 $-1 #
loop $-1 $-1 $329 $471 #
vertex $-1 $223 $496 #
vertex $-1 $223 $497 #
straight-curve $-1 45.992614520706809 0 7.511803790019969 0 1 0 I I #
face $-1 $498 $499 $52 $-1 $500 reversed single #
loop $-1 $-1 $501 $224 #
plane-surface $-1 -183.97045808282724 0 0 1 0 0 0 0 -1 forward_v I I I I #
coedge $-1 $502 $346 $503 $504 forward $225 $-1 #
coedge $-1 $505 $227 $502 $506 forward $141 $-1 #
coedge $-1 $227 $505 $507 $508 forward $141 $-1 #
coedge $-1 $349 $348 $227 $342 reversed $350 $-1 #
edge $-1 $509 -3.4549835854224242 $510 3.4549835854224242 $341 $511 forward 7 unknown #
coedge $-1 $229 $228 $512 $513 forward $89 $-1 #
coedge $-1 $514 $515 $228 $345 reversed $499 $-1 #
edge $-1 $352 -183.97045808282724 $516 183.97045808282724 $344 $517 forward 7 unknown #
coedge $-1 $338 $518 $229 $347 reversed $225 $-1 #
edge $-1 $519 -183.97045808282724 $351 183.97045808282724 $346 $520 forward 7 unknown #
coedge $-1 $341 $230 $518 $521 forward $350 $-1 #
coedge $-1 $230 $341 $514 $522 reversed $350 $-1 #
loop $-1 $-1 $348 $498 #
vertex $-1 $231 $523 #
vertex $-1 $231 $524 #
straight-curve $-1 183.97045808282724 0 91.985229041413618 0 1 0 I I #
loop $-1 $-1 $525 $144 #
coedge $-1 $355 $355 $235 $356 reversed $232 $-1 #
edge $-1 $526 0 $526 6.2831853071796004 $355 $527 forward 7 unknown #
vertex $-1 $236 $528 #
ellipse-curve $-1 0 0 -2.2409817804498426 0 0 -1 0.5 0 0 1 I I #
loop $-1 $-1 $529 $149 #
coedge $-1 $360 $360 $240 $361 reversed $237 $-1 #
edge $-1 $530 0 $530 6.2831853071796004 $360 $531 forward 7 unknown #
vertex $-1 $241 $532 #
ellipse-curve $-1 0 0 -2.2409817804498426 0 0 -1 0.5 0 0 1 I I #
loop $-1 $-1 $533 $154 #
coedge $-1 $365 $365 $245 $366 reversed $242 $-1 #
edge $-1 $534 0 $534 6.2831853071796004 $365 $535 forward 7 unknown #
vertex $-1 $246 $536 #
ellipse-curve $-1 0 0 -2.2409817804498426 0 0 -1 0.5 0 0 1 I I #
face $-1 $537 $538 $56 $-1 $539 reversed single #
loop $-1 $-1 $540 $247 #
plane-surface $-1 -183.97045808282724 0 0 1 0 0 0 0 -1 forward_v I I I I #
coedge $-1 $541 $380 $542 $543 forward $248 $-1 #
coedge $-1 $544 $250 $541 $545 forward $160 $-1 #
coedge $-1 $250 $544 $546 $547 forward $160 $-1 #
coedge $-1 $383 $382 $250 $376 reversed $384 $-1 #
edge $-1 $548 -3.4549835854224242 $549 3.4549835854224242 $375 $550 forward 7 unknown #
coedge $-1 $252 $251 $551 $552 forward $101 $-1 #
coedge $-1 $553 $554 $251 $379 reversed $538 $-1 #
edge $-1 $386 -183.97045808282724 $555 183.97045808282724 $378 $556 forward 7 unknown #
coedge $-1 $372 $557 $252 $381 reversed $248 $-1 #
edge $-1 $558 -183.97045808282724 $385 183.97045808282724 $380 $559 forward 7 unknown #
coedge $-1 $375 $253 $557 $560 forward $384 $-1 #
coedge $-1 $253 $375 $553 $561 reversed $384 $-1 #
loop $-1 $-1 $382 $537 #
vertex $-1 $254 $562 #
vertex $-1 $254 $563 #
straight-curve $-1 183.97045808282724 0 91.985229041413618 0 1 0 I I #
loop $-1 $-1 $564 $163 #
coedge $-1 $389 $389 $258 $390 reversed $255 $-1 #
edge $-1 $565 0 $565 6.2831853071796004 $389 $566 forward 7 unknown #
vertex $-1 $259 $567 #
ellipse-curve $-1 0 0 -2.2409817804498426 0 0 -1 0.5 0 0 1 I I #
loop $-1 $-1 $568 $168 #
coedge $-1 $394 $394 $263 $395 reversed $260 $-1 #
edge $-1 $569 0 $569 6.2831853071796004 $394 $570 forward 7 unknown #
vertex $-1 $264 $571 #
ellipse-curve $-1 0 0 -2.2409817804498426 0 0 -1 0.5 0 0 1 I I #
loop $-1 $-1 $572 $173 #
coedge $-1 $399 $399 $268 $400 reversed $265 $-1 #
edge $-1 $573 0 $573 6.2831853071796004 $399 $574 forward 7 unknown #
vertex $-1 $269 $575 #
ellipse-curve $-1 0 0 -2.2409817804498426 0 0 -1 0.5 0 0 1 I I #
face $-1 $576 $577 $60 $-1 $578 reversed single #
loop $-1 $-1 $579 $270 #
plane-surface $-1 -183.97045808282724 0 0 1 0 0 0 0 -1 forward_v I I I I #
coedge $-1 $580 $414 $581 $582 forward $271 $-1 #
coedge $-1 $583 $273 $580 $584 forward $179 $-1 #
coedge $-1 $273 $583 $585 $586 forward $179 $-1 #
coedge $-1 $417 $416 $273 $410 reversed $418 $-1 #
edge $-1 $587 -3.4549835854224242 $588 3.4549835854224242 $409 $589 forward 7 unknown #
coedge $-1 $275 $274 $590 $591 forward $113 $-1 #
coedge $-1 $592 $593 $274 $413 reversed $577 $-1 #
edge $-1 $420 -183.97045808282724 $594 183.97045808282724 $412 $595 forward 7 unknown #
coedge $-1 $406 $596 $275 $415 reversed $271 $-1 #
edge $-1 $597 -183.97045808282724 $419 183.97045808282724 $414 $598 forward 7 unknown #
coedge $-1 $409 $276 $596 $599 forward $418 $-1 #
coedge $-1 $276 $409 $592 $600 reversed $418 $-1 #
loop $-1 $-1 $416 $576 #
vertex $-1 $277 $601 #
vertex $-1 $277 $602 #
straight-curve $-1 183.97045808282724 0 91.985229041413618 0 1 0 I I #
loop $-1 $-1 $603 $182 #
coedge $-1 $423 $423 $281 $424 reversed $278 $-1 #
edge $-1 $604 0 $604 6.2831853071796004 $423 $605 forward 7 unknown #
vertex $-1 $282 $606 #
ellipse-curve $-1 0 0 -2.2409817804498426 0 0 -1 0.5 0 0 1 I I #
loop $-1 $-1 $607 $187 #
coedge $-1 $428 $428 $286 $429 reversed $283 $-1 #
edge $-1 $608 0 $608 6.2831853071796004 $428 $609 forward 7 unknown #
vertex $-1 $287 $610 #
ellipse-curve $-1 0 0 -2.2409817804498426 0 0 -1 0.5 0 0 1 I I #
loop $-1 $-1 $611 $192 #
coedge $-1 $433 $433 $291 $434 reversed $288 $-1 #
edge $-1 $612 0 $612 6.2831853071796004 $433 $613 forward 7 unknown #
vertex $-1 $292 $614 #
ellipse-curve $-1 0 0 -2.2409817804498426 0 0 -1 0.5 0 0 1 I I #
face $-1 $615 $616 $64 $-1 $617 reversed single #
loop $-1 $-1 $618 $293 #
plane-surface $-1 -183.97045808282724 0 0 1 0 0 0 0 -1 forward_v I I I I #
coedge $-1 $619 $448 $620 $621 forward $294 $-1 #
coedge $-1 $622 $296 $619 $623 forward $198 $-1 #
coedge $-1 $296 $622 $624 $625 forward $198 $-1 #
coedge $-1 $451 $450 $296 $444 reversed $452 $-1 #
edge $-1 $626 -3.4549835854224242 $627 3.4549835854224242 $443 $628 forward 7 unknown #
coedge $-1 $298 $297 $629 $630 forward $125 $-1 #
coedge $-1 $631 $632 $297 $447 reversed $616 $-1 #
edge $-1 $454 -183.97045808282724 $633 183.97045808282724 $446 $634 forward 7 unknown #
coedge $-1 $440 $635 $298 $449 reversed $294 $-1 #
edge $-1 $636 -183.97045808282724 $453 183.97045808282724 $448 $637 forward 7 unknown #
coedge $-1 $443 $299 $635 $638 forward $452 $-1 #
coedge $-1 $299 $443 $631 $639 reversed $452 $-1 #
loop $-1 $-1 $450 $615 #
vertex $-1 $300 $640 #
vertex $-1 $300 $641 #
straight-curve $-1 183.97045808282724 0 91.985229041413618 0 1 0 I I #
loop $-1 $-1 $642 $201 #
coedge $-1 $457 $457 $304 $458 reversed $301 $-1 #
edge $-1 $643 0 $643 6.2831853071796004 $457 $644 forward 7 unknown #
vertex $-1 $305 $645 #
ellipse-curve $-1 0 0 -2.2409817804498426 0 0 -1 0.5 0 0 1 I I #
loop $-1 $-1 $646 $206 #
coedge $-1 $462 $462 $309 $463 reversed $306 $-1 #
edge $-1 $647 0 $647 6.2831853071796004 $462 $648 forward 7 unknown #
vertex $-1 $310 $649 #
ellipse-curve $-1 0 0 -2.2409817804498426 0 0 -1 0.5 0 0 1 I I #
loop $-1 $-1 $650 $211 #
coedge $-1 $467 $467 $314 $468 reversed $311 $-1 #
edge $-1 $651 0 $651 6.2831853071796004 $467 $652 forward 7 unknown #
vertex $-1 $315 $653 #
ellipse-curve $-1 0 0 -2.2409817804498426 0 0 -1 0.5 0 0 1 I I #
face $-1 $-1 $331 $51 $-1 $654 reversed single #
loop $-1 $-1 $487 $316 #
plane-surface $-1 0 19.215219428208869 0 0 -1 0 0 0 -1 forward_v I I I I #
coedge $-1 $655 $485 $488 $656 forward $317 $-1 #
coedge $-1 $491 $319 $320 $479 reversed $217 $-1 #
coedge $-1 $485 $655 $319 $477 reversed $317 $-1 #
edge $-1 $492 -7.511803790019969 $657 7.511803790019969 $476 $658 forward 7 unknown #
coedge $-1 $321 $320 $655 $659 forward $137 $-1 #
edge $-1 $483 -45.992614520706809 $657 45.992614520706809 $475 $660 forward 7 unknown #
coedge $-1 $488 $487 $321 $481 reversed $472 $-1 #
edge $-1 $661 -45.992614520706809 $482 45.992614520706809 $480 $662 forward 7 unknown #
vertex $-1 $323 $663 #
vertex $-1 $494 $664 #
straight-curve $-1 45.992614520706809 0 -7.511803790019969 0 -1 0 I I #
coedge $-1 $474 $476 $324 $486 reversed $317 $-1 #
edge $-1 $489 -19.215219428208869 $492 19.215219428208869 $485 $665 forward 7 unknown #
coedge $-1 $480 $325 $330 $495 forward $472 $-1 #
coedge $-1 $325 $480 $474 $656 reversed $472 $-1 #
vertex $-1 $326 $666 #
straight-curve $-1 0 19.215219428208869 7.511803790019969 -1 0 0 I I #
coedge $-1 $327 $475 $329 $494 reversed $217 $-1 #
vertex $-1 $486 $667 #
straight-curve $-1 0 -19.215219428208869 7.511803790019969 1 0 0 I I #
edge $-1 $332 -7.511803790019969 $483 7.511803790019969 $329 $668 forward 7 unknown #
edge $-1 $333 -7.511803790019969 $482 7.511803790019969 $330 $669 forward 7 unknown #
point $-1 45.992614520706809 -19.215219428208869 7.511803790019969 #
point $-1 45.992614520706809 19.215219428208869 7.511803790019969 #
face $-1 $-1 $350 $52 $-1 $670 reversed single #
loop $-1 $-1 $514 $335 #
plane-surface $-1 0 3.4549835854224242 0 0 -1 0 0 0 -1 forward_v I I I I #
coedge $-1 $671 $512 $515 $672 forward $336 $-1 #
coedge $-1 $518 $338 $339 $506 reversed $225 $-1 #
coedge $-1 $512 $671 $338 $504 reversed $336 $-1 #
edge $-1 $519 -91.985229041413618 $673 91.985229041413618 $503 $674 forward 7 unknown #
coedge $-1 $340 $339 $671 $675 forward $141 $-1 #
edge $-1 $510 -183.97045808282724 $673 183.97045808282724 $502 $676 forward 7 unknown #
coedge $-1 $515 $514 $340 $508 reversed $499 $-1 #
edge $-1 $677 -183.97045808282724 $509 183.97045808282724 $507 $678 forward 7 unknown #
vertex $-1 $342 $679 #
vertex $-1 $521 $680 #
straight-curve $-1 183.97045808282724 0 -91.985229041413618 0 -1 0 I I #
coedge $-1 $501 $503 $343 $513 reversed $336 $-1 #
edge $-1 $516 -3.4549835854224242 $519 3.4549835854224242 $512 $681 forward 7 unknown #
coedge $-1 $507 $344 $349 $522 forward $499 $-1 #
coedge $-1 $344 $507 $501 $672 reversed $499 $-1 #
vertex $-1 $345 $682 #
straight-curve $-1 0 3.4549835854224242 91.985229041413618 -1 0 0 I I #
coedge $-1 $346 $502 $348 $521 reversed $225 $-1 #
vertex $-1 $513 $683 #
straight-curve $-1 0 -3.4549835854224242 91.985229041413618 1 0 0 I I #
edge $-1 $351 -91.985229041413618 $510 91.985229041413618 $348 $684 forward 7 unknown #
edge $-1 $352 -91.985229041413618 $509 91.985229041413618 $349 $685 forward 7 unknown #
point $-1 183.97045808282724 -3.4549835854224242 91.985229041413618 #
point $-1 183.97045808282724 3.4549835854224242 91.985229041413618 #
coedge $-1 $525 $525 $-1 $686 reversed $354 $-1 #
vertex $-1 $356 $687 #
ellipse-curve $-1 0 0 -0.25 0 0 -1 0.5 0 0 1 I I #
point $-1 0.5 0 -2.2409817804498426 #
coedge $-1 $529 $529 $-1 $688 reversed $359 $-1 #
vertex $-1 $361 $689 #
ellipse-curve $-1 0 0 -0.25 0 0 -1 0.5 0 0 1 I I #
point $-1 0.5 0 -2.2409817804498426 #
coedge $-1 $533 $533 $-1 $690 reversed $364 $-1 #
vertex $-1 $366 $691 #
ellipse-curve $-1 0 0 -0.25 0 0 -1 0.5 0 0 1 I I #
point $-1 0.5 0 -2.2409817804498426 #
face $-1 $-1 $384 $56 $-1 $692 reversed single #
loop $-1 $-1 $553 $369 #
plane-surface $-1 0 3.4549835854224242 0 0 -1 0 0 0 -1 forward_v I I I I #
coedge $-1 $693 $551 $554 $694 forward $370 $-1 #
coedge $-1 $557 $372 $373 $545 reversed $248 $-1 #
coedge $-1 $551 $693 $372 $543 reversed $370 $-1 #
edge $-1 $558 -91.985229041413618 $695 91.985229041413618 $542 $696 forward 7 unknown #
coedge $-1 $374 $373 $693 $697 forward $160 $-1 #
edge $-1 $549 -183.97045808282724 $695 183.97045808282724 $541 $698 forward 7 unknown #
coedge $-1 $554 $553 $374 $547 reversed $538 $-1 #
edge $-1 $699 -183.97045808282724 $548 183.97045808282724 $546 $700 forward 7 unknown #
vertex $-1 $376 $701 #
vertex $-1 $560 $702 #
straight-curve $-1 183.97045808282724 0 -91.985229041413618 0 -1 0 I I #
coedge $-1 $540 $542 $377 $552 reversed $370 $-1 #
edge $-1 $555 -3.4549835854224242 $558 3.4549835854224242 $551 $703 forward 7 unknown #
coedge $-1 $546 $378 $383 $561 forward $538 $-1 #
coedge $-1 $378 $546 $540 $694 reversed $538 $-1 #
vertex $-1 $379 $704 #
straight-curve $-1 0 3.4549835854224242 91.985229041413618 -1 0 0 I I #
coedge $-1 $380 $541 $382 $560 reversed $248 $-1 #
vertex $-1 $552 $705 #
straight-curve $-1 0 -3.4549835854224242 91.985229041413618 1 0 0 I I #
edge $-1 $385 -91.985229041413618 $549 91.985229041413618 $382 $706 forward 7 unknown #
edge $-1 $386 -91.985229041413618 $548 91.985229041413618 $383 $707 forward 7 unknown #
point $-1 183.97045808282724 -3.4549835854224242 91.985229041413618 #
point $-1 183.97045808282724 3.4549835854224242 91.985229041413618 #
coedge $-1 $564 $564 $-1 $708 reversed $388 $-1 #
vertex $-1 $390 $709 #
ellipse-curve $-1 0 0 -0.25 0 0 -1 0.5 0 0 1 I I #
point $-1 0.5 0 -2.2409817804498426 #
coedge $-1 $568 $568 $-1 $710 reversed $393 $-1 #
vertex $-1 $395 $711 #
ellipse-curve $-1 0 0 -0.25 0 0 -1 0.5 0 0 1 I I #
point $-1 0.5 0 -2.2409817804498426 #
coedge $-1 $572 $572 $-1 $712 reversed $398 $-1 #
vertex $-1 $400 $713 #
ellipse-curve $-1 0 0 -0.25 0 0 -1 0.5 0 0 1 I I #
point $-1 0.5 0 -2.2409817804498426 #
face $-1 $-1 $418 $60 $-1 $714 reversed single #
loop $-1 $-1 $592 $403 #
plane-surface $-1 0 3.4549835854224242 0 0 -1 0 0 0 -1 forward_v I I I I #
coedge $-1 $715 $590 $593 $716 forward $404 $-1 #
coedge $-1 $596 $406 $407 $584 reversed $271 $-1 #
coedge $-1 $590 $715 $406 $582 reversed $404 $-1 #
edge $-1 $597 -91.985229041413618 $717 91.985229041413618 $581 $718 forward 7 unknown #
coedge $-1 $408 $407 $715 $719 forward $179 $-1 #
edge $-1 $588 -183.97045808282724 $717 183.97045808282724 $580 $720 forward 7 unknown #
coedge $-1 $593 $592 $408 $586 reversed $577 $-1 #
edge $-1 $721 -183.97045808282724 $587 183.97045808282724 $585 $722 forward 7 unknown #
vertex $-1 $410 $723 #
vertex $-1 $599 $724 #
straight-curve $-1 183.97045808282724 0 -91.985229041413618 0 -1 0 I I #
coedge $-1 $579 $581 $411 $591 reversed $404 $-1 #
edge $-1 $594 -3.4549835854224242 $597 3.4549835854224242 $590 $725 forward 7 unknown #
coedge $-1 $585 $412 $417 $600 forward $577 $-1 #
coedge $-1 $412 $585 $579 $716 reversed $577 $-1 #
vertex $-1 $413 $726 #
straight-curve $-1 0 3.4549835854224242 91.985229041413618 -1 0 0 I I #
coedge $-1 $414 $580 $416 $599 reversed $271 $-1 #
vertex $-1 $591 $727 #
straight-curve $-1 0 -3.4549835854224242 91.985229041413618 1 0 0 I I #
edge $-1 $419 -91.985229041413618 $588 91.985229041413618 $416 $728 forward 7 unknown #
edge $-1 $420 -91.985229041413618 $587 91.985229041413618 $417 $729 forward 7 unknown #
point $-1 183.97045808282724 -3.4549835854224242 91.985229041413618 #
point $-1 183.97045808282724 3.4549835854224242 91.985229041413618 #
coedge $-1 $603 $603 $-1 $730 reversed $422 $-1 #
vertex $-1 $424 $731 #
ellipse-curve $-1 0 0 -0.25 0 0 -1 0.5 0 0 1 I I #
point $-1 0.5 0 -2.2409817804498426 #
coedge $-1 $607 $607 $-1 $732 reversed $427 $-1 #
vertex $-1 $429 $733 #
ellipse-curve $-1 0 0 -0.25 0 0 -1 0.5 0 0 1 I I #
point $-1 0.5 0 -2.2409817804498426 #
coedge $-1 $611 $611 $-1 $734 reversed $432 $-1 #
vertex $-1 $434 $735 #
ellipse-curve $-1 0 0 -0.25 0 0 -1 0.5 0 0 1 I I #
point $-1 0.5 0 -2.2409817804498426 #
face $-1 $-1 $452 $64 $-1 $736 reversed single #
loop $-1 $-1 $631 $437 #
plane-surface $-1 0 3.4549835854224242 0 0 -1 0 0 0 -1 forward_v I I I I #
coedge $-1 $737 $629 $632 $738 forward $438 $-1 #
coedge $-1 $635 $440 $441 $623 reversed $294 $-1 #
coedge $-1 $629 $737 $440 $621 reversed $438 $-1 #
edge $-1 $636 -91.985229041413618 $739 91.985229041413618 $620 $740 forward 7 unknown #
coedge $-1 $442 $441 $737 $741 forward $198 $-1 #
edge $-1 $627 -183.97045808282724 $739 183.97045808282724 $619 $742 forward 7 unknown #
coedge $-1 $632 $631 $442 $625 reversed $616 $-1 #
edge $-1 $743 -183.97045808282724 $626 183.97045808282724 $624 $744 forward 7 unknown #
vertex $-1 $444 $745 #
vertex $-1 $638 $746 #
straight-curve $-1 183.97045808282724 0 -91.985229041413618 0 -1 0 I I #
coedge $-1 $618 $620 $445 $630 reversed $438 $-1 #
edge $-1 $633 -3.4549835854224242 $636 3.4549835854224242 $629 $747 forward 7 unknown #
coedge $-1 $624 $446 $451 $639 forward $616 $-1 #
coedge $-1 $446 $624 $618 $738 reversed $616 $-1 #
vertex $-1 $447 $748 #
straight-curve $-1 0 3.4549835854224242 91.985229041413618 -1 0 0 I I #
coedge $-1 $448 $619 $450 $638 reversed $294 $-1 #
vertex $-1 $630 $749 #
straight-curve $-1 0 -3.4549835854224242 91.985229041413618 1 0 0 I I #
edge $-1 $453 -91.985229041413618 $627 91.985229041413618 $450 $750 forward 7 unknown #
edge $-1 $454 -91.985229041413618 $626 91.985229041413618 $451 $751 forward 7 unknown #
point $-1 183.97045808282724 -3.4549835854224242 91.985229041413618 #
point $-1 183.97045808282724 3.4549835854224242 91.985229041413618 #
coedge $-1 $642 $642 $-1 $752 reversed $456 $-1 #
vertex $-1 $458 $753 #
ellipse-curve $-1 0 0 -0.25 0 0 -1 0.5 0 0 1 I I #
point $-1 0.5 0 -2.2409817804498426 #
coedge $-1 $646 $646 $-1 $754 reversed $461 $-1 #
vertex $-1 $463 $755 #
ellipse-curve $-1 0 0 -0.25 0 0 -1 0.5 0 0 1 I I #
point $-1 0.5 0 -2.2409817804498426 #
coedge $-1 $650 $650 $-1 $756 reversed $466 $-1 #
vertex $-1 $468 $757 #
ellipse-curve $-1 0 0 -0.25 0 0 -1 0.5 0 0 1 I I #
point $-1 0.5 0 -2.2409817804498426 #
plane-surface $-1 45.992614520706809 0 0 -1 0 0 0 0 1 forward_v I I I I #
coedge $-1 $476 $474 $478 $659 reversed $317 $-1 #
edge $-1 $489 -7.511803790019969 $661 7.511803790019969 $488 $758 forward 7 unknown #
vertex $-1 $659 $759 #
straight-curve $-1 -45.992614520706809 -19.215219428208869 0 0 0 -1 I I #
edge $-1 $657 -19.215219428208869 $661 19.215219428208869 $655 $760 forward 7 unknown #
straight-curve $-1 0 -19.215219428208869 -7.511803790019969 -1 0 0 I I #
vertex $-1 $481 $761 #
straight-curve $-1 0 19.215219428208869 -7.511803790019969 1 0 0 I I #
point $-1 45.992614520706809 19.215219428208869 -7.511803790019969 #
point $-1 45.992614520706809 -19.215219428208869 -7.511803790019969 #
straight-curve $-1 -45.992614520706809 0 7.511803790019969 0 -1 0 I I #
point $-1 -45.992614520706809 19.215219428208869 7.511803790019969 #
point $-1 -45.992614520706809 -19.215219428208869 7.511803790019969 #
straight-curve $-1 45.992614520706809 -19.215219428208869 0 0 0 -1 I I #
straight-curve $-1 45.992614520706809 19.215219428208869 0 0 0 -1 I I #
plane-surface $-1 183.97045808282724 0 0 -1 0 0 0 0 1 forward_v I I I I #
coedge $-1 $503 $501 $505 $675 reversed $336 $-1 #
edge $-1 $516 -91.985229041413618 $677 91.985229041413618 $515 $762 forward 7 unknown #
vertex $-1 $675 $763 #
straight-curve $-1 -183.97045808282724 -3.4549835854224242 0 0 0 -1 I I #
edge $-1 $673 -3.4549835854224242 $677 3.4549835854224242 $671 $764 forward 7 unknown #
straight-curve $-1 0 -3.4549835854224242 -91.985229041413618 -1 0 0 I I #
vertex $-1 $508 $765 #
straight-curve $-1 0 3.4549835854224242 -91.985229041413618 1 0 0 I I #
point $-1 183.97045808282724 3.4549835854224242 -91.985229041413618 #
point $-1 183.97045808282724 -3.4549835854224242 -91.985229041413618 #
straight-curve $-1 -183.97045808282724 0 91.985229041413618 0 -1 0 I I #
point $-1 -183.97045808282724 3.4549835854224242 91.985229041413618 #
point $-1 -183.97045808282724 -3.4549835854224242 91.985229041413618 #
straight-curve $-1 183.97045808282724 -3.4549835854224242 0 0 0 -1 I I #
straight-curve $-1 183.97045808282724 3.4549835854224242 0 0 0 -1 I I #
edge $-1 $766 1 $766 0 $525 $-1 forward 7 unknown #
point $-1 0.5 0 -0.25 #
edge $-1 $767 1 $767 0 $529 $-1 forward 7 unknown #
point $-1 0.5 0 -0.25 #
edge $-1 $768 1 $768 0 $533 $-1 forward 7 unknown #
point $-1 0.5 0 -0.25 #
plane-surface $-1 183.97045808282724 0 0 -1 0 0 0 0 1 forward_v I I I I #
coedge $-1 $542 $540 $544 $697 reversed $370 $-1 #
edge $-1 $555 -91.985229041413618 $699 91.985229041413618 $554 $769 forward 7 unknown #
vertex $-1 $697 $770 #
straight-curve $-1 -183.97045808282724 -3.4549835854224242 0 0 0 -1 I I #
edge $-1 $695 -3.4549835854224242 $699 3.4549835854224242 $693 $771 forward 7 unknown #
straight-curve $-1 0 -3.4549835854224242 -91.985229041413618 -1 0 0 I I #
vertex $-1 $547 $772 #
straight-curve $-1 0 3.4549835854224242 -91.985229041413618 1 0 0 I I #
point $-1 183.97045808282724 3.4549835854224242 -91.985229041413618 #
point $-1 183.97045808282724 -3.4549835854224242 -91.985229041413618 #
straight-curve $-1 -183.97045808282724 0 91.985229041413618 0 -1 0 I I #
point $-1 -183.97045808282724 3.4549835854224242 91.985229041413618 #
point $-1 -183.97045808282724 -3.4549835854224242 91.985229041413618 #
straight-curve $-1 183.97045808282724 -3.4549835854224242 0 0 0 -1 I I #
straight-curve $-1 183.97045808282724 3.4549835854224242 0 0 0 -1 I I #
edge $-1 $773 1 $773 0 $564 $-1 forward 7 unknown #
point $-1 0.5 0 -0.25 #
edge $-1 $774 1 $774 0 $568 $-1 forward 7 unknown #
point $-1 0.5 0 -0.25 #
edge $-1 $775 1 $775 0 $572 $-1 forward 7 unknown #
point $-1 0.5 0 -0.25 #
plane-surface $-1 183.97045808282724 0 0 -1 0 0 0 0 1 forward_v I I I I #
coedge $-1 $581 $579 $583 $719 reversed $404 $-1 #
edge $-1 $594 -91.985229041413618 $721 91.985229041413618 $593 $776 forward 7 unknown #
vertex $-1 $719 $777 #
straight-curve $-1 -183.97045808282724 -3.4549835854224242 0 0 0 -1 I I #
edge $-1 $717 -3.4549835854224242 $721 3.4549835854224242 $715 $778 forward 7 unknown #
straight-curve $-1 0 -3.4549835854224242 -91.985229041413618 -1 0 0 I I #
vertex $-1 $586 $779 #
straight-curve $-1 0 3.4549835854224242 -91.985229041413618 1 0 0 I I #
point $-1 183.97045808282724 3.4549835854224242 -91.985229041413618 #
point $-1 183.97045808282724 -3.4549835854224242 -91.985229041413618 #
straight-curve $-1 -183.97045808282724 0 91.985229041413618 0 -1 0 I I #
point $-1 -183.97045808282724 3.4549835854224242 91.985229041413618 #
point $-1 -183.97045808282724 -3.4549835854224242 91.985229041413618 #
straight-curve $-1 183.97045808282724 -3.4549835854224242 0 0 0 -1 I I #
straight-curve $-1 183.97045808282724 3.4549835854224242 0 0 0 -1 I I #
edge $-1 $780 1 $780 0 $603 $-1 forward 7 unknown #
point $-1 0.5 0 -0.25 #
edge $-1 $781 1 $781 0 $607 $-1 forward 7 unknown #
point $-1 0.5 0 -0.25 #
edge $-1 $782 1 $782 0 $611 $-1 forward 7 unknown #
point $-1 0.5 0 -0.25 #
plane-surface $-1 183.97045808282724 0 0 -1 0 0 0 0 1 forward_v I I I I #
coedge $-1 $620 $618 $622 $741 reversed $438 $-1 #
edge $-1 $633 -91.985229041413618 $743 91.985229041413618 $632 $783 forward 7 unknown #
vertex $-1 $741 $784 #
straight-curve $-1 -183.97045808282724 -3.4549835854224242 0 0 0 -1 I I #
edge $-1 $739 -3.4549835854224242 $743 3.4549835854224242 $737 $785 forward 7 unknown #
straight-curve $-1 0 -3.4549835854224242 -91.985229041413618 -1 0 0 I I #
vertex $-1 $625 $786 #
straight-curve $-1 0 3.4549835854224242 -91.985229041413618 1 0 0 I I #
point $-1 183.97045808282724 3.4549835854224242 -91.985229041413618 #
point $-1 183.97045808282724 -3.4549835854224242 -91.985229041413618 #
straight-curve $-1 -183.97045808282724 0 91.985229041413618 0 -1 0 I I #
point $-1 -183.97045808282724 3.4549835854224242 91.985229041413618 #
point $-1 -183.97045808282724 -3.4549835854224242 91.985229041413618 #
straight-curve $-1 183.97045808282724 -3.4549835854224242 0 0 0 -1 I I #
straight-curve $-1 183.97045808282724 3.4549835854224242 0 0 0 -1 I I #
edge $-1 $787 1 $787 0 $642 $-1 forward 7 unknown #
point $-1 0.5 0 -0.25 #
edge $-1 $788 1 $788 0 $646 $-1 forward 7 unknown #
point $-1 0.5 0 -0.25 #
edge $-1 $789 1 $789 0 $650 $-1 forward 7 unknown #
point $-1 0.5 0 -0.25 #
straight-curve $-1 -45.992614520706809 19.215219428208869 0 0 0 -1 I I #
point $-1 -45.992614520706809 -19.215219428208869 -7.511803790019969 #
straight-curve $-1 -45.992614520706809 0 -7.511803790019969 0 1 0 I I #
point $-1 -45.992614520706809 19.215219428208869 -7.511803790019969 #
straight-curve $-1 -183.97045808282724 3.4549835854224242 0 0 0 -1 I I #
point $-1 -183.97045808282724 -3.4549835854224242 -91.985229041413618 #
straight-curve $-1 -183.97045808282724 0 -91.985229041413618 0 1 0 I I #
point $-1 -183.97045808282724 3.4549835854224242 -91.985229041413618 #
vertex $-1 $686 $790 #
vertex $-1 $688 $791 #
vertex $-1 $690 $792 #
straight-curve $-1 -183.97045808282724 3.4549835854224242 0 0 0 -1 I I #
point $-1 -183.97045808282724 -3.4549835854224242 -91.985229041413618 #
straight-curve $-1 -183.97045808282724 0 -91.985229041413618 0 1 0 I I #
point $-1 -183.97045808282724 3.4549835854224242 -91.985229041413618 #
vertex $-1 $708 $793 #
vertex $-1 $710 $794 #
vertex $-1 $712 $795 #
straight-curve $-1 -183.97045808282724 3.4549835854224242 0 0 0 -1 I I #
point $-1 -183.97045808282724 -3.4549835854224242 -91.985229041413618 #
straight-curve $-1 -183.97045808282724 0 -91.985229041413618 0 1 0 I I #
point $-1 -183.97045808282724 3.4549835854224242 -91.985229041413618 #
vertex $-1 $730 $796 #
vertex $-1 $732 $797 #
vertex $-1 $734 $798 #
straight-curve $-1 -183.97045808282724 3.4549835854224242 0 0 0 -1 I I #
point $-1 -183.97045808282724 -3.4549835854224242 -91.985229041413618 #
straight-curve $-1 -183.97045808282724 0 -91.985229041413618 0 1 0 I I #
point $-1 -183.97045808282724 3.4549835854224242 -91.985229041413618 #
vertex $-1 $752 $799 #
vertex $-1 $754 $800 #
vertex $-1 $756 $801 #
point $-1 0 0 0.25 #
point $-1 0 0 0.25 #
point $-1 0 0 0.25 #
point $-1 0 0 0.25 #
point $-1 0 0 0.25 #
point $-1 0 0 0.25 #
point $-1 0 0 0.25 #
point $-1 0 0 0.25 #
point $-1 0 0 0.25 #
point $-1 0 0 0.25 #
point $-1 0 0 0.25 #
point $-1 0 0 0.25 #
End-of-ACIS-data 