500 0 8 0           
7 Unknown 11 ACIS 5.0 NT 24 Thu Mar 25 23:52:18 1999 
-1 9.9999999999999995e-007 1e-010 
body $-1 $8 $-1 $9 #
body $-1 $10 $-1 $11 #
body $-1 $12 $-1 $13 #
body $-1 $14 $-1 $15 #
body $-1 $16 $-1 $17 #
body $-1 $18 $-1 $19 #
body $-1 $20 $-1 $21 #
body $-1 $22 $-1 $23 #
lump $-1 $-1 $24 $0 #
transform $-1 1 0 0 0 1 0 0 0 1 54.958952604754785 36.002667731446941 14.550167163111855 1 rotate no_reflect no_shear #
lump $-1 $-1 $25 $1 #
transform $-1 1 0 0 0 1 0 0 0 1 54.958952604754785 36.002667731446941 14.550167163111855 1 rotate no_reflect no_shear #
lump $-1 $-1 $26 $2 #
transform $-1 1 0 0 0 1 0 0 0 1 54.958952604754785 36.002667731446941 14.550167163111855 1 rotate no_reflect no_shear #
lump $-1 $-1 $27 $3 #
transform $-1 1 0 0 0 1 0 0 0 1 54.958952604754785 36.002667731446941 14.550167163111855 1 rotate no_reflect no_shear #
lump $-1 $-1 $28 $4 #
transform $-1 1 0 0 0 1 0 0 0 1 54.958952604754785 36.002667731446941 14.550167163111855 1 rotate no_reflect no_shear #
lump $-1 $-1 $29 $5 #
transform $-1 1 0 0 0 1 0 0 0 1 54.958952604754785 36.002667731446941 14.550167163111855 1 rotate no_reflect no_shear #
lump $-1 $-1 $30 $6 #
transform $-1 1 0 0 0 1 0 0 0 1 54.958952604754785 36.002667731446941 14.550167163111855 1 rotate no_reflect no_shear #
lump $-1 $-1 $31 $7 #
transform $-1 1 0 0 0 1 0 0 0 1 54.958952604754785 36.002667731446941 14.550167163111855 1 rotate no_reflect no_shear #
shell $-1 $-1 $-1 $32 $-1 $8 #
shell $-1 $-1 $-1 $33 $-1 $10 #
shell $-1 $-1 $-1 $34 $-1 $12 #
shell $-1 $-1 $-1 $35 $-1 $14 #
shell $-1 $-1 $-1 $36 $-1 $16 #
shell $-1 $-1 $-1 $37 $-1 $18 #
shell $-1 $-1 $-1 $38 $-1 $20 #
shell $-1 $-1 $-1 $39 $-1 $22 #
face $-1 $40 $41 $24 $-1 $42 forward single #
face $-1 $43 $44 $25 $-1 $45 forward single #
face $-1 $46 $47 $26 $-1 $48 reversed single #
face $-1 $49 $50 $27 $-1 $51 forward single #
face $-1 $52 $53 $28 $-1 $54 forward single #
face $-1 $55 $56 $29 $-1 $57 reversed single #
face $-1 $58 $59 $30 $-1 $60 forward single #
face $-1 $61 $62 $31 $-1 $63 forward single #
face $-1 $64 $65 $24 $-1 $66 reversed single #
loop $-1 $-1 $67 $32 #
plane-surface $-1 0 0 14.550167163111855 0 0 1 1 0 0 forward_v I I I I #
face $-1 $68 $69 $25 $-1 $70 reversed single #
loop $-1 $-1 $71 $33 #
plane-surface $-1 0 -36.002667731446941 0 0 1 0 0 0 1 forward_v I I I I #
face $-1 $72 $73 $26 $-1 $74 reversed single #
loop $-1 $-1 $75 $34 #
plane-surface $-1 -116.42426596112786 -9.4550904469460768 95.865705567780807 0 1 0 -0.55919291073839883 0 0.82903756765294845 forward_v I I I I #
face $-1 $76 $77 $27 $-1 $78 forward single #
loop $-1 $79 $80 $35 #
cone-surface $-1 -47.0696602501638 -6.209933633629813 8.7302565070041886 0.55919291073839883 0 -0.82903756765294845 0.82903756765294845 0 0.55919291073839883 1 I I 0 1 1 forward I I I I #
face $-1 $81 $82 $28 $-1 $83 forward single #
loop $-1 $84 $85 $36 #
cone-surface $-1 -47.0696602501638 -1.3421984136554173 8.7302565070041886 0.55919291073839883 0 -0.82903756765294845 0.82903756765294845 0 0.55919291073839883 1 I I 0 1 1 forward I I I I #
face $-1 $86 $87 $29 $-1 $88 reversed single #
loop $-1 $-1 $89 $37 #
plane-surface $-1 52.246023298045941 -11.77634193873325 166.18288781782346 0 -1 0 -0.69465837861970381 0 -0.71933979245794832 forward_v I I I I #
face $-1 $90 $91 $30 $-1 $92 forward single #
loop $-1 $93 $94 $38 #
cone-surface $-1 51.671630119582595 -22.14194756153119 11.283133233831848 -0.69465837861970381 0 -0.71933979245794832 0.71933979245794832 0 -0.69465837861970381 1 I I 0 1 1 forward I I I I #
face $-1 $95 $96 $31 $-1 $97 forward single #
loop $-1 $98 $99 $39 #
cone-surface $-1 51.671630119582595 -15.922584187852422 11.283133233831848 -0.69465837861970381 0 -0.71933979245794832 0.71933979245794832 0 -0.69465837861970381 1 I I 0 1 1 forward I I I I #
face $-1 $100 $101 $24 $-1 $102 reversed single #
loop $-1 $-1 $103 $40 #
plane-surface $-1 0 0 -14.550167163111855 0 0 1 1 0 0 forward_v I I I I #
coedge $-1 $104 $105 $106 $107 forward $41 $-1 #
face $-1 $108 $109 $25 $-1 $110 forward single #
loop $-1 $-1 $111 $43 #
plane-surface $-1 -54.958952604754785 0 0 1 0 0 0 0 -1 forward_v I I I I #
coedge $-1 $112 $113 $114 $115 forward $44 $-1 #
face $-1 $116 $117 $26 $-1 $118 reversed single #
loop $-1 $-1 $119 $46 #
plane-surface $-1 -54.958952604754792 -3.7760660236426205 4.7396327913816378 -0.55919291073839883 0 0.82903756765294845 0.82903756765294845 0 0.55919291073839883 forward_v I I I I #
coedge $-1 $120 $121 $122 $123 reversed $47 $-1 #
face $-1 $-1 $124 $27 $-1 $125 forward single #
loop $-1 $126 $127 $49 #
cone-surface $-1 -46.173128972575647 -6.209933633629813 7.401094252935156 0.55919291073839883 0 -0.82903756765294845 0.41451878382647422 0 0.27959645536919941 1 I I -0.70710678118654746 0.70710678118654746 0.5 forward I I I I #
loop $-1 $-1 $128 $35 #
coedge $-1 $80 $80 $129 $130 reversed $50 $-1 #
face $-1 $-1 $131 $28 $-1 $132 forward single #
loop $-1 $133 $134 $52 #
cone-surface $-1 -46.173128972575647 -1.3421984136554173 7.401094252935156 0.55919291073839883 0 -0.82903756765294845 0.41451878382647422 0 0.27959645536919941 1 I I -0.70710678118654746 0.70710678118654746 0.5 forward I I I I #
loop $-1 $-1 $135 $36 #
coedge $-1 $85 $85 $136 $137 reversed $53 $-1 #
face $-1 $138 $139 $29 $-1 $140 reversed single #
loop $-1 $-1 $141 $55 #
plane-surface $-1 -24.109370516066278 -19.032265874691809 87.114564697002407 0.69465837861970381 0 0.71933979245794832 0.71933979245794832 0 -0.69465837861970381 forward_v I I I I #
coedge $-1 $142 $143 $144 $145 reversed $56 $-1 #
face $-1 $-1 $146 $30 $-1 $147 forward single #
loop $-1 $148 $149 $58 #
cone-surface $-1 49.999824184355958 -22.14194756153119 9.5519275484336923 -0.69465837861970381 0 -0.71933979245794832 0.35966989622897416 0 -0.3473291893098519 1 I I -0.70710678118654746 0.70710678118654746 0.5 forward I I I I #
loop $-1 $-1 $150 $38 #
coedge $-1 $94 $94 $151 $152 reversed $59 $-1 #
face $-1 $-1 $153 $31 $-1 $154 forward single #
loop $-1 $155 $156 $61 #
cone-surface $-1 49.999824184355958 -15.922584187852422 9.5519275484336923 -0.69465837861970381 0 -0.71933979245794832 0.35966989622897416 0 -0.3473291893098519 1 I I -0.70710678118654746 0.70710678118654746 0.5 forward I I I I #
loop $-1 $-1 $157 $39 #
coedge $-1 $99 $99 $158 $159 reversed $62 $-1 #
face $-1 $160 $161 $24 $-1 $162 reversed single #
loop $-1 $-1 $163 $64 #
plane-surface $-1 0 -36.002667731446941 0 0 1 0 0 0 1 forward_v I I I I #
coedge $-1 $164 $165 $166 $167 forward $65 $-1 #
coedge $-1 $168 $67 $169 $170 forward $41 $-1 #
coedge $-1 $67 $168 $171 $172 forward $41 $-1 #
coedge $-1 $173 $174 $67 $107 reversed $175 $-1 #
edge $-1 $176 -36.002667731446941 $177 36.002667731446941 $106 $178 forward 7 unknown #
face $-1 $179 $180 $25 $-1 $181 reversed single #
loop $-1 $-1 $182 $68 #
plane-surface $-1 0 -40.859906691845225 9.4777516593858557 0 0 1 1 0 0 forward_v I I I I #
coedge $-1 $183 $184 $113 $185 forward $69 $-1 #
coedge $-1 $186 $71 $187 $188 reversed $44 $-1 #
coedge $-1 $71 $186 $111 $185 reversed $44 $-1 #
coedge $-1 $189 $182 $71 $115 reversed $109 $-1 #
edge $-1 $190 -54.958952604754785 $191 54.958952604754785 $114 $192 forward 7 unknown #
face $-1 $193 $194 $26 $-1 $195 forward single #
loop $-1 $-1 $196 $72 #
plane-surface $-1 -116.42426596112786 1.9029583996608359 95.865705567780807 0 -1 0 0.55919291073839883 0 -0.82903756765294845 forward_v I I I I #
coedge $-1 $197 $198 $199 $200 reversed $73 $-1 #
coedge $-1 $121 $75 $201 $202 reversed $47 $-1 #
coedge $-1 $75 $120 $197 $203 reversed $47 $-1 #
coedge $-1 $199 $204 $75 $123 forward $194 $-1 #
edge $-1 $205 3.2531803758091442 $206 17.797895440553191 $122 $207 forward 7 unknown #
loop $-1 $-1 $129 $76 #
plane-surface $-1 -54.958952604754792 -3.7760660236426205 4.7396327913816378 -0.55919291073839883 0 0.82903756765294845 0.82903756765294845 0 0.55919291073839883 forward_v I I I I #
loop $-1 $-1 $208 $49 #
coedge $-1 $127 $127 $128 $209 reversed $77 $-1 #
coedge $-1 $128 $128 $127 $209 forward $79 $-1 #
coedge $-1 $129 $129 $80 $130 forward $124 $-1 #
edge $-1 $210 0 $210 6.2831853071796004 $129 $211 forward 7 unknown #
loop $-1 $-1 $136 $81 #
plane-surface $-1 -54.958952604754792 -3.7760660236426205 4.7396327913816378 -0.55919291073839883 0 0.82903756765294845 0.82903756765294845 0 0.55919291073839883 forward_v I I I I #
loop $-1 $-1 $212 $52 #
coedge $-1 $134 $134 $135 $213 reversed $82 $-1 #
coedge $-1 $135 $135 $134 $213 forward $84 $-1 #
coedge $-1 $136 $136 $85 $137 forward $131 $-1 #
edge $-1 $214 0 $214 6.2831853071796004 $136 $215 forward 7 unknown #
face $-1 $216 $217 $29 $-1 $218 reversed single #
loop $-1 $-1 $219 $86 #
plane-surface $-1 52.246023298045941 -26.288189810650369 166.18288781782346 0 1 0 0.69465837861970381 0 0.71933979245794832 forward_v I I I I #
coedge $-1 $220 $221 $222 $223 reversed $87 $-1 #
coedge $-1 $143 $89 $224 $225 reversed $56 $-1 #
coedge $-1 $89 $142 $220 $226 reversed $56 $-1 #
coedge $-1 $222 $227 $89 $145 forward $228 $-1 #
edge $-1 $229 -28.835940955731814 $230 -24.910249477221001 $144 $231 forward 7 unknown #
loop $-1 $-1 $151 $90 #
plane-surface $-1 -24.109370516066278 -19.032265874691809 87.114564697002407 0.69465837861970381 0 0.71933979245794832 0.71933979245794832 0 -0.69465837861970381 forward_v I I I I #
loop $-1 $-1 $232 $58 #
coedge $-1 $149 $149 $150 $233 reversed $91 $-1 #
coedge $-1 $150 $150 $149 $233 forward $93 $-1 #
coedge $-1 $151 $151 $94 $152 forward $146 $-1 #
edge $-1 $234 0 $234 6.2831853071796004 $151 $235 forward 7 unknown #
loop $-1 $-1 $158 $95 #
plane-surface $-1 -24.109370516066278 -19.032265874691809 87.114564697002407 0.69465837861970381 0 0.71933979245794832 0.71933979245794832 0 -0.69465837861970381 forward_v I I I I #
loop $-1 $-1 $236 $61 #
coedge $-1 $156 $156 $157 $237 reversed $96 $-1 #
coedge $-1 $157 $157 $156 $237 forward $98 $-1 #
coedge $-1 $158 $158 $99 $159 forward $153 $-1 #
edge $-1 $238 0 $238 6.2831853071796004 $158 $239 forward 7 unknown #
face $-1 $240 $241 $24 $-1 $242 reversed single #
loop $-1 $-1 $243 $100 #
plane-surface $-1 -54.958952604754785 0 0 1 0 0 0 0 -1 forward_v I I I I #
coedge $-1 $244 $171 $245 $246 forward $101 $-1 #
coedge $-1 $247 $103 $244 $248 forward $65 $-1 #
coedge $-1 $103 $247 $249 $250 forward $65 $-1 #
coedge $-1 $174 $173 $103 $167 reversed $175 $-1 #
edge $-1 $251 -36.002667731446941 $252 36.002667731446941 $166 $253 forward 7 unknown #
coedge $-1 $105 $104 $254 $255 forward $41 $-1 #
coedge $-1 $256 $257 $104 $170 reversed $241 $-1 #
edge $-1 $177 -54.958952604754785 $258 54.958952604754785 $169 $259 forward 7 unknown #
coedge $-1 $163 $260 $105 $172 reversed $101 $-1 #
edge $-1 $261 -54.958952604754785 $176 54.958952604754785 $171 $262 forward 7 unknown #
coedge $-1 $166 $106 $260 $263 forward $175 $-1 #
coedge $-1 $106 $166 $256 $264 reversed $175 $-1 #
loop $-1 $-1 $173 $240 #
vertex $-1 $107 $265 #
vertex $-1 $107 $266 #
straight-curve $-1 54.958952604754785 0 14.550167163111855 0 1 0 I I #
face $-1 $267 $268 $25 $-1 $269 reversed single #
loop $-1 $-1 $270 $108 #
plane-surface $-1 0 -40.859906691845225 2.8805095089798733 0 0 1 1 0 0 forward_v I I I I #
coedge $-1 $114 $271 $272 $273 forward $109 $-1 #
coedge $-1 $274 $111 $275 $276 reversed $69 $-1 #
coedge $-1 $111 $274 $189 $277 reversed $69 $-1 #
edge $-1 $190 -9.4777516593858557 $278 -2.8805095089798733 $111 $279 forward 7 unknown #
coedge $-1 $113 $112 $280 $281 forward $44 $-1 #
coedge $-1 $272 $282 $112 $188 forward $283 $-1 #
edge $-1 $284 2.8805095089798733 $191 9.4777516593858557 $187 $285 forward 7 unknown #
coedge $-1 $271 $114 $184 $277 forward $109 $-1 #
vertex $-1 $185 $286 #
vertex $-1 $273 $287 #
straight-curve $-1 0 -36.002667731446941 9.4777516593858557 1 0 0 I I #
face $-1 $-1 $288 $26 $-1 $289 reversed single #
loop $-1 $-1 $122 $116 #
plane-surface $-1 0 0 14.550167163111855 0 0 1 1 0 0 forward_v I I I I #
coedge $-1 $290 $291 $292 $293 reversed $117 $-1 #
coedge $-1 $294 $119 $121 $203 forward $73 $-1 #
coedge $-1 $119 $294 $290 $295 forward $73 $-1 #
coedge $-1 $292 $122 $119 $200 forward $194 $-1 #
edge $-1 $206 -7.5670574351247666 $296 3.7909914114821461 $199 $297 forward 7 unknown #
coedge $-1 $298 $299 $120 $202 forward $288 $-1 #
edge $-1 $300 -43.193219992508759 $205 -33.382685620778545 $201 $301 forward 7 unknown #
edge $-1 $206 -17.544096470707537 $300 -8.3739815925159718e-015 $121 $302 forward 7 unknown #
coedge $-1 $122 $292 $298 $303 forward $194 $-1 #
vertex $-1 $202 $304 #
vertex $-1 $123 $305 #
straight-curve $-1 -58.212132980563929 -9.4550904469460768 14.550167163111851 1 0 0 I I #
coedge $-1 $208 $208 $-1 $306 reversed $126 $-1 #
edge $-1 $307 0 $307 6.2831853071796004 $127 $308 forward 7 unknown #
vertex $-1 $130 $309 #
ellipse-curve $-1 -47.686595072382758 -6.209933633629813 9.6448999772467516 -0.55919291073839883 0 0.82903756765294845 0.82903756765294845 0 0.55919291073839883 1 I I #
coedge $-1 $212 $212 $-1 $310 reversed $133 $-1 #
edge $-1 $311 0 $311 6.2831853071796004 $134 $312 forward 7 unknown #
vertex $-1 $137 $313 #
ellipse-curve $-1 -47.686595072382758 -1.3421984136554173 9.6448999772467516 -0.55919291073839883 0 0.82903756765294845 0.82903756765294845 0 0.55919291073839883 1 I I #
face $-1 $-1 $228 $29 $-1 $314 forward single #
loop $-1 $-1 $315 $138 #
plane-surface $-1 54.958952604754785 0 0 -1 0 0 0 0 1 forward_v I I I I #
coedge $-1 $316 $317 $318 $319 reversed $139 $-1 #
coedge $-1 $320 $141 $143 $226 forward $87 $-1 #
coedge $-1 $141 $320 $316 $321 forward $87 $-1 #
coedge $-1 $318 $144 $141 $223 forward $228 $-1 #
edge $-1 $230 2.260209001387345 $322 16.772056873304464 $222 $323 forward 7 unknown #
coedge $-1 $324 $325 $142 $225 forward $217 $-1 #
edge $-1 $326 -72.332273026021539 $229 -68.541276745799877 $224 $327 forward 7 unknown #
edge $-1 $230 104.46055178673157 $326 109.91790520950957 $143 $328 forward 7 unknown #
coedge $-1 $144 $318 $324 $329 forward $228 $-1 #
loop $-1 $-1 $318 $216 #
vertex $-1 $225 $330 #
vertex $-1 $145 $331 #
straight-curve $-1 26.12301164902297 -11.77634193873325 14.550167163111851 -1 0 0 I I #
coedge $-1 $232 $232 $-1 $332 reversed $148 $-1 #
edge $-1 $333 0 $333 6.2831853071796004 $149 $334 forward 7 unknown #
vertex $-1 $152 $335 #
ellipse-curve $-1 52.996106865499378 -22.14194756153119 12.654669023001025 0.69465837861970381 0 0.71933979245794832 0.71933979245794832 0 -0.69465837861970381 1 I I #
coedge $-1 $236 $236 $-1 $336 reversed $155 $-1 #
edge $-1 $337 0 $337 6.2831853071796004 $156 $338 forward 7 unknown #
vertex $-1 $159 $339 #
ellipse-curve $-1 52.996106865499378 -15.922584187852422 12.654669023001025 0.69465837861970381 0 0.71933979245794832 0.71933979245794832 0 -0.69465837861970381 1 I I #
face $-1 $-1 $175 $24 $-1 $340 reversed single #
loop $-1 $-1 $256 $160 #
plane-surface $-1 0 36.002667731446941 0 0 -1 0 0 0 -1 forward_v I I I I #
coedge $-1 $341 $254 $257 $342 forward $161 $-1 #
coedge $-1 $260 $163 $164 $248 reversed $101 $-1 #
coedge $-1 $254 $341 $163 $246 reversed $161 $-1 #
edge $-1 $261 -14.550167163111855 $343 14.550167163111855 $245 $344 forward 7 unknown #
coedge $-1 $165 $164 $341 $345 forward $65 $-1 #
edge $-1 $252 -54.958952604754785 $343 54.958952604754785 $244 $346 forward 7 unknown #
coedge $-1 $257 $256 $165 $250 reversed $241 $-1 #
edge $-1 $347 -54.958952604754785 $251 54.958952604754785 $249 $348 forward 7 unknown #
vertex $-1 $167 $349 #
vertex $-1 $263 $350 #
straight-curve $-1 54.958952604754785 0 -14.550167163111855 0 -1 0 I I #
coedge $-1 $243 $245 $168 $255 reversed $161 $-1 #
edge $-1 $258 -36.002667731446941 $261 36.002667731446941 $254 $351 forward 7 unknown #
coedge $-1 $249 $169 $174 $264 forward $241 $-1 #
coedge $-1 $169 $249 $243 $342 reversed $241 $-1 #
vertex $-1 $170 $352 #
straight-curve $-1 0 36.002667731446941 14.550167163111855 -1 0 0 I I #
coedge $-1 $171 $244 $173 $263 reversed $101 $-1 #
vertex $-1 $255 $353 #
straight-curve $-1 0 -36.002667731446941 14.550167163111855 1 0 0 I I #
edge $-1 $176 -14.550167163111855 $252 14.550167163111855 $173 $354 forward 7 unknown #
edge $-1 $177 -14.550167163111855 $251 14.550167163111855 $174 $355 forward 7 unknown #
point $-1 54.958952604754785 -36.002667731446941 14.550167163111855 #
point $-1 54.958952604754785 36.002667731446941 14.550167163111855 #
face $-1 $-1 $283 $25 $-1 $356 reversed single #
loop $-1 $-1 $357 $179 #
plane-surface $-1 0 -45.717145652243509 6.1791305841828645 0 1 0 0 0 1 forward_v I I I I #
coedge $-1 $358 $280 $282 $359 forward $180 $-1 #
coedge $-1 $182 $189 $360 $361 forward $109 $-1 #
coedge $-1 $362 $187 $182 $273 reversed $283 $-1 #
edge $-1 $363 -4.8572389603982842 $191 4.8572389603982842 $272 $364 forward 7 unknown #
coedge $-1 $184 $183 $357 $365 reversed $69 $-1 #
coedge $-1 $280 $358 $183 $276 forward $180 $-1 #
edge $-1 $366 -4.8572389603982842 $278 4.8572389603982842 $183 $367 forward 7 unknown #
edge $-1 $190 -4.8572389603982842 $368 4.8572389603982842 $184 $369 forward 7 unknown #
vertex $-1 $185 $370 #
straight-curve $-1 -54.958952604754785 -36.002667731446941 0 0 0 -1 I I #
coedge $-1 $270 $275 $186 $281 reversed $180 $-1 #
edge $-1 $284 -54.958952604754785 $278 54.958952604754785 $280 $371 forward 7 unknown #
coedge $-1 $187 $362 $270 $359 reversed $283 $-1 #
loop $-1 $-1 $187 $267 #
vertex $-1 $188 $372 #
straight-curve $-1 54.958952604754785 -36.002667731446941 0 0 0 1 I I #
point $-1 -54.958952604754785 -36.002667731446941 9.4777516593858557 #
point $-1 54.958952604754785 -36.002667731446941 9.4777516593858557 #
loop $-1 $-1 $201 $193 #
plane-surface $-1 -54.958952604754785 0 0 1 0 0 0 0 -1 forward_v I I I I #
coedge $-1 $291 $196 $198 $295 reversed $117 $-1 #
coedge $-1 $196 $290 $373 $374 reversed $117 $-1 #
coedge $-1 $204 $199 $196 $293 forward $194 $-1 #
edge $-1 $296 -17.797895440553191 $375 -3.2531803758091442 $292 $376 forward 7 unknown #
coedge $-1 $198 $197 $299 $377 reversed $73 $-1 #
edge $-1 $378 8.3739815925159718e-015 $296 17.544096470707537 $290 $379 forward 7 unknown #
vertex $-1 $200 $380 #
straight-curve $-1 -40.414237540010738 -1.8880330118213102 14.550167163111855 0 1 0 I I #
coedge $-1 $373 $201 $204 $303 reversed $288 $-1 #
coedge $-1 $201 $373 $294 $377 forward $288 $-1 #
vertex $-1 $202 $381 #
straight-curve $-1 -54.958952604754785 -9.4550904469460768 47.932852783890404 0 0 1 I I #
straight-curve $-1 -54.958952604754792 -9.4550904469460768 4.7396327913816378 -0.82903756765294845 0 -0.55919291073839883 I I #
edge $-1 $375 -1.9029583996608359 $205 9.4550904469460768 $298 $382 forward 7 unknown #
point $-1 -54.958952604754785 -9.4550904469460768 14.550167163111855 #
point $-1 -40.414237540010738 -9.4550904469460768 14.550167163111855 #
edge $-1 $383 1 $383 0 $208 $-1 forward 7 unknown #
vertex $-1 $209 $384 #
ellipse-curve $-1 -46.452725427944848 -6.209933633629813 7.8156130367616301 -0.55919291073839883 0 0.82903756765294845 0.82903756765294845 0 0.55919291073839883 1 I I #
point $-1 -46.857557504729805 -6.209933633629813 10.204092887985148 #
edge $-1 $385 1 $385 0 $212 $-1 forward 7 unknown #
vertex $-1 $213 $386 #
ellipse-curve $-1 -46.452725427944848 -1.3421984136554173 7.8156130367616301 -0.55919291073839883 0 0.82903756765294845 0.82903756765294845 0 0.55919291073839883 1 I I #
point $-1 -46.857557504729805 -1.3421984136554173 10.204092887985148 #
plane-surface $-1 0 0 14.550167163111855 0 0 1 1 0 0 forward_v I I I I #
coedge $-1 $325 $324 $317 $387 forward $217 $-1 #
coedge $-1 $317 $219 $221 $321 reversed $139 $-1 #
coedge $-1 $219 $316 $315 $387 reversed $139 $-1 #
coedge $-1 $227 $222 $219 $319 forward $228 $-1 #
edge $-1 $322 24.910249477221001 $388 28.835940955731814 $318 $389 forward 7 unknown #
coedge $-1 $221 $220 $325 $390 reversed $87 $-1 #
edge $-1 $391 -109.91790520950957 $322 -104.46055178673157 $316 $392 forward 7 unknown #
vertex $-1 $223 $393 #
straight-curve $-1 51.033261126243964 -9.5161329373459047 14.550167163111858 0 -1 0 I I #
coedge $-1 $315 $224 $227 $329 reversed $217 $-1 #
coedge $-1 $224 $315 $320 $390 forward $217 $-1 #
vertex $-1 $225 $394 #
straight-curve $-1 54.958952604754785 -11.77634193873325 83.091443908911728 0 0 1 I I #
straight-curve $-1 -24.109370516066278 -11.77634193873325 87.114564697002407 0.71933979245794832 0 -0.69465837861970381 I I #
edge $-1 $388 -26.288189810650369 $229 -11.77634193873325 $324 $395 forward 7 unknown #
point $-1 54.958952604754785 -11.77634193873325 14.550167163111855 #
point $-1 51.033261126243971 -11.77634193873325 14.550167163111851 #
edge $-1 $396 1 $396 0 $232 $-1 forward 7 unknown #
vertex $-1 $233 $397 #
ellipse-curve $-1 50.347153373665812 -22.14194756153119 9.9115974446626662 0.69465837861970381 0 0.71933979245794832 0.71933979245794832 0 -0.69465837861970381 1 I I #
point $-1 53.71544665795733 -22.14194756153119 11.960010644381324 #
edge $-1 $398 1 $398 0 $236 $-1 forward 7 unknown #
vertex $-1 $237 $399 #
ellipse-curve $-1 50.347153373665812 -15.922584187852422 9.9115974446626662 0.69465837861970381 0 0.71933979245794832 0.71933979245794832 0 -0.69465837861970381 1 I I #
point $-1 53.71544665795733 -15.922584187852422 11.960010644381324 #
plane-surface $-1 54.958952604754785 0 0 -1 0 0 0 0 1 forward_v I I I I #
coedge $-1 $245 $243 $247 $345 reversed $161 $-1 #
edge $-1 $258 -14.550167163111855 $347 14.550167163111855 $257 $400 forward 7 unknown #
vertex $-1 $345 $401 #
straight-curve $-1 -54.958952604754785 -36.002667731446941 0 0 0 -1 I I #
edge $-1 $343 -36.002667731446941 $347 36.002667731446941 $341 $402 forward 7 unknown #
straight-curve $-1 0 -36.002667731446941 -14.550167163111855 -1 0 0 I I #
vertex $-1 $250 $403 #
straight-curve $-1 0 36.002667731446941 -14.550167163111855 1 0 0 I I #
point $-1 54.958952604754785 36.002667731446941 -14.550167163111855 #
point $-1 54.958952604754785 -36.002667731446941 -14.550167163111855 #
straight-curve $-1 -54.958952604754785 0 14.550167163111855 0 -1 0 I I #
point $-1 -54.958952604754785 36.002667731446941 14.550167163111855 #
point $-1 -54.958952604754785 -36.002667731446941 14.550167163111855 #
straight-curve $-1 54.958952604754785 -36.002667731446941 0 0 0 -1 I I #
straight-curve $-1 54.958952604754785 36.002667731446941 0 0 0 -1 I I #
plane-surface $-1 54.958952604754785 0 0 -1 0 0 0 0 1 forward_v I I I I #
coedge $-1 $404 $360 $274 $365 forward $268 $-1 #
coedge $-1 $275 $270 $404 $405 forward $180 $-1 #
edge $-1 $284 -4.8572389603982842 $406 4.8572389603982842 $282 $407 forward 7 unknown #
coedge $-1 $357 $408 $271 $361 reversed $268 $-1 #
edge $-1 $368 -54.958952604754785 $363 54.958952604754785 $360 $409 forward 7 unknown #
coedge $-1 $282 $272 $408 $410 forward $283 $-1 #
vertex $-1 $273 $411 #
straight-curve $-1 54.958952604754785 -40.859906691845225 9.4777516593858557 0 1 0 I I #
edge $-1 $368 -3.2986210752029912 $366 3.2986210752029912 $274 $412 forward 7 unknown #
vertex $-1 $276 $413 #
straight-curve $-1 -54.958952604754785 -40.859906691845225 2.8805095089798733 0 1 0 I I #
vertex $-1 $277 $414 #
straight-curve $-1 -54.958952604754785 -40.859906691845225 9.4777516593858557 0 -1 0 I I #
point $-1 -54.958952604754785 -36.002667731446941 2.8805095089798733 #
straight-curve $-1 0 -36.002667731446941 2.8805095089798733 -1 0 0 I I #
point $-1 54.958952604754785 -36.002667731446941 2.8805095089798733 #
coedge $-1 $299 $298 $291 $374 forward $288 $-1 #
edge $-1 $375 33.382685620778545 $378 43.193219992508759 $373 $415 forward 7 unknown #
vertex $-1 $303 $416 #
straight-curve $-1 -58.212132980563929 1.9029583996608359 14.550167163111851 -1 0 0 I I #
edge $-1 $378 -3.7909914114821461 $300 7.5670574351247666 $299 $417 forward 7 unknown #
vertex $-1 $377 $418 #
straight-curve $-1 -54.958952604754792 1.9029583996608359 4.7396327913816378 0.82903756765294845 0 0.55919291073839883 I I #
point $-1 -40.414237540010738 1.9029583996608359 14.550167163111855 #
point $-1 -54.958952604754785 -9.4550904469460768 4.7396327913816423 #
straight-curve $-1 -54.958952604754785 0 14.550167163111855 0 -1 0 I I #
vertex $-1 $306 $419 #
point $-1 -45.623687860291895 -6.209933633629813 8.3748059475000289 #
vertex $-1 $310 $420 #
point $-1 -45.623687860291895 -1.3421984136554173 8.3748059475000289 #
edge $-1 $388 68.541276745799877 $391 72.332273026021539 $315 $421 forward 7 unknown #
vertex $-1 $329 $422 #
straight-curve $-1 26.12301164902297 -26.288189810650369 14.550167163111851 1 0 0 I I #
edge $-1 $391 -16.772056873304464 $326 -2.260209001387345 $325 $423 forward 7 unknown #
vertex $-1 $390 $424 #
straight-curve $-1 -24.109370516066278 -26.288189810650369 87.114564697002407 -0.71933979245794832 0 0.69465837861970381 I I #
point $-1 51.033261126243971 -26.288189810650369 14.550167163111851 #
point $-1 54.958952604754785 -11.77634193873325 10.759170882890189 #
straight-curve $-1 54.958952604754785 0 14.550167163111855 0 1 0 I I #
vertex $-1 $332 $425 #
point $-1 51.066493166123756 -22.14194756153119 9.2169390660429631 #
vertex $-1 $336 $426 #
point $-1 51.066493166123756 -15.922584187852422 9.2169390660429631 #
straight-curve $-1 -54.958952604754785 36.002667731446941 0 0 0 -1 I I #
point $-1 -54.958952604754785 -36.002667731446941 -14.550167163111855 #
straight-curve $-1 -54.958952604754785 0 -14.550167163111855 0 1 0 I I #
point $-1 -54.958952604754785 36.002667731446941 -14.550167163111855 #
coedge $-1 $408 $357 $358 $405 reversed $268 $-1 #
edge $-1 $406 -54.958952604754785 $366 54.958952604754785 $404 $427 forward 7 unknown #
vertex $-1 $410 $428 #
straight-curve $-1 54.958952604754785 -40.859906691845225 2.8805095089798733 0 -1 0 I I #
coedge $-1 $360 $404 $362 $410 reversed $268 $-1 #
straight-curve $-1 0 -45.717145652243509 9.4777516593858557 1 0 0 I I #
edge $-1 $363 -3.2986210752029912 $406 3.2986210752029912 $362 $429 forward 7 unknown #
point $-1 54.958952604754785 -45.717145652243509 9.4777516593858557 #
straight-curve $-1 -54.958952604754785 -45.717145652243509 6.1791305841828645 0 0 -1 I I #
point $-1 -54.958952604754785 -45.717145652243509 2.8805095089798733 #
point $-1 -54.958952604754785 -45.717145652243509 9.4777516593858557 #
straight-curve $-1 -54.958952604754785 1.9029583996608359 47.932852783890404 0 0 -1 I I #
point $-1 -54.958952604754785 1.9029583996608359 14.550167163111855 #
straight-curve $-1 -54.958952604754785 -1.8880330118213102 4.7396327913816405 0 -1 0 I I #
point $-1 -54.958952604754785 1.9029583996608359 4.7396327913816423 #
point $-1 -45.893532517206445 -6.209933633629813 6.9865754691086819 #
point $-1 -45.893532517206445 -1.3421984136554173 6.9865754691086819 #
straight-curve $-1 54.958952604754785 -26.288189810650369 83.091443908911728 0 0 -1 I I #
point $-1 54.958952604754785 -26.288189810650369 14.550167163111855 #
straight-curve $-1 54.958952604754785 -9.5161329373459047 10.759170882890182 0 1 0 I I #
point $-1 54.958952604754785 -26.288189810650369 10.759170882890189 #
point $-1 49.652494995046105 -22.14194756153119 9.1922576522047184 #
point $-1 49.652494995046105 -15.922584187852422 9.1922576522047184 #
straight-curve $-1 0 -45.717145652243509 2.8805095089798733 -1 0 0 I I #
point $-1 54.958952604754785 -45.717145652243509 2.8805095089798733 #
straight-curve $-1 54.958952604754785 -45.717145652243509 6.1791305841828645 0 0 -1 I I #
End-of-ACIS-data 