500 0 18 0           
7 Unknown 11 ACIS 5.0 NT 24 Thu Mar 25 16:38:53 1999 
-1 9.9999999999999995e-007 1e-010 
body $-1 $18 $-1 $19 #
body $-1 $20 $-1 $21 #
body $-1 $22 $-1 $23 #
body $-1 $24 $-1 $25 #
body $-1 $26 $-1 $27 #
body $-1 $28 $-1 $29 #
body $-1 $30 $-1 $31 #
body $-1 $32 $-1 $33 #
body $-1 $34 $-1 $35 #
body $-1 $36 $-1 $37 #
body $-1 $38 $-1 $39 #
body $-1 $40 $-1 $41 #
body $-1 $42 $-1 $43 #
body $-1 $44 $-1 $45 #
body $-1 $46 $-1 $47 #
body $-1 $48 $-1 $49 #
body $-1 $50 $-1 $51 #
body $-1 $52 $-1 $53 #
lump $-1 $-1 $54 $0 #
transform $-1 1 0 0 0 1 0 0 0 1 41.633350627155373 27.992192887105848 8.3229937937927243 1 rotate no_reflect no_shear #
lump $-1 $-1 $55 $1 #
transform $-1 1 0 0 0 1 0 0 0 1 41.633350627155373 27.992192887105848 8.3229937937927243 1 rotate no_reflect no_shear #
lump $-1 $-1 $56 $2 #
transform $-1 1 0 0 0 1 0 0 0 1 41.633350627155373 27.992192887105848 8.3229937937927243 1 rotate no_reflect no_shear #
lump $-1 $-1 $57 $3 #
transform $-1 1 0 0 0 1 0 0 0 1 41.633350627155373 27.992192887105848 8.3229937937927243 1 rotate no_reflect no_shear #
lump $-1 $-1 $58 $4 #
transform $-1 1 0 0 0 1 0 0 0 1 41.633350627155373 27.992192887105848 8.3229937937927243 1 rotate no_reflect no_shear #
lump $-1 $-1 $59 $5 #
transform $-1 1 0 0 0 1 0 0 0 1 41.633350627155373 27.992192887105848 8.3229937937927243 1 rotate no_reflect no_shear #
lump $-1 $-1 $60 $6 #
transform $-1 1 0 0 0 1 0 0 0 1 41.633350627155373 27.992192887105848 8.3229937937927243 1 rotate no_reflect no_shear #
lump $-1 $-1 $61 $7 #
transform $-1 1 0 0 0 1 0 0 0 1 41.633350627155373 27.992192887105848 8.3229937937927243 1 rotate no_reflect no_shear #
lump $-1 $-1 $62 $8 #
transform $-1 1 0 0 0 1 0 0 0 1 41.633350627155373 27.992192887105848 8.3229937937927243 1 rotate no_reflect no_shear #
lump $-1 $-1 $63 $9 #
transform $-1 1 0 0 0 1 0 0 0 1 41.633350627155373 27.992192887105848 8.3229937937927243 1 rotate no_reflect no_shear #
lump $-1 $-1 $64 $10 #
transform $-1 1 0 0 0 1 0 0 0 1 41.633350627155373 27.992192887105848 8.3229937937927243 1 rotate no_reflect no_shear #
lump $-1 $-1 $65 $11 #
transform $-1 1 0 0 0 1 0 0 0 1 41.633350627155373 27.992192887105848 8.3229937937927243 1 rotate no_reflect no_shear #
lump $-1 $-1 $66 $12 #
transform $-1 1 0 0 0 1 0 0 0 1 41.633350627155373 27.992192887105848 8.3229937937927243 1 rotate no_reflect no_shear #
lump $-1 $-1 $67 $13 #
transform $-1 1 0 0 0 1 0 0 0 1 41.633350627155373 27.992192887105848 8.3229937937927243 1 rotate no_reflect no_shear #
lump $-1 $-1 $68 $14 #
transform $-1 1 0 0 0 1 0 0 0 1 41.633350627155373 27.992192887105848 8.3229937937927243 1 rotate no_reflect no_shear #
lump $-1 $-1 $69 $15 #
transform $-1 1 0 0 0 1 0 0 0 1 41.633350627155373 27.992192887105848 8.3229937937927243 1 rotate no_reflect no_shear #
lump $-1 $-1 $70 $16 #
transform $-1 1 0 0 0 1 0 0 0 1 41.633350627155373 27.992192887105848 8.3229937937927243 1 rotate no_reflect no_shear #
lump $-1 $-1 $71 $17 #
transform $-1 1 0 0 0 1 0 0 0 1 41.633350627155373 27.992192887105848 8.3229937937927243 1 rotate no_reflect no_shear #
shell $-1 $-1 $-1 $72 $-1 $18 #
shell $-1 $-1 $-1 $73 $-1 $20 #
shell $-1 $-1 $-1 $74 $-1 $22 #
shell $-1 $-1 $-1 $75 $-1 $24 #
shell $-1 $-1 $-1 $76 $-1 $26 #
shell $-1 $-1 $-1 $77 $-1 $28 #
shell $-1 $-1 $-1 $78 $-1 $30 #
shell $-1 $-1 $-1 $79 $-1 $32 #
shell $-1 $-1 $-1 $80 $-1 $34 #
shell $-1 $-1 $-1 $81 $-1 $36 #
shell $-1 $-1 $-1 $82 $-1 $38 #
shell $-1 $-1 $-1 $83 $-1 $40 #
shell $-1 $-1 $-1 $84 $-1 $42 #
shell $-1 $-1 $-1 $85 $-1 $44 #
shell $-1 $-1 $-1 $86 $-1 $46 #
shell $-1 $-1 $-1 $87 $-1 $48 #
shell $-1 $-1 $-1 $88 $-1 $50 #
shell $-1 $-1 $-1 $89 $-1 $52 #
face $-1 $90 $91 $54 $-1 $92 forward single #
face $-1 $93 $94 $55 $-1 $95 forward single #
face $-1 $96 $97 $56 $-1 $98 reversed single #
face $-1 $99 $100 $57 $-1 $101 forward single #
face $-1 $102 $103 $58 $-1 $104 forward single #
face $-1 $105 $106 $59 $-1 $107 forward single #
face $-1 $108 $109 $60 $-1 $110 reversed single #
face $-1 $111 $112 $61 $-1 $113 forward single #
face $-1 $114 $115 $62 $-1 $116 forward single #
face $-1 $117 $118 $63 $-1 $119 forward single #
face $-1 $120 $121 $64 $-1 $122 reversed single #
face $-1 $123 $124 $65 $-1 $125 forward single #
face $-1 $126 $127 $66 $-1 $128 forward single #
face $-1 $129 $130 $67 $-1 $131 forward single #
face $-1 $132 $133 $68 $-1 $134 reversed single #
face $-1 $135 $136 $69 $-1 $137 forward single #
face $-1 $138 $139 $70 $-1 $140 forward single #
face $-1 $141 $142 $71 $-1 $143 forward single #
face $-1 $144 $145 $54 $-1 $146 reversed single #
loop $-1 $-1 $147 $72 #
plane-surface $-1 0 0 8.3229937937927243 0 0 1 1 0 0 forward_v I I I I #
face $-1 $148 $149 $55 $-1 $150 reversed single #
loop $-1 $-1 $151 $73 #
plane-surface $-1 -41.633350627155373 0 0 1 0 0 0 0 -1 forward_v I I I I #
face $-1 $152 $153 $56 $-1 $154 reversed single #
loop $-1 $-1 $155 $74 #
plane-surface $-1 -17.762296446198437 -76.935132516709942 68.153357231883248 -1 0 0 0 -0.5877852598018023 0.80901698891910034 forward_v I I I I #
face $-1 $156 $157 $57 $-1 $158 forward single #
loop $-1 $159 $160 $75 #
cone-surface $-1 -28.085947142954129 -22.350754548194178 3.9274433021748094 0 0.5877852598018023 -0.80901698891910034 1 0 0 1 I I 0 1 1 forward I I I I #
face $-1 $161 $162 $58 $-1 $163 forward single #
loop $-1 $164 $165 $76 #
cone-surface $-1 -24.214578131670745 -22.350754548194178 3.9274433021748094 0 0.5877852598018023 -0.80901698891910034 1 0 0 1 I I 0 1 1 forward I I I I #
face $-1 $166 $167 $59 $-1 $168 forward single #
loop $-1 $169 $170 $77 #
cone-surface $-1 -20.34320912038736 -22.350754548194178 3.9274433021748094 0 0.5877852598018023 -0.80901698891910034 1 0 0 1 I I 0 1 1 forward I I I I #
face $-1 $171 $172 $60 $-1 $173 reversed single #
loop $-1 $-1 $174 $78 #
plane-surface $-1 37.660277768350852 -76.935132516709942 68.153357231883248 -1 0 0 0 -0.5877852598018023 0.80901698891910034 forward_v I I I I #
face $-1 $175 $176 $61 $-1 $177 forward single #
loop $-1 $178 $179 $79 #
cone-surface $-1 27.336627071595167 -22.350754548194178 3.9274433021748094 0 0.5877852598018023 -0.80901698891910034 1 0 0 1 I I 0 1 1 forward I I I I #
face $-1 $180 $181 $62 $-1 $182 forward single #
loop $-1 $183 $184 $80 #
cone-surface $-1 31.207996082878545 -22.350754548194178 3.9274433021748094 0 0.5877852598018023 -0.80901698891910034 1 0 0 1 I I 0 1 1 forward I I I I #
face $-1 $185 $186 $63 $-1 $187 forward single #
loop $-1 $188 $189 $81 #
cone-surface $-1 35.079365094161936 -22.350754548194178 3.9274433021748094 0 0.5877852598018023 -0.80901698891910034 1 0 0 1 I I 0 1 1 forward I I I I #
face $-1 $190 $191 $64 $-1 $192 reversed single #
loop $-1 $-1 $193 $82 #
plane-surface $-1 -30.666859817143052 31.642813311171874 101.06015396902259 1 0 0 0 -0.5877852598018023 -0.80901698891910034 forward_v I I I I #
face $-1 $194 $195 $65 $-1 $196 forward single #
loop $-1 $197 $198 $83 #
cone-surface $-1 -28.085947142954129 22.350754548194171 3.9274433021748059 0 -0.5877852598018023 -0.80901698891910034 1 0 0 1 I I 0 1 1 forward I I I I #
face $-1 $199 $200 $66 $-1 $201 forward single #
loop $-1 $202 $203 $84 #
cone-surface $-1 -24.214578131670745 22.350754548194171 3.9274433021748059 0 -0.5877852598018023 -0.80901698891910034 1 0 0 1 I I 0 1 1 forward I I I I #
face $-1 $204 $205 $67 $-1 $206 forward single #
loop $-1 $207 $208 $85 #
cone-surface $-1 -20.34320912038736 22.350754548194171 3.9274433021748059 0 -0.5877852598018023 -0.80901698891910034 1 0 0 1 I I 0 1 1 forward I I I I #
face $-1 $209 $210 $68 $-1 $211 reversed single #
loop $-1 $-1 $212 $86 #
plane-surface $-1 24.755714397406237 31.642813311171874 101.06015396902259 1 0 0 0 -0.5877852598018023 -0.80901698891910034 forward_v I I I I #
face $-1 $213 $214 $69 $-1 $215 forward single #
loop $-1 $216 $217 $87 #
cone-surface $-1 27.336627071595167 22.350754548194171 3.9274433021748059 0 -0.5877852598018023 -0.80901698891910034 1 0 0 1 I I 0 1 1 forward I I I I #
face $-1 $218 $219 $70 $-1 $220 forward single #
loop $-1 $221 $222 $88 #
cone-surface $-1 31.207996082878545 22.350754548194171 3.9274433021748059 0 -0.5877852598018023 -0.80901698891910034 1 0 0 1 I I 0 1 1 forward I I I I #
face $-1 $223 $224 $71 $-1 $225 forward single #
loop $-1 $226 $227 $89 #
cone-surface $-1 35.079365094161936 22.350754548194171 3.9274433021748059 0 -0.5877852598018023 -0.80901698891910034 1 0 0 1 I I 0 1 1 forward I I I I #
face $-1 $228 $229 $54 $-1 $230 reversed single #
loop $-1 $-1 $231 $90 #
plane-surface $-1 0 0 -8.3229937937927243 0 0 1 1 0 0 forward_v I I I I #
coedge $-1 $232 $233 $234 $235 forward $91 $-1 #
face $-1 $236 $237 $55 $-1 $238 reversed single #
loop $-1 $-1 $239 $93 #
plane-surface $-1 0 0 -8.3229937937927243 0 0 1 1 0 0 forward_v I I I I #
coedge $-1 $240 $241 $242 $243 forward $94 $-1 #
face $-1 $244 $245 $56 $-1 $246 reversed single #
loop $-1 $-1 $247 $96 #
plane-surface $-1 -24.214578131670745 -27.992192887105844 0.78918130589448765 0 -0.5877852598018023 0.80901698891910034 1 0 0 forward_v I I I I #
coedge $-1 $248 $249 $250 $251 reversed $97 $-1 #
face $-1 $-1 $252 $57 $-1 $253 forward single #
loop $-1 $254 $255 $99 #
cone-surface $-1 -28.085947142954129 -21.600125128460714 2.8942905600464552 0 0.5877852598018023 -0.80901698891910034 0.5 0 0 1 I I -0.70710678118654746 0.70710678118654746 0.5 forward I I I I #
loop $-1 $-1 $256 $75 #
coedge $-1 $160 $160 $257 $258 reversed $100 $-1 #
face $-1 $-1 $259 $58 $-1 $260 forward single #
loop $-1 $261 $262 $102 #
cone-surface $-1 -24.214578131670745 -21.600125128460714 2.8942905600464552 0 0.5877852598018023 -0.80901698891910034 0.5 0 0 1 I I -0.70710678118654746 0.70710678118654746 0.5 forward I I I I #
loop $-1 $-1 $263 $76 #
coedge $-1 $165 $165 $264 $265 reversed $103 $-1 #
face $-1 $-1 $266 $59 $-1 $267 forward single #
loop $-1 $268 $269 $105 #
cone-surface $-1 -20.34320912038736 -21.600125128460714 2.8942905600464552 0 0.5877852598018023 -0.80901698891910034 0.5 0 0 1 I I -0.70710678118654746 0.70710678118654746 0.5 forward I I I I #
loop $-1 $-1 $270 $77 #
coedge $-1 $170 $170 $271 $272 reversed $106 $-1 #
face $-1 $273 $274 $60 $-1 $275 reversed single #
loop $-1 $-1 $276 $108 #
plane-surface $-1 31.207996082878545 -27.992192887105844 0.78918130589448765 0 -0.5877852598018023 0.80901698891910034 1 0 0 forward_v I I I I #
coedge $-1 $277 $278 $279 $280 reversed $109 $-1 #
face $-1 $-1 $281 $61 $-1 $282 forward single #
loop $-1 $283 $284 $111 #
cone-surface $-1 27.336627071595167 -21.600125128460714 2.8942905600464552 0 0.5877852598018023 -0.80901698891910034 0.5 0 0 1 I I -0.70710678118654746 0.70710678118654746 0.5 forward I I I I #
loop $-1 $-1 $285 $79 #
coedge $-1 $179 $179 $286 $287 reversed $112 $-1 #
face $-1 $-1 $288 $62 $-1 $289 forward single #
loop $-1 $290 $291 $114 #
cone-surface $-1 31.207996082878545 -21.600125128460714 2.8942905600464552 0 0.5877852598018023 -0.80901698891910034 0.5 0 0 1 I I -0.70710678118654746 0.70710678118654746 0.5 forward I I I I #
loop $-1 $-1 $292 $80 #
coedge $-1 $184 $184 $293 $294 reversed $115 $-1 #
face $-1 $-1 $295 $63 $-1 $296 forward single #
loop $-1 $297 $298 $117 #
cone-surface $-1 35.079365094161936 -21.600125128460714 2.8942905600464552 0 0.5877852598018023 -0.80901698891910034 0.5 0 0 1 I I -0.70710678118654746 0.70710678118654746 0.5 forward I I I I #
loop $-1 $-1 $299 $81 #
coedge $-1 $189 $189 $300 $301 reversed $118 $-1 #
face $-1 $302 $303 $64 $-1 $304 reversed single #
loop $-1 $-1 $305 $120 #
plane-surface $-1 -24.214578131670745 -17.300126318432223 33.695978043033833 0 0.5877852598018023 0.80901698891910034 1 0 0 forward_v I I I I #
coedge $-1 $306 $307 $308 $309 reversed $121 $-1 #
face $-1 $-1 $310 $65 $-1 $311 forward single #
loop $-1 $312 $313 $123 #
cone-surface $-1 -28.085947142954129 21.600125128460707 2.8942905600464517 0 -0.5877852598018023 -0.80901698891910034 0.5 0 0 1 I I -0.70710678118654746 0.70710678118654746 0.5 forward I I I I #
loop $-1 $-1 $314 $83 #
coedge $-1 $198 $198 $315 $316 reversed $124 $-1 #
face $-1 $-1 $317 $66 $-1 $318 forward single #
loop $-1 $319 $320 $126 #
cone-surface $-1 -24.214578131670745 21.600125128460707 2.8942905600464517 0 -0.5877852598018023 -0.80901698891910034 0.5 0 0 1 I I -0.70710678118654746 0.70710678118654746 0.5 forward I I I I #
loop $-1 $-1 $321 $84 #
coedge $-1 $203 $203 $322 $323 reversed $127 $-1 #
face $-1 $-1 $324 $67 $-1 $325 forward single #
loop $-1 $326 $327 $129 #
cone-surface $-1 -20.34320912038736 21.600125128460707 2.8942905600464517 0 -0.5877852598018023 -0.80901698891910034 0.5 0 0 1 I I -0.70710678118654746 0.70710678118654746 0.5 forward I I I I #
loop $-1 $-1 $328 $85 #
coedge $-1 $208 $208 $329 $330 reversed $130 $-1 #
face $-1 $331 $332 $68 $-1 $333 reversed single #
loop $-1 $-1 $334 $132 #
plane-surface $-1 31.207996082878545 -17.300126318432223 33.695978043033833 0 0.5877852598018023 0.80901698891910034 1 0 0 forward_v I I I I #
coedge $-1 $335 $336 $337 $338 reversed $133 $-1 #
face $-1 $-1 $339 $69 $-1 $340 forward single #
loop $-1 $341 $342 $135 #
cone-surface $-1 27.336627071595167 21.600125128460707 2.8942905600464517 0 -0.5877852598018023 -0.80901698891910034 0.5 0 0 1 I I -0.70710678118654746 0.70710678118654746 0.5 forward I I I I #
loop $-1 $-1 $343 $87 #
coedge $-1 $217 $217 $344 $345 reversed $136 $-1 #
face $-1 $-1 $346 $70 $-1 $347 forward single #
loop $-1 $348 $349 $138 #
cone-surface $-1 31.207996082878545 21.600125128460707 2.8942905600464517 0 -0.5877852598018023 -0.80901698891910034 0.5 0 0 1 I I -0.70710678118654746 0.70710678118654746 0.5 forward I I I I #
loop $-1 $-1 $350 $88 #
coedge $-1 $222 $222 $351 $352 reversed $139 $-1 #
face $-1 $-1 $353 $71 $-1 $354 forward single #
loop $-1 $355 $356 $141 #
cone-surface $-1 35.079365094161936 21.600125128460707 2.8942905600464517 0 -0.5877852598018023 -0.80901698891910034 0.5 0 0 1 I I -0.70710678118654746 0.70710678118654746 0.5 forward I I I I #
loop $-1 $-1 $357 $89 #
coedge $-1 $227 $227 $358 $359 reversed $142 $-1 #
face $-1 $360 $361 $54 $-1 $362 reversed single #
loop $-1 $-1 $363 $144 #
plane-surface $-1 0 -27.992192887105848 0 0 1 0 0 0 1 forward_v I I I I #
coedge $-1 $364 $365 $366 $367 forward $145 $-1 #
coedge $-1 $368 $147 $369 $370 forward $91 $-1 #
coedge $-1 $147 $368 $371 $372 forward $91 $-1 #
coedge $-1 $373 $374 $147 $235 reversed $375 $-1 #
edge $-1 $376 -27.992192887105848 $377 27.992192887105848 $234 $378 forward 7 unknown #
face $-1 $379 $380 $55 $-1 $381 reversed single #
loop $-1 $-1 $382 $148 #
plane-surface $-1 -45.130059602759268 -19.494526145626008 0 0 1 0 0 0 1 forward_v I I I I #
coedge $-1 $383 $384 $241 $385 forward $149 $-1 #
coedge $-1 $386 $151 $387 $388 reversed $94 $-1 #
coedge $-1 $151 $386 $239 $385 reversed $94 $-1 #
coedge $-1 $389 $390 $151 $243 reversed $391 $-1 #
edge $-1 $392 -8.3229937937927243 $393 8.3229937937927243 $242 $394 forward 7 unknown #
face $-1 $395 $396 $56 $-1 $397 forward single #
loop $-1 $-1 $398 $152 #
plane-surface $-1 -30.666859817143052 -76.935132516709942 68.153357231883248 1 0 0 0 0.5877852598018023 -0.80901698891910034 forward_v I I I I #
coedge $-1 $399 $400 $401 $402 reversed $153 $-1 #
coedge $-1 $249 $155 $403 $404 reversed $97 $-1 #
coedge $-1 $155 $248 $399 $405 reversed $97 $-1 #
coedge $-1 $401 $406 $155 $251 forward $396 $-1 #
edge $-1 $407 10.475373371249123 $408 20.844776469407357 $250 $409 forward 7 unknown #
loop $-1 $-1 $257 $156 #
plane-surface $-1 -24.214578131670745 -27.992192887105844 0.78918130589448765 0 -0.5877852598018023 0.80901698891910034 1 0 0 forward_v I I I I #
loop $-1 $-1 $410 $99 #
coedge $-1 $255 $255 $256 $411 reversed $157 $-1 #
coedge $-1 $256 $256 $255 $411 forward $159 $-1 #
coedge $-1 $257 $257 $160 $258 forward $252 $-1 #
edge $-1 $412 -3.4020353370067206e-015 $412 6.2831853071795969 $257 $413 forward 7 unknown #
loop $-1 $-1 $264 $161 #
plane-surface $-1 -24.214578131670745 -27.992192887105844 0.78918130589448765 0 -0.5877852598018023 0.80901698891910034 1 0 0 forward_v I I I I #
loop $-1 $-1 $414 $102 #
coedge $-1 $262 $262 $263 $415 reversed $162 $-1 #
coedge $-1 $263 $263 $262 $415 forward $164 $-1 #
coedge $-1 $264 $264 $165 $265 forward $259 $-1 #
edge $-1 $416 -3.4020353370067206e-015 $416 6.2831853071795969 $264 $417 forward 7 unknown #
loop $-1 $-1 $271 $166 #
plane-surface $-1 -24.214578131670745 -27.992192887105844 0.78918130589448765 0 -0.5877852598018023 0.80901698891910034 1 0 0 forward_v I I I I #
loop $-1 $-1 $418 $105 #
coedge $-1 $269 $269 $270 $419 reversed $167 $-1 #
coedge $-1 $270 $270 $269 $419 forward $169 $-1 #
coedge $-1 $271 $271 $170 $272 forward $266 $-1 #
edge $-1 $420 -3.4020353370067206e-015 $420 6.2831853071795969 $271 $421 forward 7 unknown #
face $-1 $422 $423 $60 $-1 $424 reversed single #
loop $-1 $-1 $425 $171 #
plane-surface $-1 24.755714397406237 -76.935132516709942 68.153357231883248 1 0 0 0 0.5877852598018023 -0.80901698891910034 forward_v I I I I #
coedge $-1 $426 $427 $428 $429 reversed $172 $-1 #
coedge $-1 $278 $174 $430 $431 reversed $109 $-1 #
coedge $-1 $174 $277 $426 $432 reversed $109 $-1 #
coedge $-1 $428 $433 $174 $280 forward $434 $-1 #
edge $-1 $435 10.475373371249123 $436 20.844776469407357 $279 $437 forward 7 unknown #
loop $-1 $-1 $286 $175 #
plane-surface $-1 31.207996082878545 -27.992192887105844 0.78918130589448765 0 -0.5877852598018023 0.80901698891910034 1 0 0 forward_v I I I I #
loop $-1 $-1 $438 $111 #
coedge $-1 $284 $284 $285 $439 reversed $176 $-1 #
coedge $-1 $285 $285 $284 $439 forward $178 $-1 #
coedge $-1 $286 $286 $179 $287 forward $281 $-1 #
edge $-1 $440 -3.4020353370067206e-015 $440 6.2831853071795969 $286 $441 forward 7 unknown #
loop $-1 $-1 $293 $180 #
plane-surface $-1 31.207996082878545 -27.992192887105844 0.78918130589448765 0 -0.5877852598018023 0.80901698891910034 1 0 0 forward_v I I I I #
loop $-1 $-1 $442 $114 #
coedge $-1 $291 $291 $292 $443 reversed $181 $-1 #
coedge $-1 $292 $292 $291 $443 forward $183 $-1 #
coedge $-1 $293 $293 $184 $294 forward $288 $-1 #
edge $-1 $444 -3.4020353370067206e-015 $444 6.2831853071795969 $293 $445 forward 7 unknown #
loop $-1 $-1 $300 $185 #
plane-surface $-1 31.207996082878545 -27.992192887105844 0.78918130589448765 0 -0.5877852598018023 0.80901698891910034 1 0 0 forward_v I I I I #
loop $-1 $-1 $446 $117 #
coedge $-1 $298 $298 $299 $447 reversed $186 $-1 #
coedge $-1 $299 $299 $298 $447 forward $188 $-1 #
coedge $-1 $300 $300 $189 $301 forward $295 $-1 #
edge $-1 $448 -3.4020353370067206e-015 $448 6.2831853071795969 $300 $449 forward 7 unknown #
face $-1 $450 $451 $64 $-1 $452 reversed single #
loop $-1 $-1 $453 $190 #
plane-surface $-1 -17.762296446198437 31.642813311171874 101.06015396902259 -1 0 0 0 0.5877852598018023 0.80901698891910034 forward_v I I I I #
coedge $-1 $454 $455 $456 $457 reversed $191 $-1 #
coedge $-1 $307 $193 $458 $459 reversed $121 $-1 #
coedge $-1 $193 $306 $454 $460 reversed $121 $-1 #
coedge $-1 $456 $461 $193 $309 forward $462 $-1 #
edge $-1 $463 -12.17078623151991 $464 -1.8013831333616661 $308 $465 forward 7 unknown #
loop $-1 $-1 $315 $194 #
plane-surface $-1 -24.214578131670745 -17.300126318432223 33.695978043033833 0 0.5877852598018023 0.80901698891910034 1 0 0 forward_v I I I I #
loop $-1 $-1 $466 $123 #
coedge $-1 $313 $313 $314 $467 reversed $195 $-1 #
coedge $-1 $314 $314 $313 $467 forward $197 $-1 #
coedge $-1 $315 $315 $198 $316 forward $310 $-1 #
edge $-1 $468 2.0940041636132166e-015 $468 6.2831853071796022 $315 $469 forward 7 unknown #
loop $-1 $-1 $322 $199 #
plane-surface $-1 -24.214578131670745 -17.300126318432223 33.695978043033833 0 0.5877852598018023 0.80901698891910034 1 0 0 forward_v I I I I #
loop $-1 $-1 $470 $126 #
coedge $-1 $320 $320 $321 $471 reversed $200 $-1 #
coedge $-1 $321 $321 $320 $471 forward $202 $-1 #
coedge $-1 $322 $322 $203 $323 forward $317 $-1 #
edge $-1 $472 2.0940041636132166e-015 $472 6.2831853071796022 $322 $473 forward 7 unknown #
loop $-1 $-1 $329 $204 #
plane-surface $-1 -24.214578131670745 -17.300126318432223 33.695978043033833 0 0.5877852598018023 0.80901698891910034 1 0 0 forward_v I I I I #
loop $-1 $-1 $474 $129 #
coedge $-1 $327 $327 $328 $475 reversed $205 $-1 #
coedge $-1 $328 $328 $327 $475 forward $207 $-1 #
coedge $-1 $329 $329 $208 $330 forward $324 $-1 #
edge $-1 $476 2.0940041636132166e-015 $476 6.2831853071796022 $329 $477 forward 7 unknown #
face $-1 $478 $479 $68 $-1 $480 forward single #
loop $-1 $-1 $481 $209 #
plane-surface $-1 37.660277768350852 31.642813311171874 101.06015396902259 -1 0 0 0 0.5877852598018023 0.80901698891910034 forward_v I I I I #
coedge $-1 $482 $483 $484 $485 reversed $210 $-1 #
coedge $-1 $336 $212 $486 $487 reversed $133 $-1 #
coedge $-1 $212 $335 $482 $488 reversed $133 $-1 #
coedge $-1 $484 $489 $212 $338 forward $479 $-1 #
edge $-1 $490 -12.17078623151991 $491 -1.8013831333616661 $337 $492 forward 7 unknown #
loop $-1 $-1 $344 $213 #
plane-surface $-1 31.207996082878545 -17.300126318432223 33.695978043033833 0 0.5877852598018023 0.80901698891910034 1 0 0 forward_v I I I I #
loop $-1 $-1 $493 $135 #
coedge $-1 $342 $342 $343 $494 reversed $214 $-1 #
coedge $-1 $343 $343 $342 $494 forward $216 $-1 #
coedge $-1 $344 $344 $217 $345 forward $339 $-1 #
edge $-1 $495 2.0940041636132166e-015 $495 6.2831853071796022 $344 $496 forward 7 unknown #
loop $-1 $-1 $351 $218 #
plane-surface $-1 31.207996082878545 -17.300126318432223 33.695978043033833 0 0.5877852598018023 0.80901698891910034 1 0 0 forward_v I I I I #
loop $-1 $-1 $497 $138 #
coedge $-1 $349 $349 $350 $498 reversed $219 $-1 #
coedge $-1 $350 $350 $349 $498 forward $221 $-1 #
coedge $-1 $351 $351 $222 $352 forward $346 $-1 #
edge $-1 $499 2.0940041636132166e-015 $499 6.2831853071796022 $351 $500 forward 7 unknown #
loop $-1 $-1 $358 $223 #
plane-surface $-1 31.207996082878545 -17.300126318432223 33.695978043033833 0 0.5877852598018023 0.80901698891910034 1 0 0 forward_v I I I I #
loop $-1 $-1 $501 $141 #
coedge $-1 $356 $356 $357 $502 reversed $224 $-1 #
coedge $-1 $357 $357 $356 $502 forward $226 $-1 #
coedge $-1 $358 $358 $227 $359 forward $353 $-1 #
edge $-1 $503 2.0940041636132166e-015 $503 6.2831853071796022 $358 $504 forward 7 unknown #
face $-1 $505 $506 $54 $-1 $507 reversed single #
loop $-1 $-1 $508 $228 #
plane-surface $-1 -41.633350627155373 0 0 1 0 0 0 0 -1 forward_v I I I I #
coedge $-1 $509 $371 $510 $511 forward $229 $-1 #
coedge $-1 $512 $231 $509 $513 forward $145 $-1 #
coedge $-1 $231 $512 $514 $515 forward $145 $-1 #
coedge $-1 $374 $373 $231 $367 reversed $375 $-1 #
edge $-1 $516 -27.992192887105848 $517 27.992192887105848 $366 $518 forward 7 unknown #
coedge $-1 $233 $232 $519 $520 forward $91 $-1 #
coedge $-1 $521 $522 $232 $370 reversed $506 $-1 #
edge $-1 $377 -41.633350627155373 $523 41.633350627155373 $369 $524 forward 7 unknown #
coedge $-1 $363 $525 $233 $372 reversed $229 $-1 #
edge $-1 $526 -41.633350627155373 $376 41.633350627155373 $371 $527 forward 7 unknown #
coedge $-1 $366 $234 $525 $528 forward $375 $-1 #
coedge $-1 $234 $366 $521 $529 reversed $375 $-1 #
loop $-1 $-1 $373 $505 #
vertex $-1 $235 $530 #
vertex $-1 $235 $531 #
straight-curve $-1 41.633350627155373 0 8.3229937937927243 0 1 0 I I #
face $-1 $532 $391 $55 $-1 $533 reversed single #
loop $-1 $-1 $534 $236 #
plane-surface $-1 -48.626768578363162 -17.374317963730586 0 1 0 0 0 0 -1 forward_v I I I I #
coedge $-1 $535 $536 $537 $538 forward $237 $-1 #
coedge $-1 $539 $239 $535 $540 forward $149 $-1 #
coedge $-1 $239 $539 $389 $541 forward $149 $-1 #
edge $-1 $392 15.254109781835165 $542 19.494526145626008 $239 $543 forward 7 unknown #
coedge $-1 $241 $240 $544 $545 forward $94 $-1 #
coedge $-1 $546 $547 $240 $388 forward $548 $-1 #
edge $-1 $549 -19.494526145626008 $393 -15.254109781835165 $387 $550 forward 7 unknown #
coedge $-1 $551 $242 $384 $541 reversed $391 $-1 #
coedge $-1 $242 $551 $546 $552 reversed $391 $-1 #
loop $-1 $-1 $242 $379 #
vertex $-1 $385 $553 #
vertex $-1 $552 $554 #
straight-curve $-1 -41.633350627155373 -15.254109781835165 0 0 0 1 I I #
face $-1 $-1 $555 $56 $-1 $556 reversed single #
loop $-1 $-1 $250 $244 #
plane-surface $-1 0 0 8.3229937937927243 0 0 1 1 0 0 forward_v I I I I #
coedge $-1 $557 $558 $559 $560 reversed $245 $-1 #
coedge $-1 $561 $247 $249 $405 forward $153 $-1 #
coedge $-1 $247 $561 $557 $562 forward $153 $-1 #
coedge $-1 $559 $250 $247 $402 forward $396 $-1 #
edge $-1 $408 5.6550073803630649 $563 18.559570751307682 $401 $564 forward 7 unknown #
coedge $-1 $565 $566 $248 $404 forward $555 $-1 #
edge $-1 $567 -33.287497310047137 $407 -25.753684822148898 $403 $568 forward 7 unknown #
edge $-1 $408 -12.817287201857688 $567 4.3751229995395342e-015 $249 $569 forward 7 unknown #
coedge $-1 $250 $559 $565 $570 forward $396 $-1 #
vertex $-1 $251 $571 #
vertex $-1 $251 $572 #
straight-curve $-1 -17.762296446198437 -38.467566258354971 8.3229937937927261 0 1 0 I I #
coedge $-1 $410 $410 $-1 $573 reversed $254 $-1 #
edge $-1 $574 0 $574 6.2831853071796004 $255 $575 forward 7 unknown #
vertex $-1 $258 $576 #
ellipse-curve $-1 -28.085947142954129 -22.807491338026733 4.5560875498436033 0 -0.5877852598018023 0.80901698891910034 1 0 0 1 I I #
coedge $-1 $414 $414 $-1 $577 reversed $261 $-1 #
edge $-1 $578 0 $578 6.2831853071796004 $262 $579 forward 7 unknown #
vertex $-1 $265 $580 #
ellipse-curve $-1 -24.214578131670745 -22.807491338026733 4.5560875498436033 0 -0.5877852598018023 0.80901698891910034 1 0 0 1 I I #
coedge $-1 $418 $418 $-1 $581 reversed $268 $-1 #
edge $-1 $582 0 $582 6.2831853071796004 $269 $583 forward 7 unknown #
vertex $-1 $272 $584 #
ellipse-curve $-1 -20.34320912038736 -22.807491338026733 4.5560875498436033 0 -0.5877852598018023 0.80901698891910034 1 0 0 1 I I #
face $-1 $-1 $434 $60 $-1 $585 forward single #
loop $-1 $-1 $586 $273 #
plane-surface $-1 0 -27.992192887105848 0 0 1 0 0 0 1 forward_v I I I I #
coedge $-1 $587 $588 $589 $590 reversed $274 $-1 #
coedge $-1 $591 $276 $278 $432 forward $172 $-1 #
coedge $-1 $276 $591 $587 $592 forward $172 $-1 #
coedge $-1 $589 $279 $276 $429 forward $434 $-1 #
edge $-1 $436 -22.05627972691158 $593 -9.1517163559669648 $428 $594 forward 7 unknown #
coedge $-1 $595 $596 $277 $431 forward $423 $-1 #
edge $-1 $597 -33.287497310047137 $435 -25.753684822148898 $430 $598 forward 7 unknown #
edge $-1 $436 -12.817287201857688 $597 4.3751229995395342e-015 $278 $599 forward 7 unknown #
coedge $-1 $279 $589 $595 $600 forward $434 $-1 #
loop $-1 $-1 $589 $422 #
vertex $-1 $431 $601 #
vertex $-1 $280 $602 #
straight-curve $-1 37.660277768350852 -38.467566258354971 8.3229937937927261 0 1 0 I I #
coedge $-1 $438 $438 $-1 $603 reversed $283 $-1 #
edge $-1 $604 0 $604 6.2831853071796004 $284 $605 forward 7 unknown #
vertex $-1 $287 $606 #
ellipse-curve $-1 27.336627071595167 -22.807491338026733 4.5560875498436033 0 -0.5877852598018023 0.80901698891910034 1 0 0 1 I I #
coedge $-1 $442 $442 $-1 $607 reversed $290 $-1 #
edge $-1 $608 0 $608 6.2831853071796004 $291 $609 forward 7 unknown #
vertex $-1 $294 $610 #
ellipse-curve $-1 31.207996082878545 -22.807491338026733 4.5560875498436033 0 -0.5877852598018023 0.80901698891910034 1 0 0 1 I I #
coedge $-1 $446 $446 $-1 $611 reversed $297 $-1 #
edge $-1 $612 0 $612 6.2831853071796004 $298 $613 forward 7 unknown #
vertex $-1 $301 $614 #
ellipse-curve $-1 35.079365094161936 -22.807491338026733 4.5560875498436033 0 -0.5877852598018023 0.80901698891910034 1 0 0 1 I I #
face $-1 $-1 $462 $64 $-1 $615 forward single #
loop $-1 $-1 $616 $302 #
plane-surface $-1 0 27.992192887105848 0 0 -1 0 0 0 -1 forward_v I I I I #
coedge $-1 $617 $618 $619 $620 reversed $303 $-1 #
coedge $-1 $621 $305 $307 $460 forward $191 $-1 #
coedge $-1 $305 $621 $617 $622 forward $191 $-1 #
coedge $-1 $619 $308 $305 $457 forward $462 $-1 #
edge $-1 $464 -18.559570751307682 $623 -5.6550073803630649 $456 $624 forward 7 unknown #
coedge $-1 $625 $626 $306 $459 forward $451 $-1 #
edge $-1 $627 -49.740895678616816 $463 -42.207083190718571 $458 $628 forward 7 unknown #
edge $-1 $464 43.167098572353993 $627 55.984385774211702 $307 $629 forward 7 unknown #
coedge $-1 $308 $619 $625 $630 forward $462 $-1 #
loop $-1 $-1 $619 $450 #
vertex $-1 $459 $631 #
vertex $-1 $309 $632 #
straight-curve $-1 -30.666859817143052 15.821406655585937 8.3229937937927261 0 -1 0 I I #
coedge $-1 $466 $466 $-1 $633 reversed $312 $-1 #
edge $-1 $634 0 $634 6.2831853071796004 $313 $635 forward 7 unknown #
vertex $-1 $316 $636 #
ellipse-curve $-1 -28.085947142954129 22.807491338026729 4.5560875498436024 0 0.5877852598018023 0.80901698891910034 1 0 0 1 I I #
coedge $-1 $470 $470 $-1 $637 reversed $319 $-1 #
edge $-1 $638 0 $638 6.2831853071796004 $320 $639 forward 7 unknown #
vertex $-1 $323 $640 #
ellipse-curve $-1 -24.214578131670745 22.807491338026729 4.5560875498436024 0 0.5877852598018023 0.80901698891910034 1 0 0 1 I I #
coedge $-1 $474 $474 $-1 $641 reversed $326 $-1 #
edge $-1 $642 0 $642 6.2831853071796004 $327 $643 forward 7 unknown #
vertex $-1 $330 $644 #
ellipse-curve $-1 -20.34320912038736 22.807491338026729 4.5560875498436024 0 0.5877852598018023 0.80901698891910034 1 0 0 1 I I #
face $-1 $-1 $645 $68 $-1 $646 reversed single #
loop $-1 $-1 $337 $331 #
plane-surface $-1 0 0 8.3229937937927243 0 0 1 1 0 0 forward_v I I I I #
coedge $-1 $647 $648 $649 $650 reversed $332 $-1 #
coedge $-1 $651 $334 $336 $488 forward $210 $-1 #
coedge $-1 $334 $651 $647 $652 forward $210 $-1 #
coedge $-1 $649 $337 $334 $485 forward $479 $-1 #
edge $-1 $491 9.1517163559669648 $653 22.05627972691158 $484 $654 forward 7 unknown #
coedge $-1 $655 $656 $335 $487 forward $645 $-1 #
edge $-1 $657 -49.740895678616816 $490 -42.207083190718571 $486 $658 forward 7 unknown #
edge $-1 $491 43.167098572353993 $657 55.984385774211702 $336 $659 forward 7 unknown #
coedge $-1 $337 $649 $655 $660 forward $479 $-1 #
vertex $-1 $338 $661 #
vertex $-1 $338 $662 #
straight-curve $-1 24.755714397406237 15.821406655585937 8.3229937937927261 0 -1 0 I I #
coedge $-1 $493 $493 $-1 $663 reversed $341 $-1 #
edge $-1 $664 0 $664 6.2831853071796004 $342 $665 forward 7 unknown #
vertex $-1 $345 $666 #
ellipse-curve $-1 27.336627071595167 22.807491338026729 4.5560875498436024 0 0.5877852598018023 0.80901698891910034 1 0 0 1 I I #
coedge $-1 $497 $497 $-1 $667 reversed $348 $-1 #
edge $-1 $668 0 $668 6.2831853071796004 $349 $669 forward 7 unknown #
vertex $-1 $352 $670 #
ellipse-curve $-1 31.207996082878545 22.807491338026729 4.5560875498436024 0 0.5877852598018023 0.80901698891910034 1 0 0 1 I I #
coedge $-1 $501 $501 $-1 $671 reversed $355 $-1 #
edge $-1 $672 0 $672 6.2831853071796004 $356 $673 forward 7 unknown #
vertex $-1 $359 $674 #
ellipse-curve $-1 35.079365094161936 22.807491338026729 4.5560875498436024 0 0.5877852598018023 0.80901698891910034 1 0 0 1 I I #
face $-1 $-1 $375 $54 $-1 $675 reversed single #
loop $-1 $-1 $521 $360 #
plane-surface $-1 0 27.992192887105848 0 0 -1 0 0 0 -1 forward_v I I I I #
coedge $-1 $676 $519 $522 $677 forward $361 $-1 #
coedge $-1 $525 $363 $364 $513 reversed $229 $-1 #
coedge $-1 $519 $676 $363 $511 reversed $361 $-1 #
edge $-1 $526 -8.3229937937927243 $678 8.3229937937927243 $510 $679 forward 7 unknown #
coedge $-1 $365 $364 $676 $680 forward $145 $-1 #
edge $-1 $517 -41.633350627155373 $678 41.633350627155373 $509 $681 forward 7 unknown #
coedge $-1 $522 $521 $365 $515 reversed $506 $-1 #
edge $-1 $682 -41.633350627155373 $516 41.633350627155373 $514 $683 forward 7 unknown #
vertex $-1 $367 $684 #
vertex $-1 $528 $685 #
straight-curve $-1 41.633350627155373 0 -8.3229937937927243 0 -1 0 I I #
coedge $-1 $508 $510 $368 $520 reversed $361 $-1 #
edge $-1 $523 -27.992192887105848 $526 27.992192887105848 $519 $686 forward 7 unknown #
coedge $-1 $514 $369 $374 $529 forward $506 $-1 #
coedge $-1 $369 $514 $508 $677 reversed $506 $-1 #
vertex $-1 $370 $687 #
straight-curve $-1 0 27.992192887105848 8.3229937937927243 -1 0 0 I I #
coedge $-1 $371 $509 $373 $528 reversed $229 $-1 #
vertex $-1 $520 $688 #
straight-curve $-1 0 -27.992192887105848 8.3229937937927243 1 0 0 I I #
edge $-1 $376 -8.3229937937927243 $517 8.3229937937927243 $373 $689 forward 7 unknown #
edge $-1 $377 -8.3229937937927243 $516 8.3229937937927243 $374 $690 forward 7 unknown #
point $-1 41.633350627155373 -27.992192887105848 8.3229937937927243 #
point $-1 41.633350627155373 27.992192887105848 8.3229937937927243 #
face $-1 $-1 $548 $55 $-1 $691 forward single #
plane-surface $-1 -45.130059602759268 -15.254109781835165 0 0 -1 0 0 0 -1 forward_v I I I I #
coedge $-1 $692 $693 $551 $694 forward $380 $-1 #
coedge $-1 $544 $382 $383 $540 reversed $237 $-1 #
coedge $-1 $382 $544 $547 $695 reversed $237 $-1 #
coedge $-1 $693 $692 $382 $538 reversed $380 $-1 #
edge $-1 $696 -8.3229937937927243 $697 8.3229937937927243 $537 $698 forward 7 unknown #
coedge $-1 $384 $383 $692 $699 forward $149 $-1 #
edge $-1 $542 -3.4967089756038945 $697 3.4967089756038945 $535 $700 forward 7 unknown #
edge $-1 $701 -3.4967089756038945 $392 3.4967089756038945 $389 $702 forward 7 unknown #
vertex $-1 $540 $703 #
straight-curve $-1 -41.633350627155373 0 -8.3229937937927243 0 -1 0 I I #
coedge $-1 $536 $535 $386 $545 reversed $237 $-1 #
edge $-1 $549 -8.3229937937927243 $542 8.3229937937927243 $544 $704 forward 7 unknown #
coedge $-1 $705 $387 $390 $552 forward $548 $-1 #
coedge $-1 $387 $705 $536 $695 forward $548 $-1 #
loop $-1 $-1 $387 $532 #
vertex $-1 $388 $706 #
straight-curve $-1 -41.633350627155373 0 8.3229937937927243 0 1 0 I I #
coedge $-1 $390 $389 $534 $694 reversed $391 $-1 #
edge $-1 $393 -3.4967089756038945 $707 3.4967089756038945 $390 $708 forward 7 unknown #
point $-1 -41.633350627155373 -15.254109781835165 -8.3229937937927243 #
point $-1 -41.633350627155373 -15.254109781835165 8.3229937937927243 #
loop $-1 $-1 $403 $395 #
plane-surface $-1 0 -27.992192887105848 0 0 1 0 0 0 1 forward_v I I I I #
coedge $-1 $558 $398 $400 $562 reversed $245 $-1 #
coedge $-1 $398 $557 $709 $710 reversed $245 $-1 #
coedge $-1 $406 $401 $398 $560 forward $396 $-1 #
edge $-1 $563 -20.844776469407357 $711 -10.475373371249123 $559 $712 forward 7 unknown #
coedge $-1 $400 $399 $566 $713 reversed $153 $-1 #
edge $-1 $714 -4.3751229995395342e-015 $563 12.817287201857688 $557 $715 forward 7 unknown #
vertex $-1 $402 $716 #
straight-curve $-1 -12.107289065835372 -17.622789788947614 8.3229937937927243 -1 0 0 I I #
coedge $-1 $709 $403 $406 $570 reversed $555 $-1 #
coedge $-1 $403 $709 $561 $713 forward $555 $-1 #
vertex $-1 $404 $717 #
straight-curve $-1 -17.762296446198437 -27.992192887105848 34.076678615941624 0 0 1 I I #
straight-curve $-1 -17.762296446198437 -27.992192887105844 0.78918130589448765 0 -0.80901698891910034 -0.5877852598018023 I I #
edge $-1 $711 -30.666859817143052 $407 -17.762296446198437 $565 $718 forward 7 unknown #
point $-1 -17.762296446198437 -27.992192887105848 8.3229937937927243 #
point $-1 -17.762296446198437 -17.622789788947614 8.3229937937927243 #
edge $-1 $719 1 $719 0 $410 $-1 forward 7 unknown #
vertex $-1 $411 $720 #
ellipse-curve $-1 -28.085947142954129 -21.894017758361617 3.2987990545060053 0 -0.5877852598018023 0.80901698891910034 1 0 0 1 I I #
point $-1 -27.085947142954129 -22.807491338026743 4.5560875498436122 #
edge $-1 $721 1 $721 0 $414 $-1 forward 7 unknown #
vertex $-1 $415 $722 #
ellipse-curve $-1 -24.214578131670745 -21.894017758361617 3.2987990545060053 0 -0.5877852598018023 0.80901698891910034 1 0 0 1 I I #
point $-1 -23.214578131670745 -22.807491338026743 4.5560875498436122 #
edge $-1 $723 1 $723 0 $418 $-1 forward 7 unknown #
vertex $-1 $419 $724 #
ellipse-curve $-1 -20.34320912038736 -21.894017758361617 3.2987990545060053 0 -0.5877852598018023 0.80901698891910034 1 0 0 1 I I #
point $-1 -19.34320912038736 -22.807491338026743 4.5560875498436122 #
plane-surface $-1 0 0 8.3229937937927243 0 0 1 1 0 0 forward_v I I I I #
coedge $-1 $596 $595 $588 $725 forward $423 $-1 #
coedge $-1 $588 $425 $427 $592 reversed $274 $-1 #
coedge $-1 $425 $587 $586 $725 reversed $274 $-1 #
coedge $-1 $433 $428 $425 $590 forward $434 $-1 #
edge $-1 $593 -20.844776469407357 $726 -10.475373371249123 $589 $727 forward 7 unknown #
coedge $-1 $427 $426 $596 $728 reversed $172 $-1 #
edge $-1 $729 -4.3751229995395342e-015 $593 12.817287201857688 $587 $730 forward 7 unknown #
vertex $-1 $429 $731 #
straight-curve $-1 15.603998041439272 -17.622789788947614 8.3229937937927243 -1 0 0 I I #
coedge $-1 $586 $430 $433 $600 reversed $423 $-1 #
coedge $-1 $430 $586 $591 $728 forward $423 $-1 #
vertex $-1 $431 $732 #
straight-curve $-1 37.660277768350852 -27.992192887105848 34.076678615941624 0 0 1 I I #
straight-curve $-1 37.660277768350852 -27.992192887105844 0.78918130589448765 0 -0.80901698891910034 -0.5877852598018023 I I #
edge $-1 $726 24.755714397406237 $435 37.660277768350852 $595 $733 forward 7 unknown #
point $-1 37.660277768350852 -27.992192887105848 8.3229937937927243 #
point $-1 37.660277768350852 -17.622789788947614 8.3229937937927243 #
edge $-1 $734 1 $734 0 $438 $-1 forward 7 unknown #
vertex $-1 $439 $735 #
ellipse-curve $-1 27.336627071595167 -21.894017758361617 3.2987990545060053 0 -0.5877852598018023 0.80901698891910034 1 0 0 1 I I #
point $-1 28.336627071595167 -22.807491338026743 4.5560875498436122 #
edge $-1 $736 1 $736 0 $442 $-1 forward 7 unknown #
vertex $-1 $443 $737 #
ellipse-curve $-1 31.207996082878545 -21.894017758361617 3.2987990545060053 0 -0.5877852598018023 0.80901698891910034 1 0 0 1 I I #
point $-1 32.207996082878545 -22.807491338026743 4.5560875498436122 #
edge $-1 $738 1 $738 0 $446 $-1 forward 7 unknown #
vertex $-1 $447 $739 #
ellipse-curve $-1 35.079365094161936 -21.894017758361617 3.2987990545060053 0 -0.5877852598018023 0.80901698891910034 1 0 0 1 I I #
point $-1 36.079365094161936 -22.807491338026743 4.5560875498436122 #
plane-surface $-1 0 0 8.3229937937927243 0 0 1 1 0 0 forward_v I I I I #
coedge $-1 $626 $625 $618 $740 forward $451 $-1 #
coedge $-1 $618 $453 $455 $622 reversed $303 $-1 #
coedge $-1 $453 $617 $616 $740 reversed $303 $-1 #
coedge $-1 $461 $456 $453 $620 forward $462 $-1 #
edge $-1 $623 1.8013831333616661 $741 12.17078623151991 $619 $742 forward 7 unknown #
coedge $-1 $455 $454 $626 $743 reversed $191 $-1 #
edge $-1 $744 -55.984385774211702 $623 -43.167098572353993 $617 $745 forward 7 unknown #
vertex $-1 $457 $746 #
straight-curve $-1 -12.107289065835372 17.622789788947607 8.3229937937927261 1 0 0 I I #
coedge $-1 $616 $458 $461 $630 reversed $451 $-1 #
coedge $-1 $458 $616 $621 $743 forward $451 $-1 #
vertex $-1 $459 $747 #
straight-curve $-1 -30.666859817143052 27.992192887105848 50.530076984511297 0 0 1 I I #
straight-curve $-1 -30.666859817143052 -17.300126318432223 33.695978043033833 0 0.80901698891910034 -0.5877852598018023 I I #
edge $-1 $741 17.762296446198437 $463 30.666859817143052 $625 $748 forward 7 unknown #
point $-1 -30.666859817143052 27.992192887105848 8.3229937937927243 #
point $-1 -30.666859817143052 17.622789788947603 8.3229937937927296 #
edge $-1 $749 1 $749 0 $466 $-1 forward 7 unknown #
vertex $-1 $467 $750 #
ellipse-curve $-1 -28.085947142954129 21.89401775836161 3.2987990545060017 0 0.5877852598018023 0.80901698891910034 1 0 0 1 I I #
point $-1 -27.085947142954129 22.807491338026736 4.5560875498436086 #
edge $-1 $751 1 $751 0 $470 $-1 forward 7 unknown #
vertex $-1 $471 $752 #
ellipse-curve $-1 -24.214578131670745 21.89401775836161 3.2987990545060017 0 0.5877852598018023 0.80901698891910034 1 0 0 1 I I #
point $-1 -23.214578131670745 22.807491338026736 4.5560875498436086 #
edge $-1 $753 1 $753 0 $474 $-1 forward 7 unknown #
vertex $-1 $475 $754 #
ellipse-curve $-1 -20.34320912038736 21.89401775836161 3.2987990545060017 0 0.5877852598018023 0.80901698891910034 1 0 0 1 I I #
point $-1 -19.34320912038736 22.807491338026736 4.5560875498436086 #
loop $-1 $-1 $486 $478 #
plane-surface $-1 0 27.992192887105848 0 0 -1 0 0 0 -1 forward_v I I I I #
coedge $-1 $648 $481 $483 $652 reversed $332 $-1 #
coedge $-1 $481 $647 $755 $756 reversed $332 $-1 #
coedge $-1 $489 $484 $481 $650 forward $479 $-1 #
edge $-1 $653 1.8013831333616661 $757 12.17078623151991 $649 $758 forward 7 unknown #
coedge $-1 $483 $482 $656 $759 reversed $210 $-1 #
edge $-1 $760 -55.984385774211702 $653 -43.167098572353993 $647 $761 forward 7 unknown #
vertex $-1 $485 $762 #
straight-curve $-1 15.603998041439272 17.622789788947607 8.3229937937927261 1 0 0 I I #
coedge $-1 $755 $486 $489 $660 reversed $645 $-1 #
coedge $-1 $486 $755 $651 $759 forward $645 $-1 #
vertex $-1 $487 $763 #
straight-curve $-1 24.755714397406237 27.992192887105848 50.530076984511297 0 0 1 I I #
straight-curve $-1 24.755714397406237 -17.300126318432223 33.695978043033833 0 0.80901698891910034 -0.5877852598018023 I I #
edge $-1 $757 -37.660277768350852 $490 -24.755714397406237 $655 $764 forward 7 unknown #
point $-1 24.755714397406237 27.992192887105848 8.3229937937927243 #
point $-1 24.755714397406237 17.622789788947603 8.3229937937927296 #
edge $-1 $765 1 $765 0 $493 $-1 forward 7 unknown #
vertex $-1 $494 $766 #
ellipse-curve $-1 27.336627071595167 21.89401775836161 3.2987990545060017 0 0.5877852598018023 0.80901698891910034 1 0 0 1 I I #
point $-1 28.336627071595167 22.807491338026736 4.5560875498436086 #
edge $-1 $767 1 $767 0 $497 $-1 forward 7 unknown #
vertex $-1 $498 $768 #
ellipse-curve $-1 31.207996082878545 21.89401775836161 3.2987990545060017 0 0.5877852598018023 0.80901698891910034 1 0 0 1 I I #
point $-1 32.207996082878545 22.807491338026736 4.5560875498436086 #
edge $-1 $769 1 $769 0 $501 $-1 forward 7 unknown #
vertex $-1 $502 $770 #
ellipse-curve $-1 35.079365094161936 21.89401775836161 3.2987990545060017 0 0.5877852598018023 0.80901698891910034 1 0 0 1 I I #
point $-1 36.079365094161936 22.807491338026736 4.5560875498436086 #
plane-surface $-1 41.633350627155373 0 0 -1 0 0 0 0 1 forward_v I I I I #
coedge $-1 $510 $508 $512 $680 reversed $361 $-1 #
edge $-1 $523 -8.3229937937927243 $682 8.3229937937927243 $522 $771 forward 7 unknown #
vertex $-1 $680 $772 #
straight-curve $-1 -41.633350627155373 -27.992192887105848 0 0 0 -1 I I #
edge $-1 $678 -27.992192887105848 $682 27.992192887105848 $676 $773 forward 7 unknown #
straight-curve $-1 0 -27.992192887105848 -8.3229937937927243 -1 0 0 I I #
vertex $-1 $515 $774 #
straight-curve $-1 0 27.992192887105848 -8.3229937937927243 1 0 0 I I #
point $-1 41.633350627155373 27.992192887105848 -8.3229937937927243 #
point $-1 41.633350627155373 -27.992192887105848 -8.3229937937927243 #
straight-curve $-1 -41.633350627155373 0 8.3229937937927243 0 -1 0 I I #
point $-1 -41.633350627155373 27.992192887105848 8.3229937937927243 #
point $-1 -41.633350627155373 -27.992192887105848 8.3229937937927243 #
straight-curve $-1 41.633350627155373 -27.992192887105848 0 0 0 -1 I I #
straight-curve $-1 41.633350627155373 27.992192887105848 0 0 0 -1 I I #
plane-surface $-1 0 0 8.3229937937927243 0 0 1 1 0 0 forward_v I I I I #
coedge $-1 $537 $534 $539 $699 reversed $380 $-1 #
coedge $-1 $534 $537 $705 $775 reversed $380 $-1 #
edge $-1 $707 -8.3229937937927243 $701 8.3229937937927243 $551 $776 forward 7 unknown #
edge $-1 $696 -3.4967089756038945 $549 3.4967089756038945 $536 $777 forward 7 unknown #
vertex $-1 $775 $778 #
vertex $-1 $699 $779 #
straight-curve $-1 -48.626768578363162 -19.494526145626008 0 0 0 -1 I I #
edge $-1 $697 -2.1202081818954213 $701 2.1202081818954213 $692 $780 forward 7 unknown #
straight-curve $-1 -45.130059602759268 -19.494526145626008 -8.3229937937927243 -1 0 0 I I #
vertex $-1 $541 $781 #
straight-curve $-1 -45.130059602759268 -15.254109781835165 -8.3229937937927243 1 0 0 I I #
point $-1 -41.633350627155373 -19.494526145626008 -8.3229937937927243 #
straight-curve $-1 -41.633350627155373 -19.494526145626008 0 0 0 -1 I I #
coedge $-1 $547 $546 $693 $775 forward $548 $-1 #
point $-1 -41.633350627155373 -19.494526145626008 8.3229937937927243 #
vertex $-1 $552 $782 #
straight-curve $-1 -45.130059602759268 -15.254109781835165 8.3229937937927243 -1 0 0 I I #
coedge $-1 $566 $565 $558 $710 forward $555 $-1 #
edge $-1 $711 25.753684822148898 $714 33.287497310047137 $709 $783 forward 7 unknown #
vertex $-1 $570 $784 #
straight-curve $-1 -30.666859817143052 -38.467566258354971 8.3229937937927261 0 -1 0 I I #
edge $-1 $714 -18.559570751307682 $567 -5.6550073803630649 $566 $785 forward 7 unknown #
vertex $-1 $713 $786 #
straight-curve $-1 -30.666859817143052 -27.992192887105844 0.78918130589448765 0 0.80901698891910034 0.5877852598018023 I I #
point $-1 -30.666859817143052 -17.622789788947614 8.3229937937927243 #
point $-1 -17.762296446198437 -27.992192887105848 0.7891813058944851 #
straight-curve $-1 0 -27.992192887105848 8.3229937937927243 1 0 0 I I #
vertex $-1 $573 $787 #
point $-1 -27.085947142954129 -21.894017758361617 3.2987990545060053 #
vertex $-1 $577 $788 #
point $-1 -23.214578131670745 -21.894017758361617 3.2987990545060053 #
vertex $-1 $581 $789 #
point $-1 -19.34320912038736 -21.894017758361617 3.2987990545060053 #
edge $-1 $726 25.753684822148898 $729 33.287497310047137 $586 $790 forward 7 unknown #
vertex $-1 $600 $791 #
straight-curve $-1 24.755714397406237 -38.467566258354971 8.3229937937927261 0 -1 0 I I #
edge $-1 $729 9.1517163559669648 $597 22.05627972691158 $596 $792 forward 7 unknown #
vertex $-1 $728 $793 #
straight-curve $-1 24.755714397406237 -27.992192887105844 0.78918130589448765 0 0.80901698891910034 0.5877852598018023 I I #
point $-1 24.755714397406237 -17.622789788947614 8.3229937937927243 #
point $-1 37.660277768350852 -27.992192887105848 0.7891813058944851 #
straight-curve $-1 0 -27.992192887105848 8.3229937937927243 1 0 0 I I #
vertex $-1 $603 $794 #
point $-1 28.336627071595167 -21.894017758361617 3.2987990545060053 #
vertex $-1 $607 $795 #
point $-1 32.207996082878545 -21.894017758361617 3.2987990545060053 #
vertex $-1 $611 $796 #
point $-1 36.079365094161936 -21.894017758361617 3.2987990545060053 #
edge $-1 $741 42.207083190718571 $744 49.740895678616816 $616 $797 forward 7 unknown #
vertex $-1 $630 $798 #
straight-curve $-1 -17.762296446198437 15.821406655585937 8.3229937937927261 0 1 0 I I #
edge $-1 $744 5.6550073803630649 $627 18.559570751307682 $626 $799 forward 7 unknown #
vertex $-1 $743 $800 #
straight-curve $-1 -17.762296446198437 -17.300126318432223 33.695978043033833 0 -0.80901698891910034 0.5877852598018023 I I #
point $-1 -17.762296446198437 17.622789788947603 8.3229937937927296 #
point $-1 -30.666859817143052 27.992192887105848 0.78918130589448054 #
straight-curve $-1 0 27.992192887105848 8.3229937937927243 -1 0 0 I I #
vertex $-1 $633 $801 #
point $-1 -27.085947142954129 21.89401775836161 3.2987990545060017 #
vertex $-1 $637 $802 #
point $-1 -23.214578131670745 21.89401775836161 3.2987990545060017 #
vertex $-1 $641 $803 #
point $-1 -19.34320912038736 21.89401775836161 3.2987990545060017 #
coedge $-1 $656 $655 $648 $756 forward $645 $-1 #
edge $-1 $757 42.207083190718571 $760 49.740895678616816 $755 $804 forward 7 unknown #
vertex $-1 $660 $805 #
straight-curve $-1 37.660277768350852 15.821406655585937 8.3229937937927261 0 1 0 I I #
edge $-1 $760 -22.05627972691158 $657 -9.1517163559669648 $656 $806 forward 7 unknown #
vertex $-1 $759 $807 #
straight-curve $-1 37.660277768350852 -17.300126318432223 33.695978043033833 0 -0.80901698891910034 0.5877852598018023 I I #
point $-1 37.660277768350852 17.622789788947603 8.3229937937927296 #
point $-1 24.755714397406237 27.992192887105848 0.78918130589448054 #
straight-curve $-1 0 27.992192887105848 8.3229937937927243 -1 0 0 I I #
vertex $-1 $663 $808 #
point $-1 28.336627071595167 21.89401775836161 3.2987990545060017 #
vertex $-1 $667 $809 #
point $-1 32.207996082878545 21.89401775836161 3.2987990545060017 #
vertex $-1 $671 $810 #
point $-1 36.079365094161936 21.89401775836161 3.2987990545060017 #
straight-curve $-1 -41.633350627155373 27.992192887105848 0 0 0 -1 I I #
point $-1 -41.633350627155373 -27.992192887105848 -8.3229937937927243 #
straight-curve $-1 -41.633350627155373 0 -8.3229937937927243 0 1 0 I I #
point $-1 -41.633350627155373 27.992192887105848 -8.3229937937927243 #
edge $-1 $707 -2.1202081818954213 $696 2.1202081818954213 $693 $811 forward 7 unknown #
straight-curve $-1 -48.626768578363162 -15.254109781835165 0 0 0 -1 I I #
straight-curve $-1 -45.130059602759268 -19.494526145626008 8.3229937937927243 1 0 0 I I #
point $-1 -48.626768578363162 -19.494526145626008 8.3229937937927243 #
point $-1 -48.626768578363162 -19.494526145626008 -8.3229937937927243 #
straight-curve $-1 -48.626768578363162 -17.374317963730586 -8.3229937937927243 0 1 0 I I #
point $-1 -48.626768578363162 -15.254109781835165 -8.3229937937927243 #
point $-1 -48.626768578363162 -15.254109781835165 8.3229937937927243 #
straight-curve $-1 -30.666859817143052 -27.992192887105848 34.076678615941624 0 0 -1 I I #
point $-1 -30.666859817143052 -27.992192887105848 8.3229937937927243 #
straight-curve $-1 -12.107289065835372 -27.992192887105848 0.78918130589448354 1 0 0 I I #
point $-1 -30.666859817143052 -27.992192887105848 0.7891813058944851 #
point $-1 -28.085947142954129 -21.306232498559812 2.4897820655869052 #
point $-1 -24.214578131670745 -21.306232498559812 2.4897820655869052 #
point $-1 -20.34320912038736 -21.306232498559812 2.4897820655869052 #
straight-curve $-1 24.755714397406237 -27.992192887105848 34.076678615941624 0 0 -1 I I #
point $-1 24.755714397406237 -27.992192887105848 8.3229937937927243 #
straight-curve $-1 15.603998041439272 -27.992192887105848 0.78918130589448354 1 0 0 I I #
point $-1 24.755714397406237 -27.992192887105848 0.7891813058944851 #
point $-1 27.336627071595167 -21.306232498559812 2.4897820655869052 #
point $-1 31.207996082878545 -21.306232498559812 2.4897820655869052 #
point $-1 35.079365094161936 -21.306232498559812 2.4897820655869052 #
straight-curve $-1 -17.762296446198437 27.992192887105848 50.530076984511297 0 0 -1 I I #
point $-1 -17.762296446198437 27.992192887105848 8.3229937937927243 #
straight-curve $-1 -12.107289065835372 27.992192887105848 0.78918130589448054 -1 0 0 I I #
point $-1 -17.762296446198437 27.992192887105848 0.78918130589448054 #
point $-1 -28.085947142954129 21.306232498559805 2.4897820655869016 #
point $-1 -24.214578131670745 21.306232498559805 2.4897820655869016 #
point $-1 -20.34320912038736 21.306232498559805 2.4897820655869016 #
straight-curve $-1 37.660277768350852 27.992192887105848 50.530076984511297 0 0 -1 I I #
point $-1 37.660277768350852 27.992192887105848 8.3229937937927243 #
straight-curve $-1 15.603998041439272 27.992192887105848 0.78918130589448054 -1 0 0 I I #
point $-1 37.660277768350852 27.992192887105848 0.78918130589448054 #
point $-1 27.336627071595167 21.306232498559805 2.4897820655869016 #
point $-1 31.207996082878545 21.306232498559805 2.4897820655869016 #
point $-1 35.079365094161936 21.306232498559805 2.4897820655869016 #
straight-curve $-1 -48.626768578363162 -17.374317963730586 8.3229937937927243 0 -1 0 I I #
End-of-ACIS-data 