500 0 4 0           
7 Unknown 11 ACIS 5.0 NT 24 Fri Mar 26 15:25:57 1999 
-1 9.9999999999999995e-007 1e-010 
body $-1 $4 $-1 $5 #
body $-1 $6 $-1 $7 #
body $-1 $8 $-1 $9 #
body $-1 $10 $-1 $11 #
lump $-1 $-1 $12 $0 #
transform $-1 1 0 0 0 1 0 0 0 1 63.273415326395458 37.113825349644095 10.245123845716751 1 rotate no_reflect no_shear #
lump $-1 $-1 $13 $1 #
transform $-1 1 0 0 0 1 0 0 0 1 63.273415326395458 37.113825349644095 10.245123845716751 1 rotate no_reflect no_shear #
lump $-1 $-1 $14 $2 #
transform $-1 1 0 0 0 1 0 0 0 1 63.273415326395458 37.113825349644095 10.245123845716751 1 rotate no_reflect no_shear #
lump $-1 $-1 $15 $3 #
transform $-1 1 0 0 0 1 0 0 0 1 63.273415326395458 37.113825349644095 10.245123845716751 1 rotate no_reflect no_shear #
shell $-1 $-1 $-1 $16 $-1 $4 #
shell $-1 $-1 $-1 $17 $-1 $6 #
shell $-1 $-1 $-1 $18 $-1 $8 #
shell $-1 $-1 $-1 $19 $-1 $10 #
face $-1 $20 $21 $12 $-1 $22 forward single #
face $-1 $23 $24 $13 $-1 $25 forward single #
face $-1 $26 $27 $14 $-1 $28 reversed single #
face $-1 $29 $30 $15 $-1 $31 forward single #
face $-1 $32 $33 $12 $-1 $34 reversed single #
loop $-1 $-1 $35 $16 #
plane-surface $-1 0 0 10.245123845716751 0 0 1 1 0 0 forward_v I I I I #
face $-1 $36 $37 $13 $-1 $38 reversed single #
loop $-1 $-1 $39 $17 #
plane-surface $-1 0 -30.468120830249759 -6.439166799775049 0 0 1 1 0 0 forward_v I I I I #
face $-1 $40 $41 $14 $-1 $42 reversed single #
loop $-1 $-1 $43 $18 #
plane-surface $-1 -132.19575996036204 -10.525031468341901 112.7002911606349 0 1 0 -0.54463904215088732 0 0.83867056331134215 forward_v I I I I #
face $-1 $44 $45 $15 $-1 $46 forward single #
loop $-1 $47 $48 $19 #
cone-surface $-1 -60.007742119875481 -6.459112954152836 7.7366194597244808 0.54463904215088732 0 -0.83867056331134215 0.83867056331134215 0 0.54463904215088732 1 I I 0 1 1 forward I I I I #
face $-1 $49 $50 $12 $-1 $51 reversed single #
loop $-1 $-1 $52 $20 #
plane-surface $-1 0 0 -10.245123845716751 0 0 1 1 0 0 forward_v I I I I #
coedge $-1 $53 $54 $55 $56 forward $21 $-1 #
face $-1 $57 $58 $13 $-1 $59 reversed single #
loop $-1 $-1 $60 $23 #
plane-surface $-1 0 -23.822416310855424 -8.3421453227458997 0 -1 0 0 0 -1 forward_v I I I I #
coedge $-1 $61 $62 $63 $64 reversed $24 $-1 #
face $-1 $65 $66 $14 $-1 $67 reversed single #
loop $-1 $-1 $68 $26 #
plane-surface $-1 -63.273415326395451 -6.459112954152836 6.5691894117937295 -0.54463904215088732 0 0.83867056331134215 0.83867056331134215 0 0.54463904215088732 forward_v I I I I #
coedge $-1 $69 $70 $71 $72 reversed $27 $-1 #
face $-1 $-1 $73 $15 $-1 $74 forward single #
loop $-1 $75 $76 $29 #
cone-surface $-1 -59.29997066159892 -6.459112954152836 6.6467470090380623 0.54463904215088732 0 -0.83867056331134215 0.41933528165567108 0 0.27231952107544366 1 I I -0.70710678118654746 0.70710678118654746 0.5 forward I I I I #
loop $-1 $-1 $77 $19 #
coedge $-1 $48 $48 $78 $79 reversed $30 $-1 #
face $-1 $80 $81 $12 $-1 $82 reversed single #
loop $-1 $-1 $83 $32 #
plane-surface $-1 0 -37.113825349644095 0 0 1 0 0 0 1 forward_v I I I I #
coedge $-1 $84 $85 $86 $87 forward $33 $-1 #
coedge $-1 $88 $35 $89 $90 forward $21 $-1 #
coedge $-1 $35 $88 $91 $92 forward $21 $-1 #
coedge $-1 $93 $94 $35 $56 reversed $95 $-1 #
edge $-1 $96 -37.113825349644095 $97 37.113825349644095 $55 $98 forward 7 unknown #
face $-1 $99 $100 $13 $-1 $101 reversed single #
loop $-1 $-1 $102 $36 #
plane-surface $-1 0 0 -10.245123845716751 0 0 1 1 0 0 forward_v I I I I #
coedge $-1 $103 $104 $105 $106 reversed $37 $-1 #
coedge $-1 $107 $39 $104 $108 forward $24 $-1 #
coedge $-1 $39 $107 $109 $110 reversed $24 $-1 #
coedge $-1 $111 $105 $39 $64 forward $100 $-1 #
edge $-1 $112 8.5883558957305439 $113 21.879764934519216 $63 $114 forward 7 unknown #
face $-1 $115 $116 $14 $-1 $117 forward single #
loop $-1 $-1 $118 $40 #
plane-surface $-1 -132.19575996036204 -2.3931944399637715 112.7002911606349 0 -1 0 0.54463904215088732 0 -0.83867056331134215 forward_v I I I I #
coedge $-1 $119 $120 $121 $122 reversed $41 $-1 #
coedge $-1 $70 $43 $123 $124 reversed $27 $-1 #
coedge $-1 $43 $69 $119 $125 reversed $27 $-1 #
coedge $-1 $121 $126 $43 $72 forward $116 $-1 #
edge $-1 $127 2.8244646537855616 $128 8.4849071924232788 $71 $129 forward 7 unknown #
loop $-1 $-1 $78 $44 #
plane-surface $-1 -63.273415326395451 -6.459112954152836 6.5691894117937295 -0.54463904215088732 0 0.83867056331134215 0.83867056331134215 0 0.54463904215088732 forward_v I I I I #
loop $-1 $-1 $130 $29 #
coedge $-1 $76 $76 $77 $131 reversed $45 $-1 #
coedge $-1 $77 $77 $76 $131 forward $47 $-1 #
coedge $-1 $78 $78 $48 $79 forward $73 $-1 #
edge $-1 $132 0 $132 6.2831853071796004 $78 $133 forward 7 unknown #
face $-1 $134 $135 $12 $-1 $136 reversed single #
loop $-1 $-1 $137 $49 #
plane-surface $-1 -63.273415326395458 0 0 1 0 0 0 0 -1 forward_v I I I I #
coedge $-1 $138 $91 $139 $140 forward $50 $-1 #
coedge $-1 $141 $52 $138 $142 forward $33 $-1 #
coedge $-1 $52 $141 $143 $144 forward $33 $-1 #
coedge $-1 $94 $93 $52 $87 reversed $95 $-1 #
edge $-1 $145 -37.113825349644095 $146 37.113825349644095 $86 $147 forward 7 unknown #
coedge $-1 $54 $53 $148 $149 forward $21 $-1 #
coedge $-1 $150 $151 $53 $90 reversed $135 $-1 #
edge $-1 $97 -63.273415326395458 $152 63.273415326395458 $89 $153 forward 7 unknown #
coedge $-1 $83 $154 $54 $92 reversed $50 $-1 #
edge $-1 $155 -63.273415326395458 $96 63.273415326395458 $91 $156 forward 7 unknown #
coedge $-1 $86 $55 $154 $157 forward $95 $-1 #
coedge $-1 $55 $86 $150 $158 reversed $95 $-1 #
loop $-1 $-1 $93 $134 #
vertex $-1 $56 $159 #
vertex $-1 $56 $160 #
straight-curve $-1 63.273415326395458 0 10.245123845716751 0 1 0 I I #
face $-1 $161 $162 $13 $-1 $163 reversed single #
loop $-1 $-1 $105 $57 #
plane-surface $-1 63.273415326395458 0 0 -1 0 0 0 0 1 forward_v I I I I #
coedge $-1 $164 $165 $103 $166 forward $58 $-1 #
coedge $-1 $167 $60 $102 $166 reversed $37 $-1 #
coedge $-1 $60 $167 $61 $108 reversed $37 $-1 #
coedge $-1 $63 $168 $60 $106 forward $100 $-1 #
edge $-1 $169 -6.0740511843438014 $112 -2.2680941384020992 $105 $170 forward 7 unknown #
coedge $-1 $62 $61 $171 $172 reversed $24 $-1 #
edge $-1 $112 -63.273415326395458 $173 63.273415326395458 $104 $174 forward 7 unknown #
coedge $-1 $175 $176 $62 $110 forward $162 $-1 #
edge $-1 $113 -63.273415326395458 $177 63.273415326395458 $109 $178 forward 7 unknown #
coedge $-1 $168 $63 $176 $179 forward $100 $-1 #
vertex $-1 $64 $180 #
vertex $-1 $179 $181 #
straight-curve $-1 63.273415326395458 -15.23406041512488 -6.439166799775049 0 -1 0 I I #
face $-1 $-1 $182 $14 $-1 $183 reversed single #
loop $-1 $-1 $71 $65 #
plane-surface $-1 0 0 10.245123845716751 0 0 1 1 0 0 forward_v I I I I #
coedge $-1 $184 $185 $186 $187 reversed $66 $-1 #
coedge $-1 $188 $68 $70 $125 forward $41 $-1 #
coedge $-1 $68 $188 $184 $189 forward $41 $-1 #
coedge $-1 $186 $71 $68 $122 forward $116 $-1 #
edge $-1 $128 -7.2954749912654826 $190 0.83636203711264656 $121 $191 forward 7 unknown #
coedge $-1 $192 $193 $69 $124 forward $182 $-1 #
edge $-1 $194 -49.78095616852373 $127 -46.105021734600697 $123 $195 forward 7 unknown #
edge $-1 $128 -6.7493039415720713 $194 8.3777959833898778e-015 $70 $196 forward 7 unknown #
coedge $-1 $71 $186 $192 $197 forward $116 $-1 #
vertex $-1 $124 $198 #
vertex $-1 $72 $199 #
straight-curve $-1 -66.09787998018102 -10.525031468341901 10.245123845716748 1 0 0 I I #
coedge $-1 $130 $130 $-1 $200 reversed $75 $-1 #
edge $-1 $201 0 $201 6.2831853071796004 $76 $202 forward 7 unknown #
vertex $-1 $79 $203 #
ellipse-curve $-1 -60.443194057076603 -6.459112954152836 8.4071566287552368 -0.54463904215088732 0 0.83867056331134215 0.83867056331134215 0 0.54463904215088732 1 I I #
face $-1 $-1 $95 $12 $-1 $204 reversed single #
loop $-1 $-1 $150 $80 #
plane-surface $-1 0 37.113825349644095 0 0 -1 0 0 0 -1 forward_v I I I I #
coedge $-1 $205 $148 $151 $206 forward $81 $-1 #
coedge $-1 $154 $83 $84 $142 reversed $50 $-1 #
coedge $-1 $148 $205 $83 $140 reversed $81 $-1 #
edge $-1 $155 -10.245123845716751 $207 10.245123845716751 $139 $208 forward 7 unknown #
coedge $-1 $85 $84 $205 $209 forward $33 $-1 #
edge $-1 $146 -63.273415326395458 $207 63.273415326395458 $138 $210 forward 7 unknown #
coedge $-1 $151 $150 $85 $144 reversed $135 $-1 #
edge $-1 $211 -63.273415326395458 $145 63.273415326395458 $143 $212 forward 7 unknown #
vertex $-1 $87 $213 #
vertex $-1 $157 $214 #
straight-curve $-1 63.273415326395458 0 -10.245123845716751 0 -1 0 I I #
coedge $-1 $137 $139 $88 $149 reversed $81 $-1 #
edge $-1 $152 -37.113825349644095 $155 37.113825349644095 $148 $215 forward 7 unknown #
coedge $-1 $143 $89 $94 $158 forward $135 $-1 #
coedge $-1 $89 $143 $137 $206 reversed $135 $-1 #
vertex $-1 $90 $216 #
straight-curve $-1 0 37.113825349644095 10.245123845716751 -1 0 0 I I #
coedge $-1 $91 $138 $93 $157 reversed $50 $-1 #
vertex $-1 $149 $217 #
straight-curve $-1 0 -37.113825349644095 10.245123845716751 1 0 0 I I #
edge $-1 $96 -10.245123845716751 $146 10.245123845716751 $93 $218 forward 7 unknown #
edge $-1 $97 -10.245123845716751 $145 10.245123845716751 $94 $219 forward 7 unknown #
point $-1 63.273415326395458 -37.113825349644095 10.245123845716751 #
point $-1 63.273415326395458 37.113825349644095 10.245123845716751 #
face $-1 $-1 $220 $13 $-1 $221 reversed single #
loop $-1 $-1 $109 $99 #
plane-surface $-1 0 -37.113825349644095 0 0 1 0 0 0 1 forward_v I I I I #
coedge $-1 $222 $102 $168 $223 forward $58 $-1 #
coedge $-1 $102 $222 $224 $225 forward $58 $-1 #
edge $-1 $226 -63.273415326395458 $169 63.273415326395458 $102 $227 forward 7 unknown #
coedge $-1 $104 $103 $228 $229 reversed $37 $-1 #
coedge $-1 $105 $111 $164 $223 reversed $100 $-1 #
vertex $-1 $223 $230 #
straight-curve $-1 63.273415326395458 -23.822416310855424 -4.1710726613729499 0 0 1 I I #
coedge $-1 $228 $231 $107 $172 forward $220 $-1 #
edge $-1 $177 -21.879764934519216 $173 -8.5883558957305439 $171 $232 forward 7 unknown #
vertex $-1 $172 $233 #
straight-curve $-1 0 -23.822416310855424 -6.439166799775049 -1 0 0 I I #
coedge $-1 $234 $109 $231 $235 forward $162 $-1 #
coedge $-1 $109 $234 $111 $179 reversed $162 $-1 #
vertex $-1 $235 $236 #
straight-curve $-1 0 -37.113825349644095 -6.439166799775049 -1 0 0 I I #
edge $-1 $113 6.439166799775049 $237 10.245123845716751 $111 $238 forward 7 unknown #
point $-1 63.273415326395458 -23.822416310855424 -6.439166799775049 #
point $-1 63.273415326395458 -37.113825349644095 -6.439166799775049 #
loop $-1 $-1 $123 $115 #
plane-surface $-1 -63.273415326395458 0 0 1 0 0 0 0 -1 forward_v I I I I #
coedge $-1 $185 $118 $120 $189 reversed $66 $-1 #
coedge $-1 $118 $184 $239 $240 reversed $66 $-1 #
coedge $-1 $126 $121 $118 $187 forward $116 $-1 #
edge $-1 $190 -8.4849071924232788 $241 -2.8244646537855616 $186 $242 forward 7 unknown #
coedge $-1 $120 $119 $193 $243 reversed $41 $-1 #
edge $-1 $244 -8.3777959833898778e-015 $190 6.7493039415720713 $184 $245 forward 7 unknown #
vertex $-1 $122 $246 #
straight-curve $-1 -57.612972787757741 -3.229556477076418 10.245123845716751 0 1 0 I I #
coedge $-1 $239 $123 $126 $197 reversed $182 $-1 #
coedge $-1 $123 $239 $188 $243 forward $182 $-1 #
vertex $-1 $124 $247 #
straight-curve $-1 -63.273415326395458 -10.525031468341901 56.350145580317452 0 0 1 I I #
straight-curve $-1 -63.273415326395451 -10.525031468341901 6.5691894117937295 -0.83867056331134215 0 -0.54463904215088732 I I #
edge $-1 $241 2.3931944399637715 $127 10.525031468341901 $192 $248 forward 7 unknown #
point $-1 -63.273415326395458 -10.525031468341901 10.245123845716751 #
point $-1 -57.612972787757741 -10.525031468341901 10.245123845716751 #
edge $-1 $249 1 $249 0 $130 $-1 forward 7 unknown #
vertex $-1 $131 $250 #
ellipse-curve $-1 -59.572290182674365 -6.459112954152836 7.0660822906937337 -0.54463904215088732 0 0.83867056331134215 0.83867056331134215 0 0.54463904215088732 1 I I #
point $-1 -59.604523493765249 -6.459112954152836 8.9517956709061171 #
plane-surface $-1 63.273415326395458 0 0 -1 0 0 0 0 1 forward_v I I I I #
coedge $-1 $139 $137 $141 $209 reversed $81 $-1 #
edge $-1 $152 -10.245123845716751 $211 10.245123845716751 $151 $251 forward 7 unknown #
vertex $-1 $209 $252 #
straight-curve $-1 -63.273415326395458 -37.113825349644095 0 0 0 -1 I I #
edge $-1 $207 -37.113825349644095 $211 37.113825349644095 $205 $253 forward 7 unknown #
straight-curve $-1 0 -37.113825349644095 -10.245123845716751 -1 0 0 I I #
vertex $-1 $144 $254 #
straight-curve $-1 0 37.113825349644095 -10.245123845716751 1 0 0 I I #
point $-1 63.273415326395458 37.113825349644095 -10.245123845716751 #
point $-1 63.273415326395458 -37.113825349644095 -10.245123845716751 #
straight-curve $-1 -63.273415326395458 0 10.245123845716751 0 -1 0 I I #
point $-1 -63.273415326395458 37.113825349644095 10.245123845716751 #
point $-1 -63.273415326395458 -37.113825349644095 10.245123845716751 #
straight-curve $-1 63.273415326395458 -37.113825349644095 0 0 0 -1 I I #
straight-curve $-1 63.273415326395458 37.113825349644095 0 0 0 -1 I I #
loop $-1 $-1 $228 $161 #
plane-surface $-1 -63.273415326395458 0 0 1 0 0 0 0 -1 forward_v I I I I #
coedge $-1 $165 $164 $234 $255 forward $58 $-1 #
edge $-1 $169 23.822416310855424 $237 37.113825349644095 $168 $256 forward 7 unknown #
coedge $-1 $231 $228 $165 $225 reversed $220 $-1 #
edge $-1 $257 -37.113825349644095 $226 -23.822416310855424 $224 $258 forward 7 unknown #
vertex $-1 $229 $259 #
straight-curve $-1 0 -23.822416310855424 -10.245123845716751 1 0 0 I I #
coedge $-1 $224 $171 $167 $229 forward $220 $-1 #
edge $-1 $173 2.2680941384020992 $226 6.0740511843438014 $228 $260 forward 7 unknown #
point $-1 63.273415326395458 -23.822416310855424 -10.245123845716751 #
coedge $-1 $171 $224 $175 $235 reversed $220 $-1 #
straight-curve $-1 -63.273415326395458 -15.23406041512488 -6.439166799775049 0 1 0 I I #
point $-1 -63.273415326395458 -23.822416310855424 -6.439166799775049 #
coedge $-1 $176 $175 $222 $255 reversed $162 $-1 #
edge $-1 $177 6.439166799775049 $257 10.245123845716751 $231 $261 forward 7 unknown #
point $-1 -63.273415326395458 -37.113825349644095 -6.439166799775049 #
vertex $-1 $179 $262 #
straight-curve $-1 63.273415326395458 -37.113825349644095 0 0 0 -1 I I #
coedge $-1 $193 $192 $185 $240 forward $182 $-1 #
edge $-1 $241 46.105021734600697 $244 49.78095616852373 $239 $263 forward 7 unknown #
vertex $-1 $197 $264 #
straight-curve $-1 -66.09787998018102 -2.3931944399637715 10.245123845716748 -1 0 0 I I #
edge $-1 $244 -0.83636203711264656 $194 7.2954749912654826 $193 $265 forward 7 unknown #
vertex $-1 $243 $266 #
straight-curve $-1 -63.273415326395451 -2.3931944399637715 6.5691894117937295 0.83867056331134215 0 0.54463904215088732 I I #
point $-1 -57.612972787757741 -2.3931944399637715 10.245123845716751 #
point $-1 -63.273415326395458 -10.525031468341901 6.5691894117937251 #
straight-curve $-1 -63.273415326395458 0 10.245123845716751 0 -1 0 I I #
vertex $-1 $200 $267 #
point $-1 -58.733619619363019 -6.459112954152836 7.610721332844621 #
straight-curve $-1 -63.273415326395458 37.113825349644095 0 0 0 -1 I I #
point $-1 -63.273415326395458 -37.113825349644095 -10.245123845716751 #
straight-curve $-1 -63.273415326395458 0 -10.245123845716751 0 1 0 I I #
point $-1 -63.273415326395458 37.113825349644095 -10.245123845716751 #
edge $-1 $237 -63.273415326395458 $257 63.273415326395458 $234 $268 forward 7 unknown #
straight-curve $-1 63.273415326395458 0 -10.245123845716751 0 -1 0 I I #
vertex $-1 $225 $269 #
straight-curve $-1 -63.273415326395458 0 -10.245123845716751 0 1 0 I I #
point $-1 -63.273415326395458 -23.822416310855424 -10.245123845716751 #
straight-curve $-1 -63.273415326395458 -23.822416310855424 -4.1710726613729499 0 0 -1 I I #
straight-curve $-1 -63.273415326395458 -37.113825349644095 0 0 0 -1 I I #
point $-1 63.273415326395458 -37.113825349644095 -10.245123845716751 #
straight-curve $-1 -63.273415326395458 -2.3931944399637715 56.350145580317452 0 0 -1 I I #
point $-1 -63.273415326395458 -2.3931944399637715 10.245123845716751 #
straight-curve $-1 -63.273415326395458 -3.229556477076418 6.5691894117937206 0 -1 0 I I #
point $-1 -63.273415326395458 -2.3931944399637715 6.5691894117937251 #
point $-1 -59.027651140523474 -6.459112954152836 6.2274117273823908 #
straight-curve $-1 0 -37.113825349644095 -10.245123845716751 -1 0 0 I I #
point $-1 -63.273415326395458 -37.113825349644095 -10.245123845716751 #
End-of-ACIS-data 