500 0 17 0           
7 Unknown 11 ACIS 5.0 NT 24 Fri Mar 26 15:31:10 1999 
-1 9.9999999999999995e-007 1e-010 
body $-1 $17 $-1 $18 #
body $-1 $19 $-1 $20 #
body $-1 $21 $-1 $22 #
body $-1 $23 $-1 $24 #
body $-1 $25 $-1 $26 #
body $-1 $27 $-1 $28 #
body $-1 $29 $-1 $30 #
body $-1 $31 $-1 $32 #
body $-1 $33 $-1 $34 #
body $-1 $35 $-1 $36 #
body $-1 $37 $-1 $38 #
body $-1 $39 $-1 $40 #
body $-1 $41 $-1 $42 #
body $-1 $43 $-1 $44 #
body $-1 $45 $-1 $46 #
body $-1 $47 $-1 $48 #
body $-1 $49 $-1 $50 #
lump $-1 $-1 $51 $0 #
transform $-1 1 0 0 0 1 0 0 0 1 70.833460493789488 32.085717970065005 15.183603712388315 1 rotate no_reflect no_shear #
lump $-1 $-1 $52 $1 #
transform $-1 1 0 0 0 1 0 0 0 1 70.833460493789488 32.085717970065005 15.183603712388315 1 rotate no_reflect no_shear #
lump $-1 $-1 $53 $2 #
transform $-1 1 0 0 0 1 0 0 0 1 70.833460493789488 32.085717970065005 15.183603712388315 1 rotate no_reflect no_shear #
lump $-1 $-1 $54 $3 #
transform $-1 1 0 0 0 1 0 0 0 1 70.833460493789488 32.085717970065005 15.183603712388315 1 rotate no_reflect no_shear #
lump $-1 $-1 $55 $4 #
transform $-1 1 0 0 0 1 0 0 0 1 70.833460493789488 32.085717970065005 15.183603712388315 1 rotate no_reflect no_shear #
lump $-1 $-1 $56 $5 #
transform $-1 1 0 0 0 1 0 0 0 1 70.833460493789488 32.085717970065005 15.183603712388315 1 rotate no_reflect no_shear #
lump $-1 $-1 $57 $6 #
transform $-1 1 0 0 0 1 0 0 0 1 70.833460493789488 32.085717970065005 15.183603712388315 1 rotate no_reflect no_shear #
lump $-1 $-1 $58 $7 #
transform $-1 1 0 0 0 1 0 0 0 1 70.833460493789488 32.085717970065005 15.183603712388315 1 rotate no_reflect no_shear #
lump $-1 $-1 $59 $8 #
transform $-1 1 0 0 0 1 0 0 0 1 70.833460493789488 32.085717970065005 15.183603712388315 1 rotate no_reflect no_shear #
lump $-1 $-1 $60 $9 #
transform $-1 1 0 0 0 1 0 0 0 1 70.833460493789488 32.085717970065005 15.183603712388315 1 rotate no_reflect no_shear #
lump $-1 $-1 $61 $10 #
transform $-1 1 0 0 0 1 0 0 0 1 70.833460493789488 32.085717970065005 15.183603712388315 1 rotate no_reflect no_shear #
lump $-1 $-1 $62 $11 #
transform $-1 1 0 0 0 1 0 0 0 1 70.833460493789488 32.085717970065005 15.183603712388315 1 rotate no_reflect no_shear #
lump $-1 $-1 $63 $12 #
transform $-1 1 0 0 0 1 0 0 0 1 70.833460493789488 32.085717970065005 15.183603712388315 1 rotate no_reflect no_shear #
lump $-1 $-1 $64 $13 #
transform $-1 1 0 0 0 1 0 0 0 1 70.833460493789488 32.085717970065005 15.183603712388315 1 rotate no_reflect no_shear #
lump $-1 $-1 $65 $14 #
transform $-1 1 0 0 0 1 0 0 0 1 70.833460493789488 32.085717970065005 15.183603712388315 1 rotate no_reflect no_shear #
lump $-1 $-1 $66 $15 #
transform $-1 1 0 0 0 1 0 0 0 1 70.833460493789488 32.085717970065005 15.183603712388315 1 rotate no_reflect no_shear #
lump $-1 $-1 $67 $16 #
transform $-1 1 0 0 0 1 0 0 0 1 70.833460493789488 32.085717970065005 15.183603712388315 1 rotate no_reflect no_shear #
shell $-1 $-1 $-1 $68 $-1 $17 #
shell $-1 $-1 $-1 $69 $-1 $19 #
shell $-1 $-1 $-1 $70 $-1 $21 #
shell $-1 $-1 $-1 $71 $-1 $23 #
shell $-1 $-1 $-1 $72 $-1 $25 #
shell $-1 $-1 $-1 $73 $-1 $27 #
shell $-1 $-1 $-1 $74 $-1 $29 #
shell $-1 $-1 $-1 $75 $-1 $31 #
shell $-1 $-1 $-1 $76 $-1 $33 #
shell $-1 $-1 $-1 $77 $-1 $35 #
shell $-1 $-1 $-1 $78 $-1 $37 #
shell $-1 $-1 $-1 $79 $-1 $39 #
shell $-1 $-1 $-1 $80 $-1 $41 #
shell $-1 $-1 $-1 $81 $-1 $43 #
shell $-1 $-1 $-1 $82 $-1 $45 #
shell $-1 $-1 $-1 $83 $-1 $47 #
shell $-1 $-1 $-1 $84 $-1 $49 #
face $-1 $85 $86 $51 $-1 $87 forward single #
face $-1 $88 $89 $52 $-1 $90 reversed single #
face $-1 $91 $92 $53 $-1 $93 reversed single #
face $-1 $94 $95 $54 $-1 $96 forward single #
face $-1 $97 $98 $55 $-1 $99 forward single #
face $-1 $100 $101 $56 $-1 $102 reversed single #
face $-1 $103 $104 $57 $-1 $105 forward single #
face $-1 $106 $107 $58 $-1 $108 forward single #
face $-1 $109 $110 $59 $-1 $111 reversed single #
face $-1 $112 $113 $60 $-1 $114 forward single #
face $-1 $115 $116 $61 $-1 $117 forward single #
face $-1 $118 $119 $62 $-1 $120 reversed single #
face $-1 $121 $122 $63 $-1 $123 forward single #
face $-1 $124 $125 $64 $-1 $126 forward single #
face $-1 $127 $128 $65 $-1 $129 reversed single #
face $-1 $130 $131 $66 $-1 $132 forward single #
face $-1 $133 $134 $67 $-1 $135 forward single #
face $-1 $136 $137 $51 $-1 $138 reversed single #
loop $-1 $-1 $139 $68 #
plane-surface $-1 0 0 15.183603712388315 0 0 1 1 0 0 forward_v I I I I #
face $-1 $140 $141 $52 $-1 $142 reversed single #
loop $-1 $-1 $143 $69 #
plane-surface $-1 -63.71049358519759 -27.883686805030678 0 0 -1 0 0 0 -1 forward_v I I I I #
face $-1 $144 $145 $53 $-1 $146 reversed single #
loop $-1 $-1 $147 $70 #
plane-surface $-1 -20.020677712833812 -135.69434620214281 97.391118894080734 -1 0 0 0 -0.73135370988377701 0.68199835119979291 forward_v I I I I #
face $-1 $148 $149 $54 $-1 $150 forward single #
loop $-1 $151 $152 $71 #
cone-surface $-1 -38.880588179990795 -22.86800774431002 5.6483645228488761 0 0.73135370988377701 -0.68199835119979291 3 0 0 1 I I 0 1 3 forward I I I I #
face $-1 $153 $154 $55 $-1 $155 forward single #
loop $-1 $156 $157 $72 #
cone-surface $-1 -27.564641899696603 -22.86800774431002 5.6483645228488761 0 0.73135370988377701 -0.68199835119979291 3 0 0 1 I I 0 1 3 forward I I I I #
face $-1 $158 $159 $56 $-1 $160 reversed single #
loop $-1 $-1 $161 $73 #
plane-surface $-1 -56.587526676605684 68.736803435768735 157.60600727754024 1 0 0 0 -0.61566148304635926 -0.78801074757464917 forward_v I I I I #
face $-1 $162 $163 $57 $-1 $164 forward single #
loop $-1 $165 $166 $74 #
cone-surface $-1 -50.914359835482827 25.667815187657901 9.7520056307664866 0 -0.61566148304635926 -0.78801074757464917 2 0 0 1 I I 0 1 2 forward I I I I #
face $-1 $167 $168 $58 $-1 $169 forward single #
loop $-1 $170 $171 $75 #
cone-surface $-1 -42.404609573798531 25.667815187657901 9.7520056307664866 0 -0.61566148304635926 -0.78801074757464917 2 0 0 1 I I 0 1 2 forward I I I I #
face $-1 $172 $173 $59 $-1 $174 reversed single #
loop $-1 $-1 $175 $76 #
plane-surface $-1 -24.732279884006893 68.736803435768735 157.60600727754024 1 0 0 0 -0.61566148304635926 -0.78801074757464917 forward_v I I I I #
face $-1 $176 $177 $60 $-1 $178 forward single #
loop $-1 $179 $180 $77 #
cone-surface $-1 -19.059113042884036 25.667815187657901 9.7520056307664866 0 -0.61566148304635926 -0.78801074757464917 2 0 0 1 I I 0 1 2 forward I I I I #
face $-1 $181 $182 $61 $-1 $183 forward single #
loop $-1 $184 $185 $78 #
cone-surface $-1 -10.54936278119974 25.667815187657901 9.7520056307664866 0 -0.61566148304635926 -0.78801074757464917 2 0 0 1 I I 0 1 2 forward I I I I #
face $-1 $186 $187 $62 $-1 $188 reversed single #
loop $-1 $-1 $189 $79 #
plane-surface $-1 7.1229669085918985 68.736803435768735 157.60600727754024 1 0 0 0 -0.61566148304635926 -0.78801074757464917 forward_v I I I I #
face $-1 $190 $191 $63 $-1 $192 forward single #
loop $-1 $193 $194 $80 #
cone-surface $-1 12.796133749714755 25.667815187657901 9.7520056307664866 0 -0.61566148304635926 -0.78801074757464917 2 0 0 1 I I 0 1 2 forward I I I I #
face $-1 $195 $196 $64 $-1 $197 forward single #
loop $-1 $198 $199 $81 #
cone-surface $-1 21.305884011399058 25.667815187657901 9.7520056307664866 0 -0.61566148304635926 -0.78801074757464917 2 0 0 1 I I 0 1 2 forward I I I I #
face $-1 $200 $201 $65 $-1 $202 reversed single #
loop $-1 $-1 $203 $82 #
plane-surface $-1 38.97821370119069 68.736803435768735 157.60600727754024 1 0 0 0 -0.61566148304635926 -0.78801074757464917 forward_v I I I I #
face $-1 $204 $205 $66 $-1 $206 forward single #
loop $-1 $207 $208 $83 #
cone-surface $-1 44.651380542313547 25.667815187657901 9.7520056307664866 0 -0.61566148304635926 -0.78801074757464917 2 0 0 1 I I 0 1 2 forward I I I I #
face $-1 $209 $210 $67 $-1 $211 forward single #
loop $-1 $212 $213 $84 #
cone-surface $-1 53.16113080399785 25.667815187657901 9.7520056307664866 0 -0.61566148304635926 -0.78801074757464917 2 0 0 1 I I 0 1 2 forward I I I I #
face $-1 $214 $215 $51 $-1 $216 reversed single #
loop $-1 $-1 $217 $85 #
plane-surface $-1 0 0 -15.183603712388315 0 0 1 1 0 0 forward_v I I I I #
coedge $-1 $218 $219 $220 $221 forward $86 $-1 #
face $-1 $222 $223 $52 $-1 $224 forward single #
loop $-1 $-1 $225 $88 #
plane-surface $-1 -56.587526676605691 -29.984702387547841 0 -1 0 0 0 0 1 forward_v I I I I #
coedge $-1 $226 $227 $228 $229 forward $89 $-1 #
face $-1 $230 $231 $53 $-1 $232 reversed single #
loop $-1 $-1 $233 $91 #
plane-surface $-1 -33.222615039843703 -32.085717970065019 0.77451236100053222 0 -0.73135370988377701 0.68199835119979291 1 0 0 forward_v I I I I #
coedge $-1 $234 $235 $236 $237 reversed $92 $-1 #
face $-1 $-1 $238 $54 $-1 $239 forward single #
loop $-1 $240 $241 $94 #
cone-surface $-1 -38.880588179990795 -19.271614321855324 2.2946734822036348 0 0.73135370988377701 -0.68199835119979291 1.5 0 0 1 I I -0.70710678118654724 0.70710678118654768 1.5 forward I I I I #
loop $-1 $-1 $242 $71 #
coedge $-1 $152 $152 $243 $244 reversed $95 $-1 #
face $-1 $-1 $245 $55 $-1 $246 forward single #
loop $-1 $247 $248 $97 #
cone-surface $-1 -27.564641899696603 -19.271614321855324 2.2946734822036348 0 0.73135370988377701 -0.68199835119979291 1.5 0 0 1 I I -0.70710678118654724 0.70710678118654768 1.5 forward I I I I #
loop $-1 $-1 $249 $72 #
coedge $-1 $157 $157 $250 $251 reversed $98 $-1 #
face $-1 $252 $253 $56 $-1 $254 reversed single #
loop $-1 $-1 $255 $100 #
plane-surface $-1 -46.659484704640676 -18.482063238055531 45.970950963519371 0 0.61566148304635926 0.78801074757464917 1 0 0 forward_v I I I I #
coedge $-1 $256 $257 $258 $259 reversed $101 $-1 #
face $-1 $-1 $260 $57 $-1 $261 forward single #
loop $-1 $262 $263 $103 #
cone-surface $-1 -50.914359835482827 24.215138178419053 7.8926638860619356 0 -0.61566148304635926 -0.78801074757464917 1 0 0 1 I I -0.70710678118654746 0.70710678118654746 1 forward I I I I #
loop $-1 $-1 $264 $74 #
coedge $-1 $166 $166 $265 $266 reversed $104 $-1 #
face $-1 $-1 $267 $58 $-1 $268 forward single #
loop $-1 $269 $270 $106 #
cone-surface $-1 -42.404609573798531 24.215138178419053 7.8926638860619356 0 -0.61566148304635926 -0.78801074757464917 1 0 0 1 I I -0.70710678118654746 0.70710678118654746 1 forward I I I I #
loop $-1 $-1 $271 $75 #
coedge $-1 $171 $171 $272 $273 reversed $107 $-1 #
face $-1 $274 $275 $59 $-1 $276 reversed single #
loop $-1 $-1 $277 $109 #
plane-surface $-1 -14.804237912041884 -18.482063238055531 45.970950963519371 0 0.61566148304635926 0.78801074757464917 1 0 0 forward_v I I I I #
coedge $-1 $278 $279 $280 $281 reversed $110 $-1 #
face $-1 $-1 $282 $60 $-1 $283 forward single #
loop $-1 $284 $285 $112 #
cone-surface $-1 -19.059113042884036 24.215138178419053 7.8926638860619356 0 -0.61566148304635926 -0.78801074757464917 1 0 0 1 I I -0.70710678118654746 0.70710678118654746 1 forward I I I I #
loop $-1 $-1 $286 $77 #
coedge $-1 $180 $180 $287 $288 reversed $113 $-1 #
face $-1 $-1 $289 $61 $-1 $290 forward single #
loop $-1 $291 $292 $115 #
cone-surface $-1 -10.54936278119974 24.215138178419053 7.8926638860619356 0 -0.61566148304635926 -0.78801074757464917 1 0 0 1 I I -0.70710678118654746 0.70710678118654746 1 forward I I I I #
loop $-1 $-1 $293 $78 #
coedge $-1 $185 $185 $294 $295 reversed $116 $-1 #
face $-1 $296 $297 $62 $-1 $298 reversed single #
loop $-1 $-1 $299 $118 #
plane-surface $-1 17.051008880556907 -18.482063238055531 45.970950963519371 0 0.61566148304635926 0.78801074757464917 1 0 0 forward_v I I I I #
coedge $-1 $300 $301 $302 $303 reversed $119 $-1 #
face $-1 $-1 $304 $63 $-1 $305 forward single #
loop $-1 $306 $307 $121 #
cone-surface $-1 12.796133749714755 24.215138178419053 7.8926638860619356 0 -0.61566148304635926 -0.78801074757464917 1 0 0 1 I I -0.70710678118654746 0.70710678118654746 1 forward I I I I #
loop $-1 $-1 $308 $80 #
coedge $-1 $194 $194 $309 $310 reversed $122 $-1 #
face $-1 $-1 $311 $64 $-1 $312 forward single #
loop $-1 $313 $314 $124 #
cone-surface $-1 21.305884011399058 24.215138178419053 7.8926638860619356 0 -0.61566148304635926 -0.78801074757464917 1 0 0 1 I I -0.70710678118654746 0.70710678118654746 1 forward I I I I #
loop $-1 $-1 $315 $81 #
coedge $-1 $199 $199 $316 $317 reversed $125 $-1 #
face $-1 $318 $319 $65 $-1 $320 reversed single #
loop $-1 $-1 $321 $127 #
plane-surface $-1 48.906255673155698 -18.482063238055531 45.970950963519371 0 0.61566148304635926 0.78801074757464917 1 0 0 forward_v I I I I #
coedge $-1 $322 $323 $324 $325 reversed $128 $-1 #
face $-1 $-1 $326 $66 $-1 $327 forward single #
loop $-1 $328 $329 $130 #
cone-surface $-1 44.651380542313547 24.215138178419053 7.8926638860619356 0 -0.61566148304635926 -0.78801074757464917 1 0 0 1 I I -0.70710678118654746 0.70710678118654746 1 forward I I I I #
loop $-1 $-1 $330 $83 #
coedge $-1 $208 $208 $331 $332 reversed $131 $-1 #
face $-1 $-1 $333 $67 $-1 $334 forward single #
loop $-1 $335 $336 $133 #
cone-surface $-1 53.16113080399785 24.215138178419053 7.8926638860619356 0 -0.61566148304635926 -0.78801074757464917 1 0 0 1 I I -0.70710678118654746 0.70710678118654746 1 forward I I I I #
loop $-1 $-1 $337 $84 #
coedge $-1 $213 $213 $338 $339 reversed $134 $-1 #
face $-1 $340 $341 $51 $-1 $342 reversed single #
loop $-1 $-1 $343 $136 #
plane-surface $-1 0 -32.085717970065005 0 0 1 0 0 0 1 forward_v I I I I #
coedge $-1 $344 $345 $346 $347 forward $137 $-1 #
coedge $-1 $348 $139 $349 $350 forward $86 $-1 #
coedge $-1 $139 $348 $351 $352 forward $86 $-1 #
coedge $-1 $353 $354 $139 $221 reversed $355 $-1 #
edge $-1 $356 -32.085717970065005 $357 32.085717970065005 $220 $358 forward 7 unknown #
face $-1 $359 $360 $52 $-1 $361 reversed single #
loop $-1 $-1 $362 $140 #
plane-surface $-1 0 0 15.183603712388315 0 0 1 1 0 0 forward_v I I I I #
coedge $-1 $363 $364 $365 $366 reversed $141 $-1 #
coedge $-1 $367 $143 $368 $369 reversed $89 $-1 #
coedge $-1 $143 $367 $370 $371 reversed $89 $-1 #
coedge $-1 $364 $363 $143 $229 reversed $141 $-1 #
edge $-1 $372 -15.183603712388315 $373 15.183603712388315 $228 $374 forward 7 unknown #
face $-1 $375 $376 $53 $-1 $377 forward single #
loop $-1 $-1 $378 $144 #
plane-surface $-1 -46.42455236685359 -135.69434620214281 97.391118894080734 1 0 0 0 0.73135370988377701 -0.68199835119979291 forward_v I I I I #
coedge $-1 $379 $380 $381 $382 reversed $145 $-1 #
coedge $-1 $235 $147 $383 $384 reversed $92 $-1 #
coedge $-1 $147 $234 $379 $385 reversed $92 $-1 #
coedge $-1 $381 $386 $147 $237 forward $376 $-1 #
edge $-1 $387 35.7614551310064 $388 49.198149867258309 $236 $389 forward 7 unknown #
loop $-1 $-1 $243 $148 #
plane-surface $-1 -33.222615039843703 -32.085717970065019 0.77451236100053222 0 -0.73135370988377701 0.68199835119979291 1 0 0 forward_v I I I I #
loop $-1 $-1 $390 $94 #
coedge $-1 $241 $241 $242 $391 reversed $149 $-1 #
coedge $-1 $242 $242 $241 $391 forward $151 $-1 #
coedge $-1 $243 $243 $152 $244 forward $238 $-1 #
edge $-1 $392 5.9112409631349845e-016 $392 6.2831853071796013 $243 $393 forward 7 unknown #
loop $-1 $-1 $250 $153 #
plane-surface $-1 -33.222615039843703 -32.085717970065019 0.77451236100053222 0 -0.73135370988377701 0.68199835119979291 1 0 0 forward_v I I I I #
loop $-1 $-1 $394 $97 #
coedge $-1 $248 $248 $249 $395 reversed $154 $-1 #
coedge $-1 $249 $249 $248 $395 forward $156 $-1 #
coedge $-1 $250 $250 $157 $251 forward $245 $-1 #
edge $-1 $396 5.9112409631349845e-016 $396 6.2831853071796013 $250 $397 forward 7 unknown #
face $-1 $398 $399 $56 $-1 $400 reversed single #
loop $-1 $-1 $401 $158 #
plane-surface $-1 -36.731442732675667 68.736803435768735 157.60600727754024 -1 0 0 0 0.61566148304635926 0.78801074757464917 forward_v I I I I #
coedge $-1 $402 $403 $404 $405 reversed $159 $-1 #
coedge $-1 $257 $161 $406 $407 reversed $101 $-1 #
coedge $-1 $161 $256 $402 $408 reversed $101 $-1 #
coedge $-1 $404 $409 $161 $259 forward $410 $-1 #
edge $-1 $411 2.2826837478193625 $412 13.444458260248545 $258 $413 forward 7 unknown #
loop $-1 $-1 $265 $162 #
plane-surface $-1 -46.659484704640676 -18.482063238055531 45.970950963519371 0 0.61566148304635926 0.78801074757464917 1 0 0 forward_v I I I I #
loop $-1 $-1 $414 $103 #
coedge $-1 $263 $263 $264 $415 reversed $163 $-1 #
coedge $-1 $264 $264 $263 $415 forward $165 $-1 #
coedge $-1 $265 $265 $166 $266 forward $260 $-1 #
edge $-1 $416 -7.4328828269788301e-016 $416 6.2831853071795996 $265 $417 forward 7 unknown #
loop $-1 $-1 $272 $167 #
plane-surface $-1 -46.659484704640676 -18.482063238055531 45.970950963519371 0 0.61566148304635926 0.78801074757464917 1 0 0 forward_v I I I I #
loop $-1 $-1 $418 $106 #
coedge $-1 $270 $270 $271 $419 reversed $168 $-1 #
coedge $-1 $271 $271 $270 $419 forward $170 $-1 #
coedge $-1 $272 $272 $171 $273 forward $267 $-1 #
edge $-1 $420 -7.4328828269788301e-016 $420 6.2831853071795996 $272 $421 forward 7 unknown #
face $-1 $422 $423 $59 $-1 $424 forward single #
loop $-1 $-1 $425 $172 #
plane-surface $-1 -4.876195940076876 68.736803435768735 157.60600727754024 -1 0 0 0 0.61566148304635926 0.78801074757464917 forward_v I I I I #
coedge $-1 $426 $427 $428 $429 reversed $173 $-1 #
coedge $-1 $279 $175 $430 $431 reversed $110 $-1 #
coedge $-1 $175 $278 $426 $432 reversed $110 $-1 #
coedge $-1 $428 $433 $175 $281 forward $423 $-1 #
edge $-1 $434 2.2826837478193625 $435 13.444458260248545 $280 $436 forward 7 unknown #
loop $-1 $-1 $287 $176 #
plane-surface $-1 -14.804237912041884 -18.482063238055531 45.970950963519371 0 0.61566148304635926 0.78801074757464917 1 0 0 forward_v I I I I #
loop $-1 $-1 $437 $112 #
coedge $-1 $285 $285 $286 $438 reversed $177 $-1 #
coedge $-1 $286 $286 $285 $438 forward $179 $-1 #
coedge $-1 $287 $287 $180 $288 forward $282 $-1 #
edge $-1 $439 -7.4328828269788301e-016 $439 6.2831853071795996 $287 $440 forward 7 unknown #
loop $-1 $-1 $294 $181 #
plane-surface $-1 -14.804237912041884 -18.482063238055531 45.970950963519371 0 0.61566148304635926 0.78801074757464917 1 0 0 forward_v I I I I #
loop $-1 $-1 $441 $115 #
coedge $-1 $292 $292 $293 $442 reversed $182 $-1 #
coedge $-1 $293 $293 $292 $442 forward $184 $-1 #
coedge $-1 $294 $294 $185 $295 forward $289 $-1 #
edge $-1 $443 -7.4328828269788301e-016 $443 6.2831853071795996 $294 $444 forward 7 unknown #
face $-1 $445 $446 $62 $-1 $447 forward single #
loop $-1 $-1 $448 $186 #
plane-surface $-1 26.979050852521915 68.736803435768735 157.60600727754024 -1 0 0 0 0.61566148304635926 0.78801074757464917 forward_v I I I I #
coedge $-1 $449 $450 $451 $452 reversed $187 $-1 #
coedge $-1 $301 $189 $453 $454 reversed $119 $-1 #
coedge $-1 $189 $300 $449 $455 reversed $119 $-1 #
coedge $-1 $451 $456 $189 $303 forward $446 $-1 #
edge $-1 $457 2.2826837478193625 $458 13.444458260248545 $302 $459 forward 7 unknown #
loop $-1 $-1 $309 $190 #
plane-surface $-1 17.051008880556907 -18.482063238055531 45.970950963519371 0 0.61566148304635926 0.78801074757464917 1 0 0 forward_v I I I I #
loop $-1 $-1 $460 $121 #
coedge $-1 $307 $307 $308 $461 reversed $191 $-1 #
coedge $-1 $308 $308 $307 $461 forward $193 $-1 #
coedge $-1 $309 $309 $194 $310 forward $304 $-1 #
edge $-1 $462 -7.4328828269788301e-016 $462 6.2831853071795996 $309 $463 forward 7 unknown #
loop $-1 $-1 $316 $195 #
plane-surface $-1 17.051008880556907 -18.482063238055531 45.970950963519371 0 0.61566148304635926 0.78801074757464917 1 0 0 forward_v I I I I #
loop $-1 $-1 $464 $124 #
coedge $-1 $314 $314 $315 $465 reversed $196 $-1 #
coedge $-1 $315 $315 $314 $465 forward $198 $-1 #
coedge $-1 $316 $316 $199 $317 forward $311 $-1 #
edge $-1 $466 -7.4328828269788301e-016 $466 6.2831853071795996 $316 $467 forward 7 unknown #
face $-1 $468 $469 $65 $-1 $470 forward single #
loop $-1 $-1 $471 $200 #
plane-surface $-1 58.834297645120706 68.736803435768735 157.60600727754024 -1 0 0 0 0.61566148304635926 0.78801074757464917 forward_v I I I I #
coedge $-1 $472 $473 $474 $475 reversed $201 $-1 #
coedge $-1 $323 $203 $476 $477 reversed $128 $-1 #
coedge $-1 $203 $322 $472 $478 reversed $128 $-1 #
coedge $-1 $474 $479 $203 $325 forward $469 $-1 #
edge $-1 $480 2.2826837478193625 $481 13.444458260248545 $324 $482 forward 7 unknown #
loop $-1 $-1 $331 $204 #
plane-surface $-1 48.906255673155698 -18.482063238055531 45.970950963519371 0 0.61566148304635926 0.78801074757464917 1 0 0 forward_v I I I I #
loop $-1 $-1 $483 $130 #
coedge $-1 $329 $329 $330 $484 reversed $205 $-1 #
coedge $-1 $330 $330 $329 $484 forward $207 $-1 #
coedge $-1 $331 $331 $208 $332 forward $326 $-1 #
edge $-1 $485 -7.4328828269788301e-016 $485 6.2831853071795996 $331 $486 forward 7 unknown #
loop $-1 $-1 $338 $209 #
plane-surface $-1 48.906255673155698 -18.482063238055531 45.970950963519371 0 0.61566148304635926 0.78801074757464917 1 0 0 forward_v I I I I #
loop $-1 $-1 $487 $133 #
coedge $-1 $336 $336 $337 $488 reversed $210 $-1 #
coedge $-1 $337 $337 $336 $488 forward $212 $-1 #
coedge $-1 $338 $338 $213 $339 forward $333 $-1 #
edge $-1 $489 -7.4328828269788301e-016 $489 6.2831853071795996 $338 $490 forward 7 unknown #
face $-1 $491 $492 $51 $-1 $493 reversed single #
loop $-1 $-1 $494 $214 #
plane-surface $-1 -70.833460493789488 0 0 1 0 0 0 0 -1 forward_v I I I I #
coedge $-1 $495 $351 $496 $497 forward $215 $-1 #
coedge $-1 $498 $217 $495 $499 forward $137 $-1 #
coedge $-1 $217 $498 $500 $501 forward $137 $-1 #
coedge $-1 $354 $353 $217 $347 reversed $355 $-1 #
edge $-1 $502 -32.085717970065005 $503 32.085717970065005 $346 $504 forward 7 unknown #
coedge $-1 $219 $218 $505 $506 forward $86 $-1 #
coedge $-1 $507 $508 $218 $350 reversed $492 $-1 #
edge $-1 $357 -70.833460493789488 $509 70.833460493789488 $349 $510 forward 7 unknown #
coedge $-1 $343 $511 $219 $352 reversed $215 $-1 #
edge $-1 $512 -70.833460493789488 $356 70.833460493789488 $351 $513 forward 7 unknown #
coedge $-1 $346 $220 $511 $514 forward $355 $-1 #
coedge $-1 $220 $346 $507 $515 reversed $355 $-1 #
loop $-1 $-1 $353 $491 #
vertex $-1 $221 $516 #
vertex $-1 $221 $517 #
straight-curve $-1 70.833460493789488 0 15.183603712388315 0 1 0 I I #
face $-1 $518 $519 $52 $-1 $520 reversed single #
loop $-1 $-1 $521 $222 #
plane-surface $-1 -70.833460493789488 0 0 1 0 0 0 0 -1 forward_v I I I I #
coedge $-1 $370 $522 $364 $523 forward $223 $-1 #
coedge $-1 $228 $225 $524 $525 reversed $141 $-1 #
coedge $-1 $225 $228 $362 $523 reversed $141 $-1 #
coedge $-1 $526 $527 $225 $366 forward $528 $-1 #
edge $-1 $529 -15.183603712388315 $530 15.183603712388315 $365 $531 forward 7 unknown #
coedge $-1 $227 $226 $521 $532 reversed $89 $-1 #
coedge $-1 $524 $533 $226 $369 forward $519 $-1 #
edge $-1 $534 -38.978213701190697 $373 -24.732279884006896 $368 $535 forward 7 unknown #
coedge $-1 $536 $362 $227 $371 forward $223 $-1 #
edge $-1 $372 24.732279884006896 $537 38.978213701190697 $370 $538 forward 7 unknown #
vertex $-1 $371 $539 #
vertex $-1 $369 $540 #
straight-curve $-1 -56.587526676605691 -27.883686805030678 0 0 0 -1 I I #
face $-1 $-1 $541 $53 $-1 $542 reversed single #
loop $-1 $-1 $236 $230 #
plane-surface $-1 0 0 15.183603712388315 0 0 1 1 0 0 forward_v I I I I #
coedge $-1 $543 $544 $545 $546 reversed $231 $-1 #
coedge $-1 $547 $233 $235 $385 forward $145 $-1 #
coedge $-1 $233 $547 $543 $548 forward $145 $-1 #
coedge $-1 $545 $236 $233 $382 forward $376 $-1 #
edge $-1 $388 3.4093701929119611 $549 29.813244846931738 $381 $550 forward 7 unknown #
coedge $-1 $551 $552 $234 $384 forward $541 $-1 #
edge $-1 $553 -47.92104708603982 $387 -33.511955734652048 $383 $554 forward 7 unknown #
edge $-1 $388 -19.701946071590449 $553 -2.0815709956562115e-014 $235 $555 forward 7 unknown #
coedge $-1 $236 $545 $551 $556 forward $376 $-1 #
vertex $-1 $384 $557 #
vertex $-1 $237 $558 #
straight-curve $-1 -20.020677712833812 -67.847173101071405 15.183603712388312 0 1 0 I I #
coedge $-1 $390 $390 $-1 $559 reversed $240 $-1 #
edge $-1 $560 0 $560 6.2831853071796004 $241 $561 forward 7 unknown #
vertex $-1 $244 $562 #
ellipse-curve $-1 -38.880588179990795 -25.367370601939051 7.979058036694429 0 -0.73135370988377701 0.68199835119979291 3 0 0 1 I I #
coedge $-1 $394 $394 $-1 $563 reversed $247 $-1 #
edge $-1 $564 0 $564 6.2831853071796004 $248 $565 forward 7 unknown #
vertex $-1 $251 $566 #
ellipse-curve $-1 -27.564641899696603 -25.367370601939051 7.979058036694429 0 -0.73135370988377701 0.68199835119979291 3 0 0 1 I I #
face $-1 $-1 $410 $56 $-1 $567 forward single #
loop $-1 $-1 $568 $252 #
plane-surface $-1 0 32.085717970065005 0 0 -1 0 0 0 -1 forward_v I I I I #
coedge $-1 $569 $570 $571 $572 reversed $253 $-1 #
coedge $-1 $573 $255 $257 $408 forward $159 $-1 #
coedge $-1 $255 $573 $569 $574 forward $159 $-1 #
coedge $-1 $571 $258 $255 $405 forward $410 $-1 #
edge $-1 $412 -33.257784324285346 $575 -13.401700380355329 $404 $576 forward 7 unknown #
coedge $-1 $577 $578 $256 $407 forward $399 $-1 #
edge $-1 $579 -72.339934095365606 $411 -63.619399926381803 $406 $580 forward 7 unknown #
edge $-1 $412 50.006940662897975 $579 64.171435940129982 $257 $581 forward 7 unknown #
coedge $-1 $258 $571 $577 $582 forward $410 $-1 #
loop $-1 $-1 $571 $398 #
vertex $-1 $407 $583 #
vertex $-1 $259 $584 #
straight-curve $-1 -56.587526676605684 34.368401717884367 15.183603712388319 0 -1 0 I I #
coedge $-1 $414 $414 $-1 $585 reversed $262 $-1 #
edge $-1 $586 0 $586 6.2831853071796004 $263 $587 forward 7 unknown #
vertex $-1 $266 $588 #
ellipse-curve $-1 -50.914359835482827 26.504830713850406 10.823336627896413 0 0.61566148304635926 0.78801074757464917 2 0 0 1 I I #
coedge $-1 $418 $418 $-1 $589 reversed $269 $-1 #
edge $-1 $590 0 $590 6.2831853071796004 $270 $591 forward 7 unknown #
vertex $-1 $273 $592 #
ellipse-curve $-1 -42.404609573798531 26.504830713850406 10.823336627896413 0 0.61566148304635926 0.78801074757464917 2 0 0 1 I I #
face $-1 $-1 $593 $59 $-1 $594 reversed single #
loop $-1 $-1 $280 $274 #
plane-surface $-1 0 0 15.183603712388315 0 0 1 1 0 0 forward_v I I I I #
coedge $-1 $595 $596 $597 $598 reversed $275 $-1 #
coedge $-1 $599 $277 $279 $432 forward $173 $-1 #
coedge $-1 $277 $599 $595 $600 forward $173 $-1 #
coedge $-1 $597 $280 $277 $429 forward $423 $-1 #
edge $-1 $435 -17.330160927985951 $601 2.5259230159440662 $428 $602 forward 7 unknown #
coedge $-1 $603 $604 $278 $431 forward $593 $-1 #
edge $-1 $605 -72.339934095365606 $434 -63.619399926381803 $430 $606 forward 7 unknown #
edge $-1 $435 50.006940662897975 $605 64.171435940129982 $279 $607 forward 7 unknown #
coedge $-1 $280 $597 $603 $608 forward $423 $-1 #
vertex $-1 $431 $609 #
vertex $-1 $281 $610 #
straight-curve $-1 -24.732279884006893 34.368401717884367 15.183603712388319 0 -1 0 I I #
coedge $-1 $437 $437 $-1 $611 reversed $284 $-1 #
edge $-1 $612 0 $612 6.2831853071796004 $285 $613 forward 7 unknown #
vertex $-1 $288 $614 #
ellipse-curve $-1 -19.059113042884036 26.504830713850406 10.823336627896413 0 0.61566148304635926 0.78801074757464917 2 0 0 1 I I #
coedge $-1 $441 $441 $-1 $615 reversed $291 $-1 #
edge $-1 $616 0 $616 6.2831853071796004 $292 $617 forward 7 unknown #
vertex $-1 $295 $618 #
ellipse-curve $-1 -10.54936278119974 26.504830713850406 10.823336627896413 0 0.61566148304635926 0.78801074757464917 2 0 0 1 I I #
face $-1 $-1 $619 $62 $-1 $620 reversed single #
loop $-1 $-1 $302 $296 #
plane-surface $-1 0 0 15.183603712388315 0 0 1 1 0 0 forward_v I I I I #
coedge $-1 $621 $622 $623 $624 reversed $297 $-1 #
coedge $-1 $625 $299 $301 $455 forward $187 $-1 #
coedge $-1 $299 $625 $621 $626 forward $187 $-1 #
coedge $-1 $623 $302 $299 $452 forward $446 $-1 #
edge $-1 $458 -1.4025375316865549 $627 18.453546412243462 $451 $628 forward 7 unknown #
coedge $-1 $629 $630 $300 $454 forward $619 $-1 #
edge $-1 $631 -72.339934095365606 $457 -63.619399926381803 $453 $632 forward 7 unknown #
edge $-1 $458 50.006940662897975 $631 64.171435940129982 $301 $633 forward 7 unknown #
coedge $-1 $302 $623 $629 $634 forward $446 $-1 #
vertex $-1 $303 $635 #
vertex $-1 $303 $636 #
straight-curve $-1 7.1229669085918985 34.368401717884367 15.183603712388319 0 -1 0 I I #
coedge $-1 $460 $460 $-1 $637 reversed $306 $-1 #
edge $-1 $638 0 $638 6.2831853071796004 $307 $639 forward 7 unknown #
vertex $-1 $310 $640 #
ellipse-curve $-1 12.796133749714755 26.504830713850406 10.823336627896413 0 0.61566148304635926 0.78801074757464917 2 0 0 1 I I #
coedge $-1 $464 $464 $-1 $641 reversed $313 $-1 #
edge $-1 $642 0 $642 6.2831853071796004 $314 $643 forward 7 unknown #
vertex $-1 $317 $644 #
ellipse-curve $-1 21.305884011399058 26.504830713850406 10.823336627896413 0 0.61566148304635926 0.78801074757464917 2 0 0 1 I I #
face $-1 $-1 $645 $65 $-1 $646 reversed single #
loop $-1 $-1 $324 $318 #
plane-surface $-1 0 0 15.183603712388315 0 0 1 1 0 0 forward_v I I I I #
coedge $-1 $647 $648 $649 $650 reversed $319 $-1 #
coedge $-1 $651 $321 $323 $478 forward $201 $-1 #
coedge $-1 $321 $651 $647 $652 forward $201 $-1 #
coedge $-1 $649 $324 $321 $475 forward $469 $-1 #
edge $-1 $481 14.525085864612841 $653 34.381169808542857 $474 $654 forward 7 unknown #
coedge $-1 $655 $656 $322 $477 forward $645 $-1 #
edge $-1 $657 -72.339934095365606 $480 -63.619399926381803 $476 $658 forward 7 unknown #
edge $-1 $481 50.006940662897975 $657 64.171435940129982 $323 $659 forward 7 unknown #
coedge $-1 $324 $649 $655 $660 forward $469 $-1 #
vertex $-1 $325 $661 #
vertex $-1 $325 $662 #
straight-curve $-1 38.97821370119069 34.368401717884367 15.183603712388319 0 -1 0 I I #
coedge $-1 $483 $483 $-1 $663 reversed $328 $-1 #
edge $-1 $664 0 $664 6.2831853071796004 $329 $665 forward 7 unknown #
vertex $-1 $332 $666 #
ellipse-curve $-1 44.651380542313547 26.504830713850406 10.823336627896413 0 0.61566148304635926 0.78801074757464917 2 0 0 1 I I #
coedge $-1 $487 $487 $-1 $667 reversed $335 $-1 #
edge $-1 $668 0 $668 6.2831853071796004 $336 $669 forward 7 unknown #
vertex $-1 $339 $670 #
ellipse-curve $-1 53.16113080399785 26.504830713850406 10.823336627896413 0 0.61566148304635926 0.78801074757464917 2 0 0 1 I I #
face $-1 $-1 $355 $51 $-1 $671 reversed single #
loop $-1 $-1 $507 $340 #
plane-surface $-1 0 32.085717970065005 0 0 -1 0 0 0 -1 forward_v I I I I #
coedge $-1 $672 $505 $508 $673 forward $341 $-1 #
coedge $-1 $511 $343 $344 $499 reversed $215 $-1 #
coedge $-1 $505 $672 $343 $497 reversed $341 $-1 #
edge $-1 $512 -15.183603712388315 $674 15.183603712388315 $496 $675 forward 7 unknown #
coedge $-1 $345 $344 $672 $676 forward $137 $-1 #
edge $-1 $503 -70.833460493789488 $674 70.833460493789488 $495 $677 forward 7 unknown #
coedge $-1 $508 $507 $345 $501 reversed $492 $-1 #
edge $-1 $678 -70.833460493789488 $502 70.833460493789488 $500 $679 forward 7 unknown #
vertex $-1 $347 $680 #
vertex $-1 $514 $681 #
straight-curve $-1 70.833460493789488 0 -15.183603712388315 0 -1 0 I I #
coedge $-1 $494 $496 $348 $506 reversed $341 $-1 #
edge $-1 $509 -32.085717970065005 $512 32.085717970065005 $505 $682 forward 7 unknown #
coedge $-1 $500 $349 $354 $515 forward $492 $-1 #
coedge $-1 $349 $500 $494 $673 reversed $492 $-1 #
vertex $-1 $350 $683 #
straight-curve $-1 0 32.085717970065005 15.183603712388315 -1 0 0 I I #
coedge $-1 $351 $495 $353 $514 reversed $215 $-1 #
vertex $-1 $506 $684 #
straight-curve $-1 0 -32.085717970065005 15.183603712388315 1 0 0 I I #
edge $-1 $356 -15.183603712388315 $503 15.183603712388315 $353 $685 forward 7 unknown #
edge $-1 $357 -15.183603712388315 $502 15.183603712388315 $354 $686 forward 7 unknown #
point $-1 70.833460493789488 -32.085717970065005 15.183603712388315 #
point $-1 70.833460493789488 32.085717970065005 15.183603712388315 #
face $-1 $-1 $528 $52 $-1 $687 reversed single #
loop $-1 $-1 $524 $359 #
plane-surface $-1 0 0 -15.183603712388315 0 0 1 1 0 0 forward_v I I I I #
coedge $-1 $688 $689 $367 $532 forward $360 $-1 #
coedge $-1 $362 $536 $526 $690 forward $223 $-1 #
edge $-1 $530 -17.093366776291084 $372 -12.891335611256757 $362 $691 forward 7 unknown #
coedge $-1 $692 $368 $363 $525 forward $519 $-1 #
edge $-1 $373 12.891335611256757 $529 17.093366776291084 $524 $693 forward 7 unknown #
coedge $-1 $694 $365 $522 $690 reversed $528 $-1 #
coedge $-1 $365 $694 $692 $695 reversed $528 $-1 #
loop $-1 $-1 $365 $518 #
vertex $-1 $695 $696 #
vertex $-1 $366 $697 #
straight-curve $-1 -56.587526676605691 -32.085717970065005 0 0 0 1 I I #
edge $-1 $537 -15.183603712388315 $534 15.183603712388315 $521 $698 forward 7 unknown #
coedge $-1 $368 $692 $688 $699 forward $519 $-1 #
vertex $-1 $369 $700 #
straight-curve $-1 -31.855246792598795 -27.883686805030678 -15.183603712388315 1 0 0 I I #
coedge $-1 $522 $370 $689 $701 forward $223 $-1 #
vertex $-1 $701 $702 #
straight-curve $-1 -31.855246792598795 -27.883686805030678 15.183603712388315 -1 0 0 I I #
point $-1 -56.587526676605691 -27.883686805030678 15.183603712388315 #
point $-1 -56.587526676605691 -27.883686805030678 -15.183603712388315 #
loop $-1 $-1 $383 $375 #
plane-surface $-1 0 -32.085717970065005 0 0 1 0 0 0 1 forward_v I I I I #
coedge $-1 $544 $378 $380 $548 reversed $231 $-1 #
coedge $-1 $378 $543 $703 $704 reversed $231 $-1 #
coedge $-1 $386 $381 $378 $546 forward $376 $-1 #
edge $-1 $549 -49.198149867258309 $705 -35.7614551310064 $545 $706 forward 7 unknown #
coedge $-1 $380 $379 $552 $707 reversed $145 $-1 #
edge $-1 $708 2.0815709956562115e-014 $549 19.701946071590449 $543 $709 forward 7 unknown #
vertex $-1 $382 $710 #
straight-curve $-1 -16.611307519921851 -18.649023233813093 15.183603712388315 -1 0 0 I I #
coedge $-1 $703 $383 $386 $556 reversed $541 $-1 #
coedge $-1 $383 $703 $547 $707 forward $541 $-1 #
vertex $-1 $384 $711 #
straight-curve $-1 -20.020677712833812 -32.085717970065005 48.695559447040367 0 0 1 I I #
straight-curve $-1 -20.020677712833812 -32.085717970065019 0.77451236100053222 0 -0.68199835119979291 -0.73135370988377701 I I #
edge $-1 $705 -46.42455236685359 $387 -20.020677712833812 $551 $712 forward 7 unknown #
point $-1 -20.020677712833812 -32.085717970065005 15.183603712388315 #
point $-1 -20.020677712833812 -18.649023233813093 15.183603712388315 #
edge $-1 $713 1 $713 0 $390 $-1 forward 7 unknown #
vertex $-1 $391 $714 #
ellipse-curve $-1 -38.880588179990795 -20.36864488668099 3.317671009003325 0 -0.73135370988377701 0.68199835119979291 3 0 0 1 I I #
point $-1 -35.880588179990795 -25.367370601939047 7.9790580366944281 #
edge $-1 $715 1 $715 0 $394 $-1 forward 7 unknown #
vertex $-1 $395 $716 #
ellipse-curve $-1 -27.564641899696603 -20.36864488668099 3.317671009003325 0 -0.73135370988377701 0.68199835119979291 3 0 0 1 I I #
point $-1 -24.564641899696603 -25.367370601939047 7.9790580366944281 #
plane-surface $-1 0 0 15.183603712388315 0 0 1 1 0 0 forward_v I I I I #
coedge $-1 $578 $577 $570 $717 forward $399 $-1 #
coedge $-1 $570 $401 $403 $574 reversed $253 $-1 #
coedge $-1 $401 $569 $568 $717 reversed $253 $-1 #
coedge $-1 $409 $404 $401 $572 forward $410 $-1 #
edge $-1 $575 -13.444458260248545 $718 -2.2826837478193625 $571 $719 forward 7 unknown #
coedge $-1 $403 $402 $578 $720 reversed $159 $-1 #
edge $-1 $721 -64.171435940129982 $575 -50.006940662897975 $569 $722 forward 7 unknown #
vertex $-1 $405 $723 #
straight-curve $-1 -23.329742352320338 20.923943457635833 15.183603712388312 1 0 0 I I #
coedge $-1 $568 $406 $409 $582 reversed $399 $-1 #
coedge $-1 $406 $568 $573 $720 forward $399 $-1 #
vertex $-1 $407 $724 #
straight-curve $-1 -56.587526676605684 32.085717970065005 78.803003638770122 0 0 1 I I #
straight-curve $-1 -56.587526676605684 -18.482063238055531 45.970950963519371 0 0.78801074757464917 -0.61566148304635926 I I #
edge $-1 $718 36.731442732675667 $411 56.587526676605684 $577 $725 forward 7 unknown #
point $-1 -56.587526676605684 32.085717970065005 15.183603712388315 #
point $-1 -56.587526676605684 20.923943457635822 15.183603712388315 #
edge $-1 $726 1 $726 0 $414 $-1 forward 7 unknown #
vertex $-1 $415 $727 #
ellipse-curve $-1 -50.914359835482827 24.830799661465413 8.6806746336365848 0 0.61566148304635926 0.78801074757464917 2 0 0 1 I I #
point $-1 -48.914359835482827 26.504830713850385 10.823336627896389 #
edge $-1 $728 1 $728 0 $418 $-1 forward 7 unknown #
vertex $-1 $419 $729 #
ellipse-curve $-1 -42.404609573798531 24.830799661465413 8.6806746336365848 0 0.61566148304635926 0.78801074757464917 2 0 0 1 I I #
point $-1 -40.404609573798531 26.504830713850385 10.823336627896389 #
loop $-1 $-1 $430 $422 #
plane-surface $-1 0 32.085717970065005 0 0 -1 0 0 0 -1 forward_v I I I I #
coedge $-1 $596 $425 $427 $600 reversed $275 $-1 #
coedge $-1 $425 $595 $730 $731 reversed $275 $-1 #
coedge $-1 $433 $428 $425 $598 forward $423 $-1 #
edge $-1 $601 -13.444458260248545 $732 -2.2826837478193625 $597 $733 forward 7 unknown #
coedge $-1 $427 $426 $604 $734 reversed $173 $-1 #
edge $-1 $735 -64.171435940129982 $601 -50.006940662897975 $595 $736 forward 7 unknown #
vertex $-1 $429 $737 #
straight-curve $-1 -7.4021189560209422 20.923943457635833 15.183603712388312 1 0 0 I I #
coedge $-1 $730 $430 $433 $608 reversed $593 $-1 #
coedge $-1 $430 $730 $599 $734 forward $593 $-1 #
vertex $-1 $431 $738 #
straight-curve $-1 -24.732279884006893 32.085717970065005 78.803003638770122 0 0 1 I I #
straight-curve $-1 -24.732279884006893 -18.482063238055531 45.970950963519371 0 0.78801074757464917 -0.61566148304635926 I I #
edge $-1 $732 4.876195940076876 $434 24.732279884006893 $603 $739 forward 7 unknown #
point $-1 -24.732279884006893 32.085717970065005 15.183603712388315 #
point $-1 -24.732279884006893 20.923943457635822 15.183603712388315 #
edge $-1 $740 1 $740 0 $437 $-1 forward 7 unknown #
vertex $-1 $438 $741 #
ellipse-curve $-1 -19.059113042884036 24.830799661465413 8.6806746336365848 0 0.61566148304635926 0.78801074757464917 2 0 0 1 I I #
point $-1 -17.059113042884036 26.504830713850385 10.823336627896389 #
edge $-1 $742 1 $742 0 $441 $-1 forward 7 unknown #
vertex $-1 $442 $743 #
ellipse-curve $-1 -10.54936278119974 24.830799661465413 8.6806746336365848 0 0.61566148304635926 0.78801074757464917 2 0 0 1 I I #
point $-1 -8.5493627811997399 26.504830713850385 10.823336627896389 #
loop $-1 $-1 $453 $445 #
plane-surface $-1 0 32.085717970065005 0 0 -1 0 0 0 -1 forward_v I I I I #
coedge $-1 $622 $448 $450 $626 reversed $297 $-1 #
coedge $-1 $448 $621 $744 $745 reversed $297 $-1 #
coedge $-1 $456 $451 $448 $624 forward $446 $-1 #
edge $-1 $627 -13.444458260248545 $746 -2.2826837478193625 $623 $747 forward 7 unknown #
coedge $-1 $450 $449 $630 $748 reversed $187 $-1 #
edge $-1 $749 -64.171435940129982 $627 -50.006940662897975 $621 $750 forward 7 unknown #
vertex $-1 $452 $751 #
straight-curve $-1 8.5255044402784534 20.923943457635833 15.183603712388312 1 0 0 I I #
coedge $-1 $744 $453 $456 $634 reversed $619 $-1 #
coedge $-1 $453 $744 $625 $748 forward $619 $-1 #
vertex $-1 $454 $752 #
straight-curve $-1 7.1229669085918985 32.085717970065005 78.803003638770122 0 0 1 I I #
straight-curve $-1 7.1229669085918985 -18.482063238055531 45.970950963519371 0 0.78801074757464917 -0.61566148304635926 I I #
edge $-1 $746 -26.979050852521915 $457 -7.1229669085918985 $629 $753 forward 7 unknown #
point $-1 7.1229669085918985 32.085717970065005 15.183603712388315 #
point $-1 7.1229669085918985 20.923943457635822 15.183603712388315 #
edge $-1 $754 1 $754 0 $460 $-1 forward 7 unknown #
vertex $-1 $461 $755 #
ellipse-curve $-1 12.796133749714755 24.830799661465413 8.6806746336365848 0 0.61566148304635926 0.78801074757464917 2 0 0 1 I I #
point $-1 14.796133749714755 26.504830713850385 10.823336627896389 #
edge $-1 $756 1 $756 0 $464 $-1 forward 7 unknown #
vertex $-1 $465 $757 #
ellipse-curve $-1 21.305884011399058 24.830799661465413 8.6806746336365848 0 0.61566148304635926 0.78801074757464917 2 0 0 1 I I #
point $-1 23.305884011399058 26.504830713850385 10.823336627896389 #
loop $-1 $-1 $476 $468 #
plane-surface $-1 0 32.085717970065005 0 0 -1 0 0 0 -1 forward_v I I I I #
coedge $-1 $648 $471 $473 $652 reversed $319 $-1 #
coedge $-1 $471 $647 $758 $759 reversed $319 $-1 #
coedge $-1 $479 $474 $471 $650 forward $469 $-1 #
edge $-1 $653 -13.444458260248545 $760 -2.2826837478193625 $649 $761 forward 7 unknown #
coedge $-1 $473 $472 $656 $762 reversed $201 $-1 #
edge $-1 $763 -64.171435940129982 $653 -50.006940662897975 $647 $764 forward 7 unknown #
vertex $-1 $475 $765 #
straight-curve $-1 24.453127836577849 20.923943457635833 15.183603712388312 1 0 0 I I #
coedge $-1 $758 $476 $479 $660 reversed $645 $-1 #
coedge $-1 $476 $758 $651 $762 forward $645 $-1 #
vertex $-1 $477 $766 #
straight-curve $-1 38.97821370119069 32.085717970065005 78.803003638770122 0 0 1 I I #
straight-curve $-1 38.97821370119069 -18.482063238055531 45.970950963519371 0 0.78801074757464917 -0.61566148304635926 I I #
edge $-1 $760 -58.834297645120706 $480 -38.97821370119069 $655 $767 forward 7 unknown #
point $-1 38.97821370119069 32.085717970065005 15.183603712388315 #
point $-1 38.97821370119069 20.923943457635822 15.183603712388315 #
edge $-1 $768 1 $768 0 $483 $-1 forward 7 unknown #
vertex $-1 $484 $769 #
ellipse-curve $-1 44.651380542313547 24.830799661465413 8.6806746336365848 0 0.61566148304635926 0.78801074757464917 2 0 0 1 I I #
point $-1 46.651380542313547 26.504830713850385 10.823336627896389 #
edge $-1 $770 1 $770 0 $487 $-1 forward 7 unknown #
vertex $-1 $488 $771 #
ellipse-curve $-1 53.16113080399785 24.830799661465413 8.6806746336365848 0 0.61566148304635926 0.78801074757464917 2 0 0 1 I I #
point $-1 55.16113080399785 26.504830713850385 10.823336627896389 #
plane-surface $-1 70.833460493789488 0 0 -1 0 0 0 0 1 forward_v I I I I #
coedge $-1 $496 $494 $498 $676 reversed $341 $-1 #
edge $-1 $509 -15.183603712388315 $678 15.183603712388315 $508 $772 forward 7 unknown #
vertex $-1 $676 $773 #
straight-curve $-1 -70.833460493789488 -32.085717970065005 0 0 0 -1 I I #
edge $-1 $674 -32.085717970065005 $678 32.085717970065005 $672 $774 forward 7 unknown #
straight-curve $-1 0 -32.085717970065005 -15.183603712388315 -1 0 0 I I #
vertex $-1 $501 $775 #
straight-curve $-1 0 32.085717970065005 -15.183603712388315 1 0 0 I I #
point $-1 70.833460493789488 32.085717970065005 -15.183603712388315 #
point $-1 70.833460493789488 -32.085717970065005 -15.183603712388315 #
straight-curve $-1 -70.833460493789488 0 15.183603712388315 0 -1 0 I I #
point $-1 -70.833460493789488 32.085717970065005 15.183603712388315 #
point $-1 -70.833460493789488 -32.085717970065005 15.183603712388315 #
straight-curve $-1 70.833460493789488 -32.085717970065005 0 0 0 -1 I I #
straight-curve $-1 70.833460493789488 32.085717970065005 0 0 0 -1 I I #
plane-surface $-1 0 -32.085717970065005 0 0 1 0 0 0 1 forward_v I I I I #
coedge $-1 $776 $521 $533 $699 reversed $360 $-1 #
coedge $-1 $521 $776 $536 $701 reversed $360 $-1 #
edge $-1 $777 -70.833460493789488 $530 -56.587526676605691 $526 $778 forward 7 unknown #
straight-curve $-1 -56.587526676605691 -14.992351193773921 15.183603712388315 0 1 0 I I #
coedge $-1 $533 $524 $527 $695 forward $519 $-1 #
straight-curve $-1 -56.587526676605691 -14.992351193773921 -15.183603712388315 0 -1 0 I I #
coedge $-1 $527 $526 $776 $779 forward $528 $-1 #
edge $-1 $529 56.587526676605691 $780 70.833460493789488 $527 $781 forward 7 unknown #
point $-1 -56.587526676605691 -32.085717970065005 -15.183603712388315 #
point $-1 -56.587526676605691 -32.085717970065005 15.183603712388315 #
straight-curve $-1 -70.833460493789488 -27.883686805030678 0 0 0 -1 I I #
edge $-1 $780 -32.085717970065005 $534 -27.883686805030678 $688 $782 forward 7 unknown #
point $-1 -70.833460493789488 -27.883686805030678 -15.183603712388315 #
edge $-1 $537 27.883686805030678 $777 32.085717970065005 $689 $783 forward 7 unknown #
point $-1 -70.833460493789488 -27.883686805030678 15.183603712388315 #
coedge $-1 $552 $551 $544 $704 forward $541 $-1 #
edge $-1 $705 33.511955734652048 $708 47.92104708603982 $703 $784 forward 7 unknown #
vertex $-1 $556 $785 #
straight-curve $-1 -46.42455236685359 -67.847173101071405 15.183603712388312 0 -1 0 I I #
edge $-1 $708 -29.813244846931738 $553 -3.4093701929119611 $552 $786 forward 7 unknown #
vertex $-1 $707 $787 #
straight-curve $-1 -46.42455236685359 -32.085717970065019 0.77451236100053222 0 0.68199835119979291 0.73135370988377701 I I #
point $-1 -46.42455236685359 -18.649023233813093 15.183603712388315 #
point $-1 -20.020677712833812 -32.085717970065005 0.77451236100054743 #
straight-curve $-1 0 -32.085717970065005 15.183603712388315 1 0 0 I I #
vertex $-1 $559 $788 #
point $-1 -35.880588179990795 -20.36864488668099 3.317671009003325 #
vertex $-1 $563 $789 #
point $-1 -24.564641899696603 -20.36864488668099 3.317671009003325 #
edge $-1 $718 63.619399926381803 $721 72.339934095365606 $568 $790 forward 7 unknown #
vertex $-1 $582 $791 #
straight-curve $-1 -36.731442732675667 34.368401717884367 15.183603712388319 0 1 0 I I #
edge $-1 $721 13.401700380355329 $579 33.257784324285346 $578 $792 forward 7 unknown #
vertex $-1 $720 $793 #
straight-curve $-1 -36.731442732675667 -18.482063238055531 45.970950963519371 0 -0.78801074757464917 0.61566148304635926 I I #
point $-1 -36.731442732675667 20.923943457635822 15.183603712388315 #
point $-1 -56.587526676605684 32.085717970065005 6.463069543404508 #
straight-curve $-1 0 32.085717970065005 15.183603712388315 -1 0 0 I I #
vertex $-1 $585 $794 #
point $-1 -48.914359835482827 24.830799661465413 8.6806746336365848 #
vertex $-1 $589 $795 #
point $-1 -40.404609573798531 24.830799661465413 8.6806746336365848 #
coedge $-1 $604 $603 $596 $731 forward $593 $-1 #
edge $-1 $732 63.619399926381803 $735 72.339934095365606 $730 $796 forward 7 unknown #
vertex $-1 $608 $797 #
straight-curve $-1 -4.876195940076876 34.368401717884367 15.183603712388319 0 1 0 I I #
edge $-1 $735 -2.5259230159440662 $605 17.330160927985951 $604 $798 forward 7 unknown #
vertex $-1 $734 $799 #
straight-curve $-1 -4.876195940076876 -18.482063238055531 45.970950963519371 0 -0.78801074757464917 0.61566148304635926 I I #
point $-1 -4.876195940076876 20.923943457635822 15.183603712388315 #
point $-1 -24.732279884006893 32.085717970065005 6.463069543404508 #
straight-curve $-1 0 32.085717970065005 15.183603712388315 -1 0 0 I I #
vertex $-1 $611 $800 #
point $-1 -17.059113042884036 24.830799661465413 8.6806746336365848 #
vertex $-1 $615 $801 #
point $-1 -8.5493627811997399 24.830799661465413 8.6806746336365848 #
coedge $-1 $630 $629 $622 $745 forward $619 $-1 #
edge $-1 $746 63.619399926381803 $749 72.339934095365606 $744 $802 forward 7 unknown #
vertex $-1 $634 $803 #
straight-curve $-1 26.979050852521915 34.368401717884367 15.183603712388319 0 1 0 I I #
edge $-1 $749 -18.453546412243462 $631 1.4025375316865549 $630 $804 forward 7 unknown #
vertex $-1 $748 $805 #
straight-curve $-1 26.979050852521915 -18.482063238055531 45.970950963519371 0 -0.78801074757464917 0.61566148304635926 I I #
point $-1 26.979050852521915 20.923943457635822 15.183603712388315 #
point $-1 7.1229669085918985 32.085717970065005 6.463069543404508 #
straight-curve $-1 0 32.085717970065005 15.183603712388315 -1 0 0 I I #
vertex $-1 $637 $806 #
point $-1 14.796133749714755 24.830799661465413 8.6806746336365848 #
vertex $-1 $641 $807 #
point $-1 23.305884011399058 24.830799661465413 8.6806746336365848 #
coedge $-1 $656 $655 $648 $759 forward $645 $-1 #
edge $-1 $760 63.619399926381803 $763 72.339934095365606 $758 $808 forward 7 unknown #
vertex $-1 $660 $809 #
straight-curve $-1 58.834297645120706 34.368401717884367 15.183603712388319 0 1 0 I I #
edge $-1 $763 -34.381169808542857 $657 -14.525085864612841 $656 $810 forward 7 unknown #
vertex $-1 $762 $811 #
straight-curve $-1 58.834297645120706 -18.482063238055531 45.970950963519371 0 -0.78801074757464917 0.61566148304635926 I I #
point $-1 58.834297645120706 20.923943457635822 15.183603712388315 #
point $-1 38.97821370119069 32.085717970065005 6.463069543404508 #
straight-curve $-1 0 32.085717970065005 15.183603712388315 -1 0 0 I I #
vertex $-1 $663 $812 #
point $-1 46.651380542313547 24.830799661465413 8.6806746336365848 #
vertex $-1 $667 $813 #
point $-1 55.16113080399785 24.830799661465413 8.6806746336365848 #
straight-curve $-1 -70.833460493789488 32.085717970065005 0 0 0 -1 I I #
point $-1 -70.833460493789488 -32.085717970065005 -15.183603712388315 #
straight-curve $-1 -70.833460493789488 0 -15.183603712388315 0 1 0 I I #
point $-1 -70.833460493789488 32.085717970065005 -15.183603712388315 #
coedge $-1 $689 $688 $694 $779 reversed $360 $-1 #
vertex $-1 $701 $814 #
straight-curve $-1 0 -32.085717970065005 15.183603712388315 1 0 0 I I #
edge $-1 $777 -15.183603712388315 $780 15.183603712388315 $776 $815 forward 7 unknown #
vertex $-1 $699 $816 #
straight-curve $-1 0 -32.085717970065005 -15.183603712388315 -1 0 0 I I #
straight-curve $-1 -70.833460493789488 0 -15.183603712388315 0 1 0 I I #
straight-curve $-1 -70.833460493789488 0 15.183603712388315 0 -1 0 I I #
straight-curve $-1 -46.42455236685359 -32.085717970065005 48.695559447040367 0 0 -1 I I #
point $-1 -46.42455236685359 -32.085717970065005 15.183603712388315 #
straight-curve $-1 -16.611307519921851 -32.085717970065005 0.7745123610005501 1 0 0 I I #
point $-1 -46.42455236685359 -32.085717970065005 0.77451236100054743 #
point $-1 -38.880588179990795 -18.174583757029659 1.2716759554039447 #
point $-1 -27.564641899696603 -18.174583757029659 1.2716759554039447 #
straight-curve $-1 -36.731442732675667 32.085717970065005 78.803003638770122 0 0 -1 I I #
point $-1 -36.731442732675667 32.085717970065005 15.183603712388315 #
straight-curve $-1 -23.329742352320338 32.085717970065005 6.4630695434045045 -1 0 0 I I #
point $-1 -36.731442732675667 32.085717970065005 6.463069543404508 #
point $-1 -50.914359835482827 23.599476695372694 7.1046531384872864 #
point $-1 -42.404609573798531 23.599476695372694 7.1046531384872864 #
straight-curve $-1 -4.876195940076876 32.085717970065005 78.803003638770122 0 0 -1 I I #
point $-1 -4.876195940076876 32.085717970065005 15.183603712388315 #
straight-curve $-1 -7.4021189560209422 32.085717970065005 6.4630695434045045 -1 0 0 I I #
point $-1 -4.876195940076876 32.085717970065005 6.463069543404508 #
point $-1 -19.059113042884036 23.599476695372694 7.1046531384872864 #
point $-1 -10.54936278119974 23.599476695372694 7.1046531384872864 #
straight-curve $-1 26.979050852521915 32.085717970065005 78.803003638770122 0 0 -1 I I #
point $-1 26.979050852521915 32.085717970065005 15.183603712388315 #
straight-curve $-1 8.5255044402784534 32.085717970065005 6.4630695434045045 -1 0 0 I I #
point $-1 26.979050852521915 32.085717970065005 6.463069543404508 #
point $-1 12.796133749714755 23.599476695372694 7.1046531384872864 #
point $-1 21.305884011399058 23.599476695372694 7.1046531384872864 #
straight-curve $-1 58.834297645120706 32.085717970065005 78.803003638770122 0 0 -1 I I #
point $-1 58.834297645120706 32.085717970065005 15.183603712388315 #
straight-curve $-1 24.453127836577849 32.085717970065005 6.4630695434045045 -1 0 0 I I #
point $-1 58.834297645120706 32.085717970065005 6.463069543404508 #
point $-1 44.651380542313547 23.599476695372694 7.1046531384872864 #
point $-1 53.16113080399785 23.599476695372694 7.1046531384872864 #
point $-1 -70.833460493789488 -32.085717970065005 15.183603712388315 #
straight-curve $-1 -70.833460493789488 -32.085717970065005 0 0 0 -1 I I #
point $-1 -70.833460493789488 -32.085717970065005 -15.183603712388315 #
End-of-ACIS-data 