500 0 9 0           
7 Unknown 11 ACIS 5.0 NT 24 Fri Mar 26 20:02:34 1999 
-1 9.9999999999999995e-007 1e-010 
body $-1 $9 $-1 $10 #
body $-1 $11 $-1 $12 #
body $-1 $13 $-1 $14 #
body $-1 $15 $-1 $16 #
body $-1 $17 $-1 $18 #
body $-1 $19 $-1 $20 #
body $-1 $21 $-1 $22 #
body $-1 $23 $-1 $24 #
body $-1 $25 $-1 $26 #
lump $-1 $-1 $27 $0 #
transform $-1 1 0 0 0 1 0 0 0 1 47.260963774529252 29.040388895092757 11.534352893923298 1 rotate no_reflect no_shear #
lump $-1 $-1 $28 $1 #
transform $-1 1 0 0 0 1 0 0 0 1 47.260963774529252 29.040388895092757 11.534352893923298 1 rotate no_reflect no_shear #
lump $-1 $-1 $29 $2 #
transform $-1 1 0 0 0 1 0 0 0 1 47.260963774529252 29.040388895092757 11.534352893923298 1 rotate no_reflect no_shear #
lump $-1 $-1 $30 $3 #
transform $-1 1 0 0 0 1 0 0 0 1 47.260963774529252 29.040388895092757 11.534352893923298 1 rotate no_reflect no_shear #
lump $-1 $-1 $31 $4 #
transform $-1 1 0 0 0 1 0 0 0 1 47.260963774529252 29.040388895092757 11.534352893923298 1 rotate no_reflect no_shear #
lump $-1 $-1 $32 $5 #
transform $-1 1 0 0 0 1 0 0 0 1 47.260963774529252 29.040388895092757 11.534352893923298 1 rotate no_reflect no_shear #
lump $-1 $-1 $33 $6 #
transform $-1 1 0 0 0 1 0 0 0 1 47.260963774529252 29.040388895092757 11.534352893923298 1 rotate no_reflect no_shear #
lump $-1 $-1 $34 $7 #
transform $-1 1 0 0 0 1 0 0 0 1 47.260963774529252 29.040388895092757 11.534352893923298 1 rotate no_reflect no_shear #
lump $-1 $-1 $35 $8 #
transform $-1 1 0 0 0 1 0 0 0 1 47.260963774529252 29.040388895092757 11.534352893923298 1 rotate no_reflect no_shear #
shell $-1 $-1 $-1 $36 $-1 $9 #
shell $-1 $-1 $-1 $37 $-1 $11 #
shell $-1 $-1 $-1 $38 $-1 $13 #
shell $-1 $-1 $-1 $39 $-1 $15 #
shell $-1 $-1 $-1 $40 $-1 $17 #
shell $-1 $-1 $-1 $41 $-1 $19 #
shell $-1 $-1 $-1 $42 $-1 $21 #
shell $-1 $-1 $-1 $43 $-1 $23 #
shell $-1 $-1 $-1 $44 $-1 $25 #
face $-1 $45 $46 $27 $-1 $47 forward single #
face $-1 $48 $49 $28 $-1 $50 forward single #
face $-1 $51 $52 $29 $-1 $53 forward single #
face $-1 $54 $55 $30 $-1 $56 reversed single #
face $-1 $57 $58 $31 $-1 $59 forward single #
face $-1 $60 $61 $32 $-1 $62 reversed single #
face $-1 $63 $64 $33 $-1 $65 forward single #
face $-1 $66 $67 $34 $-1 $68 reversed single #
face $-1 $69 $70 $35 $-1 $71 forward single #
face $-1 $72 $73 $27 $-1 $74 reversed single #
loop $-1 $-1 $75 $36 #
plane-surface $-1 0 0 11.534352893923298 0 0 1 1 0 0 forward_v I I I I #
face $-1 $76 $77 $28 $-1 $78 reversed single #
loop $-1 $-1 $79 $37 #
plane-surface $-1 0 -23.923609569258655 2.8869576841168896 0 0 1 1 0 0 forward_v I I I I #
face $-1 $80 $81 $29 $-1 $82 reversed single #
loop $-1 $-1 $83 $38 #
plane-surface $-1 0 24.563903967278936 7.0431324726983142 0 0 1 1 0 0 forward_v I I I I #
face $-1 $84 $85 $30 $-1 $86 reversed single #
loop $-1 $-1 $87 $39 #
plane-surface $-1 -123.73081027634086 -9.9371406384804537 63.3832049974868 0 -1 0 0.80901700255871778 0 -0.5877852410284794 forward_v I I I I #
face $-1 $88 $89 $31 $-1 $90 forward single #
loop $-1 $91 $92 $40 #
cone-surface $-1 -45.251203481812304 -14.371985440952503 9.1984252968609663 0.80901700255871778 0 -0.5877852410284794 0.2938926205142397 0 0.40450850127935889 1 I I 0 1 0.5 forward I I I I #
face $-1 $93 $94 $32 $-1 $95 reversed single #
loop $-1 $-1 $96 $41 #
plane-surface $-1 -123.73081027634086 20.087419039465122 63.3832049974868 0 -1 0 0.80901700255871778 0 -0.5877852410284794 forward_v I I I I #
face $-1 $97 $98 $33 $-1 $99 forward single #
loop $-1 $100 $101 $42 #
cone-surface $-1 -45.251203481812304 15.652574236993072 9.1984252968609663 0.80901700255871778 0 -0.5877852410284794 0.2938926205142397 0 0.40450850127935889 1 I I 0 1 0.5 forward I I I I #
face $-1 $102 $103 $34 $-1 $104 reversed single #
loop $-1 $-1 $105 $43 #
plane-surface $-1 17.190814446854652 12.718397565194163 135.17855821436876 0 1 0 0.52991927123019833 0 0.84804809178421925 forward_v I I I I #
face $-1 $106 $107 $35 $-1 $108 forward single #
loop $-1 $109 $110 $44 #
cone-surface $-1 41.563668713255204 16.402908302329646 7.5713720661141259 -0.52991927123019833 0 -0.84804809178421925 1.2720721376763289 0 -0.79487890684529749 1 I I 0 1 1.5 forward I I I I #
face $-1 $111 $112 $27 $-1 $113 reversed single #
loop $-1 $-1 $114 $45 #
plane-surface $-1 0 0 -11.534352893923298 0 0 1 1 0 0 forward_v I I I I #
coedge $-1 $115 $116 $117 $118 forward $46 $-1 #
face $-1 $119 $120 $28 $-1 $121 reversed single #
loop $-1 $-1 $122 $48 #
plane-surface $-1 0 -23.923609569258655 -3.8003409903732535 0 0 1 1 0 0 forward_v I I I I #
coedge $-1 $123 $124 $125 $126 reversed $49 $-1 #
face $-1 $127 $128 $29 $-1 $129 reversed single #
loop $-1 $-1 $130 $51 #
plane-surface $-1 0 24.563903967278936 4.0431324726983142 0 0 1 1 0 0 forward_v I I I I #
coedge $-1 $131 $132 $133 $134 reversed $52 $-1 #
face $-1 $135 $136 $30 $-1 $137 reversed single #
loop $-1 $-1 $138 $54 #
plane-surface $-1 -47.260963774529259 -14.371985440952503 7.8246110305869792 -0.80901700255871778 0 0.5877852410284794 0.5877852410284794 0 0.80901700255871778 forward_v I I I I #
coedge $-1 $139 $140 $141 $142 reversed $55 $-1 #
face $-1 $-1 $143 $31 $-1 $144 forward single #
loop $-1 $145 $146 $57 #
cone-surface $-1 -44.386831514815682 -14.371985440952503 8.5704223212096693 0.80901700255871778 0 -0.5877852410284794 0.14694631025711985 0 0.20225425063967944 1 I I -0.70710678118654746 0.70710678118654746 0.25 forward I I I I #
loop $-1 $-1 $147 $40 #
coedge $-1 $92 $92 $148 $149 reversed $58 $-1 #
face $-1 $150 $151 $32 $-1 $152 reversed single #
loop $-1 $-1 $153 $60 #
plane-surface $-1 -47.260963774529259 15.652574236993072 7.8246110305869792 -0.80901700255871778 0 0.5877852410284794 0.5877852410284794 0 0.80901700255871778 forward_v I I I I #
coedge $-1 $154 $155 $156 $157 reversed $61 $-1 #
face $-1 $-1 $158 $33 $-1 $159 forward single #
loop $-1 $160 $161 $63 #
cone-surface $-1 -44.386831514815682 15.652574236993072 8.5704223212096693 0.80901700255871778 0 -0.5877852410284794 0.14694631025711985 0 0.20225425063967944 1 I I -0.70710678118654746 0.70710678118654746 0.25 forward I I I I #
loop $-1 $-1 $162 $42 #
coedge $-1 $101 $101 $163 $164 reversed $64 $-1 #
face $-1 $165 $166 $34 $-1 $167 forward single #
loop $-1 $-1 $168 $66 #
plane-surface $-1 -32.898176515216029 16.402908302329646 55.019417924623482 0.52991927123019833 0 0.84804809178421925 0.84804809178421925 0 -0.52991927123019833 forward_v I I I I #
coedge $-1 $169 $170 $171 $172 reversed $67 $-1 #
face $-1 $-1 $173 $35 $-1 $174 forward single #
loop $-1 $175 $176 $69 #
cone-surface $-1 40.753179449143296 16.402908302329646 6.2743181351520292 -0.52991927123019833 0 -0.84804809178421925 0.63603606883816444 0 -0.39743945342264875 1 I I -0.70710678118654757 0.70710678118654757 0.75 forward I I I I #
loop $-1 $-1 $177 $44 #
coedge $-1 $110 $110 $178 $179 reversed $70 $-1 #
face $-1 $180 $181 $27 $-1 $182 reversed single #
loop $-1 $-1 $183 $72 #
plane-surface $-1 0 -29.040388895092757 0 0 1 0 0 0 1 forward_v I I I I #
coedge $-1 $184 $185 $186 $187 forward $73 $-1 #
coedge $-1 $188 $75 $189 $190 forward $46 $-1 #
coedge $-1 $75 $188 $191 $192 forward $46 $-1 #
coedge $-1 $193 $194 $75 $118 reversed $195 $-1 #
edge $-1 $196 -29.040388895092757 $197 29.040388895092757 $117 $198 forward 7 unknown #
face $-1 $199 $200 $28 $-1 $201 reversed single #
loop $-1 $-1 $202 $76 #
plane-surface $-1 0 -18.806830243424553 -0.45669165312818194 0 -1 0 0 0 -1 forward_v I I I I #
coedge $-1 $203 $204 $205 $206 reversed $77 $-1 #
coedge $-1 $207 $79 $208 $209 forward $49 $-1 #
coedge $-1 $79 $207 $210 $211 reversed $49 $-1 #
coedge $-1 $212 $213 $79 $126 forward $214 $-1 #
edge $-1 $215 6.8450254587952255 $216 17.078584110463432 $125 $217 forward 7 unknown #
face $-1 $218 $219 $29 $-1 $220 reversed single #
loop $-1 $-1 $221 $80 #
plane-surface $-1 0 20.087419039465118 5.5431324726983142 0 1 0 0 0 1 forward_v I I I I #
coedge $-1 $222 $223 $224 $225 reversed $81 $-1 #
coedge $-1 $226 $83 $227 $228 reversed $52 $-1 #
coedge $-1 $83 $226 $221 $229 forward $52 $-1 #
coedge $-1 $230 $231 $83 $134 forward $219 $-1 #
edge $-1 $232 -16.758436911453288 $233 -7.80546705582565 $133 $234 forward 7 unknown #
face $-1 $235 $236 $30 $-1 $237 reversed single #
loop $-1 $-1 $238 $84 #
plane-surface $-1 -123.73081027634086 -18.806830243424553 63.3832049974868 0 1 0 -0.80901700255871778 0 0.5877852410284794 forward_v I I I I #
coedge $-1 $239 $240 $241 $242 reversed $85 $-1 #
coedge $-1 $140 $87 $243 $244 reversed $55 $-1 #
coedge $-1 $87 $139 $239 $245 reversed $55 $-1 #
coedge $-1 $241 $246 $87 $142 forward $236 $-1 #
edge $-1 $247 20.157249604820102 $248 23.86699146815641 $141 $249 forward 7 unknown #
loop $-1 $-1 $148 $88 #
plane-surface $-1 -47.260963774529259 -14.371985440952503 7.8246110305869792 -0.80901700255871778 0 0.5877852410284794 0.5877852410284794 0 0.80901700255871778 forward_v I I I I #
loop $-1 $-1 $250 $57 #
coedge $-1 $146 $146 $147 $251 reversed $89 $-1 #
coedge $-1 $147 $147 $146 $251 forward $91 $-1 #
coedge $-1 $148 $148 $92 $149 forward $143 $-1 #
edge $-1 $252 0 $252 6.2831853071796004 $148 $253 forward 7 unknown #
face $-1 $254 $255 $32 $-1 $256 forward single #
loop $-1 $-1 $257 $93 #
plane-surface $-1 -123.73081027634086 11.217729434521022 63.3832049974868 0 1 0 -0.80901700255871778 0 0.5877852410284794 forward_v I I I I #
coedge $-1 $258 $259 $260 $261 reversed $94 $-1 #
coedge $-1 $155 $96 $262 $263 reversed $61 $-1 #
coedge $-1 $96 $154 $258 $264 reversed $61 $-1 #
coedge $-1 $260 $265 $96 $157 forward $266 $-1 #
edge $-1 $267 20.157249604820102 $268 23.86699146815641 $156 $269 forward 7 unknown #
loop $-1 $-1 $163 $97 #
plane-surface $-1 -47.260963774529259 15.652574236993072 7.8246110305869792 -0.80901700255871778 0 0.5877852410284794 0.5877852410284794 0 0.80901700255871778 forward_v I I I I #
loop $-1 $-1 $270 $63 #
coedge $-1 $161 $161 $162 $271 reversed $98 $-1 #
coedge $-1 $162 $162 $161 $271 forward $100 $-1 #
coedge $-1 $163 $163 $101 $164 forward $158 $-1 #
edge $-1 $272 0 $272 6.2831853071796004 $163 $273 forward 7 unknown #
face $-1 $274 $275 $34 $-1 $276 forward single #
loop $-1 $-1 $277 $102 #
plane-surface $-1 0 0 11.534352893923298 0 0 1 1 0 0 forward_v I I I I #
coedge $-1 $278 $279 $280 $281 reversed $103 $-1 #
coedge $-1 $170 $105 $282 $283 reversed $67 $-1 #
coedge $-1 $105 $169 $278 $284 reversed $67 $-1 #
coedge $-1 $280 $285 $105 $172 forward $286 $-1 #
edge $-1 $287 56.054926213261083 $288 62.658852144631581 $171 $289 forward 7 unknown #
loop $-1 $-1 $178 $106 #
plane-surface $-1 -32.898176515216029 16.402908302329646 55.019417924623482 0.52991927123019833 0 0.84804809178421925 0.84804809178421925 0 -0.52991927123019833 forward_v I I I I #
loop $-1 $-1 $290 $69 #
coedge $-1 $176 $176 $177 $291 reversed $107 $-1 #
coedge $-1 $177 $177 $176 $291 forward $109 $-1 #
coedge $-1 $178 $178 $110 $179 forward $173 $-1 #
edge $-1 $292 0 $292 6.2831853071796004 $178 $293 forward 7 unknown #
face $-1 $294 $295 $27 $-1 $296 reversed single #
loop $-1 $-1 $297 $111 #
plane-surface $-1 -47.260963774529252 0 0 1 0 0 0 0 -1 forward_v I I I I #
coedge $-1 $298 $191 $299 $300 forward $112 $-1 #
coedge $-1 $301 $114 $298 $302 forward $73 $-1 #
coedge $-1 $114 $301 $303 $304 forward $73 $-1 #
coedge $-1 $194 $193 $114 $187 reversed $195 $-1 #
edge $-1 $305 -29.040388895092757 $306 29.040388895092757 $186 $307 forward 7 unknown #
coedge $-1 $116 $115 $308 $309 forward $46 $-1 #
coedge $-1 $310 $311 $115 $190 reversed $295 $-1 #
edge $-1 $197 -47.260963774529252 $312 47.260963774529252 $189 $313 forward 7 unknown #
coedge $-1 $183 $314 $116 $192 reversed $112 $-1 #
edge $-1 $315 -47.260963774529252 $196 47.260963774529252 $191 $316 forward 7 unknown #
coedge $-1 $186 $117 $314 $317 forward $195 $-1 #
coedge $-1 $117 $186 $310 $318 reversed $195 $-1 #
loop $-1 $-1 $193 $294 #
vertex $-1 $118 $319 #
vertex $-1 $118 $320 #
straight-curve $-1 47.260963774529252 0 11.534352893923298 0 1 0 I I #
face $-1 $321 $322 $28 $-1 $323 reversed single #
loop $-1 $-1 $324 $119 #
plane-surface $-1 -47.260963774529252 0 0 1 0 0 0 0 -1 forward_v I I I I #
coedge $-1 $325 $208 $213 $326 reversed $120 $-1 #
coedge $-1 $327 $122 $328 $329 reversed $77 $-1 #
coedge $-1 $122 $327 $325 $330 forward $77 $-1 #
coedge $-1 $213 $212 $122 $206 forward $214 $-1 #
edge $-1 $331 -17.078584110463432 $332 -6.8450254587952255 $205 $333 forward 7 unknown #
coedge $-1 $124 $123 $324 $334 reversed $49 $-1 #
coedge $-1 $202 $335 $123 $209 reversed $120 $-1 #
edge $-1 $215 -47.260963774529252 $336 47.260963774529252 $208 $337 forward 7 unknown #
coedge $-1 $338 $339 $124 $211 forward $322 $-1 #
edge $-1 $216 -47.260963774529252 $340 47.260963774529252 $210 $341 forward 7 unknown #
coedge $-1 $205 $125 $339 $342 forward $214 $-1 #
coedge $-1 $125 $205 $202 $326 forward $214 $-1 #
loop $-1 $-1 $125 $321 #
vertex $-1 $126 $343 #
vertex $-1 $342 $344 #
straight-curve $-1 47.260963774529252 -11.961804784629328 2.8869576841168896 0 -1 0 I I #
face $-1 $345 $346 $29 $-1 $347 reversed single #
loop $-1 $-1 $133 $127 #
plane-surface $-1 47.260963774529252 0 0 -1 0 0 0 0 1 forward_v I I I I #
coedge $-1 $348 $349 $132 $229 reversed $128 $-1 #
coedge $-1 $350 $130 $351 $352 forward $81 $-1 #
coedge $-1 $130 $350 $353 $354 reversed $81 $-1 #
coedge $-1 $231 $230 $130 $225 forward $219 $-1 #
edge $-1 $355 7.80546705582565 $356 16.758436911453288 $224 $357 forward 7 unknown #
coedge $-1 $132 $131 $358 $359 reversed $52 $-1 #
coedge $-1 $360 $361 $131 $228 forward $362 $-1 #
edge $-1 $363 -47.260963774529252 $232 47.260963774529252 $227 $364 forward 7 unknown #
edge $-1 $365 -47.260963774529252 $233 47.260963774529252 $221 $366 forward 7 unknown #
coedge $-1 $224 $133 $349 $367 forward $219 $-1 #
coedge $-1 $133 $224 $360 $368 reversed $219 $-1 #
vertex $-1 $368 $369 #
vertex $-1 $134 $370 #
straight-curve $-1 47.260963774529252 12.281951983639468 7.0431324726983142 0 -1 0 I I #
face $-1 $-1 $371 $30 $-1 $372 forward single #
loop $-1 $-1 $141 $135 #
plane-surface $-1 -47.260963774529252 0 0 1 0 0 0 0 -1 forward_v I I I I #
coedge $-1 $373 $374 $375 $376 reversed $136 $-1 #
coedge $-1 $377 $138 $140 $245 forward $85 $-1 #
coedge $-1 $138 $377 $373 $378 forward $85 $-1 #
coedge $-1 $375 $141 $138 $242 forward $236 $-1 #
edge $-1 $248 2.751147918004202 $379 11.620837522948301 $241 $380 forward 7 unknown #
coedge $-1 $381 $382 $139 $244 forward $371 $-1 #
edge $-1 $383 -17.299726516361204 $247 -14.604441363641179 $243 $384 forward 7 unknown #
edge $-1 $248 1.2080531203272332e-014 $383 4.5854930756749672 $140 $385 forward 7 unknown #
coedge $-1 $141 $375 $381 $386 reversed $236 $-1 #
vertex $-1 $386 $387 #
vertex $-1 $142 $388 #
straight-curve $-1 -47.260963774529252 -9.9371406384804537 31.6916024987434 0 0 -1 I I #
coedge $-1 $250 $250 $-1 $389 reversed $145 $-1 #
edge $-1 $390 0 $390 6.2831853071796004 $146 $391 forward 7 unknown #
vertex $-1 $149 $392 #
ellipse-curve $-1 -45.913321198169243 -14.371985440952503 9.6794819622551422 -0.80901700255871778 0 0.5877852410284794 0.2938926205142397 0 0.40450850127935889 1 I I #
face $-1 $-1 $266 $32 $-1 $393 reversed single #
loop $-1 $-1 $394 $150 #
plane-surface $-1 0 0 11.534352893923298 0 0 1 1 0 0 forward_v I I I I #
coedge $-1 $395 $396 $397 $398 reversed $151 $-1 #
coedge $-1 $399 $153 $155 $264 forward $94 $-1 #
coedge $-1 $153 $399 $395 $400 forward $94 $-1 #
coedge $-1 $397 $156 $153 $261 forward $266 $-1 #
edge $-1 $268 -12.261131920968586 $401 -3.3914423160244862 $260 $402 forward 7 unknown #
coedge $-1 $403 $404 $154 $263 forward $255 $-1 #
edge $-1 $405 -17.299726516361204 $267 -14.604441363641179 $262 $406 forward 7 unknown #
edge $-1 $268 1.2080531203272332e-014 $405 4.5854930756749672 $155 $407 forward 7 unknown #
coedge $-1 $156 $397 $403 $408 reversed $266 $-1 #
loop $-1 $-1 $397 $254 #
vertex $-1 $408 $409 #
vertex $-1 $157 $410 #
straight-curve $-1 -47.260963774529252 20.087419039465122 31.6916024987434 0 0 -1 I I #
coedge $-1 $270 $270 $-1 $411 reversed $160 $-1 #
edge $-1 $412 0 $412 6.2831853071796004 $161 $413 forward 7 unknown #
vertex $-1 $164 $414 #
ellipse-curve $-1 -45.913321198169243 15.652574236993072 9.6794819622551422 -0.80901700255871778 0 0.5877852410284794 0.2938926205142397 0 0.40450850127935889 1 I I #
face $-1 $-1 $286 $34 $-1 $415 reversed single #
loop $-1 $-1 $416 $165 #
plane-surface $-1 0 20.087419039465118 5.5431324726983142 0 1 0 0 0 1 forward_v I I I I #
coedge $-1 $417 $418 $419 $420 forward $166 $-1 #
coedge $-1 $421 $168 $170 $284 forward $103 $-1 #
coedge $-1 $168 $421 $416 $422 forward $103 $-1 #
coedge $-1 $423 $171 $168 $281 forward $286 $-1 #
edge $-1 $288 4.5169434140293401 $424 11.885964888300295 $280 $425 forward 7 unknown #
coedge $-1 $418 $417 $169 $283 forward $166 $-1 #
edge $-1 $426 28.097066049932319 $287 38.665556551101929 $282 $427 forward 7 unknown #
edge $-1 $288 -94.521927549058503 $426 -82.059791729691909 $170 $428 forward 7 unknown #
coedge $-1 $171 $423 $418 $429 reversed $286 $-1 #
loop $-1 $-1 $423 $274 #
vertex $-1 $429 $430 #
vertex $-1 $172 $431 #
straight-curve $-1 47.260963774529252 12.718397565194163 67.589279107184382 0 0 -1 I I #
coedge $-1 $290 $290 $-1 $432 reversed $175 $-1 #
edge $-1 $433 0 $433 6.2831853071796004 $176 $434 forward 7 unknown #
vertex $-1 $179 $435 #
ellipse-curve $-1 41.976718523944456 16.402908302329646 8.2323899282380442 0.52991927123019833 0 0.84804809178421925 1.2720721376763289 0 -0.79487890684529749 1 I I #
face $-1 $-1 $195 $27 $-1 $436 reversed single #
loop $-1 $-1 $310 $180 #
plane-surface $-1 0 29.040388895092757 0 0 -1 0 0 0 -1 forward_v I I I I #
coedge $-1 $437 $308 $311 $438 forward $181 $-1 #
coedge $-1 $314 $183 $184 $302 reversed $112 $-1 #
coedge $-1 $308 $437 $183 $300 reversed $181 $-1 #
edge $-1 $315 -11.534352893923298 $439 11.534352893923298 $299 $440 forward 7 unknown #
coedge $-1 $185 $184 $437 $441 forward $73 $-1 #
edge $-1 $306 -47.260963774529252 $439 47.260963774529252 $298 $442 forward 7 unknown #
coedge $-1 $311 $310 $185 $304 reversed $295 $-1 #
edge $-1 $443 -47.260963774529252 $305 47.260963774529252 $303 $444 forward 7 unknown #
vertex $-1 $187 $445 #
vertex $-1 $317 $446 #
straight-curve $-1 47.260963774529252 0 -11.534352893923298 0 -1 0 I I #
coedge $-1 $297 $299 $188 $309 reversed $181 $-1 #
edge $-1 $312 -29.040388895092757 $315 29.040388895092757 $308 $447 forward 7 unknown #
coedge $-1 $303 $189 $194 $318 forward $295 $-1 #
coedge $-1 $189 $303 $297 $438 reversed $295 $-1 #
vertex $-1 $190 $448 #
straight-curve $-1 0 29.040388895092757 11.534352893923298 -1 0 0 I I #
coedge $-1 $191 $298 $193 $317 reversed $112 $-1 #
vertex $-1 $309 $449 #
straight-curve $-1 0 -29.040388895092757 11.534352893923298 1 0 0 I I #
edge $-1 $196 -11.534352893923298 $306 11.534352893923298 $193 $450 forward 7 unknown #
edge $-1 $197 -11.534352893923298 $305 11.534352893923298 $194 $451 forward 7 unknown #
point $-1 47.260963774529252 -29.040388895092757 11.534352893923298 #
point $-1 47.260963774529252 29.040388895092757 11.534352893923298 #
face $-1 $-1 $214 $28 $-1 $452 reversed single #
loop $-1 $-1 $210 $199 #
plane-surface $-1 0 -29.040388895092757 0 0 1 0 0 0 1 forward_v I I I I #
coedge $-1 $453 $454 $207 $334 forward $200 $-1 #
coedge $-1 $335 $202 $204 $330 reversed $120 $-1 #
edge $-1 $332 -3.5719951638091625 $215 3.1153035106809805 $213 $455 forward 7 unknown #
coedge $-1 $204 $203 $456 $457 reversed $77 $-1 #
coedge $-1 $339 $338 $203 $329 forward $322 $-1 #
edge $-1 $458 -47.260963774529252 $331 47.260963774529252 $328 $459 forward 7 unknown #
edge $-1 $460 -47.260963774529252 $332 47.260963774529252 $325 $461 forward 7 unknown #
vertex $-1 $329 $462 #
vertex $-1 $206 $463 #
straight-curve $-1 47.260963774529252 -11.961804784629328 -3.8003409903732535 0 1 0 I I #
edge $-1 $340 -17.078584110463432 $336 -6.8450254587952255 $324 $464 forward 7 unknown #
coedge $-1 $208 $325 $453 $465 reversed $120 $-1 #
vertex $-1 $334 $466 #
straight-curve $-1 0 -18.806830243424553 2.8869576841168896 -1 0 0 I I #
coedge $-1 $328 $210 $454 $467 forward $322 $-1 #
coedge $-1 $210 $328 $212 $342 reversed $322 $-1 #
vertex $-1 $467 $468 #
straight-curve $-1 0 -29.040388895092757 2.8869576841168896 -1 0 0 I I #
edge $-1 $216 -2.8869576841168896 $331 3.8003409903732535 $212 $469 forward 7 unknown #
point $-1 47.260963774529252 -18.806830243424553 2.8869576841168896 #
point $-1 47.260963774529252 -29.040388895092757 2.8869576841168896 #
face $-1 $-1 $362 $29 $-1 $470 reversed single #
loop $-1 $-1 $358 $218 #
plane-surface $-1 -47.260963774529252 0 0 1 0 0 0 0 -1 forward_v I I I I #
coedge $-1 $351 $221 $471 $472 reversed $128 $-1 #
coedge $-1 $221 $351 $230 $367 reversed $128 $-1 #
coedge $-1 $223 $222 $473 $474 reversed $81 $-1 #
coedge $-1 $349 $348 $222 $352 reversed $128 $-1 #
edge $-1 $355 -47.260963774529252 $475 47.260963774529252 $351 $476 forward 7 unknown #
coedge $-1 $361 $360 $223 $354 forward $362 $-1 #
edge $-1 $356 -47.260963774529252 $477 47.260963774529252 $353 $478 forward 7 unknown #
vertex $-1 $225 $479 #
vertex $-1 $354 $480 #
straight-curve $-1 47.260963774529252 12.281951983639468 4.0431324726983142 0 1 0 I I #
coedge $-1 $481 $471 $226 $359 forward $346 $-1 #
edge $-1 $365 7.80546705582565 $363 16.758436911453288 $358 $482 forward 7 unknown #
coedge $-1 $353 $227 $231 $368 forward $362 $-1 #
coedge $-1 $227 $353 $481 $483 reversed $362 $-1 #
loop $-1 $-1 $227 $345 #
vertex $-1 $483 $484 #
straight-curve $-1 0 29.040388895092757 7.0431324726983142 1 0 0 I I #
vertex $-1 $359 $485 #
straight-curve $-1 0 20.087419039465118 7.0431324726983142 1 0 0 I I #
edge $-1 $233 -4.2715662363491571 $355 -1.2715662363491571 $230 $486 forward 7 unknown #
edge $-1 $232 -7.0431324726983142 $356 -4.0431324726983142 $231 $487 forward 7 unknown #
point $-1 47.260963774529252 29.040388895092754 7.0431324726983142 #
point $-1 47.260963774529252 20.087419039465118 7.0431324726983142 #
loop $-1 $-1 $243 $235 #
plane-surface $-1 0 0 11.534352893923298 0 0 1 1 0 0 forward_v I I I I #
coedge $-1 $374 $238 $240 $378 reversed $136 $-1 #
coedge $-1 $238 $373 $488 $489 reversed $136 $-1 #
coedge $-1 $246 $241 $238 $376 forward $236 $-1 #
edge $-1 $379 -23.86699146815641 $490 -20.157249604820102 $375 $491 forward 7 unknown #
coedge $-1 $240 $239 $382 $492 reversed $85 $-1 #
edge $-1 $493 -4.5854930756749672 $379 -1.2080531203272332e-014 $373 $494 forward 7 unknown #
vertex $-1 $242 $495 #
straight-curve $-1 -47.260963774529252 -7.1859927204762517 7.8246110305869969 0 -1 0 I I #
coedge $-1 $488 $243 $246 $386 forward $371 $-1 #
coedge $-1 $243 $488 $377 $492 forward $371 $-1 #
vertex $-1 $244 $496 #
straight-curve $-1 -61.865405138170431 -9.9371406384804537 11.534352893923298 -1 0 0 I I #
straight-curve $-1 -47.260963774529259 -9.9371406384804537 7.8246110305869792 0.5877852410284794 0 0.80901700255871778 I I #
edge $-1 $247 9.9371406384804537 $490 18.806830243424553 $246 $497 forward 7 unknown #
point $-1 -47.260963774529252 -9.9371406384804537 11.534352893923298 #
point $-1 -47.260963774529252 -9.9371406384804537 7.8246110305869889 #
edge $-1 $498 1 $498 0 $250 $-1 forward 7 unknown #
vertex $-1 $251 $499 #
ellipse-curve $-1 -44.589085765455359 -14.371985440952503 8.7173686314667886 -0.80901700255871778 0 0.5877852410284794 0.2938926205142397 0 0.40450850127935889 1 I I #
point $-1 -45.619428577655 -14.371985440952503 10.083990463534501 #
plane-surface $-1 -47.260963774529252 0 0 1 0 0 0 0 -1 forward_v I I I I #
coedge $-1 $404 $403 $396 $500 forward $255 $-1 #
coedge $-1 $396 $257 $259 $400 reversed $151 $-1 #
coedge $-1 $257 $395 $394 $500 reversed $151 $-1 #
coedge $-1 $265 $260 $257 $398 forward $266 $-1 #
edge $-1 $401 -23.86699146815641 $501 -20.157249604820102 $397 $502 forward 7 unknown #
coedge $-1 $259 $258 $404 $503 reversed $94 $-1 #
edge $-1 $504 -4.5854930756749672 $401 -1.2080531203272332e-014 $395 $505 forward 7 unknown #
vertex $-1 $261 $506 #
straight-curve $-1 -47.260963774529252 7.8262871184965359 7.8246110305869969 0 -1 0 I I #
coedge $-1 $394 $262 $265 $408 forward $255 $-1 #
coedge $-1 $262 $394 $399 $503 forward $255 $-1 #
vertex $-1 $263 $507 #
straight-curve $-1 -61.865405138170431 20.087419039465122 11.534352893923298 -1 0 0 I I #
straight-curve $-1 -47.260963774529259 20.087419039465122 7.8246110305869792 0.5877852410284794 0 0.80901700255871778 I I #
edge $-1 $267 -20.087419039465122 $501 -11.217729434521022 $265 $508 forward 7 unknown #
point $-1 -47.260963774529252 20.087419039465122 11.534352893923298 #
point $-1 -47.260963774529252 20.087419039465122 7.8246110305869889 #
edge $-1 $509 1 $509 0 $270 $-1 forward 7 unknown #
vertex $-1 $271 $510 #
ellipse-curve $-1 -44.589085765455359 15.652574236993072 8.7173686314667886 -0.80901700255871778 0 0.5877852410284794 0.2938926205142397 0 0.40450850127935889 1 I I #
point $-1 -45.619428577655 15.652574236993072 10.083990463534501 #
plane-surface $-1 47.260963774529252 0 0 -1 0 0 0 0 1 forward_v I I I I #
coedge $-1 $419 $511 $279 $422 reversed $275 $-1 #
coedge $-1 $282 $277 $421 $512 forward $166 $-1 #
coedge $-1 $277 $282 $285 $429 forward $166 $-1 #
coedge $-1 $511 $416 $277 $420 reversed $275 $-1 #
edge $-1 $513 -38.665556551101929 $514 -28.097066049932319 $277 $515 forward 7 unknown #
coedge $-1 $279 $278 $417 $512 reversed $103 $-1 #
edge $-1 $514 82.059791729691909 $424 94.521927549058503 $416 $516 forward 7 unknown #
coedge $-1 $285 $280 $511 $517 forward $286 $-1 #
vertex $-1 $517 $518 #
straight-curve $-1 47.260963774529259 8.2014541511648229 4.9304269625527972 0 1 0 I I #
vertex $-1 $283 $519 #
straight-curve $-1 8.5954072234273262 12.718397565194163 11.534352893923298 1 0 0 I I #
straight-curve $-1 -32.898176515216029 12.718397565194163 55.019417924623482 -0.84804809178421925 0 0.52991927123019833 I I #
edge $-1 $287 12.718397565194163 $513 20.087419039465129 $285 $520 forward 7 unknown #
point $-1 47.260963774529252 12.718397565194163 11.534352893923298 #
point $-1 47.260963774529252 12.718397565194163 4.9304269625528008 #
edge $-1 $521 1 $521 0 $290 $-1 forward 7 unknown #
vertex $-1 $291 $522 #
ellipse-curve $-1 41.150618902565945 16.402908302329646 6.9103542039901935 0.52991927123019833 0 0.84804809178421925 1.2720721376763289 0 -0.79487890684529749 1 I I #
point $-1 43.248790661620788 16.402908302329646 7.4375110213927593 #
plane-surface $-1 47.260963774529252 0 0 -1 0 0 0 0 1 forward_v I I I I #
coedge $-1 $299 $297 $301 $441 reversed $181 $-1 #
edge $-1 $312 -11.534352893923298 $443 11.534352893923298 $311 $523 forward 7 unknown #
vertex $-1 $441 $524 #
straight-curve $-1 -47.260963774529252 -29.040388895092757 0 0 0 -1 I I #
edge $-1 $439 -29.040388895092757 $443 29.040388895092757 $437 $525 forward 7 unknown #
straight-curve $-1 0 -29.040388895092757 -11.534352893923298 -1 0 0 I I #
vertex $-1 $304 $526 #
straight-curve $-1 0 29.040388895092757 -11.534352893923298 1 0 0 I I #
point $-1 47.260963774529252 29.040388895092757 -11.534352893923298 #
point $-1 47.260963774529252 -29.040388895092757 -11.534352893923298 #
straight-curve $-1 -47.260963774529252 0 11.534352893923298 0 -1 0 I I #
point $-1 -47.260963774529252 29.040388895092757 11.534352893923298 #
point $-1 -47.260963774529252 -29.040388895092757 11.534352893923298 #
straight-curve $-1 47.260963774529252 -29.040388895092757 0 0 0 -1 I I #
straight-curve $-1 47.260963774529252 29.040388895092757 0 0 0 -1 I I #
plane-surface $-1 47.260963774529252 0 0 -1 0 0 0 0 1 forward_v I I I I #
coedge $-1 $456 $324 $335 $465 forward $200 $-1 #
coedge $-1 $324 $456 $338 $467 reversed $200 $-1 #
straight-curve $-1 47.260963774529252 -18.806830243424553 -0.22834582656409097 0 0 1 I I #
coedge $-1 $454 $453 $327 $457 forward $200 $-1 #
edge $-1 $460 6.8450254587952255 $458 17.078584110463432 $456 $527 forward 7 unknown #
vertex $-1 $329 $528 #
straight-curve $-1 0 -29.040388895092757 -3.8003409903732535 1 0 0 I I #
vertex $-1 $457 $529 #
straight-curve $-1 0 -18.806830243424553 -3.8003409903732535 1 0 0 I I #
point $-1 47.260963774529252 -29.040388895092757 -3.8003409903732535 #
point $-1 47.260963774529252 -18.806830243424553 -3.8003409903732535 #
straight-curve $-1 -47.260963774529252 -11.961804784629328 2.8869576841168896 0 1 0 I I #
edge $-1 $336 -3.1153035106809805 $460 3.5719951638091625 $453 $530 forward 7 unknown #
point $-1 -47.260963774529252 -18.806830243424553 2.8869576841168896 #
edge $-1 $340 -2.8869576841168896 $458 3.8003409903732535 $454 $531 forward 7 unknown #
point $-1 -47.260963774529252 -29.040388895092757 2.8869576841168896 #
straight-curve $-1 47.260963774529252 -29.040388895092757 0 0 0 -1 I I #
plane-surface $-1 0 29.040388895092757 0 0 -1 0 0 0 -1 forward_v I I I I #
coedge $-1 $358 $473 $348 $472 forward $346 $-1 #
edge $-1 $475 1.2715662363491571 $365 4.2715662363491571 $471 $532 forward 7 unknown #
coedge $-1 $471 $481 $350 $474 forward $346 $-1 #
edge $-1 $477 -16.758436911453288 $475 -7.80546705582565 $473 $533 forward 7 unknown #
vertex $-1 $474 $534 #
straight-curve $-1 0 20.087419039465118 4.0431324726983142 -1 0 0 I I #
vertex $-1 $354 $535 #
straight-curve $-1 0 29.040388895092757 4.0431324726983142 -1 0 0 I I #
point $-1 47.260963774529252 20.087419039465118 4.0431324726983142 #
point $-1 47.260963774529252 29.040388895092754 4.0431324726983142 #
coedge $-1 $473 $358 $361 $483 forward $346 $-1 #
straight-curve $-1 -47.260963774529252 12.281951983639468 7.0431324726983142 0 1 0 I I #
edge $-1 $363 -7.0431324726983142 $477 -4.0431324726983142 $361 $536 forward 7 unknown #
point $-1 -47.260963774529252 29.040388895092754 7.0431324726983142 #
point $-1 -47.260963774529252 20.087419039465118 7.0431324726983142 #
straight-curve $-1 47.260963774529252 20.087419039465118 2.7715662363491571 0 0 -1 I I #
straight-curve $-1 47.260963774529252 29.040388895092757 0 0 0 -1 I I #
coedge $-1 $382 $381 $374 $489 forward $371 $-1 #
edge $-1 $490 14.604441363641179 $493 17.299726516361204 $488 $537 forward 7 unknown #
vertex $-1 $489 $538 #
straight-curve $-1 -47.260963774529252 -18.806830243424553 31.6916024987434 0 0 1 I I #
edge $-1 $493 -11.620837522948301 $383 -2.751147918004202 $382 $539 forward 7 unknown #
vertex $-1 $492 $540 #
straight-curve $-1 -47.260963774529259 -18.806830243424553 7.8246110305869792 -0.5877852410284794 0 -0.80901700255871778 I I #
point $-1 -47.260963774529252 -18.806830243424553 7.8246110305869889 #
point $-1 -44.565678621809226 -9.9371406384804537 11.534352893923298 #
straight-curve $-1 -47.260963774529252 0 11.534352893923298 0 -1 0 I I #
vertex $-1 $389 $541 #
point $-1 -44.295193144941123 -14.371985440952503 9.1218771327461479 #
edge $-1 $501 14.604441363641179 $504 17.299726516361204 $394 $542 forward 7 unknown #
vertex $-1 $500 $543 #
straight-curve $-1 -47.260963774529252 11.217729434521022 31.6916024987434 0 0 1 I I #
edge $-1 $504 3.3914423160244862 $405 12.261131920968586 $404 $544 forward 7 unknown #
vertex $-1 $503 $545 #
straight-curve $-1 -47.260963774529259 11.217729434521022 7.8246110305869792 -0.5877852410284794 0 -0.80901700255871778 I I #
point $-1 -47.260963774529252 11.217729434521022 7.8246110305869889 #
point $-1 -44.565678621809226 20.087419039465122 11.534352893923298 #
straight-curve $-1 -47.260963774529252 0 11.534352893923298 0 -1 0 I I #
vertex $-1 $411 $546 #
point $-1 -44.295193144941123 15.652574236993072 9.1218771327461479 #
coedge $-1 $416 $419 $423 $517 reversed $275 $-1 #
edge $-1 $514 -11.885964888300306 $426 -4.5169434140293401 $417 $547 forward 7 unknown #
vertex $-1 $517 $548 #
vertex $-1 $512 $549 #
straight-curve $-1 8.5954072234273262 20.087419039465129 11.534352893923298 -1 0 0 I I #
straight-curve $-1 -32.898176515216029 20.087419039465129 55.019417924623482 0.84804809178421925 0 -0.52991927123019833 I I #
edge $-1 $424 -62.658852144631588 $513 -56.054926213261083 $423 $550 forward 7 unknown #
point $-1 47.260963774529252 20.087419039465118 4.9304269625527937 #
point $-1 36.692473273359646 12.718397565194163 11.534352893923298 #
straight-curve $-1 47.260963774529252 0 11.534352893923298 0 1 0 I I #
vertex $-1 $432 $551 #
point $-1 42.42269104024227 16.402908302329646 6.1154752971448962 #
straight-curve $-1 -47.260963774529252 29.040388895092757 0 0 0 -1 I I #
point $-1 -47.260963774529252 -29.040388895092757 -11.534352893923298 #
straight-curve $-1 -47.260963774529252 0 -11.534352893923298 0 1 0 I I #
point $-1 -47.260963774529252 29.040388895092757 -11.534352893923298 #
straight-curve $-1 -47.260963774529252 -11.961804784629328 -3.8003409903732535 0 -1 0 I I #
point $-1 -47.260963774529252 -29.040388895092757 -3.8003409903732535 #
point $-1 -47.260963774529252 -18.806830243424553 -3.8003409903732535 #
straight-curve $-1 -47.260963774529252 -18.806830243424553 -0.22834582656409097 0 0 -1 I I #
straight-curve $-1 -47.260963774529252 -29.040388895092757 0 0 0 -1 I I #
straight-curve $-1 -47.260963774529252 20.087419039465118 2.7715662363491571 0 0 1 I I #
straight-curve $-1 -47.260963774529252 12.281951983639468 4.0431324726983142 0 -1 0 I I #
point $-1 -47.260963774529252 20.087419039465118 4.0431324726983142 #
point $-1 -47.260963774529252 29.040388895092754 4.0431324726983142 #
straight-curve $-1 -47.260963774529252 29.040388895092757 0 0 0 -1 I I #
straight-curve $-1 -61.865405138170431 -18.806830243424553 11.534352893923298 1 0 0 I I #
point $-1 -47.260963774529252 -18.806830243424553 11.534352893923298 #
straight-curve $-1 -44.565678621809226 -7.1859927204762517 11.534352893923298 0 1 0 I I #
point $-1 -44.565678621809226 -18.806830243424553 11.534352893923298 #
point $-1 -44.184577264176006 -14.371985440952503 8.4234760109525499 #
straight-curve $-1 -61.865405138170431 11.217729434521022 11.534352893923298 1 0 0 I I #
point $-1 -47.260963774529252 11.217729434521022 11.534352893923298 #
straight-curve $-1 -44.565678621809226 7.8262871184965359 11.534352893923298 0 1 0 I I #
point $-1 -44.565678621809226 11.217729434521022 11.534352893923298 #
point $-1 -44.184577264176006 15.652574236993072 8.4234760109525499 #
straight-curve $-1 36.692473273359646 8.2014541511648229 11.534352893923298 0 -1 0 I I #
point $-1 47.260963774529252 20.087419039465129 11.534352893923298 #
point $-1 36.692473273359646 20.087419039465129 11.534352893923298 #
straight-curve $-1 47.260963774529252 20.087419039465129 67.589279107184382 0 0 1 I I #
point $-1 40.355739995720647 16.402908302329646 5.6382820663138649 #
End-of-ACIS-data 