500 0 5 0           
7 Unknown 11 ACIS 5.0 NT 24 Thu Mar 25 17:43:21 1999 
-1 9.9999999999999995e-007 1e-010 
body $-1 $5 $-1 $6 #
body $-1 $7 $-1 $8 #
body $-1 $9 $-1 $10 #
body $-1 $11 $-1 $12 #
body $-1 $13 $-1 $14 #
lump $-1 $-1 $15 $0 #
transform $-1 1 0 0 0 1 0 0 0 1 71.395001068147835 45.217197154663069 15.80552657645341 1 rotate no_reflect no_shear #
lump $-1 $-1 $16 $1 #
transform $-1 1 0 0 0 1 0 0 0 1 71.395001068147835 45.217197154663069 15.80552657645341 1 rotate no_reflect no_shear #
lump $-1 $-1 $17 $2 #
transform $-1 1 0 0 0 1 0 0 0 1 71.395001068147835 45.217197154663069 15.80552657645341 1 rotate no_reflect no_shear #
lump $-1 $-1 $18 $3 #
transform $-1 1 0 0 0 1 0 0 0 1 71.395001068147835 45.217197154663069 15.80552657645341 1 rotate no_reflect no_shear #
lump $-1 $-1 $19 $4 #
transform $-1 1 0 0 0 1 0 0 0 1 71.395001068147835 45.217197154663069 15.80552657645341 1 rotate no_reflect no_shear #
shell $-1 $-1 $-1 $20 $-1 $5 #
shell $-1 $-1 $-1 $21 $-1 $7 #
shell $-1 $-1 $-1 $22 $-1 $9 #
shell $-1 $-1 $-1 $23 $-1 $11 #
shell $-1 $-1 $-1 $24 $-1 $13 #
face $-1 $25 $26 $15 $-1 $27 forward single #
face $-1 $28 $29 $16 $-1 $30 forward single #
face $-1 $31 $32 $17 $-1 $33 forward single #
face $-1 $34 $35 $18 $-1 $36 reversed single #
face $-1 $37 $38 $19 $-1 $39 forward single #
face $-1 $40 $41 $15 $-1 $42 reversed single #
loop $-1 $-1 $43 $20 #
plane-surface $-1 0 0 15.80552657645341 0 0 1 1 0 0 forward_v I I I I #
face $-1 $44 $45 $16 $-1 $46 reversed single #
loop $-1 $-1 $47 $21 #
plane-surface $-1 -61.123169411514098 0 7.0033524176252779 0 0 1 1 0 0 forward_v I I I I #
face $-1 $48 $49 $17 $-1 $50 reversed single #
loop $-1 $-1 $51 $22 #
plane-surface $-1 61.123169411514098 0 7.0033524176252779 0 0 1 1 0 0 forward_v I I I I #
face $-1 $52 $53 $18 $-1 $54 reversed single #
loop $-1 $-1 $55 $23 #
plane-surface $-1 -15.973697298301612 -146.18497712236319 109.53267280737205 1 0 0 0 0.70710678939079041 -0.70710677298230451 forward_v I I I I #
face $-1 $56 $57 $19 $-1 $58 forward single #
loop $-1 $59 $60 $24 #
cone-surface $-1 -0.997639237802602 -40.313555119402515 10.901884486962782 0 0.70710678939079041 -0.70710677298230451 2.5 0 0 1 I I 0 1 2.5 forward I I I I #
face $-1 $61 $62 $15 $-1 $63 reversed single #
loop $-1 $-1 $64 $25 #
plane-surface $-1 0 0 -15.80552657645341 0 0 1 1 0 0 forward_v I I I I #
coedge $-1 $65 $66 $67 $68 forward $26 $-1 #
face $-1 $69 $70 $16 $-1 $71 reversed single #
loop $-1 $-1 $72 $28 #
plane-surface $-1 -61.123169411514098 0 2.6971218210302244 0 0 1 1 0 0 forward_v I I I I #
coedge $-1 $73 $74 $75 $76 forward $29 $-1 #
face $-1 $77 $78 $17 $-1 $79 reversed single #
loop $-1 $-1 $80 $31 #
plane-surface $-1 61.123169411514098 0 2.6971218210302244 0 0 1 1 0 0 forward_v I I I I #
coedge $-1 $81 $82 $83 $84 reversed $32 $-1 #
face $-1 $85 $86 $18 $-1 $87 reversed single #
loop $-1 $-1 $88 $34 #
plane-surface $-1 -0.997639237802602 -45.217197154663054 8.5648951826396598 0 -0.70710678939079041 0.70710677298230451 1 0 0 forward_v I I I I #
coedge $-1 $89 $90 $91 $92 reversed $35 $-1 #
face $-1 $-1 $93 $19 $-1 $94 forward single #
loop $-1 $95 $96 $37 #
cone-surface $-1 -0.997639237802602 -38.146345210300566 8.7346746281511614 0 0.70710678939079041 -0.70710677298230451 1.25 0 0 1 I I -0.70710678118654746 0.70710678118654746 1.25 forward I I I I #
loop $-1 $-1 $97 $24 #
coedge $-1 $60 $60 $98 $99 reversed $38 $-1 #
face $-1 $100 $101 $15 $-1 $102 reversed single #
loop $-1 $-1 $103 $40 #
plane-surface $-1 0 -45.217197154663069 0 0 1 0 0 0 1 forward_v I I I I #
coedge $-1 $104 $105 $106 $107 forward $41 $-1 #
coedge $-1 $108 $43 $109 $110 forward $26 $-1 #
coedge $-1 $43 $108 $111 $112 forward $26 $-1 #
coedge $-1 $113 $114 $43 $68 reversed $115 $-1 #
edge $-1 $116 -45.217197154663069 $117 45.217197154663069 $67 $118 forward 7 unknown #
face $-1 $119 $120 $16 $-1 $121 reversed single #
loop $-1 $-1 $122 $44 #
plane-surface $-1 -50.851337754880362 0 4.8502371193277511 -1 0 0 0 0 1 forward_v I I I I #
coedge $-1 $123 $124 $125 $126 forward $45 $-1 #
coedge $-1 $127 $47 $128 $129 reversed $29 $-1 #
coedge $-1 $47 $127 $130 $131 reversed $29 $-1 #
coedge $-1 $122 $132 $47 $76 reversed $70 $-1 #
edge $-1 $133 -45.217197154663069 $134 45.217197154663069 $75 $135 forward 7 unknown #
face $-1 $136 $137 $17 $-1 $138 reversed single #
loop $-1 $-1 $139 $48 #
plane-surface $-1 50.851337754880362 0 4.8502371193277511 1 0 0 0 0 -1 forward_v I I I I #
coedge $-1 $140 $141 $142 $143 reversed $49 $-1 #
coedge $-1 $144 $51 $145 $146 reversed $32 $-1 #
coedge $-1 $51 $144 $147 $148 reversed $32 $-1 #
coedge $-1 $149 $150 $51 $84 forward $151 $-1 #
edge $-1 $152 -45.217197154663069 $153 45.217197154663069 $83 $154 forward 7 unknown #
face $-1 $155 $156 $18 $-1 $157 forward single #
loop $-1 $-1 $158 $52 #
plane-surface $-1 13.978418822696408 -146.18497712236319 109.53267280737205 -1 0 0 0 -0.70710678939079041 0.70710677298230451 forward_v I I I I #
coedge $-1 $159 $160 $161 $162 reversed $53 $-1 #
coedge $-1 $90 $55 $163 $164 reversed $35 $-1 #
coedge $-1 $55 $89 $159 $165 reversed $35 $-1 #
coedge $-1 $161 $166 $55 $92 forward $167 $-1 #
edge $-1 $168 38.960809827232616 $169 46.20144122104638 $91 $170 forward 7 unknown #
loop $-1 $-1 $98 $56 #
plane-surface $-1 -0.997639237802602 -45.217197154663054 8.5648951826396598 0 -0.70710678939079041 0.70710677298230451 1 0 0 forward_v I I I I #
loop $-1 $-1 $171 $37 #
coedge $-1 $96 $96 $97 $172 reversed $57 $-1 #
coedge $-1 $97 $97 $96 $172 forward $59 $-1 #
coedge $-1 $98 $98 $60 $99 forward $93 $-1 #
edge $-1 $173 -2.512147963041366e-015 $173 6.2831853071795978 $98 $174 forward 7 unknown #
face $-1 $175 $176 $15 $-1 $177 reversed single #
loop $-1 $-1 $178 $61 #
plane-surface $-1 -71.395001068147835 0 0 1 0 0 0 0 -1 forward_v I I I I #
coedge $-1 $179 $111 $180 $181 forward $62 $-1 #
coedge $-1 $182 $64 $179 $183 forward $41 $-1 #
coedge $-1 $64 $182 $184 $185 forward $41 $-1 #
coedge $-1 $114 $113 $64 $107 reversed $115 $-1 #
edge $-1 $186 -45.217197154663069 $187 45.217197154663069 $106 $188 forward 7 unknown #
coedge $-1 $66 $65 $189 $190 forward $26 $-1 #
coedge $-1 $191 $192 $65 $110 reversed $176 $-1 #
edge $-1 $117 -71.395001068147835 $193 71.395001068147835 $109 $194 forward 7 unknown #
coedge $-1 $103 $195 $66 $112 reversed $62 $-1 #
edge $-1 $196 -71.395001068147835 $116 71.395001068147835 $111 $197 forward 7 unknown #
coedge $-1 $106 $67 $195 $198 forward $115 $-1 #
coedge $-1 $67 $106 $191 $199 reversed $115 $-1 #
loop $-1 $-1 $113 $175 #
vertex $-1 $68 $200 #
vertex $-1 $68 $201 #
straight-curve $-1 71.395001068147835 0 15.80552657645341 0 1 0 I I #
face $-1 $202 $203 $16 $-1 $204 reversed single #
loop $-1 $-1 $205 $69 #
plane-surface $-1 0 -45.217197154663069 0 0 1 0 0 0 1 forward_v I I I I #
coedge $-1 $125 $75 $206 $207 reversed $70 $-1 #
coedge $-1 $208 $72 $205 $209 reversed $45 $-1 #
coedge $-1 $72 $208 $210 $211 reversed $45 $-1 #
coedge $-1 $132 $122 $72 $126 reversed $70 $-1 #
edge $-1 $212 -45.217197154663069 $213 45.217197154663069 $125 $214 forward 7 unknown #
coedge $-1 $74 $73 $215 $216 reversed $29 $-1 #
coedge $-1 $217 $218 $73 $129 forward $219 $-1 #
edge $-1 $220 -40.833416362390786 $134 -20.289753049123313 $128 $221 forward 7 unknown #
coedge $-1 $222 $206 $74 $131 forward $120 $-1 #
edge $-1 $133 20.289753049123313 $223 40.833416362390786 $130 $224 forward 7 unknown #
coedge $-1 $75 $125 $217 $225 reversed $70 $-1 #
vertex $-1 $131 $226 #
vertex $-1 $129 $227 #
straight-curve $-1 -50.851337754880362 0 7.0033524176252779 0 1 0 I I #
face $-1 $228 $229 $17 $-1 $230 reversed single #
loop $-1 $-1 $147 $77 #
plane-surface $-1 0 -45.217197154663069 0 0 1 0 0 0 1 forward_v I I I I #
coedge $-1 $231 $232 $233 $234 reversed $78 $-1 #
coedge $-1 $235 $80 $236 $237 reversed $49 $-1 #
coedge $-1 $80 $235 $238 $239 reversed $49 $-1 #
coedge $-1 $150 $149 $80 $143 forward $151 $-1 #
edge $-1 $240 -45.217197154663069 $241 45.217197154663069 $142 $242 forward 7 unknown #
coedge $-1 $82 $81 $232 $243 forward $32 $-1 #
coedge $-1 $244 $233 $81 $146 forward $229 $-1 #
edge $-1 $245 20.289753049123313 $152 40.833416362390786 $145 $246 forward 7 unknown #
coedge $-1 $247 $248 $82 $148 forward $137 $-1 #
edge $-1 $153 -40.833416362390786 $249 -20.289753049123313 $147 $250 forward 7 unknown #
coedge $-1 $142 $83 $248 $251 forward $151 $-1 #
coedge $-1 $83 $142 $244 $252 reversed $151 $-1 #
loop $-1 $-1 $83 $228 #
vertex $-1 $252 $253 #
vertex $-1 $251 $254 #
straight-curve $-1 71.395001068147835 0 7.0033524176252779 0 -1 0 I I #
face $-1 $-1 $167 $18 $-1 $255 reversed single #
loop $-1 $-1 $256 $85 #
plane-surface $-1 0 0 15.80552657645341 0 0 1 1 0 0 forward_v I I I I #
coedge $-1 $257 $258 $259 $260 reversed $86 $-1 #
coedge $-1 $261 $88 $90 $165 forward $53 $-1 #
coedge $-1 $88 $261 $257 $262 forward $53 $-1 #
coedge $-1 $259 $91 $88 $162 forward $167 $-1 #
edge $-1 $169 -15.474877679400311 $263 14.477238441597709 $161 $264 forward 7 unknown #
coedge $-1 $265 $266 $89 $164 forward $156 $-1 #
edge $-1 $267 -35.115922632312696 $168 -27.875291406518528 $163 $268 forward 7 unknown #
edge $-1 $169 -2.0097183471152325e-014 $267 10.23979899846802 $90 $269 forward 7 unknown #
coedge $-1 $91 $259 $265 $270 reversed $167 $-1 #
loop $-1 $-1 $259 $155 #
vertex $-1 $270 $271 #
vertex $-1 $92 $272 #
straight-curve $-1 -15.973697298301612 -45.217197154663069 54.766336403686026 0 0 -1 I I #
coedge $-1 $171 $171 $-1 $273 reversed $95 $-1 #
edge $-1 $274 0 $274 6.2831853071796004 $96 $275 forward 7 unknown #
vertex $-1 $99 $276 #
ellipse-curve $-1 -0.997639237802602 -41.596881541765981 12.185210879546529 0 -0.70710678939079041 0.70710677298230451 2.5 0 0 1 I I #
face $-1 $-1 $115 $15 $-1 $277 reversed single #
loop $-1 $-1 $191 $100 #
plane-surface $-1 0 45.217197154663069 0 0 -1 0 0 0 -1 forward_v I I I I #
coedge $-1 $278 $189 $192 $279 forward $101 $-1 #
coedge $-1 $195 $103 $104 $183 reversed $62 $-1 #
coedge $-1 $189 $278 $103 $181 reversed $101 $-1 #
edge $-1 $196 -15.80552657645341 $280 15.80552657645341 $180 $281 forward 7 unknown #
coedge $-1 $105 $104 $278 $282 forward $41 $-1 #
edge $-1 $187 -71.395001068147835 $280 71.395001068147835 $179 $283 forward 7 unknown #
coedge $-1 $192 $191 $105 $185 reversed $176 $-1 #
edge $-1 $284 -71.395001068147835 $186 71.395001068147835 $184 $285 forward 7 unknown #
vertex $-1 $107 $286 #
vertex $-1 $198 $287 #
straight-curve $-1 71.395001068147835 0 -15.80552657645341 0 -1 0 I I #
coedge $-1 $178 $180 $108 $190 reversed $101 $-1 #
edge $-1 $193 -45.217197154663069 $196 45.217197154663069 $189 $288 forward 7 unknown #
coedge $-1 $184 $109 $114 $199 forward $176 $-1 #
coedge $-1 $109 $184 $178 $279 reversed $176 $-1 #
vertex $-1 $110 $289 #
straight-curve $-1 0 45.217197154663069 15.80552657645341 -1 0 0 I I #
coedge $-1 $111 $179 $113 $198 reversed $62 $-1 #
vertex $-1 $190 $290 #
straight-curve $-1 0 -45.217197154663069 15.80552657645341 1 0 0 I I #
edge $-1 $116 -15.80552657645341 $187 15.80552657645341 $113 $291 forward 7 unknown #
edge $-1 $117 -15.80552657645341 $186 15.80552657645341 $114 $292 forward 7 unknown #
point $-1 71.395001068147835 -45.217197154663069 15.80552657645341 #
point $-1 71.395001068147835 45.217197154663069 15.80552657645341 #
face $-1 $-1 $219 $16 $-1 $293 reversed single #
loop $-1 $-1 $294 $119 #
plane-surface $-1 -71.395001068147835 0 0 1 0 0 0 0 -1 forward_v I I I I #
coedge $-1 $206 $222 $123 $209 forward $120 $-1 #
coedge $-1 $130 $205 $122 $207 forward $120 $-1 #
edge $-1 $213 0.27200326136634878 $133 4.5782338579614024 $206 $295 forward 7 unknown #
coedge $-1 $124 $123 $294 $296 reversed $45 $-1 #
edge $-1 $297 -40.833416362390786 $213 -20.289753049123313 $205 $298 forward 7 unknown #
coedge $-1 $218 $217 $124 $211 forward $219 $-1 #
edge $-1 $212 20.289753049123313 $299 40.833416362390786 $210 $300 forward 7 unknown #
vertex $-1 $211 $301 #
vertex $-1 $209 $302 #
straight-curve $-1 -50.851337754880362 0 2.6971218210302244 0 -1 0 I I #
coedge $-1 $303 $304 $127 $216 forward $203 $-1 #
edge $-1 $223 -45.217197154663069 $220 45.217197154663069 $215 $305 forward 7 unknown #
coedge $-1 $210 $128 $132 $225 forward $219 $-1 #
coedge $-1 $128 $210 $303 $306 reversed $219 $-1 #
loop $-1 $-1 $210 $202 #
vertex $-1 $306 $307 #
straight-curve $-1 -30.561584705757049 45.217197154663069 7.0033524176252779 1 0 0 I I #
coedge $-1 $205 $130 $304 $308 forward $120 $-1 #
vertex $-1 $308 $309 #
straight-curve $-1 -30.561584705757049 -45.217197154663069 7.0033524176252779 -1 0 0 I I #
edge $-1 $134 -4.5782338579614024 $212 -0.27200326136634878 $217 $310 forward 7 unknown #
point $-1 -50.851337754880362 -45.217197154663069 7.0033524176252779 #
point $-1 -50.851337754880362 45.217197154663069 7.0033524176252779 #
face $-1 $-1 $151 $17 $-1 $311 reversed single #
loop $-1 $-1 $145 $136 #
plane-surface $-1 0 45.217197154663069 0 0 -1 0 0 0 -1 forward_v I I I I #
coedge $-1 $312 $139 $235 $313 reversed $78 $-1 #
coedge $-1 $139 $312 $144 $243 reversed $78 $-1 #
coedge $-1 $145 $238 $139 $234 forward $229 $-1 #
edge $-1 $314 0.27200326136634878 $245 4.5782338579614024 $233 $315 forward 7 unknown #
coedge $-1 $141 $140 $231 $313 forward $49 $-1 #
coedge $-1 $248 $247 $140 $237 forward $137 $-1 #
edge $-1 $316 20.289753049123313 $240 40.833416362390786 $236 $317 forward 7 unknown #
coedge $-1 $233 $244 $141 $239 forward $229 $-1 #
edge $-1 $241 -40.833416362390786 $314 -20.289753049123313 $238 $318 forward 7 unknown #
vertex $-1 $143 $319 #
vertex $-1 $143 $320 #
straight-curve $-1 71.395001068147835 0 2.6971218210302244 0 1 0 I I #
edge $-1 $245 -45.217197154663069 $249 45.217197154663069 $232 $321 forward 7 unknown #
coedge $-1 $238 $145 $150 $252 forward $229 $-1 #
vertex $-1 $146 $322 #
straight-curve $-1 30.561584705757049 45.217197154663069 7.0033524176252779 1 0 0 I I #
coedge $-1 $236 $147 $312 $323 forward $137 $-1 #
coedge $-1 $147 $236 $149 $251 reversed $137 $-1 #
vertex $-1 $148 $324 #
straight-curve $-1 30.561584705757049 -45.217197154663069 7.0033524176252779 -1 0 0 I I #
edge $-1 $153 -7.0033524176252779 $240 -2.6971218210302244 $149 $325 forward 7 unknown #
edge $-1 $152 -7.0033524176252779 $241 -2.6971218210302244 $150 $326 forward 7 unknown #
point $-1 71.395001068147835 45.217197154663069 7.0033524176252779 #
point $-1 71.395001068147835 -45.217197154663069 7.0033524176252779 #
plane-surface $-1 0 -45.217197154663069 0 0 1 0 0 0 1 forward_v I I I I #
coedge $-1 $266 $265 $258 $327 forward $156 $-1 #
coedge $-1 $258 $158 $160 $262 reversed $86 $-1 #
coedge $-1 $158 $257 $256 $327 reversed $86 $-1 #
coedge $-1 $166 $161 $158 $260 forward $167 $-1 #
edge $-1 $263 -46.20144122104638 $328 -38.960809827232616 $259 $329 forward 7 unknown #
coedge $-1 $160 $159 $266 $330 reversed $53 $-1 #
edge $-1 $331 -10.23979899846802 $263 2.0097183471152325e-014 $257 $332 forward 7 unknown #
vertex $-1 $162 $333 #
straight-curve $-1 -0.498819618901301 -45.217197154663069 8.5648951826396456 1 0 0 I I #
coedge $-1 $256 $163 $166 $270 forward $156 $-1 #
coedge $-1 $163 $256 $261 $330 forward $156 $-1 #
vertex $-1 $164 $334 #
straight-curve $-1 -15.973697298301612 -73.092488561181597 15.80552657645341 0 -1 0 I I #
straight-curve $-1 -15.973697298301612 -45.217197154663054 8.5648951826396598 0 0.70710677298230451 0.70710678939079041 I I #
edge $-1 $168 -15.973697298301612 $328 13.978418822696408 $166 $335 forward 7 unknown #
point $-1 -15.973697298301612 -45.217197154663069 15.80552657645341 #
point $-1 -15.973697298301612 -45.217197154663069 8.5648951826396456 #
edge $-1 $336 1 $336 0 $171 $-1 forward 7 unknown #
vertex $-1 $172 $337 #
ellipse-curve $-1 -0.997639237802602 -39.030228697039057 9.6185580943790416 0 -0.70710678939079041 0.70710677298230451 2.5 0 0 1 I I #
point $-1 1.502360762197398 -41.596881541765981 12.185210879546521 #
plane-surface $-1 71.395001068147835 0 0 -1 0 0 0 0 1 forward_v I I I I #
coedge $-1 $180 $178 $182 $282 reversed $101 $-1 #
edge $-1 $193 -15.80552657645341 $284 15.80552657645341 $192 $338 forward 7 unknown #
vertex $-1 $282 $339 #
straight-curve $-1 -71.395001068147835 -45.217197154663069 0 0 0 -1 I I #
edge $-1 $280 -45.217197154663069 $284 45.217197154663069 $278 $340 forward 7 unknown #
straight-curve $-1 0 -45.217197154663069 -15.80552657645341 -1 0 0 I I #
vertex $-1 $185 $341 #
straight-curve $-1 0 45.217197154663069 -15.80552657645341 1 0 0 I I #
point $-1 71.395001068147835 45.217197154663069 -15.80552657645341 #
point $-1 71.395001068147835 -45.217197154663069 -15.80552657645341 #
straight-curve $-1 -71.395001068147835 0 15.80552657645341 0 -1 0 I I #
point $-1 -71.395001068147835 45.217197154663069 15.80552657645341 #
point $-1 -71.395001068147835 -45.217197154663069 15.80552657645341 #
straight-curve $-1 71.395001068147835 -45.217197154663069 0 0 0 -1 I I #
straight-curve $-1 71.395001068147835 45.217197154663069 0 0 0 -1 I I #
plane-surface $-1 0 45.217197154663069 0 0 -1 0 0 0 -1 forward_v I I I I #
coedge $-1 $304 $303 $208 $296 forward $203 $-1 #
straight-curve $-1 -50.851337754880362 -45.217197154663069 2.4251185596638756 0 0 1 I I #
edge $-1 $299 -45.217197154663069 $297 45.217197154663069 $294 $342 forward 7 unknown #
vertex $-1 $209 $343 #
straight-curve $-1 -30.561584705757049 -45.217197154663069 2.6971218210302244 1 0 0 I I #
vertex $-1 $211 $344 #
straight-curve $-1 -30.561584705757049 45.217197154663069 2.6971218210302244 -1 0 0 I I #
point $-1 -50.851337754880362 45.217197154663069 2.6971218210302244 #
point $-1 -50.851337754880362 -45.217197154663069 2.6971218210302244 #
coedge $-1 $294 $215 $218 $306 forward $203 $-1 #
coedge $-1 $215 $294 $222 $308 reversed $203 $-1 #
straight-curve $-1 -71.395001068147835 0 7.0033524176252779 0 1 0 I I #
edge $-1 $220 -7.0033524176252779 $299 -2.6971218210302244 $218 $345 forward 7 unknown #
point $-1 -71.395001068147835 45.217197154663069 7.0033524176252779 #
edge $-1 $223 -7.0033524176252779 $297 -2.6971218210302244 $304 $346 forward 7 unknown #
point $-1 -71.395001068147835 -45.217197154663069 7.0033524176252779 #
straight-curve $-1 -50.851337754880362 45.217197154663069 2.4251185596638756 0 0 -1 I I #
plane-surface $-1 71.395001068147835 0 0 -1 0 0 0 0 1 forward_v I I I I #
coedge $-1 $232 $231 $247 $323 reversed $78 $-1 #
edge $-1 $316 -45.217197154663069 $314 45.217197154663069 $231 $347 forward 7 unknown #
vertex $-1 $239 $348 #
straight-curve $-1 50.851337754880362 45.217197154663069 2.4251185596638756 0 0 1 I I #
vertex $-1 $237 $349 #
straight-curve $-1 30.561584705757049 -45.217197154663069 2.6971218210302244 1 0 0 I I #
straight-curve $-1 30.561584705757049 45.217197154663069 2.6971218210302244 -1 0 0 I I #
point $-1 71.395001068147835 -45.217197154663069 2.6971218210302244 #
point $-1 71.395001068147835 45.217197154663069 2.6971218210302244 #
straight-curve $-1 50.851337754880362 0 7.0033524176252779 0 -1 0 I I #
point $-1 50.851337754880362 45.217197154663069 7.0033524176252779 #
edge $-1 $249 -4.5782338579614024 $316 -0.27200326136634878 $247 $350 forward 7 unknown #
point $-1 50.851337754880362 -45.217197154663069 7.0033524176252779 #
straight-curve $-1 71.395001068147835 -45.217197154663069 0 0 0 -1 I I #
straight-curve $-1 71.395001068147835 45.217197154663069 0 0 0 -1 I I #
edge $-1 $328 27.875291406518528 $331 35.115922632312696 $256 $351 forward 7 unknown #
vertex $-1 $327 $352 #
straight-curve $-1 13.978418822696408 -45.217197154663069 54.766336403686026 0 0 1 I I #
edge $-1 $331 -14.477238441597709 $267 15.474877679400311 $266 $353 forward 7 unknown #
vertex $-1 $330 $354 #
straight-curve $-1 13.978418822696408 -45.217197154663054 8.5648951826396598 0 -0.70710677298230451 -0.70710678939079041 I I #
point $-1 13.978418822696408 -45.217197154663069 8.5648951826396456 #
point $-1 -15.973697298301612 -37.976565928868901 15.80552657645341 #
straight-curve $-1 0 -45.217197154663069 15.80552657645341 1 0 0 I I #
vertex $-1 $273 $355 #
point $-1 1.502360762197398 -39.030228697039057 9.6185580943790416 #
straight-curve $-1 -71.395001068147835 45.217197154663069 0 0 0 -1 I I #
point $-1 -71.395001068147835 -45.217197154663069 -15.80552657645341 #
straight-curve $-1 -71.395001068147835 0 -15.80552657645341 0 1 0 I I #
point $-1 -71.395001068147835 45.217197154663069 -15.80552657645341 #
straight-curve $-1 -71.395001068147835 0 2.6971218210302244 0 -1 0 I I #
point $-1 -71.395001068147835 -45.217197154663069 2.6971218210302244 #
point $-1 -71.395001068147835 45.217197154663069 2.6971218210302244 #
straight-curve $-1 -71.395001068147835 45.217197154663069 0 0 0 -1 I I #
straight-curve $-1 -71.395001068147835 -45.217197154663069 0 0 0 -1 I I #
straight-curve $-1 50.851337754880362 0 2.6971218210302244 0 1 0 I I #
point $-1 50.851337754880362 45.217197154663069 2.6971218210302244 #
point $-1 50.851337754880362 -45.217197154663069 2.6971218210302244 #
straight-curve $-1 50.851337754880362 -45.217197154663069 2.4251185596638756 0 0 -1 I I #
straight-curve $-1 13.978418822696408 -73.092488561181597 15.80552657645341 0 1 0 I I #
point $-1 13.978418822696408 -45.217197154663069 15.80552657645341 #
straight-curve $-1 -0.498819618901301 -37.976565928868901 15.80552657645341 -1 0 0 I I #
point $-1 13.978418822696408 -37.976565928868901 15.80552657645341 #
point $-1 -0.997639237802602 -37.262461723562076 7.8507911619232811 #
End-of-ACIS-data 