500 0 10 0           
7 Unknown 11 ACIS 5.0 NT 24 Thu Mar 25 16:36:17 1999 
-1 9.9999999999999995e-007 1e-010 
body $-1 $10 $-1 $11 #
body $-1 $12 $-1 $13 #
body $-1 $14 $-1 $15 #
body $-1 $16 $-1 $17 #
body $-1 $18 $-1 $19 #
body $-1 $20 $-1 $21 #
body $-1 $22 $-1 $23 #
body $-1 $24 $-1 $25 #
body $-1 $26 $-1 $27 #
body $-1 $28 $-1 $29 #
lump $-1 $-1 $30 $0 #
transform $-1 1 0 0 0 1 0 0 0 1 63.275856807153538 30.64593012354397 11.16813001490069 1 rotate no_reflect no_shear #
lump $-1 $-1 $31 $1 #
transform $-1 1 0 0 0 1 0 0 0 1 63.275856807153538 30.64593012354397 11.16813001490069 1 rotate no_reflect no_shear #
lump $-1 $-1 $32 $2 #
transform $-1 1 0 0 0 1 0 0 0 1 63.275856807153538 30.64593012354397 11.16813001490069 1 rotate no_reflect no_shear #
lump $-1 $-1 $33 $3 #
transform $-1 1 0 0 0 1 0 0 0 1 63.275856807153538 30.64593012354397 11.16813001490069 1 rotate no_reflect no_shear #
lump $-1 $-1 $34 $4 #
transform $-1 1 0 0 0 1 0 0 0 1 63.275856807153538 30.64593012354397 11.16813001490069 1 rotate no_reflect no_shear #
lump $-1 $-1 $35 $5 #
transform $-1 1 0 0 0 1 0 0 0 1 63.275856807153538 30.64593012354397 11.16813001490069 1 rotate no_reflect no_shear #
lump $-1 $-1 $36 $6 #
transform $-1 1 0 0 0 1 0 0 0 1 63.275856807153538 30.64593012354397 11.16813001490069 1 rotate no_reflect no_shear #
lump $-1 $-1 $37 $7 #
transform $-1 1 0 0 0 1 0 0 0 1 63.275856807153538 30.64593012354397 11.16813001490069 1 rotate no_reflect no_shear #
lump $-1 $-1 $38 $8 #
transform $-1 1 0 0 0 1 0 0 0 1 63.275856807153538 30.64593012354397 11.16813001490069 1 rotate no_reflect no_shear #
lump $-1 $-1 $39 $9 #
transform $-1 1 0 0 0 1 0 0 0 1 63.275856807153538 30.64593012354397 11.16813001490069 1 rotate no_reflect no_shear #
shell $-1 $-1 $-1 $40 $-1 $10 #
shell $-1 $-1 $-1 $41 $-1 $12 #
shell $-1 $-1 $-1 $42 $-1 $14 #
shell $-1 $-1 $-1 $43 $-1 $16 #
shell $-1 $-1 $-1 $44 $-1 $18 #
shell $-1 $-1 $-1 $45 $-1 $20 #
shell $-1 $-1 $-1 $46 $-1 $22 #
shell $-1 $-1 $-1 $47 $-1 $24 #
shell $-1 $-1 $-1 $48 $-1 $26 #
shell $-1 $-1 $-1 $49 $-1 $28 #
face $-1 $50 $51 $30 $-1 $52 forward single #
face $-1 $53 $54 $31 $-1 $55 forward single #
face $-1 $56 $57 $32 $-1 $58 reversed single #
face $-1 $59 $60 $33 $-1 $61 forward single #
face $-1 $62 $63 $34 $-1 $64 reversed single #
face $-1 $65 $66 $35 $-1 $67 forward single #
face $-1 $68 $69 $36 $-1 $70 reversed single #
face $-1 $71 $72 $37 $-1 $73 forward single #
face $-1 $74 $75 $38 $-1 $76 reversed single #
face $-1 $77 $78 $39 $-1 $79 forward single #
face $-1 $80 $81 $30 $-1 $82 reversed single #
loop $-1 $-1 $83 $40 #
plane-surface $-1 0 0 11.16813001490069 0 0 1 1 0 0 forward_v I I I I #
face $-1 $84 $85 $31 $-1 $86 reversed single #
loop $-1 $-1 $87 $41 #
plane-surface $-1 -58.881666123560095 0 10.412050687293137 0 0 1 1 0 0 forward_v I I I I #
face $-1 $88 $89 $32 $-1 $90 reversed single #
loop $-1 $-1 $91 $42 #
plane-surface $-1 -23.261150695550324 -135.56205660281299 71.330688105003304 1 0 0 0 0.82903758062907751 -0.55919289150049634 forward_v I I I I #
face $-1 $92 $93 $33 $-1 $94 forward single #
loop $-1 $95 $96 $43 #
cone-surface $-1 -16.708011380504921 -26.199800722664136 5.2793139415257455 0 0.82903758062907751 -0.55919289150049634 2 0 0 1 I I 0 1 2 forward I I I I #
face $-1 $97 $98 $34 $-1 $99 reversed single #
loop $-1 $-1 $100 $44 #
plane-surface $-1 35.620515428009767 -135.56205660281299 71.330688105003304 1 0 0 0 0.82903758062907751 -0.55919289150049634 forward_v I I I I #
face $-1 $101 $102 $35 $-1 $103 forward single #
loop $-1 $104 $105 $45 #
cone-surface $-1 42.173654743055174 -26.199800722664136 5.2793139415257455 0 0.82903758062907751 -0.55919289150049634 2 0 0 1 I I 0 1 2 forward I I I I #
face $-1 $106 $107 $36 $-1 $108 reversed single #
loop $-1 $-1 $109 $46 #
plane-surface $-1 -23.261150695550324 101.28808404579956 122.14394363650462 1 0 0 0 -0.82903758062907751 -0.55919289150049634 forward_v I I I I #
face $-1 $110 $111 $37 $-1 $112 forward single #
loop $-1 $113 $114 $47 #
cone-surface $-1 -16.708011380504921 26.199800722664136 5.2793139415257437 0 -0.82903758062907751 -0.55919289150049634 2 0 0 1 I I 0 1 2 forward I I I I #
face $-1 $115 $116 $38 $-1 $117 reversed single #
loop $-1 $-1 $118 $48 #
plane-surface $-1 35.620515428009767 101.28808404579956 122.14394363650462 1 0 0 0 -0.82903758062907751 -0.55919289150049634 forward_v I I I I #
face $-1 $119 $120 $39 $-1 $121 forward single #
loop $-1 $122 $123 $49 #
cone-surface $-1 42.173654743055174 26.199800722664136 5.2793139415257437 0 -0.82903758062907751 -0.55919289150049634 2 0 0 1 I I 0 1 2 forward I I I I #
face $-1 $124 $125 $30 $-1 $126 reversed single #
loop $-1 $-1 $127 $50 #
plane-surface $-1 0 0 -11.16813001490069 0 0 1 1 0 0 forward_v I I I I #
coedge $-1 $128 $129 $130 $131 forward $51 $-1 #
face $-1 $132 $133 $31 $-1 $134 reversed single #
loop $-1 $-1 $135 $53 #
plane-surface $-1 -58.881666123560095 0 6.9300154122228381 0 0 1 1 0 0 forward_v I I I I #
coedge $-1 $136 $137 $138 $139 forward $54 $-1 #
face $-1 $140 $141 $32 $-1 $142 reversed single #
loop $-1 $-1 $143 $56 #
plane-surface $-1 -16.708011380504921 -30.645930123543977 0.56386944467621447 0 -0.82903758062907751 0.55919289150049634 1 0 0 forward_v I I I I #
coedge $-1 $144 $145 $146 $147 reversed $57 $-1 #
face $-1 $-1 $148 $33 $-1 $149 forward single #
loop $-1 $150 $151 $59 #
cone-surface $-1 -16.708011380504921 -24.500965664485499 4.1334352617625445 0 0.82903758062907751 -0.55919289150049634 1 0 0 1 I I -0.70710678118654735 0.70710678118654768 1 forward I I I I #
loop $-1 $-1 $152 $43 #
coedge $-1 $96 $96 $153 $154 reversed $60 $-1 #
face $-1 $155 $156 $34 $-1 $157 reversed single #
loop $-1 $-1 $158 $62 #
plane-surface $-1 42.173654743055174 -30.645930123543977 0.56386944467621447 0 -0.82903758062907751 0.55919289150049634 1 0 0 forward_v I I I I #
coedge $-1 $159 $160 $161 $162 reversed $63 $-1 #
face $-1 $-1 $163 $35 $-1 $164 forward single #
loop $-1 $165 $166 $65 #
cone-surface $-1 42.173654743055174 -24.500965664485499 4.1334352617625445 0 0.82903758062907751 -0.55919289150049634 1 0 0 1 I I -0.70710678118654735 0.70710678118654768 1 forward I I I I #
loop $-1 $-1 $167 $45 #
coedge $-1 $105 $105 $168 $169 reversed $66 $-1 #
face $-1 $170 $171 $36 $-1 $172 reversed single #
loop $-1 $-1 $173 $68 #
plane-surface $-1 -16.708011380504921 -3.6280424334694459 51.377124976177527 0 0.82903758062907751 0.55919289150049634 1 0 0 forward_v I I I I #
coedge $-1 $174 $175 $176 $177 reversed $69 $-1 #
face $-1 $-1 $178 $37 $-1 $179 forward single #
loop $-1 $180 $181 $71 #
cone-surface $-1 -16.708011380504921 24.500965664485499 4.1334352617625427 0 -0.82903758062907751 -0.55919289150049634 1 0 0 1 I I -0.70710678118654735 0.70710678118654768 1 forward I I I I #
loop $-1 $-1 $182 $47 #
coedge $-1 $114 $114 $183 $184 reversed $72 $-1 #
face $-1 $185 $186 $38 $-1 $187 reversed single #
loop $-1 $-1 $188 $74 #
plane-surface $-1 42.173654743055174 -3.6280424334694459 51.377124976177527 0 0.82903758062907751 0.55919289150049634 1 0 0 forward_v I I I I #
coedge $-1 $189 $190 $191 $192 reversed $75 $-1 #
face $-1 $-1 $193 $39 $-1 $194 forward single #
loop $-1 $195 $196 $77 #
cone-surface $-1 42.173654743055174 24.500965664485499 4.1334352617625427 0 -0.82903758062907751 -0.55919289150049634 1 0 0 1 I I -0.70710678118654735 0.70710678118654768 1 forward I I I I #
loop $-1 $-1 $197 $49 #
coedge $-1 $123 $123 $198 $199 reversed $78 $-1 #
face $-1 $200 $201 $30 $-1 $202 reversed single #
loop $-1 $-1 $203 $80 #
plane-surface $-1 0 -30.64593012354397 0 0 1 0 0 0 1 forward_v I I I I #
coedge $-1 $204 $205 $206 $207 forward $81 $-1 #
coedge $-1 $208 $83 $209 $210 forward $51 $-1 #
coedge $-1 $83 $208 $211 $212 forward $51 $-1 #
coedge $-1 $213 $214 $83 $131 reversed $215 $-1 #
edge $-1 $216 -30.64593012354397 $217 30.64593012354397 $130 $218 forward 7 unknown #
face $-1 $219 $220 $31 $-1 $221 reversed single #
loop $-1 $-1 $222 $84 #
plane-surface $-1 -54.487475439966651 0 8.6710330497579875 -1 0 0 0 0 1 forward_v I I I I #
coedge $-1 $223 $224 $225 $226 forward $85 $-1 #
coedge $-1 $227 $87 $228 $229 reversed $54 $-1 #
coedge $-1 $87 $227 $230 $231 reversed $54 $-1 #
coedge $-1 $222 $232 $87 $139 reversed $133 $-1 #
edge $-1 $233 -30.64593012354397 $234 30.64593012354397 $138 $235 forward 7 unknown #
face $-1 $236 $237 $32 $-1 $238 forward single #
loop $-1 $-1 $239 $88 #
plane-surface $-1 -10.154872065459518 -135.56205660281299 71.330688105003304 -1 0 0 0 -0.82903758062907751 0.55919289150049634 forward_v I I I I #
coedge $-1 $240 $241 $242 $243 reversed $89 $-1 #
coedge $-1 $145 $91 $244 $245 reversed $57 $-1 #
coedge $-1 $91 $144 $240 $246 reversed $57 $-1 #
coedge $-1 $242 $247 $91 $147 forward $248 $-1 #
edge $-1 $249 24.497214037600962 $250 35.10147460782543 $146 $251 forward 7 unknown #
loop $-1 $-1 $153 $92 #
plane-surface $-1 -16.708011380504921 -30.645930123543977 0.56386944467621447 0 -0.82903758062907751 0.55919289150049634 1 0 0 forward_v I I I I #
loop $-1 $-1 $252 $59 #
coedge $-1 $151 $151 $152 $253 reversed $93 $-1 #
coedge $-1 $152 $152 $151 $253 forward $95 $-1 #
coedge $-1 $153 $153 $96 $154 forward $148 $-1 #
edge $-1 $254 7.7097848737727911e-016 $254 6.2831853071796013 $153 $255 forward 7 unknown #
face $-1 $256 $257 $34 $-1 $258 reversed single #
loop $-1 $-1 $259 $97 #
plane-surface $-1 48.72679405810058 -135.56205660281299 71.330688105003304 -1 0 0 0 -0.82903758062907751 0.55919289150049634 forward_v I I I I #
coedge $-1 $260 $261 $262 $263 reversed $98 $-1 #
coedge $-1 $160 $100 $264 $265 reversed $63 $-1 #
coedge $-1 $100 $159 $260 $266 reversed $63 $-1 #
coedge $-1 $262 $267 $100 $162 forward $257 $-1 #
edge $-1 $268 24.497214037600962 $269 35.10147460782543 $161 $270 forward 7 unknown #
loop $-1 $-1 $168 $101 #
plane-surface $-1 42.173654743055174 -30.645930123543977 0.56386944467621447 0 -0.82903758062907751 0.55919289150049634 1 0 0 forward_v I I I I #
loop $-1 $-1 $271 $65 #
coedge $-1 $166 $166 $167 $272 reversed $102 $-1 #
coedge $-1 $167 $167 $166 $272 forward $104 $-1 #
coedge $-1 $168 $168 $105 $169 forward $163 $-1 #
edge $-1 $273 7.7097848737727911e-016 $273 6.2831853071796013 $168 $274 forward 7 unknown #
face $-1 $275 $276 $36 $-1 $277 reversed single #
loop $-1 $-1 $278 $106 #
plane-surface $-1 -10.154872065459518 101.28808404579956 122.14394363650462 -1 0 0 0 0.82903758062907751 0.55919289150049634 forward_v I I I I #
coedge $-1 $279 $280 $281 $282 reversed $107 $-1 #
coedge $-1 $175 $109 $283 $284 reversed $69 $-1 #
coedge $-1 $109 $174 $279 $285 reversed $69 $-1 #
coedge $-1 $281 $286 $109 $177 forward $287 $-1 #
edge $-1 $288 19.998111899355813 $289 27.150775746016343 $176 $290 forward 7 unknown #
loop $-1 $-1 $183 $110 #
plane-surface $-1 -16.708011380504921 -3.6280424334694459 51.377124976177527 0 0.82903758062907751 0.55919289150049634 1 0 0 forward_v I I I I #
loop $-1 $-1 $291 $71 #
coedge $-1 $181 $181 $182 $292 reversed $111 $-1 #
coedge $-1 $182 $182 $181 $292 forward $113 $-1 #
coedge $-1 $183 $183 $114 $184 forward $178 $-1 #
edge $-1 $293 -1.0279713165030387e-015 $293 6.2831853071795996 $183 $294 forward 7 unknown #
face $-1 $295 $296 $38 $-1 $297 forward single #
loop $-1 $-1 $298 $115 #
plane-surface $-1 48.72679405810058 101.28808404579956 122.14394363650462 -1 0 0 0 0.82903758062907751 0.55919289150049634 forward_v I I I I #
coedge $-1 $299 $300 $301 $302 reversed $116 $-1 #
coedge $-1 $190 $118 $303 $304 reversed $75 $-1 #
coedge $-1 $118 $189 $299 $305 reversed $75 $-1 #
coedge $-1 $301 $306 $118 $192 forward $296 $-1 #
edge $-1 $307 19.998111899355813 $308 27.150775746016343 $191 $309 forward 7 unknown #
loop $-1 $-1 $198 $119 #
plane-surface $-1 42.173654743055174 -3.6280424334694459 51.377124976177527 0 0.82903758062907751 0.55919289150049634 1 0 0 forward_v I I I I #
loop $-1 $-1 $310 $77 #
coedge $-1 $196 $196 $197 $311 reversed $120 $-1 #
coedge $-1 $197 $197 $196 $311 forward $122 $-1 #
coedge $-1 $198 $198 $123 $199 forward $193 $-1 #
edge $-1 $312 -1.0279713165030387e-015 $312 6.2831853071795996 $198 $313 forward 7 unknown #
face $-1 $314 $315 $30 $-1 $316 reversed single #
loop $-1 $-1 $317 $124 #
plane-surface $-1 -63.275856807153538 0 0 1 0 0 0 0 -1 forward_v I I I I #
coedge $-1 $318 $211 $319 $320 forward $125 $-1 #
coedge $-1 $321 $127 $318 $322 forward $81 $-1 #
coedge $-1 $127 $321 $323 $324 forward $81 $-1 #
coedge $-1 $214 $213 $127 $207 reversed $215 $-1 #
edge $-1 $325 -30.64593012354397 $326 30.64593012354397 $206 $327 forward 7 unknown #
coedge $-1 $129 $128 $328 $329 forward $51 $-1 #
coedge $-1 $330 $331 $128 $210 reversed $315 $-1 #
edge $-1 $217 -63.275856807153538 $332 63.275856807153538 $209 $333 forward 7 unknown #
coedge $-1 $203 $334 $129 $212 reversed $125 $-1 #
edge $-1 $335 -63.275856807153538 $216 63.275856807153538 $211 $336 forward 7 unknown #
coedge $-1 $206 $130 $334 $337 forward $215 $-1 #
coedge $-1 $130 $206 $330 $338 reversed $215 $-1 #
loop $-1 $-1 $213 $314 #
vertex $-1 $131 $339 #
vertex $-1 $131 $340 #
straight-curve $-1 63.275856807153538 0 11.16813001490069 0 1 0 I I #
face $-1 $341 $342 $31 $-1 $343 reversed single #
loop $-1 $-1 $344 $132 #
plane-surface $-1 0 -30.64593012354397 0 0 1 0 0 0 1 forward_v I I I I #
coedge $-1 $225 $138 $345 $346 reversed $133 $-1 #
coedge $-1 $347 $135 $344 $348 reversed $85 $-1 #
coedge $-1 $135 $347 $349 $350 reversed $85 $-1 #
coedge $-1 $232 $222 $135 $226 reversed $133 $-1 #
edge $-1 $351 -30.64593012354397 $352 30.64593012354397 $225 $353 forward 7 unknown #
coedge $-1 $137 $136 $354 $355 reversed $54 $-1 #
coedge $-1 $356 $357 $136 $229 forward $358 $-1 #
edge $-1 $359 -33.835023745373491 $234 -25.046642378186604 $228 $360 forward 7 unknown #
coedge $-1 $361 $345 $137 $231 forward $220 $-1 #
edge $-1 $233 25.046642378186604 $362 33.835023745373491 $230 $363 forward 7 unknown #
coedge $-1 $138 $225 $356 $364 reversed $133 $-1 #
vertex $-1 $231 $365 #
vertex $-1 $229 $366 #
straight-curve $-1 -54.487475439966651 0 10.412050687293137 0 1 0 I I #
face $-1 $-1 $248 $32 $-1 $367 reversed single #
loop $-1 $-1 $368 $140 #
plane-surface $-1 0 0 11.16813001490069 0 0 1 1 0 0 forward_v I I I I #
coedge $-1 $369 $370 $371 $372 reversed $141 $-1 #
coedge $-1 $373 $143 $145 $246 forward $89 $-1 #
coedge $-1 $143 $373 $369 $374 forward $89 $-1 #
coedge $-1 $371 $146 $143 $243 forward $248 $-1 #
edge $-1 $250 -14.907145005297863 $375 -1.8008663752070575 $242 $376 forward 7 unknown #
coedge $-1 $377 $378 $144 $245 forward $237 $-1 #
edge $-1 $379 -44.287762024523062 $249 -37.135098177862524 $244 $380 forward 7 unknown #
edge $-1 $250 1.2717262267236031e-014 $379 12.791049305844393 $145 $381 forward 7 unknown #
coedge $-1 $146 $371 $377 $382 reversed $248 $-1 #
loop $-1 $-1 $371 $236 #
vertex $-1 $382 $383 #
vertex $-1 $147 $384 #
straight-curve $-1 -23.261150695550324 -30.64593012354397 35.665344052501652 0 0 -1 I I #
coedge $-1 $252 $252 $-1 $385 reversed $150 $-1 #
edge $-1 $386 0 $386 6.2831853071796004 $151 $387 forward 7 unknown #
vertex $-1 $154 $388 #
ellipse-curve $-1 -16.708011380504921 -27.069598200213704 5.8659997297884559 0 -0.82903758062907751 0.55919289150049634 2 0 0 1 I I #
face $-1 $-1 $389 $34 $-1 $390 forward single #
loop $-1 $-1 $161 $155 #
plane-surface $-1 0 -30.64593012354397 0 0 1 0 0 0 1 forward_v I I I I #
coedge $-1 $391 $392 $393 $394 reversed $156 $-1 #
coedge $-1 $395 $158 $160 $266 forward $98 $-1 #
coedge $-1 $158 $395 $391 $396 forward $98 $-1 #
coedge $-1 $393 $161 $158 $263 forward $257 $-1 #
edge $-1 $269 14.53368805648218 $397 27.639966686572993 $262 $398 forward 7 unknown #
coedge $-1 $399 $400 $159 $265 forward $389 $-1 #
edge $-1 $401 -44.287762024523062 $268 -37.135098177862524 $264 $402 forward 7 unknown #
edge $-1 $269 1.2717262267236031e-014 $401 12.791049305844393 $160 $403 forward 7 unknown #
coedge $-1 $161 $393 $399 $404 reversed $257 $-1 #
vertex $-1 $404 $405 #
vertex $-1 $162 $406 #
straight-curve $-1 35.620515428009767 -30.64593012354397 35.665344052501652 0 0 -1 I I #
coedge $-1 $271 $271 $-1 $407 reversed $165 $-1 #
edge $-1 $408 0 $408 6.2831853071796004 $166 $409 forward 7 unknown #
vertex $-1 $169 $410 #
ellipse-curve $-1 42.173654743055174 -27.069598200213704 5.8659997297884559 0 -0.82903758062907751 0.55919289150049634 2 0 0 1 I I #
face $-1 $-1 $287 $36 $-1 $411 forward single #
loop $-1 $-1 $412 $170 #
plane-surface $-1 0 30.64593012354397 0 0 -1 0 0 0 -1 forward_v I I I I #
coedge $-1 $413 $414 $415 $416 reversed $171 $-1 #
coedge $-1 $417 $173 $175 $285 forward $107 $-1 #
coedge $-1 $173 $417 $413 $418 forward $107 $-1 #
coedge $-1 $415 $176 $173 $282 forward $287 $-1 #
edge $-1 $289 -14.907145005297863 $419 -1.8008663752070575 $281 $420 forward 7 unknown #
coedge $-1 $421 $422 $174 $284 forward $276 $-1 #
edge $-1 $423 -60.508102373576072 $288 -49.903841803351618 $283 $424 forward 7 unknown #
edge $-1 $289 48.500810941243543 $423 61.291860247087911 $175 $425 forward 7 unknown #
coedge $-1 $176 $415 $421 $426 forward $287 $-1 #
loop $-1 $-1 $415 $275 #
vertex $-1 $284 $427 #
vertex $-1 $177 $428 #
straight-curve $-1 -23.261150695550324 50.644042022899782 11.16813001490069 0 -1 0 I I #
coedge $-1 $291 $291 $-1 $429 reversed $180 $-1 #
edge $-1 $430 0 $430 6.2831853071796004 $181 $431 forward 7 unknown #
vertex $-1 $184 $432 #
ellipse-curve $-1 -16.708011380504921 27.069598200213708 5.8659997297884559 0 0.82903758062907751 0.55919289150049634 2 0 0 1 I I #
face $-1 $-1 $433 $38 $-1 $434 reversed single #
loop $-1 $-1 $191 $185 #
plane-surface $-1 0 0 11.16813001490069 0 0 1 1 0 0 forward_v I I I I #
coedge $-1 $435 $436 $437 $438 reversed $186 $-1 #
coedge $-1 $439 $188 $190 $305 forward $116 $-1 #
coedge $-1 $188 $439 $435 $440 forward $116 $-1 #
coedge $-1 $437 $191 $188 $302 forward $296 $-1 #
edge $-1 $308 14.53368805648218 $441 27.639966686572993 $301 $442 forward 7 unknown #
coedge $-1 $443 $444 $189 $304 forward $433 $-1 #
edge $-1 $445 -60.508102373576072 $307 -49.903841803351618 $303 $446 forward 7 unknown #
edge $-1 $308 48.500810941243543 $445 61.291860247087911 $190 $447 forward 7 unknown #
coedge $-1 $191 $437 $443 $448 forward $296 $-1 #
vertex $-1 $192 $449 #
vertex $-1 $192 $450 #
straight-curve $-1 35.620515428009767 50.644042022899782 11.16813001490069 0 -1 0 I I #
coedge $-1 $310 $310 $-1 $451 reversed $195 $-1 #
edge $-1 $452 0 $452 6.2831853071796004 $196 $453 forward 7 unknown #
vertex $-1 $199 $454 #
ellipse-curve $-1 42.173654743055174 27.069598200213708 5.8659997297884559 0 0.82903758062907751 0.55919289150049634 2 0 0 1 I I #
face $-1 $-1 $215 $30 $-1 $455 reversed single #
loop $-1 $-1 $330 $200 #
plane-surface $-1 0 30.64593012354397 0 0 -1 0 0 0 -1 forward_v I I I I #
coedge $-1 $456 $328 $331 $457 forward $201 $-1 #
coedge $-1 $334 $203 $204 $322 reversed $125 $-1 #
coedge $-1 $328 $456 $203 $320 reversed $201 $-1 #
edge $-1 $335 -11.16813001490069 $458 11.16813001490069 $319 $459 forward 7 unknown #
coedge $-1 $205 $204 $456 $460 forward $81 $-1 #
edge $-1 $326 -63.275856807153538 $458 63.275856807153538 $318 $461 forward 7 unknown #
coedge $-1 $331 $330 $205 $324 reversed $315 $-1 #
edge $-1 $462 -63.275856807153538 $325 63.275856807153538 $323 $463 forward 7 unknown #
vertex $-1 $207 $464 #
vertex $-1 $337 $465 #
straight-curve $-1 63.275856807153538 0 -11.16813001490069 0 -1 0 I I #
coedge $-1 $317 $319 $208 $329 reversed $201 $-1 #
edge $-1 $332 -30.64593012354397 $335 30.64593012354397 $328 $466 forward 7 unknown #
coedge $-1 $323 $209 $214 $338 forward $315 $-1 #
coedge $-1 $209 $323 $317 $457 reversed $315 $-1 #
vertex $-1 $210 $467 #
straight-curve $-1 0 30.64593012354397 11.16813001490069 -1 0 0 I I #
coedge $-1 $211 $318 $213 $337 reversed $125 $-1 #
vertex $-1 $329 $468 #
straight-curve $-1 0 -30.64593012354397 11.16813001490069 1 0 0 I I #
edge $-1 $216 -11.16813001490069 $326 11.16813001490069 $213 $469 forward 7 unknown #
edge $-1 $217 -11.16813001490069 $325 11.16813001490069 $214 $470 forward 7 unknown #
point $-1 63.275856807153538 -30.64593012354397 11.16813001490069 #
point $-1 63.275856807153538 30.64593012354397 11.16813001490069 #
face $-1 $-1 $358 $31 $-1 $471 reversed single #
loop $-1 $-1 $472 $219 #
plane-surface $-1 -63.275856807153538 0 0 1 0 0 0 0 -1 forward_v I I I I #
coedge $-1 $345 $361 $223 $348 forward $220 $-1 #
coedge $-1 $230 $344 $222 $346 forward $220 $-1 #
edge $-1 $352 2.5944988873438444 $233 6.0765341624141431 $345 $473 forward 7 unknown #
coedge $-1 $224 $223 $472 $474 reversed $85 $-1 #
edge $-1 $475 -33.835023745373491 $352 -25.046642378186604 $344 $476 forward 7 unknown #
coedge $-1 $357 $356 $224 $350 forward $358 $-1 #
edge $-1 $351 25.046642378186604 $477 33.835023745373491 $349 $478 forward 7 unknown #
vertex $-1 $350 $479 #
vertex $-1 $348 $480 #
straight-curve $-1 -54.487475439966651 0 6.9300154122228381 0 -1 0 I I #
coedge $-1 $481 $482 $227 $355 forward $342 $-1 #
edge $-1 $362 -30.64593012354397 $359 30.64593012354397 $354 $483 forward 7 unknown #
coedge $-1 $349 $228 $232 $364 forward $358 $-1 #
coedge $-1 $228 $349 $481 $484 reversed $358 $-1 #
loop $-1 $-1 $349 $341 #
vertex $-1 $484 $485 #
straight-curve $-1 -29.440833061780047 30.64593012354397 10.412050687293137 1 0 0 I I #
coedge $-1 $344 $230 $482 $486 forward $220 $-1 #
vertex $-1 $486 $487 #
straight-curve $-1 -29.440833061780047 -30.64593012354397 10.412050687293137 -1 0 0 I I #
edge $-1 $234 -6.0765341624141431 $351 -2.5944988873438444 $356 $488 forward 7 unknown #
point $-1 -54.487475439966651 -30.64593012354397 10.412050687293137 #
point $-1 -54.487475439966651 30.64593012354397 10.412050687293137 #
plane-surface $-1 0 -30.64593012354397 0 0 1 0 0 0 1 forward_v I I I I #
coedge $-1 $378 $377 $370 $489 forward $237 $-1 #
coedge $-1 $370 $239 $241 $374 reversed $141 $-1 #
coedge $-1 $239 $369 $368 $489 reversed $141 $-1 #
coedge $-1 $247 $242 $239 $372 forward $248 $-1 #
edge $-1 $375 -35.10147460782543 $490 -24.497214037600962 $371 $491 forward 7 unknown #
coedge $-1 $241 $240 $378 $492 reversed $89 $-1 #
edge $-1 $493 -12.791049305844393 $375 -1.2717262267236031e-014 $369 $494 forward 7 unknown #
vertex $-1 $243 $495 #
straight-curve $-1 -8.3540056902524604 -30.64593012354397 0.56386944467622291 1 0 0 I I #
coedge $-1 $368 $244 $247 $382 forward $237 $-1 #
coedge $-1 $244 $368 $373 $492 forward $237 $-1 #
vertex $-1 $245 $496 #
straight-curve $-1 -23.261150695550324 -67.781028301406494 11.16813001490069 0 -1 0 I I #
straight-curve $-1 -23.261150695550324 -30.645930123543977 0.56386944467621447 0 0.55919289150049634 0.82903758062907751 I I #
edge $-1 $249 -23.261150695550324 $490 -10.154872065459518 $247 $497 forward 7 unknown #
point $-1 -23.261150695550324 -30.64593012354397 11.16813001490069 #
point $-1 -23.261150695550324 -30.64593012354397 0.56386944467622502 #
edge $-1 $498 1 $498 0 $252 $-1 forward 7 unknown #
vertex $-1 $253 $499 #
ellipse-curve $-1 -16.708011380504921 -25.330003245114575 4.6926281532630414 0 -0.82903758062907751 0.55919289150049634 2 0 0 1 I I #
point $-1 -14.708011380504921 -27.069598200213694 5.8659997297884505 #
loop $-1 $-1 $264 $256 #
plane-surface $-1 0 0 11.16813001490069 0 0 1 1 0 0 forward_v I I I I #
coedge $-1 $392 $259 $261 $396 reversed $156 $-1 #
coedge $-1 $259 $391 $500 $501 reversed $156 $-1 #
coedge $-1 $267 $262 $259 $394 forward $257 $-1 #
edge $-1 $397 -35.10147460782543 $502 -24.497214037600962 $393 $503 forward 7 unknown #
coedge $-1 $261 $260 $400 $504 reversed $98 $-1 #
edge $-1 $505 -12.791049305844393 $397 -1.2717262267236031e-014 $391 $506 forward 7 unknown #
vertex $-1 $263 $507 #
straight-curve $-1 21.086827371527587 -30.64593012354397 0.56386944467622291 1 0 0 I I #
coedge $-1 $500 $264 $267 $404 forward $389 $-1 #
coedge $-1 $264 $500 $395 $504 forward $389 $-1 #
vertex $-1 $265 $508 #
straight-curve $-1 35.620515428009767 -67.781028301406494 11.16813001490069 0 -1 0 I I #
straight-curve $-1 35.620515428009767 -30.645930123543977 0.56386944467621447 0 0.55919289150049634 0.82903758062907751 I I #
edge $-1 $268 35.620515428009767 $502 48.72679405810058 $267 $509 forward 7 unknown #
point $-1 35.620515428009767 -30.64593012354397 11.16813001490069 #
point $-1 35.620515428009767 -30.64593012354397 0.56386944467622502 #
edge $-1 $510 1 $510 0 $271 $-1 forward 7 unknown #
vertex $-1 $272 $511 #
ellipse-curve $-1 42.173654743055174 -25.330003245114575 4.6926281532630414 0 -0.82903758062907751 0.55919289150049634 2 0 0 1 I I #
point $-1 44.173654743055174 -27.069598200213694 5.8659997297884505 #
plane-surface $-1 0 0 11.16813001490069 0 0 1 1 0 0 forward_v I I I I #
coedge $-1 $422 $421 $414 $512 forward $276 $-1 #
coedge $-1 $414 $278 $280 $418 reversed $171 $-1 #
coedge $-1 $278 $413 $412 $512 reversed $171 $-1 #
coedge $-1 $286 $281 $278 $416 forward $287 $-1 #
edge $-1 $419 -27.150775746016343 $513 -19.998111899355813 $415 $514 forward 7 unknown #
coedge $-1 $280 $279 $422 $515 reversed $107 $-1 #
edge $-1 $516 -61.291860247087911 $419 -48.500810941243543 $413 $517 forward 7 unknown #
vertex $-1 $282 $518 #
straight-curve $-1 -8.3540056902524604 23.493266276883439 11.168130014900687 1 0 0 I I #
coedge $-1 $412 $283 $286 $426 reversed $276 $-1 #
coedge $-1 $283 $412 $417 $515 forward $276 $-1 #
vertex $-1 $284 $519 #
straight-curve $-1 -23.261150695550324 30.64593012354397 61.071971818252308 0 0 1 I I #
straight-curve $-1 -23.261150695550324 -3.6280424334694459 51.377124976177527 0 0.55919289150049634 -0.82903758062907751 I I #
edge $-1 $513 10.154872065459518 $288 23.261150695550324 $421 $520 forward 7 unknown #
point $-1 -23.261150695550324 30.64593012354397 11.16813001490069 #
point $-1 -23.261150695550324 23.493266276883439 11.16813001490069 #
edge $-1 $521 1 $521 0 $291 $-1 forward 7 unknown #
vertex $-1 $292 $522 #
ellipse-curve $-1 -16.708011380504921 25.330003245114575 4.6926281532630396 0 0.82903758062907751 0.55919289150049634 2 0 0 1 I I #
point $-1 -14.708011380504921 27.069598200213694 5.8659997297884487 #
loop $-1 $-1 $303 $295 #
plane-surface $-1 0 30.64593012354397 0 0 -1 0 0 0 -1 forward_v I I I I #
coedge $-1 $436 $298 $300 $440 reversed $186 $-1 #
coedge $-1 $298 $435 $523 $524 reversed $186 $-1 #
coedge $-1 $306 $301 $298 $438 forward $296 $-1 #
edge $-1 $441 -27.150775746016343 $525 -19.998111899355813 $437 $526 forward 7 unknown #
coedge $-1 $300 $299 $444 $527 reversed $116 $-1 #
edge $-1 $528 -61.291860247087911 $441 -48.500810941243543 $435 $529 forward 7 unknown #
vertex $-1 $302 $530 #
straight-curve $-1 21.086827371527587 23.493266276883439 11.168130014900687 1 0 0 I I #
coedge $-1 $523 $303 $306 $448 reversed $433 $-1 #
coedge $-1 $303 $523 $439 $527 forward $433 $-1 #
vertex $-1 $304 $531 #
straight-curve $-1 35.620515428009767 30.64593012354397 61.071971818252308 0 0 1 I I #
straight-curve $-1 35.620515428009767 -3.6280424334694459 51.377124976177527 0 0.55919289150049634 -0.82903758062907751 I I #
edge $-1 $525 -48.72679405810058 $307 -35.620515428009767 $443 $532 forward 7 unknown #
point $-1 35.620515428009767 30.64593012354397 11.16813001490069 #
point $-1 35.620515428009767 23.493266276883439 11.16813001490069 #
edge $-1 $533 1 $533 0 $310 $-1 forward 7 unknown #
vertex $-1 $311 $534 #
ellipse-curve $-1 42.173654743055174 25.330003245114575 4.6926281532630396 0 0.82903758062907751 0.55919289150049634 2 0 0 1 I I #
point $-1 44.173654743055174 27.069598200213694 5.8659997297884487 #
plane-surface $-1 63.275856807153538 0 0 -1 0 0 0 0 1 forward_v I I I I #
coedge $-1 $319 $317 $321 $460 reversed $201 $-1 #
edge $-1 $332 -11.16813001490069 $462 11.16813001490069 $331 $535 forward 7 unknown #
vertex $-1 $460 $536 #
straight-curve $-1 -63.275856807153538 -30.64593012354397 0 0 0 -1 I I #
edge $-1 $458 -30.64593012354397 $462 30.64593012354397 $456 $537 forward 7 unknown #
straight-curve $-1 0 -30.64593012354397 -11.16813001490069 -1 0 0 I I #
vertex $-1 $324 $538 #
straight-curve $-1 0 30.64593012354397 -11.16813001490069 1 0 0 I I #
point $-1 63.275856807153538 30.64593012354397 -11.16813001490069 #
point $-1 63.275856807153538 -30.64593012354397 -11.16813001490069 #
straight-curve $-1 -63.275856807153538 0 11.16813001490069 0 -1 0 I I #
point $-1 -63.275856807153538 30.64593012354397 11.16813001490069 #
point $-1 -63.275856807153538 -30.64593012354397 11.16813001490069 #
straight-curve $-1 63.275856807153538 -30.64593012354397 0 0 0 -1 I I #
straight-curve $-1 63.275856807153538 30.64593012354397 0 0 0 -1 I I #
plane-surface $-1 0 30.64593012354397 0 0 -1 0 0 0 -1 forward_v I I I I #
coedge $-1 $482 $481 $347 $474 forward $342 $-1 #
straight-curve $-1 -54.487475439966651 -30.64593012354397 4.3355165248789937 0 0 1 I I #
edge $-1 $477 -30.64593012354397 $475 30.64593012354397 $472 $539 forward 7 unknown #
vertex $-1 $348 $540 #
straight-curve $-1 -29.440833061780047 -30.64593012354397 6.9300154122228381 1 0 0 I I #
vertex $-1 $350 $541 #
straight-curve $-1 -29.440833061780047 30.64593012354397 6.9300154122228381 -1 0 0 I I #
point $-1 -54.487475439966651 30.64593012354397 6.9300154122228381 #
point $-1 -54.487475439966651 -30.64593012354397 6.9300154122228381 #
coedge $-1 $472 $354 $357 $484 forward $342 $-1 #
coedge $-1 $354 $472 $361 $486 reversed $342 $-1 #
straight-curve $-1 -63.275856807153538 0 10.412050687293137 0 1 0 I I #
edge $-1 $359 -10.412050687293137 $477 -6.9300154122228381 $357 $542 forward 7 unknown #
point $-1 -63.275856807153538 30.64593012354397 10.412050687293137 #
edge $-1 $362 -10.412050687293137 $475 -6.9300154122228381 $482 $543 forward 7 unknown #
point $-1 -63.275856807153538 -30.64593012354397 10.412050687293137 #
straight-curve $-1 -54.487475439966651 30.64593012354397 4.3355165248789937 0 0 -1 I I #
edge $-1 $490 37.135098177862524 $493 44.287762024523062 $368 $544 forward 7 unknown #
vertex $-1 $489 $545 #
straight-curve $-1 -10.154872065459518 -30.64593012354397 35.665344052501652 0 0 1 I I #
edge $-1 $493 1.8008663752070575 $379 14.907145005297863 $378 $546 forward 7 unknown #
vertex $-1 $492 $547 #
straight-curve $-1 -10.154872065459518 -30.645930123543977 0.56386944467621447 0 -0.55919289150049634 -0.82903758062907751 I I #
point $-1 -10.154872065459518 -30.64593012354397 0.56386944467622502 #
point $-1 -23.261150695550324 -23.493266276883435 11.16813001490069 #
straight-curve $-1 0 -30.64593012354397 11.16813001490069 1 0 0 I I #
vertex $-1 $385 $548 #
point $-1 -14.708011380504921 -25.330003245114575 4.6926281532630414 #
coedge $-1 $400 $399 $392 $501 forward $389 $-1 #
edge $-1 $502 37.135098177862524 $505 44.287762024523062 $500 $549 forward 7 unknown #
vertex $-1 $501 $550 #
straight-curve $-1 48.72679405810058 -30.64593012354397 35.665344052501652 0 0 1 I I #
edge $-1 $505 -27.639966686572993 $401 -14.53368805648218 $400 $551 forward 7 unknown #
vertex $-1 $504 $552 #
straight-curve $-1 48.72679405810058 -30.645930123543977 0.56386944467621447 0 -0.55919289150049634 -0.82903758062907751 I I #
point $-1 48.72679405810058 -30.64593012354397 0.56386944467622502 #
point $-1 35.620515428009767 -23.493266276883435 11.16813001490069 #
straight-curve $-1 0 -30.64593012354397 11.16813001490069 1 0 0 I I #
vertex $-1 $407 $553 #
point $-1 44.173654743055174 -25.330003245114575 4.6926281532630414 #
edge $-1 $513 49.903841803351618 $516 60.508102373576072 $412 $554 forward 7 unknown #
vertex $-1 $426 $555 #
straight-curve $-1 -10.154872065459518 50.644042022899782 11.16813001490069 0 1 0 I I #
edge $-1 $516 1.8008663752070575 $423 14.907145005297863 $422 $556 forward 7 unknown #
vertex $-1 $515 $557 #
straight-curve $-1 -10.154872065459518 -3.6280424334694459 51.377124976177527 0 -0.55919289150049634 0.82903758062907751 I I #
point $-1 -10.154872065459518 23.493266276883439 11.16813001490069 #
point $-1 -23.261150695550324 30.64593012354397 0.56386944467623579 #
straight-curve $-1 0 30.64593012354397 11.16813001490069 -1 0 0 I I #
vertex $-1 $429 $558 #
point $-1 -14.708011380504921 25.330003245114575 4.6926281532630396 #
coedge $-1 $444 $443 $436 $524 forward $433 $-1 #
edge $-1 $525 49.903841803351618 $528 60.508102373576072 $523 $559 forward 7 unknown #
vertex $-1 $448 $560 #
straight-curve $-1 48.72679405810058 50.644042022899782 11.16813001490069 0 1 0 I I #
edge $-1 $528 -27.639966686572993 $445 -14.53368805648218 $444 $561 forward 7 unknown #
vertex $-1 $527 $562 #
straight-curve $-1 48.72679405810058 -3.6280424334694459 51.377124976177527 0 -0.55919289150049634 0.82903758062907751 I I #
point $-1 48.72679405810058 23.493266276883439 11.16813001490069 #
point $-1 35.620515428009767 30.64593012354397 0.56386944467623579 #
straight-curve $-1 0 30.64593012354397 11.16813001490069 -1 0 0 I I #
vertex $-1 $451 $563 #
point $-1 44.173654743055174 25.330003245114575 4.6926281532630396 #
straight-curve $-1 -63.275856807153538 30.64593012354397 0 0 0 -1 I I #
point $-1 -63.275856807153538 -30.64593012354397 -11.16813001490069 #
straight-curve $-1 -63.275856807153538 0 -11.16813001490069 0 1 0 I I #
point $-1 -63.275856807153538 30.64593012354397 -11.16813001490069 #
straight-curve $-1 -63.275856807153538 0 6.9300154122228381 0 -1 0 I I #
point $-1 -63.275856807153538 -30.64593012354397 6.9300154122228381 #
point $-1 -63.275856807153538 30.64593012354397 6.9300154122228381 #
straight-curve $-1 -63.275856807153538 30.64593012354397 0 0 0 -1 I I #
straight-curve $-1 -63.275856807153538 -30.64593012354397 0 0 0 -1 I I #
straight-curve $-1 -10.154872065459518 -67.781028301406494 11.16813001490069 0 1 0 I I #
point $-1 -10.154872065459518 -30.64593012354397 11.16813001490069 #
straight-curve $-1 -8.3540056902524604 -23.493266276883435 11.16813001490069 -1 0 0 I I #
point $-1 -10.154872065459518 -23.493266276883435 11.16813001490069 #
point $-1 -16.708011380504921 -23.671928083856422 3.5742423702620481 #
straight-curve $-1 48.72679405810058 -67.781028301406494 11.16813001490069 0 1 0 I I #
point $-1 48.72679405810058 -30.64593012354397 11.16813001490069 #
straight-curve $-1 21.086827371527587 -23.493266276883435 11.16813001490069 -1 0 0 I I #
point $-1 48.72679405810058 -23.493266276883435 11.16813001490069 #
point $-1 42.173654743055174 -23.671928083856422 3.5742423702620481 #
straight-curve $-1 -10.154872065459518 30.64593012354397 61.071971818252308 0 0 -1 I I #
point $-1 -10.154872065459518 30.64593012354397 11.16813001490069 #
straight-curve $-1 -8.3540056902524604 30.64593012354397 0.56386944467623579 -1 0 0 I I #
point $-1 -10.154872065459518 30.64593012354397 0.56386944467623579 #
point $-1 -16.708011380504921 23.671928083856422 3.5742423702620463 #
straight-curve $-1 48.72679405810058 30.64593012354397 61.071971818252308 0 0 -1 I I #
point $-1 48.72679405810058 30.64593012354397 11.16813001490069 #
straight-curve $-1 21.086827371527587 30.64593012354397 0.56386944467623579 -1 0 0 I I #
point $-1 48.72679405810058 30.64593012354397 0.56386944467623579 #
point $-1 42.173654743055174 23.671928083856422 3.5742423702620463 #
End-of-ACIS-data 