500 0 6 0           
7 Unknown 11 ACIS 5.0 NT 24 Fri Mar 26 16:43:43 1999 
-1 9.9999999999999995e-007 1e-010 
body $-1 $6 $-1 $7 #
body $-1 $8 $-1 $9 #
body $-1 $10 $-1 $11 #
body $-1 $12 $-1 $13 #
body $-1 $14 $-1 $15 #
body $-1 $16 $-1 $17 #
lump $-1 $-1 $18 $0 #
transform $-1 1 0 0 0 1 0 0 0 1 64.174321726126891 34.047036462029943 12.940928706097775 1 rotate no_reflect no_shear #
lump $-1 $-1 $19 $1 #
transform $-1 1 0 0 0 1 0 0 0 1 64.174321726126891 34.047036462029943 12.940928706097775 1 rotate no_reflect no_shear #
lump $-1 $-1 $20 $2 #
transform $-1 1 0 0 0 1 0 0 0 1 64.174321726126891 34.047036462029943 12.940928706097775 1 rotate no_reflect no_shear #
lump $-1 $-1 $21 $3 #
transform $-1 1 0 0 0 1 0 0 0 1 64.174321726126891 34.047036462029943 12.940928706097775 1 rotate no_reflect no_shear #
lump $-1 $-1 $22 $4 #
transform $-1 1 0 0 0 1 0 0 0 1 64.174321726126891 34.047036462029943 12.940928706097775 1 rotate no_reflect no_shear #
lump $-1 $-1 $23 $5 #
transform $-1 1 0 0 0 1 0 0 0 1 64.174321726126891 34.047036462029943 12.940928706097775 1 rotate no_reflect no_shear #
shell $-1 $-1 $-1 $24 $-1 $6 #
shell $-1 $-1 $-1 $25 $-1 $8 #
shell $-1 $-1 $-1 $26 $-1 $10 #
shell $-1 $-1 $-1 $27 $-1 $12 #
shell $-1 $-1 $-1 $28 $-1 $14 #
shell $-1 $-1 $-1 $29 $-1 $16 #
face $-1 $30 $31 $18 $-1 $32 forward single #
face $-1 $33 $34 $19 $-1 $35 reversed single #
face $-1 $36 $37 $20 $-1 $38 reversed single #
face $-1 $39 $40 $21 $-1 $41 forward single #
face $-1 $42 $43 $22 $-1 $44 forward single #
face $-1 $45 $46 $23 $-1 $47 forward single #
face $-1 $48 $49 $18 $-1 $50 reversed single #
loop $-1 $-1 $51 $24 #
plane-surface $-1 0 0 12.940928706097775 0 0 1 1 0 0 forward_v I I I I #
face $-1 $52 $53 $19 $-1 $54 reversed single #
loop $-1 $-1 $55 $25 #
plane-surface $-1 0 -29.239702810382539 9.5919346803411347 0 0 1 1 0 0 forward_v I I I I #
face $-1 $56 $57 $20 $-1 $58 reversed single #
loop $-1 $-1 $59 $26 #
plane-surface $-1 -64.174321726126919 -16.604799086210853 2.1094173190557086 -0.52991927123019833 0 0.84804809178421925 0.84804809178421925 0 0.52991927123019833 forward_v I I I I #
face $-1 $60 $61 $21 $-1 $62 forward single #
loop $-1 $63 $64 $27 #
cone-surface $-1 -54.63358195299616 -21.301341129725422 6.1269302017399667 0.52991927123019833 0 -0.84804809178421925 1.2720721376763289 0 0.79487890684529749 1 I I 0 1 1.5 forward I I I I #
face $-1 $65 $66 $22 $-1 $67 forward single #
loop $-1 $68 $69 $28 #
cone-surface $-1 -54.63358195299616 -16.604799086210853 6.1269302017399667 0.52991927123019833 0 -0.84804809178421925 1.2720721376763289 0 0.79487890684529749 1 I I 0 1 1.5 forward I I I I #
face $-1 $70 $71 $23 $-1 $72 forward single #
loop $-1 $73 $74 $29 #
cone-surface $-1 -54.63358195299616 -11.908257042696285 6.1269302017399667 0.52991927123019833 0 -0.84804809178421925 1.2720721376763289 0 0.79487890684529749 1 I I 0 1 1.5 forward I I I I #
face $-1 $75 $76 $18 $-1 $77 reversed single #
loop $-1 $-1 $78 $30 #
plane-surface $-1 0 0 -12.940928706097775 0 0 1 1 0 0 forward_v I I I I #
coedge $-1 $79 $80 $81 $82 forward $31 $-1 #
face $-1 $83 $84 $19 $-1 $85 reversed single #
loop $-1 $-1 $86 $33 #
plane-surface $-1 0 -24.432369158735135 11.266431693219456 0 -1 0 0 0 -1 forward_v I I I I #
coedge $-1 $87 $88 $89 $90 reversed $34 $-1 #
face $-1 $91 $92 $20 $-1 $93 forward single #
loop $-1 $-1 $94 $36 #
plane-surface $-1 -132.18874132772982 -8.777229013686572 110.95523948183265 0 -1 0 0.52991927123019833 0 -0.84804809178421925 forward_v I I I I #
coedge $-1 $95 $96 $97 $98 reversed $37 $-1 #
face $-1 $-1 $99 $21 $-1 $100 forward single #
loop $-1 $101 $102 $39 #
cone-surface $-1 -53.362423404513024 -21.301341129725422 4.0926513220650342 0.52991927123019833 0 -0.84804809178421925 0.63603606883816444 0 0.39743945342264875 1 I I -0.70710678118654757 0.70710678118654757 0.75 forward I I I I #
loop $-1 $-1 $103 $27 #
coedge $-1 $64 $64 $104 $105 reversed $40 $-1 #
face $-1 $-1 $106 $22 $-1 $107 forward single #
loop $-1 $108 $109 $42 #
cone-surface $-1 -53.362423404513024 -16.604799086210853 4.0926513220650342 0.52991927123019833 0 -0.84804809178421925 0.63603606883816444 0 0.39743945342264875 1 I I -0.70710678118654757 0.70710678118654757 0.75 forward I I I I #
loop $-1 $-1 $110 $28 #
coedge $-1 $69 $69 $111 $112 reversed $43 $-1 #
face $-1 $-1 $113 $23 $-1 $114 forward single #
loop $-1 $115 $116 $45 #
cone-surface $-1 -53.362423404513024 -11.908257042696285 4.0926513220650342 0.52991927123019833 0 -0.84804809178421925 0.63603606883816444 0 0.39743945342264875 1 I I -0.70710678118654757 0.70710678118654757 0.75 forward I I I I #
loop $-1 $-1 $117 $29 #
coedge $-1 $74 $74 $118 $119 reversed $46 $-1 #
face $-1 $120 $121 $18 $-1 $122 reversed single #
loop $-1 $-1 $123 $48 #
plane-surface $-1 0 -34.047036462029943 0 0 1 0 0 0 1 forward_v I I I I #
coedge $-1 $124 $125 $126 $127 forward $49 $-1 #
coedge $-1 $128 $51 $129 $130 forward $31 $-1 #
coedge $-1 $51 $128 $131 $132 forward $31 $-1 #
coedge $-1 $133 $134 $51 $82 reversed $135 $-1 #
edge $-1 $136 -34.047036462029943 $137 34.047036462029943 $81 $138 forward 7 unknown #
face $-1 $139 $140 $19 $-1 $141 reversed single #
loop $-1 $-1 $142 $52 #
plane-surface $-1 -64.174321726126891 0 0 1 0 0 0 0 -1 forward_v I I I I #
coedge $-1 $143 $144 $145 $146 reversed $53 $-1 #
coedge $-1 $147 $55 $148 $149 reversed $34 $-1 #
coedge $-1 $55 $147 $150 $151 forward $34 $-1 #
coedge $-1 $152 $153 $55 $90 forward $154 $-1 #
edge $-1 $155 -19.427185056838674 $156 -9.8125177535438652 $89 $157 forward 7 unknown #
face $-1 $158 $159 $20 $-1 $160 reversed single #
loop $-1 $-1 $97 $56 #
plane-surface $-1 0 0 12.940928706097775 0 0 1 1 0 0 forward_v I I I I #
coedge $-1 $161 $162 $163 $164 reversed $57 $-1 #
coedge $-1 $165 $59 $166 $167 reversed $37 $-1 #
coedge $-1 $59 $165 $161 $168 forward $37 $-1 #
coedge $-1 $163 $169 $59 $98 forward $92 $-1 #
edge $-1 $170 -16.129969615629708 $171 -0.47482947058114533 $97 $172 forward 7 unknown #
loop $-1 $-1 $104 $60 #
plane-surface $-1 -64.174321726126919 -16.604799086210853 2.1094173190557086 -0.52991927123019833 0 0.84804809178421925 0.84804809178421925 0 0.52991927123019833 forward_v I I I I #
loop $-1 $-1 $173 $39 #
coedge $-1 $102 $102 $103 $174 reversed $61 $-1 #
coedge $-1 $103 $103 $102 $174 forward $63 $-1 #
coedge $-1 $104 $104 $64 $105 forward $99 $-1 #
edge $-1 $175 0 $175 6.2831853071796004 $104 $176 forward 7 unknown #
loop $-1 $-1 $111 $65 #
plane-surface $-1 -64.174321726126919 -16.604799086210853 2.1094173190557086 -0.52991927123019833 0 0.84804809178421925 0.84804809178421925 0 0.52991927123019833 forward_v I I I I #
loop $-1 $-1 $177 $42 #
coedge $-1 $109 $109 $110 $178 reversed $66 $-1 #
coedge $-1 $110 $110 $109 $178 forward $68 $-1 #
coedge $-1 $111 $111 $69 $112 forward $106 $-1 #
edge $-1 $179 0 $179 6.2831853071796004 $111 $180 forward 7 unknown #
loop $-1 $-1 $118 $70 #
plane-surface $-1 -64.174321726126919 -16.604799086210853 2.1094173190557086 -0.52991927123019833 0 0.84804809178421925 0.84804809178421925 0 0.52991927123019833 forward_v I I I I #
loop $-1 $-1 $181 $45 #
coedge $-1 $116 $116 $117 $182 reversed $71 $-1 #
coedge $-1 $117 $117 $116 $182 forward $73 $-1 #
coedge $-1 $118 $118 $74 $119 forward $113 $-1 #
edge $-1 $183 0 $183 6.2831853071796004 $118 $184 forward 7 unknown #
face $-1 $185 $186 $18 $-1 $187 reversed single #
loop $-1 $-1 $188 $75 #
plane-surface $-1 -64.174321726126891 0 0 1 0 0 0 0 -1 forward_v I I I I #
coedge $-1 $189 $131 $190 $191 forward $76 $-1 #
coedge $-1 $192 $78 $189 $193 forward $49 $-1 #
coedge $-1 $78 $192 $194 $195 forward $49 $-1 #
coedge $-1 $134 $133 $78 $127 reversed $135 $-1 #
edge $-1 $196 -34.047036462029943 $197 34.047036462029943 $126 $198 forward 7 unknown #
coedge $-1 $80 $79 $199 $200 forward $31 $-1 #
coedge $-1 $201 $202 $79 $130 reversed $186 $-1 #
edge $-1 $137 -64.174321726126891 $203 64.174321726126891 $129 $204 forward 7 unknown #
coedge $-1 $123 $205 $80 $132 reversed $76 $-1 #
edge $-1 $206 -64.174321726126891 $136 64.174321726126891 $131 $207 forward 7 unknown #
coedge $-1 $126 $81 $205 $208 forward $135 $-1 #
coedge $-1 $81 $126 $201 $209 reversed $135 $-1 #
loop $-1 $-1 $133 $185 #
vertex $-1 $82 $210 #
vertex $-1 $82 $211 #
straight-curve $-1 64.174321726126891 0 12.940928706097775 0 1 0 I I #
face $-1 $212 $213 $19 $-1 $214 forward single #
loop $-1 $-1 $148 $83 #
plane-surface $-1 0 -34.047036462029943 0 0 1 0 0 0 1 forward_v I I I I #
coedge $-1 $215 $216 $144 $217 forward $84 $-1 #
coedge $-1 $150 $86 $152 $218 reversed $53 $-1 #
coedge $-1 $86 $150 $142 $217 reversed $53 $-1 #
coedge $-1 $219 $220 $86 $146 forward $213 $-1 #
edge $-1 $221 -64.174321726126891 $222 64.174321726126891 $145 $223 forward 7 unknown #
coedge $-1 $88 $87 $215 $224 reversed $34 $-1 #
coedge $-1 $225 $226 $87 $149 forward $140 $-1 #
edge $-1 $227 -64.174321726126891 $155 64.174321726126891 $148 $228 forward 7 unknown #
coedge $-1 $144 $143 $88 $151 reversed $53 $-1 #
edge $-1 $229 -64.174321726126891 $156 64.174321726126891 $150 $230 forward 7 unknown #
coedge $-1 $231 $89 $143 $218 forward $154 $-1 #
coedge $-1 $89 $231 $225 $232 forward $154 $-1 #
loop $-1 $-1 $152 $212 #
vertex $-1 $149 $233 #
vertex $-1 $90 $234 #
straight-curve $-1 64.174321726126891 -14.61985140519127 9.5919346803411347 0 1 0 I I #
face $-1 $-1 $235 $20 $-1 $236 forward single #
loop $-1 $-1 $237 $91 #
plane-surface $-1 -64.174321726126891 0 0 1 0 0 0 0 -1 forward_v I I I I #
coedge $-1 $162 $94 $96 $168 reversed $57 $-1 #
coedge $-1 $94 $161 $237 $238 reversed $57 $-1 #
coedge $-1 $239 $97 $94 $164 forward $92 $-1 #
edge $-1 $171 -19.254090293878434 $240 -1.9200489377380165 $163 $241 forward 7 unknown #
coedge $-1 $96 $95 $242 $243 reversed $37 $-1 #
coedge $-1 $244 $245 $95 $167 forward $235 $-1 #
edge $-1 $246 -29.637694732594866 $170 -9.1977674170683272 $166 $247 forward 7 unknown #
edge $-1 $248 3.3516233665497261e-014 $171 20.439927315526571 $161 $249 forward 7 unknown #
coedge $-1 $97 $239 $244 $250 forward $92 $-1 #
vertex $-1 $167 $251 #
vertex $-1 $98 $252 #
straight-curve $-1 -46.840280369986473 -8.3023995431054267 12.940928706097775 0 1 0 I I #
coedge $-1 $173 $173 $-1 $253 reversed $101 $-1 #
edge $-1 $254 0 $254 6.2831853071796004 $102 $255 forward 7 unknown #
vertex $-1 $105 $256 #
ellipse-curve $-1 -55.507301048056668 -21.301341129725422 7.5251730125767597 -0.52991927123019833 0 0.84804809178421925 1.2720721376763289 0 0.79487890684529749 1 I I #
coedge $-1 $177 $177 $-1 $257 reversed $108 $-1 #
edge $-1 $258 0 $258 6.2831853071796004 $109 $259 forward 7 unknown #
vertex $-1 $112 $260 #
ellipse-curve $-1 -55.507301048056668 -16.604799086210853 7.5251730125767597 -0.52991927123019833 0 0.84804809178421925 1.2720721376763289 0 0.79487890684529749 1 I I #
coedge $-1 $181 $181 $-1 $261 reversed $115 $-1 #
edge $-1 $262 0 $262 6.2831853071796004 $116 $263 forward 7 unknown #
vertex $-1 $119 $264 #
ellipse-curve $-1 -55.507301048056668 -11.908257042696285 7.5251730125767597 -0.52991927123019833 0 0.84804809178421925 1.2720721376763289 0 0.79487890684529749 1 I I #
face $-1 $-1 $135 $18 $-1 $265 reversed single #
loop $-1 $-1 $201 $120 #
plane-surface $-1 0 34.047036462029943 0 0 -1 0 0 0 -1 forward_v I I I I #
coedge $-1 $266 $199 $202 $267 forward $121 $-1 #
coedge $-1 $205 $123 $124 $193 reversed $76 $-1 #
coedge $-1 $199 $266 $123 $191 reversed $121 $-1 #
edge $-1 $206 -12.940928706097775 $268 12.940928706097775 $190 $269 forward 7 unknown #
coedge $-1 $125 $124 $266 $270 forward $49 $-1 #
edge $-1 $197 -64.174321726126891 $268 64.174321726126891 $189 $271 forward 7 unknown #
coedge $-1 $202 $201 $125 $195 reversed $186 $-1 #
edge $-1 $272 -64.174321726126891 $196 64.174321726126891 $194 $273 forward 7 unknown #
vertex $-1 $127 $274 #
vertex $-1 $208 $275 #
straight-curve $-1 64.174321726126891 0 -12.940928706097775 0 -1 0 I I #
coedge $-1 $188 $190 $128 $200 reversed $121 $-1 #
edge $-1 $203 -34.047036462029943 $206 34.047036462029943 $199 $276 forward 7 unknown #
coedge $-1 $194 $129 $134 $209 forward $186 $-1 #
coedge $-1 $129 $194 $188 $267 reversed $186 $-1 #
vertex $-1 $130 $277 #
straight-curve $-1 0 34.047036462029943 12.940928706097775 -1 0 0 I I #
coedge $-1 $131 $189 $133 $208 reversed $76 $-1 #
vertex $-1 $200 $278 #
straight-curve $-1 0 -34.047036462029943 12.940928706097775 1 0 0 I I #
edge $-1 $136 -12.940928706097775 $197 12.940928706097775 $133 $279 forward 7 unknown #
edge $-1 $137 -12.940928706097775 $196 12.940928706097775 $134 $280 forward 7 unknown #
point $-1 64.174321726126891 -34.047036462029943 12.940928706097775 #
point $-1 64.174321726126891 34.047036462029943 12.940928706097775 #
face $-1 $-1 $154 $19 $-1 $281 reversed single #
loop $-1 $-1 $145 $139 #
plane-surface $-1 0 0 12.940928706097775 0 0 1 1 0 0 forward_v I I I I #
coedge $-1 $282 $142 $147 $224 forward $84 $-1 #
coedge $-1 $142 $282 $219 $283 reversed $84 $-1 #
edge $-1 $222 -7.3077128594880492 $229 -3.9587188337314068 $142 $284 forward 7 unknown #
edge $-1 $156 3.9587188337314068 $221 7.3077128594880492 $152 $285 forward 7 unknown #
coedge $-1 $286 $145 $216 $283 forward $213 $-1 #
coedge $-1 $145 $286 $231 $287 forward $213 $-1 #
vertex $-1 $218 $288 #
vertex $-1 $283 $289 #
straight-curve $-1 0 -24.432369158735135 12.940928706097775 -1 0 0 I I #
edge $-1 $229 9.8125177535438652 $227 19.427185056838674 $215 $290 forward 7 unknown #
coedge $-1 $291 $148 $153 $232 reversed $140 $-1 #
coedge $-1 $148 $291 $282 $292 forward $140 $-1 #
vertex $-1 $149 $293 #
straight-curve $-1 0 -34.047036462029943 9.5919346803411347 1 0 0 I I #
vertex $-1 $224 $294 #
straight-curve $-1 0 -24.432369158735135 9.5919346803411347 1 0 0 I I #
coedge $-1 $153 $152 $220 $287 reversed $154 $-1 #
edge $-1 $295 -12.940928706097775 $155 -9.5919346803411347 $153 $296 forward 7 unknown #
point $-1 64.174321726126891 -34.047036462029943 9.5919346803411347 #
point $-1 64.174321726126891 -24.432369158735135 9.5919346803411347 #
loop $-1 $-1 $166 $158 #
plane-surface $-1 0 -24.432369158735135 11.266431693219456 0 -1 0 0 0 -1 forward_v I I I I #
coedge $-1 $242 $297 $162 $238 forward $159 $-1 #
edge $-1 $240 42.536691034818546 $248 53.368202421860602 $237 $298 forward 7 unknown #
coedge $-1 $169 $163 $297 $299 forward $92 $-1 #
vertex $-1 $299 $300 #
straight-curve $-1 -66.094370663864908 -8.777229013686572 12.940928706097772 -1 0 0 I I #
coedge $-1 $301 $237 $165 $243 forward $159 $-1 #
edge $-1 $248 0.47482947058114533 $246 16.129969615629708 $242 $302 forward 7 unknown #
coedge $-1 $245 $166 $169 $250 reversed $235 $-1 #
coedge $-1 $166 $244 $301 $303 reversed $235 $-1 #
vertex $-1 $303 $304 #
straight-curve $-1 -39.040131263266609 -24.432369158735135 17.815002912695483 0.84804809178421925 0 0.52991927123019833 I I #
vertex $-1 $243 $305 #
straight-curve $-1 -64.174321726126919 -8.777229013686572 2.1094173190557086 0.84804809178421925 0 0.52991927123019833 I I #
edge $-1 $306 -64.174321726126891 $170 -46.840280369986473 $169 $307 forward 7 unknown #
point $-1 -46.840280369986473 -24.432369158735135 12.940928706097775 #
point $-1 -46.840280369986473 -8.777229013686572 12.940928706097775 #
edge $-1 $308 1 $308 0 $173 $-1 forward 7 unknown #
vertex $-1 $174 $309 #
ellipse-curve $-1 -53.759862857935673 -21.301341129725422 4.7286873909031986 -0.52991927123019833 0 0.84804809178421925 1.2720721376763289 0 0.79487890684529749 1 I I #
point $-1 -54.235228910380322 -21.301341129725422 8.3200519194220313 #
edge $-1 $310 1 $310 0 $177 $-1 forward 7 unknown #
vertex $-1 $178 $311 #
ellipse-curve $-1 -53.759862857935673 -16.604799086210853 4.7286873909031986 -0.52991927123019833 0 0.84804809178421925 1.2720721376763289 0 0.79487890684529749 1 I I #
point $-1 -54.235228910380322 -16.604799086210853 8.3200519194220313 #
edge $-1 $312 1 $312 0 $181 $-1 forward 7 unknown #
vertex $-1 $182 $313 #
ellipse-curve $-1 -53.759862857935673 -11.908257042696285 4.7286873909031986 -0.52991927123019833 0 0.84804809178421925 1.2720721376763289 0 0.79487890684529749 1 I I #
point $-1 -54.235228910380322 -11.908257042696285 8.3200519194220313 #
plane-surface $-1 64.174321726126891 0 0 -1 0 0 0 0 1 forward_v I I I I #
coedge $-1 $190 $188 $192 $270 reversed $121 $-1 #
edge $-1 $203 -12.940928706097775 $272 12.940928706097775 $202 $314 forward 7 unknown #
vertex $-1 $270 $315 #
straight-curve $-1 -64.174321726126891 -34.047036462029943 0 0 0 -1 I I #
edge $-1 $268 -34.047036462029943 $272 34.047036462029943 $266 $316 forward 7 unknown #
straight-curve $-1 0 -34.047036462029943 -12.940928706097775 -1 0 0 I I #
vertex $-1 $195 $317 #
straight-curve $-1 0 34.047036462029943 -12.940928706097775 1 0 0 I I #
point $-1 64.174321726126891 34.047036462029943 -12.940928706097775 #
point $-1 64.174321726126891 -34.047036462029943 -12.940928706097775 #
straight-curve $-1 -64.174321726126891 0 12.940928706097775 0 -1 0 I I #
point $-1 -64.174321726126891 34.047036462029943 12.940928706097775 #
point $-1 -64.174321726126891 -34.047036462029943 12.940928706097775 #
straight-curve $-1 64.174321726126891 -34.047036462029943 0 0 0 -1 I I #
straight-curve $-1 64.174321726126891 34.047036462029943 0 0 0 -1 I I #
plane-surface $-1 64.174321726126891 0 0 -1 0 0 0 0 1 forward_v I I I I #
coedge $-1 $216 $215 $226 $292 reversed $84 $-1 #
edge $-1 $222 24.432369158735135 $318 34.047036462029943 $216 $319 forward 7 unknown #
straight-curve $-1 -64.174321726126891 -24.432369158735135 5.633215846609728 0 0 -1 I I #
straight-curve $-1 64.174321726126891 -24.432369158735135 5.633215846609728 0 0 1 I I #
coedge $-1 $220 $219 $291 $320 forward $213 $-1 #
edge $-1 $295 -34.047036462029943 $221 -24.432369158735135 $231 $321 forward 7 unknown #
point $-1 64.174321726126891 -24.432369158735135 12.940928706097777 #
point $-1 -64.174321726126891 -24.432369158735135 12.940928706097777 #
straight-curve $-1 -64.174321726126891 -14.61985140519127 9.5919346803411347 0 -1 0 I I #
coedge $-1 $226 $225 $286 $320 reversed $140 $-1 #
edge $-1 $318 -12.940928706097775 $227 -9.5919346803411347 $282 $322 forward 7 unknown #
point $-1 -64.174321726126891 -34.047036462029943 9.5919346803411347 #
point $-1 -64.174321726126891 -24.432369158735135 9.5919346803411347 #
vertex $-1 $287 $323 #
straight-curve $-1 64.174321726126891 -34.047036462029943 0 0 0 -1 I I #
coedge $-1 $237 $301 $239 $299 reversed $159 $-1 #
straight-curve $-1 -64.174321726126891 -8.777229013686572 55.477619740916325 0 0 -1 I I #
edge $-1 $240 8.777229013686572 $306 24.432369158735135 $297 $324 forward 7 unknown #
point $-1 -64.174321726126891 -8.777229013686572 12.940928706097775 #
coedge $-1 $297 $242 $245 $303 forward $159 $-1 #
straight-curve $-1 -64.174321726126891 -8.3023995431054267 2.1094173190557264 0 -1 0 I I #
edge $-1 $246 -53.368202421860602 $306 -42.536691034818546 $301 $325 forward 7 unknown #
point $-1 -64.174321726126891 -24.432369158735135 2.1094173190557264 #
point $-1 -64.174321726126891 -8.777229013686572 2.1094173190557264 #
vertex $-1 $303 $326 #
straight-curve $-1 0 -24.432369158735135 12.940928706097775 1 0 0 I I #
vertex $-1 $253 $327 #
point $-1 -52.487790720259341 -21.301341129725422 5.5235662977484967 #
vertex $-1 $257 $328 #
point $-1 -52.487790720259341 -16.604799086210853 5.5235662977484967 #
vertex $-1 $261 $329 #
point $-1 -52.487790720259341 -11.908257042696285 5.5235662977484967 #
straight-curve $-1 -64.174321726126891 34.047036462029943 0 0 0 -1 I I #
point $-1 -64.174321726126891 -34.047036462029943 -12.940928706097775 #
straight-curve $-1 -64.174321726126891 0 -12.940928706097775 0 1 0 I I #
point $-1 -64.174321726126891 34.047036462029943 -12.940928706097775 #
vertex $-1 $283 $330 #
straight-curve $-1 -64.174321726126891 0 12.940928706097775 0 -1 0 I I #
edge $-1 $318 -64.174321726126891 $295 64.174321726126891 $291 $331 forward 7 unknown #
straight-curve $-1 64.174321726126891 0 12.940928706097775 0 1 0 I I #
straight-curve $-1 -64.174321726126891 -34.047036462029943 0 0 0 -1 I I #
point $-1 64.174321726126891 -34.047036462029943 12.940928706097775 #
straight-curve $-1 -64.174321726126891 0 12.940928706097775 0 -1 0 I I #
straight-curve $-1 -64.174321726126891 -24.432369158735135 55.477619740916325 0 0 1 I I #
point $-1 -64.174321726126891 -24.432369158735135 12.940928706097777 #
point $-1 -52.964983951090375 -21.301341129725422 3.4566152532268699 #
point $-1 -52.964983951090375 -16.604799086210853 3.4566152532268699 #
point $-1 -52.964983951090375 -11.908257042696285 3.4566152532268699 #
point $-1 -64.174321726126891 -34.047036462029943 12.940928706097775 #
straight-curve $-1 0 -34.047036462029943 12.940928706097775 1 0 0 I I #
End-of-ACIS-data 