500 0 9 0           
7 Unknown 11 ACIS 5.0 NT 24 Thu Mar 25 16:05:18 1999 
-1 9.9999999999999995e-007 1e-010 
body $-1 $9 $-1 $10 #
body $-1 $11 $-1 $12 #
body $-1 $13 $-1 $14 #
body $-1 $15 $-1 $16 #
body $-1 $17 $-1 $18 #
body $-1 $19 $-1 $20 #
body $-1 $21 $-1 $22 #
body $-1 $23 $-1 $24 #
body $-1 $25 $-1 $26 #
lump $-1 $-1 $27 $0 #
transform $-1 1 0 0 0 1 0 0 0 1 75.920285653248698 31.866733016770574 8.0080642011778309 1 rotate no_reflect no_shear #
lump $-1 $-1 $28 $1 #
transform $-1 1 0 0 0 1 0 0 0 1 75.920285653248698 31.866733016770574 8.0080642011778309 1 rotate no_reflect no_shear #
lump $-1 $-1 $29 $2 #
transform $-1 1 0 0 0 1 0 0 0 1 75.920285653248698 31.866733016770574 8.0080642011778309 1 rotate no_reflect no_shear #
lump $-1 $-1 $30 $3 #
transform $-1 1 0 0 0 1 0 0 0 1 75.920285653248698 31.866733016770574 8.0080642011778309 1 rotate no_reflect no_shear #
lump $-1 $-1 $31 $4 #
transform $-1 1 0 0 0 1 0 0 0 1 75.920285653248698 31.866733016770574 8.0080642011778309 1 rotate no_reflect no_shear #
lump $-1 $-1 $32 $5 #
transform $-1 1 0 0 0 1 0 0 0 1 75.920285653248698 31.866733016770574 8.0080642011778309 1 rotate no_reflect no_shear #
lump $-1 $-1 $33 $6 #
transform $-1 1 0 0 0 1 0 0 0 1 75.920285653248698 31.866733016770574 8.0080642011778309 1 rotate no_reflect no_shear #
lump $-1 $-1 $34 $7 #
transform $-1 1 0 0 0 1 0 0 0 1 75.920285653248698 31.866733016770574 8.0080642011778309 1 rotate no_reflect no_shear #
lump $-1 $-1 $35 $8 #
transform $-1 1 0 0 0 1 0 0 0 1 75.920285653248698 31.866733016770574 8.0080642011778309 1 rotate no_reflect no_shear #
shell $-1 $-1 $-1 $36 $-1 $9 #
shell $-1 $-1 $-1 $37 $-1 $11 #
shell $-1 $-1 $-1 $38 $-1 $13 #
shell $-1 $-1 $-1 $39 $-1 $15 #
shell $-1 $-1 $-1 $40 $-1 $17 #
shell $-1 $-1 $-1 $41 $-1 $19 #
shell $-1 $-1 $-1 $42 $-1 $21 #
shell $-1 $-1 $-1 $43 $-1 $23 #
shell $-1 $-1 $-1 $44 $-1 $25 #
face $-1 $45 $46 $27 $-1 $47 forward single #
face $-1 $48 $49 $28 $-1 $50 reversed single #
face $-1 $51 $52 $29 $-1 $53 reversed single #
face $-1 $54 $55 $30 $-1 $56 reversed single #
face $-1 $57 $58 $31 $-1 $59 forward single #
face $-1 $60 $61 $32 $-1 $62 forward single #
face $-1 $63 $64 $33 $-1 $65 reversed single #
face $-1 $66 $67 $34 $-1 $68 forward single #
face $-1 $69 $70 $35 $-1 $71 forward single #
face $-1 $72 $73 $27 $-1 $74 reversed single #
loop $-1 $-1 $75 $36 #
plane-surface $-1 0 0 8.0080642011778309 0 0 1 1 0 0 forward_v I I I I #
face $-1 $76 $77 $28 $-1 $78 reversed single #
loop $-1 $-1 $79 $37 #
plane-surface $-1 -71.692931035927941 0 3.5450842639425382 0 0 1 1 0 0 forward_v I I I I #
face $-1 $80 $81 $29 $-1 $82 reversed single #
loop $-1 $-1 $83 $38 #
plane-surface $-1 71.692931035927927 0 3.5450842639425382 0 0 1 1 0 0 forward_v I I I I #
face $-1 $84 $85 $30 $-1 $86 reversed single #
loop $-1 $-1 $87 $39 #
plane-surface $-1 -3.3443877690100123 107.21627850504225 150.23539478076759 1 0 0 0 -0.7660444514056185 -0.64278759981090561 forward_v I I I I #
face $-1 $88 $89 $31 $-1 $90 forward single #
loop $-1 $91 $92 $40 #
cone-surface $-1 7.3963835415525665 28.92286194912268 4.9169551849193889 0 -0.7660444514056185 -0.64278759981090561 1 0 0 1 I I 0 1 1 forward I I I I #
face $-1 $93 $94 $32 $-1 $95 forward single #
loop $-1 $96 $97 $41 #
cone-surface $-1 23.507540507396428 28.92286194912268 4.9169551849193889 0 -0.7660444514056185 -0.64278759981090561 1 0 0 1 I I 0 1 1 forward I I I I #
face $-1 $98 $99 $33 $-1 $100 reversed single #
loop $-1 $-1 $101 $42 #
plane-surface $-1 -41.609708760610253 -131.48311200088901 117.94820150970162 -1 0 0 0 -0.6560590369687036 0.75470957328743171 forward_v I I I I #
face $-1 $102 $103 $34 $-1 $104 forward single #
loop $-1 $105 $106 $43 #
cone-surface $-1 -60.078185659179489 -28.694340969240624 5.1112997397168778 0 0.6560590369687036 -0.75470957328743171 1 0 0 1 I I 0 1 1 forward I I I I #
face $-1 $107 $108 $35 $-1 $109 forward single #
loop $-1 $110 $111 $44 #
cone-surface $-1 -48.997099520037949 -28.694340969240624 5.1112997397168778 0 0.6560590369687036 -0.75470957328743171 1 0 0 1 I I 0 1 1 forward I I I I #
face $-1 $112 $113 $27 $-1 $114 reversed single #
loop $-1 $-1 $115 $45 #
plane-surface $-1 0 0 -8.0080642011778309 0 0 1 1 0 0 forward_v I I I I #
coedge $-1 $116 $117 $118 $119 forward $46 $-1 #
face $-1 $120 $121 $28 $-1 $122 reversed single #
loop $-1 $-1 $123 $48 #
plane-surface $-1 -67.465576418607185 0 5.7765742325601845 -1 0 0 0 0 1 forward_v I I I I #
coedge $-1 $124 $125 $126 $127 forward $49 $-1 #
face $-1 $128 $129 $29 $-1 $130 forward single #
loop $-1 $-1 $131 $51 #
plane-surface $-1 67.465576418607171 0 5.7765742325601845 1 0 0 0 0 -1 forward_v I I I I #
coedge $-1 $132 $133 $134 $135 reversed $52 $-1 #
face $-1 $136 $137 $30 $-1 $138 reversed single #
loop $-1 $-1 $139 $54 #
plane-surface $-1 15.451962024474497 -9.1003486425592399 52.634158396747466 0 0.7660444514056185 0.64278759981090561 1 0 0 forward_v I I I I #
coedge $-1 $140 $141 $142 $143 reversed $55 $-1 #
face $-1 $-1 $144 $31 $-1 $145 forward single #
loop $-1 $146 $147 $57 #
cone-surface $-1 7.3963835415525665 27.356640385431525 3.6027392828919886 0 -0.7660444514056185 -0.64278759981090561 0.5 0 0 1 I I -0.70710678118654779 0.70710678118654713 0.5 forward I I I I #
loop $-1 $-1 $148 $40 #
coedge $-1 $92 $92 $149 $150 reversed $58 $-1 #
face $-1 $-1 $151 $32 $-1 $152 forward single #
loop $-1 $153 $154 $60 #
cone-surface $-1 23.507540507396428 27.356640385431525 3.6027392828919886 0 -0.7660444514056185 -0.64278759981090561 0.5 0 0 1 I I -0.70710678118654779 0.70710678118654713 0.5 forward I I I I #
loop $-1 $-1 $155 $41 #
coedge $-1 $97 $97 $156 $157 reversed $61 $-1 #
face $-1 $158 $159 $33 $-1 $160 forward single #
loop $-1 $-1 $161 $63 #
plane-surface $-1 -54.537642589608716 -31.866733016770553 3.3526687312551218 0 -0.6560590369687036 0.75470957328743171 1 0 0 forward_v I I I I #
coedge $-1 $162 $163 $164 $165 reversed $64 $-1 #
face $-1 $-1 $166 $34 $-1 $167 forward single #
loop $-1 $168 $169 $66 #
cone-surface $-1 -60.078185659179489 -27.871629281916107 4.1648782265735562 0 0.6560590369687036 -0.75470957328743171 0.5 0 0 1 I I -0.70710678118654746 0.70710678118654746 0.5 forward I I I I #
loop $-1 $-1 $170 $43 #
coedge $-1 $106 $106 $171 $172 reversed $67 $-1 #
face $-1 $-1 $173 $35 $-1 $174 forward single #
loop $-1 $175 $176 $69 #
cone-surface $-1 -48.997099520037949 -27.871629281916107 4.1648782265735562 0 0.6560590369687036 -0.75470957328743171 0.5 0 0 1 I I -0.70710678118654746 0.70710678118654746 0.5 forward I I I I #
loop $-1 $-1 $177 $44 #
coedge $-1 $111 $111 $178 $179 reversed $70 $-1 #
face $-1 $180 $181 $27 $-1 $182 reversed single #
loop $-1 $-1 $183 $72 #
plane-surface $-1 0 -31.866733016770574 0 0 1 0 0 0 1 forward_v I I I I #
coedge $-1 $184 $185 $186 $187 forward $73 $-1 #
coedge $-1 $188 $75 $189 $190 forward $46 $-1 #
coedge $-1 $75 $188 $191 $192 forward $46 $-1 #
coedge $-1 $193 $194 $75 $119 reversed $195 $-1 #
edge $-1 $196 -31.866733016770574 $197 31.866733016770574 $118 $198 forward 7 unknown #
face $-1 $199 $200 $28 $-1 $201 reversed single #
loop $-1 $-1 $202 $76 #
plane-surface $-1 0 31.866733016770574 0 0 -1 0 0 0 -1 forward_v I I I I #
coedge $-1 $126 $203 $204 $205 reversed $77 $-1 #
coedge $-1 $206 $79 $207 $208 reversed $49 $-1 #
coedge $-1 $79 $206 $209 $210 reversed $49 $-1 #
coedge $-1 $211 $123 $79 $127 reversed $77 $-1 #
edge $-1 $212 -31.866733016770574 $213 31.866733016770574 $126 $214 forward 7 unknown #
face $-1 $215 $216 $29 $-1 $217 reversed single #
loop $-1 $-1 $218 $80 #
plane-surface $-1 0 0 8.0080642011778309 0 0 1 1 0 0 forward_v I I I I #
coedge $-1 $219 $220 $221 $222 reversed $81 $-1 #
coedge $-1 $223 $83 $224 $225 reversed $52 $-1 #
coedge $-1 $83 $223 $226 $227 reversed $52 $-1 #
coedge $-1 $228 $229 $83 $135 forward $230 $-1 #
edge $-1 $231 -31.866733016770574 $232 31.866733016770574 $134 $233 forward 7 unknown #
face $-1 $234 $235 $30 $-1 $236 reversed single #
loop $-1 $-1 $237 $84 #
plane-surface $-1 34.248311817959006 107.21627850504225 150.23539478076759 -1 0 0 0 0.7660444514056185 0.64278759981090561 forward_v I I I I #
coedge $-1 $238 $239 $240 $241 reversed $85 $-1 #
coedge $-1 $141 $87 $242 $243 reversed $55 $-1 #
coedge $-1 $87 $140 $238 $244 reversed $55 $-1 #
coedge $-1 $240 $245 $87 $143 forward $246 $-1 #
edge $-1 $247 21.741406235750553 $248 25.262749695069687 $142 $249 forward 7 unknown #
loop $-1 $-1 $149 $88 #
plane-surface $-1 15.451962024474497 -9.1003486425592399 52.634158396747466 0 0.7660444514056185 0.64278759981090561 1 0 0 forward_v I I I I #
loop $-1 $-1 $250 $57 #
coedge $-1 $147 $147 $148 $251 reversed $89 $-1 #
coedge $-1 $148 $148 $147 $251 forward $91 $-1 #
coedge $-1 $149 $149 $92 $150 forward $144 $-1 #
edge $-1 $252 -2.1894815133320979e-015 $252 6.2831853071795987 $149 $253 forward 7 unknown #
loop $-1 $-1 $156 $93 #
plane-surface $-1 15.451962024474497 -9.1003486425592399 52.634158396747466 0 0.7660444514056185 0.64278759981090561 1 0 0 forward_v I I I I #
loop $-1 $-1 $254 $60 #
coedge $-1 $154 $154 $155 $255 reversed $94 $-1 #
coedge $-1 $155 $155 $154 $255 forward $96 $-1 #
coedge $-1 $156 $156 $97 $157 forward $151 $-1 #
edge $-1 $256 -2.1894815133320979e-015 $256 6.2831853071795987 $156 $257 forward 7 unknown #
face $-1 $258 $259 $33 $-1 $260 forward single #
loop $-1 $-1 $164 $98 #
plane-surface $-1 0 0 8.0080642011778309 0 0 1 1 0 0 forward_v I I I I #
coedge $-1 $261 $262 $263 $264 reversed $99 $-1 #
coedge $-1 $163 $101 $265 $266 reversed $64 $-1 #
coedge $-1 $101 $162 $261 $267 reversed $64 $-1 #
coedge $-1 $263 $268 $101 $165 forward $159 $-1 #
edge $-1 $269 33.87482298367393 $270 39.230242741053523 $164 $271 forward 7 unknown #
loop $-1 $-1 $171 $102 #
plane-surface $-1 -54.537642589608716 -31.866733016770553 3.3526687312551218 0 -0.6560590369687036 0.75470957328743171 1 0 0 forward_v I I I I #
loop $-1 $-1 $272 $66 #
coedge $-1 $169 $169 $170 $273 reversed $103 $-1 #
coedge $-1 $170 $170 $169 $273 forward $105 $-1 #
coedge $-1 $171 $171 $106 $172 forward $166 $-1 #
edge $-1 $274 -2.3651348183250558e-016 $274 6.2831853071796004 $171 $275 forward 7 unknown #
loop $-1 $-1 $178 $107 #
plane-surface $-1 -54.537642589608716 -31.866733016770553 3.3526687312551218 0 -0.6560590369687036 0.75470957328743171 1 0 0 forward_v I I I I #
loop $-1 $-1 $276 $69 #
coedge $-1 $176 $176 $177 $277 reversed $108 $-1 #
coedge $-1 $177 $177 $176 $277 forward $110 $-1 #
coedge $-1 $178 $178 $111 $179 forward $173 $-1 #
edge $-1 $278 -2.3651348183250558e-016 $278 6.2831853071796004 $178 $279 forward 7 unknown #
face $-1 $280 $281 $27 $-1 $282 reversed single #
loop $-1 $-1 $283 $112 #
plane-surface $-1 -75.920285653248698 0 0 1 0 0 0 0 -1 forward_v I I I I #
coedge $-1 $284 $191 $285 $286 forward $113 $-1 #
coedge $-1 $287 $115 $284 $288 forward $73 $-1 #
coedge $-1 $115 $287 $289 $290 forward $73 $-1 #
coedge $-1 $194 $193 $115 $187 reversed $195 $-1 #
edge $-1 $291 -31.866733016770574 $292 31.866733016770574 $186 $293 forward 7 unknown #
coedge $-1 $117 $116 $294 $295 forward $46 $-1 #
coedge $-1 $296 $297 $116 $190 reversed $281 $-1 #
edge $-1 $197 -75.920285653248698 $298 75.920285653248698 $189 $299 forward 7 unknown #
coedge $-1 $183 $300 $117 $192 reversed $113 $-1 #
edge $-1 $301 -75.920285653248698 $196 75.920285653248698 $191 $302 forward 7 unknown #
coedge $-1 $186 $118 $300 $303 forward $195 $-1 #
coedge $-1 $118 $186 $296 $304 reversed $195 $-1 #
loop $-1 $-1 $193 $280 #
vertex $-1 $119 $305 #
vertex $-1 $119 $306 #
straight-curve $-1 75.920285653248698 0 8.0080642011778309 0 1 0 I I #
face $-1 $307 $308 $28 $-1 $309 forward single #
loop $-1 $-1 $310 $120 #
plane-surface $-1 -75.920285653248698 0 0 1 0 0 0 0 -1 forward_v I I I I #
coedge $-1 $209 $311 $211 $312 forward $121 $-1 #
coedge $-1 $123 $211 $313 $314 reversed $77 $-1 #
coedge $-1 $315 $207 $123 $205 forward $316 $-1 #
edge $-1 $213 0.6567971476624459 $317 5.1197770848977386 $204 $318 forward 7 unknown #
coedge $-1 $125 $124 $310 $319 reversed $49 $-1 #
coedge $-1 $204 $320 $124 $208 forward $316 $-1 #
edge $-1 $321 -40.073820135284727 $213 -31.619110900643214 $207 $322 forward 7 unknown #
coedge $-1 $323 $202 $125 $210 forward $121 $-1 #
edge $-1 $212 31.619110900643214 $324 40.073820135284727 $209 $325 forward 7 unknown #
coedge $-1 $203 $126 $202 $312 reversed $77 $-1 #
vertex $-1 $210 $326 #
vertex $-1 $208 $327 #
straight-curve $-1 -67.465576418607185 0 3.5450842639425382 0 -1 0 I I #
face $-1 $328 $329 $29 $-1 $330 reversed single #
loop $-1 $-1 $331 $128 #
plane-surface $-1 0 -31.866733016770574 0 0 1 0 0 0 1 forward_v I I I I #
coedge $-1 $332 $333 $220 $334 forward $129 $-1 #
coedge $-1 $335 $131 $223 $336 reversed $81 $-1 #
coedge $-1 $131 $335 $218 $334 reversed $81 $-1 #
coedge $-1 $337 $226 $131 $222 forward $329 $-1 #
edge $-1 $338 0.6567971476624459 $339 5.1197770848977386 $221 $340 forward 7 unknown #
coedge $-1 $133 $132 $219 $336 forward $52 $-1 #
coedge $-1 $341 $331 $132 $225 forward $216 $-1 #
edge $-1 $342 31.619110900643207 $231 40.07382013528472 $224 $343 forward 7 unknown #
coedge $-1 $221 $344 $133 $227 forward $329 $-1 #
edge $-1 $232 -40.07382013528472 $338 -31.619110900643207 $226 $345 forward 7 unknown #
coedge $-1 $346 $134 $344 $347 reversed $230 $-1 #
coedge $-1 $134 $346 $341 $348 forward $230 $-1 #
loop $-1 $-1 $134 $328 #
vertex $-1 $225 $349 #
vertex $-1 $135 $350 #
straight-curve $-1 75.920285653248698 0 3.5450842639425382 0 1 0 I I #
face $-1 $-1 $246 $30 $-1 $351 forward single #
loop $-1 $-1 $352 $136 #
plane-surface $-1 0 31.866733016770574 0 0 -1 0 0 0 -1 forward_v I I I I #
coedge $-1 $353 $354 $355 $356 reversed $137 $-1 #
coedge $-1 $357 $139 $141 $244 forward $85 $-1 #
coedge $-1 $139 $357 $353 $358 forward $85 $-1 #
coedge $-1 $355 $142 $139 $241 forward $246 $-1 #
edge $-1 $248 -11.070368781247261 $359 26.522330805721758 $240 $360 forward 7 unknown #
coedge $-1 $361 $362 $140 $243 forward $235 $-1 #
edge $-1 $363 -71.306207017479011 $247 -67.109633189205965 $242 $364 forward 7 unknown #
edge $-1 $248 58.255228027153017 $363 63.733466033541198 $141 $365 forward 7 unknown #
coedge $-1 $142 $355 $361 $366 forward $246 $-1 #
loop $-1 $-1 $355 $234 #
vertex $-1 $243 $367 #
vertex $-1 $143 $368 #
straight-curve $-1 -3.3443877690100123 53.608139252521127 8.0080642011778309 0 -1 0 I I #
coedge $-1 $250 $250 $-1 $369 reversed $146 $-1 #
edge $-1 $370 0 $370 6.2831853071796004 $147 $371 forward 7 unknown #
vertex $-1 $150 $372 #
ellipse-curve $-1 7.3963835415525665 30.106061287111004 5.9097772870413188 0 0.7660444514056185 0.64278759981090561 1 0 0 1 I I #
coedge $-1 $254 $254 $-1 $373 reversed $153 $-1 #
edge $-1 $374 0 $374 6.2831853071796004 $154 $375 forward 7 unknown #
vertex $-1 $157 $376 #
ellipse-curve $-1 23.507540507396428 30.106061287111004 5.9097772870413188 0 0.7660444514056185 0.64278759981090561 1 0 0 1 I I #
face $-1 $-1 $377 $33 $-1 $378 reversed single #
loop $-1 $-1 $379 $158 #
plane-surface $-1 -67.465576418607185 0 5.7765742325601845 -1 0 0 0 0 1 forward_v I I I I #
coedge $-1 $380 $161 $163 $267 forward $99 $-1 #
coedge $-1 $161 $380 $379 $381 forward $99 $-1 #
coedge $-1 $382 $164 $161 $264 forward $159 $-1 #
edge $-1 $270 14.340887465805896 $383 40.196755123802831 $263 $384 forward 7 unknown #
coedge $-1 $385 $386 $162 $266 forward $377 $-1 #
edge $-1 $387 -55.621432023595709 $269 -50.966036553672978 $265 $388 forward 7 unknown #
edge $-1 $270 -7.0960008285729756 $387 2.8324249199621518e-014 $163 $389 forward 7 unknown #
coedge $-1 $164 $382 $385 $390 forward $159 $-1 #
vertex $-1 $266 $391 #
vertex $-1 $165 $392 #
straight-curve $-1 -41.609708760610253 -65.741556000444504 8.0080642011778309 0 1 0 I I #
coedge $-1 $272 $272 $-1 $393 reversed $168 $-1 #
edge $-1 $394 0 $394 6.2831853071796004 $169 $395 forward 7 unknown #
vertex $-1 $172 $396 #
ellipse-curve $-1 -60.078185659179489 -29.189023138080778 5.6803664662164675 0 -0.6560590369687036 0.75470957328743171 1 0 0 1 I I #
coedge $-1 $276 $276 $-1 $397 reversed $175 $-1 #
edge $-1 $398 0 $398 6.2831853071796004 $176 $399 forward 7 unknown #
vertex $-1 $179 $400 #
ellipse-curve $-1 -48.997099520037949 -29.189023138080778 5.6803664662164675 0 -0.6560590369687036 0.75470957328743171 1 0 0 1 I I #
face $-1 $-1 $195 $27 $-1 $401 reversed single #
loop $-1 $-1 $296 $180 #
plane-surface $-1 0 31.866733016770574 0 0 -1 0 0 0 -1 forward_v I I I I #
coedge $-1 $402 $294 $297 $403 forward $181 $-1 #
coedge $-1 $300 $183 $184 $288 reversed $113 $-1 #
coedge $-1 $294 $402 $183 $286 reversed $181 $-1 #
edge $-1 $301 -8.0080642011778309 $404 8.0080642011778309 $285 $405 forward 7 unknown #
coedge $-1 $185 $184 $402 $406 forward $73 $-1 #
edge $-1 $292 -75.920285653248698 $404 75.920285653248698 $284 $407 forward 7 unknown #
coedge $-1 $297 $296 $185 $290 reversed $281 $-1 #
edge $-1 $408 -75.920285653248698 $291 75.920285653248698 $289 $409 forward 7 unknown #
vertex $-1 $187 $410 #
vertex $-1 $303 $411 #
straight-curve $-1 75.920285653248698 0 -8.0080642011778309 0 -1 0 I I #
coedge $-1 $283 $285 $188 $295 reversed $181 $-1 #
edge $-1 $298 -31.866733016770574 $301 31.866733016770574 $294 $412 forward 7 unknown #
coedge $-1 $289 $189 $194 $304 forward $281 $-1 #
coedge $-1 $189 $289 $283 $403 reversed $281 $-1 #
vertex $-1 $190 $413 #
straight-curve $-1 0 31.866733016770574 8.0080642011778309 -1 0 0 I I #
coedge $-1 $191 $284 $193 $303 reversed $113 $-1 #
vertex $-1 $295 $414 #
straight-curve $-1 0 -31.866733016770574 8.0080642011778309 1 0 0 I I #
edge $-1 $196 -8.0080642011778309 $292 8.0080642011778309 $193 $415 forward 7 unknown #
edge $-1 $197 -8.0080642011778309 $291 8.0080642011778309 $194 $416 forward 7 unknown #
point $-1 75.920285653248698 -31.866733016770574 8.0080642011778309 #
point $-1 75.920285653248698 31.866733016770574 8.0080642011778309 #
face $-1 $-1 $316 $28 $-1 $417 reversed single #
loop $-1 $-1 $313 $199 #
plane-surface $-1 0 0 8.0080642011778309 0 0 1 1 0 0 forward_v I I I I #
coedge $-1 $418 $419 $206 $319 forward $200 $-1 #
coedge $-1 $202 $323 $420 $421 reversed $121 $-1 #
edge $-1 $422 -5.1197770848977386 $212 -0.6567971476624459 $202 $423 forward 7 unknown #
coedge $-1 $420 $424 $203 $314 forward $308 $-1 #
edge $-1 $317 -31.866733016770574 $422 31.866733016770574 $313 $425 forward 7 unknown #
coedge $-1 $320 $204 $424 $426 reversed $316 $-1 #
loop $-1 $-1 $204 $307 #
vertex $-1 $205 $427 #
straight-curve $-1 -67.465576418607185 -31.866733016770574 2.8882871162800923 0 0 1 I I #
edge $-1 $324 -31.866733016770574 $321 31.866733016770574 $310 $428 forward 7 unknown #
coedge $-1 $207 $315 $418 $429 forward $316 $-1 #
vertex $-1 $319 $430 #
straight-curve $-1 -35.846465517963971 -31.866733016770574 3.5450842639425382 1 0 0 I I #
coedge $-1 $311 $209 $419 $431 reversed $121 $-1 #
vertex $-1 $319 $432 #
straight-curve $-1 -35.846465517963971 31.866733016770574 3.5450842639425382 -1 0 0 I I #
point $-1 -67.465576418607185 31.866733016770574 3.5450842639425382 #
point $-1 -67.465576418607185 -31.866733016770574 3.5450842639425382 #
face $-1 $-1 $230 $29 $-1 $433 reversed single #
loop $-1 $-1 $221 $215 #
plane-surface $-1 0 31.866733016770574 0 0 -1 0 0 0 -1 forward_v I I I I #
coedge $-1 $224 $434 $335 $435 forward $216 $-1 #
coedge $-1 $436 $218 $434 $437 forward $129 $-1 #
coedge $-1 $218 $436 $337 $438 forward $129 $-1 #
edge $-1 $339 -31.866733016770574 $439 31.866733016770574 $218 $440 forward 7 unknown #
coedge $-1 $220 $219 $331 $435 reversed $81 $-1 #
edge $-1 $342 -31.866733016770574 $338 31.866733016770574 $219 $441 forward 7 unknown #
coedge $-1 $344 $221 $333 $438 reversed $329 $-1 #
vertex $-1 $227 $442 #
vertex $-1 $222 $443 #
straight-curve $-1 67.465576418607171 31.866733016770574 2.8882871162800923 0 0 1 I I #
coedge $-1 $434 $224 $229 $348 reversed $216 $-1 #
vertex $-1 $225 $444 #
straight-curve $-1 35.846465517963964 -31.866733016770574 3.5450842639425382 1 0 0 I I #
coedge $-1 $226 $337 $228 $347 forward $329 $-1 #
straight-curve $-1 35.846465517963964 31.866733016770574 3.5450842639425382 -1 0 0 I I #
coedge $-1 $229 $228 $436 $445 reversed $230 $-1 #
edge $-1 $446 -8.0080642011778309 $232 -3.5450842639425382 $228 $447 forward 7 unknown #
edge $-1 $448 -8.0080642011778309 $231 -3.5450842639425382 $229 $449 forward 7 unknown #
point $-1 75.920285653248683 -31.866733016770574 3.5450842639425382 #
point $-1 75.920285653248683 31.866733016770574 3.5450842639425382 #
plane-surface $-1 0 0 8.0080642011778309 0 0 1 1 0 0 forward_v I I I I #
coedge $-1 $362 $361 $354 $450 forward $235 $-1 #
coedge $-1 $354 $237 $239 $358 reversed $137 $-1 #
coedge $-1 $237 $353 $352 $450 reversed $137 $-1 #
coedge $-1 $245 $240 $237 $356 forward $246 $-1 #
edge $-1 $359 -25.262749695069687 $451 -21.741406235750553 $355 $452 forward 7 unknown #
coedge $-1 $239 $238 $362 $453 reversed $85 $-1 #
edge $-1 $454 -63.733466033541198 $359 -58.255228027153017 $353 $455 forward 7 unknown #
vertex $-1 $241 $456 #
straight-curve $-1 7.7259810122372485 28.345389557451437 8.0080642011778309 1 0 0 I I #
coedge $-1 $352 $242 $245 $366 reversed $235 $-1 #
coedge $-1 $242 $352 $357 $453 forward $235 $-1 #
vertex $-1 $243 $457 #
straight-curve $-1 -3.3443877690100123 31.866733016770574 75.117697390383796 0 0 1 I I #
straight-curve $-1 -3.3443877690100123 -9.1003486425592399 52.634158396747466 0 0.64278759981090561 -0.7660444514056185 I I #
edge $-1 $451 -34.248311817959006 $247 3.3443877690100123 $361 $458 forward 7 unknown #
point $-1 -3.3443877690100123 31.866733016770574 8.0080642011778309 #
point $-1 -3.3443877690100123 28.345389557451441 8.0080642011778309 #
edge $-1 $459 1 $459 0 $250 $-1 forward 7 unknown #
vertex $-1 $251 $460 #
ellipse-curve $-1 7.3963835415525665 27.739662611134335 3.9241330827974412 0 0.7660444514056185 0.64278759981090561 1 0 0 1 I I #
point $-1 8.3963835415525665 30.106061287111022 5.9097772870413365 #
edge $-1 $461 1 $461 0 $254 $-1 forward 7 unknown #
vertex $-1 $255 $462 #
ellipse-curve $-1 23.507540507396428 27.739662611134335 3.9241330827974412 0 0.7660444514056185 0.64278759981090561 1 0 0 1 I I #
point $-1 24.507540507396428 30.106061287111022 5.9097772870413365 #
loop $-1 $-1 $265 $258 #
plane-surface $-1 0 -31.866733016770574 0 0 1 0 0 0 1 forward_v I I I I #
coedge $-1 $463 $464 $262 $381 reversed $259 $-1 #
coedge $-1 $262 $261 $386 $465 reversed $99 $-1 #
edge $-1 $466 -2.8324249199621518e-014 $383 7.0960008285729756 $379 $467 forward 7 unknown #
coedge $-1 $268 $263 $464 $468 forward $159 $-1 #
vertex $-1 $468 $469 #
straight-curve $-1 -27.268821294804358 -26.511313259390981 8.0080642011778309 -1 0 0 I I #
coedge $-1 $470 $265 $268 $390 reversed $377 $-1 #
coedge $-1 $265 $470 $380 $465 forward $377 $-1 #
vertex $-1 $266 $471 #
straight-curve $-1 -41.609708760610253 -31.866733016770574 58.974100754850809 0 0 1 I I #
straight-curve $-1 -41.609708760610253 -31.866733016770553 3.3526687312551218 0 -0.75470957328743171 -0.6560590369687036 I I #
edge $-1 $472 -67.465576418607185 $269 -41.609708760610253 $385 $473 forward 7 unknown #
point $-1 -41.609708760610253 -31.866733016770574 8.0080642011778309 #
point $-1 -41.609708760610253 -26.511313259390981 8.0080642011778309 #
edge $-1 $474 1 $474 0 $272 $-1 forward 7 unknown #
vertex $-1 $273 $475 #
ellipse-curve $-1 -60.078185659179489 -28.19965880040046 4.5422330132172721 0 -0.6560590369687036 0.75470957328743171 1 0 0 1 I I #
point $-1 -59.078185659179489 -29.189023138080792 5.6803664662164834 #
edge $-1 $476 1 $476 0 $276 $-1 forward 7 unknown #
vertex $-1 $277 $477 #
ellipse-curve $-1 -48.997099520037949 -28.19965880040046 4.5422330132172721 0 -0.6560590369687036 0.75470957328743171 1 0 0 1 I I #
point $-1 -47.997099520037949 -29.189023138080792 5.6803664662164834 #
plane-surface $-1 75.920285653248698 0 0 -1 0 0 0 0 1 forward_v I I I I #
coedge $-1 $285 $283 $287 $406 reversed $181 $-1 #
edge $-1 $298 -8.0080642011778309 $408 8.0080642011778309 $297 $478 forward 7 unknown #
vertex $-1 $406 $479 #
straight-curve $-1 -75.920285653248698 -31.866733016770574 0 0 0 -1 I I #
edge $-1 $404 -31.866733016770574 $408 31.866733016770574 $402 $480 forward 7 unknown #
straight-curve $-1 0 -31.866733016770574 -8.0080642011778309 -1 0 0 I I #
vertex $-1 $290 $481 #
straight-curve $-1 0 31.866733016770574 -8.0080642011778309 1 0 0 I I #
point $-1 75.920285653248698 31.866733016770574 -8.0080642011778309 #
point $-1 75.920285653248698 -31.866733016770574 -8.0080642011778309 #
straight-curve $-1 -75.920285653248698 0 8.0080642011778309 0 -1 0 I I #
point $-1 -75.920285653248698 31.866733016770574 8.0080642011778309 #
point $-1 -75.920285653248698 -31.866733016770574 8.0080642011778309 #
straight-curve $-1 75.920285653248698 -31.866733016770574 0 0 0 -1 I I #
straight-curve $-1 75.920285653248698 31.866733016770574 0 0 0 -1 I I #
plane-surface $-1 0 -31.866733016770574 0 0 1 0 0 0 1 forward_v I I I I #
coedge $-1 $482 $310 $320 $429 reversed $200 $-1 #
coedge $-1 $310 $482 $323 $431 forward $200 $-1 #
coedge $-1 $483 $313 $311 $421 forward $308 $-1 #
edge $-1 $422 67.465576418607185 $484 75.920285653248698 $311 $485 forward 7 unknown #
vertex $-1 $421 $486 #
straight-curve $-1 -67.465576418607185 31.866733016770574 2.8882871162800923 0 0 -1 I I #
coedge $-1 $313 $483 $315 $426 forward $308 $-1 #
straight-curve $-1 -67.465576418607185 0 8.0080642011778309 0 1 0 I I #
edge $-1 $487 -75.920285653248698 $317 -67.465576418607185 $315 $488 forward 7 unknown #
point $-1 -67.465576418607185 -31.866733016770574 8.0080642011778309 #
straight-curve $-1 -75.920285653248698 0 3.5450842639425382 0 -1 0 I I #
edge $-1 $487 -8.0080642011778309 $321 -3.5450842639425382 $418 $489 forward 7 unknown #
point $-1 -75.920285653248698 -31.866733016770574 3.5450842639425382 #
edge $-1 $484 -8.0080642011778309 $324 -3.5450842639425382 $323 $490 forward 7 unknown #
point $-1 -75.920285653248698 31.866733016770574 3.5450842639425382 #
plane-surface $-1 75.920285653248698 0 0 -1 0 0 0 0 1 forward_v I I I I #
coedge $-1 $331 $341 $332 $437 reversed $216 $-1 #
edge $-1 $439 -5.1197770848977386 $342 -0.6567971476624459 $331 $491 forward 7 unknown #
coedge $-1 $333 $332 $346 $445 forward $129 $-1 #
edge $-1 $439 67.465576418607171 $448 75.920285653248698 $434 $492 forward 7 unknown #
edge $-1 $446 -75.920285653248698 $339 -67.465576418607171 $337 $493 forward 7 unknown #
vertex $-1 $437 $494 #
straight-curve $-1 67.465576418607171 0 8.0080642011778309 0 -1 0 I I #
straight-curve $-1 67.465576418607171 0 3.5450842639425382 0 1 0 I I #
point $-1 67.465576418607171 31.866733016770574 3.5450842639425382 #
point $-1 67.465576418607171 31.866733016770574 8.0080642011778309 #
point $-1 67.465576418607171 -31.866733016770574 3.5450842639425382 #
edge $-1 $448 -31.866733016770574 $446 31.866733016770574 $346 $495 forward 7 unknown #
vertex $-1 $445 $496 #
straight-curve $-1 75.920285653248698 31.866733016770574 0 0 0 -1 I I #
vertex $-1 $445 $497 #
straight-curve $-1 75.920285653248698 -31.866733016770574 0 0 0 -1 I I #
edge $-1 $451 67.109633189205965 $454 71.306207017479011 $352 $498 forward 7 unknown #
vertex $-1 $366 $499 #
straight-curve $-1 34.248311817959006 53.608139252521127 8.0080642011778309 0 1 0 I I #
edge $-1 $454 -26.522330805721758 $363 11.070368781247261 $362 $500 forward 7 unknown #
vertex $-1 $453 $501 #
straight-curve $-1 34.248311817959006 -9.1003486425592399 52.634158396747466 0 -0.64278759981090561 0.7660444514056185 I I #
point $-1 34.248311817959006 28.345389557451441 8.0080642011778309 #
point $-1 -3.3443877690100123 31.866733016770574 3.8114903729047924 #
straight-curve $-1 0 31.866733016770574 8.0080642011778309 -1 0 0 I I #
vertex $-1 $369 $502 #
point $-1 8.3963835415525665 27.739662611134335 3.9241330827974412 #
vertex $-1 $373 $503 #
point $-1 24.507540507396428 27.739662611134335 3.9241330827974412 #
coedge $-1 $464 $379 $470 $504 reversed $259 $-1 #
coedge $-1 $379 $463 $382 $468 reversed $259 $-1 #
edge $-1 $466 -40.196755123802831 $387 -14.340887465805896 $386 $505 forward 7 unknown #
vertex $-1 $504 $506 #
straight-curve $-1 -67.465576418607185 -31.866733016770553 3.3526687312551218 0 0.75470957328743171 0.6560590369687036 I I #
edge $-1 $383 26.511313259390981 $472 31.866733016770574 $382 $507 forward 7 unknown #
point $-1 -67.465576418607185 -26.511313259390981 8.0080642011778309 #
coedge $-1 $386 $385 $463 $504 forward $377 $-1 #
point $-1 -41.609708760610253 -31.866733016770574 3.3526687312551031 #
vertex $-1 $390 $508 #
straight-curve $-1 0 -31.866733016770574 8.0080642011778309 1 0 0 I I #
vertex $-1 $393 $509 #
point $-1 -59.078185659179489 -28.19965880040046 4.5422330132172721 #
vertex $-1 $397 $510 #
point $-1 -47.997099520037949 -28.19965880040046 4.5422330132172721 #
straight-curve $-1 -75.920285653248698 31.866733016770574 0 0 0 -1 I I #
point $-1 -75.920285653248698 -31.866733016770574 -8.0080642011778309 #
straight-curve $-1 -75.920285653248698 0 -8.0080642011778309 0 1 0 I I #
point $-1 -75.920285653248698 31.866733016770574 -8.0080642011778309 #
coedge $-1 $419 $418 $483 $511 reversed $200 $-1 #
coedge $-1 $424 $420 $482 $511 forward $308 $-1 #
vertex $-1 $421 $512 #
straight-curve $-1 0 31.866733016770574 8.0080642011778309 -1 0 0 I I #
point $-1 -67.465576418607185 31.866733016770574 8.0080642011778309 #
vertex $-1 $511 $513 #
straight-curve $-1 0 -31.866733016770574 8.0080642011778309 1 0 0 I I #
straight-curve $-1 -75.920285653248698 -31.866733016770574 0 0 0 -1 I I #
straight-curve $-1 -75.920285653248698 31.866733016770574 0 0 0 -1 I I #
straight-curve $-1 67.465576418607171 -31.866733016770574 2.8882871162800923 0 0 -1 I I #
straight-curve $-1 0 -31.866733016770574 8.0080642011778309 1 0 0 I I #
straight-curve $-1 0 31.866733016770574 8.0080642011778309 -1 0 0 I I #
point $-1 67.465576418607171 -31.866733016770574 8.0080642011778309 #
straight-curve $-1 75.920285653248698 0 8.0080642011778309 0 1 0 I I #
point $-1 75.920285653248698 31.866733016770574 8.0080642011778309 #
point $-1 75.920285653248698 -31.866733016770574 8.0080642011778309 #
straight-curve $-1 34.248311817959006 31.866733016770574 75.117697390383796 0 0 -1 I I #
point $-1 34.248311817959006 31.866733016770574 8.0080642011778309 #
straight-curve $-1 7.7259810122372485 31.866733016770574 3.811490372904796 -1 0 0 I I #
point $-1 34.248311817959006 31.866733016770574 3.8114903729047924 #
point $-1 7.3963835415525665 26.973618159728716 3.2813454829865361 #
point $-1 23.507540507396428 26.973618159728716 3.2813454829865361 #
edge $-1 $472 50.966036553672978 $466 55.621432023595709 $470 $514 forward 7 unknown #
straight-curve $-1 -27.268821294804358 -31.866733016770574 3.3526687312551013 1 0 0 I I #
point $-1 -67.465576418607185 -31.866733016770574 3.3526687312551031 #
straight-curve $-1 -67.465576418607185 0 8.0080642011778309 0 -1 0 I I #
point $-1 -67.465576418607185 -31.866733016770574 8.0080642011778309 #
point $-1 -60.078185659179489 -27.543599763431754 3.7875234399298403 #
point $-1 -48.997099520037949 -27.543599763431754 3.7875234399298403 #
edge $-1 $484 -31.866733016770574 $487 31.866733016770574 $482 $515 forward 7 unknown #
point $-1 -75.920285653248698 31.866733016770574 8.0080642011778309 #
point $-1 -75.920285653248698 -31.866733016770574 8.0080642011778309 #
straight-curve $-1 -67.465576418607185 -31.866733016770574 58.974100754850809 0 0 -1 I I #
straight-curve $-1 -75.920285653248698 0 8.0080642011778309 0 -1 0 I I #
End-of-ACIS-data 