500 0 6 0           
7 Unknown 11 ACIS 5.0 NT 24 Thu Mar 25 19:25:58 1999 
-1 9.9999999999999995e-007 1e-010 
body $-1 $6 $-1 $7 #
body $-1 $8 $-1 $9 #
body $-1 $10 $-1 $11 #
body $-1 $12 $-1 $13 #
body $-1 $14 $-1 $15 #
body $-1 $16 $-1 $17 #
lump $-1 $-1 $18 $0 #
transform $-1 1 0 0 0 1 0 0 0 1 49.983214819788202 28.316092970923378 6.7997683386030978 1 rotate no_reflect no_shear #
lump $-1 $-1 $19 $1 #
transform $-1 1 0 0 0 1 0 0 0 1 49.983214819788202 28.316092970923378 6.7997683386030978 1 rotate no_reflect no_shear #
lump $-1 $-1 $20 $2 #
transform $-1 1 0 0 0 1 0 0 0 1 49.983214819788202 28.316092970923378 6.7997683386030978 1 rotate no_reflect no_shear #
lump $-1 $-1 $21 $3 #
transform $-1 1 0 0 0 1 0 0 0 1 49.983214819788202 28.316092970923378 6.7997683386030978 1 rotate no_reflect no_shear #
lump $-1 $-1 $22 $4 #
transform $-1 1 0 0 0 1 0 0 0 1 49.983214819788202 28.316092970923378 6.7997683386030978 1 rotate no_reflect no_shear #
lump $-1 $-1 $23 $5 #
transform $-1 1 0 0 0 1 0 0 0 1 49.983214819788202 28.316092970923378 6.7997683386030978 1 rotate no_reflect no_shear #
shell $-1 $-1 $-1 $24 $-1 $6 #
shell $-1 $-1 $-1 $25 $-1 $8 #
shell $-1 $-1 $-1 $26 $-1 $10 #
shell $-1 $-1 $-1 $27 $-1 $12 #
shell $-1 $-1 $-1 $28 $-1 $14 #
shell $-1 $-1 $-1 $29 $-1 $16 #
face $-1 $30 $31 $18 $-1 $32 forward single #
face $-1 $33 $34 $19 $-1 $35 reversed single #
face $-1 $36 $37 $20 $-1 $38 reversed single #
face $-1 $39 $40 $21 $-1 $41 forward single #
face $-1 $42 $43 $22 $-1 $44 forward single #
face $-1 $45 $46 $23 $-1 $47 forward single #
face $-1 $48 $49 $18 $-1 $50 reversed single #
loop $-1 $-1 $51 $24 #
plane-surface $-1 0 0 6.7997683386030978 0 0 1 1 0 0 forward_v I I I I #
face $-1 $52 $53 $19 $-1 $54 reversed single #
loop $-1 $-1 $55 $25 #
plane-surface $-1 -45.960971409912673 0 3.7997683386030978 0 0 1 1 0 0 forward_v I I I I #
face $-1 $56 $57 $20 $-1 $58 reversed single #
loop $-1 $-1 $59 $26 #
plane-surface $-1 -31.232782677508396 -97.758610900752231 73.297679117760467 -1 0 0 0 -0.69465837861970381 0.71933979245794832 forward_v I I I I #
face $-1 $60 $61 $21 $-1 $62 forward single #
loop $-1 $63 $64 $27 #
cone-surface $-1 -39.797538935531392 -25.102541039160229 3.6677410694198707 0 0.69465837861970381 -0.71933979245794832 0.5 0 0 1 I I 0 1 0.5 forward I I I I #
face $-1 $65 $66 $22 $-1 $67 forward single #
loop $-1 $68 $69 $28 #
cone-surface $-1 -36.585755338772771 -25.102541039160229 3.6677410694198707 0 0.69465837861970381 -0.71933979245794832 0.5 0 0 1 I I 0 1 0.5 forward I I I I #
face $-1 $70 $71 $23 $-1 $72 forward single #
loop $-1 $73 $74 $29 #
cone-surface $-1 -33.373971742014142 -25.102541039160229 3.6677410694198707 0 0.69465837861970381 -0.71933979245794832 0.5 0 0 1 I I 0 1 0.5 forward I I I I #
face $-1 $75 $76 $18 $-1 $77 reversed single #
loop $-1 $-1 $78 $30 #
plane-surface $-1 0 0 -6.7997683386030978 0 0 1 1 0 0 forward_v I I I I #
coedge $-1 $79 $80 $81 $82 forward $31 $-1 #
face $-1 $83 $84 $19 $-1 $85 reversed single #
loop $-1 $-1 $86 $33 #
plane-surface $-1 -41.938728000037145 0 5.2997683386030978 -1 0 0 0 0 1 forward_v I I I I #
coedge $-1 $87 $88 $86 $89 forward $34 $-1 #
face $-1 $90 $91 $20 $-1 $92 forward single #
loop $-1 $-1 $93 $36 #
plane-surface $-1 -36.585755338772771 -28.316092970923378 1.3878483680654767 0 -0.69465837861970381 0.71933979245794832 1 0 0 forward_v I I I I #
coedge $-1 $94 $95 $96 $97 reversed $37 $-1 #
face $-1 $-1 $98 $21 $-1 $99 forward single #
loop $-1 $100 $101 $39 #
cone-surface $-1 -39.797538935531392 -24.517428041775386 3.0618388373909617 0 0.69465837861970381 -0.71933979245794832 0.25 0 0 1 I I -0.70710678118654746 0.70710678118654746 0.25 forward I I I I #
loop $-1 $-1 $102 $27 #
coedge $-1 $64 $64 $103 $104 reversed $40 $-1 #
face $-1 $-1 $105 $22 $-1 $106 forward single #
loop $-1 $107 $108 $42 #
cone-surface $-1 -36.585755338772771 -24.517428041775386 3.0618388373909617 0 0.69465837861970381 -0.71933979245794832 0.25 0 0 1 I I -0.70710678118654746 0.70710678118654746 0.25 forward I I I I #
loop $-1 $-1 $109 $28 #
coedge $-1 $69 $69 $110 $111 reversed $43 $-1 #
face $-1 $-1 $112 $23 $-1 $113 forward single #
loop $-1 $114 $115 $45 #
cone-surface $-1 -33.373971742014142 -24.517428041775386 3.0618388373909617 0 0.69465837861970381 -0.71933979245794832 0.25 0 0 1 I I -0.70710678118654746 0.70710678118654746 0.25 forward I I I I #
loop $-1 $-1 $116 $29 #
coedge $-1 $74 $74 $117 $118 reversed $46 $-1 #
face $-1 $119 $120 $18 $-1 $121 reversed single #
loop $-1 $-1 $122 $48 #
plane-surface $-1 0 -28.316092970923378 0 0 1 0 0 0 1 forward_v I I I I #
coedge $-1 $123 $124 $125 $126 forward $49 $-1 #
coedge $-1 $127 $51 $128 $129 forward $31 $-1 #
coedge $-1 $51 $127 $130 $131 forward $31 $-1 #
coedge $-1 $132 $133 $51 $82 reversed $134 $-1 #
edge $-1 $135 -28.316092970923378 $136 28.316092970923378 $81 $137 forward 7 unknown #
face $-1 $138 $139 $19 $-1 $140 reversed single #
loop $-1 $-1 $141 $52 #
plane-surface $-1 0 28.316092970923378 0 0 -1 0 0 0 -1 forward_v I I I I #
coedge $-1 $142 $143 $55 $89 reversed $53 $-1 #
coedge $-1 $144 $55 $145 $146 reversed $34 $-1 #
coedge $-1 $55 $144 $147 $148 reversed $34 $-1 #
edge $-1 $149 -28.316092970923378 $150 28.316092970923378 $86 $151 forward 7 unknown #
face $-1 $152 $153 $20 $-1 $154 forward single #
loop $-1 $-1 $155 $56 #
plane-surface $-1 -41.938728000037145 0 5.2997683386030978 -1 0 0 0 0 1 forward_v I I I I #
coedge $-1 $156 $157 $158 $159 reversed $57 $-1 #
coedge $-1 $95 $59 $160 $161 reversed $37 $-1 #
coedge $-1 $59 $94 $156 $162 reversed $37 $-1 #
coedge $-1 $158 $163 $59 $97 forward $153 $-1 #
edge $-1 $164 20.563212479452737 $165 26.167419537519212 $96 $166 forward 7 unknown #
loop $-1 $-1 $103 $60 #
plane-surface $-1 -36.585755338772771 -28.316092970923378 1.3878483680654767 0 -0.69465837861970381 0.71933979245794832 1 0 0 forward_v I I I I #
loop $-1 $-1 $167 $39 #
coedge $-1 $101 $101 $102 $168 reversed $61 $-1 #
coedge $-1 $102 $102 $101 $168 forward $63 $-1 #
coedge $-1 $103 $103 $64 $104 forward $98 $-1 #
edge $-1 $169 3.5265114926128642e-015 $169 6.283185307179604 $103 $170 forward 7 unknown #
loop $-1 $-1 $110 $65 #
plane-surface $-1 -36.585755338772771 -28.316092970923378 1.3878483680654767 0 -0.69465837861970381 0.71933979245794832 1 0 0 forward_v I I I I #
loop $-1 $-1 $171 $42 #
coedge $-1 $108 $108 $109 $172 reversed $66 $-1 #
coedge $-1 $109 $109 $108 $172 forward $68 $-1 #
coedge $-1 $110 $110 $69 $111 forward $105 $-1 #
edge $-1 $173 3.5265114926128642e-015 $173 6.283185307179604 $110 $174 forward 7 unknown #
loop $-1 $-1 $117 $70 #
plane-surface $-1 -36.585755338772771 -28.316092970923378 1.3878483680654767 0 -0.69465837861970381 0.71933979245794832 1 0 0 forward_v I I I I #
loop $-1 $-1 $175 $45 #
coedge $-1 $115 $115 $116 $176 reversed $71 $-1 #
coedge $-1 $116 $116 $115 $176 forward $73 $-1 #
coedge $-1 $117 $117 $74 $118 forward $112 $-1 #
edge $-1 $177 3.5265114926128642e-015 $177 6.283185307179604 $117 $178 forward 7 unknown #
face $-1 $179 $180 $18 $-1 $181 reversed single #
loop $-1 $-1 $182 $75 #
plane-surface $-1 -49.983214819788202 0 0 1 0 0 0 0 -1 forward_v I I I I #
coedge $-1 $183 $130 $184 $185 forward $76 $-1 #
coedge $-1 $186 $78 $183 $187 forward $49 $-1 #
coedge $-1 $78 $186 $188 $189 forward $49 $-1 #
coedge $-1 $133 $132 $78 $126 reversed $134 $-1 #
edge $-1 $190 -28.316092970923378 $191 28.316092970923378 $125 $192 forward 7 unknown #
coedge $-1 $80 $79 $193 $194 forward $31 $-1 #
coedge $-1 $195 $196 $79 $129 reversed $180 $-1 #
edge $-1 $136 -49.983214819788202 $197 49.983214819788202 $128 $198 forward 7 unknown #
coedge $-1 $122 $199 $80 $131 reversed $76 $-1 #
edge $-1 $200 -49.983214819788202 $135 49.983214819788202 $130 $201 forward 7 unknown #
coedge $-1 $125 $81 $199 $202 forward $134 $-1 #
coedge $-1 $81 $125 $195 $203 reversed $134 $-1 #
loop $-1 $-1 $132 $179 #
vertex $-1 $82 $204 #
vertex $-1 $82 $205 #
straight-curve $-1 49.983214819788202 0 6.7997683386030978 0 1 0 I I #
face $-1 $206 $207 $19 $-1 $208 forward single #
loop $-1 $-1 $209 $83 #
plane-surface $-1 -49.983214819788202 0 0 1 0 0 0 0 -1 forward_v I I I I #
coedge $-1 $147 $210 $142 $211 forward $84 $-1 #
coedge $-1 $212 $86 $141 $211 reversed $53 $-1 #
coedge $-1 $86 $212 $213 $214 reversed $53 $-1 #
coedge $-1 $88 $87 $209 $215 reversed $34 $-1 #
coedge $-1 $213 $216 $87 $146 forward $217 $-1 #
edge $-1 $218 -27.002729114831865 $150 -18.958242295080808 $145 $219 forward 7 unknown #
coedge $-1 $220 $141 $88 $148 forward $84 $-1 #
edge $-1 $149 18.958242295080808 $221 27.002729114831865 $147 $222 forward 7 unknown #
vertex $-1 $148 $223 #
vertex $-1 $146 $224 #
straight-curve $-1 -41.938728000037145 0 3.7997683386030978 0 -1 0 I I #
face $-1 $-1 $225 $20 $-1 $226 reversed single #
loop $-1 $-1 $158 $90 #
plane-surface $-1 0 0 6.7997683386030978 0 0 1 1 0 0 forward_v I I I I #
coedge $-1 $227 $228 $157 $229 reversed $91 $-1 #
coedge $-1 $230 $93 $95 $162 forward $57 $-1 #
coedge $-1 $93 $230 $155 $229 forward $57 $-1 #
coedge $-1 $231 $96 $93 $159 forward $153 $-1 #
edge $-1 $165 12.939905008122011 $232 23.645850330650759 $158 $233 forward 7 unknown #
coedge $-1 $234 $235 $94 $161 forward $225 $-1 #
edge $-1 $236 -35.260991190814757 $164 -29.849071220277136 $160 $237 forward 7 unknown #
edge $-1 $165 -7.7907646939941664 $236 0 $95 $238 forward 7 unknown #
coedge $-1 $96 $231 $234 $239 forward $153 $-1 #
vertex $-1 $161 $240 #
vertex $-1 $97 $241 #
straight-curve $-1 -31.232782677508396 -48.879305450376116 6.7997683386031014 0 1 0 I I #
coedge $-1 $167 $167 $-1 $242 reversed $100 $-1 #
edge $-1 $243 0 $243 6.2831853071796004 $101 $244 forward 7 unknown #
vertex $-1 $104 $245 #
ellipse-curve $-1 -39.797538935531392 -25.513989441890143 4.0938083533342864 0 -0.69465837861970381 0.71933979245794832 0.5 0 0 1 I I #
coedge $-1 $171 $171 $-1 $246 reversed $107 $-1 #
edge $-1 $247 0 $247 6.2831853071796004 $108 $248 forward 7 unknown #
vertex $-1 $111 $249 #
ellipse-curve $-1 -36.585755338772771 -25.513989441890143 4.0938083533342864 0 -0.69465837861970381 0.71933979245794832 0.5 0 0 1 I I #
coedge $-1 $175 $175 $-1 $250 reversed $114 $-1 #
edge $-1 $251 0 $251 6.2831853071796004 $115 $252 forward 7 unknown #
vertex $-1 $118 $253 #
ellipse-curve $-1 -33.373971742014142 -25.513989441890143 4.0938083533342864 0 -0.69465837861970381 0.71933979245794832 0.5 0 0 1 I I #
face $-1 $-1 $134 $18 $-1 $254 reversed single #
loop $-1 $-1 $195 $119 #
plane-surface $-1 0 28.316092970923378 0 0 -1 0 0 0 -1 forward_v I I I I #
coedge $-1 $255 $193 $196 $256 forward $120 $-1 #
coedge $-1 $199 $122 $123 $187 reversed $76 $-1 #
coedge $-1 $193 $255 $122 $185 reversed $120 $-1 #
edge $-1 $200 -6.7997683386030978 $257 6.7997683386030978 $184 $258 forward 7 unknown #
coedge $-1 $124 $123 $255 $259 forward $49 $-1 #
edge $-1 $191 -49.983214819788202 $257 49.983214819788202 $183 $260 forward 7 unknown #
coedge $-1 $196 $195 $124 $189 reversed $180 $-1 #
edge $-1 $261 -49.983214819788202 $190 49.983214819788202 $188 $262 forward 7 unknown #
vertex $-1 $126 $263 #
vertex $-1 $202 $264 #
straight-curve $-1 49.983214819788202 0 -6.7997683386030978 0 -1 0 I I #
coedge $-1 $182 $184 $127 $194 reversed $120 $-1 #
edge $-1 $197 -28.316092970923378 $200 28.316092970923378 $193 $265 forward 7 unknown #
coedge $-1 $188 $128 $133 $203 forward $180 $-1 #
coedge $-1 $128 $188 $182 $256 reversed $180 $-1 #
vertex $-1 $129 $266 #
straight-curve $-1 0 28.316092970923378 6.7997683386030978 -1 0 0 I I #
coedge $-1 $130 $183 $132 $202 reversed $76 $-1 #
vertex $-1 $194 $267 #
straight-curve $-1 0 -28.316092970923378 6.7997683386030978 1 0 0 I I #
edge $-1 $135 -6.7997683386030978 $191 6.7997683386030978 $132 $268 forward 7 unknown #
edge $-1 $136 -6.7997683386030978 $190 6.7997683386030978 $133 $269 forward 7 unknown #
point $-1 49.983214819788202 -28.316092970923378 6.7997683386030978 #
point $-1 49.983214819788202 28.316092970923378 6.7997683386030978 #
face $-1 $-1 $217 $19 $-1 $270 reversed single #
loop $-1 $-1 $271 $138 #
plane-surface $-1 0 0 6.7997683386030978 0 0 1 1 0 0 forward_v I I I I #
coedge $-1 $272 $273 $144 $215 forward $139 $-1 #
coedge $-1 $141 $220 $274 $275 reversed $84 $-1 #
edge $-1 $276 -4.1498841693015489 $149 -1.1498841693015489 $141 $277 forward 7 unknown #
coedge $-1 $143 $142 $271 $278 reversed $53 $-1 #
coedge $-1 $279 $145 $143 $214 forward $217 $-1 #
edge $-1 $150 1.1498841693015489 $280 4.1498841693015489 $213 $281 forward 7 unknown #
edge $-1 $221 -28.316092970923378 $218 28.316092970923378 $209 $282 forward 7 unknown #
coedge $-1 $145 $279 $272 $283 forward $217 $-1 #
loop $-1 $-1 $213 $206 #
vertex $-1 $215 $284 #
straight-curve $-1 -22.980485704956337 -28.316092970923378 3.7997683386030978 1 0 0 I I #
coedge $-1 $210 $147 $273 $285 reversed $84 $-1 #
vertex $-1 $215 $286 #
straight-curve $-1 -22.980485704956337 28.316092970923378 3.7997683386030978 -1 0 0 I I #
point $-1 -41.938728000037145 28.316092970923378 3.7997683386030978 #
point $-1 -41.938728000037145 -28.316092970923378 3.7997683386030978 #
loop $-1 $-1 $160 $152 #
plane-surface $-1 0 -28.316092970923378 0 0 1 0 0 0 1 forward_v I I I I #
coedge $-1 $228 $155 $287 $288 reversed $91 $-1 #
coedge $-1 $155 $227 $231 $289 reversed $91 $-1 #
edge $-1 $290 0 $232 7.7907646939941664 $155 $291 forward 7 unknown #
coedge $-1 $157 $156 $235 $292 reversed $57 $-1 #
coedge $-1 $163 $158 $228 $289 forward $153 $-1 #
vertex $-1 $289 $293 #
straight-curve $-1 -18.292877669386385 -22.7118859128569 6.7997683386030978 -1 0 0 I I #
coedge $-1 $287 $160 $163 $239 reversed $225 $-1 #
coedge $-1 $160 $287 $230 $292 forward $225 $-1 #
vertex $-1 $161 $294 #
straight-curve $-1 -31.232782677508396 -28.316092970923378 36.648839558880233 0 0 1 I I #
straight-curve $-1 -31.232782677508396 -28.316092970923378 1.3878483680654767 0 -0.71933979245794832 -0.69465837861970381 I I #
edge $-1 $295 -41.938728000037145 $164 -31.232782677508396 $234 $296 forward 7 unknown #
point $-1 -31.232782677508396 -28.316092970923378 6.7997683386030978 #
point $-1 -31.232782677508396 -22.711885912856904 6.7997683386030978 #
edge $-1 $297 1 $297 0 $167 $-1 forward 7 unknown #
vertex $-1 $168 $298 #
ellipse-curve $-1 -39.797538935531392 -24.691092636430312 3.2416737855054487 0 -0.69465837861970381 0.71933979245794832 0.5 0 0 1 I I #
point $-1 -39.297538935531392 -25.513989441890146 4.0938083533342926 #
edge $-1 $299 1 $299 0 $171 $-1 forward 7 unknown #
vertex $-1 $172 $300 #
ellipse-curve $-1 -36.585755338772771 -24.691092636430312 3.2416737855054487 0 -0.69465837861970381 0.71933979245794832 0.5 0 0 1 I I #
point $-1 -36.085755338772771 -25.513989441890146 4.0938083533342926 #
edge $-1 $301 1 $301 0 $175 $-1 forward 7 unknown #
vertex $-1 $176 $302 #
ellipse-curve $-1 -33.373971742014142 -24.691092636430312 3.2416737855054487 0 -0.69465837861970381 0.71933979245794832 0.5 0 0 1 I I #
point $-1 -32.873971742014142 -25.513989441890146 4.0938083533342926 #
plane-surface $-1 49.983214819788202 0 0 -1 0 0 0 0 1 forward_v I I I I #
coedge $-1 $184 $182 $186 $259 reversed $120 $-1 #
edge $-1 $197 -6.7997683386030978 $261 6.7997683386030978 $196 $303 forward 7 unknown #
vertex $-1 $259 $304 #
straight-curve $-1 -49.983214819788202 -28.316092970923378 0 0 0 -1 I I #
edge $-1 $257 -28.316092970923378 $261 28.316092970923378 $255 $305 forward 7 unknown #
straight-curve $-1 0 -28.316092970923378 -6.7997683386030978 -1 0 0 I I #
vertex $-1 $189 $306 #
straight-curve $-1 0 28.316092970923378 -6.7997683386030978 1 0 0 I I #
point $-1 49.983214819788202 28.316092970923378 -6.7997683386030978 #
point $-1 49.983214819788202 -28.316092970923378 -6.7997683386030978 #
straight-curve $-1 -49.983214819788202 0 6.7997683386030978 0 -1 0 I I #
point $-1 -49.983214819788202 28.316092970923378 6.7997683386030978 #
point $-1 -49.983214819788202 -28.316092970923378 6.7997683386030978 #
straight-curve $-1 49.983214819788202 -28.316092970923378 0 0 0 -1 I I #
straight-curve $-1 49.983214819788202 28.316092970923378 0 0 0 -1 I I #
plane-surface $-1 0 -28.316092970923378 0 0 1 0 0 0 1 forward_v I I I I #
coedge $-1 $274 $307 $212 $278 forward $207 $-1 #
coedge $-1 $308 $209 $216 $283 reversed $139 $-1 #
coedge $-1 $209 $308 $220 $285 forward $139 $-1 #
coedge $-1 $309 $271 $210 $275 forward $207 $-1 #
edge $-1 $276 41.938728000037145 $310 49.983214819788202 $210 $311 forward 7 unknown #
vertex $-1 $275 $312 #
straight-curve $-1 -41.938728000037145 28.316092970923378 2.6498841693015489 0 0 -1 I I #
edge $-1 $280 -28.316092970923378 $276 28.316092970923378 $271 $313 forward 7 unknown #
coedge $-1 $216 $213 $307 $314 reversed $217 $-1 #
vertex $-1 $214 $315 #
straight-curve $-1 -41.938728000037145 -28.316092970923378 2.6498841693015489 0 0 1 I I #
straight-curve $-1 -49.983214819788202 0 3.7997683386030978 0 -1 0 I I #
edge $-1 $316 -6.7997683386030978 $218 -3.7997683386030978 $272 $317 forward 7 unknown #
point $-1 -49.983214819788202 -28.316092970923378 3.7997683386030978 #
edge $-1 $310 -6.7997683386030978 $221 -3.7997683386030978 $220 $318 forward 7 unknown #
point $-1 -49.983214819788202 28.316092970923378 3.7997683386030978 #
coedge $-1 $235 $234 $227 $288 forward $225 $-1 #
edge $-1 $295 29.849071220277136 $290 35.260991190814757 $287 $319 forward 7 unknown #
edge $-1 $232 22.711885912856904 $295 28.316092970923378 $231 $320 forward 7 unknown #
vertex $-1 $288 $321 #
straight-curve $-1 -41.938728000037145 -28.316092970923378 1.3878483680654767 0 0.71933979245794832 0.69465837861970381 I I #
edge $-1 $290 -23.645850330650759 $236 -12.939905008122011 $235 $322 forward 7 unknown #
point $-1 -41.938728000037145 -22.711885912856904 6.7997683386030978 #
point $-1 -31.232782677508396 -28.316092970923378 1.3878483680654767 #
vertex $-1 $239 $323 #
straight-curve $-1 0 -28.316092970923378 6.7997683386030978 1 0 0 I I #
vertex $-1 $242 $324 #
point $-1 -39.297538935531392 -24.691092636430312 3.2416737855054487 #
vertex $-1 $246 $325 #
point $-1 -36.085755338772771 -24.691092636430312 3.2416737855054487 #
vertex $-1 $250 $326 #
point $-1 -32.873971742014142 -24.691092636430312 3.2416737855054487 #
straight-curve $-1 -49.983214819788202 28.316092970923378 0 0 0 -1 I I #
point $-1 -49.983214819788202 -28.316092970923378 -6.7997683386030978 #
straight-curve $-1 -49.983214819788202 0 -6.7997683386030978 0 1 0 I I #
point $-1 -49.983214819788202 28.316092970923378 -6.7997683386030978 #
coedge $-1 $271 $309 $279 $314 forward $207 $-1 #
coedge $-1 $273 $272 $309 $327 reversed $139 $-1 #
coedge $-1 $307 $274 $308 $327 forward $207 $-1 #
vertex $-1 $275 $328 #
straight-curve $-1 0 28.316092970923378 6.7997683386030978 -1 0 0 I I #
point $-1 -41.938728000037145 28.316092970923378 6.7997683386030978 #
straight-curve $-1 -41.938728000037145 0 6.7997683386030978 0 1 0 I I #
edge $-1 $316 -49.983214819788202 $280 -41.938728000037145 $279 $329 forward 7 unknown #
point $-1 -41.938728000037145 -28.316092970923378 6.7997683386030978 #
vertex $-1 $327 $330 #
straight-curve $-1 -49.983214819788202 -28.316092970923378 0 0 0 -1 I I #
straight-curve $-1 -49.983214819788202 28.316092970923378 0 0 0 -1 I I #
straight-curve $-1 -41.938728000037145 -28.316092970923378 36.648839558880233 0 0 -1 I I #
straight-curve $-1 -41.938728000037145 0 6.7997683386030978 0 -1 0 I I #
point $-1 -41.938728000037145 -28.316092970923378 1.3878483680654767 #
straight-curve $-1 -18.292877669386385 -28.316092970923378 1.3878483680654781 1 0 0 I I #
point $-1 -41.938728000037145 -28.316092970923378 6.7997683386030978 #
point $-1 -39.797538935531392 -24.343763447120459 2.8820038892764748 #
point $-1 -36.585755338772771 -24.343763447120459 2.8820038892764748 #
point $-1 -33.373971742014142 -24.343763447120459 2.8820038892764748 #
edge $-1 $310 -28.316092970923378 $316 28.316092970923378 $308 $331 forward 7 unknown #
point $-1 -49.983214819788202 28.316092970923378 6.7997683386030978 #
straight-curve $-1 0 -28.316092970923378 6.7997683386030978 1 0 0 I I #
point $-1 -49.983214819788202 -28.316092970923378 6.7997683386030978 #
straight-curve $-1 -49.983214819788202 0 6.7997683386030978 0 -1 0 I I #
End-of-ACIS-data 