500 0 4 0           
7 Unknown 11 ACIS 5.0 NT 24 Fri Mar 26 17:46:29 1999 
-1 9.9999999999999995e-007 1e-010 
body $-1 $4 $-1 $5 #
body $-1 $6 $-1 $7 #
body $-1 $8 $-1 $9 #
body $-1 $10 $-1 $11 #
lump $-1 $-1 $12 $0 #
transform $-1 1 0 0 0 1 0 0 0 1 77.187414166692093 31.52583033339204 7.6932185408745415 1 rotate no_reflect no_shear #
lump $-1 $-1 $13 $1 #
transform $-1 1 0 0 0 1 0 0 0 1 77.187414166692093 31.52583033339204 7.6932185408745415 1 rotate no_reflect no_shear #
lump $-1 $-1 $14 $2 #
transform $-1 1 0 0 0 1 0 0 0 1 77.187414166692093 31.52583033339204 7.6932185408745415 1 rotate no_reflect no_shear #
lump $-1 $-1 $15 $3 #
transform $-1 1 0 0 0 1 0 0 0 1 77.187414166692093 31.52583033339204 7.6932185408745415 1 rotate no_reflect no_shear #
shell $-1 $-1 $-1 $16 $-1 $4 #
shell $-1 $-1 $-1 $17 $-1 $6 #
shell $-1 $-1 $-1 $18 $-1 $8 #
shell $-1 $-1 $-1 $19 $-1 $10 #
face $-1 $20 $21 $12 $-1 $22 forward single #
face $-1 $23 $24 $13 $-1 $25 reversed single #
face $-1 $26 $27 $14 $-1 $28 forward single #
face $-1 $29 $30 $15 $-1 $31 reversed single #
face $-1 $32 $33 $12 $-1 $34 reversed single #
loop $-1 $-1 $35 $16 #
plane-surface $-1 0 0 7.6932185408745415 0 0 1 1 0 0 forward_v I I I I #
face $-1 $36 $37 $13 $-1 $38 reversed single #
loop $-1 $-1 $39 $17 #
plane-surface $-1 -63.300977084943014 -38.858465206702412 0 0 1 0 0 0 1 forward_v I I I I #
face $-1 $40 $41 $14 $-1 $42 forward single #
loop $-1 $-1 $43 $18 #
plane-surface $-1 -52.326409752725759 93.408029784982375 158.63289115430413 -1 0 0 0 0.69465837861970381 0.71933979245794832 forward_v I I I I #
face $-1 $44 $45 $15 $-1 $46 reversed single #
loop $-1 $47 $48 $19 #
cone-surface $-1 -64.75691195970893 29.025608610168334 5.2454696185663527 0 -0.69465837861970381 -0.71933979245794832 1 0 0 1 I I 0 1 1 forward I I I I #
face $-1 $49 $50 $12 $-1 $51 reversed single #
loop $-1 $-1 $52 $20 #
plane-surface $-1 0 0 -7.6932185408745415 0 0 1 1 0 0 forward_v I I I I #
coedge $-1 $53 $54 $55 $56 forward $21 $-1 #
face $-1 $57 $58 $13 $-1 $59 reversed single #
loop $-1 $-1 $60 $23 #
plane-surface $-1 -64.800977084943014 -35.192147770047228 0 1 0 0 0 0 -1 forward_v I I I I #
coedge $-1 $61 $62 $63 $64 forward $24 $-1 #
face $-1 $65 $66 $14 $-1 $67 reversed single #
loop $-1 $-1 $68 $26 #
plane-surface $-1 -64.75691195970893 -13.829738164781403 47.584934180236147 0 0.69465837861970381 0.71933979245794832 1 0 0 forward_v I I I I #
coedge $-1 $69 $70 $71 $72 reversed $27 $-1 #
face $-1 $73 $74 $15 $-1 $75 forward single #
loop $-1 $76 $77 $29 #
cone-surface $-1 -64.75691195970893 28.201302008810853 4.3918751643823821 0 -0.69465837861970381 -0.71933979245794832 0.5 0 0 1 I I -0.70710678118654746 0.70710678118654746 0.5 forward I I I I #
loop $-1 $-1 $78 $19 #
coedge $-1 $48 $48 $79 $80 reversed $30 $-1 #
face $-1 $81 $82 $12 $-1 $83 reversed single #
loop $-1 $-1 $84 $32 #
plane-surface $-1 0 -31.52583033339204 0 0 1 0 0 0 1 forward_v I I I I #
coedge $-1 $85 $86 $87 $88 forward $33 $-1 #
coedge $-1 $89 $35 $90 $91 forward $21 $-1 #
coedge $-1 $35 $89 $92 $93 forward $21 $-1 #
coedge $-1 $94 $95 $35 $56 reversed $96 $-1 #
edge $-1 $97 -31.52583033339204 $98 31.52583033339204 $55 $99 forward 7 unknown #
face $-1 $100 $101 $13 $-1 $102 reversed single #
loop $-1 $-1 $103 $36 #
plane-surface $-1 -61.800977084943014 -35.192147770047228 0 -1 0 0 0 0 1 forward_v I I I I #
coedge $-1 $104 $105 $106 $107 reversed $37 $-1 #
coedge $-1 $108 $39 $109 $110 reversed $24 $-1 #
coedge $-1 $39 $108 $111 $112 reversed $24 $-1 #
coedge $-1 $105 $104 $39 $64 reversed $37 $-1 #
edge $-1 $113 -7.6932185408745415 $114 7.6932185408745415 $63 $115 forward 7 unknown #
face $-1 $116 $117 $14 $-1 $118 forward single #
loop $-1 $-1 $119 $40 #
plane-surface $-1 0 31.52583033339204 0 0 -1 0 0 0 -1 forward_v I I I I #
coedge $-1 $120 $121 $119 $122 reversed $41 $-1 #
coedge $-1 $70 $43 $121 $123 forward $27 $-1 #
coedge $-1 $43 $69 $124 $125 reversed $27 $-1 #
coedge $-1 $126 $119 $43 $72 forward $66 $-1 #
edge $-1 $127 -75.530875764983904 $128 -71.623227036277527 $71 $129 forward 7 unknown #
face $-1 $130 $131 $15 $-1 $132 forward single #
loop $-1 $-1 $133 $44 #
plane-surface $-1 -52.326409752725759 93.408029784982375 158.63289115430413 -1 0 0 0 0.69465837861970381 0.71933979245794832 forward_v I I I I #
loop $-1 $-1 $134 $29 #
coedge $-1 $77 $77 $78 $135 forward $45 $-1 #
coedge $-1 $78 $78 $77 $135 reversed $47 $-1 #
coedge $-1 $79 $79 $48 $80 forward $131 $-1 #
edge $-1 $136 7.9235257406443392e-016 $136 6.2831853071796013 $79 $137 forward 7 unknown #
face $-1 $138 $139 $12 $-1 $140 reversed single #
loop $-1 $-1 $141 $49 #
plane-surface $-1 -77.187414166692093 0 0 1 0 0 0 0 -1 forward_v I I I I #
coedge $-1 $142 $92 $143 $144 forward $50 $-1 #
coedge $-1 $145 $52 $142 $146 forward $33 $-1 #
coedge $-1 $52 $145 $147 $148 forward $33 $-1 #
coedge $-1 $95 $94 $52 $88 reversed $96 $-1 #
edge $-1 $149 -31.52583033339204 $150 31.52583033339204 $87 $151 forward 7 unknown #
coedge $-1 $54 $53 $152 $153 forward $21 $-1 #
coedge $-1 $154 $155 $53 $91 reversed $139 $-1 #
edge $-1 $98 -77.187414166692093 $156 77.187414166692093 $90 $157 forward 7 unknown #
coedge $-1 $84 $158 $54 $93 reversed $50 $-1 #
edge $-1 $159 -77.187414166692093 $97 77.187414166692093 $92 $160 forward 7 unknown #
coedge $-1 $87 $55 $158 $161 forward $96 $-1 #
coedge $-1 $55 $87 $154 $162 reversed $96 $-1 #
loop $-1 $-1 $94 $138 #
vertex $-1 $56 $163 #
vertex $-1 $56 $164 #
straight-curve $-1 77.187414166692093 0 7.6932185408745415 0 1 0 I I #
face $-1 $165 $166 $13 $-1 $102 reversed single #
loop $-1 $-1 $106 $57 #
plane-surface $-1 0 -31.52583033339204 0 0 1 0 0 0 1 forward_v I I I I #
coedge $-1 $167 $168 $108 $169 forward $58 $-1 #
coedge $-1 $63 $60 $170 $171 reversed $37 $-1 #
coedge $-1 $60 $63 $172 $173 reversed $37 $-1 #
coedge $-1 $174 $175 $60 $107 forward $101 $-1 #
edge $-1 $176 -7.6932185408745415 $177 7.6932185408745415 $106 $178 forward 7 unknown #
coedge $-1 $62 $61 $103 $169 reversed $24 $-1 #
coedge $-1 $170 $179 $61 $110 forward $180 $-1 #
edge $-1 $181 -1.5 $114 1.5 $61 $182 forward 7 unknown #
coedge $-1 $183 $172 $62 $112 forward $184 $-1 #
edge $-1 $113 -1.5 $185 1.5 $62 $186 forward 7 unknown #
vertex $-1 $173 $187 #
vertex $-1 $171 $188 #
straight-curve $-1 -64.800977084943014 -38.858465206702412 0 0 0 -1 I I #
face $-1 $189 $190 $14 $-1 $191 reversed single #
loop $-1 $-1 $124 $65 #
plane-surface $-1 0 0 7.6932185408745415 0 0 1 1 0 0 forward_v I I I I #
coedge $-1 $71 $192 $68 $122 forward $66 $-1 #
coedge $-1 $193 $68 $194 $195 reversed $41 $-1 #
coedge $-1 $68 $193 $69 $123 reversed $41 $-1 #
edge $-1 $196 -44.808958186837629 $127 -19.947953772871294 $119 $197 forward 7 unknown #
edge $-1 $127 -63.051660666784073 $198 -57.426379450899333 $69 $199 forward 7 unknown #
coedge $-1 $200 $201 $70 $125 forward $117 $-1 #
edge $-1 $128 15.178184559099147 $198 19.22467318145128 $124 $202 forward 7 unknown #
coedge $-1 $203 $71 $201 $204 reversed $66 $-1 #
vertex $-1 $122 $205 #
vertex $-1 $125 $206 #
straight-curve $-1 -52.326409752725759 31.52583033339204 79.316445577152066 0 0 1 I I #
face $-1 $207 $208 $15 $-1 $209 reversed single #
loop $-1 $210 $79 $73 #
plane-surface $-1 -64.75691195970893 -13.829738164781403 47.584934180236147 0 0.69465837861970381 0.71933979245794832 1 0 0 forward_v I I I I #
coedge $-1 $211 $212 $213 $214 reversed $74 $-1 #
coedge $-1 $134 $134 $-1 $215 forward $76 $-1 #
edge $-1 $216 0 $216 6.2831853071796004 $77 $217 forward 7 unknown #
vertex $-1 $80 $218 #
ellipse-curve $-1 -64.75691195970893 29.502586022215972 5.7393941765213556 0 -0.69465837861970381 -0.71933979245794832 1 0 0 1 I I #
face $-1 $-1 $96 $12 $-1 $219 reversed single #
loop $-1 $-1 $154 $81 #
plane-surface $-1 0 31.52583033339204 0 0 -1 0 0 0 -1 forward_v I I I I #
coedge $-1 $220 $152 $155 $221 forward $82 $-1 #
coedge $-1 $158 $84 $85 $146 reversed $50 $-1 #
coedge $-1 $152 $220 $84 $144 reversed $82 $-1 #
edge $-1 $159 -7.6932185408745415 $222 7.6932185408745415 $143 $223 forward 7 unknown #
coedge $-1 $86 $85 $220 $224 forward $33 $-1 #
edge $-1 $150 -77.187414166692093 $222 77.187414166692093 $142 $225 forward 7 unknown #
coedge $-1 $155 $154 $86 $148 reversed $139 $-1 #
edge $-1 $226 -77.187414166692093 $149 77.187414166692093 $147 $227 forward 7 unknown #
vertex $-1 $88 $228 #
vertex $-1 $161 $229 #
straight-curve $-1 77.187414166692093 0 -7.6932185408745415 0 -1 0 I I #
coedge $-1 $141 $143 $89 $153 reversed $82 $-1 #
edge $-1 $156 -31.52583033339204 $159 31.52583033339204 $152 $230 forward 7 unknown #
coedge $-1 $147 $90 $95 $162 forward $139 $-1 #
coedge $-1 $90 $147 $141 $221 reversed $139 $-1 #
vertex $-1 $91 $231 #
straight-curve $-1 0 31.52583033339204 7.6932185408745415 -1 0 0 I I #
coedge $-1 $92 $142 $94 $161 reversed $50 $-1 #
vertex $-1 $153 $232 #
straight-curve $-1 0 -31.52583033339204 7.6932185408745415 1 0 0 I I #
edge $-1 $97 -7.6932185408745415 $150 7.6932185408745415 $94 $233 forward 7 unknown #
edge $-1 $98 -7.6932185408745415 $149 7.6932185408745415 $95 $234 forward 7 unknown #
point $-1 77.187414166692093 -31.52583033339204 7.6932185408745415 #
point $-1 77.187414166692093 31.52583033339204 7.6932185408745415 #
face $-1 $235 $184 $13 $-1 $236 forward single #
loop $-1 $-1 $237 $100 #
coedge $-1 $238 $103 $179 $239 reversed $58 $-1 #
coedge $-1 $103 $238 $183 $240 reversed $58 $-1 #
edge $-1 $185 -7.6932185408745415 $181 7.6932185408745415 $103 $241 forward 7 unknown #
coedge $-1 $242 $109 $104 $171 forward $180 $-1 #
edge $-1 $114 -3.6663174366551843 $176 3.6663174366551878 $104 $243 forward 7 unknown #
coedge $-1 $111 $244 $105 $173 forward $184 $-1 #
edge $-1 $177 -3.6663174366551878 $113 3.6663174366551843 $105 $245 forward 7 unknown #
coedge $-1 $246 $106 $244 $247 reversed $101 $-1 #
coedge $-1 $106 $246 $242 $248 reversed $101 $-1 #
vertex $-1 $248 $249 #
vertex $-1 $173 $250 #
straight-curve $-1 -64.800977084943014 -31.52583033339204 0 0 0 1 I I #
coedge $-1 $109 $251 $167 $239 forward $180 $-1 #
loop $-1 $-1 $252 $235 #
vertex $-1 $169 $253 #
straight-curve $-1 -63.300977084943014 -38.858465206702412 -7.6932185408745415 -1 0 0 I I #
coedge $-1 $254 $111 $168 $240 forward $184 $-1 #
loop $-1 $-1 $255 $165 #
vertex $-1 $240 $256 #
straight-curve $-1 -63.300977084943014 -38.858465206702412 7.6932185408745415 1 0 0 I I #
point $-1 -64.800977084943014 -38.858465206702412 7.6932185408745415 #
point $-1 -64.800977084943014 -38.858465206702412 -7.6932185408745415 #
face $-1 $257 $258 $14 $-1 $259 reversed single #
loop $-1 $-1 $260 $116 #
plane-surface $-1 -63.300977084943014 -38.858465206702412 0 0 1 0 0 0 1 forward_v I I I I #
coedge $-1 $119 $261 $262 $263 reversed $66 $-1 #
coedge $-1 $121 $120 $200 $264 reversed $41 $-1 #
coedge $-1 $262 $265 $120 $195 forward $266 $-1 #
edge $-1 $267 35.924602348114433 $196 41.549883563999181 $194 $268 forward 7 unknown #
vertex $-1 $263 $269 #
straight-curve $-1 -32.378455979854465 31.52583033339204 3.7855698121681662 1 0 0 I I #
vertex $-1 $264 $270 #
straight-curve $-1 -52.326409752725759 -13.829738164781403 47.584934180236147 0 -0.71933979245794832 0.69465837861970381 I I #
coedge $-1 $271 $124 $193 $264 forward $117 $-1 #
coedge $-1 $124 $272 $126 $204 forward $117 $-1 #
straight-curve $-1 -52.326409752725759 46.704014892491188 7.6932185408745397 0 -1 0 I I #
coedge $-1 $261 $126 $273 $274 forward $66 $-1 #
edge $-1 $275 -77.187414166692093 $128 52.326409752725759 $126 $276 forward 7 unknown #
point $-1 -52.326409752725759 31.525830333392037 3.7855698121681698 #
point $-1 -52.326409752725759 31.52583033339204 7.6932185408745415 #
face $-1 $277 $278 $15 $-1 $279 forward single #
loop $-1 $-1 $280 $130 #
plane-surface $-1 0 31.52583033339204 0 0 -1 0 0 0 -1 forward_v I I I I #
loop $-1 $-1 $281 $73 #
coedge $-1 $212 $133 $282 $283 forward $74 $-1 #
coedge $-1 $133 $211 $284 $285 reversed $74 $-1 #
coedge $-1 $286 $280 $133 $214 forward $208 $-1 #
edge $-1 $287 -75.530875764983904 $288 -71.623227036277527 $213 $289 forward 7 unknown #
edge $-1 $290 1 $290 0 $134 $-1 forward 7 unknown #
vertex $-1 $135 $291 #
ellipse-curve $-1 -64.75691195970893 28.548631198120706 4.7515450606113561 0 0.69465837861970381 0.71933979245794832 1 0 0 1 I I #
point $-1 -63.75691195970893 29.502586022215965 5.7393941765213494 #
plane-surface $-1 77.187414166692093 0 0 -1 0 0 0 0 1 forward_v I I I I #
coedge $-1 $143 $141 $145 $224 reversed $82 $-1 #
edge $-1 $156 -7.6932185408745415 $226 7.6932185408745415 $155 $292 forward 7 unknown #
vertex $-1 $224 $293 #
straight-curve $-1 -77.187414166692093 -31.52583033339204 0 0 0 -1 I I #
edge $-1 $222 -31.52583033339204 $226 31.52583033339204 $220 $294 forward 7 unknown #
straight-curve $-1 0 -31.52583033339204 -7.6932185408745415 -1 0 0 I I #
vertex $-1 $148 $295 #
straight-curve $-1 0 31.52583033339204 -7.6932185408745415 1 0 0 I I #
point $-1 77.187414166692093 31.52583033339204 -7.6932185408745415 #
point $-1 77.187414166692093 -31.52583033339204 -7.6932185408745415 #
straight-curve $-1 -77.187414166692093 0 7.6932185408745415 0 -1 0 I I #
point $-1 -77.187414166692093 31.52583033339204 7.6932185408745415 #
point $-1 -77.187414166692093 -31.52583033339204 7.6932185408745415 #
straight-curve $-1 77.187414166692093 -31.52583033339204 0 0 0 -1 I I #
straight-curve $-1 77.187414166692093 31.52583033339204 0 0 0 -1 I I #
face $-1 $296 $180 $13 $-1 $297 reversed single #
plane-surface $-1 0 0 7.6932185408745415 0 0 1 1 0 0 forward_v I I I I #
coedge $-1 $298 $299 $238 $300 forward $166 $-1 #
coedge $-1 $168 $167 $237 $300 reversed $58 $-1 #
edge $-1 $301 -3.6663174366551878 $181 3.6663174366551843 $167 $302 forward 7 unknown #
edge $-1 $185 -3.6663174366551843 $303 3.6663174366551878 $168 $304 forward 7 unknown #
straight-curve $-1 -61.800977084943014 -38.858465206702412 0 0 0 -1 I I #
coedge $-1 $305 $170 $175 $248 forward $180 $-1 #
straight-curve $-1 -64.800977084943014 -35.192147770047228 -7.6932185408745415 0 1 0 I I #
coedge $-1 $172 $306 $174 $247 forward $184 $-1 #
straight-curve $-1 -64.800977084943014 -35.192147770047228 7.6932185408745415 0 -1 0 I I #
coedge $-1 $175 $174 $307 $308 forward $101 $-1 #
edge $-1 $309 -77.187414166692093 $177 -64.800977084943014 $174 $310 forward 7 unknown #
edge $-1 $176 64.800977084943014 $311 77.187414166692093 $175 $312 forward 7 unknown #
point $-1 -64.800977084943014 -31.52583033339204 -7.6932185408745415 #
point $-1 -64.800977084943014 -31.52583033339204 7.6932185408745415 #
coedge $-1 $179 $252 $298 $313 forward $180 $-1 #
coedge $-1 $251 $314 $315 $316 forward $180 $-1 #
point $-1 -61.800977084943014 -38.858465206702412 -7.6932185408745415 #
coedge $-1 $255 $183 $299 $317 forward $184 $-1 #
coedge $-1 $318 $254 $319 $320 forward $184 $-1 #
point $-1 -61.800977084943014 -38.858465206702412 7.6932185408745415 #
face $-1 $321 $322 $14 $-1 $323 reversed single #
loop $-1 $-1 $324 $189 #
plane-surface $-1 -64.800977084943014 -35.192147770047228 0 1 0 0 0 0 -1 forward_v I I I I #
coedge $-1 $325 $326 $327 $328 forward $190 $-1 #
coedge $-1 $192 $203 $329 $330 reversed $66 $-1 #
coedge $-1 $331 $194 $192 $263 forward $266 $-1 #
edge $-1 $196 -3.7855698121681649 $332 7.6932185408745415 $192 $333 forward 7 unknown #
edge $-1 $198 19.947953772871294 $267 44.808958186837629 $200 $334 forward 7 unknown #
coedge $-1 $194 $335 $271 $336 reversed $266 $-1 #
loop $-1 $-1 $194 $337 #
vertex $-1 $336 $338 #
straight-curve $-1 -77.187414166692093 1.6373457138129464 32.648544560573313 0 0.71933979245794832 -0.69465837861970381 I I #
point $-1 -77.187414166692093 31.52583033339204 3.7855698121681649 #
point $-1 -52.326409752725759 27.479341711039908 7.6932185408745397 #
coedge $-1 $339 $200 $265 $336 forward $117 $-1 #
coedge $-1 $201 $340 $341 $342 forward $117 $-1 #
coedge $-1 $341 $343 $203 $274 reversed $344 $-1 #
edge $-1 $275 -7.6932185408745415 $345 7.6932185408745415 $273 $346 forward 7 unknown #
vertex $-1 $342 $347 #
straight-curve $-1 0 31.52583033339204 7.6932185408745415 -1 0 0 I I #
face $-1 $348 $349 $15 $-1 $350 reversed single #
loop $-1 $-1 $284 $207 #
plane-surface $-1 0 0 7.6932185408745415 0 0 1 1 0 0 forward_v I I I I #
coedge $-1 $213 $351 $281 $352 forward $208 $-1 #
coedge $-1 $353 $282 $280 $352 reversed $210 $-1 #
coedge $-1 $281 $354 $211 $283 reversed $210 $-1 #
edge $-1 $287 -63.051660666784073 $355 -57.426379450899333 $211 $356 forward 7 unknown #
coedge $-1 $357 $358 $212 $285 forward $278 $-1 #
edge $-1 $288 15.178184559099147 $355 19.22467318145128 $284 $359 forward 7 unknown #
coedge $-1 $360 $213 $358 $361 reversed $208 $-1 #
vertex $-1 $352 $362 #
vertex $-1 $285 $363 #
straight-curve $-1 -52.326409752725759 31.52583033339204 79.316445577152066 0 0 1 I I #
vertex $-1 $215 $364 #
point $-1 -63.75691195970893 28.548631198120706 4.7515450606113561 #
straight-curve $-1 -77.187414166692093 31.52583033339204 0 0 0 -1 I I #
point $-1 -77.187414166692093 -31.52583033339204 -7.6932185408745415 #
straight-curve $-1 -77.187414166692093 0 -7.6932185408745415 0 1 0 I I #
point $-1 -77.187414166692093 31.52583033339204 -7.6932185408745415 #
face $-1 $365 $366 $13 $-1 $367 reversed single #
plane-surface $-1 0 0 -7.6932185408745415 0 0 1 1 0 0 forward_v I I I I #
coedge $-1 $368 $237 $251 $313 reversed $166 $-1 #
coedge $-1 $237 $368 $254 $317 reversed $166 $-1 #
edge $-1 $303 -7.6932185408745415 $301 7.6932185408745415 $237 $369 forward 7 unknown #
vertex $-1 $239 $370 #
straight-curve $-1 -61.800977084943014 -35.192147770047228 -7.6932185408745415 0 -1 0 I I #
vertex $-1 $317 $371 #
straight-curve $-1 -61.800977084943014 -35.192147770047228 7.6932185408745415 0 1 0 I I #
coedge $-1 $314 $242 $372 $373 forward $180 $-1 #
coedge $-1 $244 $318 $374 $375 forward $184 $-1 #
coedge $-1 $374 $372 $246 $308 reversed $366 $-1 #
edge $-1 $309 -7.6932185408745415 $311 7.6932185408745415 $307 $376 forward 7 unknown #
vertex $-1 $375 $377 #
straight-curve $-1 0 -31.52583033339204 7.6932185408745415 1 0 0 I I #
vertex $-1 $373 $378 #
straight-curve $-1 0 -31.52583033339204 -7.6932185408745415 -1 0 0 I I #
edge $-1 $379 -77.187414166692093 $301 61.800977084943014 $298 $312 forward 7 unknown #
coedge $-1 $252 $305 $380 $381 forward $180 $-1 #
coedge $-1 $382 $383 $252 $316 reversed $384 $-1 #
edge $-1 $385 -31.52583033339204 $379 31.52583033339204 $315 $386 forward 7 unknown #
edge $-1 $303 -61.800977084943014 $387 77.187414166692093 $299 $310 forward 7 unknown #
coedge $-1 $306 $255 $388 $389 forward $184 $-1 #
coedge $-1 $383 $382 $255 $320 reversed $384 $-1 #
edge $-1 $387 -31.52583033339204 $390 31.52583033339204 $319 $391 forward 7 unknown #
face $-1 $392 $393 $14 $-1 $394 reversed single #
loop $-1 $-1 $395 $257 #
plane-surface $-1 -61.800977084943014 -35.192147770047228 0 -1 0 0 0 0 1 forward_v I I I I #
coedge $-1 $396 $397 $398 $399 reversed $258 $-1 #
coedge $-1 $400 $260 $401 $402 reversed $190 $-1 #
coedge $-1 $260 $400 $403 $404 reversed $190 $-1 #
coedge $-1 $397 $396 $260 $328 reversed $258 $-1 #
edge $-1 $405 -7.6932185408745415 $406 7.6932185408745415 $327 $407 forward 7 unknown #
coedge $-1 $408 $409 $261 $330 forward $410 $-1 #
edge $-1 $332 -77.187414166692093 $345 77.187414166692093 $261 $411 forward 7 unknown #
coedge $-1 $335 $262 $409 $412 reversed $266 $-1 #
vertex $-1 $330 $413 #
straight-curve $-1 -77.187414166692093 31.52583033339204 0 0 0 -1 I I #
straight-curve $-1 -32.378455979854465 27.479341711039908 7.6932185408745397 -1 0 0 I I #
coedge $-1 $265 $331 $414 $415 reversed $266 $-1 #
edge $-1 $267 -27.479341711039908 $416 31.52583033339204 $265 $417 forward 7 unknown #
face $-1 $418 $266 $14 $-1 $419 reversed single #
point $-1 -77.187414166692093 27.479341711039908 7.6932185408745397 #
coedge $-1 $420 $271 $421 $422 forward $117 $-1 #
coedge $-1 $272 $423 $424 $425 forward $117 $-1 #
coedge $-1 $426 $273 $272 $342 reversed $344 $-1 #
edge $-1 $427 -31.52583033339204 $275 31.52583033339204 $341 $428 forward 7 unknown #
coedge $-1 $273 $426 $408 $429 reversed $344 $-1 #
loop $-1 $-1 $426 $418 #
vertex $-1 $429 $430 #
straight-curve $-1 77.187414166692093 31.52583033339204 0 0 0 -1 I I #
point $-1 77.187414166692093 31.52583033339204 7.6932185408745415 #
face $-1 $431 $432 $15 $-1 $433 reversed single #
loop $-1 $-1 $434 $277 #
plane-surface $-1 -63.300977084943014 -38.858465206702412 0 0 1 0 0 0 1 forward_v I I I I #
coedge $-1 $280 $435 $436 $437 reversed $208 $-1 #
edge $-1 $438 -44.808958186837629 $287 -19.947953772871294 $280 $439 forward 7 unknown #
coedge $-1 $354 $281 $440 $441 reversed $210 $-1 #
coedge $-1 $282 $353 $357 $442 reversed $210 $-1 #
vertex $-1 $442 $443 #
straight-curve $-1 -52.326409752725759 -13.829738164781403 47.584934180236147 0 -0.71933979245794832 0.69465837861970381 I I #
coedge $-1 $444 $284 $354 $442 forward $278 $-1 #
coedge $-1 $284 $445 $286 $361 forward $278 $-1 #
straight-curve $-1 -52.326409752725759 46.704014892491188 7.6932185408745397 0 -1 0 I I #
coedge $-1 $435 $286 $446 $447 forward $208 $-1 #
edge $-1 $448 -77.187414166692093 $288 52.326409752725759 $286 $449 forward 7 unknown #
point $-1 -52.326409752725759 31.525830333392037 3.7855698121681698 #
point $-1 -52.326409752725759 31.52583033339204 7.6932185408745415 #
point $-1 -64.75691195970893 27.853972819500999 4.0322052681534082 #
face $-1 $450 $451 $13 $-1 $452 reversed single #
loop $-1 $-1 $453 $296 #
plane-surface $-1 -77.187414166692093 0 0 1 0 0 0 0 -1 forward_v I I I I #
coedge $-1 $299 $298 $383 $454 reversed $166 $-1 #
straight-curve $-1 -61.800977084943014 -31.52583033339204 0 0 0 -1 I I #
point $-1 -61.800977084943014 -31.52583033339204 -7.6932185408745415 #
point $-1 -61.800977084943014 -31.52583033339204 7.6932185408745415 #
coedge $-1 $307 $453 $305 $373 reversed $366 $-1 #
edge $-1 $311 -31.52583033339204 $455 31.52583033339204 $372 $456 forward 7 unknown #
coedge $-1 $453 $307 $306 $375 reversed $366 $-1 #
edge $-1 $457 -31.52583033339204 $309 31.52583033339204 $374 $458 forward 7 unknown #
straight-curve $-1 -77.187414166692093 -31.52583033339204 0 0 0 -1 I I #
point $-1 -77.187414166692093 -31.52583033339204 7.6932185408745415 #
point $-1 -77.187414166692093 -31.52583033339204 -7.6932185408745415 #
vertex $-1 $454 $459 #
coedge $-1 $460 $461 $314 $381 reversed $451 $-1 #
edge $-1 $455 -77.187414166692093 $385 77.187414166692093 $380 $462 forward 7 unknown #
coedge $-1 $319 $315 $461 $463 reversed $384 $-1 #
coedge $-1 $315 $319 $368 $454 forward $384 $-1 #
loop $-1 $-1 $383 $450 #
vertex $-1 $316 $464 #
straight-curve $-1 77.187414166692093 0 -7.6932185408745415 0 -1 0 I I #
vertex $-1 $320 $465 #
coedge $-1 $461 $460 $318 $389 reversed $451 $-1 #
edge $-1 $390 -77.187414166692093 $457 77.187414166692093 $388 $466 forward 7 unknown #
vertex $-1 $320 $467 #
straight-curve $-1 77.187414166692093 0 7.6932185408745415 0 1 0 I I #
face $-1 $468 $469 $14 $-1 $394 reversed single #
loop $-1 $-1 $398 $321 #
plane-surface $-1 0 -31.52583033339204 0 0 1 0 0 0 1 forward_v I I I I #
coedge $-1 $470 $471 $400 $472 forward $322 $-1 #
coedge $-1 $327 $324 $473 $474 reversed $258 $-1 #
coedge $-1 $324 $327 $420 $475 reversed $258 $-1 #
coedge $-1 $421 $476 $324 $399 forward $393 $-1 #
edge $-1 $477 -7.6932185408745415 $478 7.6932185408745415 $398 $479 forward 7 unknown #
coedge $-1 $326 $325 $395 $472 reversed $190 $-1 #
coedge $-1 $473 $480 $325 $402 forward $410 $-1 #
edge $-1 $481 -1.5 $406 1.5 $325 $482 forward 7 unknown #
coedge $-1 $423 $420 $326 $404 forward $117 $-1 #
edge $-1 $405 -1.5 $483 1.5 $326 $484 forward 7 unknown #
vertex $-1 $475 $485 #
vertex $-1 $474 $486 #
straight-curve $-1 -64.800977084943014 -38.858465206702412 0 0 0 -1 I I #
coedge $-1 $487 $329 $343 $429 forward $410 $-1 #
coedge $-1 $329 $488 $331 $412 forward $410 $-1 #
loop $-1 $-1 $408 $468 #
straight-curve $-1 0 31.52583033339204 -7.6932185408745415 1 0 0 I I #
edge $-1 $489 -31.52583033339204 $332 31.52583033339204 $331 $490 forward 7 unknown #
point $-1 -77.187414166692093 31.52583033339204 -7.6932185408745415 #
coedge $-1 $476 $421 $335 $415 forward $393 $-1 #
edge $-1 $416 -7.6932185408745415 $489 7.6932185408745415 $335 $491 forward 7 unknown #
vertex $-1 $336 $492 #
straight-curve $-1 -77.187414166692093 0 7.6932185408745415 0 -1 0 I I #
face $-1 $-1 $344 $14 $-1 $493 reversed single #
plane-surface $-1 -77.187414166692093 0 0 1 0 0 0 0 -1 forward_v I I I I #
coedge $-1 $403 $339 $397 $475 forward $117 $-1 #
coedge $-1 $414 $398 $339 $422 reversed $393 $-1 #
edge $-1 $416 -77.187414166692093 $478 -64.800977084943014 $421 $494 forward 7 unknown #
coedge $-1 $340 $403 $471 $495 forward $117 $-1 #
coedge $-1 $496 $497 $340 $425 reversed $469 $-1 #
edge $-1 $498 -61.800977084943014 $427 77.187414166692093 $424 $494 forward 7 unknown #
coedge $-1 $343 $341 $497 $499 forward $344 $-1 #
vertex $-1 $342 $500 #
straight-curve $-1 77.187414166692093 0 7.6932185408745415 0 1 0 I I #
edge $-1 $345 -31.52583033339204 $501 31.52583033339204 $343 $502 forward 7 unknown #
point $-1 77.187414166692093 31.52583033339204 -7.6932185408745415 #
face $-1 $503 $504 $15 $-1 $505 reversed single #
loop $-1 $-1 $506 $348 #
plane-surface $-1 -64.800977084943014 -35.192147770047228 0 1 0 0 0 0 -1 forward_v I I I I #
coedge $-1 $507 $508 $509 $510 forward $349 $-1 #
coedge $-1 $351 $360 $511 $512 reversed $208 $-1 #
coedge $-1 $513 $440 $351 $437 forward $514 $-1 #
edge $-1 $438 -3.7855698121681649 $515 7.6932185408745415 $351 $516 forward 7 unknown #
vertex $-1 $437 $517 #
straight-curve $-1 -32.378455979854465 31.52583033339204 3.7855698121681662 1 0 0 I I #
coedge $-1 $436 $518 $353 $441 forward $514 $-1 #
edge $-1 $519 35.924602348114433 $438 41.549883563999181 $440 $520 forward 7 unknown #
edge $-1 $355 19.947953772871294 $519 44.808958186837629 $357 $521 forward 7 unknown #
point $-1 -52.326409752725759 27.479341711039908 7.6932185408745397 #
coedge $-1 $522 $357 $518 $523 forward $278 $-1 #
coedge $-1 $358 $524 $525 $526 forward $278 $-1 #
coedge $-1 $525 $527 $360 $447 reversed $528 $-1 #
edge $-1 $448 -7.6932185408745415 $529 7.6932185408745415 $446 $530 forward 7 unknown #
vertex $-1 $526 $531 #
straight-curve $-1 0 31.52583033339204 7.6932185408745415 -1 0 0 I I #
face $-1 $-1 $384 $13 $-1 $532 reversed single #
loop $-1 $-1 $461 $365 #
plane-surface $-1 0 31.52583033339204 0 0 -1 0 0 0 -1 forward_v I I I I #
coedge $-1 $372 $374 $460 $533 forward $366 $-1 #
edge $-1 $387 -7.6932185408745415 $379 7.6932185408745415 $383 $534 forward 7 unknown #
vertex $-1 $381 $535 #
straight-curve $-1 -77.187414166692093 0 -7.6932185408745415 0 1 0 I I #
vertex $-1 $389 $536 #
straight-curve $-1 -77.187414166692093 0 7.6932185408745415 0 -1 0 I I #
point $-1 77.187414166692093 -31.52583033339204 -7.6932185408745415 #
coedge $-1 $388 $380 $453 $533 reversed $451 $-1 #
coedge $-1 $380 $388 $382 $463 forward $451 $-1 #
straight-curve $-1 0 31.52583033339204 -7.6932185408745415 1 0 0 I I #
edge $-1 $390 -7.6932185408745415 $385 7.6932185408745415 $382 $537 forward 7 unknown #
point $-1 77.187414166692093 31.52583033339204 -7.6932185408745415 #
point $-1 77.187414166692093 -31.52583033339204 7.6932185408745415 #
straight-curve $-1 0 31.52583033339204 7.6932185408745415 -1 0 0 I I #
point $-1 77.187414166692093 31.52583033339204 7.6932185408745415 #
face $-1 $337 $410 $14 $-1 $538 reversed single #
loop $-1 $-1 $496 $392 #
coedge $-1 $539 $395 $480 $540 reversed $322 $-1 #
coedge $-1 $395 $539 $423 $495 reversed $322 $-1 #
edge $-1 $483 -7.6932185408745415 $481 7.6932185408745415 $395 $541 forward 7 unknown #
coedge $-1 $488 $401 $396 $474 forward $410 $-1 #
edge $-1 $406 -3.6663174366551843 $477 3.6663174366551878 $396 $542 forward 7 unknown #
edge $-1 $478 -3.6663174366551878 $405 3.6663174366551843 $397 $543 forward 7 unknown #
coedge $-1 $398 $414 $488 $544 reversed $393 $-1 #
vertex $-1 $544 $545 #
vertex $-1 $475 $546 #
straight-curve $-1 -64.800977084943014 -31.52583033339204 0 0 0 1 I I #
coedge $-1 $401 $487 $470 $540 forward $410 $-1 #
vertex $-1 $472 $547 #
straight-curve $-1 -63.300977084943014 -38.858465206702412 -7.6932185408745415 -1 0 0 I I #
vertex $-1 $495 $548 #
straight-curve $-1 -63.300977084943014 -38.858465206702412 7.6932185408745415 1 0 0 I I #
point $-1 -64.800977084943014 -38.858465206702412 7.6932185408745415 #
point $-1 -64.800977084943014 -38.858465206702412 -7.6932185408745415 #
coedge $-1 $480 $408 $549 $550 forward $410 $-1 #
coedge $-1 $409 $473 $476 $544 forward $410 $-1 #
vertex $-1 $412 $551 #
straight-curve $-1 -77.187414166692093 0 -7.6932185408745415 0 1 0 I I #
straight-curve $-1 -77.187414166692093 -31.52583033339204 0 0 0 -1 I I #
point $-1 -77.187414166692093 -31.52583033339204 7.6932185408745415 #
plane-surface $-1 77.187414166692093 0 0 -1 0 0 0 0 1 forward_v I I I I #
straight-curve $-1 0 -31.52583033339204 7.6932185408745415 1 0 0 I I #
edge $-1 $483 -3.6663174366551843 $498 3.6663174366551878 $471 $552 forward 7 unknown #
coedge $-1 $549 $424 $539 $553 forward $469 $-1 #
coedge $-1 $424 $549 $426 $499 reversed $469 $-1 #
vertex $-1 $425 $554 #
edge $-1 $427 -7.6932185408745415 $501 7.6932185408745415 $426 $555 forward 7 unknown #
point $-1 77.187414166692093 -31.52583033339204 7.6932185408745415 #
vertex $-1 $499 $556 #
straight-curve $-1 77.187414166692093 0 -7.6932185408745415 0 -1 0 I I #
face $-1 $557 $558 $15 $-1 $559 reversed single #
loop $-1 $-1 $560 $431 #
plane-surface $-1 -61.800977084943014 -35.192147770047228 0 -1 0 0 0 0 1 forward_v I I I I #
coedge $-1 $561 $562 $563 $564 reversed $432 $-1 #
coedge $-1 $565 $434 $566 $567 reversed $349 $-1 #
coedge $-1 $434 $565 $568 $569 reversed $349 $-1 #
coedge $-1 $562 $561 $434 $510 reversed $432 $-1 #
edge $-1 $570 -7.6932185408745415 $571 7.6932185408745415 $509 $572 forward 7 unknown #
coedge $-1 $573 $574 $435 $512 forward $575 $-1 #
edge $-1 $515 -77.187414166692093 $529 77.187414166692093 $435 $576 forward 7 unknown #
coedge $-1 $577 $436 $574 $578 reversed $514 $-1 #
loop $-1 $-1 $440 $579 #
vertex $-1 $512 $580 #
straight-curve $-1 -77.187414166692093 31.52583033339204 0 0 0 -1 I I #
point $-1 -77.187414166692093 31.52583033339204 3.7855698121681649 #
coedge $-1 $440 $577 $444 $523 reversed $514 $-1 #
vertex $-1 $523 $581 #
straight-curve $-1 -77.187414166692093 1.6373457138129464 32.648544560573313 0 0.71933979245794832 -0.69465837861970381 I I #
straight-curve $-1 -32.378455979854465 27.479341711039908 7.6932185408745397 -1 0 0 I I #
coedge $-1 $582 $444 $583 $584 forward $278 $-1 #
edge $-1 $519 -27.479341711039908 $585 31.52583033339204 $518 $586 forward 7 unknown #
coedge $-1 $445 $587 $588 $589 forward $278 $-1 #
coedge $-1 $590 $446 $445 $526 reversed $528 $-1 #
edge $-1 $591 -31.52583033339204 $448 31.52583033339204 $525 $592 forward 7 unknown #
coedge $-1 $446 $590 $573 $593 reversed $528 $-1 #
loop $-1 $-1 $590 $594 #
vertex $-1 $593 $595 #
straight-curve $-1 77.187414166692093 31.52583033339204 0 0 0 -1 I I #
point $-1 77.187414166692093 31.52583033339204 7.6932185408745415 #
plane-surface $-1 77.187414166692093 0 0 -1 0 0 0 0 1 forward_v I I I I #
edge $-1 $457 -7.6932185408745415 $455 7.6932185408745415 $460 $596 forward 7 unknown #
straight-curve $-1 77.187414166692093 -31.52583033339204 0 0 0 -1 I I #
point $-1 -77.187414166692093 31.52583033339204 -7.6932185408745415 #
point $-1 -77.187414166692093 31.52583033339204 7.6932185408745415 #
straight-curve $-1 77.187414166692093 31.52583033339204 0 0 0 -1 I I #
plane-surface $-1 0 0 -7.6932185408745415 0 0 1 1 0 0 forward_v I I I I #
coedge $-1 $471 $470 $496 $553 reversed $322 $-1 #
edge $-1 $597 -3.6663174366551878 $481 3.6663174366551843 $470 $598 forward 7 unknown #
straight-curve $-1 -61.800977084943014 -38.858465206702412 0 0 0 -1 I I #
straight-curve $-1 -64.800977084943014 -35.192147770047228 -7.6932185408745415 0 1 0 I I #
straight-curve $-1 -64.800977084943014 -35.192147770047228 7.6932185408745415 0 -1 0 I I #
edge $-1 $477 64.800977084943014 $489 77.187414166692093 $476 $599 forward 7 unknown #
point $-1 -64.800977084943014 -31.52583033339204 -7.6932185408745415 #
point $-1 -64.800977084943014 -31.52583033339204 7.6932185408745415 #
point $-1 -61.800977084943014 -38.858465206702412 -7.6932185408745415 #
point $-1 -61.800977084943014 -38.858465206702412 7.6932185408745415 #
coedge $-1 $497 $496 $487 $550 reversed $469 $-1 #
edge $-1 $501 -77.187414166692093 $597 61.800977084943014 $549 $599 forward 7 unknown #
point $-1 -77.187414166692093 -31.52583033339204 -7.6932185408745415 #
straight-curve $-1 -61.800977084943014 -35.192147770047228 7.6932185408745415 0 1 0 I I #
edge $-1 $498 -7.6932185408745415 $597 7.6932185408745415 $496 $600 forward 7 unknown #
point $-1 -61.800977084943014 -31.52583033339204 7.6932185408745415 #
straight-curve $-1 77.187414166692093 -31.52583033339204 0 0 0 -1 I I #
point $-1 77.187414166692093 -31.52583033339204 -7.6932185408745415 #
face $-1 $601 $602 $15 $-1 $559 reversed single #
loop $-1 $-1 $563 $503 #
plane-surface $-1 0 -31.52583033339204 0 0 1 0 0 0 1 forward_v I I I I #
coedge $-1 $603 $604 $565 $605 forward $504 $-1 #
coedge $-1 $509 $506 $606 $607 reversed $432 $-1 #
coedge $-1 $506 $509 $582 $608 reversed $432 $-1 #
coedge $-1 $583 $609 $506 $564 forward $558 $-1 #
edge $-1 $610 -7.6932185408745415 $611 7.6932185408745415 $563 $612 forward 7 unknown #
coedge $-1 $508 $507 $560 $605 reversed $349 $-1 #
coedge $-1 $606 $613 $507 $567 forward $575 $-1 #
edge $-1 $614 -1.5 $571 1.5 $507 $615 forward 7 unknown #
coedge $-1 $587 $582 $508 $569 forward $278 $-1 #
edge $-1 $570 -1.5 $616 1.5 $508 $617 forward 7 unknown #
vertex $-1 $608 $618 #
vertex $-1 $607 $619 #
straight-curve $-1 -64.800977084943014 -38.858465206702412 0 0 0 -1 I I #
coedge $-1 $620 $511 $527 $593 forward $575 $-1 #
coedge $-1 $511 $621 $513 $578 forward $575 $-1 #
loop $-1 $-1 $573 $601 #
straight-curve $-1 0 31.52583033339204 -7.6932185408745415 1 0 0 I I #
coedge $-1 $518 $513 $622 $623 reversed $514 $-1 #
edge $-1 $624 -31.52583033339204 $515 31.52583033339204 $513 $625 forward 7 unknown #
face $-1 $594 $514 $15 $-1 $626 reversed single #
point $-1 -77.187414166692093 31.52583033339204 -7.6932185408745415 #
point $-1 -77.187414166692093 27.479341711039908 7.6932185408745397 #
coedge $-1 $568 $522 $562 $608 forward $278 $-1 #
coedge $-1 $622 $563 $522 $584 reversed $558 $-1 #
edge $-1 $585 -77.187414166692093 $611 -64.800977084943014 $583 $627 forward 7 unknown #
vertex $-1 $523 $628 #
straight-curve $-1 -77.187414166692093 0 7.6932185408745415 0 -1 0 I I #
coedge $-1 $524 $568 $604 $629 forward $278 $-1 #
coedge $-1 $630 $631 $524 $589 reversed $602 $-1 #
edge $-1 $632 -61.800977084943014 $591 77.187414166692093 $588 $627 forward 7 unknown #
coedge $-1 $527 $525 $631 $633 forward $528 $-1 #
vertex $-1 $526 $634 #
straight-curve $-1 77.187414166692093 0 7.6932185408745415 0 1 0 I I #
edge $-1 $529 -31.52583033339204 $635 31.52583033339204 $527 $636 forward 7 unknown #
face $-1 $-1 $528 $15 $-1 $637 reversed single #
point $-1 77.187414166692093 31.52583033339204 -7.6932185408745415 #
straight-curve $-1 -77.187414166692093 31.52583033339204 0 0 0 -1 I I #
vertex $-1 $540 $638 #
straight-curve $-1 -61.800977084943014 -35.192147770047228 -7.6932185408745415 0 -1 0 I I #
straight-curve $-1 0 -31.52583033339204 -7.6932185408745415 -1 0 0 I I #
straight-curve $-1 -61.800977084943014 -31.52583033339204 0 0 0 -1 I I #
face $-1 $579 $575 $15 $-1 $639 reversed single #
loop $-1 $-1 $630 $557 #
coedge $-1 $640 $560 $613 $641 reversed $504 $-1 #
coedge $-1 $560 $640 $587 $629 reversed $504 $-1 #
edge $-1 $616 -7.6932185408745415 $614 7.6932185408745415 $560 $642 forward 7 unknown #
coedge $-1 $621 $566 $561 $607 forward $575 $-1 #
edge $-1 $571 -3.6663174366551843 $610 3.6663174366551878 $561 $643 forward 7 unknown #
edge $-1 $611 -3.6663174366551878 $570 3.6663174366551843 $562 $644 forward 7 unknown #
coedge $-1 $563 $622 $621 $645 reversed $558 $-1 #
vertex $-1 $645 $646 #
vertex $-1 $608 $647 #
straight-curve $-1 -64.800977084943014 -31.52583033339204 0 0 0 1 I I #
coedge $-1 $566 $620 $603 $641 forward $575 $-1 #
vertex $-1 $605 $648 #
straight-curve $-1 -63.300977084943014 -38.858465206702412 -7.6932185408745415 -1 0 0 I I #
vertex $-1 $629 $649 #
straight-curve $-1 -63.300977084943014 -38.858465206702412 7.6932185408745415 1 0 0 I I #
point $-1 -64.800977084943014 -38.858465206702412 7.6932185408745415 #
point $-1 -64.800977084943014 -38.858465206702412 -7.6932185408745415 #
coedge $-1 $613 $573 $650 $651 forward $575 $-1 #
coedge $-1 $574 $606 $609 $645 forward $575 $-1 #
coedge $-1 $609 $583 $577 $623 forward $558 $-1 #
edge $-1 $585 -7.6932185408745415 $624 7.6932185408745415 $577 $652 forward 7 unknown #
vertex $-1 $578 $653 #
straight-curve $-1 -77.187414166692093 0 -7.6932185408745415 0 1 0 I I #
plane-surface $-1 -77.187414166692093 0 0 1 0 0 0 0 -1 forward_v I I I I #
straight-curve $-1 0 -31.52583033339204 7.6932185408745415 1 0 0 I I #
point $-1 -77.187414166692093 -31.52583033339204 7.6932185408745415 #
edge $-1 $616 -3.6663174366551843 $632 3.6663174366551878 $604 $654 forward 7 unknown #
coedge $-1 $650 $588 $640 $655 forward $602 $-1 #
coedge $-1 $588 $650 $590 $633 reversed $602 $-1 #
vertex $-1 $589 $656 #
edge $-1 $591 -7.6932185408745415 $635 7.6932185408745415 $590 $657 forward 7 unknown #
point $-1 77.187414166692093 -31.52583033339204 7.6932185408745415 #
vertex $-1 $633 $658 #
straight-curve $-1 77.187414166692093 0 -7.6932185408745415 0 -1 0 I I #
plane-surface $-1 77.187414166692093 0 0 -1 0 0 0 0 1 forward_v I I I I #
point $-1 -61.800977084943014 -31.52583033339204 -7.6932185408745415 #
plane-surface $-1 0 0 -7.6932185408745415 0 0 1 1 0 0 forward_v I I I I #
coedge $-1 $604 $603 $630 $655 reversed $504 $-1 #
edge $-1 $659 -3.6663174366551878 $614 3.6663174366551843 $603 $660 forward 7 unknown #
straight-curve $-1 -61.800977084943014 -38.858465206702412 0 0 0 -1 I I #
straight-curve $-1 -64.800977084943014 -35.192147770047228 -7.6932185408745415 0 1 0 I I #
straight-curve $-1 -64.800977084943014 -35.192147770047228 7.6932185408745415 0 -1 0 I I #
edge $-1 $610 64.800977084943014 $624 77.187414166692093 $609 $661 forward 7 unknown #
point $-1 -64.800977084943014 -31.52583033339204 -7.6932185408745415 #
point $-1 -64.800977084943014 -31.52583033339204 7.6932185408745415 #
point $-1 -61.800977084943014 -38.858465206702412 -7.6932185408745415 #
point $-1 -61.800977084943014 -38.858465206702412 7.6932185408745415 #
coedge $-1 $631 $630 $620 $651 reversed $602 $-1 #
edge $-1 $635 -77.187414166692093 $659 61.800977084943014 $650 $661 forward 7 unknown #
straight-curve $-1 -77.187414166692093 -31.52583033339204 0 0 0 -1 I I #
point $-1 -77.187414166692093 -31.52583033339204 -7.6932185408745415 #
straight-curve $-1 -61.800977084943014 -35.192147770047228 7.6932185408745415 0 1 0 I I #
edge $-1 $632 -7.6932185408745415 $659 7.6932185408745415 $630 $662 forward 7 unknown #
point $-1 -61.800977084943014 -31.52583033339204 7.6932185408745415 #
straight-curve $-1 77.187414166692093 -31.52583033339204 0 0 0 -1 I I #
point $-1 77.187414166692093 -31.52583033339204 -7.6932185408745415 #
vertex $-1 $641 $663 #
straight-curve $-1 -61.800977084943014 -35.192147770047228 -7.6932185408745415 0 -1 0 I I #
straight-curve $-1 0 -31.52583033339204 -7.6932185408745415 -1 0 0 I I #
straight-curve $-1 -61.800977084943014 -31.52583033339204 0 0 0 -1 I I #
point $-1 -61.800977084943014 -31.52583033339204 -7.6932185408745415 #
End-of-ACIS-data 