500 0 3 0           
7 Unknown 11 ACIS 5.0 NT 24 Thu Mar 25 19:02:43 1999 
-1 9.9999999999999995e-007 1e-010 
body $-1 $3 $-1 $4 #
body $-1 $5 $-1 $6 #
body $-1 $7 $-1 $8 #
lump $-1 $-1 $9 $0 #
transform $-1 1 0 0 0 1 0 0 0 1 58.964201788384656 35.576825923553578 17.332722973675484 1 rotate no_reflect no_shear #
lump $-1 $-1 $10 $1 #
transform $-1 1 0 0 0 1 0 0 0 1 58.964201788384656 35.576825923553578 17.332722973675484 1 rotate no_reflect no_shear #
lump $-1 $-1 $11 $2 #
transform $-1 1 0 0 0 1 0 0 0 1 58.964201788384656 35.576825923553578 17.332722973675484 1 rotate no_reflect no_shear #
shell $-1 $-1 $-1 $12 $-1 $3 #
shell $-1 $-1 $-1 $13 $-1 $5 #
shell $-1 $-1 $-1 $14 $-1 $7 #
face $-1 $15 $16 $9 $-1 $17 forward single #
face $-1 $18 $19 $10 $-1 $20 reversed single #
face $-1 $21 $22 $11 $-1 $23 forward single #
face $-1 $24 $25 $9 $-1 $26 reversed single #
loop $-1 $-1 $27 $12 #
plane-surface $-1 0 0 17.332722973675484 0 0 1 1 0 0 forward_v I I I I #
face $-1 $28 $29 $10 $-1 $30 reversed single #
loop $-1 $-1 $31 $13 #
plane-surface $-1 -45.249798895867762 -27.073323372509016 0 1 0 0 0 0 -1 forward_v I I I I #
face $-1 $32 $33 $11 $-1 $34 reversed single #
loop $-1 $-1 $35 $14 #
plane-surface $-1 0 35.576825923553578 0 0 -1 0 0 0 -1 forward_v I I I I #
face $-1 $36 $37 $9 $-1 $38 reversed single #
loop $-1 $-1 $39 $15 #
plane-surface $-1 0 0 -17.332722973675484 0 0 1 1 0 0 forward_v I I I I #
coedge $-1 $40 $41 $42 $43 forward $16 $-1 #
face $-1 $44 $45 $10 $-1 $46 reversed single #
loop $-1 $-1 $47 $18 #
plane-surface $-1 -40.352869578908603 -18.569820821464454 0 0 -1 0 0 0 -1 forward_v I I I I #
coedge $-1 $48 $49 $50 $51 forward $19 $-1 #
face $-1 $52 $53 $11 $-1 $54 forward single #
loop $-1 $-1 $55 $21 #
plane-surface $-1 58.964201788384656 0 0 -1 0 0 0 0 1 forward_v I I I I #
coedge $-1 $56 $57 $58 $59 forward $22 $-1 #
face $-1 $60 $61 $9 $-1 $62 reversed single #
loop $-1 $-1 $63 $24 #
plane-surface $-1 0 -35.576825923553578 0 0 1 0 0 0 1 forward_v I I I I #
coedge $-1 $64 $65 $66 $67 forward $25 $-1 #
coedge $-1 $68 $27 $69 $70 forward $16 $-1 #
coedge $-1 $27 $68 $71 $72 forward $16 $-1 #
coedge $-1 $73 $74 $27 $43 reversed $75 $-1 #
edge $-1 $76 -35.576825923553578 $77 35.576825923553578 $42 $78 forward 7 unknown #
face $-1 $79 $80 $10 $-1 $81 forward single #
loop $-1 $-1 $82 $28 #
plane-surface $-1 -35.455940261949443 -27.073323372509016 0 -1 0 0 0 0 1 forward_v I I I I #
coedge $-1 $83 $84 $85 $86 forward $29 $-1 #
coedge $-1 $87 $31 $88 $89 reversed $19 $-1 #
coedge $-1 $31 $87 $90 $91 reversed $19 $-1 #
coedge $-1 $84 $83 $31 $51 reversed $29 $-1 #
edge $-1 $92 -17.332722973675484 $93 17.332722973675484 $50 $94 forward 7 unknown #
face $-1 $95 $96 $11 $-1 $97 reversed single #
loop $-1 $-1 $98 $32 #
plane-surface $-1 0 43.089702022712068 -10.725372814546468 0 0 1 1 0 0 forward_v I I I I #
coedge $-1 $99 $100 $57 $101 forward $33 $-1 #
coedge $-1 $102 $35 $103 $104 reversed $22 $-1 #
coedge $-1 $35 $102 $55 $101 reversed $22 $-1 #
coedge $-1 $98 $105 $35 $59 reversed $53 $-1 #
edge $-1 $106 -58.964201788384656 $107 58.964201788384656 $58 $108 forward 7 unknown #
face $-1 $109 $110 $9 $-1 $111 reversed single #
loop $-1 $-1 $112 $36 #
plane-surface $-1 -58.964201788384656 0 0 1 0 0 0 0 -1 forward_v I I I I #
coedge $-1 $113 $71 $114 $115 forward $37 $-1 #
coedge $-1 $116 $39 $113 $117 forward $25 $-1 #
coedge $-1 $39 $116 $118 $119 forward $25 $-1 #
coedge $-1 $74 $73 $39 $67 reversed $75 $-1 #
edge $-1 $120 -35.576825923553578 $121 35.576825923553578 $66 $122 forward 7 unknown #
coedge $-1 $41 $40 $123 $124 forward $16 $-1 #
coedge $-1 $125 $126 $40 $70 reversed $110 $-1 #
edge $-1 $77 -58.964201788384656 $127 58.964201788384656 $69 $128 forward 7 unknown #
coedge $-1 $63 $129 $41 $72 reversed $37 $-1 #
edge $-1 $130 -58.964201788384656 $76 58.964201788384656 $71 $131 forward 7 unknown #
coedge $-1 $66 $42 $129 $132 forward $75 $-1 #
coedge $-1 $42 $66 $125 $133 reversed $75 $-1 #
loop $-1 $-1 $73 $109 #
vertex $-1 $43 $134 #
vertex $-1 $43 $135 #
straight-curve $-1 58.964201788384656 0 17.332722973675484 0 1 0 I I #
face $-1 $136 $137 $10 $-1 $138 reversed single #
loop $-1 $-1 $139 $44 #
plane-surface $-1 0 0 17.332722973675484 0 0 1 1 0 0 forward_v I I I I #
coedge $-1 $140 $141 $142 $143 reversed $45 $-1 #
coedge $-1 $50 $47 $144 $145 reversed $29 $-1 #
coedge $-1 $47 $50 $146 $147 reversed $29 $-1 #
coedge $-1 $141 $140 $47 $86 reversed $45 $-1 #
edge $-1 $148 -17.332722973675484 $149 17.332722973675484 $85 $150 forward 7 unknown #
coedge $-1 $49 $48 $151 $152 reversed $19 $-1 #
coedge $-1 $144 $153 $48 $89 forward $137 $-1 #
edge $-1 $154 -22.04016423729907 $93 -5.0331591352099458 $88 $155 forward 7 unknown #
coedge $-1 $156 $146 $49 $91 forward $80 $-1 #
edge $-1 $92 5.0331591352099458 $157 22.04016423729907 $90 $158 forward 7 unknown #
vertex $-1 $91 $159 #
vertex $-1 $89 $160 #
straight-curve $-1 -45.249798895867762 -18.569820821464454 0 0 0 -1 I I #
face $-1 $161 $162 $11 $-1 $163 reversed single #
loop $-1 $-1 $164 $52 #
plane-surface $-1 0 50.602578121870557 -14.029047894110976 0 -1 0 0 0 -1 forward_v I I I I #
coedge $-1 $165 $58 $100 $166 forward $53 $-1 #
coedge $-1 $167 $55 $168 $169 reversed $33 $-1 #
coedge $-1 $55 $167 $98 $166 reversed $33 $-1 #
edge $-1 $106 10.725372814546468 $170 17.332722973675484 $55 $171 forward 7 unknown #
coedge $-1 $57 $56 $172 $173 reversed $22 $-1 #
coedge $-1 $174 $175 $56 $104 forward $176 $-1 #
edge $-1 $177 -17.332722973675484 $107 -10.725372814546468 $103 $178 forward 7 unknown #
coedge $-1 $58 $165 $174 $179 forward $53 $-1 #
vertex $-1 $101 $180 #
vertex $-1 $179 $181 #
straight-curve $-1 0 35.576825923553578 -10.725372814546468 -1 0 0 I I #
face $-1 $-1 $75 $9 $-1 $182 reversed single #
loop $-1 $-1 $126 $60 #
plane-surface $-1 0 35.576825923553578 0 0 -1 0 0 0 -1 forward_v I I I I #
coedge $-1 $183 $123 $126 $184 forward $61 $-1 #
coedge $-1 $129 $63 $64 $117 reversed $37 $-1 #
coedge $-1 $123 $183 $63 $115 reversed $61 $-1 #
edge $-1 $130 -17.332722973675484 $185 17.332722973675484 $114 $186 forward 7 unknown #
coedge $-1 $65 $64 $183 $187 forward $25 $-1 #
edge $-1 $121 -58.964201788384656 $185 58.964201788384656 $113 $188 forward 7 unknown #
coedge $-1 $126 $125 $65 $119 reversed $110 $-1 #
edge $-1 $189 -58.964201788384656 $120 58.964201788384656 $118 $190 forward 7 unknown #
vertex $-1 $67 $191 #
vertex $-1 $132 $192 #
straight-curve $-1 58.964201788384656 0 -17.332722973675484 0 -1 0 I I #
coedge $-1 $112 $114 $68 $124 reversed $61 $-1 #
edge $-1 $127 -35.576825923553578 $130 35.576825923553578 $123 $193 forward 7 unknown #
coedge $-1 $118 $69 $74 $133 forward $110 $-1 #
coedge $-1 $69 $118 $112 $184 reversed $110 $-1 #
vertex $-1 $70 $194 #
straight-curve $-1 0 35.576825923553578 17.332722973675484 -1 0 0 I I #
coedge $-1 $71 $113 $73 $132 reversed $37 $-1 #
vertex $-1 $124 $195 #
straight-curve $-1 0 -35.576825923553578 17.332722973675484 1 0 0 I I #
edge $-1 $76 -17.332722973675484 $121 17.332722973675484 $73 $196 forward 7 unknown #
edge $-1 $77 -17.332722973675484 $120 17.332722973675484 $74 $197 forward 7 unknown #
point $-1 58.964201788384656 -35.576825923553578 17.332722973675484 #
point $-1 58.964201788384656 35.576825923553578 17.332722973675484 #
face $-1 $-1 $198 $10 $-1 $199 reversed single #
loop $-1 $-1 $200 $79 #
plane-surface $-1 0 0 -17.332722973675484 0 0 1 1 0 0 forward_v I I I I #
coedge $-1 $146 $156 $141 $201 forward $80 $-1 #
coedge $-1 $85 $82 $200 $202 reversed $45 $-1 #
coedge $-1 $82 $85 $139 $201 reversed $45 $-1 #
coedge $-1 $203 $204 $82 $143 forward $198 $-1 #
edge $-1 $205 -17.332722973675484 $206 17.332722973675484 $142 $207 forward 7 unknown #
coedge $-1 $200 $88 $83 $145 forward $137 $-1 #
edge $-1 $93 -25.073364106413461 $149 -15.279505472495142 $144 $208 forward 7 unknown #
coedge $-1 $90 $139 $84 $147 forward $80 $-1 #
edge $-1 $148 15.279505472495142 $92 25.073364106413461 $146 $209 forward 7 unknown #
vertex $-1 $147 $210 #
vertex $-1 $145 $211 #
straight-curve $-1 -35.455940261949443 -18.569820821464454 0 0 0 -1 I I #
coedge $-1 $204 $203 $87 $152 forward $198 $-1 #
edge $-1 $157 -17.332722973675484 $154 17.332722973675484 $151 $212 forward 7 unknown #
coedge $-1 $88 $200 $204 $213 forward $137 $-1 #
vertex $-1 $89 $214 #
straight-curve $-1 -45.249798895867762 -13.536661686254508 -17.332722973675484 0 1 0 I I #
coedge $-1 $139 $90 $203 $215 forward $80 $-1 #
vertex $-1 $215 $216 #
straight-curve $-1 -45.249798895867762 -13.536661686254508 17.332722973675484 0 -1 0 I I #
point $-1 -45.249798895867762 -18.569820821464454 17.332722973675484 #
point $-1 -45.249798895867762 -18.569820821464454 -17.332722973675484 #
face $-1 $-1 $176 $11 $-1 $217 reversed single #
loop $-1 $-1 $172 $95 #
plane-surface $-1 0 0 -17.332722973675484 0 0 1 1 0 0 forward_v I I I I #
coedge $-1 $218 $219 $167 $220 forward $96 $-1 #
coedge $-1 $105 $98 $219 $221 forward $53 $-1 #
edge $-1 $106 -7.5128760991584898 $222 7.5128760991584898 $100 $223 forward 7 unknown #
coedge $-1 $100 $99 $164 $220 reversed $33 $-1 #
coedge $-1 $172 $224 $99 $169 forward $162 $-1 #
edge $-1 $225 -50.602578121870557 $170 -35.576825923553578 $99 $226 forward 7 unknown #
vertex $-1 $101 $227 #
straight-curve $-1 58.964201788384656 35.576825923553578 0 0 0 -1 I I #
coedge $-1 $228 $168 $102 $173 forward $162 $-1 #
edge $-1 $170 -58.964201788384656 $177 58.964201788384656 $172 $229 forward 7 unknown #
coedge $-1 $230 $103 $105 $179 reversed $176 $-1 #
coedge $-1 $103 $230 $228 $231 reversed $176 $-1 #
loop $-1 $-1 $103 $161 #
vertex $-1 $231 $232 #
straight-curve $-1 -58.964201788384656 35.576825923553578 0 0 0 1 I I #
edge $-1 $233 -7.5128760991584898 $107 7.5128760991584898 $174 $234 forward 7 unknown #
point $-1 58.964201788384656 35.576825923553578 -10.725372814546468 #
point $-1 -58.964201788384656 35.576825923553578 -10.725372814546468 #
plane-surface $-1 58.964201788384656 0 0 -1 0 0 0 0 1 forward_v I I I I #
coedge $-1 $114 $112 $116 $187 reversed $61 $-1 #
edge $-1 $127 -17.332722973675484 $189 17.332722973675484 $126 $235 forward 7 unknown #
vertex $-1 $187 $236 #
straight-curve $-1 -58.964201788384656 -35.576825923553578 0 0 0 -1 I I #
edge $-1 $185 -35.576825923553578 $189 35.576825923553578 $183 $237 forward 7 unknown #
straight-curve $-1 0 -35.576825923553578 -17.332722973675484 -1 0 0 I I #
vertex $-1 $119 $238 #
straight-curve $-1 0 35.576825923553578 -17.332722973675484 1 0 0 I I #
point $-1 58.964201788384656 35.576825923553578 -17.332722973675484 #
point $-1 58.964201788384656 -35.576825923553578 -17.332722973675484 #
straight-curve $-1 -58.964201788384656 0 17.332722973675484 0 -1 0 I I #
point $-1 -58.964201788384656 35.576825923553578 17.332722973675484 #
point $-1 -58.964201788384656 -35.576825923553578 17.332722973675484 #
straight-curve $-1 58.964201788384656 -35.576825923553578 0 0 0 -1 I I #
straight-curve $-1 58.964201788384656 35.576825923553578 0 0 0 -1 I I #
loop $-1 $-1 $142 $136 #
plane-surface $-1 0 -35.576825923553578 0 0 1 0 0 0 1 forward_v I I I I #
coedge $-1 $153 $144 $140 $202 forward $137 $-1 #
edge $-1 $206 -22.04016423729907 $148 -5.0331591352099458 $139 $239 forward 7 unknown #
edge $-1 $149 5.0331591352099458 $205 22.04016423729907 $200 $240 forward 7 unknown #
coedge $-1 $151 $142 $156 $215 reversed $198 $-1 #
coedge $-1 $142 $151 $153 $213 reversed $198 $-1 #
vertex $-1 $213 $241 #
vertex $-1 $143 $242 #
straight-curve $-1 -35.455940261949443 -35.576825923553578 0 0 0 1 I I #
straight-curve $-1 -20.176434789454301 -18.569820821464454 -17.332722973675484 1 0 0 I I #
straight-curve $-1 -20.176434789454301 -18.569820821464454 17.332722973675484 -1 0 0 I I #
point $-1 -35.455940261949443 -18.569820821464454 17.332722973675484 #
point $-1 -35.455940261949443 -18.569820821464454 -17.332722973675484 #
straight-curve $-1 -45.249798895867762 -35.576825923553578 0 0 0 -1 I I #
edge $-1 $205 35.455940261949443 $154 45.249798895867762 $204 $243 forward 7 unknown #
point $-1 -45.249798895867762 -35.576825923553578 -17.332722973675484 #
edge $-1 $157 -45.249798895867762 $206 -35.455940261949443 $203 $244 forward 7 unknown #
point $-1 -45.249798895867762 -35.576825923553578 17.332722973675484 #
plane-surface $-1 -58.964201788384656 0 0 1 0 0 0 0 -1 forward_v I I I I #
coedge $-1 $245 $164 $224 $246 reversed $96 $-1 #
coedge $-1 $164 $245 $165 $221 reversed $96 $-1 #
edge $-1 $222 -3.303675079564508 $225 3.303675079564508 $167 $247 forward 7 unknown #
edge $-1 $222 -58.964201788384656 $233 58.964201788384656 $219 $248 forward 7 unknown #
vertex $-1 $166 $249 #
straight-curve $-1 58.964201788384656 43.089702022712068 -10.725372814546468 0 1 0 I I #
coedge $-1 $168 $228 $218 $246 forward $162 $-1 #
vertex $-1 $169 $250 #
straight-curve $-1 58.964201788384656 0 -17.332722973675484 0 -1 0 I I #
point $-1 58.964201788384656 35.576825923553578 -17.332722973675484 #
coedge $-1 $224 $172 $175 $231 forward $162 $-1 #
straight-curve $-1 0 35.576825923553578 -17.332722973675484 -1 0 0 I I #
coedge $-1 $175 $174 $245 $251 forward $176 $-1 #
edge $-1 $177 -7.5128760991584898 $252 7.5128760991584898 $175 $253 forward 7 unknown #
point $-1 -58.964201788384656 35.576825923553578 -17.332722973675484 #
vertex $-1 $221 $254 #
straight-curve $-1 -58.964201788384656 43.089702022712068 -10.725372814546468 0 -1 0 I I #
straight-curve $-1 -58.964201788384656 35.576825923553578 0 0 0 -1 I I #
point $-1 -58.964201788384656 -35.576825923553578 -17.332722973675484 #
straight-curve $-1 -58.964201788384656 0 -17.332722973675484 0 1 0 I I #
point $-1 -58.964201788384656 35.576825923553578 -17.332722973675484 #
straight-curve $-1 -35.455940261949443 -13.536661686254508 17.332722973675484 0 1 0 I I #
straight-curve $-1 -35.455940261949443 -13.536661686254508 -17.332722973675484 0 -1 0 I I #
point $-1 -35.455940261949443 -35.576825923553578 -17.332722973675484 #
point $-1 -35.455940261949443 -35.576825923553578 17.332722973675484 #
straight-curve $-1 0 -35.576825923553578 -17.332722973675484 -1 0 0 I I #
straight-curve $-1 0 -35.576825923553578 17.332722973675484 1 0 0 I I #
coedge $-1 $219 $218 $230 $251 reversed $96 $-1 #
edge $-1 $252 -58.964201788384656 $225 58.964201788384656 $218 $255 forward 7 unknown #
straight-curve $-1 58.964201788384656 50.602578121870557 -14.029047894110976 0 0 -1 I I #
straight-curve $-1 0 50.602578121870557 -10.725372814546468 -1 0 0 I I #
point $-1 58.964201788384656 50.602578121870557 -10.725372814546468 #
point $-1 58.964201788384656 50.602578121870557 -17.332722973675484 #
edge $-1 $233 -3.303675079564508 $252 3.303675079564508 $245 $256 forward 7 unknown #
vertex $-1 $246 $257 #
straight-curve $-1 -58.964201788384656 43.089702022712068 -17.332722973675484 0 1 0 I I #
point $-1 -58.964201788384656 50.602578121870557 -10.725372814546468 #
straight-curve $-1 0 50.602578121870557 -17.332722973675484 1 0 0 I I #
straight-curve $-1 -58.964201788384656 50.602578121870557 -14.029047894110976 0 0 -1 I I #
point $-1 -58.964201788384656 50.602578121870557 -17.332722973675484 #
End-of-ACIS-data 