500 0 9 0           
7 Unknown 11 ACIS 5.0 NT 24 Thu Mar 25 22:47:03 1999 
-1 9.9999999999999995e-007 1e-010 
body $-1 $9 $-1 $10 #
body $-1 $11 $-1 $12 #
body $-1 $13 $-1 $14 #
body $-1 $15 $-1 $16 #
body $-1 $17 $-1 $18 #
body $-1 $19 $-1 $20 #
body $-1 $21 $-1 $22 #
body $-1 $23 $-1 $24 #
body $-1 $25 $-1 $26 #
lump $-1 $-1 $27 $0 #
transform $-1 1 0 0 0 1 0 0 0 1 79.637440107425164 38.90634189836338 15.944155408783322 1 rotate no_reflect no_shear #
lump $-1 $-1 $28 $1 #
transform $-1 1 0 0 0 1 0 0 0 1 79.637440107425164 38.90634189836338 15.944155408783322 1 rotate no_reflect no_shear #
lump $-1 $-1 $29 $2 #
transform $-1 1 0 0 0 1 0 0 0 1 79.637440107425164 38.90634189836338 15.944155408783322 1 rotate no_reflect no_shear #
lump $-1 $-1 $30 $3 #
transform $-1 1 0 0 0 1 0 0 0 1 79.637440107425164 38.90634189836338 15.944155408783322 1 rotate no_reflect no_shear #
lump $-1 $-1 $31 $4 #
transform $-1 1 0 0 0 1 0 0 0 1 79.637440107425164 38.90634189836338 15.944155408783322 1 rotate no_reflect no_shear #
lump $-1 $-1 $32 $5 #
transform $-1 1 0 0 0 1 0 0 0 1 79.637440107425164 38.90634189836338 15.944155408783322 1 rotate no_reflect no_shear #
lump $-1 $-1 $33 $6 #
transform $-1 1 0 0 0 1 0 0 0 1 79.637440107425164 38.90634189836338 15.944155408783322 1 rotate no_reflect no_shear #
lump $-1 $-1 $34 $7 #
transform $-1 1 0 0 0 1 0 0 0 1 79.637440107425164 38.90634189836338 15.944155408783322 1 rotate no_reflect no_shear #
lump $-1 $-1 $35 $8 #
transform $-1 1 0 0 0 1 0 0 0 1 79.637440107425164 38.90634189836338 15.944155408783322 1 rotate no_reflect no_shear #
shell $-1 $-1 $-1 $36 $-1 $9 #
shell $-1 $-1 $-1 $37 $-1 $11 #
shell $-1 $-1 $-1 $38 $-1 $13 #
shell $-1 $-1 $-1 $39 $-1 $15 #
shell $-1 $-1 $-1 $40 $-1 $17 #
shell $-1 $-1 $-1 $41 $-1 $19 #
shell $-1 $-1 $-1 $42 $-1 $21 #
shell $-1 $-1 $-1 $43 $-1 $23 #
shell $-1 $-1 $-1 $44 $-1 $25 #
face $-1 $45 $46 $27 $-1 $47 forward single #
face $-1 $48 $49 $28 $-1 $50 forward single #
face $-1 $51 $52 $29 $-1 $53 forward single #
face $-1 $54 $55 $30 $-1 $56 reversed single #
face $-1 $57 $58 $31 $-1 $59 forward single #
face $-1 $60 $61 $32 $-1 $62 forward single #
face $-1 $63 $64 $33 $-1 $65 forward single #
face $-1 $66 $67 $34 $-1 $68 reversed single #
face $-1 $69 $70 $35 $-1 $71 forward single #
face $-1 $72 $73 $27 $-1 $74 reversed single #
loop $-1 $-1 $75 $36 #
plane-surface $-1 0 0 15.944155408783322 0 0 1 1 0 0 forward_v I I I I #
face $-1 $76 $77 $28 $-1 $78 reversed single #
loop $-1 $-1 $79 $37 #
plane-surface $-1 0 -38.90634189836338 0 0 1 0 0 0 1 forward_v I I I I #
face $-1 $80 $81 $29 $-1 $82 reversed single #
loop $-1 $-1 $83 $38 #
plane-surface $-1 0 38.90634189836338 0 0 -1 0 0 0 -1 forward_v I I I I #
face $-1 $84 $85 $30 $-1 $86 reversed single #
loop $-1 $-1 $87 $39 #
plane-surface $-1 56.092542340727533 15.433039459670425 229.60057375765064 0 -1 0 -0.62932039886446345 0 -0.77714595512881146 forward_v I I I I #
face $-1 $88 $89 $31 $-1 $90 forward single #
loop $-1 $91 $92 $40 #
cone-surface $-1 72.75172503483553 9.7209644273569822 10.159919731608946 -0.62932039886446345 0 -0.77714595512881146 0.38857297756440573 0 -0.31466019943223172 1 I I 0 1 0.5 forward I I I I #
face $-1 $93 $94 $32 $-1 $95 forward single #
loop $-1 $96 $97 $41 #
cone-surface $-1 72.75172503483553 11.862992564474524 10.159919731608946 -0.62932039886446345 0 -0.77714595512881146 0.38857297756440573 0 -0.31466019943223172 1 I I 0 1 0.5 forward I I I I #
face $-1 $98 $99 $33 $-1 $100 forward single #
loop $-1 $101 $102 $42 #
cone-surface $-1 72.75172503483553 14.005020701592066 10.159919731608946 -0.62932039886446345 0 -0.77714595512881146 0.38857297756440573 0 -0.31466019943223172 1 I I 0 1 0.5 forward I I I I #
face $-1 $103 $104 $34 $-1 $105 reversed single #
loop $-1 $-1 $106 $43 #
plane-surface $-1 -182.01736090219094 -19.711811269632442 132.49036953750701 0 1 0 -0.64278761758704617 0 0.76604443648966558 forward_v I I I I #
face $-1 $107 $108 $35 $-1 $109 forward single #
loop $-1 $110 $111 $44 #
cone-surface $-1 -75.850113922733513 -14.160871419956074 12.579090255015846 0.64278761758704617 0 -0.76604443648966558 0.76604443648966558 0 0.64278761758704617 1 I I 0 1 1 forward I I I I #
face $-1 $112 $113 $27 $-1 $114 reversed single #
loop $-1 $-1 $115 $45 #
plane-surface $-1 0 0 -15.944155408783322 0 0 1 1 0 0 forward_v I I I I #
coedge $-1 $116 $117 $118 $119 forward $46 $-1 #
face $-1 $120 $121 $28 $-1 $122 forward single #
loop $-1 $-1 $123 $48 #
plane-surface $-1 -79.637440107425164 0 0 1 0 0 0 0 -1 forward_v I I I I #
coedge $-1 $124 $125 $126 $127 forward $49 $-1 #
face $-1 $128 $129 $29 $-1 $130 forward single #
loop $-1 $-1 $131 $51 #
plane-surface $-1 79.637440107425164 0 0 -1 0 0 0 0 1 forward_v I I I I #
coedge $-1 $132 $133 $134 $135 forward $52 $-1 #
face $-1 $136 $137 $30 $-1 $138 reversed single #
loop $-1 $-1 $139 $54 #
plane-surface $-1 -44.142388805171706 11.862992564474524 105.82074484505374 0.62932039886446345 0 0.77714595512881146 0.77714595512881146 0 -0.62932039886446345 forward_v I I I I #
coedge $-1 $140 $141 $142 $143 reversed $55 $-1 #
face $-1 $-1 $144 $31 $-1 $145 forward single #
loop $-1 $146 $147 $57 #
cone-surface $-1 72.10442309285034 9.7209644273569822 9.3605684204667856 -0.62932039886446345 0 -0.77714595512881146 0.19428648878220287 0 -0.15733009971611586 1 I I -0.70710678118654502 0.70710678118655002 0.25 forward I I I I #
loop $-1 $-1 $148 $40 #
coedge $-1 $92 $92 $149 $150 reversed $58 $-1 #
face $-1 $-1 $151 $32 $-1 $152 forward single #
loop $-1 $153 $154 $60 #
cone-surface $-1 72.10442309285034 11.862992564474524 9.3605684204667856 -0.62932039886446345 0 -0.77714595512881146 0.19428648878220287 0 -0.15733009971611586 1 I I -0.70710678118654502 0.70710678118655002 0.25 forward I I I I #
loop $-1 $-1 $155 $41 #
coedge $-1 $97 $97 $156 $157 reversed $61 $-1 #
face $-1 $-1 $158 $33 $-1 $159 forward single #
loop $-1 $160 $161 $63 #
cone-surface $-1 72.10442309285034 14.005020701592066 9.3605684204667856 -0.62932039886446345 0 -0.77714595512881146 0.19428648878220287 0 -0.15733009971611586 1 I I -0.70710678118654502 0.70710678118655002 0.25 forward I I I I #
loop $-1 $-1 $162 $42 #
coedge $-1 $102 $102 $163 $164 reversed $64 $-1 #
face $-1 $165 $166 $34 $-1 $167 reversed single #
loop $-1 $-1 $168 $66 #
plane-surface $-1 -79.637440107425149 -14.160871419956074 10.478733676363007 -0.64278761758704617 0 0.76604443648966558 0.76604443648966558 0 0.64278761758704617 forward_v I I I I #
coedge $-1 $169 $170 $171 $172 reversed $67 $-1 #
face $-1 $-1 $173 $35 $-1 $174 forward single #
loop $-1 $175 $176 $69 #
cone-surface $-1 -74.998111853363696 -14.160871419956074 11.563713749213692 0.64278761758704617 0 -0.76604443648966558 0.38302221824483279 0 0.32139380879352308 1 I I -0.70710678118654746 0.70710678118654746 0.5 forward I I I I #
loop $-1 $-1 $177 $44 #
coedge $-1 $111 $111 $178 $179 reversed $70 $-1 #
face $-1 $180 $181 $27 $-1 $182 reversed single #
loop $-1 $-1 $183 $72 #
plane-surface $-1 0 -38.90634189836338 0 0 1 0 0 0 1 forward_v I I I I #
coedge $-1 $184 $185 $186 $187 forward $73 $-1 #
coedge $-1 $188 $75 $189 $190 forward $46 $-1 #
coedge $-1 $75 $188 $191 $192 forward $46 $-1 #
coedge $-1 $193 $194 $75 $119 reversed $195 $-1 #
edge $-1 $196 -38.90634189836338 $197 38.90634189836338 $118 $198 forward 7 unknown #
face $-1 $199 $200 $28 $-1 $201 reversed single #
loop $-1 $-1 $202 $76 #
plane-surface $-1 0 -48.503607212728852 10.276088700838221 0 0 1 1 0 0 forward_v I I I I #
coedge $-1 $203 $204 $125 $205 forward $77 $-1 #
coedge $-1 $206 $79 $207 $208 reversed $49 $-1 #
coedge $-1 $79 $206 $123 $205 reversed $49 $-1 #
coedge $-1 $209 $202 $79 $127 reversed $121 $-1 #
edge $-1 $210 -79.637440107425164 $211 79.637440107425164 $126 $212 forward 7 unknown #
face $-1 $213 $214 $29 $-1 $215 reversed single #
loop $-1 $-1 $216 $80 #
plane-surface $-1 0 48.503607212728852 10.276088700838221 0 0 1 1 0 0 forward_v I I I I #
coedge $-1 $217 $218 $133 $219 forward $81 $-1 #
coedge $-1 $220 $83 $221 $222 reversed $52 $-1 #
coedge $-1 $83 $220 $131 $219 reversed $52 $-1 #
coedge $-1 $216 $223 $83 $135 reversed $129 $-1 #
edge $-1 $224 -79.637440107425164 $225 79.637440107425164 $134 $226 forward 7 unknown #
face $-1 $227 $228 $30 $-1 $229 forward single #
loop $-1 $-1 $230 $84 #
plane-surface $-1 56.092542340727533 8.2929456692786232 229.60057375765064 0 1 0 0.62932039886446345 0 0.77714595512881146 forward_v I I I I #
coedge $-1 $231 $232 $233 $234 reversed $85 $-1 #
coedge $-1 $141 $87 $235 $236 reversed $55 $-1 #
coedge $-1 $87 $140 $231 $237 reversed $55 $-1 #
coedge $-1 $233 $238 $87 $143 forward $228 $-1 #
edge $-1 $239 -51.591168937061397 $240 -38.79968247642023 $142 $241 forward 7 unknown #
loop $-1 $-1 $149 $88 #
plane-surface $-1 -44.142388805171706 11.862992564474524 105.82074484505374 0.62932039886446345 0 0.77714595512881146 0.77714595512881146 0 -0.62932039886446345 forward_v I I I I #
loop $-1 $-1 $242 $57 #
coedge $-1 $147 $147 $148 $243 reversed $89 $-1 #
coedge $-1 $148 $148 $147 $243 forward $91 $-1 #
coedge $-1 $149 $149 $92 $150 forward $144 $-1 #
edge $-1 $244 0 $244 6.2831853071796004 $149 $245 forward 7 unknown #
loop $-1 $-1 $156 $93 #
plane-surface $-1 -44.142388805171706 11.862992564474524 105.82074484505374 0.62932039886446345 0 0.77714595512881146 0.77714595512881146 0 -0.62932039886446345 forward_v I I I I #
loop $-1 $-1 $246 $60 #
coedge $-1 $154 $154 $155 $247 reversed $94 $-1 #
coedge $-1 $155 $155 $154 $247 forward $96 $-1 #
coedge $-1 $156 $156 $97 $157 forward $151 $-1 #
edge $-1 $248 0 $248 6.2831853071796004 $156 $249 forward 7 unknown #
loop $-1 $-1 $163 $98 #
plane-surface $-1 -44.142388805171706 11.862992564474524 105.82074484505374 0.62932039886446345 0 0.77714595512881146 0.77714595512881146 0 -0.62932039886446345 forward_v I I I I #
loop $-1 $-1 $250 $63 #
coedge $-1 $161 $161 $162 $251 reversed $99 $-1 #
coedge $-1 $162 $162 $161 $251 forward $101 $-1 #
coedge $-1 $163 $163 $102 $164 forward $158 $-1 #
edge $-1 $252 0 $252 6.2831853071796004 $163 $253 forward 7 unknown #
face $-1 $254 $255 $34 $-1 $256 reversed single #
loop $-1 $-1 $257 $103 #
plane-surface $-1 -182.01736090219094 -8.6099315702797075 132.49036953750701 0 -1 0 0.64278761758704617 0 -0.76604443648966558 forward_v I I I I #
coedge $-1 $258 $259 $260 $261 reversed $104 $-1 #
coedge $-1 $170 $106 $262 $263 reversed $67 $-1 #
coedge $-1 $106 $169 $258 $264 reversed $67 $-1 #
coedge $-1 $260 $265 $106 $172 forward $266 $-1 #
edge $-1 $267 11.371240343670308 $268 17.88467619190105 $171 $269 forward 7 unknown #
loop $-1 $-1 $178 $107 #
plane-surface $-1 -79.637440107425149 -14.160871419956074 10.478733676363007 -0.64278761758704617 0 0.76604443648966558 0.76604443648966558 0 0.64278761758704617 forward_v I I I I #
loop $-1 $-1 $270 $69 #
coedge $-1 $176 $176 $177 $271 reversed $108 $-1 #
coedge $-1 $177 $177 $176 $271 forward $110 $-1 #
coedge $-1 $178 $178 $111 $179 forward $173 $-1 #
edge $-1 $272 0 $272 6.2831853071796004 $178 $273 forward 7 unknown #
face $-1 $274 $275 $27 $-1 $276 reversed single #
loop $-1 $-1 $277 $112 #
plane-surface $-1 -79.637440107425164 0 0 1 0 0 0 0 -1 forward_v I I I I #
coedge $-1 $278 $191 $279 $280 forward $113 $-1 #
coedge $-1 $281 $115 $278 $282 forward $73 $-1 #
coedge $-1 $115 $281 $283 $284 forward $73 $-1 #
coedge $-1 $194 $193 $115 $187 reversed $195 $-1 #
edge $-1 $285 -38.90634189836338 $286 38.90634189836338 $186 $287 forward 7 unknown #
coedge $-1 $117 $116 $288 $289 forward $46 $-1 #
coedge $-1 $290 $291 $116 $190 reversed $275 $-1 #
edge $-1 $197 -79.637440107425164 $292 79.637440107425164 $189 $293 forward 7 unknown #
coedge $-1 $183 $294 $117 $192 reversed $113 $-1 #
edge $-1 $295 -79.637440107425164 $196 79.637440107425164 $191 $296 forward 7 unknown #
coedge $-1 $186 $118 $294 $297 forward $195 $-1 #
coedge $-1 $118 $186 $290 $298 reversed $195 $-1 #
loop $-1 $-1 $193 $274 #
vertex $-1 $119 $299 #
vertex $-1 $119 $300 #
straight-curve $-1 79.637440107425164 0 15.944155408783322 0 1 0 I I #
face $-1 $301 $302 $28 $-1 $303 reversed single #
loop $-1 $-1 $304 $120 #
plane-surface $-1 0 -48.503607212728852 4.4655006885561956 0 0 1 1 0 0 forward_v I I I I #
coedge $-1 $126 $305 $306 $307 forward $121 $-1 #
coedge $-1 $308 $123 $309 $310 reversed $77 $-1 #
coedge $-1 $123 $308 $209 $311 reversed $77 $-1 #
edge $-1 $210 -10.276088700838221 $312 -4.4655006885561956 $123 $313 forward 7 unknown #
coedge $-1 $125 $124 $314 $315 forward $49 $-1 #
coedge $-1 $306 $316 $124 $208 forward $317 $-1 #
edge $-1 $318 4.4655006885561956 $211 10.276088700838221 $207 $319 forward 7 unknown #
coedge $-1 $305 $126 $204 $311 forward $121 $-1 #
vertex $-1 $205 $320 #
vertex $-1 $307 $321 #
straight-curve $-1 0 -38.90634189836338 10.276088700838221 1 0 0 I I #
face $-1 $322 $323 $29 $-1 $324 reversed single #
loop $-1 $-1 $325 $128 #
plane-surface $-1 0 48.503607212728852 4.4655006885561956 0 0 1 1 0 0 forward_v I I I I #
coedge $-1 $326 $134 $218 $327 forward $129 $-1 #
coedge $-1 $328 $131 $325 $329 reversed $81 $-1 #
coedge $-1 $131 $328 $216 $327 reversed $81 $-1 #
edge $-1 $224 -10.276088700838221 $330 -4.4655006885561956 $131 $331 forward 7 unknown #
coedge $-1 $133 $132 $332 $333 forward $52 $-1 #
coedge $-1 $334 $335 $132 $222 forward $336 $-1 #
edge $-1 $337 4.4655006885561956 $225 10.276088700838221 $221 $338 forward 7 unknown #
coedge $-1 $134 $326 $334 $339 forward $129 $-1 #
vertex $-1 $219 $340 #
vertex $-1 $339 $341 #
straight-curve $-1 0 38.90634189836338 10.276088700838221 -1 0 0 I I #
face $-1 $-1 $342 $30 $-1 $343 reversed single #
loop $-1 $-1 $142 $136 #
plane-surface $-1 0 0 15.944155408783322 0 0 1 1 0 0 forward_v I I I I #
coedge $-1 $344 $345 $346 $347 reversed $137 $-1 #
coedge $-1 $348 $139 $141 $237 forward $85 $-1 #
coedge $-1 $139 $348 $344 $349 forward $85 $-1 #
coedge $-1 $346 $142 $139 $234 forward $228 $-1 #
edge $-1 $240 -9.5015431774331631 $350 -2.3614493870413611 $233 $351 forward 7 unknown #
coedge $-1 $352 $353 $140 $236 forward $342 $-1 #
edge $-1 $354 -109.2144731796708 $239 -98.856131470042001 $235 $355 forward 7 unknown #
edge $-1 $240 142.81531251560006 $354 159.2748802148503 $141 $356 forward 7 unknown #
coedge $-1 $142 $346 $352 $357 forward $228 $-1 #
vertex $-1 $236 $358 #
vertex $-1 $143 $359 #
straight-curve $-1 28.046271170363767 15.433039459670425 15.944155408783317 -1 0 0 I I #
coedge $-1 $242 $242 $-1 $360 reversed $146 $-1 #
edge $-1 $361 0 $361 6.2831853071796004 $147 $362 forward 7 unknown #
vertex $-1 $150 $363 #
ellipse-curve $-1 73.241696877104587 9.7209644273569822 10.764984553968885 0.62932039886446345 0 0.77714595512881146 0.38857297756440573 0 -0.31466019943223172 1 I I #
coedge $-1 $246 $246 $-1 $364 reversed $153 $-1 #
edge $-1 $365 0 $365 6.2831853071796004 $154 $366 forward 7 unknown #
vertex $-1 $157 $367 #
ellipse-curve $-1 73.241696877104587 11.862992564474524 10.764984553968885 0.62932039886446345 0 0.77714595512881146 0.38857297756440573 0 -0.31466019943223172 1 I I #
coedge $-1 $250 $250 $-1 $368 reversed $160 $-1 #
edge $-1 $369 0 $369 6.2831853071796004 $161 $370 forward 7 unknown #
vertex $-1 $164 $371 #
ellipse-curve $-1 73.241696877104587 14.005020701592066 10.764984553968885 0.62932039886446345 0 0.77714595512881146 0.38857297756440573 0 -0.31466019943223172 1 I I #
face $-1 $-1 $266 $34 $-1 $372 forward single #
loop $-1 $-1 $373 $165 #
plane-surface $-1 -79.637440107425164 0 0 1 0 0 0 0 -1 forward_v I I I I #
coedge $-1 $374 $375 $376 $377 reversed $166 $-1 #
coedge $-1 $378 $168 $170 $264 forward $104 $-1 #
coedge $-1 $168 $378 $374 $379 forward $104 $-1 #
coedge $-1 $376 $171 $168 $261 forward $266 $-1 #
edge $-1 $268 -12.631375559654405 $380 -1.5294958603016706 $260 $381 forward 7 unknown #
coedge $-1 $382 $383 $169 $263 forward $255 $-1 #
edge $-1 $384 -55.766451092390511 $267 -50.30102935997018 $262 $385 forward 7 unknown #
edge $-1 $268 -8.5026867084604163 $384 1.8878887457821222e-014 $170 $386 forward 7 unknown #
coedge $-1 $171 $376 $382 $387 forward $266 $-1 #
loop $-1 $-1 $376 $254 #
vertex $-1 $263 $388 #
vertex $-1 $172 $389 #
straight-curve $-1 -91.008680451095472 -19.711811269632442 15.944155408783324 1 0 0 I I #
coedge $-1 $270 $270 $-1 $390 reversed $175 $-1 #
edge $-1 $391 0 $391 6.2831853071796004 $176 $392 forward 7 unknown #
vertex $-1 $179 $393 #
ellipse-curve $-1 -76.3807221833098 -14.160871419956074 13.211444542573156 -0.64278761758704617 0 0.76604443648966558 0.76604443648966558 0 0.64278761758704617 1 I I #
face $-1 $-1 $195 $27 $-1 $394 reversed single #
loop $-1 $-1 $290 $180 #
plane-surface $-1 0 38.90634189836338 0 0 -1 0 0 0 -1 forward_v I I I I #
coedge $-1 $395 $288 $291 $396 forward $181 $-1 #
coedge $-1 $294 $183 $184 $282 reversed $113 $-1 #
coedge $-1 $288 $395 $183 $280 reversed $181 $-1 #
edge $-1 $295 -15.944155408783322 $397 15.944155408783322 $279 $398 forward 7 unknown #
coedge $-1 $185 $184 $395 $399 forward $73 $-1 #
edge $-1 $286 -79.637440107425164 $397 79.637440107425164 $278 $400 forward 7 unknown #
coedge $-1 $291 $290 $185 $284 reversed $275 $-1 #
edge $-1 $401 -79.637440107425164 $285 79.637440107425164 $283 $402 forward 7 unknown #
vertex $-1 $187 $403 #
vertex $-1 $297 $404 #
straight-curve $-1 79.637440107425164 0 -15.944155408783322 0 -1 0 I I #
coedge $-1 $277 $279 $188 $289 reversed $181 $-1 #
edge $-1 $292 -38.90634189836338 $295 38.90634189836338 $288 $405 forward 7 unknown #
coedge $-1 $283 $189 $194 $298 forward $275 $-1 #
coedge $-1 $189 $283 $277 $396 reversed $275 $-1 #
vertex $-1 $190 $406 #
straight-curve $-1 0 38.90634189836338 15.944155408783322 -1 0 0 I I #
coedge $-1 $191 $278 $193 $297 reversed $113 $-1 #
vertex $-1 $289 $407 #
straight-curve $-1 0 -38.90634189836338 15.944155408783322 1 0 0 I I #
edge $-1 $196 -15.944155408783322 $286 15.944155408783322 $193 $408 forward 7 unknown #
edge $-1 $197 -15.944155408783322 $285 15.944155408783322 $194 $409 forward 7 unknown #
point $-1 79.637440107425164 -38.90634189836338 15.944155408783322 #
point $-1 79.637440107425164 38.90634189836338 15.944155408783322 #
face $-1 $-1 $317 $28 $-1 $410 reversed single #
loop $-1 $-1 $411 $199 #
plane-surface $-1 0 -58.100872527094324 7.3707946946972083 0 1 0 0 0 1 forward_v I I I I #
coedge $-1 $412 $314 $316 $413 forward $200 $-1 #
coedge $-1 $202 $209 $414 $415 forward $121 $-1 #
coedge $-1 $416 $207 $202 $307 reversed $317 $-1 #
edge $-1 $417 -9.5972653143654725 $211 9.5972653143654725 $306 $418 forward 7 unknown #
coedge $-1 $204 $203 $411 $419 reversed $77 $-1 #
coedge $-1 $314 $412 $203 $310 forward $200 $-1 #
edge $-1 $420 -9.5972653143654725 $312 9.5972653143654725 $203 $421 forward 7 unknown #
edge $-1 $210 -9.5972653143654725 $422 9.5972653143654725 $204 $423 forward 7 unknown #
vertex $-1 $205 $424 #
straight-curve $-1 -79.637440107425164 -38.90634189836338 0 0 0 -1 I I #
coedge $-1 $304 $309 $206 $315 reversed $200 $-1 #
edge $-1 $318 -79.637440107425164 $312 79.637440107425164 $314 $425 forward 7 unknown #
coedge $-1 $207 $416 $304 $413 reversed $317 $-1 #
loop $-1 $-1 $207 $301 #
vertex $-1 $208 $426 #
straight-curve $-1 79.637440107425164 -38.90634189836338 0 0 0 1 I I #
point $-1 -79.637440107425164 -38.90634189836338 10.276088700838221 #
point $-1 79.637440107425164 -38.90634189836338 10.276088700838221 #
face $-1 $-1 $336 $29 $-1 $427 reversed single #
loop $-1 $-1 $428 $213 #
plane-surface $-1 0 58.100872527094324 7.3707946946972083 0 -1 0 0 0 -1 forward_v I I I I #
coedge $-1 $332 $429 $217 $329 forward $214 $-1 #
coedge $-1 $223 $216 $430 $431 forward $129 $-1 #
edge $-1 $224 -9.5972653143654725 $432 9.5972653143654725 $218 $433 forward 7 unknown #
coedge $-1 $218 $217 $428 $434 reversed $81 $-1 #
edge $-1 $435 -9.5972653143654725 $330 9.5972653143654725 $217 $436 forward 7 unknown #
vertex $-1 $219 $437 #
straight-curve $-1 79.637440107425164 38.90634189836338 0 0 0 -1 I I #
coedge $-1 $438 $325 $220 $333 reversed $214 $-1 #
edge $-1 $337 -79.637440107425164 $330 79.637440107425164 $332 $439 forward 7 unknown #
coedge $-1 $440 $221 $223 $339 reversed $336 $-1 #
coedge $-1 $221 $440 $438 $441 reversed $336 $-1 #
loop $-1 $-1 $221 $322 #
vertex $-1 $222 $442 #
straight-curve $-1 -79.637440107425164 38.90634189836338 0 0 0 1 I I #
edge $-1 $443 -9.5972653143654725 $225 9.5972653143654725 $334 $444 forward 7 unknown #
point $-1 79.637440107425164 38.90634189836338 10.276088700838221 #
point $-1 -79.637440107425164 38.90634189836338 10.276088700838221 #
loop $-1 $-1 $235 $227 #
plane-surface $-1 79.637440107425164 0 0 -1 0 0 0 0 1 forward_v I I I I #
coedge $-1 $345 $230 $232 $349 reversed $137 $-1 #
coedge $-1 $230 $344 $445 $446 reversed $137 $-1 #
coedge $-1 $238 $233 $230 $347 forward $228 $-1 #
edge $-1 $350 38.79968247642023 $447 51.591168937061397 $346 $448 forward 7 unknown #
coedge $-1 $232 $231 $353 $449 reversed $85 $-1 #
edge $-1 $450 -159.2748802148503 $350 -142.81531251560006 $344 $451 forward 7 unknown #
vertex $-1 $234 $452 #
straight-curve $-1 66.845953646783997 5.9314962822372621 15.944155408783317 0 -1 0 I I #
coedge $-1 $445 $235 $238 $357 reversed $342 $-1 #
coedge $-1 $235 $445 $348 $449 forward $342 $-1 #
vertex $-1 $236 $453 #
straight-curve $-1 79.637440107425164 15.433039459670425 114.80028687882532 0 0 1 I I #
straight-curve $-1 -44.142388805171706 15.433039459670425 105.82074484505374 0.77714595512881146 0 -0.62932039886446345 I I #
edge $-1 $447 8.2929456692786232 $239 15.433039459670425 $352 $454 forward 7 unknown #
point $-1 79.637440107425164 15.433039459670425 15.944155408783322 #
point $-1 66.845953646783997 15.433039459670425 15.944155408783317 #
edge $-1 $455 1 $455 0 $242 $-1 forward 7 unknown #
vertex $-1 $243 $456 #
ellipse-curve $-1 72.261753192566459 9.7209644273569822 9.5548549092489896 0.62932039886446345 0 0.77714595512881146 0.38857297756440573 0 -0.31466019943223172 1 I I #
point $-1 73.63026985466901 9.7209644273569822 10.45032435453667 #
edge $-1 $457 1 $457 0 $246 $-1 forward 7 unknown #
vertex $-1 $247 $458 #
ellipse-curve $-1 72.261753192566459 11.862992564474524 9.5548549092489896 0.62932039886446345 0 0.77714595512881146 0.38857297756440573 0 -0.31466019943223172 1 I I #
point $-1 73.63026985466901 11.862992564474524 10.45032435453667 #
edge $-1 $459 1 $459 0 $250 $-1 forward 7 unknown #
vertex $-1 $251 $460 #
ellipse-curve $-1 72.261753192566459 14.005020701592066 9.5548549092489896 0.62932039886446345 0 0.77714595512881146 0.38857297756440573 0 -0.31466019943223172 1 I I #
point $-1 73.63026985466901 14.005020701592066 10.45032435453667 #
plane-surface $-1 0 0 15.944155408783322 0 0 1 1 0 0 forward_v I I I I #
coedge $-1 $383 $382 $375 $461 forward $255 $-1 #
coedge $-1 $375 $257 $259 $379 reversed $166 $-1 #
coedge $-1 $257 $374 $373 $461 reversed $166 $-1 #
coedge $-1 $265 $260 $257 $377 forward $266 $-1 #
edge $-1 $380 -17.88467619190105 $462 -11.371240343670308 $376 $463 forward 7 unknown #
coedge $-1 $259 $258 $383 $464 reversed $104 $-1 #
edge $-1 $465 -1.8878887457821222e-014 $380 8.5026867084604163 $374 $466 forward 7 unknown #
vertex $-1 $261 $467 #
straight-curve $-1 -73.124004259194422 -7.0804357099780368 15.944155408783322 0 1 0 I I #
coedge $-1 $373 $262 $265 $387 reversed $255 $-1 #
coedge $-1 $262 $373 $378 $464 forward $255 $-1 #
vertex $-1 $263 $468 #
straight-curve $-1 -79.637440107425164 -19.711811269632442 66.245184768753504 0 0 1 I I #
straight-curve $-1 -79.637440107425149 -19.711811269632442 10.478733676363007 -0.76604443648966558 0 -0.64278761758704617 I I #
edge $-1 $462 8.6099315702797075 $267 19.711811269632442 $382 $469 forward 7 unknown #
point $-1 -79.637440107425164 -19.711811269632442 15.944155408783322 #
point $-1 -73.124004259194422 -19.711811269632442 15.944155408783322 #
edge $-1 $470 1 $470 0 $270 $-1 forward 7 unknown #
vertex $-1 $271 $471 #
ellipse-curve $-1 -75.319505662157212 -14.160871419956074 11.946735967458524 -0.64278761758704617 0 0.76604443648966558 0.76604443648966558 0 0.64278761758704617 1 I I #
point $-1 -75.614677746820135 -14.160871419956074 13.854232160160212 #
plane-surface $-1 79.637440107425164 0 0 -1 0 0 0 0 1 forward_v I I I I #
coedge $-1 $279 $277 $281 $399 reversed $181 $-1 #
edge $-1 $292 -15.944155408783322 $401 15.944155408783322 $291 $472 forward 7 unknown #
vertex $-1 $399 $473 #
straight-curve $-1 -79.637440107425164 -38.90634189836338 0 0 0 -1 I I #
edge $-1 $397 -38.90634189836338 $401 38.90634189836338 $395 $474 forward 7 unknown #
straight-curve $-1 0 -38.90634189836338 -15.944155408783322 -1 0 0 I I #
vertex $-1 $284 $475 #
straight-curve $-1 0 38.90634189836338 -15.944155408783322 1 0 0 I I #
point $-1 79.637440107425164 38.90634189836338 -15.944155408783322 #
point $-1 79.637440107425164 -38.90634189836338 -15.944155408783322 #
straight-curve $-1 -79.637440107425164 0 15.944155408783322 0 -1 0 I I #
point $-1 -79.637440107425164 38.90634189836338 15.944155408783322 #
point $-1 -79.637440107425164 -38.90634189836338 15.944155408783322 #
straight-curve $-1 79.637440107425164 -38.90634189836338 0 0 0 -1 I I #
straight-curve $-1 79.637440107425164 38.90634189836338 0 0 0 -1 I I #
plane-surface $-1 79.637440107425164 0 0 -1 0 0 0 0 1 forward_v I I I I #
coedge $-1 $476 $414 $308 $419 forward $302 $-1 #
coedge $-1 $309 $304 $476 $477 forward $200 $-1 #
edge $-1 $318 -9.5972653143654725 $478 9.5972653143654725 $316 $479 forward 7 unknown #
coedge $-1 $411 $480 $305 $415 reversed $302 $-1 #
edge $-1 $422 -79.637440107425164 $417 79.637440107425164 $414 $481 forward 7 unknown #
coedge $-1 $316 $306 $480 $482 forward $317 $-1 #
vertex $-1 $307 $483 #
straight-curve $-1 79.637440107425164 -48.503607212728852 10.276088700838221 0 1 0 I I #
edge $-1 $422 -2.9052940061410126 $420 2.9052940061410126 $308 $484 forward 7 unknown #
vertex $-1 $310 $485 #
straight-curve $-1 -79.637440107425164 -48.503607212728852 4.4655006885561956 0 1 0 I I #
vertex $-1 $311 $486 #
straight-curve $-1 -79.637440107425164 -48.503607212728852 10.276088700838221 0 -1 0 I I #
point $-1 -79.637440107425164 -38.90634189836338 4.4655006885561956 #
straight-curve $-1 0 -38.90634189836338 4.4655006885561956 -1 0 0 I I #
point $-1 79.637440107425164 -38.90634189836338 4.4655006885561956 #
plane-surface $-1 -79.637440107425164 0 0 1 0 0 0 0 -1 forward_v I I I I #
coedge $-1 $487 $430 $328 $434 forward $323 $-1 #
coedge $-1 $325 $438 $487 $488 forward $214 $-1 #
coedge $-1 $428 $489 $326 $431 reversed $323 $-1 #
edge $-1 $432 -79.637440107425164 $443 79.637440107425164 $430 $490 forward 7 unknown #
vertex $-1 $327 $491 #
straight-curve $-1 79.637440107425164 48.503607212728852 10.276088700838221 0 1 0 I I #
edge $-1 $432 -2.9052940061410126 $435 2.9052940061410126 $328 $492 forward 7 unknown #
vertex $-1 $329 $493 #
straight-curve $-1 79.637440107425164 48.503607212728852 4.4655006885561956 0 -1 0 I I #
point $-1 79.637440107425164 38.90634189836338 4.4655006885561956 #
coedge $-1 $429 $332 $335 $441 forward $214 $-1 #
straight-curve $-1 0 38.90634189836338 4.4655006885561956 1 0 0 I I #
coedge $-1 $335 $334 $489 $494 forward $336 $-1 #
edge $-1 $337 -9.5972653143654725 $495 9.5972653143654725 $335 $496 forward 7 unknown #
point $-1 -79.637440107425164 38.90634189836338 4.4655006885561956 #
vertex $-1 $431 $497 #
straight-curve $-1 -79.637440107425164 48.503607212728852 10.276088700838221 0 -1 0 I I #
coedge $-1 $353 $352 $345 $446 forward $342 $-1 #
edge $-1 $447 98.856131470042001 $450 109.2144731796708 $445 $498 forward 7 unknown #
vertex $-1 $357 $499 #
straight-curve $-1 28.046271170363767 8.2929456692786232 15.944155408783317 1 0 0 I I #
edge $-1 $450 2.3614493870413611 $354 9.5015431774331631 $353 $500 forward 7 unknown #
vertex $-1 $449 $501 #
straight-curve $-1 -44.142388805171706 8.2929456692786232 105.82074484505374 -0.77714595512881146 0 0.62932039886446345 I I #
point $-1 66.845953646783997 8.2929456692786232 15.944155408783317 #
point $-1 79.637440107425164 15.433039459670425 5.5858136991545138 #
straight-curve $-1 79.637440107425164 0 15.944155408783322 0 1 0 I I #
vertex $-1 $360 $502 #
point $-1 72.650326170130867 9.7209644273569822 9.2401947098167589 #
vertex $-1 $364 $503 #
point $-1 72.650326170130867 11.862992564474524 9.2401947098167589 #
vertex $-1 $368 $504 #
point $-1 72.650326170130867 14.005020701592066 9.2401947098167589 #
edge $-1 $462 50.30102935997018 $465 55.766451092390511 $373 $505 forward 7 unknown #
vertex $-1 $387 $506 #
straight-curve $-1 -91.008680451095472 -8.6099315702797075 15.944155408783324 -1 0 0 I I #
edge $-1 $465 1.5294958603016706 $384 12.631375559654405 $383 $507 forward 7 unknown #
vertex $-1 $464 $508 #
straight-curve $-1 -79.637440107425149 -8.6099315702797075 10.478733676363007 0.76604443648966558 0 0.64278761758704617 I I #
point $-1 -73.124004259194422 -8.6099315702797075 15.944155408783322 #
point $-1 -79.637440107425164 -19.711811269632442 10.478733676362994 #
straight-curve $-1 -79.637440107425164 0 15.944155408783322 0 -1 0 I I #
vertex $-1 $390 $509 #
point $-1 -74.553461225667547 -14.160871419956074 12.589523585045571 #
straight-curve $-1 -79.637440107425164 38.90634189836338 0 0 0 -1 I I #
point $-1 -79.637440107425164 -38.90634189836338 -15.944155408783322 #
straight-curve $-1 -79.637440107425164 0 -15.944155408783322 0 1 0 I I #
point $-1 -79.637440107425164 38.90634189836338 -15.944155408783322 #
coedge $-1 $480 $411 $412 $477 reversed $302 $-1 #
edge $-1 $478 -79.637440107425164 $420 79.637440107425164 $476 $510 forward 7 unknown #
vertex $-1 $482 $511 #
straight-curve $-1 79.637440107425164 -48.503607212728852 4.4655006885561956 0 -1 0 I I #
coedge $-1 $414 $476 $416 $482 reversed $302 $-1 #
straight-curve $-1 0 -58.100872527094324 10.276088700838221 1 0 0 I I #
edge $-1 $417 -2.9052940061410126 $478 2.9052940061410126 $416 $512 forward 7 unknown #
point $-1 79.637440107425164 -58.100872527094324 10.276088700838221 #
straight-curve $-1 -79.637440107425164 -58.100872527094324 7.3707946946972083 0 0 -1 I I #
point $-1 -79.637440107425164 -58.100872527094324 4.4655006885561956 #
point $-1 -79.637440107425164 -58.100872527094324 10.276088700838221 #
coedge $-1 $489 $428 $429 $488 reversed $323 $-1 #
edge $-1 $495 -79.637440107425164 $435 79.637440107425164 $487 $513 forward 7 unknown #
coedge $-1 $430 $487 $440 $494 reversed $323 $-1 #
straight-curve $-1 0 58.100872527094324 10.276088700838221 -1 0 0 I I #
point $-1 79.637440107425164 58.100872527094324 10.276088700838221 #
straight-curve $-1 79.637440107425164 58.100872527094324 7.3707946946972083 0 0 -1 I I #
point $-1 79.637440107425164 58.100872527094324 4.4655006885561956 #
edge $-1 $443 -2.9052940061410126 $495 2.9052940061410126 $489 $514 forward 7 unknown #
vertex $-1 $488 $515 #
straight-curve $-1 -79.637440107425164 48.503607212728852 4.4655006885561956 0 1 0 I I #
point $-1 -79.637440107425164 58.100872527094324 10.276088700838221 #
straight-curve $-1 79.637440107425164 8.2929456692786232 114.80028687882532 0 0 -1 I I #
point $-1 79.637440107425164 8.2929456692786232 15.944155408783322 #
straight-curve $-1 79.637440107425164 5.9314962822372621 5.5858136991545138 0 1 0 I I #
point $-1 79.637440107425164 8.2929456692786232 5.5858136991545138 #
point $-1 71.94709299313422 9.7209644273569822 9.1662819316845816 #
point $-1 71.94709299313422 11.862992564474524 9.1662819316845816 #
point $-1 71.94709299313422 14.005020701592066 9.1662819316845816 #
straight-curve $-1 -79.637440107425164 -8.6099315702797075 66.245184768753504 0 0 -1 I I #
point $-1 -79.637440107425164 -8.6099315702797075 15.944155408783322 #
straight-curve $-1 -79.637440107425164 -7.0804357099780368 10.478733676362996 0 -1 0 I I #
point $-1 -79.637440107425164 -8.6099315702797075 10.478733676362994 #
point $-1 -74.67671804457018 -14.160871419956074 11.180691530968859 #
straight-curve $-1 0 -58.100872527094324 4.4655006885561956 -1 0 0 I I #
point $-1 79.637440107425164 -58.100872527094324 4.4655006885561956 #
straight-curve $-1 79.637440107425164 -58.100872527094324 7.3707946946972083 0 0 -1 I I #
straight-curve $-1 0 58.100872527094324 4.4655006885561956 1 0 0 I I #
straight-curve $-1 -79.637440107425164 58.100872527094324 7.3707946946972083 0 0 -1 I I #
point $-1 -79.637440107425164 58.100872527094324 4.4655006885561956 #
End-of-ACIS-data 