500 0 14 0           
7 Unknown 11 ACIS 5.0 NT 24 Fri Mar 26 00:28:46 1999 
-1 9.9999999999999995e-007 1e-010 
body $-1 $14 $-1 $15 #
body $-1 $16 $-1 $17 #
body $-1 $18 $-1 $19 #
body $-1 $20 $-1 $21 #
body $-1 $22 $-1 $23 #
body $-1 $24 $-1 $25 #
body $-1 $26 $-1 $27 #
body $-1 $28 $-1 $29 #
body $-1 $30 $-1 $31 #
body $-1 $32 $-1 $33 #
body $-1 $34 $-1 $35 #
body $-1 $36 $-1 $37 #
body $-1 $38 $-1 $39 #
body $-1 $40 $-1 $41 #
lump $-1 $-1 $42 $0 #
transform $-1 1 0 0 0 1 0 0 0 1 64.844508194219799 26.662101809719676 11.535160988046206 1 rotate no_reflect no_shear #
lump $-1 $-1 $43 $1 #
transform $-1 1 0 0 0 1 0 0 0 1 64.844508194219799 26.662101809719676 11.535160988046206 1 rotate no_reflect no_shear #
lump $-1 $-1 $44 $2 #
transform $-1 1 0 0 0 1 0 0 0 1 64.844508194219799 26.662101809719676 11.535160988046206 1 rotate no_reflect no_shear #
lump $-1 $-1 $45 $3 #
transform $-1 1 0 0 0 1 0 0 0 1 64.844508194219799 26.662101809719676 11.535160988046206 1 rotate no_reflect no_shear #
lump $-1 $-1 $46 $4 #
transform $-1 1 0 0 0 1 0 0 0 1 64.844508194219799 26.662101809719676 11.535160988046206 1 rotate no_reflect no_shear #
lump $-1 $-1 $47 $5 #
transform $-1 1 0 0 0 1 0 0 0 1 64.844508194219799 26.662101809719676 11.535160988046206 1 rotate no_reflect no_shear #
lump $-1 $-1 $48 $6 #
transform $-1 1 0 0 0 1 0 0 0 1 64.844508194219799 26.662101809719676 11.535160988046206 1 rotate no_reflect no_shear #
lump $-1 $-1 $49 $7 #
transform $-1 1 0 0 0 1 0 0 0 1 64.844508194219799 26.662101809719676 11.535160988046206 1 rotate no_reflect no_shear #
lump $-1 $-1 $50 $8 #
transform $-1 1 0 0 0 1 0 0 0 1 64.844508194219799 26.662101809719676 11.535160988046206 1 rotate no_reflect no_shear #
lump $-1 $-1 $51 $9 #
transform $-1 1 0 0 0 1 0 0 0 1 64.844508194219799 26.662101809719676 11.535160988046206 1 rotate no_reflect no_shear #
lump $-1 $-1 $52 $10 #
transform $-1 1 0 0 0 1 0 0 0 1 64.844508194219799 26.662101809719676 11.535160988046206 1 rotate no_reflect no_shear #
lump $-1 $-1 $53 $11 #
transform $-1 1 0 0 0 1 0 0 0 1 64.844508194219799 26.662101809719676 11.535160988046206 1 rotate no_reflect no_shear #
lump $-1 $-1 $54 $12 #
transform $-1 1 0 0 0 1 0 0 0 1 64.844508194219799 26.662101809719676 11.535160988046206 1 rotate no_reflect no_shear #
lump $-1 $-1 $55 $13 #
transform $-1 1 0 0 0 1 0 0 0 1 64.844508194219799 26.662101809719676 11.535160988046206 1 rotate no_reflect no_shear #
shell $-1 $-1 $-1 $56 $-1 $14 #
shell $-1 $-1 $-1 $57 $-1 $16 #
shell $-1 $-1 $-1 $58 $-1 $18 #
shell $-1 $-1 $-1 $59 $-1 $20 #
shell $-1 $-1 $-1 $60 $-1 $22 #
shell $-1 $-1 $-1 $61 $-1 $24 #
shell $-1 $-1 $-1 $62 $-1 $26 #
shell $-1 $-1 $-1 $63 $-1 $28 #
shell $-1 $-1 $-1 $64 $-1 $30 #
shell $-1 $-1 $-1 $65 $-1 $32 #
shell $-1 $-1 $-1 $66 $-1 $34 #
shell $-1 $-1 $-1 $67 $-1 $36 #
shell $-1 $-1 $-1 $68 $-1 $38 #
shell $-1 $-1 $-1 $69 $-1 $40 #
face $-1 $70 $71 $42 $-1 $72 forward single #
face $-1 $73 $74 $43 $-1 $75 forward single #
face $-1 $76 $77 $44 $-1 $78 reversed single #
face $-1 $79 $80 $45 $-1 $81 forward single #
face $-1 $82 $83 $46 $-1 $84 forward single #
face $-1 $85 $86 $47 $-1 $87 reversed single #
face $-1 $88 $89 $48 $-1 $90 forward single #
face $-1 $91 $92 $49 $-1 $93 forward single #
face $-1 $94 $95 $50 $-1 $96 reversed single #
face $-1 $97 $98 $51 $-1 $99 forward single #
face $-1 $100 $101 $52 $-1 $102 forward single #
face $-1 $103 $104 $53 $-1 $105 reversed single #
face $-1 $106 $107 $54 $-1 $108 forward single #
face $-1 $109 $110 $55 $-1 $111 forward single #
face $-1 $112 $113 $42 $-1 $114 reversed single #
loop $-1 $-1 $115 $56 #
plane-surface $-1 0 0 11.535160988046206 0 0 1 1 0 0 forward_v I I I I #
face $-1 $116 $117 $43 $-1 $118 reversed single #
loop $-1 $-1 $119 $57 #
plane-surface $-1 -64.844508194219799 0 0 1 0 0 0 0 -1 forward_v I I I I #
face $-1 $120 $121 $44 $-1 $122 reversed single #
loop $-1 $-1 $123 $58 #
plane-surface $-1 58.443664526403438 -15.439586984724158 188.03750284698711 0 -1 0 -0.68199836817093118 0 -0.7313536940579346 forward_v I I I I #
face $-1 $124 $125 $45 $-1 $126 forward single #
loop $-1 $127 $128 $59 #
cone-surface $-1 59.877130405321559 -21.957726511404111 6.7177565769317429 -0.68199836817093118 0 -0.7313536940579346 0.7313536940579346 0 -0.68199836817093118 1 I I 0 1 1 forward I I I I #
face $-1 $129 $130 $46 $-1 $131 forward single #
loop $-1 $132 $133 $60 #
cone-surface $-1 59.877130405321559 -18.046842795396138 6.7177565769317429 -0.68199836817093118 0 -0.7313536940579346 0.7313536940579346 0 -0.68199836817093118 1 I I 0 1 1 forward I I I I #
face $-1 $134 $135 $47 $-1 $136 reversed single #
loop $-1 $-1 $137 $61 #
plane-surface $-1 58.443664526403438 -2.1085360798643213 188.03750284698711 0 -1 0 -0.68199836817093118 0 -0.7313536940579346 forward_v I I I I #
face $-1 $138 $139 $48 $-1 $140 forward single #
loop $-1 $141 $142 $62 #
cone-surface $-1 59.877130405321559 -8.6266756065442713 6.7177565769317429 -0.68199836817093118 0 -0.7313536940579346 0.7313536940579346 0 -0.68199836817093118 1 I I 0 1 1 forward I I I I #
face $-1 $143 $144 $49 $-1 $145 forward single #
loop $-1 $146 $147 $63 #
cone-surface $-1 59.877130405321559 -4.7157918905363019 6.7177565769317429 -0.68199836817093118 0 -0.7313536940579346 0.7313536940579346 0 -0.68199836817093118 1 I I 0 1 1 forward I I I I #
face $-1 $148 $149 $50 $-1 $150 reversed single #
loop $-1 $-1 $151 $64 #
plane-surface $-1 58.443664526403438 11.222514824995518 188.03750284698711 0 -1 0 -0.68199836817093118 0 -0.7313536940579346 forward_v I I I I #
face $-1 $152 $153 $51 $-1 $154 forward single #
loop $-1 $155 $156 $65 #
cone-surface $-1 59.877130405321559 4.7043752983155649 6.7177565769317429 -0.68199836817093118 0 -0.7313536940579346 0.7313536940579346 0 -0.68199836817093118 1 I I 0 1 1 forward I I I I #
face $-1 $157 $158 $52 $-1 $159 forward single #
loop $-1 $160 $161 $66 #
cone-surface $-1 59.877130405321559 8.6152590143235379 6.7177565769317429 -0.68199836817093118 0 -0.7313536940579346 0.7313536940579346 0 -0.68199836817093118 1 I I 0 1 1 forward I I I I #
face $-1 $162 $163 $53 $-1 $164 reversed single #
loop $-1 $-1 $165 $67 #
plane-surface $-1 58.443664526403438 24.553565729855354 188.03750284698711 0 -1 0 -0.68199836817093118 0 -0.7313536940579346 forward_v I I I I #
face $-1 $166 $167 $54 $-1 $168 forward single #
loop $-1 $169 $170 $68 #
cone-surface $-1 59.877130405321559 18.035426203175401 6.7177565769317429 -0.68199836817093118 0 -0.7313536940579346 0.7313536940579346 0 -0.68199836817093118 1 I I 0 1 1 forward I I I I #
face $-1 $171 $172 $55 $-1 $173 forward single #
loop $-1 $174 $175 $69 #
cone-surface $-1 59.877130405321559 21.946309919183374 6.7177565769317429 -0.68199836817093118 0 -0.7313536940579346 0.7313536940579346 0 -0.68199836817093118 1 I I 0 1 1 forward I I I I #
face $-1 $176 $177 $42 $-1 $178 reversed single #
loop $-1 $-1 $179 $70 #
plane-surface $-1 0 0 -11.535160988046206 0 0 1 1 0 0 forward_v I I I I #
coedge $-1 $180 $181 $182 $183 forward $71 $-1 #
face $-1 $184 $185 $43 $-1 $186 forward single #
loop $-1 $-1 $187 $73 #
plane-surface $-1 0 26.662101809719676 0 0 -1 0 0 0 -1 forward_v I I I I #
coedge $-1 $188 $189 $190 $191 forward $74 $-1 #
face $-1 $192 $193 $44 $-1 $194 reversed single #
loop $-1 $-1 $195 $76 #
plane-surface $-1 -30.004033020205512 -20.002284653400125 93.188961632561785 0.68199836817093118 0 0.7313536940579346 0.7313536940579346 0 -0.68199836817093118 forward_v I I I I #
coedge $-1 $196 $197 $198 $199 reversed $77 $-1 #
face $-1 $-1 $200 $45 $-1 $201 forward single #
loop $-1 $202 $203 $79 #
cone-surface $-1 58.211534579835714 -21.957726511404111 4.9316237698349941 -0.68199836817093118 0 -0.7313536940579346 0.3656768470289673 0 -0.34099918408546559 1 I I -0.70710678118654746 0.70710678118654746 0.5 forward I I I I #
loop $-1 $-1 $204 $59 #
coedge $-1 $128 $128 $205 $206 reversed $80 $-1 #
face $-1 $-1 $207 $46 $-1 $208 forward single #
loop $-1 $209 $210 $82 #
cone-surface $-1 58.211534579835714 -18.046842795396138 4.9316237698349941 -0.68199836817093118 0 -0.7313536940579346 0.3656768470289673 0 -0.34099918408546559 1 I I -0.70710678118654746 0.70710678118654746 0.5 forward I I I I #
loop $-1 $-1 $211 $60 #
coedge $-1 $133 $133 $212 $213 reversed $83 $-1 #
face $-1 $214 $215 $47 $-1 $216 reversed single #
loop $-1 $-1 $217 $85 #
plane-surface $-1 -30.004033020205512 -6.6712337485402884 93.188961632561785 0.68199836817093118 0 0.7313536940579346 0.7313536940579346 0 -0.68199836817093118 forward_v I I I I #
coedge $-1 $218 $219 $220 $221 reversed $86 $-1 #
face $-1 $-1 $222 $48 $-1 $223 forward single #
loop $-1 $224 $225 $88 #
cone-surface $-1 58.211534579835714 -8.6266756065442713 4.9316237698349941 -0.68199836817093118 0 -0.7313536940579346 0.3656768470289673 0 -0.34099918408546559 1 I I -0.70710678118654746 0.70710678118654746 0.5 forward I I I I #
loop $-1 $-1 $226 $62 #
coedge $-1 $142 $142 $227 $228 reversed $89 $-1 #
face $-1 $-1 $229 $49 $-1 $230 forward single #
loop $-1 $231 $232 $91 #
cone-surface $-1 58.211534579835714 -4.7157918905363019 4.9316237698349941 -0.68199836817093118 0 -0.7313536940579346 0.3656768470289673 0 -0.34099918408546559 1 I I -0.70710678118654746 0.70710678118654746 0.5 forward I I I I #
loop $-1 $-1 $233 $63 #
coedge $-1 $147 $147 $234 $235 reversed $92 $-1 #
face $-1 $236 $237 $50 $-1 $238 reversed single #
loop $-1 $-1 $239 $94 #
plane-surface $-1 -30.004033020205512 6.6598171563195514 93.188961632561785 0.68199836817093118 0 0.7313536940579346 0.7313536940579346 0 -0.68199836817093118 forward_v I I I I #
coedge $-1 $240 $241 $242 $243 reversed $95 $-1 #
face $-1 $-1 $244 $51 $-1 $245 forward single #
loop $-1 $246 $247 $97 #
cone-surface $-1 58.211534579835714 4.7043752983155649 4.9316237698349941 -0.68199836817093118 0 -0.7313536940579346 0.3656768470289673 0 -0.34099918408546559 1 I I -0.70710678118654746 0.70710678118654746 0.5 forward I I I I #
loop $-1 $-1 $248 $65 #
coedge $-1 $156 $156 $249 $250 reversed $98 $-1 #
face $-1 $-1 $251 $52 $-1 $252 forward single #
loop $-1 $253 $254 $100 #
cone-surface $-1 58.211534579835714 8.6152590143235379 4.9316237698349941 -0.68199836817093118 0 -0.7313536940579346 0.3656768470289673 0 -0.34099918408546559 1 I I -0.70710678118654746 0.70710678118654746 0.5 forward I I I I #
loop $-1 $-1 $255 $66 #
coedge $-1 $161 $161 $256 $257 reversed $101 $-1 #
face $-1 $258 $259 $53 $-1 $260 reversed single #
loop $-1 $-1 $261 $103 #
plane-surface $-1 -30.004033020205512 19.990868061179388 93.188961632561785 0.68199836817093118 0 0.7313536940579346 0.7313536940579346 0 -0.68199836817093118 forward_v I I I I #
coedge $-1 $262 $263 $264 $265 reversed $104 $-1 #
face $-1 $-1 $266 $54 $-1 $267 forward single #
loop $-1 $268 $269 $106 #
cone-surface $-1 58.211534579835714 18.035426203175401 4.9316237698349941 -0.68199836817093118 0 -0.7313536940579346 0.3656768470289673 0 -0.34099918408546559 1 I I -0.70710678118654746 0.70710678118654746 0.5 forward I I I I #
loop $-1 $-1 $270 $68 #
coedge $-1 $170 $170 $271 $272 reversed $107 $-1 #
face $-1 $-1 $273 $55 $-1 $274 forward single #
loop $-1 $275 $276 $109 #
cone-surface $-1 58.211534579835714 21.946309919183374 4.9316237698349941 -0.68199836817093118 0 -0.7313536940579346 0.3656768470289673 0 -0.34099918408546559 1 I I -0.70710678118654746 0.70710678118654746 0.5 forward I I I I #
loop $-1 $-1 $277 $69 #
coedge $-1 $175 $175 $278 $279 reversed $110 $-1 #
face $-1 $280 $281 $42 $-1 $282 reversed single #
loop $-1 $-1 $283 $112 #
plane-surface $-1 0 -26.662101809719676 0 0 1 0 0 0 1 forward_v I I I I #
coedge $-1 $284 $285 $286 $287 forward $113 $-1 #
coedge $-1 $288 $115 $289 $290 forward $71 $-1 #
coedge $-1 $115 $288 $291 $292 forward $71 $-1 #
coedge $-1 $293 $294 $115 $183 reversed $295 $-1 #
edge $-1 $296 -26.662101809719676 $297 26.662101809719676 $182 $298 forward 7 unknown #
face $-1 $299 $300 $43 $-1 $301 reversed single #
loop $-1 $-1 $190 $116 #
plane-surface $-1 -69.81724438644963 0 -8.535160988046206 0 0 1 1 0 0 forward_v I I I I #
coedge $-1 $302 $303 $189 $304 forward $117 $-1 #
coedge $-1 $305 $119 $306 $307 reversed $74 $-1 #
coedge $-1 $119 $305 $187 $304 reversed $74 $-1 #
coedge $-1 $308 $309 $119 $191 reversed $185 $-1 #
edge $-1 $310 -26.662101809719676 $311 26.662101809719676 $190 $312 forward 7 unknown #
face $-1 $313 $314 $44 $-1 $315 forward single #
loop $-1 $-1 $316 $120 #
plane-surface $-1 58.443664526403438 -24.564982322076091 188.03750284698711 0 1 0 0.68199836817093118 0 0.7313536940579346 forward_v I I I I #
coedge $-1 $317 $318 $319 $320 reversed $121 $-1 #
coedge $-1 $197 $123 $321 $322 reversed $77 $-1 #
coedge $-1 $123 $196 $317 $323 reversed $77 $-1 #
coedge $-1 $319 $324 $123 $199 forward $314 $-1 #
edge $-1 $325 -35.62267593101808 $326 -28.33711363602238 $198 $327 forward 7 unknown #
loop $-1 $-1 $205 $124 #
plane-surface $-1 -30.004033020205512 -20.002284653400125 93.188961632561785 0.68199836817093118 0 0.7313536940579346 0.7313536940579346 0 -0.68199836817093118 forward_v I I I I #
loop $-1 $-1 $328 $79 #
coedge $-1 $203 $203 $204 $329 reversed $125 $-1 #
coedge $-1 $204 $204 $203 $329 forward $127 $-1 #
coedge $-1 $205 $205 $128 $206 forward $200 $-1 #
edge $-1 $330 0 $330 6.2831853071796004 $205 $331 forward 7 unknown #
loop $-1 $-1 $212 $129 #
plane-surface $-1 -30.004033020205512 -20.002284653400125 93.188961632561785 0.68199836817093118 0 0.7313536940579346 0.7313536940579346 0 -0.68199836817093118 forward_v I I I I #
loop $-1 $-1 $332 $82 #
coedge $-1 $210 $210 $211 $333 reversed $130 $-1 #
coedge $-1 $211 $211 $210 $333 forward $132 $-1 #
coedge $-1 $212 $212 $133 $213 forward $207 $-1 #
edge $-1 $334 0 $334 6.2831853071796004 $212 $335 forward 7 unknown #
face $-1 $336 $337 $47 $-1 $338 reversed single #
loop $-1 $-1 $339 $134 #
plane-surface $-1 58.443664526403438 -11.233931417216255 188.03750284698711 0 1 0 0.68199836817093118 0 0.7313536940579346 forward_v I I I I #
coedge $-1 $340 $341 $342 $343 reversed $135 $-1 #
coedge $-1 $219 $137 $344 $345 reversed $86 $-1 #
coedge $-1 $137 $218 $340 $346 reversed $86 $-1 #
coedge $-1 $342 $347 $137 $221 forward $348 $-1 #
edge $-1 $349 -35.62267593101808 $350 -28.33711363602238 $220 $351 forward 7 unknown #
loop $-1 $-1 $227 $138 #
plane-surface $-1 -30.004033020205512 -6.6712337485402884 93.188961632561785 0.68199836817093118 0 0.7313536940579346 0.7313536940579346 0 -0.68199836817093118 forward_v I I I I #
loop $-1 $-1 $352 $88 #
coedge $-1 $225 $225 $226 $353 reversed $139 $-1 #
coedge $-1 $226 $226 $225 $353 forward $141 $-1 #
coedge $-1 $227 $227 $142 $228 forward $222 $-1 #
edge $-1 $354 0 $354 6.2831853071796004 $227 $355 forward 7 unknown #
loop $-1 $-1 $234 $143 #
plane-surface $-1 -30.004033020205512 -6.6712337485402884 93.188961632561785 0.68199836817093118 0 0.7313536940579346 0.7313536940579346 0 -0.68199836817093118 forward_v I I I I #
loop $-1 $-1 $356 $91 #
coedge $-1 $232 $232 $233 $357 reversed $144 $-1 #
coedge $-1 $233 $233 $232 $357 forward $146 $-1 #
coedge $-1 $234 $234 $147 $235 forward $229 $-1 #
edge $-1 $358 0 $358 6.2831853071796004 $234 $359 forward 7 unknown #
face $-1 $360 $361 $50 $-1 $362 reversed single #
loop $-1 $-1 $363 $148 #
plane-surface $-1 58.443664526403438 2.0971194876435844 188.03750284698711 0 1 0 0.68199836817093118 0 0.7313536940579346 forward_v I I I I #
coedge $-1 $364 $365 $366 $367 reversed $149 $-1 #
coedge $-1 $241 $151 $368 $369 reversed $95 $-1 #
coedge $-1 $151 $240 $364 $370 reversed $95 $-1 #
coedge $-1 $366 $371 $151 $243 forward $372 $-1 #
edge $-1 $373 -35.62267593101808 $374 -28.33711363602238 $242 $375 forward 7 unknown #
loop $-1 $-1 $249 $152 #
plane-surface $-1 -30.004033020205512 6.6598171563195514 93.188961632561785 0.68199836817093118 0 0.7313536940579346 0.7313536940579346 0 -0.68199836817093118 forward_v I I I I #
loop $-1 $-1 $376 $97 #
coedge $-1 $247 $247 $248 $377 reversed $153 $-1 #
coedge $-1 $248 $248 $247 $377 forward $155 $-1 #
coedge $-1 $249 $249 $156 $250 forward $244 $-1 #
edge $-1 $378 0 $378 6.2831853071796004 $249 $379 forward 7 unknown #
loop $-1 $-1 $256 $157 #
plane-surface $-1 -30.004033020205512 6.6598171563195514 93.188961632561785 0.68199836817093118 0 0.7313536940579346 0.7313536940579346 0 -0.68199836817093118 forward_v I I I I #
loop $-1 $-1 $380 $100 #
coedge $-1 $254 $254 $255 $381 reversed $158 $-1 #
coedge $-1 $255 $255 $254 $381 forward $160 $-1 #
coedge $-1 $256 $256 $161 $257 forward $251 $-1 #
edge $-1 $382 0 $382 6.2831853071796004 $256 $383 forward 7 unknown #
face $-1 $384 $385 $53 $-1 $386 reversed single #
loop $-1 $-1 $387 $162 #
plane-surface $-1 58.443664526403438 15.428170392503421 188.03750284698711 0 1 0 0.68199836817093118 0 0.7313536940579346 forward_v I I I I #
coedge $-1 $388 $389 $390 $391 reversed $163 $-1 #
coedge $-1 $263 $165 $392 $393 reversed $104 $-1 #
coedge $-1 $165 $262 $388 $394 reversed $104 $-1 #
coedge $-1 $390 $395 $165 $265 forward $396 $-1 #
edge $-1 $397 -35.62267593101808 $398 -28.33711363602238 $264 $399 forward 7 unknown #
loop $-1 $-1 $271 $166 #
plane-surface $-1 -30.004033020205512 19.990868061179388 93.188961632561785 0.68199836817093118 0 0.7313536940579346 0.7313536940579346 0 -0.68199836817093118 forward_v I I I I #
loop $-1 $-1 $400 $106 #
coedge $-1 $269 $269 $270 $401 reversed $167 $-1 #
coedge $-1 $270 $270 $269 $401 forward $169 $-1 #
coedge $-1 $271 $271 $170 $272 forward $266 $-1 #
edge $-1 $402 0 $402 6.2831853071796004 $271 $403 forward 7 unknown #
loop $-1 $-1 $278 $171 #
plane-surface $-1 -30.004033020205512 19.990868061179388 93.188961632561785 0.68199836817093118 0 0.7313536940579346 0.7313536940579346 0 -0.68199836817093118 forward_v I I I I #
loop $-1 $-1 $404 $109 #
coedge $-1 $276 $276 $277 $405 reversed $172 $-1 #
coedge $-1 $277 $277 $276 $405 forward $174 $-1 #
coedge $-1 $278 $278 $175 $279 forward $273 $-1 #
edge $-1 $406 0 $406 6.2831853071796004 $278 $407 forward 7 unknown #
face $-1 $408 $409 $42 $-1 $410 reversed single #
loop $-1 $-1 $411 $176 #
plane-surface $-1 -64.844508194219799 0 0 1 0 0 0 0 -1 forward_v I I I I #
coedge $-1 $412 $291 $411 $413 forward $177 $-1 #
coedge $-1 $414 $179 $412 $415 forward $113 $-1 #
coedge $-1 $179 $414 $416 $417 forward $113 $-1 #
coedge $-1 $294 $293 $179 $287 reversed $295 $-1 #
edge $-1 $418 -26.662101809719676 $419 26.662101809719676 $286 $420 forward 7 unknown #
coedge $-1 $181 $180 $421 $422 forward $71 $-1 #
coedge $-1 $423 $424 $180 $290 reversed $409 $-1 #
edge $-1 $297 -64.844508194219799 $425 64.844508194219799 $289 $426 forward 7 unknown #
coedge $-1 $283 $427 $181 $292 reversed $177 $-1 #
edge $-1 $428 -64.844508194219799 $296 64.844508194219799 $291 $429 forward 7 unknown #
coedge $-1 $286 $182 $427 $430 forward $295 $-1 #
coedge $-1 $182 $286 $423 $431 reversed $295 $-1 #
loop $-1 $-1 $293 $408 #
vertex $-1 $183 $432 #
vertex $-1 $183 $433 #
straight-curve $-1 64.844508194219799 0 11.535160988046206 0 1 0 I I #
face $-1 $434 $435 $43 $-1 $436 reversed single #
loop $-1 $-1 $437 $184 #
plane-surface $-1 -74.789980578679462 0 -10.035160988046206 1 0 0 0 0 -1 forward_v I I I I #
coedge $-1 $438 $187 $439 $440 reversed $117 $-1 #
coedge $-1 $187 $438 $308 $441 reversed $117 $-1 #
edge $-1 $310 8.535160988046206 $442 11.535160988046206 $187 $443 forward 7 unknown #
coedge $-1 $189 $188 $444 $445 reversed $74 $-1 #
coedge $-1 $446 $447 $188 $307 forward $448 $-1 #
edge $-1 $449 -11.535160988046206 $311 -8.535160988046206 $306 $450 forward 7 unknown #
coedge $-1 $451 $190 $303 $441 forward $185 $-1 #
coedge $-1 $190 $451 $446 $452 forward $185 $-1 #
vertex $-1 $304 $453 #
vertex $-1 $452 $454 #
straight-curve $-1 -64.844508194219799 0 -8.535160988046206 0 -1 0 I I #
face $-1 $-1 $455 $44 $-1 $456 reversed single #
loop $-1 $-1 $198 $192 #
plane-surface $-1 0 0 11.535160988046206 0 0 1 1 0 0 forward_v I I I I #
coedge $-1 $457 $458 $459 $460 reversed $193 $-1 #
coedge $-1 $461 $195 $197 $323 forward $121 $-1 #
coedge $-1 $195 $461 $457 $462 forward $121 $-1 #
coedge $-1 $459 $198 $195 $320 forward $314 $-1 #
edge $-1 $326 5.4384446580240962 $463 14.563839995376028 $319 $464 forward 7 unknown #
coedge $-1 $465 $466 $196 $322 forward $455 $-1 #
edge $-1 $467 -89.27748733754072 $325 -82.483590435447354 $321 $468 forward 7 unknown #
edge $-1 $326 119.72726688995607 $467 129.6890163884396 $197 $469 forward 7 unknown #
coedge $-1 $198 $459 $465 $470 forward $314 $-1 #
vertex $-1 $322 $471 #
vertex $-1 $199 $472 #
straight-curve $-1 29.221832263201719 -15.439586984724158 11.535160988046201 -1 0 0 I I #
coedge $-1 $328 $328 $-1 $473 reversed $202 $-1 #
edge $-1 $474 0 $474 6.2831853071796004 $203 $475 forward 7 unknown #
vertex $-1 $206 $476 #
ellipse-curve $-1 61.201727046721942 -21.957726511404111 8.1382125369995268 0.68199836817093118 0 0.7313536940579346 0.7313536940579346 0 -0.68199836817093118 1 I I #
coedge $-1 $332 $332 $-1 $477 reversed $209 $-1 #
edge $-1 $478 0 $478 6.2831853071796004 $210 $479 forward 7 unknown #
vertex $-1 $213 $480 #
ellipse-curve $-1 61.201727046721942 -18.046842795396138 8.1382125369995268 0.68199836817093118 0 0.7313536940579346 0.7313536940579346 0 -0.68199836817093118 1 I I #
face $-1 $-1 $348 $47 $-1 $481 forward single #
loop $-1 $-1 $482 $214 #
plane-surface $-1 64.844508194219799 0 0 -1 0 0 0 0 1 forward_v I I I I #
coedge $-1 $483 $484 $485 $486 reversed $215 $-1 #
coedge $-1 $487 $217 $219 $346 forward $135 $-1 #
coedge $-1 $217 $487 $483 $488 forward $135 $-1 #
coedge $-1 $485 $220 $217 $343 forward $348 $-1 #
edge $-1 $350 -1.2270807944058229 $489 7.8983145429461104 $342 $490 forward 7 unknown #
coedge $-1 $491 $492 $218 $345 forward $337 $-1 #
edge $-1 $493 -89.27748733754072 $349 -82.483590435447354 $344 $494 forward 7 unknown #
edge $-1 $350 119.72726688995607 $493 129.6890163884396 $219 $495 forward 7 unknown #
coedge $-1 $220 $485 $491 $496 forward $348 $-1 #
loop $-1 $-1 $485 $336 #
vertex $-1 $345 $497 #
vertex $-1 $221 $498 #
straight-curve $-1 29.221832263201719 -2.1085360798643213 11.535160988046201 -1 0 0 I I #
coedge $-1 $352 $352 $-1 $499 reversed $224 $-1 #
edge $-1 $500 0 $500 6.2831853071796004 $225 $501 forward 7 unknown #
vertex $-1 $228 $502 #
ellipse-curve $-1 61.201727046721942 -8.6266756065442713 8.1382125369995268 0.68199836817093118 0 0.7313536940579346 0.7313536940579346 0 -0.68199836817093118 1 I I #
coedge $-1 $356 $356 $-1 $503 reversed $231 $-1 #
edge $-1 $504 0 $504 6.2831853071796004 $232 $505 forward 7 unknown #
vertex $-1 $235 $506 #
ellipse-curve $-1 61.201727046721942 -4.7157918905363019 8.1382125369995268 0.68199836817093118 0 0.7313536940579346 0.7313536940579346 0 -0.68199836817093118 1 I I #
face $-1 $-1 $372 $50 $-1 $507 forward single #
loop $-1 $-1 $508 $236 #
plane-surface $-1 64.844508194219799 0 0 -1 0 0 0 0 1 forward_v I I I I #
coedge $-1 $509 $510 $511 $512 reversed $237 $-1 #
coedge $-1 $513 $239 $241 $370 forward $149 $-1 #
coedge $-1 $239 $513 $509 $514 forward $149 $-1 #
coedge $-1 $511 $242 $239 $367 forward $372 $-1 #
edge $-1 $374 -7.8926062468357419 $515 1.2327890905161913 $366 $516 forward 7 unknown #
coedge $-1 $517 $518 $240 $369 forward $361 $-1 #
edge $-1 $519 -89.27748733754072 $373 -82.483590435447354 $368 $520 forward 7 unknown #
edge $-1 $374 119.72726688995607 $519 129.6890163884396 $241 $521 forward 7 unknown #
coedge $-1 $242 $511 $517 $522 forward $372 $-1 #
loop $-1 $-1 $511 $360 #
vertex $-1 $369 $523 #
vertex $-1 $243 $524 #
straight-curve $-1 29.221832263201719 11.222514824995518 11.535160988046201 -1 0 0 I I #
coedge $-1 $376 $376 $-1 $525 reversed $246 $-1 #
edge $-1 $526 0 $526 6.2831853071796004 $247 $527 forward 7 unknown #
vertex $-1 $250 $528 #
ellipse-curve $-1 61.201727046721942 4.7043752983155649 8.1382125369995268 0.68199836817093118 0 0.7313536940579346 0.7313536940579346 0 -0.68199836817093118 1 I I #
coedge $-1 $380 $380 $-1 $529 reversed $253 $-1 #
edge $-1 $530 0 $530 6.2831853071796004 $254 $531 forward 7 unknown #
vertex $-1 $257 $532 #
ellipse-curve $-1 61.201727046721942 8.6152590143235379 8.1382125369995268 0.68199836817093118 0 0.7313536940579346 0.7313536940579346 0 -0.68199836817093118 1 I I #
face $-1 $-1 $396 $53 $-1 $533 forward single #
loop $-1 $-1 $534 $258 #
plane-surface $-1 64.844508194219799 0 0 -1 0 0 0 0 1 forward_v I I I I #
coedge $-1 $535 $536 $537 $538 reversed $259 $-1 #
coedge $-1 $539 $261 $263 $394 forward $163 $-1 #
coedge $-1 $261 $539 $535 $540 forward $163 $-1 #
coedge $-1 $537 $264 $261 $391 forward $396 $-1 #
edge $-1 $398 -14.55813169926566 $541 -5.4327363619137277 $390 $542 forward 7 unknown #
coedge $-1 $543 $544 $262 $393 forward $385 $-1 #
edge $-1 $545 -89.27748733754072 $397 -82.483590435447354 $392 $546 forward 7 unknown #
edge $-1 $398 119.72726688995607 $545 129.6890163884396 $263 $547 forward 7 unknown #
coedge $-1 $264 $537 $543 $548 forward $396 $-1 #
loop $-1 $-1 $537 $384 #
vertex $-1 $393 $549 #
vertex $-1 $265 $550 #
straight-curve $-1 29.221832263201719 24.553565729855354 11.535160988046201 -1 0 0 I I #
coedge $-1 $400 $400 $-1 $551 reversed $268 $-1 #
edge $-1 $552 0 $552 6.2831853071796004 $269 $553 forward 7 unknown #
vertex $-1 $272 $554 #
ellipse-curve $-1 61.201727046721942 18.035426203175401 8.1382125369995268 0.68199836817093118 0 0.7313536940579346 0.7313536940579346 0 -0.68199836817093118 1 I I #
coedge $-1 $404 $404 $-1 $555 reversed $275 $-1 #
edge $-1 $556 0 $556 6.2831853071796004 $276 $557 forward 7 unknown #
vertex $-1 $279 $558 #
ellipse-curve $-1 61.201727046721942 21.946309919183374 8.1382125369995268 0.68199836817093118 0 0.7313536940579346 0.7313536940579346 0 -0.68199836817093118 1 I I #
face $-1 $-1 $295 $42 $-1 $559 reversed single #
loop $-1 $-1 $423 $280 #
plane-surface $-1 0 26.662101809719676 0 0 -1 0 0 0 -1 forward_v I I I I #
coedge $-1 $421 $560 $283 $413 reversed $281 $-1 #
coedge $-1 $427 $283 $284 $415 reversed $177 $-1 #
edge $-1 $428 -11.535160988046206 $561 11.535160988046206 $411 $562 forward 7 unknown #
coedge $-1 $285 $284 $560 $563 forward $113 $-1 #
edge $-1 $419 -64.844508194219799 $561 64.844508194219799 $412 $564 forward 7 unknown #
coedge $-1 $424 $423 $285 $417 reversed $409 $-1 #
edge $-1 $565 -64.844508194219799 $418 64.844508194219799 $416 $566 forward 7 unknown #
vertex $-1 $287 $567 #
vertex $-1 $430 $568 #
straight-curve $-1 64.844508194219799 0 -11.535160988046206 0 -1 0 I I #
coedge $-1 $569 $411 $288 $422 reversed $281 $-1 #
edge $-1 $425 -26.662101809719676 $428 26.662101809719676 $421 $570 forward 7 unknown #
coedge $-1 $416 $289 $294 $431 forward $409 $-1 #
coedge $-1 $289 $416 $569 $571 reversed $409 $-1 #
vertex $-1 $290 $572 #
straight-curve $-1 0 26.662101809719676 11.535160988046206 -1 0 0 I I #
coedge $-1 $291 $412 $293 $430 reversed $177 $-1 #
vertex $-1 $422 $573 #
straight-curve $-1 0 -26.662101809719676 11.535160988046206 1 0 0 I I #
edge $-1 $296 -11.535160988046206 $419 11.535160988046206 $293 $574 forward 7 unknown #
edge $-1 $297 -11.535160988046206 $418 11.535160988046206 $294 $575 forward 7 unknown #
point $-1 64.844508194219799 -26.662101809719676 11.535160988046206 #
point $-1 64.844508194219799 26.662101809719676 11.535160988046206 #
face $-1 $-1 $448 $43 $-1 $576 reversed single #
loop $-1 $-1 $444 $299 #
plane-surface $-1 0 0 -11.535160988046206 0 0 1 1 0 0 forward_v I I I I #
coedge $-1 $577 $578 $438 $579 forward $300 $-1 #
coedge $-1 $303 $302 $437 $579 reversed $117 $-1 #
coedge $-1 $444 $580 $302 $440 forward $435 $-1 #
edge $-1 $581 -74.789980578679462 $442 -64.844508194219799 $302 $582 forward 7 unknown #
edge $-1 $310 -4.9727361922298314 $583 4.9727361922298314 $303 $584 forward 7 unknown #
vertex $-1 $304 $585 #
straight-curve $-1 -64.844508194219799 26.662101809719676 0 0 0 -1 I I #
coedge $-1 $586 $439 $305 $445 forward $435 $-1 #
edge $-1 $442 -26.662101809719676 $449 26.662101809719676 $444 $587 forward 7 unknown #
coedge $-1 $588 $306 $309 $452 reversed $448 $-1 #
coedge $-1 $306 $588 $586 $589 reversed $448 $-1 #
loop $-1 $-1 $306 $434 #
vertex $-1 $589 $590 #
straight-curve $-1 -64.844508194219799 -26.662101809719676 0 0 0 1 I I #
coedge $-1 $309 $308 $578 $591 forward $185 $-1 #
edge $-1 $592 -4.9727361922298314 $311 4.9727361922298314 $446 $593 forward 7 unknown #
point $-1 -64.844508194219799 26.662101809719676 -8.535160988046206 #
point $-1 -64.844508194219799 -26.662101809719676 -8.535160988046206 #
loop $-1 $-1 $321 $313 #
plane-surface $-1 64.844508194219799 0 0 -1 0 0 0 0 1 forward_v I I I I #
coedge $-1 $458 $316 $318 $462 reversed $193 $-1 #
coedge $-1 $316 $457 $594 $595 reversed $193 $-1 #
coedge $-1 $324 $319 $316 $460 forward $314 $-1 #
edge $-1 $463 28.33711363602238 $596 35.62267593101808 $459 $597 forward 7 unknown #
coedge $-1 $318 $317 $466 $598 reversed $121 $-1 #
edge $-1 $599 -129.6890163884396 $463 -119.72726688995607 $457 $600 forward 7 unknown #
vertex $-1 $320 $601 #
straight-curve $-1 57.558945899224064 -10.001142326700062 11.535160988046208 0 -1 0 I I #
coedge $-1 $594 $321 $324 $470 reversed $455 $-1 #
coedge $-1 $321 $594 $461 $598 forward $455 $-1 #
vertex $-1 $322 $602 #
straight-curve $-1 64.844508194219799 -15.439586984724158 94.018751423493555 0 0 1 I I #
straight-curve $-1 -30.004033020205512 -15.439586984724158 93.188961632561785 0.7313536940579346 0 -0.68199836817093118 I I #
edge $-1 $596 -24.564982322076091 $325 -15.439586984724158 $465 $603 forward 7 unknown #
point $-1 64.844508194219799 -15.439586984724158 11.535160988046206 #
point $-1 57.558945899224099 -15.439586984724158 11.535160988046201 #
edge $-1 $604 1 $604 0 $328 $-1 forward 7 unknown #
vertex $-1 $329 $605 #
ellipse-curve $-1 58.552533763921183 -21.957726511404111 5.2973006168639616 0.68199836817093118 0 0.7313536940579346 0.7313536940579346 0 -0.68199836817093118 1 I I #
point $-1 61.933080740779872 -21.957726511404111 7.4562141688285948 #
edge $-1 $606 1 $606 0 $332 $-1 forward 7 unknown #
vertex $-1 $333 $607 #
ellipse-curve $-1 58.552533763921183 -18.046842795396138 5.2973006168639616 0.68199836817093118 0 0.7313536940579346 0.7313536940579346 0 -0.68199836817093118 1 I I #
point $-1 61.933080740779872 -18.046842795396138 7.4562141688285948 #
plane-surface $-1 0 0 11.535160988046206 0 0 1 1 0 0 forward_v I I I I #
coedge $-1 $492 $491 $484 $608 forward $337 $-1 #
coedge $-1 $484 $339 $341 $488 reversed $215 $-1 #
coedge $-1 $339 $483 $482 $608 reversed $215 $-1 #
coedge $-1 $347 $342 $339 $486 forward $348 $-1 #
edge $-1 $489 28.33711363602238 $609 35.62267593101808 $485 $610 forward 7 unknown #
coedge $-1 $341 $340 $492 $611 reversed $135 $-1 #
edge $-1 $612 -129.6890163884396 $489 -119.72726688995607 $483 $613 forward 7 unknown #
vertex $-1 $343 $614 #
straight-curve $-1 57.558945899224064 -3.3356168742701442 11.535160988046208 0 -1 0 I I #
coedge $-1 $482 $344 $347 $496 reversed $337 $-1 #
coedge $-1 $344 $482 $487 $611 forward $337 $-1 #
vertex $-1 $345 $615 #
straight-curve $-1 64.844508194219799 -2.1085360798643213 94.018751423493555 0 0 1 I I #
straight-curve $-1 -30.004033020205512 -2.1085360798643213 93.188961632561785 0.7313536940579346 0 -0.68199836817093118 I I #
edge $-1 $609 -11.233931417216255 $349 -2.1085360798643213 $491 $616 forward 7 unknown #
point $-1 64.844508194219799 -2.1085360798643213 11.535160988046206 #
point $-1 57.558945899224099 -2.1085360798643213 11.535160988046201 #
edge $-1 $617 1 $617 0 $352 $-1 forward 7 unknown #
vertex $-1 $353 $618 #
ellipse-curve $-1 58.552533763921183 -8.6266756065442713 5.2973006168639616 0.68199836817093118 0 0.7313536940579346 0.7313536940579346 0 -0.68199836817093118 1 I I #
point $-1 61.933080740779872 -8.6266756065442713 7.4562141688285948 #
edge $-1 $619 1 $619 0 $356 $-1 forward 7 unknown #
vertex $-1 $357 $620 #
ellipse-curve $-1 58.552533763921183 -4.7157918905363019 5.2973006168639616 0.68199836817093118 0 0.7313536940579346 0.7313536940579346 0 -0.68199836817093118 1 I I #
point $-1 61.933080740779872 -4.7157918905363019 7.4562141688285948 #
plane-surface $-1 0 0 11.535160988046206 0 0 1 1 0 0 forward_v I I I I #
coedge $-1 $518 $517 $510 $621 forward $361 $-1 #
coedge $-1 $510 $363 $365 $514 reversed $237 $-1 #
coedge $-1 $363 $509 $508 $621 reversed $237 $-1 #
coedge $-1 $371 $366 $363 $512 forward $372 $-1 #
edge $-1 $515 28.33711363602238 $622 35.62267593101808 $511 $623 forward 7 unknown #
coedge $-1 $365 $364 $518 $624 reversed $149 $-1 #
edge $-1 $625 -129.6890163884396 $515 -119.72726688995607 $509 $626 forward 7 unknown #
vertex $-1 $367 $627 #
straight-curve $-1 57.558945899224064 3.3299085781597757 11.535160988046208 0 -1 0 I I #
coedge $-1 $508 $368 $371 $522 reversed $361 $-1 #
coedge $-1 $368 $508 $513 $624 forward $361 $-1 #
vertex $-1 $369 $628 #
straight-curve $-1 64.844508194219799 11.222514824995518 94.018751423493555 0 0 1 I I #
straight-curve $-1 -30.004033020205512 11.222514824995518 93.188961632561785 0.7313536940579346 0 -0.68199836817093118 I I #
edge $-1 $622 2.0971194876435844 $373 11.222514824995518 $517 $629 forward 7 unknown #
point $-1 64.844508194219799 11.222514824995518 11.535160988046206 #
point $-1 57.558945899224099 11.222514824995518 11.535160988046201 #
edge $-1 $630 1 $630 0 $376 $-1 forward 7 unknown #
vertex $-1 $377 $631 #
ellipse-curve $-1 58.552533763921183 4.7043752983155649 5.2973006168639616 0.68199836817093118 0 0.7313536940579346 0.7313536940579346 0 -0.68199836817093118 1 I I #
point $-1 61.933080740779872 4.7043752983155649 7.4562141688285948 #
edge $-1 $632 1 $632 0 $380 $-1 forward 7 unknown #
vertex $-1 $381 $633 #
ellipse-curve $-1 58.552533763921183 8.6152590143235379 5.2973006168639616 0.68199836817093118 0 0.7313536940579346 0.7313536940579346 0 -0.68199836817093118 1 I I #
point $-1 61.933080740779872 8.6152590143235379 7.4562141688285948 #
plane-surface $-1 0 0 11.535160988046206 0 0 1 1 0 0 forward_v I I I I #
coedge $-1 $544 $543 $536 $634 forward $385 $-1 #
coedge $-1 $536 $387 $389 $540 reversed $259 $-1 #
coedge $-1 $387 $535 $534 $634 reversed $259 $-1 #
coedge $-1 $395 $390 $387 $538 forward $396 $-1 #
edge $-1 $541 28.33711363602238 $635 35.62267593101808 $537 $636 forward 7 unknown #
coedge $-1 $389 $388 $544 $637 reversed $163 $-1 #
edge $-1 $638 -129.6890163884396 $541 -119.72726688995607 $535 $639 forward 7 unknown #
vertex $-1 $391 $640 #
straight-curve $-1 57.558945899224064 9.9954340305896938 11.535160988046208 0 -1 0 I I #
coedge $-1 $534 $392 $395 $548 reversed $385 $-1 #
coedge $-1 $392 $534 $539 $637 forward $385 $-1 #
vertex $-1 $393 $641 #
straight-curve $-1 64.844508194219799 24.553565729855354 94.018751423493555 0 0 1 I I #
straight-curve $-1 -30.004033020205512 24.553565729855354 93.188961632561785 0.7313536940579346 0 -0.68199836817093118 I I #
edge $-1 $635 15.428170392503421 $397 24.553565729855354 $543 $642 forward 7 unknown #
point $-1 64.844508194219799 24.553565729855354 11.535160988046206 #
point $-1 57.558945899224099 24.553565729855354 11.535160988046201 #
edge $-1 $643 1 $643 0 $400 $-1 forward 7 unknown #
vertex $-1 $401 $644 #
ellipse-curve $-1 58.552533763921183 18.035426203175401 5.2973006168639616 0.68199836817093118 0 0.7313536940579346 0.7313536940579346 0 -0.68199836817093118 1 I I #
point $-1 61.933080740779872 18.035426203175401 7.4562141688285948 #
edge $-1 $645 1 $645 0 $404 $-1 forward 7 unknown #
vertex $-1 $405 $646 #
ellipse-curve $-1 58.552533763921183 21.946309919183374 5.2973006168639616 0.68199836817093118 0 0.7313536940579346 0.7313536940579346 0 -0.68199836817093118 1 I I #
point $-1 61.933080740779872 21.946309919183374 7.4562141688285948 #
plane-surface $-1 64.844508194219799 0 0 -1 0 0 0 0 1 forward_v I I I I #
coedge $-1 $411 $569 $414 $563 reversed $281 $-1 #
vertex $-1 $563 $647 #
straight-curve $-1 -64.844508194219799 -26.662101809719676 0 0 0 -1 I I #
edge $-1 $561 -26.662101809719676 $565 26.662101809719676 $560 $648 forward 7 unknown #
straight-curve $-1 0 -26.662101809719676 -11.535160988046206 -1 0 0 I I #
vertex $-1 $417 $649 #
straight-curve $-1 0 26.662101809719676 -11.535160988046206 1 0 0 I I #
point $-1 64.844508194219799 26.662101809719676 -11.535160988046206 #
point $-1 64.844508194219799 -26.662101809719676 -11.535160988046206 #
coedge $-1 $560 $421 $424 $571 forward $281 $-1 #
straight-curve $-1 -64.844508194219799 0 11.535160988046206 0 -1 0 I I #
edge $-1 $425 -11.535160988046206 $565 11.535160988046206 $424 $650 forward 7 unknown #
point $-1 -64.844508194219799 26.662101809719676 11.535160988046206 #
point $-1 -64.844508194219799 -26.662101809719676 11.535160988046206 #
straight-curve $-1 64.844508194219799 -26.662101809719676 0 0 0 -1 I I #
straight-curve $-1 64.844508194219799 26.662101809719676 0 0 0 -1 I I #
plane-surface $-1 0 -26.662101809719676 0 0 1 0 0 0 1 forward_v I I I I #
coedge $-1 $651 $437 $580 $652 reversed $300 $-1 #
coedge $-1 $437 $651 $451 $591 reversed $300 $-1 #
edge $-1 $583 -1.5 $581 1.5 $438 $653 forward 7 unknown #
coedge $-1 $439 $586 $577 $652 forward $435 $-1 #
vertex $-1 $440 $654 #
straight-curve $-1 0 26.662101809719676 -11.535160988046206 1 0 0 I I #
vertex $-1 $441 $655 #
straight-curve $-1 -69.81724438644963 26.662101809719676 -8.535160988046206 -1 0 0 I I #
point $-1 -64.844508194219799 26.662101809719676 -11.535160988046206 #
coedge $-1 $580 $444 $447 $589 forward $435 $-1 #
straight-curve $-1 -64.844508194219799 0 -11.535160988046206 0 -1 0 I I #
coedge $-1 $447 $446 $651 $656 forward $448 $-1 #
edge $-1 $449 -4.9727361922298314 $657 4.9727361922298314 $447 $658 forward 7 unknown #
point $-1 -64.844508194219799 -26.662101809719676 -11.535160988046206 #
edge $-1 $583 -26.662101809719676 $592 26.662101809719676 $578 $659 forward 7 unknown #
vertex $-1 $591 $660 #
straight-curve $-1 -69.81724438644963 -26.662101809719676 -8.535160988046206 1 0 0 I I #
coedge $-1 $466 $465 $458 $595 forward $455 $-1 #
edge $-1 $596 82.483590435447354 $599 89.27748733754072 $594 $661 forward 7 unknown #
vertex $-1 $470 $662 #
straight-curve $-1 29.221832263201719 -24.564982322076091 11.535160988046201 1 0 0 I I #
edge $-1 $599 -14.563839995376028 $467 -5.4384446580240962 $466 $663 forward 7 unknown #
vertex $-1 $598 $664 #
straight-curve $-1 -30.004033020205512 -24.564982322076091 93.188961632561785 -0.7313536940579346 0 0.68199836817093118 I I #
point $-1 57.558945899224099 -24.564982322076091 11.535160988046201 #
point $-1 64.844508194219813 -15.439586984724158 4.7412640859528352 #
straight-curve $-1 64.844508194219799 0 11.535160988046206 0 1 0 I I #
vertex $-1 $473 $665 #
point $-1 59.283887457979112 -21.957726511404111 4.6153022486930304 #
vertex $-1 $477 $666 #
point $-1 59.283887457979112 -18.046842795396138 4.6153022486930304 #
edge $-1 $609 82.483590435447354 $612 89.27748733754072 $482 $667 forward 7 unknown #
vertex $-1 $496 $668 #
straight-curve $-1 29.221832263201719 -11.233931417216255 11.535160988046201 1 0 0 I I #
edge $-1 $612 -7.8983145429461104 $493 1.2270807944058229 $492 $669 forward 7 unknown #
vertex $-1 $611 $670 #
straight-curve $-1 -30.004033020205512 -11.233931417216255 93.188961632561785 -0.7313536940579346 0 0.68199836817093118 I I #
point $-1 57.558945899224099 -11.233931417216255 11.535160988046201 #
point $-1 64.844508194219813 -2.1085360798643213 4.7412640859528352 #
straight-curve $-1 64.844508194219799 0 11.535160988046206 0 1 0 I I #
vertex $-1 $499 $671 #
point $-1 59.283887457979112 -8.6266756065442713 4.6153022486930304 #
vertex $-1 $503 $672 #
point $-1 59.283887457979112 -4.7157918905363019 4.6153022486930304 #
edge $-1 $622 82.483590435447354 $625 89.27748733754072 $508 $673 forward 7 unknown #
vertex $-1 $522 $674 #
straight-curve $-1 29.221832263201719 2.0971194876435844 11.535160988046201 1 0 0 I I #
edge $-1 $625 -1.2327890905161913 $519 7.8926062468357419 $518 $675 forward 7 unknown #
vertex $-1 $624 $676 #
straight-curve $-1 -30.004033020205512 2.0971194876435844 93.188961632561785 -0.7313536940579346 0 0.68199836817093118 I I #
point $-1 57.558945899224099 2.0971194876435844 11.535160988046201 #
point $-1 64.844508194219813 11.222514824995518 4.7412640859528352 #
straight-curve $-1 64.844508194219799 0 11.535160988046206 0 1 0 I I #
vertex $-1 $525 $677 #
point $-1 59.283887457979112 4.7043752983155649 4.6153022486930304 #
vertex $-1 $529 $678 #
point $-1 59.283887457979112 8.6152590143235379 4.6153022486930304 #
edge $-1 $635 82.483590435447354 $638 89.27748733754072 $534 $679 forward 7 unknown #
vertex $-1 $548 $680 #
straight-curve $-1 29.221832263201719 15.428170392503421 11.535160988046201 1 0 0 I I #
edge $-1 $638 5.4327363619137277 $545 14.55813169926566 $544 $681 forward 7 unknown #
vertex $-1 $637 $682 #
straight-curve $-1 -30.004033020205512 15.428170392503421 93.188961632561785 -0.7313536940579346 0 0.68199836817093118 I I #
point $-1 57.558945899224099 15.428170392503421 11.535160988046201 #
point $-1 64.844508194219813 24.553565729855354 4.7412640859528352 #
straight-curve $-1 64.844508194219799 0 11.535160988046206 0 1 0 I I #
vertex $-1 $551 $683 #
point $-1 59.283887457979112 18.035426203175401 4.6153022486930304 #
vertex $-1 $555 $684 #
point $-1 59.283887457979112 21.946309919183374 4.6153022486930304 #
point $-1 -64.844508194219799 -26.662101809719676 -11.535160988046206 #
straight-curve $-1 -64.844508194219799 0 -11.535160988046206 0 1 0 I I #
point $-1 -64.844508194219799 26.662101809719676 -11.535160988046206 #
straight-curve $-1 -64.844508194219799 26.662101809719676 0 0 0 -1 I I #
coedge $-1 $578 $577 $588 $656 reversed $300 $-1 #
edge $-1 $657 -26.662101809719676 $581 26.662101809719676 $577 $685 forward 7 unknown #
straight-curve $-1 -74.789980578679462 26.662101809719676 -10.035160988046206 0 0 -1 I I #
point $-1 -74.789980578679462 26.662101809719676 -11.535160988046206 #
point $-1 -74.789980578679462 26.662101809719676 -8.535160988046206 #
edge $-1 $592 -1.5 $657 1.5 $651 $686 forward 7 unknown #
vertex $-1 $652 $687 #
straight-curve $-1 -69.81724438644963 -26.662101809719676 -11.535160988046206 -1 0 0 I I #
straight-curve $-1 -74.789980578679462 0 -8.535160988046206 0 -1 0 I I #
point $-1 -74.789980578679462 -26.662101809719676 -8.535160988046206 #
straight-curve $-1 64.844508194219799 -24.564982322076091 94.018751423493555 0 0 -1 I I #
point $-1 64.844508194219799 -24.564982322076091 11.535160988046206 #
straight-curve $-1 64.844508194219799 -10.001142326700062 4.7412640859528494 0 1 0 I I #
point $-1 64.844508194219813 -24.564982322076091 4.7412640859528352 #
point $-1 57.870535395750245 -21.957726511404111 4.5659469228060265 #
point $-1 57.870535395750245 -18.046842795396138 4.5659469228060265 #
straight-curve $-1 64.844508194219799 -11.233931417216255 94.018751423493555 0 0 -1 I I #
point $-1 64.844508194219799 -11.233931417216255 11.535160988046206 #
straight-curve $-1 64.844508194219799 -3.3356168742701442 4.7412640859528494 0 1 0 I I #
point $-1 64.844508194219813 -11.233931417216255 4.7412640859528352 #
point $-1 57.870535395750245 -8.6266756065442713 4.5659469228060265 #
point $-1 57.870535395750245 -4.7157918905363019 4.5659469228060265 #
straight-curve $-1 64.844508194219799 2.0971194876435844 94.018751423493555 0 0 -1 I I #
point $-1 64.844508194219799 2.0971194876435844 11.535160988046206 #
straight-curve $-1 64.844508194219799 3.3299085781597757 4.7412640859528494 0 1 0 I I #
point $-1 64.844508194219813 2.0971194876435844 4.7412640859528352 #
point $-1 57.870535395750245 4.7043752983155649 4.5659469228060265 #
point $-1 57.870535395750245 8.6152590143235379 4.5659469228060265 #
straight-curve $-1 64.844508194219799 15.428170392503421 94.018751423493555 0 0 -1 I I #
point $-1 64.844508194219799 15.428170392503421 11.535160988046206 #
straight-curve $-1 64.844508194219799 9.9954340305896938 4.7412640859528494 0 1 0 I I #
point $-1 64.844508194219813 15.428170392503421 4.7412640859528352 #
point $-1 57.870535395750245 18.035426203175401 4.5659469228060265 #
point $-1 57.870535395750245 21.946309919183374 4.5659469228060265 #
straight-curve $-1 -74.789980578679462 0 -11.535160988046206 0 1 0 I I #
straight-curve $-1 -74.789980578679462 -26.662101809719676 -10.035160988046206 0 0 -1 I I #
point $-1 -74.789980578679462 -26.662101809719676 -11.535160988046206 #
End-of-ACIS-data 