500 0 6 0           
7 Unknown 11 ACIS 5.0 NT 24 Fri Mar 26 02:54:11 1999 
-1 9.9999999999999995e-007 1e-010 
body $-1 $6 $-1 $7 #
body $-1 $8 $-1 $9 #
body $-1 $10 $-1 $11 #
body $-1 $12 $-1 $13 #
body $-1 $14 $-1 $15 #
body $-1 $16 $-1 $17 #
lump $-1 $-1 $18 $0 #
transform $-1 1 0 0 0 1 0 0 0 1 49.291055024872584 21.182653014702087 4.9127955438468129 1 rotate no_reflect no_shear #
lump $-1 $-1 $19 $1 #
transform $-1 1 0 0 0 1 0 0 0 1 49.291055024872584 21.182653014702087 4.9127955438468129 1 rotate no_reflect no_shear #
lump $-1 $-1 $20 $2 #
transform $-1 1 0 0 0 1 0 0 0 1 49.291055024872584 21.182653014702087 4.9127955438468129 1 rotate no_reflect no_shear #
lump $-1 $-1 $21 $3 #
transform $-1 1 0 0 0 1 0 0 0 1 49.291055024872584 21.182653014702087 4.9127955438468129 1 rotate no_reflect no_shear #
lump $-1 $-1 $22 $4 #
transform $-1 1 0 0 0 1 0 0 0 1 49.291055024872584 21.182653014702087 4.9127955438468129 1 rotate no_reflect no_shear #
lump $-1 $-1 $23 $5 #
transform $-1 1 0 0 0 1 0 0 0 1 49.291055024872584 21.182653014702087 4.9127955438468129 1 rotate no_reflect no_shear #
shell $-1 $-1 $-1 $24 $-1 $6 #
shell $-1 $-1 $-1 $25 $-1 $8 #
shell $-1 $-1 $-1 $26 $-1 $10 #
shell $-1 $-1 $-1 $27 $-1 $12 #
shell $-1 $-1 $-1 $28 $-1 $14 #
shell $-1 $-1 $-1 $29 $-1 $16 #
face $-1 $30 $31 $18 $-1 $32 forward single #
face $-1 $33 $34 $19 $-1 $35 forward single #
face $-1 $36 $37 $20 $-1 $38 forward single #
face $-1 $39 $40 $21 $-1 $41 reversed single #
face $-1 $42 $43 $22 $-1 $44 forward single #
face $-1 $45 $46 $23 $-1 $47 forward single #
face $-1 $48 $49 $18 $-1 $50 reversed single #
loop $-1 $-1 $51 $24 #
plane-surface $-1 0 0 4.9127955438468129 0 0 1 1 0 0 forward_v I I I I #
face $-1 $52 $53 $19 $-1 $54 reversed single #
loop $-1 $-1 $55 $25 #
plane-surface $-1 -46.606763332276195 0 2.5551784311872332 0 0 1 1 0 0 forward_v I I I I #
face $-1 $56 $57 $20 $-1 $58 reversed single #
loop $-1 $-1 $59 $26 #
plane-surface $-1 46.606763332276195 0 2.5551784311872332 0 0 1 1 0 0 forward_v I I I I #
face $-1 $60 $61 $21 $-1 $62 reversed single #
loop $-1 $-1 $63 $27 #
plane-surface $-1 -9.181734959281739 69.469038048272253 95.894385359273087 -1 0 0 0 0.7660444514056185 0.64278759981090561 forward_v I I I I #
face $-1 $64 $65 $22 $-1 $66 forward single #
loop $-1 $67 $68 $28 #
cone-surface $-1 -24.023753755965959 17.620998808649571 1.2081837972605218 0 -0.7660444514056185 -0.64278759981090561 1.5 0 0 1 I I 0 1 1.5 forward I I I I #
face $-1 $69 $70 $23 $-1 $71 forward single #
loop $-1 $72 $73 $29 #
cone-surface $-1 -15.11854247795543 17.620998808649571 1.2081837972605218 0 -0.7660444514056185 -0.64278759981090561 1.5 0 0 1 I I 0 1 1.5 forward I I I I #
face $-1 $74 $75 $18 $-1 $76 reversed single #
loop $-1 $-1 $77 $30 #
plane-surface $-1 0 0 -4.9127955438468129 0 0 1 1 0 0 forward_v I I I I #
coedge $-1 $78 $79 $80 $81 forward $31 $-1 #
face $-1 $82 $83 $19 $-1 $84 reversed single #
loop $-1 $-1 $85 $33 #
plane-surface $-1 -46.606763332276195 0 -0.4448215688127668 0 0 1 1 0 0 forward_v I I I I #
coedge $-1 $86 $87 $88 $89 forward $34 $-1 #
face $-1 $90 $91 $20 $-1 $92 reversed single #
loop $-1 $-1 $93 $36 #
plane-surface $-1 46.606763332276195 0 -0.4448215688127668 0 0 1 1 0 0 forward_v I I I I #
coedge $-1 $94 $95 $96 $97 reversed $37 $-1 #
face $-1 $98 $99 $21 $-1 $100 reversed single #
loop $-1 $-1 $101 $39 #
plane-surface $-1 -19.571148116960693 -6.0492403631930927 32.527027456102836 0 0.7660444514056185 0.64278759981090561 1 0 0 forward_v I I I I #
coedge $-1 $102 $103 $104 $105 reversed $40 $-1 #
face $-1 $-1 $106 $22 $-1 $107 forward single #
loop $-1 $108 $109 $42 #
cone-surface $-1 -24.023753755965959 15.515212349904981 -0.55878079734892072 0 -0.7660444514056185 -0.64278759981090561 0.75 0 0 1 I I -0.70710678118654746 0.70710678118654768 0.75 forward I I I I #
loop $-1 $-1 $110 $28 #
coedge $-1 $68 $68 $111 $112 reversed $43 $-1 #
face $-1 $-1 $113 $23 $-1 $114 forward single #
loop $-1 $115 $116 $45 #
cone-surface $-1 -15.11854247795543 15.515212349904981 -0.55878079734892072 0 -0.7660444514056185 -0.64278759981090561 0.75 0 0 1 I I -0.70710678118654746 0.70710678118654768 0.75 forward I I I I #
loop $-1 $-1 $117 $29 #
coedge $-1 $73 $73 $118 $119 reversed $46 $-1 #
face $-1 $120 $121 $18 $-1 $122 reversed single #
loop $-1 $-1 $123 $48 #
plane-surface $-1 0 -21.182653014702087 0 0 1 0 0 0 1 forward_v I I I I #
coedge $-1 $124 $125 $126 $127 forward $49 $-1 #
coedge $-1 $128 $51 $129 $130 forward $31 $-1 #
coedge $-1 $51 $128 $131 $132 forward $31 $-1 #
coedge $-1 $133 $134 $51 $81 reversed $135 $-1 #
edge $-1 $136 -21.182653014702087 $137 21.182653014702087 $80 $138 forward 7 unknown #
face $-1 $139 $140 $19 $-1 $141 reversed single #
loop $-1 $-1 $142 $52 #
plane-surface $-1 -43.922471639679806 0 1.0551784311872332 -1 0 0 0 0 1 forward_v I I I I #
coedge $-1 $143 $144 $145 $146 forward $53 $-1 #
coedge $-1 $147 $55 $148 $149 reversed $34 $-1 #
coedge $-1 $55 $147 $150 $151 reversed $34 $-1 #
coedge $-1 $142 $152 $55 $89 reversed $83 $-1 #
edge $-1 $153 -21.182653014702087 $154 21.182653014702087 $88 $155 forward 7 unknown #
face $-1 $156 $157 $20 $-1 $158 reversed single #
loop $-1 $-1 $159 $56 #
plane-surface $-1 43.922471639679806 0 1.0551784311872332 1 0 0 0 0 -1 forward_v I I I I #
coedge $-1 $160 $161 $162 $163 reversed $57 $-1 #
coedge $-1 $164 $59 $165 $166 reversed $37 $-1 #
coedge $-1 $59 $164 $167 $168 reversed $37 $-1 #
coedge $-1 $169 $170 $59 $97 forward $171 $-1 #
edge $-1 $172 -21.182653014702087 $173 21.182653014702087 $96 $174 forward 7 unknown #
face $-1 $175 $176 $21 $-1 $177 reversed single #
loop $-1 $-1 $178 $60 #
plane-surface $-1 -29.960561274639645 69.469038048272253 95.894385359273087 1 0 0 0 -0.7660444514056185 -0.64278759981090561 forward_v I I I I #
coedge $-1 $179 $180 $181 $182 reversed $61 $-1 #
coedge $-1 $103 $63 $183 $184 reversed $40 $-1 #
coedge $-1 $63 $102 $179 $185 reversed $40 $-1 #
coedge $-1 $181 $186 $63 $105 forward $176 $-1 #
edge $-1 $187 43.034397135789732 $188 47.87387283945975 $104 $189 forward 7 unknown #
loop $-1 $-1 $111 $64 #
plane-surface $-1 -19.571148116960693 -6.0492403631930927 32.527027456102836 0 0.7660444514056185 0.64278759981090561 1 0 0 forward_v I I I I #
loop $-1 $-1 $190 $42 #
coedge $-1 $109 $109 $110 $191 reversed $65 $-1 #
coedge $-1 $110 $110 $109 $191 forward $67 $-1 #
coedge $-1 $111 $111 $68 $112 forward $106 $-1 #
edge $-1 $192 3.2568075843891276e-016 $192 6.2831853071796004 $111 $193 forward 7 unknown #
loop $-1 $-1 $118 $69 #
plane-surface $-1 -19.571148116960693 -6.0492403631930927 32.527027456102836 0 0.7660444514056185 0.64278759981090561 1 0 0 forward_v I I I I #
loop $-1 $-1 $194 $45 #
coedge $-1 $116 $116 $117 $195 reversed $70 $-1 #
coedge $-1 $117 $117 $116 $195 forward $72 $-1 #
coedge $-1 $118 $118 $73 $119 forward $113 $-1 #
edge $-1 $196 3.2568075843891276e-016 $196 6.2831853071796004 $118 $197 forward 7 unknown #
face $-1 $198 $199 $18 $-1 $200 reversed single #
loop $-1 $-1 $201 $74 #
plane-surface $-1 -49.291055024872584 0 0 1 0 0 0 0 -1 forward_v I I I I #
coedge $-1 $202 $131 $203 $204 forward $75 $-1 #
coedge $-1 $205 $77 $202 $206 forward $49 $-1 #
coedge $-1 $77 $205 $207 $208 forward $49 $-1 #
coedge $-1 $134 $133 $77 $127 reversed $135 $-1 #
edge $-1 $209 -21.182653014702087 $210 21.182653014702087 $126 $211 forward 7 unknown #
coedge $-1 $79 $78 $212 $213 forward $31 $-1 #
coedge $-1 $214 $215 $78 $130 reversed $199 $-1 #
edge $-1 $137 -49.291055024872584 $216 49.291055024872584 $129 $217 forward 7 unknown #
coedge $-1 $123 $218 $79 $132 reversed $75 $-1 #
edge $-1 $219 -49.291055024872584 $136 49.291055024872584 $131 $220 forward 7 unknown #
coedge $-1 $126 $80 $218 $221 forward $135 $-1 #
coedge $-1 $80 $126 $214 $222 reversed $135 $-1 #
loop $-1 $-1 $133 $198 #
vertex $-1 $81 $223 #
vertex $-1 $81 $224 #
straight-curve $-1 49.291055024872584 0 4.9127955438468129 0 1 0 I I #
face $-1 $225 $226 $19 $-1 $227 reversed single #
loop $-1 $-1 $228 $82 #
plane-surface $-1 0 -21.182653014702087 0 0 1 0 0 0 1 forward_v I I I I #
coedge $-1 $145 $88 $229 $230 reversed $83 $-1 #
coedge $-1 $231 $85 $228 $232 reversed $53 $-1 #
coedge $-1 $85 $231 $233 $234 reversed $53 $-1 #
coedge $-1 $152 $142 $85 $146 reversed $83 $-1 #
edge $-1 $235 -21.182653014702087 $236 21.182653014702087 $145 $237 forward 7 unknown #
coedge $-1 $87 $86 $238 $239 reversed $34 $-1 #
coedge $-1 $240 $241 $86 $149 forward $242 $-1 #
edge $-1 $243 -25.987673358734487 $154 -20.619089973541708 $148 $244 forward 7 unknown #
coedge $-1 $245 $229 $87 $151 forward $140 $-1 #
edge $-1 $153 20.619089973541708 $246 25.987673358734487 $150 $247 forward 7 unknown #
coedge $-1 $88 $145 $240 $248 reversed $83 $-1 #
vertex $-1 $151 $249 #
vertex $-1 $149 $250 #
straight-curve $-1 -43.922471639679806 0 2.5551784311872332 0 1 0 I I #
face $-1 $251 $252 $20 $-1 $253 reversed single #
loop $-1 $-1 $167 $90 #
plane-surface $-1 0 -21.182653014702087 0 0 1 0 0 0 1 forward_v I I I I #
coedge $-1 $254 $255 $256 $257 reversed $91 $-1 #
coedge $-1 $258 $93 $259 $260 reversed $57 $-1 #
coedge $-1 $93 $258 $261 $262 reversed $57 $-1 #
coedge $-1 $170 $169 $93 $163 forward $171 $-1 #
edge $-1 $263 -21.182653014702087 $264 21.182653014702087 $162 $265 forward 7 unknown #
coedge $-1 $95 $94 $255 $266 forward $37 $-1 #
coedge $-1 $267 $256 $94 $166 forward $252 $-1 #
edge $-1 $268 20.619089973541708 $172 25.987673358734487 $165 $269 forward 7 unknown #
coedge $-1 $270 $271 $95 $168 forward $157 $-1 #
edge $-1 $173 -25.987673358734487 $272 -20.619089973541708 $167 $273 forward 7 unknown #
coedge $-1 $162 $96 $271 $274 forward $171 $-1 #
coedge $-1 $96 $162 $267 $275 reversed $171 $-1 #
loop $-1 $-1 $96 $251 #
vertex $-1 $275 $276 #
vertex $-1 $274 $277 #
straight-curve $-1 49.291055024872584 0 2.5551784311872332 0 -1 0 I I #
face $-1 $-1 $278 $21 $-1 $279 forward single #
loop $-1 $-1 $104 $98 #
plane-surface $-1 0 21.182653014702087 0 0 -1 0 0 0 -1 forward_v I I I I #
coedge $-1 $280 $281 $282 $283 reversed $99 $-1 #
coedge $-1 $284 $101 $103 $185 forward $61 $-1 #
coedge $-1 $101 $284 $280 $285 forward $61 $-1 #
coedge $-1 $282 $104 $101 $182 forward $176 $-1 #
edge $-1 $188 -0.60383909919860734 $286 20.174987216159298 $181 $287 forward 7 unknown #
coedge $-1 $288 $289 $102 $184 forward $278 $-1 #
edge $-1 $290 -17.612668181158288 $187 -13.55186600943404 $183 $291 forward 7 unknown #
edge $-1 $188 -42.365306029404159 $290 -36.047819237625895 $103 $292 forward 7 unknown #
coedge $-1 $104 $282 $288 $293 reversed $176 $-1 #
vertex $-1 $293 $294 #
vertex $-1 $105 $295 #
straight-curve $-1 -9.181734959281739 21.182653014702087 47.947192679636544 0 0 -1 I I #
coedge $-1 $190 $190 $-1 $296 reversed $108 $-1 #
edge $-1 $297 0 $297 6.2831853071796004 $109 $298 forward 7 unknown #
vertex $-1 $112 $299 #
ellipse-curve $-1 -24.023753755965959 19.152251928839966 2.4930576920118011 0 0.7660444514056185 0.64278759981090561 1.5 0 0 1 I I #
coedge $-1 $194 $194 $-1 $300 reversed $115 $-1 #
edge $-1 $301 0 $301 6.2831853071796004 $116 $302 forward 7 unknown #
vertex $-1 $119 $303 #
ellipse-curve $-1 -15.11854247795543 19.152251928839966 2.4930576920118011 0 0.7660444514056185 0.64278759981090561 1.5 0 0 1 I I #
face $-1 $-1 $135 $18 $-1 $304 reversed single #
loop $-1 $-1 $214 $120 #
plane-surface $-1 0 21.182653014702087 0 0 -1 0 0 0 -1 forward_v I I I I #
coedge $-1 $305 $212 $215 $306 forward $121 $-1 #
coedge $-1 $218 $123 $124 $206 reversed $75 $-1 #
coedge $-1 $212 $305 $123 $204 reversed $121 $-1 #
edge $-1 $219 -4.9127955438468129 $307 4.9127955438468129 $203 $308 forward 7 unknown #
coedge $-1 $125 $124 $305 $309 forward $49 $-1 #
edge $-1 $210 -49.291055024872584 $307 49.291055024872584 $202 $310 forward 7 unknown #
coedge $-1 $215 $214 $125 $208 reversed $199 $-1 #
edge $-1 $311 -49.291055024872584 $209 49.291055024872584 $207 $312 forward 7 unknown #
vertex $-1 $127 $313 #
vertex $-1 $221 $314 #
straight-curve $-1 49.291055024872584 0 -4.9127955438468129 0 -1 0 I I #
coedge $-1 $201 $203 $128 $213 reversed $121 $-1 #
edge $-1 $216 -21.182653014702087 $219 21.182653014702087 $212 $315 forward 7 unknown #
coedge $-1 $207 $129 $134 $222 forward $199 $-1 #
coedge $-1 $129 $207 $201 $306 reversed $199 $-1 #
vertex $-1 $130 $316 #
straight-curve $-1 0 21.182653014702087 4.9127955438468129 -1 0 0 I I #
coedge $-1 $131 $202 $133 $221 reversed $75 $-1 #
vertex $-1 $213 $317 #
straight-curve $-1 0 -21.182653014702087 4.9127955438468129 1 0 0 I I #
edge $-1 $136 -4.9127955438468129 $210 4.9127955438468129 $133 $318 forward 7 unknown #
edge $-1 $137 -4.9127955438468129 $209 4.9127955438468129 $134 $319 forward 7 unknown #
point $-1 49.291055024872584 -21.182653014702087 4.9127955438468129 #
point $-1 49.291055024872584 21.182653014702087 4.9127955438468129 #
face $-1 $-1 $242 $19 $-1 $320 reversed single #
loop $-1 $-1 $321 $139 #
plane-surface $-1 -49.291055024872584 0 0 1 0 0 0 0 -1 forward_v I I I I #
coedge $-1 $229 $245 $143 $232 forward $140 $-1 #
coedge $-1 $150 $228 $142 $230 forward $140 $-1 #
edge $-1 $236 -0.9724107844063834 $153 2.0275892155936166 $229 $322 forward 7 unknown #
coedge $-1 $144 $143 $321 $323 reversed $53 $-1 #
edge $-1 $324 -25.987673358734487 $236 -20.619089973541708 $228 $325 forward 7 unknown #
coedge $-1 $241 $240 $144 $234 forward $242 $-1 #
edge $-1 $235 20.619089973541708 $326 25.987673358734487 $233 $327 forward 7 unknown #
vertex $-1 $234 $328 #
vertex $-1 $232 $329 #
straight-curve $-1 -43.922471639679806 0 -0.4448215688127668 0 -1 0 I I #
coedge $-1 $330 $331 $147 $239 forward $226 $-1 #
edge $-1 $246 -21.182653014702087 $243 21.182653014702087 $238 $332 forward 7 unknown #
coedge $-1 $233 $148 $152 $248 forward $242 $-1 #
coedge $-1 $148 $233 $330 $333 reversed $242 $-1 #
loop $-1 $-1 $233 $225 #
vertex $-1 $333 $334 #
straight-curve $-1 -23.303381666138097 21.182653014702087 2.5551784311872332 1 0 0 I I #
coedge $-1 $228 $150 $331 $335 forward $140 $-1 #
vertex $-1 $335 $336 #
straight-curve $-1 -23.303381666138097 -21.182653014702087 2.5551784311872332 -1 0 0 I I #
edge $-1 $154 -2.0275892155936166 $235 0.9724107844063834 $240 $337 forward 7 unknown #
point $-1 -43.922471639679806 -21.182653014702087 2.5551784311872332 #
point $-1 -43.922471639679806 21.182653014702087 2.5551784311872332 #
face $-1 $-1 $171 $20 $-1 $338 reversed single #
loop $-1 $-1 $165 $156 #
plane-surface $-1 0 21.182653014702087 0 0 -1 0 0 0 -1 forward_v I I I I #
coedge $-1 $339 $159 $258 $340 reversed $91 $-1 #
coedge $-1 $159 $339 $164 $266 reversed $91 $-1 #
coedge $-1 $165 $261 $159 $257 forward $252 $-1 #
edge $-1 $341 -0.9724107844063834 $268 2.0275892155936166 $256 $342 forward 7 unknown #
coedge $-1 $161 $160 $254 $340 forward $57 $-1 #
coedge $-1 $271 $270 $160 $260 forward $157 $-1 #
edge $-1 $343 20.619089973541708 $263 25.987673358734487 $259 $344 forward 7 unknown #
coedge $-1 $256 $267 $161 $262 forward $252 $-1 #
edge $-1 $264 -25.987673358734487 $341 -20.619089973541708 $261 $345 forward 7 unknown #
vertex $-1 $163 $346 #
vertex $-1 $163 $347 #
straight-curve $-1 49.291055024872584 0 -0.4448215688127668 0 1 0 I I #
edge $-1 $268 -21.182653014702087 $272 21.182653014702087 $255 $348 forward 7 unknown #
coedge $-1 $261 $165 $170 $275 forward $252 $-1 #
vertex $-1 $166 $349 #
straight-curve $-1 23.303381666138097 21.182653014702087 2.5551784311872332 1 0 0 I I #
coedge $-1 $259 $167 $339 $350 forward $157 $-1 #
coedge $-1 $167 $259 $169 $274 reversed $157 $-1 #
vertex $-1 $168 $351 #
straight-curve $-1 23.303381666138097 -21.182653014702087 2.5551784311872332 -1 0 0 I I #
edge $-1 $173 -2.5551784311872332 $263 0.4448215688127668 $169 $352 forward 7 unknown #
edge $-1 $172 -2.5551784311872332 $264 0.4448215688127668 $170 $353 forward 7 unknown #
point $-1 49.291055024872584 21.182653014702087 2.5551784311872332 #
point $-1 49.291055024872584 -21.182653014702087 2.5551784311872332 #
loop $-1 $-1 $183 $175 #
plane-surface $-1 0 0 4.9127955438468129 0 0 1 1 0 0 forward_v I I I I #
coedge $-1 $281 $178 $180 $285 reversed $99 $-1 #
coedge $-1 $178 $280 $354 $355 reversed $99 $-1 #
coedge $-1 $186 $181 $178 $283 forward $176 $-1 #
edge $-1 $286 -47.87387283945975 $356 -43.034397135789732 $282 $357 forward 7 unknown #
coedge $-1 $180 $179 $289 $358 reversed $61 $-1 #
edge $-1 $359 36.047819237625895 $286 42.365306029404159 $280 $360 forward 7 unknown #
vertex $-1 $182 $361 #
straight-curve $-1 -9.7855740584803463 21.18265301470209 0.073319840176797157 -1 0 0 I I #
coedge $-1 $354 $183 $186 $293 forward $278 $-1 #
coedge $-1 $183 $354 $284 $358 forward $278 $-1 #
vertex $-1 $184 $362 #
straight-curve $-1 -9.181734959281739 34.734519024136127 4.9127955438468121 0 1 0 I I #
straight-curve $-1 -9.181734959281739 -6.0492403631930927 32.527027456102836 0 -0.64278759981090561 0.7660444514056185 I I #
edge $-1 $187 9.181734959281739 $356 29.960561274639645 $186 $363 forward 7 unknown #
point $-1 -9.181734959281739 21.182653014702087 4.9127955438468129 #
point $-1 -9.181734959281739 21.182653014702087 0.073319840176793605 #
edge $-1 $364 1 $364 0 $190 $-1 forward 7 unknown #
vertex $-1 $191 $365 #
ellipse-curve $-1 -24.023753755965959 16.089745688459196 -0.076690097490741349 0 0.7660444514056185 0.64278759981090561 1.5 0 0 1 I I #
point $-1 -22.523753755965959 19.152251928839949 2.4930576920117855 #
edge $-1 $366 1 $366 0 $194 $-1 forward 7 unknown #
vertex $-1 $195 $367 #
ellipse-curve $-1 -15.11854247795543 16.089745688459196 -0.076690097490741349 0 0.7660444514056185 0.64278759981090561 1.5 0 0 1 I I #
point $-1 -13.61854247795543 19.152251928839949 2.4930576920117855 #
plane-surface $-1 49.291055024872584 0 0 -1 0 0 0 0 1 forward_v I I I I #
coedge $-1 $203 $201 $205 $309 reversed $121 $-1 #
edge $-1 $216 -4.9127955438468129 $311 4.9127955438468129 $215 $368 forward 7 unknown #
vertex $-1 $309 $369 #
straight-curve $-1 -49.291055024872584 -21.182653014702087 0 0 0 -1 I I #
edge $-1 $307 -21.182653014702087 $311 21.182653014702087 $305 $370 forward 7 unknown #
straight-curve $-1 0 -21.182653014702087 -4.9127955438468129 -1 0 0 I I #
vertex $-1 $208 $371 #
straight-curve $-1 0 21.182653014702087 -4.9127955438468129 1 0 0 I I #
point $-1 49.291055024872584 21.182653014702087 -4.9127955438468129 #
point $-1 49.291055024872584 -21.182653014702087 -4.9127955438468129 #
straight-curve $-1 -49.291055024872584 0 4.9127955438468129 0 -1 0 I I #
point $-1 -49.291055024872584 21.182653014702087 4.9127955438468129 #
point $-1 -49.291055024872584 -21.182653014702087 4.9127955438468129 #
straight-curve $-1 49.291055024872584 -21.182653014702087 0 0 0 -1 I I #
straight-curve $-1 49.291055024872584 21.182653014702087 0 0 0 -1 I I #
plane-surface $-1 0 21.182653014702087 0 0 -1 0 0 0 -1 forward_v I I I I #
coedge $-1 $331 $330 $231 $323 forward $226 $-1 #
straight-curve $-1 -43.922471639679806 -21.182653014702087 0.5275892155936166 0 0 1 I I #
edge $-1 $326 -21.182653014702087 $324 21.182653014702087 $321 $372 forward 7 unknown #
vertex $-1 $232 $373 #
straight-curve $-1 -23.303381666138097 -21.182653014702087 -0.4448215688127668 1 0 0 I I #
vertex $-1 $234 $374 #
straight-curve $-1 -23.303381666138097 21.182653014702087 -0.4448215688127668 -1 0 0 I I #
point $-1 -43.922471639679806 21.182653014702087 -0.4448215688127668 #
point $-1 -43.922471639679806 -21.182653014702087 -0.4448215688127668 #
coedge $-1 $321 $238 $241 $333 forward $226 $-1 #
coedge $-1 $238 $321 $245 $335 reversed $226 $-1 #
straight-curve $-1 -49.291055024872584 0 2.5551784311872332 0 1 0 I I #
edge $-1 $243 -2.5551784311872332 $326 0.4448215688127668 $241 $375 forward 7 unknown #
point $-1 -49.291055024872584 21.182653014702087 2.5551784311872332 #
edge $-1 $246 -2.5551784311872332 $324 0.4448215688127668 $331 $376 forward 7 unknown #
point $-1 -49.291055024872584 -21.182653014702087 2.5551784311872332 #
straight-curve $-1 -43.922471639679806 21.182653014702087 0.5275892155936166 0 0 -1 I I #
plane-surface $-1 49.291055024872584 0 0 -1 0 0 0 0 1 forward_v I I I I #
coedge $-1 $255 $254 $270 $350 reversed $91 $-1 #
edge $-1 $343 -21.182653014702087 $341 21.182653014702087 $254 $377 forward 7 unknown #
vertex $-1 $262 $378 #
straight-curve $-1 43.922471639679806 21.182653014702087 0.5275892155936166 0 0 1 I I #
vertex $-1 $260 $379 #
straight-curve $-1 23.303381666138097 -21.182653014702087 -0.4448215688127668 1 0 0 I I #
straight-curve $-1 23.303381666138097 21.182653014702087 -0.4448215688127668 -1 0 0 I I #
point $-1 49.291055024872584 -21.182653014702087 -0.4448215688127668 #
point $-1 49.291055024872584 21.182653014702087 -0.4448215688127668 #
straight-curve $-1 43.922471639679806 0 2.5551784311872332 0 -1 0 I I #
point $-1 43.922471639679806 21.182653014702087 2.5551784311872332 #
edge $-1 $272 -2.0275892155936166 $343 0.9724107844063834 $270 $380 forward 7 unknown #
point $-1 43.922471639679806 -21.182653014702087 2.5551784311872332 #
straight-curve $-1 49.291055024872584 -21.182653014702087 0 0 0 -1 I I #
straight-curve $-1 49.291055024872584 21.182653014702087 0 0 0 -1 I I #
coedge $-1 $289 $288 $281 $355 forward $278 $-1 #
edge $-1 $356 13.55186600943404 $359 17.612668181158288 $354 $381 forward 7 unknown #
vertex $-1 $355 $382 #
straight-curve $-1 -29.960561274639645 21.182653014702087 47.947192679636544 0 0 1 I I #
edge $-1 $359 -20.174987216159298 $290 0.60383909919860734 $289 $383 forward 7 unknown #
vertex $-1 $358 $384 #
straight-curve $-1 -29.960561274639645 -6.0492403631930927 32.527027456102836 0 0.64278759981090561 -0.7660444514056185 I I #
point $-1 -29.960561274639645 21.182653014702087 0.073319840176793605 #
point $-1 -9.181734959281739 17.121850842977839 4.9127955438468121 #
straight-curve $-1 0 21.182653014702087 4.9127955438468129 -1 0 0 I I #
vertex $-1 $296 $385 #
point $-1 -22.523753755965959 16.089745688459196 -0.076690097490741349 #
vertex $-1 $300 $386 #
point $-1 -13.61854247795543 16.089745688459196 -0.076690097490741349 #
straight-curve $-1 -49.291055024872584 21.182653014702087 0 0 0 -1 I I #
point $-1 -49.291055024872584 -21.182653014702087 -4.9127955438468129 #
straight-curve $-1 -49.291055024872584 0 -4.9127955438468129 0 1 0 I I #
point $-1 -49.291055024872584 21.182653014702087 -4.9127955438468129 #
straight-curve $-1 -49.291055024872584 0 -0.4448215688127668 0 -1 0 I I #
point $-1 -49.291055024872584 -21.182653014702087 -0.4448215688127668 #
point $-1 -49.291055024872584 21.182653014702087 -0.4448215688127668 #
straight-curve $-1 -49.291055024872584 21.182653014702087 0 0 0 -1 I I #
straight-curve $-1 -49.291055024872584 -21.182653014702087 0 0 0 -1 I I #
straight-curve $-1 43.922471639679806 0 -0.4448215688127668 0 1 0 I I #
point $-1 43.922471639679806 21.182653014702087 -0.4448215688127668 #
point $-1 43.922471639679806 -21.182653014702087 -0.4448215688127668 #
straight-curve $-1 43.922471639679806 -21.182653014702087 0.5275892155936166 0 0 -1 I I #
straight-curve $-1 -29.960561274639645 34.734519024136127 4.9127955438468121 0 -1 0 I I #
point $-1 -29.960561274639645 21.182653014702087 4.9127955438468129 #
straight-curve $-1 -9.7855740584803463 17.121850842977842 4.9127955438468121 1 0 0 I I #
point $-1 -29.960561274639645 17.121850842977839 4.9127955438468121 #
point $-1 -24.023753755965959 14.940679011350767 -1.0408714972071 #
point $-1 -15.11854247795543 14.940679011350767 -1.0408714972071 #
End-of-ACIS-data 