500 0 5 0           
7 Unknown 11 ACIS 5.0 NT 24 Thu Mar 25 20:24:28 1999 
-1 9.9999999999999995e-007 1e-010 
body $-1 $5 $-1 $6 #
body $-1 $7 $-1 $8 #
body $-1 $9 $-1 $10 #
body $-1 $11 $-1 $12 #
body $-1 $13 $-1 $14 #
lump $-1 $-1 $15 $0 #
transform $-1 1 0 0 0 1 0 0 0 1 62.379833368938264 33.352564797116429 13.291048474114419 1 rotate no_reflect no_shear #
lump $-1 $-1 $16 $1 #
transform $-1 1 0 0 0 1 0 0 0 1 62.379833368938264 33.352564797116429 13.291048474114419 1 rotate no_reflect no_shear #
lump $-1 $-1 $17 $2 #
transform $-1 1 0 0 0 1 0 0 0 1 62.379833368938264 33.352564797116429 13.291048474114419 1 rotate no_reflect no_shear #
lump $-1 $-1 $18 $3 #
transform $-1 1 0 0 0 1 0 0 0 1 62.379833368938264 33.352564797116429 13.291048474114419 1 rotate no_reflect no_shear #
lump $-1 $-1 $19 $4 #
transform $-1 1 0 0 0 1 0 0 0 1 62.379833368938264 33.352564797116429 13.291048474114419 1 rotate no_reflect no_shear #
shell $-1 $-1 $-1 $20 $-1 $5 #
shell $-1 $-1 $-1 $21 $-1 $7 #
shell $-1 $-1 $-1 $22 $-1 $9 #
shell $-1 $-1 $-1 $23 $-1 $11 #
shell $-1 $-1 $-1 $24 $-1 $13 #
face $-1 $25 $26 $15 $-1 $27 forward single #
face $-1 $28 $29 $16 $-1 $30 reversed single #
face $-1 $31 $32 $17 $-1 $33 reversed single #
face $-1 $34 $35 $18 $-1 $36 forward single #
face $-1 $37 $38 $19 $-1 $39 forward single #
face $-1 $40 $41 $15 $-1 $42 reversed single #
loop $-1 $-1 $43 $20 #
plane-surface $-1 0 0 13.291048474114419 0 0 1 1 0 0 forward_v I I I I #
face $-1 $44 $45 $16 $-1 $46 reversed single #
loop $-1 $-1 $47 $21 #
plane-surface $-1 -56.878904194145697 -11.713957462627697 0 0 1 0 0 0 1 forward_v I I I I #
face $-1 $48 $49 $17 $-1 $50 reversed single #
loop $-1 $-1 $51 $22 #
plane-surface $-1 -51.377975019353137 105.93679188575166 131.43522569930963 1 0 0 0 -0.85716730853699208 -0.51503806187062418 forward_v I I I I #
face $-1 $52 $53 $18 $-1 $54 forward single #
loop $-1 $55 $56 $23 #
cone-surface $-1 -47.355046520032005 31.530552610872885 11.14541083486076 0 -0.85716730853699208 -0.51503806187062418 0.5 0 0 1 I I 0 1 0.5 forward I I I I #
face $-1 $57 $58 $19 $-1 $59 forward single #
loop $-1 $60 $61 $24 #
cone-surface $-1 -41.320653771050324 31.530552610872885 11.14541083486076 0 -0.85716730853699208 -0.51503806187062418 0.5 0 0 1 I I 0 1 0.5 forward I I I I #
face $-1 $62 $63 $15 $-1 $64 reversed single #
loop $-1 $-1 $65 $25 #
plane-surface $-1 0 0 -13.291048474114419 0 0 1 1 0 0 forward_v I I I I #
coedge $-1 $66 $67 $68 $69 forward $26 $-1 #
face $-1 $70 $71 $16 $-1 $72 reversed single #
loop $-1 $-1 $73 $28 #
plane-surface $-1 -56.878904194145697 -6.7704678488875913 0 0 -1 0 0 0 -1 forward_v I I I I #
coedge $-1 $74 $75 $76 $77 reversed $29 $-1 #
face $-1 $78 $79 $17 $-1 $80 reversed single #
loop $-1 $-1 $81 $31 #
plane-surface $-1 -44.337850145541168 -1.0031158659260768 67.179248743008714 0 0.85716730853699208 0.51503806187062418 1 0 0 forward_v I I I I #
coedge $-1 $82 $83 $84 $85 reversed $32 $-1 #
face $-1 $-1 $86 $18 $-1 $87 forward single #
loop $-1 $88 $89 $34 #
cone-surface $-1 -47.355046520032005 30.482440800952226 10.51564174564222 0 -0.85716730853699208 -0.51503806187062418 0.25 0 0 1 I I -0.70710678118654746 0.70710678118654746 0.25 forward I I I I #
loop $-1 $-1 $90 $23 #
coedge $-1 $56 $56 $91 $92 reversed $35 $-1 #
face $-1 $-1 $93 $19 $-1 $94 forward single #
loop $-1 $95 $96 $37 #
cone-surface $-1 -41.320653771050324 30.482440800952226 10.51564174564222 0 -0.85716730853699208 -0.51503806187062418 0.25 0 0 1 I I -0.70710678118654746 0.70710678118654746 0.25 forward I I I I #
loop $-1 $-1 $97 $24 #
coedge $-1 $61 $61 $98 $99 reversed $38 $-1 #
face $-1 $100 $101 $15 $-1 $102 reversed single #
loop $-1 $-1 $103 $40 #
plane-surface $-1 0 -33.352564797116429 0 0 1 0 0 0 1 forward_v I I I I #
coedge $-1 $104 $105 $106 $107 forward $41 $-1 #
coedge $-1 $108 $43 $109 $110 forward $26 $-1 #
coedge $-1 $43 $108 $111 $112 forward $26 $-1 #
coedge $-1 $113 $114 $43 $69 reversed $115 $-1 #
edge $-1 $116 -33.352564797116429 $117 33.352564797116429 $68 $118 forward 7 unknown #
face $-1 $119 $120 $16 $-1 $121 reversed single #
loop $-1 $-1 $122 $44 #
plane-surface $-1 -51.37797501935313 -9.2422126557576441 0 -1 0 0 0 0 1 forward_v I I I I #
coedge $-1 $123 $124 $125 $126 forward $45 $-1 #
coedge $-1 $127 $47 $128 $129 reversed $29 $-1 #
coedge $-1 $47 $127 $130 $131 reversed $29 $-1 #
coedge $-1 $132 $133 $47 $77 forward $134 $-1 #
edge $-1 $135 -13.291048474114419 $136 13.291048474114419 $76 $137 forward 7 unknown #
face $-1 $138 $139 $17 $-1 $140 reversed single #
loop $-1 $-1 $141 $48 #
plane-surface $-1 -37.297725271729199 105.93679188575166 131.43522569930963 -1 0 0 0 0.85716730853699208 0.51503806187062418 forward_v I I I I #
coedge $-1 $142 $143 $144 $145 reversed $49 $-1 #
coedge $-1 $83 $51 $146 $147 reversed $32 $-1 #
coedge $-1 $51 $82 $142 $148 reversed $32 $-1 #
coedge $-1 $144 $149 $51 $85 forward $150 $-1 #
edge $-1 $151 19.615831145759401 $152 21.592215552673643 $84 $153 forward 7 unknown #
loop $-1 $-1 $91 $52 #
plane-surface $-1 -44.337850145541168 -1.0031158659260768 67.179248743008714 0 0.85716730853699208 0.51503806187062418 1 0 0 forward_v I I I I #
loop $-1 $-1 $154 $34 #
coedge $-1 $89 $89 $90 $155 reversed $53 $-1 #
coedge $-1 $90 $90 $89 $155 forward $55 $-1 #
coedge $-1 $91 $91 $56 $92 forward $86 $-1 #
edge $-1 $156 3.0452700220599808e-015 $156 6.2831853071796031 $91 $157 forward 7 unknown #
loop $-1 $-1 $98 $57 #
plane-surface $-1 -44.337850145541168 -1.0031158659260768 67.179248743008714 0 0.85716730853699208 0.51503806187062418 1 0 0 forward_v I I I I #
loop $-1 $-1 $158 $37 #
coedge $-1 $96 $96 $97 $159 reversed $58 $-1 #
coedge $-1 $97 $97 $96 $159 forward $60 $-1 #
coedge $-1 $98 $98 $61 $99 forward $93 $-1 #
edge $-1 $160 3.0452700220599808e-015 $160 6.2831853071796031 $98 $161 forward 7 unknown #
face $-1 $162 $163 $15 $-1 $164 reversed single #
loop $-1 $-1 $165 $62 #
plane-surface $-1 -62.379833368938264 0 0 1 0 0 0 0 -1 forward_v I I I I #
coedge $-1 $166 $111 $167 $168 forward $63 $-1 #
coedge $-1 $169 $65 $166 $170 forward $41 $-1 #
coedge $-1 $65 $169 $171 $172 forward $41 $-1 #
coedge $-1 $114 $113 $65 $107 reversed $115 $-1 #
edge $-1 $173 -33.352564797116429 $174 33.352564797116429 $106 $175 forward 7 unknown #
coedge $-1 $67 $66 $176 $177 forward $26 $-1 #
coedge $-1 $178 $179 $66 $110 reversed $163 $-1 #
edge $-1 $117 -62.379833368938264 $180 62.379833368938264 $109 $181 forward 7 unknown #
coedge $-1 $103 $182 $67 $112 reversed $63 $-1 #
edge $-1 $183 -62.379833368938264 $116 62.379833368938264 $111 $184 forward 7 unknown #
coedge $-1 $106 $68 $182 $185 forward $115 $-1 #
coedge $-1 $68 $106 $178 $186 reversed $115 $-1 #
loop $-1 $-1 $113 $162 #
vertex $-1 $69 $187 #
vertex $-1 $69 $188 #
straight-curve $-1 62.379833368938264 0 13.291048474114419 0 1 0 I I #
face $-1 $189 $190 $16 $-1 $191 forward single #
loop $-1 $-1 $192 $70 #
plane-surface $-1 0 0 -13.291048474114419 0 0 1 1 0 0 forward_v I I I I #
coedge $-1 $193 $194 $127 $195 forward $71 $-1 #
coedge $-1 $196 $73 $192 $197 reversed $45 $-1 #
coedge $-1 $73 $196 $198 $199 reversed $45 $-1 #
coedge $-1 $194 $193 $73 $126 reversed $71 $-1 #
edge $-1 $200 -13.291048474114419 $201 13.291048474114419 $125 $202 forward 7 unknown #
coedge $-1 $75 $74 $122 $195 reversed $29 $-1 #
coedge $-1 $203 $204 $74 $129 forward $120 $-1 #
edge $-1 $205 22.938522922280281 $135 33.940381271865419 $128 $206 forward 7 unknown #
coedge $-1 $207 $208 $75 $131 forward $190 $-1 #
edge $-1 $136 -33.940381271865419 $209 -22.938522922280281 $130 $210 forward 7 unknown #
coedge $-1 $211 $76 $208 $212 reversed $134 $-1 #
coedge $-1 $76 $211 $203 $213 reversed $134 $-1 #
loop $-1 $-1 $211 $189 #
vertex $-1 $213 $214 #
vertex $-1 $77 $215 #
straight-curve $-1 -62.379833368938264 -11.713957462627697 0 0 0 1 I I #
face $-1 $-1 $150 $17 $-1 $216 forward single #
loop $-1 $-1 $217 $78 #
plane-surface $-1 0 33.352564797116429 0 0 -1 0 0 0 -1 forward_v I I I I #
coedge $-1 $218 $219 $220 $221 reversed $79 $-1 #
coedge $-1 $222 $81 $83 $148 forward $49 $-1 #
coedge $-1 $81 $222 $218 $223 forward $49 $-1 #
coedge $-1 $220 $84 $81 $145 forward $150 $-1 #
edge $-1 $152 -29.209049946582553 $224 -15.128800198958615 $144 $225 forward 7 unknown #
coedge $-1 $226 $227 $82 $147 forward $139 $-1 #
edge $-1 $228 -55.715820506545931 $151 -52.426564375540394 $146 $229 forward 7 unknown #
edge $-1 $152 62.86777357488161 $228 66.705129594232872 $83 $230 forward 7 unknown #
coedge $-1 $84 $220 $226 $231 forward $150 $-1 #
loop $-1 $-1 $220 $138 #
vertex $-1 $147 $232 #
vertex $-1 $85 $233 #
straight-curve $-1 -51.377975019353137 52.96839594287583 13.291048474114419 0 -1 0 I I #
coedge $-1 $154 $154 $-1 $234 reversed $88 $-1 #
edge $-1 $235 0 $235 6.2831853071796004 $89 $236 forward 7 unknown #
vertex $-1 $92 $237 #
ellipse-curve $-1 -47.355046520032005 32.364372593659297 11.646420408611647 0 0.85716730853699208 0.51503806187062418 0.5 0 0 1 I I #
coedge $-1 $158 $158 $-1 $238 reversed $95 $-1 #
edge $-1 $239 0 $239 6.2831853071796004 $96 $240 forward 7 unknown #
vertex $-1 $99 $241 #
ellipse-curve $-1 -41.320653771050324 32.364372593659297 11.646420408611647 0 0.85716730853699208 0.51503806187062418 0.5 0 0 1 I I #
face $-1 $-1 $115 $15 $-1 $242 reversed single #
loop $-1 $-1 $178 $100 #
plane-surface $-1 0 33.352564797116429 0 0 -1 0 0 0 -1 forward_v I I I I #
coedge $-1 $243 $176 $179 $244 forward $101 $-1 #
coedge $-1 $182 $103 $104 $170 reversed $63 $-1 #
coedge $-1 $176 $243 $103 $168 reversed $101 $-1 #
edge $-1 $183 -13.291048474114419 $245 13.291048474114419 $167 $246 forward 7 unknown #
coedge $-1 $105 $104 $243 $247 forward $41 $-1 #
edge $-1 $174 -62.379833368938264 $245 62.379833368938264 $166 $248 forward 7 unknown #
coedge $-1 $179 $178 $105 $172 reversed $163 $-1 #
edge $-1 $249 -62.379833368938264 $173 62.379833368938264 $171 $250 forward 7 unknown #
vertex $-1 $107 $251 #
vertex $-1 $185 $252 #
straight-curve $-1 62.379833368938264 0 -13.291048474114419 0 -1 0 I I #
coedge $-1 $165 $167 $108 $177 reversed $101 $-1 #
edge $-1 $180 -33.352564797116429 $183 33.352564797116429 $176 $253 forward 7 unknown #
coedge $-1 $171 $109 $114 $186 forward $163 $-1 #
coedge $-1 $109 $171 $165 $244 reversed $163 $-1 #
vertex $-1 $110 $254 #
straight-curve $-1 0 33.352564797116429 13.291048474114419 -1 0 0 I I #
coedge $-1 $111 $166 $113 $185 reversed $63 $-1 #
vertex $-1 $177 $255 #
straight-curve $-1 0 -33.352564797116429 13.291048474114419 1 0 0 I I #
edge $-1 $116 -13.291048474114419 $174 13.291048474114419 $113 $256 forward 7 unknown #
edge $-1 $117 -13.291048474114419 $173 13.291048474114419 $114 $257 forward 7 unknown #
point $-1 62.379833368938264 -33.352564797116429 13.291048474114419 #
point $-1 62.379833368938264 33.352564797116429 13.291048474114419 #
face $-1 $-1 $134 $16 $-1 $258 reversed single #
loop $-1 $-1 $198 $119 #
plane-surface $-1 0 0 13.291048474114419 0 0 1 1 0 0 forward_v I I I I #
coedge $-1 $204 $203 $123 $197 forward $120 $-1 #
coedge $-1 $125 $122 $204 $259 reversed $71 $-1 #
coedge $-1 $122 $125 $207 $260 reversed $71 $-1 #
edge $-1 $209 -13.291048474114419 $205 13.291048474114419 $122 $261 forward 7 unknown #
coedge $-1 $124 $123 $211 $262 reversed $45 $-1 #
edge $-1 $263 -33.940381271865419 $201 -22.938522922280281 $192 $264 forward 7 unknown #
coedge $-1 $208 $207 $124 $199 forward $190 $-1 #
edge $-1 $200 22.938522922280281 $265 33.940381271865419 $198 $266 forward 7 unknown #
vertex $-1 $199 $267 #
vertex $-1 $197 $268 #
straight-curve $-1 -51.37797501935313 -6.7704678488875913 0 0 0 -1 I I #
coedge $-1 $192 $128 $133 $213 forward $120 $-1 #
coedge $-1 $128 $192 $193 $259 forward $120 $-1 #
vertex $-1 $129 $269 #
straight-curve $-1 -28.439452097072849 -11.713957462627697 -13.291048474114419 -1 0 0 I I #
coedge $-1 $198 $130 $194 $260 forward $190 $-1 #
coedge $-1 $130 $198 $132 $212 forward $190 $-1 #
vertex $-1 $131 $270 #
straight-curve $-1 -28.439452097072849 -11.713957462627697 13.291048474114419 1 0 0 I I #
coedge $-1 $133 $132 $196 $262 forward $134 $-1 #
edge $-1 $265 6.7704678488875913 $136 11.713957462627697 $132 $271 forward 7 unknown #
edge $-1 $135 -11.713957462627697 $263 -6.7704678488875913 $133 $272 forward 7 unknown #
point $-1 -62.379833368938264 -11.713957462627697 -13.291048474114419 #
point $-1 -62.379833368938264 -11.713957462627697 13.291048474114419 #
plane-surface $-1 0 0 13.291048474114419 0 0 1 1 0 0 forward_v I I I I #
coedge $-1 $227 $226 $219 $273 forward $139 $-1 #
coedge $-1 $219 $141 $143 $223 reversed $79 $-1 #
coedge $-1 $141 $218 $217 $273 reversed $79 $-1 #
coedge $-1 $149 $144 $141 $221 forward $150 $-1 #
edge $-1 $224 -21.592215552673643 $274 -19.615831145759401 $220 $275 forward 7 unknown #
coedge $-1 $143 $142 $227 $276 reversed $49 $-1 #
edge $-1 $277 -66.705129594232872 $224 -62.86777357488161 $218 $278 forward 7 unknown #
vertex $-1 $145 $279 #
straight-curve $-1 -22.168925072770584 31.376180390202183 13.291048474114419 1 0 0 I I #
coedge $-1 $217 $146 $149 $231 reversed $139 $-1 #
coedge $-1 $146 $217 $222 $276 forward $139 $-1 #
vertex $-1 $147 $280 #
straight-curve $-1 -51.377975019353137 33.352564797116429 65.717612849654813 0 0 1 I I #
straight-curve $-1 -51.377975019353137 -1.0031158659260768 67.179248743008714 0 0.51503806187062418 -0.85716730853699208 I I #
edge $-1 $274 37.297725271729199 $151 51.377975019353137 $226 $281 forward 7 unknown #
point $-1 -51.377975019353137 33.352564797116429 13.291048474114419 #
point $-1 -51.377975019353137 31.376180390202187 13.291048474114419 #
edge $-1 $282 1 $282 0 $154 $-1 forward 7 unknown #
vertex $-1 $155 $283 #
ellipse-curve $-1 -47.355046520032005 30.696732628086473 10.644401261109877 0 0.85716730853699208 0.51503806187062418 0.5 0 0 1 I I #
point $-1 -46.855046520032005 32.364372593659297 11.646420408611645 #
edge $-1 $284 1 $284 0 $158 $-1 forward 7 unknown #
vertex $-1 $159 $285 #
ellipse-curve $-1 -41.320653771050324 30.696732628086473 10.644401261109877 0 0.85716730853699208 0.51503806187062418 0.5 0 0 1 I I #
point $-1 -40.820653771050324 32.364372593659297 11.646420408611645 #
plane-surface $-1 62.379833368938264 0 0 -1 0 0 0 0 1 forward_v I I I I #
coedge $-1 $167 $165 $169 $247 reversed $101 $-1 #
edge $-1 $180 -13.291048474114419 $249 13.291048474114419 $179 $286 forward 7 unknown #
vertex $-1 $247 $287 #
straight-curve $-1 -62.379833368938264 -33.352564797116429 0 0 0 -1 I I #
edge $-1 $245 -33.352564797116429 $249 33.352564797116429 $243 $288 forward 7 unknown #
straight-curve $-1 0 -33.352564797116429 -13.291048474114419 -1 0 0 I I #
vertex $-1 $172 $289 #
straight-curve $-1 0 33.352564797116429 -13.291048474114419 1 0 0 I I #
point $-1 62.379833368938264 33.352564797116429 -13.291048474114419 #
point $-1 62.379833368938264 -33.352564797116429 -13.291048474114419 #
straight-curve $-1 -62.379833368938264 0 13.291048474114419 0 -1 0 I I #
point $-1 -62.379833368938264 33.352564797116429 13.291048474114419 #
point $-1 -62.379833368938264 -33.352564797116429 13.291048474114419 #
straight-curve $-1 62.379833368938264 -33.352564797116429 0 0 0 -1 I I #
straight-curve $-1 62.379833368938264 33.352564797116429 0 0 0 -1 I I #
plane-surface $-1 -62.379833368938264 0 0 1 0 0 0 0 -1 forward_v I I I I #
edge $-1 $201 2.1493615210087693 $205 7.0928511347488747 $204 $290 forward 7 unknown #
edge $-1 $209 -7.0928511347488747 $200 -2.1493615210087693 $207 $291 forward 7 unknown #
straight-curve $-1 -51.37797501935313 -11.713957462627697 0 0 0 -1 I I #
edge $-1 $265 -13.291048474114419 $263 13.291048474114419 $211 $292 forward 7 unknown #
vertex $-1 $262 $293 #
straight-curve $-1 -28.439452097072849 -6.7704678488875913 -13.291048474114419 1 0 0 I I #
vertex $-1 $212 $294 #
straight-curve $-1 -28.439452097072849 -6.7704678488875913 13.291048474114419 -1 0 0 I I #
point $-1 -51.37797501935313 -6.7704678488875913 13.291048474114419 #
point $-1 -51.37797501935313 -6.7704678488875913 -13.291048474114419 #
point $-1 -51.37797501935313 -11.713957462627697 -13.291048474114419 #
point $-1 -51.37797501935313 -11.713957462627697 13.291048474114419 #
straight-curve $-1 -62.379833368938264 0 13.291048474114419 0 -1 0 I I #
straight-curve $-1 -62.379833368938264 0 -13.291048474114419 0 1 0 I I #
edge $-1 $274 52.426564375540394 $277 55.715820506545931 $217 $295 forward 7 unknown #
vertex $-1 $231 $296 #
straight-curve $-1 -37.297725271729199 52.96839594287583 13.291048474114419 0 1 0 I I #
edge $-1 $277 15.128800198958615 $228 29.209049946582553 $227 $297 forward 7 unknown #
vertex $-1 $276 $298 #
straight-curve $-1 -37.297725271729199 -1.0031158659260768 67.179248743008714 0 -0.51503806187062418 0.85716730853699208 I I #
point $-1 -37.297725271729199 31.376180390202187 13.291048474114419 #
point $-1 -51.377975019353137 33.352564797116429 10.001792343108882 #
straight-curve $-1 0 33.352564797116429 13.291048474114419 -1 0 0 I I #
vertex $-1 $234 $299 #
point $-1 -46.855046520032005 30.696732628086473 10.644401261109877 #
vertex $-1 $238 $300 #
point $-1 -40.820653771050324 30.696732628086473 10.644401261109877 #
straight-curve $-1 -62.379833368938264 33.352564797116429 0 0 0 -1 I I #
point $-1 -62.379833368938264 -33.352564797116429 -13.291048474114419 #
straight-curve $-1 -62.379833368938264 0 -13.291048474114419 0 1 0 I I #
point $-1 -62.379833368938264 33.352564797116429 -13.291048474114419 #
straight-curve $-1 -51.37797501935313 -4.621106327878822 -13.291048474114419 0 -1 0 I I #
straight-curve $-1 -51.37797501935313 -4.621106327878822 13.291048474114419 0 1 0 I I #
straight-curve $-1 -62.379833368938264 -6.7704678488875913 0 0 0 -1 I I #
point $-1 -62.379833368938264 -6.7704678488875913 -13.291048474114419 #
point $-1 -62.379833368938264 -6.7704678488875913 13.291048474114419 #
straight-curve $-1 -37.297725271729199 33.352564797116429 65.717612849654813 0 0 -1 I I #
point $-1 -37.297725271729199 33.352564797116429 13.291048474114419 #
straight-curve $-1 -22.168925072770584 33.352564797116429 10.001792343108875 -1 0 0 I I #
point $-1 -37.297725271729199 33.352564797116429 10.001792343108882 #
point $-1 -47.355046520032005 30.268148973817979 10.386882230174564 #
point $-1 -41.320653771050324 30.268148973817979 10.386882230174564 #
End-of-ACIS-data 