500 0 12 0           
7 Unknown 11 ACIS 5.0 NT 24 Fri Mar 26 14:23:00 1999 
-1 9.9999999999999995e-007 1e-010 
body $-1 $12 $-1 $13 #
body $-1 $14 $-1 $15 #
body $-1 $16 $-1 $17 #
body $-1 $18 $-1 $19 #
body $-1 $20 $-1 $21 #
body $-1 $22 $-1 $23 #
body $-1 $24 $-1 $25 #
body $-1 $26 $-1 $27 #
body $-1 $28 $-1 $29 #
body $-1 $30 $-1 $31 #
body $-1 $32 $-1 $33 #
body $-1 $34 $-1 $35 #
lump $-1 $-1 $36 $0 #
transform $-1 1 0 0 0 1 0 0 0 1 51.858272041993473 31.644513621181403 6.36714616243321 1 rotate no_reflect no_shear #
lump $-1 $-1 $37 $1 #
transform $-1 1 0 0 0 1 0 0 0 1 51.858272041993473 31.644513621181403 6.36714616243321 1 rotate no_reflect no_shear #
lump $-1 $-1 $38 $2 #
transform $-1 1 0 0 0 1 0 0 0 1 51.858272041993473 31.644513621181403 6.36714616243321 1 rotate no_reflect no_shear #
lump $-1 $-1 $39 $3 #
transform $-1 1 0 0 0 1 0 0 0 1 51.858272041993473 31.644513621181403 6.36714616243321 1 rotate no_reflect no_shear #
lump $-1 $-1 $40 $4 #
transform $-1 1 0 0 0 1 0 0 0 1 51.858272041993473 31.644513621181403 6.36714616243321 1 rotate no_reflect no_shear #
lump $-1 $-1 $41 $5 #
transform $-1 1 0 0 0 1 0 0 0 1 51.858272041993473 31.644513621181403 6.36714616243321 1 rotate no_reflect no_shear #
lump $-1 $-1 $42 $6 #
transform $-1 1 0 0 0 1 0 0 0 1 51.858272041993473 31.644513621181403 6.36714616243321 1 rotate no_reflect no_shear #
lump $-1 $-1 $43 $7 #
transform $-1 1 0 0 0 1 0 0 0 1 51.858272041993473 31.644513621181403 6.36714616243321 1 rotate no_reflect no_shear #
lump $-1 $-1 $44 $8 #
transform $-1 1 0 0 0 1 0 0 0 1 51.858272041993473 31.644513621181403 6.36714616243321 1 rotate no_reflect no_shear #
lump $-1 $-1 $45 $9 #
transform $-1 1 0 0 0 1 0 0 0 1 51.858272041993473 31.644513621181403 6.36714616243321 1 rotate no_reflect no_shear #
lump $-1 $-1 $46 $10 #
transform $-1 1 0 0 0 1 0 0 0 1 51.858272041993473 31.644513621181403 6.36714616243321 1 rotate no_reflect no_shear #
lump $-1 $-1 $47 $11 #
transform $-1 1 0 0 0 1 0 0 0 1 51.858272041993473 31.644513621181403 6.36714616243321 1 rotate no_reflect no_shear #
shell $-1 $-1 $-1 $48 $-1 $12 #
shell $-1 $-1 $-1 $49 $-1 $14 #
shell $-1 $-1 $-1 $50 $-1 $16 #
shell $-1 $-1 $-1 $51 $-1 $18 #
shell $-1 $-1 $-1 $52 $-1 $20 #
shell $-1 $-1 $-1 $53 $-1 $22 #
shell $-1 $-1 $-1 $54 $-1 $24 #
shell $-1 $-1 $-1 $55 $-1 $26 #
shell $-1 $-1 $-1 $56 $-1 $28 #
shell $-1 $-1 $-1 $57 $-1 $30 #
shell $-1 $-1 $-1 $58 $-1 $32 #
shell $-1 $-1 $-1 $59 $-1 $34 #
face $-1 $60 $61 $36 $-1 $62 forward single #
face $-1 $63 $64 $37 $-1 $65 reversed single #
face $-1 $66 $67 $38 $-1 $68 reversed single #
face $-1 $69 $70 $39 $-1 $71 forward single #
face $-1 $72 $73 $40 $-1 $74 reversed single #
face $-1 $75 $76 $41 $-1 $77 forward single #
face $-1 $78 $79 $42 $-1 $80 forward single #
face $-1 $81 $82 $43 $-1 $83 forward single #
face $-1 $84 $85 $44 $-1 $86 reversed single #
face $-1 $87 $88 $45 $-1 $89 forward single #
face $-1 $90 $91 $46 $-1 $92 forward single #
face $-1 $93 $94 $47 $-1 $95 forward single #
face $-1 $96 $97 $36 $-1 $98 reversed single #
loop $-1 $-1 $99 $48 #
plane-surface $-1 0 0 6.36714616243321 0 0 1 1 0 0 forward_v I I I I #
face $-1 $100 $101 $37 $-1 $102 reversed single #
loop $-1 $-1 $103 $49 #
plane-surface $-1 -47.815624876269879 -25.684870128364079 0 0 1 0 0 0 1 forward_v I I I I #
face $-1 $104 $105 $38 $-1 $106 reversed single #
loop $-1 $-1 $107 $50 #
plane-surface $-1 31.277540801667627 87.950686635827111 108.98022111414443 1 0 0 0 -0.85716730853699208 -0.51503806187062418 forward_v I I I I #
face $-1 $108 $109 $39 $-1 $110 forward single #
loop $-1 $111 $112 $51 #
cone-surface $-1 39.769421835710332 29.252450707024966 3.3151244782148743 0 -0.85716730853699208 -0.51503806187062418 1 0 0 1 I I 0 1 1 forward I I I I #
face $-1 $113 $114 $40 $-1 $115 reversed single #
loop $-1 $-1 $116 $52 #
plane-surface $-1 0.13368379939997865 -117.62942639977899 59.688371863865562 -1 0 0 0 -0.82903758062907751 0.55919289150049634 forward_v I I I I #
face $-1 $117 $118 $41 $-1 $119 forward single #
loop $-1 $120 $121 $53 #
cone-surface $-1 -10.685982155145915 -28.475058790232133 2.9549329145508372 0 0.82903758062907751 -0.55919289150049634 1 0 0 1 I I 0 1 1 forward I I I I #
face $-1 $122 $123 $42 $-1 $124 forward single #
loop $-1 $125 $126 $54 #
cone-surface $-1 -6.6286074221912017 -28.475058790232133 2.9549329145508372 0 0.82903758062907751 -0.55919289150049634 1 0 0 1 I I 0 1 1 forward I I I I #
face $-1 $127 $128 $43 $-1 $129 forward single #
loop $-1 $130 $131 $55 #
cone-surface $-1 -2.5712326892364885 -28.475058790232133 2.9549329145508372 0 0.82903758062907751 -0.55919289150049634 1 0 0 1 I I 0 1 1 forward I I I I #
face $-1 $132 $133 $44 $-1 $134 reversed single #
loop $-1 $-1 $135 $56 #
plane-surface $-1 21.476192975229583 -117.62942639977899 59.688371863865562 -1 0 0 0 -0.82903758062907751 0.55919289150049634 forward_v I I I I #
face $-1 $136 $137 $45 $-1 $138 forward single #
loop $-1 $139 $140 $57 #
cone-surface $-1 10.656527020683683 -28.475058790232133 2.9549329145508372 0 0.82903758062907751 -0.55919289150049634 1 0 0 1 I I 0 1 1 forward I I I I #
face $-1 $141 $142 $46 $-1 $143 forward single #
loop $-1 $144 $145 $58 #
cone-surface $-1 14.713901753638396 -28.475058790232133 2.9549329145508372 0 0.82903758062907751 -0.55919289150049634 1 0 0 1 I I 0 1 1 forward I I I I #
face $-1 $146 $147 $47 $-1 $148 forward single #
loop $-1 $149 $150 $59 #
cone-surface $-1 18.771276486593109 -28.475058790232133 2.9549329145508372 0 0.82903758062907751 -0.55919289150049634 1 0 0 1 I I 0 1 1 forward I I I I #
face $-1 $151 $152 $36 $-1 $153 reversed single #
loop $-1 $-1 $154 $60 #
plane-surface $-1 0 0 -6.36714616243321 0 0 1 1 0 0 forward_v I I I I #
coedge $-1 $155 $156 $157 $158 forward $61 $-1 #
face $-1 $159 $160 $37 $-1 $161 reversed single #
loop $-1 $-1 $162 $63 #
plane-surface $-1 -47.815624876269879 -22.684870128364079 0 0 -1 0 0 0 -1 forward_v I I I I #
coedge $-1 $163 $164 $165 $166 reversed $64 $-1 #
face $-1 $167 $168 $38 $-1 $169 reversed single #
loop $-1 $-1 $170 $66 #
plane-surface $-1 39.769421835710332 -0.95174430740226512 55.562253265208639 0 0.85716730853699208 0.51503806187062418 1 0 0 forward_v I I I I #
coedge $-1 $171 $172 $173 $174 reversed $67 $-1 #
face $-1 $-1 $175 $39 $-1 $176 forward single #
loop $-1 $177 $178 $69 #
cone-surface $-1 39.769421835710332 27.95023235871809 2.532672782303754 0 -0.85716730853699208 -0.51503806187062418 0.5 0 0 1 I I -0.70710678118654746 0.70710678118654746 0.5 forward I I I I #
loop $-1 $-1 $179 $51 #
coedge $-1 $112 $112 $180 $181 reversed $70 $-1 #
face $-1 $182 $183 $40 $-1 $184 reversed single #
loop $-1 $-1 $185 $72 #
plane-surface $-1 -6.6286074221912088 -31.644513621181389 1.6908176811022031 0 -0.82903758062907751 0.55919289150049634 1 0 0 forward_v I I I I #
coedge $-1 $186 $187 $188 $189 reversed $73 $-1 #
face $-1 $-1 $190 $41 $-1 $191 forward single #
loop $-1 $192 $193 $75 #
cone-surface $-1 -10.685982155145915 -26.468196813953924 1.6012874615837172 0 0.82903758062907751 -0.55919289150049634 0.5 0 0 1 I I -0.70710678118654746 0.70710678118654746 0.5 forward I I I I #
loop $-1 $-1 $194 $53 #
coedge $-1 $121 $121 $195 $196 reversed $76 $-1 #
face $-1 $-1 $197 $42 $-1 $198 forward single #
loop $-1 $199 $200 $78 #
cone-surface $-1 -6.6286074221912017 -26.468196813953924 1.6012874615837172 0 0.82903758062907751 -0.55919289150049634 0.5 0 0 1 I I -0.70710678118654746 0.70710678118654746 0.5 forward I I I I #
loop $-1 $-1 $201 $54 #
coedge $-1 $126 $126 $202 $203 reversed $79 $-1 #
face $-1 $-1 $204 $43 $-1 $205 forward single #
loop $-1 $206 $207 $81 #
cone-surface $-1 -2.5712326892364885 -26.468196813953924 1.6012874615837172 0 0.82903758062907751 -0.55919289150049634 0.5 0 0 1 I I -0.70710678118654746 0.70710678118654746 0.5 forward I I I I #
loop $-1 $-1 $208 $55 #
coedge $-1 $131 $131 $209 $210 reversed $82 $-1 #
face $-1 $211 $212 $44 $-1 $213 reversed single #
loop $-1 $-1 $214 $84 #
plane-surface $-1 14.713901753638396 -31.644513621181389 1.6908176811022031 0 -0.82903758062907751 0.55919289150049634 1 0 0 forward_v I I I I #
coedge $-1 $215 $216 $217 $218 reversed $85 $-1 #
face $-1 $-1 $219 $45 $-1 $220 forward single #
loop $-1 $221 $222 $87 #
cone-surface $-1 10.656527020683683 -26.468196813953924 1.6012874615837172 0 0.82903758062907751 -0.55919289150049634 0.5 0 0 1 I I -0.70710678118654746 0.70710678118654746 0.5 forward I I I I #
loop $-1 $-1 $223 $57 #
coedge $-1 $140 $140 $224 $225 reversed $88 $-1 #
face $-1 $-1 $226 $46 $-1 $227 forward single #
loop $-1 $228 $229 $90 #
cone-surface $-1 14.713901753638396 -26.468196813953924 1.6012874615837172 0 0.82903758062907751 -0.55919289150049634 0.5 0 0 1 I I -0.70710678118654746 0.70710678118654746 0.5 forward I I I I #
loop $-1 $-1 $230 $58 #
coedge $-1 $145 $145 $231 $232 reversed $91 $-1 #
face $-1 $-1 $233 $47 $-1 $234 forward single #
loop $-1 $235 $236 $93 #
cone-surface $-1 18.771276486593109 -26.468196813953924 1.6012874615837172 0 0.82903758062907751 -0.55919289150049634 0.5 0 0 1 I I -0.70710678118654746 0.70710678118654746 0.5 forward I I I I #
loop $-1 $-1 $237 $59 #
coedge $-1 $150 $150 $238 $239 reversed $94 $-1 #
face $-1 $240 $241 $36 $-1 $242 reversed single #
loop $-1 $-1 $243 $96 #
plane-surface $-1 0 -31.644513621181403 0 0 1 0 0 0 1 forward_v I I I I #
coedge $-1 $244 $245 $246 $247 forward $97 $-1 #
coedge $-1 $248 $99 $249 $250 forward $61 $-1 #
coedge $-1 $99 $248 $251 $252 forward $61 $-1 #
coedge $-1 $253 $254 $99 $158 reversed $255 $-1 #
edge $-1 $256 -31.644513621181403 $257 31.644513621181403 $157 $258 forward 7 unknown #
face $-1 $259 $260 $37 $-1 $261 reversed single #
loop $-1 $-1 $262 $100 #
plane-surface $-1 -43.772977710546286 -24.184870128364079 0 -1 0 0 0 0 1 forward_v I I I I #
coedge $-1 $263 $264 $265 $266 forward $101 $-1 #
coedge $-1 $267 $103 $268 $269 reversed $64 $-1 #
coedge $-1 $103 $267 $270 $271 reversed $64 $-1 #
coedge $-1 $272 $273 $103 $166 forward $274 $-1 #
edge $-1 $275 -6.36714616243321 $276 6.36714616243321 $165 $277 forward 7 unknown #
face $-1 $278 $279 $38 $-1 $280 reversed single #
loop $-1 $-1 $281 $104 #
plane-surface $-1 48.261302869753038 87.950686635827111 108.98022111414443 -1 0 0 0 0.85716730853699208 0.51503806187062418 forward_v I I I I #
coedge $-1 $282 $283 $284 $285 reversed $105 $-1 #
coedge $-1 $172 $107 $286 $287 reversed $67 $-1 #
coedge $-1 $107 $171 $282 $288 reversed $67 $-1 #
coedge $-1 $284 $289 $107 $174 forward $290 $-1 #
edge $-1 $291 12.330829696732152 $292 15.36768613696826 $173 $293 forward 7 unknown #
loop $-1 $-1 $180 $108 #
plane-surface $-1 39.769421835710332 -0.95174430740226512 55.562253265208639 0 0.85716730853699208 0.51503806187062418 1 0 0 forward_v I I I I #
loop $-1 $-1 $294 $69 #
coedge $-1 $178 $178 $179 $295 reversed $109 $-1 #
coedge $-1 $179 $179 $178 $295 forward $111 $-1 #
coedge $-1 $180 $180 $112 $181 forward $175 $-1 #
edge $-1 $296 3.0714775648067455e-016 $296 6.2831853071796004 $180 $297 forward 7 unknown #
face $-1 $298 $299 $40 $-1 $300 forward single #
loop $-1 $-1 $301 $113 #
plane-surface $-1 -13.390898643782396 -117.62942639977899 59.688371863865562 1 0 0 0 0.82903758062907751 -0.55919289150049634 forward_v I I I I #
coedge $-1 $302 $303 $304 $305 reversed $114 $-1 #
coedge $-1 $187 $116 $306 $307 reversed $73 $-1 #
coedge $-1 $116 $186 $302 $308 reversed $73 $-1 #
coedge $-1 $304 $309 $116 $189 forward $299 $-1 #
edge $-1 $310 27.170199578708093 $311 30.324422868679306 $188 $312 forward 7 unknown #
loop $-1 $-1 $195 $117 #
plane-surface $-1 -6.6286074221912088 -31.644513621181389 1.6908176811022031 0 -0.82903758062907751 0.55919289150049634 1 0 0 forward_v I I I I #
loop $-1 $-1 $313 $75 #
coedge $-1 $193 $193 $194 $314 reversed $118 $-1 #
coedge $-1 $194 $194 $193 $314 forward $120 $-1 #
coedge $-1 $195 $195 $121 $196 forward $190 $-1 #
edge $-1 $315 -8.056236865194092e-016 $315 6.2831853071795996 $195 $316 forward 7 unknown #
loop $-1 $-1 $202 $122 #
plane-surface $-1 -6.6286074221912088 -31.644513621181389 1.6908176811022031 0 -0.82903758062907751 0.55919289150049634 1 0 0 forward_v I I I I #
loop $-1 $-1 $317 $78 #
coedge $-1 $200 $200 $201 $318 reversed $123 $-1 #
coedge $-1 $201 $201 $200 $318 forward $125 $-1 #
coedge $-1 $202 $202 $126 $203 forward $197 $-1 #
edge $-1 $319 -8.056236865194092e-016 $319 6.2831853071795996 $202 $320 forward 7 unknown #
loop $-1 $-1 $209 $127 #
plane-surface $-1 -6.6286074221912088 -31.644513621181389 1.6908176811022031 0 -0.82903758062907751 0.55919289150049634 1 0 0 forward_v I I I I #
loop $-1 $-1 $321 $81 #
coedge $-1 $207 $207 $208 $322 reversed $128 $-1 #
coedge $-1 $208 $208 $207 $322 forward $130 $-1 #
coedge $-1 $209 $209 $131 $210 forward $204 $-1 #
edge $-1 $323 -8.056236865194092e-016 $323 6.2831853071795996 $209 $324 forward 7 unknown #
face $-1 $325 $326 $44 $-1 $327 reversed single #
loop $-1 $-1 $328 $132 #
plane-surface $-1 7.9516105320472086 -117.62942639977899 59.688371863865562 1 0 0 0 0.82903758062907751 -0.55919289150049634 forward_v I I I I #
coedge $-1 $329 $330 $331 $332 reversed $133 $-1 #
coedge $-1 $216 $135 $333 $334 reversed $85 $-1 #
coedge $-1 $135 $215 $329 $335 reversed $85 $-1 #
coedge $-1 $331 $336 $135 $218 forward $337 $-1 #
edge $-1 $338 27.170199578708093 $339 30.324422868679306 $217 $340 forward 7 unknown #
loop $-1 $-1 $224 $136 #
plane-surface $-1 14.713901753638396 -31.644513621181389 1.6908176811022031 0 -0.82903758062907751 0.55919289150049634 1 0 0 forward_v I I I I #
loop $-1 $-1 $341 $87 #
coedge $-1 $222 $222 $223 $342 reversed $137 $-1 #
coedge $-1 $223 $223 $222 $342 forward $139 $-1 #
coedge $-1 $224 $224 $140 $225 forward $219 $-1 #
edge $-1 $343 -8.056236865194092e-016 $343 6.2831853071795996 $224 $344 forward 7 unknown #
loop $-1 $-1 $231 $141 #
plane-surface $-1 14.713901753638396 -31.644513621181389 1.6908176811022031 0 -0.82903758062907751 0.55919289150049634 1 0 0 forward_v I I I I #
loop $-1 $-1 $345 $90 #
coedge $-1 $229 $229 $230 $346 reversed $142 $-1 #
coedge $-1 $230 $230 $229 $346 forward $144 $-1 #
coedge $-1 $231 $231 $145 $232 forward $226 $-1 #
edge $-1 $347 -8.056236865194092e-016 $347 6.2831853071795996 $231 $348 forward 7 unknown #
loop $-1 $-1 $238 $146 #
plane-surface $-1 14.713901753638396 -31.644513621181389 1.6908176811022031 0 -0.82903758062907751 0.55919289150049634 1 0 0 forward_v I I I I #
loop $-1 $-1 $349 $93 #
coedge $-1 $236 $236 $237 $350 reversed $147 $-1 #
coedge $-1 $237 $237 $236 $350 forward $149 $-1 #
coedge $-1 $238 $238 $150 $239 forward $233 $-1 #
edge $-1 $351 -8.056236865194092e-016 $351 6.2831853071795996 $238 $352 forward 7 unknown #
face $-1 $353 $354 $36 $-1 $355 reversed single #
loop $-1 $-1 $356 $151 #
plane-surface $-1 -51.858272041993473 0 0 1 0 0 0 0 -1 forward_v I I I I #
coedge $-1 $357 $251 $358 $359 forward $152 $-1 #
coedge $-1 $360 $154 $357 $361 forward $97 $-1 #
coedge $-1 $154 $360 $362 $363 forward $97 $-1 #
coedge $-1 $254 $253 $154 $247 reversed $255 $-1 #
edge $-1 $364 -31.644513621181403 $365 31.644513621181403 $246 $366 forward 7 unknown #
coedge $-1 $156 $155 $367 $368 forward $61 $-1 #
coedge $-1 $369 $370 $155 $250 reversed $354 $-1 #
edge $-1 $257 -51.858272041993473 $371 51.858272041993473 $249 $372 forward 7 unknown #
coedge $-1 $243 $373 $156 $252 reversed $152 $-1 #
edge $-1 $374 -51.858272041993473 $256 51.858272041993473 $251 $375 forward 7 unknown #
coedge $-1 $246 $157 $373 $376 forward $255 $-1 #
coedge $-1 $157 $246 $369 $377 reversed $255 $-1 #
loop $-1 $-1 $253 $353 #
vertex $-1 $158 $378 #
vertex $-1 $158 $379 #
straight-curve $-1 51.858272041993473 0 6.36714616243321 0 1 0 I I #
face $-1 $380 $381 $37 $-1 $382 forward single #
loop $-1 $-1 $383 $159 #
plane-surface $-1 0 0 -6.36714616243321 0 0 1 1 0 0 forward_v I I I I #
coedge $-1 $384 $385 $267 $386 forward $160 $-1 #
coedge $-1 $387 $162 $383 $388 reversed $101 $-1 #
coedge $-1 $162 $387 $389 $390 reversed $101 $-1 #
coedge $-1 $385 $384 $162 $266 reversed $160 $-1 #
edge $-1 $391 -6.36714616243321 $392 6.36714616243321 $265 $393 forward 7 unknown #
coedge $-1 $164 $163 $262 $386 reversed $64 $-1 #
coedge $-1 $394 $395 $163 $269 forward $260 $-1 #
edge $-1 $396 19.865165272411346 $275 27.950459603858533 $268 $397 forward 7 unknown #
coedge $-1 $398 $399 $164 $271 forward $381 $-1 #
edge $-1 $276 -27.950459603858533 $400 -19.865165272411346 $270 $401 forward 7 unknown #
coedge $-1 $402 $165 $399 $403 reversed $274 $-1 #
coedge $-1 $165 $402 $394 $404 reversed $274 $-1 #
loop $-1 $-1 $402 $380 #
vertex $-1 $404 $405 #
vertex $-1 $166 $406 #
straight-curve $-1 -51.858272041993473 -25.684870128364079 0 0 0 1 I I #
face $-1 $-1 $290 $38 $-1 $407 forward single #
loop $-1 $-1 $408 $167 #
plane-surface $-1 0 31.644513621181403 0 0 -1 0 0 0 -1 forward_v I I I I #
coedge $-1 $409 $410 $411 $412 reversed $168 $-1 #
coedge $-1 $413 $170 $172 $288 forward $105 $-1 #
coedge $-1 $170 $413 $409 $414 forward $105 $-1 #
coedge $-1 $411 $173 $170 $285 forward $290 $-1 #
edge $-1 $292 11.39282988381246 $415 28.376591951897872 $284 $416 forward 7 unknown #
coedge $-1 $417 $418 $171 $287 forward $279 $-1 #
edge $-1 $419 -53.177142433124061 $291 -48.122964394639006 $286 $420 forward 7 unknown #
edge $-1 $292 57.392654401089267 $419 63.289027242362799 $172 $421 forward 7 unknown #
coedge $-1 $173 $411 $417 $422 forward $290 $-1 #
loop $-1 $-1 $411 $278 #
vertex $-1 $287 $423 #
vertex $-1 $174 $424 #
straight-curve $-1 31.277540801667627 43.975343317913556 6.3671461624332082 0 -1 0 I I #
coedge $-1 $294 $294 $-1 $425 reversed $177 $-1 #
edge $-1 $426 0 $426 6.2831853071796004 $178 $427 forward 7 unknown #
vertex $-1 $181 $428 #
ellipse-curve $-1 39.769421835710332 30.126085401063346 3.8400571431906805 0 0.85716730853699208 0.51503806187062418 1 0 0 1 I I #
face $-1 $-1 $429 $40 $-1 $430 reversed single #
loop $-1 $-1 $188 $182 #
plane-surface $-1 0 0 6.36714616243321 0 0 1 1 0 0 forward_v I I I I #
coedge $-1 $431 $432 $433 $434 reversed $183 $-1 #
coedge $-1 $435 $185 $187 $308 forward $114 $-1 #
coedge $-1 $185 $435 $431 $436 forward $114 $-1 #
coedge $-1 $433 $188 $185 $305 forward $299 $-1 #
edge $-1 $311 -3.4479875104955831 $437 10.076594932686792 $304 $438 forward 7 unknown #
coedge $-1 $439 $440 $186 $307 forward $429 $-1 #
edge $-1 $441 -28.153368250830599 $310 -23.477039769499569 $306 $442 forward 7 unknown #
edge $-1 $311 -5.6406712923467097 $441 2.5434524534472062e-014 $187 $443 forward 7 unknown #
coedge $-1 $188 $433 $439 $444 forward $299 $-1 #
vertex $-1 $307 $445 #
vertex $-1 $189 $446 #
straight-curve $-1 0.13368379939997865 -58.814713199889496 6.3671461624332082 0 1 0 I I #
coedge $-1 $313 $313 $-1 $447 reversed $192 $-1 #
edge $-1 $448 0 $448 6.2831853071796004 $193 $449 forward 7 unknown #
vertex $-1 $196 $450 #
ellipse-curve $-1 -10.685982155145915 -30.067401976195793 4.0289819217677021 0 -0.82903758062907751 0.55919289150049634 1 0 0 1 I I #
coedge $-1 $317 $317 $-1 $451 reversed $199 $-1 #
edge $-1 $452 0 $452 6.2831853071796004 $200 $453 forward 7 unknown #
vertex $-1 $203 $454 #
ellipse-curve $-1 -6.6286074221912017 -30.067401976195793 4.0289819217677021 0 -0.82903758062907751 0.55919289150049634 1 0 0 1 I I #
coedge $-1 $321 $321 $-1 $455 reversed $206 $-1 #
edge $-1 $456 0 $456 6.2831853071796004 $207 $457 forward 7 unknown #
vertex $-1 $210 $458 #
ellipse-curve $-1 -2.5712326892364885 -30.067401976195793 4.0289819217677021 0 -0.82903758062907751 0.55919289150049634 1 0 0 1 I I #
face $-1 $-1 $337 $44 $-1 $459 forward single #
loop $-1 $-1 $460 $211 #
plane-surface $-1 0 -31.644513621181403 0 0 1 0 0 0 1 forward_v I I I I #
coedge $-1 $461 $462 $463 $464 reversed $212 $-1 #
coedge $-1 $465 $214 $216 $335 forward $133 $-1 #
coedge $-1 $214 $465 $461 $466 forward $133 $-1 #
coedge $-1 $463 $217 $214 $332 forward $337 $-1 #
edge $-1 $339 -14.119242098410385 $467 -0.59465965522801056 $331 $468 forward 7 unknown #
coedge $-1 $469 $470 $215 $334 forward $326 $-1 #
edge $-1 $471 -28.153368250830599 $338 -23.477039769499569 $333 $472 forward 7 unknown #
edge $-1 $339 -5.6406712923467097 $471 2.5434524534472062e-014 $216 $473 forward 7 unknown #
coedge $-1 $217 $463 $469 $474 forward $337 $-1 #
loop $-1 $-1 $463 $325 #
vertex $-1 $334 $475 #
vertex $-1 $218 $476 #
straight-curve $-1 21.476192975229583 -58.814713199889496 6.3671461624332082 0 1 0 I I #
coedge $-1 $341 $341 $-1 $477 reversed $221 $-1 #
edge $-1 $478 0 $478 6.2831853071796004 $222 $479 forward 7 unknown #
vertex $-1 $225 $480 #
ellipse-curve $-1 10.656527020683683 -30.067401976195793 4.0289819217677021 0 -0.82903758062907751 0.55919289150049634 1 0 0 1 I I #
coedge $-1 $345 $345 $-1 $481 reversed $228 $-1 #
edge $-1 $482 0 $482 6.2831853071796004 $229 $483 forward 7 unknown #
vertex $-1 $232 $484 #
ellipse-curve $-1 14.713901753638396 -30.067401976195793 4.0289819217677021 0 -0.82903758062907751 0.55919289150049634 1 0 0 1 I I #
coedge $-1 $349 $349 $-1 $485 reversed $235 $-1 #
edge $-1 $486 0 $486 6.2831853071796004 $236 $487 forward 7 unknown #
vertex $-1 $239 $488 #
ellipse-curve $-1 18.771276486593109 -30.067401976195793 4.0289819217677021 0 -0.82903758062907751 0.55919289150049634 1 0 0 1 I I #
face $-1 $-1 $255 $36 $-1 $489 reversed single #
loop $-1 $-1 $369 $240 #
plane-surface $-1 0 31.644513621181403 0 0 -1 0 0 0 -1 forward_v I I I I #
coedge $-1 $490 $367 $370 $491 forward $241 $-1 #
coedge $-1 $373 $243 $244 $361 reversed $152 $-1 #
coedge $-1 $367 $490 $243 $359 reversed $241 $-1 #
edge $-1 $374 -6.36714616243321 $492 6.36714616243321 $358 $493 forward 7 unknown #
coedge $-1 $245 $244 $490 $494 forward $97 $-1 #
edge $-1 $365 -51.858272041993473 $492 51.858272041993473 $357 $495 forward 7 unknown #
coedge $-1 $370 $369 $245 $363 reversed $354 $-1 #
edge $-1 $496 -51.858272041993473 $364 51.858272041993473 $362 $497 forward 7 unknown #
vertex $-1 $247 $498 #
vertex $-1 $376 $499 #
straight-curve $-1 51.858272041993473 0 -6.36714616243321 0 -1 0 I I #
coedge $-1 $356 $358 $248 $368 reversed $241 $-1 #
edge $-1 $371 -31.644513621181403 $374 31.644513621181403 $367 $500 forward 7 unknown #
coedge $-1 $362 $249 $254 $377 forward $354 $-1 #
coedge $-1 $249 $362 $356 $491 reversed $354 $-1 #
vertex $-1 $250 $501 #
straight-curve $-1 0 31.644513621181403 6.36714616243321 -1 0 0 I I #
coedge $-1 $251 $357 $253 $376 reversed $152 $-1 #
vertex $-1 $368 $502 #
straight-curve $-1 0 -31.644513621181403 6.36714616243321 1 0 0 I I #
edge $-1 $256 -6.36714616243321 $365 6.36714616243321 $253 $503 forward 7 unknown #
edge $-1 $257 -6.36714616243321 $364 6.36714616243321 $254 $504 forward 7 unknown #
point $-1 51.858272041993473 -31.644513621181403 6.36714616243321 #
point $-1 51.858272041993473 31.644513621181403 6.36714616243321 #
face $-1 $-1 $274 $37 $-1 $505 reversed single #
loop $-1 $-1 $389 $259 #
plane-surface $-1 0 0 6.36714616243321 0 0 1 1 0 0 forward_v I I I I #
coedge $-1 $395 $394 $263 $388 forward $260 $-1 #
coedge $-1 $265 $262 $395 $506 reversed $160 $-1 #
coedge $-1 $262 $265 $398 $507 reversed $160 $-1 #
edge $-1 $400 -6.36714616243321 $396 6.36714616243321 $262 $508 forward 7 unknown #
coedge $-1 $264 $263 $402 $509 reversed $101 $-1 #
edge $-1 $510 -27.950459603858533 $392 -19.865165272411346 $383 $511 forward 7 unknown #
coedge $-1 $399 $398 $264 $390 forward $381 $-1 #
edge $-1 $391 19.865165272411346 $512 27.950459603858533 $389 $513 forward 7 unknown #
vertex $-1 $390 $514 #
vertex $-1 $388 $515 #
straight-curve $-1 -43.772977710546286 -22.684870128364079 0 0 0 -1 I I #
coedge $-1 $383 $268 $273 $404 forward $260 $-1 #
coedge $-1 $268 $383 $384 $506 forward $260 $-1 #
vertex $-1 $269 $516 #
straight-curve $-1 -23.90781243813494 -25.684870128364079 -6.36714616243321 -1 0 0 I I #
coedge $-1 $389 $270 $385 $507 forward $381 $-1 #
coedge $-1 $270 $389 $272 $403 forward $381 $-1 #
vertex $-1 $271 $517 #
straight-curve $-1 -23.90781243813494 -25.684870128364079 6.36714616243321 1 0 0 I I #
coedge $-1 $273 $272 $387 $509 forward $274 $-1 #
edge $-1 $512 22.684870128364079 $276 25.684870128364079 $272 $518 forward 7 unknown #
edge $-1 $275 -25.684870128364079 $510 -22.684870128364079 $273 $519 forward 7 unknown #
point $-1 -51.858272041993473 -25.684870128364079 -6.36714616243321 #
point $-1 -51.858272041993473 -25.684870128364079 6.36714616243321 #
plane-surface $-1 0 0 6.36714616243321 0 0 1 1 0 0 forward_v I I I I #
coedge $-1 $418 $417 $410 $520 forward $279 $-1 #
coedge $-1 $410 $281 $283 $414 reversed $168 $-1 #
coedge $-1 $281 $409 $408 $520 reversed $168 $-1 #
coedge $-1 $289 $284 $281 $412 forward $290 $-1 #
edge $-1 $415 -15.36768613696826 $521 -12.330829696732152 $411 $522 forward 7 unknown #
coedge $-1 $283 $282 $418 $523 reversed $105 $-1 #
edge $-1 $524 -63.289027242362799 $415 -57.392654401089267 $409 $525 forward 7 unknown #
vertex $-1 $285 $526 #
straight-curve $-1 19.884710917855166 28.607657180945289 6.3671461624332082 1 0 0 I I #
coedge $-1 $408 $286 $289 $422 reversed $279 $-1 #
coedge $-1 $286 $408 $413 $523 forward $279 $-1 #
vertex $-1 $287 $527 #
straight-curve $-1 31.277540801667627 31.644513621181403 54.490110557072214 0 0 1 I I #
straight-curve $-1 31.277540801667627 -0.95174430740226512 55.562253265208639 0 0.51503806187062418 -0.85716730853699208 I I #
edge $-1 $521 -48.261302869753038 $291 -31.277540801667627 $417 $528 forward 7 unknown #
point $-1 31.277540801667627 31.644513621181403 6.36714616243321 #
point $-1 31.277540801667627 28.607657180945296 6.3671461624332082 #
edge $-1 $529 1 $529 0 $294 $-1 forward 7 unknown #
vertex $-1 $295 $530 #
ellipse-curve $-1 39.769421835710332 28.378816012986587 2.790191813239066 0 0.85716730853699208 0.51503806187062418 1 0 0 1 I I #
point $-1 40.769421835710332 30.126085401063349 3.8400571431906823 #
loop $-1 $-1 $306 $298 #
plane-surface $-1 0 -31.644513621181403 0 0 1 0 0 0 1 forward_v I I I I #
coedge $-1 $432 $301 $303 $436 reversed $183 $-1 #
coedge $-1 $301 $431 $531 $532 reversed $183 $-1 #
coedge $-1 $309 $304 $301 $434 forward $299 $-1 #
edge $-1 $437 -30.324422868679306 $533 -27.170199578708093 $433 $534 forward 7 unknown #
coedge $-1 $303 $302 $440 $535 reversed $114 $-1 #
edge $-1 $536 -2.5434524534472062e-014 $437 5.6406712923467097 $431 $537 forward 7 unknown #
vertex $-1 $305 $538 #
straight-curve $-1 -3.3143037110956044 -28.49029033121019 6.3671461624332091 -1 0 0 I I #
coedge $-1 $531 $306 $309 $444 reversed $429 $-1 #
coedge $-1 $306 $531 $435 $535 forward $429 $-1 #
vertex $-1 $307 $539 #
straight-curve $-1 0.13368379939997865 -31.644513621181403 29.844185931932781 0 0 1 I I #
straight-curve $-1 0.13368379939997865 -31.644513621181389 1.6908176811022031 0 -0.55919289150049634 -0.82903758062907751 I I #
edge $-1 $533 -13.390898643782396 $310 0.13368379939997865 $439 $540 forward 7 unknown #
point $-1 0.13368379939997865 -31.644513621181403 6.36714616243321 #
point $-1 0.13368379939997865 -28.49029033121019 6.36714616243321 #
edge $-1 $541 1 $541 0 $313 $-1 forward 7 unknown #
vertex $-1 $314 $542 #
ellipse-curve $-1 -10.685982155145915 -26.882715604268462 1.8808839073339654 0 -0.82903758062907751 0.55919289150049634 1 0 0 1 I I #
point $-1 -9.6859821551459149 -30.067401976195804 4.0289819217677083 #
edge $-1 $543 1 $543 0 $317 $-1 forward 7 unknown #
vertex $-1 $318 $544 #
ellipse-curve $-1 -6.6286074221912017 -26.882715604268462 1.8808839073339654 0 -0.82903758062907751 0.55919289150049634 1 0 0 1 I I #
point $-1 -5.6286074221912017 -30.067401976195804 4.0289819217677083 #
edge $-1 $545 1 $545 0 $321 $-1 forward 7 unknown #
vertex $-1 $322 $546 #
ellipse-curve $-1 -2.5712326892364885 -26.882715604268462 1.8808839073339654 0 -0.82903758062907751 0.55919289150049634 1 0 0 1 I I #
point $-1 -1.5712326892364885 -30.067401976195804 4.0289819217677083 #
plane-surface $-1 0 0 6.36714616243321 0 0 1 1 0 0 forward_v I I I I #
coedge $-1 $470 $469 $462 $547 forward $326 $-1 #
coedge $-1 $462 $328 $330 $466 reversed $212 $-1 #
coedge $-1 $328 $461 $460 $547 reversed $212 $-1 #
coedge $-1 $336 $331 $328 $464 forward $337 $-1 #
edge $-1 $467 -30.324422868679306 $548 -27.170199578708093 $463 $549 forward 7 unknown #
coedge $-1 $330 $329 $470 $550 reversed $133 $-1 #
edge $-1 $551 -2.5434524534472062e-014 $467 5.6406712923467097 $461 $552 forward 7 unknown #
vertex $-1 $332 $553 #
straight-curve $-1 7.356950876819198 -28.49029033121019 6.3671461624332091 -1 0 0 I I #
coedge $-1 $460 $333 $336 $474 reversed $326 $-1 #
coedge $-1 $333 $460 $465 $550 forward $326 $-1 #
vertex $-1 $334 $554 #
straight-curve $-1 21.476192975229583 -31.644513621181403 29.844185931932781 0 0 1 I I #
straight-curve $-1 21.476192975229583 -31.644513621181389 1.6908176811022031 0 -0.55919289150049634 -0.82903758062907751 I I #
edge $-1 $548 7.9516105320472086 $338 21.476192975229583 $469 $555 forward 7 unknown #
point $-1 21.476192975229583 -31.644513621181403 6.36714616243321 #
point $-1 21.476192975229583 -28.49029033121019 6.36714616243321 #
edge $-1 $556 1 $556 0 $341 $-1 forward 7 unknown #
vertex $-1 $342 $557 #
ellipse-curve $-1 10.656527020683683 -26.882715604268462 1.8808839073339654 0 -0.82903758062907751 0.55919289150049634 1 0 0 1 I I #
point $-1 11.656527020683683 -30.067401976195804 4.0289819217677083 #
edge $-1 $558 1 $558 0 $345 $-1 forward 7 unknown #
vertex $-1 $346 $559 #
ellipse-curve $-1 14.713901753638396 -26.882715604268462 1.8808839073339654 0 -0.82903758062907751 0.55919289150049634 1 0 0 1 I I #
point $-1 15.713901753638396 -30.067401976195804 4.0289819217677083 #
edge $-1 $560 1 $560 0 $349 $-1 forward 7 unknown #
vertex $-1 $350 $561 #
ellipse-curve $-1 18.771276486593109 -26.882715604268462 1.8808839073339654 0 -0.82903758062907751 0.55919289150049634 1 0 0 1 I I #
point $-1 19.771276486593109 -30.067401976195804 4.0289819217677083 #
plane-surface $-1 51.858272041993473 0 0 -1 0 0 0 0 1 forward_v I I I I #
coedge $-1 $358 $356 $360 $494 reversed $241 $-1 #
edge $-1 $371 -6.36714616243321 $496 6.36714616243321 $370 $562 forward 7 unknown #
vertex $-1 $494 $563 #
straight-curve $-1 -51.858272041993473 -31.644513621181403 0 0 0 -1 I I #
edge $-1 $492 -31.644513621181403 $496 31.644513621181403 $490 $564 forward 7 unknown #
straight-curve $-1 0 -31.644513621181403 -6.36714616243321 -1 0 0 I I #
vertex $-1 $363 $565 #
straight-curve $-1 0 31.644513621181403 -6.36714616243321 1 0 0 I I #
point $-1 51.858272041993473 31.644513621181403 -6.36714616243321 #
point $-1 51.858272041993473 -31.644513621181403 -6.36714616243321 #
straight-curve $-1 -51.858272041993473 0 6.36714616243321 0 -1 0 I I #
point $-1 -51.858272041993473 31.644513621181403 6.36714616243321 #
point $-1 -51.858272041993473 -31.644513621181403 6.36714616243321 #
straight-curve $-1 51.858272041993473 -31.644513621181403 0 0 0 -1 I I #
straight-curve $-1 51.858272041993473 31.644513621181403 0 0 0 -1 I I #
plane-surface $-1 -51.858272041993473 0 0 1 0 0 0 0 -1 forward_v I I I I #
edge $-1 $392 10.592435064182039 $396 13.592435064182039 $395 $566 forward 7 unknown #
edge $-1 $400 -13.592435064182039 $391 -10.592435064182039 $398 $567 forward 7 unknown #
straight-curve $-1 -43.772977710546286 -25.684870128364079 0 0 0 -1 I I #
edge $-1 $512 -6.36714616243321 $510 6.36714616243321 $402 $568 forward 7 unknown #
vertex $-1 $509 $569 #
straight-curve $-1 -23.90781243813494 -22.684870128364079 -6.36714616243321 1 0 0 I I #
vertex $-1 $403 $570 #
straight-curve $-1 -23.90781243813494 -22.684870128364079 6.36714616243321 -1 0 0 I I #
point $-1 -43.772977710546286 -22.684870128364079 6.36714616243321 #
point $-1 -43.772977710546286 -22.684870128364079 -6.36714616243321 #
point $-1 -43.772977710546286 -25.684870128364079 -6.36714616243321 #
point $-1 -43.772977710546286 -25.684870128364079 6.36714616243321 #
straight-curve $-1 -51.858272041993473 0 6.36714616243321 0 -1 0 I I #
straight-curve $-1 -51.858272041993473 0 -6.36714616243321 0 1 0 I I #
edge $-1 $521 48.122964394639006 $524 53.177142433124061 $408 $571 forward 7 unknown #
vertex $-1 $422 $572 #
straight-curve $-1 48.261302869753038 43.975343317913556 6.3671461624332082 0 1 0 I I #
edge $-1 $524 -28.376591951897872 $419 -11.39282988381246 $418 $573 forward 7 unknown #
vertex $-1 $523 $574 #
straight-curve $-1 48.261302869753038 -0.95174430740226512 55.562253265208639 0 -0.51503806187062418 0.85716730853699208 I I #
point $-1 48.261302869753038 28.607657180945296 6.3671461624332082 #
point $-1 31.277540801667627 31.644513621181403 1.3129681239481528 #
straight-curve $-1 0 31.644513621181403 6.36714616243321 -1 0 0 I I #
vertex $-1 $425 $575 #
point $-1 40.769421835710332 28.378816012986587 2.790191813239066 #
coedge $-1 $440 $439 $432 $532 forward $429 $-1 #
edge $-1 $533 23.477039769499569 $536 28.153368250830599 $531 $576 forward 7 unknown #
vertex $-1 $444 $577 #
straight-curve $-1 -13.390898643782396 -58.814713199889496 6.3671461624332082 0 -1 0 I I #
edge $-1 $536 -10.076594932686792 $441 3.4479875104955831 $440 $578 forward 7 unknown #
vertex $-1 $535 $579 #
straight-curve $-1 -13.390898643782396 -31.644513621181389 1.6908176811022031 0 0.55919289150049634 0.82903758062907751 I I #
point $-1 -13.390898643782396 -28.49029033121019 6.36714616243321 #
point $-1 0.13368379939997865 -31.644513621181403 1.690817681102182 #
straight-curve $-1 0 -31.644513621181403 6.36714616243321 1 0 0 I I #
vertex $-1 $447 $580 #
point $-1 -9.6859821551459149 -26.882715604268462 1.8808839073339654 #
vertex $-1 $451 $581 #
point $-1 -5.6286074221912017 -26.882715604268462 1.8808839073339654 #
vertex $-1 $455 $582 #
point $-1 -1.5712326892364885 -26.882715604268462 1.8808839073339654 #
edge $-1 $548 23.477039769499569 $551 28.153368250830599 $460 $583 forward 7 unknown #
vertex $-1 $474 $584 #
straight-curve $-1 7.9516105320472086 -58.814713199889496 6.3671461624332082 0 -1 0 I I #
edge $-1 $551 0.59465965522801056 $471 14.119242098410385 $470 $585 forward 7 unknown #
vertex $-1 $550 $586 #
straight-curve $-1 7.9516105320472086 -31.644513621181389 1.6908176811022031 0 0.55919289150049634 0.82903758062907751 I I #
point $-1 7.9516105320472086 -28.49029033121019 6.36714616243321 #
point $-1 21.476192975229583 -31.644513621181403 1.690817681102182 #
straight-curve $-1 0 -31.644513621181403 6.36714616243321 1 0 0 I I #
vertex $-1 $477 $587 #
point $-1 11.656527020683683 -26.882715604268462 1.8808839073339654 #
vertex $-1 $481 $588 #
point $-1 15.713901753638396 -26.882715604268462 1.8808839073339654 #
vertex $-1 $485 $589 #
point $-1 19.771276486593109 -26.882715604268462 1.8808839073339654 #
straight-curve $-1 -51.858272041993473 31.644513621181403 0 0 0 -1 I I #
point $-1 -51.858272041993473 -31.644513621181403 -6.36714616243321 #
straight-curve $-1 -51.858272041993473 0 -6.36714616243321 0 1 0 I I #
point $-1 -51.858272041993473 31.644513621181403 -6.36714616243321 #
straight-curve $-1 -43.772977710546286 -12.092435064182039 -6.36714616243321 0 -1 0 I I #
straight-curve $-1 -43.772977710546286 -12.092435064182039 6.36714616243321 0 1 0 I I #
straight-curve $-1 -51.858272041993473 -22.684870128364079 0 0 0 -1 I I #
point $-1 -51.858272041993473 -22.684870128364079 -6.36714616243321 #
point $-1 -51.858272041993473 -22.684870128364079 6.36714616243321 #
straight-curve $-1 48.261302869753038 31.644513621181403 54.490110557072214 0 0 -1 I I #
point $-1 48.261302869753038 31.644513621181403 6.36714616243321 #
straight-curve $-1 19.884710917855166 31.644513621181403 1.3129681239481528 -1 0 0 I I #
point $-1 48.261302869753038 31.644513621181403 1.3129681239481528 #
point $-1 39.769421835710332 27.521648704449593 2.2751537513684421 #
straight-curve $-1 -13.390898643782396 -31.644513621181403 29.844185931932781 0 0 -1 I I #
point $-1 -13.390898643782396 -31.644513621181403 6.36714616243321 #
straight-curve $-1 -3.3143037110956044 -31.644513621181403 1.6908176811021871 1 0 0 I I #
point $-1 -13.390898643782396 -31.644513621181403 1.690817681102182 #
point $-1 -10.685982155145915 -26.053678023639385 1.3216910158334689 #
point $-1 -6.6286074221912017 -26.053678023639385 1.3216910158334689 #
point $-1 -2.5712326892364885 -26.053678023639385 1.3216910158334689 #
straight-curve $-1 7.9516105320472086 -31.644513621181403 29.844185931932781 0 0 -1 I I #
point $-1 7.9516105320472086 -31.644513621181403 6.36714616243321 #
straight-curve $-1 7.356950876819198 -31.644513621181403 1.6908176811021871 1 0 0 I I #
point $-1 7.9516105320472086 -31.644513621181403 1.690817681102182 #
point $-1 10.656527020683683 -26.053678023639385 1.3216910158334689 #
point $-1 14.713901753638396 -26.053678023639385 1.3216910158334689 #
point $-1 18.771276486593109 -26.053678023639385 1.3216910158334689 #
End-of-ACIS-data 