500 0 5 0           
7 Unknown 11 ACIS 5.0 NT 24 Thu Mar 25 20:17:35 1999 
-1 9.9999999999999995e-007 1e-010 
body $-1 $5 $-1 $6 #
body $-1 $7 $-1 $8 #
body $-1 $9 $-1 $10 #
body $-1 $11 $-1 $12 #
body $-1 $13 $-1 $14 #
lump $-1 $-1 $15 $0 #
transform $-1 1 0 0 0 1 0 0 0 1 71.424298837244791 40.369213369114455 19.830897124381661 1 rotate no_reflect no_shear #
lump $-1 $-1 $16 $1 #
transform $-1 1 0 0 0 1 0 0 0 1 71.424298837244791 40.369213369114455 19.830897124381661 1 rotate no_reflect no_shear #
lump $-1 $-1 $17 $2 #
transform $-1 1 0 0 0 1 0 0 0 1 71.424298837244791 40.369213369114455 19.830897124381661 1 rotate no_reflect no_shear #
lump $-1 $-1 $18 $3 #
transform $-1 1 0 0 0 1 0 0 0 1 71.424298837244791 40.369213369114455 19.830897124381661 1 rotate no_reflect no_shear #
lump $-1 $-1 $19 $4 #
transform $-1 1 0 0 0 1 0 0 0 1 71.424298837244791 40.369213369114455 19.830897124381661 1 rotate no_reflect no_shear #
shell $-1 $-1 $-1 $20 $-1 $5 #
shell $-1 $-1 $-1 $21 $-1 $7 #
shell $-1 $-1 $-1 $22 $-1 $9 #
shell $-1 $-1 $-1 $23 $-1 $11 #
shell $-1 $-1 $-1 $24 $-1 $13 #
face $-1 $25 $26 $15 $-1 $27 forward single #
face $-1 $28 $29 $16 $-1 $30 reversed single #
face $-1 $31 $32 $17 $-1 $33 forward single #
face $-1 $34 $35 $18 $-1 $36 reversed single #
face $-1 $37 $38 $19 $-1 $39 forward single #
face $-1 $40 $41 $15 $-1 $42 reversed single #
loop $-1 $-1 $43 $20 #
plane-surface $-1 0 0 19.830897124381661 0 0 1 1 0 0 forward_v I I I I #
face $-1 $44 $45 $16 $-1 $46 reversed single #
loop $-1 $-1 $47 $21 #
plane-surface $-1 85.516394286650424 23.825067776033308 216.60976387037195 0 1 0 0.75470958851134928 0 0.65605901945558964 forward_v I I I I #
face $-1 $48 $49 $17 $-1 $50 forward single #
loop $-1 $51 $52 $22 #
cone-surface $-1 68.705653801633446 32.097140572573885 16.887617638755376 -0.75470958851134928 0 -0.65605901945558964 0.65605901945558964 0 -0.75470958851134928 1 I I 0 1 1 forward I I I I #
face $-1 $53 $54 $18 $-1 $55 reversed single #
loop $-1 $-1 $56 $23 #
plane-surface $-1 -179.23350520758208 23.825067776033308 108.80055750003464 0 1 0 -0.75470958851134928 0 0.65605901945558964 forward_v I I I I #
face $-1 $57 $58 $19 $-1 $59 forward single #
loop $-1 $60 $61 $24 #
cone-surface $-1 -68.70565380163346 32.097140572573885 16.887617638755369 0.75470958851134928 0 -0.65605901945558964 0.65605901945558964 0 0.75470958851134928 1 I I 0 1 1 forward I I I I #
face $-1 $62 $63 $15 $-1 $64 reversed single #
loop $-1 $-1 $65 $25 #
plane-surface $-1 0 0 -19.830897124381661 0 0 1 1 0 0 forward_v I I I I #
coedge $-1 $66 $67 $68 $69 forward $26 $-1 #
face $-1 $70 $71 $16 $-1 $72 forward single #
loop $-1 $-1 $73 $28 #
plane-surface $-1 -22.292812083686897 32.097140572573885 122.89265294944029 0.75470958851134928 0 0.65605901945558964 0.65605901945558964 0 -0.75470958851134928 forward_v I I I I #
coedge $-1 $74 $75 $76 $77 reversed $29 $-1 #
face $-1 $-1 $78 $17 $-1 $79 forward single #
loop $-1 $80 $81 $31 #
cone-surface $-1 67.673101817839878 32.097140572573885 15.990033916040634 -0.75470958851134928 0 -0.65605901945558964 0.32802950972779482 0 -0.37735479425567464 1 I I -0.70710678118654746 0.70710678118654746 0.5 forward I I I I #
loop $-1 $-1 $82 $22 #
coedge $-1 $52 $52 $83 $84 reversed $32 $-1 #
face $-1 $85 $86 $18 $-1 $87 reversed single #
loop $-1 $-1 $88 $34 #
plane-surface $-1 -71.424298837244763 32.097140572573885 15.083446579102983 -0.75470958851134928 0 0.65605901945558964 0.65605901945558964 0 0.75470958851134928 forward_v I I I I #
coedge $-1 $89 $90 $91 $92 reversed $35 $-1 #
face $-1 $-1 $93 $19 $-1 $94 forward single #
loop $-1 $95 $96 $37 #
cone-surface $-1 -67.673101817839893 32.097140572573885 15.990033916040627 0.75470958851134928 0 -0.65605901945558964 0.32802950972779482 0 0.37735479425567464 1 I I -0.70710678118654746 0.70710678118654746 0.5 forward I I I I #
loop $-1 $-1 $97 $24 #
coedge $-1 $61 $61 $98 $99 reversed $38 $-1 #
face $-1 $100 $101 $15 $-1 $102 reversed single #
loop $-1 $-1 $103 $40 #
plane-surface $-1 0 -40.369213369114455 0 0 1 0 0 0 1 forward_v I I I I #
coedge $-1 $104 $105 $106 $107 forward $41 $-1 #
coedge $-1 $108 $43 $109 $110 forward $26 $-1 #
coedge $-1 $43 $108 $111 $112 forward $26 $-1 #
coedge $-1 $113 $114 $43 $69 reversed $115 $-1 #
edge $-1 $116 -40.369213369114455 $117 40.369213369114455 $68 $118 forward 7 unknown #
face $-1 $119 $120 $16 $-1 $121 reversed single #
loop $-1 $-1 $122 $44 #
plane-surface $-1 0 0 19.830897124381661 0 0 1 1 0 0 forward_v I I I I #
coedge $-1 $123 $124 $125 $126 reversed $45 $-1 #
coedge $-1 $75 $47 $127 $128 reversed $29 $-1 #
coedge $-1 $47 $74 $123 $129 reversed $29 $-1 #
coedge $-1 $125 $130 $47 $77 forward $120 $-1 #
edge $-1 $131 88.473984810804311 $132 93.221435356083035 $76 $133 forward 7 unknown #
loop $-1 $-1 $83 $48 #
plane-surface $-1 -22.292812083686897 32.097140572573885 122.89265294944029 0.75470958851134928 0 0.65605901945558964 0.65605901945558964 0 -0.75470958851134928 forward_v I I I I #
loop $-1 $-1 $134 $31 #
coedge $-1 $81 $81 $82 $135 reversed $49 $-1 #
coedge $-1 $82 $82 $81 $135 forward $51 $-1 #
coedge $-1 $83 $83 $52 $84 forward $78 $-1 #
edge $-1 $136 0 $136 6.2831853071796004 $83 $137 forward 7 unknown #
face $-1 $138 $139 $18 $-1 $140 forward single #
loop $-1 $-1 $141 $53 #
plane-surface $-1 0 40.369213369114455 0 0 -1 0 0 0 -1 forward_v I I I I #
coedge $-1 $142 $143 $144 $145 reversed $54 $-1 #
coedge $-1 $90 $56 $146 $147 reversed $35 $-1 #
coedge $-1 $56 $89 $142 $148 reversed $35 $-1 #
coedge $-1 $144 $149 $56 $92 forward $139 $-1 #
edge $-1 $150 18.192453766546251 $151 22.319349458693168 $91 $152 forward 7 unknown #
loop $-1 $-1 $98 $57 #
plane-surface $-1 -71.424298837244763 32.097140572573885 15.083446579102983 -0.75470958851134928 0 0.65605901945558964 0.65605901945558964 0 0.75470958851134928 forward_v I I I I #
loop $-1 $-1 $153 $37 #
coedge $-1 $96 $96 $97 $154 reversed $58 $-1 #
coedge $-1 $97 $97 $96 $154 forward $60 $-1 #
coedge $-1 $98 $98 $61 $99 forward $93 $-1 #
edge $-1 $155 0 $155 6.2831853071796004 $98 $156 forward 7 unknown #
face $-1 $157 $158 $15 $-1 $159 reversed single #
loop $-1 $-1 $160 $62 #
plane-surface $-1 -71.424298837244791 0 0 1 0 0 0 0 -1 forward_v I I I I #
coedge $-1 $161 $111 $162 $163 forward $63 $-1 #
coedge $-1 $164 $65 $161 $165 forward $41 $-1 #
coedge $-1 $65 $164 $166 $167 forward $41 $-1 #
coedge $-1 $114 $113 $65 $107 reversed $115 $-1 #
edge $-1 $168 -40.369213369114455 $169 40.369213369114455 $106 $170 forward 7 unknown #
coedge $-1 $67 $66 $171 $172 forward $26 $-1 #
coedge $-1 $173 $174 $66 $110 reversed $158 $-1 #
edge $-1 $117 -71.424298837244791 $175 71.424298837244791 $109 $176 forward 7 unknown #
coedge $-1 $103 $177 $67 $112 reversed $63 $-1 #
edge $-1 $178 -71.424298837244791 $116 71.424298837244791 $111 $179 forward 7 unknown #
coedge $-1 $106 $68 $177 $180 forward $115 $-1 #
coedge $-1 $68 $106 $173 $181 reversed $115 $-1 #
loop $-1 $-1 $113 $157 #
vertex $-1 $69 $182 #
vertex $-1 $69 $183 #
straight-curve $-1 71.424298837244791 0 19.830897124381661 0 1 0 I I #
face $-1 $-1 $184 $16 $-1 $185 reversed single #
loop $-1 $-1 $76 $70 #
plane-surface $-1 71.424298837244791 0 0 -1 0 0 0 0 1 forward_v I I I I #
coedge $-1 $127 $186 $187 $188 forward $71 $-1 #
coedge $-1 $187 $73 $75 $129 forward $45 $-1 #
coedge $-1 $73 $187 $189 $190 reversed $45 $-1 #
coedge $-1 $191 $76 $73 $126 forward $120 $-1 #
edge $-1 $132 7.7764974897463652 $192 24.320643082827512 $125 $193 forward 7 unknown #
coedge $-1 $194 $122 $74 $128 forward $71 $-1 #
edge $-1 $195 24.539206001772662 $131 28.666101693919579 $127 $196 forward 7 unknown #
edge $-1 $132 -142.84859767448967 $195 -136.55816408579898 $75 $197 forward 7 unknown #
coedge $-1 $76 $191 $194 $198 reversed $120 $-1 #
vertex $-1 $198 $199 #
vertex $-1 $77 $200 #
straight-curve $-1 71.424298837244791 23.825067776033308 108.30488193518597 0 0 -1 I I #
coedge $-1 $134 $134 $-1 $201 reversed $80 $-1 #
edge $-1 $202 0 $202 6.2831853071796004 $81 $203 forward 7 unknown #
vertex $-1 $84 $204 #
ellipse-curve $-1 69.360850991171318 32.097140572573885 17.457171851742313 0.75470958851134928 0 0.65605901945558964 0.65605901945558964 0 -0.75470958851134928 1 I I #
face $-1 $-1 $205 $18 $-1 $206 reversed single #
loop $-1 $-1 $144 $85 #
plane-surface $-1 0 0 19.830897124381661 0 0 1 1 0 0 forward_v I I I I #
coedge $-1 $207 $208 $143 $209 forward $86 $-1 #
coedge $-1 $210 $88 $90 $148 forward $54 $-1 #
coedge $-1 $88 $210 $141 $209 reversed $54 $-1 #
coedge $-1 $211 $91 $88 $145 forward $139 $-1 #
edge $-1 $151 7.7764974897463652 $212 24.32064308282752 $144 $213 forward 7 unknown #
coedge $-1 $214 $215 $89 $147 forward $205 $-1 #
edge $-1 $216 -39.316832170914367 $150 -34.569381625635657 $146 $217 forward 7 unknown #
edge $-1 $151 -6.2904335886906386 $216 4.2777722527798062e-014 $90 $218 forward 7 unknown #
coedge $-1 $91 $211 $214 $219 forward $139 $-1 #
vertex $-1 $147 $220 #
vertex $-1 $92 $221 #
straight-curve $-1 -89.616752603791042 23.825067776033308 19.830897124381664 1 0 0 I I #
coedge $-1 $153 $153 $-1 $222 reversed $95 $-1 #
edge $-1 $223 0 $223 6.2831853071796004 $96 $224 forward 7 unknown #
vertex $-1 $99 $225 #
ellipse-curve $-1 -69.360850991171333 32.097140572573885 17.457171851742306 -0.75470958851134928 0 0.65605901945558964 0.65605901945558964 0 0.75470958851134928 1 I I #
face $-1 $-1 $115 $15 $-1 $226 reversed single #
loop $-1 $-1 $173 $100 #
plane-surface $-1 0 40.369213369114455 0 0 -1 0 0 0 -1 forward_v I I I I #
coedge $-1 $227 $171 $174 $228 forward $101 $-1 #
coedge $-1 $177 $103 $104 $165 reversed $63 $-1 #
coedge $-1 $171 $227 $103 $163 reversed $101 $-1 #
edge $-1 $178 -19.830897124381661 $229 19.830897124381661 $162 $230 forward 7 unknown #
coedge $-1 $105 $104 $227 $231 forward $41 $-1 #
edge $-1 $169 -71.424298837244791 $229 71.424298837244791 $161 $232 forward 7 unknown #
coedge $-1 $174 $173 $105 $167 reversed $158 $-1 #
edge $-1 $233 -71.424298837244791 $168 71.424298837244791 $166 $234 forward 7 unknown #
vertex $-1 $107 $235 #
vertex $-1 $180 $236 #
straight-curve $-1 71.424298837244791 0 -19.830897124381661 0 -1 0 I I #
coedge $-1 $160 $162 $108 $172 reversed $101 $-1 #
edge $-1 $175 -40.369213369114455 $178 40.369213369114455 $171 $237 forward 7 unknown #
coedge $-1 $166 $109 $114 $181 forward $158 $-1 #
coedge $-1 $109 $166 $160 $228 reversed $158 $-1 #
vertex $-1 $110 $238 #
straight-curve $-1 0 40.369213369114455 19.830897124381661 -1 0 0 I I #
coedge $-1 $111 $161 $113 $180 reversed $63 $-1 #
vertex $-1 $172 $239 #
straight-curve $-1 0 -40.369213369114455 19.830897124381661 1 0 0 I I #
edge $-1 $116 -19.830897124381661 $169 19.830897124381661 $113 $240 forward 7 unknown #
edge $-1 $117 -19.830897124381661 $168 19.830897124381661 $114 $241 forward 7 unknown #
point $-1 71.424298837244791 -40.369213369114455 19.830897124381661 #
point $-1 71.424298837244791 40.369213369114455 19.830897124381661 #
loop $-1 $-1 $189 $119 #
plane-surface $-1 0 40.369213369114455 0 0 -1 0 0 0 -1 forward_v I I I I #
coedge $-1 $122 $194 $242 $243 forward $71 $-1 #
coedge $-1 $124 $123 $122 $188 reversed $45 $-1 #
edge $-1 $244 -24.32064308282752 $195 -7.7764974897463652 $122 $245 forward 7 unknown #
coedge $-1 $242 $246 $124 $190 forward $184 $-1 #
edge $-1 $192 -89.161765686953899 $244 -82.87133209826321 $189 $247 forward 7 unknown #
coedge $-1 $130 $125 $246 $248 reversed $120 $-1 #
vertex $-1 $126 $249 #
straight-curve $-1 71.424298837244791 16.048570286286942 15.083446579102933 0 1 0 I I #
coedge $-1 $186 $127 $130 $198 forward $71 $-1 #
vertex $-1 $128 $250 #
straight-curve $-1 42.758197143325212 23.825067776033308 19.830897124381664 1 0 0 I I #
straight-curve $-1 -22.292812083686897 23.825067776033308 122.89265294944029 -0.65605901945558964 0 0.75470958851134928 I I #
edge $-1 $131 23.825067776033308 $251 40.369213369114455 $130 $252 forward 7 unknown #
point $-1 71.424298837244791 23.825067776033308 19.830897124381661 #
point $-1 71.424298837244791 23.825067776033308 15.08344657910294 #
edge $-1 $253 1 $253 0 $134 $-1 forward 7 unknown #
vertex $-1 $135 $254 #
ellipse-curve $-1 68.050456612095559 32.097140572573885 16.318063425768429 0.75470958851134928 0 0.65605901945558964 0.65605901945558964 0 -0.75470958851134928 1 I I #
point $-1 70.01691001062693 32.097140572573885 16.702462263230981 #
loop $-1 $-1 $146 $138 #
plane-surface $-1 -71.424298837244791 0 0 1 0 0 0 0 -1 forward_v I I I I #
coedge $-1 $208 $141 $255 $256 reversed $86 $-1 #
coedge $-1 $141 $207 $211 $257 reversed $86 $-1 #
edge $-1 $212 11.447033261018404 $258 17.737466849709087 $141 $259 forward 7 unknown #
coedge $-1 $143 $142 $215 $260 reversed $54 $-1 #
coedge $-1 $149 $144 $208 $257 forward $139 $-1 #
vertex $-1 $257 $261 #
straight-curve $-1 -67.297403145097874 16.048570286286942 19.830897124381657 0 1 0 I I #
coedge $-1 $255 $146 $149 $219 reversed $205 $-1 #
coedge $-1 $146 $255 $210 $260 forward $205 $-1 #
vertex $-1 $147 $262 #
straight-curve $-1 -71.424298837244791 23.825067776033308 54.400278750017321 0 0 1 I I #
straight-curve $-1 -71.424298837244763 23.825067776033308 15.083446579102983 -0.65605901945558964 0 -0.75470958851134928 I I #
edge $-1 $263 -40.369213369114455 $150 -23.825067776033308 $214 $264 forward 7 unknown #
point $-1 -71.424298837244791 23.825067776033308 19.830897124381661 #
point $-1 -67.297403145097874 23.825067776033308 19.830897124381661 #
edge $-1 $265 1 $265 0 $153 $-1 forward 7 unknown #
vertex $-1 $154 $266 #
ellipse-curve $-1 -68.050456612095573 32.097140572573885 16.318063425768422 -0.75470958851134928 0 0.65605901945558964 0.65605901945558964 0 0.75470958851134928 1 I I #
point $-1 -68.704791971715764 32.097140572573885 18.21188144025367 #
plane-surface $-1 71.424298837244791 0 0 -1 0 0 0 0 1 forward_v I I I I #
coedge $-1 $162 $160 $164 $231 reversed $101 $-1 #
edge $-1 $175 -19.830897124381661 $233 19.830897124381661 $174 $267 forward 7 unknown #
vertex $-1 $231 $268 #
straight-curve $-1 -71.424298837244791 -40.369213369114455 0 0 0 -1 I I #
edge $-1 $229 -40.369213369114455 $233 40.369213369114455 $227 $269 forward 7 unknown #
straight-curve $-1 0 -40.369213369114455 -19.830897124381661 -1 0 0 I I #
vertex $-1 $167 $270 #
straight-curve $-1 0 40.369213369114455 -19.830897124381661 1 0 0 I I #
point $-1 71.424298837244791 40.369213369114455 -19.830897124381661 #
point $-1 71.424298837244791 -40.369213369114455 -19.830897124381661 #
straight-curve $-1 -71.424298837244791 0 19.830897124381661 0 -1 0 I I #
point $-1 -71.424298837244791 40.369213369114455 19.830897124381661 #
point $-1 -71.424298837244791 -40.369213369114455 19.830897124381661 #
straight-curve $-1 71.424298837244791 -40.369213369114455 0 0 0 -1 I I #
straight-curve $-1 71.424298837244791 40.369213369114455 0 0 0 -1 I I #
coedge $-1 $246 $189 $186 $243 reversed $184 $-1 #
edge $-1 $251 -71.424298837244791 $244 -67.297403145097874 $242 $271 forward 7 unknown #
vertex $-1 $190 $272 #
straight-curve $-1 67.29740314509786 16.048570286286942 19.830897124381664 0 -1 0 I I #
coedge $-1 $189 $242 $191 $248 forward $184 $-1 #
straight-curve $-1 12.92891826773279 40.369213369114455 82.374686071649251 -0.65605901945558975 0 0.75470958851134939 I I #
edge $-1 $251 -19.830897124381661 $192 -15.083446579102931 $191 $273 forward 7 unknown #
point $-1 71.424298837244791 40.369213369114455 15.083446579102931 #
point $-1 67.297403145097874 23.825067776033308 19.83089712438165 #
vertex $-1 $198 $274 #
straight-curve $-1 71.424298837244791 0 19.830897124381661 0 1 0 I I #
vertex $-1 $201 $275 #
point $-1 68.706515631551142 32.097140572573885 15.563353837257079 #
coedge $-1 $215 $214 $207 $256 forward $205 $-1 #
edge $-1 $263 -19.830897124381661 $258 -15.083446579102951 $207 $276 forward 7 unknown #
edge $-1 $212 67.297403145097874 $263 71.424298837244791 $208 $277 forward 7 unknown #
vertex $-1 $209 $278 #
straight-curve $-1 -59.78747372819862 40.369213369114455 28.47008288648059 -0.65605901945558975 0 -0.75470958851134939 I I #
edge $-1 $258 -24.32064308282752 $216 -7.7764974897463652 $215 $279 forward 7 unknown #
point $-1 -67.297403145097874 40.369213369114462 19.830897124381661 #
point $-1 -71.424298837244791 23.825067776033308 15.083446579102951 #
vertex $-1 $257 $280 #
straight-curve $-1 -71.424298837244791 0 19.830897124381661 0 -1 0 I I #
vertex $-1 $222 $281 #
point $-1 -67.394397592639976 32.097140572573885 17.072773014279772 #
straight-curve $-1 -71.424298837244791 40.369213369114455 0 0 0 -1 I I #
point $-1 -71.424298837244791 -40.369213369114455 -19.830897124381661 #
straight-curve $-1 -71.424298837244791 0 -19.830897124381661 0 1 0 I I #
point $-1 -71.424298837244791 40.369213369114455 -19.830897124381661 #
straight-curve $-1 0 40.369213369114455 19.830897124381661 -1 0 0 I I #
point $-1 67.297403145097874 40.369213369114462 19.83089712438165 #
straight-curve $-1 71.424298837244791 40.369213369114455 0 0 0 -1 I I #
point $-1 71.424298837244791 40.369213369114455 19.830897124381661 #
point $-1 67.295747023584198 32.097140572573885 15.662004406312839 #
straight-curve $-1 -71.424298837244791 40.369213369114455 0 0 0 -1 I I #
straight-curve $-1 0 40.369213369114455 19.830897124381661 -1 0 0 I I #
point $-1 -71.424298837244791 40.369213369114462 15.083446579102951 #
straight-curve $-1 -71.424298837244791 16.048570286286942 15.083446579102942 0 -1 0 I I #
point $-1 -71.424298837244791 40.369213369114455 19.830897124381661 #
point $-1 -67.295747023584212 32.097140572573885 15.662004406312832 #
End-of-ACIS-data 