500 0 14 0           
7 Unknown 11 ACIS 5.0 NT 24 Fri Mar 26 14:50:38 1999 
-1 9.9999999999999995e-007 1e-010 
body $-1 $14 $-1 $15 #
body $-1 $16 $-1 $17 #
body $-1 $18 $-1 $19 #
body $-1 $20 $-1 $21 #
body $-1 $22 $-1 $23 #
body $-1 $24 $-1 $25 #
body $-1 $26 $-1 $27 #
body $-1 $28 $-1 $29 #
body $-1 $30 $-1 $31 #
body $-1 $32 $-1 $33 #
body $-1 $34 $-1 $35 #
body $-1 $36 $-1 $37 #
body $-1 $38 $-1 $39 #
body $-1 $40 $-1 $41 #
lump $-1 $-1 $42 $0 #
transform $-1 1 0 0 0 1 0 0 0 1 75.206152531510355 31.097389466519175 6.8262029851934107 1 rotate no_reflect no_shear #
lump $-1 $-1 $43 $1 #
transform $-1 1 0 0 0 1 0 0 0 1 75.206152531510355 31.097389466519175 6.8262029851934107 1 rotate no_reflect no_shear #
lump $-1 $-1 $44 $2 #
transform $-1 1 0 0 0 1 0 0 0 1 75.206152531510355 31.097389466519175 6.8262029851934107 1 rotate no_reflect no_shear #
lump $-1 $-1 $45 $3 #
transform $-1 1 0 0 0 1 0 0 0 1 75.206152531510355 31.097389466519175 6.8262029851934107 1 rotate no_reflect no_shear #
lump $-1 $-1 $46 $4 #
transform $-1 1 0 0 0 1 0 0 0 1 75.206152531510355 31.097389466519175 6.8262029851934107 1 rotate no_reflect no_shear #
lump $-1 $-1 $47 $5 #
transform $-1 1 0 0 0 1 0 0 0 1 75.206152531510355 31.097389466519175 6.8262029851934107 1 rotate no_reflect no_shear #
lump $-1 $-1 $48 $6 #
transform $-1 1 0 0 0 1 0 0 0 1 75.206152531510355 31.097389466519175 6.8262029851934107 1 rotate no_reflect no_shear #
lump $-1 $-1 $49 $7 #
transform $-1 1 0 0 0 1 0 0 0 1 75.206152531510355 31.097389466519175 6.8262029851934107 1 rotate no_reflect no_shear #
lump $-1 $-1 $50 $8 #
transform $-1 1 0 0 0 1 0 0 0 1 75.206152531510355 31.097389466519175 6.8262029851934107 1 rotate no_reflect no_shear #
lump $-1 $-1 $51 $9 #
transform $-1 1 0 0 0 1 0 0 0 1 75.206152531510355 31.097389466519175 6.8262029851934107 1 rotate no_reflect no_shear #
lump $-1 $-1 $52 $10 #
transform $-1 1 0 0 0 1 0 0 0 1 75.206152531510355 31.097389466519175 6.8262029851934107 1 rotate no_reflect no_shear #
lump $-1 $-1 $53 $11 #
transform $-1 1 0 0 0 1 0 0 0 1 75.206152531510355 31.097389466519175 6.8262029851934107 1 rotate no_reflect no_shear #
lump $-1 $-1 $54 $12 #
transform $-1 1 0 0 0 1 0 0 0 1 75.206152531510355 31.097389466519175 6.8262029851934107 1 rotate no_reflect no_shear #
lump $-1 $-1 $55 $13 #
transform $-1 1 0 0 0 1 0 0 0 1 75.206152531510355 31.097389466519175 6.8262029851934107 1 rotate no_reflect no_shear #
shell $-1 $-1 $-1 $56 $-1 $14 #
shell $-1 $-1 $-1 $57 $-1 $16 #
shell $-1 $-1 $-1 $58 $-1 $18 #
shell $-1 $-1 $-1 $59 $-1 $20 #
shell $-1 $-1 $-1 $60 $-1 $22 #
shell $-1 $-1 $-1 $61 $-1 $24 #
shell $-1 $-1 $-1 $62 $-1 $26 #
shell $-1 $-1 $-1 $63 $-1 $28 #
shell $-1 $-1 $-1 $64 $-1 $30 #
shell $-1 $-1 $-1 $65 $-1 $32 #
shell $-1 $-1 $-1 $66 $-1 $34 #
shell $-1 $-1 $-1 $67 $-1 $36 #
shell $-1 $-1 $-1 $68 $-1 $38 #
shell $-1 $-1 $-1 $69 $-1 $40 #
face $-1 $70 $71 $42 $-1 $72 forward single #
face $-1 $73 $74 $43 $-1 $75 reversed single #
face $-1 $76 $77 $44 $-1 $78 reversed single #
face $-1 $79 $80 $45 $-1 $81 forward single #
face $-1 $82 $83 $46 $-1 $84 forward single #
face $-1 $85 $86 $47 $-1 $87 reversed single #
face $-1 $88 $89 $48 $-1 $90 forward single #
face $-1 $91 $92 $49 $-1 $93 forward single #
face $-1 $94 $95 $50 $-1 $96 reversed single #
face $-1 $97 $98 $51 $-1 $99 forward single #
face $-1 $100 $101 $52 $-1 $102 forward single #
face $-1 $103 $104 $53 $-1 $105 reversed single #
face $-1 $106 $107 $54 $-1 $108 forward single #
face $-1 $109 $110 $55 $-1 $111 forward single #
face $-1 $112 $113 $42 $-1 $114 reversed single #
loop $-1 $-1 $115 $56 #
plane-surface $-1 0 0 6.8262029851934107 0 0 1 1 0 0 forward_v I I I I #
face $-1 $116 $117 $43 $-1 $118 reversed single #
loop $-1 $-1 $119 $57 #
plane-surface $-1 -73.706152531510355 -25.094639011726279 0 0 -1 0 0 0 -1 forward_v I I I I #
face $-1 $120 $121 $44 $-1 $122 reversed single #
loop $-1 $-1 $123 $58 #
plane-surface $-1 38.26856116473374 -18.323659234868366 210.82507210188473 0 -1 0 -0.57357644374324357 0 -0.81915203911291934 forward_v I I I I #
face $-1 $124 $125 $45 $-1 $126 forward single #
loop $-1 $127 $128 $59 #
cone-surface $-1 70.855699013506225 -23.160073361195447 3.4640417011802906 -0.57357644374324357 0 -0.81915203911291934 0.40957601955645967 0 -0.28678822187162178 1 I I 0 1 0.5 forward I I I I #
face $-1 $129 $130 $46 $-1 $131 forward single #
loop $-1 $132 $133 $60 #
cone-surface $-1 70.855699013506225 -20.258224885399201 3.4640417011802906 -0.57357644374324357 0 -0.81915203911291934 0.40957601955645967 0 -0.28678822187162178 1 I I 0 1 0.5 forward I I I I #
face $-1 $134 $135 $47 $-1 $136 reversed single #
loop $-1 $-1 $137 $61 #
plane-surface $-1 38.26856116473374 24.326409689661268 210.82507210188473 0 1 0 0.57357644374324357 0 0.81915203911291934 forward_v I I I I #
face $-1 $138 $139 $48 $-1 $140 forward single #
loop $-1 $141 $142 $62 #
cone-surface $-1 70.855699013506225 26.260975340192097 3.4640417011802906 -0.57357644374324357 0 -0.81915203911291934 0.40957601955645967 0 -0.28678822187162178 1 I I 0 1 0.5 forward I I I I #
face $-1 $143 $144 $49 $-1 $145 forward single #
loop $-1 $146 $147 $63 #
cone-surface $-1 70.855699013506225 29.162823815988347 3.4640417011802906 -0.57357644374324357 0 -0.81915203911291934 0.40957601955645967 0 -0.28678822187162178 1 I I 0 1 0.5 forward I I I I #
face $-1 $148 $149 $50 $-1 $150 reversed single #
loop $-1 $-1 $151 $64 #
plane-surface $-1 -75.206152531510369 -21.709149123297323 1.341570668565538 -0.57357644374324357 0 0.81915203911291934 0.81915203911291934 0 0.57357644374324357 forward_v I I I I #
face $-1 $152 $153 $51 $-1 $154 forward single #
loop $-1 $155 $156 $65 #
cone-surface $-1 -70.855699013506225 -23.160073361195447 3.4640417011802889 0.57357644374324357 0 -0.81915203911291934 0.40957601955645967 0 0.28678822187162178 1 I I 0 1 0.5 forward I I I I #
face $-1 $157 $158 $52 $-1 $159 forward single #
loop $-1 $160 $161 $66 #
cone-surface $-1 -70.855699013506225 -20.258224885399201 3.4640417011802889 0.57357644374324357 0 -0.81915203911291934 0.40957601955645967 0 0.28678822187162178 1 I I 0 1 0.5 forward I I I I #
face $-1 $162 $163 $53 $-1 $164 reversed single #
loop $-1 $-1 $165 $67 #
plane-surface $-1 -161.47910756478166 24.326409689661268 124.55211706861344 0 1 0 -0.57357644374324357 0 0.81915203911291934 forward_v I I I I #
face $-1 $166 $167 $54 $-1 $168 forward single #
loop $-1 $169 $170 $68 #
cone-surface $-1 -70.855699013506225 26.260975340192097 3.4640417011802889 0.57357644374324357 0 -0.81915203911291934 0.40957601955645967 0 0.28678822187162178 1 I I 0 1 0.5 forward I I I I #
face $-1 $171 $172 $55 $-1 $173 forward single #
loop $-1 $174 $175 $69 #
cone-surface $-1 -70.855699013506225 29.162823815988347 3.4640417011802889 0.57357644374324357 0 -0.81915203911291934 0.40957601955645967 0 0.28678822187162178 1 I I 0 1 0.5 forward I I I I #
face $-1 $176 $177 $42 $-1 $178 reversed single #
loop $-1 $-1 $179 $70 #
plane-surface $-1 0 0 -6.8262029851934107 0 0 1 1 0 0 forward_v I I I I #
coedge $-1 $180 $181 $182 $183 forward $71 $-1 #
face $-1 $184 $185 $43 $-1 $186 forward single #
loop $-1 $-1 $187 $73 #
plane-surface $-1 -72.206152531510355 -28.096014239122727 0 -1 0 0 0 0 1 forward_v I I I I #
coedge $-1 $188 $189 $190 $191 forward $74 $-1 #
face $-1 $192 $193 $44 $-1 $194 reversed single #
loop $-1 $-1 $195 $76 #
plane-surface $-1 -48.004393868537548 -21.709149123297323 87.614525701836826 0.57357644374324357 0 0.81915203911291934 0.81915203911291934 0 -0.57357644374324357 forward_v I I I I #
coedge $-1 $196 $197 $198 $199 reversed $77 $-1 #
face $-1 $-1 $200 $45 $-1 $201 forward single #
loop $-1 $202 $203 $79 #
cone-surface $-1 70.278284664697196 -23.160073361195447 2.6394085657028734 -0.57357644374324357 0 -0.81915203911291934 0.20478800977822983 0 -0.14339411093581089 1 I I -0.70710678118654746 0.70710678118654746 0.25 forward I I I I #
loop $-1 $-1 $204 $59 #
coedge $-1 $128 $128 $205 $206 reversed $80 $-1 #
face $-1 $-1 $207 $46 $-1 $208 forward single #
loop $-1 $209 $210 $82 #
cone-surface $-1 70.278284664697196 -20.258224885399201 2.6394085657028734 -0.57357644374324357 0 -0.81915203911291934 0.20478800977822983 0 -0.14339411093581089 1 I I -0.70710678118654746 0.70710678118654746 0.25 forward I I I I #
loop $-1 $-1 $211 $60 #
coedge $-1 $133 $133 $212 $213 reversed $83 $-1 #
face $-1 $214 $215 $47 $-1 $216 reversed single #
loop $-1 $-1 $217 $85 #
plane-surface $-1 -48.004393868537548 27.711899578090225 87.614525701836826 0.57357644374324357 0 0.81915203911291934 0.81915203911291934 0 -0.57357644374324357 forward_v I I I I #
coedge $-1 $218 $219 $220 $221 reversed $86 $-1 #
face $-1 $-1 $222 $48 $-1 $223 forward single #
loop $-1 $224 $225 $88 #
cone-surface $-1 70.278284664697196 26.260975340192097 2.6394085657028734 -0.57357644374324357 0 -0.81915203911291934 0.20478800977822983 0 -0.14339411093581089 1 I I -0.70710678118654746 0.70710678118654746 0.25 forward I I I I #
loop $-1 $-1 $226 $62 #
coedge $-1 $142 $142 $227 $228 reversed $89 $-1 #
face $-1 $-1 $229 $49 $-1 $230 forward single #
loop $-1 $231 $232 $91 #
cone-surface $-1 70.278284664697196 29.162823815988347 2.6394085657028734 -0.57357644374324357 0 -0.81915203911291934 0.20478800977822983 0 -0.14339411093581089 1 I I -0.70710678118654746 0.70710678118654746 0.25 forward I I I I #
loop $-1 $-1 $233 $63 #
coedge $-1 $147 $147 $234 $235 reversed $92 $-1 #
face $-1 $236 $237 $50 $-1 $238 reversed single #
loop $-1 $-1 $239 $94 #
plane-surface $-1 -161.47910756478166 -18.323659234868366 124.55211706861344 0 -1 0 0.57357644374324357 0 -0.81915203911291934 forward_v I I I I #
coedge $-1 $240 $241 $242 $243 reversed $95 $-1 #
face $-1 $-1 $244 $51 $-1 $245 forward single #
loop $-1 $246 $247 $97 #
cone-surface $-1 -70.278284664697196 -23.160073361195447 2.6394085657028716 0.57357644374324357 0 -0.81915203911291934 0.20478800977822983 0 0.14339411093581089 1 I I -0.70710678118654746 0.70710678118654746 0.25 forward I I I I #
loop $-1 $-1 $248 $65 #
coedge $-1 $156 $156 $249 $250 reversed $98 $-1 #
face $-1 $-1 $251 $52 $-1 $252 forward single #
loop $-1 $253 $254 $100 #
cone-surface $-1 -70.278284664697196 -20.258224885399201 2.6394085657028716 0.57357644374324357 0 -0.81915203911291934 0.20478800977822983 0 0.14339411093581089 1 I I -0.70710678118654746 0.70710678118654746 0.25 forward I I I I #
loop $-1 $-1 $255 $66 #
coedge $-1 $161 $161 $256 $257 reversed $101 $-1 #
face $-1 $258 $259 $53 $-1 $260 reversed single #
loop $-1 $-1 $261 $103 #
plane-surface $-1 -75.206152531510369 27.711899578090225 1.341570668565538 -0.57357644374324357 0 0.81915203911291934 0.81915203911291934 0 0.57357644374324357 forward_v I I I I #
coedge $-1 $262 $263 $264 $265 reversed $104 $-1 #
face $-1 $-1 $266 $54 $-1 $267 forward single #
loop $-1 $268 $269 $106 #
cone-surface $-1 -70.278284664697196 26.260975340192097 2.6394085657028716 0.57357644374324357 0 -0.81915203911291934 0.20478800977822983 0 0.14339411093581089 1 I I -0.70710678118654746 0.70710678118654746 0.25 forward I I I I #
loop $-1 $-1 $270 $68 #
coedge $-1 $170 $170 $271 $272 reversed $107 $-1 #
face $-1 $-1 $273 $55 $-1 $274 forward single #
loop $-1 $275 $276 $109 #
cone-surface $-1 -70.278284664697196 29.162823815988347 2.6394085657028716 0.57357644374324357 0 -0.81915203911291934 0.20478800977822983 0 0.14339411093581089 1 I I -0.70710678118654746 0.70710678118654746 0.25 forward I I I I #
loop $-1 $-1 $277 $69 #
coedge $-1 $175 $175 $278 $279 reversed $110 $-1 #
face $-1 $280 $281 $42 $-1 $282 reversed single #
loop $-1 $-1 $283 $112 #
plane-surface $-1 0 -31.097389466519175 0 0 1 0 0 0 1 forward_v I I I I #
coedge $-1 $284 $285 $286 $287 forward $113 $-1 #
coedge $-1 $288 $115 $289 $290 forward $71 $-1 #
coedge $-1 $115 $288 $291 $292 forward $71 $-1 #
coedge $-1 $293 $294 $115 $183 reversed $295 $-1 #
edge $-1 $296 -31.097389466519175 $297 31.097389466519175 $182 $298 forward 7 unknown #
face $-1 $299 $300 $43 $-1 $301 reversed single #
loop $-1 $-1 $302 $116 #
plane-surface $-1 0 0 6.8262029851934107 0 0 1 1 0 0 forward_v I I I I #
coedge $-1 $303 $304 $305 $306 reversed $117 $-1 #
coedge $-1 $307 $119 $308 $309 reversed $74 $-1 #
coedge $-1 $119 $307 $310 $311 reversed $74 $-1 #
coedge $-1 $304 $303 $119 $191 reversed $117 $-1 #
edge $-1 $312 -6.8262029851934107 $313 6.8262029851934107 $190 $314 forward 7 unknown #
face $-1 $315 $316 $44 $-1 $317 reversed single #
loop $-1 $-1 $318 $120 #
plane-surface $-1 38.26856116473374 -25.094639011726279 210.82507210188473 0 1 0 0.57357644374324357 0 0.81915203911291934 forward_v I I I I #
coedge $-1 $319 $320 $321 $322 reversed $121 $-1 #
coedge $-1 $197 $123 $323 $324 reversed $77 $-1 #
coedge $-1 $123 $196 $319 $325 reversed $77 $-1 #
coedge $-1 $321 $326 $123 $199 forward $327 $-1 #
edge $-1 $328 -56.071871949143485 $329 -48.239005388881694 $198 $330 forward 7 unknown #
loop $-1 $-1 $205 $124 #
plane-surface $-1 -48.004393868537548 -21.709149123297323 87.614525701836826 0.57357644374324357 0 0.81915203911291934 0.81915203911291934 0 -0.57357644374324357 forward_v I I I I #
loop $-1 $-1 $331 $79 #
coedge $-1 $203 $203 $204 $332 reversed $125 $-1 #
coedge $-1 $204 $204 $203 $332 forward $127 $-1 #
coedge $-1 $205 $205 $128 $206 forward $200 $-1 #
edge $-1 $333 0 $333 6.2831853071796004 $205 $334 forward 7 unknown #
loop $-1 $-1 $212 $129 #
plane-surface $-1 -48.004393868537548 -21.709149123297323 87.614525701836826 0.57357644374324357 0 0.81915203911291934 0.81915203911291934 0 -0.57357644374324357 forward_v I I I I #
loop $-1 $-1 $335 $82 #
coedge $-1 $210 $210 $211 $336 reversed $130 $-1 #
coedge $-1 $211 $211 $210 $336 forward $132 $-1 #
coedge $-1 $212 $212 $133 $213 forward $207 $-1 #
edge $-1 $337 0 $337 6.2831853071796004 $212 $338 forward 7 unknown #
face $-1 $339 $340 $47 $-1 $341 reversed single #
loop $-1 $-1 $220 $134 #
plane-surface $-1 75.206152531510355 0 0 -1 0 0 0 0 1 forward_v I I I I #
coedge $-1 $342 $343 $344 $345 reversed $135 $-1 #
coedge $-1 $219 $137 $346 $347 reversed $86 $-1 #
coedge $-1 $137 $218 $342 $348 reversed $86 $-1 #
coedge $-1 $344 $349 $137 $221 forward $215 $-1 #
edge $-1 $350 98.58633306574896 $351 104.07096538237683 $220 $352 forward 7 unknown #
loop $-1 $-1 $227 $138 #
plane-surface $-1 -48.004393868537548 27.711899578090225 87.614525701836826 0.57357644374324357 0 0.81915203911291934 0.81915203911291934 0 -0.57357644374324357 forward_v I I I I #
loop $-1 $-1 $353 $88 #
coedge $-1 $225 $225 $226 $354 reversed $139 $-1 #
coedge $-1 $226 $226 $225 $354 forward $141 $-1 #
coedge $-1 $227 $227 $142 $228 forward $222 $-1 #
edge $-1 $355 0 $355 6.2831853071796004 $227 $356 forward 7 unknown #
loop $-1 $-1 $234 $143 #
plane-surface $-1 -48.004393868537548 27.711899578090225 87.614525701836826 0.57357644374324357 0 0.81915203911291934 0.81915203911291934 0 -0.57357644374324357 forward_v I I I I #
loop $-1 $-1 $357 $91 #
coedge $-1 $232 $232 $233 $358 reversed $144 $-1 #
coedge $-1 $233 $233 $232 $358 forward $146 $-1 #
coedge $-1 $234 $234 $147 $235 forward $229 $-1 #
edge $-1 $359 0 $359 6.2831853071796004 $234 $360 forward 7 unknown #
face $-1 $361 $362 $50 $-1 $363 forward single #
loop $-1 $-1 $364 $148 #
plane-surface $-1 -75.206152531510355 0 0 1 0 0 0 0 -1 forward_v I I I I #
coedge $-1 $365 $366 $367 $368 reversed $149 $-1 #
coedge $-1 $369 $151 $370 $371 reversed $95 $-1 #
coedge $-1 $151 $369 $365 $372 forward $95 $-1 #
coedge $-1 $367 $373 $151 $243 forward $374 $-1 #
edge $-1 $375 -14.240064450077618 $376 -7.4690846732197045 $242 $377 forward 7 unknown #
loop $-1 $-1 $249 $152 #
plane-surface $-1 -75.206152531510369 -21.709149123297323 1.341570668565538 -0.57357644374324357 0 0.81915203911291934 0.81915203911291934 0 0.57357644374324357 forward_v I I I I #
loop $-1 $-1 $378 $97 #
coedge $-1 $247 $247 $248 $379 reversed $153 $-1 #
coedge $-1 $248 $248 $247 $379 forward $155 $-1 #
coedge $-1 $249 $249 $156 $250 forward $244 $-1 #
edge $-1 $380 0 $380 6.2831853071796004 $249 $381 forward 7 unknown #
loop $-1 $-1 $256 $157 #
plane-surface $-1 -75.206152531510369 -21.709149123297323 1.341570668565538 -0.57357644374324357 0 0.81915203911291934 0.81915203911291934 0 0.57357644374324357 forward_v I I I I #
loop $-1 $-1 $382 $100 #
coedge $-1 $254 $254 $255 $383 reversed $158 $-1 #
coedge $-1 $255 $255 $254 $383 forward $160 $-1 #
coedge $-1 $256 $256 $161 $257 forward $251 $-1 #
edge $-1 $384 0 $384 6.2831853071796004 $256 $385 forward 7 unknown #
face $-1 $386 $387 $53 $-1 $388 reversed single #
loop $-1 $-1 $389 $162 #
plane-surface $-1 0 31.097389466519175 0 0 -1 0 0 0 -1 forward_v I I I I #
coedge $-1 $390 $391 $392 $393 reversed $163 $-1 #
coedge $-1 $263 $165 $394 $395 reversed $104 $-1 #
coedge $-1 $165 $262 $390 $396 reversed $104 $-1 #
coedge $-1 $392 $397 $165 $265 forward $398 $-1 #
edge $-1 $399 5.5334012508804733 $400 13.366267811142265 $264 $401 forward 7 unknown #
loop $-1 $-1 $271 $166 #
plane-surface $-1 -75.206152531510369 27.711899578090225 1.341570668565538 -0.57357644374324357 0 0.81915203911291934 0.81915203911291934 0 0.57357644374324357 forward_v I I I I #
loop $-1 $-1 $402 $106 #
coedge $-1 $269 $269 $270 $403 reversed $167 $-1 #
coedge $-1 $270 $270 $269 $403 forward $169 $-1 #
coedge $-1 $271 $271 $170 $272 forward $266 $-1 #
edge $-1 $404 0 $404 6.2831853071796004 $271 $405 forward 7 unknown #
loop $-1 $-1 $278 $171 #
plane-surface $-1 -75.206152531510369 27.711899578090225 1.341570668565538 -0.57357644374324357 0 0.81915203911291934 0.81915203911291934 0 0.57357644374324357 forward_v I I I I #
loop $-1 $-1 $406 $109 #
coedge $-1 $276 $276 $277 $407 reversed $172 $-1 #
coedge $-1 $277 $277 $276 $407 forward $174 $-1 #
coedge $-1 $278 $278 $175 $279 forward $273 $-1 #
edge $-1 $408 0 $408 6.2831853071796004 $278 $409 forward 7 unknown #
face $-1 $410 $411 $42 $-1 $412 reversed single #
loop $-1 $-1 $413 $176 #
plane-surface $-1 -75.206152531510355 0 0 1 0 0 0 0 -1 forward_v I I I I #
coedge $-1 $414 $291 $415 $416 forward $177 $-1 #
coedge $-1 $417 $179 $414 $418 forward $113 $-1 #
coedge $-1 $179 $417 $419 $420 forward $113 $-1 #
coedge $-1 $294 $293 $179 $287 reversed $295 $-1 #
edge $-1 $421 -31.097389466519175 $422 31.097389466519175 $286 $423 forward 7 unknown #
coedge $-1 $181 $180 $424 $425 forward $71 $-1 #
coedge $-1 $426 $427 $180 $290 reversed $411 $-1 #
edge $-1 $297 -75.206152531510355 $428 75.206152531510355 $289 $429 forward 7 unknown #
coedge $-1 $283 $430 $181 $292 reversed $177 $-1 #
edge $-1 $431 -75.206152531510355 $296 75.206152531510355 $291 $432 forward 7 unknown #
coedge $-1 $286 $182 $430 $433 forward $295 $-1 #
coedge $-1 $182 $286 $426 $434 reversed $295 $-1 #
loop $-1 $-1 $293 $410 #
vertex $-1 $183 $435 #
vertex $-1 $183 $436 #
straight-curve $-1 75.206152531510355 0 6.8262029851934107 0 1 0 I I #
face $-1 $437 $438 $43 $-1 $439 reversed single #
loop $-1 $-1 $440 $184 #
plane-surface $-1 -75.206152531510355 0 0 1 0 0 0 0 -1 forward_v I I I I #
coedge $-1 $310 $441 $304 $442 forward $185 $-1 #
coedge $-1 $190 $187 $443 $444 reversed $117 $-1 #
coedge $-1 $187 $190 $302 $442 reversed $117 $-1 #
coedge $-1 $445 $446 $187 $306 forward $447 $-1 #
edge $-1 $448 -6.8262029851934107 $449 6.8262029851934107 $305 $450 forward 7 unknown #
coedge $-1 $189 $188 $440 $451 reversed $74 $-1 #
coedge $-1 $443 $452 $188 $309 forward $438 $-1 #
edge $-1 $453 -38.353076265755178 $313 -35.353076265755178 $308 $454 forward 7 unknown #
coedge $-1 $455 $302 $189 $311 forward $185 $-1 #
edge $-1 $312 35.353076265755178 $456 38.353076265755178 $310 $457 forward 7 unknown #
vertex $-1 $311 $458 #
vertex $-1 $309 $459 #
straight-curve $-1 -72.206152531510355 -25.094639011726279 0 0 0 -1 I I #
face $-1 $-1 $327 $44 $-1 $460 forward single #
loop $-1 $-1 $461 $192 #
plane-surface $-1 75.206152531510355 0 0 -1 0 0 0 0 1 forward_v I I I I #
coedge $-1 $462 $463 $464 $465 reversed $193 $-1 #
coedge $-1 $466 $195 $197 $325 forward $121 $-1 #
coedge $-1 $195 $466 $462 $467 forward $121 $-1 #
coedge $-1 $464 $198 $195 $322 forward $327 $-1 #
edge $-1 $329 7.4690846732197045 $468 14.240064450077618 $321 $469 forward 7 unknown #
coedge $-1 $470 $471 $196 $324 forward $316 $-1 #
edge $-1 $472 -104.07096538237683 $328 -98.58633306574896 $323 $473 forward 7 unknown #
edge $-1 $329 140.85014054867219 $472 150.41230506302071 $197 $474 forward 7 unknown #
coedge $-1 $198 $464 $470 $475 forward $327 $-1 #
loop $-1 $-1 $464 $315 #
vertex $-1 $324 $476 #
vertex $-1 $199 $477 #
straight-curve $-1 19.13428058236687 -18.323659234868366 6.8262029851934045 -1 0 0 I I #
coedge $-1 $331 $331 $-1 $478 reversed $202 $-1 #
edge $-1 $479 0 $479 6.2831853071796004 $203 $480 forward 7 unknown #
vertex $-1 $206 $481 #
ellipse-curve $-1 71.289719251379438 -23.160073361195447 4.0838868268794721 0.57357644374324357 0 0.81915203911291934 0.40957601955645967 0 -0.28678822187162178 1 I I #
coedge $-1 $335 $335 $-1 $482 reversed $209 $-1 #
edge $-1 $483 0 $483 6.2831853071796004 $210 $484 forward 7 unknown #
vertex $-1 $213 $485 #
ellipse-curve $-1 71.289719251379438 -20.258224885399201 4.0838868268794721 0.57357644374324357 0 0.81915203911291934 0.40957601955645967 0 -0.28678822187162178 1 I I #
face $-1 $-1 $486 $47 $-1 $487 forward single #
loop $-1 $-1 $488 $214 #
plane-surface $-1 0 31.097389466519175 0 0 -1 0 0 0 -1 forward_v I I I I #
coedge $-1 $489 $217 $219 $348 forward $135 $-1 #
coedge $-1 $217 $489 $488 $490 reversed $135 $-1 #
coedge $-1 $491 $220 $217 $345 forward $215 $-1 #
edge $-1 $351 10.470459900616156 $492 17.241439677474062 $344 $493 forward 7 unknown #
coedge $-1 $494 $495 $218 $347 forward $486 $-1 #
edge $-1 $496 48.239005388881694 $350 56.071871949143485 $346 $497 forward 7 unknown #
edge $-1 $351 -150.41230506302071 $496 -140.85014054867219 $219 $498 forward 7 unknown #
coedge $-1 $220 $491 $494 $499 reversed $215 $-1 #
vertex $-1 $499 $500 #
vertex $-1 $221 $501 #
straight-curve $-1 75.206152531510355 24.326409689661268 105.41253605094236 0 0 -1 I I #
coedge $-1 $353 $353 $-1 $502 reversed $224 $-1 #
edge $-1 $503 0 $503 6.2831853071796004 $225 $504 forward 7 unknown #
vertex $-1 $228 $505 #
ellipse-curve $-1 71.289719251379438 26.260975340192097 4.0838868268794721 0.57357644374324357 0 0.81915203911291934 0.40957601955645967 0 -0.28678822187162178 1 I I #
coedge $-1 $357 $357 $-1 $506 reversed $231 $-1 #
edge $-1 $507 0 $507 6.2831853071796004 $232 $508 forward 7 unknown #
vertex $-1 $235 $509 #
ellipse-curve $-1 71.289719251379438 29.162823815988347 4.0838868268794721 0.57357644374324357 0 0.81915203911291934 0.40957601955645967 0 -0.28678822187162178 1 I I #
face $-1 $-1 $374 $50 $-1 $510 forward single #
loop $-1 $-1 $370 $236 #
plane-surface $-1 -73.706152531510355 -25.094639011726279 0 0 -1 0 0 0 -1 forward_v I I I I #
coedge $-1 $511 $512 $366 $513 forward $237 $-1 #
coedge $-1 $366 $239 $241 $372 reversed $149 $-1 #
coedge $-1 $239 $365 $364 $513 reversed $149 $-1 #
coedge $-1 $514 $242 $239 $368 forward $374 $-1 #
edge $-1 $376 -13.366267811142265 $515 -5.5334012508804733 $367 $516 forward 7 unknown #
coedge $-1 $241 $240 $511 $517 reversed $95 $-1 #
coedge $-1 $518 $519 $240 $371 forward $362 $-1 #
edge $-1 $520 -0.22961736278165068 $375 9.332547151566871 $370 $521 forward 7 unknown #
edge $-1 $522 1.7372030585532449e-014 $376 9.5621645143485399 $365 $523 forward 7 unknown #
coedge $-1 $242 $514 $518 $524 forward $374 $-1 #
loop $-1 $-1 $367 $361 #
vertex $-1 $243 $525 #
vertex $-1 $243 $526 #
straight-curve $-1 -67.373285971248563 -10.854574561648661 6.8262029851934134 0 1 0 I I #
coedge $-1 $378 $378 $-1 $527 reversed $246 $-1 #
edge $-1 $528 0 $528 6.2831853071796004 $247 $529 forward 7 unknown #
vertex $-1 $250 $530 #
ellipse-curve $-1 -71.289719251379452 -23.160073361195447 4.0838868268794855 -0.57357644374324357 0 0.81915203911291934 0.40957601955645967 0 0.28678822187162178 1 I I #
coedge $-1 $382 $382 $-1 $531 reversed $253 $-1 #
edge $-1 $532 0 $532 6.2831853071796004 $254 $533 forward 7 unknown #
vertex $-1 $257 $534 #
ellipse-curve $-1 -71.289719251379452 -20.258224885399201 4.0838868268794855 -0.57357644374324357 0 0.81915203911291934 0.40957601955645967 0 0.28678822187162178 1 I I #
face $-1 $-1 $398 $53 $-1 $535 forward single #
loop $-1 $-1 $536 $258 #
plane-surface $-1 -75.206152531510355 0 0 1 0 0 0 0 -1 forward_v I I I I #
coedge $-1 $537 $538 $391 $539 forward $259 $-1 #
coedge $-1 $540 $261 $263 $396 forward $163 $-1 #
coedge $-1 $261 $540 $389 $539 reversed $163 $-1 #
coedge $-1 $541 $264 $261 $393 forward $398 $-1 #
edge $-1 $400 10.470459900616156 $542 17.241439677474069 $392 $543 forward 7 unknown #
coedge $-1 $544 $536 $262 $395 forward $387 $-1 #
edge $-1 $545 -60.934487865741175 $399 -55.449855549113309 $394 $546 forward 7 unknown #
edge $-1 $400 -9.5621645143485399 $545 -1.7372030585532449e-014 $263 $547 forward 7 unknown #
coedge $-1 $264 $541 $544 $548 forward $398 $-1 #
loop $-1 $-1 $392 $386 #
vertex $-1 $395 $549 #
vertex $-1 $265 $550 #
straight-curve $-1 -80.739553782390828 24.326409689661268 6.8262029851934116 1 0 0 I I #
coedge $-1 $402 $402 $-1 $551 reversed $268 $-1 #
edge $-1 $552 0 $552 6.2831853071796004 $269 $553 forward 7 unknown #
vertex $-1 $272 $554 #
ellipse-curve $-1 -71.289719251379452 26.260975340192097 4.0838868268794855 -0.57357644374324357 0 0.81915203911291934 0.40957601955645967 0 0.28678822187162178 1 I I #
coedge $-1 $406 $406 $-1 $555 reversed $275 $-1 #
edge $-1 $556 0 $556 6.2831853071796004 $276 $557 forward 7 unknown #
vertex $-1 $279 $558 #
ellipse-curve $-1 -71.289719251379452 29.162823815988347 4.0838868268794855 -0.57357644374324357 0 0.81915203911291934 0.40957601955645967 0 0.28678822187162178 1 I I #
face $-1 $-1 $295 $42 $-1 $559 reversed single #
loop $-1 $-1 $426 $280 #
plane-surface $-1 0 31.097389466519175 0 0 -1 0 0 0 -1 forward_v I I I I #
coedge $-1 $560 $424 $427 $561 forward $281 $-1 #
coedge $-1 $430 $283 $284 $418 reversed $177 $-1 #
coedge $-1 $424 $560 $283 $416 reversed $281 $-1 #
edge $-1 $431 -6.8262029851934107 $562 6.8262029851934107 $415 $563 forward 7 unknown #
coedge $-1 $285 $284 $560 $564 forward $113 $-1 #
edge $-1 $422 -75.206152531510355 $562 75.206152531510355 $414 $565 forward 7 unknown #
coedge $-1 $427 $426 $285 $420 reversed $411 $-1 #
edge $-1 $566 -75.206152531510355 $421 75.206152531510355 $419 $567 forward 7 unknown #
vertex $-1 $287 $568 #
vertex $-1 $433 $569 #
straight-curve $-1 75.206152531510355 0 -6.8262029851934107 0 -1 0 I I #
coedge $-1 $413 $415 $288 $425 reversed $281 $-1 #
edge $-1 $428 -31.097389466519175 $431 31.097389466519175 $424 $570 forward 7 unknown #
coedge $-1 $419 $289 $294 $434 forward $411 $-1 #
coedge $-1 $289 $419 $413 $561 reversed $411 $-1 #
vertex $-1 $290 $571 #
straight-curve $-1 0 31.097389466519175 6.8262029851934107 -1 0 0 I I #
coedge $-1 $291 $414 $293 $433 reversed $177 $-1 #
vertex $-1 $425 $572 #
straight-curve $-1 0 -31.097389466519175 6.8262029851934107 1 0 0 I I #
edge $-1 $296 -6.8262029851934107 $422 6.8262029851934107 $293 $573 forward 7 unknown #
edge $-1 $297 -6.8262029851934107 $421 6.8262029851934107 $294 $574 forward 7 unknown #
point $-1 75.206152531510355 -31.097389466519175 6.8262029851934107 #
point $-1 75.206152531510355 31.097389466519175 6.8262029851934107 #
face $-1 $-1 $447 $43 $-1 $575 reversed single #
loop $-1 $-1 $443 $299 #
plane-surface $-1 0 0 -6.8262029851934107 0 0 1 1 0 0 forward_v I I I I #
coedge $-1 $576 $577 $307 $451 forward $300 $-1 #
coedge $-1 $302 $455 $445 $578 forward $185 $-1 #
edge $-1 $449 -17.049382346957813 $312 -11.046631892164916 $302 $579 forward 7 unknown #
coedge $-1 $580 $308 $303 $444 forward $438 $-1 #
edge $-1 $313 11.046631892164916 $448 17.049382346957813 $443 $581 forward 7 unknown #
coedge $-1 $582 $305 $441 $578 reversed $447 $-1 #
coedge $-1 $305 $582 $580 $583 reversed $447 $-1 #
loop $-1 $-1 $305 $437 #
vertex $-1 $583 $584 #
vertex $-1 $306 $585 #
straight-curve $-1 -72.206152531510355 -31.097389466519175 0 0 0 1 I I #
edge $-1 $456 -6.8262029851934107 $453 6.8262029851934107 $440 $586 forward 7 unknown #
coedge $-1 $308 $580 $576 $587 forward $438 $-1 #
vertex $-1 $309 $588 #
straight-curve $-1 -36.853076265755178 -25.094639011726279 -6.8262029851934107 1 0 0 I I #
coedge $-1 $441 $310 $577 $589 forward $185 $-1 #
vertex $-1 $589 $590 #
straight-curve $-1 -36.853076265755178 -25.094639011726279 6.8262029851934107 -1 0 0 I I #
point $-1 -72.206152531510355 -25.094639011726279 6.8262029851934107 #
point $-1 -72.206152531510355 -25.094639011726279 -6.8262029851934107 #
plane-surface $-1 0 0 6.8262029851934107 0 0 1 1 0 0 forward_v I I I I #
coedge $-1 $471 $470 $463 $591 forward $316 $-1 #
coedge $-1 $463 $318 $320 $467 reversed $193 $-1 #
coedge $-1 $318 $462 $461 $591 reversed $193 $-1 #
coedge $-1 $326 $321 $318 $465 forward $327 $-1 #
edge $-1 $468 48.239005388881694 $592 56.071871949143485 $464 $593 forward 7 unknown #
coedge $-1 $320 $319 $471 $594 reversed $121 $-1 #
edge $-1 $595 -150.41230506302071 $468 -140.85014054867219 $462 $596 forward 7 unknown #
vertex $-1 $322 $597 #
straight-curve $-1 67.373285971248535 -10.854574561648661 6.8262029851934187 0 -1 0 I I #
coedge $-1 $461 $323 $326 $475 reversed $316 $-1 #
coedge $-1 $323 $461 $466 $594 forward $316 $-1 #
vertex $-1 $324 $598 #
straight-curve $-1 75.206152531510355 -18.323659234868366 105.41253605094236 0 0 1 I I #
straight-curve $-1 -48.004393868537548 -18.323659234868366 87.614525701836826 0.81915203911291934 0 -0.57357644374324357 I I #
edge $-1 $592 -25.094639011726279 $328 -18.323659234868366 $470 $599 forward 7 unknown #
point $-1 75.206152531510355 -18.323659234868366 6.8262029851934107 #
point $-1 67.373285971248563 -18.323659234868366 6.8262029851934045 #
edge $-1 $600 1 $600 0 $331 $-1 forward 7 unknown #
vertex $-1 $332 $601 #
ellipse-curve $-1 70.421678775633012 -23.160073361195447 2.8441965754811034 0.57357644374324357 0 0.81915203911291934 0.40957601955645967 0 -0.28678822187162178 1 I I #
point $-1 71.699295270935906 -23.160073361195447 3.7970986050078563 #
edge $-1 $602 1 $602 0 $335 $-1 forward 7 unknown #
vertex $-1 $336 $603 #
ellipse-curve $-1 70.421678775633012 -20.258224885399201 2.8441965754811034 0.57357644374324357 0 0.81915203911291934 0.40957601955645967 0 -0.28678822187162178 1 I I #
point $-1 71.699295270935906 -20.258224885399201 3.7970986050078563 #
loop $-1 $-1 $346 $339 #
plane-surface $-1 0 0 6.8262029851934107 0 0 1 1 0 0 forward_v I I I I #
coedge $-1 $604 $605 $343 $490 forward $340 $-1 #
coedge $-1 $343 $342 $495 $606 reversed $135 $-1 #
edge $-1 $492 -105.62404246496929 $607 -96.061877950620769 $488 $608 forward 7 unknown #
coedge $-1 $349 $344 $605 $609 reversed $215 $-1 #
vertex $-1 $490 $610 #
straight-curve $-1 75.206152531510355 13.855949789045113 1.341570668565538 0 1 0 I I #
coedge $-1 $611 $346 $349 $499 forward $486 $-1 #
coedge $-1 $346 $611 $489 $606 forward $486 $-1 #
vertex $-1 $347 $612 #
straight-curve $-1 19.13428058236687 24.326409689661268 6.8262029851934045 1 0 0 I I #
straight-curve $-1 -48.004393868537548 24.326409689661268 87.614525701836826 -0.81915203911291934 0 0.57357644374324357 I I #
edge $-1 $350 24.326409689661268 $613 31.097389466519175 $349 $614 forward 7 unknown #
point $-1 75.206152531510355 24.326409689661268 6.8262029851934107 #
point $-1 75.206152531510355 24.326409689661268 1.341570668565538 #
edge $-1 $615 1 $615 0 $353 $-1 forward 7 unknown #
vertex $-1 $354 $616 #
ellipse-curve $-1 70.421678775633012 26.260975340192097 2.8441965754811034 0.57357644374324357 0 0.81915203911291934 0.40957601955645967 0 -0.28678822187162178 1 I I #
point $-1 71.699295270935906 26.260975340192097 3.7970986050078563 #
edge $-1 $617 1 $617 0 $357 $-1 forward 7 unknown #
vertex $-1 $358 $618 #
ellipse-curve $-1 70.421678775633012 29.162823815988347 2.8441965754811034 0.57357644374324357 0 0.81915203911291934 0.40957601955645967 0 -0.28678822187162178 1 I I #
point $-1 71.699295270935906 29.162823815988347 3.7970986050078563 #
plane-surface $-1 0 0 6.8262029851934107 0 0 1 1 0 0 forward_v I I I I #
coedge $-1 $619 $364 $369 $517 forward $237 $-1 #
coedge $-1 $364 $619 $514 $620 reversed $237 $-1 #
edge $-1 $515 55.449855549113309 $522 60.934487865741175 $364 $621 forward 7 unknown #
coedge $-1 $373 $367 $512 $620 forward $374 $-1 #
vertex $-1 $620 $622 #
straight-curve $-1 -80.739553782390828 -18.323659234868366 6.8262029851934116 -1 0 0 I I #
edge $-1 $522 7.4690846732197045 $520 14.240064450077618 $511 $623 forward 7 unknown #
coedge $-1 $519 $370 $373 $524 reversed $362 $-1 #
coedge $-1 $370 $518 $619 $624 reversed $362 $-1 #
vertex $-1 $624 $625 #
straight-curve $-1 -75.018061000572033 -25.094639011726279 1.4732737789315458 0.81915203911291934 0 0.57357644374324357 I I #
vertex $-1 $517 $626 #
straight-curve $-1 -75.206152531510369 -18.323659234868366 1.341570668565538 0.81915203911291934 0 0.57357644374324357 I I #
edge $-1 $627 -38.353076265755178 $375 -30.520209705493386 $373 $628 forward 7 unknown #
point $-1 -67.373285971248563 -25.094639011726279 6.8262029851934107 #
point $-1 -67.373285971248563 -18.323659234868366 6.8262029851934107 #
edge $-1 $629 1 $629 0 $378 $-1 forward 7 unknown #
vertex $-1 $379 $630 #
ellipse-curve $-1 -70.421678775633012 -23.160073361195447 2.8441965754811016 -0.57357644374324357 0 0.81915203911291934 0.40957601955645967 0 0.28678822187162178 1 I I #
point $-1 -70.880143231822984 -23.160073361195447 4.3706750487510977 #
edge $-1 $631 1 $631 0 $382 $-1 forward 7 unknown #
vertex $-1 $383 $632 #
ellipse-curve $-1 -70.421678775633012 -20.258224885399201 2.8441965754811016 -0.57357644374324357 0 0.81915203911291934 0.40957601955645967 0 0.28678822187162178 1 I I #
point $-1 -70.880143231822984 -20.258224885399201 4.3706750487510977 #
plane-surface $-1 0 0 6.8262029851934107 0 0 1 1 0 0 forward_v I I I I #
coedge $-1 $394 $633 $540 $634 forward $387 $-1 #
coedge $-1 $538 $389 $633 $635 reversed $259 $-1 #
coedge $-1 $389 $537 $541 $636 reversed $259 $-1 #
edge $-1 $542 20.855725419110406 $637 30.417889933458927 $389 $638 forward 7 unknown #
coedge $-1 $391 $390 $536 $634 reversed $163 $-1 #
coedge $-1 $397 $392 $538 $636 forward $398 $-1 #
vertex $-1 $636 $639 #
straight-curve $-1 -67.373285971248563 13.855949789045113 6.8262029851934134 0 1 0 I I #
coedge $-1 $633 $394 $397 $548 reversed $387 $-1 #
vertex $-1 $395 $640 #
straight-curve $-1 -75.206152531510355 24.326409689661268 62.276058534306721 0 0 1 I I #
straight-curve $-1 -75.206152531510369 24.326409689661268 1.341570668565538 -0.81915203911291934 0 -0.57357644374324357 I I #
edge $-1 $641 -31.097389466519175 $399 -24.326409689661268 $544 $642 forward 7 unknown #
point $-1 -75.206152531510355 24.326409689661268 6.8262029851934107 #
point $-1 -67.373285971248563 24.326409689661268 6.8262029851934107 #
edge $-1 $643 1 $643 0 $402 $-1 forward 7 unknown #
vertex $-1 $403 $644 #
ellipse-curve $-1 -70.421678775633012 26.260975340192097 2.8441965754811016 -0.57357644374324357 0 0.81915203911291934 0.40957601955645967 0 0.28678822187162178 1 I I #
point $-1 -70.880143231822984 26.260975340192097 4.3706750487510977 #
edge $-1 $645 1 $645 0 $406 $-1 forward 7 unknown #
vertex $-1 $407 $646 #
ellipse-curve $-1 -70.421678775633012 29.162823815988347 2.8441965754811016 -0.57357644374324357 0 0.81915203911291934 0.40957601955645967 0 0.28678822187162178 1 I I #
point $-1 -70.880143231822984 29.162823815988347 4.3706750487510977 #
plane-surface $-1 75.206152531510355 0 0 -1 0 0 0 0 1 forward_v I I I I #
coedge $-1 $415 $413 $417 $564 reversed $281 $-1 #
edge $-1 $428 -6.8262029851934107 $566 6.8262029851934107 $427 $647 forward 7 unknown #
vertex $-1 $564 $648 #
straight-curve $-1 -75.206152531510355 -31.097389466519175 0 0 0 -1 I I #
edge $-1 $562 -31.097389466519175 $566 31.097389466519175 $560 $649 forward 7 unknown #
straight-curve $-1 0 -31.097389466519175 -6.8262029851934107 -1 0 0 I I #
vertex $-1 $420 $650 #
straight-curve $-1 0 31.097389466519175 -6.8262029851934107 1 0 0 I I #
point $-1 75.206152531510355 31.097389466519175 -6.8262029851934107 #
point $-1 75.206152531510355 -31.097389466519175 -6.8262029851934107 #
straight-curve $-1 -75.206152531510355 0 6.8262029851934107 0 -1 0 I I #
point $-1 -75.206152531510355 31.097389466519175 6.8262029851934107 #
point $-1 -75.206152531510355 -31.097389466519175 6.8262029851934107 #
straight-curve $-1 75.206152531510355 -31.097389466519175 0 0 0 -1 I I #
straight-curve $-1 75.206152531510355 31.097389466519175 0 0 0 -1 I I #
plane-surface $-1 0 -31.097389466519175 0 0 1 0 0 0 1 forward_v I I I I #
coedge $-1 $651 $440 $452 $587 reversed $300 $-1 #
coedge $-1 $440 $651 $455 $589 reversed $300 $-1 #
edge $-1 $652 -75.206152531510355 $449 -72.206152531510355 $445 $653 forward 7 unknown #
straight-curve $-1 -72.206152531510355 -14.048007119561364 6.8262029851934107 0 1 0 I I #
coedge $-1 $452 $443 $446 $583 forward $438 $-1 #
straight-curve $-1 -72.206152531510355 -14.048007119561364 -6.8262029851934107 0 -1 0 I I #
coedge $-1 $446 $445 $651 $654 forward $447 $-1 #
edge $-1 $448 72.206152531510355 $655 75.206152531510355 $446 $656 forward 7 unknown #
point $-1 -72.206152531510355 -31.097389466519175 -6.8262029851934107 #
point $-1 -72.206152531510355 -31.097389466519175 6.8262029851934107 #
straight-curve $-1 -75.206152531510355 -25.094639011726279 0 0 0 -1 I I #
edge $-1 $655 -31.097389466519175 $453 -25.094639011726279 $576 $657 forward 7 unknown #
point $-1 -75.206152531510355 -25.094639011726279 -6.8262029851934107 #
edge $-1 $456 25.094639011726279 $652 31.097389466519175 $577 $658 forward 7 unknown #
point $-1 -75.206152531510355 -25.094639011726279 6.8262029851934107 #
edge $-1 $592 98.58633306574896 $595 104.07096538237683 $461 $659 forward 7 unknown #
vertex $-1 $475 $660 #
straight-curve $-1 19.13428058236687 -25.094639011726279 6.8262029851934045 1 0 0 I I #
edge $-1 $595 -14.240064450077618 $472 -7.4690846732197045 $471 $661 forward 7 unknown #
vertex $-1 $594 $662 #
straight-curve $-1 -48.004393868537548 -25.094639011726279 87.614525701836826 -0.81915203911291934 0 0.57357644374324357 I I #
point $-1 67.373285971248563 -25.094639011726279 6.8262029851934045 #
point $-1 75.206152531510355 -18.323659234868366 1.341570668565538 #
straight-curve $-1 75.206152531510355 0 6.8262029851934107 0 1 0 I I #
vertex $-1 $478 $663 #
point $-1 70.831254795189466 -23.160073361195447 2.5574083536094814 #
vertex $-1 $482 $664 #
point $-1 70.831254795189466 -20.258224885399201 2.5574083536094814 #
coedge $-1 $605 $488 $611 $665 reversed $340 $-1 #
coedge $-1 $488 $604 $491 $609 forward $340 $-1 #
edge $-1 $607 -17.241439677474069 $496 -10.470459900616156 $495 $666 forward 7 unknown #
vertex $-1 $490 $667 #
straight-curve $-1 -11.31599723301883 31.097389466519175 61.925033319407973 -0.81915203911291934 0 0.57357644374324357 I I #
edge $-1 $613 -6.8262029851934107 $492 -1.3415706685655451 $491 $668 forward 7 unknown #
point $-1 75.206152531510355 31.097389466519175 1.3415706685655451 #
coedge $-1 $495 $494 $604 $665 forward $486 $-1 #
point $-1 67.373285971248563 24.326409689661268 6.8262029851934045 #
vertex $-1 $499 $669 #
straight-curve $-1 75.206152531510355 0 6.8262029851934107 0 1 0 I I #
vertex $-1 $502 $670 #
point $-1 70.831254795189466 26.260975340192097 2.5574083536094814 #
vertex $-1 $506 $671 #
point $-1 70.831254795189466 29.162823815988347 2.5574083536094814 #
coedge $-1 $512 $511 $519 $624 forward $237 $-1 #
edge $-1 $515 18.323659234868366 $627 25.094639011726279 $512 $672 forward 7 unknown #
straight-curve $-1 -75.206152531510355 -18.323659234868366 62.276058534306721 0 0 -1 I I #
point $-1 -75.206152531510355 -18.323659234868366 6.8262029851934107 #
straight-curve $-1 -75.206152531510355 -10.854574561648661 1.3415706685655395 0 -1 0 I I #
edge $-1 $520 1.341570668565548 $627 6.8262029851934107 $619 $673 forward 7 unknown #
point $-1 -75.206152531510355 -25.094639011726279 1.341570668565548 #
point $-1 -75.206152531510355 -18.323659234868366 1.341570668565548 #
vertex $-1 $624 $674 #
straight-curve $-1 -36.853076265755178 -25.094639011726279 6.8262029851934107 1 0 0 I I #
vertex $-1 $527 $675 #
point $-1 -70.012102756076544 -23.160073361195447 3.1309847973527232 #
vertex $-1 $531 $676 #
point $-1 -70.012102756076544 -20.258224885399201 3.1309847973527232 #
coedge $-1 $536 $544 $537 $635 forward $387 $-1 #
edge $-1 $637 -17.241439677474069 $545 -10.470459900616156 $536 $677 forward 7 unknown #
edge $-1 $641 -6.8262029851934107 $637 -1.341570668565548 $537 $678 forward 7 unknown #
edge $-1 $542 67.373285971248563 $641 75.206152531510355 $538 $679 forward 7 unknown #
vertex $-1 $539 $680 #
straight-curve $-1 -50.289275967005132 31.097389466519175 18.788555802772326 -0.81915203911291934 0 -0.57357644374324357 I I #
point $-1 -67.373285971248563 31.097389466519182 6.8262029851934107 #
point $-1 -75.206152531510355 24.326409689661268 1.341570668565548 #
vertex $-1 $636 $681 #
straight-curve $-1 -75.206152531510355 0 6.8262029851934107 0 -1 0 I I #
vertex $-1 $551 $682 #
point $-1 -70.012102756076544 26.260975340192097 3.1309847973527232 #
vertex $-1 $555 $683 #
point $-1 -70.012102756076544 29.162823815988347 3.1309847973527232 #
straight-curve $-1 -75.206152531510355 31.097389466519175 0 0 0 -1 I I #
point $-1 -75.206152531510355 -31.097389466519175 -6.8262029851934107 #
straight-curve $-1 -75.206152531510355 0 -6.8262029851934107 0 1 0 I I #
point $-1 -75.206152531510355 31.097389466519175 -6.8262029851934107 #
coedge $-1 $577 $576 $582 $654 reversed $300 $-1 #
vertex $-1 $589 $684 #
straight-curve $-1 0 -31.097389466519175 6.8262029851934107 1 0 0 I I #
edge $-1 $652 -6.8262029851934107 $655 6.8262029851934107 $651 $685 forward 7 unknown #
vertex $-1 $587 $686 #
straight-curve $-1 0 -31.097389466519175 -6.8262029851934107 -1 0 0 I I #
straight-curve $-1 -75.206152531510355 0 -6.8262029851934107 0 1 0 I I #
straight-curve $-1 -75.206152531510355 0 6.8262029851934107 0 -1 0 I I #
straight-curve $-1 75.206152531510355 -25.094639011726279 105.41253605094236 0 0 -1 I I #
point $-1 75.206152531510355 -25.094639011726279 6.8262029851934107 #
straight-curve $-1 75.206152531510355 -10.854574561648661 1.341570668565538 0 1 0 I I #
point $-1 75.206152531510355 -25.094639011726279 1.341570668565538 #
point $-1 70.13489055376138 -23.160073361195447 2.4346205559246434 #
point $-1 70.13489055376138 -20.258224885399201 2.4346205559246434 #
edge $-1 $613 -75.206152531510355 $607 -67.373285971248563 $604 $687 forward 7 unknown #
straight-curve $-1 67.373285971248535 13.855949789045113 6.8262029851934187 0 -1 0 I I #
point $-1 67.373285971248563 31.097389466519182 6.8262029851934045 #
straight-curve $-1 75.206152531510355 31.097389466519175 0 0 0 -1 I I #
point $-1 75.206152531510355 31.097389466519175 6.8262029851934107 #
point $-1 70.13489055376138 26.260975340192097 2.4346205559246434 #
point $-1 70.13489055376138 29.162823815988347 2.4346205559246434 #
straight-curve $-1 -75.206152531510355 0 6.8262029851934107 0 -1 0 I I #
straight-curve $-1 -75.206152531510355 -25.094639011726279 0 0 0 1 I I #
point $-1 -75.206152531510355 -25.094639011726279 6.8262029851934107 #
point $-1 -70.13489055376138 -23.160073361195447 2.4346205559246417 #
point $-1 -70.13489055376138 -20.258224885399201 2.4346205559246417 #
straight-curve $-1 -75.206152531510355 13.855949789045113 1.3415706685655395 0 -1 0 I I #
straight-curve $-1 -75.206152531510355 31.097389466519175 0 0 0 -1 I I #
straight-curve $-1 0 31.097389466519175 6.8262029851934107 -1 0 0 I I #
point $-1 -75.206152531510355 31.097389466519182 1.341570668565548 #
point $-1 -75.206152531510355 31.097389466519175 6.8262029851934107 #
point $-1 -70.13489055376138 26.260975340192097 2.4346205559246417 #
point $-1 -70.13489055376138 29.162823815988347 2.4346205559246417 #
point $-1 -75.206152531510355 -31.097389466519175 6.8262029851934107 #
straight-curve $-1 -75.206152531510355 -31.097389466519175 0 0 0 -1 I I #
point $-1 -75.206152531510355 -31.097389466519175 -6.8262029851934107 #
straight-curve $-1 0 31.097389466519175 6.8262029851934107 -1 0 0 I I #
End-of-ACIS-data 