500 0 8 0           
7 Unknown 11 ACIS 5.0 NT 24 Thu Mar 25 16:11:11 1999 
-1 9.9999999999999995e-007 1e-010 
body $-1 $8 $-1 $9 #
body $-1 $10 $-1 $11 #
body $-1 $12 $-1 $13 #
body $-1 $14 $-1 $15 #
body $-1 $16 $-1 $17 #
body $-1 $18 $-1 $19 #
body $-1 $20 $-1 $21 #
body $-1 $22 $-1 $23 #
lump $-1 $-1 $24 $0 #
transform $-1 1 0 0 0 1 0 0 0 1 68.247932370982994 36.641893534448727 13.552479638418056 1 rotate no_reflect no_shear #
lump $-1 $-1 $25 $1 #
transform $-1 1 0 0 0 1 0 0 0 1 68.247932370982994 36.641893534448727 13.552479638418056 1 rotate no_reflect no_shear #
lump $-1 $-1 $26 $2 #
transform $-1 1 0 0 0 1 0 0 0 1 68.247932370982994 36.641893534448727 13.552479638418056 1 rotate no_reflect no_shear #
lump $-1 $-1 $27 $3 #
transform $-1 1 0 0 0 1 0 0 0 1 68.247932370982994 36.641893534448727 13.552479638418056 1 rotate no_reflect no_shear #
lump $-1 $-1 $28 $4 #
transform $-1 1 0 0 0 1 0 0 0 1 68.247932370982994 36.641893534448727 13.552479638418056 1 rotate no_reflect no_shear #
lump $-1 $-1 $29 $5 #
transform $-1 1 0 0 0 1 0 0 0 1 68.247932370982994 36.641893534448727 13.552479638418056 1 rotate no_reflect no_shear #
lump $-1 $-1 $30 $6 #
transform $-1 1 0 0 0 1 0 0 0 1 68.247932370982994 36.641893534448727 13.552479638418056 1 rotate no_reflect no_shear #
lump $-1 $-1 $31 $7 #
transform $-1 1 0 0 0 1 0 0 0 1 68.247932370982994 36.641893534448727 13.552479638418056 1 rotate no_reflect no_shear #
shell $-1 $-1 $-1 $32 $-1 $8 #
shell $-1 $-1 $-1 $33 $-1 $10 #
shell $-1 $-1 $-1 $34 $-1 $12 #
shell $-1 $-1 $-1 $35 $-1 $14 #
shell $-1 $-1 $-1 $36 $-1 $16 #
shell $-1 $-1 $-1 $37 $-1 $18 #
shell $-1 $-1 $-1 $38 $-1 $20 #
shell $-1 $-1 $-1 $39 $-1 $22 #
face $-1 $40 $41 $24 $-1 $42 forward single #
face $-1 $43 $44 $25 $-1 $45 forward single #
face $-1 $46 $47 $26 $-1 $48 reversed single #
face $-1 $49 $50 $27 $-1 $51 forward single #
face $-1 $52 $53 $28 $-1 $54 forward single #
face $-1 $55 $56 $29 $-1 $57 reversed single #
face $-1 $58 $59 $30 $-1 $60 forward single #
face $-1 $61 $62 $31 $-1 $63 forward single #
face $-1 $64 $65 $24 $-1 $66 reversed single #
loop $-1 $-1 $67 $32 #
plane-surface $-1 0 0 13.552479638418056 0 0 1 1 0 0 forward_v I I I I #
face $-1 $68 $69 $25 $-1 $70 reversed single #
loop $-1 $-1 $71 $33 #
plane-surface $-1 -62.246943026625324 0 -10.552479638418056 0 0 1 1 0 0 forward_v I I I I #
face $-1 $72 $73 $26 $-1 $74 reversed single #
loop $-1 $-1 $75 $34 #
plane-surface $-1 -23.652286816259362 81.339584031049483 152.5393134772234 1 0 0 0 -0.70710678939079041 -0.70710677298230451 forward_v I I I I #
face $-1 $76 $77 $27 $-1 $78 forward single #
loop $-1 $79 $80 $35 #
cone-surface $-1 -16.973758024963118 30.2097568475128 7.1203428837779104 0 -0.70710678939079041 -0.70710677298230451 2 0 0 1 I I 0 1 2 forward I I I I #
face $-1 $81 $82 $28 $-1 $83 forward single #
loop $-1 $84 $85 $36 #
cone-surface $-1 -6.9559648380187582 30.2097568475128 7.1203428837779104 0 -0.70710678939079041 -0.70710677298230451 2 0 0 1 I I 0 1 2 forward I I I I #
face $-1 $86 $87 $29 $-1 $88 reversed single #
loop $-1 $-1 $89 $37 #
plane-surface $-1 -0.27743604672251365 -133.15904621725991 100.71985008853699 -1 0 0 0 -0.70710678939079041 0.70710677298230451 forward_v I I I I #
face $-1 $90 $91 $30 $-1 $92 forward single #
loop $-1 $93 $94 $38 #
cone-surface $-1 -16.973758024963118 -30.209756847512796 7.1203428837779175 0 0.70710678939079041 -0.70710677298230451 2 0 0 1 I I 0 1 2 forward I I I I #
face $-1 $95 $96 $31 $-1 $97 forward single #
loop $-1 $98 $99 $39 #
cone-surface $-1 -6.9559648380187582 -30.209756847512796 7.1203428837779175 0 0.70710678939079041 -0.70710677298230451 2 0 0 1 I I 0 1 2 forward I I I I #
face $-1 $100 $101 $24 $-1 $102 reversed single #
loop $-1 $-1 $103 $40 #
plane-surface $-1 0 0 -13.552479638418056 0 0 1 1 0 0 forward_v I I I I #
coedge $-1 $104 $105 $106 $107 forward $41 $-1 #
face $-1 $108 $109 $25 $-1 $110 reversed single #
loop $-1 $-1 $111 $43 #
plane-surface $-1 -56.245953682267654 0 -12.052479638418056 -1 0 0 0 0 1 forward_v I I I I #
coedge $-1 $112 $113 $114 $115 forward $44 $-1 #
face $-1 $116 $117 $26 $-1 $118 reversed single #
loop $-1 $-1 $119 $46 #
plane-surface $-1 -11.964861431490938 -15.177568651761675 56.022163034102718 0 0.70710678939079041 0.70710677298230451 1 0 0 forward_v I I I I #
coedge $-1 $120 $121 $122 $123 reversed $47 $-1 #
face $-1 $-1 $124 $27 $-1 $125 forward single #
loop $-1 $126 $127 $49 #
cone-surface $-1 -16.973758024963118 27.745403259205659 4.6559893526563485 0 -0.70710678939079041 -0.70710677298230451 1 0 0 1 I I -0.70710678118654746 0.70710678118654746 1 forward I I I I #
loop $-1 $-1 $128 $35 #
coedge $-1 $80 $80 $129 $130 reversed $50 $-1 #
face $-1 $-1 $131 $28 $-1 $132 forward single #
loop $-1 $133 $134 $52 #
cone-surface $-1 -6.9559648380187582 27.745403259205659 4.6559893526563485 0 -0.70710678939079041 -0.70710677298230451 1 0 0 1 I I -0.70710678118654746 0.70710678118654746 1 forward I I I I #
loop $-1 $-1 $135 $36 #
coedge $-1 $85 $85 $136 $137 reversed $53 $-1 #
face $-1 $138 $139 $29 $-1 $140 reversed single #
loop $-1 $-1 $141 $55 #
plane-surface $-1 -11.964861431490938 -36.641893534448755 4.2026996454163026 0 -0.70710678939079041 0.70710677298230451 1 0 0 forward_v I I I I #
coedge $-1 $142 $143 $144 $145 reversed $56 $-1 #
face $-1 $-1 $146 $30 $-1 $147 forward single #
loop $-1 $148 $149 $58 #
cone-surface $-1 -16.973758024963118 -27.745403259205656 4.6559893526563556 0 0.70710678939079041 -0.70710677298230451 1 0 0 1 I I -0.70710678118654746 0.70710678118654746 1 forward I I I I #
loop $-1 $-1 $150 $38 #
coedge $-1 $94 $94 $151 $152 reversed $59 $-1 #
face $-1 $-1 $153 $31 $-1 $154 forward single #
loop $-1 $155 $156 $61 #
cone-surface $-1 -6.9559648380187582 -27.745403259205656 4.6559893526563556 0 0.70710678939079041 -0.70710677298230451 1 0 0 1 I I -0.70710678118654746 0.70710678118654746 1 forward I I I I #
loop $-1 $-1 $157 $39 #
coedge $-1 $99 $99 $158 $159 reversed $62 $-1 #
face $-1 $160 $161 $24 $-1 $162 reversed single #
loop $-1 $-1 $163 $64 #
plane-surface $-1 0 -36.641893534448727 0 0 1 0 0 0 1 forward_v I I I I #
coedge $-1 $164 $165 $166 $167 forward $65 $-1 #
coedge $-1 $168 $67 $169 $170 forward $41 $-1 #
coedge $-1 $67 $168 $171 $172 forward $41 $-1 #
coedge $-1 $173 $174 $67 $107 reversed $175 $-1 #
edge $-1 $176 -36.641893534448727 $177 36.641893534448727 $106 $178 forward 7 unknown #
face $-1 $179 $180 $25 $-1 $181 reversed single #
loop $-1 $-1 $182 $68 #
plane-surface $-1 0 0 -13.552479638418056 0 0 1 1 0 0 forward_v I I I I #
coedge $-1 $183 $114 $184 $185 reversed $69 $-1 #
coedge $-1 $186 $71 $187 $188 reversed $44 $-1 #
coedge $-1 $71 $186 $189 $190 reversed $44 $-1 #
coedge $-1 $111 $191 $71 $115 reversed $69 $-1 #
edge $-1 $192 -36.641893534448727 $193 36.641893534448727 $114 $194 forward 7 unknown #
face $-1 $195 $196 $26 $-1 $197 reversed single #
loop $-1 $-1 $198 $72 #
plane-surface $-1 -0.27743604672251365 81.339584031049483 152.5393134772234 -1 0 0 0 0.70710678939079041 0.70710677298230451 forward_v I I I I #
coedge $-1 $199 $200 $201 $202 reversed $73 $-1 #
coedge $-1 $121 $75 $203 $204 reversed $47 $-1 #
coedge $-1 $75 $120 $199 $205 reversed $47 $-1 #
coedge $-1 $201 $206 $75 $123 forward $207 $-1 #
edge $-1 $208 4.027898481076015 $209 13.377678257115136 $122 $210 forward 7 unknown #
loop $-1 $-1 $129 $76 #
plane-surface $-1 -11.964861431490938 -15.177568651761675 56.022163034102718 0 0.70710678939079041 0.70710677298230451 1 0 0 forward_v I I I I #
loop $-1 $-1 $211 $49 #
coedge $-1 $127 $127 $128 $212 reversed $77 $-1 #
coedge $-1 $128 $128 $127 $212 forward $79 $-1 #
coedge $-1 $129 $129 $80 $130 forward $124 $-1 #
edge $-1 $213 6.280371364969722e-016 $213 6.2831853071796013 $129 $214 forward 7 unknown #
loop $-1 $-1 $136 $81 #
plane-surface $-1 -11.964861431490938 -15.177568651761675 56.022163034102718 0 0.70710678939079041 0.70710677298230451 1 0 0 forward_v I I I I #
loop $-1 $-1 $215 $52 #
coedge $-1 $134 $134 $135 $216 reversed $82 $-1 #
coedge $-1 $135 $135 $134 $216 forward $84 $-1 #
coedge $-1 $136 $136 $85 $137 forward $131 $-1 #
edge $-1 $217 6.280371364969722e-016 $217 6.2831853071796013 $136 $218 forward 7 unknown #
face $-1 $219 $220 $29 $-1 $221 forward single #
loop $-1 $-1 $222 $86 #
plane-surface $-1 -23.652286816259362 -133.15904621725991 100.71985008853699 1 0 0 0 0.70710678939079041 -0.70710677298230451 forward_v I I I I #
coedge $-1 $223 $224 $225 $226 reversed $87 $-1 #
coedge $-1 $143 $89 $227 $228 reversed $56 $-1 #
coedge $-1 $89 $142 $223 $229 reversed $56 $-1 #
coedge $-1 $225 $230 $89 $145 forward $220 $-1 #
edge $-1 $231 29.93762957418123 $232 39.287409350220344 $144 $233 forward 7 unknown #
loop $-1 $-1 $151 $90 #
plane-surface $-1 -11.964861431490938 -36.641893534448755 4.2026996454163026 0 -0.70710678939079041 0.70710677298230451 1 0 0 forward_v I I I I #
loop $-1 $-1 $234 $58 #
coedge $-1 $149 $149 $150 $235 reversed $91 $-1 #
coedge $-1 $150 $150 $149 $235 forward $93 $-1 #
coedge $-1 $151 $151 $94 $152 forward $146 $-1 #
edge $-1 $236 -6.280371364969722e-016 $236 6.2831853071795996 $151 $237 forward 7 unknown #
loop $-1 $-1 $158 $95 #
plane-surface $-1 -11.964861431490938 -36.641893534448755 4.2026996454163026 0 -0.70710678939079041 0.70710677298230451 1 0 0 forward_v I I I I #
loop $-1 $-1 $238 $61 #
coedge $-1 $156 $156 $157 $239 reversed $96 $-1 #
coedge $-1 $157 $157 $156 $239 forward $98 $-1 #
coedge $-1 $158 $158 $99 $159 forward $153 $-1 #
edge $-1 $240 -6.280371364969722e-016 $240 6.2831853071795996 $158 $241 forward 7 unknown #
face $-1 $242 $243 $24 $-1 $244 reversed single #
loop $-1 $-1 $245 $100 #
plane-surface $-1 -68.247932370982994 0 0 1 0 0 0 0 -1 forward_v I I I I #
coedge $-1 $246 $171 $247 $248 forward $101 $-1 #
coedge $-1 $249 $103 $246 $250 forward $65 $-1 #
coedge $-1 $103 $249 $251 $252 forward $65 $-1 #
coedge $-1 $174 $173 $103 $167 reversed $175 $-1 #
edge $-1 $253 -36.641893534448727 $254 36.641893534448727 $166 $255 forward 7 unknown #
coedge $-1 $105 $104 $256 $257 forward $41 $-1 #
coedge $-1 $258 $259 $104 $170 reversed $243 $-1 #
edge $-1 $177 -68.247932370982994 $260 68.247932370982994 $169 $261 forward 7 unknown #
coedge $-1 $163 $262 $105 $172 reversed $101 $-1 #
edge $-1 $263 -68.247932370982994 $176 68.247932370982994 $171 $264 forward 7 unknown #
coedge $-1 $166 $106 $262 $265 forward $175 $-1 #
coedge $-1 $106 $166 $258 $266 reversed $175 $-1 #
loop $-1 $-1 $173 $242 #
vertex $-1 $107 $267 #
vertex $-1 $107 $268 #
straight-curve $-1 68.247932370982994 0 13.552479638418056 0 1 0 I I #
face $-1 $269 $270 $25 $-1 $271 reversed single #
loop $-1 $-1 $184 $108 #
plane-surface $-1 0 -36.641893534448727 0 0 1 0 0 0 1 forward_v I I I I #
coedge $-1 $272 $273 $183 $274 forward $109 $-1 #
coedge $-1 $191 $111 $182 $274 reversed $69 $-1 #
coedge $-1 $189 $275 $111 $185 forward $180 $-1 #
edge $-1 $276 -7.5262398192090281 $192 -4.5262398192090281 $184 $277 forward 7 unknown #
coedge $-1 $113 $112 $278 $279 reversed $44 $-1 #
coedge $-1 $280 $281 $112 $188 forward $282 $-1 #
edge $-1 $283 -37.124460857670329 $193 -25.122482168954992 $187 $284 forward 7 unknown #
coedge $-1 $285 $184 $113 $190 forward $180 $-1 #
edge $-1 $192 25.122482168954992 $286 37.124460857670329 $189 $287 forward 7 unknown #
coedge $-1 $114 $183 $280 $288 reversed $69 $-1 #
vertex $-1 $190 $289 #
vertex $-1 $188 $290 #
straight-curve $-1 -56.245953682267654 0 -10.552479638418056 0 1 0 I I #
face $-1 $-1 $207 $26 $-1 $291 forward single #
loop $-1 $-1 $292 $116 #
plane-surface $-1 0 36.641893534448727 0 0 -1 0 0 0 -1 forward_v I I I I #
coedge $-1 $293 $294 $295 $296 reversed $117 $-1 #
coedge $-1 $297 $119 $121 $205 forward $73 $-1 #
coedge $-1 $119 $297 $293 $298 forward $73 $-1 #
coedge $-1 $295 $122 $119 $202 forward $207 $-1 #
edge $-1 $209 -17.669856100513893 $299 5.7049946690229554 $201 $300 forward 7 unknown #
coedge $-1 $301 $302 $120 $204 forward $196 $-1 #
edge $-1 $303 -72.06695709319537 $208 -62.717177100193645 $203 $304 forward 7 unknown #
edge $-1 $209 60.061201551005517 $303 73.283787068897453 $121 $305 forward 7 unknown #
coedge $-1 $122 $295 $301 $306 forward $207 $-1 #
loop $-1 $-1 $295 $195 #
vertex $-1 $204 $307 #
vertex $-1 $123 $308 #
straight-curve $-1 -23.652286816259362 40.669792015524742 13.552479638418049 0 -1 0 I I #
coedge $-1 $211 $211 $-1 $309 reversed $126 $-1 #
edge $-1 $310 0 $310 6.2831853071796004 $127 $311 forward 7 unknown #
vertex $-1 $130 $312 #
ellipse-curve $-1 -16.973758024963118 31.96700364642917 8.8775896419171882 0 0.70710678939079041 0.70710677298230451 2 0 0 1 I I #
coedge $-1 $215 $215 $-1 $313 reversed $133 $-1 #
edge $-1 $314 0 $314 6.2831853071796004 $134 $315 forward 7 unknown #
vertex $-1 $137 $316 #
ellipse-curve $-1 -6.9559648380187582 31.96700364642917 8.8775896419171882 0 0.70710678939079041 0.70710677298230451 2 0 0 1 I I #
face $-1 $-1 $317 $29 $-1 $318 reversed single #
loop $-1 $-1 $144 $138 #
plane-surface $-1 0 0 13.552479638418056 0 0 1 1 0 0 forward_v I I I I #
coedge $-1 $319 $320 $321 $322 reversed $139 $-1 #
coedge $-1 $323 $141 $143 $229 forward $87 $-1 #
coedge $-1 $141 $323 $319 $324 forward $87 $-1 #
coedge $-1 $321 $144 $141 $226 forward $220 $-1 #
edge $-1 $232 -5.7049946690229554 $325 17.669856100513893 $225 $326 forward 7 unknown #
coedge $-1 $327 $328 $142 $228 forward $317 $-1 #
edge $-1 $329 -46.157225398852162 $231 -36.807445405850437 $227 $330 forward 7 unknown #
edge $-1 $232 -13.222585517891973 $329 -4.0194366942304651e-014 $143 $331 forward 7 unknown #
coedge $-1 $144 $321 $327 $332 forward $220 $-1 #
vertex $-1 $145 $333 #
vertex $-1 $145 $334 #
straight-curve $-1 -0.27743604672251365 -66.579523108629957 13.552479638418056 0 1 0 I I #
coedge $-1 $234 $234 $-1 $335 reversed $148 $-1 #
edge $-1 $336 0 $336 6.2831853071796004 $149 $337 forward 7 unknown #
vertex $-1 $152 $338 #
ellipse-curve $-1 -16.973758024963118 -31.967003646429166 8.8775896419171954 0 -0.70710678939079041 0.70710677298230451 2 0 0 1 I I #
coedge $-1 $238 $238 $-1 $339 reversed $155 $-1 #
edge $-1 $340 0 $340 6.2831853071796004 $156 $341 forward 7 unknown #
vertex $-1 $159 $342 #
ellipse-curve $-1 -6.9559648380187582 -31.967003646429166 8.8775896419171954 0 -0.70710678939079041 0.70710677298230451 2 0 0 1 I I #
face $-1 $-1 $175 $24 $-1 $343 reversed single #
loop $-1 $-1 $258 $160 #
plane-surface $-1 0 36.641893534448727 0 0 -1 0 0 0 -1 forward_v I I I I #
coedge $-1 $344 $256 $259 $345 forward $161 $-1 #
coedge $-1 $262 $163 $164 $250 reversed $101 $-1 #
coedge $-1 $256 $344 $163 $248 reversed $161 $-1 #
edge $-1 $263 -13.552479638418056 $346 13.552479638418056 $247 $347 forward 7 unknown #
coedge $-1 $165 $164 $344 $348 forward $65 $-1 #
edge $-1 $254 -68.247932370982994 $346 68.247932370982994 $246 $349 forward 7 unknown #
coedge $-1 $259 $258 $165 $252 reversed $243 $-1 #
edge $-1 $350 -68.247932370982994 $253 68.247932370982994 $251 $351 forward 7 unknown #
vertex $-1 $167 $352 #
vertex $-1 $265 $353 #
straight-curve $-1 68.247932370982994 0 -13.552479638418056 0 -1 0 I I #
coedge $-1 $245 $247 $168 $257 reversed $161 $-1 #
edge $-1 $260 -36.641893534448727 $263 36.641893534448727 $256 $354 forward 7 unknown #
coedge $-1 $251 $169 $174 $266 forward $243 $-1 #
coedge $-1 $169 $251 $245 $345 reversed $243 $-1 #
vertex $-1 $170 $355 #
straight-curve $-1 0 36.641893534448727 13.552479638418056 -1 0 0 I I #
coedge $-1 $171 $246 $173 $265 reversed $101 $-1 #
vertex $-1 $257 $356 #
straight-curve $-1 0 -36.641893534448727 13.552479638418056 1 0 0 I I #
edge $-1 $176 -13.552479638418056 $254 13.552479638418056 $173 $357 forward 7 unknown #
edge $-1 $177 -13.552479638418056 $253 13.552479638418056 $174 $358 forward 7 unknown #
point $-1 68.247932370982994 -36.641893534448727 13.552479638418056 #
point $-1 68.247932370982994 36.641893534448727 13.552479638418056 #
face $-1 $-1 $282 $25 $-1 $359 reversed single #
loop $-1 $-1 $278 $179 #
plane-surface $-1 -68.247932370982994 0 0 1 0 0 0 0 -1 forward_v I I I I #
coedge $-1 $360 $182 $275 $361 forward $109 $-1 #
coedge $-1 $182 $360 $362 $363 forward $109 $-1 #
edge $-1 $364 -36.641893534448727 $276 36.641893534448727 $182 $365 forward 7 unknown #
coedge $-1 $184 $285 $272 $361 reversed $180 $-1 #
vertex $-1 $361 $366 #
straight-curve $-1 -56.245953682267654 -36.641893534448727 -6.0262398192090281 0 0 1 I I #
coedge $-1 $367 $368 $186 $279 forward $270 $-1 #
edge $-1 $286 -36.641893534448727 $283 36.641893534448727 $278 $369 forward 7 unknown #
coedge $-1 $362 $187 $191 $288 forward $282 $-1 #
coedge $-1 $187 $362 $367 $370 reversed $282 $-1 #
loop $-1 $-1 $280 $269 #
vertex $-1 $370 $371 #
straight-curve $-1 -31.123471513312662 36.641893534448727 -10.552479638418056 1 0 0 I I #
coedge $-1 $275 $189 $368 $372 forward $180 $-1 #
vertex $-1 $372 $373 #
straight-curve $-1 -31.123471513312662 -36.641893534448727 -10.552479638418056 -1 0 0 I I #
edge $-1 $193 4.5262398192090281 $364 7.5262398192090281 $280 $374 forward 7 unknown #
point $-1 -56.245953682267654 -36.641893534448727 -10.552479638418056 #
point $-1 -56.245953682267654 36.641893534448727 -10.552479638418056 #
plane-surface $-1 0 0 13.552479638418056 0 0 1 1 0 0 forward_v I I I I #
coedge $-1 $302 $301 $294 $375 forward $196 $-1 #
coedge $-1 $294 $198 $200 $298 reversed $117 $-1 #
coedge $-1 $198 $293 $292 $375 reversed $117 $-1 #
coedge $-1 $206 $201 $198 $296 forward $207 $-1 #
edge $-1 $299 -13.377678257115136 $376 -4.027898481076015 $295 $377 forward 7 unknown #
coedge $-1 $200 $199 $302 $378 reversed $73 $-1 #
edge $-1 $379 -73.283787068897453 $299 -60.061201551005517 $293 $380 forward 7 unknown #
vertex $-1 $202 $381 #
straight-curve $-1 -5.982430715745469 27.292113758409613 13.552479638418053 1 0 0 I I #
coedge $-1 $292 $203 $206 $306 reversed $196 $-1 #
coedge $-1 $203 $292 $297 $378 forward $196 $-1 #
vertex $-1 $204 $382 #
straight-curve $-1 -23.652286816259362 36.641893534448727 76.269656738611701 0 0 1 I I #
straight-curve $-1 -23.652286816259362 -15.177568651761675 56.022163034102718 0 0.70710677298230451 -0.70710678939079041 I I #
edge $-1 $376 0.27743604672251365 $208 23.652286816259362 $301 $383 forward 7 unknown #
point $-1 -23.652286816259362 36.641893534448727 13.552479638418056 #
point $-1 -23.652286816259362 27.292113758409606 13.552479638418056 #
edge $-1 $384 1 $384 0 $211 $-1 forward 7 unknown #
vertex $-1 $212 $385 #
ellipse-curve $-1 -16.973758024963118 28.452510048596448 5.3630961256386529 0 0.70710678939079041 0.70710677298230451 2 0 0 1 I I #
point $-1 -14.973758024963118 31.967003646429152 8.8775896419171687 #
edge $-1 $386 1 $386 0 $215 $-1 forward 7 unknown #
vertex $-1 $216 $387 #
ellipse-curve $-1 -6.9559648380187582 28.452510048596448 5.3630961256386529 0 0.70710678939079041 0.70710677298230451 2 0 0 1 I I #
point $-1 -4.9559648380187582 31.967003646429152 8.8775896419171687 #
loop $-1 $-1 $227 $219 #
plane-surface $-1 0 -36.641893534448727 0 0 1 0 0 0 1 forward_v I I I I #
coedge $-1 $320 $222 $224 $324 reversed $139 $-1 #
coedge $-1 $222 $319 $388 $389 reversed $139 $-1 #
coedge $-1 $230 $225 $222 $322 forward $220 $-1 #
edge $-1 $325 -39.287409350220344 $390 -29.93762957418123 $321 $391 forward 7 unknown #
coedge $-1 $224 $223 $328 $392 reversed $87 $-1 #
edge $-1 $393 4.0194366942304651e-014 $325 13.222585517891973 $319 $394 forward 7 unknown #
vertex $-1 $226 $395 #
straight-curve $-1 -5.982430715745469 -27.292113758409609 13.552479638418056 -1 0 0 I I #
coedge $-1 $388 $227 $230 $332 reversed $317 $-1 #
coedge $-1 $227 $388 $323 $392 forward $317 $-1 #
vertex $-1 $228 $396 #
straight-curve $-1 -0.27743604672251365 -36.641893534448727 50.359925044268493 0 0 1 I I #
straight-curve $-1 -0.27743604672251365 -36.641893534448755 4.2026996454163026 0 -0.70710677298230451 -0.70710678939079041 I I #
edge $-1 $390 -23.652286816259362 $231 -0.27743604672251365 $327 $397 forward 7 unknown #
point $-1 -0.27743604672251365 -36.641893534448727 13.552479638418056 #
point $-1 -0.27743604672251365 -27.292113758409609 13.552479638418056 #
edge $-1 $398 1 $398 0 $234 $-1 forward 7 unknown #
vertex $-1 $235 $399 #
ellipse-curve $-1 -16.973758024963118 -28.452510048596444 5.36309612563866 0 -0.70710678939079041 0.70710677298230451 2 0 0 1 I I #
point $-1 -14.973758024963118 -31.967003646429148 8.8775896419171758 #
edge $-1 $400 1 $400 0 $238 $-1 forward 7 unknown #
vertex $-1 $239 $401 #
ellipse-curve $-1 -6.9559648380187582 -28.452510048596444 5.36309612563866 0 -0.70710678939079041 0.70710677298230451 2 0 0 1 I I #
point $-1 -4.9559648380187582 -31.967003646429148 8.8775896419171758 #
plane-surface $-1 68.247932370982994 0 0 -1 0 0 0 0 1 forward_v I I I I #
coedge $-1 $247 $245 $249 $348 reversed $161 $-1 #
edge $-1 $260 -13.552479638418056 $350 13.552479638418056 $259 $402 forward 7 unknown #
vertex $-1 $348 $403 #
straight-curve $-1 -68.247932370982994 -36.641893534448727 0 0 0 -1 I I #
edge $-1 $346 -36.641893534448727 $350 36.641893534448727 $344 $404 forward 7 unknown #
straight-curve $-1 0 -36.641893534448727 -13.552479638418056 -1 0 0 I I #
vertex $-1 $252 $405 #
straight-curve $-1 0 36.641893534448727 -13.552479638418056 1 0 0 I I #
point $-1 68.247932370982994 36.641893534448727 -13.552479638418056 #
point $-1 68.247932370982994 -36.641893534448727 -13.552479638418056 #
straight-curve $-1 -68.247932370982994 0 13.552479638418056 0 -1 0 I I #
point $-1 -68.247932370982994 36.641893534448727 13.552479638418056 #
point $-1 -68.247932370982994 -36.641893534448727 13.552479638418056 #
straight-curve $-1 68.247932370982994 -36.641893534448727 0 0 0 -1 I I #
straight-curve $-1 68.247932370982994 36.641893534448727 0 0 0 -1 I I #
plane-surface $-1 0 36.641893534448727 0 0 -1 0 0 0 -1 forward_v I I I I #
coedge $-1 $273 $272 $406 $407 forward $109 $-1 #
edge $-1 $276 56.245953682267654 $408 68.247932370982994 $275 $409 forward 7 unknown #
coedge $-1 $281 $280 $273 $363 reversed $282 $-1 #
edge $-1 $410 -68.247932370982994 $364 -56.245953682267654 $362 $411 forward 7 unknown #
vertex $-1 $288 $412 #
straight-curve $-1 -56.245953682267654 0 -13.552479638418056 0 -1 0 I I #
point $-1 -56.245953682267654 -36.641893534448727 -13.552479638418056 #
coedge $-1 $406 $278 $281 $370 forward $270 $-1 #
coedge $-1 $278 $406 $285 $372 reversed $270 $-1 #
straight-curve $-1 -68.247932370982994 0 -10.552479638418056 0 1 0 I I #
edge $-1 $283 10.552479638418056 $410 13.552479638418056 $281 $413 forward 7 unknown #
point $-1 -68.247932370982994 36.641893534448727 -10.552479638418056 #
edge $-1 $286 10.552479638418056 $408 13.552479638418056 $368 $414 forward 7 unknown #
point $-1 -68.247932370982994 -36.641893534448727 -10.552479638418056 #
straight-curve $-1 -56.245953682267654 36.641893534448727 -6.0262398192090281 0 0 -1 I I #
edge $-1 $376 62.717177100193645 $379 72.06695709319537 $292 $415 forward 7 unknown #
vertex $-1 $306 $416 #
straight-curve $-1 -0.27743604672251365 40.669792015524742 13.552479638418049 0 1 0 I I #
edge $-1 $379 -5.7049946690229554 $303 17.669856100513893 $302 $417 forward 7 unknown #
vertex $-1 $378 $418 #
straight-curve $-1 -0.27743604672251365 -15.177568651761675 56.022163034102718 0 -0.70710677298230451 0.70710678939079041 I I #
point $-1 -0.27743604672251365 27.292113758409606 13.552479638418056 #
point $-1 -23.652286816259362 36.641893534448727 4.202699645416331 #
straight-curve $-1 0 36.641893534448727 13.552479638418056 -1 0 0 I I #
vertex $-1 $309 $419 #
point $-1 -14.973758024963118 28.452510048596448 5.3630961256386529 #
vertex $-1 $313 $420 #
point $-1 -4.9559648380187582 28.452510048596448 5.3630961256386529 #
coedge $-1 $328 $327 $320 $389 forward $317 $-1 #
edge $-1 $390 36.807445405850437 $393 46.157225398852162 $388 $421 forward 7 unknown #
vertex $-1 $332 $422 #
straight-curve $-1 -23.652286816259362 -66.579523108629957 13.552479638418056 0 -1 0 I I #
edge $-1 $393 -17.669856100513893 $329 5.7049946690229554 $328 $423 forward 7 unknown #
vertex $-1 $392 $424 #
straight-curve $-1 -23.652286816259362 -36.641893534448755 4.2026996454163026 0 0.70710677298230451 0.70710678939079041 I I #
point $-1 -23.652286816259362 -27.292113758409609 13.552479638418056 #
point $-1 -0.27743604672251365 -36.641893534448727 4.202699645416331 #
straight-curve $-1 0 -36.641893534448727 13.552479638418056 1 0 0 I I #
vertex $-1 $335 $425 #
point $-1 -14.973758024963118 -28.452510048596444 5.36309612563866 #
vertex $-1 $339 $426 #
point $-1 -4.9559648380187582 -28.452510048596444 5.36309612563866 #
straight-curve $-1 -68.247932370982994 36.641893534448727 0 0 0 -1 I I #
point $-1 -68.247932370982994 -36.641893534448727 -13.552479638418056 #
straight-curve $-1 -68.247932370982994 0 -13.552479638418056 0 1 0 I I #
point $-1 -68.247932370982994 36.641893534448727 -13.552479638418056 #
coedge $-1 $368 $367 $360 $407 reversed $270 $-1 #
edge $-1 $408 -36.641893534448727 $410 36.641893534448727 $406 $427 forward 7 unknown #
vertex $-1 $407 $428 #
straight-curve $-1 0 -36.641893534448727 -13.552479638418056 -1 0 0 I I #
vertex $-1 $363 $429 #
straight-curve $-1 0 36.641893534448727 -13.552479638418056 1 0 0 I I #
point $-1 -56.245953682267654 36.641893534448727 -13.552479638418056 #
straight-curve $-1 -68.247932370982994 36.641893534448727 0 0 0 -1 I I #
straight-curve $-1 -68.247932370982994 -36.641893534448727 0 0 0 -1 I I #
straight-curve $-1 -0.27743604672251365 36.641893534448727 76.269656738611701 0 0 -1 I I #
point $-1 -0.27743604672251365 36.641893534448727 13.552479638418056 #
straight-curve $-1 -5.982430715745469 36.641893534448727 4.2026996454163275 -1 0 0 I I #
point $-1 -0.27743604672251365 36.641893534448727 4.202699645416331 #
point $-1 -16.973758024963118 27.03829646981487 3.9488825796740441 #
point $-1 -6.9559648380187582 27.03829646981487 3.9488825796740441 #
straight-curve $-1 -23.652286816259362 -36.641893534448727 50.359925044268493 0 0 -1 I I #
point $-1 -23.652286816259362 -36.641893534448727 13.552479638418056 #
straight-curve $-1 -5.982430715745469 -36.641893534448727 4.2026996454163275 1 0 0 I I #
point $-1 -23.652286816259362 -36.641893534448727 4.202699645416331 #
point $-1 -16.973758024963118 -27.038296469814867 3.9488825796740512 #
point $-1 -6.9559648380187582 -27.038296469814867 3.9488825796740512 #
straight-curve $-1 -68.247932370982994 0 -13.552479638418056 0 1 0 I I #
point $-1 -68.247932370982994 -36.641893534448727 -13.552479638418056 #
point $-1 -68.247932370982994 36.641893534448727 -13.552479638418056 #
End-of-ACIS-data 