500 0 15 0           
7 Unknown 11 ACIS 5.0 NT 24 Fri Mar 26 16:17:00 1999 
-1 9.9999999999999995e-007 1e-010 
body $-1 $15 $-1 $16 #
body $-1 $17 $-1 $18 #
body $-1 $19 $-1 $20 #
body $-1 $21 $-1 $22 #
body $-1 $23 $-1 $24 #
body $-1 $25 $-1 $26 #
body $-1 $27 $-1 $28 #
body $-1 $29 $-1 $30 #
body $-1 $31 $-1 $32 #
body $-1 $33 $-1 $34 #
body $-1 $35 $-1 $36 #
body $-1 $37 $-1 $38 #
body $-1 $39 $-1 $40 #
body $-1 $41 $-1 $42 #
body $-1 $43 $-1 $44 #
lump $-1 $-1 $45 $0 #
transform $-1 1 0 0 0 1 0 0 0 1 71.006805627613147 40.109841203729886 16.936055145674771 1 rotate no_reflect no_shear #
lump $-1 $-1 $46 $1 #
transform $-1 1 0 0 0 1 0 0 0 1 71.006805627613147 40.109841203729886 16.936055145674771 1 rotate no_reflect no_shear #
lump $-1 $-1 $47 $2 #
transform $-1 1 0 0 0 1 0 0 0 1 71.006805627613147 40.109841203729886 16.936055145674771 1 rotate no_reflect no_shear #
lump $-1 $-1 $48 $3 #
transform $-1 1 0 0 0 1 0 0 0 1 71.006805627613147 40.109841203729886 16.936055145674771 1 rotate no_reflect no_shear #
lump $-1 $-1 $49 $4 #
transform $-1 1 0 0 0 1 0 0 0 1 71.006805627613147 40.109841203729886 16.936055145674771 1 rotate no_reflect no_shear #
lump $-1 $-1 $50 $5 #
transform $-1 1 0 0 0 1 0 0 0 1 71.006805627613147 40.109841203729886 16.936055145674771 1 rotate no_reflect no_shear #
lump $-1 $-1 $51 $6 #
transform $-1 1 0 0 0 1 0 0 0 1 71.006805627613147 40.109841203729886 16.936055145674771 1 rotate no_reflect no_shear #
lump $-1 $-1 $52 $7 #
transform $-1 1 0 0 0 1 0 0 0 1 71.006805627613147 40.109841203729886 16.936055145674771 1 rotate no_reflect no_shear #
lump $-1 $-1 $53 $8 #
transform $-1 1 0 0 0 1 0 0 0 1 71.006805627613147 40.109841203729886 16.936055145674771 1 rotate no_reflect no_shear #
lump $-1 $-1 $54 $9 #
transform $-1 1 0 0 0 1 0 0 0 1 71.006805627613147 40.109841203729886 16.936055145674771 1 rotate no_reflect no_shear #
lump $-1 $-1 $55 $10 #
transform $-1 1 0 0 0 1 0 0 0 1 71.006805627613147 40.109841203729886 16.936055145674771 1 rotate no_reflect no_shear #
lump $-1 $-1 $56 $11 #
transform $-1 1 0 0 0 1 0 0 0 1 71.006805627613147 40.109841203729886 16.936055145674771 1 rotate no_reflect no_shear #
lump $-1 $-1 $57 $12 #
transform $-1 1 0 0 0 1 0 0 0 1 71.006805627613147 40.109841203729886 16.936055145674771 1 rotate no_reflect no_shear #
lump $-1 $-1 $58 $13 #
transform $-1 1 0 0 0 1 0 0 0 1 71.006805627613147 40.109841203729886 16.936055145674771 1 rotate no_reflect no_shear #
lump $-1 $-1 $59 $14 #
transform $-1 1 0 0 0 1 0 0 0 1 71.006805627613147 40.109841203729886 16.936055145674771 1 rotate no_reflect no_shear #
shell $-1 $-1 $-1 $60 $-1 $15 #
shell $-1 $-1 $-1 $61 $-1 $17 #
shell $-1 $-1 $-1 $62 $-1 $19 #
shell $-1 $-1 $-1 $63 $-1 $21 #
shell $-1 $-1 $-1 $64 $-1 $23 #
shell $-1 $-1 $-1 $65 $-1 $25 #
shell $-1 $-1 $-1 $66 $-1 $27 #
shell $-1 $-1 $-1 $67 $-1 $29 #
shell $-1 $-1 $-1 $68 $-1 $31 #
shell $-1 $-1 $-1 $69 $-1 $33 #
shell $-1 $-1 $-1 $70 $-1 $35 #
shell $-1 $-1 $-1 $71 $-1 $37 #
shell $-1 $-1 $-1 $72 $-1 $39 #
shell $-1 $-1 $-1 $73 $-1 $41 #
shell $-1 $-1 $-1 $74 $-1 $43 #
face $-1 $75 $76 $45 $-1 $77 forward single #
face $-1 $78 $79 $46 $-1 $80 forward single #
face $-1 $81 $82 $47 $-1 $83 forward single #
face $-1 $84 $85 $48 $-1 $86 reversed single #
face $-1 $87 $88 $49 $-1 $89 forward single #
face $-1 $90 $91 $50 $-1 $92 forward single #
face $-1 $93 $94 $51 $-1 $95 reversed single #
face $-1 $96 $97 $52 $-1 $98 forward single #
face $-1 $99 $100 $53 $-1 $101 forward single #
face $-1 $102 $103 $54 $-1 $104 reversed single #
face $-1 $105 $106 $55 $-1 $107 forward single #
face $-1 $108 $109 $56 $-1 $110 forward single #
face $-1 $111 $112 $57 $-1 $113 reversed single #
face $-1 $114 $115 $58 $-1 $116 forward single #
face $-1 $117 $118 $59 $-1 $119 forward single #
face $-1 $120 $121 $45 $-1 $122 reversed single #
loop $-1 $-1 $123 $60 #
plane-surface $-1 0 0 16.936055145674771 0 0 1 1 0 0 forward_v I I I I #
face $-1 $124 $125 $46 $-1 $126 reversed single #
loop $-1 $-1 $127 $61 #
plane-surface $-1 0 -32.286714132200565 -11.453687613396191 0 0 1 1 0 0 forward_v I I I I #
face $-1 $128 $129 $47 $-1 $130 reversed single #
loop $-1 $-1 $131 $62 #
plane-surface $-1 0 32.286714132200572 -11.453687613396191 0 0 1 1 0 0 forward_v I I I I #
face $-1 $132 $133 $48 $-1 $134 reversed single #
loop $-1 $-1 $135 $63 #
plane-surface $-1 -167.85985676173846 3.5527136788005009e-015 106.92609537189463 0 -1 0 0.68199836817093118 0 -0.7313536940579346 forward_v I I I I #
face $-1 $136 $137 $49 $-1 $138 forward single #
loop $-1 $139 $140 $64 #
cone-surface $-1 -63.227782721624685 -5.6470317036629396 9.6343088127471219 0.68199836817093118 0 -0.7313536940579346 0.3656768470289673 0 0.34099918408546559 1 I I 0 1 0.5 forward I I I I #
face $-1 $141 $142 $50 $-1 $143 forward single #
loop $-1 $144 $145 $65 #
cone-surface $-1 -63.227782721624685 -2.258812681465173 9.6343088127471219 0.68199836817093118 0 -0.7313536940579346 0.3656768470289673 0 0.34099918408546559 1 I I 0 1 0.5 forward I I I I #
face $-1 $146 $147 $51 $-1 $148 reversed single #
loop $-1 $-1 $149 $66 #
plane-surface $-1 -71.006805627613133 -3.9529221925640599 3.0639161738774021 -0.68199836817093118 0 0.7313536940579346 0.7313536940579346 0 0.68199836817093118 forward_v I I I I #
face $-1 $150 $151 $52 $-1 $152 forward single #
loop $-1 $153 $154 $67 #
cone-surface $-1 -63.227782721624685 2.2588126814651801 9.6343088127471219 0.68199836817093118 0 -0.7313536940579346 0.3656768470289673 0 0.34099918408546559 1 I I 0 1 0.5 forward I I I I #
face $-1 $155 $156 $53 $-1 $157 forward single #
loop $-1 $158 $159 $68 #
cone-surface $-1 -63.227782721624685 5.6470317036629467 9.6343088127471219 0.68199836817093118 0 -0.7313536940579346 0.3656768470289673 0 0.34099918408546559 1 I I 0 1 0.5 forward I I I I #
face $-1 $160 $161 $54 $-1 $162 reversed single #
loop $-1 $-1 $163 $69 #
plane-surface $-1 63.997677563721226 3.5527136788005009e-015 203.77914650601997 0 -1 0 -0.68199836817093118 0 -0.7313536940579346 forward_v I I I I #
face $-1 $164 $165 $55 $-1 $166 forward single #
loop $-1 $167 $168 $70 #
cone-surface $-1 63.227782721624685 -5.6470317036629396 9.6343088127471397 -0.68199836817093118 0 -0.7313536940579346 0.3656768470289673 0 -0.34099918408546559 1 I I 0 1 0.5 forward I I I I #
face $-1 $169 $170 $56 $-1 $171 forward single #
loop $-1 $172 $173 $71 #
cone-surface $-1 63.227782721624685 -2.258812681465173 9.6343088127471397 -0.68199836817093118 0 -0.7313536940579346 0.3656768470289673 0 -0.34099918408546559 1 I I 0 1 0.5 forward I I I I #
face $-1 $174 $175 $57 $-1 $176 reversed single #
loop $-1 $-1 $177 $72 #
plane-surface $-1 63.997677563721226 7.9058443851281233 203.77914650601997 0 -1 0 -0.68199836817093118 0 -0.7313536940579346 forward_v I I I I #
face $-1 $178 $179 $58 $-1 $180 forward single #
loop $-1 $181 $182 $73 #
cone-surface $-1 63.227782721624685 2.2588126814651801 9.6343088127471397 -0.68199836817093118 0 -0.7313536940579346 0.3656768470289673 0 -0.34099918408546559 1 I I 0 1 0.5 forward I I I I #
face $-1 $183 $184 $59 $-1 $185 forward single #
loop $-1 $186 $187 $74 #
cone-surface $-1 63.227782721624685 5.6470317036629467 9.6343088127471397 -0.68199836817093118 0 -0.7313536940579346 0.3656768470289673 0 -0.34099918408546559 1 I I 0 1 0.5 forward I I I I #
face $-1 $188 $189 $45 $-1 $190 reversed single #
loop $-1 $-1 $191 $75 #
plane-surface $-1 0 0 -16.936055145674771 0 0 1 1 0 0 forward_v I I I I #
coedge $-1 $192 $193 $194 $195 forward $76 $-1 #
face $-1 $196 $197 $46 $-1 $198 reversed single #
loop $-1 $-1 $199 $78 #
plane-surface $-1 0 -24.463587060671241 -14.194871379535481 0 -1 0 0 0 -1 forward_v I I I I #
coedge $-1 $200 $201 $202 $203 reversed $79 $-1 #
face $-1 $204 $205 $47 $-1 $206 reversed single #
loop $-1 $-1 $207 $81 #
plane-surface $-1 0 24.463587060671252 -14.194871379535481 0 1 0 0 0 1 forward_v I I I I #
coedge $-1 $208 $209 $210 $211 reversed $82 $-1 #
face $-1 $212 $213 $48 $-1 $214 reversed single #
loop $-1 $-1 $215 $84 #
plane-surface $-1 -71.006805627613133 -3.9529221925640599 3.0639161738774021 -0.68199836817093118 0 0.7313536940579346 0.7313536940579346 0 0.68199836817093118 forward_v I I I I #
coedge $-1 $216 $217 $218 $219 reversed $85 $-1 #
face $-1 $-1 $220 $49 $-1 $221 forward single #
loop $-1 $222 $223 $87 #
cone-surface $-1 -62.716283945496485 -5.6470317036629396 9.0857935422036711 0.68199836817093118 0 -0.7313536940579346 0.18283842351448365 0 0.17049959204273279 1 I I -0.70710678118654746 0.70710678118654746 0.25 forward I I I I #
loop $-1 $-1 $224 $64 #
coedge $-1 $140 $140 $225 $226 reversed $88 $-1 #
face $-1 $-1 $227 $50 $-1 $228 forward single #
loop $-1 $229 $230 $90 #
cone-surface $-1 -62.716283945496485 -2.258812681465173 9.0857935422036711 0.68199836817093118 0 -0.7313536940579346 0.18283842351448365 0 0.17049959204273279 1 I I -0.70710678118654746 0.70710678118654746 0.25 forward I I I I #
loop $-1 $-1 $231 $65 #
coedge $-1 $145 $145 $232 $233 reversed $91 $-1 #
face $-1 $234 $235 $51 $-1 $236 reversed single #
loop $-1 $-1 $237 $93 #
plane-surface $-1 -167.85985676173846 7.9058443851281233 106.92609537189463 0 -1 0 0.68199836817093118 0 -0.7313536940579346 forward_v I I I I #
coedge $-1 $238 $239 $240 $241 reversed $94 $-1 #
face $-1 $-1 $242 $52 $-1 $243 forward single #
loop $-1 $244 $245 $96 #
cone-surface $-1 -62.716283945496485 2.2588126814651801 9.0857935422036711 0.68199836817093118 0 -0.7313536940579346 0.18283842351448365 0 0.17049959204273279 1 I I -0.70710678118654746 0.70710678118654746 0.25 forward I I I I #
loop $-1 $-1 $246 $67 #
coedge $-1 $154 $154 $247 $248 reversed $97 $-1 #
face $-1 $-1 $249 $53 $-1 $250 forward single #
loop $-1 $251 $252 $99 #
cone-surface $-1 -62.716283945496485 5.6470317036629467 9.0857935422036711 0.68199836817093118 0 -0.7313536940579346 0.18283842351448365 0 0.17049959204273279 1 I I -0.70710678118654746 0.70710678118654746 0.25 forward I I I I #
loop $-1 $-1 $253 $68 #
coedge $-1 $159 $159 $254 $255 reversed $100 $-1 #
face $-1 $256 $257 $54 $-1 $258 reversed single #
loop $-1 $-1 $259 $102 #
plane-surface $-1 -32.855373570404097 -3.9529221925640599 99.916967308002739 0.68199836817093118 0 0.7313536940579346 0.7313536940579346 0 -0.68199836817093118 forward_v I I I I #
coedge $-1 $260 $261 $262 $263 reversed $103 $-1 #
face $-1 $-1 $264 $55 $-1 $265 forward single #
loop $-1 $266 $267 $105 #
cone-surface $-1 62.716283945496485 -5.6470317036629396 9.0857935422036888 -0.68199836817093118 0 -0.7313536940579346 0.18283842351448365 0 -0.17049959204273279 1 I I -0.70710678118654746 0.70710678118654746 0.25 forward I I I I #
loop $-1 $-1 $268 $70 #
coedge $-1 $168 $168 $269 $270 reversed $106 $-1 #
face $-1 $-1 $271 $56 $-1 $272 forward single #
loop $-1 $273 $274 $108 #
cone-surface $-1 62.716283945496485 -2.258812681465173 9.0857935422036888 -0.68199836817093118 0 -0.7313536940579346 0.18283842351448365 0 -0.17049959204273279 1 I I -0.70710678118654746 0.70710678118654746 0.25 forward I I I I #
loop $-1 $-1 $275 $71 #
coedge $-1 $173 $173 $276 $277 reversed $109 $-1 #
face $-1 $278 $279 $57 $-1 $280 forward single #
loop $-1 $-1 $281 $111 #
plane-surface $-1 -32.855373570404097 -3.9529221925640599 99.916967308002739 0.68199836817093118 0 0.7313536940579346 0.7313536940579346 0 -0.68199836817093118 forward_v I I I I #
coedge $-1 $282 $283 $284 $285 reversed $112 $-1 #
face $-1 $-1 $286 $58 $-1 $287 forward single #
loop $-1 $288 $289 $114 #
cone-surface $-1 62.716283945496485 2.2588126814651801 9.0857935422036888 -0.68199836817093118 0 -0.7313536940579346 0.18283842351448365 0 -0.17049959204273279 1 I I -0.70710678118654746 0.70710678118654746 0.25 forward I I I I #
loop $-1 $-1 $290 $73 #
coedge $-1 $182 $182 $291 $292 reversed $115 $-1 #
face $-1 $-1 $293 $59 $-1 $294 forward single #
loop $-1 $295 $296 $117 #
cone-surface $-1 62.716283945496485 5.6470317036629467 9.0857935422036888 -0.68199836817093118 0 -0.7313536940579346 0.18283842351448365 0 -0.17049959204273279 1 I I -0.70710678118654746 0.70710678118654746 0.25 forward I I I I #
loop $-1 $-1 $297 $74 #
coedge $-1 $187 $187 $298 $299 reversed $118 $-1 #
face $-1 $300 $301 $45 $-1 $302 reversed single #
loop $-1 $-1 $303 $120 #
plane-surface $-1 0 -40.109841203729886 0 0 1 0 0 0 1 forward_v I I I I #
coedge $-1 $304 $305 $306 $307 forward $121 $-1 #
coedge $-1 $308 $123 $309 $310 forward $76 $-1 #
coedge $-1 $123 $308 $311 $312 forward $76 $-1 #
coedge $-1 $313 $314 $123 $195 reversed $315 $-1 #
edge $-1 $316 -40.109841203729886 $317 40.109841203729886 $194 $318 forward 7 unknown #
face $-1 $319 $320 $46 $-1 $321 reversed single #
loop $-1 $-1 $322 $124 #
plane-surface $-1 0 0 -16.936055145674771 0 0 1 1 0 0 forward_v I I I I #
coedge $-1 $323 $324 $325 $326 reversed $125 $-1 #
coedge $-1 $327 $127 $324 $328 forward $79 $-1 #
coedge $-1 $127 $327 $329 $330 reversed $79 $-1 #
coedge $-1 $331 $325 $127 $203 forward $320 $-1 #
edge $-1 $332 8.3202299945709584 $333 23.966484137629603 $202 $334 forward 7 unknown #
face $-1 $335 $336 $47 $-1 $337 reversed single #
loop $-1 $-1 $210 $128 #
plane-surface $-1 71.006805627613147 0 0 -1 0 0 0 0 1 forward_v I I I I #
coedge $-1 $338 $339 $340 $341 reversed $129 $-1 #
coedge $-1 $342 $131 $343 $344 reversed $82 $-1 #
coedge $-1 $131 $342 $339 $345 forward $82 $-1 #
coedge $-1 $346 $347 $131 $211 forward $205 $-1 #
edge $-1 $348 -23.966484137629607 $349 -8.3202299945709655 $210 $350 forward 7 unknown #
face $-1 $351 $352 $48 $-1 $353 reversed single #
loop $-1 $-1 $354 $132 #
plane-surface $-1 -167.85985676173846 -7.9058443851281233 106.92609537189463 0 1 0 -0.68199836817093118 0 0.7313536940579346 forward_v I I I I #
coedge $-1 $355 $356 $357 $358 reversed $133 $-1 #
coedge $-1 $217 $135 $359 $360 reversed $85 $-1 #
coedge $-1 $135 $216 $355 $361 reversed $85 $-1 #
coedge $-1 $357 $362 $135 $219 forward $352 $-1 #
edge $-1 $363 36.526992540272545 $364 50.399131512069928 $218 $365 forward 7 unknown #
loop $-1 $-1 $225 $136 #
plane-surface $-1 -71.006805627613133 -3.9529221925640599 3.0639161738774021 -0.68199836817093118 0 0.7313536940579346 0.7313536940579346 0 0.68199836817093118 forward_v I I I I #
loop $-1 $-1 $366 $87 #
coedge $-1 $223 $223 $224 $367 reversed $137 $-1 #
coedge $-1 $224 $224 $223 $367 forward $139 $-1 #
coedge $-1 $225 $225 $140 $226 forward $220 $-1 #
edge $-1 $368 0 $368 6.2831853071796004 $225 $369 forward 7 unknown #
loop $-1 $-1 $232 $141 #
plane-surface $-1 -71.006805627613133 -3.9529221925640599 3.0639161738774021 -0.68199836817093118 0 0.7313536940579346 0.7313536940579346 0 0.68199836817093118 forward_v I I I I #
loop $-1 $-1 $370 $90 #
coedge $-1 $230 $230 $231 $371 reversed $142 $-1 #
coedge $-1 $231 $231 $230 $371 forward $144 $-1 #
coedge $-1 $232 $232 $145 $233 forward $227 $-1 #
edge $-1 $372 0 $372 6.2831853071796004 $232 $373 forward 7 unknown #
face $-1 $374 $375 $51 $-1 $376 forward single #
loop $-1 $-1 $377 $146 #
plane-surface $-1 -71.006805627613147 0 0 1 0 0 0 0 -1 forward_v I I I I #
coedge $-1 $378 $379 $380 $381 reversed $147 $-1 #
coedge $-1 $382 $149 $383 $384 reversed $94 $-1 #
coedge $-1 $149 $382 $385 $386 reversed $94 $-1 #
coedge $-1 $387 $388 $149 $241 forward $375 $-1 #
edge $-1 $389 -1.9479204584885432e-014 $390 20.3404283928148 $240 $391 forward 7 unknown #
loop $-1 $-1 $247 $150 #
plane-surface $-1 -71.006805627613133 -3.9529221925640599 3.0639161738774021 -0.68199836817093118 0 0.7313536940579346 0.7313536940579346 0 0.68199836817093118 forward_v I I I I #
loop $-1 $-1 $392 $96 #
coedge $-1 $245 $245 $246 $393 reversed $151 $-1 #
coedge $-1 $246 $246 $245 $393 forward $153 $-1 #
coedge $-1 $247 $247 $154 $248 forward $242 $-1 #
edge $-1 $394 0 $394 6.2831853071796004 $247 $395 forward 7 unknown #
loop $-1 $-1 $254 $155 #
plane-surface $-1 -71.006805627613133 -3.9529221925640599 3.0639161738774021 -0.68199836817093118 0 0.7313536940579346 0.7313536940579346 0 0.68199836817093118 forward_v I I I I #
loop $-1 $-1 $396 $99 #
coedge $-1 $252 $252 $253 $397 reversed $156 $-1 #
coedge $-1 $253 $253 $252 $397 forward $158 $-1 #
coedge $-1 $254 $254 $159 $255 forward $249 $-1 #
edge $-1 $398 0 $398 6.2831853071796004 $254 $399 forward 7 unknown #
face $-1 $400 $401 $54 $-1 $402 forward single #
loop $-1 $-1 $403 $160 #
plane-surface $-1 63.997677563721226 -7.9058443851281233 203.77914650601997 0 1 0 0.68199836817093118 0 0.7313536940579346 forward_v I I I I #
coedge $-1 $404 $405 $406 $407 reversed $161 $-1 #
coedge $-1 $261 $163 $408 $409 reversed $103 $-1 #
coedge $-1 $163 $260 $404 $410 reversed $103 $-1 #
coedge $-1 $406 $411 $163 $263 forward $401 $-1 #
edge $-1 $412 -39.007966845752534 $413 -24.131919401946533 $262 $414 forward 7 unknown #
loop $-1 $-1 $269 $164 #
plane-surface $-1 -32.855373570404097 -3.9529221925640599 99.916967308002739 0.68199836817093118 0 0.7313536940579346 0.7313536940579346 0 -0.68199836817093118 forward_v I I I I #
loop $-1 $-1 $415 $105 #
coedge $-1 $267 $267 $268 $416 reversed $165 $-1 #
coedge $-1 $268 $268 $267 $416 forward $167 $-1 #
coedge $-1 $269 $269 $168 $270 forward $264 $-1 #
edge $-1 $417 0 $417 6.2831853071796004 $269 $418 forward 7 unknown #
loop $-1 $-1 $276 $169 #
plane-surface $-1 -32.855373570404097 -3.9529221925640599 99.916967308002739 0.68199836817093118 0 0.7313536940579346 0.7313536940579346 0 -0.68199836817093118 forward_v I I I I #
loop $-1 $-1 $419 $108 #
coedge $-1 $274 $274 $275 $420 reversed $170 $-1 #
coedge $-1 $275 $275 $274 $420 forward $172 $-1 #
coedge $-1 $276 $276 $173 $277 forward $271 $-1 #
edge $-1 $421 0 $421 6.2831853071796004 $276 $422 forward 7 unknown #
face $-1 $423 $424 $57 $-1 $425 forward single #
loop $-1 $-1 $426 $174 #
plane-surface $-1 0 0 16.936055145674771 0 0 1 1 0 0 forward_v I I I I #
coedge $-1 $427 $428 $429 $430 reversed $175 $-1 #
coedge $-1 $283 $177 $431 $432 reversed $112 $-1 #
coedge $-1 $177 $282 $426 $433 reversed $112 $-1 #
coedge $-1 $434 $435 $177 $285 forward $436 $-1 #
edge $-1 $437 -98.825657079132583 $438 -84.953518107335213 $284 $439 forward 7 unknown #
loop $-1 $-1 $291 $178 #
plane-surface $-1 -32.855373570404097 -3.9529221925640599 99.916967308002739 0.68199836817093118 0 0.7313536940579346 0.7313536940579346 0 -0.68199836817093118 forward_v I I I I #
loop $-1 $-1 $440 $114 #
coedge $-1 $289 $289 $290 $441 reversed $179 $-1 #
coedge $-1 $290 $290 $289 $441 forward $181 $-1 #
coedge $-1 $291 $291 $182 $292 forward $286 $-1 #
edge $-1 $442 0 $442 6.2831853071796004 $291 $443 forward 7 unknown #
loop $-1 $-1 $298 $183 #
plane-surface $-1 -32.855373570404097 -3.9529221925640599 99.916967308002739 0.68199836817093118 0 0.7313536940579346 0.7313536940579346 0 -0.68199836817093118 forward_v I I I I #
loop $-1 $-1 $444 $117 #
coedge $-1 $296 $296 $297 $445 reversed $184 $-1 #
coedge $-1 $297 $297 $296 $445 forward $186 $-1 #
coedge $-1 $298 $298 $187 $299 forward $293 $-1 #
edge $-1 $446 0 $446 6.2831853071796004 $298 $447 forward 7 unknown #
face $-1 $448 $449 $45 $-1 $450 reversed single #
loop $-1 $-1 $451 $188 #
plane-surface $-1 -71.006805627613147 0 0 1 0 0 0 0 -1 forward_v I I I I #
coedge $-1 $452 $311 $453 $454 forward $189 $-1 #
coedge $-1 $455 $191 $452 $456 forward $121 $-1 #
coedge $-1 $191 $455 $457 $458 forward $121 $-1 #
coedge $-1 $314 $313 $191 $307 reversed $315 $-1 #
edge $-1 $459 -40.109841203729886 $460 40.109841203729886 $306 $461 forward 7 unknown #
coedge $-1 $193 $192 $462 $463 forward $76 $-1 #
coedge $-1 $464 $465 $192 $310 reversed $449 $-1 #
edge $-1 $317 -71.006805627613147 $466 71.006805627613147 $309 $467 forward 7 unknown #
coedge $-1 $303 $468 $193 $312 reversed $189 $-1 #
edge $-1 $469 -71.006805627613147 $316 71.006805627613147 $311 $470 forward 7 unknown #
coedge $-1 $306 $194 $468 $471 forward $315 $-1 #
coedge $-1 $194 $306 $464 $472 reversed $315 $-1 #
loop $-1 $-1 $313 $448 #
vertex $-1 $195 $473 #
vertex $-1 $195 $474 #
straight-curve $-1 71.006805627613147 0 16.936055145674771 0 1 0 I I #
face $-1 $475 $476 $46 $-1 $477 reversed single #
loop $-1 $-1 $325 $196 #
plane-surface $-1 71.006805627613147 0 0 -1 0 0 0 0 1 forward_v I I I I #
coedge $-1 $478 $479 $323 $480 forward $197 $-1 #
coedge $-1 $481 $199 $322 $480 reversed $125 $-1 #
coedge $-1 $199 $481 $200 $328 reversed $125 $-1 #
coedge $-1 $202 $482 $199 $326 forward $320 $-1 #
edge $-1 $483 -9.8386194559070308 $332 -4.3562519236284505 $325 $484 forward 7 unknown #
coedge $-1 $201 $200 $485 $486 reversed $79 $-1 #
edge $-1 $332 -71.006805627613147 $487 71.006805627613147 $324 $488 forward 7 unknown #
coedge $-1 $489 $490 $201 $330 forward $476 $-1 #
edge $-1 $333 -71.006805627613147 $491 71.006805627613147 $329 $492 forward 7 unknown #
coedge $-1 $482 $202 $490 $493 forward $320 $-1 #
vertex $-1 $203 $494 #
vertex $-1 $493 $495 #
straight-curve $-1 71.006805627613147 -16.143357066100283 -11.453687613396191 0 -1 0 I I #
face $-1 $496 $497 $47 $-1 $498 reversed single #
loop $-1 $-1 $499 $204 #
plane-surface $-1 0 0 -16.936055145674771 0 0 1 1 0 0 forward_v I I I I #
coedge $-1 $500 $207 $499 $501 reversed $129 $-1 #
coedge $-1 $207 $500 $209 $345 reversed $129 $-1 #
coedge $-1 $502 $503 $207 $341 forward $497 $-1 #
edge $-1 $504 -9.8386194559070308 $505 -4.3562519236284505 $340 $506 forward 7 unknown #
coedge $-1 $209 $208 $502 $507 reversed $82 $-1 #
coedge $-1 $508 $509 $208 $344 forward $510 $-1 #
edge $-1 $511 -71.006805627613147 $348 71.006805627613147 $343 $512 forward 7 unknown #
edge $-1 $505 -71.006805627613147 $349 71.006805627613147 $339 $513 forward 7 unknown #
coedge $-1 $514 $210 $500 $515 forward $205 $-1 #
coedge $-1 $210 $514 $508 $516 reversed $205 $-1 #
vertex $-1 $516 $517 #
vertex $-1 $211 $518 #
straight-curve $-1 71.006805627613147 16.143357066100286 -11.453687613396191 0 -1 0 I I #
face $-1 $-1 $519 $48 $-1 $520 forward single #
loop $-1 $-1 $218 $212 #
plane-surface $-1 -71.006805627613147 0 0 1 0 0 0 0 -1 forward_v I I I I #
coedge $-1 $521 $522 $523 $524 reversed $213 $-1 #
coedge $-1 $525 $215 $217 $361 forward $133 $-1 #
coedge $-1 $215 $525 $521 $526 forward $133 $-1 #
coedge $-1 $523 $218 $215 $358 forward $352 $-1 #
edge $-1 $364 -1.9764610962820335 $527 5.9293832888460933 $357 $528 forward 7 unknown #
coedge $-1 $529 $530 $216 $360 forward $519 $-1 #
edge $-1 $531 -27.799170197062097 $363 -12.923122753256081 $359 $532 forward 7 unknown #
edge $-1 $364 -1.9479204584885432e-014 $531 20.3404283928148 $217 $533 forward 7 unknown #
coedge $-1 $218 $523 $529 $534 reversed $352 $-1 #
vertex $-1 $534 $535 #
vertex $-1 $219 $536 #
straight-curve $-1 -71.006805627613147 3.5527136788005009e-015 53.463047685947316 0 0 -1 I I #
coedge $-1 $366 $366 $-1 $537 reversed $222 $-1 #
edge $-1 $538 0 $538 6.2831853071796004 $223 $539 forward 7 unknown #
vertex $-1 $226 $540 #
ellipse-curve $-1 -63.568781905710139 -5.6470317036629396 9.9999856597760797 -0.68199836817093118 0 0.7313536940579346 0.3656768470289673 0 0.34099918408546559 1 I I #
coedge $-1 $370 $370 $-1 $541 reversed $229 $-1 #
edge $-1 $542 0 $542 6.2831853071796004 $230 $543 forward 7 unknown #
vertex $-1 $233 $544 #
ellipse-curve $-1 -63.568781905710139 -2.258812681465173 9.9999856597760797 -0.68199836817093118 0 0.7313536940579346 0.3656768470289673 0 0.34099918408546559 1 I I #
face $-1 $-1 $545 $51 $-1 $546 forward single #
loop $-1 $-1 $388 $234 #
plane-surface $-1 -167.85985676173846 3.5527136788005009e-015 106.92609537189463 0 -1 0 0.68199836817093118 0 -0.7313536940579346 forward_v I I I I #
coedge $-1 $383 $547 $379 $548 forward $235 $-1 #
coedge $-1 $379 $237 $382 $549 reversed $147 $-1 #
coedge $-1 $237 $378 $377 $548 reversed $147 $-1 #
coedge $-1 $550 $385 $237 $381 forward $545 $-1 #
edge $-1 $551 -27.799170197062097 $552 -12.923122753256081 $380 $553 forward 7 unknown #
coedge $-1 $239 $238 $378 $549 forward $94 $-1 #
coedge $-1 $554 $377 $238 $384 forward $235 $-1 #
edge $-1 $555 -9.8823054814101532 $389 -1.9764610962820335 $383 $556 forward 7 unknown #
coedge $-1 $380 $557 $239 $386 forward $545 $-1 #
edge $-1 $390 1.9764610962820335 $551 9.8823054814101532 $385 $558 forward 7 unknown #
coedge $-1 $388 $240 $557 $559 reversed $375 $-1 #
coedge $-1 $240 $387 $554 $560 reversed $375 $-1 #
vertex $-1 $384 $561 #
vertex $-1 $386 $562 #
straight-curve $-1 -71.006805627613133 3.5527136788005009e-015 3.0639161738774021 0.7313536940579346 0 0.68199836817093118 I I #
coedge $-1 $392 $392 $-1 $563 reversed $244 $-1 #
edge $-1 $564 0 $564 6.2831853071796004 $245 $565 forward 7 unknown #
vertex $-1 $248 $566 #
ellipse-curve $-1 -63.568781905710139 2.2588126814651801 9.9999856597760797 -0.68199836817093118 0 0.7313536940579346 0.3656768470289673 0 0.34099918408546559 1 I I #
coedge $-1 $396 $396 $-1 $567 reversed $251 $-1 #
edge $-1 $568 0 $568 6.2831853071796004 $252 $569 forward 7 unknown #
vertex $-1 $255 $570 #
ellipse-curve $-1 -63.568781905710139 5.6470317036629467 9.9999856597760797 -0.68199836817093118 0 0.7313536940579346 0.3656768470289673 0 0.34099918408546559 1 I I #
face $-1 $-1 $571 $54 $-1 $572 reversed single #
loop $-1 $-1 $262 $256 #
plane-surface $-1 0 0 16.936055145674771 0 0 1 1 0 0 forward_v I I I I #
coedge $-1 $573 $574 $575 $576 reversed $257 $-1 #
coedge $-1 $577 $259 $261 $410 forward $161 $-1 #
coedge $-1 $259 $577 $573 $578 forward $161 $-1 #
coedge $-1 $575 $262 $259 $407 forward $401 $-1 #
edge $-1 $413 -1.9764610962820335 $579 5.9293832888460933 $406 $580 forward 7 unknown #
coedge $-1 $581 $582 $260 $409 forward $571 $-1 #
edge $-1 $583 -98.825657079132583 $412 -84.953518107335213 $408 $584 forward 7 unknown #
edge $-1 $413 121.67318286241152 $583 142.01361125522629 $261 $585 forward 7 unknown #
coedge $-1 $262 $575 $581 $586 forward $401 $-1 #
vertex $-1 $263 $587 #
vertex $-1 $263 $588 #
straight-curve $-1 31.998838781860613 3.5527136788005009e-015 16.936055145674771 -1 0 0 I I #
coedge $-1 $415 $415 $-1 $589 reversed $266 $-1 #
edge $-1 $590 0 $590 6.2831853071796004 $267 $591 forward 7 unknown #
vertex $-1 $270 $592 #
ellipse-curve $-1 63.568781905710154 -5.6470317036629396 9.9999856597761063 0.68199836817093118 0 0.7313536940579346 0.3656768470289673 0 -0.34099918408546559 1 I I #
coedge $-1 $419 $419 $-1 $593 reversed $273 $-1 #
edge $-1 $594 0 $594 6.2831853071796004 $274 $595 forward 7 unknown #
vertex $-1 $277 $596 #
ellipse-curve $-1 63.568781905710154 -2.258812681465173 9.9999856597761063 0.68199836817093118 0 0.7313536940579346 0.3656768470289673 0 -0.34099918408546559 1 I I #
face $-1 $-1 $436 $57 $-1 $597 reversed single #
loop $-1 $-1 $598 $278 #
plane-surface $-1 63.997677563721226 3.5527136788005009e-015 203.77914650601997 0 -1 0 -0.68199836817093118 0 -0.7313536940579346 forward_v I I I I #
coedge $-1 $599 $600 $283 $433 forward $279 $-1 #
coedge $-1 $431 $281 $599 $601 reversed $175 $-1 #
coedge $-1 $281 $431 $435 $602 reversed $175 $-1 #
coedge $-1 $603 $598 $281 $430 forward $424 $-1 #
edge $-1 $604 121.67318286241152 $605 142.01361125522629 $429 $606 forward 7 unknown #
coedge $-1 $428 $427 $282 $432 forward $175 $-1 #
edge $-1 $607 121.67318286241152 $437 142.01361125522629 $282 $608 forward 7 unknown #
edge $-1 $438 -39.007966845752534 $607 -24.131919401946533 $426 $609 forward 7 unknown #
coedge $-1 $610 $284 $600 $611 reversed $436 $-1 #
coedge $-1 $284 $610 $428 $602 forward $436 $-1 #
loop $-1 $-1 $284 $423 #
vertex $-1 $285 $612 #
vertex $-1 $433 $613 #
straight-curve $-1 71.006805627613147 7.9058443851281233 101.88957325300998 0 0 1 I I #
coedge $-1 $440 $440 $-1 $614 reversed $288 $-1 #
edge $-1 $615 0 $615 6.2831853071796004 $289 $616 forward 7 unknown #
vertex $-1 $292 $617 #
ellipse-curve $-1 63.568781905710154 2.2588126814651801 9.9999856597761063 0.68199836817093118 0 0.7313536940579346 0.3656768470289673 0 -0.34099918408546559 1 I I #
coedge $-1 $444 $444 $-1 $618 reversed $295 $-1 #
edge $-1 $619 0 $619 6.2831853071796004 $296 $620 forward 7 unknown #
vertex $-1 $299 $621 #
ellipse-curve $-1 63.568781905710154 5.6470317036629467 9.9999856597761063 0.68199836817093118 0 0.7313536940579346 0.3656768470289673 0 -0.34099918408546559 1 I I #
face $-1 $-1 $315 $45 $-1 $622 reversed single #
loop $-1 $-1 $464 $300 #
plane-surface $-1 0 40.109841203729886 0 0 -1 0 0 0 -1 forward_v I I I I #
coedge $-1 $623 $462 $465 $624 forward $301 $-1 #
coedge $-1 $468 $303 $304 $456 reversed $189 $-1 #
coedge $-1 $462 $623 $303 $454 reversed $301 $-1 #
edge $-1 $469 -16.936055145674771 $625 16.936055145674771 $453 $626 forward 7 unknown #
coedge $-1 $305 $304 $623 $627 forward $121 $-1 #
edge $-1 $460 -71.006805627613147 $625 71.006805627613147 $452 $628 forward 7 unknown #
coedge $-1 $465 $464 $305 $458 reversed $449 $-1 #
edge $-1 $629 -71.006805627613147 $459 71.006805627613147 $457 $630 forward 7 unknown #
vertex $-1 $307 $631 #
vertex $-1 $471 $632 #
straight-curve $-1 71.006805627613147 0 -16.936055145674771 0 -1 0 I I #
coedge $-1 $451 $453 $308 $463 reversed $301 $-1 #
edge $-1 $466 -40.109841203729886 $469 40.109841203729886 $462 $633 forward 7 unknown #
coedge $-1 $457 $309 $314 $472 forward $449 $-1 #
coedge $-1 $309 $457 $451 $624 reversed $449 $-1 #
vertex $-1 $310 $634 #
straight-curve $-1 0 40.109841203729886 16.936055145674771 -1 0 0 I I #
coedge $-1 $311 $452 $313 $471 reversed $189 $-1 #
vertex $-1 $463 $635 #
straight-curve $-1 0 -40.109841203729886 16.936055145674771 1 0 0 I I #
edge $-1 $316 -16.936055145674771 $460 16.936055145674771 $313 $636 forward 7 unknown #
edge $-1 $317 -16.936055145674771 $459 16.936055145674771 $314 $637 forward 7 unknown #
point $-1 71.006805627613147 -40.109841203729886 16.936055145674771 #
point $-1 71.006805627613147 40.109841203729886 16.936055145674771 #
face $-1 $-1 $638 $46 $-1 $639 reversed single #
loop $-1 $-1 $329 $319 #
plane-surface $-1 0 -40.109841203729886 0 0 1 0 0 0 1 forward_v I I I I #
coedge $-1 $640 $322 $482 $641 forward $197 $-1 #
coedge $-1 $322 $640 $642 $643 forward $197 $-1 #
edge $-1 $644 -71.006805627613147 $483 71.006805627613147 $322 $645 forward 7 unknown #
coedge $-1 $324 $323 $646 $647 reversed $125 $-1 #
coedge $-1 $325 $331 $478 $641 reversed $320 $-1 #
vertex $-1 $641 $648 #
straight-curve $-1 71.006805627613147 -24.463587060671241 -7.0974356897677406 0 0 1 I I #
coedge $-1 $646 $649 $327 $486 forward $638 $-1 #
edge $-1 $491 -23.966484137629603 $487 -8.3202299945709584 $485 $650 forward 7 unknown #
vertex $-1 $486 $651 #
straight-curve $-1 0 -24.463587060671241 -11.453687613396191 -1 0 0 I I #
coedge $-1 $652 $329 $649 $653 forward $476 $-1 #
coedge $-1 $329 $652 $331 $493 reversed $476 $-1 #
vertex $-1 $653 $654 #
straight-curve $-1 0 -40.109841203729886 -11.453687613396191 -1 0 0 I I #
edge $-1 $333 11.453687613396191 $655 16.936055145674771 $331 $656 forward 7 unknown #
point $-1 71.006805627613147 -24.463587060671241 -11.453687613396191 #
point $-1 71.006805627613147 -40.109841203729886 -11.453687613396191 #
face $-1 $-1 $510 $47 $-1 $657 reversed single #
loop $-1 $-1 $502 $335 #
plane-surface $-1 -71.006805627613147 0 0 1 0 0 0 0 -1 forward_v I I I I #
coedge $-1 $658 $659 $338 $501 forward $336 $-1 #
coedge $-1 $339 $338 $346 $515 reversed $129 $-1 #
edge $-1 $660 -71.006805627613147 $504 71.006805627613147 $499 $661 forward 7 unknown #
coedge $-1 $662 $340 $342 $507 forward $497 $-1 #
coedge $-1 $340 $662 $658 $663 reversed $497 $-1 #
vertex $-1 $663 $664 #
vertex $-1 $507 $665 #
straight-curve $-1 -71.006805627613147 24.463587060671252 -7.0974356897677406 0 0 1 I I #
edge $-1 $505 8.3202299945709655 $511 23.966484137629607 $502 $666 forward 7 unknown #
coedge $-1 $667 $343 $347 $516 forward $510 $-1 #
coedge $-1 $343 $667 $662 $668 reversed $510 $-1 #
loop $-1 $-1 $343 $496 #
vertex $-1 $668 $669 #
straight-curve $-1 0 40.109841203729886 -11.453687613396191 1 0 0 I I #
straight-curve $-1 0 24.463587060671252 -11.453687613396191 1 0 0 I I #
coedge $-1 $347 $346 $659 $670 reversed $205 $-1 #
edge $-1 $349 4.3562519236284505 $660 9.8386194559070308 $346 $671 forward 7 unknown #
edge $-1 $348 11.453687613396191 $672 16.936055145674771 $347 $673 forward 7 unknown #
point $-1 71.006805627613147 40.109841203729893 -11.453687613396191 #
point $-1 71.006805627613147 24.463587060671252 -11.453687613396191 #
loop $-1 $-1 $359 $351 #
plane-surface $-1 0 0 16.936055145674771 0 0 1 1 0 0 forward_v I I I I #
coedge $-1 $522 $354 $356 $526 reversed $213 $-1 #
coedge $-1 $354 $521 $674 $675 reversed $213 $-1 #
coedge $-1 $362 $357 $354 $524 forward $352 $-1 #
edge $-1 $527 -50.399131512069928 $676 -36.526992540272545 $523 $677 forward 7 unknown #
coedge $-1 $356 $355 $530 $678 reversed $133 $-1 #
edge $-1 $679 -20.3404283928148 $527 1.9479204584885432e-014 $521 $680 forward 7 unknown #
vertex $-1 $358 $681 #
straight-curve $-1 -71.006805627613147 -1.9764610962820299 3.0639161738773999 0 -1 0 I I #
coedge $-1 $674 $359 $362 $534 forward $519 $-1 #
coedge $-1 $359 $674 $525 $678 forward $519 $-1 #
vertex $-1 $360 $682 #
straight-curve $-1 -83.929928380869228 3.5527136788005009e-015 16.936055145674771 -1 0 0 I I #
straight-curve $-1 -71.006805627613133 3.5527136788005009e-015 3.0639161738774021 0.7313536940579346 0 0.68199836817093118 I I #
edge $-1 $363 -3.5527136788005009e-015 $676 7.9058443851281233 $362 $683 forward 7 unknown #
point $-1 -71.006805627613147 3.5527136788005009e-015 16.936055145674771 #
point $-1 -71.006805627613147 3.5527136788005009e-015 3.0639161738773888 #
edge $-1 $684 1 $684 0 $366 $-1 forward 7 unknown #
vertex $-1 $367 $685 #
ellipse-curve $-1 -62.886783537539216 -5.6470317036629396 9.2686319657181553 -0.68199836817093118 0 0.7313536940579346 0.3656768470289673 0 0.34099918408546559 1 I I #
point $-1 -63.203105058681182 -5.6470317036629396 10.340984843861555 #
edge $-1 $686 1 $686 0 $370 $-1 forward 7 unknown #
vertex $-1 $371 $687 #
ellipse-curve $-1 -62.886783537539216 -2.258812681465173 9.2686319657181553 -0.68199836817093118 0 0.7313536940579346 0.3656768470289673 0 0.34099918408546559 1 I I #
point $-1 -63.203105058681182 -2.258812681465173 10.340984843861555 #
loop $-1 $-1 $380 $374 #
plane-surface $-1 0 0 16.936055145674771 0 0 1 1 0 0 forward_v I I I I #
coedge $-1 $377 $554 $550 $688 reversed $235 $-1 #
edge $-1 $552 36.526992540272545 $555 50.399131512069928 $377 $689 forward 7 unknown #
edge $-1 $555 -1.9479204584885432e-014 $551 20.3404283928148 $378 $690 forward 7 unknown #
coedge $-1 $557 $380 $547 $688 forward $545 $-1 #
vertex $-1 $381 $691 #
vertex $-1 $688 $692 #
straight-curve $-1 -83.929928380869228 7.9058443851281233 16.936055145674771 -1 0 0 I I #
coedge $-1 $547 $383 $388 $560 forward $235 $-1 #
vertex $-1 $548 $693 #
straight-curve $-1 -71.006805627613147 -1.9764610962820299 3.0639161738773999 0 -1 0 I I #
coedge $-1 $385 $550 $387 $559 forward $545 $-1 #
straight-curve $-1 -56.130758183807124 -1.9764610962820299 16.936055145674771 0 1 0 I I #
edge $-1 $694 12.923122753256081 $390 27.799170197062097 $557 $695 forward 7 unknown #
edge $-1 $389 -50.399131512069928 $694 -36.526992540272545 $554 $696 forward 7 unknown #
point $-1 -71.006805627613147 3.5527136788005009e-015 3.0639161738773888 #
point $-1 -56.130758183807131 3.5527136788005009e-015 16.936055145674771 #
edge $-1 $697 1 $697 0 $392 $-1 forward 7 unknown #
vertex $-1 $393 $698 #
ellipse-curve $-1 -62.886783537539216 2.2588126814651801 9.2686319657181553 -0.68199836817093118 0 0.7313536940579346 0.3656768470289673 0 0.34099918408546559 1 I I #
point $-1 -63.203105058681182 2.2588126814651801 10.340984843861555 #
edge $-1 $699 1 $699 0 $396 $-1 forward 7 unknown #
vertex $-1 $397 $700 #
ellipse-curve $-1 -62.886783537539216 5.6470317036629467 9.2686319657181553 -0.68199836817093118 0 0.7313536940579346 0.3656768470289673 0 0.34099918408546559 1 I I #
point $-1 -63.203105058681182 5.6470317036629467 10.340984843861555 #
loop $-1 $-1 $408 $400 #
plane-surface $-1 71.006805627613147 0 0 -1 0 0 0 0 1 forward_v I I I I #
coedge $-1 $574 $403 $405 $578 reversed $257 $-1 #
coedge $-1 $403 $573 $701 $702 reversed $257 $-1 #
coedge $-1 $411 $406 $403 $576 forward $401 $-1 #
edge $-1 $579 24.131919401946533 $703 39.007966845752534 $575 $704 forward 7 unknown #
coedge $-1 $405 $404 $582 $705 reversed $161 $-1 #
edge $-1 $706 -142.01361125522629 $579 -121.67318286241152 $573 $707 forward 7 unknown #
vertex $-1 $407 $708 #
straight-curve $-1 56.130758183807139 -1.9764610962820299 16.936055145674771 0 -1 0 I I #
coedge $-1 $701 $408 $411 $586 reversed $571 $-1 #
coedge $-1 $408 $701 $577 $705 forward $571 $-1 #
vertex $-1 $409 $709 #
straight-curve $-1 71.006805627613147 3.5527136788005009e-015 101.88957325300998 0 0 1 I I #
straight-curve $-1 -32.855373570404097 3.5527136788005009e-015 99.916967308002739 0.7313536940579346 0 -0.68199836817093118 I I #
edge $-1 $703 -7.9058443851281233 $412 3.5527136788005009e-015 $581 $710 forward 7 unknown #
point $-1 71.006805627613147 3.5527136788005009e-015 16.936055145674771 #
point $-1 56.130758183807146 3.5527136788005009e-015 16.936055145674771 #
edge $-1 $711 1 $711 0 $415 $-1 forward 7 unknown #
vertex $-1 $416 $712 #
ellipse-curve $-1 62.886783537539216 -5.6470317036629396 9.268631965718173 0.68199836817093118 0 0.7313536940579346 0.3656768470289673 0 -0.34099918408546559 1 I I #
point $-1 63.934458752739118 -5.6470317036629396 9.6589864756906412 #
edge $-1 $713 1 $713 0 $419 $-1 forward 7 unknown #
vertex $-1 $420 $714 #
ellipse-curve $-1 62.886783537539216 -2.258812681465173 9.268631965718173 0.68199836817093118 0 0.7313536940579346 0.3656768470289673 0 -0.34099918408546559 1 I I #
point $-1 63.934458752739118 -2.258812681465173 9.6589864756906412 #
plane-surface $-1 71.006805627613147 0 0 -1 0 0 0 0 1 forward_v I I I I #
coedge $-1 $429 $603 $715 $716 reversed $424 $-1 #
coedge $-1 $715 $426 $427 $601 forward $279 $-1 #
coedge $-1 $426 $715 $434 $611 forward $279 $-1 #
edge $-1 $607 -9.8823054814101532 $604 -1.9764610962820335 $599 $717 forward 7 unknown #
edge $-1 $605 1.9764610962820335 $437 9.8823054814101532 $435 $718 forward 7 unknown #
coedge $-1 $598 $429 $610 $719 reversed $424 $-1 #
vertex $-1 $601 $720 #
vertex $-1 $602 $721 #
straight-curve $-1 -32.855373570404097 3.5527136788005009e-015 99.916967308002739 0.7313536940579346 0 -0.68199836817093118 I I #
vertex $-1 $433 $722 #
straight-curve $-1 -32.855373570404097 7.9058443851281233 99.916967308002739 0.7313536940579346 0 -0.68199836817093118 I I #
straight-curve $-1 31.998838781860613 7.9058443851281233 16.936055145674771 -1 0 0 I I #
coedge $-1 $435 $434 $603 $719 forward $436 $-1 #
edge $-1 $723 3.5527136788005009e-015 $438 7.9058443851281233 $434 $724 forward 7 unknown #
point $-1 71.006805627613147 7.9058443851281233 3.0639161738774021 #
point $-1 71.006805627613147 7.9058443851281233 16.936055145674771 #
edge $-1 $725 1 $725 0 $440 $-1 forward 7 unknown #
vertex $-1 $441 $726 #
ellipse-curve $-1 62.886783537539216 2.2588126814651801 9.268631965718173 0.68199836817093118 0 0.7313536940579346 0.3656768470289673 0 -0.34099918408546559 1 I I #
point $-1 63.934458752739118 2.2588126814651801 9.6589864756906412 #
edge $-1 $727 1 $727 0 $444 $-1 forward 7 unknown #
vertex $-1 $445 $728 #
ellipse-curve $-1 62.886783537539216 5.6470317036629467 9.268631965718173 0.68199836817093118 0 0.7313536940579346 0.3656768470289673 0 -0.34099918408546559 1 I I #
point $-1 63.934458752739118 5.6470317036629467 9.6589864756906412 #
plane-surface $-1 71.006805627613147 0 0 -1 0 0 0 0 1 forward_v I I I I #
coedge $-1 $453 $451 $455 $627 reversed $301 $-1 #
edge $-1 $466 -16.936055145674771 $629 16.936055145674771 $465 $729 forward 7 unknown #
vertex $-1 $627 $730 #
straight-curve $-1 -71.006805627613147 -40.109841203729886 0 0 0 -1 I I #
edge $-1 $625 -40.109841203729886 $629 40.109841203729886 $623 $731 forward 7 unknown #
straight-curve $-1 0 -40.109841203729886 -16.936055145674771 -1 0 0 I I #
vertex $-1 $458 $732 #
straight-curve $-1 0 40.109841203729886 -16.936055145674771 1 0 0 I I #
point $-1 71.006805627613147 40.109841203729886 -16.936055145674771 #
point $-1 71.006805627613147 -40.109841203729886 -16.936055145674771 #
straight-curve $-1 -71.006805627613147 0 16.936055145674771 0 -1 0 I I #
point $-1 -71.006805627613147 40.109841203729886 16.936055145674771 #
point $-1 -71.006805627613147 -40.109841203729886 16.936055145674771 #
straight-curve $-1 71.006805627613147 -40.109841203729886 0 0 0 -1 I I #
straight-curve $-1 71.006805627613147 40.109841203729886 0 0 0 -1 I I #
loop $-1 $-1 $646 $475 #
plane-surface $-1 -71.006805627613147 0 0 1 0 0 0 0 -1 forward_v I I I I #
coedge $-1 $479 $478 $652 $733 forward $197 $-1 #
edge $-1 $483 24.463587060671241 $655 40.109841203729886 $482 $734 forward 7 unknown #
coedge $-1 $649 $646 $479 $643 reversed $638 $-1 #
edge $-1 $735 -40.109841203729886 $644 -24.463587060671241 $642 $736 forward 7 unknown #
vertex $-1 $647 $737 #
straight-curve $-1 0 -24.463587060671241 -16.936055145674771 1 0 0 I I #
coedge $-1 $642 $485 $481 $647 forward $638 $-1 #
edge $-1 $487 4.3562519236284505 $644 9.8386194559070308 $646 $738 forward 7 unknown #
point $-1 71.006805627613147 -24.463587060671241 -16.936055145674771 #
coedge $-1 $485 $642 $489 $653 reversed $638 $-1 #
straight-curve $-1 -71.006805627613147 -16.143357066100283 -11.453687613396191 0 1 0 I I #
point $-1 -71.006805627613147 -24.463587060671241 -11.453687613396191 #
coedge $-1 $490 $489 $640 $733 reversed $476 $-1 #
edge $-1 $491 11.453687613396191 $735 16.936055145674771 $649 $739 forward 7 unknown #
point $-1 -71.006805627613147 -40.109841203729886 -11.453687613396191 #
vertex $-1 $493 $740 #
straight-curve $-1 71.006805627613147 -40.109841203729886 0 0 0 -1 I I #
plane-surface $-1 0 40.109841203729886 0 0 -1 0 0 0 -1 forward_v I I I I #
coedge $-1 $741 $499 $503 $663 forward $336 $-1 #
coedge $-1 $499 $741 $514 $670 forward $336 $-1 #
vertex $-1 $501 $742 #
straight-curve $-1 0 24.463587060671252 -16.936055145674771 -1 0 0 I I #
coedge $-1 $503 $502 $509 $668 forward $497 $-1 #
edge $-1 $504 24.463587060671252 $743 40.109841203729886 $503 $744 forward 7 unknown #
point $-1 -71.006805627613147 24.463587060671252 -16.936055145674771 #
point $-1 -71.006805627613147 24.463587060671252 -11.453687613396191 #
straight-curve $-1 -71.006805627613147 16.143357066100286 -11.453687613396191 0 1 0 I I #
coedge $-1 $509 $508 $741 $745 reversed $510 $-1 #
edge $-1 $511 11.453687613396191 $743 16.936055145674771 $509 $746 forward 7 unknown #
point $-1 -71.006805627613147 40.109841203729893 -11.453687613396191 #
edge $-1 $672 -40.109841203729886 $660 -24.463587060671252 $514 $747 forward 7 unknown #
straight-curve $-1 71.006805627613147 24.463587060671252 -7.0974356897677406 0 0 -1 I I #
vertex $-1 $670 $748 #
straight-curve $-1 71.006805627613147 40.109841203729886 0 0 0 -1 I I #
coedge $-1 $530 $529 $522 $675 forward $519 $-1 #
edge $-1 $676 12.923122753256081 $679 27.799170197062097 $674 $749 forward 7 unknown #
vertex $-1 $675 $750 #
straight-curve $-1 -71.006805627613147 -7.9058443851281233 53.463047685947316 0 0 1 I I #
edge $-1 $679 -5.9293832888460933 $531 1.9764610962820335 $530 $751 forward 7 unknown #
vertex $-1 $678 $752 #
straight-curve $-1 -71.006805627613133 -7.9058443851281233 3.0639161738774021 -0.7313536940579346 0 -0.68199836817093118 I I #
point $-1 -71.006805627613147 -7.9058443851281233 3.0639161738773888 #
point $-1 -56.130758183807131 3.5527136788005009e-015 16.936055145674771 #
straight-curve $-1 -71.006805627613147 0 16.936055145674771 0 -1 0 I I #
vertex $-1 $537 $753 #
point $-1 -62.521106690510251 -5.6470317036629396 9.6096311498036204 #
vertex $-1 $541 $754 #
point $-1 -62.521106690510251 -2.258812681465173 9.6096311498036204 #
edge $-1 $552 -7.9058443851281233 $694 -3.5527136788005009e-015 $547 $755 forward 7 unknown #
straight-curve $-1 -71.006805627613147 7.9058443851281233 53.463047685947316 0 0 -1 I I #
straight-curve $-1 -71.006805627613133 7.9058443851281233 3.0639161738774021 0.7313536940579346 0 0.68199836817093118 I I #
point $-1 -56.130758183807131 7.9058443851281233 16.936055145674771 #
point $-1 -71.006805627613147 7.9058443851281233 16.936055145674771 #
point $-1 -71.006805627613147 7.9058443851281233 3.0639161738773888 #
vertex $-1 $559 $756 #
straight-curve $-1 -83.929928380869228 3.5527136788005009e-015 16.936055145674771 1 0 0 I I #
straight-curve $-1 -71.006805627613147 3.5527136788005009e-015 53.463047685947316 0 0 1 I I #
vertex $-1 $563 $757 #
point $-1 -62.521106690510251 2.2588126814651801 9.6096311498036204 #
vertex $-1 $567 $758 #
point $-1 -62.521106690510251 5.6470317036629467 9.6096311498036204 #
coedge $-1 $582 $581 $574 $702 forward $571 $-1 #
edge $-1 $703 84.953518107335213 $706 98.825657079132583 $701 $759 forward 7 unknown #
vertex $-1 $586 $760 #
straight-curve $-1 31.998838781860613 -7.9058443851281233 16.936055145674771 1 0 0 I I #
edge $-1 $706 -5.9293832888460933 $583 1.9764610962820335 $582 $761 forward 7 unknown #
vertex $-1 $705 $762 #
straight-curve $-1 -32.855373570404097 -7.9058443851281233 99.916967308002739 -0.7313536940579346 0 0.68199836817093118 I I #
point $-1 56.130758183807146 -7.9058443851281233 16.936055145674771 #
point $-1 71.006805627613147 3.5527136788005009e-015 3.0639161738774021 #
straight-curve $-1 71.006805627613147 0 16.936055145674771 0 1 0 I I #
vertex $-1 $589 $763 #
point $-1 63.252460384568188 -5.6470317036629396 8.9276327816327061 #
vertex $-1 $593 $764 #
point $-1 63.252460384568188 -2.258812681465173 8.9276327816327061 #
coedge $-1 $600 $599 $598 $716 forward $279 $-1 #
edge $-1 $604 24.131919401946533 $723 39.007966845752534 $715 $765 forward 7 unknown #
straight-curve $-1 56.130758183807139 -1.9764610962820299 16.936055145674771 0 -1 0 I I #
straight-curve $-1 71.006805627613147 -1.9764610962820299 3.0639161738774021 0 1 0 I I #
edge $-1 $723 84.953518107335213 $605 98.825657079132583 $610 $766 forward 7 unknown #
point $-1 56.130758183807146 3.5527136788005009e-015 16.936055145674771 #
point $-1 71.006805627613147 3.5527136788005009e-015 3.0639161738774021 #
point $-1 56.130758183807146 7.9058443851281233 16.936055145674771 #
vertex $-1 $611 $767 #
straight-curve $-1 71.006805627613147 0 16.936055145674771 0 1 0 I I #
vertex $-1 $614 $768 #
point $-1 63.252460384568188 2.2588126814651801 8.9276327816327061 #
vertex $-1 $618 $769 #
point $-1 63.252460384568188 5.6470317036629467 8.9276327816327061 #
straight-curve $-1 -71.006805627613147 40.109841203729886 0 0 0 -1 I I #
point $-1 -71.006805627613147 -40.109841203729886 -16.936055145674771 #
straight-curve $-1 -71.006805627613147 0 -16.936055145674771 0 1 0 I I #
point $-1 -71.006805627613147 40.109841203729886 -16.936055145674771 #
edge $-1 $655 -71.006805627613147 $735 71.006805627613147 $652 $770 forward 7 unknown #
straight-curve $-1 71.006805627613147 0 -16.936055145674771 0 -1 0 I I #
vertex $-1 $643 $771 #
straight-curve $-1 -71.006805627613147 0 -16.936055145674771 0 1 0 I I #
point $-1 -71.006805627613147 -24.463587060671241 -16.936055145674771 #
straight-curve $-1 -71.006805627613147 -24.463587060671241 -7.0974356897677406 0 0 -1 I I #
straight-curve $-1 -71.006805627613147 -40.109841203729886 0 0 0 -1 I I #
point $-1 71.006805627613147 -40.109841203729886 -16.936055145674771 #
coedge $-1 $659 $658 $667 $745 forward $336 $-1 #
point $-1 71.006805627613147 24.463587060671252 -16.936055145674771 #
vertex $-1 $745 $772 #
straight-curve $-1 -71.006805627613147 0 -16.936055145674771 0 1 0 I I #
edge $-1 $743 -71.006805627613147 $672 71.006805627613147 $667 $773 forward 7 unknown #
straight-curve $-1 -71.006805627613147 40.109841203729886 0 0 0 -1 I I #
straight-curve $-1 71.006805627613147 0 -16.936055145674771 0 -1 0 I I #
point $-1 71.006805627613147 40.109841203729886 -16.936055145674771 #
straight-curve $-1 -83.929928380869228 -7.9058443851281233 16.936055145674771 1 0 0 I I #
point $-1 -71.006805627613147 -7.9058443851281233 16.936055145674771 #
straight-curve $-1 -56.130758183807124 -1.9764610962820299 16.936055145674771 0 1 0 I I #
point $-1 -56.130758183807131 -7.9058443851281233 16.936055145674771 #
point $-1 -62.545784353453755 -5.6470317036629396 8.9029551186891869 #
point $-1 -62.545784353453755 -2.258812681465173 8.9029551186891869 #
straight-curve $-1 -71.006805627613147 0 16.936055145674771 0 -1 0 I I #
point $-1 -71.006805627613147 3.5527136788005009e-015 16.936055145674771 #
point $-1 -62.545784353453755 2.2588126814651801 8.9029551186891869 #
point $-1 -62.545784353453755 5.6470317036629467 8.9029551186891869 #
straight-curve $-1 71.006805627613147 -7.9058443851281233 101.88957325300998 0 0 -1 I I #
point $-1 71.006805627613147 -7.9058443851281233 16.936055145674771 #
straight-curve $-1 71.006805627613147 -1.9764610962820299 3.0639161738774021 0 1 0 I I #
point $-1 71.006805627613147 -7.9058443851281233 3.0639161738774021 #
point $-1 62.545784353453755 -5.6470317036629396 8.9029551186892046 #
point $-1 62.545784353453755 -2.258812681465173 8.9029551186892046 #
straight-curve $-1 31.998838781860613 3.5527136788005009e-015 16.936055145674771 1 0 0 I I #
straight-curve $-1 71.006805627613147 3.5527136788005009e-015 101.88957325300998 0 0 -1 I I #
point $-1 71.006805627613147 3.5527136788005009e-015 16.936055145674771 #
point $-1 62.545784353453755 2.2588126814651801 8.9029551186892046 #
point $-1 62.545784353453755 5.6470317036629467 8.9029551186892046 #
straight-curve $-1 0 -40.109841203729886 -16.936055145674771 -1 0 0 I I #
point $-1 -71.006805627613147 -40.109841203729886 -16.936055145674771 #
point $-1 -71.006805627613147 40.109841203729886 -16.936055145674771 #
straight-curve $-1 0 40.109841203729886 -16.936055145674771 1 0 0 I I #
End-of-ACIS-data 