500 0 10 0           
7 Unknown 11 ACIS 5.0 NT 24 Fri Mar 26 00:29:38 1999 
-1 9.9999999999999995e-007 1e-010 
body $-1 $10 $-1 $11 #
body $-1 $12 $-1 $13 #
body $-1 $14 $-1 $15 #
body $-1 $16 $-1 $17 #
body $-1 $18 $-1 $19 #
body $-1 $20 $-1 $21 #
body $-1 $22 $-1 $23 #
body $-1 $24 $-1 $25 #
body $-1 $26 $-1 $27 #
body $-1 $28 $-1 $29 #
lump $-1 $-1 $30 $0 #
transform $-1 1 0 0 0 1 0 0 0 1 68.297982726523628 42.919321937265941 17.712488624563314 1 rotate no_reflect no_shear #
lump $-1 $-1 $31 $1 #
transform $-1 1 0 0 0 1 0 0 0 1 68.297982726523628 42.919321937265941 17.712488624563314 1 rotate no_reflect no_shear #
lump $-1 $-1 $32 $2 #
transform $-1 1 0 0 0 1 0 0 0 1 68.297982726523628 42.919321937265941 17.712488624563314 1 rotate no_reflect no_shear #
lump $-1 $-1 $33 $3 #
transform $-1 1 0 0 0 1 0 0 0 1 68.297982726523628 42.919321937265941 17.712488624563314 1 rotate no_reflect no_shear #
lump $-1 $-1 $34 $4 #
transform $-1 1 0 0 0 1 0 0 0 1 68.297982726523628 42.919321937265941 17.712488624563314 1 rotate no_reflect no_shear #
lump $-1 $-1 $35 $5 #
transform $-1 1 0 0 0 1 0 0 0 1 68.297982726523628 42.919321937265941 17.712488624563314 1 rotate no_reflect no_shear #
lump $-1 $-1 $36 $6 #
transform $-1 1 0 0 0 1 0 0 0 1 68.297982726523628 42.919321937265941 17.712488624563314 1 rotate no_reflect no_shear #
lump $-1 $-1 $37 $7 #
transform $-1 1 0 0 0 1 0 0 0 1 68.297982726523628 42.919321937265941 17.712488624563314 1 rotate no_reflect no_shear #
lump $-1 $-1 $38 $8 #
transform $-1 1 0 0 0 1 0 0 0 1 68.297982726523628 42.919321937265941 17.712488624563314 1 rotate no_reflect no_shear #
lump $-1 $-1 $39 $9 #
transform $-1 1 0 0 0 1 0 0 0 1 68.297982726523628 42.919321937265941 17.712488624563314 1 rotate no_reflect no_shear #
shell $-1 $-1 $-1 $40 $-1 $10 #
shell $-1 $-1 $-1 $41 $-1 $12 #
shell $-1 $-1 $-1 $42 $-1 $14 #
shell $-1 $-1 $-1 $43 $-1 $16 #
shell $-1 $-1 $-1 $44 $-1 $18 #
shell $-1 $-1 $-1 $45 $-1 $20 #
shell $-1 $-1 $-1 $46 $-1 $22 #
shell $-1 $-1 $-1 $47 $-1 $24 #
shell $-1 $-1 $-1 $48 $-1 $26 #
shell $-1 $-1 $-1 $49 $-1 $28 #
face $-1 $50 $51 $30 $-1 $52 forward single #
face $-1 $53 $54 $31 $-1 $55 reversed single #
face $-1 $56 $57 $32 $-1 $58 reversed single #
face $-1 $59 $60 $33 $-1 $61 reversed single #
face $-1 $62 $63 $34 $-1 $64 forward single #
face $-1 $65 $66 $35 $-1 $67 forward single #
face $-1 $68 $69 $36 $-1 $70 reversed single #
face $-1 $71 $72 $37 $-1 $73 forward single #
face $-1 $74 $75 $38 $-1 $76 forward single #
face $-1 $77 $78 $39 $-1 $79 forward single #
face $-1 $80 $81 $30 $-1 $82 reversed single #
loop $-1 $-1 $83 $40 #
plane-surface $-1 0 0 17.712488624563314 0 0 1 1 0 0 forward_v I I I I #
face $-1 $84 $85 $31 $-1 $86 reversed single #
loop $-1 $-1 $87 $41 #
plane-surface $-1 -61.014904927640259 0 12.82313471333631 0 0 1 1 0 0 forward_v I I I I #
face $-1 $88 $89 $32 $-1 $90 reversed single #
loop $-1 $-1 $91 $42 #
plane-surface $-1 61.014904927640259 0 12.82313471333631 0 0 1 1 0 0 forward_v I I I I #
face $-1 $92 $93 $33 $-1 $94 reversed single #
loop $-1 $-1 $95 $43 #
plane-surface $-1 32.335189452392086 -127.01619660623825 121.08763340273558 1 0 0 0 0.61566148304635926 -0.78801074757464917 forward_v I I I I #
face $-1 $96 $97 $34 $-1 $98 forward single #
loop $-1 $99 $100 $44 #
cone-surface $-1 38.448514502782032 -38.806580332473075 13.809151780467369 0 0.61566148304635926 -0.78801074757464917 1.5 0 0 1 I I 0 1 1.5 forward I I I I #
face $-1 $101 $102 $35 $-1 $103 forward single #
loop $-1 $104 $105 $45 #
cone-surface $-1 47.618502078366944 -38.806580332473075 13.809151780467369 0 0.61566148304635926 -0.78801074757464917 1.5 0 0 1 I I 0 1 1.5 forward I I I I #
face $-1 $106 $107 $36 $-1 $108 reversed single #
loop $-1 $-1 $109 $46 #
plane-surface $-1 21.711154246184918 108.16215118947244 155.58860226417517 1 0 0 0 -0.82903758062907751 -0.55919289150049634 forward_v I I I I #
face $-1 $110 $111 $37 $-1 $112 forward single #
loop $-1 $113 $114 $47 #
cone-surface $-1 28.115288822699313 37.702023141212713 11.557886974715696 0 -0.82903758062907751 -0.55919289150049634 2.5 0 0 1 I I 0 1 2.5 forward I I I I #
face $-1 $115 $116 $38 $-1 $117 forward single #
loop $-1 $118 $119 $48 #
cone-surface $-1 37.721490687470904 37.702023141212713 11.557886974715696 0 -0.82903758062907751 -0.55919289150049634 2.5 0 0 1 I I 0 1 2.5 forward I I I I #
face $-1 $120 $121 $39 $-1 $122 forward single #
loop $-1 $123 $124 $49 #
cone-surface $-1 47.327692552242496 37.702023141212713 11.557886974715696 0 -0.82903758062907751 -0.55919289150049634 2.5 0 0 1 I I 0 1 2.5 forward I I I I #
face $-1 $125 $126 $30 $-1 $127 reversed single #
loop $-1 $-1 $128 $50 #
plane-surface $-1 0 0 -17.712488624563314 0 0 1 1 0 0 forward_v I I I I #
coedge $-1 $129 $130 $131 $132 forward $51 $-1 #
face $-1 $133 $134 $31 $-1 $135 reversed single #
loop $-1 $-1 $136 $53 #
plane-surface $-1 -53.73182712875689 0 15.267811668949811 -1 0 0 0 0 1 forward_v I I I I #
coedge $-1 $137 $138 $139 $140 forward $54 $-1 #
face $-1 $141 $142 $32 $-1 $143 forward single #
loop $-1 $-1 $144 $56 #
plane-surface $-1 53.73182712875689 0 15.267811668949811 1 0 0 0 0 -1 forward_v I I I I #
coedge $-1 $145 $146 $147 $148 reversed $57 $-1 #
face $-1 $149 $150 $33 $-1 $151 forward single #
loop $-1 $-1 $152 $59 #
plane-surface $-1 43.033508290574488 -42.91932193726592 13.44854455039885 0 -0.61566148304635926 0.78801074757464917 1 0 0 forward_v I I I I #
coedge $-1 $153 $154 $155 $156 reversed $60 $-1 #
face $-1 $-1 $157 $34 $-1 $158 forward single #
loop $-1 $159 $160 $62 #
cone-surface $-1 38.448514502782032 -36.960892329219497 11.446778912772647 0 0.61566148304635926 -0.78801074757464917 0.75 0 0 1 I I -0.70710678118654757 0.70710678118654757 0.75 forward I I I I #
loop $-1 $-1 $161 $44 #
coedge $-1 $100 $100 $162 $163 reversed $63 $-1 #
face $-1 $-1 $164 $35 $-1 $165 forward single #
loop $-1 $166 $167 $65 #
cone-surface $-1 47.618502078366944 -36.960892329219497 11.446778912772647 0 0.61566148304635926 -0.78801074757464917 0.75 0 0 1 I I -0.70710678118654757 0.70710678118654757 0.75 forward I I I I #
loop $-1 $-1 $168 $45 #
coedge $-1 $105 $105 $169 $170 reversed $66 $-1 #
face $-1 $171 $172 $36 $-1 $173 forward single #
loop $-1 $-1 $174 $68 #
plane-surface $-1 37.721490687470904 -5.0810375334149143 79.205109375183767 0 0.82903758062907751 0.55919289150049634 1 0 0 forward_v I I I I #
coedge $-1 $175 $176 $177 $178 reversed $69 $-1 #
face $-1 $-1 $179 $37 $-1 $180 forward single #
loop $-1 $181 $182 $71 #
cone-surface $-1 28.115288822699313 34.709959540998504 9.5397146562936754 0 -0.82903758062907751 -0.55919289150049634 1.25 0 0 1 I I -0.70710678118654746 0.70710678118654746 1.25 forward I I I I #
loop $-1 $-1 $183 $47 #
coedge $-1 $114 $114 $184 $185 reversed $72 $-1 #
face $-1 $-1 $186 $38 $-1 $187 forward single #
loop $-1 $188 $189 $74 #
cone-surface $-1 37.721490687470904 34.709959540998504 9.5397146562936754 0 -0.82903758062907751 -0.55919289150049634 1.25 0 0 1 I I -0.70710678118654746 0.70710678118654746 1.25 forward I I I I #
loop $-1 $-1 $190 $48 #
coedge $-1 $119 $119 $191 $192 reversed $75 $-1 #
face $-1 $-1 $193 $39 $-1 $194 forward single #
loop $-1 $195 $196 $77 #
cone-surface $-1 47.327692552242496 34.709959540998504 9.5397146562936754 0 -0.82903758062907751 -0.55919289150049634 1.25 0 0 1 I I -0.70710678118654746 0.70710678118654746 1.25 forward I I I I #
loop $-1 $-1 $197 $49 #
coedge $-1 $124 $124 $198 $199 reversed $78 $-1 #
face $-1 $200 $201 $30 $-1 $202 reversed single #
loop $-1 $-1 $203 $80 #
plane-surface $-1 0 -42.919321937265941 0 0 1 0 0 0 1 forward_v I I I I #
coedge $-1 $204 $205 $206 $207 forward $81 $-1 #
coedge $-1 $208 $83 $209 $210 forward $51 $-1 #
coedge $-1 $83 $208 $211 $212 forward $51 $-1 #
coedge $-1 $213 $214 $83 $132 reversed $215 $-1 #
edge $-1 $216 -42.919321937265941 $217 42.919321937265941 $131 $218 forward 7 unknown #
face $-1 $219 $220 $31 $-1 $221 reversed single #
loop $-1 $-1 $222 $84 #
plane-surface $-1 0 42.919321937265941 0 0 -1 0 0 0 -1 forward_v I I I I #
coedge $-1 $139 $223 $224 $225 reversed $85 $-1 #
coedge $-1 $226 $87 $227 $228 reversed $54 $-1 #
coedge $-1 $87 $226 $229 $230 reversed $54 $-1 #
coedge $-1 $231 $136 $87 $140 reversed $85 $-1 #
edge $-1 $232 -42.919321937265941 $233 42.919321937265941 $139 $234 forward 7 unknown #
face $-1 $235 $236 $32 $-1 $237 reversed single #
loop $-1 $-1 $238 $88 #
plane-surface $-1 0 0 17.712488624563314 0 0 1 1 0 0 forward_v I I I I #
coedge $-1 $239 $240 $241 $242 reversed $89 $-1 #
coedge $-1 $241 $91 $243 $244 reversed $57 $-1 #
coedge $-1 $91 $241 $245 $246 reversed $57 $-1 #
coedge $-1 $247 $248 $91 $148 forward $249 $-1 #
edge $-1 $250 -42.919321937265941 $251 42.919321937265941 $147 $252 forward 7 unknown #
face $-1 $253 $254 $33 $-1 $255 reversed single #
loop $-1 $-1 $256 $92 #
plane-surface $-1 0 0 17.712488624563314 0 0 1 1 0 0 forward_v I I I I #
coedge $-1 $257 $258 $259 $260 reversed $93 $-1 #
coedge $-1 $154 $95 $261 $262 reversed $60 $-1 #
coedge $-1 $95 $153 $257 $263 reversed $60 $-1 #
coedge $-1 $259 $264 $95 $156 forward $254 $-1 #
edge $-1 $265 42.831328076804475 $266 47.095272150968952 $155 $267 forward 7 unknown #
loop $-1 $-1 $162 $96 #
plane-surface $-1 43.033508290574488 -42.91932193726592 13.44854455039885 0 -0.61566148304635926 0.78801074757464917 1 0 0 forward_v I I I I #
loop $-1 $-1 $268 $62 #
coedge $-1 $160 $160 $161 $269 reversed $97 $-1 #
coedge $-1 $161 $161 $160 $269 forward $99 $-1 #
coedge $-1 $162 $162 $100 $163 forward $157 $-1 #
edge $-1 $270 -3.4928184820539083e-016 $270 6.2831853071796004 $162 $271 forward 7 unknown #
loop $-1 $-1 $169 $101 #
plane-surface $-1 43.033508290574488 -42.91932193726592 13.44854455039885 0 -0.61566148304635926 0.78801074757464917 1 0 0 forward_v I I I I #
loop $-1 $-1 $272 $65 #
coedge $-1 $167 $167 $168 $273 reversed $102 $-1 #
coedge $-1 $168 $168 $167 $273 forward $104 $-1 #
coedge $-1 $169 $169 $105 $170 forward $164 $-1 #
edge $-1 $274 -3.4928184820539083e-016 $274 6.2831853071796004 $169 $275 forward 7 unknown #
face $-1 $276 $277 $36 $-1 $278 forward single #
loop $-1 $-1 $177 $106 #
plane-surface $-1 0 0 17.712488624563314 0 0 1 1 0 0 forward_v I I I I #
coedge $-1 $279 $280 $281 $282 reversed $107 $-1 #
coedge $-1 $176 $109 $283 $284 reversed $69 $-1 #
coedge $-1 $109 $175 $279 $285 reversed $69 $-1 #
coedge $-1 $281 $286 $109 $178 forward $172 $-1 #
edge $-1 $287 11.161753657470278 $288 17.684818000721037 $177 $289 forward 7 unknown #
loop $-1 $-1 $184 $110 #
plane-surface $-1 37.721490687470904 -5.0810375334149143 79.205109375183767 0 0.82903758062907751 0.55919289150049634 1 0 0 forward_v I I I I #
loop $-1 $-1 $290 $71 #
coedge $-1 $182 $182 $183 $291 reversed $111 $-1 #
coedge $-1 $183 $183 $182 $291 forward $113 $-1 #
coedge $-1 $184 $184 $114 $185 forward $179 $-1 #
edge $-1 $292 2.3331042261431138e-016 $292 6.2831853071796004 $184 $293 forward 7 unknown #
loop $-1 $-1 $191 $115 #
plane-surface $-1 37.721490687470904 -5.0810375334149143 79.205109375183767 0 0.82903758062907751 0.55919289150049634 1 0 0 forward_v I I I I #
loop $-1 $-1 $294 $74 #
coedge $-1 $189 $189 $190 $295 reversed $116 $-1 #
coedge $-1 $190 $190 $189 $295 forward $118 $-1 #
coedge $-1 $191 $191 $119 $192 forward $186 $-1 #
edge $-1 $296 2.3331042261431138e-016 $296 6.2831853071796004 $191 $297 forward 7 unknown #
loop $-1 $-1 $198 $120 #
plane-surface $-1 37.721490687470904 -5.0810375334149143 79.205109375183767 0 0.82903758062907751 0.55919289150049634 1 0 0 forward_v I I I I #
loop $-1 $-1 $298 $77 #
coedge $-1 $196 $196 $197 $299 reversed $121 $-1 #
coedge $-1 $197 $197 $196 $299 forward $123 $-1 #
coedge $-1 $198 $198 $124 $199 forward $193 $-1 #
edge $-1 $300 2.3331042261431138e-016 $300 6.2831853071796004 $198 $301 forward 7 unknown #
face $-1 $302 $303 $30 $-1 $304 reversed single #
loop $-1 $-1 $305 $125 #
plane-surface $-1 -68.297982726523628 0 0 1 0 0 0 0 -1 forward_v I I I I #
coedge $-1 $306 $211 $307 $308 forward $126 $-1 #
coedge $-1 $309 $128 $306 $310 forward $81 $-1 #
coedge $-1 $128 $309 $311 $312 forward $81 $-1 #
coedge $-1 $214 $213 $128 $207 reversed $215 $-1 #
edge $-1 $313 -42.919321937265941 $314 42.919321937265941 $206 $315 forward 7 unknown #
coedge $-1 $130 $129 $316 $317 forward $51 $-1 #
coedge $-1 $318 $319 $129 $210 reversed $303 $-1 #
edge $-1 $217 -68.297982726523628 $320 68.297982726523628 $209 $321 forward 7 unknown #
coedge $-1 $203 $322 $130 $212 reversed $126 $-1 #
edge $-1 $323 -68.297982726523628 $216 68.297982726523628 $211 $324 forward 7 unknown #
coedge $-1 $206 $131 $322 $325 forward $215 $-1 #
coedge $-1 $131 $206 $318 $326 reversed $215 $-1 #
loop $-1 $-1 $213 $302 #
vertex $-1 $132 $327 #
vertex $-1 $132 $328 #
straight-curve $-1 68.297982726523628 0 17.712488624563314 0 1 0 I I #
face $-1 $329 $330 $31 $-1 $331 forward single #
loop $-1 $-1 $332 $133 #
plane-surface $-1 -68.297982726523628 0 0 1 0 0 0 0 -1 forward_v I I I I #
coedge $-1 $229 $333 $231 $334 forward $134 $-1 #
coedge $-1 $136 $231 $335 $336 reversed $85 $-1 #
coedge $-1 $337 $227 $136 $225 forward $338 $-1 #
edge $-1 $233 5.1892288788614049 $339 10.078582790088408 $224 $340 forward 7 unknown #
coedge $-1 $138 $137 $332 $341 reversed $54 $-1 #
coedge $-1 $224 $342 $137 $228 forward $338 $-1 #
edge $-1 $343 -37.790530262703498 $233 -23.224374664936761 $227 $344 forward 7 unknown #
coedge $-1 $345 $222 $138 $230 forward $134 $-1 #
edge $-1 $232 23.224374664936761 $346 37.790530262703498 $229 $347 forward 7 unknown #
coedge $-1 $223 $139 $222 $334 reversed $85 $-1 #
vertex $-1 $230 $348 #
vertex $-1 $228 $349 #
straight-curve $-1 -53.73182712875689 0 12.82313471333631 0 -1 0 I I #
face $-1 $350 $351 $32 $-1 $352 reversed single #
loop $-1 $-1 $353 $141 #
plane-surface $-1 0 -42.919321937265941 0 0 1 0 0 0 1 forward_v I I I I #
coedge $-1 $354 $355 $356 $357 forward $142 $-1 #
coedge $-1 $356 $144 $353 $358 reversed $89 $-1 #
coedge $-1 $144 $356 $359 $360 reversed $89 $-1 #
coedge $-1 $146 $145 $144 $242 forward $57 $-1 #
edge $-1 $361 -42.919321937265941 $362 42.919321937265941 $144 $363 forward 7 unknown #
coedge $-1 $364 $353 $145 $244 forward $236 $-1 #
edge $-1 $361 23.224374664936761 $250 37.790530262703498 $243 $365 forward 7 unknown #
coedge $-1 $359 $366 $146 $246 forward $351 $-1 #
edge $-1 $251 -37.790530262703498 $362 -23.224374664936761 $245 $367 forward 7 unknown #
coedge $-1 $368 $147 $366 $369 reversed $249 $-1 #
coedge $-1 $147 $368 $364 $370 forward $249 $-1 #
loop $-1 $-1 $147 $350 #
vertex $-1 $244 $371 #
vertex $-1 $148 $372 #
straight-curve $-1 68.297982726523628 0 12.82313471333631 0 1 0 I I #
face $-1 $-1 $373 $33 $-1 $374 forward single #
loop $-1 $-1 $155 $149 #
plane-surface $-1 0 -42.919321937265941 0 0 1 0 0 0 1 forward_v I I I I #
coedge $-1 $261 $375 $376 $377 forward $150 $-1 #
coedge $-1 $376 $152 $154 $263 forward $93 $-1 #
coedge $-1 $152 $376 $378 $379 reversed $93 $-1 #
coedge $-1 $380 $155 $152 $260 forward $254 $-1 #
edge $-1 $266 10.818435307104842 $381 32.215072983469646 $259 $382 forward 7 unknown #
coedge $-1 $383 $256 $153 $262 forward $150 $-1 #
edge $-1 $384 -26.046375793501376 $265 -20.588776365853185 $261 $385 forward 7 unknown #
edge $-1 $266 -2.6640169747183902e-014 $384 6.9257931372708406 $154 $386 forward 7 unknown #
coedge $-1 $155 $380 $383 $387 reversed $254 $-1 #
vertex $-1 $387 $388 #
vertex $-1 $156 $389 #
straight-curve $-1 32.335189452392086 -42.919321937265941 60.543816701367788 0 0 -1 I I #
coedge $-1 $268 $268 $-1 $390 reversed $159 $-1 #
edge $-1 $391 0 $391 6.2831853071796004 $160 $392 forward 7 unknown #
vertex $-1 $163 $393 #
ellipse-curve $-1 38.448514502782032 -40.190522223441853 15.580516587481068 0 -0.61566148304635926 0.78801074757464917 1.5 0 0 1 I I #
coedge $-1 $272 $272 $-1 $394 reversed $166 $-1 #
edge $-1 $395 0 $395 6.2831853071796004 $167 $396 forward 7 unknown #
vertex $-1 $170 $397 #
ellipse-curve $-1 47.618502078366944 -40.190522223441853 15.580516587481068 0 -0.61566148304635926 0.78801074757464917 1.5 0 0 1 I I #
face $-1 $-1 $398 $36 $-1 $399 reversed single #
loop $-1 $-1 $400 $171 #
plane-surface $-1 53.73182712875689 0 15.267811668949811 1 0 0 0 0 -1 forward_v I I I I #
coedge $-1 $401 $174 $176 $285 forward $107 $-1 #
coedge $-1 $174 $401 $400 $402 forward $107 $-1 #
coedge $-1 $403 $177 $174 $282 forward $172 $-1 #
edge $-1 $288 2.8504089024494661 $404 34.871081785021438 $281 $405 forward 7 unknown #
coedge $-1 $406 $407 $175 $284 forward $398 $-1 #
edge $-1 $408 -69.752653399126729 $287 -60.081812507524269 $283 $409 forward 7 unknown #
edge $-1 $288 74.17350212756287 $408 85.838643874531911 $176 $410 forward 7 unknown #
coedge $-1 $177 $403 $406 $411 forward $172 $-1 #
vertex $-1 $284 $412 #
vertex $-1 $178 $413 #
straight-curve $-1 21.711154246184918 54.08107559473622 17.712488624563321 0 -1 0 I I #
coedge $-1 $290 $290 $-1 $414 reversed $181 $-1 #
edge $-1 $415 0 $415 6.2831853071796004 $182 $416 forward 7 unknown #
vertex $-1 $185 $417 #
ellipse-curve $-1 28.115288822699313 39.657789765640558 12.877068178762086 0 0.82903758062907751 0.55919289150049634 2.5 0 0 1 I I #
coedge $-1 $294 $294 $-1 $418 reversed $188 $-1 #
edge $-1 $419 0 $419 6.2831853071796004 $189 $420 forward 7 unknown #
vertex $-1 $192 $421 #
ellipse-curve $-1 37.721490687470904 39.657789765640558 12.877068178762086 0 0.82903758062907751 0.55919289150049634 2.5 0 0 1 I I #
coedge $-1 $298 $298 $-1 $422 reversed $195 $-1 #
edge $-1 $423 0 $423 6.2831853071796004 $196 $424 forward 7 unknown #
vertex $-1 $199 $425 #
ellipse-curve $-1 47.327692552242496 39.657789765640558 12.877068178762086 0 0.82903758062907751 0.55919289150049634 2.5 0 0 1 I I #
face $-1 $-1 $215 $30 $-1 $426 reversed single #
loop $-1 $-1 $318 $200 #
plane-surface $-1 0 42.919321937265941 0 0 -1 0 0 0 -1 forward_v I I I I #
coedge $-1 $427 $316 $319 $428 forward $201 $-1 #
coedge $-1 $322 $203 $204 $310 reversed $126 $-1 #
coedge $-1 $316 $427 $203 $308 reversed $201 $-1 #
edge $-1 $323 -17.712488624563314 $429 17.712488624563314 $307 $430 forward 7 unknown #
coedge $-1 $205 $204 $427 $431 forward $81 $-1 #
edge $-1 $314 -68.297982726523628 $429 68.297982726523628 $306 $432 forward 7 unknown #
coedge $-1 $319 $318 $205 $312 reversed $303 $-1 #
edge $-1 $433 -68.297982726523628 $313 68.297982726523628 $311 $434 forward 7 unknown #
vertex $-1 $207 $435 #
vertex $-1 $325 $436 #
straight-curve $-1 68.297982726523628 0 -17.712488624563314 0 -1 0 I I #
coedge $-1 $305 $307 $208 $317 reversed $201 $-1 #
edge $-1 $320 -42.919321937265941 $323 42.919321937265941 $316 $437 forward 7 unknown #
coedge $-1 $311 $209 $214 $326 forward $303 $-1 #
coedge $-1 $209 $311 $305 $428 reversed $303 $-1 #
vertex $-1 $210 $438 #
straight-curve $-1 0 42.919321937265941 17.712488624563314 -1 0 0 I I #
coedge $-1 $211 $306 $213 $325 reversed $126 $-1 #
vertex $-1 $317 $439 #
straight-curve $-1 0 -42.919321937265941 17.712488624563314 1 0 0 I I #
edge $-1 $216 -17.712488624563314 $314 17.712488624563314 $213 $440 forward 7 unknown #
edge $-1 $217 -17.712488624563314 $313 17.712488624563314 $214 $441 forward 7 unknown #
point $-1 68.297982726523628 -42.919321937265941 17.712488624563314 #
point $-1 68.297982726523628 42.919321937265941 17.712488624563314 #
face $-1 $-1 $338 $31 $-1 $442 reversed single #
loop $-1 $-1 $335 $219 #
plane-surface $-1 0 0 17.712488624563314 0 0 1 1 0 0 forward_v I I I I #
coedge $-1 $443 $444 $226 $341 forward $220 $-1 #
coedge $-1 $222 $345 $445 $446 reversed $134 $-1 #
edge $-1 $447 -10.078582790088408 $232 -5.1892288788614049 $222 $448 forward 7 unknown #
coedge $-1 $445 $449 $223 $336 forward $330 $-1 #
edge $-1 $339 -42.919321937265941 $447 42.919321937265941 $335 $450 forward 7 unknown #
coedge $-1 $342 $224 $449 $451 reversed $338 $-1 #
loop $-1 $-1 $224 $329 #
vertex $-1 $225 $452 #
straight-curve $-1 -53.73182712875689 -42.919321937265941 7.6339058344749056 0 0 1 I I #
edge $-1 $346 -42.919321937265941 $343 42.919321937265941 $332 $453 forward 7 unknown #
coedge $-1 $227 $337 $443 $454 forward $338 $-1 #
vertex $-1 $341 $455 #
straight-curve $-1 -30.50745246382013 -42.919321937265941 12.82313471333631 1 0 0 I I #
coedge $-1 $333 $229 $444 $456 reversed $134 $-1 #
vertex $-1 $341 $457 #
straight-curve $-1 -30.50745246382013 42.919321937265941 12.82313471333631 -1 0 0 I I #
point $-1 -53.73182712875689 42.919321937265941 12.82313471333631 #
point $-1 -53.73182712875689 -42.919321937265941 12.82313471333631 #
face $-1 $-1 $249 $32 $-1 $458 reversed single #
loop $-1 $-1 $359 $235 #
plane-surface $-1 0 42.919321937265941 0 0 -1 0 0 0 -1 forward_v I I I I #
coedge $-1 $243 $459 $239 $358 forward $236 $-1 #
coedge $-1 $460 $238 $459 $461 forward $142 $-1 #
coedge $-1 $238 $460 $462 $463 forward $142 $-1 #
coedge $-1 $240 $239 $238 $357 reversed $89 $-1 #
edge $-1 $464 -42.919321937265941 $465 42.919321937265941 $238 $466 forward 7 unknown #
edge $-1 $465 -10.078582790088408 $361 -5.1892288788614049 $353 $467 forward 7 unknown #
coedge $-1 $462 $245 $240 $360 forward $351 $-1 #
edge $-1 $362 5.1892288788614049 $464 10.078582790088408 $359 $468 forward 7 unknown #
vertex $-1 $244 $469 #
vertex $-1 $246 $470 #
straight-curve $-1 53.73182712875689 0 12.82313471333631 0 1 0 I I #
coedge $-1 $459 $243 $248 $370 reversed $236 $-1 #
straight-curve $-1 30.50745246382013 -42.919321937265941 12.82313471333631 1 0 0 I I #
coedge $-1 $245 $462 $247 $369 forward $351 $-1 #
straight-curve $-1 30.50745246382013 42.919321937265941 12.82313471333631 -1 0 0 I I #
coedge $-1 $248 $247 $460 $471 reversed $249 $-1 #
edge $-1 $472 -17.712488624563314 $251 -12.82313471333631 $247 $473 forward 7 unknown #
edge $-1 $474 -17.712488624563314 $250 -12.82313471333631 $248 $475 forward 7 unknown #
point $-1 68.297982726523628 -42.919321937265941 12.82313471333631 #
point $-1 68.297982726523628 42.919321937265941 12.82313471333631 #
loop $-1 $-1 $378 $253 #
plane-surface $-1 53.73182712875689 0 15.267811668949811 1 0 0 0 0 -1 forward_v I I I I #
coedge $-1 $256 $383 $476 $477 forward $150 $-1 #
coedge $-1 $258 $257 $256 $377 reversed $93 $-1 #
edge $-1 $478 -32.215072983469646 $384 -10.818435307104842 $256 $479 forward 7 unknown #
coedge $-1 $476 $480 $258 $379 forward $373 $-1 #
edge $-1 $381 -17.470469828723289 $478 -10.54467669145242 $378 $481 forward 7 unknown #
coedge $-1 $264 $259 $480 $482 forward $254 $-1 #
vertex $-1 $482 $483 #
straight-curve $-1 21.516754145287244 -42.919321937265941 13.448544550398836 1 0 0 I I #
coedge $-1 $375 $261 $264 $387 forward $150 $-1 #
vertex $-1 $262 $484 #
straight-curve $-1 32.335189452392086 -63.508098303119127 17.712488624563314 0 -1 0 I I #
straight-curve $-1 32.335189452392086 -42.91932193726592 13.44854455039885 0 0.78801074757464917 0.61566148304635926 I I #
edge $-1 $265 32.335189452392086 $485 53.73182712875689 $264 $486 forward 7 unknown #
point $-1 32.335189452392086 -42.919321937265941 17.712488624563314 #
point $-1 32.335189452392086 -42.919321937265941 13.448544550398834 #
edge $-1 $487 1 $487 0 $268 $-1 forward 7 unknown #
vertex $-1 $269 $488 #
ellipse-curve $-1 38.448514502782032 -37.422638441504269 12.037786973453635 0 -0.61566148304635926 0.78801074757464917 1.5 0 0 1 I I #
point $-1 39.948514502782032 -40.190522223441882 15.580516587481103 #
edge $-1 $489 1 $489 0 $272 $-1 forward 7 unknown #
vertex $-1 $273 $490 #
ellipse-curve $-1 47.618502078366944 -37.422638441504269 12.037786973453635 0 -0.61566148304635926 0.78801074757464917 1.5 0 0 1 I I #
point $-1 49.118502078366944 -40.190522223441882 15.580516587481103 #
loop $-1 $-1 $283 $276 #
plane-surface $-1 0 42.919321937265941 0 0 -1 0 0 0 -1 forward_v I I I I #
coedge $-1 $491 $492 $280 $402 reversed $277 $-1 #
coedge $-1 $280 $279 $407 $493 reversed $107 $-1 #
edge $-1 $494 -85.838643874531911 $404 -74.17350212756287 $400 $495 forward 7 unknown #
coedge $-1 $286 $281 $492 $496 forward $172 $-1 #
vertex $-1 $496 $497 #
straight-curve $-1 18.860745343735452 36.396257594015189 17.712488624563314 1 0 0 I I #
coedge $-1 $498 $283 $286 $411 reversed $398 $-1 #
coedge $-1 $283 $498 $401 $493 forward $398 $-1 #
vertex $-1 $284 $499 #
straight-curve $-1 21.711154246184918 42.919321937265941 77.794301132087583 0 0 1 I I #
straight-curve $-1 21.711154246184918 -5.0810375334149143 79.205109375183767 0 0.55919289150049634 -0.82903758062907751 I I #
edge $-1 $500 -53.73182712875689 $287 -21.711154246184918 $406 $501 forward 7 unknown #
point $-1 21.711154246184918 42.919321937265941 17.712488624563314 #
point $-1 21.711154246184918 36.396257594015182 17.712488624563314 #
edge $-1 $502 1 $502 0 $290 $-1 forward 7 unknown #
vertex $-1 $291 $503 #
ellipse-curve $-1 28.115288822699313 35.746256516784854 10.238705770669295 0 0.82903758062907751 0.55919289150049634 2.5 0 0 1 I I #
point $-1 30.615288822699313 39.657789765640572 12.877068178762094 #
edge $-1 $504 1 $504 0 $294 $-1 forward 7 unknown #
vertex $-1 $295 $505 #
ellipse-curve $-1 37.721490687470904 35.746256516784854 10.238705770669295 0 0.82903758062907751 0.55919289150049634 2.5 0 0 1 I I #
point $-1 40.221490687470904 39.657789765640572 12.877068178762094 #
edge $-1 $506 1 $506 0 $298 $-1 forward 7 unknown #
vertex $-1 $299 $507 #
ellipse-curve $-1 47.327692552242496 35.746256516784854 10.238705770669295 0 0.82903758062907751 0.55919289150049634 2.5 0 0 1 I I #
point $-1 49.827692552242496 39.657789765640572 12.877068178762094 #
plane-surface $-1 68.297982726523628 0 0 -1 0 0 0 0 1 forward_v I I I I #
coedge $-1 $307 $305 $309 $431 reversed $201 $-1 #
edge $-1 $320 -17.712488624563314 $433 17.712488624563314 $319 $508 forward 7 unknown #
vertex $-1 $431 $509 #
straight-curve $-1 -68.297982726523628 -42.919321937265941 0 0 0 -1 I I #
edge $-1 $429 -42.919321937265941 $433 42.919321937265941 $427 $510 forward 7 unknown #
straight-curve $-1 0 -42.919321937265941 -17.712488624563314 -1 0 0 I I #
vertex $-1 $312 $511 #
straight-curve $-1 0 42.919321937265941 -17.712488624563314 1 0 0 I I #
point $-1 68.297982726523628 42.919321937265941 -17.712488624563314 #
point $-1 68.297982726523628 -42.919321937265941 -17.712488624563314 #
straight-curve $-1 -68.297982726523628 0 17.712488624563314 0 -1 0 I I #
point $-1 -68.297982726523628 42.919321937265941 17.712488624563314 #
point $-1 -68.297982726523628 -42.919321937265941 17.712488624563314 #
straight-curve $-1 68.297982726523628 -42.919321937265941 0 0 0 -1 I I #
straight-curve $-1 68.297982726523628 42.919321937265941 0 0 0 -1 I I #
plane-surface $-1 0 -42.919321937265941 0 0 1 0 0 0 1 forward_v I I I I #
coedge $-1 $512 $332 $342 $454 reversed $220 $-1 #
coedge $-1 $332 $512 $345 $456 forward $220 $-1 #
coedge $-1 $513 $335 $333 $446 forward $330 $-1 #
edge $-1 $447 53.73182712875689 $514 68.297982726523628 $333 $515 forward 7 unknown #
vertex $-1 $446 $516 #
straight-curve $-1 -53.73182712875689 42.919321937265941 7.6339058344749056 0 0 -1 I I #
coedge $-1 $335 $513 $337 $451 forward $330 $-1 #
straight-curve $-1 -53.73182712875689 0 17.712488624563314 0 1 0 I I #
edge $-1 $517 -68.297982726523628 $339 -53.73182712875689 $337 $518 forward 7 unknown #
point $-1 -53.73182712875689 -42.919321937265941 17.712488624563314 #
straight-curve $-1 -68.297982726523628 0 12.82313471333631 0 -1 0 I I #
edge $-1 $517 -17.712488624563314 $343 -12.82313471333631 $443 $519 forward 7 unknown #
point $-1 -68.297982726523628 -42.919321937265941 12.82313471333631 #
edge $-1 $514 -17.712488624563314 $346 -12.82313471333631 $345 $520 forward 7 unknown #
point $-1 -68.297982726523628 42.919321937265941 12.82313471333631 #
plane-surface $-1 68.297982726523628 0 0 -1 0 0 0 0 1 forward_v I I I I #
coedge $-1 $353 $364 $354 $461 reversed $236 $-1 #
coedge $-1 $355 $354 $368 $471 forward $142 $-1 #
edge $-1 $465 53.73182712875689 $474 68.297982726523628 $459 $521 forward 7 unknown #
coedge $-1 $366 $359 $355 $463 reversed $351 $-1 #
edge $-1 $472 -68.297982726523628 $464 -53.73182712875689 $462 $522 forward 7 unknown #
vertex $-1 $360 $523 #
vertex $-1 $461 $524 #
straight-curve $-1 53.73182712875689 0 17.712488624563314 0 -1 0 I I #
straight-curve $-1 53.73182712875689 -42.919321937265941 7.6339058344749056 0 0 -1 I I #
straight-curve $-1 53.73182712875689 42.919321937265941 7.6339058344749056 0 0 1 I I #
point $-1 53.73182712875689 -42.919321937265941 12.82313471333631 #
point $-1 53.73182712875689 42.919321937265941 12.82313471333631 #
edge $-1 $474 -42.919321937265941 $472 42.919321937265941 $368 $525 forward 7 unknown #
vertex $-1 $471 $526 #
straight-curve $-1 68.297982726523628 42.919321937265941 0 0 0 -1 I I #
vertex $-1 $471 $527 #
straight-curve $-1 68.297982726523628 -42.919321937265941 0 0 0 -1 I I #
coedge $-1 $480 $378 $375 $477 reversed $373 $-1 #
edge $-1 $485 -42.919321937265941 $478 -37.461722509617751 $375 $528 forward 7 unknown #
vertex $-1 $379 $529 #
straight-curve $-1 21.516754145287244 -37.461722509617751 17.712488624563314 -1 0 0 I I #
coedge $-1 $378 $476 $380 $482 reversed $373 $-1 #
straight-curve $-1 53.73182712875689 -29.152403947053351 24.204439914667287 0 0.78801074757464917 0.61566148304635926 I I #
edge $-1 $381 5.8146387159239268 $485 10.078582790088408 $380 $530 forward 7 unknown #
point $-1 53.73182712875689 -42.919321937265941 13.448544550398832 #
point $-1 32.335189452392086 -37.461722509617751 17.712488624563314 #
vertex $-1 $477 $531 #
straight-curve $-1 0 -42.919321937265941 17.712488624563314 1 0 0 I I #
vertex $-1 $390 $532 #
point $-1 39.948514502782032 -37.422638441504269 12.037786973453635 #
vertex $-1 $394 $533 #
point $-1 49.118502078366944 -37.422638441504269 12.037786973453635 #
coedge $-1 $492 $400 $498 $534 reversed $277 $-1 #
coedge $-1 $400 $491 $403 $496 reversed $277 $-1 #
edge $-1 $494 -34.871081785021438 $408 -2.8504089024494661 $407 $535 forward 7 unknown #
vertex $-1 $534 $536 #
straight-curve $-1 53.73182712875689 -5.0810375334149143 79.205109375183767 0 -0.55919289150049634 0.82903758062907751 I I #
edge $-1 $404 36.396257594015182 $500 42.919321937265941 $403 $537 forward 7 unknown #
point $-1 53.73182712875689 36.396257594015182 17.712488624563314 #
coedge $-1 $407 $406 $491 $534 forward $398 $-1 #
point $-1 21.711154246184918 42.919321937265948 8.041647732960854 #
vertex $-1 $411 $538 #
straight-curve $-1 0 42.919321937265941 17.712488624563314 -1 0 0 I I #
vertex $-1 $414 $539 #
point $-1 30.615288822699313 35.746256516784854 10.238705770669295 #
vertex $-1 $418 $540 #
point $-1 40.221490687470904 35.746256516784854 10.238705770669295 #
vertex $-1 $422 $541 #
point $-1 49.827692552242496 35.746256516784854 10.238705770669295 #
straight-curve $-1 -68.297982726523628 42.919321937265941 0 0 0 -1 I I #
point $-1 -68.297982726523628 -42.919321937265941 -17.712488624563314 #
straight-curve $-1 -68.297982726523628 0 -17.712488624563314 0 1 0 I I #
point $-1 -68.297982726523628 42.919321937265941 -17.712488624563314 #
coedge $-1 $444 $443 $513 $542 reversed $220 $-1 #
coedge $-1 $449 $445 $512 $542 forward $330 $-1 #
vertex $-1 $446 $543 #
straight-curve $-1 0 42.919321937265941 17.712488624563314 -1 0 0 I I #
point $-1 -53.73182712875689 42.919321937265941 17.712488624563314 #
vertex $-1 $542 $544 #
straight-curve $-1 0 -42.919321937265941 17.712488624563314 1 0 0 I I #
straight-curve $-1 -68.297982726523628 -42.919321937265941 0 0 0 -1 I I #
straight-curve $-1 -68.297982726523628 42.919321937265941 0 0 0 -1 I I #
straight-curve $-1 0 -42.919321937265941 17.712488624563314 1 0 0 I I #
straight-curve $-1 0 42.919321937265941 17.712488624563314 -1 0 0 I I #
point $-1 53.73182712875689 42.919321937265941 17.712488624563314 #
point $-1 53.73182712875689 -42.919321937265941 17.712488624563314 #
straight-curve $-1 68.297982726523628 0 17.712488624563314 0 1 0 I I #
point $-1 68.297982726523628 42.919321937265941 17.712488624563314 #
point $-1 68.297982726523628 -42.919321937265941 17.712488624563314 #
straight-curve $-1 53.73182712875689 0 17.712488624563314 0 1 0 I I #
point $-1 53.73182712875689 -37.461722509617751 17.712488624563314 #
straight-curve $-1 53.73182712875689 -42.919321937265941 7.6339058344749056 0 0 1 I I #
point $-1 53.73182712875689 -42.919321937265941 17.712488624563314 #
point $-1 38.448514502782032 -36.499146216934726 10.855770852091659 #
point $-1 47.618502078366944 -36.499146216934726 10.855770852091659 #
edge $-1 $500 60.081812507524269 $494 69.752653399126729 $498 $545 forward 7 unknown #
straight-curve $-1 18.860745343735452 42.919321937265948 8.041647732960854 -1 0 0 I I #
point $-1 53.73182712875689 42.919321937265948 8.041647732960854 #
straight-curve $-1 53.73182712875689 0 17.712488624563314 0 1 0 I I #
point $-1 53.73182712875689 42.919321937265941 17.712488624563314 #
point $-1 28.115288822699313 33.673662565212155 8.8407235419180559 #
point $-1 37.721490687470904 33.673662565212155 8.8407235419180559 #
point $-1 47.327692552242496 33.673662565212155 8.8407235419180559 #
edge $-1 $514 -42.919321937265941 $517 42.919321937265941 $512 $546 forward 7 unknown #
point $-1 -68.297982726523628 42.919321937265941 17.712488624563314 #
point $-1 -68.297982726523628 -42.919321937265941 17.712488624563314 #
straight-curve $-1 53.73182712875689 42.919321937265941 77.794301132087583 0 0 -1 I I #
straight-curve $-1 -68.297982726523628 0 17.712488624563314 0 -1 0 I I #
End-of-ACIS-data 