500 0 9 0           
7 Unknown 11 ACIS 5.0 NT 24 Thu Mar 25 16:05:41 1999 
-1 9.9999999999999995e-007 1e-010 
body $-1 $9 $-1 $10 #
body $-1 $11 $-1 $12 #
body $-1 $13 $-1 $14 #
body $-1 $15 $-1 $16 #
body $-1 $17 $-1 $18 #
body $-1 $19 $-1 $20 #
body $-1 $21 $-1 $22 #
body $-1 $23 $-1 $24 #
body $-1 $25 $-1 $26 #
lump $-1 $-1 $27 $0 #
transform $-1 1 0 0 0 1 0 0 0 1 46.185491500595113 24.195830123244903 8.2462390001625145 1 rotate no_reflect no_shear #
lump $-1 $-1 $28 $1 #
transform $-1 1 0 0 0 1 0 0 0 1 46.185491500595113 24.195830123244903 8.2462390001625145 1 rotate no_reflect no_shear #
lump $-1 $-1 $29 $2 #
transform $-1 1 0 0 0 1 0 0 0 1 46.185491500595113 24.195830123244903 8.2462390001625145 1 rotate no_reflect no_shear #
lump $-1 $-1 $30 $3 #
transform $-1 1 0 0 0 1 0 0 0 1 46.185491500595113 24.195830123244903 8.2462390001625145 1 rotate no_reflect no_shear #
lump $-1 $-1 $31 $4 #
transform $-1 1 0 0 0 1 0 0 0 1 46.185491500595113 24.195830123244903 8.2462390001625145 1 rotate no_reflect no_shear #
lump $-1 $-1 $32 $5 #
transform $-1 1 0 0 0 1 0 0 0 1 46.185491500595113 24.195830123244903 8.2462390001625145 1 rotate no_reflect no_shear #
lump $-1 $-1 $33 $6 #
transform $-1 1 0 0 0 1 0 0 0 1 46.185491500595113 24.195830123244903 8.2462390001625145 1 rotate no_reflect no_shear #
lump $-1 $-1 $34 $7 #
transform $-1 1 0 0 0 1 0 0 0 1 46.185491500595113 24.195830123244903 8.2462390001625145 1 rotate no_reflect no_shear #
lump $-1 $-1 $35 $8 #
transform $-1 1 0 0 0 1 0 0 0 1 46.185491500595113 24.195830123244903 8.2462390001625145 1 rotate no_reflect no_shear #
shell $-1 $-1 $-1 $36 $-1 $9 #
shell $-1 $-1 $-1 $37 $-1 $11 #
shell $-1 $-1 $-1 $38 $-1 $13 #
shell $-1 $-1 $-1 $39 $-1 $15 #
shell $-1 $-1 $-1 $40 $-1 $17 #
shell $-1 $-1 $-1 $41 $-1 $19 #
shell $-1 $-1 $-1 $42 $-1 $21 #
shell $-1 $-1 $-1 $43 $-1 $23 #
shell $-1 $-1 $-1 $44 $-1 $25 #
face $-1 $45 $46 $27 $-1 $47 forward single #
face $-1 $48 $49 $28 $-1 $50 forward single #
face $-1 $51 $52 $29 $-1 $53 forward single #
face $-1 $54 $55 $30 $-1 $56 reversed single #
face $-1 $57 $58 $31 $-1 $59 forward single #
face $-1 $60 $61 $32 $-1 $62 forward single #
face $-1 $63 $64 $33 $-1 $65 forward single #
face $-1 $66 $67 $34 $-1 $68 reversed single #
face $-1 $69 $70 $35 $-1 $71 forward single #
face $-1 $72 $73 $27 $-1 $74 reversed single #
loop $-1 $-1 $75 $36 #
plane-surface $-1 0 0 8.2462390001625145 0 0 1 1 0 0 forward_v I I I I #
face $-1 $76 $77 $28 $-1 $78 reversed single #
loop $-1 $-1 $79 $37 #
plane-surface $-1 0 -20.472006566790704 -3.7533008346331282 0 0 1 1 0 0 forward_v I I I I #
face $-1 $80 $81 $29 $-1 $82 reversed single #
loop $-1 $-1 $83 $38 #
plane-surface $-1 0 19.148043161340254 -5.2462390001625145 0 0 1 1 0 0 forward_v I I I I #
face $-1 $84 $85 $30 $-1 $86 reversed single #
loop $-1 $-1 $87 $39 #
plane-surface $-1 64.365995117629154 14.100256199435606 131.17853129167449 0 -1 0 -0.79863551827123203 0 -0.60181501223851219 forward_v I I I I #
face $-1 $88 $89 $31 $-1 $90 forward single #
loop $-1 $91 $92 $40 #
cone-surface $-1 43.363987403555072 9.1489667075291905 4.7309815659375323 -0.79863551827123203 0 -0.60181501223851219 0.3009075061192561 0 -0.39931775913561601 1 I I 0 1 0.5 forward I I I I #
face $-1 $93 $94 $32 $-1 $95 forward single #
loop $-1 $96 $97 $41 #
cone-surface $-1 43.363987403555072 11.005700266994097 4.7309815659375323 -0.79863551827123203 0 -0.60181501223851219 0.3009075061192561 0 -0.39931775913561601 1 I I 0 1 0.5 forward I I I I #
face $-1 $98 $99 $33 $-1 $100 forward single #
loop $-1 $101 $102 $42 #
cone-surface $-1 43.363987403555072 12.862433826459004 4.7309815659375323 -0.79863551827123203 0 -0.60181501223851219 0.3009075061192561 0 -0.39931775913561601 1 I I 0 1 0.5 forward I I I I #
face $-1 $103 $104 $34 $-1 $105 reversed single #
loop $-1 $-1 $106 $43 #
plane-surface $-1 -93.760065395931917 7.2863997809211973 81.911539760337533 0 1 0 -0.51503808176128008 0 0.85716729658548041 forward_v I I I I #
face $-1 $107 $108 $35 $-1 $109 forward single #
loop $-1 $110 $111 $44 #
cone-surface $-1 -40.310627336780698 10.693327990178403 3.3465392427710978 0.51503808176128008 0 -0.85716729658548041 1.2857509448782207 0 0.77255712264192011 1 I I 0 1 1.5 forward I I I I #
face $-1 $112 $113 $27 $-1 $114 reversed single #
loop $-1 $-1 $115 $45 #
plane-surface $-1 0 0 -8.2462390001625145 0 0 1 1 0 0 forward_v I I I I #
coedge $-1 $116 $117 $118 $119 forward $46 $-1 #
face $-1 $120 $121 $28 $-1 $122 reversed single #
loop $-1 $-1 $123 $48 #
plane-surface $-1 0 -16.748183010336504 -5.9997699173978214 0 -1 0 0 0 -1 forward_v I I I I #
coedge $-1 $124 $125 $126 $127 reversed $49 $-1 #
face $-1 $128 $129 $29 $-1 $130 reversed single #
loop $-1 $-1 $131 $51 #
plane-surface $-1 0 14.100256199435606 -6.7462390001625145 0 1 0 0 0 1 forward_v I I I I #
coedge $-1 $132 $133 $134 $135 reversed $52 $-1 #
face $-1 $136 $137 $30 $-1 $138 reversed single #
loop $-1 $-1 $139 $54 #
plane-surface $-1 -9.4047527647495599 11.005700266994097 75.588287026329795 0.79863551827123203 0 0.60181501223851219 0.60181501223851219 0 -0.79863551827123203 forward_v I I I I #
coedge $-1 $140 $141 $142 $143 reversed $55 $-1 #
face $-1 $-1 $144 $31 $-1 $145 forward single #
loop $-1 $146 $147 $57 #
cone-surface $-1 42.765010764851645 9.1489667075291905 4.2796203067586482 -0.79863551827123203 0 -0.60181501223851219 0.15045375305962805 0 -0.19965887956780801 1 I I -0.70710678118654746 0.70710678118654746 0.25 forward I I I I #
loop $-1 $-1 $148 $40 #
coedge $-1 $92 $92 $149 $150 reversed $58 $-1 #
face $-1 $-1 $151 $32 $-1 $152 forward single #
loop $-1 $153 $154 $60 #
cone-surface $-1 42.765010764851645 11.005700266994097 4.2796203067586482 -0.79863551827123203 0 -0.60181501223851219 0.15045375305962805 0 -0.19965887956780801 1 I I -0.70710678118654746 0.70710678118654746 0.25 forward I I I I #
loop $-1 $-1 $155 $41 #
coedge $-1 $97 $97 $156 $157 reversed $61 $-1 #
face $-1 $-1 $158 $33 $-1 $159 forward single #
loop $-1 $160 $161 $63 #
cone-surface $-1 42.765010764851645 12.862433826459004 4.2796203067586482 -0.79863551827123203 0 -0.60181501223851219 0.15045375305962805 0 -0.19965887956780801 1 I I -0.70710678118654746 0.70710678118654746 0.25 forward I I I I #
loop $-1 $-1 $162 $42 #
coedge $-1 $102 $102 $163 $164 reversed $64 $-1 #
face $-1 $165 $166 $34 $-1 $167 reversed single #
loop $-1 $-1 $168 $66 #
plane-surface $-1 -46.185491500595091 10.693327990178403 2.7341539782639472 -0.51503808176128008 0 0.85716729658548041 0.85716729658548041 0 0.51503808176128008 forward_v I I I I #
coedge $-1 $169 $170 $171 $172 reversed $67 $-1 #
face $-1 $-1 $173 $35 $-1 $174 forward single #
loop $-1 $175 $176 $69 #
cone-surface $-1 -38.636309532059691 10.693327990178403 0.56000652388984662 0.51503808176128008 0 -0.85716729658548041 0.64287547243911036 0 0.38627856132096006 1 I I -0.70710678118654757 0.70710678118654757 0.75 forward I I I I #
loop $-1 $-1 $177 $44 #
coedge $-1 $111 $111 $178 $179 reversed $70 $-1 #
face $-1 $180 $181 $27 $-1 $182 reversed single #
loop $-1 $-1 $183 $72 #
plane-surface $-1 0 -24.195830123244903 0 0 1 0 0 0 1 forward_v I I I I #
coedge $-1 $184 $185 $186 $187 forward $73 $-1 #
coedge $-1 $188 $75 $189 $190 forward $46 $-1 #
coedge $-1 $75 $188 $191 $192 forward $46 $-1 #
coedge $-1 $193 $194 $75 $119 reversed $195 $-1 #
edge $-1 $196 -24.195830123244903 $197 24.195830123244903 $118 $198 forward 7 unknown #
face $-1 $199 $200 $28 $-1 $201 reversed single #
loop $-1 $-1 $202 $76 #
plane-surface $-1 0 0 -8.2462390001625145 0 0 1 1 0 0 forward_v I I I I #
coedge $-1 $203 $204 $205 $206 reversed $77 $-1 #
coedge $-1 $207 $79 $204 $208 forward $49 $-1 #
coedge $-1 $79 $207 $209 $210 reversed $49 $-1 #
coedge $-1 $211 $205 $79 $127 forward $200 $-1 #
edge $-1 $212 6.5121797269411523 $213 13.959826839849551 $126 $214 forward 7 unknown #
face $-1 $215 $216 $29 $-1 $217 reversed single #
loop $-1 $-1 $134 $80 #
plane-surface $-1 46.185491500595113 0 0 -1 0 0 0 0 1 forward_v I I I I #
coedge $-1 $218 $219 $220 $221 reversed $81 $-1 #
coedge $-1 $222 $83 $223 $224 reversed $52 $-1 #
coedge $-1 $83 $222 $219 $225 forward $52 $-1 #
coedge $-1 $226 $227 $83 $135 forward $129 $-1 #
edge $-1 $228 -14.621808542574776 $229 -4.5262346187654785 $134 $230 forward 7 unknown #
face $-1 $231 $232 $30 $-1 $233 forward single #
loop $-1 $-1 $234 $84 #
plane-surface $-1 64.365995117629154 7.9111443345525885 131.17853129167449 0 1 0 0.79863551827123203 0 0.60181501223851219 forward_v I I I I #
coedge $-1 $235 $236 $237 $238 reversed $85 $-1 #
coedge $-1 $141 $87 $239 $240 reversed $55 $-1 #
coedge $-1 $87 $140 $235 $241 reversed $55 $-1 #
coedge $-1 $237 $242 $87 $143 forward $232 $-1 #
edge $-1 $243 -14.002493941780536 $244 -9.158121265971694 $142 $245 forward 7 unknown #
loop $-1 $-1 $149 $88 #
plane-surface $-1 -9.4047527647495599 11.005700266994097 75.588287026329795 0.79863551827123203 0 0.60181501223851219 0.60181501223851219 0 -0.79863551827123203 forward_v I I I I #
loop $-1 $-1 $246 $57 #
coedge $-1 $147 $147 $148 $247 reversed $89 $-1 #
coedge $-1 $148 $148 $147 $247 forward $91 $-1 #
coedge $-1 $149 $149 $92 $150 forward $144 $-1 #
edge $-1 $248 0 $248 6.2831853071796004 $149 $249 forward 7 unknown #
loop $-1 $-1 $156 $93 #
plane-surface $-1 -9.4047527647495599 11.005700266994097 75.588287026329795 0.79863551827123203 0 0.60181501223851219 0.60181501223851219 0 -0.79863551827123203 forward_v I I I I #
loop $-1 $-1 $250 $60 #
coedge $-1 $154 $154 $155 $251 reversed $94 $-1 #
coedge $-1 $155 $155 $154 $251 forward $96 $-1 #
coedge $-1 $156 $156 $97 $157 forward $151 $-1 #
edge $-1 $252 0 $252 6.2831853071796004 $156 $253 forward 7 unknown #
loop $-1 $-1 $163 $98 #
plane-surface $-1 -9.4047527647495599 11.005700266994097 75.588287026329795 0.79863551827123203 0 0.60181501223851219 0.60181501223851219 0 -0.79863551827123203 forward_v I I I I #
loop $-1 $-1 $254 $63 #
coedge $-1 $161 $161 $162 $255 reversed $99 $-1 #
coedge $-1 $162 $162 $161 $255 forward $101 $-1 #
coedge $-1 $163 $163 $102 $164 forward $158 $-1 #
edge $-1 $256 0 $256 6.2831853071796004 $163 $257 forward 7 unknown #
face $-1 $258 $259 $34 $-1 $260 reversed single #
loop $-1 $-1 $261 $103 #
plane-surface $-1 -93.760065395931917 14.100256199435609 81.911539760337533 0 -1 0 0.51503808176128008 0 -0.85716729658548041 forward_v I I I I #
coedge $-1 $262 $263 $264 $265 reversed $104 $-1 #
coedge $-1 $170 $106 $266 $267 reversed $67 $-1 #
coedge $-1 $106 $169 $262 $268 reversed $67 $-1 #
coedge $-1 $264 $269 $106 $172 forward $270 $-1 #
edge $-1 $271 0.69454119737084596 $272 9.868191038199619 $171 $273 forward 7 unknown #
loop $-1 $-1 $178 $107 #
plane-surface $-1 -46.185491500595091 10.693327990178403 2.7341539782639472 -0.51503808176128008 0 0.85716729658548041 0.85716729658548041 0 0.51503808176128008 forward_v I I I I #
loop $-1 $-1 $274 $69 #
coedge $-1 $176 $176 $177 $275 reversed $108 $-1 #
coedge $-1 $177 $177 $176 $275 forward $110 $-1 #
coedge $-1 $178 $178 $111 $179 forward $173 $-1 #
edge $-1 $276 0 $276 6.2831853071796004 $178 $277 forward 7 unknown #
face $-1 $278 $279 $27 $-1 $280 reversed single #
loop $-1 $-1 $281 $112 #
plane-surface $-1 -46.185491500595113 0 0 1 0 0 0 0 -1 forward_v I I I I #
coedge $-1 $282 $191 $283 $284 forward $113 $-1 #
coedge $-1 $285 $115 $282 $286 forward $73 $-1 #
coedge $-1 $115 $285 $287 $288 forward $73 $-1 #
coedge $-1 $194 $193 $115 $187 reversed $195 $-1 #
edge $-1 $289 -24.195830123244903 $290 24.195830123244903 $186 $291 forward 7 unknown #
coedge $-1 $117 $116 $292 $293 forward $46 $-1 #
coedge $-1 $294 $295 $116 $190 reversed $279 $-1 #
edge $-1 $197 -46.185491500595113 $296 46.185491500595113 $189 $297 forward 7 unknown #
coedge $-1 $183 $298 $117 $192 reversed $113 $-1 #
edge $-1 $299 -46.185491500595113 $196 46.185491500595113 $191 $300 forward 7 unknown #
coedge $-1 $186 $118 $298 $301 forward $195 $-1 #
coedge $-1 $118 $186 $294 $302 reversed $195 $-1 #
loop $-1 $-1 $193 $278 #
vertex $-1 $119 $303 #
vertex $-1 $119 $304 #
straight-curve $-1 46.185491500595113 0 8.2462390001625145 0 1 0 I I #
face $-1 $305 $306 $28 $-1 $307 reversed single #
loop $-1 $-1 $205 $120 #
plane-surface $-1 46.185491500595113 0 0 -1 0 0 0 0 1 forward_v I I I I #
coedge $-1 $308 $309 $203 $310 forward $121 $-1 #
coedge $-1 $311 $123 $202 $310 reversed $77 $-1 #
coedge $-1 $123 $311 $124 $208 reversed $77 $-1 #
coedge $-1 $126 $312 $123 $206 forward $200 $-1 #
edge $-1 $313 -5.2463540414636043 $212 -0.75341587593421755 $205 $314 forward 7 unknown #
coedge $-1 $125 $124 $315 $316 reversed $49 $-1 #
edge $-1 $212 -46.185491500595113 $317 46.185491500595113 $204 $318 forward 7 unknown #
coedge $-1 $319 $320 $125 $210 forward $306 $-1 #
edge $-1 $213 -46.185491500595113 $321 46.185491500595113 $209 $322 forward 7 unknown #
coedge $-1 $312 $126 $320 $323 forward $200 $-1 #
vertex $-1 $127 $324 #
vertex $-1 $323 $325 #
straight-curve $-1 46.185491500595113 -10.236003283395352 -3.7533008346331282 0 -1 0 I I #
face $-1 $326 $327 $29 $-1 $328 reversed single #
loop $-1 $-1 $329 $128 #
plane-surface $-1 0 0 -8.2462390001625145 0 0 1 1 0 0 forward_v I I I I #
coedge $-1 $330 $131 $329 $331 reversed $81 $-1 #
coedge $-1 $131 $330 $133 $225 reversed $81 $-1 #
coedge $-1 $332 $333 $131 $221 forward $327 $-1 #
edge $-1 $334 -4.8731195000812573 $335 -1.8731195000812573 $220 $336 forward 7 unknown #
coedge $-1 $133 $132 $332 $337 reversed $52 $-1 #
coedge $-1 $338 $339 $132 $224 forward $340 $-1 #
edge $-1 $341 -46.185491500595113 $228 46.185491500595113 $223 $342 forward 7 unknown #
edge $-1 $335 -46.185491500595113 $229 46.185491500595113 $219 $343 forward 7 unknown #
coedge $-1 $344 $134 $330 $345 forward $129 $-1 #
coedge $-1 $134 $344 $338 $346 reversed $129 $-1 #
vertex $-1 $346 $347 #
vertex $-1 $135 $348 #
straight-curve $-1 46.185491500595113 9.5740215806701272 -5.2462390001625145 0 -1 0 I I #
face $-1 $-1 $349 $30 $-1 $350 reversed single #
loop $-1 $-1 $142 $136 #
plane-surface $-1 0 0 8.2462390001625145 0 0 1 1 0 0 forward_v I I I I #
coedge $-1 $351 $352 $353 $354 reversed $137 $-1 #
coedge $-1 $355 $139 $141 $241 forward $85 $-1 #
coedge $-1 $139 $355 $351 $356 forward $85 $-1 #
coedge $-1 $353 $142 $139 $238 forward $232 $-1 #
edge $-1 $244 -8.5974060659385572 $357 -2.4082942010555399 $237 $358 forward 7 unknown #
coedge $-1 $359 $360 $140 $240 forward $349 $-1 #
edge $-1 $361 -63.771726501886135 $243 -57.343026645674726 $239 $362 forward 7 unknown #
edge $-1 $244 84.321378758534777 $361 92.370983001190183 $141 $363 forward 7 unknown #
coedge $-1 $142 $353 $359 $364 forward $232 $-1 #
vertex $-1 $240 $365 #
vertex $-1 $143 $366 #
straight-curve $-1 32.182997558814577 14.100256199435606 8.2462390001625181 -1 0 0 I I #
coedge $-1 $246 $246 $-1 $367 reversed $146 $-1 #
edge $-1 $368 0 $368 6.2831853071796004 $147 $369 forward 7 unknown #
vertex $-1 $150 $370 #
ellipse-curve $-1 43.763305162690706 9.1489667075291905 5.031889072056801 0.79863551827123203 0 0.60181501223851219 0.3009075061192561 0 -0.39931775913561601 1 I I #
coedge $-1 $250 $250 $-1 $371 reversed $153 $-1 #
edge $-1 $372 0 $372 6.2831853071796004 $154 $373 forward 7 unknown #
vertex $-1 $157 $374 #
ellipse-curve $-1 43.763305162690706 11.005700266994097 5.031889072056801 0.79863551827123203 0 0.60181501223851219 0.3009075061192561 0 -0.39931775913561601 1 I I #
coedge $-1 $254 $254 $-1 $375 reversed $160 $-1 #
edge $-1 $376 0 $376 6.2831853071796004 $161 $377 forward 7 unknown #
vertex $-1 $164 $378 #
ellipse-curve $-1 43.763305162690706 12.862433826459004 5.031889072056801 0.79863551827123203 0 0.60181501223851219 0.3009075061192561 0 -0.39931775913561601 1 I I #
face $-1 $-1 $270 $34 $-1 $379 forward single #
loop $-1 $-1 $380 $165 #
plane-surface $-1 -46.185491500595113 0 0 1 0 0 0 0 -1 forward_v I I I I #
coedge $-1 $381 $382 $383 $384 reversed $166 $-1 #
coedge $-1 $385 $168 $170 $268 forward $104 $-1 #
coedge $-1 $168 $385 $381 $386 forward $104 $-1 #
coedge $-1 $383 $171 $168 $265 forward $270 $-1 #
edge $-1 $272 1.9397357858319957 $387 8.7535922043464076 $264 $388 forward 7 unknown #
coedge $-1 $389 $390 $169 $267 forward $259 $-1 #
edge $-1 $391 -38.221615901904833 $271 -32.709530880006255 $266 $392 forward 7 unknown #
edge $-1 $272 -10.702286330068725 $391 2.49045826659878e-014 $170 $393 forward 7 unknown #
coedge $-1 $171 $383 $389 $394 forward $270 $-1 #
loop $-1 $-1 $383 $258 #
vertex $-1 $267 $395 #
vertex $-1 $172 $396 #
straight-curve $-1 -46.880032697965959 7.2863997809211973 8.246239000162511 1 0 0 I I #
coedge $-1 $274 $274 $-1 $397 reversed $175 $-1 #
edge $-1 $398 0 $398 6.2831853071796004 $176 $399 forward 7 unknown #
vertex $-1 $179 $400 #
ellipse-curve $-1 -41.598666580180733 10.693327990178403 5.4901964892132185 -0.51503808176128008 0 0.85716729658548041 1.2857509448782207 0 0.77255712264192011 1 I I #
face $-1 $-1 $195 $27 $-1 $401 reversed single #
loop $-1 $-1 $294 $180 #
plane-surface $-1 0 24.195830123244903 0 0 -1 0 0 0 -1 forward_v I I I I #
coedge $-1 $402 $292 $295 $403 forward $181 $-1 #
coedge $-1 $298 $183 $184 $286 reversed $113 $-1 #
coedge $-1 $292 $402 $183 $284 reversed $181 $-1 #
edge $-1 $299 -8.2462390001625145 $404 8.2462390001625145 $283 $405 forward 7 unknown #
coedge $-1 $185 $184 $402 $406 forward $73 $-1 #
edge $-1 $290 -46.185491500595113 $404 46.185491500595113 $282 $407 forward 7 unknown #
coedge $-1 $295 $294 $185 $288 reversed $279 $-1 #
edge $-1 $408 -46.185491500595113 $289 46.185491500595113 $287 $409 forward 7 unknown #
vertex $-1 $187 $410 #
vertex $-1 $301 $411 #
straight-curve $-1 46.185491500595113 0 -8.2462390001625145 0 -1 0 I I #
coedge $-1 $281 $283 $188 $293 reversed $181 $-1 #
edge $-1 $296 -24.195830123244903 $299 24.195830123244903 $292 $412 forward 7 unknown #
coedge $-1 $287 $189 $194 $302 forward $279 $-1 #
coedge $-1 $189 $287 $281 $403 reversed $279 $-1 #
vertex $-1 $190 $413 #
straight-curve $-1 0 24.195830123244903 8.2462390001625145 -1 0 0 I I #
coedge $-1 $191 $282 $193 $301 reversed $113 $-1 #
vertex $-1 $293 $414 #
straight-curve $-1 0 -24.195830123244903 8.2462390001625145 1 0 0 I I #
edge $-1 $196 -8.2462390001625145 $290 8.2462390001625145 $193 $415 forward 7 unknown #
edge $-1 $197 -8.2462390001625145 $289 8.2462390001625145 $194 $416 forward 7 unknown #
point $-1 46.185491500595113 -24.195830123244903 8.2462390001625145 #
point $-1 46.185491500595113 24.195830123244903 8.2462390001625145 #
face $-1 $-1 $417 $28 $-1 $418 reversed single #
loop $-1 $-1 $209 $199 #
plane-surface $-1 0 -24.195830123244903 0 0 1 0 0 0 1 forward_v I I I I #
coedge $-1 $419 $202 $312 $420 forward $121 $-1 #
coedge $-1 $202 $419 $421 $422 forward $121 $-1 #
edge $-1 $423 -46.185491500595113 $313 46.185491500595113 $202 $424 forward 7 unknown #
coedge $-1 $204 $203 $425 $426 reversed $77 $-1 #
coedge $-1 $205 $211 $308 $420 reversed $200 $-1 #
vertex $-1 $420 $427 #
straight-curve $-1 46.185491500595113 -16.748183010336504 -2.9998849586989107 0 0 1 I I #
coedge $-1 $425 $428 $207 $316 forward $417 $-1 #
edge $-1 $321 -13.959826839849551 $317 -6.5121797269411523 $315 $429 forward 7 unknown #
vertex $-1 $316 $430 #
straight-curve $-1 0 -16.748183010336504 -3.7533008346331282 -1 0 0 I I #
coedge $-1 $431 $209 $428 $432 forward $306 $-1 #
coedge $-1 $209 $431 $211 $323 reversed $306 $-1 #
vertex $-1 $432 $433 #
straight-curve $-1 0 -24.195830123244903 -3.7533008346331282 -1 0 0 I I #
edge $-1 $213 3.7533008346331282 $434 8.2462390001625145 $211 $435 forward 7 unknown #
point $-1 46.185491500595113 -16.748183010336504 -3.7533008346331282 #
point $-1 46.185491500595113 -24.195830123244903 -3.7533008346331282 #
face $-1 $-1 $340 $29 $-1 $436 reversed single #
loop $-1 $-1 $332 $215 #
plane-surface $-1 -46.185491500595113 0 0 1 0 0 0 0 -1 forward_v I I I I #
coedge $-1 $437 $438 $218 $331 forward $216 $-1 #
coedge $-1 $219 $218 $226 $345 reversed $81 $-1 #
edge $-1 $439 -46.185491500595113 $334 46.185491500595113 $329 $440 forward 7 unknown #
coedge $-1 $441 $220 $222 $337 forward $327 $-1 #
coedge $-1 $220 $441 $437 $442 reversed $327 $-1 #
vertex $-1 $442 $443 #
vertex $-1 $337 $444 #
straight-curve $-1 -46.185491500595113 14.100256199435606 -3.3731195000812573 0 0 1 I I #
edge $-1 $335 4.5262346187654785 $341 14.621808542574776 $332 $445 forward 7 unknown #
coedge $-1 $446 $223 $227 $346 forward $340 $-1 #
coedge $-1 $223 $446 $441 $447 reversed $340 $-1 #
loop $-1 $-1 $223 $326 #
vertex $-1 $447 $448 #
straight-curve $-1 0 24.195830123244903 -5.2462390001625145 1 0 0 I I #
straight-curve $-1 0 14.100256199435606 -5.2462390001625145 1 0 0 I I #
coedge $-1 $227 $226 $438 $449 reversed $129 $-1 #
edge $-1 $229 1.8731195000812573 $439 4.8731195000812573 $226 $450 forward 7 unknown #
edge $-1 $228 5.2462390001625145 $451 8.2462390001625145 $227 $452 forward 7 unknown #
point $-1 46.185491500595113 24.195830123244903 -5.2462390001625145 #
point $-1 46.185491500595113 14.100256199435606 -5.2462390001625145 #
loop $-1 $-1 $239 $231 #
plane-surface $-1 46.185491500595113 0 0 -1 0 0 0 0 1 forward_v I I I I #
coedge $-1 $352 $234 $236 $356 reversed $137 $-1 #
coedge $-1 $234 $351 $453 $454 reversed $137 $-1 #
coedge $-1 $242 $237 $234 $354 forward $232 $-1 #
edge $-1 $357 9.158121265971694 $455 14.002493941780536 $353 $456 forward 7 unknown #
coedge $-1 $236 $235 $360 $457 reversed $85 $-1 #
edge $-1 $458 -92.370983001190183 $357 -84.321378758534777 $351 $459 forward 7 unknown #
vertex $-1 $238 $460 #
straight-curve $-1 41.341118824786264 5.5028501334970485 8.2462390001625181 0 -1 0 I I #
coedge $-1 $453 $239 $242 $364 reversed $349 $-1 #
coedge $-1 $239 $453 $355 $457 forward $349 $-1 #
vertex $-1 $240 $461 #
straight-curve $-1 46.185491500595113 14.100256199435606 65.589265645837244 0 0 1 I I #
straight-curve $-1 -9.4047527647495599 14.100256199435606 75.588287026329795 0.60181501223851219 0 -0.79863551827123203 I I #
edge $-1 $455 7.9111443345525885 $243 14.100256199435606 $359 $462 forward 7 unknown #
point $-1 46.185491500595113 14.100256199435606 8.2462390001625145 #
point $-1 41.341118824786271 14.100256199435606 8.2462390001625181 #
edge $-1 $463 1 $463 0 $246 $-1 forward 7 unknown #
vertex $-1 $247 $464 #
ellipse-curve $-1 42.964669644419452 9.1489667075291905 4.430074059818276 0.79863551827123203 0 0.60181501223851219 0.3009075061192561 0 -0.39931775913561601 1 I I #
point $-1 44.064212668809944 9.1489667075291905 4.6325713129211721 #
edge $-1 $465 1 $465 0 $250 $-1 forward 7 unknown #
vertex $-1 $251 $466 #
ellipse-curve $-1 42.964669644419452 11.005700266994097 4.430074059818276 0.79863551827123203 0 0.60181501223851219 0.3009075061192561 0 -0.39931775913561601 1 I I #
point $-1 44.064212668809944 11.005700266994097 4.6325713129211721 #
edge $-1 $467 1 $467 0 $254 $-1 forward 7 unknown #
vertex $-1 $255 $468 #
ellipse-curve $-1 42.964669644419452 12.862433826459004 4.430074059818276 0.79863551827123203 0 0.60181501223851219 0.3009075061192561 0 -0.39931775913561601 1 I I #
point $-1 44.064212668809944 12.862433826459004 4.6325713129211721 #
plane-surface $-1 0 0 8.2462390001625145 0 0 1 1 0 0 forward_v I I I I #
coedge $-1 $390 $389 $382 $469 forward $259 $-1 #
coedge $-1 $382 $261 $263 $386 reversed $166 $-1 #
coedge $-1 $261 $381 $380 $469 reversed $166 $-1 #
coedge $-1 $269 $264 $261 $384 forward $270 $-1 #
edge $-1 $387 -9.868191038199619 $470 -0.69454119737084596 $383 $471 forward 7 unknown #
coedge $-1 $263 $262 $390 $472 reversed $104 $-1 #
edge $-1 $473 -2.49045826659878e-014 $387 10.702286330068725 $381 $474 forward 7 unknown #
vertex $-1 $265 $475 #
straight-curve $-1 -37.01184165976634 5.3466639950892016 8.2462390001625145 0 1 0 I I #
coedge $-1 $380 $266 $269 $394 reversed $259 $-1 #
coedge $-1 $266 $380 $385 $472 forward $259 $-1 #
vertex $-1 $267 $476 #
straight-curve $-1 -46.185491500595113 7.2863997809211973 40.955769880168766 0 0 1 I I #
straight-curve $-1 -46.185491500595091 7.2863997809211973 2.7341539782639472 -0.85716729658548041 0 -0.51503808176128008 I I #
edge $-1 $470 -14.100256199435609 $271 -7.2863997809211973 $389 $477 forward 7 unknown #
point $-1 -46.185491500595113 7.2863997809211973 8.2462390001625145 #
point $-1 -37.01184165976634 7.2863997809211973 8.2462390001625145 #
edge $-1 $478 1 $478 0 $274 $-1 forward 7 unknown #
vertex $-1 $275 $479 #
ellipse-curve $-1 -39.022588093380648 10.693327990178403 1.202881996328957 -0.51503808176128008 0 0.85716729658548041 1.2857509448782207 0 0.77255712264192011 1 I I #
point $-1 -40.312915635302531 10.693327990178403 6.2627536118551586 #
plane-surface $-1 46.185491500595113 0 0 -1 0 0 0 0 1 forward_v I I I I #
coedge $-1 $283 $281 $285 $406 reversed $181 $-1 #
edge $-1 $296 -8.2462390001625145 $408 8.2462390001625145 $295 $480 forward 7 unknown #
vertex $-1 $406 $481 #
straight-curve $-1 -46.185491500595113 -24.195830123244903 0 0 0 -1 I I #
edge $-1 $404 -24.195830123244903 $408 24.195830123244903 $402 $482 forward 7 unknown #
straight-curve $-1 0 -24.195830123244903 -8.2462390001625145 -1 0 0 I I #
vertex $-1 $288 $483 #
straight-curve $-1 0 24.195830123244903 -8.2462390001625145 1 0 0 I I #
point $-1 46.185491500595113 24.195830123244903 -8.2462390001625145 #
point $-1 46.185491500595113 -24.195830123244903 -8.2462390001625145 #
straight-curve $-1 -46.185491500595113 0 8.2462390001625145 0 -1 0 I I #
point $-1 -46.185491500595113 24.195830123244903 8.2462390001625145 #
point $-1 -46.185491500595113 -24.195830123244903 8.2462390001625145 #
straight-curve $-1 46.185491500595113 -24.195830123244903 0 0 0 -1 I I #
straight-curve $-1 46.185491500595113 24.195830123244903 0 0 0 -1 I I #
loop $-1 $-1 $425 $305 #
plane-surface $-1 -46.185491500595113 0 0 1 0 0 0 0 -1 forward_v I I I I #
coedge $-1 $309 $308 $431 $484 forward $121 $-1 #
edge $-1 $313 16.748183010336504 $434 24.195830123244903 $312 $485 forward 7 unknown #
coedge $-1 $428 $425 $309 $422 reversed $417 $-1 #
edge $-1 $486 -24.195830123244903 $423 -16.748183010336504 $421 $487 forward 7 unknown #
vertex $-1 $426 $488 #
straight-curve $-1 0 -16.748183010336504 -8.2462390001625145 1 0 0 I I #
coedge $-1 $421 $315 $311 $426 forward $417 $-1 #
edge $-1 $317 0.75341587593421755 $423 5.2463540414636043 $425 $489 forward 7 unknown #
point $-1 46.185491500595113 -16.748183010336504 -8.2462390001625145 #
coedge $-1 $315 $421 $319 $432 reversed $417 $-1 #
straight-curve $-1 -46.185491500595113 -10.236003283395352 -3.7533008346331282 0 1 0 I I #
point $-1 -46.185491500595113 -16.748183010336504 -3.7533008346331282 #
coedge $-1 $320 $319 $419 $484 reversed $306 $-1 #
edge $-1 $321 3.7533008346331282 $486 8.2462390001625145 $428 $490 forward 7 unknown #
point $-1 -46.185491500595113 -24.195830123244903 -3.7533008346331282 #
vertex $-1 $323 $491 #
straight-curve $-1 46.185491500595113 -24.195830123244903 0 0 0 -1 I I #
plane-surface $-1 0 24.195830123244903 0 0 -1 0 0 0 -1 forward_v I I I I #
coedge $-1 $492 $329 $333 $442 forward $216 $-1 #
coedge $-1 $329 $492 $344 $449 forward $216 $-1 #
vertex $-1 $331 $493 #
straight-curve $-1 0 14.100256199435606 -8.2462390001625145 -1 0 0 I I #
coedge $-1 $333 $332 $339 $447 forward $327 $-1 #
edge $-1 $334 14.100256199435606 $494 24.195830123244903 $333 $495 forward 7 unknown #
point $-1 -46.185491500595113 14.100256199435606 -8.2462390001625145 #
point $-1 -46.185491500595113 14.100256199435606 -5.2462390001625145 #
straight-curve $-1 -46.185491500595113 9.5740215806701272 -5.2462390001625145 0 1 0 I I #
coedge $-1 $339 $338 $492 $496 reversed $340 $-1 #
edge $-1 $341 5.2462390001625145 $494 8.2462390001625145 $339 $497 forward 7 unknown #
point $-1 -46.185491500595113 24.195830123244903 -5.2462390001625145 #
edge $-1 $451 -24.195830123244903 $439 -14.100256199435606 $344 $498 forward 7 unknown #
straight-curve $-1 46.185491500595113 14.100256199435606 -3.3731195000812573 0 0 -1 I I #
vertex $-1 $449 $499 #
straight-curve $-1 46.185491500595113 24.195830123244903 0 0 0 -1 I I #
coedge $-1 $360 $359 $352 $454 forward $349 $-1 #
edge $-1 $455 57.343026645674726 $458 63.771726501886135 $453 $500 forward 7 unknown #
vertex $-1 $364 $501 #
straight-curve $-1 32.182997558814577 7.9111443345525885 8.2462390001625181 1 0 0 I I #
edge $-1 $458 2.4082942010555399 $361 8.5974060659385572 $360 $502 forward 7 unknown #
vertex $-1 $457 $503 #
straight-curve $-1 -9.4047527647495599 7.9111443345525885 75.588287026329795 -0.60181501223851219 0 0.79863551827123203 I I #
point $-1 41.341118824786271 7.9111443345525885 8.2462390001625181 #
point $-1 46.185491500595113 14.100256199435606 1.8175391439511088 #
straight-curve $-1 46.185491500595113 0 8.2462390001625145 0 1 0 I I #
vertex $-1 $367 $504 #
point $-1 43.265577150538711 9.1489667075291905 4.0307563006826603 #
vertex $-1 $371 $505 #
point $-1 43.265577150538711 11.005700266994097 4.0307563006826603 #
vertex $-1 $375 $506 #
point $-1 43.265577150538711 12.862433826459004 4.0307563006826603 #
edge $-1 $470 32.709530880006255 $473 38.221615901904833 $380 $507 forward 7 unknown #
vertex $-1 $394 $508 #
straight-curve $-1 -46.880032697965959 14.100256199435609 8.246239000162511 -1 0 0 I I #
edge $-1 $473 -8.7535922043464076 $391 -1.9397357858319957 $390 $509 forward 7 unknown #
vertex $-1 $472 $510 #
straight-curve $-1 -46.185491500595091 14.100256199435609 2.7341539782639472 0.85716729658548041 0 0.51503808176128008 I I #
point $-1 -37.01184165976634 14.100256199435609 8.2462390001625145 #
point $-1 -46.185491500595113 7.2863997809211973 2.7341539782639344 #
straight-curve $-1 -46.185491500595113 0 8.2462390001625145 0 -1 0 I I #
vertex $-1 $397 $511 #
point $-1 -37.736837148502431 10.693327990178403 1.9754391189708771 #
straight-curve $-1 -46.185491500595113 24.195830123244903 0 0 0 -1 I I #
point $-1 -46.185491500595113 -24.195830123244903 -8.2462390001625145 #
straight-curve $-1 -46.185491500595113 0 -8.2462390001625145 0 1 0 I I #
point $-1 -46.185491500595113 24.195830123244903 -8.2462390001625145 #
edge $-1 $434 -46.185491500595113 $486 46.185491500595113 $431 $512 forward 7 unknown #
straight-curve $-1 46.185491500595113 0 -8.2462390001625145 0 -1 0 I I #
vertex $-1 $422 $513 #
straight-curve $-1 -46.185491500595113 0 -8.2462390001625145 0 1 0 I I #
point $-1 -46.185491500595113 -16.748183010336504 -8.2462390001625145 #
straight-curve $-1 -46.185491500595113 -16.748183010336504 -2.9998849586989107 0 0 -1 I I #
straight-curve $-1 -46.185491500595113 -24.195830123244903 0 0 0 -1 I I #
point $-1 46.185491500595113 -24.195830123244903 -8.2462390001625145 #
coedge $-1 $438 $437 $446 $496 forward $216 $-1 #
point $-1 46.185491500595113 14.100256199435606 -8.2462390001625145 #
vertex $-1 $496 $514 #
straight-curve $-1 -46.185491500595113 0 -8.2462390001625145 0 1 0 I I #
edge $-1 $494 -46.185491500595113 $451 46.185491500595113 $446 $515 forward 7 unknown #
straight-curve $-1 -46.185491500595113 24.195830123244903 0 0 0 -1 I I #
straight-curve $-1 46.185491500595113 0 -8.2462390001625145 0 -1 0 I I #
point $-1 46.185491500595113 24.195830123244903 -8.2462390001625145 #
straight-curve $-1 46.185491500595113 7.9111443345525885 65.589265645837244 0 0 -1 I I #
point $-1 46.185491500595113 7.9111443345525885 8.2462390001625145 #
straight-curve $-1 46.185491500595113 5.5028501334970485 1.8175391439511088 0 1 0 I I #
point $-1 46.185491500595113 7.9111443345525885 1.8175391439511088 #
point $-1 42.565351885283839 9.1489667075291905 4.1291665536990205 #
point $-1 42.565351885283839 11.005700266994097 4.1291665536990205 #
point $-1 42.565351885283839 12.862433826459004 4.1291665536990205 #
straight-curve $-1 -46.185491500595113 14.100256199435609 40.955769880168766 0 0 -1 I I #
point $-1 -46.185491500595113 14.100256199435609 8.2462390001625145 #
straight-curve $-1 -46.185491500595113 5.3466639950892016 2.7341539782639375 0 -1 0 I I #
point $-1 -46.185491500595113 14.100256199435609 2.7341539782639344 #
point $-1 -38.250030970738734 10.693327990178403 -0.082868948549263743 #
straight-curve $-1 0 -24.195830123244903 -8.2462390001625145 -1 0 0 I I #
point $-1 -46.185491500595113 -24.195830123244903 -8.2462390001625145 #
point $-1 -46.185491500595113 24.195830123244903 -8.2462390001625145 #
straight-curve $-1 0 24.195830123244903 -8.2462390001625145 1 0 0 I I #
End-of-ACIS-data 