500 0 5 0           
7 Unknown 11 ACIS 5.0 NT 24 Thu Mar 25 23:56:17 1999 
-1 9.9999999999999995e-007 1e-010 
body $-1 $5 $-1 $6 #
body $-1 $7 $-1 $8 #
body $-1 $9 $-1 $10 #
body $-1 $11 $-1 $12 #
body $-1 $13 $-1 $14 #
lump $-1 $-1 $15 $0 #
transform $-1 1 0 0 0 1 0 0 0 1 62.681356242561108 34.007318662133549 16.038144985799192 1 rotate no_reflect no_shear #
lump $-1 $-1 $16 $1 #
transform $-1 1 0 0 0 1 0 0 0 1 62.681356242561108 34.007318662133549 16.038144985799192 1 rotate no_reflect no_shear #
lump $-1 $-1 $17 $2 #
transform $-1 1 0 0 0 1 0 0 0 1 62.681356242561108 34.007318662133549 16.038144985799192 1 rotate no_reflect no_shear #
lump $-1 $-1 $18 $3 #
transform $-1 1 0 0 0 1 0 0 0 1 62.681356242561108 34.007318662133549 16.038144985799192 1 rotate no_reflect no_shear #
lump $-1 $-1 $19 $4 #
transform $-1 1 0 0 0 1 0 0 0 1 62.681356242561108 34.007318662133549 16.038144985799192 1 rotate no_reflect no_shear #
shell $-1 $-1 $-1 $20 $-1 $5 #
shell $-1 $-1 $-1 $21 $-1 $7 #
shell $-1 $-1 $-1 $22 $-1 $9 #
shell $-1 $-1 $-1 $23 $-1 $11 #
shell $-1 $-1 $-1 $24 $-1 $13 #
face $-1 $25 $26 $15 $-1 $27 forward single #
face $-1 $28 $29 $16 $-1 $30 reversed single #
face $-1 $31 $32 $17 $-1 $33 reversed single #
face $-1 $34 $35 $18 $-1 $36 forward single #
face $-1 $37 $38 $19 $-1 $39 forward single #
face $-1 $40 $41 $15 $-1 $42 reversed single #
loop $-1 $-1 $43 $20 #
plane-surface $-1 0 0 16.038144985799192 0 0 1 1 0 0 forward_v I I I I #
face $-1 $44 $45 $16 $-1 $46 reversed single #
loop $-1 $-1 $47 $21 #
plane-surface $-1 -34.778106723855174 -24.563941228243742 0 1 0 0 0 0 -1 forward_v I I I I #
face $-1 $48 $49 $17 $-1 $50 reversed single #
loop $-1 $-1 $51 $22 #
plane-surface $-1 56.494038713779204 24.428181324734474 186.73812662938886 0 1 0 0.68199836817093118 0 0.7313536940579346 forward_v I I I I #
face $-1 $52 $53 $18 $-1 $54 forward single #
loop $-1 $55 $56 $23 #
cone-surface $-1 58.289722561980405 27.1650777068485 11.814737218547469 -0.68199836817093118 0 -0.7313536940579346 0.7313536940579346 0 -0.68199836817093118 1 I I 0 1 1 forward I I I I #
face $-1 $57 $58 $19 $-1 $59 forward single #
loop $-1 $60 $61 $24 #
cone-surface $-1 58.289722561980405 31.270422280019538 11.814737218547469 -0.68199836817093118 0 -0.7313536940579346 0.7313536940579346 0 -0.68199836817093118 1 I I 0 1 1 forward I I I I #
face $-1 $62 $63 $15 $-1 $64 reversed single #
loop $-1 $-1 $65 $25 #
plane-surface $-1 0 0 -16.038144985799192 0 0 1 1 0 0 forward_v I I I I #
coedge $-1 $66 $67 $68 $69 forward $26 $-1 #
face $-1 $70 $71 $16 $-1 $72 reversed single #
loop $-1 $-1 $73 $28 #
plane-surface $-1 -32.691586497408949 -15.120563794353933 0 0 -1 0 0 0 -1 forward_v I I I I #
coedge $-1 $74 $75 $76 $77 forward $29 $-1 #
face $-1 $78 $79 $17 $-1 $80 reversed single #
loop $-1 $-1 $81 $31 #
plane-surface $-1 -29.003126630555784 29.217749993434012 95.053643756271953 0.68199836817093118 0 0.7313536940579346 0.7313536940579346 0 -0.68199836817093118 forward_v I I I I #
coedge $-1 $82 $83 $84 $85 reversed $32 $-1 #
face $-1 $-1 $86 $18 $-1 $87 forward single #
loop $-1 $88 $89 $34 #
cone-surface $-1 57.032457831375424 27.1650777068485 10.466485891197891 -0.68199836817093118 0 -0.7313536940579346 0.3656768470289673 0 -0.34099918408546559 1 I I -0.70710678118654746 0.70710678118654746 0.5 forward I I I I #
loop $-1 $-1 $90 $23 #
coedge $-1 $56 $56 $91 $92 reversed $35 $-1 #
face $-1 $-1 $93 $19 $-1 $94 forward single #
loop $-1 $95 $96 $37 #
cone-surface $-1 57.032457831375424 31.270422280019538 10.466485891197891 -0.68199836817093118 0 -0.7313536940579346 0.3656768470289673 0 -0.34099918408546559 1 I I -0.70710678118654746 0.70710678118654746 0.5 forward I I I I #
loop $-1 $-1 $97 $24 #
coedge $-1 $61 $61 $98 $99 reversed $38 $-1 #
face $-1 $100 $101 $15 $-1 $102 reversed single #
loop $-1 $-1 $103 $40 #
plane-surface $-1 0 -34.007318662133549 0 0 1 0 0 0 1 forward_v I I I I #
coedge $-1 $104 $105 $106 $107 forward $41 $-1 #
coedge $-1 $108 $43 $109 $110 forward $26 $-1 #
coedge $-1 $43 $108 $111 $112 forward $26 $-1 #
coedge $-1 $113 $114 $43 $69 reversed $115 $-1 #
edge $-1 $116 -34.007318662133549 $117 34.007318662133549 $68 $118 forward 7 unknown #
face $-1 $119 $120 $16 $-1 $121 forward single #
loop $-1 $-1 $122 $44 #
plane-surface $-1 -30.605066270962727 -24.563941228243742 0 -1 0 0 0 0 1 forward_v I I I I #
coedge $-1 $123 $124 $125 $126 forward $45 $-1 #
coedge $-1 $127 $47 $128 $129 reversed $29 $-1 #
coedge $-1 $47 $127 $130 $131 reversed $29 $-1 #
coedge $-1 $124 $123 $47 $77 reversed $45 $-1 #
edge $-1 $132 -16.038144985799192 $133 16.038144985799192 $76 $134 forward 7 unknown #
face $-1 $135 $136 $17 $-1 $137 reversed single #
loop $-1 $-1 $84 $48 #
plane-surface $-1 62.681356242561108 0 0 -1 0 0 0 0 1 forward_v I I I I #
coedge $-1 $138 $139 $140 $141 reversed $49 $-1 #
coedge $-1 $83 $51 $142 $143 reversed $32 $-1 #
coedge $-1 $51 $82 $138 $144 reversed $32 $-1 #
coedge $-1 $140 $145 $51 $85 forward $79 $-1 #
edge $-1 $146 77.330918328895237 $147 83.81258490275745 $84 $148 forward 7 unknown #
loop $-1 $-1 $91 $52 #
plane-surface $-1 -29.003126630555784 29.217749993434012 95.053643756271953 0.68199836817093118 0 0.7313536940579346 0.7313536940579346 0 -0.68199836817093118 forward_v I I I I #
loop $-1 $-1 $149 $34 #
coedge $-1 $89 $89 $90 $150 reversed $53 $-1 #
coedge $-1 $90 $90 $89 $150 forward $55 $-1 #
coedge $-1 $91 $91 $56 $92 forward $86 $-1 #
edge $-1 $151 0 $151 6.2831853071796004 $91 $152 forward 7 unknown #
loop $-1 $-1 $98 $57 #
plane-surface $-1 -29.003126630555784 29.217749993434012 95.053643756271953 0.68199836817093118 0 0.7313536940579346 0.7313536940579346 0 -0.68199836817093118 forward_v I I I I #
loop $-1 $-1 $153 $37 #
coedge $-1 $96 $96 $97 $154 reversed $58 $-1 #
coedge $-1 $97 $97 $96 $154 forward $60 $-1 #
coedge $-1 $98 $98 $61 $99 forward $93 $-1 #
edge $-1 $155 0 $155 6.2831853071796004 $98 $156 forward 7 unknown #
face $-1 $157 $158 $15 $-1 $159 reversed single #
loop $-1 $-1 $160 $62 #
plane-surface $-1 -62.681356242561108 0 0 1 0 0 0 0 -1 forward_v I I I I #
coedge $-1 $161 $111 $162 $163 forward $63 $-1 #
coedge $-1 $164 $65 $161 $165 forward $41 $-1 #
coedge $-1 $65 $164 $166 $167 forward $41 $-1 #
coedge $-1 $114 $113 $65 $107 reversed $115 $-1 #
edge $-1 $168 -34.007318662133549 $169 34.007318662133549 $106 $170 forward 7 unknown #
coedge $-1 $67 $66 $171 $172 forward $26 $-1 #
coedge $-1 $173 $174 $66 $110 reversed $158 $-1 #
edge $-1 $117 -62.681356242561108 $175 62.681356242561108 $109 $176 forward 7 unknown #
coedge $-1 $103 $177 $67 $112 reversed $63 $-1 #
edge $-1 $178 -62.681356242561108 $116 62.681356242561108 $111 $179 forward 7 unknown #
coedge $-1 $106 $68 $177 $180 forward $115 $-1 #
coedge $-1 $68 $106 $173 $181 reversed $115 $-1 #
loop $-1 $-1 $113 $157 #
vertex $-1 $69 $182 #
vertex $-1 $69 $183 #
straight-curve $-1 62.681356242561108 0 16.038144985799192 0 1 0 I I #
face $-1 $184 $185 $16 $-1 $186 reversed single #
loop $-1 $-1 $187 $70 #
plane-surface $-1 0 0 16.038144985799192 0 0 1 1 0 0 forward_v I I I I #
coedge $-1 $188 $189 $190 $191 reversed $71 $-1 #
coedge $-1 $76 $73 $192 $193 reversed $45 $-1 #
coedge $-1 $73 $76 $194 $195 reversed $45 $-1 #
coedge $-1 $189 $188 $73 $126 reversed $71 $-1 #
edge $-1 $196 -16.038144985799192 $197 16.038144985799192 $125 $198 forward 7 unknown #
coedge $-1 $75 $74 $199 $200 reversed $29 $-1 #
coedge $-1 $192 $201 $74 $129 forward $185 $-1 #
edge $-1 $202 -21.725348048011679 $133 -2.8385931802320616 $128 $203 forward 7 unknown #
coedge $-1 $204 $194 $75 $131 forward $120 $-1 #
edge $-1 $132 2.8385931802320616 $205 21.725348048011679 $130 $206 forward 7 unknown #
vertex $-1 $131 $207 #
vertex $-1 $129 $208 #
straight-curve $-1 -34.778106723855174 -15.120563794353933 0 0 0 -1 I I #
face $-1 $-1 $209 $17 $-1 $210 forward single #
loop $-1 $-1 $211 $78 #
plane-surface $-1 0 34.007318662133549 0 0 -1 0 0 0 -1 forward_v I I I I #
coedge $-1 $212 $81 $83 $144 forward $49 $-1 #
coedge $-1 $81 $212 $211 $213 reversed $49 $-1 #
coedge $-1 $214 $84 $81 $141 forward $79 $-1 #
edge $-1 $147 9.8193063280174684 $215 19.398443665416544 $140 $216 forward 7 unknown #
coedge $-1 $217 $218 $82 $143 forward $209 $-1 #
edge $-1 $219 27.483600617549136 $146 34.434336885671506 $142 $220 forward 7 unknown #
edge $-1 $147 -125.36271248512222 $219 -115.85877981260636 $83 $221 forward 7 unknown #
coedge $-1 $84 $214 $217 $222 reversed $79 $-1 #
vertex $-1 $222 $223 #
vertex $-1 $85 $224 #
straight-curve $-1 62.681356242561108 24.428181324734474 93.369063314694429 0 0 -1 I I #
coedge $-1 $149 $149 $-1 $225 reversed $88 $-1 #
edge $-1 $226 0 $226 6.2831853071796004 $89 $227 forward 7 unknown #
vertex $-1 $92 $228 #
ellipse-curve $-1 59.20598810849993 27.1650777068485 12.797311698868093 0.68199836817093118 0 0.7313536940579346 0.7313536940579346 0 -0.68199836817093118 1 I I #
coedge $-1 $153 $153 $-1 $229 reversed $95 $-1 #
edge $-1 $230 0 $230 6.2831853071796004 $96 $231 forward 7 unknown #
vertex $-1 $99 $232 #
ellipse-curve $-1 59.20598810849993 31.270422280019538 12.797311698868093 0.68199836817093118 0 0.7313536940579346 0.7313536940579346 0 -0.68199836817093118 1 I I #
face $-1 $-1 $115 $15 $-1 $233 reversed single #
loop $-1 $-1 $173 $100 #
plane-surface $-1 0 34.007318662133549 0 0 -1 0 0 0 -1 forward_v I I I I #
coedge $-1 $234 $171 $174 $235 forward $101 $-1 #
coedge $-1 $177 $103 $104 $165 reversed $63 $-1 #
coedge $-1 $171 $234 $103 $163 reversed $101 $-1 #
edge $-1 $178 -16.038144985799192 $236 16.038144985799192 $162 $237 forward 7 unknown #
coedge $-1 $105 $104 $234 $238 forward $41 $-1 #
edge $-1 $169 -62.681356242561108 $236 62.681356242561108 $161 $239 forward 7 unknown #
coedge $-1 $174 $173 $105 $167 reversed $158 $-1 #
edge $-1 $240 -62.681356242561108 $168 62.681356242561108 $166 $241 forward 7 unknown #
vertex $-1 $107 $242 #
vertex $-1 $180 $243 #
straight-curve $-1 62.681356242561108 0 -16.038144985799192 0 -1 0 I I #
coedge $-1 $160 $162 $108 $172 reversed $101 $-1 #
edge $-1 $175 -34.007318662133549 $178 34.007318662133549 $171 $244 forward 7 unknown #
coedge $-1 $166 $109 $114 $181 forward $158 $-1 #
coedge $-1 $109 $166 $160 $235 reversed $158 $-1 #
vertex $-1 $110 $245 #
straight-curve $-1 0 34.007318662133549 16.038144985799192 -1 0 0 I I #
coedge $-1 $111 $161 $113 $180 reversed $63 $-1 #
vertex $-1 $172 $246 #
straight-curve $-1 0 -34.007318662133549 16.038144985799192 1 0 0 I I #
edge $-1 $116 -16.038144985799192 $169 16.038144985799192 $113 $247 forward 7 unknown #
edge $-1 $117 -16.038144985799192 $168 16.038144985799192 $114 $248 forward 7 unknown #
point $-1 62.681356242561108 -34.007318662133549 16.038144985799192 #
point $-1 62.681356242561108 34.007318662133549 16.038144985799192 #
face $-1 $-1 $249 $16 $-1 $250 reversed single #
loop $-1 $-1 $251 $119 #
plane-surface $-1 0 0 -16.038144985799192 0 0 1 1 0 0 forward_v I I I I #
coedge $-1 $194 $204 $189 $252 forward $120 $-1 #
coedge $-1 $125 $122 $251 $253 reversed $71 $-1 #
coedge $-1 $122 $125 $187 $252 reversed $71 $-1 #
coedge $-1 $254 $255 $122 $191 forward $249 $-1 #
edge $-1 $256 -16.038144985799192 $257 16.038144985799192 $190 $258 forward 7 unknown #
coedge $-1 $251 $128 $123 $193 forward $185 $-1 #
edge $-1 $133 -18.4323134751507 $197 -14.259273022258252 $192 $259 forward 7 unknown #
coedge $-1 $130 $187 $124 $195 forward $120 $-1 #
edge $-1 $196 14.259273022258252 $132 18.4323134751507 $194 $260 forward 7 unknown #
vertex $-1 $195 $261 #
vertex $-1 $193 $262 #
straight-curve $-1 -30.605066270962727 -15.120563794353933 0 0 0 -1 I I #
coedge $-1 $255 $254 $127 $200 forward $249 $-1 #
edge $-1 $205 -16.038144985799192 $202 16.038144985799192 $199 $263 forward 7 unknown #
coedge $-1 $128 $251 $255 $264 forward $185 $-1 #
vertex $-1 $129 $265 #
straight-curve $-1 -34.778106723855174 -12.281970614121871 -16.038144985799192 0 1 0 I I #
coedge $-1 $187 $130 $254 $266 forward $120 $-1 #
vertex $-1 $266 $267 #
straight-curve $-1 -34.778106723855174 -12.281970614121871 16.038144985799192 0 -1 0 I I #
point $-1 -34.778106723855174 -15.120563794353933 16.038144985799192 #
point $-1 -34.778106723855174 -15.120563794353933 -16.038144985799192 #
loop $-1 $-1 $142 $135 #
plane-surface $-1 0 0 16.038144985799192 0 0 1 1 0 0 forward_v I I I I #
coedge $-1 $268 $269 $139 $213 forward $136 $-1 #
coedge $-1 $139 $138 $218 $270 reversed $49 $-1 #
edge $-1 $215 -82.343725619639457 $271 -72.839792947123598 $211 $272 forward 7 unknown #
coedge $-1 $145 $140 $269 $273 reversed $79 $-1 #
vertex $-1 $213 $274 #
straight-curve $-1 62.681356242561101 14.608874996717006 9.5564784119369861 0 1 0 I I #
coedge $-1 $275 $142 $145 $222 forward $209 $-1 #
coedge $-1 $142 $275 $212 $270 forward $209 $-1 #
vertex $-1 $143 $276 #
straight-curve $-1 28.247019356889602 24.428181324734474 16.038144985799192 1 0 0 I I #
straight-curve $-1 -29.003126630555784 24.428181324734474 95.053643756271953 -0.7313536940579346 0 0.68199836817093118 I I #
edge $-1 $146 24.428181324734474 $277 34.007318662133549 $145 $278 forward 7 unknown #
point $-1 62.681356242561108 24.428181324734474 16.038144985799192 #
point $-1 62.681356242561108 24.428181324734474 9.556478411936979 #
edge $-1 $279 1 $279 0 $149 $-1 forward 7 unknown #
vertex $-1 $150 $280 #
ellipse-curve $-1 57.373457015460893 27.1650777068485 10.832162738226858 0.68199836817093118 0 0.7313536940579346 0.7313536940579346 0 -0.68199836817093118 1 I I #
point $-1 59.937341802557846 27.1650777068485 12.115313330697148 #
edge $-1 $281 1 $281 0 $153 $-1 forward 7 unknown #
vertex $-1 $154 $282 #
ellipse-curve $-1 57.373457015460893 31.270422280019538 10.832162738226858 0.68199836817093118 0 0.7313536940579346 0.7313536940579346 0 -0.68199836817093118 1 I I #
point $-1 59.937341802557846 31.270422280019538 12.115313330697148 #
plane-surface $-1 62.681356242561108 0 0 -1 0 0 0 0 1 forward_v I I I I #
coedge $-1 $162 $160 $164 $238 reversed $101 $-1 #
edge $-1 $175 -16.038144985799192 $240 16.038144985799192 $174 $283 forward 7 unknown #
vertex $-1 $238 $284 #
straight-curve $-1 -62.681356242561108 -34.007318662133549 0 0 0 -1 I I #
edge $-1 $236 -34.007318662133549 $240 34.007318662133549 $234 $285 forward 7 unknown #
straight-curve $-1 0 -34.007318662133549 -16.038144985799192 -1 0 0 I I #
vertex $-1 $167 $286 #
straight-curve $-1 0 34.007318662133549 -16.038144985799192 1 0 0 I I #
point $-1 62.681356242561108 34.007318662133549 -16.038144985799192 #
point $-1 62.681356242561108 -34.007318662133549 -16.038144985799192 #
straight-curve $-1 -62.681356242561108 0 16.038144985799192 0 -1 0 I I #
point $-1 -62.681356242561108 34.007318662133549 16.038144985799192 #
point $-1 -62.681356242561108 -34.007318662133549 16.038144985799192 #
straight-curve $-1 62.681356242561108 -34.007318662133549 0 0 0 -1 I I #
straight-curve $-1 62.681356242561108 34.007318662133549 0 0 0 -1 I I #
loop $-1 $-1 $190 $184 #
plane-surface $-1 0 -34.007318662133549 0 0 1 0 0 0 1 forward_v I I I I #
coedge $-1 $201 $192 $188 $253 forward $185 $-1 #
edge $-1 $257 -21.725348048011679 $196 -2.8385931802320616 $187 $287 forward 7 unknown #
edge $-1 $197 2.8385931802320616 $256 21.725348048011679 $251 $288 forward 7 unknown #
coedge $-1 $199 $190 $204 $266 reversed $249 $-1 #
coedge $-1 $190 $199 $201 $264 reversed $249 $-1 #
vertex $-1 $264 $289 #
vertex $-1 $191 $290 #
straight-curve $-1 -30.605066270962727 -34.007318662133549 0 0 0 1 I I #
straight-curve $-1 -16.345793248704474 -15.120563794353933 -16.038144985799192 1 0 0 I I #
straight-curve $-1 -16.345793248704474 -15.120563794353933 16.038144985799192 -1 0 0 I I #
point $-1 -30.605066270962727 -15.120563794353933 16.038144985799192 #
point $-1 -30.605066270962727 -15.120563794353933 -16.038144985799192 #
straight-curve $-1 -34.778106723855174 -34.007318662133549 0 0 0 -1 I I #
edge $-1 $256 30.605066270962727 $202 34.778106723855174 $255 $291 forward 7 unknown #
point $-1 -34.778106723855174 -34.007318662133549 -16.038144985799192 #
edge $-1 $205 -34.778106723855174 $257 -30.605066270962727 $254 $292 forward 7 unknown #
point $-1 -34.778106723855174 -34.007318662133549 16.038144985799192 #
coedge $-1 $269 $211 $275 $293 reversed $136 $-1 #
coedge $-1 $211 $268 $214 $273 forward $136 $-1 #
edge $-1 $271 -19.398443665416544 $219 -9.8193063280174684 $218 $294 forward 7 unknown #
vertex $-1 $213 $295 #
straight-curve $-1 2.4589683281448025 34.007318662133549 65.714764913645993 -0.7313536940579346 0 0.68199836817093118 I I #
edge $-1 $277 -16.038144985799192 $215 -9.5564784119369932 $214 $296 forward 7 unknown #
point $-1 62.681356242561108 34.007318662133549 9.5564784119369932 #
coedge $-1 $218 $217 $268 $293 forward $209 $-1 #
point $-1 55.730619974438738 24.428181324734474 16.038144985799192 #
vertex $-1 $222 $297 #
straight-curve $-1 62.681356242561108 0 16.038144985799192 0 1 0 I I #
vertex $-1 $225 $298 #
point $-1 58.104810709518823 27.1650777068485 10.150164370055927 #
vertex $-1 $229 $299 #
point $-1 58.104810709518823 31.270422280019538 10.150164370055927 #
straight-curve $-1 -62.681356242561108 34.007318662133549 0 0 0 -1 I I #
point $-1 -62.681356242561108 -34.007318662133549 -16.038144985799192 #
straight-curve $-1 -62.681356242561108 0 -16.038144985799192 0 1 0 I I #
point $-1 -62.681356242561108 34.007318662133549 -16.038144985799192 #
straight-curve $-1 -30.605066270962727 -12.281970614121871 16.038144985799192 0 1 0 I I #
straight-curve $-1 -30.605066270962727 -12.281970614121871 -16.038144985799192 0 -1 0 I I #
point $-1 -30.605066270962727 -34.007318662133549 -16.038144985799192 #
point $-1 -30.605066270962727 -34.007318662133549 16.038144985799192 #
straight-curve $-1 0 -34.007318662133549 -16.038144985799192 -1 0 0 I I #
straight-curve $-1 0 -34.007318662133549 16.038144985799192 1 0 0 I I #
edge $-1 $277 -62.681356242561108 $271 -55.730619974438738 $268 $300 forward 7 unknown #
straight-curve $-1 55.730619974438746 14.608874996717006 16.0381449857992 0 -1 0 I I #
point $-1 55.730619974438738 34.007318662133549 16.038144985799192 #
straight-curve $-1 62.681356242561108 34.007318662133549 0 0 0 -1 I I #
point $-1 62.681356242561108 34.007318662133549 16.038144985799192 #
point $-1 56.691458647289956 27.1650777068485 10.100809044168924 #
point $-1 56.691458647289956 31.270422280019538 10.100809044168924 #
straight-curve $-1 0 34.007318662133549 16.038144985799192 -1 0 0 I I #
End-of-ACIS-data 