500 0 5 0           
7 Unknown 11 ACIS 5.0 NT 24 Fri Mar 26 18:41:52 1999 
-1 9.9999999999999995e-007 1e-010 
body $-1 $5 $-1 $6 #
body $-1 $7 $-1 $8 #
body $-1 $9 $-1 $10 #
body $-1 $11 $-1 $12 #
body $-1 $13 $-1 $14 #
lump $-1 $-1 $15 $0 #
transform $-1 1 0 0 0 1 0 0 0 1 52.892239143040257 23.999488300146304 10.015155585417357 1 rotate no_reflect no_shear #
lump $-1 $-1 $16 $1 #
transform $-1 1 0 0 0 1 0 0 0 1 52.892239143040257 23.999488300146304 10.015155585417357 1 rotate no_reflect no_shear #
lump $-1 $-1 $17 $2 #
transform $-1 1 0 0 0 1 0 0 0 1 52.892239143040257 23.999488300146304 10.015155585417357 1 rotate no_reflect no_shear #
lump $-1 $-1 $18 $3 #
transform $-1 1 0 0 0 1 0 0 0 1 52.892239143040257 23.999488300146304 10.015155585417357 1 rotate no_reflect no_shear #
lump $-1 $-1 $19 $4 #
transform $-1 1 0 0 0 1 0 0 0 1 52.892239143040257 23.999488300146304 10.015155585417357 1 rotate no_reflect no_shear #
shell $-1 $-1 $-1 $20 $-1 $5 #
shell $-1 $-1 $-1 $21 $-1 $7 #
shell $-1 $-1 $-1 $22 $-1 $9 #
shell $-1 $-1 $-1 $23 $-1 $11 #
shell $-1 $-1 $-1 $24 $-1 $13 #
face $-1 $25 $26 $15 $-1 $27 reversed single #
face $-1 $28 $29 $16 $-1 $30 forward single #
face $-1 $31 $32 $17 $-1 $33 reversed single #
face $-1 $34 $35 $18 $-1 $36 forward single #
face $-1 $37 $38 $19 $-1 $39 forward single #
face $-1 $40 $41 $15 $-1 $42 forward single #
loop $-1 $-1 $43 $20 #
plane-surface $-1 0 -23.999488300146304 0 0 1 0 0 0 1 forward_v I I I I #
face $-1 $44 $45 $16 $-1 $46 forward single #
loop $-1 $-1 $47 $21 #
plane-surface $-1 0 -23.999488300146304 0 0 1 0 0 0 1 forward_v I I I I #
face $-1 $48 $49 $17 $-1 $50 reversed single #
loop $-1 $-1 $51 $22 #
plane-surface $-1 71.1241196198051 14.856277361321329 153.09121280497195 0 -1 0 -0.78801076186113728 0 -0.61566146476048833 forward_v I I I I #
face $-1 $52 $53 $18 $-1 $54 forward single #
loop $-1 $55 $56 $23 #
cone-surface $-1 49.794178891159184 8.0669545205801612 6.540705304817811 -0.78801076186113728 0 -0.61566146476048833 0.61566146476048833 0 -0.78801076186113728 1 I I 0 1 1 forward I I I I #
face $-1 $57 $58 $19 $-1 $59 forward single #
loop $-1 $60 $61 $24 #
cone-surface $-1 49.794178891159184 12.140548225024865 6.540705304817811 -0.78801076186113728 0 -0.61566146476048833 0.61566146476048833 0 -0.78801076186113728 1 I I 0 1 1 forward I I I I #
face $-1 $62 $63 $15 $-1 $64 reversed single #
loop $-1 $-1 $65 $25 #
plane-surface $-1 0 0 10.015155585417357 0 0 1 1 0 0 forward_v I I I I #
coedge $-1 $66 $67 $68 $69 reversed $26 $-1 #
face $-1 $70 $71 $16 $-1 $72 reversed single #
loop $-1 $-1 $73 $28 #
plane-surface $-1 0 0 10.015155585417357 0 0 1 1 0 0 forward_v I I I I #
coedge $-1 $74 $75 $76 $77 forward $29 $-1 #
face $-1 $78 $79 $17 $-1 $80 reversed single #
loop $-1 $-1 $81 $31 #
plane-surface $-1 -12.235187707492145 10.103751372802513 87.963785954439544 0.78801076186113728 0 0.61566146476048833 0.61566146476048833 0 -0.78801076186113728 forward_v I I I I #
coedge $-1 $82 $83 $84 $85 reversed $32 $-1 #
face $-1 $-1 $86 $18 $-1 $87 forward single #
loop $-1 $88 $89 $34 #
cone-surface $-1 48.415755268521295 8.0669545205801612 5.4637627709755527 -0.78801076186113728 0 -0.61566146476048833 0.30783073238024417 0 -0.39400538093056864 1 I I -0.70710678118654746 0.70710678118654746 0.5 forward I I I I #
loop $-1 $-1 $90 $23 #
coedge $-1 $56 $56 $91 $92 reversed $35 $-1 #
face $-1 $-1 $93 $19 $-1 $94 forward single #
loop $-1 $95 $96 $37 #
cone-surface $-1 48.415755268521295 12.140548225024865 5.4637627709755527 -0.78801076186113728 0 -0.61566146476048833 0.30783073238024417 0 -0.39400538093056864 1 I I -0.70710678118654746 0.70710678118654746 0.5 forward I I I I #
loop $-1 $-1 $97 $24 #
coedge $-1 $61 $61 $98 $99 reversed $38 $-1 #
face $-1 $100 $101 $15 $-1 $102 reversed single #
loop $-1 $-1 $103 $40 #
plane-surface $-1 0 0 -10.015155585417357 0 0 1 1 0 0 forward_v I I I I #
coedge $-1 $104 $105 $106 $107 forward $41 $-1 #
coedge $-1 $108 $43 $109 $110 reversed $26 $-1 #
coedge $-1 $43 $108 $111 $112 forward $26 $-1 #
coedge $-1 $113 $103 $43 $69 forward $63 $-1 #
edge $-1 $114 -52.892239143040257 $115 52.892239143040257 $43 $116 forward 7 unknown #
face $-1 $117 $118 $16 $-1 $119 reversed single #
loop $-1 $-1 $120 $44 #
plane-surface $-1 -52.892239143040257 0 0 1 0 0 0 0 -1 forward_v I I I I #
coedge $-1 $121 $122 $75 $123 forward $45 $-1 #
coedge $-1 $124 $47 $125 $126 reversed $29 $-1 #
coedge $-1 $47 $124 $73 $123 reversed $29 $-1 #
coedge $-1 $127 $128 $47 $77 reversed $129 $-1 #
edge $-1 $130 -10.015155585417357 $131 10.015155585417357 $76 $132 forward 7 unknown #
face $-1 $133 $134 $17 $-1 $135 forward single #
loop $-1 $-1 $136 $48 #
plane-surface $-1 71.1241196198051 5.3512253842836977 153.09121280497195 0 1 0 0.78801076186113728 0 0.61566146476048833 forward_v I I I I #
coedge $-1 $137 $138 $139 $140 reversed $49 $-1 #
coedge $-1 $83 $51 $141 $142 reversed $32 $-1 #
coedge $-1 $51 $82 $137 $143 reversed $32 $-1 #
coedge $-1 $139 $144 $51 $85 forward $134 $-1 #
edge $-1 $145 -17.330179333137707 $146 -13.10289531279021 $84 $147 forward 7 unknown #
loop $-1 $-1 $91 $52 #
plane-surface $-1 -12.235187707492145 10.103751372802513 87.963785954439544 0.78801076186113728 0 0.61566146476048833 0.61566146476048833 0 -0.78801076186113728 forward_v I I I I #
loop $-1 $-1 $148 $34 #
coedge $-1 $89 $89 $90 $149 reversed $53 $-1 #
coedge $-1 $90 $90 $89 $149 forward $55 $-1 #
coedge $-1 $91 $91 $56 $92 forward $86 $-1 #
edge $-1 $150 0 $150 6.2831853071796004 $91 $151 forward 7 unknown #
loop $-1 $-1 $98 $57 #
plane-surface $-1 -12.235187707492145 10.103751372802513 87.963785954439544 0.78801076186113728 0 0.61566146476048833 0.61566146476048833 0 -0.78801076186113728 forward_v I I I I #
loop $-1 $-1 $152 $37 #
coedge $-1 $96 $96 $97 $153 reversed $58 $-1 #
coedge $-1 $97 $97 $96 $153 forward $60 $-1 #
coedge $-1 $98 $98 $61 $99 forward $93 $-1 #
edge $-1 $154 0 $154 6.2831853071796004 $98 $155 forward 7 unknown #
face $-1 $156 $157 $15 $-1 $158 reversed single #
loop $-1 $-1 $159 $62 #
plane-surface $-1 -52.892239143040257 0 0 1 0 0 0 0 -1 forward_v I I I I #
coedge $-1 $68 $160 $161 $162 forward $63 $-1 #
coedge $-1 $163 $65 $164 $165 forward $41 $-1 #
coedge $-1 $65 $163 $108 $166 forward $41 $-1 #
coedge $-1 $109 $167 $65 $107 reversed $168 $-1 #
edge $-1 $169 -23.999488300146304 $170 23.999488300146304 $106 $171 forward 7 unknown #
coedge $-1 $67 $66 $105 $166 reversed $26 $-1 #
coedge $-1 $161 $106 $66 $110 forward $168 $-1 #
edge $-1 $169 -10.015155585417357 $114 10.015155585417357 $109 $172 forward 7 unknown #
coedge $-1 $173 $174 $67 $112 reversed $101 $-1 #
edge $-1 $175 -10.015155585417357 $115 10.015155585417357 $111 $176 forward 7 unknown #
coedge $-1 $160 $68 $174 $177 forward $63 $-1 #
vertex $-1 $110 $178 #
vertex $-1 $177 $179 #
straight-curve $-1 0 -23.999488300146304 -10.015155585417357 -1 0 0 I I #
face $-1 $180 $129 $16 $-1 $181 reversed single #
loop $-1 $-1 $182 $70 #
plane-surface $-1 -50.363280165126447 -35.516914166900058 0 0 1 0 0 0 1 forward_v I I I I #
coedge $-1 $183 $184 $124 $185 forward $71 $-1 #
coedge $-1 $186 $73 $184 $187 forward $45 $-1 #
coedge $-1 $73 $186 $127 $188 forward $45 $-1 #
edge $-1 $130 47.834321187212637 $189 52.892239143040257 $73 $190 forward 7 unknown #
coedge $-1 $75 $74 $120 $185 reversed $29 $-1 #
coedge $-1 $191 $192 $74 $126 forward $193 $-1 #
edge $-1 $194 -52.892239143040257 $131 -47.834321187212637 $125 $195 forward 7 unknown #
coedge $-1 $196 $76 $122 $188 reversed $129 $-1 #
coedge $-1 $76 $196 $191 $197 reversed $129 $-1 #
loop $-1 $-1 $196 $117 #
vertex $-1 $123 $198 #
vertex $-1 $197 $199 #
straight-curve $-1 -47.834321187212637 -23.999488300146304 0 0 0 -1 I I #
face $-1 $-1 $200 $17 $-1 $201 reversed single #
loop $-1 $-1 $84 $78 #
plane-surface $-1 0 0 10.015155585417357 0 0 1 1 0 0 forward_v I I I I #
coedge $-1 $202 $203 $204 $205 reversed $79 $-1 #
coedge $-1 $206 $81 $83 $143 forward $49 $-1 #
coedge $-1 $81 $206 $202 $207 forward $49 $-1 #
coedge $-1 $204 $84 $81 $140 forward $134 $-1 #
edge $-1 $146 -9.8044016749200722 $208 -0.29934969788244103 $139 $209 forward 7 unknown #
coedge $-1 $210 $211 $82 $142 forward $200 $-1 #
edge $-1 $212 -71.941127775343674 $145 -66.530450817068612 $141 $213 forward 7 unknown #
edge $-1 $146 98.918230742079942 $212 105.78447828608051 $83 $214 forward 7 unknown #
coedge $-1 $84 $204 $210 $215 forward $134 $-1 #
vertex $-1 $142 $216 #
vertex $-1 $85 $217 #
straight-curve $-1 35.56205980990255 14.856277361321329 10.015155585417361 -1 0 0 I I #
coedge $-1 $148 $148 $-1 $218 reversed $88 $-1 #
edge $-1 $219 0 $219 6.2831853071796004 $89 $220 forward 7 unknown #
vertex $-1 $92 $221 #
ellipse-curve $-1 50.778597132866508 8.0669545205801612 7.3098171062798301 0.78801076186113728 0 0.61566146476048833 0.61566146476048833 0 -0.78801076186113728 1 I I #
coedge $-1 $152 $152 $-1 $222 reversed $95 $-1 #
edge $-1 $223 0 $223 6.2831853071796004 $96 $224 forward 7 unknown #
vertex $-1 $99 $225 #
ellipse-curve $-1 50.778597132866508 12.140548225024865 7.3098171062798301 0.78801076186113728 0 0.61566146476048833 0.61566146476048833 0 -0.78801076186113728 1 I I #
face $-1 $-1 $168 $15 $-1 $226 reversed single #
loop $-1 $-1 $227 $100 #
plane-surface $-1 0 23.999488300146304 0 0 -1 0 0 0 -1 forward_v I I I I #
coedge $-1 $174 $173 $228 $229 forward $101 $-1 #
coedge $-1 $103 $113 $230 $231 forward $63 $-1 #
coedge $-1 $167 $109 $103 $162 reversed $168 $-1 #
edge $-1 $232 -23.999488300146304 $114 23.999488300146304 $161 $233 forward 7 unknown #
coedge $-1 $105 $104 $173 $234 forward $41 $-1 #
coedge $-1 $227 $228 $104 $165 reversed $157 $-1 #
edge $-1 $170 -52.892239143040257 $235 52.892239143040257 $164 $236 forward 7 unknown #
edge $-1 $175 -52.892239143040257 $169 52.892239143040257 $108 $237 forward 7 unknown #
coedge $-1 $106 $161 $227 $238 reversed $168 $-1 #
loop $-1 $-1 $109 $156 #
vertex $-1 $107 $239 #
vertex $-1 $107 $240 #
straight-curve $-1 52.892239143040257 0 10.015155585417357 0 1 0 I I #
straight-curve $-1 52.892239143040257 -23.999488300146304 0 0 0 -1 I I #
coedge $-1 $159 $111 $163 $234 reversed $101 $-1 #
coedge $-1 $111 $159 $113 $177 reversed $101 $-1 #
vertex $-1 $234 $241 #
straight-curve $-1 -52.892239143040257 -23.999488300146304 0 0 0 -1 I I #
edge $-1 $115 -23.999488300146304 $242 23.999488300146304 $174 $243 forward 7 unknown #
point $-1 52.892239143040257 -23.999488300146304 -10.015155585417357 #
point $-1 -52.892239143040257 -23.999488300146304 -10.015155585417357 #
face $-1 $-1 $193 $16 $-1 $244 reversed single #
plane-surface $-1 -47.834321187212637 -29.758201233523181 0 -1 0 0 0 0 1 forward_v I I I I #
coedge $-1 $245 $246 $247 $248 forward $118 $-1 #
coedge $-1 $247 $120 $192 $249 reversed $71 $-1 #
coedge $-1 $120 $247 $121 $187 reversed $71 $-1 #
edge $-1 $189 -10.015155585417357 $194 10.015155585417357 $120 $250 forward 7 unknown #
coedge $-1 $122 $121 $246 $251 forward $45 $-1 #
edge $-1 $189 23.999488300146304 $252 35.516914166900058 $184 $253 forward 7 unknown #
edge $-1 $254 -5.7587129333768772 $130 5.7587129333768772 $127 $255 forward 7 unknown #
vertex $-1 $187 $256 #
straight-curve $-1 0 -23.999488300146304 10.015155585417357 -1 0 0 I I #
coedge $-1 $257 $125 $128 $197 forward $193 $-1 #
coedge $-1 $125 $257 $183 $249 forward $193 $-1 #
loop $-1 $-1 $125 $180 #
vertex $-1 $185 $258 #
straight-curve $-1 0 -23.999488300146304 -10.015155585417357 1 0 0 I I #
coedge $-1 $128 $127 $259 $260 forward $129 $-1 #
edge $-1 $131 -5.7587129333768772 $261 5.7587129333768772 $128 $262 forward 7 unknown #
point $-1 -47.834321187212637 -23.999488300146304 10.015155585417357 #
point $-1 -47.834321187212637 -23.999488300146304 -10.015155585417357 #
loop $-1 $-1 $141 $133 #
plane-surface $-1 52.892239143040257 0 0 -1 0 0 0 0 1 forward_v I I I I #
coedge $-1 $203 $136 $138 $207 reversed $79 $-1 #
coedge $-1 $136 $202 $263 $264 reversed $79 $-1 #
coedge $-1 $144 $139 $136 $205 forward $134 $-1 #
edge $-1 $208 13.10289531279021 $265 17.330179333137707 $204 $266 forward 7 unknown #
coedge $-1 $138 $137 $211 $267 reversed $49 $-1 #
edge $-1 $268 -105.78447828608051 $208 -98.918230742079942 $202 $269 forward 7 unknown #
vertex $-1 $140 $270 #
straight-curve $-1 48.664955122692767 5.0518756864012566 10.015155585417347 0 -1 0 I I #
coedge $-1 $263 $141 $144 $215 reversed $200 $-1 #
coedge $-1 $141 $263 $206 $267 forward $200 $-1 #
vertex $-1 $142 $271 #
straight-curve $-1 52.892239143040257 14.856277361321329 76.545606402485973 0 0 1 I I #
straight-curve $-1 -12.235187707492145 14.856277361321329 87.963785954439544 0.61566146476048833 0 -0.78801076186113728 I I #
edge $-1 $265 5.3512253842836977 $145 14.856277361321329 $210 $272 forward 7 unknown #
point $-1 52.892239143040257 14.856277361321329 10.015155585417357 #
point $-1 48.66495512269276 14.856277361321329 10.015155585417361 #
edge $-1 $273 1 $273 0 $148 $-1 forward 7 unknown #
vertex $-1 $149 $274 #
ellipse-curve $-1 48.80976064945186 8.0669545205801612 5.7715935033557972 0.78801076186113728 0 0.61566146476048833 0.61566146476048833 0 -0.78801076186113728 1 I I #
point $-1 51.394258597626994 8.0669545205801612 6.5218063444186889 #
edge $-1 $275 1 $275 0 $152 $-1 forward 7 unknown #
vertex $-1 $153 $276 #
ellipse-curve $-1 48.80976064945186 12.140548225024865 5.7715935033557972 0.78801076186113728 0 0.61566146476048833 0.61566146476048833 0 -0.78801076186113728 1 I I #
point $-1 51.394258597626994 12.140548225024865 6.5218063444186889 #
plane-surface $-1 52.892239143040257 0 0 -1 0 0 0 0 1 forward_v I I I I #
coedge $-1 $230 $164 $167 $238 forward $157 $-1 #
coedge $-1 $164 $230 $159 $229 reversed $157 $-1 #
edge $-1 $235 -10.015155585417357 $242 10.015155585417357 $228 $277 forward 7 unknown #
coedge $-1 $228 $227 $160 $231 reversed $157 $-1 #
edge $-1 $242 -52.892239143040257 $232 52.892239143040257 $230 $278 forward 7 unknown #
vertex $-1 $162 $279 #
straight-curve $-1 52.892239143040257 0 -10.015155585417357 0 -1 0 I I #
edge $-1 $235 -23.999488300146304 $175 23.999488300146304 $173 $280 forward 7 unknown #
vertex $-1 $165 $281 #
straight-curve $-1 0 23.999488300146304 10.015155585417357 -1 0 0 I I #
straight-curve $-1 0 -23.999488300146304 10.015155585417357 1 0 0 I I #
edge $-1 $170 -10.015155585417357 $232 10.015155585417357 $167 $282 forward 7 unknown #
point $-1 52.892239143040257 -23.999488300146304 10.015155585417357 #
point $-1 52.892239143040257 23.999488300146304 10.015155585417357 #
point $-1 -52.892239143040257 -23.999488300146304 10.015155585417357 #
vertex $-1 $231 $283 #
straight-curve $-1 -52.892239143040257 0 -10.015155585417357 0 1 0 I I #
plane-surface $-1 0 0 -10.015155585417357 0 0 1 1 0 0 forward_v I I I I #
coedge $-1 $259 $182 $257 $284 reversed $118 $-1 #
coedge $-1 $182 $259 $186 $251 reversed $118 $-1 #
coedge $-1 $184 $183 $182 $248 reversed $71 $-1 #
edge $-1 $252 -10.015155585417357 $285 10.015155585417357 $247 $286 forward 7 unknown #
edge $-1 $285 -35.516914166900058 $194 -23.999488300146304 $183 $287 forward 7 unknown #
straight-curve $-1 -52.892239143040257 -23.999488300146304 0 0 0 -1 I I #
edge $-1 $252 -2.5289589779138097 $254 2.5289589779138097 $246 $288 forward 7 unknown #
vertex $-1 $187 $289 #
straight-curve $-1 -52.892239143040257 0 10.015155585417357 0 -1 0 I I #
vertex $-1 $188 $290 #
straight-curve $-1 -47.834321187212637 -29.758201233523181 10.015155585417357 0 1 0 I I #
point $-1 -52.892239143040257 -23.999488300146304 10.015155585417357 #
coedge $-1 $192 $191 $245 $284 forward $193 $-1 #
point $-1 -52.892239143040257 -23.999488300146304 -10.015155585417357 #
coedge $-1 $246 $245 $196 $260 reversed $118 $-1 #
edge $-1 $254 -10.015155585417357 $261 10.015155585417357 $196 $291 forward 7 unknown #
vertex $-1 $260 $292 #
straight-curve $-1 -47.834321187212637 -29.758201233523181 -10.015155585417357 0 -1 0 I I #
coedge $-1 $211 $210 $203 $264 forward $200 $-1 #
edge $-1 $265 66.530450817068612 $268 71.941127775343674 $263 $293 forward 7 unknown #
vertex $-1 $215 $294 #
straight-curve $-1 35.56205980990255 5.3512253842836977 10.015155585417361 1 0 0 I I #
edge $-1 $268 0.29934969788244103 $212 9.8044016749200722 $211 $295 forward 7 unknown #
vertex $-1 $267 $296 #
straight-curve $-1 -12.235187707492145 5.3512253842836977 87.963785954439544 -0.61566146476048833 0 0.78801076186113728 I I #
point $-1 48.66495512269276 5.3512253842836977 10.015155585417361 #
point $-1 52.892239143040257 14.856277361321329 4.6044786271422993 #
straight-curve $-1 52.892239143040257 0 10.015155585417357 0 1 0 I I #
vertex $-1 $218 $297 #
point $-1 49.425422114212353 8.0669545205801612 4.9835827414946596 #
vertex $-1 $222 $298 #
point $-1 49.425422114212353 12.140548225024865 4.9835827414946596 #
straight-curve $-1 -52.892239143040257 23.999488300146304 0 0 0 -1 I I #
straight-curve $-1 0 23.999488300146304 -10.015155585417357 1 0 0 I I #
point $-1 52.892239143040257 23.999488300146304 -10.015155585417357 #
straight-curve $-1 -52.892239143040257 0 10.015155585417357 0 -1 0 I I #
point $-1 -52.892239143040257 23.999488300146304 10.015155585417357 #
straight-curve $-1 52.892239143040257 23.999488300146304 0 0 0 -1 I I #
point $-1 -52.892239143040257 23.999488300146304 -10.015155585417357 #
edge $-1 $261 -2.5289589779138097 $285 2.5289589779138097 $245 $299 forward 7 unknown #
vertex $-1 $249 $300 #
straight-curve $-1 -52.892239143040257 -35.516914166900058 0 0 0 -1 I I #
straight-curve $-1 -52.892239143040257 0 -10.015155585417357 0 1 0 I I #
straight-curve $-1 -50.363280165126447 -35.516914166900058 10.015155585417357 1 0 0 I I #
point $-1 -52.892239143040257 -35.516914166900058 10.015155585417357 #
point $-1 -47.834321187212637 -35.516914166900058 10.015155585417357 #
straight-curve $-1 -47.834321187212637 -35.516914166900058 0 0 0 -1 I I #
point $-1 -47.834321187212637 -35.516914166900058 -10.015155585417357 #
straight-curve $-1 52.892239143040257 5.3512253842836977 76.545606402485973 0 0 -1 I I #
point $-1 52.892239143040257 5.3512253842836977 10.015155585417357 #
straight-curve $-1 52.892239143040257 5.0518756864012566 4.6044786271423064 0 1 0 I I #
point $-1 52.892239143040257 5.3512253842836977 4.6044786271422993 #
point $-1 48.02174988759073 8.0669545205801612 5.1559320385953082 #
point $-1 48.02174988759073 12.140548225024865 5.1559320385953082 #
straight-curve $-1 -50.363280165126447 -35.516914166900058 -10.015155585417357 -1 0 0 I I #
point $-1 -52.892239143040257 -35.516914166900058 -10.015155585417357 #
End-of-ACIS-data 