500 0 7 0           
7 Unknown 11 ACIS 5.0 NT 24 Fri Mar 26 18:38:33 1999 
-1 9.9999999999999995e-007 1e-010 
body $-1 $7 $-1 $8 #
body $-1 $9 $-1 $10 #
body $-1 $11 $-1 $12 #
body $-1 $13 $-1 $14 #
body $-1 $15 $-1 $16 #
body $-1 $17 $-1 $18 #
body $-1 $19 $-1 $20 #
lump $-1 $-1 $21 $0 #
transform $-1 1 0 0 0 1 0 0 0 1 45.392010254219187 28.621333825506511 6.4779056952641811 1 rotate no_reflect no_shear #
lump $-1 $-1 $22 $1 #
transform $-1 1 0 0 0 1 0 0 0 1 45.392010254219187 28.621333825506511 6.4779056952641811 1 rotate no_reflect no_shear #
lump $-1 $-1 $23 $2 #
transform $-1 1 0 0 0 1 0 0 0 1 45.392010254219187 28.621333825506511 6.4779056952641811 1 rotate no_reflect no_shear #
lump $-1 $-1 $24 $3 #
transform $-1 1 0 0 0 1 0 0 0 1 45.392010254219187 28.621333825506511 6.4779056952641811 1 rotate no_reflect no_shear #
lump $-1 $-1 $25 $4 #
transform $-1 1 0 0 0 1 0 0 0 1 45.392010254219187 28.621333825506511 6.4779056952641811 1 rotate no_reflect no_shear #
lump $-1 $-1 $26 $5 #
transform $-1 1 0 0 0 1 0 0 0 1 45.392010254219187 28.621333825506511 6.4779056952641811 1 rotate no_reflect no_shear #
lump $-1 $-1 $27 $6 #
transform $-1 1 0 0 0 1 0 0 0 1 45.392010254219187 28.621333825506511 6.4779056952641811 1 rotate no_reflect no_shear #
shell $-1 $-1 $-1 $28 $-1 $7 #
shell $-1 $-1 $-1 $29 $-1 $9 #
shell $-1 $-1 $-1 $30 $-1 $11 #
shell $-1 $-1 $-1 $31 $-1 $13 #
shell $-1 $-1 $-1 $32 $-1 $15 #
shell $-1 $-1 $-1 $33 $-1 $17 #
shell $-1 $-1 $-1 $34 $-1 $19 #
face $-1 $35 $36 $21 $-1 $37 forward single #
face $-1 $38 $39 $22 $-1 $40 forward single #
face $-1 $41 $42 $23 $-1 $43 forward single #
face $-1 $44 $45 $24 $-1 $46 reversed single #
face $-1 $47 $48 $25 $-1 $49 forward single #
face $-1 $50 $51 $26 $-1 $52 reversed single #
face $-1 $53 $54 $27 $-1 $55 forward single #
face $-1 $56 $57 $21 $-1 $58 reversed single #
loop $-1 $-1 $59 $28 #
plane-surface $-1 0 0 6.4779056952641811 0 0 1 1 0 0 forward_v I I I I #
face $-1 $60 $61 $22 $-1 $62 reversed single #
loop $-1 $-1 $63 $29 #
plane-surface $-1 0 -24.784000576212541 5.4968175584186936 0 0 1 1 0 0 forward_v I I I I #
face $-1 $64 $65 $23 $-1 $66 reversed single #
loop $-1 $-1 $67 $30 #
plane-surface $-1 0 24.784000576212541 5.4968175584186936 0 0 1 1 0 0 forward_v I I I I #
face $-1 $68 $69 $24 $-1 $70 reversed single #
loop $-1 $-1 $71 $31 #
plane-surface $-1 -111.7872404512305 6.7211353164418153 65.287485044866884 0 -1 0 0.73135370988377701 0 -0.68199835119979291 forward_v I I I I #
face $-1 $72 $73 $25 $-1 $74 forward single #
loop $-1 $75 $76 $32 #
cone-surface $-1 -43.578616374350432 0.81888372991047476 4.5844200434440605 0.73135370988377701 0 -0.68199835119979291 0.34099917559989645 0 0.36567685494188851 1 I I 0 1 0.5 forward I I I I #
face $-1 $77 $78 $26 $-1 $79 reversed single #
loop $-1 $-1 $80 $33 #
plane-surface $-1 49.87268814918734 -5.0833678566208658 131.68271524187818 0 1 0 0.73135370988377701 0 0.68199835119979291 forward_v I I I I #
face $-1 $81 $82 $27 $-1 $83 forward single #
loop $-1 $84 $85 $34 #
cone-surface $-1 43.578616374350418 0.81888372991047476 4.5844200434440534 -0.73135370988377701 0 -0.68199835119979291 0.34099917559989645 0 -0.36567685494188851 1 I I 0 1 0.5 forward I I I I #
face $-1 $86 $87 $21 $-1 $88 reversed single #
loop $-1 $-1 $89 $35 #
plane-surface $-1 0 0 -6.4779056952641811 0 0 1 1 0 0 forward_v I I I I #
coedge $-1 $90 $91 $92 $93 forward $36 $-1 #
face $-1 $94 $95 $22 $-1 $96 reversed single #
loop $-1 $-1 $97 $38 #
plane-surface $-1 0 -24.784000576212541 2.4968175584186936 0 0 1 1 0 0 forward_v I I I I #
coedge $-1 $98 $99 $100 $101 reversed $39 $-1 #
face $-1 $102 $103 $23 $-1 $104 reversed single #
loop $-1 $-1 $105 $41 #
plane-surface $-1 0 24.784000576212541 2.4968175584186936 0 0 1 1 0 0 forward_v I I I I #
coedge $-1 $106 $107 $108 $109 reversed $42 $-1 #
face $-1 $110 $111 $24 $-1 $112 reversed single #
loop $-1 $-1 $113 $44 #
plane-surface $-1 -45.392010254219201 0.81888372991047476 3.3729327428237283 -0.73135370988377701 0 0.68199835119979291 0.68199835119979291 0 0.73135370988377701 forward_v I I I I #
coedge $-1 $114 $115 $116 $117 reversed $45 $-1 #
face $-1 $-1 $118 $25 $-1 $119 forward single #
loop $-1 $120 $121 $47 #
cone-surface $-1 -43.030101091937595 0.81888372991047476 4.0729212800442154 0.73135370988377701 0 -0.68199835119979291 0.17049958779994823 0 0.18283842747094425 1 I I -0.70710678118654746 0.70710678118654746 0.25 forward I I I I #
loop $-1 $-1 $122 $32 #
coedge $-1 $76 $76 $123 $124 reversed $48 $-1 #
face $-1 $125 $126 $26 $-1 $127 reversed single #
loop $-1 $-1 $128 $50 #
plane-surface $-1 -16.522542047823961 0.81888372991047476 69.768162939835037 0.73135370988377701 0 0.68199835119979291 0.68199835119979291 0 -0.73135370988377701 forward_v I I I I #
coedge $-1 $129 $130 $131 $132 reversed $51 $-1 #
face $-1 $-1 $133 $27 $-1 $134 forward single #
loop $-1 $135 $136 $53 #
cone-surface $-1 43.030101091937581 0.81888372991047476 4.0729212800442083 -0.73135370988377701 0 -0.68199835119979291 0.17049958779994823 0 -0.18283842747094425 1 I I -0.70710678118654746 0.70710678118654746 0.25 forward I I I I #
loop $-1 $-1 $137 $34 #
coedge $-1 $85 $85 $138 $139 reversed $54 $-1 #
face $-1 $140 $141 $21 $-1 $142 reversed single #
loop $-1 $-1 $143 $56 #
plane-surface $-1 0 -28.621333825506511 0 0 1 0 0 0 1 forward_v I I I I #
coedge $-1 $144 $145 $146 $147 forward $57 $-1 #
coedge $-1 $148 $59 $149 $150 forward $36 $-1 #
coedge $-1 $59 $148 $151 $152 forward $36 $-1 #
coedge $-1 $153 $154 $59 $93 reversed $155 $-1 #
edge $-1 $156 -28.621333825506511 $157 28.621333825506511 $92 $158 forward 7 unknown #
face $-1 $159 $160 $22 $-1 $161 reversed single #
loop $-1 $-1 $162 $60 #
plane-surface $-1 0 -20.946667326918572 3.9968175584186936 0 -1 0 0 0 -1 forward_v I I I I #
coedge $-1 $163 $164 $165 $166 reversed $61 $-1 #
coedge $-1 $167 $63 $168 $169 forward $39 $-1 #
coedge $-1 $63 $167 $170 $171 reversed $39 $-1 #
coedge $-1 $172 $173 $63 $101 forward $174 $-1 #
edge $-1 $175 8.5546670388123012 $176 16.22933353740024 $100 $177 forward 7 unknown #
face $-1 $178 $179 $23 $-1 $180 reversed single #
loop $-1 $-1 $181 $64 #
plane-surface $-1 0 20.946667326918572 3.9968175584186936 0 1 0 0 0 1 forward_v I I I I #
coedge $-1 $182 $183 $184 $185 reversed $65 $-1 #
coedge $-1 $186 $67 $187 $188 reversed $42 $-1 #
coedge $-1 $67 $186 $189 $190 forward $42 $-1 #
coedge $-1 $191 $192 $67 $109 forward $179 $-1 #
edge $-1 $193 -16.22933353740024 $194 -8.5546670388123012 $108 $195 forward 7 unknown #
face $-1 $196 $197 $24 $-1 $198 reversed single #
loop $-1 $-1 $199 $68 #
plane-surface $-1 -111.7872404512305 -5.0833678566208658 65.287485044866884 0 1 0 -0.73135370988377701 0 0.68199835119979291 forward_v I I I I #
coedge $-1 $200 $201 $202 $203 reversed $69 $-1 #
coedge $-1 $115 $71 $204 $205 reversed $45 $-1 #
coedge $-1 $71 $114 $200 $206 reversed $45 $-1 #
coedge $-1 $202 $207 $71 $117 forward $197 $-1 #
edge $-1 $208 26.165836827169262 $209 29.270809779609699 $116 $210 forward 7 unknown #
loop $-1 $-1 $123 $72 #
plane-surface $-1 -45.392010254219201 0.81888372991047476 3.3729327428237283 -0.73135370988377701 0 0.68199835119979291 0.68199835119979291 0 0.73135370988377701 forward_v I I I I #
loop $-1 $-1 $211 $47 #
coedge $-1 $121 $121 $122 $212 reversed $73 $-1 #
coedge $-1 $122 $122 $121 $212 forward $75 $-1 #
coedge $-1 $123 $123 $76 $124 forward $118 $-1 #
edge $-1 $213 0 $213 6.2831853071796004 $123 $214 forward 7 unknown #
face $-1 $215 $216 $26 $-1 $217 forward single #
loop $-1 $-1 $218 $77 #
plane-surface $-1 49.87268814918734 6.7211353164418153 131.68271524187818 0 -1 0 -0.73135370988377701 0 -0.68199835119979291 forward_v I I I I #
coedge $-1 $219 $220 $221 $222 reversed $78 $-1 #
coedge $-1 $130 $80 $223 $224 reversed $51 $-1 #
coedge $-1 $80 $129 $219 $225 reversed $51 $-1 #
coedge $-1 $221 $226 $80 $132 forward $227 $-1 #
edge $-1 $228 59.363451925674909 $229 62.468424878115343 $131 $230 forward 7 unknown #
loop $-1 $-1 $138 $81 #
plane-surface $-1 -16.522542047823961 0.81888372991047476 69.768162939835037 0.73135370988377701 0 0.68199835119979291 0.68199835119979291 0 -0.73135370988377701 forward_v I I I I #
loop $-1 $-1 $231 $53 #
coedge $-1 $136 $136 $137 $232 reversed $82 $-1 #
coedge $-1 $137 $137 $136 $232 forward $84 $-1 #
coedge $-1 $138 $138 $85 $139 forward $133 $-1 #
edge $-1 $233 0 $233 6.2831853071796004 $138 $234 forward 7 unknown #
face $-1 $235 $236 $21 $-1 $237 reversed single #
loop $-1 $-1 $238 $86 #
plane-surface $-1 -45.392010254219187 0 0 1 0 0 0 0 -1 forward_v I I I I #
coedge $-1 $239 $151 $240 $241 forward $87 $-1 #
coedge $-1 $242 $89 $239 $243 forward $57 $-1 #
coedge $-1 $89 $242 $244 $245 forward $57 $-1 #
coedge $-1 $154 $153 $89 $147 reversed $155 $-1 #
edge $-1 $246 -28.621333825506511 $247 28.621333825506511 $146 $248 forward 7 unknown #
coedge $-1 $91 $90 $249 $250 forward $36 $-1 #
coedge $-1 $251 $252 $90 $150 reversed $236 $-1 #
edge $-1 $157 -45.392010254219187 $253 45.392010254219187 $149 $254 forward 7 unknown #
coedge $-1 $143 $255 $91 $152 reversed $87 $-1 #
edge $-1 $256 -45.392010254219187 $156 45.392010254219187 $151 $257 forward 7 unknown #
coedge $-1 $146 $92 $255 $258 forward $155 $-1 #
coedge $-1 $92 $146 $251 $259 reversed $155 $-1 #
loop $-1 $-1 $153 $235 #
vertex $-1 $93 $260 #
vertex $-1 $93 $261 #
straight-curve $-1 45.392010254219187 0 6.4779056952641811 0 1 0 I I #
face $-1 $262 $263 $22 $-1 $264 reversed single #
loop $-1 $-1 $265 $94 #
plane-surface $-1 -45.392010254219187 0 0 1 0 0 0 0 -1 forward_v I I I I #
coedge $-1 $266 $168 $173 $267 reversed $95 $-1 #
coedge $-1 $268 $97 $269 $270 reversed $61 $-1 #
coedge $-1 $97 $268 $266 $271 forward $61 $-1 #
coedge $-1 $173 $172 $97 $166 forward $174 $-1 #
edge $-1 $272 -16.22933353740024 $273 -8.5546670388123012 $165 $274 forward 7 unknown #
coedge $-1 $99 $98 $265 $275 reversed $39 $-1 #
coedge $-1 $162 $276 $98 $169 reversed $95 $-1 #
edge $-1 $175 -45.392010254219187 $277 45.392010254219187 $168 $278 forward 7 unknown #
coedge $-1 $279 $280 $99 $171 forward $263 $-1 #
edge $-1 $176 -45.392010254219187 $281 45.392010254219187 $170 $282 forward 7 unknown #
coedge $-1 $165 $100 $280 $283 forward $174 $-1 #
coedge $-1 $100 $165 $162 $267 forward $174 $-1 #
loop $-1 $-1 $100 $262 #
vertex $-1 $101 $284 #
vertex $-1 $283 $285 #
straight-curve $-1 45.392010254219187 -12.392000288106271 5.4968175584186936 0 -1 0 I I #
face $-1 $286 $287 $23 $-1 $288 reversed single #
loop $-1 $-1 $108 $102 #
plane-surface $-1 45.392010254219187 0 0 -1 0 0 0 0 1 forward_v I I I I #
coedge $-1 $289 $189 $290 $291 reversed $103 $-1 #
coedge $-1 $292 $105 $289 $293 forward $65 $-1 #
coedge $-1 $105 $292 $294 $295 reversed $65 $-1 #
coedge $-1 $192 $191 $105 $185 forward $179 $-1 #
edge $-1 $296 8.5546670388123012 $297 16.22933353740024 $184 $298 forward 7 unknown #
coedge $-1 $107 $106 $299 $300 reversed $42 $-1 #
coedge $-1 $301 $302 $106 $188 forward $303 $-1 #
edge $-1 $304 -45.392010254219187 $193 45.392010254219187 $187 $305 forward 7 unknown #
coedge $-1 $181 $306 $107 $190 reversed $103 $-1 #
edge $-1 $307 -45.392010254219187 $194 45.392010254219187 $189 $308 forward 7 unknown #
coedge $-1 $184 $108 $306 $309 forward $179 $-1 #
coedge $-1 $108 $184 $301 $310 reversed $179 $-1 #
vertex $-1 $310 $311 #
vertex $-1 $109 $312 #
straight-curve $-1 45.392010254219187 12.392000288106271 5.4968175584186936 0 -1 0 I I #
face $-1 $-1 $313 $24 $-1 $314 forward single #
loop $-1 $-1 $116 $110 #
plane-surface $-1 -45.392010254219187 0 0 1 0 0 0 0 -1 forward_v I I I I #
coedge $-1 $315 $316 $317 $318 reversed $111 $-1 #
coedge $-1 $319 $113 $115 $206 forward $69 $-1 #
coedge $-1 $113 $319 $315 $320 forward $69 $-1 #
coedge $-1 $317 $116 $113 $203 forward $197 $-1 #
edge $-1 $209 -6.3116934514865779 $321 5.4928097215761031 $202 $322 forward 7 unknown #
coedge $-1 $323 $324 $114 $205 forward $313 $-1 #
edge $-1 $325 -13.397044021249791 $208 -10.501609971396064 $204 $326 forward 7 unknown #
edge $-1 $209 2.0734513383776317e-014 $325 4.2455147358640994 $115 $327 forward 7 unknown #
coedge $-1 $116 $317 $323 $328 reversed $197 $-1 #
vertex $-1 $328 $329 #
vertex $-1 $117 $330 #
straight-curve $-1 -45.392010254219187 6.7211353164418153 32.643742522433442 0 0 -1 I I #
coedge $-1 $211 $211 $-1 $331 reversed $120 $-1 #
edge $-1 $332 0 $332 6.2831853071796004 $121 $333 forward 7 unknown #
vertex $-1 $124 $334 #
ellipse-curve $-1 -43.944293229292327 0.81888372991047476 4.9254192190439614 -0.73135370988377701 0 0.68199835119979291 0.34099917559989645 0 0.36567685494188851 1 I I #
face $-1 $-1 $227 $26 $-1 $335 reversed single #
loop $-1 $-1 $336 $125 #
plane-surface $-1 0 0 6.4779056952641811 0 0 1 1 0 0 forward_v I I I I #
coedge $-1 $337 $338 $339 $340 reversed $126 $-1 #
coedge $-1 $341 $128 $130 $225 forward $78 $-1 #
coedge $-1 $128 $341 $337 $342 forward $78 $-1 #
coedge $-1 $339 $131 $128 $222 forward $227 $-1 #
edge $-1 $229 -5.4928097215761031 $343 6.3116934514865779 $221 $344 forward 7 unknown #
coedge $-1 $345 $346 $129 $224 forward $216 $-1 #
edge $-1 $347 17.560232129771791 $228 20.455666179625517 $223 $348 forward 7 unknown #
edge $-1 $229 -90.784020508438346 $347 -86.538505772574268 $130 $349 forward 7 unknown #
coedge $-1 $131 $339 $345 $350 reversed $227 $-1 #
loop $-1 $-1 $339 $215 #
vertex $-1 $350 $351 #
vertex $-1 $132 $352 #
straight-curve $-1 45.392010254219187 -5.0833678566208658 65.841357620939092 0 0 -1 I I #
coedge $-1 $231 $231 $-1 $353 reversed $135 $-1 #
edge $-1 $354 0 $354 6.2831853071796004 $136 $355 forward 7 unknown #
vertex $-1 $139 $356 #
ellipse-curve $-1 43.94429322929232 0.81888372991047476 4.9254192190439641 0.73135370988377701 0 0.68199835119979291 0.34099917559989645 0 -0.36567685494188851 1 I I #
face $-1 $-1 $155 $21 $-1 $357 reversed single #
loop $-1 $-1 $251 $140 #
plane-surface $-1 0 28.621333825506511 0 0 -1 0 0 0 -1 forward_v I I I I #
coedge $-1 $358 $249 $252 $359 forward $141 $-1 #
coedge $-1 $255 $143 $144 $243 reversed $87 $-1 #
coedge $-1 $249 $358 $143 $241 reversed $141 $-1 #
edge $-1 $256 -6.4779056952641811 $360 6.4779056952641811 $240 $361 forward 7 unknown #
coedge $-1 $145 $144 $358 $362 forward $57 $-1 #
edge $-1 $247 -45.392010254219187 $360 45.392010254219187 $239 $363 forward 7 unknown #
coedge $-1 $252 $251 $145 $245 reversed $236 $-1 #
edge $-1 $364 -45.392010254219187 $246 45.392010254219187 $244 $365 forward 7 unknown #
vertex $-1 $147 $366 #
vertex $-1 $258 $367 #
straight-curve $-1 45.392010254219187 0 -6.4779056952641811 0 -1 0 I I #
coedge $-1 $238 $240 $148 $250 reversed $141 $-1 #
edge $-1 $253 -28.621333825506511 $256 28.621333825506511 $249 $368 forward 7 unknown #
coedge $-1 $244 $149 $154 $259 forward $236 $-1 #
coedge $-1 $149 $244 $238 $359 reversed $236 $-1 #
vertex $-1 $150 $369 #
straight-curve $-1 0 28.621333825506511 6.4779056952641811 -1 0 0 I I #
coedge $-1 $151 $239 $153 $258 reversed $87 $-1 #
vertex $-1 $250 $370 #
straight-curve $-1 0 -28.621333825506511 6.4779056952641811 1 0 0 I I #
edge $-1 $156 -6.4779056952641811 $247 6.4779056952641811 $153 $371 forward 7 unknown #
edge $-1 $157 -6.4779056952641811 $246 6.4779056952641811 $154 $372 forward 7 unknown #
point $-1 45.392010254219187 -28.621333825506511 6.4779056952641811 #
point $-1 45.392010254219187 28.621333825506511 6.4779056952641811 #
face $-1 $-1 $174 $22 $-1 $373 reversed single #
loop $-1 $-1 $170 $159 #
plane-surface $-1 0 -28.621333825506511 0 0 1 0 0 0 1 forward_v I I I I #
coedge $-1 $374 $375 $167 $275 forward $160 $-1 #
coedge $-1 $276 $162 $164 $271 reversed $95 $-1 #
edge $-1 $273 0.49840877920934679 $175 3.4984087792093468 $173 $376 forward 7 unknown #
coedge $-1 $164 $163 $377 $378 reversed $61 $-1 #
coedge $-1 $280 $279 $163 $270 forward $263 $-1 #
edge $-1 $379 -45.392010254219187 $272 45.392010254219187 $269 $380 forward 7 unknown #
edge $-1 $381 -45.392010254219187 $273 45.392010254219187 $266 $382 forward 7 unknown #
vertex $-1 $270 $383 #
vertex $-1 $166 $384 #
straight-curve $-1 45.392010254219187 -12.392000288106271 2.4968175584186936 0 1 0 I I #
edge $-1 $281 -16.22933353740024 $277 -8.5546670388123012 $265 $385 forward 7 unknown #
coedge $-1 $168 $266 $374 $386 reversed $95 $-1 #
vertex $-1 $275 $387 #
straight-curve $-1 0 -20.946667326918572 5.4968175584186936 -1 0 0 I I #
coedge $-1 $269 $170 $375 $388 forward $263 $-1 #
coedge $-1 $170 $269 $172 $283 reversed $263 $-1 #
vertex $-1 $388 $389 #
straight-curve $-1 0 -28.621333825506511 5.4968175584186936 -1 0 0 I I #
edge $-1 $176 -5.4968175584186936 $272 -2.4968175584186936 $172 $390 forward 7 unknown #
point $-1 45.392010254219187 -20.946667326918572 5.4968175584186936 #
point $-1 45.392010254219187 -28.621333825506511 5.4968175584186936 #
face $-1 $-1 $303 $23 $-1 $391 reversed single #
loop $-1 $-1 $299 $178 #
plane-surface $-1 -45.392010254219187 0 0 1 0 0 0 0 -1 forward_v I I I I #
coedge $-1 $306 $181 $182 $293 reversed $103 $-1 #
coedge $-1 $299 $392 $181 $291 forward $287 $-1 #
edge $-1 $393 0.49840877920934679 $307 3.4984087792093468 $290 $394 forward 7 unknown #
coedge $-1 $183 $182 $392 $395 reversed $65 $-1 #
edge $-1 $296 -45.392010254219187 $393 45.392010254219187 $289 $396 forward 7 unknown #
coedge $-1 $302 $301 $183 $295 forward $303 $-1 #
edge $-1 $297 -45.392010254219187 $397 45.392010254219187 $294 $398 forward 7 unknown #
vertex $-1 $185 $399 #
vertex $-1 $295 $400 #
straight-curve $-1 45.392010254219187 12.392000288106271 2.4968175584186936 0 1 0 I I #
coedge $-1 $401 $290 $186 $300 forward $287 $-1 #
edge $-1 $307 8.5546670388123012 $304 16.22933353740024 $299 $402 forward 7 unknown #
coedge $-1 $294 $187 $192 $310 forward $303 $-1 #
coedge $-1 $187 $294 $401 $403 reversed $303 $-1 #
loop $-1 $-1 $187 $286 #
vertex $-1 $403 $404 #
straight-curve $-1 0 28.621333825506511 5.4968175584186936 1 0 0 I I #
coedge $-1 $189 $289 $191 $309 reversed $103 $-1 #
vertex $-1 $300 $405 #
straight-curve $-1 0 20.946667326918572 5.4968175584186936 1 0 0 I I #
edge $-1 $194 -3.4984087792093468 $296 -0.49840877920934679 $191 $406 forward 7 unknown #
edge $-1 $193 -5.4968175584186936 $297 -2.4968175584186936 $192 $407 forward 7 unknown #
point $-1 45.392010254219187 28.621333825506511 5.4968175584186936 #
point $-1 45.392010254219187 20.946667326918572 5.4968175584186936 #
loop $-1 $-1 $204 $196 #
plane-surface $-1 0 0 6.4779056952641811 0 0 1 1 0 0 forward_v I I I I #
coedge $-1 $316 $199 $201 $320 reversed $111 $-1 #
coedge $-1 $199 $315 $408 $409 reversed $111 $-1 #
coedge $-1 $207 $202 $199 $318 forward $197 $-1 #
edge $-1 $321 -29.270809779609699 $410 -26.165836827169262 $317 $411 forward 7 unknown #
coedge $-1 $201 $200 $324 $412 reversed $69 $-1 #
edge $-1 $413 -4.2455147358640994 $321 -2.0734513383776317e-014 $315 $414 forward 7 unknown #
vertex $-1 $203 $415 #
straight-curve $-1 -45.392010254219187 0.40944186495523738 3.3729327428237399 0 -1 0 I I #
coedge $-1 $408 $204 $207 $328 forward $313 $-1 #
coedge $-1 $204 $408 $319 $412 forward $313 $-1 #
vertex $-1 $205 $416 #
straight-curve $-1 -55.893620225615251 6.7211353164418153 6.4779056952641803 -1 0 0 I I #
straight-curve $-1 -45.392010254219201 6.7211353164418153 3.3729327428237283 0.68199835119979291 0 0.73135370988377701 I I #
edge $-1 $208 -6.7211353164418153 $410 5.0833678566208658 $207 $417 forward 7 unknown #
point $-1 -45.392010254219187 6.7211353164418153 6.4779056952641811 #
point $-1 -45.392010254219187 6.7211353164418153 3.3729327428237434 #
edge $-1 $418 1 $418 0 $211 $-1 forward 7 unknown #
vertex $-1 $212 $419 #
ellipse-curve $-1 -43.212939519408536 0.81888372991047476 4.2434208678441632 -0.73135370988377701 0 0.68199835119979291 0.34099917559989645 0 0.36567685494188851 1 I I #
point $-1 -43.603294053692423 0.81888372991047476 5.2910960739858446 #
plane-surface $-1 45.392010254219187 0 0 -1 0 0 0 0 1 forward_v I I I I #
coedge $-1 $346 $345 $338 $420 forward $216 $-1 #
coedge $-1 $338 $218 $220 $342 reversed $126 $-1 #
coedge $-1 $218 $337 $336 $420 reversed $126 $-1 #
coedge $-1 $226 $221 $218 $340 forward $227 $-1 #
edge $-1 $343 -62.468424878115343 $421 -59.363451925674909 $339 $422 forward 7 unknown #
coedge $-1 $220 $219 $346 $423 reversed $78 $-1 #
edge $-1 $424 86.538505772574268 $343 90.784020508438346 $337 $425 forward 7 unknown #
vertex $-1 $222 $426 #
straight-curve $-1 45.392010254219187 0.40944186495523738 3.3729327428237426 0 1 0 I I #
coedge $-1 $336 $223 $226 $350 forward $216 $-1 #
coedge $-1 $223 $336 $341 $423 forward $216 $-1 #
vertex $-1 $224 $427 #
straight-curve $-1 24.93634407459367 -5.0833678566208658 6.4779056952641838 1 0 0 I I #
straight-curve $-1 -16.522542047823961 -5.0833678566208658 69.768162939835037 -0.68199835119979291 0 0.73135370988377701 I I #
edge $-1 $228 -5.0833678566208658 $421 6.7211353164418153 $226 $428 forward 7 unknown #
point $-1 45.392010254219187 -5.0833678566208658 6.4779056952641811 #
point $-1 45.392010254219187 -5.0833678566208658 3.3729327428237497 #
edge $-1 $429 1 $429 0 $231 $-1 forward 7 unknown #
vertex $-1 $232 $430 #
ellipse-curve $-1 43.212939519408522 0.81888372991047476 4.2434208678441561 0.73135370988377701 0 0.68199835119979291 0.34099917559989645 0 -0.36567685494188851 1 I I #
point $-1 44.285292404892196 0.81888372991047476 4.5597423641020605 #
plane-surface $-1 45.392010254219187 0 0 -1 0 0 0 0 1 forward_v I I I I #
coedge $-1 $240 $238 $242 $362 reversed $141 $-1 #
edge $-1 $253 -6.4779056952641811 $364 6.4779056952641811 $252 $431 forward 7 unknown #
vertex $-1 $362 $432 #
straight-curve $-1 -45.392010254219187 -28.621333825506511 0 0 0 -1 I I #
edge $-1 $360 -28.621333825506511 $364 28.621333825506511 $358 $433 forward 7 unknown #
straight-curve $-1 0 -28.621333825506511 -6.4779056952641811 -1 0 0 I I #
vertex $-1 $245 $434 #
straight-curve $-1 0 28.621333825506511 -6.4779056952641811 1 0 0 I I #
point $-1 45.392010254219187 28.621333825506511 -6.4779056952641811 #
point $-1 45.392010254219187 -28.621333825506511 -6.4779056952641811 #
straight-curve $-1 -45.392010254219187 0 6.4779056952641811 0 -1 0 I I #
point $-1 -45.392010254219187 28.621333825506511 6.4779056952641811 #
point $-1 -45.392010254219187 -28.621333825506511 6.4779056952641811 #
straight-curve $-1 45.392010254219187 -28.621333825506511 0 0 0 -1 I I #
straight-curve $-1 45.392010254219187 28.621333825506511 0 0 0 -1 I I #
plane-surface $-1 45.392010254219187 0 0 -1 0 0 0 0 1 forward_v I I I I #
coedge $-1 $377 $265 $276 $386 forward $160 $-1 #
coedge $-1 $265 $377 $279 $388 reversed $160 $-1 #
straight-curve $-1 45.392010254219187 -20.946667326918572 1.9984087792093468 0 0 1 I I #
coedge $-1 $375 $374 $268 $378 forward $160 $-1 #
edge $-1 $381 8.5546670388123012 $379 16.22933353740024 $377 $435 forward 7 unknown #
vertex $-1 $270 $436 #
straight-curve $-1 0 -28.621333825506511 2.4968175584186936 1 0 0 I I #
vertex $-1 $378 $437 #
straight-curve $-1 0 -20.946667326918572 2.4968175584186936 1 0 0 I I #
point $-1 45.392010254219187 -28.621333825506511 2.4968175584186936 #
point $-1 45.392010254219187 -20.946667326918572 2.4968175584186936 #
straight-curve $-1 -45.392010254219187 -12.392000288106271 5.4968175584186936 0 1 0 I I #
edge $-1 $277 -3.4984087792093468 $381 -0.49840877920934679 $374 $438 forward 7 unknown #
point $-1 -45.392010254219187 -20.946667326918572 5.4968175584186936 #
edge $-1 $281 -5.4968175584186936 $379 -2.4968175584186936 $375 $439 forward 7 unknown #
point $-1 -45.392010254219187 -28.621333825506511 5.4968175584186936 #
straight-curve $-1 45.392010254219187 -28.621333825506511 0 0 0 -1 I I #
plane-surface $-1 0 28.621333825506511 0 0 -1 0 0 0 -1 forward_v I I I I #
coedge $-1 $290 $401 $292 $395 forward $287 $-1 #
vertex $-1 $395 $440 #
straight-curve $-1 -45.392010254219187 20.946667326918572 1.9984087792093468 0 0 1 I I #
edge $-1 $397 -16.22933353740024 $393 -8.5546670388123012 $392 $441 forward 7 unknown #
straight-curve $-1 0 20.946667326918572 2.4968175584186936 -1 0 0 I I #
vertex $-1 $295 $442 #
straight-curve $-1 0 28.621333825506511 2.4968175584186936 -1 0 0 I I #
point $-1 45.392010254219187 20.946667326918572 2.4968175584186936 #
point $-1 45.392010254219187 28.621333825506511 2.4968175584186936 #
coedge $-1 $392 $299 $302 $403 forward $287 $-1 #
straight-curve $-1 -45.392010254219187 12.392000288106271 5.4968175584186936 0 1 0 I I #
edge $-1 $304 -5.4968175584186936 $397 -2.4968175584186936 $302 $443 forward 7 unknown #
point $-1 -45.392010254219187 28.621333825506511 5.4968175584186936 #
point $-1 -45.392010254219187 20.946667326918572 5.4968175584186936 #
straight-curve $-1 45.392010254219187 20.946667326918572 1.9984087792093468 0 0 -1 I I #
straight-curve $-1 45.392010254219187 28.621333825506511 0 0 0 -1 I I #
coedge $-1 $324 $323 $316 $409 forward $313 $-1 #
edge $-1 $410 10.501609971396064 $413 13.397044021249791 $408 $444 forward 7 unknown #
vertex $-1 $409 $445 #
straight-curve $-1 -45.392010254219187 -5.0833678566208658 32.643742522433442 0 0 1 I I #
edge $-1 $413 -5.4928097215761031 $325 6.3116934514865779 $324 $446 forward 7 unknown #
vertex $-1 $412 $447 #
straight-curve $-1 -45.392010254219201 -5.0833678566208658 3.3729327428237283 -0.68199835119979291 0 -0.73135370988377701 I I #
point $-1 -45.392010254219187 -5.0833678566208658 3.3729327428237434 #
point $-1 -42.496576204365461 6.7211353164418153 6.4779056952641811 #
straight-curve $-1 -45.392010254219187 0 6.4779056952641811 0 -1 0 I I #
vertex $-1 $331 $448 #
point $-1 -42.871940343808646 0.81888372991047476 4.6090977227860517 #
edge $-1 $421 -20.455666179625517 $424 -17.560232129771791 $336 $449 forward 7 unknown #
vertex $-1 $340 $450 #
straight-curve $-1 45.392010254219187 6.7211353164418153 65.841357620939092 0 0 1 I I #
edge $-1 $424 -6.3116934514865779 $347 5.4928097215761031 $346 $451 forward 7 unknown #
vertex $-1 $423 $452 #
straight-curve $-1 -16.522542047823961 6.7211353164418153 69.768162939835037 0.68199835119979291 0 -0.73135370988377701 I I #
point $-1 45.392010254219187 6.7211353164418153 3.3729327428237497 #
point $-1 42.496576204365461 -5.0833678566208658 6.4779056952641838 #
straight-curve $-1 45.392010254219187 0 6.4779056952641811 0 1 0 I I #
vertex $-1 $353 $453 #
point $-1 43.553938695008419 0.81888372991047476 3.877744012902268 #
straight-curve $-1 -45.392010254219187 28.621333825506511 0 0 0 -1 I I #
point $-1 -45.392010254219187 -28.621333825506511 -6.4779056952641811 #
straight-curve $-1 -45.392010254219187 0 -6.4779056952641811 0 1 0 I I #
point $-1 -45.392010254219187 28.621333825506511 -6.4779056952641811 #
straight-curve $-1 -45.392010254219187 -12.392000288106271 2.4968175584186936 0 -1 0 I I #
point $-1 -45.392010254219187 -28.621333825506511 2.4968175584186936 #
point $-1 -45.392010254219187 -20.946667326918572 2.4968175584186936 #
straight-curve $-1 -45.392010254219187 -20.946667326918572 1.9984087792093468 0 0 -1 I I #
straight-curve $-1 -45.392010254219187 -28.621333825506511 0 0 0 -1 I I #
point $-1 -45.392010254219187 20.946667326918572 2.4968175584186936 #
straight-curve $-1 -45.392010254219187 12.392000288106271 2.4968175584186936 0 -1 0 I I #
point $-1 -45.392010254219187 28.621333825506511 2.4968175584186936 #
straight-curve $-1 -45.392010254219187 28.621333825506511 0 0 0 -1 I I #
straight-curve $-1 -55.893620225615251 -5.0833678566208658 6.4779056952641803 1 0 0 I I #
point $-1 -45.392010254219187 -5.0833678566208658 6.4779056952641811 #
straight-curve $-1 -42.496576204365454 0.40944186495523738 6.4779056952641785 0 1 0 I I #
point $-1 -42.496576204365461 -5.0833678566208658 6.4779056952641811 #
point $-1 -42.847262664466655 0.81888372991047476 3.9024216922442672 #
straight-curve $-1 24.93634407459367 6.7211353164418153 6.4779056952641838 -1 0 0 I I #
point $-1 45.392010254219187 6.7211353164418153 6.4779056952641811 #
straight-curve $-1 42.496576204365454 0.40944186495523738 6.4779056952641838 0 -1 0 I I #
point $-1 42.496576204365461 6.7211353164418153 6.4779056952641838 #
point $-1 42.847262664466641 0.81888372991047476 3.9024216922442601 #
End-of-ACIS-data 