500 0 5 0           
7 Unknown 11 ACIS 5.0 NT 24 Thu Mar 25 18:16:48 1999 
-1 9.9999999999999995e-007 1e-010 
body $-1 $5 $-1 $6 #
body $-1 $7 $-1 $8 #
body $-1 $9 $-1 $10 #
body $-1 $11 $-1 $12 #
body $-1 $13 $-1 $14 #
lump $-1 $-1 $15 $0 #
transform $-1 1 0 0 0 1 0 0 0 1 54.77340006714072 36.92820726899744 16.803027408607569 1 rotate no_reflect no_shear #
lump $-1 $-1 $16 $1 #
transform $-1 1 0 0 0 1 0 0 0 1 54.77340006714072 36.92820726899744 16.803027408607569 1 rotate no_reflect no_shear #
lump $-1 $-1 $17 $2 #
transform $-1 1 0 0 0 1 0 0 0 1 54.77340006714072 36.92820726899744 16.803027408607569 1 rotate no_reflect no_shear #
lump $-1 $-1 $18 $3 #
transform $-1 1 0 0 0 1 0 0 0 1 54.77340006714072 36.92820726899744 16.803027408607569 1 rotate no_reflect no_shear #
lump $-1 $-1 $19 $4 #
transform $-1 1 0 0 0 1 0 0 0 1 54.77340006714072 36.92820726899744 16.803027408607569 1 rotate no_reflect no_shear #
shell $-1 $-1 $-1 $20 $-1 $5 #
shell $-1 $-1 $-1 $21 $-1 $7 #
shell $-1 $-1 $-1 $22 $-1 $9 #
shell $-1 $-1 $-1 $23 $-1 $11 #
shell $-1 $-1 $-1 $24 $-1 $13 #
face $-1 $25 $26 $15 $-1 $27 forward single #
face $-1 $28 $29 $16 $-1 $30 reversed single #
face $-1 $31 $32 $17 $-1 $33 forward single #
face $-1 $34 $35 $18 $-1 $36 reversed single #
face $-1 $37 $38 $19 $-1 $39 forward single #
face $-1 $40 $41 $15 $-1 $42 reversed single #
loop $-1 $-1 $43 $20 #
plane-surface $-1 0 0 16.803027408607569 0 0 1 1 0 0 forward_v I I I I #
face $-1 $44 $45 $16 $-1 $46 reversed single #
loop $-1 $-1 $47 $21 #
plane-surface $-1 -109.54680086810657 -23.28254084521646 108.11307920023756 0 1 0 -0.50000000669873634 0 0.8660253999169214 forward_v I I I I #
face $-1 $48 $49 $17 $-1 $50 forward single #
loop $-1 $51 $52 $22 #
cone-surface $-1 -50.808872369408576 -12.771632764088963 13.496523544270703 0.50000000669873634 0 -0.8660253999169214 0.8660253999169214 0 0.50000000669873634 1 I I 0 1 1 forward I I I I #
face $-1 $53 $54 $18 $-1 $55 reversed single #
loop $-1 $-1 $56 $23 #
plane-surface $-1 14.676489472196415 -2.2607246829614667 162.88648000120341 0 -1 0 -0.50000000669873634 0 -0.8660253999169214 forward_v I I I I #
face $-1 $57 $58 $19 $-1 $59 forward single #
loop $-1 $60 $61 $24 #
cone-surface $-1 50.808872369408554 -12.771632764088963 13.496523544270703 -0.50000000669873634 0 -0.8660253999169214 0.8660253999169214 0 -0.50000000669873634 1 I I 0 1 1 forward I I I I #
face $-1 $62 $63 $15 $-1 $64 reversed single #
loop $-1 $-1 $65 $25 #
plane-surface $-1 0 0 -16.803027408607569 0 0 1 1 0 0 forward_v I I I I #
coedge $-1 $66 $67 $68 $69 forward $26 $-1 #
face $-1 $70 $71 $16 $-1 $72 reversed single #
loop $-1 $-1 $73 $28 #
plane-surface $-1 -54.773400067140727 -12.771632764088963 13.242767804327428 -0.50000000669873634 0 0.8660253999169214 0.8660253999169214 0 0.50000000669873634 forward_v I I I I #
coedge $-1 $74 $75 $76 $77 reversed $29 $-1 #
face $-1 $-1 $78 $17 $-1 $79 forward single #
loop $-1 $80 $81 $31 #
cone-surface $-1 -49.677619874623758 -12.771632764088963 11.537136782115457 0.50000000669873634 0 -0.8660253999169214 0.4330126999584607 0 0.25000000334936817 1 I I -0.70710678118654746 0.70710678118654746 0.5 forward I I I I #
loop $-1 $-1 $82 $22 #
coedge $-1 $52 $52 $83 $84 reversed $32 $-1 #
face $-1 $85 $86 $18 $-1 $87 reversed single #
loop $-1 $-1 $88 $34 #
plane-surface $-1 -40.09691132876943 -12.771632764088963 68.016168605293274 0.50000000669873634 0 0.8660253999169214 0.8660253999169214 0 -0.50000000669873634 forward_v I I I I #
coedge $-1 $89 $90 $91 $92 reversed $35 $-1 #
face $-1 $-1 $93 $19 $-1 $94 forward single #
loop $-1 $95 $96 $37 #
cone-surface $-1 49.677619874623737 -12.771632764088963 11.537136782115457 -0.50000000669873634 0 -0.8660253999169214 0.4330126999584607 0 -0.25000000334936817 1 I I -0.70710678118654746 0.70710678118654746 0.5 forward I I I I #
loop $-1 $-1 $97 $24 #
coedge $-1 $61 $61 $98 $99 reversed $38 $-1 #
face $-1 $100 $101 $15 $-1 $102 reversed single #
loop $-1 $-1 $103 $40 #
plane-surface $-1 0 -36.92820726899744 0 0 1 0 0 0 1 forward_v I I I I #
coedge $-1 $104 $105 $106 $107 forward $41 $-1 #
coedge $-1 $108 $43 $109 $110 forward $26 $-1 #
coedge $-1 $43 $108 $111 $112 forward $26 $-1 #
coedge $-1 $113 $114 $43 $69 reversed $115 $-1 #
edge $-1 $116 -36.92820726899744 $117 36.92820726899744 $68 $118 forward 7 unknown #
face $-1 $119 $120 $16 $-1 $121 reversed single #
loop $-1 $-1 $122 $44 #
plane-surface $-1 -109.54680086810657 -2.2607246829614667 108.11307920023756 0 -1 0 0.50000000669873634 0 -0.8660253999169214 forward_v I I I I #
coedge $-1 $123 $124 $125 $126 reversed $45 $-1 #
coedge $-1 $75 $47 $127 $128 reversed $29 $-1 #
coedge $-1 $47 $74 $123 $129 reversed $29 $-1 #
coedge $-1 $125 $130 $47 $77 forward $131 $-1 #
edge $-1 $132 3.6691256610765777e-007 $133 6.1665507795059042 $76 $134 forward 7 unknown #
loop $-1 $-1 $83 $48 #
plane-surface $-1 -54.773400067140727 -12.771632764088963 13.242767804327428 -0.50000000669873634 0 0.8660253999169214 0.8660253999169214 0 0.50000000669873634 forward_v I I I I #
loop $-1 $-1 $135 $31 #
coedge $-1 $81 $81 $82 $136 reversed $49 $-1 #
coedge $-1 $82 $82 $81 $136 forward $51 $-1 #
coedge $-1 $83 $83 $52 $84 forward $78 $-1 #
edge $-1 $137 0 $137 6.2831853071796004 $83 $138 forward 7 unknown #
face $-1 $139 $140 $18 $-1 $141 forward single #
loop $-1 $-1 $142 $53 #
plane-surface $-1 14.676489472196415 -23.28254084521646 162.88648000120341 0 1 0 0.50000000669873634 0 0.8660253999169214 forward_v I I I I #
coedge $-1 $143 $144 $145 $146 reversed $54 $-1 #
coedge $-1 $90 $56 $147 $148 reversed $35 $-1 #
coedge $-1 $56 $89 $143 $149 reversed $35 $-1 #
coedge $-1 $145 $150 $56 $92 forward $140 $-1 #
edge $-1 $151 -47.435155331042509 $152 -41.268604918449142 $91 $153 forward 7 unknown #
loop $-1 $-1 $98 $57 #
plane-surface $-1 -40.09691132876943 -12.771632764088963 68.016168605293274 0.50000000669873634 0 0.8660253999169214 0.8660253999169214 0 -0.50000000669873634 forward_v I I I I #
loop $-1 $-1 $154 $37 #
coedge $-1 $96 $96 $97 $155 reversed $58 $-1 #
coedge $-1 $97 $97 $96 $155 forward $60 $-1 #
coedge $-1 $98 $98 $61 $99 forward $93 $-1 #
edge $-1 $156 0 $156 6.2831853071796004 $98 $157 forward 7 unknown #
face $-1 $158 $159 $15 $-1 $160 reversed single #
loop $-1 $-1 $161 $62 #
plane-surface $-1 -54.77340006714072 0 0 1 0 0 0 0 -1 forward_v I I I I #
coedge $-1 $162 $111 $163 $164 forward $63 $-1 #
coedge $-1 $165 $65 $162 $166 forward $41 $-1 #
coedge $-1 $65 $165 $167 $168 forward $41 $-1 #
coedge $-1 $114 $113 $65 $107 reversed $115 $-1 #
edge $-1 $169 -36.92820726899744 $170 36.92820726899744 $106 $171 forward 7 unknown #
coedge $-1 $67 $66 $172 $173 forward $26 $-1 #
coedge $-1 $174 $175 $66 $110 reversed $159 $-1 #
edge $-1 $117 -54.77340006714072 $176 54.77340006714072 $109 $177 forward 7 unknown #
coedge $-1 $103 $178 $67 $112 reversed $63 $-1 #
edge $-1 $179 -54.77340006714072 $116 54.77340006714072 $111 $180 forward 7 unknown #
coedge $-1 $106 $68 $178 $181 forward $115 $-1 #
coedge $-1 $68 $106 $174 $182 reversed $115 $-1 #
loop $-1 $-1 $113 $158 #
vertex $-1 $69 $183 #
vertex $-1 $69 $184 #
straight-curve $-1 54.77340006714072 0 16.803027408607569 0 1 0 I I #
face $-1 $-1 $131 $16 $-1 $185 forward single #
loop $-1 $-1 $186 $70 #
plane-surface $-1 -54.77340006714072 0 0 1 0 0 0 0 -1 forward_v I I I I #
coedge $-1 $187 $188 $189 $190 reversed $71 $-1 #
coedge $-1 $191 $73 $75 $129 forward $45 $-1 #
coedge $-1 $73 $191 $187 $192 forward $45 $-1 #
coedge $-1 $189 $76 $73 $126 forward $131 $-1 #
edge $-1 $133 -16.896724463171978 $193 4.1250916990830149 $125 $194 forward 7 unknown #
coedge $-1 $195 $196 $74 $128 forward $120 $-1 #
edge $-1 $197 -40.813771795791354 $132 -37.253512191511213 $127 $198 forward 7 unknown #
edge $-1 $133 -7.1205191131633185 $197 -7.929837432145984e-015 $75 $199 forward 7 unknown #
coedge $-1 $76 $189 $195 $200 forward $131 $-1 #
loop $-1 $-1 $189 $119 #
vertex $-1 $128 $201 #
vertex $-1 $77 $202 #
straight-curve $-1 -54.773400434053286 -23.28254084521646 16.803027408607569 1 0 0 I I #
coedge $-1 $135 $135 $-1 $203 reversed $80 $-1 #
edge $-1 $204 0 $204 6.2831853071796004 $81 $205 forward 7 unknown #
vertex $-1 $84 $206 #
ellipse-curve $-1 -51.690124860844037 -12.771632764088963 15.022897606467508 -0.50000000669873634 0 0.8660253999169214 0.8660253999169214 0 0.50000000669873634 1 I I #
face $-1 $-1 $207 $18 $-1 $208 reversed single #
loop $-1 $-1 $91 $85 #
plane-surface $-1 0 0 16.803027408607569 0 0 1 1 0 0 forward_v I I I I #
coedge $-1 $209 $210 $211 $212 reversed $86 $-1 #
coedge $-1 $213 $88 $90 $149 forward $54 $-1 #
coedge $-1 $88 $213 $209 $214 forward $54 $-1 #
coedge $-1 $211 $91 $88 $146 forward $140 $-1 #
edge $-1 $152 -4.1250916990830149 $215 16.896724463171978 $145 $216 forward 7 unknown #
coedge $-1 $217 $218 $89 $148 forward $207 $-1 #
edge $-1 $219 -68.200472196274291 $151 -64.640212591994128 $147 $220 forward 7 unknown #
edge $-1 $152 102.42628102111811 $219 109.54680013428145 $90 $221 forward 7 unknown #
coedge $-1 $91 $211 $217 $222 forward $140 $-1 #
vertex $-1 $148 $223 #
vertex $-1 $92 $224 #
straight-curve $-1 7.3382447360982077 -2.2607246829614667 16.803027408607562 -1 0 0 I I #
coedge $-1 $154 $154 $-1 $225 reversed $95 $-1 #
edge $-1 $226 0 $226 6.2831853071796004 $96 $227 forward 7 unknown #
vertex $-1 $99 $228 #
ellipse-curve $-1 51.690124860844016 -12.771632764088963 15.022897606467506 0.50000000669873634 0 0.8660253999169214 0.8660253999169214 0 -0.50000000669873634 1 I I #
face $-1 $-1 $115 $15 $-1 $229 reversed single #
loop $-1 $-1 $174 $100 #
plane-surface $-1 0 36.92820726899744 0 0 -1 0 0 0 -1 forward_v I I I I #
coedge $-1 $230 $172 $175 $231 forward $101 $-1 #
coedge $-1 $178 $103 $104 $166 reversed $63 $-1 #
coedge $-1 $172 $230 $103 $164 reversed $101 $-1 #
edge $-1 $179 -16.803027408607569 $232 16.803027408607569 $163 $233 forward 7 unknown #
coedge $-1 $105 $104 $230 $234 forward $41 $-1 #
edge $-1 $170 -54.77340006714072 $232 54.77340006714072 $162 $235 forward 7 unknown #
coedge $-1 $175 $174 $105 $168 reversed $159 $-1 #
edge $-1 $236 -54.77340006714072 $169 54.77340006714072 $167 $237 forward 7 unknown #
vertex $-1 $107 $238 #
vertex $-1 $181 $239 #
straight-curve $-1 54.77340006714072 0 -16.803027408607569 0 -1 0 I I #
coedge $-1 $161 $163 $108 $173 reversed $101 $-1 #
edge $-1 $176 -36.92820726899744 $179 36.92820726899744 $172 $240 forward 7 unknown #
coedge $-1 $167 $109 $114 $182 forward $159 $-1 #
coedge $-1 $109 $167 $161 $231 reversed $159 $-1 #
vertex $-1 $110 $241 #
straight-curve $-1 0 36.92820726899744 16.803027408607569 -1 0 0 I I #
coedge $-1 $111 $162 $113 $181 reversed $63 $-1 #
vertex $-1 $173 $242 #
straight-curve $-1 0 -36.92820726899744 16.803027408607569 1 0 0 I I #
edge $-1 $116 -16.803027408607569 $170 16.803027408607569 $113 $243 forward 7 unknown #
edge $-1 $117 -16.803027408607569 $169 16.803027408607569 $114 $244 forward 7 unknown #
point $-1 54.77340006714072 -36.92820726899744 16.803027408607569 #
point $-1 54.77340006714072 36.92820726899744 16.803027408607569 #
plane-surface $-1 0 0 16.803027408607569 0 0 1 1 0 0 forward_v I I I I #
coedge $-1 $196 $195 $188 $245 forward $120 $-1 #
coedge $-1 $188 $122 $124 $192 reversed $71 $-1 #
coedge $-1 $122 $187 $186 $245 reversed $71 $-1 #
coedge $-1 $130 $125 $122 $190 forward $131 $-1 #
edge $-1 $193 -6.1665507795059042 $246 -3.6691256610765777e-007 $189 $247 forward 7 unknown #
coedge $-1 $124 $123 $196 $248 reversed $45 $-1 #
edge $-1 $249 7.929837432145984e-015 $193 7.1205191131633185 $187 $250 forward 7 unknown #
vertex $-1 $126 $251 #
straight-curve $-1 -48.606849654547382 -6.3858163820444815 16.803027408607569 0 1 0 I I #
coedge $-1 $186 $127 $130 $200 reversed $120 $-1 #
coedge $-1 $127 $186 $191 $248 forward $120 $-1 #
vertex $-1 $128 $252 #
straight-curve $-1 -54.77340006714072 -23.28254084521646 54.056539600118782 0 0 1 I I #
straight-curve $-1 -54.773400067140727 -23.28254084521646 13.242767804327428 -0.8660253999169214 0 -0.50000000669873634 I I #
edge $-1 $246 2.2607246829614667 $132 23.28254084521646 $195 $253 forward 7 unknown #
point $-1 -54.77340006714072 -23.28254084521646 16.803027408607569 #
point $-1 -48.606849654547382 -23.28254084521646 16.803027408607569 #
edge $-1 $254 1 $254 0 $135 $-1 forward 7 unknown #
vertex $-1 $136 $255 #
ellipse-curve $-1 -49.927619877973129 -12.771632764088963 11.970149482073918 -0.50000000669873634 0 0.8660253999169214 0.8660253999169214 0 0.50000000669873634 1 I I #
point $-1 -50.824099460927108 -12.771632764088963 15.522897613166222 #
loop $-1 $-1 $147 $139 #
plane-surface $-1 54.77340006714072 0 0 -1 0 0 0 0 1 forward_v I I I I #
coedge $-1 $210 $142 $144 $214 reversed $86 $-1 #
coedge $-1 $142 $209 $256 $257 reversed $86 $-1 #
coedge $-1 $150 $145 $142 $212 forward $140 $-1 #
edge $-1 $215 41.268604918449142 $258 47.435155331042509 $211 $259 forward 7 unknown #
coedge $-1 $144 $143 $218 $260 reversed $54 $-1 #
edge $-1 $261 -109.54680013428145 $215 -102.42628102111811 $209 $262 forward 7 unknown #
vertex $-1 $146 $263 #
straight-curve $-1 48.606849654547339 -6.3858163820444815 16.803027408607569 0 -1 0 I I #
coedge $-1 $256 $147 $150 $222 reversed $207 $-1 #
coedge $-1 $147 $256 $213 $260 forward $207 $-1 #
vertex $-1 $148 $264 #
straight-curve $-1 54.77340006714072 -2.2607246829614667 81.443240000601705 0 0 1 I I #
straight-curve $-1 -40.09691132876943 -2.2607246829614667 68.016168605293274 0.8660253999169214 0 -0.50000000669873634 I I #
edge $-1 $258 -23.28254084521646 $151 -2.2607246829614667 $217 $265 forward 7 unknown #
point $-1 54.77340006714072 -2.2607246829614667 16.803027408607569 #
point $-1 48.606849654547354 -2.2607246829614667 16.803027408607569 #
edge $-1 $266 1 $266 0 $154 $-1 forward 7 unknown #
vertex $-1 $155 $267 #
ellipse-curve $-1 49.927619877973108 -12.771632764088963 11.970149482073918 0.50000000669873634 0 0.8660253999169214 0.8660253999169214 0 -0.50000000669873634 1 I I #
point $-1 52.55615026076093 -12.771632764088963 14.522897599768751 #
plane-surface $-1 54.77340006714072 0 0 -1 0 0 0 0 1 forward_v I I I I #
coedge $-1 $163 $161 $165 $234 reversed $101 $-1 #
edge $-1 $176 -16.803027408607569 $236 16.803027408607569 $175 $268 forward 7 unknown #
vertex $-1 $234 $269 #
straight-curve $-1 -54.77340006714072 -36.92820726899744 0 0 0 -1 I I #
edge $-1 $232 -36.92820726899744 $236 36.92820726899744 $230 $270 forward 7 unknown #
straight-curve $-1 0 -36.92820726899744 -16.803027408607569 -1 0 0 I I #
vertex $-1 $168 $271 #
straight-curve $-1 0 36.92820726899744 -16.803027408607569 1 0 0 I I #
point $-1 54.77340006714072 36.92820726899744 -16.803027408607569 #
point $-1 54.77340006714072 -36.92820726899744 -16.803027408607569 #
straight-curve $-1 -54.77340006714072 0 16.803027408607569 0 -1 0 I I #
point $-1 -54.77340006714072 36.92820726899744 16.803027408607569 #
point $-1 -54.77340006714072 -36.92820726899744 16.803027408607569 #
straight-curve $-1 54.77340006714072 -36.92820726899744 0 0 0 -1 I I #
straight-curve $-1 54.77340006714072 36.92820726899744 0 0 0 -1 I I #
edge $-1 $246 37.253512191511213 $249 40.813771795791354 $186 $272 forward 7 unknown #
vertex $-1 $200 $273 #
straight-curve $-1 -54.773400434053286 -2.2607246829614667 16.803027408607569 -1 0 0 I I #
edge $-1 $249 -4.1250916990830149 $197 16.896724463171978 $196 $274 forward 7 unknown #
vertex $-1 $248 $275 #
straight-curve $-1 -54.773400067140727 -2.2607246829614667 13.242767804327428 0.8660253999169214 0 0.50000000669873634 I I #
point $-1 -48.606849654547382 -2.2607246829614667 16.803027408607569 #
point $-1 -54.77340006714072 -23.28254084521646 13.242767804327432 #
straight-curve $-1 -54.77340006714072 0 16.803027408607569 0 -1 0 I I #
vertex $-1 $203 $276 #
point $-1 -49.061594478056207 -12.771632764088963 12.470149488772654 #
coedge $-1 $218 $217 $210 $257 forward $207 $-1 #
edge $-1 $258 64.640212591994128 $261 68.200472196274291 $256 $277 forward 7 unknown #
vertex $-1 $222 $278 #
straight-curve $-1 7.3382447360982077 -23.28254084521646 16.803027408607562 1 0 0 I I #
edge $-1 $261 -16.896724463171978 $219 4.1250916990830149 $218 $279 forward 7 unknown #
vertex $-1 $260 $280 #
straight-curve $-1 -40.09691132876943 -23.28254084521646 68.016168605293274 -0.8660253999169214 0 0.50000000669873634 I I #
point $-1 48.606849654547354 -23.28254084521646 16.803027408607569 #
point $-1 54.77340006714072 -2.2607246829614667 13.242767804327414 #
straight-curve $-1 54.77340006714072 0 16.803027408607569 0 1 0 I I #
vertex $-1 $225 $281 #
point $-1 50.793645277890029 -12.771632764088963 11.470149475375182 #
straight-curve $-1 -54.77340006714072 36.92820726899744 0 0 0 -1 I I #
point $-1 -54.77340006714072 -36.92820726899744 -16.803027408607569 #
straight-curve $-1 -54.77340006714072 0 -16.803027408607569 0 1 0 I I #
point $-1 -54.77340006714072 36.92820726899744 -16.803027408607569 #
straight-curve $-1 -54.77340006714072 -2.2607246829614667 54.056539600118782 0 0 -1 I I #
point $-1 -54.77340006714072 -2.2607246829614667 16.803027408607569 #
straight-curve $-1 -54.77340006714072 -6.3858163820444815 13.242767804327435 0 -1 0 I I #
point $-1 -54.77340006714072 -2.2607246829614667 13.242767804327432 #
point $-1 -49.427619871274388 -12.771632764088963 11.104124082156996 #
straight-curve $-1 54.77340006714072 -23.28254084521646 81.443240000601705 0 0 -1 I I #
point $-1 54.77340006714072 -23.28254084521646 16.803027408607569 #
straight-curve $-1 54.77340006714072 -6.3858163820444815 13.242767804327418 0 1 0 I I #
point $-1 54.77340006714072 -23.28254084521646 13.242767804327414 #
point $-1 49.427619871274366 -12.771632764088963 11.104124082156996 #
End-of-ACIS-data 