500 0 20 0           
7 Unknown 11 ACIS 5.0 NT 24 Thu Mar 25 18:41:24 1999 
-1 9.9999999999999995e-007 1e-010 
body $-1 $20 $-1 $21 #
body $-1 $22 $-1 $23 #
body $-1 $24 $-1 $25 #
body $-1 $26 $-1 $27 #
body $-1 $28 $-1 $29 #
body $-1 $30 $-1 $31 #
body $-1 $32 $-1 $33 #
body $-1 $34 $-1 $35 #
body $-1 $36 $-1 $37 #
body $-1 $38 $-1 $39 #
body $-1 $40 $-1 $41 #
body $-1 $42 $-1 $43 #
body $-1 $44 $-1 $45 #
body $-1 $46 $-1 $47 #
body $-1 $48 $-1 $49 #
body $-1 $50 $-1 $51 #
body $-1 $52 $-1 $53 #
body $-1 $54 $-1 $55 #
body $-1 $56 $-1 $57 #
body $-1 $58 $-1 $59 #
lump $-1 $-1 $60 $0 #
transform $-1 1 0 0 0 1 0 0 0 1 49.474166081728569 23.884908006942119 6.7149196618534139 1 rotate no_reflect no_shear #
lump $-1 $-1 $61 $1 #
transform $-1 1 0 0 0 1 0 0 0 1 49.474166081728569 23.884908006942119 6.7149196618534139 1 rotate no_reflect no_shear #
lump $-1 $-1 $62 $2 #
transform $-1 1 0 0 0 1 0 0 0 1 49.474166081728569 23.884908006942119 6.7149196618534139 1 rotate no_reflect no_shear #
lump $-1 $-1 $63 $3 #
transform $-1 1 0 0 0 1 0 0 0 1 49.474166081728569 23.884908006942119 6.7149196618534139 1 rotate no_reflect no_shear #
lump $-1 $-1 $64 $4 #
transform $-1 1 0 0 0 1 0 0 0 1 49.474166081728569 23.884908006942119 6.7149196618534139 1 rotate no_reflect no_shear #
lump $-1 $-1 $65 $5 #
transform $-1 1 0 0 0 1 0 0 0 1 49.474166081728569 23.884908006942119 6.7149196618534139 1 rotate no_reflect no_shear #
lump $-1 $-1 $66 $6 #
transform $-1 1 0 0 0 1 0 0 0 1 49.474166081728569 23.884908006942119 6.7149196618534139 1 rotate no_reflect no_shear #
lump $-1 $-1 $67 $7 #
transform $-1 1 0 0 0 1 0 0 0 1 49.474166081728569 23.884908006942119 6.7149196618534139 1 rotate no_reflect no_shear #
lump $-1 $-1 $68 $8 #
transform $-1 1 0 0 0 1 0 0 0 1 49.474166081728569 23.884908006942119 6.7149196618534139 1 rotate no_reflect no_shear #
lump $-1 $-1 $69 $9 #
transform $-1 1 0 0 0 1 0 0 0 1 49.474166081728569 23.884908006942119 6.7149196618534139 1 rotate no_reflect no_shear #
lump $-1 $-1 $70 $10 #
transform $-1 1 0 0 0 1 0 0 0 1 49.474166081728569 23.884908006942119 6.7149196618534139 1 rotate no_reflect no_shear #
lump $-1 $-1 $71 $11 #
transform $-1 1 0 0 0 1 0 0 0 1 49.474166081728569 23.884908006942119 6.7149196618534139 1 rotate no_reflect no_shear #
lump $-1 $-1 $72 $12 #
transform $-1 1 0 0 0 1 0 0 0 1 49.474166081728569 23.884908006942119 6.7149196618534139 1 rotate no_reflect no_shear #
lump $-1 $-1 $73 $13 #
transform $-1 1 0 0 0 1 0 0 0 1 49.474166081728569 23.884908006942119 6.7149196618534139 1 rotate no_reflect no_shear #
lump $-1 $-1 $74 $14 #
transform $-1 1 0 0 0 1 0 0 0 1 49.474166081728569 23.884908006942119 6.7149196618534139 1 rotate no_reflect no_shear #
lump $-1 $-1 $75 $15 #
transform $-1 1 0 0 0 1 0 0 0 1 49.474166081728569 23.884908006942119 6.7149196618534139 1 rotate no_reflect no_shear #
lump $-1 $-1 $76 $16 #
transform $-1 1 0 0 0 1 0 0 0 1 49.474166081728569 23.884908006942119 6.7149196618534139 1 rotate no_reflect no_shear #
lump $-1 $-1 $77 $17 #
transform $-1 1 0 0 0 1 0 0 0 1 49.474166081728569 23.884908006942119 6.7149196618534139 1 rotate no_reflect no_shear #
lump $-1 $-1 $78 $18 #
transform $-1 1 0 0 0 1 0 0 0 1 49.474166081728569 23.884908006942119 6.7149196618534139 1 rotate no_reflect no_shear #
lump $-1 $-1 $79 $19 #
transform $-1 1 0 0 0 1 0 0 0 1 49.474166081728569 23.884908006942119 6.7149196618534139 1 rotate no_reflect no_shear #
shell $-1 $-1 $-1 $80 $-1 $20 #
shell $-1 $-1 $-1 $81 $-1 $22 #
shell $-1 $-1 $-1 $82 $-1 $24 #
shell $-1 $-1 $-1 $83 $-1 $26 #
shell $-1 $-1 $-1 $84 $-1 $28 #
shell $-1 $-1 $-1 $85 $-1 $30 #
shell $-1 $-1 $-1 $86 $-1 $32 #
shell $-1 $-1 $-1 $87 $-1 $34 #
shell $-1 $-1 $-1 $88 $-1 $36 #
shell $-1 $-1 $-1 $89 $-1 $38 #
shell $-1 $-1 $-1 $90 $-1 $40 #
shell $-1 $-1 $-1 $91 $-1 $42 #
shell $-1 $-1 $-1 $92 $-1 $44 #
shell $-1 $-1 $-1 $93 $-1 $46 #
shell $-1 $-1 $-1 $94 $-1 $48 #
shell $-1 $-1 $-1 $95 $-1 $50 #
shell $-1 $-1 $-1 $96 $-1 $52 #
shell $-1 $-1 $-1 $97 $-1 $54 #
shell $-1 $-1 $-1 $98 $-1 $56 #
shell $-1 $-1 $-1 $99 $-1 $58 #
face $-1 $100 $101 $60 $-1 $102 forward single #
face $-1 $103 $104 $61 $-1 $105 reversed single #
face $-1 $106 $107 $62 $-1 $108 reversed single #
face $-1 $109 $110 $63 $-1 $111 forward single #
face $-1 $112 $113 $64 $-1 $114 forward single #
face $-1 $115 $116 $65 $-1 $117 reversed single #
face $-1 $118 $119 $66 $-1 $120 forward single #
face $-1 $121 $122 $67 $-1 $123 forward single #
face $-1 $124 $125 $68 $-1 $126 reversed single #
face $-1 $127 $128 $69 $-1 $129 forward single #
face $-1 $130 $131 $70 $-1 $132 forward single #
face $-1 $133 $134 $71 $-1 $135 reversed single #
face $-1 $136 $137 $72 $-1 $138 forward single #
face $-1 $139 $140 $73 $-1 $141 forward single #
face $-1 $142 $143 $74 $-1 $144 reversed single #
face $-1 $145 $146 $75 $-1 $147 forward single #
face $-1 $148 $149 $76 $-1 $150 forward single #
face $-1 $151 $152 $77 $-1 $153 reversed single #
face $-1 $154 $155 $78 $-1 $156 forward single #
face $-1 $157 $158 $79 $-1 $159 forward single #
face $-1 $160 $161 $60 $-1 $162 reversed single #
loop $-1 $-1 $163 $80 #
plane-surface $-1 0 0 6.7149196618534139 0 0 1 1 0 0 forward_v I I I I #
face $-1 $164 $165 $61 $-1 $166 reversed single #
loop $-1 $-1 $167 $81 #
plane-surface $-1 -47.200354153542769 0 2.6862137799485621 0 0 1 1 0 0 forward_v I I I I #
face $-1 $168 $169 $62 $-1 $170 reversed single #
loop $-1 $-1 $171 $82 #
plane-surface $-1 0.12410431277716327 -79.216113882135659 85.053750175912867 -1 0 0 0 -0.55919291073839883 0.82903756765294845 forward_v I I I I #
face $-1 $172 $173 $63 $-1 $174 forward single #
loop $-1 $175 $176 $83 #
cone-surface $-1 -8.5566665830851747 -20.494853441882572 3.9010724756066919 0 0.55919291073839883 -0.82903756765294845 1 0 0 1 I I 0 1 1 forward I I I I #
face $-1 $177 $178 $64 $-1 $179 forward single #
loop $-1 $180 $181 $84 #
cone-surface $-1 -3.3482040455677691 -20.494853441882572 3.9010724756066919 0 0.55919291073839883 -0.82903756765294845 1 0 0 1 I I 0 1 1 forward I I I I #
face $-1 $182 $183 $65 $-1 $184 reversed single #
loop $-1 $-1 $185 $85 #
plane-surface $-1 16.576598797801708 -79.216113882135659 85.053750175912867 -1 0 0 0 -0.55919291073839883 0.82903756765294845 forward_v I I I I #
face $-1 $186 $187 $66 $-1 $188 forward single #
loop $-1 $189 $190 $86 #
cone-surface $-1 7.89582790193937 -20.494853441882572 3.9010724756066919 0 0.55919291073839883 -0.82903756765294845 1 0 0 1 I I 0 1 1 forward I I I I #
face $-1 $191 $192 $67 $-1 $193 forward single #
loop $-1 $194 $195 $87 #
cone-surface $-1 13.104290439456776 -20.494853441882572 3.9010724756066919 0 0.55919291073839883 -0.82903756765294845 1 0 0 1 I I 0 1 1 forward I I I I #
face $-1 $196 $197 $68 $-1 $198 reversed single #
loop $-1 $-1 $199 $88 #
plane-surface $-1 -30.238930571688087 72.447223721509857 101.61994940172188 -1 0 0 0 0.78801076186113728 0.61566146476048833 forward_v I I I I #
face $-1 $200 $201 $69 $-1 $202 forward single #
loop $-1 $203 $204 $89 #
cone-surface $-1 -40.730081752880146 21.760662257655948 4.3429505245452056 0 -0.78801076186113728 -0.61566146476048833 0.5 0 0 1 I I 0 1 0.5 forward I I I I #
face $-1 $205 $206 $70 $-1 $207 forward single #
loop $-1 $208 $209 $90 #
cone-surface $-1 -34.435391044164916 21.760662257655948 4.3429505245452056 0 -0.78801076186113728 -0.61566146476048833 0.5 0 0 1 I I 0 1 0.5 forward I I I I #
face $-1 $210 $211 $71 $-1 $212 reversed single #
loop $-1 $-1 $213 $91 #
plane-surface $-1 -6.638753494916708 72.447223721509857 101.61994940172188 -1 0 0 0 0.78801076186113728 0.61566146476048833 forward_v I I I I #
face $-1 $214 $215 $72 $-1 $216 forward single #
loop $-1 $217 $218 $92 #
cone-surface $-1 -17.129904676108765 21.760662257655948 4.3429505245452056 0 -0.78801076186113728 -0.61566146476048833 0.5 0 0 1 I I 0 1 0.5 forward I I I I #
face $-1 $219 $220 $73 $-1 $221 forward single #
loop $-1 $222 $223 $93 #
cone-surface $-1 -10.835213967393528 21.760662257655948 4.3429505245452056 0 -0.78801076186113728 -0.61566146476048833 0.5 0 0 1 I I 0 1 0.5 forward I I I I #
face $-1 $224 $225 $74 $-1 $226 reversed single #
loop $-1 $-1 $227 $94 #
plane-surface $-1 16.961423581854675 72.447223721509857 101.61994940172188 -1 0 0 0 0.78801076186113728 0.61566146476048833 forward_v I I I I #
face $-1 $228 $229 $75 $-1 $230 forward single #
loop $-1 $231 $232 $95 #
cone-surface $-1 6.4702724006626227 21.760662257655948 4.3429505245452056 0 -0.78801076186113728 -0.61566146476048833 0.5 0 0 1 I I 0 1 0.5 forward I I I I #
face $-1 $233 $234 $76 $-1 $235 forward single #
loop $-1 $236 $237 $96 #
cone-surface $-1 12.764963109377859 21.760662257655948 4.3429505245452056 0 -0.78801076186113728 -0.61566146476048833 0.5 0 0 1 I I 0 1 0.5 forward I I I I #
face $-1 $238 $239 $77 $-1 $240 reversed single #
loop $-1 $-1 $241 $97 #
plane-surface $-1 40.561600658626062 72.447223721509857 101.61994940172188 -1 0 0 0 0.78801076186113728 0.61566146476048833 forward_v I I I I #
face $-1 $242 $243 $78 $-1 $244 forward single #
loop $-1 $245 $246 $98 #
cone-surface $-1 30.070449477434011 21.760662257655948 4.3429505245452056 0 -0.78801076186113728 -0.61566146476048833 0.5 0 0 1 I I 0 1 0.5 forward I I I I #
face $-1 $247 $248 $79 $-1 $249 forward single #
loop $-1 $250 $251 $99 #
cone-surface $-1 36.365140186149247 21.760662257655948 4.3429505245452056 0 -0.78801076186113728 -0.61566146476048833 0.5 0 0 1 I I 0 1 0.5 forward I I I I #
face $-1 $252 $253 $60 $-1 $254 reversed single #
loop $-1 $-1 $255 $100 #
plane-surface $-1 0 0 -6.7149196618534139 0 0 1 1 0 0 forward_v I I I I #
coedge $-1 $256 $257 $258 $259 forward $101 $-1 #
face $-1 $260 $261 $61 $-1 $262 reversed single #
loop $-1 $-1 $263 $103 #
plane-surface $-1 -44.926542225356968 0 4.700566720900988 -1 0 0 0 0 1 forward_v I I I I #
coedge $-1 $264 $265 $266 $267 forward $104 $-1 #
face $-1 $268 $269 $62 $-1 $270 reversed single #
loop $-1 $-1 $271 $106 #
plane-surface $-1 -5.9524353143264719 -23.884908006942133 3.0218655558043537 0 -0.55919291073839883 0.82903756765294845 1 0 0 forward_v I I I I #
coedge $-1 $272 $273 $274 $275 reversed $107 $-1 #
face $-1 $-1 $276 $63 $-1 $277 forward single #
loop $-1 $278 $279 $109 #
cone-surface $-1 -8.5566665830851747 -19.562791305803945 2.5192335585580325 0 0.55919291073839883 -0.82903756765294845 0.5 0 0 1 I I -0.70710678118654746 0.70710678118654746 0.5 forward I I I I #
loop $-1 $-1 $280 $83 #
coedge $-1 $176 $176 $281 $282 reversed $110 $-1 #
face $-1 $-1 $283 $64 $-1 $284 forward single #
loop $-1 $285 $286 $112 #
cone-surface $-1 -3.3482040455677691 -19.562791305803945 2.5192335585580325 0 0.55919291073839883 -0.82903756765294845 0.5 0 0 1 I I -0.70710678118654746 0.70710678118654746 0.5 forward I I I I #
loop $-1 $-1 $287 $84 #
coedge $-1 $181 $181 $288 $289 reversed $113 $-1 #
face $-1 $290 $291 $65 $-1 $292 reversed single #
loop $-1 $-1 $293 $115 #
plane-surface $-1 10.500059170698073 -23.884908006942133 3.0218655558043537 0 -0.55919291073839883 0.82903756765294845 1 0 0 forward_v I I I I #
coedge $-1 $294 $295 $296 $297 reversed $116 $-1 #
face $-1 $-1 $298 $66 $-1 $299 forward single #
loop $-1 $300 $301 $118 #
cone-surface $-1 7.89582790193937 -19.562791305803945 2.5192335585580325 0 0.55919291073839883 -0.82903756765294845 0.5 0 0 1 I I -0.70710678118654746 0.70710678118654746 0.5 forward I I I I #
loop $-1 $-1 $302 $86 #
coedge $-1 $190 $190 $303 $304 reversed $119 $-1 #
face $-1 $-1 $305 $67 $-1 $306 forward single #
loop $-1 $307 $308 $121 #
cone-surface $-1 13.104290439456776 -19.562791305803945 2.5192335585580325 0 0.55919291073839883 -0.82903756765294845 0.5 0 0 1 I I -0.70710678118654746 0.70710678118654746 0.5 forward I I I I #
loop $-1 $-1 $309 $87 #
coedge $-1 $195 $195 $310 $311 reversed $122 $-1 #
face $-1 $312 $313 $68 $-1 $314 forward single #
loop $-1 $-1 $315 $124 #
plane-surface $-1 -37.582736398522528 -5.5251268915048826 40.701274286360523 0 0.78801076186113728 0.61566146476048833 1 0 0 forward_v I I I I #
coedge $-1 $316 $317 $318 $319 reversed $125 $-1 #
face $-1 $-1 $320 $69 $-1 $321 forward single #
loop $-1 $322 $323 $127 #
cone-surface $-1 -40.730081752880146 20.867906451290089 3.645453264326961 0 -0.78801076186113728 -0.61566146476048833 0.25 0 0 1 I I -0.70710678118654746 0.70710678118654746 0.25 forward I I I I #
loop $-1 $-1 $324 $89 #
coedge $-1 $204 $204 $325 $326 reversed $128 $-1 #
face $-1 $-1 $327 $70 $-1 $328 forward single #
loop $-1 $329 $330 $130 #
cone-surface $-1 -34.435391044164916 20.867906451290089 3.645453264326961 0 -0.78801076186113728 -0.61566146476048833 0.25 0 0 1 I I -0.70710678118654746 0.70710678118654746 0.25 forward I I I I #
loop $-1 $-1 $331 $90 #
coedge $-1 $209 $209 $332 $333 reversed $131 $-1 #
face $-1 $334 $335 $71 $-1 $336 reversed single #
loop $-1 $-1 $337 $133 #
plane-surface $-1 -13.982559321751147 -5.5251268915048826 40.701274286360523 0 0.78801076186113728 0.61566146476048833 1 0 0 forward_v I I I I #
coedge $-1 $338 $339 $340 $341 reversed $134 $-1 #
face $-1 $-1 $342 $72 $-1 $343 forward single #
loop $-1 $344 $345 $136 #
cone-surface $-1 -17.129904676108765 20.867906451290089 3.645453264326961 0 -0.78801076186113728 -0.61566146476048833 0.25 0 0 1 I I -0.70710678118654746 0.70710678118654746 0.25 forward I I I I #
loop $-1 $-1 $346 $92 #
coedge $-1 $218 $218 $347 $348 reversed $137 $-1 #
face $-1 $-1 $349 $73 $-1 $350 forward single #
loop $-1 $351 $352 $139 #
cone-surface $-1 -10.835213967393528 20.867906451290089 3.645453264326961 0 -0.78801076186113728 -0.61566146476048833 0.25 0 0 1 I I -0.70710678118654746 0.70710678118654746 0.25 forward I I I I #
loop $-1 $-1 $353 $93 #
coedge $-1 $223 $223 $354 $355 reversed $140 $-1 #
face $-1 $356 $357 $74 $-1 $358 reversed single #
loop $-1 $-1 $359 $142 #
plane-surface $-1 9.617617755020234 -5.5251268915048826 40.701274286360523 0 0.78801076186113728 0.61566146476048833 1 0 0 forward_v I I I I #
coedge $-1 $360 $361 $362 $363 reversed $143 $-1 #
face $-1 $-1 $364 $75 $-1 $365 forward single #
loop $-1 $366 $367 $145 #
cone-surface $-1 6.4702724006626227 20.867906451290089 3.645453264326961 0 -0.78801076186113728 -0.61566146476048833 0.25 0 0 1 I I -0.70710678118654746 0.70710678118654746 0.25 forward I I I I #
loop $-1 $-1 $368 $95 #
coedge $-1 $232 $232 $369 $370 reversed $146 $-1 #
face $-1 $-1 $371 $76 $-1 $372 forward single #
loop $-1 $373 $374 $148 #
cone-surface $-1 12.764963109377859 20.867906451290089 3.645453264326961 0 -0.78801076186113728 -0.61566146476048833 0.25 0 0 1 I I -0.70710678118654746 0.70710678118654746 0.25 forward I I I I #
loop $-1 $-1 $375 $96 #
coedge $-1 $237 $237 $376 $377 reversed $149 $-1 #
face $-1 $378 $379 $77 $-1 $380 reversed single #
loop $-1 $-1 $381 $151 #
plane-surface $-1 33.217794831791622 -5.5251268915048826 40.701274286360523 0 0.78801076186113728 0.61566146476048833 1 0 0 forward_v I I I I #
coedge $-1 $382 $383 $384 $385 reversed $152 $-1 #
face $-1 $-1 $386 $78 $-1 $387 forward single #
loop $-1 $388 $389 $154 #
cone-surface $-1 30.070449477434011 20.867906451290089 3.645453264326961 0 -0.78801076186113728 -0.61566146476048833 0.25 0 0 1 I I -0.70710678118654746 0.70710678118654746 0.25 forward I I I I #
loop $-1 $-1 $390 $98 #
coedge $-1 $246 $246 $391 $392 reversed $155 $-1 #
face $-1 $-1 $393 $79 $-1 $394 forward single #
loop $-1 $395 $396 $157 #
cone-surface $-1 36.365140186149247 20.867906451290089 3.645453264326961 0 -0.78801076186113728 -0.61566146476048833 0.25 0 0 1 I I -0.70710678118654746 0.70710678118654746 0.25 forward I I I I #
loop $-1 $-1 $397 $99 #
coedge $-1 $251 $251 $398 $399 reversed $158 $-1 #
face $-1 $400 $401 $60 $-1 $402 reversed single #
loop $-1 $-1 $403 $160 #
plane-surface $-1 0 -23.884908006942119 0 0 1 0 0 0 1 forward_v I I I I #
coedge $-1 $404 $405 $406 $407 forward $161 $-1 #
coedge $-1 $408 $163 $409 $410 forward $101 $-1 #
coedge $-1 $163 $408 $411 $412 forward $101 $-1 #
coedge $-1 $413 $414 $163 $259 reversed $415 $-1 #
edge $-1 $416 -23.884908006942119 $417 23.884908006942119 $258 $418 forward 7 unknown #
face $-1 $419 $420 $61 $-1 $421 reversed single #
loop $-1 $-1 $422 $164 #
plane-surface $-1 0 23.884908006942119 0 0 -1 0 0 0 -1 forward_v I I I I #
coedge $-1 $266 $423 $424 $425 reversed $165 $-1 #
coedge $-1 $426 $167 $427 $428 reversed $104 $-1 #
coedge $-1 $167 $426 $429 $430 reversed $104 $-1 #
coedge $-1 $431 $263 $167 $267 reversed $165 $-1 #
edge $-1 $432 -23.884908006942119 $433 23.884908006942119 $266 $434 forward 7 unknown #
face $-1 $435 $436 $62 $-1 $437 reversed single #
loop $-1 $-1 $438 $168 #
plane-surface $-1 -12.028974941430107 -79.216113882135659 85.053750175912867 1 0 0 0 0.55919291073839883 -0.82903756765294845 forward_v I I I I #
coedge $-1 $439 $440 $441 $442 reversed $169 $-1 #
coedge $-1 $273 $171 $443 $444 reversed $107 $-1 #
coedge $-1 $171 $272 $439 $445 reversed $107 $-1 #
coedge $-1 $441 $446 $171 $275 forward $447 $-1 #
edge $-1 $448 15.72314893412571 $449 21.198326702825913 $274 $450 forward 7 unknown #
loop $-1 $-1 $281 $172 #
plane-surface $-1 -5.9524353143264719 -23.884908006942133 3.0218655558043537 0 -0.55919291073839883 0.82903756765294845 1 0 0 forward_v I I I I #
loop $-1 $-1 $451 $109 #
coedge $-1 $279 $279 $280 $452 reversed $173 $-1 #
coedge $-1 $280 $280 $279 $452 forward $175 $-1 #
coedge $-1 $281 $281 $176 $282 forward $276 $-1 #
edge $-1 $453 -2.5526060743612011e-015 $453 6.2831853071795978 $281 $454 forward 7 unknown #
loop $-1 $-1 $288 $177 #
plane-surface $-1 -5.9524353143264719 -23.884908006942133 3.0218655558043537 0 -0.55919291073839883 0.82903756765294845 1 0 0 forward_v I I I I #
loop $-1 $-1 $455 $112 #
coedge $-1 $286 $286 $287 $456 reversed $178 $-1 #
coedge $-1 $287 $287 $286 $456 forward $180 $-1 #
coedge $-1 $288 $288 $181 $289 forward $283 $-1 #
edge $-1 $457 -2.5526060743612011e-015 $457 6.2831853071795978 $288 $458 forward 7 unknown #
face $-1 $459 $460 $65 $-1 $461 reversed single #
loop $-1 $-1 $462 $182 #
plane-surface $-1 4.4235195435944377 -79.216113882135659 85.053750175912867 1 0 0 0 0.55919291073839883 -0.82903756765294845 forward_v I I I I #
coedge $-1 $463 $464 $465 $466 reversed $183 $-1 #
coedge $-1 $295 $185 $467 $468 reversed $116 $-1 #
coedge $-1 $185 $294 $463 $469 reversed $116 $-1 #
coedge $-1 $465 $470 $185 $297 forward $471 $-1 #
edge $-1 $472 15.72314893412571 $473 21.198326702825913 $296 $474 forward 7 unknown #
loop $-1 $-1 $303 $186 #
plane-surface $-1 10.500059170698073 -23.884908006942133 3.0218655558043537 0 -0.55919291073839883 0.82903756765294845 1 0 0 forward_v I I I I #
loop $-1 $-1 $475 $118 #
coedge $-1 $301 $301 $302 $476 reversed $187 $-1 #
coedge $-1 $302 $302 $301 $476 forward $189 $-1 #
coedge $-1 $303 $303 $190 $304 forward $298 $-1 #
edge $-1 $477 -2.5526060743612011e-015 $477 6.2831853071795978 $303 $478 forward 7 unknown #
loop $-1 $-1 $310 $191 #
plane-surface $-1 10.500059170698073 -23.884908006942133 3.0218655558043537 0 -0.55919291073839883 0.82903756765294845 1 0 0 forward_v I I I I #
loop $-1 $-1 $479 $121 #
coedge $-1 $308 $308 $309 $480 reversed $192 $-1 #
coedge $-1 $309 $309 $308 $480 forward $194 $-1 #
coedge $-1 $310 $310 $195 $311 forward $305 $-1 #
edge $-1 $481 -2.5526060743612011e-015 $481 6.2831853071795978 $310 $482 forward 7 unknown #
face $-1 $483 $484 $68 $-1 $485 forward single #
loop $-1 $-1 $486 $196 #
plane-surface $-1 0 0 6.7149196618534139 0 0 1 1 0 0 forward_v I I I I #
coedge $-1 $487 $488 $489 $490 reversed $197 $-1 #
coedge $-1 $317 $199 $491 $492 reversed $125 $-1 #
coedge $-1 $199 $316 $487 $493 reversed $125 $-1 #
coedge $-1 $489 $494 $199 $319 forward $495 $-1 #
edge $-1 $496 44.095055039007526 $497 47.751829525567693 $318 $498 forward 7 unknown #
loop $-1 $-1 $325 $200 #
plane-surface $-1 -37.582736398522528 -5.5251268915048826 40.701274286360523 0 0.78801076186113728 0.61566146476048833 1 0 0 forward_v I I I I #
loop $-1 $-1 $499 $127 #
coedge $-1 $323 $323 $324 $500 reversed $201 $-1 #
coedge $-1 $324 $324 $323 $500 forward $203 $-1 #
coedge $-1 $325 $325 $204 $326 forward $320 $-1 #
edge $-1 $501 1.5749612020238124e-015 $501 6.2831853071796022 $325 $502 forward 7 unknown #
loop $-1 $-1 $332 $205 #
plane-surface $-1 -37.582736398522528 -5.5251268915048826 40.701274286360523 0 0.78801076186113728 0.61566146476048833 1 0 0 forward_v I I I I #
loop $-1 $-1 $503 $130 #
coedge $-1 $330 $330 $331 $504 reversed $206 $-1 #
coedge $-1 $331 $331 $330 $504 forward $208 $-1 #
coedge $-1 $332 $332 $209 $333 forward $327 $-1 #
edge $-1 $505 1.5749612020238124e-015 $505 6.2831853071796022 $332 $506 forward 7 unknown #
face $-1 $507 $508 $71 $-1 $509 forward single #
loop $-1 $-1 $510 $210 #
plane-surface $-1 -21.326365148585587 72.447223721509857 101.61994940172188 1 0 0 0 -0.78801076186113728 -0.61566146476048833 forward_v I I I I #
coedge $-1 $511 $512 $513 $514 reversed $211 $-1 #
coedge $-1 $339 $213 $515 $516 reversed $134 $-1 #
coedge $-1 $213 $338 $511 $517 reversed $134 $-1 #
coedge $-1 $513 $518 $213 $341 forward $519 $-1 #
edge $-1 $520 44.095055039007526 $521 47.751829525567693 $340 $522 forward 7 unknown #
loop $-1 $-1 $347 $214 #
plane-surface $-1 -13.982559321751147 -5.5251268915048826 40.701274286360523 0 0.78801076186113728 0.61566146476048833 1 0 0 forward_v I I I I #
loop $-1 $-1 $523 $136 #
coedge $-1 $345 $345 $346 $524 reversed $215 $-1 #
coedge $-1 $346 $346 $345 $524 forward $217 $-1 #
coedge $-1 $347 $347 $218 $348 forward $342 $-1 #
edge $-1 $525 1.5749612020238124e-015 $525 6.2831853071796022 $347 $526 forward 7 unknown #
loop $-1 $-1 $354 $219 #
plane-surface $-1 -13.982559321751147 -5.5251268915048826 40.701274286360523 0 0.78801076186113728 0.61566146476048833 1 0 0 forward_v I I I I #
loop $-1 $-1 $527 $139 #
coedge $-1 $352 $352 $353 $528 reversed $220 $-1 #
coedge $-1 $353 $353 $352 $528 forward $222 $-1 #
coedge $-1 $354 $354 $223 $355 forward $349 $-1 #
edge $-1 $529 1.5749612020238124e-015 $529 6.2831853071796022 $354 $530 forward 7 unknown #
face $-1 $531 $532 $74 $-1 $533 forward single #
loop $-1 $-1 $534 $224 #
plane-surface $-1 2.2738119281857951 72.447223721509857 101.61994940172188 1 0 0 0 -0.78801076186113728 -0.61566146476048833 forward_v I I I I #
coedge $-1 $535 $536 $537 $538 reversed $225 $-1 #
coedge $-1 $361 $227 $539 $540 reversed $143 $-1 #
coedge $-1 $227 $360 $535 $541 reversed $143 $-1 #
coedge $-1 $537 $542 $227 $363 forward $543 $-1 #
edge $-1 $544 44.095055039007526 $545 47.751829525567693 $362 $546 forward 7 unknown #
loop $-1 $-1 $369 $228 #
plane-surface $-1 9.617617755020234 -5.5251268915048826 40.701274286360523 0 0.78801076186113728 0.61566146476048833 1 0 0 forward_v I I I I #
loop $-1 $-1 $547 $145 #
coedge $-1 $367 $367 $368 $548 reversed $229 $-1 #
coedge $-1 $368 $368 $367 $548 forward $231 $-1 #
coedge $-1 $369 $369 $232 $370 forward $364 $-1 #
edge $-1 $549 1.5749612020238124e-015 $549 6.2831853071796022 $369 $550 forward 7 unknown #
loop $-1 $-1 $376 $233 #
plane-surface $-1 9.617617755020234 -5.5251268915048826 40.701274286360523 0 0.78801076186113728 0.61566146476048833 1 0 0 forward_v I I I I #
loop $-1 $-1 $551 $148 #
coedge $-1 $374 $374 $375 $552 reversed $234 $-1 #
coedge $-1 $375 $375 $374 $552 forward $236 $-1 #
coedge $-1 $376 $376 $237 $377 forward $371 $-1 #
edge $-1 $553 1.5749612020238124e-015 $553 6.2831853071796022 $376 $554 forward 7 unknown #
face $-1 $555 $556 $77 $-1 $557 forward single #
loop $-1 $-1 $558 $238 #
plane-surface $-1 25.873989004957181 72.447223721509857 101.61994940172188 1 0 0 0 -0.78801076186113728 -0.61566146476048833 forward_v I I I I #
coedge $-1 $559 $560 $561 $562 reversed $239 $-1 #
coedge $-1 $383 $241 $563 $564 reversed $152 $-1 #
coedge $-1 $241 $382 $559 $565 reversed $152 $-1 #
coedge $-1 $561 $566 $241 $385 forward $567 $-1 #
edge $-1 $568 44.095055039007526 $569 47.751829525567693 $384 $570 forward 7 unknown #
loop $-1 $-1 $391 $242 #
plane-surface $-1 33.217794831791622 -5.5251268915048826 40.701274286360523 0 0.78801076186113728 0.61566146476048833 1 0 0 forward_v I I I I #
loop $-1 $-1 $571 $154 #
coedge $-1 $389 $389 $390 $572 reversed $243 $-1 #
coedge $-1 $390 $390 $389 $572 forward $245 $-1 #
coedge $-1 $391 $391 $246 $392 forward $386 $-1 #
edge $-1 $573 1.5749612020238124e-015 $573 6.2831853071796022 $391 $574 forward 7 unknown #
loop $-1 $-1 $398 $247 #
plane-surface $-1 33.217794831791622 -5.5251268915048826 40.701274286360523 0 0.78801076186113728 0.61566146476048833 1 0 0 forward_v I I I I #
loop $-1 $-1 $575 $157 #
coedge $-1 $396 $396 $397 $576 reversed $248 $-1 #
coedge $-1 $397 $397 $396 $576 forward $250 $-1 #
coedge $-1 $398 $398 $251 $399 forward $393 $-1 #
edge $-1 $577 1.5749612020238124e-015 $577 6.2831853071796022 $398 $578 forward 7 unknown #
face $-1 $579 $580 $60 $-1 $581 reversed single #
loop $-1 $-1 $582 $252 #
plane-surface $-1 -49.474166081728569 0 0 1 0 0 0 0 -1 forward_v I I I I #
coedge $-1 $583 $411 $584 $585 forward $253 $-1 #
coedge $-1 $586 $255 $583 $587 forward $161 $-1 #
coedge $-1 $255 $586 $588 $589 forward $161 $-1 #
coedge $-1 $414 $413 $255 $407 reversed $415 $-1 #
edge $-1 $590 -23.884908006942119 $591 23.884908006942119 $406 $592 forward 7 unknown #
coedge $-1 $257 $256 $593 $594 forward $101 $-1 #
coedge $-1 $595 $596 $256 $410 reversed $580 $-1 #
edge $-1 $417 -49.474166081728569 $597 49.474166081728569 $409 $598 forward 7 unknown #
coedge $-1 $403 $599 $257 $412 reversed $253 $-1 #
edge $-1 $600 -49.474166081728569 $416 49.474166081728569 $411 $601 forward 7 unknown #
coedge $-1 $406 $258 $599 $602 forward $415 $-1 #
coedge $-1 $258 $406 $595 $603 reversed $415 $-1 #
loop $-1 $-1 $413 $579 #
vertex $-1 $259 $604 #
vertex $-1 $259 $605 #
straight-curve $-1 49.474166081728569 0 6.7149196618534139 0 1 0 I I #
face $-1 $606 $607 $61 $-1 $608 forward single #
loop $-1 $-1 $609 $260 #
plane-surface $-1 -49.474166081728569 0 0 1 0 0 0 0 -1 forward_v I I I I #
coedge $-1 $429 $610 $431 $611 forward $261 $-1 #
coedge $-1 $263 $431 $612 $613 reversed $165 $-1 #
coedge $-1 $614 $427 $263 $425 forward $615 $-1 #
edge $-1 $433 0.33593041949806812 $616 4.3646363014029195 $424 $617 forward 7 unknown #
coedge $-1 $265 $264 $609 $618 reversed $104 $-1 #
coedge $-1 $424 $619 $264 $428 forward $615 $-1 #
edge $-1 $620 -25.873989004957185 $433 -21.326365148585584 $427 $621 forward 7 unknown #
coedge $-1 $622 $422 $265 $430 forward $261 $-1 #
edge $-1 $432 21.326365148585584 $623 25.873989004957185 $429 $624 forward 7 unknown #
coedge $-1 $423 $266 $422 $611 reversed $165 $-1 #
vertex $-1 $430 $625 #
vertex $-1 $428 $626 #
straight-curve $-1 -44.926542225356968 0 2.6862137799485621 0 -1 0 I I #
face $-1 $-1 $447 $62 $-1 $627 forward single #
loop $-1 $-1 $628 $268 #
plane-surface $-1 0 -23.884908006942119 0 0 1 0 0 0 1 forward_v I I I I #
coedge $-1 $629 $630 $631 $632 reversed $269 $-1 #
coedge $-1 $633 $271 $273 $445 forward $169 $-1 #
coedge $-1 $271 $633 $629 $634 forward $169 $-1 #
coedge $-1 $631 $274 $271 $442 forward $447 $-1 #
edge $-1 $449 -3.1003219699403992 $635 9.0527572842668711 $441 $636 forward 7 unknown #
coedge $-1 $637 $638 $272 $444 forward $436 $-1 #
edge $-1 $639 -39.505009532152073 $448 -35.811955426103019 $443 $640 forward 7 unknown #
edge $-1 $449 -6.6042577349066942 $639 -1.7244626260799089e-014 $273 $641 forward 7 unknown #
coedge $-1 $274 $631 $637 $642 forward $447 $-1 #
loop $-1 $-1 $631 $435 #
vertex $-1 $444 $643 #
vertex $-1 $275 $644 #
straight-curve $-1 0.12410431277716327 -39.608056941067829 6.7149196618534148 0 1 0 I I #
coedge $-1 $451 $451 $-1 $645 reversed $278 $-1 #
edge $-1 $646 0 $646 6.2831853071796004 $279 $647 forward 7 unknown #
vertex $-1 $282 $648 #
ellipse-curve $-1 -8.5566665830851747 -21.147319122592009 4.8683926088288922 0 -0.55919291073839883 0.82903756765294845 1 0 0 1 I I #
coedge $-1 $455 $455 $-1 $649 reversed $285 $-1 #
edge $-1 $650 0 $650 6.2831853071796004 $286 $651 forward 7 unknown #
vertex $-1 $289 $652 #
ellipse-curve $-1 -3.3482040455677691 -21.147319122592009 4.8683926088288922 0 -0.55919291073839883 0.82903756765294845 1 0 0 1 I I #
face $-1 $-1 $471 $65 $-1 $653 forward single #
loop $-1 $-1 $654 $290 #
plane-surface $-1 0 -23.884908006942119 0 0 1 0 0 0 1 forward_v I I I I #
coedge $-1 $655 $656 $657 $658 reversed $291 $-1 #
coedge $-1 $659 $293 $295 $469 forward $183 $-1 #
coedge $-1 $293 $659 $655 $660 forward $183 $-1 #
coedge $-1 $657 $296 $293 $466 forward $471 $-1 #
edge $-1 $473 -11.326569212452672 $661 0.82651004175459875 $465 $662 forward 7 unknown #
coedge $-1 $663 $664 $294 $468 forward $460 $-1 #
edge $-1 $665 -39.505009532152073 $472 -35.811955426103019 $467 $666 forward 7 unknown #
edge $-1 $473 -6.6042577349066942 $665 -1.7244626260799089e-014 $295 $667 forward 7 unknown #
coedge $-1 $296 $657 $663 $668 forward $471 $-1 #
loop $-1 $-1 $657 $459 #
vertex $-1 $468 $669 #
vertex $-1 $297 $670 #
straight-curve $-1 16.576598797801708 -39.608056941067829 6.7149196618534148 0 1 0 I I #
coedge $-1 $475 $475 $-1 $671 reversed $300 $-1 #
edge $-1 $672 0 $672 6.2831853071796004 $301 $673 forward 7 unknown #
vertex $-1 $304 $674 #
ellipse-curve $-1 7.89582790193937 -21.147319122592009 4.8683926088288922 0 -0.55919291073839883 0.82903756765294845 1 0 0 1 I I #
coedge $-1 $479 $479 $-1 $675 reversed $307 $-1 #
edge $-1 $676 0 $676 6.2831853071796004 $308 $677 forward 7 unknown #
vertex $-1 $311 $678 #
ellipse-curve $-1 13.104290439456776 -21.147319122592009 4.8683926088288922 0 -0.55919291073839883 0.82903756765294845 1 0 0 1 I I #
face $-1 $-1 $495 $68 $-1 $679 reversed single #
loop $-1 $-1 $680 $312 #
plane-surface $-1 -44.926542225356968 0 4.700566720900988 -1 0 0 0 0 1 forward_v I I I I #
coedge $-1 $491 $681 $682 $683 forward $313 $-1 #
coedge $-1 $682 $315 $317 $493 forward $197 $-1 #
coedge $-1 $315 $682 $680 $684 reversed $197 $-1 #
coedge $-1 $685 $318 $315 $490 forward $495 $-1 #
edge $-1 $497 11.447562372426823 $686 26.135174026095704 $489 $687 forward 7 unknown #
coedge $-1 $688 $486 $316 $492 forward $313 $-1 #
edge $-1 $689 -15.195689120584003 $496 -12.33870385381281 $491 $690 forward 7 unknown #
edge $-1 $497 -47.769816013884238 $689 -43.129302630636104 $317 $691 forward 7 unknown #
coedge $-1 $318 $685 $688 $692 reversed $495 $-1 #
loop $-1 $-1 $489 $483 #
vertex $-1 $692 $693 #
vertex $-1 $319 $694 #
straight-curve $-1 -30.238930571688087 23.884908006942119 50.809974700860941 0 0 -1 I I #
coedge $-1 $499 $499 $-1 $695 reversed $322 $-1 #
edge $-1 $696 0 $696 6.2831853071796004 $323 $697 forward 7 unknown #
vertex $-1 $326 $698 #
ellipse-curve $-1 -40.730081752880146 22.456415373556517 4.8865324185733261 0 0.78801076186113728 0.61566146476048833 0.5 0 0 1 I I #
coedge $-1 $503 $503 $-1 $699 reversed $329 $-1 #
edge $-1 $700 0 $700 6.2831853071796004 $330 $701 forward 7 unknown #
vertex $-1 $333 $702 #
ellipse-curve $-1 -34.435391044164916 22.456415373556517 4.8865324185733261 0 0.78801076186113728 0.61566146476048833 0.5 0 0 1 I I #
face $-1 $-1 $519 $71 $-1 $703 reversed single #
loop $-1 $-1 $704 $334 #
plane-surface $-1 0 0 6.7149196618534139 0 0 1 1 0 0 forward_v I I I I #
coedge $-1 $705 $706 $707 $708 reversed $335 $-1 #
coedge $-1 $709 $337 $339 $517 forward $211 $-1 #
coedge $-1 $337 $709 $705 $710 forward $211 $-1 #
coedge $-1 $707 $340 $337 $514 forward $519 $-1 #
edge $-1 $521 -0.35252616595886543 $711 14.335085487710014 $513 $712 forward 7 unknown #
coedge $-1 $713 $714 $338 $516 forward $508 $-1 #
edge $-1 $715 -15.195689120584003 $520 -12.33870385381281 $515 $716 forward 7 unknown #
edge $-1 $521 -47.769816013884238 $715 -43.129302630636104 $339 $717 forward 7 unknown #
coedge $-1 $340 $707 $713 $718 reversed $519 $-1 #
loop $-1 $-1 $707 $507 #
vertex $-1 $718 $719 #
vertex $-1 $341 $720 #
straight-curve $-1 -6.638753494916708 23.884908006942119 50.809974700860941 0 0 -1 I I #
coedge $-1 $523 $523 $-1 $721 reversed $344 $-1 #
edge $-1 $722 0 $722 6.2831853071796004 $345 $723 forward 7 unknown #
vertex $-1 $348 $724 #
ellipse-curve $-1 -17.129904676108765 22.456415373556517 4.8865324185733261 0 0.78801076186113728 0.61566146476048833 0.5 0 0 1 I I #
coedge $-1 $527 $527 $-1 $725 reversed $351 $-1 #
edge $-1 $726 0 $726 6.2831853071796004 $352 $727 forward 7 unknown #
vertex $-1 $355 $728 #
ellipse-curve $-1 -10.835213967393528 22.456415373556517 4.8865324185733261 0 0.78801076186113728 0.61566146476048833 0.5 0 0 1 I I #
face $-1 $-1 $543 $74 $-1 $729 reversed single #
loop $-1 $-1 $730 $356 #
plane-surface $-1 0 0 6.7149196618534139 0 0 1 1 0 0 forward_v I I I I #
coedge $-1 $731 $732 $733 $734 reversed $357 $-1 #
coedge $-1 $735 $359 $361 $541 forward $225 $-1 #
coedge $-1 $359 $735 $731 $736 forward $225 $-1 #
coedge $-1 $733 $362 $359 $538 forward $543 $-1 #
edge $-1 $545 -12.152614704344558 $737 2.5349969493243218 $537 $738 forward 7 unknown #
coedge $-1 $739 $740 $360 $540 forward $532 $-1 #
edge $-1 $741 -15.195689120584003 $544 -12.33870385381281 $539 $742 forward 7 unknown #
edge $-1 $545 -47.769816013884238 $741 -43.129302630636104 $361 $743 forward 7 unknown #
coedge $-1 $362 $733 $739 $744 reversed $543 $-1 #
loop $-1 $-1 $733 $531 #
vertex $-1 $744 $745 #
vertex $-1 $363 $746 #
straight-curve $-1 16.961423581854675 23.884908006942119 50.809974700860941 0 0 -1 I I #
coedge $-1 $547 $547 $-1 $747 reversed $366 $-1 #
edge $-1 $748 0 $748 6.2831853071796004 $367 $749 forward 7 unknown #
vertex $-1 $370 $750 #
ellipse-curve $-1 6.4702724006626227 22.456415373556517 4.8865324185733261 0 0.78801076186113728 0.61566146476048833 0.5 0 0 1 I I #
coedge $-1 $551 $551 $-1 $751 reversed $373 $-1 #
edge $-1 $752 0 $752 6.2831853071796004 $374 $753 forward 7 unknown #
vertex $-1 $377 $754 #
ellipse-curve $-1 12.764963109377859 22.456415373556517 4.8865324185733261 0 0.78801076186113728 0.61566146476048833 0.5 0 0 1 I I #
face $-1 $-1 $567 $77 $-1 $755 reversed single #
loop $-1 $-1 $756 $378 #
plane-surface $-1 0 0 6.7149196618534139 0 0 1 1 0 0 forward_v I I I I #
coedge $-1 $757 $758 $759 $760 reversed $379 $-1 #
coedge $-1 $761 $381 $383 $565 forward $239 $-1 #
coedge $-1 $381 $761 $757 $762 forward $239 $-1 #
coedge $-1 $759 $384 $381 $562 forward $567 $-1 #
edge $-1 $569 -23.952703242730252 $763 -9.2650915890613703 $561 $764 forward 7 unknown #
coedge $-1 $765 $766 $382 $564 forward $556 $-1 #
edge $-1 $767 -15.195689120584003 $568 -12.33870385381281 $563 $768 forward 7 unknown #
edge $-1 $569 -47.769816013884238 $767 -43.129302630636104 $383 $769 forward 7 unknown #
coedge $-1 $384 $759 $765 $770 reversed $567 $-1 #
loop $-1 $-1 $759 $555 #
vertex $-1 $770 $771 #
vertex $-1 $385 $772 #
straight-curve $-1 40.561600658626062 23.884908006942119 50.809974700860941 0 0 -1 I I #
coedge $-1 $571 $571 $-1 $773 reversed $388 $-1 #
edge $-1 $774 0 $774 6.2831853071796004 $389 $775 forward 7 unknown #
vertex $-1 $392 $776 #
ellipse-curve $-1 30.070449477434011 22.456415373556517 4.8865324185733261 0 0.78801076186113728 0.61566146476048833 0.5 0 0 1 I I #
coedge $-1 $575 $575 $-1 $777 reversed $395 $-1 #
edge $-1 $778 0 $778 6.2831853071796004 $396 $779 forward 7 unknown #
vertex $-1 $399 $780 #
ellipse-curve $-1 36.365140186149247 22.456415373556517 4.8865324185733261 0 0.78801076186113728 0.61566146476048833 0.5 0 0 1 I I #
face $-1 $-1 $415 $60 $-1 $781 reversed single #
loop $-1 $-1 $595 $400 #
plane-surface $-1 0 23.884908006942119 0 0 -1 0 0 0 -1 forward_v I I I I #
coedge $-1 $782 $593 $596 $783 forward $401 $-1 #
coedge $-1 $599 $403 $404 $587 reversed $253 $-1 #
coedge $-1 $593 $782 $403 $585 reversed $401 $-1 #
edge $-1 $600 -6.7149196618534139 $784 6.7149196618534139 $584 $785 forward 7 unknown #
coedge $-1 $405 $404 $782 $786 forward $161 $-1 #
edge $-1 $591 -49.474166081728569 $784 49.474166081728569 $583 $787 forward 7 unknown #
coedge $-1 $596 $595 $405 $589 reversed $580 $-1 #
edge $-1 $788 -49.474166081728569 $590 49.474166081728569 $588 $789 forward 7 unknown #
vertex $-1 $407 $790 #
vertex $-1 $602 $791 #
straight-curve $-1 49.474166081728569 0 -6.7149196618534139 0 -1 0 I I #
coedge $-1 $582 $584 $408 $594 reversed $401 $-1 #
edge $-1 $597 -23.884908006942119 $600 23.884908006942119 $593 $792 forward 7 unknown #
coedge $-1 $588 $409 $414 $603 forward $580 $-1 #
coedge $-1 $409 $588 $582 $783 reversed $580 $-1 #
vertex $-1 $410 $793 #
straight-curve $-1 0 23.884908006942119 6.7149196618534139 -1 0 0 I I #
coedge $-1 $411 $583 $413 $602 reversed $253 $-1 #
vertex $-1 $594 $794 #
straight-curve $-1 0 -23.884908006942119 6.7149196618534139 1 0 0 I I #
edge $-1 $416 -6.7149196618534139 $591 6.7149196618534139 $413 $795 forward 7 unknown #
edge $-1 $417 -6.7149196618534139 $590 6.7149196618534139 $414 $796 forward 7 unknown #
point $-1 49.474166081728569 -23.884908006942119 6.7149196618534139 #
point $-1 49.474166081728569 23.884908006942119 6.7149196618534139 #
face $-1 $-1 $615 $61 $-1 $797 reversed single #
loop $-1 $-1 $612 $419 #
plane-surface $-1 0 0 6.7149196618534139 0 0 1 1 0 0 forward_v I I I I #
coedge $-1 $798 $799 $426 $618 forward $420 $-1 #
coedge $-1 $422 $622 $800 $801 reversed $261 $-1 #
edge $-1 $802 -4.3646363014029195 $432 -0.33593041949806812 $422 $803 forward 7 unknown #
coedge $-1 $800 $804 $423 $613 forward $607 $-1 #
edge $-1 $616 -23.884908006942119 $802 23.884908006942119 $612 $805 forward 7 unknown #
coedge $-1 $619 $424 $804 $806 reversed $615 $-1 #
loop $-1 $-1 $424 $606 #
vertex $-1 $425 $807 #
straight-curve $-1 -44.926542225356968 -23.884908006942119 2.350283360450494 0 0 1 I I #
edge $-1 $623 -23.884908006942119 $620 23.884908006942119 $609 $808 forward 7 unknown #
coedge $-1 $427 $614 $798 $809 forward $615 $-1 #
vertex $-1 $618 $810 #
straight-curve $-1 -23.600177076771384 -23.884908006942119 2.6862137799485621 1 0 0 I I #
coedge $-1 $610 $429 $799 $811 reversed $261 $-1 #
vertex $-1 $618 $812 #
straight-curve $-1 -23.600177076771384 23.884908006942119 2.6862137799485621 -1 0 0 I I #
point $-1 -44.926542225356968 23.884908006942119 2.6862137799485621 #
point $-1 -44.926542225356968 -23.884908006942119 2.6862137799485621 #
plane-surface $-1 0 0 6.7149196618534139 0 0 1 1 0 0 forward_v I I I I #
coedge $-1 $638 $637 $630 $813 forward $436 $-1 #
coedge $-1 $630 $438 $440 $634 reversed $269 $-1 #
coedge $-1 $438 $629 $628 $813 reversed $269 $-1 #
coedge $-1 $446 $441 $438 $632 forward $447 $-1 #
edge $-1 $635 -21.198326702825913 $814 -15.72314893412571 $631 $815 forward 7 unknown #
coedge $-1 $440 $439 $638 $816 reversed $169 $-1 #
edge $-1 $817 1.7244626260799089e-014 $635 6.6042577349066942 $629 $818 forward 7 unknown #
vertex $-1 $442 $819 #
straight-curve $-1 -2.9762176571632359 -18.409730238241913 6.7149196618534139 -1 0 0 I I #
coedge $-1 $628 $443 $446 $642 reversed $436 $-1 #
coedge $-1 $443 $628 $633 $816 forward $436 $-1 #
vertex $-1 $444 $820 #
straight-curve $-1 0.12410431277716327 -23.884908006942119 42.526875087956434 0 0 1 I I #
straight-curve $-1 0.12410431277716327 -23.884908006942133 3.0218655558043537 0 -0.82903756765294845 -0.55919291073839883 I I #
edge $-1 $814 -12.028974941430107 $448 0.12410431277716327 $637 $821 forward 7 unknown #
point $-1 0.12410431277716327 -23.884908006942119 6.7149196618534139 #
point $-1 0.12410431277716327 -18.409730238241917 6.7149196618534139 #
edge $-1 $822 1 $822 0 $451 $-1 forward 7 unknown #
vertex $-1 $452 $823 #
ellipse-curve $-1 -8.5566665830851747 -19.842387761173143 2.9337523423845067 0 -0.55919291073839883 0.82903756765294845 1 0 0 1 I I #
point $-1 -7.5566665830851747 -21.147319122592002 4.8683926088288771 #
edge $-1 $824 1 $824 0 $455 $-1 forward 7 unknown #
vertex $-1 $456 $825 #
ellipse-curve $-1 -3.3482040455677691 -19.842387761173143 2.9337523423845067 0 -0.55919291073839883 0.82903756765294845 1 0 0 1 I I #
point $-1 -2.3482040455677691 -21.147319122592002 4.8683926088288771 #
plane-surface $-1 0 0 6.7149196618534139 0 0 1 1 0 0 forward_v I I I I #
coedge $-1 $664 $663 $656 $826 forward $460 $-1 #
coedge $-1 $656 $462 $464 $660 reversed $291 $-1 #
coedge $-1 $462 $655 $654 $826 reversed $291 $-1 #
coedge $-1 $470 $465 $462 $658 forward $471 $-1 #
edge $-1 $661 -21.198326702825913 $827 -15.72314893412571 $657 $828 forward 7 unknown #
coedge $-1 $464 $463 $664 $829 reversed $183 $-1 #
edge $-1 $830 1.7244626260799089e-014 $661 6.6042577349066942 $655 $831 forward 7 unknown #
vertex $-1 $466 $832 #
straight-curve $-1 5.2500295853490364 -18.409730238241913 6.7149196618534139 -1 0 0 I I #
coedge $-1 $654 $467 $470 $668 reversed $460 $-1 #
coedge $-1 $467 $654 $659 $829 forward $460 $-1 #
vertex $-1 $468 $833 #
straight-curve $-1 16.576598797801708 -23.884908006942119 42.526875087956434 0 0 1 I I #
straight-curve $-1 16.576598797801708 -23.884908006942133 3.0218655558043537 0 -0.82903756765294845 -0.55919291073839883 I I #
edge $-1 $827 4.4235195435944377 $472 16.576598797801708 $663 $834 forward 7 unknown #
point $-1 16.576598797801708 -23.884908006942119 6.7149196618534139 #
point $-1 16.576598797801708 -18.409730238241917 6.7149196618534139 #
edge $-1 $835 1 $835 0 $475 $-1 forward 7 unknown #
vertex $-1 $476 $836 #
ellipse-curve $-1 7.89582790193937 -19.842387761173143 2.9337523423845067 0 -0.55919291073839883 0.82903756765294845 1 0 0 1 I I #
point $-1 8.89582790193937 -21.147319122592002 4.8683926088288771 #
edge $-1 $837 1 $837 0 $479 $-1 forward 7 unknown #
vertex $-1 $480 $838 #
ellipse-curve $-1 13.104290439456776 -19.842387761173143 2.9337523423845067 0 -0.55919291073839883 0.82903756765294845 1 0 0 1 I I #
point $-1 14.104290439456776 -21.147319122592002 4.8683926088288771 #
plane-surface $-1 0 23.884908006942119 0 0 -1 0 0 0 -1 forward_v I I I I #
coedge $-1 $839 $840 $488 $684 forward $484 $-1 #
coedge $-1 $486 $688 $839 $841 forward $313 $-1 #
coedge $-1 $488 $487 $486 $683 reversed $197 $-1 #
edge $-1 $842 -26.135174026095704 $689 -11.447562372426823 $486 $843 forward 7 unknown #
edge $-1 $686 -31.884539658279621 $842 -27.244026275031487 $680 $844 forward 7 unknown #
coedge $-1 $494 $489 $840 $845 forward $495 $-1 #
vertex $-1 $845 $846 #
straight-curve $-1 -18.791368199261264 23.884908006942119 3.0581451752932516 -1 0 0 I I #
coedge $-1 $681 $491 $494 $692 forward $313 $-1 #
vertex $-1 $492 $847 #
straight-curve $-1 -30.238930571688087 36.223611860754929 6.7149196618534148 0 1 0 I I #
straight-curve $-1 -30.238930571688087 -5.5251268915048826 40.701274286360523 0 -0.61566146476048833 0.78801076186113728 I I #
edge $-1 $496 30.238930571688087 $848 44.926542225356968 $494 $849 forward 7 unknown #
point $-1 -30.238930571688087 23.884908006942119 6.7149196618534139 #
point $-1 -30.238930571688087 23.884908006942119 3.058145175293248 #
edge $-1 $850 1 $850 0 $499 $-1 forward 7 unknown #
vertex $-1 $500 $851 #
ellipse-curve $-1 -40.730081752880146 21.064909141755372 3.7993686305170833 0 0.78801076186113728 0.61566146476048833 0.5 0 0 1 I I #
point $-1 -40.230081752880146 22.456415373556521 4.8865324185733279 #
edge $-1 $852 1 $852 0 $503 $-1 forward 7 unknown #
vertex $-1 $504 $853 #
ellipse-curve $-1 -34.435391044164916 21.064909141755372 3.7993686305170833 0 0.78801076186113728 0.61566146476048833 0.5 0 0 1 I I #
point $-1 -33.935391044164916 22.456415373556521 4.8865324185733279 #
plane-surface $-1 0 23.884908006942119 0 0 -1 0 0 0 -1 forward_v I I I I #
coedge $-1 $714 $713 $706 $854 forward $508 $-1 #
coedge $-1 $706 $510 $512 $710 reversed $335 $-1 #
coedge $-1 $510 $705 $704 $854 reversed $335 $-1 #
coedge $-1 $518 $513 $510 $708 forward $519 $-1 #
edge $-1 $711 -47.751829525567693 $855 -44.095055039007526 $707 $856 forward 7 unknown #
coedge $-1 $512 $511 $714 $857 reversed $211 $-1 #
edge $-1 $858 43.129302630636104 $711 47.769816013884238 $705 $859 forward 7 unknown #
vertex $-1 $514 $860 #
straight-curve $-1 -6.9912796608755734 23.884908006942119 3.0581451752932516 -1 0 0 I I #
coedge $-1 $704 $515 $518 $718 forward $508 $-1 #
coedge $-1 $515 $704 $709 $857 forward $508 $-1 #
vertex $-1 $516 $861 #
straight-curve $-1 -6.638753494916708 36.223611860754929 6.7149196618534148 0 1 0 I I #
straight-curve $-1 -6.638753494916708 -5.5251268915048826 40.701274286360523 0 -0.61566146476048833 0.78801076186113728 I I #
edge $-1 $520 6.638753494916708 $855 21.326365148585587 $518 $862 forward 7 unknown #
point $-1 -6.638753494916708 23.884908006942119 6.7149196618534139 #
point $-1 -6.638753494916708 23.884908006942119 3.058145175293248 #
edge $-1 $863 1 $863 0 $523 $-1 forward 7 unknown #
vertex $-1 $524 $864 #
ellipse-curve $-1 -17.129904676108765 21.064909141755372 3.7993686305170833 0 0.78801076186113728 0.61566146476048833 0.5 0 0 1 I I #
point $-1 -16.629904676108765 22.456415373556521 4.8865324185733279 #
edge $-1 $865 1 $865 0 $527 $-1 forward 7 unknown #
vertex $-1 $528 $866 #
ellipse-curve $-1 -10.835213967393528 21.064909141755372 3.7993686305170833 0 0.78801076186113728 0.61566146476048833 0.5 0 0 1 I I #
point $-1 -10.335213967393528 22.456415373556521 4.8865324185733279 #
plane-surface $-1 0 23.884908006942119 0 0 -1 0 0 0 -1 forward_v I I I I #
coedge $-1 $740 $739 $732 $867 forward $532 $-1 #
coedge $-1 $732 $534 $536 $736 reversed $357 $-1 #
coedge $-1 $534 $731 $730 $867 reversed $357 $-1 #
coedge $-1 $542 $537 $534 $734 forward $543 $-1 #
edge $-1 $737 -47.751829525567693 $868 -44.095055039007526 $733 $869 forward 7 unknown #
coedge $-1 $536 $535 $740 $870 reversed $225 $-1 #
edge $-1 $871 43.129302630636104 $737 47.769816013884238 $731 $872 forward 7 unknown #
vertex $-1 $538 $873 #
straight-curve $-1 4.808808877510117 23.884908006942119 3.0581451752932516 -1 0 0 I I #
coedge $-1 $730 $539 $542 $744 forward $532 $-1 #
coedge $-1 $539 $730 $735 $870 forward $532 $-1 #
vertex $-1 $540 $874 #
straight-curve $-1 16.961423581854675 36.223611860754929 6.7149196618534148 0 1 0 I I #
straight-curve $-1 16.961423581854675 -5.5251268915048826 40.701274286360523 0 -0.61566146476048833 0.78801076186113728 I I #
edge $-1 $544 -16.961423581854675 $868 -2.2738119281857951 $542 $875 forward 7 unknown #
point $-1 16.961423581854675 23.884908006942119 6.7149196618534139 #
point $-1 16.961423581854675 23.884908006942119 3.058145175293248 #
edge $-1 $876 1 $876 0 $547 $-1 forward 7 unknown #
vertex $-1 $548 $877 #
ellipse-curve $-1 6.4702724006626227 21.064909141755372 3.7993686305170833 0 0.78801076186113728 0.61566146476048833 0.5 0 0 1 I I #
point $-1 6.9702724006626227 22.456415373556521 4.8865324185733279 #
edge $-1 $878 1 $878 0 $551 $-1 forward 7 unknown #
vertex $-1 $552 $879 #
ellipse-curve $-1 12.764963109377859 21.064909141755372 3.7993686305170833 0 0.78801076186113728 0.61566146476048833 0.5 0 0 1 I I #
point $-1 13.264963109377859 22.456415373556521 4.8865324185733279 #
plane-surface $-1 0 23.884908006942119 0 0 -1 0 0 0 -1 forward_v I I I I #
coedge $-1 $766 $765 $758 $880 forward $556 $-1 #
coedge $-1 $758 $558 $560 $762 reversed $379 $-1 #
coedge $-1 $558 $757 $756 $880 reversed $379 $-1 #
coedge $-1 $566 $561 $558 $760 forward $567 $-1 #
edge $-1 $763 -47.751829525567693 $881 -44.095055039007526 $759 $882 forward 7 unknown #
coedge $-1 $560 $559 $766 $883 reversed $239 $-1 #
edge $-1 $884 43.129302630636104 $763 47.769816013884238 $757 $885 forward 7 unknown #
vertex $-1 $562 $886 #
straight-curve $-1 16.608897415895811 23.884908006942119 3.0581451752932516 -1 0 0 I I #
coedge $-1 $756 $563 $566 $770 forward $556 $-1 #
coedge $-1 $563 $756 $761 $883 forward $556 $-1 #
vertex $-1 $564 $887 #
straight-curve $-1 40.561600658626062 36.223611860754929 6.7149196618534148 0 1 0 I I #
straight-curve $-1 40.561600658626062 -5.5251268915048826 40.701274286360523 0 -0.61566146476048833 0.78801076186113728 I I #
edge $-1 $568 -40.561600658626062 $881 -25.873989004957181 $566 $888 forward 7 unknown #
point $-1 40.561600658626062 23.884908006942119 6.7149196618534139 #
point $-1 40.561600658626062 23.884908006942119 3.058145175293248 #
edge $-1 $889 1 $889 0 $571 $-1 forward 7 unknown #
vertex $-1 $572 $890 #
ellipse-curve $-1 30.070449477434011 21.064909141755372 3.7993686305170833 0 0.78801076186113728 0.61566146476048833 0.5 0 0 1 I I #
point $-1 30.570449477434011 22.456415373556521 4.8865324185733279 #
edge $-1 $891 1 $891 0 $575 $-1 forward 7 unknown #
vertex $-1 $576 $892 #
ellipse-curve $-1 36.365140186149247 21.064909141755372 3.7993686305170833 0 0.78801076186113728 0.61566146476048833 0.5 0 0 1 I I #
point $-1 36.865140186149247 22.456415373556521 4.8865324185733279 #
plane-surface $-1 49.474166081728569 0 0 -1 0 0 0 0 1 forward_v I I I I #
coedge $-1 $584 $582 $586 $786 reversed $401 $-1 #
edge $-1 $597 -6.7149196618534139 $788 6.7149196618534139 $596 $893 forward 7 unknown #
vertex $-1 $786 $894 #
straight-curve $-1 -49.474166081728569 -23.884908006942119 0 0 0 -1 I I #
edge $-1 $784 -23.884908006942119 $788 23.884908006942119 $782 $895 forward 7 unknown #
straight-curve $-1 0 -23.884908006942119 -6.7149196618534139 -1 0 0 I I #
vertex $-1 $589 $896 #
straight-curve $-1 0 23.884908006942119 -6.7149196618534139 1 0 0 I I #
point $-1 49.474166081728569 23.884908006942119 -6.7149196618534139 #
point $-1 49.474166081728569 -23.884908006942119 -6.7149196618534139 #
straight-curve $-1 -49.474166081728569 0 6.7149196618534139 0 -1 0 I I #
point $-1 -49.474166081728569 23.884908006942119 6.7149196618534139 #
point $-1 -49.474166081728569 -23.884908006942119 6.7149196618534139 #
straight-curve $-1 49.474166081728569 -23.884908006942119 0 0 0 -1 I I #
straight-curve $-1 49.474166081728569 23.884908006942119 0 0 0 -1 I I #
plane-surface $-1 0 -23.884908006942119 0 0 1 0 0 0 1 forward_v I I I I #
coedge $-1 $897 $609 $619 $809 reversed $420 $-1 #
coedge $-1 $609 $897 $622 $811 forward $420 $-1 #
coedge $-1 $898 $612 $610 $801 forward $607 $-1 #
edge $-1 $802 44.926542225356968 $899 49.474166081728569 $610 $900 forward 7 unknown #
vertex $-1 $801 $901 #
straight-curve $-1 -44.926542225356968 23.884908006942119 2.350283360450494 0 0 -1 I I #
coedge $-1 $612 $898 $614 $806 forward $607 $-1 #
straight-curve $-1 -44.926542225356968 0 6.7149196618534139 0 1 0 I I #
edge $-1 $902 -49.474166081728569 $616 -44.926542225356968 $614 $903 forward 7 unknown #
point $-1 -44.926542225356968 -23.884908006942119 6.7149196618534139 #
straight-curve $-1 -49.474166081728569 0 2.6862137799485621 0 -1 0 I I #
edge $-1 $902 -6.7149196618534139 $620 -2.6862137799485621 $798 $904 forward 7 unknown #
point $-1 -49.474166081728569 -23.884908006942119 2.6862137799485621 #
edge $-1 $899 -6.7149196618534139 $623 -2.6862137799485621 $622 $905 forward 7 unknown #
point $-1 -49.474166081728569 23.884908006942119 2.6862137799485621 #
edge $-1 $814 35.811955426103019 $817 39.505009532152073 $628 $906 forward 7 unknown #
vertex $-1 $642 $907 #
straight-curve $-1 -12.028974941430107 -39.608056941067829 6.7149196618534148 0 -1 0 I I #
edge $-1 $817 -9.0527572842668711 $639 3.1003219699403992 $638 $908 forward 7 unknown #
vertex $-1 $816 $909 #
straight-curve $-1 -12.028974941430107 -23.884908006942133 3.0218655558043537 0 0.82903756765294845 0.55919291073839883 I I #
point $-1 -12.028974941430107 -18.409730238241917 6.7149196618534139 #
point $-1 0.12410431277716327 -23.884908006942119 3.0218655558043634 #
straight-curve $-1 0 -23.884908006942119 6.7149196618534139 1 0 0 I I #
vertex $-1 $645 $910 #
point $-1 -7.5566665830851747 -19.842387761173143 2.9337523423845067 #
vertex $-1 $649 $911 #
point $-1 -2.3482040455677691 -19.842387761173143 2.9337523423845067 #
edge $-1 $827 35.811955426103019 $830 39.505009532152073 $654 $912 forward 7 unknown #
vertex $-1 $668 $913 #
straight-curve $-1 4.4235195435944377 -39.608056941067829 6.7149196618534148 0 -1 0 I I #
edge $-1 $830 -0.82651004175459875 $665 11.326569212452672 $664 $914 forward 7 unknown #
vertex $-1 $829 $915 #
straight-curve $-1 4.4235195435944377 -23.884908006942133 3.0218655558043537 0 0.82903756765294845 0.55919291073839883 I I #
point $-1 4.4235195435944377 -18.409730238241917 6.7149196618534139 #
point $-1 16.576598797801708 -23.884908006942119 3.0218655558043634 #
straight-curve $-1 0 -23.884908006942119 6.7149196618534139 1 0 0 I I #
vertex $-1 $671 $916 #
point $-1 8.89582790193937 -19.842387761173143 2.9337523423845067 #
vertex $-1 $675 $917 #
point $-1 14.104290439456776 -19.842387761173143 2.9337523423845067 #
coedge $-1 $840 $680 $681 $841 reversed $484 $-1 #
coedge $-1 $680 $839 $685 $845 reversed $484 $-1 #
edge $-1 $848 -23.884908006942119 $842 -21.027922740170926 $681 $918 forward 7 unknown #
vertex $-1 $684 $919 #
straight-curve $-1 -18.791368199261264 21.027922740170926 6.7149196618534148 1 0 0 I I #
straight-curve $-1 -44.926542225356968 4.2548256177118082 28.183505563005816 0 -0.61566146476048833 0.78801076186113728 I I #
edge $-1 $686 0.70786181484275223 $848 4.3646363014029195 $685 $920 forward 7 unknown #
point $-1 -44.926542225356968 23.884908006942119 3.0581451752932463 #
point $-1 -30.238930571688087 21.027922740170926 6.7149196618534148 #
vertex $-1 $841 $921 #
straight-curve $-1 0 23.884908006942119 6.7149196618534139 -1 0 0 I I #
vertex $-1 $695 $922 #
point $-1 -40.230081752880146 21.064909141755372 3.7993686305170833 #
vertex $-1 $699 $923 #
point $-1 -33.935391044164916 21.064909141755372 3.7993686305170833 #
edge $-1 $855 12.33870385381281 $858 15.195689120584003 $704 $924 forward 7 unknown #
vertex $-1 $708 $925 #
straight-curve $-1 -21.326365148585587 23.884908006942119 50.809974700860941 0 0 1 I I #
edge $-1 $858 -14.335085487710014 $715 0.35252616595886543 $714 $926 forward 7 unknown #
vertex $-1 $857 $927 #
straight-curve $-1 -21.326365148585587 -5.5251268915048826 40.701274286360523 0 0.61566146476048833 -0.78801076186113728 I I #
point $-1 -21.326365148585587 23.884908006942119 3.058145175293248 #
point $-1 -6.638753494916708 21.027922740170926 6.7149196618534148 #
straight-curve $-1 0 23.884908006942119 6.7149196618534139 -1 0 0 I I #
vertex $-1 $721 $928 #
point $-1 -16.629904676108765 21.064909141755372 3.7993686305170833 #
vertex $-1 $725 $929 #
point $-1 -10.335213967393528 21.064909141755372 3.7993686305170833 #
edge $-1 $868 12.33870385381281 $871 15.195689120584003 $730 $930 forward 7 unknown #
vertex $-1 $734 $931 #
straight-curve $-1 2.2738119281857951 23.884908006942119 50.809974700860941 0 0 1 I I #
edge $-1 $871 -2.5349969493243218 $741 12.152614704344558 $740 $932 forward 7 unknown #
vertex $-1 $870 $933 #
straight-curve $-1 2.2738119281857951 -5.5251268915048826 40.701274286360523 0 0.61566146476048833 -0.78801076186113728 I I #
point $-1 2.2738119281857951 23.884908006942119 3.058145175293248 #
point $-1 16.961423581854675 21.027922740170926 6.7149196618534148 #
straight-curve $-1 0 23.884908006942119 6.7149196618534139 -1 0 0 I I #
vertex $-1 $747 $934 #
point $-1 6.9702724006626227 21.064909141755372 3.7993686305170833 #
vertex $-1 $751 $935 #
point $-1 13.264963109377859 21.064909141755372 3.7993686305170833 #
edge $-1 $881 12.33870385381281 $884 15.195689120584003 $756 $936 forward 7 unknown #
vertex $-1 $760 $937 #
straight-curve $-1 25.873989004957181 23.884908006942119 50.809974700860941 0 0 1 I I #
edge $-1 $884 9.2650915890613703 $767 23.952703242730252 $766 $938 forward 7 unknown #
vertex $-1 $883 $939 #
straight-curve $-1 25.873989004957181 -5.5251268915048826 40.701274286360523 0 0.61566146476048833 -0.78801076186113728 I I #
point $-1 25.873989004957181 23.884908006942119 3.058145175293248 #
point $-1 40.561600658626062 21.027922740170926 6.7149196618534148 #
straight-curve $-1 0 23.884908006942119 6.7149196618534139 -1 0 0 I I #
vertex $-1 $773 $940 #
point $-1 30.570449477434011 21.064909141755372 3.7993686305170833 #
vertex $-1 $777 $941 #
point $-1 36.865140186149247 21.064909141755372 3.7993686305170833 #
straight-curve $-1 -49.474166081728569 23.884908006942119 0 0 0 -1 I I #
point $-1 -49.474166081728569 -23.884908006942119 -6.7149196618534139 #
straight-curve $-1 -49.474166081728569 0 -6.7149196618534139 0 1 0 I I #
point $-1 -49.474166081728569 23.884908006942119 -6.7149196618534139 #
coedge $-1 $799 $798 $898 $942 reversed $420 $-1 #
coedge $-1 $804 $800 $897 $942 forward $607 $-1 #
vertex $-1 $801 $943 #
straight-curve $-1 0 23.884908006942119 6.7149196618534139 -1 0 0 I I #
point $-1 -44.926542225356968 23.884908006942119 6.7149196618534139 #
vertex $-1 $942 $944 #
straight-curve $-1 0 -23.884908006942119 6.7149196618534139 1 0 0 I I #
straight-curve $-1 -49.474166081728569 -23.884908006942119 0 0 0 -1 I I #
straight-curve $-1 -49.474166081728569 23.884908006942119 0 0 0 -1 I I #
straight-curve $-1 -12.028974941430107 -23.884908006942119 42.526875087956434 0 0 -1 I I #
point $-1 -12.028974941430107 -23.884908006942119 6.7149196618534139 #
straight-curve $-1 -2.9762176571632359 -23.884908006942119 3.0218655558043621 1 0 0 I I #
point $-1 -12.028974941430107 -23.884908006942119 3.0218655558043634 #
point $-1 -8.5566665830851747 -19.283194850434747 2.1047147747315584 #
point $-1 -3.3482040455677691 -19.283194850434747 2.1047147747315584 #
straight-curve $-1 4.4235195435944377 -23.884908006942119 42.526875087956434 0 0 -1 I I #
point $-1 4.4235195435944377 -23.884908006942119 6.7149196618534139 #
straight-curve $-1 5.2500295853490364 -23.884908006942119 3.0218655558043621 1 0 0 I I #
point $-1 4.4235195435944377 -23.884908006942119 3.0218655558043634 #
point $-1 7.89582790193937 -19.283194850434747 2.1047147747315584 #
point $-1 13.104290439456776 -19.283194850434747 2.1047147747315584 #
straight-curve $-1 -44.926542225356968 0 6.7149196618534139 0 -1 0 I I #
point $-1 -44.926542225356968 21.027922740170926 6.7149196618534148 #
straight-curve $-1 -44.926542225356968 23.884908006942119 2.350283360450494 0 0 1 I I #
point $-1 -44.926542225356968 23.884908006942119 6.7149196618534139 #
point $-1 -40.730081752880146 20.670903760824807 3.4915378981368388 #
point $-1 -34.435391044164916 20.670903760824807 3.4915378981368388 #
straight-curve $-1 -21.326365148585587 36.223611860754929 6.7149196618534148 0 -1 0 I I #
point $-1 -21.326365148585587 23.884908006942119 6.7149196618534139 #
straight-curve $-1 -6.9912796608755734 21.027922740170926 6.7149196618534148 1 0 0 I I #
point $-1 -21.326365148585587 21.027922740170926 6.7149196618534148 #
point $-1 -17.129904676108765 20.670903760824807 3.4915378981368388 #
point $-1 -10.835213967393528 20.670903760824807 3.4915378981368388 #
straight-curve $-1 2.2738119281857951 36.223611860754929 6.7149196618534148 0 -1 0 I I #
point $-1 2.2738119281857951 23.884908006942119 6.7149196618534139 #
straight-curve $-1 4.808808877510117 21.027922740170926 6.7149196618534148 1 0 0 I I #
point $-1 2.2738119281857951 21.027922740170926 6.7149196618534148 #
point $-1 6.4702724006626227 20.670903760824807 3.4915378981368388 #
point $-1 12.764963109377859 20.670903760824807 3.4915378981368388 #
straight-curve $-1 25.873989004957181 36.223611860754929 6.7149196618534148 0 -1 0 I I #
point $-1 25.873989004957181 23.884908006942119 6.7149196618534139 #
straight-curve $-1 16.608897415895811 21.027922740170926 6.7149196618534148 1 0 0 I I #
point $-1 25.873989004957181 21.027922740170926 6.7149196618534148 #
point $-1 30.070449477434011 20.670903760824807 3.4915378981368388 #
point $-1 36.365140186149247 20.670903760824807 3.4915378981368388 #
edge $-1 $899 -23.884908006942119 $902 23.884908006942119 $897 $945 forward 7 unknown #
point $-1 -49.474166081728569 23.884908006942119 6.7149196618534139 #
point $-1 -49.474166081728569 -23.884908006942119 6.7149196618534139 #
straight-curve $-1 -49.474166081728569 0 6.7149196618534139 0 -1 0 I I #
End-of-ACIS-data 