500 0 16 0           
7 Unknown 11 ACIS 5.0 NT 24 Fri Mar 26 19:58:48 1999 
-1 9.9999999999999995e-007 1e-010 
body $-1 $16 $-1 $17 #
body $-1 $18 $-1 $19 #
body $-1 $20 $-1 $21 #
body $-1 $22 $-1 $23 #
body $-1 $24 $-1 $25 #
body $-1 $26 $-1 $27 #
body $-1 $28 $-1 $29 #
body $-1 $30 $-1 $31 #
body $-1 $32 $-1 $33 #
body $-1 $34 $-1 $35 #
body $-1 $36 $-1 $37 #
body $-1 $38 $-1 $39 #
body $-1 $40 $-1 $41 #
body $-1 $42 $-1 $43 #
body $-1 $44 $-1 $45 #
body $-1 $46 $-1 $47 #
lump $-1 $-1 $48 $0 #
transform $-1 1 0 0 0 1 0 0 0 1 61.957457197790461 41.203874058915723 11.73594275351587 1 rotate no_reflect no_shear #
lump $-1 $-1 $49 $1 #
transform $-1 1 0 0 0 1 0 0 0 1 2.5874804295243599 -5.5026374637527393 11.73594275351587 1 rotate no_reflect no_shear #
lump $-1 $-1 $50 $2 #
transform $-1 0.70710677298230451 0 0.70710678939079041 0 1 0 -0.70710678939079041 0 0.70710677298230451 -87.621077275893867 29.694495478334566 106.64101384468438 1 rotate no_reflect no_shear #
lump $-1 $-1 $51 $3 #
transform $-1 0.70710677298230451 0 0.70710678939079041 0 -1 0 0.70710678939079041 0 -0.70710677298230451 3.109856887577104 27.046565692354019 20.362028588311297 1 rotate no_reflect no_shear #
lump $-1 $-1 $52 $4 #
transform $-1 0.70710677298230451 0 0.70710678939079041 0 -1 0 0.70710678939079041 0 -0.70710677298230451 3.109856887577104 32.342425264315111 20.362028588311297 1 rotate no_reflect no_shear #
lump $-1 $-1 $53 $5 #
transform $-1 0.70710677298230451 0 0.70710678939079041 0 1 0 -0.70710678939079041 0 0.70710677298230451 -87.621077275893867 65.395732073497555 106.64101384468438 1 rotate no_reflect no_shear #
lump $-1 $-1 $54 $6 #
transform $-1 0.70710677298230451 0 0.70710678939079041 0 -1 0 0.70710678939079041 0 -0.70710677298230451 3.109856887577104 62.747802287517004 20.362028588311297 1 rotate no_reflect no_shear #
lump $-1 $-1 $55 $7 #
transform $-1 0.70710677298230451 0 0.70710678939079041 0 -1 0 0.70710678939079041 0 -0.70710677298230451 3.109856887577104 68.043661859478092 20.362028588311297 1 rotate no_reflect no_shear #
lump $-1 $-1 $56 $8 #
transform $-1 0.84804809178421925 0 -0.52991927123019833 0 1 0 0.52991927123019833 0 0.84804809178421925 84.494008829862281 32.849841616101678 189.51656905190774 1 rotate no_reflect no_shear #
lump $-1 $-1 $57 $9 #
transform $-1 0.84804809178421925 0 -0.52991927123019833 0 -1 0 -0.52991927123019833 0 -0.84804809178421925 117.97232409341555 29.050564110316429 17.634971094754597 1 rotate no_reflect no_shear #
lump $-1 $-1 $58 $10 #
transform $-1 0.84804809178421925 0 -0.52991927123019833 0 -1 0 -0.52991927123019833 0 -0.84804809178421925 117.97232409341555 32.849841616101678 17.634971094754597 1 rotate no_reflect no_shear #
lump $-1 $-1 $59 $11 #
transform $-1 0.84804809178421925 0 -0.52991927123019833 0 -1 0 -0.52991927123019833 0 -0.84804809178421925 117.97232409341555 36.649119121886926 17.634971094754597 1 rotate no_reflect no_shear #
lump $-1 $-1 $60 $12 #
transform $-1 0.84804809178421925 0 -0.52991927123019833 0 1 0 0.52991927123019833 0 0.84804809178421925 84.494008829862281 68.551078211264667 189.51656905190774 1 rotate no_reflect no_shear #
lump $-1 $-1 $61 $13 #
transform $-1 0.84804809178421925 0 -0.52991927123019833 0 -1 0 -0.52991927123019833 0 -0.84804809178421925 117.97232409341555 64.751800705479411 17.634971094754597 1 rotate no_reflect no_shear #
lump $-1 $-1 $62 $14 #
transform $-1 0.84804809178421925 0 -0.52991927123019833 0 -1 0 -0.52991927123019833 0 -0.84804809178421925 117.97232409341555 68.551078211264667 17.634971094754597 1 rotate no_reflect no_shear #
lump $-1 $-1 $63 $15 #
transform $-1 0.84804809178421925 0 -0.52991927123019833 0 -1 0 -0.52991927123019833 0 -0.84804809178421925 117.97232409341555 72.350355717049908 17.634971094754597 1 rotate no_reflect no_shear #
shell $-1 $-1 $-1 $64 $-1 $16 #
shell $-1 $-1 $-1 $65 $-1 $18 #
shell $-1 $-1 $-1 $66 $-1 $20 #
shell $-1 $-1 $-1 $67 $-1 $22 #
shell $-1 $-1 $-1 $68 $-1 $24 #
shell $-1 $-1 $-1 $69 $-1 $26 #
shell $-1 $-1 $-1 $70 $-1 $28 #
shell $-1 $-1 $-1 $71 $-1 $30 #
shell $-1 $-1 $-1 $72 $-1 $32 #
shell $-1 $-1 $-1 $73 $-1 $34 #
shell $-1 $-1 $-1 $74 $-1 $36 #
shell $-1 $-1 $-1 $75 $-1 $38 #
shell $-1 $-1 $-1 $76 $-1 $40 #
shell $-1 $-1 $-1 $77 $-1 $42 #
shell $-1 $-1 $-1 $78 $-1 $44 #
shell $-1 $-1 $-1 $79 $-1 $46 #
face $-1 $80 $81 $48 $-1 $82 forward single #
face $-1 $83 $84 $49 $-1 $85 forward single #
face $-1 $86 $87 $50 $-1 $88 forward single #
face $-1 $89 $90 $51 $-1 $91 forward single #
face $-1 $92 $93 $52 $-1 $94 forward single #
face $-1 $95 $96 $53 $-1 $97 forward single #
face $-1 $98 $99 $54 $-1 $100 forward single #
face $-1 $101 $102 $55 $-1 $103 forward single #
face $-1 $104 $105 $56 $-1 $106 forward single #
face $-1 $107 $108 $57 $-1 $109 forward single #
face $-1 $110 $111 $58 $-1 $112 forward single #
face $-1 $113 $114 $59 $-1 $115 forward single #
face $-1 $116 $117 $60 $-1 $118 forward single #
face $-1 $119 $120 $61 $-1 $121 forward single #
face $-1 $122 $123 $62 $-1 $124 forward single #
face $-1 $125 $126 $63 $-1 $127 forward single #
face $-1 $128 $129 $48 $-1 $130 reversed single #
loop $-1 $-1 $131 $64 #
plane-surface $-1 0 0 11.73594275351587 0 0 1 1 0 0 forward_v I I I I #
face $-1 $132 $133 $49 $-1 $134 reversed single #
loop $-1 $-1 $135 $65 #
plane-surface $-1 0 0 11.73594275351587 0 0 1 1 0 0 forward_v I I I I #
face $-1 $136 $137 $50 $-1 $138 reversed single #
loop $-1 $-1 $139 $66 #
plane-surface $-1 0 0 123.91491439558094 0 0 1 1 0 0 forward_v I I I I #
face $-1 $140 $141 $51 $-1 $142 forward single #
loop $-1 $143 $144 $67 #
cone-surface $-1 0 0 -0.75 0 0 1 0.5 0 0 1 I I 0 1 0.5 forward I I I I #
face $-1 $145 $146 $52 $-1 $147 forward single #
loop $-1 $148 $149 $68 #
cone-surface $-1 0 0 -0.75 0 0 1 0.5 0 0 1 I I 0 1 0.5 forward I I I I #
face $-1 $150 $151 $53 $-1 $152 reversed single #
loop $-1 $-1 $153 $69 #
plane-surface $-1 0 0 123.91491439558094 0 0 1 1 0 0 forward_v I I I I #
face $-1 $154 $155 $54 $-1 $156 forward single #
loop $-1 $157 $158 $70 #
cone-surface $-1 0 0 -0.75 0 0 1 0.5 0 0 1 I I 0 1 0.5 forward I I I I #
face $-1 $159 $160 $55 $-1 $161 forward single #
loop $-1 $162 $163 $71 #
cone-surface $-1 0 0 -0.75 0 0 1 0.5 0 0 1 I I 0 1 0.5 forward I I I I #
face $-1 $164 $165 $56 $-1 $166 reversed single #
loop $-1 $-1 $167 $72 #
plane-surface $-1 0 0 123.91491439558091 0 0 1 1 0 0 forward_v I I I I #
face $-1 $168 $169 $57 $-1 $170 forward single #
loop $-1 $171 $172 $73 #
cone-surface $-1 0 0 -2.3040711691640965 0 0 1 1 0 0 1 I I 0 1 1 forward I I I I #
face $-1 $173 $174 $58 $-1 $175 forward single #
loop $-1 $176 $177 $74 #
cone-surface $-1 0 0 -2.3040711691640965 0 0 1 1 0 0 1 I I 0 1 1 forward I I I I #
face $-1 $178 $179 $59 $-1 $180 forward single #
loop $-1 $181 $182 $75 #
cone-surface $-1 0 0 -2.3040711691640965 0 0 1 1 0 0 1 I I 0 1 1 forward I I I I #
face $-1 $183 $184 $60 $-1 $185 reversed single #
loop $-1 $-1 $186 $76 #
plane-surface $-1 0 0 123.91491439558091 0 0 1 1 0 0 forward_v I I I I #
face $-1 $187 $188 $61 $-1 $189 forward single #
loop $-1 $190 $191 $77 #
cone-surface $-1 0 0 -2.3040711691640965 0 0 1 1 0 0 1 I I 0 1 1 forward I I I I #
face $-1 $192 $193 $62 $-1 $194 forward single #
loop $-1 $195 $196 $78 #
cone-surface $-1 0 0 -2.3040711691640965 0 0 1 1 0 0 1 I I 0 1 1 forward I I I I #
face $-1 $197 $198 $63 $-1 $199 forward single #
loop $-1 $200 $201 $79 #
cone-surface $-1 0 0 -2.3040711691640965 0 0 1 1 0 0 1 I I 0 1 1 forward I I I I #
face $-1 $202 $203 $48 $-1 $204 reversed single #
loop $-1 $-1 $205 $80 #
plane-surface $-1 0 0 -11.73594275351587 0 0 1 1 0 0 forward_v I I I I #
coedge $-1 $206 $207 $208 $209 forward $81 $-1 #
face $-1 $210 $211 $49 $-1 $212 reversed single #
loop $-1 $-1 $213 $83 #
plane-surface $-1 0 0 -11.73594275351587 0 0 1 1 0 0 forward_v I I I I #
coedge $-1 $214 $215 $216 $217 forward $84 $-1 #
face $-1 $218 $219 $50 $-1 $220 reversed single #
loop $-1 $-1 $221 $86 #
plane-surface $-1 0 0 -123.91491439558094 0 0 1 1 0 0 forward_v I I I I #
coedge $-1 $222 $223 $224 $225 forward $87 $-1 #
face $-1 $-1 $226 $51 $-1 $227 forward single #
loop $-1 $-1 $228 $89 #
plane-surface $-1 0 0 -1.25 0 0 -1 -1 0 0 forward_v I I I I #
loop $-1 $-1 $229 $67 #
coedge $-1 $144 $144 $228 $230 reversed $90 $-1 #
face $-1 $-1 $231 $52 $-1 $232 forward single #
loop $-1 $-1 $233 $92 #
plane-surface $-1 0 0 -1.25 0 0 -1 -1 0 0 forward_v I I I I #
loop $-1 $-1 $234 $68 #
coedge $-1 $149 $149 $233 $235 reversed $93 $-1 #
face $-1 $236 $237 $53 $-1 $238 reversed single #
loop $-1 $-1 $239 $95 #
plane-surface $-1 0 0 -123.91491439558094 0 0 1 1 0 0 forward_v I I I I #
coedge $-1 $240 $241 $242 $243 forward $96 $-1 #
face $-1 $-1 $244 $54 $-1 $245 forward single #
loop $-1 $-1 $246 $98 #
plane-surface $-1 0 0 -1.25 0 0 -1 -1 0 0 forward_v I I I I #
loop $-1 $-1 $247 $70 #
coedge $-1 $158 $158 $246 $248 reversed $99 $-1 #
face $-1 $-1 $249 $55 $-1 $250 forward single #
loop $-1 $-1 $251 $101 #
plane-surface $-1 0 0 -1.25 0 0 -1 -1 0 0 forward_v I I I I #
loop $-1 $-1 $252 $71 #
coedge $-1 $163 $163 $251 $253 reversed $102 $-1 #
face $-1 $254 $255 $56 $-1 $256 reversed single #
loop $-1 $-1 $257 $104 #
plane-surface $-1 0 0 -123.91491439558091 0 0 1 1 0 0 forward_v I I I I #
coedge $-1 $258 $259 $260 $261 forward $105 $-1 #
face $-1 $-1 $262 $57 $-1 $263 forward single #
loop $-1 $-1 $264 $107 #
plane-surface $-1 0 0 -4.1081423383281948 0 0 -1 -1 0 0 forward_v I I I I #
loop $-1 $-1 $265 $73 #
coedge $-1 $172 $172 $264 $266 reversed $108 $-1 #
face $-1 $-1 $267 $58 $-1 $268 forward single #
loop $-1 $-1 $269 $110 #
plane-surface $-1 0 0 -4.1081423383281948 0 0 -1 -1 0 0 forward_v I I I I #
loop $-1 $-1 $270 $74 #
coedge $-1 $177 $177 $269 $271 reversed $111 $-1 #
face $-1 $-1 $272 $59 $-1 $273 forward single #
loop $-1 $-1 $274 $113 #
plane-surface $-1 0 0 -4.1081423383281948 0 0 -1 -1 0 0 forward_v I I I I #
loop $-1 $-1 $275 $75 #
coedge $-1 $182 $182 $274 $276 reversed $114 $-1 #
face $-1 $277 $278 $60 $-1 $279 reversed single #
loop $-1 $-1 $280 $116 #
plane-surface $-1 0 0 -123.91491439558091 0 0 1 1 0 0 forward_v I I I I #
coedge $-1 $281 $282 $283 $284 forward $117 $-1 #
face $-1 $-1 $285 $61 $-1 $286 forward single #
loop $-1 $-1 $287 $119 #
plane-surface $-1 0 0 -4.1081423383281948 0 0 -1 -1 0 0 forward_v I I I I #
loop $-1 $-1 $288 $77 #
coedge $-1 $191 $191 $287 $289 reversed $120 $-1 #
face $-1 $-1 $290 $62 $-1 $291 forward single #
loop $-1 $-1 $292 $122 #
plane-surface $-1 0 0 -4.1081423383281948 0 0 -1 -1 0 0 forward_v I I I I #
loop $-1 $-1 $293 $78 #
coedge $-1 $196 $196 $292 $294 reversed $123 $-1 #
face $-1 $-1 $295 $63 $-1 $296 forward single #
loop $-1 $-1 $297 $125 #
plane-surface $-1 0 0 -4.1081423383281948 0 0 -1 -1 0 0 forward_v I I I I #
loop $-1 $-1 $298 $79 #
coedge $-1 $201 $201 $297 $299 reversed $126 $-1 #
face $-1 $300 $301 $48 $-1 $302 reversed single #
loop $-1 $-1 $303 $128 #
plane-surface $-1 0 -41.203874058915723 0 0 1 0 0 0 1 forward_v I I I I #
coedge $-1 $304 $305 $306 $307 forward $129 $-1 #
coedge $-1 $308 $131 $309 $310 forward $81 $-1 #
coedge $-1 $131 $308 $311 $312 forward $81 $-1 #
coedge $-1 $313 $314 $131 $209 reversed $315 $-1 #
edge $-1 $316 -41.203874058915723 $317 41.203874058915723 $208 $318 forward 7 unknown #
face $-1 $319 $320 $49 $-1 $321 reversed single #
loop $-1 $-1 $322 $132 #
plane-surface $-1 0 -5.5026374637527393 0 0 1 0 0 0 1 forward_v I I I I #
coedge $-1 $323 $324 $325 $326 forward $133 $-1 #
coedge $-1 $327 $135 $328 $329 forward $84 $-1 #
coedge $-1 $135 $327 $330 $331 forward $84 $-1 #
coedge $-1 $332 $333 $135 $217 reversed $334 $-1 #
edge $-1 $335 -5.5026374637527393 $336 5.5026374637527393 $216 $337 forward 7 unknown #
face $-1 $338 $339 $50 $-1 $340 reversed single #
loop $-1 $-1 $341 $136 #
plane-surface $-1 0 -6.1785028339546102 0 0 1 0 0 0 1 forward_v I I I I #
coedge $-1 $342 $343 $344 $345 forward $137 $-1 #
coedge $-1 $346 $139 $347 $348 forward $87 $-1 #
coedge $-1 $139 $346 $349 $350 forward $87 $-1 #
coedge $-1 $351 $352 $139 $225 reversed $353 $-1 #
edge $-1 $354 -6.1785028339546102 $355 6.1785028339546102 $224 $356 forward 7 unknown #
loop $-1 $357 $358 $140 #
cone-surface $-1 0 0 0 0 0 1 0.25 0 0 1 I I -0.70710678118654746 0.70710678118654746 0.25 forward I I I I #
coedge $-1 $228 $228 $144 $230 forward $141 $-1 #
coedge $-1 $229 $229 $358 $359 forward $143 $-1 #
edge $-1 $360 0 $360 6.2831853071796004 $228 $361 forward 7 unknown #
loop $-1 $362 $363 $145 #
cone-surface $-1 0 0 0 0 0 1 0.25 0 0 1 I I -0.70710678118654746 0.70710678118654746 0.25 forward I I I I #
coedge $-1 $233 $233 $149 $235 forward $146 $-1 #
coedge $-1 $234 $234 $363 $364 forward $148 $-1 #
edge $-1 $365 0 $365 6.2831853071796004 $233 $366 forward 7 unknown #
face $-1 $367 $368 $53 $-1 $369 reversed single #
loop $-1 $-1 $370 $150 #
plane-surface $-1 0 -6.1785028339546102 0 0 1 0 0 0 1 forward_v I I I I #
coedge $-1 $371 $372 $373 $374 forward $151 $-1 #
coedge $-1 $375 $153 $376 $377 forward $96 $-1 #
coedge $-1 $153 $375 $378 $379 forward $96 $-1 #
coedge $-1 $380 $381 $153 $243 reversed $382 $-1 #
edge $-1 $383 -6.1785028339546102 $384 6.1785028339546102 $242 $385 forward 7 unknown #
loop $-1 $386 $387 $154 #
cone-surface $-1 0 0 0 0 0 1 0.25 0 0 1 I I -0.70710678118654746 0.70710678118654746 0.25 forward I I I I #
coedge $-1 $246 $246 $158 $248 forward $155 $-1 #
coedge $-1 $247 $247 $387 $388 forward $157 $-1 #
edge $-1 $389 0 $389 6.2831853071796004 $246 $390 forward 7 unknown #
loop $-1 $391 $392 $159 #
cone-surface $-1 0 0 0 0 0 1 0.25 0 0 1 I I -0.70710678118654746 0.70710678118654746 0.25 forward I I I I #
coedge $-1 $251 $251 $163 $253 forward $160 $-1 #
coedge $-1 $252 $252 $392 $393 forward $162 $-1 #
edge $-1 $394 0 $394 6.2831853071796004 $251 $395 forward 7 unknown #
face $-1 $396 $397 $56 $-1 $398 reversed single #
loop $-1 $-1 $399 $164 #
plane-surface $-1 0 -6.3321291763087473 0 0 1 0 0 0 1 forward_v I I I I #
coedge $-1 $400 $401 $402 $403 forward $165 $-1 #
coedge $-1 $404 $167 $405 $406 forward $105 $-1 #
coedge $-1 $167 $404 $407 $408 forward $105 $-1 #
coedge $-1 $409 $410 $167 $261 reversed $411 $-1 #
edge $-1 $412 -6.3321291763087473 $413 6.3321291763087473 $260 $414 forward 7 unknown #
loop $-1 $415 $416 $168 #
cone-surface $-1 0 0 0 0 0 1 0.5 0 0 1 I I -0.70710678118654746 0.70710678118654746 0.5 forward I I I I #
coedge $-1 $264 $264 $172 $266 forward $169 $-1 #
coedge $-1 $265 $265 $416 $417 forward $171 $-1 #
edge $-1 $418 0 $418 6.2831853071796004 $264 $419 forward 7 unknown #
loop $-1 $420 $421 $173 #
cone-surface $-1 0 0 0 0 0 1 0.5 0 0 1 I I -0.70710678118654746 0.70710678118654746 0.5 forward I I I I #
coedge $-1 $269 $269 $177 $271 forward $174 $-1 #
coedge $-1 $270 $270 $421 $422 forward $176 $-1 #
edge $-1 $423 0 $423 6.2831853071796004 $269 $424 forward 7 unknown #
loop $-1 $425 $426 $178 #
cone-surface $-1 0 0 0 0 0 1 0.5 0 0 1 I I -0.70710678118654746 0.70710678118654746 0.5 forward I I I I #
coedge $-1 $274 $274 $182 $276 forward $179 $-1 #
coedge $-1 $275 $275 $426 $427 forward $181 $-1 #
edge $-1 $428 0 $428 6.2831853071796004 $274 $429 forward 7 unknown #
face $-1 $430 $431 $60 $-1 $432 reversed single #
loop $-1 $-1 $433 $183 #
plane-surface $-1 0 -6.3321291763087473 0 0 1 0 0 0 1 forward_v I I I I #
coedge $-1 $434 $435 $436 $437 forward $184 $-1 #
coedge $-1 $438 $186 $439 $440 forward $117 $-1 #
coedge $-1 $186 $438 $441 $442 forward $117 $-1 #
coedge $-1 $443 $444 $186 $284 reversed $445 $-1 #
edge $-1 $446 -6.3321291763087473 $447 6.3321291763087473 $283 $448 forward 7 unknown #
loop $-1 $449 $450 $187 #
cone-surface $-1 0 0 0 0 0 1 0.5 0 0 1 I I -0.70710678118654746 0.70710678118654746 0.5 forward I I I I #
coedge $-1 $287 $287 $191 $289 forward $188 $-1 #
coedge $-1 $288 $288 $450 $451 forward $190 $-1 #
edge $-1 $452 0 $452 6.2831853071796004 $287 $453 forward 7 unknown #
loop $-1 $454 $455 $192 #
cone-surface $-1 0 0 0 0 0 1 0.5 0 0 1 I I -0.70710678118654746 0.70710678118654746 0.5 forward I I I I #
coedge $-1 $292 $292 $196 $294 forward $193 $-1 #
coedge $-1 $293 $293 $455 $456 forward $195 $-1 #
edge $-1 $457 0 $457 6.2831853071796004 $292 $458 forward 7 unknown #
loop $-1 $459 $460 $197 #
cone-surface $-1 0 0 0 0 0 1 0.5 0 0 1 I I -0.70710678118654746 0.70710678118654746 0.5 forward I I I I #
coedge $-1 $297 $297 $201 $299 forward $198 $-1 #
coedge $-1 $298 $298 $460 $461 forward $200 $-1 #
edge $-1 $462 0 $462 6.2831853071796004 $297 $463 forward 7 unknown #
face $-1 $464 $465 $48 $-1 $466 reversed single #
loop $-1 $-1 $467 $202 #
plane-surface $-1 -61.957457197790461 0 0 1 0 0 0 0 -1 forward_v I I I I #
coedge $-1 $468 $311 $469 $470 forward $203 $-1 #
coedge $-1 $471 $205 $468 $472 forward $129 $-1 #
coedge $-1 $205 $471 $473 $474 forward $129 $-1 #
coedge $-1 $314 $313 $205 $307 reversed $315 $-1 #
edge $-1 $475 -41.203874058915723 $476 41.203874058915723 $306 $477 forward 7 unknown #
coedge $-1 $207 $206 $478 $479 forward $81 $-1 #
coedge $-1 $480 $481 $206 $310 reversed $465 $-1 #
edge $-1 $317 -61.957457197790461 $482 61.957457197790461 $309 $483 forward 7 unknown #
coedge $-1 $303 $484 $207 $312 reversed $203 $-1 #
edge $-1 $485 -61.957457197790461 $316 61.957457197790461 $311 $486 forward 7 unknown #
coedge $-1 $306 $208 $484 $487 forward $315 $-1 #
coedge $-1 $208 $306 $480 $488 reversed $315 $-1 #
loop $-1 $-1 $313 $464 #
vertex $-1 $209 $489 #
vertex $-1 $209 $490 #
straight-curve $-1 61.957457197790461 0 11.73594275351587 0 1 0 I I #
face $-1 $491 $492 $49 $-1 $493 reversed single #
loop $-1 $-1 $494 $210 #
plane-surface $-1 -2.5874804295243599 0 0 1 0 0 0 0 -1 forward_v I I I I #
coedge $-1 $495 $330 $496 $497 forward $211 $-1 #
coedge $-1 $498 $213 $495 $499 forward $133 $-1 #
coedge $-1 $213 $498 $500 $501 forward $133 $-1 #
coedge $-1 $333 $332 $213 $326 reversed $334 $-1 #
edge $-1 $502 -5.5026374637527393 $503 5.5026374637527393 $325 $504 forward 7 unknown #
coedge $-1 $215 $214 $505 $506 forward $84 $-1 #
coedge $-1 $507 $508 $214 $329 reversed $492 $-1 #
edge $-1 $336 -2.5874804295243599 $509 2.5874804295243599 $328 $510 forward 7 unknown #
coedge $-1 $322 $511 $215 $331 reversed $211 $-1 #
edge $-1 $512 -2.5874804295243599 $335 2.5874804295243599 $330 $513 forward 7 unknown #
coedge $-1 $325 $216 $511 $514 forward $334 $-1 #
coedge $-1 $216 $325 $507 $515 reversed $334 $-1 #
loop $-1 $-1 $332 $491 #
vertex $-1 $217 $516 #
vertex $-1 $217 $517 #
straight-curve $-1 2.5874804295243599 0 11.73594275351587 0 1 0 I I #
face $-1 $518 $519 $50 $-1 $520 reversed single #
loop $-1 $-1 $521 $218 #
plane-surface $-1 -247.82982879116184 0 0 1 0 0 0 0 -1 forward_v I I I I #
coedge $-1 $522 $349 $523 $524 forward $219 $-1 #
coedge $-1 $525 $221 $522 $526 forward $137 $-1 #
coedge $-1 $221 $525 $527 $528 forward $137 $-1 #
coedge $-1 $352 $351 $221 $345 reversed $353 $-1 #
edge $-1 $529 -6.1785028339546102 $530 6.1785028339546102 $344 $531 forward 7 unknown #
coedge $-1 $223 $222 $532 $533 forward $87 $-1 #
coedge $-1 $534 $535 $222 $348 reversed $519 $-1 #
edge $-1 $355 -247.82982879116184 $536 247.82982879116184 $347 $537 forward 7 unknown #
coedge $-1 $341 $538 $223 $350 reversed $219 $-1 #
edge $-1 $539 -247.82982879116184 $354 247.82982879116184 $349 $540 forward 7 unknown #
coedge $-1 $344 $224 $538 $541 forward $353 $-1 #
coedge $-1 $224 $344 $534 $542 reversed $353 $-1 #
loop $-1 $-1 $351 $518 #
vertex $-1 $225 $543 #
vertex $-1 $225 $544 #
straight-curve $-1 247.82982879116184 0 123.91491439558094 0 1 0 I I #
loop $-1 $-1 $545 $140 #
coedge $-1 $358 $358 $229 $359 reversed $226 $-1 #
edge $-1 $546 0 $546 6.2831853071796004 $358 $547 forward 7 unknown #
vertex $-1 $230 $548 #
ellipse-curve $-1 0 0 -1.25 0 0 -1 0.5 0 0 1 I I #
loop $-1 $-1 $549 $145 #
coedge $-1 $363 $363 $234 $364 reversed $231 $-1 #
edge $-1 $550 0 $550 6.2831853071796004 $363 $551 forward 7 unknown #
vertex $-1 $235 $552 #
ellipse-curve $-1 0 0 -1.25 0 0 -1 0.5 0 0 1 I I #
face $-1 $553 $554 $53 $-1 $555 reversed single #
loop $-1 $-1 $556 $236 #
plane-surface $-1 -247.82982879116184 0 0 1 0 0 0 0 -1 forward_v I I I I #
coedge $-1 $557 $378 $558 $559 forward $237 $-1 #
coedge $-1 $560 $239 $557 $561 forward $151 $-1 #
coedge $-1 $239 $560 $562 $563 forward $151 $-1 #
coedge $-1 $381 $380 $239 $374 reversed $382 $-1 #
edge $-1 $564 -6.1785028339546102 $565 6.1785028339546102 $373 $566 forward 7 unknown #
coedge $-1 $241 $240 $567 $568 forward $96 $-1 #
coedge $-1 $569 $570 $240 $377 reversed $554 $-1 #
edge $-1 $384 -247.82982879116184 $571 247.82982879116184 $376 $572 forward 7 unknown #
coedge $-1 $370 $573 $241 $379 reversed $237 $-1 #
edge $-1 $574 -247.82982879116184 $383 247.82982879116184 $378 $575 forward 7 unknown #
coedge $-1 $373 $242 $573 $576 forward $382 $-1 #
coedge $-1 $242 $373 $569 $577 reversed $382 $-1 #
loop $-1 $-1 $380 $553 #
vertex $-1 $243 $578 #
vertex $-1 $243 $579 #
straight-curve $-1 247.82982879116184 0 123.91491439558094 0 1 0 I I #
loop $-1 $-1 $580 $154 #
coedge $-1 $387 $387 $247 $388 reversed $244 $-1 #
edge $-1 $581 0 $581 6.2831853071796004 $387 $582 forward 7 unknown #
vertex $-1 $248 $583 #
ellipse-curve $-1 0 0 -1.25 0 0 -1 0.5 0 0 1 I I #
loop $-1 $-1 $584 $159 #
coedge $-1 $392 $392 $252 $393 reversed $249 $-1 #
edge $-1 $585 0 $585 6.2831853071796004 $392 $586 forward 7 unknown #
vertex $-1 $253 $587 #
ellipse-curve $-1 0 0 -1.25 0 0 -1 0.5 0 0 1 I I #
face $-1 $588 $589 $56 $-1 $590 reversed single #
loop $-1 $-1 $591 $254 #
plane-surface $-1 -247.82982879116184 0 0 1 0 0 0 0 -1 forward_v I I I I #
coedge $-1 $592 $407 $593 $594 forward $255 $-1 #
coedge $-1 $595 $257 $592 $596 forward $165 $-1 #
coedge $-1 $257 $595 $597 $598 forward $165 $-1 #
coedge $-1 $410 $409 $257 $403 reversed $411 $-1 #
edge $-1 $599 -6.3321291763087473 $600 6.3321291763087473 $402 $601 forward 7 unknown #
coedge $-1 $259 $258 $602 $603 forward $105 $-1 #
coedge $-1 $604 $605 $258 $406 reversed $589 $-1 #
edge $-1 $413 -247.82982879116184 $606 247.82982879116184 $405 $607 forward 7 unknown #
coedge $-1 $399 $608 $259 $408 reversed $255 $-1 #
edge $-1 $609 -247.82982879116184 $412 247.82982879116184 $407 $610 forward 7 unknown #
coedge $-1 $402 $260 $608 $611 forward $411 $-1 #
coedge $-1 $260 $402 $604 $612 reversed $411 $-1 #
loop $-1 $-1 $409 $588 #
vertex $-1 $261 $613 #
vertex $-1 $261 $614 #
straight-curve $-1 247.82982879116184 0 123.91491439558091 0 1 0 I I #
loop $-1 $-1 $615 $168 #
coedge $-1 $416 $416 $265 $417 reversed $262 $-1 #
edge $-1 $616 0 $616 6.2831853071796004 $416 $617 forward 7 unknown #
vertex $-1 $266 $618 #
ellipse-curve $-1 0 0 -4.1081423383281948 0 0 -1 1 0 0 1 I I #
loop $-1 $-1 $619 $173 #
coedge $-1 $421 $421 $270 $422 reversed $267 $-1 #
edge $-1 $620 0 $620 6.2831853071796004 $421 $621 forward 7 unknown #
vertex $-1 $271 $622 #
ellipse-curve $-1 0 0 -4.1081423383281948 0 0 -1 1 0 0 1 I I #
loop $-1 $-1 $623 $178 #
coedge $-1 $426 $426 $275 $427 reversed $272 $-1 #
edge $-1 $624 0 $624 6.2831853071796004 $426 $625 forward 7 unknown #
vertex $-1 $276 $626 #
ellipse-curve $-1 0 0 -4.1081423383281948 0 0 -1 1 0 0 1 I I #
face $-1 $627 $628 $60 $-1 $629 reversed single #
loop $-1 $-1 $630 $277 #
plane-surface $-1 -247.82982879116184 0 0 1 0 0 0 0 -1 forward_v I I I I #
coedge $-1 $631 $441 $632 $633 forward $278 $-1 #
coedge $-1 $634 $280 $631 $635 forward $184 $-1 #
coedge $-1 $280 $634 $636 $637 forward $184 $-1 #
coedge $-1 $444 $443 $280 $437 reversed $445 $-1 #
edge $-1 $638 -6.3321291763087473 $639 6.3321291763087473 $436 $640 forward 7 unknown #
coedge $-1 $282 $281 $641 $642 forward $117 $-1 #
coedge $-1 $643 $644 $281 $440 reversed $628 $-1 #
edge $-1 $447 -247.82982879116184 $645 247.82982879116184 $439 $646 forward 7 unknown #
coedge $-1 $433 $647 $282 $442 reversed $278 $-1 #
edge $-1 $648 -247.82982879116184 $446 247.82982879116184 $441 $649 forward 7 unknown #
coedge $-1 $436 $283 $647 $650 forward $445 $-1 #
coedge $-1 $283 $436 $643 $651 reversed $445 $-1 #
loop $-1 $-1 $443 $627 #
vertex $-1 $284 $652 #
vertex $-1 $284 $653 #
straight-curve $-1 247.82982879116184 0 123.91491439558091 0 1 0 I I #
loop $-1 $-1 $654 $187 #
coedge $-1 $450 $450 $288 $451 reversed $285 $-1 #
edge $-1 $655 0 $655 6.2831853071796004 $450 $656 forward 7 unknown #
vertex $-1 $289 $657 #
ellipse-curve $-1 0 0 -4.1081423383281948 0 0 -1 1 0 0 1 I I #
loop $-1 $-1 $658 $192 #
coedge $-1 $455 $455 $293 $456 reversed $290 $-1 #
edge $-1 $659 0 $659 6.2831853071796004 $455 $660 forward 7 unknown #
vertex $-1 $294 $661 #
ellipse-curve $-1 0 0 -4.1081423383281948 0 0 -1 1 0 0 1 I I #
loop $-1 $-1 $662 $197 #
coedge $-1 $460 $460 $298 $461 reversed $295 $-1 #
edge $-1 $663 0 $663 6.2831853071796004 $460 $664 forward 7 unknown #
vertex $-1 $299 $665 #
ellipse-curve $-1 0 0 -4.1081423383281948 0 0 -1 1 0 0 1 I I #
face $-1 $-1 $315 $48 $-1 $666 reversed single #
loop $-1 $-1 $480 $300 #
plane-surface $-1 0 41.203874058915723 0 0 -1 0 0 0 -1 forward_v I I I I #
coedge $-1 $667 $478 $481 $668 forward $301 $-1 #
coedge $-1 $484 $303 $304 $472 reversed $203 $-1 #
coedge $-1 $478 $667 $303 $470 reversed $301 $-1 #
edge $-1 $485 -11.73594275351587 $669 11.73594275351587 $469 $670 forward 7 unknown #
coedge $-1 $305 $304 $667 $671 forward $129 $-1 #
edge $-1 $476 -61.957457197790461 $669 61.957457197790461 $468 $672 forward 7 unknown #
coedge $-1 $481 $480 $305 $474 reversed $465 $-1 #
edge $-1 $673 -61.957457197790461 $475 61.957457197790461 $473 $674 forward 7 unknown #
vertex $-1 $307 $675 #
vertex $-1 $487 $676 #
straight-curve $-1 61.957457197790461 0 -11.73594275351587 0 -1 0 I I #
coedge $-1 $467 $469 $308 $479 reversed $301 $-1 #
edge $-1 $482 -41.203874058915723 $485 41.203874058915723 $478 $677 forward 7 unknown #
coedge $-1 $473 $309 $314 $488 forward $465 $-1 #
coedge $-1 $309 $473 $467 $668 reversed $465 $-1 #
vertex $-1 $310 $678 #
straight-curve $-1 0 41.203874058915723 11.73594275351587 -1 0 0 I I #
coedge $-1 $311 $468 $313 $487 reversed $203 $-1 #
vertex $-1 $479 $679 #
straight-curve $-1 0 -41.203874058915723 11.73594275351587 1 0 0 I I #
edge $-1 $316 -11.73594275351587 $476 11.73594275351587 $313 $680 forward 7 unknown #
edge $-1 $317 -11.73594275351587 $475 11.73594275351587 $314 $681 forward 7 unknown #
point $-1 61.957457197790461 -41.203874058915723 11.73594275351587 #
point $-1 61.957457197790461 41.203874058915723 11.73594275351587 #
face $-1 $-1 $334 $49 $-1 $682 reversed single #
loop $-1 $-1 $507 $319 #
plane-surface $-1 0 5.5026374637527393 0 0 -1 0 0 0 -1 forward_v I I I I #
coedge $-1 $683 $505 $508 $684 forward $320 $-1 #
coedge $-1 $511 $322 $323 $499 reversed $211 $-1 #
coedge $-1 $505 $683 $322 $497 reversed $320 $-1 #
edge $-1 $512 -11.73594275351587 $685 11.73594275351587 $496 $686 forward 7 unknown #
coedge $-1 $324 $323 $683 $687 forward $133 $-1 #
edge $-1 $503 -2.5874804295243599 $685 2.5874804295243599 $495 $688 forward 7 unknown #
coedge $-1 $508 $507 $324 $501 reversed $492 $-1 #
edge $-1 $689 -2.5874804295243599 $502 2.5874804295243599 $500 $690 forward 7 unknown #
vertex $-1 $326 $691 #
vertex $-1 $514 $692 #
straight-curve $-1 2.5874804295243599 0 -11.73594275351587 0 -1 0 I I #
coedge $-1 $494 $496 $327 $506 reversed $320 $-1 #
edge $-1 $509 -5.5026374637527393 $512 5.5026374637527393 $505 $693 forward 7 unknown #
coedge $-1 $500 $328 $333 $515 forward $492 $-1 #
coedge $-1 $328 $500 $494 $684 reversed $492 $-1 #
vertex $-1 $329 $694 #
straight-curve $-1 0 5.5026374637527393 11.73594275351587 -1 0 0 I I #
coedge $-1 $330 $495 $332 $514 reversed $211 $-1 #
vertex $-1 $506 $695 #
straight-curve $-1 0 -5.5026374637527393 11.73594275351587 1 0 0 I I #
edge $-1 $335 -11.73594275351587 $503 11.73594275351587 $332 $696 forward 7 unknown #
edge $-1 $336 -11.73594275351587 $502 11.73594275351587 $333 $697 forward 7 unknown #
point $-1 2.5874804295243599 -5.5026374637527393 11.73594275351587 #
point $-1 2.5874804295243599 5.5026374637527393 11.73594275351587 #
face $-1 $-1 $353 $50 $-1 $698 reversed single #
loop $-1 $-1 $534 $338 #
plane-surface $-1 0 6.1785028339546102 0 0 -1 0 0 0 -1 forward_v I I I I #
coedge $-1 $699 $532 $535 $700 forward $339 $-1 #
coedge $-1 $538 $341 $342 $526 reversed $219 $-1 #
coedge $-1 $532 $699 $341 $524 reversed $339 $-1 #
edge $-1 $539 -123.91491439558094 $701 123.91491439558094 $523 $702 forward 7 unknown #
coedge $-1 $343 $342 $699 $703 forward $137 $-1 #
edge $-1 $530 -247.82982879116184 $701 247.82982879116184 $522 $704 forward 7 unknown #
coedge $-1 $535 $534 $343 $528 reversed $519 $-1 #
edge $-1 $705 -247.82982879116184 $529 247.82982879116184 $527 $706 forward 7 unknown #
vertex $-1 $345 $707 #
vertex $-1 $541 $708 #
straight-curve $-1 247.82982879116184 0 -123.91491439558094 0 -1 0 I I #
coedge $-1 $521 $523 $346 $533 reversed $339 $-1 #
edge $-1 $536 -6.1785028339546102 $539 6.1785028339546102 $532 $709 forward 7 unknown #
coedge $-1 $527 $347 $352 $542 forward $519 $-1 #
coedge $-1 $347 $527 $521 $700 reversed $519 $-1 #
vertex $-1 $348 $710 #
straight-curve $-1 0 6.1785028339546102 123.91491439558094 -1 0 0 I I #
coedge $-1 $349 $522 $351 $541 reversed $219 $-1 #
vertex $-1 $533 $711 #
straight-curve $-1 0 -6.1785028339546102 123.91491439558094 1 0 0 I I #
edge $-1 $354 -123.91491439558094 $530 123.91491439558094 $351 $712 forward 7 unknown #
edge $-1 $355 -123.91491439558094 $529 123.91491439558094 $352 $713 forward 7 unknown #
point $-1 247.82982879116184 -6.1785028339546102 123.91491439558094 #
point $-1 247.82982879116184 6.1785028339546102 123.91491439558094 #
coedge $-1 $545 $545 $-1 $714 reversed $357 $-1 #
vertex $-1 $359 $715 #
ellipse-curve $-1 0 0 -0.25 0 0 -1 0.5 0 0 1 I I #
point $-1 0.5 0 -1.25 #
coedge $-1 $549 $549 $-1 $716 reversed $362 $-1 #
vertex $-1 $364 $717 #
ellipse-curve $-1 0 0 -0.25 0 0 -1 0.5 0 0 1 I I #
point $-1 0.5 0 -1.25 #
face $-1 $-1 $382 $53 $-1 $718 reversed single #
loop $-1 $-1 $569 $367 #
plane-surface $-1 0 6.1785028339546102 0 0 -1 0 0 0 -1 forward_v I I I I #
coedge $-1 $719 $567 $570 $720 forward $368 $-1 #
coedge $-1 $573 $370 $371 $561 reversed $237 $-1 #
coedge $-1 $567 $719 $370 $559 reversed $368 $-1 #
edge $-1 $574 -123.91491439558094 $721 123.91491439558094 $558 $722 forward 7 unknown #
coedge $-1 $372 $371 $719 $723 forward $151 $-1 #
edge $-1 $565 -247.82982879116184 $721 247.82982879116184 $557 $724 forward 7 unknown #
coedge $-1 $570 $569 $372 $563 reversed $554 $-1 #
edge $-1 $725 -247.82982879116184 $564 247.82982879116184 $562 $726 forward 7 unknown #
vertex $-1 $374 $727 #
vertex $-1 $576 $728 #
straight-curve $-1 247.82982879116184 0 -123.91491439558094 0 -1 0 I I #
coedge $-1 $556 $558 $375 $568 reversed $368 $-1 #
edge $-1 $571 -6.1785028339546102 $574 6.1785028339546102 $567 $729 forward 7 unknown #
coedge $-1 $562 $376 $381 $577 forward $554 $-1 #
coedge $-1 $376 $562 $556 $720 reversed $554 $-1 #
vertex $-1 $377 $730 #
straight-curve $-1 0 6.1785028339546102 123.91491439558094 -1 0 0 I I #
coedge $-1 $378 $557 $380 $576 reversed $237 $-1 #
vertex $-1 $568 $731 #
straight-curve $-1 0 -6.1785028339546102 123.91491439558094 1 0 0 I I #
edge $-1 $383 -123.91491439558094 $565 123.91491439558094 $380 $732 forward 7 unknown #
edge $-1 $384 -123.91491439558094 $564 123.91491439558094 $381 $733 forward 7 unknown #
point $-1 247.82982879116184 -6.1785028339546102 123.91491439558094 #
point $-1 247.82982879116184 6.1785028339546102 123.91491439558094 #
coedge $-1 $580 $580 $-1 $734 reversed $386 $-1 #
vertex $-1 $388 $735 #
ellipse-curve $-1 0 0 -0.25 0 0 -1 0.5 0 0 1 I I #
point $-1 0.5 0 -1.25 #
coedge $-1 $584 $584 $-1 $736 reversed $391 $-1 #
vertex $-1 $393 $737 #
ellipse-curve $-1 0 0 -0.25 0 0 -1 0.5 0 0 1 I I #
point $-1 0.5 0 -1.25 #
face $-1 $-1 $411 $56 $-1 $738 reversed single #
loop $-1 $-1 $604 $396 #
plane-surface $-1 0 6.3321291763087473 0 0 -1 0 0 0 -1 forward_v I I I I #
coedge $-1 $739 $602 $605 $740 forward $397 $-1 #
coedge $-1 $608 $399 $400 $596 reversed $255 $-1 #
coedge $-1 $602 $739 $399 $594 reversed $397 $-1 #
edge $-1 $609 -123.91491439558091 $741 123.91491439558091 $593 $742 forward 7 unknown #
coedge $-1 $401 $400 $739 $743 forward $165 $-1 #
edge $-1 $600 -247.82982879116184 $741 247.82982879116184 $592 $744 forward 7 unknown #
coedge $-1 $605 $604 $401 $598 reversed $589 $-1 #
edge $-1 $745 -247.82982879116184 $599 247.82982879116184 $597 $746 forward 7 unknown #
vertex $-1 $403 $747 #
vertex $-1 $611 $748 #
straight-curve $-1 247.82982879116184 0 -123.91491439558091 0 -1 0 I I #
coedge $-1 $591 $593 $404 $603 reversed $397 $-1 #
edge $-1 $606 -6.3321291763087473 $609 6.3321291763087473 $602 $749 forward 7 unknown #
coedge $-1 $597 $405 $410 $612 forward $589 $-1 #
coedge $-1 $405 $597 $591 $740 reversed $589 $-1 #
vertex $-1 $406 $750 #
straight-curve $-1 0 6.3321291763087473 123.91491439558091 -1 0 0 I I #
coedge $-1 $407 $592 $409 $611 reversed $255 $-1 #
vertex $-1 $603 $751 #
straight-curve $-1 0 -6.3321291763087473 123.91491439558091 1 0 0 I I #
edge $-1 $412 -123.91491439558091 $600 123.91491439558091 $409 $752 forward 7 unknown #
edge $-1 $413 -123.91491439558091 $599 123.91491439558091 $410 $753 forward 7 unknown #
point $-1 247.82982879116184 -6.3321291763087473 123.91491439558091 #
point $-1 247.82982879116184 6.3321291763087473 123.91491439558091 #
coedge $-1 $615 $615 $-1 $754 reversed $415 $-1 #
vertex $-1 $417 $755 #
ellipse-curve $-1 0 0 -0.5 0 0 -1 1 0 0 1 I I #
point $-1 1 0 -4.1081423383281948 #
coedge $-1 $619 $619 $-1 $756 reversed $420 $-1 #
vertex $-1 $422 $757 #
ellipse-curve $-1 0 0 -0.5 0 0 -1 1 0 0 1 I I #
point $-1 1 0 -4.1081423383281948 #
coedge $-1 $623 $623 $-1 $758 reversed $425 $-1 #
vertex $-1 $427 $759 #
ellipse-curve $-1 0 0 -0.5 0 0 -1 1 0 0 1 I I #
point $-1 1 0 -4.1081423383281948 #
face $-1 $-1 $445 $60 $-1 $760 reversed single #
loop $-1 $-1 $643 $430 #
plane-surface $-1 0 6.3321291763087473 0 0 -1 0 0 0 -1 forward_v I I I I #
coedge $-1 $761 $641 $644 $762 forward $431 $-1 #
coedge $-1 $647 $433 $434 $635 reversed $278 $-1 #
coedge $-1 $641 $761 $433 $633 reversed $431 $-1 #
edge $-1 $648 -123.91491439558091 $763 123.91491439558091 $632 $764 forward 7 unknown #
coedge $-1 $435 $434 $761 $765 forward $184 $-1 #
edge $-1 $639 -247.82982879116184 $763 247.82982879116184 $631 $766 forward 7 unknown #
coedge $-1 $644 $643 $435 $637 reversed $628 $-1 #
edge $-1 $767 -247.82982879116184 $638 247.82982879116184 $636 $768 forward 7 unknown #
vertex $-1 $437 $769 #
vertex $-1 $650 $770 #
straight-curve $-1 247.82982879116184 0 -123.91491439558091 0 -1 0 I I #
coedge $-1 $630 $632 $438 $642 reversed $431 $-1 #
edge $-1 $645 -6.3321291763087473 $648 6.3321291763087473 $641 $771 forward 7 unknown #
coedge $-1 $636 $439 $444 $651 forward $628 $-1 #
coedge $-1 $439 $636 $630 $762 reversed $628 $-1 #
vertex $-1 $440 $772 #
straight-curve $-1 0 6.3321291763087473 123.91491439558091 -1 0 0 I I #
coedge $-1 $441 $631 $443 $650 reversed $278 $-1 #
vertex $-1 $642 $773 #
straight-curve $-1 0 -6.3321291763087473 123.91491439558091 1 0 0 I I #
edge $-1 $446 -123.91491439558091 $639 123.91491439558091 $443 $774 forward 7 unknown #
edge $-1 $447 -123.91491439558091 $638 123.91491439558091 $444 $775 forward 7 unknown #
point $-1 247.82982879116184 -6.3321291763087473 123.91491439558091 #
point $-1 247.82982879116184 6.3321291763087473 123.91491439558091 #
coedge $-1 $654 $654 $-1 $776 reversed $449 $-1 #
vertex $-1 $451 $777 #
ellipse-curve $-1 0 0 -0.5 0 0 -1 1 0 0 1 I I #
point $-1 1 0 -4.1081423383281948 #
coedge $-1 $658 $658 $-1 $778 reversed $454 $-1 #
vertex $-1 $456 $779 #
ellipse-curve $-1 0 0 -0.5 0 0 -1 1 0 0 1 I I #
point $-1 1 0 -4.1081423383281948 #
coedge $-1 $662 $662 $-1 $780 reversed $459 $-1 #
vertex $-1 $461 $781 #
ellipse-curve $-1 0 0 -0.5 0 0 -1 1 0 0 1 I I #
point $-1 1 0 -4.1081423383281948 #
plane-surface $-1 61.957457197790461 0 0 -1 0 0 0 0 1 forward_v I I I I #
coedge $-1 $469 $467 $471 $671 reversed $301 $-1 #
edge $-1 $482 -11.73594275351587 $673 11.73594275351587 $481 $782 forward 7 unknown #
vertex $-1 $671 $783 #
straight-curve $-1 -61.957457197790461 -41.203874058915723 0 0 0 -1 I I #
edge $-1 $669 -41.203874058915723 $673 41.203874058915723 $667 $784 forward 7 unknown #
straight-curve $-1 0 -41.203874058915723 -11.73594275351587 -1 0 0 I I #
vertex $-1 $474 $785 #
straight-curve $-1 0 41.203874058915723 -11.73594275351587 1 0 0 I I #
point $-1 61.957457197790461 41.203874058915723 -11.73594275351587 #
point $-1 61.957457197790461 -41.203874058915723 -11.73594275351587 #
straight-curve $-1 -61.957457197790461 0 11.73594275351587 0 -1 0 I I #
point $-1 -61.957457197790461 41.203874058915723 11.73594275351587 #
point $-1 -61.957457197790461 -41.203874058915723 11.73594275351587 #
straight-curve $-1 61.957457197790461 -41.203874058915723 0 0 0 -1 I I #
straight-curve $-1 61.957457197790461 41.203874058915723 0 0 0 -1 I I #
plane-surface $-1 2.5874804295243599 0 0 -1 0 0 0 0 1 forward_v I I I I #
coedge $-1 $496 $494 $498 $687 reversed $320 $-1 #
edge $-1 $509 -11.73594275351587 $689 11.73594275351587 $508 $786 forward 7 unknown #
vertex $-1 $687 $787 #
straight-curve $-1 -2.5874804295243599 -5.5026374637527393 0 0 0 -1 I I #
edge $-1 $685 -5.5026374637527393 $689 5.5026374637527393 $683 $788 forward 7 unknown #
straight-curve $-1 0 -5.5026374637527393 -11.73594275351587 -1 0 0 I I #
vertex $-1 $501 $789 #
straight-curve $-1 0 5.5026374637527393 -11.73594275351587 1 0 0 I I #
point $-1 2.5874804295243599 5.5026374637527393 -11.73594275351587 #
point $-1 2.5874804295243599 -5.5026374637527393 -11.73594275351587 #
straight-curve $-1 -2.5874804295243599 0 11.73594275351587 0 -1 0 I I #
point $-1 -2.5874804295243599 5.5026374637527393 11.73594275351587 #
point $-1 -2.5874804295243599 -5.5026374637527393 11.73594275351587 #
straight-curve $-1 2.5874804295243599 -5.5026374637527393 0 0 0 -1 I I #
straight-curve $-1 2.5874804295243599 5.5026374637527393 0 0 0 -1 I I #
plane-surface $-1 247.82982879116184 0 0 -1 0 0 0 0 1 forward_v I I I I #
coedge $-1 $523 $521 $525 $703 reversed $339 $-1 #
edge $-1 $536 -123.91491439558094 $705 123.91491439558094 $535 $790 forward 7 unknown #
vertex $-1 $703 $791 #
straight-curve $-1 -247.82982879116184 -6.1785028339546102 0 0 0 -1 I I #
edge $-1 $701 -6.1785028339546102 $705 6.1785028339546102 $699 $792 forward 7 unknown #
straight-curve $-1 0 -6.1785028339546102 -123.91491439558094 -1 0 0 I I #
vertex $-1 $528 $793 #
straight-curve $-1 0 6.1785028339546102 -123.91491439558094 1 0 0 I I #
point $-1 247.82982879116184 6.1785028339546102 -123.91491439558094 #
point $-1 247.82982879116184 -6.1785028339546102 -123.91491439558094 #
straight-curve $-1 -247.82982879116184 0 123.91491439558094 0 -1 0 I I #
point $-1 -247.82982879116184 6.1785028339546102 123.91491439558094 #
point $-1 -247.82982879116184 -6.1785028339546102 123.91491439558094 #
straight-curve $-1 247.82982879116184 -6.1785028339546102 0 0 0 -1 I I #
straight-curve $-1 247.82982879116184 6.1785028339546102 0 0 0 -1 I I #
edge $-1 $794 1 $794 0 $545 $-1 forward 7 unknown #
point $-1 0.5 0 -0.25 #
edge $-1 $795 1 $795 0 $549 $-1 forward 7 unknown #
point $-1 0.5 0 -0.25 #
plane-surface $-1 247.82982879116184 0 0 -1 0 0 0 0 1 forward_v I I I I #
coedge $-1 $558 $556 $560 $723 reversed $368 $-1 #
edge $-1 $571 -123.91491439558094 $725 123.91491439558094 $570 $796 forward 7 unknown #
vertex $-1 $723 $797 #
straight-curve $-1 -247.82982879116184 -6.1785028339546102 0 0 0 -1 I I #
edge $-1 $721 -6.1785028339546102 $725 6.1785028339546102 $719 $798 forward 7 unknown #
straight-curve $-1 0 -6.1785028339546102 -123.91491439558094 -1 0 0 I I #
vertex $-1 $563 $799 #
straight-curve $-1 0 6.1785028339546102 -123.91491439558094 1 0 0 I I #
point $-1 247.82982879116184 6.1785028339546102 -123.91491439558094 #
point $-1 247.82982879116184 -6.1785028339546102 -123.91491439558094 #
straight-curve $-1 -247.82982879116184 0 123.91491439558094 0 -1 0 I I #
point $-1 -247.82982879116184 6.1785028339546102 123.91491439558094 #
point $-1 -247.82982879116184 -6.1785028339546102 123.91491439558094 #
straight-curve $-1 247.82982879116184 -6.1785028339546102 0 0 0 -1 I I #
straight-curve $-1 247.82982879116184 6.1785028339546102 0 0 0 -1 I I #
edge $-1 $800 1 $800 0 $580 $-1 forward 7 unknown #
point $-1 0.5 0 -0.25 #
edge $-1 $801 1 $801 0 $584 $-1 forward 7 unknown #
point $-1 0.5 0 -0.25 #
plane-surface $-1 247.82982879116184 0 0 -1 0 0 0 0 1 forward_v I I I I #
coedge $-1 $593 $591 $595 $743 reversed $397 $-1 #
edge $-1 $606 -123.91491439558091 $745 123.91491439558091 $605 $802 forward 7 unknown #
vertex $-1 $743 $803 #
straight-curve $-1 -247.82982879116184 -6.3321291763087473 0 0 0 -1 I I #
edge $-1 $741 -6.3321291763087473 $745 6.3321291763087473 $739 $804 forward 7 unknown #
straight-curve $-1 0 -6.3321291763087473 -123.91491439558091 -1 0 0 I I #
vertex $-1 $598 $805 #
straight-curve $-1 0 6.3321291763087473 -123.91491439558091 1 0 0 I I #
point $-1 247.82982879116184 6.3321291763087473 -123.91491439558091 #
point $-1 247.82982879116184 -6.3321291763087473 -123.91491439558091 #
straight-curve $-1 -247.82982879116184 0 123.91491439558091 0 -1 0 I I #
point $-1 -247.82982879116184 6.3321291763087473 123.91491439558091 #
point $-1 -247.82982879116184 -6.3321291763087473 123.91491439558091 #
straight-curve $-1 247.82982879116184 -6.3321291763087473 0 0 0 -1 I I #
straight-curve $-1 247.82982879116184 6.3321291763087473 0 0 0 -1 I I #
edge $-1 $806 1 $806 0 $615 $-1 forward 7 unknown #
point $-1 1 0 -0.5 #
edge $-1 $807 1 $807 0 $619 $-1 forward 7 unknown #
point $-1 1 0 -0.5 #
edge $-1 $808 1 $808 0 $623 $-1 forward 7 unknown #
point $-1 1 0 -0.5 #
plane-surface $-1 247.82982879116184 0 0 -1 0 0 0 0 1 forward_v I I I I #
coedge $-1 $632 $630 $634 $765 reversed $431 $-1 #
edge $-1 $645 -123.91491439558091 $767 123.91491439558091 $644 $809 forward 7 unknown #
vertex $-1 $765 $810 #
straight-curve $-1 -247.82982879116184 -6.3321291763087473 0 0 0 -1 I I #
edge $-1 $763 -6.3321291763087473 $767 6.3321291763087473 $761 $811 forward 7 unknown #
straight-curve $-1 0 -6.3321291763087473 -123.91491439558091 -1 0 0 I I #
vertex $-1 $637 $812 #
straight-curve $-1 0 6.3321291763087473 -123.91491439558091 1 0 0 I I #
point $-1 247.82982879116184 6.3321291763087473 -123.91491439558091 #
point $-1 247.82982879116184 -6.3321291763087473 -123.91491439558091 #
straight-curve $-1 -247.82982879116184 0 123.91491439558091 0 -1 0 I I #
point $-1 -247.82982879116184 6.3321291763087473 123.91491439558091 #
point $-1 -247.82982879116184 -6.3321291763087473 123.91491439558091 #
straight-curve $-1 247.82982879116184 -6.3321291763087473 0 0 0 -1 I I #
straight-curve $-1 247.82982879116184 6.3321291763087473 0 0 0 -1 I I #
edge $-1 $813 1 $813 0 $654 $-1 forward 7 unknown #
point $-1 1 0 -0.5 #
edge $-1 $814 1 $814 0 $658 $-1 forward 7 unknown #
point $-1 1 0 -0.5 #
edge $-1 $815 1 $815 0 $662 $-1 forward 7 unknown #
point $-1 1 0 -0.5 #
straight-curve $-1 -61.957457197790461 41.203874058915723 0 0 0 -1 I I #
point $-1 -61.957457197790461 -41.203874058915723 -11.73594275351587 #
straight-curve $-1 -61.957457197790461 0 -11.73594275351587 0 1 0 I I #
point $-1 -61.957457197790461 41.203874058915723 -11.73594275351587 #
straight-curve $-1 -2.5874804295243599 5.5026374637527393 0 0 0 -1 I I #
point $-1 -2.5874804295243599 -5.5026374637527393 -11.73594275351587 #
straight-curve $-1 -2.5874804295243599 0 -11.73594275351587 0 1 0 I I #
point $-1 -2.5874804295243599 5.5026374637527393 -11.73594275351587 #
straight-curve $-1 -247.82982879116184 6.1785028339546102 0 0 0 -1 I I #
point $-1 -247.82982879116184 -6.1785028339546102 -123.91491439558094 #
straight-curve $-1 -247.82982879116184 0 -123.91491439558094 0 1 0 I I #
point $-1 -247.82982879116184 6.1785028339546102 -123.91491439558094 #
vertex $-1 $714 $816 #
vertex $-1 $716 $817 #
straight-curve $-1 -247.82982879116184 6.1785028339546102 0 0 0 -1 I I #
point $-1 -247.82982879116184 -6.1785028339546102 -123.91491439558094 #
straight-curve $-1 -247.82982879116184 0 -123.91491439558094 0 1 0 I I #
point $-1 -247.82982879116184 6.1785028339546102 -123.91491439558094 #
vertex $-1 $734 $818 #
vertex $-1 $736 $819 #
straight-curve $-1 -247.82982879116184 6.3321291763087473 0 0 0 -1 I I #
point $-1 -247.82982879116184 -6.3321291763087473 -123.91491439558091 #
straight-curve $-1 -247.82982879116184 0 -123.91491439558091 0 1 0 I I #
point $-1 -247.82982879116184 6.3321291763087473 -123.91491439558091 #
vertex $-1 $754 $820 #
vertex $-1 $756 $821 #
vertex $-1 $758 $822 #
straight-curve $-1 -247.82982879116184 6.3321291763087473 0 0 0 -1 I I #
point $-1 -247.82982879116184 -6.3321291763087473 -123.91491439558091 #
straight-curve $-1 -247.82982879116184 0 -123.91491439558091 0 1 0 I I #
point $-1 -247.82982879116184 6.3321291763087473 -123.91491439558091 #
vertex $-1 $776 $823 #
vertex $-1 $778 $824 #
vertex $-1 $780 $825 #
point $-1 0 0 0.25 #
point $-1 0 0 0.25 #
point $-1 0 0 0.25 #
point $-1 0 0 0.25 #
point $-1 0 0 0.5 #
point $-1 0 0 0.5 #
point $-1 0 0 0.5 #
point $-1 0 0 0.5 #
point $-1 0 0 0.5 #
point $-1 0 0 0.5 #
End-of-ACIS-data 