500 0 7 0           
7 Unknown 11 ACIS 5.0 NT 24 Thu Mar 25 15:55:39 1999 
-1 9.9999999999999995e-007 1e-010 
body $-1 $7 $-1 $8 #
body $-1 $9 $-1 $10 #
body $-1 $11 $-1 $12 #
body $-1 $13 $-1 $14 #
body $-1 $15 $-1 $16 #
body $-1 $17 $-1 $18 #
body $-1 $19 $-1 $20 #
lump $-1 $-1 $21 $0 #
transform $-1 1 0 0 0 1 0 0 0 1 63.910641804254283 29.004278662989087 6.7605541769599125 1 rotate no_reflect no_shear #
lump $-1 $-1 $22 $1 #
transform $-1 1 0 0 0 1 0 0 0 1 63.910641804254283 29.004278662989087 6.7605541769599125 1 rotate no_reflect no_shear #
lump $-1 $-1 $23 $2 #
transform $-1 1 0 0 0 1 0 0 0 1 63.910641804254283 29.004278662989087 6.7605541769599125 1 rotate no_reflect no_shear #
lump $-1 $-1 $24 $3 #
transform $-1 1 0 0 0 1 0 0 0 1 63.910641804254283 29.004278662989087 6.7605541769599125 1 rotate no_reflect no_shear #
lump $-1 $-1 $25 $4 #
transform $-1 1 0 0 0 1 0 0 0 1 63.910641804254283 29.004278662989087 6.7605541769599125 1 rotate no_reflect no_shear #
lump $-1 $-1 $26 $5 #
transform $-1 1 0 0 0 1 0 0 0 1 63.910641804254283 29.004278662989087 6.7605541769599125 1 rotate no_reflect no_shear #
lump $-1 $-1 $27 $6 #
transform $-1 1 0 0 0 1 0 0 0 1 63.910641804254283 29.004278662989087 6.7605541769599125 1 rotate no_reflect no_shear #
shell $-1 $-1 $-1 $28 $-1 $7 #
shell $-1 $-1 $-1 $29 $-1 $9 #
shell $-1 $-1 $-1 $30 $-1 $11 #
shell $-1 $-1 $-1 $31 $-1 $13 #
shell $-1 $-1 $-1 $32 $-1 $15 #
shell $-1 $-1 $-1 $33 $-1 $17 #
shell $-1 $-1 $-1 $34 $-1 $19 #
face $-1 $35 $36 $21 $-1 $37 forward single #
face $-1 $38 $39 $22 $-1 $40 forward single #
face $-1 $41 $42 $23 $-1 $43 reversed single #
face $-1 $44 $45 $24 $-1 $46 forward single #
face $-1 $47 $48 $25 $-1 $49 reversed single #
face $-1 $50 $51 $26 $-1 $52 forward single #
face $-1 $53 $54 $27 $-1 $55 forward single #
face $-1 $56 $57 $21 $-1 $58 reversed single #
loop $-1 $-1 $59 $28 #
plane-surface $-1 0 0 6.7605541769599125 0 0 1 1 0 0 forward_v I I I I #
face $-1 $60 $61 $22 $-1 $62 reversed single #
loop $-1 $-1 $63 $29 #
plane-surface $-1 0 -25.95952866027217 -3.7605541769599125 0 0 1 1 0 0 forward_v I I I I #
face $-1 $64 $65 $23 $-1 $66 reversed single #
loop $-1 $-1 $67 $30 #
plane-surface $-1 -129.7434705222451 -12.571690604472932 109.97095662215173 0 1 0 -0.51503808176128008 0 0.85716729658548041 forward_v I I I I #
face $-1 $68 $69 $24 $-1 $70 forward single #
loop $-1 $71 $72 $31 #
cone-surface $-1 -56.547374181972444 -5.2147348966693912 0.12859887094172961 0.51503808176128008 0 -0.85716729658548041 2.1429182414637009 0 1.2875952044032002 1 I I 0 1 2.5 forward I I I I #
face $-1 $73 $74 $25 $-1 $75 reversed single #
loop $-1 $-1 $76 $32 #
plane-surface $-1 54.450051266089034 19.46675442642313 183.83629929699302 0 1 0 0.66913061440640931 0 0.74314481823134659 forward_v I I I I #
face $-1 $77 $78 $26 $-1 $79 forward single #
loop $-1 $80 $81 $33 #
cone-surface $-1 61.625682418961532 22.191761351156259 4.6247645602355458 -0.66913061440640931 0 -0.74314481823134659 0.74314481823134659 0 -0.66913061440640931 1 I I 0 1 1 forward I I I I #
face $-1 $82 $83 $27 $-1 $84 forward single #
loop $-1 $85 $86 $34 #
cone-surface $-1 61.625682418961532 26.279271738255957 4.6247645602355458 -0.66913061440640931 0 -0.74314481823134659 0.74314481823134659 0 -0.66913061440640931 1 I I 0 1 1 forward I I I I #
face $-1 $87 $88 $21 $-1 $89 reversed single #
loop $-1 $-1 $90 $35 #
plane-surface $-1 0 0 -6.7605541769599125 0 0 1 1 0 0 forward_v I I I I #
coedge $-1 $91 $92 $93 $94 forward $36 $-1 #
face $-1 $95 $96 $22 $-1 $97 reversed single #
loop $-1 $-1 $98 $38 #
plane-surface $-1 0 -22.914778657555253 -5.2605541769599125 0 -1 0 0 0 -1 forward_v I I I I #
coedge $-1 $99 $100 $101 $102 reversed $39 $-1 #
face $-1 $103 $104 $23 $-1 $105 reversed single #
loop $-1 $-1 $106 $41 #
plane-surface $-1 -63.910641804254297 -5.2147348966693912 0.40673250536046623 -0.51503808176128008 0 0.85716729658548041 0.85716729658548041 0 0.51503808176128008 forward_v I I I I #
coedge $-1 $107 $108 $109 $110 reversed $42 $-1 #
face $-1 $-1 $111 $24 $-1 $112 forward single #
loop $-1 $113 $114 $44 #
cone-surface $-1 -53.827576383041716 -5.2147348966693912 -4.3979047200085741 0.51503808176128008 0 -0.85716729658548041 1.0714591207318505 0 0.64379760220160009 1 I I -0.70710678118654746 0.70710678118654746 1.25 forward I I I I #
loop $-1 $-1 $115 $31 #
coedge $-1 $72 $72 $116 $117 reversed $45 $-1 #
face $-1 $118 $119 $25 $-1 $120 reversed single #
loop $-1 $-1 $121 $47 #
plane-surface $-1 -31.079082769088203 24.235516544706108 88.846574723650505 0.66913061440640931 0 0.74314481823134659 0.74314481823134659 0 -0.66913061440640931 forward_v I I I I #
coedge $-1 $122 $123 $124 $125 reversed $48 $-1 #
face $-1 $-1 $126 $26 $-1 $127 forward single #
loop $-1 $128 $129 $50 #
cone-surface $-1 60.918140149972814 22.191761351156259 3.8389592786388267 -0.66913061440640931 0 -0.74314481823134659 0.3715724091156733 0 -0.33456530720320465 1 I I -0.70710678118654746 0.70710678118654746 0.5 forward I I I I #
loop $-1 $-1 $130 $33 #
coedge $-1 $81 $81 $131 $132 reversed $51 $-1 #
face $-1 $-1 $133 $27 $-1 $134 forward single #
loop $-1 $135 $136 $53 #
cone-surface $-1 60.918140149972814 26.279271738255957 3.8389592786388267 -0.66913061440640931 0 -0.74314481823134659 0.3715724091156733 0 -0.33456530720320465 1 I I -0.70710678118654746 0.70710678118654746 0.5 forward I I I I #
loop $-1 $-1 $137 $34 #
coedge $-1 $86 $86 $138 $139 reversed $54 $-1 #
face $-1 $140 $141 $21 $-1 $142 reversed single #
loop $-1 $-1 $143 $56 #
plane-surface $-1 0 -29.004278662989087 0 0 1 0 0 0 1 forward_v I I I I #
coedge $-1 $144 $145 $146 $147 forward $57 $-1 #
coedge $-1 $148 $59 $149 $150 forward $36 $-1 #
coedge $-1 $59 $148 $151 $152 forward $36 $-1 #
coedge $-1 $153 $154 $59 $94 reversed $155 $-1 #
edge $-1 $156 -29.004278662989087 $157 29.004278662989087 $93 $158 forward 7 unknown #
face $-1 $159 $160 $22 $-1 $161 reversed single #
loop $-1 $-1 $162 $60 #
plane-surface $-1 0 0 -6.7605541769599125 0 0 1 1 0 0 forward_v I I I I #
coedge $-1 $163 $164 $165 $166 reversed $61 $-1 #
coedge $-1 $167 $63 $164 $168 forward $39 $-1 #
coedge $-1 $63 $167 $169 $170 reversed $39 $-1 #
coedge $-1 $171 $165 $63 $102 forward $160 $-1 #
edge $-1 $172 9.935014327419168 $173 16.024514332853002 $101 $174 forward 7 unknown #
face $-1 $175 $176 $23 $-1 $177 forward single #
loop $-1 $-1 $178 $64 #
plane-surface $-1 -129.7434705222451 2.1422208111341501 109.97095662215173 0 -1 0 0.51503808176128008 0 -0.85716729658548041 forward_v I I I I #
coedge $-1 $179 $180 $181 $182 reversed $65 $-1 #
coedge $-1 $108 $67 $183 $184 reversed $42 $-1 #
coedge $-1 $67 $107 $179 $185 reversed $42 $-1 #
coedge $-1 $181 $186 $67 $110 forward $176 $-1 #
edge $-1 $187 0.96109345686826941 $188 11.535628307973667 $109 $189 forward 7 unknown #
loop $-1 $-1 $116 $68 #
plane-surface $-1 -63.910641804254297 -5.2147348966693912 0.40673250536046623 -0.51503808176128008 0 0.85716729658548041 0.85716729658548041 0 0.51503808176128008 forward_v I I I I #
loop $-1 $-1 $190 $44 #
coedge $-1 $114 $114 $115 $191 reversed $69 $-1 #
coedge $-1 $115 $115 $114 $191 forward $71 $-1 #
coedge $-1 $116 $116 $72 $117 forward $111 $-1 #
edge $-1 $192 0 $192 6.2831853071796004 $116 $193 forward 7 unknown #
face $-1 $194 $195 $25 $-1 $196 forward single #
loop $-1 $-1 $197 $73 #
plane-surface $-1 0 29.004278662989087 0 0 -1 0 0 0 -1 forward_v I I I I #
coedge $-1 $198 $199 $200 $201 reversed $74 $-1 #
coedge $-1 $123 $76 $202 $203 reversed $48 $-1 #
coedge $-1 $76 $122 $198 $204 reversed $48 $-1 #
coedge $-1 $200 $205 $76 $125 forward $206 $-1 #
edge $-1 $207 85.157595471536595 $208 88.600708960023226 $124 $209 forward 7 unknown #
loop $-1 $-1 $131 $77 #
plane-surface $-1 -31.079082769088203 24.235516544706108 88.846574723650505 0.66913061440640931 0 0.74314481823134659 0.74314481823134659 0 -0.66913061440640931 forward_v I I I I #
loop $-1 $-1 $210 $50 #
coedge $-1 $129 $129 $130 $211 reversed $78 $-1 #
coedge $-1 $130 $130 $129 $211 forward $80 $-1 #
coedge $-1 $131 $131 $81 $132 forward $126 $-1 #
edge $-1 $212 0 $212 6.2831853071796004 $131 $213 forward 7 unknown #
loop $-1 $-1 $138 $82 #
plane-surface $-1 -31.079082769088203 24.235516544706108 88.846574723650505 0.66913061440640931 0 0.74314481823134659 0.74314481823134659 0 -0.66913061440640931 forward_v I I I I #
loop $-1 $-1 $214 $53 #
coedge $-1 $136 $136 $137 $215 reversed $83 $-1 #
coedge $-1 $137 $137 $136 $215 forward $85 $-1 #
coedge $-1 $138 $138 $86 $139 forward $133 $-1 #
edge $-1 $216 0 $216 6.2831853071796004 $138 $217 forward 7 unknown #
face $-1 $218 $219 $21 $-1 $220 reversed single #
loop $-1 $-1 $221 $87 #
plane-surface $-1 -63.910641804254283 0 0 1 0 0 0 0 -1 forward_v I I I I #
coedge $-1 $222 $151 $223 $224 forward $88 $-1 #
coedge $-1 $225 $90 $222 $226 forward $57 $-1 #
coedge $-1 $90 $225 $227 $228 forward $57 $-1 #
coedge $-1 $154 $153 $90 $147 reversed $155 $-1 #
edge $-1 $229 -29.004278662989087 $230 29.004278662989087 $146 $231 forward 7 unknown #
coedge $-1 $92 $91 $232 $233 forward $36 $-1 #
coedge $-1 $234 $235 $91 $150 reversed $219 $-1 #
edge $-1 $157 -63.910641804254283 $236 63.910641804254283 $149 $237 forward 7 unknown #
coedge $-1 $143 $238 $92 $152 reversed $88 $-1 #
edge $-1 $239 -63.910641804254283 $156 63.910641804254283 $151 $240 forward 7 unknown #
coedge $-1 $146 $93 $238 $241 forward $155 $-1 #
coedge $-1 $93 $146 $234 $242 reversed $155 $-1 #
loop $-1 $-1 $153 $218 #
vertex $-1 $94 $243 #
vertex $-1 $94 $244 #
straight-curve $-1 63.910641804254283 0 6.7605541769599125 0 1 0 I I #
face $-1 $245 $246 $22 $-1 $247 reversed single #
loop $-1 $-1 $165 $95 #
plane-surface $-1 63.910641804254283 0 0 -1 0 0 0 0 1 forward_v I I I I #
coedge $-1 $248 $249 $163 $250 forward $96 $-1 #
coedge $-1 $251 $98 $162 $250 reversed $61 $-1 #
coedge $-1 $98 $251 $99 $168 reversed $61 $-1 #
coedge $-1 $101 $252 $98 $166 forward $160 $-1 #
edge $-1 $253 -4.1302770884799562 $172 -1.1302770884799562 $165 $254 forward 7 unknown #
coedge $-1 $100 $99 $255 $256 reversed $39 $-1 #
edge $-1 $172 -63.910641804254283 $257 63.910641804254283 $164 $258 forward 7 unknown #
coedge $-1 $259 $260 $100 $170 forward $246 $-1 #
edge $-1 $173 -63.910641804254283 $261 63.910641804254283 $169 $262 forward 7 unknown #
coedge $-1 $252 $101 $260 $263 forward $160 $-1 #
vertex $-1 $102 $264 #
vertex $-1 $263 $265 #
straight-curve $-1 63.910641804254283 -12.979764330136085 -3.7605541769599125 0 -1 0 I I #
face $-1 $-1 $266 $23 $-1 $267 reversed single #
loop $-1 $-1 $109 $103 #
plane-surface $-1 0 0 6.7605541769599125 0 0 1 1 0 0 forward_v I I I I #
coedge $-1 $268 $269 $270 $271 reversed $104 $-1 #
coedge $-1 $272 $106 $108 $185 forward $65 $-1 #
coedge $-1 $106 $272 $268 $273 forward $65 $-1 #
coedge $-1 $270 $109 $106 $182 forward $176 $-1 #
edge $-1 $188 -9.9643231561382368 $274 4.7495882594688457 $181 $275 forward 7 unknown #
coedge $-1 $276 $277 $107 $184 forward $266 $-1 #
edge $-1 $278 -54.578745805715393 $187 -48.224924134115952 $183 $279 forward 7 unknown #
edge $-1 $188 -12.3366055765648 $278 -1.6583994872760861e-014 $108 $280 forward 7 unknown #
coedge $-1 $109 $270 $276 $281 forward $176 $-1 #
vertex $-1 $184 $282 #
vertex $-1 $110 $283 #
straight-curve $-1 -64.871735261122552 -12.571690604472932 6.7605541769599142 1 0 0 I I #
coedge $-1 $190 $190 $-1 $284 reversed $113 $-1 #
edge $-1 $285 0 $285 6.2831853071796004 $114 $286 forward 7 unknown #
vertex $-1 $117 $287 #
ellipse-curve $-1 -58.623374378701577 -5.2147348966693912 3.5836433411601964 -0.51503808176128008 0 0.85716729658548041 2.1429182414637009 0 1.2875952044032002 1 I I #
face $-1 $-1 $206 $25 $-1 $288 reversed single #
loop $-1 $-1 $289 $118 #
plane-surface $-1 0 0 6.7605541769599125 0 0 1 1 0 0 forward_v I I I I #
coedge $-1 $290 $291 $199 $292 forward $119 $-1 #
coedge $-1 $293 $121 $123 $204 forward $74 $-1 #
coedge $-1 $121 $293 $197 $292 reversed $74 $-1 #
coedge $-1 $294 $124 $121 $201 forward $206 $-1 #
edge $-1 $208 7.3489961540700754 $295 16.886520390636033 $200 $296 forward 7 unknown #
coedge $-1 $297 $289 $122 $203 forward $195 $-1 #
edge $-1 $298 32.861651324195314 $207 36.685616171209766 $202 $299 forward 7 unknown #
edge $-1 $208 -127.82128360850854 $298 -122.67563130332888 $123 $300 forward 7 unknown #
coedge $-1 $124 $294 $297 $301 reversed $206 $-1 #
loop $-1 $-1 $200 $194 #
vertex $-1 $301 $302 #
vertex $-1 $125 $303 #
straight-curve $-1 63.910641804254283 19.46675442642313 91.918149648496509 0 0 -1 I I #
coedge $-1 $210 $210 $-1 $304 reversed $128 $-1 #
edge $-1 $305 0 $305 6.2831853071796004 $129 $306 forward 7 unknown #
vertex $-1 $132 $307 #
ellipse-curve $-1 61.99865938074705 22.191761351156259 5.0389974327166014 0.66913061440640931 0 0.74314481823134659 0.74314481823134659 0 -0.66913061440640931 1 I I #
coedge $-1 $214 $214 $-1 $308 reversed $135 $-1 #
edge $-1 $309 0 $309 6.2831853071796004 $136 $310 forward 7 unknown #
vertex $-1 $139 $311 #
ellipse-curve $-1 61.99865938074705 26.279271738255957 5.0389974327166014 0.66913061440640931 0 0.74314481823134659 0.74314481823134659 0 -0.66913061440640931 1 I I #
face $-1 $-1 $155 $21 $-1 $312 reversed single #
loop $-1 $-1 $234 $140 #
plane-surface $-1 0 29.004278662989087 0 0 -1 0 0 0 -1 forward_v I I I I #
coedge $-1 $313 $232 $235 $314 forward $141 $-1 #
coedge $-1 $238 $143 $144 $226 reversed $88 $-1 #
coedge $-1 $232 $313 $143 $224 reversed $141 $-1 #
edge $-1 $239 -6.7605541769599125 $315 6.7605541769599125 $223 $316 forward 7 unknown #
coedge $-1 $145 $144 $313 $317 forward $57 $-1 #
edge $-1 $230 -63.910641804254283 $315 63.910641804254283 $222 $318 forward 7 unknown #
coedge $-1 $235 $234 $145 $228 reversed $219 $-1 #
edge $-1 $319 -63.910641804254283 $229 63.910641804254283 $227 $320 forward 7 unknown #
vertex $-1 $147 $321 #
vertex $-1 $241 $322 #
straight-curve $-1 63.910641804254283 0 -6.7605541769599125 0 -1 0 I I #
coedge $-1 $221 $223 $148 $233 reversed $141 $-1 #
edge $-1 $236 -29.004278662989087 $239 29.004278662989087 $232 $323 forward 7 unknown #
coedge $-1 $227 $149 $154 $242 forward $219 $-1 #
coedge $-1 $149 $227 $221 $314 reversed $219 $-1 #
vertex $-1 $150 $324 #
straight-curve $-1 0 29.004278662989087 6.7605541769599125 -1 0 0 I I #
coedge $-1 $151 $222 $153 $241 reversed $88 $-1 #
vertex $-1 $233 $325 #
straight-curve $-1 0 -29.004278662989087 6.7605541769599125 1 0 0 I I #
edge $-1 $156 -6.7605541769599125 $230 6.7605541769599125 $153 $326 forward 7 unknown #
edge $-1 $157 -6.7605541769599125 $229 6.7605541769599125 $154 $327 forward 7 unknown #
point $-1 63.910641804254283 -29.004278662989087 6.7605541769599125 #
point $-1 63.910641804254283 29.004278662989087 6.7605541769599125 #
face $-1 $-1 $328 $22 $-1 $329 reversed single #
loop $-1 $-1 $169 $159 #
plane-surface $-1 0 -29.004278662989087 0 0 1 0 0 0 1 forward_v I I I I #
coedge $-1 $330 $162 $252 $331 forward $96 $-1 #
coedge $-1 $162 $330 $332 $333 forward $96 $-1 #
edge $-1 $334 -63.910641804254283 $253 63.910641804254283 $162 $335 forward 7 unknown #
coedge $-1 $164 $163 $336 $337 reversed $61 $-1 #
coedge $-1 $165 $171 $248 $331 reversed $160 $-1 #
vertex $-1 $331 $338 #
straight-curve $-1 63.910641804254283 -22.914778657555253 -2.6302770884799562 0 0 1 I I #
coedge $-1 $336 $339 $167 $256 forward $328 $-1 #
edge $-1 $261 -16.024514332853002 $257 -9.935014327419168 $255 $340 forward 7 unknown #
vertex $-1 $256 $341 #
straight-curve $-1 0 -22.914778657555253 -3.7605541769599125 -1 0 0 I I #
coedge $-1 $342 $169 $339 $343 forward $246 $-1 #
coedge $-1 $169 $342 $171 $263 reversed $246 $-1 #
vertex $-1 $343 $344 #
straight-curve $-1 0 -29.004278662989087 -3.7605541769599125 -1 0 0 I I #
edge $-1 $173 3.7605541769599125 $345 6.7605541769599125 $171 $346 forward 7 unknown #
point $-1 63.910641804254283 -22.914778657555253 -3.7605541769599125 #
point $-1 63.910641804254283 -29.004278662989087 -3.7605541769599125 #
loop $-1 $-1 $183 $175 #
plane-surface $-1 -63.910641804254283 0 0 1 0 0 0 0 -1 forward_v I I I I #
coedge $-1 $269 $178 $180 $273 reversed $104 $-1 #
coedge $-1 $178 $268 $347 $348 reversed $104 $-1 #
coedge $-1 $186 $181 $178 $271 forward $176 $-1 #
edge $-1 $274 -11.535628307973667 $349 -0.96109345686826941 $270 $350 forward 7 unknown #
coedge $-1 $180 $179 $277 $351 reversed $65 $-1 #
edge $-1 $352 1.6583994872760861e-014 $274 12.3366055765648 $268 $353 forward 7 unknown #
vertex $-1 $182 $354 #
straight-curve $-1 -53.336106953148885 -2.6073674483346956 6.7605541769599125 0 1 0 I I #
coedge $-1 $347 $183 $186 $281 reversed $266 $-1 #
coedge $-1 $183 $347 $272 $351 forward $266 $-1 #
vertex $-1 $184 $355 #
straight-curve $-1 -63.910641804254283 -12.571690604472932 54.985478311075866 0 0 1 I I #
straight-curve $-1 -63.910641804254297 -12.571690604472932 0.40673250536046623 -0.85716729658548041 0 -0.51503808176128008 I I #
edge $-1 $349 -2.1422208111341501 $187 12.571690604472932 $276 $356 forward 7 unknown #
point $-1 -63.910641804254283 -12.571690604472932 6.7605541769599125 #
point $-1 -53.336106953148885 -12.571690604472932 6.7605541769599125 #
edge $-1 $357 1 $357 0 $190 $-1 forward 7 unknown #
vertex $-1 $191 $358 #
ellipse-curve $-1 -54.471373985243318 -5.2147348966693912 -3.3264455992767239 -0.51503808176128008 0 0.85716729658548041 2.1429182414637009 0 1.2875952044032002 1 I I #
point $-1 -56.480456137237866 -5.2147348966693912 4.8712385455633829 #
plane-surface $-1 63.910641804254283 0 0 -1 0 0 0 0 1 forward_v I I I I #
coedge $-1 $202 $359 $293 $360 forward $195 $-1 #
coedge $-1 $291 $197 $359 $361 reversed $119 $-1 #
coedge $-1 $197 $290 $294 $362 forward $119 $-1 #
edge $-1 $295 -86.548172384522417 $363 -81.40252007934275 $197 $364 forward 7 unknown #
coedge $-1 $199 $198 $289 $360 reversed $74 $-1 #
coedge $-1 $205 $200 $291 $362 reversed $206 $-1 #
vertex $-1 $292 $365 #
straight-curve $-1 63.910641804254283 12.117758272353054 3.3174406884732832 0 1 0 I I #
coedge $-1 $359 $202 $205 $301 forward $195 $-1 #
vertex $-1 $203 $366 #
straight-curve $-1 27.225025633044517 19.46675442642313 6.7605541769599142 1 0 0 I I #
straight-curve $-1 -31.079082769088203 19.46675442642313 88.846574723650505 -0.74314481823134659 0 0.66913061440640931 I I #
edge $-1 $207 19.46675442642313 $367 29.004278662989087 $205 $368 forward 7 unknown #
point $-1 63.910641804254283 19.46675442642313 6.7605541769599125 #
point $-1 63.910641804254283 19.46675442642313 3.3174406884732832 #
edge $-1 $369 1 $369 0 $210 $-1 forward 7 unknown #
vertex $-1 $211 $370 #
ellipse-curve $-1 61.25270545717602 22.191761351156259 4.2105316877545 0.66913061440640931 0 0.74314481823134659 0.74314481823134659 0 -0.66913061440640931 1 I I #
point $-1 62.741804198978386 22.191761351156259 4.3698668183101823 #
edge $-1 $371 1 $371 0 $214 $-1 forward 7 unknown #
vertex $-1 $215 $372 #
ellipse-curve $-1 61.25270545717602 26.279271738255957 4.2105316877545 0.66913061440640931 0 0.74314481823134659 0.74314481823134659 0 -0.66913061440640931 1 I I #
point $-1 62.741804198978386 26.279271738255957 4.3698668183101823 #
plane-surface $-1 63.910641804254283 0 0 -1 0 0 0 0 1 forward_v I I I I #
coedge $-1 $223 $221 $225 $317 reversed $141 $-1 #
edge $-1 $236 -6.7605541769599125 $319 6.7605541769599125 $235 $373 forward 7 unknown #
vertex $-1 $317 $374 #
straight-curve $-1 -63.910641804254283 -29.004278662989087 0 0 0 -1 I I #
edge $-1 $315 -29.004278662989087 $319 29.004278662989087 $313 $375 forward 7 unknown #
straight-curve $-1 0 -29.004278662989087 -6.7605541769599125 -1 0 0 I I #
vertex $-1 $228 $376 #
straight-curve $-1 0 29.004278662989087 -6.7605541769599125 1 0 0 I I #
point $-1 63.910641804254283 29.004278662989087 -6.7605541769599125 #
point $-1 63.910641804254283 -29.004278662989087 -6.7605541769599125 #
straight-curve $-1 -63.910641804254283 0 6.7605541769599125 0 -1 0 I I #
point $-1 -63.910641804254283 29.004278662989087 6.7605541769599125 #
point $-1 -63.910641804254283 -29.004278662989087 6.7605541769599125 #
straight-curve $-1 63.910641804254283 -29.004278662989087 0 0 0 -1 I I #
straight-curve $-1 63.910641804254283 29.004278662989087 0 0 0 -1 I I #
loop $-1 $-1 $336 $245 #
plane-surface $-1 -63.910641804254283 0 0 1 0 0 0 0 -1 forward_v I I I I #
coedge $-1 $249 $248 $342 $377 forward $96 $-1 #
edge $-1 $253 22.914778657555253 $345 29.004278662989087 $252 $378 forward 7 unknown #
coedge $-1 $339 $336 $249 $333 reversed $328 $-1 #
edge $-1 $379 -29.004278662989087 $334 -22.914778657555253 $332 $380 forward 7 unknown #
vertex $-1 $337 $381 #
straight-curve $-1 0 -22.914778657555253 -6.7605541769599125 1 0 0 I I #
coedge $-1 $332 $255 $251 $337 forward $328 $-1 #
edge $-1 $257 1.1302770884799562 $334 4.1302770884799562 $336 $382 forward 7 unknown #
point $-1 63.910641804254283 -22.914778657555253 -6.7605541769599125 #
coedge $-1 $255 $332 $259 $343 reversed $328 $-1 #
straight-curve $-1 -63.910641804254283 -12.979764330136085 -3.7605541769599125 0 1 0 I I #
point $-1 -63.910641804254283 -22.914778657555253 -3.7605541769599125 #
coedge $-1 $260 $259 $330 $377 reversed $246 $-1 #
edge $-1 $261 3.7605541769599125 $379 6.7605541769599125 $339 $383 forward 7 unknown #
point $-1 -63.910641804254283 -29.004278662989087 -3.7605541769599125 #
vertex $-1 $263 $384 #
straight-curve $-1 63.910641804254283 -29.004278662989087 0 0 0 -1 I I #
coedge $-1 $277 $276 $269 $348 forward $266 $-1 #
edge $-1 $349 48.224924134115952 $352 54.578745805715393 $347 $385 forward 7 unknown #
vertex $-1 $281 $386 #
straight-curve $-1 -64.871735261122552 2.1422208111341501 6.7605541769599142 -1 0 0 I I #
edge $-1 $352 -4.7495882594688457 $278 9.9643231561382368 $277 $387 forward 7 unknown #
vertex $-1 $351 $388 #
straight-curve $-1 -63.910641804254297 2.1422208111341501 0.40673250536046623 0.85716729658548041 0 0.51503808176128008 I I #
point $-1 -53.336106953148885 2.1422208111341501 6.7605541769599125 #
point $-1 -63.910641804254283 -12.571690604472932 0.40673250536047478 #
straight-curve $-1 -63.910641804254283 0 6.7605541769599125 0 -1 0 I I #
vertex $-1 $284 $389 #
point $-1 -52.328455743779614 -5.2147348966693912 -2.0388503948735233 #
coedge $-1 $289 $297 $290 $361 forward $195 $-1 #
edge $-1 $363 -16.886520390636033 $298 -7.3489961540700754 $289 $390 forward 7 unknown #
edge $-1 $367 -63.910641804254283 $363 -60.086676957239831 $290 $391 forward 7 unknown #
edge $-1 $367 -6.7605541769599125 $295 -3.3174406884732783 $294 $392 forward 7 unknown #
vertex $-1 $292 $393 #
straight-curve $-1 -0.40718403069688591 29.004278662989087 61.229472451880596 -0.74314481823134659 0 0.66913061440640931 I I #
point $-1 63.910641804254283 29.004278662989087 3.3174406884732783 #
point $-1 60.086676957239831 19.46675442642313 6.7605541769599142 #
vertex $-1 $301 $394 #
straight-curve $-1 63.910641804254283 0 6.7605541769599125 0 1 0 I I #
vertex $-1 $304 $395 #
point $-1 61.995850275407363 22.191761351156259 3.5414010733480907 #
vertex $-1 $308 $396 #
point $-1 61.995850275407363 26.279271738255957 3.5414010733480907 #
straight-curve $-1 -63.910641804254283 29.004278662989087 0 0 0 -1 I I #
point $-1 -63.910641804254283 -29.004278662989087 -6.7605541769599125 #
straight-curve $-1 -63.910641804254283 0 -6.7605541769599125 0 1 0 I I #
point $-1 -63.910641804254283 29.004278662989087 -6.7605541769599125 #
edge $-1 $345 -63.910641804254283 $379 63.910641804254283 $342 $397 forward 7 unknown #
straight-curve $-1 63.910641804254283 0 -6.7605541769599125 0 -1 0 I I #
vertex $-1 $333 $398 #
straight-curve $-1 -63.910641804254283 0 -6.7605541769599125 0 1 0 I I #
point $-1 -63.910641804254283 -22.914778657555253 -6.7605541769599125 #
straight-curve $-1 -63.910641804254283 -22.914778657555253 -2.6302770884799562 0 0 -1 I I #
straight-curve $-1 -63.910641804254283 -29.004278662989087 0 0 0 -1 I I #
point $-1 63.910641804254283 -29.004278662989087 -6.7605541769599125 #
straight-curve $-1 -63.910641804254283 2.1422208111341501 54.985478311075866 0 0 -1 I I #
point $-1 -63.910641804254283 2.1422208111341501 6.7605541769599125 #
straight-curve $-1 -63.910641804254283 -2.6073674483346956 0.40673250536047456 0 -1 0 I I #
point $-1 -63.910641804254283 2.1422208111341501 0.40673250536047478 #
point $-1 -53.183778780840115 -5.2147348966693912 -5.4693638407404244 #
straight-curve $-1 60.086676957239838 12.117758272353054 6.7605541769599142 0 -1 0 I I #
straight-curve $-1 0 29.004278662989087 6.7605541769599125 -1 0 0 I I #
straight-curve $-1 63.910641804254283 29.004278662989087 0 0 0 -1 I I #
point $-1 60.086676957239831 29.004278662989087 6.7605541769599142 #
point $-1 63.910641804254283 29.004278662989087 6.7605541769599125 #
point $-1 60.583574842769607 22.191761351156259 3.4673868695231533 #
point $-1 60.583574842769607 26.279271738255957 3.4673868695231533 #
straight-curve $-1 0 -29.004278662989087 -6.7605541769599125 -1 0 0 I I #
point $-1 -63.910641804254283 -29.004278662989087 -6.7605541769599125 #
End-of-ACIS-data 