500 0 8 0           
7 Unknown 11 ACIS 5.0 NT 24 Thu Mar 25 16:07:10 1999 
-1 9.9999999999999995e-007 1e-010 
body $-1 $8 $-1 $9 #
body $-1 $10 $-1 $11 #
body $-1 $12 $-1 $13 #
body $-1 $14 $-1 $15 #
body $-1 $16 $-1 $17 #
body $-1 $18 $-1 $19 #
body $-1 $20 $-1 $21 #
body $-1 $22 $-1 $23 #
lump $-1 $-1 $24 $0 #
transform $-1 1 0 0 0 1 0 0 0 1 70.866420484023564 48.401633263599052 11.903135507209507 1 rotate no_reflect no_shear #
lump $-1 $-1 $25 $1 #
transform $-1 1 0 0 0 1 0 0 0 1 70.866420484023564 48.401633263599052 11.903135507209507 1 rotate no_reflect no_shear #
lump $-1 $-1 $26 $2 #
transform $-1 1 0 0 0 1 0 0 0 1 70.866420484023564 48.401633263599052 11.903135507209507 1 rotate no_reflect no_shear #
lump $-1 $-1 $27 $3 #
transform $-1 1 0 0 0 1 0 0 0 1 70.866420484023564 48.401633263599052 11.903135507209507 1 rotate no_reflect no_shear #
lump $-1 $-1 $28 $4 #
transform $-1 1 0 0 0 1 0 0 0 1 70.866420484023564 48.401633263599052 11.903135507209507 1 rotate no_reflect no_shear #
lump $-1 $-1 $29 $5 #
transform $-1 1 0 0 0 1 0 0 0 1 70.866420484023564 48.401633263599052 11.903135507209507 1 rotate no_reflect no_shear #
lump $-1 $-1 $30 $6 #
transform $-1 1 0 0 0 1 0 0 0 1 70.866420484023564 48.401633263599052 11.903135507209507 1 rotate no_reflect no_shear #
lump $-1 $-1 $31 $7 #
transform $-1 1 0 0 0 1 0 0 0 1 70.866420484023564 48.401633263599052 11.903135507209507 1 rotate no_reflect no_shear #
shell $-1 $-1 $-1 $32 $-1 $8 #
shell $-1 $-1 $-1 $33 $-1 $10 #
shell $-1 $-1 $-1 $34 $-1 $12 #
shell $-1 $-1 $-1 $35 $-1 $14 #
shell $-1 $-1 $-1 $36 $-1 $16 #
shell $-1 $-1 $-1 $37 $-1 $18 #
shell $-1 $-1 $-1 $38 $-1 $20 #
shell $-1 $-1 $-1 $39 $-1 $22 #
face $-1 $40 $41 $24 $-1 $42 forward single #
face $-1 $43 $44 $25 $-1 $45 reversed single #
face $-1 $46 $47 $26 $-1 $48 reversed single #
face $-1 $49 $50 $27 $-1 $51 forward single #
face $-1 $52 $53 $28 $-1 $54 forward single #
face $-1 $55 $56 $29 $-1 $57 reversed single #
face $-1 $58 $59 $30 $-1 $60 forward single #
face $-1 $61 $62 $31 $-1 $63 forward single #
face $-1 $64 $65 $24 $-1 $66 reversed single #
loop $-1 $-1 $67 $32 #
plane-surface $-1 0 0 11.903135507209507 0 0 1 1 0 0 forward_v I I I I #
face $-1 $68 $69 $25 $-1 $70 reversed single #
loop $-1 $-1 $71 $33 #
plane-surface $-1 -65.899405179604869 -41.336037809565227 0 0 -1 0 0 0 -1 forward_v I I I I #
face $-1 $72 $73 $26 $-1 $74 reversed single #
loop $-1 $-1 $75 $34 #
plane-surface $-1 -51.182930159949194 -48.401633263599066 7.1965223256310082 0 -0.52991927123019833 0.84804809178421925 1 0 0 forward_v I I I I #
face $-1 $76 $77 $27 $-1 $78 forward single #
loop $-1 $79 $80 $35 #
cone-surface $-1 -55.3612700379079 -43.699936787556574 8.0525259514252152 0 0.52991927123019833 -0.84804809178421925 2 0 0 1 I I 0 1 2 forward I I I I #
face $-1 $81 $82 $28 $-1 $83 forward single #
loop $-1 $84 $85 $36 #
cone-surface $-1 -47.004590281990481 -43.699936787556574 8.0525259514252152 0 0.52991927123019833 -0.84804809178421925 2 0 0 1 I I 0 1 2 forward I I I I #
face $-1 $86 $87 $29 $-1 $88 reversed single #
loop $-1 $-1 $89 $37 #
plane-surface $-1 54.379401721812634 120.03302431256799 156.0961294128615 1 0 0 0 -0.85716730853699208 -0.51503806187062418 forward_v I I I I #
face $-1 $90 $91 $30 $-1 $92 forward single #
loop $-1 $93 $94 $38 #
cone-surface $-1 59.089978511015744 43.832504276883213 5.3937627741555234 0 -0.85716730853699208 -0.51503806187062418 1.5 0 0 1 I I 0 1 1.5 forward I I I I #
face $-1 $95 $96 $31 $-1 $97 forward single #
loop $-1 $98 $99 $39 #
cone-surface $-1 66.155843694820419 43.832504276883213 5.3937627741555234 0 -0.85716730853699208 -0.51503806187062418 1.5 0 0 1 I I 0 1 1.5 forward I I I I #
face $-1 $100 $101 $24 $-1 $102 reversed single #
loop $-1 $-1 $103 $40 #
plane-surface $-1 0 0 -11.903135507209507 0 0 1 1 0 0 forward_v I I I I #
coedge $-1 $104 $105 $106 $107 forward $41 $-1 #
face $-1 $108 $109 $25 $-1 $110 forward single #
loop $-1 $-1 $111 $43 #
plane-surface $-1 -60.932389875186182 -44.868835536582139 0 -1 0 0 0 0 1 forward_v I I I I #
coedge $-1 $112 $113 $114 $115 forward $44 $-1 #
face $-1 $116 $117 $26 $-1 $118 forward single #
loop $-1 $-1 $119 $46 #
plane-surface $-1 -41.433470444712199 -123.5085970587722 127.3927876517396 -1 0 0 0 -0.52991927123019833 0.84804809178421925 forward_v I I I I #
coedge $-1 $120 $121 $122 $123 reversed $47 $-1 #
face $-1 $-1 $124 $27 $-1 $125 forward single #
loop $-1 $126 $127 $49 #
cone-surface $-1 -55.3612700379079 -42.23439876580052 5.7071748946459575 0 0.52991927123019833 -0.84804809178421925 1 0 0 1 I I -0.70710678118654746 0.70710678118654746 1 forward I I I I #
loop $-1 $-1 $128 $35 #
coedge $-1 $80 $80 $129 $130 reversed $50 $-1 #
face $-1 $-1 $131 $28 $-1 $132 forward single #
loop $-1 $133 $134 $52 #
cone-surface $-1 -47.004590281990481 -42.23439876580052 5.7071748946459575 0 0.52991927123019833 -0.84804809178421925 1 0 0 1 I I -0.70710678118654746 0.70710678118654746 1 forward I I I I #
loop $-1 $-1 $135 $36 #
coedge $-1 $85 $85 $136 $137 reversed $53 $-1 #
face $-1 $138 $139 $29 $-1 $140 forward single #
loop $-1 $-1 $141 $55 #
plane-surface $-1 62.622911102918096 -1.4557335113144916 83.098321697261113 0 0.85716730853699208 0.51503806187062418 1 0 0 forward_v I I I I #
coedge $-1 $142 $143 $144 $145 reversed $56 $-1 #
face $-1 $-1 $146 $30 $-1 $147 forward single #
loop $-1 $148 $149 $58 #
cone-surface $-1 59.089978511015744 42.159992110278409 4.3888161130265271 0 -0.85716730853699208 -0.51503806187062418 0.75 0 0 1 I I -0.70710678118654757 0.70710678118654757 0.75 forward I I I I #
loop $-1 $-1 $150 $38 #
coedge $-1 $94 $94 $151 $152 reversed $59 $-1 #
face $-1 $-1 $153 $31 $-1 $154 forward single #
loop $-1 $155 $156 $61 #
cone-surface $-1 66.155843694820419 42.159992110278409 4.3888161130265271 0 -0.85716730853699208 -0.51503806187062418 0.75 0 0 1 I I -0.70710678118654757 0.70710678118654757 0.75 forward I I I I #
loop $-1 $-1 $157 $39 #
coedge $-1 $99 $99 $158 $159 reversed $62 $-1 #
face $-1 $160 $161 $24 $-1 $162 reversed single #
loop $-1 $-1 $163 $64 #
plane-surface $-1 0 -48.401633263599052 0 0 1 0 0 0 1 forward_v I I I I #
coedge $-1 $164 $165 $166 $167 forward $65 $-1 #
coedge $-1 $168 $67 $169 $170 forward $41 $-1 #
coedge $-1 $67 $168 $171 $172 forward $41 $-1 #
coedge $-1 $173 $174 $67 $107 reversed $175 $-1 #
edge $-1 $176 -48.401633263599052 $177 48.401633263599052 $106 $178 forward 7 unknown #
face $-1 $179 $180 $25 $-1 $181 reversed single #
loop $-1 $-1 $182 $68 #
plane-surface $-1 0 0 11.903135507209507 0 0 1 1 0 0 forward_v I I I I #
coedge $-1 $183 $184 $185 $186 reversed $69 $-1 #
coedge $-1 $187 $71 $188 $189 reversed $44 $-1 #
coedge $-1 $71 $187 $190 $191 reversed $44 $-1 #
coedge $-1 $184 $183 $71 $115 reversed $69 $-1 #
edge $-1 $192 -11.903135507209507 $193 11.903135507209507 $114 $194 forward 7 unknown #
face $-1 $195 $196 $26 $-1 $197 forward single #
loop $-1 $-1 $198 $72 #
plane-surface $-1 0 0 11.903135507209507 0 0 1 1 0 0 forward_v I I I I #
coedge $-1 $199 $200 $201 $202 reversed $73 $-1 #
coedge $-1 $203 $75 $204 $205 reversed $47 $-1 #
coedge $-1 $75 $203 $199 $206 forward $47 $-1 #
coedge $-1 $201 $207 $75 $123 forward $208 $-1 #
edge $-1 $209 -35.340924795211585 $210 -15.842005364737602 $122 $211 forward 7 unknown #
loop $-1 $-1 $129 $76 #
plane-surface $-1 -51.182930159949194 -48.401633263599066 7.1965223256310082 0 -0.52991927123019833 0.84804809178421925 1 0 0 forward_v I I I I #
loop $-1 $-1 $212 $49 #
coedge $-1 $127 $127 $128 $213 reversed $77 $-1 #
coedge $-1 $128 $128 $127 $213 forward $79 $-1 #
coedge $-1 $129 $129 $80 $130 forward $124 $-1 #
edge $-1 $214 -2.817679702666988e-016 $214 6.2831853071796004 $129 $215 forward 7 unknown #
loop $-1 $-1 $136 $81 #
plane-surface $-1 -51.182930159949194 -48.401633263599066 7.1965223256310082 0 -0.52991927123019833 0.84804809178421925 1 0 0 forward_v I I I I #
loop $-1 $-1 $216 $52 #
coedge $-1 $134 $134 $135 $217 reversed $82 $-1 #
coedge $-1 $135 $135 $134 $217 forward $84 $-1 #
coedge $-1 $136 $136 $85 $137 forward $131 $-1 #
edge $-1 $218 -2.817679702666988e-016 $218 6.2831853071796004 $136 $219 forward 7 unknown #
face $-1 $220 $221 $29 $-1 $222 reversed single #
loop $-1 $-1 $144 $86 #
plane-surface $-1 0 0 11.903135507209507 0 0 1 1 0 0 forward_v I I I I #
coedge $-1 $223 $224 $225 $226 reversed $87 $-1 #
coedge $-1 $143 $89 $227 $228 reversed $56 $-1 #
coedge $-1 $89 $142 $223 $229 reversed $56 $-1 #
coedge $-1 $225 $230 $89 $145 forward $139 $-1 #
edge $-1 $231 11.614878892684942 $232 18.693863495712442 $144 $233 forward 7 unknown #
loop $-1 $-1 $151 $90 #
plane-surface $-1 62.622911102918096 -1.4557335113144916 83.098321697261113 0 0.85716730853699208 0.51503806187062418 1 0 0 forward_v I I I I #
loop $-1 $-1 $234 $58 #
coedge $-1 $149 $149 $150 $235 reversed $91 $-1 #
coedge $-1 $150 $150 $149 $235 forward $93 $-1 #
coedge $-1 $151 $151 $94 $152 forward $146 $-1 #
edge $-1 $236 9.9761831218881699e-016 $236 6.2831853071796013 $151 $237 forward 7 unknown #
loop $-1 $-1 $158 $95 #
plane-surface $-1 62.622911102918096 -1.4557335113144916 83.098321697261113 0 0.85716730853699208 0.51503806187062418 1 0 0 forward_v I I I I #
loop $-1 $-1 $238 $61 #
coedge $-1 $156 $156 $157 $239 reversed $96 $-1 #
coedge $-1 $157 $157 $156 $239 forward $98 $-1 #
coedge $-1 $158 $158 $99 $159 forward $153 $-1 #
edge $-1 $240 9.9761831218881699e-016 $240 6.2831853071796013 $158 $241 forward 7 unknown #
face $-1 $242 $243 $24 $-1 $244 reversed single #
loop $-1 $-1 $245 $100 #
plane-surface $-1 -70.866420484023564 0 0 1 0 0 0 0 -1 forward_v I I I I #
coedge $-1 $246 $171 $247 $248 forward $101 $-1 #
coedge $-1 $249 $103 $246 $250 forward $65 $-1 #
coedge $-1 $103 $249 $251 $252 forward $65 $-1 #
coedge $-1 $174 $173 $103 $167 reversed $175 $-1 #
edge $-1 $253 -48.401633263599052 $254 48.401633263599052 $166 $255 forward 7 unknown #
coedge $-1 $105 $104 $256 $257 forward $41 $-1 #
coedge $-1 $258 $259 $104 $170 reversed $243 $-1 #
edge $-1 $177 -70.866420484023564 $260 70.866420484023564 $169 $261 forward 7 unknown #
coedge $-1 $163 $262 $105 $172 reversed $101 $-1 #
edge $-1 $263 -70.866420484023564 $176 70.866420484023564 $171 $264 forward 7 unknown #
coedge $-1 $166 $106 $262 $265 forward $175 $-1 #
coedge $-1 $106 $166 $258 $266 reversed $175 $-1 #
loop $-1 $-1 $173 $242 #
vertex $-1 $107 $267 #
vertex $-1 $107 $268 #
straight-curve $-1 70.866420484023564 0 11.903135507209507 0 1 0 I I #
face $-1 $269 $270 $25 $-1 $271 reversed single #
loop $-1 $-1 $272 $108 #
plane-surface $-1 -70.866420484023564 0 0 1 0 0 0 0 -1 forward_v I I I I #
coedge $-1 $190 $273 $184 $274 forward $109 $-1 #
coedge $-1 $114 $111 $275 $276 reversed $69 $-1 #
coedge $-1 $111 $114 $182 $274 reversed $69 $-1 #
coedge $-1 $277 $278 $111 $186 forward $279 $-1 #
edge $-1 $280 -11.903135507209507 $281 11.903135507209507 $185 $282 forward 7 unknown #
coedge $-1 $113 $112 $272 $283 reversed $44 $-1 #
coedge $-1 $275 $284 $112 $189 forward $270 $-1 #
edge $-1 $285 -37.916717894221129 $193 -27.982687285383747 $188 $286 forward 7 unknown #
coedge $-1 $287 $182 $113 $191 forward $109 $-1 #
edge $-1 $192 27.982687285383747 $288 37.916717894221129 $190 $289 forward 7 unknown #
vertex $-1 $191 $290 #
vertex $-1 $189 $291 #
straight-curve $-1 -60.932389875186182 -41.336037809565227 0 0 0 -1 I I #
face $-1 $-1 $208 $26 $-1 $292 reversed single #
loop $-1 $-1 $204 $116 #
plane-surface $-1 -60.932389875186182 -44.868835536582139 0 -1 0 0 0 0 1 forward_v I I I I #
coedge $-1 $293 $294 $200 $295 forward $117 $-1 #
coedge $-1 $200 $119 $121 $206 reversed $73 $-1 #
coedge $-1 $119 $199 $198 $295 reversed $73 $-1 #
coedge $-1 $296 $122 $119 $202 forward $208 $-1 #
edge $-1 $210 -56.499871500238783 $297 -51.793258318660293 $201 $298 forward 7 unknown #
coedge $-1 $121 $120 $293 $299 reversed $47 $-1 #
coedge $-1 $300 $301 $120 $205 forward $196 $-1 #
edge $-1 $302 -9.2905518319823202 $209 -0.40879674756696766 $204 $303 forward 7 unknown #
edge $-1 $304 -8.8817550844153672 $210 -1.675811683274863e-014 $199 $305 forward 7 unknown #
coedge $-1 $122 $296 $300 $306 forward $208 $-1 #
loop $-1 $-1 $201 $195 #
vertex $-1 $205 $307 #
vertex $-1 $123 $308 #
straight-curve $-1 -25.591465079974597 -48.401633263599052 7.1965223256310198 1 0 0 I I #
coedge $-1 $212 $212 $-1 $309 reversed $126 $-1 #
edge $-1 $310 0 $310 6.2831853071796004 $127 $311 forward 7 unknown #
vertex $-1 $130 $312 #
ellipse-curve $-1 -55.3612700379079 -44.635555538082436 9.5498289164202657 0 -0.52991927123019833 0.84804809178421925 2 0 0 1 I I #
coedge $-1 $216 $216 $-1 $313 reversed $133 $-1 #
edge $-1 $314 0 $314 6.2831853071796004 $134 $315 forward 7 unknown #
vertex $-1 $137 $316 #
ellipse-curve $-1 -47.004590281990481 -44.635555538082436 9.5498289164202657 0 -0.52991927123019833 0.84804809178421925 2 0 0 1 I I #
face $-1 $-1 $317 $29 $-1 $318 reversed single #
loop $-1 $-1 $319 $138 #
plane-surface $-1 70.866420484023564 0 0 -1 0 0 0 0 1 forward_v I I I I #
coedge $-1 $320 $141 $143 $229 forward $87 $-1 #
coedge $-1 $141 $320 $319 $321 reversed $87 $-1 #
coedge $-1 $322 $144 $141 $226 forward $139 $-1 #
edge $-1 $232 23.067946170353586 $323 39.554964932564516 $225 $324 forward 7 unknown #
coedge $-1 $325 $326 $142 $228 forward $317 $-1 #
edge $-1 $327 -77.926338435877071 $231 -66.144929199221238 $227 $328 forward 7 unknown #
edge $-1 $232 83.058681171085638 $327 96.803266527198048 $143 $329 forward 7 unknown #
coedge $-1 $144 $322 $325 $330 forward $139 $-1 #
vertex $-1 $228 $331 #
vertex $-1 $145 $332 #
straight-curve $-1 54.379401721812634 60.016512156283994 11.903135507209512 0 -1 0 I I #
coedge $-1 $234 $234 $-1 $333 reversed $148 $-1 #
edge $-1 $334 0 $334 6.2831853071796004 $149 $335 forward 7 unknown #
vertex $-1 $152 $336 #
ellipse-curve $-1 59.089978511015744 44.862140962085313 6.0124308888815747 0 0.85716730853699208 0.51503806187062418 1.5 0 0 1 I I #
coedge $-1 $238 $238 $-1 $337 reversed $155 $-1 #
edge $-1 $338 0 $338 6.2831853071796004 $156 $339 forward 7 unknown #
vertex $-1 $159 $340 #
ellipse-curve $-1 66.155843694820419 44.862140962085313 6.0124308888815747 0 0.85716730853699208 0.51503806187062418 1.5 0 0 1 I I #
face $-1 $-1 $175 $24 $-1 $341 reversed single #
loop $-1 $-1 $258 $160 #
plane-surface $-1 0 48.401633263599052 0 0 -1 0 0 0 -1 forward_v I I I I #
coedge $-1 $342 $256 $259 $343 forward $161 $-1 #
coedge $-1 $262 $163 $164 $250 reversed $101 $-1 #
coedge $-1 $256 $342 $163 $248 reversed $161 $-1 #
edge $-1 $263 -11.903135507209507 $344 11.903135507209507 $247 $345 forward 7 unknown #
coedge $-1 $165 $164 $342 $346 forward $65 $-1 #
edge $-1 $254 -70.866420484023564 $344 70.866420484023564 $246 $347 forward 7 unknown #
coedge $-1 $259 $258 $165 $252 reversed $243 $-1 #
edge $-1 $348 -70.866420484023564 $253 70.866420484023564 $251 $349 forward 7 unknown #
vertex $-1 $167 $350 #
vertex $-1 $265 $351 #
straight-curve $-1 70.866420484023564 0 -11.903135507209507 0 -1 0 I I #
coedge $-1 $245 $247 $168 $257 reversed $161 $-1 #
edge $-1 $260 -48.401633263599052 $263 48.401633263599052 $256 $352 forward 7 unknown #
coedge $-1 $251 $169 $174 $266 forward $243 $-1 #
coedge $-1 $169 $251 $245 $343 reversed $243 $-1 #
vertex $-1 $170 $353 #
straight-curve $-1 0 48.401633263599052 11.903135507209507 -1 0 0 I I #
coedge $-1 $171 $246 $173 $265 reversed $101 $-1 #
vertex $-1 $257 $354 #
straight-curve $-1 0 -48.401633263599052 11.903135507209507 1 0 0 I I #
edge $-1 $176 -11.903135507209507 $254 11.903135507209507 $173 $355 forward 7 unknown #
edge $-1 $177 -11.903135507209507 $253 11.903135507209507 $174 $356 forward 7 unknown #
point $-1 70.866420484023564 -48.401633263599052 11.903135507209507 #
point $-1 70.866420484023564 48.401633263599052 11.903135507209507 #
face $-1 $-1 $279 $25 $-1 $357 reversed single #
loop $-1 $-1 $275 $179 #
plane-surface $-1 0 0 -11.903135507209507 0 0 1 1 0 0 forward_v I I I I #
coedge $-1 $358 $359 $187 $283 forward $180 $-1 #
coedge $-1 $182 $287 $277 $360 forward $109 $-1 #
edge $-1 $281 -25.967215495307983 $192 -18.901620041274157 $182 $361 forward 7 unknown #
coedge $-1 $362 $188 $183 $276 forward $270 $-1 #
edge $-1 $193 18.901620041274157 $280 25.967215495307983 $275 $363 forward 7 unknown #
coedge $-1 $364 $185 $273 $360 reversed $279 $-1 #
coedge $-1 $185 $364 $362 $365 reversed $279 $-1 #
loop $-1 $-1 $185 $269 #
vertex $-1 $365 $366 #
vertex $-1 $186 $367 #
straight-curve $-1 -60.932389875186182 -48.401633263599052 0 0 0 1 I I #
edge $-1 $288 -11.903135507209507 $285 11.903135507209507 $272 $368 forward 7 unknown #
coedge $-1 $188 $362 $358 $369 forward $270 $-1 #
vertex $-1 $189 $370 #
straight-curve $-1 -32.949702589802435 -41.336037809565227 -11.903135507209507 1 0 0 I I #
coedge $-1 $273 $190 $359 $371 forward $109 $-1 #
vertex $-1 $371 $372 #
straight-curve $-1 -32.949702589802435 -41.336037809565227 11.903135507209507 -1 0 0 I I #
point $-1 -60.932389875186182 -41.336037809565227 11.903135507209507 #
point $-1 -60.932389875186182 -41.336037809565227 -11.903135507209507 #
plane-surface $-1 0 -48.401633263599052 0 0 1 0 0 0 1 forward_v I I I I #
coedge $-1 $373 $198 $203 $299 forward $117 $-1 #
coedge $-1 $198 $373 $296 $374 forward $117 $-1 #
edge $-1 $297 13.352665265787046 $304 20.884820716820272 $198 $375 forward 7 unknown #
coedge $-1 $207 $201 $294 $374 reversed $208 $-1 #
vertex $-1 $295 $376 #
straight-curve $-1 -41.433470444712199 -48.401633263599052 63.696393825869798 0 0 1 I I #
edge $-1 $304 15.842005364737602 $302 35.340924795211592 $293 $377 forward 7 unknown #
coedge $-1 $301 $204 $207 $306 reversed $196 $-1 #
coedge $-1 $204 $300 $373 $378 reversed $196 $-1 #
vertex $-1 $378 $379 #
straight-curve $-1 -60.932389875186182 -48.748312565300814 6.9798930510790544 0 -0.84804809178421925 -0.52991927123019833 I I #
vertex $-1 $299 $380 #
straight-curve $-1 -41.433470444712199 -48.401633263599066 7.1965223256310082 0 -0.84804809178421925 -0.52991927123019833 I I #
edge $-1 $381 -11.903135507209507 $209 -7.1965223256310171 $207 $382 forward 7 unknown #
point $-1 -60.932389875186182 -48.401633263599052 7.1965223256310171 #
point $-1 -41.433470444712199 -48.401633263599052 7.1965223256310171 #
edge $-1 $383 1 $383 0 $212 $-1 forward 7 unknown #
vertex $-1 $213 $384 #
ellipse-curve $-1 -55.3612700379079 -42.764318037030719 6.5552229864301772 0 -0.52991927123019833 0.84804809178421925 2 0 0 1 I I #
point $-1 -53.3612700379079 -44.635555538082428 9.5498289164202532 #
edge $-1 $385 1 $385 0 $216 $-1 forward 7 unknown #
vertex $-1 $217 $386 #
ellipse-curve $-1 -47.004590281990481 -42.764318037030719 6.5552229864301772 0 -0.52991927123019833 0.84804809178421925 2 0 0 1 I I #
point $-1 -45.004590281990481 -44.635555538082428 9.5498289164202532 #
loop $-1 $-1 $227 $220 #
plane-surface $-1 0 48.401633263599052 0 0 -1 0 0 0 -1 forward_v I I I I #
coedge $-1 $387 $388 $224 $321 forward $221 $-1 #
coedge $-1 $224 $223 $326 $389 reversed $87 $-1 #
edge $-1 $323 47.069219711360631 $390 60.813805067473041 $319 $391 forward 7 unknown #
coedge $-1 $230 $225 $388 $392 forward $139 $-1 #
vertex $-1 $392 $393 #
straight-curve $-1 31.311455551459048 41.322648660571545 11.903135507209512 1 0 0 I I #
coedge $-1 $394 $227 $230 $330 reversed $317 $-1 #
coedge $-1 $227 $394 $320 $389 forward $317 $-1 #
vertex $-1 $228 $395 #
straight-curve $-1 54.379401721812634 48.401633263599052 78.04806470643075 0 0 1 I I #
straight-curve $-1 54.379401721812634 -1.4557335113144916 83.098321697261113 0 0.51503806187062418 -0.85716730853699208 I I #
edge $-1 $396 -70.866420484023564 $231 -54.379401721812634 $325 $397 forward 7 unknown #
point $-1 54.379401721812634 48.401633263599052 11.903135507209507 #
point $-1 54.379401721812634 41.322648660571552 11.903135507209512 #
edge $-1 $398 1 $398 0 $234 $-1 forward 7 unknown #
vertex $-1 $235 $399 #
ellipse-curve $-1 59.089978511015744 42.802867591681157 4.7750946594294952 0 0.85716730853699208 0.51503806187062418 1.5 0 0 1 I I #
point $-1 60.589978511015744 44.862140962085277 6.0124308888815516 #
edge $-1 $400 1 $400 0 $238 $-1 forward 7 unknown #
vertex $-1 $239 $401 #
ellipse-curve $-1 66.155843694820419 42.802867591681157 4.7750946594294952 0 0.85716730853699208 0.51503806187062418 1.5 0 0 1 I I #
point $-1 67.655843694820419 44.862140962085277 6.0124308888815516 #
plane-surface $-1 70.866420484023564 0 0 -1 0 0 0 0 1 forward_v I I I I #
coedge $-1 $247 $245 $249 $346 reversed $161 $-1 #
edge $-1 $260 -11.903135507209507 $348 11.903135507209507 $259 $402 forward 7 unknown #
vertex $-1 $346 $403 #
straight-curve $-1 -70.866420484023564 -48.401633263599052 0 0 0 -1 I I #
edge $-1 $344 -48.401633263599052 $348 48.401633263599052 $342 $404 forward 7 unknown #
straight-curve $-1 0 -48.401633263599052 -11.903135507209507 -1 0 0 I I #
vertex $-1 $252 $405 #
straight-curve $-1 0 48.401633263599052 -11.903135507209507 1 0 0 I I #
point $-1 70.866420484023564 48.401633263599052 -11.903135507209507 #
point $-1 70.866420484023564 -48.401633263599052 -11.903135507209507 #
straight-curve $-1 -70.866420484023564 0 11.903135507209507 0 -1 0 I I #
point $-1 -70.866420484023564 48.401633263599052 11.903135507209507 #
point $-1 -70.866420484023564 -48.401633263599052 11.903135507209507 #
straight-curve $-1 70.866420484023564 -48.401633263599052 0 0 0 -1 I I #
straight-curve $-1 70.866420484023564 48.401633263599052 0 0 0 -1 I I #
plane-surface $-1 0 -48.401633263599052 0 0 1 0 0 0 1 forward_v I I I I #
coedge $-1 $406 $272 $284 $369 reversed $180 $-1 #
coedge $-1 $272 $406 $287 $371 reversed $180 $-1 #
edge $-1 $407 -70.866420484023564 $281 -60.932389875186182 $277 $408 forward 7 unknown #
straight-curve $-1 -60.932389875186182 -22.43441776829107 11.903135507209507 0 1 0 I I #
coedge $-1 $284 $275 $278 $365 forward $270 $-1 #
straight-curve $-1 -60.932389875186182 -22.43441776829107 -11.903135507209507 0 -1 0 I I #
coedge $-1 $278 $277 $406 $409 forward $279 $-1 #
edge $-1 $280 60.932389875186182 $410 70.866420484023564 $278 $411 forward 7 unknown #
point $-1 -60.932389875186182 -48.401633263599052 -11.903135507209507 #
point $-1 -60.932389875186182 -48.401633263599052 11.903135507209507 #
straight-curve $-1 -70.866420484023564 -41.336037809565227 0 0 0 -1 I I #
edge $-1 $410 -48.401633263599052 $285 -41.336037809565227 $358 $412 forward 7 unknown #
point $-1 -70.866420484023564 -41.336037809565227 -11.903135507209507 #
edge $-1 $288 41.336037809565227 $407 48.401633263599052 $359 $413 forward 7 unknown #
point $-1 -70.866420484023564 -41.336037809565227 11.903135507209507 #
coedge $-1 $294 $293 $301 $378 forward $117 $-1 #
edge $-1 $381 -60.932389875186182 $297 -41.433470444712199 $296 $414 forward 7 unknown #
straight-curve $-1 -41.433470444712199 -61.754298529386098 11.903135507209505 0 1 0 I I #
point $-1 -41.433470444712199 -48.401633263599052 11.903135507209507 #
straight-curve $-1 -25.591465079974597 -40.869477812565826 11.903135507209505 -1 0 0 I I #
edge $-1 $302 -20.884820716820272 $381 -13.352665265787046 $373 $415 forward 7 unknown #
point $-1 -60.932389875186189 -40.869477812565826 11.903135507209507 #
point $-1 -41.433470444712199 -40.869477812565826 11.903135507209507 #
vertex $-1 $374 $416 #
straight-curve $-1 -60.932389875186182 -48.401633263599052 0 0 0 -1 I I #
vertex $-1 $309 $417 #
point $-1 -53.3612700379079 -42.764318037030719 6.5552229864301772 #
vertex $-1 $313 $418 #
point $-1 -45.004590281990481 -42.764318037030719 6.5552229864301772 #
coedge $-1 $388 $319 $394 $419 reversed $221 $-1 #
coedge $-1 $319 $387 $322 $392 reversed $221 $-1 #
edge $-1 $390 -39.554964932564516 $327 -23.067946170353586 $326 $420 forward 7 unknown #
vertex $-1 $321 $421 #
straight-curve $-1 70.866420484023564 17.08020896666979 52.249331882132836 0 0.51503806187062429 -0.85716730853699219 I I #
edge $-1 $323 41.322648660571552 $396 48.401633263599052 $388 $422 forward 7 unknown #
point $-1 70.866420484023564 41.322648660571552 11.903135507209512 #
coedge $-1 $326 $325 $387 $419 forward $317 $-1 #
point $-1 54.379401721812634 48.401633263599052 0.12172627055367968 #
vertex $-1 $392 $423 #
straight-curve $-1 0 48.401633263599052 11.903135507209507 -1 0 0 I I #
vertex $-1 $333 $424 #
point $-1 60.589978511015744 42.802867591681157 4.7750946594294952 #
vertex $-1 $337 $425 #
point $-1 67.655843694820419 42.802867591681157 4.7750946594294952 #
straight-curve $-1 -70.866420484023564 48.401633263599052 0 0 0 -1 I I #
point $-1 -70.866420484023564 -48.401633263599052 -11.903135507209507 #
straight-curve $-1 -70.866420484023564 0 -11.903135507209507 0 1 0 I I #
point $-1 -70.866420484023564 48.401633263599052 -11.903135507209507 #
coedge $-1 $359 $358 $364 $409 reversed $180 $-1 #
vertex $-1 $371 $426 #
straight-curve $-1 0 -48.401633263599052 11.903135507209507 1 0 0 I I #
edge $-1 $407 -11.903135507209507 $410 11.903135507209507 $406 $427 forward 7 unknown #
vertex $-1 $369 $428 #
straight-curve $-1 0 -48.401633263599052 -11.903135507209507 -1 0 0 I I #
straight-curve $-1 -70.866420484023564 0 -11.903135507209507 0 1 0 I I #
straight-curve $-1 -70.866420484023564 0 11.903135507209507 0 -1 0 I I #
straight-curve $-1 0 -48.401633263599052 11.903135507209507 1 0 0 I I #
straight-curve $-1 -60.932389875186189 -61.754298529386098 11.903135507209505 0 -1 0 I I #
point $-1 -60.932389875186182 -48.401633263599052 11.903135507209507 #
point $-1 -55.3612700379079 -41.704479494570322 4.8591268028617378 #
point $-1 -47.004590281990481 -41.704479494570322 4.8591268028617378 #
edge $-1 $396 -11.903135507209507 $390 -0.12172627055367968 $387 $429 forward 7 unknown #
straight-curve $-1 31.311455551459048 48.401633263599052 0.12172627055367968 -1 0 0 I I #
point $-1 70.866420484023564 48.401633263599052 0.12172627055367968 #
straight-curve $-1 70.866420484023564 0 11.903135507209507 0 1 0 I I #
point $-1 70.866420484023564 48.401633263599052 11.903135507209507 #
point $-1 59.089978511015744 41.517116628875662 4.002537566623559 #
point $-1 66.155843694820419 41.517116628875662 4.002537566623559 #
point $-1 -70.866420484023564 -48.401633263599052 11.903135507209507 #
straight-curve $-1 -70.866420484023564 -48.401633263599052 0 0 0 -1 I I #
point $-1 -70.866420484023564 -48.401633263599052 -11.903135507209507 #
straight-curve $-1 70.866420484023564 48.401633263599052 0 0 0 -1 I I #
End-of-ACIS-data 