500 0 7 0           
7 Unknown 11 ACIS 5.0 NT 24 Thu Mar 25 22:21:32 1999 
-1 9.9999999999999995e-007 1e-010 
body $-1 $7 $-1 $8 #
body $-1 $9 $-1 $10 #
body $-1 $11 $-1 $12 #
body $-1 $13 $-1 $14 #
body $-1 $15 $-1 $16 #
body $-1 $17 $-1 $18 #
body $-1 $19 $-1 $20 #
lump $-1 $-1 $21 $0 #
transform $-1 1 0 0 0 1 0 0 0 1 46.952116458632162 24.051514327518134 5.7190885306209767 1 rotate no_reflect no_shear #
lump $-1 $-1 $22 $1 #
transform $-1 1 0 0 0 1 0 0 0 1 46.952116458632162 24.051514327518134 5.7190885306209767 1 rotate no_reflect no_shear #
lump $-1 $-1 $23 $2 #
transform $-1 1 0 0 0 1 0 0 0 1 46.952116458632162 24.051514327518134 5.7190885306209767 1 rotate no_reflect no_shear #
lump $-1 $-1 $24 $3 #
transform $-1 1 0 0 0 1 0 0 0 1 46.952116458632162 24.051514327518134 5.7190885306209767 1 rotate no_reflect no_shear #
lump $-1 $-1 $25 $4 #
transform $-1 1 0 0 0 1 0 0 0 1 46.952116458632162 24.051514327518134 5.7190885306209767 1 rotate no_reflect no_shear #
lump $-1 $-1 $26 $5 #
transform $-1 1 0 0 0 1 0 0 0 1 46.952116458632162 24.051514327518134 5.7190885306209767 1 rotate no_reflect no_shear #
lump $-1 $-1 $27 $6 #
transform $-1 1 0 0 0 1 0 0 0 1 46.952116458632162 24.051514327518134 5.7190885306209767 1 rotate no_reflect no_shear #
shell $-1 $-1 $-1 $28 $-1 $7 #
shell $-1 $-1 $-1 $29 $-1 $9 #
shell $-1 $-1 $-1 $30 $-1 $11 #
shell $-1 $-1 $-1 $31 $-1 $13 #
shell $-1 $-1 $-1 $32 $-1 $15 #
shell $-1 $-1 $-1 $33 $-1 $17 #
shell $-1 $-1 $-1 $34 $-1 $19 #
face $-1 $35 $36 $21 $-1 $37 forward single #
face $-1 $38 $39 $22 $-1 $40 forward single #
face $-1 $41 $42 $23 $-1 $43 reversed single #
face $-1 $44 $45 $24 $-1 $46 forward single #
face $-1 $47 $48 $25 $-1 $49 reversed single #
face $-1 $50 $51 $26 $-1 $52 forward single #
face $-1 $53 $54 $27 $-1 $55 forward single #
face $-1 $56 $57 $21 $-1 $58 reversed single #
loop $-1 $-1 $59 $28 #
plane-surface $-1 0 0 5.7190885306209767 0 0 1 1 0 0 forward_v I I I I #
face $-1 $60 $61 $22 $-1 $62 forward single #
loop $-1 $-1 $63 $29 #
plane-surface $-1 -46.952116458632162 0 0 1 0 0 0 0 -1 forward_v I I I I #
face $-1 $64 $65 $23 $-1 $66 reversed single #
loop $-1 $-1 $67 $30 #
plane-surface $-1 -41.552575694472303 38.509076286359686 106.98888963525661 1 0 0 0 -0.57357644374324357 -0.81915203911291934 forward_v I I I I #
face $-1 $68 $69 $24 $-1 $70 forward single #
loop $-1 $71 $72 $31 #
cone-surface $-1 -30.091964895795893 20.789256205888847 2.7457229861547376 0 -0.57357644374324357 -0.81915203911291934 1 0 0 1 I I 0 1 1 forward I I I I #
face $-1 $73 $74 $25 $-1 $75 reversed single #
loop $-1 $-1 $76 $32 #
plane-surface $-1 -28.08280277359713 -80.564493150142312 75.912460306360174 -1 0 0 0 -0.6018150307709319 0.79863550430605224 forward_v I I I I #
face $-1 $77 $78 $26 $-1 $79 forward single #
loop $-1 $80 $81 $33 #
cone-surface $-1 -37.704069145650827 -20.423064832456568 2.7312048344053284 0 0.6018150307709319 -0.79863550430605224 1 0 0 1 I I 0 1 1 forward I I I I #
face $-1 $82 $83 $27 $-1 $84 forward single #
loop $-1 $85 $86 $34 #
cone-surface $-1 -31.931309322418613 -20.423064832456568 2.7312048344053284 0 0.6018150307709319 -0.79863550430605224 1 0 0 1 I I 0 1 1 forward I I I I #
face $-1 $87 $88 $21 $-1 $89 reversed single #
loop $-1 $-1 $90 $35 #
plane-surface $-1 0 0 -5.7190885306209767 0 0 1 1 0 0 forward_v I I I I #
coedge $-1 $91 $92 $93 $94 forward $36 $-1 #
face $-1 $95 $96 $22 $-1 $97 reversed single #
loop $-1 $-1 $98 $38 #
plane-surface $-1 0 0 5.7190885306209767 0 0 1 1 0 0 forward_v I I I I #
coedge $-1 $99 $100 $101 $102 forward $39 $-1 #
face $-1 $103 $104 $23 $-1 $105 reversed single #
loop $-1 $-1 $106 $41 #
plane-surface $-1 -30.091964895795893 -15.352179682762014 30.067045759745014 0 0.57357644374324357 0.81915203911291934 1 0 0 forward_v I I I I #
coedge $-1 $107 $108 $109 $110 reversed $42 $-1 #
face $-1 $-1 $111 $24 $-1 $112 forward single #
loop $-1 $113 $114 $44 #
cone-surface $-1 -30.091964895795893 19.555813908952842 0.98418486218753909 0 -0.57357644374324357 -0.81915203911291934 0.5 0 0 1 I I -0.70710678118654746 0.70710678118654746 0.5 forward I I I I #
loop $-1 $-1 $115 $31 #
coedge $-1 $72 $72 $116 $117 reversed $45 $-1 #
face $-1 $118 $119 $25 $-1 $120 reversed single #
loop $-1 $-1 $121 $47 #
plane-surface $-1 -34.817689234034717 -24.051514327518127 0.91720589400779318 0 -0.6018150307709319 0.79863550430605224 1 0 0 forward_v I I I I #
coedge $-1 $122 $123 $124 $125 reversed $48 $-1 #
face $-1 $-1 $126 $26 $-1 $127 forward single #
loop $-1 $128 $129 $50 #
cone-surface $-1 -37.704069145650827 -19.679864502241848 1.7449447043432409 0 0.6018150307709319 -0.79863550430605224 0.5 0 0 1 I I -0.70710678118654746 0.70710678118654746 0.5 forward I I I I #
loop $-1 $-1 $130 $33 #
coedge $-1 $81 $81 $131 $132 reversed $51 $-1 #
face $-1 $-1 $133 $27 $-1 $134 forward single #
loop $-1 $135 $136 $53 #
cone-surface $-1 -31.931309322418613 -19.679864502241848 1.7449447043432409 0 0.6018150307709319 -0.79863550430605224 0.5 0 0 1 I I -0.70710678118654746 0.70710678118654746 0.5 forward I I I I #
loop $-1 $-1 $137 $34 #
coedge $-1 $86 $86 $138 $139 reversed $54 $-1 #
face $-1 $140 $141 $21 $-1 $142 reversed single #
loop $-1 $-1 $143 $56 #
plane-surface $-1 0 -24.051514327518134 0 0 1 0 0 0 1 forward_v I I I I #
coedge $-1 $144 $145 $146 $147 forward $57 $-1 #
coedge $-1 $148 $59 $149 $150 forward $36 $-1 #
coedge $-1 $59 $148 $151 $152 forward $36 $-1 #
coedge $-1 $153 $154 $59 $94 reversed $155 $-1 #
edge $-1 $156 -24.051514327518134 $157 24.051514327518134 $93 $158 forward 7 unknown #
face $-1 $159 $160 $22 $-1 $161 reversed single #
loop $-1 $-1 $162 $60 #
plane-surface $-1 -52.351657222792014 -22.551514327518134 0 1 0 0 0 0 -1 forward_v I I I I #
coedge $-1 $163 $164 $99 $165 forward $61 $-1 #
coedge $-1 $166 $63 $98 $165 reversed $39 $-1 #
coedge $-1 $63 $166 $167 $168 reversed $39 $-1 #
coedge $-1 $169 $170 $63 $102 reversed $160 $-1 #
edge $-1 $171 -5.7190885306209767 $172 5.7190885306209767 $101 $173 forward 7 unknown #
face $-1 $174 $175 $23 $-1 $176 forward single #
loop $-1 $-1 $177 $64 #
plane-surface $-1 -18.631354097119484 38.509076286359686 106.98888963525661 -1 0 0 0 0.57357644374324357 0.81915203911291934 forward_v I I I I #
coedge $-1 $178 $179 $180 $181 reversed $65 $-1 #
coedge $-1 $108 $67 $182 $183 reversed $42 $-1 #
coedge $-1 $67 $107 $178 $184 reversed $42 $-1 #
coedge $-1 $180 $185 $67 $110 forward $175 $-1 #
edge $-1 $186 -4.7969761843382912 $187 -0.16576809120846292 $109 $188 forward 7 unknown #
loop $-1 $-1 $116 $68 #
plane-surface $-1 -30.091964895795893 -15.352179682762014 30.067045759745014 0 0.57357644374324357 0.81915203911291934 1 0 0 forward_v I I I I #
loop $-1 $-1 $189 $44 #
coedge $-1 $114 $114 $115 $190 reversed $69 $-1 #
coedge $-1 $115 $115 $114 $190 forward $71 $-1 #
coedge $-1 $116 $116 $72 $117 forward $111 $-1 #
edge $-1 $191 -2.6936077588182189e-015 $191 6.2831853071795978 $116 $192 forward 7 unknown #
face $-1 $193 $194 $25 $-1 $195 forward single #
loop $-1 $-1 $196 $73 #
plane-surface $-1 -41.552575694472303 -80.564493150142312 75.912460306360174 1 0 0 0 0.6018150307709319 -0.79863550430605224 forward_v I I I I #
coedge $-1 $197 $198 $199 $200 reversed $74 $-1 #
coedge $-1 $123 $76 $201 $202 reversed $48 $-1 #
coedge $-1 $76 $122 $197 $203 reversed $48 $-1 #
coedge $-1 $199 $204 $76 $125 forward $194 $-1 #
edge $-1 $205 16.230732247553021 $206 22.603045608017666 $124 $207 forward 7 unknown #
loop $-1 $-1 $131 $77 #
plane-surface $-1 -34.817689234034717 -24.051514327518127 0.91720589400779318 0 -0.6018150307709319 0.79863550430605224 1 0 0 forward_v I I I I #
loop $-1 $-1 $208 $50 #
coedge $-1 $129 $129 $130 $209 reversed $78 $-1 #
coedge $-1 $130 $130 $129 $209 forward $80 $-1 #
coedge $-1 $131 $131 $81 $132 forward $126 $-1 #
edge $-1 $210 -3.1667786117524589e-015 $210 6.2831853071795969 $131 $211 forward 7 unknown #
loop $-1 $-1 $138 $82 #
plane-surface $-1 -34.817689234034717 -24.051514327518127 0.91720589400779318 0 -0.6018150307709319 0.79863550430605224 1 0 0 forward_v I I I I #
loop $-1 $-1 $212 $53 #
coedge $-1 $136 $136 $137 $213 reversed $83 $-1 #
coedge $-1 $137 $137 $136 $213 forward $85 $-1 #
coedge $-1 $138 $138 $86 $139 forward $133 $-1 #
edge $-1 $214 -3.1667786117524589e-015 $214 6.2831853071795969 $138 $215 forward 7 unknown #
face $-1 $216 $217 $21 $-1 $218 reversed single #
loop $-1 $-1 $219 $87 #
plane-surface $-1 -46.952116458632162 0 0 1 0 0 0 0 -1 forward_v I I I I #
coedge $-1 $220 $151 $221 $222 forward $88 $-1 #
coedge $-1 $223 $90 $220 $224 forward $57 $-1 #
coedge $-1 $90 $223 $225 $226 forward $57 $-1 #
coedge $-1 $154 $153 $90 $147 reversed $155 $-1 #
edge $-1 $227 -24.051514327518134 $228 24.051514327518134 $146 $229 forward 7 unknown #
coedge $-1 $92 $91 $230 $231 forward $36 $-1 #
coedge $-1 $232 $233 $91 $150 reversed $217 $-1 #
edge $-1 $157 -46.952116458632162 $234 46.952116458632162 $149 $235 forward 7 unknown #
coedge $-1 $143 $236 $92 $152 reversed $88 $-1 #
edge $-1 $237 -46.952116458632162 $156 46.952116458632162 $151 $238 forward 7 unknown #
coedge $-1 $146 $93 $236 $239 forward $155 $-1 #
coedge $-1 $93 $146 $232 $240 reversed $155 $-1 #
loop $-1 $-1 $153 $216 #
vertex $-1 $94 $241 #
vertex $-1 $94 $242 #
straight-curve $-1 46.952116458632162 0 5.7190885306209767 0 1 0 I I #
face $-1 $243 $244 $22 $-1 $245 reversed single #
loop $-1 $-1 $101 $95 #
plane-surface $-1 -49.651886840712088 -21.051514327518134 0 0 -1 0 0 0 -1 forward_v I I I I #
coedge $-1 $246 $247 $248 $249 forward $96 $-1 #
coedge $-1 $250 $98 $170 $251 forward $61 $-1 #
coedge $-1 $98 $250 $252 $253 forward $61 $-1 #
edge $-1 $254 -24.051514327518134 $172 -21.051514327518134 $98 $255 forward 7 unknown #
coedge $-1 $100 $99 $256 $257 reversed $39 $-1 #
coedge $-1 $258 $259 $100 $168 forward $244 $-1 #
edge $-1 $171 21.051514327518134 $260 24.051514327518134 $167 $261 forward 7 unknown #
coedge $-1 $248 $101 $259 $262 reversed $160 $-1 #
coedge $-1 $101 $248 $163 $251 reversed $160 $-1 #
vertex $-1 $168 $263 #
vertex $-1 $251 $264 #
straight-curve $-1 -46.952116458632162 -21.051514327518134 0 0 0 1 I I #
face $-1 $-1 $265 $23 $-1 $266 reversed single #
loop $-1 $-1 $109 $103 #
plane-surface $-1 0 0 5.7190885306209767 0 0 1 1 0 0 forward_v I I I I #
coedge $-1 $267 $268 $269 $270 reversed $104 $-1 #
coedge $-1 $271 $106 $108 $184 forward $65 $-1 #
coedge $-1 $106 $271 $267 $272 forward $65 $-1 #
coedge $-1 $269 $109 $106 $181 forward $175 $-1 #
edge $-1 $187 -26.506593246574354 $273 -3.5853716492215373 $180 $274 forward 7 unknown #
coedge $-1 $275 $276 $107 $183 forward $265 $-1 #
edge $-1 $277 -51.018163167118331 $186 -47.775356287007327 $182 $278 forward 7 unknown #
edge $-1 $187 42.44936746395252 $277 48.103028655036269 $108 $279 forward 7 unknown #
coedge $-1 $109 $269 $275 $280 forward $175 $-1 #
vertex $-1 $183 $281 #
vertex $-1 $110 $282 #
straight-curve $-1 -41.552575694472303 19.254538143179843 5.7190885306209793 0 -1 0 I I #
coedge $-1 $189 $189 $-1 $283 reversed $113 $-1 #
edge $-1 $284 0 $284 6.2831853071796004 $114 $285 forward 7 unknown #
vertex $-1 $117 $286 #
ellipse-curve $-1 -30.091964895795893 21.735910280953224 4.0976850905654674 0 0.57357644374324357 0.81915203911291934 1 0 0 1 I I #
face $-1 $-1 $287 $25 $-1 $288 reversed single #
loop $-1 $-1 $124 $118 #
plane-surface $-1 0 0 5.7190885306209767 0 0 1 1 0 0 forward_v I I I I #
coedge $-1 $289 $290 $291 $292 reversed $119 $-1 #
coedge $-1 $293 $121 $123 $203 forward $74 $-1 #
coedge $-1 $121 $293 $289 $294 forward $74 $-1 #
coedge $-1 $291 $124 $121 $200 forward $194 $-1 #
edge $-1 $206 10.673958156579772 $295 24.143731077454945 $199 $296 forward 7 unknown #
coedge $-1 $297 $298 $122 $202 forward $287 $-1 #
edge $-1 $299 -37.039024259172301 $205 -32.237141622559108 $201 $300 forward 7 unknown #
edge $-1 $206 -7.9790008409426365 $299 8.8817612989391469e-015 $123 $301 forward 7 unknown #
coedge $-1 $124 $291 $297 $302 forward $194 $-1 #
vertex $-1 $125 $303 #
vertex $-1 $125 $304 #
straight-curve $-1 -28.08280277359713 -40.282246575071156 5.7190885306209793 0 1 0 I I #
coedge $-1 $208 $208 $-1 $305 reversed $128 $-1 #
edge $-1 $306 0 $306 6.2831853071796004 $129 $307 forward 7 unknown #
vertex $-1 $132 $308 #
ellipse-curve $-1 -37.704069145650827 -20.865357647285816 3.31814721231438 0 -0.6018150307709319 0.79863550430605224 1 0 0 1 I I #
coedge $-1 $212 $212 $-1 $309 reversed $135 $-1 #
edge $-1 $310 0 $310 6.2831853071796004 $136 $311 forward 7 unknown #
vertex $-1 $139 $312 #
ellipse-curve $-1 -31.931309322418613 -20.865357647285816 3.31814721231438 0 -0.6018150307709319 0.79863550430605224 1 0 0 1 I I #
face $-1 $-1 $155 $21 $-1 $313 reversed single #
loop $-1 $-1 $232 $140 #
plane-surface $-1 0 24.051514327518134 0 0 -1 0 0 0 -1 forward_v I I I I #
coedge $-1 $314 $230 $233 $315 forward $141 $-1 #
coedge $-1 $236 $143 $144 $224 reversed $88 $-1 #
coedge $-1 $230 $314 $143 $222 reversed $141 $-1 #
edge $-1 $237 -5.7190885306209767 $316 5.7190885306209767 $221 $317 forward 7 unknown #
coedge $-1 $145 $144 $314 $318 forward $57 $-1 #
edge $-1 $228 -46.952116458632162 $316 46.952116458632162 $220 $319 forward 7 unknown #
coedge $-1 $233 $232 $145 $226 reversed $217 $-1 #
edge $-1 $320 -46.952116458632162 $227 46.952116458632162 $225 $321 forward 7 unknown #
vertex $-1 $147 $322 #
vertex $-1 $239 $323 #
straight-curve $-1 46.952116458632162 0 -5.7190885306209767 0 -1 0 I I #
coedge $-1 $219 $221 $148 $231 reversed $141 $-1 #
edge $-1 $234 -24.051514327518134 $237 24.051514327518134 $230 $324 forward 7 unknown #
coedge $-1 $225 $149 $154 $240 forward $217 $-1 #
coedge $-1 $149 $225 $219 $315 reversed $217 $-1 #
vertex $-1 $150 $325 #
straight-curve $-1 0 24.051514327518134 5.7190885306209767 -1 0 0 I I #
coedge $-1 $151 $220 $153 $239 reversed $88 $-1 #
vertex $-1 $231 $326 #
straight-curve $-1 0 -24.051514327518134 5.7190885306209767 1 0 0 I I #
edge $-1 $156 -5.7190885306209767 $228 5.7190885306209767 $153 $327 forward 7 unknown #
edge $-1 $157 -5.7190885306209767 $227 5.7190885306209767 $154 $328 forward 7 unknown #
point $-1 46.952116458632162 -24.051514327518134 5.7190885306209767 #
point $-1 46.952116458632162 24.051514327518134 5.7190885306209767 #
face $-1 $-1 $329 $22 $-1 $330 reversed single #
loop $-1 $-1 $167 $159 #
plane-surface $-1 0 0 -5.7190885306209767 0 0 1 1 0 0 forward_v I I I I #
coedge $-1 $331 $162 $332 $333 reversed $96 $-1 #
coedge $-1 $162 $331 $250 $334 reversed $96 $-1 #
coedge $-1 $170 $169 $162 $249 reversed $160 $-1 #
edge $-1 $335 -5.7190885306209767 $336 5.7190885306209767 $248 $337 forward 7 unknown #
coedge $-1 $164 $163 $247 $334 forward $61 $-1 #
edge $-1 $172 -2.6997703820799259 $335 2.6997703820799259 $170 $338 forward 7 unknown #
coedge $-1 $339 $256 $164 $253 reversed $329 $-1 #
edge $-1 $340 -52.351657222792014 $254 -46.952116458632162 $252 $341 forward 7 unknown #
vertex $-1 $257 $342 #
straight-curve $-1 -46.952116458632162 0 5.7190885306209767 0 1 0 I I #
coedge $-1 $252 $343 $166 $257 forward $329 $-1 #
edge $-1 $260 -5.7190885306209767 $254 5.7190885306209767 $256 $344 forward 7 unknown #
coedge $-1 $332 $167 $343 $345 forward $244 $-1 #
coedge $-1 $167 $332 $169 $262 forward $244 $-1 #
vertex $-1 $345 $346 #
straight-curve $-1 -46.952116458632162 0 -5.7190885306209767 0 -1 0 I I #
edge $-1 $336 -2.6997703820799259 $171 2.6997703820799259 $169 $347 forward 7 unknown #
point $-1 -46.952116458632162 -21.051514327518134 -5.7190885306209767 #
point $-1 -46.952116458632162 -21.051514327518134 5.7190885306209767 #
loop $-1 $-1 $182 $174 #
plane-surface $-1 0 24.051514327518134 0 0 -1 0 0 0 -1 forward_v I I I I #
coedge $-1 $268 $177 $179 $272 reversed $104 $-1 #
coedge $-1 $177 $267 $348 $349 reversed $104 $-1 #
coedge $-1 $185 $180 $177 $270 forward $175 $-1 #
edge $-1 $273 0.16576809120846292 $350 4.7969761843382912 $269 $351 forward 7 unknown #
coedge $-1 $179 $178 $276 $352 reversed $65 $-1 #
edge $-1 $353 -48.103028655036269 $273 -42.44936746395252 $267 $354 forward 7 unknown #
vertex $-1 $181 $355 #
straight-curve $-1 -15.045982447897947 19.420306234388306 5.7190885306209793 1 0 0 I I #
coedge $-1 $348 $182 $185 $280 reversed $265 $-1 #
coedge $-1 $182 $348 $271 $352 forward $265 $-1 #
vertex $-1 $183 $356 #
straight-curve $-1 -41.552575694472303 24.051514327518134 53.494444817628306 0 0 1 I I #
straight-curve $-1 -41.552575694472303 -15.352179682762014 30.067045759745014 0 0.81915203911291934 -0.57357644374324357 I I #
edge $-1 $350 18.631354097119484 $186 41.552575694472303 $275 $357 forward 7 unknown #
point $-1 -41.552575694472303 24.051514327518134 5.7190885306209767 #
point $-1 -41.552575694472303 19.420306234388306 5.7190885306209758 #
edge $-1 $358 1 $358 0 $189 $-1 forward 7 unknown #
vertex $-1 $190 $359 #
ellipse-curve $-1 -30.091964895795893 19.842602130824464 1.3937608817439988 0 0.57357644374324357 0.81915203911291934 1 0 0 1 I I #
point $-1 -29.091964895795893 21.735910280953227 4.0976850905654771 #
loop $-1 $-1 $201 $193 #
plane-surface $-1 0 -24.051514327518134 0 0 1 0 0 0 1 forward_v I I I I #
coedge $-1 $290 $196 $198 $294 reversed $119 $-1 #
coedge $-1 $196 $289 $360 $361 reversed $119 $-1 #
coedge $-1 $204 $199 $196 $292 forward $194 $-1 #
edge $-1 $295 -22.603045608017666 $362 -16.230732247553021 $291 $363 forward 7 unknown #
coedge $-1 $198 $197 $298 $364 reversed $74 $-1 #
edge $-1 $365 -8.8817612989391469e-015 $295 7.9790008409426365 $289 $366 forward 7 unknown #
vertex $-1 $200 $367 #
straight-curve $-1 -17.408844617017358 -17.679200967053493 5.7190885306209767 -1 0 0 I I #
coedge $-1 $360 $201 $204 $302 reversed $287 $-1 #
coedge $-1 $201 $360 $293 $364 forward $287 $-1 #
vertex $-1 $202 $368 #
straight-curve $-1 -28.08280277359713 -24.051514327518134 37.956230153180087 0 0 1 I I #
straight-curve $-1 -28.08280277359713 -24.051514327518127 0.91720589400779318 0 -0.79863550430605224 -0.6018150307709319 I I #
edge $-1 $362 -41.552575694472303 $205 -28.08280277359713 $297 $369 forward 7 unknown #
point $-1 -28.08280277359713 -24.051514327518134 5.7190885306209767 #
point $-1 -28.08280277359713 -17.67920096705349 5.7190885306209767 #
edge $-1 $370 1 $370 0 $208 $-1 forward 7 unknown #
vertex $-1 $209 $371 #
ellipse-curve $-1 -37.704069145650827 -19.980772017627313 2.1442624564962669 0 -0.6018150307709319 0.79863550430605224 1 0 0 1 I I #
point $-1 -36.704069145650827 -20.865357647285826 3.3181472123143889 #
edge $-1 $372 1 $372 0 $212 $-1 forward 7 unknown #
vertex $-1 $213 $373 #
ellipse-curve $-1 -31.931309322418613 -19.980772017627313 2.1442624564962669 0 -0.6018150307709319 0.79863550430605224 1 0 0 1 I I #
point $-1 -30.931309322418613 -20.865357647285826 3.3181472123143889 #
plane-surface $-1 46.952116458632162 0 0 -1 0 0 0 0 1 forward_v I I I I #
coedge $-1 $221 $219 $223 $318 reversed $141 $-1 #
edge $-1 $234 -5.7190885306209767 $320 5.7190885306209767 $233 $374 forward 7 unknown #
vertex $-1 $318 $375 #
straight-curve $-1 -46.952116458632162 -24.051514327518134 0 0 0 -1 I I #
edge $-1 $316 -24.051514327518134 $320 24.051514327518134 $314 $376 forward 7 unknown #
straight-curve $-1 0 -24.051514327518134 -5.7190885306209767 -1 0 0 I I #
vertex $-1 $226 $377 #
straight-curve $-1 0 24.051514327518134 -5.7190885306209767 1 0 0 I I #
point $-1 46.952116458632162 24.051514327518134 -5.7190885306209767 #
point $-1 46.952116458632162 -24.051514327518134 -5.7190885306209767 #
straight-curve $-1 -46.952116458632162 0 5.7190885306209767 0 -1 0 I I #
point $-1 -46.952116458632162 24.051514327518134 5.7190885306209767 #
point $-1 -46.952116458632162 -24.051514327518134 5.7190885306209767 #
straight-curve $-1 46.952116458632162 -24.051514327518134 0 0 0 -1 I I #
straight-curve $-1 46.952116458632162 24.051514327518134 0 0 0 -1 I I #
loop $-1 $-1 $256 $243 #
plane-surface $-1 0 -24.051514327518134 0 0 1 0 0 0 1 forward_v I I I I #
coedge $-1 $247 $246 $339 $378 reversed $96 $-1 #
coedge $-1 $259 $258 $246 $333 forward $244 $-1 #
edge $-1 $379 -1.5 $336 1.5 $246 $380 forward 7 unknown #
edge $-1 $335 -1.5 $340 1.5 $247 $381 forward 7 unknown #
vertex $-1 $251 $382 #
vertex $-1 $262 $383 #
straight-curve $-1 -52.351657222792014 -21.051514327518134 0 0 0 -1 I I #
straight-curve $-1 -49.651886840712088 -21.051514327518134 5.7190885306209767 -1 0 0 I I #
coedge $-1 $343 $252 $331 $378 forward $329 $-1 #
vertex $-1 $334 $384 #
straight-curve $-1 0 -24.051514327518134 5.7190885306209767 1 0 0 I I #
point $-1 -46.952116458632162 -24.051514327518134 5.7190885306209767 #
coedge $-1 $256 $339 $258 $345 reversed $329 $-1 #
straight-curve $-1 -46.952116458632162 -24.051514327518134 0 0 0 1 I I #
edge $-1 $260 -2.6997703820799259 $379 2.6997703820799259 $343 $385 forward 7 unknown #
point $-1 -46.952116458632162 -24.051514327518134 -5.7190885306209767 #
straight-curve $-1 -49.651886840712088 -21.051514327518134 -5.7190885306209767 1 0 0 I I #
coedge $-1 $276 $275 $268 $349 forward $265 $-1 #
edge $-1 $350 47.775356287007327 $353 51.018163167118331 $348 $386 forward 7 unknown #
vertex $-1 $280 $387 #
straight-curve $-1 -18.631354097119484 19.254538143179843 5.7190885306209793 0 1 0 I I #
edge $-1 $353 3.5853716492215373 $277 26.506593246574354 $276 $388 forward 7 unknown #
vertex $-1 $352 $389 #
straight-curve $-1 -18.631354097119484 -15.352179682762014 30.067045759745014 0 -0.81915203911291934 0.57357644374324357 I I #
point $-1 -18.631354097119484 19.420306234388306 5.7190885306209758 #
point $-1 -41.552575694472303 24.051514327518134 2.4762816505099714 #
straight-curve $-1 0 24.051514327518134 5.7190885306209767 -1 0 0 I I #
vertex $-1 $283 $390 #
point $-1 -29.091964895795893 19.842602130824464 1.3937608817439988 #
coedge $-1 $298 $297 $290 $361 forward $287 $-1 #
edge $-1 $362 32.237141622559108 $365 37.039024259172301 $360 $391 forward 7 unknown #
vertex $-1 $302 $392 #
straight-curve $-1 -41.552575694472303 -40.282246575071156 5.7190885306209793 0 -1 0 I I #
edge $-1 $365 -24.143731077454945 $299 -10.673958156579772 $298 $393 forward 7 unknown #
vertex $-1 $364 $394 #
straight-curve $-1 -41.552575694472303 -24.051514327518127 0.91720589400779318 0 0.79863550430605224 0.6018150307709319 I I #
point $-1 -41.552575694472303 -17.67920096705349 5.7190885306209767 #
point $-1 -28.08280277359713 -24.051514327518134 0.91720589400778785 #
straight-curve $-1 0 -24.051514327518134 5.7190885306209767 1 0 0 I I #
vertex $-1 $305 $395 #
point $-1 -36.704069145650827 -19.980772017627313 2.1442624564962669 #
vertex $-1 $309 $396 #
point $-1 -30.931309322418613 -19.980772017627313 2.1442624564962669 #
straight-curve $-1 -46.952116458632162 24.051514327518134 0 0 0 -1 I I #
point $-1 -46.952116458632162 -24.051514327518134 -5.7190885306209767 #
straight-curve $-1 -46.952116458632162 0 -5.7190885306209767 0 1 0 I I #
point $-1 -46.952116458632162 24.051514327518134 -5.7190885306209767 #
edge $-1 $340 -5.7190885306209767 $379 5.7190885306209767 $331 $397 forward 7 unknown #
vertex $-1 $333 $398 #
straight-curve $-1 -52.351657222792014 -22.551514327518134 -5.7190885306209767 0 1 0 I I #
straight-curve $-1 -52.351657222792014 -22.551514327518134 5.7190885306209767 0 -1 0 I I #
point $-1 -52.351657222792014 -21.051514327518134 5.7190885306209767 #
point $-1 -52.351657222792014 -21.051514327518134 -5.7190885306209767 #
point $-1 -52.351657222792014 -24.051514327518134 5.7190885306209767 #
straight-curve $-1 -49.651886840712088 -24.051514327518134 -5.7190885306209767 -1 0 0 I I #
straight-curve $-1 -18.631354097119484 24.051514327518134 53.494444817628306 0 0 -1 I I #
point $-1 -18.631354097119484 24.051514327518134 5.7190885306209767 #
straight-curve $-1 -15.045982447897947 24.051514327518138 2.4762816505099696 -1 0 0 I I #
point $-1 -18.631354097119484 24.051514327518134 2.4762816505099714 #
point $-1 -30.091964895795893 19.269025687081221 0.57460884263107936 #
straight-curve $-1 -41.552575694472303 -24.051514327518134 37.956230153180087 0 0 -1 I I #
point $-1 -41.552575694472303 -24.051514327518134 5.7190885306209767 #
straight-curve $-1 -17.408844617017358 -24.051514327518134 0.91720589400778652 1 0 0 I I #
point $-1 -41.552575694472303 -24.051514327518134 0.91720589400778785 #
point $-1 -37.704069145650827 -19.378956986856384 1.3456269521902149 #
point $-1 -31.931309322418613 -19.378956986856384 1.3456269521902149 #
straight-curve $-1 -52.351657222792014 -24.051514327518134 0 0 0 -1 I I #
point $-1 -52.351657222792014 -24.051514327518134 -5.7190885306209767 #
End-of-ACIS-data 