500 0 8 0           
7 Unknown 11 ACIS 5.0 NT 24 Thu Mar 25 21:27:40 1999 
-1 9.9999999999999995e-007 1e-010 
body $-1 $8 $-1 $9 #
body $-1 $10 $-1 $11 #
body $-1 $12 $-1 $13 #
body $-1 $14 $-1 $15 #
body $-1 $16 $-1 $17 #
body $-1 $18 $-1 $19 #
body $-1 $20 $-1 $21 #
body $-1 $22 $-1 $23 #
lump $-1 $-1 $24 $0 #
transform $-1 1 0 0 0 1 0 0 0 1 68.894924771874145 43.813572554362331 9.1285518914954569 1 rotate no_reflect no_shear #
lump $-1 $-1 $25 $1 #
transform $-1 1 0 0 0 1 0 0 0 1 68.894924771874145 43.813572554362331 9.1285518914954569 1 rotate no_reflect no_shear #
lump $-1 $-1 $26 $2 #
transform $-1 1 0 0 0 1 0 0 0 1 68.894924771874145 43.813572554362331 9.1285518914954569 1 rotate no_reflect no_shear #
lump $-1 $-1 $27 $3 #
transform $-1 1 0 0 0 1 0 0 0 1 68.894924771874145 43.813572554362331 9.1285518914954569 1 rotate no_reflect no_shear #
lump $-1 $-1 $28 $4 #
transform $-1 1 0 0 0 1 0 0 0 1 68.894924771874145 43.813572554362331 9.1285518914954569 1 rotate no_reflect no_shear #
lump $-1 $-1 $29 $5 #
transform $-1 1 0 0 0 1 0 0 0 1 68.894924771874145 43.813572554362331 9.1285518914954569 1 rotate no_reflect no_shear #
lump $-1 $-1 $30 $6 #
transform $-1 1 0 0 0 1 0 0 0 1 68.894924771874145 43.813572554362331 9.1285518914954569 1 rotate no_reflect no_shear #
lump $-1 $-1 $31 $7 #
transform $-1 1 0 0 0 1 0 0 0 1 68.894924771874145 43.813572554362331 9.1285518914954569 1 rotate no_reflect no_shear #
shell $-1 $-1 $-1 $32 $-1 $8 #
shell $-1 $-1 $-1 $33 $-1 $10 #
shell $-1 $-1 $-1 $34 $-1 $12 #
shell $-1 $-1 $-1 $35 $-1 $14 #
shell $-1 $-1 $-1 $36 $-1 $16 #
shell $-1 $-1 $-1 $37 $-1 $18 #
shell $-1 $-1 $-1 $38 $-1 $20 #
shell $-1 $-1 $-1 $39 $-1 $22 #
face $-1 $40 $41 $24 $-1 $42 reversed single #
face $-1 $43 $44 $25 $-1 $45 forward single #
face $-1 $46 $47 $26 $-1 $48 reversed single #
face $-1 $49 $50 $27 $-1 $51 forward single #
face $-1 $52 $53 $28 $-1 $54 forward single #
face $-1 $55 $56 $29 $-1 $57 reversed single #
face $-1 $58 $59 $30 $-1 $60 forward single #
face $-1 $61 $62 $31 $-1 $63 forward single #
face $-1 $64 $65 $24 $-1 $66 forward single #
loop $-1 $-1 $67 $32 #
plane-surface $-1 0 -43.813572554362331 0 0 1 0 0 0 1 forward_v I I I I #
face $-1 $68 $69 $25 $-1 $70 reversed single #
loop $-1 $-1 $71 $33 #
plane-surface $-1 0 -43.813572554362331 0 0 1 0 0 0 1 forward_v I I I I #
face $-1 $72 $73 $26 $-1 $74 reversed single #
loop $-1 $-1 $75 $34 #
plane-surface $-1 62.094261843721256 23.840588254965986 200.79668771100168 0 1 0 0.68199836817093118 0 0.7313536940579346 forward_v I I I I #
face $-1 $76 $77 $27 $-1 $78 forward single #
loop $-1 $79 $80 $35 #
cone-surface $-1 66.903854631994861 29.54715519765066 7.2241589507887145 -0.68199836817093118 0 -0.7313536940579346 0.3656768470289673 0 -0.34099918408546559 1 I I 0 1 0.5 forward I I I I #
face $-1 $81 $82 $28 $-1 $83 forward single #
loop $-1 $84 $85 $36 #
cone-surface $-1 66.903854631994861 38.107005611677657 7.2241589507887145 -0.68199836817093118 0 -0.7313536940579346 0.3656768470289673 0 -0.34099918408546559 1 I I 0 1 0.5 forward I I I I #
face $-1 $86 $87 $29 $-1 $88 reversed single #
loop $-1 $-1 $89 $37 #
plane-surface $-1 -162.86737731122858 23.840588254965986 106.8242351716472 0 1 0 -0.68199836817093118 0 0.7313536940579346 forward_v I I I I #
face $-1 $90 $91 $30 $-1 $92 forward single #
loop $-1 $93 $94 $38 #
cone-surface $-1 -66.903854631994861 29.54715519765066 7.2241589507887163 0.68199836817093118 0 -0.7313536940579346 0.3656768470289673 0 0.34099918408546559 1 I I 0 1 0.5 forward I I I I #
face $-1 $95 $96 $31 $-1 $97 forward single #
loop $-1 $98 $99 $39 #
cone-surface $-1 -66.903854631994861 38.107005611677657 7.2241589507887163 0.68199836817093118 0 -0.7313536940579346 0.3656768470289673 0 0.34099918408546559 1 I I 0 1 0.5 forward I I I I #
face $-1 $100 $101 $24 $-1 $102 reversed single #
loop $-1 $-1 $103 $40 #
plane-surface $-1 0 0 9.1285518914954569 0 0 1 1 0 0 forward_v I I I I #
coedge $-1 $104 $105 $106 $107 reversed $41 $-1 #
face $-1 $108 $109 $25 $-1 $110 reversed single #
loop $-1 $-1 $111 $43 #
plane-surface $-1 0 0 -9.1285518914954569 0 0 1 1 0 0 forward_v I I I I #
coedge $-1 $112 $113 $114 $115 forward $44 $-1 #
face $-1 $116 $117 $26 $-1 $118 reversed single #
loop $-1 $-1 $119 $46 #
plane-surface $-1 -31.878190695633208 33.827080404664152 100.02357224349436 0.68199836817093118 0 0.7313536940579346 0.7313536940579346 0 -0.68199836817093118 forward_v I I I I #
coedge $-1 $120 $121 $122 $123 reversed $47 $-1 #
face $-1 $-1 $124 $27 $-1 $125 forward single #
loop $-1 $126 $127 $49 #
cone-surface $-1 66.392355855866668 29.54715519765066 6.6756436802452637 -0.68199836817093118 0 -0.7313536940579346 0.18283842351448365 0 -0.17049959204273279 1 I I -0.70710678118654746 0.70710678118654746 0.25 forward I I I I #
loop $-1 $-1 $128 $35 #
coedge $-1 $80 $80 $129 $130 reversed $50 $-1 #
face $-1 $-1 $131 $28 $-1 $132 forward single #
loop $-1 $133 $134 $52 #
cone-surface $-1 66.392355855866668 38.107005611677657 6.6756436802452637 -0.68199836817093118 0 -0.7313536940579346 0.18283842351448365 0 -0.17049959204273279 1 I I -0.70710678118654746 0.70710678118654746 0.25 forward I I I I #
loop $-1 $-1 $135 $36 #
coedge $-1 $85 $85 $136 $137 reversed $53 $-1 #
face $-1 $138 $139 $29 $-1 $140 reversed single #
loop $-1 $-1 $141 $55 #
plane-surface $-1 -68.894924771874116 33.827080404664152 6.0511197041398788 -0.68199836817093118 0 0.7313536940579346 0.7313536940579346 0 0.68199836817093118 forward_v I I I I #
coedge $-1 $142 $143 $144 $145 reversed $56 $-1 #
face $-1 $-1 $146 $30 $-1 $147 forward single #
loop $-1 $148 $149 $58 #
cone-surface $-1 -66.392355855866668 29.54715519765066 6.6756436802452654 0.68199836817093118 0 -0.7313536940579346 0.18283842351448365 0 0.17049959204273279 1 I I -0.70710678118654746 0.70710678118654746 0.25 forward I I I I #
loop $-1 $-1 $150 $38 #
coedge $-1 $94 $94 $151 $152 reversed $59 $-1 #
face $-1 $-1 $153 $31 $-1 $154 forward single #
loop $-1 $155 $156 $61 #
cone-surface $-1 -66.392355855866668 38.107005611677657 6.6756436802452654 0.68199836817093118 0 -0.7313536940579346 0.18283842351448365 0 0.17049959204273279 1 I I -0.70710678118654746 0.70710678118654746 0.25 forward I I I I #
loop $-1 $-1 $157 $39 #
coedge $-1 $99 $99 $158 $159 reversed $62 $-1 #
face $-1 $160 $161 $24 $-1 $162 reversed single #
loop $-1 $-1 $163 $64 #
plane-surface $-1 0 0 -9.1285518914954569 0 0 1 1 0 0 forward_v I I I I #
coedge $-1 $164 $165 $166 $167 forward $65 $-1 #
coedge $-1 $168 $67 $169 $170 reversed $41 $-1 #
coedge $-1 $67 $168 $171 $172 forward $41 $-1 #
coedge $-1 $173 $163 $67 $107 forward $101 $-1 #
edge $-1 $174 -68.894924771874145 $175 68.894924771874145 $67 $176 forward 7 unknown #
face $-1 $177 $178 $25 $-1 $179 reversed single #
loop $-1 $-1 $180 $68 #
plane-surface $-1 -65.92568407367493 -53.732032385617565 0 0 1 0 0 0 1 forward_v I I I I #
coedge $-1 $181 $182 $113 $183 forward $69 $-1 #
coedge $-1 $184 $71 $185 $186 reversed $44 $-1 #
coedge $-1 $71 $184 $111 $183 reversed $44 $-1 #
coedge $-1 $187 $188 $71 $115 reversed $178 $-1 #
edge $-1 $189 -9.1285518914954569 $190 9.1285518914954569 $114 $191 forward 7 unknown #
face $-1 $192 $193 $26 $-1 $194 forward single #
loop $-1 $-1 $195 $72 #
plane-surface $-1 0 43.813572554362331 0 0 -1 0 0 0 -1 forward_v I I I I #
coedge $-1 $196 $197 $198 $199 reversed $73 $-1 #
coedge $-1 $121 $75 $200 $201 reversed $47 $-1 #
coedge $-1 $75 $120 $196 $202 reversed $47 $-1 #
coedge $-1 $198 $203 $75 $123 forward $204 $-1 #
edge $-1 $205 91.269791964005378 $206 94.347224151360962 $122 $207 forward 7 unknown #
loop $-1 $-1 $129 $76 #
plane-surface $-1 -31.878190695633208 33.827080404664152 100.02357224349436 0.68199836817093118 0 0.7313536940579346 0.7313536940579346 0 -0.68199836817093118 forward_v I I I I #
loop $-1 $-1 $208 $49 #
coedge $-1 $127 $127 $128 $209 reversed $77 $-1 #
coedge $-1 $128 $128 $127 $209 forward $79 $-1 #
coedge $-1 $129 $129 $80 $130 forward $124 $-1 #
edge $-1 $210 0 $210 6.2831853071796004 $129 $211 forward 7 unknown #
loop $-1 $-1 $136 $81 #
plane-surface $-1 -31.878190695633208 33.827080404664152 100.02357224349436 0.68199836817093118 0 0.7313536940579346 0.7313536940579346 0 -0.68199836817093118 forward_v I I I I #
loop $-1 $-1 $212 $52 #
coedge $-1 $134 $134 $135 $213 reversed $82 $-1 #
coedge $-1 $135 $135 $134 $213 forward $84 $-1 #
coedge $-1 $136 $136 $85 $137 forward $131 $-1 #
edge $-1 $214 0 $214 6.2831853071796004 $136 $215 forward 7 unknown #
face $-1 $216 $217 $29 $-1 $218 reversed single #
loop $-1 $-1 $219 $86 #
plane-surface $-1 0 43.813572554362331 0 0 -1 0 0 0 -1 forward_v I I I I #
coedge $-1 $220 $221 $222 $223 reversed $87 $-1 #
coedge $-1 $143 $89 $224 $225 reversed $56 $-1 #
coedge $-1 $89 $142 $220 $226 reversed $56 $-1 #
coedge $-1 $222 $227 $89 $145 forward $228 $-1 #
edge $-1 $229 12.538763883740145 $230 15.838905795327847 $144 $231 forward 7 unknown #
loop $-1 $-1 $151 $90 #
plane-surface $-1 -68.894924771874116 33.827080404664152 6.0511197041398788 -0.68199836817093118 0 0.7313536940579346 0.7313536940579346 0 0.68199836817093118 forward_v I I I I #
loop $-1 $-1 $232 $58 #
coedge $-1 $149 $149 $150 $233 reversed $91 $-1 #
coedge $-1 $150 $150 $149 $233 forward $93 $-1 #
coedge $-1 $151 $151 $94 $152 forward $146 $-1 #
edge $-1 $234 0 $234 6.2831853071796004 $151 $235 forward 7 unknown #
loop $-1 $-1 $158 $95 #
plane-surface $-1 -68.894924771874116 33.827080404664152 6.0511197041398788 -0.68199836817093118 0 0.7313536940579346 0.7313536940579346 0 0.68199836817093118 forward_v I I I I #
loop $-1 $-1 $236 $61 #
coedge $-1 $156 $156 $157 $237 reversed $96 $-1 #
coedge $-1 $157 $157 $156 $237 forward $98 $-1 #
coedge $-1 $158 $158 $99 $159 forward $153 $-1 #
edge $-1 $238 0 $238 6.2831853071796004 $158 $239 forward 7 unknown #
face $-1 $240 $241 $24 $-1 $242 reversed single #
loop $-1 $-1 $243 $100 #
plane-surface $-1 -68.894924771874145 0 0 1 0 0 0 0 -1 forward_v I I I I #
coedge $-1 $106 $244 $245 $246 forward $101 $-1 #
coedge $-1 $247 $103 $248 $249 forward $65 $-1 #
coedge $-1 $103 $247 $168 $250 forward $65 $-1 #
coedge $-1 $169 $251 $103 $167 reversed $252 $-1 #
edge $-1 $253 -43.813572554362331 $254 43.813572554362331 $166 $255 forward 7 unknown #
coedge $-1 $105 $104 $165 $250 reversed $41 $-1 #
coedge $-1 $245 $166 $104 $170 forward $252 $-1 #
edge $-1 $253 -9.1285518914954569 $174 9.1285518914954569 $169 $256 forward 7 unknown #
coedge $-1 $257 $258 $105 $172 reversed $161 $-1 #
edge $-1 $259 -9.1285518914954569 $175 9.1285518914954569 $171 $260 forward 7 unknown #
coedge $-1 $244 $106 $258 $261 forward $101 $-1 #
vertex $-1 $170 $262 #
vertex $-1 $261 $263 #
straight-curve $-1 0 -43.813572554362331 -9.1285518914954569 -1 0 0 I I #
face $-1 $264 $265 $25 $-1 $266 reversed single #
loop $-1 $-1 $114 $108 #
plane-surface $-1 -68.318073958870926 -48.772802469989948 0 1 0 0 0 0 -1 forward_v I I I I #
coedge $-1 $267 $268 $269 $270 forward $109 $-1 #
coedge $-1 $271 $111 $272 $273 forward $69 $-1 #
coedge $-1 $111 $271 $187 $274 forward $69 $-1 #
edge $-1 $189 -68.318073958870926 $275 -63.533294188478934 $111 $276 forward 7 unknown #
coedge $-1 $113 $112 $277 $278 forward $44 $-1 #
coedge $-1 $279 $280 $112 $186 forward $281 $-1 #
edge $-1 $282 63.533294188478934 $190 68.318073958870926 $185 $283 forward 7 unknown #
coedge $-1 $269 $114 $182 $274 reversed $178 $-1 #
coedge $-1 $114 $269 $279 $284 reversed $178 $-1 #
vertex $-1 $183 $285 #
vertex $-1 $284 $286 #
straight-curve $-1 -68.318073958870926 -43.813572554362331 0 0 0 1 I I #
face $-1 $-1 $204 $26 $-1 $287 reversed single #
loop $-1 $-1 $288 $116 #
plane-surface $-1 0 0 9.1285518914954569 0 0 1 1 0 0 forward_v I I I I #
coedge $-1 $289 $290 $197 $291 forward $117 $-1 #
coedge $-1 $292 $119 $121 $202 forward $73 $-1 #
coedge $-1 $119 $292 $195 $291 reversed $73 $-1 #
coedge $-1 $293 $122 $119 $199 forward $204 $-1 #
edge $-1 $206 6.9270480526339107 $294 26.900032352030255 $198 $295 forward 7 unknown #
coedge $-1 $296 $288 $120 $201 forward $193 $-1 #
edge $-1 $297 34.547651938425815 $205 37.847793850013517 $200 $298 forward 7 unknown #
edge $-1 $206 -137.78984954374832 $297 -133.27747483586003 $121 $299 forward 7 unknown #
coedge $-1 $122 $293 $296 $300 reversed $204 $-1 #
loop $-1 $-1 $198 $192 #
vertex $-1 $300 $301 #
vertex $-1 $123 $302 #
straight-curve $-1 68.894924771874145 23.840588254965986 100.39834385550084 0 0 -1 I I #
coedge $-1 $208 $208 $-1 $303 reversed $126 $-1 #
edge $-1 $304 0 $304 6.2831853071796004 $127 $305 forward 7 unknown #
vertex $-1 $130 $306 #
ellipse-curve $-1 67.244853816080308 29.54715519765066 7.5898357978176607 0.68199836817093118 0 0.7313536940579346 0.3656768470289673 0 -0.34099918408546559 1 I I #
coedge $-1 $212 $212 $-1 $307 reversed $133 $-1 #
edge $-1 $308 0 $308 6.2831853071796004 $134 $309 forward 7 unknown #
vertex $-1 $137 $310 #
ellipse-curve $-1 67.244853816080308 38.107005611677657 7.5898357978176607 0.68199836817093118 0 0.7313536940579346 0.3656768470289673 0 -0.34099918408546559 1 I I #
face $-1 $-1 $228 $29 $-1 $311 forward single #
loop $-1 $-1 $312 $138 #
plane-surface $-1 -68.894924771874145 0 0 1 0 0 0 0 -1 forward_v I I I I #
coedge $-1 $313 $314 $221 $315 forward $139 $-1 #
coedge $-1 $316 $141 $143 $226 forward $87 $-1 #
coedge $-1 $141 $316 $219 $315 reversed $87 $-1 #
coedge $-1 $317 $144 $141 $223 forward $228 $-1 #
edge $-1 $230 6.9270480526339107 $318 26.900032352030241 $222 $319 forward 7 unknown #
coedge $-1 $320 $312 $142 $225 forward $217 $-1 #
edge $-1 $321 -47.360997881683751 $229 -44.283565694328146 $224 $322 forward 7 unknown #
edge $-1 $230 -4.5123747078882612 $321 3.8958409169770864e-014 $143 $323 forward 7 unknown #
coedge $-1 $144 $317 $320 $324 forward $228 $-1 #
loop $-1 $-1 $222 $216 #
vertex $-1 $225 $325 #
vertex $-1 $145 $326 #
straight-curve $-1 -81.43368865561429 23.840588254965986 9.1285518914954551 1 0 0 I I #
coedge $-1 $232 $232 $-1 $327 reversed $148 $-1 #
edge $-1 $328 0 $328 6.2831853071796004 $149 $329 forward 7 unknown #
vertex $-1 $152 $330 #
ellipse-curve $-1 -67.244853816080294 29.54715519765066 7.5898357978176509 -0.68199836817093118 0 0.7313536940579346 0.3656768470289673 0 0.34099918408546559 1 I I #
coedge $-1 $236 $236 $-1 $331 reversed $155 $-1 #
edge $-1 $332 0 $332 6.2831853071796004 $156 $333 forward 7 unknown #
vertex $-1 $159 $334 #
ellipse-curve $-1 -67.244853816080294 38.107005611677657 7.5898357978176509 -0.68199836817093118 0 0.7313536940579346 0.3656768470289673 0 0.34099918408546559 1 I I #
face $-1 $-1 $252 $24 $-1 $335 reversed single #
loop $-1 $-1 $336 $160 #
plane-surface $-1 0 43.813572554362331 0 0 -1 0 0 0 -1 forward_v I I I I #
coedge $-1 $258 $257 $337 $338 forward $161 $-1 #
coedge $-1 $163 $173 $339 $340 forward $101 $-1 #
coedge $-1 $251 $169 $163 $246 reversed $252 $-1 #
edge $-1 $341 -43.813572554362331 $174 43.813572554362331 $245 $342 forward 7 unknown #
coedge $-1 $165 $164 $257 $343 forward $65 $-1 #
coedge $-1 $336 $337 $164 $249 reversed $241 $-1 #
edge $-1 $254 -68.894924771874145 $344 68.894924771874145 $248 $345 forward 7 unknown #
edge $-1 $259 -68.894924771874145 $253 68.894924771874145 $168 $346 forward 7 unknown #
coedge $-1 $166 $245 $336 $347 reversed $252 $-1 #
loop $-1 $-1 $169 $240 #
vertex $-1 $167 $348 #
vertex $-1 $167 $349 #
straight-curve $-1 68.894924771874145 0 9.1285518914954569 0 1 0 I I #
straight-curve $-1 68.894924771874145 -43.813572554362331 0 0 0 -1 I I #
coedge $-1 $243 $171 $247 $343 reversed $161 $-1 #
coedge $-1 $171 $243 $173 $261 reversed $161 $-1 #
vertex $-1 $343 $350 #
straight-curve $-1 -68.894924771874145 -43.813572554362331 0 0 0 -1 I I #
edge $-1 $175 -43.813572554362331 $351 43.813572554362331 $258 $352 forward 7 unknown #
point $-1 68.894924771874145 -43.813572554362331 -9.1285518914954569 #
point $-1 -68.894924771874145 -43.813572554362331 -9.1285518914954569 #
face $-1 $-1 $281 $25 $-1 $353 forward single #
loop $-1 $-1 $354 $177 #
plane-surface $-1 -63.533294188478934 -48.772802469989948 0 -1 0 0 0 0 1 forward_v I I I I #
coedge $-1 $355 $180 $271 $356 reversed $109 $-1 #
coedge $-1 $180 $355 $357 $358 reversed $109 $-1 #
coedge $-1 $188 $187 $180 $270 reversed $178 $-1 #
edge $-1 $359 -9.1285518914954569 $360 9.1285518914954569 $269 $361 forward 7 unknown #
coedge $-1 $182 $181 $267 $356 forward $69 $-1 #
coedge $-1 $277 $354 $181 $273 reversed $265 $-1 #
edge $-1 $275 -4.9592299156276169 $362 4.9592299156276169 $272 $363 forward 7 unknown #
edge $-1 $360 -4.9592299156276169 $189 4.9592299156276169 $187 $364 forward 7 unknown #
vertex $-1 $273 $365 #
straight-curve $-1 0 -43.813572554362331 -9.1285518914954569 1 0 0 I I #
coedge $-1 $366 $272 $184 $278 reversed $265 $-1 #
edge $-1 $282 -9.1285518914954569 $275 9.1285518914954569 $277 $367 forward 7 unknown #
coedge $-1 $357 $185 $188 $284 forward $281 $-1 #
coedge $-1 $185 $357 $366 $368 forward $281 $-1 #
loop $-1 $-1 $185 $264 #
vertex $-1 $186 $369 #
straight-curve $-1 0 -43.813572554362331 9.1285518914954569 -1 0 0 I I #
edge $-1 $190 -4.9592299156276169 $359 4.9592299156276169 $188 $370 forward 7 unknown #
point $-1 -68.318073958870926 -43.813572554362331 -9.1285518914954569 #
point $-1 -68.318073958870926 -43.813572554362331 9.1285518914954569 #
plane-surface $-1 68.894924771874145 0 0 -1 0 0 0 0 1 forward_v I I I I #
coedge $-1 $200 $371 $292 $372 forward $193 $-1 #
coedge $-1 $290 $195 $371 $373 reversed $117 $-1 #
coedge $-1 $195 $289 $293 $374 forward $117 $-1 #
edge $-1 $294 -92.02477675683582 $375 -87.512402048947521 $195 $376 forward 7 unknown #
coedge $-1 $197 $196 $288 $372 reversed $73 $-1 #
coedge $-1 $203 $198 $290 $374 reversed $204 $-1 #
vertex $-1 $199 $377 #
straight-curve $-1 68.894924771874145 16.913540202332076 6.0511197041398788 0 1 0 I I #
coedge $-1 $371 $200 $203 $300 forward $193 $-1 #
vertex $-1 $201 $378 #
straight-curve $-1 31.047130921860628 23.840588254965986 9.1285518914954622 1 0 0 I I #
straight-curve $-1 -31.878190695633208 23.840588254965986 100.02357224349436 -0.7313536940579346 0 0.68199836817093118 I I #
edge $-1 $205 23.840588254965986 $379 43.813572554362331 $203 $380 forward 7 unknown #
point $-1 68.894924771874145 23.840588254965986 9.1285518914954569 #
point $-1 68.894924771874145 23.840588254965986 6.0511197041398788 #
edge $-1 $381 1 $381 0 $208 $-1 forward 7 unknown #
vertex $-1 $209 $382 #
ellipse-curve $-1 66.562855447909399 29.54715519765066 6.858482103759747 0.68199836817093118 0 0.7313536940579346 0.3656768470289673 0 -0.34099918408546559 1 I I #
point $-1 67.610530663109301 29.54715519765066 7.248836613732216 #
edge $-1 $383 1 $383 0 $212 $-1 forward 7 unknown #
vertex $-1 $213 $384 #
ellipse-curve $-1 66.562855447909399 38.107005611677657 6.858482103759747 0.68199836817093118 0 0.7313536940579346 0.3656768470289673 0 -0.34099918408546559 1 I I #
point $-1 67.610530663109301 38.107005611677657 7.248836613732216 #
plane-surface $-1 0 0 9.1285518914954569 0 0 1 1 0 0 forward_v I I I I #
coedge $-1 $224 $385 $316 $386 forward $217 $-1 #
coedge $-1 $314 $219 $385 $387 reversed $139 $-1 #
coedge $-1 $219 $313 $317 $388 reversed $139 $-1 #
edge $-1 $318 18.61747727707338 $389 23.129851984961682 $219 $390 forward 7 unknown #
coedge $-1 $221 $220 $312 $386 reversed $87 $-1 #
coedge $-1 $227 $222 $314 $388 forward $228 $-1 #
vertex $-1 $388 $391 #
straight-curve $-1 -65.594782860286443 16.913540202332076 9.1285518914954569 0 1 0 I I #
coedge $-1 $385 $224 $227 $324 reversed $217 $-1 #
vertex $-1 $225 $392 #
straight-curve $-1 -68.894924771874145 23.840588254965986 53.412117585823601 0 0 1 I I #
straight-curve $-1 -68.894924771874116 23.840588254965986 6.0511197041398788 -0.7313536940579346 0 -0.68199836817093118 I I #
edge $-1 $393 -43.813572554362331 $229 -23.840588254965986 $320 $394 forward 7 unknown #
point $-1 -68.894924771874145 23.840588254965986 9.1285518914954569 #
point $-1 -65.594782860286443 23.840588254965986 9.1285518914954569 #
edge $-1 $395 1 $395 0 $232 $-1 forward 7 unknown #
vertex $-1 $233 $396 #
ellipse-curve $-1 -66.562855447909399 29.54715519765066 6.8584821037597488 -0.68199836817093118 0 0.7313536940579346 0.3656768470289673 0 0.34099918408546559 1 I I #
point $-1 -66.879176969051372 29.54715519765066 7.9308349819031498 #
edge $-1 $397 1 $397 0 $236 $-1 forward 7 unknown #
vertex $-1 $237 $398 #
ellipse-curve $-1 -66.562855447909399 38.107005611677657 6.8584821037597488 -0.68199836817093118 0 0.7313536940579346 0.3656768470289673 0 0.34099918408546559 1 I I #
point $-1 -66.879176969051372 38.107005611677657 7.9308349819031498 #
plane-surface $-1 68.894924771874145 0 0 -1 0 0 0 0 1 forward_v I I I I #
coedge $-1 $339 $248 $251 $347 forward $241 $-1 #
coedge $-1 $248 $339 $243 $338 reversed $241 $-1 #
edge $-1 $344 -9.1285518914954569 $351 9.1285518914954569 $337 $399 forward 7 unknown #
coedge $-1 $337 $336 $244 $340 reversed $241 $-1 #
edge $-1 $351 -68.894924771874145 $341 68.894924771874145 $339 $400 forward 7 unknown #
vertex $-1 $246 $401 #
straight-curve $-1 68.894924771874145 0 -9.1285518914954569 0 -1 0 I I #
edge $-1 $344 -43.813572554362331 $259 43.813572554362331 $257 $402 forward 7 unknown #
vertex $-1 $249 $403 #
straight-curve $-1 0 43.813572554362331 9.1285518914954569 -1 0 0 I I #
straight-curve $-1 0 -43.813572554362331 9.1285518914954569 1 0 0 I I #
edge $-1 $254 -9.1285518914954569 $341 9.1285518914954569 $251 $404 forward 7 unknown #
point $-1 68.894924771874145 -43.813572554362331 9.1285518914954569 #
point $-1 68.894924771874145 43.813572554362331 9.1285518914954569 #
point $-1 -68.894924771874145 -43.813572554362331 9.1285518914954569 #
vertex $-1 $340 $405 #
straight-curve $-1 -68.894924771874145 0 -9.1285518914954569 0 1 0 I I #
plane-surface $-1 0 0 9.1285518914954569 0 0 1 1 0 0 forward_v I I I I #
coedge $-1 $272 $366 $355 $406 forward $265 $-1 #
coedge $-1 $268 $267 $354 $406 reversed $109 $-1 #
edge $-1 $362 -2.3923898851959962 $360 2.3923898851959962 $267 $407 forward 7 unknown #
coedge $-1 $280 $279 $268 $358 forward $281 $-1 #
edge $-1 $359 -2.3923898851959962 $408 2.3923898851959962 $268 $409 forward 7 unknown #
vertex $-1 $284 $410 #
vertex $-1 $274 $411 #
straight-curve $-1 -68.318073958870926 -53.732032385617565 0 0 0 -1 I I #
vertex $-1 $406 $412 #
straight-curve $-1 -63.533294188478934 -48.772802469989948 -9.1285518914954569 0 -1 0 I I #
straight-curve $-1 -68.318073958870926 -48.772802469989948 -9.1285518914954569 0 1 0 I I #
point $-1 -63.533294188478934 -43.813572554362331 -9.1285518914954569 #
coedge $-1 $354 $277 $280 $368 reversed $265 $-1 #
straight-curve $-1 -63.533294188478934 -43.813572554362331 0 0 0 -1 I I #
edge $-1 $408 -4.9592299156276169 $282 4.9592299156276169 $366 $413 forward 7 unknown #
point $-1 -63.533294188478934 -43.813572554362331 9.1285518914954569 #
straight-curve $-1 -68.318073958870926 -48.772802469989948 9.1285518914954569 0 -1 0 I I #
coedge $-1 $288 $296 $289 $373 forward $193 $-1 #
edge $-1 $375 -26.900032352030241 $297 -6.9270480526339107 $288 $414 forward 7 unknown #
edge $-1 $379 -68.894924771874145 $375 -65.594782860286443 $289 $415 forward 7 unknown #
edge $-1 $379 -9.1285518914954569 $294 -6.0511197041398681 $293 $416 forward 7 unknown #
vertex $-1 $372 $417 #
straight-curve $-1 1.5922643459055124 43.813572554362331 68.811867283596129 -0.7313536940579346 0 0.68199836817093118 I I #
point $-1 68.894924771874145 43.813572554362331 6.0511197041398681 #
point $-1 65.594782860286443 23.840588254965986 9.1285518914954764 #
vertex $-1 $300 $418 #
straight-curve $-1 68.894924771874145 0 9.1285518914954569 0 1 0 I I #
vertex $-1 $303 $419 #
point $-1 66.928532294938364 29.54715519765066 6.5174829196742818 #
vertex $-1 $307 $420 #
point $-1 66.928532294938364 38.107005611677657 6.5174829196742818 #
coedge $-1 $312 $320 $313 $387 forward $217 $-1 #
edge $-1 $389 -26.900032352030241 $321 -6.9270480526339107 $312 $421 forward 7 unknown #
edge $-1 $393 -9.1285518914954569 $389 -6.0511197041398521 $313 $422 forward 7 unknown #
edge $-1 $318 65.594782860286443 $393 68.894924771874145 $314 $423 forward 7 unknown #
vertex $-1 $386 $424 #
straight-curve $-1 -51.978822079659167 43.813572554362331 21.82564101391889 -0.7313536940579346 0 -0.68199836817093118 I I #
point $-1 -65.594782860286443 43.813572554362317 9.1285518914954569 #
point $-1 -68.894924771874145 23.840588254965986 6.0511197041398521 #
vertex $-1 $388 $425 #
straight-curve $-1 -68.894924771874145 0 9.1285518914954569 0 -1 0 I I #
vertex $-1 $327 $426 #
point $-1 -66.197178600880434 29.54715519765066 7.1994812878452148 #
vertex $-1 $331 $427 #
point $-1 -66.197178600880434 38.107005611677657 7.1994812878452148 #
straight-curve $-1 -68.894924771874145 43.813572554362331 0 0 0 -1 I I #
straight-curve $-1 0 43.813572554362331 -9.1285518914954569 1 0 0 I I #
point $-1 68.894924771874145 43.813572554362331 -9.1285518914954569 #
straight-curve $-1 -68.894924771874145 0 9.1285518914954569 0 -1 0 I I #
point $-1 -68.894924771874145 43.813572554362331 9.1285518914954569 #
straight-curve $-1 68.894924771874145 43.813572554362331 0 0 0 -1 I I #
point $-1 -68.894924771874145 43.813572554362331 -9.1285518914954569 #
edge $-1 $408 -9.1285518914954569 $362 9.1285518914954569 $354 $428 forward 7 unknown #
straight-curve $-1 -65.92568407367493 -53.732032385617565 -9.1285518914954569 -1 0 0 I I #
vertex $-1 $368 $429 #
straight-curve $-1 -65.92568407367493 -53.732032385617565 9.1285518914954569 1 0 0 I I #
point $-1 -68.318073958870926 -53.732032385617565 9.1285518914954569 #
point $-1 -68.318073958870926 -53.732032385617565 -9.1285518914954569 #
point $-1 -63.533294188478934 -53.732032385617565 -9.1285518914954569 #
straight-curve $-1 -63.533294188478934 -48.772802469989948 9.1285518914954569 0 1 0 I I #
straight-curve $-1 65.594782860286472 16.913540202332076 9.1285518914954622 0 -1 0 I I #
straight-curve $-1 0 43.813572554362331 9.1285518914954569 -1 0 0 I I #
straight-curve $-1 68.894924771874145 43.813572554362331 0 0 0 -1 I I #
point $-1 65.594782860286443 43.813572554362317 9.1285518914954764 #
point $-1 68.894924771874145 43.813572554362331 9.1285518914954569 #
point $-1 66.221856263823938 29.54715519765066 6.4928052567307803 #
point $-1 66.221856263823938 38.107005611677657 6.4928052567307803 #
straight-curve $-1 -68.894924771874145 16.913540202332076 6.0511197041398503 0 -1 0 I I #
straight-curve $-1 -68.894924771874145 43.813572554362331 0 0 0 -1 I I #
straight-curve $-1 0 43.813572554362331 9.1285518914954569 -1 0 0 I I #
point $-1 -68.894924771874145 43.813572554362317 6.0511197041398521 #
point $-1 -68.894924771874145 43.813572554362331 9.1285518914954569 #
point $-1 -66.221856263823938 29.54715519765066 6.4928052567307821 #
point $-1 -66.221856263823938 38.107005611677657 6.4928052567307821 #
straight-curve $-1 -63.533294188478934 -53.732032385617565 0 0 0 -1 I I #
point $-1 -63.533294188478934 -53.732032385617565 9.1285518914954569 #
End-of-ACIS-data 