500 0 7 0           
7 Unknown 11 ACIS 5.0 NT 24 Thu Mar 25 18:55:33 1999 
-1 9.9999999999999995e-007 1e-010 
body $-1 $7 $-1 $8 #
body $-1 $9 $-1 $10 #
body $-1 $11 $-1 $12 #
body $-1 $13 $-1 $14 #
body $-1 $15 $-1 $16 #
body $-1 $17 $-1 $18 #
body $-1 $19 $-1 $20 #
lump $-1 $-1 $21 $0 #
transform $-1 1 0 0 0 1 0 0 0 1 77.921079134495074 35.443187714840185 12.380291298873969 1 rotate no_reflect no_shear #
lump $-1 $-1 $22 $1 #
transform $-1 1 0 0 0 1 0 0 0 1 77.921079134495074 35.443187714840185 12.380291298873969 1 rotate no_reflect no_shear #
lump $-1 $-1 $23 $2 #
transform $-1 1 0 0 0 1 0 0 0 1 77.921079134495074 35.443187714840185 12.380291298873969 1 rotate no_reflect no_shear #
lump $-1 $-1 $24 $3 #
transform $-1 1 0 0 0 1 0 0 0 1 77.921079134495074 35.443187714840185 12.380291298873969 1 rotate no_reflect no_shear #
lump $-1 $-1 $25 $4 #
transform $-1 1 0 0 0 1 0 0 0 1 77.921079134495074 35.443187714840185 12.380291298873969 1 rotate no_reflect no_shear #
lump $-1 $-1 $26 $5 #
transform $-1 1 0 0 0 1 0 0 0 1 77.921079134495074 35.443187714840185 12.380291298873969 1 rotate no_reflect no_shear #
lump $-1 $-1 $27 $6 #
transform $-1 1 0 0 0 1 0 0 0 1 77.921079134495074 35.443187714840185 12.380291298873969 1 rotate no_reflect no_shear #
shell $-1 $-1 $-1 $28 $-1 $7 #
shell $-1 $-1 $-1 $29 $-1 $9 #
shell $-1 $-1 $-1 $30 $-1 $11 #
shell $-1 $-1 $-1 $31 $-1 $13 #
shell $-1 $-1 $-1 $32 $-1 $15 #
shell $-1 $-1 $-1 $33 $-1 $17 #
shell $-1 $-1 $-1 $34 $-1 $19 #
face $-1 $35 $36 $21 $-1 $37 forward single #
face $-1 $38 $39 $22 $-1 $40 forward single #
face $-1 $41 $42 $23 $-1 $43 reversed single #
face $-1 $44 $45 $24 $-1 $46 forward single #
face $-1 $47 $48 $25 $-1 $49 forward single #
face $-1 $50 $51 $26 $-1 $52 reversed single #
face $-1 $53 $54 $27 $-1 $55 forward single #
face $-1 $56 $57 $21 $-1 $58 reversed single #
loop $-1 $-1 $59 $28 #
plane-surface $-1 0 0 12.380291298873969 0 0 1 1 0 0 forward_v I I I I #
face $-1 $60 $61 $22 $-1 $62 reversed single #
loop $-1 $-1 $63 $29 #
plane-surface $-1 -73.002698880397816 0 -5.57779974935199 0 0 1 1 0 0 forward_v I I I I #
face $-1 $64 $65 $23 $-1 $66 reversed single #
loop $-1 $-1 $67 $30 #
plane-surface $-1 54.721606999677036 103.82423979234153 162.59659599009021 1 0 0 0 -0.74314483375859142 -0.66913059716165679 forward_v I I I I #
face $-1 $68 $69 $24 $-1 $70 forward single #
loop $-1 $71 $72 $31 #
cone-surface $-1 61.350027609625073 31.547606083039607 8.234722683245927 0 -0.74314483375859142 -0.66913059716165679 1 0 0 1 I I 0 1 1 forward I I I I #
face $-1 $73 $74 $25 $-1 $75 forward single #
loop $-1 $76 $77 $32 #
cone-surface $-1 71.292658524547079 31.547606083039607 8.234722683245927 0 -0.74314483375859142 -0.66913059716165679 1 0 0 1 I I 0 1 1 forward I I I I #
face $-1 $78 $79 $26 $-1 $80 reversed single #
loop $-1 $-1 $81 $33 #
plane-surface $-1 -29.902438903638071 -164.64219356617753 93.965124534438033 -1 0 0 0 -0.82903758062907751 0.55919289150049634 forward_v I I I I #
face $-1 $82 $83 $27 $-1 $84 forward single #
loop $-1 $85 $86 $34 #
cone-surface $-1 -48.993378764969314 -33.050389543077294 9.2508513125348522 0 0.82903758062907751 -0.55919289150049634 1 0 0 1 I I 0 1 1 forward I I I I #
face $-1 $87 $88 $21 $-1 $89 reversed single #
loop $-1 $-1 $90 $35 #
plane-surface $-1 0 0 -12.380291298873969 0 0 1 1 0 0 forward_v I I I I #
coedge $-1 $91 $92 $93 $94 forward $36 $-1 #
face $-1 $95 $96 $22 $-1 $97 reversed single #
loop $-1 $-1 $98 $38 #
plane-surface $-1 -68.084318626300558 0 -8.9790455241129798 -1 0 0 0 0 1 forward_v I I I I #
coedge $-1 $99 $100 $101 $102 forward $39 $-1 #
face $-1 $103 $104 $23 $-1 $105 reversed single #
loop $-1 $-1 $106 $41 #
plane-surface $-1 66.321343067086048 -11.989055007047241 58.317839564599396 0 0.74314483375859142 0.66913059716165679 1 0 0 forward_v I I I I #
coedge $-1 $107 $108 $109 $110 reversed $42 $-1 #
face $-1 $-1 $111 $24 $-1 $112 forward single #
loop $-1 $113 $114 $44 #
cone-surface $-1 61.350027609625073 30.315396788232697 7.1252364783937896 0 -0.74314483375859142 -0.66913059716165679 0.5 0 0 1 I I -0.70710678118654746 0.70710678118654746 0.5 forward I I I I #
loop $-1 $-1 $115 $31 #
coedge $-1 $72 $72 $116 $117 reversed $45 $-1 #
face $-1 $-1 $118 $25 $-1 $119 forward single #
loop $-1 $120 $121 $47 #
cone-surface $-1 71.292658524547079 30.315396788232697 7.1252364783937896 0 -0.74314483375859142 -0.66913059716165679 0.5 0 0 1 I I -0.70710678118654746 0.70710678118654746 0.5 forward I I I I #
loop $-1 $-1 $122 $32 #
coedge $-1 $77 $77 $123 $124 reversed $48 $-1 #
face $-1 $125 $126 $26 $-1 $127 reversed single #
loop $-1 $-1 $128 $50 #
plane-surface $-1 -48.993378764969314 -35.44318771484015 6.8192974343234454 0 -0.82903758062907751 0.55919289150049634 1 0 0 forward_v I I I I #
coedge $-1 $129 $130 $131 $132 reversed $51 $-1 #
face $-1 $-1 $133 $27 $-1 $134 forward single #
loop $-1 $135 $136 $53 #
cone-surface $-1 -48.993378764969314 -32.118541384461636 8.6223118127207403 0 0.82903758062907751 -0.55919289150049634 0.5 0 0 1 I I -0.70710678118654746 0.70710678118654746 0.5 forward I I I I #
loop $-1 $-1 $137 $34 #
coedge $-1 $86 $86 $138 $139 reversed $54 $-1 #
face $-1 $140 $141 $21 $-1 $142 reversed single #
loop $-1 $-1 $143 $56 #
plane-surface $-1 0 -35.443187714840185 0 0 1 0 0 0 1 forward_v I I I I #
coedge $-1 $144 $145 $146 $147 forward $57 $-1 #
coedge $-1 $148 $59 $149 $150 forward $36 $-1 #
coedge $-1 $59 $148 $151 $152 forward $36 $-1 #
coedge $-1 $153 $154 $59 $94 reversed $155 $-1 #
edge $-1 $156 -35.443187714840185 $157 35.443187714840185 $93 $158 forward 7 unknown #
face $-1 $159 $160 $22 $-1 $161 reversed single #
loop $-1 $-1 $162 $60 #
plane-surface $-1 0 0 -12.380291298873969 0 0 1 1 0 0 forward_v I I I I #
coedge $-1 $163 $101 $164 $165 reversed $61 $-1 #
coedge $-1 $166 $63 $167 $168 reversed $39 $-1 #
coedge $-1 $63 $166 $169 $170 reversed $39 $-1 #
coedge $-1 $98 $171 $63 $102 reversed $61 $-1 #
edge $-1 $172 -35.443187714840185 $173 35.443187714840185 $101 $174 forward 7 unknown #
face $-1 $175 $176 $23 $-1 $177 reversed single #
loop $-1 $-1 $178 $64 #
plane-surface $-1 77.921079134495074 0 0 -1 0 0 0 0 1 forward_v I I I I #
coedge $-1 $179 $180 $181 $182 reversed $65 $-1 #
coedge $-1 $108 $67 $183 $184 reversed $42 $-1 #
coedge $-1 $67 $107 $179 $185 reversed $42 $-1 #
coedge $-1 $181 $186 $67 $110 forward $187 $-1 #
edge $-1 $188 16.46893218133058 $189 22.538821689076556 $109 $190 forward 7 unknown #
loop $-1 $-1 $116 $68 #
plane-surface $-1 66.321343067086048 -11.989055007047241 58.317839564599396 0 0.74314483375859142 0.66913059716165679 1 0 0 forward_v I I I I #
loop $-1 $-1 $191 $44 #
coedge $-1 $114 $114 $115 $192 reversed $69 $-1 #
coedge $-1 $115 $115 $114 $192 forward $71 $-1 #
coedge $-1 $116 $116 $72 $117 forward $111 $-1 #
edge $-1 $193 -1.5777083447034361e-015 $193 6.2831853071795987 $116 $194 forward 7 unknown #
loop $-1 $-1 $123 $73 #
plane-surface $-1 66.321343067086048 -11.989055007047241 58.317839564599396 0 0.74314483375859142 0.66913059716165679 1 0 0 forward_v I I I I #
loop $-1 $-1 $195 $47 #
coedge $-1 $121 $121 $122 $196 reversed $74 $-1 #
coedge $-1 $122 $122 $121 $196 forward $76 $-1 #
coedge $-1 $123 $123 $77 $124 forward $118 $-1 #
edge $-1 $197 -1.5777083447034361e-015 $197 6.2831853071795987 $123 $198 forward 7 unknown #
face $-1 $199 $200 $26 $-1 $201 forward single #
loop $-1 $-1 $202 $78 #
plane-surface $-1 -68.084318626300558 -164.64219356617753 93.965124534438033 1 0 0 0 0.82903758062907751 -0.55919289150049634 forward_v I I I I #
coedge $-1 $203 $204 $205 $206 reversed $79 $-1 #
coedge $-1 $130 $81 $207 $208 reversed $51 $-1 #
coedge $-1 $81 $129 $203 $209 reversed $51 $-1 #
coedge $-1 $205 $210 $81 $132 forward $200 $-1 #
edge $-1 $211 46.877909068248577 $212 50.62884667517217 $131 $213 forward 7 unknown #
loop $-1 $-1 $138 $82 #
plane-surface $-1 -48.993378764969314 -35.44318771484015 6.8192974343234454 0 -0.82903758062907751 0.55919289150049634 1 0 0 forward_v I I I I #
loop $-1 $-1 $214 $53 #
coedge $-1 $136 $136 $137 $215 reversed $83 $-1 #
coedge $-1 $137 $137 $136 $215 forward $85 $-1 #
coedge $-1 $138 $138 $86 $139 forward $133 $-1 #
edge $-1 $216 -2.1945234295745947e-015 $216 6.2831853071795987 $138 $217 forward 7 unknown #
face $-1 $218 $219 $21 $-1 $220 reversed single #
loop $-1 $-1 $221 $87 #
plane-surface $-1 -77.921079134495074 0 0 1 0 0 0 0 -1 forward_v I I I I #
coedge $-1 $222 $151 $223 $224 forward $88 $-1 #
coedge $-1 $225 $90 $222 $226 forward $57 $-1 #
coedge $-1 $90 $225 $227 $228 forward $57 $-1 #
coedge $-1 $154 $153 $90 $147 reversed $155 $-1 #
edge $-1 $229 -35.443187714840185 $230 35.443187714840185 $146 $231 forward 7 unknown #
coedge $-1 $92 $91 $232 $233 forward $36 $-1 #
coedge $-1 $234 $235 $91 $150 reversed $219 $-1 #
edge $-1 $157 -77.921079134495074 $236 77.921079134495074 $149 $237 forward 7 unknown #
coedge $-1 $143 $238 $92 $152 reversed $88 $-1 #
edge $-1 $239 -77.921079134495074 $156 77.921079134495074 $151 $240 forward 7 unknown #
coedge $-1 $146 $93 $238 $241 forward $155 $-1 #
coedge $-1 $93 $146 $234 $242 reversed $155 $-1 #
loop $-1 $-1 $153 $218 #
vertex $-1 $94 $243 #
vertex $-1 $94 $244 #
straight-curve $-1 77.921079134495074 0 12.380291298873969 0 1 0 I I #
face $-1 $245 $246 $22 $-1 $247 reversed single #
loop $-1 $-1 $164 $95 #
plane-surface $-1 0 -35.443187714840185 0 0 1 0 0 0 1 forward_v I I I I #
coedge $-1 $248 $249 $163 $250 forward $96 $-1 #
coedge $-1 $171 $98 $162 $250 reversed $61 $-1 #
coedge $-1 $169 $251 $98 $165 forward $160 $-1 #
edge $-1 $252 -7.8907685368174807 $172 -1.0882769872955 $164 $253 forward 7 unknown #
coedge $-1 $100 $99 $254 $255 reversed $39 $-1 #
coedge $-1 $256 $257 $99 $168 forward $258 $-1 #
edge $-1 $259 -41.419729694296166 $173 -31.58296918610165 $167 $260 forward 7 unknown #
coedge $-1 $261 $164 $100 $170 forward $160 $-1 #
edge $-1 $172 31.58296918610165 $262 41.419729694296166 $169 $263 forward 7 unknown #
coedge $-1 $101 $163 $256 $264 reversed $61 $-1 #
vertex $-1 $170 $265 #
vertex $-1 $168 $266 #
straight-curve $-1 -68.084318626300558 0 -5.57779974935199 0 1 0 I I #
face $-1 $-1 $187 $23 $-1 $267 forward single #
loop $-1 $-1 $268 $103 #
plane-surface $-1 0 35.443187714840185 0 0 -1 0 0 0 -1 forward_v I I I I #
coedge $-1 $269 $270 $180 $271 forward $104 $-1 #
coedge $-1 $272 $106 $108 $185 forward $65 $-1 #
coedge $-1 $106 $272 $178 $271 reversed $65 $-1 #
coedge $-1 $273 $109 $106 $182 forward $187 $-1 #
edge $-1 $189 21.560935466134012 $274 44.760407600952036 $181 $275 forward 7 unknown #
coedge $-1 $276 $268 $107 $184 forward $176 $-1 #
edge $-1 $277 -75.659302114884639 $188 -68.918006696171133 $183 $278 forward 7 unknown #
edge $-1 $189 61.81506777539964 $277 70.886375429680385 $108 $279 forward 7 unknown #
coedge $-1 $109 $273 $276 $280 forward $187 $-1 #
loop $-1 $-1 $181 $175 #
vertex $-1 $184 $281 #
vertex $-1 $110 $282 #
straight-curve $-1 54.721606999677036 51.912119896170765 12.380291298873971 0 -1 0 I I #
coedge $-1 $191 $191 $-1 $283 reversed $113 $-1 #
edge $-1 $284 0 $284 6.2831853071796004 $114 $285 forward 7 unknown #
vertex $-1 $117 $286 #
ellipse-curve $-1 61.350027609625073 32.4082429609672 9.0096435895172142 0 0.74314483375859142 0.66913059716165679 1 0 0 1 I I #
coedge $-1 $195 $195 $-1 $287 reversed $120 $-1 #
edge $-1 $288 0 $288 6.2831853071796004 $121 $289 forward 7 unknown #
vertex $-1 $124 $290 #
ellipse-curve $-1 71.292658524547079 32.4082429609672 9.0096435895172142 0 0.74314483375859142 0.66913059716165679 1 0 0 1 I I #
face $-1 $-1 $291 $26 $-1 $292 reversed single #
loop $-1 $-1 $131 $125 #
plane-surface $-1 0 0 12.380291298873969 0 0 1 1 0 0 forward_v I I I I #
coedge $-1 $293 $294 $295 $296 reversed $126 $-1 #
coedge $-1 $297 $128 $130 $209 forward $79 $-1 #
coedge $-1 $128 $297 $293 $298 forward $79 $-1 #
coedge $-1 $295 $131 $128 $206 forward $200 $-1 #
edge $-1 $212 5.4057495211534139 $299 43.587629243815897 $205 $300 forward 7 unknown #
coedge $-1 $301 $302 $129 $208 forward $291 $-1 #
edge $-1 $303 -40.163264832895621 $211 -34.602270968345046 $207 $304 forward 7 unknown #
edge $-1 $212 -6.7077705456136467 $303 6.3310186353091985e-014 $130 $305 forward 7 unknown #
coedge $-1 $131 $295 $301 $306 forward $200 $-1 #
vertex $-1 $208 $307 #
vertex $-1 $132 $308 #
straight-curve $-1 -29.902438903638071 -82.321096783088763 12.380291298873971 0 1 0 I I #
coedge $-1 $214 $214 $-1 $309 reversed $135 $-1 #
edge $-1 $310 0 $310 6.2831853071796004 $136 $311 forward 7 unknown #
vertex $-1 $139 $312 #
ellipse-curve $-1 -48.993378764969314 -33.567718911378378 9.5997943665986956 0 -0.82903758062907751 0.55919289150049634 1 0 0 1 I I #
face $-1 $-1 $155 $21 $-1 $313 reversed single #
loop $-1 $-1 $234 $140 #
plane-surface $-1 0 35.443187714840185 0 0 -1 0 0 0 -1 forward_v I I I I #
coedge $-1 $314 $232 $235 $315 forward $141 $-1 #
coedge $-1 $238 $143 $144 $226 reversed $88 $-1 #
coedge $-1 $232 $314 $143 $224 reversed $141 $-1 #
edge $-1 $239 -12.380291298873969 $316 12.380291298873969 $223 $317 forward 7 unknown #
coedge $-1 $145 $144 $314 $318 forward $57 $-1 #
edge $-1 $230 -77.921079134495074 $316 77.921079134495074 $222 $319 forward 7 unknown #
coedge $-1 $235 $234 $145 $228 reversed $219 $-1 #
edge $-1 $320 -77.921079134495074 $229 77.921079134495074 $227 $321 forward 7 unknown #
vertex $-1 $147 $322 #
vertex $-1 $241 $323 #
straight-curve $-1 77.921079134495074 0 -12.380291298873969 0 -1 0 I I #
coedge $-1 $221 $223 $148 $233 reversed $141 $-1 #
edge $-1 $236 -35.443187714840185 $239 35.443187714840185 $232 $324 forward 7 unknown #
coedge $-1 $227 $149 $154 $242 forward $219 $-1 #
coedge $-1 $149 $227 $221 $315 reversed $219 $-1 #
vertex $-1 $150 $325 #
straight-curve $-1 0 35.443187714840185 12.380291298873969 -1 0 0 I I #
coedge $-1 $151 $222 $153 $241 reversed $88 $-1 #
vertex $-1 $233 $326 #
straight-curve $-1 0 -35.443187714840185 12.380291298873969 1 0 0 I I #
edge $-1 $156 -12.380291298873969 $230 12.380291298873969 $153 $327 forward 7 unknown #
edge $-1 $157 -12.380291298873969 $229 12.380291298873969 $154 $328 forward 7 unknown #
point $-1 77.921079134495074 -35.443187714840185 12.380291298873969 #
point $-1 77.921079134495074 35.443187714840185 12.380291298873969 #
face $-1 $-1 $258 $22 $-1 $329 reversed single #
loop $-1 $-1 $254 $159 #
plane-surface $-1 -77.921079134495074 0 0 1 0 0 0 0 -1 forward_v I I I I #
coedge $-1 $330 $162 $251 $331 forward $96 $-1 #
coedge $-1 $162 $330 $332 $333 forward $96 $-1 #
edge $-1 $334 -35.443187714840185 $252 35.443187714840185 $162 $335 forward 7 unknown #
coedge $-1 $164 $261 $248 $331 reversed $160 $-1 #
vertex $-1 $331 $336 #
straight-curve $-1 -68.084318626300558 -35.443187714840185 -4.4895227620564899 0 0 1 I I #
coedge $-1 $337 $338 $166 $255 forward $246 $-1 #
edge $-1 $262 -35.443187714840185 $259 35.443187714840185 $254 $339 forward 7 unknown #
coedge $-1 $332 $167 $171 $264 forward $258 $-1 #
coedge $-1 $167 $332 $337 $340 reversed $258 $-1 #
loop $-1 $-1 $256 $245 #
vertex $-1 $340 $341 #
straight-curve $-1 -36.501349440198908 35.443187714840185 -5.57779974935199 1 0 0 I I #
coedge $-1 $251 $169 $338 $342 forward $160 $-1 #
vertex $-1 $342 $343 #
straight-curve $-1 -36.501349440198908 -35.443187714840185 -5.57779974935199 -1 0 0 I I #
edge $-1 $173 1.0882769872955 $334 7.8907685368174807 $256 $344 forward 7 unknown #
point $-1 -68.084318626300558 -35.443187714840185 -5.57779974935199 #
point $-1 -68.084318626300558 35.443187714840185 -5.57779974935199 #
plane-surface $-1 0 0 12.380291298873969 0 0 1 1 0 0 forward_v I I I I #
coedge $-1 $183 $345 $272 $346 forward $176 $-1 #
coedge $-1 $270 $178 $345 $347 reversed $104 $-1 #
coedge $-1 $178 $269 $273 $348 reversed $104 $-1 #
edge $-1 $274 36.134645413067688 $349 45.205953067348432 $178 $350 forward 7 unknown #
coedge $-1 $180 $179 $268 $346 reversed $65 $-1 #
coedge $-1 $186 $181 $270 $348 forward $187 $-1 #
vertex $-1 $348 $351 #
straight-curve $-1 33.160671533543024 29.373298207094201 12.380291298873971 1 0 0 I I #
coedge $-1 $345 $183 $186 $280 reversed $176 $-1 #
vertex $-1 $184 $352 #
straight-curve $-1 54.721606999677036 35.443187714840185 81.298297995045104 0 0 1 I I #
straight-curve $-1 54.721606999677036 -11.989055007047241 58.317839564599396 0 0.66913059716165679 -0.74314483375859142 I I #
edge $-1 $353 -77.921079134495074 $188 -54.721606999677036 $276 $354 forward 7 unknown #
point $-1 54.721606999677036 35.443187714840185 12.380291298873969 #
point $-1 54.721606999677036 29.373298207094209 12.380291298873971 #
edge $-1 $355 1 $355 0 $191 $-1 forward 7 unknown #
vertex $-1 $192 $356 #
ellipse-curve $-1 61.350027609625073 30.686969205111993 7.4598017769746177 0 0.74314483375859142 0.66913059716165679 1 0 0 1 I I #
point $-1 62.350027609625073 32.408242960967222 9.0096435895172355 #
edge $-1 $357 1 $357 0 $195 $-1 forward 7 unknown #
vertex $-1 $196 $358 #
ellipse-curve $-1 71.292658524547079 30.686969205111993 7.4598017769746177 0 0.74314483375859142 0.66913059716165679 1 0 0 1 I I #
point $-1 72.292658524547079 32.408242960967222 9.0096435895172355 #
loop $-1 $-1 $207 $199 #
plane-surface $-1 0 -35.443187714840185 0 0 1 0 0 0 1 forward_v I I I I #
coedge $-1 $294 $202 $204 $298 reversed $126 $-1 #
coedge $-1 $202 $293 $359 $360 reversed $126 $-1 #
coedge $-1 $210 $205 $202 $296 forward $200 $-1 #
edge $-1 $299 -50.62884667517217 $361 -46.877909068248577 $295 $362 forward 7 unknown #
coedge $-1 $204 $203 $302 $363 reversed $79 $-1 #
edge $-1 $364 -6.3310186353091985e-014 $299 6.7077705456136467 $293 $365 forward 7 unknown #
vertex $-1 $206 $366 #
straight-curve $-1 -24.496689382484657 -31.692250107916593 12.380291298873969 -1 0 0 I I #
coedge $-1 $359 $207 $210 $306 reversed $291 $-1 #
coedge $-1 $207 $359 $297 $363 forward $291 $-1 #
vertex $-1 $208 $367 #
straight-curve $-1 -29.902438903638071 -35.443187714840178 46.982562267219016 0 0 1 I I #
straight-curve $-1 -29.902438903638071 -35.44318771484015 6.8192974343234454 0 -0.55919289150049634 -0.82903758062907751 I I #
edge $-1 $361 -68.084318626300558 $211 -29.902438903638071 $301 $368 forward 7 unknown #
point $-1 -29.902438903638071 -35.443187714840185 12.380291298873969 #
point $-1 -29.902438903638071 -31.692250107916593 12.380291298873969 #
edge $-1 $369 1 $369 0 $214 $-1 forward 7 unknown #
vertex $-1 $215 $370 #
ellipse-curve $-1 -48.993378764969314 -32.533060174776175 8.9019082584709892 0 -0.82903758062907751 0.55919289150049634 1 0 0 1 I I #
point $-1 -47.993378764969314 -33.567718911378414 9.5997943665987169 #
plane-surface $-1 77.921079134495074 0 0 -1 0 0 0 0 1 forward_v I I I I #
coedge $-1 $223 $221 $225 $318 reversed $141 $-1 #
edge $-1 $236 -12.380291298873969 $320 12.380291298873969 $235 $371 forward 7 unknown #
vertex $-1 $318 $372 #
straight-curve $-1 -77.921079134495074 -35.443187714840185 0 0 0 -1 I I #
edge $-1 $316 -35.443187714840185 $320 35.443187714840185 $314 $373 forward 7 unknown #
straight-curve $-1 0 -35.443187714840185 -12.380291298873969 -1 0 0 I I #
vertex $-1 $228 $374 #
straight-curve $-1 0 35.443187714840185 -12.380291298873969 1 0 0 I I #
point $-1 77.921079134495074 35.443187714840185 -12.380291298873969 #
point $-1 77.921079134495074 -35.443187714840185 -12.380291298873969 #
straight-curve $-1 -77.921079134495074 0 12.380291298873969 0 -1 0 I I #
point $-1 -77.921079134495074 35.443187714840185 12.380291298873969 #
point $-1 -77.921079134495074 -35.443187714840185 12.380291298873969 #
straight-curve $-1 77.921079134495074 -35.443187714840185 0 0 0 -1 I I #
straight-curve $-1 77.921079134495074 35.443187714840185 0 0 0 -1 I I #
plane-surface $-1 0 35.443187714840185 0 0 -1 0 0 0 -1 forward_v I I I I #
coedge $-1 $249 $248 $375 $376 forward $96 $-1 #
edge $-1 $252 68.084318626300558 $377 77.921079134495074 $251 $378 forward 7 unknown #
coedge $-1 $257 $256 $249 $333 reversed $258 $-1 #
edge $-1 $379 -77.921079134495074 $334 -68.084318626300558 $332 $380 forward 7 unknown #
vertex $-1 $264 $381 #
straight-curve $-1 -68.084318626300558 0 -12.380291298873969 0 -1 0 I I #
point $-1 -68.084318626300558 -35.443187714840185 -12.380291298873971 #
coedge $-1 $375 $254 $257 $340 forward $246 $-1 #
coedge $-1 $254 $375 $261 $342 reversed $246 $-1 #
straight-curve $-1 -77.921079134495074 0 -5.57779974935199 0 1 0 I I #
edge $-1 $259 5.57779974935199 $379 12.380291298873969 $257 $382 forward 7 unknown #
point $-1 -77.921079134495074 35.443187714840185 -5.57779974935199 #
edge $-1 $262 5.57779974935199 $377 12.380291298873969 $338 $383 forward 7 unknown #
point $-1 -77.921079134495074 -35.443187714840185 -5.57779974935199 #
straight-curve $-1 -68.084318626300558 35.443187714840185 -4.4895227620564899 0 0 -1 I I #
coedge $-1 $268 $276 $269 $347 forward $176 $-1 #
edge $-1 $349 -44.760407600952036 $277 -21.560935466134012 $268 $384 forward 7 unknown #
edge $-1 $353 -12.380291298873969 $349 -5.6389958801604649 $269 $385 forward 7 unknown #
edge $-1 $274 29.373298207094209 $353 35.443187714840185 $270 $386 forward 7 unknown #
vertex $-1 $271 $387 #
straight-curve $-1 77.921079134495074 5.1945013436235019 39.233566357293803 0 0.66913059716165679 -0.74314483375859142 I I #
point $-1 77.921079134495059 29.373298207094209 12.380291298873971 #
point $-1 54.721606999677036 35.443187714840192 5.6389958801604649 #
vertex $-1 $348 $388 #
straight-curve $-1 0 35.443187714840185 12.380291298873969 -1 0 0 I I #
vertex $-1 $283 $389 #
point $-1 62.350027609625073 30.686969205111993 7.4598017769746177 #
vertex $-1 $287 $390 #
point $-1 72.292658524547079 30.686969205111993 7.4598017769746177 #
coedge $-1 $302 $301 $294 $360 forward $291 $-1 #
edge $-1 $361 34.602270968345046 $364 40.163264832895621 $359 $391 forward 7 unknown #
vertex $-1 $306 $392 #
straight-curve $-1 -68.084318626300558 -82.321096783088763 12.380291298873971 0 -1 0 I I #
edge $-1 $364 -43.587629243815897 $303 -5.4057495211534139 $302 $393 forward 7 unknown #
vertex $-1 $363 $394 #
straight-curve $-1 -68.084318626300558 -35.44318771484015 6.8192974343234454 0 0.55919289150049634 0.82903758062907751 I I #
point $-1 -68.084318626300558 -31.692250107916593 12.380291298873969 #
point $-1 -29.902438903638071 -35.443187714840185 6.819297434323393 #
straight-curve $-1 0 -35.443187714840185 12.380291298873969 1 0 0 I I #
vertex $-1 $309 $395 #
point $-1 -47.993378764969314 -32.533060174776175 8.9019082584709892 #
straight-curve $-1 -77.921079134495074 35.443187714840185 0 0 0 -1 I I #
point $-1 -77.921079134495074 -35.443187714840185 -12.380291298873969 #
straight-curve $-1 -77.921079134495074 0 -12.380291298873969 0 1 0 I I #
point $-1 -77.921079134495074 35.443187714840185 -12.380291298873969 #
coedge $-1 $338 $337 $330 $376 reversed $246 $-1 #
edge $-1 $377 -35.443187714840185 $379 35.443187714840185 $375 $396 forward 7 unknown #
vertex $-1 $376 $397 #
straight-curve $-1 0 -35.443187714840185 -12.380291298873969 -1 0 0 I I #
vertex $-1 $333 $398 #
straight-curve $-1 0 35.443187714840185 -12.380291298873969 1 0 0 I I #
point $-1 -68.084318626300558 35.443187714840185 -12.380291298873971 #
straight-curve $-1 -77.921079134495074 35.443187714840185 0 0 0 -1 I I #
straight-curve $-1 -77.921079134495074 -35.443187714840185 0 0 0 -1 I I #
straight-curve $-1 33.160671533543024 35.443187714840185 5.6389958801604756 -1 0 0 I I #
straight-curve $-1 77.921079134495074 35.443187714840185 0 0 0 -1 I I #
straight-curve $-1 77.921079134495074 0 12.380291298873969 0 1 0 I I #
point $-1 77.921079134495059 35.443187714840192 5.6389958801604649 #
point $-1 77.921079134495074 35.443187714840185 12.380291298873969 #
point $-1 61.350027609625073 29.943824371353401 6.7906711798129615 #
point $-1 71.292658524547079 29.943824371353401 6.7906711798129615 #
straight-curve $-1 -68.084318626300558 -35.443187714840178 46.982562267219016 0 0 -1 I I #
point $-1 -68.084318626300558 -35.443187714840185 12.380291298873969 #
straight-curve $-1 -24.496689382484657 -35.443187714840185 6.8192974343233921 1 0 0 I I #
point $-1 -68.084318626300558 -35.443187714840185 6.819297434323393 #
point $-1 -48.993378764969314 -31.704022594147098 8.3427153669704914 #
straight-curve $-1 -77.921079134495074 0 -12.380291298873969 0 1 0 I I #
point $-1 -77.921079134495074 -35.443187714840185 -12.380291298873969 #
point $-1 -77.921079134495074 35.443187714840185 -12.380291298873969 #
End-of-ACIS-data 