500 0 10 0           
7 Unknown 11 ACIS 5.0 NT 24 Fri Mar 26 14:56:33 1999 
-1 9.9999999999999995e-007 1e-010 
body $-1 $10 $-1 $11 #
body $-1 $12 $-1 $13 #
body $-1 $14 $-1 $15 #
body $-1 $16 $-1 $17 #
body $-1 $18 $-1 $19 #
body $-1 $20 $-1 $21 #
body $-1 $22 $-1 $23 #
body $-1 $24 $-1 $25 #
body $-1 $26 $-1 $27 #
body $-1 $28 $-1 $29 #
lump $-1 $-1 $30 $0 #
transform $-1 1 0 0 0 1 0 0 0 1 69.38444166386914 43.781843143599495 11.050015039447242 1 rotate no_reflect no_shear #
lump $-1 $-1 $31 $1 #
transform $-1 1 0 0 0 1 0 0 0 1 69.38444166386914 43.781843143599495 11.050015039447242 1 rotate no_reflect no_shear #
lump $-1 $-1 $32 $2 #
transform $-1 1 0 0 0 1 0 0 0 1 69.38444166386914 43.781843143599495 11.050015039447242 1 rotate no_reflect no_shear #
lump $-1 $-1 $33 $3 #
transform $-1 1 0 0 0 1 0 0 0 1 69.38444166386914 43.781843143599495 11.050015039447242 1 rotate no_reflect no_shear #
lump $-1 $-1 $34 $4 #
transform $-1 1 0 0 0 1 0 0 0 1 69.38444166386914 43.781843143599495 11.050015039447242 1 rotate no_reflect no_shear #
lump $-1 $-1 $35 $5 #
transform $-1 1 0 0 0 1 0 0 0 1 69.38444166386914 43.781843143599495 11.050015039447242 1 rotate no_reflect no_shear #
lump $-1 $-1 $36 $6 #
transform $-1 1 0 0 0 1 0 0 0 1 69.38444166386914 43.781843143599495 11.050015039447242 1 rotate no_reflect no_shear #
lump $-1 $-1 $37 $7 #
transform $-1 1 0 0 0 1 0 0 0 1 69.38444166386914 43.781843143599495 11.050015039447242 1 rotate no_reflect no_shear #
lump $-1 $-1 $38 $8 #
transform $-1 1 0 0 0 1 0 0 0 1 69.38444166386914 43.781843143599495 11.050015039447242 1 rotate no_reflect no_shear #
lump $-1 $-1 $39 $9 #
transform $-1 1 0 0 0 1 0 0 0 1 69.38444166386914 43.781843143599495 11.050015039447242 1 rotate no_reflect no_shear #
shell $-1 $-1 $-1 $40 $-1 $10 #
shell $-1 $-1 $-1 $41 $-1 $12 #
shell $-1 $-1 $-1 $42 $-1 $14 #
shell $-1 $-1 $-1 $43 $-1 $16 #
shell $-1 $-1 $-1 $44 $-1 $18 #
shell $-1 $-1 $-1 $45 $-1 $20 #
shell $-1 $-1 $-1 $46 $-1 $22 #
shell $-1 $-1 $-1 $47 $-1 $24 #
shell $-1 $-1 $-1 $48 $-1 $26 #
shell $-1 $-1 $-1 $49 $-1 $28 #
face $-1 $50 $51 $30 $-1 $52 forward single #
face $-1 $53 $54 $31 $-1 $55 forward single #
face $-1 $56 $57 $32 $-1 $58 forward single #
face $-1 $59 $60 $33 $-1 $61 reversed single #
face $-1 $62 $63 $34 $-1 $64 forward single #
face $-1 $65 $66 $35 $-1 $67 forward single #
face $-1 $68 $69 $36 $-1 $70 reversed single #
face $-1 $71 $72 $37 $-1 $73 forward single #
face $-1 $74 $75 $38 $-1 $76 forward single #
face $-1 $77 $78 $39 $-1 $79 forward single #
face $-1 $80 $81 $30 $-1 $82 reversed single #
loop $-1 $-1 $83 $40 #
plane-surface $-1 0 0 11.050015039447242 0 0 1 1 0 0 forward_v I I I I #
face $-1 $84 $85 $31 $-1 $86 reversed single #
loop $-1 $-1 $87 $41 #
plane-surface $-1 0 -36.571407352595266 6.7801787263304618 0 0 1 1 0 0 forward_v I I I I #
face $-1 $88 $89 $32 $-1 $90 reversed single #
loop $-1 $-1 $91 $42 #
plane-surface $-1 0 36.571407352595266 6.7801787263304618 0 0 1 1 0 0 forward_v I I I I #
face $-1 $92 $93 $33 $-1 $94 reversed single #
loop $-1 $-1 $95 $43 #
plane-surface $-1 -158.58336157332081 -22.433545158103581 106.40827970009012 0 -1 0 0.64278761758704617 0 -0.76604443648966558 forward_v I I I I #
face $-1 $96 $97 $34 $-1 $98 forward single #
loop $-1 $99 $100 $44 #
cone-surface $-1 -62.541256082947896 -27.381706874880329 5.1945596359751329 0.64278761758704617 0 -0.76604443648966558 0.38302221824483279 0 0.32139380879352308 1 I I 0 1 0.5 forward I I I I #
face $-1 $101 $102 $35 $-1 $103 forward single #
loop $-1 $104 $105 $45 #
cone-surface $-1 -62.541256082947896 -24.41280984481428 5.1945596359751329 0.64278761758704617 0 -0.76604443648966558 0.38302221824483279 0 0.32139380879352308 1 I I 0 1 0.5 forward I I I I #
face $-1 $106 $107 $36 $-1 $108 reversed single #
loop $-1 $-1 $109 $46 #
plane-surface $-1 25.238060481217218 -1.5642727700066601 194.32849387113137 0 -1 0 -0.52991927123019833 0 -0.84804809178421925 forward_v I I I I #
face $-1 $110 $111 $37 $-1 $112 forward single #
loop $-1 $113 $114 $47 #
cone-surface $-1 62.76574326202379 -6.9210122287362807 6.6557342956077452 -0.52991927123019833 0 -0.84804809178421925 0.42402404589210962 0 -0.26495963561509916 1 I I 0 1 0.5 forward I I I I #
face $-1 $115 $116 $38 $-1 $117 forward single #
loop $-1 $118 $119 $48 #
cone-surface $-1 62.76574326202379 -4.9122349317126748 6.6557342956077452 -0.52991927123019833 0 -0.84804809178421925 0.42402404589210962 0 -0.26495963561509916 1 I I 0 1 0.5 forward I I I I #
face $-1 $120 $121 $39 $-1 $122 forward single #
loop $-1 $123 $124 $49 #
cone-surface $-1 62.76574326202379 -2.9034576346890688 6.6557342956077452 -0.52991927123019833 0 -0.84804809178421925 0.42402404589210962 0 -0.26495963561509916 1 I I 0 1 0.5 forward I I I I #
face $-1 $125 $126 $30 $-1 $127 reversed single #
loop $-1 $-1 $128 $50 #
plane-surface $-1 0 0 -11.050015039447242 0 0 1 1 0 0 forward_v I I I I #
coedge $-1 $129 $130 $131 $132 forward $51 $-1 #
face $-1 $133 $134 $31 $-1 $135 reversed single #
loop $-1 $-1 $136 $53 #
plane-surface $-1 0 -36.571407352595266 1.00376625003749 0 0 1 1 0 0 forward_v I I I I #
coedge $-1 $137 $138 $139 $140 reversed $54 $-1 #
face $-1 $141 $142 $32 $-1 $143 reversed single #
loop $-1 $-1 $144 $56 #
plane-surface $-1 0 36.571407352595266 1.00376625003749 0 0 1 1 0 0 forward_v I I I I #
coedge $-1 $145 $146 $147 $148 reversed $57 $-1 #
face $-1 $149 $150 $33 $-1 $151 forward single #
loop $-1 $-1 $152 $59 #
plane-surface $-1 -69.384441663869154 -25.897258359847307 0.10514866899269748 -0.64278761758704617 0 0.76604443648966558 0.76604443648966558 0 0.64278761758704617 forward_v I I I I #
coedge $-1 $153 $154 $155 $156 reversed $60 $-1 #
face $-1 $-1 $157 $34 $-1 $158 forward single #
loop $-1 $159 $160 $62 #
cone-surface $-1 -62.059165369757615 -27.381706874880329 4.6200263086078834 0.64278761758704617 0 -0.76604443648966558 0.1915111091224164 0 0.16069690439676154 1 I I -0.70710678118654746 0.70710678118654746 0.25 forward I I I I #
loop $-1 $-1 $161 $44 #
coedge $-1 $100 $100 $162 $163 reversed $63 $-1 #
face $-1 $-1 $164 $35 $-1 $165 forward single #
loop $-1 $166 $167 $65 #
cone-surface $-1 -62.059165369757615 -24.41280984481428 4.6200263086078834 0.64278761758704617 0 -0.76604443648966558 0.1915111091224164 0 0.16069690439676154 1 I I -0.70710678118654746 0.70710678118654746 0.25 forward I I I I #
loop $-1 $-1 $168 $45 #
coedge $-1 $105 $105 $169 $170 reversed $66 $-1 #
face $-1 $171 $172 $36 $-1 $173 reversed single #
loop $-1 $-1 $174 $68 #
plane-surface $-1 -48.298245041246275 -4.9122349317126748 76.64580716601597 0.52991927123019833 0 0.84804809178421925 0.84804809178421925 0 -0.52991927123019833 forward_v I I I I #
coedge $-1 $175 $176 $177 $178 reversed $69 $-1 #
face $-1 $-1 $179 $37 $-1 $180 forward single #
loop $-1 $181 $182 $71 #
cone-surface $-1 62.368303808601141 -6.9210122287362807 6.0196982267695809 -0.52991927123019833 0 -0.84804809178421925 0.21201202294605481 0 -0.13247981780754958 1 I I -0.70710678118654746 0.70710678118654746 0.25 forward I I I I #
loop $-1 $-1 $183 $47 #
coedge $-1 $114 $114 $184 $185 reversed $72 $-1 #
face $-1 $-1 $186 $38 $-1 $187 forward single #
loop $-1 $188 $189 $74 #
cone-surface $-1 62.368303808601141 -4.9122349317126748 6.0196982267695809 -0.52991927123019833 0 -0.84804809178421925 0.21201202294605481 0 -0.13247981780754958 1 I I -0.70710678118654746 0.70710678118654746 0.25 forward I I I I #
loop $-1 $-1 $190 $48 #
coedge $-1 $119 $119 $191 $192 reversed $75 $-1 #
face $-1 $-1 $193 $39 $-1 $194 forward single #
loop $-1 $195 $196 $77 #
cone-surface $-1 62.368303808601141 -2.9034576346890688 6.0196982267695809 -0.52991927123019833 0 -0.84804809178421925 0.21201202294605481 0 -0.13247981780754958 1 I I -0.70710678118654746 0.70710678118654746 0.25 forward I I I I #
loop $-1 $-1 $197 $49 #
coedge $-1 $124 $124 $198 $199 reversed $78 $-1 #
face $-1 $200 $201 $30 $-1 $202 reversed single #
loop $-1 $-1 $203 $80 #
plane-surface $-1 0 -43.781843143599495 0 0 1 0 0 0 1 forward_v I I I I #
coedge $-1 $204 $205 $206 $207 forward $81 $-1 #
coedge $-1 $208 $83 $209 $210 forward $51 $-1 #
coedge $-1 $83 $208 $211 $212 forward $51 $-1 #
coedge $-1 $213 $214 $83 $132 reversed $215 $-1 #
edge $-1 $216 -43.781843143599495 $217 43.781843143599495 $131 $218 forward 7 unknown #
face $-1 $219 $220 $31 $-1 $221 reversed single #
loop $-1 $-1 $222 $84 #
plane-surface $-1 0 -29.360971561591032 3.8919724881839759 0 -1 0 0 0 -1 forward_v I I I I #
coedge $-1 $223 $224 $225 $226 reversed $85 $-1 #
coedge $-1 $227 $87 $228 $229 forward $54 $-1 #
coedge $-1 $87 $227 $230 $231 reversed $54 $-1 #
coedge $-1 $232 $233 $87 $140 forward $234 $-1 #
edge $-1 $235 11.0752678852934 $236 25.496139467301862 $139 $237 forward 7 unknown #
face $-1 $238 $239 $32 $-1 $240 reversed single #
loop $-1 $-1 $241 $88 #
plane-surface $-1 0 29.360971561591036 3.8919724881839759 0 1 0 0 0 1 forward_v I I I I #
coedge $-1 $242 $243 $244 $245 reversed $89 $-1 #
coedge $-1 $246 $91 $247 $248 reversed $57 $-1 #
coedge $-1 $91 $246 $249 $250 forward $57 $-1 #
coedge $-1 $251 $252 $91 $148 forward $239 $-1 #
edge $-1 $253 -25.496139467301862 $254 -11.075267885293403 $147 $255 forward 7 unknown #
face $-1 $256 $257 $33 $-1 $258 reversed single #
loop $-1 $-1 $259 $92 #
plane-surface $-1 0 0 11.050015039447242 0 0 1 1 0 0 forward_v I I I I #
coedge $-1 $260 $261 $262 $263 reversed $93 $-1 #
coedge $-1 $154 $95 $264 $265 reversed $60 $-1 #
coedge $-1 $95 $153 $260 $266 reversed $60 $-1 #
coedge $-1 $262 $267 $95 $156 forward $257 $-1 #
edge $-1 $268 42.154124810597821 $269 53.098991181052348 $155 $270 forward 7 unknown #
loop $-1 $-1 $162 $96 #
plane-surface $-1 -69.384441663869154 -25.897258359847307 0.10514866899269748 -0.64278761758704617 0 0.76604443648966558 0.76604443648966558 0 0.64278761758704617 forward_v I I I I #
loop $-1 $-1 $271 $62 #
coedge $-1 $160 $160 $161 $272 reversed $97 $-1 #
coedge $-1 $161 $161 $160 $272 forward $99 $-1 #
coedge $-1 $162 $162 $100 $163 forward $157 $-1 #
edge $-1 $273 0 $273 6.2831853071796004 $162 $274 forward 7 unknown #
loop $-1 $-1 $169 $101 #
plane-surface $-1 -69.384441663869154 -25.897258359847307 0.10514866899269748 -0.64278761758704617 0 0.76604443648966558 0.76604443648966558 0 0.64278761758704617 forward_v I I I I #
loop $-1 $-1 $275 $65 #
coedge $-1 $167 $167 $168 $276 reversed $102 $-1 #
coedge $-1 $168 $168 $167 $276 forward $104 $-1 #
coedge $-1 $169 $169 $105 $170 forward $164 $-1 #
edge $-1 $277 0 $277 6.2831853071796004 $169 $278 forward 7 unknown #
face $-1 $279 $280 $36 $-1 $281 reversed single #
loop $-1 $-1 $282 $106 #
plane-surface $-1 25.238060481217218 -8.2601970934186895 194.32849387113137 0 1 0 0.52991927123019833 0 0.84804809178421925 forward_v I I I I #
coedge $-1 $283 $284 $285 $286 reversed $107 $-1 #
coedge $-1 $176 $109 $287 $288 reversed $69 $-1 #
coedge $-1 $109 $175 $283 $289 reversed $69 $-1 #
coedge $-1 $285 $290 $109 $178 forward $291 $-1 #
edge $-1 $292 -56.765411423260531 $293 -44.05793389080003 $177 $294 forward 7 unknown #
loop $-1 $-1 $184 $110 #
plane-surface $-1 -48.298245041246275 -4.9122349317126748 76.64580716601597 0.52991927123019833 0 0.84804809178421925 0.84804809178421925 0 -0.52991927123019833 forward_v I I I I #
loop $-1 $-1 $295 $71 #
coedge $-1 $182 $182 $183 $296 reversed $111 $-1 #
coedge $-1 $183 $183 $182 $296 forward $113 $-1 #
coedge $-1 $184 $184 $114 $185 forward $179 $-1 #
edge $-1 $297 0 $297 6.2831853071796004 $184 $298 forward 7 unknown #
loop $-1 $-1 $191 $115 #
plane-surface $-1 -48.298245041246275 -4.9122349317126748 76.64580716601597 0.52991927123019833 0 0.84804809178421925 0.84804809178421925 0 -0.52991927123019833 forward_v I I I I #
loop $-1 $-1 $299 $74 #
coedge $-1 $189 $189 $190 $300 reversed $116 $-1 #
coedge $-1 $190 $190 $189 $300 forward $118 $-1 #
coedge $-1 $191 $191 $119 $192 forward $186 $-1 #
edge $-1 $301 0 $301 6.2831853071796004 $191 $302 forward 7 unknown #
loop $-1 $-1 $198 $120 #
plane-surface $-1 -48.298245041246275 -4.9122349317126748 76.64580716601597 0.52991927123019833 0 0.84804809178421925 0.84804809178421925 0 -0.52991927123019833 forward_v I I I I #
loop $-1 $-1 $303 $77 #
coedge $-1 $196 $196 $197 $304 reversed $121 $-1 #
coedge $-1 $197 $197 $196 $304 forward $123 $-1 #
coedge $-1 $198 $198 $124 $199 forward $193 $-1 #
edge $-1 $305 0 $305 6.2831853071796004 $198 $306 forward 7 unknown #
face $-1 $307 $308 $30 $-1 $309 reversed single #
loop $-1 $-1 $310 $125 #
plane-surface $-1 -69.38444166386914 0 0 1 0 0 0 0 -1 forward_v I I I I #
coedge $-1 $311 $211 $312 $313 forward $126 $-1 #
coedge $-1 $314 $128 $311 $315 forward $81 $-1 #
coedge $-1 $128 $314 $316 $317 forward $81 $-1 #
coedge $-1 $214 $213 $128 $207 reversed $215 $-1 #
edge $-1 $318 -43.781843143599495 $319 43.781843143599495 $206 $320 forward 7 unknown #
coedge $-1 $130 $129 $321 $322 forward $51 $-1 #
coedge $-1 $323 $324 $129 $210 reversed $308 $-1 #
edge $-1 $217 -69.38444166386914 $325 69.38444166386914 $209 $326 forward 7 unknown #
coedge $-1 $203 $327 $130 $212 reversed $126 $-1 #
edge $-1 $328 -69.38444166386914 $216 69.38444166386914 $211 $329 forward 7 unknown #
coedge $-1 $206 $131 $327 $330 forward $215 $-1 #
coedge $-1 $131 $206 $323 $331 reversed $215 $-1 #
loop $-1 $-1 $213 $307 #
vertex $-1 $132 $332 #
vertex $-1 $132 $333 #
straight-curve $-1 69.38444166386914 0 11.050015039447242 0 1 0 I I #
face $-1 $334 $335 $31 $-1 $336 reversed single #
loop $-1 $-1 $337 $133 #
plane-surface $-1 -69.38444166386914 0 0 1 0 0 0 0 -1 forward_v I I I I #
coedge $-1 $338 $228 $233 $339 reversed $134 $-1 #
coedge $-1 $340 $136 $341 $342 reversed $85 $-1 #
coedge $-1 $136 $340 $338 $343 forward $85 $-1 #
coedge $-1 $233 $232 $136 $226 forward $234 $-1 #
edge $-1 $344 -25.496139467301862 $345 -11.0752678852934 $225 $346 forward 7 unknown #
coedge $-1 $138 $137 $337 $347 reversed $54 $-1 #
coedge $-1 $222 $348 $137 $229 reversed $134 $-1 #
edge $-1 $235 -69.38444166386914 $349 69.38444166386914 $228 $350 forward 7 unknown #
coedge $-1 $351 $352 $138 $231 forward $335 $-1 #
edge $-1 $236 -69.38444166386914 $353 69.38444166386914 $230 $354 forward 7 unknown #
coedge $-1 $225 $139 $352 $355 forward $234 $-1 #
coedge $-1 $139 $225 $222 $339 forward $234 $-1 #
loop $-1 $-1 $139 $334 #
vertex $-1 $140 $356 #
vertex $-1 $355 $357 #
straight-curve $-1 69.38444166386914 -18.285703676297633 6.7801787263304618 0 -1 0 I I #
face $-1 $358 $359 $32 $-1 $360 reversed single #
loop $-1 $-1 $147 $141 #
plane-surface $-1 69.38444166386914 0 0 -1 0 0 0 0 1 forward_v I I I I #
coedge $-1 $361 $249 $362 $363 reversed $142 $-1 #
coedge $-1 $364 $144 $361 $365 forward $89 $-1 #
coedge $-1 $144 $364 $366 $367 reversed $89 $-1 #
coedge $-1 $252 $251 $144 $245 forward $239 $-1 #
edge $-1 $368 11.075267885293403 $369 25.496139467301862 $244 $370 forward 7 unknown #
coedge $-1 $146 $145 $371 $372 reversed $57 $-1 #
coedge $-1 $373 $374 $145 $248 forward $375 $-1 #
edge $-1 $376 -69.38444166386914 $253 69.38444166386914 $247 $377 forward 7 unknown #
coedge $-1 $241 $378 $146 $250 reversed $142 $-1 #
edge $-1 $379 -69.38444166386914 $254 69.38444166386914 $249 $380 forward 7 unknown #
coedge $-1 $244 $147 $378 $381 forward $239 $-1 #
coedge $-1 $147 $244 $373 $382 reversed $239 $-1 #
vertex $-1 $382 $383 #
vertex $-1 $148 $384 #
straight-curve $-1 69.38444166386914 18.285703676297633 6.7801787263304618 0 -1 0 I I #
face $-1 $-1 $385 $33 $-1 $386 forward single #
loop $-1 $-1 $387 $149 #
plane-surface $-1 -69.38444166386914 0 0 1 0 0 0 0 -1 forward_v I I I I #
coedge $-1 $388 $389 $390 $391 forward $150 $-1 #
coedge $-1 $392 $152 $154 $266 forward $93 $-1 #
coedge $-1 $152 $392 $393 $394 forward $93 $-1 #
coedge $-1 $387 $155 $152 $263 forward $257 $-1 #
edge $-1 $269 9.4849159781799273 $395 16.412342381667379 $262 $396 forward 7 unknown #
coedge $-1 $389 $388 $153 $265 forward $150 $-1 #
edge $-1 $397 -22.95082266704668 $268 -9.9072391227912675 $264 $398 forward 7 unknown #
edge $-1 $269 1.8548830061813768e-014 $397 17.027189185038083 $154 $399 forward 7 unknown #
coedge $-1 $155 $387 $389 $400 reversed $257 $-1 #
vertex $-1 $400 $401 #
vertex $-1 $156 $402 #
straight-curve $-1 -69.38444166386914 -22.433545158103581 53.20413985004506 0 0 -1 I I #
coedge $-1 $271 $271 $-1 $403 reversed $159 $-1 #
edge $-1 $404 0 $404 6.2831853071796004 $160 $405 forward 7 unknown #
vertex $-1 $163 $406 #
ellipse-curve $-1 -62.862649891741434 -27.381706874880329 5.5775818542199795 -0.64278761758704617 0 0.76604443648966558 0.38302221824483279 0 0.32139380879352308 1 I I #
coedge $-1 $275 $275 $-1 $407 reversed $166 $-1 #
edge $-1 $408 0 $408 6.2831853071796004 $167 $409 forward 7 unknown #
vertex $-1 $170 $410 #
ellipse-curve $-1 -62.862649891741434 -24.41280984481428 5.5775818542199795 -0.64278761758704617 0 0.76604443648966558 0.38302221824483279 0 0.32139380879352308 1 I I #
face $-1 $-1 $291 $36 $-1 $411 forward single #
loop $-1 $-1 $412 $171 #
plane-surface $-1 69.38444166386914 0 0 -1 0 0 0 0 1 forward_v I I I I #
coedge $-1 $413 $414 $415 $416 reversed $172 $-1 #
coedge $-1 $417 $174 $176 $289 forward $107 $-1 #
coedge $-1 $174 $417 $413 $418 forward $107 $-1 #
coedge $-1 $415 $177 $174 $286 forward $291 $-1 #
edge $-1 $293 -0.89184469584967729 $419 5.8040796275623521 $285 $420 forward 7 unknown #
coedge $-1 $421 $422 $175 $288 forward $280 $-1 #
edge $-1 $423 -94.054745292013209 $292 -86.11423189611844 $287 $424 forward 7 unknown #
edge $-1 $293 123.78450018299814 $423 138.76888332773831 $176 $425 forward 7 unknown #
coedge $-1 $177 $415 $421 $426 forward $291 $-1 #
loop $-1 $-1 $415 $279 #
vertex $-1 $288 $427 #
vertex $-1 $178 $428 #
straight-curve $-1 12.619030240608609 -1.5642727700066601 11.050015039447246 -1 0 0 I I #
coedge $-1 $295 $295 $-1 $429 reversed $181 $-1 #
edge $-1 $430 0 $430 6.2831853071796004 $182 $431 forward 7 unknown #
vertex $-1 $185 $432 #
ellipse-curve $-1 63.030702897638889 -6.9210122287362807 7.0797583414998613 0.52991927123019833 0 0.84804809178421925 0.42402404589210962 0 -0.26495963561509916 1 I I #
coedge $-1 $299 $299 $-1 $433 reversed $188 $-1 #
edge $-1 $434 0 $434 6.2831853071796004 $189 $435 forward 7 unknown #
vertex $-1 $192 $436 #
ellipse-curve $-1 63.030702897638889 -4.9122349317126748 7.0797583414998613 0.52991927123019833 0 0.84804809178421925 0.42402404589210962 0 -0.26495963561509916 1 I I #
coedge $-1 $303 $303 $-1 $437 reversed $195 $-1 #
edge $-1 $438 0 $438 6.2831853071796004 $196 $439 forward 7 unknown #
vertex $-1 $199 $440 #
ellipse-curve $-1 63.030702897638889 -2.9034576346890688 7.0797583414998613 0.52991927123019833 0 0.84804809178421925 0.42402404589210962 0 -0.26495963561509916 1 I I #
face $-1 $-1 $215 $30 $-1 $441 reversed single #
loop $-1 $-1 $323 $200 #
plane-surface $-1 0 43.781843143599495 0 0 -1 0 0 0 -1 forward_v I I I I #
coedge $-1 $442 $321 $324 $443 forward $201 $-1 #
coedge $-1 $327 $203 $204 $315 reversed $126 $-1 #
coedge $-1 $321 $442 $203 $313 reversed $201 $-1 #
edge $-1 $328 -11.050015039447242 $444 11.050015039447242 $312 $445 forward 7 unknown #
coedge $-1 $205 $204 $442 $446 forward $81 $-1 #
edge $-1 $319 -69.38444166386914 $444 69.38444166386914 $311 $447 forward 7 unknown #
coedge $-1 $324 $323 $205 $317 reversed $308 $-1 #
edge $-1 $448 -69.38444166386914 $318 69.38444166386914 $316 $449 forward 7 unknown #
vertex $-1 $207 $450 #
vertex $-1 $330 $451 #
straight-curve $-1 69.38444166386914 0 -11.050015039447242 0 -1 0 I I #
coedge $-1 $310 $312 $208 $322 reversed $201 $-1 #
edge $-1 $325 -43.781843143599495 $328 43.781843143599495 $321 $452 forward 7 unknown #
coedge $-1 $316 $209 $214 $331 forward $308 $-1 #
coedge $-1 $209 $316 $310 $443 reversed $308 $-1 #
vertex $-1 $210 $453 #
straight-curve $-1 0 43.781843143599495 11.050015039447242 -1 0 0 I I #
coedge $-1 $211 $311 $213 $330 reversed $126 $-1 #
vertex $-1 $322 $454 #
straight-curve $-1 0 -43.781843143599495 11.050015039447242 1 0 0 I I #
edge $-1 $216 -11.050015039447242 $319 11.050015039447242 $213 $455 forward 7 unknown #
edge $-1 $217 -11.050015039447242 $318 11.050015039447242 $214 $456 forward 7 unknown #
point $-1 69.38444166386914 -43.781843143599495 11.050015039447242 #
point $-1 69.38444166386914 43.781843143599495 11.050015039447242 #
face $-1 $-1 $234 $31 $-1 $457 reversed single #
loop $-1 $-1 $230 $219 #
plane-surface $-1 0 -43.781843143599495 0 0 1 0 0 0 1 forward_v I I I I #
coedge $-1 $458 $459 $227 $347 forward $220 $-1 #
coedge $-1 $348 $222 $224 $343 reversed $134 $-1 #
edge $-1 $345 -0.94221999405449797 $235 4.8341924822384739 $233 $460 forward 7 unknown #
coedge $-1 $224 $223 $461 $462 reversed $85 $-1 #
coedge $-1 $352 $351 $223 $342 forward $335 $-1 #
edge $-1 $463 -69.38444166386914 $344 69.38444166386914 $341 $464 forward 7 unknown #
edge $-1 $465 -69.38444166386914 $345 69.38444166386914 $338 $466 forward 7 unknown #
vertex $-1 $342 $467 #
vertex $-1 $226 $468 #
straight-curve $-1 69.38444166386914 -18.285703676297633 1.00376625003749 0 1 0 I I #
edge $-1 $353 -25.496139467301862 $349 -11.0752678852934 $337 $469 forward 7 unknown #
coedge $-1 $228 $338 $458 $470 reversed $134 $-1 #
vertex $-1 $347 $471 #
straight-curve $-1 0 -29.360971561591032 6.7801787263304618 -1 0 0 I I #
coedge $-1 $341 $230 $459 $472 forward $335 $-1 #
coedge $-1 $230 $341 $232 $355 reversed $335 $-1 #
vertex $-1 $472 $473 #
straight-curve $-1 0 -43.781843143599495 6.7801787263304618 -1 0 0 I I #
edge $-1 $236 -6.7801787263304618 $344 -1.00376625003749 $232 $474 forward 7 unknown #
point $-1 69.38444166386914 -29.360971561591032 6.7801787263304618 #
point $-1 69.38444166386914 -43.781843143599495 6.7801787263304618 #
face $-1 $-1 $375 $32 $-1 $475 reversed single #
loop $-1 $-1 $371 $238 #
plane-surface $-1 -69.38444166386914 0 0 1 0 0 0 0 -1 forward_v I I I I #
coedge $-1 $378 $241 $242 $365 reversed $142 $-1 #
coedge $-1 $371 $476 $241 $363 forward $359 $-1 #
edge $-1 $477 -0.94221999405449797 $379 4.8341924822384739 $362 $478 forward 7 unknown #
coedge $-1 $243 $242 $476 $479 reversed $89 $-1 #
edge $-1 $368 -69.38444166386914 $477 69.38444166386914 $361 $480 forward 7 unknown #
coedge $-1 $374 $373 $243 $367 forward $375 $-1 #
edge $-1 $369 -69.38444166386914 $481 69.38444166386914 $366 $482 forward 7 unknown #
vertex $-1 $245 $483 #
vertex $-1 $367 $484 #
straight-curve $-1 69.38444166386914 18.285703676297633 1.00376625003749 0 1 0 I I #
coedge $-1 $485 $362 $246 $372 forward $359 $-1 #
edge $-1 $379 11.075267885293403 $376 25.496139467301862 $371 $486 forward 7 unknown #
coedge $-1 $366 $247 $252 $382 forward $375 $-1 #
coedge $-1 $247 $366 $485 $487 reversed $375 $-1 #
loop $-1 $-1 $247 $358 #
vertex $-1 $487 $488 #
straight-curve $-1 0 43.781843143599495 6.7801787263304618 1 0 0 I I #
coedge $-1 $249 $361 $251 $381 reversed $142 $-1 #
vertex $-1 $372 $489 #
straight-curve $-1 0 29.360971561591036 6.7801787263304618 1 0 0 I I #
edge $-1 $254 -4.8341924822384739 $368 0.94221999405449797 $251 $490 forward 7 unknown #
edge $-1 $253 -6.7801787263304618 $369 -1.00376625003749 $252 $491 forward 7 unknown #
point $-1 69.38444166386914 43.781843143599495 6.7801787263304618 #
point $-1 69.38444166386914 29.360971561591036 6.7801787263304618 #
loop $-1 $-1 $393 $256 #
plane-surface $-1 0 -29.360971561591032 3.8919724881839759 0 -1 0 0 0 -1 forward_v I I I I #
coedge $-1 $267 $262 $492 $493 forward $257 $-1 #
coedge $-1 $264 $259 $392 $494 forward $150 $-1 #
coedge $-1 $259 $264 $267 $400 forward $150 $-1 #
coedge $-1 $492 $393 $259 $391 reversed $385 $-1 #
edge $-1 $495 9.9072391227912675 $496 22.95082266704668 $259 $497 forward 7 unknown #
coedge $-1 $261 $260 $388 $494 reversed $93 $-1 #
coedge $-1 $390 $492 $261 $394 reversed $385 $-1 #
edge $-1 $496 -17.027189185038083 $395 -1.8548830061813768e-014 $393 $498 forward 7 unknown #
vertex $-1 $263 $499 #
straight-curve $-1 -69.38444166386914 -12.948629179923653 0.10514866899271803 0 -1 0 I I #
vertex $-1 $265 $500 #
straight-curve $-1 -79.291680786660407 -22.433545158103581 11.050015039447246 -1 0 0 I I #
straight-curve $-1 -69.384441663869154 -22.433545158103581 0.10514866899269748 0.76604443648966558 0 0.64278761758704617 I I #
edge $-1 $268 22.433545158103581 $495 29.360971561591032 $267 $501 forward 7 unknown #
point $-1 -69.38444166386914 -22.433545158103581 11.050015039447242 #
point $-1 -69.38444166386914 -22.433545158103581 0.1051486689927094 #
edge $-1 $502 1 $502 0 $271 $-1 forward 7 unknown #
vertex $-1 $272 $503 #
ellipse-curve $-1 -62.219862274154373 -27.381706874880329 4.8115374177302996 -0.64278761758704617 0 0.76604443648966558 0.38302221824483279 0 0.32139380879352308 1 I I #
point $-1 -62.479627673496587 -27.381706874880329 5.8989756630134886 #
edge $-1 $504 1 $504 0 $275 $-1 forward 7 unknown #
vertex $-1 $276 $505 #
ellipse-curve $-1 -62.219862274154373 -24.41280984481428 4.8115374177302996 -0.64278761758704617 0 0.76604443648966558 0.38302221824483279 0 0.32139380879352308 1 I I #
point $-1 -62.479627673496587 -24.41280984481428 5.8989756630134886 #
plane-surface $-1 0 0 11.050015039447242 0 0 1 1 0 0 forward_v I I I I #
coedge $-1 $422 $421 $414 $506 forward $280 $-1 #
coedge $-1 $414 $282 $284 $418 reversed $172 $-1 #
coedge $-1 $282 $413 $412 $506 reversed $172 $-1 #
coedge $-1 $290 $285 $282 $416 forward $291 $-1 #
edge $-1 $419 44.05793389080003 $507 56.765411423260531 $415 $508 forward 7 unknown #
coedge $-1 $284 $283 $422 $509 reversed $107 $-1 #
edge $-1 $510 -138.76888332773831 $419 -123.78450018299814 $413 $511 forward 7 unknown #
vertex $-1 $286 $512 #
straight-curve $-1 56.676964131408639 -2.4561174658563374 11.050015039447239 0 -1 0 I I #
coedge $-1 $412 $287 $290 $426 reversed $280 $-1 #
coedge $-1 $287 $412 $417 $509 forward $280 $-1 #
vertex $-1 $288 $513 #
straight-curve $-1 69.38444166386914 -1.5642727700066601 97.164246935565686 0 0 1 I I #
straight-curve $-1 -48.298245041246275 -1.5642727700066601 76.64580716601597 0.84804809178421925 0 -0.52991927123019833 I I #
edge $-1 $507 -8.2601970934186895 $292 -1.5642727700066601 $421 $514 forward 7 unknown #
point $-1 69.38444166386914 -1.5642727700066601 11.050015039447242 #
point $-1 56.676964131408639 -1.5642727700066601 11.050015039447246 #
edge $-1 $515 1 $515 0 $295 $-1 forward 7 unknown #
vertex $-1 $296 $516 #
ellipse-curve $-1 62.50078362640869 -6.9210122287362807 6.2317102497156354 0.52991927123019833 0 0.84804809178421925 0.42402404589210962 0 -0.26495963561509916 1 I I #
point $-1 63.454726943531 -6.9210122287362807 6.8147987058847557 #
edge $-1 $517 1 $517 0 $299 $-1 forward 7 unknown #
vertex $-1 $300 $518 #
ellipse-curve $-1 62.50078362640869 -4.9122349317126748 6.2317102497156354 0.52991927123019833 0 0.84804809178421925 0.42402404589210962 0 -0.26495963561509916 1 I I #
point $-1 63.454726943531 -4.9122349317126748 6.8147987058847557 #
edge $-1 $519 1 $519 0 $303 $-1 forward 7 unknown #
vertex $-1 $304 $520 #
ellipse-curve $-1 62.50078362640869 -2.9034576346890688 6.2317102497156354 0.52991927123019833 0 0.84804809178421925 0.42402404589210962 0 -0.26495963561509916 1 I I #
point $-1 63.454726943531 -2.9034576346890688 6.8147987058847557 #
plane-surface $-1 69.38444166386914 0 0 -1 0 0 0 0 1 forward_v I I I I #
coedge $-1 $312 $310 $314 $446 reversed $201 $-1 #
edge $-1 $325 -11.050015039447242 $448 11.050015039447242 $324 $521 forward 7 unknown #
vertex $-1 $446 $522 #
straight-curve $-1 -69.38444166386914 -43.781843143599495 0 0 0 -1 I I #
edge $-1 $444 -43.781843143599495 $448 43.781843143599495 $442 $523 forward 7 unknown #
straight-curve $-1 0 -43.781843143599495 -11.050015039447242 -1 0 0 I I #
vertex $-1 $317 $524 #
straight-curve $-1 0 43.781843143599495 -11.050015039447242 1 0 0 I I #
point $-1 69.38444166386914 43.781843143599495 -11.050015039447242 #
point $-1 69.38444166386914 -43.781843143599495 -11.050015039447242 #
straight-curve $-1 -69.38444166386914 0 11.050015039447242 0 -1 0 I I #
point $-1 -69.38444166386914 43.781843143599495 11.050015039447242 #
point $-1 -69.38444166386914 -43.781843143599495 11.050015039447242 #
straight-curve $-1 69.38444166386914 -43.781843143599495 0 0 0 -1 I I #
straight-curve $-1 69.38444166386914 43.781843143599495 0 0 0 -1 I I #
plane-surface $-1 69.38444166386914 0 0 -1 0 0 0 0 1 forward_v I I I I #
coedge $-1 $461 $337 $348 $470 forward $220 $-1 #
coedge $-1 $337 $461 $351 $472 reversed $220 $-1 #
straight-curve $-1 69.38444166386914 -29.360971561591032 1.9459862440919879 0 0 1 I I #
coedge $-1 $459 $458 $340 $462 forward $220 $-1 #
edge $-1 $465 11.0752678852934 $463 25.496139467301862 $461 $525 forward 7 unknown #
vertex $-1 $342 $526 #
straight-curve $-1 0 -43.781843143599495 1.00376625003749 1 0 0 I I #
vertex $-1 $462 $527 #
straight-curve $-1 0 -29.360971561591032 1.00376625003749 1 0 0 I I #
point $-1 69.38444166386914 -43.781843143599495 1.00376625003749 #
point $-1 69.38444166386914 -29.360971561591032 1.00376625003749 #
straight-curve $-1 -69.38444166386914 -18.285703676297633 6.7801787263304618 0 1 0 I I #
edge $-1 $349 -4.8341924822384739 $465 0.94221999405449797 $458 $528 forward 7 unknown #
point $-1 -69.38444166386914 -29.360971561591032 6.7801787263304618 #
edge $-1 $353 -6.7801787263304618 $463 -1.00376625003749 $459 $529 forward 7 unknown #
point $-1 -69.38444166386914 -43.781843143599495 6.7801787263304618 #
straight-curve $-1 69.38444166386914 -43.781843143599495 0 0 0 -1 I I #
plane-surface $-1 0 43.781843143599495 0 0 -1 0 0 0 -1 forward_v I I I I #
coedge $-1 $362 $485 $364 $479 forward $359 $-1 #
vertex $-1 $479 $530 #
straight-curve $-1 -69.38444166386914 29.360971561591036 1.9459862440919879 0 0 1 I I #
edge $-1 $481 -25.496139467301862 $477 -11.075267885293403 $476 $531 forward 7 unknown #
straight-curve $-1 0 29.360971561591036 1.00376625003749 -1 0 0 I I #
vertex $-1 $367 $532 #
straight-curve $-1 0 43.781843143599495 1.00376625003749 -1 0 0 I I #
point $-1 69.38444166386914 29.360971561591036 1.00376625003749 #
point $-1 69.38444166386914 43.781843143599495 1.00376625003749 #
coedge $-1 $476 $371 $374 $487 forward $359 $-1 #
straight-curve $-1 -69.38444166386914 18.285703676297633 6.7801787263304618 0 1 0 I I #
edge $-1 $376 -6.7801787263304618 $481 -1.00376625003749 $374 $533 forward 7 unknown #
point $-1 -69.38444166386914 43.781843143599495 6.7801787263304618 #
point $-1 -69.38444166386914 29.360971561591036 6.7801787263304618 #
straight-curve $-1 69.38444166386914 29.360971561591036 1.9459862440919879 0 0 -1 I I #
straight-curve $-1 69.38444166386914 43.781843143599495 0 0 0 -1 I I #
coedge $-1 $393 $390 $387 $493 reversed $385 $-1 #
edge $-1 $395 -53.098991181052348 $495 -42.154124810597821 $387 $534 forward 7 unknown #
edge $-1 $496 -16.412342381667379 $397 -9.4849159781799273 $388 $535 forward 7 unknown #
vertex $-1 $391 $536 #
vertex $-1 $391 $537 #
straight-curve $-1 -79.291680786660407 -29.360971561591032 11.050015039447246 1 0 0 I I #
straight-curve $-1 -69.384441663869154 -29.360971561591032 0.10514866899269748 -0.76604443648966558 0 -0.64278761758704617 I I #
point $-1 -69.38444166386914 -29.360971561591032 0.1051486689927094 #
point $-1 -56.340858119613728 -22.433545158103581 11.050015039447242 #
straight-curve $-1 -69.38444166386914 0 11.050015039447242 0 -1 0 I I #
vertex $-1 $403 $538 #
point $-1 -61.836840055909541 -27.381706874880329 5.1329312265238229 #
vertex $-1 $407 $539 #
point $-1 -61.836840055909541 -24.41280984481428 5.1329312265238229 #
edge $-1 $507 86.11423189611844 $510 94.054745292013209 $412 $540 forward 7 unknown #
vertex $-1 $426 $541 #
straight-curve $-1 12.619030240608609 -8.2601970934186895 11.050015039447246 1 0 0 I I #
edge $-1 $510 -5.8040796275623521 $423 0.89184469584967729 $422 $542 forward 7 unknown #
vertex $-1 $509 $543 #
straight-curve $-1 -48.298245041246275 -8.2601970934186895 76.64580716601597 -0.84804809178421925 0 0.52991927123019833 I I #
point $-1 56.676964131408639 -8.2601970934186895 11.050015039447246 #
point $-1 69.384441663869126 -1.5642727700066601 3.1095016435524769 #
straight-curve $-1 69.38444166386914 0 11.050015039447242 0 1 0 I I #
vertex $-1 $429 $544 #
point $-1 62.924807672300801 -6.9210122287362807 5.9667506141005369 #
vertex $-1 $433 $545 #
point $-1 62.924807672300801 -4.9122349317126748 5.9667506141005369 #
vertex $-1 $437 $546 #
point $-1 62.924807672300801 -2.9034576346890688 5.9667506141005369 #
straight-curve $-1 -69.38444166386914 43.781843143599495 0 0 0 -1 I I #
point $-1 -69.38444166386914 -43.781843143599495 -11.050015039447242 #
straight-curve $-1 -69.38444166386914 0 -11.050015039447242 0 1 0 I I #
point $-1 -69.38444166386914 43.781843143599495 -11.050015039447242 #
straight-curve $-1 -69.38444166386914 -18.285703676297633 1.00376625003749 0 -1 0 I I #
point $-1 -69.38444166386914 -43.781843143599495 1.00376625003749 #
point $-1 -69.38444166386914 -29.360971561591032 1.00376625003749 #
straight-curve $-1 -69.38444166386914 -29.360971561591032 1.9459862440919879 0 0 -1 I I #
straight-curve $-1 -69.38444166386914 -43.781843143599495 0 0 0 -1 I I #
point $-1 -69.38444166386914 29.360971561591036 1.00376625003749 #
straight-curve $-1 -69.38444166386914 18.285703676297633 1.00376625003749 0 -1 0 I I #
point $-1 -69.38444166386914 43.781843143599495 1.00376625003749 #
straight-curve $-1 -69.38444166386914 43.781843143599495 0 0 0 -1 I I #
straight-curve $-1 -69.38444166386914 -29.360971561591032 53.20413985004506 0 0 1 I I #
straight-curve $-1 -56.340858119613728 -12.948629179923653 11.050015039447242 0 1 0 I I #
point $-1 -69.38444166386914 -29.360971561591032 11.050015039447242 #
point $-1 -56.340858119613728 -29.360971561591032 11.050015039447242 #
point $-1 -61.898468465360857 -27.381706874880329 4.4285151994854672 #
point $-1 -61.898468465360857 -24.41280984481428 4.4285151994854672 #
straight-curve $-1 69.38444166386914 -8.2601970934186895 97.164246935565686 0 0 -1 I I #
point $-1 69.38444166386914 -8.2601970934186895 11.050015039447242 #
straight-curve $-1 69.38444166386914 -2.4561174658563374 3.1095016435524698 0 1 0 I I #
point $-1 69.384441663869126 -8.2601970934186895 3.1095016435524769 #
point $-1 62.235823990793591 -6.9210122287362807 5.8076862038235264 #
point $-1 62.235823990793591 -4.9122349317126748 5.8076862038235264 #
point $-1 62.235823990793591 -2.9034576346890688 5.8076862038235264 #
End-of-ACIS-data 