500 0 9 0           
7 Unknown 11 ACIS 5.0 NT 24 Fri Mar 26 19:48:16 1999 
-1 9.9999999999999995e-007 1e-010 
body $-1 $9 $-1 $10 #
body $-1 $11 $-1 $12 #
body $-1 $13 $-1 $14 #
body $-1 $15 $-1 $16 #
body $-1 $17 $-1 $18 #
body $-1 $19 $-1 $20 #
body $-1 $21 $-1 $22 #
body $-1 $23 $-1 $24 #
body $-1 $25 $-1 $26 #
lump $-1 $-1 $27 $0 #
transform $-1 1 0 0 0 1 0 0 0 1 48.722190008239998 22.208171058902838 6.5121240878095685 1 rotate no_reflect no_shear #
lump $-1 $-1 $28 $1 #
transform $-1 1 0 0 0 1 0 0 0 1 48.722190008239998 22.208171058902838 6.5121240878095685 1 rotate no_reflect no_shear #
lump $-1 $-1 $29 $2 #
transform $-1 1 0 0 0 1 0 0 0 1 48.722190008239998 22.208171058902838 6.5121240878095685 1 rotate no_reflect no_shear #
lump $-1 $-1 $30 $3 #
transform $-1 1 0 0 0 1 0 0 0 1 48.722190008239998 22.208171058902838 6.5121240878095685 1 rotate no_reflect no_shear #
lump $-1 $-1 $31 $4 #
transform $-1 1 0 0 0 1 0 0 0 1 48.722190008239998 22.208171058902838 6.5121240878095685 1 rotate no_reflect no_shear #
lump $-1 $-1 $32 $5 #
transform $-1 1 0 0 0 1 0 0 0 1 48.722190008239998 22.208171058902838 6.5121240878095685 1 rotate no_reflect no_shear #
lump $-1 $-1 $33 $6 #
transform $-1 1 0 0 0 1 0 0 0 1 48.722190008239998 22.208171058902838 6.5121240878095685 1 rotate no_reflect no_shear #
lump $-1 $-1 $34 $7 #
transform $-1 1 0 0 0 1 0 0 0 1 48.722190008239998 22.208171058902838 6.5121240878095685 1 rotate no_reflect no_shear #
lump $-1 $-1 $35 $8 #
transform $-1 1 0 0 0 1 0 0 0 1 48.722190008239998 22.208171058902838 6.5121240878095685 1 rotate no_reflect no_shear #
shell $-1 $-1 $-1 $36 $-1 $9 #
shell $-1 $-1 $-1 $37 $-1 $11 #
shell $-1 $-1 $-1 $38 $-1 $13 #
shell $-1 $-1 $-1 $39 $-1 $15 #
shell $-1 $-1 $-1 $40 $-1 $17 #
shell $-1 $-1 $-1 $41 $-1 $19 #
shell $-1 $-1 $-1 $42 $-1 $21 #
shell $-1 $-1 $-1 $43 $-1 $23 #
shell $-1 $-1 $-1 $44 $-1 $25 #
face $-1 $45 $46 $27 $-1 $47 forward single #
face $-1 $48 $49 $28 $-1 $50 reversed single #
face $-1 $51 $52 $29 $-1 $53 reversed single #
face $-1 $54 $55 $30 $-1 $56 forward single #
face $-1 $57 $58 $31 $-1 $59 forward single #
face $-1 $60 $61 $32 $-1 $62 reversed single #
face $-1 $63 $64 $33 $-1 $65 forward single #
face $-1 $66 $67 $34 $-1 $68 forward single #
face $-1 $69 $70 $35 $-1 $71 forward single #
face $-1 $72 $73 $27 $-1 $74 reversed single #
loop $-1 $-1 $75 $36 #
plane-surface $-1 0 0 6.5121240878095685 0 0 1 1 0 0 forward_v I I I I #
face $-1 $76 $77 $28 $-1 $78 reversed single #
loop $-1 $-1 $79 $37 #
plane-surface $-1 0 -18.801131955585038 3.5121240878095685 0 0 1 1 0 0 forward_v I I I I #
face $-1 $80 $81 $29 $-1 $82 reversed single #
loop $-1 $-1 $83 $38 #
plane-surface $-1 -48.722190008239984 -10.903860596766981 1.1163296113326311 -0.50000000669873634 0 0.8660253999169214 0.8660253999169214 0 0.50000000669873634 forward_v I I I I #
face $-1 $84 $85 $30 $-1 $86 forward single #
loop $-1 $87 $88 $39 #
cone-surface $-1 -43.109515637717372 -12.828245849124233 2.1864812726985372 0.50000000669873634 0 -0.8660253999169214 0.8660253999169214 0 0.50000000669873634 1 I I 0 1 1 forward I I I I #
face $-1 $89 $90 $31 $-1 $91 forward single #
loop $-1 $92 $93 $40 #
cone-surface $-1 -43.109515637717372 -8.9794753444097282 2.1864812726985372 0.50000000669873634 0 -0.8660253999169214 0.8660253999169214 0 0.50000000669873634 1 I I 0 1 1 forward I I I I #
face $-1 $94 $95 $32 $-1 $96 reversed single #
loop $-1 $-1 $97 $41 #
plane-surface $-1 70.279981850507824 13.452234327446238 137.77928866259603 0 -1 0 -0.80901700255871778 0 -0.5877852410284794 forward_v I I I I #
face $-1 $98 $99 $33 $-1 $100 forward single #
loop $-1 $101 $102 $42 #
cone-surface $-1 46.558226575393157 6.8101286960771326 3.7965494386972218 -0.80901700255871778 0 -0.5877852410284794 0.2938926205142397 0 -0.40450850127935889 1 I I 0 1 0.5 forward I I I I #
face $-1 $103 $104 $34 $-1 $105 forward single #
loop $-1 $106 $107 $43 #
cone-surface $-1 46.558226575393157 9.3009183078405471 3.7965494386972218 -0.80901700255871778 0 -0.5877852410284794 0.2938926205142397 0 -0.40450850127935889 1 I I 0 1 0.5 forward I I I I #
face $-1 $108 $109 $35 $-1 $110 forward single #
loop $-1 $111 $112 $44 #
cone-surface $-1 46.558226575393157 11.791707919603962 3.7965494386972218 -0.80901700255871778 0 -0.5877852410284794 0.2938926205142397 0 -0.40450850127935889 1 I I 0 1 0.5 forward I I I I #
face $-1 $113 $114 $27 $-1 $115 reversed single #
loop $-1 $-1 $116 $45 #
plane-surface $-1 0 0 -6.5121240878095685 0 0 1 1 0 0 forward_v I I I I #
coedge $-1 $117 $118 $119 $120 forward $46 $-1 #
face $-1 $121 $122 $28 $-1 $123 reversed single #
loop $-1 $-1 $124 $48 #
plane-surface $-1 0 -15.394092852267239 5.0121240878095685 0 -1 0 0 0 -1 forward_v I I I I #
coedge $-1 $125 $126 $127 $128 reversed $49 $-1 #
face $-1 $129 $130 $29 $-1 $131 forward single #
loop $-1 $-1 $132 $51 #
plane-surface $-1 -97.444380669234192 -6.4136283412667243 85.505637784761191 0 -1 0 0.50000000669873634 0 -0.8660253999169214 forward_v I I I I #
coedge $-1 $133 $134 $135 $136 reversed $52 $-1 #
face $-1 $-1 $137 $30 $-1 $138 forward single #
loop $-1 $139 $140 $54 #
cone-surface $-1 -41.919736270600851 -12.828245849124233 0.1257229958675099 0.50000000669873634 0 -0.8660253999169214 0.4330126999584607 0 0.25000000334936817 1 I I -0.70710678118654746 0.70710678118654746 0.5 forward I I I I #
loop $-1 $-1 $141 $39 #
coedge $-1 $88 $88 $142 $143 reversed $55 $-1 #
face $-1 $-1 $144 $31 $-1 $145 forward single #
loop $-1 $146 $147 $57 #
cone-surface $-1 -41.919736270600851 -8.9794753444097282 0.1257229958675099 0.50000000669873634 0 -0.8660253999169214 0.4330126999584607 0 0.25000000334936817 1 I I -0.70710678118654746 0.70710678118654746 0.5 forward I I I I #
loop $-1 $-1 $148 $40 #
coedge $-1 $93 $93 $149 $150 reversed $58 $-1 #
face $-1 $151 $152 $32 $-1 $153 reversed single #
loop $-1 $-1 $154 $60 #
plane-surface $-1 -8.554178386617437 9.3009183078405471 80.502920267738602 0.80901700255871778 0 0.5877852410284794 0.5877852410284794 0 -0.80901700255871778 forward_v I I I I #
coedge $-1 $155 $156 $157 $158 reversed $61 $-1 #
face $-1 $-1 $159 $33 $-1 $160 forward single #
loop $-1 $161 $162 $63 #
cone-surface $-1 45.951463823474121 6.8101286960771326 3.3557105079258625 -0.80901700255871778 0 -0.5877852410284794 0.14694631025711985 0 -0.20225425063967944 1 I I -0.70710678118654746 0.70710678118654746 0.25 forward I I I I #
loop $-1 $-1 $163 $42 #
coedge $-1 $102 $102 $164 $165 reversed $64 $-1 #
face $-1 $-1 $166 $34 $-1 $167 forward single #
loop $-1 $168 $169 $66 #
cone-surface $-1 45.951463823474121 9.3009183078405471 3.3557105079258625 -0.80901700255871778 0 -0.5877852410284794 0.14694631025711985 0 -0.20225425063967944 1 I I -0.70710678118654746 0.70710678118654746 0.25 forward I I I I #
loop $-1 $-1 $170 $43 #
coedge $-1 $107 $107 $171 $172 reversed $67 $-1 #
face $-1 $-1 $173 $35 $-1 $174 forward single #
loop $-1 $175 $176 $69 #
cone-surface $-1 45.951463823474121 11.791707919603962 3.3557105079258625 -0.80901700255871778 0 -0.5877852410284794 0.14694631025711985 0 -0.20225425063967944 1 I I -0.70710678118654746 0.70710678118654746 0.25 forward I I I I #
loop $-1 $-1 $177 $44 #
coedge $-1 $112 $112 $178 $179 reversed $70 $-1 #
face $-1 $180 $181 $27 $-1 $182 reversed single #
loop $-1 $-1 $183 $72 #
plane-surface $-1 0 -22.208171058902838 0 0 1 0 0 0 1 forward_v I I I I #
coedge $-1 $184 $185 $186 $187 forward $73 $-1 #
coedge $-1 $188 $75 $189 $190 forward $46 $-1 #
coedge $-1 $75 $188 $191 $192 forward $46 $-1 #
coedge $-1 $193 $194 $75 $120 reversed $195 $-1 #
edge $-1 $196 -22.208171058902838 $197 22.208171058902838 $119 $198 forward 7 unknown #
face $-1 $199 $200 $28 $-1 $201 reversed single #
loop $-1 $-1 $202 $76 #
plane-surface $-1 -48.722190008239998 0 0 1 0 0 0 0 -1 forward_v I I I I #
coedge $-1 $203 $204 $205 $206 reversed $77 $-1 #
coedge $-1 $207 $79 $208 $209 reversed $49 $-1 #
coedge $-1 $79 $207 $203 $210 forward $49 $-1 #
coedge $-1 $205 $211 $79 $128 forward $212 $-1 #
edge $-1 $213 -12.807605081110319 $214 -5.9935268744747194 $127 $215 forward 7 unknown #
face $-1 $216 $217 $29 $-1 $218 reversed single #
loop $-1 $-1 $135 $80 #
plane-surface $-1 0 0 6.5121240878095685 0 0 1 1 0 0 forward_v I I I I #
coedge $-1 $219 $220 $221 $222 reversed $81 $-1 #
coedge $-1 $223 $83 $224 $225 reversed $52 $-1 #
coedge $-1 $83 $223 $219 $226 forward $52 $-1 #
coedge $-1 $221 $227 $83 $136 forward $130 $-1 #
edge $-1 $228 -9.9421625538837475 $229 -0.96169804288323402 $135 $230 forward 7 unknown #
loop $-1 $-1 $142 $84 #
plane-surface $-1 -48.722190008239984 -10.903860596766981 1.1163296113326311 -0.50000000669873634 0 0.8660253999169214 0.8660253999169214 0 0.50000000669873634 forward_v I I I I #
loop $-1 $-1 $231 $54 #
coedge $-1 $140 $140 $141 $232 reversed $85 $-1 #
coedge $-1 $141 $141 $140 $232 forward $87 $-1 #
coedge $-1 $142 $142 $88 $143 forward $137 $-1 #
edge $-1 $233 0 $233 6.2831853071796004 $142 $234 forward 7 unknown #
loop $-1 $-1 $149 $89 #
plane-surface $-1 -48.722190008239984 -10.903860596766981 1.1163296113326311 -0.50000000669873634 0 0.8660253999169214 0.8660253999169214 0 0.50000000669873634 forward_v I I I I #
loop $-1 $-1 $235 $57 #
coedge $-1 $147 $147 $148 $236 reversed $90 $-1 #
coedge $-1 $148 $148 $147 $236 forward $92 $-1 #
coedge $-1 $149 $149 $93 $150 forward $144 $-1 #
edge $-1 $237 0 $237 6.2831853071796004 $149 $238 forward 7 unknown #
face $-1 $239 $240 $32 $-1 $241 reversed single #
loop $-1 $-1 $242 $94 #
plane-surface $-1 70.279981850507824 5.1496022882348562 137.77928866259603 0 1 0 0.80901700255871778 0 0.5877852410284794 forward_v I I I I #
coedge $-1 $243 $244 $245 $246 reversed $95 $-1 #
coedge $-1 $156 $97 $247 $248 reversed $61 $-1 #
coedge $-1 $97 $155 $243 $249 reversed $61 $-1 #
coedge $-1 $245 $250 $97 $158 forward $251 $-1 #
edge $-1 $252 -13.582199082986087 $253 -10.063289219851121 $157 $254 forward 7 unknown #
loop $-1 $-1 $164 $98 #
plane-surface $-1 -8.554178386617437 9.3009183078405471 80.502920267738602 0.80901700255871778 0 0.5877852410284794 0.5877852410284794 0 -0.80901700255871778 forward_v I I I I #
loop $-1 $-1 $255 $63 #
coedge $-1 $162 $162 $163 $256 reversed $99 $-1 #
coedge $-1 $163 $163 $162 $256 forward $101 $-1 #
coedge $-1 $164 $164 $102 $165 forward $159 $-1 #
edge $-1 $257 0 $257 6.2831853071796004 $164 $258 forward 7 unknown #
loop $-1 $-1 $171 $103 #
plane-surface $-1 -8.554178386617437 9.3009183078405471 80.502920267738602 0.80901700255871778 0 0.5877852410284794 0.5877852410284794 0 -0.80901700255871778 forward_v I I I I #
loop $-1 $-1 $259 $66 #
coedge $-1 $169 $169 $170 $260 reversed $104 $-1 #
coedge $-1 $170 $170 $169 $260 forward $106 $-1 #
coedge $-1 $171 $171 $107 $172 forward $166 $-1 #
edge $-1 $261 0 $261 6.2831853071796004 $171 $262 forward 7 unknown #
loop $-1 $-1 $178 $108 #
plane-surface $-1 -8.554178386617437 9.3009183078405471 80.502920267738602 0.80901700255871778 0 0.5877852410284794 0.5877852410284794 0 -0.80901700255871778 forward_v I I I I #
loop $-1 $-1 $263 $69 #
coedge $-1 $176 $176 $177 $264 reversed $109 $-1 #
coedge $-1 $177 $177 $176 $264 forward $111 $-1 #
coedge $-1 $178 $178 $112 $179 forward $173 $-1 #
edge $-1 $265 0 $265 6.2831853071796004 $178 $266 forward 7 unknown #
face $-1 $267 $268 $27 $-1 $269 reversed single #
loop $-1 $-1 $270 $113 #
plane-surface $-1 -48.722190008239998 0 0 1 0 0 0 0 -1 forward_v I I I I #
coedge $-1 $271 $191 $272 $273 forward $114 $-1 #
coedge $-1 $274 $116 $271 $275 forward $73 $-1 #
coedge $-1 $116 $274 $276 $277 forward $73 $-1 #
coedge $-1 $194 $193 $116 $187 reversed $195 $-1 #
edge $-1 $278 -22.208171058902838 $279 22.208171058902838 $186 $280 forward 7 unknown #
coedge $-1 $118 $117 $281 $282 forward $46 $-1 #
coedge $-1 $283 $284 $117 $190 reversed $268 $-1 #
edge $-1 $197 -48.722190008239998 $285 48.722190008239998 $189 $286 forward 7 unknown #
coedge $-1 $183 $287 $118 $192 reversed $114 $-1 #
edge $-1 $288 -48.722190008239998 $196 48.722190008239998 $191 $289 forward 7 unknown #
coedge $-1 $186 $119 $287 $290 forward $195 $-1 #
coedge $-1 $119 $186 $283 $291 reversed $195 $-1 #
loop $-1 $-1 $193 $267 #
vertex $-1 $120 $292 #
vertex $-1 $120 $293 #
straight-curve $-1 48.722190008239998 0 6.5121240878095685 0 1 0 I I #
face $-1 $294 $295 $28 $-1 $296 forward single #
loop $-1 $-1 $208 $121 #
plane-surface $-1 0 -22.208171058902838 0 0 1 0 0 0 1 forward_v I I I I #
coedge $-1 $297 $298 $299 $300 forward $122 $-1 #
coedge $-1 $299 $124 $126 $210 reversed $77 $-1 #
coedge $-1 $124 $299 $301 $302 reversed $77 $-1 #
coedge $-1 $303 $127 $124 $206 forward $212 $-1 #
edge $-1 $214 1.0060620439047843 $304 4.0060620439047838 $205 $305 forward 7 unknown #
coedge $-1 $126 $125 $297 $306 reversed $49 $-1 #
coedge $-1 $307 $308 $125 $209 forward $200 $-1 #
edge $-1 $309 -48.722190008239998 $213 48.722190008239998 $208 $310 forward 7 unknown #
edge $-1 $311 -48.722190008239998 $214 48.722190008239998 $203 $312 forward 7 unknown #
coedge $-1 $127 $303 $307 $313 forward $212 $-1 #
loop $-1 $-1 $205 $294 #
vertex $-1 $209 $314 #
vertex $-1 $128 $315 #
straight-curve $-1 48.722190008239998 -9.4005659777925192 3.5121240878095685 0 1 0 I I #
face $-1 $-1 $316 $29 $-1 $317 forward single #
loop $-1 $-1 $318 $129 #
plane-surface $-1 -48.722190008239998 0 0 1 0 0 0 0 -1 forward_v I I I I #
coedge $-1 $220 $132 $134 $226 reversed $81 $-1 #
coedge $-1 $132 $219 $318 $319 reversed $81 $-1 #
coedge $-1 $320 $135 $132 $222 forward $130 $-1 #
edge $-1 $229 -9.3457903398880546 $321 -3.2637709779237412e-007 $221 $322 forward 7 unknown #
coedge $-1 $134 $133 $323 $324 reversed $52 $-1 #
coedge $-1 $325 $326 $133 $225 forward $316 $-1 #
edge $-1 $327 -22.071275675524834 $228 -11.279686867150959 $224 $328 forward 7 unknown #
edge $-1 $329 -1.641478638404164e-014 $229 10.791588808373858 $219 $330 forward 7 unknown #
coedge $-1 $135 $320 $325 $331 forward $130 $-1 #
vertex $-1 $225 $332 #
vertex $-1 $136 $333 #
straight-curve $-1 -39.376399994729042 -5.4519302983834903 6.5121240878095694 0 1 0 I I #
coedge $-1 $231 $231 $-1 $334 reversed $139 $-1 #
edge $-1 $335 0 $335 6.2831853071796004 $140 $336 forward 7 unknown #
vertex $-1 $143 $337 #
ellipse-curve $-1 -44.049295001484523 -12.828245849124233 3.8142268495710936 -0.50000000669873634 0 0.8660253999169214 0.8660253999169214 0 0.50000000669873634 1 I I #
coedge $-1 $235 $235 $-1 $338 reversed $146 $-1 #
edge $-1 $339 0 $339 6.2831853071796004 $147 $340 forward 7 unknown #
vertex $-1 $150 $341 #
ellipse-curve $-1 -44.049295001484523 -8.9794753444097282 3.8142268495710936 -0.50000000669873634 0 0.8660253999169214 0.8660253999169214 0 0.50000000669873634 1 I I #
face $-1 $-1 $251 $32 $-1 $342 forward single #
loop $-1 $-1 $343 $151 #
plane-surface $-1 48.722190008239998 0 0 -1 0 0 0 0 1 forward_v I I I I #
coedge $-1 $344 $345 $346 $347 reversed $152 $-1 #
coedge $-1 $348 $154 $156 $249 forward $95 $-1 #
coedge $-1 $154 $348 $344 $349 forward $95 $-1 #
coedge $-1 $346 $157 $154 $246 forward $251 $-1 #
edge $-1 $253 -8.8017751735259644 $350 -0.49914313431458268 $245 $351 forward 7 unknown #
coedge $-1 $352 $353 $155 $248 forward $240 $-1 #
edge $-1 $354 -67.220884300684673 $252 -62.377520243488448 $247 $355 forward 7 unknown #
edge $-1 $253 91.457652862566192 $354 97.444380016479997 $156 $356 forward 7 unknown #
coedge $-1 $157 $346 $352 $357 forward $251 $-1 #
loop $-1 $-1 $346 $239 #
vertex $-1 $248 $358 #
vertex $-1 $158 $359 #
straight-curve $-1 35.139990925253912 13.452234327446238 6.5121240878095676 -1 0 0 I I #
coedge $-1 $255 $255 $-1 $360 reversed $161 $-1 #
edge $-1 $361 0 $361 6.2831853071796004 $162 $362 forward 7 unknown #
vertex $-1 $165 $363 #
ellipse-curve $-1 46.962735076672509 6.8101286960771326 4.0904420592114574 0.80901700255871778 0 0.5877852410284794 0.2938926205142397 0 -0.40450850127935889 1 I I #
coedge $-1 $259 $259 $-1 $364 reversed $168 $-1 #
edge $-1 $365 0 $365 6.2831853071796004 $169 $366 forward 7 unknown #
vertex $-1 $172 $367 #
ellipse-curve $-1 46.962735076672509 9.3009183078405471 4.0904420592114574 0.80901700255871778 0 0.5877852410284794 0.2938926205142397 0 -0.40450850127935889 1 I I #
coedge $-1 $263 $263 $-1 $368 reversed $175 $-1 #
edge $-1 $369 0 $369 6.2831853071796004 $176 $370 forward 7 unknown #
vertex $-1 $179 $371 #
ellipse-curve $-1 46.962735076672509 11.791707919603962 4.0904420592114574 0.80901700255871778 0 0.5877852410284794 0.2938926205142397 0 -0.40450850127935889 1 I I #
face $-1 $-1 $195 $27 $-1 $372 reversed single #
loop $-1 $-1 $283 $180 #
plane-surface $-1 0 22.208171058902838 0 0 -1 0 0 0 -1 forward_v I I I I #
coedge $-1 $373 $281 $284 $374 forward $181 $-1 #
coedge $-1 $287 $183 $184 $275 reversed $114 $-1 #
coedge $-1 $281 $373 $183 $273 reversed $181 $-1 #
edge $-1 $288 -6.5121240878095685 $375 6.5121240878095685 $272 $376 forward 7 unknown #
coedge $-1 $185 $184 $373 $377 forward $73 $-1 #
edge $-1 $279 -48.722190008239998 $375 48.722190008239998 $271 $378 forward 7 unknown #
coedge $-1 $284 $283 $185 $277 reversed $268 $-1 #
edge $-1 $379 -48.722190008239998 $278 48.722190008239998 $276 $380 forward 7 unknown #
vertex $-1 $187 $381 #
vertex $-1 $290 $382 #
straight-curve $-1 48.722190008239998 0 -6.5121240878095685 0 -1 0 I I #
coedge $-1 $270 $272 $188 $282 reversed $181 $-1 #
edge $-1 $285 -22.208171058902838 $288 22.208171058902838 $281 $383 forward 7 unknown #
coedge $-1 $276 $189 $194 $291 forward $268 $-1 #
coedge $-1 $189 $276 $270 $374 reversed $268 $-1 #
vertex $-1 $190 $384 #
straight-curve $-1 0 22.208171058902838 6.5121240878095685 -1 0 0 I I #
coedge $-1 $191 $271 $193 $290 reversed $114 $-1 #
vertex $-1 $282 $385 #
straight-curve $-1 0 -22.208171058902838 6.5121240878095685 1 0 0 I I #
edge $-1 $196 -6.5121240878095685 $279 6.5121240878095685 $193 $386 forward 7 unknown #
edge $-1 $197 -6.5121240878095685 $278 6.5121240878095685 $194 $387 forward 7 unknown #
point $-1 48.722190008239998 -22.208171058902838 6.5121240878095685 #
point $-1 48.722190008239998 22.208171058902838 6.5121240878095685 #
face $-1 $-1 $212 $28 $-1 $388 reversed single #
loop $-1 $-1 $301 $199 #
plane-surface $-1 0 0 6.5121240878095685 0 0 1 1 0 0 forward_v I I I I #
coedge $-1 $389 $202 $207 $306 forward $122 $-1 #
coedge $-1 $202 $389 $390 $391 reversed $122 $-1 #
coedge $-1 $204 $203 $202 $300 reversed $77 $-1 #
edge $-1 $392 -4.0060620439047838 $311 -1.0060620439047843 $202 $393 forward 7 unknown #
coedge $-1 $390 $394 $204 $302 forward $295 $-1 #
edge $-1 $304 -48.722190008239998 $392 48.722190008239998 $301 $395 forward 7 unknown #
coedge $-1 $211 $205 $394 $396 reversed $212 $-1 #
vertex $-1 $206 $397 #
straight-curve $-1 48.722190008239998 -15.394092852267239 2.5060620439047843 0 0 1 I I #
edge $-1 $311 5.9935268744747194 $309 12.807605081110319 $297 $398 forward 7 unknown #
coedge $-1 $399 $208 $211 $313 reversed $200 $-1 #
coedge $-1 $208 $399 $389 $400 forward $200 $-1 #
vertex $-1 $209 $401 #
straight-curve $-1 0 -22.208171058902838 3.5121240878095685 1 0 0 I I #
vertex $-1 $306 $402 #
straight-curve $-1 0 -15.394092852267239 3.5121240878095685 1 0 0 I I #
edge $-1 $403 -6.5121240878095685 $213 -3.5121240878095685 $211 $404 forward 7 unknown #
point $-1 48.722190008239998 -22.208171058902838 3.5121240878095685 #
point $-1 48.722190008239998 -15.394092852267239 3.5121240878095685 #
loop $-1 $-1 $224 $216 #
plane-surface $-1 0 -15.394092852267239 5.0121240878095685 0 -1 0 0 0 -1 forward_v I I I I #
coedge $-1 $323 $405 $220 $319 forward $217 $-1 #
edge $-1 $321 36.240694804571028 $329 41.636489281047972 $318 $406 forward 7 unknown #
coedge $-1 $227 $221 $405 $407 forward $130 $-1 #
vertex $-1 $407 $408 #
straight-curve $-1 -48.722190334617096 -6.4136283412667243 6.5121240878095676 -1 0 0 I I #
coedge $-1 $409 $318 $223 $324 forward $217 $-1 #
edge $-1 $329 0.96169804288323402 $327 9.9421625538837475 $323 $410 forward 7 unknown #
coedge $-1 $326 $224 $227 $331 reversed $316 $-1 #
coedge $-1 $224 $325 $409 $411 reversed $316 $-1 #
vertex $-1 $411 $412 #
straight-curve $-1 -29.607904664666986 -15.394092852267239 12.151967596944695 0.8660253999169214 0 0.50000000669873634 I I #
vertex $-1 $324 $413 #
straight-curve $-1 -48.722190008239984 -6.4136283412667243 1.1163296113326311 0.8660253999169214 0 0.50000000669873634 I I #
edge $-1 $414 -48.722190008239998 $228 -39.376399994729042 $227 $415 forward 7 unknown #
point $-1 -39.376399994729042 -15.394092852267239 6.5121240878095685 #
point $-1 -39.376399994729042 -6.4136283412667243 6.5121240878095685 #
edge $-1 $416 1 $416 0 $231 $-1 forward 7 unknown #
vertex $-1 $232 $417 #
ellipse-curve $-1 -42.169736273950221 -12.828245849124233 0.5587356958259706 -0.50000000669873634 0 0.8660253999169214 0.8660253999169214 0 0.50000000669873634 1 I I #
point $-1 -43.183269601567609 -12.828245849124233 4.3142268562698405 #
edge $-1 $418 1 $418 0 $235 $-1 forward 7 unknown #
vertex $-1 $236 $419 #
ellipse-curve $-1 -42.169736273950221 -8.9794753444097282 0.5587356958259706 -0.50000000669873634 0 0.8660253999169214 0.8660253999169214 0 0.50000000669873634 1 I I #
point $-1 -43.183269601567609 -8.9794753444097282 4.3142268562698405 #
plane-surface $-1 0 0 6.5121240878095685 0 0 1 1 0 0 forward_v I I I I #
coedge $-1 $353 $352 $345 $420 forward $240 $-1 #
coedge $-1 $345 $242 $244 $349 reversed $152 $-1 #
coedge $-1 $242 $344 $343 $420 reversed $152 $-1 #
coedge $-1 $250 $245 $242 $347 forward $251 $-1 #
edge $-1 $350 10.063289219851121 $421 13.582199082986087 $346 $422 forward 7 unknown #
coedge $-1 $244 $243 $353 $423 reversed $95 $-1 #
edge $-1 $424 -97.444380016479997 $350 -91.457652862566192 $344 $425 forward 7 unknown #
vertex $-1 $246 $426 #
straight-curve $-1 45.203280145105033 4.6504591539202735 6.5121240878095676 0 -1 0 I I #
coedge $-1 $343 $247 $250 $357 reversed $240 $-1 #
coedge $-1 $247 $343 $348 $423 forward $240 $-1 #
vertex $-1 $248 $427 #
straight-curve $-1 48.722190008239998 13.452234327446238 68.889644331298015 0 0 1 I I #
straight-curve $-1 -8.554178386617437 13.452234327446238 80.502920267738602 0.5877852410284794 0 -0.80901700255871778 I I #
edge $-1 $421 5.1496022882348562 $252 13.452234327446238 $352 $428 forward 7 unknown #
point $-1 48.722190008239998 13.452234327446238 6.5121240878095685 #
point $-1 45.203280145105033 13.452234327446238 6.5121240878095676 #
edge $-1 $429 1 $429 0 $255 $-1 forward 7 unknown #
vertex $-1 $256 $430 #
ellipse-curve $-1 46.153718074113797 6.8101286960771326 3.5026568181829822 0.80901700255871778 0 0.5877852410284794 0.2938926205142397 0 -0.40450850127935889 1 I I #
point $-1 47.256627697186758 6.8101286960771326 3.6859335579321026 #
edge $-1 $431 1 $431 0 $259 $-1 forward 7 unknown #
vertex $-1 $260 $432 #
ellipse-curve $-1 46.153718074113797 9.3009183078405471 3.5026568181829822 0.80901700255871778 0 0.5877852410284794 0.2938926205142397 0 -0.40450850127935889 1 I I #
point $-1 47.256627697186758 9.3009183078405471 3.6859335579321026 #
edge $-1 $433 1 $433 0 $263 $-1 forward 7 unknown #
vertex $-1 $264 $434 #
ellipse-curve $-1 46.153718074113797 11.791707919603962 3.5026568181829822 0.80901700255871778 0 0.5877852410284794 0.2938926205142397 0 -0.40450850127935889 1 I I #
point $-1 47.256627697186758 11.791707919603962 3.6859335579321026 #
plane-surface $-1 48.722190008239998 0 0 -1 0 0 0 0 1 forward_v I I I I #
coedge $-1 $272 $270 $274 $377 reversed $181 $-1 #
edge $-1 $285 -6.5121240878095685 $379 6.5121240878095685 $284 $435 forward 7 unknown #
vertex $-1 $377 $436 #
straight-curve $-1 -48.722190008239998 -22.208171058902838 0 0 0 -1 I I #
edge $-1 $375 -22.208171058902838 $379 22.208171058902838 $373 $437 forward 7 unknown #
straight-curve $-1 0 -22.208171058902838 -6.5121240878095685 -1 0 0 I I #
vertex $-1 $277 $438 #
straight-curve $-1 0 22.208171058902838 -6.5121240878095685 1 0 0 I I #
point $-1 48.722190008239998 22.208171058902838 -6.5121240878095685 #
point $-1 48.722190008239998 -22.208171058902838 -6.5121240878095685 #
straight-curve $-1 -48.722190008239998 0 6.5121240878095685 0 -1 0 I I #
point $-1 -48.722190008239998 22.208171058902838 6.5121240878095685 #
point $-1 -48.722190008239998 -22.208171058902838 6.5121240878095685 #
straight-curve $-1 48.722190008239998 -22.208171058902838 0 0 0 -1 I I #
straight-curve $-1 48.722190008239998 22.208171058902838 0 0 0 -1 I I #
plane-surface $-1 48.722190008239998 0 0 -1 0 0 0 0 1 forward_v I I I I #
coedge $-1 $298 $297 $308 $400 reversed $122 $-1 #
coedge $-1 $439 $301 $298 $391 forward $295 $-1 #
edge $-1 $392 15.394092852267239 $440 22.208171058902838 $298 $441 forward 7 unknown #
vertex $-1 $391 $442 #
straight-curve $-1 -48.722190008239998 -15.394092852267239 2.5060620439047843 0 0 -1 I I #
coedge $-1 $301 $439 $303 $396 forward $295 $-1 #
straight-curve $-1 0 -15.394092852267239 6.5121240878095685 -1 0 0 I I #
edge $-1 $403 -22.208171058902838 $304 -15.394092852267239 $303 $443 forward 7 unknown #
point $-1 48.722190008239998 -15.394092852267239 6.5121240878095685 #
straight-curve $-1 -48.722190008239998 -9.4005659777925192 3.5121240878095685 0 -1 0 I I #
coedge $-1 $308 $307 $439 $444 reversed $200 $-1 #
edge $-1 $440 -6.5121240878095685 $309 -3.5121240878095685 $389 $445 forward 7 unknown #
point $-1 -48.722190008239998 -22.208171058902838 3.5121240878095685 #
point $-1 -48.722190008239998 -15.394092852267239 3.5121240878095685 #
vertex $-1 $396 $446 #
straight-curve $-1 48.722190008239998 -22.208171058902838 0 0 0 -1 I I #
coedge $-1 $318 $409 $320 $407 reversed $217 $-1 #
straight-curve $-1 -48.722190008239998 -6.4136283412667243 42.752818892380596 0 0 -1 I I #
edge $-1 $321 6.4136283412667243 $414 15.394092852267239 $405 $447 forward 7 unknown #
point $-1 -48.722190008239998 -6.4136283412667243 6.5121240878095685 #
coedge $-1 $405 $323 $326 $411 forward $217 $-1 #
straight-curve $-1 -48.722190008239998 -5.4519302983834903 1.1163296113326229 0 -1 0 I I #
edge $-1 $327 -41.636489281047972 $414 -36.240694804571028 $409 $448 forward 7 unknown #
point $-1 -48.722190008239998 -15.394092852267237 1.1163296113326229 #
point $-1 -48.722190008239998 -6.4136283412667243 1.1163296113326229 #
vertex $-1 $411 $449 #
straight-curve $-1 0 -15.394092852267239 6.5121240878095685 1 0 0 I I #
vertex $-1 $334 $450 #
point $-1 -41.3037108740333 -12.828245849124233 1.0587357025247068 #
vertex $-1 $338 $451 #
point $-1 -41.3037108740333 -8.9794753444097282 1.0587357025247068 #
edge $-1 $421 62.377520243488448 $424 67.220884300684673 $343 $452 forward 7 unknown #
vertex $-1 $357 $453 #
straight-curve $-1 35.139990925253912 5.1496022882348562 6.5121240878095676 1 0 0 I I #
edge $-1 $424 0.49914313431458268 $354 8.8017751735259644 $353 $454 forward 7 unknown #
vertex $-1 $423 $455 #
straight-curve $-1 -8.554178386617437 5.1496022882348562 80.502920267738602 -0.5877852410284794 0 0.80901700255871778 I I #
point $-1 45.203280145105033 5.1496022882348562 6.5121240878095676 #
point $-1 48.722190008239998 13.452234327446238 1.6687600306133419 #
straight-curve $-1 48.722190008239998 0 6.5121240878095685 0 1 0 I I #
vertex $-1 $360 $456 #
point $-1 46.44761069462804 6.8101286960771326 3.0981483169036235 #
vertex $-1 $364 $457 #
point $-1 46.44761069462804 9.3009183078405471 3.0981483169036235 #
vertex $-1 $368 $458 #
point $-1 46.44761069462804 11.791707919603962 3.0981483169036235 #
straight-curve $-1 -48.722190008239998 22.208171058902838 0 0 0 -1 I I #
point $-1 -48.722190008239998 -22.208171058902838 -6.5121240878095685 #
straight-curve $-1 -48.722190008239998 0 -6.5121240878095685 0 1 0 I I #
point $-1 -48.722190008239998 22.208171058902838 -6.5121240878095685 #
coedge $-1 $394 $390 $399 $444 forward $295 $-1 #
vertex $-1 $391 $459 #
straight-curve $-1 -48.722190008239998 0 6.5121240878095685 0 -1 0 I I #
point $-1 -48.722190008239998 -15.394092852267239 6.5121240878095685 #
straight-curve $-1 48.722190008239998 0 6.5121240878095685 0 1 0 I I #
edge $-1 $440 -48.722190008239998 $403 48.722190008239998 $399 $460 forward 7 unknown #
straight-curve $-1 -48.722190008239998 -22.208171058902838 0 0 0 -1 I I #
point $-1 48.722190008239998 -22.208171058902838 6.5121240878095685 #
straight-curve $-1 -48.722190008239998 0 6.5121240878095685 0 -1 0 I I #
straight-curve $-1 -48.722190008239998 -15.394092852267237 42.752818892380596 0 0 1 I I #
point $-1 -48.722190008239998 -15.394092852267239 6.5121240878095685 #
point $-1 -41.66973626725148 -12.828245849124233 -0.3072897040909508 #
point $-1 -41.66973626725148 -8.9794753444097282 -0.3072897040909508 #
straight-curve $-1 48.722190008239998 5.1496022882348562 68.889644331298015 0 0 -1 I I #
point $-1 48.722190008239998 5.1496022882348562 6.5121240878095685 #
straight-curve $-1 48.722190008239991 4.6504591539202735 1.6687600306133348 0 1 0 I I #
point $-1 48.722190008239998 5.1496022882348562 1.6687600306133419 #
point $-1 45.749209572834445 6.8101286960771326 3.2087641976687427 #
point $-1 45.749209572834445 9.3009183078405471 3.2087641976687427 #
point $-1 45.749209572834445 11.791707919603962 3.2087641976687427 #
point $-1 -48.722190008239998 -22.208171058902838 6.5121240878095685 #
straight-curve $-1 0 -22.208171058902838 6.5121240878095685 1 0 0 I I #
End-of-ACIS-data 