500 0 7 0           
7 Unknown 11 ACIS 5.0 NT 24 Thu Mar 25 22:38:30 1999 
-1 9.9999999999999995e-007 1e-010 
body $-1 $7 $-1 $8 #
body $-1 $9 $-1 $10 #
body $-1 $11 $-1 $12 #
body $-1 $13 $-1 $14 #
body $-1 $15 $-1 $16 #
body $-1 $17 $-1 $18 #
body $-1 $19 $-1 $20 #
lump $-1 $-1 $21 $0 #
transform $-1 1 0 0 0 1 0 0 0 1 63.695791497543262 27.464011078668797 8.2041682070782738 1 rotate no_reflect no_shear #
lump $-1 $-1 $22 $1 #
transform $-1 1 0 0 0 1 0 0 0 1 63.695791497543262 27.464011078668797 8.2041682070782738 1 rotate no_reflect no_shear #
lump $-1 $-1 $23 $2 #
transform $-1 1 0 0 0 1 0 0 0 1 63.695791497543262 27.464011078668797 8.2041682070782738 1 rotate no_reflect no_shear #
lump $-1 $-1 $24 $3 #
transform $-1 1 0 0 0 1 0 0 0 1 63.695791497543262 27.464011078668797 8.2041682070782738 1 rotate no_reflect no_shear #
lump $-1 $-1 $25 $4 #
transform $-1 1 0 0 0 1 0 0 0 1 63.695791497543262 27.464011078668797 8.2041682070782738 1 rotate no_reflect no_shear #
lump $-1 $-1 $26 $5 #
transform $-1 1 0 0 0 1 0 0 0 1 63.695791497543262 27.464011078668797 8.2041682070782738 1 rotate no_reflect no_shear #
lump $-1 $-1 $27 $6 #
transform $-1 1 0 0 0 1 0 0 0 1 63.695791497543262 27.464011078668797 8.2041682070782738 1 rotate no_reflect no_shear #
shell $-1 $-1 $-1 $28 $-1 $7 #
shell $-1 $-1 $-1 $29 $-1 $9 #
shell $-1 $-1 $-1 $30 $-1 $11 #
shell $-1 $-1 $-1 $31 $-1 $13 #
shell $-1 $-1 $-1 $32 $-1 $15 #
shell $-1 $-1 $-1 $33 $-1 $17 #
shell $-1 $-1 $-1 $34 $-1 $19 #
face $-1 $35 $36 $21 $-1 $37 forward single #
face $-1 $38 $39 $22 $-1 $40 reversed single #
face $-1 $41 $42 $23 $-1 $43 reversed single #
face $-1 $44 $45 $24 $-1 $46 forward single #
face $-1 $47 $48 $25 $-1 $49 forward single #
face $-1 $50 $51 $26 $-1 $52 reversed single #
face $-1 $53 $54 $27 $-1 $55 forward single #
face $-1 $56 $57 $21 $-1 $58 reversed single #
loop $-1 $-1 $59 $28 #
plane-surface $-1 0 0 8.2041682070782738 0 0 1 1 0 0 forward_v I I I I #
face $-1 $60 $61 $22 $-1 $62 reversed single #
loop $-1 $-1 $63 $29 #
plane-surface $-1 -52.141195104920612 -23.093145134549243 0 1 0 0 0 0 -1 forward_v I I I I #
face $-1 $64 $65 $23 $-1 $66 reversed single #
loop $-1 $-1 $67 $30 #
plane-surface $-1 63.695793587846261 -4.1809240068499003 183.36237352632332 0 -1 0 -0.70710678939079041 0 -0.70710677298230451 forward_v I I I I #
face $-1 $68 $69 $24 $-1 $70 forward single #
loop $-1 $71 $72 $31 #
cone-surface $-1 60.816386636449501 -12.308288970772788 5.3247632967596505 -0.70710678939079041 0 -0.70710677298230451 0.35355338649115226 0 -0.35355339469539521 1 I I 0 1 0.5 forward I I I I #
face $-1 $73 $74 $25 $-1 $75 forward single #
loop $-1 $76 $77 $32 #
cone-surface $-1 60.816386636449501 -7.4318699924190526 5.3247632967596505 -0.70710678939079041 0 -0.70710677298230451 0.35355338649115226 0 -0.35355339469539521 1 I I 0 1 0.5 forward I I I I #
face $-1 $78 $79 $26 $-1 $80 reversed single #
loop $-1 $-1 $81 $33 #
plane-surface $-1 -140.36196093768899 -18.722279190429688 104.01839891042397 0 1 0 -0.6018150307709319 0 0.79863550430605224 forward_v I I I I #
face $-1 $82 $83 $27 $-1 $84 forward single #
loop $-1 $85 $86 $34 #
cone-surface $-1 -59.199649612836296 -15.028562668682477 4.492270962591058 0.6018150307709319 0 -0.79863550430605224 1.1979532564590785 0 0.90272254615639791 1 I I 0 1 1.5 forward I I I I #
face $-1 $87 $88 $21 $-1 $89 reversed single #
loop $-1 $-1 $90 $35 #
plane-surface $-1 0 0 -8.2041682070782738 0 0 1 1 0 0 forward_v I I I I #
coedge $-1 $91 $92 $93 $94 forward $36 $-1 #
face $-1 $95 $96 $22 $-1 $97 reversed single #
loop $-1 $-1 $98 $38 #
plane-surface $-1 -49.964325094153665 -18.722279190429688 0 0 -1 0 0 0 -1 forward_v I I I I #
coedge $-1 $99 $100 $101 $102 forward $39 $-1 #
face $-1 $103 $104 $23 $-1 $105 reversed single #
loop $-1 $-1 $106 $41 #
plane-surface $-1 -26.383659659219781 -9.8700794815959227 93.282922369560268 0.70710678939079041 0 0.70710677298230451 0.70710677298230451 0 -0.70710678939079041 forward_v I I I I #
coedge $-1 $107 $108 $109 $110 reversed $42 $-1 #
face $-1 $-1 $111 $24 $-1 $112 forward single #
loop $-1 $113 $114 $44 #
cone-surface $-1 60.260554562279189 -12.308288970772788 4.7689312354874804 -0.70710678939079041 0 -0.70710677298230451 0.17677669324557613 0 -0.1767766973476976 1 I I -0.70710678118654746 0.70710678118654746 0.25 forward I I I I #
loop $-1 $-1 $115 $31 #
coedge $-1 $72 $72 $116 $117 reversed $45 $-1 #
face $-1 $-1 $118 $25 $-1 $119 forward single #
loop $-1 $120 $121 $47 #
cone-surface $-1 60.260554562279189 -7.4318699924190526 4.7689312354874804 -0.70710678939079041 0 -0.70710677298230451 0.17677669324557613 0 -0.1767766973476976 1 I I -0.70710678118654746 0.70710678118654746 0.25 forward I I I I #
loop $-1 $-1 $122 $32 #
coedge $-1 $77 $77 $123 $124 reversed $48 $-1 #
face $-1 $125 $126 $26 $-1 $127 reversed single #
loop $-1 $-1 $128 $50 #
plane-surface $-1 -63.695791497543254 -15.028562668682476 2.2789577807967305 -0.6018150307709319 0 0.79863550430605224 0.79863550430605224 0 0.6018150307709319 forward_v I I I I #
coedge $-1 $129 $130 $131 $132 reversed $51 $-1 #
face $-1 $-1 $133 $27 $-1 $134 forward single #
loop $-1 $135 $136 $53 #
cone-surface $-1 -58.183656283620053 -15.028562668682477 3.1440023030150783 0.6018150307709319 0 -0.79863550430605224 0.59897662822953923 0 0.45136127307819895 1 I I -0.70710678118654757 0.70710678118654757 0.75 forward I I I I #
loop $-1 $-1 $137 $34 #
coedge $-1 $86 $86 $138 $139 reversed $54 $-1 #
face $-1 $140 $141 $21 $-1 $142 reversed single #
loop $-1 $-1 $143 $56 #
plane-surface $-1 0 -27.464011078668797 0 0 1 0 0 0 1 forward_v I I I I #
coedge $-1 $144 $145 $146 $147 forward $57 $-1 #
coedge $-1 $148 $59 $149 $150 forward $36 $-1 #
coedge $-1 $59 $148 $151 $152 forward $36 $-1 #
coedge $-1 $153 $154 $59 $94 reversed $155 $-1 #
edge $-1 $156 -27.464011078668797 $157 27.464011078668797 $93 $158 forward 7 unknown #
face $-1 $159 $160 $22 $-1 $161 forward single #
loop $-1 $-1 $162 $60 #
plane-surface $-1 -47.787455083386718 -23.093145134549243 0 -1 0 0 0 0 1 forward_v I I I I #
coedge $-1 $163 $164 $165 $166 forward $61 $-1 #
coedge $-1 $167 $63 $168 $169 reversed $39 $-1 #
coedge $-1 $63 $167 $170 $171 reversed $39 $-1 #
coedge $-1 $164 $163 $63 $102 reversed $61 $-1 #
edge $-1 $172 -8.2041682070782738 $173 8.2041682070782738 $101 $174 forward 7 unknown #
face $-1 $175 $176 $23 $-1 $177 reversed single #
loop $-1 $-1 $178 $64 #
plane-surface $-1 63.695793587846261 -15.559234956341946 183.36237352632332 0 1 0 0.70710678939079041 0 0.70710677298230451 forward_v I I I I #
coedge $-1 $179 $180 $181 $182 reversed $65 $-1 #
coedge $-1 $108 $67 $183 $184 reversed $42 $-1 #
coedge $-1 $67 $107 $179 $185 reversed $42 $-1 #
coedge $-1 $181 $186 $67 $110 forward $187 $-1 #
edge $-1 $188 -31.847894703620131 $189 -26.847195735077822 $109 $190 forward 7 unknown #
loop $-1 $-1 $116 $68 #
plane-surface $-1 -26.383659659219781 -9.8700794815959227 93.282922369560268 0.70710678939079041 0 0.70710677298230451 0.70710677298230451 0 -0.70710678939079041 forward_v I I I I #
loop $-1 $-1 $191 $44 #
coedge $-1 $114 $114 $115 $192 reversed $69 $-1 #
coedge $-1 $115 $115 $114 $192 forward $71 $-1 #
coedge $-1 $116 $116 $72 $117 forward $111 $-1 #
edge $-1 $193 0 $193 6.2831853071796004 $116 $194 forward 7 unknown #
loop $-1 $-1 $123 $73 #
plane-surface $-1 -26.383659659219781 -9.8700794815959227 93.282922369560268 0.70710678939079041 0 0.70710677298230451 0.70710677298230451 0 -0.70710678939079041 forward_v I I I I #
loop $-1 $-1 $195 $47 #
coedge $-1 $121 $121 $122 $196 reversed $74 $-1 #
coedge $-1 $122 $122 $121 $196 forward $76 $-1 #
coedge $-1 $123 $123 $77 $124 forward $118 $-1 #
edge $-1 $197 0 $197 6.2831853071796004 $123 $198 forward 7 unknown #
face $-1 $199 $200 $26 $-1 $201 reversed single #
loop $-1 $-1 $202 $78 #
plane-surface $-1 -140.36196093768899 -11.334846146935263 104.01839891042397 0 -1 0 0.6018150307709319 0 -0.79863550430605224 forward_v I I I I #
coedge $-1 $203 $204 $205 $206 reversed $79 $-1 #
coedge $-1 $130 $81 $207 $208 reversed $51 $-1 #
coedge $-1 $81 $129 $203 $209 reversed $51 $-1 #
coedge $-1 $205 $210 $81 $132 forward $211 $-1 #
edge $-1 $212 6.4851889713012341 $213 14.34820862843906 $131 $214 forward 7 unknown #
loop $-1 $-1 $138 $82 #
plane-surface $-1 -63.695791497543254 -15.028562668682476 2.2789577807967305 -0.6018150307709319 0 0.79863550430605224 0.79863550430605224 0 0.6018150307709319 forward_v I I I I #
loop $-1 $-1 $215 $53 #
coedge $-1 $136 $136 $137 $216 reversed $83 $-1 #
coedge $-1 $137 $137 $136 $216 forward $85 $-1 #
coedge $-1 $138 $138 $86 $139 forward $133 $-1 #
edge $-1 $217 0 $217 6.2831853071796004 $138 $218 forward 7 unknown #
face $-1 $219 $220 $21 $-1 $221 reversed single #
loop $-1 $-1 $222 $87 #
plane-surface $-1 -63.695791497543262 0 0 1 0 0 0 0 -1 forward_v I I I I #
coedge $-1 $223 $151 $224 $225 forward $88 $-1 #
coedge $-1 $226 $90 $223 $227 forward $57 $-1 #
coedge $-1 $90 $226 $228 $229 forward $57 $-1 #
coedge $-1 $154 $153 $90 $147 reversed $155 $-1 #
edge $-1 $230 -27.464011078668797 $231 27.464011078668797 $146 $232 forward 7 unknown #
coedge $-1 $92 $91 $233 $234 forward $36 $-1 #
coedge $-1 $235 $236 $91 $150 reversed $220 $-1 #
edge $-1 $157 -63.695791497543262 $237 63.695791497543262 $149 $238 forward 7 unknown #
coedge $-1 $143 $239 $92 $152 reversed $88 $-1 #
edge $-1 $240 -63.695791497543262 $156 63.695791497543262 $151 $241 forward 7 unknown #
coedge $-1 $146 $93 $239 $242 forward $155 $-1 #
coedge $-1 $93 $146 $235 $243 reversed $155 $-1 #
loop $-1 $-1 $153 $219 #
vertex $-1 $94 $244 #
vertex $-1 $94 $245 #
straight-curve $-1 63.695791497543262 0 8.2041682070782738 0 1 0 I I #
face $-1 $246 $247 $22 $-1 $248 reversed single #
loop $-1 $-1 $249 $95 #
plane-surface $-1 0 0 8.2041682070782738 0 0 1 1 0 0 forward_v I I I I #
coedge $-1 $250 $251 $252 $253 reversed $96 $-1 #
coedge $-1 $101 $98 $254 $255 reversed $61 $-1 #
coedge $-1 $98 $101 $256 $257 reversed $61 $-1 #
coedge $-1 $251 $250 $98 $166 reversed $96 $-1 #
edge $-1 $258 -8.2041682070782738 $259 8.2041682070782738 $165 $260 forward 7 unknown #
coedge $-1 $100 $99 $261 $262 reversed $39 $-1 #
coedge $-1 $254 $263 $99 $169 forward $247 $-1 #
edge $-1 $264 -15.917438511394176 $173 -7.175706623155067 $168 $265 forward 7 unknown #
coedge $-1 $266 $256 $100 $171 forward $160 $-1 #
edge $-1 $172 7.175706623155067 $267 15.917438511394176 $170 $268 forward 7 unknown #
vertex $-1 $171 $269 #
vertex $-1 $169 $270 #
straight-curve $-1 -52.141195104920612 -18.722279190429688 0 0 0 -1 I I #
face $-1 $-1 $187 $23 $-1 $271 forward single #
loop $-1 $-1 $272 $103 #
plane-surface $-1 63.695791497543262 0 0 -1 0 0 0 0 1 forward_v I I I I #
coedge $-1 $273 $274 $275 $276 reversed $104 $-1 #
coedge $-1 $277 $106 $108 $185 forward $65 $-1 #
coedge $-1 $106 $277 $273 $278 forward $65 $-1 #
coedge $-1 $275 $109 $106 $182 forward $187 $-1 #
edge $-1 $189 -0.75411573394806108 $279 10.624195215543985 $181 $280 forward 7 unknown #
coedge $-1 $281 $282 $107 $184 forward $176 $-1 #
edge $-1 $283 -88.477717640667436 $188 -83.477018556083394 $183 $284 forward 7 unknown #
edge $-1 $189 120.31952661037496 $283 127.39158299508655 $108 $285 forward 7 unknown #
coedge $-1 $109 $275 $281 $286 forward $187 $-1 #
loop $-1 $-1 $275 $175 #
vertex $-1 $184 $287 #
vertex $-1 $110 $288 #
straight-curve $-1 31.84789679392313 -4.1809240068499003 8.2041682070782684 -1 0 0 I I #
coedge $-1 $191 $191 $-1 $289 reversed $113 $-1 #
edge $-1 $290 0 $290 6.2831853071796004 $114 $291 forward 7 unknown #
vertex $-1 $117 $292 #
ellipse-curve $-1 61.195442013272114 -12.308288970772788 5.7038186647862448 0.70710678939079041 0 0.70710677298230451 0.35355338649115226 0 -0.35355339469539521 1 I I #
coedge $-1 $195 $195 $-1 $293 reversed $120 $-1 #
edge $-1 $294 0 $294 6.2831853071796004 $121 $295 forward 7 unknown #
vertex $-1 $124 $296 #
ellipse-curve $-1 61.195442013272114 -7.4318699924190526 5.7038186647862448 0.70710678939079041 0 0.70710677298230451 0.35355338649115226 0 -0.35355339469539521 1 I I #
face $-1 $-1 $211 $26 $-1 $297 forward single #
loop $-1 $-1 $298 $125 #
plane-surface $-1 -63.695791497543262 0 0 1 0 0 0 0 -1 forward_v I I I I #
coedge $-1 $299 $300 $301 $302 reversed $126 $-1 #
coedge $-1 $303 $128 $130 $209 forward $79 $-1 #
coedge $-1 $128 $303 $299 $304 forward $79 $-1 #
coedge $-1 $301 $131 $128 $206 forward $211 $-1 #
edge $-1 $213 -11.207997856088451 $305 -3.820564812594025 $205 $306 forward 7 unknown #
coedge $-1 $307 $308 $129 $208 forward $200 $-1 #
edge $-1 $309 -49.730241674415261 $212 -43.805031248133709 $207 $310 forward 7 unknown #
edge $-1 $213 -9.8455673642635393 $309 8.8817612989391469e-015 $130 $311 forward 7 unknown #
coedge $-1 $131 $301 $307 $312 forward $211 $-1 #
loop $-1 $-1 $301 $199 #
vertex $-1 $208 $313 #
vertex $-1 $132 $314 #
straight-curve $-1 -70.180980468844496 -18.722279190429688 8.2041682070782755 1 0 0 I I #
coedge $-1 $215 $215 $-1 $315 reversed $135 $-1 #
edge $-1 $316 0 $316 6.2831853071796004 $136 $317 forward 7 unknown #
vertex $-1 $139 $318 #
ellipse-curve $-1 -59.764281668974348 -15.028562668682477 5.2415629939375021 -0.6018150307709319 0 0.79863550430605224 1.1979532564590785 0 0.90272254615639791 1 I I #
face $-1 $-1 $155 $21 $-1 $319 reversed single #
loop $-1 $-1 $235 $140 #
plane-surface $-1 0 27.464011078668797 0 0 -1 0 0 0 -1 forward_v I I I I #
coedge $-1 $320 $233 $236 $321 forward $141 $-1 #
coedge $-1 $239 $143 $144 $227 reversed $88 $-1 #
coedge $-1 $233 $320 $143 $225 reversed $141 $-1 #
edge $-1 $240 -8.2041682070782738 $322 8.2041682070782738 $224 $323 forward 7 unknown #
coedge $-1 $145 $144 $320 $324 forward $57 $-1 #
edge $-1 $231 -63.695791497543262 $322 63.695791497543262 $223 $325 forward 7 unknown #
coedge $-1 $236 $235 $145 $229 reversed $220 $-1 #
edge $-1 $326 -63.695791497543262 $230 63.695791497543262 $228 $327 forward 7 unknown #
vertex $-1 $147 $328 #
vertex $-1 $242 $329 #
straight-curve $-1 63.695791497543262 0 -8.2041682070782738 0 -1 0 I I #
coedge $-1 $222 $224 $148 $234 reversed $141 $-1 #
edge $-1 $237 -27.464011078668797 $240 27.464011078668797 $233 $330 forward 7 unknown #
coedge $-1 $228 $149 $154 $243 forward $220 $-1 #
coedge $-1 $149 $228 $222 $321 reversed $220 $-1 #
vertex $-1 $150 $331 #
straight-curve $-1 0 27.464011078668797 8.2041682070782738 -1 0 0 I I #
coedge $-1 $151 $223 $153 $242 reversed $88 $-1 #
vertex $-1 $234 $332 #
straight-curve $-1 0 -27.464011078668797 8.2041682070782738 1 0 0 I I #
edge $-1 $156 -8.2041682070782738 $231 8.2041682070782738 $153 $333 forward 7 unknown #
edge $-1 $157 -8.2041682070782738 $230 8.2041682070782738 $154 $334 forward 7 unknown #
point $-1 63.695791497543262 -27.464011078668797 8.2041682070782738 #
point $-1 63.695791497543262 27.464011078668797 8.2041682070782738 #
face $-1 $-1 $335 $22 $-1 $336 reversed single #
loop $-1 $-1 $337 $159 #
plane-surface $-1 0 0 -8.2041682070782738 0 0 1 1 0 0 forward_v I I I I #
coedge $-1 $256 $266 $251 $338 forward $160 $-1 #
coedge $-1 $165 $162 $337 $339 reversed $96 $-1 #
coedge $-1 $162 $165 $249 $338 reversed $96 $-1 #
coedge $-1 $340 $341 $162 $253 forward $335 $-1 #
edge $-1 $342 -8.2041682070782738 $343 8.2041682070782738 $252 $344 forward 7 unknown #
coedge $-1 $337 $168 $163 $255 forward $247 $-1 #
edge $-1 $173 -27.15903255784378 $259 -22.805292536309885 $254 $345 forward 7 unknown #
coedge $-1 $170 $249 $164 $257 forward $160 $-1 #
edge $-1 $258 22.805292536309885 $172 27.15903255784378 $256 $346 forward 7 unknown #
vertex $-1 $257 $347 #
vertex $-1 $255 $348 #
straight-curve $-1 -47.787455083386718 -18.722279190429688 0 0 0 -1 I I #
coedge $-1 $341 $340 $167 $262 forward $335 $-1 #
edge $-1 $267 -8.2041682070782738 $264 8.2041682070782738 $261 $349 forward 7 unknown #
coedge $-1 $168 $337 $341 $350 forward $247 $-1 #
vertex $-1 $169 $351 #
straight-curve $-1 -52.141195104920612 -11.546572567274621 -8.2041682070782738 0 1 0 I I #
coedge $-1 $249 $170 $340 $352 forward $160 $-1 #
vertex $-1 $352 $353 #
straight-curve $-1 -52.141195104920612 -11.546572567274621 8.2041682070782738 0 -1 0 I I #
point $-1 -52.141195104920612 -18.722279190429688 8.2041682070782738 #
point $-1 -52.141195104920612 -18.722279190429688 -8.2041682070782738 #
plane-surface $-1 0 0 8.2041682070782738 0 0 1 1 0 0 forward_v I I I I #
coedge $-1 $282 $281 $274 $354 forward $176 $-1 #
coedge $-1 $274 $178 $180 $278 reversed $104 $-1 #
coedge $-1 $178 $273 $272 $354 reversed $104 $-1 #
coedge $-1 $186 $181 $178 $276 forward $187 $-1 #
edge $-1 $279 26.847195735077822 $355 31.847894703620131 $275 $356 forward 7 unknown #
coedge $-1 $180 $179 $282 $357 reversed $65 $-1 #
edge $-1 $358 -127.39158299508655 $279 -120.31952661037496 $273 $359 forward 7 unknown #
vertex $-1 $182 $360 #
straight-curve $-1 58.695092529000952 -4.9350397407979614 8.2041682070782684 0 -1 0 I I #
coedge $-1 $272 $183 $186 $286 reversed $176 $-1 #
coedge $-1 $183 $272 $277 $357 forward $176 $-1 #
vertex $-1 $184 $361 #
straight-curve $-1 63.695791497543262 -4.1809240068499003 91.681186763161662 0 0 1 I I #
straight-curve $-1 -26.383659659219781 -4.1809240068499003 93.282922369560268 0.70710677298230451 0 -0.70710678939079041 I I #
edge $-1 $355 -15.559234956341946 $188 -4.1809240068499003 $281 $362 forward 7 unknown #
point $-1 63.695791497543262 -4.1809240068499003 8.2041682070782738 #
point $-1 58.695092529000952 -4.1809240068499003 8.2041682070782684 #
edge $-1 $363 1 $363 0 $191 $-1 forward 7 unknown #
vertex $-1 $192 $364 #
ellipse-curve $-1 60.437331259626887 -12.308288970772788 4.9457079287330563 0.70710678939079041 0 0.70710677298230451 0.35355338649115226 0 -0.35355339469539521 1 I I #
point $-1 61.548995399763264 -12.308288970772788 5.3502652700908495 #
edge $-1 $365 1 $365 0 $195 $-1 forward 7 unknown #
vertex $-1 $196 $366 #
ellipse-curve $-1 60.437331259626887 -7.4318699924190526 4.9457079287330563 0.70710678939079041 0 0.70710677298230451 0.35355338649115226 0 -0.35355339469539521 1 I I #
point $-1 61.548995399763264 -7.4318699924190526 5.3502652700908495 #
plane-surface $-1 0 0 8.2041682070782738 0 0 1 1 0 0 forward_v I I I I #
coedge $-1 $308 $307 $300 $367 forward $200 $-1 #
coedge $-1 $300 $202 $204 $304 reversed $126 $-1 #
coedge $-1 $202 $299 $298 $367 reversed $126 $-1 #
coedge $-1 $210 $205 $202 $302 forward $211 $-1 #
edge $-1 $305 -14.34820862843906 $368 -6.4851889713012341 $301 $369 forward 7 unknown #
coedge $-1 $204 $203 $308 $370 reversed $79 $-1 #
edge $-1 $371 -8.8817612989391469e-015 $305 9.8455673642635393 $299 $372 forward 7 unknown #
vertex $-1 $206 $373 #
straight-curve $-1 -55.832771840405435 -7.5142813343412378 8.2041682070782738 0 1 0 I I #
coedge $-1 $298 $207 $210 $312 reversed $200 $-1 #
coedge $-1 $207 $298 $303 $370 forward $200 $-1 #
vertex $-1 $208 $374 #
straight-curve $-1 -63.695791497543262 -18.722279190429688 52.009199455211984 0 0 1 I I #
straight-curve $-1 -63.695791497543254 -18.722279190429688 2.2789577807967305 -0.79863550430605224 0 -0.6018150307709319 I I #
edge $-1 $368 11.334846146935263 $212 18.722279190429688 $307 $375 forward 7 unknown #
point $-1 -63.695791497543262 -18.722279190429688 8.2041682070782738 #
point $-1 -55.832771840405435 -18.722279190429688 8.2041682070782755 #
edge $-1 $376 1 $376 0 $215 $-1 forward 7 unknown #
vertex $-1 $216 $377 #
ellipse-curve $-1 -58.635017556698251 -15.028562668682477 3.7429789312446173 -0.6018150307709319 0 0.79863550430605224 1.1979532564590785 0 0.90272254615639791 1 I I #
point $-1 -58.566328412515269 -15.028562668682477 6.1442855400938958 #
plane-surface $-1 63.695791497543262 0 0 -1 0 0 0 0 1 forward_v I I I I #
coedge $-1 $224 $222 $226 $324 reversed $141 $-1 #
edge $-1 $237 -8.2041682070782738 $326 8.2041682070782738 $236 $378 forward 7 unknown #
vertex $-1 $324 $379 #
straight-curve $-1 -63.695791497543262 -27.464011078668797 0 0 0 -1 I I #
edge $-1 $322 -27.464011078668797 $326 27.464011078668797 $320 $380 forward 7 unknown #
straight-curve $-1 0 -27.464011078668797 -8.2041682070782738 -1 0 0 I I #
vertex $-1 $229 $381 #
straight-curve $-1 0 27.464011078668797 -8.2041682070782738 1 0 0 I I #
point $-1 63.695791497543262 27.464011078668797 -8.2041682070782738 #
point $-1 63.695791497543262 -27.464011078668797 -8.2041682070782738 #
straight-curve $-1 -63.695791497543262 0 8.2041682070782738 0 -1 0 I I #
point $-1 -63.695791497543262 27.464011078668797 8.2041682070782738 #
point $-1 -63.695791497543262 -27.464011078668797 8.2041682070782738 #
straight-curve $-1 63.695791497543262 -27.464011078668797 0 0 0 -1 I I #
straight-curve $-1 63.695791497543262 27.464011078668797 0 0 0 -1 I I #
loop $-1 $-1 $252 $246 #
plane-surface $-1 0 -27.464011078668797 0 0 1 0 0 0 1 forward_v I I I I #
coedge $-1 $263 $254 $250 $339 forward $247 $-1 #
edge $-1 $343 -15.917438511394176 $258 -7.175706623155067 $249 $382 forward 7 unknown #
edge $-1 $259 7.175706623155067 $342 15.917438511394176 $337 $383 forward 7 unknown #
coedge $-1 $261 $252 $266 $352 reversed $335 $-1 #
coedge $-1 $252 $261 $263 $350 reversed $335 $-1 #
vertex $-1 $350 $384 #
vertex $-1 $253 $385 #
straight-curve $-1 -47.787455083386718 -27.464011078668797 0 0 0 1 I I #
straight-curve $-1 -24.982162547076832 -18.722279190429688 -8.2041682070782738 1 0 0 I I #
straight-curve $-1 -24.982162547076832 -18.722279190429688 8.2041682070782738 -1 0 0 I I #
point $-1 -47.787455083386718 -18.722279190429688 8.2041682070782738 #
point $-1 -47.787455083386718 -18.722279190429688 -8.2041682070782738 #
straight-curve $-1 -52.141195104920612 -27.464011078668797 0 0 0 -1 I I #
edge $-1 $342 47.787455083386718 $264 52.141195104920612 $341 $386 forward 7 unknown #
point $-1 -52.141195104920612 -27.464011078668797 -8.2041682070782738 #
edge $-1 $267 -52.141195104920612 $343 -47.787455083386718 $340 $387 forward 7 unknown #
point $-1 -52.141195104920612 -27.464011078668797 8.2041682070782738 #
edge $-1 $355 83.477018556083394 $358 88.477717640667436 $272 $388 forward 7 unknown #
vertex $-1 $286 $389 #
straight-curve $-1 31.84789679392313 -15.559234956341946 8.2041682070782684 1 0 0 I I #
edge $-1 $358 -10.624195215543985 $283 0.75411573394806108 $282 $390 forward 7 unknown #
vertex $-1 $357 $391 #
straight-curve $-1 -26.383659659219781 -15.559234956341946 93.282922369560268 -0.70710677298230451 0 0.70710678939079041 I I #
point $-1 58.695092529000952 -15.559234956341946 8.2041682070782684 #
point $-1 63.695791497543262 -4.1809240068499003 3.2034691224942264 #
straight-curve $-1 63.695791497543262 0 8.2041682070782738 0 1 0 I I #
vertex $-1 $289 $392 #
point $-1 60.790884646118037 -12.308288970772788 4.5921545340376611 #
vertex $-1 $293 $393 #
point $-1 60.790884646118037 -7.4318699924190526 4.5921545340376611 #
edge $-1 $368 43.805031248133709 $371 49.730241674415261 $298 $394 forward 7 unknown #
vertex $-1 $312 $395 #
straight-curve $-1 -70.180980468844496 -11.334846146935263 8.2041682070782755 -1 0 0 I I #
edge $-1 $371 3.820564812594025 $309 11.207997856088451 $308 $396 forward 7 unknown #
vertex $-1 $370 $397 #
straight-curve $-1 -63.695791497543254 -11.334846146935263 2.2789577807967305 0.79863550430605224 0 0.6018150307709319 I I #
point $-1 -55.832771840405435 -11.334846146935263 8.2041682070782755 #
point $-1 -63.695791497543262 -18.722279190429688 2.2789577807967252 #
straight-curve $-1 -63.695791497543262 0 8.2041682070782738 0 -1 0 I I #
vertex $-1 $315 $398 #
point $-1 -57.437064300239172 -15.028562668682477 4.6457014774010155 #
straight-curve $-1 -63.695791497543262 27.464011078668797 0 0 0 -1 I I #
point $-1 -63.695791497543262 -27.464011078668797 -8.2041682070782738 #
straight-curve $-1 -63.695791497543262 0 -8.2041682070782738 0 1 0 I I #
point $-1 -63.695791497543262 27.464011078668797 -8.2041682070782738 #
straight-curve $-1 -47.787455083386718 -11.546572567274621 8.2041682070782738 0 1 0 I I #
straight-curve $-1 -47.787455083386718 -11.546572567274621 -8.2041682070782738 0 -1 0 I I #
point $-1 -47.787455083386718 -27.464011078668797 -8.2041682070782738 #
point $-1 -47.787455083386718 -27.464011078668797 8.2041682070782738 #
straight-curve $-1 0 -27.464011078668797 -8.2041682070782738 -1 0 0 I I #
straight-curve $-1 0 -27.464011078668797 8.2041682070782738 1 0 0 I I #
straight-curve $-1 63.695791497543262 -15.559234956341946 91.681186763161662 0 0 -1 I I #
point $-1 63.695791497543262 -15.559234956341946 8.2041682070782738 #
straight-curve $-1 63.695791497543254 -4.9350397407979614 3.2034691224942407 0 1 0 I I #
point $-1 63.695791497543262 -15.559234956341946 3.2034691224942264 #
point $-1 60.083777864931491 -12.308288970772788 4.5921545422419046 #
point $-1 60.083777864931491 -7.4318699924190526 4.5921545422419046 #
straight-curve $-1 -63.695791497543262 -11.334846146935263 52.009199455211984 0 0 -1 I I #
point $-1 -63.695791497543262 -11.334846146935263 8.2041682070782738 #
straight-curve $-1 -63.695791497543262 -7.5142813343412378 2.2789577807967185 0 -1 0 I I #
point $-1 -63.695791497543262 -11.334846146935263 2.2789577807967252 #
point $-1 -57.732295010541854 -15.028562668682477 2.5450256747855393 #
End-of-ACIS-data 