500 0 11 0           
7 Unknown 11 ACIS 5.0 NT 24 Fri Mar 26 17:34:44 1999 
-1 9.9999999999999995e-007 1e-010 
body $-1 $11 $-1 $12 #
body $-1 $13 $-1 $14 #
body $-1 $15 $-1 $16 #
body $-1 $17 $-1 $18 #
body $-1 $19 $-1 $20 #
body $-1 $21 $-1 $22 #
body $-1 $23 $-1 $24 #
body $-1 $25 $-1 $26 #
body $-1 $27 $-1 $28 #
body $-1 $29 $-1 $30 #
body $-1 $31 $-1 $32 #
lump $-1 $-1 $33 $0 #
transform $-1 1 0 0 0 1 0 0 0 1 68.186895352031001 40.942311166191729 17.565322310349032 1 rotate no_reflect no_shear #
lump $-1 $-1 $34 $1 #
transform $-1 1 0 0 0 1 0 0 0 1 68.186895352031001 40.942311166191729 17.565322310349032 1 rotate no_reflect no_shear #
lump $-1 $-1 $35 $2 #
transform $-1 1 0 0 0 1 0 0 0 1 68.186895352031001 40.942311166191729 17.565322310349032 1 rotate no_reflect no_shear #
lump $-1 $-1 $36 $3 #
transform $-1 1 0 0 0 1 0 0 0 1 68.186895352031001 40.942311166191729 17.565322310349032 1 rotate no_reflect no_shear #
lump $-1 $-1 $37 $4 #
transform $-1 1 0 0 0 1 0 0 0 1 68.186895352031001 40.942311166191729 17.565322310349032 1 rotate no_reflect no_shear #
lump $-1 $-1 $38 $5 #
transform $-1 1 0 0 0 1 0 0 0 1 68.186895352031001 40.942311166191729 17.565322310349032 1 rotate no_reflect no_shear #
lump $-1 $-1 $39 $6 #
transform $-1 1 0 0 0 1 0 0 0 1 68.186895352031001 40.942311166191729 17.565322310349032 1 rotate no_reflect no_shear #
lump $-1 $-1 $40 $7 #
transform $-1 1 0 0 0 1 0 0 0 1 68.186895352031001 40.942311166191729 17.565322310349032 1 rotate no_reflect no_shear #
lump $-1 $-1 $41 $8 #
transform $-1 1 0 0 0 1 0 0 0 1 68.186895352031001 40.942311166191729 17.565322310349032 1 rotate no_reflect no_shear #
lump $-1 $-1 $42 $9 #
transform $-1 1 0 0 0 1 0 0 0 1 68.186895352031001 40.942311166191729 17.565322310349032 1 rotate no_reflect no_shear #
lump $-1 $-1 $43 $10 #
transform $-1 1 0 0 0 1 0 0 0 1 68.186895352031001 40.942311166191729 17.565322310349032 1 rotate no_reflect no_shear #
shell $-1 $-1 $-1 $44 $-1 $11 #
shell $-1 $-1 $-1 $45 $-1 $13 #
shell $-1 $-1 $-1 $46 $-1 $15 #
shell $-1 $-1 $-1 $47 $-1 $17 #
shell $-1 $-1 $-1 $48 $-1 $19 #
shell $-1 $-1 $-1 $49 $-1 $21 #
shell $-1 $-1 $-1 $50 $-1 $23 #
shell $-1 $-1 $-1 $51 $-1 $25 #
shell $-1 $-1 $-1 $52 $-1 $27 #
shell $-1 $-1 $-1 $53 $-1 $29 #
shell $-1 $-1 $-1 $54 $-1 $31 #
face $-1 $55 $56 $33 $-1 $57 forward single #
face $-1 $58 $59 $34 $-1 $60 forward single #
face $-1 $61 $62 $35 $-1 $63 forward single #
face $-1 $64 $65 $36 $-1 $66 reversed single #
face $-1 $67 $68 $37 $-1 $69 forward single #
face $-1 $70 $71 $38 $-1 $72 reversed single #
face $-1 $73 $74 $39 $-1 $75 forward single #
face $-1 $76 $77 $40 $-1 $78 reversed single #
face $-1 $79 $80 $41 $-1 $81 forward single #
face $-1 $82 $83 $42 $-1 $84 reversed single #
face $-1 $85 $86 $43 $-1 $87 forward single #
face $-1 $88 $89 $33 $-1 $90 reversed single #
loop $-1 $-1 $91 $44 #
plane-surface $-1 0 0 17.565322310349032 0 0 1 1 0 0 forward_v I I I I #
face $-1 $92 $93 $34 $-1 $94 reversed single #
loop $-1 $-1 $95 $45 #
plane-surface $-1 -61.121949783447519 0 -11.882900069858238 0 0 1 1 0 0 forward_v I I I I #
face $-1 $96 $97 $35 $-1 $98 reversed single #
loop $-1 $-1 $99 $46 #
plane-surface $-1 61.121949783447519 0 -11.882900069858238 0 0 1 1 0 0 forward_v I I I I #
face $-1 $100 $101 $36 $-1 $102 reversed single #
loop $-1 $-1 $103 $47 #
plane-surface $-1 -36.625529928689026 120.51906556254505 148.70600575152798 -1 0 0 0 0.87461971476443456 0.48480960649040278 forward_v I I I I #
face $-1 $104 $105 $37 $-1 $106 forward single #
loop $-1 $107 $108 $48 #
cone-surface $-1 -45.341267071776528 37.901861815691845 13.596508890702937 0 -0.87461971476443456 -0.48480960649040278 1.5 0 0 1 I I 0 1 1.5 forward I I I I #
face $-1 $109 $110 $38 $-1 $111 reversed single #
loop $-1 $-1 $112 $49 #
plane-surface $-1 -9.5970278212570079 120.51906556254505 148.70600575152798 -1 0 0 0 0.87461971476443456 0.48480960649040278 forward_v I I I I #
face $-1 $113 $114 $39 $-1 $115 forward single #
loop $-1 $116 $117 $50 #
cone-surface $-1 -18.31276496434451 37.901861815691845 13.596508890702937 0 -0.87461971476443456 -0.48480960649040278 1.5 0 0 1 I I 0 1 1.5 forward I I I I #
face $-1 $118 $119 $40 $-1 $120 reversed single #
loop $-1 $-1 $121 $51 #
plane-surface $-1 17.43147428617501 120.51906556254505 148.70600575152798 -1 0 0 0 0.87461971476443456 0.48480960649040278 forward_v I I I I #
face $-1 $122 $123 $41 $-1 $124 forward single #
loop $-1 $125 $126 $52 #
cone-surface $-1 8.7157371430875088 37.901861815691845 13.596508890702937 0 -0.87461971476443456 -0.48480960649040278 1.5 0 0 1 I I 0 1 1.5 forward I I I I #
face $-1 $127 $128 $42 $-1 $129 reversed single #
loop $-1 $-1 $130 $53 #
plane-surface $-1 44.459976393607029 120.51906556254505 148.70600575152798 -1 0 0 0 0.87461971476443456 0.48480960649040278 forward_v I I I I #
face $-1 $131 $132 $43 $-1 $133 forward single #
loop $-1 $134 $135 $54 #
cone-surface $-1 35.744239250519527 37.901861815691845 13.596508890702937 0 -0.87461971476443456 -0.48480960649040278 1.5 0 0 1 I I 0 1 1.5 forward I I I I #
face $-1 $136 $137 $33 $-1 $138 reversed single #
loop $-1 $-1 $139 $55 #
plane-surface $-1 0 0 -17.565322310349032 0 0 1 1 0 0 forward_v I I I I #
coedge $-1 $140 $141 $142 $143 forward $56 $-1 #
face $-1 $144 $145 $34 $-1 $146 reversed single #
loop $-1 $-1 $147 $58 #
plane-surface $-1 -54.057004214864037 0 -14.724111190103635 -1 0 0 0 0 1 forward_v I I I I #
coedge $-1 $148 $149 $150 $151 forward $59 $-1 #
face $-1 $152 $153 $35 $-1 $154 reversed single #
loop $-1 $-1 $155 $61 #
plane-surface $-1 54.057004214864037 0 -14.724111190103635 1 0 0 0 0 -1 forward_v I I I I #
coedge $-1 $156 $157 $158 $159 reversed $62 $-1 #
face $-1 $160 $161 $36 $-1 $162 reversed single #
loop $-1 $-1 $163 $64 #
plane-surface $-1 -45.341267071776528 1.2438596356136458 82.590681944687134 0 0.87461971476443456 0.48480960649040278 1 0 0 forward_v I I I I #
coedge $-1 $164 $165 $166 $167 reversed $65 $-1 #
face $-1 $-1 $168 $37 $-1 $169 forward single #
loop $-1 $170 $171 $67 #
cone-surface $-1 -45.341267071776528 36.032601403239966 12.560360962991332 0 -0.87461971476443456 -0.48480960649040278 0.75 0 0 1 I I -0.70710678118654757 0.70710678118654757 0.75 forward I I I I #
loop $-1 $-1 $172 $48 #
coedge $-1 $108 $108 $173 $174 reversed $68 $-1 #
face $-1 $175 $176 $38 $-1 $177 reversed single #
loop $-1 $-1 $178 $70 #
plane-surface $-1 -18.31276496434451 1.2438596356136458 82.590681944687134 0 0.87461971476443456 0.48480960649040278 1 0 0 forward_v I I I I #
coedge $-1 $179 $180 $181 $182 reversed $71 $-1 #
face $-1 $-1 $183 $39 $-1 $184 forward single #
loop $-1 $185 $186 $73 #
cone-surface $-1 -18.31276496434451 36.032601403239966 12.560360962991332 0 -0.87461971476443456 -0.48480960649040278 0.75 0 0 1 I I -0.70710678118654757 0.70710678118654757 0.75 forward I I I I #
loop $-1 $-1 $187 $50 #
coedge $-1 $117 $117 $188 $189 reversed $74 $-1 #
face $-1 $190 $191 $40 $-1 $192 reversed single #
loop $-1 $-1 $193 $76 #
plane-surface $-1 8.7157371430875088 1.2438596356136458 82.590681944687134 0 0.87461971476443456 0.48480960649040278 1 0 0 forward_v I I I I #
coedge $-1 $194 $195 $196 $197 reversed $77 $-1 #
face $-1 $-1 $198 $41 $-1 $199 forward single #
loop $-1 $200 $201 $79 #
cone-surface $-1 8.7157371430875088 36.032601403239966 12.560360962991332 0 -0.87461971476443456 -0.48480960649040278 0.75 0 0 1 I I -0.70710678118654757 0.70710678118654757 0.75 forward I I I I #
loop $-1 $-1 $202 $52 #
coedge $-1 $126 $126 $203 $204 reversed $80 $-1 #
face $-1 $205 $206 $42 $-1 $207 reversed single #
loop $-1 $-1 $208 $82 #
plane-surface $-1 35.744239250519527 1.2438596356136458 82.590681944687134 0 0.87461971476443456 0.48480960649040278 1 0 0 forward_v I I I I #
coedge $-1 $209 $210 $211 $212 reversed $83 $-1 #
face $-1 $-1 $213 $43 $-1 $214 forward single #
loop $-1 $215 $216 $85 #
cone-surface $-1 35.744239250519527 36.032601403239966 12.560360962991332 0 -0.87461971476443456 -0.48480960649040278 0.75 0 0 1 I I -0.70710678118654757 0.70710678118654757 0.75 forward I I I I #
loop $-1 $-1 $217 $54 #
coedge $-1 $135 $135 $218 $219 reversed $86 $-1 #
face $-1 $220 $221 $33 $-1 $222 reversed single #
loop $-1 $-1 $223 $88 #
plane-surface $-1 0 -40.942311166191729 0 0 1 0 0 0 1 forward_v I I I I #
coedge $-1 $224 $225 $226 $227 forward $89 $-1 #
coedge $-1 $228 $91 $229 $230 forward $56 $-1 #
coedge $-1 $91 $228 $231 $232 forward $56 $-1 #
coedge $-1 $233 $234 $91 $143 reversed $235 $-1 #
edge $-1 $236 -40.942311166191729 $237 40.942311166191729 $142 $238 forward 7 unknown #
face $-1 $239 $240 $34 $-1 $241 reversed single #
loop $-1 $-1 $242 $92 #
plane-surface $-1 0 0 -17.565322310349032 0 0 1 1 0 0 forward_v I I I I #
coedge $-1 $243 $150 $244 $245 reversed $93 $-1 #
coedge $-1 $246 $95 $247 $248 reversed $59 $-1 #
coedge $-1 $95 $246 $249 $250 reversed $59 $-1 #
coedge $-1 $147 $251 $95 $151 reversed $93 $-1 #
edge $-1 $252 -40.942311166191729 $253 40.942311166191729 $150 $254 forward 7 unknown #
face $-1 $255 $256 $35 $-1 $257 reversed single #
loop $-1 $-1 $258 $96 #
plane-surface $-1 0 -40.942311166191729 0 0 1 0 0 0 1 forward_v I I I I #
coedge $-1 $259 $260 $261 $262 reversed $97 $-1 #
coedge $-1 $263 $99 $264 $265 reversed $62 $-1 #
coedge $-1 $99 $263 $258 $266 reversed $62 $-1 #
coedge $-1 $267 $268 $99 $159 forward $269 $-1 #
edge $-1 $270 -40.942311166191729 $271 40.942311166191729 $158 $272 forward 7 unknown #
face $-1 $273 $274 $36 $-1 $275 reversed single #
loop $-1 $-1 $276 $100 #
plane-surface $-1 -54.05700421486403 120.51906556254505 148.70600575152798 1 0 0 0 -0.87461971476443456 -0.48480960649040278 forward_v I I I I #
coedge $-1 $277 $278 $279 $280 reversed $101 $-1 #
coedge $-1 $165 $103 $281 $282 reversed $65 $-1 #
coedge $-1 $103 $164 $277 $283 reversed $65 $-1 #
coedge $-1 $279 $284 $103 $167 forward $274 $-1 #
edge $-1 $285 56.787680565414959 $286 63.380225959019555 $166 $287 forward 7 unknown #
loop $-1 $-1 $173 $104 #
plane-surface $-1 -45.341267071776528 1.2438596356136458 82.590681944687134 0 0.87461971476443456 0.48480960649040278 1 0 0 forward_v I I I I #
loop $-1 $-1 $288 $67 #
coedge $-1 $171 $171 $172 $289 reversed $105 $-1 #
coedge $-1 $172 $172 $171 $289 forward $107 $-1 #
coedge $-1 $173 $173 $108 $174 forward $168 $-1 #
edge $-1 $290 -8.10753796935743e-016 $290 6.2831853071795996 $173 $291 forward 7 unknown #
face $-1 $292 $293 $38 $-1 $294 forward single #
loop $-1 $-1 $295 $109 #
plane-surface $-1 -27.028502107432011 120.51906556254505 148.70600575152798 1 0 0 0 -0.87461971476443456 -0.48480960649040278 forward_v I I I I #
coedge $-1 $296 $297 $298 $299 reversed $110 $-1 #
coedge $-1 $180 $112 $300 $301 reversed $71 $-1 #
coedge $-1 $112 $179 $296 $302 reversed $71 $-1 #
coedge $-1 $298 $303 $112 $182 forward $304 $-1 #
edge $-1 $305 56.787680565414959 $306 63.380225959019555 $181 $307 forward 7 unknown #
loop $-1 $-1 $188 $113 #
plane-surface $-1 -18.31276496434451 1.2438596356136458 82.590681944687134 0 0.87461971476443456 0.48480960649040278 1 0 0 forward_v I I I I #
loop $-1 $-1 $308 $73 #
coedge $-1 $186 $186 $187 $309 reversed $114 $-1 #
coedge $-1 $187 $187 $186 $309 forward $116 $-1 #
coedge $-1 $188 $188 $117 $189 forward $183 $-1 #
edge $-1 $310 -8.10753796935743e-016 $310 6.2831853071795996 $188 $311 forward 7 unknown #
face $-1 $312 $313 $40 $-1 $314 forward single #
loop $-1 $-1 $315 $118 #
plane-surface $-1 7.1054273576010019e-015 120.51906556254505 148.70600575152798 1 0 0 0 -0.87461971476443456 -0.48480960649040278 forward_v I I I I #
coedge $-1 $316 $317 $318 $319 reversed $119 $-1 #
coedge $-1 $195 $121 $320 $321 reversed $77 $-1 #
coedge $-1 $121 $194 $316 $322 reversed $77 $-1 #
coedge $-1 $318 $323 $121 $197 forward $324 $-1 #
edge $-1 $325 56.787680565414959 $326 63.380225959019555 $196 $327 forward 7 unknown #
loop $-1 $-1 $203 $122 #
plane-surface $-1 8.7157371430875088 1.2438596356136458 82.590681944687134 0 0.87461971476443456 0.48480960649040278 1 0 0 forward_v I I I I #
loop $-1 $-1 $328 $79 #
coedge $-1 $201 $201 $202 $329 reversed $123 $-1 #
coedge $-1 $202 $202 $201 $329 forward $125 $-1 #
coedge $-1 $203 $203 $126 $204 forward $198 $-1 #
edge $-1 $330 -8.10753796935743e-016 $330 6.2831853071795996 $203 $331 forward 7 unknown #
face $-1 $332 $333 $42 $-1 $334 forward single #
loop $-1 $-1 $335 $127 #
plane-surface $-1 27.028502107432026 120.51906556254505 148.70600575152798 1 0 0 0 -0.87461971476443456 -0.48480960649040278 forward_v I I I I #
coedge $-1 $336 $337 $338 $339 reversed $128 $-1 #
coedge $-1 $210 $130 $340 $341 reversed $83 $-1 #
coedge $-1 $130 $209 $336 $342 reversed $83 $-1 #
coedge $-1 $338 $343 $130 $212 forward $344 $-1 #
edge $-1 $345 56.787680565414959 $346 63.380225959019555 $211 $347 forward 7 unknown #
loop $-1 $-1 $218 $131 #
plane-surface $-1 35.744239250519527 1.2438596356136458 82.590681944687134 0 0.87461971476443456 0.48480960649040278 1 0 0 forward_v I I I I #
loop $-1 $-1 $348 $85 #
coedge $-1 $216 $216 $217 $349 reversed $132 $-1 #
coedge $-1 $217 $217 $216 $349 forward $134 $-1 #
coedge $-1 $218 $218 $135 $219 forward $213 $-1 #
edge $-1 $350 -8.10753796935743e-016 $350 6.2831853071795996 $218 $351 forward 7 unknown #
face $-1 $352 $353 $33 $-1 $354 reversed single #
loop $-1 $-1 $355 $136 #
plane-surface $-1 -68.186895352031001 0 0 1 0 0 0 0 -1 forward_v I I I I #
coedge $-1 $356 $231 $357 $358 forward $137 $-1 #
coedge $-1 $359 $139 $356 $360 forward $89 $-1 #
coedge $-1 $139 $359 $361 $362 forward $89 $-1 #
coedge $-1 $234 $233 $139 $227 reversed $235 $-1 #
edge $-1 $363 -40.942311166191729 $364 40.942311166191729 $226 $365 forward 7 unknown #
coedge $-1 $141 $140 $366 $367 forward $56 $-1 #
coedge $-1 $368 $369 $140 $230 reversed $353 $-1 #
edge $-1 $237 -68.186895352031001 $370 68.186895352031001 $229 $371 forward 7 unknown #
coedge $-1 $223 $372 $141 $232 reversed $137 $-1 #
edge $-1 $373 -68.186895352031001 $236 68.186895352031001 $231 $374 forward 7 unknown #
coedge $-1 $226 $142 $372 $375 forward $235 $-1 #
coedge $-1 $142 $226 $368 $376 reversed $235 $-1 #
loop $-1 $-1 $233 $352 #
vertex $-1 $143 $377 #
vertex $-1 $143 $378 #
straight-curve $-1 68.186895352031001 0 17.565322310349032 0 1 0 I I #
face $-1 $379 $380 $34 $-1 $381 reversed single #
loop $-1 $-1 $244 $144 #
plane-surface $-1 0 -40.942311166191729 0 0 1 0 0 0 1 forward_v I I I I #
coedge $-1 $382 $383 $243 $384 forward $145 $-1 #
coedge $-1 $251 $147 $242 $384 reversed $93 $-1 #
coedge $-1 $249 $385 $147 $245 forward $240 $-1 #
edge $-1 $386 -10.203266715297215 $252 -4.5208444748064203 $244 $387 forward 7 unknown #
coedge $-1 $149 $148 $388 $389 reversed $59 $-1 #
coedge $-1 $390 $391 $148 $248 forward $392 $-1 #
edge $-1 $393 -37.625920460307242 $253 -23.496029323140277 $247 $394 forward 7 unknown #
coedge $-1 $395 $244 $149 $250 forward $240 $-1 #
edge $-1 $252 23.496029323140277 $396 37.625920460307242 $249 $397 forward 7 unknown #
coedge $-1 $150 $243 $390 $398 reversed $93 $-1 #
vertex $-1 $250 $399 #
vertex $-1 $248 $400 #
straight-curve $-1 -54.057004214864037 0 -11.882900069858238 0 1 0 I I #
face $-1 $401 $402 $35 $-1 $403 reversed single #
loop $-1 $-1 $404 $152 #
plane-surface $-1 0 0 -17.565322310349032 0 0 1 1 0 0 forward_v I I I I #
coedge $-1 $405 $406 $157 $266 forward $153 $-1 #
coedge $-1 $407 $155 $404 $408 reversed $97 $-1 #
coedge $-1 $155 $407 $263 $409 reversed $97 $-1 #
coedge $-1 $264 $410 $155 $262 forward $402 $-1 #
edge $-1 $411 -10.203266715297215 $412 -4.5208444748064203 $261 $413 forward 7 unknown #
coedge $-1 $157 $156 $260 $409 forward $62 $-1 #
coedge $-1 $414 $261 $156 $265 forward $402 $-1 #
edge $-1 $412 23.496029323140277 $270 37.625920460307242 $264 $415 forward 7 unknown #
edge $-1 $271 -37.625920460307242 $416 -23.496029323140277 $258 $417 forward 7 unknown #
coedge $-1 $418 $158 $406 $419 forward $269 $-1 #
coedge $-1 $158 $418 $414 $420 reversed $269 $-1 #
loop $-1 $-1 $158 $401 #
vertex $-1 $420 $421 #
vertex $-1 $419 $422 #
straight-curve $-1 68.186895352031001 0 -11.882900069858238 0 -1 0 I I #
face $-1 $-1 $423 $36 $-1 $424 forward single #
loop $-1 $-1 $166 $160 #
plane-surface $-1 0 40.942311166191729 0 0 -1 0 0 0 -1 forward_v I I I I #
coedge $-1 $425 $426 $427 $428 reversed $161 $-1 #
coedge $-1 $429 $163 $165 $283 forward $101 $-1 #
coedge $-1 $163 $429 $425 $430 forward $101 $-1 #
coedge $-1 $427 $166 $163 $280 forward $274 $-1 #
edge $-1 $286 13.954896392800762 $431 31.386370678975766 $279 $432 forward 7 unknown #
coedge $-1 $433 $434 $164 $282 forward $423 $-1 #
edge $-1 $435 -22.971529063323473 $285 -19.317221615080797 $281 $436 forward 7 unknown #
edge $-1 $286 -81.884622332383486 $435 -74.347008804679973 $165 $437 forward 7 unknown #
coedge $-1 $166 $427 $433 $438 reversed $274 $-1 #
vertex $-1 $438 $439 #
vertex $-1 $167 $440 #
straight-curve $-1 -36.625529928689026 40.942311166191729 74.353002875763991 0 0 -1 I I #
coedge $-1 $288 $288 $-1 $441 reversed $170 $-1 #
edge $-1 $442 0 $442 6.2831853071796004 $171 $443 forward 7 unknown #
vertex $-1 $174 $444 #
ellipse-curve $-1 -45.341267071776528 39.115157442070391 14.269049613546734 0 0.87461971476443456 0.48480960649040278 1.5 0 0 1 I I #
face $-1 $-1 $304 $38 $-1 $445 reversed single #
loop $-1 $-1 $446 $175 #
plane-surface $-1 0 0 17.565322310349032 0 0 1 1 0 0 forward_v I I I I #
coedge $-1 $447 $448 $449 $450 reversed $176 $-1 #
coedge $-1 $451 $178 $180 $302 forward $110 $-1 #
coedge $-1 $178 $451 $447 $452 forward $110 $-1 #
coedge $-1 $449 $181 $178 $299 forward $304 $-1 #
edge $-1 $306 0.44064533908475312 $453 17.872119625259757 $298 $454 forward 7 unknown #
coedge $-1 $455 $456 $179 $301 forward $293 $-1 #
edge $-1 $457 -22.971529063323473 $305 -19.317221615080797 $300 $458 forward 7 unknown #
edge $-1 $306 -81.884622332383486 $457 -74.347008804679973 $180 $459 forward 7 unknown #
coedge $-1 $181 $449 $455 $460 reversed $304 $-1 #
loop $-1 $-1 $449 $292 #
vertex $-1 $460 $461 #
vertex $-1 $182 $462 #
straight-curve $-1 -9.5970278212570079 40.942311166191729 74.353002875763991 0 0 -1 I I #
coedge $-1 $308 $308 $-1 $463 reversed $185 $-1 #
edge $-1 $464 0 $464 6.2831853071796004 $186 $465 forward 7 unknown #
vertex $-1 $189 $466 #
ellipse-curve $-1 -18.31276496434451 39.115157442070391 14.269049613546734 0 0.87461971476443456 0.48480960649040278 1.5 0 0 1 I I #
face $-1 $-1 $324 $40 $-1 $467 reversed single #
loop $-1 $-1 $468 $190 #
plane-surface $-1 0 0 17.565322310349032 0 0 1 1 0 0 forward_v I I I I #
coedge $-1 $469 $470 $471 $472 reversed $191 $-1 #
coedge $-1 $473 $193 $195 $322 forward $119 $-1 #
coedge $-1 $193 $473 $469 $474 forward $119 $-1 #
coedge $-1 $471 $196 $193 $319 forward $324 $-1 #
edge $-1 $326 -13.073605714631256 $475 4.3578685715437473 $318 $476 forward 7 unknown #
coedge $-1 $477 $478 $194 $321 forward $313 $-1 #
edge $-1 $479 -22.971529063323473 $325 -19.317221615080797 $320 $480 forward 7 unknown #
edge $-1 $326 -81.884622332383486 $479 -74.347008804679973 $195 $481 forward 7 unknown #
coedge $-1 $196 $471 $477 $482 reversed $324 $-1 #
loop $-1 $-1 $471 $312 #
vertex $-1 $482 $483 #
vertex $-1 $197 $484 #
straight-curve $-1 17.43147428617501 40.942311166191729 74.353002875763991 0 0 -1 I I #
coedge $-1 $328 $328 $-1 $485 reversed $200 $-1 #
edge $-1 $486 0 $486 6.2831853071796004 $201 $487 forward 7 unknown #
vertex $-1 $204 $488 #
ellipse-curve $-1 8.7157371430875088 39.115157442070391 14.269049613546734 0 0.87461971476443456 0.48480960649040278 1.5 0 0 1 I I #
face $-1 $-1 $344 $42 $-1 $489 reversed single #
loop $-1 $-1 $490 $205 #
plane-surface $-1 0 0 17.565322310349032 0 0 1 1 0 0 forward_v I I I I #
coedge $-1 $491 $492 $493 $494 reversed $206 $-1 #
coedge $-1 $495 $208 $210 $342 forward $128 $-1 #
coedge $-1 $208 $495 $491 $496 forward $128 $-1 #
coedge $-1 $493 $211 $208 $339 forward $344 $-1 #
edge $-1 $346 -26.587856768347265 $497 -9.1563824821722619 $338 $498 forward 7 unknown #
coedge $-1 $499 $500 $209 $341 forward $333 $-1 #
edge $-1 $501 -22.971529063323473 $345 -19.317221615080797 $340 $502 forward 7 unknown #
edge $-1 $346 -81.884622332383486 $501 -74.347008804679973 $210 $503 forward 7 unknown #
coedge $-1 $211 $493 $499 $504 reversed $344 $-1 #
loop $-1 $-1 $493 $332 #
vertex $-1 $504 $505 #
vertex $-1 $212 $506 #
straight-curve $-1 44.459976393607029 40.942311166191729 74.353002875763991 0 0 -1 I I #
coedge $-1 $348 $348 $-1 $507 reversed $215 $-1 #
edge $-1 $508 0 $508 6.2831853071796004 $216 $509 forward 7 unknown #
vertex $-1 $219 $510 #
ellipse-curve $-1 35.744239250519527 39.115157442070391 14.269049613546734 0 0.87461971476443456 0.48480960649040278 1.5 0 0 1 I I #
face $-1 $-1 $235 $33 $-1 $511 reversed single #
loop $-1 $-1 $368 $220 #
plane-surface $-1 0 40.942311166191729 0 0 -1 0 0 0 -1 forward_v I I I I #
coedge $-1 $512 $366 $369 $513 forward $221 $-1 #
coedge $-1 $372 $223 $224 $360 reversed $137 $-1 #
coedge $-1 $366 $512 $223 $358 reversed $221 $-1 #
edge $-1 $373 -17.565322310349032 $514 17.565322310349032 $357 $515 forward 7 unknown #
coedge $-1 $225 $224 $512 $516 forward $89 $-1 #
edge $-1 $364 -68.186895352031001 $514 68.186895352031001 $356 $517 forward 7 unknown #
coedge $-1 $369 $368 $225 $362 reversed $353 $-1 #
edge $-1 $518 -68.186895352031001 $363 68.186895352031001 $361 $519 forward 7 unknown #
vertex $-1 $227 $520 #
vertex $-1 $375 $521 #
straight-curve $-1 68.186895352031001 0 -17.565322310349032 0 -1 0 I I #
coedge $-1 $355 $357 $228 $367 reversed $221 $-1 #
edge $-1 $370 -40.942311166191729 $373 40.942311166191729 $366 $522 forward 7 unknown #
coedge $-1 $361 $229 $234 $376 forward $353 $-1 #
coedge $-1 $229 $361 $355 $513 reversed $353 $-1 #
vertex $-1 $230 $523 #
straight-curve $-1 0 40.942311166191729 17.565322310349032 -1 0 0 I I #
coedge $-1 $231 $356 $233 $375 reversed $137 $-1 #
vertex $-1 $367 $524 #
straight-curve $-1 0 -40.942311166191729 17.565322310349032 1 0 0 I I #
edge $-1 $236 -17.565322310349032 $364 17.565322310349032 $233 $525 forward 7 unknown #
edge $-1 $237 -17.565322310349032 $363 17.565322310349032 $234 $526 forward 7 unknown #
point $-1 68.186895352031001 -40.942311166191729 17.565322310349032 #
point $-1 68.186895352031001 40.942311166191729 17.565322310349032 #
face $-1 $-1 $392 $34 $-1 $527 reversed single #
loop $-1 $-1 $388 $239 #
plane-surface $-1 -68.186895352031001 0 0 1 0 0 0 0 -1 forward_v I I I I #
coedge $-1 $528 $242 $385 $529 forward $145 $-1 #
coedge $-1 $242 $528 $530 $531 forward $145 $-1 #
edge $-1 $532 -40.942311166191729 $386 40.942311166191729 $242 $533 forward 7 unknown #
coedge $-1 $244 $395 $382 $529 reversed $240 $-1 #
vertex $-1 $529 $534 #
straight-curve $-1 -54.057004214864037 -40.942311166191729 -7.3620555950518174 0 0 1 I I #
coedge $-1 $535 $536 $246 $389 forward $380 $-1 #
edge $-1 $396 -40.942311166191729 $393 40.942311166191729 $388 $537 forward 7 unknown #
coedge $-1 $530 $247 $251 $398 forward $392 $-1 #
coedge $-1 $247 $530 $535 $538 reversed $392 $-1 #
loop $-1 $-1 $390 $379 #
vertex $-1 $538 $539 #
straight-curve $-1 -30.56097489172376 40.942311166191729 -11.882900069858238 1 0 0 I I #
coedge $-1 $385 $249 $536 $540 forward $240 $-1 #
vertex $-1 $540 $541 #
straight-curve $-1 -30.56097489172376 -40.942311166191729 -11.882900069858238 -1 0 0 I I #
edge $-1 $253 4.5208444748064203 $532 10.203266715297215 $390 $542 forward 7 unknown #
point $-1 -54.057004214864037 -40.942311166191729 -11.882900069858238 #
point $-1 -54.057004214864037 40.942311166191729 -11.882900069858238 #
face $-1 $-1 $269 $35 $-1 $543 reversed single #
loop $-1 $-1 $264 $255 #
plane-surface $-1 0 40.942311166191729 0 0 -1 0 0 0 -1 forward_v I I I I #
coedge $-1 $544 $545 $259 $408 forward $256 $-1 #
coedge $-1 $546 $258 $407 $547 forward $153 $-1 #
coedge $-1 $258 $546 $267 $419 reversed $153 $-1 #
coedge $-1 $260 $259 $405 $547 reversed $97 $-1 #
edge $-1 $548 -40.942311166191729 $411 40.942311166191729 $404 $549 forward 7 unknown #
edge $-1 $412 -40.942311166191729 $416 40.942311166191729 $260 $550 forward 7 unknown #
coedge $-1 $261 $414 $544 $551 reversed $402 $-1 #
vertex $-1 $551 $552 #
vertex $-1 $265 $553 #
straight-curve $-1 54.057004214864037 40.942311166191729 -7.3620555950518174 0 0 1 I I #
coedge $-1 $410 $264 $268 $420 forward $402 $-1 #
straight-curve $-1 30.56097489172376 40.942311166191729 -11.882900069858238 1 0 0 I I #
vertex $-1 $266 $554 #
straight-curve $-1 30.56097489172376 -40.942311166191729 -11.882900069858238 -1 0 0 I I #
coedge $-1 $268 $267 $555 $556 reversed $269 $-1 #
edge $-1 $271 11.882900069858238 $557 17.565322310349032 $267 $558 forward 7 unknown #
edge $-1 $270 11.882900069858238 $559 17.565322310349032 $268 $560 forward 7 unknown #
point $-1 68.186895352031001 40.942311166191729 -11.882900069858238 #
point $-1 68.186895352031001 -40.942311166191729 -11.882900069858238 #
loop $-1 $-1 $281 $273 #
plane-surface $-1 0 0 17.565322310349032 0 0 1 1 0 0 forward_v I I I I #
coedge $-1 $426 $276 $278 $430 reversed $161 $-1 #
coedge $-1 $276 $425 $561 $562 reversed $161 $-1 #
coedge $-1 $284 $279 $276 $428 forward $274 $-1 #
edge $-1 $431 -63.380225959019555 $563 -56.787680565414959 $427 $564 forward 7 unknown #
coedge $-1 $278 $277 $434 $565 reversed $101 $-1 #
edge $-1 $566 74.347008804679973 $431 81.884622332383486 $425 $567 forward 7 unknown #
vertex $-1 $280 $568 #
straight-curve $-1 -22.670633535888264 40.942311166191729 10.97277691674444 -1 0 0 I I #
coedge $-1 $561 $281 $284 $438 forward $423 $-1 #
coedge $-1 $281 $561 $429 $565 forward $423 $-1 #
vertex $-1 $282 $569 #
straight-curve $-1 -36.625529928689026 60.259532781272526 17.565322310349032 0 1 0 I I #
straight-curve $-1 -36.625529928689026 1.2438596356136458 82.590681944687134 0 -0.48480960649040278 0.87461971476443456 I I #
edge $-1 $285 36.625529928689026 $563 54.05700421486403 $284 $570 forward 7 unknown #
point $-1 -36.625529928689026 40.942311166191729 17.565322310349032 #
point $-1 -36.625529928689026 40.942311166191729 10.972776916744436 #
edge $-1 $571 1 $571 0 $288 $-1 forward 7 unknown #
vertex $-1 $289 $572 #
ellipse-curve $-1 -45.341267071776528 36.688566189313292 12.923968167859135 0 0.87461971476443456 0.48480960649040278 1.5 0 0 1 I I #
point $-1 -43.841267071776528 39.115157442070398 14.26904961354674 #
plane-surface $-1 0 40.942311166191729 0 0 -1 0 0 0 -1 forward_v I I I I #
coedge $-1 $456 $455 $448 $573 forward $293 $-1 #
coedge $-1 $448 $295 $297 $452 reversed $176 $-1 #
coedge $-1 $295 $447 $446 $573 reversed $176 $-1 #
coedge $-1 $303 $298 $295 $450 forward $304 $-1 #
edge $-1 $453 -63.380225959019555 $574 -56.787680565414959 $449 $575 forward 7 unknown #
coedge $-1 $297 $296 $456 $576 reversed $110 $-1 #
edge $-1 $577 74.347008804679973 $453 81.884622332383486 $447 $578 forward 7 unknown #
vertex $-1 $299 $579 #
straight-curve $-1 -9.1563824821722548 40.942311166191729 10.97277691674444 -1 0 0 I I #
coedge $-1 $446 $300 $303 $460 forward $293 $-1 #
coedge $-1 $300 $446 $451 $576 forward $293 $-1 #
vertex $-1 $301 $580 #
straight-curve $-1 -9.5970278212570079 60.259532781272526 17.565322310349032 0 1 0 I I #
straight-curve $-1 -9.5970278212570079 1.2438596356136458 82.590681944687134 0 -0.48480960649040278 0.87461971476443456 I I #
edge $-1 $305 9.5970278212570079 $574 27.028502107432011 $303 $581 forward 7 unknown #
point $-1 -9.5970278212570079 40.942311166191729 17.565322310349032 #
point $-1 -9.5970278212570079 40.942311166191729 10.972776916744436 #
edge $-1 $582 1 $582 0 $308 $-1 forward 7 unknown #
vertex $-1 $309 $583 #
ellipse-curve $-1 -18.31276496434451 36.688566189313292 12.923968167859135 0 0.87461971476443456 0.48480960649040278 1.5 0 0 1 I I #
point $-1 -16.81276496434451 39.115157442070398 14.26904961354674 #
plane-surface $-1 0 40.942311166191729 0 0 -1 0 0 0 -1 forward_v I I I I #
coedge $-1 $478 $477 $470 $584 forward $313 $-1 #
coedge $-1 $470 $315 $317 $474 reversed $191 $-1 #
coedge $-1 $315 $469 $468 $584 reversed $191 $-1 #
coedge $-1 $323 $318 $315 $472 forward $324 $-1 #
edge $-1 $475 -63.380225959019555 $585 -56.787680565414959 $471 $586 forward 7 unknown #
coedge $-1 $317 $316 $478 $587 reversed $119 $-1 #
edge $-1 $588 74.347008804679973 $475 81.884622332383486 $469 $589 forward 7 unknown #
vertex $-1 $319 $590 #
straight-curve $-1 4.3578685715437544 40.942311166191729 10.97277691674444 -1 0 0 I I #
coedge $-1 $468 $320 $323 $482 forward $313 $-1 #
coedge $-1 $320 $468 $473 $587 forward $313 $-1 #
vertex $-1 $321 $591 #
straight-curve $-1 17.43147428617501 60.259532781272526 17.565322310349032 0 1 0 I I #
straight-curve $-1 17.43147428617501 1.2438596356136458 82.590681944687134 0 -0.48480960649040278 0.87461971476443456 I I #
edge $-1 $325 -17.43147428617501 $585 -7.1054273576010019e-015 $323 $592 forward 7 unknown #
point $-1 17.43147428617501 40.942311166191729 17.565322310349032 #
point $-1 17.43147428617501 40.942311166191729 10.972776916744436 #
edge $-1 $593 1 $593 0 $328 $-1 forward 7 unknown #
vertex $-1 $329 $594 #
ellipse-curve $-1 8.7157371430875088 36.688566189313292 12.923968167859135 0 0.87461971476443456 0.48480960649040278 1.5 0 0 1 I I #
point $-1 10.215737143087509 39.115157442070398 14.26904961354674 #
plane-surface $-1 0 40.942311166191729 0 0 -1 0 0 0 -1 forward_v I I I I #
coedge $-1 $500 $499 $492 $595 forward $333 $-1 #
coedge $-1 $492 $335 $337 $496 reversed $206 $-1 #
coedge $-1 $335 $491 $490 $595 reversed $206 $-1 #
coedge $-1 $343 $338 $335 $494 forward $344 $-1 #
edge $-1 $497 -63.380225959019555 $596 -56.787680565414959 $493 $597 forward 7 unknown #
coedge $-1 $337 $336 $500 $598 reversed $128 $-1 #
edge $-1 $599 74.347008804679973 $497 81.884622332383486 $491 $600 forward 7 unknown #
vertex $-1 $339 $601 #
straight-curve $-1 17.872119625259764 40.942311166191729 10.97277691674444 -1 0 0 I I #
coedge $-1 $490 $340 $343 $504 forward $333 $-1 #
coedge $-1 $340 $490 $495 $598 forward $333 $-1 #
vertex $-1 $341 $602 #
straight-curve $-1 44.459976393607029 60.259532781272526 17.565322310349032 0 1 0 I I #
straight-curve $-1 44.459976393607029 1.2438596356136458 82.590681944687134 0 -0.48480960649040278 0.87461971476443456 I I #
edge $-1 $345 -44.459976393607029 $596 -27.028502107432026 $343 $603 forward 7 unknown #
point $-1 44.459976393607029 40.942311166191729 17.565322310349032 #
point $-1 44.459976393607029 40.942311166191729 10.972776916744436 #
edge $-1 $604 1 $604 0 $348 $-1 forward 7 unknown #
vertex $-1 $349 $605 #
ellipse-curve $-1 35.744239250519527 36.688566189313292 12.923968167859135 0 0.87461971476443456 0.48480960649040278 1.5 0 0 1 I I #
point $-1 37.244239250519527 39.115157442070398 14.26904961354674 #
plane-surface $-1 68.186895352031001 0 0 -1 0 0 0 0 1 forward_v I I I I #
coedge $-1 $357 $355 $359 $516 reversed $221 $-1 #
edge $-1 $370 -17.565322310349032 $518 17.565322310349032 $369 $606 forward 7 unknown #
vertex $-1 $516 $607 #
straight-curve $-1 -68.186895352031001 -40.942311166191729 0 0 0 -1 I I #
edge $-1 $514 -40.942311166191729 $518 40.942311166191729 $512 $608 forward 7 unknown #
straight-curve $-1 0 -40.942311166191729 -17.565322310349032 -1 0 0 I I #
vertex $-1 $362 $609 #
straight-curve $-1 0 40.942311166191729 -17.565322310349032 1 0 0 I I #
point $-1 68.186895352031001 40.942311166191729 -17.565322310349032 #
point $-1 68.186895352031001 -40.942311166191729 -17.565322310349032 #
straight-curve $-1 -68.186895352031001 0 17.565322310349032 0 -1 0 I I #
point $-1 -68.186895352031001 40.942311166191729 17.565322310349032 #
point $-1 -68.186895352031001 -40.942311166191729 17.565322310349032 #
straight-curve $-1 68.186895352031001 -40.942311166191729 0 0 0 -1 I I #
straight-curve $-1 68.186895352031001 40.942311166191729 0 0 0 -1 I I #
plane-surface $-1 0 40.942311166191729 0 0 -1 0 0 0 -1 forward_v I I I I #
coedge $-1 $383 $382 $610 $611 forward $145 $-1 #
edge $-1 $386 54.057004214864037 $612 68.186895352031001 $385 $613 forward 7 unknown #
coedge $-1 $391 $390 $383 $531 reversed $392 $-1 #
edge $-1 $614 -68.186895352031001 $532 -54.057004214864037 $530 $615 forward 7 unknown #
vertex $-1 $398 $616 #
straight-curve $-1 -54.057004214864037 0 -17.565322310349032 0 -1 0 I I #
point $-1 -54.057004214864037 -40.942311166191729 -17.565322310349032 #
coedge $-1 $610 $388 $391 $538 forward $380 $-1 #
coedge $-1 $388 $610 $395 $540 reversed $380 $-1 #
straight-curve $-1 -68.186895352031001 0 -11.882900069858238 0 1 0 I I #
edge $-1 $393 11.882900069858238 $614 17.565322310349032 $391 $617 forward 7 unknown #
point $-1 -68.186895352031001 40.942311166191729 -11.882900069858238 #
edge $-1 $396 11.882900069858238 $612 17.565322310349032 $536 $618 forward 7 unknown #
point $-1 -68.186895352031001 -40.942311166191729 -11.882900069858238 #
straight-curve $-1 -54.057004214864037 40.942311166191729 -7.3620555950518174 0 0 -1 I I #
plane-surface $-1 68.186895352031001 0 0 -1 0 0 0 0 1 forward_v I I I I #
coedge $-1 $555 $404 $410 $551 forward $256 $-1 #
coedge $-1 $404 $555 $546 $619 forward $256 $-1 #
coedge $-1 $406 $405 $545 $619 reversed $153 $-1 #
edge $-1 $416 4.5208444748064203 $548 10.203266715297215 $405 $620 forward 7 unknown #
vertex $-1 $408 $621 #
straight-curve $-1 54.057004214864037 0 -17.565322310349032 0 1 0 I I #
straight-curve $-1 54.057004214864037 0 -11.882900069858238 0 -1 0 I I #
edge $-1 $411 54.057004214864037 $559 68.186895352031001 $410 $622 forward 7 unknown #
point $-1 54.057004214864037 40.942311166191729 -17.565322310349032 #
point $-1 54.057004214864037 40.942311166191729 -11.882900069858238 #
point $-1 54.057004214864037 -40.942311166191729 -11.882900069858238 #
coedge $-1 $545 $544 $418 $556 forward $256 $-1 #
edge $-1 $559 -40.942311166191729 $557 40.942311166191729 $418 $623 forward 7 unknown #
vertex $-1 $419 $624 #
straight-curve $-1 68.186895352031001 -40.942311166191729 0 0 0 -1 I I #
vertex $-1 $556 $625 #
straight-curve $-1 68.186895352031001 40.942311166191729 0 0 0 -1 I I #
coedge $-1 $434 $433 $426 $562 forward $423 $-1 #
edge $-1 $563 19.317221615080797 $566 22.971529063323473 $561 $626 forward 7 unknown #
vertex $-1 $562 $627 #
straight-curve $-1 -54.05700421486403 40.942311166191729 74.353002875763991 0 0 1 I I #
edge $-1 $566 -31.386370678975766 $435 -13.954896392800762 $434 $628 forward 7 unknown #
vertex $-1 $565 $629 #
straight-curve $-1 -54.05700421486403 1.2438596356136458 82.590681944687134 0 0.48480960649040278 -0.87461971476443456 I I #
point $-1 -54.05700421486403 40.942311166191729 10.972776916744436 #
point $-1 -36.625529928689026 37.288003717949053 17.565322310349032 #
straight-curve $-1 0 40.942311166191729 17.565322310349032 -1 0 0 I I #
vertex $-1 $441 $630 #
point $-1 -43.841267071776528 36.688566189313292 12.923968167859135 #
edge $-1 $574 19.317221615080797 $577 22.971529063323473 $446 $631 forward 7 unknown #
vertex $-1 $573 $632 #
straight-curve $-1 -27.028502107432011 40.942311166191729 74.353002875763991 0 0 1 I I #
edge $-1 $577 -17.872119625259757 $457 -0.44064533908475312 $456 $633 forward 7 unknown #
vertex $-1 $576 $634 #
straight-curve $-1 -27.028502107432011 1.2438596356136458 82.590681944687134 0 0.48480960649040278 -0.87461971476443456 I I #
point $-1 -27.028502107432011 40.942311166191729 10.972776916744436 #
point $-1 -9.5970278212570079 37.288003717949053 17.565322310349032 #
straight-curve $-1 0 40.942311166191729 17.565322310349032 -1 0 0 I I #
vertex $-1 $463 $635 #
point $-1 -16.81276496434451 36.688566189313292 12.923968167859135 #
edge $-1 $585 19.317221615080797 $588 22.971529063323473 $468 $636 forward 7 unknown #
vertex $-1 $472 $637 #
straight-curve $-1 7.1054273576010019e-015 40.942311166191729 74.353002875763991 0 0 1 I I #
edge $-1 $588 -4.3578685715437473 $479 13.073605714631256 $478 $638 forward 7 unknown #
vertex $-1 $587 $639 #
straight-curve $-1 7.1054273576010019e-015 1.2438596356136458 82.590681944687134 0 0.48480960649040278 -0.87461971476443456 I I #
point $-1 7.1054273576010019e-015 40.942311166191729 10.972776916744436 #
point $-1 17.43147428617501 37.288003717949053 17.565322310349032 #
straight-curve $-1 0 40.942311166191729 17.565322310349032 -1 0 0 I I #
vertex $-1 $485 $640 #
point $-1 10.215737143087509 36.688566189313292 12.923968167859135 #
edge $-1 $596 19.317221615080797 $599 22.971529063323473 $490 $641 forward 7 unknown #
vertex $-1 $494 $642 #
straight-curve $-1 27.028502107432026 40.942311166191729 74.353002875763991 0 0 1 I I #
edge $-1 $599 9.1563824821722619 $501 26.587856768347265 $500 $643 forward 7 unknown #
vertex $-1 $598 $644 #
straight-curve $-1 27.028502107432026 1.2438596356136458 82.590681944687134 0 0.48480960649040278 -0.87461971476443456 I I #
point $-1 27.028502107432026 40.942311166191729 10.972776916744436 #
point $-1 44.459976393607029 37.288003717949053 17.565322310349032 #
straight-curve $-1 0 40.942311166191729 17.565322310349032 -1 0 0 I I #
vertex $-1 $507 $645 #
point $-1 37.244239250519527 36.688566189313292 12.923968167859135 #
straight-curve $-1 -68.186895352031001 40.942311166191729 0 0 0 -1 I I #
point $-1 -68.186895352031001 -40.942311166191729 -17.565322310349032 #
straight-curve $-1 -68.186895352031001 0 -17.565322310349032 0 1 0 I I #
point $-1 -68.186895352031001 40.942311166191729 -17.565322310349032 #
coedge $-1 $536 $535 $528 $611 reversed $380 $-1 #
edge $-1 $612 -40.942311166191729 $614 40.942311166191729 $610 $646 forward 7 unknown #
vertex $-1 $611 $647 #
straight-curve $-1 0 -40.942311166191729 -17.565322310349032 -1 0 0 I I #
vertex $-1 $531 $648 #
straight-curve $-1 0 40.942311166191729 -17.565322310349032 1 0 0 I I #
point $-1 -54.057004214864037 40.942311166191729 -17.565322310349032 #
straight-curve $-1 -68.186895352031001 40.942311166191729 0 0 0 -1 I I #
straight-curve $-1 -68.186895352031001 -40.942311166191729 0 0 0 -1 I I #
edge $-1 $557 -68.186895352031001 $548 -54.057004214864037 $546 $649 forward 7 unknown #
straight-curve $-1 54.057004214864037 -40.942311166191729 -7.3620555950518174 0 0 -1 I I #
point $-1 54.057004214864037 -40.942311166191729 -17.565322310349032 #
straight-curve $-1 0 40.942311166191729 -17.565322310349032 1 0 0 I I #
straight-curve $-1 68.186895352031001 0 -17.565322310349032 0 -1 0 I I #
point $-1 68.186895352031001 -40.942311166191729 -17.565322310349032 #
point $-1 68.186895352031001 40.942311166191729 -17.565322310349032 #
straight-curve $-1 -54.05700421486403 60.259532781272526 17.565322310349032 0 -1 0 I I #
point $-1 -54.05700421486403 40.942311166191729 17.565322310349032 #
straight-curve $-1 -22.670633535888264 37.288003717949053 17.565322310349032 1 0 0 I I #
point $-1 -54.05700421486403 37.288003717949053 17.565322310349032 #
point $-1 -45.341267071776528 35.376636617166639 12.196753758123529 #
straight-curve $-1 -27.028502107432011 60.259532781272526 17.565322310349032 0 -1 0 I I #
point $-1 -27.028502107432011 40.942311166191729 17.565322310349032 #
straight-curve $-1 -9.1563824821722548 37.288003717949053 17.565322310349032 1 0 0 I I #
point $-1 -27.028502107432011 37.288003717949053 17.565322310349032 #
point $-1 -18.31276496434451 35.376636617166639 12.196753758123529 #
straight-curve $-1 7.1054273576010019e-015 60.259532781272526 17.565322310349032 0 -1 0 I I #
point $-1 7.1054273576010019e-015 40.942311166191729 17.565322310349032 #
straight-curve $-1 4.3578685715437544 37.288003717949053 17.565322310349032 1 0 0 I I #
point $-1 7.1054273576010019e-015 37.288003717949053 17.565322310349032 #
point $-1 8.7157371430875088 35.376636617166639 12.196753758123529 #
straight-curve $-1 27.028502107432026 60.259532781272526 17.565322310349032 0 -1 0 I I #
point $-1 27.028502107432026 40.942311166191729 17.565322310349032 #
straight-curve $-1 17.872119625259764 37.288003717949053 17.565322310349032 1 0 0 I I #
point $-1 27.028502107432026 37.288003717949053 17.565322310349032 #
point $-1 35.744239250519527 35.376636617166639 12.196753758123529 #
straight-curve $-1 -68.186895352031001 0 -17.565322310349032 0 1 0 I I #
point $-1 -68.186895352031001 -40.942311166191729 -17.565322310349032 #
point $-1 -68.186895352031001 40.942311166191729 -17.565322310349032 #
straight-curve $-1 0 -40.942311166191729 -17.565322310349032 -1 0 0 I I #
End-of-ACIS-data 