500 0 11 0           
7 Unknown 11 ACIS 5.0 NT 24 Fri Mar 26 19:04:26 1999 
-1 9.9999999999999995e-007 1e-010 
body $-1 $11 $-1 $12 #
body $-1 $13 $-1 $14 #
body $-1 $15 $-1 $16 #
body $-1 $17 $-1 $18 #
body $-1 $19 $-1 $20 #
body $-1 $21 $-1 $22 #
body $-1 $23 $-1 $24 #
body $-1 $25 $-1 $26 #
body $-1 $27 $-1 $28 #
body $-1 $29 $-1 $30 #
body $-1 $31 $-1 $32 #
lump $-1 $-1 $33 $0 #
transform $-1 1 0 0 0 1 0 0 0 1 66.606036561174349 27.813869407336796 6.1586580430918731 1 rotate no_reflect no_shear #
lump $-1 $-1 $34 $1 #
transform $-1 1 0 0 0 1 0 0 0 1 66.606036561174349 27.813869407336796 6.1586580430918731 1 rotate no_reflect no_shear #
lump $-1 $-1 $35 $2 #
transform $-1 1 0 0 0 1 0 0 0 1 66.606036561174349 27.813869407336796 6.1586580430918731 1 rotate no_reflect no_shear #
lump $-1 $-1 $36 $3 #
transform $-1 1 0 0 0 1 0 0 0 1 66.606036561174349 27.813869407336796 6.1586580430918731 1 rotate no_reflect no_shear #
lump $-1 $-1 $37 $4 #
transform $-1 1 0 0 0 1 0 0 0 1 66.606036561174349 27.813869407336796 6.1586580430918731 1 rotate no_reflect no_shear #
lump $-1 $-1 $38 $5 #
transform $-1 1 0 0 0 1 0 0 0 1 66.606036561174349 27.813869407336796 6.1586580430918731 1 rotate no_reflect no_shear #
lump $-1 $-1 $39 $6 #
transform $-1 1 0 0 0 1 0 0 0 1 66.606036561174349 27.813869407336796 6.1586580430918731 1 rotate no_reflect no_shear #
lump $-1 $-1 $40 $7 #
transform $-1 1 0 0 0 1 0 0 0 1 66.606036561174349 27.813869407336796 6.1586580430918731 1 rotate no_reflect no_shear #
lump $-1 $-1 $41 $8 #
transform $-1 1 0 0 0 1 0 0 0 1 66.606036561174349 27.813869407336796 6.1586580430918731 1 rotate no_reflect no_shear #
lump $-1 $-1 $42 $9 #
transform $-1 1 0 0 0 1 0 0 0 1 66.606036561174349 27.813869407336796 6.1586580430918731 1 rotate no_reflect no_shear #
lump $-1 $-1 $43 $10 #
transform $-1 1 0 0 0 1 0 0 0 1 66.606036561174349 27.813869407336796 6.1586580430918731 1 rotate no_reflect no_shear #
shell $-1 $-1 $-1 $44 $-1 $11 #
shell $-1 $-1 $-1 $45 $-1 $13 #
shell $-1 $-1 $-1 $46 $-1 $15 #
shell $-1 $-1 $-1 $47 $-1 $17 #
shell $-1 $-1 $-1 $48 $-1 $19 #
shell $-1 $-1 $-1 $49 $-1 $21 #
shell $-1 $-1 $-1 $50 $-1 $23 #
shell $-1 $-1 $-1 $51 $-1 $25 #
shell $-1 $-1 $-1 $52 $-1 $27 #
shell $-1 $-1 $-1 $53 $-1 $29 #
shell $-1 $-1 $-1 $54 $-1 $31 #
face $-1 $55 $56 $33 $-1 $57 forward single #
face $-1 $58 $59 $34 $-1 $60 forward single #
face $-1 $61 $62 $35 $-1 $63 reversed single #
face $-1 $64 $65 $36 $-1 $66 forward single #
face $-1 $67 $68 $37 $-1 $69 forward single #
face $-1 $70 $71 $38 $-1 $72 reversed single #
face $-1 $73 $74 $39 $-1 $75 forward single #
face $-1 $76 $77 $40 $-1 $78 forward single #
face $-1 $79 $80 $41 $-1 $81 reversed single #
face $-1 $82 $83 $42 $-1 $84 forward single #
face $-1 $85 $86 $43 $-1 $87 forward single #
face $-1 $88 $89 $33 $-1 $90 reversed single #
loop $-1 $-1 $91 $44 #
plane-surface $-1 0 0 6.1586580430918731 0 0 1 1 0 0 forward_v I I I I #
face $-1 $92 $93 $34 $-1 $94 reversed single #
loop $-1 $-1 $95 $45 #
plane-surface $-1 0 -24.904113519524735 -2.7171246722053697 0 0 1 1 0 0 forward_v I I I I #
face $-1 $96 $97 $35 $-1 $98 reversed single #
loop $-1 $-1 $99 $46 #
plane-surface $-1 30.659470392598266 -8.2241607897092095 187.05761397774 0 -1 0 -0.55919291073839883 0 -0.82903756765294845 forward_v I I I I #
face $-1 $100 $101 $36 $-1 $102 forward single #
loop $-1 $103 $104 $47 #
cone-surface $-1 62.798565001594142 -15.571078101469475 2.927855448825821 -0.55919291073839883 0 -0.82903756765294845 0.82903756765294845 0 -0.55919291073839883 1 I I 0 1 1 forward I I I I #
face $-1 $105 $106 $37 $-1 $107 forward single #
loop $-1 $108 $109 $48 #
cone-surface $-1 62.798565001594142 -11.162927714413318 2.927855448825821 -0.55919291073839883 0 -0.82903756765294845 0.82903756765294845 0 -0.55919291073839883 1 I I 0 1 1 forward I I I I #
face $-1 $110 $111 $38 $-1 $112 reversed single #
loop $-1 $-1 $113 $49 #
plane-surface $-1 30.659470392598266 24.329356801797704 187.05761397774 0 -1 0 -0.55919291073839883 0 -0.82903756765294845 forward_v I I I I #
face $-1 $114 $115 $39 $-1 $116 forward single #
loop $-1 $117 $118 $50 #
cone-surface $-1 62.798565001594142 16.982439490037436 2.927855448825821 -0.55919291073839883 0 -0.82903756765294845 0.82903756765294845 0 -0.55919291073839883 1 I I 0 1 1 forward I I I I #
face $-1 $119 $120 $40 $-1 $121 forward single #
loop $-1 $122 $123 $51 #
cone-surface $-1 62.798565001594142 21.390589877093589 2.927855448825821 -0.55919291073839883 0 -0.82903756765294845 0.82903756765294845 0 -0.55919291073839883 1 I I 0 1 1 forward I I I I #
face $-1 $124 $125 $41 $-1 $126 reversed single #
loop $-1 $-1 $127 $52 #
plane-surface $-1 -159.14291928891453 -21.994357631712674 96.995396702858145 0 1 0 -0.69465837861970381 0 0.71933979245794832 forward_v I I I I #
face $-1 $128 $129 $42 $-1 $130 forward single #
loop $-1 $131 $132 $53 #
cone-surface $-1 -63.66337156522323 -18.75161550068508 3.2918130534208219 0.69465837861970381 0 -0.71933979245794832 0.71933979245794832 0 0.69465837861970381 1 I I 0 1 1 forward I I I I #
face $-1 $133 $134 $43 $-1 $135 forward single #
loop $-1 $136 $137 $54 #
cone-surface $-1 -63.66337156522323 -13.887502304143688 3.2918130534208219 0.69465837861970381 0 -0.71933979245794832 0.71933979245794832 0 0.69465837861970381 1 I I 0 1 1 forward I I I I #
face $-1 $138 $139 $33 $-1 $140 reversed single #
loop $-1 $-1 $141 $55 #
plane-surface $-1 0 0 -6.1586580430918731 0 0 1 1 0 0 forward_v I I I I #
coedge $-1 $142 $143 $144 $145 forward $56 $-1 #
face $-1 $146 $147 $34 $-1 $148 reversed single #
loop $-1 $-1 $149 $58 #
plane-surface $-1 0 -21.994357631712674 -4.4378913576486214 0 -1 0 0 0 -1 forward_v I I I I #
coedge $-1 $150 $151 $152 $153 reversed $59 $-1 #
face $-1 $154 $155 $35 $-1 $156 reversed single #
loop $-1 $-1 $157 $61 #
plane-surface $-1 -43.831776522184327 -13.367002907941394 76.619800894381328 0.55919291073839883 0 0.82903756765294845 0.82903756765294845 0 -0.55919291073839883 forward_v I I I I #
coedge $-1 $158 $159 $160 $161 reversed $62 $-1 #
face $-1 $-1 $162 $36 $-1 $163 forward single #
loop $-1 $164 $165 $64 #
cone-surface $-1 61.698934421943008 -15.571078101469475 1.2975861024798716 -0.55919291073839883 0 -0.82903756765294845 0.41451878382647422 0 -0.27959645536919941 1 I I -0.70710678118654746 0.70710678118654746 0.5 forward I I I I #
loop $-1 $-1 $166 $47 #
coedge $-1 $104 $104 $167 $168 reversed $65 $-1 #
face $-1 $-1 $169 $37 $-1 $170 forward single #
loop $-1 $171 $172 $67 #
cone-surface $-1 61.698934421943008 -11.162927714413318 1.2975861024798716 -0.55919291073839883 0 -0.82903756765294845 0.41451878382647422 0 -0.27959645536919941 1 I I -0.70710678118654746 0.70710678118654746 0.5 forward I I I I #
loop $-1 $-1 $173 $48 #
coedge $-1 $109 $109 $174 $175 reversed $68 $-1 #
face $-1 $176 $177 $38 $-1 $178 reversed single #
loop $-1 $-1 $179 $70 #
plane-surface $-1 -43.831776522184327 19.18651468356552 76.619800894381328 0.55919291073839883 0 0.82903756765294845 0.82903756765294845 0 -0.55919291073839883 forward_v I I I I #
coedge $-1 $180 $181 $182 $183 reversed $71 $-1 #
face $-1 $-1 $184 $39 $-1 $185 forward single #
loop $-1 $186 $187 $73 #
cone-surface $-1 61.698934421943008 16.982439490037436 1.2975861024798716 -0.55919291073839883 0 -0.82903756765294845 0.41451878382647422 0 -0.27959645536919941 1 I I -0.70710678118654746 0.70710678118654746 0.5 forward I I I I #
loop $-1 $-1 $188 $50 #
coedge $-1 $118 $118 $189 $190 reversed $74 $-1 #
face $-1 $-1 $191 $40 $-1 $192 forward single #
loop $-1 $193 $194 $76 #
cone-surface $-1 61.698934421943008 21.390589877093589 1.2975861024798716 -0.55919291073839883 0 -0.82903756765294845 0.41451878382647422 0 -0.27959645536919941 1 I I -0.70710678118654746 0.70710678118654746 0.5 forward I I I I #
loop $-1 $-1 $195 $51 #
coedge $-1 $123 $123 $196 $197 reversed $77 $-1 #
face $-1 $198 $199 $41 $-1 $200 reversed single #
loop $-1 $-1 $201 $79 #
plane-surface $-1 -66.606036561174349 -16.319558902414382 1.1706516701348022 -0.69465837861970381 0 0.71933979245794832 0.71933979245794832 0 0.69465837861970381 forward_v I I I I #
coedge $-1 $202 $203 $204 $205 reversed $80 $-1 #
face $-1 $-1 $206 $42 $-1 $207 forward single #
loop $-1 $208 $209 $82 #
cone-surface $-1 -62.955993223617234 -18.75161550068508 2.5593013539993192 0.69465837861970381 0 -0.71933979245794832 0.35966989622897416 0 0.3473291893098519 1 I I -0.70710678118654746 0.70710678118654746 0.5 forward I I I I #
loop $-1 $-1 $210 $53 #
coedge $-1 $132 $132 $211 $212 reversed $83 $-1 #
face $-1 $-1 $213 $43 $-1 $214 forward single #
loop $-1 $215 $216 $85 #
cone-surface $-1 -62.955993223617234 -13.887502304143688 2.5593013539993192 0.69465837861970381 0 -0.71933979245794832 0.35966989622897416 0 0.3473291893098519 1 I I -0.70710678118654746 0.70710678118654746 0.5 forward I I I I #
loop $-1 $-1 $217 $54 #
coedge $-1 $137 $137 $218 $219 reversed $86 $-1 #
face $-1 $220 $221 $33 $-1 $222 reversed single #
loop $-1 $-1 $223 $88 #
plane-surface $-1 0 -27.813869407336796 0 0 1 0 0 0 1 forward_v I I I I #
coedge $-1 $224 $225 $226 $227 forward $89 $-1 #
coedge $-1 $228 $91 $229 $230 forward $56 $-1 #
coedge $-1 $91 $228 $231 $232 forward $56 $-1 #
coedge $-1 $233 $234 $91 $145 reversed $235 $-1 #
edge $-1 $236 -27.813869407336796 $237 27.813869407336796 $144 $238 forward 7 unknown #
face $-1 $239 $240 $34 $-1 $241 reversed single #
loop $-1 $-1 $242 $92 #
plane-surface $-1 0 0 -6.1586580430918731 0 0 1 1 0 0 forward_v I I I I #
coedge $-1 $243 $244 $245 $246 reversed $93 $-1 #
coedge $-1 $247 $95 $244 $248 forward $59 $-1 #
coedge $-1 $95 $247 $249 $250 reversed $59 $-1 #
coedge $-1 $251 $245 $95 $153 forward $240 $-1 #
edge $-1 $252 9.5423008719503066 $253 15.361812647574428 $152 $254 forward 7 unknown #
face $-1 $255 $256 $35 $-1 $257 reversed single #
loop $-1 $-1 $258 $96 #
plane-surface $-1 30.659470392598266 -18.509845026173579 187.05761397774 0 1 0 0.55919291073839883 0 0.82903756765294845 forward_v I I I I #
coedge $-1 $259 $260 $261 $262 reversed $97 $-1 #
coedge $-1 $159 $99 $263 $264 reversed $62 $-1 #
coedge $-1 $99 $158 $259 $265 reversed $62 $-1 #
coedge $-1 $261 $266 $99 $161 forward $267 $-1 #
edge $-1 $268 -51.276301364875216 $269 -45.301426494278637 $160 $270 forward 7 unknown #
loop $-1 $-1 $167 $100 #
plane-surface $-1 -43.831776522184327 -13.367002907941394 76.619800894381328 0.55919291073839883 0 0.82903756765294845 0.82903756765294845 0 -0.55919291073839883 forward_v I I I I #
loop $-1 $-1 $271 $64 #
coedge $-1 $165 $165 $166 $272 reversed $101 $-1 #
coedge $-1 $166 $166 $165 $272 forward $103 $-1 #
coedge $-1 $167 $167 $104 $168 forward $162 $-1 #
edge $-1 $273 0 $273 6.2831853071796004 $167 $274 forward 7 unknown #
loop $-1 $-1 $174 $105 #
plane-surface $-1 -43.831776522184327 -13.367002907941394 76.619800894381328 0.55919291073839883 0 0.82903756765294845 0.82903756765294845 0 -0.55919291073839883 forward_v I I I I #
loop $-1 $-1 $275 $67 #
coedge $-1 $172 $172 $173 $276 reversed $106 $-1 #
coedge $-1 $173 $173 $172 $276 forward $108 $-1 #
coedge $-1 $174 $174 $109 $175 forward $169 $-1 #
edge $-1 $277 0 $277 6.2831853071796004 $174 $278 forward 7 unknown #
face $-1 $279 $280 $38 $-1 $281 reversed single #
loop $-1 $-1 $282 $110 #
plane-surface $-1 30.659470392598266 14.043672565333335 187.05761397774 0 1 0 0.55919291073839883 0 0.82903756765294845 forward_v I I I I #
coedge $-1 $283 $284 $285 $286 reversed $111 $-1 #
coedge $-1 $181 $113 $287 $288 reversed $71 $-1 #
coedge $-1 $113 $180 $283 $289 reversed $71 $-1 #
coedge $-1 $285 $290 $113 $183 forward $291 $-1 #
edge $-1 $292 -51.276301364875216 $293 -45.301426494278637 $182 $294 forward 7 unknown #
loop $-1 $-1 $189 $114 #
plane-surface $-1 -43.831776522184327 19.18651468356552 76.619800894381328 0.55919291073839883 0 0.82903756765294845 0.82903756765294845 0 -0.55919291073839883 forward_v I I I I #
loop $-1 $-1 $295 $73 #
coedge $-1 $187 $187 $188 $296 reversed $115 $-1 #
coedge $-1 $188 $188 $187 $296 forward $117 $-1 #
coedge $-1 $189 $189 $118 $190 forward $184 $-1 #
edge $-1 $297 0 $297 6.2831853071796004 $189 $298 forward 7 unknown #
loop $-1 $-1 $196 $119 #
plane-surface $-1 -43.831776522184327 19.18651468356552 76.619800894381328 0.55919291073839883 0 0.82903756765294845 0.82903756765294845 0 -0.55919291073839883 forward_v I I I I #
loop $-1 $-1 $299 $76 #
coedge $-1 $194 $194 $195 $300 reversed $120 $-1 #
coedge $-1 $195 $195 $194 $300 forward $122 $-1 #
coedge $-1 $196 $196 $123 $197 forward $191 $-1 #
edge $-1 $301 0 $301 6.2831853071796004 $196 $302 forward 7 unknown #
face $-1 $303 $304 $41 $-1 $305 forward single #
loop $-1 $-1 $306 $124 #
plane-surface $-1 -159.14291928891453 -10.64476017311609 96.995396702858145 0 -1 0 0.69465837861970381 0 -0.71933979245794832 forward_v I I I I #
coedge $-1 $307 $308 $309 $310 reversed $125 $-1 #
coedge $-1 $203 $127 $311 $312 reversed $80 $-1 #
coedge $-1 $127 $202 $307 $313 reversed $80 $-1 #
coedge $-1 $309 $314 $127 $205 forward $304 $-1 #
edge $-1 $315 12.965423083282914 $316 18.130654770592884 $204 $317 forward 7 unknown #
loop $-1 $-1 $211 $128 #
plane-surface $-1 -66.606036561174349 -16.319558902414382 1.1706516701348022 -0.69465837861970381 0 0.71933979245794832 0.71933979245794832 0 0.69465837861970381 forward_v I I I I #
loop $-1 $-1 $318 $82 #
coedge $-1 $209 $209 $210 $319 reversed $129 $-1 #
coedge $-1 $210 $210 $209 $319 forward $131 $-1 #
coedge $-1 $211 $211 $132 $212 forward $206 $-1 #
edge $-1 $320 0 $320 6.2831853071796004 $211 $321 forward 7 unknown #
loop $-1 $-1 $218 $133 #
plane-surface $-1 -66.606036561174349 -16.319558902414382 1.1706516701348022 -0.69465837861970381 0 0.71933979245794832 0.71933979245794832 0 0.69465837861970381 forward_v I I I I #
loop $-1 $-1 $322 $85 #
coedge $-1 $216 $216 $217 $323 reversed $134 $-1 #
coedge $-1 $217 $217 $216 $323 forward $136 $-1 #
coedge $-1 $218 $218 $137 $219 forward $213 $-1 #
edge $-1 $324 0 $324 6.2831853071796004 $218 $325 forward 7 unknown #
face $-1 $326 $327 $33 $-1 $328 reversed single #
loop $-1 $-1 $329 $138 #
plane-surface $-1 -66.606036561174349 0 0 1 0 0 0 0 -1 forward_v I I I I #
coedge $-1 $330 $231 $331 $332 forward $139 $-1 #
coedge $-1 $333 $141 $330 $334 forward $89 $-1 #
coedge $-1 $141 $333 $335 $336 forward $89 $-1 #
coedge $-1 $234 $233 $141 $227 reversed $235 $-1 #
edge $-1 $337 -27.813869407336796 $338 27.813869407336796 $226 $339 forward 7 unknown #
coedge $-1 $143 $142 $340 $341 forward $56 $-1 #
coedge $-1 $342 $343 $142 $230 reversed $327 $-1 #
edge $-1 $237 -66.606036561174349 $344 66.606036561174349 $229 $345 forward 7 unknown #
coedge $-1 $223 $346 $143 $232 reversed $139 $-1 #
edge $-1 $347 -66.606036561174349 $236 66.606036561174349 $231 $348 forward 7 unknown #
coedge $-1 $226 $144 $346 $349 forward $235 $-1 #
coedge $-1 $144 $226 $342 $350 reversed $235 $-1 #
loop $-1 $-1 $233 $326 #
vertex $-1 $145 $351 #
vertex $-1 $145 $352 #
straight-curve $-1 66.606036561174349 0 6.1586580430918731 0 1 0 I I #
face $-1 $353 $354 $34 $-1 $355 reversed single #
loop $-1 $-1 $245 $146 #
plane-surface $-1 66.606036561174349 0 0 -1 0 0 0 0 1 forward_v I I I I #
coedge $-1 $356 $357 $243 $358 forward $147 $-1 #
coedge $-1 $359 $149 $242 $358 reversed $93 $-1 #
coedge $-1 $149 $359 $150 $248 reversed $93 $-1 #
coedge $-1 $152 $360 $149 $246 forward $240 $-1 #
edge $-1 $361 -3.9397123642675624 $252 -0.49817899338105898 $245 $362 forward 7 unknown #
coedge $-1 $151 $150 $363 $364 reversed $59 $-1 #
edge $-1 $252 -66.606036561174349 $365 66.606036561174349 $244 $366 forward 7 unknown #
coedge $-1 $367 $368 $151 $250 forward $354 $-1 #
edge $-1 $253 -66.606036561174349 $369 66.606036561174349 $249 $370 forward 7 unknown #
coedge $-1 $360 $152 $368 $371 forward $240 $-1 #
vertex $-1 $153 $372 #
vertex $-1 $371 $373 #
straight-curve $-1 66.606036561174349 -12.452056759762367 -2.7171246722053697 0 -1 0 I I #
face $-1 $-1 $267 $35 $-1 $374 forward single #
loop $-1 $-1 $375 $154 #
plane-surface $-1 66.606036561174349 0 0 -1 0 0 0 0 1 forward_v I I I I #
coedge $-1 $376 $377 $378 $379 reversed $155 $-1 #
coedge $-1 $380 $157 $159 $265 forward $97 $-1 #
coedge $-1 $157 $380 $376 $381 forward $97 $-1 #
coedge $-1 $378 $160 $157 $262 forward $267 $-1 #
edge $-1 $269 1.5406593357385123 $382 11.826343572202882 $261 $383 forward 7 unknown #
coedge $-1 $384 $385 $158 $264 forward $256 $-1 #
edge $-1 $386 -91.400253009271268 $268 -87.370148945778126 $263 $387 forward 7 unknown #
edge $-1 $269 126.00507177075519 $386 133.2120731223487 $159 $388 forward 7 unknown #
coedge $-1 $160 $378 $384 $389 forward $267 $-1 #
loop $-1 $-1 $378 $255 #
vertex $-1 $264 $390 #
vertex $-1 $161 $391 #
straight-curve $-1 15.329735196299133 -8.2241607897092095 6.1586580430918758 -1 0 0 I I #
coedge $-1 $271 $271 $-1 $392 reversed $164 $-1 #
edge $-1 $393 0 $393 6.2831853071796004 $165 $394 forward 7 unknown #
vertex $-1 $168 $395 #
ellipse-curve $-1 63.618599125876067 -15.571078101469475 4.1436060113452857 0.55919291073839883 0 0.82903756765294845 0.82903756765294845 0 -0.55919291073839883 1 I I #
coedge $-1 $275 $275 $-1 $396 reversed $171 $-1 #
edge $-1 $397 0 $397 6.2831853071796004 $172 $398 forward 7 unknown #
vertex $-1 $175 $399 #
ellipse-curve $-1 63.618599125876067 -11.162927714413318 4.1436060113452857 0.55919291073839883 0 0.82903756765294845 0.82903756765294845 0 -0.55919291073839883 1 I I #
face $-1 $-1 $291 $38 $-1 $400 forward single #
loop $-1 $-1 $401 $176 #
plane-surface $-1 66.606036561174349 0 0 -1 0 0 0 0 1 forward_v I I I I #
coedge $-1 $402 $403 $404 $405 reversed $177 $-1 #
coedge $-1 $406 $179 $181 $289 forward $111 $-1 #
coedge $-1 $179 $406 $402 $407 forward $111 $-1 #
coedge $-1 $404 $182 $179 $286 forward $291 $-1 #
edge $-1 $293 -14.736099460014945 $408 -4.450415223550575 $285 $409 forward 7 unknown #
coedge $-1 $410 $411 $180 $288 forward $280 $-1 #
edge $-1 $412 -91.400253009271268 $292 -87.370148945778126 $287 $413 forward 7 unknown #
edge $-1 $293 126.00507177075519 $412 133.2120731223487 $181 $414 forward 7 unknown #
coedge $-1 $182 $404 $410 $415 forward $291 $-1 #
loop $-1 $-1 $404 $279 #
vertex $-1 $288 $416 #
vertex $-1 $183 $417 #
straight-curve $-1 15.329735196299133 24.329356801797704 6.1586580430918758 -1 0 0 I I #
coedge $-1 $295 $295 $-1 $418 reversed $186 $-1 #
edge $-1 $419 0 $419 6.2831853071796004 $187 $420 forward 7 unknown #
vertex $-1 $190 $421 #
ellipse-curve $-1 63.618599125876067 16.982439490037436 4.1436060113452857 0.55919291073839883 0 0.82903756765294845 0.82903756765294845 0 -0.55919291073839883 1 I I #
coedge $-1 $299 $299 $-1 $422 reversed $193 $-1 #
edge $-1 $423 0 $423 6.2831853071796004 $194 $424 forward 7 unknown #
vertex $-1 $197 $425 #
ellipse-curve $-1 63.618599125876067 21.390589877093589 4.1436060113452857 0.55919291073839883 0 0.82903756765294845 0.82903756765294845 0 -0.55919291073839883 1 I I #
face $-1 $-1 $426 $41 $-1 $427 reversed single #
loop $-1 $-1 $204 $198 #
plane-surface $-1 0 0 6.1586580430918731 0 0 1 1 0 0 forward_v I I I I #
coedge $-1 $428 $429 $430 $431 reversed $199 $-1 #
coedge $-1 $432 $201 $203 $313 forward $125 $-1 #
coedge $-1 $201 $432 $428 $433 forward $125 $-1 #
coedge $-1 $430 $204 $201 $310 forward $304 $-1 #
edge $-1 $316 -13.834578180505483 $434 -2.4849807219088991 $309 $435 forward 7 unknown #
coedge $-1 $436 $437 $202 $312 forward $426 $-1 #
edge $-1 $438 -47.32704668129427 $315 -42.339040308337196 $311 $439 forward 7 unknown #
edge $-1 $316 -7.1805171095298803 $438 0 $203 $440 forward 7 unknown #
coedge $-1 $204 $430 $436 $441 forward $304 $-1 #
vertex $-1 $312 $442 #
vertex $-1 $205 $443 #
straight-curve $-1 -79.571459644457263 -21.994357631712674 6.1586580430918758 1 0 0 I I #
coedge $-1 $318 $318 $-1 $444 reversed $208 $-1 #
edge $-1 $445 0 $445 6.2831853071796004 $209 $446 forward 7 unknown #
vertex $-1 $212 $447 #
ellipse-curve $-1 -64.023420717519357 -18.75161550068508 3.6646548566133381 -0.69465837861970381 0 0.71933979245794832 0.71933979245794832 0 0.69465837861970381 1 I I #
coedge $-1 $322 $322 $-1 $448 reversed $215 $-1 #
edge $-1 $449 0 $449 6.2831853071796004 $216 $450 forward 7 unknown #
vertex $-1 $219 $451 #
ellipse-curve $-1 -64.023420717519357 -13.887502304143688 3.6646548566133381 -0.69465837861970381 0 0.71933979245794832 0.71933979245794832 0 0.69465837861970381 1 I I #
face $-1 $-1 $235 $33 $-1 $452 reversed single #
loop $-1 $-1 $342 $220 #
plane-surface $-1 0 27.813869407336796 0 0 -1 0 0 0 -1 forward_v I I I I #
coedge $-1 $453 $340 $343 $454 forward $221 $-1 #
coedge $-1 $346 $223 $224 $334 reversed $139 $-1 #
coedge $-1 $340 $453 $223 $332 reversed $221 $-1 #
edge $-1 $347 -6.1586580430918731 $455 6.1586580430918731 $331 $456 forward 7 unknown #
coedge $-1 $225 $224 $453 $457 forward $89 $-1 #
edge $-1 $338 -66.606036561174349 $455 66.606036561174349 $330 $458 forward 7 unknown #
coedge $-1 $343 $342 $225 $336 reversed $327 $-1 #
edge $-1 $459 -66.606036561174349 $337 66.606036561174349 $335 $460 forward 7 unknown #
vertex $-1 $227 $461 #
vertex $-1 $349 $462 #
straight-curve $-1 66.606036561174349 0 -6.1586580430918731 0 -1 0 I I #
coedge $-1 $329 $331 $228 $341 reversed $221 $-1 #
edge $-1 $344 -27.813869407336796 $347 27.813869407336796 $340 $463 forward 7 unknown #
coedge $-1 $335 $229 $234 $350 forward $327 $-1 #
coedge $-1 $229 $335 $329 $454 reversed $327 $-1 #
vertex $-1 $230 $464 #
straight-curve $-1 0 27.813869407336796 6.1586580430918731 -1 0 0 I I #
coedge $-1 $231 $330 $233 $349 reversed $139 $-1 #
vertex $-1 $341 $465 #
straight-curve $-1 0 -27.813869407336796 6.1586580430918731 1 0 0 I I #
edge $-1 $236 -6.1586580430918731 $338 6.1586580430918731 $233 $466 forward 7 unknown #
edge $-1 $237 -6.1586580430918731 $337 6.1586580430918731 $234 $467 forward 7 unknown #
point $-1 66.606036561174349 -27.813869407336796 6.1586580430918731 #
point $-1 66.606036561174349 27.813869407336796 6.1586580430918731 #
face $-1 $-1 $468 $34 $-1 $469 reversed single #
loop $-1 $-1 $249 $239 #
plane-surface $-1 0 -27.813869407336796 0 0 1 0 0 0 1 forward_v I I I I #
coedge $-1 $470 $242 $360 $471 forward $147 $-1 #
coedge $-1 $242 $470 $472 $473 forward $147 $-1 #
edge $-1 $474 -66.606036561174349 $361 66.606036561174349 $242 $475 forward 7 unknown #
coedge $-1 $244 $243 $476 $477 reversed $93 $-1 #
coedge $-1 $245 $251 $356 $471 reversed $240 $-1 #
vertex $-1 $471 $478 #
straight-curve $-1 66.606036561174349 -21.994357631712674 -2.2189456788243107 0 0 1 I I #
coedge $-1 $476 $479 $247 $364 forward $468 $-1 #
edge $-1 $369 -15.361812647574428 $365 -9.5423008719503066 $363 $480 forward 7 unknown #
vertex $-1 $364 $481 #
straight-curve $-1 0 -21.994357631712674 -2.7171246722053697 -1 0 0 I I #
coedge $-1 $482 $249 $479 $483 forward $354 $-1 #
coedge $-1 $249 $482 $251 $371 reversed $354 $-1 #
vertex $-1 $483 $484 #
straight-curve $-1 0 -27.813869407336796 -2.7171246722053697 -1 0 0 I I #
edge $-1 $253 2.7171246722053697 $485 6.1586580430918731 $251 $486 forward 7 unknown #
point $-1 66.606036561174349 -21.994357631712674 -2.7171246722053697 #
point $-1 66.606036561174349 -27.813869407336796 -2.7171246722053697 #
plane-surface $-1 0 0 6.1586580430918731 0 0 1 1 0 0 forward_v I I I I #
coedge $-1 $385 $384 $377 $487 forward $256 $-1 #
coedge $-1 $377 $258 $260 $381 reversed $155 $-1 #
coedge $-1 $258 $376 $375 $487 reversed $155 $-1 #
coedge $-1 $266 $261 $258 $379 forward $267 $-1 #
edge $-1 $382 45.301426494278637 $488 51.276301364875216 $378 $489 forward 7 unknown #
coedge $-1 $260 $259 $385 $490 reversed $97 $-1 #
edge $-1 $491 -133.2120731223487 $382 -126.00507177075519 $376 $492 forward 7 unknown #
vertex $-1 $262 $493 #
straight-curve $-1 60.631161690577763 -6.6835014539706972 6.1586580430918758 0 -1 0 I I #
coedge $-1 $375 $263 $266 $389 reversed $256 $-1 #
coedge $-1 $263 $375 $380 $490 forward $256 $-1 #
vertex $-1 $264 $494 #
straight-curve $-1 66.606036561174349 -8.2241607897092095 93.528806988870002 0 0 1 I I #
straight-curve $-1 -43.831776522184327 -8.2241607897092095 76.619800894381328 0.82903756765294845 0 -0.55919291073839883 I I #
edge $-1 $488 -18.509845026173579 $268 -8.2241607897092095 $384 $495 forward 7 unknown #
point $-1 66.606036561174349 -8.2241607897092095 6.1586580430918731 #
point $-1 60.63116169057777 -8.2241607897092095 6.1586580430918758 #
edge $-1 $496 1 $496 0 $271 $-1 forward 7 unknown #
vertex $-1 $272 $497 #
ellipse-curve $-1 61.97853087731221 -15.571078101469475 1.7121048863063457 0.55919291073839883 0 0.82903756765294845 0.82903756765294845 0 -0.55919291073839883 1 I I #
point $-1 64.44763669352902 -15.571078101469475 3.584413100606898 #
edge $-1 $498 1 $498 0 $275 $-1 forward 7 unknown #
vertex $-1 $276 $499 #
ellipse-curve $-1 61.97853087731221 -11.162927714413318 1.7121048863063457 0.55919291073839883 0 0.82903756765294845 0.82903756765294845 0 -0.55919291073839883 1 I I #
point $-1 64.44763669352902 -11.162927714413318 3.584413100606898 #
plane-surface $-1 0 0 6.1586580430918731 0 0 1 1 0 0 forward_v I I I I #
coedge $-1 $411 $410 $403 $500 forward $280 $-1 #
coedge $-1 $403 $282 $284 $407 reversed $177 $-1 #
coedge $-1 $282 $402 $401 $500 reversed $177 $-1 #
coedge $-1 $290 $285 $282 $405 forward $291 $-1 #
edge $-1 $408 45.301426494278637 $501 51.276301364875216 $404 $502 forward 7 unknown #
coedge $-1 $284 $283 $411 $503 reversed $111 $-1 #
edge $-1 $504 -133.2120731223487 $408 -126.00507177075519 $402 $505 forward 7 unknown #
vertex $-1 $286 $506 #
straight-curve $-1 60.631161690577763 9.5932573417827598 6.1586580430918758 0 -1 0 I I #
coedge $-1 $401 $287 $290 $415 reversed $280 $-1 #
coedge $-1 $287 $401 $406 $503 forward $280 $-1 #
vertex $-1 $288 $507 #
straight-curve $-1 66.606036561174349 24.329356801797704 93.528806988870002 0 0 1 I I #
straight-curve $-1 -43.831776522184327 24.329356801797704 76.619800894381328 0.82903756765294845 0 -0.55919291073839883 I I #
edge $-1 $501 14.043672565333335 $292 24.329356801797704 $410 $508 forward 7 unknown #
point $-1 66.606036561174349 24.329356801797704 6.1586580430918731 #
point $-1 60.63116169057777 24.329356801797704 6.1586580430918758 #
edge $-1 $509 1 $509 0 $295 $-1 forward 7 unknown #
vertex $-1 $296 $510 #
ellipse-curve $-1 61.97853087731221 16.982439490037436 1.7121048863063457 0.55919291073839883 0 0.82903756765294845 0.82903756765294845 0 -0.55919291073839883 1 I I #
point $-1 64.44763669352902 16.982439490037436 3.584413100606898 #
edge $-1 $511 1 $511 0 $299 $-1 forward 7 unknown #
vertex $-1 $300 $512 #
ellipse-curve $-1 61.97853087731221 21.390589877093589 1.7121048863063457 0.55919291073839883 0 0.82903756765294845 0.82903756765294845 0 -0.55919291073839883 1 I I #
point $-1 64.44763669352902 21.390589877093589 3.584413100606898 #
loop $-1 $-1 $311 $303 #
plane-surface $-1 -66.606036561174349 0 0 1 0 0 0 0 -1 forward_v I I I I #
coedge $-1 $429 $306 $308 $433 reversed $199 $-1 #
coedge $-1 $306 $428 $513 $514 reversed $199 $-1 #
coedge $-1 $314 $309 $306 $431 forward $304 $-1 #
edge $-1 $434 -18.130654770592884 $515 -12.965423083282914 $430 $516 forward 7 unknown #
coedge $-1 $308 $307 $437 $517 reversed $125 $-1 #
edge $-1 $518 0 $434 7.1805171095298803 $428 $519 forward 7 unknown #
vertex $-1 $310 $520 #
straight-curve $-1 -61.44080487386438 -8.1597794512071911 6.158658043091874 0 1 0 I I #
coedge $-1 $513 $311 $314 $441 reversed $426 $-1 #
coedge $-1 $311 $513 $432 $517 forward $426 $-1 #
vertex $-1 $312 $521 #
straight-curve $-1 -66.606036561174349 -21.994357631712674 48.497698351429072 0 0 1 I I #
straight-curve $-1 -66.606036561174349 -21.994357631712674 1.1706516701348022 -0.71933979245794832 0 -0.69465837861970381 I I #
edge $-1 $515 10.64476017311609 $315 21.994357631712674 $436 $522 forward 7 unknown #
point $-1 -66.606036561174349 -21.994357631712674 6.1586580430918731 #
point $-1 -61.44080487386438 -21.994357631712674 6.1586580430918731 #
edge $-1 $523 1 $523 0 $318 $-1 forward 7 unknown #
vertex $-1 $319 $524 #
ellipse-curve $-1 -63.303322412927088 -18.75161550068508 2.9189712502282932 -0.69465837861970381 0 0.71933979245794832 0.71933979245794832 0 0.69465837861970381 1 I I #
point $-1 -63.304080925061427 -18.75161550068508 4.3593132352330537 #
edge $-1 $525 1 $525 0 $322 $-1 forward 7 unknown #
vertex $-1 $323 $526 #
ellipse-curve $-1 -63.303322412927088 -13.887502304143688 2.9189712502282932 -0.69465837861970381 0 0.71933979245794832 0.71933979245794832 0 0.69465837861970381 1 I I #
point $-1 -63.304080925061427 -13.887502304143688 4.3593132352330537 #
plane-surface $-1 66.606036561174349 0 0 -1 0 0 0 0 1 forward_v I I I I #
coedge $-1 $331 $329 $333 $457 reversed $221 $-1 #
edge $-1 $344 -6.1586580430918731 $459 6.1586580430918731 $343 $527 forward 7 unknown #
vertex $-1 $457 $528 #
straight-curve $-1 -66.606036561174349 -27.813869407336796 0 0 0 -1 I I #
edge $-1 $455 -27.813869407336796 $459 27.813869407336796 $453 $529 forward 7 unknown #
straight-curve $-1 0 -27.813869407336796 -6.1586580430918731 -1 0 0 I I #
vertex $-1 $336 $530 #
straight-curve $-1 0 27.813869407336796 -6.1586580430918731 1 0 0 I I #
point $-1 66.606036561174349 27.813869407336796 -6.1586580430918731 #
point $-1 66.606036561174349 -27.813869407336796 -6.1586580430918731 #
straight-curve $-1 -66.606036561174349 0 6.1586580430918731 0 -1 0 I I #
point $-1 -66.606036561174349 27.813869407336796 6.1586580430918731 #
point $-1 -66.606036561174349 -27.813869407336796 6.1586580430918731 #
straight-curve $-1 66.606036561174349 -27.813869407336796 0 0 0 -1 I I #
straight-curve $-1 66.606036561174349 27.813869407336796 0 0 0 -1 I I #
loop $-1 $-1 $476 $353 #
plane-surface $-1 -66.606036561174349 0 0 1 0 0 0 0 -1 forward_v I I I I #
coedge $-1 $357 $356 $482 $531 forward $147 $-1 #
edge $-1 $361 21.994357631712674 $485 27.813869407336796 $360 $532 forward 7 unknown #
coedge $-1 $479 $476 $357 $473 reversed $468 $-1 #
edge $-1 $533 -27.813869407336796 $474 -21.994357631712674 $472 $534 forward 7 unknown #
vertex $-1 $477 $535 #
straight-curve $-1 0 -21.994357631712674 -6.1586580430918731 1 0 0 I I #
coedge $-1 $472 $363 $359 $477 forward $468 $-1 #
edge $-1 $365 0.49817899338105898 $474 3.9397123642675624 $476 $536 forward 7 unknown #
point $-1 66.606036561174349 -21.994357631712674 -6.1586580430918731 #
coedge $-1 $363 $472 $367 $483 reversed $468 $-1 #
straight-curve $-1 -66.606036561174349 -12.452056759762367 -2.7171246722053697 0 1 0 I I #
point $-1 -66.606036561174349 -21.994357631712674 -2.7171246722053697 #
coedge $-1 $368 $367 $470 $531 reversed $354 $-1 #
edge $-1 $369 2.7171246722053697 $533 6.1586580430918731 $479 $537 forward 7 unknown #
point $-1 -66.606036561174349 -27.813869407336796 -2.7171246722053697 #
vertex $-1 $371 $538 #
straight-curve $-1 66.606036561174349 -27.813869407336796 0 0 0 -1 I I #
edge $-1 $488 87.370148945778126 $491 91.400253009271268 $375 $539 forward 7 unknown #
vertex $-1 $389 $540 #
straight-curve $-1 15.329735196299133 -18.509845026173579 6.1586580430918758 1 0 0 I I #
edge $-1 $491 -11.826343572202882 $386 -1.5406593357385123 $385 $541 forward 7 unknown #
vertex $-1 $490 $542 #
straight-curve $-1 -43.831776522184327 -18.509845026173579 76.619800894381328 -0.82903756765294845 0 0.55919291073839883 I I #
point $-1 60.63116169057777 -18.509845026173579 6.1586580430918758 #
point $-1 66.606036561174349 -8.2241607897092095 2.1285539795987347 #
straight-curve $-1 66.606036561174349 0 6.1586580430918731 0 1 0 I I #
vertex $-1 $392 $543 #
point $-1 62.807568444965156 -15.571078101469475 1.1529119755679469 #
vertex $-1 $396 $544 #
point $-1 62.807568444965156 -11.162927714413318 1.1529119755679469 #
edge $-1 $501 87.370148945778126 $504 91.400253009271268 $401 $545 forward 7 unknown #
vertex $-1 $415 $546 #
straight-curve $-1 15.329735196299133 14.043672565333335 6.1586580430918758 1 0 0 I I #
edge $-1 $504 4.450415223550575 $412 14.736099460014945 $411 $547 forward 7 unknown #
vertex $-1 $503 $548 #
straight-curve $-1 -43.831776522184327 14.043672565333335 76.619800894381328 -0.82903756765294845 0 0.55919291073839883 I I #
point $-1 60.63116169057777 14.043672565333335 6.1586580430918758 #
point $-1 66.606036561174349 24.329356801797704 2.1285539795987347 #
straight-curve $-1 66.606036561174349 0 6.1586580430918731 0 1 0 I I #
vertex $-1 $418 $549 #
point $-1 62.807568444965156 16.982439490037436 1.1529119755679469 #
vertex $-1 $422 $550 #
point $-1 62.807568444965156 21.390589877093589 1.1529119755679469 #
coedge $-1 $437 $436 $429 $514 forward $426 $-1 #
edge $-1 $515 42.339040308337196 $518 47.32704668129427 $513 $551 forward 7 unknown #
vertex $-1 $441 $552 #
straight-curve $-1 -79.571459644457263 -10.64476017311609 6.1586580430918758 -1 0 0 I I #
edge $-1 $518 2.4849807219088991 $438 13.834578180505483 $437 $553 forward 7 unknown #
vertex $-1 $517 $554 #
straight-curve $-1 -66.606036561174349 -10.64476017311609 1.1706516701348022 0.71933979245794832 0 0.69465837861970381 I I #
point $-1 -61.44080487386438 -10.64476017311609 6.1586580430918731 #
point $-1 -66.606036561174349 -21.994357631712674 1.1706516701348022 #
straight-curve $-1 -66.606036561174349 0 6.1586580430918731 0 -1 0 I I #
vertex $-1 $444 $555 #
point $-1 -62.583982620469136 -18.75161550068508 3.6136296288479972 #
vertex $-1 $448 $556 #
point $-1 -62.583982620469136 -13.887502304143688 3.6136296288479972 #
straight-curve $-1 -66.606036561174349 27.813869407336796 0 0 0 -1 I I #
point $-1 -66.606036561174349 -27.813869407336796 -6.1586580430918731 #
straight-curve $-1 -66.606036561174349 0 -6.1586580430918731 0 1 0 I I #
point $-1 -66.606036561174349 27.813869407336796 -6.1586580430918731 #
edge $-1 $485 -66.606036561174349 $533 66.606036561174349 $482 $557 forward 7 unknown #
straight-curve $-1 66.606036561174349 0 -6.1586580430918731 0 -1 0 I I #
vertex $-1 $473 $558 #
straight-curve $-1 -66.606036561174349 0 -6.1586580430918731 0 1 0 I I #
point $-1 -66.606036561174349 -21.994357631712674 -6.1586580430918731 #
straight-curve $-1 -66.606036561174349 -21.994357631712674 -2.2189456788243107 0 0 -1 I I #
straight-curve $-1 -66.606036561174349 -27.813869407336796 0 0 0 -1 I I #
point $-1 66.606036561174349 -27.813869407336796 -6.1586580430918731 #
straight-curve $-1 66.606036561174349 -18.509845026173579 93.528806988870002 0 0 -1 I I #
point $-1 66.606036561174349 -18.509845026173579 6.1586580430918731 #
straight-curve $-1 66.606036561174349 -6.6835014539706972 2.1285539795987276 0 1 0 I I #
point $-1 66.606036561174349 -18.509845026173579 2.1285539795987347 #
point $-1 61.419337966573806 -15.571078101469475 0.88306731865339738 #
point $-1 61.419337966573806 -11.162927714413318 0.88306731865339738 #
straight-curve $-1 66.606036561174349 14.043672565333335 93.528806988870002 0 0 -1 I I #
point $-1 66.606036561174349 14.043672565333335 6.1586580430918731 #
straight-curve $-1 66.606036561174349 9.5932573417827598 2.1285539795987276 0 1 0 I I #
point $-1 66.606036561174349 14.043672565333335 2.1285539795987347 #
point $-1 61.419337966573806 16.982439490037436 0.88306731865339738 #
point $-1 61.419337966573806 21.390589877093589 0.88306731865339738 #
straight-curve $-1 -66.606036561174349 -10.64476017311609 48.497698351429072 0 0 -1 I I #
point $-1 -66.606036561174349 -10.64476017311609 6.1586580430918731 #
straight-curve $-1 -66.606036561174349 -8.1597794512071911 1.1706516701348075 0 -1 0 I I #
point $-1 -66.606036561174349 -10.64476017311609 1.1706516701348022 #
point $-1 -62.608664034307381 -18.75161550068508 2.1996314577703453 #
point $-1 -62.608664034307381 -13.887502304143688 2.1996314577703453 #
straight-curve $-1 0 -27.813869407336796 -6.1586580430918731 -1 0 0 I I #
point $-1 -66.606036561174349 -27.813869407336796 -6.1586580430918731 #
End-of-ACIS-data 