500 0 14 0           
7 Unknown 11 ACIS 5.0 NT 24 Fri Mar 26 19:36:42 1999 
-1 9.9999999999999995e-007 1e-010 
body $-1 $14 $-1 $15 #
body $-1 $16 $-1 $17 #
body $-1 $18 $-1 $19 #
body $-1 $20 $-1 $21 #
body $-1 $22 $-1 $23 #
body $-1 $24 $-1 $25 #
body $-1 $26 $-1 $27 #
body $-1 $28 $-1 $29 #
body $-1 $30 $-1 $31 #
body $-1 $32 $-1 $33 #
body $-1 $34 $-1 $35 #
body $-1 $36 $-1 $37 #
body $-1 $38 $-1 $39 #
body $-1 $40 $-1 $41 #
lump $-1 $-1 $42 $0 #
transform $-1 1 0 0 0 1 0 0 0 1 75.677358317819753 31.824353502138298 15.581472311618541 1 rotate no_reflect no_shear #
lump $-1 $-1 $43 $1 #
transform $-1 1 0 0 0 1 0 0 0 1 75.677358317819753 31.824353502138298 15.581472311618541 1 rotate no_reflect no_shear #
lump $-1 $-1 $44 $2 #
transform $-1 1 0 0 0 1 0 0 0 1 75.677358317819753 31.824353502138298 15.581472311618541 1 rotate no_reflect no_shear #
lump $-1 $-1 $45 $3 #
transform $-1 1 0 0 0 1 0 0 0 1 75.677358317819753 31.824353502138298 15.581472311618541 1 rotate no_reflect no_shear #
lump $-1 $-1 $46 $4 #
transform $-1 1 0 0 0 1 0 0 0 1 75.677358317819753 31.824353502138298 15.581472311618541 1 rotate no_reflect no_shear #
lump $-1 $-1 $47 $5 #
transform $-1 1 0 0 0 1 0 0 0 1 75.677358317819753 31.824353502138298 15.581472311618541 1 rotate no_reflect no_shear #
lump $-1 $-1 $48 $6 #
transform $-1 1 0 0 0 1 0 0 0 1 75.677358317819753 31.824353502138298 15.581472311618541 1 rotate no_reflect no_shear #
lump $-1 $-1 $49 $7 #
transform $-1 1 0 0 0 1 0 0 0 1 75.677358317819753 31.824353502138298 15.581472311618541 1 rotate no_reflect no_shear #
lump $-1 $-1 $50 $8 #
transform $-1 1 0 0 0 1 0 0 0 1 75.677358317819753 31.824353502138298 15.581472311618541 1 rotate no_reflect no_shear #
lump $-1 $-1 $51 $9 #
transform $-1 1 0 0 0 1 0 0 0 1 75.677358317819753 31.824353502138298 15.581472311618541 1 rotate no_reflect no_shear #
lump $-1 $-1 $52 $10 #
transform $-1 1 0 0 0 1 0 0 0 1 75.677358317819753 31.824353502138298 15.581472311618541 1 rotate no_reflect no_shear #
lump $-1 $-1 $53 $11 #
transform $-1 1 0 0 0 1 0 0 0 1 75.677358317819753 31.824353502138298 15.581472311618541 1 rotate no_reflect no_shear #
lump $-1 $-1 $54 $12 #
transform $-1 1 0 0 0 1 0 0 0 1 75.677358317819753 31.824353502138298 15.581472311618541 1 rotate no_reflect no_shear #
lump $-1 $-1 $55 $13 #
transform $-1 1 0 0 0 1 0 0 0 1 75.677358317819753 31.824353502138298 15.581472311618541 1 rotate no_reflect no_shear #
shell $-1 $-1 $-1 $56 $-1 $14 #
shell $-1 $-1 $-1 $57 $-1 $16 #
shell $-1 $-1 $-1 $58 $-1 $18 #
shell $-1 $-1 $-1 $59 $-1 $20 #
shell $-1 $-1 $-1 $60 $-1 $22 #
shell $-1 $-1 $-1 $61 $-1 $24 #
shell $-1 $-1 $-1 $62 $-1 $26 #
shell $-1 $-1 $-1 $63 $-1 $28 #
shell $-1 $-1 $-1 $64 $-1 $30 #
shell $-1 $-1 $-1 $65 $-1 $32 #
shell $-1 $-1 $-1 $66 $-1 $34 #
shell $-1 $-1 $-1 $67 $-1 $36 #
shell $-1 $-1 $-1 $68 $-1 $38 #
shell $-1 $-1 $-1 $69 $-1 $40 #
face $-1 $70 $71 $42 $-1 $72 forward single #
face $-1 $73 $74 $43 $-1 $75 forward single #
face $-1 $76 $77 $44 $-1 $78 reversed single #
face $-1 $79 $80 $45 $-1 $81 forward single #
face $-1 $82 $83 $46 $-1 $84 forward single #
face $-1 $85 $86 $47 $-1 $87 reversed single #
face $-1 $88 $89 $48 $-1 $90 forward single #
face $-1 $91 $92 $49 $-1 $93 forward single #
face $-1 $94 $95 $50 $-1 $96 reversed single #
face $-1 $97 $98 $51 $-1 $99 forward single #
face $-1 $100 $101 $52 $-1 $102 forward single #
face $-1 $103 $104 $53 $-1 $105 reversed single #
face $-1 $106 $107 $54 $-1 $108 forward single #
face $-1 $109 $110 $55 $-1 $111 forward single #
face $-1 $112 $113 $42 $-1 $114 reversed single #
loop $-1 $-1 $115 $56 #
plane-surface $-1 0 0 15.581472311618541 0 0 1 1 0 0 forward_v I I I I #
face $-1 $116 $117 $43 $-1 $118 reversed single #
loop $-1 $-1 $119 $57 #
plane-surface $-1 -75.677358317819753 0 0 1 0 0 0 0 -1 forward_v I I I I #
face $-1 $120 $121 $44 $-1 $122 reversed single #
loop $-1 $-1 $123 $58 #
plane-surface $-1 -59.82549586684538 96.485719847746637 151.6697657377679 1 0 0 0 -0.71933980857756763 -0.69465836192734942 forward_v I I I I #
face $-1 $124 $125 $45 $-1 $126 forward single #
loop $-1 $127 $128 $59 #
cone-surface $-1 -54.360088906986718 23.722971041317464 7.2577302608467278 0 -0.71933980857756763 -0.69465836192734942 1.5 0 0 1 I I 0 1 1.5 forward I I I I #
face $-1 $129 $130 $46 $-1 $131 forward single #
loop $-1 $132 $133 $60 #
cone-surface $-1 -46.161978467198729 23.722971041317464 7.2577302608467278 0 -0.71933980857756763 -0.69465836192734942 1.5 0 0 1 I I 0 1 1.5 forward I I I I #
face $-1 $134 $135 $47 $-1 $136 reversed single #
loop $-1 $-1 $137 $61 #
plane-surface $-1 -22.659958269536077 96.485719847746637 151.6697657377679 1 0 0 0 -0.71933980857756763 -0.69465836192734942 forward_v I I I I #
face $-1 $138 $139 $48 $-1 $140 forward single #
loop $-1 $141 $142 $62 #
cone-surface $-1 -17.194551309677415 23.722971041317464 7.2577302608467278 0 -0.71933980857756763 -0.69465836192734942 1.5 0 0 1 I I 0 1 1.5 forward I I I I #
face $-1 $143 $144 $49 $-1 $145 forward single #
loop $-1 $146 $147 $63 #
cone-surface $-1 -8.996440869889426 23.722971041317464 7.2577302608467278 0 -0.71933980857756763 -0.69465836192734942 1.5 0 0 1 I I 0 1 1.5 forward I I I I #
face $-1 $148 $149 $50 $-1 $150 reversed single #
loop $-1 $-1 $151 $64 #
plane-surface $-1 14.505579327773233 96.485719847746637 151.6697657377679 1 0 0 0 -0.71933980857756763 -0.69465836192734942 forward_v I I I I #
face $-1 $152 $153 $51 $-1 $154 forward single #
loop $-1 $155 $156 $65 #
cone-surface $-1 19.970986287631888 23.722971041317464 7.2577302608467278 0 -0.71933980857756763 -0.69465836192734942 1.5 0 0 1 I I 0 1 1.5 forward I I I I #
face $-1 $157 $158 $52 $-1 $159 forward single #
loop $-1 $160 $161 $66 #
cone-surface $-1 28.16909672741987 23.722971041317464 7.2577302608467278 0 -0.71933980857756763 -0.69465836192734942 1.5 0 0 1 I I 0 1 1.5 forward I I I I #
face $-1 $162 $163 $53 $-1 $164 reversed single #
loop $-1 $-1 $165 $67 #
plane-surface $-1 51.671116925082544 96.485719847746637 151.6697657377679 1 0 0 0 -0.71933980857756763 -0.69465836192734942 forward_v I I I I #
face $-1 $166 $167 $54 $-1 $168 forward single #
loop $-1 $169 $170 $68 #
cone-surface $-1 57.136523884941184 23.722971041317464 7.2577302608467278 0 -0.71933980857756763 -0.69465836192734942 1.5 0 0 1 I I 0 1 1.5 forward I I I I #
face $-1 $171 $172 $55 $-1 $173 forward single #
loop $-1 $174 $175 $69 #
cone-surface $-1 65.33463432472918 23.722971041317464 7.2577302608467278 0 -0.71933980857756763 -0.69465836192734942 1.5 0 0 1 I I 0 1 1.5 forward I I I I #
face $-1 $176 $177 $42 $-1 $178 reversed single #
loop $-1 $-1 $179 $70 #
plane-surface $-1 0 0 -15.581472311618541 0 0 1 1 0 0 forward_v I I I I #
coedge $-1 $180 $181 $182 $183 forward $71 $-1 #
face $-1 $184 $185 $43 $-1 $186 reversed single #
loop $-1 $-1 $187 $73 #
plane-surface $-1 0 31.824353502138298 0 0 -1 0 0 0 -1 forward_v I I I I #
coedge $-1 $188 $189 $190 $191 forward $74 $-1 #
face $-1 $192 $193 $44 $-1 $194 reversed single #
loop $-1 $-1 $195 $76 #
plane-surface $-1 -50.261033687092727 -12.389753044246277 46.529946209676424 0 0.71933980857756763 0.69465836192734942 1 0 0 forward_v I I I I #
coedge $-1 $196 $197 $198 $199 reversed $77 $-1 #
face $-1 $-1 $200 $45 $-1 $201 forward single #
loop $-1 $202 $203 $79 #
cone-surface $-1 -54.360088906986718 22.245840431556243 5.8312818459334714 0 -0.71933980857756763 -0.69465836192734942 0.75 0 0 1 I I -0.70710678118654757 0.70710678118654757 0.75 forward I I I I #
loop $-1 $-1 $204 $59 #
coedge $-1 $128 $128 $205 $206 reversed $80 $-1 #
face $-1 $-1 $207 $46 $-1 $208 forward single #
loop $-1 $209 $210 $82 #
cone-surface $-1 -46.161978467198729 22.245840431556243 5.8312818459334714 0 -0.71933980857756763 -0.69465836192734942 0.75 0 0 1 I I -0.70710678118654757 0.70710678118654757 0.75 forward I I I I #
loop $-1 $-1 $211 $60 #
coedge $-1 $133 $133 $212 $213 reversed $83 $-1 #
face $-1 $214 $215 $47 $-1 $216 reversed single #
loop $-1 $-1 $217 $85 #
plane-surface $-1 -13.095496089783424 -12.389753044246277 46.529946209676424 0 0.71933980857756763 0.69465836192734942 1 0 0 forward_v I I I I #
coedge $-1 $218 $219 $220 $221 reversed $86 $-1 #
face $-1 $-1 $222 $48 $-1 $223 forward single #
loop $-1 $224 $225 $88 #
cone-surface $-1 -17.194551309677415 22.245840431556243 5.8312818459334714 0 -0.71933980857756763 -0.69465836192734942 0.75 0 0 1 I I -0.70710678118654757 0.70710678118654757 0.75 forward I I I I #
loop $-1 $-1 $226 $62 #
coedge $-1 $142 $142 $227 $228 reversed $89 $-1 #
face $-1 $-1 $229 $49 $-1 $230 forward single #
loop $-1 $231 $232 $91 #
cone-surface $-1 -8.996440869889426 22.245840431556243 5.8312818459334714 0 -0.71933980857756763 -0.69465836192734942 0.75 0 0 1 I I -0.70710678118654757 0.70710678118654757 0.75 forward I I I I #
loop $-1 $-1 $233 $63 #
coedge $-1 $147 $147 $234 $235 reversed $92 $-1 #
face $-1 $236 $237 $50 $-1 $238 reversed single #
loop $-1 $-1 $239 $94 #
plane-surface $-1 24.070041507525886 -12.389753044246277 46.529946209676424 0 0.71933980857756763 0.69465836192734942 1 0 0 forward_v I I I I #
coedge $-1 $240 $241 $242 $243 reversed $95 $-1 #
face $-1 $-1 $244 $51 $-1 $245 forward single #
loop $-1 $246 $247 $97 #
cone-surface $-1 19.970986287631888 22.245840431556243 5.8312818459334714 0 -0.71933980857756763 -0.69465836192734942 0.75 0 0 1 I I -0.70710678118654757 0.70710678118654757 0.75 forward I I I I #
loop $-1 $-1 $248 $65 #
coedge $-1 $156 $156 $249 $250 reversed $98 $-1 #
face $-1 $-1 $251 $52 $-1 $252 forward single #
loop $-1 $253 $254 $100 #
cone-surface $-1 28.16909672741987 22.245840431556243 5.8312818459334714 0 -0.71933980857756763 -0.69465836192734942 0.75 0 0 1 I I -0.70710678118654757 0.70710678118654757 0.75 forward I I I I #
loop $-1 $-1 $255 $66 #
coedge $-1 $161 $161 $256 $257 reversed $101 $-1 #
face $-1 $258 $259 $53 $-1 $260 reversed single #
loop $-1 $-1 $261 $103 #
plane-surface $-1 61.235579104835196 -12.389753044246277 46.529946209676424 0 0.71933980857756763 0.69465836192734942 1 0 0 forward_v I I I I #
coedge $-1 $262 $263 $264 $265 reversed $104 $-1 #
face $-1 $-1 $266 $54 $-1 $267 forward single #
loop $-1 $268 $269 $106 #
cone-surface $-1 57.136523884941184 22.245840431556243 5.8312818459334714 0 -0.71933980857756763 -0.69465836192734942 0.75 0 0 1 I I -0.70710678118654757 0.70710678118654757 0.75 forward I I I I #
loop $-1 $-1 $270 $68 #
coedge $-1 $170 $170 $271 $272 reversed $107 $-1 #
face $-1 $-1 $273 $55 $-1 $274 forward single #
loop $-1 $275 $276 $109 #
cone-surface $-1 65.33463432472918 22.245840431556243 5.8312818459334714 0 -0.71933980857756763 -0.69465836192734942 0.75 0 0 1 I I -0.70710678118654757 0.70710678118654757 0.75 forward I I I I #
loop $-1 $-1 $277 $69 #
coedge $-1 $175 $175 $278 $279 reversed $110 $-1 #
face $-1 $280 $281 $42 $-1 $282 reversed single #
loop $-1 $-1 $283 $112 #
plane-surface $-1 0 -31.824353502138298 0 0 1 0 0 0 1 forward_v I I I I #
coedge $-1 $284 $285 $286 $287 forward $113 $-1 #
coedge $-1 $288 $115 $289 $290 forward $71 $-1 #
coedge $-1 $115 $288 $291 $292 forward $71 $-1 #
coedge $-1 $293 $294 $115 $183 reversed $295 $-1 #
edge $-1 $296 -31.824353502138298 $297 31.824353502138298 $182 $298 forward 7 unknown #
face $-1 $299 $300 $43 $-1 $301 reversed single #
loop $-1 $-1 $190 $116 #
plane-surface $-1 -81.164631026690984 0 7.5220179331066834 0 0 1 1 0 0 forward_v I I I I #
coedge $-1 $302 $303 $188 $304 forward $117 $-1 #
coedge $-1 $305 $119 $187 $304 reversed $74 $-1 #
coedge $-1 $119 $305 $306 $307 reversed $74 $-1 #
coedge $-1 $308 $309 $119 $191 reversed $185 $-1 #
edge $-1 $310 -31.824353502138298 $311 31.824353502138298 $190 $312 forward 7 unknown #
face $-1 $313 $314 $44 $-1 $315 forward single #
loop $-1 $-1 $316 $120 #
plane-surface $-1 -40.696571507340074 96.485719847746637 151.6697657377679 -1 0 0 0 0.71933980857756763 0.69465836192734942 forward_v I I I I #
coedge $-1 $317 $318 $319 $320 reversed $121 $-1 #
coedge $-1 $197 $123 $321 $322 reversed $77 $-1 #
coedge $-1 $123 $196 $317 $323 reversed $77 $-1 #
coedge $-1 $319 $324 $123 $199 forward $314 $-1 #
edge $-1 $325 16.418506421735021 $326 30.746019836720571 $198 $327 forward 7 unknown #
loop $-1 $-1 $205 $124 #
plane-surface $-1 -50.261033687092727 -12.389753044246277 46.529946209676424 0 0.71933980857756763 0.69465836192734942 1 0 0 forward_v I I I I #
loop $-1 $-1 $328 $79 #
coedge $-1 $203 $203 $204 $329 reversed $125 $-1 #
coedge $-1 $204 $204 $203 $329 forward $127 $-1 #
coedge $-1 $205 $205 $128 $206 forward $200 $-1 #
edge $-1 $330 1.7537222625362994e-016 $330 6.2831853071796004 $205 $331 forward 7 unknown #
loop $-1 $-1 $212 $129 #
plane-surface $-1 -50.261033687092727 -12.389753044246277 46.529946209676424 0 0.71933980857756763 0.69465836192734942 1 0 0 forward_v I I I I #
loop $-1 $-1 $332 $82 #
coedge $-1 $210 $210 $211 $333 reversed $130 $-1 #
coedge $-1 $211 $211 $210 $333 forward $132 $-1 #
coedge $-1 $212 $212 $133 $213 forward $207 $-1 #
edge $-1 $334 1.7537222625362994e-016 $334 6.2831853071796004 $212 $335 forward 7 unknown #
face $-1 $336 $337 $47 $-1 $338 forward single #
loop $-1 $-1 $339 $134 #
plane-surface $-1 -3.5310339100307715 96.485719847746637 151.6697657377679 -1 0 0 0 0.71933980857756763 0.69465836192734942 forward_v I I I I #
coedge $-1 $340 $341 $342 $343 reversed $135 $-1 #
coedge $-1 $219 $137 $344 $345 reversed $86 $-1 #
coedge $-1 $137 $218 $340 $346 reversed $86 $-1 #
coedge $-1 $342 $347 $137 $221 forward $337 $-1 #
edge $-1 $348 16.418506421735021 $349 30.746019836720571 $220 $350 forward 7 unknown #
loop $-1 $-1 $227 $138 #
plane-surface $-1 -13.095496089783424 -12.389753044246277 46.529946209676424 0 0.71933980857756763 0.69465836192734942 1 0 0 forward_v I I I I #
loop $-1 $-1 $351 $88 #
coedge $-1 $225 $225 $226 $352 reversed $139 $-1 #
coedge $-1 $226 $226 $225 $352 forward $141 $-1 #
coedge $-1 $227 $227 $142 $228 forward $222 $-1 #
edge $-1 $353 1.7537222625362994e-016 $353 6.2831853071796004 $227 $354 forward 7 unknown #
loop $-1 $-1 $234 $143 #
plane-surface $-1 -13.095496089783424 -12.389753044246277 46.529946209676424 0 0.71933980857756763 0.69465836192734942 1 0 0 forward_v I I I I #
loop $-1 $-1 $355 $91 #
coedge $-1 $232 $232 $233 $356 reversed $144 $-1 #
coedge $-1 $233 $233 $232 $356 forward $146 $-1 #
coedge $-1 $234 $234 $147 $235 forward $229 $-1 #
edge $-1 $357 1.7537222625362994e-016 $357 6.2831853071796004 $234 $358 forward 7 unknown #
face $-1 $359 $360 $50 $-1 $361 forward single #
loop $-1 $-1 $362 $148 #
plane-surface $-1 33.634503687278539 96.485719847746637 151.6697657377679 -1 0 0 0 0.71933980857756763 0.69465836192734942 forward_v I I I I #
coedge $-1 $363 $364 $365 $366 reversed $149 $-1 #
coedge $-1 $241 $151 $367 $368 reversed $95 $-1 #
coedge $-1 $151 $240 $363 $369 reversed $95 $-1 #
coedge $-1 $365 $370 $151 $243 forward $360 $-1 #
edge $-1 $371 16.418506421735021 $372 30.746019836720571 $242 $373 forward 7 unknown #
loop $-1 $-1 $249 $152 #
plane-surface $-1 24.070041507525886 -12.389753044246277 46.529946209676424 0 0.71933980857756763 0.69465836192734942 1 0 0 forward_v I I I I #
loop $-1 $-1 $374 $97 #
coedge $-1 $247 $247 $248 $375 reversed $153 $-1 #
coedge $-1 $248 $248 $247 $375 forward $155 $-1 #
coedge $-1 $249 $249 $156 $250 forward $244 $-1 #
edge $-1 $376 1.7537222625362994e-016 $376 6.2831853071796004 $249 $377 forward 7 unknown #
loop $-1 $-1 $256 $157 #
plane-surface $-1 24.070041507525886 -12.389753044246277 46.529946209676424 0 0.71933980857756763 0.69465836192734942 1 0 0 forward_v I I I I #
loop $-1 $-1 $378 $100 #
coedge $-1 $254 $254 $255 $379 reversed $158 $-1 #
coedge $-1 $255 $255 $254 $379 forward $160 $-1 #
coedge $-1 $256 $256 $161 $257 forward $251 $-1 #
edge $-1 $380 1.7537222625362994e-016 $380 6.2831853071796004 $256 $381 forward 7 unknown #
face $-1 $382 $383 $53 $-1 $384 forward single #
loop $-1 $-1 $385 $162 #
plane-surface $-1 70.800041284587849 96.485719847746637 151.6697657377679 -1 0 0 0 0.71933980857756763 0.69465836192734942 forward_v I I I I #
coedge $-1 $386 $387 $388 $389 reversed $163 $-1 #
coedge $-1 $263 $165 $390 $391 reversed $104 $-1 #
coedge $-1 $165 $262 $386 $392 reversed $104 $-1 #
coedge $-1 $388 $393 $165 $265 forward $383 $-1 #
edge $-1 $394 16.418506421735021 $395 30.746019836720571 $264 $396 forward 7 unknown #
loop $-1 $-1 $271 $166 #
plane-surface $-1 61.235579104835196 -12.389753044246277 46.529946209676424 0 0.71933980857756763 0.69465836192734942 1 0 0 forward_v I I I I #
loop $-1 $-1 $397 $106 #
coedge $-1 $269 $269 $270 $398 reversed $167 $-1 #
coedge $-1 $270 $270 $269 $398 forward $169 $-1 #
coedge $-1 $271 $271 $170 $272 forward $266 $-1 #
edge $-1 $399 1.7537222625362994e-016 $399 6.2831853071796004 $271 $400 forward 7 unknown #
loop $-1 $-1 $278 $171 #
plane-surface $-1 61.235579104835196 -12.389753044246277 46.529946209676424 0 0.71933980857756763 0.69465836192734942 1 0 0 forward_v I I I I #
loop $-1 $-1 $401 $109 #
coedge $-1 $276 $276 $277 $402 reversed $172 $-1 #
coedge $-1 $277 $277 $276 $402 forward $174 $-1 #
coedge $-1 $278 $278 $175 $279 forward $273 $-1 #
edge $-1 $403 1.7537222625362994e-016 $403 6.2831853071796004 $278 $404 forward 7 unknown #
face $-1 $405 $406 $42 $-1 $407 reversed single #
loop $-1 $-1 $408 $176 #
plane-surface $-1 -75.677358317819753 0 0 1 0 0 0 0 -1 forward_v I I I I #
coedge $-1 $409 $291 $410 $411 forward $177 $-1 #
coedge $-1 $412 $179 $409 $413 forward $113 $-1 #
coedge $-1 $179 $412 $414 $415 forward $113 $-1 #
coedge $-1 $294 $293 $179 $287 reversed $295 $-1 #
edge $-1 $416 -31.824353502138298 $417 31.824353502138298 $286 $418 forward 7 unknown #
coedge $-1 $181 $180 $419 $420 forward $71 $-1 #
coedge $-1 $421 $422 $180 $290 reversed $406 $-1 #
edge $-1 $297 -75.677358317819753 $423 75.677358317819753 $289 $424 forward 7 unknown #
coedge $-1 $283 $425 $181 $292 reversed $177 $-1 #
edge $-1 $426 -75.677358317819753 $296 75.677358317819753 $291 $427 forward 7 unknown #
coedge $-1 $286 $182 $425 $428 forward $295 $-1 #
coedge $-1 $182 $286 $421 $429 reversed $295 $-1 #
loop $-1 $-1 $293 $405 #
vertex $-1 $183 $430 #
vertex $-1 $183 $431 #
straight-curve $-1 75.677358317819753 0 15.581472311618541 0 1 0 I I #
face $-1 $432 $433 $43 $-1 $434 forward single #
loop $-1 $-1 $435 $184 #
plane-surface $-1 -86.651903735562215 0 11.551745122362611 1 0 0 0 0 -1 forward_v I I I I #
coedge $-1 $436 $187 $309 $437 reversed $117 $-1 #
coedge $-1 $187 $436 $438 $439 reversed $117 $-1 #
edge $-1 $440 -15.581472311618541 $311 -7.5220179331066834 $187 $441 forward 7 unknown #
coedge $-1 $189 $188 $442 $443 reversed $74 $-1 #
coedge $-1 $444 $445 $189 $307 forward $446 $-1 #
edge $-1 $310 7.5220179331066834 $447 15.581472311618541 $306 $448 forward 7 unknown #
coedge $-1 $449 $190 $445 $450 forward $185 $-1 #
coedge $-1 $190 $449 $302 $437 forward $185 $-1 #
vertex $-1 $307 $451 #
vertex $-1 $304 $452 #
straight-curve $-1 -75.677358317819753 0 7.5220179331066834 0 1 0 I I #
face $-1 $-1 $453 $44 $-1 $454 reversed single #
loop $-1 $-1 $198 $192 #
plane-surface $-1 0 0 15.581472311618541 0 0 1 1 0 0 forward_v I I I I #
coedge $-1 $455 $456 $457 $458 reversed $193 $-1 #
coedge $-1 $459 $195 $197 $323 forward $121 $-1 #
coedge $-1 $195 $459 $455 $460 forward $121 $-1 #
coedge $-1 $457 $198 $195 $320 forward $314 $-1 #
edge $-1 $326 -34.694979023299013 $461 -15.566054663793711 $319 $462 forward 7 unknown #
coedge $-1 $463 $464 $196 $322 forward $453 $-1 #
edge $-1 $465 -75.089985371873524 $325 -60.253410557265411 $321 $466 forward 7 unknown #
edge $-1 $326 43.023441117843632 $465 63.648707004276559 $197 $467 forward 7 unknown #
coedge $-1 $198 $457 $463 $468 forward $314 $-1 #
vertex $-1 $322 $469 #
vertex $-1 $199 $470 #
straight-curve $-1 -59.82549586684538 48.242859923873318 15.581472311618541 0 -1 0 I I #
coedge $-1 $328 $328 $-1 $471 reversed $202 $-1 #
edge $-1 $472 0 $472 6.2831853071796004 $203 $473 forward 7 unknown #
vertex $-1 $206 $474 #
ellipse-curve $-1 -54.360088906986718 24.660596794645521 8.163184904314484 0 0.71933980857756763 0.69465836192734942 1.5 0 0 1 I I #
coedge $-1 $332 $332 $-1 $475 reversed $209 $-1 #
edge $-1 $476 0 $476 6.2831853071796004 $210 $477 forward 7 unknown #
vertex $-1 $213 $478 #
ellipse-curve $-1 -46.161978467198729 24.660596794645521 8.163184904314484 0 0.71933980857756763 0.69465836192734942 1.5 0 0 1 I I #
face $-1 $-1 $479 $47 $-1 $480 reversed single #
loop $-1 $-1 $220 $214 #
plane-surface $-1 0 0 15.581472311618541 0 0 1 1 0 0 forward_v I I I I #
coedge $-1 $481 $482 $483 $484 reversed $215 $-1 #
coedge $-1 $485 $217 $219 $346 forward $135 $-1 #
coedge $-1 $217 $485 $481 $486 forward $135 $-1 #
coedge $-1 $483 $220 $217 $343 forward $337 $-1 #
edge $-1 $349 -16.112210224644365 $487 3.0167141348609405 $342 $488 forward 7 unknown #
coedge $-1 $489 $490 $218 $345 forward $479 $-1 #
edge $-1 $491 -75.089985371873524 $348 -60.253410557265411 $344 $492 forward 7 unknown #
edge $-1 $349 43.023441117843632 $491 63.648707004276559 $219 $493 forward 7 unknown #
coedge $-1 $220 $483 $489 $494 forward $337 $-1 #
vertex $-1 $221 $495 #
vertex $-1 $221 $496 #
straight-curve $-1 -22.659958269536077 48.242859923873318 15.581472311618541 0 -1 0 I I #
coedge $-1 $351 $351 $-1 $497 reversed $224 $-1 #
edge $-1 $498 0 $498 6.2831853071796004 $225 $499 forward 7 unknown #
vertex $-1 $228 $500 #
ellipse-curve $-1 -17.194551309677415 24.660596794645521 8.163184904314484 0 0.71933980857756763 0.69465836192734942 1.5 0 0 1 I I #
coedge $-1 $355 $355 $-1 $501 reversed $231 $-1 #
edge $-1 $502 0 $502 6.2831853071796004 $232 $503 forward 7 unknown #
vertex $-1 $235 $504 #
ellipse-curve $-1 -8.996440869889426 24.660596794645521 8.163184904314484 0 0.71933980857756763 0.69465836192734942 1.5 0 0 1 I I #
face $-1 $-1 $505 $50 $-1 $506 reversed single #
loop $-1 $-1 $242 $236 #
plane-surface $-1 0 0 15.581472311618541 0 0 1 1 0 0 forward_v I I I I #
coedge $-1 $507 $508 $509 $510 reversed $237 $-1 #
coedge $-1 $511 $239 $241 $369 forward $149 $-1 #
coedge $-1 $239 $511 $507 $512 forward $149 $-1 #
coedge $-1 $509 $242 $239 $366 forward $360 $-1 #
edge $-1 $372 2.4705585740102904 $513 21.599482933515596 $365 $514 forward 7 unknown #
coedge $-1 $515 $516 $240 $368 forward $505 $-1 #
edge $-1 $517 -75.089985371873524 $371 -60.253410557265411 $367 $518 forward 7 unknown #
edge $-1 $372 43.023441117843632 $517 63.648707004276559 $241 $519 forward 7 unknown #
coedge $-1 $242 $509 $515 $520 forward $360 $-1 #
vertex $-1 $243 $521 #
vertex $-1 $243 $522 #
straight-curve $-1 14.505579327773233 48.242859923873318 15.581472311618541 0 -1 0 I I #
coedge $-1 $374 $374 $-1 $523 reversed $246 $-1 #
edge $-1 $524 0 $524 6.2831853071796004 $247 $525 forward 7 unknown #
vertex $-1 $250 $526 #
ellipse-curve $-1 19.970986287631888 24.660596794645521 8.163184904314484 0 0.71933980857756763 0.69465836192734942 1.5 0 0 1 I I #
coedge $-1 $378 $378 $-1 $527 reversed $253 $-1 #
edge $-1 $528 0 $528 6.2831853071796004 $254 $529 forward 7 unknown #
vertex $-1 $257 $530 #
ellipse-curve $-1 28.16909672741987 24.660596794645521 8.163184904314484 0 0.71933980857756763 0.69465836192734942 1.5 0 0 1 I I #
face $-1 $-1 $531 $53 $-1 $532 reversed single #
loop $-1 $-1 $264 $258 #
plane-surface $-1 0 0 15.581472311618541 0 0 1 1 0 0 forward_v I I I I #
coedge $-1 $533 $534 $535 $536 reversed $259 $-1 #
coedge $-1 $537 $261 $263 $392 forward $163 $-1 #
coedge $-1 $261 $537 $533 $538 forward $163 $-1 #
coedge $-1 $535 $264 $261 $389 forward $383 $-1 #
edge $-1 $395 21.053327372664945 $539 40.182251732170251 $388 $540 forward 7 unknown #
coedge $-1 $541 $542 $262 $391 forward $531 $-1 #
edge $-1 $543 -75.089985371873524 $394 -60.253410557265411 $390 $544 forward 7 unknown #
edge $-1 $395 43.023441117843632 $543 63.648707004276559 $263 $545 forward 7 unknown #
coedge $-1 $264 $535 $541 $546 forward $383 $-1 #
vertex $-1 $265 $547 #
vertex $-1 $265 $548 #
straight-curve $-1 51.671116925082544 48.242859923873318 15.581472311618541 0 -1 0 I I #
coedge $-1 $397 $397 $-1 $549 reversed $268 $-1 #
edge $-1 $550 0 $550 6.2831853071796004 $269 $551 forward 7 unknown #
vertex $-1 $272 $552 #
ellipse-curve $-1 57.136523884941184 24.660596794645521 8.163184904314484 0 0.71933980857756763 0.69465836192734942 1.5 0 0 1 I I #
coedge $-1 $401 $401 $-1 $553 reversed $275 $-1 #
edge $-1 $554 0 $554 6.2831853071796004 $276 $555 forward 7 unknown #
vertex $-1 $279 $556 #
ellipse-curve $-1 65.33463432472918 24.660596794645521 8.163184904314484 0 0.71933980857756763 0.69465836192734942 1.5 0 0 1 I I #
face $-1 $-1 $295 $42 $-1 $557 reversed single #
loop $-1 $-1 $421 $280 #
plane-surface $-1 0 31.824353502138298 0 0 -1 0 0 0 -1 forward_v I I I I #
coedge $-1 $558 $419 $422 $559 forward $281 $-1 #
coedge $-1 $425 $283 $284 $413 reversed $177 $-1 #
coedge $-1 $419 $558 $283 $411 reversed $281 $-1 #
edge $-1 $426 -15.581472311618541 $560 15.581472311618541 $410 $561 forward 7 unknown #
coedge $-1 $285 $284 $558 $562 forward $113 $-1 #
edge $-1 $417 -75.677358317819753 $560 75.677358317819753 $409 $563 forward 7 unknown #
coedge $-1 $422 $421 $285 $415 reversed $406 $-1 #
edge $-1 $564 -75.677358317819753 $416 75.677358317819753 $414 $565 forward 7 unknown #
vertex $-1 $287 $566 #
vertex $-1 $428 $567 #
straight-curve $-1 75.677358317819753 0 -15.581472311618541 0 -1 0 I I #
coedge $-1 $408 $410 $288 $420 reversed $281 $-1 #
edge $-1 $423 -31.824353502138298 $426 31.824353502138298 $419 $568 forward 7 unknown #
coedge $-1 $414 $289 $294 $429 forward $406 $-1 #
coedge $-1 $289 $414 $408 $559 reversed $406 $-1 #
vertex $-1 $290 $569 #
straight-curve $-1 0 31.824353502138298 15.581472311618541 -1 0 0 I I #
coedge $-1 $291 $409 $293 $428 reversed $177 $-1 #
vertex $-1 $420 $570 #
straight-curve $-1 0 -31.824353502138298 15.581472311618541 1 0 0 I I #
edge $-1 $296 -15.581472311618541 $417 15.581472311618541 $293 $571 forward 7 unknown #
edge $-1 $297 -15.581472311618541 $416 15.581472311618541 $294 $572 forward 7 unknown #
point $-1 75.677358317819753 -31.824353502138298 15.581472311618541 #
point $-1 75.677358317819753 31.824353502138298 15.581472311618541 #
face $-1 $-1 $446 $43 $-1 $573 reversed single #
loop $-1 $-1 $442 $299 #
plane-surface $-1 0 0 15.581472311618541 0 0 1 1 0 0 forward_v I I I I #
coedge $-1 $574 $575 $436 $576 forward $300 $-1 #
coedge $-1 $303 $302 $435 $576 reversed $117 $-1 #
edge $-1 $577 -5.487272708871231 $311 5.487272708871231 $302 $578 forward 7 unknown #
coedge $-1 $579 $442 $303 $439 forward $433 $-1 #
edge $-1 $440 75.677358317819753 $580 86.651903735562215 $303 $581 forward 7 unknown #
vertex $-1 $439 $582 #
straight-curve $-1 -75.677358317819753 31.824353502138298 0 0 0 -1 I I #
coedge $-1 $438 $583 $305 $443 forward $433 $-1 #
edge $-1 $447 -31.824353502138298 $440 31.824353502138298 $442 $584 forward 7 unknown #
coedge $-1 $585 $306 $583 $586 reversed $446 $-1 #
coedge $-1 $306 $585 $308 $450 reversed $446 $-1 #
loop $-1 $-1 $306 $432 #
vertex $-1 $307 $587 #
straight-curve $-1 -75.677358317819753 -31.824353502138298 0 0 0 1 I I #
coedge $-1 $309 $308 $574 $588 forward $185 $-1 #
edge $-1 $310 -5.487272708871231 $589 5.487272708871231 $445 $590 forward 7 unknown #
point $-1 -75.677358317819753 -31.824353502138298 7.5220179331066834 #
point $-1 -75.677358317819753 31.824353502138298 7.5220179331066834 #
loop $-1 $-1 $321 $313 #
plane-surface $-1 0 31.824353502138298 0 0 -1 0 0 0 -1 forward_v I I I I #
coedge $-1 $456 $316 $318 $460 reversed $193 $-1 #
coedge $-1 $316 $455 $591 $592 reversed $193 $-1 #
coedge $-1 $324 $319 $316 $458 forward $314 $-1 #
edge $-1 $461 -30.746019836720571 $593 -16.418506421735021 $457 $594 forward 7 unknown #
coedge $-1 $318 $317 $464 $595 reversed $121 $-1 #
edge $-1 $596 -63.648707004276559 $461 -43.023441117843632 $455 $597 forward 7 unknown #
vertex $-1 $320 $598 #
straight-curve $-1 -25.130516843546364 17.496840087152744 15.581472311618544 1 0 0 I I #
coedge $-1 $591 $321 $324 $468 reversed $453 $-1 #
coedge $-1 $321 $591 $459 $595 forward $453 $-1 #
vertex $-1 $322 $599 #
straight-curve $-1 -59.82549586684538 31.824353502138294 75.834882868883952 0 0 1 I I #
straight-curve $-1 -59.82549586684538 -12.389753044246277 46.529946209676424 0 0.69465836192734942 -0.71933980857756763 I I #
edge $-1 $593 40.696571507340074 $325 59.82549586684538 $463 $600 forward 7 unknown #
point $-1 -59.82549586684538 31.824353502138298 15.581472311618541 #
point $-1 -59.82549586684538 17.496840087152748 15.581472311618541 #
edge $-1 $601 1 $601 0 $328 $-1 forward 7 unknown #
vertex $-1 $329 $602 #
ellipse-curve $-1 -54.360088906986718 22.785345287989418 6.3522756173789832 0 0.71933980857756763 0.69465836192734942 1.5 0 0 1 I I #
point $-1 -52.860088906986718 24.66059679464551 8.1631849043144733 #
edge $-1 $603 1 $603 0 $332 $-1 forward 7 unknown #
vertex $-1 $333 $604 #
ellipse-curve $-1 -46.161978467198729 22.785345287989418 6.3522756173789832 0 0.71933980857756763 0.69465836192734942 1.5 0 0 1 I I #
point $-1 -44.661978467198729 24.66059679464551 8.1631849043144733 #
loop $-1 $-1 $344 $336 #
plane-surface $-1 0 31.824353502138298 0 0 -1 0 0 0 -1 forward_v I I I I #
coedge $-1 $482 $339 $341 $486 reversed $215 $-1 #
coedge $-1 $339 $481 $605 $606 reversed $215 $-1 #
coedge $-1 $347 $342 $339 $484 forward $337 $-1 #
edge $-1 $487 -30.746019836720571 $607 -16.418506421735021 $483 $608 forward 7 unknown #
coedge $-1 $341 $340 $490 $609 reversed $135 $-1 #
edge $-1 $610 -63.648707004276559 $487 -43.023441117843632 $481 $611 forward 7 unknown #
vertex $-1 $343 $612 #
straight-curve $-1 -6.547748044891712 17.496840087152744 15.581472311618544 1 0 0 I I #
coedge $-1 $605 $344 $347 $494 reversed $479 $-1 #
coedge $-1 $344 $605 $485 $609 forward $479 $-1 #
vertex $-1 $345 $613 #
straight-curve $-1 -22.659958269536077 31.824353502138294 75.834882868883952 0 0 1 I I #
straight-curve $-1 -22.659958269536077 -12.389753044246277 46.529946209676424 0 0.69465836192734942 -0.71933980857756763 I I #
edge $-1 $607 3.5310339100307715 $348 22.659958269536077 $489 $614 forward 7 unknown #
point $-1 -22.659958269536077 31.824353502138298 15.581472311618541 #
point $-1 -22.659958269536077 17.496840087152748 15.581472311618541 #
edge $-1 $615 1 $615 0 $351 $-1 forward 7 unknown #
vertex $-1 $352 $616 #
ellipse-curve $-1 -17.194551309677415 22.785345287989418 6.3522756173789832 0 0.71933980857756763 0.69465836192734942 1.5 0 0 1 I I #
point $-1 -15.694551309677415 24.66059679464551 8.1631849043144733 #
edge $-1 $617 1 $617 0 $355 $-1 forward 7 unknown #
vertex $-1 $356 $618 #
ellipse-curve $-1 -8.996440869889426 22.785345287989418 6.3522756173789832 0 0.71933980857756763 0.69465836192734942 1.5 0 0 1 I I #
point $-1 -7.496440869889426 24.66059679464551 8.1631849043144733 #
loop $-1 $-1 $367 $359 #
plane-surface $-1 0 31.824353502138298 0 0 -1 0 0 0 -1 forward_v I I I I #
coedge $-1 $508 $362 $364 $512 reversed $237 $-1 #
coedge $-1 $362 $507 $619 $620 reversed $237 $-1 #
coedge $-1 $370 $365 $362 $510 forward $360 $-1 #
edge $-1 $513 -30.746019836720571 $621 -16.418506421735021 $509 $622 forward 7 unknown #
coedge $-1 $364 $363 $516 $623 reversed $149 $-1 #
edge $-1 $624 -63.648707004276559 $513 -43.023441117843632 $507 $625 forward 7 unknown #
vertex $-1 $366 $626 #
straight-curve $-1 12.035020753762943 17.496840087152744 15.581472311618544 1 0 0 I I #
coedge $-1 $619 $367 $370 $520 reversed $505 $-1 #
coedge $-1 $367 $619 $511 $623 forward $505 $-1 #
vertex $-1 $368 $627 #
straight-curve $-1 14.505579327773233 31.824353502138294 75.834882868883952 0 0 1 I I #
straight-curve $-1 14.505579327773233 -12.389753044246277 46.529946209676424 0 0.69465836192734942 -0.71933980857756763 I I #
edge $-1 $621 -33.634503687278539 $371 -14.505579327773233 $515 $628 forward 7 unknown #
point $-1 14.505579327773233 31.824353502138298 15.581472311618541 #
point $-1 14.505579327773233 17.496840087152748 15.581472311618541 #
edge $-1 $629 1 $629 0 $374 $-1 forward 7 unknown #
vertex $-1 $375 $630 #
ellipse-curve $-1 19.970986287631888 22.785345287989418 6.3522756173789832 0 0.71933980857756763 0.69465836192734942 1.5 0 0 1 I I #
point $-1 21.470986287631888 24.66059679464551 8.1631849043144733 #
edge $-1 $631 1 $631 0 $378 $-1 forward 7 unknown #
vertex $-1 $379 $632 #
ellipse-curve $-1 28.16909672741987 22.785345287989418 6.3522756173789832 0 0.71933980857756763 0.69465836192734942 1.5 0 0 1 I I #
point $-1 29.66909672741987 24.66059679464551 8.1631849043144733 #
loop $-1 $-1 $390 $382 #
plane-surface $-1 0 31.824353502138298 0 0 -1 0 0 0 -1 forward_v I I I I #
coedge $-1 $534 $385 $387 $538 reversed $259 $-1 #
coedge $-1 $385 $533 $633 $634 reversed $259 $-1 #
coedge $-1 $393 $388 $385 $536 forward $383 $-1 #
edge $-1 $539 -30.746019836720571 $635 -16.418506421735021 $535 $636 forward 7 unknown #
coedge $-1 $387 $386 $542 $637 reversed $163 $-1 #
edge $-1 $638 -63.648707004276559 $539 -43.023441117843632 $533 $639 forward 7 unknown #
vertex $-1 $389 $640 #
straight-curve $-1 30.617789552417598 17.496840087152744 15.581472311618544 1 0 0 I I #
coedge $-1 $633 $390 $393 $546 reversed $531 $-1 #
coedge $-1 $390 $633 $537 $637 forward $531 $-1 #
vertex $-1 $391 $641 #
straight-curve $-1 51.671116925082544 31.824353502138294 75.834882868883952 0 0 1 I I #
straight-curve $-1 51.671116925082544 -12.389753044246277 46.529946209676424 0 0.69465836192734942 -0.71933980857756763 I I #
edge $-1 $635 -70.800041284587849 $394 -51.671116925082544 $541 $642 forward 7 unknown #
point $-1 51.671116925082544 31.824353502138298 15.581472311618541 #
point $-1 51.671116925082544 17.496840087152748 15.581472311618541 #
edge $-1 $643 1 $643 0 $397 $-1 forward 7 unknown #
vertex $-1 $398 $644 #
ellipse-curve $-1 57.136523884941184 22.785345287989418 6.3522756173789832 0 0.71933980857756763 0.69465836192734942 1.5 0 0 1 I I #
point $-1 58.636523884941184 24.66059679464551 8.1631849043144733 #
edge $-1 $645 1 $645 0 $401 $-1 forward 7 unknown #
vertex $-1 $402 $646 #
ellipse-curve $-1 65.33463432472918 22.785345287989418 6.3522756173789832 0 0.71933980857756763 0.69465836192734942 1.5 0 0 1 I I #
point $-1 66.83463432472918 24.66059679464551 8.1631849043144733 #
plane-surface $-1 75.677358317819753 0 0 -1 0 0 0 0 1 forward_v I I I I #
coedge $-1 $410 $408 $412 $562 reversed $281 $-1 #
edge $-1 $423 -15.581472311618541 $564 15.581472311618541 $422 $647 forward 7 unknown #
vertex $-1 $562 $648 #
straight-curve $-1 -75.677358317819753 -31.824353502138298 0 0 0 -1 I I #
edge $-1 $560 -31.824353502138298 $564 31.824353502138298 $558 $649 forward 7 unknown #
straight-curve $-1 0 -31.824353502138298 -15.581472311618541 -1 0 0 I I #
vertex $-1 $415 $650 #
straight-curve $-1 0 31.824353502138298 -15.581472311618541 1 0 0 I I #
point $-1 75.677358317819753 31.824353502138298 -15.581472311618541 #
point $-1 75.677358317819753 -31.824353502138298 -15.581472311618541 #
straight-curve $-1 -75.677358317819753 0 15.581472311618541 0 -1 0 I I #
point $-1 -75.677358317819753 31.824353502138298 15.581472311618541 #
point $-1 -75.677358317819753 -31.824353502138298 15.581472311618541 #
straight-curve $-1 75.677358317819753 -31.824353502138298 0 0 0 -1 I I #
straight-curve $-1 75.677358317819753 31.824353502138298 0 0 0 -1 I I #
plane-surface $-1 0 -31.824353502138298 0 0 1 0 0 0 1 forward_v I I I I #
coedge $-1 $651 $435 $449 $588 reversed $300 $-1 #
coedge $-1 $435 $651 $579 $652 reversed $300 $-1 #
edge $-1 $580 -4.0297271892559277 $577 4.0297271892559277 $436 $653 forward 7 unknown #
vertex $-1 $437 $654 #
straight-curve $-1 -81.164631026690984 31.824353502138298 7.5220179331066834 1 0 0 I I #
coedge $-1 $583 $438 $575 $652 forward $433 $-1 #
vertex $-1 $439 $655 #
straight-curve $-1 0 31.824353502138298 15.581472311618541 -1 0 0 I I #
point $-1 -75.677358317819753 31.824353502138298 15.581472311618541 #
coedge $-1 $442 $579 $444 $586 forward $433 $-1 #
straight-curve $-1 -75.677358317819753 0 15.581472311618541 0 1 0 I I #
coedge $-1 $445 $444 $651 $656 forward $446 $-1 #
edge $-1 $657 -86.651903735562215 $447 -75.677358317819753 $444 $658 forward 7 unknown #
point $-1 -75.677358317819753 -31.824353502138298 15.581472311618541 #
edge $-1 $589 -31.824353502138298 $577 31.824353502138298 $574 $659 forward 7 unknown #
vertex $-1 $588 $660 #
straight-curve $-1 -81.164631026690984 -31.824353502138298 7.5220179331066834 -1 0 0 I I #
coedge $-1 $464 $463 $456 $592 forward $453 $-1 #
edge $-1 $593 60.253410557265411 $596 75.089985371873524 $591 $661 forward 7 unknown #
vertex $-1 $468 $662 #
straight-curve $-1 -40.696571507340074 48.242859923873318 15.581472311618541 0 1 0 I I #
edge $-1 $596 15.566054663793711 $465 34.694979023299013 $464 $663 forward 7 unknown #
vertex $-1 $595 $664 #
straight-curve $-1 -40.696571507340074 -12.389753044246277 46.529946209676424 0 -0.69465836192734942 0.71933980857756763 I I #
point $-1 -40.696571507340074 17.496840087152748 15.581472311618541 #
point $-1 -59.82549586684538 31.824353502138294 0.74489749701043451 #
straight-curve $-1 0 31.824353502138298 15.581472311618541 -1 0 0 I I #
vertex $-1 $471 $665 #
point $-1 -52.860088906986718 22.785345287989418 6.3522756173789832 #
vertex $-1 $475 $666 #
point $-1 -44.661978467198729 22.785345287989418 6.3522756173789832 #
coedge $-1 $490 $489 $482 $606 forward $479 $-1 #
edge $-1 $607 60.253410557265411 $610 75.089985371873524 $605 $667 forward 7 unknown #
vertex $-1 $494 $668 #
straight-curve $-1 -3.5310339100307715 48.242859923873318 15.581472311618541 0 1 0 I I #
edge $-1 $610 -3.0167141348609405 $491 16.112210224644365 $490 $669 forward 7 unknown #
vertex $-1 $609 $670 #
straight-curve $-1 -3.5310339100307715 -12.389753044246277 46.529946209676424 0 -0.69465836192734942 0.71933980857756763 I I #
point $-1 -3.5310339100307715 17.496840087152748 15.581472311618541 #
point $-1 -22.659958269536077 31.824353502138294 0.74489749701043451 #
straight-curve $-1 0 31.824353502138298 15.581472311618541 -1 0 0 I I #
vertex $-1 $497 $671 #
point $-1 -15.694551309677415 22.785345287989418 6.3522756173789832 #
vertex $-1 $501 $672 #
point $-1 -7.496440869889426 22.785345287989418 6.3522756173789832 #
coedge $-1 $516 $515 $508 $620 forward $505 $-1 #
edge $-1 $621 60.253410557265411 $624 75.089985371873524 $619 $673 forward 7 unknown #
vertex $-1 $520 $674 #
straight-curve $-1 33.634503687278539 48.242859923873318 15.581472311618541 0 1 0 I I #
edge $-1 $624 -21.599482933515596 $517 -2.4705585740102904 $516 $675 forward 7 unknown #
vertex $-1 $623 $676 #
straight-curve $-1 33.634503687278539 -12.389753044246277 46.529946209676424 0 -0.69465836192734942 0.71933980857756763 I I #
point $-1 33.634503687278539 17.496840087152748 15.581472311618541 #
point $-1 14.505579327773233 31.824353502138294 0.74489749701043451 #
straight-curve $-1 0 31.824353502138298 15.581472311618541 -1 0 0 I I #
vertex $-1 $523 $677 #
point $-1 21.470986287631888 22.785345287989418 6.3522756173789832 #
vertex $-1 $527 $678 #
point $-1 29.66909672741987 22.785345287989418 6.3522756173789832 #
coedge $-1 $542 $541 $534 $634 forward $531 $-1 #
edge $-1 $635 60.253410557265411 $638 75.089985371873524 $633 $679 forward 7 unknown #
vertex $-1 $546 $680 #
straight-curve $-1 70.800041284587849 48.242859923873318 15.581472311618541 0 1 0 I I #
edge $-1 $638 -40.182251732170251 $543 -21.053327372664945 $542 $681 forward 7 unknown #
vertex $-1 $637 $682 #
straight-curve $-1 70.800041284587849 -12.389753044246277 46.529946209676424 0 -0.69465836192734942 0.71933980857756763 I I #
point $-1 70.800041284587849 17.496840087152748 15.581472311618541 #
point $-1 51.671116925082544 31.824353502138294 0.74489749701043451 #
straight-curve $-1 0 31.824353502138298 15.581472311618541 -1 0 0 I I #
vertex $-1 $549 $683 #
point $-1 58.636523884941184 22.785345287989418 6.3522756173789832 #
vertex $-1 $553 $684 #
point $-1 66.83463432472918 22.785345287989418 6.3522756173789832 #
straight-curve $-1 -75.677358317819753 31.824353502138298 0 0 0 -1 I I #
point $-1 -75.677358317819753 -31.824353502138298 -15.581472311618541 #
straight-curve $-1 -75.677358317819753 0 -15.581472311618541 0 1 0 I I #
point $-1 -75.677358317819753 31.824353502138298 -15.581472311618541 #
coedge $-1 $575 $574 $585 $656 reversed $300 $-1 #
edge $-1 $580 -31.824353502138298 $657 31.824353502138298 $575 $685 forward 7 unknown #
straight-curve $-1 -86.651903735562215 31.824353502138298 11.551745122362611 0 0 -1 I I #
point $-1 -86.651903735562215 31.824353502138298 7.5220179331066834 #
point $-1 -86.651903735562215 31.824353502138298 15.581472311618539 #
edge $-1 $657 -4.0297271892559277 $589 4.0297271892559277 $651 $686 forward 7 unknown #
vertex $-1 $652 $687 #
straight-curve $-1 0 -31.824353502138298 15.581472311618541 1 0 0 I I #
straight-curve $-1 -86.651903735562215 0 7.5220179331066834 0 1 0 I I #
point $-1 -86.651903735562215 -31.824353502138298 7.5220179331066834 #
straight-curve $-1 -40.696571507340074 31.824353502138294 75.834882868883952 0 0 -1 I I #
point $-1 -40.696571507340074 31.824353502138298 15.581472311618541 #
straight-curve $-1 -25.130516843546364 31.824353502138301 0.7448974970104274 -1 0 0 I I #
point $-1 -40.696571507340074 31.824353502138294 0.74489749701043451 #
point $-1 -54.360088906986718 21.706335575123067 5.3102880744879597 #
point $-1 -46.161978467198729 21.706335575123067 5.3102880744879597 #
straight-curve $-1 -3.5310339100307715 31.824353502138294 75.834882868883952 0 0 -1 I I #
point $-1 -3.5310339100307715 31.824353502138298 15.581472311618541 #
straight-curve $-1 -6.547748044891712 31.824353502138301 0.7448974970104274 -1 0 0 I I #
point $-1 -3.5310339100307715 31.824353502138294 0.74489749701043451 #
point $-1 -17.194551309677415 21.706335575123067 5.3102880744879597 #
point $-1 -8.996440869889426 21.706335575123067 5.3102880744879597 #
straight-curve $-1 33.634503687278539 31.824353502138294 75.834882868883952 0 0 -1 I I #
point $-1 33.634503687278539 31.824353502138298 15.581472311618541 #
straight-curve $-1 12.035020753762943 31.824353502138301 0.7448974970104274 -1 0 0 I I #
point $-1 33.634503687278539 31.824353502138294 0.74489749701043451 #
point $-1 19.970986287631888 21.706335575123067 5.3102880744879597 #
point $-1 28.16909672741987 21.706335575123067 5.3102880744879597 #
straight-curve $-1 70.800041284587849 31.824353502138294 75.834882868883952 0 0 -1 I I #
point $-1 70.800041284587849 31.824353502138298 15.581472311618541 #
straight-curve $-1 30.617789552417598 31.824353502138301 0.7448974970104274 -1 0 0 I I #
point $-1 70.800041284587849 31.824353502138294 0.74489749701043451 #
point $-1 57.136523884941184 21.706335575123067 5.3102880744879597 #
point $-1 65.33463432472918 21.706335575123067 5.3102880744879597 #
straight-curve $-1 -86.651903735562215 0 15.581472311618539 0 -1 0 I I #
straight-curve $-1 -86.651903735562215 -31.824353502138298 11.551745122362611 0 0 -1 I I #
point $-1 -86.651903735562215 -31.824353502138298 15.581472311618539 #
End-of-ACIS-data 