500 0 6 0           
7 Unknown 11 ACIS 5.0 NT 24 Thu Mar 25 23:37:16 1999 
-1 9.9999999999999995e-007 1e-010 
body $-1 $6 $-1 $7 #
body $-1 $8 $-1 $9 #
body $-1 $10 $-1 $11 #
body $-1 $12 $-1 $13 #
body $-1 $14 $-1 $15 #
body $-1 $16 $-1 $17 #
lump $-1 $-1 $18 $0 #
transform $-1 1 0 0 0 1 0 0 0 1 68.0306405835139 46.866544361212014 14.63565788233705 1 rotate no_reflect no_shear #
lump $-1 $-1 $19 $1 #
transform $-1 1 0 0 0 1 0 0 0 1 68.0306405835139 46.866544361212014 14.63565788233705 1 rotate no_reflect no_shear #
lump $-1 $-1 $20 $2 #
transform $-1 1 0 0 0 1 0 0 0 1 68.0306405835139 46.866544361212014 14.63565788233705 1 rotate no_reflect no_shear #
lump $-1 $-1 $21 $3 #
transform $-1 1 0 0 0 1 0 0 0 1 68.0306405835139 46.866544361212014 14.63565788233705 1 rotate no_reflect no_shear #
lump $-1 $-1 $22 $4 #
transform $-1 1 0 0 0 1 0 0 0 1 68.0306405835139 46.866544361212014 14.63565788233705 1 rotate no_reflect no_shear #
lump $-1 $-1 $23 $5 #
transform $-1 1 0 0 0 1 0 0 0 1 68.0306405835139 46.866544361212014 14.63565788233705 1 rotate no_reflect no_shear #
shell $-1 $-1 $-1 $24 $-1 $6 #
shell $-1 $-1 $-1 $25 $-1 $8 #
shell $-1 $-1 $-1 $26 $-1 $10 #
shell $-1 $-1 $-1 $27 $-1 $12 #
shell $-1 $-1 $-1 $28 $-1 $14 #
shell $-1 $-1 $-1 $29 $-1 $16 #
face $-1 $30 $31 $18 $-1 $32 forward single #
face $-1 $33 $34 $19 $-1 $35 forward single #
face $-1 $36 $37 $20 $-1 $38 forward single #
face $-1 $39 $40 $21 $-1 $41 reversed single #
face $-1 $42 $43 $22 $-1 $44 forward single #
face $-1 $45 $46 $23 $-1 $47 forward single #
face $-1 $48 $49 $18 $-1 $50 reversed single #
loop $-1 $-1 $51 $24 #
plane-surface $-1 0 0 14.63565788233705 0 0 1 1 0 0 forward_v I I I I #
face $-1 $52 $53 $19 $-1 $54 reversed single #
loop $-1 $-1 $55 $25 #
plane-surface $-1 0 -40.610855847133578 -0.9765524104222596 0 0 1 1 0 0 forward_v I I I I #
face $-1 $56 $57 $20 $-1 $58 reversed single #
loop $-1 $-1 $59 $26 #
plane-surface $-1 0 40.610855847133571 -0.9765524104222596 0 0 1 1 0 0 forward_v I I I I #
face $-1 $60 $61 $21 $-1 $62 reversed single #
loop $-1 $-1 $63 $27 #
plane-surface $-1 -148.0054560832414 -23.445852592601682 119.18001705451098 0 -1 0 0.5877852598018023 0 -0.80901698891910034 forward_v I I I I #
face $-1 $64 $65 $22 $-1 $66 forward single #
loop $-1 $67 $68 $28 #
cone-surface $-1 -62.549573645103656 -31.238220264354155 9.5653912810361401 0.5877852598018023 0 -0.80901698891910034 1.2135254833786506 0 0.88167788970270344 1 I I 0 1 1.5 forward I I I I #
face $-1 $69 $70 $23 $-1 $71 forward single #
loop $-1 $72 $73 $29 #
cone-surface $-1 -62.549573645103656 -26.56279966130267 9.5653912810361401 0.5877852598018023 0 -0.80901698891910034 1.2135254833786506 0 0.88167788970270344 1 I I 0 1 1.5 forward I I I I #
face $-1 $74 $75 $18 $-1 $76 reversed single #
loop $-1 $-1 $77 $30 #
plane-surface $-1 0 0 -14.63565788233705 0 0 1 1 0 0 forward_v I I I I #
coedge $-1 $78 $79 $80 $81 forward $31 $-1 #
face $-1 $82 $83 $19 $-1 $84 reversed single #
loop $-1 $-1 $85 $33 #
plane-surface $-1 0 -40.610855847133578 -4.403405476155049 0 0 1 1 0 0 forward_v I I I I #
coedge $-1 $86 $87 $88 $89 reversed $34 $-1 #
face $-1 $90 $91 $20 $-1 $92 reversed single #
loop $-1 $-1 $93 $36 #
plane-surface $-1 0 40.610855847133571 -4.403405476155049 0 0 1 1 0 0 forward_v I I I I #
coedge $-1 $94 $95 $96 $97 reversed $37 $-1 #
face $-1 $98 $99 $21 $-1 $100 reversed single #
loop $-1 $-1 $101 $39 #
plane-surface $-1 -68.030640583513886 -28.900509962828416 9.10412905628705 -0.5877852598018023 0 0.80901698891910034 0.80901698891910034 0 0.5877852598018023 forward_v I I I I #
coedge $-1 $102 $103 $104 $105 reversed $40 $-1 #
face $-1 $-1 $106 $22 $-1 $107 forward single #
loop $-1 $108 $109 $42 #
cone-surface $-1 -60.43441582190669 -31.238220264354155 6.6541263510709108 0.5877852598018023 0 -0.80901698891910034 0.60676274168932531 0 0.44083894485135172 1 I I -0.70710678118654757 0.70710678118654757 0.75 forward I I I I #
loop $-1 $-1 $110 $28 #
coedge $-1 $68 $68 $111 $112 reversed $43 $-1 #
face $-1 $-1 $113 $23 $-1 $114 forward single #
loop $-1 $115 $116 $45 #
cone-surface $-1 -60.43441582190669 -26.56279966130267 6.6541263510709108 0.5877852598018023 0 -0.80901698891910034 0.60676274168932531 0 0.44083894485135172 1 I I -0.70710678118654757 0.70710678118654757 0.75 forward I I I I #
loop $-1 $-1 $117 $29 #
coedge $-1 $73 $73 $118 $119 reversed $46 $-1 #
face $-1 $120 $121 $18 $-1 $122 reversed single #
loop $-1 $-1 $123 $48 #
plane-surface $-1 0 -46.866544361212014 0 0 1 0 0 0 1 forward_v I I I I #
coedge $-1 $124 $125 $126 $127 forward $49 $-1 #
coedge $-1 $128 $51 $129 $130 forward $31 $-1 #
coedge $-1 $51 $128 $131 $132 forward $31 $-1 #
coedge $-1 $133 $134 $51 $81 reversed $135 $-1 #
edge $-1 $136 -46.866544361212014 $137 46.866544361212014 $80 $138 forward 7 unknown #
face $-1 $139 $140 $19 $-1 $141 reversed single #
loop $-1 $-1 $142 $52 #
plane-surface $-1 0 -34.355167333055142 -2.6899789432886543 0 -1 0 0 0 -1 forward_v I I I I #
coedge $-1 $143 $144 $145 $146 reversed $53 $-1 #
coedge $-1 $147 $55 $148 $149 forward $34 $-1 #
coedge $-1 $55 $147 $150 $151 reversed $34 $-1 #
coedge $-1 $152 $153 $55 $89 forward $154 $-1 #
edge $-1 $155 14.049739409488353 $156 26.561116437645225 $88 $157 forward 7 unknown #
face $-1 $158 $159 $20 $-1 $160 reversed single #
loop $-1 $-1 $161 $56 #
plane-surface $-1 0 34.355167333055135 -2.6899789432886543 0 1 0 0 0 1 forward_v I I I I #
coedge $-1 $162 $163 $164 $165 reversed $57 $-1 #
coedge $-1 $166 $59 $167 $168 reversed $37 $-1 #
coedge $-1 $59 $166 $169 $170 forward $37 $-1 #
coedge $-1 $171 $172 $59 $97 forward $159 $-1 #
edge $-1 $173 -26.561116437645222 $174 -14.04973940948835 $96 $175 forward 7 unknown #
face $-1 $176 $177 $21 $-1 $178 reversed single #
loop $-1 $-1 $179 $60 #
plane-surface $-1 -148.0054560832414 -34.355167333055149 119.18001705451098 0 1 0 -0.5877852598018023 0 0.80901698891910034 forward_v I I I I #
coedge $-1 $180 $181 $182 $183 reversed $61 $-1 #
coedge $-1 $103 $63 $184 $185 reversed $40 $-1 #
coedge $-1 $63 $102 $180 $186 reversed $40 $-1 #
coedge $-1 $182 $187 $63 $105 forward $177 $-1 #
edge $-1 $188 44.954350644918442 $189 50.485879470968456 $104 $190 forward 7 unknown #
loop $-1 $-1 $111 $64 #
plane-surface $-1 -68.030640583513886 -28.900509962828416 9.10412905628705 -0.5877852598018023 0 0.80901698891910034 0.80901698891910034 0 0.5877852598018023 forward_v I I I I #
loop $-1 $-1 $191 $42 #
coedge $-1 $109 $109 $110 $192 reversed $65 $-1 #
coedge $-1 $110 $110 $109 $192 forward $67 $-1 #
coedge $-1 $111 $111 $68 $112 forward $106 $-1 #
edge $-1 $193 0 $193 6.2831853071796004 $111 $194 forward 7 unknown #
loop $-1 $-1 $118 $69 #
plane-surface $-1 -68.030640583513886 -28.900509962828416 9.10412905628705 -0.5877852598018023 0 0.80901698891910034 0.80901698891910034 0 0.5877852598018023 forward_v I I I I #
loop $-1 $-1 $195 $45 #
coedge $-1 $116 $116 $117 $196 reversed $70 $-1 #
coedge $-1 $117 $117 $116 $196 forward $72 $-1 #
coedge $-1 $118 $118 $73 $119 forward $113 $-1 #
edge $-1 $197 0 $197 6.2831853071796004 $118 $198 forward 7 unknown #
face $-1 $199 $200 $18 $-1 $201 reversed single #
loop $-1 $-1 $202 $74 #
plane-surface $-1 -68.0306405835139 0 0 1 0 0 0 0 -1 forward_v I I I I #
coedge $-1 $203 $131 $204 $205 forward $75 $-1 #
coedge $-1 $206 $77 $203 $207 forward $49 $-1 #
coedge $-1 $77 $206 $208 $209 forward $49 $-1 #
coedge $-1 $134 $133 $77 $127 reversed $135 $-1 #
edge $-1 $210 -46.866544361212014 $211 46.866544361212014 $126 $212 forward 7 unknown #
coedge $-1 $79 $78 $213 $214 forward $31 $-1 #
coedge $-1 $215 $216 $78 $130 reversed $200 $-1 #
edge $-1 $137 -68.0306405835139 $217 68.0306405835139 $129 $218 forward 7 unknown #
coedge $-1 $123 $219 $79 $132 reversed $75 $-1 #
edge $-1 $220 -68.0306405835139 $136 68.0306405835139 $131 $221 forward 7 unknown #
coedge $-1 $126 $80 $219 $222 forward $135 $-1 #
coedge $-1 $80 $126 $215 $223 reversed $135 $-1 #
loop $-1 $-1 $133 $199 #
vertex $-1 $81 $224 #
vertex $-1 $81 $225 #
straight-curve $-1 68.0306405835139 0 14.63565788233705 0 1 0 I I #
face $-1 $226 $227 $19 $-1 $228 reversed single #
loop $-1 $-1 $229 $82 #
plane-surface $-1 -68.0306405835139 0 0 1 0 0 0 0 -1 forward_v I I I I #
coedge $-1 $230 $148 $153 $231 reversed $83 $-1 #
coedge $-1 $232 $85 $233 $234 reversed $53 $-1 #
coedge $-1 $85 $232 $230 $235 forward $53 $-1 #
coedge $-1 $153 $152 $85 $146 forward $154 $-1 #
edge $-1 $236 -26.561116437645225 $237 -14.049739409488353 $145 $238 forward 7 unknown #
coedge $-1 $87 $86 $229 $239 reversed $34 $-1 #
coedge $-1 $142 $240 $86 $149 reversed $83 $-1 #
edge $-1 $155 -68.0306405835139 $241 68.0306405835139 $148 $242 forward 7 unknown #
coedge $-1 $243 $244 $87 $151 forward $227 $-1 #
edge $-1 $156 -68.0306405835139 $245 68.0306405835139 $150 $246 forward 7 unknown #
coedge $-1 $145 $88 $244 $247 forward $154 $-1 #
coedge $-1 $88 $145 $142 $231 forward $154 $-1 #
loop $-1 $-1 $88 $226 #
vertex $-1 $89 $248 #
vertex $-1 $247 $249 #
straight-curve $-1 68.0306405835139 -20.305427923566789 -0.9765524104222596 0 -1 0 I I #
face $-1 $250 $251 $20 $-1 $252 reversed single #
loop $-1 $-1 $96 $90 #
plane-surface $-1 68.0306405835139 0 0 -1 0 0 0 0 1 forward_v I I I I #
coedge $-1 $253 $169 $254 $255 reversed $91 $-1 #
coedge $-1 $256 $93 $253 $257 forward $57 $-1 #
coedge $-1 $93 $256 $258 $259 reversed $57 $-1 #
coedge $-1 $172 $171 $93 $165 forward $159 $-1 #
edge $-1 $260 14.04973940948835 $261 26.561116437645222 $164 $262 forward 7 unknown #
coedge $-1 $95 $94 $263 $264 reversed $37 $-1 #
coedge $-1 $265 $266 $94 $168 forward $267 $-1 #
edge $-1 $268 -68.0306405835139 $173 68.0306405835139 $167 $269 forward 7 unknown #
coedge $-1 $161 $270 $95 $170 reversed $91 $-1 #
edge $-1 $271 -68.0306405835139 $174 68.0306405835139 $169 $272 forward 7 unknown #
coedge $-1 $164 $96 $270 $273 forward $159 $-1 #
coedge $-1 $96 $164 $265 $274 reversed $159 $-1 #
vertex $-1 $274 $275 #
vertex $-1 $97 $276 #
straight-curve $-1 68.0306405835139 20.305427923566786 -0.9765524104222596 0 -1 0 I I #
face $-1 $-1 $277 $21 $-1 $278 forward single #
loop $-1 $-1 $104 $98 #
plane-surface $-1 -68.0306405835139 0 0 1 0 0 0 0 -1 forward_v I I I I #
coedge $-1 $279 $280 $281 $282 reversed $99 $-1 #
coedge $-1 $283 $101 $103 $186 forward $61 $-1 #
coedge $-1 $101 $283 $279 $284 forward $61 $-1 #
coedge $-1 $281 $104 $101 $183 forward $177 $-1 #
edge $-1 $189 8.995597611187474 $285 19.904912351640942 $182 $286 forward 7 unknown #
coedge $-1 $287 $288 $102 $185 forward $277 $-1 #
edge $-1 $289 -13.585583578236047 $188 -5.9720874581067989 $184 $290 forward 7 unknown #
edge $-1 $189 -1.7761521089745031e-014 $289 9.4107988143751644 $103 $291 forward 7 unknown #
coedge $-1 $104 $281 $287 $292 reversed $177 $-1 #
vertex $-1 $292 $293 #
vertex $-1 $105 $294 #
straight-curve $-1 -68.0306405835139 -23.445852592601682 59.590008527255492 0 0 -1 I I #
coedge $-1 $191 $191 $-1 $295 reversed $108 $-1 #
edge $-1 $296 0 $296 6.2831853071796004 $109 $297 forward 7 unknown #
vertex $-1 $112 $298 #
ellipse-curve $-1 -64.223892523449265 -31.238220264354155 11.869893469312046 -0.5877852598018023 0 0.80901698891910034 1.2135254833786506 0 0.88167788970270344 1 I I #
coedge $-1 $195 $195 $-1 $299 reversed $115 $-1 #
edge $-1 $300 0 $300 6.2831853071796004 $116 $301 forward 7 unknown #
vertex $-1 $119 $302 #
ellipse-curve $-1 -64.223892523449265 -26.56279966130267 11.869893469312046 -0.5877852598018023 0 0.80901698891910034 1.2135254833786506 0 0.88167788970270344 1 I I #
face $-1 $-1 $135 $18 $-1 $303 reversed single #
loop $-1 $-1 $215 $120 #
plane-surface $-1 0 46.866544361212014 0 0 -1 0 0 0 -1 forward_v I I I I #
coedge $-1 $304 $213 $216 $305 forward $121 $-1 #
coedge $-1 $219 $123 $124 $207 reversed $75 $-1 #
coedge $-1 $213 $304 $123 $205 reversed $121 $-1 #
edge $-1 $220 -14.63565788233705 $306 14.63565788233705 $204 $307 forward 7 unknown #
coedge $-1 $125 $124 $304 $308 forward $49 $-1 #
edge $-1 $211 -68.0306405835139 $306 68.0306405835139 $203 $309 forward 7 unknown #
coedge $-1 $216 $215 $125 $209 reversed $200 $-1 #
edge $-1 $310 -68.0306405835139 $210 68.0306405835139 $208 $311 forward 7 unknown #
vertex $-1 $127 $312 #
vertex $-1 $222 $313 #
straight-curve $-1 68.0306405835139 0 -14.63565788233705 0 -1 0 I I #
coedge $-1 $202 $204 $128 $214 reversed $121 $-1 #
edge $-1 $217 -46.866544361212014 $220 46.866544361212014 $213 $314 forward 7 unknown #
coedge $-1 $208 $129 $134 $223 forward $200 $-1 #
coedge $-1 $129 $208 $202 $305 reversed $200 $-1 #
vertex $-1 $130 $315 #
straight-curve $-1 0 46.866544361212014 14.63565788233705 -1 0 0 I I #
coedge $-1 $131 $203 $133 $222 reversed $75 $-1 #
vertex $-1 $214 $316 #
straight-curve $-1 0 -46.866544361212014 14.63565788233705 1 0 0 I I #
edge $-1 $136 -14.63565788233705 $211 14.63565788233705 $133 $317 forward 7 unknown #
edge $-1 $137 -14.63565788233705 $210 14.63565788233705 $134 $318 forward 7 unknown #
point $-1 68.0306405835139 -46.866544361212014 14.63565788233705 #
point $-1 68.0306405835139 46.866544361212014 14.63565788233705 #
face $-1 $-1 $154 $19 $-1 $319 reversed single #
loop $-1 $-1 $150 $139 #
plane-surface $-1 0 -46.866544361212014 0 0 1 0 0 0 1 forward_v I I I I #
coedge $-1 $320 $321 $147 $239 forward $140 $-1 #
coedge $-1 $240 $142 $144 $235 reversed $83 $-1 #
edge $-1 $237 -3.0584160045107218 $155 0.36843706122206754 $153 $322 forward 7 unknown #
coedge $-1 $144 $143 $323 $324 reversed $53 $-1 #
coedge $-1 $244 $243 $143 $234 forward $227 $-1 #
edge $-1 $325 -68.0306405835139 $236 68.0306405835139 $233 $326 forward 7 unknown #
edge $-1 $327 -68.0306405835139 $237 68.0306405835139 $230 $328 forward 7 unknown #
vertex $-1 $234 $329 #
vertex $-1 $146 $330 #
straight-curve $-1 68.0306405835139 -20.305427923566789 -4.403405476155049 0 1 0 I I #
edge $-1 $245 -26.561116437645225 $241 -14.049739409488353 $229 $331 forward 7 unknown #
coedge $-1 $148 $230 $320 $332 reversed $83 $-1 #
vertex $-1 $239 $333 #
straight-curve $-1 0 -34.355167333055142 -0.9765524104222596 -1 0 0 I I #
coedge $-1 $233 $150 $321 $334 forward $227 $-1 #
coedge $-1 $150 $233 $152 $247 reversed $227 $-1 #
vertex $-1 $334 $335 #
straight-curve $-1 0 -46.866544361212014 -0.9765524104222596 -1 0 0 I I #
edge $-1 $156 0.9765524104222596 $236 4.403405476155049 $152 $336 forward 7 unknown #
point $-1 68.0306405835139 -34.355167333055142 -0.9765524104222596 #
point $-1 68.0306405835139 -46.866544361212014 -0.9765524104222596 #
face $-1 $-1 $267 $20 $-1 $337 reversed single #
loop $-1 $-1 $263 $158 #
plane-surface $-1 -68.0306405835139 0 0 1 0 0 0 0 -1 forward_v I I I I #
coedge $-1 $270 $161 $162 $257 reversed $91 $-1 #
coedge $-1 $263 $338 $161 $255 forward $251 $-1 #
edge $-1 $339 -3.0584160045107218 $271 0.36843706122206754 $254 $340 forward 7 unknown #
coedge $-1 $163 $162 $338 $341 reversed $57 $-1 #
edge $-1 $260 -68.0306405835139 $339 68.0306405835139 $253 $342 forward 7 unknown #
coedge $-1 $266 $265 $163 $259 forward $267 $-1 #
edge $-1 $261 -68.0306405835139 $343 68.0306405835139 $258 $344 forward 7 unknown #
vertex $-1 $165 $345 #
vertex $-1 $259 $346 #
straight-curve $-1 68.0306405835139 20.305427923566786 -4.403405476155049 0 1 0 I I #
coedge $-1 $347 $254 $166 $264 forward $251 $-1 #
edge $-1 $271 14.04973940948835 $268 26.561116437645222 $263 $348 forward 7 unknown #
coedge $-1 $258 $167 $172 $274 forward $267 $-1 #
coedge $-1 $167 $258 $347 $349 reversed $267 $-1 #
loop $-1 $-1 $167 $250 #
vertex $-1 $349 $350 #
straight-curve $-1 0 46.866544361212014 -0.9765524104222596 1 0 0 I I #
coedge $-1 $169 $253 $171 $273 reversed $91 $-1 #
vertex $-1 $264 $351 #
straight-curve $-1 0 34.355167333055135 -0.9765524104222596 1 0 0 I I #
edge $-1 $174 -0.36843706122206754 $260 3.0584160045107218 $171 $352 forward 7 unknown #
edge $-1 $173 0.9765524104222596 $261 4.403405476155049 $172 $353 forward 7 unknown #
point $-1 68.0306405835139 46.866544361212007 -0.9765524104222596 #
point $-1 68.0306405835139 34.355167333055135 -0.9765524104222596 #
loop $-1 $-1 $184 $176 #
plane-surface $-1 0 0 14.63565788233705 0 0 1 1 0 0 forward_v I I I I #
coedge $-1 $280 $179 $181 $284 reversed $99 $-1 #
coedge $-1 $179 $279 $354 $355 reversed $99 $-1 #
coedge $-1 $187 $182 $179 $282 forward $177 $-1 #
edge $-1 $285 -50.485879470968456 $356 -44.954350644918442 $281 $357 forward 7 unknown #
coedge $-1 $181 $180 $288 $358 reversed $61 $-1 #
edge $-1 $359 -9.4107988143751644 $285 1.7761521089745031e-014 $279 $360 forward 7 unknown #
vertex $-1 $183 $361 #
straight-curve $-1 -68.0306405835139 -14.450254981414208 9.1041290562870412 0 -1 0 I I #
coedge $-1 $354 $184 $187 $292 forward $277 $-1 #
coedge $-1 $184 $354 $283 $358 forward $277 $-1 #
vertex $-1 $185 $362 #
straight-curve $-1 -74.002728041620699 -23.445852592601682 14.63565788233705 -1 0 0 I I #
straight-curve $-1 -68.030640583513886 -23.445852592601682 9.10412905628705 0.80901698891910034 0 0.5877852598018023 I I #
edge $-1 $188 23.445852592601682 $356 34.355167333055149 $187 $363 forward 7 unknown #
point $-1 -68.0306405835139 -23.445852592601682 14.63565788233705 #
point $-1 -68.0306405835139 -23.445852592601682 9.1041290562870394 #
edge $-1 $364 1 $364 0 $191 $-1 forward 7 unknown #
vertex $-1 $192 $365 #
ellipse-curve $-1 -60.87525476675804 -31.238220264354155 7.2608890927602356 -0.5877852598018023 0 0.80901698891910034 1.2135254833786506 0 0.88167788970270344 1 I I #
point $-1 -63.010367040070619 -31.238220264354155 12.751571359014747 #
edge $-1 $366 1 $366 0 $195 $-1 forward 7 unknown #
vertex $-1 $196 $367 #
ellipse-curve $-1 -60.87525476675804 -26.56279966130267 7.2608890927602356 -0.5877852598018023 0 0.80901698891910034 1.2135254833786506 0 0.88167788970270344 1 I I #
point $-1 -63.010367040070619 -26.56279966130267 12.751571359014747 #
plane-surface $-1 68.0306405835139 0 0 -1 0 0 0 0 1 forward_v I I I I #
coedge $-1 $204 $202 $206 $308 reversed $121 $-1 #
edge $-1 $217 -14.63565788233705 $310 14.63565788233705 $216 $368 forward 7 unknown #
vertex $-1 $308 $369 #
straight-curve $-1 -68.0306405835139 -46.866544361212014 0 0 0 -1 I I #
edge $-1 $306 -46.866544361212014 $310 46.866544361212014 $304 $370 forward 7 unknown #
straight-curve $-1 0 -46.866544361212014 -14.63565788233705 -1 0 0 I I #
vertex $-1 $209 $371 #
straight-curve $-1 0 46.866544361212014 -14.63565788233705 1 0 0 I I #
point $-1 68.0306405835139 46.866544361212014 -14.63565788233705 #
point $-1 68.0306405835139 -46.866544361212014 -14.63565788233705 #
straight-curve $-1 -68.0306405835139 0 14.63565788233705 0 -1 0 I I #
point $-1 -68.0306405835139 46.866544361212014 14.63565788233705 #
point $-1 -68.0306405835139 -46.866544361212014 14.63565788233705 #
straight-curve $-1 68.0306405835139 -46.866544361212014 0 0 0 -1 I I #
straight-curve $-1 68.0306405835139 46.866544361212014 0 0 0 -1 I I #
plane-surface $-1 68.0306405835139 0 0 -1 0 0 0 0 1 forward_v I I I I #
coedge $-1 $323 $229 $240 $332 forward $140 $-1 #
coedge $-1 $229 $323 $243 $334 reversed $140 $-1 #
straight-curve $-1 68.0306405835139 -34.355167333055142 -1.3449894716443271 0 0 1 I I #
coedge $-1 $321 $320 $232 $324 forward $140 $-1 #
edge $-1 $327 14.049739409488353 $325 26.561116437645225 $323 $372 forward 7 unknown #
vertex $-1 $234 $373 #
straight-curve $-1 0 -46.866544361212014 -4.403405476155049 1 0 0 I I #
vertex $-1 $324 $374 #
straight-curve $-1 0 -34.355167333055142 -4.403405476155049 1 0 0 I I #
point $-1 68.0306405835139 -46.866544361212014 -4.403405476155049 #
point $-1 68.0306405835139 -34.355167333055142 -4.403405476155049 #
straight-curve $-1 -68.0306405835139 -20.305427923566789 -0.9765524104222596 0 1 0 I I #
edge $-1 $241 -0.36843706122206754 $327 3.0584160045107218 $320 $375 forward 7 unknown #
point $-1 -68.0306405835139 -34.355167333055142 -0.9765524104222596 #
edge $-1 $245 0.9765524104222596 $325 4.403405476155049 $321 $376 forward 7 unknown #
point $-1 -68.0306405835139 -46.866544361212014 -0.9765524104222596 #
straight-curve $-1 68.0306405835139 -46.866544361212014 0 0 0 -1 I I #
plane-surface $-1 0 46.866544361212014 0 0 -1 0 0 0 -1 forward_v I I I I #
coedge $-1 $254 $347 $256 $341 forward $251 $-1 #
vertex $-1 $341 $377 #
straight-curve $-1 -68.0306405835139 34.355167333055135 -1.3449894716443271 0 0 1 I I #
edge $-1 $343 -26.561116437645222 $339 -14.04973940948835 $338 $378 forward 7 unknown #
straight-curve $-1 0 34.355167333055135 -4.403405476155049 -1 0 0 I I #
vertex $-1 $259 $379 #
straight-curve $-1 0 46.866544361212014 -4.403405476155049 -1 0 0 I I #
point $-1 68.0306405835139 34.355167333055135 -4.403405476155049 #
point $-1 68.0306405835139 46.866544361212007 -4.403405476155049 #
coedge $-1 $338 $263 $266 $349 forward $251 $-1 #
straight-curve $-1 -68.0306405835139 20.305427923566786 -0.9765524104222596 0 1 0 I I #
edge $-1 $268 0.9765524104222596 $343 4.403405476155049 $266 $380 forward 7 unknown #
point $-1 -68.0306405835139 46.866544361212007 -0.9765524104222596 #
point $-1 -68.0306405835139 34.355167333055135 -0.9765524104222596 #
straight-curve $-1 68.0306405835139 34.355167333055135 -1.3449894716443271 0 0 -1 I I #
straight-curve $-1 68.0306405835139 46.866544361212014 0 0 0 -1 I I #
coedge $-1 $288 $287 $280 $355 forward $277 $-1 #
edge $-1 $356 5.9720874581067989 $359 13.585583578236047 $354 $381 forward 7 unknown #
vertex $-1 $355 $382 #
straight-curve $-1 -68.0306405835139 -34.355167333055149 59.590008527255492 0 0 1 I I #
edge $-1 $359 -19.904912351640942 $289 -8.995597611187474 $288 $383 forward 7 unknown #
vertex $-1 $358 $384 #
straight-curve $-1 -68.030640583513886 -34.355167333055149 9.10412905628705 -0.80901698891910034 0 -0.5877852598018023 I I #
point $-1 -68.0306405835139 -34.355167333055149 9.1041290562870394 #
point $-1 -60.417144463384652 -23.445852592601682 14.63565788233705 #
straight-curve $-1 -68.0306405835139 0 14.63565788233705 0 -1 0 I I #
vertex $-1 $295 $385 #
point $-1 -59.661729283379394 -31.238220264354155 8.1425669824629399 #
vertex $-1 $299 $386 #
point $-1 -59.661729283379394 -26.56279966130267 8.1425669824629399 #
straight-curve $-1 -68.0306405835139 46.866544361212014 0 0 0 -1 I I #
point $-1 -68.0306405835139 -46.866544361212014 -14.63565788233705 #
straight-curve $-1 -68.0306405835139 0 -14.63565788233705 0 1 0 I I #
point $-1 -68.0306405835139 46.866544361212014 -14.63565788233705 #
straight-curve $-1 -68.0306405835139 -20.305427923566789 -4.403405476155049 0 -1 0 I I #
point $-1 -68.0306405835139 -46.866544361212014 -4.403405476155049 #
point $-1 -68.0306405835139 -34.355167333055142 -4.403405476155049 #
straight-curve $-1 -68.0306405835139 -34.355167333055142 -1.3449894716443271 0 0 -1 I I #
straight-curve $-1 -68.0306405835139 -46.866544361212014 0 0 0 -1 I I #
point $-1 -68.0306405835139 34.355167333055135 -4.403405476155049 #
straight-curve $-1 -68.0306405835139 20.305427923566786 -4.403405476155049 0 -1 0 I I #
point $-1 -68.0306405835139 46.866544361212007 -4.403405476155049 #
straight-curve $-1 -68.0306405835139 46.866544361212014 0 0 0 -1 I I #
straight-curve $-1 -74.002728041620699 -34.355167333055149 14.63565788233705 1 0 0 I I #
point $-1 -68.0306405835139 -34.355167333055149 14.63565788233705 #
straight-curve $-1 -60.417144463384652 -14.450254981414208 14.63565788233705 0 1 0 I I #
point $-1 -60.417144463384652 -34.355167333055149 14.63565788233705 #
point $-1 -59.993576877055339 -31.238220264354155 6.0473636093815859 #
point $-1 -59.993576877055339 -26.56279966130267 6.0473636093815859 #
End-of-ACIS-data 