500 0 8 0           
7 Unknown 11 ACIS 5.0 NT 24 Thu Mar 25 22:20:56 1999 
-1 9.9999999999999995e-007 1e-010 
body $-1 $8 $-1 $9 #
body $-1 $10 $-1 $11 #
body $-1 $12 $-1 $13 #
body $-1 $14 $-1 $15 #
body $-1 $16 $-1 $17 #
body $-1 $18 $-1 $19 #
body $-1 $20 $-1 $21 #
body $-1 $22 $-1 $23 #
lump $-1 $-1 $24 $0 #
transform $-1 1 0 0 0 1 0 0 0 1 60.524307992797631 37.365960756538598 11.266805898332988 1 rotate no_reflect no_shear #
lump $-1 $-1 $25 $1 #
transform $-1 1 0 0 0 1 0 0 0 1 60.524307992797631 37.365960756538598 11.266805898332988 1 rotate no_reflect no_shear #
lump $-1 $-1 $26 $2 #
transform $-1 1 0 0 0 1 0 0 0 1 60.524307992797631 37.365960756538598 11.266805898332988 1 rotate no_reflect no_shear #
lump $-1 $-1 $27 $3 #
transform $-1 1 0 0 0 1 0 0 0 1 60.524307992797631 37.365960756538598 11.266805898332988 1 rotate no_reflect no_shear #
lump $-1 $-1 $28 $4 #
transform $-1 1 0 0 0 1 0 0 0 1 60.524307992797631 37.365960756538598 11.266805898332988 1 rotate no_reflect no_shear #
lump $-1 $-1 $29 $5 #
transform $-1 1 0 0 0 1 0 0 0 1 60.524307992797631 37.365960756538598 11.266805898332988 1 rotate no_reflect no_shear #
lump $-1 $-1 $30 $6 #
transform $-1 1 0 0 0 1 0 0 0 1 60.524307992797631 37.365960756538598 11.266805898332988 1 rotate no_reflect no_shear #
lump $-1 $-1 $31 $7 #
transform $-1 1 0 0 0 1 0 0 0 1 60.524307992797631 37.365960756538598 11.266805898332988 1 rotate no_reflect no_shear #
shell $-1 $-1 $-1 $32 $-1 $8 #
shell $-1 $-1 $-1 $33 $-1 $10 #
shell $-1 $-1 $-1 $34 $-1 $12 #
shell $-1 $-1 $-1 $35 $-1 $14 #
shell $-1 $-1 $-1 $36 $-1 $16 #
shell $-1 $-1 $-1 $37 $-1 $18 #
shell $-1 $-1 $-1 $38 $-1 $20 #
shell $-1 $-1 $-1 $39 $-1 $22 #
face $-1 $40 $41 $24 $-1 $42 forward single #
face $-1 $43 $44 $25 $-1 $45 forward single #
face $-1 $46 $47 $26 $-1 $48 reversed single #
face $-1 $49 $50 $27 $-1 $51 forward single #
face $-1 $52 $53 $28 $-1 $54 forward single #
face $-1 $55 $56 $29 $-1 $57 forward single #
face $-1 $58 $59 $30 $-1 $60 reversed single #
face $-1 $61 $62 $31 $-1 $63 forward single #
face $-1 $64 $65 $24 $-1 $66 reversed single #
loop $-1 $-1 $67 $32 #
plane-surface $-1 0 0 11.266805898332988 0 0 1 1 0 0 forward_v I I I I #
face $-1 $68 $69 $25 $-1 $70 reversed single #
loop $-1 $-1 $71 $33 #
plane-surface $-1 0 -31.326107621262835 10.254241741857296 0 0 1 1 0 0 forward_v I I I I #
face $-1 $72 $73 $26 $-1 $74 reversed single #
loop $-1 $-1 $75 $34 #
plane-surface $-1 99.033365296627082 10.687365128368537 174.30214521771339 0 1 0 0.84804810408105047 0 0.52991925155115449 forward_v I I I I #
face $-1 $76 $77 $27 $-1 $78 forward single #
loop $-1 $79 $80 $35 #
cone-surface $-1 58.631485064804508 12.978194898627336 8.9363690821261361 -0.84804810408105047 0 -0.52991925155115449 0.26495962577557725 0 -0.42402405204052523 1 I I 0 1 0.5 forward I I I I #
face $-1 $81 $82 $28 $-1 $83 forward single #
loop $-1 $84 $85 $36 #
cone-surface $-1 58.631485064804508 16.41443955401553 8.9363690821261361 -0.84804810408105047 0 -0.52991925155115449 0.26495962577557725 0 -0.42402405204052523 1 I I 0 1 0.5 forward I I I I #
face $-1 $86 $87 $29 $-1 $88 forward single #
loop $-1 $89 $90 $37 #
cone-surface $-1 58.631485064804508 19.850684209403724 8.9363690821261361 -0.84804810408105047 0 -0.52991925155115449 0.26495962577557725 0 -0.42402405204052523 1 I I 0 1 0.5 forward I I I I #
face $-1 $91 $92 $30 $-1 $93 reversed single #
loop $-1 $-1 $94 $38 #
plane-surface $-1 -60.524307992797631 -18.949235400701852 4.1428638464469003 -0.69465837861970381 0 0.71933979245794832 0.71933979245794832 0 0.69465837861970381 forward_v I I I I #
face $-1 $95 $96 $31 $-1 $97 forward single #
loop $-1 $98 $99 $39 #
cone-surface $-1 -56.083753690643682 -18.949235400701852 6.9260897795263725 0.69465837861970381 0 -0.71933979245794832 1.4386795849158966 0 1.3893167572394076 1 I I 0 1 2 forward I I I I #
face $-1 $100 $101 $24 $-1 $102 reversed single #
loop $-1 $-1 $103 $40 #
plane-surface $-1 0 0 -11.266805898332988 0 0 1 1 0 0 forward_v I I I I #
coedge $-1 $104 $105 $106 $107 forward $41 $-1 #
face $-1 $108 $109 $25 $-1 $110 reversed single #
loop $-1 $-1 $111 $43 #
plane-surface $-1 0 -31.326107621262835 6.4444954729785522 0 0 1 1 0 0 forward_v I I I I #
coedge $-1 $112 $113 $114 $115 reversed $44 $-1 #
face $-1 $116 $117 $26 $-1 $118 reversed single #
loop $-1 $-1 $119 $46 #
plane-surface $-1 -3.6216839915921213 16.41443955401553 110.15615323332364 0.84804810408105047 0 0.52991925155115449 0.52991925155115449 0 -0.84804810408105047 forward_v I I I I #
coedge $-1 $120 $121 $122 $123 reversed $47 $-1 #
face $-1 $-1 $124 $27 $-1 $125 forward single #
loop $-1 $126 $127 $49 #
cone-surface $-1 57.703185941138841 12.978194898627336 8.356303429645779 -0.84804810408105047 0 -0.52991925155115449 0.13247981288778862 0 -0.21201202602026262 1 I I -0.70710678118654746 0.70710678118654746 0.25 forward I I I I #
loop $-1 $-1 $128 $35 #
coedge $-1 $80 $80 $129 $130 reversed $50 $-1 #
face $-1 $-1 $131 $28 $-1 $132 forward single #
loop $-1 $133 $134 $52 #
cone-surface $-1 57.703185941138841 16.41443955401553 8.356303429645779 -0.84804810408105047 0 -0.52991925155115449 0.13247981288778862 0 -0.21201202602026262 1 I I -0.70710678118654746 0.70710678118654746 0.25 forward I I I I #
loop $-1 $-1 $135 $36 #
coedge $-1 $85 $85 $136 $137 reversed $53 $-1 #
face $-1 $-1 $138 $29 $-1 $139 forward single #
loop $-1 $140 $141 $55 #
cone-surface $-1 57.703185941138841 19.850684209403724 8.356303429645779 -0.84804810408105047 0 -0.52991925155115449 0.13247981288778862 0 -0.21201202602026262 1 I I -0.70710678118654746 0.70710678118654746 0.25 forward I I I I #
loop $-1 $-1 $142 $37 #
coedge $-1 $90 $90 $143 $144 reversed $56 $-1 #
face $-1 $145 $146 $30 $-1 $147 forward single #
loop $-1 $-1 $148 $58 #
plane-surface $-1 -144.61174330751038 -12.612216315416635 91.217950146846874 0 -1 0 0.69465837861970381 0 -0.71933979245794832 forward_v I I I I #
coedge $-1 $149 $150 $151 $152 reversed $59 $-1 #
face $-1 $-1 $153 $31 $-1 $154 forward single #
loop $-1 $155 $156 $61 #
cone-surface $-1 -54.637069900336101 -18.949235400701852 5.4280048942048484 0.69465837861970381 0 -0.71933979245794832 0.71933979245794832 0 0.69465837861970381 1 I I -0.70710678118654746 0.70710678118654746 1 forward I I I I #
loop $-1 $-1 $157 $39 #
coedge $-1 $99 $99 $158 $159 reversed $62 $-1 #
face $-1 $160 $161 $24 $-1 $162 reversed single #
loop $-1 $-1 $163 $64 #
plane-surface $-1 0 -37.365960756538598 0 0 1 0 0 0 1 forward_v I I I I #
coedge $-1 $164 $165 $166 $167 forward $65 $-1 #
coedge $-1 $168 $67 $169 $170 forward $41 $-1 #
coedge $-1 $67 $168 $171 $172 forward $41 $-1 #
coedge $-1 $173 $174 $67 $107 reversed $175 $-1 #
edge $-1 $176 -37.365960756538598 $177 37.365960756538598 $106 $178 forward 7 unknown #
face $-1 $179 $180 $25 $-1 $181 reversed single #
loop $-1 $-1 $182 $68 #
plane-surface $-1 0 -25.286254485987072 8.3493686074179241 0 -1 0 0 0 -1 forward_v I I I I #
coedge $-1 $183 $184 $185 $186 reversed $69 $-1 #
coedge $-1 $187 $71 $182 $188 forward $44 $-1 #
coedge $-1 $71 $187 $189 $190 reversed $44 $-1 #
coedge $-1 $191 $192 $71 $115 forward $193 $-1 #
edge $-1 $194 9.6232006753556547 $195 21.702906945907181 $114 $196 forward 7 unknown #
face $-1 $197 $198 $26 $-1 $199 forward single #
loop $-1 $-1 $200 $72 #
plane-surface $-1 99.033365296627082 22.141513979662523 174.30214521771339 0 -1 0 -0.84804810408105047 0 -0.52991925155115449 forward_v I I I I #
coedge $-1 $201 $202 $203 $204 reversed $73 $-1 #
coedge $-1 $121 $75 $205 $206 reversed $47 $-1 #
coedge $-1 $75 $120 $201 $207 reversed $47 $-1 #
coedge $-1 $203 $208 $75 $123 forward $209 $-1 #
edge $-1 $210 75.884266710523704 $211 79.649968663752247 $122 $212 forward 7 unknown #
loop $-1 $-1 $129 $76 #
plane-surface $-1 -3.6216839915921213 16.41443955401553 110.15615323332364 0.84804810408105047 0 0.52991925155115449 0.52991925155115449 0 -0.84804810408105047 forward_v I I I I #
loop $-1 $-1 $213 $49 #
coedge $-1 $127 $127 $128 $214 reversed $77 $-1 #
coedge $-1 $128 $128 $127 $214 forward $79 $-1 #
coedge $-1 $129 $129 $80 $130 forward $124 $-1 #
edge $-1 $215 0 $215 6.2831853071796004 $129 $216 forward 7 unknown #
loop $-1 $-1 $136 $81 #
plane-surface $-1 -3.6216839915921213 16.41443955401553 110.15615323332364 0.84804810408105047 0 0.52991925155115449 0.52991925155115449 0 -0.84804810408105047 forward_v I I I I #
loop $-1 $-1 $217 $52 #
coedge $-1 $134 $134 $135 $218 reversed $82 $-1 #
coedge $-1 $135 $135 $134 $218 forward $84 $-1 #
coedge $-1 $136 $136 $85 $137 forward $131 $-1 #
edge $-1 $219 0 $219 6.2831853071796004 $136 $220 forward 7 unknown #
loop $-1 $-1 $143 $86 #
plane-surface $-1 -3.6216839915921213 16.41443955401553 110.15615323332364 0.84804810408105047 0 0.52991925155115449 0.52991925155115449 0 -0.84804810408105047 forward_v I I I I #
loop $-1 $-1 $221 $55 #
coedge $-1 $141 $141 $142 $222 reversed $87 $-1 #
coedge $-1 $142 $142 $141 $222 forward $89 $-1 #
coedge $-1 $143 $143 $90 $144 forward $138 $-1 #
edge $-1 $223 0 $223 6.2831853071796004 $143 $224 forward 7 unknown #
face $-1 $225 $226 $30 $-1 $227 forward single #
loop $-1 $-1 $228 $91 #
plane-surface $-1 0 -25.286254485987072 8.3493686074179241 0 -1 0 0 0 -1 forward_v I I I I #
coedge $-1 $229 $230 $231 $232 reversed $92 $-1 #
coedge $-1 $233 $94 $228 $234 forward $59 $-1 #
coedge $-1 $94 $233 $229 $235 forward $59 $-1 #
coedge $-1 $231 $236 $94 $152 forward $226 $-1 #
edge $-1 $237 -15.811636785636143 $238 -3.1375986150657091 $151 $239 forward 7 unknown #
loop $-1 $-1 $158 $95 #
plane-surface $-1 -60.524307992797631 -18.949235400701852 4.1428638464469003 -0.69465837861970381 0 0.71933979245794832 0.71933979245794832 0 0.69465837861970381 forward_v I I I I #
loop $-1 $-1 $240 $61 #
coedge $-1 $156 $156 $157 $241 reversed $96 $-1 #
coedge $-1 $157 $157 $156 $241 forward $98 $-1 #
coedge $-1 $158 $158 $99 $159 forward $153 $-1 #
edge $-1 $242 0 $242 6.2831853071796004 $158 $243 forward 7 unknown #
face $-1 $244 $245 $24 $-1 $246 reversed single #
loop $-1 $-1 $247 $100 #
plane-surface $-1 -60.524307992797631 0 0 1 0 0 0 0 -1 forward_v I I I I #
coedge $-1 $248 $171 $249 $250 forward $101 $-1 #
coedge $-1 $251 $103 $248 $252 forward $65 $-1 #
coedge $-1 $103 $251 $253 $254 forward $65 $-1 #
coedge $-1 $174 $173 $103 $167 reversed $175 $-1 #
edge $-1 $255 -37.365960756538598 $256 37.365960756538598 $166 $257 forward 7 unknown #
coedge $-1 $105 $104 $258 $259 forward $41 $-1 #
coedge $-1 $260 $261 $104 $170 reversed $245 $-1 #
edge $-1 $177 -60.524307992797631 $262 60.524307992797631 $169 $263 forward 7 unknown #
coedge $-1 $163 $264 $105 $172 reversed $101 $-1 #
edge $-1 $265 -60.524307992797631 $176 60.524307992797631 $171 $266 forward 7 unknown #
coedge $-1 $166 $106 $264 $267 forward $175 $-1 #
coedge $-1 $106 $166 $260 $268 reversed $175 $-1 #
loop $-1 $-1 $173 $244 #
vertex $-1 $107 $269 #
vertex $-1 $107 $270 #
straight-curve $-1 60.524307992797631 0 11.266805898332988 0 1 0 I I #
face $-1 $271 $272 $25 $-1 $273 reversed single #
loop $-1 $-1 $274 $108 #
plane-surface $-1 -60.524307992797631 0 0 1 0 0 0 0 -1 forward_v I I I I #
coedge $-1 $275 $276 $112 $188 reversed $109 $-1 #
coedge $-1 $277 $111 $278 $279 reversed $69 $-1 #
coedge $-1 $111 $277 $280 $281 forward $69 $-1 #
coedge $-1 $192 $191 $111 $186 forward $193 $-1 #
edge $-1 $282 -21.702906945907181 $283 -9.6232006753556547 $185 $284 forward 7 unknown #
coedge $-1 $113 $112 $274 $285 reversed $44 $-1 #
edge $-1 $194 -60.524307992797631 $286 60.524307992797631 $182 $287 forward 7 unknown #
coedge $-1 $288 $289 $113 $190 forward $272 $-1 #
edge $-1 $195 -60.524307992797631 $290 60.524307992797631 $189 $291 forward 7 unknown #
coedge $-1 $185 $114 $289 $292 forward $193 $-1 #
coedge $-1 $114 $185 $275 $293 forward $193 $-1 #
loop $-1 $-1 $114 $271 #
vertex $-1 $115 $294 #
vertex $-1 $292 $295 #
straight-curve $-1 60.524307992797631 -15.663053810631418 10.254241741857296 0 -1 0 I I #
face $-1 $-1 $209 $26 $-1 $296 reversed single #
loop $-1 $-1 $297 $116 #
plane-surface $-1 0 0 11.266805898332988 0 0 1 1 0 0 forward_v I I I I #
coedge $-1 $298 $299 $300 $301 reversed $117 $-1 #
coedge $-1 $302 $119 $121 $207 forward $73 $-1 #
coedge $-1 $119 $302 $298 $303 forward $73 $-1 #
coedge $-1 $300 $122 $119 $204 forward $209 $-1 #
edge $-1 $211 2.4801453513607719 $304 13.934294202654758 $203 $305 forward 7 unknown #
coedge $-1 $306 $307 $120 $206 forward $198 $-1 #
edge $-1 $308 8.6545536837886843 $210 11.00762534448409 $205 $309 forward 7 unknown #
edge $-1 $211 -121.04861598559523 $308 -116.60818161034354 $121 $310 forward 7 unknown #
coedge $-1 $122 $300 $306 $311 reversed $209 $-1 #
loop $-1 $-1 $300 $197 #
vertex $-1 $311 $312 #
vertex $-1 $123 $313 #
straight-curve $-1 60.524307992797631 10.687365128368537 87.151072608856694 0 0 -1 I I #
coedge $-1 $213 $213 $-1 $314 reversed $126 $-1 #
edge $-1 $315 0 $315 6.2831853071796004 $127 $316 forward 7 unknown #
vertex $-1 $130 $317 #
ellipse-curve $-1 59.347772162449928 12.978194898627336 9.383954921718713 0.84804810408105047 0 0.52991925155115449 0.26495962577557725 0 -0.42402405204052523 1 I I #
coedge $-1 $217 $217 $-1 $318 reversed $133 $-1 #
edge $-1 $319 0 $319 6.2831853071796004 $134 $320 forward 7 unknown #
vertex $-1 $137 $321 #
ellipse-curve $-1 59.347772162449928 16.41443955401553 9.383954921718713 0.84804810408105047 0 0.52991925155115449 0.26495962577557725 0 -0.42402405204052523 1 I I #
coedge $-1 $221 $221 $-1 $322 reversed $140 $-1 #
edge $-1 $323 0 $323 6.2831853071796004 $141 $324 forward 7 unknown #
vertex $-1 $144 $325 #
ellipse-curve $-1 59.347772162449928 19.850684209403724 9.383954921718713 0.84804810408105047 0 0.52991925155115449 0.26495962577557725 0 -0.42402405204052523 1 I I #
face $-1 $-1 $326 $30 $-1 $327 reversed single #
loop $-1 $-1 $236 $145 #
plane-surface $-1 0 0 11.266805898332988 0 0 1 1 0 0 forward_v I I I I #
coedge $-1 $328 $329 $149 $234 reversed $146 $-1 #
coedge $-1 $230 $148 $150 $235 reversed $92 $-1 #
coedge $-1 $148 $229 $330 $331 reversed $92 $-1 #
coedge $-1 $332 $151 $148 $232 forward $226 $-1 #
edge $-1 $238 -19.158621441889693 $333 -11.781563660957559 $231 $334 forward 7 unknown #
coedge $-1 $150 $149 $335 $336 reversed $59 $-1 #
edge $-1 $237 -10.255317248229929 $337 0 $228 $338 forward 7 unknown #
edge $-1 $339 0 $238 10.255317248229929 $229 $340 forward 7 unknown #
coedge $-1 $151 $332 $328 $341 forward $226 $-1 #
vertex $-1 $341 $342 #
vertex $-1 $152 $343 #
straight-curve $-1 -53.14725021186549 -9.474617700350926 11.266805898332988 0 1 0 I I #
coedge $-1 $240 $240 $-1 $344 reversed $155 $-1 #
edge $-1 $345 0 $345 6.2831853071796004 $156 $346 forward 7 unknown #
vertex $-1 $159 $347 #
ellipse-curve $-1 -56.835779102331557 -18.949235400701852 7.704834872389946 -0.69465837861970381 0 0.71933979245794832 1.4386795849158966 0 1.3893167572394076 1 I I #
face $-1 $-1 $175 $24 $-1 $348 reversed single #
loop $-1 $-1 $260 $160 #
plane-surface $-1 0 37.365960756538598 0 0 -1 0 0 0 -1 forward_v I I I I #
coedge $-1 $349 $258 $261 $350 forward $161 $-1 #
coedge $-1 $264 $163 $164 $252 reversed $101 $-1 #
coedge $-1 $258 $349 $163 $250 reversed $161 $-1 #
edge $-1 $265 -11.266805898332988 $351 11.266805898332988 $249 $352 forward 7 unknown #
coedge $-1 $165 $164 $349 $353 forward $65 $-1 #
edge $-1 $256 -60.524307992797631 $351 60.524307992797631 $248 $354 forward 7 unknown #
coedge $-1 $261 $260 $165 $254 reversed $245 $-1 #
edge $-1 $355 -60.524307992797631 $255 60.524307992797631 $253 $356 forward 7 unknown #
vertex $-1 $167 $357 #
vertex $-1 $267 $358 #
straight-curve $-1 60.524307992797631 0 -11.266805898332988 0 -1 0 I I #
coedge $-1 $247 $249 $168 $259 reversed $161 $-1 #
edge $-1 $262 -37.365960756538598 $265 37.365960756538598 $258 $359 forward 7 unknown #
coedge $-1 $253 $169 $174 $268 forward $245 $-1 #
coedge $-1 $169 $253 $247 $350 reversed $245 $-1 #
vertex $-1 $170 $360 #
straight-curve $-1 0 37.365960756538598 11.266805898332988 -1 0 0 I I #
coedge $-1 $171 $248 $173 $267 reversed $101 $-1 #
vertex $-1 $259 $361 #
straight-curve $-1 0 -37.365960756538598 11.266805898332988 1 0 0 I I #
edge $-1 $176 -11.266805898332988 $256 11.266805898332988 $173 $362 forward 7 unknown #
edge $-1 $177 -11.266805898332988 $255 11.266805898332988 $174 $363 forward 7 unknown #
point $-1 60.524307992797631 -37.365960756538598 11.266805898332988 #
point $-1 60.524307992797631 37.365960756538598 11.266805898332988 #
face $-1 $-1 $193 $25 $-1 $364 reversed single #
loop $-1 $-1 $189 $179 #
plane-surface $-1 0 -37.365960756538598 0 0 1 0 0 0 1 forward_v I I I I #
coedge $-1 $365 $366 $187 $285 forward $180 $-1 #
coedge $-1 $280 $182 $192 $293 reversed $109 $-1 #
coedge $-1 $182 $280 $365 $367 reversed $109 $-1 #
coedge $-1 $184 $183 $368 $369 reversed $69 $-1 #
coedge $-1 $289 $288 $183 $279 forward $272 $-1 #
edge $-1 $370 -60.524307992797631 $282 60.524307992797631 $278 $371 forward 7 unknown #
coedge $-1 $276 $275 $184 $281 reversed $109 $-1 #
edge $-1 $372 -60.524307992797631 $283 60.524307992797631 $280 $373 forward 7 unknown #
vertex $-1 $279 $374 #
vertex $-1 $186 $375 #
straight-curve $-1 60.524307992797631 -15.663053810631418 6.4444954729785522 0 1 0 I I #
edge $-1 $290 -21.702906945907181 $286 -9.6232006753556547 $274 $376 forward 7 unknown #
vertex $-1 $285 $377 #
straight-curve $-1 0 -25.286254485987072 10.254241741857296 -1 0 0 I I #
coedge $-1 $278 $189 $366 $378 forward $272 $-1 #
coedge $-1 $189 $278 $191 $292 reversed $272 $-1 #
vertex $-1 $378 $379 #
straight-curve $-1 0 -37.365960756538598 10.254241741857296 -1 0 0 I I #
edge $-1 $195 -10.254241741857296 $282 -6.4444954729785522 $191 $380 forward 7 unknown #
edge $-1 $283 2.2698111692695901 $194 6.0795574381483339 $192 $381 forward 7 unknown #
point $-1 60.524307992797631 -25.286254485987072 10.254241741857296 #
point $-1 60.524307992797631 -37.365960756538598 10.254241741857296 #
plane-surface $-1 60.524307992797631 0 0 -1 0 0 0 0 1 forward_v I I I I #
coedge $-1 $307 $306 $299 $382 forward $198 $-1 #
coedge $-1 $299 $200 $202 $303 reversed $117 $-1 #
coedge $-1 $200 $298 $297 $382 reversed $117 $-1 #
coedge $-1 $208 $203 $200 $301 forward $209 $-1 #
edge $-1 $304 -79.649968663752247 $383 -75.884266710523704 $300 $384 forward 7 unknown #
coedge $-1 $202 $201 $307 $385 reversed $73 $-1 #
edge $-1 $386 116.60818161034354 $304 121.04861598559523 $298 $387 forward 7 unknown #
vertex $-1 $204 $388 #
straight-curve $-1 60.524307992797631 8.2072197770077651 7.5011039451044539 0 1 0 I I #
coedge $-1 $297 $205 $208 $311 forward $198 $-1 #
coedge $-1 $205 $297 $302 $385 forward $198 $-1 #
vertex $-1 $206 $389 #
straight-curve $-1 49.516682648313541 10.687365128368537 11.26680589833299 1 0 0 I I #
straight-curve $-1 -3.6216839915921213 10.687365128368537 110.15615323332364 -0.52991925155115449 0 0.84804810408105047 I I #
edge $-1 $210 10.687365128368537 $383 22.141513979662523 $208 $390 forward 7 unknown #
point $-1 60.524307992797631 10.687365128368537 11.266805898332988 #
point $-1 60.524307992797631 10.687365128368537 7.5011039451044468 #
edge $-1 $391 1 $391 0 $213 $-1 forward 7 unknown #
vertex $-1 $214 $392 #
ellipse-curve $-1 57.915197967159102 12.978194898627336 8.4887832425335681 0.84804810408105047 0 0.52991925155115449 0.26495962577557725 0 -0.42402405204052523 1 I I #
point $-1 59.612731788225496 12.978194898627336 8.9599308696781819 #
edge $-1 $393 1 $393 0 $217 $-1 forward 7 unknown #
vertex $-1 $218 $394 #
ellipse-curve $-1 57.915197967159102 16.41443955401553 8.4887832425335681 0.84804810408105047 0 0.52991925155115449 0.26495962577557725 0 -0.42402405204052523 1 I I #
point $-1 59.612731788225496 16.41443955401553 8.9599308696781819 #
edge $-1 $395 1 $395 0 $221 $-1 forward 7 unknown #
vertex $-1 $222 $396 #
ellipse-curve $-1 57.915197967159102 19.850684209403724 8.4887832425335681 0.84804810408105047 0 0.52991925155115449 0.26495962577557725 0 -0.42402405204052523 1 I I #
point $-1 59.612731788225496 19.850684209403724 8.9599308696781819 #
loop $-1 $-1 $397 $225 #
plane-surface $-1 -60.524307992797631 0 0 1 0 0 0 0 -1 forward_v I I I I #
coedge $-1 $329 $228 $236 $341 reversed $146 $-1 #
coedge $-1 $228 $328 $397 $398 reversed $146 $-1 #
coedge $-1 $335 $399 $230 $331 forward $326 $-1 #
edge $-1 $333 34.342169175090447 $339 41.466111226976537 $330 $400 forward 7 unknown #
coedge $-1 $236 $231 $399 $401 forward $226 $-1 #
vertex $-1 $401 $402 #
straight-curve $-1 -72.30587165375519 -12.612216315416635 11.26680589833299 -1 0 0 I I #
coedge $-1 $397 $330 $233 $336 forward $326 $-1 #
edge $-1 $339 3.1375986150657091 $337 15.811636785636143 $335 $403 forward 7 unknown #
vertex $-1 $398 $404 #
straight-curve $-1 -60.524307992797631 -25.286254485987069 4.1428638464469003 -0.71933979245794832 0 -0.69465837861970381 I I #
vertex $-1 $336 $405 #
straight-curve $-1 -60.524307992797631 -12.612216315416635 4.1428638464469003 0.71933979245794832 0 0.69465837861970381 I I #
edge $-1 $406 11.781563660957559 $237 19.158621441889693 $236 $407 forward 7 unknown #
point $-1 -53.147250211865497 -25.286254485987069 11.266805898332986 #
point $-1 -53.147250211865497 -12.612216315416635 11.266805898332986 #
edge $-1 $408 1 $408 0 $240 $-1 forward 7 unknown #
vertex $-1 $241 $409 #
ellipse-curve $-1 -55.331728278955808 -18.949235400701852 6.1473446866627963 -0.69465837861970381 0 0.71933979245794832 1.4386795849158966 0 1.3893167572394076 1 I I #
point $-1 -55.397099517415668 -18.949235400701852 9.0941516296293567 #
plane-surface $-1 60.524307992797631 0 0 -1 0 0 0 0 1 forward_v I I I I #
coedge $-1 $249 $247 $251 $353 reversed $161 $-1 #
edge $-1 $262 -11.266805898332988 $355 11.266805898332988 $261 $410 forward 7 unknown #
vertex $-1 $353 $411 #
straight-curve $-1 -60.524307992797631 -37.365960756538598 0 0 0 -1 I I #
edge $-1 $351 -37.365960756538598 $355 37.365960756538598 $349 $412 forward 7 unknown #
straight-curve $-1 0 -37.365960756538598 -11.266805898332988 -1 0 0 I I #
vertex $-1 $254 $413 #
straight-curve $-1 0 37.365960756538598 -11.266805898332988 1 0 0 I I #
point $-1 60.524307992797631 37.365960756538598 -11.266805898332988 #
point $-1 60.524307992797631 -37.365960756538598 -11.266805898332988 #
straight-curve $-1 -60.524307992797631 0 11.266805898332988 0 -1 0 I I #
point $-1 -60.524307992797631 37.365960756538598 11.266805898332988 #
point $-1 -60.524307992797631 -37.365960756538598 11.266805898332988 #
straight-curve $-1 60.524307992797631 -37.365960756538598 0 0 0 -1 I I #
straight-curve $-1 60.524307992797631 37.365960756538598 0 0 0 -1 I I #
plane-surface $-1 60.524307992797631 0 0 -1 0 0 0 0 1 forward_v I I I I #
coedge $-1 $368 $274 $276 $367 forward $180 $-1 #
coedge $-1 $274 $368 $288 $378 reversed $180 $-1 #
edge $-1 $286 -6.0795574381483339 $372 -2.2698111692695901 $365 $414 forward 7 unknown #
coedge $-1 $366 $365 $277 $369 forward $180 $-1 #
edge $-1 $372 9.6232006753556547 $370 21.702906945907181 $368 $415 forward 7 unknown #
vertex $-1 $279 $416 #
straight-curve $-1 0 -37.365960756538598 6.4444954729785522 1 0 0 I I #
vertex $-1 $369 $417 #
straight-curve $-1 0 -25.286254485987072 6.4444954729785522 1 0 0 I I #
point $-1 60.524307992797631 -37.365960756538598 6.4444954729785522 #
point $-1 60.524307992797631 -25.286254485987072 6.4444954729785522 #
straight-curve $-1 -60.524307992797631 -15.663053810631418 10.254241741857296 0 1 0 I I #
point $-1 -60.524307992797631 -25.286254485987072 10.254241741857296 #
edge $-1 $290 -10.254241741857296 $370 -6.4444954729785522 $366 $418 forward 7 unknown #
point $-1 -60.524307992797631 -37.365960756538598 10.254241741857296 #
straight-curve $-1 60.524307992797631 -37.365960756538598 0 0 0 -1 I I #
straight-curve $-1 60.524307992797631 -25.286254485987072 4.174684303708962 0 0 1 I I #
edge $-1 $383 -11.00762534448409 $386 -8.6545536837886843 $297 $419 forward 7 unknown #
vertex $-1 $382 $420 #
straight-curve $-1 60.524307992797631 22.141513979662523 87.151072608856694 0 0 1 I I #
edge $-1 $386 -13.934294202654758 $308 -2.4801453513607719 $307 $421 forward 7 unknown #
vertex $-1 $385 $422 #
straight-curve $-1 -3.6216839915921213 22.141513979662523 110.15615323332364 0.52991925155115449 0 -0.84804810408105047 I I #
point $-1 60.524307992797631 22.141513979662523 7.5011039451044468 #
point $-1 58.171236332102225 10.687365128368537 11.26680589833299 #
straight-curve $-1 60.524307992797631 0 11.266805898332988 0 1 0 I I #
vertex $-1 $314 $423 #
point $-1 58.180157592934684 12.978194898627336 8.0647591904930422 #
vertex $-1 $318 $424 #
point $-1 58.180157592934684 16.41443955401553 8.0647591904930422 #
vertex $-1 $322 $425 #
point $-1 58.180157592934684 19.850684209403724 8.0647591904930422 #
coedge $-1 $399 $335 $329 $398 forward $326 $-1 #
edge $-1 $337 -41.466111226976537 $406 -34.342169175090447 $397 $426 forward 7 unknown #
coedge $-1 $330 $397 $332 $401 reversed $326 $-1 #
straight-curve $-1 -60.524307992797631 -12.612216315416635 45.608975073423437 0 0 -1 I I #
edge $-1 $333 12.612216315416635 $406 25.286254485987069 $399 $427 forward 7 unknown #
point $-1 -60.524307992797631 -12.612216315416635 11.266805898332988 #
straight-curve $-1 -60.524307992797631 -9.474617700350926 4.1428638464468968 0 -1 0 I I #
point $-1 -60.524307992797631 -25.286254485987069 4.1428638464469003 #
point $-1 -60.524307992797631 -12.612216315416635 4.1428638464469003 #
vertex $-1 $398 $428 #
straight-curve $-1 -72.30587165375519 -25.286254485987069 11.26680589833299 1 0 0 I I #
vertex $-1 $344 $429 #
point $-1 -53.893048694039905 -18.949235400701852 7.5366614439022044 #
straight-curve $-1 -60.524307992797631 37.365960756538598 0 0 0 -1 I I #
point $-1 -60.524307992797631 -37.365960756538598 -11.266805898332988 #
straight-curve $-1 -60.524307992797631 0 -11.266805898332988 0 1 0 I I #
point $-1 -60.524307992797631 37.365960756538598 -11.266805898332988 #
straight-curve $-1 -60.524307992797631 -25.286254485987072 4.174684303708962 0 0 -1 I I #
straight-curve $-1 -60.524307992797631 -15.663053810631418 6.4444954729785522 0 -1 0 I I #
point $-1 -60.524307992797631 -37.365960756538598 6.4444954729785522 #
point $-1 -60.524307992797631 -25.286254485987072 6.4444954729785522 #
straight-curve $-1 -60.524307992797631 -37.365960756538598 0 0 0 -1 I I #
straight-curve $-1 49.516682648313541 22.141513979662523 11.26680589833299 -1 0 0 I I #
point $-1 60.524307992797631 22.141513979662523 11.266805898332988 #
straight-curve $-1 58.171236332102218 8.2072197770077651 11.266805898332997 0 -1 0 I I #
point $-1 58.171236332102225 22.141513979662523 11.26680589833299 #
point $-1 57.49117391511858 12.978194898627336 8.2238236167579899 #
point $-1 57.49117391511858 16.41443955401553 8.2238236167579899 #
point $-1 57.49117391511858 19.850684209403724 8.2238236167579899 #
straight-curve $-1 -60.524307992797631 -25.286254485987069 45.608975073423437 0 0 1 I I #
straight-curve $-1 -60.524307992797631 0 11.266805898332988 0 -1 0 I I #
point $-1 -60.524307992797631 -25.286254485987069 11.266805898332988 #
point $-1 -53.942411521716394 -18.949235400701852 4.7086651017469006 #
End-of-ACIS-data 