500 0 4 0           
7 Unknown 11 ACIS 5.0 NT 24 Fri Mar 26 18:21:03 1999 
-1 9.9999999999999995e-007 1e-010 
body $-1 $4 $-1 $5 #
body $-1 $6 $-1 $7 #
body $-1 $8 $-1 $9 #
body $-1 $10 $-1 $11 #
lump $-1 $-1 $12 $0 #
transform $-1 1 0 0 0 1 0 0 0 1 54.150822473830374 37.785596798254332 14.747303177408838 1 rotate no_reflect no_shear #
lump $-1 $-1 $13 $1 #
transform $-1 1 0 0 0 1 0 0 0 1 54.150822473830374 37.785596798254332 14.747303177408838 1 rotate no_reflect no_shear #
lump $-1 $-1 $14 $2 #
transform $-1 1 0 0 0 1 0 0 0 1 54.150822473830374 37.785596798254332 14.747303177408838 1 rotate no_reflect no_shear #
lump $-1 $-1 $15 $3 #
transform $-1 1 0 0 0 1 0 0 0 1 54.150822473830374 37.785596798254332 14.747303177408838 1 rotate no_reflect no_shear #
shell $-1 $-1 $-1 $16 $-1 $4 #
shell $-1 $-1 $-1 $17 $-1 $6 #
shell $-1 $-1 $-1 $18 $-1 $8 #
shell $-1 $-1 $-1 $19 $-1 $10 #
face $-1 $20 $21 $12 $-1 $22 forward single #
face $-1 $23 $24 $13 $-1 $25 reversed single #
face $-1 $26 $27 $14 $-1 $28 forward single #
face $-1 $29 $30 $15 $-1 $31 reversed single #
face $-1 $32 $33 $12 $-1 $34 reversed single #
loop $-1 $-1 $35 $16 #
plane-surface $-1 0 0 14.747303177408838 0 0 1 1 0 0 forward_v I I I I #
face $-1 $36 $37 $13 $-1 $38 reversed single #
loop $-1 $-1 $39 $17 #
plane-surface $-1 -71.905401728054329 -33.80148009799565 0 1 0 0 0 0 -1 forward_v I I I I #
face $-1 $40 $41 $14 $-1 $42 forward single #
loop $-1 $-1 $43 $18 #
plane-surface $-1 30.878532134521485 -102.96315458497332 92.577456641181712 -1 0 0 0 -0.6018150307709319 0.79863550430605224 forward_v I I I I #
face $-1 $44 $45 $15 $-1 $46 reversed single #
loop $-1 $47 $48 $19 #
cone-surface $-1 26.046932750638646 -30.963945174682486 8.9912914660101535 0 0.6018150307709319 -0.79863550430605224 2 0 0 1 I I 0 1 2 forward I I I I #
face $-1 $49 $50 $12 $-1 $51 reversed single #
loop $-1 $-1 $52 $20 #
plane-surface $-1 0 0 -14.747303177408838 0 0 1 1 0 0 forward_v I I I I #
coedge $-1 $53 $54 $55 $56 forward $21 $-1 #
face $-1 $57 $58 $13 $-1 $59 forward single #
loop $-1 $-1 $60 $23 #
plane-surface $-1 -63.028112100942352 -29.817363397736969 0 0 -1 0 0 0 -1 forward_v I I I I #
coedge $-1 $61 $62 $63 $64 forward $24 $-1 #
face $-1 $65 $66 $14 $-1 $67 forward single #
loop $-1 $-1 $68 $26 #
plane-surface $-1 26.046932750638632 -37.785596798254332 6.0839178112316574 0 -0.6018150307709319 0.79863550430605224 1 0 0 forward_v I I I I #
coedge $-1 $69 $70 $71 $72 reversed $27 $-1 #
face $-1 $73 $74 $15 $-1 $75 forward single #
loop $-1 $76 $77 $29 #
cone-surface $-1 26.046932750638646 -29.288828750186411 6.768336933394 0 0.6018150307709319 -0.79863550430605224 1 0 0 1 I I -0.70710678118654724 0.70710678118654791 1 forward I I I I #
loop $-1 $-1 $78 $19 #
coedge $-1 $48 $48 $79 $80 reversed $30 $-1 #
face $-1 $81 $82 $12 $-1 $83 reversed single #
loop $-1 $-1 $84 $32 #
plane-surface $-1 0 -37.785596798254332 0 0 1 0 0 0 1 forward_v I I I I #
coedge $-1 $85 $86 $87 $88 forward $33 $-1 #
coedge $-1 $89 $35 $90 $91 forward $21 $-1 #
coedge $-1 $35 $89 $92 $93 forward $21 $-1 #
coedge $-1 $94 $95 $35 $56 reversed $96 $-1 #
edge $-1 $97 -37.785596798254332 $98 37.785596798254332 $55 $99 forward 7 unknown #
face $-1 $100 $101 $13 $-1 $102 reversed single #
loop $-1 $-1 $103 $36 #
plane-surface $-1 0 0 14.747303177408838 0 0 1 1 0 0 forward_v I I I I #
coedge $-1 $104 $105 $106 $107 reversed $37 $-1 #
coedge $-1 $108 $39 $109 $110 reversed $24 $-1 #
coedge $-1 $39 $108 $111 $112 reversed $24 $-1 #
coedge $-1 $105 $104 $39 $64 reversed $37 $-1 #
edge $-1 $113 -14.747303177408838 $114 14.747303177408838 $63 $115 forward 7 unknown #
face $-1 $116 $117 $14 $-1 $118 forward single #
loop $-1 $-1 $119 $40 #
plane-surface $-1 21.215333366755779 -102.96315458497332 92.577456641181712 1 0 0 0 0.6018150307709319 -0.79863550430605224 forward_v I I I I #
coedge $-1 $120 $121 $122 $123 reversed $41 $-1 #
coedge $-1 $70 $43 $121 $124 forward $27 $-1 #
coedge $-1 $43 $69 $125 $126 reversed $27 $-1 #
coedge $-1 $127 $122 $43 $72 forward $117 $-1 #
edge $-1 $128 -25.192680953925755 $129 -13.69598049423233 $71 $130 forward 7 unknown #
face $-1 $131 $132 $15 $-1 $133 forward single #
loop $-1 $-1 $134 $44 #
plane-surface $-1 30.878532134521485 -102.96315458497332 92.577456641181712 -1 0 0 0 -0.6018150307709319 0.79863550430605224 forward_v I I I I #
loop $-1 $-1 $135 $29 #
coedge $-1 $77 $77 $78 $136 forward $45 $-1 #
coedge $-1 $78 $78 $77 $136 reversed $47 $-1 #
coedge $-1 $79 $79 $48 $80 forward $132 $-1 #
edge $-1 $137 -2.1380764919276341e-015 $137 6.2831853071795987 $79 $138 forward 7 unknown #
face $-1 $139 $140 $12 $-1 $141 reversed single #
loop $-1 $-1 $142 $49 #
plane-surface $-1 -54.150822473830374 0 0 1 0 0 0 0 -1 forward_v I I I I #
coedge $-1 $143 $92 $144 $145 forward $50 $-1 #
coedge $-1 $146 $52 $143 $147 forward $33 $-1 #
coedge $-1 $52 $146 $148 $149 forward $33 $-1 #
coedge $-1 $95 $94 $52 $88 reversed $96 $-1 #
edge $-1 $150 -37.785596798254332 $151 37.785596798254332 $87 $152 forward 7 unknown #
coedge $-1 $54 $53 $153 $154 forward $21 $-1 #
coedge $-1 $155 $156 $53 $91 reversed $140 $-1 #
edge $-1 $98 -54.150822473830374 $157 54.150822473830374 $90 $158 forward 7 unknown #
coedge $-1 $84 $159 $54 $93 reversed $50 $-1 #
edge $-1 $160 -54.150822473830374 $97 54.150822473830374 $92 $161 forward 7 unknown #
coedge $-1 $87 $55 $159 $162 forward $96 $-1 #
coedge $-1 $55 $87 $155 $163 reversed $96 $-1 #
loop $-1 $-1 $94 $139 #
vertex $-1 $56 $164 #
vertex $-1 $56 $165 #
straight-curve $-1 54.150822473830374 0 14.747303177408838 0 1 0 I I #
face $-1 $166 $167 $13 $-1 $168 reversed single #
loop $-1 $-1 $169 $57 #
plane-surface $-1 0 0 -14.747303177408838 0 0 1 1 0 0 forward_v I I I I #
coedge $-1 $170 $171 $172 $173 forward $58 $-1 #
coedge $-1 $63 $60 $174 $175 reversed $37 $-1 #
coedge $-1 $60 $63 $176 $177 reversed $37 $-1 #
coedge $-1 $178 $179 $60 $107 forward $180 $-1 #
edge $-1 $181 -14.747303177408838 $182 14.747303177408838 $106 $183 forward 7 unknown #
coedge $-1 $62 $61 $184 $185 reversed $24 $-1 #
coedge $-1 $174 $186 $61 $110 forward $101 $-1 #
edge $-1 $187 -3.9841167002586815 $114 3.9841167002586815 $61 $188 forward 7 unknown #
coedge $-1 $171 $176 $62 $112 forward $58 $-1 #
edge $-1 $113 -3.9841167002586815 $189 3.9841167002586815 $62 $190 forward 7 unknown #
vertex $-1 $177 $191 #
vertex $-1 $175 $192 #
straight-curve $-1 -71.905401728054329 -29.817363397736969 0 0 0 -1 I I #
face $-1 $193 $194 $14 $-1 $195 reversed single #
loop $-1 $-1 $196 $65 #
plane-surface $-1 0 0 14.747303177408838 0 0 1 1 0 0 forward_v I I I I #
coedge $-1 $197 $198 $196 $199 reversed $66 $-1 #
coedge $-1 $200 $68 $198 $201 reversed $41 $-1 #
coedge $-1 $68 $200 $69 $124 reversed $41 $-1 #
coedge $-1 $71 $196 $68 $123 forward $117 $-1 #
edge $-1 $202 8.1918669914364628 $128 17.855065759202169 $122 $203 forward 7 unknown #
edge $-1 $128 -14.395428700209242 $204 0 $69 $205 forward 7 unknown #
coedge $-1 $206 $207 $70 $126 forward $208 $-1 #
edge $-1 $129 31.541425143182018 $204 40.204810509359199 $125 $209 forward 7 unknown #
coedge $-1 $210 $71 $207 $211 forward $117 $-1 #
vertex $-1 $123 $212 #
vertex $-1 $211 $213 #
straight-curve $-1 30.878532134521485 -51.481577292486662 14.747303177408838 0 -1 0 I I #
face $-1 $214 $215 $15 $-1 $216 forward single #
loop $-1 $217 $79 $73 #
plane-surface $-1 26.046932750638632 -37.785596798254332 6.0839178112316574 0 -0.6018150307709319 0.79863550430605224 1 0 0 forward_v I I I I #
coedge $-1 $218 $219 $220 $221 reversed $74 $-1 #
coedge $-1 $135 $135 $-1 $222 forward $76 $-1 #
edge $-1 $223 0 $223 6.2831853071796004 $77 $224 forward 7 unknown #
vertex $-1 $80 $225 #
ellipse-curve $-1 26.046932750638646 -32.037246568407625 10.415610494320246 0 0.6018150307709319 -0.79863550430605224 2 0 0 1 I I #
face $-1 $-1 $96 $12 $-1 $226 reversed single #
loop $-1 $-1 $155 $81 #
plane-surface $-1 0 37.785596798254332 0 0 -1 0 0 0 -1 forward_v I I I I #
coedge $-1 $227 $153 $156 $228 forward $82 $-1 #
coedge $-1 $159 $84 $85 $147 reversed $50 $-1 #
coedge $-1 $153 $227 $84 $145 reversed $82 $-1 #
edge $-1 $160 -14.747303177408838 $229 14.747303177408838 $144 $230 forward 7 unknown #
coedge $-1 $86 $85 $227 $231 forward $33 $-1 #
edge $-1 $151 -54.150822473830374 $229 54.150822473830374 $143 $232 forward 7 unknown #
coedge $-1 $156 $155 $86 $149 reversed $140 $-1 #
edge $-1 $233 -54.150822473830374 $150 54.150822473830374 $148 $234 forward 7 unknown #
vertex $-1 $88 $235 #
vertex $-1 $162 $236 #
straight-curve $-1 54.150822473830374 0 -14.747303177408838 0 -1 0 I I #
coedge $-1 $142 $144 $89 $154 reversed $82 $-1 #
edge $-1 $157 -37.785596798254332 $160 37.785596798254332 $153 $237 forward 7 unknown #
coedge $-1 $148 $90 $95 $163 forward $140 $-1 #
coedge $-1 $90 $148 $142 $228 reversed $140 $-1 #
vertex $-1 $91 $238 #
straight-curve $-1 0 37.785596798254332 14.747303177408838 -1 0 0 I I #
coedge $-1 $92 $143 $94 $162 reversed $50 $-1 #
vertex $-1 $154 $239 #
straight-curve $-1 0 -37.785596798254332 14.747303177408838 1 0 0 I I #
edge $-1 $97 -14.747303177408838 $151 14.747303177408838 $94 $240 forward 7 unknown #
edge $-1 $98 -14.747303177408838 $150 14.747303177408838 $95 $241 forward 7 unknown #
point $-1 54.150822473830374 -37.785596798254332 14.747303177408838 #
point $-1 54.150822473830374 37.785596798254332 14.747303177408838 #
face $-1 $242 $180 $13 $-1 $243 reversed single #
loop $-1 $-1 $244 $100 #
plane-surface $-1 0 -37.785596798254332 0 0 1 0 0 0 1 forward_v I I I I #
coedge $-1 $186 $245 $246 $247 forward $101 $-1 #
coedge $-1 $248 $103 $249 $250 forward $58 $-1 #
coedge $-1 $103 $111 $251 $252 forward $58 $-1 #
coedge $-1 $253 $254 $103 $173 reversed $255 $-1 #
edge $-1 $256 -37.785596798254332 $257 37.785596798254332 $172 $258 forward 7 unknown #
coedge $-1 $259 $109 $104 $175 forward $101 $-1 #
edge $-1 $114 -8.8772896271119777 $181 8.8772896271119777 $104 $260 forward 7 unknown #
coedge $-1 $111 $248 $105 $177 forward $58 $-1 #
edge $-1 $182 -8.8772896271119777 $113 8.8772896271119777 $105 $261 forward 7 unknown #
coedge $-1 $262 $106 $248 $263 reversed $180 $-1 #
coedge $-1 $106 $262 $259 $264 reversed $180 $-1 #
loop $-1 $-1 $106 $166 #
vertex $-1 $264 $265 #
vertex $-1 $177 $266 #
straight-curve $-1 -54.150822473830374 -29.817363397736969 0 0 0 1 I I #
coedge $-1 $244 $251 $108 $185 forward $167 $-1 #
edge $-1 $189 -14.747303177408838 $187 14.747303177408838 $108 $267 forward 7 unknown #
coedge $-1 $109 $169 $244 $268 forward $101 $-1 #
vertex $-1 $110 $269 #
straight-curve $-1 -71.905401728054329 -33.80148009799565 -14.747303177408838 0 1 0 I I #
vertex $-1 $112 $270 #
straight-curve $-1 -71.905401728054329 -33.80148009799565 14.747303177408838 0 -1 0 I I #
point $-1 -71.905401728054329 -29.817363397736969 14.747303177408838 #
point $-1 -71.905401728054329 -29.817363397736969 -14.747303177408838 #
face $-1 $271 $272 $14 $-1 $273 reversed single #
loop $-1 $-1 $274 $116 #
plane-surface $-1 -71.905401728054329 -33.80148009799565 0 1 0 0 0 0 -1 forward_v I I I I #
coedge $-1 $122 $275 $119 $199 forward $117 $-1 #
coedge $-1 $198 $119 $276 $277 reversed $66 $-1 #
coedge $-1 $119 $197 $120 $201 forward $66 $-1 #
edge $-1 $278 13.69598049423233 $202 25.192680953925755 $196 $279 forward 7 unknown #
coedge $-1 $121 $120 $206 $280 reversed $41 $-1 #
edge $-1 $281 0 $202 14.395428700209242 $198 $282 forward 7 unknown #
vertex $-1 $123 $283 #
straight-curve $-1 13.023466375319316 -26.288896338560914 14.747303177408838 1 0 0 I I #
vertex $-1 $280 $284 #
straight-curve $-1 30.878532134521485 -37.785596798254332 6.0839178112316574 0 -0.79863550430605224 -0.6018150307709319 I I #
coedge $-1 $276 $125 $200 $280 forward $208 $-1 #
coedge $-1 $125 $285 $127 $211 reversed $208 $-1 #
loop $-1 $-1 $276 $286 #
straight-curve $-1 30.878532134521485 -37.785596798254332 46.288728320590856 0 0 -1 I I #
coedge $-1 $287 $127 $288 $289 forward $117 $-1 #
edge $-1 $129 30.878532134521485 $290 54.150822473830374 $207 $291 forward 7 unknown #
point $-1 30.878532134521485 -26.288896338560907 14.747303177408838 #
point $-1 30.878532134521485 -37.785596798254332 14.747303177408838 #
face $-1 $292 $293 $15 $-1 $294 forward single #
loop $-1 $-1 $295 $131 #
plane-surface $-1 21.215333366755779 -102.96315458497332 92.577456641181712 1 0 0 0 0.6018150307709319 -0.79863550430605224 forward_v I I I I #
loop $-1 $-1 $296 $73 #
coedge $-1 $219 $134 $297 $298 forward $74 $-1 #
coedge $-1 $134 $218 $299 $300 reversed $74 $-1 #
coedge $-1 $301 $302 $134 $221 forward $293 $-1 #
edge $-1 $303 -25.192680953925755 $304 -13.69598049423233 $220 $305 forward 7 unknown #
edge $-1 $306 1 $306 0 $135 $-1 forward 7 unknown #
vertex $-1 $136 $307 #
ellipse-curve $-1 26.046932750638646 -29.890643780957344 7.5669724377000529 0 -0.6018150307709319 0.79863550430605224 2 0 0 1 I I #
point $-1 28.046932750638646 -32.037246568407625 10.415610494320253 #
plane-surface $-1 54.150822473830374 0 0 -1 0 0 0 0 1 forward_v I I I I #
coedge $-1 $144 $142 $146 $231 reversed $82 $-1 #
edge $-1 $157 -14.747303177408838 $233 14.747303177408838 $156 $308 forward 7 unknown #
vertex $-1 $231 $309 #
straight-curve $-1 -54.150822473830374 -37.785596798254332 0 0 0 -1 I I #
edge $-1 $229 -37.785596798254332 $233 37.785596798254332 $227 $310 forward 7 unknown #
straight-curve $-1 0 -37.785596798254332 -14.747303177408838 -1 0 0 I I #
vertex $-1 $149 $311 #
straight-curve $-1 0 37.785596798254332 -14.747303177408838 1 0 0 I I #
point $-1 54.150822473830374 37.785596798254332 -14.747303177408838 #
point $-1 54.150822473830374 -37.785596798254332 -14.747303177408838 #
straight-curve $-1 -54.150822473830374 0 14.747303177408838 0 -1 0 I I #
point $-1 -54.150822473830374 37.785596798254332 14.747303177408838 #
point $-1 -54.150822473830374 -37.785596798254332 14.747303177408838 #
straight-curve $-1 54.150822473830374 -37.785596798254332 0 0 0 -1 I I #
straight-curve $-1 54.150822473830374 37.785596798254332 0 0 0 -1 I I #
face $-1 $312 $313 $13 $-1 $314 reversed single #
plane-surface $-1 -54.150822473830374 0 0 1 0 0 0 0 -1 forward_v I I I I #
coedge $-1 $315 $184 $186 $268 reversed $167 $-1 #
coedge $-1 $169 $259 $316 $317 forward $101 $-1 #
coedge $-1 $254 $253 $169 $247 reversed $255 $-1 #
edge $-1 $318 -37.785596798254332 $319 37.785596798254332 $246 $320 forward 7 unknown #
coedge $-1 $176 $170 $178 $263 forward $58 $-1 #
coedge $-1 $321 $322 $170 $250 reversed $313 $-1 #
edge $-1 $257 -54.150822473830374 $323 54.150822473830374 $249 $324 forward 7 unknown #
coedge $-1 $184 $315 $171 $252 reversed $167 $-1 #
edge $-1 $189 -71.905401728054329 $256 54.150822473830374 $251 $325 forward 7 unknown #
coedge $-1 $246 $172 $315 $326 forward $255 $-1 #
coedge $-1 $172 $246 $321 $327 reversed $255 $-1 #
loop $-1 $-1 $253 $312 #
vertex $-1 $173 $328 #
vertex $-1 $173 $329 #
straight-curve $-1 54.150822473830374 0 14.747303177408838 0 1 0 I I #
coedge $-1 $245 $174 $179 $264 forward $101 $-1 #
straight-curve $-1 -63.028112100942352 -29.817363397736969 -14.747303177408838 1 0 0 I I #
straight-curve $-1 -63.028112100942352 -29.817363397736969 14.747303177408838 -1 0 0 I I #
coedge $-1 $179 $178 $322 $330 forward $180 $-1 #
edge $-1 $323 -37.785596798254332 $182 29.817363397736969 $178 $331 forward 7 unknown #
edge $-1 $181 -29.817363397736969 $332 37.785596798254332 $179 $333 forward 7 unknown #
point $-1 -54.150822473830374 -29.817363397736969 -14.747303177408838 #
point $-1 -54.150822473830374 -29.817363397736969 14.747303177408838 #
straight-curve $-1 -71.905401728054329 -37.785596798254332 0 0 0 -1 I I #
edge $-1 $319 -117.17893457477273 $187 8.8772896271119777 $244 $334 forward 7 unknown #
point $-1 -71.905401728054329 -37.785596798254332 -14.747303177408838 #
point $-1 -71.905401728054329 -37.785596798254332 14.747303177408838 #
face $-1 $286 $335 $14 $-1 $336 reversed single #
loop $-1 $-1 $337 $193 #
plane-surface $-1 -63.028112100942352 -29.817363397736969 0 0 -1 0 0 0 -1 forward_v I I I I #
coedge $-1 $338 $339 $340 $341 forward $194 $-1 #
coedge $-1 $196 $342 $343 $344 forward $117 $-1 #
coedge $-1 $343 $206 $197 $277 forward $208 $-1 #
edge $-1 $281 -40.204810509359199 $278 -31.541425143182018 $276 $345 forward 7 unknown #
vertex $-1 $277 $346 #
straight-curve $-1 21.215333366755779 -51.481577292486662 14.747303177408838 0 1 0 I I #
edge $-1 $204 -17.855065759202169 $281 -8.1918669914364628 $206 $347 forward 7 unknown #
vertex $-1 $280 $348 #
straight-curve $-1 21.215333366755779 -37.785596798254332 6.0839178112316574 0 0.79863550430605224 0.6018150307709319 I I #
point $-1 21.215333366755779 -26.288896338560907 14.747303177408838 #
point $-1 30.878532134521485 -37.785596798254332 6.0839178112316574 #
coedge $-1 $207 $349 $350 $351 reversed $208 $-1 #
face $-1 $352 $208 $14 $-1 $353 reversed single #
coedge $-1 $354 $210 $355 $356 forward $117 $-1 #
coedge $-1 $350 $357 $210 $289 reversed $358 $-1 #
edge $-1 $290 -37.785596798254332 $359 37.785596798254332 $288 $360 forward 7 unknown #
vertex $-1 $289 $361 #
straight-curve $-1 0 -37.785596798254332 14.747303177408838 1 0 0 I I #
face $-1 $362 $363 $15 $-1 $364 reversed single #
loop $-1 $-1 $365 $214 #
plane-surface $-1 0 0 14.747303177408838 0 0 1 1 0 0 forward_v I I I I #
coedge $-1 $366 $367 $365 $368 reversed $215 $-1 #
coedge $-1 $369 $297 $302 $370 reversed $217 $-1 #
coedge $-1 $296 $371 $218 $298 reversed $217 $-1 #
edge $-1 $303 -14.395428700209242 $372 0 $218 $373 forward 7 unknown #
coedge $-1 $374 $375 $219 $300 forward $376 $-1 #
edge $-1 $304 31.541425143182018 $372 40.204810509359199 $299 $377 forward 7 unknown #
coedge $-1 $378 $220 $375 $379 forward $293 $-1 #
coedge $-1 $220 $365 $296 $370 forward $293 $-1 #
vertex $-1 $370 $380 #
vertex $-1 $379 $381 #
straight-curve $-1 30.878532134521485 -51.481577292486662 14.747303177408838 0 -1 0 I I #
vertex $-1 $222 $382 #
point $-1 28.046932750638646 -29.890643780957344 7.5669724377000529 #
straight-curve $-1 -54.150822473830374 37.785596798254332 0 0 0 -1 I I #
point $-1 -54.150822473830374 -37.785596798254332 -14.747303177408838 #
straight-curve $-1 -54.150822473830374 0 -14.747303177408838 0 1 0 I I #
point $-1 -54.150822473830374 37.785596798254332 -14.747303177408838 #
face $-1 $-1 $255 $13 $-1 $383 reversed single #
loop $-1 $-1 $321 $242 #
plane-surface $-1 0 37.785596798254332 0 0 -1 0 0 0 -1 forward_v I I I I #
coedge $-1 $251 $244 $253 $326 reversed $167 $-1 #
coedge $-1 $322 $321 $245 $317 reversed $313 $-1 #
edge $-1 $332 -54.150822473830374 $318 54.150822473830374 $316 $384 forward 7 unknown #
vertex $-1 $247 $385 #
vertex $-1 $326 $386 #
straight-curve $-1 54.150822473830374 0 -14.747303177408838 0 -1 0 I I #
coedge $-1 $316 $249 $254 $327 forward $313 $-1 #
coedge $-1 $249 $316 $262 $330 reversed $313 $-1 #
vertex $-1 $250 $387 #
straight-curve $-1 0 37.785596798254332 14.747303177408838 -1 0 0 I I #
straight-curve $-1 0 -37.785596798254332 14.747303177408838 1 0 0 I I #
edge $-1 $256 -14.747303177408838 $319 14.747303177408838 $253 $388 forward 7 unknown #
edge $-1 $257 -14.747303177408838 $318 14.747303177408838 $254 $389 forward 7 unknown #
point $-1 54.150822473830374 -37.785596798254332 14.747303177408838 #
point $-1 54.150822473830374 37.785596798254332 14.747303177408838 #
edge $-1 $323 -14.747303177408838 $332 14.747303177408838 $322 $390 forward 7 unknown #
straight-curve $-1 -54.150822473830374 0 14.747303177408838 0 -1 0 I I #
vertex $-1 $317 $391 #
straight-curve $-1 -54.150822473830374 0 -14.747303177408838 0 1 0 I I #
straight-curve $-1 -63.028112100942352 -37.785596798254332 -14.747303177408838 -1 0 0 I I #
loop $-1 $-1 $392 $271 #
plane-surface $-1 0 0 -14.747303177408838 0 0 1 1 0 0 forward_v I I I I #
coedge $-1 $393 $394 $395 $396 reversed $272 $-1 #
coedge $-1 $397 $274 $398 $399 reversed $194 $-1 #
coedge $-1 $274 $397 $342 $400 reversed $194 $-1 #
coedge $-1 $394 $393 $274 $341 reversed $272 $-1 #
edge $-1 $401 -14.747303177408838 $402 14.747303177408838 $340 $403 forward 7 unknown #
coedge $-1 $275 $404 $339 $400 forward $117 $-1 #
coedge $-1 $405 $276 $275 $344 reversed $208 $-1 #
edge $-1 $406 -71.905401728054329 $278 21.215333366755779 $343 $291 forward 7 unknown #
straight-curve $-1 21.215333366755779 -37.785596798254332 46.288728320590856 0 0 1 I I #
point $-1 21.215333366755779 -37.785596798254332 14.747303177408838 #
straight-curve $-1 13.023466375319316 -37.785596798254332 6.0839178112316583 -1 0 0 I I #
point $-1 21.215333366755779 -37.785596798254332 6.0839178112316574 #
coedge $-1 $285 $405 $407 $408 reversed $208 $-1 #
coedge $-1 $409 $288 $285 $351 forward $358 $-1 #
edge $-1 $290 -14.747303177408838 $410 14.747303177408838 $350 $411 forward 7 unknown #
face $-1 $412 $413 $14 $-1 $414 reversed single #
plane-surface $-1 0 -37.785596798254332 0 0 1 0 0 0 1 forward_v I I I I #
coedge $-1 $404 $287 $415 $416 forward $117 $-1 #
coedge $-1 $417 $418 $287 $356 reversed $419 $-1 #
edge $-1 $359 -54.150822473830374 $420 54.150822473830374 $355 $421 forward 7 unknown #
coedge $-1 $288 $409 $417 $422 reversed $358 $-1 #
loop $-1 $-1 $350 $423 #
vertex $-1 $289 $424 #
straight-curve $-1 54.150822473830374 0 14.747303177408838 0 1 0 I I #
point $-1 54.150822473830374 -37.785596798254332 14.747303177408838 #
face $-1 $425 $426 $15 $-1 $427 reversed single #
loop $-1 $-1 $428 $292 #
plane-surface $-1 -71.905401728054329 -33.80148009799565 0 1 0 0 0 0 -1 forward_v I I I I #
coedge $-1 $302 $429 $295 $368 forward $293 $-1 #
coedge $-1 $367 $295 $430 $431 reversed $215 $-1 #
coedge $-1 $295 $366 $369 $432 forward $215 $-1 #
edge $-1 $433 13.69598049423233 $434 25.192680953925755 $365 $435 forward 7 unknown #
coedge $-1 $371 $296 $367 $432 reversed $217 $-1 #
edge $-1 $434 8.1918669914364628 $303 17.855065759202169 $302 $436 forward 7 unknown #
coedge $-1 $297 $369 $374 $437 reversed $217 $-1 #
vertex $-1 $437 $438 #
straight-curve $-1 30.878532134521485 -37.785596798254332 6.0839178112316574 0 -0.79863550430605224 -0.6018150307709319 I I #
coedge $-1 $430 $299 $371 $437 forward $376 $-1 #
coedge $-1 $299 $439 $301 $379 reversed $376 $-1 #
loop $-1 $-1 $430 $440 #
straight-curve $-1 30.878532134521485 -37.785596798254332 46.288728320590856 0 0 -1 I I #
coedge $-1 $441 $301 $442 $443 forward $293 $-1 #
edge $-1 $304 30.878532134521485 $444 54.150822473830374 $375 $445 forward 7 unknown #
point $-1 30.878532134521485 -26.288896338560907 14.747303177408838 #
point $-1 30.878532134521485 -37.785596798254332 14.747303177408838 #
point $-1 26.046932750638646 -28.687013719415479 5.9697014290879471 #
plane-surface $-1 54.150822473830374 0 0 -1 0 0 0 0 1 forward_v I I I I #
straight-curve $-1 0 37.785596798254332 -14.747303177408838 1 0 0 I I #
point $-1 54.150822473830374 37.785596798254332 -14.747303177408838 #
point $-1 54.150822473830374 -37.785596798254332 -14.747303177408838 #
point $-1 -54.150822473830374 37.785596798254332 14.747303177408838 #
straight-curve $-1 54.150822473830374 -37.785596798254332 0 0 0 -1 I I #
straight-curve $-1 54.150822473830374 37.785596798254332 0 0 0 -1 I I #
straight-curve $-1 -54.150822473830374 37.785596798254332 0 0 0 -1 I I #
point $-1 -54.150822473830374 37.785596798254332 -14.747303177408838 #
coedge $-1 $407 $446 $409 $447 forward $335 $-1 #
coedge $-1 $340 $337 $448 $449 reversed $272 $-1 #
coedge $-1 $337 $340 $404 $450 reversed $272 $-1 #
coedge $-1 $415 $451 $337 $396 forward $413 $-1 #
edge $-1 $452 -14.747303177408838 $453 14.747303177408838 $395 $454 forward 7 unknown #
coedge $-1 $339 $338 $405 $455 reversed $194 $-1 #
coedge $-1 $448 $407 $338 $399 forward $335 $-1 #
edge $-1 $456 -3.9841167002586815 $402 3.9841167002586815 $338 $457 forward 7 unknown #
edge $-1 $401 -3.9841167002586815 $406 3.9841167002586815 $339 $458 forward 7 unknown #
vertex $-1 $450 $459 #
vertex $-1 $449 $460 #
straight-curve $-1 -71.905401728054329 -29.817363397736969 0 0 0 -1 I I #
coedge $-1 $342 $354 $394 $450 forward $117 $-1 #
coedge $-1 $349 $343 $397 $455 forward $208 $-1 #
vertex $-1 $400 $461 #
coedge $-1 $398 $392 $349 $408 forward $335 $-1 #
edge $-1 $410 -117.17893457477273 $456 8.8772896271119777 $349 $462 forward 7 unknown #
coedge $-1 $357 $350 $392 $447 reversed $358 $-1 #
vertex $-1 $351 $463 #
straight-curve $-1 54.150822473830374 -37.785596798254332 0 0 0 -1 I I #
face $-1 $423 $419 $14 $-1 $464 reversed single #
loop $-1 $-1 $395 $352 #
plane-surface $-1 -54.150822473830374 0 0 1 0 0 0 0 -1 forward_v I I I I #
coedge $-1 $465 $395 $354 $416 reversed $413 $-1 #
edge $-1 $420 -37.785596798254332 $453 29.817363397736969 $415 $466 forward 7 unknown #
coedge $-1 $467 $355 $357 $422 forward $419 $-1 #
coedge $-1 $355 $467 $465 $468 reversed $419 $-1 #
loop $-1 $-1 $417 $412 #
vertex $-1 $356 $469 #
straight-curve $-1 0 37.785596798254332 14.747303177408838 -1 0 0 I I #
edge $-1 $359 -14.747303177408838 $470 14.747303177408838 $357 $471 forward 7 unknown #
face $-1 $-1 $358 $14 $-1 $472 reversed single #
point $-1 54.150822473830374 37.785596798254332 14.747303177408838 #
face $-1 $440 $473 $15 $-1 $474 reversed single #
loop $-1 $-1 $475 $362 #
plane-surface $-1 -63.028112100942352 -29.817363397736969 0 0 -1 0 0 0 -1 forward_v I I I I #
coedge $-1 $476 $477 $478 $479 forward $363 $-1 #
coedge $-1 $365 $480 $481 $482 forward $293 $-1 #
coedge $-1 $481 $374 $366 $431 forward $376 $-1 #
edge $-1 $483 -40.204810509359199 $433 -31.541425143182018 $430 $484 forward 7 unknown #
edge $-1 $483 0 $434 14.395428700209242 $367 $485 forward 7 unknown #
vertex $-1 $431 $486 #
vertex $-1 $370 $487 #
straight-curve $-1 21.215333366755779 -51.481577292486662 14.747303177408838 0 1 0 I I #
straight-curve $-1 13.023466375319316 -26.288896338560914 14.747303177408838 1 0 0 I I #
edge $-1 $372 -17.855065759202169 $483 -8.1918669914364628 $374 $488 forward 7 unknown #
point $-1 30.878532134521485 -37.785596798254332 6.0839178112316574 #
coedge $-1 $375 $489 $490 $491 reversed $376 $-1 #
face $-1 $492 $376 $15 $-1 $493 reversed single #
coedge $-1 $494 $378 $495 $496 forward $293 $-1 #
coedge $-1 $490 $497 $378 $443 reversed $498 $-1 #
edge $-1 $444 -37.785596798254332 $499 37.785596798254332 $442 $500 forward 7 unknown #
vertex $-1 $443 $501 #
straight-curve $-1 0 -37.785596798254332 14.747303177408838 1 0 0 I I #
coedge $-1 $392 $502 $467 $503 forward $335 $-1 #
edge $-1 $470 -37.785596798254332 $410 37.785596798254332 $409 $504 forward 7 unknown #
coedge $-1 $502 $398 $393 $449 forward $335 $-1 #
edge $-1 $402 -8.8772896271119777 $452 8.8772896271119777 $393 $505 forward 7 unknown #
edge $-1 $453 -8.8772896271119777 $401 8.8772896271119777 $394 $506 forward 7 unknown #
coedge $-1 $395 $465 $502 $507 reversed $413 $-1 #
vertex $-1 $507 $508 #
vertex $-1 $450 $509 #
straight-curve $-1 -54.150822473830374 -29.817363397736969 0 0 0 1 I I #
edge $-1 $406 -14.747303177408838 $456 14.747303177408838 $397 $510 forward 7 unknown #
vertex $-1 $399 $511 #
straight-curve $-1 -71.905401728054329 -33.80148009799565 -14.747303177408838 0 1 0 I I #
straight-curve $-1 -71.905401728054329 -33.80148009799565 14.747303177408838 0 -1 0 I I #
point $-1 -71.905401728054329 -29.817363397736969 14.747303177408838 #
point $-1 -71.905401728054329 -29.817363397736969 -14.747303177408838 #
point $-1 -71.905401728054329 -37.785596798254332 14.747303177408838 #
straight-curve $-1 -63.028112100942352 -37.785596798254332 -14.747303177408838 -1 0 0 I I #
point $-1 54.150822473830374 -37.785596798254332 -14.747303177408838 #
plane-surface $-1 0 37.785596798254332 0 0 -1 0 0 0 -1 forward_v I I I I #
coedge $-1 $451 $415 $418 $468 forward $413 $-1 #
straight-curve $-1 -54.150822473830374 0 14.747303177408838 0 -1 0 I I #
coedge $-1 $418 $417 $446 $503 reversed $419 $-1 #
edge $-1 $420 -14.747303177408838 $512 14.747303177408838 $418 $513 forward 7 unknown #
point $-1 -54.150822473830374 37.785596798254332 14.747303177408838 #
vertex $-1 $447 $514 #
straight-curve $-1 54.150822473830374 37.785596798254332 0 0 0 -1 I I #
plane-surface $-1 54.150822473830374 0 0 -1 0 0 0 0 1 forward_v I I I I #
loop $-1 $-1 $515 $425 #
plane-surface $-1 0 0 -14.747303177408838 0 0 1 1 0 0 forward_v I I I I #
coedge $-1 $516 $517 $518 $519 reversed $426 $-1 #
coedge $-1 $520 $428 $521 $522 reversed $363 $-1 #
coedge $-1 $428 $520 $480 $523 reversed $363 $-1 #
coedge $-1 $517 $516 $428 $479 reversed $426 $-1 #
edge $-1 $524 -14.747303177408838 $525 14.747303177408838 $478 $526 forward 7 unknown #
coedge $-1 $429 $527 $477 $523 forward $293 $-1 #
coedge $-1 $528 $430 $429 $482 reversed $376 $-1 #
edge $-1 $529 -71.905401728054329 $433 21.215333366755779 $481 $445 forward 7 unknown #
vertex $-1 $437 $530 #
straight-curve $-1 21.215333366755779 -37.785596798254332 46.288728320590856 0 0 1 I I #
straight-curve $-1 21.215333366755779 -37.785596798254332 6.0839178112316574 0 0.79863550430605224 0.6018150307709319 I I #
point $-1 21.215333366755779 -37.785596798254332 14.747303177408838 #
point $-1 21.215333366755779 -26.288896338560907 14.747303177408838 #
straight-curve $-1 13.023466375319316 -37.785596798254332 6.0839178112316583 -1 0 0 I I #
coedge $-1 $439 $528 $531 $532 reversed $376 $-1 #
coedge $-1 $533 $442 $439 $491 forward $498 $-1 #
edge $-1 $444 -14.747303177408838 $534 14.747303177408838 $490 $535 forward 7 unknown #
face $-1 $536 $537 $15 $-1 $538 reversed single #
plane-surface $-1 0 -37.785596798254332 0 0 1 0 0 0 1 forward_v I I I I #
coedge $-1 $527 $441 $539 $540 forward $293 $-1 #
coedge $-1 $541 $542 $441 $496 reversed $543 $-1 #
edge $-1 $499 -54.150822473830374 $544 54.150822473830374 $495 $545 forward 7 unknown #
coedge $-1 $442 $533 $541 $546 reversed $498 $-1 #
loop $-1 $-1 $490 $547 #
vertex $-1 $443 $548 #
straight-curve $-1 54.150822473830374 0 14.747303177408838 0 1 0 I I #
point $-1 54.150822473830374 -37.785596798254332 14.747303177408838 #
coedge $-1 $446 $448 $451 $507 forward $335 $-1 #
edge $-1 $512 -54.150822473830374 $470 54.150822473830374 $467 $549 forward 7 unknown #
straight-curve $-1 54.150822473830374 0 -14.747303177408838 0 -1 0 I I #
straight-curve $-1 -63.028112100942352 -29.817363397736969 -14.747303177408838 1 0 0 I I #
straight-curve $-1 -63.028112100942352 -29.817363397736969 14.747303177408838 -1 0 0 I I #
edge $-1 $452 -29.817363397736969 $512 37.785596798254332 $451 $550 forward 7 unknown #
point $-1 -54.150822473830374 -29.817363397736969 -14.747303177408838 #
point $-1 -54.150822473830374 -29.817363397736969 14.747303177408838 #
straight-curve $-1 -71.905401728054329 -37.785596798254332 0 0 0 -1 I I #
point $-1 -71.905401728054329 -37.785596798254332 -14.747303177408838 #
vertex $-1 $503 $551 #
straight-curve $-1 -54.150822473830374 37.785596798254332 0 0 0 -1 I I #
point $-1 54.150822473830374 37.785596798254332 -14.747303177408838 #
coedge $-1 $531 $552 $533 $553 forward $473 $-1 #
coedge $-1 $478 $475 $554 $555 reversed $426 $-1 #
coedge $-1 $475 $478 $527 $556 reversed $426 $-1 #
coedge $-1 $539 $557 $475 $519 forward $537 $-1 #
edge $-1 $558 -14.747303177408838 $559 14.747303177408838 $518 $560 forward 7 unknown #
coedge $-1 $477 $476 $528 $561 reversed $363 $-1 #
coedge $-1 $554 $531 $476 $522 forward $473 $-1 #
edge $-1 $562 -3.9841167002586815 $525 3.9841167002586815 $476 $563 forward 7 unknown #
edge $-1 $524 -3.9841167002586815 $529 3.9841167002586815 $477 $564 forward 7 unknown #
vertex $-1 $556 $565 #
vertex $-1 $555 $566 #
straight-curve $-1 -71.905401728054329 -29.817363397736969 0 0 0 -1 I I #
coedge $-1 $480 $494 $517 $556 forward $293 $-1 #
coedge $-1 $489 $481 $520 $561 forward $376 $-1 #
vertex $-1 $523 $567 #
point $-1 21.215333366755779 -37.785596798254332 6.0839178112316574 #
coedge $-1 $521 $515 $489 $532 forward $473 $-1 #
edge $-1 $534 -117.17893457477273 $562 8.8772896271119777 $489 $568 forward 7 unknown #
coedge $-1 $497 $490 $515 $553 reversed $498 $-1 #
vertex $-1 $491 $569 #
straight-curve $-1 54.150822473830374 -37.785596798254332 0 0 0 -1 I I #
face $-1 $547 $543 $15 $-1 $570 reversed single #
loop $-1 $-1 $518 $492 #
plane-surface $-1 -54.150822473830374 0 0 1 0 0 0 0 -1 forward_v I I I I #
coedge $-1 $571 $518 $494 $540 reversed $537 $-1 #
edge $-1 $544 -37.785596798254332 $559 29.817363397736969 $539 $572 forward 7 unknown #
coedge $-1 $573 $495 $497 $546 forward $543 $-1 #
coedge $-1 $495 $573 $571 $574 reversed $543 $-1 #
loop $-1 $-1 $541 $536 #
vertex $-1 $496 $575 #
straight-curve $-1 0 37.785596798254332 14.747303177408838 -1 0 0 I I #
edge $-1 $499 -14.747303177408838 $576 14.747303177408838 $497 $577 forward 7 unknown #
face $-1 $-1 $498 $15 $-1 $578 reversed single #
point $-1 54.150822473830374 37.785596798254332 14.747303177408838 #
straight-curve $-1 0 37.785596798254332 -14.747303177408838 1 0 0 I I #
straight-curve $-1 -54.150822473830374 0 -14.747303177408838 0 1 0 I I #
point $-1 -54.150822473830374 37.785596798254332 -14.747303177408838 #
coedge $-1 $515 $579 $573 $580 forward $473 $-1 #
edge $-1 $576 -37.785596798254332 $534 37.785596798254332 $533 $581 forward 7 unknown #
coedge $-1 $579 $521 $516 $555 forward $473 $-1 #
edge $-1 $525 -8.8772896271119777 $558 8.8772896271119777 $516 $582 forward 7 unknown #
edge $-1 $559 -8.8772896271119777 $524 8.8772896271119777 $517 $583 forward 7 unknown #
coedge $-1 $518 $571 $579 $584 reversed $537 $-1 #
vertex $-1 $584 $585 #
vertex $-1 $556 $586 #
straight-curve $-1 -54.150822473830374 -29.817363397736969 0 0 0 1 I I #
edge $-1 $529 -14.747303177408838 $562 14.747303177408838 $520 $587 forward 7 unknown #
vertex $-1 $522 $588 #
straight-curve $-1 -71.905401728054329 -33.80148009799565 -14.747303177408838 0 1 0 I I #
straight-curve $-1 -71.905401728054329 -33.80148009799565 14.747303177408838 0 -1 0 I I #
point $-1 -71.905401728054329 -29.817363397736969 14.747303177408838 #
point $-1 -71.905401728054329 -29.817363397736969 -14.747303177408838 #
point $-1 -71.905401728054329 -37.785596798254332 14.747303177408838 #
straight-curve $-1 -63.028112100942352 -37.785596798254332 -14.747303177408838 -1 0 0 I I #
point $-1 54.150822473830374 -37.785596798254332 -14.747303177408838 #
plane-surface $-1 0 37.785596798254332 0 0 -1 0 0 0 -1 forward_v I I I I #
coedge $-1 $557 $539 $542 $574 forward $537 $-1 #
straight-curve $-1 -54.150822473830374 0 14.747303177408838 0 -1 0 I I #
coedge $-1 $542 $541 $552 $580 reversed $543 $-1 #
edge $-1 $544 -14.747303177408838 $589 14.747303177408838 $542 $590 forward 7 unknown #
point $-1 -54.150822473830374 37.785596798254332 14.747303177408838 #
vertex $-1 $553 $591 #
straight-curve $-1 54.150822473830374 37.785596798254332 0 0 0 -1 I I #
plane-surface $-1 54.150822473830374 0 0 -1 0 0 0 0 1 forward_v I I I I #
coedge $-1 $552 $554 $557 $584 forward $473 $-1 #
edge $-1 $589 -54.150822473830374 $576 54.150822473830374 $573 $592 forward 7 unknown #
straight-curve $-1 54.150822473830374 0 -14.747303177408838 0 -1 0 I I #
straight-curve $-1 -63.028112100942352 -29.817363397736969 -14.747303177408838 1 0 0 I I #
straight-curve $-1 -63.028112100942352 -29.817363397736969 14.747303177408838 -1 0 0 I I #
edge $-1 $558 -29.817363397736969 $589 37.785596798254332 $557 $593 forward 7 unknown #
point $-1 -54.150822473830374 -29.817363397736969 -14.747303177408838 #
point $-1 -54.150822473830374 -29.817363397736969 14.747303177408838 #
straight-curve $-1 -71.905401728054329 -37.785596798254332 0 0 0 -1 I I #
point $-1 -71.905401728054329 -37.785596798254332 -14.747303177408838 #
vertex $-1 $580 $594 #
straight-curve $-1 -54.150822473830374 37.785596798254332 0 0 0 -1 I I #
point $-1 54.150822473830374 37.785596798254332 -14.747303177408838 #
straight-curve $-1 0 37.785596798254332 -14.747303177408838 1 0 0 I I #
straight-curve $-1 -54.150822473830374 0 -14.747303177408838 0 1 0 I I #
point $-1 -54.150822473830374 37.785596798254332 -14.747303177408838 #
End-of-ACIS-data 