500 0 8 0           
7 Unknown 11 ACIS 5.0 NT 24 Thu Mar 25 20:57:46 1999 
-1 9.9999999999999995e-007 1e-010 
body $-1 $8 $-1 $9 #
body $-1 $10 $-1 $11 #
body $-1 $12 $-1 $13 #
body $-1 $14 $-1 $15 #
body $-1 $16 $-1 $17 #
body $-1 $18 $-1 $19 #
body $-1 $20 $-1 $21 #
body $-1 $22 $-1 $23 #
lump $-1 $-1 $24 $0 #
transform $-1 1 0 0 0 1 0 0 0 1 44.543595690786461 24.629684338684321 7.8921425117480979 1 rotate no_reflect no_shear #
lump $-1 $-1 $25 $1 #
transform $-1 1 0 0 0 1 0 0 0 1 44.543595690786461 24.629684338684321 7.8921425117480979 1 rotate no_reflect no_shear #
lump $-1 $-1 $26 $2 #
transform $-1 1 0 0 0 1 0 0 0 1 44.543595690786461 24.629684338684321 7.8921425117480979 1 rotate no_reflect no_shear #
lump $-1 $-1 $27 $3 #
transform $-1 1 0 0 0 1 0 0 0 1 44.543595690786461 24.629684338684321 7.8921425117480979 1 rotate no_reflect no_shear #
lump $-1 $-1 $28 $4 #
transform $-1 1 0 0 0 1 0 0 0 1 44.543595690786461 24.629684338684321 7.8921425117480979 1 rotate no_reflect no_shear #
lump $-1 $-1 $29 $5 #
transform $-1 1 0 0 0 1 0 0 0 1 44.543595690786461 24.629684338684321 7.8921425117480979 1 rotate no_reflect no_shear #
lump $-1 $-1 $30 $6 #
transform $-1 1 0 0 0 1 0 0 0 1 44.543595690786461 24.629684338684321 7.8921425117480979 1 rotate no_reflect no_shear #
lump $-1 $-1 $31 $7 #
transform $-1 1 0 0 0 1 0 0 0 1 44.543595690786461 24.629684338684321 7.8921425117480979 1 rotate no_reflect no_shear #
shell $-1 $-1 $-1 $32 $-1 $8 #
shell $-1 $-1 $-1 $33 $-1 $10 #
shell $-1 $-1 $-1 $34 $-1 $12 #
shell $-1 $-1 $-1 $35 $-1 $14 #
shell $-1 $-1 $-1 $36 $-1 $16 #
shell $-1 $-1 $-1 $37 $-1 $18 #
shell $-1 $-1 $-1 $38 $-1 $20 #
shell $-1 $-1 $-1 $39 $-1 $22 #
face $-1 $40 $41 $24 $-1 $42 forward single #
face $-1 $43 $44 $25 $-1 $45 forward single #
face $-1 $46 $47 $26 $-1 $48 reversed single #
face $-1 $49 $50 $27 $-1 $51 forward single #
face $-1 $52 $53 $28 $-1 $54 forward single #
face $-1 $55 $56 $29 $-1 $57 reversed single #
face $-1 $58 $59 $30 $-1 $60 forward single #
face $-1 $61 $62 $31 $-1 $63 forward single #
face $-1 $64 $65 $24 $-1 $66 reversed single #
loop $-1 $-1 $67 $32 #
plane-surface $-1 0 0 7.8921425117480979 0 0 1 1 0 0 forward_v I I I I #
face $-1 $68 $69 $25 $-1 $70 reversed single #
loop $-1 $-1 $71 $33 #
plane-surface $-1 0 -21.476767745114945 7.3921425117480988 0 0 1 1 0 0 forward_v I I I I #
face $-1 $72 $73 $26 $-1 $74 reversed single #
loop $-1 $-1 $75 $34 #
plane-surface $-1 -105.30091483795064 12.603356780001814 69.529509314407051 0 1 0 -0.68199836817093118 0 0.7313536940579346 forward_v I I I I #
face $-1 $76 $77 $27 $-1 $78 forward single #
loop $-1 $79 $80 $35 #
cone-surface $-1 -41.610321472328557 16.039450368196817 5.0103124040082125 0.68199836817093118 0 -0.7313536940579346 0.7313536940579346 0 0.68199836817093118 1 I I 0 1 1 forward I I I I #
face $-1 $81 $82 $28 $-1 $83 forward single #
loop $-1 $84 $85 $36 #
cone-surface $-1 -41.610321472328557 21.193590750489321 5.0103124040082125 0.68199836817093118 0 -0.7313536940579346 0.7313536940579346 0 0.68199836817093118 1 I I 0 1 1 forward I I I I #
face $-1 $86 $87 $29 $-1 $88 reversed single #
loop $-1 $-1 $89 $37 #
plane-surface $-1 -20.610650819373099 18.616520559343066 65.132581951411694 0.68199836817093118 0 0.7313536940579346 0.7313536940579346 0 -0.68199836817093118 forward_v I I I I #
face $-1 $90 $91 $30 $-1 $92 forward single #
loop $-1 $93 $94 $38 #
cone-surface $-1 41.610321472328536 16.039450368196817 5.0103124040082001 -0.68199836817093118 0 -0.7313536940579346 0.7313536940579346 0 -0.68199836817093118 1 I I 0 1 1 forward I I I I #
face $-1 $95 $96 $31 $-1 $97 forward single #
loop $-1 $98 $99 $39 #
cone-surface $-1 41.610321472328536 21.193590750489321 5.0103124040082001 -0.68199836817093118 0 -0.7313536940579346 0.7313536940579346 0 -0.68199836817093118 1 I I 0 1 1 forward I I I I #
face $-1 $100 $101 $24 $-1 $102 reversed single #
loop $-1 $-1 $103 $40 #
plane-surface $-1 0 0 -7.8921425117480979 0 0 1 1 0 0 forward_v I I I I #
coedge $-1 $104 $105 $106 $107 forward $41 $-1 #
face $-1 $108 $109 $25 $-1 $110 reversed single #
loop $-1 $-1 $111 $43 #
plane-surface $-1 0 -21.476767745114945 4.2759902430480485 0 0 1 1 0 0 forward_v I I I I #
coedge $-1 $112 $113 $114 $115 reversed $44 $-1 #
face $-1 $116 $117 $26 $-1 $118 forward single #
loop $-1 $-1 $119 $46 #
plane-surface $-1 -44.543595690786468 18.616520559343066 4.3752628042474981 -0.68199836817093118 0 0.7313536940579346 0.7313536940579346 0 0.68199836817093118 forward_v I I I I #
coedge $-1 $120 $121 $122 $123 reversed $47 $-1 #
face $-1 $-1 $124 $27 $-1 $125 forward single #
loop $-1 $126 $127 $49 #
cone-surface $-1 -40.221743905492296 16.039450368196817 3.5212453029896533 0.68199836817093118 0 -0.7313536940579346 0.3656768470289673 0 0.34099918408546559 1 I I -0.70710678118654746 0.70710678118654746 0.5 forward I I I I #
loop $-1 $-1 $128 $35 #
coedge $-1 $80 $80 $129 $130 reversed $50 $-1 #
face $-1 $-1 $131 $28 $-1 $132 forward single #
loop $-1 $133 $134 $52 #
cone-surface $-1 -40.221743905492296 21.193590750489321 3.5212453029896533 0.68199836817093118 0 -0.7313536940579346 0.3656768470289673 0 0.34099918408546559 1 I I -0.70710678118654746 0.70710678118654746 0.5 forward I I I I #
loop $-1 $-1 $135 $36 #
coedge $-1 $85 $85 $136 $137 reversed $53 $-1 #
face $-1 $138 $139 $29 $-1 $140 reversed single #
loop $-1 $-1 $141 $55 #
plane-surface $-1 40.146668327791076 12.603356780001814 130.28682846157125 0 1 0 0.68199836817093118 0 0.7313536940579346 forward_v I I I I #
coedge $-1 $142 $143 $144 $145 reversed $56 $-1 #
face $-1 $-1 $146 $30 $-1 $147 forward single #
loop $-1 $148 $149 $58 #
cone-surface $-1 40.221743905492275 16.039450368196817 3.5212453029896409 -0.68199836817093118 0 -0.7313536940579346 0.3656768470289673 0 -0.34099918408546559 1 I I -0.70710678118654746 0.70710678118654746 0.5 forward I I I I #
loop $-1 $-1 $150 $38 #
coedge $-1 $94 $94 $151 $152 reversed $59 $-1 #
face $-1 $-1 $153 $31 $-1 $154 forward single #
loop $-1 $155 $156 $61 #
cone-surface $-1 40.221743905492275 21.193590750489321 3.5212453029896409 -0.68199836817093118 0 -0.7313536940579346 0.3656768470289673 0 -0.34099918408546559 1 I I -0.70710678118654746 0.70710678118654746 0.5 forward I I I I #
loop $-1 $-1 $157 $39 #
coedge $-1 $99 $99 $158 $159 reversed $62 $-1 #
face $-1 $160 $161 $24 $-1 $162 reversed single #
loop $-1 $-1 $163 $64 #
plane-surface $-1 0 -24.629684338684321 0 0 1 0 0 0 1 forward_v I I I I #
coedge $-1 $164 $165 $166 $167 forward $65 $-1 #
coedge $-1 $168 $67 $169 $170 forward $41 $-1 #
coedge $-1 $67 $168 $171 $172 forward $41 $-1 #
coedge $-1 $173 $174 $67 $107 reversed $175 $-1 #
edge $-1 $176 -24.629684338684321 $177 24.629684338684321 $106 $178 forward 7 unknown #
face $-1 $179 $180 $25 $-1 $181 reversed single #
loop $-1 $-1 $182 $68 #
plane-surface $-1 0 -18.323851151545568 5.8340663773980737 0 -1 0 0 0 -1 forward_v I I I I #
coedge $-1 $183 $184 $185 $186 reversed $69 $-1 #
coedge $-1 $187 $71 $188 $189 forward $44 $-1 #
coedge $-1 $71 $187 $190 $191 reversed $44 $-1 #
coedge $-1 $192 $193 $71 $115 forward $194 $-1 #
edge $-1 $195 7.5854672789880961 $196 13.891300466126848 $114 $197 forward 7 unknown #
face $-1 $198 $199 $26 $-1 $200 reversed single #
loop $-1 $-1 $122 $72 #
plane-surface $-1 0 0 7.8921425117480979 0 0 1 1 0 0 forward_v I I I I #
coedge $-1 $201 $202 $203 $204 reversed $73 $-1 #
coedge $-1 $121 $75 $205 $206 reversed $47 $-1 #
coedge $-1 $75 $120 $201 $207 reversed $47 $-1 #
coedge $-1 $203 $208 $75 $123 forward $117 $-1 #
edge $-1 $209 8.1068617281888606 $210 11.878253399603096 $122 $211 forward 7 unknown #
loop $-1 $-1 $129 $76 #
plane-surface $-1 -44.543595690786468 18.616520559343066 4.3752628042474981 -0.68199836817093118 0 0.7313536940579346 0.7313536940579346 0 0.68199836817093118 forward_v I I I I #
loop $-1 $-1 $212 $49 #
coedge $-1 $127 $127 $128 $213 reversed $77 $-1 #
coedge $-1 $128 $128 $127 $213 forward $79 $-1 #
coedge $-1 $129 $129 $80 $130 forward $124 $-1 #
edge $-1 $214 0 $214 6.2831853071796004 $129 $215 forward 7 unknown #
loop $-1 $-1 $136 $81 #
plane-surface $-1 -44.543595690786468 18.616520559343066 4.3752628042474981 -0.68199836817093118 0 0.7313536940579346 0.7313536940579346 0 0.68199836817093118 forward_v I I I I #
loop $-1 $-1 $216 $52 #
coedge $-1 $134 $134 $135 $217 reversed $82 $-1 #
coedge $-1 $135 $135 $134 $217 forward $84 $-1 #
coedge $-1 $136 $136 $85 $137 forward $131 $-1 #
edge $-1 $218 0 $218 6.2831853071796004 $136 $219 forward 7 unknown #
face $-1 $220 $221 $29 $-1 $222 forward single #
loop $-1 $-1 $223 $86 #
plane-surface $-1 44.543595690786461 0 0 -1 0 0 0 0 1 forward_v I I I I #
coedge $-1 $224 $225 $226 $227 reversed $87 $-1 #
coedge $-1 $228 $89 $229 $230 reversed $56 $-1 #
coedge $-1 $89 $228 $224 $231 forward $56 $-1 #
coedge $-1 $226 $232 $89 $145 forward $221 $-1 #
edge $-1 $233 -15.321424059012784 $234 -3.2950965003302812 $144 $235 forward 7 unknown #
loop $-1 $-1 $151 $90 #
plane-surface $-1 -20.610650819373099 18.616520559343066 65.132581951411694 0.68199836817093118 0 0.7313536940579346 0.7313536940579346 0 -0.68199836817093118 forward_v I I I I #
loop $-1 $-1 $236 $58 #
coedge $-1 $149 $149 $150 $237 reversed $91 $-1 #
coedge $-1 $150 $150 $149 $237 forward $93 $-1 #
coedge $-1 $151 $151 $94 $152 forward $146 $-1 #
edge $-1 $238 0 $238 6.2831853071796004 $151 $239 forward 7 unknown #
loop $-1 $-1 $158 $95 #
plane-surface $-1 -20.610650819373099 18.616520559343066 65.132581951411694 0.68199836817093118 0 0.7313536940579346 0.7313536940579346 0 -0.68199836817093118 forward_v I I I I #
loop $-1 $-1 $240 $61 #
coedge $-1 $156 $156 $157 $241 reversed $96 $-1 #
coedge $-1 $157 $157 $156 $241 forward $98 $-1 #
coedge $-1 $158 $158 $99 $159 forward $153 $-1 #
edge $-1 $242 0 $242 6.2831853071796004 $158 $243 forward 7 unknown #
face $-1 $244 $245 $24 $-1 $246 reversed single #
loop $-1 $-1 $247 $100 #
plane-surface $-1 -44.543595690786461 0 0 1 0 0 0 0 -1 forward_v I I I I #
coedge $-1 $248 $171 $249 $250 forward $101 $-1 #
coedge $-1 $251 $103 $248 $252 forward $65 $-1 #
coedge $-1 $103 $251 $253 $254 forward $65 $-1 #
coedge $-1 $174 $173 $103 $167 reversed $175 $-1 #
edge $-1 $255 -24.629684338684321 $256 24.629684338684321 $166 $257 forward 7 unknown #
coedge $-1 $105 $104 $258 $259 forward $41 $-1 #
coedge $-1 $260 $261 $104 $170 reversed $245 $-1 #
edge $-1 $177 -44.543595690786461 $262 44.543595690786461 $169 $263 forward 7 unknown #
coedge $-1 $163 $264 $105 $172 reversed $101 $-1 #
edge $-1 $265 -44.543595690786461 $176 44.543595690786461 $171 $266 forward 7 unknown #
coedge $-1 $166 $106 $264 $267 forward $175 $-1 #
coedge $-1 $106 $166 $260 $268 reversed $175 $-1 #
loop $-1 $-1 $173 $244 #
vertex $-1 $107 $269 #
vertex $-1 $107 $270 #
straight-curve $-1 44.543595690786461 0 7.8921425117480979 0 1 0 I I #
face $-1 $271 $272 $25 $-1 $273 reversed single #
loop $-1 $-1 $274 $108 #
plane-surface $-1 -44.543595690786461 0 0 1 0 0 0 0 -1 forward_v I I I I #
coedge $-1 $275 $188 $193 $276 reversed $109 $-1 #
coedge $-1 $277 $111 $278 $279 reversed $69 $-1 #
coedge $-1 $111 $277 $275 $280 forward $69 $-1 #
coedge $-1 $193 $192 $111 $186 forward $194 $-1 #
edge $-1 $281 -13.891300466126848 $282 -7.5854672789880961 $185 $283 forward 7 unknown #
coedge $-1 $113 $112 $274 $284 reversed $44 $-1 #
coedge $-1 $182 $285 $112 $189 reversed $109 $-1 #
edge $-1 $195 -44.543595690786461 $286 44.543595690786461 $188 $287 forward 7 unknown #
coedge $-1 $288 $289 $113 $191 forward $272 $-1 #
edge $-1 $196 -44.543595690786461 $290 44.543595690786461 $190 $291 forward 7 unknown #
coedge $-1 $185 $114 $289 $292 forward $194 $-1 #
coedge $-1 $114 $185 $182 $276 forward $194 $-1 #
loop $-1 $-1 $114 $271 #
vertex $-1 $115 $293 #
vertex $-1 $292 $294 #
straight-curve $-1 44.543595690786461 -10.738383872557472 7.3921425117480988 0 -1 0 I I #
face $-1 $-1 $295 $26 $-1 $296 reversed single #
loop $-1 $-1 $297 $116 #
plane-surface $-1 0 24.629684338684321 0 0 -1 0 0 0 -1 forward_v I I I I #
coedge $-1 $298 $119 $121 $207 forward $73 $-1 #
coedge $-1 $119 $298 $297 $299 reversed $73 $-1 #
coedge $-1 $300 $122 $119 $204 forward $117 $-1 #
edge $-1 $210 3.2950965003302812 $301 15.321424059012784 $203 $302 forward 7 unknown #
coedge $-1 $303 $304 $120 $206 forward $295 $-1 #
edge $-1 $305 -30.38949185295602 $209 -26.872612145455427 $205 $306 forward 7 unknown #
edge $-1 $210 -5.1567274521970052 $305 -9.4367341760026555e-015 $121 $307 forward 7 unknown #
coedge $-1 $122 $300 $303 $308 forward $117 $-1 #
vertex $-1 $206 $309 #
vertex $-1 $123 $310 #
straight-curve $-1 -52.650457418975321 12.603356780001814 7.8921425117480979 1 0 0 I I #
coedge $-1 $212 $212 $-1 $311 reversed $126 $-1 #
edge $-1 $312 0 $312 6.2831853071796004 $127 $313 forward 7 unknown #
vertex $-1 $130 $314 #
ellipse-curve $-1 -42.657899855079343 16.039450368196817 6.1337026579977998 -0.68199836817093118 0 0.7313536940579346 0.7313536940579346 0 0.68199836817093118 1 I I #
coedge $-1 $216 $216 $-1 $315 reversed $133 $-1 #
edge $-1 $316 0 $316 6.2831853071796004 $134 $317 forward 7 unknown #
vertex $-1 $137 $318 #
ellipse-curve $-1 -42.657899855079343 21.193590750489321 6.1337026579977998 -0.68199836817093118 0 0.7313536940579346 0.7313536940579346 0 0.68199836817093118 1 I I #
face $-1 $-1 $319 $29 $-1 $320 reversed single #
loop $-1 $-1 $226 $138 #
plane-surface $-1 0 0 7.8921425117480979 0 0 1 1 0 0 forward_v I I I I #
coedge $-1 $321 $322 $225 $323 forward $139 $-1 #
coedge $-1 $225 $141 $143 $231 reversed $87 $-1 #
coedge $-1 $141 $224 $223 $323 reversed $87 $-1 #
coedge $-1 $324 $144 $141 $227 forward $221 $-1 #
edge $-1 $234 20.698869855476694 $325 24.470261526890923 $226 $326 forward 7 unknown #
coedge $-1 $143 $142 $321 $327 reversed $56 $-1 #
coedge $-1 $328 $329 $142 $230 forward $319 $-1 #
edge $-1 $330 -59.340196271918479 $233 -54.183468819721476 $229 $331 forward 7 unknown #
edge $-1 $332 -89.08719138157295 $234 -83.930463929375946 $224 $333 forward 7 unknown #
coedge $-1 $144 $324 $328 $334 forward $221 $-1 #
vertex $-1 $230 $335 #
vertex $-1 $145 $336 #
straight-curve $-1 40.772204019372232 9.3082602796715328 7.8921425117480979 0 -1 0 I I #
coedge $-1 $236 $236 $-1 $337 reversed $148 $-1 #
edge $-1 $338 0 $338 6.2831853071796004 $149 $339 forward 7 unknown #
vertex $-1 $152 $340 #
ellipse-curve $-1 42.657899855079343 16.039450368196817 6.133702657997806 0.68199836817093118 0 0.7313536940579346 0.7313536940579346 0 -0.68199836817093118 1 I I #
coedge $-1 $240 $240 $-1 $341 reversed $155 $-1 #
edge $-1 $342 0 $342 6.2831853071796004 $156 $343 forward 7 unknown #
vertex $-1 $159 $344 #
ellipse-curve $-1 42.657899855079343 21.193590750489321 6.133702657997806 0.68199836817093118 0 0.7313536940579346 0.7313536940579346 0 -0.68199836817093118 1 I I #
face $-1 $-1 $175 $24 $-1 $345 reversed single #
loop $-1 $-1 $260 $160 #
plane-surface $-1 0 24.629684338684321 0 0 -1 0 0 0 -1 forward_v I I I I #
coedge $-1 $346 $258 $261 $347 forward $161 $-1 #
coedge $-1 $264 $163 $164 $252 reversed $101 $-1 #
coedge $-1 $258 $346 $163 $250 reversed $161 $-1 #
edge $-1 $265 -7.8921425117480979 $348 7.8921425117480979 $249 $349 forward 7 unknown #
coedge $-1 $165 $164 $346 $350 forward $65 $-1 #
edge $-1 $256 -44.543595690786461 $348 44.543595690786461 $248 $351 forward 7 unknown #
coedge $-1 $261 $260 $165 $254 reversed $245 $-1 #
edge $-1 $352 -44.543595690786461 $255 44.543595690786461 $253 $353 forward 7 unknown #
vertex $-1 $167 $354 #
vertex $-1 $267 $355 #
straight-curve $-1 44.543595690786461 0 -7.8921425117480979 0 -1 0 I I #
coedge $-1 $247 $249 $168 $259 reversed $161 $-1 #
edge $-1 $262 -24.629684338684321 $265 24.629684338684321 $258 $356 forward 7 unknown #
coedge $-1 $253 $169 $174 $268 forward $245 $-1 #
coedge $-1 $169 $253 $247 $347 reversed $245 $-1 #
vertex $-1 $170 $357 #
straight-curve $-1 0 24.629684338684321 7.8921425117480979 -1 0 0 I I #
coedge $-1 $171 $248 $173 $267 reversed $101 $-1 #
vertex $-1 $259 $358 #
straight-curve $-1 0 -24.629684338684321 7.8921425117480979 1 0 0 I I #
edge $-1 $176 -7.8921425117480979 $256 7.8921425117480979 $173 $359 forward 7 unknown #
edge $-1 $177 -7.8921425117480979 $255 7.8921425117480979 $174 $360 forward 7 unknown #
point $-1 44.543595690786461 -24.629684338684321 7.8921425117480979 #
point $-1 44.543595690786461 24.629684338684321 7.8921425117480979 #
face $-1 $-1 $194 $25 $-1 $361 reversed single #
loop $-1 $-1 $190 $179 #
plane-surface $-1 0 -24.629684338684321 0 0 1 0 0 0 1 forward_v I I I I #
coedge $-1 $362 $363 $187 $284 forward $180 $-1 #
coedge $-1 $285 $182 $184 $280 reversed $109 $-1 #
edge $-1 $282 1.3589570543490117 $195 4.4751093230490619 $193 $364 forward 7 unknown #
coedge $-1 $184 $183 $365 $366 reversed $69 $-1 #
coedge $-1 $289 $288 $183 $279 forward $272 $-1 #
edge $-1 $367 -44.543595690786461 $281 44.543595690786461 $278 $368 forward 7 unknown #
edge $-1 $369 -44.543595690786461 $282 44.543595690786461 $275 $370 forward 7 unknown #
vertex $-1 $279 $371 #
vertex $-1 $186 $372 #
straight-curve $-1 44.543595690786461 -10.738383872557472 4.2759902430480485 0 1 0 I I #
edge $-1 $290 -13.891300466126848 $286 -7.5854672789880961 $274 $373 forward 7 unknown #
coedge $-1 $188 $275 $362 $374 reversed $109 $-1 #
vertex $-1 $284 $375 #
straight-curve $-1 0 -18.323851151545568 7.3921425117480988 -1 0 0 I I #
coedge $-1 $278 $190 $363 $376 forward $272 $-1 #
coedge $-1 $190 $278 $192 $292 reversed $272 $-1 #
vertex $-1 $376 $377 #
straight-curve $-1 0 -24.629684338684321 7.3921425117480988 -1 0 0 I I #
edge $-1 $196 -7.3921425117480988 $281 -4.2759902430480485 $192 $378 forward 7 unknown #
point $-1 44.543595690786461 -18.323851151545568 7.3921425117480988 #
point $-1 44.543595690786461 -24.629684338684321 7.3921425117480988 #
loop $-1 $-1 $205 $198 #
plane-surface $-1 -44.543595690786461 0 0 1 0 0 0 0 -1 forward_v I I I I #
coedge $-1 $379 $380 $202 $299 forward $199 $-1 #
coedge $-1 $202 $201 $304 $381 reversed $73 $-1 #
edge $-1 $301 9.639873128935001 $382 14.796600581131997 $297 $383 forward 7 unknown #
coedge $-1 $208 $203 $380 $384 forward $117 $-1 #
vertex $-1 $384 $385 #
straight-curve $-1 -40.772204019372232 9.3082602796715328 7.8921425117480979 0 1 0 I I #
coedge $-1 $386 $205 $208 $308 reversed $295 $-1 #
coedge $-1 $205 $386 $298 $381 forward $295 $-1 #
vertex $-1 $206 $387 #
straight-curve $-1 -44.543595690786461 12.603356780001814 34.764754657203525 0 0 1 I I #
straight-curve $-1 -44.543595690786468 12.603356780001814 4.3752628042474981 -0.7313536940579346 0 -0.68199836817093118 I I #
edge $-1 $388 -24.629684338684321 $209 -12.603356780001814 $303 $389 forward 7 unknown #
point $-1 -44.543595690786461 12.603356780001814 7.8921425117480979 #
point $-1 -40.772204019372225 12.603356780001814 7.8921425117480979 #
edge $-1 $390 1 $390 0 $212 $-1 forward 7 unknown #
vertex $-1 $213 $391 #
ellipse-curve $-1 -40.562743089577765 16.039450368196817 3.8869221500186208 -0.68199836817093118 0 0.7313536940579346 0.7313536940579346 0 0.68199836817093118 1 I I #
point $-1 -41.926546161021413 16.039450368196817 6.8157010261687345 #
edge $-1 $392 1 $392 0 $216 $-1 forward 7 unknown #
vertex $-1 $217 $393 #
ellipse-curve $-1 -40.562743089577765 21.193590750489321 3.8869221500186208 -0.68199836817093118 0 0.7313536940579346 0.7313536940579346 0 0.68199836817093118 1 I I #
point $-1 -41.926546161021413 21.193590750489321 6.8157010261687345 #
loop $-1 $-1 $229 $220 #
plane-surface $-1 0 24.629684338684321 0 0 -1 0 0 0 -1 forward_v I I I I #
coedge $-1 $394 $223 $228 $327 forward $139 $-1 #
coedge $-1 $223 $394 $324 $395 reversed $139 $-1 #
edge $-1 $325 57.251271719037526 $332 60.768151426538125 $223 $396 forward 7 unknown #
coedge $-1 $232 $226 $322 $395 forward $221 $-1 #
vertex $-1 $395 $397 #
straight-curve $-1 20.073334163895538 12.603356780001814 7.8921425117480979 1 0 0 I I #
edge $-1 $332 3.2950965003302812 $330 15.321424059012784 $321 $398 forward 7 unknown #
coedge $-1 $329 $229 $232 $334 reversed $319 $-1 #
coedge $-1 $229 $328 $394 $399 forward $319 $-1 #
vertex $-1 $230 $400 #
straight-curve $-1 1.1449239411960104 24.629684338684321 44.845179828638678 -0.7313536940579346 0 0.68199836817093118 I I #
vertex $-1 $327 $401 #
straight-curve $-1 -20.610650819373099 12.603356780001814 65.132581951411694 -0.7313536940579346 0 0.68199836817093118 I I #
edge $-1 $402 -44.543595690786461 $233 -40.772204019372232 $328 $403 forward 7 unknown #
point $-1 40.772204019372232 24.629684338684317 7.8921425117480979 #
point $-1 40.772204019372232 12.603356780001814 7.8921425117480979 #
edge $-1 $404 1 $404 0 $236 $-1 forward 7 unknown #
vertex $-1 $237 $405 #
ellipse-curve $-1 40.562743089577744 16.039450368196817 3.8869221500186084 0.68199836817093118 0 0.7313536940579346 0.7313536940579346 0 -0.68199836817093118 1 I I #
point $-1 43.389253549137258 16.039450368196817 5.4517042898268597 #
edge $-1 $406 1 $406 0 $240 $-1 forward 7 unknown #
vertex $-1 $241 $407 #
ellipse-curve $-1 40.562743089577744 21.193590750489321 3.8869221500186084 0.68199836817093118 0 0.7313536940579346 0.7313536940579346 0 -0.68199836817093118 1 I I #
point $-1 43.389253549137258 21.193590750489321 5.4517042898268597 #
plane-surface $-1 44.543595690786461 0 0 -1 0 0 0 0 1 forward_v I I I I #
coedge $-1 $249 $247 $251 $350 reversed $161 $-1 #
edge $-1 $262 -7.8921425117480979 $352 7.8921425117480979 $261 $408 forward 7 unknown #
vertex $-1 $350 $409 #
straight-curve $-1 -44.543595690786461 -24.629684338684321 0 0 0 -1 I I #
edge $-1 $348 -24.629684338684321 $352 24.629684338684321 $346 $410 forward 7 unknown #
straight-curve $-1 0 -24.629684338684321 -7.8921425117480979 -1 0 0 I I #
vertex $-1 $254 $411 #
straight-curve $-1 0 24.629684338684321 -7.8921425117480979 1 0 0 I I #
point $-1 44.543595690786461 24.629684338684321 -7.8921425117480979 #
point $-1 44.543595690786461 -24.629684338684321 -7.8921425117480979 #
straight-curve $-1 -44.543595690786461 0 7.8921425117480979 0 -1 0 I I #
point $-1 -44.543595690786461 24.629684338684321 7.8921425117480979 #
point $-1 -44.543595690786461 -24.629684338684321 7.8921425117480979 #
straight-curve $-1 44.543595690786461 -24.629684338684321 0 0 0 -1 I I #
straight-curve $-1 44.543595690786461 24.629684338684321 0 0 0 -1 I I #
plane-surface $-1 44.543595690786461 0 0 -1 0 0 0 0 1 forward_v I I I I #
coedge $-1 $365 $274 $285 $374 forward $180 $-1 #
coedge $-1 $274 $365 $288 $376 reversed $180 $-1 #
straight-curve $-1 44.543595690786461 -18.323851151545568 2.9170331886990368 0 0 1 I I #
coedge $-1 $363 $362 $277 $366 forward $180 $-1 #
edge $-1 $369 7.5854672789880961 $367 13.891300466126848 $365 $412 forward 7 unknown #
vertex $-1 $279 $413 #
straight-curve $-1 0 -24.629684338684321 4.2759902430480485 1 0 0 I I #
vertex $-1 $366 $414 #
straight-curve $-1 0 -18.323851151545568 4.2759902430480485 1 0 0 I I #
point $-1 44.543595690786461 -24.629684338684321 4.2759902430480485 #
point $-1 44.543595690786461 -18.323851151545568 4.2759902430480485 #
straight-curve $-1 -44.543595690786461 -10.738383872557472 7.3921425117480988 0 1 0 I I #
edge $-1 $286 -4.4751093230490619 $369 -1.3589570543490117 $362 $415 forward 7 unknown #
point $-1 -44.543595690786461 -18.323851151545568 7.3921425117480988 #
edge $-1 $290 -7.3921425117480988 $367 -4.2759902430480485 $363 $416 forward 7 unknown #
point $-1 -44.543595690786461 -24.629684338684321 7.3921425117480988 #
straight-curve $-1 44.543595690786461 -24.629684338684321 0 0 0 -1 I I #
coedge $-1 $380 $297 $386 $417 reversed $199 $-1 #
coedge $-1 $297 $379 $300 $384 reversed $199 $-1 #
edge $-1 $382 -15.321424059012784 $305 -3.2950965003302812 $304 $418 forward 7 unknown #
vertex $-1 $299 $419 #
straight-curve $-1 -33.722047196275795 24.629684338684321 14.466520255056581 -0.7313536940579346 0 -0.68199836817093118 I I #
edge $-1 $301 40.772204019372225 $388 44.543595690786461 $380 $420 forward 7 unknown #
point $-1 -40.772204019372225 24.629684338684317 7.8921425117480979 #
coedge $-1 $304 $303 $379 $417 forward $295 $-1 #
point $-1 -44.543595690786461 12.603356780001814 4.3752628042475044 #
vertex $-1 $384 $421 #
straight-curve $-1 -44.543595690786461 0 7.8921425117480979 0 -1 0 I I #
vertex $-1 $311 $422 #
point $-1 -39.831389395519828 16.039450368196817 4.568920518189552 #
vertex $-1 $315 $423 #
point $-1 -39.831389395519828 21.193590750489321 4.568920518189552 #
coedge $-1 $322 $321 $329 $399 reversed $139 $-1 #
edge $-1 $325 12.603356780001814 $402 24.629684338684321 $322 $424 forward 7 unknown #
straight-curve $-1 44.543595690786461 12.603356780001814 65.143414230785623 0 0 -1 I I #
point $-1 44.543595690786461 12.603356780001814 7.8921425117480979 #
straight-curve $-1 44.543595690786461 9.3082602796715328 4.3752628042475088 0 1 0 I I #
edge $-1 $402 -7.8921425117480979 $330 -4.3752628042474981 $394 $425 forward 7 unknown #
point $-1 44.543595690786468 24.629684338684317 4.3752628042474981 #
point $-1 44.543595690786468 12.603356780001814 4.3752628042474981 #
vertex $-1 $395 $426 #
straight-curve $-1 0 24.629684338684321 7.8921425117480979 -1 0 0 I I #
vertex $-1 $337 $427 #
point $-1 41.294096783635673 16.039450368196817 3.2049237818476772 #
vertex $-1 $341 $428 #
point $-1 41.294096783635673 21.193590750489321 3.2049237818476772 #
straight-curve $-1 -44.543595690786461 24.629684338684321 0 0 0 -1 I I #
point $-1 -44.543595690786461 -24.629684338684321 -7.8921425117480979 #
straight-curve $-1 -44.543595690786461 0 -7.8921425117480979 0 1 0 I I #
point $-1 -44.543595690786461 24.629684338684321 -7.8921425117480979 #
straight-curve $-1 -44.543595690786461 -10.738383872557472 4.2759902430480485 0 -1 0 I I #
point $-1 -44.543595690786461 -24.629684338684321 4.2759902430480485 #
point $-1 -44.543595690786461 -18.323851151545568 4.2759902430480485 #
straight-curve $-1 -44.543595690786461 -18.323851151545568 2.9170331886990368 0 0 -1 I I #
straight-curve $-1 -44.543595690786461 -24.629684338684321 0 0 0 -1 I I #
edge $-1 $388 -7.8921425117480979 $382 -4.3752628042475044 $379 $429 forward 7 unknown #
straight-curve $-1 -44.543595690786461 9.3082602796715328 4.3752628042475017 0 -1 0 I I #
point $-1 -44.543595690786461 24.629684338684317 4.3752628042475044 #
straight-curve $-1 0 24.629684338684321 7.8921425117480979 -1 0 0 I I #
point $-1 -44.543595690786461 24.629684338684321 7.8921425117480979 #
point $-1 -39.880744721406828 16.039450368196817 3.1555684559606858 #
point $-1 -39.880744721406828 21.193590750489321 3.1555684559606858 #
straight-curve $-1 44.543595690786461 0 7.8921425117480979 0 1 0 I I #
straight-curve $-1 44.543595690786461 24.629684338684321 0 0 0 -1 I I #
point $-1 44.543595690786461 24.629684338684321 7.8921425117480979 #
point $-1 39.880744721406806 16.039450368196817 3.1555684559606734 #
point $-1 39.880744721406806 21.193590750489321 3.1555684559606734 #
straight-curve $-1 -44.543595690786461 24.629684338684321 0 0 0 -1 I I #
End-of-ACIS-data 