500 0 3 0           
7 Unknown 11 ACIS 5.0 NT 24 Fri Mar 26 20:46:13 1999 
-1 9.9999999999999995e-007 1e-010 
body $-1 $3 $-1 $4 #
body $-1 $5 $-1 $6 #
body $-1 $7 $-1 $8 #
lump $-1 $-1 $9 $0 #
transform $-1 1 0 0 0 1 0 0 0 1 69.687185277871038 37.898242262477687 17.16183044951007 1 rotate no_reflect no_shear #
lump $-1 $-1 $10 $1 #
transform $-1 1 0 0 0 1 0 0 0 1 69.687185277871038 37.898242262477687 17.16183044951007 1 rotate no_reflect no_shear #
lump $-1 $-1 $11 $2 #
transform $-1 1 0 0 0 1 0 0 0 1 69.687185277871038 37.898242262477687 17.16183044951007 1 rotate no_reflect no_shear #
shell $-1 $-1 $-1 $12 $-1 $3 #
shell $-1 $-1 $-1 $13 $-1 $5 #
shell $-1 $-1 $-1 $14 $-1 $7 #
face $-1 $15 $16 $9 $-1 $17 forward single #
face $-1 $18 $19 $10 $-1 $20 forward single #
face $-1 $21 $22 $11 $-1 $23 reversed single #
face $-1 $24 $25 $9 $-1 $26 reversed single #
loop $-1 $-1 $27 $12 #
plane-surface $-1 0 0 17.16183044951007 0 0 1 1 0 0 forward_v I I I I #
face $-1 $28 $29 $10 $-1 $30 reversed single #
loop $-1 $-1 $31 $13 #
plane-surface $-1 0 -37.898242262477687 0 0 1 0 0 0 1 forward_v I I I I #
face $-1 $32 $33 $11 $-1 $34 reversed single #
loop $-1 $-1 $35 $14 #
plane-surface $-1 -38.776563965149073 19.567666385816132 0 0 1 0 0 0 1 forward_v I I I I #
face $-1 $36 $37 $9 $-1 $38 reversed single #
loop $-1 $-1 $39 $15 #
plane-surface $-1 0 0 -17.16183044951007 0 0 1 1 0 0 forward_v I I I I #
coedge $-1 $40 $41 $42 $43 forward $16 $-1 #
face $-1 $44 $45 $10 $-1 $46 reversed single #
loop $-1 $-1 $47 $18 #
plane-surface $-1 0 0 -17.16183044951007 0 0 1 1 0 0 forward_v I I I I #
coedge $-1 $48 $49 $50 $51 forward $19 $-1 #
face $-1 $52 $53 $11 $-1 $54 reversed single #
loop $-1 $-1 $55 $21 #
plane-surface $-1 -42.189603551447249 28.73295432414691 0 1 0 0 0 0 -1 forward_v I I I I #
coedge $-1 $56 $57 $58 $59 forward $22 $-1 #
face $-1 $60 $61 $9 $-1 $62 reversed single #
loop $-1 $-1 $63 $24 #
plane-surface $-1 0 -37.898242262477687 0 0 1 0 0 0 1 forward_v I I I I #
coedge $-1 $64 $65 $66 $67 forward $25 $-1 #
coedge $-1 $68 $27 $69 $70 forward $16 $-1 #
coedge $-1 $27 $68 $71 $72 forward $16 $-1 #
coedge $-1 $73 $74 $27 $43 reversed $75 $-1 #
edge $-1 $76 -37.898242262477687 $77 37.898242262477687 $42 $78 forward 7 unknown #
face $-1 $79 $80 $10 $-1 $81 reversed single #
loop $-1 $-1 $82 $28 #
plane-surface $-1 -60.642746796123404 -50.498525533206184 0 0 1 0 0 0 1 forward_v I I I I #
coedge $-1 $83 $84 $49 $85 forward $29 $-1 #
coedge $-1 $86 $31 $87 $88 reversed $19 $-1 #
coedge $-1 $31 $86 $47 $85 reversed $19 $-1 #
coedge $-1 $89 $90 $31 $51 reversed $80 $-1 #
edge $-1 $91 -17.16183044951007 $92 17.16183044951007 $50 $93 forward 7 unknown #
face $-1 $94 $95 $11 $-1 $96 reversed single #
loop $-1 $-1 $97 $32 #
plane-surface $-1 -35.363524378850897 28.73295432414691 0 -1 0 0 0 0 1 forward_v I I I I #
coedge $-1 $98 $99 $100 $101 reversed $33 $-1 #
coedge $-1 $102 $35 $103 $104 reversed $22 $-1 #
coedge $-1 $35 $102 $105 $106 reversed $22 $-1 #
coedge $-1 $99 $98 $35 $59 reversed $33 $-1 #
edge $-1 $107 -17.16183044951007 $108 17.16183044951007 $58 $109 forward 7 unknown #
face $-1 $110 $111 $9 $-1 $112 reversed single #
loop $-1 $-1 $113 $36 #
plane-surface $-1 -69.687185277871038 0 0 1 0 0 0 0 -1 forward_v I I I I #
coedge $-1 $114 $71 $115 $116 forward $37 $-1 #
coedge $-1 $117 $39 $114 $118 forward $25 $-1 #
coedge $-1 $39 $117 $119 $120 forward $25 $-1 #
coedge $-1 $74 $73 $39 $67 reversed $75 $-1 #
edge $-1 $121 -37.898242262477687 $122 37.898242262477687 $66 $123 forward 7 unknown #
coedge $-1 $41 $40 $124 $125 forward $16 $-1 #
coedge $-1 $126 $127 $40 $70 reversed $111 $-1 #
edge $-1 $77 -69.687185277871038 $128 69.687185277871038 $69 $129 forward 7 unknown #
coedge $-1 $63 $130 $41 $72 reversed $37 $-1 #
edge $-1 $131 -69.687185277871038 $76 69.687185277871038 $71 $132 forward 7 unknown #
coedge $-1 $66 $42 $130 $133 forward $75 $-1 #
coedge $-1 $42 $66 $126 $134 reversed $75 $-1 #
loop $-1 $-1 $73 $110 #
vertex $-1 $43 $135 #
vertex $-1 $43 $136 #
straight-curve $-1 69.687185277871038 0 17.16183044951007 0 1 0 I I #
face $-1 $137 $138 $10 $-1 $139 reversed single #
loop $-1 $-1 $50 $44 #
plane-surface $-1 -64.026665688644528 -44.198383897841936 0 1 0 0 0 0 -1 forward_v I I I I #
coedge $-1 $140 $141 $142 $143 forward $45 $-1 #
coedge $-1 $144 $47 $145 $146 forward $29 $-1 #
coedge $-1 $47 $144 $89 $147 forward $29 $-1 #
edge $-1 $91 -64.026665688644528 $148 -57.258827903602281 $47 $149 forward 7 unknown #
coedge $-1 $49 $48 $150 $151 forward $19 $-1 #
coedge $-1 $152 $153 $48 $88 forward $154 $-1 #
edge $-1 $155 57.258827903602281 $92 64.026665688644528 $87 $156 forward 7 unknown #
coedge $-1 $142 $50 $84 $147 reversed $80 $-1 #
coedge $-1 $50 $142 $152 $157 reversed $80 $-1 #
vertex $-1 $85 $158 #
vertex $-1 $157 $159 #
straight-curve $-1 -64.026665688644528 -37.898242262477687 0 0 0 1 I I #
face $-1 $160 $161 $11 $-1 $162 forward single #
loop $-1 $-1 $100 $52 #
plane-surface $-1 0 37.898242262477687 0 0 -1 0 0 0 -1 forward_v I I I I #
coedge $-1 $163 $164 $102 $165 forward $53 $-1 #
coedge $-1 $58 $55 $166 $167 reversed $33 $-1 #
coedge $-1 $55 $58 $168 $169 reversed $33 $-1 #
coedge $-1 $170 $171 $55 $101 forward $95 $-1 #
edge $-1 $172 -17.16183044951007 $173 17.16183044951007 $100 $174 forward 7 unknown #
coedge $-1 $57 $56 $97 $165 reversed $22 $-1 #
coedge $-1 $166 $175 $56 $104 forward $176 $-1 #
edge $-1 $177 15.975242396276361 $108 22.801321568872712 $103 $178 forward 7 unknown #
coedge $-1 $179 $168 $57 $106 forward $161 $-1 #
edge $-1 $107 -22.801321568872712 $180 -15.975242396276361 $105 $181 forward 7 unknown #
vertex $-1 $106 $182 #
vertex $-1 $104 $183 #
straight-curve $-1 -42.189603551447249 19.567666385816132 0 0 0 -1 I I #
face $-1 $-1 $75 $9 $-1 $184 reversed single #
loop $-1 $-1 $126 $60 #
plane-surface $-1 0 37.898242262477687 0 0 -1 0 0 0 -1 forward_v I I I I #
coedge $-1 $185 $124 $127 $186 forward $61 $-1 #
coedge $-1 $130 $63 $64 $118 reversed $37 $-1 #
coedge $-1 $124 $185 $63 $116 reversed $61 $-1 #
edge $-1 $131 -17.16183044951007 $187 17.16183044951007 $115 $188 forward 7 unknown #
coedge $-1 $65 $64 $185 $189 forward $25 $-1 #
edge $-1 $122 -69.687185277871038 $187 69.687185277871038 $114 $190 forward 7 unknown #
coedge $-1 $127 $126 $65 $120 reversed $111 $-1 #
edge $-1 $191 -69.687185277871038 $121 69.687185277871038 $119 $192 forward 7 unknown #
vertex $-1 $67 $193 #
vertex $-1 $133 $194 #
straight-curve $-1 69.687185277871038 0 -17.16183044951007 0 -1 0 I I #
coedge $-1 $113 $115 $68 $125 reversed $61 $-1 #
edge $-1 $128 -37.898242262477687 $131 37.898242262477687 $124 $195 forward 7 unknown #
coedge $-1 $119 $69 $74 $134 forward $111 $-1 #
coedge $-1 $69 $119 $113 $186 reversed $111 $-1 #
vertex $-1 $70 $196 #
straight-curve $-1 0 37.898242262477687 17.16183044951007 -1 0 0 I I #
coedge $-1 $71 $114 $73 $133 reversed $37 $-1 #
vertex $-1 $125 $197 #
straight-curve $-1 0 -37.898242262477687 17.16183044951007 1 0 0 I I #
edge $-1 $76 -17.16183044951007 $122 17.16183044951007 $73 $198 forward 7 unknown #
edge $-1 $77 -17.16183044951007 $121 17.16183044951007 $74 $199 forward 7 unknown #
point $-1 69.687185277871038 -37.898242262477687 17.16183044951007 #
point $-1 69.687185277871038 37.898242262477687 17.16183044951007 #
face $-1 $-1 $154 $10 $-1 $200 forward single #
loop $-1 $-1 $201 $79 #
plane-surface $-1 -57.258827903602281 -44.198383897841936 0 -1 0 0 0 0 1 forward_v I I I I #
coedge $-1 $202 $82 $144 $203 reversed $45 $-1 #
coedge $-1 $82 $202 $204 $205 reversed $45 $-1 #
coedge $-1 $90 $89 $82 $143 reversed $80 $-1 #
edge $-1 $206 -17.16183044951007 $207 17.16183044951007 $142 $208 forward 7 unknown #
coedge $-1 $84 $83 $140 $203 forward $29 $-1 #
coedge $-1 $150 $201 $83 $146 reversed $138 $-1 #
edge $-1 $148 -6.3001416353642483 $209 6.3001416353642483 $145 $210 forward 7 unknown #
edge $-1 $207 -6.3001416353642483 $91 6.3001416353642483 $89 $211 forward 7 unknown #
vertex $-1 $146 $212 #
straight-curve $-1 0 -37.898242262477687 -17.16183044951007 1 0 0 I I #
coedge $-1 $213 $145 $86 $151 reversed $138 $-1 #
edge $-1 $155 -17.16183044951007 $148 17.16183044951007 $150 $214 forward 7 unknown #
coedge $-1 $204 $87 $90 $157 forward $154 $-1 #
coedge $-1 $87 $204 $213 $215 forward $154 $-1 #
loop $-1 $-1 $87 $137 #
vertex $-1 $88 $216 #
straight-curve $-1 0 -37.898242262477687 17.16183044951007 -1 0 0 I I #
edge $-1 $92 -6.3001416353642483 $206 6.3001416353642483 $90 $217 forward 7 unknown #
point $-1 -64.026665688644528 -37.898242262477687 -17.16183044951007 #
point $-1 -64.026665688644528 -37.898242262477687 17.16183044951007 #
face $-1 $-1 $176 $11 $-1 $218 reversed single #
loop $-1 $-1 $168 $94 #
plane-surface $-1 0 0 17.16183044951007 0 0 1 1 0 0 forward_v I I I I #
coedge $-1 $219 $97 $175 $220 reversed $53 $-1 #
coedge $-1 $97 $219 $179 $221 reversed $53 $-1 #
edge $-1 $180 -17.16183044951007 $177 17.16183044951007 $97 $222 forward 7 unknown #
coedge $-1 $223 $103 $98 $167 forward $176 $-1 #
edge $-1 $108 5.2011892237426771 $172 23.531765100404233 $166 $224 forward 7 unknown #
coedge $-1 $105 $225 $99 $169 forward $161 $-1 #
edge $-1 $173 -23.531765100404233 $107 -5.2011892237426771 $168 $226 forward 7 unknown #
coedge $-1 $227 $100 $225 $228 reversed $95 $-1 #
coedge $-1 $100 $227 $223 $229 reversed $95 $-1 #
vertex $-1 $229 $230 #
vertex $-1 $101 $231 #
straight-curve $-1 -42.189603551447249 37.898242262477687 0 0 0 1 I I #
coedge $-1 $103 $223 $163 $220 forward $176 $-1 #
loop $-1 $-1 $166 $160 #
vertex $-1 $104 $232 #
straight-curve $-1 -19.388281982574536 19.567666385816132 -17.16183044951007 -1 0 0 I I #
coedge $-1 $225 $105 $164 $221 forward $161 $-1 #
vertex $-1 $106 $233 #
straight-curve $-1 -19.388281982574536 19.567666385816132 17.16183044951007 1 0 0 I I #
point $-1 -42.189603551447249 19.567666385816132 17.16183044951007 #
point $-1 -42.189603551447249 19.567666385816132 -17.16183044951007 #
plane-surface $-1 69.687185277871038 0 0 -1 0 0 0 0 1 forward_v I I I I #
coedge $-1 $115 $113 $117 $189 reversed $61 $-1 #
edge $-1 $128 -17.16183044951007 $191 17.16183044951007 $127 $234 forward 7 unknown #
vertex $-1 $189 $235 #
straight-curve $-1 -69.687185277871038 -37.898242262477687 0 0 0 -1 I I #
edge $-1 $187 -37.898242262477687 $191 37.898242262477687 $185 $236 forward 7 unknown #
straight-curve $-1 0 -37.898242262477687 -17.16183044951007 -1 0 0 I I #
vertex $-1 $120 $237 #
straight-curve $-1 0 37.898242262477687 -17.16183044951007 1 0 0 I I #
point $-1 69.687185277871038 37.898242262477687 -17.16183044951007 #
point $-1 69.687185277871038 -37.898242262477687 -17.16183044951007 #
straight-curve $-1 -69.687185277871038 0 17.16183044951007 0 -1 0 I I #
point $-1 -69.687185277871038 37.898242262477687 17.16183044951007 #
point $-1 -69.687185277871038 -37.898242262477687 17.16183044951007 #
straight-curve $-1 69.687185277871038 -37.898242262477687 0 0 0 -1 I I #
straight-curve $-1 69.687185277871038 37.898242262477687 0 0 0 -1 I I #
plane-surface $-1 0 0 17.16183044951007 0 0 1 1 0 0 forward_v I I I I #
coedge $-1 $145 $213 $202 $238 forward $138 $-1 #
coedge $-1 $141 $140 $201 $238 reversed $45 $-1 #
edge $-1 $209 -3.3839188925211232 $207 3.3839188925211232 $140 $239 forward 7 unknown #
coedge $-1 $153 $152 $141 $205 forward $154 $-1 #
edge $-1 $206 -3.3839188925211232 $240 3.3839188925211232 $141 $241 forward 7 unknown #
vertex $-1 $157 $242 #
vertex $-1 $147 $243 #
straight-curve $-1 -64.026665688644528 -50.498525533206184 0 0 0 -1 I I #
vertex $-1 $238 $244 #
straight-curve $-1 -57.258827903602281 -44.198383897841936 -17.16183044951007 0 -1 0 I I #
straight-curve $-1 -64.026665688644528 -44.198383897841936 -17.16183044951007 0 1 0 I I #
point $-1 -57.258827903602281 -37.898242262477687 -17.16183044951007 #
coedge $-1 $201 $150 $153 $215 reversed $138 $-1 #
straight-curve $-1 -57.258827903602281 -37.898242262477687 0 0 0 -1 I I #
edge $-1 $240 -6.3001416353642483 $155 6.3001416353642483 $213 $245 forward 7 unknown #
point $-1 -57.258827903602281 -37.898242262477687 17.16183044951007 #
straight-curve $-1 -64.026665688644528 -44.198383897841936 17.16183044951007 0 -1 0 I I #
plane-surface $-1 0 0 -17.16183044951007 0 0 1 1 0 0 forward_v I I I I #
coedge $-1 $164 $163 $227 $246 reversed $53 $-1 #
edge $-1 $247 -23.531765100404233 $177 -5.2011892237426771 $175 $248 forward 7 unknown #
edge $-1 $180 5.2011892237426771 $249 23.531765100404233 $179 $250 forward 7 unknown #
straight-curve $-1 -35.363524378850897 19.567666385816132 0 0 0 -1 I I #
coedge $-1 $175 $166 $171 $229 forward $176 $-1 #
straight-curve $-1 -42.189603551447249 14.366477162073455 -17.16183044951007 0 1 0 I I #
coedge $-1 $168 $179 $170 $228 forward $161 $-1 #
straight-curve $-1 -42.189603551447249 14.366477162073455 17.16183044951007 0 -1 0 I I #
coedge $-1 $171 $170 $219 $246 forward $95 $-1 #
edge $-1 $249 35.363524378850897 $173 42.189603551447249 $170 $251 forward 7 unknown #
edge $-1 $172 -42.189603551447249 $247 -35.363524378850897 $171 $252 forward 7 unknown #
point $-1 -42.189603551447249 37.898242262477687 -17.16183044951007 #
point $-1 -42.189603551447249 37.898242262477687 17.16183044951007 #
point $-1 -35.363524378850897 19.567666385816132 -17.16183044951007 #
point $-1 -35.363524378850897 19.567666385816132 17.16183044951007 #
straight-curve $-1 -69.687185277871038 37.898242262477687 0 0 0 -1 I I #
point $-1 -69.687185277871038 -37.898242262477687 -17.16183044951007 #
straight-curve $-1 -69.687185277871038 0 -17.16183044951007 0 1 0 I I #
point $-1 -69.687185277871038 37.898242262477687 -17.16183044951007 #
edge $-1 $240 -17.16183044951007 $209 17.16183044951007 $201 $253 forward 7 unknown #
straight-curve $-1 -60.642746796123404 -50.498525533206184 -17.16183044951007 -1 0 0 I I #
vertex $-1 $215 $254 #
straight-curve $-1 -60.642746796123404 -50.498525533206184 17.16183044951007 1 0 0 I I #
point $-1 -64.026665688644528 -50.498525533206184 17.16183044951007 #
point $-1 -64.026665688644528 -50.498525533206184 -17.16183044951007 #
point $-1 -57.258827903602281 -50.498525533206184 -17.16183044951007 #
straight-curve $-1 -57.258827903602281 -44.198383897841936 17.16183044951007 0 1 0 I I #
edge $-1 $249 -17.16183044951007 $247 17.16183044951007 $227 $255 forward 7 unknown #
vertex $-1 $246 $256 #
straight-curve $-1 -35.363524378850897 14.366477162073455 -17.16183044951007 0 -1 0 I I #
vertex $-1 $228 $257 #
straight-curve $-1 -35.363524378850897 14.366477162073455 17.16183044951007 0 1 0 I I #
straight-curve $-1 0 37.898242262477687 17.16183044951007 -1 0 0 I I #
straight-curve $-1 0 37.898242262477687 -17.16183044951007 1 0 0 I I #
straight-curve $-1 -57.258827903602281 -50.498525533206184 0 0 0 -1 I I #
point $-1 -57.258827903602281 -50.498525533206184 17.16183044951007 #
straight-curve $-1 -35.363524378850897 37.898242262477687 0 0 0 -1 I I #
point $-1 -35.363524378850897 37.898242262477687 -17.16183044951007 #
point $-1 -35.363524378850897 37.898242262477687 17.16183044951007 #
End-of-ACIS-data 