500 0 9 0           
7 Unknown 11 ACIS 5.0 NT 24 Fri Mar 26 15:05:11 1999 
-1 9.9999999999999995e-007 1e-010 
body $-1 $9 $-1 $10 #
body $-1 $11 $-1 $12 #
body $-1 $13 $-1 $14 #
body $-1 $15 $-1 $16 #
body $-1 $17 $-1 $18 #
body $-1 $19 $-1 $20 #
body $-1 $21 $-1 $22 #
body $-1 $23 $-1 $24 #
body $-1 $25 $-1 $26 #
lump $-1 $-1 $27 $0 #
transform $-1 1 0 0 0 1 0 0 0 1 61.546067690054016 37.322270235959358 9.7730199004662754 1 rotate no_reflect no_shear #
lump $-1 $-1 $28 $1 #
transform $-1 1 0 0 0 1 0 0 0 1 61.546067690054016 37.322270235959358 9.7730199004662754 1 rotate no_reflect no_shear #
lump $-1 $-1 $29 $2 #
transform $-1 1 0 0 0 1 0 0 0 1 61.546067690054016 37.322270235959358 9.7730199004662754 1 rotate no_reflect no_shear #
lump $-1 $-1 $30 $3 #
transform $-1 1 0 0 0 1 0 0 0 1 61.546067690054016 37.322270235959358 9.7730199004662754 1 rotate no_reflect no_shear #
lump $-1 $-1 $31 $4 #
transform $-1 1 0 0 0 1 0 0 0 1 61.546067690054016 37.322270235959358 9.7730199004662754 1 rotate no_reflect no_shear #
lump $-1 $-1 $32 $5 #
transform $-1 1 0 0 0 1 0 0 0 1 61.546067690054016 37.322270235959358 9.7730199004662754 1 rotate no_reflect no_shear #
lump $-1 $-1 $33 $6 #
transform $-1 1 0 0 0 1 0 0 0 1 61.546067690054016 37.322270235959358 9.7730199004662754 1 rotate no_reflect no_shear #
lump $-1 $-1 $34 $7 #
transform $-1 1 0 0 0 1 0 0 0 1 61.546067690054016 37.322270235959358 9.7730199004662754 1 rotate no_reflect no_shear #
lump $-1 $-1 $35 $8 #
transform $-1 1 0 0 0 1 0 0 0 1 61.546067690054016 37.322270235959358 9.7730199004662754 1 rotate no_reflect no_shear #
shell $-1 $-1 $-1 $36 $-1 $9 #
shell $-1 $-1 $-1 $37 $-1 $11 #
shell $-1 $-1 $-1 $38 $-1 $13 #
shell $-1 $-1 $-1 $39 $-1 $15 #
shell $-1 $-1 $-1 $40 $-1 $17 #
shell $-1 $-1 $-1 $41 $-1 $19 #
shell $-1 $-1 $-1 $42 $-1 $21 #
shell $-1 $-1 $-1 $43 $-1 $23 #
shell $-1 $-1 $-1 $44 $-1 $25 #
face $-1 $45 $46 $27 $-1 $47 forward single #
face $-1 $48 $49 $28 $-1 $50 reversed single #
face $-1 $51 $52 $29 $-1 $53 reversed single #
face $-1 $54 $55 $30 $-1 $56 reversed single #
face $-1 $57 $58 $31 $-1 $59 forward single #
face $-1 $60 $61 $32 $-1 $62 forward single #
face $-1 $63 $64 $33 $-1 $65 reversed single #
face $-1 $66 $67 $34 $-1 $68 forward single #
face $-1 $69 $70 $35 $-1 $71 forward single #
face $-1 $72 $73 $27 $-1 $74 reversed single #
loop $-1 $-1 $75 $36 #
plane-surface $-1 0 0 9.7730199004662754 0 0 1 1 0 0 forward_v I I I I #
face $-1 $76 $77 $28 $-1 $78 reversed single #
loop $-1 $-1 $79 $37 #
plane-surface $-1 -57.540164486124375 0 4.2878763175470258 0 0 1 1 0 0 forward_v I I I I #
face $-1 $80 $81 $29 $-1 $82 reversed single #
loop $-1 $-1 $83 $38 #
plane-surface $-1 57.540164486124368 0 4.2878763175470258 0 0 1 1 0 0 forward_v I I I I #
face $-1 $84 $85 $30 $-1 $86 reversed single #
loop $-1 $-1 $87 $39 #
plane-surface $-1 -42.038127076678109 -2.2333087832996625 69.940824320869424 0 0.84804810408105047 0.52991925155115449 1 0 0 forward_v I I I I #
face $-1 $88 $89 $31 $-1 $90 forward single #
loop $-1 $91 $92 $40 #
cone-surface $-1 -46.965041736185235 35.795944882470629 7.8640107690878986 0 -0.84804810408105047 -0.52991925155115449 0.5 0 0 1 I I 0 1 0.5 forward I I I I #
face $-1 $93 $94 $32 $-1 $95 forward single #
loop $-1 $96 $97 $41 #
cone-surface $-1 -37.111212417170982 35.795944882470629 7.8640107690878986 0 -0.84804810408105047 -0.52991925155115449 0.5 0 0 1 I I 0 1 0.5 forward I I I I #
face $-1 $98 $99 $33 $-1 $100 reversed single #
loop $-1 $-1 $101 $42 #
plane-surface $-1 47.06397913992123 -37.322270235959365 2.4940720273148571 0 -0.77714596973225614 0.62932038083071107 1 0 0 forward_v I I I I #
face $-1 $102 $103 $34 $-1 $104 forward single #
loop $-1 $105 $106 $43 #
cone-surface $-1 44.291001078946863 -32.546440201065856 4.6527407225618198 0 0.77714596973225614 -0.62932038083071107 1.5 0 0 1 I I 0 1 1.5 forward I I I I #
face $-1 $107 $108 $35 $-1 $109 forward single #
loop $-1 $110 $111 $44 #
cone-surface $-1 49.836957200895583 -32.546440201065856 4.6527407225618198 0 0.77714596973225614 -0.62932038083071107 1.5 0 0 1 I I 0 1 1.5 forward I I I I #
face $-1 $112 $113 $27 $-1 $114 reversed single #
loop $-1 $-1 $115 $45 #
plane-surface $-1 0 0 -9.7730199004662754 0 0 1 1 0 0 forward_v I I I I #
coedge $-1 $116 $117 $118 $119 forward $46 $-1 #
face $-1 $120 $121 $28 $-1 $122 reversed single #
loop $-1 $-1 $123 $48 #
plane-surface $-1 -53.534261282194734 0 7.0304481090066506 -1 0 0 0 0 1 forward_v I I I I #
coedge $-1 $124 $125 $126 $127 forward $49 $-1 #
face $-1 $128 $129 $29 $-1 $130 forward single #
loop $-1 $-1 $131 $51 #
plane-surface $-1 53.534261282194727 0 7.0304481090066506 1 0 0 0 0 -1 forward_v I I I I #
coedge $-1 $132 $133 $134 $135 reversed $52 $-1 #
face $-1 $136 $137 $30 $-1 $138 reversed single #
loop $-1 $-1 $139 $54 #
plane-surface $-1 -30.541992871161483 102.15474325308895 135.16971657332965 -1 0 0 0 0.84804810408105047 0.52991925155115449 forward_v I I I I #
coedge $-1 $140 $141 $142 $143 reversed $55 $-1 #
face $-1 $-1 $144 $31 $-1 $145 forward single #
loop $-1 $146 $147 $57 #
cone-surface $-1 -46.965041736185235 35.036889161149141 7.3897001282261154 0 -0.84804810408105047 -0.52991925155115449 0.25 0 0 1 I I -0.70710678118654746 0.70710678118654746 0.25 forward I I I I #
loop $-1 $-1 $148 $40 #
coedge $-1 $92 $92 $149 $150 reversed $58 $-1 #
face $-1 $-1 $151 $32 $-1 $152 forward single #
loop $-1 $153 $154 $60 #
cone-surface $-1 -37.111212417170982 35.036889161149141 7.3897001282261154 0 -0.84804810408105047 -0.52991925155115449 0.25 0 0 1 I I -0.70710678118654746 0.70710678118654746 0.25 forward I I I I #
loop $-1 $-1 $155 $41 #
coedge $-1 $97 $97 $156 $157 reversed $61 $-1 #
face $-1 $158 $159 $33 $-1 $160 forward single #
loop $-1 $-1 $161 $63 #
plane-surface $-1 40.593696997647726 -132.98282715234757 79.958461541989877 1 0 0 0 0.77714596973225614 -0.62932038083071107 forward_v I I I I #
coedge $-1 $162 $163 $164 $165 reversed $64 $-1 #
face $-1 $-1 $166 $34 $-1 $167 forward single #
loop $-1 $168 $169 $66 #
cone-surface $-1 44.291001078946863 -30.134938492701519 2.6999451956100398 0 0.77714596973225614 -0.62932038083071107 0.75 0 0 1 I I -0.70710678118654757 0.70710678118654757 0.75 forward I I I I #
loop $-1 $-1 $170 $43 #
coedge $-1 $106 $106 $171 $172 reversed $67 $-1 #
face $-1 $-1 $173 $35 $-1 $174 forward single #
loop $-1 $175 $176 $69 #
cone-surface $-1 49.836957200895583 -30.134938492701519 2.6999451956100398 0 0.77714596973225614 -0.62932038083071107 0.75 0 0 1 I I -0.70710678118654757 0.70710678118654757 0.75 forward I I I I #
loop $-1 $-1 $177 $44 #
coedge $-1 $111 $111 $178 $179 reversed $70 $-1 #
face $-1 $180 $181 $27 $-1 $182 reversed single #
loop $-1 $-1 $183 $72 #
plane-surface $-1 0 -37.322270235959358 0 0 1 0 0 0 1 forward_v I I I I #
coedge $-1 $184 $185 $186 $187 forward $73 $-1 #
coedge $-1 $188 $75 $189 $190 forward $46 $-1 #
coedge $-1 $75 $188 $191 $192 forward $46 $-1 #
coedge $-1 $193 $194 $75 $119 reversed $195 $-1 #
edge $-1 $196 -37.322270235959358 $197 37.322270235959358 $118 $198 forward 7 unknown #
face $-1 $199 $200 $28 $-1 $201 reversed single #
loop $-1 $-1 $202 $76 #
plane-surface $-1 0 37.322270235959358 0 0 -1 0 0 0 -1 forward_v I I I I #
coedge $-1 $126 $203 $204 $205 reversed $77 $-1 #
coedge $-1 $206 $79 $207 $208 reversed $49 $-1 #
coedge $-1 $79 $206 $209 $210 reversed $49 $-1 #
coedge $-1 $211 $123 $79 $127 reversed $77 $-1 #
edge $-1 $212 -37.322270235959358 $213 37.322270235959358 $126 $214 forward 7 unknown #
face $-1 $215 $216 $29 $-1 $217 reversed single #
loop $-1 $-1 $218 $80 #
plane-surface $-1 0 0 9.7730199004662754 0 0 1 1 0 0 forward_v I I I I #
coedge $-1 $219 $220 $221 $222 reversed $81 $-1 #
coedge $-1 $223 $83 $224 $225 reversed $52 $-1 #
coedge $-1 $83 $223 $226 $227 reversed $52 $-1 #
coedge $-1 $228 $229 $83 $135 forward $230 $-1 #
edge $-1 $231 -37.322270235959358 $232 37.322270235959358 $134 $233 forward 7 unknown #
face $-1 $234 $235 $30 $-1 $236 forward single #
loop $-1 $-1 $237 $84 #
plane-surface $-1 0 37.322270235959358 0 0 -1 0 0 0 -1 forward_v I I I I #
coedge $-1 $238 $239 $240 $241 reversed $85 $-1 #
coedge $-1 $242 $87 $243 $244 reversed $55 $-1 #
coedge $-1 $87 $242 $238 $245 forward $55 $-1 #
coedge $-1 $240 $246 $87 $143 forward $235 $-1 #
edge $-1 $247 -32.51519774385568 $248 -9.5229293328224287 $142 $249 forward 7 unknown #
loop $-1 $-1 $149 $88 #
plane-surface $-1 -42.038127076678109 -2.2333087832996625 69.940824320869424 0 0.84804810408105047 0.52991925155115449 1 0 0 forward_v I I I I #
loop $-1 $-1 $250 $57 #
coedge $-1 $147 $147 $148 $251 reversed $89 $-1 #
coedge $-1 $148 $148 $147 $251 forward $91 $-1 #
coedge $-1 $149 $149 $92 $150 forward $144 $-1 #
edge $-1 $252 -6.0225946902153439e-015 $252 6.2831853071795942 $149 $253 forward 7 unknown #
loop $-1 $-1 $156 $93 #
plane-surface $-1 -42.038127076678109 -2.2333087832996625 69.940824320869424 0 0.84804810408105047 0.52991925155115449 1 0 0 forward_v I I I I #
loop $-1 $-1 $254 $60 #
coedge $-1 $154 $154 $155 $255 reversed $94 $-1 #
coedge $-1 $155 $155 $154 $255 forward $96 $-1 #
coedge $-1 $156 $156 $97 $157 forward $151 $-1 #
edge $-1 $256 -6.0225946902153439e-015 $256 6.2831853071795942 $156 $257 forward 7 unknown #
face $-1 $258 $259 $33 $-1 $260 reversed single #
loop $-1 $-1 $164 $98 #
plane-surface $-1 0 0 9.7730199004662754 0 0 1 1 0 0 forward_v I I I I #
coedge $-1 $261 $262 $263 $264 reversed $99 $-1 #
coedge $-1 $265 $101 $266 $267 reversed $64 $-1 #
coedge $-1 $101 $265 $261 $268 forward $64 $-1 #
coedge $-1 $263 $269 $101 $165 forward $159 $-1 #
edge $-1 $270 -30.002271712234119 $271 -17.061707427687111 $164 $272 forward 7 unknown #
loop $-1 $-1 $171 $102 #
plane-surface $-1 47.06397913992123 -37.322270235959365 2.4940720273148571 0 -0.77714596973225614 0.62932038083071107 1 0 0 forward_v I I I I #
loop $-1 $-1 $273 $66 #
coedge $-1 $169 $169 $170 $274 reversed $103 $-1 #
coedge $-1 $170 $170 $169 $274 forward $105 $-1 #
coedge $-1 $171 $171 $106 $172 forward $166 $-1 #
edge $-1 $275 2.9810601671002766e-015 $275 6.2831853071796031 $171 $276 forward 7 unknown #
loop $-1 $-1 $178 $107 #
plane-surface $-1 47.06397913992123 -37.322270235959365 2.4940720273148571 0 -0.77714596973225614 0.62932038083071107 1 0 0 forward_v I I I I #
loop $-1 $-1 $277 $69 #
coedge $-1 $176 $176 $177 $278 reversed $108 $-1 #
coedge $-1 $177 $177 $176 $278 forward $110 $-1 #
coedge $-1 $178 $178 $111 $179 forward $173 $-1 #
edge $-1 $279 2.9810601671002766e-015 $279 6.2831853071796031 $178 $280 forward 7 unknown #
face $-1 $281 $282 $27 $-1 $283 reversed single #
loop $-1 $-1 $284 $112 #
plane-surface $-1 -61.546067690054016 0 0 1 0 0 0 0 -1 forward_v I I I I #
coedge $-1 $285 $191 $286 $287 forward $113 $-1 #
coedge $-1 $288 $115 $285 $289 forward $73 $-1 #
coedge $-1 $115 $288 $290 $291 forward $73 $-1 #
coedge $-1 $194 $193 $115 $187 reversed $195 $-1 #
edge $-1 $292 -37.322270235959358 $293 37.322270235959358 $186 $294 forward 7 unknown #
coedge $-1 $117 $116 $295 $296 forward $46 $-1 #
coedge $-1 $297 $298 $116 $190 reversed $282 $-1 #
edge $-1 $197 -61.546067690054016 $299 61.546067690054016 $189 $300 forward 7 unknown #
coedge $-1 $183 $301 $117 $192 reversed $113 $-1 #
edge $-1 $302 -61.546067690054016 $196 61.546067690054016 $191 $303 forward 7 unknown #
coedge $-1 $186 $118 $301 $304 forward $195 $-1 #
coedge $-1 $118 $186 $297 $305 reversed $195 $-1 #
loop $-1 $-1 $193 $281 #
vertex $-1 $119 $306 #
vertex $-1 $119 $307 #
straight-curve $-1 61.546067690054016 0 9.7730199004662754 0 1 0 I I #
face $-1 $308 $309 $28 $-1 $310 forward single #
loop $-1 $-1 $311 $120 #
plane-surface $-1 -61.546067690054016 0 0 1 0 0 0 0 -1 forward_v I I I I #
coedge $-1 $209 $312 $211 $313 forward $121 $-1 #
coedge $-1 $123 $211 $314 $315 reversed $77 $-1 #
coedge $-1 $316 $207 $123 $205 forward $317 $-1 #
edge $-1 $213 0.77265226304370049 $318 6.2577958459629501 $204 $319 forward 7 unknown #
coedge $-1 $125 $124 $311 $320 reversed $49 $-1 #
coedge $-1 $204 $321 $124 $208 forward $317 $-1 #
edge $-1 $322 -32.775985446991825 $213 -24.764179039132546 $207 $323 forward 7 unknown #
coedge $-1 $324 $202 $125 $210 forward $121 $-1 #
edge $-1 $212 24.764179039132546 $325 32.775985446991825 $209 $326 forward 7 unknown #
coedge $-1 $203 $126 $202 $313 reversed $77 $-1 #
vertex $-1 $210 $327 #
vertex $-1 $208 $328 #
straight-curve $-1 -53.534261282194734 0 4.2878763175470258 0 -1 0 I I #
face $-1 $329 $330 $29 $-1 $331 reversed single #
loop $-1 $-1 $332 $128 #
plane-surface $-1 0 -37.322270235959358 0 0 1 0 0 0 1 forward_v I I I I #
coedge $-1 $333 $334 $220 $335 forward $129 $-1 #
coedge $-1 $336 $131 $223 $337 reversed $81 $-1 #
coedge $-1 $131 $336 $218 $335 reversed $81 $-1 #
coedge $-1 $338 $226 $131 $222 forward $330 $-1 #
edge $-1 $339 0.77265226304370049 $340 6.2577958459629501 $221 $341 forward 7 unknown #
coedge $-1 $133 $132 $219 $337 forward $52 $-1 #
coedge $-1 $342 $332 $132 $225 forward $216 $-1 #
edge $-1 $343 24.764179039132543 $231 32.775985446991825 $224 $344 forward 7 unknown #
coedge $-1 $221 $345 $133 $227 forward $330 $-1 #
edge $-1 $232 -32.775985446991825 $339 -24.764179039132543 $226 $346 forward 7 unknown #
coedge $-1 $347 $134 $345 $348 reversed $230 $-1 #
coedge $-1 $134 $347 $342 $349 forward $230 $-1 #
loop $-1 $-1 $134 $329 #
vertex $-1 $225 $350 #
vertex $-1 $135 $351 #
straight-curve $-1 61.546067690054016 0 4.2878763175470258 0 1 0 I I #
face $-1 $-1 $352 $30 $-1 $353 forward single #
loop $-1 $-1 $240 $136 #
plane-surface $-1 0 0 9.7730199004662754 0 0 1 1 0 0 forward_v I I I I #
coedge $-1 $354 $355 $239 $356 forward $137 $-1 #
coedge $-1 $239 $139 $141 $245 reversed $85 $-1 #
coedge $-1 $139 $238 $237 $356 reversed $85 $-1 #
coedge $-1 $357 $142 $139 $241 forward $235 $-1 #
edge $-1 $248 -15.71366470696011 $358 -13.755101390585118 $240 $359 forward 7 unknown #
coedge $-1 $141 $140 $354 $360 reversed $55 $-1 #
coedge $-1 $361 $362 $140 $244 forward $352 $-1 #
edge $-1 $363 -47.377291175706397 $247 -43.681325591059341 $243 $364 forward 7 unknown #
edge $-1 $365 -74.644540471918702 $248 -70.948574887271647 $238 $366 forward 7 unknown #
coedge $-1 $142 $357 $361 $367 forward $235 $-1 #
vertex $-1 $244 $368 #
vertex $-1 $143 $369 #
straight-curve $-1 -21.019063538339054 35.363706919584374 9.7730199004662737 1 0 0 I I #
coedge $-1 $250 $250 $-1 $370 reversed $146 $-1 #
edge $-1 $371 0 $371 6.2831853071796004 $147 $372 forward 7 unknown #
vertex $-1 $150 $373 #
ellipse-curve $-1 -46.965041736185235 36.342988577771862 8.2058415970618981 0 0.84804810408105047 0.52991925155115449 0.5 0 0 1 I I #
coedge $-1 $254 $254 $-1 $374 reversed $153 $-1 #
edge $-1 $375 0 $375 6.2831853071796004 $154 $376 forward 7 unknown #
vertex $-1 $157 $377 #
ellipse-curve $-1 -37.111212417170982 36.342988577771862 8.2058415970618981 0 0.84804810408105047 0.52991925155115449 0.5 0 0 1 I I #
face $-1 $-1 $378 $33 $-1 $379 forward single #
loop $-1 $-1 $380 $158 #
plane-surface $-1 0 -37.322270235959358 0 0 1 0 0 0 1 forward_v I I I I #
coedge $-1 $262 $161 $163 $268 reversed $99 $-1 #
coedge $-1 $161 $261 $380 $381 reversed $99 $-1 #
coedge $-1 $382 $164 $161 $264 forward $159 $-1 #
edge $-1 $271 -35.063518947871145 $383 -29.169143340214426 $263 $384 forward 7 unknown #
coedge $-1 $163 $162 $385 $386 reversed $64 $-1 #
coedge $-1 $387 $388 $162 $267 forward $378 $-1 #
edge $-1 $389 -13.506545853718608 $270 -4.1402901480380319 $266 $390 forward 7 unknown #
edge $-1 $391 1.1374033043381581e-014 $271 9.3662557056805884 $261 $392 forward 7 unknown #
coedge $-1 $164 $382 $387 $393 forward $159 $-1 #
vertex $-1 $267 $394 #
vertex $-1 $165 $395 #
straight-curve $-1 23.531989569960615 -31.427894628302639 9.7730199004662772 -1 0 0 I I #
coedge $-1 $273 $273 $-1 $396 reversed $168 $-1 #
edge $-1 $397 0 $397 6.2831853071796004 $169 $398 forward 7 unknown #
vertex $-1 $172 $399 #
ellipse-curve $-1 44.291001078946863 -34.375082432131002 6.1335459638905672 0 -0.77714596973225614 0.62932038083071107 1.5 0 0 1 I I #
coedge $-1 $277 $277 $-1 $400 reversed $175 $-1 #
edge $-1 $401 0 $401 6.2831853071796004 $176 $402 forward 7 unknown #
vertex $-1 $179 $403 #
ellipse-curve $-1 49.836957200895583 -34.375082432131002 6.1335459638905672 0 -0.77714596973225614 0.62932038083071107 1.5 0 0 1 I I #
face $-1 $-1 $195 $27 $-1 $404 reversed single #
loop $-1 $-1 $297 $180 #
plane-surface $-1 0 37.322270235959358 0 0 -1 0 0 0 -1 forward_v I I I I #
coedge $-1 $405 $295 $298 $406 forward $181 $-1 #
coedge $-1 $301 $183 $184 $289 reversed $113 $-1 #
coedge $-1 $295 $405 $183 $287 reversed $181 $-1 #
edge $-1 $302 -9.7730199004662754 $407 9.7730199004662754 $286 $408 forward 7 unknown #
coedge $-1 $185 $184 $405 $409 forward $73 $-1 #
edge $-1 $293 -61.546067690054016 $407 61.546067690054016 $285 $410 forward 7 unknown #
coedge $-1 $298 $297 $185 $291 reversed $282 $-1 #
edge $-1 $411 -61.546067690054016 $292 61.546067690054016 $290 $412 forward 7 unknown #
vertex $-1 $187 $413 #
vertex $-1 $304 $414 #
straight-curve $-1 61.546067690054016 0 -9.7730199004662754 0 -1 0 I I #
coedge $-1 $284 $286 $188 $296 reversed $181 $-1 #
edge $-1 $299 -37.322270235959358 $302 37.322270235959358 $295 $415 forward 7 unknown #
coedge $-1 $290 $189 $194 $305 forward $282 $-1 #
coedge $-1 $189 $290 $284 $406 reversed $282 $-1 #
vertex $-1 $190 $416 #
straight-curve $-1 0 37.322270235959358 9.7730199004662754 -1 0 0 I I #
coedge $-1 $191 $285 $193 $304 reversed $113 $-1 #
vertex $-1 $296 $417 #
straight-curve $-1 0 -37.322270235959358 9.7730199004662754 1 0 0 I I #
edge $-1 $196 -9.7730199004662754 $293 9.7730199004662754 $193 $418 forward 7 unknown #
edge $-1 $197 -9.7730199004662754 $292 9.7730199004662754 $194 $419 forward 7 unknown #
point $-1 61.546067690054016 -37.322270235959358 9.7730199004662754 #
point $-1 61.546067690054016 37.322270235959358 9.7730199004662754 #
face $-1 $-1 $317 $28 $-1 $420 reversed single #
loop $-1 $-1 $314 $199 #
plane-surface $-1 0 0 9.7730199004662754 0 0 1 1 0 0 forward_v I I I I #
coedge $-1 $421 $422 $206 $320 forward $200 $-1 #
coedge $-1 $202 $324 $423 $424 reversed $121 $-1 #
edge $-1 $425 -6.2577958459629501 $212 -0.77265226304370049 $202 $426 forward 7 unknown #
coedge $-1 $423 $427 $203 $315 forward $309 $-1 #
edge $-1 $318 -37.322270235959358 $425 37.322270235959358 $314 $428 forward 7 unknown #
coedge $-1 $321 $204 $427 $429 reversed $317 $-1 #
loop $-1 $-1 $204 $308 #
vertex $-1 $205 $430 #
straight-curve $-1 -53.534261282194734 -37.322270235959358 3.5152240545033253 0 0 1 I I #
edge $-1 $325 -37.322270235959358 $322 37.322270235959358 $311 $431 forward 7 unknown #
coedge $-1 $207 $316 $421 $432 forward $317 $-1 #
vertex $-1 $320 $433 #
straight-curve $-1 -28.770082243062188 -37.322270235959358 4.2878763175470258 1 0 0 I I #
coedge $-1 $312 $209 $422 $434 reversed $121 $-1 #
vertex $-1 $320 $435 #
straight-curve $-1 -28.770082243062188 37.322270235959358 4.2878763175470258 -1 0 0 I I #
point $-1 -53.534261282194734 37.322270235959358 4.2878763175470258 #
point $-1 -53.534261282194734 -37.322270235959358 4.2878763175470258 #
face $-1 $-1 $230 $29 $-1 $436 reversed single #
loop $-1 $-1 $221 $215 #
plane-surface $-1 0 37.322270235959358 0 0 -1 0 0 0 -1 forward_v I I I I #
coedge $-1 $224 $437 $336 $438 forward $216 $-1 #
coedge $-1 $439 $218 $437 $440 forward $129 $-1 #
coedge $-1 $218 $439 $338 $441 forward $129 $-1 #
edge $-1 $340 -37.322270235959358 $442 37.322270235959358 $218 $443 forward 7 unknown #
coedge $-1 $220 $219 $332 $438 reversed $81 $-1 #
edge $-1 $343 -37.322270235959358 $339 37.322270235959358 $219 $444 forward 7 unknown #
coedge $-1 $345 $221 $334 $441 reversed $330 $-1 #
vertex $-1 $227 $445 #
vertex $-1 $222 $446 #
straight-curve $-1 53.534261282194727 37.322270235959358 3.5152240545033253 0 0 1 I I #
coedge $-1 $437 $224 $229 $349 reversed $216 $-1 #
vertex $-1 $225 $447 #
straight-curve $-1 28.770082243062184 -37.322270235959358 4.2878763175470258 1 0 0 I I #
coedge $-1 $226 $338 $228 $348 forward $330 $-1 #
straight-curve $-1 28.770082243062184 37.322270235959358 4.2878763175470258 -1 0 0 I I #
coedge $-1 $229 $228 $439 $448 reversed $230 $-1 #
edge $-1 $449 -9.7730199004662754 $232 -4.2878763175470258 $228 $450 forward 7 unknown #
edge $-1 $451 -9.7730199004662754 $231 -4.2878763175470258 $229 $452 forward 7 unknown #
point $-1 61.546067690054009 -37.322270235959358 4.2878763175470258 #
point $-1 61.546067690054009 37.322270235959358 4.2878763175470258 #
loop $-1 $-1 $243 $234 #
plane-surface $-1 -53.534261282194734 0 7.0304481090066506 -1 0 0 0 0 1 forward_v I I I I #
coedge $-1 $453 $237 $242 $360 forward $137 $-1 #
coedge $-1 $237 $453 $357 $454 reversed $137 $-1 #
edge $-1 $358 57.811838386198552 $365 60.946194993007296 $237 $455 forward 7 unknown #
coedge $-1 $246 $240 $355 $454 forward $235 $-1 #
vertex $-1 $454 $456 #
straight-curve $-1 -30.541992871161483 51.077371626544476 9.7730199004662737 0 1 0 I I #
edge $-1 $365 9.5229293328224287 $363 32.51519774385568 $354 $457 forward 7 unknown #
coedge $-1 $362 $243 $246 $367 reversed $352 $-1 #
coedge $-1 $243 $361 $453 $458 reversed $352 $-1 #
vertex $-1 $458 $459 #
straight-curve $-1 -53.534261282194734 12.216131555607911 46.81688525171122 0 -0.52991925155115449 0.84804810408105047 I I #
vertex $-1 $360 $460 #
straight-curve $-1 -30.541992871161483 -2.2333087832996625 69.940824320869424 0 -0.52991925155115449 0.84804810408105047 I I #
edge $-1 $461 -37.322270235959358 $247 -35.363706919584367 $246 $462 forward 7 unknown #
point $-1 -53.534261282194734 35.363706919584367 9.7730199004662737 #
point $-1 -30.541992871161483 35.363706919584367 9.7730199004662737 #
edge $-1 $463 1 $463 0 $250 $-1 forward 7 unknown #
vertex $-1 $251 $464 #
ellipse-curve $-1 -46.965041736185235 35.248901187169402 7.5221799411139036 0 0.84804810408105047 0.52991925155115449 0.5 0 0 1 I I #
point $-1 -46.465041736185235 36.342988577771848 8.2058415970618928 #
edge $-1 $465 1 $465 0 $254 $-1 forward 7 unknown #
vertex $-1 $255 $466 #
ellipse-curve $-1 -37.111212417170982 35.248901187169402 7.5221799411139036 0 0.84804810408105047 0.52991925155115449 0.5 0 0 1 I I #
point $-1 -36.611212417170982 36.342988577771848 8.2058415970618928 #
loop $-1 $-1 $266 $258 #
plane-surface $-1 53.534261282194727 0 7.0304481090066506 1 0 0 0 0 -1 forward_v I I I I #
coedge $-1 $385 $467 $262 $381 forward $259 $-1 #
edge $-1 $383 30.206210870528665 $391 37.485158743680074 $380 $468 forward 7 unknown #
coedge $-1 $269 $263 $467 $469 forward $159 $-1 #
vertex $-1 $469 $470 #
straight-curve $-1 40.593696997647726 -66.491413576173784 9.7730199004662737 0 -1 0 I I #
coedge $-1 $471 $380 $265 $386 forward $259 $-1 #
edge $-1 $391 17.061707427687111 $389 30.002271712234119 $385 $472 forward 7 unknown #
coedge $-1 $388 $266 $269 $393 reversed $378 $-1 #
coedge $-1 $266 $387 $471 $473 reversed $378 $-1 #
vertex $-1 $473 $474 #
straight-curve $-1 53.534261282194727 -28.822325655589701 12.990629702536197 0 0.62932038083071107 0.77714596973225614 I I #
vertex $-1 $386 $475 #
straight-curve $-1 40.593696997647726 -37.322270235959365 2.4940720273148571 0 0.62932038083071107 0.77714596973225614 I I #
edge $-1 $476 -37.322270235959358 $270 -31.427894628302639 $269 $477 forward 7 unknown #
point $-1 53.534261282194734 -31.427894628302639 9.7730199004662754 #
point $-1 40.593696997647726 -31.427894628302639 9.7730199004662754 #
edge $-1 $478 1 $478 0 $273 $-1 forward 7 unknown #
vertex $-1 $274 $479 #
ellipse-curve $-1 44.291001078946863 -30.71779797000071 3.1719354812330729 0 -0.77714596973225614 0.62932038083071107 1.5 0 0 1 I I #
point $-1 45.791001078946863 -34.375082432130995 6.1335459638905672 #
edge $-1 $480 1 $480 0 $277 $-1 forward 7 unknown #
vertex $-1 $278 $481 #
ellipse-curve $-1 49.836957200895583 -30.71779797000071 3.1719354812330729 0 -0.77714596973225614 0.62932038083071107 1.5 0 0 1 I I #
point $-1 51.336957200895583 -34.375082432130995 6.1335459638905672 #
plane-surface $-1 61.546067690054016 0 0 -1 0 0 0 0 1 forward_v I I I I #
coedge $-1 $286 $284 $288 $409 reversed $181 $-1 #
edge $-1 $299 -9.7730199004662754 $411 9.7730199004662754 $298 $482 forward 7 unknown #
vertex $-1 $409 $483 #
straight-curve $-1 -61.546067690054016 -37.322270235959358 0 0 0 -1 I I #
edge $-1 $407 -37.322270235959358 $411 37.322270235959358 $405 $484 forward 7 unknown #
straight-curve $-1 0 -37.322270235959358 -9.7730199004662754 -1 0 0 I I #
vertex $-1 $291 $485 #
straight-curve $-1 0 37.322270235959358 -9.7730199004662754 1 0 0 I I #
point $-1 61.546067690054016 37.322270235959358 -9.7730199004662754 #
point $-1 61.546067690054016 -37.322270235959358 -9.7730199004662754 #
straight-curve $-1 -61.546067690054016 0 9.7730199004662754 0 -1 0 I I #
point $-1 -61.546067690054016 37.322270235959358 9.7730199004662754 #
point $-1 -61.546067690054016 -37.322270235959358 9.7730199004662754 #
straight-curve $-1 61.546067690054016 -37.322270235959358 0 0 0 -1 I I #
straight-curve $-1 61.546067690054016 37.322270235959358 0 0 0 -1 I I #
plane-surface $-1 0 -37.322270235959358 0 0 1 0 0 0 1 forward_v I I I I #
coedge $-1 $486 $311 $321 $432 reversed $200 $-1 #
coedge $-1 $311 $486 $324 $434 forward $200 $-1 #
coedge $-1 $487 $314 $312 $424 forward $309 $-1 #
edge $-1 $425 53.534261282194734 $488 61.546067690054016 $312 $489 forward 7 unknown #
vertex $-1 $424 $490 #
straight-curve $-1 -53.534261282194734 37.322270235959358 3.5152240545033253 0 0 -1 I I #
coedge $-1 $314 $487 $316 $429 forward $309 $-1 #
straight-curve $-1 -53.534261282194734 0 9.7730199004662754 0 1 0 I I #
edge $-1 $491 -61.546067690054016 $318 -53.534261282194734 $316 $492 forward 7 unknown #
point $-1 -53.534261282194734 -37.322270235959358 9.7730199004662754 #
straight-curve $-1 -61.546067690054016 0 4.2878763175470258 0 -1 0 I I #
edge $-1 $491 -9.7730199004662754 $322 -4.2878763175470258 $421 $493 forward 7 unknown #
point $-1 -61.546067690054016 -37.322270235959358 4.2878763175470258 #
edge $-1 $488 -9.7730199004662754 $325 -4.2878763175470258 $324 $494 forward 7 unknown #
point $-1 -61.546067690054016 37.322270235959358 4.2878763175470258 #
plane-surface $-1 61.546067690054016 0 0 -1 0 0 0 0 1 forward_v I I I I #
coedge $-1 $332 $342 $333 $440 reversed $216 $-1 #
edge $-1 $442 -6.2577958459629501 $343 -0.77265226304370049 $332 $495 forward 7 unknown #
coedge $-1 $334 $333 $347 $448 forward $129 $-1 #
edge $-1 $442 53.534261282194727 $451 61.546067690054016 $437 $496 forward 7 unknown #
edge $-1 $449 -61.546067690054016 $340 -53.534261282194727 $338 $497 forward 7 unknown #
vertex $-1 $440 $498 #
straight-curve $-1 53.534261282194727 0 9.7730199004662754 0 -1 0 I I #
straight-curve $-1 53.534261282194727 0 4.2878763175470258 0 1 0 I I #
point $-1 53.534261282194727 37.322270235959358 4.2878763175470258 #
point $-1 53.534261282194727 37.322270235959358 9.7730199004662754 #
point $-1 53.534261282194727 -37.322270235959358 4.2878763175470258 #
edge $-1 $451 -37.322270235959358 $449 37.322270235959358 $347 $499 forward 7 unknown #
vertex $-1 $448 $500 #
straight-curve $-1 61.546067690054016 37.322270235959358 0 0 0 -1 I I #
vertex $-1 $448 $501 #
straight-curve $-1 61.546067690054016 -37.322270235959358 0 0 0 -1 I I #
coedge $-1 $355 $354 $362 $458 forward $137 $-1 #
edge $-1 $358 30.541992871161483 $461 53.534261282194734 $355 $502 forward 7 unknown #
straight-curve $-1 -30.541992871161483 37.322270235959358 67.584858286664826 0 0 -1 I I #
point $-1 -30.541992871161483 37.322270235959358 9.7730199004662754 #
straight-curve $-1 -21.019063538339054 37.322270235959358 6.6386632936575296 -1 0 0 I I #
edge $-1 $363 3.1234392391542043 $461 6.2577958459629501 $453 $503 forward 7 unknown #
point $-1 -53.534261282194734 37.322270235959358 6.6386632936575296 #
point $-1 -30.541992871161483 37.322270235959358 6.6386632936575296 #
vertex $-1 $367 $504 #
straight-curve $-1 -53.534261282194734 0 9.7730199004662754 0 -1 0 I I #
vertex $-1 $370 $505 #
point $-1 -46.465041736185235 35.248901187169402 7.5221799411139036 #
vertex $-1 $374 $506 #
point $-1 -36.611212417170982 35.248901187169402 7.5221799411139036 #
coedge $-1 $380 $471 $382 $469 reversed $259 $-1 #
straight-curve $-1 40.593696997647726 -37.322270235959358 39.979230770994938 0 0 -1 I I #
edge $-1 $383 40.593696997647726 $476 53.534261282194727 $467 $507 forward 7 unknown #
point $-1 40.593696997647726 -37.322270235959358 9.7730199004662754 #
coedge $-1 $467 $385 $388 $473 forward $259 $-1 #
straight-curve $-1 23.531989569960615 -37.322270235959358 2.4940720273148722 1 0 0 I I #
edge $-1 $389 -37.485158743680074 $476 -30.206210870528665 $471 $508 forward 7 unknown #
point $-1 53.534261282194734 -37.322270235959358 2.494072027314866 #
point $-1 40.593696997647726 -37.322270235959358 2.494072027314866 #
vertex $-1 $393 $509 #
straight-curve $-1 53.534261282194727 0 9.7730199004662754 0 1 0 I I #
vertex $-1 $396 $510 #
point $-1 45.791001078946863 -30.71779797000071 3.1719354812330729 #
vertex $-1 $400 $511 #
point $-1 51.336957200895583 -30.71779797000071 3.1719354812330729 #
straight-curve $-1 -61.546067690054016 37.322270235959358 0 0 0 -1 I I #
point $-1 -61.546067690054016 -37.322270235959358 -9.7730199004662754 #
straight-curve $-1 -61.546067690054016 0 -9.7730199004662754 0 1 0 I I #
point $-1 -61.546067690054016 37.322270235959358 -9.7730199004662754 #
coedge $-1 $422 $421 $487 $512 reversed $200 $-1 #
coedge $-1 $427 $423 $486 $512 forward $309 $-1 #
vertex $-1 $424 $513 #
straight-curve $-1 0 37.322270235959358 9.7730199004662754 -1 0 0 I I #
point $-1 -53.534261282194734 37.322270235959358 9.7730199004662754 #
vertex $-1 $512 $514 #
straight-curve $-1 0 -37.322270235959358 9.7730199004662754 1 0 0 I I #
straight-curve $-1 -61.546067690054016 -37.322270235959358 0 0 0 -1 I I #
straight-curve $-1 -61.546067690054016 37.322270235959358 0 0 0 -1 I I #
straight-curve $-1 53.534261282194727 -37.322270235959358 3.5152240545033253 0 0 -1 I I #
straight-curve $-1 0 -37.322270235959358 9.7730199004662754 1 0 0 I I #
straight-curve $-1 0 37.322270235959358 9.7730199004662754 -1 0 0 I I #
point $-1 53.534261282194727 -37.322270235959358 9.7730199004662754 #
straight-curve $-1 61.546067690054016 0 9.7730199004662754 0 1 0 I I #
point $-1 61.546067690054016 37.322270235959358 9.7730199004662754 #
point $-1 61.546067690054016 -37.322270235959358 9.7730199004662754 #
straight-curve $-1 0 37.322270235959358 9.7730199004662754 -1 0 0 I I #
straight-curve $-1 -53.534261282194734 37.322270235959358 3.5152240545033253 0 0 1 I I #
point $-1 -53.534261282194734 37.322270235959358 9.7730199004662754 #
point $-1 -46.965041736185235 34.82487713512888 7.2572203153383272 #
point $-1 -37.111212417170982 34.82487713512888 7.2572203153383272 #
straight-curve $-1 0 -37.322270235959358 9.7730199004662754 1 0 0 I I #
straight-curve $-1 53.534261282194734 -37.322270235959358 39.979230770994938 0 0 1 I I #
point $-1 53.534261282194727 -37.322270235959358 9.7730199004662754 #
point $-1 44.291001078946863 -29.552079015402327 2.2279549099870066 #
point $-1 49.836957200895583 -29.552079015402327 2.2279549099870066 #
edge $-1 $488 -37.322270235959358 $491 37.322270235959358 $486 $515 forward 7 unknown #
point $-1 -61.546067690054016 37.322270235959358 9.7730199004662754 #
point $-1 -61.546067690054016 -37.322270235959358 9.7730199004662754 #
straight-curve $-1 -61.546067690054016 0 9.7730199004662754 0 -1 0 I I #
End-of-ACIS-data 