500 0 8 0           
7 Unknown 11 ACIS 5.0 NT 24 Thu Mar 25 18:38:21 1999 
-1 9.9999999999999995e-007 1e-010 
body $-1 $8 $-1 $9 #
body $-1 $10 $-1 $11 #
body $-1 $12 $-1 $13 #
body $-1 $14 $-1 $15 #
body $-1 $16 $-1 $17 #
body $-1 $18 $-1 $19 #
body $-1 $20 $-1 $21 #
body $-1 $22 $-1 $23 #
lump $-1 $-1 $24 $0 #
transform $-1 1 0 0 0 1 0 0 0 1 57.522507400738547 35.753941579313384 11.16504582116179 1 rotate no_reflect no_shear #
lump $-1 $-1 $25 $1 #
transform $-1 1 0 0 0 1 0 0 0 1 57.522507400738547 35.753941579313384 11.16504582116179 1 rotate no_reflect no_shear #
lump $-1 $-1 $26 $2 #
transform $-1 1 0 0 0 1 0 0 0 1 57.522507400738547 35.753941579313384 11.16504582116179 1 rotate no_reflect no_shear #
lump $-1 $-1 $27 $3 #
transform $-1 1 0 0 0 1 0 0 0 1 57.522507400738547 35.753941579313384 11.16504582116179 1 rotate no_reflect no_shear #
lump $-1 $-1 $28 $4 #
transform $-1 1 0 0 0 1 0 0 0 1 57.522507400738547 35.753941579313384 11.16504582116179 1 rotate no_reflect no_shear #
lump $-1 $-1 $29 $5 #
transform $-1 1 0 0 0 1 0 0 0 1 57.522507400738547 35.753941579313384 11.16504582116179 1 rotate no_reflect no_shear #
lump $-1 $-1 $30 $6 #
transform $-1 1 0 0 0 1 0 0 0 1 57.522507400738547 35.753941579313384 11.16504582116179 1 rotate no_reflect no_shear #
lump $-1 $-1 $31 $7 #
transform $-1 1 0 0 0 1 0 0 0 1 57.522507400738547 35.753941579313384 11.16504582116179 1 rotate no_reflect no_shear #
shell $-1 $-1 $-1 $32 $-1 $8 #
shell $-1 $-1 $-1 $33 $-1 $10 #
shell $-1 $-1 $-1 $34 $-1 $12 #
shell $-1 $-1 $-1 $35 $-1 $14 #
shell $-1 $-1 $-1 $36 $-1 $16 #
shell $-1 $-1 $-1 $37 $-1 $18 #
shell $-1 $-1 $-1 $38 $-1 $20 #
shell $-1 $-1 $-1 $39 $-1 $22 #
face $-1 $40 $41 $24 $-1 $42 forward single #
face $-1 $43 $44 $25 $-1 $45 forward single #
face $-1 $46 $47 $26 $-1 $48 reversed single #
face $-1 $49 $50 $27 $-1 $51 forward single #
face $-1 $52 $53 $28 $-1 $54 forward single #
face $-1 $55 $56 $29 $-1 $57 reversed single #
face $-1 $58 $59 $30 $-1 $60 forward single #
face $-1 $61 $62 $31 $-1 $63 forward single #
face $-1 $64 $65 $24 $-1 $66 reversed single #
loop $-1 $-1 $67 $32 #
plane-surface $-1 0 0 11.16504582116179 0 0 1 1 0 0 forward_v I I I I #
face $-1 $68 $69 $25 $-1 $70 reversed single #
loop $-1 $-1 $71 $33 #
plane-surface $-1 0 -35.753941579313384 0 0 1 0 0 0 1 forward_v I I I I #
face $-1 $72 $73 $26 $-1 $74 reversed single #
loop $-1 $-1 $75 $34 #
plane-surface $-1 57.522509288453051 32.468208831629042 163.24817157304338 0 -1 0 -0.70710678939079041 0 -0.70710677298230451 forward_v I I I I #
face $-1 $76 $77 $27 $-1 $78 forward single #
loop $-1 $79 $80 $35 #
cone-surface $-1 49.429649665261813 22.404685248061249 3.0721880271562867 -0.70710678939079041 0 -0.70710677298230451 1.414213545964609 0 -1.4142135787815808 1 I I 0 1 2 forward I I I I #
face $-1 $81 $82 $28 $-1 $83 forward single #
loop $-1 $84 $85 $36 #
cone-surface $-1 49.429649665261813 28.442799398201934 3.0721880271562867 -0.70710678939079041 0 -0.70710677298230451 1.414213545964609 0 -1.4142135787815808 1 I I 0 1 2 forward I I I I #
face $-1 $86 $87 $29 $-1 $88 reversed single #
loop $-1 $-1 $89 $37 #
plane-surface $-1 -138.87161845242696 18.379275814634124 81.899060521354926 0 1 0 -0.70710678939079041 0 0.70710677298230451 forward_v I I I I #
face $-1 $90 $91 $30 $-1 $92 forward single #
loop $-1 $93 $94 $38 #
cone-surface $-1 -49.429649665261806 22.404685248061249 3.0721880271562902 0.70710678939079041 0 -0.70710677298230451 1.414213545964609 0 1.4142135787815808 1 I I 0 1 2 forward I I I I #
face $-1 $95 $96 $31 $-1 $97 forward single #
loop $-1 $98 $99 $39 #
cone-surface $-1 -49.429649665261806 28.442799398201934 3.0721880271562902 0.70710678939079041 0 -0.70710677298230451 1.414213545964609 0 1.4142135787815808 1 I I 0 1 2 forward I I I I #
face $-1 $100 $101 $24 $-1 $102 reversed single #
loop $-1 $-1 $103 $40 #
plane-surface $-1 0 0 -11.16504582116179 0 0 1 1 0 0 forward_v I I I I #
coedge $-1 $104 $105 $106 $107 forward $41 $-1 #
face $-1 $108 $109 $25 $-1 $110 forward single #
loop $-1 $-1 $111 $43 #
plane-surface $-1 -57.522507400738547 0 0 1 0 0 0 0 -1 forward_v I I I I #
coedge $-1 $112 $113 $114 $115 forward $44 $-1 #
face $-1 $116 $117 $26 $-1 $118 reversed single #
loop $-1 $-1 $119 $46 #
plane-surface $-1 -23.826601763235374 25.423742323131584 81.899062409069458 0.70710678939079041 0 0.70710677298230451 0.70710677298230451 0 -0.70710678939079041 forward_v I I I I #
coedge $-1 $120 $121 $122 $123 reversed $47 $-1 #
face $-1 $-1 $124 $27 $-1 $125 forward single #
loop $-1 $126 $127 $49 #
cone-surface $-1 45.937232249122488 22.404685248061249 -0.42022930794113478 -0.70710678939079041 0 -0.70710677298230451 0.70710677298230451 0 -0.70710678939079041 1 I I -0.70710678118654746 0.70710678118654746 1 forward I I I I #
loop $-1 $-1 $128 $35 #
coedge $-1 $80 $80 $129 $130 reversed $50 $-1 #
face $-1 $-1 $131 $28 $-1 $132 forward single #
loop $-1 $133 $134 $52 #
cone-surface $-1 45.937232249122488 28.442799398201934 -0.42022930794113478 -0.70710678939079041 0 -0.70710677298230451 0.70710677298230451 0 -0.70710678939079041 1 I I -0.70710678118654746 0.70710678118654746 1 forward I I I I #
loop $-1 $-1 $135 $36 #
coedge $-1 $85 $85 $136 $137 reversed $53 $-1 #
face $-1 $138 $139 $29 $-1 $140 reversed single #
loop $-1 $-1 $141 $55 #
plane-surface $-1 -57.522507400738533 25.423742323131584 0.54995135738100487 -0.70710678939079041 0 0.70710677298230451 0.70710677298230451 0 0.70710678939079041 forward_v I I I I #
coedge $-1 $142 $143 $144 $145 reversed $56 $-1 #
face $-1 $-1 $146 $30 $-1 $147 forward single #
loop $-1 $148 $149 $58 #
cone-surface $-1 -45.937232249122481 22.404685248061249 -0.42022930794113122 0.70710678939079041 0 -0.70710677298230451 0.70710677298230451 0 0.70710678939079041 1 I I -0.70710678118654746 0.70710678118654746 1 forward I I I I #
loop $-1 $-1 $150 $38 #
coedge $-1 $94 $94 $151 $152 reversed $59 $-1 #
face $-1 $-1 $153 $31 $-1 $154 forward single #
loop $-1 $155 $156 $61 #
cone-surface $-1 -45.937232249122481 28.442799398201934 -0.42022930794113122 0.70710678939079041 0 -0.70710677298230451 0.70710677298230451 0 0.70710678939079041 1 I I -0.70710678118654746 0.70710678118654746 1 forward I I I I #
loop $-1 $-1 $157 $39 #
coedge $-1 $99 $99 $158 $159 reversed $62 $-1 #
face $-1 $160 $161 $24 $-1 $162 reversed single #
loop $-1 $-1 $163 $64 #
plane-surface $-1 0 -35.753941579313384 0 0 1 0 0 0 1 forward_v I I I I #
coedge $-1 $164 $165 $166 $167 forward $65 $-1 #
coedge $-1 $168 $67 $169 $170 forward $41 $-1 #
coedge $-1 $67 $168 $171 $172 forward $41 $-1 #
coedge $-1 $173 $174 $67 $107 reversed $175 $-1 #
edge $-1 $176 -35.753941579313384 $177 35.753941579313384 $106 $178 forward 7 unknown #
face $-1 $179 $180 $25 $-1 $181 reversed single #
loop $-1 $-1 $182 $68 #
plane-surface $-1 0 -42.267057616873153 6.5583169282236256 0 0 1 1 0 0 forward_v I I I I #
coedge $-1 $183 $184 $113 $185 forward $69 $-1 #
coedge $-1 $186 $71 $187 $188 reversed $44 $-1 #
coedge $-1 $71 $186 $111 $185 reversed $44 $-1 #
coedge $-1 $189 $182 $71 $115 reversed $109 $-1 #
edge $-1 $190 -57.522507400738547 $191 57.522507400738547 $114 $192 forward 7 unknown #
face $-1 $193 $194 $26 $-1 $195 reversed single #
loop $-1 $-1 $196 $72 #
plane-surface $-1 57.522509288453051 18.379275814634124 163.24817157304338 0 1 0 0.70710678939079041 0 0.70710677298230451 forward_v I I I I #
coedge $-1 $197 $198 $199 $200 reversed $73 $-1 #
coedge $-1 $121 $75 $201 $202 reversed $47 $-1 #
coedge $-1 $75 $120 $197 $203 reversed $47 $-1 #
coedge $-1 $199 $204 $75 $123 forward $205 $-1 #
edge $-1 $206 -28.761252756512022 $207 -18.146158539055619 $122 $208 forward 7 unknown #
loop $-1 $-1 $129 $76 #
plane-surface $-1 -23.826601763235374 25.423742323131584 81.899062409069458 0.70710678939079041 0 0.70710677298230451 0.70710677298230451 0 -0.70710678939079041 forward_v I I I I #
loop $-1 $-1 $209 $49 #
coedge $-1 $127 $127 $128 $210 reversed $77 $-1 #
coedge $-1 $128 $128 $127 $210 forward $79 $-1 #
coedge $-1 $129 $129 $80 $130 forward $124 $-1 #
edge $-1 $211 0 $211 6.2831853071796004 $129 $212 forward 7 unknown #
loop $-1 $-1 $136 $81 #
plane-surface $-1 -23.826601763235374 25.423742323131584 81.899062409069458 0.70710678939079041 0 0.70710677298230451 0.70710677298230451 0 -0.70710678939079041 forward_v I I I I #
loop $-1 $-1 $213 $52 #
coedge $-1 $134 $134 $135 $214 reversed $82 $-1 #
coedge $-1 $135 $135 $134 $214 forward $84 $-1 #
coedge $-1 $136 $136 $85 $137 forward $131 $-1 #
edge $-1 $215 0 $215 6.2831853071796004 $136 $216 forward 7 unknown #
face $-1 $217 $218 $29 $-1 $219 forward single #
loop $-1 $-1 $220 $86 #
plane-surface $-1 -138.87161845242696 32.468208831629042 81.899060521354926 0 -1 0 0.70710678939079041 0 -0.70710677298230451 forward_v I I I I #
coedge $-1 $221 $222 $223 $224 reversed $87 $-1 #
coedge $-1 $143 $89 $225 $226 reversed $56 $-1 #
coedge $-1 $89 $142 $221 $227 reversed $56 $-1 #
coedge $-1 $223 $228 $89 $145 forward $218 $-1 #
edge $-1 $229 11.913301825474932 $230 22.528396042931369 $144 $231 forward 7 unknown #
loop $-1 $-1 $151 $90 #
plane-surface $-1 -57.522507400738533 25.423742323131584 0.54995135738100487 -0.70710678939079041 0 0.70710677298230451 0.70710677298230451 0 0.70710678939079041 forward_v I I I I #
loop $-1 $-1 $232 $58 #
coedge $-1 $149 $149 $150 $233 reversed $91 $-1 #
coedge $-1 $150 $150 $149 $233 forward $93 $-1 #
coedge $-1 $151 $151 $94 $152 forward $146 $-1 #
edge $-1 $234 0 $234 6.2831853071796004 $151 $235 forward 7 unknown #
loop $-1 $-1 $158 $95 #
plane-surface $-1 -57.522507400738533 25.423742323131584 0.54995135738100487 -0.70710678939079041 0 0.70710677298230451 0.70710677298230451 0 0.70710678939079041 forward_v I I I I #
loop $-1 $-1 $236 $61 #
coedge $-1 $156 $156 $157 $237 reversed $96 $-1 #
coedge $-1 $157 $157 $156 $237 forward $98 $-1 #
coedge $-1 $158 $158 $99 $159 forward $153 $-1 #
edge $-1 $238 0 $238 6.2831853071796004 $158 $239 forward 7 unknown #
face $-1 $240 $241 $24 $-1 $242 reversed single #
loop $-1 $-1 $243 $100 #
plane-surface $-1 -57.522507400738547 0 0 1 0 0 0 0 -1 forward_v I I I I #
coedge $-1 $244 $171 $245 $246 forward $101 $-1 #
coedge $-1 $247 $103 $244 $248 forward $65 $-1 #
coedge $-1 $103 $247 $249 $250 forward $65 $-1 #
coedge $-1 $174 $173 $103 $167 reversed $175 $-1 #
edge $-1 $251 -35.753941579313384 $252 35.753941579313384 $166 $253 forward 7 unknown #
coedge $-1 $105 $104 $254 $255 forward $41 $-1 #
coedge $-1 $256 $257 $104 $170 reversed $241 $-1 #
edge $-1 $177 -57.522507400738547 $258 57.522507400738547 $169 $259 forward 7 unknown #
coedge $-1 $163 $260 $105 $172 reversed $101 $-1 #
edge $-1 $261 -57.522507400738547 $176 57.522507400738547 $171 $262 forward 7 unknown #
coedge $-1 $166 $106 $260 $263 forward $175 $-1 #
coedge $-1 $106 $166 $256 $264 reversed $175 $-1 #
loop $-1 $-1 $173 $240 #
vertex $-1 $107 $265 #
vertex $-1 $107 $266 #
straight-curve $-1 57.522507400738547 0 11.16504582116179 0 1 0 I I #
face $-1 $267 $268 $25 $-1 $269 reversed single #
loop $-1 $-1 $270 $108 #
plane-surface $-1 0 -42.267057616873153 3.5583169282236256 0 0 1 1 0 0 forward_v I I I I #
coedge $-1 $114 $271 $272 $273 forward $109 $-1 #
coedge $-1 $274 $111 $275 $276 reversed $69 $-1 #
coedge $-1 $111 $274 $189 $277 reversed $69 $-1 #
edge $-1 $190 -6.5583169282236256 $278 -3.5583169282236256 $111 $279 forward 7 unknown #
coedge $-1 $113 $112 $280 $281 forward $44 $-1 #
coedge $-1 $272 $282 $112 $188 forward $283 $-1 #
edge $-1 $284 3.5583169282236256 $191 6.5583169282236256 $187 $285 forward 7 unknown #
coedge $-1 $271 $114 $184 $277 forward $109 $-1 #
vertex $-1 $185 $286 #
vertex $-1 $273 $287 #
straight-curve $-1 0 -35.753941579313384 6.5583169282236256 1 0 0 I I #
face $-1 $-1 $205 $26 $-1 $288 forward single #
loop $-1 $-1 $289 $116 #
plane-surface $-1 57.522507400738547 0 0 -1 0 0 0 0 1 forward_v I I I I #
coedge $-1 $290 $291 $292 $293 reversed $117 $-1 #
coedge $-1 $294 $119 $121 $203 forward $73 $-1 #
coedge $-1 $119 $294 $290 $295 forward $73 $-1 #
coedge $-1 $292 $122 $119 $200 forward $205 $-1 #
edge $-1 $207 -19.75633767006325 $296 -5.6674046530683313 $199 $297 forward 7 unknown #
coedge $-1 $298 $299 $120 $202 forward $194 $-1 #
edge $-1 $300 -81.074134429140656 $206 -70.459039965359892 $201 $301 forward 7 unknown #
edge $-1 $207 100.03300441910443 $300 115.04501480147711 $121 $302 forward 7 unknown #
coedge $-1 $122 $292 $298 $303 forward $205 $-1 #
loop $-1 $-1 $292 $193 #
vertex $-1 $202 $304 #
vertex $-1 $123 $305 #
straight-curve $-1 28.761254644226526 32.468208831629042 11.165045821161783 -1 0 0 I I #
coedge $-1 $209 $209 $-1 $306 reversed $126 $-1 #
edge $-1 $307 0 $307 6.2831853071796004 $127 $308 forward 7 unknown #
vertex $-1 $130 $309 #
ellipse-curve $-1 52.214960292010353 22.404685248061249 5.8574985892714047 0.70710678939079041 0 0.70710677298230451 1.414213545964609 0 -1.4142135787815808 1 I I #
coedge $-1 $213 $213 $-1 $310 reversed $133 $-1 #
edge $-1 $311 0 $311 6.2831853071796004 $134 $312 forward 7 unknown #
vertex $-1 $137 $313 #
ellipse-curve $-1 52.214960292010353 28.442799398201934 5.8574985892714047 0.70710678939079041 0 0.70710677298230451 1.414213545964609 0 -1.4142135787815808 1 I I #
face $-1 $-1 $314 $29 $-1 $315 reversed single #
loop $-1 $-1 $144 $138 #
plane-surface $-1 0 0 11.16504582116179 0 0 1 1 0 0 forward_v I I I I #
coedge $-1 $316 $317 $318 $319 reversed $139 $-1 #
coedge $-1 $320 $141 $143 $227 forward $87 $-1 #
coedge $-1 $141 $320 $316 $321 forward $87 $-1 #
coedge $-1 $318 $144 $141 $224 forward $218 $-1 #
edge $-1 $230 5.6674046530683313 $322 19.75633767006325 $223 $323 forward 7 unknown #
coedge $-1 $324 $325 $142 $226 forward $314 $-1 #
edge $-1 $326 -40.399578903296472 $229 -29.784484439515673 $225 $327 forward 7 unknown #
edge $-1 $230 -15.012010382372722 $326 2.0097183471152325e-014 $143 $328 forward 7 unknown #
coedge $-1 $144 $318 $324 $329 forward $218 $-1 #
vertex $-1 $145 $330 #
vertex $-1 $145 $331 #
straight-curve $-1 -69.435809226213479 18.379275814634124 11.16504582116179 1 0 0 I I #
coedge $-1 $232 $232 $-1 $332 reversed $148 $-1 #
edge $-1 $333 0 $333 6.2831853071796004 $149 $334 forward 7 unknown #
vertex $-1 $152 $335 #
ellipse-curve $-1 -52.214960292010325 22.404685248061249 5.8574985892713904 -0.70710678939079041 0 0.70710677298230451 1.414213545964609 0 1.4142135787815808 1 I I #
coedge $-1 $236 $236 $-1 $336 reversed $155 $-1 #
edge $-1 $337 0 $337 6.2831853071796004 $156 $338 forward 7 unknown #
vertex $-1 $159 $339 #
ellipse-curve $-1 -52.214960292010325 28.442799398201934 5.8574985892713904 -0.70710678939079041 0 0.70710677298230451 1.414213545964609 0 1.4142135787815808 1 I I #
face $-1 $-1 $175 $24 $-1 $340 reversed single #
loop $-1 $-1 $256 $160 #
plane-surface $-1 0 35.753941579313384 0 0 -1 0 0 0 -1 forward_v I I I I #
coedge $-1 $341 $254 $257 $342 forward $161 $-1 #
coedge $-1 $260 $163 $164 $248 reversed $101 $-1 #
coedge $-1 $254 $341 $163 $246 reversed $161 $-1 #
edge $-1 $261 -11.16504582116179 $343 11.16504582116179 $245 $344 forward 7 unknown #
coedge $-1 $165 $164 $341 $345 forward $65 $-1 #
edge $-1 $252 -57.522507400738547 $343 57.522507400738547 $244 $346 forward 7 unknown #
coedge $-1 $257 $256 $165 $250 reversed $241 $-1 #
edge $-1 $347 -57.522507400738547 $251 57.522507400738547 $249 $348 forward 7 unknown #
vertex $-1 $167 $349 #
vertex $-1 $263 $350 #
straight-curve $-1 57.522507400738547 0 -11.16504582116179 0 -1 0 I I #
coedge $-1 $243 $245 $168 $255 reversed $161 $-1 #
edge $-1 $258 -35.753941579313384 $261 35.753941579313384 $254 $351 forward 7 unknown #
coedge $-1 $249 $169 $174 $264 forward $241 $-1 #
coedge $-1 $169 $249 $243 $342 reversed $241 $-1 #
vertex $-1 $170 $352 #
straight-curve $-1 0 35.753941579313384 11.16504582116179 -1 0 0 I I #
coedge $-1 $171 $244 $173 $263 reversed $101 $-1 #
vertex $-1 $255 $353 #
straight-curve $-1 0 -35.753941579313384 11.16504582116179 1 0 0 I I #
edge $-1 $176 -11.16504582116179 $252 11.16504582116179 $173 $354 forward 7 unknown #
edge $-1 $177 -11.16504582116179 $251 11.16504582116179 $174 $355 forward 7 unknown #
point $-1 57.522507400738547 -35.753941579313384 11.16504582116179 #
point $-1 57.522507400738547 35.753941579313384 11.16504582116179 #
face $-1 $-1 $283 $25 $-1 $356 reversed single #
loop $-1 $-1 $357 $179 #
plane-surface $-1 0 -48.780173654432922 5.0583169282236256 0 1 0 0 0 1 forward_v I I I I #
coedge $-1 $358 $280 $282 $359 forward $180 $-1 #
coedge $-1 $182 $189 $360 $361 forward $109 $-1 #
coedge $-1 $362 $187 $182 $273 reversed $283 $-1 #
edge $-1 $363 -6.5131160375597688 $191 6.5131160375597688 $272 $364 forward 7 unknown #
coedge $-1 $184 $183 $357 $365 reversed $69 $-1 #
coedge $-1 $280 $358 $183 $276 forward $180 $-1 #
edge $-1 $366 -6.5131160375597688 $278 6.5131160375597688 $183 $367 forward 7 unknown #
edge $-1 $190 -6.5131160375597688 $368 6.5131160375597688 $184 $369 forward 7 unknown #
vertex $-1 $185 $370 #
straight-curve $-1 -57.522507400738547 -35.753941579313384 0 0 0 -1 I I #
coedge $-1 $270 $275 $186 $281 reversed $180 $-1 #
edge $-1 $284 -57.522507400738547 $278 57.522507400738547 $280 $371 forward 7 unknown #
coedge $-1 $187 $362 $270 $359 reversed $283 $-1 #
loop $-1 $-1 $187 $267 #
vertex $-1 $188 $372 #
straight-curve $-1 57.522507400738547 -35.753941579313384 0 0 0 1 I I #
point $-1 -57.522507400738547 -35.753941579313384 6.5583169282236256 #
point $-1 57.522507400738547 -35.753941579313384 6.5583169282236256 #
plane-surface $-1 0 0 11.16504582116179 0 0 1 1 0 0 forward_v I I I I #
coedge $-1 $299 $298 $291 $373 forward $194 $-1 #
coedge $-1 $291 $196 $198 $295 reversed $117 $-1 #
coedge $-1 $196 $290 $289 $373 reversed $117 $-1 #
coedge $-1 $204 $199 $196 $293 forward $205 $-1 #
edge $-1 $296 18.146158539055619 $374 28.761252756512022 $292 $375 forward 7 unknown #
coedge $-1 $198 $197 $299 $376 reversed $73 $-1 #
edge $-1 $377 -115.04501480147711 $296 -100.03300441910443 $290 $378 forward 7 unknown #
vertex $-1 $200 $379 #
straight-curve $-1 46.907413183282152 12.711871161565792 11.16504582116179 0 -1 0 I I #
coedge $-1 $289 $201 $204 $303 reversed $194 $-1 #
coedge $-1 $201 $289 $294 $376 forward $194 $-1 #
vertex $-1 $202 $380 #
straight-curve $-1 57.522507400738547 32.468208831629042 81.62408578652169 0 0 1 I I #
straight-curve $-1 -23.826601763235374 32.468208831629042 81.899062409069458 0.70710677298230451 0 -0.70710678939079041 I I #
edge $-1 $374 18.379275814634124 $206 32.468208831629042 $298 $381 forward 7 unknown #
point $-1 57.522507400738547 32.468208831629042 11.16504582116179 #
point $-1 46.907413183282145 32.468208831629042 11.165045821161797 #
edge $-1 $382 1 $382 0 $209 $-1 forward 7 unknown #
vertex $-1 $210 $383 #
ellipse-curve $-1 46.64433903851328 22.404685248061249 0.28687746504116973 0.70710678939079041 0 0.70710677298230451 1.414213545964609 0 -1.4142135787815808 1 I I #
point $-1 53.62917383797496 22.404685248061249 4.4432850104898227 #
edge $-1 $384 1 $384 0 $213 $-1 forward 7 unknown #
vertex $-1 $214 $385 #
ellipse-curve $-1 46.64433903851328 28.442799398201934 0.28687746504116973 0.70710678939079041 0 0.70710677298230451 1.414213545964609 0 -1.4142135787815808 1 I I #
point $-1 53.62917383797496 28.442799398201934 4.4432850104898227 #
loop $-1 $-1 $225 $217 #
plane-surface $-1 -57.522507400738547 0 0 1 0 0 0 0 -1 forward_v I I I I #
coedge $-1 $317 $220 $222 $321 reversed $139 $-1 #
coedge $-1 $220 $316 $386 $387 reversed $139 $-1 #
coedge $-1 $228 $223 $220 $319 forward $218 $-1 #
edge $-1 $322 -22.528396042931369 $388 -11.913301825474932 $318 $389 forward 7 unknown #
coedge $-1 $222 $221 $325 $390 reversed $87 $-1 #
edge $-1 $391 -2.0097183471152325e-014 $322 15.012010382372722 $316 $392 forward 7 unknown #
vertex $-1 $224 $393 #
straight-curve $-1 -46.907413183282117 12.711871161565792 11.16504582116179 0 1 0 I I #
coedge $-1 $386 $225 $228 $329 reversed $314 $-1 #
coedge $-1 $225 $386 $320 $390 forward $314 $-1 #
vertex $-1 $226 $394 #
straight-curve $-1 -57.522507400738547 18.379275814634124 40.949530260677463 0 0 1 I I #
straight-curve $-1 -57.522507400738533 18.379275814634124 0.54995135738100487 -0.70710677298230451 0 -0.70710678939079041 I I #
edge $-1 $388 -32.468208831629042 $229 -18.379275814634124 $324 $395 forward 7 unknown #
point $-1 -57.522507400738547 18.379275814634124 11.16504582116179 #
point $-1 -46.90741318328211 18.379275814634124 11.16504582116179 #
edge $-1 $396 1 $396 0 $232 $-1 forward 7 unknown #
vertex $-1 $233 $397 #
ellipse-curve $-1 -46.644339038513273 22.404685248061249 0.28687746504117329 -0.70710678939079041 0 0.70710677298230451 1.414213545964609 0 1.4142135787815808 1 I I #
point $-1 -50.800746746045739 22.404685248061249 7.2717121680529884 #
edge $-1 $398 1 $398 0 $236 $-1 forward 7 unknown #
vertex $-1 $237 $399 #
ellipse-curve $-1 -46.644339038513273 28.442799398201934 0.28687746504117329 -0.70710678939079041 0 0.70710677298230451 1.414213545964609 0 1.4142135787815808 1 I I #
point $-1 -50.800746746045739 28.442799398201934 7.2717121680529884 #
plane-surface $-1 57.522507400738547 0 0 -1 0 0 0 0 1 forward_v I I I I #
coedge $-1 $245 $243 $247 $345 reversed $161 $-1 #
edge $-1 $258 -11.16504582116179 $347 11.16504582116179 $257 $400 forward 7 unknown #
vertex $-1 $345 $401 #
straight-curve $-1 -57.522507400738547 -35.753941579313384 0 0 0 -1 I I #
edge $-1 $343 -35.753941579313384 $347 35.753941579313384 $341 $402 forward 7 unknown #
straight-curve $-1 0 -35.753941579313384 -11.16504582116179 -1 0 0 I I #
vertex $-1 $250 $403 #
straight-curve $-1 0 35.753941579313384 -11.16504582116179 1 0 0 I I #
point $-1 57.522507400738547 35.753941579313384 -11.16504582116179 #
point $-1 57.522507400738547 -35.753941579313384 -11.16504582116179 #
straight-curve $-1 -57.522507400738547 0 11.16504582116179 0 -1 0 I I #
point $-1 -57.522507400738547 35.753941579313384 11.16504582116179 #
point $-1 -57.522507400738547 -35.753941579313384 11.16504582116179 #
straight-curve $-1 57.522507400738547 -35.753941579313384 0 0 0 -1 I I #
straight-curve $-1 57.522507400738547 35.753941579313384 0 0 0 -1 I I #
plane-surface $-1 57.522507400738547 0 0 -1 0 0 0 0 1 forward_v I I I I #
coedge $-1 $404 $360 $274 $365 forward $268 $-1 #
coedge $-1 $275 $270 $404 $405 forward $180 $-1 #
edge $-1 $284 -6.5131160375597688 $406 6.5131160375597688 $282 $407 forward 7 unknown #
coedge $-1 $357 $408 $271 $361 reversed $268 $-1 #
edge $-1 $368 -57.522507400738547 $363 57.522507400738547 $360 $409 forward 7 unknown #
coedge $-1 $282 $272 $408 $410 forward $283 $-1 #
vertex $-1 $273 $411 #
straight-curve $-1 57.522507400738547 -42.267057616873153 6.5583169282236256 0 1 0 I I #
edge $-1 $368 -1.5 $366 1.5 $274 $412 forward 7 unknown #
vertex $-1 $276 $413 #
straight-curve $-1 -57.522507400738547 -42.267057616873153 3.5583169282236256 0 1 0 I I #
vertex $-1 $277 $414 #
straight-curve $-1 -57.522507400738547 -42.267057616873153 6.5583169282236256 0 -1 0 I I #
point $-1 -57.522507400738547 -35.753941579313384 3.5583169282236256 #
straight-curve $-1 0 -35.753941579313384 3.5583169282236256 -1 0 0 I I #
point $-1 57.522507400738547 -35.753941579313384 3.5583169282236256 #
edge $-1 $374 70.459039965359892 $377 81.074134429140656 $289 $415 forward 7 unknown #
vertex $-1 $303 $416 #
straight-curve $-1 28.761254644226526 18.379275814634124 11.165045821161783 1 0 0 I I #
edge $-1 $377 5.6674046530683313 $300 19.75633767006325 $299 $417 forward 7 unknown #
vertex $-1 $376 $418 #
straight-curve $-1 -23.826601763235374 18.379275814634124 81.899062409069458 -0.70710677298230451 0 0.70710678939079041 I I #
point $-1 46.907413183282145 18.379275814634124 11.165045821161797 #
point $-1 57.522507400738547 32.468208831629042 0.54995135738103329 #
straight-curve $-1 57.522507400738547 0 11.16504582116179 0 1 0 I I #
vertex $-1 $306 $419 #
point $-1 48.058552584477887 22.404685248061249 -1.127336113740411 #
vertex $-1 $310 $420 #
point $-1 48.058552584477887 28.442799398201934 -1.127336113740411 #
coedge $-1 $325 $324 $317 $387 forward $314 $-1 #
edge $-1 $388 29.784484439515673 $391 40.399578903296472 $386 $421 forward 7 unknown #
vertex $-1 $329 $422 #
straight-curve $-1 -69.435809226213479 32.468208831629042 11.16504582116179 -1 0 0 I I #
edge $-1 $391 -19.75633767006325 $326 -5.6674046530683313 $325 $423 forward 7 unknown #
vertex $-1 $390 $424 #
straight-curve $-1 -57.522507400738533 32.468208831629042 0.54995135738100487 0.70710677298230451 0 0.70710678939079041 I I #
point $-1 -46.90741318328211 32.468208831629042 11.16504582116179 #
point $-1 -57.522507400738547 18.379275814634124 0.54995135738099066 #
straight-curve $-1 -57.522507400738547 0 11.16504582116179 0 -1 0 I I #
vertex $-1 $332 $425 #
point $-1 -45.230125492548659 22.404685248061249 1.7010910438227542 #
vertex $-1 $336 $426 #
point $-1 -45.230125492548659 28.442799398201934 1.7010910438227542 #
straight-curve $-1 -57.522507400738547 35.753941579313384 0 0 0 -1 I I #
point $-1 -57.522507400738547 -35.753941579313384 -11.16504582116179 #
straight-curve $-1 -57.522507400738547 0 -11.16504582116179 0 1 0 I I #
point $-1 -57.522507400738547 35.753941579313384 -11.16504582116179 #
coedge $-1 $408 $357 $358 $405 reversed $268 $-1 #
edge $-1 $406 -57.522507400738547 $366 57.522507400738547 $404 $427 forward 7 unknown #
vertex $-1 $410 $428 #
straight-curve $-1 57.522507400738547 -42.267057616873153 3.5583169282236256 0 -1 0 I I #
coedge $-1 $360 $404 $362 $410 reversed $268 $-1 #
straight-curve $-1 0 -48.780173654432922 6.5583169282236256 1 0 0 I I #
edge $-1 $363 -1.5 $406 1.5 $362 $429 forward 7 unknown #
point $-1 57.522507400738547 -48.780173654432922 6.5583169282236256 #
straight-curve $-1 -57.522507400738547 -48.780173654432922 5.0583169282236256 0 0 -1 I I #
point $-1 -57.522507400738547 -48.780173654432922 3.5583169282236256 #
point $-1 -57.522507400738547 -48.780173654432922 6.5583169282236256 #
straight-curve $-1 57.522507400738547 18.379275814634124 81.62408578652169 0 0 -1 I I #
point $-1 57.522507400738547 18.379275814634124 11.16504582116179 #
straight-curve $-1 57.522507400738547 12.711871161565792 0.5499513573810404 0 1 0 I I #
point $-1 57.522507400738547 18.379275814634124 0.54995135738103329 #
point $-1 45.230125459731696 22.404685248061249 -1.1273360809234392 #
point $-1 45.230125459731696 28.442799398201934 -1.1273360809234392 #
straight-curve $-1 -57.522507400738547 32.468208831629042 40.949530260677463 0 0 -1 I I #
point $-1 -57.522507400738547 32.468208831629042 11.16504582116179 #
straight-curve $-1 -57.522507400738547 12.711871161565792 0.54995135738099066 0 -1 0 I I #
point $-1 -57.522507400738547 32.468208831629042 0.54995135738099066 #
point $-1 -45.230125459731688 22.404685248061249 -1.1273360809234356 #
point $-1 -45.230125459731688 28.442799398201934 -1.1273360809234356 #
straight-curve $-1 0 -48.780173654432922 3.5583169282236256 -1 0 0 I I #
point $-1 57.522507400738547 -48.780173654432922 3.5583169282236256 #
straight-curve $-1 57.522507400738547 -48.780173654432922 5.0583169282236256 0 0 -1 I I #
End-of-ACIS-data 