500 0 7 0           
7 Unknown 11 ACIS 5.0 NT 24 Thu Mar 25 17:48:52 1999 
-1 9.9999999999999995e-007 1e-010 
body $-1 $7 $-1 $8 #
body $-1 $9 $-1 $10 #
body $-1 $11 $-1 $12 #
body $-1 $13 $-1 $14 #
body $-1 $15 $-1 $16 #
body $-1 $17 $-1 $18 #
body $-1 $19 $-1 $20 #
lump $-1 $-1 $21 $0 #
transform $-1 1 0 0 0 1 0 0 0 1 64.962920010986664 44.473638433865055 12.187191205339554 1 rotate no_reflect no_shear #
lump $-1 $-1 $22 $1 #
transform $-1 1 0 0 0 1 0 0 0 1 64.962920010986664 44.473638433865055 12.187191205339554 1 rotate no_reflect no_shear #
lump $-1 $-1 $23 $2 #
transform $-1 1 0 0 0 1 0 0 0 1 64.962920010986664 44.473638433865055 12.187191205339554 1 rotate no_reflect no_shear #
lump $-1 $-1 $24 $3 #
transform $-1 1 0 0 0 1 0 0 0 1 64.962920010986664 44.473638433865055 12.187191205339554 1 rotate no_reflect no_shear #
lump $-1 $-1 $25 $4 #
transform $-1 1 0 0 0 1 0 0 0 1 64.962920010986664 44.473638433865055 12.187191205339554 1 rotate no_reflect no_shear #
lump $-1 $-1 $26 $5 #
transform $-1 1 0 0 0 1 0 0 0 1 64.962920010986664 44.473638433865055 12.187191205339554 1 rotate no_reflect no_shear #
lump $-1 $-1 $27 $6 #
transform $-1 1 0 0 0 1 0 0 0 1 64.962920010986664 44.473638433865055 12.187191205339554 1 rotate no_reflect no_shear #
shell $-1 $-1 $-1 $28 $-1 $7 #
shell $-1 $-1 $-1 $29 $-1 $9 #
shell $-1 $-1 $-1 $30 $-1 $11 #
shell $-1 $-1 $-1 $31 $-1 $13 #
shell $-1 $-1 $-1 $32 $-1 $15 #
shell $-1 $-1 $-1 $33 $-1 $17 #
shell $-1 $-1 $-1 $34 $-1 $19 #
face $-1 $35 $36 $21 $-1 $37 reversed single #
face $-1 $38 $39 $22 $-1 $40 forward single #
face $-1 $41 $42 $23 $-1 $43 forward single #
face $-1 $44 $45 $24 $-1 $46 reversed single #
face $-1 $47 $48 $25 $-1 $49 forward single #
face $-1 $50 $51 $26 $-1 $52 forward single #
face $-1 $53 $54 $27 $-1 $55 forward single #
face $-1 $56 $57 $21 $-1 $58 forward single #
loop $-1 $-1 $59 $28 #
plane-surface $-1 64.962920010986664 0 0 -1 0 0 0 0 1 forward_v I I I I #
face $-1 $60 $61 $22 $-1 $62 forward single #
loop $-1 $-1 $63 $29 #
plane-surface $-1 -64.962920010986664 0 0 1 0 0 0 0 -1 forward_v I I I I #
face $-1 $64 $65 $23 $-1 $66 reversed single #
loop $-1 $-1 $67 $30 #
plane-surface $-1 64.962920010986664 0 0 -1 0 0 0 0 1 forward_v I I I I #
face $-1 $68 $69 $24 $-1 $70 reversed single #
loop $-1 $-1 $71 $31 #
plane-surface $-1 23.101618564352691 70.744396122599426 162.75763815344402 1 0 0 0 -0.69465837861970381 -0.71933979245794832 forward_v I I I I #
face $-1 $72 $73 $25 $-1 $74 forward single #
loop $-1 $75 $76 $32 #
cone-surface $-1 26.813234442581233 41.18086069282375 8.9465962623878976 0 -0.69465837861970381 -0.71933979245794832 1.5 0 0 1 I I 0 1 1.5 forward I I I I #
face $-1 $77 $78 $26 $-1 $79 forward single #
loop $-1 $80 $81 $33 #
cone-surface $-1 32.380658259924047 41.18086069282375 8.9465962623878976 0 -0.69465837861970381 -0.71933979245794832 1.5 0 0 1 I I 0 1 1.5 forward I I I I #
face $-1 $82 $83 $27 $-1 $84 forward single #
loop $-1 $85 $86 $34 #
cone-surface $-1 37.948082077266861 41.18086069282375 8.9465962623878976 0 -0.69465837861970381 -0.71933979245794832 1.5 0 0 1 I I 0 1 1.5 forward I I I I #
face $-1 $87 $88 $21 $-1 $89 reversed single #
loop $-1 $-1 $90 $35 #
plane-surface $-1 0 0 12.187191205339554 0 0 1 1 0 0 forward_v I I I I #
coedge $-1 $91 $92 $93 $94 reversed $36 $-1 #
face $-1 $95 $96 $22 $-1 $97 reversed single #
loop $-1 $-1 $98 $38 #
plane-surface $-1 0 0 12.187191205339554 0 0 1 1 0 0 forward_v I I I I #
coedge $-1 $99 $100 $101 $102 forward $39 $-1 #
face $-1 $103 $104 $23 $-1 $105 reversed single #
loop $-1 $-1 $106 $41 #
plane-surface $-1 0 -44.473638433865055 0 0 1 0 0 0 1 forward_v I I I I #
coedge $-1 $107 $108 $109 $110 forward $42 $-1 #
face $-1 $111 $112 $24 $-1 $113 reversed single #
loop $-1 $-1 $114 $44 #
plane-surface $-1 32.380658259924033 -19.509677247867586 69.296811357113128 0 0.69465837861970381 0.71933979245794832 1 0 0 forward_v I I I I #
coedge $-1 $115 $116 $117 $118 reversed $45 $-1 #
face $-1 $-1 $119 $25 $-1 $120 forward single #
loop $-1 $121 $122 $47 #
cone-surface $-1 26.813234442581233 39.789376241892093 7.5056719649936294 0 -0.69465837861970381 -0.71933979245794832 0.75 0 0 1 I I -0.70710678118654757 0.70710678118654757 0.75 forward I I I I #
loop $-1 $-1 $123 $32 #
coedge $-1 $76 $76 $124 $125 reversed $48 $-1 #
face $-1 $-1 $126 $26 $-1 $127 forward single #
loop $-1 $128 $129 $50 #
cone-surface $-1 32.380658259924047 39.789376241892093 7.5056719649936294 0 -0.69465837861970381 -0.71933979245794832 0.75 0 0 1 I I -0.70710678118654757 0.70710678118654757 0.75 forward I I I I #
loop $-1 $-1 $130 $33 #
coedge $-1 $81 $81 $131 $132 reversed $51 $-1 #
face $-1 $-1 $133 $27 $-1 $134 forward single #
loop $-1 $135 $136 $53 #
cone-surface $-1 37.948082077266861 39.789376241892093 7.5056719649936294 0 -0.69465837861970381 -0.71933979245794832 0.75 0 0 1 I I -0.70710678118654757 0.70710678118654757 0.75 forward I I I I #
loop $-1 $-1 $137 $34 #
coedge $-1 $86 $86 $138 $139 reversed $54 $-1 #
face $-1 $140 $141 $21 $-1 $142 reversed single #
loop $-1 $-1 $93 $56 #
plane-surface $-1 0 0 -12.187191205339554 0 0 1 1 0 0 forward_v I I I I #
coedge $-1 $143 $144 $145 $146 forward $57 $-1 #
coedge $-1 $145 $59 $147 $148 reversed $36 $-1 #
coedge $-1 $59 $145 $149 $150 forward $36 $-1 #
coedge $-1 $151 $152 $59 $94 forward $88 $-1 #
edge $-1 $153 -44.473638433865055 $154 44.473638433865055 $59 $155 forward 7 unknown #
face $-1 $156 $157 $22 $-1 $158 reversed single #
loop $-1 $-1 $159 $60 #
plane-surface $-1 -76.040807907700184 -41.422247236388138 0 1 0 0 0 0 -1 forward_v I I I I #
coedge $-1 $160 $161 $99 $162 forward $61 $-1 #
coedge $-1 $163 $63 $98 $162 reversed $39 $-1 #
coedge $-1 $63 $163 $164 $165 reversed $39 $-1 #
coedge $-1 $166 $167 $63 $102 reversed $157 $-1 #
edge $-1 $168 -12.187191205339554 $169 12.187191205339554 $101 $170 forward 7 unknown #
face $-1 $171 $172 $23 $-1 $173 reversed single #
loop $-1 $-1 $174 $64 #
plane-surface $-1 0 0 -12.187191205339554 0 0 1 1 0 0 forward_v I I I I #
coedge $-1 $175 $176 $177 $178 forward $65 $-1 #
coedge $-1 $177 $67 $174 $179 reversed $42 $-1 #
coedge $-1 $67 $177 $180 $181 reversed $42 $-1 #
coedge $-1 $182 $183 $67 $110 reversed $172 $-1 #
edge $-1 $184 -12.187191205339554 $185 12.187191205339554 $109 $186 forward 7 unknown #
face $-1 $187 $188 $24 $-1 $189 reversed single #
loop $-1 $-1 $190 $68 #
plane-surface $-1 41.659697955495375 70.744396122599426 162.75763815344402 -1 0 0 0 0.69465837861970381 0.71933979245794832 forward_v I I I I #
coedge $-1 $191 $192 $193 $194 reversed $69 $-1 #
coedge $-1 $116 $71 $195 $196 reversed $45 $-1 #
coedge $-1 $71 $115 $191 $197 reversed $45 $-1 #
coedge $-1 $193 $198 $71 $118 forward $199 $-1 #
edge $-1 $200 -9.1014403725653423 $201 -4.2568662244165125 $117 $202 forward 7 unknown #
loop $-1 $-1 $124 $72 #
plane-surface $-1 32.380658259924033 -19.509677247867586 69.296811357113128 0 0.69465837861970381 0.71933979245794832 1 0 0 forward_v I I I I #
loop $-1 $-1 $203 $47 #
coedge $-1 $122 $122 $123 $204 reversed $73 $-1 #
coedge $-1 $123 $123 $122 $204 forward $75 $-1 #
coedge $-1 $124 $124 $76 $125 forward $119 $-1 #
edge $-1 $205 -9.3955543667888894e-016 $205 6.2831853071795996 $124 $206 forward 7 unknown #
loop $-1 $-1 $131 $77 #
plane-surface $-1 32.380658259924033 -19.509677247867586 69.296811357113128 0 0.69465837861970381 0.71933979245794832 1 0 0 forward_v I I I I #
loop $-1 $-1 $207 $50 #
coedge $-1 $129 $129 $130 $208 reversed $78 $-1 #
coedge $-1 $130 $130 $129 $208 forward $80 $-1 #
coedge $-1 $131 $131 $81 $132 forward $126 $-1 #
edge $-1 $209 -9.3955543667888894e-016 $209 6.2831853071795996 $131 $210 forward 7 unknown #
loop $-1 $-1 $138 $82 #
plane-surface $-1 32.380658259924033 -19.509677247867586 69.296811357113128 0 0.69465837861970381 0.71933979245794832 1 0 0 forward_v I I I I #
loop $-1 $-1 $211 $53 #
coedge $-1 $136 $136 $137 $212 reversed $83 $-1 #
coedge $-1 $137 $137 $136 $212 forward $85 $-1 #
coedge $-1 $138 $138 $86 $139 forward $133 $-1 #
edge $-1 $213 -9.3955543667888894e-016 $213 6.2831853071795996 $138 $214 forward 7 unknown #
face $-1 $215 $216 $21 $-1 $217 reversed single #
loop $-1 $-1 $218 $87 #
plane-surface $-1 0 -44.473638433865055 0 0 1 0 0 0 1 forward_v I I I I #
coedge $-1 $219 $90 $220 $221 forward $57 $-1 #
coedge $-1 $90 $219 $222 $223 forward $57 $-1 #
coedge $-1 $92 $91 $90 $146 reversed $36 $-1 #
edge $-1 $224 -44.473638433865055 $225 44.473638433865055 $145 $226 forward 7 unknown #
coedge $-1 $227 $220 $91 $148 forward $228 $-1 #
edge $-1 $225 -12.187191205339554 $153 12.187191205339554 $91 $229 forward 7 unknown #
coedge $-1 $222 $230 $92 $150 reversed $141 $-1 #
edge $-1 $224 -12.187191205339554 $154 12.187191205339554 $92 $231 forward 7 unknown #
coedge $-1 $232 $93 $230 $233 forward $88 $-1 #
coedge $-1 $93 $232 $227 $234 forward $88 $-1 #
vertex $-1 $94 $235 #
vertex $-1 $150 $236 #
straight-curve $-1 64.962920010986664 0 -12.187191205339554 0 -1 0 I I #
face $-1 $237 $238 $22 $-1 $239 reversed single #
loop $-1 $-1 $101 $95 #
plane-surface $-1 -70.501863959343424 -38.370856038911221 0 0 -1 0 0 0 -1 forward_v I I I I #
coedge $-1 $240 $241 $242 $243 forward $96 $-1 #
coedge $-1 $244 $98 $167 $245 forward $61 $-1 #
coedge $-1 $98 $244 $246 $247 forward $61 $-1 #
edge $-1 $248 -44.473638433865055 $169 -38.370856038911221 $98 $249 forward 7 unknown #
coedge $-1 $100 $99 $250 $251 reversed $39 $-1 #
coedge $-1 $252 $253 $100 $165 forward $238 $-1 #
edge $-1 $168 38.370856038911221 $254 44.473638433865055 $164 $255 forward 7 unknown #
coedge $-1 $242 $101 $253 $256 reversed $157 $-1 #
coedge $-1 $101 $242 $160 $245 reversed $157 $-1 #
vertex $-1 $165 $257 #
vertex $-1 $245 $258 #
straight-curve $-1 -64.962920010986664 -38.370856038911221 0 0 0 1 I I #
face $-1 $259 $260 $23 $-1 $261 reversed single #
loop $-1 $-1 $262 $103 #
plane-surface $-1 70.50186395934341 -38.370856038911221 0 0 -1 0 0 0 -1 forward_v I I I I #
coedge $-1 $263 $264 $107 $179 forward $104 $-1 #
coedge $-1 $265 $106 $264 $266 reversed $65 $-1 #
coedge $-1 $106 $265 $267 $268 reversed $65 $-1 #
coedge $-1 $108 $107 $106 $178 reversed $42 $-1 #
edge $-1 $269 -12.187191205339554 $270 12.187191205339554 $106 $271 forward 7 unknown #
edge $-1 $270 -44.473638433865055 $185 -38.370856038911221 $174 $272 forward 7 unknown #
coedge $-1 $267 $273 $108 $181 forward $274 $-1 #
edge $-1 $184 38.370856038911221 $269 44.473638433865055 $180 $275 forward 7 unknown #
coedge $-1 $262 $109 $273 $276 reversed $172 $-1 #
coedge $-1 $109 $262 $263 $277 reversed $172 $-1 #
vertex $-1 $181 $278 #
vertex $-1 $277 $279 #
straight-curve $-1 64.962920010986664 -38.370856038911221 0 0 0 -1 I I #
face $-1 $-1 $199 $24 $-1 $280 forward single #
loop $-1 $-1 $281 $111 #
plane-surface $-1 0 44.473638433865055 0 0 -1 0 0 0 -1 forward_v I I I I #
coedge $-1 $282 $283 $284 $285 reversed $112 $-1 #
coedge $-1 $286 $114 $116 $197 forward $69 $-1 #
coedge $-1 $114 $286 $282 $287 forward $69 $-1 #
coedge $-1 $284 $117 $114 $194 forward $199 $-1 #
edge $-1 $201 6.9112894343906746 $288 25.469368825533358 $193 $289 forward 7 unknown #
coedge $-1 $290 $291 $115 $196 forward $188 $-1 #
edge $-1 $292 -73.869978851184158 $200 -69.191627871382451 $195 $293 forward 7 unknown #
edge $-1 $201 82.212526199210629 $292 88.947276867730096 $116 $294 forward 7 unknown #
coedge $-1 $117 $284 $290 $295 forward $199 $-1 #
loop $-1 $-1 $284 $187 #
vertex $-1 $196 $296 #
vertex $-1 $118 $297 #
straight-curve $-1 23.101618564352691 35.372198061299713 12.187191205339559 0 -1 0 I I #
coedge $-1 $203 $203 $-1 $298 reversed $121 $-1 #
edge $-1 $299 0 $299 6.2831853071796004 $122 $300 forward 7 unknown #
vertex $-1 $125 $301 #
ellipse-curve $-1 26.813234442581233 42.05135135979063 9.8480157154387111 0 0.69465837861970381 0.71933979245794832 1.5 0 0 1 I I #
coedge $-1 $207 $207 $-1 $302 reversed $128 $-1 #
edge $-1 $303 0 $303 6.2831853071796004 $129 $304 forward 7 unknown #
vertex $-1 $132 $305 #
ellipse-curve $-1 32.380658259924047 42.05135135979063 9.8480157154387111 0 0.69465837861970381 0.71933979245794832 1.5 0 0 1 I I #
coedge $-1 $211 $211 $-1 $306 reversed $135 $-1 #
edge $-1 $307 0 $307 6.2831853071796004 $136 $308 forward 7 unknown #
vertex $-1 $139 $309 #
ellipse-curve $-1 37.948082077266861 42.05135135979063 9.8480157154387111 0 0.69465837861970381 0.71933979245794832 1.5 0 0 1 I I #
face $-1 $-1 $228 $21 $-1 $310 reversed single #
loop $-1 $-1 $311 $140 #
plane-surface $-1 -64.962920010986664 0 0 1 0 0 0 0 -1 forward_v I I I I #
coedge $-1 $230 $222 $312 $313 forward $141 $-1 #
coedge $-1 $144 $143 $311 $314 forward $57 $-1 #
coedge $-1 $147 $315 $143 $221 reversed $228 $-1 #
edge $-1 $225 -64.962920010986664 $316 64.962920010986664 $220 $317 forward 7 unknown #
coedge $-1 $218 $149 $144 $223 reversed $141 $-1 #
edge $-1 $318 -64.962920010986664 $224 64.962920010986664 $222 $319 forward 7 unknown #
vertex $-1 $146 $320 #
vertex $-1 $146 $321 #
straight-curve $-1 64.962920010986664 0 12.187191205339554 0 1 0 I I #
coedge $-1 $315 $147 $152 $234 reversed $228 $-1 #
loop $-1 $-1 $147 $215 #
straight-curve $-1 64.962920010986664 44.473638433865055 0 0 0 -1 I I #
coedge $-1 $149 $218 $151 $233 reversed $141 $-1 #
straight-curve $-1 64.962920010986664 -44.473638433865055 0 0 0 -1 I I #
coedge $-1 $152 $151 $322 $323 forward $88 $-1 #
edge $-1 $154 -64.962920010986664 $324 64.962920010986664 $230 $325 forward 7 unknown #
edge $-1 $326 -64.962920010986664 $153 64.962920010986664 $227 $327 forward 7 unknown #
point $-1 64.962920010986664 44.473638433865055 -12.187191205339554 #
point $-1 64.962920010986664 -44.473638433865055 -12.187191205339554 #
face $-1 $-1 $328 $22 $-1 $329 reversed single #
loop $-1 $-1 $164 $156 #
plane-surface $-1 0 0 -12.187191205339554 0 0 1 1 0 0 forward_v I I I I #
coedge $-1 $330 $159 $331 $332 reversed $96 $-1 #
coedge $-1 $159 $330 $244 $333 reversed $96 $-1 #
coedge $-1 $167 $166 $159 $243 reversed $157 $-1 #
edge $-1 $334 -12.187191205339554 $335 12.187191205339554 $242 $336 forward 7 unknown #
coedge $-1 $161 $160 $241 $333 forward $61 $-1 #
edge $-1 $169 -5.53894394835676 $334 5.53894394835676 $167 $337 forward 7 unknown #
coedge $-1 $338 $250 $161 $247 reversed $328 $-1 #
edge $-1 $339 -76.040807907700184 $248 -64.962920010986664 $246 $340 forward 7 unknown #
vertex $-1 $251 $341 #
straight-curve $-1 -64.962920010986664 0 12.187191205339554 0 1 0 I I #
coedge $-1 $246 $342 $163 $251 forward $328 $-1 #
edge $-1 $254 -12.187191205339554 $248 12.187191205339554 $250 $343 forward 7 unknown #
coedge $-1 $331 $164 $342 $344 forward $238 $-1 #
coedge $-1 $164 $331 $166 $256 forward $238 $-1 #
vertex $-1 $344 $345 #
straight-curve $-1 -64.962920010986664 0 -12.187191205339554 0 -1 0 I I #
edge $-1 $335 -5.53894394835676 $168 5.53894394835676 $166 $346 forward 7 unknown #
point $-1 -64.962920010986664 -38.370856038911221 -12.187191205339554 #
point $-1 -64.962920010986664 -38.370856038911221 12.187191205339554 #
face $-1 $-1 $274 $23 $-1 $347 forward single #
loop $-1 $-1 $348 $171 #
plane-surface $-1 76.04080790770017 -41.422247236388138 0 -1 0 0 0 0 1 forward_v I I I I #
coedge $-1 $183 $182 $349 $350 forward $172 $-1 #
coedge $-1 $351 $174 $183 $277 forward $104 $-1 #
coedge $-1 $174 $351 $175 $266 forward $104 $-1 #
coedge $-1 $176 $175 $348 $352 reversed $65 $-1 #
edge $-1 $353 -5.53894394835676 $270 5.5389439483567458 $175 $354 forward 7 unknown #
coedge $-1 $355 $180 $176 $268 forward $274 $-1 #
edge $-1 $269 -5.5389439483567458 $356 5.53894394835676 $176 $357 forward 7 unknown #
vertex $-1 $268 $358 #
vertex $-1 $179 $359 #
straight-curve $-1 64.962920010986664 -44.473638433865055 0 0 0 -1 I I #
straight-curve $-1 64.962920010986664 0 -12.187191205339554 0 1 0 I I #
coedge $-1 $180 $355 $182 $276 forward $274 $-1 #
loop $-1 $-1 $180 $259 #
straight-curve $-1 64.962920010986664 0 12.187191205339554 0 -1 0 I I #
edge $-1 $360 -5.53894394835676 $184 5.53894394835676 $182 $361 forward 7 unknown #
edge $-1 $185 -5.53894394835676 $362 5.53894394835676 $183 $363 forward 7 unknown #
point $-1 64.96292001098665 -38.370856038911221 12.187191205339554 #
point $-1 64.96292001098665 -38.370856038911221 -12.187191205339554 #
plane-surface $-1 0 0 12.187191205339554 0 0 1 1 0 0 forward_v I I I I #
coedge $-1 $291 $290 $283 $364 forward $188 $-1 #
coedge $-1 $283 $190 $192 $287 reversed $112 $-1 #
coedge $-1 $190 $282 $281 $364 reversed $112 $-1 #
coedge $-1 $198 $193 $190 $285 forward $199 $-1 #
edge $-1 $288 4.2568662244165125 $365 9.1014403725653423 $284 $366 forward 7 unknown #
coedge $-1 $192 $191 $291 $367 reversed $69 $-1 #
edge $-1 $368 -88.947276867730096 $288 -82.212526199210629 $282 $369 forward 7 unknown #
vertex $-1 $194 $370 #
straight-curve $-1 16.190329129962016 39.629064285716233 12.187191205339559 1 0 0 I I #
coedge $-1 $281 $195 $198 $295 reversed $188 $-1 #
coedge $-1 $195 $281 $286 $367 forward $188 $-1 #
vertex $-1 $196 $371 #
straight-curve $-1 23.101618564352691 44.473638433865055 81.37881907672201 0 0 1 I I #
straight-curve $-1 23.101618564352691 -19.509677247867586 69.296811357113128 0 0.71933979245794832 -0.69465837861970381 I I #
edge $-1 $365 -41.659697955495375 $200 -23.101618564352691 $290 $372 forward 7 unknown #
point $-1 23.101618564352691 44.473638433865055 12.187191205339554 #
point $-1 23.101618564352691 39.629064285716225 12.187191205339552 #
edge $-1 $373 1 $373 0 $203 $-1 forward 7 unknown #
vertex $-1 $204 $374 #
ellipse-curve $-1 26.813234442581233 40.310370025856869 8.0451768093370912 0 0.69465837861970381 0.71933979245794832 1.5 0 0 1 I I #
point $-1 28.313234442581233 42.051351359790623 9.8480157154387058 #
edge $-1 $375 1 $375 0 $207 $-1 forward 7 unknown #
vertex $-1 $208 $376 #
ellipse-curve $-1 32.380658259924047 40.310370025856869 8.0451768093370912 0 0.69465837861970381 0.71933979245794832 1.5 0 0 1 I I #
point $-1 33.880658259924047 42.051351359790623 9.8480157154387058 #
edge $-1 $377 1 $377 0 $211 $-1 forward 7 unknown #
vertex $-1 $212 $378 #
ellipse-curve $-1 37.948082077266861 40.310370025856869 8.0451768093370912 0 0.69465837861970381 0.71933979245794832 1.5 0 0 1 I I #
point $-1 39.448082077266861 42.051351359790623 9.8480157154387058 #
plane-surface $-1 0 44.473638433865055 0 0 -1 0 0 0 -1 forward_v I I I I #
coedge $-1 $379 $312 $219 $314 reversed $216 $-1 #
coedge $-1 $311 $322 $218 $313 reversed $216 $-1 #
edge $-1 $318 -12.187191205339554 $324 12.187191205339554 $312 $380 forward 7 unknown #
edge $-1 $316 -44.473638433865055 $318 44.473638433865055 $311 $381 forward 7 unknown #
coedge $-1 $220 $227 $379 $382 reversed $228 $-1 #
vertex $-1 $221 $383 #
straight-curve $-1 0 44.473638433865055 12.187191205339554 -1 0 0 I I #
vertex $-1 $314 $384 #
straight-curve $-1 0 -44.473638433865055 12.187191205339554 1 0 0 I I #
point $-1 64.962920010986664 -44.473638433865055 12.187191205339554 #
point $-1 64.962920010986664 44.473638433865055 12.187191205339554 #
coedge $-1 $312 $379 $232 $323 reversed $216 $-1 #
edge $-1 $324 -44.473638433865055 $326 44.473638433865055 $322 $385 forward 7 unknown #
vertex $-1 $323 $386 #
straight-curve $-1 0 -44.473638433865055 -12.187191205339554 -1 0 0 I I #
vertex $-1 $234 $387 #
straight-curve $-1 0 44.473638433865055 -12.187191205339554 1 0 0 I I #
loop $-1 $-1 $250 $237 #
plane-surface $-1 0 -44.473638433865055 0 0 1 0 0 0 1 forward_v I I I I #
coedge $-1 $241 $240 $338 $388 reversed $96 $-1 #
coedge $-1 $253 $252 $240 $332 forward $238 $-1 #
edge $-1 $389 -3.0513911974769172 $335 3.0513911974769172 $240 $390 forward 7 unknown #
edge $-1 $334 -3.0513911974769172 $339 3.0513911974769172 $241 $391 forward 7 unknown #
vertex $-1 $245 $392 #
vertex $-1 $256 $393 #
straight-curve $-1 -76.040807907700184 -38.370856038911221 0 0 0 -1 I I #
straight-curve $-1 -70.501863959343424 -38.370856038911221 12.187191205339554 -1 0 0 I I #
coedge $-1 $342 $246 $330 $388 forward $328 $-1 #
vertex $-1 $333 $394 #
straight-curve $-1 0 -44.473638433865055 12.187191205339554 1 0 0 I I #
point $-1 -64.962920010986664 -44.473638433865055 12.187191205339554 #
coedge $-1 $250 $338 $252 $344 reversed $328 $-1 #
straight-curve $-1 -64.962920010986664 -44.473638433865055 0 0 0 1 I I #
edge $-1 $254 -5.53894394835676 $389 5.53894394835676 $342 $395 forward 7 unknown #
point $-1 -64.962920010986664 -44.473638433865055 -12.187191205339554 #
straight-curve $-1 -70.501863959343424 -38.370856038911221 -12.187191205339554 1 0 0 I I #
plane-surface $-1 0 0 12.187191205339554 0 0 1 1 0 0 forward_v I I I I #
coedge $-1 $396 $397 $265 $352 forward $260 $-1 #
coedge $-1 $397 $396 $262 $350 reversed $260 $-1 #
edge $-1 $360 -12.187191205339554 $362 12.187191205339554 $349 $398 forward 7 unknown #
coedge $-1 $264 $263 $396 $399 forward $104 $-1 #
edge $-1 $356 -12.187191205339554 $353 12.187191205339554 $348 $400 forward 7 unknown #
vertex $-1 $352 $401 #
straight-curve $-1 70.50186395934341 -44.473638433865055 -12.187191205339554 -1 0 0 I I #
coedge $-1 $273 $267 $397 $402 forward $274 $-1 #
vertex $-1 $402 $403 #
straight-curve $-1 70.50186395934341 -44.473638433865055 12.187191205339554 1 0 0 I I #
point $-1 64.962920010986664 -44.473638433865055 12.187191205339554 #
point $-1 64.962920010986664 -44.473638433865055 -12.187191205339554 #
vertex $-1 $402 $404 #
straight-curve $-1 70.50186395934341 -38.370856038911221 12.187191205339554 -1 0 0 I I #
vertex $-1 $399 $405 #
straight-curve $-1 70.50186395934341 -38.370856038911221 -12.187191205339554 1 0 0 I I #
edge $-1 $365 69.191627871382451 $368 73.869978851184158 $281 $406 forward 7 unknown #
vertex $-1 $295 $407 #
straight-curve $-1 41.659697955495375 35.372198061299713 12.187191205339559 0 1 0 I I #
edge $-1 $368 -25.469368825533358 $292 -6.9112894343906746 $291 $408 forward 7 unknown #
vertex $-1 $367 $409 #
straight-curve $-1 41.659697955495375 -19.509677247867586 69.296811357113128 0 -0.71933979245794832 0.69465837861970381 I I #
point $-1 41.659697955495375 39.629064285716225 12.187191205339552 #
point $-1 23.101618564352691 44.473638433865062 7.5088402255378455 #
straight-curve $-1 0 44.473638433865055 12.187191205339554 -1 0 0 I I #
vertex $-1 $298 $410 #
point $-1 28.313234442581233 40.310370025856869 8.0451768093370912 #
vertex $-1 $302 $411 #
point $-1 33.880658259924047 40.310370025856869 8.0451768093370912 #
vertex $-1 $306 $412 #
point $-1 39.448082077266861 40.310370025856869 8.0451768093370912 #
coedge $-1 $322 $311 $315 $382 forward $216 $-1 #
straight-curve $-1 -64.962920010986664 -44.473638433865055 0 0 0 -1 I I #
straight-curve $-1 -64.962920010986664 0 12.187191205339554 0 -1 0 I I #
edge $-1 $316 -12.187191205339554 $326 12.187191205339554 $315 $413 forward 7 unknown #
point $-1 -64.962920010986664 44.473638433865055 12.187191205339554 #
point $-1 -64.962920010986664 -44.473638433865055 12.187191205339554 #
straight-curve $-1 -64.962920010986664 0 -12.187191205339554 0 1 0 I I #
point $-1 -64.962920010986664 -44.473638433865055 -12.187191205339554 #
point $-1 -64.962920010986664 44.473638433865055 -12.187191205339554 #
edge $-1 $339 -12.187191205339554 $389 12.187191205339554 $330 $414 forward 7 unknown #
vertex $-1 $332 $415 #
straight-curve $-1 -76.040807907700184 -41.422247236388138 -12.187191205339554 0 1 0 I I #
straight-curve $-1 -76.040807907700184 -41.422247236388138 12.187191205339554 0 -1 0 I I #
point $-1 -76.040807907700184 -38.370856038911221 12.187191205339554 #
point $-1 -76.040807907700184 -38.370856038911221 -12.187191205339554 #
point $-1 -76.040807907700184 -44.473638433865055 12.187191205339554 #
straight-curve $-1 -70.501863959343424 -44.473638433865055 -12.187191205339554 -1 0 0 I I #
coedge $-1 $349 $348 $351 $399 reversed $260 $-1 #
coedge $-1 $348 $349 $355 $402 reversed $260 $-1 #
straight-curve $-1 76.04080790770017 -38.370856038911221 0 0 0 -1 I I #
edge $-1 $362 -3.0513911974769172 $353 3.0513911974769172 $396 $416 forward 7 unknown #
straight-curve $-1 76.04080790770017 -44.473638433865055 0 0 0 -1 I I #
point $-1 76.04080790770017 -44.473638433865055 -12.187191205339554 #
edge $-1 $356 -3.0513911974769172 $360 3.0513911974769172 $397 $417 forward 7 unknown #
point $-1 76.04080790770017 -44.473638433865055 12.187191205339554 #
point $-1 76.04080790770017 -38.370856038911221 12.187191205339554 #
point $-1 76.04080790770017 -38.370856038911221 -12.187191205339554 #
straight-curve $-1 41.659697955495375 44.473638433865055 81.37881907672201 0 0 -1 I I #
point $-1 41.659697955495375 44.473638433865055 12.187191205339554 #
straight-curve $-1 16.190329129962016 44.473638433865055 7.5088402255378526 -1 0 0 I I #
point $-1 41.659697955495375 44.473638433865062 7.5088402255378455 #
point $-1 26.813234442581233 39.268382457927316 6.9661671206501685 #
point $-1 32.380658259924047 39.268382457927316 6.9661671206501685 #
point $-1 37.948082077266861 39.268382457927316 6.9661671206501685 #
straight-curve $-1 -64.962920010986664 44.473638433865055 0 0 0 -1 I I #
straight-curve $-1 -76.040807907700184 -44.473638433865055 0 0 0 -1 I I #
point $-1 -76.040807907700184 -44.473638433865055 -12.187191205339554 #
straight-curve $-1 76.04080790770017 -41.422247236388138 -12.187191205339554 0 -1 0 I I #
straight-curve $-1 76.04080790770017 -41.422247236388138 12.187191205339554 0 1 0 I I #
End-of-ACIS-data 