500 0 5 0           
7 Unknown 11 ACIS 5.0 NT 24 Fri Mar 26 02:56:45 1999 
-1 9.9999999999999995e-007 1e-010 
body $-1 $5 $-1 $6 #
body $-1 $7 $-1 $8 #
body $-1 $9 $-1 $10 #
body $-1 $11 $-1 $12 #
body $-1 $13 $-1 $14 #
lump $-1 $-1 $15 $0 #
transform $-1 1 0 0 0 1 0 0 0 1 61.74016541032136 40.942357500455145 13.195341849530216 1 rotate no_reflect no_shear #
lump $-1 $-1 $16 $1 #
transform $-1 1 0 0 0 1 0 0 0 1 61.74016541032136 40.942357500455145 13.195341849530216 1 rotate no_reflect no_shear #
lump $-1 $-1 $17 $2 #
transform $-1 1 0 0 0 1 0 0 0 1 61.74016541032136 40.942357500455145 13.195341849530216 1 rotate no_reflect no_shear #
lump $-1 $-1 $18 $3 #
transform $-1 1 0 0 0 1 0 0 0 1 61.74016541032136 40.942357500455145 13.195341849530216 1 rotate no_reflect no_shear #
lump $-1 $-1 $19 $4 #
transform $-1 1 0 0 0 1 0 0 0 1 61.74016541032136 40.942357500455145 13.195341849530216 1 rotate no_reflect no_shear #
shell $-1 $-1 $-1 $20 $-1 $5 #
shell $-1 $-1 $-1 $21 $-1 $7 #
shell $-1 $-1 $-1 $22 $-1 $9 #
shell $-1 $-1 $-1 $23 $-1 $11 #
shell $-1 $-1 $-1 $24 $-1 $13 #
face $-1 $25 $26 $15 $-1 $27 forward single #
face $-1 $28 $29 $16 $-1 $30 forward single #
face $-1 $31 $32 $17 $-1 $33 forward single #
face $-1 $34 $35 $18 $-1 $36 reversed single #
face $-1 $37 $38 $19 $-1 $39 reversed single #
face $-1 $40 $41 $15 $-1 $42 reversed single #
loop $-1 $-1 $43 $20 #
plane-surface $-1 0 0 13.195341849530216 0 0 1 1 0 0 forward_v I I I I #
face $-1 $44 $45 $16 $-1 $46 reversed single #
loop $-1 $-1 $47 $21 #
plane-surface $-1 -68.870736137415093 0 -6.7947130942336322 0 0 1 1 0 0 forward_v I I I I #
face $-1 $48 $49 $17 $-1 $50 forward single #
loop $-1 $-1 $51 $22 #
plane-surface $-1 79.993718031640469 4.7411711949441298 176.10254122256811 0 -1 0 -0.77714596973225614 0 -0.62932038083071107 forward_v I I I I #
face $-1 $52 $53 $18 $-1 $54 reversed single #
loop $-1 $55 $56 $23 #
cone-surface $-1 55.320333972766583 -3.378970520166483 6.1439585984146063 -0.77714596973225614 0 -0.62932038083071107 0.9439805712460666 0 -1.1657189545983841 1 I I 0 1 1.5 forward I I I I #
face $-1 $57 $58 $19 $-1 $59 reversed single #
loop $-1 $60 $61 $24 #
cone-surface $-1 55.320333972766583 1.493114508899879 6.1439585984146063 -0.77714596973225614 0 -0.62932038083071107 0.9439805712460666 0 -1.1657189545983841 1 I I 0 1 1.5 forward I I I I #
face $-1 $62 $63 $15 $-1 $64 reversed single #
loop $-1 $-1 $65 $25 #
plane-surface $-1 0 0 -13.195341849530216 0 0 1 1 0 0 forward_v I I I I #
coedge $-1 $66 $67 $68 $69 forward $26 $-1 #
face $-1 $70 $71 $16 $-1 $72 forward single #
loop $-1 $-1 $73 $28 #
plane-surface $-1 -76.00130686450882 0 -9.9950274718819241 1 0 0 0 0 -1 forward_v I I I I #
coedge $-1 $74 $75 $76 $77 reversed $29 $-1 #
face $-1 $78 $79 $17 $-1 $80 forward single #
loop $-1 $-1 $81 $31 #
plane-surface $-1 -15.968523406827714 -0.94292800563329848 98.39385240541904 0.77714596973225614 0 0.62932038083071107 0.62932038083071107 0 -0.77714596973225614 forward_v I I I I #
coedge $-1 $82 $83 $84 $85 reversed $32 $-1 #
face $-1 $86 $87 $18 $-1 $88 forward single #
loop $-1 $89 $90 $34 #
cone-surface $-1 52.675791643896964 -3.378970520166483 4.0024505029656368 -0.77714596973225614 0 -0.62932038083071107 0.4719902856230333 0 -0.58285947729919207 1 I I -0.70710678118654757 0.70710678118654757 0.75 forward I I I I #
loop $-1 $-1 $91 $23 #
coedge $-1 $56 $56 $92 $93 reversed $35 $-1 #
face $-1 $94 $95 $19 $-1 $96 reversed single #
loop $-1 $97 $98 $37 #
cone-surface $-1 52.675791643896964 1.493114508899879 4.0024505029656368 -0.77714596973225614 0 -0.62932038083071107 0.4719902856230333 0 -0.58285947729919207 1 I I -0.70710678118654757 0.70710678118654757 0.75 forward I I I I #
loop $-1 $-1 $99 $24 #
coedge $-1 $61 $61 $100 $101 reversed $38 $-1 #
face $-1 $102 $103 $15 $-1 $104 reversed single #
loop $-1 $-1 $105 $40 #
plane-surface $-1 0 -40.942357500455145 0 0 1 0 0 0 1 forward_v I I I I #
coedge $-1 $106 $107 $108 $109 forward $41 $-1 #
coedge $-1 $110 $43 $111 $112 forward $26 $-1 #
coedge $-1 $43 $110 $113 $114 forward $26 $-1 #
coedge $-1 $115 $116 $43 $69 reversed $117 $-1 #
edge $-1 $118 -40.942357500455145 $119 40.942357500455145 $68 $120 forward 7 unknown #
face $-1 $121 $122 $16 $-1 $123 reversed single #
loop $-1 $-1 $124 $44 #
plane-surface $-1 0 0 13.195341849530216 0 0 1 1 0 0 forward_v I I I I #
coedge $-1 $125 $126 $127 $128 forward $45 $-1 #
coedge $-1 $129 $47 $130 $131 forward $29 $-1 #
coedge $-1 $47 $129 $132 $133 forward $29 $-1 #
coedge $-1 $134 $135 $47 $77 forward $136 $-1 #
edge $-1 $137 -40.942357500455145 $138 40.942357500455145 $76 $139 forward 7 unknown #
face $-1 $140 $141 $17 $-1 $142 forward single #
loop $-1 $-1 $143 $48 #
plane-surface $-1 79.993718031640469 -6.6270272062107267 176.10254122256811 0 1 0 0.77714596973225614 0 0.62932038083071107 forward_v I I I I #
coedge $-1 $144 $145 $146 $147 reversed $49 $-1 #
coedge $-1 $83 $51 $145 $148 forward $32 $-1 #
coedge $-1 $51 $82 $149 $150 reversed $32 $-1 #
coedge $-1 $151 $146 $51 $85 forward $141 $-1 #
edge $-1 $152 13.027009222532428 $153 21.743306394501126 $84 $154 forward 7 unknown #
face $-1 $155 $156 $18 $-1 $157 forward single #
loop $-1 $-1 $158 $52 #
plane-surface $-1 79.993718031640469 4.7411711949441298 176.10254122256811 0 -1 0 -0.77714596973225614 0 -0.62932038083071107 forward_v I I I I #
loop $-1 $-1 $159 $34 #
coedge $-1 $90 $90 $91 $160 forward $53 $-1 #
coedge $-1 $91 $91 $90 $160 reversed $55 $-1 #
coedge $-1 $92 $92 $56 $93 forward $156 $-1 #
edge $-1 $161 0 $161 6.2831853071796004 $92 $162 forward 7 unknown #
face $-1 $163 $164 $19 $-1 $165 reversed single #
loop $-1 $166 $167 $57 #
cone-surface $-1 55.320333972766583 -3.378970520166483 6.1439585984146063 -0.77714596973225614 0 -0.62932038083071107 0.9439805712460666 0 -1.1657189545983841 1 I I 0 1 1.5 forward I I I I #
loop $-1 $-1 $168 $37 #
coedge $-1 $98 $98 $99 $169 forward $58 $-1 #
coedge $-1 $99 $99 $98 $169 reversed $60 $-1 #
coedge $-1 $100 $100 $61 $101 forward $170 $-1 #
edge $-1 $171 0 $171 6.2831853071796004 $100 $172 forward 7 unknown #
face $-1 $173 $174 $15 $-1 $175 reversed single #
loop $-1 $-1 $176 $62 #
plane-surface $-1 -61.74016541032136 0 0 1 0 0 0 0 -1 forward_v I I I I #
coedge $-1 $177 $113 $178 $179 forward $63 $-1 #
coedge $-1 $180 $65 $177 $181 forward $41 $-1 #
coedge $-1 $65 $180 $182 $183 forward $41 $-1 #
coedge $-1 $116 $115 $65 $109 reversed $117 $-1 #
edge $-1 $184 -40.942357500455145 $185 40.942357500455145 $108 $186 forward 7 unknown #
coedge $-1 $67 $66 $187 $188 forward $26 $-1 #
coedge $-1 $189 $190 $66 $112 reversed $174 $-1 #
edge $-1 $119 -61.74016541032136 $191 61.74016541032136 $111 $192 forward 7 unknown #
coedge $-1 $105 $193 $67 $114 reversed $63 $-1 #
edge $-1 $194 -61.74016541032136 $118 61.74016541032136 $113 $195 forward 7 unknown #
coedge $-1 $108 $68 $193 $196 forward $117 $-1 #
coedge $-1 $68 $108 $189 $197 reversed $117 $-1 #
loop $-1 $-1 $115 $173 #
vertex $-1 $69 $198 #
vertex $-1 $69 $199 #
straight-curve $-1 61.74016541032136 0 13.195341849530216 0 1 0 I I #
face $-1 $200 $201 $16 $-1 $202 reversed single #
loop $-1 $-1 $203 $70 #
plane-surface $-1 0 0 -13.195341849530216 0 0 1 1 0 0 forward_v I I I I #
coedge $-1 $204 $205 $206 $207 forward $71 $-1 #
coedge $-1 $208 $73 $209 $210 reversed $45 $-1 #
coedge $-1 $73 $208 $129 $211 reversed $45 $-1 #
coedge $-1 $130 $212 $73 $128 reversed $213 $-1 #
edge $-1 $214 -3.2003143776482919 $215 3.2003143776482919 $127 $216 forward 7 unknown #
coedge $-1 $75 $74 $126 $211 forward $29 $-1 #
coedge $-1 $217 $127 $74 $131 reversed $213 $-1 #
edge $-1 $137 -7.1305707270937262 $214 7.1305707270937262 $130 $218 forward 7 unknown #
coedge $-1 $219 $220 $75 $133 reversed $201 $-1 #
edge $-1 $221 -7.1305707270937262 $138 7.1305707270937262 $132 $222 forward 7 unknown #
coedge $-1 $223 $76 $220 $224 reversed $136 $-1 #
coedge $-1 $76 $223 $217 $225 forward $136 $-1 #
loop $-1 $-1 $76 $200 #
vertex $-1 $225 $226 #
vertex $-1 $133 $227 #
straight-curve $-1 -61.74016541032136 0 -6.7947130942336322 0 -1 0 I I #
face $-1 $228 $229 $17 $-1 $230 forward single #
loop $-1 $-1 $231 $78 #
plane-surface $-1 0 0 13.195341849530216 0 0 1 1 0 0 forward_v I I I I #
coedge $-1 $232 $233 $231 $234 reversed $79 $-1 #
coedge $-1 $235 $81 $233 $236 reversed $49 $-1 #
coedge $-1 $81 $235 $82 $148 reversed $49 $-1 #
coedge $-1 $84 $231 $81 $147 forward $141 $-1 #
edge $-1 $237 -6.1555632033940775 $152 5.212635197760779 $146 $238 forward 7 unknown #
edge $-1 $152 109.62999729026654 $239 123.48033082064273 $82 $240 forward 7 unknown #
coedge $-1 $241 $242 $83 $150 forward $243 $-1 #
edge $-1 $153 74.85592876175383 $239 85.619659644333197 $149 $244 forward 7 unknown #
coedge $-1 $245 $84 $242 $246 forward $141 $-1 #
vertex $-1 $147 $247 #
vertex $-1 $246 $248 #
straight-curve $-1 39.996859015820235 4.7411711949441298 13.195341849530223 1 0 0 I I #
face $-1 $249 $250 $18 $-1 $251 forward single #
loop $-1 $252 $92 $86 #
plane-surface $-1 -15.968523406827714 -0.94292800563329848 98.39385240541904 0.77714596973225614 0 0.62932038083071107 0.62932038083071107 0 -0.77714596973225614 forward_v I I I I #
coedge $-1 $253 $254 $255 $256 reversed $87 $-1 #
coedge $-1 $159 $159 $-1 $257 forward $89 $-1 #
edge $-1 $258 0 $258 6.2831853071796004 $90 $259 forward 7 unknown #
vertex $-1 $93 $260 #
ellipse-curve $-1 57.382016824337008 -3.378970520166483 7.8134764082405388 -0.77714596973225614 0 -0.62932038083071107 0.9439805712460666 0 -1.1657189545983841 1 I I #
face $-1 $261 $262 $19 $-1 $263 forward single #
loop $-1 $264 $265 $94 #
cone-surface $-1 52.675791643896964 -3.378970520166483 4.0024505029656368 -0.77714596973225614 0 -0.62932038083071107 0.4719902856230333 0 -0.58285947729919207 1 I I -0.70710678118654757 0.70710678118654757 0.75 forward I I I I #
loop $-1 $-1 $266 $57 #
coedge $-1 $167 $167 $267 $268 reversed $95 $-1 #
coedge $-1 $168 $168 $-1 $269 forward $97 $-1 #
edge $-1 $270 0 $270 6.2831853071796004 $98 $271 forward 7 unknown #
loop $-1 $272 $100 $261 #
vertex $-1 $101 $273 #
ellipse-curve $-1 57.382016824337008 1.493114508899879 7.8134764082405388 -0.77714596973225614 0 -0.62932038083071107 0.9439805712460666 0 -1.1657189545983841 1 I I #
face $-1 $-1 $117 $15 $-1 $274 reversed single #
loop $-1 $-1 $189 $102 #
plane-surface $-1 0 40.942357500455145 0 0 -1 0 0 0 -1 forward_v I I I I #
coedge $-1 $275 $187 $190 $276 forward $103 $-1 #
coedge $-1 $193 $105 $106 $181 reversed $63 $-1 #
coedge $-1 $187 $275 $105 $179 reversed $103 $-1 #
edge $-1 $194 -13.195341849530216 $277 13.195341849530216 $178 $278 forward 7 unknown #
coedge $-1 $107 $106 $275 $279 forward $41 $-1 #
edge $-1 $185 -61.74016541032136 $277 61.74016541032136 $177 $280 forward 7 unknown #
coedge $-1 $190 $189 $107 $183 reversed $174 $-1 #
edge $-1 $281 -61.74016541032136 $184 61.74016541032136 $182 $282 forward 7 unknown #
vertex $-1 $109 $283 #
vertex $-1 $196 $284 #
straight-curve $-1 61.74016541032136 0 -13.195341849530216 0 -1 0 I I #
coedge $-1 $176 $178 $110 $188 reversed $103 $-1 #
edge $-1 $191 -40.942357500455145 $194 40.942357500455145 $187 $285 forward 7 unknown #
coedge $-1 $182 $111 $116 $197 forward $174 $-1 #
coedge $-1 $111 $182 $176 $276 reversed $174 $-1 #
vertex $-1 $112 $286 #
straight-curve $-1 0 40.942357500455145 13.195341849530216 -1 0 0 I I #
coedge $-1 $113 $177 $115 $196 reversed $63 $-1 #
vertex $-1 $188 $287 #
straight-curve $-1 0 -40.942357500455145 13.195341849530216 1 0 0 I I #
edge $-1 $118 -13.195341849530216 $185 13.195341849530216 $115 $288 forward 7 unknown #
edge $-1 $119 -13.195341849530216 $184 13.195341849530216 $116 $289 forward 7 unknown #
point $-1 61.74016541032136 -40.942357500455145 13.195341849530216 #
point $-1 61.74016541032136 40.942357500455145 13.195341849530216 #
face $-1 $290 $136 $16 $-1 $291 reversed single #
loop $-1 $-1 $220 $121 #
plane-surface $-1 0 -40.942357500455145 0 0 1 0 0 0 1 forward_v I I I I #
coedge $-1 $292 $293 $294 $295 forward $122 $-1 #
coedge $-1 $296 $124 $297 $298 forward $71 $-1 #
coedge $-1 $124 $296 $299 $300 forward $71 $-1 #
coedge $-1 $301 $302 $124 $207 reversed $303 $-1 #
edge $-1 $304 -40.942357500455145 $305 40.942357500455145 $206 $306 forward 7 unknown #
coedge $-1 $126 $125 $219 $307 reversed $45 $-1 #
coedge $-1 $293 $292 $125 $210 forward $122 $-1 #
edge $-1 $308 -40.942357500455145 $215 40.942357500455145 $125 $309 forward 7 unknown #
edge $-1 $214 -40.942357500455145 $221 40.942357500455145 $126 $310 forward 7 unknown #
coedge $-1 $127 $311 $293 $312 reversed $213 $-1 #
loop $-1 $-1 $311 $290 #
vertex $-1 $131 $313 #
vertex $-1 $312 $314 #
straight-curve $-1 -76.00130686450882 40.942357500455145 -9.9950274718819241 0 0 -1 I I #
coedge $-1 $297 $130 $135 $225 reversed $213 $-1 #
straight-curve $-1 -68.870736137415093 40.942357500455145 -6.7947130942336322 -1 0 0 I I #
coedge $-1 $315 $132 $208 $307 forward $201 $-1 #
coedge $-1 $132 $299 $134 $224 forward $201 $-1 #
vertex $-1 $211 $316 #
straight-curve $-1 -68.870736137415093 -40.942357500455145 -6.7947130942336322 1 0 0 I I #
coedge $-1 $135 $134 $296 $317 reversed $136 $-1 #
edge $-1 $318 -13.195341849530216 $138 6.7947130942336322 $134 $319 forward 7 unknown #
edge $-1 $320 -13.195341849530216 $137 6.7947130942336322 $217 $321 forward 7 unknown #
point $-1 -61.740165410321367 40.942357500455145 -6.7947130942336322 #
point $-1 -61.740165410321367 -40.942357500455145 -6.7947130942336322 #
face $-1 $322 $323 $17 $-1 $324 reversed single #
loop $-1 $-1 $325 $140 #
plane-surface $-1 -68.870736137415093 0 -6.7947130942336322 0 0 1 1 0 0 forward_v I I I I #
coedge $-1 $146 $326 $143 $234 forward $141 $-1 #
coedge $-1 $233 $143 $327 $328 reversed $79 $-1 #
coedge $-1 $143 $232 $144 $236 forward $79 $-1 #
edge $-1 $329 -21.743306394501126 $237 -13.027009222532428 $231 $330 forward 7 unknown #
coedge $-1 $145 $144 $241 $331 reversed $49 $-1 #
edge $-1 $332 -123.48033082064273 $237 -109.62999729026654 $233 $333 forward 7 unknown #
vertex $-1 $147 $334 #
straight-curve $-1 53.023868238352662 -0.47146400281664924 13.195341849530216 0 1 0 I I #
vertex $-1 $331 $335 #
straight-curve $-1 -15.968523406827714 4.7411711949441298 98.39385240541904 0.62932038083071107 0 -0.77714596973225614 I I #
coedge $-1 $327 $149 $235 $331 forward $243 $-1 #
coedge $-1 $149 $336 $151 $246 reversed $243 $-1 #
loop $-1 $-1 $327 $337 #
straight-curve $-1 61.74016541032136 4.7411711949441298 88.051270611284053 0 0 -1 I I #
coedge $-1 $338 $151 $339 $340 forward $141 $-1 #
edge $-1 $153 4.7411711949441298 $341 40.942357500455145 $242 $342 forward 7 unknown #
point $-1 53.023868238352662 4.7411711949441298 13.195341849530223 #
point $-1 61.74016541032136 4.7411711949441298 13.195341849530216 #
face $-1 $343 $344 $18 $-1 $345 forward single #
loop $-1 $-1 $346 $155 #
plane-surface $-1 79.993718031640469 -6.6270272062107267 176.10254122256811 0 1 0 0.77714596973225614 0 0.62932038083071107 forward_v I I I I #
loop $-1 $-1 $347 $86 #
coedge $-1 $254 $158 $348 $349 forward $87 $-1 #
coedge $-1 $158 $253 $350 $351 reversed $87 $-1 #
coedge $-1 $352 $353 $158 $256 forward $344 $-1 #
edge $-1 $354 13.027009222532428 $355 21.743306394501126 $255 $356 forward 7 unknown #
edge $-1 $357 1 $357 0 $159 $-1 forward 7 unknown #
vertex $-1 $160 $358 #
ellipse-curve $-1 53.258651121196159 -3.378970520166483 4.4744407885886703 0.77714596973225614 0 0.62932038083071107 0.9439805712460666 0 -1.1657189545983841 1 I I #
point $-1 58.32599739558308 -3.378970520166483 6.647757453642158 #
face $-1 $359 $170 $19 $-1 $360 forward single #
loop $-1 $-1 $361 $163 #
plane-surface $-1 79.993718031640469 4.7411711949441298 176.10254122256811 0 -1 0 -0.77714596973225614 0 -0.62932038083071107 forward_v I I I I #
loop $-1 $-1 $362 $94 #
coedge $-1 $265 $265 $266 $363 forward $164 $-1 #
coedge $-1 $266 $266 $265 $363 reversed $166 $-1 #
coedge $-1 $267 $267 $167 $268 forward $272 $-1 #
edge $-1 $364 0 $364 6.2831853071796004 $267 $365 forward 7 unknown #
edge $-1 $366 1 $366 0 $168 $-1 forward 7 unknown #
vertex $-1 $169 $367 #
ellipse-curve $-1 53.258651121196159 1.493114508899879 4.4744407885886703 0.77714596973225614 0 0.62932038083071107 0.9439805712460666 0 -1.1657189545983841 1 I I #
loop $-1 $368 $267 $261 #
point $-1 58.32599739558308 1.493114508899879 6.647757453642158 #
plane-surface $-1 61.74016541032136 0 0 -1 0 0 0 0 1 forward_v I I I I #
coedge $-1 $178 $176 $180 $279 reversed $103 $-1 #
edge $-1 $191 -13.195341849530216 $281 13.195341849530216 $190 $369 forward 7 unknown #
vertex $-1 $279 $370 #
straight-curve $-1 -61.74016541032136 -40.942357500455145 0 0 0 -1 I I #
edge $-1 $277 -40.942357500455145 $281 40.942357500455145 $275 $371 forward 7 unknown #
straight-curve $-1 0 -40.942357500455145 -13.195341849530216 -1 0 0 I I #
vertex $-1 $183 $372 #
straight-curve $-1 0 40.942357500455145 -13.195341849530216 1 0 0 I I #
point $-1 61.74016541032136 40.942357500455145 -13.195341849530216 #
point $-1 61.74016541032136 -40.942357500455145 -13.195341849530216 #
straight-curve $-1 -61.74016541032136 0 13.195341849530216 0 -1 0 I I #
point $-1 -61.74016541032136 40.942357500455145 13.195341849530216 #
point $-1 -61.74016541032136 -40.942357500455145 13.195341849530216 #
straight-curve $-1 61.74016541032136 -40.942357500455145 0 0 0 -1 I I #
straight-curve $-1 61.74016541032136 40.942357500455145 0 0 0 -1 I I #
face $-1 $373 $213 $16 $-1 $374 reversed single #
plane-surface $-1 -61.74016541032136 0 0 1 0 0 0 0 -1 forward_v I I I I #
coedge $-1 $209 $203 $315 $375 forward $122 $-1 #
coedge $-1 $203 $209 $212 $312 forward $122 $-1 #
coedge $-1 $302 $301 $203 $295 reversed $303 $-1 #
edge $-1 $376 -40.942357500455145 $377 40.942357500455145 $294 $378 forward 7 unknown #
coedge $-1 $205 $204 $223 $317 forward $71 $-1 #
coedge $-1 $311 $217 $204 $298 reversed $213 $-1 #
edge $-1 $305 -61.74016541032136 $320 61.74016541032136 $297 $379 forward 7 unknown #
coedge $-1 $220 $380 $205 $300 reversed $201 $-1 #
edge $-1 $318 -61.74016541032136 $304 61.74016541032136 $299 $381 forward 7 unknown #
coedge $-1 $294 $206 $380 $382 forward $303 $-1 #
coedge $-1 $206 $294 $311 $383 reversed $303 $-1 #
loop $-1 $-1 $301 $373 #
vertex $-1 $207 $384 #
vertex $-1 $207 $385 #
straight-curve $-1 61.74016541032136 0 13.195341849530216 0 1 0 I I #
edge $-1 $221 -3.2003143776482919 $308 3.2003143776482919 $208 $386 forward 7 unknown #
vertex $-1 $210 $387 #
straight-curve $-1 -76.00130686450882 0 -13.195341849530216 0 1 0 I I #
straight-curve $-1 -76.00130686450882 0 -6.7947130942336322 0 -1 0 I I #
coedge $-1 $212 $297 $302 $383 forward $213 $-1 #
edge $-1 $215 -76.00130686450882 $376 61.74016541032136 $212 $388 forward 7 unknown #
point $-1 -76.00130686450882 40.942357500455145 -6.7947130942336322 #
point $-1 -76.00130686450882 40.942357500455145 -13.195341849530216 #
coedge $-1 $380 $219 $292 $375 reversed $201 $-1 #
point $-1 -76.00130686450882 -40.942357500455145 -6.7947130942336322 #
edge $-1 $320 -40.942357500455145 $318 40.942357500455145 $223 $389 forward 7 unknown #
vertex $-1 $317 $390 #
straight-curve $-1 -61.74016541032136 -40.942357500455145 0 0 0 -1 I I #
vertex $-1 $298 $391 #
straight-curve $-1 -61.74016541032136 40.942357500455145 0 0 0 -1 I I #
face $-1 $392 $393 $17 $-1 $394 reversed single #
loop $-1 $-1 $395 $228 #
plane-surface $-1 -76.00130686450882 0 -9.9950274718819241 1 0 0 0 0 -1 forward_v I I I I #
coedge $-1 $396 $397 $398 $399 reversed $229 $-1 #
coedge $-1 $231 $400 $401 $402 forward $141 $-1 #
coedge $-1 $401 $241 $232 $328 forward $243 $-1 #
edge $-1 $332 -85.619659644333197 $329 -74.85592876175383 $327 $403 forward 7 unknown #
vertex $-1 $328 $404 #
straight-curve $-1 39.996859015820235 -6.6270272062107267 13.195341849530223 -1 0 0 I I #
edge $-1 $239 -5.212635197760779 $332 6.1555632033940775 $241 $405 forward 7 unknown #
vertex $-1 $331 $406 #
straight-curve $-1 -15.968523406827714 -6.6270272062107267 98.39385240541904 -0.62932038083071107 0 0.77714596973225614 I I #
point $-1 53.023868238352662 -6.6270272062107267 13.195341849530223 #
point $-1 61.740165410321353 4.7411711949441298 2.4316109669508563 #
coedge $-1 $242 $407 $408 $409 reversed $243 $-1 #
face $-1 $-1 $243 $17 $-1 $410 reversed single #
coedge $-1 $400 $245 $411 $412 forward $141 $-1 #
coedge $-1 $408 $413 $245 $340 reversed $414 $-1 #
edge $-1 $341 -61.74016541032136 $415 61.74016541032136 $339 $416 forward 7 unknown #
vertex $-1 $246 $417 #
straight-curve $-1 61.74016541032136 0 13.195341849530216 0 1 0 I I #
face $-1 $418 $419 $18 $-1 $420 forward single #
loop $-1 $-1 $421 $249 #
plane-surface $-1 0 0 13.195341849530216 0 0 1 1 0 0 forward_v I I I I #
coedge $-1 $422 $423 $421 $424 reversed $250 $-1 #
coedge $-1 $425 $348 $353 $426 reversed $252 $-1 #
coedge $-1 $347 $427 $253 $349 reversed $252 $-1 #
edge $-1 $354 109.62999729026654 $428 123.48033082064273 $253 $429 forward 7 unknown #
coedge $-1 $430 $431 $254 $351 forward $432 $-1 #
edge $-1 $355 74.85592876175383 $428 85.619659644333197 $350 $433 forward 7 unknown #
coedge $-1 $434 $255 $431 $435 forward $344 $-1 #
coedge $-1 $255 $421 $347 $426 forward $344 $-1 #
vertex $-1 $426 $436 #
vertex $-1 $435 $437 #
straight-curve $-1 39.996859015820235 4.7411711949441298 13.195341849530223 1 0 0 I I #
vertex $-1 $257 $438 #
point $-1 54.202631692442225 -3.378970520166483 3.308721833990286 #
face $-1 $439 $440 $19 $-1 $441 forward single #
plane-surface $-1 -15.968523406827714 -0.94292800563329848 98.39385240541904 0.77714596973225614 0 0.62932038083071107 0.62932038083071107 0 -0.77714596973225614 forward_v I I I I #
coedge $-1 $442 $443 $444 $445 reversed $262 $-1 #
coedge $-1 $362 $362 $-1 $446 forward $264 $-1 #
edge $-1 $447 0 $447 6.2831853071796004 $265 $448 forward 7 unknown #
vertex $-1 $268 $449 #
ellipse-curve $-1 57.382016824337008 -3.378970520166483 7.8134764082405388 -0.77714596973225614 0 -0.62932038083071107 0.9439805712460666 0 -1.1657189545983841 1 I I #
vertex $-1 $269 $450 #
point $-1 54.202631692442225 1.493114508899879 3.308721833990286 #
loop $-1 $-1 $451 $261 #
straight-curve $-1 -61.74016541032136 40.942357500455145 0 0 0 -1 I I #
point $-1 -61.74016541032136 -40.942357500455145 -13.195341849530216 #
straight-curve $-1 -61.74016541032136 0 -13.195341849530216 0 1 0 I I #
point $-1 -61.74016541032136 40.942357500455145 -13.195341849530216 #
face $-1 $-1 $303 $16 $-1 $452 reversed single #
plane-surface $-1 0 40.942357500455145 0 0 -1 0 0 0 -1 forward_v I I I I #
edge $-1 $377 -130.61090154773646 $308 7.1305707270937262 $315 $453 forward 7 unknown #
vertex $-1 $295 $454 #
vertex $-1 $382 $455 #
straight-curve $-1 61.74016541032136 0 -13.195341849530216 0 -1 0 I I #
straight-curve $-1 0 40.942357500455145 13.195341849530216 -1 0 0 I I #
coedge $-1 $299 $315 $301 $382 reversed $201 $-1 #
straight-curve $-1 0 -40.942357500455145 13.195341849530216 1 0 0 I I #
edge $-1 $304 -13.195341849530216 $377 13.195341849530216 $301 $456 forward 7 unknown #
edge $-1 $305 -13.195341849530216 $376 13.195341849530216 $302 $457 forward 7 unknown #
point $-1 61.74016541032136 -40.942357500455145 13.195341849530216 #
point $-1 61.74016541032136 40.942357500455145 13.195341849530216 #
straight-curve $-1 -76.00130686450882 -40.942357500455145 -9.9950274718819241 0 0 -1 I I #
point $-1 -76.00130686450882 -40.942357500455145 -13.195341849530216 #
straight-curve $-1 0 40.942357500455145 -13.195341849530216 1 0 0 I I #
straight-curve $-1 -61.74016541032136 0 13.195341849530216 0 -1 0 I I #
point $-1 -61.74016541032136 -40.942357500455145 13.195341849530216 #
point $-1 -61.74016541032136 40.942357500455145 13.195341849530216 #
face $-1 $458 $459 $17 $-1 $460 reversed single #
loop $-1 $-1 $461 $322 #
plane-surface $-1 0 0 -13.195341849530216 0 0 1 1 0 0 forward_v I I I I #
coedge $-1 $462 $463 $464 $465 forward $323 $-1 #
coedge $-1 $466 $325 $467 $468 forward $229 $-1 #
coedge $-1 $325 $466 $469 $470 forward $229 $-1 #
coedge $-1 $471 $472 $325 $399 forward $473 $-1 #
edge $-1 $474 -40.942357500455145 $475 40.942357500455145 $398 $476 forward 7 unknown #
coedge $-1 $326 $338 $477 $478 forward $141 $-1 #
coedge $-1 $479 $327 $326 $402 reversed $243 $-1 #
edge $-1 $480 -40.942357500455145 $329 -6.6270272062107267 $401 $342 forward 7 unknown #
straight-curve $-1 61.74016541032136 -6.6270272062107267 88.051270611284053 0 0 1 I I #
point $-1 61.74016541032136 -6.6270272062107267 13.195341849530216 #
straight-curve $-1 61.740165410321353 -0.47146400281664924 2.4316109669508634 0 -1 0 I I #
point $-1 61.740165410321353 -6.6270272062107267 2.4316109669508563 #
coedge $-1 $336 $479 $461 $481 reversed $243 $-1 #
coedge $-1 $482 $339 $336 $409 forward $414 $-1 #
edge $-1 $341 -13.195341849530216 $483 13.195341849530216 $336 $484 forward 7 unknown #
plane-surface $-1 61.74016541032136 0 0 -1 0 0 0 0 1 forward_v I I I I #
coedge $-1 $472 $471 $338 $412 reversed $473 $-1 #
edge $-1 $415 -40.942357500455145 $485 40.942357500455145 $411 $486 forward 7 unknown #
coedge $-1 $339 $467 $472 $487 reversed $414 $-1 #
loop $-1 $-1 $408 $488 #
vertex $-1 $340 $489 #
straight-curve $-1 0 40.942357500455145 13.195341849530216 -1 0 0 I I #
point $-1 61.74016541032136 40.942357500455145 13.195341849530216 #
face $-1 $490 $491 $18 $-1 $492 reversed single #
loop $-1 $-1 $493 $343 #
plane-surface $-1 -68.870736137415093 0 -6.7947130942336322 0 0 1 1 0 0 forward_v I I I I #
coedge $-1 $353 $494 $346 $424 forward $344 $-1 #
coedge $-1 $423 $346 $495 $496 reversed $250 $-1 #
coedge $-1 $346 $422 $425 $497 forward $250 $-1 #
edge $-1 $498 -21.743306394501126 $499 -13.027009222532428 $421 $500 forward 7 unknown #
coedge $-1 $427 $347 $423 $497 reversed $252 $-1 #
edge $-1 $499 -6.1555632033940775 $354 5.212635197760779 $353 $501 forward 7 unknown #
coedge $-1 $348 $425 $430 $502 reversed $252 $-1 #
vertex $-1 $502 $503 #
straight-curve $-1 -15.968523406827714 4.7411711949441298 98.39385240541904 0.62932038083071107 0 -0.77714596973225614 I I #
coedge $-1 $495 $350 $427 $502 forward $432 $-1 #
coedge $-1 $350 $504 $352 $435 reversed $432 $-1 #
loop $-1 $-1 $495 $505 #
straight-curve $-1 61.74016541032136 4.7411711949441298 88.051270611284053 0 0 -1 I I #
coedge $-1 $506 $352 $507 $508 forward $344 $-1 #
edge $-1 $355 4.7411711949441298 $509 40.942357500455145 $431 $510 forward 7 unknown #
point $-1 53.023868238352662 4.7411711949441298 13.195341849530223 #
point $-1 61.74016541032136 4.7411711949441298 13.195341849530216 #
point $-1 52.09293216659777 -3.378970520166483 3.5304602173426036 #
face $-1 $511 $512 $19 $-1 $513 forward single #
loop $-1 $-1 $514 $359 #
plane-surface $-1 79.993718031640469 -6.6270272062107267 176.10254122256811 0 1 0 0.77714596973225614 0 0.62932038083071107 forward_v I I I I #
coedge $-1 $443 $361 $515 $516 forward $262 $-1 #
coedge $-1 $361 $442 $517 $518 reversed $262 $-1 #
coedge $-1 $519 $520 $361 $445 forward $512 $-1 #
edge $-1 $521 13.027009222532428 $522 21.743306394501126 $444 $523 forward 7 unknown #
edge $-1 $524 1 $524 0 $362 $-1 forward 7 unknown #
vertex $-1 $363 $525 #
ellipse-curve $-1 53.258651121196159 -3.378970520166483 4.4744407885886703 0.77714596973225614 0 0.62932038083071107 0.9439805712460666 0 -1.1657189545983841 1 I I #
point $-1 58.32599739558308 -3.378970520166483 6.647757453642158 #
point $-1 52.09293216659777 1.493114508899879 3.5304602173426036 #
coedge $-1 $526 $515 $520 $527 reversed $368 $-1 #
plane-surface $-1 61.74016541032136 0 0 -1 0 0 0 0 1 forward_v I I I I #
straight-curve $-1 -68.870736137415093 -40.942357500455145 -13.195341849530216 -1 0 0 I I #
point $-1 61.74016541032136 40.942357500455145 -13.195341849530216 #
point $-1 61.74016541032136 -40.942357500455145 -13.195341849530216 #
straight-curve $-1 61.74016541032136 -40.942357500455145 0 0 0 -1 I I #
straight-curve $-1 61.74016541032136 40.942357500455145 0 0 0 -1 I I #
face $-1 $488 $473 $17 $-1 $528 reversed single #
loop $-1 $-1 $529 $392 #
plane-surface $-1 0 -40.942357500455145 0 0 1 0 0 0 1 forward_v I I I I #
coedge $-1 $530 $531 $407 $481 forward $393 $-1 #
coedge $-1 $532 $395 $533 $534 reversed $323 $-1 #
coedge $-1 $395 $532 $466 $535 reversed $323 $-1 #
coedge $-1 $467 $482 $395 $465 reversed $414 $-1 #
edge $-1 $536 -3.2003143776482919 $537 3.2003143776482919 $464 $538 forward 7 unknown #
coedge $-1 $397 $396 $463 $535 forward $229 $-1 #
coedge $-1 $413 $464 $396 $468 reversed $414 $-1 #
edge $-1 $474 -7.1305707270937262 $536 7.1305707270937262 $467 $539 forward 7 unknown #
coedge $-1 $540 $529 $397 $470 reversed $459 $-1 #
edge $-1 $541 -7.1305707270937262 $475 7.1305707270937262 $469 $542 forward 7 unknown #
coedge $-1 $411 $398 $529 $543 reversed $473 $-1 #
coedge $-1 $398 $411 $413 $487 forward $473 $-1 #
loop $-1 $-1 $398 $458 #
vertex $-1 $487 $544 #
vertex $-1 $470 $545 #
straight-curve $-1 -61.74016541032136 0 -6.7947130942336322 0 -1 0 I I #
coedge $-1 $529 $546 $400 $478 reversed $459 $-1 #
edge $-1 $485 -61.74016541032136 $480 61.74016541032136 $477 $547 forward 7 unknown #
coedge $-1 $407 $401 $546 $548 forward $243 $-1 #
vertex $-1 $402 $549 #
edge $-1 $483 -40.942357500455145 $550 40.942357500455145 $407 $551 forward 7 unknown #
coedge $-1 $464 $408 $531 $552 reversed $414 $-1 #
vertex $-1 $481 $553 #
straight-curve $-1 61.74016541032136 40.942357500455145 0 0 0 -1 I I #
vertex $-1 $412 $554 #
straight-curve $-1 -61.74016541032136 0 13.195341849530216 0 -1 0 I I #
edge $-1 $415 -13.195341849530216 $474 6.7947130942336322 $413 $555 forward 7 unknown #
face $-1 $337 $414 $17 $-1 $556 reversed single #
point $-1 -61.74016541032136 40.942357500455145 13.195341849530216 #
face $-1 $557 $558 $18 $-1 $559 reversed single #
loop $-1 $-1 $560 $418 #
plane-surface $-1 -76.00130686450882 0 -9.9950274718819241 1 0 0 0 0 -1 forward_v I I I I #
coedge $-1 $561 $562 $563 $564 reversed $419 $-1 #
coedge $-1 $421 $565 $566 $567 forward $344 $-1 #
coedge $-1 $566 $430 $422 $496 forward $432 $-1 #
edge $-1 $568 -85.619659644333197 $498 -74.85592876175383 $495 $569 forward 7 unknown #
edge $-1 $568 -123.48033082064273 $499 -109.62999729026654 $423 $570 forward 7 unknown #
vertex $-1 $496 $571 #
vertex $-1 $426 $572 #
straight-curve $-1 39.996859015820235 -6.6270272062107267 13.195341849530223 -1 0 0 I I #
straight-curve $-1 53.023868238352662 -0.47146400281664924 13.195341849530216 0 1 0 I I #
edge $-1 $428 -5.212635197760779 $568 6.1555632033940775 $430 $573 forward 7 unknown #
point $-1 61.740165410321353 4.7411711949441298 2.4316109669508563 #
coedge $-1 $431 $574 $575 $576 reversed $432 $-1 #
face $-1 $-1 $432 $18 $-1 $577 reversed single #
coedge $-1 $565 $434 $578 $579 forward $344 $-1 #
coedge $-1 $575 $580 $434 $508 reversed $581 $-1 #
edge $-1 $509 -61.74016541032136 $582 61.74016541032136 $507 $583 forward 7 unknown #
vertex $-1 $435 $584 #
straight-curve $-1 61.74016541032136 0 13.195341849530216 0 1 0 I I #
face $-1 $585 $586 $19 $-1 $587 forward single #
loop $-1 $-1 $588 $439 #
plane-surface $-1 0 0 13.195341849530216 0 0 1 1 0 0 forward_v I I I I #
coedge $-1 $589 $590 $588 $591 reversed $440 $-1 #
coedge $-1 $451 $592 $442 $516 reversed $368 $-1 #
edge $-1 $521 109.62999729026654 $593 123.48033082064273 $442 $594 forward 7 unknown #
coedge $-1 $595 $596 $443 $518 forward $597 $-1 #
edge $-1 $522 74.85592876175383 $593 85.619659644333197 $517 $598 forward 7 unknown #
coedge $-1 $599 $444 $596 $600 forward $512 $-1 #
coedge $-1 $444 $588 $451 $527 forward $512 $-1 #
vertex $-1 $527 $601 #
vertex $-1 $600 $602 #
straight-curve $-1 39.996859015820235 4.7411711949441298 13.195341849530223 1 0 0 I I #
vertex $-1 $446 $603 #
point $-1 54.202631692442225 -3.378970520166483 3.308721833990286 #
coedge $-1 $592 $451 $590 $604 reversed $368 $-1 #
edge $-1 $605 -6.1555632033940775 $521 5.212635197760779 $520 $606 forward 7 unknown #
plane-surface $-1 -61.74016541032136 0 0 1 0 0 0 0 -1 forward_v I I I I #
coedge $-1 $469 $477 $471 $543 forward $459 $-1 #
coedge $-1 $533 $461 $607 $608 forward $393 $-1 #
coedge $-1 $461 $533 $482 $552 forward $393 $-1 #
coedge $-1 $463 $462 $540 $609 reversed $323 $-1 #
coedge $-1 $531 $530 $462 $534 forward $393 $-1 #
edge $-1 $610 -40.942357500455145 $537 40.942357500455145 $462 $611 forward 7 unknown #
edge $-1 $536 -40.942357500455145 $541 40.942357500455145 $463 $612 forward 7 unknown #
vertex $-1 $468 $613 #
vertex $-1 $552 $614 #
straight-curve $-1 -76.00130686450882 40.942357500455145 -9.9950274718819241 0 0 -1 I I #
straight-curve $-1 -68.870736137415093 40.942357500455145 -6.7947130942336322 -1 0 0 I I #
coedge $-1 $607 $469 $532 $609 forward $459 $-1 #
vertex $-1 $535 $615 #
straight-curve $-1 -68.870736137415093 -40.942357500455145 -6.7947130942336322 1 0 0 I I #
edge $-1 $485 -13.195341849530216 $475 6.7947130942336322 $471 $616 forward 7 unknown #
point $-1 -61.740165410321367 40.942357500455145 -6.7947130942336322 #
point $-1 -61.740165410321367 -40.942357500455145 -6.7947130942336322 #
coedge $-1 $477 $607 $479 $548 reversed $459 $-1 #
straight-curve $-1 0 -40.942357500455145 13.195341849530216 1 0 0 I I #
edge $-1 $480 -13.195341849530216 $550 13.195341849530216 $479 $617 forward 7 unknown #
point $-1 61.74016541032136 -40.942357500455145 13.195341849530216 #
vertex $-1 $548 $618 #
straight-curve $-1 61.74016541032136 0 -13.195341849530216 0 -1 0 I I #
edge $-1 $537 -76.00130686450882 $483 61.74016541032136 $482 $619 forward 7 unknown #
point $-1 61.74016541032136 40.942357500455145 -13.195341849530216 #
point $-1 -61.74016541032136 -40.942357500455145 13.195341849530216 #
straight-curve $-1 -61.74016541032136 40.942357500455145 0 0 0 -1 I I #
plane-surface $-1 0 40.942357500455145 0 0 -1 0 0 0 -1 forward_v I I I I #
face $-1 $620 $621 $18 $-1 $622 reversed single #
loop $-1 $-1 $623 $490 #
plane-surface $-1 0 0 -13.195341849530216 0 0 1 1 0 0 forward_v I I I I #
coedge $-1 $624 $625 $626 $627 forward $491 $-1 #
coedge $-1 $628 $493 $629 $630 forward $419 $-1 #
coedge $-1 $493 $628 $631 $632 forward $419 $-1 #
coedge $-1 $633 $634 $493 $564 forward $635 $-1 #
edge $-1 $636 -40.942357500455145 $637 40.942357500455145 $563 $638 forward 7 unknown #
coedge $-1 $494 $506 $639 $640 forward $344 $-1 #
coedge $-1 $641 $495 $494 $567 reversed $432 $-1 #
edge $-1 $642 -40.942357500455145 $498 -6.6270272062107267 $566 $510 forward 7 unknown #
vertex $-1 $502 $643 #
straight-curve $-1 61.74016541032136 -6.6270272062107267 88.051270611284053 0 0 1 I I #
straight-curve $-1 -15.968523406827714 -6.6270272062107267 98.39385240541904 -0.62932038083071107 0 0.77714596973225614 I I #
point $-1 61.74016541032136 -6.6270272062107267 13.195341849530216 #
point $-1 53.023868238352662 -6.6270272062107267 13.195341849530223 #
straight-curve $-1 61.740165410321353 -0.47146400281664924 2.4316109669508634 0 -1 0 I I #
coedge $-1 $504 $641 $623 $644 reversed $432 $-1 #
coedge $-1 $645 $507 $504 $576 forward $581 $-1 #
edge $-1 $509 -13.195341849530216 $646 13.195341849530216 $504 $647 forward 7 unknown #
plane-surface $-1 61.74016541032136 0 0 -1 0 0 0 0 1 forward_v I I I I #
coedge $-1 $634 $633 $506 $579 reversed $635 $-1 #
edge $-1 $582 -40.942357500455145 $648 40.942357500455145 $578 $649 forward 7 unknown #
coedge $-1 $507 $629 $634 $650 reversed $581 $-1 #
loop $-1 $-1 $575 $651 #
vertex $-1 $508 $652 #
straight-curve $-1 0 40.942357500455145 13.195341849530216 -1 0 0 I I #
point $-1 61.74016541032136 40.942357500455145 13.195341849530216 #
face $-1 $653 $654 $19 $-1 $655 reversed single #
loop $-1 $-1 $656 $511 #
plane-surface $-1 -68.870736137415093 0 -6.7947130942336322 0 0 1 1 0 0 forward_v I I I I #
coedge $-1 $520 $657 $514 $591 forward $512 $-1 #
coedge $-1 $590 $514 $658 $659 reversed $440 $-1 #
coedge $-1 $514 $589 $526 $604 forward $440 $-1 #
edge $-1 $660 -21.743306394501126 $605 -13.027009222532428 $588 $661 forward 7 unknown #
coedge $-1 $515 $526 $595 $662 reversed $368 $-1 #
vertex $-1 $662 $663 #
straight-curve $-1 -15.968523406827714 4.7411711949441298 98.39385240541904 0.62932038083071107 0 -0.77714596973225614 I I #
coedge $-1 $658 $517 $592 $662 forward $597 $-1 #
coedge $-1 $517 $664 $519 $600 reversed $597 $-1 #
loop $-1 $-1 $658 $665 #
straight-curve $-1 61.74016541032136 4.7411711949441298 88.051270611284053 0 0 -1 I I #
coedge $-1 $666 $519 $667 $668 forward $512 $-1 #
edge $-1 $522 4.7411711949441298 $669 40.942357500455145 $596 $670 forward 7 unknown #
point $-1 53.023868238352662 4.7411711949441298 13.195341849530223 #
point $-1 61.74016541032136 4.7411711949441298 13.195341849530216 #
point $-1 52.09293216659777 -3.378970520166483 3.5304602173426036 #
edge $-1 $671 -123.48033082064273 $605 -109.62999729026654 $590 $672 forward 7 unknown #
vertex $-1 $527 $673 #
straight-curve $-1 53.023868238352662 -0.47146400281664924 13.195341849530216 0 1 0 I I #
coedge $-1 $546 $540 $530 $608 reversed $459 $-1 #
edge $-1 $550 -130.61090154773646 $610 7.1305707270937262 $607 $674 forward 7 unknown #
edge $-1 $541 -3.2003143776482919 $610 3.2003143776482919 $532 $675 forward 7 unknown #
vertex $-1 $534 $676 #
straight-curve $-1 -76.00130686450882 0 -13.195341849530216 0 1 0 I I #
straight-curve $-1 -76.00130686450882 0 -6.7947130942336322 0 -1 0 I I #
point $-1 -76.00130686450882 40.942357500455145 -6.7947130942336322 #
point $-1 -76.00130686450882 40.942357500455145 -13.195341849530216 #
point $-1 -76.00130686450882 -40.942357500455145 -6.7947130942336322 #
straight-curve $-1 -61.74016541032136 -40.942357500455145 0 0 0 -1 I I #
straight-curve $-1 61.74016541032136 -40.942357500455145 0 0 0 -1 I I #
point $-1 61.74016541032136 -40.942357500455145 -13.195341849530216 #
straight-curve $-1 0 40.942357500455145 -13.195341849530216 1 0 0 I I #
face $-1 $651 $635 $18 $-1 $677 reversed single #
loop $-1 $-1 $678 $557 #
plane-surface $-1 0 -40.942357500455145 0 0 1 0 0 0 1 forward_v I I I I #
coedge $-1 $679 $680 $574 $644 forward $558 $-1 #
coedge $-1 $681 $560 $682 $683 reversed $491 $-1 #
coedge $-1 $560 $681 $628 $684 reversed $491 $-1 #
coedge $-1 $629 $645 $560 $627 reversed $581 $-1 #
edge $-1 $685 -3.2003143776482919 $686 3.2003143776482919 $626 $687 forward 7 unknown #
coedge $-1 $562 $561 $625 $684 forward $419 $-1 #
coedge $-1 $580 $626 $561 $630 reversed $581 $-1 #
edge $-1 $636 -7.1305707270937262 $685 7.1305707270937262 $629 $688 forward 7 unknown #
coedge $-1 $689 $678 $562 $632 reversed $621 $-1 #
edge $-1 $690 -7.1305707270937262 $637 7.1305707270937262 $631 $691 forward 7 unknown #
coedge $-1 $578 $563 $678 $692 reversed $635 $-1 #
coedge $-1 $563 $578 $580 $650 forward $635 $-1 #
loop $-1 $-1 $563 $620 #
vertex $-1 $650 $693 #
vertex $-1 $632 $694 #
straight-curve $-1 -61.74016541032136 0 -6.7947130942336322 0 -1 0 I I #
coedge $-1 $678 $695 $565 $640 reversed $621 $-1 #
edge $-1 $648 -61.74016541032136 $642 61.74016541032136 $639 $696 forward 7 unknown #
coedge $-1 $574 $566 $695 $697 forward $432 $-1 #
vertex $-1 $567 $698 #
point $-1 61.740165410321353 -6.6270272062107267 2.4316109669508563 #
edge $-1 $646 -40.942357500455145 $699 40.942357500455145 $574 $700 forward 7 unknown #
coedge $-1 $626 $575 $680 $701 reversed $581 $-1 #
vertex $-1 $644 $702 #
straight-curve $-1 61.74016541032136 40.942357500455145 0 0 0 -1 I I #
vertex $-1 $579 $703 #
straight-curve $-1 -61.74016541032136 0 13.195341849530216 0 -1 0 I I #
edge $-1 $582 -13.195341849530216 $636 6.7947130942336322 $580 $704 forward 7 unknown #
face $-1 $505 $581 $18 $-1 $705 reversed single #
point $-1 -61.74016541032136 40.942357500455145 13.195341849530216 #
face $-1 $706 $707 $19 $-1 $708 reversed single #
loop $-1 $-1 $709 $585 #
plane-surface $-1 -76.00130686450882 0 -9.9950274718819241 1 0 0 0 0 -1 forward_v I I I I #
coedge $-1 $710 $711 $712 $713 reversed $586 $-1 #
coedge $-1 $588 $714 $715 $716 forward $512 $-1 #
coedge $-1 $715 $595 $589 $659 forward $597 $-1 #
edge $-1 $671 -85.619659644333197 $660 -74.85592876175383 $658 $717 forward 7 unknown #
vertex $-1 $659 $718 #
straight-curve $-1 39.996859015820235 -6.6270272062107267 13.195341849530223 -1 0 0 I I #
edge $-1 $593 -5.212635197760779 $671 6.1555632033940775 $595 $719 forward 7 unknown #
point $-1 61.740165410321353 4.7411711949441298 2.4316109669508563 #
coedge $-1 $596 $720 $721 $722 reversed $597 $-1 #
face $-1 $-1 $597 $19 $-1 $723 reversed single #
coedge $-1 $714 $599 $724 $725 forward $512 $-1 #
coedge $-1 $721 $726 $599 $668 reversed $727 $-1 #
edge $-1 $669 -61.74016541032136 $728 61.74016541032136 $667 $729 forward 7 unknown #
vertex $-1 $600 $730 #
straight-curve $-1 61.74016541032136 0 13.195341849530216 0 1 0 I I #
vertex $-1 $662 $731 #
straight-curve $-1 -15.968523406827714 -6.6270272062107267 98.39385240541904 -0.62932038083071107 0 0.77714596973225614 I I #
point $-1 53.023868238352662 -6.6270272062107267 13.195341849530223 #
straight-curve $-1 -68.870736137415093 -40.942357500455145 -13.195341849530216 -1 0 0 I I #
straight-curve $-1 -76.00130686450882 -40.942357500455145 -9.9950274718819241 0 0 -1 I I #
point $-1 -76.00130686450882 -40.942357500455145 -13.195341849530216 #
plane-surface $-1 -61.74016541032136 0 0 1 0 0 0 0 -1 forward_v I I I I #
coedge $-1 $631 $639 $633 $692 forward $621 $-1 #
coedge $-1 $682 $623 $732 $733 forward $558 $-1 #
coedge $-1 $623 $682 $645 $701 forward $558 $-1 #
coedge $-1 $625 $624 $689 $734 reversed $491 $-1 #
coedge $-1 $680 $679 $624 $683 forward $558 $-1 #
edge $-1 $735 -40.942357500455145 $686 40.942357500455145 $624 $736 forward 7 unknown #
edge $-1 $685 -40.942357500455145 $690 40.942357500455145 $625 $737 forward 7 unknown #
vertex $-1 $630 $738 #
vertex $-1 $701 $739 #
straight-curve $-1 -76.00130686450882 40.942357500455145 -9.9950274718819241 0 0 -1 I I #
straight-curve $-1 -68.870736137415093 40.942357500455145 -6.7947130942336322 -1 0 0 I I #
coedge $-1 $732 $631 $681 $734 forward $621 $-1 #
vertex $-1 $684 $740 #
straight-curve $-1 -68.870736137415093 -40.942357500455145 -6.7947130942336322 1 0 0 I I #
edge $-1 $648 -13.195341849530216 $637 6.7947130942336322 $633 $741 forward 7 unknown #
point $-1 -61.740165410321367 40.942357500455145 -6.7947130942336322 #
point $-1 -61.740165410321367 -40.942357500455145 -6.7947130942336322 #
coedge $-1 $639 $732 $641 $697 reversed $621 $-1 #
straight-curve $-1 0 -40.942357500455145 13.195341849530216 1 0 0 I I #
edge $-1 $642 -13.195341849530216 $699 13.195341849530216 $641 $742 forward 7 unknown #
point $-1 61.74016541032136 -40.942357500455145 13.195341849530216 #
vertex $-1 $697 $743 #
straight-curve $-1 61.74016541032136 0 -13.195341849530216 0 -1 0 I I #
edge $-1 $686 -76.00130686450882 $646 61.74016541032136 $645 $744 forward 7 unknown #
point $-1 61.74016541032136 40.942357500455145 -13.195341849530216 #
point $-1 -61.74016541032136 -40.942357500455145 13.195341849530216 #
straight-curve $-1 -61.74016541032136 40.942357500455145 0 0 0 -1 I I #
plane-surface $-1 0 40.942357500455145 0 0 -1 0 0 0 -1 forward_v I I I I #
face $-1 $745 $746 $19 $-1 $747 reversed single #
loop $-1 $-1 $748 $653 #
plane-surface $-1 0 0 -13.195341849530216 0 0 1 1 0 0 forward_v I I I I #
coedge $-1 $749 $750 $751 $752 forward $654 $-1 #
coedge $-1 $753 $656 $754 $755 forward $586 $-1 #
coedge $-1 $656 $753 $756 $757 forward $586 $-1 #
coedge $-1 $758 $759 $656 $713 forward $760 $-1 #
edge $-1 $761 -40.942357500455145 $762 40.942357500455145 $712 $763 forward 7 unknown #
coedge $-1 $657 $666 $764 $765 forward $512 $-1 #
coedge $-1 $766 $658 $657 $716 reversed $597 $-1 #
edge $-1 $767 -40.942357500455145 $660 -6.6270272062107267 $715 $670 forward 7 unknown #
straight-curve $-1 61.74016541032136 -6.6270272062107267 88.051270611284053 0 0 1 I I #
point $-1 61.74016541032136 -6.6270272062107267 13.195341849530216 #
straight-curve $-1 61.740165410321353 -0.47146400281664924 2.4316109669508634 0 -1 0 I I #
coedge $-1 $664 $766 $748 $768 reversed $597 $-1 #
coedge $-1 $769 $667 $664 $722 forward $727 $-1 #
edge $-1 $669 -13.195341849530216 $770 13.195341849530216 $664 $771 forward 7 unknown #
plane-surface $-1 61.74016541032136 0 0 -1 0 0 0 0 1 forward_v I I I I #
coedge $-1 $759 $758 $666 $725 reversed $760 $-1 #
edge $-1 $728 -40.942357500455145 $772 40.942357500455145 $724 $773 forward 7 unknown #
coedge $-1 $667 $754 $759 $774 reversed $727 $-1 #
loop $-1 $-1 $721 $775 #
vertex $-1 $668 $776 #
straight-curve $-1 0 40.942357500455145 13.195341849530216 -1 0 0 I I #
point $-1 61.74016541032136 40.942357500455145 13.195341849530216 #
point $-1 61.740165410321353 -6.6270272062107267 2.4316109669508563 #
coedge $-1 $695 $689 $679 $733 reversed $621 $-1 #
edge $-1 $699 -130.61090154773646 $735 7.1305707270937262 $732 $777 forward 7 unknown #
edge $-1 $690 -3.2003143776482919 $735 3.2003143776482919 $681 $778 forward 7 unknown #
vertex $-1 $683 $779 #
straight-curve $-1 -76.00130686450882 0 -13.195341849530216 0 1 0 I I #
straight-curve $-1 -76.00130686450882 0 -6.7947130942336322 0 -1 0 I I #
point $-1 -76.00130686450882 40.942357500455145 -6.7947130942336322 #
point $-1 -76.00130686450882 40.942357500455145 -13.195341849530216 #
point $-1 -76.00130686450882 -40.942357500455145 -6.7947130942336322 #
straight-curve $-1 -61.74016541032136 -40.942357500455145 0 0 0 -1 I I #
straight-curve $-1 61.74016541032136 -40.942357500455145 0 0 0 -1 I I #
point $-1 61.74016541032136 -40.942357500455145 -13.195341849530216 #
straight-curve $-1 0 40.942357500455145 -13.195341849530216 1 0 0 I I #
face $-1 $775 $760 $19 $-1 $780 reversed single #
loop $-1 $-1 $781 $706 #
plane-surface $-1 0 -40.942357500455145 0 0 1 0 0 0 1 forward_v I I I I #
coedge $-1 $782 $783 $720 $768 forward $707 $-1 #
coedge $-1 $784 $709 $785 $786 reversed $654 $-1 #
coedge $-1 $709 $784 $753 $787 reversed $654 $-1 #
coedge $-1 $754 $769 $709 $752 reversed $727 $-1 #
edge $-1 $788 -3.2003143776482919 $789 3.2003143776482919 $751 $790 forward 7 unknown #
coedge $-1 $711 $710 $750 $787 forward $586 $-1 #
coedge $-1 $726 $751 $710 $755 reversed $727 $-1 #
edge $-1 $761 -7.1305707270937262 $788 7.1305707270937262 $754 $791 forward 7 unknown #
coedge $-1 $792 $781 $711 $757 reversed $746 $-1 #
edge $-1 $793 -7.1305707270937262 $762 7.1305707270937262 $756 $794 forward 7 unknown #
coedge $-1 $724 $712 $781 $795 reversed $760 $-1 #
coedge $-1 $712 $724 $726 $774 forward $760 $-1 #
loop $-1 $-1 $712 $745 #
vertex $-1 $774 $796 #
vertex $-1 $757 $797 #
straight-curve $-1 -61.74016541032136 0 -6.7947130942336322 0 -1 0 I I #
coedge $-1 $781 $798 $714 $765 reversed $746 $-1 #
edge $-1 $772 -61.74016541032136 $767 61.74016541032136 $764 $799 forward 7 unknown #
coedge $-1 $720 $715 $798 $800 forward $597 $-1 #
vertex $-1 $716 $801 #
edge $-1 $770 -40.942357500455145 $802 40.942357500455145 $720 $803 forward 7 unknown #
coedge $-1 $751 $721 $783 $804 reversed $727 $-1 #
vertex $-1 $768 $805 #
straight-curve $-1 61.74016541032136 40.942357500455145 0 0 0 -1 I I #
vertex $-1 $725 $806 #
straight-curve $-1 -61.74016541032136 0 13.195341849530216 0 -1 0 I I #
edge $-1 $728 -13.195341849530216 $761 6.7947130942336322 $726 $807 forward 7 unknown #
face $-1 $665 $727 $19 $-1 $808 reversed single #
point $-1 -61.74016541032136 40.942357500455145 13.195341849530216 #
straight-curve $-1 -68.870736137415093 -40.942357500455145 -13.195341849530216 -1 0 0 I I #
straight-curve $-1 -76.00130686450882 -40.942357500455145 -9.9950274718819241 0 0 -1 I I #
point $-1 -76.00130686450882 -40.942357500455145 -13.195341849530216 #
plane-surface $-1 -61.74016541032136 0 0 1 0 0 0 0 -1 forward_v I I I I #
coedge $-1 $756 $764 $758 $795 forward $746 $-1 #
coedge $-1 $785 $748 $809 $810 forward $707 $-1 #
coedge $-1 $748 $785 $769 $804 forward $707 $-1 #
coedge $-1 $750 $749 $792 $811 reversed $654 $-1 #
coedge $-1 $783 $782 $749 $786 forward $707 $-1 #
edge $-1 $812 -40.942357500455145 $789 40.942357500455145 $749 $813 forward 7 unknown #
edge $-1 $788 -40.942357500455145 $793 40.942357500455145 $750 $814 forward 7 unknown #
vertex $-1 $755 $815 #
vertex $-1 $804 $816 #
straight-curve $-1 -76.00130686450882 40.942357500455145 -9.9950274718819241 0 0 -1 I I #
straight-curve $-1 -68.870736137415093 40.942357500455145 -6.7947130942336322 -1 0 0 I I #
coedge $-1 $809 $756 $784 $811 forward $746 $-1 #
vertex $-1 $787 $817 #
straight-curve $-1 -68.870736137415093 -40.942357500455145 -6.7947130942336322 1 0 0 I I #
edge $-1 $772 -13.195341849530216 $762 6.7947130942336322 $758 $818 forward 7 unknown #
point $-1 -61.740165410321367 40.942357500455145 -6.7947130942336322 #
point $-1 -61.740165410321367 -40.942357500455145 -6.7947130942336322 #
coedge $-1 $764 $809 $766 $800 reversed $746 $-1 #
straight-curve $-1 0 -40.942357500455145 13.195341849530216 1 0 0 I I #
edge $-1 $767 -13.195341849530216 $802 13.195341849530216 $766 $819 forward 7 unknown #
point $-1 61.74016541032136 -40.942357500455145 13.195341849530216 #
vertex $-1 $800 $820 #
straight-curve $-1 61.74016541032136 0 -13.195341849530216 0 -1 0 I I #
edge $-1 $789 -76.00130686450882 $770 61.74016541032136 $769 $821 forward 7 unknown #
point $-1 61.74016541032136 40.942357500455145 -13.195341849530216 #
point $-1 -61.74016541032136 -40.942357500455145 13.195341849530216 #
straight-curve $-1 -61.74016541032136 40.942357500455145 0 0 0 -1 I I #
plane-surface $-1 0 40.942357500455145 0 0 -1 0 0 0 -1 forward_v I I I I #
coedge $-1 $798 $792 $782 $810 reversed $746 $-1 #
edge $-1 $802 -130.61090154773646 $812 7.1305707270937262 $809 $822 forward 7 unknown #
edge $-1 $793 -3.2003143776482919 $812 3.2003143776482919 $784 $823 forward 7 unknown #
vertex $-1 $786 $824 #
straight-curve $-1 -76.00130686450882 0 -13.195341849530216 0 1 0 I I #
straight-curve $-1 -76.00130686450882 0 -6.7947130942336322 0 -1 0 I I #
point $-1 -76.00130686450882 40.942357500455145 -6.7947130942336322 #
point $-1 -76.00130686450882 40.942357500455145 -13.195341849530216 #
point $-1 -76.00130686450882 -40.942357500455145 -6.7947130942336322 #
straight-curve $-1 -61.74016541032136 -40.942357500455145 0 0 0 -1 I I #
straight-curve $-1 61.74016541032136 -40.942357500455145 0 0 0 -1 I I #
point $-1 61.74016541032136 -40.942357500455145 -13.195341849530216 #
straight-curve $-1 0 40.942357500455145 -13.195341849530216 1 0 0 I I #
straight-curve $-1 -68.870736137415093 -40.942357500455145 -13.195341849530216 -1 0 0 I I #
straight-curve $-1 -76.00130686450882 -40.942357500455145 -9.9950274718819241 0 0 -1 I I #
point $-1 -76.00130686450882 -40.942357500455145 -13.195341849530216 #
End-of-ACIS-data 