500 0 7 0           
7 Unknown 11 ACIS 5.0 NT 24 Fri Mar 26 17:50:19 1999 
-1 9.9999999999999995e-007 1e-010 
body $-1 $7 $-1 $8 #
body $-1 $9 $-1 $10 #
body $-1 $11 $-1 $12 #
body $-1 $13 $-1 $14 #
body $-1 $15 $-1 $16 #
body $-1 $17 $-1 $18 #
body $-1 $19 $-1 $20 #
lump $-1 $-1 $21 $0 #
transform $-1 1 0 0 0 1 0 0 0 1 67.372661519211405 28.977831511002105 12.964986214811981 1 rotate no_reflect no_shear #
lump $-1 $-1 $22 $1 #
transform $-1 1 0 0 0 1 0 0 0 1 67.372661519211405 28.977831511002105 12.964986214811981 1 rotate no_reflect no_shear #
lump $-1 $-1 $23 $2 #
transform $-1 1 0 0 0 1 0 0 0 1 67.372661519211405 28.977831511002105 12.964986214811981 1 rotate no_reflect no_shear #
lump $-1 $-1 $24 $3 #
transform $-1 1 0 0 0 1 0 0 0 1 67.372661519211405 28.977831511002105 12.964986214811981 1 rotate no_reflect no_shear #
lump $-1 $-1 $25 $4 #
transform $-1 1 0 0 0 1 0 0 0 1 67.372661519211405 28.977831511002105 12.964986214811981 1 rotate no_reflect no_shear #
lump $-1 $-1 $26 $5 #
transform $-1 1 0 0 0 1 0 0 0 1 67.372661519211405 28.977831511002105 12.964986214811981 1 rotate no_reflect no_shear #
lump $-1 $-1 $27 $6 #
transform $-1 1 0 0 0 1 0 0 0 1 67.372661519211405 28.977831511002105 12.964986214811981 1 rotate no_reflect no_shear #
shell $-1 $-1 $-1 $28 $-1 $7 #
shell $-1 $-1 $-1 $29 $-1 $9 #
shell $-1 $-1 $-1 $30 $-1 $11 #
shell $-1 $-1 $-1 $31 $-1 $13 #
shell $-1 $-1 $-1 $32 $-1 $15 #
shell $-1 $-1 $-1 $33 $-1 $17 #
shell $-1 $-1 $-1 $34 $-1 $19 #
face $-1 $35 $36 $21 $-1 $37 forward single #
face $-1 $38 $39 $22 $-1 $40 reversed single #
face $-1 $41 $42 $23 $-1 $43 reversed single #
face $-1 $44 $45 $24 $-1 $46 forward single #
face $-1 $47 $48 $25 $-1 $49 reversed single #
face $-1 $50 $51 $26 $-1 $52 forward single #
face $-1 $53 $54 $27 $-1 $55 forward single #
face $-1 $56 $57 $21 $-1 $58 reversed single #
loop $-1 $-1 $59 $28 #
plane-surface $-1 0 0 12.964986214811981 0 0 1 1 0 0 forward_v I I I I #
face $-1 $60 $61 $22 $-1 $62 reversed single #
loop $-1 $-1 $63 $29 #
plane-surface $-1 -58.824257783007802 0 9.6939653389963532 0 0 1 1 0 0 forward_v I I I I #
face $-1 $64 $65 $23 $-1 $66 reversed single #
loop $-1 $-1 $67 $30 #
plane-surface $-1 24.075239428787441 87.998656780942895 139.75992417436791 1 0 0 0 -0.73135370988377701 -0.68199835119979291 forward_v I I I I #
face $-1 $68 $69 $24 $-1 $70 forward single #
loop $-1 $71 $72 $31 #
cone-surface $-1 41.182152934450443 24.294569356158465 8.1095470923971753 0 -0.73135370988377701 -0.68199835119979291 1.5 0 0 1 I I 0 1 1.5 forward I I I I #
face $-1 $73 $74 $25 $-1 $75 reversed single #
loop $-1 $-1 $76 $32 #
plane-surface $-1 -37.269422343020153 -140.68676812385965 76.659369034053512 -1 0 0 0 -0.82903758062907751 0.55919289150049634 forward_v I I I I #
face $-1 $77 $78 $26 $-1 $79 forward single #
loop $-1 $80 $81 $33 #
cone-surface $-1 -46.559730702865906 -23.766816499037319 6.2741077159743499 0 0.82903758062907751 -0.55919289150049634 1 0 0 1 I I 0 1 1 forward I I I I #
face $-1 $82 $83 $27 $-1 $84 forward single #
loop $-1 $85 $86 $34 #
cone-surface $-1 -40.98554568695846 -23.766816499037319 6.2741077159743499 0 0.82903758062907751 -0.55919289150049634 1 0 0 1 I I 0 1 1 forward I I I I #
face $-1 $87 $88 $21 $-1 $89 reversed single #
loop $-1 $-1 $90 $35 #
plane-surface $-1 0 0 -12.964986214811981 0 0 1 1 0 0 forward_v I I I I #
coedge $-1 $91 $92 $93 $94 forward $36 $-1 #
face $-1 $95 $96 $22 $-1 $97 reversed single #
loop $-1 $-1 $98 $38 #
plane-surface $-1 -50.275854046804199 0 11.329475776904166 -1 0 0 0 0 1 forward_v I I I I #
coedge $-1 $99 $100 $101 $102 forward $39 $-1 #
face $-1 $103 $104 $23 $-1 $105 reversed single #
loop $-1 $-1 $106 $41 #
plane-surface $-1 41.182152934450443 -10.547835112695594 47.863836030280083 0 0.73135370988377701 0.68199835119979291 1 0 0 forward_v I I I I #
coedge $-1 $107 $108 $109 $110 reversed $42 $-1 #
face $-1 $-1 $111 $24 $-1 $112 forward single #
loop $-1 $113 $114 $44 #
cone-surface $-1 41.182152934450443 22.55377365519735 6.4862288788068785 0 -0.73135370988377701 -0.68199835119979291 0.75 0 0 1 I I -0.70710678118654757 0.70710678118654757 0.75 forward I I I I #
loop $-1 $-1 $115 $31 #
coedge $-1 $72 $72 $116 $117 reversed $45 $-1 #
face $-1 $118 $119 $25 $-1 $120 forward single #
loop $-1 $-1 $121 $47 #
plane-surface $-1 -43.772638194912176 -28.977831511002108 1.3107422280294116 0 -0.82903758062907751 0.55919289150049634 1 0 0 forward_v I I I I #
coedge $-1 $122 $123 $124 $125 reversed $48 $-1 #
face $-1 $-1 $126 $26 $-1 $127 forward single #
loop $-1 $128 $129 $50 #
cone-surface $-1 -46.559730702865906 -22.07172598756522 5.1307547647777572 0 0.82903758062907751 -0.55919289150049634 0.5 0 0 1 I I -0.70710678118654746 0.70710678118654746 0.5 forward I I I I #
loop $-1 $-1 $130 $33 #
coedge $-1 $81 $81 $131 $132 reversed $51 $-1 #
face $-1 $-1 $133 $27 $-1 $134 forward single #
loop $-1 $135 $136 $53 #
cone-surface $-1 -40.98554568695846 -22.07172598756522 5.1307547647777572 0 0.82903758062907751 -0.55919289150049634 0.5 0 0 1 I I -0.70710678118654746 0.70710678118654746 0.5 forward I I I I #
loop $-1 $-1 $137 $34 #
coedge $-1 $86 $86 $138 $139 reversed $54 $-1 #
face $-1 $140 $141 $21 $-1 $142 reversed single #
loop $-1 $-1 $143 $56 #
plane-surface $-1 0 -28.977831511002105 0 0 1 0 0 0 1 forward_v I I I I #
coedge $-1 $144 $145 $146 $147 forward $57 $-1 #
coedge $-1 $148 $59 $149 $150 forward $36 $-1 #
coedge $-1 $59 $148 $151 $152 forward $36 $-1 #
coedge $-1 $153 $154 $59 $94 reversed $155 $-1 #
edge $-1 $156 -28.977831511002105 $157 28.977831511002105 $93 $158 forward 7 unknown #
face $-1 $159 $160 $22 $-1 $161 reversed single #
loop $-1 $-1 $162 $60 #
plane-surface $-1 0 28.977831511002105 0 0 -1 0 0 0 -1 forward_v I I I I #
coedge $-1 $101 $163 $164 $165 reversed $61 $-1 #
coedge $-1 $166 $63 $167 $168 reversed $39 $-1 #
coedge $-1 $63 $166 $169 $170 reversed $39 $-1 #
coedge $-1 $171 $98 $63 $102 reversed $61 $-1 #
edge $-1 $172 -28.977831511002105 $173 28.977831511002105 $101 $174 forward 7 unknown #
face $-1 $175 $176 $23 $-1 $177 forward single #
loop $-1 $-1 $178 $64 #
plane-surface $-1 58.289066440113444 87.998656780942895 139.75992417436791 -1 0 0 0 0.73135370988377701 0.68199835119979291 forward_v I I I I #
coedge $-1 $179 $180 $181 $182 reversed $65 $-1 #
coedge $-1 $108 $67 $183 $184 reversed $42 $-1 #
coedge $-1 $67 $107 $179 $185 reversed $42 $-1 #
coedge $-1 $181 $186 $67 $110 forward $176 $-1 #
edge $-1 $187 15.021496879469343 $188 22.003460352060074 $109 $189 forward 7 unknown #
loop $-1 $-1 $116 $68 #
plane-surface $-1 41.182152934450443 -10.547835112695594 47.863836030280083 0 0.73135370988377701 0.68199835119979291 1 0 0 forward_v I I I I #
loop $-1 $-1 $190 $44 #
coedge $-1 $114 $114 $115 $191 reversed $69 $-1 #
coedge $-1 $115 $115 $114 $191 forward $71 $-1 #
coedge $-1 $116 $116 $72 $117 forward $111 $-1 #
edge $-1 $192 -3.5069091583739076e-016 $192 6.2831853071796004 $116 $193 forward 7 unknown #
face $-1 $194 $195 $25 $-1 $196 forward single #
loop $-1 $-1 $197 $73 #
plane-surface $-1 -50.275854046804199 0 11.329475776904166 -1 0 0 0 0 1 forward_v I I I I #
coedge $-1 $198 $199 $200 $201 reversed $74 $-1 #
coedge $-1 $123 $76 $202 $203 reversed $48 $-1 #
coedge $-1 $76 $122 $198 $204 reversed $48 $-1 #
coedge $-1 $200 $205 $76 $125 forward $195 $-1 #
edge $-1 $206 41.365552550927717 $207 49.226439132542161 $124 $208 forward 7 unknown #
loop $-1 $-1 $131 $77 #
plane-surface $-1 -43.772638194912176 -28.977831511002108 1.3107422280294116 0 -0.82903758062907751 0.55919289150049634 1 0 0 forward_v I I I I #
loop $-1 $-1 $209 $50 #
coedge $-1 $129 $129 $130 $210 reversed $78 $-1 #
coedge $-1 $130 $130 $129 $210 forward $80 $-1 #
coedge $-1 $131 $131 $81 $132 forward $126 $-1 #
edge $-1 $211 -2.2234762998362979e-016 $211 6.2831853071796004 $131 $212 forward 7 unknown #
loop $-1 $-1 $138 $82 #
plane-surface $-1 -43.772638194912176 -28.977831511002108 1.3107422280294116 0 -0.82903758062907751 0.55919289150049634 1 0 0 forward_v I I I I #
loop $-1 $-1 $213 $53 #
coedge $-1 $136 $136 $137 $214 reversed $83 $-1 #
coedge $-1 $137 $137 $136 $214 forward $85 $-1 #
coedge $-1 $138 $138 $86 $139 forward $133 $-1 #
edge $-1 $215 -2.2234762998362979e-016 $215 6.2831853071796004 $138 $216 forward 7 unknown #
face $-1 $217 $218 $21 $-1 $219 reversed single #
loop $-1 $-1 $220 $87 #
plane-surface $-1 -67.372661519211405 0 0 1 0 0 0 0 -1 forward_v I I I I #
coedge $-1 $221 $151 $222 $223 forward $88 $-1 #
coedge $-1 $224 $90 $221 $225 forward $57 $-1 #
coedge $-1 $90 $224 $226 $227 forward $57 $-1 #
coedge $-1 $154 $153 $90 $147 reversed $155 $-1 #
edge $-1 $228 -28.977831511002105 $229 28.977831511002105 $146 $230 forward 7 unknown #
coedge $-1 $92 $91 $231 $232 forward $36 $-1 #
coedge $-1 $233 $234 $91 $150 reversed $218 $-1 #
edge $-1 $157 -67.372661519211405 $235 67.372661519211405 $149 $236 forward 7 unknown #
coedge $-1 $143 $237 $92 $152 reversed $88 $-1 #
edge $-1 $238 -67.372661519211405 $156 67.372661519211405 $151 $239 forward 7 unknown #
coedge $-1 $146 $93 $237 $240 forward $155 $-1 #
coedge $-1 $93 $146 $233 $241 reversed $155 $-1 #
loop $-1 $-1 $153 $217 #
vertex $-1 $94 $242 #
vertex $-1 $94 $243 #
straight-curve $-1 67.372661519211405 0 12.964986214811981 0 1 0 I I #
face $-1 $244 $245 $22 $-1 $246 forward single #
loop $-1 $-1 $247 $95 #
plane-surface $-1 -67.372661519211405 0 0 1 0 0 0 0 -1 forward_v I I I I #
coedge $-1 $169 $248 $171 $249 forward $96 $-1 #
coedge $-1 $98 $171 $250 $251 reversed $61 $-1 #
coedge $-1 $252 $167 $98 $165 forward $253 $-1 #
edge $-1 $173 4.02922745054427 $254 7.3002483263598963 $164 $255 forward 7 unknown #
coedge $-1 $100 $99 $247 $256 reversed $39 $-1 #
coedge $-1 $164 $257 $99 $168 forward $253 $-1 #
edge $-1 $258 -37.960532627707508 $173 -20.863725155300298 $167 $259 forward 7 unknown #
coedge $-1 $260 $162 $100 $170 forward $96 $-1 #
edge $-1 $172 20.863725155300298 $261 37.960532627707508 $169 $262 forward 7 unknown #
coedge $-1 $163 $101 $162 $249 reversed $61 $-1 #
vertex $-1 $170 $263 #
vertex $-1 $168 $264 #
straight-curve $-1 -50.275854046804199 0 9.6939653389963532 0 -1 0 I I #
face $-1 $-1 $265 $23 $-1 $266 reversed single #
loop $-1 $-1 $109 $103 #
plane-surface $-1 0 0 12.964986214811981 0 0 1 1 0 0 forward_v I I I I #
coedge $-1 $267 $268 $269 $270 reversed $104 $-1 #
coedge $-1 $271 $106 $108 $185 forward $65 $-1 #
coedge $-1 $106 $271 $267 $272 forward $65 $-1 #
coedge $-1 $269 $109 $106 $182 forward $176 $-1 #
edge $-1 $188 3.4841629615622196 $273 37.697989972888223 $181 $274 forward 7 unknown #
coedge $-1 $275 $276 $107 $184 forward $265 $-1 #
edge $-1 $277 -64.402215216820707 $187 -56.914975872371976 $183 $278 forward 7 unknown #
edge $-1 $188 47.718155174209826 $277 57.955663022004245 $108 $279 forward 7 unknown #
coedge $-1 $109 $269 $275 $280 forward $176 $-1 #
vertex $-1 $184 $281 #
vertex $-1 $110 $282 #
straight-curve $-1 24.075239428787441 43.999328390471447 12.964986214811979 0 -1 0 I I #
coedge $-1 $190 $190 $-1 $283 reversed $113 $-1 #
edge $-1 $284 0 $284 6.2831853071796004 $114 $285 forward 7 unknown #
vertex $-1 $117 $286 #
ellipse-curve $-1 41.182152934450443 25.486849774706737 9.2213665425876155 0 0.73135370988377701 0.68199835119979291 1.5 0 0 1 I I #
face $-1 $-1 $287 $25 $-1 $288 reversed single #
loop $-1 $-1 $200 $118 #
plane-surface $-1 0 0 12.964986214811981 0 0 1 1 0 0 forward_v I I I I #
coedge $-1 $289 $290 $199 $291 reversed $119 $-1 #
coedge $-1 $292 $121 $123 $204 forward $74 $-1 #
coedge $-1 $121 $292 $197 $291 forward $74 $-1 #
coedge $-1 $293 $124 $121 $201 forward $195 $-1 #
edge $-1 $207 15.383103245564065 $294 28.389534949348111 $200 $295 forward 7 unknown #
coedge $-1 $296 $297 $122 $203 forward $287 $-1 #
edge $-1 $298 -37.018942288997337 $206 -25.364698302214777 $202 $299 forward 7 unknown #
edge $-1 $207 -14.057558136193631 $298 -6.404651964132713e-015 $123 $300 forward 7 unknown #
coedge $-1 $124 $293 $296 $301 forward $195 $-1 #
vertex $-1 $203 $302 #
vertex $-1 $125 $303 #
straight-curve $-1 -37.269422343020153 -70.343384061929825 12.964986214811979 0 1 0 I I #
coedge $-1 $209 $209 $-1 $304 reversed $128 $-1 #
edge $-1 $305 0 $305 6.2831853071796004 $129 $306 forward 7 unknown #
vertex $-1 $132 $307 #
ellipse-curve $-1 -46.559730702865906 -25.047388220194886 7.1378642214206982 0 -0.82903758062907751 0.55919289150049634 1 0 0 1 I I #
coedge $-1 $213 $213 $-1 $308 reversed $135 $-1 #
edge $-1 $309 0 $309 6.2831853071796004 $136 $310 forward 7 unknown #
vertex $-1 $139 $311 #
ellipse-curve $-1 -40.98554568695846 -25.047388220194886 7.1378642214206982 0 -0.82903758062907751 0.55919289150049634 1 0 0 1 I I #
face $-1 $-1 $155 $21 $-1 $312 reversed single #
loop $-1 $-1 $233 $140 #
plane-surface $-1 0 28.977831511002105 0 0 -1 0 0 0 -1 forward_v I I I I #
coedge $-1 $313 $231 $234 $314 forward $141 $-1 #
coedge $-1 $237 $143 $144 $225 reversed $88 $-1 #
coedge $-1 $231 $313 $143 $223 reversed $141 $-1 #
edge $-1 $238 -12.964986214811981 $315 12.964986214811981 $222 $316 forward 7 unknown #
coedge $-1 $145 $144 $313 $317 forward $57 $-1 #
edge $-1 $229 -67.372661519211405 $315 67.372661519211405 $221 $318 forward 7 unknown #
coedge $-1 $234 $233 $145 $227 reversed $218 $-1 #
edge $-1 $319 -67.372661519211405 $228 67.372661519211405 $226 $320 forward 7 unknown #
vertex $-1 $147 $321 #
vertex $-1 $240 $322 #
straight-curve $-1 67.372661519211405 0 -12.964986214811981 0 -1 0 I I #
coedge $-1 $220 $222 $148 $232 reversed $141 $-1 #
edge $-1 $235 -28.977831511002105 $238 28.977831511002105 $231 $323 forward 7 unknown #
coedge $-1 $226 $149 $154 $241 forward $218 $-1 #
coedge $-1 $149 $226 $220 $314 reversed $218 $-1 #
vertex $-1 $150 $324 #
straight-curve $-1 0 28.977831511002105 12.964986214811981 -1 0 0 I I #
coedge $-1 $151 $221 $153 $240 reversed $88 $-1 #
vertex $-1 $232 $325 #
straight-curve $-1 0 -28.977831511002105 12.964986214811981 1 0 0 I I #
edge $-1 $156 -12.964986214811981 $229 12.964986214811981 $153 $326 forward 7 unknown #
edge $-1 $157 -12.964986214811981 $228 12.964986214811981 $154 $327 forward 7 unknown #
point $-1 67.372661519211405 -28.977831511002105 12.964986214811981 #
point $-1 67.372661519211405 28.977831511002105 12.964986214811981 #
face $-1 $-1 $253 $22 $-1 $328 reversed single #
loop $-1 $-1 $250 $159 #
plane-surface $-1 0 0 12.964986214811981 0 0 1 1 0 0 forward_v I I I I #
coedge $-1 $329 $330 $166 $256 forward $160 $-1 #
coedge $-1 $162 $260 $331 $332 reversed $96 $-1 #
edge $-1 $333 -7.3002483263598963 $172 -4.02922745054427 $162 $334 forward 7 unknown #
coedge $-1 $331 $335 $163 $251 forward $245 $-1 #
edge $-1 $254 -28.977831511002105 $333 28.977831511002105 $250 $336 forward 7 unknown #
coedge $-1 $257 $164 $335 $337 reversed $253 $-1 #
loop $-1 $-1 $164 $244 #
vertex $-1 $165 $338 #
straight-curve $-1 -50.275854046804199 -28.977831511002105 5.6647378884520831 0 0 1 I I #
edge $-1 $261 -28.977831511002105 $258 28.977831511002105 $247 $339 forward 7 unknown #
coedge $-1 $167 $252 $329 $340 forward $253 $-1 #
vertex $-1 $256 $341 #
straight-curve $-1 -29.412128891503901 -28.977831511002105 9.6939653389963532 1 0 0 I I #
coedge $-1 $248 $169 $330 $342 reversed $96 $-1 #
vertex $-1 $256 $343 #
straight-curve $-1 -29.412128891503901 28.977831511002105 9.6939653389963532 -1 0 0 I I #
point $-1 -50.275854046804199 28.977831511002105 9.6939653389963532 #
point $-1 -50.275854046804199 -28.977831511002105 9.6939653389963532 #
loop $-1 $-1 $183 $175 #
plane-surface $-1 0 28.977831511002105 0 0 -1 0 0 0 -1 forward_v I I I I #
coedge $-1 $268 $178 $180 $272 reversed $104 $-1 #
coedge $-1 $178 $267 $344 $345 reversed $104 $-1 #
coedge $-1 $186 $181 $178 $270 forward $176 $-1 #
edge $-1 $273 -22.003460352060074 $346 -15.021496879469343 $269 $347 forward 7 unknown #
coedge $-1 $180 $179 $276 $348 reversed $65 $-1 #
edge $-1 $349 -57.955663022004245 $273 -47.718155174209826 $267 $350 forward 7 unknown #
vertex $-1 $182 $351 #
straight-curve $-1 20.591076467225221 21.995868038411373 12.964986214811979 1 0 0 I I #
coedge $-1 $344 $183 $186 $280 reversed $265 $-1 #
coedge $-1 $183 $344 $271 $348 forward $265 $-1 #
vertex $-1 $184 $352 #
straight-curve $-1 24.075239428787441 28.977831511002105 69.879962087183955 0 0 1 I I #
straight-curve $-1 24.075239428787441 -10.547835112695594 47.863836030280083 0 0.68199835119979291 -0.73135370988377701 I I #
edge $-1 $346 -58.289066440113444 $187 -24.075239428787441 $275 $353 forward 7 unknown #
point $-1 24.075239428787441 28.977831511002105 12.964986214811981 #
point $-1 24.075239428787441 21.995868038411373 12.964986214811979 #
edge $-1 $354 1 $354 0 $190 $-1 forward 7 unknown #
vertex $-1 $191 $355 #
ellipse-curve $-1 41.182152934450443 23.102288937610183 6.9977276422067227 0 0.73135370988377701 0.68199835119979291 1.5 0 0 1 I I #
point $-1 42.682152934450443 25.486849774706748 9.2213665425876261 #
loop $-1 $-1 $202 $194 #
plane-surface $-1 0 -28.977831511002105 0 0 1 0 0 0 1 forward_v I I I I #
coedge $-1 $290 $197 $356 $357 reversed $119 $-1 #
coedge $-1 $197 $289 $293 $358 reversed $119 $-1 #
edge $-1 $359 6.404651964132713e-015 $294 14.057558136193631 $197 $360 forward 7 unknown #
coedge $-1 $199 $198 $297 $361 reversed $74 $-1 #
coedge $-1 $205 $200 $290 $358 forward $195 $-1 #
vertex $-1 $358 $362 #
straight-curve $-1 -21.886319097456088 -21.116944929387664 12.964986214811981 -1 0 0 I I #
coedge $-1 $356 $202 $205 $301 reversed $287 $-1 #
coedge $-1 $202 $356 $292 $361 forward $287 $-1 #
vertex $-1 $203 $363 #
straight-curve $-1 -37.269422343020153 -28.977831511002108 38.329684517026756 0 0 1 I I #
straight-curve $-1 -37.269422343020153 -28.977831511002108 1.3107422280294116 0 -0.55919289150049634 -0.82903758062907751 I I #
edge $-1 $364 -50.275854046804199 $206 -37.269422343020153 $296 $365 forward 7 unknown #
point $-1 -37.269422343020153 -28.977831511002105 12.964986214811981 #
point $-1 -37.269422343020153 -21.116944929387664 12.964986214811981 #
edge $-1 $366 1 $366 0 $209 $-1 forward 7 unknown #
vertex $-1 $210 $367 #
ellipse-curve $-1 -46.559730702865906 -22.486244777879758 5.4103512105280052 0 -0.82903758062907751 0.55919289150049634 1 0 0 1 I I #
point $-1 -45.559730702865906 -25.047388220194883 7.1378642214206955 #
edge $-1 $368 1 $368 0 $213 $-1 forward 7 unknown #
vertex $-1 $214 $369 #
ellipse-curve $-1 -40.98554568695846 -22.486244777879758 5.4103512105280052 0 -0.82903758062907751 0.55919289150049634 1 0 0 1 I I #
point $-1 -39.98554568695846 -25.047388220194883 7.1378642214206955 #
plane-surface $-1 67.372661519211405 0 0 -1 0 0 0 0 1 forward_v I I I I #
coedge $-1 $222 $220 $224 $317 reversed $141 $-1 #
edge $-1 $235 -12.964986214811981 $319 12.964986214811981 $234 $370 forward 7 unknown #
vertex $-1 $317 $371 #
straight-curve $-1 -67.372661519211405 -28.977831511002105 0 0 0 -1 I I #
edge $-1 $315 -28.977831511002105 $319 28.977831511002105 $313 $372 forward 7 unknown #
straight-curve $-1 0 -28.977831511002105 -12.964986214811981 -1 0 0 I I #
vertex $-1 $227 $373 #
straight-curve $-1 0 28.977831511002105 -12.964986214811981 1 0 0 I I #
point $-1 67.372661519211405 28.977831511002105 -12.964986214811981 #
point $-1 67.372661519211405 -28.977831511002105 -12.964986214811981 #
straight-curve $-1 -67.372661519211405 0 12.964986214811981 0 -1 0 I I #
point $-1 -67.372661519211405 28.977831511002105 12.964986214811981 #
point $-1 -67.372661519211405 -28.977831511002105 12.964986214811981 #
straight-curve $-1 67.372661519211405 -28.977831511002105 0 0 0 -1 I I #
straight-curve $-1 67.372661519211405 28.977831511002105 0 0 0 -1 I I #
plane-surface $-1 0 -28.977831511002105 0 0 1 0 0 0 1 forward_v I I I I #
coedge $-1 $374 $247 $257 $340 reversed $160 $-1 #
coedge $-1 $247 $374 $260 $342 forward $160 $-1 #
coedge $-1 $375 $250 $248 $332 forward $245 $-1 #
edge $-1 $333 50.275854046804199 $376 67.372661519211405 $248 $377 forward 7 unknown #
vertex $-1 $332 $378 #
straight-curve $-1 -50.275854046804199 28.977831511002105 5.6647378884520831 0 0 -1 I I #
coedge $-1 $250 $375 $252 $337 forward $245 $-1 #
straight-curve $-1 -50.275854046804199 0 12.964986214811981 0 1 0 I I #
edge $-1 $379 -67.372661519211405 $254 -50.275854046804199 $252 $380 forward 7 unknown #
point $-1 -50.275854046804199 -28.977831511002105 12.964986214811979 #
straight-curve $-1 -67.372661519211405 0 9.6939653389963532 0 -1 0 I I #
edge $-1 $379 -12.964986214811981 $258 -9.6939653389963532 $329 $381 forward 7 unknown #
point $-1 -67.372661519211405 -28.977831511002105 9.6939653389963532 #
edge $-1 $376 -12.964986214811981 $261 -9.6939653389963532 $260 $382 forward 7 unknown #
point $-1 -67.372661519211405 28.977831511002105 9.6939653389963532 #
coedge $-1 $276 $275 $268 $345 forward $265 $-1 #
edge $-1 $346 56.914975872371976 $349 64.402215216820707 $344 $383 forward 7 unknown #
vertex $-1 $280 $384 #
straight-curve $-1 58.289066440113444 43.999328390471447 12.964986214811979 0 1 0 I I #
edge $-1 $349 -37.697989972888223 $277 -3.4841629615622196 $276 $385 forward 7 unknown #
vertex $-1 $348 $386 #
straight-curve $-1 58.289066440113444 -10.547835112695594 47.863836030280083 0 -0.68199835119979291 0.73135370988377701 I I #
point $-1 58.289066440113444 21.995868038411373 12.964986214811979 #
point $-1 24.075239428787441 28.977831511002108 5.4777468703632479 #
straight-curve $-1 0 28.977831511002105 12.964986214811981 -1 0 0 I I #
vertex $-1 $283 $387 #
point $-1 42.682152934450443 23.102288937610183 6.9977276422067227 #
coedge $-1 $297 $296 $289 $357 forward $287 $-1 #
edge $-1 $364 25.364698302214777 $359 37.018942288997337 $356 $388 forward 7 unknown #
edge $-1 $294 21.116944929387664 $364 28.977831511002105 $293 $389 forward 7 unknown #
vertex $-1 $357 $390 #
straight-curve $-1 -50.275854046804199 -28.977831511002108 1.3107422280294116 0 0.55919289150049634 0.82903758062907751 I I #
edge $-1 $359 -28.389534949348111 $298 -15.383103245564065 $297 $391 forward 7 unknown #
point $-1 -50.275854046804199 -21.116944929387664 12.964986214811981 #
point $-1 -37.269422343020153 -28.977831511002105 1.310742228029417 #
vertex $-1 $301 $392 #
straight-curve $-1 0 -28.977831511002105 12.964986214811981 1 0 0 I I #
vertex $-1 $304 $393 #
point $-1 -45.559730702865906 -22.486244777879758 5.4103512105280052 #
vertex $-1 $308 $394 #
point $-1 -39.98554568695846 -22.486244777879758 5.4103512105280052 #
straight-curve $-1 -67.372661519211405 28.977831511002105 0 0 0 -1 I I #
point $-1 -67.372661519211405 -28.977831511002105 -12.964986214811981 #
straight-curve $-1 -67.372661519211405 0 -12.964986214811981 0 1 0 I I #
point $-1 -67.372661519211405 28.977831511002105 -12.964986214811981 #
coedge $-1 $330 $329 $375 $395 reversed $160 $-1 #
coedge $-1 $335 $331 $374 $395 forward $245 $-1 #
vertex $-1 $332 $396 #
straight-curve $-1 0 28.977831511002105 12.964986214811981 -1 0 0 I I #
point $-1 -50.275854046804199 28.977831511002105 12.964986214811979 #
vertex $-1 $395 $397 #
straight-curve $-1 0 -28.977831511002105 12.964986214811981 1 0 0 I I #
straight-curve $-1 -67.372661519211405 -28.977831511002105 0 0 0 -1 I I #
straight-curve $-1 -67.372661519211405 28.977831511002105 0 0 0 -1 I I #
straight-curve $-1 58.289066440113444 28.977831511002105 69.879962087183955 0 0 -1 I I #
point $-1 58.289066440113444 28.977831511002105 12.964986214811981 #
straight-curve $-1 20.591076467225221 28.977831511002108 5.4777468703632444 -1 0 0 I I #
point $-1 58.289066440113444 28.977831511002108 5.4777468703632479 #
point $-1 41.182152934450443 22.005258372784517 5.9747301154070342 #
straight-curve $-1 -50.275854046804199 -28.977831511002108 38.329684517026756 0 0 -1 I I #
straight-curve $-1 -50.275854046804199 0 12.964986214811981 0 -1 0 I I #
point $-1 -50.275854046804199 -28.977831511002105 1.310742228029417 #
straight-curve $-1 -21.886319097456088 -28.977831511002105 1.3107422280294172 1 0 0 I I #
point $-1 -50.275854046804199 -28.977831511002105 12.964986214811979 #
point $-1 -46.559730702865906 -21.657207197250681 4.8511583190275092 #
point $-1 -40.98554568695846 -21.657207197250681 4.8511583190275092 #
edge $-1 $376 -28.977831511002105 $379 28.977831511002105 $374 $398 forward 7 unknown #
point $-1 -67.372661519211405 28.977831511002105 12.964986214811981 #
point $-1 -67.372661519211405 -28.977831511002105 12.964986214811981 #
straight-curve $-1 -67.372661519211405 0 12.964986214811981 0 -1 0 I I #
End-of-ACIS-data 