500 0 5 0           
7 Unknown 11 ACIS 5.0 NT 24 Fri Mar 26 18:41:14 1999 
-1 9.9999999999999995e-007 1e-010 
body $-1 $5 $-1 $6 #
body $-1 $7 $-1 $8 #
body $-1 $9 $-1 $10 #
body $-1 $11 $-1 $12 #
body $-1 $13 $-1 $14 #
lump $-1 $-1 $15 $0 #
transform $-1 1 0 0 0 1 0 0 0 1 61.271401104770042 32.203995608587014 10.856108740284167 1 rotate no_reflect no_shear #
lump $-1 $-1 $16 $1 #
transform $-1 1 0 0 0 1 0 0 0 1 61.271401104770042 32.203995608587014 10.856108740284167 1 rotate no_reflect no_shear #
lump $-1 $-1 $17 $2 #
transform $-1 1 0 0 0 1 0 0 0 1 61.271401104770042 32.203995608587014 10.856108740284167 1 rotate no_reflect no_shear #
lump $-1 $-1 $18 $3 #
transform $-1 1 0 0 0 1 0 0 0 1 61.271401104770042 32.203995608587014 10.856108740284167 1 rotate no_reflect no_shear #
lump $-1 $-1 $19 $4 #
transform $-1 1 0 0 0 1 0 0 0 1 61.271401104770042 32.203995608587014 10.856108740284167 1 rotate no_reflect no_shear #
shell $-1 $-1 $-1 $20 $-1 $5 #
shell $-1 $-1 $-1 $21 $-1 $7 #
shell $-1 $-1 $-1 $22 $-1 $9 #
shell $-1 $-1 $-1 $23 $-1 $11 #
shell $-1 $-1 $-1 $24 $-1 $13 #
face $-1 $25 $26 $15 $-1 $27 forward single #
face $-1 $28 $29 $16 $-1 $30 reversed single #
face $-1 $31 $32 $17 $-1 $33 reversed single #
face $-1 $34 $35 $18 $-1 $36 forward single #
face $-1 $37 $38 $19 $-1 $39 forward single #
face $-1 $40 $41 $15 $-1 $42 reversed single #
loop $-1 $-1 $43 $20 #
plane-surface $-1 0 0 10.856108740284167 0 0 1 1 0 0 forward_v I I I I #
face $-1 $44 $45 $16 $-1 $46 reversed single #
loop $-1 $-1 $47 $21 #
plane-surface $-1 -52.165961554254054 -27.734132731375723 0 1 0 0 0 0 -1 forward_v I I I I #
face $-1 $48 $49 $17 $-1 $50 reversed single #
loop $-1 $-1 $51 $22 #
plane-surface $-1 -150.89353412027108 23.890932573602008 88.489241760251659 0 1 0 -0.73135370988377701 0 0.68199835119979291 forward_v I I I I #
face $-1 $52 $53 $18 $-1 $54 forward single #
loop $-1 $55 $56 $23 #
cone-surface $-1 -58.135755376963687 26.266093440740583 7.5446815455136766 0.73135370988377701 0 -0.68199835119979291 0.17049958779994823 0 0.18283842747094425 1 I I 0 1 0.25 forward I I I I #
face $-1 $57 $58 $19 $-1 $59 forward single #
loop $-1 $60 $61 $24 #
cone-surface $-1 -58.135755376963687 29.828834741448439 7.5446815455136766 0.73135370988377701 0 -0.68199835119979291 0.17049958779994823 0 0.18283842747094425 1 I I 0 1 0.25 forward I I I I #
face $-1 $62 $63 $15 $-1 $64 reversed single #
loop $-1 $-1 $65 $25 #
plane-surface $-1 0 0 -10.856108740284167 0 0 1 1 0 0 forward_v I I I I #
coedge $-1 $66 $67 $68 $69 forward $26 $-1 #
face $-1 $70 $71 $16 $-1 $72 reversed single #
loop $-1 $-1 $73 $28 #
plane-surface $-1 -50.371872548867145 -23.264269854164432 0 0 -1 0 0 0 -1 forward_v I I I I #
coedge $-1 $74 $75 $76 $77 forward $29 $-1 #
face $-1 $78 $79 $17 $-1 $80 forward single #
loop $-1 $-1 $81 $31 #
plane-surface $-1 -61.271401104770021 28.047464091094511 4.9152527019429755 -0.73135370988377701 0 0.68199835119979291 0.68199835119979291 0 0.73135370988377701 forward_v I I I I #
coedge $-1 $82 $83 $84 $85 reversed $32 $-1 #
face $-1 $-1 $86 $18 $-1 $87 forward single #
loop $-1 $88 $89 $34 #
cone-surface $-1 -57.678659308286328 26.266093440740583 7.1184325760138059 0.73135370988377701 0 -0.68199835119979291 0.085249793899974113 0 0.091419213735472127 1 I I -0.70710678118654746 0.70710678118654746 0.125 forward I I I I #
loop $-1 $-1 $90 $23 #
coedge $-1 $56 $56 $91 $92 reversed $35 $-1 #
face $-1 $-1 $93 $19 $-1 $94 forward single #
loop $-1 $95 $96 $37 #
cone-surface $-1 -57.678659308286328 29.828834741448439 7.1184325760138059 0.73135370988377701 0 -0.68199835119979291 0.085249793899974113 0 0.091419213735472127 1 I I -0.70710678118654746 0.70710678118654746 0.125 forward I I I I #
loop $-1 $-1 $97 $24 #
coedge $-1 $61 $61 $98 $99 reversed $38 $-1 #
face $-1 $100 $101 $15 $-1 $102 reversed single #
loop $-1 $-1 $103 $40 #
plane-surface $-1 0 -32.203995608587014 0 0 1 0 0 0 1 forward_v I I I I #
coedge $-1 $104 $105 $106 $107 forward $41 $-1 #
coedge $-1 $108 $43 $109 $110 forward $26 $-1 #
coedge $-1 $43 $108 $111 $112 forward $26 $-1 #
coedge $-1 $113 $114 $43 $69 reversed $115 $-1 #
edge $-1 $116 -32.203995608587014 $117 32.203995608587014 $68 $118 forward 7 unknown #
face $-1 $119 $120 $16 $-1 $121 forward single #
loop $-1 $-1 $122 $44 #
plane-surface $-1 -48.577783543480237 -27.734132731375723 0 -1 0 0 0 0 1 forward_v I I I I #
coedge $-1 $123 $124 $125 $126 forward $45 $-1 #
coedge $-1 $127 $47 $128 $129 reversed $29 $-1 #
coedge $-1 $47 $127 $130 $131 reversed $29 $-1 #
coedge $-1 $124 $123 $47 $77 reversed $45 $-1 #
edge $-1 $132 -10.856108740284167 $133 10.856108740284167 $76 $134 forward 7 unknown #
face $-1 $135 $136 $17 $-1 $137 reversed single #
loop $-1 $-1 $84 $48 #
plane-surface $-1 0 0 10.856108740284167 0 0 1 1 0 0 forward_v I I I I #
coedge $-1 $138 $139 $140 $141 reversed $49 $-1 #
coedge $-1 $83 $51 $142 $143 reversed $32 $-1 #
coedge $-1 $51 $82 $138 $144 reversed $32 $-1 #
coedge $-1 $140 $145 $51 $85 forward $79 $-1 #
edge $-1 $146 14.1753659553655 $147 19.715303701094456 $84 $148 forward 7 unknown #
loop $-1 $-1 $91 $52 #
plane-surface $-1 -61.271401104770021 28.047464091094511 4.9152527019429755 -0.73135370988377701 0 0.68199835119979291 0.68199835119979291 0 0.73135370988377701 forward_v I I I I #
loop $-1 $-1 $149 $34 #
coedge $-1 $89 $89 $90 $150 reversed $53 $-1 #
coedge $-1 $90 $90 $89 $150 forward $55 $-1 #
coedge $-1 $91 $91 $56 $92 forward $86 $-1 #
edge $-1 $151 0 $151 6.2831853071796004 $91 $152 forward 7 unknown #
loop $-1 $-1 $98 $57 #
plane-surface $-1 -61.271401104770021 28.047464091094511 4.9152527019429755 -0.73135370988377701 0 0.68199835119979291 0.68199835119979291 0 0.73135370988377701 forward_v I I I I #
loop $-1 $-1 $153 $37 #
coedge $-1 $96 $96 $97 $154 reversed $58 $-1 #
coedge $-1 $97 $97 $96 $154 forward $60 $-1 #
coedge $-1 $98 $98 $61 $99 forward $93 $-1 #
edge $-1 $155 0 $155 6.2831853071796004 $98 $156 forward 7 unknown #
face $-1 $157 $158 $15 $-1 $159 reversed single #
loop $-1 $-1 $160 $62 #
plane-surface $-1 -61.271401104770042 0 0 1 0 0 0 0 -1 forward_v I I I I #
coedge $-1 $161 $111 $162 $163 forward $63 $-1 #
coedge $-1 $164 $65 $161 $165 forward $41 $-1 #
coedge $-1 $65 $164 $166 $167 forward $41 $-1 #
coedge $-1 $114 $113 $65 $107 reversed $115 $-1 #
edge $-1 $168 -32.203995608587014 $169 32.203995608587014 $106 $170 forward 7 unknown #
coedge $-1 $67 $66 $171 $172 forward $26 $-1 #
coedge $-1 $173 $174 $66 $110 reversed $158 $-1 #
edge $-1 $117 -61.271401104770042 $175 61.271401104770042 $109 $176 forward 7 unknown #
coedge $-1 $103 $177 $67 $112 reversed $63 $-1 #
edge $-1 $178 -61.271401104770042 $116 61.271401104770042 $111 $179 forward 7 unknown #
coedge $-1 $106 $68 $177 $180 forward $115 $-1 #
coedge $-1 $68 $106 $173 $181 reversed $115 $-1 #
loop $-1 $-1 $113 $157 #
vertex $-1 $69 $182 #
vertex $-1 $69 $183 #
straight-curve $-1 61.271401104770042 0 10.856108740284167 0 1 0 I I #
face $-1 $184 $185 $16 $-1 $186 reversed single #
loop $-1 $-1 $187 $70 #
plane-surface $-1 0 0 10.856108740284167 0 0 1 1 0 0 forward_v I I I I #
coedge $-1 $188 $189 $190 $191 reversed $71 $-1 #
coedge $-1 $76 $73 $192 $193 reversed $45 $-1 #
coedge $-1 $73 $76 $194 $195 reversed $45 $-1 #
coedge $-1 $189 $188 $73 $126 reversed $71 $-1 #
edge $-1 $196 -10.856108740284167 $197 10.856108740284167 $125 $198 forward 7 unknown #
coedge $-1 $75 $74 $199 $200 reversed $29 $-1 #
coedge $-1 $192 $201 $74 $129 forward $185 $-1 #
edge $-1 $202 -18.336929242899153 $133 -9.3972034884765705 $128 $203 forward 7 unknown #
coedge $-1 $204 $194 $75 $131 forward $120 $-1 #
edge $-1 $132 9.3972034884765705 $205 18.336929242899153 $130 $206 forward 7 unknown #
vertex $-1 $131 $207 #
vertex $-1 $129 $208 #
straight-curve $-1 -52.165961554254054 -23.264269854164432 0 0 0 -1 I I #
face $-1 $-1 $209 $17 $-1 $210 reversed single #
loop $-1 $-1 $211 $78 #
plane-surface $-1 0 32.203995608587014 0 0 -1 0 0 0 -1 forward_v I I I I #
coedge $-1 $212 $81 $83 $144 forward $49 $-1 #
coedge $-1 $81 $212 $211 $213 reversed $49 $-1 #
coedge $-1 $214 $84 $81 $141 forward $79 $-1 #
edge $-1 $147 9.8672005280547523 $215 18.180263563039759 $140 $216 forward 7 unknown #
coedge $-1 $217 $218 $82 $143 forward $209 $-1 #
edge $-1 $219 -39.329368178182875 $146 -33.388512139841666 $142 $220 forward 7 unknown #
edge $-1 $147 -8.1230955118628998 $219 3.1426556366807674e-014 $83 $221 forward 7 unknown #
coedge $-1 $84 $214 $217 $222 forward $79 $-1 #
vertex $-1 $143 $223 #
vertex $-1 $85 $224 #
straight-curve $-1 -75.446767060135542 23.890932573602008 10.856108740284171 1 0 0 I I #
coedge $-1 $149 $149 $-1 $225 reversed $88 $-1 #
edge $-1 $226 0 $226 6.2831853071796004 $89 $227 forward 7 unknown #
vertex $-1 $92 $228 #
ellipse-curve $-1 -58.501432231905561 26.266093440740583 7.8856807211135607 -0.73135370988377701 0 0.68199835119979291 0.17049958779994823 0 0.18283842747094425 1 I I #
coedge $-1 $153 $153 $-1 $229 reversed $95 $-1 #
edge $-1 $230 0 $230 6.2831853071796004 $96 $231 forward 7 unknown #
vertex $-1 $99 $232 #
ellipse-curve $-1 -58.501432231905561 29.828834741448439 7.8856807211135607 -0.73135370988377701 0 0.68199835119979291 0.17049958779994823 0 0.18283842747094425 1 I I #
face $-1 $-1 $115 $15 $-1 $233 reversed single #
loop $-1 $-1 $173 $100 #
plane-surface $-1 0 32.203995608587014 0 0 -1 0 0 0 -1 forward_v I I I I #
coedge $-1 $234 $171 $174 $235 forward $101 $-1 #
coedge $-1 $177 $103 $104 $165 reversed $63 $-1 #
coedge $-1 $171 $234 $103 $163 reversed $101 $-1 #
edge $-1 $178 -10.856108740284167 $236 10.856108740284167 $162 $237 forward 7 unknown #
coedge $-1 $105 $104 $234 $238 forward $41 $-1 #
edge $-1 $169 -61.271401104770042 $236 61.271401104770042 $161 $239 forward 7 unknown #
coedge $-1 $174 $173 $105 $167 reversed $158 $-1 #
edge $-1 $240 -61.271401104770042 $168 61.271401104770042 $166 $241 forward 7 unknown #
vertex $-1 $107 $242 #
vertex $-1 $180 $243 #
straight-curve $-1 61.271401104770042 0 -10.856108740284167 0 -1 0 I I #
coedge $-1 $160 $162 $108 $172 reversed $101 $-1 #
edge $-1 $175 -32.203995608587014 $178 32.203995608587014 $171 $244 forward 7 unknown #
coedge $-1 $166 $109 $114 $181 forward $158 $-1 #
coedge $-1 $109 $166 $160 $235 reversed $158 $-1 #
vertex $-1 $110 $245 #
straight-curve $-1 0 32.203995608587014 10.856108740284167 -1 0 0 I I #
coedge $-1 $111 $161 $113 $180 reversed $63 $-1 #
vertex $-1 $172 $246 #
straight-curve $-1 0 -32.203995608587014 10.856108740284167 1 0 0 I I #
edge $-1 $116 -10.856108740284167 $169 10.856108740284167 $113 $247 forward 7 unknown #
edge $-1 $117 -10.856108740284167 $168 10.856108740284167 $114 $248 forward 7 unknown #
point $-1 61.271401104770042 -32.203995608587014 10.856108740284167 #
point $-1 61.271401104770042 32.203995608587014 10.856108740284167 #
face $-1 $-1 $249 $16 $-1 $250 reversed single #
loop $-1 $-1 $251 $119 #
plane-surface $-1 0 0 -10.856108740284167 0 0 1 1 0 0 forward_v I I I I #
coedge $-1 $194 $204 $189 $252 forward $120 $-1 #
coedge $-1 $125 $122 $251 $253 reversed $71 $-1 #
coedge $-1 $122 $125 $187 $252 reversed $71 $-1 #
coedge $-1 $254 $255 $122 $191 forward $249 $-1 #
edge $-1 $256 -10.856108740284167 $257 10.856108740284167 $190 $258 forward 7 unknown #
coedge $-1 $251 $128 $123 $193 forward $185 $-1 #
edge $-1 $133 -26.980025279820481 $197 -23.391847269046664 $192 $259 forward 7 unknown #
coedge $-1 $130 $187 $124 $195 forward $120 $-1 #
edge $-1 $196 23.391847269046664 $132 26.980025279820481 $194 $260 forward 7 unknown #
vertex $-1 $195 $261 #
vertex $-1 $193 $262 #
straight-curve $-1 -48.577783543480237 -23.264269854164432 0 0 0 -1 I I #
coedge $-1 $255 $254 $127 $200 forward $249 $-1 #
edge $-1 $205 -10.856108740284167 $202 10.856108740284167 $199 $263 forward 7 unknown #
coedge $-1 $128 $251 $255 $264 forward $185 $-1 #
vertex $-1 $129 $265 #
straight-curve $-1 -52.165961554254054 -13.867066365687862 -10.856108740284167 0 1 0 I I #
coedge $-1 $187 $130 $254 $266 forward $120 $-1 #
vertex $-1 $266 $267 #
straight-curve $-1 -52.165961554254054 -13.867066365687862 10.856108740284167 0 -1 0 I I #
point $-1 -52.165961554254054 -23.264269854164432 10.856108740284167 #
point $-1 -52.165961554254054 -23.264269854164432 -10.856108740284167 #
loop $-1 $-1 $142 $135 #
plane-surface $-1 -61.271401104770042 0 0 1 0 0 0 0 -1 forward_v I I I I #
coedge $-1 $268 $269 $139 $213 forward $136 $-1 #
coedge $-1 $139 $138 $218 $270 reversed $49 $-1 #
edge $-1 $215 10.973007603423135 $271 19.096103115286063 $211 $272 forward 7 unknown #
coedge $-1 $145 $140 $269 $273 forward $79 $-1 #
vertex $-1 $273 $274 #
straight-curve $-1 -55.731463359041086 14.023732045547256 10.856108740284167 0 1 0 I I #
coedge $-1 $275 $142 $145 $222 reversed $209 $-1 #
coedge $-1 $142 $275 $212 $270 forward $209 $-1 #
vertex $-1 $143 $276 #
straight-curve $-1 -61.271401104770042 23.890932573602008 44.244620880125829 0 0 1 I I #
straight-curve $-1 -61.271401104770021 23.890932573602008 4.9152527019429755 -0.68199835119979291 0 -0.73135370988377701 I I #
edge $-1 $277 -32.203995608587014 $146 -23.890932573602008 $217 $278 forward 7 unknown #
point $-1 -61.271401104770042 23.890932573602008 10.856108740284167 #
point $-1 -55.731463359041086 23.890932573602008 10.856108740284167 #
edge $-1 $279 1 $279 0 $149 $-1 forward 7 unknown #
vertex $-1 $150 $280 #
ellipse-curve $-1 -57.770078522021798 26.266093440740583 7.2036823699137802 -0.73135370988377701 0 0.68199835119979291 0.17049958779994823 0 0.18283842747094425 1 I I #
point $-1 -58.33093264410563 26.266093440740583 8.0685191485845174 #
edge $-1 $281 1 $281 0 $153 $-1 forward 7 unknown #
vertex $-1 $154 $282 #
ellipse-curve $-1 -57.770078522021798 29.828834741448439 7.2036823699137802 -0.73135370988377701 0 0.68199835119979291 0.17049958779994823 0 0.18283842747094425 1 I I #
point $-1 -58.33093264410563 29.828834741448439 8.0685191485845174 #
plane-surface $-1 61.271401104770042 0 0 -1 0 0 0 0 1 forward_v I I I I #
coedge $-1 $162 $160 $164 $238 reversed $101 $-1 #
edge $-1 $175 -10.856108740284167 $240 10.856108740284167 $174 $283 forward 7 unknown #
vertex $-1 $238 $284 #
straight-curve $-1 -61.271401104770042 -32.203995608587014 0 0 0 -1 I I #
edge $-1 $236 -32.203995608587014 $240 32.203995608587014 $234 $285 forward 7 unknown #
straight-curve $-1 0 -32.203995608587014 -10.856108740284167 -1 0 0 I I #
vertex $-1 $167 $286 #
straight-curve $-1 0 32.203995608587014 -10.856108740284167 1 0 0 I I #
point $-1 61.271401104770042 32.203995608587014 -10.856108740284167 #
point $-1 61.271401104770042 -32.203995608587014 -10.856108740284167 #
straight-curve $-1 -61.271401104770042 0 10.856108740284167 0 -1 0 I I #
point $-1 -61.271401104770042 32.203995608587014 10.856108740284167 #
point $-1 -61.271401104770042 -32.203995608587014 10.856108740284167 #
straight-curve $-1 61.271401104770042 -32.203995608587014 0 0 0 -1 I I #
straight-curve $-1 61.271401104770042 32.203995608587014 0 0 0 -1 I I #
loop $-1 $-1 $190 $184 #
plane-surface $-1 0 -32.203995608587014 0 0 1 0 0 0 1 forward_v I I I I #
coedge $-1 $201 $192 $188 $253 forward $185 $-1 #
edge $-1 $257 -18.336929242899153 $196 -9.3972034884765705 $187 $287 forward 7 unknown #
edge $-1 $197 9.3972034884765705 $256 18.336929242899153 $251 $288 forward 7 unknown #
coedge $-1 $199 $190 $204 $266 reversed $249 $-1 #
coedge $-1 $190 $199 $201 $264 reversed $249 $-1 #
vertex $-1 $264 $289 #
vertex $-1 $191 $290 #
straight-curve $-1 -48.577783543480237 -32.203995608587014 0 0 0 1 I I #
straight-curve $-1 -25.185936274433573 -23.264269854164432 -10.856108740284167 1 0 0 I I #
straight-curve $-1 -25.185936274433573 -23.264269854164432 10.856108740284167 -1 0 0 I I #
point $-1 -48.577783543480237 -23.264269854164432 10.856108740284167 #
point $-1 -48.577783543480237 -23.264269854164432 -10.856108740284167 #
straight-curve $-1 -52.165961554254054 -32.203995608587014 0 0 0 -1 I I #
edge $-1 $256 48.577783543480237 $202 52.165961554254054 $255 $291 forward 7 unknown #
point $-1 -52.165961554254054 -32.203995608587014 -10.856108740284167 #
edge $-1 $205 -52.165961554254054 $257 -48.577783543480237 $254 $292 forward 7 unknown #
point $-1 -52.165961554254054 -32.203995608587014 10.856108740284167 #
coedge $-1 $269 $211 $275 $293 reversed $136 $-1 #
coedge $-1 $211 $268 $214 $273 reversed $136 $-1 #
edge $-1 $271 -18.180263563039759 $219 -9.8672005280547523 $218 $294 forward 7 unknown #
vertex $-1 $213 $295 #
straight-curve $-1 -48.247890265803719 32.203995608587014 18.88125855963057 -0.68199835119979291 0 -0.73135370988377701 I I #
edge $-1 $215 55.731463359041086 $277 61.271401104770042 $269 $296 forward 7 unknown #
point $-1 -55.731463359041086 32.203995608587014 10.856108740284167 #
coedge $-1 $218 $217 $268 $293 forward $209 $-1 #
point $-1 -61.271401104770042 23.890932573602008 4.9152527019429524 #
vertex $-1 $273 $297 #
straight-curve $-1 -61.271401104770042 0 10.856108740284167 0 -1 0 I I #
vertex $-1 $225 $298 #
point $-1 -57.599578934221853 26.266093440740583 7.3865207973847244 #
vertex $-1 $229 $299 #
point $-1 -57.599578934221853 29.828834741448439 7.3865207973847244 #
straight-curve $-1 -61.271401104770042 32.203995608587014 0 0 0 -1 I I #
point $-1 -61.271401104770042 -32.203995608587014 -10.856108740284167 #
straight-curve $-1 -61.271401104770042 0 -10.856108740284167 0 1 0 I I #
point $-1 -61.271401104770042 32.203995608587014 -10.856108740284167 #
straight-curve $-1 -48.577783543480237 -13.867066365687862 10.856108740284167 0 1 0 I I #
straight-curve $-1 -48.577783543480237 -13.867066365687862 -10.856108740284167 0 -1 0 I I #
point $-1 -48.577783543480237 -32.203995608587014 -10.856108740284167 #
point $-1 -48.577783543480237 -32.203995608587014 10.856108740284167 #
straight-curve $-1 0 -32.203995608587014 -10.856108740284167 -1 0 0 I I #
straight-curve $-1 0 -32.203995608587014 10.856108740284167 1 0 0 I I #
edge $-1 $277 -10.856108740284167 $271 -4.9152527019429524 $268 $300 forward 7 unknown #
straight-curve $-1 -61.271401104770042 14.023732045547256 4.9152527019429586 0 -1 0 I I #
point $-1 -61.271401104770042 32.203995608587014 4.9152527019429524 #
straight-curve $-1 0 32.203995608587014 10.856108740284167 -1 0 0 I I #
point $-1 -61.271401104770042 32.203995608587014 10.856108740284167 #
point $-1 -57.587240094550857 26.266093440740583 7.0331827821138315 #
point $-1 -57.587240094550857 29.828834741448439 7.0331827821138315 #
straight-curve $-1 -61.271401104770042 32.203995608587014 0 0 0 -1 I I #
End-of-ACIS-data 