500 0 5 0           
7 Unknown 11 ACIS 5.0 NT 24 Fri Mar 26 18:38:46 1999 
-1 9.9999999999999995e-007 1e-010 
body $-1 $5 $-1 $6 #
body $-1 $7 $-1 $8 #
body $-1 $9 $-1 $10 #
body $-1 $11 $-1 $12 #
body $-1 $13 $-1 $14 #
lump $-1 $-1 $15 $0 #
transform $-1 1 0 0 0 1 0 0 0 1 43.471785637989441 27.632252085619076 7.4663665735543123 1 rotate no_reflect no_shear #
lump $-1 $-1 $16 $1 #
transform $-1 1 0 0 0 1 0 0 0 1 43.471785637989441 27.632252085619076 7.4663665735543123 1 rotate no_reflect no_shear #
lump $-1 $-1 $17 $2 #
transform $-1 1 0 0 0 1 0 0 0 1 43.471785637989441 27.632252085619076 7.4663665735543123 1 rotate no_reflect no_shear #
lump $-1 $-1 $18 $3 #
transform $-1 1 0 0 0 1 0 0 0 1 43.471785637989441 27.632252085619076 7.4663665735543123 1 rotate no_reflect no_shear #
lump $-1 $-1 $19 $4 #
transform $-1 1 0 0 0 1 0 0 0 1 43.471785637989441 27.632252085619076 7.4663665735543123 1 rotate no_reflect no_shear #
shell $-1 $-1 $-1 $20 $-1 $5 #
shell $-1 $-1 $-1 $21 $-1 $7 #
shell $-1 $-1 $-1 $22 $-1 $9 #
shell $-1 $-1 $-1 $23 $-1 $11 #
shell $-1 $-1 $-1 $24 $-1 $13 #
face $-1 $25 $26 $15 $-1 $27 forward single #
face $-1 $28 $29 $16 $-1 $30 forward single #
face $-1 $31 $32 $17 $-1 $33 forward single #
face $-1 $34 $35 $18 $-1 $36 reversed single #
face $-1 $37 $38 $19 $-1 $39 reversed single #
face $-1 $40 $41 $15 $-1 $42 reversed single #
loop $-1 $-1 $43 $20 #
plane-surface $-1 0 0 7.4663665735543123 0 0 1 1 0 0 forward_v I I I I #
face $-1 $44 $45 $16 $-1 $46 reversed single #
loop $-1 $-1 $47 $21 #
plane-surface $-1 0 -32.043692808429668 5.6772031484087488 0 0 1 1 0 0 forward_v I I I I #
face $-1 $48 $49 $17 $-1 $50 forward single #
loop $-1 $-1 $51 $22 #
plane-surface $-1 11.002864575173643 37.611036872415383 104.54613078740016 1 0 0 0 -0.61566148304635926 -0.78801074757464917 forward_v I I I I #
face $-1 $52 $53 $18 $-1 $54 reversed single #
loop $-1 $55 $56 $23 #
cone-surface $-1 13.509255072542636 23.832144840668541 4.3438957087498631 0 -0.61566148304635926 -0.78801074757464917 0.5 0 0 1 I I 0 1 0.5 forward I I I I #
face $-1 $57 $58 $19 $-1 $59 reversed single #
loop $-1 $60 $61 $24 #
cone-surface $-1 17.268840818596118 23.832144840668541 4.3438957087498631 0 -0.61566148304635926 -0.78801074757464917 0.5 0 0 1 I I 0 1 0.5 forward I I I I #
face $-1 $62 $63 $15 $-1 $64 reversed single #
loop $-1 $-1 $65 $25 #
plane-surface $-1 0 0 -7.4663665735543123 0 0 1 1 0 0 forward_v I I I I #
coedge $-1 $66 $67 $68 $69 forward $26 $-1 #
face $-1 $70 $71 $16 $-1 $72 reversed single #
loop $-1 $-1 $73 $28 #
plane-surface $-1 0 -32.043692808429668 2.6772031484087488 0 0 1 1 0 0 forward_v I I I I #
coedge $-1 $74 $75 $76 $77 forward $29 $-1 #
face $-1 $78 $79 $17 $-1 $80 forward single #
loop $-1 $-1 $81 $31 #
plane-surface $-1 15.389047945569374 -15.91677116070062 36.033662189406243 0 0.61566148304635926 0.78801074757464917 1 0 0 forward_v I I I I #
coedge $-1 $82 $83 $84 $85 reversed $32 $-1 #
face $-1 $86 $87 $18 $-1 $88 forward single #
loop $-1 $89 $90 $34 #
cone-surface $-1 13.509255072542636 23.370398728383773 3.7528876480688762 0 -0.61566148304635926 -0.78801074757464917 0.25 0 0 1 I I -0.70710678118654746 0.70710678118654746 0.25 forward I I I I #
loop $-1 $-1 $91 $23 #
coedge $-1 $56 $56 $92 $93 reversed $35 $-1 #
face $-1 $94 $95 $19 $-1 $96 reversed single #
loop $-1 $97 $98 $37 #
cone-surface $-1 17.268840818596118 23.370398728383773 3.7528876480688762 0 -0.61566148304635926 -0.78801074757464917 0.25 0 0 1 I I -0.70710678118654746 0.70710678118654746 0.25 forward I I I I #
loop $-1 $-1 $99 $24 #
coedge $-1 $61 $61 $100 $101 reversed $38 $-1 #
face $-1 $102 $103 $15 $-1 $104 reversed single #
loop $-1 $-1 $105 $40 #
plane-surface $-1 0 -27.632252085619076 0 0 1 0 0 0 1 forward_v I I I I #
coedge $-1 $106 $107 $108 $109 forward $41 $-1 #
coedge $-1 $110 $43 $111 $112 forward $26 $-1 #
coedge $-1 $43 $110 $113 $114 forward $26 $-1 #
coedge $-1 $115 $116 $43 $69 reversed $117 $-1 #
edge $-1 $118 -27.632252085619076 $119 27.632252085619076 $68 $120 forward 7 unknown #
face $-1 $121 $122 $16 $-1 $123 reversed single #
loop $-1 $-1 $124 $44 #
plane-surface $-1 0 -36.455133531240257 4.1772031484087488 0 1 0 0 0 1 forward_v I I I I #
coedge $-1 $125 $126 $127 $128 forward $45 $-1 #
coedge $-1 $129 $47 $130 $131 reversed $29 $-1 #
coedge $-1 $47 $129 $132 $133 forward $29 $-1 #
coedge $-1 $134 $135 $47 $77 reversed $136 $-1 #
edge $-1 $137 -4.411440722810589 $138 4.411440722810589 $76 $139 forward 7 unknown #
face $-1 $140 $141 $17 $-1 $142 forward single #
loop $-1 $-1 $143 $48 #
plane-surface $-1 19.775231315965105 37.611036872415383 104.54613078740016 -1 0 0 0 0.61566148304635926 0.78801074757464917 forward_v I I I I #
coedge $-1 $144 $145 $146 $147 reversed $49 $-1 #
coedge $-1 $83 $51 $145 $148 forward $32 $-1 #
coedge $-1 $51 $82 $149 $150 reversed $32 $-1 #
coedge $-1 $151 $146 $51 $85 forward $141 $-1 #
edge $-1 $152 1.8421806425566771 $153 8.8267336494113842 $84 $154 forward 7 unknown #
face $-1 $155 $156 $18 $-1 $157 forward single #
loop $-1 $-1 $158 $52 #
plane-surface $-1 11.002864575173643 37.611036872415383 104.54613078740016 1 0 0 0 -0.61566148304635926 -0.78801074757464917 forward_v I I I I #
loop $-1 $-1 $159 $34 #
coedge $-1 $90 $90 $91 $160 forward $53 $-1 #
coedge $-1 $91 $91 $90 $160 reversed $55 $-1 #
coedge $-1 $92 $92 $56 $93 forward $156 $-1 #
edge $-1 $161 -2.3182496654064245e-015 $161 6.2831853071795978 $92 $162 forward 7 unknown #
face $-1 $163 $164 $19 $-1 $165 reversed single #
loop $-1 $166 $167 $57 #
cone-surface $-1 13.509255072542636 23.832144840668541 4.3438957087498631 0 -0.61566148304635926 -0.78801074757464917 0.5 0 0 1 I I 0 1 0.5 forward I I I I #
loop $-1 $-1 $168 $37 #
coedge $-1 $98 $98 $99 $169 forward $58 $-1 #
coedge $-1 $99 $99 $98 $169 reversed $60 $-1 #
coedge $-1 $100 $100 $61 $101 forward $170 $-1 #
edge $-1 $171 -2.3182496654064245e-015 $171 6.2831853071795978 $100 $172 forward 7 unknown #
face $-1 $173 $174 $15 $-1 $175 reversed single #
loop $-1 $-1 $176 $62 #
plane-surface $-1 -43.471785637989441 0 0 1 0 0 0 0 -1 forward_v I I I I #
coedge $-1 $177 $113 $178 $179 forward $63 $-1 #
coedge $-1 $180 $65 $177 $181 forward $41 $-1 #
coedge $-1 $65 $180 $182 $183 forward $41 $-1 #
coedge $-1 $116 $115 $65 $109 reversed $117 $-1 #
edge $-1 $184 -27.632252085619076 $185 27.632252085619076 $108 $186 forward 7 unknown #
coedge $-1 $67 $66 $187 $188 forward $26 $-1 #
coedge $-1 $189 $190 $66 $112 reversed $174 $-1 #
edge $-1 $119 -43.471785637989441 $191 43.471785637989441 $111 $192 forward 7 unknown #
coedge $-1 $105 $193 $67 $114 reversed $63 $-1 #
edge $-1 $194 -43.471785637989441 $118 43.471785637989441 $113 $195 forward 7 unknown #
coedge $-1 $108 $68 $193 $196 forward $117 $-1 #
coedge $-1 $68 $108 $189 $197 reversed $117 $-1 #
loop $-1 $-1 $115 $173 #
vertex $-1 $69 $198 #
vertex $-1 $69 $199 #
straight-curve $-1 43.471785637989441 0 7.4663665735543123 0 1 0 I I #
face $-1 $200 $201 $16 $-1 $123 reversed single #
loop $-1 $-1 $202 $70 #
plane-surface $-1 0 -27.632252085619076 0 0 1 0 0 0 1 forward_v I I I I #
coedge $-1 $203 $132 $204 $205 forward $71 $-1 #
coedge $-1 $206 $73 $203 $207 forward $45 $-1 #
coedge $-1 $73 $206 $202 $208 reversed $45 $-1 #
coedge $-1 $209 $134 $73 $128 reversed $136 $-1 #
edge $-1 $210 -4.411440722810589 $211 4.411440722810589 $127 $212 forward 7 unknown #
coedge $-1 $75 $74 $213 $214 forward $29 $-1 #
coedge $-1 $215 $216 $74 $131 forward $201 $-1 #
edge $-1 $217 -43.471785637989441 $138 43.471785637989441 $130 $218 forward 7 unknown #
coedge $-1 $124 $219 $75 $133 reversed $71 $-1 #
edge $-1 $220 -43.471785637989441 $137 43.471785637989441 $132 $221 forward 7 unknown #
coedge $-1 $127 $76 $219 $222 forward $136 $-1 #
coedge $-1 $76 $223 $215 $224 forward $136 $-1 #
loop $-1 $-1 $135 $225 #
vertex $-1 $77 $226 #
vertex $-1 $77 $227 #
straight-curve $-1 43.471785637989441 -32.043692808429668 5.6772031484087488 0 1 0 I I #
face $-1 $228 $229 $17 $-1 $230 forward single #
loop $-1 $-1 $231 $78 #
plane-surface $-1 0 0 7.4663665735543123 0 0 1 1 0 0 forward_v I I I I #
coedge $-1 $232 $233 $231 $234 reversed $79 $-1 #
coedge $-1 $235 $81 $233 $236 reversed $49 $-1 #
coedge $-1 $81 $235 $82 $148 reversed $49 $-1 #
coedge $-1 $84 $231 $81 $147 forward $141 $-1 #
edge $-1 $237 -12.080707343180418 $152 -3.3083406023889559 $146 $238 forward 7 unknown #
edge $-1 $152 46.400979113550974 $239 55.264504171238151 $82 $240 forward 7 unknown #
coedge $-1 $241 $242 $83 $150 forward $243 $-1 #
edge $-1 $153 44.806698820145769 $239 50.263629802180027 $149 $244 forward 7 unknown #
coedge $-1 $245 $84 $242 $246 forward $141 $-1 #
vertex $-1 $147 $247 #
vertex $-1 $246 $248 #
straight-curve $-1 11.002864575173643 18.805518436207691 7.4663665735543105 0 1 0 I I #
face $-1 $249 $250 $18 $-1 $251 forward single #
loop $-1 $252 $92 $86 #
plane-surface $-1 15.389047945569374 -15.91677116070062 36.033662189406243 0 0.61566148304635926 0.78801074757464917 1 0 0 forward_v I I I I #
coedge $-1 $253 $254 $255 $256 reversed $87 $-1 #
coedge $-1 $159 $159 $-1 $257 forward $89 $-1 #
edge $-1 $258 0 $258 6.2831853071796004 $90 $259 forward 7 unknown #
vertex $-1 $93 $260 #
ellipse-curve $-1 13.509255072542636 24.139975582191717 4.737901082537185 0 -0.61566148304635926 -0.78801074757464917 0.5 0 0 1 I I #
face $-1 $261 $262 $19 $-1 $263 forward single #
loop $-1 $264 $265 $94 #
cone-surface $-1 13.509255072542636 23.370398728383773 3.7528876480688762 0 -0.61566148304635926 -0.78801074757464917 0.25 0 0 1 I I -0.70710678118654746 0.70710678118654746 0.25 forward I I I I #
loop $-1 $-1 $266 $57 #
coedge $-1 $167 $167 $267 $268 reversed $95 $-1 #
coedge $-1 $168 $168 $-1 $269 forward $97 $-1 #
edge $-1 $270 0 $270 6.2831853071796004 $98 $271 forward 7 unknown #
loop $-1 $272 $100 $261 #
vertex $-1 $101 $273 #
ellipse-curve $-1 17.268840818596118 24.139975582191717 4.737901082537185 0 -0.61566148304635926 -0.78801074757464917 0.5 0 0 1 I I #
face $-1 $-1 $117 $15 $-1 $274 reversed single #
loop $-1 $-1 $189 $102 #
plane-surface $-1 0 27.632252085619076 0 0 -1 0 0 0 -1 forward_v I I I I #
coedge $-1 $275 $187 $190 $276 forward $103 $-1 #
coedge $-1 $193 $105 $106 $181 reversed $63 $-1 #
coedge $-1 $187 $275 $105 $179 reversed $103 $-1 #
edge $-1 $194 -7.4663665735543123 $277 7.4663665735543123 $178 $278 forward 7 unknown #
coedge $-1 $107 $106 $275 $279 forward $41 $-1 #
edge $-1 $185 -43.471785637989441 $277 43.471785637989441 $177 $280 forward 7 unknown #
coedge $-1 $190 $189 $107 $183 reversed $174 $-1 #
edge $-1 $281 -43.471785637989441 $184 43.471785637989441 $182 $282 forward 7 unknown #
vertex $-1 $109 $283 #
vertex $-1 $196 $284 #
straight-curve $-1 43.471785637989441 0 -7.4663665735543123 0 -1 0 I I #
coedge $-1 $176 $178 $110 $188 reversed $103 $-1 #
edge $-1 $191 -27.632252085619076 $194 27.632252085619076 $187 $285 forward 7 unknown #
coedge $-1 $182 $111 $116 $197 forward $174 $-1 #
coedge $-1 $111 $182 $176 $276 reversed $174 $-1 #
vertex $-1 $112 $286 #
straight-curve $-1 0 27.632252085619076 7.4663665735543123 -1 0 0 I I #
coedge $-1 $113 $177 $115 $196 reversed $63 $-1 #
vertex $-1 $188 $287 #
straight-curve $-1 0 -27.632252085619076 7.4663665735543123 1 0 0 I I #
edge $-1 $118 -7.4663665735543123 $185 7.4663665735543123 $115 $288 forward 7 unknown #
edge $-1 $119 -7.4663665735543123 $184 7.4663665735543123 $116 $289 forward 7 unknown #
point $-1 43.471785637989441 -27.632252085619076 7.4663665735543123 #
point $-1 43.471785637989441 27.632252085619076 7.4663665735543123 #
face $-1 $290 $291 $16 $-1 $292 forward single #
loop $-1 $-1 $130 $121 #
coedge $-1 $293 $294 $126 $208 forward $122 $-1 #
coedge $-1 $219 $124 $125 $207 reversed $71 $-1 #
coedge $-1 $213 $295 $124 $205 reversed $296 $-1 #
edge $-1 $220 -1.5 $297 1.5 $204 $298 forward 7 unknown #
coedge $-1 $126 $125 $295 $299 forward $45 $-1 #
edge $-1 $211 -43.471785637989441 $297 43.471785637989441 $203 $300 forward 7 unknown #
edge $-1 $210 -43.471785637989441 $301 43.471785637989441 $202 $302 forward 7 unknown #
coedge $-1 $303 $127 $294 $304 forward $136 $-1 #
vertex $-1 $304 $305 #
vertex $-1 $222 $306 #
straight-curve $-1 43.471785637989441 -32.043692808429668 2.6772031484087488 0 -1 0 I I #
coedge $-1 $307 $204 $129 $214 reversed $296 $-1 #
edge $-1 $217 -4.411440722810589 $220 4.411440722810589 $213 $308 forward 7 unknown #
coedge $-1 $309 $130 $135 $224 reversed $201 $-1 #
coedge $-1 $130 $309 $307 $310 forward $201 $-1 #
vertex $-1 $310 $311 #
straight-curve $-1 0 -27.632252085619076 5.6772031484087488 1 0 0 I I #
coedge $-1 $132 $203 $134 $222 reversed $71 $-1 #
vertex $-1 $214 $312 #
straight-curve $-1 0 -36.455133531240257 5.6772031484087488 1 0 0 I I #
edge $-1 $137 -1.5 $211 1.5 $134 $313 forward 7 unknown #
coedge $-1 $135 $314 $315 $316 reversed $136 $-1 #
edge $-1 $317 -7.4663665735543123 $138 -5.6772031484087488 $135 $318 forward 7 unknown #
face $-1 $-1 $136 $16 $-1 $319 reversed single #
point $-1 43.471785637989441 -36.455133531240257 5.6772031484087488 #
point $-1 43.471785637989441 -27.632252085619079 5.6772031484087488 #
face $-1 $320 $321 $17 $-1 $322 reversed single #
loop $-1 $-1 $323 $140 #
plane-surface $-1 0 -32.043692808429668 5.6772031484087488 0 0 1 1 0 0 forward_v I I I I #
coedge $-1 $146 $324 $143 $234 forward $141 $-1 #
coedge $-1 $233 $143 $325 $326 reversed $79 $-1 #
coedge $-1 $143 $232 $144 $236 forward $79 $-1 #
edge $-1 $327 -8.8267336494113842 $237 -1.8421806425566771 $231 $328 forward 7 unknown #
coedge $-1 $145 $144 $241 $329 reversed $49 $-1 #
edge $-1 $330 -55.264504171238151 $237 -46.400979113550974 $233 $331 forward 7 unknown #
vertex $-1 $147 $332 #
straight-curve $-1 7.6945239727846868 20.647699078764362 7.4663665735543141 -1 0 0 I I #
vertex $-1 $329 $333 #
straight-curve $-1 11.002864575173643 -15.91677116070062 36.033662189406243 0 0.78801074757464917 -0.61566148304635926 I I #
coedge $-1 $325 $149 $235 $329 forward $243 $-1 #
coedge $-1 $149 $334 $151 $246 reversed $243 $-1 #
loop $-1 $-1 $325 $335 #
straight-curve $-1 11.002864575173643 27.632252085619076 52.27306539370008 0 0 -1 I I #
coedge $-1 $336 $151 $337 $338 forward $141 $-1 #
edge $-1 $153 -11.002864575173643 $339 43.471785637989441 $242 $340 forward 7 unknown #
point $-1 11.002864575173643 20.647699078764369 7.4663665735543105 #
point $-1 11.002864575173643 27.632252085619076 7.4663665735543123 #
face $-1 $341 $342 $18 $-1 $343 forward single #
loop $-1 $-1 $344 $155 #
plane-surface $-1 19.775231315965105 37.611036872415383 104.54613078740016 -1 0 0 0 0.61566148304635926 0.78801074757464917 forward_v I I I I #
loop $-1 $-1 $345 $86 #
coedge $-1 $254 $158 $346 $347 forward $87 $-1 #
coedge $-1 $158 $253 $348 $349 reversed $87 $-1 #
coedge $-1 $350 $351 $158 $256 forward $342 $-1 #
edge $-1 $352 1.8421806425566771 $353 8.8267336494113842 $255 $354 forward 7 unknown #
edge $-1 $355 1 $355 0 $159 $-1 forward 7 unknown #
vertex $-1 $160 $356 #
ellipse-curve $-1 13.509255072542636 23.524314099145361 3.9498903349625385 0 0.61566148304635926 0.78801074757464917 0.5 0 0 1 I I #
point $-1 14.009255072542636 24.13997558219172 4.7379010825371877 #
face $-1 $357 $170 $19 $-1 $358 forward single #
loop $-1 $-1 $359 $163 #
plane-surface $-1 11.002864575173643 37.611036872415383 104.54613078740016 1 0 0 0 -0.61566148304635926 -0.78801074757464917 forward_v I I I I #
loop $-1 $-1 $360 $94 #
coedge $-1 $265 $265 $266 $361 forward $164 $-1 #
coedge $-1 $266 $266 $265 $361 reversed $166 $-1 #
coedge $-1 $267 $267 $167 $268 forward $272 $-1 #
edge $-1 $362 -2.3182496654064245e-015 $362 6.2831853071795978 $267 $363 forward 7 unknown #
edge $-1 $364 1 $364 0 $168 $-1 forward 7 unknown #
vertex $-1 $169 $365 #
ellipse-curve $-1 17.268840818596118 23.524314099145361 3.9498903349625385 0 0.61566148304635926 0.78801074757464917 0.5 0 0 1 I I #
loop $-1 $366 $267 $261 #
point $-1 17.768840818596118 24.13997558219172 4.7379010825371877 #
plane-surface $-1 43.471785637989441 0 0 -1 0 0 0 0 1 forward_v I I I I #
coedge $-1 $178 $176 $180 $279 reversed $103 $-1 #
edge $-1 $191 -7.4663665735543123 $281 7.4663665735543123 $190 $367 forward 7 unknown #
vertex $-1 $279 $368 #
straight-curve $-1 -43.471785637989441 -27.632252085619076 0 0 0 -1 I I #
edge $-1 $277 -27.632252085619076 $281 27.632252085619076 $275 $369 forward 7 unknown #
straight-curve $-1 0 -27.632252085619076 -7.4663665735543123 -1 0 0 I I #
vertex $-1 $183 $370 #
straight-curve $-1 0 27.632252085619076 -7.4663665735543123 1 0 0 I I #
point $-1 43.471785637989441 27.632252085619076 -7.4663665735543123 #
point $-1 43.471785637989441 -27.632252085619076 -7.4663665735543123 #
straight-curve $-1 -43.471785637989441 0 7.4663665735543123 0 -1 0 I I #
point $-1 -43.471785637989441 27.632252085619076 7.4663665735543123 #
point $-1 -43.471785637989441 -27.632252085619076 7.4663665735543123 #
straight-curve $-1 43.471785637989441 -27.632252085619076 0 0 0 -1 I I #
straight-curve $-1 43.471785637989441 27.632252085619076 0 0 0 -1 I I #
face $-1 $371 $372 $16 $-1 $373 reversed single #
loop $-1 $-1 $315 $200 #
plane-surface $-1 0 0 7.4663665735543123 0 0 1 1 0 0 forward_v I I I I #
coedge $-1 $374 $202 $375 $376 forward $122 $-1 #
coedge $-1 $202 $374 $209 $304 reversed $122 $-1 #
coedge $-1 $204 $375 $206 $299 reversed $296 $-1 #
loop $-1 $-1 $377 $371 #
vertex $-1 $299 $378 #
straight-curve $-1 -43.471785637989441 -36.455133531240257 4.1772031484087488 0 0 -1 I I #
edge $-1 $297 -4.411440722810589 $301 4.411440722810589 $295 $379 forward 7 unknown #
straight-curve $-1 0 -36.455133531240257 2.6772031484087488 -1 0 0 I I #
vertex $-1 $376 $380 #
straight-curve $-1 0 -27.632252085619076 2.6772031484087488 -1 0 0 I I #
coedge $-1 $314 $209 $381 $382 reversed $136 $-1 #
edge $-1 $210 -2.6772031484087488 $383 7.4663665735543123 $209 $318 forward 7 unknown #
point $-1 43.471785637989441 -27.632252085619079 2.6772031484087488 #
point $-1 43.471785637989441 -36.455133531240257 2.6772031484087488 #
coedge $-1 $384 $213 $216 $310 reversed $296 $-1 #
straight-curve $-1 -43.471785637989441 -32.043692808429668 5.6772031484087488 0 -1 0 I I #
coedge $-1 $216 $215 $385 $386 reversed $201 $-1 #
edge $-1 $387 -7.4663665735543123 $217 -5.6772031484087488 $307 $388 forward 7 unknown #
point $-1 -43.471785637989441 -27.632252085619079 5.6772031484087488 #
point $-1 -43.471785637989441 -36.455133531240257 5.6772031484087488 #
straight-curve $-1 43.471785637989441 -36.455133531240257 4.1772031484087488 0 0 -1 I I #
coedge $-1 $223 $303 $389 $390 reversed $136 $-1 #
coedge $-1 $391 $385 $223 $316 forward $291 $-1 #
edge $-1 $317 -27.632252085619076 $392 27.632252085619076 $223 $393 forward 7 unknown #
vertex $-1 $316 $394 #
straight-curve $-1 43.471785637989441 -27.632252085619076 0 0 0 -1 I I #
plane-surface $-1 43.471785637989441 0 0 -1 0 0 0 0 1 forward_v I I I I #
face $-1 $395 $396 $17 $-1 $397 reversed single #
loop $-1 $-1 $398 $228 #
plane-surface $-1 0 -32.043692808429668 2.6772031484087488 0 0 1 1 0 0 forward_v I I I I #
coedge $-1 $399 $400 $401 $402 forward $229 $-1 #
coedge $-1 $231 $403 $404 $405 forward $141 $-1 #
coedge $-1 $404 $241 $232 $326 forward $243 $-1 #
edge $-1 $330 -50.263629802180027 $327 -44.806698820145769 $325 $406 forward 7 unknown #
vertex $-1 $326 $407 #
straight-curve $-1 19.775231315965105 18.805518436207691 7.4663665735543105 0 -1 0 I I #
edge $-1 $239 3.3083406023889559 $330 12.080707343180418 $241 $408 forward 7 unknown #
vertex $-1 $329 $409 #
straight-curve $-1 19.775231315965105 -15.91677116070062 36.033662189406243 0 -0.78801074757464917 0.61566148304635926 I I #
point $-1 19.775231315965105 20.647699078764369 7.4663665735543105 #
point $-1 11.002864575173643 27.632252085619072 2.0094355915200524 #
coedge $-1 $242 $410 $411 $412 reversed $243 $-1 #
face $-1 $413 $243 $17 $-1 $414 reversed single #
coedge $-1 $403 $245 $415 $416 forward $141 $-1 #
coedge $-1 $411 $417 $245 $338 reversed $418 $-1 #
edge $-1 $339 -27.632252085619076 $419 27.632252085619076 $337 $420 forward 7 unknown #
vertex $-1 $246 $421 #
straight-curve $-1 0 27.632252085619076 7.4663665735543123 -1 0 0 I I #
face $-1 $422 $423 $18 $-1 $424 forward single #
loop $-1 $-1 $425 $249 #
plane-surface $-1 0 0 7.4663665735543123 0 0 1 1 0 0 forward_v I I I I #
coedge $-1 $426 $427 $425 $428 reversed $250 $-1 #
coedge $-1 $429 $346 $351 $430 reversed $252 $-1 #
coedge $-1 $345 $431 $253 $347 reversed $252 $-1 #
edge $-1 $352 46.400979113550974 $432 55.264504171238151 $253 $433 forward 7 unknown #
coedge $-1 $434 $435 $254 $349 forward $436 $-1 #
edge $-1 $353 44.806698820145769 $432 50.263629802180027 $348 $437 forward 7 unknown #
coedge $-1 $438 $255 $435 $439 forward $342 $-1 #
coedge $-1 $255 $425 $345 $430 forward $342 $-1 #
vertex $-1 $430 $440 #
vertex $-1 $439 $441 #
straight-curve $-1 11.002864575173643 18.805518436207691 7.4663665735543105 0 1 0 I I #
vertex $-1 $257 $442 #
point $-1 14.009255072542636 23.524314099145361 3.9498903349625385 #
face $-1 $443 $444 $19 $-1 $445 forward single #
plane-surface $-1 15.389047945569374 -15.91677116070062 36.033662189406243 0 0.61566148304635926 0.78801074757464917 1 0 0 forward_v I I I I #
coedge $-1 $446 $447 $448 $449 reversed $262 $-1 #
coedge $-1 $360 $360 $-1 $450 forward $264 $-1 #
edge $-1 $451 0 $451 6.2831853071796004 $265 $452 forward 7 unknown #
vertex $-1 $268 $453 #
ellipse-curve $-1 13.509255072542636 24.139975582191717 4.737901082537185 0 -0.61566148304635926 -0.78801074757464917 0.5 0 0 1 I I #
vertex $-1 $269 $454 #
point $-1 17.768840818596118 23.524314099145361 3.9498903349625385 #
loop $-1 $-1 $455 $261 #
straight-curve $-1 -43.471785637989441 27.632252085619076 0 0 0 -1 I I #
point $-1 -43.471785637989441 -27.632252085619076 -7.4663665735543123 #
straight-curve $-1 -43.471785637989441 0 -7.4663665735543123 0 1 0 I I #
point $-1 -43.471785637989441 27.632252085619076 -7.4663665735543123 #
face $-1 $456 $296 $16 $-1 $457 reversed single #
loop $-1 $-1 $381 $290 #
plane-surface $-1 0 0 -7.4663665735543123 0 0 1 1 0 0 forward_v I I I I #
coedge $-1 $294 $293 $458 $459 reversed $122 $-1 #
coedge $-1 $295 $460 $293 $376 reversed $296 $-1 #
edge $-1 $301 -2.6772031484087488 $461 7.4663665735543123 $375 $388 forward 7 unknown #
coedge $-1 $460 $384 $462 $463 forward $296 $-1 #
point $-1 -43.471785637989441 -36.455133531240257 2.6772031484087488 #
straight-curve $-1 -43.471785637989441 -32.043692808429668 2.6772031484087488 0 1 0 I I #
point $-1 -43.471785637989441 -27.632252085619079 2.6772031484087488 #
coedge $-1 $458 $464 $303 $382 forward $372 $-1 #
edge $-1 $465 -27.632252085619076 $383 27.632252085619076 $303 $466 forward 7 unknown #
vertex $-1 $304 $467 #
coedge $-1 $377 $307 $468 $469 reversed $296 $-1 #
coedge $-1 $315 $468 $309 $386 forward $291 $-1 #
edge $-1 $387 -43.471785637989441 $317 43.471785637989441 $309 $470 forward 7 unknown #
vertex $-1 $469 $471 #
straight-curve $-1 -43.471785637989441 -27.632252085619076 0 0 0 -1 I I #
coedge $-1 $472 $473 $314 $390 forward $474 $-1 #
edge $-1 $392 -7.4663665735543123 $465 7.4663665735543123 $314 $475 forward 7 unknown #
coedge $-1 $468 $315 $473 $476 forward $291 $-1 #
vertex $-1 $316 $477 #
straight-curve $-1 43.471785637989441 0 7.4663665735543123 0 1 0 I I #
point $-1 43.471785637989441 -27.632252085619076 7.4663665735543123 #
face $-1 $478 $479 $17 $-1 $480 reversed single #
loop $-1 $-1 $481 $320 #
plane-surface $-1 0 -36.455133531240257 4.1772031484087488 0 1 0 0 0 1 forward_v I I I I #
coedge $-1 $482 $483 $484 $485 forward $321 $-1 #
coedge $-1 $486 $323 $487 $488 reversed $229 $-1 #
coedge $-1 $323 $486 $489 $490 forward $229 $-1 #
coedge $-1 $491 $492 $323 $402 reversed $493 $-1 #
edge $-1 $494 -4.411440722810589 $495 4.411440722810589 $401 $496 forward 7 unknown #
coedge $-1 $324 $336 $497 $498 forward $141 $-1 #
coedge $-1 $499 $325 $324 $405 reversed $243 $-1 #
edge $-1 $500 -43.471785637989441 $327 -19.775231315965105 $404 $340 forward 7 unknown #
straight-curve $-1 19.775231315965105 27.632252085619076 52.27306539370008 0 0 1 I I #
point $-1 19.775231315965105 27.632252085619076 7.4663665735543123 #
straight-curve $-1 7.6945239727846868 27.632252085619076 2.0094355915200559 1 0 0 I I #
point $-1 19.775231315965105 27.632252085619072 2.0094355915200524 #
coedge $-1 $334 $499 $501 $502 reversed $243 $-1 #
coedge $-1 $503 $337 $334 $412 forward $418 $-1 #
edge $-1 $339 -7.4663665735543123 $504 7.4663665735543123 $334 $505 forward 7 unknown #
face $-1 $-1 $493 $17 $-1 $506 reversed single #
plane-surface $-1 0 27.632252085619076 0 0 -1 0 0 0 -1 forward_v I I I I #
coedge $-1 $507 $508 $336 $416 reversed $509 $-1 #
edge $-1 $419 -43.471785637989441 $510 43.471785637989441 $415 $511 forward 7 unknown #
coedge $-1 $337 $512 $507 $513 reversed $418 $-1 #
loop $-1 $-1 $411 $514 #
vertex $-1 $338 $515 #
straight-curve $-1 -43.471785637989441 0 7.4663665735543123 0 -1 0 I I #
point $-1 -43.471785637989441 27.632252085619076 7.4663665735543123 #
face $-1 $516 $517 $18 $-1 $518 reversed single #
loop $-1 $-1 $519 $341 #
plane-surface $-1 0 -32.043692808429668 5.6772031484087488 0 0 1 1 0 0 forward_v I I I I #
coedge $-1 $351 $520 $344 $428 forward $342 $-1 #
coedge $-1 $427 $344 $521 $522 reversed $250 $-1 #
coedge $-1 $344 $426 $429 $523 forward $250 $-1 #
edge $-1 $524 -8.8267336494113842 $525 -1.8421806425566771 $425 $526 forward 7 unknown #
coedge $-1 $431 $345 $427 $523 reversed $252 $-1 #
edge $-1 $525 -12.080707343180418 $352 -3.3083406023889559 $351 $527 forward 7 unknown #
coedge $-1 $346 $429 $434 $528 reversed $252 $-1 #
vertex $-1 $528 $529 #
straight-curve $-1 11.002864575173643 -15.91677116070062 36.033662189406243 0 0.78801074757464917 -0.61566148304635926 I I #
coedge $-1 $521 $348 $431 $528 forward $436 $-1 #
coedge $-1 $348 $530 $350 $439 reversed $436 $-1 #
loop $-1 $-1 $521 $531 #
straight-curve $-1 11.002864575173643 27.632252085619076 52.27306539370008 0 0 -1 I I #
coedge $-1 $532 $350 $533 $534 forward $342 $-1 #
edge $-1 $353 -11.002864575173643 $535 43.471785637989441 $435 $536 forward 7 unknown #
point $-1 11.002864575173643 20.647699078764369 7.4663665735543105 #
point $-1 11.002864575173643 27.632252085619076 7.4663665735543123 #
point $-1 13.509255072542636 23.216483357622185 3.5558849611752139 #
face $-1 $537 $538 $19 $-1 $539 forward single #
loop $-1 $-1 $540 $357 #
plane-surface $-1 19.775231315965105 37.611036872415383 104.54613078740016 -1 0 0 0 0.61566148304635926 0.78801074757464917 forward_v I I I I #
coedge $-1 $447 $359 $541 $542 forward $262 $-1 #
coedge $-1 $359 $446 $543 $544 reversed $262 $-1 #
coedge $-1 $545 $546 $359 $449 forward $538 $-1 #
edge $-1 $547 1.8421806425566771 $548 8.8267336494113842 $448 $549 forward 7 unknown #
edge $-1 $550 1 $550 0 $360 $-1 forward 7 unknown #
vertex $-1 $361 $551 #
ellipse-curve $-1 13.509255072542636 23.524314099145361 3.9498903349625385 0 0.61566148304635926 0.78801074757464917 0.5 0 0 1 I I #
point $-1 14.009255072542636 24.13997558219172 4.7379010825371877 #
point $-1 17.268840818596118 23.216483357622185 3.5558849611752139 #
coedge $-1 $552 $541 $546 $553 reversed $366 $-1 #
face $-1 $225 $474 $16 $-1 $554 reversed single #
plane-surface $-1 -43.471785637989441 0 0 1 0 0 0 0 -1 forward_v I I I I #
coedge $-1 $555 $381 $374 $459 forward $372 $-1 #
edge $-1 $383 -43.471785637989441 $461 43.471785637989441 $374 $556 forward 7 unknown #
coedge $-1 $375 $377 $555 $557 reversed $296 $-1 #
vertex $-1 $557 $558 #
coedge $-1 $473 $472 $377 $463 reversed $474 $-1 #
edge $-1 $559 -7.4663665735543123 $560 7.4663665735543123 $462 $561 forward 7 unknown #
coedge $-1 $381 $555 $472 $562 forward $372 $-1 #
vertex $-1 $382 $563 #
straight-curve $-1 43.471785637989441 0 -7.4663665735543123 0 -1 0 I I #
point $-1 43.471785637989441 -27.632252085619076 -7.4663665735543123 #
coedge $-1 $385 $391 $384 $469 forward $291 $-1 #
edge $-1 $559 -27.632252085619076 $387 27.632252085619076 $384 $564 forward 7 unknown #
straight-curve $-1 0 -27.632252085619076 7.4663665735543123 1 0 0 I I #
point $-1 -43.471785637989441 -27.632252085619076 7.4663665735543123 #
coedge $-1 $462 $389 $464 $562 reversed $474 $-1 #
coedge $-1 $389 $462 $391 $476 reversed $474 $-1 #
loop $-1 $-1 $389 $456 #
straight-curve $-1 43.471785637989441 27.632252085619076 0 0 0 -1 I I #
edge $-1 $392 -43.471785637989441 $559 43.471785637989441 $473 $565 forward 7 unknown #
point $-1 43.471785637989441 27.632252085619076 7.4663665735543123 #
face $-1 $566 $509 $17 $-1 $480 reversed single #
loop $-1 $-1 $567 $395 #
plane-surface $-1 0 -27.632252085619076 0 0 1 0 0 0 1 forward_v I I I I #
coedge $-1 $568 $489 $569 $570 forward $396 $-1 #
coedge $-1 $571 $398 $568 $572 forward $321 $-1 #
coedge $-1 $398 $571 $567 $573 reversed $321 $-1 #
coedge $-1 $574 $491 $398 $485 reversed $493 $-1 #
edge $-1 $575 -4.411440722810589 $576 4.411440722810589 $484 $577 forward 7 unknown #
coedge $-1 $400 $399 $512 $578 forward $229 $-1 #
coedge $-1 $508 $507 $399 $488 forward $509 $-1 #
edge $-1 $579 -43.471785637989441 $495 43.471785637989441 $487 $580 forward 7 unknown #
coedge $-1 $481 $581 $400 $490 reversed $396 $-1 #
edge $-1 $582 -43.471785637989441 $494 43.471785637989441 $489 $583 forward 7 unknown #
coedge $-1 $484 $401 $581 $584 forward $493 $-1 #
coedge $-1 $401 $497 $508 $585 forward $493 $-1 #
loop $-1 $-1 $492 $413 #
vertex $-1 $402 $586 #
vertex $-1 $402 $587 #
straight-curve $-1 43.471785637989441 -32.043692808429668 5.6772031484087488 0 1 0 I I #
coedge $-1 $492 $588 $403 $498 reversed $493 $-1 #
edge $-1 $510 -27.632252085619076 $500 27.632252085619076 $497 $589 forward 7 unknown #
coedge $-1 $410 $404 $588 $590 forward $243 $-1 #
vertex $-1 $498 $591 #
coedge $-1 $592 $593 $410 $502 forward $594 $-1 #
edge $-1 $504 -43.471785637989441 $595 43.471785637989441 $410 $596 forward 7 unknown #
coedge $-1 $597 $411 $593 $598 reversed $418 $-1 #
vertex $-1 $502 $599 #
straight-curve $-1 -43.471785637989441 27.632252085619076 0 0 0 -1 I I #
plane-surface $-1 43.471785637989441 0 0 -1 0 0 0 0 1 forward_v I I I I #
coedge $-1 $487 $415 $417 $513 forward $509 $-1 #
coedge $-1 $415 $487 $492 $585 reversed $509 $-1 #
loop $-1 $-1 $487 $478 #
vertex $-1 $498 $600 #
straight-curve $-1 0 -27.632252085619076 7.4663665735543123 1 0 0 I I #
coedge $-1 $417 $569 $486 $578 reversed $418 $-1 #
edge $-1 $419 -7.4663665735543123 $579 -5.6772031484087488 $417 $601 forward 7 unknown #
face $-1 $335 $418 $17 $-1 $602 reversed single #
point $-1 -43.471785637989441 -27.632252085619076 7.4663665735543123 #
face $-1 $603 $604 $18 $-1 $605 reversed single #
loop $-1 $-1 $606 $422 #
plane-surface $-1 0 -32.043692808429668 2.6772031484087488 0 0 1 1 0 0 forward_v I I I I #
coedge $-1 $607 $608 $609 $610 forward $423 $-1 #
coedge $-1 $425 $611 $612 $613 forward $342 $-1 #
coedge $-1 $612 $434 $426 $522 forward $436 $-1 #
edge $-1 $614 -50.263629802180027 $524 -44.806698820145769 $521 $615 forward 7 unknown #
edge $-1 $614 -55.264504171238151 $525 -46.400979113550974 $427 $616 forward 7 unknown #
vertex $-1 $522 $617 #
vertex $-1 $430 $618 #
straight-curve $-1 19.775231315965105 18.805518436207691 7.4663665735543105 0 -1 0 I I #
straight-curve $-1 7.6945239727846868 20.647699078764362 7.4663665735543141 -1 0 0 I I #
edge $-1 $432 3.3083406023889559 $614 12.080707343180418 $434 $619 forward 7 unknown #
point $-1 11.002864575173643 27.632252085619072 2.0094355915200524 #
coedge $-1 $435 $620 $621 $622 reversed $436 $-1 #
face $-1 $623 $436 $18 $-1 $624 reversed single #
coedge $-1 $611 $438 $625 $626 forward $342 $-1 #
coedge $-1 $621 $627 $438 $534 reversed $628 $-1 #
edge $-1 $535 -27.632252085619076 $629 27.632252085619076 $533 $630 forward 7 unknown #
vertex $-1 $439 $631 #
straight-curve $-1 0 27.632252085619076 7.4663665735543123 -1 0 0 I I #
face $-1 $632 $633 $19 $-1 $634 forward single #
loop $-1 $-1 $635 $443 #
plane-surface $-1 0 0 7.4663665735543123 0 0 1 1 0 0 forward_v I I I I #
coedge $-1 $636 $637 $635 $638 reversed $444 $-1 #
coedge $-1 $455 $639 $446 $542 reversed $366 $-1 #
edge $-1 $547 46.400979113550974 $640 55.264504171238151 $446 $641 forward 7 unknown #
coedge $-1 $642 $643 $447 $544 forward $644 $-1 #
edge $-1 $548 44.806698820145769 $640 50.263629802180027 $543 $645 forward 7 unknown #
coedge $-1 $646 $448 $643 $647 forward $538 $-1 #
coedge $-1 $448 $635 $455 $553 forward $538 $-1 #
vertex $-1 $553 $648 #
vertex $-1 $647 $649 #
straight-curve $-1 11.002864575173643 18.805518436207691 7.4663665735543105 0 1 0 I I #
vertex $-1 $450 $650 #
point $-1 14.009255072542636 23.524314099145361 3.9498903349625385 #
coedge $-1 $639 $455 $637 $651 reversed $366 $-1 #
edge $-1 $652 -12.080707343180418 $547 -3.3083406023889559 $546 $653 forward 7 unknown #
plane-surface $-1 0 27.632252085619076 0 0 -1 0 0 0 -1 forward_v I I I I #
coedge $-1 $464 $458 $460 $557 forward $372 $-1 #
straight-curve $-1 0 -27.632252085619076 -7.4663665735543123 -1 0 0 I I #
edge $-1 $461 -27.632252085619076 $560 27.632252085619076 $460 $654 forward 7 unknown #
point $-1 -43.471785637989441 -27.632252085619076 -7.4663665735543123 #
vertex $-1 $476 $655 #
vertex $-1 $562 $656 #
straight-curve $-1 -43.471785637989441 27.632252085619076 0 0 0 -1 I I #
edge $-1 $560 -43.471785637989441 $465 43.471785637989441 $472 $657 forward 7 unknown #
point $-1 43.471785637989441 27.632252085619076 -7.4663665735543123 #
straight-curve $-1 -43.471785637989441 0 7.4663665735543123 0 -1 0 I I #
straight-curve $-1 0 27.632252085619076 7.4663665735543123 -1 0 0 I I #
face $-1 $514 $594 $17 $-1 $658 reversed single #
coedge $-1 $659 $660 $483 $573 forward $479 $-1 #
coedge $-1 $581 $481 $482 $572 reversed $396 $-1 #
coedge $-1 $512 $661 $481 $570 reversed $418 $-1 #
edge $-1 $582 -1.5 $662 1.5 $569 $663 forward 7 unknown #
coedge $-1 $483 $482 $661 $664 forward $321 $-1 #
edge $-1 $576 -43.471785637989441 $662 43.471785637989441 $568 $665 forward 7 unknown #
edge $-1 $575 -43.471785637989441 $666 43.471785637989441 $567 $667 forward 7 unknown #
coedge $-1 $668 $484 $660 $669 forward $493 $-1 #
vertex $-1 $669 $670 #
vertex $-1 $584 $671 #
straight-curve $-1 43.471785637989441 -32.043692808429668 2.6772031484087488 0 -1 0 I I #
edge $-1 $579 -4.411440722810589 $582 4.411440722810589 $512 $672 forward 7 unknown #
vertex $-1 $513 $673 #
straight-curve $-1 0 -27.632252085619076 5.6772031484087488 1 0 0 I I #
coedge $-1 $489 $568 $491 $584 reversed $396 $-1 #
vertex $-1 $578 $674 #
straight-curve $-1 0 -36.455133531240257 5.6772031484087488 1 0 0 I I #
edge $-1 $494 -1.5 $576 1.5 $491 $675 forward 7 unknown #
edge $-1 $510 -7.4663665735543123 $495 -5.6772031484087488 $492 $676 forward 7 unknown #
point $-1 43.471785637989441 -36.455133531240257 5.6772031484087488 #
point $-1 43.471785637989441 -27.632252085619079 5.6772031484087488 #
coedge $-1 $497 $668 $499 $590 reversed $493 $-1 #
straight-curve $-1 43.471785637989441 0 7.4663665735543123 0 1 0 I I #
edge $-1 $500 -7.4663665735543123 $595 7.4663665735543123 $588 $677 forward 7 unknown #
point $-1 43.471785637989441 27.632252085619076 7.4663665735543123 #
coedge $-1 $678 $501 $668 $679 forward $594 $-1 #
coedge $-1 $501 $678 $503 $598 forward $594 $-1 #
loop $-1 $-1 $592 $566 #
vertex $-1 $679 $680 #
straight-curve $-1 0 27.632252085619076 -7.4663665735543123 1 0 0 I I #
coedge $-1 $661 $503 $659 $681 reversed $418 $-1 #
edge $-1 $682 -27.632252085619076 $504 27.632252085619076 $503 $683 forward 7 unknown #
point $-1 -43.471785637989441 27.632252085619076 -7.4663665735543123 #
point $-1 43.471785637989441 -27.632252085619076 7.4663665735543123 #
straight-curve $-1 -43.471785637989441 -27.632252085619076 0 0 0 -1 I I #
plane-surface $-1 -43.471785637989441 0 0 1 0 0 0 0 -1 forward_v I I I I #
face $-1 $684 $685 $18 $-1 $686 reversed single #
loop $-1 $-1 $687 $516 #
plane-surface $-1 0 -36.455133531240257 4.1772031484087488 0 1 0 0 0 1 forward_v I I I I #
coedge $-1 $688 $689 $690 $691 forward $517 $-1 #
coedge $-1 $692 $519 $693 $694 reversed $423 $-1 #
coedge $-1 $519 $692 $695 $696 forward $423 $-1 #
coedge $-1 $697 $698 $519 $610 reversed $699 $-1 #
edge $-1 $700 -4.411440722810589 $701 4.411440722810589 $609 $702 forward 7 unknown #
coedge $-1 $520 $532 $703 $704 forward $342 $-1 #
coedge $-1 $705 $521 $520 $613 reversed $436 $-1 #
edge $-1 $706 -43.471785637989441 $524 -19.775231315965105 $612 $536 forward 7 unknown #
vertex $-1 $528 $707 #
straight-curve $-1 19.775231315965105 27.632252085619076 52.27306539370008 0 0 1 I I #
straight-curve $-1 19.775231315965105 -15.91677116070062 36.033662189406243 0 -0.78801074757464917 0.61566148304635926 I I #
point $-1 19.775231315965105 27.632252085619076 7.4663665735543123 #
point $-1 19.775231315965105 20.647699078764369 7.4663665735543105 #
straight-curve $-1 7.6945239727846868 27.632252085619076 2.0094355915200559 1 0 0 I I #
coedge $-1 $530 $705 $708 $709 reversed $436 $-1 #
coedge $-1 $710 $533 $530 $622 forward $628 $-1 #
edge $-1 $535 -7.4663665735543123 $711 7.4663665735543123 $530 $712 forward 7 unknown #
face $-1 $-1 $699 $18 $-1 $713 reversed single #
plane-surface $-1 0 27.632252085619076 0 0 -1 0 0 0 -1 forward_v I I I I #
coedge $-1 $714 $715 $532 $626 reversed $716 $-1 #
edge $-1 $629 -43.471785637989441 $717 43.471785637989441 $625 $718 forward 7 unknown #
coedge $-1 $533 $719 $714 $720 reversed $628 $-1 #
loop $-1 $-1 $621 $721 #
vertex $-1 $534 $722 #
straight-curve $-1 -43.471785637989441 0 7.4663665735543123 0 -1 0 I I #
point $-1 -43.471785637989441 27.632252085619076 7.4663665735543123 #
face $-1 $723 $724 $19 $-1 $725 reversed single #
loop $-1 $-1 $726 $537 #
plane-surface $-1 0 -32.043692808429668 5.6772031484087488 0 0 1 1 0 0 forward_v I I I I #
coedge $-1 $546 $727 $540 $638 forward $538 $-1 #
coedge $-1 $637 $540 $728 $729 reversed $444 $-1 #
coedge $-1 $540 $636 $552 $651 forward $444 $-1 #
edge $-1 $730 -8.8267336494113842 $652 -1.8421806425566771 $635 $731 forward 7 unknown #
coedge $-1 $541 $552 $642 $732 reversed $366 $-1 #
vertex $-1 $732 $733 #
straight-curve $-1 11.002864575173643 -15.91677116070062 36.033662189406243 0 0.78801074757464917 -0.61566148304635926 I I #
coedge $-1 $728 $543 $639 $732 forward $644 $-1 #
coedge $-1 $543 $734 $545 $647 reversed $644 $-1 #
loop $-1 $-1 $728 $735 #
straight-curve $-1 11.002864575173643 27.632252085619076 52.27306539370008 0 0 -1 I I #
coedge $-1 $736 $545 $737 $738 forward $538 $-1 #
edge $-1 $548 -11.002864575173643 $739 43.471785637989441 $643 $740 forward 7 unknown #
point $-1 11.002864575173643 20.647699078764369 7.4663665735543105 #
point $-1 11.002864575173643 27.632252085619076 7.4663665735543123 #
point $-1 13.509255072542636 23.216483357622185 3.5558849611752139 #
edge $-1 $741 -55.264504171238151 $652 -46.400979113550974 $637 $742 forward 7 unknown #
vertex $-1 $553 $743 #
straight-curve $-1 7.6945239727846868 20.647699078764362 7.4663665735543141 -1 0 0 I I #
straight-curve $-1 -43.471785637989441 0 -7.4663665735543123 0 1 0 I I #
point $-1 -43.471785637989441 27.632252085619076 7.4663665735543123 #
point $-1 -43.471785637989441 27.632252085619076 -7.4663665735543123 #
straight-curve $-1 0 27.632252085619076 -7.4663665735543123 1 0 0 I I #
plane-surface $-1 0 0 -7.4663665735543123 0 0 1 1 0 0 forward_v I I I I #
coedge $-1 $744 $567 $597 $681 forward $479 $-1 #
coedge $-1 $567 $744 $574 $669 reversed $479 $-1 #
coedge $-1 $569 $597 $571 $664 reversed $418 $-1 #
vertex $-1 $664 $745 #
straight-curve $-1 -43.471785637989441 -36.455133531240257 4.1772031484087488 0 0 -1 I I #
edge $-1 $662 -4.411440722810589 $666 4.411440722810589 $661 $746 forward 7 unknown #
straight-curve $-1 0 -36.455133531240257 2.6772031484087488 -1 0 0 I I #
vertex $-1 $681 $747 #
straight-curve $-1 0 -27.632252085619076 2.6772031484087488 -1 0 0 I I #
coedge $-1 $588 $574 $592 $679 reversed $493 $-1 #
edge $-1 $575 -2.6772031484087488 $748 7.4663665735543123 $574 $676 forward 7 unknown #
point $-1 43.471785637989441 -27.632252085619079 2.6772031484087488 #
point $-1 43.471785637989441 -36.455133531240257 2.6772031484087488 #
straight-curve $-1 -43.471785637989441 -32.043692808429668 5.6772031484087488 0 -1 0 I I #
point $-1 -43.471785637989441 -27.632252085619079 5.6772031484087488 #
point $-1 -43.471785637989441 -36.455133531240257 5.6772031484087488 #
straight-curve $-1 43.471785637989441 -36.455133531240257 4.1772031484087488 0 0 -1 I I #
straight-curve $-1 43.471785637989441 -27.632252085619076 0 0 0 -1 I I #
straight-curve $-1 43.471785637989441 27.632252085619076 0 0 0 -1 I I #
coedge $-1 $593 $592 $744 $749 forward $594 $-1 #
edge $-1 $595 -27.632252085619076 $748 27.632252085619076 $668 $750 forward 7 unknown #
point $-1 43.471785637989441 27.632252085619076 -7.4663665735543123 #
edge $-1 $666 -2.6772031484087488 $682 7.4663665735543123 $597 $601 forward 7 unknown #
vertex $-1 $598 $751 #
straight-curve $-1 -43.471785637989441 0 -7.4663665735543123 0 1 0 I I #
face $-1 $752 $716 $18 $-1 $686 reversed single #
loop $-1 $-1 $753 $603 #
plane-surface $-1 0 -27.632252085619076 0 0 1 0 0 0 1 forward_v I I I I #
coedge $-1 $754 $695 $755 $756 forward $604 $-1 #
coedge $-1 $757 $606 $754 $758 forward $517 $-1 #
coedge $-1 $606 $757 $753 $759 reversed $517 $-1 #
coedge $-1 $760 $697 $606 $691 reversed $699 $-1 #
edge $-1 $761 -4.411440722810589 $762 4.411440722810589 $690 $763 forward 7 unknown #
coedge $-1 $608 $607 $719 $764 forward $423 $-1 #
coedge $-1 $715 $714 $607 $694 forward $716 $-1 #
edge $-1 $765 -43.471785637989441 $701 43.471785637989441 $693 $766 forward 7 unknown #
coedge $-1 $687 $767 $608 $696 reversed $604 $-1 #
edge $-1 $768 -43.471785637989441 $700 43.471785637989441 $695 $769 forward 7 unknown #
coedge $-1 $690 $609 $767 $770 forward $699 $-1 #
coedge $-1 $609 $703 $715 $771 forward $699 $-1 #
loop $-1 $-1 $698 $623 #
vertex $-1 $610 $772 #
vertex $-1 $610 $773 #
straight-curve $-1 43.471785637989441 -32.043692808429668 5.6772031484087488 0 1 0 I I #
coedge $-1 $698 $774 $611 $704 reversed $699 $-1 #
edge $-1 $717 -27.632252085619076 $706 27.632252085619076 $703 $775 forward 7 unknown #
coedge $-1 $620 $612 $774 $776 forward $436 $-1 #
vertex $-1 $704 $777 #
point $-1 19.775231315965105 27.632252085619072 2.0094355915200524 #
coedge $-1 $778 $779 $620 $709 forward $780 $-1 #
edge $-1 $711 -43.471785637989441 $781 43.471785637989441 $620 $782 forward 7 unknown #
coedge $-1 $783 $621 $779 $784 reversed $628 $-1 #
vertex $-1 $709 $785 #
straight-curve $-1 -43.471785637989441 27.632252085619076 0 0 0 -1 I I #
plane-surface $-1 43.471785637989441 0 0 -1 0 0 0 0 1 forward_v I I I I #
coedge $-1 $693 $625 $627 $720 forward $716 $-1 #
coedge $-1 $625 $693 $698 $771 reversed $716 $-1 #
loop $-1 $-1 $693 $684 #
vertex $-1 $704 $786 #
straight-curve $-1 0 -27.632252085619076 7.4663665735543123 1 0 0 I I #
coedge $-1 $627 $755 $692 $764 reversed $628 $-1 #
edge $-1 $629 -7.4663665735543123 $765 -5.6772031484087488 $627 $787 forward 7 unknown #
face $-1 $531 $628 $18 $-1 $788 reversed single #
point $-1 -43.471785637989441 -27.632252085619076 7.4663665735543123 #
face $-1 $789 $790 $19 $-1 $791 reversed single #
loop $-1 $-1 $792 $632 #
plane-surface $-1 0 -32.043692808429668 2.6772031484087488 0 0 1 1 0 0 forward_v I I I I #
coedge $-1 $793 $794 $795 $796 forward $633 $-1 #
coedge $-1 $635 $797 $798 $799 forward $538 $-1 #
coedge $-1 $798 $642 $636 $729 forward $644 $-1 #
edge $-1 $741 -50.263629802180027 $730 -44.806698820145769 $728 $800 forward 7 unknown #
vertex $-1 $729 $801 #
straight-curve $-1 19.775231315965105 18.805518436207691 7.4663665735543105 0 -1 0 I I #
edge $-1 $640 3.3083406023889559 $741 12.080707343180418 $642 $802 forward 7 unknown #
point $-1 11.002864575173643 27.632252085619072 2.0094355915200524 #
coedge $-1 $643 $803 $804 $805 reversed $644 $-1 #
face $-1 $806 $644 $19 $-1 $807 reversed single #
coedge $-1 $797 $646 $808 $809 forward $538 $-1 #
coedge $-1 $804 $810 $646 $738 reversed $811 $-1 #
edge $-1 $739 -27.632252085619076 $812 27.632252085619076 $737 $813 forward 7 unknown #
vertex $-1 $647 $814 #
straight-curve $-1 0 27.632252085619076 7.4663665735543123 -1 0 0 I I #
vertex $-1 $732 $815 #
straight-curve $-1 19.775231315965105 -15.91677116070062 36.033662189406243 0 -0.78801074757464917 0.61566148304635926 I I #
point $-1 19.775231315965105 20.647699078764369 7.4663665735543105 #
coedge $-1 $660 $659 $678 $749 reversed $479 $-1 #
point $-1 -43.471785637989441 -36.455133531240257 2.6772031484087488 #
straight-curve $-1 -43.471785637989441 -32.043692808429668 2.6772031484087488 0 1 0 I I #
point $-1 -43.471785637989441 -27.632252085619079 2.6772031484087488 #
vertex $-1 $669 $816 #
edge $-1 $748 -43.471785637989441 $682 43.471785637989441 $744 $817 forward 7 unknown #
straight-curve $-1 43.471785637989441 0 -7.4663665735543123 0 -1 0 I I #
point $-1 -43.471785637989441 -27.632252085619076 -7.4663665735543123 #
face $-1 $721 $780 $18 $-1 $818 reversed single #
coedge $-1 $819 $820 $689 $759 forward $685 $-1 #
coedge $-1 $767 $687 $688 $758 reversed $604 $-1 #
coedge $-1 $719 $821 $687 $756 reversed $628 $-1 #
edge $-1 $768 -1.5 $822 1.5 $755 $823 forward 7 unknown #
coedge $-1 $689 $688 $821 $824 forward $517 $-1 #
edge $-1 $762 -43.471785637989441 $822 43.471785637989441 $754 $825 forward 7 unknown #
edge $-1 $761 -43.471785637989441 $826 43.471785637989441 $753 $827 forward 7 unknown #
coedge $-1 $828 $690 $820 $829 forward $699 $-1 #
vertex $-1 $829 $830 #
vertex $-1 $770 $831 #
straight-curve $-1 43.471785637989441 -32.043692808429668 2.6772031484087488 0 -1 0 I I #
edge $-1 $765 -4.411440722810589 $768 4.411440722810589 $719 $832 forward 7 unknown #
vertex $-1 $720 $833 #
straight-curve $-1 0 -27.632252085619076 5.6772031484087488 1 0 0 I I #
coedge $-1 $695 $754 $697 $770 reversed $604 $-1 #
vertex $-1 $764 $834 #
straight-curve $-1 0 -36.455133531240257 5.6772031484087488 1 0 0 I I #
edge $-1 $700 -1.5 $762 1.5 $697 $835 forward 7 unknown #
edge $-1 $717 -7.4663665735543123 $701 -5.6772031484087488 $698 $836 forward 7 unknown #
point $-1 43.471785637989441 -36.455133531240257 5.6772031484087488 #
point $-1 43.471785637989441 -27.632252085619079 5.6772031484087488 #
coedge $-1 $703 $828 $705 $776 reversed $699 $-1 #
straight-curve $-1 43.471785637989441 0 7.4663665735543123 0 1 0 I I #
edge $-1 $706 -7.4663665735543123 $781 7.4663665735543123 $774 $837 forward 7 unknown #
point $-1 43.471785637989441 27.632252085619076 7.4663665735543123 #
coedge $-1 $838 $708 $828 $839 forward $780 $-1 #
coedge $-1 $708 $838 $710 $784 forward $780 $-1 #
loop $-1 $-1 $778 $752 #
vertex $-1 $839 $840 #
straight-curve $-1 0 27.632252085619076 -7.4663665735543123 1 0 0 I I #
coedge $-1 $821 $710 $819 $841 reversed $628 $-1 #
edge $-1 $842 -27.632252085619076 $711 27.632252085619076 $710 $843 forward 7 unknown #
point $-1 -43.471785637989441 27.632252085619076 -7.4663665735543123 #
point $-1 43.471785637989441 -27.632252085619076 7.4663665735543123 #
straight-curve $-1 -43.471785637989441 -27.632252085619076 0 0 0 -1 I I #
plane-surface $-1 -43.471785637989441 0 0 1 0 0 0 0 -1 forward_v I I I I #
face $-1 $844 $845 $19 $-1 $846 reversed single #
loop $-1 $-1 $847 $723 #
plane-surface $-1 0 -36.455133531240257 4.1772031484087488 0 1 0 0 0 1 forward_v I I I I #
coedge $-1 $848 $849 $850 $851 forward $724 $-1 #
coedge $-1 $852 $726 $853 $854 reversed $633 $-1 #
coedge $-1 $726 $852 $855 $856 forward $633 $-1 #
coedge $-1 $857 $858 $726 $796 reversed $859 $-1 #
edge $-1 $860 -4.411440722810589 $861 4.411440722810589 $795 $862 forward 7 unknown #
coedge $-1 $727 $736 $863 $864 forward $538 $-1 #
coedge $-1 $865 $728 $727 $799 reversed $644 $-1 #
edge $-1 $866 -43.471785637989441 $730 -19.775231315965105 $798 $740 forward 7 unknown #
straight-curve $-1 19.775231315965105 27.632252085619076 52.27306539370008 0 0 1 I I #
point $-1 19.775231315965105 27.632252085619076 7.4663665735543123 #
straight-curve $-1 7.6945239727846868 27.632252085619076 2.0094355915200559 1 0 0 I I #
coedge $-1 $734 $865 $867 $868 reversed $644 $-1 #
coedge $-1 $869 $737 $734 $805 forward $811 $-1 #
edge $-1 $739 -7.4663665735543123 $870 7.4663665735543123 $734 $871 forward 7 unknown #
face $-1 $-1 $859 $19 $-1 $872 reversed single #
plane-surface $-1 0 27.632252085619076 0 0 -1 0 0 0 -1 forward_v I I I I #
coedge $-1 $873 $874 $736 $809 reversed $875 $-1 #
edge $-1 $812 -43.471785637989441 $876 43.471785637989441 $808 $877 forward 7 unknown #
coedge $-1 $737 $878 $873 $879 reversed $811 $-1 #
loop $-1 $-1 $804 $880 #
vertex $-1 $738 $881 #
straight-curve $-1 -43.471785637989441 0 7.4663665735543123 0 -1 0 I I #
point $-1 -43.471785637989441 27.632252085619076 7.4663665735543123 #
point $-1 19.775231315965105 27.632252085619072 2.0094355915200524 #
point $-1 43.471785637989441 -27.632252085619076 -7.4663665735543123 #
straight-curve $-1 0 -27.632252085619076 -7.4663665735543123 -1 0 0 I I #
plane-surface $-1 0 0 -7.4663665735543123 0 0 1 1 0 0 forward_v I I I I #
coedge $-1 $882 $753 $783 $841 forward $685 $-1 #
coedge $-1 $753 $882 $760 $829 reversed $685 $-1 #
coedge $-1 $755 $783 $757 $824 reversed $628 $-1 #
vertex $-1 $824 $883 #
straight-curve $-1 -43.471785637989441 -36.455133531240257 4.1772031484087488 0 0 -1 I I #
edge $-1 $822 -4.411440722810589 $826 4.411440722810589 $821 $884 forward 7 unknown #
straight-curve $-1 0 -36.455133531240257 2.6772031484087488 -1 0 0 I I #
vertex $-1 $841 $885 #
straight-curve $-1 0 -27.632252085619076 2.6772031484087488 -1 0 0 I I #
coedge $-1 $774 $760 $778 $839 reversed $699 $-1 #
edge $-1 $761 -2.6772031484087488 $886 7.4663665735543123 $760 $836 forward 7 unknown #
point $-1 43.471785637989441 -27.632252085619079 2.6772031484087488 #
point $-1 43.471785637989441 -36.455133531240257 2.6772031484087488 #
straight-curve $-1 -43.471785637989441 -32.043692808429668 5.6772031484087488 0 -1 0 I I #
point $-1 -43.471785637989441 -27.632252085619079 5.6772031484087488 #
point $-1 -43.471785637989441 -36.455133531240257 5.6772031484087488 #
straight-curve $-1 43.471785637989441 -36.455133531240257 4.1772031484087488 0 0 -1 I I #
straight-curve $-1 43.471785637989441 -27.632252085619076 0 0 0 -1 I I #
straight-curve $-1 43.471785637989441 27.632252085619076 0 0 0 -1 I I #
coedge $-1 $779 $778 $882 $887 forward $780 $-1 #
edge $-1 $781 -27.632252085619076 $886 27.632252085619076 $828 $888 forward 7 unknown #
point $-1 43.471785637989441 27.632252085619076 -7.4663665735543123 #
edge $-1 $826 -2.6772031484087488 $842 7.4663665735543123 $783 $787 forward 7 unknown #
vertex $-1 $784 $889 #
straight-curve $-1 -43.471785637989441 0 -7.4663665735543123 0 1 0 I I #
face $-1 $890 $875 $19 $-1 $846 reversed single #
loop $-1 $-1 $891 $789 #
plane-surface $-1 0 -27.632252085619076 0 0 1 0 0 0 1 forward_v I I I I #
coedge $-1 $892 $855 $893 $894 forward $790 $-1 #
coedge $-1 $895 $792 $892 $896 forward $724 $-1 #
coedge $-1 $792 $895 $891 $897 reversed $724 $-1 #
coedge $-1 $898 $857 $792 $851 reversed $859 $-1 #
edge $-1 $899 -4.411440722810589 $900 4.411440722810589 $850 $901 forward 7 unknown #
coedge $-1 $794 $793 $878 $902 forward $633 $-1 #
coedge $-1 $874 $873 $793 $854 forward $875 $-1 #
edge $-1 $903 -43.471785637989441 $861 43.471785637989441 $853 $904 forward 7 unknown #
coedge $-1 $847 $905 $794 $856 reversed $790 $-1 #
edge $-1 $906 -43.471785637989441 $860 43.471785637989441 $855 $907 forward 7 unknown #
coedge $-1 $850 $795 $905 $908 forward $859 $-1 #
coedge $-1 $795 $863 $874 $909 forward $859 $-1 #
loop $-1 $-1 $858 $806 #
vertex $-1 $796 $910 #
vertex $-1 $796 $911 #
straight-curve $-1 43.471785637989441 -32.043692808429668 5.6772031484087488 0 1 0 I I #
coedge $-1 $858 $912 $797 $864 reversed $859 $-1 #
edge $-1 $876 -27.632252085619076 $866 27.632252085619076 $863 $913 forward 7 unknown #
coedge $-1 $803 $798 $912 $914 forward $644 $-1 #
vertex $-1 $864 $915 #
coedge $-1 $916 $917 $803 $868 forward $918 $-1 #
edge $-1 $870 -43.471785637989441 $919 43.471785637989441 $803 $920 forward 7 unknown #
coedge $-1 $921 $804 $917 $922 reversed $811 $-1 #
vertex $-1 $868 $923 #
straight-curve $-1 -43.471785637989441 27.632252085619076 0 0 0 -1 I I #
plane-surface $-1 43.471785637989441 0 0 -1 0 0 0 0 1 forward_v I I I I #
coedge $-1 $853 $808 $810 $879 forward $875 $-1 #
coedge $-1 $808 $853 $858 $909 reversed $875 $-1 #
loop $-1 $-1 $853 $844 #
vertex $-1 $864 $924 #
straight-curve $-1 0 -27.632252085619076 7.4663665735543123 1 0 0 I I #
coedge $-1 $810 $893 $852 $902 reversed $811 $-1 #
edge $-1 $812 -7.4663665735543123 $903 -5.6772031484087488 $810 $925 forward 7 unknown #
face $-1 $735 $811 $19 $-1 $926 reversed single #
point $-1 -43.471785637989441 -27.632252085619076 7.4663665735543123 #
coedge $-1 $820 $819 $838 $887 reversed $685 $-1 #
point $-1 -43.471785637989441 -36.455133531240257 2.6772031484087488 #
straight-curve $-1 -43.471785637989441 -32.043692808429668 2.6772031484087488 0 1 0 I I #
point $-1 -43.471785637989441 -27.632252085619079 2.6772031484087488 #
vertex $-1 $829 $927 #
edge $-1 $886 -43.471785637989441 $842 43.471785637989441 $882 $928 forward 7 unknown #
straight-curve $-1 43.471785637989441 0 -7.4663665735543123 0 -1 0 I I #
point $-1 -43.471785637989441 -27.632252085619076 -7.4663665735543123 #
face $-1 $880 $918 $19 $-1 $929 reversed single #
coedge $-1 $930 $931 $849 $897 forward $845 $-1 #
coedge $-1 $905 $847 $848 $896 reversed $790 $-1 #
coedge $-1 $878 $932 $847 $894 reversed $811 $-1 #
edge $-1 $906 -1.5 $933 1.5 $893 $934 forward 7 unknown #
coedge $-1 $849 $848 $932 $935 forward $724 $-1 #
edge $-1 $900 -43.471785637989441 $933 43.471785637989441 $892 $936 forward 7 unknown #
edge $-1 $899 -43.471785637989441 $937 43.471785637989441 $891 $938 forward 7 unknown #
coedge $-1 $939 $850 $931 $940 forward $859 $-1 #
vertex $-1 $940 $941 #
vertex $-1 $908 $942 #
straight-curve $-1 43.471785637989441 -32.043692808429668 2.6772031484087488 0 -1 0 I I #
edge $-1 $903 -4.411440722810589 $906 4.411440722810589 $878 $943 forward 7 unknown #
vertex $-1 $879 $944 #
straight-curve $-1 0 -27.632252085619076 5.6772031484087488 1 0 0 I I #
coedge $-1 $855 $892 $857 $908 reversed $790 $-1 #
vertex $-1 $902 $945 #
straight-curve $-1 0 -36.455133531240257 5.6772031484087488 1 0 0 I I #
edge $-1 $860 -1.5 $900 1.5 $857 $946 forward 7 unknown #
edge $-1 $876 -7.4663665735543123 $861 -5.6772031484087488 $858 $947 forward 7 unknown #
point $-1 43.471785637989441 -36.455133531240257 5.6772031484087488 #
point $-1 43.471785637989441 -27.632252085619079 5.6772031484087488 #
coedge $-1 $863 $939 $865 $914 reversed $859 $-1 #
straight-curve $-1 43.471785637989441 0 7.4663665735543123 0 1 0 I I #
edge $-1 $866 -7.4663665735543123 $919 7.4663665735543123 $912 $948 forward 7 unknown #
point $-1 43.471785637989441 27.632252085619076 7.4663665735543123 #
coedge $-1 $949 $867 $939 $950 forward $918 $-1 #
coedge $-1 $867 $949 $869 $922 forward $918 $-1 #
loop $-1 $-1 $916 $890 #
vertex $-1 $950 $951 #
straight-curve $-1 0 27.632252085619076 -7.4663665735543123 1 0 0 I I #
coedge $-1 $932 $869 $930 $952 reversed $811 $-1 #
edge $-1 $953 -27.632252085619076 $870 27.632252085619076 $869 $954 forward 7 unknown #
point $-1 -43.471785637989441 27.632252085619076 -7.4663665735543123 #
point $-1 43.471785637989441 -27.632252085619076 7.4663665735543123 #
straight-curve $-1 -43.471785637989441 -27.632252085619076 0 0 0 -1 I I #
plane-surface $-1 -43.471785637989441 0 0 1 0 0 0 0 -1 forward_v I I I I #
point $-1 43.471785637989441 -27.632252085619076 -7.4663665735543123 #
straight-curve $-1 0 -27.632252085619076 -7.4663665735543123 -1 0 0 I I #
plane-surface $-1 0 0 -7.4663665735543123 0 0 1 1 0 0 forward_v I I I I #
coedge $-1 $955 $891 $921 $952 forward $845 $-1 #
coedge $-1 $891 $955 $898 $940 reversed $845 $-1 #
coedge $-1 $893 $921 $895 $935 reversed $811 $-1 #
vertex $-1 $935 $956 #
straight-curve $-1 -43.471785637989441 -36.455133531240257 4.1772031484087488 0 0 -1 I I #
edge $-1 $933 -4.411440722810589 $937 4.411440722810589 $932 $957 forward 7 unknown #
straight-curve $-1 0 -36.455133531240257 2.6772031484087488 -1 0 0 I I #
vertex $-1 $952 $958 #
straight-curve $-1 0 -27.632252085619076 2.6772031484087488 -1 0 0 I I #
coedge $-1 $912 $898 $916 $950 reversed $859 $-1 #
edge $-1 $899 -2.6772031484087488 $959 7.4663665735543123 $898 $947 forward 7 unknown #
point $-1 43.471785637989441 -27.632252085619079 2.6772031484087488 #
point $-1 43.471785637989441 -36.455133531240257 2.6772031484087488 #
straight-curve $-1 -43.471785637989441 -32.043692808429668 5.6772031484087488 0 -1 0 I I #
point $-1 -43.471785637989441 -27.632252085619079 5.6772031484087488 #
point $-1 -43.471785637989441 -36.455133531240257 5.6772031484087488 #
straight-curve $-1 43.471785637989441 -36.455133531240257 4.1772031484087488 0 0 -1 I I #
straight-curve $-1 43.471785637989441 -27.632252085619076 0 0 0 -1 I I #
straight-curve $-1 43.471785637989441 27.632252085619076 0 0 0 -1 I I #
coedge $-1 $917 $916 $955 $960 forward $918 $-1 #
edge $-1 $919 -27.632252085619076 $959 27.632252085619076 $939 $961 forward 7 unknown #
point $-1 43.471785637989441 27.632252085619076 -7.4663665735543123 #
edge $-1 $937 -2.6772031484087488 $953 7.4663665735543123 $921 $925 forward 7 unknown #
vertex $-1 $922 $962 #
straight-curve $-1 -43.471785637989441 0 -7.4663665735543123 0 1 0 I I #
coedge $-1 $931 $930 $949 $960 reversed $845 $-1 #
point $-1 -43.471785637989441 -36.455133531240257 2.6772031484087488 #
straight-curve $-1 -43.471785637989441 -32.043692808429668 2.6772031484087488 0 1 0 I I #
point $-1 -43.471785637989441 -27.632252085619079 2.6772031484087488 #
vertex $-1 $940 $963 #
edge $-1 $959 -43.471785637989441 $953 43.471785637989441 $955 $964 forward 7 unknown #
straight-curve $-1 43.471785637989441 0 -7.4663665735543123 0 -1 0 I I #
point $-1 -43.471785637989441 -27.632252085619076 -7.4663665735543123 #
point $-1 43.471785637989441 -27.632252085619076 -7.4663665735543123 #
straight-curve $-1 0 -27.632252085619076 -7.4663665735543123 -1 0 0 I I #
End-of-ACIS-data 