500 0 8 0           
7 Unknown 11 ACIS 5.0 NT 24 Fri Mar 26 18:22:29 1999 
-1 9.9999999999999995e-007 1e-010 
body $-1 $8 $-1 $9 #
body $-1 $10 $-1 $11 #
body $-1 $12 $-1 $13 #
body $-1 $14 $-1 $15 #
body $-1 $16 $-1 $17 #
body $-1 $18 $-1 $19 #
body $-1 $20 $-1 $21 #
body $-1 $22 $-1 $23 #
lump $-1 $-1 $24 $0 #
transform $-1 1 0 0 0 1 0 0 0 1 65.357219153416537 35.426177843068665 9.2843030979207093 1 rotate no_reflect no_shear #
lump $-1 $-1 $25 $1 #
transform $-1 1 0 0 0 1 0 0 0 1 65.357219153416537 35.426177843068665 9.2843030979207093 1 rotate no_reflect no_shear #
lump $-1 $-1 $26 $2 #
transform $-1 1 0 0 0 1 0 0 0 1 65.357219153416537 35.426177843068665 9.2843030979207093 1 rotate no_reflect no_shear #
lump $-1 $-1 $27 $3 #
transform $-1 1 0 0 0 1 0 0 0 1 65.357219153416537 35.426177843068665 9.2843030979207093 1 rotate no_reflect no_shear #
lump $-1 $-1 $28 $4 #
transform $-1 1 0 0 0 1 0 0 0 1 65.357219153416537 35.426177843068665 9.2843030979207093 1 rotate no_reflect no_shear #
lump $-1 $-1 $29 $5 #
transform $-1 1 0 0 0 1 0 0 0 1 65.357219153416537 35.426177843068665 9.2843030979207093 1 rotate no_reflect no_shear #
lump $-1 $-1 $30 $6 #
transform $-1 1 0 0 0 1 0 0 0 1 65.357219153416537 35.426177843068665 9.2843030979207093 1 rotate no_reflect no_shear #
lump $-1 $-1 $31 $7 #
transform $-1 1 0 0 0 1 0 0 0 1 65.357219153416537 35.426177843068665 9.2843030979207093 1 rotate no_reflect no_shear #
shell $-1 $-1 $-1 $32 $-1 $8 #
shell $-1 $-1 $-1 $33 $-1 $10 #
shell $-1 $-1 $-1 $34 $-1 $12 #
shell $-1 $-1 $-1 $35 $-1 $14 #
shell $-1 $-1 $-1 $36 $-1 $16 #
shell $-1 $-1 $-1 $37 $-1 $18 #
shell $-1 $-1 $-1 $38 $-1 $20 #
shell $-1 $-1 $-1 $39 $-1 $22 #
face $-1 $40 $41 $24 $-1 $42 forward single #
face $-1 $43 $44 $25 $-1 $45 reversed single #
face $-1 $46 $47 $26 $-1 $48 reversed single #
face $-1 $49 $50 $27 $-1 $51 forward single #
face $-1 $52 $53 $28 $-1 $54 forward single #
face $-1 $55 $56 $29 $-1 $57 reversed single #
face $-1 $58 $59 $30 $-1 $60 forward single #
face $-1 $61 $62 $31 $-1 $63 forward single #
face $-1 $64 $65 $24 $-1 $66 reversed single #
loop $-1 $-1 $67 $32 #
plane-surface $-1 0 0 9.2843030979207093 0 0 1 1 0 0 forward_v I I I I #
face $-1 $68 $69 $25 $-1 $70 reversed single #
loop $-1 $-1 $71 $33 #
plane-surface $-1 0 -31.728218980112342 5.7136701202487465 0 0 1 1 0 0 forward_v I I I I #
face $-1 $72 $73 $26 $-1 $74 reversed single #
loop $-1 $-1 $75 $34 #
plane-surface $-1 33.256943142803252 16.913691428895227 184.30245807303277 0 -1 0 -0.57357644374324357 0 -0.81915203911291934 forward_v I I I I #
face $-1 $76 $77 $27 $-1 $78 forward single #
loop $-1 $79 $80 $35 #
cone-surface $-1 59.963695531346175 7.1553230009384237 5.2365848204177281 -0.57357644374324357 0 -0.81915203911291934 0.81915203911291934 0 -0.57357644374324357 1 I I 0 1 1 forward I I I I #
face $-1 $81 $82 $28 $-1 $83 forward single #
loop $-1 $84 $85 $36 #
cone-surface $-1 59.963695531346175 13.010344057712508 5.2365848204177281 -0.57357644374324357 0 -0.81915203911291934 0.81915203911291934 0 -0.57357644374324357 1 I I 0 1 1 forward I I I I #
face $-1 $86 $87 $29 $-1 $88 reversed single #
loop $-1 $-1 $89 $37 #
plane-surface $-1 -173.72440084060221 17.456310797665644 76.628654152927936 0 1 0 -0.82903758062907751 0 0.55919289150049634 forward_v I I I I #
face $-1 $90 $91 $30 $-1 $92 forward single #
loop $-1 $93 $94 $38 #
cone-surface $-1 -61.545060497606151 22.590558524923651 5.1459209385506588 0.82903758062907751 0 -0.55919289150049634 0.83878933725074445 0 1.2435563709436162 1 I I 0 1 1.5 forward I I I I #
face $-1 $95 $96 $31 $-1 $97 forward single #
loop $-1 $98 $99 $39 #
cone-surface $-1 -61.545060497606151 30.291930115810665 5.1459209385506588 0.82903758062907751 0 -0.55919289150049634 0.83878933725074445 0 1.2435563709436162 1 I I 0 1 1.5 forward I I I I #
face $-1 $100 $101 $24 $-1 $102 reversed single #
loop $-1 $-1 $103 $40 #
plane-surface $-1 0 0 -9.2843030979207093 0 0 1 1 0 0 forward_v I I I I #
coedge $-1 $104 $105 $106 $107 forward $41 $-1 #
face $-1 $108 $109 $25 $-1 $110 reversed single #
loop $-1 $-1 $111 $43 #
plane-surface $-1 0 -28.030260117156018 7.4989866090847279 0 -1 0 0 0 -1 forward_v I I I I #
coedge $-1 $112 $113 $114 $115 reversed $44 $-1 #
face $-1 $116 $117 $26 $-1 $118 reversed single #
loop $-1 $-1 $119 $46 #
plane-surface $-1 -41.717779527125671 10.082833529325463 77.227459392490559 0.57357644374324357 0 0.81915203911291934 0.81915203911291934 0 -0.57357644374324357 forward_v I I I I #
coedge $-1 $120 $121 $122 $123 reversed $47 $-1 #
face $-1 $-1 $124 $27 $-1 $125 forward single #
loop $-1 $126 $127 $49 #
cone-surface $-1 59.304442342588089 7.1553230009384237 4.2950737110378263 -0.57357644374324357 0 -0.81915203911291934 0.40957601955645967 0 -0.28678822187162178 1 I I -0.70710678118654746 0.70710678118654746 0.5 forward I I I I #
loop $-1 $-1 $128 $35 #
coedge $-1 $80 $80 $129 $130 reversed $50 $-1 #
face $-1 $-1 $131 $28 $-1 $132 forward single #
loop $-1 $133 $134 $52 #
cone-surface $-1 59.304442342588089 13.010344057712508 4.2950737110378263 -0.57357644374324357 0 -0.81915203911291934 0.40957601955645967 0 -0.28678822187162178 1 I I -0.70710678118654746 0.70710678118654746 0.5 forward I I I I #
loop $-1 $-1 $135 $36 #
coedge $-1 $85 $85 $136 $137 reversed $53 $-1 #
face $-1 $138 $139 $29 $-1 $140 forward single #
loop $-1 $-1 $141 $55 #
plane-surface $-1 -65.357219153416509 26.441244320367154 3.5340694352667015 -0.82903758062907751 0 0.55919289150049634 0.55919289150049634 0 0.82903758062907751 forward_v I I I I #
coedge $-1 $142 $143 $144 $145 reversed $56 $-1 #
face $-1 $-1 $146 $30 $-1 $147 forward single #
loop $-1 $148 $149 $58 #
cone-surface $-1 -59.050414385571138 22.590558524923651 3.4632609418822256 0.82903758062907751 0 -0.55919289150049634 0.41939466862537222 0 0.62177818547180808 1 I I -0.70710678118654724 0.70710678118654768 0.75 forward I I I I #
loop $-1 $-1 $150 $38 #
coedge $-1 $94 $94 $151 $152 reversed $59 $-1 #
face $-1 $-1 $153 $31 $-1 $154 forward single #
loop $-1 $155 $156 $61 #
cone-surface $-1 -59.050414385571138 30.291930115810665 3.4632609418822256 0.82903758062907751 0 -0.55919289150049634 0.41939466862537222 0 0.62177818547180808 1 I I -0.70710678118654724 0.70710678118654768 0.75 forward I I I I #
loop $-1 $-1 $157 $39 #
coedge $-1 $99 $99 $158 $159 reversed $62 $-1 #
face $-1 $160 $161 $24 $-1 $162 reversed single #
loop $-1 $-1 $163 $64 #
plane-surface $-1 0 -35.426177843068665 0 0 1 0 0 0 1 forward_v I I I I #
coedge $-1 $164 $165 $166 $167 forward $65 $-1 #
coedge $-1 $168 $67 $169 $170 forward $41 $-1 #
coedge $-1 $67 $168 $171 $172 forward $41 $-1 #
coedge $-1 $173 $174 $67 $107 reversed $175 $-1 #
edge $-1 $176 -35.426177843068665 $177 35.426177843068665 $106 $178 forward 7 unknown #
face $-1 $179 $180 $25 $-1 $181 reversed single #
loop $-1 $-1 $182 $68 #
plane-surface $-1 -65.357219153416537 0 0 1 0 0 0 0 -1 forward_v I I I I #
coedge $-1 $183 $184 $185 $186 reversed $69 $-1 #
coedge $-1 $187 $71 $188 $189 reversed $44 $-1 #
coedge $-1 $71 $187 $183 $190 forward $44 $-1 #
coedge $-1 $185 $191 $71 $115 forward $192 $-1 #
edge $-1 $193 -19.562068353012492 $194 -12.166150627099848 $114 $195 forward 7 unknown #
face $-1 $196 $197 $26 $-1 $198 reversed single #
loop $-1 $-1 $199 $72 #
plane-surface $-1 33.256943142803252 3.2519756297556981 184.30245807303277 0 1 0 0.57357644374324357 0 0.81915203911291934 forward_v I I I I #
coedge $-1 $200 $201 $202 $203 reversed $73 $-1 #
coedge $-1 $121 $75 $204 $205 reversed $47 $-1 #
coedge $-1 $75 $120 $200 $206 reversed $47 $-1 #
coedge $-1 $202 $207 $75 $123 forward $208 $-1 #
edge $-1 $209 -48.728747582014911 $210 -38.686630271647111 $122 $211 forward 7 unknown #
loop $-1 $-1 $129 $76 #
plane-surface $-1 -41.717779527125671 10.082833529325463 77.227459392490559 0.57357644374324357 0 0.81915203911291934 0.81915203911291934 0 -0.57357644374324357 forward_v I I I I #
loop $-1 $-1 $212 $49 #
coedge $-1 $127 $127 $128 $213 reversed $77 $-1 #
coedge $-1 $128 $128 $127 $213 forward $79 $-1 #
coedge $-1 $129 $129 $80 $130 forward $124 $-1 #
edge $-1 $214 0 $214 6.2831853071796004 $129 $215 forward 7 unknown #
loop $-1 $-1 $136 $81 #
plane-surface $-1 -41.717779527125671 10.082833529325463 77.227459392490559 0.57357644374324357 0 0.81915203911291934 0.81915203911291934 0 -0.57357644374324357 forward_v I I I I #
loop $-1 $-1 $216 $52 #
coedge $-1 $134 $134 $135 $217 reversed $82 $-1 #
coedge $-1 $135 $135 $134 $217 forward $84 $-1 #
coedge $-1 $136 $136 $85 $137 forward $131 $-1 #
edge $-1 $218 0 $218 6.2831853071796004 $136 $219 forward 7 unknown #
face $-1 $220 $221 $29 $-1 $222 reversed single #
loop $-1 $-1 $144 $86 #
plane-surface $-1 0 0 9.2843030979207093 0 0 1 1 0 0 forward_v I I I I #
coedge $-1 $223 $224 $225 $226 reversed $87 $-1 #
coedge $-1 $143 $89 $227 $228 reversed $56 $-1 #
coedge $-1 $89 $142 $223 $229 reversed $56 $-1 #
coedge $-1 $225 $230 $89 $145 forward $139 $-1 #
edge $-1 $231 21.50498126688457 $232 25.383562725378987 $144 $233 forward 7 unknown #
loop $-1 $-1 $151 $90 #
plane-surface $-1 -65.357219153416509 26.441244320367154 3.5340694352667015 -0.82903758062907751 0 0.55919289150049634 0.55919289150049634 0 0.82903758062907751 forward_v I I I I #
loop $-1 $-1 $234 $58 #
coedge $-1 $149 $149 $150 $235 reversed $91 $-1 #
coedge $-1 $150 $150 $149 $235 forward $93 $-1 #
coedge $-1 $151 $151 $94 $152 forward $146 $-1 #
edge $-1 $236 0 $236 6.2831853071796004 $151 $237 forward 7 unknown #
loop $-1 $-1 $158 $95 #
plane-surface $-1 -65.357219153416509 26.441244320367154 3.5340694352667015 -0.82903758062907751 0 0.55919289150049634 0.55919289150049634 0 0.82903758062907751 forward_v I I I I #
loop $-1 $-1 $238 $61 #
coedge $-1 $156 $156 $157 $239 reversed $96 $-1 #
coedge $-1 $157 $157 $156 $239 forward $98 $-1 #
coedge $-1 $158 $158 $99 $159 forward $153 $-1 #
edge $-1 $240 0 $240 6.2831853071796004 $158 $241 forward 7 unknown #
face $-1 $242 $243 $24 $-1 $244 reversed single #
loop $-1 $-1 $245 $100 #
plane-surface $-1 -65.357219153416537 0 0 1 0 0 0 0 -1 forward_v I I I I #
coedge $-1 $246 $171 $247 $248 forward $101 $-1 #
coedge $-1 $249 $103 $246 $250 forward $65 $-1 #
coedge $-1 $103 $249 $251 $252 forward $65 $-1 #
coedge $-1 $174 $173 $103 $167 reversed $175 $-1 #
edge $-1 $253 -35.426177843068665 $254 35.426177843068665 $166 $255 forward 7 unknown #
coedge $-1 $105 $104 $256 $257 forward $41 $-1 #
coedge $-1 $258 $259 $104 $170 reversed $243 $-1 #
edge $-1 $177 -65.357219153416537 $260 65.357219153416537 $169 $261 forward 7 unknown #
coedge $-1 $163 $262 $105 $172 reversed $101 $-1 #
edge $-1 $263 -65.357219153416537 $176 65.357219153416537 $171 $264 forward 7 unknown #
coedge $-1 $166 $106 $262 $265 forward $175 $-1 #
coedge $-1 $106 $166 $258 $266 reversed $175 $-1 #
loop $-1 $-1 $173 $242 #
vertex $-1 $107 $267 #
vertex $-1 $107 $268 #
straight-curve $-1 65.357219153416537 0 9.2843030979207093 0 1 0 I I #
face $-1 $269 $270 $25 $-1 $271 forward single #
loop $-1 $-1 $188 $108 #
plane-surface $-1 0 -35.426177843068665 0 0 1 0 0 0 1 forward_v I I I I #
coedge $-1 $272 $273 $274 $275 forward $109 $-1 #
coedge $-1 $274 $111 $113 $190 reversed $69 $-1 #
coedge $-1 $111 $274 $276 $277 reversed $69 $-1 #
coedge $-1 $278 $114 $111 $186 forward $192 $-1 #
edge $-1 $194 1.9641768157063826 $279 5.5348097933783453 $185 $280 forward 7 unknown #
coedge $-1 $113 $112 $272 $281 reversed $44 $-1 #
coedge $-1 $282 $283 $112 $189 forward $180 $-1 #
edge $-1 $284 -65.357219153416537 $193 65.357219153416537 $188 $285 forward 7 unknown #
edge $-1 $286 -65.357219153416537 $194 65.357219153416537 $183 $287 forward 7 unknown #
coedge $-1 $114 $278 $282 $288 forward $192 $-1 #
loop $-1 $-1 $185 $269 #
vertex $-1 $189 $289 #
vertex $-1 $115 $290 #
straight-curve $-1 65.357219153416537 -15.864109490056171 5.7136701202487465 0 1 0 I I #
face $-1 $-1 $208 $26 $-1 $291 forward single #
loop $-1 $-1 $292 $116 #
plane-surface $-1 65.357219153416537 0 0 -1 0 0 0 0 1 forward_v I I I I #
coedge $-1 $293 $294 $295 $296 reversed $117 $-1 #
coedge $-1 $297 $119 $121 $206 forward $73 $-1 #
coedge $-1 $119 $297 $293 $298 forward $73 $-1 #
coedge $-1 $295 $122 $119 $203 forward $208 $-1 #
edge $-1 $210 -11.872274664232496 $299 1.7894411349070332 $202 $300 forward 7 unknown #
coedge $-1 $301 $302 $120 $205 forward $197 $-1 #
edge $-1 $303 -89.898492313954748 $209 -82.866925938595671 $204 $304 forward 7 unknown #
edge $-1 $210 118.45527659951111 $303 130.71443830683307 $121 $305 forward 7 unknown #
coedge $-1 $122 $295 $301 $306 forward $208 $-1 #
loop $-1 $-1 $295 $196 #
vertex $-1 $205 $307 #
vertex $-1 $123 $308 #
straight-curve $-1 16.628471571401626 16.913691428895227 9.2843030979207128 -1 0 0 I I #
coedge $-1 $212 $212 $-1 $309 reversed $126 $-1 #
edge $-1 $310 0 $310 6.2831853071796004 $127 $311 forward 7 unknown #
vertex $-1 $130 $312 #
ellipse-curve $-1 60.336160498232637 7.1553230009384237 5.7685199102411717 0.57357644374324357 0 0.81915203911291934 0.81915203911291934 0 -0.57357644374324357 1 I I #
coedge $-1 $216 $216 $-1 $313 reversed $133 $-1 #
edge $-1 $314 0 $314 6.2831853071796004 $134 $315 forward 7 unknown #
vertex $-1 $137 $316 #
ellipse-curve $-1 60.336160498232637 13.010344057712508 5.7685199102411717 0.57357644374324357 0 0.81915203911291934 0.81915203911291934 0 -0.57357644374324357 1 I I #
face $-1 $-1 $317 $29 $-1 $318 reversed single #
loop $-1 $-1 $319 $138 #
plane-surface $-1 0 35.426177843068665 0 0 -1 0 0 0 -1 forward_v I I I I #
coedge $-1 $320 $141 $143 $229 forward $87 $-1 #
coedge $-1 $141 $320 $319 $321 reversed $87 $-1 #
coedge $-1 $322 $144 $141 $226 forward $139 $-1 #
edge $-1 $232 4.2356886374820668 $323 22.205555682885088 $225 $324 forward 7 unknown #
coedge $-1 $325 $326 $142 $228 forward $317 $-1 #
edge $-1 $327 -34.780257641197309 $231 -29.030023978543259 $227 $328 forward 7 unknown #
edge $-1 $232 -6.9360349844342473 $327 5.0869049068944123e-014 $143 $329 forward 7 unknown #
coedge $-1 $144 $322 $325 $330 forward $139 $-1 #
vertex $-1 $228 $331 #
vertex $-1 $145 $332 #
straight-curve $-1 -86.862200420301107 17.456310797665644 9.2843030979207128 1 0 0 I I #
coedge $-1 $234 $234 $-1 $333 reversed $148 $-1 #
edge $-1 $334 0 $334 6.2831853071796004 $149 $335 forward 7 unknown #
vertex $-1 $152 $336 #
ellipse-curve $-1 -63.417928424169318 22.590558524923651 6.4091862665936974 -0.82903758062907751 0 0.55919289150049634 0.83878933725074445 0 1.2435563709436162 1 I I #
coedge $-1 $238 $238 $-1 $337 reversed $155 $-1 #
edge $-1 $338 0 $338 6.2831853071796004 $156 $339 forward 7 unknown #
vertex $-1 $159 $340 #
ellipse-curve $-1 -63.417928424169318 30.291930115810665 6.4091862665936974 -0.82903758062907751 0 0.55919289150049634 0.83878933725074445 0 1.2435563709436162 1 I I #
face $-1 $-1 $175 $24 $-1 $341 reversed single #
loop $-1 $-1 $258 $160 #
plane-surface $-1 0 35.426177843068665 0 0 -1 0 0 0 -1 forward_v I I I I #
coedge $-1 $342 $256 $259 $343 forward $161 $-1 #
coedge $-1 $262 $163 $164 $250 reversed $101 $-1 #
coedge $-1 $256 $342 $163 $248 reversed $161 $-1 #
edge $-1 $263 -9.2843030979207093 $344 9.2843030979207093 $247 $345 forward 7 unknown #
coedge $-1 $165 $164 $342 $346 forward $65 $-1 #
edge $-1 $254 -65.357219153416537 $344 65.357219153416537 $246 $347 forward 7 unknown #
coedge $-1 $259 $258 $165 $252 reversed $243 $-1 #
edge $-1 $348 -65.357219153416537 $253 65.357219153416537 $251 $349 forward 7 unknown #
vertex $-1 $167 $350 #
vertex $-1 $265 $351 #
straight-curve $-1 65.357219153416537 0 -9.2843030979207093 0 -1 0 I I #
coedge $-1 $245 $247 $168 $257 reversed $161 $-1 #
edge $-1 $260 -35.426177843068665 $263 35.426177843068665 $256 $352 forward 7 unknown #
coedge $-1 $251 $169 $174 $266 forward $243 $-1 #
coedge $-1 $169 $251 $245 $343 reversed $243 $-1 #
vertex $-1 $170 $353 #
straight-curve $-1 0 35.426177843068665 9.2843030979207093 -1 0 0 I I #
coedge $-1 $171 $246 $173 $265 reversed $101 $-1 #
vertex $-1 $257 $354 #
straight-curve $-1 0 -35.426177843068665 9.2843030979207093 1 0 0 I I #
edge $-1 $176 -9.2843030979207093 $254 9.2843030979207093 $173 $355 forward 7 unknown #
edge $-1 $177 -9.2843030979207093 $253 9.2843030979207093 $174 $356 forward 7 unknown #
point $-1 65.357219153416537 -35.426177843068665 9.2843030979207093 #
point $-1 65.357219153416537 35.426177843068665 9.2843030979207093 #
face $-1 $-1 $192 $25 $-1 $357 reversed single #
loop $-1 $-1 $276 $179 #
plane-surface $-1 0 0 9.2843030979207093 0 0 1 1 0 0 forward_v I I I I #
coedge $-1 $358 $182 $187 $281 forward $109 $-1 #
coedge $-1 $182 $358 $359 $360 reversed $109 $-1 #
coedge $-1 $184 $183 $182 $275 reversed $69 $-1 #
edge $-1 $361 -5.5348097933783453 $286 -1.9641768157063826 $182 $362 forward 7 unknown #
coedge $-1 $359 $363 $184 $277 forward $270 $-1 #
edge $-1 $279 -65.357219153416537 $361 65.357219153416537 $276 $364 forward 7 unknown #
coedge $-1 $191 $185 $363 $365 reversed $192 $-1 #
vertex $-1 $186 $366 #
straight-curve $-1 65.357219153416537 -28.030260117156018 3.749493304542364 0 0 1 I I #
edge $-1 $286 12.166150627099848 $284 19.562068353012492 $272 $367 forward 7 unknown #
coedge $-1 $368 $188 $191 $288 reversed $180 $-1 #
coedge $-1 $188 $368 $358 $369 forward $180 $-1 #
vertex $-1 $189 $370 #
straight-curve $-1 0 -35.426177843068665 5.7136701202487465 1 0 0 I I #
vertex $-1 $281 $371 #
straight-curve $-1 0 -28.030260117156018 5.7136701202487465 1 0 0 I I #
edge $-1 $372 -9.2843030979207093 $193 -5.7136701202487465 $191 $373 forward 7 unknown #
point $-1 65.357219153416537 -35.426177843068665 5.7136701202487465 #
point $-1 65.357219153416537 -28.030260117156018 5.7136701202487465 #
plane-surface $-1 0 0 9.2843030979207093 0 0 1 1 0 0 forward_v I I I I #
coedge $-1 $302 $301 $294 $374 forward $197 $-1 #
coedge $-1 $294 $199 $201 $298 reversed $117 $-1 #
coedge $-1 $199 $293 $292 $374 reversed $117 $-1 #
coedge $-1 $207 $202 $199 $296 forward $208 $-1 #
edge $-1 $299 38.686630271647111 $375 48.728747582014911 $295 $376 forward 7 unknown #
coedge $-1 $201 $200 $302 $377 reversed $73 $-1 #
edge $-1 $378 -130.71443830683307 $299 -118.45527659951111 $293 $379 forward 7 unknown #
vertex $-1 $203 $380 #
straight-curve $-1 55.31510184304873 5.0414167646627313 9.2843030979207199 0 -1 0 I I #
coedge $-1 $292 $204 $207 $306 reversed $197 $-1 #
coedge $-1 $204 $292 $297 $377 forward $197 $-1 #
vertex $-1 $205 $381 #
straight-curve $-1 65.357219153416537 16.913691428895227 92.151229036516384 0 0 1 I I #
straight-curve $-1 -41.717779527125671 16.913691428895227 77.227459392490559 0.81915203911291934 0 -0.57357644374324357 I I #
edge $-1 $375 3.2519756297556981 $209 16.913691428895227 $301 $382 forward 7 unknown #
point $-1 65.357219153416537 16.913691428895227 9.2843030979207093 #
point $-1 55.315101843048737 16.913691428895227 9.2843030979207128 #
edge $-1 $383 1 $383 0 $212 $-1 forward 7 unknown #
vertex $-1 $213 $384 #
ellipse-curve $-1 59.591230564459714 7.1553230009384237 4.7046497305942863 0.57357644374324357 0 0.81915203911291934 0.81915203911291934 0 -0.57357644374324357 1 I I #
point $-1 61.155312537345559 7.1553230009384237 5.1949434664979259 #
edge $-1 $385 1 $385 0 $216 $-1 forward 7 unknown #
vertex $-1 $217 $386 #
ellipse-curve $-1 59.591230564459714 13.010344057712508 4.7046497305942863 0.57357644374324357 0 0.81915203911291934 0.81915203911291934 0 -0.57357644374324357 1 I I #
point $-1 61.155312537345559 13.010344057712508 5.1949434664979259 #
loop $-1 $-1 $227 $220 #
plane-surface $-1 -65.357219153416537 0 0 1 0 0 0 0 -1 forward_v I I I I #
coedge $-1 $387 $388 $224 $321 forward $221 $-1 #
coedge $-1 $224 $223 $326 $389 reversed $87 $-1 #
edge $-1 $323 9.8726730077867124 $390 16.808707992221009 $319 $391 forward 7 unknown #
coedge $-1 $230 $225 $388 $392 forward $139 $-1 #
vertex $-1 $392 $393 #
straight-curve $-1 -61.478637694922128 13.220622160183577 9.2843030979207093 0 1 0 I I #
coedge $-1 $394 $227 $230 $330 reversed $317 $-1 #
coedge $-1 $227 $394 $320 $389 forward $317 $-1 #
vertex $-1 $228 $395 #
straight-curve $-1 -65.357219153416537 17.456310797665644 38.314327076463968 0 0 1 I I #
straight-curve $-1 -65.357219153416509 17.456310797665644 3.5340694352667015 -0.55919289150049634 0 -0.82903758062907751 I I #
edge $-1 $396 -35.426177843068665 $231 -17.456310797665644 $325 $397 forward 7 unknown #
point $-1 -65.357219153416537 17.456310797665644 9.2843030979207093 #
point $-1 -61.478637694922121 17.456310797665644 9.2843030979207093 #
edge $-1 $398 1 $398 0 $234 $-1 forward 7 unknown #
vertex $-1 $235 $399 #
ellipse-curve $-1 -59.672192571042949 22.590558524923651 3.882655610507598 -0.82903758062907751 0 0.55919289150049634 0.83878933725074445 0 1.2435563709436162 1 I I #
point $-1 -62.579139086918609 22.590558524923651 7.6527426375373366 #
edge $-1 $400 1 $400 0 $238 $-1 forward 7 unknown #
vertex $-1 $239 $401 #
ellipse-curve $-1 -59.672192571042949 30.291930115810665 3.882655610507598 -0.82903758062907751 0 0.55919289150049634 0.83878933725074445 0 1.2435563709436162 1 I I #
point $-1 -62.579139086918609 30.291930115810665 7.6527426375373366 #
plane-surface $-1 65.357219153416537 0 0 -1 0 0 0 0 1 forward_v I I I I #
coedge $-1 $247 $245 $249 $346 reversed $161 $-1 #
edge $-1 $260 -9.2843030979207093 $348 9.2843030979207093 $259 $402 forward 7 unknown #
vertex $-1 $346 $403 #
straight-curve $-1 -65.357219153416537 -35.426177843068665 0 0 0 -1 I I #
edge $-1 $344 -35.426177843068665 $348 35.426177843068665 $342 $404 forward 7 unknown #
straight-curve $-1 0 -35.426177843068665 -9.2843030979207093 -1 0 0 I I #
vertex $-1 $252 $405 #
straight-curve $-1 0 35.426177843068665 -9.2843030979207093 1 0 0 I I #
point $-1 65.357219153416537 35.426177843068665 -9.2843030979207093 #
point $-1 65.357219153416537 -35.426177843068665 -9.2843030979207093 #
straight-curve $-1 -65.357219153416537 0 9.2843030979207093 0 -1 0 I I #
point $-1 -65.357219153416537 35.426177843068665 9.2843030979207093 #
point $-1 -65.357219153416537 -35.426177843068665 9.2843030979207093 #
straight-curve $-1 65.357219153416537 -35.426177843068665 0 0 0 -1 I I #
straight-curve $-1 65.357219153416537 35.426177843068665 0 0 0 -1 I I #
plane-surface $-1 65.357219153416537 0 0 -1 0 0 0 0 1 forward_v I I I I #
coedge $-1 $273 $272 $283 $369 reversed $109 $-1 #
coedge $-1 $406 $276 $273 $360 forward $270 $-1 #
edge $-1 $361 28.030260117156018 $407 35.426177843068665 $273 $408 forward 7 unknown #
vertex $-1 $360 $409 #
straight-curve $-1 -65.357219153416537 -28.030260117156018 3.749493304542364 0 0 -1 I I #
coedge $-1 $276 $406 $278 $365 forward $270 $-1 #
straight-curve $-1 0 -28.030260117156018 9.2843030979207093 -1 0 0 I I #
edge $-1 $372 -35.426177843068665 $279 -28.030260117156018 $278 $410 forward 7 unknown #
point $-1 65.357219153416537 -28.030260117156018 9.2843030979207093 #
straight-curve $-1 -65.357219153416537 -15.864109490056171 5.7136701202487465 0 -1 0 I I #
coedge $-1 $283 $282 $406 $411 reversed $180 $-1 #
edge $-1 $407 -9.2843030979207093 $284 -5.7136701202487465 $358 $412 forward 7 unknown #
point $-1 -65.357219153416537 -35.426177843068665 5.7136701202487465 #
point $-1 -65.357219153416537 -28.030260117156018 5.7136701202487465 #
vertex $-1 $365 $413 #
straight-curve $-1 65.357219153416537 -35.426177843068665 0 0 0 -1 I I #
edge $-1 $375 82.866925938595671 $378 89.898492313954748 $292 $414 forward 7 unknown #
vertex $-1 $306 $415 #
straight-curve $-1 16.628471571401626 3.2519756297556981 9.2843030979207128 1 0 0 I I #
edge $-1 $378 -1.7894411349070332 $303 11.872274664232496 $302 $416 forward 7 unknown #
vertex $-1 $377 $417 #
straight-curve $-1 -41.717779527125671 3.2519756297556981 77.227459392490559 -0.81915203911291934 0 0.57357644374324357 I I #
point $-1 55.315101843048737 3.2519756297556981 9.2843030979207128 #
point $-1 65.357219153416537 16.913691428895227 2.2527367225616359 #
straight-curve $-1 65.357219153416537 0 9.2843030979207093 0 1 0 I I #
vertex $-1 $309 $418 #
point $-1 60.410382603572629 7.1553230009384237 4.1310732868510422 #
vertex $-1 $313 $419 #
point $-1 60.410382603572629 13.010344057712508 4.1310732868510422 #
coedge $-1 $388 $319 $394 $420 reversed $221 $-1 #
coedge $-1 $319 $387 $322 $392 reversed $221 $-1 #
edge $-1 $390 -22.205555682885088 $327 -4.2356886374820668 $326 $421 forward 7 unknown #
vertex $-1 $321 $422 #
straight-curve $-1 -55.957909128858972 35.426177843068665 17.469120042638206 -0.55919289150049634 0 -0.82903758062907751 I I #
edge $-1 $323 61.478637694922121 $396 65.357219153416537 $388 $423 forward 7 unknown #
point $-1 -61.478637694922121 35.426177843068665 9.2843030979207093 #
coedge $-1 $326 $325 $387 $420 forward $317 $-1 #
point $-1 -65.357219153416537 17.456310797665644 3.5340694352666593 #
vertex $-1 $392 $424 #
straight-curve $-1 -65.357219153416537 0 9.2843030979207093 0 -1 0 I I #
vertex $-1 $333 $425 #
point $-1 -58.833403233792204 22.590558524923651 5.1262119814512142 #
vertex $-1 $337 $426 #
point $-1 -58.833403233792204 30.291930115810665 5.1262119814512142 #
straight-curve $-1 -65.357219153416537 35.426177843068665 0 0 0 -1 I I #
point $-1 -65.357219153416537 -35.426177843068665 -9.2843030979207093 #
straight-curve $-1 -65.357219153416537 0 -9.2843030979207093 0 1 0 I I #
point $-1 -65.357219153416537 35.426177843068665 -9.2843030979207093 #
coedge $-1 $363 $359 $368 $411 forward $270 $-1 #
vertex $-1 $360 $427 #
straight-curve $-1 -65.357219153416537 0 9.2843030979207093 0 -1 0 I I #
point $-1 -65.357219153416537 -28.030260117156018 9.2843030979207093 #
straight-curve $-1 65.357219153416537 0 9.2843030979207093 0 1 0 I I #
edge $-1 $407 -65.357219153416537 $372 65.357219153416537 $368 $428 forward 7 unknown #
straight-curve $-1 -65.357219153416537 -35.426177843068665 0 0 0 -1 I I #
point $-1 65.357219153416537 -35.426177843068665 9.2843030979207093 #
straight-curve $-1 65.357219153416537 3.2519756297556981 92.151229036516384 0 0 -1 I I #
point $-1 65.357219153416537 3.2519756297556981 9.2843030979207093 #
straight-curve $-1 65.357219153416551 5.0414167646627313 2.2527367225616359 0 1 0 I I #
point $-1 65.357219153416537 3.2519756297556981 2.2527367225616359 #
point $-1 59.017654120716465 7.1553230009384237 3.8854976914813668 #
point $-1 59.017654120716465 13.010344057712508 3.8854976914813668 #
edge $-1 $396 -9.2843030979207093 $390 -3.5340694352666593 $387 $429 forward 7 unknown #
straight-curve $-1 -65.357219153416537 13.220622160183577 3.5340694352666584 0 -1 0 I I #
point $-1 -65.357219153416537 35.426177843068665 3.5340694352666593 #
straight-curve $-1 0 35.426177843068665 9.2843030979207093 -1 0 0 I I #
point $-1 -65.357219153416537 35.426177843068665 9.2843030979207093 #
point $-1 -58.428636200099326 22.590558524923651 3.0438662732568531 #
point $-1 -58.428636200099326 30.291930115810665 3.0438662732568531 #
point $-1 -65.357219153416537 -35.426177843068665 9.2843030979207093 #
straight-curve $-1 0 -35.426177843068665 9.2843030979207093 1 0 0 I I #
straight-curve $-1 -65.357219153416537 35.426177843068665 0 0 0 -1 I I #
End-of-ACIS-data 