500 0 14 0           
7 Unknown 11 ACIS 5.0 NT 24 Fri Mar 26 00:52:56 1999 
-1 9.9999999999999995e-007 1e-010 
body $-1 $14 $-1 $15 #
body $-1 $16 $-1 $17 #
body $-1 $18 $-1 $19 #
body $-1 $20 $-1 $21 #
body $-1 $22 $-1 $23 #
body $-1 $24 $-1 $25 #
body $-1 $26 $-1 $27 #
body $-1 $28 $-1 $29 #
body $-1 $30 $-1 $31 #
body $-1 $32 $-1 $33 #
body $-1 $34 $-1 $35 #
body $-1 $36 $-1 $37 #
body $-1 $38 $-1 $39 #
body $-1 $40 $-1 $41 #
lump $-1 $-1 $42 $0 #
transform $-1 1 0 0 0 1 0 0 0 1 71.257057405316317 32.462224934167281 13.410593213335229 1 rotate no_reflect no_shear #
lump $-1 $-1 $43 $1 #
transform $-1 1 0 0 0 1 0 0 0 1 71.257057405316317 32.462224934167281 13.410593213335229 1 rotate no_reflect no_shear #
lump $-1 $-1 $44 $2 #
transform $-1 1 0 0 0 1 0 0 0 1 71.257057405316317 32.462224934167281 13.410593213335229 1 rotate no_reflect no_shear #
lump $-1 $-1 $45 $3 #
transform $-1 1 0 0 0 1 0 0 0 1 71.257057405316317 32.462224934167281 13.410593213335229 1 rotate no_reflect no_shear #
lump $-1 $-1 $46 $4 #
transform $-1 1 0 0 0 1 0 0 0 1 71.257057405316317 32.462224934167281 13.410593213335229 1 rotate no_reflect no_shear #
lump $-1 $-1 $47 $5 #
transform $-1 1 0 0 0 1 0 0 0 1 71.257057405316317 32.462224934167281 13.410593213335229 1 rotate no_reflect no_shear #
lump $-1 $-1 $48 $6 #
transform $-1 1 0 0 0 1 0 0 0 1 71.257057405316317 32.462224934167281 13.410593213335229 1 rotate no_reflect no_shear #
lump $-1 $-1 $49 $7 #
transform $-1 1 0 0 0 1 0 0 0 1 71.257057405316317 32.462224934167281 13.410593213335229 1 rotate no_reflect no_shear #
lump $-1 $-1 $50 $8 #
transform $-1 1 0 0 0 1 0 0 0 1 71.257057405316317 32.462224934167281 13.410593213335229 1 rotate no_reflect no_shear #
lump $-1 $-1 $51 $9 #
transform $-1 1 0 0 0 1 0 0 0 1 71.257057405316317 32.462224934167281 13.410593213335229 1 rotate no_reflect no_shear #
lump $-1 $-1 $52 $10 #
transform $-1 1 0 0 0 1 0 0 0 1 71.257057405316317 32.462224934167281 13.410593213335229 1 rotate no_reflect no_shear #
lump $-1 $-1 $53 $11 #
transform $-1 1 0 0 0 1 0 0 0 1 71.257057405316317 32.462224934167281 13.410593213335229 1 rotate no_reflect no_shear #
lump $-1 $-1 $54 $12 #
transform $-1 1 0 0 0 1 0 0 0 1 71.257057405316317 32.462224934167281 13.410593213335229 1 rotate no_reflect no_shear #
lump $-1 $-1 $55 $13 #
transform $-1 1 0 0 0 1 0 0 0 1 71.257057405316317 32.462224934167281 13.410593213335229 1 rotate no_reflect no_shear #
shell $-1 $-1 $-1 $56 $-1 $14 #
shell $-1 $-1 $-1 $57 $-1 $16 #
shell $-1 $-1 $-1 $58 $-1 $18 #
shell $-1 $-1 $-1 $59 $-1 $20 #
shell $-1 $-1 $-1 $60 $-1 $22 #
shell $-1 $-1 $-1 $61 $-1 $24 #
shell $-1 $-1 $-1 $62 $-1 $26 #
shell $-1 $-1 $-1 $63 $-1 $28 #
shell $-1 $-1 $-1 $64 $-1 $30 #
shell $-1 $-1 $-1 $65 $-1 $32 #
shell $-1 $-1 $-1 $66 $-1 $34 #
shell $-1 $-1 $-1 $67 $-1 $36 #
shell $-1 $-1 $-1 $68 $-1 $38 #
shell $-1 $-1 $-1 $69 $-1 $40 #
face $-1 $70 $71 $42 $-1 $72 forward single #
face $-1 $73 $74 $43 $-1 $75 forward single #
face $-1 $76 $77 $44 $-1 $78 reversed single #
face $-1 $79 $80 $45 $-1 $81 forward single #
face $-1 $82 $83 $46 $-1 $84 forward single #
face $-1 $85 $86 $47 $-1 $87 reversed single #
face $-1 $88 $89 $48 $-1 $90 forward single #
face $-1 $91 $92 $49 $-1 $93 forward single #
face $-1 $94 $95 $50 $-1 $96 reversed single #
face $-1 $97 $98 $51 $-1 $99 forward single #
face $-1 $100 $101 $52 $-1 $102 forward single #
face $-1 $103 $104 $53 $-1 $105 reversed single #
face $-1 $106 $107 $54 $-1 $108 forward single #
face $-1 $109 $110 $55 $-1 $111 forward single #
face $-1 $112 $113 $42 $-1 $114 reversed single #
loop $-1 $-1 $115 $56 #
plane-surface $-1 0 0 13.410593213335229 0 0 1 1 0 0 forward_v I I I I #
face $-1 $116 $117 $43 $-1 $118 reversed single #
loop $-1 $-1 $119 $57 #
plane-surface $-1 0 -32.462224934167281 0 0 1 0 0 0 1 forward_v I I I I #
face $-1 $120 $121 $44 $-1 $122 reversed single #
loop $-1 $-1 $123 $58 #
plane-surface $-1 -64.274786419846137 121.1821023267256 129.67117293483096 1 0 0 0 -0.85716730853699208 -0.51503806187062418 forward_v I I I I #
face $-1 $124 $125 $45 $-1 $126 forward single #
loop $-1 $127 $128 $59 #
cone-surface $-1 -57.534554552542865 25.839300014070528 5.3447144203844825 0 -0.85716730853699208 -0.51503806187062418 2 0 0 1 I I 0 1 2 forward I I I I #
face $-1 $129 $130 $46 $-1 $131 forward single #
loop $-1 $132 $133 $60 #
cone-surface $-1 -47.424206751587967 25.839300014070528 5.3447144203844825 0 -0.85716730853699208 -0.51503806187062418 2 0 0 1 I I 0 1 2 forward I I I I #
face $-1 $134 $135 $47 $-1 $136 reversed single #
loop $-1 $-1 $137 $61 #
plane-surface $-1 -29.288532651802527 121.1821023267256 129.67117293483096 1 0 0 0 -0.85716730853699208 -0.51503806187062418 forward_v I I I I #
face $-1 $138 $139 $48 $-1 $140 forward single #
loop $-1 $141 $142 $62 #
cone-surface $-1 -22.548300784499254 25.839300014070528 5.3447144203844825 0 -0.85716730853699208 -0.51503806187062418 2 0 0 1 I I 0 1 2 forward I I I I #
face $-1 $143 $144 $49 $-1 $145 forward single #
loop $-1 $146 $147 $63 #
cone-surface $-1 -12.437952983544356 25.839300014070528 5.3447144203844825 0 -0.85716730853699208 -0.51503806187062418 2 0 0 1 I I 0 1 2 forward I I I I #
face $-1 $148 $149 $50 $-1 $150 reversed single #
loop $-1 $-1 $151 $64 #
plane-surface $-1 5.6977211162410857 121.1821023267256 129.67117293483096 1 0 0 0 -0.85716730853699208 -0.51503806187062418 forward_v I I I I #
face $-1 $152 $153 $51 $-1 $154 forward single #
loop $-1 $155 $156 $65 #
cone-surface $-1 12.437952983544363 25.839300014070528 5.3447144203844825 0 -0.85716730853699208 -0.51503806187062418 2 0 0 1 I I 0 1 2 forward I I I I #
face $-1 $157 $158 $52 $-1 $159 forward single #
loop $-1 $160 $161 $66 #
cone-surface $-1 22.548300784499247 25.839300014070528 5.3447144203844825 0 -0.85716730853699208 -0.51503806187062418 2 0 0 1 I I 0 1 2 forward I I I I #
face $-1 $162 $163 $53 $-1 $164 reversed single #
loop $-1 $-1 $165 $67 #
plane-surface $-1 40.683974884284694 121.1821023267256 129.67117293483096 1 0 0 0 -0.85716730853699208 -0.51503806187062418 forward_v I I I I #
face $-1 $166 $167 $54 $-1 $168 forward single #
loop $-1 $169 $170 $68 #
cone-surface $-1 47.424206751587974 25.839300014070528 5.3447144203844825 0 -0.85716730853699208 -0.51503806187062418 2 0 0 1 I I 0 1 2 forward I I I I #
face $-1 $171 $172 $55 $-1 $173 forward single #
loop $-1 $174 $175 $69 #
cone-surface $-1 57.534554552542858 25.839300014070528 5.3447144203844825 0 -0.85716730853699208 -0.51503806187062418 2 0 0 1 I I 0 1 2 forward I I I I #
face $-1 $176 $177 $42 $-1 $178 reversed single #
loop $-1 $-1 $179 $70 #
plane-surface $-1 0 0 -13.410593213335229 0 0 1 1 0 0 forward_v I I I I #
coedge $-1 $180 $181 $182 $183 forward $71 $-1 #
face $-1 $184 $185 $43 $-1 $186 forward single #
loop $-1 $-1 $187 $73 #
plane-surface $-1 -71.257057405316317 0 0 1 0 0 0 0 -1 forward_v I I I I #
coedge $-1 $188 $189 $190 $191 forward $74 $-1 #
face $-1 $192 $193 $44 $-1 $194 reversed single #
loop $-1 $-1 $195 $76 #
plane-surface $-1 -52.479380652065416 -0.97633789403626281 56.270979453555114 0 0.85716730853699208 0.51503806187062418 1 0 0 forward_v I I I I #
coedge $-1 $196 $197 $198 $199 reversed $77 $-1 #
face $-1 $-1 $200 $45 $-1 $201 forward single #
loop $-1 $202 $203 $79 #
cone-surface $-1 -57.534554552542865 22.201930539207567 3.1591624213957807 0 -0.85716730853699208 -0.51503806187062418 1 0 0 1 I I -0.70710678118654735 0.70710678118654768 1 forward I I I I #
loop $-1 $-1 $204 $59 #
coedge $-1 $128 $128 $205 $206 reversed $80 $-1 #
face $-1 $-1 $207 $46 $-1 $208 forward single #
loop $-1 $209 $210 $82 #
cone-surface $-1 -47.424206751587967 22.201930539207567 3.1591624213957807 0 -0.85716730853699208 -0.51503806187062418 1 0 0 1 I I -0.70710678118654735 0.70710678118654768 1 forward I I I I #
loop $-1 $-1 $211 $60 #
coedge $-1 $133 $133 $212 $213 reversed $83 $-1 #
face $-1 $214 $215 $47 $-1 $216 reversed single #
loop $-1 $-1 $217 $85 #
plane-surface $-1 -17.493126884021805 -0.97633789403626281 56.270979453555114 0 0.85716730853699208 0.51503806187062418 1 0 0 forward_v I I I I #
coedge $-1 $218 $219 $220 $221 reversed $86 $-1 #
face $-1 $-1 $222 $48 $-1 $223 forward single #
loop $-1 $224 $225 $88 #
cone-surface $-1 -22.548300784499254 22.201930539207567 3.1591624213957807 0 -0.85716730853699208 -0.51503806187062418 1 0 0 1 I I -0.70710678118654735 0.70710678118654768 1 forward I I I I #
loop $-1 $-1 $226 $62 #
coedge $-1 $142 $142 $227 $228 reversed $89 $-1 #
face $-1 $-1 $229 $49 $-1 $230 forward single #
loop $-1 $231 $232 $91 #
cone-surface $-1 -12.437952983544356 22.201930539207567 3.1591624213957807 0 -0.85716730853699208 -0.51503806187062418 1 0 0 1 I I -0.70710678118654735 0.70710678118654768 1 forward I I I I #
loop $-1 $-1 $233 $63 #
coedge $-1 $147 $147 $234 $235 reversed $92 $-1 #
face $-1 $236 $237 $50 $-1 $238 reversed single #
loop $-1 $-1 $239 $94 #
plane-surface $-1 17.493126884021805 -0.97633789403626281 56.270979453555114 0 0.85716730853699208 0.51503806187062418 1 0 0 forward_v I I I I #
coedge $-1 $240 $241 $242 $243 reversed $95 $-1 #
face $-1 $-1 $244 $51 $-1 $245 forward single #
loop $-1 $246 $247 $97 #
cone-surface $-1 12.437952983544363 22.201930539207567 3.1591624213957807 0 -0.85716730853699208 -0.51503806187062418 1 0 0 1 I I -0.70710678118654735 0.70710678118654768 1 forward I I I I #
loop $-1 $-1 $248 $65 #
coedge $-1 $156 $156 $249 $250 reversed $98 $-1 #
face $-1 $-1 $251 $52 $-1 $252 forward single #
loop $-1 $253 $254 $100 #
cone-surface $-1 22.548300784499247 22.201930539207567 3.1591624213957807 0 -0.85716730853699208 -0.51503806187062418 1 0 0 1 I I -0.70710678118654735 0.70710678118654768 1 forward I I I I #
loop $-1 $-1 $255 $66 #
coedge $-1 $161 $161 $256 $257 reversed $101 $-1 #
face $-1 $258 $259 $53 $-1 $260 reversed single #
loop $-1 $-1 $261 $103 #
plane-surface $-1 52.479380652065416 -0.97633789403626281 56.270979453555114 0 0.85716730853699208 0.51503806187062418 1 0 0 forward_v I I I I #
coedge $-1 $262 $263 $264 $265 reversed $104 $-1 #
face $-1 $-1 $266 $54 $-1 $267 forward single #
loop $-1 $268 $269 $106 #
cone-surface $-1 47.424206751587974 22.201930539207567 3.1591624213957807 0 -0.85716730853699208 -0.51503806187062418 1 0 0 1 I I -0.70710678118654735 0.70710678118654768 1 forward I I I I #
loop $-1 $-1 $270 $68 #
coedge $-1 $170 $170 $271 $272 reversed $107 $-1 #
face $-1 $-1 $273 $55 $-1 $274 forward single #
loop $-1 $275 $276 $109 #
cone-surface $-1 57.534554552542858 22.201930539207567 3.1591624213957807 0 -0.85716730853699208 -0.51503806187062418 1 0 0 1 I I -0.70710678118654735 0.70710678118654768 1 forward I I I I #
loop $-1 $-1 $277 $69 #
coedge $-1 $175 $175 $278 $279 reversed $110 $-1 #
face $-1 $280 $281 $42 $-1 $282 reversed single #
loop $-1 $-1 $283 $112 #
plane-surface $-1 0 -32.462224934167281 0 0 1 0 0 0 1 forward_v I I I I #
coedge $-1 $284 $285 $286 $287 forward $113 $-1 #
coedge $-1 $288 $115 $289 $290 forward $71 $-1 #
coedge $-1 $115 $288 $291 $292 forward $71 $-1 #
coedge $-1 $293 $294 $115 $183 reversed $295 $-1 #
edge $-1 $296 -32.462224934167281 $297 32.462224934167281 $182 $298 forward 7 unknown #
face $-1 $299 $300 $43 $-1 $301 reversed single #
loop $-1 $-1 $302 $116 #
plane-surface $-1 0 -39.556632151865699 2.3838133244500215 0 0 1 1 0 0 forward_v I I I I #
coedge $-1 $303 $304 $189 $305 forward $117 $-1 #
coedge $-1 $306 $119 $307 $308 reversed $74 $-1 #
coedge $-1 $119 $306 $187 $305 reversed $74 $-1 #
coedge $-1 $309 $302 $119 $191 reversed $185 $-1 #
edge $-1 $310 -71.257057405316317 $311 71.257057405316317 $190 $312 forward 7 unknown #
face $-1 $313 $314 $44 $-1 $315 forward single #
loop $-1 $-1 $316 $120 #
plane-surface $-1 -40.683974884284694 121.1821023267256 129.67117293483096 -1 0 0 0 0.85716730853699208 0.51503806187062418 forward_v I I I I #
coedge $-1 $317 $318 $319 $320 reversed $121 $-1 #
coedge $-1 $197 $123 $321 $322 reversed $77 $-1 #
coedge $-1 $123 $196 $317 $323 reversed $77 $-1 #
coedge $-1 $319 $324 $123 $199 forward $314 $-1 #
edge $-1 $325 28.128826229195518 $326 35.814271736737084 $198 $327 forward 7 unknown #
loop $-1 $-1 $205 $124 #
plane-surface $-1 -52.479380652065416 -0.97633789403626281 56.270979453555114 0 0.85716730853699208 0.51503806187062418 1 0 0 forward_v I I I I #
loop $-1 $-1 $328 $79 #
coedge $-1 $203 $203 $204 $329 reversed $125 $-1 #
coedge $-1 $204 $204 $203 $329 forward $127 $-1 #
coedge $-1 $205 $205 $128 $206 forward $200 $-1 #
edge $-1 $330 -3.8065875275749759e-016 $330 6.2831853071796004 $205 $331 forward 7 unknown #
loop $-1 $-1 $212 $129 #
plane-surface $-1 -52.479380652065416 -0.97633789403626281 56.270979453555114 0 0.85716730853699208 0.51503806187062418 1 0 0 forward_v I I I I #
loop $-1 $-1 $332 $82 #
coedge $-1 $210 $210 $211 $333 reversed $130 $-1 #
coedge $-1 $211 $211 $210 $333 forward $132 $-1 #
coedge $-1 $212 $212 $133 $213 forward $207 $-1 #
edge $-1 $334 -3.8065875275749759e-016 $334 6.2831853071796004 $212 $335 forward 7 unknown #
face $-1 $336 $337 $47 $-1 $338 forward single #
loop $-1 $-1 $339 $134 #
plane-surface $-1 -5.6977211162410857 121.1821023267256 129.67117293483096 -1 0 0 0 0.85716730853699208 0.51503806187062418 forward_v I I I I #
coedge $-1 $340 $341 $342 $343 reversed $135 $-1 #
coedge $-1 $219 $137 $344 $345 reversed $86 $-1 #
coedge $-1 $137 $218 $340 $346 reversed $86 $-1 #
coedge $-1 $342 $347 $137 $221 forward $337 $-1 #
edge $-1 $348 28.128826229195518 $349 35.814271736737084 $220 $350 forward 7 unknown #
loop $-1 $-1 $227 $138 #
plane-surface $-1 -17.493126884021805 -0.97633789403626281 56.270979453555114 0 0.85716730853699208 0.51503806187062418 1 0 0 forward_v I I I I #
loop $-1 $-1 $351 $88 #
coedge $-1 $225 $225 $226 $352 reversed $139 $-1 #
coedge $-1 $226 $226 $225 $352 forward $141 $-1 #
coedge $-1 $227 $227 $142 $228 forward $222 $-1 #
edge $-1 $353 -3.8065875275749759e-016 $353 6.2831853071796004 $227 $354 forward 7 unknown #
loop $-1 $-1 $234 $143 #
plane-surface $-1 -17.493126884021805 -0.97633789403626281 56.270979453555114 0 0.85716730853699208 0.51503806187062418 1 0 0 forward_v I I I I #
loop $-1 $-1 $355 $91 #
coedge $-1 $232 $232 $233 $356 reversed $144 $-1 #
coedge $-1 $233 $233 $232 $356 forward $146 $-1 #
coedge $-1 $234 $234 $147 $235 forward $229 $-1 #
edge $-1 $357 -3.8065875275749759e-016 $357 6.2831853071796004 $234 $358 forward 7 unknown #
face $-1 $359 $360 $50 $-1 $361 forward single #
loop $-1 $-1 $362 $148 #
plane-surface $-1 29.288532651802527 121.1821023267256 129.67117293483096 -1 0 0 0 0.85716730853699208 0.51503806187062418 forward_v I I I I #
coedge $-1 $363 $364 $365 $366 reversed $149 $-1 #
coedge $-1 $241 $151 $367 $368 reversed $95 $-1 #
coedge $-1 $151 $240 $363 $369 reversed $95 $-1 #
coedge $-1 $365 $370 $151 $243 forward $360 $-1 #
edge $-1 $371 28.128826229195518 $372 35.814271736737084 $242 $373 forward 7 unknown #
loop $-1 $-1 $249 $152 #
plane-surface $-1 17.493126884021805 -0.97633789403626281 56.270979453555114 0 0.85716730853699208 0.51503806187062418 1 0 0 forward_v I I I I #
loop $-1 $-1 $374 $97 #
coedge $-1 $247 $247 $248 $375 reversed $153 $-1 #
coedge $-1 $248 $248 $247 $375 forward $155 $-1 #
coedge $-1 $249 $249 $156 $250 forward $244 $-1 #
edge $-1 $376 -3.8065875275749759e-016 $376 6.2831853071796004 $249 $377 forward 7 unknown #
loop $-1 $-1 $256 $157 #
plane-surface $-1 17.493126884021805 -0.97633789403626281 56.270979453555114 0 0.85716730853699208 0.51503806187062418 1 0 0 forward_v I I I I #
loop $-1 $-1 $378 $100 #
coedge $-1 $254 $254 $255 $379 reversed $158 $-1 #
coedge $-1 $255 $255 $254 $379 forward $160 $-1 #
coedge $-1 $256 $256 $161 $257 forward $251 $-1 #
edge $-1 $380 -3.8065875275749759e-016 $380 6.2831853071796004 $256 $381 forward 7 unknown #
face $-1 $382 $383 $53 $-1 $384 forward single #
loop $-1 $-1 $385 $162 #
plane-surface $-1 64.274786419846137 121.1821023267256 129.67117293483096 -1 0 0 0 0.85716730853699208 0.51503806187062418 forward_v I I I I #
coedge $-1 $386 $387 $388 $389 reversed $163 $-1 #
coedge $-1 $263 $165 $390 $391 reversed $104 $-1 #
coedge $-1 $165 $262 $386 $392 reversed $104 $-1 #
coedge $-1 $388 $393 $165 $265 forward $383 $-1 #
edge $-1 $394 28.128826229195518 $395 35.814271736737084 $264 $396 forward 7 unknown #
loop $-1 $-1 $271 $166 #
plane-surface $-1 52.479380652065416 -0.97633789403626281 56.270979453555114 0 0.85716730853699208 0.51503806187062418 1 0 0 forward_v I I I I #
loop $-1 $-1 $397 $106 #
coedge $-1 $269 $269 $270 $398 reversed $167 $-1 #
coedge $-1 $270 $270 $269 $398 forward $169 $-1 #
coedge $-1 $271 $271 $170 $272 forward $266 $-1 #
edge $-1 $399 -3.8065875275749759e-016 $399 6.2831853071796004 $271 $400 forward 7 unknown #
loop $-1 $-1 $278 $171 #
plane-surface $-1 52.479380652065416 -0.97633789403626281 56.270979453555114 0 0.85716730853699208 0.51503806187062418 1 0 0 forward_v I I I I #
loop $-1 $-1 $401 $109 #
coedge $-1 $276 $276 $277 $402 reversed $172 $-1 #
coedge $-1 $277 $277 $276 $402 forward $174 $-1 #
coedge $-1 $278 $278 $175 $279 forward $273 $-1 #
edge $-1 $403 -3.8065875275749759e-016 $403 6.2831853071796004 $278 $404 forward 7 unknown #
face $-1 $405 $406 $42 $-1 $407 reversed single #
loop $-1 $-1 $408 $176 #
plane-surface $-1 -71.257057405316317 0 0 1 0 0 0 0 -1 forward_v I I I I #
coedge $-1 $409 $291 $410 $411 forward $177 $-1 #
coedge $-1 $412 $179 $409 $413 forward $113 $-1 #
coedge $-1 $179 $412 $414 $415 forward $113 $-1 #
coedge $-1 $294 $293 $179 $287 reversed $295 $-1 #
edge $-1 $416 -32.462224934167281 $417 32.462224934167281 $286 $418 forward 7 unknown #
coedge $-1 $181 $180 $419 $420 forward $71 $-1 #
coedge $-1 $421 $422 $180 $290 reversed $406 $-1 #
edge $-1 $297 -71.257057405316317 $423 71.257057405316317 $289 $424 forward 7 unknown #
coedge $-1 $283 $425 $181 $292 reversed $177 $-1 #
edge $-1 $426 -71.257057405316317 $296 71.257057405316317 $291 $427 forward 7 unknown #
coedge $-1 $286 $182 $425 $428 forward $295 $-1 #
coedge $-1 $182 $286 $421 $429 reversed $295 $-1 #
loop $-1 $-1 $293 $405 #
vertex $-1 $183 $430 #
vertex $-1 $183 $431 #
straight-curve $-1 71.257057405316317 0 13.410593213335229 0 1 0 I I #
face $-1 $432 $433 $43 $-1 $434 reversed single #
loop $-1 $-1 $435 $184 #
plane-surface $-1 0 -39.556632151865699 -1.0996585550623381 0 0 1 1 0 0 forward_v I I I I #
coedge $-1 $190 $436 $437 $438 forward $185 $-1 #
coedge $-1 $439 $187 $440 $441 reversed $117 $-1 #
coedge $-1 $187 $439 $309 $442 reversed $117 $-1 #
edge $-1 $310 -2.3838133244500215 $443 1.0996585550623381 $187 $444 forward 7 unknown #
coedge $-1 $189 $188 $445 $446 forward $74 $-1 #
coedge $-1 $437 $447 $188 $308 forward $448 $-1 #
edge $-1 $449 -1.0996585550623381 $311 2.3838133244500215 $307 $450 forward 7 unknown #
coedge $-1 $436 $190 $304 $442 forward $185 $-1 #
vertex $-1 $305 $451 #
vertex $-1 $438 $452 #
straight-curve $-1 0 -32.462224934167281 2.3838133244500215 1 0 0 I I #
face $-1 $-1 $453 $44 $-1 $454 reversed single #
loop $-1 $-1 $198 $192 #
plane-surface $-1 0 0 13.410593213335229 0 0 1 1 0 0 forward_v I I I I #
coedge $-1 $455 $456 $457 $458 reversed $193 $-1 #
coedge $-1 $459 $195 $197 $323 forward $121 $-1 #
coedge $-1 $195 $459 $455 $460 forward $121 $-1 #
coedge $-1 $457 $198 $195 $320 forward $314 $-1 #
edge $-1 $326 -38.035096093813429 $461 -14.444284558251987 $319 $462 forward 7 unknown #
coedge $-1 $463 $464 $196 $322 forward $453 $-1 #
edge $-1 $465 -64.215722965745584 $325 -51.424993254080249 $321 $466 forward 7 unknown #
edge $-1 $326 50.002357548345763 $465 64.924449868334591 $197 $467 forward 7 unknown #
coedge $-1 $198 $457 $463 $468 forward $314 $-1 #
vertex $-1 $322 $469 #
vertex $-1 $199 $470 #
straight-curve $-1 -64.274786419846137 60.591051163362799 13.410593213335233 0 -1 0 I I #
coedge $-1 $328 $328 $-1 $471 reversed $202 $-1 #
edge $-1 $472 0 $472 6.2831853071796004 $203 $473 forward 7 unknown #
vertex $-1 $206 $474 #
ellipse-curve $-1 -57.534554552542865 28.619502180396495 7.0152283575025605 0 0.85716730853699208 0.51503806187062418 2 0 0 1 I I #
coedge $-1 $332 $332 $-1 $475 reversed $209 $-1 #
edge $-1 $476 0 $476 6.2831853071796004 $210 $477 forward 7 unknown #
vertex $-1 $213 $478 #
ellipse-curve $-1 -47.424206751587967 28.619502180396495 7.0152283575025605 0 0.85716730853699208 0.51503806187062418 2 0 0 1 I I #
face $-1 $-1 $479 $47 $-1 $480 reversed single #
loop $-1 $-1 $220 $214 #
plane-surface $-1 0 0 13.410593213335229 0 0 1 1 0 0 forward_v I I I I #
coedge $-1 $481 $482 $483 $484 reversed $215 $-1 #
coedge $-1 $485 $217 $219 $346 forward $135 $-1 #
coedge $-1 $217 $485 $481 $486 forward $135 $-1 #
coedge $-1 $483 $220 $217 $343 forward $337 $-1 #
edge $-1 $349 -20.541969209791624 $487 3.048842325769817 $342 $488 forward 7 unknown #
coedge $-1 $489 $490 $218 $345 forward $479 $-1 #
edge $-1 $491 -64.215722965745584 $348 -51.424993254080249 $344 $492 forward 7 unknown #
edge $-1 $349 50.002357548345763 $491 64.924449868334591 $219 $493 forward 7 unknown #
coedge $-1 $220 $483 $489 $494 forward $337 $-1 #
vertex $-1 $221 $495 #
vertex $-1 $221 $496 #
straight-curve $-1 -29.288532651802527 60.591051163362799 13.410593213335233 0 -1 0 I I #
coedge $-1 $351 $351 $-1 $497 reversed $224 $-1 #
edge $-1 $498 0 $498 6.2831853071796004 $225 $499 forward 7 unknown #
vertex $-1 $228 $500 #
ellipse-curve $-1 -22.548300784499254 28.619502180396495 7.0152283575025605 0 0.85716730853699208 0.51503806187062418 2 0 0 1 I I #
coedge $-1 $355 $355 $-1 $501 reversed $231 $-1 #
edge $-1 $502 0 $502 6.2831853071796004 $232 $503 forward 7 unknown #
vertex $-1 $235 $504 #
ellipse-curve $-1 -12.437952983544356 28.619502180396495 7.0152283575025605 0 0.85716730853699208 0.51503806187062418 2 0 0 1 I I #
face $-1 $-1 $505 $50 $-1 $506 reversed single #
loop $-1 $-1 $242 $236 #
plane-surface $-1 0 0 13.410593213335229 0 0 1 1 0 0 forward_v I I I I #
coedge $-1 $507 $508 $509 $510 reversed $237 $-1 #
coedge $-1 $511 $239 $241 $369 forward $149 $-1 #
coedge $-1 $239 $511 $507 $512 forward $149 $-1 #
coedge $-1 $509 $242 $239 $366 forward $360 $-1 #
edge $-1 $372 -3.048842325769817 $513 20.541969209791624 $365 $514 forward 7 unknown #
coedge $-1 $515 $516 $240 $368 forward $505 $-1 #
edge $-1 $517 -64.215722965745584 $371 -51.424993254080249 $367 $518 forward 7 unknown #
edge $-1 $372 50.002357548345763 $517 64.924449868334591 $241 $519 forward 7 unknown #
coedge $-1 $242 $509 $515 $520 forward $360 $-1 #
vertex $-1 $243 $521 #
vertex $-1 $243 $522 #
straight-curve $-1 5.6977211162410857 60.591051163362799 13.410593213335233 0 -1 0 I I #
coedge $-1 $374 $374 $-1 $523 reversed $246 $-1 #
edge $-1 $524 0 $524 6.2831853071796004 $247 $525 forward 7 unknown #
vertex $-1 $250 $526 #
ellipse-curve $-1 12.437952983544363 28.619502180396495 7.0152283575025605 0 0.85716730853699208 0.51503806187062418 2 0 0 1 I I #
coedge $-1 $378 $378 $-1 $527 reversed $253 $-1 #
edge $-1 $528 0 $528 6.2831853071796004 $254 $529 forward 7 unknown #
vertex $-1 $257 $530 #
ellipse-curve $-1 22.548300784499247 28.619502180396495 7.0152283575025605 0 0.85716730853699208 0.51503806187062418 2 0 0 1 I I #
face $-1 $-1 $531 $53 $-1 $532 reversed single #
loop $-1 $-1 $264 $258 #
plane-surface $-1 0 0 13.410593213335229 0 0 1 1 0 0 forward_v I I I I #
coedge $-1 $533 $534 $535 $536 reversed $259 $-1 #
coedge $-1 $537 $261 $263 $392 forward $163 $-1 #
coedge $-1 $261 $537 $533 $538 forward $163 $-1 #
coedge $-1 $535 $264 $261 $389 forward $383 $-1 #
edge $-1 $395 14.444284558251987 $539 38.035096093813429 $388 $540 forward 7 unknown #
coedge $-1 $541 $542 $262 $391 forward $531 $-1 #
edge $-1 $543 -64.215722965745584 $394 -51.424993254080249 $390 $544 forward 7 unknown #
edge $-1 $395 50.002357548345763 $543 64.924449868334591 $263 $545 forward 7 unknown #
coedge $-1 $264 $535 $541 $546 forward $383 $-1 #
vertex $-1 $265 $547 #
vertex $-1 $265 $548 #
straight-curve $-1 40.683974884284694 60.591051163362799 13.410593213335233 0 -1 0 I I #
coedge $-1 $397 $397 $-1 $549 reversed $268 $-1 #
edge $-1 $550 0 $550 6.2831853071796004 $269 $551 forward 7 unknown #
vertex $-1 $272 $552 #
ellipse-curve $-1 47.424206751587974 28.619502180396495 7.0152283575025605 0 0.85716730853699208 0.51503806187062418 2 0 0 1 I I #
coedge $-1 $401 $401 $-1 $553 reversed $275 $-1 #
edge $-1 $554 0 $554 6.2831853071796004 $276 $555 forward 7 unknown #
vertex $-1 $279 $556 #
ellipse-curve $-1 57.534554552542858 28.619502180396495 7.0152283575025605 0 0.85716730853699208 0.51503806187062418 2 0 0 1 I I #
face $-1 $-1 $295 $42 $-1 $557 reversed single #
loop $-1 $-1 $421 $280 #
plane-surface $-1 0 32.462224934167281 0 0 -1 0 0 0 -1 forward_v I I I I #
coedge $-1 $558 $419 $422 $559 forward $281 $-1 #
coedge $-1 $425 $283 $284 $413 reversed $177 $-1 #
coedge $-1 $419 $558 $283 $411 reversed $281 $-1 #
edge $-1 $426 -13.410593213335229 $560 13.410593213335229 $410 $561 forward 7 unknown #
coedge $-1 $285 $284 $558 $562 forward $113 $-1 #
edge $-1 $417 -71.257057405316317 $560 71.257057405316317 $409 $563 forward 7 unknown #
coedge $-1 $422 $421 $285 $415 reversed $406 $-1 #
edge $-1 $564 -71.257057405316317 $416 71.257057405316317 $414 $565 forward 7 unknown #
vertex $-1 $287 $566 #
vertex $-1 $428 $567 #
straight-curve $-1 71.257057405316317 0 -13.410593213335229 0 -1 0 I I #
coedge $-1 $408 $410 $288 $420 reversed $281 $-1 #
edge $-1 $423 -32.462224934167281 $426 32.462224934167281 $419 $568 forward 7 unknown #
coedge $-1 $414 $289 $294 $429 forward $406 $-1 #
coedge $-1 $289 $414 $408 $559 reversed $406 $-1 #
vertex $-1 $290 $569 #
straight-curve $-1 0 32.462224934167281 13.410593213335229 -1 0 0 I I #
coedge $-1 $291 $409 $293 $428 reversed $177 $-1 #
vertex $-1 $420 $570 #
straight-curve $-1 0 -32.462224934167281 13.410593213335229 1 0 0 I I #
edge $-1 $296 -13.410593213335229 $417 13.410593213335229 $293 $571 forward 7 unknown #
edge $-1 $297 -13.410593213335229 $416 13.410593213335229 $294 $572 forward 7 unknown #
point $-1 71.257057405316317 -32.462224934167281 13.410593213335229 #
point $-1 71.257057405316317 32.462224934167281 13.410593213335229 #
face $-1 $-1 $448 $43 $-1 $573 reversed single #
loop $-1 $-1 $574 $299 #
plane-surface $-1 0 -46.651039369564117 0.64207738469384168 0 1 0 0 0 1 forward_v I I I I #
coedge $-1 $575 $445 $447 $576 forward $300 $-1 #
coedge $-1 $302 $309 $577 $578 forward $185 $-1 #
coedge $-1 $579 $307 $302 $438 reversed $448 $-1 #
edge $-1 $580 -7.0944072176984179 $311 7.0944072176984179 $437 $581 forward 7 unknown #
coedge $-1 $304 $303 $574 $582 reversed $117 $-1 #
coedge $-1 $445 $575 $303 $441 forward $300 $-1 #
edge $-1 $583 -7.0944072176984179 $443 7.0944072176984179 $303 $584 forward 7 unknown #
edge $-1 $310 -7.0944072176984179 $585 7.0944072176984179 $304 $586 forward 7 unknown #
vertex $-1 $305 $587 #
straight-curve $-1 -71.257057405316317 -32.462224934167281 0 0 0 -1 I I #
coedge $-1 $435 $440 $306 $446 reversed $300 $-1 #
edge $-1 $449 -71.257057405316317 $443 71.257057405316317 $445 $588 forward 7 unknown #
coedge $-1 $307 $579 $435 $576 reversed $448 $-1 #
loop $-1 $-1 $307 $432 #
vertex $-1 $308 $589 #
straight-curve $-1 71.257057405316317 -32.462224934167281 0 0 0 1 I I #
point $-1 -71.257057405316317 -32.462224934167281 2.3838133244500215 #
point $-1 71.257057405316317 -32.462224934167281 2.3838133244500215 #
loop $-1 $-1 $321 $313 #
plane-surface $-1 0 32.462224934167281 0 0 -1 0 0 0 -1 forward_v I I I I #
coedge $-1 $456 $316 $318 $460 reversed $193 $-1 #
coedge $-1 $316 $455 $590 $591 reversed $193 $-1 #
coedge $-1 $324 $319 $316 $458 forward $314 $-1 #
edge $-1 $461 -35.814271736737084 $592 -28.128826229195518 $457 $593 forward 7 unknown #
coedge $-1 $318 $317 $464 $594 reversed $121 $-1 #
edge $-1 $595 -64.924449868334591 $461 -50.002357548345763 $455 $596 forward 7 unknown #
vertex $-1 $320 $597 #
straight-curve $-1 -26.239690326032708 24.776779426625708 13.410593213335233 1 0 0 I I #
coedge $-1 $590 $321 $324 $468 reversed $453 $-1 #
coedge $-1 $321 $590 $459 $594 forward $453 $-1 #
vertex $-1 $322 $598 #
straight-curve $-1 -64.274786419846137 32.462224934167281 64.835586467415482 0 0 1 I I #
straight-curve $-1 -64.274786419846137 -0.97633789403626281 56.270979453555114 0 0.51503806187062418 -0.85716730853699208 I I #
edge $-1 $592 40.683974884284694 $325 64.274786419846137 $463 $599 forward 7 unknown #
point $-1 -64.274786419846137 32.462224934167281 13.410593213335229 #
point $-1 -64.274786419846137 24.776779426625712 13.410593213335233 #
edge $-1 $600 1 $600 0 $328 $-1 forward 7 unknown #
vertex $-1 $329 $601 #
ellipse-curve $-1 -57.534554552542865 23.05909784774456 3.674200483266405 0 0.85716730853699208 0.51503806187062418 2 0 0 1 I I #
point $-1 -55.534554552542865 28.619502180396495 7.0152283575025614 #
edge $-1 $602 1 $602 0 $332 $-1 forward 7 unknown #
vertex $-1 $333 $603 #
ellipse-curve $-1 -47.424206751587967 23.05909784774456 3.674200483266405 0 0.85716730853699208 0.51503806187062418 2 0 0 1 I I #
point $-1 -45.424206751587967 28.619502180396495 7.0152283575025614 #
loop $-1 $-1 $344 $336 #
plane-surface $-1 0 32.462224934167281 0 0 -1 0 0 0 -1 forward_v I I I I #
coedge $-1 $482 $339 $341 $486 reversed $215 $-1 #
coedge $-1 $339 $481 $604 $605 reversed $215 $-1 #
coedge $-1 $347 $342 $339 $484 forward $337 $-1 #
edge $-1 $487 -35.814271736737084 $606 -28.128826229195518 $483 $607 forward 7 unknown #
coedge $-1 $341 $340 $490 $608 reversed $135 $-1 #
edge $-1 $609 -64.924449868334591 $487 -50.002357548345763 $481 $610 forward 7 unknown #
vertex $-1 $343 $611 #
straight-curve $-1 -8.7465634420109026 24.776779426625708 13.410593213335233 1 0 0 I I #
coedge $-1 $604 $344 $347 $494 reversed $479 $-1 #
coedge $-1 $344 $604 $485 $608 forward $479 $-1 #
vertex $-1 $345 $612 #
straight-curve $-1 -29.288532651802527 32.462224934167281 64.835586467415482 0 0 1 I I #
straight-curve $-1 -29.288532651802527 -0.97633789403626281 56.270979453555114 0 0.51503806187062418 -0.85716730853699208 I I #
edge $-1 $606 5.6977211162410857 $348 29.288532651802527 $489 $613 forward 7 unknown #
point $-1 -29.288532651802527 32.462224934167281 13.410593213335229 #
point $-1 -29.288532651802527 24.776779426625712 13.410593213335233 #
edge $-1 $614 1 $614 0 $351 $-1 forward 7 unknown #
vertex $-1 $352 $615 #
ellipse-curve $-1 -22.548300784499254 23.05909784774456 3.674200483266405 0 0.85716730853699208 0.51503806187062418 2 0 0 1 I I #
point $-1 -20.548300784499254 28.619502180396495 7.0152283575025614 #
edge $-1 $616 1 $616 0 $355 $-1 forward 7 unknown #
vertex $-1 $356 $617 #
ellipse-curve $-1 -12.437952983544356 23.05909784774456 3.674200483266405 0 0.85716730853699208 0.51503806187062418 2 0 0 1 I I #
point $-1 -10.437952983544356 28.619502180396495 7.0152283575025614 #
loop $-1 $-1 $367 $359 #
plane-surface $-1 0 32.462224934167281 0 0 -1 0 0 0 -1 forward_v I I I I #
coedge $-1 $508 $362 $364 $512 reversed $237 $-1 #
coedge $-1 $362 $507 $618 $619 reversed $237 $-1 #
coedge $-1 $370 $365 $362 $510 forward $360 $-1 #
edge $-1 $513 -35.814271736737084 $620 -28.128826229195518 $509 $621 forward 7 unknown #
coedge $-1 $364 $363 $516 $622 reversed $149 $-1 #
edge $-1 $623 -64.924449868334591 $513 -50.002357548345763 $507 $624 forward 7 unknown #
vertex $-1 $366 $625 #
straight-curve $-1 8.7465634420109026 24.776779426625708 13.410593213335233 1 0 0 I I #
coedge $-1 $618 $367 $370 $520 reversed $505 $-1 #
coedge $-1 $367 $618 $511 $622 forward $505 $-1 #
vertex $-1 $368 $626 #
straight-curve $-1 5.6977211162410857 32.462224934167281 64.835586467415482 0 0 1 I I #
straight-curve $-1 5.6977211162410857 -0.97633789403626281 56.270979453555114 0 0.51503806187062418 -0.85716730853699208 I I #
edge $-1 $620 -29.288532651802527 $371 -5.6977211162410857 $515 $627 forward 7 unknown #
point $-1 5.6977211162410857 32.462224934167281 13.410593213335229 #
point $-1 5.6977211162410857 24.776779426625712 13.410593213335233 #
edge $-1 $628 1 $628 0 $374 $-1 forward 7 unknown #
vertex $-1 $375 $629 #
ellipse-curve $-1 12.437952983544363 23.05909784774456 3.674200483266405 0 0.85716730853699208 0.51503806187062418 2 0 0 1 I I #
point $-1 14.437952983544363 28.619502180396495 7.0152283575025614 #
edge $-1 $630 1 $630 0 $378 $-1 forward 7 unknown #
vertex $-1 $379 $631 #
ellipse-curve $-1 22.548300784499247 23.05909784774456 3.674200483266405 0 0.85716730853699208 0.51503806187062418 2 0 0 1 I I #
point $-1 24.548300784499247 28.619502180396495 7.0152283575025614 #
loop $-1 $-1 $390 $382 #
plane-surface $-1 0 32.462224934167281 0 0 -1 0 0 0 -1 forward_v I I I I #
coedge $-1 $534 $385 $387 $538 reversed $259 $-1 #
coedge $-1 $385 $533 $632 $633 reversed $259 $-1 #
coedge $-1 $393 $388 $385 $536 forward $383 $-1 #
edge $-1 $539 -35.814271736737084 $634 -28.128826229195518 $535 $635 forward 7 unknown #
coedge $-1 $387 $386 $542 $636 reversed $163 $-1 #
edge $-1 $637 -64.924449868334591 $539 -50.002357548345763 $533 $638 forward 7 unknown #
vertex $-1 $389 $639 #
straight-curve $-1 26.239690326032708 24.776779426625708 13.410593213335233 1 0 0 I I #
coedge $-1 $632 $390 $393 $546 reversed $531 $-1 #
coedge $-1 $390 $632 $537 $636 forward $531 $-1 #
vertex $-1 $391 $640 #
straight-curve $-1 40.683974884284694 32.462224934167281 64.835586467415482 0 0 1 I I #
straight-curve $-1 40.683974884284694 -0.97633789403626281 56.270979453555114 0 0.51503806187062418 -0.85716730853699208 I I #
edge $-1 $634 -64.274786419846137 $394 -40.683974884284694 $541 $641 forward 7 unknown #
point $-1 40.683974884284694 32.462224934167281 13.410593213335229 #
point $-1 40.683974884284694 24.776779426625712 13.410593213335233 #
edge $-1 $642 1 $642 0 $397 $-1 forward 7 unknown #
vertex $-1 $398 $643 #
ellipse-curve $-1 47.424206751587974 23.05909784774456 3.674200483266405 0 0.85716730853699208 0.51503806187062418 2 0 0 1 I I #
point $-1 49.424206751587974 28.619502180396495 7.0152283575025614 #
edge $-1 $644 1 $644 0 $401 $-1 forward 7 unknown #
vertex $-1 $402 $645 #
ellipse-curve $-1 57.534554552542858 23.05909784774456 3.674200483266405 0 0.85716730853699208 0.51503806187062418 2 0 0 1 I I #
point $-1 59.534554552542858 28.619502180396495 7.0152283575025614 #
plane-surface $-1 71.257057405316317 0 0 -1 0 0 0 0 1 forward_v I I I I #
coedge $-1 $410 $408 $412 $562 reversed $281 $-1 #
edge $-1 $423 -13.410593213335229 $564 13.410593213335229 $422 $646 forward 7 unknown #
vertex $-1 $562 $647 #
straight-curve $-1 -71.257057405316317 -32.462224934167281 0 0 0 -1 I I #
edge $-1 $560 -32.462224934167281 $564 32.462224934167281 $558 $648 forward 7 unknown #
straight-curve $-1 0 -32.462224934167281 -13.410593213335229 -1 0 0 I I #
vertex $-1 $415 $649 #
straight-curve $-1 0 32.462224934167281 -13.410593213335229 1 0 0 I I #
point $-1 71.257057405316317 32.462224934167281 -13.410593213335229 #
point $-1 71.257057405316317 -32.462224934167281 -13.410593213335229 #
straight-curve $-1 -71.257057405316317 0 13.410593213335229 0 -1 0 I I #
point $-1 -71.257057405316317 32.462224934167281 13.410593213335229 #
point $-1 -71.257057405316317 -32.462224934167281 13.410593213335229 #
straight-curve $-1 71.257057405316317 -32.462224934167281 0 0 0 -1 I I #
straight-curve $-1 71.257057405316317 32.462224934167281 0 0 0 -1 I I #
plane-surface $-1 71.257057405316317 0 0 -1 0 0 0 0 1 forward_v I I I I #
coedge $-1 $650 $577 $439 $582 forward $433 $-1 #
coedge $-1 $440 $435 $650 $651 forward $300 $-1 #
edge $-1 $449 -7.0944072176984179 $652 7.0944072176984179 $447 $653 forward 7 unknown #
coedge $-1 $574 $654 $436 $578 reversed $433 $-1 #
edge $-1 $585 -71.257057405316317 $580 71.257057405316317 $577 $655 forward 7 unknown #
coedge $-1 $447 $437 $654 $656 forward $448 $-1 #
vertex $-1 $438 $657 #
straight-curve $-1 71.257057405316317 -39.556632151865699 2.3838133244500215 0 1 0 I I #
edge $-1 $585 -1.7417359397561798 $583 1.7417359397561798 $439 $658 forward 7 unknown #
vertex $-1 $441 $659 #
straight-curve $-1 -71.257057405316317 -39.556632151865699 -1.0996585550623381 0 1 0 I I #
vertex $-1 $442 $660 #
straight-curve $-1 -71.257057405316317 -39.556632151865699 2.3838133244500215 0 -1 0 I I #
point $-1 -71.257057405316317 -32.462224934167281 -1.0996585550623381 #
straight-curve $-1 0 -32.462224934167281 -1.0996585550623381 -1 0 0 I I #
point $-1 71.257057405316317 -32.462224934167281 -1.0996585550623381 #
coedge $-1 $464 $463 $456 $591 forward $453 $-1 #
edge $-1 $592 51.424993254080249 $595 64.215722965745584 $590 $661 forward 7 unknown #
vertex $-1 $468 $662 #
straight-curve $-1 -40.683974884284694 60.591051163362799 13.410593213335233 0 1 0 I I #
edge $-1 $595 14.444284558251987 $465 38.035096093813429 $464 $663 forward 7 unknown #
vertex $-1 $594 $664 #
straight-curve $-1 -40.683974884284694 -0.97633789403626281 56.270979453555114 0 -0.51503806187062418 0.85716730853699208 I I #
point $-1 -40.683974884284694 24.776779426625712 13.410593213335233 #
point $-1 -64.274786419846137 32.462224934167281 0.61986350166989723 #
straight-curve $-1 0 32.462224934167281 13.410593213335229 -1 0 0 I I #
vertex $-1 $471 $665 #
point $-1 -55.534554552542865 23.05909784774456 3.674200483266405 #
vertex $-1 $475 $666 #
point $-1 -45.424206751587967 23.05909784774456 3.674200483266405 #
coedge $-1 $490 $489 $482 $605 forward $479 $-1 #
edge $-1 $606 51.424993254080249 $609 64.215722965745584 $604 $667 forward 7 unknown #
vertex $-1 $494 $668 #
straight-curve $-1 -5.6977211162410857 60.591051163362799 13.410593213335233 0 1 0 I I #
edge $-1 $609 -3.048842325769817 $491 20.541969209791624 $490 $669 forward 7 unknown #
vertex $-1 $608 $670 #
straight-curve $-1 -5.6977211162410857 -0.97633789403626281 56.270979453555114 0 -0.51503806187062418 0.85716730853699208 I I #
point $-1 -5.6977211162410857 24.776779426625712 13.410593213335233 #
point $-1 -29.288532651802527 32.462224934167281 0.61986350166989723 #
straight-curve $-1 0 32.462224934167281 13.410593213335229 -1 0 0 I I #
vertex $-1 $497 $671 #
point $-1 -20.548300784499254 23.05909784774456 3.674200483266405 #
vertex $-1 $501 $672 #
point $-1 -10.437952983544356 23.05909784774456 3.674200483266405 #
coedge $-1 $516 $515 $508 $619 forward $505 $-1 #
edge $-1 $620 51.424993254080249 $623 64.215722965745584 $618 $673 forward 7 unknown #
vertex $-1 $520 $674 #
straight-curve $-1 29.288532651802527 60.591051163362799 13.410593213335233 0 1 0 I I #
edge $-1 $623 -20.541969209791624 $517 3.048842325769817 $516 $675 forward 7 unknown #
vertex $-1 $622 $676 #
straight-curve $-1 29.288532651802527 -0.97633789403626281 56.270979453555114 0 -0.51503806187062418 0.85716730853699208 I I #
point $-1 29.288532651802527 24.776779426625712 13.410593213335233 #
point $-1 5.6977211162410857 32.462224934167281 0.61986350166989723 #
straight-curve $-1 0 32.462224934167281 13.410593213335229 -1 0 0 I I #
vertex $-1 $523 $677 #
point $-1 14.437952983544363 23.05909784774456 3.674200483266405 #
vertex $-1 $527 $678 #
point $-1 24.548300784499247 23.05909784774456 3.674200483266405 #
coedge $-1 $542 $541 $534 $633 forward $531 $-1 #
edge $-1 $634 51.424993254080249 $637 64.215722965745584 $632 $679 forward 7 unknown #
vertex $-1 $546 $680 #
straight-curve $-1 64.274786419846137 60.591051163362799 13.410593213335233 0 1 0 I I #
edge $-1 $637 -38.035096093813429 $543 -14.444284558251987 $542 $681 forward 7 unknown #
vertex $-1 $636 $682 #
straight-curve $-1 64.274786419846137 -0.97633789403626281 56.270979453555114 0 -0.51503806187062418 0.85716730853699208 I I #
point $-1 64.274786419846137 24.776779426625712 13.410593213335233 #
point $-1 40.683974884284694 32.462224934167281 0.61986350166989723 #
straight-curve $-1 0 32.462224934167281 13.410593213335229 -1 0 0 I I #
vertex $-1 $549 $683 #
point $-1 49.424206751587974 23.05909784774456 3.674200483266405 #
vertex $-1 $553 $684 #
point $-1 59.534554552542858 23.05909784774456 3.674200483266405 #
straight-curve $-1 -71.257057405316317 32.462224934167281 0 0 0 -1 I I #
point $-1 -71.257057405316317 -32.462224934167281 -13.410593213335229 #
straight-curve $-1 -71.257057405316317 0 -13.410593213335229 0 1 0 I I #
point $-1 -71.257057405316317 32.462224934167281 -13.410593213335229 #
coedge $-1 $654 $574 $575 $651 reversed $433 $-1 #
edge $-1 $652 -71.257057405316317 $583 71.257057405316317 $650 $685 forward 7 unknown #
vertex $-1 $656 $686 #
straight-curve $-1 71.257057405316317 -39.556632151865699 -1.0996585550623381 0 -1 0 I I #
coedge $-1 $577 $650 $579 $656 reversed $433 $-1 #
straight-curve $-1 0 -46.651039369564117 2.3838133244500215 1 0 0 I I #
edge $-1 $580 -1.7417359397561798 $652 1.7417359397561798 $579 $687 forward 7 unknown #
point $-1 71.257057405316317 -46.651039369564117 2.3838133244500215 #
straight-curve $-1 -71.257057405316317 -46.651039369564117 0.64207738469384168 0 0 -1 I I #
point $-1 -71.257057405316317 -46.651039369564117 -1.0996585550623381 #
point $-1 -71.257057405316317 -46.651039369564117 2.3838133244500215 #
straight-curve $-1 -40.683974884284694 32.462224934167281 64.835586467415482 0 0 -1 I I #
point $-1 -40.683974884284694 32.462224934167281 13.410593213335229 #
straight-curve $-1 -26.239690326032708 32.462224934167281 0.61986350166988657 -1 0 0 I I #
point $-1 -40.683974884284694 32.462224934167281 0.61986350166989723 #
point $-1 -57.534554552542865 21.344763230670573 2.6441243595251565 #
point $-1 -47.424206751587967 21.344763230670573 2.6441243595251565 #
straight-curve $-1 -5.6977211162410857 32.462224934167281 64.835586467415482 0 0 -1 I I #
point $-1 -5.6977211162410857 32.462224934167281 13.410593213335229 #
straight-curve $-1 -8.7465634420109026 32.462224934167281 0.61986350166988657 -1 0 0 I I #
point $-1 -5.6977211162410857 32.462224934167281 0.61986350166989723 #
point $-1 -22.548300784499254 21.344763230670573 2.6441243595251565 #
point $-1 -12.437952983544356 21.344763230670573 2.6441243595251565 #
straight-curve $-1 29.288532651802527 32.462224934167281 64.835586467415482 0 0 -1 I I #
point $-1 29.288532651802527 32.462224934167281 13.410593213335229 #
straight-curve $-1 8.7465634420109026 32.462224934167281 0.61986350166988657 -1 0 0 I I #
point $-1 29.288532651802527 32.462224934167281 0.61986350166989723 #
point $-1 12.437952983544363 21.344763230670573 2.6441243595251565 #
point $-1 22.548300784499247 21.344763230670573 2.6441243595251565 #
straight-curve $-1 64.274786419846137 32.462224934167281 64.835586467415482 0 0 -1 I I #
point $-1 64.274786419846137 32.462224934167281 13.410593213335229 #
straight-curve $-1 26.239690326032708 32.462224934167281 0.61986350166988657 -1 0 0 I I #
point $-1 64.274786419846137 32.462224934167281 0.61986350166989723 #
point $-1 47.424206751587974 21.344763230670573 2.6441243595251565 #
point $-1 57.534554552542858 21.344763230670573 2.6441243595251565 #
straight-curve $-1 0 -46.651039369564117 -1.0996585550623381 -1 0 0 I I #
point $-1 71.257057405316317 -46.651039369564117 -1.0996585550623381 #
straight-curve $-1 71.257057405316317 -46.651039369564117 0.64207738469384168 0 0 -1 I I #
End-of-ACIS-data 