500 0 10 0           
7 Unknown 11 ACIS 5.0 NT 24 Fri Mar 26 17:09:25 1999 
-1 9.9999999999999995e-007 1e-010 
body $-1 $10 $-1 $11 #
body $-1 $12 $-1 $13 #
body $-1 $14 $-1 $15 #
body $-1 $16 $-1 $17 #
body $-1 $18 $-1 $19 #
body $-1 $20 $-1 $21 #
body $-1 $22 $-1 $23 #
body $-1 $24 $-1 $25 #
body $-1 $26 $-1 $27 #
body $-1 $28 $-1 $29 #
lump $-1 $-1 $30 $0 #
transform $-1 1 0 0 0 1 0 0 0 1 68.359019745475621 33.736189101964975 10.372794517791581 1 rotate no_reflect no_shear #
lump $-1 $-1 $31 $1 #
transform $-1 1 0 0 0 1 0 0 0 1 68.359019745475621 33.736189101964975 10.372794517791581 1 rotate no_reflect no_shear #
lump $-1 $-1 $32 $2 #
transform $-1 1 0 0 0 1 0 0 0 1 68.359019745475621 33.736189101964975 10.372794517791581 1 rotate no_reflect no_shear #
lump $-1 $-1 $33 $3 #
transform $-1 1 0 0 0 1 0 0 0 1 68.359019745475621 33.736189101964975 10.372794517791581 1 rotate no_reflect no_shear #
lump $-1 $-1 $34 $4 #
transform $-1 1 0 0 0 1 0 0 0 1 68.359019745475621 33.736189101964975 10.372794517791581 1 rotate no_reflect no_shear #
lump $-1 $-1 $35 $5 #
transform $-1 1 0 0 0 1 0 0 0 1 68.359019745475621 33.736189101964975 10.372794517791581 1 rotate no_reflect no_shear #
lump $-1 $-1 $36 $6 #
transform $-1 1 0 0 0 1 0 0 0 1 68.359019745475621 33.736189101964975 10.372794517791581 1 rotate no_reflect no_shear #
lump $-1 $-1 $37 $7 #
transform $-1 1 0 0 0 1 0 0 0 1 68.359019745475621 33.736189101964975 10.372794517791581 1 rotate no_reflect no_shear #
lump $-1 $-1 $38 $8 #
transform $-1 1 0 0 0 1 0 0 0 1 68.359019745475621 33.736189101964975 10.372794517791581 1 rotate no_reflect no_shear #
lump $-1 $-1 $39 $9 #
transform $-1 1 0 0 0 1 0 0 0 1 68.359019745475621 33.736189101964975 10.372794517791581 1 rotate no_reflect no_shear #
shell $-1 $-1 $-1 $40 $-1 $10 #
shell $-1 $-1 $-1 $41 $-1 $12 #
shell $-1 $-1 $-1 $42 $-1 $14 #
shell $-1 $-1 $-1 $43 $-1 $16 #
shell $-1 $-1 $-1 $44 $-1 $18 #
shell $-1 $-1 $-1 $45 $-1 $20 #
shell $-1 $-1 $-1 $46 $-1 $22 #
shell $-1 $-1 $-1 $47 $-1 $24 #
shell $-1 $-1 $-1 $48 $-1 $26 #
shell $-1 $-1 $-1 $49 $-1 $28 #
face $-1 $50 $51 $30 $-1 $52 reversed single #
face $-1 $53 $54 $31 $-1 $55 forward single #
face $-1 $56 $57 $32 $-1 $58 reversed single #
face $-1 $59 $60 $33 $-1 $61 forward single #
face $-1 $62 $63 $34 $-1 $64 forward single #
face $-1 $65 $66 $35 $-1 $67 forward single #
face $-1 $68 $69 $36 $-1 $70 reversed single #
face $-1 $71 $72 $37 $-1 $73 forward single #
face $-1 $74 $75 $38 $-1 $76 forward single #
face $-1 $77 $78 $39 $-1 $79 forward single #
face $-1 $80 $81 $30 $-1 $82 forward single #
loop $-1 $-1 $83 $40 #
plane-surface $-1 0 -33.736189101964975 0 0 1 0 0 0 1 forward_v I I I I #
face $-1 $84 $85 $31 $-1 $86 reversed single #
loop $-1 $-1 $87 $41 #
plane-surface $-1 0 -33.736189101964975 0 0 1 0 0 0 1 forward_v I I I I #
face $-1 $88 $89 $32 $-1 $90 reversed single #
loop $-1 $-1 $91 $42 #
plane-surface $-1 61.611256351767508 23.767430004128464 196.11215885037387 0 -1 0 -0.68199836817093118 0 -0.7313536940579346 forward_v I I I I #
face $-1 $92 $93 $33 $-1 $94 forward single #
loop $-1 $95 $96 $43 #
cone-surface $-1 63.998836115974449 14.557488242060053 6.2588268883588425 -0.68199836817093118 0 -0.7313536940579346 0.7313536940579346 0 -0.68199836817093118 1 I I 0 1 1 forward I I I I #
face $-1 $97 $98 $34 $-1 $99 forward single #
loop $-1 $100 $101 $44 #
cone-surface $-1 63.998836115974449 18.011216402835707 6.2588268883588425 -0.68199836817093118 0 -0.7313536940579346 0.7313536940579346 0 -0.68199836817093118 1 I I 0 1 1 forward I I I I #
face $-1 $102 $103 $35 $-1 $104 forward single #
loop $-1 $105 $106 $45 #
cone-surface $-1 63.998836115974449 21.464944563611361 6.2588268883588425 -0.68199836817093118 0 -0.7313536940579346 0.7313536940579346 0 -0.68199836817093118 1 I I 0 1 1 forward I I I I #
face $-1 $107 $108 $36 $-1 $109 reversed single #
loop $-1 $-1 $110 $46 #
plane-surface $-1 -185.5492536843885 -21.544400921605803 77.669885089500141 0 1 0 -0.85716730853699208 0 0.51503806187062418 forward_v I I I I #
face $-1 $111 $112 $37 $-1 $113 forward single #
loop $-1 $114 $115 $47 #
cone-surface $-1 -66.57279139710711 -20.085099247273654 8.3034022724264585 0.85716730853699208 0 -0.51503806187062418 0.25751903093531209 0 0.42858365426849604 1 I I 0 1 0.5 forward I I I I #
face $-1 $116 $117 $38 $-1 $118 forward single #
loop $-1 $119 $120 $48 #
cone-surface $-1 -66.57279139710711 -17.896146735775435 8.3034022724264585 0.85716730853699208 0 -0.51503806187062418 0.25751903093531209 0 0.42858365426849604 1 I I 0 1 0.5 forward I I I I #
face $-1 $121 $122 $39 $-1 $123 forward single #
loop $-1 $124 $125 $49 #
cone-surface $-1 -66.57279139710711 -15.707194224277213 8.3034022724264585 0.85716730853699208 0 -0.51503806187062418 0.25751903093531209 0 0.42858365426849604 1 I I 0 1 0.5 forward I I I I #
face $-1 $126 $127 $30 $-1 $128 reversed single #
loop $-1 $-1 $129 $50 #
plane-surface $-1 0 0 10.372794517791581 0 0 1 1 0 0 forward_v I I I I #
coedge $-1 $130 $131 $132 $133 reversed $51 $-1 #
face $-1 $134 $135 $31 $-1 $136 reversed single #
loop $-1 $-1 $137 $53 #
plane-surface $-1 0 0 -10.372794517791581 0 0 1 1 0 0 forward_v I I I I #
coedge $-1 $138 $139 $140 $141 forward $54 $-1 #
face $-1 $142 $143 $32 $-1 $144 reversed single #
loop $-1 $-1 $145 $56 #
plane-surface $-1 -31.630223480590161 18.011216402835707 96.122915624308092 0.68199836817093118 0 0.7313536940579346 0.7313536940579346 0 -0.68199836817093118 forward_v I I I I #
coedge $-1 $146 $147 $148 $149 reversed $57 $-1 #
face $-1 $-1 $150 $33 $-1 $151 forward single #
loop $-1 $152 $153 $59 #
cone-surface $-1 63.314402559685107 14.557488242060053 5.5248617748177455 -0.68199836817093118 0 -0.7313536940579346 0.3656768470289673 0 -0.34099918408546559 1 I I -0.70710678118654746 0.70710678118654746 0.5 forward I I I I #
loop $-1 $-1 $154 $43 #
coedge $-1 $96 $96 $155 $156 reversed $60 $-1 #
face $-1 $-1 $157 $34 $-1 $158 forward single #
loop $-1 $159 $160 $62 #
cone-surface $-1 63.314402559685107 18.011216402835707 5.5248617748177455 -0.68199836817093118 0 -0.7313536940579346 0.3656768470289673 0 -0.34099918408546559 1 I I -0.70710678118654746 0.70710678118654746 0.5 forward I I I I #
loop $-1 $-1 $161 $44 #
coedge $-1 $101 $101 $162 $163 reversed $63 $-1 #
face $-1 $-1 $164 $35 $-1 $165 forward single #
loop $-1 $166 $167 $65 #
cone-surface $-1 63.314402559685107 21.464944563611361 5.5248617748177455 -0.68199836817093118 0 -0.7313536940579346 0.3656768470289673 0 -0.34099918408546559 1 I I -0.70710678118654746 0.70710678118654746 0.5 forward I I I I #
loop $-1 $-1 $168 $45 #
coedge $-1 $106 $106 $169 $170 reversed $66 $-1 #
face $-1 $171 $172 $36 $-1 $173 reversed single #
loop $-1 $-1 $174 $68 #
plane-surface $-1 -68.359019745475635 -17.896146735775435 7.2548910073291495 -0.85716730853699208 0 0.51503806187062418 0.51503806187062418 0 0.85716730853699208 forward_v I I I I #
coedge $-1 $175 $176 $177 $178 reversed $69 $-1 #
face $-1 $-1 $179 $37 $-1 $180 forward single #
loop $-1 $181 $182 $71 #
cone-surface $-1 -65.50898390600959 -20.085099247273654 7.6642022668248995 0.85716730853699208 0 -0.51503806187062418 0.12875951546765604 0 0.21429182713424802 1 I I -0.70710678118654746 0.70710678118654746 0.25 forward I I I I #
loop $-1 $-1 $183 $47 #
coedge $-1 $115 $115 $184 $185 reversed $72 $-1 #
face $-1 $-1 $186 $38 $-1 $187 forward single #
loop $-1 $188 $189 $74 #
cone-surface $-1 -65.50898390600959 -17.896146735775435 7.6642022668248995 0.85716730853699208 0 -0.51503806187062418 0.12875951546765604 0 0.21429182713424802 1 I I -0.70710678118654746 0.70710678118654746 0.25 forward I I I I #
loop $-1 $-1 $190 $48 #
coedge $-1 $120 $120 $191 $192 reversed $75 $-1 #
face $-1 $-1 $193 $39 $-1 $194 forward single #
loop $-1 $195 $196 $77 #
cone-surface $-1 -65.50898390600959 -15.707194224277213 7.6642022668248995 0.85716730853699208 0 -0.51503806187062418 0.12875951546765604 0 0.21429182713424802 1 I I -0.70710678118654746 0.70710678118654746 0.25 forward I I I I #
loop $-1 $-1 $197 $49 #
coedge $-1 $125 $125 $198 $199 reversed $78 $-1 #
face $-1 $200 $201 $30 $-1 $202 reversed single #
loop $-1 $-1 $203 $80 #
plane-surface $-1 0 0 -10.372794517791581 0 0 1 1 0 0 forward_v I I I I #
coedge $-1 $204 $205 $206 $207 forward $81 $-1 #
coedge $-1 $208 $83 $209 $210 reversed $51 $-1 #
coedge $-1 $83 $208 $211 $212 forward $51 $-1 #
coedge $-1 $213 $203 $83 $133 forward $127 $-1 #
edge $-1 $214 -68.359019745475621 $215 68.359019745475621 $83 $216 forward 7 unknown #
face $-1 $217 $218 $31 $-1 $219 reversed single #
loop $-1 $-1 $220 $84 #
plane-surface $-1 -63.84916242713814 -43.121163850446344 0 0 1 0 0 0 1 forward_v I I I I #
coedge $-1 $221 $222 $139 $223 forward $85 $-1 #
coedge $-1 $224 $87 $225 $226 reversed $54 $-1 #
coedge $-1 $87 $224 $137 $223 reversed $54 $-1 #
coedge $-1 $227 $228 $87 $141 reversed $218 $-1 #
edge $-1 $229 -10.372794517791581 $230 10.372794517791581 $140 $231 forward 7 unknown #
face $-1 $232 $233 $32 $-1 $234 forward single #
loop $-1 $-1 $235 $88 #
plane-surface $-1 61.611256351767508 12.25500280154295 196.11215885037387 0 1 0 0.68199836817093118 0 0.7313536940579346 forward_v I I I I #
coedge $-1 $236 $237 $238 $239 reversed $89 $-1 #
coedge $-1 $147 $91 $240 $241 reversed $57 $-1 #
coedge $-1 $91 $146 $236 $242 reversed $57 $-1 #
coedge $-1 $238 $243 $91 $149 forward $233 $-1 #
edge $-1 $244 -37.553391569591867 $245 -29.519893054997326 $148 $246 forward 7 unknown #
loop $-1 $-1 $155 $92 #
plane-surface $-1 -31.630223480590161 18.011216402835707 96.122915624308092 0.68199836817093118 0 0.7313536940579346 0.7313536940579346 0 -0.68199836817093118 forward_v I I I I #
loop $-1 $-1 $247 $59 #
coedge $-1 $153 $153 $154 $248 reversed $93 $-1 #
coedge $-1 $154 $154 $153 $248 forward $95 $-1 #
coedge $-1 $155 $155 $96 $156 forward $150 $-1 #
edge $-1 $249 0 $249 6.2831853071796004 $155 $250 forward 7 unknown #
loop $-1 $-1 $162 $97 #
plane-surface $-1 -31.630223480590161 18.011216402835707 96.122915624308092 0.68199836817093118 0 0.7313536940579346 0.7313536940579346 0 -0.68199836817093118 forward_v I I I I #
loop $-1 $-1 $251 $62 #
coedge $-1 $160 $160 $161 $252 reversed $98 $-1 #
coedge $-1 $161 $161 $160 $252 forward $100 $-1 #
coedge $-1 $162 $162 $101 $163 forward $157 $-1 #
edge $-1 $253 0 $253 6.2831853071796004 $162 $254 forward 7 unknown #
loop $-1 $-1 $169 $102 #
plane-surface $-1 -31.630223480590161 18.011216402835707 96.122915624308092 0.68199836817093118 0 0.7313536940579346 0.7313536940579346 0 -0.68199836817093118 forward_v I I I I #
loop $-1 $-1 $255 $65 #
coedge $-1 $167 $167 $168 $256 reversed $103 $-1 #
coedge $-1 $168 $168 $167 $256 forward $105 $-1 #
coedge $-1 $169 $169 $106 $170 forward $164 $-1 #
edge $-1 $257 0 $257 6.2831853071796004 $169 $258 forward 7 unknown #
face $-1 $259 $260 $36 $-1 $261 reversed single #
loop $-1 $-1 $262 $107 #
plane-surface $-1 -185.5492536843885 -14.247892549945067 77.669885089500141 0 -1 0 0.85716730853699208 0 -0.51503806187062418 forward_v I I I I #
coedge $-1 $263 $264 $265 $266 reversed $108 $-1 #
coedge $-1 $176 $110 $267 $268 reversed $69 $-1 #
coedge $-1 $110 $175 $263 $269 reversed $69 $-1 #
coedge $-1 $265 $270 $110 $178 forward $271 $-1 #
edge $-1 $272 24.415607096718631 $273 26.289032465529075 $177 $274 forward 7 unknown #
loop $-1 $-1 $184 $111 #
plane-surface $-1 -68.359019745475635 -17.896146735775435 7.2548910073291495 -0.85716730853699208 0 0.51503806187062418 0.51503806187062418 0 0.85716730853699208 forward_v I I I I #
loop $-1 $-1 $275 $71 #
coedge $-1 $182 $182 $183 $276 reversed $112 $-1 #
coedge $-1 $183 $183 $182 $276 forward $114 $-1 #
coedge $-1 $184 $184 $115 $185 forward $179 $-1 #
edge $-1 $277 0 $277 6.2831853071796004 $184 $278 forward 7 unknown #
loop $-1 $-1 $191 $116 #
plane-surface $-1 -68.359019745475635 -17.896146735775435 7.2548910073291495 -0.85716730853699208 0 0.51503806187062418 0.51503806187062418 0 0.85716730853699208 forward_v I I I I #
loop $-1 $-1 $279 $74 #
coedge $-1 $189 $189 $190 $280 reversed $117 $-1 #
coedge $-1 $190 $190 $189 $280 forward $119 $-1 #
coedge $-1 $191 $191 $120 $192 forward $186 $-1 #
edge $-1 $281 0 $281 6.2831853071796004 $191 $282 forward 7 unknown #
loop $-1 $-1 $198 $121 #
plane-surface $-1 -68.359019745475635 -17.896146735775435 7.2548910073291495 -0.85716730853699208 0 0.51503806187062418 0.51503806187062418 0 0.85716730853699208 forward_v I I I I #
loop $-1 $-1 $283 $77 #
coedge $-1 $196 $196 $197 $284 reversed $122 $-1 #
coedge $-1 $197 $197 $196 $284 forward $124 $-1 #
coedge $-1 $198 $198 $125 $199 forward $193 $-1 #
edge $-1 $285 0 $285 6.2831853071796004 $198 $286 forward 7 unknown #
face $-1 $287 $288 $30 $-1 $289 reversed single #
loop $-1 $-1 $290 $126 #
plane-surface $-1 -68.359019745475621 0 0 1 0 0 0 0 -1 forward_v I I I I #
coedge $-1 $132 $291 $292 $293 forward $127 $-1 #
coedge $-1 $294 $129 $295 $296 forward $81 $-1 #
coedge $-1 $129 $294 $208 $297 forward $81 $-1 #
coedge $-1 $209 $298 $129 $207 reversed $299 $-1 #
edge $-1 $300 -33.736189101964975 $301 33.736189101964975 $206 $302 forward 7 unknown #
coedge $-1 $131 $130 $205 $297 reversed $51 $-1 #
coedge $-1 $292 $206 $130 $210 forward $299 $-1 #
edge $-1 $300 -10.372794517791581 $214 10.372794517791581 $209 $303 forward 7 unknown #
coedge $-1 $304 $305 $131 $212 reversed $201 $-1 #
edge $-1 $306 -10.372794517791581 $215 10.372794517791581 $211 $307 forward 7 unknown #
coedge $-1 $291 $132 $305 $308 forward $127 $-1 #
vertex $-1 $210 $309 #
vertex $-1 $308 $310 #
straight-curve $-1 0 -33.736189101964975 -10.372794517791581 -1 0 0 I I #
face $-1 $311 $312 $31 $-1 $313 reversed single #
loop $-1 $-1 $140 $134 #
plane-surface $-1 -66.255510201636653 -38.428676476205659 0 1 0 0 0 0 -1 forward_v I I I I #
coedge $-1 $314 $315 $316 $317 forward $135 $-1 #
coedge $-1 $318 $137 $319 $320 forward $85 $-1 #
coedge $-1 $137 $318 $227 $321 forward $85 $-1 #
edge $-1 $229 -66.255510201636653 $322 -61.442814652639626 $137 $323 forward 7 unknown #
coedge $-1 $139 $138 $324 $325 forward $54 $-1 #
coedge $-1 $326 $327 $138 $226 forward $328 $-1 #
edge $-1 $329 61.442814652639626 $230 66.255510201636653 $225 $330 forward 7 unknown #
coedge $-1 $316 $140 $222 $321 reversed $218 $-1 #
coedge $-1 $140 $316 $326 $331 reversed $218 $-1 #
vertex $-1 $223 $332 #
vertex $-1 $331 $333 #
straight-curve $-1 -66.255510201636653 -33.736189101964975 0 0 0 1 I I #
face $-1 $-1 $334 $32 $-1 $335 reversed single #
loop $-1 $-1 $148 $142 #
plane-surface $-1 0 0 10.372794517791581 0 0 1 1 0 0 forward_v I I I I #
coedge $-1 $336 $337 $338 $339 reversed $143 $-1 #
coedge $-1 $340 $145 $147 $242 forward $89 $-1 #
coedge $-1 $145 $340 $336 $341 forward $89 $-1 #
coedge $-1 $338 $148 $145 $239 forward $233 $-1 #
edge $-1 $245 -14.76182180271061 $342 -3.2493946001250968 $238 $343 forward 7 unknown #
coedge $-1 $344 $345 $146 $241 forward $334 $-1 #
edge $-1 $346 -95.174643633236514 $244 -87.683284907395361 $240 $347 forward 7 unknown #
edge $-1 $245 125.73361624968686 $346 136.71803949095124 $147 $348 forward 7 unknown #
coedge $-1 $148 $338 $344 $349 forward $233 $-1 #
vertex $-1 $149 $350 #
vertex $-1 $149 $351 #
straight-curve $-1 30.805628175883754 23.767430004128464 10.372794517791576 -1 0 0 I I #
coedge $-1 $247 $247 $-1 $352 reversed $152 $-1 #
edge $-1 $353 0 $353 6.2831853071796004 $153 $354 forward 7 unknown #
vertex $-1 $156 $355 #
ellipse-curve $-1 64.342270488178343 14.557488242060053 6.6271151548709923 0.68199836817093118 0 0.7313536940579346 0.7313536940579346 0 -0.68199836817093118 1 I I #
coedge $-1 $251 $251 $-1 $356 reversed $159 $-1 #
edge $-1 $357 0 $357 6.2831853071796004 $160 $358 forward 7 unknown #
vertex $-1 $163 $359 #
ellipse-curve $-1 64.342270488178343 18.011216402835707 6.6271151548709923 0.68199836817093118 0 0.7313536940579346 0.7313536940579346 0 -0.68199836817093118 1 I I #
coedge $-1 $255 $255 $-1 $360 reversed $166 $-1 #
edge $-1 $361 0 $361 6.2831853071796004 $167 $362 forward 7 unknown #
vertex $-1 $170 $363 #
ellipse-curve $-1 64.342270488178343 21.464944563611361 6.6271151548709923 0.68199836817093118 0 0.7313536940579346 0.7313536940579346 0 -0.68199836817093118 1 I I #
face $-1 $-1 $271 $36 $-1 $364 forward single #
loop $-1 $-1 $365 $171 #
plane-surface $-1 -68.359019745475621 0 0 1 0 0 0 0 -1 forward_v I I I I #
coedge $-1 $366 $367 $368 $369 reversed $172 $-1 #
coedge $-1 $370 $174 $176 $269 forward $108 $-1 #
coedge $-1 $174 $370 $366 $371 forward $108 $-1 #
coedge $-1 $368 $177 $174 $266 forward $271 $-1 #
edge $-1 $273 -12.596327553718085 $372 -5.2998191820573499 $265 $373 forward 7 unknown #
coedge $-1 $374 $375 $175 $268 forward $260 $-1 #
edge $-1 $376 -31.580051537420896 $272 -28.462148026958488 $267 $377 forward 7 unknown #
edge $-1 $273 -3.6374503313525208 $376 -2.787470371894754e-014 $176 $378 forward 7 unknown #
coedge $-1 $177 $368 $374 $379 forward $271 $-1 #
loop $-1 $-1 $368 $259 #
vertex $-1 $268 $380 #
vertex $-1 $178 $381 #
straight-curve $-1 -92.774626842194252 -21.544400921605803 10.372794517791583 1 0 0 I I #
coedge $-1 $275 $275 $-1 $382 reversed $181 $-1 #
edge $-1 $383 0 $383 6.2831853071796004 $182 $384 forward 7 unknown #
vertex $-1 $185 $385 #
ellipse-curve $-1 -67.422307061070399 -20.085099247273654 8.8138427625603715 -0.85716730853699208 0 0.51503806187062418 0.25751903093531209 0 0.42858365426849604 1 I I #
coedge $-1 $279 $279 $-1 $386 reversed $188 $-1 #
edge $-1 $387 0 $387 6.2831853071796004 $189 $388 forward 7 unknown #
vertex $-1 $192 $389 #
ellipse-curve $-1 -67.422307061070399 -17.896146735775435 8.8138427625603715 -0.85716730853699208 0 0.51503806187062418 0.25751903093531209 0 0.42858365426849604 1 I I #
coedge $-1 $283 $283 $-1 $390 reversed $195 $-1 #
edge $-1 $391 0 $391 6.2831853071796004 $196 $392 forward 7 unknown #
vertex $-1 $199 $393 #
ellipse-curve $-1 -67.422307061070399 -15.707194224277213 8.8138427625603715 -0.85716730853699208 0 0.51503806187062418 0.25751903093531209 0 0.42858365426849604 1 I I #
face $-1 $-1 $299 $30 $-1 $394 reversed single #
loop $-1 $-1 $395 $200 #
plane-surface $-1 0 33.736189101964975 0 0 -1 0 0 0 -1 forward_v I I I I #
coedge $-1 $305 $304 $396 $397 forward $201 $-1 #
coedge $-1 $203 $213 $398 $399 forward $127 $-1 #
coedge $-1 $298 $209 $203 $293 reversed $299 $-1 #
edge $-1 $400 -33.736189101964975 $214 33.736189101964975 $292 $401 forward 7 unknown #
coedge $-1 $205 $204 $304 $402 forward $81 $-1 #
coedge $-1 $395 $396 $204 $296 reversed $288 $-1 #
edge $-1 $301 -68.359019745475621 $403 68.359019745475621 $295 $404 forward 7 unknown #
edge $-1 $306 -68.359019745475621 $300 68.359019745475621 $208 $405 forward 7 unknown #
coedge $-1 $206 $292 $395 $406 reversed $299 $-1 #
loop $-1 $-1 $209 $287 #
vertex $-1 $207 $407 #
vertex $-1 $207 $408 #
straight-curve $-1 68.359019745475621 0 10.372794517791581 0 1 0 I I #
straight-curve $-1 68.359019745475621 -33.736189101964975 0 0 0 -1 I I #
coedge $-1 $290 $211 $294 $402 reversed $201 $-1 #
coedge $-1 $211 $290 $213 $308 reversed $201 $-1 #
vertex $-1 $402 $409 #
straight-curve $-1 -68.359019745475621 -33.736189101964975 0 0 0 -1 I I #
edge $-1 $215 -33.736189101964975 $410 33.736189101964975 $305 $411 forward 7 unknown #
point $-1 68.359019745475621 -33.736189101964975 -10.372794517791581 #
point $-1 -68.359019745475621 -33.736189101964975 -10.372794517791581 #
face $-1 $-1 $328 $31 $-1 $412 forward single #
loop $-1 $-1 $413 $217 #
plane-surface $-1 -61.442814652639626 -38.428676476205659 0 -1 0 0 0 0 1 forward_v I I I I #
coedge $-1 $414 $220 $318 $415 reversed $135 $-1 #
coedge $-1 $220 $414 $416 $417 reversed $135 $-1 #
coedge $-1 $228 $227 $220 $317 reversed $218 $-1 #
edge $-1 $418 -10.372794517791581 $419 10.372794517791581 $316 $420 forward 7 unknown #
coedge $-1 $222 $221 $314 $415 forward $85 $-1 #
coedge $-1 $324 $413 $221 $320 reversed $312 $-1 #
edge $-1 $322 -4.6924873742406845 $421 4.6924873742406845 $319 $422 forward 7 unknown #
edge $-1 $419 -4.6924873742406845 $229 4.6924873742406845 $227 $423 forward 7 unknown #
vertex $-1 $320 $424 #
straight-curve $-1 0 -33.736189101964975 -10.372794517791581 1 0 0 I I #
coedge $-1 $425 $319 $224 $325 reversed $312 $-1 #
edge $-1 $329 -10.372794517791581 $322 10.372794517791581 $324 $426 forward 7 unknown #
coedge $-1 $416 $225 $228 $331 forward $328 $-1 #
coedge $-1 $225 $416 $425 $427 forward $328 $-1 #
loop $-1 $-1 $225 $311 #
vertex $-1 $226 $428 #
straight-curve $-1 0 -33.736189101964975 10.372794517791581 -1 0 0 I I #
edge $-1 $230 -4.6924873742406845 $418 4.6924873742406845 $228 $429 forward 7 unknown #
point $-1 -66.255510201636653 -33.736189101964975 -10.372794517791581 #
point $-1 -66.255510201636653 -33.736189101964975 10.372794517791581 #
loop $-1 $-1 $240 $232 #
plane-surface $-1 68.359019745475621 0 0 -1 0 0 0 0 1 forward_v I I I I #
coedge $-1 $337 $235 $237 $341 reversed $143 $-1 #
coedge $-1 $235 $336 $430 $431 reversed $143 $-1 #
coedge $-1 $243 $238 $235 $339 forward $233 $-1 #
edge $-1 $342 29.519893054997326 $432 37.553391569591867 $338 $433 forward 7 unknown #
coedge $-1 $237 $236 $345 $434 reversed $89 $-1 #
edge $-1 $435 -136.71803949095124 $342 -125.73361624968686 $336 $436 forward 7 unknown #
vertex $-1 $239 $437 #
straight-curve $-1 60.32552123088108 9.0056082014178536 10.372794517791583 0 -1 0 I I #
coedge $-1 $430 $240 $243 $349 reversed $334 $-1 #
coedge $-1 $240 $430 $340 $434 forward $334 $-1 #
vertex $-1 $241 $438 #
straight-curve $-1 68.359019745475621 23.767430004128464 98.056079425186937 0 0 1 I I #
straight-curve $-1 -31.630223480590161 23.767430004128464 96.122915624308092 0.7313536940579346 0 -0.68199836817093118 I I #
edge $-1 $432 12.25500280154295 $244 23.767430004128464 $344 $439 forward 7 unknown #
point $-1 68.359019745475621 23.767430004128464 10.372794517791581 #
point $-1 60.32552123088108 23.767430004128464 10.372794517791576 #
edge $-1 $440 1 $440 0 $247 $-1 forward 7 unknown #
vertex $-1 $248 $441 #
ellipse-curve $-1 63.655401743770575 14.557488242060053 5.8905386218467131 0.68199836817093118 0 0.7313536940579346 0.7313536940579346 0 -0.68199836817093118 1 I I #
point $-1 65.073624182236259 14.557488242060053 5.9451167867000407 #
edge $-1 $442 1 $442 0 $251 $-1 forward 7 unknown #
vertex $-1 $252 $443 #
ellipse-curve $-1 63.655401743770575 18.011216402835707 5.8905386218467131 0.68199836817093118 0 0.7313536940579346 0.7313536940579346 0 -0.68199836817093118 1 I I #
point $-1 65.073624182236259 18.011216402835707 5.9451167867000407 #
edge $-1 $444 1 $444 0 $255 $-1 forward 7 unknown #
vertex $-1 $256 $445 #
ellipse-curve $-1 63.655401743770575 21.464944563611361 5.8905386218467131 0.68199836817093118 0 0.7313536940579346 0.7313536940579346 0 -0.68199836817093118 1 I I #
point $-1 65.073624182236259 21.464944563611361 5.9451167867000407 #
plane-surface $-1 0 0 10.372794517791581 0 0 1 1 0 0 forward_v I I I I #
coedge $-1 $375 $374 $367 $446 forward $260 $-1 #
coedge $-1 $367 $262 $264 $371 reversed $172 $-1 #
coedge $-1 $262 $366 $365 $446 reversed $172 $-1 #
coedge $-1 $270 $265 $262 $369 forward $271 $-1 #
edge $-1 $372 -26.289032465529075 $447 -24.415607096718631 $368 $448 forward 7 unknown #
coedge $-1 $264 $263 $375 $449 reversed $108 $-1 #
edge $-1 $450 2.787470371894754e-014 $372 3.6374503313525208 $366 $451 forward 7 unknown #
vertex $-1 $266 $452 #
straight-curve $-1 -66.485594376665176 -8.9480733678877176 10.372794517791581 0 1 0 I I #
coedge $-1 $365 $267 $270 $379 reversed $260 $-1 #
coedge $-1 $267 $365 $370 $449 forward $260 $-1 #
vertex $-1 $268 $453 #
straight-curve $-1 -68.359019745475621 -21.544400921605803 38.834942544750071 0 0 1 I I #
straight-curve $-1 -68.359019745475635 -21.544400921605803 7.2548910073291495 -0.51503806187062418 0 -0.85716730853699208 I I #
edge $-1 $447 14.247892549945067 $272 21.544400921605803 $374 $454 forward 7 unknown #
point $-1 -68.359019745475621 -21.544400921605803 10.372794517791581 #
point $-1 -66.485594376665176 -21.544400921605803 10.372794517791581 #
edge $-1 $455 1 $455 0 $275 $-1 forward 7 unknown #
vertex $-1 $276 $456 #
ellipse-curve $-1 -65.723275733143836 -20.085099247273654 7.7929617822925552 -0.85716730853699208 0 0.51503806187062418 0.25751903093531209 0 0.42858365426849604 1 I I #
point $-1 -67.164788030135071 -20.085099247273654 9.2424264168288559 #
edge $-1 $457 1 $457 0 $279 $-1 forward 7 unknown #
vertex $-1 $280 $458 #
ellipse-curve $-1 -65.723275733143836 -17.896146735775435 7.7929617822925552 -0.85716730853699208 0 0.51503806187062418 0.25751903093531209 0 0.42858365426849604 1 I I #
point $-1 -67.164788030135071 -17.896146735775435 9.2424264168288559 #
edge $-1 $459 1 $459 0 $283 $-1 forward 7 unknown #
vertex $-1 $284 $460 #
ellipse-curve $-1 -65.723275733143836 -15.707194224277213 7.7929617822925552 -0.85716730853699208 0 0.51503806187062418 0.25751903093531209 0 0.42858365426849604 1 I I #
point $-1 -67.164788030135071 -15.707194224277213 9.2424264168288559 #
plane-surface $-1 68.359019745475621 0 0 -1 0 0 0 0 1 forward_v I I I I #
coedge $-1 $398 $295 $298 $406 forward $288 $-1 #
coedge $-1 $295 $398 $290 $397 reversed $288 $-1 #
edge $-1 $403 -10.372794517791581 $410 10.372794517791581 $396 $461 forward 7 unknown #
coedge $-1 $396 $395 $291 $399 reversed $288 $-1 #
edge $-1 $410 -68.359019745475621 $400 68.359019745475621 $398 $462 forward 7 unknown #
vertex $-1 $293 $463 #
straight-curve $-1 68.359019745475621 0 -10.372794517791581 0 -1 0 I I #
edge $-1 $403 -33.736189101964975 $306 33.736189101964975 $304 $464 forward 7 unknown #
vertex $-1 $296 $465 #
straight-curve $-1 0 33.736189101964975 10.372794517791581 -1 0 0 I I #
straight-curve $-1 0 -33.736189101964975 10.372794517791581 1 0 0 I I #
edge $-1 $301 -10.372794517791581 $400 10.372794517791581 $298 $466 forward 7 unknown #
point $-1 68.359019745475621 -33.736189101964975 10.372794517791581 #
point $-1 68.359019745475621 33.736189101964975 10.372794517791581 #
point $-1 -68.359019745475621 -33.736189101964975 10.372794517791581 #
vertex $-1 $399 $467 #
straight-curve $-1 -68.359019745475621 0 -10.372794517791581 0 1 0 I I #
plane-surface $-1 0 0 10.372794517791581 0 0 1 1 0 0 forward_v I I I I #
coedge $-1 $319 $425 $414 $468 forward $312 $-1 #
coedge $-1 $315 $314 $413 $468 reversed $135 $-1 #
edge $-1 $421 -2.4063477744985136 $419 2.4063477744985136 $314 $469 forward 7 unknown #
coedge $-1 $327 $326 $315 $417 forward $328 $-1 #
edge $-1 $418 -2.4063477744985136 $470 2.4063477744985136 $315 $471 forward 7 unknown #
vertex $-1 $331 $472 #
vertex $-1 $321 $473 #
straight-curve $-1 -66.255510201636653 -43.121163850446344 0 0 0 -1 I I #
vertex $-1 $468 $474 #
straight-curve $-1 -61.442814652639626 -38.428676476205659 -10.372794517791581 0 -1 0 I I #
straight-curve $-1 -66.255510201636653 -38.428676476205659 -10.372794517791581 0 1 0 I I #
point $-1 -61.442814652639626 -33.736189101964975 -10.372794517791581 #
coedge $-1 $413 $324 $327 $427 reversed $312 $-1 #
straight-curve $-1 -61.442814652639626 -33.736189101964975 0 0 0 -1 I I #
edge $-1 $470 -4.6924873742406845 $329 4.6924873742406845 $425 $475 forward 7 unknown #
point $-1 -61.442814652639626 -33.736189101964975 10.372794517791581 #
straight-curve $-1 -66.255510201636653 -38.428676476205659 10.372794517791581 0 -1 0 I I #
coedge $-1 $345 $344 $337 $431 forward $334 $-1 #
edge $-1 $432 87.683284907395361 $435 95.174643633236514 $430 $476 forward 7 unknown #
vertex $-1 $349 $477 #
straight-curve $-1 30.805628175883754 12.25500280154295 10.372794517791576 1 0 0 I I #
edge $-1 $435 3.2493946001250968 $346 14.76182180271061 $345 $478 forward 7 unknown #
vertex $-1 $434 $479 #
straight-curve $-1 -31.630223480590161 12.25500280154295 96.122915624308092 -0.7313536940579346 0 0.68199836817093118 I I #
point $-1 60.32552123088108 12.25500280154295 10.372794517791576 #
point $-1 68.359019745475621 23.767430004128464 2.8814357919504232 #
straight-curve $-1 68.359019745475621 0 10.372794517791581 0 1 0 I I #
vertex $-1 $352 $480 #
point $-1 64.386755437828512 14.557488242060053 5.2085402536757819 #
vertex $-1 $356 $481 #
point $-1 64.386755437828512 18.011216402835707 5.2085402536757819 #
vertex $-1 $360 $482 #
point $-1 64.386755437828512 21.464944563611361 5.2085402536757819 #
edge $-1 $447 28.462148026958488 $450 31.580051537420896 $365 $483 forward 7 unknown #
vertex $-1 $379 $484 #
straight-curve $-1 -92.774626842194252 -14.247892549945067 10.372794517791583 -1 0 0 I I #
edge $-1 $450 5.2998191820573499 $376 12.596327553718085 $375 $485 forward 7 unknown #
vertex $-1 $449 $486 #
straight-curve $-1 -68.359019745475635 -14.247892549945067 7.2548910073291495 0.51503806187062418 0 0.85716730853699208 I I #
point $-1 -66.485594376665176 -14.247892549945067 10.372794517791581 #
point $-1 -68.359019745475621 -21.544400921605803 7.2548910073291735 #
straight-curve $-1 -68.359019745475621 0 10.372794517791581 0 -1 0 I I #
vertex $-1 $382 $487 #
point $-1 -65.465756702208523 -20.085099247273654 8.2215454365610512 #
vertex $-1 $386 $488 #
point $-1 -65.465756702208523 -17.896146735775435 8.2215454365610512 #
vertex $-1 $390 $489 #
point $-1 -65.465756702208523 -15.707194224277213 8.2215454365610512 #
straight-curve $-1 -68.359019745475621 33.736189101964975 0 0 0 -1 I I #
straight-curve $-1 0 33.736189101964975 -10.372794517791581 1 0 0 I I #
point $-1 68.359019745475621 33.736189101964975 -10.372794517791581 #
straight-curve $-1 -68.359019745475621 0 10.372794517791581 0 -1 0 I I #
point $-1 -68.359019745475621 33.736189101964975 10.372794517791581 #
straight-curve $-1 68.359019745475621 33.736189101964975 0 0 0 -1 I I #
point $-1 -68.359019745475621 33.736189101964975 -10.372794517791581 #
edge $-1 $470 -10.372794517791581 $421 10.372794517791581 $413 $490 forward 7 unknown #
straight-curve $-1 -63.84916242713814 -43.121163850446344 -10.372794517791581 -1 0 0 I I #
vertex $-1 $427 $491 #
straight-curve $-1 -63.84916242713814 -43.121163850446344 10.372794517791581 1 0 0 I I #
point $-1 -66.255510201636653 -43.121163850446344 10.372794517791581 #
point $-1 -66.255510201636653 -43.121163850446344 -10.372794517791581 #
point $-1 -61.442814652639626 -43.121163850446344 -10.372794517791581 #
straight-curve $-1 -61.442814652639626 -38.428676476205659 10.372794517791581 0 1 0 I I #
straight-curve $-1 68.359019745475621 12.25500280154295 98.056079425186937 0 0 -1 I I #
point $-1 68.359019745475621 12.25500280154295 10.372794517791581 #
straight-curve $-1 68.359019745475621 9.0056082014178536 2.8814357919504232 0 1 0 I I #
point $-1 68.359019745475621 12.25500280154295 2.8814357919504232 #
point $-1 62.973403375599638 14.557488242060053 5.159184927788778 #
point $-1 62.973403375599638 18.011216402835707 5.159184927788778 #
point $-1 62.973403375599638 21.464944563611361 5.159184927788778 #
straight-curve $-1 -68.359019745475621 -14.247892549945067 38.834942544750071 0 0 -1 I I #
point $-1 -68.359019745475621 -14.247892549945067 10.372794517791581 #
straight-curve $-1 -68.359019745475621 -8.9480733678877176 7.2548910073291619 0 -1 0 I I #
point $-1 -68.359019745475621 -14.247892549945067 7.2548910073291735 #
point $-1 -65.294692078875343 -20.085099247273654 7.5354427513572437 #
point $-1 -65.294692078875343 -17.896146735775435 7.5354427513572437 #
point $-1 -65.294692078875343 -15.707194224277213 7.5354427513572437 #
straight-curve $-1 -61.442814652639626 -43.121163850446344 0 0 0 -1 I I #
point $-1 -61.442814652639626 -43.121163850446344 10.372794517791581 #
End-of-ACIS-data 