500 0 6 0           
7 Unknown 11 ACIS 5.0 NT 24 Fri Mar 26 17:17:10 1999 
-1 9.9999999999999995e-007 1e-010 
body $-1 $6 $-1 $7 #
body $-1 $8 $-1 $9 #
body $-1 $10 $-1 $11 #
body $-1 $12 $-1 $13 #
body $-1 $14 $-1 $15 #
body $-1 $16 $-1 $17 #
lump $-1 $-1 $18 $0 #
transform $-1 1 0 0 0 1 0 0 0 1 41.084017456587418 21.066984408370406 5.9446867652416904 1 rotate no_reflect no_shear #
lump $-1 $-1 $19 $1 #
transform $-1 1 0 0 0 1 0 0 0 1 41.084017456587418 21.066984408370406 5.9446867652416904 1 rotate no_reflect no_shear #
lump $-1 $-1 $20 $2 #
transform $-1 1 0 0 0 1 0 0 0 1 41.084017456587418 21.066984408370406 5.9446867652416904 1 rotate no_reflect no_shear #
lump $-1 $-1 $21 $3 #
transform $-1 1 0 0 0 1 0 0 0 1 41.084017456587418 21.066984408370406 5.9446867652416904 1 rotate no_reflect no_shear #
lump $-1 $-1 $22 $4 #
transform $-1 1 0 0 0 1 0 0 0 1 41.084017456587418 21.066984408370406 5.9446867652416904 1 rotate no_reflect no_shear #
lump $-1 $-1 $23 $5 #
transform $-1 1 0 0 0 1 0 0 0 1 41.084017456587418 21.066984408370406 5.9446867652416904 1 rotate no_reflect no_shear #
shell $-1 $-1 $-1 $24 $-1 $6 #
shell $-1 $-1 $-1 $25 $-1 $8 #
shell $-1 $-1 $-1 $26 $-1 $10 #
shell $-1 $-1 $-1 $27 $-1 $12 #
shell $-1 $-1 $-1 $28 $-1 $14 #
shell $-1 $-1 $-1 $29 $-1 $16 #
face $-1 $30 $31 $18 $-1 $32 forward single #
face $-1 $33 $34 $19 $-1 $35 reversed single #
face $-1 $36 $37 $20 $-1 $38 forward single #
face $-1 $39 $40 $21 $-1 $41 forward single #
face $-1 $42 $43 $22 $-1 $44 reversed single #
face $-1 $45 $46 $23 $-1 $47 forward single #
face $-1 $48 $49 $18 $-1 $50 reversed single #
loop $-1 $-1 $51 $24 #
plane-surface $-1 0 0 5.9446867652416904 0 0 1 1 0 0 forward_v I I I I #
face $-1 $52 $53 $19 $-1 $54 reversed single #
loop $-1 $-1 $55 $25 #
plane-surface $-1 12.410098444874645 -72.777004913838752 65.363183788814624 -1 0 0 0 -0.62932039886446345 0.77714595512881146 forward_v I I I I #
face $-1 $56 $57 $20 $-1 $58 forward single #
loop $-1 $59 $60 $26 #
cone-surface $-1 -1.6927232722903227 -17.630477449632522 2.8658801357646766 0 0.62932039886446345 -0.77714595512881146 1 0 0 1 I I 0 1 1 forward I I I I #
face $-1 $61 $62 $21 $-1 $63 forward single #
loop $-1 $64 $65 $27 #
cone-surface $-1 6.7689697580086516 -17.630477449632522 2.8658801357646766 0 0.62932039886446345 -0.77714595512881146 1 0 0 1 I I 0 1 1 forward I I I I #
face $-1 $66 $67 $22 $-1 $68 reversed single #
loop $-1 $-1 $69 $28 #
plane-surface $-1 -1.9288454641833574 27.2707913470832 93.035518710667375 1 0 0 0 -0.51503808176128008 -0.85716729658548041 forward_v I I I I #
face $-1 $70 $71 $23 $-1 $72 forward single #
loop $-1 $73 $74 $29 #
cone-surface $-1 5.1671656688332845 16.067538417395504 2.0855173691465634 0 -0.51503808176128008 -0.85716729658548041 1.5 0 0 1 I I 0 1 1.5 forward I I I I #
face $-1 $75 $76 $18 $-1 $77 reversed single #
loop $-1 $-1 $78 $30 #
plane-surface $-1 0 0 -5.9446867652416904 0 0 1 1 0 0 forward_v I I I I #
coedge $-1 $79 $80 $81 $82 forward $31 $-1 #
face $-1 $83 $84 $19 $-1 $85 reversed single #
loop $-1 $-1 $86 $33 #
plane-surface $-1 2.5381232428591716 -21.066984408370409 1.5066278151578416 0 -0.62932039886446345 0.77714595512881146 1 0 0 forward_v I I I I #
coedge $-1 $87 $88 $89 $90 reversed $34 $-1 #
face $-1 $-1 $91 $20 $-1 $92 forward single #
loop $-1 $93 $94 $36 #
cone-surface $-1 -1.6927232722903227 -16.619583424118083 1.6175300037651823 0 0.62932039886446345 -0.77714595512881146 0.5 0 0 1 I I -0.70710678118654746 0.70710678118654746 0.5 forward I I I I #
loop $-1 $-1 $95 $26 #
coedge $-1 $60 $60 $96 $97 reversed $37 $-1 #
face $-1 $-1 $98 $21 $-1 $99 forward single #
loop $-1 $100 $101 $39 #
cone-surface $-1 6.7689697580086516 -16.619583424118083 1.6175300037651823 0 0.62932039886446345 -0.77714595512881146 0.5 0 0 1 I I -0.70710678118654746 0.70710678118654746 0.5 forward I I I I #
loop $-1 $-1 $102 $27 #
coedge $-1 $65 $65 $103 $104 reversed $40 $-1 #
face $-1 $105 $106 $22 $-1 $107 reversed single #
loop $-1 $-1 $108 $42 #
plane-surface $-1 5.1671656688332916 -15.048875736692256 22.603766358399938 0 0.51503808176128008 0.85716729658548041 1 0 0 forward_v I I I I #
coedge $-1 $109 $110 $111 $112 reversed $43 $-1 #
face $-1 $-1 $113 $23 $-1 $114 forward single #
loop $-1 $115 $116 $45 #
cone-surface $-1 5.1671656688332845 14.877062007745639 0.10423194221509124 0 -0.51503808176128008 -0.85716729658548041 0.75 0 0 1 I I -0.70710678118654768 0.70710678118654757 0.75 forward I I I I #
loop $-1 $-1 $117 $29 #
coedge $-1 $74 $74 $118 $119 reversed $46 $-1 #
face $-1 $120 $121 $18 $-1 $122 reversed single #
loop $-1 $-1 $123 $48 #
plane-surface $-1 0 -21.066984408370406 0 0 1 0 0 0 1 forward_v I I I I #
coedge $-1 $124 $125 $126 $127 forward $49 $-1 #
coedge $-1 $128 $51 $129 $130 forward $31 $-1 #
coedge $-1 $51 $128 $131 $132 forward $31 $-1 #
coedge $-1 $133 $134 $51 $82 reversed $135 $-1 #
edge $-1 $136 -21.066984408370406 $137 21.066984408370406 $81 $138 forward 7 unknown #
face $-1 $139 $140 $19 $-1 $141 reversed single #
loop $-1 $-1 $142 $52 #
plane-surface $-1 -7.3338519591563021 -72.777004913838752 65.363183788814624 1 0 0 0 0.62932039886446345 -0.77714595512881146 forward_v I I I I #
coedge $-1 $143 $144 $145 $146 reversed $53 $-1 #
coedge $-1 $88 $55 $147 $148 reversed $34 $-1 #
coedge $-1 $55 $87 $143 $149 reversed $34 $-1 #
coedge $-1 $145 $150 $55 $90 forward $151 $-1 #
edge $-1 $152 15.32151804854897 $153 20.802064313860313 $89 $154 forward 7 unknown #
loop $-1 $-1 $96 $56 #
plane-surface $-1 2.5381232428591716 -21.066984408370409 1.5066278151578416 0 -0.62932039886446345 0.77714595512881146 1 0 0 forward_v I I I I #
loop $-1 $-1 $155 $36 #
coedge $-1 $94 $94 $95 $156 reversed $57 $-1 #
coedge $-1 $95 $95 $94 $156 forward $59 $-1 #
coedge $-1 $96 $96 $60 $97 forward $91 $-1 #
edge $-1 $157 5.2518187581664207e-016 $157 6.2831853071796013 $96 $158 forward 7 unknown #
loop $-1 $-1 $103 $61 #
plane-surface $-1 2.5381232428591716 -21.066984408370409 1.5066278151578416 0 -0.62932039886446345 0.77714595512881146 1 0 0 forward_v I I I I #
loop $-1 $-1 $159 $39 #
coedge $-1 $101 $101 $102 $160 reversed $62 $-1 #
coedge $-1 $102 $102 $101 $160 forward $64 $-1 #
coedge $-1 $103 $103 $65 $104 forward $98 $-1 #
edge $-1 $161 5.2518187581664207e-016 $161 6.2831853071796013 $103 $162 forward 7 unknown #
face $-1 $163 $164 $22 $-1 $165 reversed single #
loop $-1 $-1 $166 $66 #
plane-surface $-1 12.263176801849941 27.2707913470832 93.035518710667375 -1 0 0 0 0.51503808176128008 0.85716729658548041 forward_v I I I I #
coedge $-1 $167 $168 $169 $170 reversed $67 $-1 #
coedge $-1 $110 $69 $171 $172 reversed $43 $-1 #
coedge $-1 $69 $109 $167 $173 reversed $43 $-1 #
coedge $-1 $169 $174 $69 $112 forward $175 $-1 #
edge $-1 $176 -7.4315887348288054 $177 0.95890755046319676 $111 $178 forward 7 unknown #
loop $-1 $-1 $118 $70 #
plane-surface $-1 5.1671656688332916 -15.048875736692256 22.603766358399938 0 0.51503808176128008 0.85716729658548041 1 0 0 forward_v I I I I #
loop $-1 $-1 $179 $45 #
coedge $-1 $116 $116 $117 $180 reversed $71 $-1 #
coedge $-1 $117 $117 $116 $180 forward $73 $-1 #
coedge $-1 $118 $118 $74 $119 forward $113 $-1 #
edge $-1 $181 3.528790514046902e-016 $181 6.2831853071796004 $118 $182 forward 7 unknown #
face $-1 $183 $184 $18 $-1 $185 reversed single #
loop $-1 $-1 $186 $75 #
plane-surface $-1 -41.084017456587418 0 0 1 0 0 0 0 -1 forward_v I I I I #
coedge $-1 $187 $131 $188 $189 forward $76 $-1 #
coedge $-1 $190 $78 $187 $191 forward $49 $-1 #
coedge $-1 $78 $190 $192 $193 forward $49 $-1 #
coedge $-1 $134 $133 $78 $127 reversed $135 $-1 #
edge $-1 $194 -21.066984408370406 $195 21.066984408370406 $126 $196 forward 7 unknown #
coedge $-1 $80 $79 $197 $198 forward $31 $-1 #
coedge $-1 $199 $200 $79 $130 reversed $184 $-1 #
edge $-1 $137 -41.084017456587418 $201 41.084017456587418 $129 $202 forward 7 unknown #
coedge $-1 $123 $203 $80 $132 reversed $76 $-1 #
edge $-1 $204 -41.084017456587418 $136 41.084017456587418 $131 $205 forward 7 unknown #
coedge $-1 $126 $81 $203 $206 forward $135 $-1 #
coedge $-1 $81 $126 $199 $207 reversed $135 $-1 #
loop $-1 $-1 $133 $183 #
vertex $-1 $82 $208 #
vertex $-1 $82 $209 #
straight-curve $-1 41.084017456587418 0 5.9446867652416904 0 1 0 I I #
face $-1 $-1 $151 $19 $-1 $210 forward single #
loop $-1 $-1 $211 $83 #
plane-surface $-1 0 -21.066984408370406 0 0 1 0 0 0 1 forward_v I I I I #
coedge $-1 $212 $213 $214 $215 reversed $84 $-1 #
coedge $-1 $216 $86 $88 $149 forward $53 $-1 #
coedge $-1 $86 $216 $212 $217 forward $53 $-1 #
coedge $-1 $214 $89 $86 $146 forward $151 $-1 #
edge $-1 $153 -11.141036823445059 $218 8.6029135805858878 $145 $219 forward 7 unknown #
coedge $-1 $220 $221 $87 $148 forward $140 $-1 #
edge $-1 $222 -31.174964079249467 $152 -26.736905129165621 $147 $223 forward 7 unknown #
edge $-1 $153 -7.0521453906337968 $222 -4.5775606565932064e-015 $88 $224 forward 7 unknown #
coedge $-1 $89 $214 $220 $225 forward $151 $-1 #
loop $-1 $-1 $214 $139 #
vertex $-1 $148 $226 #
vertex $-1 $90 $227 #
straight-curve $-1 12.410098444874645 -36.388502456919376 5.9446867652416913 0 1 0 I I #
coedge $-1 $155 $155 $-1 $228 reversed $93 $-1 #
edge $-1 $229 0 $229 6.2831853071796004 $94 $230 forward 7 unknown #
vertex $-1 $97 $231 #
ellipse-curve $-1 -1.6927232722903227 -18.326711275714732 3.7256572901997691 0 -0.62932039886446345 0.77714595512881146 1 0 0 1 I I #
coedge $-1 $159 $159 $-1 $232 reversed $100 $-1 #
edge $-1 $233 0 $233 6.2831853071796004 $101 $234 forward 7 unknown #
vertex $-1 $104 $235 #
ellipse-curve $-1 6.7689697580086516 -18.326711275714732 3.7256572901997691 0 -0.62932039886446345 0.77714595512881146 1 0 0 1 I I #
face $-1 $-1 $175 $22 $-1 $236 forward single #
loop $-1 $-1 $237 $105 #
plane-surface $-1 0 21.066984408370406 0 0 -1 0 0 0 -1 forward_v I I I I #
coedge $-1 $238 $239 $240 $241 reversed $106 $-1 #
coedge $-1 $242 $108 $110 $173 forward $67 $-1 #
coedge $-1 $108 $242 $238 $243 forward $67 $-1 #
coedge $-1 $240 $111 $108 $170 forward $175 $-1 #
edge $-1 $177 -4.5124282986000033 $244 9.6795939674332949 $169 $245 forward 7 unknown #
coedge $-1 $246 $247 $109 $172 forward $164 $-1 #
edge $-1 $248 -45.614591473297537 $176 -40.573072590091996 $171 $249 forward 7 unknown #
edge $-1 $177 32.345335584097107 $248 42.133968816740818 $110 $250 forward 7 unknown #
coedge $-1 $111 $240 $246 $251 forward $175 $-1 #
loop $-1 $-1 $240 $163 #
vertex $-1 $172 $252 #
vertex $-1 $112 $253 #
straight-curve $-1 -1.9288454641833574 13.6353956735416 5.9446867652416913 0 -1 0 I I #
coedge $-1 $179 $179 $-1 $254 reversed $115 $-1 #
edge $-1 $255 0 $255 6.2831853071796004 $116 $256 forward 7 unknown #
vertex $-1 $119 $257 #
ellipse-curve $-1 5.1671656688332845 16.871736265724408 3.4239273236389209 0 0.51503808176128008 0.85716729658548041 1.5 0 0 1 I I #
face $-1 $-1 $135 $18 $-1 $258 reversed single #
loop $-1 $-1 $199 $120 #
plane-surface $-1 0 21.066984408370406 0 0 -1 0 0 0 -1 forward_v I I I I #
coedge $-1 $259 $197 $200 $260 forward $121 $-1 #
coedge $-1 $203 $123 $124 $191 reversed $76 $-1 #
coedge $-1 $197 $259 $123 $189 reversed $121 $-1 #
edge $-1 $204 -5.9446867652416904 $261 5.9446867652416904 $188 $262 forward 7 unknown #
coedge $-1 $125 $124 $259 $263 forward $49 $-1 #
edge $-1 $195 -41.084017456587418 $261 41.084017456587418 $187 $264 forward 7 unknown #
coedge $-1 $200 $199 $125 $193 reversed $184 $-1 #
edge $-1 $265 -41.084017456587418 $194 41.084017456587418 $192 $266 forward 7 unknown #
vertex $-1 $127 $267 #
vertex $-1 $206 $268 #
straight-curve $-1 41.084017456587418 0 -5.9446867652416904 0 -1 0 I I #
coedge $-1 $186 $188 $128 $198 reversed $121 $-1 #
edge $-1 $201 -21.066984408370406 $204 21.066984408370406 $197 $269 forward 7 unknown #
coedge $-1 $192 $129 $134 $207 forward $184 $-1 #
coedge $-1 $129 $192 $186 $260 reversed $184 $-1 #
vertex $-1 $130 $270 #
straight-curve $-1 0 21.066984408370406 5.9446867652416904 -1 0 0 I I #
coedge $-1 $131 $187 $133 $206 reversed $76 $-1 #
vertex $-1 $198 $271 #
straight-curve $-1 0 -21.066984408370406 5.9446867652416904 1 0 0 I I #
edge $-1 $136 -5.9446867652416904 $195 5.9446867652416904 $133 $272 forward 7 unknown #
edge $-1 $137 -5.9446867652416904 $194 5.9446867652416904 $134 $273 forward 7 unknown #
point $-1 41.084017456587418 -21.066984408370406 5.9446867652416904 #
point $-1 41.084017456587418 21.066984408370406 5.9446867652416904 #
plane-surface $-1 0 0 5.9446867652416904 0 0 1 1 0 0 forward_v I I I I #
coedge $-1 $221 $220 $213 $274 forward $140 $-1 #
coedge $-1 $213 $142 $144 $217 reversed $84 $-1 #
coedge $-1 $142 $212 $211 $274 reversed $84 $-1 #
coedge $-1 $150 $145 $142 $215 forward $151 $-1 #
edge $-1 $218 -20.802064313860313 $275 -15.32151804854897 $214 $276 forward 7 unknown #
coedge $-1 $144 $143 $221 $277 reversed $53 $-1 #
edge $-1 $278 4.5775606565932064e-015 $218 7.0521453906337968 $212 $279 forward 7 unknown #
vertex $-1 $146 $280 #
straight-curve $-1 1.2690616214295858 -15.586438143059061 5.9446867652416904 -1 0 0 I I #
coedge $-1 $211 $147 $150 $225 reversed $140 $-1 #
coedge $-1 $147 $211 $216 $277 forward $140 $-1 #
vertex $-1 $148 $281 #
straight-curve $-1 12.410098444874645 -21.066984408370406 32.681591894407312 0 0 1 I I #
straight-curve $-1 12.410098444874645 -21.066984408370409 1.5066278151578416 0 -0.77714595512881146 -0.62932039886446345 I I #
edge $-1 $275 -7.3338519591563021 $152 12.410098444874645 $220 $282 forward 7 unknown #
point $-1 12.410098444874645 -21.066984408370406 5.9446867652416904 #
point $-1 12.410098444874645 -15.586438143059063 5.9446867652416904 #
edge $-1 $283 1 $283 0 $155 $-1 forward 7 unknown #
vertex $-1 $156 $284 #
ellipse-curve $-1 -1.6927232722903227 -16.934243623550316 2.0061029813295881 0 -0.62932039886446345 0.77714595512881146 1 0 0 1 I I #
point $-1 -0.69272327229032271 -18.326711275714729 3.7256572901997655 #
edge $-1 $285 1 $285 0 $159 $-1 forward 7 unknown #
vertex $-1 $160 $286 #
ellipse-curve $-1 6.7689697580086516 -16.934243623550316 2.0061029813295881 0 -0.62932039886446345 0.77714595512881146 1 0 0 1 I I #
point $-1 7.7689697580086516 -18.326711275714729 3.7256572901997655 #
plane-surface $-1 0 0 5.9446867652416904 0 0 1 1 0 0 forward_v I I I I #
coedge $-1 $247 $246 $239 $287 forward $164 $-1 #
coedge $-1 $239 $166 $168 $243 reversed $106 $-1 #
coedge $-1 $166 $238 $237 $287 reversed $106 $-1 #
coedge $-1 $174 $169 $166 $241 forward $175 $-1 #
edge $-1 $244 -0.95890755046319676 $288 7.4315887348288054 $240 $289 forward 7 unknown #
coedge $-1 $168 $167 $247 $290 reversed $67 $-1 #
edge $-1 $291 -42.133968816740818 $244 -32.345335584097107 $238 $292 forward 7 unknown #
vertex $-1 $170 $293 #
straight-curve $-1 2.5835828344166458 12.676488123078396 5.9446867652416913 1 0 0 I I #
coedge $-1 $237 $171 $174 $251 reversed $164 $-1 #
coedge $-1 $171 $237 $242 $290 forward $164 $-1 #
vertex $-1 $172 $294 #
straight-curve $-1 -1.9288454641833574 21.066984408370406 46.517759355333688 0 0 1 I I #
straight-curve $-1 -1.9288454641833574 -15.048875736692256 22.603766358399938 0 0.85716729658548041 -0.51503808176128008 I I #
edge $-1 $288 -12.263176801849941 $176 1.9288454641833574 $246 $295 forward 7 unknown #
point $-1 -1.9288454641833574 21.066984408370406 5.9446867652416904 #
point $-1 -1.9288454641833574 12.676488123078403 5.9446867652416913 #
edge $-1 $296 1 $296 0 $179 $-1 forward 7 unknown #
vertex $-1 $180 $297 #
ellipse-curve $-1 5.1671656688332845 15.2633405690666 0.74710741465420138 0 0.51503808176128008 0.85716729658548041 1.5 0 0 1 I I #
point $-1 6.6671656688332845 16.871736265724412 3.4239273236389258 #
plane-surface $-1 41.084017456587418 0 0 -1 0 0 0 0 1 forward_v I I I I #
coedge $-1 $188 $186 $190 $263 reversed $121 $-1 #
edge $-1 $201 -5.9446867652416904 $265 5.9446867652416904 $200 $298 forward 7 unknown #
vertex $-1 $263 $299 #
straight-curve $-1 -41.084017456587418 -21.066984408370406 0 0 0 -1 I I #
edge $-1 $261 -21.066984408370406 $265 21.066984408370406 $259 $300 forward 7 unknown #
straight-curve $-1 0 -21.066984408370406 -5.9446867652416904 -1 0 0 I I #
vertex $-1 $193 $301 #
straight-curve $-1 0 21.066984408370406 -5.9446867652416904 1 0 0 I I #
point $-1 41.084017456587418 21.066984408370406 -5.9446867652416904 #
point $-1 41.084017456587418 -21.066984408370406 -5.9446867652416904 #
straight-curve $-1 -41.084017456587418 0 5.9446867652416904 0 -1 0 I I #
point $-1 -41.084017456587418 21.066984408370406 5.9446867652416904 #
point $-1 -41.084017456587418 -21.066984408370406 5.9446867652416904 #
straight-curve $-1 41.084017456587418 -21.066984408370406 0 0 0 -1 I I #
straight-curve $-1 41.084017456587418 21.066984408370406 0 0 0 -1 I I #
edge $-1 $275 26.736905129165621 $278 31.174964079249467 $211 $302 forward 7 unknown #
vertex $-1 $225 $303 #
straight-curve $-1 -7.3338519591563021 -36.388502456919376 5.9446867652416913 0 -1 0 I I #
edge $-1 $278 -8.6029135805858878 $222 11.141036823445059 $221 $304 forward 7 unknown #
vertex $-1 $277 $305 #
straight-curve $-1 -7.3338519591563021 -21.066984408370409 1.5066278151578416 0 0.77714595512881146 0.62932039886446345 I I #
point $-1 -7.3338519591563021 -15.586438143059063 5.9446867652416904 #
point $-1 12.410098444874645 -21.066984408370406 1.5066278151578445 #
straight-curve $-1 0 -21.066984408370406 5.9446867652416904 1 0 0 I I #
vertex $-1 $228 $306 #
point $-1 -0.69272327229032271 -16.934243623550316 2.0061029813295881 #
vertex $-1 $232 $307 #
point $-1 7.7689697580086516 -16.934243623550316 2.0061029813295881 #
edge $-1 $288 40.573072590091996 $291 45.614591473297537 $237 $308 forward 7 unknown #
vertex $-1 $251 $309 #
straight-curve $-1 12.263176801849941 13.6353956735416 5.9446867652416913 0 1 0 I I #
edge $-1 $291 -9.6795939674332949 $248 4.5124282986000033 $247 $310 forward 7 unknown #
vertex $-1 $290 $311 #
straight-curve $-1 12.263176801849941 -15.048875736692256 22.603766358399938 0 -0.85716729658548041 0.51503808176128008 I I #
point $-1 12.263176801849941 12.676488123078403 5.9446867652416913 #
point $-1 -1.9288454641833574 21.066984408370406 0.90316788203615417 #
straight-curve $-1 0 21.066984408370406 5.9446867652416904 -1 0 0 I I #
vertex $-1 $254 $312 #
point $-1 6.6671656688332845 15.2633405690666 0.74710741465420138 #
straight-curve $-1 -41.084017456587418 21.066984408370406 0 0 0 -1 I I #
point $-1 -41.084017456587418 -21.066984408370406 -5.9446867652416904 #
straight-curve $-1 -41.084017456587418 0 -5.9446867652416904 0 1 0 I I #
point $-1 -41.084017456587418 21.066984408370406 -5.9446867652416904 #
straight-curve $-1 -7.3338519591563021 -21.066984408370406 32.681591894407312 0 0 -1 I I #
point $-1 -7.3338519591563021 -21.066984408370406 5.9446867652416904 #
straight-curve $-1 1.2690616214295858 -21.066984408370406 1.5066278151578461 1 0 0 I I #
point $-1 -7.3338519591563021 -21.066984408370406 1.5066278151578445 #
point $-1 -1.6927232722903227 -16.304923224685851 1.2289570262007765 #
point $-1 6.7689697580086516 -16.304923224685851 1.2289570262007765 #
straight-curve $-1 12.263176801849941 21.066984408370406 46.517759355333688 0 0 -1 I I #
point $-1 12.263176801849941 21.066984408370406 5.9446867652416904 #
straight-curve $-1 2.5835828344166458 21.066984408370406 0.90316788203615594 -1 0 0 I I #
point $-1 12.263176801849941 21.066984408370406 0.90316788203615417 #
point $-1 5.1671656688332845 14.490783446424679 -0.5386435302240189 #
End-of-ACIS-data 