500 0 16 0           
7 Unknown 11 ACIS 5.0 NT 24 Thu Mar 25 17:21:50 1999 
-1 9.9999999999999995e-007 1e-010 
body $-1 $16 $-1 $17 #
body $-1 $18 $-1 $19 #
body $-1 $20 $-1 $21 #
body $-1 $22 $-1 $23 #
body $-1 $24 $-1 $25 #
body $-1 $26 $-1 $27 #
body $-1 $28 $-1 $29 #
body $-1 $30 $-1 $31 #
body $-1 $32 $-1 $33 #
body $-1 $34 $-1 $35 #
body $-1 $36 $-1 $37 #
body $-1 $38 $-1 $39 #
body $-1 $40 $-1 $41 #
body $-1 $42 $-1 $43 #
body $-1 $44 $-1 $45 #
body $-1 $46 $-1 $47 #
lump $-1 $-1 $48 $0 #
transform $-1 1 0 0 0 1 0 0 0 1 62.901089510788296 37.504729029179487 11.983383008633611 1 rotate no_reflect no_shear #
lump $-1 $-1 $49 $1 #
transform $-1 1 0 0 0 1 0 0 0 1 62.901089510788296 37.504729029179487 11.983383008633611 1 rotate no_reflect no_shear #
lump $-1 $-1 $50 $2 #
transform $-1 1 0 0 0 1 0 0 0 1 62.901089510788296 37.504729029179487 11.983383008633611 1 rotate no_reflect no_shear #
lump $-1 $-1 $51 $3 #
transform $-1 1 0 0 0 1 0 0 0 1 62.901089510788296 37.504729029179487 11.983383008633611 1 rotate no_reflect no_shear #
lump $-1 $-1 $52 $4 #
transform $-1 1 0 0 0 1 0 0 0 1 62.901089510788296 37.504729029179487 11.983383008633611 1 rotate no_reflect no_shear #
lump $-1 $-1 $53 $5 #
transform $-1 1 0 0 0 1 0 0 0 1 62.901089510788296 37.504729029179487 11.983383008633611 1 rotate no_reflect no_shear #
lump $-1 $-1 $54 $6 #
transform $-1 1 0 0 0 1 0 0 0 1 62.901089510788296 37.504729029179487 11.983383008633611 1 rotate no_reflect no_shear #
lump $-1 $-1 $55 $7 #
transform $-1 1 0 0 0 1 0 0 0 1 62.901089510788296 37.504729029179487 11.983383008633611 1 rotate no_reflect no_shear #
lump $-1 $-1 $56 $8 #
transform $-1 1 0 0 0 1 0 0 0 1 62.901089510788296 37.504729029179487 11.983383008633611 1 rotate no_reflect no_shear #
lump $-1 $-1 $57 $9 #
transform $-1 1 0 0 0 1 0 0 0 1 62.901089510788296 37.504729029179487 11.983383008633611 1 rotate no_reflect no_shear #
lump $-1 $-1 $58 $10 #
transform $-1 1 0 0 0 1 0 0 0 1 62.901089510788296 37.504729029179487 11.983383008633611 1 rotate no_reflect no_shear #
lump $-1 $-1 $59 $11 #
transform $-1 1 0 0 0 1 0 0 0 1 62.901089510788296 37.504729029179487 11.983383008633611 1 rotate no_reflect no_shear #
lump $-1 $-1 $60 $12 #
transform $-1 1 0 0 0 1 0 0 0 1 62.901089510788296 37.504729029179487 11.983383008633611 1 rotate no_reflect no_shear #
lump $-1 $-1 $61 $13 #
transform $-1 1 0 0 0 1 0 0 0 1 62.901089510788296 37.504729029179487 11.983383008633611 1 rotate no_reflect no_shear #
lump $-1 $-1 $62 $14 #
transform $-1 1 0 0 0 1 0 0 0 1 62.901089510788296 37.504729029179487 11.983383008633611 1 rotate no_reflect no_shear #
lump $-1 $-1 $63 $15 #
transform $-1 1 0 0 0 1 0 0 0 1 62.901089510788296 37.504729029179487 11.983383008633611 1 rotate no_reflect no_shear #
shell $-1 $-1 $-1 $64 $-1 $16 #
shell $-1 $-1 $-1 $65 $-1 $18 #
shell $-1 $-1 $-1 $66 $-1 $20 #
shell $-1 $-1 $-1 $67 $-1 $22 #
shell $-1 $-1 $-1 $68 $-1 $24 #
shell $-1 $-1 $-1 $69 $-1 $26 #
shell $-1 $-1 $-1 $70 $-1 $28 #
shell $-1 $-1 $-1 $71 $-1 $30 #
shell $-1 $-1 $-1 $72 $-1 $32 #
shell $-1 $-1 $-1 $73 $-1 $34 #
shell $-1 $-1 $-1 $74 $-1 $36 #
shell $-1 $-1 $-1 $75 $-1 $38 #
shell $-1 $-1 $-1 $76 $-1 $40 #
shell $-1 $-1 $-1 $77 $-1 $42 #
shell $-1 $-1 $-1 $78 $-1 $44 #
shell $-1 $-1 $-1 $79 $-1 $46 #
face $-1 $80 $81 $48 $-1 $82 forward single #
face $-1 $83 $84 $49 $-1 $85 forward single #
face $-1 $86 $87 $50 $-1 $88 reversed single #
face $-1 $89 $90 $51 $-1 $91 forward single #
face $-1 $92 $93 $52 $-1 $94 forward single #
face $-1 $95 $96 $53 $-1 $97 forward single #
face $-1 $98 $99 $54 $-1 $100 reversed single #
face $-1 $101 $102 $55 $-1 $103 forward single #
face $-1 $104 $105 $56 $-1 $106 forward single #
face $-1 $107 $108 $57 $-1 $109 forward single #
face $-1 $110 $111 $58 $-1 $112 reversed single #
face $-1 $113 $114 $59 $-1 $115 forward single #
face $-1 $116 $117 $60 $-1 $118 forward single #
face $-1 $119 $120 $61 $-1 $121 reversed single #
face $-1 $122 $123 $62 $-1 $124 forward single #
face $-1 $125 $126 $63 $-1 $127 forward single #
face $-1 $128 $129 $48 $-1 $130 reversed single #
loop $-1 $-1 $131 $64 #
plane-surface $-1 0 0 11.983383008633611 0 0 1 1 0 0 forward_v I I I I #
face $-1 $132 $133 $49 $-1 $134 reversed single #
loop $-1 $-1 $135 $65 #
plane-surface $-1 0 -37.504729029179487 0 0 1 0 0 0 1 forward_v I I I I #
face $-1 $136 $137 $50 $-1 $138 reversed single #
loop $-1 $-1 $139 $66 #
plane-surface $-1 69.110101179624991 -7.5310273948008515 185.18451245532728 0 -1 0 -0.73135370988377701 0 -0.68199835119979291 forward_v I I I I #
face $-1 $140 $141 $51 $-1 $142 forward single #
loop $-1 $143 $144 $67 #
cone-surface $-1 60.081219429797898 -13.963032414597787 9.0537487590813424 -0.73135370988377701 0 -0.68199835119979291 0.34099917559989645 0 -0.36567685494188851 1 I I 0 1 0.5 forward I I I I #
face $-1 $145 $146 $52 $-1 $147 forward single #
loop $-1 $148 $149 $68 #
cone-surface $-1 60.081219429797898 -11.551030532173936 9.0537487590813424 -0.73135370988377701 0 -0.68199835119979291 0.34099917559989645 0 -0.36567685494188851 1 I I 0 1 0.5 forward I I I I #
face $-1 $150 $151 $53 $-1 $152 forward single #
loop $-1 $153 $154 $69 #
cone-surface $-1 60.081219429797898 -9.1390286497500846 9.0537487590813424 -0.73135370988377701 0 -0.68199835119979291 0.34099917559989645 0 -0.36567685494188851 1 I I 0 1 0.5 forward I I I I #
face $-1 $155 $156 $54 $-1 $157 reversed single #
loop $-1 $-1 $158 $70 #
plane-surface $-1 69.110101179624991 23.52689260229636 185.18451245532728 0 -1 0 -0.73135370988377701 0 -0.68199835119979291 forward_v I I I I #
face $-1 $159 $160 $55 $-1 $161 forward single #
loop $-1 $162 $163 $71 #
cone-surface $-1 60.081219429797898 17.094887582499425 9.0537487590813424 -0.73135370988377701 0 -0.68199835119979291 0.34099917559989645 0 -0.36567685494188851 1 I I 0 1 0.5 forward I I I I #
face $-1 $164 $165 $56 $-1 $166 forward single #
loop $-1 $167 $168 $72 #
cone-surface $-1 60.081219429797898 19.506889464923276 9.0537487590813424 -0.73135370988377701 0 -0.68199835119979291 0.34099917559989645 0 -0.36567685494188851 1 I I 0 1 0.5 forward I I I I #
face $-1 $169 $170 $57 $-1 $171 forward single #
loop $-1 $172 $173 $73 #
cone-surface $-1 60.081219429797898 21.918891347347127 9.0537487590813424 -0.73135370988377701 0 -0.68199835119979291 0.34099917559989645 0 -0.36567685494188851 1 I I 0 1 0.5 forward I I I I #
face $-1 $174 $175 $58 $-1 $176 reversed single #
loop $-1 $-1 $177 $74 #
plane-surface $-1 -127.69400247545026 -29.548870096430139 116.78783580241668 0 1 0 -0.51503808176128008 0 0.85716729658548041 forward_v I I I I #
face $-1 $178 $179 $59 $-1 $180 forward single #
loop $-1 $181 $182 $75 #
cone-surface $-1 -59.60733318680726 -24.886933456099072 9.1821075526091818 0.51503808176128008 0 -0.85716729658548041 0.85716729658548041 0 0.51503808176128008 1 I I 0 1 1 forward I I I I #
face $-1 $183 $184 $60 $-1 $185 forward single #
loop $-1 $186 $187 $76 #
cone-surface $-1 -59.60733318680726 -17.89402849560247 9.1821075526091818 0.51503808176128008 0 -0.85716729658548041 0.85716729658548041 0 0.51503808176128008 1 I I 0 1 1 forward I I I I #
face $-1 $188 $189 $61 $-1 $190 reversed single #
loop $-1 $-1 $191 $77 #
plane-surface $-1 -127.69400247545026 21.18795078802076 116.78783580241668 0 1 0 -0.51503808176128008 0 0.85716729658548041 forward_v I I I I #
face $-1 $192 $193 $62 $-1 $194 forward single #
loop $-1 $195 $196 $78 #
cone-surface $-1 -59.60733318680726 25.849887428351821 9.1821075526091818 0.51503808176128008 0 -0.85716729658548041 0.85716729658548041 0 0.51503808176128008 1 I I 0 1 1 forward I I I I #
face $-1 $197 $198 $63 $-1 $199 forward single #
loop $-1 $200 $201 $79 #
cone-surface $-1 -59.60733318680726 32.842792388848423 9.1821075526091818 0.51503808176128008 0 -0.85716729658548041 0.85716729658548041 0 0.51503808176128008 1 I I 0 1 1 forward I I I I #
face $-1 $202 $203 $48 $-1 $204 reversed single #
loop $-1 $-1 $205 $80 #
plane-surface $-1 0 0 -11.983383008633611 0 0 1 1 0 0 forward_v I I I I #
coedge $-1 $206 $207 $208 $209 forward $81 $-1 #
face $-1 $210 $211 $49 $-1 $212 forward single #
loop $-1 $-1 $213 $83 #
plane-surface $-1 -62.901089510788296 0 0 1 0 0 0 0 -1 forward_v I I I I #
coedge $-1 $214 $215 $216 $217 forward $84 $-1 #
face $-1 $218 $219 $50 $-1 $220 reversed single #
loop $-1 $-1 $221 $86 #
plane-surface $-1 -22.895789159268119 -11.551030532173936 99.387633785270864 0.73135370988377701 0 0.68199835119979291 0.68199835119979291 0 -0.73135370988377701 forward_v I I I I #
coedge $-1 $222 $223 $224 $225 reversed $87 $-1 #
face $-1 $-1 $226 $51 $-1 $227 forward single #
loop $-1 $228 $229 $89 #
cone-surface $-1 59.224060025594838 -13.963032414597787 8.2544347028570524 -0.73135370988377701 0 -0.68199835119979291 0.17049958779994823 0 -0.18283842747094425 1 I I -0.70710678118654746 0.70710678118654746 0.25 forward I I I I #
loop $-1 $-1 $230 $67 #
coedge $-1 $144 $144 $231 $232 reversed $90 $-1 #
face $-1 $-1 $233 $52 $-1 $234 forward single #
loop $-1 $235 $236 $92 #
cone-surface $-1 59.224060025594838 -11.551030532173936 8.2544347028570524 -0.73135370988377701 0 -0.68199835119979291 0.17049958779994823 0 -0.18283842747094425 1 I I -0.70710678118654746 0.70710678118654746 0.25 forward I I I I #
loop $-1 $-1 $237 $68 #
coedge $-1 $149 $149 $238 $239 reversed $93 $-1 #
face $-1 $-1 $240 $53 $-1 $241 forward single #
loop $-1 $242 $243 $95 #
cone-surface $-1 59.224060025594838 -9.1390286497500846 8.2544347028570524 -0.73135370988377701 0 -0.68199835119979291 0.17049958779994823 0 -0.18283842747094425 1 I I -0.70710678118654746 0.70710678118654746 0.25 forward I I I I #
loop $-1 $-1 $244 $69 #
coedge $-1 $154 $154 $245 $246 reversed $96 $-1 #
face $-1 $247 $248 $54 $-1 $249 reversed single #
loop $-1 $-1 $250 $98 #
plane-surface $-1 -22.895789159268119 19.506889464923276 99.387633785270864 0.73135370988377701 0 0.68199835119979291 0.68199835119979291 0 -0.73135370988377701 forward_v I I I I #
coedge $-1 $251 $252 $253 $254 reversed $99 $-1 #
face $-1 $-1 $255 $55 $-1 $256 forward single #
loop $-1 $257 $258 $101 #
cone-surface $-1 59.224060025594838 17.094887582499425 8.2544347028570524 -0.73135370988377701 0 -0.68199835119979291 0.17049958779994823 0 -0.18283842747094425 1 I I -0.70710678118654746 0.70710678118654746 0.25 forward I I I I #
loop $-1 $-1 $259 $71 #
coedge $-1 $163 $163 $260 $261 reversed $102 $-1 #
face $-1 $-1 $262 $56 $-1 $263 forward single #
loop $-1 $264 $265 $104 #
cone-surface $-1 59.224060025594838 19.506889464923276 8.2544347028570524 -0.73135370988377701 0 -0.68199835119979291 0.17049958779994823 0 -0.18283842747094425 1 I I -0.70710678118654746 0.70710678118654746 0.25 forward I I I I #
loop $-1 $-1 $266 $72 #
coedge $-1 $168 $168 $267 $268 reversed $105 $-1 #
face $-1 $-1 $269 $57 $-1 $270 forward single #
loop $-1 $271 $272 $107 #
cone-surface $-1 59.224060025594838 21.918891347347127 8.2544347028570524 -0.73135370988377701 0 -0.68199835119979291 0.17049958779994823 0 -0.18283842747094425 1 I I -0.70710678118654746 0.70710678118654746 0.25 forward I I I I #
loop $-1 $-1 $273 $73 #
coedge $-1 $173 $173 $274 $275 reversed $108 $-1 #
face $-1 $276 $277 $58 $-1 $278 reversed single #
loop $-1 $-1 $279 $110 #
plane-surface $-1 -62.901089510788296 -21.390480975850771 8.9543221059292222 -0.51503808176128008 0 0.85716729658548041 0.85716729658548041 0 0.51503808176128008 forward_v I I I I #
coedge $-1 $280 $281 $282 $283 reversed $111 $-1 #
face $-1 $-1 $284 $59 $-1 $285 forward single #
loop $-1 $286 $287 $113 #
cone-surface $-1 -58.576659731890707 -24.886933456099072 7.466778899644213 0.51503808176128008 0 -0.85716729658548041 0.4285836482927402 0 0.25751904088064004 1 I I -0.70710678118654746 0.70710678118654746 0.5 forward I I I I #
loop $-1 $-1 $288 $75 #
coedge $-1 $182 $182 $289 $290 reversed $114 $-1 #
face $-1 $-1 $291 $60 $-1 $292 forward single #
loop $-1 $293 $294 $116 #
cone-surface $-1 -58.576659731890707 -17.89402849560247 7.466778899644213 0.51503808176128008 0 -0.85716729658548041 0.4285836482927402 0 0.25751904088064004 1 I I -0.70710678118654746 0.70710678118654746 0.5 forward I I I I #
loop $-1 $-1 $295 $76 #
coedge $-1 $187 $187 $296 $297 reversed $117 $-1 #
face $-1 $298 $299 $61 $-1 $300 forward single #
loop $-1 $-1 $301 $119 #
plane-surface $-1 -62.901089510788296 29.346339908600129 8.9543221059292222 -0.51503808176128008 0 0.85716729658548041 0.85716729658548041 0 0.51503808176128008 forward_v I I I I #
coedge $-1 $302 $303 $304 $305 reversed $120 $-1 #
face $-1 $-1 $306 $62 $-1 $307 forward single #
loop $-1 $308 $309 $122 #
cone-surface $-1 -58.576659731890707 25.849887428351821 7.466778899644213 0.51503808176128008 0 -0.85716729658548041 0.4285836482927402 0 0.25751904088064004 1 I I -0.70710678118654746 0.70710678118654746 0.5 forward I I I I #
loop $-1 $-1 $310 $78 #
coedge $-1 $196 $196 $311 $312 reversed $123 $-1 #
face $-1 $-1 $313 $63 $-1 $314 forward single #
loop $-1 $315 $316 $125 #
cone-surface $-1 -58.576659731890707 32.842792388848423 7.466778899644213 0.51503808176128008 0 -0.85716729658548041 0.4285836482927402 0 0.25751904088064004 1 I I -0.70710678118654746 0.70710678118654746 0.5 forward I I I I #
loop $-1 $-1 $317 $79 #
coedge $-1 $201 $201 $318 $319 reversed $126 $-1 #
face $-1 $320 $321 $48 $-1 $322 reversed single #
loop $-1 $-1 $323 $128 #
plane-surface $-1 0 -37.504729029179487 0 0 1 0 0 0 1 forward_v I I I I #
coedge $-1 $324 $325 $326 $327 forward $129 $-1 #
coedge $-1 $328 $131 $329 $330 forward $81 $-1 #
coedge $-1 $131 $328 $331 $332 forward $81 $-1 #
coedge $-1 $333 $334 $131 $209 reversed $335 $-1 #
edge $-1 $336 -37.504729029179487 $337 37.504729029179487 $208 $338 forward 7 unknown #
face $-1 $339 $340 $49 $-1 $341 reversed single #
loop $-1 $-1 $342 $132 #
plane-surface $-1 0 -41.482658495554162 -1.8766656936608079 0 0 1 1 0 0 forward_v I I I I #
coedge $-1 $343 $344 $215 $345 forward $133 $-1 #
coedge $-1 $346 $135 $347 $348 reversed $84 $-1 #
coedge $-1 $135 $346 $213 $345 reversed $84 $-1 #
coedge $-1 $349 $342 $135 $217 reversed $211 $-1 #
edge $-1 $350 -62.901089510788296 $351 62.901089510788296 $216 $352 forward 7 unknown #
face $-1 $353 $354 $50 $-1 $355 reversed single #
loop $-1 $-1 $356 $136 #
plane-surface $-1 69.110101179624991 -15.57103366954702 185.18451245532728 0 1 0 0.73135370988377701 0 0.68199835119979291 forward_v I I I I #
coedge $-1 $357 $358 $359 $360 reversed $137 $-1 #
coedge $-1 $223 $139 $361 $362 reversed $87 $-1 #
coedge $-1 $139 $222 $357 $363 reversed $87 $-1 #
coedge $-1 $359 $364 $139 $225 forward $365 $-1 #
edge $-1 $366 -28.346038920975801 $367 -24.054940712459228 $224 $368 forward 7 unknown #
loop $-1 $-1 $231 $140 #
plane-surface $-1 -22.895789159268119 -11.551030532173936 99.387633785270864 0.73135370988377701 0 0.68199835119979291 0.68199835119979291 0 -0.73135370988377701 forward_v I I I I #
loop $-1 $-1 $369 $89 #
coedge $-1 $229 $229 $230 $370 reversed $141 $-1 #
coedge $-1 $230 $230 $229 $370 forward $143 $-1 #
coedge $-1 $231 $231 $144 $232 forward $226 $-1 #
edge $-1 $371 0 $371 6.2831853071796004 $231 $372 forward 7 unknown #
loop $-1 $-1 $238 $145 #
plane-surface $-1 -22.895789159268119 -11.551030532173936 99.387633785270864 0.73135370988377701 0 0.68199835119979291 0.68199835119979291 0 -0.73135370988377701 forward_v I I I I #
loop $-1 $-1 $373 $92 #
coedge $-1 $236 $236 $237 $374 reversed $146 $-1 #
coedge $-1 $237 $237 $236 $374 forward $148 $-1 #
coedge $-1 $238 $238 $149 $239 forward $233 $-1 #
edge $-1 $375 0 $375 6.2831853071796004 $238 $376 forward 7 unknown #
loop $-1 $-1 $245 $150 #
plane-surface $-1 -22.895789159268119 -11.551030532173936 99.387633785270864 0.73135370988377701 0 0.68199835119979291 0.68199835119979291 0 -0.73135370988377701 forward_v I I I I #
loop $-1 $-1 $377 $95 #
coedge $-1 $243 $243 $244 $378 reversed $151 $-1 #
coedge $-1 $244 $244 $243 $378 forward $153 $-1 #
coedge $-1 $245 $245 $154 $246 forward $240 $-1 #
edge $-1 $379 0 $379 6.2831853071796004 $245 $380 forward 7 unknown #
face $-1 $381 $382 $54 $-1 $383 reversed single #
loop $-1 $-1 $384 $155 #
plane-surface $-1 69.110101179624991 15.486886327550192 185.18451245532728 0 1 0 0.73135370988377701 0 0.68199835119979291 forward_v I I I I #
coedge $-1 $385 $386 $387 $388 reversed $156 $-1 #
coedge $-1 $252 $158 $389 $390 reversed $99 $-1 #
coedge $-1 $158 $251 $385 $391 reversed $99 $-1 #
coedge $-1 $387 $392 $158 $254 forward $393 $-1 #
edge $-1 $394 -28.346038920975801 $395 -24.054940712459228 $253 $396 forward 7 unknown #
loop $-1 $-1 $260 $159 #
plane-surface $-1 -22.895789159268119 19.506889464923276 99.387633785270864 0.73135370988377701 0 0.68199835119979291 0.68199835119979291 0 -0.73135370988377701 forward_v I I I I #
loop $-1 $-1 $397 $101 #
coedge $-1 $258 $258 $259 $398 reversed $160 $-1 #
coedge $-1 $259 $259 $258 $398 forward $162 $-1 #
coedge $-1 $260 $260 $163 $261 forward $255 $-1 #
edge $-1 $399 0 $399 6.2831853071796004 $260 $400 forward 7 unknown #
loop $-1 $-1 $267 $164 #
plane-surface $-1 -22.895789159268119 19.506889464923276 99.387633785270864 0.73135370988377701 0 0.68199835119979291 0.68199835119979291 0 -0.73135370988377701 forward_v I I I I #
loop $-1 $-1 $401 $104 #
coedge $-1 $265 $265 $266 $402 reversed $165 $-1 #
coedge $-1 $266 $266 $265 $402 forward $167 $-1 #
coedge $-1 $267 $267 $168 $268 forward $262 $-1 #
edge $-1 $403 0 $403 6.2831853071796004 $267 $404 forward 7 unknown #
loop $-1 $-1 $274 $169 #
plane-surface $-1 -22.895789159268119 19.506889464923276 99.387633785270864 0.73135370988377701 0 0.68199835119979291 0.68199835119979291 0 -0.73135370988377701 forward_v I I I I #
loop $-1 $-1 $405 $107 #
coedge $-1 $272 $272 $273 $406 reversed $170 $-1 #
coedge $-1 $273 $273 $272 $406 forward $172 $-1 #
coedge $-1 $274 $274 $173 $275 forward $269 $-1 #
edge $-1 $407 0 $407 6.2831853071796004 $274 $408 forward 7 unknown #
face $-1 $409 $410 $58 $-1 $411 forward single #
loop $-1 $-1 $412 $174 #
plane-surface $-1 -127.69400247545026 -13.232091855271403 116.78783580241668 0 -1 0 0.51503808176128008 0 -0.85716729658548041 forward_v I I I I #
coedge $-1 $413 $414 $415 $416 reversed $175 $-1 #
coedge $-1 $281 $177 $417 $418 reversed $111 $-1 #
coedge $-1 $177 $280 $413 $419 reversed $111 $-1 #
coedge $-1 $415 $420 $177 $283 forward $410 $-1 #
edge $-1 $421 0.9459117269368349 $422 5.9871155468270558 $282 $423 forward 7 unknown #
loop $-1 $-1 $289 $178 #
plane-surface $-1 -62.901089510788296 -21.390480975850771 8.9543221059292222 -0.51503808176128008 0 0.85716729658548041 0.85716729658548041 0 0.51503808176128008 forward_v I I I I #
loop $-1 $-1 $424 $113 #
coedge $-1 $287 $287 $288 $425 reversed $179 $-1 #
coedge $-1 $288 $288 $287 $425 forward $181 $-1 #
coedge $-1 $289 $289 $182 $290 forward $284 $-1 #
edge $-1 $426 0 $426 6.2831853071796004 $289 $427 forward 7 unknown #
loop $-1 $-1 $296 $183 #
plane-surface $-1 -62.901089510788296 -21.390480975850771 8.9543221059292222 -0.51503808176128008 0 0.85716729658548041 0.85716729658548041 0 0.51503808176128008 forward_v I I I I #
loop $-1 $-1 $428 $116 #
coedge $-1 $294 $294 $295 $429 reversed $184 $-1 #
coedge $-1 $295 $295 $294 $429 forward $186 $-1 #
coedge $-1 $296 $296 $187 $297 forward $291 $-1 #
edge $-1 $430 0 $430 6.2831853071796004 $296 $431 forward 7 unknown #
face $-1 $432 $433 $61 $-1 $434 reversed single #
loop $-1 $-1 $304 $188 #
plane-surface $-1 0 0 11.983383008633611 0 0 1 1 0 0 forward_v I I I I #
coedge $-1 $435 $436 $437 $438 reversed $189 $-1 #
coedge $-1 $303 $191 $439 $440 reversed $120 $-1 #
coedge $-1 $191 $302 $435 $441 reversed $120 $-1 #
coedge $-1 $437 $442 $191 $305 forward $299 $-1 #
edge $-1 $443 0.9459117269368349 $444 5.9871155468270558 $304 $445 forward 7 unknown #
loop $-1 $-1 $311 $192 #
plane-surface $-1 -62.901089510788296 29.346339908600129 8.9543221059292222 -0.51503808176128008 0 0.85716729658548041 0.85716729658548041 0 0.51503808176128008 forward_v I I I I #
loop $-1 $-1 $446 $122 #
coedge $-1 $309 $309 $310 $447 reversed $193 $-1 #
coedge $-1 $310 $310 $309 $447 forward $195 $-1 #
coedge $-1 $311 $311 $196 $312 forward $306 $-1 #
edge $-1 $448 0 $448 6.2831853071796004 $311 $449 forward 7 unknown #
loop $-1 $-1 $318 $197 #
plane-surface $-1 -62.901089510788296 29.346339908600129 8.9543221059292222 -0.51503808176128008 0 0.85716729658548041 0.85716729658548041 0 0.51503808176128008 forward_v I I I I #
loop $-1 $-1 $450 $125 #
coedge $-1 $316 $316 $317 $451 reversed $198 $-1 #
coedge $-1 $317 $317 $316 $451 forward $200 $-1 #
coedge $-1 $318 $318 $201 $319 forward $313 $-1 #
edge $-1 $452 0 $452 6.2831853071796004 $318 $453 forward 7 unknown #
face $-1 $454 $455 $48 $-1 $456 reversed single #
loop $-1 $-1 $457 $202 #
plane-surface $-1 -62.901089510788296 0 0 1 0 0 0 0 -1 forward_v I I I I #
coedge $-1 $458 $331 $459 $460 forward $203 $-1 #
coedge $-1 $461 $205 $458 $462 forward $129 $-1 #
coedge $-1 $205 $461 $463 $464 forward $129 $-1 #
coedge $-1 $334 $333 $205 $327 reversed $335 $-1 #
edge $-1 $465 -37.504729029179487 $466 37.504729029179487 $326 $467 forward 7 unknown #
coedge $-1 $207 $206 $468 $469 forward $81 $-1 #
coedge $-1 $470 $471 $206 $330 reversed $455 $-1 #
edge $-1 $337 -62.901089510788296 $472 62.901089510788296 $329 $473 forward 7 unknown #
coedge $-1 $323 $474 $207 $332 reversed $203 $-1 #
edge $-1 $475 -62.901089510788296 $336 62.901089510788296 $331 $476 forward 7 unknown #
coedge $-1 $326 $208 $474 $477 forward $335 $-1 #
coedge $-1 $208 $326 $470 $478 reversed $335 $-1 #
loop $-1 $-1 $333 $454 #
vertex $-1 $209 $479 #
vertex $-1 $209 $480 #
straight-curve $-1 62.901089510788296 0 11.983383008633611 0 1 0 I I #
face $-1 $481 $482 $49 $-1 $483 reversed single #
loop $-1 $-1 $484 $210 #
plane-surface $-1 0 -41.482658495554162 -6.1285412860243476 0 0 1 1 0 0 forward_v I I I I #
coedge $-1 $216 $485 $486 $487 forward $211 $-1 #
coedge $-1 $488 $213 $489 $490 reversed $133 $-1 #
coedge $-1 $213 $488 $349 $491 reversed $133 $-1 #
edge $-1 $350 1.8766656936608079 $492 6.1285412860243476 $213 $493 forward 7 unknown #
coedge $-1 $215 $214 $494 $495 forward $84 $-1 #
coedge $-1 $486 $496 $214 $348 forward $497 $-1 #
edge $-1 $498 -6.1285412860243476 $351 -1.8766656936608079 $347 $499 forward 7 unknown #
coedge $-1 $485 $216 $344 $491 forward $211 $-1 #
vertex $-1 $345 $500 #
vertex $-1 $487 $501 #
straight-curve $-1 0 -37.504729029179487 -1.8766656936608079 1 0 0 I I #
face $-1 $-1 $365 $50 $-1 $502 forward single #
loop $-1 $-1 $503 $218 #
plane-surface $-1 62.901089510788296 0 0 -1 0 0 0 0 1 forward_v I I I I #
coedge $-1 $504 $505 $506 $507 reversed $219 $-1 #
coedge $-1 $508 $221 $223 $363 forward $137 $-1 #
coedge $-1 $221 $508 $504 $509 forward $137 $-1 #
coedge $-1 $506 $224 $221 $360 forward $365 $-1 #
edge $-1 $367 1.7555121287138835 $510 9.7955184034600524 $359 $511 forward 7 unknown #
coedge $-1 $512 $513 $222 $362 forward $354 $-1 #
edge $-1 $514 -85.210512781285885 $366 -80.608873219030031 $361 $515 forward 7 unknown #
edge $-1 $367 119.51023095312812 $514 125.80217902157659 $223 $516 forward 7 unknown #
coedge $-1 $224 $506 $512 $517 forward $365 $-1 #
loop $-1 $-1 $506 $353 #
vertex $-1 $362 $518 #
vertex $-1 $225 $519 #
straight-curve $-1 34.555050589812495 -7.5310273948008515 11.983383008633609 -1 0 0 I I #
coedge $-1 $369 $369 $-1 $520 reversed $228 $-1 #
edge $-1 $521 0 $521 6.2831853071796004 $229 $522 forward 7 unknown #
vertex $-1 $232 $523 #
ellipse-curve $-1 60.75554040653001 -13.963032414597787 9.6825632275056783 0.73135370988377701 0 0.68199835119979291 0.34099917559989645 0 -0.36567685494188851 1 I I #
coedge $-1 $373 $373 $-1 $524 reversed $235 $-1 #
edge $-1 $525 0 $525 6.2831853071796004 $236 $526 forward 7 unknown #
vertex $-1 $239 $527 #
ellipse-curve $-1 60.75554040653001 -11.551030532173936 9.6825632275056783 0.73135370988377701 0 0.68199835119979291 0.34099917559989645 0 -0.36567685494188851 1 I I #
coedge $-1 $377 $377 $-1 $528 reversed $242 $-1 #
edge $-1 $529 0 $529 6.2831853071796004 $243 $530 forward 7 unknown #
vertex $-1 $246 $531 #
ellipse-curve $-1 60.75554040653001 -9.1390286497500846 9.6825632275056783 0.73135370988377701 0 0.68199835119979291 0.34099917559989645 0 -0.36567685494188851 1 I I #
face $-1 $-1 $393 $54 $-1 $532 forward single #
loop $-1 $-1 $533 $247 #
plane-surface $-1 62.901089510788296 0 0 -1 0 0 0 0 1 forward_v I I I I #
coedge $-1 $534 $535 $536 $537 reversed $248 $-1 #
coedge $-1 $538 $250 $252 $391 forward $156 $-1 #
coedge $-1 $250 $538 $534 $539 forward $156 $-1 #
coedge $-1 $536 $253 $250 $388 forward $393 $-1 #
edge $-1 $395 -13.773447869834722 $540 -5.7334415950885536 $387 $541 forward 7 unknown #
coedge $-1 $542 $543 $251 $390 forward $382 $-1 #
edge $-1 $544 -85.210512781285885 $394 -80.608873219030031 $389 $545 forward 7 unknown #
edge $-1 $395 119.51023095312812 $544 125.80217902157659 $252 $546 forward 7 unknown #
coedge $-1 $253 $536 $542 $547 forward $393 $-1 #
loop $-1 $-1 $536 $381 #
vertex $-1 $390 $548 #
vertex $-1 $254 $549 #
straight-curve $-1 34.555050589812495 23.52689260229636 11.983383008633609 -1 0 0 I I #
coedge $-1 $397 $397 $-1 $550 reversed $257 $-1 #
edge $-1 $551 0 $551 6.2831853071796004 $258 $552 forward 7 unknown #
vertex $-1 $261 $553 #
ellipse-curve $-1 60.75554040653001 17.094887582499425 9.6825632275056783 0.73135370988377701 0 0.68199835119979291 0.34099917559989645 0 -0.36567685494188851 1 I I #
coedge $-1 $401 $401 $-1 $554 reversed $264 $-1 #
edge $-1 $555 0 $555 6.2831853071796004 $265 $556 forward 7 unknown #
vertex $-1 $268 $557 #
ellipse-curve $-1 60.75554040653001 19.506889464923276 9.6825632275056783 0.73135370988377701 0 0.68199835119979291 0.34099917559989645 0 -0.36567685494188851 1 I I #
coedge $-1 $405 $405 $-1 $558 reversed $271 $-1 #
edge $-1 $559 0 $559 6.2831853071796004 $272 $560 forward 7 unknown #
vertex $-1 $275 $561 #
ellipse-curve $-1 60.75554040653001 21.918891347347127 9.6825632275056783 0.73135370988377701 0 0.68199835119979291 0.34099917559989645 0 -0.36567685494188851 1 I I #
face $-1 $-1 $562 $58 $-1 $563 reversed single #
loop $-1 $-1 $282 $276 #
plane-surface $-1 0 0 11.983383008633611 0 0 1 1 0 0 forward_v I I I I #
coedge $-1 $564 $565 $566 $567 reversed $277 $-1 #
coedge $-1 $568 $279 $281 $419 forward $175 $-1 #
coedge $-1 $279 $568 $564 $569 forward $175 $-1 #
coedge $-1 $566 $282 $279 $416 forward $410 $-1 #
edge $-1 $422 -18.853629608504754 $570 -2.5368513673460171 $415 $571 forward 7 unknown #
coedge $-1 $572 $573 $280 $418 forward $562 $-1 #
edge $-1 $574 -49.439595795279118 $421 -46.410534892574731 $417 $575 forward 7 unknown #
edge $-1 $422 -5.8812367666986578 $574 0 $281 $576 forward 7 unknown #
coedge $-1 $282 $566 $572 $577 forward $410 $-1 #
vertex $-1 $283 $578 #
vertex $-1 $283 $579 #
straight-curve $-1 -63.847001237725131 -29.548870096430139 11.983383008633609 1 0 0 I I #
coedge $-1 $424 $424 $-1 $580 reversed $286 $-1 #
edge $-1 $581 0 $581 6.2831853071796004 $287 $582 forward 7 unknown #
vertex $-1 $290 $583 #
ellipse-curve $-1 -60.380487600843182 -24.886933456099072 10.468852557281421 -0.51503808176128008 0 0.85716729658548041 0.85716729658548041 0 0.51503808176128008 1 I I #
coedge $-1 $428 $428 $-1 $584 reversed $293 $-1 #
edge $-1 $585 0 $585 6.2831853071796004 $294 $586 forward 7 unknown #
vertex $-1 $297 $587 #
ellipse-curve $-1 -60.380487600843182 -17.89402849560247 10.468852557281421 -0.51503808176128008 0 0.85716729658548041 0.85716729658548041 0 0.51503808176128008 1 I I #
face $-1 $-1 $588 $61 $-1 $589 reversed single #
loop $-1 $-1 $590 $298 #
plane-surface $-1 0 37.504729029179487 0 0 -1 0 0 0 -1 forward_v I I I I #
coedge $-1 $591 $301 $303 $441 forward $189 $-1 #
coedge $-1 $301 $591 $590 $592 reversed $189 $-1 #
coedge $-1 $593 $304 $301 $438 forward $299 $-1 #
edge $-1 $444 6.5147808337206961 $594 22.831559074879436 $437 $595 forward 7 unknown #
coedge $-1 $596 $597 $302 $440 forward $588 $-1 #
edge $-1 $598 -49.439595795279118 $443 -46.410534892574731 $439 $599 forward 7 unknown #
edge $-1 $444 -5.8812367666986578 $598 0 $303 $600 forward 7 unknown #
coedge $-1 $304 $593 $596 $601 forward $299 $-1 #
vertex $-1 $440 $602 #
vertex $-1 $305 $603 #
straight-curve $-1 -63.847001237725131 21.18795078802076 11.983383008633609 1 0 0 I I #
coedge $-1 $446 $446 $-1 $604 reversed $308 $-1 #
edge $-1 $605 0 $605 6.2831853071796004 $309 $606 forward 7 unknown #
vertex $-1 $312 $607 #
ellipse-curve $-1 -60.380487600843182 25.849887428351821 10.468852557281421 -0.51503808176128008 0 0.85716729658548041 0.85716729658548041 0 0.51503808176128008 1 I I #
coedge $-1 $450 $450 $-1 $608 reversed $315 $-1 #
edge $-1 $609 0 $609 6.2831853071796004 $316 $610 forward 7 unknown #
vertex $-1 $319 $611 #
ellipse-curve $-1 -60.380487600843182 32.842792388848423 10.468852557281421 -0.51503808176128008 0 0.85716729658548041 0.85716729658548041 0 0.51503808176128008 1 I I #
face $-1 $-1 $335 $48 $-1 $612 reversed single #
loop $-1 $-1 $470 $320 #
plane-surface $-1 0 37.504729029179487 0 0 -1 0 0 0 -1 forward_v I I I I #
coedge $-1 $613 $468 $471 $614 forward $321 $-1 #
coedge $-1 $474 $323 $324 $462 reversed $203 $-1 #
coedge $-1 $468 $613 $323 $460 reversed $321 $-1 #
edge $-1 $475 -11.983383008633611 $615 11.983383008633611 $459 $616 forward 7 unknown #
coedge $-1 $325 $324 $613 $617 forward $129 $-1 #
edge $-1 $466 -62.901089510788296 $615 62.901089510788296 $458 $618 forward 7 unknown #
coedge $-1 $471 $470 $325 $464 reversed $455 $-1 #
edge $-1 $619 -62.901089510788296 $465 62.901089510788296 $463 $620 forward 7 unknown #
vertex $-1 $327 $621 #
vertex $-1 $477 $622 #
straight-curve $-1 62.901089510788296 0 -11.983383008633611 0 -1 0 I I #
coedge $-1 $457 $459 $328 $469 reversed $321 $-1 #
edge $-1 $472 -37.504729029179487 $475 37.504729029179487 $468 $623 forward 7 unknown #
coedge $-1 $463 $329 $334 $478 forward $455 $-1 #
coedge $-1 $329 $463 $457 $614 reversed $455 $-1 #
vertex $-1 $330 $624 #
straight-curve $-1 0 37.504729029179487 11.983383008633611 -1 0 0 I I #
coedge $-1 $331 $458 $333 $477 reversed $203 $-1 #
vertex $-1 $469 $625 #
straight-curve $-1 0 -37.504729029179487 11.983383008633611 1 0 0 I I #
edge $-1 $336 -11.983383008633611 $466 11.983383008633611 $333 $626 forward 7 unknown #
edge $-1 $337 -11.983383008633611 $465 11.983383008633611 $334 $627 forward 7 unknown #
point $-1 62.901089510788296 -37.504729029179487 11.983383008633611 #
point $-1 62.901089510788296 37.504729029179487 11.983383008633611 #
face $-1 $-1 $497 $49 $-1 $628 reversed single #
loop $-1 $-1 $629 $339 #
plane-surface $-1 0 -45.460587961928837 -4.0026034898425777 0 1 0 0 0 1 forward_v I I I I #
coedge $-1 $630 $494 $496 $631 forward $340 $-1 #
coedge $-1 $342 $349 $632 $633 forward $211 $-1 #
coedge $-1 $634 $347 $342 $487 reversed $497 $-1 #
edge $-1 $635 -3.9779294663746754 $351 3.9779294663746754 $486 $636 forward 7 unknown #
coedge $-1 $344 $343 $629 $637 reversed $133 $-1 #
coedge $-1 $494 $630 $343 $490 forward $340 $-1 #
edge $-1 $638 -3.9779294663746754 $492 3.9779294663746754 $343 $639 forward 7 unknown #
edge $-1 $350 -3.9779294663746754 $640 3.9779294663746754 $344 $641 forward 7 unknown #
vertex $-1 $345 $642 #
straight-curve $-1 -62.901089510788296 -37.504729029179487 0 0 0 -1 I I #
coedge $-1 $484 $489 $346 $495 reversed $340 $-1 #
edge $-1 $498 -62.901089510788296 $492 62.901089510788296 $494 $643 forward 7 unknown #
coedge $-1 $347 $634 $484 $631 reversed $497 $-1 #
loop $-1 $-1 $347 $481 #
vertex $-1 $348 $644 #
straight-curve $-1 62.901089510788296 -37.504729029179487 0 0 0 1 I I #
point $-1 -62.901089510788296 -37.504729029179487 -1.8766656936608079 #
point $-1 62.901089510788296 -37.504729029179487 -1.8766656936608079 #
plane-surface $-1 0 0 11.983383008633611 0 0 1 1 0 0 forward_v I I I I #
coedge $-1 $513 $512 $505 $645 forward $354 $-1 #
coedge $-1 $505 $356 $358 $509 reversed $219 $-1 #
coedge $-1 $356 $504 $503 $645 reversed $219 $-1 #
coedge $-1 $364 $359 $356 $507 forward $365 $-1 #
edge $-1 $510 24.054940712459228 $646 28.346038920975801 $506 $647 forward 7 unknown #
coedge $-1 $358 $357 $513 $648 reversed $137 $-1 #
edge $-1 $649 -125.80217902157659 $510 -119.51023095312812 $504 $650 forward 7 unknown #
vertex $-1 $360 $651 #
straight-curve $-1 58.60999130227173 -5.775515266086968 11.983383008633609 0 -1 0 I I #
coedge $-1 $503 $361 $364 $517 reversed $354 $-1 #
coedge $-1 $361 $503 $508 $648 forward $354 $-1 #
vertex $-1 $362 $652 #
straight-curve $-1 62.901089510788296 -7.5310273948008515 92.59225622766364 0 0 1 I I #
straight-curve $-1 -22.895789159268119 -7.5310273948008515 99.387633785270864 0.68199835119979291 0 -0.73135370988377701 I I #
edge $-1 $646 -15.57103366954702 $366 -7.5310273948008515 $512 $653 forward 7 unknown #
point $-1 62.901089510788296 -7.5310273948008515 11.983383008633611 #
point $-1 58.609991302271723 -7.5310273948008515 11.983383008633609 #
edge $-1 $654 1 $654 0 $369 $-1 forward 7 unknown #
vertex $-1 $370 $655 #
ellipse-curve $-1 59.406898453065779 -13.963032414597787 8.4249342906570011 0.73135370988377701 0 0.68199835119979291 0.34099917559989645 0 -0.36567685494188851 1 I I #
point $-1 61.096539582129907 -13.963032414597787 9.3168863725637934 #
edge $-1 $656 1 $656 0 $373 $-1 forward 7 unknown #
vertex $-1 $374 $657 #
ellipse-curve $-1 59.406898453065779 -11.551030532173936 8.4249342906570011 0.73135370988377701 0 0.68199835119979291 0.34099917559989645 0 -0.36567685494188851 1 I I #
point $-1 61.096539582129907 -11.551030532173936 9.3168863725637934 #
edge $-1 $658 1 $658 0 $377 $-1 forward 7 unknown #
vertex $-1 $378 $659 #
ellipse-curve $-1 59.406898453065779 -9.1390286497500846 8.4249342906570011 0.73135370988377701 0 0.68199835119979291 0.34099917559989645 0 -0.36567685494188851 1 I I #
point $-1 61.096539582129907 -9.1390286497500846 9.3168863725637934 #
plane-surface $-1 0 0 11.983383008633611 0 0 1 1 0 0 forward_v I I I I #
coedge $-1 $543 $542 $535 $660 forward $382 $-1 #
coedge $-1 $535 $384 $386 $539 reversed $248 $-1 #
coedge $-1 $384 $534 $533 $660 reversed $248 $-1 #
coedge $-1 $392 $387 $384 $537 forward $393 $-1 #
edge $-1 $540 24.054940712459228 $661 28.346038920975801 $536 $662 forward 7 unknown #
coedge $-1 $386 $385 $543 $663 reversed $156 $-1 #
edge $-1 $664 -125.80217902157659 $540 -119.51023095312812 $534 $665 forward 7 unknown #
vertex $-1 $388 $666 #
straight-curve $-1 58.60999130227173 9.753444732461638 11.983383008633609 0 -1 0 I I #
coedge $-1 $533 $389 $392 $547 reversed $382 $-1 #
coedge $-1 $389 $533 $538 $663 forward $382 $-1 #
vertex $-1 $390 $667 #
straight-curve $-1 62.901089510788296 23.52689260229636 92.59225622766364 0 0 1 I I #
straight-curve $-1 -22.895789159268119 23.52689260229636 99.387633785270864 0.68199835119979291 0 -0.73135370988377701 I I #
edge $-1 $661 15.486886327550192 $394 23.52689260229636 $542 $668 forward 7 unknown #
point $-1 62.901089510788296 23.52689260229636 11.983383008633611 #
point $-1 58.609991302271723 23.52689260229636 11.983383008633609 #
edge $-1 $669 1 $669 0 $397 $-1 forward 7 unknown #
vertex $-1 $398 $670 #
ellipse-curve $-1 59.406898453065779 17.094887582499425 8.4249342906570011 0.73135370988377701 0 0.68199835119979291 0.34099917559989645 0 -0.36567685494188851 1 I I #
point $-1 61.096539582129907 17.094887582499425 9.3168863725637934 #
edge $-1 $671 1 $671 0 $401 $-1 forward 7 unknown #
vertex $-1 $402 $672 #
ellipse-curve $-1 59.406898453065779 19.506889464923276 8.4249342906570011 0.73135370988377701 0 0.68199835119979291 0.34099917559989645 0 -0.36567685494188851 1 I I #
point $-1 61.096539582129907 19.506889464923276 9.3168863725637934 #
edge $-1 $673 1 $673 0 $405 $-1 forward 7 unknown #
vertex $-1 $406 $674 #
ellipse-curve $-1 59.406898453065779 21.918891347347127 8.4249342906570011 0.73135370988377701 0 0.68199835119979291 0.34099917559989645 0 -0.36567685494188851 1 I I #
point $-1 61.096539582129907 21.918891347347127 9.3168863725637934 #
loop $-1 $-1 $417 $409 #
plane-surface $-1 -62.901089510788296 0 0 1 0 0 0 0 -1 forward_v I I I I #
coedge $-1 $565 $412 $414 $569 reversed $277 $-1 #
coedge $-1 $412 $564 $675 $676 reversed $277 $-1 #
coedge $-1 $420 $415 $412 $567 forward $410 $-1 #
edge $-1 $570 -5.9871155468270558 $677 -0.9459117269368349 $566 $678 forward 7 unknown #
coedge $-1 $414 $413 $573 $679 reversed $175 $-1 #
edge $-1 $680 0 $570 5.8812367666986578 $564 $681 forward 7 unknown #
vertex $-1 $416 $682 #
straight-curve $-1 -57.859885690898068 -10.695240487925386 11.983383008633611 0 1 0 I I #
coedge $-1 $675 $417 $420 $577 reversed $562 $-1 #
coedge $-1 $417 $675 $568 $679 forward $562 $-1 #
vertex $-1 $418 $683 #
straight-curve $-1 -62.901089510788296 -29.548870096430139 58.39391790120834 0 0 1 I I #
straight-curve $-1 -62.901089510788296 -29.548870096430139 8.9543221059292222 -0.85716729658548041 0 -0.51503808176128008 I I #
edge $-1 $677 13.232091855271403 $421 29.548870096430139 $572 $684 forward 7 unknown #
point $-1 -62.901089510788296 -29.548870096430139 11.983383008633611 #
point $-1 -57.859885690898075 -29.548870096430139 11.983383008633611 #
edge $-1 $685 1 $685 0 $424 $-1 forward 7 unknown #
vertex $-1 $425 $686 #
ellipse-curve $-1 -58.834178772771345 -24.886933456099072 7.8953625479369531 -0.51503808176128008 0 0.85716729658548041 0.85716729658548041 0 0.51503808176128008 1 I I #
point $-1 -59.523320304257687 -24.886933456099072 10.98389063904269 #
edge $-1 $687 1 $687 0 $428 $-1 forward 7 unknown #
vertex $-1 $429 $688 #
ellipse-curve $-1 -58.834178772771345 -17.89402849560247 7.8953625479369531 -0.51503808176128008 0 0.85716729658548041 0.85716729658548041 0 0.51503808176128008 1 I I #
point $-1 -59.523320304257687 -17.89402849560247 10.98389063904269 #
loop $-1 $-1 $439 $432 #
plane-surface $-1 -62.901089510788296 0 0 1 0 0 0 0 -1 forward_v I I I I #
coedge $-1 $689 $690 $436 $592 forward $433 $-1 #
coedge $-1 $436 $435 $597 $691 reversed $189 $-1 #
edge $-1 $594 18.771233216967996 $692 24.652469983666652 $590 $693 forward 7 unknown #
coedge $-1 $442 $437 $690 $694 forward $299 $-1 #
vertex $-1 $694 $695 #
straight-curve $-1 -57.859885690898068 14.673169954300064 11.983383008633611 0 1 0 I I #
coedge $-1 $696 $439 $442 $601 reversed $588 $-1 #
coedge $-1 $439 $696 $591 $691 forward $588 $-1 #
vertex $-1 $440 $697 #
straight-curve $-1 -62.901089510788296 21.18795078802076 58.39391790120834 0 0 1 I I #
straight-curve $-1 -62.901089510788296 21.18795078802076 8.9543221059292222 -0.85716729658548041 0 -0.51503808176128008 I I #
edge $-1 $698 -37.504729029179487 $443 -21.18795078802076 $596 $699 forward 7 unknown #
point $-1 -62.901089510788296 21.18795078802076 11.983383008633611 #
point $-1 -57.859885690898075 21.18795078802076 11.983383008633611 #
edge $-1 $700 1 $700 0 $446 $-1 forward 7 unknown #
vertex $-1 $447 $701 #
ellipse-curve $-1 -58.834178772771345 25.849887428351821 7.8953625479369531 -0.51503808176128008 0 0.85716729658548041 0.85716729658548041 0 0.51503808176128008 1 I I #
point $-1 -59.523320304257687 25.849887428351821 10.98389063904269 #
edge $-1 $702 1 $702 0 $450 $-1 forward 7 unknown #
vertex $-1 $451 $703 #
ellipse-curve $-1 -58.834178772771345 32.842792388848423 7.8953625479369531 -0.51503808176128008 0 0.85716729658548041 0.85716729658548041 0 0.51503808176128008 1 I I #
point $-1 -59.523320304257687 32.842792388848423 10.98389063904269 #
plane-surface $-1 62.901089510788296 0 0 -1 0 0 0 0 1 forward_v I I I I #
coedge $-1 $459 $457 $461 $617 reversed $321 $-1 #
edge $-1 $472 -11.983383008633611 $619 11.983383008633611 $471 $704 forward 7 unknown #
vertex $-1 $617 $705 #
straight-curve $-1 -62.901089510788296 -37.504729029179487 0 0 0 -1 I I #
edge $-1 $615 -37.504729029179487 $619 37.504729029179487 $613 $706 forward 7 unknown #
straight-curve $-1 0 -37.504729029179487 -11.983383008633611 -1 0 0 I I #
vertex $-1 $464 $707 #
straight-curve $-1 0 37.504729029179487 -11.983383008633611 1 0 0 I I #
point $-1 62.901089510788296 37.504729029179487 -11.983383008633611 #
point $-1 62.901089510788296 -37.504729029179487 -11.983383008633611 #
straight-curve $-1 -62.901089510788296 0 11.983383008633611 0 -1 0 I I #
point $-1 -62.901089510788296 37.504729029179487 11.983383008633611 #
point $-1 -62.901089510788296 -37.504729029179487 11.983383008633611 #
straight-curve $-1 62.901089510788296 -37.504729029179487 0 0 0 -1 I I #
straight-curve $-1 62.901089510788296 37.504729029179487 0 0 0 -1 I I #
plane-surface $-1 62.901089510788296 0 0 -1 0 0 0 0 1 forward_v I I I I #
coedge $-1 $708 $632 $488 $637 forward $482 $-1 #
coedge $-1 $489 $484 $708 $709 forward $340 $-1 #
edge $-1 $498 -3.9779294663746754 $710 3.9779294663746754 $496 $711 forward 7 unknown #
coedge $-1 $629 $712 $485 $633 reversed $482 $-1 #
edge $-1 $640 -62.901089510788296 $635 62.901089510788296 $632 $713 forward 7 unknown #
coedge $-1 $496 $486 $712 $714 forward $497 $-1 #
vertex $-1 $487 $715 #
straight-curve $-1 62.901089510788296 -41.482658495554162 -1.8766656936608079 0 1 0 I I #
edge $-1 $640 -2.1259377961817698 $638 2.1259377961817698 $488 $716 forward 7 unknown #
vertex $-1 $490 $717 #
straight-curve $-1 -62.901089510788296 -41.482658495554162 -6.1285412860243476 0 1 0 I I #
vertex $-1 $491 $718 #
straight-curve $-1 -62.901089510788296 -41.482658495554162 -1.8766656936608079 0 -1 0 I I #
point $-1 -62.901089510788296 -37.504729029179487 -6.1285412860243476 #
straight-curve $-1 0 -37.504729029179487 -6.1285412860243476 -1 0 0 I I #
point $-1 62.901089510788296 -37.504729029179487 -6.1285412860243476 #
edge $-1 $646 80.608873219030031 $649 85.210512781285885 $503 $719 forward 7 unknown #
vertex $-1 $517 $720 #
straight-curve $-1 34.555050589812495 -15.57103366954702 11.983383008633609 1 0 0 I I #
edge $-1 $649 -9.7955184034600524 $514 -1.7555121287138835 $513 $721 forward 7 unknown #
vertex $-1 $648 $722 #
straight-curve $-1 -22.895789159268119 -15.57103366954702 99.387633785270864 -0.68199835119979291 0 0.73135370988377701 I I #
point $-1 58.609991302271723 -15.57103366954702 11.983383008633609 #
point $-1 62.901089510788296 -7.5310273948008515 7.3817434463777545 #
straight-curve $-1 62.901089510788296 0 11.983383008633611 0 1 0 I I #
vertex $-1 $520 $723 #
point $-1 59.747897628665676 -13.963032414597787 8.0592574357151125 #
vertex $-1 $524 $724 #
point $-1 59.747897628665676 -11.551030532173936 8.0592574357151125 #
vertex $-1 $528 $725 #
point $-1 59.747897628665676 -9.1390286497500846 8.0592574357151125 #
edge $-1 $661 80.608873219030031 $664 85.210512781285885 $533 $726 forward 7 unknown #
vertex $-1 $547 $727 #
straight-curve $-1 34.555050589812495 15.486886327550192 11.983383008633609 1 0 0 I I #
edge $-1 $664 5.7334415950885536 $544 13.773447869834722 $543 $728 forward 7 unknown #
vertex $-1 $663 $729 #
straight-curve $-1 -22.895789159268119 15.486886327550192 99.387633785270864 -0.68199835119979291 0 0.73135370988377701 I I #
point $-1 58.609991302271723 15.486886327550192 11.983383008633609 #
point $-1 62.901089510788296 23.52689260229636 7.3817434463777545 #
straight-curve $-1 62.901089510788296 0 11.983383008633611 0 1 0 I I #
vertex $-1 $550 $730 #
point $-1 59.747897628665676 17.094887582499425 8.0592574357151125 #
vertex $-1 $554 $731 #
point $-1 59.747897628665676 19.506889464923276 8.0592574357151125 #
vertex $-1 $558 $732 #
point $-1 59.747897628665676 21.918891347347127 8.0592574357151125 #
coedge $-1 $573 $572 $565 $676 forward $562 $-1 #
edge $-1 $677 46.410534892574731 $680 49.439595795279118 $675 $733 forward 7 unknown #
vertex $-1 $577 $734 #
straight-curve $-1 -63.847001237725131 -13.232091855271403 11.983383008633609 -1 0 0 I I #
edge $-1 $680 2.5368513673460171 $574 18.853629608504754 $573 $735 forward 7 unknown #
vertex $-1 $679 $736 #
straight-curve $-1 -62.901089510788296 -13.232091855271403 8.9543221059292222 0.85716729658548041 0 0.51503808176128008 I I #
point $-1 -57.859885690898075 -13.232091855271403 11.983383008633611 #
point $-1 -62.901089510788296 -29.548870096430139 8.9543221059292222 #
straight-curve $-1 -62.901089510788296 0 11.983383008633611 0 -1 0 I I #
vertex $-1 $580 $737 #
point $-1 -57.977011476185865 -24.886933456099072 8.4104006296982341 #
vertex $-1 $584 $738 #
point $-1 -57.977011476185865 -17.89402849560247 8.4104006296982341 #
coedge $-1 $690 $590 $696 $739 reversed $433 $-1 #
coedge $-1 $590 $689 $593 $694 reversed $433 $-1 #
edge $-1 $692 -22.831559074879436 $598 -6.5147808337206961 $597 $740 forward 7 unknown #
vertex $-1 $592 $741 #
straight-curve $-1 -41.769798460734044 37.504729029179487 21.651282956994429 -0.85716729658548041 0 -0.51503808176128008 I I #
edge $-1 $594 57.859885690898075 $698 62.901089510788296 $690 $742 forward 7 unknown #
point $-1 -57.859885690898075 37.504729029179501 11.983383008633611 #
coedge $-1 $597 $596 $689 $739 forward $588 $-1 #
point $-1 -62.901089510788296 21.18795078802076 8.9543221059292222 #
vertex $-1 $694 $743 #
straight-curve $-1 -62.901089510788296 0 11.983383008633611 0 -1 0 I I #
vertex $-1 $604 $744 #
point $-1 -57.977011476185865 25.849887428351821 8.4104006296982341 #
vertex $-1 $608 $745 #
point $-1 -57.977011476185865 32.842792388848423 8.4104006296982341 #
straight-curve $-1 -62.901089510788296 37.504729029179487 0 0 0 -1 I I #
point $-1 -62.901089510788296 -37.504729029179487 -11.983383008633611 #
straight-curve $-1 -62.901089510788296 0 -11.983383008633611 0 1 0 I I #
point $-1 -62.901089510788296 37.504729029179487 -11.983383008633611 #
coedge $-1 $712 $629 $630 $709 reversed $482 $-1 #
edge $-1 $710 -62.901089510788296 $638 62.901089510788296 $708 $746 forward 7 unknown #
vertex $-1 $714 $747 #
straight-curve $-1 62.901089510788296 -41.482658495554162 -6.1285412860243476 0 -1 0 I I #
coedge $-1 $632 $708 $634 $714 reversed $482 $-1 #
straight-curve $-1 0 -45.460587961928837 -1.8766656936608079 1 0 0 I I #
edge $-1 $635 -2.1259377961817698 $710 2.1259377961817698 $634 $748 forward 7 unknown #
point $-1 62.901089510788296 -45.460587961928837 -1.8766656936608079 #
straight-curve $-1 -62.901089510788296 -45.460587961928837 -4.0026034898425777 0 0 -1 I I #
point $-1 -62.901089510788296 -45.460587961928837 -6.1285412860243476 #
point $-1 -62.901089510788296 -45.460587961928837 -1.8766656936608079 #
straight-curve $-1 62.901089510788296 -15.57103366954702 92.59225622766364 0 0 -1 I I #
point $-1 62.901089510788296 -15.57103366954702 11.983383008633611 #
straight-curve $-1 62.901089510788296 -5.775515266086968 7.3817434463777687 0 1 0 I I #
point $-1 62.901089510788296 -15.57103366954702 7.3817434463777545 #
point $-1 59.041221598123897 -13.963032414597787 8.0839351150571037 #
point $-1 59.041221598123897 -11.551030532173936 8.0839351150571037 #
point $-1 59.041221598123897 -9.1390286497500846 8.0839351150571037 #
straight-curve $-1 62.901089510788296 15.486886327550192 92.59225622766364 0 0 -1 I I #
point $-1 62.901089510788296 15.486886327550192 11.983383008633611 #
straight-curve $-1 62.901089510788296 9.753444732461638 7.3817434463777687 0 1 0 I I #
point $-1 62.901089510788296 15.486886327550192 7.3817434463777545 #
point $-1 59.041221598123897 17.094887582499425 8.0839351150571037 #
point $-1 59.041221598123897 19.506889464923276 8.0839351150571037 #
point $-1 59.041221598123897 21.918891347347127 8.0839351150571037 #
straight-curve $-1 -62.901089510788296 -13.232091855271403 58.39391790120834 0 0 -1 I I #
point $-1 -62.901089510788296 -13.232091855271403 11.983383008633611 #
straight-curve $-1 -62.901089510788296 -10.695240487925386 8.9543221059292222 0 -1 0 I I #
point $-1 -62.901089510788296 -13.232091855271403 8.9543221059292222 #
point $-1 -58.31914069101007 -24.886933456099072 7.0381952513514729 #
point $-1 -58.31914069101007 -17.89402849560247 7.0381952513514729 #
edge $-1 $698 -11.983383008633611 $692 -8.9543221059292222 $689 $749 forward 7 unknown #
straight-curve $-1 -62.901089510788296 14.673169954300064 8.9543221059292222 0 -1 0 I I #
point $-1 -62.901089510788296 37.504729029179501 8.9543221059292222 #
straight-curve $-1 0 37.504729029179487 11.983383008633611 -1 0 0 I I #
point $-1 -62.901089510788296 37.504729029179487 11.983383008633611 #
point $-1 -58.31914069101007 25.849887428351821 7.0381952513514729 #
point $-1 -58.31914069101007 32.842792388848423 7.0381952513514729 #
straight-curve $-1 0 -45.460587961928837 -6.1285412860243476 -1 0 0 I I #
point $-1 62.901089510788296 -45.460587961928837 -6.1285412860243476 #
straight-curve $-1 62.901089510788296 -45.460587961928837 -4.0026034898425777 0 0 -1 I I #
straight-curve $-1 -62.901089510788296 37.504729029179487 0 0 0 -1 I I #
End-of-ACIS-data 