500 0 9 0           
7 Unknown 11 ACIS 5.0 NT 24 Thu Mar 25 22:29:39 1999 
-1 9.9999999999999995e-007 1e-010 
body $-1 $9 $-1 $10 #
body $-1 $11 $-1 $12 #
body $-1 $13 $-1 $14 #
body $-1 $15 $-1 $16 #
body $-1 $17 $-1 $18 #
body $-1 $19 $-1 $20 #
body $-1 $21 $-1 $22 #
body $-1 $23 $-1 $24 #
body $-1 $25 $-1 $26 #
lump $-1 $-1 $27 $0 #
transform $-1 1 0 0 0 1 0 0 0 1 43.658558915982546 24.321389464902303 11.501351787974308 1 rotate no_reflect no_shear #
lump $-1 $-1 $28 $1 #
transform $-1 1 0 0 0 1 0 0 0 1 43.658558915982546 24.321389464902303 11.501351787974308 1 rotate no_reflect no_shear #
lump $-1 $-1 $29 $2 #
transform $-1 1 0 0 0 1 0 0 0 1 43.658558915982546 24.321389464902303 11.501351787974308 1 rotate no_reflect no_shear #
lump $-1 $-1 $30 $3 #
transform $-1 1 0 0 0 1 0 0 0 1 43.658558915982546 24.321389464902303 11.501351787974308 1 rotate no_reflect no_shear #
lump $-1 $-1 $31 $4 #
transform $-1 1 0 0 0 1 0 0 0 1 43.658558915982546 24.321389464902303 11.501351787974308 1 rotate no_reflect no_shear #
lump $-1 $-1 $32 $5 #
transform $-1 1 0 0 0 1 0 0 0 1 43.658558915982546 24.321389464902303 11.501351787974308 1 rotate no_reflect no_shear #
lump $-1 $-1 $33 $6 #
transform $-1 1 0 0 0 1 0 0 0 1 43.658558915982546 24.321389464902303 11.501351787974308 1 rotate no_reflect no_shear #
lump $-1 $-1 $34 $7 #
transform $-1 1 0 0 0 1 0 0 0 1 43.658558915982546 24.321389464902303 11.501351787974308 1 rotate no_reflect no_shear #
lump $-1 $-1 $35 $8 #
transform $-1 1 0 0 0 1 0 0 0 1 43.658558915982546 24.321389464902303 11.501351787974308 1 rotate no_reflect no_shear #
shell $-1 $-1 $-1 $36 $-1 $9 #
shell $-1 $-1 $-1 $37 $-1 $11 #
shell $-1 $-1 $-1 $38 $-1 $13 #
shell $-1 $-1 $-1 $39 $-1 $15 #
shell $-1 $-1 $-1 $40 $-1 $17 #
shell $-1 $-1 $-1 $41 $-1 $19 #
shell $-1 $-1 $-1 $42 $-1 $21 #
shell $-1 $-1 $-1 $43 $-1 $23 #
shell $-1 $-1 $-1 $44 $-1 $25 #
face $-1 $45 $46 $27 $-1 $47 forward single #
face $-1 $48 $49 $28 $-1 $50 forward single #
face $-1 $51 $52 $29 $-1 $53 forward single #
face $-1 $54 $55 $30 $-1 $56 reversed single #
face $-1 $57 $58 $31 $-1 $59 forward single #
face $-1 $60 $61 $32 $-1 $62 forward single #
face $-1 $63 $64 $33 $-1 $65 reversed single #
face $-1 $66 $67 $34 $-1 $68 forward single #
face $-1 $69 $70 $35 $-1 $71 forward single #
face $-1 $72 $73 $27 $-1 $74 reversed single #
loop $-1 $-1 $75 $36 #
plane-surface $-1 0 0 11.501351787974308 0 0 1 1 0 0 forward_v I I I I #
face $-1 $76 $77 $28 $-1 $78 reversed single #
loop $-1 $-1 $79 $37 #
plane-surface $-1 0 -24.321389464902303 0 0 1 0 0 0 1 forward_v I I I I #
face $-1 $80 $81 $29 $-1 $82 reversed single #
loop $-1 $-1 $83 $38 #
plane-surface $-1 0 24.321389464902303 0 0 -1 0 0 0 -1 forward_v I I I I #
face $-1 $84 $85 $30 $-1 $86 reversed single #
loop $-1 $-1 $87 $39 #
plane-surface $-1 -120.02783160822838 -15.153569184320776 49.661859513653468 0 1 0 -0.87461971476443456 0 0.48480960649040278 forward_v I I I I #
face $-1 $88 $89 $31 $-1 $90 forward single #
loop $-1 $91 $92 $40 #
cone-surface $-1 -41.728037604713592 -12.681862551641002 8.986301993463691 0.87461971476443456 0 -0.48480960649040278 0.24240480324520139 0 0.43730985738221728 1 I I 0 1 0.5 forward I I I I #
face $-1 $93 $94 $32 $-1 $95 forward single #
loop $-1 $96 $97 $41 #
cone-surface $-1 -41.728037604713592 -8.9743026026213411 8.986301993463691 0.87461971476443456 0 -0.48480960649040278 0.24240480324520139 0 0.43730985738221728 1 I I 0 1 0.5 forward I I I I #
face $-1 $98 $99 $33 $-1 $100 reversed single #
loop $-1 $-1 $101 $42 #
plane-surface $-1 39.348994109872045 15.15356918432078 127.96885909306732 0 -1 0 -0.68199836817093118 0 -0.7313536940579346 forward_v I I I I #
face $-1 $102 $103 $34 $-1 $104 forward single #
loop $-1 $105 $106 $43 #
cone-surface $-1 39.274318110850245 10.710328495512478 7.3204151590915645 -0.68199836817093118 0 -0.7313536940579346 0.3656768470289673 0 -0.34099918408546559 1 I I 0 1 0.5 forward I I I I #
face $-1 $107 $108 $35 $-1 $109 forward single #
loop $-1 $110 $111 $44 #
cone-surface $-1 39.274318110850245 13.376272908797461 7.3204151590915645 -0.68199836817093118 0 -0.7313536940579346 0.3656768470289673 0 -0.34099918408546559 1 I I 0 1 0.5 forward I I I I #
face $-1 $112 $113 $27 $-1 $114 reversed single #
loop $-1 $-1 $115 $45 #
plane-surface $-1 0 0 -11.501351787974308 0 0 1 1 0 0 forward_v I I I I #
coedge $-1 $116 $117 $118 $119 forward $46 $-1 #
face $-1 $120 $121 $28 $-1 $122 reversed single #
loop $-1 $-1 $123 $48 #
plane-surface $-1 0 0 -11.501351787974308 0 0 1 1 0 0 forward_v I I I I #
coedge $-1 $124 $125 $126 $127 forward $49 $-1 #
face $-1 $128 $129 $29 $-1 $130 reversed single #
loop $-1 $-1 $131 $51 #
plane-surface $-1 0 0 -11.501351787974308 0 0 1 1 0 0 forward_v I I I I #
coedge $-1 $132 $133 $134 $135 forward $52 $-1 #
face $-1 $136 $137 $30 $-1 $138 reversed single #
loop $-1 $-1 $139 $54 #
plane-surface $-1 -43.658558915982553 -10.828082577131172 7.3296819776623394 -0.87461971476443456 0 0.48480960649040278 0.48480960649040278 0 0.87461971476443456 forward_v I I I I #
coedge $-1 $140 $141 $142 $143 reversed $55 $-1 #
face $-1 $-1 $144 $31 $-1 $145 forward single #
loop $-1 $146 $147 $57 #
cone-surface $-1 -40.735058489631939 -12.681862551641002 8.4358847024864545 0.87461971476443456 0 -0.48480960649040278 0.12120240162260069 0 0.21865492869110864 1 I I -0.70710678118654746 0.70710678118654746 0.25 forward I I I I #
loop $-1 $-1 $148 $40 #
coedge $-1 $92 $92 $149 $150 reversed $58 $-1 #
face $-1 $-1 $151 $32 $-1 $152 forward single #
loop $-1 $153 $154 $60 #
cone-surface $-1 -40.735058489631939 -8.9743026026213411 8.4358847024864545 0.87461971476443456 0 -0.48480960649040278 0.12120240162260069 0 0.21865492869110864 1 I I -0.70710678118654746 0.70710678118654746 0.25 forward I I I I #
loop $-1 $-1 $155 $41 #
coedge $-1 $97 $97 $156 $157 reversed $61 $-1 #
face $-1 $158 $159 $33 $-1 $160 reversed single #
loop $-1 $-1 $161 $63 #
plane-surface $-1 -20.201137764917064 12.043300702154966 64.109162412167706 0.68199836817093118 0 0.7313536940579346 0.7313536940579346 0 -0.68199836817093118 forward_v I I I I #
coedge $-1 $162 $163 $164 $165 reversed $64 $-1 #
face $-1 $-1 $166 $34 $-1 $167 forward single #
loop $-1 $168 $169 $66 #
cone-surface $-1 38.441941672973975 10.710328495512478 6.4278007319921997 -0.68199836817093118 0 -0.7313536940579346 0.18283842351448365 0 -0.17049959204273279 1 I I -0.70710678118654746 0.70710678118654746 0.25 forward I I I I #
loop $-1 $-1 $170 $43 #
coedge $-1 $106 $106 $171 $172 reversed $67 $-1 #
face $-1 $-1 $173 $35 $-1 $174 forward single #
loop $-1 $175 $176 $69 #
cone-surface $-1 38.441941672973975 13.376272908797461 6.4278007319921997 -0.68199836817093118 0 -0.7313536940579346 0.18283842351448365 0 -0.17049959204273279 1 I I -0.70710678118654746 0.70710678118654746 0.25 forward I I I I #
loop $-1 $-1 $177 $44 #
coedge $-1 $111 $111 $178 $179 reversed $70 $-1 #
face $-1 $180 $181 $27 $-1 $182 reversed single #
loop $-1 $-1 $183 $72 #
plane-surface $-1 0 -24.321389464902303 0 0 1 0 0 0 1 forward_v I I I I #
coedge $-1 $184 $185 $186 $187 forward $73 $-1 #
coedge $-1 $188 $75 $189 $190 forward $46 $-1 #
coedge $-1 $75 $188 $191 $192 forward $46 $-1 #
coedge $-1 $193 $194 $75 $119 reversed $195 $-1 #
edge $-1 $196 -24.321389464902303 $197 24.321389464902303 $118 $198 forward 7 unknown #
face $-1 $199 $200 $28 $-1 $201 reversed single #
loop $-1 $-1 $202 $76 #
plane-surface $-1 -23.431490568579861 -33.489209745483826 0 0 1 0 0 0 1 forward_v I I I I #
coedge $-1 $203 $204 $125 $205 forward $77 $-1 #
coedge $-1 $206 $79 $207 $208 reversed $49 $-1 #
coedge $-1 $79 $206 $123 $205 reversed $49 $-1 #
coedge $-1 $209 $210 $79 $127 reversed $200 $-1 #
edge $-1 $211 -11.501351787974308 $212 11.501351787974308 $126 $213 forward 7 unknown #
face $-1 $214 $215 $29 $-1 $216 reversed single #
loop $-1 $-1 $217 $80 #
plane-surface $-1 -26.207125797125791 28.905299605193065 0 1 0 0 0 0 -1 forward_v I I I I #
coedge $-1 $218 $219 $133 $220 forward $81 $-1 #
coedge $-1 $221 $83 $222 $223 reversed $52 $-1 #
coedge $-1 $83 $221 $131 $220 reversed $52 $-1 #
coedge $-1 $224 $225 $83 $135 reversed $226 $-1 #
edge $-1 $227 -11.501351787974308 $228 11.501351787974308 $134 $229 forward 7 unknown #
face $-1 $230 $231 $30 $-1 $232 reversed single #
loop $-1 $-1 $233 $84 #
plane-surface $-1 -120.02783160822838 -6.5025959699415665 49.661859513653468 0 -1 0 0.87461971476443456 0 -0.48480960649040278 forward_v I I I I #
coedge $-1 $234 $235 $236 $237 reversed $85 $-1 #
coedge $-1 $141 $87 $238 $239 reversed $55 $-1 #
coedge $-1 $87 $140 $234 $240 reversed $55 $-1 #
coedge $-1 $236 $241 $87 $143 forward $242 $-1 #
edge $-1 $243 16.355356888131645 $244 18.667751137888466 $142 $245 forward 7 unknown #
loop $-1 $-1 $149 $88 #
plane-surface $-1 -43.658558915982553 -10.828082577131172 7.3296819776623394 -0.87461971476443456 0 0.48480960649040278 0.48480960649040278 0 0.87461971476443456 forward_v I I I I #
loop $-1 $-1 $246 $57 #
coedge $-1 $147 $147 $148 $247 reversed $89 $-1 #
coedge $-1 $148 $148 $147 $247 forward $91 $-1 #
coedge $-1 $149 $149 $92 $150 forward $144 $-1 #
edge $-1 $248 0 $248 6.2831853071796004 $149 $249 forward 7 unknown #
loop $-1 $-1 $156 $93 #
plane-surface $-1 -43.658558915982553 -10.828082577131172 7.3296819776623394 -0.87461971476443456 0 0.48480960649040278 0.48480960649040278 0 0.87461971476443456 forward_v I I I I #
loop $-1 $-1 $250 $60 #
coedge $-1 $154 $154 $155 $251 reversed $94 $-1 #
coedge $-1 $155 $155 $154 $251 forward $96 $-1 #
coedge $-1 $156 $156 $97 $157 forward $151 $-1 #
edge $-1 $252 0 $252 6.2831853071796004 $156 $253 forward 7 unknown #
face $-1 $254 $255 $33 $-1 $256 forward single #
loop $-1 $-1 $257 $98 #
plane-surface $-1 39.348994109872045 8.9330322199891512 127.96885909306732 0 1 0 0.68199836817093118 0 0.7313536940579346 forward_v I I I I #
coedge $-1 $258 $259 $260 $261 reversed $99 $-1 #
coedge $-1 $163 $101 $262 $263 reversed $64 $-1 #
coedge $-1 $101 $162 $258 $264 reversed $64 $-1 #
coedge $-1 $260 $265 $101 $165 forward $255 $-1 #
edge $-1 $266 -23.984061861046523 $267 -16.539333942449037 $164 $268 forward 7 unknown #
loop $-1 $-1 $171 $102 #
plane-surface $-1 -20.201137764917064 12.043300702154966 64.109162412167706 0.68199836817093118 0 0.7313536940579346 0.7313536940579346 0 -0.68199836817093118 forward_v I I I I #
loop $-1 $-1 $269 $66 #
coedge $-1 $169 $169 $170 $270 reversed $103 $-1 #
coedge $-1 $170 $170 $169 $270 forward $105 $-1 #
coedge $-1 $171 $171 $106 $172 forward $166 $-1 #
edge $-1 $271 0 $271 6.2831853071796004 $171 $272 forward 7 unknown #
loop $-1 $-1 $178 $107 #
plane-surface $-1 -20.201137764917064 12.043300702154966 64.109162412167706 0.68199836817093118 0 0.7313536940579346 0.7313536940579346 0 -0.68199836817093118 forward_v I I I I #
loop $-1 $-1 $273 $69 #
coedge $-1 $176 $176 $177 $274 reversed $108 $-1 #
coedge $-1 $177 $177 $176 $274 forward $110 $-1 #
coedge $-1 $178 $178 $111 $179 forward $173 $-1 #
edge $-1 $275 0 $275 6.2831853071796004 $178 $276 forward 7 unknown #
face $-1 $277 $278 $27 $-1 $279 reversed single #
loop $-1 $-1 $280 $112 #
plane-surface $-1 -43.658558915982546 0 0 1 0 0 0 0 -1 forward_v I I I I #
coedge $-1 $281 $191 $282 $283 forward $113 $-1 #
coedge $-1 $284 $115 $281 $285 forward $73 $-1 #
coedge $-1 $115 $284 $286 $287 forward $73 $-1 #
coedge $-1 $194 $193 $115 $187 reversed $195 $-1 #
edge $-1 $288 -24.321389464902303 $289 24.321389464902303 $186 $290 forward 7 unknown #
coedge $-1 $117 $116 $291 $292 forward $46 $-1 #
coedge $-1 $293 $294 $116 $190 reversed $278 $-1 #
edge $-1 $197 -43.658558915982546 $295 43.658558915982546 $189 $296 forward 7 unknown #
coedge $-1 $183 $297 $117 $192 reversed $113 $-1 #
edge $-1 $298 -43.658558915982546 $196 43.658558915982546 $191 $299 forward 7 unknown #
coedge $-1 $186 $118 $297 $300 forward $195 $-1 #
coedge $-1 $118 $186 $293 $301 reversed $195 $-1 #
loop $-1 $-1 $193 $277 #
vertex $-1 $119 $302 #
vertex $-1 $119 $303 #
straight-curve $-1 43.658558915982546 0 11.501351787974308 0 1 0 I I #
face $-1 $304 $305 $28 $-1 $306 reversed single #
loop $-1 $-1 $126 $120 #
plane-surface $-1 -26.207125797125791 -28.905299605193065 0 1 0 0 0 0 -1 forward_v I I I I #
coedge $-1 $307 $308 $309 $310 forward $121 $-1 #
coedge $-1 $311 $123 $312 $313 forward $77 $-1 #
coedge $-1 $123 $311 $209 $314 forward $77 $-1 #
edge $-1 $211 -26.207125797125791 $315 -20.655855340033931 $123 $316 forward 7 unknown #
coedge $-1 $125 $124 $317 $318 forward $49 $-1 #
coedge $-1 $319 $320 $124 $208 forward $321 $-1 #
edge $-1 $322 20.655855340033931 $212 26.207125797125791 $207 $323 forward 7 unknown #
coedge $-1 $309 $126 $204 $314 reversed $200 $-1 #
coedge $-1 $126 $309 $319 $324 reversed $200 $-1 #
vertex $-1 $205 $325 #
vertex $-1 $324 $326 #
straight-curve $-1 -26.207125797125791 -24.321389464902303 0 0 0 1 I I #
face $-1 $327 $226 $29 $-1 $328 reversed single #
loop $-1 $-1 $329 $128 #
plane-surface $-1 -23.431490568579861 33.489209745483826 0 0 -1 0 0 0 -1 forward_v I I I I #
coedge $-1 $330 $331 $332 $333 forward $129 $-1 #
coedge $-1 $334 $131 $330 $335 forward $81 $-1 #
coedge $-1 $131 $334 $224 $336 forward $81 $-1 #
edge $-1 $227 20.655855340033931 $337 26.207125797125791 $131 $338 forward 7 unknown #
coedge $-1 $133 $132 $339 $340 forward $52 $-1 #
coedge $-1 $341 $342 $132 $223 forward $343 $-1 #
edge $-1 $344 -26.207125797125791 $228 -20.655855340033931 $222 $345 forward 7 unknown #
coedge $-1 $346 $134 $219 $336 reversed $226 $-1 #
coedge $-1 $134 $346 $341 $347 reversed $226 $-1 #
loop $-1 $-1 $134 $214 #
vertex $-1 $220 $348 #
vertex $-1 $347 $349 #
straight-curve $-1 -20.655855340033931 24.321389464902303 0 0 0 1 I I #
face $-1 $-1 $242 $30 $-1 $350 forward single #
loop $-1 $-1 $351 $136 #
plane-surface $-1 -43.658558915982546 0 0 1 0 0 0 0 -1 forward_v I I I I #
coedge $-1 $352 $353 $354 $355 reversed $137 $-1 #
coedge $-1 $356 $139 $141 $240 forward $85 $-1 #
coedge $-1 $139 $356 $352 $357 forward $85 $-1 #
coedge $-1 $354 $142 $139 $237 forward $242 $-1 #
edge $-1 $244 -9.7395278957551916 $358 -1.0885546813759808 $236 $359 forward 7 unknown #
coedge $-1 $360 $361 $140 $239 forward $231 $-1 #
edge $-1 $362 -17.50124777916438 $243 -13.329577968852426 $238 $363 forward 7 unknown #
edge $-1 $244 -4.7696956058617346 $362 -1.4320236426557382e-014 $141 $364 forward 7 unknown #
coedge $-1 $142 $354 $360 $365 forward $242 $-1 #
loop $-1 $-1 $354 $230 #
vertex $-1 $239 $366 #
vertex $-1 $143 $367 #
straight-curve $-1 -60.013915804114191 -15.153569184320776 11.501351787974308 1 0 0 I I #
coedge $-1 $246 $246 $-1 $368 reversed $146 $-1 #
edge $-1 $369 0 $369 6.2831853071796004 $147 $370 forward 7 unknown #
vertex $-1 $150 $371 #
ellipse-curve $-1 -42.502361791104136 -12.681862551641002 9.4155168828183271 -0.87461971476443456 0 0.48480960649040278 0.24240480324520139 0 0.43730985738221728 1 I I #
coedge $-1 $250 $250 $-1 $372 reversed $153 $-1 #
edge $-1 $373 0 $373 6.2831853071796004 $154 $374 forward 7 unknown #
vertex $-1 $157 $375 #
ellipse-curve $-1 -42.502361791104136 -8.9743026026213411 9.4155168828183271 -0.87461971476443456 0 0.48480960649040278 0.24240480324520139 0 0.43730985738221728 1 I I #
face $-1 $-1 $376 $33 $-1 $377 reversed single #
loop $-1 $-1 $164 $158 #
plane-surface $-1 0 0 11.501351787974308 0 0 1 1 0 0 forward_v I I I I #
coedge $-1 $378 $379 $380 $381 reversed $159 $-1 #
coedge $-1 $382 $161 $163 $264 forward $99 $-1 #
coedge $-1 $161 $382 $378 $383 forward $99 $-1 #
coedge $-1 $380 $164 $161 $261 forward $255 $-1 #
edge $-1 $267 -9.1319188332432972 $384 -2.9113818689116684 $260 $385 forward 7 unknown #
coedge $-1 $386 $387 $162 $263 forward $376 $-1 #
edge $-1 $388 -59.425399009155058 $266 -52.483077758559354 $262 $389 forward 7 unknown #
edge $-1 $267 77.137736803217919 $388 87.317117831965078 $163 $390 forward 7 unknown #
coedge $-1 $164 $380 $386 $391 forward $255 $-1 #
vertex $-1 $165 $392 #
vertex $-1 $165 $393 #
straight-curve $-1 19.674497054936023 15.15356918432078 11.501351787974308 -1 0 0 I I #
coedge $-1 $269 $269 $-1 $394 reversed $168 $-1 #
edge $-1 $395 0 $395 6.2831853071796004 $169 $396 forward 7 unknown #
vertex $-1 $172 $397 #
ellipse-curve $-1 39.936194956683799 10.710328495512478 8.0301911626764575 0.68199836817093118 0 0.7313536940579346 0.3656768470289673 0 -0.34099918408546559 1 I I #
coedge $-1 $273 $273 $-1 $398 reversed $175 $-1 #
edge $-1 $399 0 $399 6.2831853071796004 $176 $400 forward 7 unknown #
vertex $-1 $179 $401 #
ellipse-curve $-1 39.936194956683799 13.376272908797461 8.0301911626764575 0.68199836817093118 0 0.7313536940579346 0.3656768470289673 0 -0.34099918408546559 1 I I #
face $-1 $-1 $195 $27 $-1 $402 reversed single #
loop $-1 $-1 $293 $180 #
plane-surface $-1 0 24.321389464902303 0 0 -1 0 0 0 -1 forward_v I I I I #
coedge $-1 $403 $291 $294 $404 forward $181 $-1 #
coedge $-1 $297 $183 $184 $285 reversed $113 $-1 #
coedge $-1 $291 $403 $183 $283 reversed $181 $-1 #
edge $-1 $298 -11.501351787974308 $405 11.501351787974308 $282 $406 forward 7 unknown #
coedge $-1 $185 $184 $403 $407 forward $73 $-1 #
edge $-1 $289 -43.658558915982546 $405 43.658558915982546 $281 $408 forward 7 unknown #
coedge $-1 $294 $293 $185 $287 reversed $278 $-1 #
edge $-1 $409 -43.658558915982546 $288 43.658558915982546 $286 $410 forward 7 unknown #
vertex $-1 $187 $411 #
vertex $-1 $300 $412 #
straight-curve $-1 43.658558915982546 0 -11.501351787974308 0 -1 0 I I #
coedge $-1 $280 $282 $188 $292 reversed $181 $-1 #
edge $-1 $295 -24.321389464902303 $298 24.321389464902303 $291 $413 forward 7 unknown #
coedge $-1 $286 $189 $194 $301 forward $278 $-1 #
coedge $-1 $189 $286 $280 $404 reversed $278 $-1 #
vertex $-1 $190 $414 #
straight-curve $-1 0 24.321389464902303 11.501351787974308 -1 0 0 I I #
coedge $-1 $191 $281 $193 $300 reversed $113 $-1 #
vertex $-1 $292 $415 #
straight-curve $-1 0 -24.321389464902303 11.501351787974308 1 0 0 I I #
edge $-1 $196 -11.501351787974308 $289 11.501351787974308 $193 $416 forward 7 unknown #
edge $-1 $197 -11.501351787974308 $288 11.501351787974308 $194 $417 forward 7 unknown #
point $-1 43.658558915982546 -24.321389464902303 11.501351787974308 #
point $-1 43.658558915982546 24.321389464902303 11.501351787974308 #
face $-1 $-1 $321 $28 $-1 $418 forward single #
loop $-1 $-1 $419 $199 #
plane-surface $-1 -20.655855340033931 -28.905299605193065 0 -1 0 0 0 0 1 forward_v I I I I #
coedge $-1 $420 $202 $311 $421 reversed $121 $-1 #
coedge $-1 $202 $420 $422 $423 reversed $121 $-1 #
coedge $-1 $210 $209 $202 $310 reversed $200 $-1 #
edge $-1 $424 -11.501351787974308 $425 11.501351787974308 $309 $426 forward 7 unknown #
coedge $-1 $204 $203 $307 $421 forward $77 $-1 #
coedge $-1 $317 $419 $203 $313 reversed $305 $-1 #
edge $-1 $315 -4.5839101402907616 $427 4.5839101402907616 $312 $428 forward 7 unknown #
edge $-1 $425 -4.5839101402907616 $211 4.5839101402907616 $209 $429 forward 7 unknown #
vertex $-1 $313 $430 #
straight-curve $-1 0 -24.321389464902303 -11.501351787974308 1 0 0 I I #
coedge $-1 $431 $312 $206 $318 reversed $305 $-1 #
edge $-1 $322 -11.501351787974308 $315 11.501351787974308 $317 $432 forward 7 unknown #
coedge $-1 $422 $207 $210 $324 forward $321 $-1 #
coedge $-1 $207 $422 $431 $433 forward $321 $-1 #
loop $-1 $-1 $207 $304 #
vertex $-1 $208 $434 #
straight-curve $-1 0 -24.321389464902303 11.501351787974308 -1 0 0 I I #
edge $-1 $212 -4.5839101402907616 $424 4.5839101402907616 $210 $435 forward 7 unknown #
point $-1 -26.207125797125791 -24.321389464902303 -11.501351787974308 #
point $-1 -26.207125797125791 -24.321389464902303 11.501351787974308 #
face $-1 $-1 $343 $29 $-1 $436 forward single #
plane-surface $-1 -20.655855340033931 28.905299605193065 0 -1 0 0 0 0 1 forward_v I I I I #
coedge $-1 $437 $438 $346 $439 forward $215 $-1 #
coedge $-1 $339 $217 $218 $335 reversed $129 $-1 #
coedge $-1 $217 $339 $342 $440 reversed $129 $-1 #
coedge $-1 $438 $437 $217 $333 reversed $215 $-1 #
edge $-1 $441 -11.501351787974308 $442 11.501351787974308 $332 $443 forward 7 unknown #
coedge $-1 $219 $218 $437 $444 forward $81 $-1 #
edge $-1 $337 -4.5839101402907616 $442 4.5839101402907616 $330 $445 forward 7 unknown #
edge $-1 $446 -4.5839101402907616 $227 4.5839101402907616 $224 $447 forward 7 unknown #
vertex $-1 $335 $448 #
straight-curve $-1 0 24.321389464902303 -11.501351787974308 -1 0 0 I I #
coedge $-1 $331 $330 $221 $340 reversed $129 $-1 #
edge $-1 $344 -11.501351787974308 $337 11.501351787974308 $339 $449 forward 7 unknown #
coedge $-1 $450 $222 $225 $347 forward $343 $-1 #
coedge $-1 $222 $450 $331 $440 forward $343 $-1 #
loop $-1 $-1 $222 $327 #
vertex $-1 $223 $451 #
straight-curve $-1 0 24.321389464902303 11.501351787974308 1 0 0 I I #
coedge $-1 $225 $224 $329 $439 reversed $226 $-1 #
edge $-1 $228 -4.5839101402907616 $452 4.5839101402907616 $225 $453 forward 7 unknown #
point $-1 -20.655855340033931 24.321389464902303 -11.501351787974308 #
point $-1 -20.655855340033931 24.321389464902303 11.501351787974308 #
plane-surface $-1 0 0 11.501351787974308 0 0 1 1 0 0 forward_v I I I I #
coedge $-1 $361 $360 $353 $454 forward $231 $-1 #
coedge $-1 $353 $233 $235 $357 reversed $137 $-1 #
coedge $-1 $233 $352 $351 $454 reversed $137 $-1 #
coedge $-1 $241 $236 $233 $355 forward $242 $-1 #
edge $-1 $358 -18.667751137888466 $455 -16.355356888131645 $354 $456 forward 7 unknown #
coedge $-1 $235 $234 $361 $457 reversed $85 $-1 #
edge $-1 $458 1.4320236426557382e-014 $358 4.7696956058617346 $352 $459 forward 7 unknown #
vertex $-1 $237 $460 #
straight-curve $-1 -41.346164666225718 -5.4140412885655858 11.501351787974308 0 1 0 I I #
coedge $-1 $351 $238 $241 $365 reversed $231 $-1 #
coedge $-1 $238 $351 $356 $457 forward $231 $-1 #
vertex $-1 $239 $461 #
straight-curve $-1 -43.658558915982546 -15.153569184320776 24.830929756826734 0 0 1 I I #
straight-curve $-1 -43.658558915982553 -15.153569184320776 7.3296819776623394 -0.48480960649040278 0 -0.87461971476443456 I I #
edge $-1 $455 6.5025959699415665 $243 15.153569184320776 $360 $462 forward 7 unknown #
point $-1 -43.658558915982546 -15.153569184320776 11.501351787974308 #
point $-1 -41.346164666225725 -15.153569184320776 11.501351787974308 #
edge $-1 $463 1 $463 0 $246 $-1 forward 7 unknown #
vertex $-1 $247 $464 #
ellipse-curve $-1 -40.953713418323048 -12.681862551641002 8.5570871041090548 -0.87461971476443456 0 0.48480960649040278 0.24240480324520139 0 0.43730985738221728 1 I I #
point $-1 -42.259956987858928 -12.681862551641002 9.8528267402005429 #
edge $-1 $465 1 $465 0 $250 $-1 forward 7 unknown #
vertex $-1 $251 $466 #
ellipse-curve $-1 -40.953713418323048 -8.9743026026213411 8.5570871041090548 -0.87461971476443456 0 0.48480960649040278 0.24240480324520139 0 0.43730985738221728 1 I I #
point $-1 -42.259956987858928 -8.9743026026213411 9.8528267402005429 #
loop $-1 $-1 $262 $254 #
plane-surface $-1 43.658558915982546 0 0 -1 0 0 0 0 1 forward_v I I I I #
coedge $-1 $379 $257 $259 $383 reversed $159 $-1 #
coedge $-1 $257 $378 $467 $468 reversed $159 $-1 #
coedge $-1 $265 $260 $257 $381 forward $255 $-1 #
edge $-1 $384 16.539333942449037 $469 23.984061861046523 $380 $470 forward 7 unknown #
coedge $-1 $259 $258 $387 $471 reversed $99 $-1 #
edge $-1 $472 -87.317117831965078 $384 -77.137736803217919 $378 $473 forward 7 unknown #
vertex $-1 $261 $474 #
straight-curve $-1 36.213830997385053 6.0216503510774828 11.501351787974308 0 -1 0 I I #
coedge $-1 $467 $262 $265 $391 reversed $376 $-1 #
coedge $-1 $262 $467 $382 $471 forward $376 $-1 #
vertex $-1 $263 $475 #
straight-curve $-1 43.658558915982546 15.15356918432078 63.984429546533661 0 0 1 I I #
straight-curve $-1 -20.201137764917064 15.15356918432078 64.109162412167706 0.7313536940579346 0 -0.68199836817093118 I I #
edge $-1 $469 8.9330322199891512 $266 15.15356918432078 $386 $476 forward 7 unknown #
point $-1 43.658558915982546 15.15356918432078 11.501351787974308 #
point $-1 36.21383099738506 15.15356918432078 11.501351787974301 #
edge $-1 $477 1 $477 0 $269 $-1 forward 7 unknown #
vertex $-1 $270 $478 #
ellipse-curve $-1 38.612441265016706 10.710328495512478 6.610639155506683 0.68199836817093118 0 0.7313536940579346 0.3656768470289673 0 -0.34099918408546559 1 I I #
point $-1 40.301871803712757 10.710328495512478 7.6891919785909817 #
edge $-1 $479 1 $479 0 $273 $-1 forward 7 unknown #
vertex $-1 $274 $480 #
ellipse-curve $-1 38.612441265016706 13.376272908797461 6.610639155506683 0.68199836817093118 0 0.7313536940579346 0.3656768470289673 0 -0.34099918408546559 1 I I #
point $-1 40.301871803712757 13.376272908797461 7.6891919785909817 #
plane-surface $-1 43.658558915982546 0 0 -1 0 0 0 0 1 forward_v I I I I #
coedge $-1 $282 $280 $284 $407 reversed $181 $-1 #
edge $-1 $295 -11.501351787974308 $409 11.501351787974308 $294 $481 forward 7 unknown #
vertex $-1 $407 $482 #
straight-curve $-1 -43.658558915982546 -24.321389464902303 0 0 0 -1 I I #
edge $-1 $405 -24.321389464902303 $409 24.321389464902303 $403 $483 forward 7 unknown #
straight-curve $-1 0 -24.321389464902303 -11.501351787974308 -1 0 0 I I #
vertex $-1 $287 $484 #
straight-curve $-1 0 24.321389464902303 -11.501351787974308 1 0 0 I I #
point $-1 43.658558915982546 24.321389464902303 -11.501351787974308 #
point $-1 43.658558915982546 -24.321389464902303 -11.501351787974308 #
straight-curve $-1 -43.658558915982546 0 11.501351787974308 0 -1 0 I I #
point $-1 -43.658558915982546 24.321389464902303 11.501351787974308 #
point $-1 -43.658558915982546 -24.321389464902303 11.501351787974308 #
straight-curve $-1 43.658558915982546 -24.321389464902303 0 0 0 -1 I I #
straight-curve $-1 43.658558915982546 24.321389464902303 0 0 0 -1 I I #
plane-surface $-1 0 0 11.501351787974308 0 0 1 1 0 0 forward_v I I I I #
coedge $-1 $312 $431 $420 $485 forward $305 $-1 #
coedge $-1 $308 $307 $419 $485 reversed $121 $-1 #
edge $-1 $427 -2.77563522854593 $425 2.77563522854593 $307 $486 forward 7 unknown #
coedge $-1 $320 $319 $308 $423 forward $321 $-1 #
edge $-1 $424 -2.77563522854593 $487 2.77563522854593 $308 $488 forward 7 unknown #
vertex $-1 $324 $489 #
vertex $-1 $314 $490 #
straight-curve $-1 -26.207125797125791 -33.489209745483826 0 0 0 -1 I I #
vertex $-1 $485 $491 #
straight-curve $-1 -20.655855340033931 -28.905299605193065 -11.501351787974308 0 -1 0 I I #
straight-curve $-1 -26.207125797125791 -28.905299605193065 -11.501351787974308 0 1 0 I I #
point $-1 -20.655855340033931 -24.321389464902303 -11.501351787974308 #
coedge $-1 $419 $317 $320 $433 reversed $305 $-1 #
straight-curve $-1 -20.655855340033931 -24.321389464902303 0 0 0 -1 I I #
edge $-1 $487 -4.5839101402907616 $322 4.5839101402907616 $431 $492 forward 7 unknown #
point $-1 -20.655855340033931 -24.321389464902303 11.501351787974308 #
straight-curve $-1 -26.207125797125791 -28.905299605193065 11.501351787974308 0 -1 0 I I #
plane-surface $-1 0 0 11.501351787974308 0 0 1 1 0 0 forward_v I I I I #
coedge $-1 $332 $329 $334 $444 reversed $215 $-1 #
coedge $-1 $329 $332 $450 $493 reversed $215 $-1 #
edge $-1 $452 -11.501351787974308 $446 11.501351787974308 $346 $494 forward 7 unknown #
edge $-1 $441 -4.5839101402907616 $344 4.5839101402907616 $331 $495 forward 7 unknown #
vertex $-1 $493 $496 #
vertex $-1 $444 $497 #
straight-curve $-1 -26.207125797125791 33.489209745483826 0 0 0 -1 I I #
edge $-1 $442 -2.77563522854593 $446 2.77563522854593 $437 $498 forward 7 unknown #
straight-curve $-1 -26.207125797125791 28.905299605193065 -11.501351787974308 0 1 0 I I #
vertex $-1 $336 $499 #
straight-curve $-1 -20.655855340033931 28.905299605193065 -11.501351787974308 0 -1 0 I I #
point $-1 -26.207125797125791 24.321389464902303 -11.501351787974308 #
straight-curve $-1 -26.207125797125791 24.321389464902303 0 0 0 -1 I I #
coedge $-1 $342 $341 $438 $493 forward $343 $-1 #
point $-1 -26.207125797125791 24.321389464902303 11.501351787974308 #
vertex $-1 $347 $500 #
straight-curve $-1 -20.655855340033931 28.905299605193065 11.501351787974308 0 1 0 I I #
edge $-1 $455 13.329577968852426 $458 17.50124777916438 $351 $501 forward 7 unknown #
vertex $-1 $365 $502 #
straight-curve $-1 -60.013915804114191 -6.5025959699415665 11.501351787974308 -1 0 0 I I #
edge $-1 $458 1.0885546813759808 $362 9.7395278957551916 $361 $503 forward 7 unknown #
vertex $-1 $457 $504 #
straight-curve $-1 -43.658558915982553 -6.5025959699415665 7.3296819776623394 0.48480960649040278 0 0.87461971476443456 I I #
point $-1 -41.346164666225725 -6.5025959699415665 11.501351787974308 #
point $-1 -43.658558915982546 -15.153569184320776 7.3296819776623519 #
straight-curve $-1 -43.658558915982546 0 11.501351787974308 0 -1 0 I I #
vertex $-1 $368 $505 #
point $-1 -40.711308615077847 -12.681862551641002 8.9943969614912724 #
vertex $-1 $372 $506 #
point $-1 -40.711308615077847 -8.9743026026213411 8.9943969614912724 #
coedge $-1 $387 $386 $379 $468 forward $376 $-1 #
edge $-1 $469 52.483077758559354 $472 59.425399009155058 $467 $507 forward 7 unknown #
vertex $-1 $391 $508 #
straight-curve $-1 19.674497054936023 8.9330322199891512 11.501351787974308 1 0 0 I I #
edge $-1 $472 2.9113818689116684 $388 9.1319188332432972 $387 $509 forward 7 unknown #
vertex $-1 $471 $510 #
straight-curve $-1 -20.201137764917064 8.9330322199891512 64.109162412167706 -0.7313536940579346 0 0.68199836817093118 I I #
point $-1 36.21383099738506 8.9330322199891512 11.501351787974301 #
point $-1 43.658558915982546 15.15356918432078 4.5590305373786038 #
straight-curve $-1 43.658558915982546 0 11.501351787974308 0 1 0 I I #
vertex $-1 $394 $511 #
point $-1 38.978118112045678 10.710328495512478 6.2696399714212179 #
vertex $-1 $398 $512 #
point $-1 38.978118112045678 13.376272908797461 6.2696399714212179 #
straight-curve $-1 -43.658558915982546 24.321389464902303 0 0 0 -1 I I #
point $-1 -43.658558915982546 -24.321389464902303 -11.501351787974308 #
straight-curve $-1 -43.658558915982546 0 -11.501351787974308 0 1 0 I I #
point $-1 -43.658558915982546 24.321389464902303 -11.501351787974308 #
edge $-1 $487 -11.501351787974308 $427 11.501351787974308 $419 $513 forward 7 unknown #
straight-curve $-1 -23.431490568579861 -33.489209745483826 -11.501351787974308 -1 0 0 I I #
vertex $-1 $433 $514 #
straight-curve $-1 -23.431490568579861 -33.489209745483826 11.501351787974308 1 0 0 I I #
point $-1 -26.207125797125791 -33.489209745483826 11.501351787974308 #
point $-1 -26.207125797125791 -33.489209745483826 -11.501351787974308 #
point $-1 -20.655855340033931 -33.489209745483826 -11.501351787974308 #
straight-curve $-1 -20.655855340033931 -28.905299605193065 11.501351787974308 0 1 0 I I #
edge $-1 $452 -2.77563522854593 $441 2.77563522854593 $438 $515 forward 7 unknown #
straight-curve $-1 -20.655855340033931 33.489209745483826 0 0 0 -1 I I #
straight-curve $-1 -26.207125797125791 28.905299605193065 11.501351787974308 0 -1 0 I I #
point $-1 -26.207125797125791 33.489209745483826 11.501351787974308 #
point $-1 -26.207125797125791 33.489209745483826 -11.501351787974308 #
straight-curve $-1 -23.431490568579861 33.489209745483826 -11.501351787974308 1 0 0 I I #
point $-1 -20.655855340033931 33.489209745483826 -11.501351787974308 #
point $-1 -20.655855340033931 33.489209745483826 11.501351787974308 #
straight-curve $-1 -43.658558915982546 -6.5025959699415665 24.830929756826734 0 0 -1 I I #
point $-1 -43.658558915982546 -6.5025959699415665 11.501351787974308 #
straight-curve $-1 -43.658558915982546 -5.4140412885655858 7.3296819776623536 0 -1 0 I I #
point $-1 -43.658558915982546 -6.5025959699415665 7.3296819776623519 #
point $-1 -40.51640356094083 -12.681862551641002 8.3146823008638542 #
point $-1 -40.51640356094083 -8.9743026026213411 8.3146823008638542 #
straight-curve $-1 43.658558915982546 8.9330322199891512 63.984429546533661 0 0 -1 I I #
point $-1 43.658558915982546 8.9330322199891512 11.501351787974308 #
straight-curve $-1 43.658558915982546 6.0216503510774828 4.5590305373786073 0 1 0 I I #
point $-1 43.658558915982546 8.9330322199891512 4.5590305373786038 #
point $-1 38.271442080931244 10.710328495512478 6.2449623084777164 #
point $-1 38.271442080931244 13.376272908797461 6.2449623084777164 #
straight-curve $-1 -20.655855340033931 -33.489209745483826 0 0 0 -1 I I #
point $-1 -20.655855340033931 -33.489209745483826 11.501351787974308 #
straight-curve $-1 -23.431490568579861 33.489209745483826 11.501351787974308 -1 0 0 I I #
End-of-ACIS-data 