500 0 9 0           
7 Unknown 11 ACIS 5.0 NT 24 Thu Mar 25 16:08:41 1999 
-1 9.9999999999999995e-007 1e-010 
body $-1 $9 $-1 $10 #
body $-1 $11 $-1 $12 #
body $-1 $13 $-1 $14 #
body $-1 $15 $-1 $16 #
body $-1 $17 $-1 $18 #
body $-1 $19 $-1 $20 #
body $-1 $21 $-1 $22 #
body $-1 $23 $-1 $24 #
body $-1 $25 $-1 $26 #
lump $-1 $-1 $27 $0 #
transform $-1 1 0 0 0 1 0 0 0 1 56.055177465132601 28.604785817338655 10.998879297720112 1 rotate no_reflect no_shear #
lump $-1 $-1 $28 $1 #
transform $-1 1 0 0 0 1 0 0 0 1 56.055177465132601 28.604785817338655 10.998879297720112 1 rotate no_reflect no_shear #
lump $-1 $-1 $29 $2 #
transform $-1 1 0 0 0 1 0 0 0 1 56.055177465132601 28.604785817338655 10.998879297720112 1 rotate no_reflect no_shear #
lump $-1 $-1 $30 $3 #
transform $-1 1 0 0 0 1 0 0 0 1 56.055177465132601 28.604785817338655 10.998879297720112 1 rotate no_reflect no_shear #
lump $-1 $-1 $31 $4 #
transform $-1 1 0 0 0 1 0 0 0 1 56.055177465132601 28.604785817338655 10.998879297720112 1 rotate no_reflect no_shear #
lump $-1 $-1 $32 $5 #
transform $-1 1 0 0 0 1 0 0 0 1 56.055177465132601 28.604785817338655 10.998879297720112 1 rotate no_reflect no_shear #
lump $-1 $-1 $33 $6 #
transform $-1 1 0 0 0 1 0 0 0 1 56.055177465132601 28.604785817338655 10.998879297720112 1 rotate no_reflect no_shear #
lump $-1 $-1 $34 $7 #
transform $-1 1 0 0 0 1 0 0 0 1 56.055177465132601 28.604785817338655 10.998879297720112 1 rotate no_reflect no_shear #
lump $-1 $-1 $35 $8 #
transform $-1 1 0 0 0 1 0 0 0 1 56.055177465132601 28.604785817338655 10.998879297720112 1 rotate no_reflect no_shear #
shell $-1 $-1 $-1 $36 $-1 $9 #
shell $-1 $-1 $-1 $37 $-1 $11 #
shell $-1 $-1 $-1 $38 $-1 $13 #
shell $-1 $-1 $-1 $39 $-1 $15 #
shell $-1 $-1 $-1 $40 $-1 $17 #
shell $-1 $-1 $-1 $41 $-1 $19 #
shell $-1 $-1 $-1 $42 $-1 $21 #
shell $-1 $-1 $-1 $43 $-1 $23 #
shell $-1 $-1 $-1 $44 $-1 $25 #
face $-1 $45 $46 $27 $-1 $47 forward single #
face $-1 $48 $49 $28 $-1 $50 reversed single #
face $-1 $51 $52 $29 $-1 $53 reversed single #
face $-1 $54 $55 $30 $-1 $56 reversed single #
face $-1 $57 $58 $31 $-1 $59 forward single #
face $-1 $60 $61 $32 $-1 $62 forward single #
face $-1 $63 $64 $33 $-1 $65 reversed single #
face $-1 $66 $67 $34 $-1 $68 forward single #
face $-1 $69 $70 $35 $-1 $71 forward single #
face $-1 $72 $73 $27 $-1 $74 reversed single #
loop $-1 $-1 $75 $36 #
plane-surface $-1 0 0 10.998879297720112 0 0 1 1 0 0 forward_v I I I I #
face $-1 $76 $77 $28 $-1 $78 reversed single #
loop $-1 $-1 $79 $37 #
plane-surface $-1 -54.382436133783116 -15.989309252459758 0 0 -1 0 0 0 -1 forward_v I I I I #
face $-1 $80 $81 $29 $-1 $82 reversed single #
loop $-1 $-1 $83 $38 #
plane-surface $-1 -54.382436133783116 15.989309252459755 0 0 1 0 0 0 1 forward_v I I I I #
face $-1 $84 $85 $30 $-1 $86 reversed single #
loop $-1 $-1 $87 $39 #
plane-surface $-1 -136.70061872023274 -7.7866032903355382 78.31487111702873 0 1 0 -0.71933980857756763 0 0.69465836192734942 forward_v I I I I #
face $-1 $88 $89 $31 $-1 $90 forward single #
loop $-1 $91 $92 $40 #
cone-surface $-1 -49.783692767769956 -5.597944041144995 4.5863851710205417 0.71933980857756763 0 -0.69465836192734942 0.69465836192734942 0 0.71933980857756763 1 I I 0 1 1 forward I I I I #
face $-1 $93 $94 $32 $-1 $95 forward single #
loop $-1 $96 $97 $41 #
cone-surface $-1 -49.783692767769956 -2.3149551673591802 4.5863851710205417 0.71933980857756763 0 -0.69465836192734942 0.69465836192734942 0 0.71933980857756763 1 I I 0 1 1 forward I I I I #
face $-1 $98 $99 $33 $-1 $100 reversed single #
loop $-1 $-1 $101 $42 #
plane-surface $-1 99.7569270591394 9.1802254578878575 155.53076129114314 0 -1 0 -0.87461971476443456 0 -0.48480960649040278 forward_v I I I I #
face $-1 $102 $103 $34 $-1 $104 forward single #
loop $-1 $105 $106 $43 #
cone-surface $-1 52.836921384358483 2.3970703461115939 6.4875708141155179 -0.87461971476443456 0 -0.48480960649040278 0.48480960649040278 0 -0.87461971476443456 1 I I 0 1 1 forward I I I I #
face $-1 $107 $108 $35 $-1 $109 forward single #
loop $-1 $110 $111 $44 #
cone-surface $-1 52.836921384358483 6.4669634131773499 6.4875708141155179 -0.87461971476443456 0 -0.48480960649040278 0.48480960649040278 0 -0.87461971476443456 1 I I 0 1 1 forward I I I I #
face $-1 $112 $113 $27 $-1 $114 reversed single #
loop $-1 $-1 $115 $45 #
plane-surface $-1 0 0 -10.998879297720112 0 0 1 1 0 0 forward_v I I I I #
coedge $-1 $116 $117 $118 $119 forward $46 $-1 #
face $-1 $120 $121 $28 $-1 $122 forward single #
loop $-1 $-1 $123 $48 #
plane-surface $-1 -52.709694802433631 -22.297047534899207 0 -1 0 0 0 0 1 forward_v I I I I #
coedge $-1 $124 $125 $126 $127 forward $49 $-1 #
face $-1 $128 $129 $29 $-1 $130 reversed single #
loop $-1 $-1 $131 $51 #
plane-surface $-1 -52.709694802433631 22.297047534899203 0 -1 0 0 0 0 1 forward_v I I I I #
coedge $-1 $132 $133 $134 $135 reversed $52 $-1 #
face $-1 $136 $137 $30 $-1 $138 reversed single #
loop $-1 $-1 $139 $54 #
plane-surface $-1 -56.055177465132601 -3.9564496042520858 0.43647560607696789 -0.71933980857756763 0 0.69465836192734942 0.69465836192734942 0 0.71933980857756763 forward_v I I I I #
coedge $-1 $140 $141 $142 $143 reversed $55 $-1 #
face $-1 $-1 $144 $31 $-1 $145 forward single #
loop $-1 $146 $147 $57 #
cone-surface $-1 -48.252535385069208 -5.597944041144995 3.1077637091788759 0.71933980857756763 0 -0.69465836192734942 0.34732918096367471 0 0.35966990428878381 1 I I -0.70710678118654746 0.70710678118654746 0.5 forward I I I I #
loop $-1 $-1 $148 $40 #
coedge $-1 $92 $92 $149 $150 reversed $58 $-1 #
face $-1 $-1 $151 $32 $-1 $152 forward single #
loop $-1 $153 $154 $60 #
cone-surface $-1 -48.252535385069208 -2.3149551673591802 3.1077637091788759 0.71933980857756763 0 -0.69465836192734942 0.34732918096367471 0 0.35966990428878381 1 I I -0.70710678118654746 0.70710678118654746 0.5 forward I I I I #
loop $-1 $-1 $155 $41 #
coedge $-1 $97 $97 $156 $157 reversed $61 $-1 #
face $-1 $158 $159 $33 $-1 $160 reversed single #
loop $-1 $-1 $161 $63 #
plane-surface $-1 1.7030004078913237 4.4320168796444754 101.17858423390189 0.87461971476443456 0 0.48480960649040278 0.48480960649040278 0 -0.87461971476443456 forward_v I I I I #
coedge $-1 $162 $163 $164 $165 reversed $64 $-1 #
face $-1 $-1 $166 $34 $-1 $167 forward single #
loop $-1 $168 $169 $66 #
cone-surface $-1 51.363731550157041 2.3970703461115939 5.6709683847988792 -0.87461971476443456 0 -0.48480960649040278 0.24240480324520139 0 -0.43730985738221728 1 I I -0.70710678118654746 0.70710678118654746 0.5 forward I I I I #
loop $-1 $-1 $170 $43 #
coedge $-1 $106 $106 $171 $172 reversed $67 $-1 #
face $-1 $-1 $173 $35 $-1 $174 forward single #
loop $-1 $175 $176 $69 #
cone-surface $-1 51.363731550157041 6.4669634131773499 5.6709683847988792 -0.87461971476443456 0 -0.48480960649040278 0.24240480324520139 0 -0.43730985738221728 1 I I -0.70710678118654746 0.70710678118654746 0.5 forward I I I I #
loop $-1 $-1 $177 $44 #
coedge $-1 $111 $111 $178 $179 reversed $70 $-1 #
face $-1 $180 $181 $27 $-1 $182 reversed single #
loop $-1 $-1 $183 $72 #
plane-surface $-1 0 -28.604785817338655 0 0 1 0 0 0 1 forward_v I I I I #
coedge $-1 $184 $185 $186 $187 forward $73 $-1 #
coedge $-1 $188 $75 $189 $190 forward $46 $-1 #
coedge $-1 $75 $188 $191 $192 forward $46 $-1 #
coedge $-1 $193 $194 $75 $119 reversed $195 $-1 #
edge $-1 $196 -28.604785817338655 $197 28.604785817338655 $118 $198 forward 7 unknown #
face $-1 $199 $200 $28 $-1 $201 reversed single #
loop $-1 $-1 $202 $76 #
plane-surface $-1 0 0 10.998879297720112 0 0 1 1 0 0 forward_v I I I I #
coedge $-1 $203 $204 $205 $206 reversed $77 $-1 #
coedge $-1 $207 $79 $208 $209 reversed $49 $-1 #
coedge $-1 $79 $207 $210 $211 reversed $49 $-1 #
coedge $-1 $204 $203 $79 $127 reversed $77 $-1 #
edge $-1 $212 -10.998879297720112 $213 10.998879297720112 $126 $214 forward 7 unknown #
face $-1 $215 $216 $29 $-1 $217 reversed single #
loop $-1 $-1 $218 $80 #
plane-surface $-1 0 0 -10.998879297720112 0 0 1 1 0 0 forward_v I I I I #
coedge $-1 $219 $220 $221 $222 forward $81 $-1 #
coedge $-1 $221 $83 $223 $224 reversed $52 $-1 #
coedge $-1 $83 $221 $225 $226 reversed $52 $-1 #
coedge $-1 $227 $228 $83 $135 forward $216 $-1 #
edge $-1 $229 -10.998879297720112 $230 10.998879297720112 $134 $231 forward 7 unknown #
face $-1 $232 $233 $30 $-1 $234 forward single #
loop $-1 $-1 $235 $84 #
plane-surface $-1 -136.70061872023274 -0.12629591816863339 78.31487111702873 0 -1 0 0.71933980857756763 0 -0.69465836192734942 forward_v I I I I #
coedge $-1 $236 $237 $238 $239 reversed $85 $-1 #
coedge $-1 $141 $87 $240 $241 reversed $55 $-1 #
coedge $-1 $87 $140 $236 $242 reversed $55 $-1 #
coedge $-1 $238 $243 $87 $143 forward $233 $-1 #
edge $-1 $244 12.295131894983768 $245 22.495126332885121 $142 $246 forward 7 unknown #
loop $-1 $-1 $149 $88 #
plane-surface $-1 -56.055177465132601 -3.9564496042520858 0.43647560607696789 -0.71933980857756763 0 0.69465836192734942 0.69465836192734942 0 0.71933980857756763 forward_v I I I I #
loop $-1 $-1 $247 $57 #
coedge $-1 $147 $147 $148 $248 reversed $89 $-1 #
coedge $-1 $148 $148 $147 $248 forward $91 $-1 #
coedge $-1 $149 $149 $92 $150 forward $144 $-1 #
edge $-1 $249 0 $249 6.2831853071796004 $149 $250 forward 7 unknown #
loop $-1 $-1 $156 $93 #
plane-surface $-1 -56.055177465132601 -3.9564496042520858 0.43647560607696789 -0.71933980857756763 0 0.69465836192734942 0.69465836192734942 0 0.71933980857756763 forward_v I I I I #
loop $-1 $-1 $251 $60 #
coedge $-1 $154 $154 $155 $252 reversed $94 $-1 #
coedge $-1 $155 $155 $154 $252 forward $96 $-1 #
coedge $-1 $156 $156 $97 $157 forward $151 $-1 #
edge $-1 $253 0 $253 6.2831853071796004 $156 $254 forward 7 unknown #
face $-1 $255 $256 $33 $-1 $257 reversed single #
loop $-1 $-1 $258 $98 #
plane-surface $-1 99.7569270591394 -0.31619169859890661 155.53076129114314 0 1 0 0.87461971476443456 0 0.48480960649040278 forward_v I I I I #
coedge $-1 $259 $260 $261 $262 reversed $99 $-1 #
coedge $-1 $163 $101 $263 $264 reversed $64 $-1 #
coedge $-1 $101 $162 $259 $265 reversed $64 $-1 #
coedge $-1 $261 $266 $101 $165 forward $267 $-1 #
edge $-1 $268 -6.1767139355629013 $269 -1.8119617276531201 $164 $270 forward 7 unknown #
loop $-1 $-1 $171 $102 #
plane-surface $-1 1.7030004078913237 4.4320168796444754 101.17858423390189 0.87461971476443456 0 0.48480960649040278 0.48480960649040278 0 -0.87461971476443456 forward_v I I I I #
loop $-1 $-1 $271 $66 #
coedge $-1 $169 $169 $170 $272 reversed $103 $-1 #
coedge $-1 $170 $170 $169 $272 forward $105 $-1 #
coedge $-1 $171 $171 $106 $172 forward $166 $-1 #
edge $-1 $273 0 $273 6.2831853071796004 $171 $274 forward 7 unknown #
loop $-1 $-1 $178 $107 #
plane-surface $-1 1.7030004078913237 4.4320168796444754 101.17858423390189 0.87461971476443456 0 0.48480960649040278 0.48480960649040278 0 -0.87461971476443456 forward_v I I I I #
loop $-1 $-1 $275 $69 #
coedge $-1 $176 $176 $177 $276 reversed $108 $-1 #
coedge $-1 $177 $177 $176 $276 forward $110 $-1 #
coedge $-1 $178 $178 $111 $179 forward $173 $-1 #
edge $-1 $277 0 $277 6.2831853071796004 $178 $278 forward 7 unknown #
face $-1 $279 $280 $27 $-1 $281 reversed single #
loop $-1 $-1 $282 $112 #
plane-surface $-1 -56.055177465132601 0 0 1 0 0 0 0 -1 forward_v I I I I #
coedge $-1 $283 $191 $284 $285 forward $113 $-1 #
coedge $-1 $286 $115 $283 $287 forward $73 $-1 #
coedge $-1 $115 $286 $288 $289 forward $73 $-1 #
coedge $-1 $194 $193 $115 $187 reversed $195 $-1 #
edge $-1 $290 -28.604785817338655 $291 28.604785817338655 $186 $292 forward 7 unknown #
coedge $-1 $117 $116 $293 $294 forward $46 $-1 #
coedge $-1 $295 $296 $116 $190 reversed $280 $-1 #
edge $-1 $197 -56.055177465132601 $297 56.055177465132601 $189 $298 forward 7 unknown #
coedge $-1 $183 $299 $117 $192 reversed $113 $-1 #
edge $-1 $300 -56.055177465132601 $196 56.055177465132601 $191 $301 forward 7 unknown #
coedge $-1 $186 $118 $299 $302 forward $195 $-1 #
coedge $-1 $118 $186 $295 $303 reversed $195 $-1 #
loop $-1 $-1 $193 $279 #
vertex $-1 $119 $304 #
vertex $-1 $119 $305 #
straight-curve $-1 56.055177465132601 0 10.998879297720112 0 1 0 I I #
face $-1 $306 $307 $28 $-1 $308 reversed single #
loop $-1 $-1 $309 $120 #
plane-surface $-1 -56.055177465132601 0 0 1 0 0 0 0 -1 forward_v I I I I #
coedge $-1 $210 $310 $204 $311 forward $121 $-1 #
coedge $-1 $126 $123 $312 $313 reversed $77 $-1 #
coedge $-1 $123 $126 $202 $311 reversed $77 $-1 #
coedge $-1 $314 $315 $123 $206 forward $316 $-1 #
edge $-1 $317 -10.998879297720112 $318 10.998879297720112 $205 $319 forward 7 unknown #
coedge $-1 $125 $124 $309 $320 reversed $49 $-1 #
coedge $-1 $312 $321 $124 $209 forward $307 $-1 #
edge $-1 $322 -28.863959398241043 $213 -25.518476735542073 $208 $323 forward 7 unknown #
coedge $-1 $324 $202 $125 $211 forward $121 $-1 #
edge $-1 $212 25.518476735542073 $325 28.863959398241043 $210 $326 forward 7 unknown #
vertex $-1 $211 $327 #
vertex $-1 $209 $328 #
straight-curve $-1 -52.709694802433631 -15.989309252459758 0 0 0 -1 I I #
face $-1 $329 $330 $29 $-1 $331 forward single #
loop $-1 $-1 $134 $128 #
plane-surface $-1 -56.055177465132601 0 0 1 0 0 0 0 -1 forward_v I I I I #
coedge $-1 $223 $332 $219 $333 forward $129 $-1 #
coedge $-1 $334 $131 $218 $333 reversed $81 $-1 #
coedge $-1 $131 $334 $335 $336 reversed $81 $-1 #
coedge $-1 $133 $132 $131 $222 reversed $52 $-1 #
edge $-1 $337 -10.998879297720112 $338 10.998879297720112 $131 $339 forward 7 unknown #
coedge $-1 $340 $218 $132 $224 forward $129 $-1 #
edge $-1 $338 25.518476735542073 $229 28.863959398241043 $223 $341 forward 7 unknown #
coedge $-1 $335 $342 $133 $226 forward $330 $-1 #
edge $-1 $230 -28.863959398241043 $337 -25.518476735542073 $225 $343 forward 7 unknown #
coedge $-1 $344 $134 $342 $345 reversed $216 $-1 #
coedge $-1 $134 $344 $340 $346 reversed $216 $-1 #
vertex $-1 $346 $347 #
vertex $-1 $135 $348 #
straight-curve $-1 -56.055177465132601 15.989309252459755 0 0 0 1 I I #
face $-1 $-1 $349 $30 $-1 $350 reversed single #
loop $-1 $-1 $142 $136 #
plane-surface $-1 0 0 10.998879297720112 0 0 1 1 0 0 forward_v I I I I #
coedge $-1 $351 $352 $353 $354 reversed $137 $-1 #
coedge $-1 $355 $139 $141 $242 forward $85 $-1 #
coedge $-1 $139 $355 $351 $356 forward $85 $-1 #
coedge $-1 $353 $142 $139 $239 forward $233 $-1 #
edge $-1 $245 -5.8083784882094953 $357 1.8519288839574095 $238 $358 forward 7 unknown #
coedge $-1 $359 $360 $140 $241 forward $349 $-1 #
edge $-1 $361 -38.720959952437397 $244 -28.158556260794253 $240 $362 forward 7 unknown #
edge $-1 $245 -14.683468877566202 $361 0 $141 $363 forward 7 unknown #
coedge $-1 $142 $353 $359 $364 forward $233 $-1 #
vertex $-1 $143 $365 #
vertex $-1 $143 $366 #
straight-curve $-1 -68.35030936011637 -7.7866032903355382 10.998879297720116 1 0 0 I I #
coedge $-1 $247 $247 $-1 $367 reversed $146 $-1 #
edge $-1 $368 0 $368 6.2831853071796004 $147 $369 forward 7 unknown #
vertex $-1 $150 $370 #
ellipse-curve $-1 -50.955180246181925 -5.597944041144995 5.71767745189854 -0.71933980857756763 0 0.69465836192734942 0.69465836192734942 0 0.71933980857756763 1 I I #
coedge $-1 $251 $251 $-1 $371 reversed $153 $-1 #
edge $-1 $372 0 $372 6.2831853071796004 $154 $373 forward 7 unknown #
vertex $-1 $157 $374 #
ellipse-curve $-1 -50.955180246181925 -2.3149551673591802 5.71767745189854 -0.71933980857756763 0 0.69465836192734942 0.69465836192734942 0 0.71933980857756763 1 I I #
face $-1 $-1 $267 $33 $-1 $375 forward single #
loop $-1 $-1 $376 $158 #
plane-surface $-1 56.055177465132601 0 0 -1 0 0 0 0 1 forward_v I I I I #
coedge $-1 $377 $378 $379 $380 reversed $159 $-1 #
coedge $-1 $381 $161 $163 $265 forward $99 $-1 #
coedge $-1 $161 $381 $377 $382 forward $99 $-1 #
coedge $-1 $379 $164 $161 $262 forward $267 $-1 #
edge $-1 $269 -6.9642170180656198 $383 2.5322001384211443 $261 $384 forward 7 unknown #
coedge $-1 $385 $386 $162 $264 forward $256 $-1 #
edge $-1 $387 -74.640723062917786 $268 -66.76650134785146 $263 $388 forward 7 unknown #
edge $-1 $269 103.10733157949716 $387 112.11035493026525 $163 $389 forward 7 unknown #
coedge $-1 $164 $379 $385 $390 forward $267 $-1 #
loop $-1 $-1 $379 $255 #
vertex $-1 $264 $391 #
vertex $-1 $165 $392 #
straight-curve $-1 49.8784635295697 9.1802254578878575 10.998879297720109 -1 0 0 I I #
coedge $-1 $271 $271 $-1 $393 reversed $168 $-1 #
edge $-1 $394 0 $394 6.2831853071796004 $169 $395 forward 7 unknown #
vertex $-1 $172 $396 #
ellipse-curve $-1 53.872801361177707 2.3970703461115939 7.061768440186956 0.87461971476443456 0 0.48480960649040278 0.48480960649040278 0 -0.87461971476443456 1 I I #
coedge $-1 $275 $275 $-1 $397 reversed $175 $-1 #
edge $-1 $398 0 $398 6.2831853071796004 $176 $399 forward 7 unknown #
vertex $-1 $179 $400 #
ellipse-curve $-1 53.872801361177707 6.4669634131773499 7.061768440186956 0.87461971476443456 0 0.48480960649040278 0.48480960649040278 0 -0.87461971476443456 1 I I #
face $-1 $-1 $195 $27 $-1 $401 reversed single #
loop $-1 $-1 $295 $180 #
plane-surface $-1 0 28.604785817338655 0 0 -1 0 0 0 -1 forward_v I I I I #
coedge $-1 $402 $293 $296 $403 forward $181 $-1 #
coedge $-1 $299 $183 $184 $287 reversed $113 $-1 #
coedge $-1 $293 $402 $183 $285 reversed $181 $-1 #
edge $-1 $300 -10.998879297720112 $404 10.998879297720112 $284 $405 forward 7 unknown #
coedge $-1 $185 $184 $402 $406 forward $73 $-1 #
edge $-1 $291 -56.055177465132601 $404 56.055177465132601 $283 $407 forward 7 unknown #
coedge $-1 $296 $295 $185 $289 reversed $280 $-1 #
edge $-1 $408 -56.055177465132601 $290 56.055177465132601 $288 $409 forward 7 unknown #
vertex $-1 $187 $410 #
vertex $-1 $302 $411 #
straight-curve $-1 56.055177465132601 0 -10.998879297720112 0 -1 0 I I #
coedge $-1 $282 $284 $188 $294 reversed $181 $-1 #
edge $-1 $297 -28.604785817338655 $300 28.604785817338655 $293 $412 forward 7 unknown #
coedge $-1 $288 $189 $194 $303 forward $280 $-1 #
coedge $-1 $189 $288 $282 $403 reversed $280 $-1 #
vertex $-1 $190 $413 #
straight-curve $-1 0 28.604785817338655 10.998879297720112 -1 0 0 I I #
coedge $-1 $191 $283 $193 $302 reversed $113 $-1 #
vertex $-1 $294 $414 #
straight-curve $-1 0 -28.604785817338655 10.998879297720112 1 0 0 I I #
edge $-1 $196 -10.998879297720112 $291 10.998879297720112 $193 $415 forward 7 unknown #
edge $-1 $197 -10.998879297720112 $290 10.998879297720112 $194 $416 forward 7 unknown #
point $-1 56.055177465132601 -28.604785817338655 10.998879297720112 #
point $-1 56.055177465132601 28.604785817338655 10.998879297720112 #
face $-1 $-1 $316 $28 $-1 $417 reversed single #
loop $-1 $-1 $312 $199 #
plane-surface $-1 0 0 -10.998879297720112 0 0 1 1 0 0 forward_v I I I I #
coedge $-1 $418 $419 $207 $320 forward $200 $-1 #
coedge $-1 $202 $324 $314 $420 forward $121 $-1 #
edge $-1 $318 -17.456262049889052 $212 -4.840785485010155 $202 $421 forward 7 unknown #
coedge $-1 $422 $208 $203 $313 forward $307 $-1 #
edge $-1 $213 4.840785485010155 $317 17.456262049889052 $312 $423 forward 7 unknown #
coedge $-1 $424 $205 $310 $420 reversed $316 $-1 #
coedge $-1 $205 $424 $422 $425 reversed $316 $-1 #
loop $-1 $-1 $205 $306 #
vertex $-1 $425 $426 #
vertex $-1 $206 $427 #
straight-curve $-1 -52.709694802433631 -28.604785817338655 0 0 0 1 I I #
edge $-1 $325 -10.998879297720112 $322 10.998879297720112 $309 $428 forward 7 unknown #
coedge $-1 $208 $422 $418 $429 forward $307 $-1 #
vertex $-1 $209 $430 #
straight-curve $-1 -27.191218066891558 -15.989309252459758 -10.998879297720112 1 0 0 I I #
coedge $-1 $310 $210 $419 $431 forward $121 $-1 #
vertex $-1 $431 $432 #
straight-curve $-1 -27.191218066891558 -15.989309252459758 10.998879297720112 -1 0 0 I I #
point $-1 -52.709694802433631 -15.989309252459758 10.998879297720112 #
point $-1 -52.709694802433631 -15.989309252459758 -10.998879297720112 #
face $-1 $-1 $433 $29 $-1 $434 reversed single #
loop $-1 $-1 $335 $215 #
plane-surface $-1 0 0 10.998879297720112 0 0 1 1 0 0 forward_v I I I I #
coedge $-1 $218 $340 $435 $436 forward $129 $-1 #
edge $-1 $437 -17.456262049889048 $338 -4.8407854850101533 $218 $438 forward 7 unknown #
coedge $-1 $220 $219 $439 $440 reversed $81 $-1 #
coedge $-1 $441 $225 $220 $336 forward $330 $-1 #
edge $-1 $337 4.8407854850101533 $442 17.456262049889048 $335 $443 forward 7 unknown #
vertex $-1 $226 $444 #
vertex $-1 $224 $445 #
straight-curve $-1 -52.709694802433631 15.989309252459755 0 0 0 -1 I I #
coedge $-1 $332 $223 $228 $346 forward $129 $-1 #
straight-curve $-1 -27.191218066891558 15.989309252459755 -10.998879297720112 -1 0 0 I I #
coedge $-1 $225 $441 $227 $345 forward $330 $-1 #
straight-curve $-1 -27.191218066891558 15.989309252459755 10.998879297720112 1 0 0 I I #
coedge $-1 $228 $227 $446 $447 forward $216 $-1 #
edge $-1 $448 -28.604785817338655 $230 -15.989309252459755 $227 $449 forward 7 unknown #
edge $-1 $229 15.989309252459755 $450 28.604785817338655 $228 $451 forward 7 unknown #
point $-1 -56.055177465132601 15.989309252459755 -10.998879297720112 #
point $-1 -56.055177465132601 15.989309252459755 10.998879297720112 #
loop $-1 $-1 $240 $232 #
plane-surface $-1 -56.055177465132601 0 0 1 0 0 0 0 -1 forward_v I I I I #
coedge $-1 $352 $235 $237 $356 reversed $137 $-1 #
coedge $-1 $235 $351 $452 $453 reversed $137 $-1 #
coedge $-1 $243 $238 $235 $354 forward $233 $-1 #
edge $-1 $357 -22.495126332885121 $454 -12.295131894983768 $353 $455 forward 7 unknown #
coedge $-1 $237 $236 $360 $456 reversed $85 $-1 #
edge $-1 $457 0 $357 14.683468877566202 $351 $458 forward 7 unknown #
vertex $-1 $239 $459 #
straight-curve $-1 -45.855183027231249 -1.9782248021260429 10.998879297720114 0 1 0 I I #
coedge $-1 $452 $240 $243 $364 reversed $349 $-1 #
coedge $-1 $240 $452 $355 $456 forward $349 $-1 #
vertex $-1 $241 $460 #
straight-curve $-1 -56.055177465132601 -7.7866032903355382 39.157435558514365 0 0 1 I I #
straight-curve $-1 -56.055177465132601 -7.7866032903355382 0.43647560607696789 -0.69465836192734942 0 -0.71933980857756763 I I #
edge $-1 $454 0.12629591816863339 $244 7.7866032903355382 $359 $461 forward 7 unknown #
point $-1 -56.055177465132601 -7.7866032903355382 10.998879297720112 #
point $-1 -45.855183027231249 -7.7866032903355382 10.998879297720112 #
edge $-1 $462 1 $462 0 $247 $-1 forward 7 unknown #
vertex $-1 $248 $463 #
ellipse-curve $-1 -48.612205289357995 -5.597944041144995 3.4550928901425504 -0.71933980857756763 0 0.69465836192734942 0.69465836192734942 0 0.71933980857756763 1 I I #
point $-1 -50.260521884254565 -5.597944041144995 6.4370172604761011 #
edge $-1 $464 1 $464 0 $251 $-1 forward 7 unknown #
vertex $-1 $252 $465 #
ellipse-curve $-1 -48.612205289357995 -2.3149551673591802 3.4550928901425504 -0.71933980857756763 0 0.69465836192734942 0.69465836192734942 0 0.71933980857756763 1 I I #
point $-1 -50.260521884254565 -2.3149551673591802 6.4370172604761011 #
plane-surface $-1 0 0 10.998879297720112 0 0 1 1 0 0 forward_v I I I I #
coedge $-1 $386 $385 $378 $466 forward $256 $-1 #
coedge $-1 $378 $258 $260 $382 reversed $159 $-1 #
coedge $-1 $258 $377 $376 $466 reversed $159 $-1 #
coedge $-1 $266 $261 $258 $380 forward $267 $-1 #
edge $-1 $383 1.8119617276531201 $467 6.1767139355629013 $379 $468 forward 7 unknown #
coedge $-1 $260 $259 $386 $469 reversed $99 $-1 #
edge $-1 $470 -112.11035493026525 $383 -103.10733157949716 $377 $471 forward 7 unknown #
vertex $-1 $262 $472 #
straight-curve $-1 51.690425257222813 2.2160084398222377 10.998879297720116 0 -1 0 I I #
coedge $-1 $376 $263 $266 $390 reversed $256 $-1 #
coedge $-1 $263 $376 $381 $469 forward $256 $-1 #
vertex $-1 $264 $473 #
straight-curve $-1 56.055177465132601 9.1802254578878575 77.765380645571568 0 0 1 I I #
straight-curve $-1 1.7030004078913237 9.1802254578878575 101.17858423390189 0.48480960649040278 0 -0.87461971476443456 I I #
edge $-1 $467 -0.31619169859890661 $268 9.1802254578878575 $385 $474 forward 7 unknown #
point $-1 56.055177465132601 9.1802254578878575 10.998879297720112 #
point $-1 51.69042525722282 9.1802254578878575 10.998879297720109 #
edge $-1 $475 1 $475 0 $271 $-1 forward 7 unknown #
vertex $-1 $272 $476 #
ellipse-curve $-1 51.801041407539259 2.3970703461115939 5.9133731880440807 0.87461971476443456 0 0.48480960649040278 0.48480960649040278 0 -0.87461971476443456 1 I I #
point $-1 54.357610967668109 2.3970703461115939 6.1871487254225208 #
edge $-1 $477 1 $477 0 $275 $-1 forward 7 unknown #
vertex $-1 $276 $478 #
ellipse-curve $-1 51.801041407539259 6.4669634131773499 5.9133731880440807 0.87461971476443456 0 0.48480960649040278 0.48480960649040278 0 -0.87461971476443456 1 I I #
point $-1 54.357610967668109 6.4669634131773499 6.1871487254225208 #
plane-surface $-1 56.055177465132601 0 0 -1 0 0 0 0 1 forward_v I I I I #
coedge $-1 $284 $282 $286 $406 reversed $181 $-1 #
edge $-1 $297 -10.998879297720112 $408 10.998879297720112 $296 $479 forward 7 unknown #
vertex $-1 $406 $480 #
straight-curve $-1 -56.055177465132601 -28.604785817338655 0 0 0 -1 I I #
edge $-1 $404 -28.604785817338655 $408 28.604785817338655 $402 $481 forward 7 unknown #
straight-curve $-1 0 -28.604785817338655 -10.998879297720112 -1 0 0 I I #
vertex $-1 $289 $482 #
straight-curve $-1 0 28.604785817338655 -10.998879297720112 1 0 0 I I #
point $-1 56.055177465132601 28.604785817338655 -10.998879297720112 #
point $-1 56.055177465132601 -28.604785817338655 -10.998879297720112 #
straight-curve $-1 -56.055177465132601 0 10.998879297720112 0 -1 0 I I #
point $-1 -56.055177465132601 28.604785817338655 10.998879297720112 #
point $-1 -56.055177465132601 -28.604785817338655 10.998879297720112 #
straight-curve $-1 56.055177465132601 -28.604785817338655 0 0 0 -1 I I #
straight-curve $-1 56.055177465132601 28.604785817338655 0 0 0 -1 I I #
plane-surface $-1 0 -28.604785817338655 0 0 1 0 0 0 1 forward_v I I I I #
coedge $-1 $483 $309 $321 $429 reversed $200 $-1 #
coedge $-1 $309 $483 $324 $431 reversed $200 $-1 #
edge $-1 $484 -56.055177465132601 $318 -52.709694802433631 $314 $485 forward 7 unknown #
straight-curve $-1 -52.709694802433631 -11.148523767449603 10.998879297720112 0 1 0 I I #
coedge $-1 $321 $312 $315 $425 forward $307 $-1 #
straight-curve $-1 -52.709694802433631 -11.148523767449603 -10.998879297720112 0 -1 0 I I #
coedge $-1 $315 $314 $483 $486 forward $316 $-1 #
edge $-1 $317 52.709694802433631 $487 56.055177465132601 $315 $488 forward 7 unknown #
point $-1 -52.709694802433631 -28.604785817338655 -10.998879297720112 #
point $-1 -52.709694802433631 -28.604785817338655 10.998879297720112 #
straight-curve $-1 -56.055177465132601 -15.989309252459758 0 0 0 -1 I I #
edge $-1 $487 -28.604785817338655 $322 -15.989309252459758 $418 $489 forward 7 unknown #
point $-1 -56.055177465132601 -15.989309252459758 -10.998879297720112 #
edge $-1 $325 15.989309252459758 $484 28.604785817338655 $419 $490 forward 7 unknown #
point $-1 -56.055177465132601 -15.989309252459758 10.998879297720112 #
loop $-1 $-1 $439 $329 #
plane-surface $-1 0 28.604785817338655 0 0 -1 0 0 0 -1 forward_v I I I I #
coedge $-1 $446 $439 $332 $436 reversed $433 $-1 #
edge $-1 $450 -56.055177465132601 $437 -52.709694802433631 $435 $491 forward 7 unknown #
vertex $-1 $333 $492 #
straight-curve $-1 -52.709694802433631 11.148523767449602 -10.998879297720112 0 -1 0 I I #
coedge $-1 $435 $493 $334 $440 forward $433 $-1 #
edge $-1 $442 -10.998879297720112 $437 10.998879297720112 $439 $494 forward 7 unknown #
coedge $-1 $342 $335 $493 $495 forward $330 $-1 #
vertex $-1 $495 $496 #
straight-curve $-1 -52.709694802433631 11.148523767449602 10.998879297720112 0 1 0 I I #
point $-1 -52.709694802433631 15.989309252459755 10.998879297720112 #
point $-1 -52.709694802433631 15.989309252459755 -10.998879297720112 #
coedge $-1 $493 $435 $344 $447 reversed $433 $-1 #
edge $-1 $448 -10.998879297720112 $450 10.998879297720112 $446 $497 forward 7 unknown #
vertex $-1 $495 $498 #
straight-curve $-1 -56.055177465132601 0 10.998879297720112 0 -1 0 I I #
vertex $-1 $436 $499 #
straight-curve $-1 -56.055177465132601 0 -10.998879297720112 0 1 0 I I #
coedge $-1 $360 $359 $352 $453 forward $349 $-1 #
edge $-1 $454 28.158556260794253 $457 38.720959952437397 $452 $500 forward 7 unknown #
vertex $-1 $364 $501 #
straight-curve $-1 -68.35030936011637 -0.12629591816863339 10.998879297720116 -1 0 0 I I #
edge $-1 $457 -1.8519288839574095 $361 5.8083784882094953 $360 $502 forward 7 unknown #
vertex $-1 $456 $503 #
straight-curve $-1 -56.055177465132601 -0.12629591816863339 0.43647560607696789 0.69465836192734942 0 0.71933980857756763 I I #
point $-1 -45.855183027231249 -0.12629591816863339 10.998879297720112 #
point $-1 -56.055177465132601 -7.7866032903355382 0.43647560607696789 #
straight-curve $-1 -56.055177465132601 0 10.998879297720112 0 -1 0 I I #
vertex $-1 $367 $504 #
point $-1 -47.917546927430642 -5.597944041144995 4.1744326987201177 #
vertex $-1 $371 $505 #
point $-1 -47.917546927430642 -2.3149551673591802 4.1744326987201177 #
edge $-1 $467 66.76650134785146 $470 74.640723062917786 $376 $506 forward 7 unknown #
vertex $-1 $390 $507 #
straight-curve $-1 49.8784635295697 -0.31619169859890661 10.998879297720109 1 0 0 I I #
edge $-1 $470 -2.5322001384211443 $387 6.9642170180656198 $386 $508 forward 7 unknown #
vertex $-1 $469 $509 #
straight-curve $-1 1.7030004078913237 -0.31619169859890661 101.17858423390189 -0.48480960649040278 0 0.87461971476443456 I I #
point $-1 51.69042525722282 -0.31619169859890661 10.998879297720109 #
point $-1 56.055177465132601 9.1802254578878575 3.1246575826537821 #
straight-curve $-1 56.055177465132601 0 10.998879297720112 0 1 0 I I #
vertex $-1 $393 $510 #
point $-1 52.28585101402966 2.3970703461115939 5.0387534732796464 #
vertex $-1 $397 $511 #
point $-1 52.28585101402966 6.4669634131773499 5.0387534732796464 #
straight-curve $-1 -56.055177465132601 28.604785817338655 0 0 0 -1 I I #
point $-1 -56.055177465132601 -28.604785817338655 -10.998879297720112 #
straight-curve $-1 -56.055177465132601 0 -10.998879297720112 0 1 0 I I #
point $-1 -56.055177465132601 28.604785817338655 -10.998879297720112 #
coedge $-1 $419 $418 $424 $486 reversed $200 $-1 #
vertex $-1 $431 $512 #
straight-curve $-1 0 -28.604785817338655 10.998879297720112 1 0 0 I I #
edge $-1 $484 -10.998879297720112 $487 10.998879297720112 $483 $513 forward 7 unknown #
vertex $-1 $429 $514 #
straight-curve $-1 0 -28.604785817338655 -10.998879297720112 -1 0 0 I I #
straight-curve $-1 -56.055177465132601 0 -10.998879297720112 0 1 0 I I #
straight-curve $-1 -56.055177465132601 0 10.998879297720112 0 -1 0 I I #
straight-curve $-1 0 28.604785817338655 -10.998879297720112 1 0 0 I I #
point $-1 -52.709694802433631 28.604785817338652 -10.998879297720112 #
coedge $-1 $439 $446 $441 $495 reversed $433 $-1 #
straight-curve $-1 -52.709694802433631 28.604785817338655 0 0 0 -1 I I #
edge $-1 $442 52.709694802433631 $448 56.055177465132601 $493 $515 forward 7 unknown #
point $-1 -52.709694802433631 28.604785817338652 10.998879297720112 #
straight-curve $-1 -56.055177465132601 28.604785817338655 0 0 0 -1 I I #
point $-1 -56.055177465132601 28.604785817338655 10.998879297720112 #
point $-1 -56.055177465132601 28.604785817338655 -10.998879297720112 #
straight-curve $-1 -56.055177465132601 -0.12629591816863339 39.157435558514365 0 0 -1 I I #
point $-1 -56.055177465132601 -0.12629591816863339 10.998879297720112 #
straight-curve $-1 -56.055177465132601 -1.9782248021260429 0.43647560607696534 0 -1 0 I I #
point $-1 -56.055177465132601 -0.12629591816863339 0.43647560607696789 #
point $-1 -47.892865480780422 -5.597944041144995 2.7604345282152014 #
point $-1 -47.892865480780422 -2.3149551673591802 2.7604345282152014 #
straight-curve $-1 56.055177465132601 -0.31619169859890661 77.765380645571568 0 0 -1 I I #
point $-1 56.055177465132601 -0.31619169859890661 10.998879297720112 #
straight-curve $-1 56.055177465132601 2.2160084398222377 3.1246575826537892 0 1 0 I I #
point $-1 56.055177465132601 -0.31619169859890661 3.1246575826537821 #
point $-1 50.926421692774824 2.3970703461115939 5.4285635815536777 #
point $-1 50.926421692774824 6.4669634131773499 5.4285635815536777 #
point $-1 -56.055177465132601 -28.604785817338655 10.998879297720112 #
straight-curve $-1 -56.055177465132601 -28.604785817338655 0 0 0 -1 I I #
point $-1 -56.055177465132601 -28.604785817338655 -10.998879297720112 #
straight-curve $-1 0 28.604785817338655 10.998879297720112 -1 0 0 I I #
End-of-ACIS-data 