500 0 10 0           
7 Unknown 11 ACIS 5.0 NT 24 Thu Mar 25 15:35:54 1999 
-1 9.9999999999999995e-007 1e-010 
body $-1 $10 $-1 $11 #
body $-1 $12 $-1 $13 #
body $-1 $14 $-1 $15 #
body $-1 $16 $-1 $17 #
body $-1 $18 $-1 $19 #
body $-1 $20 $-1 $21 #
body $-1 $22 $-1 $23 #
body $-1 $24 $-1 $25 #
body $-1 $26 $-1 $27 #
body $-1 $28 $-1 $29 #
lump $-1 $-1 $30 $0 #
transform $-1 1 0 0 0 1 0 0 0 1 41.839655751213108 28.484854410340805 13.017996606184685 1 rotate no_reflect no_shear #
lump $-1 $-1 $31 $1 #
transform $-1 1 0 0 0 1 0 0 0 1 41.839655751213108 28.484854410340805 13.017996606184685 1 rotate no_reflect no_shear #
lump $-1 $-1 $32 $2 #
transform $-1 1 0 0 0 1 0 0 0 1 41.839655751213108 28.484854410340805 13.017996606184685 1 rotate no_reflect no_shear #
lump $-1 $-1 $33 $3 #
transform $-1 1 0 0 0 1 0 0 0 1 41.839655751213108 28.484854410340805 13.017996606184685 1 rotate no_reflect no_shear #
lump $-1 $-1 $34 $4 #
transform $-1 1 0 0 0 1 0 0 0 1 41.839655751213108 28.484854410340805 13.017996606184685 1 rotate no_reflect no_shear #
lump $-1 $-1 $35 $5 #
transform $-1 1 0 0 0 1 0 0 0 1 41.839655751213108 28.484854410340805 13.017996606184685 1 rotate no_reflect no_shear #
lump $-1 $-1 $36 $6 #
transform $-1 1 0 0 0 1 0 0 0 1 41.839655751213108 28.484854410340805 13.017996606184685 1 rotate no_reflect no_shear #
lump $-1 $-1 $37 $7 #
transform $-1 1 0 0 0 1 0 0 0 1 41.839655751213108 28.484854410340805 13.017996606184685 1 rotate no_reflect no_shear #
lump $-1 $-1 $38 $8 #
transform $-1 1 0 0 0 1 0 0 0 1 41.839655751213108 28.484854410340805 13.017996606184685 1 rotate no_reflect no_shear #
lump $-1 $-1 $39 $9 #
transform $-1 1 0 0 0 1 0 0 0 1 41.839655751213108 28.484854410340805 13.017996606184685 1 rotate no_reflect no_shear #
shell $-1 $-1 $-1 $40 $-1 $10 #
shell $-1 $-1 $-1 $41 $-1 $12 #
shell $-1 $-1 $-1 $42 $-1 $14 #
shell $-1 $-1 $-1 $43 $-1 $16 #
shell $-1 $-1 $-1 $44 $-1 $18 #
shell $-1 $-1 $-1 $45 $-1 $20 #
shell $-1 $-1 $-1 $46 $-1 $22 #
shell $-1 $-1 $-1 $47 $-1 $24 #
shell $-1 $-1 $-1 $48 $-1 $26 #
shell $-1 $-1 $-1 $49 $-1 $28 #
face $-1 $50 $51 $30 $-1 $52 forward single #
face $-1 $53 $54 $31 $-1 $55 forward single #
face $-1 $56 $57 $32 $-1 $58 forward single #
face $-1 $59 $60 $33 $-1 $61 reversed single #
face $-1 $62 $63 $34 $-1 $64 forward single #
face $-1 $65 $66 $35 $-1 $67 forward single #
face $-1 $68 $69 $36 $-1 $70 forward single #
face $-1 $71 $72 $37 $-1 $73 reversed single #
face $-1 $74 $75 $38 $-1 $76 forward single #
face $-1 $77 $78 $39 $-1 $79 forward single #
face $-1 $80 $81 $30 $-1 $82 reversed single #
loop $-1 $-1 $83 $40 #
plane-surface $-1 0 0 13.017996606184685 0 0 1 1 0 0 forward_v I I I I #
face $-1 $84 $85 $31 $-1 $86 reversed single #
loop $-1 $-1 $87 $41 #
plane-surface $-1 -36.805854264986962 0 10.148251915096342 0 0 1 1 0 0 forward_v I I I I #
face $-1 $88 $89 $32 $-1 $90 reversed single #
loop $-1 $-1 $91 $42 #
plane-surface $-1 41.839655751213108 0 0 -1 0 0 0 0 1 forward_v I I I I #
face $-1 $92 $93 $33 $-1 $94 reversed single #
loop $-1 $-1 $95 $43 #
plane-surface $-1 -3.4790045636683615 52.550527162536341 100.62733738270228 1 0 0 0 -0.74314483375859142 -0.66913059716165679 forward_v I I I I #
face $-1 $96 $97 $34 $-1 $98 forward single #
loop $-1 $99 $100 $44 #
cone-surface $-1 -0.58821954296400492 22.592327727365642 6.6978604735477205 0 -0.74314483375859142 -0.66913059716165679 1 0 0 1 I I 0 1 1 forward I I I I #
face $-1 $101 $102 $35 $-1 $103 forward single #
loop $-1 $104 $105 $45 #
cone-surface $-1 3.7479579880925229 22.592327727365642 6.6978604735477205 0 -0.74314483375859142 -0.66913059716165679 1 0 0 1 I I 0 1 1 forward I I I I #
face $-1 $106 $107 $36 $-1 $108 forward single #
loop $-1 $109 $110 $46 #
cone-surface $-1 8.0841355191490507 22.592327727365642 6.6978604735477205 0 -0.74314483375859142 -0.66913059716165679 1 0 0 1 I I 0 1 1 forward I I I I #
face $-1 $111 $112 $37 $-1 $113 reversed single #
loop $-1 $-1 $114 $47 #
plane-surface $-1 6.5251050741510035 -91.638433161249907 55.717323573626913 -1 0 0 0 -0.75470958851134928 0.65605901945558964 forward_v I I I I #
face $-1 $115 $116 $38 $-1 $117 forward single #
loop $-1 $118 $119 $48 #
cone-surface $-1 -5.946847437727584 -20.210891204115836 4.3351654476139814 0 0.75470958851134928 -0.65605901945558964 2 0 0 1 I I 0 1 2 forward I I I I #
face $-1 $120 $121 $39 $-1 $122 forward single #
loop $-1 $123 $124 $49 #
cone-surface $-1 1.5363240693995692 -20.210891204115836 4.3351654476139814 0 0.75470958851134928 -0.65605901945558964 2 0 0 1 I I 0 1 2 forward I I I I #
face $-1 $125 $126 $30 $-1 $127 reversed single #
loop $-1 $-1 $128 $50 #
plane-surface $-1 0 0 -13.017996606184685 0 0 1 1 0 0 forward_v I I I I #
coedge $-1 $129 $130 $131 $132 forward $51 $-1 #
face $-1 $133 $134 $31 $-1 $135 reversed single #
loop $-1 $-1 $136 $53 #
plane-surface $-1 -36.805854264986962 0 7.1482519150963419 0 0 1 1 0 0 forward_v I I I I #
coedge $-1 $137 $138 $139 $140 forward $54 $-1 #
face $-1 $141 $142 $32 $-1 $143 forward single #
loop $-1 $-1 $144 $56 #
plane-surface $-1 0 28.484854410340805 0 0 -1 0 0 0 -1 forward_v I I I I #
coedge $-1 $145 $146 $147 $148 forward $57 $-1 #
face $-1 $149 $150 $33 $-1 $151 reversed single #
loop $-1 $-1 $152 $59 #
plane-surface $-1 3.7479579880925229 -9.6353208729675757 44.634949707007529 0 0.74314483375859142 0.66913059716165679 1 0 0 forward_v I I I I #
coedge $-1 $153 $154 $155 $156 reversed $60 $-1 #
face $-1 $-1 $157 $34 $-1 $158 forward single #
loop $-1 $159 $160 $62 #
cone-surface $-1 -0.58821954296400492 21.154300403250001 5.4030548873289028 0 -0.74314483375859142 -0.66913059716165679 0.5 0 0 1 I I -0.70710678118654746 0.70710678118654746 0.5 forward I I I I #
loop $-1 $-1 $161 $44 #
coedge $-1 $100 $100 $162 $163 reversed $63 $-1 #
face $-1 $-1 $164 $35 $-1 $165 forward single #
loop $-1 $166 $167 $65 #
cone-surface $-1 3.7479579880925229 21.154300403250001 5.4030548873289028 0 -0.74314483375859142 -0.66913059716165679 0.5 0 0 1 I I -0.70710678118654746 0.70710678118654746 0.5 forward I I I I #
loop $-1 $-1 $168 $45 #
coedge $-1 $105 $105 $169 $170 reversed $66 $-1 #
face $-1 $-1 $171 $36 $-1 $172 forward single #
loop $-1 $173 $174 $68 #
cone-surface $-1 8.0841355191490507 21.154300403250001 5.4030548873289028 0 -0.74314483375859142 -0.66913059716165679 0.5 0 0 1 I I -0.70710678118654746 0.70710678118654746 0.5 forward I I I I #
loop $-1 $-1 $175 $46 #
coedge $-1 $110 $110 $176 $177 reversed $69 $-1 #
face $-1 $178 $179 $37 $-1 $180 reversed single #
loop $-1 $-1 $181 $71 #
plane-surface $-1 -2.2052616841640074 -28.484854410340802 0.81875652062632298 0 -0.75470958851134928 0.65605901945558964 1 0 0 forward_v I I I I #
coedge $-1 $182 $183 $184 $185 reversed $72 $-1 #
face $-1 $-1 $186 $38 $-1 $187 forward single #
loop $-1 $188 $189 $74 #
cone-surface $-1 -5.946847437727584 -16.484537082991011 1.0958953123668724 0 0.75470958851134928 -0.65605901945558964 1 0 0 1 I I -0.70710678118654746 0.70710678118654746 1 forward I I I I #
loop $-1 $-1 $190 $48 #
coedge $-1 $119 $119 $191 $192 reversed $75 $-1 #
face $-1 $-1 $193 $39 $-1 $194 forward single #
loop $-1 $195 $196 $77 #
cone-surface $-1 1.5363240693995692 -16.484537082991011 1.0958953123668724 0 0.75470958851134928 -0.65605901945558964 1 0 0 1 I I -0.70710678118654746 0.70710678118654746 1 forward I I I I #
loop $-1 $-1 $197 $49 #
coedge $-1 $124 $124 $198 $199 reversed $78 $-1 #
face $-1 $200 $201 $30 $-1 $202 reversed single #
loop $-1 $-1 $203 $80 #
plane-surface $-1 0 -28.484854410340805 0 0 1 0 0 0 1 forward_v I I I I #
coedge $-1 $204 $205 $206 $207 forward $81 $-1 #
coedge $-1 $208 $83 $209 $210 forward $51 $-1 #
coedge $-1 $83 $208 $211 $212 forward $51 $-1 #
coedge $-1 $213 $214 $83 $132 reversed $215 $-1 #
edge $-1 $216 -28.484854410340805 $217 28.484854410340805 $131 $218 forward 7 unknown #
face $-1 $219 $220 $31 $-1 $221 reversed single #
loop $-1 $-1 $222 $84 #
plane-surface $-1 -31.772052778760816 0 8.6482519150963419 -1 0 0 0 0 1 forward_v I I I I #
coedge $-1 $223 $224 $225 $226 forward $85 $-1 #
coedge $-1 $227 $87 $228 $229 reversed $54 $-1 #
coedge $-1 $87 $227 $230 $231 reversed $54 $-1 #
coedge $-1 $222 $232 $87 $140 reversed $134 $-1 #
edge $-1 $233 -28.484854410340805 $234 28.484854410340805 $139 $235 forward 7 unknown #
face $-1 $236 $237 $32 $-1 $238 reversed single #
loop $-1 $-1 $239 $88 #
plane-surface $-1 49.29746962652208 0 -2.916988536087175 0 0 1 1 0 0 forward_v I I I I #
coedge $-1 $240 $241 $146 $242 forward $89 $-1 #
coedge $-1 $243 $91 $244 $245 reversed $57 $-1 #
coedge $-1 $91 $243 $144 $242 reversed $57 $-1 #
coedge $-1 $246 $247 $91 $148 reversed $237 $-1 #
edge $-1 $248 -28.484854410340805 $249 28.484854410340805 $147 $250 forward 7 unknown #
face $-1 $251 $252 $33 $-1 $253 reversed single #
loop $-1 $-1 $254 $92 #
plane-surface $-1 10.974920539853407 52.550527162536341 100.62733738270228 -1 0 0 0 0.74314483375859142 0.66913059716165679 forward_v I I I I #
coedge $-1 $255 $256 $257 $258 reversed $93 $-1 #
coedge $-1 $154 $95 $259 $260 reversed $60 $-1 #
coedge $-1 $95 $153 $255 $261 reversed $60 $-1 #
coedge $-1 $257 $262 $95 $156 forward $263 $-1 #
edge $-1 $264 -2.2095908290726349 $265 7.4425527224049723 $155 $266 forward 7 unknown #
loop $-1 $-1 $162 $96 #
plane-surface $-1 3.7479579880925229 -9.6353208729675757 44.634949707007529 0 0.74314483375859142 0.66913059716165679 1 0 0 forward_v I I I I #
loop $-1 $-1 $267 $62 #
coedge $-1 $160 $160 $161 $268 reversed $97 $-1 #
coedge $-1 $161 $161 $160 $268 forward $99 $-1 #
coedge $-1 $162 $162 $100 $163 forward $157 $-1 #
edge $-1 $269 5.2590278156781236e-016 $269 6.2831853071796013 $162 $270 forward 7 unknown #
loop $-1 $-1 $169 $101 #
plane-surface $-1 3.7479579880925229 -9.6353208729675757 44.634949707007529 0 0.74314483375859142 0.66913059716165679 1 0 0 forward_v I I I I #
loop $-1 $-1 $271 $65 #
coedge $-1 $167 $167 $168 $272 reversed $102 $-1 #
coedge $-1 $168 $168 $167 $272 forward $104 $-1 #
coedge $-1 $169 $169 $105 $170 forward $164 $-1 #
edge $-1 $273 5.2590278156781236e-016 $273 6.2831853071796013 $169 $274 forward 7 unknown #
loop $-1 $-1 $176 $106 #
plane-surface $-1 3.7479579880925229 -9.6353208729675757 44.634949707007529 0 0.74314483375859142 0.66913059716165679 1 0 0 forward_v I I I I #
loop $-1 $-1 $275 $68 #
coedge $-1 $174 $174 $175 $276 reversed $107 $-1 #
coedge $-1 $175 $175 $174 $276 forward $109 $-1 #
coedge $-1 $176 $176 $110 $177 forward $171 $-1 #
edge $-1 $277 5.2590278156781236e-016 $277 6.2831853071796013 $176 $278 forward 7 unknown #
face $-1 $279 $280 $37 $-1 $281 forward single #
loop $-1 $-1 $282 $111 #
plane-surface $-1 -10.935628442479018 -91.638433161249907 55.717323573626913 1 0 0 0 0.75470958851134928 -0.65605901945558964 forward_v I I I I #
coedge $-1 $283 $284 $285 $286 reversed $112 $-1 #
coedge $-1 $183 $114 $287 $288 reversed $72 $-1 #
coedge $-1 $114 $182 $283 $289 reversed $72 $-1 #
coedge $-1 $285 $290 $114 $185 forward $280 $-1 #
edge $-1 $291 17.334362170284148 $292 27.938999517507135 $184 $293 forward 7 unknown #
loop $-1 $-1 $191 $115 #
plane-surface $-1 -2.2052616841640074 -28.484854410340802 0.81875652062632298 0 -0.75470958851134928 0.65605901945558964 1 0 0 forward_v I I I I #
loop $-1 $-1 $294 $74 #
coedge $-1 $189 $189 $190 $295 reversed $116 $-1 #
coedge $-1 $190 $190 $189 $295 forward $118 $-1 #
coedge $-1 $191 $191 $119 $192 forward $186 $-1 #
edge $-1 $296 -3.35158384828271e-016 $296 6.2831853071796004 $191 $297 forward 7 unknown #
loop $-1 $-1 $198 $120 #
plane-surface $-1 -2.2052616841640074 -28.484854410340802 0.81875652062632298 0 -0.75470958851134928 0.65605901945558964 1 0 0 forward_v I I I I #
loop $-1 $-1 $298 $77 #
coedge $-1 $196 $196 $197 $299 reversed $121 $-1 #
coedge $-1 $197 $197 $196 $299 forward $123 $-1 #
coedge $-1 $198 $198 $124 $199 forward $193 $-1 #
edge $-1 $300 -3.35158384828271e-016 $300 6.2831853071796004 $198 $301 forward 7 unknown #
face $-1 $302 $303 $30 $-1 $304 reversed single #
loop $-1 $-1 $305 $125 #
plane-surface $-1 -41.839655751213108 0 0 1 0 0 0 0 -1 forward_v I I I I #
coedge $-1 $306 $211 $307 $308 forward $126 $-1 #
coedge $-1 $309 $128 $306 $310 forward $81 $-1 #
coedge $-1 $128 $309 $311 $312 forward $81 $-1 #
coedge $-1 $214 $213 $128 $207 reversed $215 $-1 #
edge $-1 $313 -28.484854410340805 $314 28.484854410340805 $206 $315 forward 7 unknown #
coedge $-1 $130 $129 $316 $317 forward $51 $-1 #
coedge $-1 $318 $319 $129 $210 reversed $303 $-1 #
edge $-1 $217 -41.839655751213108 $320 41.839655751213108 $209 $321 forward 7 unknown #
coedge $-1 $203 $322 $130 $212 reversed $126 $-1 #
edge $-1 $323 -41.839655751213108 $216 41.839655751213108 $211 $324 forward 7 unknown #
coedge $-1 $206 $131 $322 $325 forward $215 $-1 #
coedge $-1 $131 $206 $318 $326 reversed $215 $-1 #
loop $-1 $-1 $213 $302 #
vertex $-1 $132 $327 #
vertex $-1 $132 $328 #
straight-curve $-1 41.839655751213108 0 13.017996606184685 0 1 0 I I #
face $-1 $329 $330 $31 $-1 $331 reversed single #
loop $-1 $-1 $332 $133 #
plane-surface $-1 0 -28.484854410340805 0 0 1 0 0 0 1 forward_v I I I I #
coedge $-1 $225 $139 $333 $334 reversed $134 $-1 #
coedge $-1 $335 $136 $332 $336 reversed $85 $-1 #
coedge $-1 $136 $335 $337 $338 reversed $85 $-1 #
coedge $-1 $232 $222 $136 $226 reversed $134 $-1 #
edge $-1 $339 -28.484854410340805 $340 28.484854410340805 $225 $341 forward 7 unknown #
coedge $-1 $138 $137 $342 $343 reversed $54 $-1 #
coedge $-1 $344 $345 $137 $229 forward $346 $-1 #
edge $-1 $347 -23.436728618719627 $234 -13.369125646267335 $228 $348 forward 7 unknown #
coedge $-1 $349 $333 $138 $231 forward $220 $-1 #
edge $-1 $233 13.369125646267335 $350 23.436728618719627 $230 $351 forward 7 unknown #
coedge $-1 $139 $225 $344 $352 reversed $134 $-1 #
vertex $-1 $231 $353 #
vertex $-1 $229 $354 #
straight-curve $-1 -31.772052778760816 0 10.148251915096342 0 1 0 I I #
face $-1 $355 $356 $32 $-1 $357 reversed single #
loop $-1 $-1 $358 $141 #
plane-surface $-1 49.29746962652208 0 -9.3088260615934146 0 0 1 1 0 0 forward_v I I I I #
coedge $-1 $359 $360 $361 $362 forward $142 $-1 #
coedge $-1 $363 $144 $359 $364 reversed $89 $-1 #
coedge $-1 $144 $363 $246 $365 reversed $89 $-1 #
edge $-1 $248 -9.3088260615934146 $366 -2.916988536087175 $144 $367 forward 7 unknown #
coedge $-1 $146 $145 $368 $369 forward $57 $-1 #
coedge $-1 $370 $371 $145 $245 forward $372 $-1 #
edge $-1 $373 2.916988536087175 $249 9.3088260615934146 $244 $374 forward 7 unknown #
coedge $-1 $358 $147 $241 $365 forward $237 $-1 #
coedge $-1 $147 $358 $370 $375 forward $237 $-1 #
vertex $-1 $242 $376 #
vertex $-1 $245 $377 #
straight-curve $-1 41.839655751213108 0 -9.3088260615934146 0 -1 0 I I #
face $-1 $-1 $263 $33 $-1 $378 forward single #
loop $-1 $-1 $379 $149 #
plane-surface $-1 0 28.484854410340805 0 0 -1 0 0 0 -1 forward_v I I I I #
coedge $-1 $380 $381 $382 $383 reversed $150 $-1 #
coedge $-1 $384 $152 $154 $261 forward $93 $-1 #
coedge $-1 $152 $384 $380 $385 forward $93 $-1 #
coedge $-1 $382 $155 $152 $258 forward $263 $-1 #
edge $-1 $265 -5.352983557714623 $386 9.1009415458071459 $257 $387 forward 7 unknown #
coedge $-1 $388 $389 $153 $260 forward $252 $-1 #
edge $-1 $390 -48.015463775164392 $264 -37.295672085166458 $259 $391 forward 7 unknown #
edge $-1 $265 42.544806428801095 $390 56.969708820681589 $154 $392 forward 7 unknown #
coedge $-1 $155 $382 $388 $393 forward $263 $-1 #
loop $-1 $-1 $382 $251 #
vertex $-1 $260 $394 #
vertex $-1 $156 $395 #
straight-curve $-1 -3.4790045636683615 26.27526358126817 13.017996606184681 0 -1 0 I I #
coedge $-1 $267 $267 $-1 $396 reversed $159 $-1 #
edge $-1 $397 0 $397 6.2831853071796004 $160 $398 forward 7 unknown #
vertex $-1 $163 $399 #
ellipse-curve $-1 -0.58821954296400492 23.658782634601998 7.6581007611857181 0 0.74314483375859142 0.66913059716165679 1 0 0 1 I I #
coedge $-1 $271 $271 $-1 $400 reversed $166 $-1 #
edge $-1 $401 0 $401 6.2831853071796004 $167 $402 forward 7 unknown #
vertex $-1 $170 $403 #
ellipse-curve $-1 3.7479579880925229 23.658782634601998 7.6581007611857181 0 0.74314483375859142 0.66913059716165679 1 0 0 1 I I #
coedge $-1 $275 $275 $-1 $404 reversed $173 $-1 #
edge $-1 $405 0 $405 6.2831853071796004 $174 $406 forward 7 unknown #
vertex $-1 $177 $407 #
ellipse-curve $-1 8.0841355191490507 23.658782634601998 7.6581007611857181 0 0.74314483375859142 0.66913059716165679 1 0 0 1 I I #
face $-1 $-1 $408 $37 $-1 $409 reversed single #
loop $-1 $-1 $184 $178 #
plane-surface $-1 0 0 13.017996606184685 0 0 1 1 0 0 forward_v I I I I #
coedge $-1 $410 $411 $412 $413 reversed $179 $-1 #
coedge $-1 $414 $181 $183 $289 forward $112 $-1 #
coedge $-1 $181 $414 $410 $415 forward $112 $-1 #
coedge $-1 $412 $184 $181 $286 forward $280 $-1 #
edge $-1 $292 -7.6277359162330072 $416 9.8329976003970145 $285 $417 forward 7 unknown #
coedge $-1 $418 $419 $182 $288 forward $408 $-1 #
edge $-1 $420 -27.039905266187137 $291 -14.840665180628772 $287 $421 forward 7 unknown #
edge $-1 $292 -16.164151444824149 $420 5.4310049121818252e-015 $183 $422 forward 7 unknown #
coedge $-1 $184 $412 $418 $423 forward $280 $-1 #
vertex $-1 $185 $424 #
vertex $-1 $185 $425 #
straight-curve $-1 6.5251050741510035 -45.819216580624953 13.017996606184685 0 1 0 I I #
coedge $-1 $294 $294 $-1 $426 reversed $188 $-1 #
edge $-1 $427 0 $427 6.2831853071796004 $189 $428 forward 7 unknown #
vertex $-1 $192 $429 #
ellipse-curve $-1 -5.946847437727584 -23.182535736729314 6.9183765634055021 0 -0.75470958851134928 0.65605901945558964 2 0 0 1 I I #
coedge $-1 $298 $298 $-1 $430 reversed $195 $-1 #
edge $-1 $431 0 $431 6.2831853071796004 $196 $432 forward 7 unknown #
vertex $-1 $199 $433 #
ellipse-curve $-1 1.5363240693995692 -23.182535736729314 6.9183765634055021 0 -0.75470958851134928 0.65605901945558964 2 0 0 1 I I #
face $-1 $-1 $215 $30 $-1 $434 reversed single #
loop $-1 $-1 $318 $200 #
plane-surface $-1 0 28.484854410340805 0 0 -1 0 0 0 -1 forward_v I I I I #
coedge $-1 $435 $316 $319 $436 forward $201 $-1 #
coedge $-1 $322 $203 $204 $310 reversed $126 $-1 #
coedge $-1 $316 $435 $203 $308 reversed $201 $-1 #
edge $-1 $323 -13.017996606184685 $437 13.017996606184685 $307 $438 forward 7 unknown #
coedge $-1 $205 $204 $435 $439 forward $81 $-1 #
edge $-1 $314 -41.839655751213108 $437 41.839655751213108 $306 $440 forward 7 unknown #
coedge $-1 $319 $318 $205 $312 reversed $303 $-1 #
edge $-1 $441 -41.839655751213108 $313 41.839655751213108 $311 $442 forward 7 unknown #
vertex $-1 $207 $443 #
vertex $-1 $325 $444 #
straight-curve $-1 41.839655751213108 0 -13.017996606184685 0 -1 0 I I #
coedge $-1 $305 $307 $208 $317 reversed $201 $-1 #
edge $-1 $320 -28.484854410340805 $323 28.484854410340805 $316 $445 forward 7 unknown #
coedge $-1 $311 $209 $214 $326 forward $303 $-1 #
coedge $-1 $209 $311 $305 $436 reversed $303 $-1 #
vertex $-1 $210 $446 #
straight-curve $-1 0 28.484854410340805 13.017996606184685 -1 0 0 I I #
coedge $-1 $211 $306 $213 $325 reversed $126 $-1 #
vertex $-1 $317 $447 #
straight-curve $-1 0 -28.484854410340805 13.017996606184685 1 0 0 I I #
edge $-1 $216 -13.017996606184685 $314 13.017996606184685 $213 $448 forward 7 unknown #
edge $-1 $217 -13.017996606184685 $313 13.017996606184685 $214 $449 forward 7 unknown #
point $-1 41.839655751213108 -28.484854410340805 13.017996606184685 #
point $-1 41.839655751213108 28.484854410340805 13.017996606184685 #
face $-1 $-1 $346 $31 $-1 $450 reversed single #
loop $-1 $-1 $451 $219 #
plane-surface $-1 -41.839655751213108 0 0 1 0 0 0 0 -1 forward_v I I I I #
coedge $-1 $333 $349 $223 $336 forward $220 $-1 #
coedge $-1 $230 $332 $222 $334 forward $220 $-1 #
edge $-1 $340 2.824125957548171 $233 5.824125957548171 $333 $452 forward 7 unknown #
coedge $-1 $224 $223 $451 $453 reversed $85 $-1 #
edge $-1 $454 -23.436728618719627 $340 -13.369125646267335 $332 $455 forward 7 unknown #
coedge $-1 $345 $344 $224 $338 forward $346 $-1 #
edge $-1 $339 13.369125646267335 $456 23.436728618719627 $337 $457 forward 7 unknown #
vertex $-1 $338 $458 #
vertex $-1 $336 $459 #
straight-curve $-1 -31.772052778760816 0 7.1482519150963419 0 -1 0 I I #
coedge $-1 $460 $461 $227 $343 forward $330 $-1 #
edge $-1 $350 -28.484854410340805 $347 28.484854410340805 $342 $462 forward 7 unknown #
coedge $-1 $337 $228 $232 $352 forward $346 $-1 #
coedge $-1 $228 $337 $460 $463 reversed $346 $-1 #
loop $-1 $-1 $337 $329 #
vertex $-1 $463 $464 #
straight-curve $-1 -18.402927132493481 28.484854410340805 10.148251915096342 1 0 0 I I #
coedge $-1 $332 $230 $461 $465 forward $220 $-1 #
vertex $-1 $465 $466 #
straight-curve $-1 -18.402927132493481 -28.484854410340805 10.148251915096342 -1 0 0 I I #
edge $-1 $234 -5.824125957548171 $339 -2.824125957548171 $344 $467 forward 7 unknown #
point $-1 -31.772052778760816 -28.484854410340805 10.148251915096342 #
point $-1 -31.772052778760816 28.484854410340805 10.148251915096342 #
face $-1 $-1 $372 $32 $-1 $468 reversed single #
loop $-1 $-1 $469 $236 #
plane-surface $-1 56.755283501831052 0 -6.1129072988402946 -1 0 0 0 0 1 forward_v I I I I #
coedge $-1 $247 $246 $470 $471 forward $237 $-1 #
coedge $-1 $368 $239 $240 $364 forward $142 $-1 #
coedge $-1 $239 $368 $371 $472 forward $142 $-1 #
coedge $-1 $469 $473 $239 $362 reversed $356 $-1 #
edge $-1 $474 -28.484854410340805 $475 28.484854410340805 $361 $476 forward 7 unknown #
coedge $-1 $241 $240 $473 $477 forward $89 $-1 #
edge $-1 $475 -7.4578138753089718 $366 7.4578138753089718 $240 $478 forward 7 unknown #
edge $-1 $248 -7.4578138753089718 $479 7.4578138753089718 $241 $480 forward 7 unknown #
vertex $-1 $364 $481 #
straight-curve $-1 41.839655751213108 28.484854410340805 0 0 0 1 I I #
coedge $-1 $360 $359 $243 $369 reversed $142 $-1 #
edge $-1 $373 -28.484854410340805 $366 28.484854410340805 $368 $482 forward 7 unknown #
coedge $-1 $483 $244 $247 $375 reversed $372 $-1 #
coedge $-1 $244 $483 $360 $472 reversed $372 $-1 #
loop $-1 $-1 $244 $355 #
vertex $-1 $245 $484 #
straight-curve $-1 41.839655751213108 -28.484854410340805 0 0 0 -1 I I #
edge $-1 $485 -7.4578138753089718 $249 7.4578138753089718 $370 $486 forward 7 unknown #
point $-1 41.839655751213108 28.484854410340805 -9.3088260615934146 #
point $-1 41.839655751213108 -28.484854410340805 -9.3088260615934146 #
plane-surface $-1 0 0 13.017996606184685 0 0 1 1 0 0 forward_v I I I I #
coedge $-1 $389 $388 $381 $487 forward $252 $-1 #
coedge $-1 $381 $254 $256 $385 reversed $150 $-1 #
coedge $-1 $254 $380 $379 $487 reversed $150 $-1 #
coedge $-1 $262 $257 $254 $383 forward $263 $-1 #
edge $-1 $386 -7.4425527224049723 $488 2.2095908290726349 $382 $489 forward 7 unknown #
coedge $-1 $256 $255 $389 $490 reversed $93 $-1 #
edge $-1 $491 -56.969708820681589 $386 -42.544806428801095 $380 $492 forward 7 unknown #
vertex $-1 $258 $493 #
straight-curve $-1 1.8739789940462614 18.832710858863198 13.017996606184685 1 0 0 I I #
coedge $-1 $379 $259 $262 $393 reversed $252 $-1 #
coedge $-1 $259 $379 $384 $490 forward $252 $-1 #
vertex $-1 $260 $494 #
straight-curve $-1 -3.4790045636683615 28.484854410340805 50.31366869135114 0 0 1 I I #
straight-curve $-1 -3.4790045636683615 -9.6353208729675757 44.634949707007529 0 0.66913059716165679 -0.74314483375859142 I I #
edge $-1 $488 -10.974920539853407 $264 3.4790045636683615 $388 $495 forward 7 unknown #
point $-1 -3.4790045636683615 28.484854410340805 13.017996606184685 #
point $-1 -3.4790045636683615 18.832710858863198 13.017996606184688 #
edge $-1 $496 1 $496 0 $267 $-1 forward 7 unknown #
vertex $-1 $268 $497 #
ellipse-curve $-1 -0.58821954296400492 21.525872820129297 5.7376201859097309 0 0.74314483375859142 0.66913059716165679 1 0 0 1 I I #
point $-1 0.41178045703599508 23.658782634601991 7.658100761185711 #
edge $-1 $498 1 $498 0 $271 $-1 forward 7 unknown #
vertex $-1 $272 $499 #
ellipse-curve $-1 3.7479579880925229 21.525872820129297 5.7376201859097309 0 0.74314483375859142 0.66913059716165679 1 0 0 1 I I #
point $-1 4.7479579880925229 23.658782634601991 7.658100761185711 #
edge $-1 $500 1 $500 0 $275 $-1 forward 7 unknown #
vertex $-1 $276 $501 #
ellipse-curve $-1 8.0841355191490507 21.525872820129297 5.7376201859097309 0 0.74314483375859142 0.66913059716165679 1 0 0 1 I I #
point $-1 9.0841355191490507 23.658782634601991 7.658100761185711 #
loop $-1 $-1 $287 $279 #
plane-surface $-1 0 -28.484854410340805 0 0 1 0 0 0 1 forward_v I I I I #
coedge $-1 $411 $282 $284 $415 reversed $179 $-1 #
coedge $-1 $282 $410 $502 $503 reversed $179 $-1 #
coedge $-1 $290 $285 $282 $413 forward $280 $-1 #
edge $-1 $416 -27.938999517507135 $504 -17.334362170284148 $412 $505 forward 7 unknown #
coedge $-1 $284 $283 $419 $506 reversed $112 $-1 #
edge $-1 $507 -5.4310049121818252e-015 $416 16.164151444824149 $410 $508 forward 7 unknown #
vertex $-1 $286 $509 #
straight-curve $-1 -1.1026308420820037 -17.880217063117819 13.017996606184685 -1 0 0 I I #
coedge $-1 $502 $287 $290 $423 reversed $408 $-1 #
coedge $-1 $287 $502 $414 $506 forward $408 $-1 #
vertex $-1 $288 $510 #
straight-curve $-1 6.5251050741510035 -28.484854410340805 27.858661786813457 0 0 1 I I #
straight-curve $-1 6.5251050741510035 -28.484854410340802 0.81875652062632298 0 -0.65605901945558964 -0.75470958851134928 I I #
edge $-1 $504 -10.935628442479018 $291 6.5251050741510035 $418 $511 forward 7 unknown #
point $-1 6.5251050741510035 -28.484854410340805 13.017996606184685 #
point $-1 6.5251050741510035 -17.880217063117819 13.017996606184685 #
edge $-1 $512 1 $512 0 $294 $-1 forward 7 unknown #
vertex $-1 $295 $513 #
ellipse-curve $-1 -5.946847437727584 -17.239246671502361 1.751954331822462 0 -0.75470958851134928 0.65605901945558964 2 0 0 1 I I #
point $-1 -3.946847437727584 -23.182535736729314 6.9183765634055012 #
edge $-1 $514 1 $514 0 $298 $-1 forward 7 unknown #
vertex $-1 $299 $515 #
ellipse-curve $-1 1.5363240693995692 -17.239246671502361 1.751954331822462 0 -0.75470958851134928 0.65605901945558964 2 0 0 1 I I #
point $-1 3.5363240693995692 -23.182535736729314 6.9183765634055012 #
plane-surface $-1 41.839655751213108 0 0 -1 0 0 0 0 1 forward_v I I I I #
coedge $-1 $307 $305 $309 $439 reversed $201 $-1 #
edge $-1 $320 -13.017996606184685 $441 13.017996606184685 $319 $516 forward 7 unknown #
vertex $-1 $439 $517 #
straight-curve $-1 -41.839655751213108 -28.484854410340805 0 0 0 -1 I I #
edge $-1 $437 -28.484854410340805 $441 28.484854410340805 $435 $518 forward 7 unknown #
straight-curve $-1 0 -28.484854410340805 -13.017996606184685 -1 0 0 I I #
vertex $-1 $312 $519 #
straight-curve $-1 0 28.484854410340805 -13.017996606184685 1 0 0 I I #
point $-1 41.839655751213108 28.484854410340805 -13.017996606184685 #
point $-1 41.839655751213108 -28.484854410340805 -13.017996606184685 #
straight-curve $-1 -41.839655751213108 0 13.017996606184685 0 -1 0 I I #
point $-1 -41.839655751213108 28.484854410340805 13.017996606184685 #
point $-1 -41.839655751213108 -28.484854410340805 13.017996606184685 #
straight-curve $-1 41.839655751213108 -28.484854410340805 0 0 0 -1 I I #
straight-curve $-1 41.839655751213108 28.484854410340805 0 0 0 -1 I I #
plane-surface $-1 0 28.484854410340805 0 0 -1 0 0 0 -1 forward_v I I I I #
coedge $-1 $461 $460 $335 $453 forward $330 $-1 #
straight-curve $-1 -31.772052778760816 -28.484854410340805 4.324125957548171 0 0 1 I I #
edge $-1 $456 -28.484854410340805 $454 28.484854410340805 $451 $520 forward 7 unknown #
vertex $-1 $336 $521 #
straight-curve $-1 -18.402927132493481 -28.484854410340805 7.1482519150963419 1 0 0 I I #
vertex $-1 $338 $522 #
straight-curve $-1 -18.402927132493481 28.484854410340805 7.1482519150963419 -1 0 0 I I #
point $-1 -31.772052778760816 28.484854410340805 7.1482519150963419 #
point $-1 -31.772052778760816 -28.484854410340805 7.1482519150963419 #
coedge $-1 $451 $342 $345 $463 forward $330 $-1 #
coedge $-1 $342 $451 $349 $465 reversed $330 $-1 #
straight-curve $-1 -41.839655751213108 0 10.148251915096342 0 1 0 I I #
edge $-1 $347 -10.148251915096342 $456 -7.1482519150963419 $345 $523 forward 7 unknown #
point $-1 -41.839655751213108 28.484854410340805 10.148251915096342 #
edge $-1 $350 -10.148251915096342 $454 -7.1482519150963419 $461 $524 forward 7 unknown #
point $-1 -41.839655751213108 -28.484854410340805 10.148251915096342 #
straight-curve $-1 -31.772052778760816 28.484854410340805 4.324125957548171 0 0 -1 I I #
plane-surface $-1 0 -28.484854410340805 0 0 1 0 0 0 1 forward_v I I I I #
coedge $-1 $470 $361 $483 $525 forward $356 $-1 #
coedge $-1 $473 $469 $358 $471 reversed $356 $-1 #
edge $-1 $479 -28.484854410340805 $485 28.484854410340805 $470 $526 forward 7 unknown #
edge $-1 $373 -7.4578138753089718 $474 7.4578138753089718 $371 $527 forward 7 unknown #
coedge $-1 $361 $470 $363 $477 reversed $356 $-1 #
vertex $-1 $362 $528 #
vertex $-1 $362 $529 #
straight-curve $-1 56.755283501831052 0 -2.916988536087175 0 1 0 I I #
edge $-1 $475 -3.1959187627531196 $479 3.19591876275312 $473 $530 forward 7 unknown #
straight-curve $-1 49.29746962652208 28.484854410340805 -2.916988536087175 -1 0 0 I I #
vertex $-1 $471 $531 #
straight-curve $-1 49.29746962652208 28.484854410340805 -9.3088260615934146 1 0 0 I I #
point $-1 41.839655751213108 28.484854410340805 -2.916988536087175 #
straight-curve $-1 41.839655751213108 0 -2.916988536087175 0 1 0 I I #
coedge $-1 $371 $370 $469 $525 reversed $372 $-1 #
point $-1 41.839655751213108 -28.484854410340805 -2.916988536087175 #
vertex $-1 $525 $532 #
straight-curve $-1 49.29746962652208 -28.484854410340805 -9.3088260615934146 -1 0 0 I I #
edge $-1 $488 37.295672085166458 $491 48.015463775164392 $379 $533 forward 7 unknown #
vertex $-1 $393 $534 #
straight-curve $-1 10.974920539853407 26.27526358126817 13.017996606184681 0 1 0 I I #
edge $-1 $491 -9.1009415458071459 $390 5.352983557714623 $389 $535 forward 7 unknown #
vertex $-1 $490 $536 #
straight-curve $-1 10.974920539853407 -9.6353208729675757 44.634949707007529 0 -0.66913059716165679 0.74314483375859142 I I #
point $-1 10.974920539853407 18.832710858863198 13.017996606184688 #
point $-1 -3.4790045636683615 28.484854410340809 2.2982049161867479 #
straight-curve $-1 0 28.484854410340805 13.017996606184685 -1 0 0 I I #
vertex $-1 $396 $537 #
point $-1 0.41178045703599508 21.525872820129297 5.7376201859097309 #
vertex $-1 $400 $538 #
point $-1 4.7479579880925229 21.525872820129297 5.7376201859097309 #
vertex $-1 $404 $539 #
point $-1 9.0841355191490507 21.525872820129297 5.7376201859097309 #
coedge $-1 $419 $418 $411 $503 forward $408 $-1 #
edge $-1 $504 14.840665180628772 $507 27.039905266187137 $502 $540 forward 7 unknown #
vertex $-1 $423 $541 #
straight-curve $-1 -10.935628442479018 -45.819216580624953 13.017996606184685 0 -1 0 I I #
edge $-1 $507 -9.8329976003970145 $420 7.6277359162330072 $419 $542 forward 7 unknown #
vertex $-1 $506 $543 #
straight-curve $-1 -10.935628442479018 -28.484854410340802 0.81875652062632298 0 0.65605901945558964 0.75470958851134928 I I #
point $-1 -10.935628442479018 -17.880217063117819 13.017996606184685 #
point $-1 6.5251050741510035 -28.484854410340805 0.81875652062631887 #
straight-curve $-1 0 -28.484854410340805 13.017996606184685 1 0 0 I I #
vertex $-1 $426 $544 #
point $-1 -3.946847437727584 -17.239246671502361 1.751954331822462 #
vertex $-1 $430 $545 #
point $-1 3.5363240693995692 -17.239246671502361 1.751954331822462 #
straight-curve $-1 -41.839655751213108 28.484854410340805 0 0 0 -1 I I #
point $-1 -41.839655751213108 -28.484854410340805 -13.017996606184685 #
straight-curve $-1 -41.839655751213108 0 -13.017996606184685 0 1 0 I I #
point $-1 -41.839655751213108 28.484854410340805 -13.017996606184685 #
straight-curve $-1 -41.839655751213108 0 7.1482519150963419 0 -1 0 I I #
point $-1 -41.839655751213108 -28.484854410340805 7.1482519150963419 #
point $-1 -41.839655751213108 28.484854410340805 7.1482519150963419 #
straight-curve $-1 -41.839655751213108 28.484854410340805 0 0 0 -1 I I #
straight-curve $-1 -41.839655751213108 -28.484854410340805 0 0 0 -1 I I #
edge $-1 $474 -3.1959187627531196 $485 3.19591876275312 $469 $546 forward 7 unknown #
straight-curve $-1 56.755283501831052 0 -9.3088260615934146 0 -1 0 I I #
straight-curve $-1 49.29746962652208 -28.484854410340805 -2.916988536087175 1 0 0 I I #
point $-1 56.755283501831052 -28.484854410340805 -2.916988536087175 #
point $-1 56.755283501831052 28.484854410340805 -2.916988536087175 #
straight-curve $-1 56.755283501831052 28.484854410340805 -6.1129072988402946 0 0 -1 I I #
point $-1 56.755283501831052 28.484854410340805 -9.3088260615934146 #
point $-1 56.755283501831052 -28.484854410340805 -9.3088260615934146 #
straight-curve $-1 10.974920539853407 28.484854410340805 50.31366869135114 0 0 -1 I I #
point $-1 10.974920539853407 28.484854410340805 13.017996606184685 #
straight-curve $-1 1.8739789940462614 28.484854410340802 2.2982049161867479 -1 0 0 I I #
point $-1 10.974920539853407 28.484854410340809 2.2982049161867479 #
point $-1 -0.58821954296400492 20.782727986370706 5.0684895887480748 #
point $-1 3.7479579880925229 20.782727986370706 5.0684895887480748 #
point $-1 8.0841355191490507 20.782727986370706 5.0684895887480748 #
straight-curve $-1 -10.935628442479018 -28.484854410340805 27.858661786813457 0 0 -1 I I #
point $-1 -10.935628442479018 -28.484854410340805 13.017996606184685 #
straight-curve $-1 -1.1026308420820037 -28.484854410340805 0.81875652062631654 1 0 0 I I #
point $-1 -10.935628442479018 -28.484854410340805 0.81875652062631887 #
point $-1 -5.946847437727584 -15.729827494479661 0.43983629291128279 #
point $-1 1.5363240693995692 -15.729827494479661 0.43983629291128279 #
straight-curve $-1 56.755283501831052 -28.484854410340805 -6.1129072988402946 0 0 -1 I I #
End-of-ACIS-data 