500 0 10 0           
7 Unknown 11 ACIS 5.0 NT 24 Fri Mar 26 18:56:22 1999 
-1 9.9999999999999995e-007 1e-010 
body $-1 $10 $-1 $11 #
body $-1 $12 $-1 $13 #
body $-1 $14 $-1 $15 #
body $-1 $16 $-1 $17 #
body $-1 $18 $-1 $19 #
body $-1 $20 $-1 $21 #
body $-1 $22 $-1 $23 #
body $-1 $24 $-1 $25 #
body $-1 $26 $-1 $27 #
body $-1 $28 $-1 $29 #
lump $-1 $-1 $30 $0 #
transform $-1 1 0 0 0 1 0 0 0 1 60.819727164525283 36.756520068778379 11.712011314252184 1 rotate no_reflect no_shear #
lump $-1 $-1 $31 $1 #
transform $-1 1 0 0 0 1 0 0 0 1 60.819727164525283 36.756520068778379 11.712011314252184 1 rotate no_reflect no_shear #
lump $-1 $-1 $32 $2 #
transform $-1 1 0 0 0 1 0 0 0 1 60.819727164525283 36.756520068778379 11.712011314252184 1 rotate no_reflect no_shear #
lump $-1 $-1 $33 $3 #
transform $-1 1 0 0 0 1 0 0 0 1 60.819727164525283 36.756520068778379 11.712011314252184 1 rotate no_reflect no_shear #
lump $-1 $-1 $34 $4 #
transform $-1 1 0 0 0 1 0 0 0 1 60.819727164525283 36.756520068778379 11.712011314252184 1 rotate no_reflect no_shear #
lump $-1 $-1 $35 $5 #
transform $-1 1 0 0 0 1 0 0 0 1 60.819727164525283 36.756520068778379 11.712011314252184 1 rotate no_reflect no_shear #
lump $-1 $-1 $36 $6 #
transform $-1 1 0 0 0 1 0 0 0 1 60.819727164525283 36.756520068778379 11.712011314252184 1 rotate no_reflect no_shear #
lump $-1 $-1 $37 $7 #
transform $-1 1 0 0 0 1 0 0 0 1 60.819727164525283 36.756520068778379 11.712011314252184 1 rotate no_reflect no_shear #
lump $-1 $-1 $38 $8 #
transform $-1 1 0 0 0 1 0 0 0 1 60.819727164525283 36.756520068778379 11.712011314252184 1 rotate no_reflect no_shear #
lump $-1 $-1 $39 $9 #
transform $-1 1 0 0 0 1 0 0 0 1 60.819727164525283 36.756520068778379 11.712011314252184 1 rotate no_reflect no_shear #
shell $-1 $-1 $-1 $40 $-1 $10 #
shell $-1 $-1 $-1 $41 $-1 $12 #
shell $-1 $-1 $-1 $42 $-1 $14 #
shell $-1 $-1 $-1 $43 $-1 $16 #
shell $-1 $-1 $-1 $44 $-1 $18 #
shell $-1 $-1 $-1 $45 $-1 $20 #
shell $-1 $-1 $-1 $46 $-1 $22 #
shell $-1 $-1 $-1 $47 $-1 $24 #
shell $-1 $-1 $-1 $48 $-1 $26 #
shell $-1 $-1 $-1 $49 $-1 $28 #
face $-1 $50 $51 $30 $-1 $52 reversed single #
face $-1 $53 $54 $31 $-1 $55 forward single #
face $-1 $56 $57 $32 $-1 $58 reversed single #
face $-1 $59 $60 $33 $-1 $61 forward single #
face $-1 $62 $63 $34 $-1 $64 forward single #
face $-1 $65 $66 $35 $-1 $67 reversed single #
face $-1 $68 $69 $36 $-1 $70 forward single #
face $-1 $71 $72 $37 $-1 $73 forward single #
face $-1 $74 $75 $38 $-1 $76 reversed single #
face $-1 $77 $78 $39 $-1 $79 forward single #
face $-1 $80 $81 $30 $-1 $82 forward single #
loop $-1 $-1 $83 $40 #
plane-surface $-1 0 -36.756520068778379 0 0 1 0 0 0 1 forward_v I I I I #
face $-1 $84 $85 $31 $-1 $86 forward single #
loop $-1 $-1 $87 $41 #
plane-surface $-1 0 -36.756520068778379 0 0 1 0 0 0 1 forward_v I I I I #
face $-1 $88 $89 $32 $-1 $90 reversed single #
loop $-1 $-1 $91 $42 #
plane-surface $-1 -149.78119335631467 -13.108496689548337 84.049600718234998 0 1 0 -0.73135370988377701 0 0.68199835119979291 forward_v I I I I #
face $-1 $92 $93 $33 $-1 $94 forward single #
loop $-1 $95 $96 $43 #
cone-surface $-1 -55.239464643114715 -10.103932706956158 5.8158045906087761 0.73135370988377701 0 -0.68199835119979291 0.68199835119979291 0 0.73135370988377701 1 I I 0 1 1 forward I I I I #
face $-1 $97 $98 $34 $-1 $99 forward single #
loop $-1 $100 $101 $44 #
cone-surface $-1 -55.239464643114715 -5.59708673306789 5.8158045906087761 0.73135370988377701 0 -0.68199835119979291 0.68199835119979291 0 0.73135370988377701 1 I I 0 1 1 forward I I I I #
face $-1 $102 $103 $35 $-1 $104 reversed single #
loop $-1 $-1 $105 $45 #
plane-surface $-1 -149.78119335631467 17.881817745137376 84.049600718234998 0 1 0 -0.73135370988377701 0 0.68199835119979291 forward_v I I I I #
face $-1 $106 $107 $36 $-1 $108 forward single #
loop $-1 $109 $110 $46 #
cone-surface $-1 -55.239464643114715 20.886381727729557 5.8158045906087761 0.73135370988377701 0 -0.68199835119979291 0.68199835119979291 0 0.73135370988377701 1 I I 0 1 1 forward I I I I #
face $-1 $111 $112 $37 $-1 $113 forward single #
loop $-1 $114 $115 $47 #
cone-surface $-1 -55.239464643114715 25.393227701617825 5.8158045906087761 0.73135370988377701 0 -0.68199835119979291 0.68199835119979291 0 0.73135370988377701 1 I I 0 1 1 forward I I I I #
face $-1 $116 $117 $38 $-1 $118 reversed single #
loop $-1 $-1 $119 $48 #
plane-surface $-1 60.819729160444545 -1.1363080957576344 176.13782425666975 0 -1 0 -0.70710678939079041 0 -0.70710677298230451 forward_v I I I I #
face $-1 $120 $121 $39 $-1 $122 forward single #
loop $-1 $123 $124 $49 #
cone-surface $-1 55.505483722421893 -6.7417567110308099 6.3977678191458178 -0.70710678939079041 0 -0.70710677298230451 1.0606601594734568 0 -1.0606601840861856 1 I I 0 1 1.5 forward I I I I #
face $-1 $125 $126 $30 $-1 $127 reversed single #
loop $-1 $-1 $128 $50 #
plane-surface $-1 0 0 11.712011314252184 0 0 1 1 0 0 forward_v I I I I #
coedge $-1 $129 $130 $131 $132 reversed $51 $-1 #
face $-1 $133 $134 $31 $-1 $135 reversed single #
loop $-1 $-1 $136 $53 #
plane-surface $-1 0 0 11.712011314252184 0 0 1 1 0 0 forward_v I I I I #
coedge $-1 $137 $138 $139 $140 forward $54 $-1 #
face $-1 $141 $142 $32 $-1 $143 reversed single #
loop $-1 $-1 $144 $56 #
plane-surface $-1 -60.81972716452529 -7.8505097200120275 1.0916934249800079 -0.73135370988377701 0 0.68199835119979291 0.68199835119979291 0 0.73135370988377701 forward_v I I I I #
coedge $-1 $145 $146 $147 $148 reversed $57 $-1 #
face $-1 $-1 $149 $33 $-1 $150 forward single #
loop $-1 $151 $152 $59 #
cone-surface $-1 -54.245328472117116 -10.103932706956158 4.8887576360015679 0.73135370988377701 0 -0.68199835119979291 0.34099917559989645 0 0.36567685494188851 1 I I -0.70710678118654746 0.70710678118654746 0.5 forward I I I I #
loop $-1 $-1 $153 $43 #
coedge $-1 $96 $96 $154 $155 reversed $60 $-1 #
face $-1 $-1 $156 $34 $-1 $157 forward single #
loop $-1 $158 $159 $62 #
cone-surface $-1 -54.245328472117116 -5.59708673306789 4.8887576360015679 0.73135370988377701 0 -0.68199835119979291 0.34099917559989645 0 0.36567685494188851 1 I I -0.70710678118654746 0.70710678118654746 0.5 forward I I I I #
loop $-1 $-1 $160 $44 #
coedge $-1 $101 $101 $161 $162 reversed $63 $-1 #
face $-1 $163 $164 $35 $-1 $165 reversed single #
loop $-1 $-1 $166 $65 #
plane-surface $-1 -60.81972716452529 23.139804714673687 1.0916934249800079 -0.73135370988377701 0 0.68199835119979291 0.68199835119979291 0 0.73135370988377701 forward_v I I I I #
coedge $-1 $167 $168 $169 $170 reversed $66 $-1 #
face $-1 $-1 $171 $36 $-1 $172 forward single #
loop $-1 $173 $174 $68 #
cone-surface $-1 -54.245328472117116 20.886381727729557 4.8887576360015679 0.73135370988377701 0 -0.68199835119979291 0.34099917559989645 0 0.36567685494188851 1 I I -0.70710678118654746 0.70710678118654746 0.5 forward I I I I #
loop $-1 $-1 $175 $46 #
coedge $-1 $110 $110 $176 $177 reversed $69 $-1 #
face $-1 $-1 $178 $37 $-1 $179 forward single #
loop $-1 $180 $181 $71 #
cone-surface $-1 -54.245328472117116 25.393227701617825 4.8887576360015679 0.73135370988377701 0 -0.68199835119979291 0.34099917559989645 0 0.36567685494188851 1 I I -0.70710678118654746 0.70710678118654746 0.5 forward I I I I #
loop $-1 $-1 $182 $47 #
coedge $-1 $115 $115 $183 $184 reversed $72 $-1 #
face $-1 $185 $186 $38 $-1 $187 reversed single #
loop $-1 $-1 $188 $74 #
plane-surface $-1 -25.192354853418088 -6.7417567110308099 90.125742238726389 0.70710678939079041 0 0.70710677298230451 0.70710677298230451 0 -0.70710678939079041 forward_v I I I I #
coedge $-1 $189 $190 $191 $192 reversed $75 $-1 #
face $-1 $-1 $193 $39 $-1 $194 forward single #
loop $-1 $195 $196 $77 #
cone-surface $-1 53.460086644809358 -6.7417567110308099 4.3523707889969323 -0.70710678939079041 0 -0.70710677298230451 0.53033007973672841 0 -0.53033009204309278 1 I I -0.70710678118654757 0.70710678118654757 0.75 forward I I I I #
loop $-1 $-1 $197 $49 #
coedge $-1 $124 $124 $198 $199 reversed $78 $-1 #
face $-1 $200 $201 $30 $-1 $202 reversed single #
loop $-1 $-1 $203 $80 #
plane-surface $-1 0 0 -11.712011314252184 0 0 1 1 0 0 forward_v I I I I #
coedge $-1 $204 $205 $206 $207 forward $81 $-1 #
coedge $-1 $208 $83 $209 $210 reversed $51 $-1 #
coedge $-1 $83 $208 $211 $212 forward $51 $-1 #
coedge $-1 $213 $203 $83 $132 forward $126 $-1 #
edge $-1 $214 -60.819727164525283 $215 60.819727164525283 $83 $216 forward 7 unknown #
face $-1 $217 $218 $31 $-1 $219 reversed single #
loop $-1 $-1 $220 $84 #
plane-surface $-1 -60.819727164525283 0 0 1 0 0 0 0 -1 forward_v I I I I #
coedge $-1 $221 $222 $138 $223 forward $85 $-1 #
coedge $-1 $224 $87 $225 $226 reversed $54 $-1 #
coedge $-1 $87 $224 $136 $223 reversed $54 $-1 #
coedge $-1 $227 $228 $87 $140 reversed $229 $-1 #
edge $-1 $230 -11.712011314252184 $231 11.712011314252184 $139 $232 forward 7 unknown #
face $-1 $233 $234 $32 $-1 $235 reversed single #
loop $-1 $-1 $236 $88 #
plane-surface $-1 -149.78119335631467 -2.5925227504757178 84.049600718234998 0 -1 0 0.73135370988377701 0 -0.68199835119979291 forward_v I I I I #
coedge $-1 $237 $238 $239 $240 reversed $89 $-1 #
coedge $-1 $146 $91 $241 $242 reversed $57 $-1 #
coedge $-1 $91 $145 $237 $243 reversed $57 $-1 #
coedge $-1 $239 $244 $91 $148 forward $245 $-1 #
edge $-1 $246 14.070869513632054 $247 23.974475924341739 $147 $248 forward 7 unknown #
loop $-1 $-1 $154 $92 #
plane-surface $-1 -60.81972716452529 -7.8505097200120275 1.0916934249800079 -0.73135370988377701 0 0.68199835119979291 0.68199835119979291 0 0.73135370988377701 forward_v I I I I #
loop $-1 $-1 $249 $59 #
coedge $-1 $152 $152 $153 $250 reversed $93 $-1 #
coedge $-1 $153 $153 $152 $250 forward $95 $-1 #
coedge $-1 $154 $154 $96 $155 forward $149 $-1 #
edge $-1 $251 0 $251 6.2831853071796004 $154 $252 forward 7 unknown #
loop $-1 $-1 $161 $97 #
plane-surface $-1 -60.81972716452529 -7.8505097200120275 1.0916934249800079 -0.73135370988377701 0 0.68199835119979291 0.68199835119979291 0 0.73135370988377701 forward_v I I I I #
loop $-1 $-1 $253 $62 #
coedge $-1 $159 $159 $160 $254 reversed $98 $-1 #
coedge $-1 $160 $160 $159 $254 forward $100 $-1 #
coedge $-1 $161 $161 $101 $162 forward $156 $-1 #
edge $-1 $255 0 $255 6.2831853071796004 $161 $256 forward 7 unknown #
face $-1 $257 $258 $35 $-1 $259 forward single #
loop $-1 $-1 $260 $102 #
plane-surface $-1 -149.78119335631467 28.397791684209999 84.049600718234998 0 -1 0 0.73135370988377701 0 -0.68199835119979291 forward_v I I I I #
coedge $-1 $261 $262 $263 $264 reversed $103 $-1 #
coedge $-1 $168 $105 $265 $266 reversed $66 $-1 #
coedge $-1 $105 $167 $261 $267 reversed $66 $-1 #
coedge $-1 $263 $268 $105 $170 forward $258 $-1 #
edge $-1 $269 14.070869513632054 $270 23.974475924341739 $169 $271 forward 7 unknown #
loop $-1 $-1 $176 $106 #
plane-surface $-1 -60.81972716452529 23.139804714673687 1.0916934249800079 -0.73135370988377701 0 0.68199835119979291 0.68199835119979291 0 0.73135370988377701 forward_v I I I I #
loop $-1 $-1 $272 $68 #
coedge $-1 $174 $174 $175 $273 reversed $107 $-1 #
coedge $-1 $175 $175 $174 $273 forward $109 $-1 #
coedge $-1 $176 $176 $110 $177 forward $171 $-1 #
edge $-1 $274 0 $274 6.2831853071796004 $176 $275 forward 7 unknown #
loop $-1 $-1 $183 $111 #
plane-surface $-1 -60.81972716452529 23.139804714673687 1.0916934249800079 -0.73135370988377701 0 0.68199835119979291 0.68199835119979291 0 0.73135370988377701 forward_v I I I I #
loop $-1 $-1 $276 $71 #
coedge $-1 $181 $181 $182 $277 reversed $112 $-1 #
coedge $-1 $182 $182 $181 $277 forward $114 $-1 #
coedge $-1 $183 $183 $115 $184 forward $178 $-1 #
edge $-1 $278 0 $278 6.2831853071796004 $183 $279 forward 7 unknown #
face $-1 $280 $281 $38 $-1 $282 forward single #
loop $-1 $-1 $283 $116 #
plane-surface $-1 60.819729160444545 -12.347205326303985 176.13782425666975 0 1 0 0.70710678939079041 0 0.70710677298230451 forward_v I I I I #
coedge $-1 $284 $285 $286 $287 reversed $117 $-1 #
coedge $-1 $190 $119 $288 $289 reversed $75 $-1 #
coedge $-1 $119 $189 $284 $290 reversed $75 $-1 #
coedge $-1 $286 $291 $119 $192 forward $281 $-1 #
edge $-1 $292 -30.40986258430301 $293 -22.81150967123514 $191 $294 forward 7 unknown #
loop $-1 $-1 $198 $120 #
plane-surface $-1 -25.192354853418088 -6.7417567110308099 90.125742238726389 0.70710678939079041 0 0.70710677298230451 0.70710677298230451 0 -0.70710678939079041 forward_v I I I I #
loop $-1 $-1 $295 $77 #
coedge $-1 $196 $196 $197 $296 reversed $121 $-1 #
coedge $-1 $197 $197 $196 $296 forward $123 $-1 #
coedge $-1 $198 $198 $124 $199 forward $193 $-1 #
edge $-1 $297 0 $297 6.2831853071796004 $198 $298 forward 7 unknown #
face $-1 $299 $300 $30 $-1 $301 reversed single #
loop $-1 $-1 $302 $125 #
plane-surface $-1 -60.819727164525283 0 0 1 0 0 0 0 -1 forward_v I I I I #
coedge $-1 $131 $303 $304 $305 forward $126 $-1 #
coedge $-1 $306 $128 $307 $308 forward $81 $-1 #
coedge $-1 $128 $306 $208 $309 forward $81 $-1 #
coedge $-1 $209 $310 $128 $207 reversed $311 $-1 #
edge $-1 $312 -36.756520068778379 $313 36.756520068778379 $206 $314 forward 7 unknown #
coedge $-1 $130 $129 $205 $309 reversed $51 $-1 #
coedge $-1 $304 $206 $129 $210 forward $311 $-1 #
edge $-1 $312 -11.712011314252184 $214 11.712011314252184 $209 $315 forward 7 unknown #
coedge $-1 $316 $317 $130 $212 reversed $201 $-1 #
edge $-1 $318 -11.712011314252184 $215 11.712011314252184 $211 $319 forward 7 unknown #
coedge $-1 $303 $131 $317 $320 forward $126 $-1 #
vertex $-1 $210 $321 #
vertex $-1 $320 $322 #
straight-curve $-1 0 -36.756520068778379 -11.712011314252184 -1 0 0 I I #
face $-1 $323 $229 $31 $-1 $324 reversed single #
loop $-1 $-1 $325 $133 #
plane-surface $-1 -57.415998713881976 -52.045815063440045 0 0 1 0 0 0 1 forward_v I I I I #
coedge $-1 $326 $327 $224 $328 forward $134 $-1 #
coedge $-1 $329 $136 $327 $330 forward $85 $-1 #
coedge $-1 $136 $329 $227 $331 forward $85 $-1 #
edge $-1 $230 54.012270263238669 $332 60.819727164525283 $136 $333 forward 7 unknown #
coedge $-1 $138 $137 $220 $328 reversed $54 $-1 #
coedge $-1 $334 $335 $137 $226 forward $336 $-1 #
edge $-1 $337 -60.819727164525283 $231 -54.012270263238669 $225 $338 forward 7 unknown #
coedge $-1 $339 $139 $222 $331 reversed $229 $-1 #
coedge $-1 $139 $339 $334 $340 reversed $229 $-1 #
loop $-1 $-1 $339 $217 #
vertex $-1 $223 $341 #
vertex $-1 $340 $342 #
straight-curve $-1 -54.012270263238669 -36.756520068778379 0 0 0 -1 I I #
face $-1 $-1 $245 $32 $-1 $343 forward single #
loop $-1 $-1 $344 $141 #
plane-surface $-1 -60.819727164525283 0 0 1 0 0 0 0 -1 forward_v I I I I #
coedge $-1 $345 $346 $347 $348 reversed $142 $-1 #
coedge $-1 $349 $144 $146 $243 forward $89 $-1 #
coedge $-1 $144 $349 $345 $350 forward $89 $-1 #
coedge $-1 $347 $147 $144 $240 forward $245 $-1 #
edge $-1 $247 -9.1832418295423235 $351 1.332732109530296 $239 $352 forward 7 unknown #
coedge $-1 $353 $354 $145 $242 forward $234 $-1 #
edge $-1 $355 -40.933106934137484 $246 -30.312789044865315 $241 $356 forward 7 unknown #
edge $-1 $247 -14.521452131499959 $355 -1.0367256691888158e-014 $146 $357 forward 7 unknown #
coedge $-1 $147 $347 $353 $358 forward $245 $-1 #
loop $-1 $-1 $347 $233 #
vertex $-1 $242 $359 #
vertex $-1 $148 $360 #
straight-curve $-1 -74.890596678157337 -13.108496689548337 11.712011314252187 1 0 0 I I #
coedge $-1 $249 $249 $-1 $361 reversed $151 $-1 #
edge $-1 $362 0 $362 6.2831853071796004 $152 $363 forward 7 unknown #
vertex $-1 $155 $364 #
ellipse-curve $-1 -55.86792395917044 -10.103932706956158 6.4018523696161003 -0.73135370988377701 0 0.68199835119979291 0.68199835119979291 0 0.73135370988377701 1 I I #
coedge $-1 $253 $253 $-1 $365 reversed $158 $-1 #
edge $-1 $366 0 $366 6.2831853071796004 $159 $367 forward 7 unknown #
vertex $-1 $162 $368 #
ellipse-curve $-1 -55.86792395917044 -5.59708673306789 6.4018523696161003 -0.73135370988377701 0 0.68199835119979291 0.68199835119979291 0 0.73135370988377701 1 I I #
face $-1 $-1 $369 $35 $-1 $370 reversed single #
loop $-1 $-1 $169 $163 #
plane-surface $-1 0 0 11.712011314252184 0 0 1 1 0 0 forward_v I I I I #
coedge $-1 $371 $372 $373 $374 reversed $164 $-1 #
coedge $-1 $375 $166 $168 $267 forward $103 $-1 #
coedge $-1 $166 $375 $371 $376 forward $103 $-1 #
coedge $-1 $373 $169 $166 $264 forward $258 $-1 #
edge $-1 $270 6.3119153878005321 $377 16.827889326873155 $263 $378 forward 7 unknown #
coedge $-1 $379 $380 $167 $266 forward $369 $-1 #
edge $-1 $381 -40.933106934137484 $269 -30.312789044865315 $265 $382 forward 7 unknown #
edge $-1 $270 -14.521452131499959 $381 -1.0367256691888158e-014 $168 $383 forward 7 unknown #
coedge $-1 $169 $373 $379 $384 forward $258 $-1 #
vertex $-1 $266 $385 #
vertex $-1 $170 $386 #
straight-curve $-1 -74.890596678157337 17.881817745137376 11.712011314252187 1 0 0 I I #
coedge $-1 $272 $272 $-1 $387 reversed $173 $-1 #
edge $-1 $388 0 $388 6.2831853071796004 $174 $389 forward 7 unknown #
vertex $-1 $177 $390 #
ellipse-curve $-1 -55.86792395917044 20.886381727729557 6.4018523696161003 -0.73135370988377701 0 0.68199835119979291 0.68199835119979291 0 0.73135370988377701 1 I I #
coedge $-1 $276 $276 $-1 $391 reversed $180 $-1 #
edge $-1 $392 0 $392 6.2831853071796004 $181 $393 forward 7 unknown #
vertex $-1 $184 $394 #
ellipse-curve $-1 -55.86792395917044 25.393227701617825 6.4018523696161003 -0.73135370988377701 0 0.68199835119979291 0.68199835119979291 0 0.73135370988377701 1 I I #
face $-1 $-1 $395 $38 $-1 $396 reversed single #
loop $-1 $-1 $191 $185 #
plane-surface $-1 0 0 11.712011314252184 0 0 1 1 0 0 forward_v I I I I #
coedge $-1 $397 $398 $399 $400 reversed $186 $-1 #
coedge $-1 $401 $188 $190 $290 forward $117 $-1 #
coedge $-1 $188 $401 $397 $402 forward $117 $-1 #
coedge $-1 $399 $191 $188 $287 forward $281 $-1 #
edge $-1 $293 -2.2345702597577706 $403 8.9763269707885804 $286 $404 forward 7 unknown #
coedge $-1 $405 $406 $189 $289 forward $395 $-1 #
edge $-1 $407 -83.955253903471132 $292 -76.356900814082692 $288 $408 forward 7 unknown #
edge $-1 $293 110.89376046301545 $407 121.63945432905062 $190 $409 forward 7 unknown #
coedge $-1 $191 $399 $405 $410 forward $281 $-1 #
vertex $-1 $192 $411 #
vertex $-1 $192 $412 #
straight-curve $-1 30.409864580222273 -1.1363080957576344 11.71201131425218 -1 0 0 I I #
coedge $-1 $295 $295 $-1 $413 reversed $195 $-1 #
edge $-1 $414 0 $414 6.2831853071796004 $196 $415 forward 7 unknown #
vertex $-1 $199 $416 #
ellipse-curve $-1 57.02055070799134 -6.7417567110308099 7.9128347695579766 0.70710678939079041 0 0.70710677298230451 1.0606601594734568 0 -1.0606601840861856 1 I I #
face $-1 $-1 $311 $30 $-1 $417 reversed single #
loop $-1 $-1 $418 $200 #
plane-surface $-1 0 36.756520068778379 0 0 -1 0 0 0 -1 forward_v I I I I #
coedge $-1 $317 $316 $419 $420 forward $201 $-1 #
coedge $-1 $203 $213 $421 $422 forward $126 $-1 #
coedge $-1 $310 $209 $203 $305 reversed $311 $-1 #
edge $-1 $423 -36.756520068778379 $214 36.756520068778379 $304 $424 forward 7 unknown #
coedge $-1 $205 $204 $316 $425 forward $81 $-1 #
coedge $-1 $418 $419 $204 $308 reversed $300 $-1 #
edge $-1 $313 -60.819727164525283 $426 60.819727164525283 $307 $427 forward 7 unknown #
edge $-1 $318 -60.819727164525283 $312 60.819727164525283 $208 $428 forward 7 unknown #
coedge $-1 $206 $304 $418 $429 reversed $311 $-1 #
loop $-1 $-1 $209 $299 #
vertex $-1 $207 $430 #
vertex $-1 $207 $431 #
straight-curve $-1 60.819727164525283 0 11.712011314252184 0 1 0 I I #
straight-curve $-1 60.819727164525283 -36.756520068778379 0 0 0 -1 I I #
coedge $-1 $302 $211 $306 $425 reversed $201 $-1 #
coedge $-1 $211 $302 $213 $320 reversed $201 $-1 #
vertex $-1 $425 $432 #
straight-curve $-1 -60.819727164525283 -36.756520068778379 0 0 0 -1 I I #
edge $-1 $215 -36.756520068778379 $433 36.756520068778379 $317 $434 forward 7 unknown #
point $-1 60.819727164525283 -36.756520068778379 -11.712011314252184 #
point $-1 -60.819727164525283 -36.756520068778379 -11.712011314252184 #
face $-1 $-1 $336 $31 $-1 $435 reversed single #
plane-surface $-1 -54.012270263238669 -44.401167566109208 0 -1 0 0 0 0 1 forward_v I I I I #
coedge $-1 $436 $437 $438 $439 forward $218 $-1 #
coedge $-1 $438 $220 $335 $440 reversed $134 $-1 #
coedge $-1 $220 $438 $221 $330 reversed $134 $-1 #
edge $-1 $332 -11.712011314252184 $337 11.712011314252184 $220 $441 forward 7 unknown #
coedge $-1 $222 $221 $437 $442 forward $85 $-1 #
edge $-1 $332 36.756520068778379 $443 52.045815063440045 $327 $444 forward 7 unknown #
edge $-1 $445 -7.6446474973308369 $230 7.6446474973308369 $227 $446 forward 7 unknown #
vertex $-1 $330 $447 #
straight-curve $-1 0 -36.756520068778379 11.712011314252184 -1 0 0 I I #
coedge $-1 $448 $225 $228 $340 forward $336 $-1 #
coedge $-1 $225 $448 $326 $440 forward $336 $-1 #
loop $-1 $-1 $225 $323 #
vertex $-1 $328 $449 #
straight-curve $-1 0 -36.756520068778379 -11.712011314252184 1 0 0 I I #
coedge $-1 $228 $227 $450 $451 forward $229 $-1 #
edge $-1 $231 -7.6446474973308369 $452 7.6446474973308369 $228 $453 forward 7 unknown #
point $-1 -54.012270263238669 -36.756520068778372 11.712011314252184 #
point $-1 -54.012270263238669 -36.756520068778372 -11.712011314252184 #
plane-surface $-1 0 0 11.712011314252184 0 0 1 1 0 0 forward_v I I I I #
coedge $-1 $354 $353 $346 $454 forward $234 $-1 #
coedge $-1 $346 $236 $238 $350 reversed $142 $-1 #
coedge $-1 $236 $345 $344 $454 reversed $142 $-1 #
coedge $-1 $244 $239 $236 $348 forward $245 $-1 #
edge $-1 $351 -23.974475924341739 $455 -14.070869513632054 $347 $456 forward 7 unknown #
coedge $-1 $238 $237 $354 $457 reversed $89 $-1 #
edge $-1 $458 1.0367256691888158e-014 $351 14.521452131499959 $345 $459 forward 7 unknown #
vertex $-1 $240 $460 #
straight-curve $-1 -50.916120753815598 -3.9252548600060138 11.712011314252184 0 1 0 I I #
coedge $-1 $344 $241 $244 $358 reversed $234 $-1 #
coedge $-1 $241 $344 $349 $457 forward $234 $-1 #
vertex $-1 $242 $461 #
straight-curve $-1 -60.819727164525283 -13.108496689548337 42.024800359117499 0 0 1 I I #
straight-curve $-1 -60.81972716452529 -13.108496689548337 1.0916934249800079 -0.68199835119979291 0 -0.73135370988377701 I I #
edge $-1 $455 2.5925227504757178 $246 13.108496689548337 $353 $462 forward 7 unknown #
point $-1 -60.819727164525283 -13.108496689548337 11.712011314252184 #
point $-1 -50.916120753815598 -13.108496689548337 11.712011314252184 #
edge $-1 $463 1 $463 0 $249 $-1 forward 7 unknown #
vertex $-1 $250 $464 #
ellipse-curve $-1 -54.611005327059004 -10.103932706956158 5.2297568116014643 -0.73135370988377701 0 0.68199835119979291 0.68199835119979291 0 0.73135370988377701 1 I I #
point $-1 -55.185925607970638 -10.103932706956158 7.1332060794998648 #
edge $-1 $465 1 $465 0 $253 $-1 forward 7 unknown #
vertex $-1 $254 $466 #
ellipse-curve $-1 -54.611005327059004 -5.59708673306789 5.2297568116014643 -0.73135370988377701 0 0.68199835119979291 0.68199835119979291 0 0.73135370988377701 1 I I #
point $-1 -55.185925607970638 -5.59708673306789 7.1332060794998648 #
loop $-1 $-1 $265 $257 #
plane-surface $-1 -60.819727164525283 0 0 1 0 0 0 0 -1 forward_v I I I I #
coedge $-1 $372 $260 $262 $376 reversed $164 $-1 #
coedge $-1 $260 $371 $467 $468 reversed $164 $-1 #
coedge $-1 $268 $263 $260 $374 forward $258 $-1 #
edge $-1 $377 -23.974475924341739 $469 -14.070869513632054 $373 $470 forward 7 unknown #
coedge $-1 $262 $261 $380 $471 reversed $103 $-1 #
edge $-1 $472 1.0367256691888158e-014 $377 14.521452131499959 $371 $473 forward 7 unknown #
vertex $-1 $264 $474 #
straight-curve $-1 -50.916120753815598 11.569902357336844 11.712011314252184 0 1 0 I I #
coedge $-1 $467 $265 $268 $384 reversed $369 $-1 #
coedge $-1 $265 $467 $375 $471 forward $369 $-1 #
vertex $-1 $266 $475 #
straight-curve $-1 -60.819727164525283 17.881817745137376 42.024800359117499 0 0 1 I I #
straight-curve $-1 -60.81972716452529 17.881817745137376 1.0916934249800079 -0.68199835119979291 0 -0.73135370988377701 I I #
edge $-1 $469 -28.397791684209999 $269 -17.881817745137376 $379 $476 forward 7 unknown #
point $-1 -60.819727164525283 17.881817745137376 11.712011314252184 #
point $-1 -50.916120753815598 17.881817745137376 11.712011314252184 #
edge $-1 $477 1 $477 0 $272 $-1 forward 7 unknown #
vertex $-1 $273 $478 #
ellipse-curve $-1 -54.611005327059004 20.886381727729557 5.2297568116014643 -0.73135370988377701 0 0.68199835119979291 0.68199835119979291 0 0.73135370988377701 1 I I #
point $-1 -55.185925607970638 20.886381727729557 7.1332060794998648 #
edge $-1 $479 1 $479 0 $276 $-1 forward 7 unknown #
vertex $-1 $277 $480 #
ellipse-curve $-1 -54.611005327059004 25.393227701617825 5.2297568116014643 -0.73135370988377701 0 0.68199835119979291 0.68199835119979291 0 0.73135370988377701 1 I I #
point $-1 -55.185925607970638 25.393227701617825 7.1332060794998648 #
loop $-1 $-1 $288 $280 #
plane-surface $-1 60.819727164525283 0 0 -1 0 0 0 0 1 forward_v I I I I #
coedge $-1 $398 $283 $285 $402 reversed $186 $-1 #
coedge $-1 $283 $397 $481 $482 reversed $186 $-1 #
coedge $-1 $291 $286 $283 $400 forward $281 $-1 #
edge $-1 $403 22.81150967123514 $483 30.40986258430301 $399 $484 forward 7 unknown #
coedge $-1 $285 $284 $406 $485 reversed $117 $-1 #
edge $-1 $486 -121.63945432905062 $403 -110.89376046301545 $397 $487 forward 7 unknown #
vertex $-1 $287 $488 #
straight-curve $-1 53.221374251457419 -3.3708783555154049 11.712011314252173 0 -1 0 I I #
coedge $-1 $481 $288 $291 $410 reversed $395 $-1 #
coedge $-1 $288 $481 $401 $485 forward $395 $-1 #
vertex $-1 $289 $489 #
straight-curve $-1 60.819727164525283 -1.1363080957576344 88.068912128334873 0 0 1 I I #
straight-curve $-1 -25.192354853418088 -1.1363080957576344 90.125742238726389 0.70710677298230451 0 -0.70710678939079041 I I #
edge $-1 $483 -12.347205326303985 $292 -1.1363080957576344 $405 $490 forward 7 unknown #
point $-1 60.819727164525283 -1.1363080957576344 11.712011314252184 #
point $-1 53.221374251457412 -1.1363080957576344 11.71201131425218 #
edge $-1 $491 1 $491 0 $295 $-1 forward 7 unknown #
vertex $-1 $296 $492 #
ellipse-curve $-1 53.990416736852453 -6.7417567110308099 4.8827008687336608 0.70710678939079041 0 0.70710677298230451 1.0606601594734568 0 -1.0606601840861856 1 I I #
point $-1 58.08121086746479 -6.7417567110308099 6.8521745854717881 #
plane-surface $-1 60.819727164525283 0 0 -1 0 0 0 0 1 forward_v I I I I #
coedge $-1 $421 $307 $310 $429 forward $300 $-1 #
coedge $-1 $307 $421 $302 $420 reversed $300 $-1 #
edge $-1 $426 -11.712011314252184 $433 11.712011314252184 $419 $493 forward 7 unknown #
coedge $-1 $419 $418 $303 $422 reversed $300 $-1 #
edge $-1 $433 -60.819727164525283 $423 60.819727164525283 $421 $494 forward 7 unknown #
vertex $-1 $305 $495 #
straight-curve $-1 60.819727164525283 0 -11.712011314252184 0 -1 0 I I #
edge $-1 $426 -36.756520068778379 $318 36.756520068778379 $316 $496 forward 7 unknown #
vertex $-1 $308 $497 #
straight-curve $-1 0 36.756520068778379 11.712011314252184 -1 0 0 I I #
straight-curve $-1 0 -36.756520068778379 11.712011314252184 1 0 0 I I #
edge $-1 $313 -11.712011314252184 $423 11.712011314252184 $310 $498 forward 7 unknown #
point $-1 60.819727164525283 -36.756520068778379 11.712011314252184 #
point $-1 60.819727164525283 36.756520068778379 11.712011314252184 #
point $-1 -60.819727164525283 -36.756520068778379 11.712011314252184 #
vertex $-1 $422 $499 #
straight-curve $-1 -60.819727164525283 0 -11.712011314252184 0 1 0 I I #
plane-surface $-1 0 0 -11.712011314252184 0 0 1 1 0 0 forward_v I I I I #
coedge $-1 $450 $325 $448 $500 reversed $218 $-1 #
coedge $-1 $325 $450 $329 $442 reversed $218 $-1 #
coedge $-1 $327 $326 $325 $439 reversed $134 $-1 #
edge $-1 $443 -11.712011314252184 $501 11.712011314252184 $438 $502 forward 7 unknown #
edge $-1 $501 -52.045815063440045 $337 -36.756520068778379 $326 $503 forward 7 unknown #
straight-curve $-1 -60.819727164525283 -36.756520068778379 0 0 0 -1 I I #
edge $-1 $443 -3.4037284506433068 $445 3.4037284506433068 $437 $504 forward 7 unknown #
vertex $-1 $330 $505 #
straight-curve $-1 -60.819727164525283 0 11.712011314252184 0 -1 0 I I #
vertex $-1 $331 $506 #
straight-curve $-1 -54.012270263238669 -44.401167566109208 11.712011314252184 0 1 0 I I #
point $-1 -60.819727164525283 -36.756520068778379 11.712011314252184 #
coedge $-1 $335 $334 $436 $500 forward $336 $-1 #
point $-1 -60.819727164525283 -36.756520068778379 -11.712011314252184 #
coedge $-1 $437 $436 $339 $451 reversed $218 $-1 #
edge $-1 $445 -11.712011314252184 $452 11.712011314252184 $339 $507 forward 7 unknown #
vertex $-1 $451 $508 #
straight-curve $-1 -54.012270263238669 -44.401167566109208 -11.712011314252184 0 -1 0 I I #
edge $-1 $455 30.312789044865315 $458 40.933106934137484 $344 $509 forward 7 unknown #
vertex $-1 $358 $510 #
straight-curve $-1 -74.890596678157337 -2.5925227504757178 11.712011314252187 -1 0 0 I I #
edge $-1 $458 -1.332732109530296 $355 9.1832418295423235 $354 $511 forward 7 unknown #
vertex $-1 $457 $512 #
straight-curve $-1 -60.81972716452529 -2.5925227504757178 1.0916934249800079 0.68199835119979291 0 0.73135370988377701 I I #
point $-1 -50.916120753815598 -2.5925227504757178 11.712011314252184 #
point $-1 -60.819727164525283 -13.108496689548337 1.0916934249800154 #
straight-curve $-1 -60.819727164525283 0 11.712011314252184 0 -1 0 I I #
vertex $-1 $361 $513 #
point $-1 -53.92900697585921 -10.103932706956158 5.9611105214852413 #
vertex $-1 $365 $514 #
point $-1 -53.92900697585921 -5.59708673306789 5.9611105214852413 #
coedge $-1 $380 $379 $372 $468 forward $369 $-1 #
edge $-1 $469 30.312789044865315 $472 40.933106934137484 $467 $515 forward 7 unknown #
vertex $-1 $384 $516 #
straight-curve $-1 -74.890596678157337 28.397791684209999 11.712011314252187 -1 0 0 I I #
edge $-1 $472 -16.827889326873155 $381 -6.3119153878005321 $380 $517 forward 7 unknown #
vertex $-1 $471 $518 #
straight-curve $-1 -60.81972716452529 28.397791684209999 1.0916934249800079 0.68199835119979291 0 0.73135370988377701 I I #
point $-1 -50.916120753815598 28.397791684209999 11.712011314252184 #
point $-1 -60.819727164525283 17.881817745137376 1.0916934249800154 #
straight-curve $-1 -60.819727164525283 0 11.712011314252184 0 -1 0 I I #
vertex $-1 $387 $519 #
point $-1 -53.92900697585921 20.886381727729557 5.9611105214852413 #
vertex $-1 $391 $520 #
point $-1 -53.92900697585921 25.393227701617825 5.9611105214852413 #
coedge $-1 $406 $405 $398 $482 forward $395 $-1 #
edge $-1 $483 76.356900814082692 $486 83.955253903471132 $481 $521 forward 7 unknown #
vertex $-1 $410 $522 #
straight-curve $-1 30.409864580222273 -12.347205326303985 11.71201131425218 1 0 0 I I #
edge $-1 $486 -8.9763269707885804 $407 2.2345702597577706 $406 $523 forward 7 unknown #
vertex $-1 $485 $524 #
straight-curve $-1 -25.192354853418088 -12.347205326303985 90.125742238726389 -0.70710677298230451 0 0.70710678939079041 I I #
point $-1 53.221374251457412 -12.347205326303985 11.71201131425218 #
point $-1 60.819727164525283 -1.1363080957576344 4.113658224863741 #
straight-curve $-1 60.819727164525283 0 11.712011314252184 0 1 0 I I #
vertex $-1 $413 $525 #
point $-1 55.05107689632591 -6.7417567110308099 3.822040684647475 #
straight-curve $-1 -60.819727164525283 36.756520068778379 0 0 0 -1 I I #
straight-curve $-1 0 36.756520068778379 -11.712011314252184 1 0 0 I I #
point $-1 60.819727164525283 36.756520068778379 -11.712011314252184 #
straight-curve $-1 -60.819727164525283 0 11.712011314252184 0 -1 0 I I #
point $-1 -60.819727164525283 36.756520068778379 11.712011314252184 #
straight-curve $-1 60.819727164525283 36.756520068778379 0 0 0 -1 I I #
point $-1 -60.819727164525283 36.756520068778379 -11.712011314252184 #
edge $-1 $452 -3.4037284506433068 $501 3.4037284506433068 $436 $526 forward 7 unknown #
vertex $-1 $440 $527 #
straight-curve $-1 -60.819727164525283 -52.045815063440045 0 0 0 -1 I I #
straight-curve $-1 -60.819727164525283 0 -11.712011314252184 0 1 0 I I #
straight-curve $-1 -57.415998713881976 -52.045815063440045 11.712011314252184 1 0 0 I I #
point $-1 -60.819727164525283 -52.045815063440045 11.712011314252184 #
point $-1 -54.012270263238669 -52.045815063440045 11.712011314252184 #
straight-curve $-1 -54.012270263238669 -52.045815063440045 0 0 0 -1 I I #
point $-1 -54.012270263238669 -52.045815063440045 -11.712011314252184 #
straight-curve $-1 -60.819727164525283 -2.5925227504757178 42.024800359117499 0 0 -1 I I #
point $-1 -60.819727164525283 -2.5925227504757178 11.712011314252184 #
straight-curve $-1 -60.819727164525283 -3.9252548600060138 1.091693424980017 0 -1 0 I I #
point $-1 -60.819727164525283 -2.5925227504757178 1.0916934249800154 #
point $-1 -53.879651617175227 -10.103932706956158 4.5477584604016714 #
point $-1 -53.879651617175227 -5.59708673306789 4.5477584604016714 #
straight-curve $-1 -60.819727164525283 28.397791684209999 42.024800359117499 0 0 -1 I I #
point $-1 -60.819727164525283 28.397791684209999 11.712011314252184 #
straight-curve $-1 -60.819727164525283 11.569902357336844 1.091693424980017 0 -1 0 I I #
point $-1 -60.819727164525283 28.397791684209999 1.0916934249800154 #
point $-1 -53.879651617175227 20.886381727729557 4.5477584604016714 #
point $-1 -53.879651617175227 25.393227701617825 4.5477584604016714 #
straight-curve $-1 60.819727164525283 -12.347205326303985 88.068912128334873 0 0 -1 I I #
point $-1 60.819727164525283 -12.347205326303985 11.712011314252184 #
straight-curve $-1 60.819727164525283 -3.3708783555154049 4.1136582248637481 0 1 0 I I #
point $-1 60.819727164525283 -12.347205326303985 4.113658224863741 #
point $-1 52.929756552766264 -6.7417567110308099 3.8220407092602038 #
straight-curve $-1 -57.415998713881976 -52.045815063440045 -11.712011314252184 -1 0 0 I I #
point $-1 -60.819727164525283 -52.045815063440045 -11.712011314252184 #
End-of-ACIS-data 