500 0 10 0           
7 Unknown 11 ACIS 5.0 NT 24 Thu Mar 25 23:26:46 1999 
-1 9.9999999999999995e-007 1e-010 
body $-1 $10 $-1 $11 #
body $-1 $12 $-1 $13 #
body $-1 $14 $-1 $15 #
body $-1 $16 $-1 $17 #
body $-1 $18 $-1 $19 #
body $-1 $20 $-1 $21 #
body $-1 $22 $-1 $23 #
body $-1 $24 $-1 $25 #
body $-1 $26 $-1 $27 #
body $-1 $28 $-1 $29 #
lump $-1 $-1 $30 $0 #
transform $-1 1 0 0 0 1 0 0 0 1 79.74852748191779 45.144184287746718 19.048952763990368 1 rotate no_reflect no_shear #
lump $-1 $-1 $31 $1 #
transform $-1 1 0 0 0 1 0 0 0 1 79.74852748191779 45.144184287746718 19.048952763990368 1 rotate no_reflect no_shear #
lump $-1 $-1 $32 $2 #
transform $-1 1 0 0 0 1 0 0 0 1 79.74852748191779 45.144184287746718 19.048952763990368 1 rotate no_reflect no_shear #
lump $-1 $-1 $33 $3 #
transform $-1 1 0 0 0 1 0 0 0 1 79.74852748191779 45.144184287746718 19.048952763990368 1 rotate no_reflect no_shear #
lump $-1 $-1 $34 $4 #
transform $-1 1 0 0 0 1 0 0 0 1 79.74852748191779 45.144184287746718 19.048952763990368 1 rotate no_reflect no_shear #
lump $-1 $-1 $35 $5 #
transform $-1 1 0 0 0 1 0 0 0 1 79.74852748191779 45.144184287746718 19.048952763990368 1 rotate no_reflect no_shear #
lump $-1 $-1 $36 $6 #
transform $-1 1 0 0 0 1 0 0 0 1 79.74852748191779 45.144184287746718 19.048952763990368 1 rotate no_reflect no_shear #
lump $-1 $-1 $37 $7 #
transform $-1 1 0 0 0 1 0 0 0 1 79.74852748191779 45.144184287746718 19.048952763990368 1 rotate no_reflect no_shear #
lump $-1 $-1 $38 $8 #
transform $-1 1 0 0 0 1 0 0 0 1 79.74852748191779 45.144184287746718 19.048952763990368 1 rotate no_reflect no_shear #
lump $-1 $-1 $39 $9 #
transform $-1 1 0 0 0 1 0 0 0 1 79.74852748191779 45.144184287746718 19.048952763990368 1 rotate no_reflect no_shear #
shell $-1 $-1 $-1 $40 $-1 $10 #
shell $-1 $-1 $-1 $41 $-1 $12 #
shell $-1 $-1 $-1 $42 $-1 $14 #
shell $-1 $-1 $-1 $43 $-1 $16 #
shell $-1 $-1 $-1 $44 $-1 $18 #
shell $-1 $-1 $-1 $45 $-1 $20 #
shell $-1 $-1 $-1 $46 $-1 $22 #
shell $-1 $-1 $-1 $47 $-1 $24 #
shell $-1 $-1 $-1 $48 $-1 $26 #
shell $-1 $-1 $-1 $49 $-1 $28 #
face $-1 $50 $51 $30 $-1 $52 reversed single #
face $-1 $53 $54 $31 $-1 $55 forward single #
face $-1 $56 $57 $32 $-1 $58 reversed single #
face $-1 $59 $60 $33 $-1 $61 forward single #
face $-1 $62 $63 $34 $-1 $64 forward single #
face $-1 $65 $66 $35 $-1 $67 forward single #
face $-1 $68 $69 $36 $-1 $70 reversed single #
face $-1 $71 $72 $37 $-1 $73 forward single #
face $-1 $74 $75 $38 $-1 $76 forward single #
face $-1 $77 $78 $39 $-1 $79 forward single #
face $-1 $80 $81 $30 $-1 $82 forward single #
loop $-1 $-1 $83 $40 #
plane-surface $-1 0 -45.144184287746718 0 0 1 0 0 0 1 forward_v I I I I #
face $-1 $84 $85 $31 $-1 $86 reversed single #
loop $-1 $-1 $87 $41 #
plane-surface $-1 0 -45.144184287746718 0 0 1 0 0 0 1 forward_v I I I I #
face $-1 $88 $89 $32 $-1 $90 reversed single #
loop $-1 $-1 $91 $42 #
plane-surface $-1 44.462718223151739 37.960087703219791 233.77281694256303 0 -1 0 -0.5877852598018023 0 -0.80901698891910034 forward_v I I I I #
face $-1 $92 $93 $33 $-1 $94 forward single #
loop $-1 $95 $96 $43 #
cone-surface $-1 73.657585189821475 23.747714548006236 14.270917226966954 -0.5877852598018023 0 -0.80901698891910034 0.80901698891910034 0 -0.5877852598018023 1 I I 0 1 1 forward I I I I #
face $-1 $97 $98 $34 $-1 $99 forward single #
loop $-1 $100 $101 $44 #
cone-surface $-1 73.657585189821475 29.077354481211323 14.270917226966954 -0.5877852598018023 0 -0.80901698891910034 0.80901698891910034 0 -0.5877852598018023 1 I I 0 1 1 forward I I I I #
face $-1 $102 $103 $35 $-1 $104 forward single #
loop $-1 $105 $106 $45 #
cone-surface $-1 73.657585189821475 34.40699441441641 14.270917226966954 -0.5877852598018023 0 -0.80901698891910034 0.80901698891910034 0 -0.5877852598018023 1 I I 0 1 1 forward I I I I #
face $-1 $107 $108 $36 $-1 $109 reversed single #
loop $-1 $-1 $110 $46 #
plane-surface $-1 -173.49854537145825 20.194621259202854 140.0227990530226 0 1 0 -0.5877852598018023 0 0.80901698891910034 forward_v I I I I #
face $-1 $111 $112 $37 $-1 $113 forward single #
loop $-1 $114 $115 $47 #
cone-surface $-1 -73.657585189821447 23.747714548006236 14.270917226966969 0.5877852598018023 0 -0.80901698891910034 0.80901698891910034 0 0.5877852598018023 1 I I 0 1 1 forward I I I I #
face $-1 $116 $117 $38 $-1 $118 forward single #
loop $-1 $119 $120 $48 #
cone-surface $-1 -73.657585189821447 29.077354481211323 14.270917226966969 0.5877852598018023 0 -0.80901698891910034 0.80901698891910034 0 0.5877852598018023 1 I I 0 1 1 forward I I I I #
face $-1 $121 $122 $39 $-1 $123 forward single #
loop $-1 $124 $125 $49 #
cone-surface $-1 -73.657585189821447 34.40699441441641 14.270917226966969 0.5877852598018023 0 -0.80901698891910034 0.80901698891910034 0 0.5877852598018023 1 I I 0 1 1 forward I I I I #
face $-1 $126 $127 $30 $-1 $128 reversed single #
loop $-1 $-1 $129 $50 #
plane-surface $-1 0 0 19.048952763990368 0 0 1 1 0 0 forward_v I I I I #
coedge $-1 $130 $131 $132 $133 reversed $51 $-1 #
face $-1 $134 $135 $31 $-1 $136 reversed single #
loop $-1 $-1 $137 $53 #
plane-surface $-1 0 0 -19.048952763990368 0 0 1 1 0 0 forward_v I I I I #
coedge $-1 $138 $139 $140 $141 forward $54 $-1 #
face $-1 $142 $143 $32 $-1 $144 reversed single #
loop $-1 $-1 $145 $56 #
plane-surface $-1 -49.287299666388691 29.077354481211323 104.73698979425652 0.5877852598018023 0 0.80901698891910034 0.80901698891910034 0 -0.5877852598018023 forward_v I I I I #
coedge $-1 $146 $147 $148 $149 reversed $57 $-1 #
face $-1 $-1 $150 $33 $-1 $151 forward single #
loop $-1 $152 $153 $59 #
cone-surface $-1 72.82093250847177 23.747714548006236 13.119363625121157 -0.5877852598018023 0 -0.80901698891910034 0.40450849445955017 0 -0.29389262990090115 1 I I -0.70710678118654746 0.70710678118654746 0.5 forward I I I I #
loop $-1 $-1 $154 $43 #
coedge $-1 $96 $96 $155 $156 reversed $60 $-1 #
face $-1 $-1 $157 $34 $-1 $158 forward single #
loop $-1 $159 $160 $62 #
cone-surface $-1 72.82093250847177 29.077354481211323 13.119363625121157 -0.5877852598018023 0 -0.80901698891910034 0.40450849445955017 0 -0.29389262990090115 1 I I -0.70710678118654746 0.70710678118654746 0.5 forward I I I I #
loop $-1 $-1 $161 $44 #
coedge $-1 $101 $101 $162 $163 reversed $63 $-1 #
face $-1 $-1 $164 $35 $-1 $165 forward single #
loop $-1 $166 $167 $65 #
cone-surface $-1 72.82093250847177 34.40699441441641 13.119363625121157 -0.5877852598018023 0 -0.80901698891910034 0.40450849445955017 0 -0.29389262990090115 1 I I -0.70710678118654746 0.70710678118654746 0.5 forward I I I I #
loop $-1 $-1 $168 $45 #
coedge $-1 $106 $106 $169 $170 reversed $66 $-1 #
face $-1 $171 $172 $36 $-1 $173 reversed single #
loop $-1 $-1 $174 $68 #
plane-surface $-1 -79.748527481917819 29.077354481211323 10.986971904716086 -0.5877852598018023 0 0.80901698891910034 0.80901698891910034 0 0.5877852598018023 forward_v I I I I #
coedge $-1 $175 $176 $177 $178 reversed $69 $-1 #
face $-1 $-1 $179 $37 $-1 $180 forward single #
loop $-1 $181 $182 $71 #
cone-surface $-1 -72.820932508471742 23.747714548006236 13.119363625121171 0.5877852598018023 0 -0.80901698891910034 0.40450849445955017 0 0.29389262990090115 1 I I -0.70710678118654746 0.70710678118654746 0.5 forward I I I I #
loop $-1 $-1 $183 $47 #
coedge $-1 $115 $115 $184 $185 reversed $72 $-1 #
face $-1 $-1 $186 $38 $-1 $187 forward single #
loop $-1 $188 $189 $74 #
cone-surface $-1 -72.820932508471742 29.077354481211323 13.119363625121171 0.5877852598018023 0 -0.80901698891910034 0.40450849445955017 0 0.29389262990090115 1 I I -0.70710678118654746 0.70710678118654746 0.5 forward I I I I #
loop $-1 $-1 $190 $48 #
coedge $-1 $120 $120 $191 $192 reversed $75 $-1 #
face $-1 $-1 $193 $39 $-1 $194 forward single #
loop $-1 $195 $196 $77 #
cone-surface $-1 -72.820932508471742 34.40699441441641 13.119363625121171 0.5877852598018023 0 -0.80901698891910034 0.40450849445955017 0 0.29389262990090115 1 I I -0.70710678118654746 0.70710678118654746 0.5 forward I I I I #
loop $-1 $-1 $197 $49 #
coedge $-1 $125 $125 $198 $199 reversed $78 $-1 #
face $-1 $200 $201 $30 $-1 $202 reversed single #
loop $-1 $-1 $203 $80 #
plane-surface $-1 0 0 -19.048952763990368 0 0 1 1 0 0 forward_v I I I I #
coedge $-1 $204 $205 $206 $207 forward $81 $-1 #
coedge $-1 $208 $83 $209 $210 reversed $51 $-1 #
coedge $-1 $83 $208 $211 $212 forward $51 $-1 #
coedge $-1 $213 $203 $83 $133 forward $127 $-1 #
edge $-1 $214 -79.74852748191779 $215 79.74852748191779 $83 $216 forward 7 unknown #
face $-1 $217 $218 $31 $-1 $219 reversed single #
loop $-1 $-1 $220 $84 #
plane-surface $-1 -47.274850400704381 -65.924733191231752 0 0 1 0 0 0 1 forward_v I I I I #
coedge $-1 $221 $222 $139 $223 forward $85 $-1 #
coedge $-1 $224 $87 $225 $226 reversed $54 $-1 #
coedge $-1 $87 $224 $137 $223 reversed $54 $-1 #
coedge $-1 $227 $228 $87 $141 reversed $218 $-1 #
edge $-1 $229 -19.048952763990368 $230 19.048952763990368 $140 $231 forward 7 unknown #
face $-1 $232 $233 $32 $-1 $234 forward single #
loop $-1 $-1 $235 $88 #
plane-surface $-1 44.462718223151739 20.194621259202854 233.77281694256303 0 1 0 0.5877852598018023 0 0.80901698891910034 forward_v I I I I #
coedge $-1 $236 $237 $238 $239 reversed $89 $-1 #
coedge $-1 $147 $91 $240 $241 reversed $57 $-1 #
coedge $-1 $91 $146 $236 $242 reversed $57 $-1 #
coedge $-1 $238 $243 $91 $149 forward $233 $-1 #
edge $-1 $244 -57.517168370341921 $245 -46.42080388904688 $148 $246 forward 7 unknown #
loop $-1 $-1 $155 $92 #
plane-surface $-1 -49.287299666388691 29.077354481211323 104.73698979425652 0.5877852598018023 0 0.80901698891910034 0.80901698891910034 0 -0.5877852598018023 forward_v I I I I #
loop $-1 $-1 $247 $59 #
coedge $-1 $153 $153 $154 $248 reversed $93 $-1 #
coedge $-1 $154 $154 $153 $248 forward $95 $-1 #
coedge $-1 $155 $155 $96 $156 forward $150 $-1 #
edge $-1 $249 0 $249 6.2831853071796004 $155 $250 forward 7 unknown #
loop $-1 $-1 $162 $97 #
plane-surface $-1 -49.287299666388691 29.077354481211323 104.73698979425652 0.5877852598018023 0 0.80901698891910034 0.80901698891910034 0 -0.5877852598018023 forward_v I I I I #
loop $-1 $-1 $251 $62 #
coedge $-1 $160 $160 $161 $252 reversed $98 $-1 #
coedge $-1 $161 $161 $160 $252 forward $100 $-1 #
coedge $-1 $162 $162 $101 $163 forward $157 $-1 #
edge $-1 $253 0 $253 6.2831853071796004 $162 $254 forward 7 unknown #
loop $-1 $-1 $169 $102 #
plane-surface $-1 -49.287299666388691 29.077354481211323 104.73698979425652 0.5877852598018023 0 0.80901698891910034 0.80901698891910034 0 -0.5877852598018023 forward_v I I I I #
loop $-1 $-1 $255 $65 #
coedge $-1 $167 $167 $168 $256 reversed $103 $-1 #
coedge $-1 $168 $168 $167 $256 forward $105 $-1 #
coedge $-1 $169 $169 $106 $170 forward $164 $-1 #
edge $-1 $257 0 $257 6.2831853071796004 $169 $258 forward 7 unknown #
face $-1 $259 $260 $36 $-1 $261 reversed single #
loop $-1 $-1 $262 $107 #
plane-surface $-1 -173.49854537145825 37.960087703219791 140.0227990530226 0 -1 0 0.5877852598018023 0 -0.80901698891910034 forward_v I I I I #
coedge $-1 $263 $264 $265 $266 reversed $108 $-1 #
coedge $-1 $176 $110 $267 $268 reversed $69 $-1 #
coedge $-1 $110 $175 $263 $269 reversed $69 $-1 #
coedge $-1 $265 $270 $110 $178 forward $271 $-1 #
edge $-1 $272 7.0007452038113342 $273 18.097109685106346 $177 $274 forward 7 unknown #
loop $-1 $-1 $184 $111 #
plane-surface $-1 -79.748527481917819 29.077354481211323 10.986971904716086 -0.5877852598018023 0 0.80901698891910034 0.80901698891910034 0 0.5877852598018023 forward_v I I I I #
loop $-1 $-1 $275 $71 #
coedge $-1 $182 $182 $183 $276 reversed $112 $-1 #
coedge $-1 $183 $183 $182 $276 forward $114 $-1 #
coedge $-1 $184 $184 $115 $185 forward $179 $-1 #
edge $-1 $277 0 $277 6.2831853071796004 $184 $278 forward 7 unknown #
loop $-1 $-1 $191 $116 #
plane-surface $-1 -79.748527481917819 29.077354481211323 10.986971904716086 -0.5877852598018023 0 0.80901698891910034 0.80901698891910034 0 0.5877852598018023 forward_v I I I I #
loop $-1 $-1 $279 $74 #
coedge $-1 $189 $189 $190 $280 reversed $117 $-1 #
coedge $-1 $190 $190 $189 $280 forward $119 $-1 #
coedge $-1 $191 $191 $120 $192 forward $186 $-1 #
edge $-1 $281 0 $281 6.2831853071796004 $191 $282 forward 7 unknown #
loop $-1 $-1 $198 $121 #
plane-surface $-1 -79.748527481917819 29.077354481211323 10.986971904716086 -0.5877852598018023 0 0.80901698891910034 0.80901698891910034 0 0.5877852598018023 forward_v I I I I #
loop $-1 $-1 $283 $77 #
coedge $-1 $196 $196 $197 $284 reversed $122 $-1 #
coedge $-1 $197 $197 $196 $284 forward $124 $-1 #
coedge $-1 $198 $198 $125 $199 forward $193 $-1 #
edge $-1 $285 0 $285 6.2831853071796004 $198 $286 forward 7 unknown #
face $-1 $287 $288 $30 $-1 $289 reversed single #
loop $-1 $-1 $290 $126 #
plane-surface $-1 -79.74852748191779 0 0 1 0 0 0 0 -1 forward_v I I I I #
coedge $-1 $132 $291 $292 $293 forward $127 $-1 #
coedge $-1 $294 $129 $295 $296 forward $81 $-1 #
coedge $-1 $129 $294 $208 $297 forward $81 $-1 #
coedge $-1 $209 $298 $129 $207 reversed $299 $-1 #
edge $-1 $300 -45.144184287746718 $301 45.144184287746718 $206 $302 forward 7 unknown #
coedge $-1 $131 $130 $205 $297 reversed $51 $-1 #
coedge $-1 $292 $206 $130 $210 forward $299 $-1 #
edge $-1 $300 -19.048952763990368 $214 19.048952763990368 $209 $303 forward 7 unknown #
coedge $-1 $304 $305 $131 $212 reversed $201 $-1 #
edge $-1 $306 -19.048952763990368 $215 19.048952763990368 $211 $307 forward 7 unknown #
coedge $-1 $291 $132 $305 $308 forward $127 $-1 #
vertex $-1 $210 $309 #
vertex $-1 $308 $310 #
straight-curve $-1 0 -45.144184287746718 -19.048952763990368 -1 0 0 I I #
face $-1 $311 $312 $31 $-1 $313 reversed single #
loop $-1 $-1 $140 $134 #
plane-surface $-1 -52.899078847471699 -55.534458739489239 0 1 0 0 0 0 -1 forward_v I I I I #
coedge $-1 $314 $315 $316 $317 forward $135 $-1 #
coedge $-1 $318 $137 $319 $320 forward $85 $-1 #
coedge $-1 $137 $318 $227 $321 forward $85 $-1 #
edge $-1 $229 -52.899078847471699 $322 -41.650621953937062 $137 $323 forward 7 unknown #
coedge $-1 $139 $138 $324 $325 forward $54 $-1 #
coedge $-1 $326 $327 $138 $226 forward $328 $-1 #
edge $-1 $329 41.650621953937062 $230 52.899078847471699 $225 $330 forward 7 unknown #
coedge $-1 $316 $140 $222 $321 reversed $218 $-1 #
coedge $-1 $140 $316 $326 $331 reversed $218 $-1 #
vertex $-1 $223 $332 #
vertex $-1 $331 $333 #
straight-curve $-1 -52.899078847471699 -45.144184287746718 0 0 0 1 I I #
face $-1 $-1 $334 $32 $-1 $335 reversed single #
loop $-1 $-1 $148 $142 #
plane-surface $-1 0 0 19.048952763990368 0 0 1 1 0 0 forward_v I I I I #
coedge $-1 $336 $337 $338 $339 reversed $143 $-1 #
coedge $-1 $340 $145 $147 $242 forward $89 $-1 #
coedge $-1 $145 $340 $336 $341 forward $89 $-1 #
coedge $-1 $338 $148 $145 $239 forward $233 $-1 #
edge $-1 $245 -23.42141046261413 $342 -5.655944018597193 $238 $343 forward 7 unknown #
coedge $-1 $344 $345 $146 $241 forward $334 $-1 #
edge $-1 $346 -105.89943656656541 $244 -97.837455707291141 $240 $347 forward 7 unknown #
edge $-1 $245 145.78119406934368 $346 159.49705496383555 $147 $348 forward 7 unknown #
coedge $-1 $148 $338 $344 $349 forward $233 $-1 #
vertex $-1 $149 $350 #
vertex $-1 $149 $351 #
straight-curve $-1 22.23135911157587 37.960087703219791 19.048952763990371 -1 0 0 I I #
coedge $-1 $247 $247 $-1 $352 reversed $152 $-1 #
edge $-1 $353 0 $353 6.2831853071796004 $153 $354 forward 7 unknown #
vertex $-1 $156 $355 #
ellipse-curve $-1 74.200345241270298 23.747714548006236 15.017962334353216 0.5877852598018023 0 0.80901698891910034 0.80901698891910034 0 -0.5877852598018023 1 I I #
coedge $-1 $251 $251 $-1 $356 reversed $159 $-1 #
edge $-1 $357 0 $357 6.2831853071796004 $160 $358 forward 7 unknown #
vertex $-1 $163 $359 #
ellipse-curve $-1 74.200345241270298 29.077354481211323 15.017962334353216 0.5877852598018023 0 0.80901698891910034 0.80901698891910034 0 -0.5877852598018023 1 I I #
coedge $-1 $255 $255 $-1 $360 reversed $166 $-1 #
edge $-1 $361 0 $361 6.2831853071796004 $167 $362 forward 7 unknown #
vertex $-1 $170 $363 #
ellipse-curve $-1 74.200345241270298 34.40699441441641 15.017962334353216 0.5877852598018023 0 0.80901698891910034 0.80901698891910034 0 -0.5877852598018023 1 I I #
face $-1 $-1 $271 $36 $-1 $364 forward single #
loop $-1 $-1 $365 $171 #
plane-surface $-1 -79.74852748191779 0 0 1 0 0 0 0 -1 forward_v I I I I #
coedge $-1 $366 $367 $368 $369 reversed $172 $-1 #
coedge $-1 $370 $174 $176 $269 forward $108 $-1 #
coedge $-1 $174 $370 $366 $371 forward $108 $-1 #
coedge $-1 $368 $177 $174 $266 forward $271 $-1 #
edge $-1 $273 5.655944018597193 $372 23.42141046261413 $265 $373 forward 7 unknown #
coedge $-1 $374 $375 $175 $268 forward $260 $-1 #
edge $-1 $376 -59.024427621795191 $272 -50.962446762520926 $267 $377 forward 7 unknown #
edge $-1 $273 -13.715860894491861 $376 -3.5523042179490062e-014 $176 $378 forward 7 unknown #
coedge $-1 $177 $368 $374 $379 forward $271 $-1 #
loop $-1 $-1 $368 $259 #
vertex $-1 $268 $380 #
vertex $-1 $178 $381 #
straight-curve $-1 -86.749272685729125 20.194621259202854 19.048952763990371 1 0 0 I I #
coedge $-1 $275 $275 $-1 $382 reversed $181 $-1 #
edge $-1 $383 0 $383 6.2831853071796004 $182 $384 forward 7 unknown #
vertex $-1 $185 $385 #
ellipse-curve $-1 -74.20034524127027 23.747714548006236 15.017962334353243 -0.5877852598018023 0 0.80901698891910034 0.80901698891910034 0 0.5877852598018023 1 I I #
coedge $-1 $279 $279 $-1 $386 reversed $188 $-1 #
edge $-1 $387 0 $387 6.2831853071796004 $189 $388 forward 7 unknown #
vertex $-1 $192 $389 #
ellipse-curve $-1 -74.20034524127027 29.077354481211323 15.017962334353243 -0.5877852598018023 0 0.80901698891910034 0.80901698891910034 0 0.5877852598018023 1 I I #
coedge $-1 $283 $283 $-1 $390 reversed $195 $-1 #
edge $-1 $391 0 $391 6.2831853071796004 $196 $392 forward 7 unknown #
vertex $-1 $199 $393 #
ellipse-curve $-1 -74.20034524127027 34.40699441441641 15.017962334353243 -0.5877852598018023 0 0.80901698891910034 0.80901698891910034 0 0.5877852598018023 1 I I #
face $-1 $-1 $299 $30 $-1 $394 reversed single #
loop $-1 $-1 $395 $200 #
plane-surface $-1 0 45.144184287746718 0 0 -1 0 0 0 -1 forward_v I I I I #
coedge $-1 $305 $304 $396 $397 forward $201 $-1 #
coedge $-1 $203 $213 $398 $399 forward $127 $-1 #
coedge $-1 $298 $209 $203 $293 reversed $299 $-1 #
edge $-1 $400 -45.144184287746718 $214 45.144184287746718 $292 $401 forward 7 unknown #
coedge $-1 $205 $204 $304 $402 forward $81 $-1 #
coedge $-1 $395 $396 $204 $296 reversed $288 $-1 #
edge $-1 $301 -79.74852748191779 $403 79.74852748191779 $295 $404 forward 7 unknown #
edge $-1 $306 -79.74852748191779 $300 79.74852748191779 $208 $405 forward 7 unknown #
coedge $-1 $206 $292 $395 $406 reversed $299 $-1 #
loop $-1 $-1 $209 $287 #
vertex $-1 $207 $407 #
vertex $-1 $207 $408 #
straight-curve $-1 79.74852748191779 0 19.048952763990368 0 1 0 I I #
straight-curve $-1 79.74852748191779 -45.144184287746718 0 0 0 -1 I I #
coedge $-1 $290 $211 $294 $402 reversed $201 $-1 #
coedge $-1 $211 $290 $213 $308 reversed $201 $-1 #
vertex $-1 $402 $409 #
straight-curve $-1 -79.74852748191779 -45.144184287746718 0 0 0 -1 I I #
edge $-1 $215 -45.144184287746718 $410 45.144184287746718 $305 $411 forward 7 unknown #
point $-1 79.74852748191779 -45.144184287746718 -19.048952763990368 #
point $-1 -79.74852748191779 -45.144184287746718 -19.048952763990368 #
face $-1 $-1 $328 $31 $-1 $412 forward single #
loop $-1 $-1 $413 $217 #
plane-surface $-1 -41.650621953937062 -55.534458739489239 0 -1 0 0 0 0 1 forward_v I I I I #
coedge $-1 $414 $220 $318 $415 reversed $135 $-1 #
coedge $-1 $220 $414 $416 $417 reversed $135 $-1 #
coedge $-1 $228 $227 $220 $317 reversed $218 $-1 #
edge $-1 $418 -19.048952763990368 $419 19.048952763990368 $316 $420 forward 7 unknown #
coedge $-1 $222 $221 $314 $415 forward $85 $-1 #
coedge $-1 $324 $413 $221 $320 reversed $312 $-1 #
edge $-1 $322 -10.390274451742513 $421 10.390274451742513 $319 $422 forward 7 unknown #
edge $-1 $419 -10.390274451742513 $229 10.390274451742513 $227 $423 forward 7 unknown #
vertex $-1 $320 $424 #
straight-curve $-1 0 -45.144184287746718 -19.048952763990368 1 0 0 I I #
coedge $-1 $425 $319 $224 $325 reversed $312 $-1 #
edge $-1 $329 -19.048952763990368 $322 19.048952763990368 $324 $426 forward 7 unknown #
coedge $-1 $416 $225 $228 $331 forward $328 $-1 #
coedge $-1 $225 $416 $425 $427 forward $328 $-1 #
loop $-1 $-1 $225 $311 #
vertex $-1 $226 $428 #
straight-curve $-1 0 -45.144184287746718 19.048952763990368 -1 0 0 I I #
edge $-1 $230 -10.390274451742513 $418 10.390274451742513 $228 $429 forward 7 unknown #
point $-1 -52.899078847471699 -45.144184287746725 -19.048952763990368 #
point $-1 -52.899078847471699 -45.144184287746725 19.048952763990368 #
loop $-1 $-1 $240 $232 #
plane-surface $-1 79.74852748191779 0 0 -1 0 0 0 0 1 forward_v I I I I #
coedge $-1 $337 $235 $237 $341 reversed $143 $-1 #
coedge $-1 $235 $336 $430 $431 reversed $143 $-1 #
coedge $-1 $243 $238 $235 $339 forward $233 $-1 #
edge $-1 $342 46.42080388904688 $432 57.517168370341921 $338 $433 forward 7 unknown #
coedge $-1 $237 $236 $345 $434 reversed $89 $-1 #
edge $-1 $435 -159.49705496383555 $342 -145.78119406934368 $336 $436 forward 7 unknown #
vertex $-1 $239 $437 #
straight-curve $-1 68.652163000622764 14.538677240605661 19.048952763990371 0 -1 0 I I #
coedge $-1 $430 $240 $243 $349 reversed $334 $-1 #
coedge $-1 $240 $430 $340 $434 forward $334 $-1 #
vertex $-1 $241 $438 #
straight-curve $-1 79.74852748191779 37.960087703219791 116.88640847128151 0 0 1 I I #
straight-curve $-1 -49.287299666388691 37.960087703219791 104.73698979425652 0.80901698891910034 0 -0.5877852598018023 I I #
edge $-1 $432 20.194621259202854 $244 37.960087703219791 $344 $439 forward 7 unknown #
point $-1 79.74852748191779 37.960087703219791 19.048952763990368 #
point $-1 68.65216300062275 37.960087703219791 19.048952763990386 #
edge $-1 $440 1 $440 0 $247 $-1 forward 7 unknown #
vertex $-1 $248 $441 #
ellipse-curve $-1 73.114825138372666 23.747714548006236 13.523872119580707 0.5877852598018023 0 0.80901698891910034 0.80901698891910034 0 -0.5877852598018023 1 I I #
point $-1 75.009362230189396 23.747714548006236 14.430177074551402 #
edge $-1 $442 1 $442 0 $251 $-1 forward 7 unknown #
vertex $-1 $252 $443 #
ellipse-curve $-1 73.114825138372666 29.077354481211323 13.523872119580707 0.5877852598018023 0 0.80901698891910034 0.80901698891910034 0 -0.5877852598018023 1 I I #
point $-1 75.009362230189396 29.077354481211323 14.430177074551402 #
edge $-1 $444 1 $444 0 $255 $-1 forward 7 unknown #
vertex $-1 $256 $445 #
ellipse-curve $-1 73.114825138372666 34.40699441441641 13.523872119580707 0.5877852598018023 0 0.80901698891910034 0.80901698891910034 0 -0.5877852598018023 1 I I #
point $-1 75.009362230189396 34.40699441441641 14.430177074551402 #
plane-surface $-1 0 0 19.048952763990368 0 0 1 1 0 0 forward_v I I I I #
coedge $-1 $375 $374 $367 $446 forward $260 $-1 #
coedge $-1 $367 $262 $264 $371 reversed $172 $-1 #
coedge $-1 $262 $366 $365 $446 reversed $172 $-1 #
coedge $-1 $270 $265 $262 $369 forward $271 $-1 #
edge $-1 $372 -18.097109685106346 $447 -7.0007452038113342 $368 $448 forward 7 unknown #
coedge $-1 $264 $263 $375 $449 reversed $108 $-1 #
edge $-1 $450 3.5523042179490062e-014 $372 13.715860894491861 $366 $451 forward 7 unknown #
vertex $-1 $266 $452 #
straight-curve $-1 -68.652163000622764 14.538677240605661 19.048952763990371 0 1 0 I I #
coedge $-1 $365 $267 $270 $379 reversed $260 $-1 #
coedge $-1 $267 $365 $370 $449 forward $260 $-1 #
vertex $-1 $268 $453 #
straight-curve $-1 -79.74852748191779 20.194621259202854 70.011399526511298 0 0 1 I I #
straight-curve $-1 -79.748527481917819 20.194621259202854 10.986971904716086 -0.80901698891910034 0 -0.5877852598018023 I I #
edge $-1 $447 -37.960087703219791 $272 -20.194621259202854 $374 $454 forward 7 unknown #
point $-1 -79.74852748191779 20.194621259202854 19.048952763990368 #
point $-1 -68.652163000622778 20.194621259202854 19.048952763990368 #
edge $-1 $455 1 $455 0 $275 $-1 forward 7 unknown #
vertex $-1 $276 $456 #
ellipse-curve $-1 -73.114825138372638 23.747714548006236 13.523872119580721 -0.5877852598018023 0 0.80901698891910034 0.80901698891910034 0 0.5877852598018023 1 I I #
point $-1 -73.391328252351158 23.747714548006236 15.605747594155019 #
edge $-1 $457 1 $457 0 $279 $-1 forward 7 unknown #
vertex $-1 $280 $458 #
ellipse-curve $-1 -73.114825138372638 29.077354481211323 13.523872119580721 -0.5877852598018023 0 0.80901698891910034 0.80901698891910034 0 0.5877852598018023 1 I I #
point $-1 -73.391328252351158 29.077354481211323 15.605747594155019 #
edge $-1 $459 1 $459 0 $283 $-1 forward 7 unknown #
vertex $-1 $284 $460 #
ellipse-curve $-1 -73.114825138372638 34.40699441441641 13.523872119580721 -0.5877852598018023 0 0.80901698891910034 0.80901698891910034 0 0.5877852598018023 1 I I #
point $-1 -73.391328252351158 34.40699441441641 15.605747594155019 #
plane-surface $-1 79.74852748191779 0 0 -1 0 0 0 0 1 forward_v I I I I #
coedge $-1 $398 $295 $298 $406 forward $288 $-1 #
coedge $-1 $295 $398 $290 $397 reversed $288 $-1 #
edge $-1 $403 -19.048952763990368 $410 19.048952763990368 $396 $461 forward 7 unknown #
coedge $-1 $396 $395 $291 $399 reversed $288 $-1 #
edge $-1 $410 -79.74852748191779 $400 79.74852748191779 $398 $462 forward 7 unknown #
vertex $-1 $293 $463 #
straight-curve $-1 79.74852748191779 0 -19.048952763990368 0 -1 0 I I #
edge $-1 $403 -45.144184287746718 $306 45.144184287746718 $304 $464 forward 7 unknown #
vertex $-1 $296 $465 #
straight-curve $-1 0 45.144184287746718 19.048952763990368 -1 0 0 I I #
straight-curve $-1 0 -45.144184287746718 19.048952763990368 1 0 0 I I #
edge $-1 $301 -19.048952763990368 $400 19.048952763990368 $298 $466 forward 7 unknown #
point $-1 79.74852748191779 -45.144184287746718 19.048952763990368 #
point $-1 79.74852748191779 45.144184287746718 19.048952763990368 #
point $-1 -79.74852748191779 -45.144184287746718 19.048952763990368 #
vertex $-1 $399 $467 #
straight-curve $-1 -79.74852748191779 0 -19.048952763990368 0 1 0 I I #
plane-surface $-1 0 0 19.048952763990368 0 0 1 1 0 0 forward_v I I I I #
coedge $-1 $319 $425 $414 $468 forward $312 $-1 #
coedge $-1 $315 $314 $413 $468 reversed $135 $-1 #
edge $-1 $421 -5.6242284467673187 $419 5.6242284467673187 $314 $469 forward 7 unknown #
coedge $-1 $327 $326 $315 $417 forward $328 $-1 #
edge $-1 $418 -5.6242284467673187 $470 5.6242284467673187 $315 $471 forward 7 unknown #
vertex $-1 $331 $472 #
vertex $-1 $321 $473 #
straight-curve $-1 -52.899078847471699 -65.924733191231752 0 0 0 -1 I I #
vertex $-1 $468 $474 #
straight-curve $-1 -41.650621953937062 -55.534458739489239 -19.048952763990368 0 -1 0 I I #
straight-curve $-1 -52.899078847471699 -55.534458739489239 -19.048952763990368 0 1 0 I I #
point $-1 -41.650621953937062 -45.144184287746725 -19.048952763990368 #
coedge $-1 $413 $324 $327 $427 reversed $312 $-1 #
straight-curve $-1 -41.650621953937062 -45.144184287746718 0 0 0 -1 I I #
edge $-1 $470 -10.390274451742513 $329 10.390274451742513 $425 $475 forward 7 unknown #
point $-1 -41.650621953937062 -45.144184287746725 19.048952763990368 #
straight-curve $-1 -52.899078847471699 -55.534458739489239 19.048952763990368 0 -1 0 I I #
coedge $-1 $345 $344 $337 $431 forward $334 $-1 #
edge $-1 $432 97.837455707291141 $435 105.89943656656541 $430 $476 forward 7 unknown #
vertex $-1 $349 $477 #
straight-curve $-1 22.23135911157587 20.194621259202854 19.048952763990371 1 0 0 I I #
edge $-1 $435 5.655944018597193 $346 23.42141046261413 $345 $478 forward 7 unknown #
vertex $-1 $434 $479 #
straight-curve $-1 -49.287299666388691 20.194621259202854 104.73698979425652 -0.80901698891910034 0 0.5877852598018023 I I #
point $-1 68.65216300062275 20.194621259202854 19.048952763990386 #
point $-1 79.74852748191779 37.960087703219791 10.9869719047161 #
straight-curve $-1 79.74852748191779 0 19.048952763990368 0 1 0 I I #
vertex $-1 $352 $480 #
point $-1 73.923842127291778 23.747714548006236 12.936086859778904 #
vertex $-1 $356 $481 #
point $-1 73.923842127291778 29.077354481211323 12.936086859778904 #
vertex $-1 $360 $482 #
point $-1 73.923842127291778 34.40699441441641 12.936086859778904 #
edge $-1 $447 50.962446762520926 $450 59.024427621795191 $365 $483 forward 7 unknown #
vertex $-1 $379 $484 #
straight-curve $-1 -86.749272685729125 37.960087703219791 19.048952763990371 -1 0 0 I I #
edge $-1 $450 -23.42141046261413 $376 -5.655944018597193 $375 $485 forward 7 unknown #
vertex $-1 $449 $486 #
straight-curve $-1 -79.748527481917819 37.960087703219791 10.986971904716086 0.80901698891910034 0 0.5877852598018023 I I #
point $-1 -68.652163000622778 37.960087703219791 19.048952763990368 #
point $-1 -79.74852748191779 20.194621259202854 10.986971904716107 #
straight-curve $-1 -79.74852748191779 0 19.048952763990368 0 -1 0 I I #
vertex $-1 $382 $487 #
point $-1 -72.30580814945354 23.747714548006236 14.111657379382523 #
vertex $-1 $386 $488 #
point $-1 -72.30580814945354 29.077354481211323 14.111657379382523 #
vertex $-1 $390 $489 #
point $-1 -72.30580814945354 34.40699441441641 14.111657379382523 #
straight-curve $-1 -79.74852748191779 45.144184287746718 0 0 0 -1 I I #
straight-curve $-1 0 45.144184287746718 -19.048952763990368 1 0 0 I I #
point $-1 79.74852748191779 45.144184287746718 -19.048952763990368 #
straight-curve $-1 -79.74852748191779 0 19.048952763990368 0 -1 0 I I #
point $-1 -79.74852748191779 45.144184287746718 19.048952763990368 #
straight-curve $-1 79.74852748191779 45.144184287746718 0 0 0 -1 I I #
point $-1 -79.74852748191779 45.144184287746718 -19.048952763990368 #
edge $-1 $470 -19.048952763990368 $421 19.048952763990368 $413 $490 forward 7 unknown #
straight-curve $-1 -47.274850400704381 -65.924733191231752 -19.048952763990368 -1 0 0 I I #
vertex $-1 $427 $491 #
straight-curve $-1 -47.274850400704381 -65.924733191231752 19.048952763990368 1 0 0 I I #
point $-1 -52.899078847471699 -65.924733191231752 19.048952763990368 #
point $-1 -52.899078847471699 -65.924733191231752 -19.048952763990368 #
point $-1 -41.650621953937062 -65.924733191231752 -19.048952763990368 #
straight-curve $-1 -41.650621953937062 -55.534458739489239 19.048952763990368 0 1 0 I I #
straight-curve $-1 79.74852748191779 20.194621259202854 116.88640847128151 0 0 -1 I I #
point $-1 79.74852748191779 20.194621259202854 19.048952763990368 #
straight-curve $-1 79.74852748191779 14.538677240605661 10.986971904716093 0 1 0 I I #
point $-1 79.74852748191779 20.194621259202854 10.9869719047161 #
point $-1 72.527039878570875 23.747714548006236 12.714855130661606 #
point $-1 72.527039878570875 29.077354481211323 12.714855130661606 #
point $-1 72.527039878570875 34.40699441441641 12.714855130661606 #
straight-curve $-1 -79.74852748191779 37.960087703219791 70.011399526511298 0 0 -1 I I #
point $-1 -79.74852748191779 37.960087703219791 19.048952763990368 #
straight-curve $-1 -79.74852748191779 14.538677240605661 10.986971904716105 0 -1 0 I I #
point $-1 -79.74852748191779 37.960087703219791 10.986971904716107 #
point $-1 -72.527039878570847 23.747714548006236 12.71485513066162 #
point $-1 -72.527039878570847 29.077354481211323 12.71485513066162 #
point $-1 -72.527039878570847 34.40699441441641 12.71485513066162 #
straight-curve $-1 -41.650621953937062 -65.924733191231752 0 0 0 -1 I I #
point $-1 -41.650621953937062 -65.924733191231752 19.048952763990368 #
End-of-ACIS-data 