500 0 10 0           
7 Unknown 11 ACIS 5.0 NT 24 Fri Mar 26 16:45:39 1999 
-1 9.9999999999999995e-007 1e-010 
body $-1 $10 $-1 $11 #
body $-1 $12 $-1 $13 #
body $-1 $14 $-1 $15 #
body $-1 $16 $-1 $17 #
body $-1 $18 $-1 $19 #
body $-1 $20 $-1 $21 #
body $-1 $22 $-1 $23 #
body $-1 $24 $-1 $25 #
body $-1 $26 $-1 $27 #
body $-1 $28 $-1 $29 #
lump $-1 $-1 $30 $0 #
transform $-1 1 0 0 0 1 0 0 0 1 50.936613055818356 31.488766402291294 13.038138654330481 1 rotate no_reflect no_shear #
lump $-1 $-1 $31 $1 #
transform $-1 1 0 0 0 1 0 0 0 1 50.936613055818356 31.488766402291294 13.038138654330481 1 rotate no_reflect no_shear #
lump $-1 $-1 $32 $2 #
transform $-1 1 0 0 0 1 0 0 0 1 50.936613055818356 31.488766402291294 13.038138654330481 1 rotate no_reflect no_shear #
lump $-1 $-1 $33 $3 #
transform $-1 1 0 0 0 1 0 0 0 1 50.936613055818356 31.488766402291294 13.038138654330481 1 rotate no_reflect no_shear #
lump $-1 $-1 $34 $4 #
transform $-1 1 0 0 0 1 0 0 0 1 50.936613055818356 31.488766402291294 13.038138654330481 1 rotate no_reflect no_shear #
lump $-1 $-1 $35 $5 #
transform $-1 1 0 0 0 1 0 0 0 1 50.936613055818356 31.488766402291294 13.038138654330481 1 rotate no_reflect no_shear #
lump $-1 $-1 $36 $6 #
transform $-1 1 0 0 0 1 0 0 0 1 50.936613055818356 31.488766402291294 13.038138654330481 1 rotate no_reflect no_shear #
lump $-1 $-1 $37 $7 #
transform $-1 1 0 0 0 1 0 0 0 1 50.936613055818356 31.488766402291294 13.038138654330481 1 rotate no_reflect no_shear #
lump $-1 $-1 $38 $8 #
transform $-1 1 0 0 0 1 0 0 0 1 50.936613055818356 31.488766402291294 13.038138654330481 1 rotate no_reflect no_shear #
lump $-1 $-1 $39 $9 #
transform $-1 1 0 0 0 1 0 0 0 1 50.936613055818356 31.488766402291294 13.038138654330481 1 rotate no_reflect no_shear #
shell $-1 $-1 $-1 $40 $-1 $10 #
shell $-1 $-1 $-1 $41 $-1 $12 #
shell $-1 $-1 $-1 $42 $-1 $14 #
shell $-1 $-1 $-1 $43 $-1 $16 #
shell $-1 $-1 $-1 $44 $-1 $18 #
shell $-1 $-1 $-1 $45 $-1 $20 #
shell $-1 $-1 $-1 $46 $-1 $22 #
shell $-1 $-1 $-1 $47 $-1 $24 #
shell $-1 $-1 $-1 $48 $-1 $26 #
shell $-1 $-1 $-1 $49 $-1 $28 #
face $-1 $50 $51 $30 $-1 $52 forward single #
face $-1 $53 $54 $31 $-1 $55 forward single #
face $-1 $56 $57 $32 $-1 $58 reversed single #
face $-1 $59 $60 $33 $-1 $61 forward single #
face $-1 $62 $63 $34 $-1 $64 forward single #
face $-1 $65 $66 $35 $-1 $67 forward single #
face $-1 $68 $69 $36 $-1 $70 reversed single #
face $-1 $71 $72 $37 $-1 $73 forward single #
face $-1 $74 $75 $38 $-1 $76 reversed single #
face $-1 $77 $78 $39 $-1 $79 forward single #
face $-1 $80 $81 $30 $-1 $82 reversed single #
loop $-1 $-1 $83 $40 #
plane-surface $-1 0 0 13.038138654330481 0 0 1 1 0 0 forward_v I I I I #
face $-1 $84 $85 $31 $-1 $86 reversed single #
loop $-1 $-1 $87 $41 #
plane-surface $-1 0 -25.411283595582699 2.87789722333335 0 0 1 1 0 0 forward_v I I I I #
face $-1 $88 $89 $32 $-1 $90 reversed single #
loop $-1 $-1 $91 $42 #
plane-surface $-1 53.450991651178342 -3.3030364840096595 152.48387587652346 0 1 0 0.71933980857756763 0 0.69465836192734942 forward_v I I I I #
face $-1 $92 $93 $33 $-1 $94 forward single #
loop $-1 $95 $96 $43 #
cone-surface $-1 47.655234680706663 -1.0968890088360332 9.714129393010996 -0.71933980857756763 0 -0.69465836192734942 0.69465836192734942 0 -0.71933980857756763 1 I I 0 1 1 forward I I I I #
face $-1 $97 $98 $34 $-1 $99 forward single #
loop $-1 $100 $101 $44 #
cone-surface $-1 47.655234680706663 2.2123322039244151 9.714129393010996 -0.71933980857756763 0 -0.69465836192734942 0.69465836192734942 0 -0.71933980857756763 1 I I 0 1 1 forward I I I I #
face $-1 $102 $103 $35 $-1 $104 forward single #
loop $-1 $105 $106 $45 #
cone-surface $-1 47.655234680706663 5.5215534166848634 9.714129393010996 -0.71933980857756763 0 -0.69465836192734942 0.69465836192734942 0 -0.71933980857756763 1 I I 0 1 1 forward I I I I #
face $-1 $107 $108 $36 $-1 $109 reversed single #
loop $-1 $-1 $110 $46 #
plane-surface $-1 -110.81619373269447 -7.6781353793777694 83.895304708341158 0 1 0 -0.5877852598018023 0 0.80901698891910034 forward_v I I I I #
face $-1 $111 $112 $37 $-1 $113 forward single #
loop $-1 $114 $115 $47 #
cone-surface $-1 -41.664727175096864 -3.8796059352729735 5.4462735961016264 0.5877852598018023 0 -0.80901698891910034 1.2135254833786506 0 0.88167788970270344 1 I I 0 1 1.5 forward I I I I #
face $-1 $116 $117 $38 $-1 $118 reversed single #
loop $-1 $-1 $119 $48 #
plane-surface $-1 -110.81619373269447 17.733148216204931 83.895304708341158 0 1 0 -0.5877852598018023 0 0.80901698891910034 forward_v I I I I #
face $-1 $120 $121 $39 $-1 $122 forward single #
loop $-1 $123 $124 $49 #
cone-surface $-1 -41.664727175096864 21.531677660309729 5.4462735961016264 0.5877852598018023 0 -0.80901698891910034 1.2135254833786506 0 0.88167788970270344 1 I I 0 1 1.5 forward I I I I #
face $-1 $125 $126 $30 $-1 $127 reversed single #
loop $-1 $-1 $128 $50 #
plane-surface $-1 0 0 -13.038138654330481 0 0 1 1 0 0 forward_v I I I I #
coedge $-1 $129 $130 $131 $132 forward $51 $-1 #
face $-1 $133 $134 $31 $-1 $135 reversed single #
loop $-1 $-1 $136 $53 #
plane-surface $-1 0 -25.411283595582699 -2.8437315790006972 0 0 1 1 0 0 forward_v I I I I #
coedge $-1 $137 $138 $139 $140 reversed $54 $-1 #
face $-1 $141 $142 $32 $-1 $143 reversed single #
loop $-1 $-1 $144 $56 #
plane-surface $-1 -19.830475319145677 2.2123322039244151 81.716787501559423 0.71933980857756763 0 0.69465836192734942 0.69465836192734942 0 -0.71933980857756763 forward_v I I I I #
coedge $-1 $145 $146 $147 $148 reversed $57 $-1 #
face $-1 $-1 $149 $33 $-1 $150 forward single #
loop $-1 $151 $152 $59 #
cone-surface $-1 46.236631245531697 -1.0968890088360332 8.3442000122753655 -0.71933980857756763 0 -0.69465836192734942 0.34732918096367471 0 -0.35966990428878381 1 I I -0.70710678118654746 0.70710678118654746 0.5 forward I I I I #
loop $-1 $-1 $153 $43 #
coedge $-1 $96 $96 $154 $155 reversed $60 $-1 #
face $-1 $-1 $156 $34 $-1 $157 forward single #
loop $-1 $158 $159 $62 #
cone-surface $-1 46.236631245531697 2.2123322039244151 8.3442000122753655 -0.71933980857756763 0 -0.69465836192734942 0.34732918096367471 0 -0.35966990428878381 1 I I -0.70710678118654746 0.70710678118654746 0.5 forward I I I I #
loop $-1 $-1 $160 $44 #
coedge $-1 $101 $101 $161 $162 reversed $63 $-1 #
face $-1 $-1 $163 $35 $-1 $164 forward single #
loop $-1 $165 $166 $65 #
cone-surface $-1 46.236631245531697 5.5215534166848634 8.3442000122753655 -0.71933980857756763 0 -0.69465836192734942 0.34732918096367471 0 -0.35966990428878381 1 I I -0.70710678118654746 0.70710678118654746 0.5 forward I I I I #
loop $-1 $-1 $167 $45 #
coedge $-1 $106 $106 $168 $169 reversed $66 $-1 #
face $-1 $170 $171 $36 $-1 $172 reversed single #
loop $-1 $-1 $173 $68 #
plane-surface $-1 -50.936613055818341 -3.8796059352729735 1.4781340680301582 -0.5877852598018023 0 0.80901698891910034 0.80901698891910034 0 0.5877852598018023 forward_v I I I I #
coedge $-1 $174 $175 $176 $177 reversed $69 $-1 #
face $-1 $-1 $178 $37 $-1 $179 forward single #
loop $-1 $180 $181 $71 #
cone-surface $-1 -39.90749285081116 -3.8796059352729735 3.0276480893336029 0.5877852598018023 0 -0.80901698891910034 0.60676274168932531 0 0.44083894485135172 1 I I -0.70710678118654757 0.70710678118654757 0.75 forward I I I I #
loop $-1 $-1 $182 $47 #
coedge $-1 $115 $115 $183 $184 reversed $72 $-1 #
face $-1 $185 $186 $38 $-1 $187 reversed single #
loop $-1 $-1 $188 $74 #
plane-surface $-1 -50.936613055818341 21.531677660309729 1.4781340680301582 -0.5877852598018023 0 0.80901698891910034 0.80901698891910034 0 0.5877852598018023 forward_v I I I I #
coedge $-1 $189 $190 $191 $192 reversed $75 $-1 #
face $-1 $-1 $193 $39 $-1 $194 forward single #
loop $-1 $195 $196 $77 #
cone-surface $-1 -39.90749285081116 21.531677660309729 3.0276480893336029 0.5877852598018023 0 -0.80901698891910034 0.60676274168932531 0 0.44083894485135172 1 I I -0.70710678118654757 0.70710678118654757 0.75 forward I I I I #
loop $-1 $-1 $197 $49 #
coedge $-1 $124 $124 $198 $199 reversed $78 $-1 #
face $-1 $200 $201 $30 $-1 $202 reversed single #
loop $-1 $-1 $203 $80 #
plane-surface $-1 0 -31.488766402291294 0 0 1 0 0 0 1 forward_v I I I I #
coedge $-1 $204 $205 $206 $207 forward $81 $-1 #
coedge $-1 $208 $83 $209 $210 forward $51 $-1 #
coedge $-1 $83 $208 $211 $212 forward $51 $-1 #
coedge $-1 $213 $214 $83 $132 reversed $215 $-1 #
edge $-1 $216 -31.488766402291294 $217 31.488766402291294 $131 $218 forward 7 unknown #
face $-1 $219 $220 $31 $-1 $221 reversed single #
loop $-1 $-1 $222 $84 #
plane-surface $-1 0 -19.333800788874104 0.017082822166326395 0 -1 0 0 0 -1 forward_v I I I I #
coedge $-1 $223 $224 $225 $226 reversed $85 $-1 #
coedge $-1 $227 $87 $228 $229 forward $54 $-1 #
coedge $-1 $87 $227 $230 $231 reversed $54 $-1 #
coedge $-1 $232 $233 $87 $140 forward $234 $-1 #
edge $-1 $235 6.6281589910827545 $236 18.783124604499946 $139 $237 forward 7 unknown #
face $-1 $238 $239 $32 $-1 $240 forward single #
loop $-1 $-1 $241 $88 #
plane-surface $-1 53.450991651178342 7.7277008918584897 152.48387587652346 0 -1 0 -0.71933980857756763 0 -0.69465836192734942 forward_v I I I I #
coedge $-1 $242 $243 $244 $245 reversed $89 $-1 #
coedge $-1 $146 $91 $246 $247 reversed $57 $-1 #
coedge $-1 $91 $145 $242 $248 reversed $57 $-1 #
coedge $-1 $244 $249 $91 $148 forward $250 $-1 #
edge $-1 $251 63.203799283931247 $252 67.806617407026309 $147 $253 forward 7 unknown #
loop $-1 $-1 $154 $92 #
plane-surface $-1 -19.830475319145677 2.2123322039244151 81.716787501559423 0.71933980857756763 0 0.69465836192734942 0.69465836192734942 0 -0.71933980857756763 forward_v I I I I #
loop $-1 $-1 $254 $59 #
coedge $-1 $152 $152 $153 $255 reversed $93 $-1 #
coedge $-1 $153 $153 $152 $255 forward $95 $-1 #
coedge $-1 $154 $154 $96 $155 forward $149 $-1 #
edge $-1 $256 0 $256 6.2831853071796004 $154 $257 forward 7 unknown #
loop $-1 $-1 $161 $97 #
plane-surface $-1 -19.830475319145677 2.2123322039244151 81.716787501559423 0.71933980857756763 0 0.69465836192734942 0.69465836192734942 0 -0.71933980857756763 forward_v I I I I #
loop $-1 $-1 $258 $62 #
coedge $-1 $159 $159 $160 $259 reversed $98 $-1 #
coedge $-1 $160 $160 $159 $259 forward $100 $-1 #
coedge $-1 $161 $161 $101 $162 forward $156 $-1 #
edge $-1 $260 0 $260 6.2831853071796004 $161 $261 forward 7 unknown #
loop $-1 $-1 $168 $102 #
plane-surface $-1 -19.830475319145677 2.2123322039244151 81.716787501559423 0.71933980857756763 0 0.69465836192734942 0.69465836192734942 0 -0.71933980857756763 forward_v I I I I #
loop $-1 $-1 $262 $65 #
coedge $-1 $166 $166 $167 $263 reversed $103 $-1 #
coedge $-1 $167 $167 $166 $263 forward $105 $-1 #
coedge $-1 $168 $168 $106 $169 forward $163 $-1 #
edge $-1 $264 0 $264 6.2831853071796004 $168 $265 forward 7 unknown #
face $-1 $266 $267 $36 $-1 $268 reversed single #
loop $-1 $-1 $269 $107 #
plane-surface $-1 -110.81619373269447 -0.081076491168177611 83.895304708341158 0 -1 0 0.5877852598018023 0 -0.80901698891910034 forward_v I I I I #
coedge $-1 $270 $271 $272 $273 reversed $108 $-1 #
coedge $-1 $175 $110 $274 $275 reversed $69 $-1 #
coedge $-1 $110 $174 $270 $276 reversed $69 $-1 #
coedge $-1 $272 $277 $110 $177 forward $278 $-1 #
edge $-1 $279 4.4714838105288806 $280 20.382464813103198 $176 $281 forward 7 unknown #
loop $-1 $-1 $183 $111 #
plane-surface $-1 -50.936613055818341 -3.8796059352729735 1.4781340680301582 -0.5877852598018023 0 0.80901698891910034 0.80901698891910034 0 0.5877852598018023 forward_v I I I I #
loop $-1 $-1 $282 $71 #
coedge $-1 $181 $181 $182 $283 reversed $112 $-1 #
coedge $-1 $182 $182 $181 $283 forward $114 $-1 #
coedge $-1 $183 $183 $115 $184 forward $178 $-1 #
edge $-1 $284 0 $284 6.2831853071796004 $183 $285 forward 7 unknown #
face $-1 $286 $287 $38 $-1 $288 forward single #
loop $-1 $-1 $289 $116 #
plane-surface $-1 -110.81619373269447 25.330207104414526 83.895304708341158 0 -1 0 0.5877852598018023 0 -0.80901698891910034 forward_v I I I I #
coedge $-1 $290 $291 $292 $293 reversed $117 $-1 #
coedge $-1 $190 $119 $294 $295 reversed $75 $-1 #
coedge $-1 $119 $189 $290 $296 reversed $75 $-1 #
coedge $-1 $292 $297 $119 $192 forward $287 $-1 #
edge $-1 $298 4.4714838105288806 $299 20.382464813103198 $191 $300 forward 7 unknown #
loop $-1 $-1 $198 $120 #
plane-surface $-1 -50.936613055818341 21.531677660309729 1.4781340680301582 -0.5877852598018023 0 0.80901698891910034 0.80901698891910034 0 0.5877852598018023 forward_v I I I I #
loop $-1 $-1 $301 $77 #
coedge $-1 $196 $196 $197 $302 reversed $121 $-1 #
coedge $-1 $197 $197 $196 $302 forward $123 $-1 #
coedge $-1 $198 $198 $124 $199 forward $193 $-1 #
edge $-1 $303 0 $303 6.2831853071796004 $198 $304 forward 7 unknown #
face $-1 $305 $306 $30 $-1 $307 reversed single #
loop $-1 $-1 $308 $125 #
plane-surface $-1 -50.936613055818356 0 0 1 0 0 0 0 -1 forward_v I I I I #
coedge $-1 $309 $211 $310 $311 forward $126 $-1 #
coedge $-1 $312 $128 $309 $313 forward $81 $-1 #
coedge $-1 $128 $312 $314 $315 forward $81 $-1 #
coedge $-1 $214 $213 $128 $207 reversed $215 $-1 #
edge $-1 $316 -31.488766402291294 $317 31.488766402291294 $206 $318 forward 7 unknown #
coedge $-1 $130 $129 $319 $320 forward $51 $-1 #
coedge $-1 $321 $322 $129 $210 reversed $306 $-1 #
edge $-1 $217 -50.936613055818356 $323 50.936613055818356 $209 $324 forward 7 unknown #
coedge $-1 $203 $325 $130 $212 reversed $126 $-1 #
edge $-1 $326 -50.936613055818356 $216 50.936613055818356 $211 $327 forward 7 unknown #
coedge $-1 $206 $131 $325 $328 forward $215 $-1 #
coedge $-1 $131 $206 $321 $329 reversed $215 $-1 #
loop $-1 $-1 $213 $305 #
vertex $-1 $132 $330 #
vertex $-1 $132 $331 #
straight-curve $-1 50.936613055818356 0 13.038138654330481 0 1 0 I I #
face $-1 $332 $333 $31 $-1 $334 reversed single #
loop $-1 $-1 $335 $133 #
plane-surface $-1 -50.936613055818356 0 0 1 0 0 0 0 -1 forward_v I I I I #
coedge $-1 $336 $228 $233 $337 reversed $134 $-1 #
coedge $-1 $338 $136 $339 $340 reversed $85 $-1 #
coedge $-1 $136 $338 $336 $341 forward $85 $-1 #
coedge $-1 $233 $232 $136 $226 forward $234 $-1 #
edge $-1 $342 -18.783124604499946 $343 -6.6281589910827545 $225 $344 forward 7 unknown #
coedge $-1 $138 $137 $335 $345 reversed $54 $-1 #
coedge $-1 $222 $346 $137 $229 reversed $134 $-1 #
edge $-1 $235 -50.936613055818356 $347 50.936613055818356 $228 $348 forward 7 unknown #
coedge $-1 $349 $350 $138 $231 forward $333 $-1 #
edge $-1 $236 -50.936613055818356 $351 50.936613055818356 $230 $352 forward 7 unknown #
coedge $-1 $225 $139 $350 $353 forward $234 $-1 #
coedge $-1 $139 $225 $222 $337 forward $234 $-1 #
loop $-1 $-1 $139 $332 #
vertex $-1 $140 $354 #
vertex $-1 $353 $355 #
straight-curve $-1 50.936613055818356 -12.705641797791349 2.87789722333335 0 -1 0 I I #
face $-1 $-1 $250 $32 $-1 $356 reversed single #
loop $-1 $-1 $357 $141 #
plane-surface $-1 0 0 13.038138654330481 0 0 1 1 0 0 forward_v I I I I #
coedge $-1 $358 $359 $360 $361 reversed $142 $-1 #
coedge $-1 $362 $144 $146 $248 forward $89 $-1 #
coedge $-1 $144 $362 $358 $363 forward $89 $-1 #
coedge $-1 $360 $147 $144 $245 forward $250 $-1 #
edge $-1 $252 -4.4092025859718671 $364 6.6215347898962822 $244 $365 forward 7 unknown #
coedge $-1 $366 $367 $145 $247 forward $239 $-1 #
edge $-1 $368 19.7662275417782 $251 24.211117230229185 $246 $369 forward 7 unknown #
edge $-1 $252 -101.87322611163671 $368 -95.474556014125 $146 $370 forward 7 unknown #
coedge $-1 $147 $360 $366 $371 reversed $250 $-1 #
loop $-1 $-1 $360 $238 #
vertex $-1 $371 $372 #
vertex $-1 $148 $373 #
straight-curve $-1 50.936613055818356 -3.3030364840096595 76.241937938261728 0 0 -1 I I #
coedge $-1 $254 $254 $-1 $374 reversed $151 $-1 #
edge $-1 $375 0 $375 6.2831853071796004 $152 $376 forward 7 unknown #
vertex $-1 $155 $377 #
ellipse-curve $-1 48.714168211592863 -1.0968890088360332 10.736729592782966 0.71933980857756763 0 0.69465836192734942 0.69465836192734942 0 -0.71933980857756763 1 I I #
coedge $-1 $258 $258 $-1 $378 reversed $158 $-1 #
edge $-1 $379 0 $379 6.2831853071796004 $159 $380 forward 7 unknown #
vertex $-1 $162 $381 #
ellipse-curve $-1 48.714168211592863 2.2123322039244151 10.736729592782966 0.71933980857756763 0 0.69465836192734942 0.69465836192734942 0 -0.71933980857756763 1 I I #
coedge $-1 $262 $262 $-1 $382 reversed $165 $-1 #
edge $-1 $383 0 $383 6.2831853071796004 $166 $384 forward 7 unknown #
vertex $-1 $169 $385 #
ellipse-curve $-1 48.714168211592863 5.5215534166848634 10.736729592782966 0.71933980857756763 0 0.69465836192734942 0.69465836192734942 0 -0.71933980857756763 1 I I #
face $-1 $-1 $278 $36 $-1 $386 forward single #
loop $-1 $-1 $387 $170 #
plane-surface $-1 -50.936613055818356 0 0 1 0 0 0 0 -1 forward_v I I I I #
coedge $-1 $388 $389 $390 $391 reversed $171 $-1 #
coedge $-1 $392 $173 $175 $276 forward $108 $-1 #
coedge $-1 $173 $392 $388 $393 forward $108 $-1 #
coedge $-1 $390 $176 $173 $273 forward $278 $-1 #
edge $-1 $280 -5.7383324117412826 $394 1.8587264764683091 $272 $395 forward 7 unknown #
coedge $-1 $396 $397 $174 $275 forward $267 $-1 #
edge $-1 $398 -40.469518286140428 $279 -28.909513699840097 $274 $399 forward 7 unknown #
edge $-1 $280 -19.667054240520233 $398 1.7500491998158137e-014 $175 $400 forward 7 unknown #
coedge $-1 $176 $390 $396 $401 forward $278 $-1 #
loop $-1 $-1 $390 $266 #
vertex $-1 $275 $402 #
vertex $-1 $177 $403 #
straight-curve $-1 -55.408096866347236 -7.6781353793777694 13.038138654330481 1 0 0 I I #
coedge $-1 $282 $282 $-1 $404 reversed $180 $-1 #
edge $-1 $405 0 $405 6.2831853071796004 $181 $406 forward 7 unknown #
vertex $-1 $184 $407 #
ellipse-curve $-1 -42.981122554531204 -3.8796059352729735 7.2581363611803091 -0.5877852598018023 0 0.80901698891910034 1.2135254833786506 0 0.88167788970270344 1 I I #
face $-1 $-1 $408 $38 $-1 $409 reversed single #
loop $-1 $-1 $191 $185 #
plane-surface $-1 0 0 13.038138654330481 0 0 1 1 0 0 forward_v I I I I #
coedge $-1 $410 $411 $412 $413 reversed $186 $-1 #
coedge $-1 $414 $188 $190 $296 forward $117 $-1 #
coedge $-1 $188 $414 $410 $415 forward $117 $-1 #
coedge $-1 $412 $191 $188 $293 forward $287 $-1 #
edge $-1 $299 6.9673093860500668 $416 14.564368274259662 $292 $417 forward 7 unknown #
coedge $-1 $418 $419 $189 $295 forward $408 $-1 #
edge $-1 $420 -40.469518286140428 $298 -28.909513699840097 $294 $421 forward 7 unknown #
edge $-1 $299 -19.667054240520233 $420 1.7500491998158137e-014 $190 $422 forward 7 unknown #
coedge $-1 $191 $412 $418 $423 forward $287 $-1 #
vertex $-1 $192 $424 #
vertex $-1 $192 $425 #
straight-curve $-1 -55.408096866347236 17.733148216204931 13.038138654330481 1 0 0 I I #
coedge $-1 $301 $301 $-1 $426 reversed $195 $-1 #
edge $-1 $427 0 $427 6.2831853071796004 $196 $428 forward 7 unknown #
vertex $-1 $199 $429 #
ellipse-curve $-1 -42.981122554531204 21.531677660309729 7.2581363611803091 -0.5877852598018023 0 0.80901698891910034 1.2135254833786506 0 0.88167788970270344 1 I I #
face $-1 $-1 $215 $30 $-1 $430 reversed single #
loop $-1 $-1 $321 $200 #
plane-surface $-1 0 31.488766402291294 0 0 -1 0 0 0 -1 forward_v I I I I #
coedge $-1 $431 $319 $322 $432 forward $201 $-1 #
coedge $-1 $325 $203 $204 $313 reversed $126 $-1 #
coedge $-1 $319 $431 $203 $311 reversed $201 $-1 #
edge $-1 $326 -13.038138654330481 $433 13.038138654330481 $310 $434 forward 7 unknown #
coedge $-1 $205 $204 $431 $435 forward $81 $-1 #
edge $-1 $317 -50.936613055818356 $433 50.936613055818356 $309 $436 forward 7 unknown #
coedge $-1 $322 $321 $205 $315 reversed $306 $-1 #
edge $-1 $437 -50.936613055818356 $316 50.936613055818356 $314 $438 forward 7 unknown #
vertex $-1 $207 $439 #
vertex $-1 $328 $440 #
straight-curve $-1 50.936613055818356 0 -13.038138654330481 0 -1 0 I I #
coedge $-1 $308 $310 $208 $320 reversed $201 $-1 #
edge $-1 $323 -31.488766402291294 $326 31.488766402291294 $319 $441 forward 7 unknown #
coedge $-1 $314 $209 $214 $329 forward $306 $-1 #
coedge $-1 $209 $314 $308 $432 reversed $306 $-1 #
vertex $-1 $210 $442 #
straight-curve $-1 0 31.488766402291294 13.038138654330481 -1 0 0 I I #
coedge $-1 $211 $309 $213 $328 reversed $126 $-1 #
vertex $-1 $320 $443 #
straight-curve $-1 0 -31.488766402291294 13.038138654330481 1 0 0 I I #
edge $-1 $216 -13.038138654330481 $317 13.038138654330481 $213 $444 forward 7 unknown #
edge $-1 $217 -13.038138654330481 $316 13.038138654330481 $214 $445 forward 7 unknown #
point $-1 50.936613055818356 -31.488766402291294 13.038138654330481 #
point $-1 50.936613055818356 31.488766402291294 13.038138654330481 #
face $-1 $-1 $234 $31 $-1 $446 reversed single #
loop $-1 $-1 $230 $219 #
plane-surface $-1 0 -31.488766402291294 0 0 1 0 0 0 1 forward_v I I I I #
coedge $-1 $447 $448 $227 $345 forward $220 $-1 #
coedge $-1 $346 $222 $224 $341 reversed $134 $-1 #
edge $-1 $343 -2.8522729900838604 $235 2.8693558122501868 $233 $449 forward 7 unknown #
coedge $-1 $224 $223 $450 $451 reversed $85 $-1 #
coedge $-1 $350 $349 $223 $340 forward $333 $-1 #
edge $-1 $452 -50.936613055818356 $342 50.936613055818356 $339 $453 forward 7 unknown #
edge $-1 $454 -50.936613055818356 $343 50.936613055818356 $336 $455 forward 7 unknown #
vertex $-1 $340 $456 #
vertex $-1 $226 $457 #
straight-curve $-1 50.936613055818356 -12.705641797791349 -2.8437315790006972 0 1 0 I I #
edge $-1 $351 -18.783124604499946 $347 -6.6281589910827545 $335 $458 forward 7 unknown #
coedge $-1 $228 $336 $447 $459 reversed $134 $-1 #
vertex $-1 $345 $460 #
straight-curve $-1 0 -19.333800788874104 2.87789722333335 -1 0 0 I I #
coedge $-1 $339 $230 $448 $461 forward $333 $-1 #
coedge $-1 $230 $339 $232 $353 reversed $333 $-1 #
vertex $-1 $461 $462 #
straight-curve $-1 0 -31.488766402291294 2.87789722333335 -1 0 0 I I #
edge $-1 $236 -2.87789722333335 $342 2.8437315790006972 $232 $463 forward 7 unknown #
point $-1 50.936613055818356 -19.333800788874104 2.87789722333335 #
point $-1 50.936613055818356 -31.488766402291294 2.87789722333335 #
plane-surface $-1 50.936613055818356 0 0 -1 0 0 0 0 1 forward_v I I I I #
coedge $-1 $367 $366 $359 $464 forward $239 $-1 #
coedge $-1 $359 $241 $243 $363 reversed $142 $-1 #
coedge $-1 $241 $358 $357 $464 reversed $142 $-1 #
coedge $-1 $249 $244 $241 $361 forward $250 $-1 #
edge $-1 $364 -67.806617407026309 $465 -63.203799283931247 $360 $466 forward 7 unknown #
coedge $-1 $243 $242 $367 $467 reversed $89 $-1 #
edge $-1 $468 95.474556014125 $364 101.87322611163671 $358 $469 forward 7 unknown #
vertex $-1 $245 $470 #
straight-curve $-1 50.936613055818356 1.1061661019622075 8.4353205312354191 0 1 0 I I #
coedge $-1 $357 $246 $249 $371 forward $239 $-1 #
coedge $-1 $246 $357 $362 $467 forward $239 $-1 #
vertex $-1 $247 $471 #
straight-curve $-1 26.725495825589171 -3.3030364840096595 13.038138654330481 1 0 0 I I #
straight-curve $-1 -19.830475319145677 -3.3030364840096595 81.716787501559423 -0.69465836192734942 0 0.71933980857756763 I I #
edge $-1 $251 -3.3030364840096595 $465 7.7277008918584897 $249 $472 forward 7 unknown #
point $-1 50.936613055818356 -3.3030364840096595 13.038138654330481 #
point $-1 50.936613055818356 -3.3030364840096595 8.4353205312354191 #
edge $-1 $473 1 $473 0 $254 $-1 forward 7 unknown #
vertex $-1 $255 $474 #
ellipse-curve $-1 46.596301149820484 -1.0968890088360332 8.6915291932390399 0.71933980857756763 0 0.69465836192734942 0.69465836192734942 0 -0.71933980857756763 1 I I #
point $-1 49.408826573520194 -1.0968890088360332 10.017389784205381 #
edge $-1 $475 1 $475 0 $258 $-1 forward 7 unknown #
vertex $-1 $259 $476 #
ellipse-curve $-1 46.596301149820484 2.2123322039244151 8.6915291932390399 0.71933980857756763 0 0.69465836192734942 0.69465836192734942 0 -0.71933980857756763 1 I I #
point $-1 49.408826573520194 2.2123322039244151 10.017389784205381 #
edge $-1 $477 1 $477 0 $262 $-1 forward 7 unknown #
vertex $-1 $263 $478 #
ellipse-curve $-1 46.596301149820484 5.5215534166848634 8.6915291932390399 0.71933980857756763 0 0.69465836192734942 0.69465836192734942 0 -0.71933980857756763 1 I I #
point $-1 49.408826573520194 5.5215534166848634 10.017389784205381 #
plane-surface $-1 0 0 13.038138654330481 0 0 1 1 0 0 forward_v I I I I #
coedge $-1 $397 $396 $389 $479 forward $267 $-1 #
coedge $-1 $389 $269 $271 $393 reversed $171 $-1 #
coedge $-1 $269 $388 $387 $479 reversed $171 $-1 #
coedge $-1 $277 $272 $269 $391 forward $278 $-1 #
edge $-1 $394 -20.382464813103198 $480 -4.4714838105288806 $390 $481 forward 7 unknown #
coedge $-1 $271 $270 $397 $482 reversed $108 $-1 #
edge $-1 $483 -1.7500491998158137e-014 $394 19.667054240520233 $388 $484 forward 7 unknown #
vertex $-1 $273 $485 #
straight-curve $-1 -35.025632053244038 -1.9398029676364867 13.038138654330481 0 1 0 I I #
coedge $-1 $387 $274 $277 $401 reversed $267 $-1 #
coedge $-1 $274 $387 $392 $482 forward $267 $-1 #
vertex $-1 $275 $486 #
straight-curve $-1 -50.936613055818356 -7.6781353793777694 41.947652354170579 0 0 1 I I #
straight-curve $-1 -50.936613055818341 -7.6781353793777694 1.4781340680301582 -0.80901698891910034 0 -0.5877852598018023 I I #
edge $-1 $480 0.081076491168177611 $279 7.6781353793777694 $396 $487 forward 7 unknown #
point $-1 -50.936613055818356 -7.6781353793777694 13.038138654330481 #
point $-1 -35.025632053244038 -7.6781353793777694 13.038138654330481 #
edge $-1 $488 1 $488 0 $282 $-1 forward 7 unknown #
vertex $-1 $283 $489 #
ellipse-curve $-1 -40.34833179566251 -3.8796059352729735 3.6344108310229282 -0.5877852598018023 0 0.80901698891910034 1.2135254833786506 0 0.88167788970270344 1 I I #
point $-1 -41.767597071152565 -3.8796059352729735 8.1398142508830276 #
loop $-1 $-1 $294 $286 #
plane-surface $-1 -50.936613055818356 0 0 1 0 0 0 0 -1 forward_v I I I I #
coedge $-1 $411 $289 $291 $415 reversed $186 $-1 #
coedge $-1 $289 $410 $490 $491 reversed $186 $-1 #
coedge $-1 $297 $292 $289 $413 forward $287 $-1 #
edge $-1 $416 -20.382464813103198 $492 -4.4714838105288806 $412 $493 forward 7 unknown #
coedge $-1 $291 $290 $419 $494 reversed $117 $-1 #
edge $-1 $495 -1.7500491998158137e-014 $416 19.667054240520233 $410 $496 forward 7 unknown #
vertex $-1 $293 $497 #
straight-curve $-1 -35.025632053244038 10.765838830154864 13.038138654330481 0 1 0 I I #
coedge $-1 $490 $294 $297 $423 reversed $408 $-1 #
coedge $-1 $294 $490 $414 $494 forward $408 $-1 #
vertex $-1 $295 $498 #
straight-curve $-1 -50.936613055818356 17.733148216204931 41.947652354170579 0 0 1 I I #
straight-curve $-1 -50.936613055818341 17.733148216204931 1.4781340680301582 -0.80901698891910034 0 -0.5877852598018023 I I #
edge $-1 $492 -25.330207104414526 $298 -17.733148216204931 $418 $499 forward 7 unknown #
point $-1 -50.936613055818356 17.733148216204931 13.038138654330481 #
point $-1 -35.025632053244038 17.733148216204931 13.038138654330481 #
edge $-1 $500 1 $500 0 $301 $-1 forward 7 unknown #
vertex $-1 $302 $501 #
ellipse-curve $-1 -40.34833179566251 21.531677660309729 3.6344108310229282 -0.5877852598018023 0 0.80901698891910034 1.2135254833786506 0 0.88167788970270344 1 I I #
point $-1 -41.767597071152565 21.531677660309729 8.1398142508830276 #
plane-surface $-1 50.936613055818356 0 0 -1 0 0 0 0 1 forward_v I I I I #
coedge $-1 $310 $308 $312 $435 reversed $201 $-1 #
edge $-1 $323 -13.038138654330481 $437 13.038138654330481 $322 $502 forward 7 unknown #
vertex $-1 $435 $503 #
straight-curve $-1 -50.936613055818356 -31.488766402291294 0 0 0 -1 I I #
edge $-1 $433 -31.488766402291294 $437 31.488766402291294 $431 $504 forward 7 unknown #
straight-curve $-1 0 -31.488766402291294 -13.038138654330481 -1 0 0 I I #
vertex $-1 $315 $505 #
straight-curve $-1 0 31.488766402291294 -13.038138654330481 1 0 0 I I #
point $-1 50.936613055818356 31.488766402291294 -13.038138654330481 #
point $-1 50.936613055818356 -31.488766402291294 -13.038138654330481 #
straight-curve $-1 -50.936613055818356 0 13.038138654330481 0 -1 0 I I #
point $-1 -50.936613055818356 31.488766402291294 13.038138654330481 #
point $-1 -50.936613055818356 -31.488766402291294 13.038138654330481 #
straight-curve $-1 50.936613055818356 -31.488766402291294 0 0 0 -1 I I #
straight-curve $-1 50.936613055818356 31.488766402291294 0 0 0 -1 I I #
plane-surface $-1 50.936613055818356 0 0 -1 0 0 0 0 1 forward_v I I I I #
coedge $-1 $450 $335 $346 $459 forward $220 $-1 #
coedge $-1 $335 $450 $349 $461 reversed $220 $-1 #
straight-curve $-1 50.936613055818356 -19.333800788874104 0.0085414110831631973 0 0 1 I I #
coedge $-1 $448 $447 $338 $451 forward $220 $-1 #
edge $-1 $454 6.6281589910827545 $452 18.783124604499946 $450 $506 forward 7 unknown #
vertex $-1 $340 $507 #
straight-curve $-1 0 -31.488766402291294 -2.8437315790006972 1 0 0 I I #
vertex $-1 $451 $508 #
straight-curve $-1 0 -19.333800788874104 -2.8437315790006972 1 0 0 I I #
point $-1 50.936613055818356 -31.488766402291294 -2.8437315790006972 #
point $-1 50.936613055818356 -19.333800788874104 -2.8437315790006972 #
straight-curve $-1 -50.936613055818356 -12.705641797791349 2.87789722333335 0 1 0 I I #
edge $-1 $347 -2.8693558122501868 $454 2.8522729900838604 $447 $509 forward 7 unknown #
point $-1 -50.936613055818356 -19.333800788874104 2.87789722333335 #
edge $-1 $351 -2.87789722333335 $452 2.8437315790006972 $448 $510 forward 7 unknown #
point $-1 -50.936613055818356 -31.488766402291294 2.87789722333335 #
straight-curve $-1 50.936613055818356 -31.488766402291294 0 0 0 -1 I I #
edge $-1 $465 -24.211117230229185 $468 -19.7662275417782 $357 $511 forward 7 unknown #
vertex $-1 $464 $512 #
straight-curve $-1 50.936613055818356 7.7277008918584897 76.241937938261728 0 0 1 I I #
edge $-1 $468 -6.6215347898962822 $368 4.4092025859718671 $367 $513 forward 7 unknown #
vertex $-1 $467 $514 #
straight-curve $-1 -19.830475319145677 7.7277008918584897 81.716787501559423 0.69465836192734942 0 -0.71933980857756763 I I #
point $-1 50.936613055818356 7.7277008918584897 8.4353205312354191 #
point $-1 46.491723367367371 -3.3030364840096595 13.038138654330481 #
straight-curve $-1 50.936613055818356 0 13.038138654330481 0 1 0 I I #
vertex $-1 $374 $515 #
point $-1 47.290959511747829 -1.0968890088360332 7.9721893846614726 #
vertex $-1 $378 $516 #
point $-1 47.290959511747829 2.2123322039244151 7.9721893846614726 #
vertex $-1 $382 $517 #
point $-1 47.290959511747829 5.5215534166848634 7.9721893846614726 #
edge $-1 $480 28.909513699840097 $483 40.469518286140428 $387 $518 forward 7 unknown #
vertex $-1 $401 $519 #
straight-curve $-1 -55.408096866347236 -0.081076491168177611 13.038138654330481 -1 0 0 I I #
edge $-1 $483 -1.8587264764683091 $398 5.7383324117412826 $397 $520 forward 7 unknown #
vertex $-1 $482 $521 #
straight-curve $-1 -50.936613055818341 -0.081076491168177611 1.4781340680301582 0.80901698891910034 0 0.5877852598018023 I I #
point $-1 -35.025632053244038 -0.081076491168177611 13.038138654330481 #
point $-1 -50.936613055818356 -7.6781353793777694 1.478134068030148 #
straight-curve $-1 -50.936613055818356 0 13.038138654330481 0 -1 0 I I #
vertex $-1 $404 $522 #
point $-1 -39.134806312283864 -3.8796059352729735 4.5160887207256319 #
coedge $-1 $419 $418 $411 $491 forward $408 $-1 #
edge $-1 $492 28.909513699840097 $495 40.469518286140428 $490 $523 forward 7 unknown #
vertex $-1 $423 $524 #
straight-curve $-1 -55.408096866347236 25.330207104414526 13.038138654330481 -1 0 0 I I #
edge $-1 $495 -14.564368274259662 $420 -6.9673093860500668 $419 $525 forward 7 unknown #
vertex $-1 $494 $526 #
straight-curve $-1 -50.936613055818341 25.330207104414526 1.4781340680301582 0.80901698891910034 0 0.5877852598018023 I I #
point $-1 -35.025632053244038 25.330207104414526 13.038138654330481 #
point $-1 -50.936613055818356 17.733148216204931 1.478134068030148 #
straight-curve $-1 -50.936613055818356 0 13.038138654330481 0 -1 0 I I #
vertex $-1 $426 $527 #
point $-1 -39.134806312283864 21.531677660309729 4.5160887207256319 #
straight-curve $-1 -50.936613055818356 31.488766402291294 0 0 0 -1 I I #
point $-1 -50.936613055818356 -31.488766402291294 -13.038138654330481 #
straight-curve $-1 -50.936613055818356 0 -13.038138654330481 0 1 0 I I #
point $-1 -50.936613055818356 31.488766402291294 -13.038138654330481 #
straight-curve $-1 -50.936613055818356 -12.705641797791349 -2.8437315790006972 0 -1 0 I I #
point $-1 -50.936613055818356 -31.488766402291294 -2.8437315790006972 #
point $-1 -50.936613055818356 -19.333800788874104 -2.8437315790006972 #
straight-curve $-1 -50.936613055818356 -19.333800788874104 0.0085414110831631973 0 0 -1 I I #
straight-curve $-1 -50.936613055818356 -31.488766402291294 0 0 0 -1 I I #
straight-curve $-1 26.725495825589171 7.7277008918584897 13.038138654330481 -1 0 0 I I #
point $-1 50.936613055818356 7.7277008918584897 13.038138654330481 #
straight-curve $-1 46.491723367367371 1.1061661019622075 13.038138654330488 0 -1 0 I I #
point $-1 46.491723367367371 7.7277008918584897 13.038138654330481 #
point $-1 45.876961341242911 -1.0968890088360332 7.996870831311691 #
point $-1 45.876961341242911 2.2123322039244151 7.996870831311691 #
point $-1 45.876961341242911 5.5215534166848634 7.996870831311691 #
straight-curve $-1 -50.936613055818356 -0.081076491168177611 41.947652354170579 0 0 -1 I I #
point $-1 -50.936613055818356 -0.081076491168177611 13.038138654330481 #
straight-curve $-1 -50.936613055818356 -1.9398029676364867 1.4781340680301476 0 -1 0 I I #
point $-1 -50.936613055818356 -0.081076491168177611 1.478134068030148 #
point $-1 -39.466653905959809 -3.8796059352729735 2.4208853476442775 #
straight-curve $-1 -50.936613055818356 25.330207104414526 41.947652354170579 0 0 -1 I I #
point $-1 -50.936613055818356 25.330207104414526 13.038138654330481 #
straight-curve $-1 -50.936613055818356 10.765838830154864 1.4781340680301476 0 -1 0 I I #
point $-1 -50.936613055818356 25.330207104414526 1.478134068030148 #
point $-1 -39.466653905959809 21.531677660309729 2.4208853476442775 #
End-of-ACIS-data 