500 0 18 0           
7 Unknown 11 ACIS 5.0 NT 24 Fri Mar 26 17:08:08 1999 
-1 9.9999999999999995e-007 1e-010 
body $-1 $18 $-1 $19 #
body $-1 $20 $-1 $21 #
body $-1 $22 $-1 $23 #
body $-1 $24 $-1 $25 #
body $-1 $26 $-1 $27 #
body $-1 $28 $-1 $29 #
body $-1 $30 $-1 $31 #
body $-1 $32 $-1 $33 #
body $-1 $34 $-1 $35 #
body $-1 $36 $-1 $37 #
body $-1 $38 $-1 $39 #
body $-1 $40 $-1 $41 #
body $-1 $42 $-1 $43 #
body $-1 $44 $-1 $45 #
body $-1 $46 $-1 $47 #
body $-1 $48 $-1 $49 #
body $-1 $50 $-1 $51 #
body $-1 $52 $-1 $53 #
lump $-1 $-1 $54 $0 #
transform $-1 1 0 0 0 1 0 0 0 1 73.619190038758504 47.116551234559303 17.769613234242897 1 rotate no_reflect no_shear #
lump $-1 $-1 $55 $1 #
transform $-1 1 0 0 0 1 0 0 0 1 73.619190038758504 47.116551234559303 17.769613234242897 1 rotate no_reflect no_shear #
lump $-1 $-1 $56 $2 #
transform $-1 1 0 0 0 1 0 0 0 1 73.619190038758504 47.116551234559303 17.769613234242897 1 rotate no_reflect no_shear #
lump $-1 $-1 $57 $3 #
transform $-1 1 0 0 0 1 0 0 0 1 73.619190038758504 47.116551234559303 17.769613234242897 1 rotate no_reflect no_shear #
lump $-1 $-1 $58 $4 #
transform $-1 1 0 0 0 1 0 0 0 1 73.619190038758504 47.116551234559303 17.769613234242897 1 rotate no_reflect no_shear #
lump $-1 $-1 $59 $5 #
transform $-1 1 0 0 0 1 0 0 0 1 73.619190038758504 47.116551234559303 17.769613234242897 1 rotate no_reflect no_shear #
lump $-1 $-1 $60 $6 #
transform $-1 1 0 0 0 1 0 0 0 1 73.619190038758504 47.116551234559303 17.769613234242897 1 rotate no_reflect no_shear #
lump $-1 $-1 $61 $7 #
transform $-1 1 0 0 0 1 0 0 0 1 73.619190038758504 47.116551234559303 17.769613234242897 1 rotate no_reflect no_shear #
lump $-1 $-1 $62 $8 #
transform $-1 1 0 0 0 1 0 0 0 1 73.619190038758504 47.116551234559303 17.769613234242897 1 rotate no_reflect no_shear #
lump $-1 $-1 $63 $9 #
transform $-1 1 0 0 0 1 0 0 0 1 73.619190038758504 47.116551234559303 17.769613234242897 1 rotate no_reflect no_shear #
lump $-1 $-1 $64 $10 #
transform $-1 1 0 0 0 1 0 0 0 1 73.619190038758504 47.116551234559303 17.769613234242897 1 rotate no_reflect no_shear #
lump $-1 $-1 $65 $11 #
transform $-1 1 0 0 0 1 0 0 0 1 73.619190038758504 47.116551234559303 17.769613234242897 1 rotate no_reflect no_shear #
lump $-1 $-1 $66 $12 #
transform $-1 1 0 0 0 1 0 0 0 1 73.619190038758504 47.116551234559303 17.769613234242897 1 rotate no_reflect no_shear #
lump $-1 $-1 $67 $13 #
transform $-1 1 0 0 0 1 0 0 0 1 73.619190038758504 47.116551234559303 17.769613234242897 1 rotate no_reflect no_shear #
lump $-1 $-1 $68 $14 #
transform $-1 1 0 0 0 1 0 0 0 1 73.619190038758504 47.116551234559303 17.769613234242897 1 rotate no_reflect no_shear #
lump $-1 $-1 $69 $15 #
transform $-1 1 0 0 0 1 0 0 0 1 73.619190038758504 47.116551234559303 17.769613234242897 1 rotate no_reflect no_shear #
lump $-1 $-1 $70 $16 #
transform $-1 1 0 0 0 1 0 0 0 1 73.619190038758504 47.116551234559303 17.769613234242897 1 rotate no_reflect no_shear #
lump $-1 $-1 $71 $17 #
transform $-1 1 0 0 0 1 0 0 0 1 73.619190038758504 47.116551234559303 17.769613234242897 1 rotate no_reflect no_shear #
shell $-1 $-1 $-1 $72 $-1 $18 #
shell $-1 $-1 $-1 $73 $-1 $20 #
shell $-1 $-1 $-1 $74 $-1 $22 #
shell $-1 $-1 $-1 $75 $-1 $24 #
shell $-1 $-1 $-1 $76 $-1 $26 #
shell $-1 $-1 $-1 $77 $-1 $28 #
shell $-1 $-1 $-1 $78 $-1 $30 #
shell $-1 $-1 $-1 $79 $-1 $32 #
shell $-1 $-1 $-1 $80 $-1 $34 #
shell $-1 $-1 $-1 $81 $-1 $36 #
shell $-1 $-1 $-1 $82 $-1 $38 #
shell $-1 $-1 $-1 $83 $-1 $40 #
shell $-1 $-1 $-1 $84 $-1 $42 #
shell $-1 $-1 $-1 $85 $-1 $44 #
shell $-1 $-1 $-1 $86 $-1 $46 #
shell $-1 $-1 $-1 $87 $-1 $48 #
shell $-1 $-1 $-1 $88 $-1 $50 #
shell $-1 $-1 $-1 $89 $-1 $52 #
face $-1 $90 $91 $54 $-1 $92 forward single #
face $-1 $93 $94 $55 $-1 $95 reversed single #
face $-1 $96 $97 $56 $-1 $98 reversed single #
face $-1 $99 $100 $57 $-1 $101 forward single #
face $-1 $102 $103 $58 $-1 $104 forward single #
face $-1 $105 $106 $59 $-1 $107 forward single #
face $-1 $108 $109 $60 $-1 $110 reversed single #
face $-1 $111 $112 $61 $-1 $113 forward single #
face $-1 $114 $115 $62 $-1 $116 forward single #
face $-1 $117 $118 $63 $-1 $119 forward single #
face $-1 $120 $121 $64 $-1 $122 reversed single #
face $-1 $123 $124 $65 $-1 $125 forward single #
face $-1 $126 $127 $66 $-1 $128 forward single #
face $-1 $129 $130 $67 $-1 $131 forward single #
face $-1 $132 $133 $68 $-1 $134 reversed single #
face $-1 $135 $136 $69 $-1 $137 forward single #
face $-1 $138 $139 $70 $-1 $140 forward single #
face $-1 $141 $142 $71 $-1 $143 forward single #
face $-1 $144 $145 $54 $-1 $146 reversed single #
loop $-1 $-1 $147 $72 #
plane-surface $-1 0 0 17.769613234242897 0 0 1 1 0 0 forward_v I I I I #
face $-1 $148 $149 $55 $-1 $150 reversed single #
loop $-1 $-1 $151 $73 #
plane-surface $-1 0 -39.827880725345743 9.634539284022317 0 0 1 1 0 0 forward_v I I I I #
face $-1 $152 $153 $56 $-1 $154 reversed single #
loop $-1 $-1 $155 $74 #
plane-surface $-1 -199.82711600315042 -16.342195505265902 86.156818862953685 0 1 0 -0.85716730853699208 0 0.51503806187062418 forward_v I I I I #
face $-1 $156 $157 $57 $-1 $158 forward single #
loop $-1 $159 $160 $75 #
cone-surface $-1 -70.05167918200587 -13.420892714796956 13.247111608247383 0.85716730853699208 0 -0.51503806187062418 0.51503806187062418 0 0.85716730853699208 1 I I 0 1 1 forward I I I I #
face $-1 $161 $162 $58 $-1 $163 forward single #
loop $-1 $164 $165 $76 #
cone-surface $-1 -70.05167918200587 -9.0389385290935351 13.247111608247383 0.85716730853699208 0 -0.51503806187062418 0.51503806187062418 0 0.85716730853699208 1 I I 0 1 1 forward I I I I #
face $-1 $166 $167 $59 $-1 $168 forward single #
loop $-1 $169 $170 $77 #
cone-surface $-1 -70.05167918200587 -4.6569843433901141 13.247111608247383 0.85716730853699208 0 -0.51503806187062418 0.51503806187062418 0 0.85716730853699208 1 I I 0 1 1 forward I I I I #
face $-1 $171 $172 $60 $-1 $173 reversed single #
loop $-1 $-1 $174 $78 #
plane-surface $-1 -199.82711600315042 16.313022571348316 86.156818862953685 0 1 0 -0.85716730853699208 0 0.51503806187062418 forward_v I I I I #
face $-1 $175 $176 $61 $-1 $177 forward single #
loop $-1 $178 $179 $79 #
cone-surface $-1 -70.05167918200587 19.234325361817262 13.247111608247383 0.85716730853699208 0 -0.51503806187062418 0.51503806187062418 0 0.85716730853699208 1 I I 0 1 1 forward I I I I #
face $-1 $180 $181 $62 $-1 $182 forward single #
loop $-1 $183 $184 $80 #
cone-surface $-1 -70.05167918200587 23.616279547520683 13.247111608247383 0.85716730853699208 0 -0.51503806187062418 0.51503806187062418 0 0.85716730853699208 1 I I 0 1 1 forward I I I I #
face $-1 $185 $186 $63 $-1 $187 forward single #
loop $-1 $188 $189 $81 #
cone-surface $-1 -70.05167918200587 27.998233733224104 13.247111608247383 0.85716730853699208 0 -0.51503806187062418 0.51503806187062418 0 0.85716730853699208 1 I I 0 1 1 forward I I I I #
face $-1 $190 $191 $64 $-1 $192 reversed single #
loop $-1 $-1 $193 $82 #
plane-surface $-1 123.99374609505573 -1.735681552921168 212.36474482734559 0 -1 0 -0.85716730853699208 0 -0.51503806187062418 forward_v I I I I #
face $-1 $194 $195 $65 $-1 $196 forward single #
loop $-1 $197 $198 $83 #
cone-surface $-1 70.05167918200587 -13.420892714796956 13.247111608247398 -0.85716730853699208 0 -0.51503806187062418 0.51503806187062418 0 -0.85716730853699208 1 I I 0 1 1 forward I I I I #
face $-1 $199 $200 $66 $-1 $201 forward single #
loop $-1 $202 $203 $84 #
cone-surface $-1 70.05167918200587 -9.0389385290935351 13.247111608247398 -0.85716730853699208 0 -0.51503806187062418 0.51503806187062418 0 -0.85716730853699208 1 I I 0 1 1 forward I I I I #
face $-1 $204 $205 $67 $-1 $206 forward single #
loop $-1 $207 $208 $85 #
cone-surface $-1 70.05167918200587 -4.6569843433901141 13.247111608247398 -0.85716730853699208 0 -0.51503806187062418 0.51503806187062418 0 -0.85716730853699208 1 I I 0 1 1 forward I I I I #
face $-1 $209 $210 $68 $-1 $211 reversed single #
loop $-1 $-1 $212 $86 #
plane-surface $-1 123.99374609505573 30.919536523693051 212.36474482734559 0 -1 0 -0.85716730853699208 0 -0.51503806187062418 forward_v I I I I #
face $-1 $213 $214 $69 $-1 $215 forward single #
loop $-1 $216 $217 $87 #
cone-surface $-1 70.05167918200587 19.234325361817262 13.247111608247398 -0.85716730853699208 0 -0.51503806187062418 0.51503806187062418 0 -0.85716730853699208 1 I I 0 1 1 forward I I I I #
face $-1 $218 $219 $70 $-1 $220 forward single #
loop $-1 $221 $222 $88 #
cone-surface $-1 70.05167918200587 23.616279547520683 13.247111608247398 -0.85716730853699208 0 -0.51503806187062418 0.51503806187062418 0 -0.85716730853699208 1 I I 0 1 1 forward I I I I #
face $-1 $223 $224 $71 $-1 $225 forward single #
loop $-1 $226 $227 $89 #
cone-surface $-1 70.05167918200587 27.998233733224104 13.247111608247398 -0.85716730853699208 0 -0.51503806187062418 0.51503806187062418 0 -0.85716730853699208 1 I I 0 1 1 forward I I I I #
face $-1 $228 $229 $54 $-1 $230 reversed single #
loop $-1 $-1 $231 $90 #
plane-surface $-1 0 0 -17.769613234242897 0 0 1 1 0 0 forward_v I I I I #
coedge $-1 $232 $233 $234 $235 forward $91 $-1 #
face $-1 $236 $237 $55 $-1 $238 reversed single #
loop $-1 $-1 $239 $93 #
plane-surface $-1 0 -32.539210216132183 13.702076259132607 0 -1 0 0 0 -1 forward_v I I I I #
coedge $-1 $240 $241 $242 $243 reversed $94 $-1 #
face $-1 $244 $245 $56 $-1 $246 reversed single #
loop $-1 $-1 $247 $96 #
plane-surface $-1 -73.619190038758489 -9.0389385290935351 10.323448954859003 -0.85716730853699208 0 0.51503806187062418 0.51503806187062418 0 0.85716730853699208 forward_v I I I I #
coedge $-1 $248 $249 $250 $251 reversed $97 $-1 #
face $-1 $-1 $252 $57 $-1 $253 forward single #
loop $-1 $254 $255 $99 #
cone-surface $-1 -68.292638033046458 -13.420892714796956 12.190173091008504 0.85716730853699208 0 -0.51503806187062418 0.25751903093531209 0 0.42858365426849604 1 I I -0.70710678118654746 0.70710678118654746 0.5 forward I I I I #
loop $-1 $-1 $256 $75 #
coedge $-1 $160 $160 $257 $258 reversed $100 $-1 #
face $-1 $-1 $259 $58 $-1 $260 forward single #
loop $-1 $261 $262 $102 #
cone-surface $-1 -68.292638033046458 -9.0389385290935351 12.190173091008504 0.85716730853699208 0 -0.51503806187062418 0.25751903093531209 0 0.42858365426849604 1 I I -0.70710678118654746 0.70710678118654746 0.5 forward I I I I #
loop $-1 $-1 $263 $76 #
coedge $-1 $165 $165 $264 $265 reversed $103 $-1 #
face $-1 $-1 $266 $59 $-1 $267 forward single #
loop $-1 $268 $269 $105 #
cone-surface $-1 -68.292638033046458 -4.6569843433901141 12.190173091008504 0.85716730853699208 0 -0.51503806187062418 0.25751903093531209 0 0.42858365426849604 1 I I -0.70710678118654746 0.70710678118654746 0.5 forward I I I I #
loop $-1 $-1 $270 $77 #
coedge $-1 $170 $170 $271 $272 reversed $106 $-1 #
face $-1 $273 $274 $60 $-1 $275 reversed single #
loop $-1 $-1 $276 $108 #
plane-surface $-1 -73.619190038758489 23.616279547520683 10.323448954859003 -0.85716730853699208 0 0.51503806187062418 0.51503806187062418 0 0.85716730853699208 forward_v I I I I #
coedge $-1 $277 $278 $279 $280 reversed $109 $-1 #
face $-1 $-1 $281 $61 $-1 $282 forward single #
loop $-1 $283 $284 $111 #
cone-surface $-1 -68.292638033046458 19.234325361817262 12.190173091008504 0.85716730853699208 0 -0.51503806187062418 0.25751903093531209 0 0.42858365426849604 1 I I -0.70710678118654746 0.70710678118654746 0.5 forward I I I I #
loop $-1 $-1 $285 $79 #
coedge $-1 $179 $179 $286 $287 reversed $112 $-1 #
face $-1 $-1 $288 $62 $-1 $289 forward single #
loop $-1 $290 $291 $114 #
cone-surface $-1 -68.292638033046458 23.616279547520683 12.190173091008504 0.85716730853699208 0 -0.51503806187062418 0.25751903093531209 0 0.42858365426849604 1 I I -0.70710678118654746 0.70710678118654746 0.5 forward I I I I #
loop $-1 $-1 $292 $80 #
coedge $-1 $184 $184 $293 $294 reversed $115 $-1 #
face $-1 $-1 $295 $63 $-1 $296 forward single #
loop $-1 $297 $298 $117 #
cone-surface $-1 -68.292638033046458 27.998233733224104 12.190173091008504 0.85716730853699208 0 -0.51503806187062418 0.25751903093531209 0 0.42858365426849604 1 I I -0.70710678118654746 0.70710678118654746 0.5 forward I I I I #
loop $-1 $-1 $299 $81 #
coedge $-1 $189 $189 $300 $301 reversed $118 $-1 #
face $-1 $302 $303 $64 $-1 $304 reversed single #
loop $-1 $-1 $305 $120 #
plane-surface $-1 -2.2141798693362063 -9.0389385290935351 136.53137491925091 0.85716730853699208 0 0.51503806187062418 0.51503806187062418 0 -0.85716730853699208 forward_v I I I I #
coedge $-1 $306 $307 $308 $309 reversed $121 $-1 #
face $-1 $-1 $310 $65 $-1 $311 forward single #
loop $-1 $312 $313 $123 #
cone-surface $-1 68.292638033046458 -13.420892714796956 12.190173091008518 -0.85716730853699208 0 -0.51503806187062418 0.25751903093531209 0 -0.42858365426849604 1 I I -0.70710678118654746 0.70710678118654746 0.5 forward I I I I #
loop $-1 $-1 $314 $83 #
coedge $-1 $198 $198 $315 $316 reversed $124 $-1 #
face $-1 $-1 $317 $66 $-1 $318 forward single #
loop $-1 $319 $320 $126 #
cone-surface $-1 68.292638033046458 -9.0389385290935351 12.190173091008518 -0.85716730853699208 0 -0.51503806187062418 0.25751903093531209 0 -0.42858365426849604 1 I I -0.70710678118654746 0.70710678118654746 0.5 forward I I I I #
loop $-1 $-1 $321 $84 #
coedge $-1 $203 $203 $322 $323 reversed $127 $-1 #
face $-1 $-1 $324 $67 $-1 $325 forward single #
loop $-1 $326 $327 $129 #
cone-surface $-1 68.292638033046458 -4.6569843433901141 12.190173091008518 -0.85716730853699208 0 -0.51503806187062418 0.25751903093531209 0 -0.42858365426849604 1 I I -0.70710678118654746 0.70710678118654746 0.5 forward I I I I #
loop $-1 $-1 $328 $85 #
coedge $-1 $208 $208 $329 $330 reversed $130 $-1 #
face $-1 $331 $332 $68 $-1 $333 reversed single #
loop $-1 $-1 $334 $132 #
plane-surface $-1 -2.2141798693362063 23.616279547520683 136.53137491925091 0.85716730853699208 0 0.51503806187062418 0.51503806187062418 0 -0.85716730853699208 forward_v I I I I #
coedge $-1 $335 $336 $337 $338 reversed $133 $-1 #
face $-1 $-1 $339 $69 $-1 $340 forward single #
loop $-1 $341 $342 $135 #
cone-surface $-1 68.292638033046458 19.234325361817262 12.190173091008518 -0.85716730853699208 0 -0.51503806187062418 0.25751903093531209 0 -0.42858365426849604 1 I I -0.70710678118654746 0.70710678118654746 0.5 forward I I I I #
loop $-1 $-1 $343 $87 #
coedge $-1 $217 $217 $344 $345 reversed $136 $-1 #
face $-1 $-1 $346 $70 $-1 $347 forward single #
loop $-1 $348 $349 $138 #
cone-surface $-1 68.292638033046458 23.616279547520683 12.190173091008518 -0.85716730853699208 0 -0.51503806187062418 0.25751903093531209 0 -0.42858365426849604 1 I I -0.70710678118654746 0.70710678118654746 0.5 forward I I I I #
loop $-1 $-1 $350 $88 #
coedge $-1 $222 $222 $351 $352 reversed $139 $-1 #
face $-1 $-1 $353 $71 $-1 $354 forward single #
loop $-1 $355 $356 $141 #
cone-surface $-1 68.292638033046458 27.998233733224104 12.190173091008518 -0.85716730853699208 0 -0.51503806187062418 0.25751903093531209 0 -0.42858365426849604 1 I I -0.70710678118654746 0.70710678118654746 0.5 forward I I I I #
loop $-1 $-1 $357 $89 #
coedge $-1 $227 $227 $358 $359 reversed $142 $-1 #
face $-1 $360 $361 $54 $-1 $362 reversed single #
loop $-1 $-1 $363 $144 #
plane-surface $-1 0 -47.116551234559303 0 0 1 0 0 0 1 forward_v I I I I #
coedge $-1 $364 $365 $366 $367 forward $145 $-1 #
coedge $-1 $368 $147 $369 $370 forward $91 $-1 #
coedge $-1 $147 $368 $371 $372 forward $91 $-1 #
coedge $-1 $373 $374 $147 $235 reversed $375 $-1 #
edge $-1 $376 -47.116551234559303 $377 47.116551234559303 $234 $378 forward 7 unknown #
face $-1 $379 $380 $55 $-1 $381 reversed single #
loop $-1 $-1 $382 $148 #
plane-surface $-1 -73.619190038758504 0 0 1 0 0 0 0 -1 forward_v I I I I #
coedge $-1 $383 $384 $385 $386 reversed $149 $-1 #
coedge $-1 $387 $151 $388 $389 reversed $94 $-1 #
coedge $-1 $151 $387 $383 $390 forward $94 $-1 #
coedge $-1 $385 $391 $151 $243 forward $392 $-1 #
edge $-1 $393 -27.202610871886431 $394 -12.625269853459312 $242 $395 forward 7 unknown #
face $-1 $396 $397 $56 $-1 $398 forward single #
loop $-1 $-1 $399 $152 #
plane-surface $-1 -199.82711600315042 -1.735681552921168 86.156818862953685 0 -1 0 0.85716730853699208 0 -0.51503806187062418 forward_v I I I I #
coedge $-1 $400 $401 $402 $403 reversed $153 $-1 #
coedge $-1 $249 $155 $404 $405 reversed $97 $-1 #
coedge $-1 $155 $248 $400 $406 reversed $97 $-1 #
coedge $-1 $402 $407 $155 $251 forward $397 $-1 #
edge $-1 $408 26.294367962816708 $409 30.768474686940166 $250 $410 forward 7 unknown #
loop $-1 $-1 $257 $156 #
plane-surface $-1 -73.619190038758489 -9.0389385290935351 10.323448954859003 -0.85716730853699208 0 0.51503806187062418 0.51503806187062418 0 0.85716730853699208 forward_v I I I I #
loop $-1 $-1 $411 $99 #
coedge $-1 $255 $255 $256 $412 reversed $157 $-1 #
coedge $-1 $256 $256 $255 $412 forward $159 $-1 #
coedge $-1 $257 $257 $160 $258 forward $252 $-1 #
edge $-1 $413 0 $413 6.2831853071796004 $257 $414 forward 7 unknown #
loop $-1 $-1 $264 $161 #
plane-surface $-1 -73.619190038758489 -9.0389385290935351 10.323448954859003 -0.85716730853699208 0 0.51503806187062418 0.51503806187062418 0 0.85716730853699208 forward_v I I I I #
loop $-1 $-1 $415 $102 #
coedge $-1 $262 $262 $263 $416 reversed $162 $-1 #
coedge $-1 $263 $263 $262 $416 forward $164 $-1 #
coedge $-1 $264 $264 $165 $265 forward $259 $-1 #
edge $-1 $417 0 $417 6.2831853071796004 $264 $418 forward 7 unknown #
loop $-1 $-1 $271 $166 #
plane-surface $-1 -73.619190038758489 -9.0389385290935351 10.323448954859003 -0.85716730853699208 0 0.51503806187062418 0.51503806187062418 0 0.85716730853699208 forward_v I I I I #
loop $-1 $-1 $419 $105 #
coedge $-1 $269 $269 $270 $420 reversed $167 $-1 #
coedge $-1 $270 $270 $269 $420 forward $169 $-1 #
coedge $-1 $271 $271 $170 $272 forward $266 $-1 #
edge $-1 $421 0 $421 6.2831853071796004 $271 $422 forward 7 unknown #
face $-1 $423 $424 $60 $-1 $425 forward single #
loop $-1 $-1 $426 $171 #
plane-surface $-1 -199.82711600315042 30.919536523693051 86.156818862953685 0 -1 0 0.85716730853699208 0 -0.51503806187062418 forward_v I I I I #
coedge $-1 $427 $428 $429 $430 reversed $172 $-1 #
coedge $-1 $278 $174 $431 $432 reversed $109 $-1 #
coedge $-1 $174 $277 $427 $433 reversed $109 $-1 #
coedge $-1 $429 $434 $174 $280 forward $424 $-1 #
edge $-1 $435 26.294367962816708 $436 30.768474686940166 $279 $437 forward 7 unknown #
loop $-1 $-1 $286 $175 #
plane-surface $-1 -73.619190038758489 23.616279547520683 10.323448954859003 -0.85716730853699208 0 0.51503806187062418 0.51503806187062418 0 0.85716730853699208 forward_v I I I I #
loop $-1 $-1 $438 $111 #
coedge $-1 $284 $284 $285 $439 reversed $176 $-1 #
coedge $-1 $285 $285 $284 $439 forward $178 $-1 #
coedge $-1 $286 $286 $179 $287 forward $281 $-1 #
edge $-1 $440 0 $440 6.2831853071796004 $286 $441 forward 7 unknown #
loop $-1 $-1 $293 $180 #
plane-surface $-1 -73.619190038758489 23.616279547520683 10.323448954859003 -0.85716730853699208 0 0.51503806187062418 0.51503806187062418 0 0.85716730853699208 forward_v I I I I #
loop $-1 $-1 $442 $114 #
coedge $-1 $291 $291 $292 $443 reversed $181 $-1 #
coedge $-1 $292 $292 $291 $443 forward $183 $-1 #
coedge $-1 $293 $293 $184 $294 forward $288 $-1 #
edge $-1 $444 0 $444 6.2831853071796004 $293 $445 forward 7 unknown #
loop $-1 $-1 $300 $185 #
plane-surface $-1 -73.619190038758489 23.616279547520683 10.323448954859003 -0.85716730853699208 0 0.51503806187062418 0.51503806187062418 0 0.85716730853699208 forward_v I I I I #
loop $-1 $-1 $446 $117 #
coedge $-1 $298 $298 $299 $447 reversed $186 $-1 #
coedge $-1 $299 $299 $298 $447 forward $188 $-1 #
coedge $-1 $300 $300 $189 $301 forward $295 $-1 #
edge $-1 $448 0 $448 6.2831853071796004 $300 $449 forward 7 unknown #
face $-1 $450 $451 $64 $-1 $452 reversed single #
loop $-1 $-1 $453 $190 #
plane-surface $-1 123.99374609505573 -16.342195505265902 212.36474482734559 0 1 0 0.85716730853699208 0 0.51503806187062418 forward_v I I I I #
coedge $-1 $454 $455 $456 $457 reversed $191 $-1 #
coedge $-1 $307 $193 $458 $459 reversed $121 $-1 #
coedge $-1 $193 $306 $454 $460 reversed $121 $-1 #
coedge $-1 $456 $461 $193 $309 forward $462 $-1 #
edge $-1 $463 -11.62231699123064 $464 -7.148210267107153 $308 $465 forward 7 unknown #
loop $-1 $-1 $315 $194 #
plane-surface $-1 -2.2141798693362063 -9.0389385290935351 136.53137491925091 0.85716730853699208 0 0.51503806187062418 0.51503806187062418 0 -0.85716730853699208 forward_v I I I I #
loop $-1 $-1 $466 $123 #
coedge $-1 $313 $313 $314 $467 reversed $195 $-1 #
coedge $-1 $314 $314 $313 $467 forward $197 $-1 #
coedge $-1 $315 $315 $198 $316 forward $310 $-1 #
edge $-1 $468 0 $468 6.2831853071796004 $315 $469 forward 7 unknown #
loop $-1 $-1 $322 $199 #
plane-surface $-1 -2.2141798693362063 -9.0389385290935351 136.53137491925091 0.85716730853699208 0 0.51503806187062418 0.51503806187062418 0 -0.85716730853699208 forward_v I I I I #
loop $-1 $-1 $470 $126 #
coedge $-1 $320 $320 $321 $471 reversed $200 $-1 #
coedge $-1 $321 $321 $320 $471 forward $202 $-1 #
coedge $-1 $322 $322 $203 $323 forward $317 $-1 #
edge $-1 $472 0 $472 6.2831853071796004 $322 $473 forward 7 unknown #
loop $-1 $-1 $329 $204 #
plane-surface $-1 -2.2141798693362063 -9.0389385290935351 136.53137491925091 0.85716730853699208 0 0.51503806187062418 0.51503806187062418 0 -0.85716730853699208 forward_v I I I I #
loop $-1 $-1 $474 $129 #
coedge $-1 $327 $327 $328 $475 reversed $205 $-1 #
coedge $-1 $328 $328 $327 $475 forward $207 $-1 #
coedge $-1 $329 $329 $208 $330 forward $324 $-1 #
edge $-1 $476 0 $476 6.2831853071796004 $329 $477 forward 7 unknown #
face $-1 $478 $479 $68 $-1 $480 reversed single #
loop $-1 $-1 $481 $209 #
plane-surface $-1 123.99374609505573 16.313022571348316 212.36474482734559 0 1 0 0.85716730853699208 0 0.51503806187062418 forward_v I I I I #
coedge $-1 $482 $483 $484 $485 reversed $210 $-1 #
coedge $-1 $336 $212 $486 $487 reversed $133 $-1 #
coedge $-1 $212 $335 $482 $488 reversed $133 $-1 #
coedge $-1 $484 $489 $212 $338 forward $490 $-1 #
edge $-1 $491 -11.62231699123064 $492 -7.148210267107153 $337 $493 forward 7 unknown #
loop $-1 $-1 $344 $213 #
plane-surface $-1 -2.2141798693362063 23.616279547520683 136.53137491925091 0.85716730853699208 0 0.51503806187062418 0.51503806187062418 0 -0.85716730853699208 forward_v I I I I #
loop $-1 $-1 $494 $135 #
coedge $-1 $342 $342 $343 $495 reversed $214 $-1 #
coedge $-1 $343 $343 $342 $495 forward $216 $-1 #
coedge $-1 $344 $344 $217 $345 forward $339 $-1 #
edge $-1 $496 0 $496 6.2831853071796004 $344 $497 forward 7 unknown #
loop $-1 $-1 $351 $218 #
plane-surface $-1 -2.2141798693362063 23.616279547520683 136.53137491925091 0.85716730853699208 0 0.51503806187062418 0.51503806187062418 0 -0.85716730853699208 forward_v I I I I #
loop $-1 $-1 $498 $138 #
coedge $-1 $349 $349 $350 $499 reversed $219 $-1 #
coedge $-1 $350 $350 $349 $499 forward $221 $-1 #
coedge $-1 $351 $351 $222 $352 forward $346 $-1 #
edge $-1 $500 0 $500 6.2831853071796004 $351 $501 forward 7 unknown #
loop $-1 $-1 $358 $223 #
plane-surface $-1 -2.2141798693362063 23.616279547520683 136.53137491925091 0.85716730853699208 0 0.51503806187062418 0.51503806187062418 0 -0.85716730853699208 forward_v I I I I #
loop $-1 $-1 $502 $141 #
coedge $-1 $356 $356 $357 $503 reversed $224 $-1 #
coedge $-1 $357 $357 $356 $503 forward $226 $-1 #
coedge $-1 $358 $358 $227 $359 forward $353 $-1 #
edge $-1 $504 0 $504 6.2831853071796004 $358 $505 forward 7 unknown #
face $-1 $506 $507 $54 $-1 $508 reversed single #
loop $-1 $-1 $509 $228 #
plane-surface $-1 -73.619190038758504 0 0 1 0 0 0 0 -1 forward_v I I I I #
coedge $-1 $510 $371 $511 $512 forward $229 $-1 #
coedge $-1 $513 $231 $510 $514 forward $145 $-1 #
coedge $-1 $231 $513 $515 $516 forward $145 $-1 #
coedge $-1 $374 $373 $231 $367 reversed $375 $-1 #
edge $-1 $517 -47.116551234559303 $518 47.116551234559303 $366 $519 forward 7 unknown #
coedge $-1 $233 $232 $520 $521 forward $91 $-1 #
coedge $-1 $522 $523 $232 $370 reversed $507 $-1 #
edge $-1 $377 -73.619190038758504 $524 73.619190038758504 $369 $525 forward 7 unknown #
coedge $-1 $363 $526 $233 $372 reversed $229 $-1 #
edge $-1 $527 -73.619190038758504 $376 73.619190038758504 $371 $528 forward 7 unknown #
coedge $-1 $366 $234 $526 $529 forward $375 $-1 #
coedge $-1 $234 $366 $522 $530 reversed $375 $-1 #
loop $-1 $-1 $373 $506 #
vertex $-1 $235 $531 #
vertex $-1 $235 $532 #
straight-curve $-1 73.619190038758504 0 17.769613234242897 0 1 0 I I #
face $-1 $533 $534 $55 $-1 $535 forward single #
loop $-1 $-1 $388 $236 #
plane-surface $-1 0 -47.116551234559303 0 0 1 0 0 0 1 forward_v I I I I #
coedge $-1 $536 $537 $538 $539 forward $237 $-1 #
coedge $-1 $538 $239 $241 $390 reversed $149 $-1 #
coedge $-1 $239 $538 $540 $541 reversed $149 $-1 #
coedge $-1 $542 $242 $239 $386 forward $392 $-1 #
edge $-1 $394 2.7835011544560135 $543 10.918575104676593 $385 $544 forward 7 unknown #
coedge $-1 $241 $240 $536 $545 reversed $94 $-1 #
coedge $-1 $546 $547 $240 $389 forward $380 $-1 #
edge $-1 $548 -73.619190038758504 $393 73.619190038758504 $388 $549 forward 7 unknown #
edge $-1 $550 -73.619190038758504 $394 73.619190038758504 $383 $551 forward 7 unknown #
coedge $-1 $242 $542 $546 $552 forward $392 $-1 #
loop $-1 $-1 $385 $533 #
vertex $-1 $389 $553 #
vertex $-1 $243 $554 #
straight-curve $-1 73.619190038758504 -19.913940362672871 9.634539284022317 0 1 0 I I #
face $-1 $-1 $555 $56 $-1 $556 reversed single #
loop $-1 $-1 $250 $244 #
plane-surface $-1 0 0 17.769613234242897 0 0 1 1 0 0 forward_v I I I I #
coedge $-1 $557 $558 $559 $560 reversed $245 $-1 #
coedge $-1 $561 $247 $249 $406 forward $153 $-1 #
coedge $-1 $247 $561 $557 $562 forward $153 $-1 #
coedge $-1 $559 $250 $247 $403 forward $397 $-1 #
edge $-1 $409 -11.822726240719135 $563 2.7837877116255996 $402 $564 forward 7 unknown #
coedge $-1 $565 $566 $248 $405 forward $555 $-1 #
edge $-1 $567 -32.75496047661786 $408 -25.308796197233946 $404 $568 forward 7 unknown #
edge $-1 $409 -8.6869438500786522 $567 2.7113386213432547e-014 $249 $569 forward 7 unknown #
coedge $-1 $250 $559 $565 $570 forward $397 $-1 #
vertex $-1 $405 $571 #
vertex $-1 $251 $572 #
straight-curve $-1 -99.913558001575211 -16.342195505265902 17.769613234242897 1 0 0 I I #
coedge $-1 $411 $411 $-1 $573 reversed $254 $-1 #
edge $-1 $574 0 $574 6.2831853071796004 $255 $575 forward 7 unknown #
vertex $-1 $258 $576 #
ellipse-curve $-1 -71.382136676696774 -13.420892714796956 14.046531094550943 -0.85716730853699208 0 0.51503806187062418 0.51503806187062418 0 0.85716730853699208 1 I I #
coedge $-1 $415 $415 $-1 $577 reversed $261 $-1 #
edge $-1 $578 0 $578 6.2831853071796004 $262 $579 forward 7 unknown #
vertex $-1 $265 $580 #
ellipse-curve $-1 -71.382136676696774 -9.0389385290935351 14.046531094550943 -0.85716730853699208 0 0.51503806187062418 0.51503806187062418 0 0.85716730853699208 1 I I #
coedge $-1 $419 $419 $-1 $581 reversed $268 $-1 #
edge $-1 $582 0 $582 6.2831853071796004 $269 $583 forward 7 unknown #
vertex $-1 $272 $584 #
ellipse-curve $-1 -71.382136676696774 -4.6569843433901141 14.046531094550943 -0.85716730853699208 0 0.51503806187062418 0.51503806187062418 0 0.85716730853699208 1 I I #
face $-1 $-1 $585 $60 $-1 $586 reversed single #
loop $-1 $-1 $279 $273 #
plane-surface $-1 0 0 17.769613234242897 0 0 1 1 0 0 forward_v I I I I #
coedge $-1 $587 $588 $589 $590 reversed $274 $-1 #
coedge $-1 $591 $276 $278 $433 forward $172 $-1 #
coedge $-1 $276 $591 $587 $592 forward $172 $-1 #
coedge $-1 $589 $279 $276 $430 forward $424 $-1 #
edge $-1 $436 4.5048827975879746 $593 19.111396749932709 $429 $594 forward 7 unknown #
coedge $-1 $595 $596 $277 $432 forward $585 $-1 #
edge $-1 $597 -32.75496047661786 $435 -25.308796197233946 $431 $598 forward 7 unknown #
edge $-1 $436 -8.6869438500786522 $597 2.7113386213432547e-014 $278 $599 forward 7 unknown #
coedge $-1 $279 $589 $595 $600 forward $424 $-1 #
vertex $-1 $280 $601 #
vertex $-1 $280 $602 #
straight-curve $-1 -99.913558001575211 16.313022571348316 17.769613234242897 1 0 0 I I #
coedge $-1 $438 $438 $-1 $603 reversed $283 $-1 #
edge $-1 $604 0 $604 6.2831853071796004 $284 $605 forward 7 unknown #
vertex $-1 $287 $606 #
ellipse-curve $-1 -71.382136676696774 19.234325361817262 14.046531094550943 -0.85716730853699208 0 0.51503806187062418 0.51503806187062418 0 0.85716730853699208 1 I I #
coedge $-1 $442 $442 $-1 $607 reversed $290 $-1 #
edge $-1 $608 0 $608 6.2831853071796004 $291 $609 forward 7 unknown #
vertex $-1 $294 $610 #
ellipse-curve $-1 -71.382136676696774 23.616279547520683 14.046531094550943 -0.85716730853699208 0 0.51503806187062418 0.51503806187062418 0 0.85716730853699208 1 I I #
coedge $-1 $446 $446 $-1 $611 reversed $297 $-1 #
edge $-1 $612 0 $612 6.2831853071796004 $298 $613 forward 7 unknown #
vertex $-1 $301 $614 #
ellipse-curve $-1 -71.382136676696774 27.998233733224104 14.046531094550943 -0.85716730853699208 0 0.51503806187062418 0.51503806187062418 0 0.85716730853699208 1 I I #
face $-1 $-1 $462 $64 $-1 $615 forward single #
loop $-1 $-1 $616 $302 #
plane-surface $-1 73.619190038758504 0 0 -1 0 0 0 0 1 forward_v I I I I #
coedge $-1 $617 $618 $619 $620 reversed $303 $-1 #
coedge $-1 $621 $305 $307 $460 forward $191 $-1 #
coedge $-1 $305 $621 $617 $622 forward $191 $-1 #
coedge $-1 $619 $308 $305 $457 forward $462 $-1 #
edge $-1 $464 -2.7837877116255996 $623 11.822726240719135 $456 $624 forward 7 unknown #
coedge $-1 $625 $626 $306 $459 forward $451 $-1 #
edge $-1 $627 -95.858923458813862 $463 -88.412759179429898 $458 $628 forward 7 unknown #
edge $-1 $464 138.55143622743836 $627 147.23838007751709 $307 $629 forward 7 unknown #
coedge $-1 $308 $619 $625 $630 forward $462 $-1 #
loop $-1 $-1 $619 $450 #
vertex $-1 $459 $631 #
vertex $-1 $309 $632 #
straight-curve $-1 61.996873047527863 -1.735681552921168 17.769613234242897 -1 0 0 I I #
coedge $-1 $466 $466 $-1 $633 reversed $312 $-1 #
edge $-1 $634 0 $634 6.2831853071796004 $313 $635 forward 7 unknown #
vertex $-1 $316 $636 #
ellipse-curve $-1 71.382136676696746 -13.420892714796956 14.046531094550943 0.85716730853699208 0 0.51503806187062418 0.51503806187062418 0 -0.85716730853699208 1 I I #
coedge $-1 $470 $470 $-1 $637 reversed $319 $-1 #
edge $-1 $638 0 $638 6.2831853071796004 $320 $639 forward 7 unknown #
vertex $-1 $323 $640 #
ellipse-curve $-1 71.382136676696746 -9.0389385290935351 14.046531094550943 0.85716730853699208 0 0.51503806187062418 0.51503806187062418 0 -0.85716730853699208 1 I I #
coedge $-1 $474 $474 $-1 $641 reversed $326 $-1 #
edge $-1 $642 0 $642 6.2831853071796004 $327 $643 forward 7 unknown #
vertex $-1 $330 $644 #
ellipse-curve $-1 71.382136676696746 -4.6569843433901141 14.046531094550943 0.85716730853699208 0 0.51503806187062418 0.51503806187062418 0 -0.85716730853699208 1 I I #
face $-1 $-1 $490 $68 $-1 $645 forward single #
loop $-1 $-1 $646 $331 #
plane-surface $-1 73.619190038758504 0 0 -1 0 0 0 0 1 forward_v I I I I #
coedge $-1 $647 $648 $649 $650 reversed $332 $-1 #
coedge $-1 $651 $334 $336 $488 forward $210 $-1 #
coedge $-1 $334 $651 $647 $652 forward $210 $-1 #
coedge $-1 $649 $337 $334 $485 forward $490 $-1 #
edge $-1 $492 -19.111396749932709 $653 -4.5048827975879746 $484 $654 forward 7 unknown #
coedge $-1 $655 $656 $335 $487 forward $479 $-1 #
edge $-1 $657 -95.858923458813862 $491 -88.412759179429898 $486 $658 forward 7 unknown #
edge $-1 $492 138.55143622743836 $657 147.23838007751709 $336 $659 forward 7 unknown #
coedge $-1 $337 $649 $655 $660 forward $490 $-1 #
loop $-1 $-1 $649 $478 #
vertex $-1 $487 $661 #
vertex $-1 $338 $662 #
straight-curve $-1 61.996873047527863 30.919536523693051 17.769613234242897 -1 0 0 I I #
coedge $-1 $494 $494 $-1 $663 reversed $341 $-1 #
edge $-1 $664 0 $664 6.2831853071796004 $342 $665 forward 7 unknown #
vertex $-1 $345 $666 #
ellipse-curve $-1 71.382136676696746 19.234325361817262 14.046531094550943 0.85716730853699208 0 0.51503806187062418 0.51503806187062418 0 -0.85716730853699208 1 I I #
coedge $-1 $498 $498 $-1 $667 reversed $348 $-1 #
edge $-1 $668 0 $668 6.2831853071796004 $349 $669 forward 7 unknown #
vertex $-1 $352 $670 #
ellipse-curve $-1 71.382136676696746 23.616279547520683 14.046531094550943 0.85716730853699208 0 0.51503806187062418 0.51503806187062418 0 -0.85716730853699208 1 I I #
coedge $-1 $502 $502 $-1 $671 reversed $355 $-1 #
edge $-1 $672 0 $672 6.2831853071796004 $356 $673 forward 7 unknown #
vertex $-1 $359 $674 #
ellipse-curve $-1 71.382136676696746 27.998233733224104 14.046531094550943 0.85716730853699208 0 0.51503806187062418 0.51503806187062418 0 -0.85716730853699208 1 I I #
face $-1 $-1 $375 $54 $-1 $675 reversed single #
loop $-1 $-1 $522 $360 #
plane-surface $-1 0 47.116551234559303 0 0 -1 0 0 0 -1 forward_v I I I I #
coedge $-1 $676 $520 $523 $677 forward $361 $-1 #
coedge $-1 $526 $363 $364 $514 reversed $229 $-1 #
coedge $-1 $520 $676 $363 $512 reversed $361 $-1 #
edge $-1 $527 -17.769613234242897 $678 17.769613234242897 $511 $679 forward 7 unknown #
coedge $-1 $365 $364 $676 $680 forward $145 $-1 #
edge $-1 $518 -73.619190038758504 $678 73.619190038758504 $510 $681 forward 7 unknown #
coedge $-1 $523 $522 $365 $516 reversed $507 $-1 #
edge $-1 $682 -73.619190038758504 $517 73.619190038758504 $515 $683 forward 7 unknown #
vertex $-1 $367 $684 #
vertex $-1 $529 $685 #
straight-curve $-1 73.619190038758504 0 -17.769613234242897 0 -1 0 I I #
coedge $-1 $509 $511 $368 $521 reversed $361 $-1 #
edge $-1 $524 -47.116551234559303 $527 47.116551234559303 $520 $686 forward 7 unknown #
coedge $-1 $515 $369 $374 $530 forward $507 $-1 #
coedge $-1 $369 $515 $509 $677 reversed $507 $-1 #
vertex $-1 $370 $687 #
straight-curve $-1 0 47.116551234559303 17.769613234242897 -1 0 0 I I #
coedge $-1 $371 $510 $373 $529 reversed $229 $-1 #
vertex $-1 $521 $688 #
straight-curve $-1 0 -47.116551234559303 17.769613234242897 1 0 0 I I #
edge $-1 $376 -17.769613234242897 $518 17.769613234242897 $373 $689 forward 7 unknown #
edge $-1 $377 -17.769613234242897 $517 17.769613234242897 $374 $690 forward 7 unknown #
point $-1 73.619190038758504 -47.116551234559303 17.769613234242897 #
point $-1 73.619190038758504 47.116551234559303 17.769613234242897 #
face $-1 $-1 $392 $55 $-1 $691 reversed single #
loop $-1 $-1 $540 $379 #
plane-surface $-1 0 0 17.769613234242897 0 0 1 1 0 0 forward_v I I I I #
coedge $-1 $692 $382 $387 $545 forward $237 $-1 #
coedge $-1 $382 $692 $693 $694 reversed $237 $-1 #
coedge $-1 $384 $383 $382 $539 reversed $149 $-1 #
edge $-1 $695 -10.918575104676593 $550 -2.7835011544560135 $382 $696 forward 7 unknown #
coedge $-1 $693 $697 $384 $541 forward $534 $-1 #
edge $-1 $543 -73.619190038758504 $695 73.619190038758504 $540 $698 forward 7 unknown #
coedge $-1 $391 $385 $697 $699 reversed $392 $-1 #
vertex $-1 $386 $700 #
straight-curve $-1 73.619190038758504 -32.539210216132183 6.8510381295663034 0 0 1 I I #
edge $-1 $550 12.625269853459312 $548 27.202610871886431 $536 $701 forward 7 unknown #
coedge $-1 $702 $388 $391 $552 reversed $380 $-1 #
coedge $-1 $388 $702 $692 $703 forward $380 $-1 #
vertex $-1 $389 $704 #
straight-curve $-1 0 -47.116551234559303 9.634539284022317 1 0 0 I I #
vertex $-1 $545 $705 #
straight-curve $-1 0 -32.539210216132183 9.634539284022317 1 0 0 I I #
edge $-1 $706 -17.769613234242897 $393 -9.634539284022317 $391 $707 forward 7 unknown #
point $-1 73.619190038758504 -47.116551234559303 9.634539284022317 #
point $-1 73.619190038758504 -32.539210216132183 9.634539284022317 #
loop $-1 $-1 $404 $396 #
plane-surface $-1 -73.619190038758504 0 0 1 0 0 0 0 -1 forward_v I I I I #
coedge $-1 $558 $399 $401 $562 reversed $245 $-1 #
coedge $-1 $399 $557 $708 $709 reversed $245 $-1 #
coedge $-1 $407 $402 $399 $560 forward $397 $-1 #
edge $-1 $563 -30.768474686940166 $710 -26.294367962816708 $559 $711 forward 7 unknown #
coedge $-1 $401 $400 $566 $712 reversed $153 $-1 #
edge $-1 $713 -2.7113386213432547e-014 $563 8.6869438500786522 $557 $714 forward 7 unknown #
vertex $-1 $403 $715 #
straight-curve $-1 -69.145083314635031 -4.5194692645467676 17.769613234242897 0 1 0 I I #
coedge $-1 $708 $404 $407 $570 reversed $555 $-1 #
coedge $-1 $404 $708 $561 $712 forward $555 $-1 #
vertex $-1 $405 $716 #
straight-curve $-1 -73.619190038758504 -16.342195505265902 43.078409431476842 0 0 1 I I #
straight-curve $-1 -73.619190038758489 -16.342195505265902 10.323448954859003 -0.51503806187062418 0 -0.85716730853699208 I I #
edge $-1 $710 1.735681552921168 $408 16.342195505265902 $565 $717 forward 7 unknown #
point $-1 -73.619190038758504 -16.342195505265902 17.769613234242897 #
point $-1 -69.145083314635045 -16.342195505265902 17.769613234242897 #
edge $-1 $718 1 $718 0 $411 $-1 forward 7 unknown #
vertex $-1 $412 $719 #
ellipse-curve $-1 -68.721221687314952 -13.420892714796956 12.447692121943815 -0.85716730853699208 0 0.51503806187062418 0.51503806187062418 0 0.85716730853699208 1 I I #
point $-1 -70.867098614826162 -13.420892714796956 14.903698403087944 #
edge $-1 $720 1 $720 0 $415 $-1 forward 7 unknown #
vertex $-1 $416 $721 #
ellipse-curve $-1 -68.721221687314952 -9.0389385290935351 12.447692121943815 -0.85716730853699208 0 0.51503806187062418 0.51503806187062418 0 0.85716730853699208 1 I I #
point $-1 -70.867098614826162 -9.0389385290935351 14.903698403087944 #
edge $-1 $722 1 $722 0 $419 $-1 forward 7 unknown #
vertex $-1 $420 $723 #
ellipse-curve $-1 -68.721221687314952 -4.6569843433901141 12.447692121943815 -0.85716730853699208 0 0.51503806187062418 0.51503806187062418 0 0.85716730853699208 1 I I #
point $-1 -70.867098614826162 -4.6569843433901141 14.903698403087944 #
loop $-1 $-1 $431 $423 #
plane-surface $-1 -73.619190038758504 0 0 1 0 0 0 0 -1 forward_v I I I I #
coedge $-1 $588 $426 $428 $592 reversed $274 $-1 #
coedge $-1 $426 $587 $724 $725 reversed $274 $-1 #
coedge $-1 $434 $429 $426 $590 forward $424 $-1 #
edge $-1 $593 -30.768474686940166 $726 -26.294367962816708 $589 $727 forward 7 unknown #
coedge $-1 $428 $427 $596 $728 reversed $172 $-1 #
edge $-1 $729 -2.7113386213432547e-014 $593 8.6869438500786522 $587 $730 forward 7 unknown #
vertex $-1 $430 $731 #
straight-curve $-1 -69.145083314635031 11.808139773760342 17.769613234242897 0 1 0 I I #
coedge $-1 $724 $431 $434 $600 reversed $585 $-1 #
coedge $-1 $431 $724 $591 $728 forward $585 $-1 #
vertex $-1 $432 $732 #
straight-curve $-1 -73.619190038758504 16.313022571348316 43.078409431476842 0 0 1 I I #
straight-curve $-1 -73.619190038758489 16.313022571348316 10.323448954859003 -0.51503806187062418 0 -0.85716730853699208 I I #
edge $-1 $726 -30.919536523693051 $435 -16.313022571348316 $595 $733 forward 7 unknown #
point $-1 -73.619190038758504 16.313022571348316 17.769613234242897 #
point $-1 -69.145083314635045 16.313022571348316 17.769613234242897 #
edge $-1 $734 1 $734 0 $438 $-1 forward 7 unknown #
vertex $-1 $439 $735 #
ellipse-curve $-1 -68.721221687314952 19.234325361817262 12.447692121943815 -0.85716730853699208 0 0.51503806187062418 0.51503806187062418 0 0.85716730853699208 1 I I #
point $-1 -70.867098614826162 19.234325361817262 14.903698403087944 #
edge $-1 $736 1 $736 0 $442 $-1 forward 7 unknown #
vertex $-1 $443 $737 #
ellipse-curve $-1 -68.721221687314952 23.616279547520683 12.447692121943815 -0.85716730853699208 0 0.51503806187062418 0.51503806187062418 0 0.85716730853699208 1 I I #
point $-1 -70.867098614826162 23.616279547520683 14.903698403087944 #
edge $-1 $738 1 $738 0 $446 $-1 forward 7 unknown #
vertex $-1 $447 $739 #
ellipse-curve $-1 -68.721221687314952 27.998233733224104 12.447692121943815 -0.85716730853699208 0 0.51503806187062418 0.51503806187062418 0 0.85716730853699208 1 I I #
point $-1 -70.867098614826162 27.998233733224104 14.903698403087944 #
plane-surface $-1 0 0 17.769613234242897 0 0 1 1 0 0 forward_v I I I I #
coedge $-1 $626 $625 $618 $740 forward $451 $-1 #
coedge $-1 $618 $453 $455 $622 reversed $303 $-1 #
coedge $-1 $453 $617 $616 $740 reversed $303 $-1 #
coedge $-1 $461 $456 $453 $620 forward $462 $-1 #
edge $-1 $623 7.148210267107153 $741 11.62231699123064 $619 $742 forward 7 unknown #
coedge $-1 $455 $454 $626 $743 reversed $191 $-1 #
edge $-1 $744 -147.23838007751709 $623 -138.55143622743836 $617 $745 forward 7 unknown #
vertex $-1 $457 $746 #
straight-curve $-1 69.145083314635016 -4.5194692645467676 17.769613234242897 0 -1 0 I I #
coedge $-1 $616 $458 $461 $630 reversed $451 $-1 #
coedge $-1 $458 $616 $621 $743 forward $451 $-1 #
vertex $-1 $459 $747 #
straight-curve $-1 73.619190038758504 -1.735681552921168 106.18237241367279 0 0 1 I I #
straight-curve $-1 -2.2141798693362063 -1.735681552921168 136.53137491925091 0.51503806187062418 0 -0.85716730853699208 I I #
edge $-1 $741 -16.342195505265902 $463 -1.735681552921168 $625 $748 forward 7 unknown #
point $-1 73.619190038758504 -1.735681552921168 17.769613234242897 #
point $-1 69.145083314635016 -1.735681552921168 17.769613234242911 #
edge $-1 $749 1 $749 0 $466 $-1 forward 7 unknown #
vertex $-1 $467 $750 #
ellipse-curve $-1 68.721221687314952 -13.420892714796956 12.447692121943829 0.85716730853699208 0 0.51503806187062418 0.51503806187062418 0 -0.85716730853699208 1 I I #
point $-1 71.897174738567401 -13.420892714796956 13.189363786013972 #
edge $-1 $751 1 $751 0 $470 $-1 forward 7 unknown #
vertex $-1 $471 $752 #
ellipse-curve $-1 68.721221687314952 -9.0389385290935351 12.447692121943829 0.85716730853699208 0 0.51503806187062418 0.51503806187062418 0 -0.85716730853699208 1 I I #
point $-1 71.897174738567401 -9.0389385290935351 13.189363786013972 #
edge $-1 $753 1 $753 0 $474 $-1 forward 7 unknown #
vertex $-1 $475 $754 #
ellipse-curve $-1 68.721221687314952 -4.6569843433901141 12.447692121943829 0.85716730853699208 0 0.51503806187062418 0.51503806187062418 0 -0.85716730853699208 1 I I #
point $-1 71.897174738567401 -4.6569843433901141 13.189363786013972 #
plane-surface $-1 0 0 17.769613234242897 0 0 1 1 0 0 forward_v I I I I #
coedge $-1 $656 $655 $648 $755 forward $479 $-1 #
coedge $-1 $648 $481 $483 $652 reversed $332 $-1 #
coedge $-1 $481 $647 $646 $755 reversed $332 $-1 #
coedge $-1 $489 $484 $481 $650 forward $490 $-1 #
edge $-1 $653 7.148210267107153 $756 11.62231699123064 $649 $757 forward 7 unknown #
coedge $-1 $483 $482 $656 $758 reversed $210 $-1 #
edge $-1 $759 -147.23838007751709 $653 -138.55143622743836 $647 $760 forward 7 unknown #
vertex $-1 $485 $761 #
straight-curve $-1 69.145083314635016 11.808139773760342 17.769613234242897 0 -1 0 I I #
coedge $-1 $646 $486 $489 $660 reversed $479 $-1 #
coedge $-1 $486 $646 $651 $758 forward $479 $-1 #
vertex $-1 $487 $762 #
straight-curve $-1 73.619190038758504 30.919536523693051 106.18237241367279 0 0 1 I I #
straight-curve $-1 -2.2141798693362063 30.919536523693051 136.53137491925091 0.51503806187062418 0 -0.85716730853699208 I I #
edge $-1 $756 16.313022571348316 $491 30.919536523693051 $655 $763 forward 7 unknown #
point $-1 73.619190038758504 30.919536523693051 17.769613234242897 #
point $-1 69.145083314635016 30.919536523693051 17.769613234242911 #
edge $-1 $764 1 $764 0 $494 $-1 forward 7 unknown #
vertex $-1 $495 $765 #
ellipse-curve $-1 68.721221687314952 19.234325361817262 12.447692121943829 0.85716730853699208 0 0.51503806187062418 0.51503806187062418 0 -0.85716730853699208 1 I I #
point $-1 71.897174738567401 19.234325361817262 13.189363786013972 #
edge $-1 $766 1 $766 0 $498 $-1 forward 7 unknown #
vertex $-1 $499 $767 #
ellipse-curve $-1 68.721221687314952 23.616279547520683 12.447692121943829 0.85716730853699208 0 0.51503806187062418 0.51503806187062418 0 -0.85716730853699208 1 I I #
point $-1 71.897174738567401 23.616279547520683 13.189363786013972 #
edge $-1 $768 1 $768 0 $502 $-1 forward 7 unknown #
vertex $-1 $503 $769 #
ellipse-curve $-1 68.721221687314952 27.998233733224104 12.447692121943829 0.85716730853699208 0 0.51503806187062418 0.51503806187062418 0 -0.85716730853699208 1 I I #
point $-1 71.897174738567401 27.998233733224104 13.189363786013972 #
plane-surface $-1 73.619190038758504 0 0 -1 0 0 0 0 1 forward_v I I I I #
coedge $-1 $511 $509 $513 $680 reversed $361 $-1 #
edge $-1 $524 -17.769613234242897 $682 17.769613234242897 $523 $770 forward 7 unknown #
vertex $-1 $680 $771 #
straight-curve $-1 -73.619190038758504 -47.116551234559303 0 0 0 -1 I I #
edge $-1 $678 -47.116551234559303 $682 47.116551234559303 $676 $772 forward 7 unknown #
straight-curve $-1 0 -47.116551234559303 -17.769613234242897 -1 0 0 I I #
vertex $-1 $516 $773 #
straight-curve $-1 0 47.116551234559303 -17.769613234242897 1 0 0 I I #
point $-1 73.619190038758504 47.116551234559303 -17.769613234242897 #
point $-1 73.619190038758504 -47.116551234559303 -17.769613234242897 #
straight-curve $-1 -73.619190038758504 0 17.769613234242897 0 -1 0 I I #
point $-1 -73.619190038758504 47.116551234559303 17.769613234242897 #
point $-1 -73.619190038758504 -47.116551234559303 17.769613234242897 #
straight-curve $-1 73.619190038758504 -47.116551234559303 0 0 0 -1 I I #
straight-curve $-1 73.619190038758504 47.116551234559303 0 0 0 -1 I I #
plane-surface $-1 73.619190038758504 0 0 -1 0 0 0 0 1 forward_v I I I I #
coedge $-1 $537 $536 $547 $703 reversed $237 $-1 #
coedge $-1 $774 $540 $537 $694 forward $534 $-1 #
edge $-1 $695 32.539210216132183 $775 47.116551234559303 $537 $776 forward 7 unknown #
vertex $-1 $694 $777 #
straight-curve $-1 -73.619190038758504 -32.539210216132183 6.8510381295663034 0 0 -1 I I #
coedge $-1 $540 $774 $542 $699 forward $534 $-1 #
straight-curve $-1 0 -32.539210216132183 17.769613234242897 -1 0 0 I I #
edge $-1 $706 -47.116551234559303 $543 -32.539210216132183 $542 $778 forward 7 unknown #
point $-1 73.619190038758504 -32.539210216132183 17.769613234242897 #
straight-curve $-1 -73.619190038758504 -19.913940362672871 9.634539284022317 0 -1 0 I I #
coedge $-1 $547 $546 $774 $779 reversed $380 $-1 #
edge $-1 $775 -17.769613234242897 $548 -9.634539284022317 $692 $780 forward 7 unknown #
point $-1 -73.619190038758504 -47.116551234559303 9.634539284022317 #
point $-1 -73.619190038758504 -32.539210216132183 9.634539284022317 #
vertex $-1 $699 $781 #
straight-curve $-1 73.619190038758504 -47.116551234559303 0 0 0 -1 I I #
coedge $-1 $566 $565 $558 $709 forward $555 $-1 #
edge $-1 $710 25.308796197233946 $713 32.75496047661786 $708 $782 forward 7 unknown #
vertex $-1 $570 $783 #
straight-curve $-1 -99.913558001575211 -1.735681552921168 17.769613234242897 -1 0 0 I I #
edge $-1 $713 -2.7837877116255996 $567 11.822726240719135 $566 $784 forward 7 unknown #
vertex $-1 $712 $785 #
straight-curve $-1 -73.619190038758489 -1.735681552921168 10.323448954859003 0.51503806187062418 0 0.85716730853699208 I I #
point $-1 -69.145083314635045 -1.735681552921168 17.769613234242897 #
point $-1 -73.619190038758504 -16.342195505265902 10.32344895485898 #
straight-curve $-1 -73.619190038758504 0 17.769613234242897 0 -1 0 I I #
vertex $-1 $573 $786 #
point $-1 -68.206183625444325 -13.420892714796956 13.304859430480807 #
vertex $-1 $577 $787 #
point $-1 -68.206183625444325 -9.0389385290935351 13.304859430480807 #
vertex $-1 $581 $788 #
point $-1 -68.206183625444325 -4.6569843433901141 13.304859430480807 #
coedge $-1 $596 $595 $588 $725 forward $585 $-1 #
edge $-1 $726 25.308796197233946 $729 32.75496047661786 $724 $789 forward 7 unknown #
vertex $-1 $600 $790 #
straight-curve $-1 -99.913558001575211 30.919536523693051 17.769613234242897 -1 0 0 I I #
edge $-1 $729 -19.111396749932709 $597 -4.5048827975879746 $596 $791 forward 7 unknown #
vertex $-1 $728 $792 #
straight-curve $-1 -73.619190038758489 30.919536523693051 10.323448954859003 0.51503806187062418 0 0.85716730853699208 I I #
point $-1 -69.145083314635045 30.919536523693051 17.769613234242897 #
point $-1 -73.619190038758504 16.313022571348316 10.32344895485898 #
straight-curve $-1 -73.619190038758504 0 17.769613234242897 0 -1 0 I I #
vertex $-1 $603 $793 #
point $-1 -68.206183625444325 19.234325361817262 13.304859430480807 #
vertex $-1 $607 $794 #
point $-1 -68.206183625444325 23.616279547520683 13.304859430480807 #
vertex $-1 $611 $795 #
point $-1 -68.206183625444325 27.998233733224104 13.304859430480807 #
edge $-1 $741 88.412759179429898 $744 95.858923458813862 $616 $796 forward 7 unknown #
vertex $-1 $630 $797 #
straight-curve $-1 61.996873047527863 -16.342195505265902 17.769613234242897 1 0 0 I I #
edge $-1 $744 -11.822726240719135 $627 2.7837877116255996 $626 $798 forward 7 unknown #
vertex $-1 $743 $799 #
straight-curve $-1 -2.2141798693362063 -16.342195505265902 136.53137491925091 -0.51503806187062418 0 0.85716730853699208 I I #
point $-1 69.145083314635016 -16.342195505265902 17.769613234242911 #
point $-1 73.619190038758504 -1.735681552921168 10.323448954858932 #
straight-curve $-1 73.619190038758504 0 17.769613234242897 0 1 0 I I #
vertex $-1 $633 $800 #
point $-1 69.236259749185578 -13.420892714796956 11.590524813406837 #
vertex $-1 $637 $801 #
point $-1 69.236259749185578 -9.0389385290935351 11.590524813406837 #
vertex $-1 $641 $802 #
point $-1 69.236259749185578 -4.6569843433901141 11.590524813406837 #
edge $-1 $756 88.412759179429898 $759 95.858923458813862 $646 $803 forward 7 unknown #
vertex $-1 $660 $804 #
straight-curve $-1 61.996873047527863 16.313022571348316 17.769613234242897 1 0 0 I I #
edge $-1 $759 4.5048827975879746 $657 19.111396749932709 $656 $805 forward 7 unknown #
vertex $-1 $758 $806 #
straight-curve $-1 -2.2141798693362063 16.313022571348316 136.53137491925091 -0.51503806187062418 0 0.85716730853699208 I I #
point $-1 69.145083314635016 16.313022571348316 17.769613234242911 #
point $-1 73.619190038758504 30.919536523693051 10.323448954858932 #
straight-curve $-1 73.619190038758504 0 17.769613234242897 0 1 0 I I #
vertex $-1 $663 $807 #
point $-1 69.236259749185578 19.234325361817262 11.590524813406837 #
vertex $-1 $667 $808 #
point $-1 69.236259749185578 23.616279547520683 11.590524813406837 #
vertex $-1 $671 $809 #
point $-1 69.236259749185578 27.998233733224104 11.590524813406837 #
straight-curve $-1 -73.619190038758504 47.116551234559303 0 0 0 -1 I I #
point $-1 -73.619190038758504 -47.116551234559303 -17.769613234242897 #
straight-curve $-1 -73.619190038758504 0 -17.769613234242897 0 1 0 I I #
point $-1 -73.619190038758504 47.116551234559303 -17.769613234242897 #
coedge $-1 $697 $693 $702 $779 forward $534 $-1 #
vertex $-1 $694 $810 #
straight-curve $-1 -73.619190038758504 0 17.769613234242897 0 -1 0 I I #
point $-1 -73.619190038758504 -32.539210216132183 17.769613234242897 #
straight-curve $-1 73.619190038758504 0 17.769613234242897 0 1 0 I I #
edge $-1 $775 -73.619190038758504 $706 73.619190038758504 $702 $811 forward 7 unknown #
straight-curve $-1 -73.619190038758504 -47.116551234559303 0 0 0 -1 I I #
point $-1 73.619190038758504 -47.116551234559303 17.769613234242897 #
straight-curve $-1 -73.619190038758504 -1.735681552921168 43.078409431476842 0 0 -1 I I #
point $-1 -73.619190038758504 -1.735681552921168 17.769613234242897 #
straight-curve $-1 -73.619190038758504 -4.5194692645467676 10.323448954858961 0 -1 0 I I #
point $-1 -73.619190038758504 -1.735681552921168 10.32344895485898 #
point $-1 -67.864054378777965 -13.420892714796956 11.932654060073192 #
point $-1 -67.864054378777965 -9.0389385290935351 11.932654060073192 #
point $-1 -67.864054378777965 -4.6569843433901141 11.932654060073192 #
straight-curve $-1 -73.619190038758504 30.919536523693051 43.078409431476842 0 0 -1 I I #
point $-1 -73.619190038758504 30.919536523693051 17.769613234242897 #
straight-curve $-1 -73.619190038758504 11.808139773760342 10.323448954858961 0 -1 0 I I #
point $-1 -73.619190038758504 30.919536523693051 10.32344895485898 #
point $-1 -67.864054378777965 19.234325361817262 11.932654060073192 #
point $-1 -67.864054378777965 23.616279547520683 11.932654060073192 #
point $-1 -67.864054378777965 27.998233733224104 11.932654060073192 #
straight-curve $-1 73.619190038758504 -16.342195505265902 106.18237241367279 0 0 -1 I I #
point $-1 73.619190038758504 -16.342195505265902 17.769613234242897 #
straight-curve $-1 73.619190038758504 -4.5194692645467676 10.323448954858939 0 1 0 I I #
point $-1 73.619190038758504 -16.342195505265902 10.323448954858932 #
point $-1 67.864054378777965 -13.420892714796956 11.932654060073206 #
point $-1 67.864054378777965 -9.0389385290935351 11.932654060073206 #
point $-1 67.864054378777965 -4.6569843433901141 11.932654060073206 #
straight-curve $-1 73.619190038758504 16.313022571348316 106.18237241367279 0 0 -1 I I #
point $-1 73.619190038758504 16.313022571348316 17.769613234242897 #
straight-curve $-1 73.619190038758504 11.808139773760342 10.323448954858939 0 1 0 I I #
point $-1 73.619190038758504 16.313022571348316 10.323448954858932 #
point $-1 67.864054378777965 19.234325361817262 11.932654060073206 #
point $-1 67.864054378777965 23.616279547520683 11.932654060073206 #
point $-1 67.864054378777965 27.998233733224104 11.932654060073206 #
point $-1 -73.619190038758504 -47.116551234559303 17.769613234242897 #
straight-curve $-1 0 -47.116551234559303 17.769613234242897 1 0 0 I I #
End-of-ACIS-data 