500 0 5 0           
7 Unknown 11 ACIS 5.0 NT 24 Thu Mar 25 15:42:00 1999 
-1 9.9999999999999995e-007 1e-010 
body $-1 $5 $-1 $6 #
body $-1 $7 $-1 $8 #
body $-1 $9 $-1 $10 #
body $-1 $11 $-1 $12 #
body $-1 $13 $-1 $14 #
lump $-1 $-1 $15 $0 #
transform $-1 1 0 0 0 1 0 0 0 1 44.083376567888422 30.235596941640196 7.8766465972940729 1 rotate no_reflect no_shear #
lump $-1 $-1 $16 $1 #
transform $-1 1 0 0 0 1 0 0 0 1 44.083376567888422 30.235596941640196 7.8766465972940729 1 rotate no_reflect no_shear #
lump $-1 $-1 $17 $2 #
transform $-1 1 0 0 0 1 0 0 0 1 44.083376567888422 30.235596941640196 7.8766465972940729 1 rotate no_reflect no_shear #
lump $-1 $-1 $18 $3 #
transform $-1 1 0 0 0 1 0 0 0 1 44.083376567888422 30.235596941640196 7.8766465972940729 1 rotate no_reflect no_shear #
lump $-1 $-1 $19 $4 #
transform $-1 1 0 0 0 1 0 0 0 1 44.083376567888422 30.235596941640196 7.8766465972940729 1 rotate no_reflect no_shear #
shell $-1 $-1 $-1 $20 $-1 $5 #
shell $-1 $-1 $-1 $21 $-1 $7 #
shell $-1 $-1 $-1 $22 $-1 $9 #
shell $-1 $-1 $-1 $23 $-1 $11 #
shell $-1 $-1 $-1 $24 $-1 $13 #
face $-1 $25 $26 $15 $-1 $27 forward single #
face $-1 $28 $29 $16 $-1 $30 forward single #
face $-1 $31 $32 $17 $-1 $33 reversed single #
face $-1 $34 $35 $18 $-1 $36 forward single #
face $-1 $37 $38 $19 $-1 $39 forward single #
face $-1 $40 $41 $15 $-1 $42 reversed single #
loop $-1 $-1 $43 $20 #
plane-surface $-1 0 0 7.8766465972940729 0 0 1 1 0 0 forward_v I I I I #
face $-1 $44 $45 $16 $-1 $46 reversed single #
loop $-1 $-1 $47 $21 #
plane-surface $-1 -44.083376567888422 0 0 1 0 0 0 0 -1 forward_v I I I I #
face $-1 $48 $49 $17 $-1 $50 reversed single #
loop $-1 $-1 $51 $22 #
plane-surface $-1 39.749276248756729 -30.235596941640203 0.40972344378035075 0 -0.51503808176128008 0.85716729658548041 1 0 0 forward_v I I I I #
face $-1 $52 $53 $18 $-1 $54 forward single #
loop $-1 $55 $56 $23 #
cone-surface $-1 37.891804683414563 -23.764554512914739 3.7146013722444682 0 0.51503808176128008 -0.85716729658548041 0.5 0 0 1 I I 0 1 0.5 forward I I I I #
face $-1 $57 $58 $19 $-1 $59 forward single #
loop $-1 $60 $61 $24 #
cone-surface $-1 41.606747814098895 -23.764554512914739 3.7146013722444682 0 0.51503808176128008 -0.85716729658548041 0.5 0 0 1 I I 0 1 0.5 forward I I I I #
face $-1 $62 $63 $15 $-1 $64 reversed single #
loop $-1 $-1 $65 $25 #
plane-surface $-1 0 0 -7.8766465972940729 0 0 1 1 0 0 forward_v I I I I #
coedge $-1 $66 $67 $68 $69 forward $26 $-1 #
face $-1 $70 $71 $16 $-1 $72 reversed single #
loop $-1 $-1 $73 $28 #
plane-surface $-1 0 0 -7.8766465972940729 0 0 1 1 0 0 forward_v I I I I #
coedge $-1 $74 $75 $76 $77 forward $29 $-1 #
face $-1 $78 $79 $17 $-1 $80 reversed single #
loop $-1 $-1 $81 $31 #
plane-surface $-1 35.415175929625015 -75.644832351811033 75.983380877893609 1 0 0 0 0.51503808176128008 -0.85716729658548041 forward_v I I I I #
coedge $-1 $82 $83 $84 $85 reversed $32 $-1 #
face $-1 $-1 $86 $18 $-1 $87 forward single #
loop $-1 $88 $89 $34 #
cone-surface $-1 37.891804683414563 -23.378275951593778 3.071725899805358 0 0.51503808176128008 -0.85716729658548041 0.25 0 0 1 I I -0.70710678118654746 0.70710678118654746 0.25 forward I I I I #
loop $-1 $-1 $90 $23 #
coedge $-1 $56 $56 $91 $92 reversed $35 $-1 #
face $-1 $-1 $93 $19 $-1 $94 forward single #
loop $-1 $95 $96 $37 #
cone-surface $-1 41.606747814098895 -23.378275951593778 3.071725899805358 0 0.51503808176128008 -0.85716729658548041 0.25 0 0 1 I I -0.70710678118654746 0.70710678118654746 0.25 forward I I I I #
loop $-1 $-1 $97 $24 #
coedge $-1 $61 $61 $98 $99 reversed $38 $-1 #
face $-1 $100 $101 $15 $-1 $102 reversed single #
loop $-1 $-1 $103 $40 #
plane-surface $-1 0 -30.235596941640196 0 0 1 0 0 0 1 forward_v I I I I #
coedge $-1 $104 $105 $106 $107 forward $41 $-1 #
coedge $-1 $108 $43 $109 $110 forward $26 $-1 #
coedge $-1 $43 $108 $111 $112 forward $26 $-1 #
coedge $-1 $113 $114 $43 $69 reversed $115 $-1 #
edge $-1 $116 -30.235596941640196 $117 30.235596941640196 $68 $118 forward 7 unknown #
face $-1 $119 $120 $16 $-1 $121 reversed single #
loop $-1 $-1 $122 $44 #
plane-surface $-1 -48.143230559616725 -19.028202908980482 0 0 1 0 0 0 1 forward_v I I I I #
coedge $-1 $123 $124 $75 $125 forward $45 $-1 #
coedge $-1 $126 $47 $127 $128 reversed $29 $-1 #
coedge $-1 $47 $126 $73 $125 reversed $29 $-1 #
coedge $-1 $129 $130 $47 $77 reversed $131 $-1 #
edge $-1 $132 -7.8766465972940729 $133 7.8766465972940729 $76 $134 forward 7 unknown #
face $-1 $135 $136 $17 $-1 $137 forward single #
loop $-1 $-1 $138 $48 #
plane-surface $-1 0 -30.235596941640196 0 0 1 0 0 0 1 forward_v I I I I #
coedge $-1 $139 $140 $141 $142 reversed $49 $-1 #
coedge $-1 $143 $51 $144 $145 reversed $32 $-1 #
coedge $-1 $51 $143 $139 $146 forward $32 $-1 #
coedge $-1 $141 $147 $51 $85 forward $136 $-1 #
edge $-1 $148 -24.208738443510079 $149 -15.54053780524665 $84 $150 forward 7 unknown #
loop $-1 $-1 $91 $52 #
plane-surface $-1 39.749276248756729 -30.235596941640203 0.40972344378035075 0 -0.51503808176128008 0.85716729658548041 1 0 0 forward_v I I I I #
loop $-1 $-1 $151 $34 #
coedge $-1 $89 $89 $90 $152 reversed $53 $-1 #
coedge $-1 $90 $90 $89 $152 forward $55 $-1 #
coedge $-1 $91 $91 $56 $92 forward $86 $-1 #
edge $-1 $153 -1.2285913935065173e-015 $153 6.2831853071795996 $91 $154 forward 7 unknown #
loop $-1 $-1 $98 $57 #
plane-surface $-1 39.749276248756729 -30.235596941640203 0.40972344378035075 0 -0.51503808176128008 0.85716729658548041 1 0 0 forward_v I I I I #
loop $-1 $-1 $155 $37 #
coedge $-1 $96 $96 $97 $156 reversed $58 $-1 #
coedge $-1 $97 $97 $96 $156 forward $60 $-1 #
coedge $-1 $98 $98 $61 $99 forward $93 $-1 #
edge $-1 $157 -1.2285913935065173e-015 $157 6.2831853071795996 $98 $158 forward 7 unknown #
face $-1 $159 $160 $15 $-1 $161 reversed single #
loop $-1 $-1 $162 $62 #
plane-surface $-1 -44.083376567888422 0 0 1 0 0 0 0 -1 forward_v I I I I #
coedge $-1 $163 $111 $164 $165 forward $63 $-1 #
coedge $-1 $166 $65 $163 $167 forward $41 $-1 #
coedge $-1 $65 $166 $168 $169 forward $41 $-1 #
coedge $-1 $114 $113 $65 $107 reversed $115 $-1 #
edge $-1 $170 -30.235596941640196 $171 30.235596941640196 $106 $172 forward 7 unknown #
coedge $-1 $67 $66 $173 $174 forward $26 $-1 #
coedge $-1 $175 $176 $66 $110 reversed $160 $-1 #
edge $-1 $117 -44.083376567888422 $177 44.083376567888422 $109 $178 forward 7 unknown #
coedge $-1 $103 $179 $67 $112 reversed $63 $-1 #
edge $-1 $180 -44.083376567888422 $116 44.083376567888422 $111 $181 forward 7 unknown #
coedge $-1 $106 $68 $179 $182 forward $115 $-1 #
coedge $-1 $68 $106 $175 $183 reversed $115 $-1 #
loop $-1 $-1 $113 $159 #
vertex $-1 $69 $184 #
vertex $-1 $69 $185 #
straight-curve $-1 44.083376567888422 0 7.8766465972940729 0 1 0 I I #
face $-1 $186 $131 $16 $-1 $187 reversed single #
loop $-1 $-1 $188 $70 #
plane-surface $-1 -52.203084551345029 -17.047466793466597 0 1 0 0 0 0 -1 forward_v I I I I #
coedge $-1 $189 $190 $191 $192 forward $71 $-1 #
coedge $-1 $193 $73 $189 $194 forward $45 $-1 #
coedge $-1 $73 $193 $129 $195 forward $45 $-1 #
edge $-1 $132 15.066730677952712 $196 19.028202908980482 $73 $197 forward 7 unknown #
coedge $-1 $75 $74 $198 $199 forward $29 $-1 #
coedge $-1 $200 $201 $74 $128 forward $202 $-1 #
edge $-1 $203 -19.028202908980482 $133 -15.066730677952712 $127 $204 forward 7 unknown #
coedge $-1 $205 $76 $124 $195 reversed $131 $-1 #
coedge $-1 $76 $205 $200 $206 reversed $131 $-1 #
loop $-1 $-1 $76 $119 #
vertex $-1 $125 $207 #
vertex $-1 $206 $208 #
straight-curve $-1 -44.083376567888422 -15.066730677952712 0 0 0 1 I I #
face $-1 $-1 $209 $17 $-1 $210 reversed single #
loop $-1 $-1 $141 $78 #
plane-surface $-1 0 0 7.8766465972940729 0 0 1 1 0 0 forward_v I I I I #
coedge $-1 $211 $212 $140 $213 forward $79 $-1 #
coedge $-1 $140 $81 $83 $146 reversed $49 $-1 #
coedge $-1 $81 $139 $138 $213 reversed $49 $-1 #
coedge $-1 $214 $84 $81 $142 forward $136 $-1 #
edge $-1 $149 -20.013866009954945 $215 -7.5868192342653202 $141 $216 forward 7 unknown #
coedge $-1 $83 $82 $211 $217 reversed $32 $-1 #
coedge $-1 $218 $219 $82 $145 forward $209 $-1 #
edge $-1 $220 -12.852970857288337 $148 1.6448370096154421 $144 $221 forward 7 unknown #
edge $-1 $222 8.2919974363804304e-015 $149 14.497807866903788 $139 $223 forward 7 unknown #
coedge $-1 $84 $214 $218 $224 forward $136 $-1 #
vertex $-1 $145 $225 #
vertex $-1 $85 $226 #
straight-curve $-1 19.874638124378365 -17.808550165950574 7.8766465972940729 -1 0 0 I I #
coedge $-1 $151 $151 $-1 $227 reversed $88 $-1 #
edge $-1 $228 0 $228 6.2831853071796004 $89 $229 forward 7 unknown #
vertex $-1 $92 $230 #
ellipse-curve $-1 37.891804683414563 -24.022073553795384 4.1431850205372154 0 -0.51503808176128008 0.85716729658548041 0.5 0 0 1 I I #
coedge $-1 $155 $155 $-1 $231 reversed $95 $-1 #
edge $-1 $232 0 $232 6.2831853071796004 $96 $233 forward 7 unknown #
vertex $-1 $99 $234 #
ellipse-curve $-1 41.606747814098895 -24.022073553795384 4.1431850205372154 0 -0.51503808176128008 0.85716729658548041 0.5 0 0 1 I I #
face $-1 $-1 $115 $15 $-1 $235 reversed single #
loop $-1 $-1 $175 $100 #
plane-surface $-1 0 30.235596941640196 0 0 -1 0 0 0 -1 forward_v I I I I #
coedge $-1 $236 $173 $176 $237 forward $101 $-1 #
coedge $-1 $179 $103 $104 $167 reversed $63 $-1 #
coedge $-1 $173 $236 $103 $165 reversed $101 $-1 #
edge $-1 $180 -7.8766465972940729 $238 7.8766465972940729 $164 $239 forward 7 unknown #
coedge $-1 $105 $104 $236 $240 forward $41 $-1 #
edge $-1 $171 -44.083376567888422 $238 44.083376567888422 $163 $241 forward 7 unknown #
coedge $-1 $176 $175 $105 $169 reversed $160 $-1 #
edge $-1 $242 -44.083376567888422 $170 44.083376567888422 $168 $243 forward 7 unknown #
vertex $-1 $107 $244 #
vertex $-1 $182 $245 #
straight-curve $-1 44.083376567888422 0 -7.8766465972940729 0 -1 0 I I #
coedge $-1 $162 $164 $108 $174 reversed $101 $-1 #
edge $-1 $177 -30.235596941640196 $180 30.235596941640196 $173 $246 forward 7 unknown #
coedge $-1 $168 $109 $114 $183 forward $160 $-1 #
coedge $-1 $109 $168 $162 $237 reversed $160 $-1 #
vertex $-1 $110 $247 #
straight-curve $-1 0 30.235596941640196 7.8766465972940729 -1 0 0 I I #
coedge $-1 $111 $163 $113 $182 reversed $63 $-1 #
vertex $-1 $174 $248 #
straight-curve $-1 0 -30.235596941640196 7.8766465972940729 1 0 0 I I #
edge $-1 $116 -7.8766465972940729 $171 7.8766465972940729 $113 $249 forward 7 unknown #
edge $-1 $117 -7.8766465972940729 $170 7.8766465972940729 $114 $250 forward 7 unknown #
point $-1 44.083376567888422 -30.235596941640196 7.8766465972940729 #
point $-1 44.083376567888422 30.235596941640196 7.8766465972940729 #
face $-1 $-1 $202 $16 $-1 $251 forward single #
plane-surface $-1 -48.143230559616725 -15.066730677952712 0 0 -1 0 0 0 -1 forward_v I I I I #
coedge $-1 $252 $253 $205 $254 forward $120 $-1 #
coedge $-1 $198 $122 $123 $194 reversed $71 $-1 #
coedge $-1 $122 $198 $201 $255 reversed $71 $-1 #
coedge $-1 $253 $252 $122 $192 reversed $120 $-1 #
edge $-1 $256 -7.8766465972940729 $257 7.8766465972940729 $191 $258 forward 7 unknown #
coedge $-1 $124 $123 $252 $259 forward $45 $-1 #
edge $-1 $196 -4.0598539917283034 $257 4.0598539917283034 $189 $260 forward 7 unknown #
edge $-1 $261 -4.0598539917283034 $132 4.0598539917283034 $129 $262 forward 7 unknown #
vertex $-1 $194 $263 #
straight-curve $-1 -44.083376567888422 0 -7.8766465972940729 0 -1 0 I I #
coedge $-1 $190 $189 $126 $199 reversed $71 $-1 #
edge $-1 $203 -7.8766465972940729 $196 7.8766465972940729 $198 $264 forward 7 unknown #
coedge $-1 $265 $127 $130 $206 forward $202 $-1 #
coedge $-1 $127 $265 $190 $255 forward $202 $-1 #
loop $-1 $-1 $127 $186 #
vertex $-1 $128 $266 #
straight-curve $-1 -44.083376567888422 0 7.8766465972940729 0 1 0 I I #
coedge $-1 $130 $129 $188 $254 reversed $131 $-1 #
edge $-1 $133 -4.0598539917283034 $267 4.0598539917283034 $130 $268 forward 7 unknown #
point $-1 -44.083376567888422 -15.066730677952712 -7.8766465972940729 #
point $-1 -44.083376567888422 -15.066730677952712 7.8766465972940729 #
loop $-1 $-1 $144 $135 #
plane-surface $-1 44.083376567888422 0 0 -1 0 0 0 0 1 forward_v I I I I #
coedge $-1 $269 $138 $143 $217 forward $79 $-1 #
coedge $-1 $138 $269 $214 $270 reversed $79 $-1 #
edge $-1 $215 30.115043841652732 $222 37.581966995166447 $138 $271 forward 7 unknown #
coedge $-1 $147 $141 $212 $270 forward $136 $-1 #
vertex $-1 $270 $272 #
straight-curve $-1 35.415175929625015 -37.822416175905516 7.8766465972940694 0 -1 0 I I #
edge $-1 $222 15.54053780524665 $220 24.208738443510079 $211 $273 forward 7 unknown #
coedge $-1 $219 $144 $147 $224 reversed $209 $-1 #
coedge $-1 $144 $218 $269 $274 forward $209 $-1 #
vertex $-1 $217 $275 #
straight-curve $-1 44.083376567888422 -19.218450658806386 7.0294928990517764 0 0.85716729658548041 0.51503808176128008 I I #
vertex $-1 $217 $276 #
straight-curve $-1 35.415175929625015 -30.235596941640203 0.40972344378035075 0 0.85716729658548041 0.51503808176128008 I I #
edge $-1 $277 -30.235596941640196 $148 -17.808550165950571 $218 $278 forward 7 unknown #
point $-1 44.083376567888443 -17.808550165950571 7.8766465972940729 #
point $-1 35.415175929625015 -17.808550165950571 7.8766465972940729 #
edge $-1 $279 1 $279 0 $151 $-1 forward 7 unknown #
vertex $-1 $152 $280 #
ellipse-curve $-1 37.891804683414563 -23.507035472034097 3.2860177239517281 0 -0.51503808176128008 0.85716729658548041 0.5 0 0 1 I I #
point $-1 38.391804683414563 -24.02207355379538 4.1431850205372083 #
edge $-1 $281 1 $281 0 $155 $-1 forward 7 unknown #
vertex $-1 $156 $282 #
ellipse-curve $-1 41.606747814098895 -23.507035472034097 3.2860177239517281 0 -0.51503808176128008 0.85716729658548041 0.5 0 0 1 I I #
point $-1 42.106747814098895 -24.02207355379538 4.1431850205372083 #
plane-surface $-1 44.083376567888422 0 0 -1 0 0 0 0 1 forward_v I I I I #
coedge $-1 $164 $162 $166 $240 reversed $101 $-1 #
edge $-1 $177 -7.8766465972940729 $242 7.8766465972940729 $176 $283 forward 7 unknown #
vertex $-1 $240 $284 #
straight-curve $-1 -44.083376567888422 -30.235596941640196 0 0 0 -1 I I #
edge $-1 $238 -30.235596941640196 $242 30.235596941640196 $236 $285 forward 7 unknown #
straight-curve $-1 0 -30.235596941640196 -7.8766465972940729 -1 0 0 I I #
vertex $-1 $169 $286 #
straight-curve $-1 0 30.235596941640196 -7.8766465972940729 1 0 0 I I #
point $-1 44.083376567888422 30.235596941640196 -7.8766465972940729 #
point $-1 44.083376567888422 -30.235596941640196 -7.8766465972940729 #
straight-curve $-1 -44.083376567888422 0 7.8766465972940729 0 -1 0 I I #
point $-1 -44.083376567888422 30.235596941640196 7.8766465972940729 #
point $-1 -44.083376567888422 -30.235596941640196 7.8766465972940729 #
straight-curve $-1 44.083376567888422 -30.235596941640196 0 0 0 -1 I I #
straight-curve $-1 44.083376567888422 30.235596941640196 0 0 0 -1 I I #
plane-surface $-1 0 0 7.8766465972940729 0 0 1 1 0 0 forward_v I I I I #
coedge $-1 $191 $188 $193 $259 reversed $120 $-1 #
coedge $-1 $188 $191 $265 $287 reversed $120 $-1 #
edge $-1 $267 -7.8766465972940729 $261 7.8766465972940729 $205 $288 forward 7 unknown #
edge $-1 $256 -4.0598539917283034 $203 4.0598539917283034 $190 $289 forward 7 unknown #
vertex $-1 $287 $290 #
vertex $-1 $259 $291 #
straight-curve $-1 -52.203084551345029 -19.028202908980482 0 0 0 -1 I I #
edge $-1 $257 -1.980736115513885 $261 1.980736115513885 $252 $292 forward 7 unknown #
straight-curve $-1 -48.143230559616725 -19.028202908980482 -7.8766465972940729 -1 0 0 I I #
vertex $-1 $195 $293 #
straight-curve $-1 -48.143230559616725 -15.066730677952712 -7.8766465972940729 1 0 0 I I #
point $-1 -44.083376567888422 -19.028202908980482 -7.8766465972940729 #
straight-curve $-1 -44.083376567888422 -19.028202908980482 0 0 0 -1 I I #
coedge $-1 $201 $200 $253 $287 forward $202 $-1 #
point $-1 -44.083376567888422 -19.028202908980482 7.8766465972940729 #
vertex $-1 $206 $294 #
straight-curve $-1 -48.143230559616725 -15.066730677952712 7.8766465972940729 -1 0 0 I I #
coedge $-1 $212 $211 $219 $274 reversed $79 $-1 #
edge $-1 $215 35.415175929625015 $277 44.083376567888422 $212 $295 forward 7 unknown #
straight-curve $-1 35.415175929625015 -30.235596941640196 37.991690438946804 0 0 -1 I I #
point $-1 35.415175929625015 -30.235596941640196 7.8766465972940729 #
straight-curve $-1 19.874638124378365 -30.235596941640196 0.40972344378035513 1 0 0 I I #
edge $-1 $277 -7.8766465972940729 $220 -0.40972344378035502 $219 $296 forward 7 unknown #
point $-1 44.083376567888443 -30.235596941640196 0.40972344378035502 #
point $-1 35.415175929625015 -30.235596941640196 0.40972344378035502 #
vertex $-1 $224 $297 #
straight-curve $-1 44.083376567888422 0 7.8766465972940729 0 1 0 I I #
vertex $-1 $227 $298 #
point $-1 38.391804683414563 -23.507035472034097 3.2860177239517281 #
vertex $-1 $231 $299 #
point $-1 42.106747814098895 -23.507035472034097 3.2860177239517281 #
straight-curve $-1 -44.083376567888422 30.235596941640196 0 0 0 -1 I I #
point $-1 -44.083376567888422 -30.235596941640196 -7.8766465972940729 #
straight-curve $-1 -44.083376567888422 0 -7.8766465972940729 0 1 0 I I #
point $-1 -44.083376567888422 30.235596941640196 -7.8766465972940729 #
edge $-1 $267 -1.980736115513885 $256 1.980736115513885 $253 $300 forward 7 unknown #
straight-curve $-1 -52.203084551345029 -15.066730677952712 0 0 0 -1 I I #
straight-curve $-1 -48.143230559616725 -19.028202908980482 7.8766465972940729 1 0 0 I I #
point $-1 -52.203084551345029 -19.028202908980482 7.8766465972940729 #
point $-1 -52.203084551345029 -19.028202908980482 -7.8766465972940729 #
straight-curve $-1 -52.203084551345029 -17.047466793466597 -7.8766465972940729 0 1 0 I I #
point $-1 -52.203084551345029 -15.066730677952712 -7.8766465972940729 #
point $-1 -52.203084551345029 -15.066730677952712 7.8766465972940729 #
straight-curve $-1 0 -30.235596941640196 7.8766465972940729 1 0 0 I I #
straight-curve $-1 44.083376567888422 -30.235596941640196 0 0 0 -1 I I #
point $-1 44.083376567888422 -30.235596941640196 7.8766465972940729 #
point $-1 37.891804683414563 -23.249516431153459 2.857434075658988 #
point $-1 41.606747814098895 -23.249516431153459 2.857434075658988 #
straight-curve $-1 -52.203084551345029 -17.047466793466597 7.8766465972940729 0 -1 0 I I #
End-of-ACIS-data 