500 0 20 0           
7 Unknown 11 ACIS 5.0 NT 24 Thu Mar 25 15:10:42 1999 
-1 9.9999999999999995e-007 1e-010 
body $-1 $20 $-1 $21 #
body $-1 $22 $-1 $23 #
body $-1 $24 $-1 $25 #
body $-1 $26 $-1 $27 #
body $-1 $28 $-1 $29 #
body $-1 $30 $-1 $31 #
body $-1 $32 $-1 $33 #
body $-1 $34 $-1 $35 #
body $-1 $36 $-1 $37 #
body $-1 $38 $-1 $39 #
body $-1 $40 $-1 $41 #
body $-1 $42 $-1 $43 #
body $-1 $44 $-1 $45 #
body $-1 $46 $-1 $47 #
body $-1 $48 $-1 $49 #
body $-1 $50 $-1 $51 #
body $-1 $52 $-1 $53 #
body $-1 $54 $-1 $55 #
body $-1 $56 $-1 $57 #
body $-1 $58 $-1 $59 #
lump $-1 $-1 $60 $0 #
transform $-1 1 0 0 0 1 0 0 0 1 62.543412579729605 38.800889469954562 16.008934144111567 1 rotate no_reflect no_shear #
lump $-1 $-1 $61 $1 #
transform $-1 1 0 0 0 1 0 0 0 1 62.543412579729605 38.800889469954562 16.008934144111567 1 rotate no_reflect no_shear #
lump $-1 $-1 $62 $2 #
transform $-1 1 0 0 0 1 0 0 0 1 62.543412579729605 38.800889469954562 16.008934144111567 1 rotate no_reflect no_shear #
lump $-1 $-1 $63 $3 #
transform $-1 1 0 0 0 1 0 0 0 1 62.543412579729605 38.800889469954562 16.008934144111567 1 rotate no_reflect no_shear #
lump $-1 $-1 $64 $4 #
transform $-1 1 0 0 0 1 0 0 0 1 62.543412579729605 38.800889469954562 16.008934144111567 1 rotate no_reflect no_shear #
lump $-1 $-1 $65 $5 #
transform $-1 1 0 0 0 1 0 0 0 1 62.543412579729605 38.800889469954562 16.008934144111567 1 rotate no_reflect no_shear #
lump $-1 $-1 $66 $6 #
transform $-1 1 0 0 0 1 0 0 0 1 62.543412579729605 38.800889469954562 16.008934144111567 1 rotate no_reflect no_shear #
lump $-1 $-1 $67 $7 #
transform $-1 1 0 0 0 1 0 0 0 1 62.543412579729605 38.800889469954562 16.008934144111567 1 rotate no_reflect no_shear #
lump $-1 $-1 $68 $8 #
transform $-1 1 0 0 0 1 0 0 0 1 62.543412579729605 38.800889469954562 16.008934144111567 1 rotate no_reflect no_shear #
lump $-1 $-1 $69 $9 #
transform $-1 1 0 0 0 1 0 0 0 1 62.543412579729605 38.800889469954562 16.008934144111567 1 rotate no_reflect no_shear #
lump $-1 $-1 $70 $10 #
transform $-1 1 0 0 0 1 0 0 0 1 62.543412579729605 38.800889469954562 16.008934144111567 1 rotate no_reflect no_shear #
lump $-1 $-1 $71 $11 #
transform $-1 1 0 0 0 1 0 0 0 1 62.543412579729605 38.800889469954562 16.008934144111567 1 rotate no_reflect no_shear #
lump $-1 $-1 $72 $12 #
transform $-1 1 0 0 0 1 0 0 0 1 62.543412579729605 38.800889469954562 16.008934144111567 1 rotate no_reflect no_shear #
lump $-1 $-1 $73 $13 #
transform $-1 1 0 0 0 1 0 0 0 1 62.543412579729605 38.800889469954562 16.008934144111567 1 rotate no_reflect no_shear #
lump $-1 $-1 $74 $14 #
transform $-1 1 0 0 0 1 0 0 0 1 62.543412579729605 38.800889469954562 16.008934144111567 1 rotate no_reflect no_shear #
lump $-1 $-1 $75 $15 #
transform $-1 1 0 0 0 1 0 0 0 1 62.543412579729605 38.800889469954562 16.008934144111567 1 rotate no_reflect no_shear #
lump $-1 $-1 $76 $16 #
transform $-1 1 0 0 0 1 0 0 0 1 62.543412579729605 38.800889469954562 16.008934144111567 1 rotate no_reflect no_shear #
lump $-1 $-1 $77 $17 #
transform $-1 1 0 0 0 1 0 0 0 1 62.543412579729605 38.800889469954562 16.008934144111567 1 rotate no_reflect no_shear #
lump $-1 $-1 $78 $18 #
transform $-1 1 0 0 0 1 0 0 0 1 62.543412579729605 38.800889469954562 16.008934144111567 1 rotate no_reflect no_shear #
lump $-1 $-1 $79 $19 #
transform $-1 1 0 0 0 1 0 0 0 1 62.543412579729605 38.800889469954562 16.008934144111567 1 rotate no_reflect no_shear #
shell $-1 $-1 $-1 $80 $-1 $20 #
shell $-1 $-1 $-1 $81 $-1 $22 #
shell $-1 $-1 $-1 $82 $-1 $24 #
shell $-1 $-1 $-1 $83 $-1 $26 #
shell $-1 $-1 $-1 $84 $-1 $28 #
shell $-1 $-1 $-1 $85 $-1 $30 #
shell $-1 $-1 $-1 $86 $-1 $32 #
shell $-1 $-1 $-1 $87 $-1 $34 #
shell $-1 $-1 $-1 $88 $-1 $36 #
shell $-1 $-1 $-1 $89 $-1 $38 #
shell $-1 $-1 $-1 $90 $-1 $40 #
shell $-1 $-1 $-1 $91 $-1 $42 #
shell $-1 $-1 $-1 $92 $-1 $44 #
shell $-1 $-1 $-1 $93 $-1 $46 #
shell $-1 $-1 $-1 $94 $-1 $48 #
shell $-1 $-1 $-1 $95 $-1 $50 #
shell $-1 $-1 $-1 $96 $-1 $52 #
shell $-1 $-1 $-1 $97 $-1 $54 #
shell $-1 $-1 $-1 $98 $-1 $56 #
shell $-1 $-1 $-1 $99 $-1 $58 #
face $-1 $100 $101 $60 $-1 $102 forward single #
face $-1 $103 $104 $61 $-1 $105 reversed single #
face $-1 $106 $107 $62 $-1 $108 reversed single #
face $-1 $109 $110 $63 $-1 $111 forward single #
face $-1 $112 $113 $64 $-1 $114 forward single #
face $-1 $115 $116 $65 $-1 $117 reversed single #
face $-1 $118 $119 $66 $-1 $120 forward single #
face $-1 $121 $122 $67 $-1 $123 forward single #
face $-1 $124 $125 $68 $-1 $126 reversed single #
face $-1 $127 $128 $69 $-1 $129 forward single #
face $-1 $130 $131 $70 $-1 $132 forward single #
face $-1 $133 $134 $71 $-1 $135 reversed single #
face $-1 $136 $137 $72 $-1 $138 forward single #
face $-1 $139 $140 $73 $-1 $141 forward single #
face $-1 $142 $143 $74 $-1 $144 reversed single #
face $-1 $145 $146 $75 $-1 $147 forward single #
face $-1 $148 $149 $76 $-1 $150 forward single #
face $-1 $151 $152 $77 $-1 $153 reversed single #
face $-1 $154 $155 $78 $-1 $156 forward single #
face $-1 $157 $158 $79 $-1 $159 forward single #
face $-1 $160 $161 $60 $-1 $162 reversed single #
loop $-1 $-1 $163 $80 #
plane-surface $-1 0 0 16.008934144111567 0 0 1 1 0 0 forward_v I I I I #
face $-1 $164 $165 $61 $-1 $166 reversed single #
loop $-1 $-1 $167 $81 #
plane-surface $-1 -55.718321296969044 -34.641898631758686 0 0 -1 0 0 0 -1 forward_v I I I I #
face $-1 $168 $169 $62 $-1 $170 reversed single #
loop $-1 $-1 $171 $82 #
plane-surface $-1 -26.178139550239781 -106.92805811049794 112.49832605850905 -1 0 0 0 -0.54463904215088732 0.83867056331134215 forward_v I I I I #
face $-1 $172 $173 $63 $-1 $174 forward single #
loop $-1 $175 $176 $83 #
cone-surface $-1 -34.80471518120109 -31.658440314037595 10.781323875708832 0 0.54463904215088732 -0.83867056331134215 1 0 0 1 I I 0 1 1 forward I I I I #
face $-1 $177 $178 $64 $-1 $179 forward single #
loop $-1 $180 $181 $84 #
cone-surface $-1 -29.628769802624305 -31.658440314037595 10.781323875708832 0 0.54463904215088732 -0.83867056331134215 1 0 0 1 I I 0 1 1 forward I I I I #
face $-1 $182 $183 $65 $-1 $184 reversed single #
loop $-1 $-1 $185 $85 #
plane-surface $-1 29.540181746729257 -106.92805811049794 112.49832605850905 -1 0 0 0 -0.54463904215088732 0.83867056331134215 forward_v I I I I #
face $-1 $186 $187 $66 $-1 $188 forward single #
loop $-1 $189 $190 $86 #
cone-surface $-1 20.913606115767948 -31.658440314037595 10.781323875708832 0 0.54463904215088732 -0.83867056331134215 1 0 0 1 I I 0 1 1 forward I I I I #
face $-1 $191 $192 $67 $-1 $193 forward single #
loop $-1 $194 $195 $87 #
cone-surface $-1 26.089551494344747 -31.658440314037595 10.781323875708832 0 0.54463904215088732 -0.83867056331134215 1 0 0 1 I I 0 1 1 forward I I I I #
face $-1 $196 $197 $68 $-1 $198 reversed single #
loop $-1 $-1 $199 $88 #
plane-surface $-1 -40.421612269065967 74.874097694690079 153.26250669357904 1 0 0 0 -0.71933980857756763 -0.69465836192734942 forward_v I I I I #
face $-1 $200 $201 $69 $-1 $202 forward single #
loop $-1 $203 $204 $89 #
cone-surface $-1 -37.187423751508732 35.218281217718697 12.365087562468904 0 -0.71933980857756763 -0.69465836192734942 1 0 0 1 I I 0 1 1 forward I I I I #
face $-1 $205 $206 $70 $-1 $207 forward single #
loop $-1 $208 $209 $90 #
cone-surface $-1 -32.336140975172867 35.218281217718697 12.365087562468904 0 -0.71933980857756763 -0.69465836192734942 1 0 0 1 I I 0 1 1 forward I I I I #
face $-1 $210 $211 $71 $-1 $212 reversed single #
loop $-1 $-1 $213 $91 #
plane-surface $-1 -12.697029838331737 74.874097694690079 153.26250669357904 1 0 0 0 -0.71933980857756763 -0.69465836192734942 forward_v I I I I #
face $-1 $214 $215 $72 $-1 $216 forward single #
loop $-1 $217 $218 $92 #
cone-surface $-1 -9.4628413207744941 35.218281217718697 12.365087562468904 0 -0.71933980857756763 -0.69465836192734942 1 0 0 1 I I 0 1 1 forward I I I I #
face $-1 $219 $220 $73 $-1 $221 forward single #
loop $-1 $222 $223 $93 #
cone-surface $-1 -4.6115585444386369 35.218281217718697 12.365087562468904 0 -0.71933980857756763 -0.69465836192734942 1 0 0 1 I I 0 1 1 forward I I I I #
face $-1 $224 $225 $74 $-1 $226 reversed single #
loop $-1 $-1 $227 $94 #
plane-surface $-1 15.027552592402493 74.874097694690079 153.26250669357904 1 0 0 0 -0.71933980857756763 -0.69465836192734942 forward_v I I I I #
face $-1 $228 $229 $75 $-1 $230 forward single #
loop $-1 $231 $232 $95 #
cone-surface $-1 18.261741109959743 35.218281217718697 12.365087562468904 0 -0.71933980857756763 -0.69465836192734942 1 0 0 1 I I 0 1 1 forward I I I I #
face $-1 $233 $234 $76 $-1 $235 forward single #
loop $-1 $236 $237 $96 #
cone-surface $-1 23.113023886295593 35.218281217718697 12.365087562468904 0 -0.71933980857756763 -0.69465836192734942 1 0 0 1 I I 0 1 1 forward I I I I #
face $-1 $238 $239 $77 $-1 $240 reversed single #
loop $-1 $-1 $241 $97 #
plane-surface $-1 42.752135023136724 74.874097694690079 153.26250669357904 1 0 0 0 -0.71933980857756763 -0.69465836192734942 forward_v I I I I #
face $-1 $242 $243 $78 $-1 $244 forward single #
loop $-1 $245 $246 $98 #
cone-surface $-1 45.986323540693974 35.218281217718697 12.365087562468904 0 -0.71933980857756763 -0.69465836192734942 1 0 0 1 I I 0 1 1 forward I I I I #
face $-1 $247 $248 $79 $-1 $249 forward single #
loop $-1 $250 $251 $99 #
cone-surface $-1 50.837606317029824 35.218281217718697 12.365087562468904 0 -0.71933980857756763 -0.69465836192734942 1 0 0 1 I I 0 1 1 forward I I I I #
face $-1 $252 $253 $60 $-1 $254 reversed single #
loop $-1 $-1 $255 $100 #
plane-surface $-1 0 0 -16.008934144111567 0 0 1 1 0 0 forward_v I I I I #
coedge $-1 $256 $257 $258 $259 forward $101 $-1 #
face $-1 $260 $261 $61 $-1 $262 forward single #
loop $-1 $-1 $263 $103 #
plane-surface $-1 -48.893230014208484 -36.721394050856624 0 -1 0 0 0 0 1 forward_v I I I I #
coedge $-1 $264 $265 $266 $267 forward $104 $-1 #
face $-1 $268 $269 $62 $-1 $270 reversed single #
loop $-1 $-1 $271 $106 #
plane-surface $-1 -32.216742491912697 -38.800889469954569 7.5916879391980245 0 -0.54463904215088732 0.83867056331134215 1 0 0 forward_v I I I I #
coedge $-1 $272 $273 $274 $275 reversed $107 $-1 #
face $-1 $-1 $276 $63 $-1 $277 forward single #
loop $-1 $278 $279 $109 #
cone-surface $-1 -34.80471518120109 -30.724382777699503 9.343001428107204 0 0.54463904215088732 -0.83867056331134215 0.5 0 0 1 I I -0.70710678118654746 0.70710678118654746 0.5 forward I I I I #
loop $-1 $-1 $280 $83 #
coedge $-1 $176 $176 $281 $282 reversed $110 $-1 #
face $-1 $-1 $283 $64 $-1 $284 forward single #
loop $-1 $285 $286 $112 #
cone-surface $-1 -29.628769802624305 -30.724382777699503 9.343001428107204 0 0.54463904215088732 -0.83867056331134215 0.5 0 0 1 I I -0.70710678118654746 0.70710678118654746 0.5 forward I I I I #
loop $-1 $-1 $287 $84 #
coedge $-1 $181 $181 $288 $289 reversed $113 $-1 #
face $-1 $290 $291 $65 $-1 $292 reversed single #
loop $-1 $-1 $293 $115 #
plane-surface $-1 23.50157880505634 -38.800889469954569 7.5916879391980245 0 -0.54463904215088732 0.83867056331134215 1 0 0 forward_v I I I I #
coedge $-1 $294 $295 $296 $297 reversed $116 $-1 #
face $-1 $-1 $298 $66 $-1 $299 forward single #
loop $-1 $300 $301 $118 #
cone-surface $-1 20.913606115767948 -30.724382777699503 9.343001428107204 0 0.54463904215088732 -0.83867056331134215 0.5 0 0 1 I I -0.70710678118654746 0.70710678118654746 0.5 forward I I I I #
loop $-1 $-1 $302 $86 #
coedge $-1 $190 $190 $303 $304 reversed $119 $-1 #
face $-1 $-1 $305 $67 $-1 $306 forward single #
loop $-1 $307 $308 $121 #
cone-surface $-1 26.089551494344747 -30.724382777699503 9.343001428107204 0 0.54463904215088732 -0.83867056331134215 0.5 0 0 1 I I -0.70710678118654746 0.70710678118654746 0.5 forward I I I I #
loop $-1 $-1 $309 $87 #
coedge $-1 $195 $195 $310 $311 reversed $122 $-1 #
face $-1 $312 $313 $68 $-1 $314 reversed single #
loop $-1 $-1 $315 $124 #
plane-surface $-1 -34.761782363340799 -15.105835171090973 66.369897629616347 0 0.71933980857756763 0.69465836192734942 1 0 0 forward_v I I I I #
coedge $-1 $316 $317 $318 $319 reversed $125 $-1 #
face $-1 $-1 $320 $69 $-1 $321 forward single #
loop $-1 $322 $323 $127 #
cone-surface $-1 -37.187423751508732 33.912857395664297 11.104454461066641 0 -0.71933980857756763 -0.69465836192734942 0.5 0 0 1 I I -0.70710678118654746 0.70710678118654746 0.5 forward I I I I #
loop $-1 $-1 $324 $89 #
coedge $-1 $204 $204 $325 $326 reversed $128 $-1 #
face $-1 $-1 $327 $70 $-1 $328 forward single #
loop $-1 $329 $330 $130 #
cone-surface $-1 -32.336140975172867 33.912857395664297 11.104454461066641 0 -0.71933980857756763 -0.69465836192734942 0.5 0 0 1 I I -0.70710678118654746 0.70710678118654746 0.5 forward I I I I #
loop $-1 $-1 $331 $90 #
coedge $-1 $209 $209 $332 $333 reversed $131 $-1 #
face $-1 $334 $335 $71 $-1 $336 reversed single #
loop $-1 $-1 $337 $133 #
plane-surface $-1 -7.0371999326065691 -15.105835171090973 66.369897629616347 0 0.71933980857756763 0.69465836192734942 1 0 0 forward_v I I I I #
coedge $-1 $338 $339 $340 $341 reversed $134 $-1 #
face $-1 $-1 $342 $72 $-1 $343 forward single #
loop $-1 $344 $345 $136 #
cone-surface $-1 -9.4628413207744941 33.912857395664297 11.104454461066641 0 -0.71933980857756763 -0.69465836192734942 0.5 0 0 1 I I -0.70710678118654746 0.70710678118654746 0.5 forward I I I I #
loop $-1 $-1 $346 $92 #
coedge $-1 $218 $218 $347 $348 reversed $137 $-1 #
face $-1 $-1 $349 $73 $-1 $350 forward single #
loop $-1 $351 $352 $139 #
cone-surface $-1 -4.6115585444386369 33.912857395664297 11.104454461066641 0 -0.71933980857756763 -0.69465836192734942 0.5 0 0 1 I I -0.70710678118654746 0.70710678118654746 0.5 forward I I I I #
loop $-1 $-1 $353 $93 #
coedge $-1 $223 $223 $354 $355 reversed $140 $-1 #
face $-1 $356 $357 $74 $-1 $358 reversed single #
loop $-1 $-1 $359 $142 #
plane-surface $-1 20.687382498127661 -15.105835171090973 66.369897629616347 0 0.71933980857756763 0.69465836192734942 1 0 0 forward_v I I I I #
coedge $-1 $360 $361 $362 $363 reversed $143 $-1 #
face $-1 $-1 $364 $75 $-1 $365 forward single #
loop $-1 $366 $367 $145 #
cone-surface $-1 18.261741109959743 33.912857395664297 11.104454461066641 0 -0.71933980857756763 -0.69465836192734942 0.5 0 0 1 I I -0.70710678118654746 0.70710678118654746 0.5 forward I I I I #
loop $-1 $-1 $368 $95 #
coedge $-1 $232 $232 $369 $370 reversed $146 $-1 #
face $-1 $-1 $371 $76 $-1 $372 forward single #
loop $-1 $373 $374 $148 #
cone-surface $-1 23.113023886295593 33.912857395664297 11.104454461066641 0 -0.71933980857756763 -0.69465836192734942 0.5 0 0 1 I I -0.70710678118654746 0.70710678118654746 0.5 forward I I I I #
loop $-1 $-1 $375 $96 #
coedge $-1 $237 $237 $376 $377 reversed $149 $-1 #
face $-1 $378 $379 $77 $-1 $380 reversed single #
loop $-1 $-1 $381 $151 #
plane-surface $-1 48.411964928861892 -15.105835171090973 66.369897629616347 0 0.71933980857756763 0.69465836192734942 1 0 0 forward_v I I I I #
coedge $-1 $382 $383 $384 $385 reversed $152 $-1 #
face $-1 $-1 $386 $78 $-1 $387 forward single #
loop $-1 $388 $389 $154 #
cone-surface $-1 45.986323540693974 33.912857395664297 11.104454461066641 0 -0.71933980857756763 -0.69465836192734942 0.5 0 0 1 I I -0.70710678118654746 0.70710678118654746 0.5 forward I I I I #
loop $-1 $-1 $390 $98 #
coedge $-1 $246 $246 $391 $392 reversed $155 $-1 #
face $-1 $-1 $393 $79 $-1 $394 forward single #
loop $-1 $395 $396 $157 #
cone-surface $-1 50.837606317029824 33.912857395664297 11.104454461066641 0 -0.71933980857756763 -0.69465836192734942 0.5 0 0 1 I I -0.70710678118654746 0.70710678118654746 0.5 forward I I I I #
loop $-1 $-1 $397 $99 #
coedge $-1 $251 $251 $398 $399 reversed $158 $-1 #
face $-1 $400 $401 $60 $-1 $402 reversed single #
loop $-1 $-1 $403 $160 #
plane-surface $-1 0 -38.800889469954562 0 0 1 0 0 0 1 forward_v I I I I #
coedge $-1 $404 $405 $406 $407 forward $161 $-1 #
coedge $-1 $408 $163 $409 $410 forward $101 $-1 #
coedge $-1 $163 $408 $411 $412 forward $101 $-1 #
coedge $-1 $413 $414 $163 $259 reversed $415 $-1 #
edge $-1 $416 -38.800889469954562 $417 38.800889469954562 $258 $418 forward 7 unknown #
face $-1 $419 $420 $61 $-1 $421 reversed single #
loop $-1 $-1 $422 $164 #
plane-surface $-1 0 0 16.008934144111567 0 0 1 1 0 0 forward_v I I I I #
coedge $-1 $423 $424 $425 $426 reversed $165 $-1 #
coedge $-1 $427 $167 $428 $429 reversed $104 $-1 #
coedge $-1 $167 $427 $430 $431 reversed $104 $-1 #
coedge $-1 $424 $423 $167 $267 reversed $165 $-1 #
edge $-1 $432 -16.008934144111567 $433 16.008934144111567 $266 $434 forward 7 unknown #
face $-1 $435 $436 $62 $-1 $437 forward single #
loop $-1 $-1 $438 $168 #
plane-surface $-1 -38.255345433585617 -106.92805811049794 112.49832605850905 1 0 0 0 0.54463904215088732 -0.83867056331134215 forward_v I I I I #
coedge $-1 $439 $440 $441 $442 reversed $169 $-1 #
coedge $-1 $273 $171 $443 $444 reversed $107 $-1 #
coedge $-1 $171 $272 $439 $445 reversed $107 $-1 #
coedge $-1 $441 $446 $171 $275 forward $436 $-1 #
edge $-1 $447 14.66313958529441 $448 27.624561866603024 $274 $449 forward 7 unknown #
loop $-1 $-1 $281 $172 #
plane-surface $-1 -32.216742491912697 -38.800889469954569 7.5916879391980245 0 -0.54463904215088732 0.83867056331134215 1 0 0 forward_v I I I I #
loop $-1 $-1 $450 $109 #
coedge $-1 $279 $279 $280 $451 reversed $173 $-1 #
coedge $-1 $280 $280 $279 $451 forward $175 $-1 #
coedge $-1 $281 $281 $176 $282 forward $276 $-1 #
edge $-1 $452 1.5427303939227385e-016 $452 6.2831853071796004 $281 $453 forward 7 unknown #
loop $-1 $-1 $288 $177 #
plane-surface $-1 -32.216742491912697 -38.800889469954569 7.5916879391980245 0 -0.54463904215088732 0.83867056331134215 1 0 0 forward_v I I I I #
loop $-1 $-1 $454 $112 #
coedge $-1 $286 $286 $287 $455 reversed $178 $-1 #
coedge $-1 $287 $287 $286 $455 forward $180 $-1 #
coedge $-1 $288 $288 $181 $289 forward $283 $-1 #
edge $-1 $456 1.5427303939227385e-016 $456 6.2831853071796004 $288 $457 forward 7 unknown #
face $-1 $458 $459 $65 $-1 $460 reversed single #
loop $-1 $-1 $461 $182 #
plane-surface $-1 17.462975863383424 -106.92805811049794 112.49832605850905 1 0 0 0 0.54463904215088732 -0.83867056331134215 forward_v I I I I #
coedge $-1 $462 $463 $464 $465 reversed $183 $-1 #
coedge $-1 $295 $185 $466 $467 reversed $116 $-1 #
coedge $-1 $185 $294 $462 $468 reversed $116 $-1 #
coedge $-1 $464 $469 $185 $297 forward $470 $-1 #
edge $-1 $471 14.66313958529441 $472 27.624561866603024 $296 $473 forward 7 unknown #
loop $-1 $-1 $303 $186 #
plane-surface $-1 23.50157880505634 -38.800889469954569 7.5916879391980245 0 -0.54463904215088732 0.83867056331134215 1 0 0 forward_v I I I I #
loop $-1 $-1 $474 $118 #
coedge $-1 $301 $301 $302 $475 reversed $187 $-1 #
coedge $-1 $302 $302 $301 $475 forward $189 $-1 #
coedge $-1 $303 $303 $190 $304 forward $298 $-1 #
edge $-1 $476 1.5427303939227385e-016 $476 6.2831853071796004 $303 $477 forward 7 unknown #
loop $-1 $-1 $310 $191 #
plane-surface $-1 23.50157880505634 -38.800889469954569 7.5916879391980245 0 -0.54463904215088732 0.83867056331134215 1 0 0 forward_v I I I I #
loop $-1 $-1 $478 $121 #
coedge $-1 $308 $308 $309 $479 reversed $192 $-1 #
coedge $-1 $309 $309 $308 $479 forward $194 $-1 #
coedge $-1 $310 $310 $195 $311 forward $305 $-1 #
edge $-1 $480 1.5427303939227385e-016 $480 6.2831853071796004 $310 $481 forward 7 unknown #
face $-1 $482 $483 $68 $-1 $484 reversed single #
loop $-1 $-1 $485 $196 #
plane-surface $-1 -29.101952457615631 74.874097694690079 153.26250669357904 -1 0 0 0 0.71933980857756763 0.69465836192734942 forward_v I I I I #
coedge $-1 $486 $487 $488 $489 reversed $197 $-1 #
coedge $-1 $317 $199 $490 $491 reversed $125 $-1 #
coedge $-1 $199 $316 $486 $492 reversed $125 $-1 #
coedge $-1 $488 $493 $199 $319 forward $494 $-1 #
edge $-1 $495 -1.3638406226095228 $496 3.9098680463309989 $318 $497 forward 7 unknown #
loop $-1 $-1 $325 $200 #
plane-surface $-1 -34.761782363340799 -15.105835171090973 66.369897629616347 0 0.71933980857756763 0.69465836192734942 1 0 0 forward_v I I I I #
loop $-1 $-1 $498 $127 #
coedge $-1 $323 $323 $324 $499 reversed $201 $-1 #
coedge $-1 $324 $324 $323 $499 forward $203 $-1 #
coedge $-1 $325 $325 $204 $326 forward $320 $-1 #
edge $-1 $500 1.1024319625659993e-015 $500 6.2831853071796013 $325 $501 forward 7 unknown #
loop $-1 $-1 $332 $205 #
plane-surface $-1 -34.761782363340799 -15.105835171090973 66.369897629616347 0 0.71933980857756763 0.69465836192734942 1 0 0 forward_v I I I I #
loop $-1 $-1 $502 $130 #
coedge $-1 $330 $330 $331 $503 reversed $206 $-1 #
coedge $-1 $331 $331 $330 $503 forward $208 $-1 #
coedge $-1 $332 $332 $209 $333 forward $327 $-1 #
edge $-1 $504 1.1024319625659993e-015 $504 6.2831853071796013 $332 $505 forward 7 unknown #
face $-1 $506 $507 $71 $-1 $508 forward single #
loop $-1 $-1 $509 $210 #
plane-surface $-1 -1.3773700268814011 74.874097694690079 153.26250669357904 -1 0 0 0 0.71933980857756763 0.69465836192734942 forward_v I I I I #
coedge $-1 $510 $511 $512 $513 reversed $211 $-1 #
coedge $-1 $339 $213 $514 $515 reversed $134 $-1 #
coedge $-1 $213 $338 $510 $516 reversed $134 $-1 #
coedge $-1 $512 $517 $213 $341 forward $507 $-1 #
edge $-1 $518 -1.3638406226095228 $519 3.9098680463309989 $340 $520 forward 7 unknown #
loop $-1 $-1 $347 $214 #
plane-surface $-1 -7.0371999326065691 -15.105835171090973 66.369897629616347 0 0.71933980857756763 0.69465836192734942 1 0 0 forward_v I I I I #
loop $-1 $-1 $521 $136 #
coedge $-1 $345 $345 $346 $522 reversed $215 $-1 #
coedge $-1 $346 $346 $345 $522 forward $217 $-1 #
coedge $-1 $347 $347 $218 $348 forward $342 $-1 #
edge $-1 $523 1.1024319625659993e-015 $523 6.2831853071796013 $347 $524 forward 7 unknown #
loop $-1 $-1 $354 $219 #
plane-surface $-1 -7.0371999326065691 -15.105835171090973 66.369897629616347 0 0.71933980857756763 0.69465836192734942 1 0 0 forward_v I I I I #
loop $-1 $-1 $525 $139 #
coedge $-1 $352 $352 $353 $526 reversed $220 $-1 #
coedge $-1 $353 $353 $352 $526 forward $222 $-1 #
coedge $-1 $354 $354 $223 $355 forward $349 $-1 #
edge $-1 $527 1.1024319625659993e-015 $527 6.2831853071796013 $354 $528 forward 7 unknown #
face $-1 $529 $530 $74 $-1 $531 forward single #
loop $-1 $-1 $532 $224 #
plane-surface $-1 26.347212403852829 74.874097694690079 153.26250669357904 -1 0 0 0 0.71933980857756763 0.69465836192734942 forward_v I I I I #
coedge $-1 $533 $534 $535 $536 reversed $225 $-1 #
coedge $-1 $361 $227 $537 $538 reversed $143 $-1 #
coedge $-1 $227 $360 $533 $539 reversed $143 $-1 #
coedge $-1 $535 $540 $227 $363 forward $530 $-1 #
edge $-1 $541 -1.3638406226095228 $542 3.9098680463309989 $362 $543 forward 7 unknown #
loop $-1 $-1 $369 $228 #
plane-surface $-1 20.687382498127661 -15.105835171090973 66.369897629616347 0 0.71933980857756763 0.69465836192734942 1 0 0 forward_v I I I I #
loop $-1 $-1 $544 $145 #
coedge $-1 $367 $367 $368 $545 reversed $229 $-1 #
coedge $-1 $368 $368 $367 $545 forward $231 $-1 #
coedge $-1 $369 $369 $232 $370 forward $364 $-1 #
edge $-1 $546 1.1024319625659993e-015 $546 6.2831853071796013 $369 $547 forward 7 unknown #
loop $-1 $-1 $376 $233 #
plane-surface $-1 20.687382498127661 -15.105835171090973 66.369897629616347 0 0.71933980857756763 0.69465836192734942 1 0 0 forward_v I I I I #
loop $-1 $-1 $548 $148 #
coedge $-1 $374 $374 $375 $549 reversed $234 $-1 #
coedge $-1 $375 $375 $374 $549 forward $236 $-1 #
coedge $-1 $376 $376 $237 $377 forward $371 $-1 #
edge $-1 $550 1.1024319625659993e-015 $550 6.2831853071796013 $376 $551 forward 7 unknown #
face $-1 $552 $553 $77 $-1 $554 forward single #
loop $-1 $-1 $555 $238 #
plane-surface $-1 54.07179483458706 74.874097694690079 153.26250669357904 -1 0 0 0 0.71933980857756763 0.69465836192734942 forward_v I I I I #
coedge $-1 $556 $557 $558 $559 reversed $239 $-1 #
coedge $-1 $383 $241 $560 $561 reversed $152 $-1 #
coedge $-1 $241 $382 $556 $562 reversed $152 $-1 #
coedge $-1 $558 $563 $241 $385 forward $553 $-1 #
edge $-1 $564 -1.3638406226095228 $565 3.9098680463309989 $384 $566 forward 7 unknown #
loop $-1 $-1 $391 $242 #
plane-surface $-1 48.411964928861892 -15.105835171090973 66.369897629616347 0 0.71933980857756763 0.69465836192734942 1 0 0 forward_v I I I I #
loop $-1 $-1 $567 $154 #
coedge $-1 $389 $389 $390 $568 reversed $243 $-1 #
coedge $-1 $390 $390 $389 $568 forward $245 $-1 #
coedge $-1 $391 $391 $246 $392 forward $386 $-1 #
edge $-1 $569 1.1024319625659993e-015 $569 6.2831853071796013 $391 $570 forward 7 unknown #
loop $-1 $-1 $398 $247 #
plane-surface $-1 48.411964928861892 -15.105835171090973 66.369897629616347 0 0.71933980857756763 0.69465836192734942 1 0 0 forward_v I I I I #
loop $-1 $-1 $571 $157 #
coedge $-1 $396 $396 $397 $572 reversed $248 $-1 #
coedge $-1 $397 $397 $396 $572 forward $250 $-1 #
coedge $-1 $398 $398 $251 $399 forward $393 $-1 #
edge $-1 $573 1.1024319625659993e-015 $573 6.2831853071796013 $398 $574 forward 7 unknown #
face $-1 $575 $576 $60 $-1 $577 reversed single #
loop $-1 $-1 $578 $252 #
plane-surface $-1 -62.543412579729605 0 0 1 0 0 0 0 -1 forward_v I I I I #
coedge $-1 $579 $411 $580 $581 forward $253 $-1 #
coedge $-1 $582 $255 $579 $583 forward $161 $-1 #
coedge $-1 $255 $582 $584 $585 forward $161 $-1 #
coedge $-1 $414 $413 $255 $407 reversed $415 $-1 #
edge $-1 $586 -38.800889469954562 $587 38.800889469954562 $406 $588 forward 7 unknown #
coedge $-1 $257 $256 $589 $590 forward $101 $-1 #
coedge $-1 $591 $592 $256 $410 reversed $576 $-1 #
edge $-1 $417 -62.543412579729605 $593 62.543412579729605 $409 $594 forward 7 unknown #
coedge $-1 $403 $595 $257 $412 reversed $253 $-1 #
edge $-1 $596 -62.543412579729605 $416 62.543412579729605 $411 $597 forward 7 unknown #
coedge $-1 $406 $258 $595 $598 forward $415 $-1 #
coedge $-1 $258 $406 $591 $599 reversed $415 $-1 #
loop $-1 $-1 $413 $575 #
vertex $-1 $259 $600 #
vertex $-1 $259 $601 #
straight-curve $-1 62.543412579729605 0 16.008934144111567 0 1 0 I I #
face $-1 $602 $603 $61 $-1 $604 reversed single #
loop $-1 $-1 $605 $260 #
plane-surface $-1 -62.543412579729605 0 0 1 0 0 0 0 -1 forward_v I I I I #
coedge $-1 $430 $606 $424 $607 forward $261 $-1 #
coedge $-1 $266 $263 $608 $609 reversed $165 $-1 #
coedge $-1 $263 $266 $422 $607 reversed $165 $-1 #
coedge $-1 $610 $611 $263 $426 forward $612 $-1 #
edge $-1 $613 -16.008934144111567 $614 16.008934144111567 $425 $615 forward 7 unknown #
coedge $-1 $265 $264 $605 $616 reversed $104 $-1 #
coedge $-1 $608 $617 $264 $429 forward $603 $-1 #
edge $-1 $618 -34.684251931245086 $433 -21.034069365723962 $428 $619 forward 7 unknown #
coedge $-1 $620 $422 $265 $431 forward $261 $-1 #
edge $-1 $432 21.034069365723962 $621 34.684251931245086 $430 $622 forward 7 unknown #
vertex $-1 $431 $623 #
vertex $-1 $429 $624 #
straight-curve $-1 -48.893230014208484 -34.641898631758686 0 0 0 -1 I I #
face $-1 $-1 $625 $62 $-1 $626 reversed single #
loop $-1 $-1 $274 $268 #
plane-surface $-1 0 0 16.008934144111567 0 0 1 1 0 0 forward_v I I I I #
coedge $-1 $627 $628 $629 $630 reversed $269 $-1 #
coedge $-1 $631 $271 $273 $445 forward $169 $-1 #
coedge $-1 $271 $631 $627 $632 forward $169 $-1 #
coedge $-1 $629 $274 $271 $442 forward $436 $-1 #
edge $-1 $448 10.069768304283432 $633 22.146974187629269 $441 $634 forward 7 unknown #
coedge $-1 $635 $636 $272 $444 forward $625 $-1 #
edge $-1 $637 -48.657475090056494 $447 -40.240228885142955 $443 $638 forward 7 unknown #
edge $-1 $448 -15.454724236573586 $637 -8.3777959833898778e-015 $273 $639 forward 7 unknown #
coedge $-1 $274 $629 $635 $640 forward $436 $-1 #
vertex $-1 $444 $641 #
vertex $-1 $275 $642 #
straight-curve $-1 -26.178139550239781 -53.464029055248972 16.008934144111564 0 1 0 I I #
coedge $-1 $450 $450 $-1 $643 reversed $278 $-1 #
edge $-1 $644 0 $644 6.2831853071796004 $279 $645 forward 7 unknown #
vertex $-1 $282 $646 #
ellipse-curve $-1 -34.80471518120109 -32.320178329300248 11.800311041654801 0 -0.54463904215088732 0.83867056331134215 1 0 0 1 I I #
coedge $-1 $454 $454 $-1 $647 reversed $285 $-1 #
edge $-1 $648 0 $648 6.2831853071796004 $286 $649 forward 7 unknown #
vertex $-1 $289 $650 #
ellipse-curve $-1 -29.628769802624305 -32.320178329300248 11.800311041654801 0 -0.54463904215088732 0.83867056331134215 1 0 0 1 I I #
face $-1 $-1 $470 $65 $-1 $651 forward single #
loop $-1 $-1 $652 $290 #
plane-surface $-1 0 -38.800889469954562 0 0 1 0 0 0 1 forward_v I I I I #
coedge $-1 $653 $654 $655 $656 reversed $291 $-1 #
coedge $-1 $657 $293 $295 $468 forward $183 $-1 #
coedge $-1 $293 $657 $653 $658 forward $183 $-1 #
coedge $-1 $655 $296 $293 $465 forward $470 $-1 #
edge $-1 $472 -17.789392344201087 $659 -5.7121864608552535 $464 $660 forward 7 unknown #
coedge $-1 $661 $662 $294 $467 forward $459 $-1 #
edge $-1 $663 -48.657475090056494 $471 -40.240228885142955 $466 $664 forward 7 unknown #
edge $-1 $472 -15.454724236573586 $663 -8.3777959833898778e-015 $295 $665 forward 7 unknown #
coedge $-1 $296 $655 $661 $666 forward $470 $-1 #
loop $-1 $-1 $655 $458 #
vertex $-1 $467 $667 #
vertex $-1 $297 $668 #
straight-curve $-1 29.540181746729257 -53.464029055248972 16.008934144111564 0 1 0 I I #
coedge $-1 $474 $474 $-1 $669 reversed $300 $-1 #
edge $-1 $670 0 $670 6.2831853071796004 $301 $671 forward 7 unknown #
vertex $-1 $304 $672 #
ellipse-curve $-1 20.913606115767948 -32.320178329300248 11.800311041654801 0 -0.54463904215088732 0.83867056331134215 1 0 0 1 I I #
coedge $-1 $478 $478 $-1 $673 reversed $307 $-1 #
edge $-1 $674 0 $674 6.2831853071796004 $308 $675 forward 7 unknown #
vertex $-1 $311 $676 #
ellipse-curve $-1 26.089551494344747 -32.320178329300248 11.800311041654801 0 -0.54463904215088732 0.83867056331134215 1 0 0 1 I I #
face $-1 $-1 $494 $68 $-1 $677 forward single #
loop $-1 $-1 $678 $312 #
plane-surface $-1 0 38.800889469954562 0 0 -1 0 0 0 -1 forward_v I I I I #
coedge $-1 $679 $680 $681 $682 reversed $313 $-1 #
coedge $-1 $683 $315 $317 $492 forward $197 $-1 #
coedge $-1 $315 $683 $679 $684 forward $197 $-1 #
coedge $-1 $681 $318 $315 $489 forward $494 $-1 #
edge $-1 $496 -23.040721087395568 $685 -11.721061275945232 $488 $686 forward 7 unknown #
coedge $-1 $687 $688 $316 $491 forward $483 $-1 #
edge $-1 $689 -66.08340452508611 $495 -60.622319202677957 $490 $690 forward 7 unknown #
edge $-1 $496 70.009977044213969 $689 77.601778939909096 $317 $691 forward 7 unknown #
coedge $-1 $318 $681 $687 $692 forward $494 $-1 #
loop $-1 $-1 $681 $482 #
vertex $-1 $491 $693 #
vertex $-1 $319 $694 #
straight-curve $-1 -40.421612269065967 37.437048847345039 16.008934144111564 0 -1 0 I I #
coedge $-1 $498 $498 $-1 $695 reversed $322 $-1 #
edge $-1 $696 0 $696 6.2831853071796004 $323 $697 forward 7 unknown #
vertex $-1 $326 $698 #
ellipse-curve $-1 -37.187423751508732 36.164035135484305 13.278391482907486 0 0.71933980857756763 0.69465836192734942 1 0 0 1 I I #
coedge $-1 $502 $502 $-1 $699 reversed $329 $-1 #
edge $-1 $700 0 $700 6.2831853071796004 $330 $701 forward 7 unknown #
vertex $-1 $333 $702 #
ellipse-curve $-1 -32.336140975172867 36.164035135484305 13.278391482907486 0 0.71933980857756763 0.69465836192734942 1 0 0 1 I I #
face $-1 $-1 $703 $71 $-1 $704 reversed single #
loop $-1 $-1 $340 $334 #
plane-surface $-1 0 0 16.008934144111567 0 0 1 1 0 0 forward_v I I I I #
coedge $-1 $705 $706 $707 $708 reversed $335 $-1 #
coedge $-1 $709 $337 $339 $516 forward $211 $-1 #
coedge $-1 $337 $709 $705 $710 forward $211 $-1 #
coedge $-1 $707 $340 $337 $513 forward $507 $-1 #
edge $-1 $519 -9.1784298720284525 $711 2.1412299394218834 $512 $712 forward 7 unknown #
coedge $-1 $713 $714 $338 $515 forward $703 $-1 #
edge $-1 $715 -66.08340452508611 $518 -60.622319202677957 $514 $716 forward 7 unknown #
edge $-1 $519 70.009977044213969 $715 77.601778939909096 $339 $717 forward 7 unknown #
coedge $-1 $340 $707 $713 $718 forward $507 $-1 #
vertex $-1 $515 $719 #
vertex $-1 $341 $720 #
straight-curve $-1 -12.697029838331737 37.437048847345039 16.008934144111564 0 -1 0 I I #
coedge $-1 $521 $521 $-1 $721 reversed $344 $-1 #
edge $-1 $722 0 $722 6.2831853071796004 $345 $723 forward 7 unknown #
vertex $-1 $348 $724 #
ellipse-curve $-1 -9.4628413207744941 36.164035135484305 13.278391482907486 0 0.71933980857756763 0.69465836192734942 1 0 0 1 I I #
coedge $-1 $525 $525 $-1 $725 reversed $351 $-1 #
edge $-1 $726 0 $726 6.2831853071796004 $352 $727 forward 7 unknown #
vertex $-1 $355 $728 #
ellipse-curve $-1 -4.6115585444386369 36.164035135484305 13.278391482907486 0 0.71933980857756763 0.69465836192734942 1 0 0 1 I I #
face $-1 $-1 $729 $74 $-1 $730 reversed single #
loop $-1 $-1 $362 $356 #
plane-surface $-1 0 0 16.008934144111567 0 0 1 1 0 0 forward_v I I I I #
coedge $-1 $731 $732 $733 $734 reversed $357 $-1 #
coedge $-1 $735 $359 $361 $539 forward $225 $-1 #
coedge $-1 $359 $735 $731 $736 forward $225 $-1 #
coedge $-1 $733 $362 $359 $536 forward $530 $-1 #
edge $-1 $542 4.6838613433386627 $737 16.003521154788999 $535 $738 forward 7 unknown #
coedge $-1 $739 $740 $360 $538 forward $729 $-1 #
edge $-1 $741 -66.08340452508611 $541 -60.622319202677957 $537 $742 forward 7 unknown #
edge $-1 $542 70.009977044213969 $741 77.601778939909096 $361 $743 forward 7 unknown #
coedge $-1 $362 $733 $739 $744 forward $530 $-1 #
vertex $-1 $363 $745 #
vertex $-1 $363 $746 #
straight-curve $-1 15.027552592402493 37.437048847345039 16.008934144111564 0 -1 0 I I #
coedge $-1 $544 $544 $-1 $747 reversed $366 $-1 #
edge $-1 $748 0 $748 6.2831853071796004 $367 $749 forward 7 unknown #
vertex $-1 $370 $750 #
ellipse-curve $-1 18.261741109959743 36.164035135484305 13.278391482907486 0 0.71933980857756763 0.69465836192734942 1 0 0 1 I I #
coedge $-1 $548 $548 $-1 $751 reversed $373 $-1 #
edge $-1 $752 0 $752 6.2831853071796004 $374 $753 forward 7 unknown #
vertex $-1 $377 $754 #
ellipse-curve $-1 23.113023886295593 36.164035135484305 13.278391482907486 0 0.71933980857756763 0.69465836192734942 1 0 0 1 I I #
face $-1 $-1 $755 $77 $-1 $756 reversed single #
loop $-1 $-1 $384 $378 #
plane-surface $-1 0 0 16.008934144111567 0 0 1 1 0 0 forward_v I I I I #
coedge $-1 $757 $758 $759 $760 reversed $379 $-1 #
coedge $-1 $761 $381 $383 $562 forward $239 $-1 #
coedge $-1 $381 $761 $757 $762 forward $239 $-1 #
coedge $-1 $759 $384 $381 $559 forward $553 $-1 #
edge $-1 $565 18.546152558705778 $763 29.865812370156114 $558 $764 forward 7 unknown #
coedge $-1 $765 $766 $382 $561 forward $755 $-1 #
edge $-1 $767 -66.08340452508611 $564 -60.622319202677957 $560 $768 forward 7 unknown #
edge $-1 $565 70.009977044213969 $767 77.601778939909096 $383 $769 forward 7 unknown #
coedge $-1 $384 $759 $765 $770 forward $553 $-1 #
vertex $-1 $385 $771 #
vertex $-1 $385 $772 #
straight-curve $-1 42.752135023136724 37.437048847345039 16.008934144111564 0 -1 0 I I #
coedge $-1 $567 $567 $-1 $773 reversed $388 $-1 #
edge $-1 $774 0 $774 6.2831853071796004 $389 $775 forward 7 unknown #
vertex $-1 $392 $776 #
ellipse-curve $-1 45.986323540693974 36.164035135484305 13.278391482907486 0 0.71933980857756763 0.69465836192734942 1 0 0 1 I I #
coedge $-1 $571 $571 $-1 $777 reversed $395 $-1 #
edge $-1 $778 0 $778 6.2831853071796004 $396 $779 forward 7 unknown #
vertex $-1 $399 $780 #
ellipse-curve $-1 50.837606317029824 36.164035135484305 13.278391482907486 0 0.71933980857756763 0.69465836192734942 1 0 0 1 I I #
face $-1 $-1 $415 $60 $-1 $781 reversed single #
loop $-1 $-1 $591 $400 #
plane-surface $-1 0 38.800889469954562 0 0 -1 0 0 0 -1 forward_v I I I I #
coedge $-1 $782 $589 $592 $783 forward $401 $-1 #
coedge $-1 $595 $403 $404 $583 reversed $253 $-1 #
coedge $-1 $589 $782 $403 $581 reversed $401 $-1 #
edge $-1 $596 -16.008934144111567 $784 16.008934144111567 $580 $785 forward 7 unknown #
coedge $-1 $405 $404 $782 $786 forward $161 $-1 #
edge $-1 $587 -62.543412579729605 $784 62.543412579729605 $579 $787 forward 7 unknown #
coedge $-1 $592 $591 $405 $585 reversed $576 $-1 #
edge $-1 $788 -62.543412579729605 $586 62.543412579729605 $584 $789 forward 7 unknown #
vertex $-1 $407 $790 #
vertex $-1 $598 $791 #
straight-curve $-1 62.543412579729605 0 -16.008934144111567 0 -1 0 I I #
coedge $-1 $578 $580 $408 $590 reversed $401 $-1 #
edge $-1 $593 -38.800889469954562 $596 38.800889469954562 $589 $792 forward 7 unknown #
coedge $-1 $584 $409 $414 $599 forward $576 $-1 #
coedge $-1 $409 $584 $578 $783 reversed $576 $-1 #
vertex $-1 $410 $793 #
straight-curve $-1 0 38.800889469954562 16.008934144111567 -1 0 0 I I #
coedge $-1 $411 $579 $413 $598 reversed $253 $-1 #
vertex $-1 $590 $794 #
straight-curve $-1 0 -38.800889469954562 16.008934144111567 1 0 0 I I #
edge $-1 $416 -16.008934144111567 $587 16.008934144111567 $413 $795 forward 7 unknown #
edge $-1 $417 -16.008934144111567 $586 16.008934144111567 $414 $796 forward 7 unknown #
point $-1 62.543412579729605 -38.800889469954562 16.008934144111567 #
point $-1 62.543412579729605 38.800889469954562 16.008934144111567 #
face $-1 $-1 $612 $61 $-1 $797 reversed single #
loop $-1 $-1 $608 $419 #
plane-surface $-1 0 0 -16.008934144111567 0 0 1 1 0 0 forward_v I I I I #
coedge $-1 $798 $799 $427 $616 forward $420 $-1 #
coedge $-1 $422 $620 $610 $800 forward $261 $-1 #
edge $-1 $614 -20.44019244452625 $432 -16.281201606330374 $422 $801 forward 7 unknown #
coedge $-1 $802 $428 $423 $609 forward $603 $-1 #
edge $-1 $433 16.281201606330374 $613 20.44019244452625 $608 $803 forward 7 unknown #
coedge $-1 $804 $425 $606 $800 reversed $612 $-1 #
coedge $-1 $425 $804 $802 $805 reversed $612 $-1 #
loop $-1 $-1 $425 $602 #
vertex $-1 $805 $806 #
vertex $-1 $426 $807 #
straight-curve $-1 -48.893230014208484 -38.800889469954562 0 0 0 1 I I #
edge $-1 $621 -16.008934144111567 $618 16.008934144111567 $605 $808 forward 7 unknown #
coedge $-1 $428 $802 $798 $809 forward $603 $-1 #
vertex $-1 $429 $810 #
straight-curve $-1 -27.859160648484522 -34.641898631758686 -16.008934144111567 1 0 0 I I #
coedge $-1 $606 $430 $799 $811 forward $261 $-1 #
vertex $-1 $811 $812 #
straight-curve $-1 -27.859160648484522 -34.641898631758686 16.008934144111567 -1 0 0 I I #
point $-1 -48.893230014208484 -34.641898631758686 16.008934144111567 #
point $-1 -48.893230014208484 -34.641898631758686 -16.008934144111567 #
loop $-1 $-1 $443 $435 #
plane-surface $-1 0 -38.800889469954562 0 0 1 0 0 0 1 forward_v I I I I #
coedge $-1 $628 $438 $440 $632 reversed $269 $-1 #
coedge $-1 $438 $627 $813 $814 reversed $269 $-1 #
coedge $-1 $446 $441 $438 $630 forward $436 $-1 #
edge $-1 $633 -27.624561866603024 $815 -14.66313958529441 $629 $816 forward 7 unknown #
coedge $-1 $440 $439 $636 $817 reversed $169 $-1 #
edge $-1 $818 8.3777959833898778e-015 $633 15.454724236573586 $627 $819 forward 7 unknown #
vertex $-1 $442 $820 #
straight-curve $-1 -16.108371245956349 -25.839467188645948 16.008934144111567 -1 0 0 I I #
coedge $-1 $813 $443 $446 $640 reversed $625 $-1 #
coedge $-1 $443 $813 $631 $817 forward $625 $-1 #
vertex $-1 $444 $821 #
straight-curve $-1 -26.178139550239781 -38.800889469954562 56.249163029254525 0 0 1 I I #
straight-curve $-1 -26.178139550239781 -38.800889469954569 7.5916879391980245 0 -0.83867056331134215 -0.54463904215088732 I I #
edge $-1 $815 -38.255345433585617 $447 -26.178139550239781 $635 $822 forward 7 unknown #
point $-1 -26.178139550239781 -38.800889469954562 16.008934144111567 #
point $-1 -26.178139550239781 -25.839467188645948 16.008934144111567 #
edge $-1 $823 1 $823 0 $450 $-1 forward 7 unknown #
vertex $-1 $451 $824 #
ellipse-curve $-1 -34.80471518120109 -30.996702298774949 9.7623367097628755 0 -0.54463904215088732 0.83867056331134215 1 0 0 1 I I #
point $-1 -33.80471518120109 -32.320178329300241 11.800311041654791 #
edge $-1 $825 1 $825 0 $454 $-1 forward 7 unknown #
vertex $-1 $455 $826 #
ellipse-curve $-1 -29.628769802624305 -30.996702298774949 9.7623367097628755 0 -0.54463904215088732 0.83867056331134215 1 0 0 1 I I #
point $-1 -28.628769802624305 -32.320178329300241 11.800311041654791 #
plane-surface $-1 0 0 16.008934144111567 0 0 1 1 0 0 forward_v I I I I #
coedge $-1 $662 $661 $654 $827 forward $459 $-1 #
coedge $-1 $654 $461 $463 $658 reversed $291 $-1 #
coedge $-1 $461 $653 $652 $827 reversed $291 $-1 #
coedge $-1 $469 $464 $461 $656 forward $470 $-1 #
edge $-1 $659 -27.624561866603024 $828 -14.66313958529441 $655 $829 forward 7 unknown #
coedge $-1 $463 $462 $662 $830 reversed $183 $-1 #
edge $-1 $831 8.3777959833898778e-015 $659 15.454724236573586 $653 $832 forward 7 unknown #
vertex $-1 $465 $833 #
straight-curve $-1 11.75078940252817 -25.839467188645948 16.008934144111567 -1 0 0 I I #
coedge $-1 $652 $466 $469 $666 reversed $459 $-1 #
coedge $-1 $466 $652 $657 $830 forward $459 $-1 #
vertex $-1 $467 $834 #
straight-curve $-1 29.540181746729257 -38.800889469954562 56.249163029254525 0 0 1 I I #
straight-curve $-1 29.540181746729257 -38.800889469954569 7.5916879391980245 0 -0.83867056331134215 -0.54463904215088732 I I #
edge $-1 $828 17.462975863383424 $471 29.540181746729257 $661 $835 forward 7 unknown #
point $-1 29.540181746729257 -38.800889469954562 16.008934144111567 #
point $-1 29.540181746729257 -25.839467188645948 16.008934144111567 #
edge $-1 $836 1 $836 0 $474 $-1 forward 7 unknown #
vertex $-1 $475 $837 #
ellipse-curve $-1 20.913606115767948 -30.996702298774949 9.7623367097628755 0 -0.54463904215088732 0.83867056331134215 1 0 0 1 I I #
point $-1 21.913606115767948 -32.320178329300241 11.800311041654791 #
edge $-1 $838 1 $838 0 $478 $-1 forward 7 unknown #
vertex $-1 $479 $839 #
ellipse-curve $-1 26.089551494344747 -30.996702298774949 9.7623367097628755 0 -0.54463904215088732 0.83867056331134215 1 0 0 1 I I #
point $-1 27.089551494344747 -32.320178329300241 11.800311041654791 #
plane-surface $-1 0 0 16.008934144111567 0 0 1 1 0 0 forward_v I I I I #
coedge $-1 $688 $687 $680 $840 forward $483 $-1 #
coedge $-1 $680 $485 $487 $684 reversed $313 $-1 #
coedge $-1 $485 $679 $678 $840 reversed $313 $-1 #
coedge $-1 $493 $488 $485 $682 forward $494 $-1 #
edge $-1 $685 -3.9098680463309989 $841 1.3638406226095228 $681 $842 forward 7 unknown #
coedge $-1 $487 $486 $688 $843 reversed $197 $-1 #
edge $-1 $844 -77.601778939909096 $685 -70.009977044213969 $679 $845 forward 7 unknown #
vertex $-1 $489 $846 #
straight-curve $-1 -17.3808911816704 33.527180801014026 16.008934144111571 1 0 0 I I #
coedge $-1 $678 $490 $493 $692 reversed $483 $-1 #
coedge $-1 $490 $678 $683 $843 forward $483 $-1 #
vertex $-1 $491 $847 #
straight-curve $-1 -40.421612269065967 38.800889469954562 76.631253346789521 0 0 1 I I #
straight-curve $-1 -40.421612269065967 -15.105835171090973 66.369897629616347 0 0.69465836192734942 -0.71933980857756763 I I #
edge $-1 $841 29.101952457615631 $495 40.421612269065967 $687 $848 forward 7 unknown #
point $-1 -40.421612269065967 38.800889469954562 16.008934144111567 #
point $-1 -40.421612269065967 33.52718080101404 16.008934144111564 #
edge $-1 $849 1 $849 0 $498 $-1 forward 7 unknown #
vertex $-1 $499 $850 #
ellipse-curve $-1 -37.187423751508732 34.272527299953083 11.451783642030316 0 0.71933980857756763 0.69465836192734942 1 0 0 1 I I #
point $-1 -36.187423751508732 36.164035135484312 13.278391482907491 #
edge $-1 $851 1 $851 0 $502 $-1 forward 7 unknown #
vertex $-1 $503 $852 #
ellipse-curve $-1 -32.336140975172867 34.272527299953083 11.451783642030316 0 0.71933980857756763 0.69465836192734942 1 0 0 1 I I #
point $-1 -31.336140975172867 36.164035135484312 13.278391482907491 #
loop $-1 $-1 $514 $506 #
plane-surface $-1 0 38.800889469954562 0 0 -1 0 0 0 -1 forward_v I I I I #
coedge $-1 $706 $509 $511 $710 reversed $335 $-1 #
coedge $-1 $509 $705 $853 $854 reversed $335 $-1 #
coedge $-1 $517 $512 $509 $708 forward $507 $-1 #
edge $-1 $711 -3.9098680463309989 $855 1.3638406226095228 $707 $856 forward 7 unknown #
coedge $-1 $511 $510 $714 $857 reversed $211 $-1 #
edge $-1 $858 -77.601778939909096 $711 -70.009977044213969 $705 $859 forward 7 unknown #
vertex $-1 $513 $860 #
straight-curve $-1 -3.5185999663032845 33.527180801014026 16.008934144111571 1 0 0 I I #
coedge $-1 $853 $514 $517 $718 reversed $703 $-1 #
coedge $-1 $514 $853 $709 $857 forward $703 $-1 #
vertex $-1 $515 $861 #
straight-curve $-1 -12.697029838331737 38.800889469954562 76.631253346789521 0 0 1 I I #
straight-curve $-1 -12.697029838331737 -15.105835171090973 66.369897629616347 0 0.69465836192734942 -0.71933980857756763 I I #
edge $-1 $855 1.3773700268814011 $518 12.697029838331737 $713 $862 forward 7 unknown #
point $-1 -12.697029838331737 38.800889469954562 16.008934144111567 #
point $-1 -12.697029838331737 33.52718080101404 16.008934144111564 #
edge $-1 $863 1 $863 0 $521 $-1 forward 7 unknown #
vertex $-1 $522 $864 #
ellipse-curve $-1 -9.4628413207744941 34.272527299953083 11.451783642030316 0 0.71933980857756763 0.69465836192734942 1 0 0 1 I I #
point $-1 -8.4628413207744941 36.164035135484312 13.278391482907491 #
edge $-1 $865 1 $865 0 $525 $-1 forward 7 unknown #
vertex $-1 $526 $866 #
ellipse-curve $-1 -4.6115585444386369 34.272527299953083 11.451783642030316 0 0.71933980857756763 0.69465836192734942 1 0 0 1 I I #
point $-1 -3.6115585444386369 36.164035135484312 13.278391482907491 #
loop $-1 $-1 $537 $529 #
plane-surface $-1 0 38.800889469954562 0 0 -1 0 0 0 -1 forward_v I I I I #
coedge $-1 $732 $532 $534 $736 reversed $357 $-1 #
coedge $-1 $532 $731 $867 $868 reversed $357 $-1 #
coedge $-1 $540 $535 $532 $734 forward $530 $-1 #
edge $-1 $737 -3.9098680463309989 $869 1.3638406226095228 $733 $870 forward 7 unknown #
coedge $-1 $534 $533 $740 $871 reversed $225 $-1 #
edge $-1 $872 -77.601778939909096 $737 -70.009977044213969 $731 $873 forward 7 unknown #
vertex $-1 $536 $874 #
straight-curve $-1 10.343691249063831 33.527180801014026 16.008934144111571 1 0 0 I I #
coedge $-1 $867 $537 $540 $744 reversed $729 $-1 #
coedge $-1 $537 $867 $735 $871 forward $729 $-1 #
vertex $-1 $538 $875 #
straight-curve $-1 15.027552592402493 38.800889469954562 76.631253346789521 0 0 1 I I #
straight-curve $-1 15.027552592402493 -15.105835171090973 66.369897629616347 0 0.69465836192734942 -0.71933980857756763 I I #
edge $-1 $869 -26.347212403852829 $541 -15.027552592402493 $739 $876 forward 7 unknown #
point $-1 15.027552592402493 38.800889469954562 16.008934144111567 #
point $-1 15.027552592402493 33.52718080101404 16.008934144111564 #
edge $-1 $877 1 $877 0 $544 $-1 forward 7 unknown #
vertex $-1 $545 $878 #
ellipse-curve $-1 18.261741109959743 34.272527299953083 11.451783642030316 0 0.71933980857756763 0.69465836192734942 1 0 0 1 I I #
point $-1 19.261741109959743 36.164035135484312 13.278391482907491 #
edge $-1 $879 1 $879 0 $548 $-1 forward 7 unknown #
vertex $-1 $549 $880 #
ellipse-curve $-1 23.113023886295593 34.272527299953083 11.451783642030316 0 0.71933980857756763 0.69465836192734942 1 0 0 1 I I #
point $-1 24.113023886295593 36.164035135484312 13.278391482907491 #
loop $-1 $-1 $560 $552 #
plane-surface $-1 0 38.800889469954562 0 0 -1 0 0 0 -1 forward_v I I I I #
coedge $-1 $758 $555 $557 $762 reversed $379 $-1 #
coedge $-1 $555 $757 $881 $882 reversed $379 $-1 #
coedge $-1 $563 $558 $555 $760 forward $553 $-1 #
edge $-1 $763 -3.9098680463309989 $883 1.3638406226095228 $759 $884 forward 7 unknown #
coedge $-1 $557 $556 $766 $885 reversed $239 $-1 #
edge $-1 $886 -77.601778939909096 $763 -70.009977044213969 $757 $887 forward 7 unknown #
vertex $-1 $559 $888 #
straight-curve $-1 24.205982464430946 33.527180801014026 16.008934144111571 1 0 0 I I #
coedge $-1 $881 $560 $563 $770 reversed $755 $-1 #
coedge $-1 $560 $881 $761 $885 forward $755 $-1 #
vertex $-1 $561 $889 #
straight-curve $-1 42.752135023136724 38.800889469954562 76.631253346789521 0 0 1 I I #
straight-curve $-1 42.752135023136724 -15.105835171090973 66.369897629616347 0 0.69465836192734942 -0.71933980857756763 I I #
edge $-1 $883 -54.07179483458706 $564 -42.752135023136724 $765 $890 forward 7 unknown #
point $-1 42.752135023136724 38.800889469954562 16.008934144111567 #
point $-1 42.752135023136724 33.52718080101404 16.008934144111564 #
edge $-1 $891 1 $891 0 $567 $-1 forward 7 unknown #
vertex $-1 $568 $892 #
ellipse-curve $-1 45.986323540693974 34.272527299953083 11.451783642030316 0 0.71933980857756763 0.69465836192734942 1 0 0 1 I I #
point $-1 46.986323540693974 36.164035135484312 13.278391482907491 #
edge $-1 $893 1 $893 0 $571 $-1 forward 7 unknown #
vertex $-1 $572 $894 #
ellipse-curve $-1 50.837606317029824 34.272527299953083 11.451783642030316 0 0.71933980857756763 0.69465836192734942 1 0 0 1 I I #
point $-1 51.837606317029824 36.164035135484312 13.278391482907491 #
plane-surface $-1 62.543412579729605 0 0 -1 0 0 0 0 1 forward_v I I I I #
coedge $-1 $580 $578 $582 $786 reversed $401 $-1 #
edge $-1 $593 -16.008934144111567 $788 16.008934144111567 $592 $895 forward 7 unknown #
vertex $-1 $786 $896 #
straight-curve $-1 -62.543412579729605 -38.800889469954562 0 0 0 -1 I I #
edge $-1 $784 -38.800889469954562 $788 38.800889469954562 $782 $897 forward 7 unknown #
straight-curve $-1 0 -38.800889469954562 -16.008934144111567 -1 0 0 I I #
vertex $-1 $585 $898 #
straight-curve $-1 0 38.800889469954562 -16.008934144111567 1 0 0 I I #
point $-1 62.543412579729605 38.800889469954562 -16.008934144111567 #
point $-1 62.543412579729605 -38.800889469954562 -16.008934144111567 #
straight-curve $-1 -62.543412579729605 0 16.008934144111567 0 -1 0 I I #
point $-1 -62.543412579729605 38.800889469954562 16.008934144111567 #
point $-1 -62.543412579729605 -38.800889469954562 16.008934144111567 #
straight-curve $-1 62.543412579729605 -38.800889469954562 0 0 0 -1 I I #
straight-curve $-1 62.543412579729605 38.800889469954562 0 0 0 -1 I I #
plane-surface $-1 0 -38.800889469954562 0 0 1 0 0 0 1 forward_v I I I I #
coedge $-1 $899 $605 $617 $809 reversed $420 $-1 #
coedge $-1 $605 $899 $620 $811 reversed $420 $-1 #
edge $-1 $900 -62.543412579729605 $614 -48.893230014208484 $610 $901 forward 7 unknown #
straight-curve $-1 -48.893230014208484 -18.360697025428312 16.008934144111567 0 1 0 I I #
coedge $-1 $617 $608 $611 $805 forward $603 $-1 #
straight-curve $-1 -48.893230014208484 -18.360697025428312 -16.008934144111567 0 -1 0 I I #
coedge $-1 $611 $610 $899 $902 forward $612 $-1 #
edge $-1 $613 48.893230014208484 $903 62.543412579729605 $611 $904 forward 7 unknown #
point $-1 -48.893230014208484 -38.800889469954562 -16.008934144111567 #
point $-1 -48.893230014208484 -38.800889469954562 16.008934144111567 #
straight-curve $-1 -62.543412579729605 -34.641898631758686 0 0 0 -1 I I #
edge $-1 $903 -38.800889469954562 $618 -34.641898631758686 $798 $905 forward 7 unknown #
point $-1 -62.543412579729605 -34.641898631758686 -16.008934144111567 #
edge $-1 $621 34.641898631758686 $900 38.800889469954562 $799 $906 forward 7 unknown #
point $-1 -62.543412579729605 -34.641898631758686 16.008934144111567 #
coedge $-1 $636 $635 $628 $814 forward $625 $-1 #
edge $-1 $815 40.240228885142955 $818 48.657475090056494 $813 $907 forward 7 unknown #
vertex $-1 $640 $908 #
straight-curve $-1 -38.255345433585617 -53.464029055248972 16.008934144111564 0 -1 0 I I #
edge $-1 $818 -22.146974187629269 $637 -10.069768304283432 $636 $909 forward 7 unknown #
vertex $-1 $817 $910 #
straight-curve $-1 -38.255345433585617 -38.800889469954569 7.5916879391980245 0 0.83867056331134215 0.54463904215088732 I I #
point $-1 -38.255345433585617 -25.839467188645948 16.008934144111567 #
point $-1 -26.178139550239781 -38.800889469954562 7.591687939198029 #
straight-curve $-1 0 -38.800889469954562 16.008934144111567 1 0 0 I I #
vertex $-1 $643 $911 #
point $-1 -33.80471518120109 -30.996702298774949 9.7623367097628755 #
vertex $-1 $647 $912 #
point $-1 -28.628769802624305 -30.996702298774949 9.7623367097628755 #
edge $-1 $828 40.240228885142955 $831 48.657475090056494 $652 $913 forward 7 unknown #
vertex $-1 $666 $914 #
straight-curve $-1 17.462975863383424 -53.464029055248972 16.008934144111564 0 -1 0 I I #
edge $-1 $831 5.7121864608552535 $663 17.789392344201087 $662 $915 forward 7 unknown #
vertex $-1 $830 $916 #
straight-curve $-1 17.462975863383424 -38.800889469954569 7.5916879391980245 0 0.83867056331134215 0.54463904215088732 I I #
point $-1 17.462975863383424 -25.839467188645948 16.008934144111567 #
point $-1 29.540181746729257 -38.800889469954562 7.591687939198029 #
straight-curve $-1 0 -38.800889469954562 16.008934144111567 1 0 0 I I #
vertex $-1 $669 $917 #
point $-1 21.913606115767948 -30.996702298774949 9.7623367097628755 #
vertex $-1 $673 $918 #
point $-1 27.089551494344747 -30.996702298774949 9.7623367097628755 #
edge $-1 $841 60.622319202677957 $844 66.08340452508611 $678 $919 forward 7 unknown #
vertex $-1 $692 $920 #
straight-curve $-1 -29.101952457615631 37.437048847345039 16.008934144111564 0 1 0 I I #
edge $-1 $844 11.721061275945232 $689 23.040721087395568 $688 $921 forward 7 unknown #
vertex $-1 $843 $922 #
straight-curve $-1 -29.101952457615631 -15.105835171090973 66.369897629616347 0 -0.69465836192734942 0.71933980857756763 I I #
point $-1 -29.101952457615631 33.52718080101404 16.008934144111564 #
point $-1 -40.421612269065967 38.800889469954562 10.547848821703418 #
straight-curve $-1 0 38.800889469954562 16.008934144111567 -1 0 0 I I #
vertex $-1 $695 $923 #
point $-1 -36.187423751508732 34.272527299953083 11.451783642030316 #
vertex $-1 $699 $924 #
point $-1 -31.336140975172867 34.272527299953083 11.451783642030316 #
coedge $-1 $714 $713 $706 $854 forward $703 $-1 #
edge $-1 $855 60.622319202677957 $858 66.08340452508611 $853 $925 forward 7 unknown #
vertex $-1 $718 $926 #
straight-curve $-1 -1.3773700268814011 37.437048847345039 16.008934144111564 0 1 0 I I #
edge $-1 $858 -2.1412299394218834 $715 9.1784298720284525 $714 $927 forward 7 unknown #
vertex $-1 $857 $928 #
straight-curve $-1 -1.3773700268814011 -15.105835171090973 66.369897629616347 0 -0.69465836192734942 0.71933980857756763 I I #
point $-1 -1.3773700268814011 33.52718080101404 16.008934144111564 #
point $-1 -12.697029838331737 38.800889469954562 10.547848821703418 #
straight-curve $-1 0 38.800889469954562 16.008934144111567 -1 0 0 I I #
vertex $-1 $721 $929 #
point $-1 -8.4628413207744941 34.272527299953083 11.451783642030316 #
vertex $-1 $725 $930 #
point $-1 -3.6115585444386369 34.272527299953083 11.451783642030316 #
coedge $-1 $740 $739 $732 $868 forward $729 $-1 #
edge $-1 $869 60.622319202677957 $872 66.08340452508611 $867 $931 forward 7 unknown #
vertex $-1 $744 $932 #
straight-curve $-1 26.347212403852829 37.437048847345039 16.008934144111564 0 1 0 I I #
edge $-1 $872 -16.003521154788999 $741 -4.6838613433386627 $740 $933 forward 7 unknown #
vertex $-1 $871 $934 #
straight-curve $-1 26.347212403852829 -15.105835171090973 66.369897629616347 0 -0.69465836192734942 0.71933980857756763 I I #
point $-1 26.347212403852829 33.52718080101404 16.008934144111564 #
point $-1 15.027552592402493 38.800889469954562 10.547848821703418 #
straight-curve $-1 0 38.800889469954562 16.008934144111567 -1 0 0 I I #
vertex $-1 $747 $935 #
point $-1 19.261741109959743 34.272527299953083 11.451783642030316 #
vertex $-1 $751 $936 #
point $-1 24.113023886295593 34.272527299953083 11.451783642030316 #
coedge $-1 $766 $765 $758 $882 forward $755 $-1 #
edge $-1 $883 60.622319202677957 $886 66.08340452508611 $881 $937 forward 7 unknown #
vertex $-1 $770 $938 #
straight-curve $-1 54.07179483458706 37.437048847345039 16.008934144111564 0 1 0 I I #
edge $-1 $886 -29.865812370156114 $767 -18.546152558705778 $766 $939 forward 7 unknown #
vertex $-1 $885 $940 #
straight-curve $-1 54.07179483458706 -15.105835171090973 66.369897629616347 0 -0.69465836192734942 0.71933980857756763 I I #
point $-1 54.07179483458706 33.52718080101404 16.008934144111564 #
point $-1 42.752135023136724 38.800889469954562 10.547848821703418 #
straight-curve $-1 0 38.800889469954562 16.008934144111567 -1 0 0 I I #
vertex $-1 $773 $941 #
point $-1 46.986323540693974 34.272527299953083 11.451783642030316 #
vertex $-1 $777 $942 #
point $-1 51.837606317029824 34.272527299953083 11.451783642030316 #
straight-curve $-1 -62.543412579729605 38.800889469954562 0 0 0 -1 I I #
point $-1 -62.543412579729605 -38.800889469954562 -16.008934144111567 #
straight-curve $-1 -62.543412579729605 0 -16.008934144111567 0 1 0 I I #
point $-1 -62.543412579729605 38.800889469954562 -16.008934144111567 #
coedge $-1 $799 $798 $804 $902 reversed $420 $-1 #
vertex $-1 $811 $943 #
straight-curve $-1 0 -38.800889469954562 16.008934144111567 1 0 0 I I #
edge $-1 $900 -16.008934144111567 $903 16.008934144111567 $899 $944 forward 7 unknown #
vertex $-1 $809 $945 #
straight-curve $-1 0 -38.800889469954562 -16.008934144111567 -1 0 0 I I #
straight-curve $-1 -62.543412579729605 0 -16.008934144111567 0 1 0 I I #
straight-curve $-1 -62.543412579729605 0 16.008934144111567 0 -1 0 I I #
straight-curve $-1 -38.255345433585617 -38.800889469954562 56.249163029254525 0 0 -1 I I #
point $-1 -38.255345433585617 -38.800889469954562 16.008934144111567 #
straight-curve $-1 -16.108371245956349 -38.800889469954562 7.5916879391980325 1 0 0 I I #
point $-1 -38.255345433585617 -38.800889469954562 7.591687939198029 #
point $-1 -34.80471518120109 -30.452063256624058 8.9236661464515326 #
point $-1 -29.628769802624305 -30.452063256624058 8.9236661464515326 #
straight-curve $-1 17.462975863383424 -38.800889469954562 56.249163029254525 0 0 -1 I I #
point $-1 17.462975863383424 -38.800889469954562 16.008934144111567 #
straight-curve $-1 11.75078940252817 -38.800889469954562 7.5916879391980325 1 0 0 I I #
point $-1 17.462975863383424 -38.800889469954562 7.591687939198029 #
point $-1 20.913606115767948 -30.452063256624058 8.9236661464515326 #
point $-1 26.089551494344747 -30.452063256624058 8.9236661464515326 #
straight-curve $-1 -29.101952457615631 38.800889469954562 76.631253346789521 0 0 -1 I I #
point $-1 -29.101952457615631 38.800889469954562 16.008934144111567 #
straight-curve $-1 -17.3808911816704 38.800889469954562 10.547848821703415 -1 0 0 I I #
point $-1 -29.101952457615631 38.800889469954562 10.547848821703418 #
point $-1 -37.187423751508732 33.55318749137551 10.757125280102967 #
point $-1 -32.336140975172867 33.55318749137551 10.757125280102967 #
straight-curve $-1 -1.3773700268814011 38.800889469954562 76.631253346789521 0 0 -1 I I #
point $-1 -1.3773700268814011 38.800889469954562 16.008934144111567 #
straight-curve $-1 -3.5185999663032845 38.800889469954562 10.547848821703415 -1 0 0 I I #
point $-1 -1.3773700268814011 38.800889469954562 10.547848821703418 #
point $-1 -9.4628413207744941 33.55318749137551 10.757125280102967 #
point $-1 -4.6115585444386369 33.55318749137551 10.757125280102967 #
straight-curve $-1 26.347212403852829 38.800889469954562 76.631253346789521 0 0 -1 I I #
point $-1 26.347212403852829 38.800889469954562 16.008934144111567 #
straight-curve $-1 10.343691249063831 38.800889469954562 10.547848821703415 -1 0 0 I I #
point $-1 26.347212403852829 38.800889469954562 10.547848821703418 #
point $-1 18.261741109959743 33.55318749137551 10.757125280102967 #
point $-1 23.113023886295593 33.55318749137551 10.757125280102967 #
straight-curve $-1 54.07179483458706 38.800889469954562 76.631253346789521 0 0 -1 I I #
point $-1 54.07179483458706 38.800889469954562 16.008934144111567 #
straight-curve $-1 24.205982464430946 38.800889469954562 10.547848821703415 -1 0 0 I I #
point $-1 54.07179483458706 38.800889469954562 10.547848821703418 #
point $-1 45.986323540693974 33.55318749137551 10.757125280102967 #
point $-1 50.837606317029824 33.55318749137551 10.757125280102967 #
point $-1 -62.543412579729605 -38.800889469954562 16.008934144111567 #
straight-curve $-1 -62.543412579729605 -38.800889469954562 0 0 0 -1 I I #
point $-1 -62.543412579729605 -38.800889469954562 -16.008934144111567 #
End-of-ACIS-data 