500 0 9 0           
7 Unknown 11 ACIS 5.0 NT 24 Thu Mar 25 17:50:36 1999 
-1 9.9999999999999995e-007 1e-010 
body $-1 $9 $-1 $10 #
body $-1 $11 $-1 $12 #
body $-1 $13 $-1 $14 #
body $-1 $15 $-1 $16 #
body $-1 $17 $-1 $18 #
body $-1 $19 $-1 $20 #
body $-1 $21 $-1 $22 #
body $-1 $23 $-1 $24 #
body $-1 $25 $-1 $26 #
lump $-1 $-1 $27 $0 #
transform $-1 1 0 0 0 1 0 0 0 1 73.047883541367838 42.291396206850571 20.841745229902738 1 rotate no_reflect no_shear #
lump $-1 $-1 $28 $1 #
transform $-1 1 0 0 0 1 0 0 0 1 73.047883541367838 42.291396206850571 20.841745229902738 1 rotate no_reflect no_shear #
lump $-1 $-1 $29 $2 #
transform $-1 1 0 0 0 1 0 0 0 1 73.047883541367838 42.291396206850571 20.841745229902738 1 rotate no_reflect no_shear #
lump $-1 $-1 $30 $3 #
transform $-1 1 0 0 0 1 0 0 0 1 73.047883541367838 42.291396206850571 20.841745229902738 1 rotate no_reflect no_shear #
lump $-1 $-1 $31 $4 #
transform $-1 1 0 0 0 1 0 0 0 1 73.047883541367838 42.291396206850571 20.841745229902738 1 rotate no_reflect no_shear #
lump $-1 $-1 $32 $5 #
transform $-1 1 0 0 0 1 0 0 0 1 73.047883541367838 42.291396206850571 20.841745229902738 1 rotate no_reflect no_shear #
lump $-1 $-1 $33 $6 #
transform $-1 1 0 0 0 1 0 0 0 1 73.047883541367838 42.291396206850571 20.841745229902738 1 rotate no_reflect no_shear #
lump $-1 $-1 $34 $7 #
transform $-1 1 0 0 0 1 0 0 0 1 73.047883541367838 42.291396206850571 20.841745229902738 1 rotate no_reflect no_shear #
lump $-1 $-1 $35 $8 #
transform $-1 1 0 0 0 1 0 0 0 1 73.047883541367838 42.291396206850571 20.841745229902738 1 rotate no_reflect no_shear #
shell $-1 $-1 $-1 $36 $-1 $9 #
shell $-1 $-1 $-1 $37 $-1 $11 #
shell $-1 $-1 $-1 $38 $-1 $13 #
shell $-1 $-1 $-1 $39 $-1 $15 #
shell $-1 $-1 $-1 $40 $-1 $17 #
shell $-1 $-1 $-1 $41 $-1 $19 #
shell $-1 $-1 $-1 $42 $-1 $21 #
shell $-1 $-1 $-1 $43 $-1 $23 #
shell $-1 $-1 $-1 $44 $-1 $25 #
face $-1 $45 $46 $27 $-1 $47 forward single #
face $-1 $48 $49 $28 $-1 $50 reversed single #
face $-1 $51 $52 $29 $-1 $53 forward single #
face $-1 $54 $55 $30 $-1 $56 reversed single #
face $-1 $57 $58 $31 $-1 $59 forward single #
face $-1 $60 $61 $32 $-1 $62 forward single #
face $-1 $63 $64 $33 $-1 $65 reversed single #
face $-1 $66 $67 $34 $-1 $68 forward single #
face $-1 $69 $70 $35 $-1 $71 forward single #
face $-1 $72 $73 $27 $-1 $74 reversed single #
loop $-1 $-1 $75 $36 #
plane-surface $-1 0 0 20.841745229902738 0 0 1 1 0 0 forward_v I I I I #
face $-1 $76 $77 $28 $-1 $78 reversed single #
loop $-1 $-1 $79 $37 #
plane-surface $-1 -55.50592306775102 -34.600049936164282 0 1 0 0 0 0 -1 forward_v I I I I #
face $-1 $80 $81 $29 $-1 $82 reversed single #
loop $-1 $-1 $83 $38 #
plane-surface $-1 0 42.291396206850571 0 0 -1 0 0 0 -1 forward_v I I I I #
face $-1 $84 $85 $30 $-1 $86 reversed single #
loop $-1 $-1 $87 $39 #
plane-surface $-1 129.99749032626676 -10.603978982879866 205.93153017359256 0 -1 0 -0.87461971476443456 0 -0.48480960649040278 forward_v I I I I #
face $-1 $88 $89 $31 $-1 $90 forward single #
loop $-1 $91 $92 $40 #
cone-surface $-1 68.710893264713832 -16.825145810415368 13.755789654481974 -0.87461971476443456 0 -0.48480960649040278 0.24240480324520139 0 -0.43730985738221728 1 I I 0 1 0.5 forward I I I I #
face $-1 $93 $94 $32 $-1 $95 forward single #
loop $-1 $96 $97 $41 #
cone-surface $-1 68.710893264713832 -13.092445713894065 13.755789654481974 -0.87461971476443456 0 -0.48480960649040278 0.24240480324520139 0 -0.43730985738221728 1 I I 0 1 0.5 forward I I I I #
face $-1 $98 $99 $33 $-1 $100 reversed single #
loop $-1 $-1 $101 $42 #
plane-surface $-1 129.99749032626676 16.019450262900225 205.93153017359256 0 -1 0 -0.87461971476443456 0 -0.48480960649040278 forward_v I I I I #
face $-1 $102 $103 $34 $-1 $104 forward single #
loop $-1 $105 $106 $43 #
cone-surface $-1 68.710893264713832 9.7982834353647164 13.755789654481974 -0.87461971476443456 0 -0.48480960649040278 0.24240480324520139 0 -0.43730985738221728 1 I I 0 1 0.5 forward I I I I #
face $-1 $107 $108 $35 $-1 $109 forward single #
loop $-1 $110 $111 $44 #
cone-surface $-1 68.710893264713832 13.530983531886022 13.755789654481974 -0.87461971476443456 0 -0.48480960649040278 0.24240480324520139 0 -0.43730985738221728 1 I I 0 1 0.5 forward I I I I #
face $-1 $112 $113 $27 $-1 $114 reversed single #
loop $-1 $-1 $115 $45 #
plane-surface $-1 0 0 -20.841745229902738 0 0 1 1 0 0 forward_v I I I I #
coedge $-1 $116 $117 $118 $119 forward $46 $-1 #
face $-1 $120 $121 $28 $-1 $122 reversed single #
loop $-1 $-1 $123 $48 #
plane-surface $-1 -52.999023733829219 -26.908703665477994 0 0 -1 0 0 0 -1 forward_v I I I I #
coedge $-1 $124 $125 $126 $127 forward $49 $-1 #
face $-1 $128 $129 $29 $-1 $130 forward single #
loop $-1 $-1 $131 $51 #
plane-surface $-1 73.047883541367838 0 0 -1 0 0 0 0 1 forward_v I I I I #
coedge $-1 $132 $133 $134 $135 forward $52 $-1 #
face $-1 $136 $137 $30 $-1 $138 reversed single #
loop $-1 $-1 $139 $54 #
plane-surface $-1 2.2192521920732133 -14.958795762154718 135.10289882429794 0.87461971476443456 0 0.48480960649040278 0.48480960649040278 0 -0.87461971476443456 forward_v I I I I #
coedge $-1 $140 $141 $142 $143 reversed $55 $-1 #
face $-1 $-1 $144 $31 $-1 $145 forward single #
loop $-1 $146 $147 $57 #
cone-surface $-1 67.901569075241383 -16.825145810415368 13.307173947337777 -0.87461971476443456 0 -0.48480960649040278 0.12120240162260069 0 -0.21865492869110864 1 I I -0.70710678118654746 0.70710678118654746 0.25 forward I I I I #
loop $-1 $-1 $148 $40 #
coedge $-1 $92 $92 $149 $150 reversed $58 $-1 #
face $-1 $-1 $151 $32 $-1 $152 forward single #
loop $-1 $153 $154 $60 #
cone-surface $-1 67.901569075241383 -13.092445713894065 13.307173947337777 -0.87461971476443456 0 -0.48480960649040278 0.12120240162260069 0 -0.21865492869110864 1 I I -0.70710678118654746 0.70710678118654746 0.25 forward I I I I #
loop $-1 $-1 $155 $41 #
coedge $-1 $97 $97 $156 $157 reversed $61 $-1 #
face $-1 $158 $159 $33 $-1 $160 reversed single #
loop $-1 $-1 $161 $63 #
plane-surface $-1 2.2192521920732133 11.664633483625373 135.10289882429794 0.87461971476443456 0 0.48480960649040278 0.48480960649040278 0 -0.87461971476443456 forward_v I I I I #
coedge $-1 $162 $163 $164 $165 reversed $64 $-1 #
face $-1 $-1 $166 $34 $-1 $167 forward single #
loop $-1 $168 $169 $66 #
cone-surface $-1 67.901569075241383 9.7982834353647164 13.307173947337777 -0.87461971476443456 0 -0.48480960649040278 0.12120240162260069 0 -0.21865492869110864 1 I I -0.70710678118654746 0.70710678118654746 0.25 forward I I I I #
loop $-1 $-1 $170 $43 #
coedge $-1 $106 $106 $171 $172 reversed $67 $-1 #
face $-1 $-1 $173 $35 $-1 $174 forward single #
loop $-1 $175 $176 $69 #
cone-surface $-1 67.901569075241383 13.530983531886022 13.307173947337777 -0.87461971476443456 0 -0.48480960649040278 0.12120240162260069 0 -0.21865492869110864 1 I I -0.70710678118654746 0.70710678118654746 0.25 forward I I I I #
loop $-1 $-1 $177 $44 #
coedge $-1 $111 $111 $178 $179 reversed $70 $-1 #
face $-1 $180 $181 $27 $-1 $182 reversed single #
loop $-1 $-1 $183 $72 #
plane-surface $-1 0 -42.291396206850571 0 0 1 0 0 0 1 forward_v I I I I #
coedge $-1 $184 $185 $186 $187 forward $73 $-1 #
coedge $-1 $188 $75 $189 $190 forward $46 $-1 #
coedge $-1 $75 $188 $191 $192 forward $46 $-1 #
coedge $-1 $193 $194 $75 $119 reversed $195 $-1 #
edge $-1 $196 -42.291396206850571 $197 42.291396206850571 $118 $198 forward 7 unknown #
face $-1 $199 $200 $28 $-1 $201 forward single #
loop $-1 $-1 $202 $76 #
plane-surface $-1 -50.492124399907418 -34.600049936164282 0 -1 0 0 0 0 1 forward_v I I I I #
coedge $-1 $203 $204 $205 $206 forward $77 $-1 #
coedge $-1 $207 $79 $208 $209 reversed $49 $-1 #
coedge $-1 $79 $207 $210 $211 reversed $49 $-1 #
coedge $-1 $204 $203 $79 $127 reversed $77 $-1 #
edge $-1 $212 -20.841745229902738 $213 20.841745229902738 $126 $214 forward 7 unknown #
face $-1 $215 $216 $29 $-1 $217 reversed single #
loop $-1 $-1 $218 $80 #
plane-surface $-1 0 51.629823616801538 -10.357075897322073 0 0 1 1 0 0 forward_v I I I I #
coedge $-1 $219 $220 $133 $221 forward $81 $-1 #
coedge $-1 $222 $83 $223 $224 reversed $52 $-1 #
coedge $-1 $83 $222 $131 $221 reversed $52 $-1 #
coedge $-1 $218 $225 $83 $135 reversed $129 $-1 #
edge $-1 $226 -73.047883541367838 $227 73.047883541367838 $134 $228 forward 7 unknown #
face $-1 $229 $230 $30 $-1 $231 forward single #
loop $-1 $-1 $232 $84 #
plane-surface $-1 129.99749032626676 -19.313612541429571 205.93153017359256 0 1 0 0.87461971476443456 0 0.48480960649040278 forward_v I I I I #
coedge $-1 $233 $234 $235 $236 reversed $85 $-1 #
coedge $-1 $141 $87 $237 $238 reversed $55 $-1 #
coedge $-1 $87 $140 $233 $239 reversed $55 $-1 #
coedge $-1 $235 $240 $87 $143 forward $230 $-1 #
edge $-1 $241 -8.0491383782344599 $242 -0.55649634648909796 $142 $243 forward 7 unknown #
loop $-1 $-1 $149 $88 #
plane-surface $-1 2.2192521920732133 -14.958795762154718 135.10289882429794 0.87461971476443456 0 0.48480960649040278 0.48480960649040278 0 -0.87461971476443456 forward_v I I I I #
loop $-1 $-1 $244 $57 #
coedge $-1 $147 $147 $148 $245 reversed $89 $-1 #
coedge $-1 $148 $148 $147 $245 forward $91 $-1 #
coedge $-1 $149 $149 $92 $150 forward $144 $-1 #
edge $-1 $246 0 $246 6.2831853071796004 $149 $247 forward 7 unknown #
loop $-1 $-1 $156 $93 #
plane-surface $-1 2.2192521920732133 -14.958795762154718 135.10289882429794 0.87461971476443456 0 0.48480960649040278 0.48480960649040278 0 -0.87461971476443456 forward_v I I I I #
loop $-1 $-1 $248 $60 #
coedge $-1 $154 $154 $155 $249 reversed $94 $-1 #
coedge $-1 $155 $155 $154 $249 forward $96 $-1 #
coedge $-1 $156 $156 $97 $157 forward $151 $-1 #
edge $-1 $250 0 $250 6.2831853071796004 $156 $251 forward 7 unknown #
face $-1 $252 $253 $33 $-1 $254 reversed single #
loop $-1 $-1 $255 $98 #
plane-surface $-1 129.99749032626676 7.3098167043505207 205.93153017359256 0 1 0 0.87461971476443456 0 0.48480960649040278 forward_v I I I I #
coedge $-1 $256 $257 $258 $259 reversed $99 $-1 #
coedge $-1 $163 $101 $260 $261 reversed $64 $-1 #
coedge $-1 $101 $162 $256 $262 reversed $64 $-1 #
coedge $-1 $258 $263 $101 $165 forward $264 $-1 #
edge $-1 $265 -8.0491383782344599 $266 -0.55649634648909796 $164 $267 forward 7 unknown #
loop $-1 $-1 $171 $102 #
plane-surface $-1 2.2192521920732133 11.664633483625373 135.10289882429794 0.87461971476443456 0 0.48480960649040278 0.48480960649040278 0 -0.87461971476443456 forward_v I I I I #
loop $-1 $-1 $268 $66 #
coedge $-1 $169 $169 $170 $269 reversed $103 $-1 #
coedge $-1 $170 $170 $169 $269 forward $105 $-1 #
coedge $-1 $171 $171 $106 $172 forward $166 $-1 #
edge $-1 $270 0 $270 6.2831853071796004 $171 $271 forward 7 unknown #
loop $-1 $-1 $178 $107 #
plane-surface $-1 2.2192521920732133 11.664633483625373 135.10289882429794 0.87461971476443456 0 0.48480960649040278 0.48480960649040278 0 -0.87461971476443456 forward_v I I I I #
loop $-1 $-1 $272 $69 #
coedge $-1 $176 $176 $177 $273 reversed $108 $-1 #
coedge $-1 $177 $177 $176 $273 forward $110 $-1 #
coedge $-1 $178 $178 $111 $179 forward $173 $-1 #
edge $-1 $274 0 $274 6.2831853071796004 $178 $275 forward 7 unknown #
face $-1 $276 $277 $27 $-1 $278 reversed single #
loop $-1 $-1 $279 $112 #
plane-surface $-1 -73.047883541367838 0 0 1 0 0 0 0 -1 forward_v I I I I #
coedge $-1 $280 $191 $281 $282 forward $113 $-1 #
coedge $-1 $283 $115 $280 $284 forward $73 $-1 #
coedge $-1 $115 $283 $285 $286 forward $73 $-1 #
coedge $-1 $194 $193 $115 $187 reversed $195 $-1 #
edge $-1 $287 -42.291396206850571 $288 42.291396206850571 $186 $289 forward 7 unknown #
coedge $-1 $117 $116 $290 $291 forward $46 $-1 #
coedge $-1 $292 $293 $116 $190 reversed $277 $-1 #
edge $-1 $197 -73.047883541367838 $294 73.047883541367838 $189 $295 forward 7 unknown #
coedge $-1 $183 $296 $117 $192 reversed $113 $-1 #
edge $-1 $297 -73.047883541367838 $196 73.047883541367838 $191 $298 forward 7 unknown #
coedge $-1 $186 $118 $296 $299 forward $195 $-1 #
coedge $-1 $118 $186 $292 $300 reversed $195 $-1 #
loop $-1 $-1 $193 $276 #
vertex $-1 $119 $301 #
vertex $-1 $119 $302 #
straight-curve $-1 73.047883541367838 0 20.841745229902738 0 1 0 I I #
face $-1 $303 $304 $28 $-1 $305 reversed single #
loop $-1 $-1 $306 $120 #
plane-surface $-1 0 0 20.841745229902738 0 0 1 1 0 0 forward_v I I I I #
coedge $-1 $307 $308 $309 $310 reversed $121 $-1 #
coedge $-1 $126 $123 $311 $312 reversed $77 $-1 #
coedge $-1 $123 $126 $313 $314 reversed $77 $-1 #
coedge $-1 $308 $307 $123 $206 reversed $121 $-1 #
edge $-1 $315 -20.841745229902738 $316 20.841745229902738 $205 $317 forward 7 unknown #
coedge $-1 $125 $124 $318 $319 reversed $49 $-1 #
coedge $-1 $311 $320 $124 $209 forward $304 $-1 #
edge $-1 $321 -24.99137123876843 $213 -9.6086786973958525 $208 $322 forward 7 unknown #
coedge $-1 $323 $313 $125 $211 forward $200 $-1 #
edge $-1 $212 9.6086786973958525 $324 24.99137123876843 $210 $325 forward 7 unknown #
vertex $-1 $211 $326 #
vertex $-1 $209 $327 #
straight-curve $-1 -55.50592306775102 -26.908703665477994 0 0 0 -1 I I #
face $-1 $328 $329 $29 $-1 $330 reversed single #
loop $-1 $-1 $331 $128 #
plane-surface $-1 0 60.968251026752498 -15.599410563612405 0 -1 0 0 0 -1 forward_v I I I I #
coedge $-1 $332 $134 $220 $333 forward $129 $-1 #
coedge $-1 $334 $131 $335 $336 reversed $81 $-1 #
coedge $-1 $131 $334 $218 $333 reversed $81 $-1 #
edge $-1 $226 10.357075897322073 $337 20.841745229902738 $131 $338 forward 7 unknown #
coedge $-1 $133 $132 $339 $340 reversed $52 $-1 #
coedge $-1 $341 $342 $132 $224 forward $343 $-1 #
edge $-1 $344 -20.841745229902738 $227 -10.357075897322073 $223 $345 forward 7 unknown #
coedge $-1 $134 $332 $341 $346 forward $129 $-1 #
vertex $-1 $221 $347 #
vertex $-1 $346 $348 #
straight-curve $-1 0 42.291396206850571 -10.357075897322073 -1 0 0 I I #
face $-1 $-1 $349 $30 $-1 $350 reversed single #
loop $-1 $-1 $142 $136 #
plane-surface $-1 0 0 20.841745229902738 0 0 1 1 0 0 forward_v I I I I #
coedge $-1 $351 $352 $353 $354 reversed $137 $-1 #
coedge $-1 $355 $139 $141 $239 forward $85 $-1 #
coedge $-1 $139 $355 $351 $356 forward $85 $-1 #
coedge $-1 $353 $142 $139 $236 forward $230 $-1 #
edge $-1 $242 3.1245811018025069 $357 11.834214660352211 $235 $358 forward 7 unknown #
coedge $-1 $359 $360 $140 $238 forward $349 $-1 #
edge $-1 $361 -95.641104396691887 $241 -82.12401985689354 $237 $362 forward 7 unknown #
edge $-1 $242 130.64095362310658 $361 146.09576708273568 $141 $363 forward 7 unknown #
coedge $-1 $142 $353 $359 $364 forward $230 $-1 #
vertex $-1 $238 $365 #
vertex $-1 $143 $366 #
straight-curve $-1 64.998745163133378 -10.603978982879866 20.841745229902742 -1 0 0 I I #
coedge $-1 $244 $244 $-1 $367 reversed $146 $-1 #
edge $-1 $368 0 $368 6.2831853071796004 $147 $369 forward 7 unknown #
vertex $-1 $150 $370 #
ellipse-curve $-1 69.301562525495157 -16.825145810415368 14.083202960003561 0.87461971476443456 0 0.48480960649040278 0.24240480324520139 0 -0.43730985738221728 1 I I #
coedge $-1 $248 $248 $-1 $371 reversed $153 $-1 #
edge $-1 $372 0 $372 6.2831853071796004 $154 $373 forward 7 unknown #
vertex $-1 $157 $374 #
ellipse-curve $-1 69.301562525495157 -13.092445713894065 14.083202960003561 0.87461971476443456 0 0.48480960649040278 0.24240480324520139 0 -0.43730985738221728 1 I I #
face $-1 $-1 $264 $33 $-1 $375 forward single #
loop $-1 $-1 $376 $158 #
plane-surface $-1 73.047883541367838 0 0 -1 0 0 0 0 1 forward_v I I I I #
coedge $-1 $377 $378 $379 $380 reversed $159 $-1 #
coedge $-1 $381 $161 $163 $262 forward $99 $-1 #
coedge $-1 $161 $381 $377 $382 forward $99 $-1 #
coedge $-1 $379 $164 $161 $259 forward $264 $-1 #
edge $-1 $266 -10.187133521087539 $383 -1.4774999625378342 $258 $384 forward 7 unknown #
coedge $-1 $385 $386 $162 $261 forward $253 $-1 #
edge $-1 $387 -95.641104396691887 $265 -82.12401985689354 $260 $388 forward 7 unknown #
edge $-1 $266 130.64095362310658 $387 146.09576708273568 $163 $389 forward 7 unknown #
coedge $-1 $164 $379 $385 $390 forward $264 $-1 #
loop $-1 $-1 $379 $252 #
vertex $-1 $261 $391 #
vertex $-1 $165 $392 #
straight-curve $-1 64.998745163133378 16.019450262900225 20.841745229902742 -1 0 0 I I #
coedge $-1 $268 $268 $-1 $393 reversed $168 $-1 #
edge $-1 $394 0 $394 6.2831853071796004 $169 $395 forward 7 unknown #
vertex $-1 $172 $396 #
ellipse-curve $-1 69.301562525495157 9.7982834353647164 14.083202960003561 0.87461971476443456 0 0.48480960649040278 0.24240480324520139 0 -0.43730985738221728 1 I I #
coedge $-1 $272 $272 $-1 $397 reversed $175 $-1 #
edge $-1 $398 0 $398 6.2831853071796004 $176 $399 forward 7 unknown #
vertex $-1 $179 $400 #
ellipse-curve $-1 69.301562525495157 13.530983531886022 14.083202960003561 0.87461971476443456 0 0.48480960649040278 0.24240480324520139 0 -0.43730985738221728 1 I I #
face $-1 $-1 $195 $27 $-1 $401 reversed single #
loop $-1 $-1 $292 $180 #
plane-surface $-1 0 42.291396206850571 0 0 -1 0 0 0 -1 forward_v I I I I #
coedge $-1 $402 $290 $293 $403 forward $181 $-1 #
coedge $-1 $296 $183 $184 $284 reversed $113 $-1 #
coedge $-1 $290 $402 $183 $282 reversed $181 $-1 #
edge $-1 $297 -20.841745229902738 $404 20.841745229902738 $281 $405 forward 7 unknown #
coedge $-1 $185 $184 $402 $406 forward $73 $-1 #
edge $-1 $288 -73.047883541367838 $404 73.047883541367838 $280 $407 forward 7 unknown #
coedge $-1 $293 $292 $185 $286 reversed $277 $-1 #
edge $-1 $408 -73.047883541367838 $287 73.047883541367838 $285 $409 forward 7 unknown #
vertex $-1 $187 $410 #
vertex $-1 $299 $411 #
straight-curve $-1 73.047883541367838 0 -20.841745229902738 0 -1 0 I I #
coedge $-1 $279 $281 $188 $291 reversed $181 $-1 #
edge $-1 $294 -42.291396206850571 $297 42.291396206850571 $290 $412 forward 7 unknown #
coedge $-1 $285 $189 $194 $300 forward $277 $-1 #
coedge $-1 $189 $285 $279 $403 reversed $277 $-1 #
vertex $-1 $190 $413 #
straight-curve $-1 0 42.291396206850571 20.841745229902738 -1 0 0 I I #
coedge $-1 $191 $280 $193 $299 reversed $113 $-1 #
vertex $-1 $291 $414 #
straight-curve $-1 0 -42.291396206850571 20.841745229902738 1 0 0 I I #
edge $-1 $196 -20.841745229902738 $288 20.841745229902738 $193 $415 forward 7 unknown #
edge $-1 $197 -20.841745229902738 $287 20.841745229902738 $194 $416 forward 7 unknown #
point $-1 73.047883541367838 -42.291396206850571 20.841745229902738 #
point $-1 73.047883541367838 42.291396206850571 20.841745229902738 #
face $-1 $-1 $417 $28 $-1 $418 reversed single #
loop $-1 $-1 $419 $199 #
plane-surface $-1 0 0 -20.841745229902738 0 0 1 1 0 0 forward_v I I I I #
coedge $-1 $313 $323 $308 $420 forward $200 $-1 #
coedge $-1 $205 $202 $419 $421 reversed $121 $-1 #
coedge $-1 $202 $205 $306 $420 reversed $121 $-1 #
coedge $-1 $422 $423 $202 $310 forward $417 $-1 #
edge $-1 $424 -20.841745229902738 $425 20.841745229902738 $309 $426 forward 7 unknown #
coedge $-1 $419 $208 $203 $312 forward $304 $-1 #
edge $-1 $213 -29.006411200836411 $316 -23.992612532992808 $311 $427 forward 7 unknown #
coedge $-1 $210 $306 $204 $314 forward $200 $-1 #
edge $-1 $315 23.992612532992808 $212 29.006411200836411 $313 $428 forward 7 unknown #
vertex $-1 $314 $429 #
vertex $-1 $312 $430 #
straight-curve $-1 -50.492124399907418 -26.908703665477994 0 0 0 -1 I I #
coedge $-1 $423 $422 $207 $319 forward $417 $-1 #
edge $-1 $324 -20.841745229902738 $321 20.841745229902738 $318 $431 forward 7 unknown #
coedge $-1 $208 $419 $423 $432 forward $304 $-1 #
vertex $-1 $209 $433 #
straight-curve $-1 -55.50592306775102 -17.300024968082141 -20.841745229902738 0 1 0 I I #
coedge $-1 $306 $210 $422 $434 forward $200 $-1 #
vertex $-1 $434 $435 #
straight-curve $-1 -55.50592306775102 -17.300024968082141 20.841745229902738 0 -1 0 I I #
point $-1 -55.50592306775102 -26.908703665477994 20.841745229902738 #
point $-1 -55.50592306775102 -26.908703665477994 -20.841745229902738 #
face $-1 $-1 $343 $29 $-1 $436 reversed single #
loop $-1 $-1 $339 $215 #
plane-surface $-1 0 0 -20.841745229902738 0 0 1 1 0 0 forward_v I I I I #
coedge $-1 $437 $438 $334 $439 forward $216 $-1 #
coedge $-1 $225 $218 $438 $440 forward $129 $-1 #
edge $-1 $226 -9.3384274099509597 $441 9.3384274099509597 $220 $442 forward 7 unknown #
coedge $-1 $220 $219 $331 $439 reversed $81 $-1 #
coedge $-1 $339 $443 $219 $336 forward $329 $-1 #
edge $-1 $444 -60.968251026752498 $337 -42.291396206850571 $219 $445 forward 7 unknown #
vertex $-1 $221 $446 #
straight-curve $-1 73.047883541367838 42.291396206850571 0 0 0 -1 I I #
coedge $-1 $447 $335 $222 $340 forward $329 $-1 #
edge $-1 $337 -73.047883541367838 $344 73.047883541367838 $339 $448 forward 7 unknown #
coedge $-1 $449 $223 $225 $346 reversed $343 $-1 #
coedge $-1 $223 $449 $447 $450 reversed $343 $-1 #
loop $-1 $-1 $223 $328 #
vertex $-1 $450 $451 #
straight-curve $-1 -73.047883541367838 42.291396206850571 0 0 0 1 I I #
edge $-1 $452 -9.3384274099509597 $227 9.3384274099509597 $341 $453 forward 7 unknown #
point $-1 73.047883541367838 42.291396206850578 -10.357075897322073 #
point $-1 -73.047883541367838 42.291396206850578 -10.357075897322073 #
loop $-1 $-1 $237 $229 #
plane-surface $-1 73.047883541367838 0 0 -1 0 0 0 0 1 forward_v I I I I #
coedge $-1 $352 $232 $234 $356 reversed $137 $-1 #
coedge $-1 $232 $351 $454 $455 reversed $137 $-1 #
coedge $-1 $240 $235 $232 $354 forward $230 $-1 #
edge $-1 $357 0.55649634648909796 $456 8.0491383782344599 $353 $457 forward 7 unknown #
coedge $-1 $234 $233 $360 $458 reversed $85 $-1 #
edge $-1 $459 -146.09576708273568 $357 -130.64095362310658 $351 $460 forward 7 unknown #
vertex $-1 $236 $461 #
straight-curve $-1 65.555241509622476 -7.4793978810773591 20.841745229902742 0 -1 0 I I #
coedge $-1 $454 $237 $240 $364 reversed $349 $-1 #
coedge $-1 $237 $454 $355 $458 forward $349 $-1 #
vertex $-1 $238 $462 #
straight-curve $-1 73.047883541367838 -10.603978982879866 102.96576508679628 0 0 1 I I #
straight-curve $-1 2.2192521920732133 -10.603978982879866 135.10289882429794 0.48480960649040278 0 -0.87461971476443456 I I #
edge $-1 $456 -19.313612541429571 $241 -10.603978982879866 $359 $463 forward 7 unknown #
point $-1 73.047883541367838 -10.603978982879866 20.841745229902738 #
point $-1 65.555241509622476 -10.603978982879866 20.841745229902727 #
edge $-1 $464 1 $464 0 $244 $-1 forward 7 unknown #
vertex $-1 $245 $465 #
ellipse-curve $-1 68.120224003932492 -16.825145810415368 13.428376348960377 0.87461971476443456 0 0.48480960649040278 0.24240480324520139 0 -0.43730985738221728 1 I I #
point $-1 69.543967328740379 -16.825145810415368 13.645893102621352 #
edge $-1 $466 1 $466 0 $248 $-1 forward 7 unknown #
vertex $-1 $249 $467 #
ellipse-curve $-1 68.120224003932492 -13.092445713894065 13.428376348960377 0.87461971476443456 0 0.48480960649040278 0.24240480324520139 0 -0.43730985738221728 1 I I #
point $-1 69.543967328740379 -13.092445713894065 13.645893102621352 #
plane-surface $-1 0 0 20.841745229902738 0 0 1 1 0 0 forward_v I I I I #
coedge $-1 $386 $385 $378 $468 forward $253 $-1 #
coedge $-1 $378 $255 $257 $382 reversed $159 $-1 #
coedge $-1 $255 $377 $376 $468 reversed $159 $-1 #
coedge $-1 $263 $258 $255 $380 forward $264 $-1 #
edge $-1 $383 0.55649634648909796 $469 8.0491383782344599 $379 $470 forward 7 unknown #
coedge $-1 $257 $256 $386 $471 reversed $99 $-1 #
edge $-1 $472 -146.09576708273568 $383 -130.64095362310658 $377 $473 forward 7 unknown #
vertex $-1 $259 $474 #
straight-curve $-1 65.555241509622476 5.8323167418126864 20.841745229902742 0 -1 0 I I #
coedge $-1 $376 $260 $263 $390 reversed $253 $-1 #
coedge $-1 $260 $376 $381 $471 forward $253 $-1 #
vertex $-1 $261 $475 #
straight-curve $-1 73.047883541367838 16.019450262900225 102.96576508679628 0 0 1 I I #
straight-curve $-1 2.2192521920732133 16.019450262900225 135.10289882429794 0.48480960649040278 0 -0.87461971476443456 I I #
edge $-1 $469 7.3098167043505207 $265 16.019450262900225 $385 $476 forward 7 unknown #
point $-1 73.047883541367838 16.019450262900225 20.841745229902738 #
point $-1 65.555241509622476 16.019450262900225 20.841745229902727 #
edge $-1 $477 1 $477 0 $268 $-1 forward 7 unknown #
vertex $-1 $269 $478 #
ellipse-curve $-1 68.120224003932492 9.7982834353647164 13.428376348960377 0.87461971476443456 0 0.48480960649040278 0.24240480324520139 0 -0.43730985738221728 1 I I #
point $-1 69.543967328740379 9.7982834353647164 13.645893102621352 #
edge $-1 $479 1 $479 0 $272 $-1 forward 7 unknown #
vertex $-1 $273 $480 #
ellipse-curve $-1 68.120224003932492 13.530983531886022 13.428376348960377 0.87461971476443456 0 0.48480960649040278 0.24240480324520139 0 -0.43730985738221728 1 I I #
point $-1 69.543967328740379 13.530983531886022 13.645893102621352 #
plane-surface $-1 73.047883541367838 0 0 -1 0 0 0 0 1 forward_v I I I I #
coedge $-1 $281 $279 $283 $406 reversed $181 $-1 #
edge $-1 $294 -20.841745229902738 $408 20.841745229902738 $293 $481 forward 7 unknown #
vertex $-1 $406 $482 #
straight-curve $-1 -73.047883541367838 -42.291396206850571 0 0 0 -1 I I #
edge $-1 $404 -42.291396206850571 $408 42.291396206850571 $402 $483 forward 7 unknown #
straight-curve $-1 0 -42.291396206850571 -20.841745229902738 -1 0 0 I I #
vertex $-1 $286 $484 #
straight-curve $-1 0 42.291396206850571 -20.841745229902738 1 0 0 I I #
point $-1 73.047883541367838 42.291396206850571 -20.841745229902738 #
point $-1 73.047883541367838 -42.291396206850571 -20.841745229902738 #
straight-curve $-1 -73.047883541367838 0 20.841745229902738 0 -1 0 I I #
point $-1 -73.047883541367838 42.291396206850571 20.841745229902738 #
point $-1 -73.047883541367838 -42.291396206850571 20.841745229902738 #
straight-curve $-1 73.047883541367838 -42.291396206850571 0 0 0 -1 I I #
straight-curve $-1 73.047883541367838 42.291396206850571 0 0 0 -1 I I #
loop $-1 $-1 $309 $303 #
plane-surface $-1 0 -42.291396206850571 0 0 1 0 0 0 1 forward_v I I I I #
coedge $-1 $320 $311 $307 $421 forward $304 $-1 #
edge $-1 $425 -24.99137123876843 $315 -9.6086786973958525 $306 $485 forward 7 unknown #
edge $-1 $316 9.6086786973958525 $424 24.99137123876843 $419 $486 forward 7 unknown #
coedge $-1 $318 $309 $323 $434 reversed $417 $-1 #
coedge $-1 $309 $318 $320 $432 reversed $417 $-1 #
vertex $-1 $432 $487 #
vertex $-1 $310 $488 #
straight-curve $-1 -50.492124399907418 -42.291396206850571 0 0 0 1 I I #
straight-curve $-1 -26.499511866914609 -26.908703665477994 -20.841745229902738 1 0 0 I I #
straight-curve $-1 -26.499511866914609 -26.908703665477994 20.841745229902738 -1 0 0 I I #
point $-1 -50.492124399907418 -26.908703665477994 20.841745229902738 #
point $-1 -50.492124399907418 -26.908703665477994 -20.841745229902738 #
straight-curve $-1 -55.50592306775102 -42.291396206850571 0 0 0 -1 I I #
edge $-1 $424 50.492124399907418 $321 55.50592306775102 $423 $489 forward 7 unknown #
point $-1 -55.50592306775102 -42.291396206850571 -20.841745229902738 #
edge $-1 $324 -55.50592306775102 $425 -50.492124399907418 $422 $490 forward 7 unknown #
point $-1 -55.50592306775102 -42.291396206850571 20.841745229902738 #
plane-surface $-1 -73.047883541367838 0 0 1 0 0 0 0 -1 forward_v I I I I #
coedge $-1 $491 $331 $443 $492 reversed $216 $-1 #
coedge $-1 $331 $491 $332 $440 reversed $216 $-1 #
edge $-1 $441 -5.2423346662903327 $444 5.2423346662903327 $334 $493 forward 7 unknown #
edge $-1 $441 -73.047883541367838 $452 73.047883541367838 $438 $494 forward 7 unknown #
vertex $-1 $333 $495 #
straight-curve $-1 73.047883541367838 51.629823616801538 -10.357075897322073 0 1 0 I I #
coedge $-1 $335 $447 $437 $492 forward $329 $-1 #
vertex $-1 $336 $496 #
straight-curve $-1 73.047883541367838 0 -20.841745229902738 0 -1 0 I I #
point $-1 73.047883541367838 42.291396206850571 -20.841745229902738 #
coedge $-1 $443 $339 $342 $450 forward $329 $-1 #
straight-curve $-1 0 42.291396206850571 -20.841745229902738 -1 0 0 I I #
coedge $-1 $342 $341 $491 $497 forward $343 $-1 #
edge $-1 $344 -9.3384274099509668 $498 9.3384274099509597 $342 $499 forward 7 unknown #
point $-1 -73.047883541367838 42.291396206850571 -20.841745229902738 #
vertex $-1 $440 $500 #
straight-curve $-1 -73.047883541367838 51.629823616801538 -10.357075897322073 0 -1 0 I I #
coedge $-1 $360 $359 $352 $455 forward $349 $-1 #
edge $-1 $456 82.12401985689354 $459 95.641104396691887 $454 $501 forward 7 unknown #
vertex $-1 $364 $502 #
straight-curve $-1 64.998745163133378 -19.313612541429571 20.841745229902742 1 0 0 I I #
edge $-1 $459 -11.834214660352211 $361 -3.1245811018025069 $360 $503 forward 7 unknown #
vertex $-1 $458 $504 #
straight-curve $-1 2.2192521920732133 -19.313612541429571 135.10289882429794 -0.48480960649040278 0 0.87461971476443456 I I #
point $-1 65.555241509622476 -19.313612541429571 20.841745229902727 #
point $-1 73.047883541367838 -10.603978982879866 7.3246606901043947 #
straight-curve $-1 73.047883541367838 0 20.841745229902738 0 1 0 I I #
vertex $-1 $367 $505 #
point $-1 68.3626288071777 -16.825145810415368 12.99106649157816 #
vertex $-1 $371 $506 #
point $-1 68.3626288071777 -13.092445713894065 12.99106649157816 #
edge $-1 $469 82.12401985689354 $472 95.641104396691887 $376 $507 forward 7 unknown #
vertex $-1 $390 $508 #
straight-curve $-1 64.998745163133378 7.3098167043505207 20.841745229902742 1 0 0 I I #
edge $-1 $472 1.4774999625378342 $387 10.187133521087539 $386 $509 forward 7 unknown #
vertex $-1 $471 $510 #
straight-curve $-1 2.2192521920732133 7.3098167043505207 135.10289882429794 -0.48480960649040278 0 0.87461971476443456 I I #
point $-1 65.555241509622476 7.3098167043505207 20.841745229902727 #
point $-1 73.047883541367838 16.019450262900225 7.3246606901043947 #
straight-curve $-1 73.047883541367838 0 20.841745229902738 0 1 0 I I #
vertex $-1 $393 $511 #
point $-1 68.3626288071777 9.7982834353647164 12.99106649157816 #
vertex $-1 $397 $512 #
point $-1 68.3626288071777 13.530983531886022 12.99106649157816 #
straight-curve $-1 -73.047883541367838 42.291396206850571 0 0 0 -1 I I #
point $-1 -73.047883541367838 -42.291396206850571 -20.841745229902738 #
straight-curve $-1 -73.047883541367838 0 -20.841745229902738 0 1 0 I I #
point $-1 -73.047883541367838 42.291396206850571 -20.841745229902738 #
straight-curve $-1 -50.492124399907418 -17.300024968082141 20.841745229902738 0 1 0 I I #
straight-curve $-1 -50.492124399907418 -17.300024968082141 -20.841745229902738 0 -1 0 I I #
point $-1 -50.492124399907418 -42.291396206850571 -20.841745229902738 #
point $-1 -50.492124399907418 -42.291396206850571 20.841745229902738 #
straight-curve $-1 0 -42.291396206850571 -20.841745229902738 -1 0 0 I I #
straight-curve $-1 0 -42.291396206850571 20.841745229902738 1 0 0 I I #
coedge $-1 $438 $437 $449 $497 reversed $216 $-1 #
edge $-1 $498 -73.047883541367838 $444 73.047883541367838 $437 $513 forward 7 unknown #
straight-curve $-1 73.047883541367838 60.968251026752498 -15.599410563612405 0 0 -1 I I #
straight-curve $-1 0 60.968251026752498 -10.357075897322073 -1 0 0 I I #
point $-1 73.047883541367838 60.968251026752498 -10.357075897322073 #
point $-1 73.047883541367838 60.968251026752498 -20.841745229902738 #
edge $-1 $452 -5.2423346662903327 $498 5.2423346662903327 $491 $514 forward 7 unknown #
vertex $-1 $492 $515 #
straight-curve $-1 -73.047883541367838 51.629823616801538 -20.841745229902738 0 1 0 I I #
point $-1 -73.047883541367838 60.968251026752498 -10.357075897322073 #
straight-curve $-1 73.047883541367838 -19.313612541429571 102.96576508679628 0 0 -1 I I #
point $-1 73.047883541367838 -19.313612541429571 20.841745229902738 #
straight-curve $-1 73.047883541367838 -7.4793978810773591 7.3246606901044089 0 1 0 I I #
point $-1 73.047883541367838 -19.313612541429571 7.3246606901043947 #
point $-1 67.682914146550274 -16.825145810415368 13.185971545715176 #
point $-1 67.682914146550274 -13.092445713894065 13.185971545715176 #
straight-curve $-1 73.047883541367838 7.3098167043505207 102.96576508679628 0 0 -1 I I #
point $-1 73.047883541367838 7.3098167043505207 20.841745229902738 #
straight-curve $-1 73.047883541367838 5.8323167418126864 7.3246606901044089 0 1 0 I I #
point $-1 73.047883541367838 7.3098167043505207 7.3246606901043947 #
point $-1 67.682914146550274 9.7982834353647164 13.185971545715176 #
point $-1 67.682914146550274 13.530983531886022 13.185971545715176 #
straight-curve $-1 0 60.968251026752498 -20.841745229902738 1 0 0 I I #
straight-curve $-1 -73.047883541367838 60.968251026752498 -15.599410563612405 0 0 -1 I I #
point $-1 -73.047883541367838 60.968251026752498 -20.841745229902738 #
End-of-ACIS-data 