500 0 9 0           
7 Unknown 11 ACIS 5.0 NT 24 Thu Mar 25 20:48:04 1999 
-1 9.9999999999999995e-007 1e-010 
body $-1 $9 $-1 $10 #
body $-1 $11 $-1 $12 #
body $-1 $13 $-1 $14 #
body $-1 $15 $-1 $16 #
body $-1 $17 $-1 $18 #
body $-1 $19 $-1 $20 #
body $-1 $21 $-1 $22 #
body $-1 $23 $-1 $24 #
body $-1 $25 $-1 $26 #
lump $-1 $-1 $27 $0 #
transform $-1 1 0 0 0 1 0 0 0 1 60.186162907803578 38.239437577819132 14.47069851000829 1 rotate no_reflect no_shear #
lump $-1 $-1 $28 $1 #
transform $-1 1 0 0 0 1 0 0 0 1 60.186162907803578 38.239437577819132 14.47069851000829 1 rotate no_reflect no_shear #
lump $-1 $-1 $29 $2 #
transform $-1 1 0 0 0 1 0 0 0 1 60.186162907803578 38.239437577819132 14.47069851000829 1 rotate no_reflect no_shear #
lump $-1 $-1 $30 $3 #
transform $-1 1 0 0 0 1 0 0 0 1 60.186162907803578 38.239437577819132 14.47069851000829 1 rotate no_reflect no_shear #
lump $-1 $-1 $31 $4 #
transform $-1 1 0 0 0 1 0 0 0 1 60.186162907803578 38.239437577819132 14.47069851000829 1 rotate no_reflect no_shear #
lump $-1 $-1 $32 $5 #
transform $-1 1 0 0 0 1 0 0 0 1 60.186162907803578 38.239437577819132 14.47069851000829 1 rotate no_reflect no_shear #
lump $-1 $-1 $33 $6 #
transform $-1 1 0 0 0 1 0 0 0 1 60.186162907803578 38.239437577819132 14.47069851000829 1 rotate no_reflect no_shear #
lump $-1 $-1 $34 $7 #
transform $-1 1 0 0 0 1 0 0 0 1 60.186162907803578 38.239437577819132 14.47069851000829 1 rotate no_reflect no_shear #
lump $-1 $-1 $35 $8 #
transform $-1 1 0 0 0 1 0 0 0 1 60.186162907803578 38.239437577819132 14.47069851000829 1 rotate no_reflect no_shear #
shell $-1 $-1 $-1 $36 $-1 $9 #
shell $-1 $-1 $-1 $37 $-1 $11 #
shell $-1 $-1 $-1 $38 $-1 $13 #
shell $-1 $-1 $-1 $39 $-1 $15 #
shell $-1 $-1 $-1 $40 $-1 $17 #
shell $-1 $-1 $-1 $41 $-1 $19 #
shell $-1 $-1 $-1 $42 $-1 $21 #
shell $-1 $-1 $-1 $43 $-1 $23 #
shell $-1 $-1 $-1 $44 $-1 $25 #
face $-1 $45 $46 $27 $-1 $47 forward single #
face $-1 $48 $49 $28 $-1 $50 reversed single #
face $-1 $51 $52 $29 $-1 $53 forward single #
face $-1 $54 $55 $30 $-1 $56 reversed single #
face $-1 $57 $58 $31 $-1 $59 forward single #
face $-1 $60 $61 $32 $-1 $62 forward single #
face $-1 $63 $64 $33 $-1 $65 reversed single #
face $-1 $66 $67 $34 $-1 $68 forward single #
face $-1 $69 $70 $35 $-1 $71 forward single #
face $-1 $72 $73 $27 $-1 $74 reversed single #
loop $-1 $-1 $75 $36 #
plane-surface $-1 0 0 14.47069851000829 0 0 1 1 0 0 forward_v I I I I #
face $-1 $76 $77 $28 $-1 $78 reversed single #
loop $-1 $-1 $79 $37 #
plane-surface $-1 0 -28.78000727803844 9.5049882470536335 0 0 1 1 0 0 forward_v I I I I #
face $-1 $80 $81 $29 $-1 $82 reversed single #
loop $-1 $-1 $83 $38 #
plane-surface $-1 0 29.282504900421571 0.1005258241267164 0 0 1 1 0 0 forward_v I I I I #
face $-1 $84 $85 $30 $-1 $86 reversed single #
loop $-1 $-1 $87 $39 #
plane-surface $-1 -122.1824946930177 20.325572223023997 112.32441376262008 0 -1 0 0.51503808176128008 0 -0.85716729658548041 forward_v I I I I #
face $-1 $88 $89 $31 $-1 $90 forward single #
loop $-1 $91 $92 $40 #
cone-surface $-1 -55.438776173886971 14.992364240876995 11.282329928830261 0.51503808176128008 0 -0.85716729658548041 0.4285836482927402 0 0.25751904088064004 1 I I 0 1 0.5 forward I I I I #
face $-1 $93 $94 $32 $-1 $95 forward single #
loop $-1 $96 $97 $41 #
cone-surface $-1 -55.438776173886971 18.192289030165199 11.282329928830261 0.51503808176128008 0 -0.85716729658548041 0.4285836482927402 0 0.25751904088064004 1 I I 0 1 0.5 forward I I I I #
face $-1 $98 $99 $33 $-1 $100 reversed single #
loop $-1 $-1 $101 $42 #
plane-surface $-1 57.21520371967658 -9.6789014809969345 173.32991085836733 0 -1 0 -0.69465837861970381 0 -0.71933979245794832 forward_v I I I I #
face $-1 $102 $103 $34 $-1 $104 forward single #
loop $-1 $105 $106 $43 #
cone-surface $-1 53.144123056771974 -16.565812550468944 7.5887786869463429 -0.69465837861970381 0 -0.71933979245794832 0.71933979245794832 0 -0.69465837861970381 1 I I 0 1 1 forward I I I I #
face $-1 $107 $108 $35 $-1 $109 forward single #
loop $-1 $110 $111 $44 #
cone-surface $-1 53.144123056771974 -12.433665908785741 7.5887786869463429 -0.69465837861970381 0 -0.71933979245794832 0.71933979245794832 0 -0.69465837861970381 1 I I 0 1 1 forward I I I I #
face $-1 $112 $113 $27 $-1 $114 reversed single #
loop $-1 $-1 $115 $45 #
plane-surface $-1 0 0 -14.47069851000829 0 0 1 1 0 0 forward_v I I I I #
coedge $-1 $116 $117 $118 $119 forward $46 $-1 #
face $-1 $120 $121 $28 $-1 $122 reversed single #
loop $-1 $-1 $123 $48 #
plane-surface $-1 0 -19.320576978257748 11.987843378530961 0 -1 0 0 0 -1 forward_v I I I I #
coedge $-1 $124 $125 $126 $127 reversed $49 $-1 #
face $-1 $128 $129 $29 $-1 $130 reversed single #
loop $-1 $-1 $131 $51 #
plane-surface $-1 0 29.282504900421571 -4.7074362925901099 0 0 1 1 0 0 forward_v I I I I #
coedge $-1 $132 $133 $134 $135 reversed $52 $-1 #
face $-1 $136 $137 $30 $-1 $138 reversed single #
loop $-1 $-1 $139 $54 #
plane-surface $-1 -60.18616290780357 16.592326635521097 9.1451926595494513 -0.51503808176128008 0 0.85716729658548041 0.85716729658548041 0 0.51503808176128008 forward_v I I I I #
coedge $-1 $140 $141 $142 $143 reversed $55 $-1 #
face $-1 $-1 $144 $31 $-1 $145 forward single #
loop $-1 $146 $147 $57 #
cone-surface $-1 -54.994194899324853 14.992364240876995 10.542422448735287 0.51503808176128008 0 -0.85716729658548041 0.2142918241463701 0 0.12875952044032002 1 I I -0.70710678118654746 0.70710678118654746 0.25 forward I I I I #
loop $-1 $-1 $148 $40 #
coedge $-1 $92 $92 $149 $150 reversed $58 $-1 #
face $-1 $-1 $151 $32 $-1 $152 forward single #
loop $-1 $153 $154 $60 #
cone-surface $-1 -54.994194899324853 18.192289030165199 10.542422448735287 0.51503808176128008 0 -0.85716729658548041 0.2142918241463701 0 0.12875952044032002 1 I I -0.70710678118654746 0.70710678118654746 0.25 forward I I I I #
loop $-1 $-1 $155 $41 #
coedge $-1 $97 $97 $156 $157 reversed $61 $-1 #
face $-1 $158 $159 $33 $-1 $160 forward single #
loop $-1 $-1 $161 $63 #
plane-surface $-1 -26.402440962075801 -14.499739229627341 86.741306988487935 0.69465837861970381 0 0.71933979245794832 0.71933979245794832 0 -0.69465837861970381 forward_v I I I I #
coedge $-1 $162 $163 $164 $165 reversed $64 $-1 #
face $-1 $-1 $166 $34 $-1 $167 forward single #
loop $-1 $168 $169 $66 #
cone-surface $-1 51.629853863130563 -16.565812550468944 6.0207070692918023 -0.69465837861970381 0 -0.71933979245794832 0.35966989622897416 0 -0.3473291893098519 1 I I -0.70710678118654746 0.70710678118654746 0.5 forward I I I I #
loop $-1 $-1 $170 $43 #
coedge $-1 $106 $106 $171 $172 reversed $67 $-1 #
face $-1 $-1 $173 $35 $-1 $174 forward single #
loop $-1 $175 $176 $69 #
cone-surface $-1 51.629853863130563 -12.433665908785741 6.0207070692918023 -0.69465837861970381 0 -0.71933979245794832 0.35966989622897416 0 -0.3473291893098519 1 I I -0.70710678118654746 0.70710678118654746 0.5 forward I I I I #
loop $-1 $-1 $177 $44 #
coedge $-1 $111 $111 $178 $179 reversed $70 $-1 #
face $-1 $180 $181 $27 $-1 $182 reversed single #
loop $-1 $-1 $183 $72 #
plane-surface $-1 0 -38.239437577819132 0 0 1 0 0 0 1 forward_v I I I I #
coedge $-1 $184 $185 $186 $187 forward $73 $-1 #
coedge $-1 $188 $75 $189 $190 forward $46 $-1 #
coedge $-1 $75 $188 $191 $192 forward $46 $-1 #
coedge $-1 $193 $194 $75 $119 reversed $195 $-1 #
edge $-1 $196 -38.239437577819132 $197 38.239437577819132 $118 $198 forward 7 unknown #
face $-1 $199 $200 $28 $-1 $201 reversed single #
loop $-1 $-1 $202 $76 #
plane-surface $-1 -60.186162907803578 0 0 1 0 0 0 0 -1 forward_v I I I I #
coedge $-1 $203 $204 $125 $205 reversed $77 $-1 #
coedge $-1 $206 $79 $207 $208 reversed $49 $-1 #
coedge $-1 $79 $206 $123 $205 forward $49 $-1 #
coedge $-1 $209 $210 $79 $127 forward $211 $-1 #
edge $-1 $212 -23.849433938799912 $213 -4.9305733392385278 $126 $214 forward 7 unknown #
face $-1 $215 $216 $29 $-1 $217 reversed single #
loop $-1 $-1 $218 $80 #
plane-surface $-1 0 20.325572223024004 -2.3034552342316967 0 1 0 0 0 1 forward_v I I I I #
coedge $-1 $219 $220 $221 $222 reversed $81 $-1 #
coedge $-1 $223 $83 $224 $225 reversed $52 $-1 #
coedge $-1 $83 $223 $226 $227 forward $52 $-1 #
coedge $-1 $228 $229 $83 $135 forward $216 $-1 #
edge $-1 $230 -23.598185127608353 $231 -5.6843197728132182 $134 $232 forward 7 unknown #
face $-1 $233 $234 $30 $-1 $235 reversed single #
loop $-1 $-1 $236 $84 #
plane-surface $-1 -122.1824946930177 12.859081048018197 112.32441376262008 0 1 0 -0.51503808176128008 0 0.85716729658548041 forward_v I I I I #
coedge $-1 $237 $238 $239 $240 reversed $85 $-1 #
coedge $-1 $141 $87 $241 $242 reversed $55 $-1 #
coedge $-1 $87 $140 $237 $243 reversed $55 $-1 #
coedge $-1 $239 $244 $87 $143 forward $234 $-1 #
edge $-1 $245 41.691508371301751 $246 47.01701422176059 $142 $247 forward 7 unknown #
loop $-1 $-1 $149 $88 #
plane-surface $-1 -60.18616290780357 16.592326635521097 9.1451926595494513 -0.51503808176128008 0 0.85716729658548041 0.85716729658548041 0 0.51503808176128008 forward_v I I I I #
loop $-1 $-1 $248 $57 #
coedge $-1 $147 $147 $148 $249 reversed $89 $-1 #
coedge $-1 $148 $148 $147 $249 forward $91 $-1 #
coedge $-1 $149 $149 $92 $150 forward $144 $-1 #
edge $-1 $250 0 $250 6.2831853071796004 $149 $251 forward 7 unknown #
loop $-1 $-1 $156 $93 #
plane-surface $-1 -60.18616290780357 16.592326635521097 9.1451926595494513 -0.51503808176128008 0 0.85716729658548041 0.85716729658548041 0 0.51503808176128008 forward_v I I I I #
loop $-1 $-1 $252 $60 #
coedge $-1 $154 $154 $155 $253 reversed $94 $-1 #
coedge $-1 $155 $155 $154 $253 forward $96 $-1 #
coedge $-1 $156 $156 $97 $157 forward $151 $-1 #
edge $-1 $254 0 $254 6.2831853071796004 $156 $255 forward 7 unknown #
face $-1 $256 $257 $33 $-1 $258 forward single #
loop $-1 $-1 $164 $98 #
plane-surface $-1 0 0 14.47069851000829 0 0 1 1 0 0 forward_v I I I I #
coedge $-1 $259 $260 $261 $262 reversed $99 $-1 #
coedge $-1 $163 $101 $263 $264 reversed $64 $-1 #
coedge $-1 $101 $162 $259 $265 reversed $64 $-1 #
coedge $-1 $261 $266 $101 $165 forward $159 $-1 #
edge $-1 $267 -31.578561047965287 $268 -19.828361354565224 $164 $269 forward 7 unknown #
loop $-1 $-1 $171 $102 #
plane-surface $-1 -26.402440962075801 -14.499739229627341 86.741306988487935 0.69465837861970381 0 0.71933979245794832 0.71933979245794832 0 -0.69465837861970381 forward_v I I I I #
loop $-1 $-1 $270 $66 #
coedge $-1 $169 $169 $170 $271 reversed $103 $-1 #
coedge $-1 $170 $170 $169 $271 forward $105 $-1 #
coedge $-1 $171 $171 $106 $172 forward $166 $-1 #
edge $-1 $272 0 $272 6.2831853071796004 $171 $273 forward 7 unknown #
loop $-1 $-1 $178 $107 #
plane-surface $-1 -26.402440962075801 -14.499739229627341 86.741306988487935 0.69465837861970381 0 0.71933979245794832 0.71933979245794832 0 -0.69465837861970381 forward_v I I I I #
loop $-1 $-1 $274 $69 #
coedge $-1 $176 $176 $177 $275 reversed $108 $-1 #
coedge $-1 $177 $177 $176 $275 forward $110 $-1 #
coedge $-1 $178 $178 $111 $179 forward $173 $-1 #
edge $-1 $276 0 $276 6.2831853071796004 $178 $277 forward 7 unknown #
face $-1 $278 $279 $27 $-1 $280 reversed single #
loop $-1 $-1 $281 $112 #
plane-surface $-1 -60.186162907803578 0 0 1 0 0 0 0 -1 forward_v I I I I #
coedge $-1 $282 $191 $283 $284 forward $113 $-1 #
coedge $-1 $285 $115 $282 $286 forward $73 $-1 #
coedge $-1 $115 $285 $287 $288 forward $73 $-1 #
coedge $-1 $194 $193 $115 $187 reversed $195 $-1 #
edge $-1 $289 -38.239437577819132 $290 38.239437577819132 $186 $291 forward 7 unknown #
coedge $-1 $117 $116 $292 $293 forward $46 $-1 #
coedge $-1 $294 $295 $116 $190 reversed $279 $-1 #
edge $-1 $197 -60.186162907803578 $296 60.186162907803578 $189 $297 forward 7 unknown #
coedge $-1 $183 $298 $117 $192 reversed $113 $-1 #
edge $-1 $299 -60.186162907803578 $196 60.186162907803578 $191 $300 forward 7 unknown #
coedge $-1 $186 $118 $298 $301 forward $195 $-1 #
coedge $-1 $118 $186 $294 $302 reversed $195 $-1 #
loop $-1 $-1 $193 $278 #
vertex $-1 $119 $303 #
vertex $-1 $119 $304 #
straight-curve $-1 60.186162907803578 0 14.47069851000829 0 1 0 I I #
face $-1 $305 $306 $28 $-1 $307 forward single #
loop $-1 $-1 $207 $120 #
plane-surface $-1 0 -38.239437577819132 0 0 1 0 0 0 1 forward_v I I I I #
coedge $-1 $308 $309 $203 $310 forward $121 $-1 #
coedge $-1 $311 $123 $202 $310 reversed $77 $-1 #
coedge $-1 $123 $311 $209 $312 reversed $77 $-1 #
edge $-1 $313 -60.186162907803578 $213 60.186162907803578 $123 $314 forward 7 unknown #
coedge $-1 $125 $124 $308 $315 reversed $49 $-1 #
coedge $-1 $316 $317 $124 $208 forward $200 $-1 #
edge $-1 $318 -60.186162907803578 $212 60.186162907803578 $207 $319 forward 7 unknown #
coedge $-1 $320 $126 $204 $312 forward $211 $-1 #
coedge $-1 $126 $320 $316 $321 forward $211 $-1 #
loop $-1 $-1 $209 $305 #
vertex $-1 $208 $322 #
vertex $-1 $127 $323 #
straight-curve $-1 60.186162907803578 -14.39000363901922 9.5049882470536335 0 1 0 I I #
face $-1 $324 $325 $29 $-1 $326 reversed single #
loop $-1 $-1 $134 $128 #
plane-surface $-1 60.186162907803578 0 0 -1 0 0 0 0 1 forward_v I I I I #
coedge $-1 $327 $226 $328 $329 reversed $129 $-1 #
coedge $-1 $330 $131 $327 $331 forward $81 $-1 #
coedge $-1 $131 $330 $332 $333 reversed $81 $-1 #
coedge $-1 $229 $228 $131 $222 forward $216 $-1 #
edge $-1 $334 5.6843197728132182 $335 23.598185127608353 $221 $336 forward 7 unknown #
coedge $-1 $133 $132 $337 $338 reversed $52 $-1 #
coedge $-1 $339 $340 $132 $225 forward $341 $-1 #
edge $-1 $342 -60.186162907803578 $230 60.186162907803578 $224 $343 forward 7 unknown #
coedge $-1 $218 $344 $133 $227 reversed $129 $-1 #
edge $-1 $345 -60.186162907803578 $231 60.186162907803578 $226 $346 forward 7 unknown #
coedge $-1 $221 $134 $344 $347 forward $216 $-1 #
coedge $-1 $134 $221 $339 $348 reversed $216 $-1 #
vertex $-1 $348 $349 #
vertex $-1 $135 $350 #
straight-curve $-1 60.186162907803578 14.641252450210786 0.1005258241267164 0 -1 0 I I #
face $-1 $-1 $351 $30 $-1 $352 forward single #
loop $-1 $-1 $142 $136 #
plane-surface $-1 -60.186162907803578 0 0 1 0 0 0 0 -1 forward_v I I I I #
coedge $-1 $353 $354 $355 $356 reversed $137 $-1 #
coedge $-1 $357 $139 $141 $243 forward $85 $-1 #
coedge $-1 $139 $357 $353 $358 forward $85 $-1 #
coedge $-1 $355 $142 $139 $240 forward $234 $-1 #
edge $-1 $246 -12.029408905263448 $359 -4.5629177302576487 $239 $360 forward 7 unknown #
coedge $-1 $361 $362 $140 $242 forward $351 $-1 #
edge $-1 $363 -9.7682143982948872 $245 -0.90508443870527344 $241 $364 forward 7 unknown #
edge $-1 $246 -7.9203227973758348e-015 $363 10.340023464375996 $141 $365 forward 7 unknown #
coedge $-1 $142 $355 $361 $366 reversed $234 $-1 #
vertex $-1 $366 $367 #
vertex $-1 $143 $368 #
straight-curve $-1 -60.186162907803578 20.325572223023997 56.162206881310041 0 0 -1 I I #
coedge $-1 $248 $248 $-1 $369 reversed $146 $-1 #
edge $-1 $370 0 $370 6.2831853071796004 $147 $371 forward 7 unknown #
vertex $-1 $150 $372 #
ellipse-curve $-1 -55.754597928008771 14.992364240876995 11.807945584778869 -0.51503808176128008 0 0.85716729658548041 0.4285836482927402 0 0.25751904088064004 1 I I #
coedge $-1 $252 $252 $-1 $373 reversed $153 $-1 #
edge $-1 $374 0 $374 6.2831853071796004 $154 $375 forward 7 unknown #
vertex $-1 $157 $376 #
ellipse-curve $-1 -55.754597928008771 18.192289030165199 11.807945584778869 -0.51503808176128008 0 0.85716729658548041 0.4285836482927402 0 0.25751904088064004 1 I I #
face $-1 $-1 $377 $33 $-1 $378 reversed single #
loop $-1 $-1 $379 $158 #
plane-surface $-1 0 -19.320576978257748 11.987843378530961 0 -1 0 0 0 -1 forward_v I I I I #
coedge $-1 $380 $161 $163 $265 forward $99 $-1 #
coedge $-1 $161 $380 $379 $381 forward $99 $-1 #
coedge $-1 $382 $164 $161 $262 forward $159 $-1 #
edge $-1 $268 2.4290318661832639 $383 12.070707363444077 $261 $384 forward 7 unknown #
coedge $-1 $385 $386 $162 $264 forward $377 $-1 #
edge $-1 $387 -83.541293122448096 $267 -72.194256919175373 $263 $388 forward 7 unknown #
edge $-1 $268 104.03762583571277 $387 120.37232581560713 $163 $389 forward 7 unknown #
coedge $-1 $164 $382 $385 $390 forward $159 $-1 #
vertex $-1 $165 $391 #
vertex $-1 $165 $392 #
straight-curve $-1 28.60760185983829 -9.6789014809969345 14.47069851000829 -1 0 0 I I #
coedge $-1 $270 $270 $-1 $393 reversed $168 $-1 #
edge $-1 $394 0 $394 6.2831853071796004 $169 $395 forward 7 unknown #
vertex $-1 $172 $396 #
ellipse-curve $-1 54.311063061103546 -16.565812550468944 8.7971804083719221 0.69465837861970381 0 0.71933979245794832 0.71933979245794832 0 -0.69465837861970381 1 I I #
coedge $-1 $274 $274 $-1 $397 reversed $175 $-1 #
edge $-1 $398 0 $398 6.2831853071796004 $176 $399 forward 7 unknown #
vertex $-1 $179 $400 #
ellipse-curve $-1 54.311063061103546 -12.433665908785741 8.7971804083719221 0.69465837861970381 0 0.71933979245794832 0.71933979245794832 0 -0.69465837861970381 1 I I #
face $-1 $-1 $195 $27 $-1 $401 reversed single #
loop $-1 $-1 $294 $180 #
plane-surface $-1 0 38.239437577819132 0 0 -1 0 0 0 -1 forward_v I I I I #
coedge $-1 $402 $292 $295 $403 forward $181 $-1 #
coedge $-1 $298 $183 $184 $286 reversed $113 $-1 #
coedge $-1 $292 $402 $183 $284 reversed $181 $-1 #
edge $-1 $299 -14.47069851000829 $404 14.47069851000829 $283 $405 forward 7 unknown #
coedge $-1 $185 $184 $402 $406 forward $73 $-1 #
edge $-1 $290 -60.186162907803578 $404 60.186162907803578 $282 $407 forward 7 unknown #
coedge $-1 $295 $294 $185 $288 reversed $279 $-1 #
edge $-1 $408 -60.186162907803578 $289 60.186162907803578 $287 $409 forward 7 unknown #
vertex $-1 $187 $410 #
vertex $-1 $301 $411 #
straight-curve $-1 60.186162907803578 0 -14.47069851000829 0 -1 0 I I #
coedge $-1 $281 $283 $188 $293 reversed $181 $-1 #
edge $-1 $296 -38.239437577819132 $299 38.239437577819132 $292 $412 forward 7 unknown #
coedge $-1 $287 $189 $194 $302 forward $279 $-1 #
coedge $-1 $189 $287 $281 $403 reversed $279 $-1 #
vertex $-1 $190 $413 #
straight-curve $-1 0 38.239437577819132 14.47069851000829 -1 0 0 I I #
coedge $-1 $191 $282 $193 $301 reversed $113 $-1 #
vertex $-1 $293 $414 #
straight-curve $-1 0 -38.239437577819132 14.47069851000829 1 0 0 I I #
edge $-1 $196 -14.47069851000829 $290 14.47069851000829 $193 $415 forward 7 unknown #
edge $-1 $197 -14.47069851000829 $289 14.47069851000829 $194 $416 forward 7 unknown #
point $-1 60.186162907803578 -38.239437577819132 14.47069851000829 #
point $-1 60.186162907803578 38.239437577819132 14.47069851000829 #
face $-1 $-1 $211 $28 $-1 $417 reversed single #
loop $-1 $-1 $418 $199 #
plane-surface $-1 0 0 14.47069851000829 0 0 1 1 0 0 forward_v I I I I #
coedge $-1 $419 $202 $206 $315 forward $121 $-1 #
coedge $-1 $202 $419 $420 $421 reversed $121 $-1 #
edge $-1 $422 -8.476776820742808 $313 -3.511066557788153 $202 $423 forward 7 unknown #
coedge $-1 $204 $203 $418 $424 reversed $77 $-1 #
edge $-1 $213 3.511066557788153 $425 8.476776820742808 $209 $426 forward 7 unknown #
vertex $-1 $315 $427 #
straight-curve $-1 0 -19.320576978257748 9.5049882470536335 1 0 0 I I #
edge $-1 $313 4.9305733392385278 $318 23.849433938799912 $308 $428 forward 7 unknown #
coedge $-1 $429 $207 $210 $321 reversed $200 $-1 #
coedge $-1 $207 $429 $419 $430 forward $200 $-1 #
vertex $-1 $208 $431 #
straight-curve $-1 0 -38.239437577819132 9.5049882470536335 1 0 0 I I #
coedge $-1 $210 $209 $432 $433 reversed $211 $-1 #
edge $-1 $434 -14.47069851000829 $212 -9.5049882470536335 $210 $435 forward 7 unknown #
point $-1 60.186162907803578 -38.239437577819132 9.5049882470536335 #
point $-1 60.186162907803578 -19.320576978257748 9.5049882470536335 #
face $-1 $-1 $341 $29 $-1 $436 reversed single #
loop $-1 $-1 $337 $215 #
plane-surface $-1 -60.186162907803578 0 0 1 0 0 0 0 -1 forward_v I I I I #
coedge $-1 $344 $218 $219 $331 reversed $129 $-1 #
coedge $-1 $337 $437 $218 $329 forward $325 $-1 #
edge $-1 $438 -3.5557086754742615 $345 1.2522534412425648 $328 $439 forward 7 unknown #
coedge $-1 $220 $219 $437 $440 reversed $81 $-1 #
edge $-1 $334 -60.186162907803578 $438 60.186162907803578 $327 $441 forward 7 unknown #
coedge $-1 $340 $339 $220 $333 forward $341 $-1 #
edge $-1 $335 -60.186162907803578 $442 60.186162907803578 $332 $443 forward 7 unknown #
vertex $-1 $222 $444 #
vertex $-1 $333 $445 #
straight-curve $-1 60.186162907803578 14.641252450210786 -4.7074362925901099 0 1 0 I I #
coedge $-1 $446 $328 $223 $338 forward $325 $-1 #
edge $-1 $345 5.6843197728132182 $342 23.598185127608353 $337 $447 forward 7 unknown #
coedge $-1 $332 $224 $229 $348 forward $341 $-1 #
coedge $-1 $224 $332 $446 $448 reversed $341 $-1 #
loop $-1 $-1 $224 $324 #
vertex $-1 $448 $449 #
straight-curve $-1 0 38.239437577819132 0.1005258241267164 1 0 0 I I #
coedge $-1 $226 $327 $228 $347 reversed $129 $-1 #
vertex $-1 $338 $450 #
straight-curve $-1 0 20.325572223024004 0.1005258241267164 1 0 0 I I #
edge $-1 $231 -1.2522534412425648 $334 3.5557086754742615 $228 $451 forward 7 unknown #
edge $-1 $230 -0.1005258241267164 $335 4.7074362925901099 $229 $452 forward 7 unknown #
point $-1 60.186162907803578 38.239437577819139 0.1005258241267164 #
point $-1 60.186162907803578 20.325572223024004 0.1005258241267164 #
loop $-1 $-1 $241 $233 #
plane-surface $-1 0 0 14.47069851000829 0 0 1 1 0 0 forward_v I I I I #
coedge $-1 $354 $236 $238 $358 reversed $137 $-1 #
coedge $-1 $236 $353 $453 $454 reversed $137 $-1 #
coedge $-1 $244 $239 $236 $356 forward $234 $-1 #
edge $-1 $359 -47.01701422176059 $455 -41.691508371301751 $355 $456 forward 7 unknown #
coedge $-1 $238 $237 $362 $457 reversed $85 $-1 #
edge $-1 $458 -10.340023464375996 $359 7.9203227973758348e-015 $353 $459 forward 7 unknown #
vertex $-1 $240 $460 #
straight-curve $-1 -60.186162907803578 8.2961633177605485 9.1451926595494495 0 -1 0 I I #
coedge $-1 $453 $241 $244 $366 forward $351 $-1 #
coedge $-1 $241 $453 $357 $457 forward $351 $-1 #
vertex $-1 $242 $461 #
straight-curve $-1 -61.091247346508851 20.325572223023997 14.47069851000829 -1 0 0 I I #
straight-curve $-1 -60.18616290780357 20.325572223023997 9.1451926595494513 0.85716729658548041 0 0.51503808176128008 I I #
edge $-1 $245 -20.325572223023997 $455 -12.859081048018197 $244 $462 forward 7 unknown #
point $-1 -60.186162907803578 20.325572223023997 14.47069851000829 #
point $-1 -60.186162907803578 20.325572223023997 9.1451926595494477 #
edge $-1 $463 1 $463 0 $248 $-1 forward 7 unknown #
vertex $-1 $249 $464 #
ellipse-curve $-1 -55.122954419765172 14.992364240876995 10.756714272881657 -0.51503808176128008 0 0.85716729658548041 0.4285836482927402 0 0.25751904088064004 1 I I #
point $-1 -55.326014279716027 14.992364240876995 12.065464625659507 #
edge $-1 $465 1 $465 0 $252 $-1 forward 7 unknown #
vertex $-1 $253 $466 #
ellipse-curve $-1 -55.122954419765172 18.192289030165199 10.756714272881657 -0.51503808176128008 0 0.85716729658548041 0.4285836482927402 0 0.25751904088064004 1 I I #
point $-1 -55.326014279716027 18.192289030165199 12.065464625659507 #
loop $-1 $-1 $263 $256 #
plane-surface $-1 60.186162907803578 0 0 -1 0 0 0 0 1 forward_v I I I I #
coedge $-1 $467 $468 $260 $381 reversed $257 $-1 #
coedge $-1 $260 $259 $386 $469 reversed $99 $-1 #
edge $-1 $470 -120.37232581560713 $383 -104.03762583571277 $379 $471 forward 7 unknown #
coedge $-1 $266 $261 $468 $472 forward $159 $-1 #
vertex $-1 $472 $473 #
straight-curve $-1 48.4359632144035 -7.2498696148136705 14.47069851000829 0 -1 0 I I #
coedge $-1 $474 $263 $266 $390 reversed $377 $-1 #
coedge $-1 $263 $474 $380 $469 forward $377 $-1 #
vertex $-1 $264 $475 #
straight-curve $-1 60.186162907803578 -9.6789014809969345 86.664955429183664 0 0 1 I I #
straight-curve $-1 -26.402440962075801 -9.6789014809969345 86.741306988487935 0.71933979245794832 0 -0.69465837861970381 I I #
edge $-1 $476 -19.320576978257748 $267 -9.6789014809969345 $385 $477 forward 7 unknown #
point $-1 60.186162907803578 -9.6789014809969345 14.47069851000829 #
point $-1 48.435963214403515 -9.6789014809969345 14.47069851000829 #
edge $-1 $478 1 $478 0 $270 $-1 forward 7 unknown #
vertex $-1 $271 $479 #
ellipse-curve $-1 51.977183052440417 -16.565812550468944 6.3803769655207763 0.69465837861970381 0 0.71933979245794832 0.71933979245794832 0 -0.69465837861970381 1 I I #
point $-1 55.03040285356149 -16.565812550468944 8.1025220297522047 #
edge $-1 $480 1 $480 0 $274 $-1 forward 7 unknown #
vertex $-1 $275 $481 #
ellipse-curve $-1 51.977183052440417 -12.433665908785741 6.3803769655207763 0.69465837861970381 0 0.71933979245794832 0.71933979245794832 0 -0.69465837861970381 1 I I #
point $-1 55.03040285356149 -12.433665908785741 8.1025220297522047 #
plane-surface $-1 60.186162907803578 0 0 -1 0 0 0 0 1 forward_v I I I I #
coedge $-1 $283 $281 $285 $406 reversed $181 $-1 #
edge $-1 $296 -14.47069851000829 $408 14.47069851000829 $295 $482 forward 7 unknown #
vertex $-1 $406 $483 #
straight-curve $-1 -60.186162907803578 -38.239437577819132 0 0 0 -1 I I #
edge $-1 $404 -38.239437577819132 $408 38.239437577819132 $402 $484 forward 7 unknown #
straight-curve $-1 0 -38.239437577819132 -14.47069851000829 -1 0 0 I I #
vertex $-1 $288 $485 #
straight-curve $-1 0 38.239437577819132 -14.47069851000829 1 0 0 I I #
point $-1 60.186162907803578 38.239437577819132 -14.47069851000829 #
point $-1 60.186162907803578 -38.239437577819132 -14.47069851000829 #
straight-curve $-1 -60.186162907803578 0 14.47069851000829 0 -1 0 I I #
point $-1 -60.186162907803578 38.239437577819132 14.47069851000829 #
point $-1 -60.186162907803578 -38.239437577819132 14.47069851000829 #
straight-curve $-1 60.186162907803578 -38.239437577819132 0 0 0 -1 I I #
straight-curve $-1 60.186162907803578 38.239437577819132 0 0 0 -1 I I #
plane-surface $-1 60.186162907803578 0 0 -1 0 0 0 0 1 forward_v I I I I #
coedge $-1 $420 $432 $311 $424 forward $306 $-1 #
coedge $-1 $309 $308 $317 $430 reversed $121 $-1 #
coedge $-1 $486 $418 $309 $421 forward $306 $-1 #
edge $-1 $422 19.320576978257748 $487 38.239437577819132 $309 $488 forward 7 unknown #
vertex $-1 $421 $489 #
straight-curve $-1 -60.186162907803578 -19.320576978257748 5.9939216892654805 0 0 -1 I I #
edge $-1 $425 -60.186162907803578 $422 60.186162907803578 $418 $490 forward 7 unknown #
vertex $-1 $312 $491 #
straight-curve $-1 60.186162907803578 -19.320576978257748 5.9939216892654805 0 0 1 I I #
point $-1 -60.186162907803578 -19.320576978257748 9.5049882470536335 #
straight-curve $-1 -60.186162907803578 -14.39000363901922 9.5049882470536335 0 -1 0 I I #
coedge $-1 $317 $316 $486 $492 reversed $200 $-1 #
edge $-1 $487 -14.47069851000829 $318 -9.5049882470536335 $419 $493 forward 7 unknown #
point $-1 -60.186162907803578 -38.239437577819132 9.5049882470536335 #
coedge $-1 $418 $486 $320 $433 forward $306 $-1 #
edge $-1 $434 -38.239437577819132 $425 -19.320576978257748 $320 $494 forward 7 unknown #
vertex $-1 $433 $495 #
straight-curve $-1 60.186162907803578 -38.239437577819132 0 0 0 -1 I I #
plane-surface $-1 0 38.239437577819132 0 0 -1 0 0 0 -1 forward_v I I I I #
coedge $-1 $328 $446 $330 $440 forward $325 $-1 #
vertex $-1 $440 $496 #
straight-curve $-1 -60.186162907803578 20.325572223024004 -1.1517276171158484 0 0 1 I I #
edge $-1 $442 -23.598185127608353 $438 -5.6843197728132182 $437 $497 forward 7 unknown #
straight-curve $-1 0 20.325572223024004 -4.7074362925901099 -1 0 0 I I #
vertex $-1 $333 $498 #
straight-curve $-1 0 38.239437577819132 -4.7074362925901099 -1 0 0 I I #
point $-1 60.186162907803578 20.325572223024004 -4.7074362925901099 #
point $-1 60.186162907803578 38.239437577819139 -4.7074362925901099 #
coedge $-1 $437 $337 $340 $448 forward $325 $-1 #
straight-curve $-1 -60.186162907803578 14.641252450210786 0.1005258241267164 0 1 0 I I #
edge $-1 $342 -0.1005258241267164 $442 4.7074362925901099 $340 $499 forward 7 unknown #
point $-1 -60.186162907803578 38.239437577819139 0.1005258241267164 #
point $-1 -60.186162907803578 20.325572223024004 0.1005258241267164 #
straight-curve $-1 60.186162907803578 20.325572223024004 -1.1517276171158484 0 0 -1 I I #
straight-curve $-1 60.186162907803578 38.239437577819132 0 0 0 -1 I I #
coedge $-1 $362 $361 $354 $454 forward $351 $-1 #
edge $-1 $455 0.90508443870527344 $458 9.7682143982948872 $453 $500 forward 7 unknown #
vertex $-1 $454 $501 #
straight-curve $-1 -60.186162907803578 12.859081048018197 56.162206881310041 0 0 1 I I #
edge $-1 $458 4.5629177302576487 $363 12.029408905263448 $362 $502 forward 7 unknown #
vertex $-1 $457 $503 #
straight-curve $-1 -60.18616290780357 12.859081048018197 9.1451926595494513 -0.85716729658548041 0 -0.51503808176128008 I I #
point $-1 -60.186162907803578 12.859081048018197 9.1451926595494477 #
point $-1 -51.323032948213964 20.325572223023997 14.47069851000829 #
straight-curve $-1 -60.186162907803578 0 14.47069851000829 0 -1 0 I I #
vertex $-1 $369 $504 #
point $-1 -54.694370771472435 14.992364240876995 11.014233313762297 #
vertex $-1 $373 $505 #
point $-1 -54.694370771472435 18.192289030165199 11.014233313762297 #
coedge $-1 $468 $379 $474 $506 reversed $257 $-1 #
coedge $-1 $379 $467 $382 $472 reversed $257 $-1 #
edge $-1 $470 -12.070707363444077 $387 -2.4290318661832639 $386 $507 forward 7 unknown #
vertex $-1 $506 $508 #
straight-curve $-1 -26.402440962075801 -19.320576978257748 86.741306988487935 -0.71933979245794832 0 0.69465837861970381 I I #
edge $-1 $383 48.435963214403507 $476 60.186162907803578 $382 $509 forward 7 unknown #
point $-1 48.435963214403507 -19.320576978257748 14.47069851000829 #
coedge $-1 $386 $385 $467 $506 forward $377 $-1 #
point $-1 60.186162907803578 -9.6789014809969345 3.123662306735568 #
vertex $-1 $390 $510 #
straight-curve $-1 60.186162907803578 0 14.47069851000829 0 1 0 I I #
vertex $-1 $393 $511 #
point $-1 52.696522844898361 -16.565812550468944 5.6857185869010731 #
vertex $-1 $397 $512 #
point $-1 52.696522844898361 -12.433665908785741 5.6857185869010731 #
straight-curve $-1 -60.186162907803578 38.239437577819132 0 0 0 -1 I I #
point $-1 -60.186162907803578 -38.239437577819132 -14.47069851000829 #
straight-curve $-1 -60.186162907803578 0 -14.47069851000829 0 1 0 I I #
point $-1 -60.186162907803578 38.239437577819132 -14.47069851000829 #
coedge $-1 $432 $420 $429 $492 forward $306 $-1 #
vertex $-1 $421 $513 #
straight-curve $-1 -60.186162907803578 0 14.47069851000829 0 -1 0 I I #
point $-1 -60.186162907803578 -19.320576978257748 14.470698510008289 #
straight-curve $-1 0 -19.320576978257748 14.47069851000829 -1 0 0 I I #
point $-1 60.186162907803578 -19.320576978257748 14.470698510008289 #
edge $-1 $487 -60.186162907803578 $434 60.186162907803578 $429 $514 forward 7 unknown #
straight-curve $-1 -60.186162907803578 -38.239437577819132 0 0 0 -1 I I #
straight-curve $-1 60.186162907803578 0 14.47069851000829 0 1 0 I I #
point $-1 60.186162907803578 -38.239437577819132 14.47069851000829 #
point $-1 -60.186162907803578 20.325572223024004 -4.7074362925901099 #
straight-curve $-1 -60.186162907803578 14.641252450210786 -4.7074362925901099 0 -1 0 I I #
point $-1 -60.186162907803578 38.239437577819139 -4.7074362925901099 #
straight-curve $-1 -60.186162907803578 38.239437577819132 0 0 0 -1 I I #
straight-curve $-1 -61.091247346508851 12.859081048018197 14.47069851000829 1 0 0 I I #
point $-1 -60.186162907803578 12.859081048018197 14.47069851000829 #
straight-curve $-1 -51.323032948213964 8.2961633177605485 14.47069851000829 0 1 0 I I #
point $-1 -51.323032948213964 12.859081048018197 14.47069851000829 #
point $-1 -54.865435378884534 14.992364240876995 10.328130624588917 #
point $-1 -54.865435378884534 18.192289030165199 10.328130624588917 #
edge $-1 $476 72.194256919175373 $470 83.541293122448096 $474 $515 forward 7 unknown #
straight-curve $-1 60.186162907803578 -7.2498696148136705 3.123662306735568 0 1 0 I I #
point $-1 60.186162907803578 -19.320576978257748 3.123662306735568 #
straight-curve $-1 0 -19.320576978257748 14.47069851000829 1 0 0 I I #
point $-1 60.186162907803578 -19.320576978257748 14.470698510008289 #
point $-1 51.28252467382071 -16.565812550468944 5.6610371730628284 #
point $-1 51.28252467382071 -12.433665908785741 5.6610371730628284 #
point $-1 -60.186162907803578 -38.239437577819132 14.47069851000829 #
straight-curve $-1 0 -38.239437577819132 14.47069851000829 1 0 0 I I #
straight-curve $-1 60.186162907803578 -19.320576978257748 86.664955429183664 0 0 -1 I I #
End-of-ACIS-data 