500 0 13 0           
7 Unknown 11 ACIS 5.0 NT 24 Fri Mar 26 20:42:40 1999 
-1 9.9999999999999995e-007 1e-010 
body $-1 $13 $-1 $14 #
body $-1 $15 $-1 $16 #
body $-1 $17 $-1 $18 #
body $-1 $19 $-1 $20 #
body $-1 $21 $-1 $22 #
body $-1 $23 $-1 $24 #
body $-1 $25 $-1 $26 #
body $-1 $27 $-1 $28 #
body $-1 $29 $-1 $30 #
body $-1 $31 $-1 $32 #
body $-1 $33 $-1 $34 #
body $-1 $35 $-1 $36 #
body $-1 $37 $-1 $38 #
lump $-1 $-1 $39 $0 #
transform $-1 1 0 0 0 1 0 0 0 1 53.213293862727745 26.267882531212347 11.951898576550947 1 rotate no_reflect no_shear #
lump $-1 $-1 $40 $1 #
transform $-1 1 0 0 0 1 0 0 0 1 53.213293862727745 26.267882531212347 11.951898576550947 1 rotate no_reflect no_shear #
lump $-1 $-1 $41 $2 #
transform $-1 1 0 0 0 1 0 0 0 1 53.213293862727745 26.267882531212347 11.951898576550947 1 rotate no_reflect no_shear #
lump $-1 $-1 $42 $3 #
transform $-1 1 0 0 0 1 0 0 0 1 53.213293862727745 26.267882531212347 11.951898576550947 1 rotate no_reflect no_shear #
lump $-1 $-1 $43 $4 #
transform $-1 1 0 0 0 1 0 0 0 1 53.213293862727745 26.267882531212347 11.951898576550947 1 rotate no_reflect no_shear #
lump $-1 $-1 $44 $5 #
transform $-1 1 0 0 0 1 0 0 0 1 53.213293862727745 26.267882531212347 11.951898576550947 1 rotate no_reflect no_shear #
lump $-1 $-1 $45 $6 #
transform $-1 1 0 0 0 1 0 0 0 1 53.213293862727745 26.267882531212347 11.951898576550947 1 rotate no_reflect no_shear #
lump $-1 $-1 $46 $7 #
transform $-1 1 0 0 0 1 0 0 0 1 53.213293862727745 26.267882531212347 11.951898576550947 1 rotate no_reflect no_shear #
lump $-1 $-1 $47 $8 #
transform $-1 1 0 0 0 1 0 0 0 1 53.213293862727745 26.267882531212347 11.951898576550947 1 rotate no_reflect no_shear #
lump $-1 $-1 $48 $9 #
transform $-1 1 0 0 0 1 0 0 0 1 53.213293862727745 26.267882531212347 11.951898576550947 1 rotate no_reflect no_shear #
lump $-1 $-1 $49 $10 #
transform $-1 1 0 0 0 1 0 0 0 1 53.213293862727745 26.267882531212347 11.951898576550947 1 rotate no_reflect no_shear #
lump $-1 $-1 $50 $11 #
transform $-1 1 0 0 0 1 0 0 0 1 53.213293862727745 26.267882531212347 11.951898576550947 1 rotate no_reflect no_shear #
lump $-1 $-1 $51 $12 #
transform $-1 1 0 0 0 1 0 0 0 1 53.213293862727745 26.267882531212347 11.951898576550947 1 rotate no_reflect no_shear #
shell $-1 $-1 $-1 $52 $-1 $13 #
shell $-1 $-1 $-1 $53 $-1 $15 #
shell $-1 $-1 $-1 $54 $-1 $17 #
shell $-1 $-1 $-1 $55 $-1 $19 #
shell $-1 $-1 $-1 $56 $-1 $21 #
shell $-1 $-1 $-1 $57 $-1 $23 #
shell $-1 $-1 $-1 $58 $-1 $25 #
shell $-1 $-1 $-1 $59 $-1 $27 #
shell $-1 $-1 $-1 $60 $-1 $29 #
shell $-1 $-1 $-1 $61 $-1 $31 #
shell $-1 $-1 $-1 $62 $-1 $33 #
shell $-1 $-1 $-1 $63 $-1 $35 #
shell $-1 $-1 $-1 $64 $-1 $37 #
face $-1 $65 $66 $39 $-1 $67 forward single #
face $-1 $68 $69 $40 $-1 $70 forward single #
face $-1 $71 $72 $41 $-1 $73 reversed single #
face $-1 $74 $75 $42 $-1 $76 forward single #
face $-1 $77 $78 $43 $-1 $79 forward single #
face $-1 $80 $81 $44 $-1 $82 forward single #
face $-1 $83 $84 $45 $-1 $85 reversed single #
face $-1 $86 $87 $46 $-1 $88 forward single #
face $-1 $89 $90 $47 $-1 $91 forward single #
face $-1 $92 $93 $48 $-1 $94 forward single #
face $-1 $95 $96 $49 $-1 $97 reversed single #
face $-1 $98 $99 $50 $-1 $100 forward single #
face $-1 $101 $102 $51 $-1 $103 forward single #
face $-1 $104 $105 $39 $-1 $106 reversed single #
loop $-1 $-1 $107 $52 #
plane-surface $-1 0 0 11.951898576550947 0 0 1 1 0 0 forward_v I I I I #
face $-1 $108 $109 $40 $-1 $110 reversed single #
loop $-1 $-1 $111 $53 #
plane-surface $-1 -47.711955353279649 0 -7.2406612831018276 0 0 1 1 0 0 forward_v I I I I #
face $-1 $112 $113 $41 $-1 $114 reversed single #
loop $-1 $-1 $115 $54 #
plane-surface $-1 -23.682005867988046 56.440762349648608 123.35086500854865 1 0 0 0 -0.6560590369687036 -0.75470957328743171 forward_v I I I I #
face $-1 $116 $117 $42 $-1 $118 forward single #
loop $-1 $119 $120 $55 #
cone-surface $-1 -20.062030344910511 23.738504511624264 9.590055729738225 0 -0.6560590369687036 -0.75470957328743171 1 0 0 1 I I 0 1 1 forward I I I I #
face $-1 $121 $122 $43 $-1 $123 forward single #
loop $-1 $124 $125 $56 #
cone-surface $-1 -14.632067060294212 23.738504511624264 9.590055729738225 0 -0.6560590369687036 -0.75470957328743171 1 0 0 1 I I 0 1 1 forward I I I I #
face $-1 $126 $127 $44 $-1 $128 forward single #
loop $-1 $129 $130 $57 #
cone-surface $-1 -9.2021037756779194 23.738504511624264 9.590055729738225 0 -0.6560590369687036 -0.75470957328743171 1 0 0 1 I I 0 1 1 forward I I I I #
face $-1 $131 $132 $45 $-1 $133 reversed single #
loop $-1 $-1 $134 $58 #
plane-surface $-1 24.029949485291596 56.440762349648608 123.35086500854865 1 0 0 0 -0.6560590369687036 -0.75470957328743171 forward_v I I I I #
face $-1 $135 $136 $46 $-1 $137 forward single #
loop $-1 $138 $139 $59 #
cone-surface $-1 27.649925008369131 23.738504511624264 9.590055729738225 0 -0.6560590369687036 -0.75470957328743171 1 0 0 1 I I 0 1 1 forward I I I I #
face $-1 $140 $141 $47 $-1 $142 forward single #
loop $-1 $143 $144 $60 #
cone-surface $-1 33.079888292985437 23.738504511624264 9.590055729738225 0 -0.6560590369687036 -0.75470957328743171 1 0 0 1 I I 0 1 1 forward I I I I #
face $-1 $145 $146 $48 $-1 $147 forward single #
loop $-1 $148 $149 $61 #
cone-surface $-1 38.509851577601729 23.738504511624264 9.590055729738225 0 -0.6560590369687036 -0.75470957328743171 1 0 0 1 I I 0 1 1 forward I I I I #
face $-1 $150 $151 $49 $-1 $152 reversed single #
loop $-1 $-1 $153 $62 #
plane-surface $-1 20.518140093154805 -112.36880152541278 68.131687776806658 -1 0 0 0 -0.80901700255871778 0.5877852410284794 forward_v I I I I #
face $-1 $154 $155 $50 $-1 $156 forward single #
loop $-1 $157 $158 $63 #
cone-surface $-1 8.6374224285943484 -22.628287051334453 7.8023637742220275 0 0.80901700255871778 -0.5877852410284794 1 0 0 1 I I 0 1 1 forward I I I I #
face $-1 $159 $160 $51 $-1 $161 forward single #
loop $-1 $162 $163 $64 #
cone-surface $-1 15.765853027330628 -22.628287051334453 7.8023637742220275 0 0.80901700255871778 -0.5877852410284794 1 0 0 1 I I 0 1 1 forward I I I I #
face $-1 $164 $165 $39 $-1 $166 reversed single #
loop $-1 $-1 $167 $65 #
plane-surface $-1 0 0 -11.951898576550947 0 0 1 1 0 0 forward_v I I I I #
coedge $-1 $168 $169 $170 $171 forward $66 $-1 #
face $-1 $172 $173 $40 $-1 $174 reversed single #
loop $-1 $-1 $175 $68 #
plane-surface $-1 -42.210616843831545 0 -9.5962799298263874 -1 0 0 0 0 1 forward_v I I I I #
coedge $-1 $176 $177 $178 $179 forward $69 $-1 #
face $-1 $180 $181 $41 $-1 $182 reversed single #
loop $-1 $-1 $183 $71 #
plane-surface $-1 -14.632067060294219 -13.381362301378971 43.02970039983272 0 0.6560590369687036 0.75470957328743171 1 0 0 forward_v I I I I #
coedge $-1 $184 $185 $186 $187 reversed $72 $-1 #
face $-1 $-1 $188 $42 $-1 $189 forward single #
loop $-1 $190 $191 $74 #
cone-surface $-1 -20.062030344910511 22.830259079802833 8.5452389012751038 0 -0.6560590369687036 -0.75470957328743171 0.5 0 0 1 I I -0.70710678118654746 0.70710678118654746 0.5 forward I I I I #
loop $-1 $-1 $192 $55 #
coedge $-1 $120 $120 $193 $194 reversed $75 $-1 #
face $-1 $-1 $195 $43 $-1 $196 forward single #
loop $-1 $197 $198 $77 #
cone-surface $-1 -14.632067060294212 22.830259079802833 8.5452389012751038 0 -0.6560590369687036 -0.75470957328743171 0.5 0 0 1 I I -0.70710678118654746 0.70710678118654746 0.5 forward I I I I #
loop $-1 $-1 $199 $56 #
coedge $-1 $125 $125 $200 $201 reversed $78 $-1 #
face $-1 $-1 $202 $44 $-1 $203 forward single #
loop $-1 $204 $205 $80 #
cone-surface $-1 -9.2021037756779194 22.830259079802833 8.5452389012751038 0 -0.6560590369687036 -0.75470957328743171 0.5 0 0 1 I I -0.70710678118654746 0.70710678118654746 0.5 forward I I I I #
loop $-1 $-1 $206 $57 #
coedge $-1 $130 $130 $207 $208 reversed $81 $-1 #
face $-1 $209 $210 $45 $-1 $211 reversed single #
loop $-1 $-1 $212 $83 #
plane-surface $-1 33.079888292985423 -13.381362301378971 43.02970039983272 0 0.6560590369687036 0.75470957328743171 1 0 0 forward_v I I I I #
coedge $-1 $213 $214 $215 $216 reversed $84 $-1 #
face $-1 $-1 $217 $46 $-1 $218 forward single #
loop $-1 $219 $220 $86 #
cone-surface $-1 27.649925008369131 22.830259079802833 8.5452389012751038 0 -0.6560590369687036 -0.75470957328743171 0.5 0 0 1 I I -0.70710678118654746 0.70710678118654746 0.5 forward I I I I #
loop $-1 $-1 $221 $59 #
coedge $-1 $139 $139 $222 $223 reversed $87 $-1 #
face $-1 $-1 $224 $47 $-1 $225 forward single #
loop $-1 $226 $227 $89 #
cone-surface $-1 33.079888292985437 22.830259079802833 8.5452389012751038 0 -0.6560590369687036 -0.75470957328743171 0.5 0 0 1 I I -0.70710678118654746 0.70710678118654746 0.5 forward I I I I #
loop $-1 $-1 $228 $60 #
coedge $-1 $144 $144 $229 $230 reversed $90 $-1 #
face $-1 $-1 $231 $48 $-1 $232 forward single #
loop $-1 $233 $234 $92 #
cone-surface $-1 38.509851577601729 22.830259079802833 8.5452389012751038 0 -0.6560590369687036 -0.75470957328743171 0.5 0 0 1 I I -0.70710678118654746 0.70710678118654746 0.5 forward I I I I #
loop $-1 $-1 $235 $61 #
coedge $-1 $149 $149 $236 $237 reversed $93 $-1 #
face $-1 $238 $239 $49 $-1 $240 reversed single #
loop $-1 $-1 $241 $95 #
plane-surface $-1 12.201637727962485 -26.267882531212351 5.5757102587611982 0 -0.80901700255871778 0.5877852410284794 1 0 0 forward_v I I I I #
coedge $-1 $242 $243 $244 $245 reversed $96 $-1 #
face $-1 $-1 $246 $50 $-1 $247 forward single #
loop $-1 $248 $249 $98 #
cone-surface $-1 8.6374224285943484 -20.900468992080924 6.5470305102737409 0 0.80901700255871778 -0.5877852410284794 0.5 0 0 1 I I -0.70710678118654746 0.70710678118654746 0.5 forward I I I I #
loop $-1 $-1 $250 $63 #
coedge $-1 $158 $158 $251 $252 reversed $99 $-1 #
face $-1 $-1 $253 $51 $-1 $254 forward single #
loop $-1 $255 $256 $101 #
cone-surface $-1 15.765853027330628 -20.900468992080924 6.5470305102737409 0 0.80901700255871778 -0.5877852410284794 0.5 0 0 1 I I -0.70710678118654746 0.70710678118654746 0.5 forward I I I I #
loop $-1 $-1 $257 $64 #
coedge $-1 $163 $163 $258 $259 reversed $102 $-1 #
face $-1 $260 $261 $39 $-1 $262 reversed single #
loop $-1 $-1 $263 $104 #
plane-surface $-1 0 -26.267882531212347 0 0 1 0 0 0 1 forward_v I I I I #
coedge $-1 $264 $265 $266 $267 forward $105 $-1 #
coedge $-1 $268 $107 $269 $270 forward $66 $-1 #
coedge $-1 $107 $268 $271 $272 forward $66 $-1 #
coedge $-1 $273 $274 $107 $171 reversed $275 $-1 #
edge $-1 $276 -26.267882531212347 $277 26.267882531212347 $170 $278 forward 7 unknown #
face $-1 $279 $280 $40 $-1 $281 reversed single #
loop $-1 $-1 $282 $108 #
plane-surface $-1 0 0 -11.951898576550947 0 0 1 1 0 0 forward_v I I I I #
coedge $-1 $283 $178 $284 $285 reversed $109 $-1 #
coedge $-1 $286 $111 $287 $288 reversed $69 $-1 #
coedge $-1 $111 $286 $289 $290 reversed $69 $-1 #
coedge $-1 $175 $291 $111 $179 reversed $109 $-1 #
edge $-1 $292 -26.267882531212347 $293 26.267882531212347 $178 $294 forward 7 unknown #
face $-1 $295 $296 $41 $-1 $297 reversed single #
loop $-1 $-1 $298 $112 #
plane-surface $-1 -5.582128252600393 56.440762349648608 123.35086500854865 -1 0 0 0 0.6560590369687036 0.75470957328743171 forward_v I I I I #
coedge $-1 $299 $300 $301 $302 reversed $113 $-1 #
coedge $-1 $185 $115 $303 $304 reversed $72 $-1 #
coedge $-1 $115 $184 $299 $305 reversed $72 $-1 #
coedge $-1 $301 $306 $115 $187 forward $307 $-1 #
edge $-1 $308 1.9524986436119569 $309 5.8508228561139717 $186 $310 forward 7 unknown #
loop $-1 $-1 $193 $116 #
plane-surface $-1 -14.632067060294219 -13.381362301378971 43.02970039983272 0 0.6560590369687036 0.75470957328743171 1 0 0 forward_v I I I I #
loop $-1 $-1 $311 $74 #
coedge $-1 $191 $191 $192 $312 reversed $117 $-1 #
coedge $-1 $192 $192 $191 $312 forward $119 $-1 #
coedge $-1 $193 $193 $120 $194 forward $188 $-1 #
edge $-1 $313 -1.9803128049388458e-015 $313 6.2831853071795987 $193 $314 forward 7 unknown #
loop $-1 $-1 $200 $121 #
plane-surface $-1 -14.632067060294219 -13.381362301378971 43.02970039983272 0 0.6560590369687036 0.75470957328743171 1 0 0 forward_v I I I I #
loop $-1 $-1 $315 $77 #
coedge $-1 $198 $198 $199 $316 reversed $122 $-1 #
coedge $-1 $199 $199 $198 $316 forward $124 $-1 #
coedge $-1 $200 $200 $125 $201 forward $195 $-1 #
edge $-1 $317 -1.9803128049388458e-015 $317 6.2831853071795987 $200 $318 forward 7 unknown #
loop $-1 $-1 $207 $126 #
plane-surface $-1 -14.632067060294219 -13.381362301378971 43.02970039983272 0 0.6560590369687036 0.75470957328743171 1 0 0 forward_v I I I I #
loop $-1 $-1 $319 $80 #
coedge $-1 $205 $205 $206 $320 reversed $127 $-1 #
coedge $-1 $206 $206 $205 $320 forward $129 $-1 #
coedge $-1 $207 $207 $130 $208 forward $202 $-1 #
edge $-1 $321 -1.9803128049388458e-015 $321 6.2831853071795987 $207 $322 forward 7 unknown #
face $-1 $323 $324 $45 $-1 $325 forward single #
loop $-1 $-1 $326 $131 #
plane-surface $-1 42.12982710067925 56.440762349648608 123.35086500854865 -1 0 0 0 0.6560590369687036 0.75470957328743171 forward_v I I I I #
coedge $-1 $327 $328 $329 $330 reversed $132 $-1 #
coedge $-1 $214 $134 $331 $332 reversed $84 $-1 #
coedge $-1 $134 $213 $327 $333 reversed $84 $-1 #
coedge $-1 $329 $334 $134 $216 forward $324 $-1 #
edge $-1 $335 1.9524986436119569 $336 5.8508228561139717 $215 $337 forward 7 unknown #
loop $-1 $-1 $222 $135 #
plane-surface $-1 33.079888292985423 -13.381362301378971 43.02970039983272 0 0.6560590369687036 0.75470957328743171 1 0 0 forward_v I I I I #
loop $-1 $-1 $338 $86 #
coedge $-1 $220 $220 $221 $339 reversed $136 $-1 #
coedge $-1 $221 $221 $220 $339 forward $138 $-1 #
coedge $-1 $222 $222 $139 $223 forward $217 $-1 #
edge $-1 $340 -1.9803128049388458e-015 $340 6.2831853071795987 $222 $341 forward 7 unknown #
loop $-1 $-1 $229 $140 #
plane-surface $-1 33.079888292985423 -13.381362301378971 43.02970039983272 0 0.6560590369687036 0.75470957328743171 1 0 0 forward_v I I I I #
loop $-1 $-1 $342 $89 #
coedge $-1 $227 $227 $228 $343 reversed $141 $-1 #
coedge $-1 $228 $228 $227 $343 forward $143 $-1 #
coedge $-1 $229 $229 $144 $230 forward $224 $-1 #
edge $-1 $344 -1.9803128049388458e-015 $344 6.2831853071795987 $229 $345 forward 7 unknown #
loop $-1 $-1 $236 $145 #
plane-surface $-1 33.079888292985423 -13.381362301378971 43.02970039983272 0 0.6560590369687036 0.75470957328743171 1 0 0 forward_v I I I I #
loop $-1 $-1 $346 $92 #
coedge $-1 $234 $234 $235 $347 reversed $146 $-1 #
coedge $-1 $235 $235 $234 $347 forward $148 $-1 #
coedge $-1 $236 $236 $149 $237 forward $231 $-1 #
edge $-1 $348 -1.9803128049388458e-015 $348 6.2831853071795987 $236 $349 forward 7 unknown #
face $-1 $350 $351 $49 $-1 $352 forward single #
loop $-1 $-1 $353 $150 #
plane-surface $-1 3.8851353627701641 -112.36880152541278 68.131687776806658 1 0 0 0 0.80901700255871778 -0.5877852410284794 forward_v I I I I #
coedge $-1 $354 $355 $356 $357 reversed $151 $-1 #
coedge $-1 $243 $153 $358 $359 reversed $96 $-1 #
coedge $-1 $153 $242 $354 $360 reversed $96 $-1 #
coedge $-1 $356 $361 $153 $245 forward $351 $-1 #
edge $-1 $362 29.916518231494042 $363 34.549090075301493 $244 $364 forward 7 unknown #
loop $-1 $-1 $251 $154 #
plane-surface $-1 12.201637727962485 -26.267882531212351 5.5757102587611982 0 -0.80901700255871778 0.5877852410284794 1 0 0 forward_v I I I I #
loop $-1 $-1 $365 $98 #
coedge $-1 $249 $249 $250 $366 reversed $155 $-1 #
coedge $-1 $250 $250 $249 $366 forward $157 $-1 #
coedge $-1 $251 $251 $158 $252 forward $246 $-1 #
edge $-1 $367 0 $367 6.2831853071796004 $251 $368 forward 7 unknown #
loop $-1 $-1 $258 $159 #
plane-surface $-1 12.201637727962485 -26.267882531212351 5.5757102587611982 0 -0.80901700255871778 0.5877852410284794 1 0 0 forward_v I I I I #
loop $-1 $-1 $369 $101 #
coedge $-1 $256 $256 $257 $370 reversed $160 $-1 #
coedge $-1 $257 $257 $256 $370 forward $162 $-1 #
coedge $-1 $258 $258 $163 $259 forward $253 $-1 #
edge $-1 $371 0 $371 6.2831853071796004 $258 $372 forward 7 unknown #
face $-1 $373 $374 $39 $-1 $375 reversed single #
loop $-1 $-1 $376 $164 #
plane-surface $-1 -53.213293862727745 0 0 1 0 0 0 0 -1 forward_v I I I I #
coedge $-1 $377 $271 $378 $379 forward $165 $-1 #
coedge $-1 $380 $167 $377 $381 forward $105 $-1 #
coedge $-1 $167 $380 $382 $383 forward $105 $-1 #
coedge $-1 $274 $273 $167 $267 reversed $275 $-1 #
edge $-1 $384 -26.267882531212347 $385 26.267882531212347 $266 $386 forward 7 unknown #
coedge $-1 $169 $168 $387 $388 forward $66 $-1 #
coedge $-1 $389 $390 $168 $270 reversed $374 $-1 #
edge $-1 $277 -53.213293862727745 $391 53.213293862727745 $269 $392 forward 7 unknown #
coedge $-1 $263 $393 $169 $272 reversed $165 $-1 #
edge $-1 $394 -53.213293862727745 $276 53.213293862727745 $271 $395 forward 7 unknown #
coedge $-1 $266 $170 $393 $396 forward $275 $-1 #
coedge $-1 $170 $266 $389 $397 reversed $275 $-1 #
loop $-1 $-1 $273 $373 #
vertex $-1 $171 $398 #
vertex $-1 $171 $399 #
straight-curve $-1 53.213293862727745 0 11.951898576550947 0 1 0 I I #
face $-1 $400 $401 $40 $-1 $402 reversed single #
loop $-1 $-1 $284 $172 #
plane-surface $-1 0 -26.267882531212347 0 0 1 0 0 0 1 forward_v I I I I #
coedge $-1 $403 $404 $283 $405 forward $173 $-1 #
coedge $-1 $291 $175 $282 $405 reversed $109 $-1 #
coedge $-1 $289 $406 $175 $285 forward $280 $-1 #
edge $-1 $407 -7.1537586116377536 $292 -2.4425213181886338 $284 $408 forward 7 unknown #
coedge $-1 $177 $176 $409 $410 reversed $69 $-1 #
coedge $-1 $411 $412 $176 $288 forward $413 $-1 #
edge $-1 $414 -29.357316186087928 $293 -18.354639167191721 $287 $415 forward 7 unknown #
coedge $-1 $416 $284 $177 $290 forward $280 $-1 #
edge $-1 $292 18.354639167191721 $417 29.357316186087928 $289 $418 forward 7 unknown #
coedge $-1 $178 $283 $411 $419 reversed $109 $-1 #
vertex $-1 $290 $420 #
vertex $-1 $288 $421 #
straight-curve $-1 -42.210616843831545 0 -7.2406612831018276 0 1 0 I I #
face $-1 $-1 $307 $41 $-1 $422 forward single #
loop $-1 $-1 $423 $180 #
plane-surface $-1 0 26.267882531212347 0 0 -1 0 0 0 -1 forward_v I I I I #
coedge $-1 $424 $425 $426 $427 reversed $181 $-1 #
coedge $-1 $428 $183 $185 $305 forward $113 $-1 #
coedge $-1 $183 $428 $424 $429 forward $113 $-1 #
coedge $-1 $426 $186 $183 $302 forward $307 $-1 #
edge $-1 $309 -16.365972337840937 $430 1.7339052775467163 $301 $431 forward 7 unknown #
coedge $-1 $432 $433 $184 $304 forward $296 $-1 #
edge $-1 $434 -53.112295537710033 $308 -49.723533927723381 $303 $435 forward 7 unknown #
edge $-1 $309 47.370434781106908 $434 52.535765062424723 $185 $436 forward 7 unknown #
coedge $-1 $186 $426 $432 $437 forward $307 $-1 #
loop $-1 $-1 $426 $295 #
vertex $-1 $304 $438 #
vertex $-1 $187 $439 #
straight-curve $-1 -23.682005867988046 28.220381174824304 11.951898576550946 0 -1 0 I I #
coedge $-1 $311 $311 $-1 $440 reversed $190 $-1 #
edge $-1 $441 0 $441 6.2831853071796004 $191 $442 forward 7 unknown #
vertex $-1 $194 $443 #
ellipse-curve $-1 -20.062030344910511 24.318720424961338 10.257517771557625 0 0.6560590369687036 0.75470957328743171 1 0 0 1 I I #
coedge $-1 $315 $315 $-1 $444 reversed $197 $-1 #
edge $-1 $445 0 $445 6.2831853071796004 $198 $446 forward 7 unknown #
vertex $-1 $201 $447 #
ellipse-curve $-1 -14.632067060294212 24.318720424961338 10.257517771557625 0 0.6560590369687036 0.75470957328743171 1 0 0 1 I I #
coedge $-1 $319 $319 $-1 $448 reversed $204 $-1 #
edge $-1 $449 0 $449 6.2831853071796004 $205 $450 forward 7 unknown #
vertex $-1 $208 $451 #
ellipse-curve $-1 -9.2021037756779194 24.318720424961338 10.257517771557625 0 0.6560590369687036 0.75470957328743171 1 0 0 1 I I #
face $-1 $-1 $452 $45 $-1 $453 reversed single #
loop $-1 $-1 $215 $209 #
plane-surface $-1 0 0 11.951898576550947 0 0 1 1 0 0 forward_v I I I I #
coedge $-1 $454 $455 $456 $457 reversed $210 $-1 #
coedge $-1 $458 $212 $214 $333 forward $132 $-1 #
coedge $-1 $212 $458 $454 $459 forward $132 $-1 #
coedge $-1 $456 $215 $212 $330 forward $324 $-1 #
edge $-1 $336 7.4900053387988841 $460 25.589882954186539 $329 $461 forward 7 unknown #
coedge $-1 $462 $463 $213 $332 forward $452 $-1 #
edge $-1 $464 -53.112295537710033 $335 -49.723533927723381 $331 $465 forward 7 unknown #
edge $-1 $336 47.370434781106908 $464 52.535765062424723 $214 $466 forward 7 unknown #
coedge $-1 $215 $456 $462 $467 forward $324 $-1 #
vertex $-1 $216 $468 #
vertex $-1 $216 $469 #
straight-curve $-1 24.029949485291596 28.220381174824304 11.951898576550946 0 -1 0 I I #
coedge $-1 $338 $338 $-1 $470 reversed $219 $-1 #
edge $-1 $471 0 $471 6.2831853071796004 $220 $472 forward 7 unknown #
vertex $-1 $223 $473 #
ellipse-curve $-1 27.649925008369131 24.318720424961338 10.257517771557625 0 0.6560590369687036 0.75470957328743171 1 0 0 1 I I #
coedge $-1 $342 $342 $-1 $474 reversed $226 $-1 #
edge $-1 $475 0 $475 6.2831853071796004 $227 $476 forward 7 unknown #
vertex $-1 $230 $477 #
ellipse-curve $-1 33.079888292985437 24.318720424961338 10.257517771557625 0 0.6560590369687036 0.75470957328743171 1 0 0 1 I I #
coedge $-1 $346 $346 $-1 $478 reversed $233 $-1 #
edge $-1 $479 0 $479 6.2831853071796004 $234 $480 forward 7 unknown #
vertex $-1 $237 $481 #
ellipse-curve $-1 38.509851577601729 24.318720424961338 10.257517771557625 0 0.6560590369687036 0.75470957328743171 1 0 0 1 I I #
face $-1 $-1 $482 $49 $-1 $483 reversed single #
loop $-1 $-1 $244 $238 #
plane-surface $-1 0 0 11.951898576550947 0 0 1 1 0 0 forward_v I I I I #
coedge $-1 $484 $485 $486 $487 reversed $239 $-1 #
coedge $-1 $488 $241 $243 $360 forward $151 $-1 #
coedge $-1 $241 $488 $484 $489 forward $151 $-1 #
coedge $-1 $486 $244 $241 $357 forward $351 $-1 #
edge $-1 $363 -14.417321229173563 $490 2.2156835012110783 $356 $491 forward 7 unknown #
coedge $-1 $492 $493 $242 $359 forward $482 $-1 #
edge $-1 $494 -28.490133629642123 $362 -22.113945311852383 $358 $495 forward 7 unknown #
edge $-1 $363 -7.8814021184022902 $494 -6.3995413230577333e-015 $243 $496 forward 7 unknown #
coedge $-1 $244 $486 $492 $497 forward $351 $-1 #
vertex $-1 $245 $498 #
vertex $-1 $245 $499 #
straight-curve $-1 20.518140093154805 -56.184400762706389 11.951898576550946 0 1 0 I I #
coedge $-1 $365 $365 $-1 $500 reversed $248 $-1 #
edge $-1 $501 0 $501 6.2831853071796004 $249 $502 forward 7 unknown #
vertex $-1 $252 $503 #
ellipse-curve $-1 8.6374224285943484 -23.95159660930862 8.7638044176560737 0 -0.80901700255871778 0.5877852410284794 1 0 0 1 I I #
coedge $-1 $369 $369 $-1 $504 reversed $255 $-1 #
edge $-1 $505 0 $505 6.2831853071796004 $256 $506 forward 7 unknown #
vertex $-1 $259 $507 #
ellipse-curve $-1 15.765853027330628 -23.95159660930862 8.7638044176560737 0 -0.80901700255871778 0.5877852410284794 1 0 0 1 I I #
face $-1 $-1 $275 $39 $-1 $508 reversed single #
loop $-1 $-1 $389 $260 #
plane-surface $-1 0 26.267882531212347 0 0 -1 0 0 0 -1 forward_v I I I I #
coedge $-1 $509 $387 $390 $510 forward $261 $-1 #
coedge $-1 $393 $263 $264 $381 reversed $165 $-1 #
coedge $-1 $387 $509 $263 $379 reversed $261 $-1 #
edge $-1 $394 -11.951898576550947 $511 11.951898576550947 $378 $512 forward 7 unknown #
coedge $-1 $265 $264 $509 $513 forward $105 $-1 #
edge $-1 $385 -53.213293862727745 $511 53.213293862727745 $377 $514 forward 7 unknown #
coedge $-1 $390 $389 $265 $383 reversed $374 $-1 #
edge $-1 $515 -53.213293862727745 $384 53.213293862727745 $382 $516 forward 7 unknown #
vertex $-1 $267 $517 #
vertex $-1 $396 $518 #
straight-curve $-1 53.213293862727745 0 -11.951898576550947 0 -1 0 I I #
coedge $-1 $376 $378 $268 $388 reversed $261 $-1 #
edge $-1 $391 -26.267882531212347 $394 26.267882531212347 $387 $519 forward 7 unknown #
coedge $-1 $382 $269 $274 $397 forward $374 $-1 #
coedge $-1 $269 $382 $376 $510 reversed $374 $-1 #
vertex $-1 $270 $520 #
straight-curve $-1 0 26.267882531212347 11.951898576550947 -1 0 0 I I #
coedge $-1 $271 $377 $273 $396 reversed $165 $-1 #
vertex $-1 $388 $521 #
straight-curve $-1 0 -26.267882531212347 11.951898576550947 1 0 0 I I #
edge $-1 $276 -11.951898576550947 $385 11.951898576550947 $273 $522 forward 7 unknown #
edge $-1 $277 -11.951898576550947 $384 11.951898576550947 $274 $523 forward 7 unknown #
point $-1 53.213293862727745 -26.267882531212347 11.951898576550947 #
point $-1 53.213293862727745 26.267882531212347 11.951898576550947 #
face $-1 $-1 $413 $40 $-1 $524 reversed single #
loop $-1 $-1 $409 $279 #
plane-surface $-1 -53.213293862727745 0 0 1 0 0 0 0 -1 forward_v I I I I #
coedge $-1 $525 $282 $406 $526 forward $173 $-1 #
coedge $-1 $282 $525 $527 $528 forward $173 $-1 #
edge $-1 $529 -26.267882531212347 $407 26.267882531212347 $282 $530 forward 7 unknown #
coedge $-1 $284 $416 $403 $526 reversed $280 $-1 #
vertex $-1 $526 $531 #
straight-curve $-1 -42.210616843831545 -26.267882531212347 -4.7981399649131937 0 0 1 I I #
coedge $-1 $532 $533 $286 $410 forward $401 $-1 #
edge $-1 $417 -26.267882531212347 $414 26.267882531212347 $409 $534 forward 7 unknown #
coedge $-1 $527 $287 $291 $419 forward $413 $-1 #
coedge $-1 $287 $527 $532 $535 reversed $413 $-1 #
loop $-1 $-1 $411 $400 #
vertex $-1 $535 $536 #
straight-curve $-1 -23.855977676639824 26.267882531212347 -7.2406612831018276 1 0 0 I I #
coedge $-1 $406 $289 $533 $537 forward $280 $-1 #
vertex $-1 $537 $538 #
straight-curve $-1 -23.855977676639824 -26.267882531212347 -7.2406612831018276 -1 0 0 I I #
edge $-1 $293 2.4425213181886338 $529 7.1537586116377536 $411 $539 forward 7 unknown #
point $-1 -42.210616843831545 -26.267882531212347 -7.2406612831018276 #
point $-1 -42.210616843831545 26.267882531212347 -7.2406612831018276 #
plane-surface $-1 0 0 11.951898576550947 0 0 1 1 0 0 forward_v I I I I #
coedge $-1 $433 $432 $425 $540 forward $296 $-1 #
coedge $-1 $425 $298 $300 $429 reversed $181 $-1 #
coedge $-1 $298 $424 $423 $540 reversed $181 $-1 #
coedge $-1 $306 $301 $298 $427 forward $307 $-1 #
edge $-1 $430 -5.8508228561139717 $541 -1.9524986436119569 $426 $542 forward 7 unknown #
coedge $-1 $300 $299 $433 $543 reversed $113 $-1 #
edge $-1 $544 -52.535765062424723 $430 -47.370434781106908 $424 $545 forward 7 unknown #
vertex $-1 $302 $546 #
straight-curve $-1 -7.3160335301471093 22.369558318710329 11.951898576550949 1 0 0 I I #
coedge $-1 $423 $303 $306 $437 reversed $296 $-1 #
coedge $-1 $303 $423 $428 $543 forward $296 $-1 #
vertex $-1 $304 $547 #
straight-curve $-1 -23.682005867988046 26.267882531212347 61.675432504274326 0 0 1 I I #
straight-curve $-1 -23.682005867988046 -13.381362301378971 43.02970039983272 0 0.75470957328743171 -0.6560590369687036 I I #
edge $-1 $541 5.582128252600393 $308 23.682005867988046 $432 $548 forward 7 unknown #
point $-1 -23.682005867988046 26.267882531212347 11.951898576550947 #
point $-1 -23.682005867988046 22.369558318710332 11.951898576550946 #
edge $-1 $549 1 $549 0 $311 $-1 forward 7 unknown #
vertex $-1 $312 $550 #
ellipse-curve $-1 -20.062030344910511 23.158288598287186 8.9225936879188197 0 0.6560590369687036 0.75470957328743171 1 0 0 1 I I #
point $-1 -19.062030344910511 24.318720424961342 10.257517771557632 #
edge $-1 $551 1 $551 0 $315 $-1 forward 7 unknown #
vertex $-1 $316 $552 #
ellipse-curve $-1 -14.632067060294212 23.158288598287186 8.9225936879188197 0 0.6560590369687036 0.75470957328743171 1 0 0 1 I I #
point $-1 -13.632067060294212 24.318720424961342 10.257517771557632 #
edge $-1 $553 1 $553 0 $319 $-1 forward 7 unknown #
vertex $-1 $320 $554 #
ellipse-curve $-1 -9.2021037756779194 23.158288598287186 8.9225936879188197 0 0.6560590369687036 0.75470957328743171 1 0 0 1 I I #
point $-1 -8.2021037756779194 24.318720424961342 10.257517771557632 #
loop $-1 $-1 $331 $323 #
plane-surface $-1 0 26.267882531212347 0 0 -1 0 0 0 -1 forward_v I I I I #
coedge $-1 $455 $326 $328 $459 reversed $210 $-1 #
coedge $-1 $326 $454 $555 $556 reversed $210 $-1 #
coedge $-1 $334 $329 $326 $457 forward $324 $-1 #
edge $-1 $460 -5.8508228561139717 $557 -1.9524986436119569 $456 $558 forward 7 unknown #
coedge $-1 $328 $327 $463 $559 reversed $132 $-1 #
edge $-1 $560 -52.535765062424723 $460 -47.370434781106908 $454 $561 forward 7 unknown #
vertex $-1 $330 $562 #
straight-curve $-1 16.539944146492711 22.369558318710329 11.951898576550949 1 0 0 I I #
coedge $-1 $555 $331 $334 $467 reversed $452 $-1 #
coedge $-1 $331 $555 $458 $559 forward $452 $-1 #
vertex $-1 $332 $563 #
straight-curve $-1 24.029949485291596 26.267882531212347 61.675432504274326 0 0 1 I I #
straight-curve $-1 24.029949485291596 -13.381362301378971 43.02970039983272 0 0.75470957328743171 -0.6560590369687036 I I #
edge $-1 $557 -42.12982710067925 $335 -24.029949485291596 $462 $564 forward 7 unknown #
point $-1 24.029949485291596 26.267882531212347 11.951898576550947 #
point $-1 24.029949485291596 22.369558318710332 11.951898576550946 #
edge $-1 $565 1 $565 0 $338 $-1 forward 7 unknown #
vertex $-1 $339 $566 #
ellipse-curve $-1 27.649925008369131 23.158288598287186 8.9225936879188197 0 0.6560590369687036 0.75470957328743171 1 0 0 1 I I #
point $-1 28.649925008369131 24.318720424961342 10.257517771557632 #
edge $-1 $567 1 $567 0 $342 $-1 forward 7 unknown #
vertex $-1 $343 $568 #
ellipse-curve $-1 33.079888292985437 23.158288598287186 8.9225936879188197 0 0.6560590369687036 0.75470957328743171 1 0 0 1 I I #
point $-1 34.079888292985437 24.318720424961342 10.257517771557632 #
edge $-1 $569 1 $569 0 $346 $-1 forward 7 unknown #
vertex $-1 $347 $570 #
ellipse-curve $-1 38.509851577601729 23.158288598287186 8.9225936879188197 0 0.6560590369687036 0.75470957328743171 1 0 0 1 I I #
point $-1 39.509851577601729 24.318720424961342 10.257517771557632 #
loop $-1 $-1 $358 $350 #
plane-surface $-1 0 -26.267882531212347 0 0 1 0 0 0 1 forward_v I I I I #
coedge $-1 $485 $353 $355 $489 reversed $239 $-1 #
coedge $-1 $353 $484 $571 $572 reversed $239 $-1 #
coedge $-1 $361 $356 $353 $487 forward $351 $-1 #
edge $-1 $490 -34.549090075301493 $573 -29.916518231494042 $486 $574 forward 7 unknown #
coedge $-1 $355 $354 $493 $575 reversed $151 $-1 #
edge $-1 $576 6.3995413230577333e-015 $490 7.8814021184022902 $484 $577 forward 7 unknown #
vertex $-1 $357 $578 #
straight-curve $-1 6.1008188639812424 -21.635310687404893 11.951898576550947 -1 0 0 I I #
coedge $-1 $571 $358 $361 $497 reversed $482 $-1 #
coedge $-1 $358 $571 $488 $575 forward $482 $-1 #
vertex $-1 $359 $579 #
straight-curve $-1 20.518140093154805 -26.267882531212351 34.065843888403329 0 0 1 I I #
straight-curve $-1 20.518140093154805 -26.267882531212351 5.5757102587611982 0 -0.5877852410284794 -0.80901700255871778 I I #
edge $-1 $573 3.8851353627701641 $362 20.518140093154805 $492 $580 forward 7 unknown #
point $-1 20.518140093154805 -26.267882531212347 11.951898576550947 #
point $-1 20.518140093154805 -21.635310687404893 11.951898576550947 #
edge $-1 $581 1 $581 0 $365 $-1 forward 7 unknown #
vertex $-1 $366 $582 #
ellipse-curve $-1 8.6374224285943484 -21.304977493360283 6.8409231307879805 0 -0.80901700255871778 0.5877852410284794 1 0 0 1 I I #
point $-1 9.6374224285943484 -23.95159660930862 8.7638044176560737 #
edge $-1 $583 1 $583 0 $369 $-1 forward 7 unknown #
vertex $-1 $370 $584 #
ellipse-curve $-1 15.765853027330628 -21.304977493360283 6.8409231307879805 0 -0.80901700255871778 0.5877852410284794 1 0 0 1 I I #
point $-1 16.765853027330628 -23.95159660930862 8.7638044176560737 #
plane-surface $-1 53.213293862727745 0 0 -1 0 0 0 0 1 forward_v I I I I #
coedge $-1 $378 $376 $380 $513 reversed $261 $-1 #
edge $-1 $391 -11.951898576550947 $515 11.951898576550947 $390 $585 forward 7 unknown #
vertex $-1 $513 $586 #
straight-curve $-1 -53.213293862727745 -26.267882531212347 0 0 0 -1 I I #
edge $-1 $511 -26.267882531212347 $515 26.267882531212347 $509 $587 forward 7 unknown #
straight-curve $-1 0 -26.267882531212347 -11.951898576550947 -1 0 0 I I #
vertex $-1 $383 $588 #
straight-curve $-1 0 26.267882531212347 -11.951898576550947 1 0 0 I I #
point $-1 53.213293862727745 26.267882531212347 -11.951898576550947 #
point $-1 53.213293862727745 -26.267882531212347 -11.951898576550947 #
straight-curve $-1 -53.213293862727745 0 11.951898576550947 0 -1 0 I I #
point $-1 -53.213293862727745 26.267882531212347 11.951898576550947 #
point $-1 -53.213293862727745 -26.267882531212347 11.951898576550947 #
straight-curve $-1 53.213293862727745 -26.267882531212347 0 0 0 -1 I I #
straight-curve $-1 53.213293862727745 26.267882531212347 0 0 0 -1 I I #
plane-surface $-1 0 26.267882531212347 0 0 -1 0 0 0 -1 forward_v I I I I #
coedge $-1 $404 $403 $589 $590 forward $173 $-1 #
edge $-1 $407 42.210616843831545 $591 53.213293862727745 $406 $592 forward 7 unknown #
coedge $-1 $412 $411 $404 $528 reversed $413 $-1 #
edge $-1 $593 -53.213293862727745 $529 -42.210616843831545 $527 $594 forward 7 unknown #
vertex $-1 $419 $595 #
straight-curve $-1 -42.210616843831545 0 -11.951898576550947 0 -1 0 I I #
point $-1 -42.210616843831545 -26.267882531212347 -11.951898576550947 #
coedge $-1 $589 $409 $412 $535 forward $401 $-1 #
coedge $-1 $409 $589 $416 $537 reversed $401 $-1 #
straight-curve $-1 -53.213293862727745 0 -7.2406612831018276 0 1 0 I I #
edge $-1 $414 7.2406612831018276 $593 11.951898576550947 $412 $596 forward 7 unknown #
point $-1 -53.213293862727753 26.267882531212347 -7.2406612831018276 #
edge $-1 $417 7.2406612831018276 $591 11.951898576550947 $533 $597 forward 7 unknown #
point $-1 -53.213293862727753 -26.267882531212347 -7.2406612831018276 #
straight-curve $-1 -42.210616843831545 26.267882531212347 -4.7981399649131937 0 0 -1 I I #
edge $-1 $541 49.723533927723381 $544 53.112295537710033 $423 $598 forward 7 unknown #
vertex $-1 $437 $599 #
straight-curve $-1 -5.582128252600393 28.220381174824304 11.951898576550946 0 1 0 I I #
edge $-1 $544 -1.7339052775467163 $434 16.365972337840937 $433 $600 forward 7 unknown #
vertex $-1 $543 $601 #
straight-curve $-1 -5.582128252600393 -13.381362301378971 43.02970039983272 0 -0.75470957328743171 0.6560590369687036 I I #
point $-1 -5.582128252600393 22.369558318710332 11.951898576550946 #
point $-1 -23.682005867988046 26.267882531212351 8.5631369665642936 #
straight-curve $-1 0 26.267882531212347 11.951898576550947 -1 0 0 I I #
vertex $-1 $440 $602 #
point $-1 -19.062030344910511 23.158288598287186 8.9225936879188197 #
vertex $-1 $444 $603 #
point $-1 -13.632067060294212 23.158288598287186 8.9225936879188197 #
vertex $-1 $448 $604 #
point $-1 -8.2021037756779194 23.158288598287186 8.9225936879188197 #
coedge $-1 $463 $462 $455 $556 forward $452 $-1 #
edge $-1 $557 49.723533927723381 $560 53.112295537710033 $555 $605 forward 7 unknown #
vertex $-1 $467 $606 #
straight-curve $-1 42.12982710067925 28.220381174824304 11.951898576550946 0 1 0 I I #
edge $-1 $560 -25.589882954186539 $464 -7.4900053387988841 $463 $607 forward 7 unknown #
vertex $-1 $559 $608 #
straight-curve $-1 42.12982710067925 -13.381362301378971 43.02970039983272 0 -0.75470957328743171 0.6560590369687036 I I #
point $-1 42.12982710067925 22.369558318710332 11.951898576550946 #
point $-1 24.029949485291596 26.267882531212351 8.5631369665642936 #
straight-curve $-1 0 26.267882531212347 11.951898576550947 -1 0 0 I I #
vertex $-1 $470 $609 #
point $-1 28.649925008369131 23.158288598287186 8.9225936879188197 #
vertex $-1 $474 $610 #
point $-1 34.079888292985437 23.158288598287186 8.9225936879188197 #
vertex $-1 $478 $611 #
point $-1 39.509851577601729 23.158288598287186 8.9225936879188197 #
coedge $-1 $493 $492 $485 $572 forward $482 $-1 #
edge $-1 $573 22.113945311852383 $576 28.490133629642123 $571 $612 forward 7 unknown #
vertex $-1 $497 $613 #
straight-curve $-1 3.8851353627701641 -56.184400762706389 11.951898576550946 0 -1 0 I I #
edge $-1 $576 -2.2156835012110783 $494 14.417321229173563 $493 $614 forward 7 unknown #
vertex $-1 $575 $615 #
straight-curve $-1 3.8851353627701641 -26.267882531212351 5.5757102587611982 0 0.5877852410284794 0.80901700255871778 I I #
point $-1 3.8851353627701641 -21.635310687404893 11.951898576550947 #
point $-1 20.518140093154805 -26.267882531212347 5.5757102587612035 #
straight-curve $-1 0 -26.267882531212347 11.951898576550947 1 0 0 I I #
vertex $-1 $500 $616 #
point $-1 9.6374224285943484 -21.304977493360283 6.8409231307879805 #
vertex $-1 $504 $617 #
point $-1 16.765853027330628 -21.304977493360283 6.8409231307879805 #
straight-curve $-1 -53.213293862727745 26.267882531212347 0 0 0 -1 I I #
point $-1 -53.213293862727745 -26.267882531212347 -11.951898576550947 #
straight-curve $-1 -53.213293862727745 0 -11.951898576550947 0 1 0 I I #
point $-1 -53.213293862727745 26.267882531212347 -11.951898576550947 #
coedge $-1 $533 $532 $525 $590 reversed $401 $-1 #
edge $-1 $591 -26.267882531212347 $593 26.267882531212347 $589 $618 forward 7 unknown #
vertex $-1 $590 $619 #
straight-curve $-1 0 -26.267882531212347 -11.951898576550947 -1 0 0 I I #
vertex $-1 $528 $620 #
straight-curve $-1 0 26.267882531212347 -11.951898576550947 1 0 0 I I #
point $-1 -42.210616843831545 26.267882531212347 -11.951898576550947 #
straight-curve $-1 -53.213293862727745 26.267882531212347 0 0 0 -1 I I #
straight-curve $-1 -53.213293862727745 -26.267882531212347 0 0 0 -1 I I #
straight-curve $-1 -5.582128252600393 26.267882531212347 61.675432504274326 0 0 -1 I I #
point $-1 -5.582128252600393 26.267882531212347 11.951898576550947 #
straight-curve $-1 -7.3160335301471093 26.267882531212347 8.5631369665642989 -1 0 0 I I #
point $-1 -5.582128252600393 26.267882531212351 8.5631369665642936 #
point $-1 -20.062030344910511 22.50222956131848 8.1678841146313879 #
point $-1 -14.632067060294212 22.50222956131848 8.1678841146313879 #
point $-1 -9.2021037756779194 22.50222956131848 8.1678841146313879 #
straight-curve $-1 42.12982710067925 26.267882531212347 61.675432504274326 0 0 -1 I I #
point $-1 42.12982710067925 26.267882531212347 11.951898576550947 #
straight-curve $-1 16.539944146492711 26.267882531212347 8.5631369665642989 -1 0 0 I I #
point $-1 42.12982710067925 26.267882531212351 8.5631369665642936 #
point $-1 27.649925008369131 22.50222956131848 8.1678841146313879 #
point $-1 33.079888292985437 22.50222956131848 8.1678841146313879 #
point $-1 38.509851577601729 22.50222956131848 8.1678841146313879 #
straight-curve $-1 3.8851353627701641 -26.267882531212351 34.065843888403329 0 0 -1 I I #
point $-1 3.8851353627701641 -26.267882531212347 11.951898576550947 #
straight-curve $-1 6.1008188639812424 -26.267882531212347 5.5757102587612071 1 0 0 I I #
point $-1 3.8851353627701641 -26.267882531212347 5.5757102587612035 #
point $-1 8.6374224285943484 -20.495960490801565 6.2531378897595014 #
point $-1 15.765853027330628 -20.495960490801565 6.2531378897595014 #
straight-curve $-1 -53.213293862727745 0 -11.951898576550947 0 1 0 I I #
point $-1 -53.213293862727745 -26.267882531212347 -11.951898576550947 #
point $-1 -53.213293862727745 26.267882531212347 -11.951898576550947 #
End-of-ACIS-data 