500 0 6 0           
7 Unknown 11 ACIS 5.0 NT 24 Fri Mar 26 18:50:32 1999 
-1 9.9999999999999995e-007 1e-010 
body $-1 $6 $-1 $7 #
body $-1 $8 $-1 $9 #
body $-1 $10 $-1 $11 #
body $-1 $12 $-1 $13 #
body $-1 $14 $-1 $15 #
body $-1 $16 $-1 $17 #
lump $-1 $-1 $18 $0 #
transform $-1 1 0 0 0 1 0 0 0 1 51.805780205694752 27.184793438239002 12.717790888784361 1 rotate no_reflect no_shear #
lump $-1 $-1 $19 $1 #
transform $-1 1 0 0 0 1 0 0 0 1 51.805780205694752 27.184793438239002 12.717790888784361 1 rotate no_reflect no_shear #
lump $-1 $-1 $20 $2 #
transform $-1 1 0 0 0 1 0 0 0 1 51.805780205694752 27.184793438239002 12.717790888784361 1 rotate no_reflect no_shear #
lump $-1 $-1 $21 $3 #
transform $-1 1 0 0 0 1 0 0 0 1 51.805780205694752 27.184793438239002 12.717790888784361 1 rotate no_reflect no_shear #
lump $-1 $-1 $22 $4 #
transform $-1 1 0 0 0 1 0 0 0 1 51.805780205694752 27.184793438239002 12.717790888784361 1 rotate no_reflect no_shear #
lump $-1 $-1 $23 $5 #
transform $-1 1 0 0 0 1 0 0 0 1 51.805780205694752 27.184793438239002 12.717790888784361 1 rotate no_reflect no_shear #
shell $-1 $-1 $-1 $24 $-1 $6 #
shell $-1 $-1 $-1 $25 $-1 $8 #
shell $-1 $-1 $-1 $26 $-1 $10 #
shell $-1 $-1 $-1 $27 $-1 $12 #
shell $-1 $-1 $-1 $28 $-1 $14 #
shell $-1 $-1 $-1 $29 $-1 $16 #
face $-1 $30 $31 $18 $-1 $32 forward single #
face $-1 $33 $34 $19 $-1 $35 forward single #
face $-1 $36 $37 $20 $-1 $38 reversed single #
face $-1 $39 $40 $21 $-1 $41 forward single #
face $-1 $42 $43 $22 $-1 $44 forward single #
face $-1 $45 $46 $23 $-1 $47 forward single #
face $-1 $48 $49 $18 $-1 $50 reversed single #
loop $-1 $-1 $51 $24 #
plane-surface $-1 0 0 12.717790888784361 0 0 1 1 0 0 forward_v I I I I #
face $-1 $52 $53 $19 $-1 $54 reversed single #
loop $-1 $-1 $55 $25 #
plane-surface $-1 -45.008455347930251 0 -0.38121466517746683 0 0 1 1 0 0 forward_v I I I I #
face $-1 $56 $57 $20 $-1 $58 reversed single #
loop $-1 $-1 $59 $26 #
plane-surface $-1 28.03194239720122 -109.93266568628012 64.645421862981649 1 0 0 0 0.79863551827123203 -0.60181501223851219 forward_v I I I I #
face $-1 $60 $61 $21 $-1 $62 forward single #
loop $-1 $63 $64 $27 #
cone-surface $-1 32.786709958899927 -20.890094015021013 5.721269657023651 0 0.79863551827123203 -0.60181501223851219 1.5 0 0 1 I I 0 1 1.5 forward I I I I #
face $-1 $65 $66 $22 $-1 $67 forward single #
loop $-1 $68 $69 $28 #
cone-surface $-1 39.918861301447983 -20.890094015021013 5.721269657023651 0 0.79863551827123203 -0.60181501223851219 1.5 0 0 1 I I 0 1 1.5 forward I I I I #
face $-1 $70 $71 $23 $-1 $72 forward single #
loop $-1 $73 $74 $29 #
cone-surface $-1 47.051012643996039 -20.890094015021013 5.721269657023651 0 0.79863551827123203 -0.60181501223851219 1.5 0 0 1 I I 0 1 1.5 forward I I I I #
face $-1 $75 $76 $18 $-1 $77 reversed single #
loop $-1 $-1 $78 $30 #
plane-surface $-1 0 0 -12.717790888784361 0 0 1 1 0 0 forward_v I I I I #
coedge $-1 $79 $80 $81 $82 forward $31 $-1 #
face $-1 $83 $84 $19 $-1 $85 reversed single #
loop $-1 $-1 $86 $33 #
plane-surface $-1 -45.008455347930251 0 -3.3812146651774668 0 0 1 1 0 0 forward_v I I I I #
coedge $-1 $87 $88 $89 $90 forward $34 $-1 #
face $-1 $91 $92 $20 $-1 $93 forward single #
loop $-1 $-1 $94 $36 #
plane-surface $-1 39.918861301447983 -27.184793438238984 2.2904293659499189 0 -0.79863551827123203 0.60181501223851219 1 0 0 forward_v I I I I #
coedge $-1 $95 $96 $97 $98 reversed $37 $-1 #
face $-1 $-1 $99 $21 $-1 $100 forward single #
loop $-1 $101 $102 $39 #
cone-surface $-1 32.786709958899927 -17.925208095105759 3.4870679275012684 0 0.79863551827123203 -0.60181501223851219 0.75 0 0 1 I I -0.70710678118654757 0.70710678118654757 0.75 forward I I I I #
loop $-1 $-1 $103 $27 #
coedge $-1 $64 $64 $104 $105 reversed $40 $-1 #
face $-1 $-1 $106 $22 $-1 $107 forward single #
loop $-1 $108 $109 $42 #
cone-surface $-1 39.918861301447983 -17.925208095105759 3.4870679275012684 0 0.79863551827123203 -0.60181501223851219 0.75 0 0 1 I I -0.70710678118654757 0.70710678118654757 0.75 forward I I I I #
loop $-1 $-1 $110 $28 #
coedge $-1 $69 $69 $111 $112 reversed $43 $-1 #
face $-1 $-1 $113 $23 $-1 $114 forward single #
loop $-1 $115 $116 $45 #
cone-surface $-1 47.051012643996039 -17.925208095105759 3.4870679275012684 0 0.79863551827123203 -0.60181501223851219 0.75 0 0 1 I I -0.70710678118654757 0.70710678118654757 0.75 forward I I I I #
loop $-1 $-1 $117 $29 #
coedge $-1 $74 $74 $118 $119 reversed $46 $-1 #
face $-1 $120 $121 $18 $-1 $122 reversed single #
loop $-1 $-1 $123 $48 #
plane-surface $-1 0 -27.184793438239002 0 0 1 0 0 0 1 forward_v I I I I #
coedge $-1 $124 $125 $126 $127 forward $49 $-1 #
coedge $-1 $128 $51 $129 $130 forward $31 $-1 #
coedge $-1 $51 $128 $131 $132 forward $31 $-1 #
coedge $-1 $133 $134 $51 $82 reversed $135 $-1 #
edge $-1 $136 -27.184793438239002 $137 27.184793438239002 $81 $138 forward 7 unknown #
face $-1 $139 $140 $19 $-1 $141 reversed single #
loop $-1 $-1 $142 $52 #
plane-surface $-1 -38.21113049016575 0 -1.8812146651774668 -1 0 0 0 0 1 forward_v I I I I #
coedge $-1 $143 $144 $145 $146 forward $53 $-1 #
coedge $-1 $147 $55 $148 $149 reversed $34 $-1 #
coedge $-1 $55 $147 $150 $151 reversed $34 $-1 #
coedge $-1 $142 $152 $55 $90 reversed $84 $-1 #
edge $-1 $153 -27.184793438239002 $154 27.184793438239002 $89 $155 forward 7 unknown #
face $-1 $156 $157 $20 $-1 $158 reversed single #
loop $-1 $-1 $159 $56 #
plane-surface $-1 0 0 12.717790888784361 0 0 1 1 0 0 forward_v I I I I #
coedge $-1 $160 $161 $162 $163 reversed $57 $-1 #
coedge $-1 $96 $59 $164 $165 reversed $37 $-1 #
coedge $-1 $59 $95 $160 $166 reversed $37 $-1 #
coedge $-1 $162 $167 $59 $98 forward $157 $-1 #
edge $-1 $168 19.604920042706464 $169 30.032281565540931 $97 $170 forward 7 unknown #
loop $-1 $-1 $104 $60 #
plane-surface $-1 39.918861301447983 -27.184793438238984 2.2904293659499189 0 -0.79863551827123203 0.60181501223851219 1 0 0 forward_v I I I I #
loop $-1 $-1 $171 $39 #
coedge $-1 $102 $102 $103 $172 reversed $61 $-1 #
coedge $-1 $103 $103 $102 $172 forward $63 $-1 #
coedge $-1 $104 $104 $64 $105 forward $99 $-1 #
edge $-1 $173 -4.033571393461167e-017 $173 6.2831853071796004 $104 $174 forward 7 unknown #
loop $-1 $-1 $111 $65 #
plane-surface $-1 39.918861301447983 -27.184793438238984 2.2904293659499189 0 -0.79863551827123203 0.60181501223851219 1 0 0 forward_v I I I I #
loop $-1 $-1 $175 $42 #
coedge $-1 $109 $109 $110 $176 reversed $66 $-1 #
coedge $-1 $110 $110 $109 $176 forward $68 $-1 #
coedge $-1 $111 $111 $69 $112 forward $106 $-1 #
edge $-1 $177 -4.033571393461167e-017 $177 6.2831853071796004 $111 $178 forward 7 unknown #
loop $-1 $-1 $118 $70 #
plane-surface $-1 39.918861301447983 -27.184793438238984 2.2904293659499189 0 -0.79863551827123203 0.60181501223851219 1 0 0 forward_v I I I I #
loop $-1 $-1 $179 $45 #
coedge $-1 $116 $116 $117 $180 reversed $71 $-1 #
coedge $-1 $117 $117 $116 $180 forward $73 $-1 #
coedge $-1 $118 $118 $74 $119 forward $113 $-1 #
edge $-1 $181 -4.033571393461167e-017 $181 6.2831853071796004 $118 $182 forward 7 unknown #
face $-1 $183 $184 $18 $-1 $185 reversed single #
loop $-1 $-1 $186 $75 #
plane-surface $-1 -51.805780205694752 0 0 1 0 0 0 0 -1 forward_v I I I I #
coedge $-1 $187 $131 $188 $189 forward $76 $-1 #
coedge $-1 $190 $78 $187 $191 forward $49 $-1 #
coedge $-1 $78 $190 $192 $193 forward $49 $-1 #
coedge $-1 $134 $133 $78 $127 reversed $135 $-1 #
edge $-1 $194 -27.184793438239002 $195 27.184793438239002 $126 $196 forward 7 unknown #
coedge $-1 $80 $79 $197 $198 forward $31 $-1 #
coedge $-1 $199 $200 $79 $130 reversed $184 $-1 #
edge $-1 $137 -51.805780205694752 $201 51.805780205694752 $129 $202 forward 7 unknown #
coedge $-1 $123 $203 $80 $132 reversed $76 $-1 #
edge $-1 $204 -51.805780205694752 $136 51.805780205694752 $131 $205 forward 7 unknown #
coedge $-1 $126 $81 $203 $206 forward $135 $-1 #
coedge $-1 $81 $126 $199 $207 reversed $135 $-1 #
loop $-1 $-1 $133 $183 #
vertex $-1 $82 $208 #
vertex $-1 $82 $209 #
straight-curve $-1 51.805780205694752 0 12.717790888784361 0 1 0 I I #
face $-1 $210 $211 $19 $-1 $212 reversed single #
loop $-1 $-1 $213 $83 #
plane-surface $-1 0 -27.184793438239002 0 0 1 0 0 0 1 forward_v I I I I #
coedge $-1 $145 $89 $214 $215 reversed $84 $-1 #
coedge $-1 $216 $86 $213 $217 reversed $53 $-1 #
coedge $-1 $86 $216 $218 $219 reversed $53 $-1 #
coedge $-1 $152 $142 $86 $146 reversed $84 $-1 #
edge $-1 $220 -27.184793438239002 $221 27.184793438239002 $145 $222 forward 7 unknown #
coedge $-1 $88 $87 $223 $224 reversed $34 $-1 #
coedge $-1 $225 $226 $87 $149 forward $227 $-1 #
edge $-1 $228 -29.301552531729627 $154 -15.706902816200625 $148 $229 forward 7 unknown #
coedge $-1 $230 $214 $88 $151 forward $140 $-1 #
edge $-1 $153 15.706902816200625 $231 29.301552531729627 $150 $232 forward 7 unknown #
coedge $-1 $89 $145 $225 $233 reversed $84 $-1 #
vertex $-1 $151 $234 #
vertex $-1 $149 $235 #
straight-curve $-1 -38.21113049016575 0 -0.38121466517746683 0 1 0 I I #
face $-1 $-1 $236 $20 $-1 $237 reversed single #
loop $-1 $-1 $97 $91 #
plane-surface $-1 0 -27.184793438239002 0 0 1 0 0 0 1 forward_v I I I I #
coedge $-1 $164 $238 $239 $240 forward $92 $-1 #
coedge $-1 $239 $94 $96 $166 forward $57 $-1 #
coedge $-1 $94 $239 $241 $242 reversed $57 $-1 #
coedge $-1 $243 $97 $94 $163 forward $157 $-1 #
edge $-1 $169 8.0725117464772289 $244 31.846349554970754 $162 $245 forward 7 unknown #
coedge $-1 $246 $159 $95 $165 forward $92 $-1 #
edge $-1 $247 -35.639119688913404 $168 -27.781539404901057 $164 $248 forward 7 unknown #
edge $-1 $169 -2.9487649192601403e-014 $247 13.056471048778359 $96 $249 forward 7 unknown #
coedge $-1 $97 $243 $246 $250 reversed $157 $-1 #
vertex $-1 $250 $251 #
vertex $-1 $98 $252 #
straight-curve $-1 28.03194239720122 -27.184793438238998 32.322710931490825 0 0 -1 I I #
coedge $-1 $171 $171 $-1 $253 reversed $101 $-1 #
edge $-1 $254 0 $254 6.2831853071796004 $102 $255 forward 7 unknown #
vertex $-1 $105 $256 #
ellipse-curve $-1 32.786709958899927 -23.256003296232823 7.5041101273671345 0 -0.79863551827123203 0.60181501223851219 1.5 0 0 1 I I #
coedge $-1 $175 $175 $-1 $257 reversed $108 $-1 #
edge $-1 $258 0 $258 6.2831853071796004 $109 $259 forward 7 unknown #
vertex $-1 $112 $260 #
ellipse-curve $-1 39.918861301447983 -23.256003296232823 7.5041101273671345 0 -0.79863551827123203 0.60181501223851219 1.5 0 0 1 I I #
coedge $-1 $179 $179 $-1 $261 reversed $115 $-1 #
edge $-1 $262 0 $262 6.2831853071796004 $116 $263 forward 7 unknown #
vertex $-1 $119 $264 #
ellipse-curve $-1 47.051012643996039 -23.256003296232823 7.5041101273671345 0 -0.79863551827123203 0.60181501223851219 1.5 0 0 1 I I #
face $-1 $-1 $135 $18 $-1 $265 reversed single #
loop $-1 $-1 $199 $120 #
plane-surface $-1 0 27.184793438239002 0 0 -1 0 0 0 -1 forward_v I I I I #
coedge $-1 $266 $197 $200 $267 forward $121 $-1 #
coedge $-1 $203 $123 $124 $191 reversed $76 $-1 #
coedge $-1 $197 $266 $123 $189 reversed $121 $-1 #
edge $-1 $204 -12.717790888784361 $268 12.717790888784361 $188 $269 forward 7 unknown #
coedge $-1 $125 $124 $266 $270 forward $49 $-1 #
edge $-1 $195 -51.805780205694752 $268 51.805780205694752 $187 $271 forward 7 unknown #
coedge $-1 $200 $199 $125 $193 reversed $184 $-1 #
edge $-1 $272 -51.805780205694752 $194 51.805780205694752 $192 $273 forward 7 unknown #
vertex $-1 $127 $274 #
vertex $-1 $206 $275 #
straight-curve $-1 51.805780205694752 0 -12.717790888784361 0 -1 0 I I #
coedge $-1 $186 $188 $128 $198 reversed $121 $-1 #
edge $-1 $201 -27.184793438239002 $204 27.184793438239002 $197 $276 forward 7 unknown #
coedge $-1 $192 $129 $134 $207 forward $184 $-1 #
coedge $-1 $129 $192 $186 $267 reversed $184 $-1 #
vertex $-1 $130 $277 #
straight-curve $-1 0 27.184793438239002 12.717790888784361 -1 0 0 I I #
coedge $-1 $131 $187 $133 $206 reversed $76 $-1 #
vertex $-1 $198 $278 #
straight-curve $-1 0 -27.184793438239002 12.717790888784361 1 0 0 I I #
edge $-1 $136 -12.717790888784361 $195 12.717790888784361 $133 $279 forward 7 unknown #
edge $-1 $137 -12.717790888784361 $194 12.717790888784361 $134 $280 forward 7 unknown #
point $-1 51.805780205694752 -27.184793438239002 12.717790888784361 #
point $-1 51.805780205694752 27.184793438239002 12.717790888784361 #
face $-1 $-1 $227 $19 $-1 $281 reversed single #
loop $-1 $-1 $282 $139 #
plane-surface $-1 -51.805780205694752 0 0 1 0 0 0 0 -1 forward_v I I I I #
coedge $-1 $214 $230 $143 $217 forward $140 $-1 #
coedge $-1 $150 $213 $142 $215 forward $140 $-1 #
edge $-1 $221 -2.4406073325887334 $153 0.55939266741126659 $214 $283 forward 7 unknown #
coedge $-1 $144 $143 $282 $284 reversed $53 $-1 #
edge $-1 $285 -29.301552531729627 $221 -15.706902816200625 $213 $286 forward 7 unknown #
coedge $-1 $226 $225 $144 $219 forward $227 $-1 #
edge $-1 $220 15.706902816200625 $287 29.301552531729627 $218 $288 forward 7 unknown #
vertex $-1 $219 $289 #
vertex $-1 $217 $290 #
straight-curve $-1 -38.21113049016575 0 -3.3812146651774668 0 -1 0 I I #
coedge $-1 $291 $292 $147 $224 forward $211 $-1 #
edge $-1 $231 -27.184793438239002 $228 27.184793438239002 $223 $293 forward 7 unknown #
coedge $-1 $218 $148 $152 $233 forward $227 $-1 #
coedge $-1 $148 $218 $291 $294 reversed $227 $-1 #
loop $-1 $-1 $218 $210 #
vertex $-1 $294 $295 #
straight-curve $-1 -22.504227673965126 27.184793438239002 -0.38121466517746683 1 0 0 I I #
coedge $-1 $213 $150 $292 $296 forward $140 $-1 #
vertex $-1 $296 $297 #
straight-curve $-1 -22.504227673965126 -27.184793438239002 -0.38121466517746683 -1 0 0 I I #
edge $-1 $154 -0.55939266741126659 $220 2.4406073325887334 $225 $298 forward 7 unknown #
point $-1 -38.21113049016575 -27.184793438239002 -0.38121466517746683 #
point $-1 -38.21113049016575 27.184793438239002 -0.38121466517746683 #
loop $-1 $-1 $241 $156 #
plane-surface $-1 51.805780205694752 0 0 -1 0 0 0 0 1 forward_v I I I I #
coedge $-1 $159 $246 $299 $300 forward $92 $-1 #
coedge $-1 $161 $160 $159 $240 reversed $57 $-1 #
edge $-1 $301 -31.846349554970754 $247 -8.0725117464772289 $159 $302 forward 7 unknown #
coedge $-1 $299 $303 $161 $242 forward $236 $-1 #
edge $-1 $244 -7.2654992759981081 $301 5.7909717727802814 $241 $304 forward 7 unknown #
coedge $-1 $167 $162 $303 $305 reversed $157 $-1 #
vertex $-1 $163 $306 #
straight-curve $-1 19.959430650723991 -27.184793438239002 2.2904293659498949 1 0 0 I I #
coedge $-1 $238 $164 $167 $250 forward $92 $-1 #
vertex $-1 $165 $307 #
straight-curve $-1 28.03194239720122 -54.966332843140059 12.717790888784361 0 -1 0 I I #
straight-curve $-1 28.03194239720122 -27.184793438238984 2.2904293659499189 0 0.60181501223851219 0.79863551827123203 I I #
edge $-1 $168 28.03194239720122 $308 51.805780205694752 $167 $309 forward 7 unknown #
point $-1 28.03194239720122 -27.184793438239002 12.717790888784361 #
point $-1 28.03194239720122 -27.184793438239002 2.2904293659498953 #
edge $-1 $310 1 $310 0 $171 $-1 forward 7 unknown #
vertex $-1 $172 $311 #
ellipse-curve $-1 32.786709958899927 -18.524184733809182 3.9384291866801524 0 -0.79863551827123203 0.60181501223851219 1.5 0 0 1 I I #
point $-1 34.286709958899927 -23.256003296232844 7.5041101273671504 #
edge $-1 $312 1 $312 0 $175 $-1 forward 7 unknown #
vertex $-1 $176 $313 #
ellipse-curve $-1 39.918861301447983 -18.524184733809182 3.9384291866801524 0 -0.79863551827123203 0.60181501223851219 1.5 0 0 1 I I #
point $-1 41.418861301447983 -23.256003296232844 7.5041101273671504 #
edge $-1 $314 1 $314 0 $179 $-1 forward 7 unknown #
vertex $-1 $180 $315 #
ellipse-curve $-1 47.051012643996039 -18.524184733809182 3.9384291866801524 0 -0.79863551827123203 0.60181501223851219 1.5 0 0 1 I I #
point $-1 48.551012643996039 -23.256003296232844 7.5041101273671504 #
plane-surface $-1 51.805780205694752 0 0 -1 0 0 0 0 1 forward_v I I I I #
coedge $-1 $188 $186 $190 $270 reversed $121 $-1 #
edge $-1 $201 -12.717790888784361 $272 12.717790888784361 $200 $316 forward 7 unknown #
vertex $-1 $270 $317 #
straight-curve $-1 -51.805780205694752 -27.184793438239002 0 0 0 -1 I I #
edge $-1 $268 -27.184793438239002 $272 27.184793438239002 $266 $318 forward 7 unknown #
straight-curve $-1 0 -27.184793438239002 -12.717790888784361 -1 0 0 I I #
vertex $-1 $193 $319 #
straight-curve $-1 0 27.184793438239002 -12.717790888784361 1 0 0 I I #
point $-1 51.805780205694752 27.184793438239002 -12.717790888784361 #
point $-1 51.805780205694752 -27.184793438239002 -12.717790888784361 #
straight-curve $-1 -51.805780205694752 0 12.717790888784361 0 -1 0 I I #
point $-1 -51.805780205694752 27.184793438239002 12.717790888784361 #
point $-1 -51.805780205694752 -27.184793438239002 12.717790888784361 #
straight-curve $-1 51.805780205694752 -27.184793438239002 0 0 0 -1 I I #
straight-curve $-1 51.805780205694752 27.184793438239002 0 0 0 -1 I I #
plane-surface $-1 0 27.184793438239002 0 0 -1 0 0 0 -1 forward_v I I I I #
coedge $-1 $292 $291 $216 $284 forward $211 $-1 #
straight-curve $-1 -38.21113049016575 -27.184793438239002 -0.94060733258873341 0 0 1 I I #
edge $-1 $287 -27.184793438239002 $285 27.184793438239002 $282 $320 forward 7 unknown #
vertex $-1 $217 $321 #
straight-curve $-1 -22.504227673965126 -27.184793438239002 -3.3812146651774668 1 0 0 I I #
vertex $-1 $219 $322 #
straight-curve $-1 -22.504227673965126 27.184793438239002 -3.3812146651774668 -1 0 0 I I #
point $-1 -38.21113049016575 27.184793438239002 -3.3812146651774668 #
point $-1 -38.21113049016575 -27.184793438239002 -3.3812146651774668 #
coedge $-1 $282 $223 $226 $294 forward $211 $-1 #
coedge $-1 $223 $282 $230 $296 reversed $211 $-1 #
straight-curve $-1 -51.805780205694752 0 -0.38121466517746683 0 1 0 I I #
edge $-1 $228 0.38121466517746683 $287 3.3812146651774668 $226 $323 forward 7 unknown #
point $-1 -51.805780205694752 27.184793438239002 -0.38121466517746683 #
edge $-1 $231 0.38121466517746683 $285 3.3812146651774668 $292 $324 forward 7 unknown #
point $-1 -51.805780205694752 -27.184793438239002 -0.38121466517746683 #
straight-curve $-1 -38.21113049016575 27.184793438239002 -0.94060733258873341 0 0 -1 I I #
coedge $-1 $303 $241 $238 $300 reversed $236 $-1 #
edge $-1 $308 -27.184793438239002 $301 -19.327213154226655 $299 $325 forward 7 unknown #
vertex $-1 $242 $326 #
straight-curve $-1 19.959430650723991 -19.327213154226655 12.717790888784361 -1 0 0 I I #
coedge $-1 $241 $299 $243 $305 forward $236 $-1 #
straight-curve $-1 51.805780205694752 -22.812306902535298 8.0929151457359048 0 0.60181501223851219 0.79863551827123203 I I #
edge $-1 $308 -12.717790888784361 $244 -2.2904293659498953 $303 $327 forward 7 unknown #
point $-1 51.805780205694745 -27.184793438239002 2.2904293659498953 #
point $-1 28.03194239720122 -19.327213154226655 12.717790888784361 #
vertex $-1 $300 $328 #
straight-curve $-1 0 -27.184793438239002 12.717790888784361 1 0 0 I I #
vertex $-1 $253 $329 #
point $-1 34.286709958899927 -18.524184733809182 3.9384291866801524 #
vertex $-1 $257 $330 #
point $-1 41.418861301447983 -18.524184733809182 3.9384291866801524 #
vertex $-1 $261 $331 #
point $-1 48.551012643996039 -18.524184733809182 3.9384291866801524 #
straight-curve $-1 -51.805780205694752 27.184793438239002 0 0 0 -1 I I #
point $-1 -51.805780205694752 -27.184793438239002 -12.717790888784361 #
straight-curve $-1 -51.805780205694752 0 -12.717790888784361 0 1 0 I I #
point $-1 -51.805780205694752 27.184793438239002 -12.717790888784361 #
straight-curve $-1 -51.805780205694752 0 -3.3812146651774668 0 -1 0 I I #
point $-1 -51.805780205694752 -27.184793438239002 -3.3812146651774668 #
point $-1 -51.805780205694752 27.184793438239002 -3.3812146651774668 #
straight-curve $-1 -51.805780205694752 27.184793438239002 0 0 0 -1 I I #
straight-curve $-1 -51.805780205694752 -27.184793438239002 0 0 0 -1 I I #
straight-curve $-1 51.805780205694752 0 12.717790888784361 0 1 0 I I #
point $-1 51.805780205694745 -19.327213154226655 12.717790888784361 #
straight-curve $-1 51.805780205694752 -27.184793438239002 0 0 0 -1 I I #
point $-1 51.805780205694752 -27.184793438239002 12.717790888784361 #
point $-1 32.786709958899927 -17.326231456402336 3.0357066683223843 #
point $-1 39.918861301447983 -17.326231456402336 3.0357066683223843 #
point $-1 47.051012643996039 -17.326231456402336 3.0357066683223843 #
End-of-ACIS-data 