500 0 12 0           
7 Unknown 11 ACIS 5.0 NT 24 Thu Mar 25 18:26:22 1999 
-1 9.9999999999999995e-007 1e-010 
body $-1 $12 $-1 $13 #
body $-1 $14 $-1 $15 #
body $-1 $16 $-1 $17 #
body $-1 $18 $-1 $19 #
body $-1 $20 $-1 $21 #
body $-1 $22 $-1 $23 #
body $-1 $24 $-1 $25 #
body $-1 $26 $-1 $27 #
body $-1 $28 $-1 $29 #
body $-1 $30 $-1 $31 #
body $-1 $32 $-1 $33 #
body $-1 $34 $-1 $35 #
lump $-1 $-1 $36 $0 #
transform $-1 1 0 0 0 1 0 0 0 1 49.874568926053655 31.712140455026848 13.338513204726432 1 rotate no_reflect no_shear #
lump $-1 $-1 $37 $1 #
transform $-1 1 0 0 0 1 0 0 0 1 49.874568926053655 31.712140455026848 13.338513204726432 1 rotate no_reflect no_shear #
lump $-1 $-1 $38 $2 #
transform $-1 1 0 0 0 1 0 0 0 1 49.874568926053655 31.712140455026848 13.338513204726432 1 rotate no_reflect no_shear #
lump $-1 $-1 $39 $3 #
transform $-1 1 0 0 0 1 0 0 0 1 49.874568926053655 31.712140455026848 13.338513204726432 1 rotate no_reflect no_shear #
lump $-1 $-1 $40 $4 #
transform $-1 1 0 0 0 1 0 0 0 1 49.874568926053655 31.712140455026848 13.338513204726432 1 rotate no_reflect no_shear #
lump $-1 $-1 $41 $5 #
transform $-1 1 0 0 0 1 0 0 0 1 49.874568926053655 31.712140455026848 13.338513204726432 1 rotate no_reflect no_shear #
lump $-1 $-1 $42 $6 #
transform $-1 1 0 0 0 1 0 0 0 1 49.874568926053655 31.712140455026848 13.338513204726432 1 rotate no_reflect no_shear #
lump $-1 $-1 $43 $7 #
transform $-1 1 0 0 0 1 0 0 0 1 49.874568926053655 31.712140455026848 13.338513204726432 1 rotate no_reflect no_shear #
lump $-1 $-1 $44 $8 #
transform $-1 1 0 0 0 1 0 0 0 1 49.874568926053655 31.712140455026848 13.338513204726432 1 rotate no_reflect no_shear #
lump $-1 $-1 $45 $9 #
transform $-1 1 0 0 0 1 0 0 0 1 49.874568926053655 31.712140455026848 13.338513204726432 1 rotate no_reflect no_shear #
lump $-1 $-1 $46 $10 #
transform $-1 1 0 0 0 1 0 0 0 1 49.874568926053655 31.712140455026848 13.338513204726432 1 rotate no_reflect no_shear #
lump $-1 $-1 $47 $11 #
transform $-1 1 0 0 0 1 0 0 0 1 49.874568926053655 31.712140455026848 13.338513204726432 1 rotate no_reflect no_shear #
shell $-1 $-1 $-1 $48 $-1 $12 #
shell $-1 $-1 $-1 $49 $-1 $14 #
shell $-1 $-1 $-1 $50 $-1 $16 #
shell $-1 $-1 $-1 $51 $-1 $18 #
shell $-1 $-1 $-1 $52 $-1 $20 #
shell $-1 $-1 $-1 $53 $-1 $22 #
shell $-1 $-1 $-1 $54 $-1 $24 #
shell $-1 $-1 $-1 $55 $-1 $26 #
shell $-1 $-1 $-1 $56 $-1 $28 #
shell $-1 $-1 $-1 $57 $-1 $30 #
shell $-1 $-1 $-1 $58 $-1 $32 #
shell $-1 $-1 $-1 $59 $-1 $34 #
face $-1 $60 $61 $36 $-1 $62 forward single #
face $-1 $63 $64 $37 $-1 $65 reversed single #
face $-1 $66 $67 $38 $-1 $68 reversed single #
face $-1 $69 $70 $39 $-1 $71 reversed single #
face $-1 $72 $73 $40 $-1 $74 forward single #
face $-1 $75 $76 $41 $-1 $77 forward single #
face $-1 $78 $79 $42 $-1 $80 reversed single #
face $-1 $81 $82 $43 $-1 $83 forward single #
face $-1 $84 $85 $44 $-1 $86 forward single #
face $-1 $87 $88 $45 $-1 $89 reversed single #
face $-1 $90 $91 $46 $-1 $92 forward single #
face $-1 $93 $94 $47 $-1 $95 forward single #
face $-1 $96 $97 $36 $-1 $98 reversed single #
loop $-1 $-1 $99 $48 #
plane-surface $-1 0 0 13.338513204726432 0 0 1 1 0 0 forward_v I I I I #
face $-1 $100 $101 $37 $-1 $102 reversed single #
loop $-1 $-1 $103 $49 #
plane-surface $-1 -46.123771034282363 -19.340015090139907 0 0 -1 0 0 0 -1 forward_v I I I I #
face $-1 $104 $105 $38 $-1 $106 reversed single #
loop $-1 $-1 $107 $50 #
plane-surface $-1 -46.123771034282363 19.340015090139907 0 0 1 0 0 0 1 forward_v I I I I #
face $-1 $108 $109 $39 $-1 $110 reversed single #
loop $-1 $-1 $111 $51 #
plane-surface $-1 40.034262979612535 -10.701479609742009 141.87679464216004 0 -1 0 -0.6560590369687036 0 -0.75470957328743171 forward_v I I I I #
face $-1 $112 $113 $40 $-1 $114 forward single #
loop $-1 $115 $116 $52 #
cone-surface $-1 42.386883446182317 -15.26855722001358 6.694857532989996 -0.6560590369687036 0 -0.75470957328743171 0.37735478664371586 0 -0.3280295184843518 1 I I 0 1 0.5 forward I I I I #
face $-1 $117 $118 $41 $-1 $119 forward single #
loop $-1 $120 $121 $53 #
cone-surface $-1 42.386883446182317 -12.528310653850639 6.694857532989996 -0.6560590369687036 0 -0.75470957328743171 0.37735478664371586 0 -0.3280295184843518 1 I I 0 1 0.5 forward I I I I #
face $-1 $122 $123 $42 $-1 $124 reversed single #
loop $-1 $-1 $125 $54 #
plane-surface $-1 40.034262979612535 3.1969543271901069 141.87679464216004 0 -1 0 -0.6560590369687036 0 -0.75470957328743171 forward_v I I I I #
face $-1 $126 $127 $43 $-1 $128 forward single #
loop $-1 $129 $130 $55 #
cone-surface $-1 42.386883446182317 -1.3701232830814654 6.694857532989996 -0.6560590369687036 0 -0.75470957328743171 0.37735478664371586 0 -0.3280295184843518 1 I I 0 1 0.5 forward I I I I #
face $-1 $131 $132 $44 $-1 $133 forward single #
loop $-1 $134 $135 $56 #
cone-surface $-1 42.386883446182317 1.370123283081476 6.694857532989996 -0.6560590369687036 0 -0.75470957328743171 0.37735478664371586 0 -0.3280295184843518 1 I I 0 1 0.5 forward I I I I #
face $-1 $136 $137 $45 $-1 $138 reversed single #
loop $-1 $-1 $139 $57 #
plane-surface $-1 40.034262979612535 17.095388264122221 141.87679464216004 0 -1 0 -0.6560590369687036 0 -0.75470957328743171 forward_v I I I I #
face $-1 $140 $141 $46 $-1 $142 forward single #
loop $-1 $143 $144 $58 #
cone-surface $-1 42.386883446182317 12.528310653850646 6.694857532989996 -0.6560590369687036 0 -0.75470957328743171 0.37735478664371586 0 -0.3280295184843518 1 I I 0 1 0.5 forward I I I I #
face $-1 $145 $146 $47 $-1 $147 forward single #
loop $-1 $148 $149 $59 #
cone-surface $-1 42.386883446182317 15.268557220013591 6.694857532989996 -0.6560590369687036 0 -0.75470957328743171 0.37735478664371586 0 -0.3280295184843518 1 I I 0 1 0.5 forward I I I I #
face $-1 $150 $151 $36 $-1 $152 reversed single #
loop $-1 $-1 $153 $60 #
plane-surface $-1 0 0 -13.338513204726432 0 0 1 1 0 0 forward_v I I I I #
coedge $-1 $154 $155 $156 $157 forward $61 $-1 #
face $-1 $158 $159 $37 $-1 $160 forward single #
loop $-1 $-1 $161 $63 #
plane-surface $-1 -42.372973142511071 -25.526077772583378 0 -1 0 0 0 0 1 forward_v I I I I #
coedge $-1 $162 $163 $164 $165 forward $64 $-1 #
face $-1 $166 $167 $38 $-1 $168 reversed single #
loop $-1 $-1 $169 $66 #
plane-surface $-1 -42.372973142511071 25.526077772583378 0 -1 0 0 0 0 1 forward_v I I I I #
coedge $-1 $170 $171 $172 $173 reversed $67 $-1 #
face $-1 $174 $175 $39 $-1 $176 reversed single #
loop $-1 $-1 $177 $69 #
plane-surface $-1 -25.407060338099441 -13.898433936932108 66.595165378006925 0.6560590369687036 0 0.75470957328743171 0.75470957328743171 0 -0.6560590369687036 forward_v I I I I #
coedge $-1 $178 $179 $180 $181 reversed $70 $-1 #
face $-1 $-1 $182 $40 $-1 $183 forward single #
loop $-1 $184 $185 $72 #
cone-surface $-1 41.743613425903078 -15.26855722001358 5.9548600401474445 -0.6560590369687036 0 -0.75470957328743171 0.18867739332185793 0 -0.1640147592421759 1 I I -0.70710678118654746 0.70710678118654746 0.25 forward I I I I #
loop $-1 $-1 $186 $52 #
coedge $-1 $116 $116 $187 $188 reversed $73 $-1 #
face $-1 $-1 $189 $41 $-1 $190 forward single #
loop $-1 $191 $192 $75 #
cone-surface $-1 41.743613425903078 -12.528310653850639 5.9548600401474445 -0.6560590369687036 0 -0.75470957328743171 0.18867739332185793 0 -0.1640147592421759 1 I I -0.70710678118654746 0.70710678118654746 0.25 forward I I I I #
loop $-1 $-1 $193 $53 #
coedge $-1 $121 $121 $194 $195 reversed $76 $-1 #
face $-1 $196 $197 $42 $-1 $198 reversed single #
loop $-1 $-1 $199 $78 #
plane-surface $-1 -25.407060338099441 7.1054273576010019e-015 66.595165378006925 0.6560590369687036 0 0.75470957328743171 0.75470957328743171 0 -0.6560590369687036 forward_v I I I I #
coedge $-1 $200 $201 $202 $203 reversed $79 $-1 #
face $-1 $-1 $204 $43 $-1 $205 forward single #
loop $-1 $206 $207 $81 #
cone-surface $-1 41.743613425903078 -1.3701232830814654 5.9548600401474445 -0.6560590369687036 0 -0.75470957328743171 0.18867739332185793 0 -0.1640147592421759 1 I I -0.70710678118654746 0.70710678118654746 0.25 forward I I I I #
loop $-1 $-1 $208 $55 #
coedge $-1 $130 $130 $209 $210 reversed $82 $-1 #
face $-1 $-1 $211 $44 $-1 $212 forward single #
loop $-1 $213 $214 $84 #
cone-surface $-1 41.743613425903078 1.370123283081476 5.9548600401474445 -0.6560590369687036 0 -0.75470957328743171 0.18867739332185793 0 -0.1640147592421759 1 I I -0.70710678118654746 0.70710678118654746 0.25 forward I I I I #
loop $-1 $-1 $215 $56 #
coedge $-1 $135 $135 $216 $217 reversed $85 $-1 #
face $-1 $218 $219 $45 $-1 $220 reversed single #
loop $-1 $-1 $221 $87 #
plane-surface $-1 -25.407060338099441 13.898433936932122 66.595165378006925 0.6560590369687036 0 0.75470957328743171 0.75470957328743171 0 -0.6560590369687036 forward_v I I I I #
coedge $-1 $222 $223 $224 $225 reversed $88 $-1 #
face $-1 $-1 $226 $46 $-1 $227 forward single #
loop $-1 $228 $229 $90 #
cone-surface $-1 41.743613425903078 12.528310653850646 5.9548600401474445 -0.6560590369687036 0 -0.75470957328743171 0.18867739332185793 0 -0.1640147592421759 1 I I -0.70710678118654746 0.70710678118654746 0.25 forward I I I I #
loop $-1 $-1 $230 $58 #
coedge $-1 $144 $144 $231 $232 reversed $91 $-1 #
face $-1 $-1 $233 $47 $-1 $234 forward single #
loop $-1 $235 $236 $93 #
cone-surface $-1 41.743613425903078 15.268557220013591 5.9548600401474445 -0.6560590369687036 0 -0.75470957328743171 0.18867739332185793 0 -0.1640147592421759 1 I I -0.70710678118654746 0.70710678118654746 0.25 forward I I I I #
loop $-1 $-1 $237 $59 #
coedge $-1 $149 $149 $238 $239 reversed $94 $-1 #
face $-1 $240 $241 $36 $-1 $242 reversed single #
loop $-1 $-1 $243 $96 #
plane-surface $-1 0 -31.712140455026848 0 0 1 0 0 0 1 forward_v I I I I #
coedge $-1 $244 $245 $246 $247 forward $97 $-1 #
coedge $-1 $248 $99 $249 $250 forward $61 $-1 #
coedge $-1 $99 $248 $251 $252 forward $61 $-1 #
coedge $-1 $253 $254 $99 $157 reversed $255 $-1 #
edge $-1 $256 -31.712140455026848 $257 31.712140455026848 $156 $258 forward 7 unknown #
face $-1 $259 $260 $37 $-1 $261 reversed single #
loop $-1 $-1 $262 $100 #
plane-surface $-1 0 0 13.338513204726432 0 0 1 1 0 0 forward_v I I I I #
coedge $-1 $263 $264 $265 $266 reversed $101 $-1 #
coedge $-1 $267 $103 $268 $269 reversed $64 $-1 #
coedge $-1 $103 $267 $270 $271 reversed $64 $-1 #
coedge $-1 $264 $263 $103 $165 reversed $101 $-1 #
edge $-1 $272 -13.338513204726432 $273 13.338513204726432 $164 $274 forward 7 unknown #
face $-1 $275 $276 $38 $-1 $277 reversed single #
loop $-1 $-1 $278 $104 #
plane-surface $-1 0 0 -13.338513204726432 0 0 1 1 0 0 forward_v I I I I #
coedge $-1 $279 $280 $281 $282 forward $105 $-1 #
coedge $-1 $281 $107 $283 $284 reversed $67 $-1 #
coedge $-1 $107 $281 $285 $286 reversed $67 $-1 #
coedge $-1 $287 $288 $107 $173 forward $276 $-1 #
edge $-1 $289 -13.338513204726432 $290 13.338513204726432 $172 $291 forward 7 unknown #
face $-1 $292 $293 $39 $-1 $294 reversed single #
loop $-1 $-1 $295 $108 #
plane-surface $-1 40.034262979612535 -17.095388264122207 141.87679464216004 0 1 0 0.6560590369687036 0 0.75470957328743171 forward_v I I I I #
coedge $-1 $296 $297 $298 $299 reversed $109 $-1 #
coedge $-1 $179 $111 $300 $301 reversed $70 $-1 #
coedge $-1 $111 $178 $296 $302 reversed $70 $-1 #
coedge $-1 $298 $303 $111 $181 forward $304 $-1 #
edge $-1 $305 -29.857437436247388 $306 -15.840576998578818 $180 $307 forward 7 unknown #
loop $-1 $-1 $187 $112 #
plane-surface $-1 -25.407060338099441 -13.898433936932108 66.595165378006925 0.6560590369687036 0 0.75470957328743171 0.75470957328743171 0 -0.6560590369687036 forward_v I I I I #
loop $-1 $-1 $308 $72 #
coedge $-1 $185 $185 $186 $309 reversed $113 $-1 #
coedge $-1 $186 $186 $185 $309 forward $115 $-1 #
coedge $-1 $187 $187 $116 $188 forward $182 $-1 #
edge $-1 $310 0 $310 6.2831853071796004 $187 $311 forward 7 unknown #
loop $-1 $-1 $194 $117 #
plane-surface $-1 -25.407060338099441 -13.898433936932108 66.595165378006925 0.6560590369687036 0 0.75470957328743171 0.75470957328743171 0 -0.6560590369687036 forward_v I I I I #
loop $-1 $-1 $312 $75 #
coedge $-1 $192 $192 $193 $313 reversed $118 $-1 #
coedge $-1 $193 $193 $192 $313 forward $120 $-1 #
coedge $-1 $194 $194 $121 $195 forward $189 $-1 #
edge $-1 $314 0 $314 6.2831853071796004 $194 $315 forward 7 unknown #
face $-1 $316 $317 $42 $-1 $318 reversed single #
loop $-1 $-1 $319 $122 #
plane-surface $-1 40.034262979612535 -3.1969543271900926 141.87679464216004 0 1 0 0.6560590369687036 0 0.75470957328743171 forward_v I I I I #
coedge $-1 $320 $321 $322 $323 reversed $123 $-1 #
coedge $-1 $201 $125 $324 $325 reversed $79 $-1 #
coedge $-1 $125 $200 $320 $326 reversed $79 $-1 #
coedge $-1 $322 $327 $125 $203 forward $328 $-1 #
edge $-1 $329 -29.857437436247388 $330 -15.840576998578818 $202 $331 forward 7 unknown #
loop $-1 $-1 $209 $126 #
plane-surface $-1 -25.407060338099441 7.1054273576010019e-015 66.595165378006925 0.6560590369687036 0 0.75470957328743171 0.75470957328743171 0 -0.6560590369687036 forward_v I I I I #
loop $-1 $-1 $332 $81 #
coedge $-1 $207 $207 $208 $333 reversed $127 $-1 #
coedge $-1 $208 $208 $207 $333 forward $129 $-1 #
coedge $-1 $209 $209 $130 $210 forward $204 $-1 #
edge $-1 $334 0 $334 6.2831853071796004 $209 $335 forward 7 unknown #
loop $-1 $-1 $216 $131 #
plane-surface $-1 -25.407060338099441 7.1054273576010019e-015 66.595165378006925 0.6560590369687036 0 0.75470957328743171 0.75470957328743171 0 -0.6560590369687036 forward_v I I I I #
loop $-1 $-1 $336 $84 #
coedge $-1 $214 $214 $215 $337 reversed $132 $-1 #
coedge $-1 $215 $215 $214 $337 forward $134 $-1 #
coedge $-1 $216 $216 $135 $217 forward $211 $-1 #
edge $-1 $338 0 $338 6.2831853071796004 $216 $339 forward 7 unknown #
face $-1 $340 $341 $45 $-1 $342 reversed single #
loop $-1 $-1 $343 $136 #
plane-surface $-1 40.034262979612535 10.701479609742023 141.87679464216004 0 1 0 0.6560590369687036 0 0.75470957328743171 forward_v I I I I #
coedge $-1 $344 $345 $346 $347 reversed $137 $-1 #
coedge $-1 $223 $139 $348 $349 reversed $88 $-1 #
coedge $-1 $139 $222 $344 $350 reversed $88 $-1 #
coedge $-1 $346 $351 $139 $225 forward $352 $-1 #
edge $-1 $353 -29.857437436247388 $354 -15.840576998578818 $224 $355 forward 7 unknown #
loop $-1 $-1 $231 $140 #
plane-surface $-1 -25.407060338099441 13.898433936932122 66.595165378006925 0.6560590369687036 0 0.75470957328743171 0.75470957328743171 0 -0.6560590369687036 forward_v I I I I #
loop $-1 $-1 $356 $90 #
coedge $-1 $229 $229 $230 $357 reversed $141 $-1 #
coedge $-1 $230 $230 $229 $357 forward $143 $-1 #
coedge $-1 $231 $231 $144 $232 forward $226 $-1 #
edge $-1 $358 0 $358 6.2831853071796004 $231 $359 forward 7 unknown #
loop $-1 $-1 $238 $145 #
plane-surface $-1 -25.407060338099441 13.898433936932122 66.595165378006925 0.6560590369687036 0 0.75470957328743171 0.75470957328743171 0 -0.6560590369687036 forward_v I I I I #
loop $-1 $-1 $360 $93 #
coedge $-1 $236 $236 $237 $361 reversed $146 $-1 #
coedge $-1 $237 $237 $236 $361 forward $148 $-1 #
coedge $-1 $238 $238 $149 $239 forward $233 $-1 #
edge $-1 $362 0 $362 6.2831853071796004 $238 $363 forward 7 unknown #
face $-1 $364 $365 $36 $-1 $366 reversed single #
loop $-1 $-1 $367 $150 #
plane-surface $-1 -49.874568926053655 0 0 1 0 0 0 0 -1 forward_v I I I I #
coedge $-1 $368 $251 $369 $370 forward $151 $-1 #
coedge $-1 $371 $153 $368 $372 forward $97 $-1 #
coedge $-1 $153 $371 $373 $374 forward $97 $-1 #
coedge $-1 $254 $253 $153 $247 reversed $255 $-1 #
edge $-1 $375 -31.712140455026848 $376 31.712140455026848 $246 $377 forward 7 unknown #
coedge $-1 $155 $154 $378 $379 forward $61 $-1 #
coedge $-1 $380 $381 $154 $250 reversed $365 $-1 #
edge $-1 $257 -49.874568926053655 $382 49.874568926053655 $249 $383 forward 7 unknown #
coedge $-1 $243 $384 $155 $252 reversed $151 $-1 #
edge $-1 $385 -49.874568926053655 $256 49.874568926053655 $251 $386 forward 7 unknown #
coedge $-1 $246 $156 $384 $387 forward $255 $-1 #
coedge $-1 $156 $246 $380 $388 reversed $255 $-1 #
loop $-1 $-1 $253 $364 #
vertex $-1 $157 $389 #
vertex $-1 $157 $390 #
straight-curve $-1 49.874568926053655 0 13.338513204726432 0 1 0 I I #
face $-1 $391 $392 $37 $-1 $393 reversed single #
loop $-1 $-1 $394 $158 #
plane-surface $-1 -49.874568926053655 0 0 1 0 0 0 0 -1 forward_v I I I I #
coedge $-1 $270 $395 $264 $396 forward $159 $-1 #
coedge $-1 $164 $161 $397 $398 reversed $101 $-1 #
coedge $-1 $161 $164 $262 $396 reversed $101 $-1 #
coedge $-1 $399 $400 $161 $266 forward $401 $-1 #
edge $-1 $402 -13.338513204726432 $403 13.338513204726432 $265 $404 forward 7 unknown #
coedge $-1 $163 $162 $394 $405 reversed $64 $-1 #
coedge $-1 $397 $406 $162 $269 forward $392 $-1 #
edge $-1 $407 -26.812683408912473 $273 -19.31108762536989 $268 $408 forward 7 unknown #
coedge $-1 $409 $262 $163 $271 forward $159 $-1 #
edge $-1 $272 19.31108762536989 $410 26.812683408912473 $270 $411 forward 7 unknown #
vertex $-1 $271 $412 #
vertex $-1 $269 $413 #
straight-curve $-1 -42.372973142511071 -19.340015090139907 0 0 0 -1 I I #
face $-1 $414 $415 $38 $-1 $416 forward single #
loop $-1 $-1 $172 $166 #
plane-surface $-1 -49.874568926053655 0 0 1 0 0 0 0 -1 forward_v I I I I #
coedge $-1 $283 $417 $279 $418 forward $167 $-1 #
coedge $-1 $419 $169 $278 $418 reversed $105 $-1 #
coedge $-1 $169 $419 $420 $421 reversed $105 $-1 #
coedge $-1 $171 $170 $169 $282 reversed $67 $-1 #
edge $-1 $422 -13.338513204726432 $423 13.338513204726432 $169 $424 forward 7 unknown #
coedge $-1 $425 $278 $170 $284 forward $167 $-1 #
edge $-1 $423 19.31108762536989 $289 26.812683408912473 $283 $426 forward 7 unknown #
coedge $-1 $420 $427 $171 $286 forward $415 $-1 #
edge $-1 $290 -26.812683408912473 $422 -19.31108762536989 $285 $428 forward 7 unknown #
coedge $-1 $429 $172 $427 $430 reversed $276 $-1 #
coedge $-1 $172 $429 $425 $431 reversed $276 $-1 #
vertex $-1 $431 $432 #
vertex $-1 $173 $433 #
straight-curve $-1 -49.874568926053655 19.340015090139907 0 0 0 1 I I #
face $-1 $-1 $304 $39 $-1 $434 forward single #
loop $-1 $-1 $435 $174 #
plane-surface $-1 49.874568926053655 0 0 -1 0 0 0 0 1 forward_v I I I I #
coedge $-1 $436 $437 $438 $439 reversed $175 $-1 #
coedge $-1 $440 $177 $179 $302 forward $109 $-1 #
coedge $-1 $177 $440 $436 $441 forward $109 $-1 #
coedge $-1 $438 $180 $177 $299 forward $304 $-1 #
edge $-1 $306 3.752262641275955 $442 10.146171295656153 $298 $443 forward 7 unknown #
coedge $-1 $444 $445 $178 $301 forward $293 $-1 #
edge $-1 $446 -69.784555260785069 $305 -57.599884116353586 $300 $447 forward 7 unknown #
edge $-1 $306 81.176615475568894 $446 99.74913785210731 $179 $448 forward 7 unknown #
coedge $-1 $180 $438 $444 $449 forward $304 $-1 #
loop $-1 $-1 $438 $292 #
vertex $-1 $301 $450 #
vertex $-1 $181 $451 #
straight-curve $-1 20.017131489806268 -10.701479609742009 13.338513204726425 -1 0 0 I I #
coedge $-1 $308 $308 $-1 $452 reversed $184 $-1 #
edge $-1 $453 0 $453 6.2831853071796004 $185 $454 forward 7 unknown #
vertex $-1 $188 $455 #
ellipse-curve $-1 42.86613870721937 -15.26855722001358 7.2461776325106806 0.6560590369687036 0 0.75470957328743171 0.37735478664371586 0 -0.3280295184843518 1 I I #
coedge $-1 $312 $312 $-1 $456 reversed $191 $-1 #
edge $-1 $457 0 $457 6.2831853071796004 $192 $458 forward 7 unknown #
vertex $-1 $195 $459 #
ellipse-curve $-1 42.86613870721937 -12.528310653850639 7.2461776325106806 0.6560590369687036 0 0.75470957328743171 0.37735478664371586 0 -0.3280295184843518 1 I I #
face $-1 $-1 $328 $42 $-1 $460 forward single #
loop $-1 $-1 $461 $196 #
plane-surface $-1 49.874568926053655 0 0 -1 0 0 0 0 1 forward_v I I I I #
coedge $-1 $462 $463 $464 $465 reversed $197 $-1 #
coedge $-1 $466 $199 $201 $326 forward $123 $-1 #
coedge $-1 $199 $466 $462 $467 forward $123 $-1 #
coedge $-1 $464 $202 $199 $323 forward $328 $-1 #
edge $-1 $330 -3.1969543271901033 $468 3.1969543271900962 $322 $469 forward 7 unknown #
coedge $-1 $470 $471 $200 $325 forward $317 $-1 #
edge $-1 $472 -69.784555260785069 $329 -57.599884116353586 $324 $473 forward 7 unknown #
edge $-1 $330 81.176615475568894 $472 99.74913785210731 $201 $474 forward 7 unknown #
coedge $-1 $202 $464 $470 $475 forward $328 $-1 #
loop $-1 $-1 $464 $316 #
vertex $-1 $325 $476 #
vertex $-1 $203 $477 #
straight-curve $-1 20.017131489806268 3.1969543271901069 13.338513204726425 -1 0 0 I I #
coedge $-1 $332 $332 $-1 $478 reversed $206 $-1 #
edge $-1 $479 0 $479 6.2831853071796004 $207 $480 forward 7 unknown #
vertex $-1 $210 $481 #
ellipse-curve $-1 42.86613870721937 -1.3701232830814654 7.2461776325106806 0.6560590369687036 0 0.75470957328743171 0.37735478664371586 0 -0.3280295184843518 1 I I #
coedge $-1 $336 $336 $-1 $482 reversed $213 $-1 #
edge $-1 $483 0 $483 6.2831853071796004 $214 $484 forward 7 unknown #
vertex $-1 $217 $485 #
ellipse-curve $-1 42.86613870721937 1.370123283081476 7.2461776325106806 0.6560590369687036 0 0.75470957328743171 0.37735478664371586 0 -0.3280295184843518 1 I I #
face $-1 $-1 $352 $45 $-1 $486 forward single #
loop $-1 $-1 $487 $218 #
plane-surface $-1 49.874568926053655 0 0 -1 0 0 0 0 1 forward_v I I I I #
coedge $-1 $488 $489 $490 $491 reversed $219 $-1 #
coedge $-1 $492 $221 $223 $350 forward $137 $-1 #
coedge $-1 $221 $492 $488 $493 forward $137 $-1 #
coedge $-1 $490 $224 $221 $347 forward $352 $-1 #
edge $-1 $354 -10.14617129565616 $494 -3.7522626412759621 $346 $495 forward 7 unknown #
coedge $-1 $496 $497 $222 $349 forward $341 $-1 #
edge $-1 $498 -69.784555260785069 $353 -57.599884116353586 $348 $499 forward 7 unknown #
edge $-1 $354 81.176615475568894 $498 99.74913785210731 $223 $500 forward 7 unknown #
coedge $-1 $224 $490 $496 $501 forward $352 $-1 #
loop $-1 $-1 $490 $340 #
vertex $-1 $349 $502 #
vertex $-1 $225 $503 #
straight-curve $-1 20.017131489806268 17.095388264122221 13.338513204726425 -1 0 0 I I #
coedge $-1 $356 $356 $-1 $504 reversed $228 $-1 #
edge $-1 $505 0 $505 6.2831853071796004 $229 $506 forward 7 unknown #
vertex $-1 $232 $507 #
ellipse-curve $-1 42.86613870721937 12.528310653850646 7.2461776325106806 0.6560590369687036 0 0.75470957328743171 0.37735478664371586 0 -0.3280295184843518 1 I I #
coedge $-1 $360 $360 $-1 $508 reversed $235 $-1 #
edge $-1 $509 0 $509 6.2831853071796004 $236 $510 forward 7 unknown #
vertex $-1 $239 $511 #
ellipse-curve $-1 42.86613870721937 15.268557220013591 7.2461776325106806 0.6560590369687036 0 0.75470957328743171 0.37735478664371586 0 -0.3280295184843518 1 I I #
face $-1 $-1 $255 $36 $-1 $512 reversed single #
loop $-1 $-1 $380 $240 #
plane-surface $-1 0 31.712140455026848 0 0 -1 0 0 0 -1 forward_v I I I I #
coedge $-1 $513 $378 $381 $514 forward $241 $-1 #
coedge $-1 $384 $243 $244 $372 reversed $151 $-1 #
coedge $-1 $378 $513 $243 $370 reversed $241 $-1 #
edge $-1 $385 -13.338513204726432 $515 13.338513204726432 $369 $516 forward 7 unknown #
coedge $-1 $245 $244 $513 $517 forward $97 $-1 #
edge $-1 $376 -49.874568926053655 $515 49.874568926053655 $368 $518 forward 7 unknown #
coedge $-1 $381 $380 $245 $374 reversed $365 $-1 #
edge $-1 $519 -49.874568926053655 $375 49.874568926053655 $373 $520 forward 7 unknown #
vertex $-1 $247 $521 #
vertex $-1 $387 $522 #
straight-curve $-1 49.874568926053655 0 -13.338513204726432 0 -1 0 I I #
coedge $-1 $367 $369 $248 $379 reversed $241 $-1 #
edge $-1 $382 -31.712140455026848 $385 31.712140455026848 $378 $523 forward 7 unknown #
coedge $-1 $373 $249 $254 $388 forward $365 $-1 #
coedge $-1 $249 $373 $367 $514 reversed $365 $-1 #
vertex $-1 $250 $524 #
straight-curve $-1 0 31.712140455026848 13.338513204726432 -1 0 0 I I #
coedge $-1 $251 $368 $253 $387 reversed $151 $-1 #
vertex $-1 $379 $525 #
straight-curve $-1 0 -31.712140455026848 13.338513204726432 1 0 0 I I #
edge $-1 $256 -13.338513204726432 $376 13.338513204726432 $253 $526 forward 7 unknown #
edge $-1 $257 -13.338513204726432 $375 13.338513204726432 $254 $527 forward 7 unknown #
point $-1 49.874568926053655 -31.712140455026848 13.338513204726432 #
point $-1 49.874568926053655 31.712140455026848 13.338513204726432 #
face $-1 $-1 $401 $37 $-1 $528 reversed single #
loop $-1 $-1 $397 $259 #
plane-surface $-1 0 0 -13.338513204726432 0 0 1 1 0 0 forward_v I I I I #
coedge $-1 $529 $530 $267 $405 forward $260 $-1 #
coedge $-1 $262 $409 $399 $531 forward $159 $-1 #
edge $-1 $403 -18.949101568735159 $272 -6.5769762038482185 $262 $532 forward 7 unknown #
coedge $-1 $533 $268 $263 $398 forward $392 $-1 #
edge $-1 $273 6.5769762038482185 $402 18.949101568735159 $397 $534 forward 7 unknown #
coedge $-1 $535 $265 $395 $531 reversed $401 $-1 #
coedge $-1 $265 $535 $533 $536 reversed $401 $-1 #
loop $-1 $-1 $265 $391 #
vertex $-1 $536 $537 #
vertex $-1 $266 $538 #
straight-curve $-1 -42.372973142511071 -31.712140455026848 0 0 0 1 I I #
edge $-1 $410 -13.338513204726432 $407 13.338513204726432 $394 $539 forward 7 unknown #
coedge $-1 $268 $533 $529 $540 forward $392 $-1 #
vertex $-1 $269 $541 #
straight-curve $-1 -23.061885517141182 -19.340015090139907 -13.338513204726432 1 0 0 I I #
coedge $-1 $395 $270 $530 $542 forward $159 $-1 #
vertex $-1 $542 $543 #
straight-curve $-1 -23.061885517141182 -19.340015090139907 13.338513204726432 -1 0 0 I I #
point $-1 -42.372973142511071 -19.340015090139907 13.338513204726432 #
point $-1 -42.372973142511071 -19.340015090139907 -13.338513204726432 #
face $-1 $-1 $544 $38 $-1 $545 reversed single #
loop $-1 $-1 $420 $275 #
plane-surface $-1 0 0 13.338513204726432 0 0 1 1 0 0 forward_v I I I I #
coedge $-1 $278 $425 $546 $547 forward $167 $-1 #
edge $-1 $548 -18.949101568735159 $423 -6.5769762038482185 $278 $549 forward 7 unknown #
coedge $-1 $280 $279 $550 $551 reversed $105 $-1 #
coedge $-1 $552 $285 $280 $421 forward $415 $-1 #
edge $-1 $422 6.5769762038482185 $553 18.949101568735159 $420 $554 forward 7 unknown #
vertex $-1 $286 $555 #
vertex $-1 $284 $556 #
straight-curve $-1 -42.372973142511071 19.340015090139907 0 0 0 -1 I I #
coedge $-1 $417 $283 $288 $431 forward $167 $-1 #
straight-curve $-1 -23.061885517141182 19.340015090139907 -13.338513204726432 -1 0 0 I I #
coedge $-1 $285 $552 $287 $430 forward $415 $-1 #
straight-curve $-1 -23.061885517141182 19.340015090139907 13.338513204726432 1 0 0 I I #
coedge $-1 $288 $287 $557 $558 forward $276 $-1 #
edge $-1 $559 -31.712140455026848 $290 -19.340015090139907 $287 $560 forward 7 unknown #
edge $-1 $289 19.340015090139907 $561 31.712140455026848 $288 $562 forward 7 unknown #
point $-1 -49.874568926053655 19.340015090139907 -13.338513204726432 #
point $-1 -49.874568926053655 19.340015090139907 13.338513204726432 #
plane-surface $-1 0 0 13.338513204726432 0 0 1 1 0 0 forward_v I I I I #
coedge $-1 $445 $444 $437 $563 forward $293 $-1 #
coedge $-1 $437 $295 $297 $441 reversed $175 $-1 #
coedge $-1 $295 $436 $435 $563 reversed $175 $-1 #
coedge $-1 $303 $298 $295 $439 forward $304 $-1 #
edge $-1 $442 15.840576998578818 $564 29.857437436247388 $438 $565 forward 7 unknown #
coedge $-1 $297 $296 $445 $566 reversed $109 $-1 #
edge $-1 $567 -99.74913785210731 $442 -81.176615475568894 $436 $568 forward 7 unknown #
vertex $-1 $299 $569 #
straight-curve $-1 35.857708488385086 -6.9492169684660539 13.338513204726432 0 -1 0 I I #
coedge $-1 $435 $300 $303 $449 reversed $293 $-1 #
coedge $-1 $300 $435 $440 $566 forward $293 $-1 #
vertex $-1 $301 $570 #
straight-curve $-1 49.874568926053655 -10.701479609742009 70.938397321080018 0 0 1 I I #
straight-curve $-1 -25.407060338099441 -10.701479609742009 66.595165378006925 0.75470957328743171 0 -0.6560590369687036 I I #
edge $-1 $564 -17.095388264122207 $305 -10.701479609742009 $444 $571 forward 7 unknown #
point $-1 49.874568926053655 -10.701479609742009 13.338513204726432 #
point $-1 35.857708488385086 -10.701479609742009 13.338513204726432 #
edge $-1 $572 1 $572 0 $308 $-1 forward 7 unknown #
vertex $-1 $309 $573 #
ellipse-curve $-1 41.907628185145256 -15.26855722001358 6.1435374334693025 0.6560590369687036 0 0.75470957328743171 0.37735478664371586 0 -0.3280295184843518 1 I I #
point $-1 43.243493493863092 -15.26855722001358 6.918148114026339 #
edge $-1 $574 1 $574 0 $312 $-1 forward 7 unknown #
vertex $-1 $313 $575 #
ellipse-curve $-1 41.907628185145256 -12.528310653850639 6.1435374334693025 0.6560590369687036 0 0.75470957328743171 0.37735478664371586 0 -0.3280295184843518 1 I I #
point $-1 43.243493493863092 -12.528310653850639 6.918148114026339 #
plane-surface $-1 0 0 13.338513204726432 0 0 1 1 0 0 forward_v I I I I #
coedge $-1 $471 $470 $463 $576 forward $317 $-1 #
coedge $-1 $463 $319 $321 $467 reversed $197 $-1 #
coedge $-1 $319 $462 $461 $576 reversed $197 $-1 #
coedge $-1 $327 $322 $319 $465 forward $328 $-1 #
edge $-1 $468 15.840576998578818 $577 29.857437436247388 $464 $578 forward 7 unknown #
coedge $-1 $321 $320 $471 $579 reversed $123 $-1 #
edge $-1 $580 -99.74913785210731 $468 -81.176615475568894 $462 $581 forward 7 unknown #
vertex $-1 $323 $582 #
straight-curve $-1 35.857708488385086 3.5527136788005009e-015 13.338513204726432 0 -1 0 I I #
coedge $-1 $461 $324 $327 $475 reversed $317 $-1 #
coedge $-1 $324 $461 $466 $579 forward $317 $-1 #
vertex $-1 $325 $583 #
straight-curve $-1 49.874568926053655 3.1969543271901069 70.938397321080018 0 0 1 I I #
straight-curve $-1 -25.407060338099441 3.1969543271901069 66.595165378006925 0.75470957328743171 0 -0.6560590369687036 I I #
edge $-1 $577 -3.1969543271900926 $329 3.1969543271901069 $470 $584 forward 7 unknown #
point $-1 49.874568926053655 3.1969543271901069 13.338513204726432 #
point $-1 35.857708488385086 3.1969543271901069 13.338513204726432 #
edge $-1 $585 1 $585 0 $332 $-1 forward 7 unknown #
vertex $-1 $333 $586 #
ellipse-curve $-1 41.907628185145256 -1.3701232830814654 6.1435374334693025 0.6560590369687036 0 0.75470957328743171 0.37735478664371586 0 -0.3280295184843518 1 I I #
point $-1 43.243493493863092 -1.3701232830814654 6.918148114026339 #
edge $-1 $587 1 $587 0 $336 $-1 forward 7 unknown #
vertex $-1 $337 $588 #
ellipse-curve $-1 41.907628185145256 1.370123283081476 6.1435374334693025 0.6560590369687036 0 0.75470957328743171 0.37735478664371586 0 -0.3280295184843518 1 I I #
point $-1 43.243493493863092 1.370123283081476 6.918148114026339 #
plane-surface $-1 0 0 13.338513204726432 0 0 1 1 0 0 forward_v I I I I #
coedge $-1 $497 $496 $489 $589 forward $341 $-1 #
coedge $-1 $489 $343 $345 $493 reversed $219 $-1 #
coedge $-1 $343 $488 $487 $589 reversed $219 $-1 #
coedge $-1 $351 $346 $343 $491 forward $352 $-1 #
edge $-1 $494 15.840576998578818 $590 29.857437436247388 $490 $591 forward 7 unknown #
coedge $-1 $345 $344 $497 $592 reversed $137 $-1 #
edge $-1 $593 -99.74913785210731 $494 -81.176615475568894 $488 $594 forward 7 unknown #
vertex $-1 $347 $595 #
straight-curve $-1 35.857708488385086 6.949216968466061 13.338513204726432 0 -1 0 I I #
coedge $-1 $487 $348 $351 $501 reversed $341 $-1 #
coedge $-1 $348 $487 $492 $592 forward $341 $-1 #
vertex $-1 $349 $596 #
straight-curve $-1 49.874568926053655 17.095388264122221 70.938397321080018 0 0 1 I I #
straight-curve $-1 -25.407060338099441 17.095388264122221 66.595165378006925 0.75470957328743171 0 -0.6560590369687036 I I #
edge $-1 $590 10.701479609742023 $353 17.095388264122221 $496 $597 forward 7 unknown #
point $-1 49.874568926053655 17.095388264122221 13.338513204726432 #
point $-1 35.857708488385086 17.095388264122221 13.338513204726432 #
edge $-1 $598 1 $598 0 $356 $-1 forward 7 unknown #
vertex $-1 $357 $599 #
ellipse-curve $-1 41.907628185145256 12.528310653850646 6.1435374334693025 0.6560590369687036 0 0.75470957328743171 0.37735478664371586 0 -0.3280295184843518 1 I I #
point $-1 43.243493493863092 12.528310653850646 6.918148114026339 #
edge $-1 $600 1 $600 0 $360 $-1 forward 7 unknown #
vertex $-1 $361 $601 #
ellipse-curve $-1 41.907628185145256 15.268557220013591 6.1435374334693025 0.6560590369687036 0 0.75470957328743171 0.37735478664371586 0 -0.3280295184843518 1 I I #
point $-1 43.243493493863092 15.268557220013591 6.918148114026339 #
plane-surface $-1 49.874568926053655 0 0 -1 0 0 0 0 1 forward_v I I I I #
coedge $-1 $369 $367 $371 $517 reversed $241 $-1 #
edge $-1 $382 -13.338513204726432 $519 13.338513204726432 $381 $602 forward 7 unknown #
vertex $-1 $517 $603 #
straight-curve $-1 -49.874568926053655 -31.712140455026848 0 0 0 -1 I I #
edge $-1 $515 -31.712140455026848 $519 31.712140455026848 $513 $604 forward 7 unknown #
straight-curve $-1 0 -31.712140455026848 -13.338513204726432 -1 0 0 I I #
vertex $-1 $374 $605 #
straight-curve $-1 0 31.712140455026848 -13.338513204726432 1 0 0 I I #
point $-1 49.874568926053655 31.712140455026848 -13.338513204726432 #
point $-1 49.874568926053655 -31.712140455026848 -13.338513204726432 #
straight-curve $-1 -49.874568926053655 0 13.338513204726432 0 -1 0 I I #
point $-1 -49.874568926053655 31.712140455026848 13.338513204726432 #
point $-1 -49.874568926053655 -31.712140455026848 13.338513204726432 #
straight-curve $-1 49.874568926053655 -31.712140455026848 0 0 0 -1 I I #
straight-curve $-1 49.874568926053655 31.712140455026848 0 0 0 -1 I I #
plane-surface $-1 0 -31.712140455026848 0 0 1 0 0 0 1 forward_v I I I I #
coedge $-1 $606 $394 $406 $540 reversed $260 $-1 #
coedge $-1 $394 $606 $409 $542 reversed $260 $-1 #
edge $-1 $607 -49.874568926053655 $403 -42.372973142511071 $399 $608 forward 7 unknown #
straight-curve $-1 -42.372973142511071 -12.763038886291689 13.338513204726432 0 1 0 I I #
coedge $-1 $406 $397 $400 $536 forward $392 $-1 #
straight-curve $-1 -42.372973142511071 -12.763038886291689 -13.338513204726432 0 -1 0 I I #
coedge $-1 $400 $399 $606 $609 forward $401 $-1 #
edge $-1 $402 42.372973142511071 $610 49.874568926053655 $400 $611 forward 7 unknown #
point $-1 -42.372973142511071 -31.712140455026848 -13.338513204726432 #
point $-1 -42.372973142511071 -31.712140455026848 13.338513204726432 #
straight-curve $-1 -49.874568926053655 -19.340015090139907 0 0 0 -1 I I #
edge $-1 $610 -31.712140455026848 $407 -19.340015090139907 $529 $612 forward 7 unknown #
point $-1 -49.874568926053655 -19.340015090139907 -13.338513204726432 #
edge $-1 $410 19.340015090139907 $607 31.712140455026848 $530 $613 forward 7 unknown #
point $-1 -49.874568926053655 -19.340015090139907 13.338513204726432 #
loop $-1 $-1 $550 $414 #
plane-surface $-1 0 31.712140455026848 0 0 -1 0 0 0 -1 forward_v I I I I #
coedge $-1 $557 $550 $417 $547 reversed $544 $-1 #
edge $-1 $561 -49.874568926053655 $548 -42.372973142511071 $546 $614 forward 7 unknown #
vertex $-1 $418 $615 #
straight-curve $-1 -42.372973142511071 12.763038886291689 -13.338513204726432 0 -1 0 I I #
coedge $-1 $546 $616 $419 $551 forward $544 $-1 #
edge $-1 $553 -13.338513204726432 $548 13.338513204726432 $550 $617 forward 7 unknown #
coedge $-1 $427 $420 $616 $618 forward $415 $-1 #
vertex $-1 $618 $619 #
straight-curve $-1 -42.372973142511071 12.763038886291689 13.338513204726432 0 1 0 I I #
point $-1 -42.372973142511071 19.340015090139907 13.338513204726432 #
point $-1 -42.372973142511071 19.340015090139907 -13.338513204726432 #
coedge $-1 $616 $546 $429 $558 reversed $544 $-1 #
edge $-1 $559 -13.338513204726432 $561 13.338513204726432 $557 $620 forward 7 unknown #
vertex $-1 $618 $621 #
straight-curve $-1 -49.874568926053655 0 13.338513204726432 0 -1 0 I I #
vertex $-1 $547 $622 #
straight-curve $-1 -49.874568926053655 0 -13.338513204726432 0 1 0 I I #
edge $-1 $564 57.599884116353586 $567 69.784555260785069 $435 $623 forward 7 unknown #
vertex $-1 $449 $624 #
straight-curve $-1 20.017131489806268 -17.095388264122207 13.338513204726425 1 0 0 I I #
edge $-1 $567 -10.146171295656153 $446 -3.752262641275955 $445 $625 forward 7 unknown #
vertex $-1 $566 $626 #
straight-curve $-1 -25.407060338099441 -17.095388264122207 66.595165378006925 -0.75470957328743171 0 0.6560590369687036 I I #
point $-1 35.857708488385086 -17.095388264122207 13.338513204726432 #
point $-1 49.874568926053655 -10.701479609742009 1.1538420602949486 #
straight-curve $-1 49.874568926053655 0 13.338513204726432 0 1 0 I I #
vertex $-1 $452 $627 #
point $-1 42.28498297178897 -15.26855722001358 5.8155079149849502 #
vertex $-1 $456 $628 #
point $-1 42.28498297178897 -12.528310653850639 5.8155079149849502 #
edge $-1 $577 57.599884116353586 $580 69.784555260785069 $461 $629 forward 7 unknown #
vertex $-1 $475 $630 #
straight-curve $-1 20.017131489806268 -3.1969543271900926 13.338513204726425 1 0 0 I I #
edge $-1 $580 -3.1969543271900962 $472 3.1969543271901033 $471 $631 forward 7 unknown #
vertex $-1 $579 $632 #
straight-curve $-1 -25.407060338099441 -3.1969543271900926 66.595165378006925 -0.75470957328743171 0 0.6560590369687036 I I #
point $-1 35.857708488385086 -3.1969543271900926 13.338513204726432 #
point $-1 49.874568926053655 3.1969543271901069 1.1538420602949486 #
straight-curve $-1 49.874568926053655 0 13.338513204726432 0 1 0 I I #
vertex $-1 $478 $633 #
point $-1 42.28498297178897 -1.3701232830814654 5.8155079149849502 #
vertex $-1 $482 $634 #
point $-1 42.28498297178897 1.370123283081476 5.8155079149849502 #
edge $-1 $590 57.599884116353586 $593 69.784555260785069 $487 $635 forward 7 unknown #
vertex $-1 $501 $636 #
straight-curve $-1 20.017131489806268 10.701479609742023 13.338513204726425 1 0 0 I I #
edge $-1 $593 3.7522626412759621 $498 10.14617129565616 $497 $637 forward 7 unknown #
vertex $-1 $592 $638 #
straight-curve $-1 -25.407060338099441 10.701479609742023 66.595165378006925 -0.75470957328743171 0 0.6560590369687036 I I #
point $-1 35.857708488385086 10.701479609742023 13.338513204726432 #
point $-1 49.874568926053655 17.095388264122221 1.1538420602949486 #
straight-curve $-1 49.874568926053655 0 13.338513204726432 0 1 0 I I #
vertex $-1 $504 $639 #
point $-1 42.28498297178897 12.528310653850646 5.8155079149849502 #
vertex $-1 $508 $640 #
point $-1 42.28498297178897 15.268557220013591 5.8155079149849502 #
straight-curve $-1 -49.874568926053655 31.712140455026848 0 0 0 -1 I I #
point $-1 -49.874568926053655 -31.712140455026848 -13.338513204726432 #
straight-curve $-1 -49.874568926053655 0 -13.338513204726432 0 1 0 I I #
point $-1 -49.874568926053655 31.712140455026848 -13.338513204726432 #
coedge $-1 $530 $529 $535 $609 reversed $260 $-1 #
vertex $-1 $542 $641 #
straight-curve $-1 0 -31.712140455026848 13.338513204726432 1 0 0 I I #
edge $-1 $607 -13.338513204726432 $610 13.338513204726432 $606 $642 forward 7 unknown #
vertex $-1 $540 $643 #
straight-curve $-1 0 -31.712140455026848 -13.338513204726432 -1 0 0 I I #
straight-curve $-1 -49.874568926053655 0 -13.338513204726432 0 1 0 I I #
straight-curve $-1 -49.874568926053655 0 13.338513204726432 0 -1 0 I I #
straight-curve $-1 0 31.712140455026848 -13.338513204726432 1 0 0 I I #
point $-1 -42.372973142511071 31.712140455026848 -13.338513204726432 #
coedge $-1 $550 $557 $552 $618 reversed $544 $-1 #
straight-curve $-1 -42.372973142511071 31.712140455026848 0 0 0 -1 I I #
edge $-1 $553 42.372973142511071 $559 49.874568926053655 $616 $644 forward 7 unknown #
point $-1 -42.372973142511071 31.712140455026848 13.338513204726432 #
straight-curve $-1 -49.874568926053655 31.712140455026848 0 0 0 -1 I I #
point $-1 -49.874568926053655 31.712140455026848 13.338513204726432 #
point $-1 -49.874568926053655 31.712140455026848 -13.338513204726432 #
straight-curve $-1 49.874568926053655 -17.095388264122207 70.938397321080018 0 0 -1 I I #
point $-1 49.874568926053655 -17.095388264122207 13.338513204726432 #
straight-curve $-1 49.874568926053655 -6.9492169684660539 1.1538420602949486 0 1 0 I I #
point $-1 49.874568926053655 -17.095388264122207 1.1538420602949486 #
point $-1 41.5795986666609 -15.26855722001358 5.7661826468255866 #
point $-1 41.5795986666609 -12.528310653850639 5.7661826468255866 #
straight-curve $-1 49.874568926053655 -3.1969543271900926 70.938397321080018 0 0 -1 I I #
point $-1 49.874568926053655 -3.1969543271900926 13.338513204726432 #
straight-curve $-1 49.874568926053655 3.5527136788005009e-015 1.1538420602949486 0 1 0 I I #
point $-1 49.874568926053655 -3.1969543271900926 1.1538420602949486 #
point $-1 41.5795986666609 -1.3701232830814654 5.7661826468255866 #
point $-1 41.5795986666609 1.370123283081476 5.7661826468255866 #
straight-curve $-1 49.874568926053655 10.701479609742023 70.938397321080018 0 0 -1 I I #
point $-1 49.874568926053655 10.701479609742023 13.338513204726432 #
straight-curve $-1 49.874568926053655 6.949216968466061 1.1538420602949486 0 1 0 I I #
point $-1 49.874568926053655 10.701479609742023 1.1538420602949486 #
point $-1 41.5795986666609 12.528310653850646 5.7661826468255866 #
point $-1 41.5795986666609 15.268557220013591 5.7661826468255866 #
point $-1 -49.874568926053655 -31.712140455026848 13.338513204726432 #
straight-curve $-1 -49.874568926053655 -31.712140455026848 0 0 0 -1 I I #
point $-1 -49.874568926053655 -31.712140455026848 -13.338513204726432 #
straight-curve $-1 0 31.712140455026848 13.338513204726432 -1 0 0 I I #
End-of-ACIS-data 