500 0 10 0           
7 Unknown 11 ACIS 5.0 NT 24 Fri Mar 26 02:05:27 1999 
-1 9.9999999999999995e-007 1e-010 
body $-1 $10 $-1 $11 #
body $-1 $12 $-1 $13 #
body $-1 $14 $-1 $15 #
body $-1 $16 $-1 $17 #
body $-1 $18 $-1 $19 #
body $-1 $20 $-1 $21 #
body $-1 $22 $-1 $23 #
body $-1 $24 $-1 $25 #
body $-1 $26 $-1 $27 #
body $-1 $28 $-1 $29 #
lump $-1 $-1 $30 $0 #
transform $-1 1 0 0 0 1 0 0 0 1 45.623950926236759 22.326872020548084 10.36029003869837 1 rotate no_reflect no_shear #
lump $-1 $-1 $31 $1 #
transform $-1 1 0 0 0 1 0 0 0 1 45.623950926236759 22.326872020548084 10.36029003869837 1 rotate no_reflect no_shear #
lump $-1 $-1 $32 $2 #
transform $-1 1 0 0 0 1 0 0 0 1 45.623950926236759 22.326872020548084 10.36029003869837 1 rotate no_reflect no_shear #
lump $-1 $-1 $33 $3 #
transform $-1 1 0 0 0 1 0 0 0 1 45.623950926236759 22.326872020548084 10.36029003869837 1 rotate no_reflect no_shear #
lump $-1 $-1 $34 $4 #
transform $-1 1 0 0 0 1 0 0 0 1 45.623950926236759 22.326872020548084 10.36029003869837 1 rotate no_reflect no_shear #
lump $-1 $-1 $35 $5 #
transform $-1 1 0 0 0 1 0 0 0 1 45.623950926236759 22.326872020548084 10.36029003869837 1 rotate no_reflect no_shear #
lump $-1 $-1 $36 $6 #
transform $-1 1 0 0 0 1 0 0 0 1 45.623950926236759 22.326872020548084 10.36029003869837 1 rotate no_reflect no_shear #
lump $-1 $-1 $37 $7 #
transform $-1 1 0 0 0 1 0 0 0 1 45.623950926236759 22.326872020548084 10.36029003869837 1 rotate no_reflect no_shear #
lump $-1 $-1 $38 $8 #
transform $-1 1 0 0 0 1 0 0 0 1 45.623950926236759 22.326872020548084 10.36029003869837 1 rotate no_reflect no_shear #
lump $-1 $-1 $39 $9 #
transform $-1 1 0 0 0 1 0 0 0 1 45.623950926236759 22.326872020548084 10.36029003869837 1 rotate no_reflect no_shear #
shell $-1 $-1 $-1 $40 $-1 $10 #
shell $-1 $-1 $-1 $41 $-1 $12 #
shell $-1 $-1 $-1 $42 $-1 $14 #
shell $-1 $-1 $-1 $43 $-1 $16 #
shell $-1 $-1 $-1 $44 $-1 $18 #
shell $-1 $-1 $-1 $45 $-1 $20 #
shell $-1 $-1 $-1 $46 $-1 $22 #
shell $-1 $-1 $-1 $47 $-1 $24 #
shell $-1 $-1 $-1 $48 $-1 $26 #
shell $-1 $-1 $-1 $49 $-1 $28 #
face $-1 $50 $51 $30 $-1 $52 forward single #
face $-1 $53 $54 $31 $-1 $55 reversed single #
face $-1 $56 $57 $32 $-1 $58 forward single #
face $-1 $59 $60 $33 $-1 $61 reversed single #
face $-1 $62 $63 $34 $-1 $64 forward single #
face $-1 $65 $66 $35 $-1 $67 forward single #
face $-1 $68 $69 $36 $-1 $70 reversed single #
face $-1 $71 $72 $37 $-1 $73 forward single #
face $-1 $74 $75 $38 $-1 $76 forward single #
face $-1 $77 $78 $39 $-1 $79 forward single #
face $-1 $80 $81 $30 $-1 $82 reversed single #
loop $-1 $-1 $83 $40 #
plane-surface $-1 0 0 10.36029003869837 0 0 1 1 0 0 forward_v I I I I #
face $-1 $84 $85 $31 $-1 $86 reversed single #
loop $-1 $-1 $87 $41 #
plane-surface $-1 0 -17.546761870422859 7.1527642253318895 0 0 1 1 0 0 forward_v I I I I #
face $-1 $88 $89 $32 $-1 $90 reversed single #
loop $-1 $-1 $91 $42 #
plane-surface $-1 0 17.785699557188334 -6.2746674360172392 0 0 1 1 0 0 forward_v I I I I #
face $-1 $92 $93 $33 $-1 $94 reversed single #
loop $-1 $-1 $95 $43 #
plane-surface $-1 76.842526846910189 13.244527093828591 126.12935291779465 0 -1 0 -0.85716730853699208 0 -0.51503806187062418 forward_v I I I I #
face $-1 $96 $97 $34 $-1 $98 forward single #
loop $-1 $99 $100 $44 #
cone-surface $-1 41.706727214491657 7.8691066355654016 4.9900881232740328 -0.85716730853699208 0 -0.51503806187062418 0.51503806187062418 0 -0.85716730853699208 1 I I 0 1 1 forward I I I I #
face $-1 $101 $102 $35 $-1 $103 forward single #
loop $-1 $104 $105 $45 #
cone-surface $-1 41.706727214491657 11.094358910523308 4.9900881232740328 -0.85716730853699208 0 -0.51503806187062418 0.51503806187062418 0 -0.85716730853699208 1 I I 0 1 1 forward I I I I #
face $-1 $106 $107 $36 $-1 $108 reversed single #
loop $-1 $-1 $109 $46 #
plane-surface $-1 -45.623950926236759 -9.6442524007143646 3.8857892812720962 -0.50000000669873634 0 0.8660253999169214 0.8660253999169214 0 0.50000000669873634 forward_v I I I I #
face $-1 $110 $111 $37 $-1 $112 forward single #
loop $-1 $113 $114 $47 #
cone-surface $-1 -39.617751636184423 -11.517691992464329 6.4317483042347243 0.50000000669873634 0 -0.8660253999169214 0.4330126999584607 0 0.25000000334936817 1 I I 0 1 0.5 forward I I I I #
face $-1 $115 $116 $38 $-1 $117 forward single #
loop $-1 $118 $119 $48 #
cone-surface $-1 -39.617751636184423 -9.6442524007143664 6.4317483042347243 0.50000000669873634 0 -0.8660253999169214 0.4330126999584607 0 0.25000000334936817 1 I I 0 1 0.5 forward I I I I #
face $-1 $120 $121 $39 $-1 $122 forward single #
loop $-1 $123 $124 $49 #
cone-surface $-1 -39.617751636184423 -7.7708128089644042 6.4317483042347243 0.50000000669873634 0 -0.8660253999169214 0.4330126999584607 0 0.25000000334936817 1 I I 0 1 0.5 forward I I I I #
face $-1 $125 $126 $30 $-1 $127 reversed single #
loop $-1 $-1 $128 $50 #
plane-surface $-1 0 0 -10.36029003869837 0 0 1 1 0 0 forward_v I I I I #
coedge $-1 $129 $130 $131 $132 forward $51 $-1 #
face $-1 $133 $134 $31 $-1 $135 reversed single #
loop $-1 $-1 $136 $53 #
plane-surface $-1 0 -12.766651720297634 8.7565271320151297 0 -1 0 0 0 -1 forward_v I I I I #
coedge $-1 $137 $138 $139 $140 reversed $54 $-1 #
face $-1 $141 $142 $32 $-1 $143 reversed single #
loop $-1 $-1 $144 $56 #
plane-surface $-1 0 13.244527093828587 -8.3174787373578045 0 1 0 0 0 1 forward_v I I I I #
coedge $-1 $145 $146 $147 $148 reversed $57 $-1 #
face $-1 $149 $150 $33 $-1 $151 reversed single #
loop $-1 $-1 $152 $59 #
plane-surface $-1 -1.3721915936221478 9.4817327730443601 79.133210397935756 0.85716730853699208 0 0.51503806187062418 0.51503806187062418 0 -0.85716730853699208 forward_v I I I I #
coedge $-1 $153 $154 $155 $156 reversed $60 $-1 #
face $-1 $-1 $157 $34 $-1 $158 forward single #
loop $-1 $159 $160 $62 #
cone-surface $-1 40.197522070664931 7.8691066355654016 4.083266217561853 -0.85716730853699208 0 -0.51503806187062418 0.25751903093531209 0 -0.42858365426849604 1 I I -0.70710678118654724 0.70710678118654791 0.5 forward I I I I #
loop $-1 $-1 $161 $44 #
coedge $-1 $100 $100 $162 $163 reversed $63 $-1 #
face $-1 $-1 $164 $35 $-1 $165 forward single #
loop $-1 $166 $167 $65 #
cone-surface $-1 40.197522070664931 11.094358910523308 4.083266217561853 -0.85716730853699208 0 -0.51503806187062418 0.25751903093531209 0 -0.42858365426849604 1 I I -0.70710678118654724 0.70710678118654791 0.5 forward I I I I #
loop $-1 $-1 $168 $45 #
coedge $-1 $105 $105 $169 $170 reversed $66 $-1 #
face $-1 $171 $172 $36 $-1 $173 forward single #
loop $-1 $-1 $174 $68 #
plane-surface $-1 -91.247902463719157 -6.521853081131094 82.90878997464047 0 -1 0 0.50000000669873634 0 -0.8660253999169214 forward_v I I I I #
coedge $-1 $175 $176 $177 $178 reversed $69 $-1 #
face $-1 $-1 $179 $37 $-1 $180 forward single #
loop $-1 $181 $182 $71 #
cone-surface $-1 -39.09363437704917 -11.517691992464329 5.5239505985049835 0.50000000669873634 0 -0.8660253999169214 0.21650634997923035 0 0.12500000167468409 1 I I -0.70710678118654746 0.70710678118654746 0.25 forward I I I I #
loop $-1 $-1 $183 $47 #
coedge $-1 $114 $114 $184 $185 reversed $72 $-1 #
face $-1 $-1 $186 $38 $-1 $187 forward single #
loop $-1 $188 $189 $74 #
cone-surface $-1 -39.09363437704917 -9.6442524007143664 5.5239505985049835 0.50000000669873634 0 -0.8660253999169214 0.21650634997923035 0 0.12500000167468409 1 I I -0.70710678118654746 0.70710678118654746 0.25 forward I I I I #
loop $-1 $-1 $190 $48 #
coedge $-1 $119 $119 $191 $192 reversed $75 $-1 #
face $-1 $-1 $193 $39 $-1 $194 forward single #
loop $-1 $195 $196 $77 #
cone-surface $-1 -39.09363437704917 -7.7708128089644042 5.5239505985049835 0.50000000669873634 0 -0.8660253999169214 0.21650634997923035 0 0.12500000167468409 1 I I -0.70710678118654746 0.70710678118654746 0.25 forward I I I I #
loop $-1 $-1 $197 $49 #
coedge $-1 $124 $124 $198 $199 reversed $78 $-1 #
face $-1 $200 $201 $30 $-1 $202 reversed single #
loop $-1 $-1 $203 $80 #
plane-surface $-1 0 -22.326872020548084 0 0 1 0 0 0 1 forward_v I I I I #
coedge $-1 $204 $205 $206 $207 forward $81 $-1 #
coedge $-1 $208 $83 $209 $210 forward $51 $-1 #
coedge $-1 $83 $208 $211 $212 forward $51 $-1 #
coedge $-1 $213 $214 $83 $132 reversed $215 $-1 #
edge $-1 $216 -22.326872020548084 $217 22.326872020548084 $131 $218 forward 7 unknown #
face $-1 $219 $220 $31 $-1 $221 reversed single #
loop $-1 $-1 $222 $84 #
plane-surface $-1 -45.623950926236759 0 0 1 0 0 0 0 -1 forward_v I I I I #
coedge $-1 $223 $224 $225 $226 reversed $85 $-1 #
coedge $-1 $227 $87 $228 $229 reversed $54 $-1 #
coedge $-1 $87 $227 $223 $230 forward $54 $-1 #
coedge $-1 $225 $231 $87 $140 forward $232 $-1 #
edge $-1 $233 -13.553491085336654 $234 -3.9932707850862048 $139 $235 forward 7 unknown #
face $-1 $236 $237 $32 $-1 $238 reversed single #
loop $-1 $-1 $147 $88 #
plane-surface $-1 45.623950926236759 0 0 -1 0 0 0 0 1 forward_v I I I I #
coedge $-1 $239 $240 $241 $242 reversed $89 $-1 #
coedge $-1 $243 $91 $244 $245 reversed $57 $-1 #
coedge $-1 $91 $243 $240 $246 forward $57 $-1 #
coedge $-1 $247 $248 $91 $148 forward $142 $-1 #
edge $-1 $249 -13.434022241953913 $250 -4.3516773152344204 $147 $251 forward 7 unknown #
face $-1 $252 $253 $33 $-1 $254 forward single #
loop $-1 $-1 $255 $92 #
plane-surface $-1 76.842526846910189 5.7189384522601294 126.12935291779465 0 1 0 0.85716730853699208 0 0.51503806187062418 forward_v I I I I #
coedge $-1 $256 $257 $258 $259 reversed $93 $-1 #
coedge $-1 $154 $95 $260 $261 reversed $60 $-1 #
coedge $-1 $95 $153 $256 $262 reversed $60 $-1 #
coedge $-1 $258 $263 $95 $156 forward $253 $-1 #
edge $-1 $264 -7.2026875027816644 $265 -1.5294830584079335 $155 $266 forward 7 unknown #
loop $-1 $-1 $162 $96 #
plane-surface $-1 -1.3721915936221478 9.4817327730443601 79.133210397935756 0.85716730853699208 0 0.51503806187062418 0.51503806187062418 0 -0.85716730853699208 forward_v I I I I #
loop $-1 $-1 $267 $62 #
coedge $-1 $160 $160 $161 $268 reversed $97 $-1 #
coedge $-1 $161 $161 $160 $268 forward $99 $-1 #
coedge $-1 $162 $162 $100 $163 forward $157 $-1 #
edge $-1 $269 0 $269 6.2831853071796004 $162 $270 forward 7 unknown #
loop $-1 $-1 $169 $101 #
plane-surface $-1 -1.3721915936221478 9.4817327730443601 79.133210397935756 0.85716730853699208 0 0.51503806187062418 0.51503806187062418 0 -0.85716730853699208 forward_v I I I I #
loop $-1 $-1 $271 $65 #
coedge $-1 $167 $167 $168 $272 reversed $102 $-1 #
coedge $-1 $168 $168 $167 $272 forward $104 $-1 #
coedge $-1 $169 $169 $105 $170 forward $164 $-1 #
edge $-1 $273 0 $273 6.2831853071796004 $169 $274 forward 7 unknown #
face $-1 $275 $276 $36 $-1 $277 forward single #
loop $-1 $-1 $278 $106 #
plane-surface $-1 0 -12.766651720297634 8.7565271320151297 0 -1 0 0 0 -1 forward_v I I I I #
coedge $-1 $279 $280 $281 $282 reversed $107 $-1 #
coedge $-1 $283 $109 $278 $284 reversed $69 $-1 #
coedge $-1 $109 $283 $279 $285 forward $69 $-1 #
coedge $-1 $281 $286 $109 $178 forward $276 $-1 #
edge $-1 $287 -7.9445255199404521 $288 -1.6997268807739117 $177 $289 forward 7 unknown #
loop $-1 $-1 $184 $110 #
plane-surface $-1 -45.623950926236759 -9.6442524007143646 3.8857892812720962 -0.50000000669873634 0 0.8660253999169214 0.8660253999169214 0 0.50000000669873634 forward_v I I I I #
loop $-1 $-1 $290 $71 #
coedge $-1 $182 $182 $183 $291 reversed $111 $-1 #
coedge $-1 $183 $183 $182 $291 forward $113 $-1 #
coedge $-1 $184 $184 $114 $185 forward $179 $-1 #
edge $-1 $292 0 $292 6.2831853071796004 $184 $293 forward 7 unknown #
loop $-1 $-1 $191 $115 #
plane-surface $-1 -45.623950926236759 -9.6442524007143646 3.8857892812720962 -0.50000000669873634 0 0.8660253999169214 0.8660253999169214 0 0.50000000669873634 forward_v I I I I #
loop $-1 $-1 $294 $74 #
coedge $-1 $189 $189 $190 $295 reversed $116 $-1 #
coedge $-1 $190 $190 $189 $295 forward $118 $-1 #
coedge $-1 $191 $191 $119 $192 forward $186 $-1 #
edge $-1 $296 0 $296 6.2831853071796004 $191 $297 forward 7 unknown #
loop $-1 $-1 $198 $120 #
plane-surface $-1 -45.623950926236759 -9.6442524007143646 3.8857892812720962 -0.50000000669873634 0 0.8660253999169214 0.8660253999169214 0 0.50000000669873634 forward_v I I I I #
loop $-1 $-1 $298 $77 #
coedge $-1 $196 $196 $197 $299 reversed $121 $-1 #
coedge $-1 $197 $197 $196 $299 forward $123 $-1 #
coedge $-1 $198 $198 $124 $199 forward $193 $-1 #
edge $-1 $300 0 $300 6.2831853071796004 $198 $301 forward 7 unknown #
face $-1 $302 $303 $30 $-1 $304 reversed single #
loop $-1 $-1 $305 $125 #
plane-surface $-1 -45.623950926236759 0 0 1 0 0 0 0 -1 forward_v I I I I #
coedge $-1 $306 $211 $307 $308 forward $126 $-1 #
coedge $-1 $309 $128 $306 $310 forward $81 $-1 #
coedge $-1 $128 $309 $311 $312 forward $81 $-1 #
coedge $-1 $214 $213 $128 $207 reversed $215 $-1 #
edge $-1 $313 -22.326872020548084 $314 22.326872020548084 $206 $315 forward 7 unknown #
coedge $-1 $130 $129 $316 $317 forward $51 $-1 #
coedge $-1 $318 $319 $129 $210 reversed $303 $-1 #
edge $-1 $217 -45.623950926236759 $320 45.623950926236759 $209 $321 forward 7 unknown #
coedge $-1 $203 $322 $130 $212 reversed $126 $-1 #
edge $-1 $323 -45.623950926236759 $216 45.623950926236759 $211 $324 forward 7 unknown #
coedge $-1 $206 $131 $322 $325 forward $215 $-1 #
coedge $-1 $131 $206 $318 $326 reversed $215 $-1 #
loop $-1 $-1 $213 $302 #
vertex $-1 $132 $327 #
vertex $-1 $132 $328 #
straight-curve $-1 45.623950926236759 0 10.36029003869837 0 1 0 I I #
face $-1 $329 $330 $31 $-1 $331 forward single #
loop $-1 $-1 $228 $133 #
plane-surface $-1 0 -22.326872020548084 0 0 1 0 0 0 1 forward_v I I I I #
coedge $-1 $332 $333 $334 $335 forward $134 $-1 #
coedge $-1 $334 $136 $138 $230 reversed $85 $-1 #
coedge $-1 $136 $334 $336 $337 reversed $85 $-1 #
coedge $-1 $338 $139 $136 $226 forward $232 $-1 #
edge $-1 $234 2.7745006593243247 $339 5.982026472690805 $225 $340 forward 7 unknown #
coedge $-1 $138 $137 $332 $341 reversed $54 $-1 #
coedge $-1 $342 $343 $137 $229 forward $220 $-1 #
edge $-1 $344 -45.623950926236759 $233 45.623950926236759 $228 $345 forward 7 unknown #
edge $-1 $346 -45.623950926236759 $234 45.623950926236759 $223 $347 forward 7 unknown #
coedge $-1 $139 $338 $342 $348 forward $232 $-1 #
loop $-1 $-1 $225 $329 #
vertex $-1 $229 $349 #
vertex $-1 $140 $350 #
straight-curve $-1 45.623950926236759 -8.7733809352114296 7.1527642253318895 0 1 0 I I #
face $-1 $351 $352 $32 $-1 $353 reversed single #
loop $-1 $-1 $354 $141 #
plane-surface $-1 0 0 -10.36029003869837 0 0 1 1 0 0 forward_v I I I I #
coedge $-1 $355 $144 $354 $356 reversed $89 $-1 #
coedge $-1 $144 $355 $146 $246 reversed $89 $-1 #
coedge $-1 $357 $358 $144 $242 forward $352 $-1 #
edge $-1 $359 -6.2015506700194676 $360 -2.1159280673383369 $241 $361 forward 7 unknown #
coedge $-1 $146 $145 $357 $362 reversed $57 $-1 #
coedge $-1 $363 $364 $145 $245 forward $365 $-1 #
edge $-1 $366 -45.623950926236759 $249 45.623950926236759 $244 $367 forward 7 unknown #
edge $-1 $360 -45.623950926236759 $250 45.623950926236759 $240 $368 forward 7 unknown #
coedge $-1 $369 $147 $355 $370 forward $142 $-1 #
coedge $-1 $147 $369 $363 $371 reversed $142 $-1 #
vertex $-1 $371 $372 #
vertex $-1 $148 $373 #
straight-curve $-1 45.623950926236759 8.8928497785941669 -6.2746674360172392 0 -1 0 I I #
face $-1 $-1 $374 $33 $-1 $375 reversed single #
loop $-1 $-1 $155 $149 #
plane-surface $-1 0 0 10.36029003869837 0 0 1 1 0 0 forward_v I I I I #
coedge $-1 $376 $377 $378 $379 reversed $150 $-1 #
coedge $-1 $380 $152 $154 $262 forward $93 $-1 #
coedge $-1 $152 $380 $376 $381 forward $93 $-1 #
coedge $-1 $378 $155 $152 $259 forward $253 $-1 #
edge $-1 $265 -8.5036607073064108 $382 -0.97807206573794936 $258 $383 forward 7 unknown #
coedge $-1 $384 $385 $153 $261 forward $374 $-1 #
edge $-1 $386 -62.14618450149392 $264 -52.704386420198958 $260 $387 forward 7 unknown #
edge $-1 $265 80.232784981754151 $386 91.247901852473547 $154 $388 forward 7 unknown #
coedge $-1 $155 $378 $384 $389 forward $253 $-1 #
vertex $-1 $261 $390 #
vertex $-1 $156 $391 #
straight-curve $-1 38.421263423455095 13.244527093828591 10.360290038698366 -1 0 0 I I #
coedge $-1 $267 $267 $-1 $392 reversed $159 $-1 #
edge $-1 $393 0 $393 6.2831853071796004 $160 $394 forward 7 unknown #
vertex $-1 $163 $395 #
ellipse-curve $-1 42.787348704049883 7.8691066355654016 5.6393909980508967 0.85716730853699208 0 0.51503806187062418 0.51503806187062418 0 -0.85716730853699208 1 I I #
coedge $-1 $271 $271 $-1 $396 reversed $166 $-1 #
edge $-1 $397 0 $397 6.2831853071796004 $167 $398 forward 7 unknown #
vertex $-1 $170 $399 #
ellipse-curve $-1 42.787348704049883 11.094358910523308 5.6393909980508967 0.85716730853699208 0 0.51503806187062418 0.51503806187062418 0 -0.85716730853699208 1 I I #
face $-1 $-1 $400 $36 $-1 $401 reversed single #
loop $-1 $-1 $177 $171 #
plane-surface $-1 0 0 10.36029003869837 0 0 1 1 0 0 forward_v I I I I #
coedge $-1 $402 $403 $175 $284 forward $172 $-1 #
coedge $-1 $280 $174 $176 $285 reversed $107 $-1 #
coedge $-1 $174 $279 $404 $405 reversed $107 $-1 #
coedge $-1 $406 $177 $174 $282 forward $276 $-1 #
edge $-1 $288 -11.214164370806358 $407 -3.0562281949642056e-007 $281 $408 forward 7 unknown #
coedge $-1 $176 $175 $409 $410 reversed $69 $-1 #
edge $-1 $411 -20.973434652341744 $287 -8.024433310973091 $278 $412 forward 7 unknown #
edge $-1 $413 0 $288 12.949001341368653 $279 $414 forward 7 unknown #
coedge $-1 $177 $406 $402 $415 forward $276 $-1 #
vertex $-1 $178 $416 #
vertex $-1 $178 $417 #
straight-curve $-1 -34.409786861053213 -4.8221262003571823 10.36029003869837 0 1 0 I I #
coedge $-1 $290 $290 $-1 $418 reversed $181 $-1 #
edge $-1 $419 0 $419 6.2831853071796004 $182 $420 forward 7 unknown #
vertex $-1 $185 $421 #
ellipse-curve $-1 -40.01686889364499 -11.517691992464329 7.1230396599852321 -0.50000000669873634 0 0.8660253999169214 0.4330126999584607 0 0.25000000334936817 1 I I #
coedge $-1 $294 $294 $-1 $422 reversed $188 $-1 #
edge $-1 $423 0 $423 6.2831853071796004 $189 $424 forward 7 unknown #
vertex $-1 $192 $425 #
ellipse-curve $-1 -40.01686889364499 -9.6442524007143664 7.1230396599852321 -0.50000000669873634 0 0.8660253999169214 0.4330126999584607 0 0.25000000334936817 1 I I #
coedge $-1 $298 $298 $-1 $426 reversed $195 $-1 #
edge $-1 $427 0 $427 6.2831853071796004 $196 $428 forward 7 unknown #
vertex $-1 $199 $429 #
ellipse-curve $-1 -40.01686889364499 -7.7708128089644042 7.1230396599852321 -0.50000000669873634 0 0.8660253999169214 0.4330126999584607 0 0.25000000334936817 1 I I #
face $-1 $-1 $215 $30 $-1 $430 reversed single #
loop $-1 $-1 $318 $200 #
plane-surface $-1 0 22.326872020548084 0 0 -1 0 0 0 -1 forward_v I I I I #
coedge $-1 $431 $316 $319 $432 forward $201 $-1 #
coedge $-1 $322 $203 $204 $310 reversed $126 $-1 #
coedge $-1 $316 $431 $203 $308 reversed $201 $-1 #
edge $-1 $323 -10.36029003869837 $433 10.36029003869837 $307 $434 forward 7 unknown #
coedge $-1 $205 $204 $431 $435 forward $81 $-1 #
edge $-1 $314 -45.623950926236759 $433 45.623950926236759 $306 $436 forward 7 unknown #
coedge $-1 $319 $318 $205 $312 reversed $303 $-1 #
edge $-1 $437 -45.623950926236759 $313 45.623950926236759 $311 $438 forward 7 unknown #
vertex $-1 $207 $439 #
vertex $-1 $325 $440 #
straight-curve $-1 45.623950926236759 0 -10.36029003869837 0 -1 0 I I #
coedge $-1 $305 $307 $208 $317 reversed $201 $-1 #
edge $-1 $320 -22.326872020548084 $323 22.326872020548084 $316 $441 forward 7 unknown #
coedge $-1 $311 $209 $214 $326 forward $303 $-1 #
coedge $-1 $209 $311 $305 $432 reversed $303 $-1 #
vertex $-1 $210 $442 #
straight-curve $-1 0 22.326872020548084 10.36029003869837 -1 0 0 I I #
coedge $-1 $211 $306 $213 $325 reversed $126 $-1 #
vertex $-1 $317 $443 #
straight-curve $-1 0 -22.326872020548084 10.36029003869837 1 0 0 I I #
edge $-1 $216 -10.36029003869837 $314 10.36029003869837 $213 $444 forward 7 unknown #
edge $-1 $217 -10.36029003869837 $313 10.36029003869837 $214 $445 forward 7 unknown #
point $-1 45.623950926236759 -22.326872020548084 10.36029003869837 #
point $-1 45.623950926236759 22.326872020548084 10.36029003869837 #
face $-1 $-1 $232 $31 $-1 $446 reversed single #
loop $-1 $-1 $336 $219 #
plane-surface $-1 0 0 10.36029003869837 0 0 1 1 0 0 forward_v I I I I #
coedge $-1 $447 $222 $227 $341 forward $134 $-1 #
coedge $-1 $222 $447 $448 $449 reversed $134 $-1 #
coedge $-1 $224 $223 $222 $335 reversed $85 $-1 #
edge $-1 $450 -5.982026472690805 $346 -2.7745006593243247 $222 $451 forward 7 unknown #
coedge $-1 $448 $452 $224 $337 forward $330 $-1 #
edge $-1 $339 -45.623950926236759 $450 45.623950926236759 $336 $453 forward 7 unknown #
coedge $-1 $231 $225 $452 $454 reversed $232 $-1 #
vertex $-1 $226 $455 #
straight-curve $-1 45.623950926236759 -12.766651720297634 4.3782635660075648 0 0 1 I I #
edge $-1 $346 3.9932707850862048 $344 13.553491085336654 $332 $456 forward 7 unknown #
coedge $-1 $457 $228 $231 $348 reversed $220 $-1 #
coedge $-1 $228 $457 $447 $458 forward $220 $-1 #
vertex $-1 $229 $459 #
straight-curve $-1 0 -22.326872020548084 7.1527642253318895 1 0 0 I I #
vertex $-1 $341 $460 #
straight-curve $-1 0 -12.766651720297634 7.1527642253318895 1 0 0 I I #
edge $-1 $461 -10.36029003869837 $233 -7.1527642253318895 $231 $462 forward 7 unknown #
point $-1 45.623950926236759 -22.326872020548084 7.1527642253318895 #
point $-1 45.623950926236759 -12.766651720297634 7.1527642253318895 #
face $-1 $-1 $365 $32 $-1 $463 reversed single #
loop $-1 $-1 $357 $236 #
plane-surface $-1 -45.623950926236759 0 0 1 0 0 0 0 -1 forward_v I I I I #
coedge $-1 $464 $465 $239 $356 forward $237 $-1 #
coedge $-1 $240 $239 $247 $370 reversed $89 $-1 #
edge $-1 $466 -45.623950926236759 $359 45.623950926236759 $354 $467 forward 7 unknown #
coedge $-1 $468 $241 $243 $362 forward $352 $-1 #
coedge $-1 $241 $468 $464 $469 reversed $352 $-1 #
vertex $-1 $469 $470 #
vertex $-1 $362 $471 #
straight-curve $-1 -45.623950926236759 13.244527093828587 -4.1587393686789023 0 0 1 I I #
edge $-1 $360 4.3516773152344204 $366 13.434022241953913 $357 $472 forward 7 unknown #
coedge $-1 $473 $244 $248 $371 forward $365 $-1 #
coedge $-1 $244 $473 $468 $474 reversed $365 $-1 #
loop $-1 $-1 $244 $351 #
vertex $-1 $474 $475 #
straight-curve $-1 0 22.326872020548084 -6.2746674360172392 1 0 0 I I #
straight-curve $-1 0 13.244527093828587 -6.2746674360172392 1 0 0 I I #
coedge $-1 $248 $247 $465 $476 reversed $142 $-1 #
edge $-1 $250 2.1159280673383369 $466 6.2015506700194676 $247 $477 forward 7 unknown #
edge $-1 $249 6.2746674360172392 $478 10.36029003869837 $248 $479 forward 7 unknown #
point $-1 45.623950926236759 22.32687202054808 -6.2746674360172392 #
point $-1 45.623950926236759 13.244527093828587 -6.2746674360172392 #
loop $-1 $-1 $260 $252 #
plane-surface $-1 45.623950926236759 0 0 -1 0 0 0 0 1 forward_v I I I I #
coedge $-1 $377 $255 $257 $381 reversed $150 $-1 #
coedge $-1 $255 $376 $480 $481 reversed $150 $-1 #
coedge $-1 $263 $258 $255 $379 forward $253 $-1 #
edge $-1 $382 1.5294830584079335 $482 7.2026875027816644 $378 $483 forward 7 unknown #
coedge $-1 $257 $256 $385 $484 reversed $93 $-1 #
edge $-1 $485 -91.247901852473547 $382 -80.232784981754151 $376 $486 forward 7 unknown #
vertex $-1 $259 $487 #
straight-curve $-1 39.950746481863014 4.7408663865221801 10.360290038698373 0 -1 0 I I #
coedge $-1 $480 $260 $263 $389 reversed $374 $-1 #
coedge $-1 $260 $480 $380 $484 forward $374 $-1 #
vertex $-1 $261 $488 #
straight-curve $-1 45.623950926236759 13.244527093828591 63.064676458897324 0 0 1 I I #
straight-curve $-1 -1.3721915936221478 13.244527093828591 79.133210397935756 0.51503806187062418 0 -0.85716730853699208 I I #
edge $-1 $482 5.7189384522601294 $264 13.244527093828591 $384 $489 forward 7 unknown #
point $-1 45.623950926236759 13.244527093828591 10.36029003869837 #
point $-1 39.950746481863028 13.244527093828591 10.360290038698366 #
edge $-1 $490 1 $490 0 $267 $-1 forward 7 unknown #
vertex $-1 $268 $491 #
ellipse-curve $-1 40.626105724933424 7.8691066355654016 4.3407852484971654 0.85716730853699208 0 0.51503806187062418 0.51503806187062418 0 -0.85716730853699208 1 I I #
point $-1 43.302386765920517 7.8691066355654016 4.7822236895139074 #
edge $-1 $492 1 $492 0 $271 $-1 forward 7 unknown #
vertex $-1 $272 $493 #
ellipse-curve $-1 40.626105724933424 11.094358910523308 4.3407852484971654 0.85716730853699208 0 0.51503806187062418 0.51503806187062418 0 -0.85716730853699208 1 I I #
point $-1 43.302386765920517 11.094358910523308 4.7822236895139074 #
loop $-1 $-1 $494 $275 #
plane-surface $-1 -45.623950926236759 0 0 1 0 0 0 0 -1 forward_v I I I I #
coedge $-1 $403 $278 $286 $415 reversed $172 $-1 #
coedge $-1 $278 $402 $494 $495 reversed $172 $-1 #
coedge $-1 $409 $496 $280 $405 forward $400 $-1 #
edge $-1 $407 31.094104948621865 $413 37.568605706048139 $404 $497 forward 7 unknown #
coedge $-1 $286 $281 $496 $498 forward $276 $-1 #
vertex $-1 $498 $499 #
straight-curve $-1 -45.623951231859579 -6.521853081131094 10.360290038698373 -1 0 0 I I #
coedge $-1 $494 $404 $283 $410 forward $400 $-1 #
edge $-1 $413 1.6997268807739117 $411 7.9445255199404521 $409 $500 forward 7 unknown #
vertex $-1 $495 $501 #
straight-curve $-1 -27.460423793811081 -12.766651720297634 14.372506747938477 0.8660253999169214 0 0.50000000669873634 I I #
vertex $-1 $410 $502 #
straight-curve $-1 -45.623950926236759 -6.521853081131094 3.8857892812720962 0.8660253999169214 0 0.50000000669873634 I I #
edge $-1 $503 -45.623950926236759 $287 -34.40978686105322 $286 $504 forward 7 unknown #
point $-1 -34.40978686105322 -12.766651720297634 10.36029003869837 #
point $-1 -34.40978686105322 -6.521853081131094 10.36029003869837 #
edge $-1 $505 1 $505 0 $290 $-1 forward 7 unknown #
vertex $-1 $291 $506 #
ellipse-curve $-1 -39.218634378723856 -11.517691992464329 5.7404569484842138 -0.50000000669873634 0 0.8660253999169214 0.4330126999584607 0 0.25000000334936817 1 I I #
point $-1 -39.583856193686529 -11.517691992464329 7.3730396633346036 #
edge $-1 $507 1 $507 0 $294 $-1 forward 7 unknown #
vertex $-1 $295 $508 #
ellipse-curve $-1 -39.218634378723856 -9.6442524007143664 5.7404569484842138 -0.50000000669873634 0 0.8660253999169214 0.4330126999584607 0 0.25000000334936817 1 I I #
point $-1 -39.583856193686529 -9.6442524007143664 7.3730396633346036 #
edge $-1 $509 1 $509 0 $298 $-1 forward 7 unknown #
vertex $-1 $299 $510 #
ellipse-curve $-1 -39.218634378723856 -7.7708128089644042 5.7404569484842138 -0.50000000669873634 0 0.8660253999169214 0.4330126999584607 0 0.25000000334936817 1 I I #
point $-1 -39.583856193686529 -7.7708128089644042 7.3730396633346036 #
plane-surface $-1 45.623950926236759 0 0 -1 0 0 0 0 1 forward_v I I I I #
coedge $-1 $307 $305 $309 $435 reversed $201 $-1 #
edge $-1 $320 -10.36029003869837 $437 10.36029003869837 $319 $511 forward 7 unknown #
vertex $-1 $435 $512 #
straight-curve $-1 -45.623950926236759 -22.326872020548084 0 0 0 -1 I I #
edge $-1 $433 -22.326872020548084 $437 22.326872020548084 $431 $513 forward 7 unknown #
straight-curve $-1 0 -22.326872020548084 -10.36029003869837 -1 0 0 I I #
vertex $-1 $312 $514 #
straight-curve $-1 0 22.326872020548084 -10.36029003869837 1 0 0 I I #
point $-1 45.623950926236759 22.326872020548084 -10.36029003869837 #
point $-1 45.623950926236759 -22.326872020548084 -10.36029003869837 #
straight-curve $-1 -45.623950926236759 0 10.36029003869837 0 -1 0 I I #
point $-1 -45.623950926236759 22.326872020548084 10.36029003869837 #
point $-1 -45.623950926236759 -22.326872020548084 10.36029003869837 #
straight-curve $-1 45.623950926236759 -22.326872020548084 0 0 0 -1 I I #
straight-curve $-1 45.623950926236759 22.326872020548084 0 0 0 -1 I I #
plane-surface $-1 45.623950926236759 0 0 -1 0 0 0 0 1 forward_v I I I I #
coedge $-1 $333 $332 $343 $458 reversed $134 $-1 #
coedge $-1 $515 $336 $333 $449 forward $330 $-1 #
edge $-1 $450 12.766651720297634 $516 22.326872020548084 $333 $517 forward 7 unknown #
vertex $-1 $449 $518 #
straight-curve $-1 -45.623950926236759 -12.766651720297634 4.3782635660075648 0 0 -1 I I #
coedge $-1 $336 $515 $338 $454 forward $330 $-1 #
straight-curve $-1 0 -12.766651720297634 10.36029003869837 -1 0 0 I I #
edge $-1 $461 -22.326872020548084 $339 -12.766651720297634 $338 $519 forward 7 unknown #
point $-1 45.623950926236759 -12.766651720297634 10.36029003869837 #
straight-curve $-1 -45.623950926236759 -8.7733809352114296 7.1527642253318895 0 -1 0 I I #
coedge $-1 $343 $342 $515 $520 reversed $220 $-1 #
edge $-1 $516 -10.36029003869837 $344 -7.1527642253318895 $447 $521 forward 7 unknown #
point $-1 -45.623950926236759 -22.326872020548084 7.1527642253318895 #
point $-1 -45.623950926236759 -12.766651720297634 7.1527642253318895 #
vertex $-1 $454 $522 #
straight-curve $-1 45.623950926236759 -22.326872020548084 0 0 0 -1 I I #
plane-surface $-1 0 22.326872020548084 0 0 -1 0 0 0 -1 forward_v I I I I #
coedge $-1 $523 $354 $358 $469 forward $237 $-1 #
coedge $-1 $354 $523 $369 $476 forward $237 $-1 #
vertex $-1 $356 $524 #
straight-curve $-1 0 13.244527093828587 -10.36029003869837 -1 0 0 I I #
coedge $-1 $358 $357 $364 $474 forward $352 $-1 #
edge $-1 $359 13.244527093828587 $525 22.326872020548084 $358 $526 forward 7 unknown #
point $-1 -45.623950926236759 13.244527093828587 -10.36029003869837 #
point $-1 -45.623950926236759 13.244527093828587 -6.2746674360172392 #
straight-curve $-1 -45.623950926236759 8.8928497785941669 -6.2746674360172392 0 1 0 I I #
coedge $-1 $364 $363 $523 $527 reversed $365 $-1 #
edge $-1 $366 6.2746674360172392 $525 10.36029003869837 $364 $528 forward 7 unknown #
point $-1 -45.623950926236759 22.32687202054808 -6.2746674360172392 #
edge $-1 $478 -22.326872020548084 $466 -13.244527093828587 $369 $529 forward 7 unknown #
straight-curve $-1 45.623950926236759 13.244527093828587 -4.1587393686789023 0 0 -1 I I #
vertex $-1 $476 $530 #
straight-curve $-1 45.623950926236759 22.326872020548084 0 0 0 -1 I I #
coedge $-1 $385 $384 $377 $481 forward $374 $-1 #
edge $-1 $482 52.704386420198958 $485 62.14618450149392 $480 $531 forward 7 unknown #
vertex $-1 $389 $532 #
straight-curve $-1 38.421263423455095 5.7189384522601294 10.360290038698366 1 0 0 I I #
edge $-1 $485 0.97807206573794936 $386 8.5036607073064108 $385 $533 forward 7 unknown #
vertex $-1 $484 $534 #
straight-curve $-1 -1.3721915936221478 5.7189384522601294 79.133210397935756 -0.51503806187062418 0 0.85716730853699208 I I #
point $-1 39.950746481863028 5.7189384522601294 10.360290038698366 #
point $-1 45.623950926236759 13.244527093828591 0.91849195740340406 #
straight-curve $-1 45.623950926236759 0 10.36029003869837 0 1 0 I I #
vertex $-1 $392 $535 #
point $-1 41.141143786804051 7.8691066355654016 3.4836179399601734 #
vertex $-1 $396 $536 #
point $-1 41.141143786804051 11.094358910523308 3.4836179399601734 #
coedge $-1 $496 $409 $403 $495 forward $400 $-1 #
edge $-1 $411 -37.568605706048139 $503 -31.094104948621865 $494 $537 forward 7 unknown #
coedge $-1 $404 $494 $406 $498 reversed $400 $-1 #
straight-curve $-1 -45.623950926236759 -6.521853081131094 41.454394987320235 0 0 -1 I I #
edge $-1 $407 6.521853081131094 $503 12.766651720297634 $496 $538 forward 7 unknown #
point $-1 -45.623950926236759 -6.521853081131094 10.36029003869837 #
straight-curve $-1 -45.623950926236759 -4.8221262003571823 3.8857892812720962 0 -1 0 I I #
point $-1 -45.623950926236759 -12.766651720297634 3.8857892812720962 #
point $-1 -45.623950926236759 -6.521853081131094 3.8857892812720962 #
vertex $-1 $495 $539 #
straight-curve $-1 0 -12.766651720297634 10.36029003869837 1 0 0 I I #
vertex $-1 $418 $540 #
point $-1 -38.785621678765395 -11.517691992464329 5.9904569518335817 #
vertex $-1 $422 $541 #
point $-1 -38.785621678765395 -9.6442524007143664 5.9904569518335817 #
vertex $-1 $426 $542 #
point $-1 -38.785621678765395 -7.7708128089644042 5.9904569518335817 #
straight-curve $-1 -45.623950926236759 22.326872020548084 0 0 0 -1 I I #
point $-1 -45.623950926236759 -22.326872020548084 -10.36029003869837 #
straight-curve $-1 -45.623950926236759 0 -10.36029003869837 0 1 0 I I #
point $-1 -45.623950926236759 22.326872020548084 -10.36029003869837 #
coedge $-1 $452 $448 $457 $520 forward $330 $-1 #
vertex $-1 $449 $543 #
straight-curve $-1 -45.623950926236759 0 10.36029003869837 0 -1 0 I I #
point $-1 -45.623950926236759 -12.766651720297634 10.36029003869837 #
straight-curve $-1 45.623950926236759 0 10.36029003869837 0 1 0 I I #
edge $-1 $516 -45.623950926236759 $461 45.623950926236759 $457 $544 forward 7 unknown #
straight-curve $-1 -45.623950926236759 -22.326872020548084 0 0 0 -1 I I #
point $-1 45.623950926236759 -22.326872020548084 10.36029003869837 #
coedge $-1 $465 $464 $473 $527 forward $237 $-1 #
point $-1 45.623950926236759 13.244527093828587 -10.36029003869837 #
vertex $-1 $527 $545 #
straight-curve $-1 -45.623950926236759 0 -10.36029003869837 0 1 0 I I #
edge $-1 $525 -45.623950926236759 $478 45.623950926236759 $473 $546 forward 7 unknown #
straight-curve $-1 -45.623950926236759 22.326872020548084 0 0 0 -1 I I #
straight-curve $-1 45.623950926236759 0 -10.36029003869837 0 -1 0 I I #
point $-1 45.623950926236759 22.326872020548084 -10.36029003869837 #
straight-curve $-1 45.623950926236759 5.7189384522601294 63.064676458897324 0 0 -1 I I #
point $-1 45.623950926236759 5.7189384522601294 10.36029003869837 #
straight-curve $-1 45.623950926236759 4.7408663865221801 0.91849195740341827 0 1 0 I I #
point $-1 45.623950926236759 5.7189384522601294 0.91849195740340406 #
point $-1 39.768938416396438 7.8691066355654016 3.8257471866265407 #
point $-1 39.768938416396438 11.094358910523308 3.8257471866265407 #
straight-curve $-1 -45.623950926236759 -12.766651720297634 41.454394987320235 0 0 1 I I #
straight-curve $-1 -45.623950926236759 0 10.36029003869837 0 -1 0 I I #
point $-1 -45.623950926236759 -12.766651720297634 10.36029003869837 #
point $-1 -38.968634375374485 -11.517691992464329 5.3074442485257531 #
point $-1 -38.968634375374485 -9.6442524007143664 5.3074442485257531 #
point $-1 -38.968634375374485 -7.7708128089644042 5.3074442485257531 #
point $-1 -45.623950926236759 -22.326872020548084 10.36029003869837 #
straight-curve $-1 0 -22.326872020548084 10.36029003869837 1 0 0 I I #
point $-1 -45.623950926236759 22.326872020548084 -10.36029003869837 #
straight-curve $-1 0 22.326872020548084 -10.36029003869837 1 0 0 I I #
End-of-ACIS-data 