500 0 11 0           
7 Unknown 11 ACIS 5.0 NT 24 Thu Mar 25 16:39:18 1999 
-1 9.9999999999999995e-007 1e-010 
body $-1 $11 $-1 $12 #
body $-1 $13 $-1 $14 #
body $-1 $15 $-1 $16 #
body $-1 $17 $-1 $18 #
body $-1 $19 $-1 $20 #
body $-1 $21 $-1 $22 #
body $-1 $23 $-1 $24 #
body $-1 $25 $-1 $26 #
body $-1 $27 $-1 $28 #
body $-1 $29 $-1 $30 #
body $-1 $31 $-1 $32 #
lump $-1 $-1 $33 $0 #
transform $-1 1 0 0 0 1 0 0 0 1 40.656758323923462 27.868621489134888 6.6841485727442578 1 rotate no_reflect no_shear #
lump $-1 $-1 $34 $1 #
transform $-1 1 0 0 0 1 0 0 0 1 2.3485479257773845 27.868621489134888 6.2101896555336822 1 rotate no_reflect no_shear #
lump $-1 $-1 $35 $2 #
transform $-1 1 0 0 0 1 0 0 0 1 78.964968722069543 27.868621489134888 6.2101896555336822 1 rotate no_reflect no_shear #
lump $-1 $-1 $36 $3 #
transform $-1 1 0 0 0 0.75470957328743171 -0.6560590369687036 0 0.6560590369687036 0.75470957328743171 24.167097654837185 67.01827953844699 107.50547175358159 1 rotate no_reflect no_shear #
lump $-1 $-1 $37 $4 #
transform $-1 1 0 0 0 -0.75470957328743171 0.6560590369687036 0 -0.6560590369687036 -0.75470957328743171 19.137573624025201 51.942812769441169 9.6173149597856487 1 rotate no_reflect no_shear #
lump $-1 $-1 $38 $5 #
transform $-1 1 0 0 0 -0.75470957328743171 0.6560590369687036 0 -0.6560590369687036 -0.75470957328743171 24.167097654837185 51.942812769441169 9.6173149597856487 1 rotate no_reflect no_shear #
lump $-1 $-1 $39 $6 #
transform $-1 1 0 0 0 -0.75470957328743171 0.6560590369687036 0 -0.6560590369687036 -0.75470957328743171 29.19662168564917 51.942812769441169 9.6173149597856487 1 rotate no_reflect no_shear #
lump $-1 $-1 $40 $7 #
transform $-1 1 0 0 0 0.55919289150049634 0.82903758062907751 0 -0.82903758062907751 0.55919289150049634 29.452426701995591 -67.411961114173238 53.15014827732093 1 rotate no_reflect no_shear #
lump $-1 $-1 $41 $8 #
transform $-1 1 0 0 0 -0.55919289150049634 -0.82903758062907751 0 0.82903758062907751 -0.55919289150049634 29.452426701995591 5.7945643401787121 7.9097010218673258 1 rotate no_reflect no_shear #
lump $-1 $-1 $42 $9 #
transform $-1 1 0 0 0 0.55919289150049634 0.82903758062907751 0 -0.82903758062907751 0.55919289150049634 65.412089174364297 -67.411961114173238 53.15014827732093 1 rotate no_reflect no_shear #
lump $-1 $-1 $43 $10 #
transform $-1 1 0 0 0 -0.55919289150049634 -0.82903758062907751 0 0.82903758062907751 -0.55919289150049634 65.412089174364297 5.7945643401787121 7.9097010218673258 1 rotate no_reflect no_shear #
shell $-1 $-1 $-1 $44 $-1 $11 #
shell $-1 $-1 $-1 $45 $-1 $13 #
shell $-1 $-1 $-1 $46 $-1 $15 #
shell $-1 $-1 $-1 $47 $-1 $17 #
shell $-1 $-1 $-1 $48 $-1 $19 #
shell $-1 $-1 $-1 $49 $-1 $21 #
shell $-1 $-1 $-1 $50 $-1 $23 #
shell $-1 $-1 $-1 $51 $-1 $25 #
shell $-1 $-1 $-1 $52 $-1 $27 #
shell $-1 $-1 $-1 $53 $-1 $29 #
shell $-1 $-1 $-1 $54 $-1 $31 #
face $-1 $55 $56 $33 $-1 $57 forward single #
face $-1 $58 $59 $34 $-1 $60 forward single #
face $-1 $61 $62 $35 $-1 $63 forward single #
face $-1 $64 $65 $36 $-1 $66 forward single #
face $-1 $67 $68 $37 $-1 $69 forward single #
face $-1 $70 $71 $38 $-1 $72 forward single #
face $-1 $73 $74 $39 $-1 $75 forward single #
face $-1 $76 $77 $40 $-1 $78 forward single #
face $-1 $79 $80 $41 $-1 $81 forward single #
face $-1 $82 $83 $42 $-1 $84 forward single #
face $-1 $85 $86 $43 $-1 $87 forward single #
face $-1 $88 $89 $33 $-1 $90 reversed single #
loop $-1 $-1 $91 $44 #
plane-surface $-1 0 0 6.6841485727442578 0 0 1 1 0 0 forward_v I I I I #
face $-1 $92 $93 $34 $-1 $94 reversed single #
loop $-1 $-1 $95 $45 #
plane-surface $-1 0 0 1.6006095088362624 0 0 1 1 0 0 forward_v I I I I #
face $-1 $96 $97 $35 $-1 $98 reversed single #
loop $-1 $-1 $99 $46 #
plane-surface $-1 0 0 1.6006095088362624 0 0 1 1 0 0 forward_v I I I I #
face $-1 $100 $101 $36 $-1 $102 reversed single #
loop $-1 $-1 $103 $47 #
plane-surface $-1 0 0 81.313516647846924 0 0 1 1 0 0 forward_v I I I I #
face $-1 $104 $105 $37 $-1 $106 forward single #
loop $-1 $107 $108 $48 #
cone-surface $-1 0 0 -1.477004303109835 0 0 1 1 0 0 1 I I 0 1 1 forward I I I I #
face $-1 $109 $110 $38 $-1 $111 forward single #
loop $-1 $112 $113 $49 #
cone-surface $-1 0 0 -1.477004303109835 0 0 1 1 0 0 1 I I 0 1 1 forward I I I I #
face $-1 $114 $115 $39 $-1 $116 forward single #
loop $-1 $117 $118 $50 #
cone-surface $-1 0 0 -1.477004303109835 0 0 1 1 0 0 1 I I 0 1 1 forward I I I I #
face $-1 $119 $120 $40 $-1 $121 reversed single #
loop $-1 $-1 $122 $51 #
plane-surface $-1 0 0 81.313516647846924 0 0 1 1 0 0 forward_v I I I I #
face $-1 $123 $124 $41 $-1 $125 forward single #
loop $-1 $126 $127 $52 #
cone-surface $-1 0 0 -2.7127903073213906 0 0 1 1.5 0 0 1 I I 0 1 1.5 forward I I I I #
face $-1 $128 $129 $42 $-1 $130 reversed single #
loop $-1 $-1 $131 $53 #
plane-surface $-1 0 0 81.313516647846924 0 0 1 1 0 0 forward_v I I I I #
face $-1 $132 $133 $43 $-1 $134 forward single #
loop $-1 $135 $136 $54 #
cone-surface $-1 0 0 -2.7127903073213906 0 0 1 1.5 0 0 1 I I 0 1 1.5 forward I I I I #
face $-1 $137 $138 $33 $-1 $139 reversed single #
loop $-1 $-1 $140 $55 #
plane-surface $-1 0 0 -6.6841485727442578 0 0 1 1 0 0 forward_v I I I I #
coedge $-1 $141 $142 $143 $144 forward $56 $-1 #
face $-1 $145 $146 $34 $-1 $147 reversed single #
loop $-1 $-1 $148 $58 #
plane-surface $-1 0 0 -1.6006095088362624 0 0 1 1 0 0 forward_v I I I I #
coedge $-1 $149 $150 $151 $152 forward $59 $-1 #
face $-1 $153 $154 $35 $-1 $155 reversed single #
loop $-1 $-1 $156 $61 #
plane-surface $-1 0 0 -1.6006095088362624 0 0 1 1 0 0 forward_v I I I I #
coedge $-1 $157 $158 $159 $160 forward $62 $-1 #
face $-1 $161 $162 $36 $-1 $163 reversed single #
loop $-1 $-1 $164 $64 #
plane-surface $-1 0 0 -81.313516647846924 0 0 1 1 0 0 forward_v I I I I #
coedge $-1 $165 $166 $167 $168 forward $65 $-1 #
face $-1 $-1 $169 $37 $-1 $170 forward single #
loop $-1 $-1 $171 $67 #
plane-surface $-1 0 0 -2.4540086062196709 0 0 -1 -1 0 0 forward_v I I I I #
loop $-1 $-1 $172 $48 #
coedge $-1 $108 $108 $171 $173 reversed $68 $-1 #
face $-1 $-1 $174 $38 $-1 $175 forward single #
loop $-1 $-1 $176 $70 #
plane-surface $-1 0 0 -2.4540086062196709 0 0 -1 -1 0 0 forward_v I I I I #
loop $-1 $-1 $177 $49 #
coedge $-1 $113 $113 $176 $178 reversed $71 $-1 #
face $-1 $-1 $179 $39 $-1 $180 forward single #
loop $-1 $-1 $181 $73 #
plane-surface $-1 0 0 -2.4540086062196709 0 0 -1 -1 0 0 forward_v I I I I #
loop $-1 $-1 $182 $50 #
coedge $-1 $118 $118 $181 $183 reversed $74 $-1 #
face $-1 $184 $185 $40 $-1 $186 reversed single #
loop $-1 $-1 $187 $76 #
plane-surface $-1 0 0 -81.313516647846924 0 0 1 1 0 0 forward_v I I I I #
coedge $-1 $188 $189 $190 $191 forward $77 $-1 #
face $-1 $-1 $192 $41 $-1 $193 forward single #
loop $-1 $-1 $194 $79 #
plane-surface $-1 0 0 -4.6755806146427812 0 0 -1 -1 0 0 forward_v I I I I #
loop $-1 $-1 $195 $52 #
coedge $-1 $127 $127 $194 $196 reversed $80 $-1 #
face $-1 $197 $198 $42 $-1 $199 reversed single #
loop $-1 $-1 $200 $82 #
plane-surface $-1 0 0 -81.313516647846924 0 0 1 1 0 0 forward_v I I I I #
coedge $-1 $201 $202 $203 $204 forward $83 $-1 #
face $-1 $-1 $205 $43 $-1 $206 forward single #
loop $-1 $-1 $207 $85 #
plane-surface $-1 0 0 -4.6755806146427812 0 0 -1 -1 0 0 forward_v I I I I #
loop $-1 $-1 $208 $54 #
coedge $-1 $136 $136 $207 $209 reversed $86 $-1 #
face $-1 $210 $211 $33 $-1 $212 reversed single #
loop $-1 $-1 $213 $88 #
plane-surface $-1 0 -27.868621489134888 0 0 1 0 0 0 1 forward_v I I I I #
coedge $-1 $214 $215 $216 $217 forward $89 $-1 #
coedge $-1 $218 $91 $219 $220 forward $56 $-1 #
coedge $-1 $91 $218 $221 $222 forward $56 $-1 #
coedge $-1 $223 $224 $91 $144 reversed $225 $-1 #
edge $-1 $226 -27.868621489134888 $227 27.868621489134888 $143 $228 forward 7 unknown #
face $-1 $229 $230 $34 $-1 $231 reversed single #
loop $-1 $-1 $232 $92 #
plane-surface $-1 0 -27.868621489134888 0 0 1 0 0 0 1 forward_v I I I I #
coedge $-1 $233 $234 $235 $236 forward $93 $-1 #
coedge $-1 $237 $95 $238 $239 forward $59 $-1 #
coedge $-1 $95 $237 $240 $241 forward $59 $-1 #
coedge $-1 $242 $243 $95 $152 reversed $244 $-1 #
edge $-1 $245 -27.868621489134888 $246 27.868621489134888 $151 $247 forward 7 unknown #
face $-1 $248 $249 $35 $-1 $250 reversed single #
loop $-1 $-1 $251 $96 #
plane-surface $-1 0 -27.868621489134888 0 0 1 0 0 0 1 forward_v I I I I #
coedge $-1 $252 $253 $254 $255 forward $97 $-1 #
coedge $-1 $256 $99 $257 $258 forward $62 $-1 #
coedge $-1 $99 $256 $259 $260 forward $62 $-1 #
coedge $-1 $261 $262 $99 $160 reversed $263 $-1 #
edge $-1 $264 -27.868621489134888 $265 27.868621489134888 $159 $266 forward 7 unknown #
face $-1 $267 $268 $36 $-1 $269 reversed single #
loop $-1 $-1 $270 $100 #
plane-surface $-1 0 -162.62703329569385 0 0 1 0 0 0 1 forward_v I I I I #
coedge $-1 $271 $272 $273 $274 forward $101 $-1 #
coedge $-1 $275 $103 $276 $277 forward $65 $-1 #
coedge $-1 $103 $275 $278 $279 forward $65 $-1 #
coedge $-1 $280 $281 $103 $168 reversed $282 $-1 #
edge $-1 $283 -162.62703329569385 $284 162.62703329569385 $167 $285 forward 7 unknown #
loop $-1 $286 $287 $104 #
cone-surface $-1 0 0 0 0 0 1 0.5 0 0 1 I I -0.70710678118654746 0.70710678118654746 0.5 forward I I I I #
coedge $-1 $171 $171 $108 $173 forward $105 $-1 #
coedge $-1 $172 $172 $287 $288 forward $107 $-1 #
edge $-1 $289 0 $289 6.2831853071796004 $171 $290 forward 7 unknown #
loop $-1 $291 $292 $109 #
cone-surface $-1 0 0 0 0 0 1 0.5 0 0 1 I I -0.70710678118654746 0.70710678118654746 0.5 forward I I I I #
coedge $-1 $176 $176 $113 $178 forward $110 $-1 #
coedge $-1 $177 $177 $292 $293 forward $112 $-1 #
edge $-1 $294 0 $294 6.2831853071796004 $176 $295 forward 7 unknown #
loop $-1 $296 $297 $114 #
cone-surface $-1 0 0 0 0 0 1 0.5 0 0 1 I I -0.70710678118654746 0.70710678118654746 0.5 forward I I I I #
coedge $-1 $181 $181 $118 $183 forward $115 $-1 #
coedge $-1 $182 $182 $297 $298 forward $117 $-1 #
edge $-1 $299 0 $299 6.2831853071796004 $181 $300 forward 7 unknown #
face $-1 $301 $302 $40 $-1 $303 reversed single #
loop $-1 $-1 $304 $119 #
plane-surface $-1 0 -162.62703329569385 0 0 1 0 0 0 1 forward_v I I I I #
coedge $-1 $305 $306 $307 $308 forward $120 $-1 #
coedge $-1 $309 $122 $310 $311 forward $77 $-1 #
coedge $-1 $122 $309 $312 $313 forward $77 $-1 #
coedge $-1 $314 $315 $122 $191 reversed $316 $-1 #
edge $-1 $317 -162.62703329569385 $318 162.62703329569385 $190 $319 forward 7 unknown #
loop $-1 $320 $321 $123 #
cone-surface $-1 0 0 0 0 0 1 0.75 0 0 1 I I -0.70710678118654757 0.70710678118654757 0.75 forward I I I I #
coedge $-1 $194 $194 $127 $196 forward $124 $-1 #
coedge $-1 $195 $195 $321 $322 forward $126 $-1 #
edge $-1 $323 0 $323 6.2831853071796004 $194 $324 forward 7 unknown #
face $-1 $325 $326 $42 $-1 $327 reversed single #
loop $-1 $-1 $328 $128 #
plane-surface $-1 0 -162.62703329569385 0 0 1 0 0 0 1 forward_v I I I I #
coedge $-1 $329 $330 $331 $332 forward $129 $-1 #
coedge $-1 $333 $131 $334 $335 forward $83 $-1 #
coedge $-1 $131 $333 $336 $337 forward $83 $-1 #
coedge $-1 $338 $339 $131 $204 reversed $340 $-1 #
edge $-1 $341 -162.62703329569385 $342 162.62703329569385 $203 $343 forward 7 unknown #
loop $-1 $344 $345 $132 #
cone-surface $-1 0 0 0 0 0 1 0.75 0 0 1 I I -0.70710678118654757 0.70710678118654757 0.75 forward I I I I #
coedge $-1 $207 $207 $136 $209 forward $133 $-1 #
coedge $-1 $208 $208 $345 $346 forward $135 $-1 #
edge $-1 $347 0 $347 6.2831853071796004 $207 $348 forward 7 unknown #
face $-1 $349 $350 $33 $-1 $351 reversed single #
loop $-1 $-1 $352 $137 #
plane-surface $-1 -40.656758323923462 0 0 1 0 0 0 0 -1 forward_v I I I I #
coedge $-1 $353 $221 $354 $355 forward $138 $-1 #
coedge $-1 $356 $140 $353 $357 forward $89 $-1 #
coedge $-1 $140 $356 $358 $359 forward $89 $-1 #
coedge $-1 $224 $223 $140 $217 reversed $225 $-1 #
edge $-1 $360 -27.868621489134888 $361 27.868621489134888 $216 $362 forward 7 unknown #
coedge $-1 $142 $141 $363 $364 forward $56 $-1 #
coedge $-1 $365 $366 $141 $220 reversed $350 $-1 #
edge $-1 $227 -40.656758323923462 $367 40.656758323923462 $219 $368 forward 7 unknown #
coedge $-1 $213 $369 $142 $222 reversed $138 $-1 #
edge $-1 $370 -40.656758323923462 $226 40.656758323923462 $221 $371 forward 7 unknown #
coedge $-1 $216 $143 $369 $372 forward $225 $-1 #
coedge $-1 $143 $216 $365 $373 reversed $225 $-1 #
loop $-1 $-1 $223 $349 #
vertex $-1 $144 $374 #
vertex $-1 $144 $375 #
straight-curve $-1 40.656758323923462 0 6.6841485727442578 0 1 0 I I #
face $-1 $376 $377 $34 $-1 $378 reversed single #
loop $-1 $-1 $379 $145 #
plane-surface $-1 -2.3485479257773845 0 0 1 0 0 0 0 -1 forward_v I I I I #
coedge $-1 $380 $240 $381 $382 forward $146 $-1 #
coedge $-1 $383 $148 $380 $384 forward $93 $-1 #
coedge $-1 $148 $383 $385 $386 forward $93 $-1 #
coedge $-1 $243 $242 $148 $236 reversed $244 $-1 #
edge $-1 $387 -27.868621489134888 $388 27.868621489134888 $235 $389 forward 7 unknown #
coedge $-1 $150 $149 $390 $391 forward $59 $-1 #
coedge $-1 $392 $393 $149 $239 reversed $377 $-1 #
edge $-1 $246 -2.3485479257773845 $394 2.3485479257773845 $238 $395 forward 7 unknown #
coedge $-1 $232 $396 $150 $241 reversed $146 $-1 #
edge $-1 $397 -2.3485479257773845 $245 2.3485479257773845 $240 $398 forward 7 unknown #
coedge $-1 $235 $151 $396 $399 forward $244 $-1 #
coedge $-1 $151 $235 $392 $400 reversed $244 $-1 #
loop $-1 $-1 $242 $376 #
vertex $-1 $152 $401 #
vertex $-1 $152 $402 #
straight-curve $-1 2.3485479257773845 0 1.6006095088362624 0 1 0 I I #
face $-1 $403 $404 $35 $-1 $405 reversed single #
loop $-1 $-1 $406 $153 #
plane-surface $-1 -2.3485479257773818 0 0 1 0 0 0 0 -1 forward_v I I I I #
coedge $-1 $407 $259 $408 $409 forward $154 $-1 #
coedge $-1 $410 $156 $407 $411 forward $97 $-1 #
coedge $-1 $156 $410 $412 $413 forward $97 $-1 #
coedge $-1 $262 $261 $156 $255 reversed $263 $-1 #
edge $-1 $414 -27.868621489134888 $415 27.868621489134888 $254 $416 forward 7 unknown #
coedge $-1 $158 $157 $417 $418 forward $62 $-1 #
coedge $-1 $419 $420 $157 $258 reversed $404 $-1 #
edge $-1 $265 -2.3485479257773818 $421 2.3485479257773818 $257 $422 forward 7 unknown #
coedge $-1 $251 $423 $158 $260 reversed $154 $-1 #
edge $-1 $424 -2.3485479257773818 $264 2.3485479257773818 $259 $425 forward 7 unknown #
coedge $-1 $254 $159 $423 $426 forward $263 $-1 #
coedge $-1 $159 $254 $419 $427 reversed $263 $-1 #
loop $-1 $-1 $261 $403 #
vertex $-1 $160 $428 #
vertex $-1 $160 $429 #
straight-curve $-1 2.3485479257773818 0 1.6006095088362624 0 1 0 I I #
face $-1 $430 $431 $36 $-1 $432 reversed single #
loop $-1 $-1 $433 $161 #
plane-surface $-1 -8.3825400513533079 0 0 1 0 0 0 0 -1 forward_v I I I I #
coedge $-1 $434 $278 $435 $436 forward $162 $-1 #
coedge $-1 $437 $164 $434 $438 forward $101 $-1 #
coedge $-1 $164 $437 $439 $440 forward $101 $-1 #
coedge $-1 $281 $280 $164 $274 reversed $282 $-1 #
edge $-1 $441 -162.62703329569385 $442 162.62703329569385 $273 $443 forward 7 unknown #
coedge $-1 $166 $165 $444 $445 forward $65 $-1 #
coedge $-1 $446 $447 $165 $277 reversed $431 $-1 #
edge $-1 $284 -8.3825400513533079 $448 8.3825400513533079 $276 $449 forward 7 unknown #
coedge $-1 $270 $450 $166 $279 reversed $162 $-1 #
edge $-1 $451 -8.3825400513533079 $283 8.3825400513533079 $278 $452 forward 7 unknown #
coedge $-1 $273 $167 $450 $453 forward $282 $-1 #
coedge $-1 $167 $273 $446 $454 reversed $282 $-1 #
loop $-1 $-1 $280 $430 #
vertex $-1 $168 $455 #
vertex $-1 $168 $456 #
straight-curve $-1 8.3825400513533079 0 81.313516647846924 0 1 0 I I #
loop $-1 $-1 $457 $104 #
coedge $-1 $287 $287 $172 $288 reversed $169 $-1 #
edge $-1 $458 0 $458 6.2831853071796004 $287 $459 forward 7 unknown #
vertex $-1 $173 $460 #
ellipse-curve $-1 0 0 -2.4540086062196709 0 0 -1 1 0 0 1 I I #
loop $-1 $-1 $461 $109 #
coedge $-1 $292 $292 $177 $293 reversed $174 $-1 #
edge $-1 $462 0 $462 6.2831853071796004 $292 $463 forward 7 unknown #
vertex $-1 $178 $464 #
ellipse-curve $-1 0 0 -2.4540086062196709 0 0 -1 1 0 0 1 I I #
loop $-1 $-1 $465 $114 #
coedge $-1 $297 $297 $182 $298 reversed $179 $-1 #
edge $-1 $466 0 $466 6.2831853071796004 $297 $467 forward 7 unknown #
vertex $-1 $183 $468 #
ellipse-curve $-1 0 0 -2.4540086062196709 0 0 -1 1 0 0 1 I I #
face $-1 $469 $470 $40 $-1 $471 reversed single #
loop $-1 $-1 $472 $184 #
plane-surface $-1 -5.6126682261286902 0 0 1 0 0 0 0 -1 forward_v I I I I #
coedge $-1 $473 $312 $474 $475 forward $185 $-1 #
coedge $-1 $476 $187 $473 $477 forward $120 $-1 #
coedge $-1 $187 $476 $478 $479 forward $120 $-1 #
coedge $-1 $315 $314 $187 $308 reversed $316 $-1 #
edge $-1 $480 -162.62703329569385 $481 162.62703329569385 $307 $482 forward 7 unknown #
coedge $-1 $189 $188 $483 $484 forward $77 $-1 #
coedge $-1 $485 $486 $188 $311 reversed $470 $-1 #
edge $-1 $318 -5.6126682261286902 $487 5.6126682261286902 $310 $488 forward 7 unknown #
coedge $-1 $304 $489 $189 $313 reversed $185 $-1 #
edge $-1 $490 -5.6126682261286902 $317 5.6126682261286902 $312 $491 forward 7 unknown #
coedge $-1 $307 $190 $489 $492 forward $316 $-1 #
coedge $-1 $190 $307 $485 $493 reversed $316 $-1 #
loop $-1 $-1 $314 $469 #
vertex $-1 $191 $494 #
vertex $-1 $191 $495 #
straight-curve $-1 5.6126682261286902 0 81.313516647846924 0 1 0 I I #
loop $-1 $-1 $496 $123 #
coedge $-1 $321 $321 $195 $322 reversed $192 $-1 #
edge $-1 $497 0 $497 6.2831853071796004 $321 $498 forward 7 unknown #
vertex $-1 $196 $499 #
ellipse-curve $-1 0 0 -4.6755806146427812 0 0 -1 1.5 0 0 1 I I #
face $-1 $500 $501 $42 $-1 $502 reversed single #
loop $-1 $-1 $503 $197 #
plane-surface $-1 -5.6126682261286902 0 0 1 0 0 0 0 -1 forward_v I I I I #
coedge $-1 $504 $336 $505 $506 forward $198 $-1 #
coedge $-1 $507 $200 $504 $508 forward $129 $-1 #
coedge $-1 $200 $507 $509 $510 forward $129 $-1 #
coedge $-1 $339 $338 $200 $332 reversed $340 $-1 #
edge $-1 $511 -162.62703329569385 $512 162.62703329569385 $331 $513 forward 7 unknown #
coedge $-1 $202 $201 $514 $515 forward $83 $-1 #
coedge $-1 $516 $517 $201 $335 reversed $501 $-1 #
edge $-1 $342 -5.6126682261286902 $518 5.6126682261286902 $334 $519 forward 7 unknown #
coedge $-1 $328 $520 $202 $337 reversed $198 $-1 #
edge $-1 $521 -5.6126682261286902 $341 5.6126682261286902 $336 $522 forward 7 unknown #
coedge $-1 $331 $203 $520 $523 forward $340 $-1 #
coedge $-1 $203 $331 $516 $524 reversed $340 $-1 #
loop $-1 $-1 $338 $500 #
vertex $-1 $204 $525 #
vertex $-1 $204 $526 #
straight-curve $-1 5.6126682261286902 0 81.313516647846924 0 1 0 I I #
loop $-1 $-1 $527 $132 #
coedge $-1 $345 $345 $208 $346 reversed $205 $-1 #
edge $-1 $528 0 $528 6.2831853071796004 $345 $529 forward 7 unknown #
vertex $-1 $209 $530 #
ellipse-curve $-1 0 0 -4.6755806146427812 0 0 -1 1.5 0 0 1 I I #
face $-1 $-1 $225 $33 $-1 $531 reversed single #
loop $-1 $-1 $365 $210 #
plane-surface $-1 0 27.868621489134888 0 0 -1 0 0 0 -1 forward_v I I I I #
coedge $-1 $532 $363 $366 $533 forward $211 $-1 #
coedge $-1 $369 $213 $214 $357 reversed $138 $-1 #
coedge $-1 $363 $532 $213 $355 reversed $211 $-1 #
edge $-1 $370 -6.6841485727442578 $534 6.6841485727442578 $354 $535 forward 7 unknown #
coedge $-1 $215 $214 $532 $536 forward $89 $-1 #
edge $-1 $361 -40.656758323923462 $534 40.656758323923462 $353 $537 forward 7 unknown #
coedge $-1 $366 $365 $215 $359 reversed $350 $-1 #
edge $-1 $538 -40.656758323923462 $360 40.656758323923462 $358 $539 forward 7 unknown #
vertex $-1 $217 $540 #
vertex $-1 $372 $541 #
straight-curve $-1 40.656758323923462 0 -6.6841485727442578 0 -1 0 I I #
coedge $-1 $352 $354 $218 $364 reversed $211 $-1 #
edge $-1 $367 -27.868621489134888 $370 27.868621489134888 $363 $542 forward 7 unknown #
coedge $-1 $358 $219 $224 $373 forward $350 $-1 #
coedge $-1 $219 $358 $352 $533 reversed $350 $-1 #
vertex $-1 $220 $543 #
straight-curve $-1 0 27.868621489134888 6.6841485727442578 -1 0 0 I I #
coedge $-1 $221 $353 $223 $372 reversed $138 $-1 #
vertex $-1 $364 $544 #
straight-curve $-1 0 -27.868621489134888 6.6841485727442578 1 0 0 I I #
edge $-1 $226 -6.6841485727442578 $361 6.6841485727442578 $223 $545 forward 7 unknown #
edge $-1 $227 -6.6841485727442578 $360 6.6841485727442578 $224 $546 forward 7 unknown #
point $-1 40.656758323923462 -27.868621489134888 6.6841485727442578 #
point $-1 40.656758323923462 27.868621489134888 6.6841485727442578 #
face $-1 $-1 $244 $34 $-1 $547 reversed single #
loop $-1 $-1 $392 $229 #
plane-surface $-1 0 27.868621489134888 0 0 -1 0 0 0 -1 forward_v I I I I #
coedge $-1 $548 $390 $393 $549 forward $230 $-1 #
coedge $-1 $396 $232 $233 $384 reversed $146 $-1 #
coedge $-1 $390 $548 $232 $382 reversed $230 $-1 #
edge $-1 $397 -1.6006095088362624 $550 1.6006095088362624 $381 $551 forward 7 unknown #
coedge $-1 $234 $233 $548 $552 forward $93 $-1 #
edge $-1 $388 -2.3485479257773845 $550 2.3485479257773845 $380 $553 forward 7 unknown #
coedge $-1 $393 $392 $234 $386 reversed $377 $-1 #
edge $-1 $554 -2.3485479257773845 $387 2.3485479257773845 $385 $555 forward 7 unknown #
vertex $-1 $236 $556 #
vertex $-1 $399 $557 #
straight-curve $-1 2.3485479257773845 0 -1.6006095088362624 0 -1 0 I I #
coedge $-1 $379 $381 $237 $391 reversed $230 $-1 #
edge $-1 $394 -27.868621489134888 $397 27.868621489134888 $390 $558 forward 7 unknown #
coedge $-1 $385 $238 $243 $400 forward $377 $-1 #
coedge $-1 $238 $385 $379 $549 reversed $377 $-1 #
vertex $-1 $239 $559 #
straight-curve $-1 0 27.868621489134888 1.6006095088362624 -1 0 0 I I #
coedge $-1 $240 $380 $242 $399 reversed $146 $-1 #
vertex $-1 $391 $560 #
straight-curve $-1 0 -27.868621489134888 1.6006095088362624 1 0 0 I I #
edge $-1 $245 -1.6006095088362624 $388 1.6006095088362624 $242 $561 forward 7 unknown #
edge $-1 $246 -1.6006095088362624 $387 1.6006095088362624 $243 $562 forward 7 unknown #
point $-1 2.3485479257773845 -27.868621489134888 1.6006095088362624 #
point $-1 2.3485479257773845 27.868621489134888 1.6006095088362624 #
face $-1 $-1 $263 $35 $-1 $563 reversed single #
loop $-1 $-1 $419 $248 #
plane-surface $-1 0 27.868621489134888 0 0 -1 0 0 0 -1 forward_v I I I I #
coedge $-1 $564 $417 $420 $565 forward $249 $-1 #
coedge $-1 $423 $251 $252 $411 reversed $154 $-1 #
coedge $-1 $417 $564 $251 $409 reversed $249 $-1 #
edge $-1 $424 -1.6006095088362624 $566 1.6006095088362624 $408 $567 forward 7 unknown #
coedge $-1 $253 $252 $564 $568 forward $97 $-1 #
edge $-1 $415 -2.3485479257773818 $566 2.3485479257773818 $407 $569 forward 7 unknown #
coedge $-1 $420 $419 $253 $413 reversed $404 $-1 #
edge $-1 $570 -2.3485479257773818 $414 2.3485479257773818 $412 $571 forward 7 unknown #
vertex $-1 $255 $572 #
vertex $-1 $426 $573 #
straight-curve $-1 2.3485479257773818 0 -1.6006095088362624 0 -1 0 I I #
coedge $-1 $406 $408 $256 $418 reversed $249 $-1 #
edge $-1 $421 -27.868621489134888 $424 27.868621489134888 $417 $574 forward 7 unknown #
coedge $-1 $412 $257 $262 $427 forward $404 $-1 #
coedge $-1 $257 $412 $406 $565 reversed $404 $-1 #
vertex $-1 $258 $575 #
straight-curve $-1 0 27.868621489134888 1.6006095088362624 -1 0 0 I I #
coedge $-1 $259 $407 $261 $426 reversed $154 $-1 #
vertex $-1 $418 $576 #
straight-curve $-1 0 -27.868621489134888 1.6006095088362624 1 0 0 I I #
edge $-1 $264 -1.6006095088362624 $415 1.6006095088362624 $261 $577 forward 7 unknown #
edge $-1 $265 -1.6006095088362624 $414 1.6006095088362624 $262 $578 forward 7 unknown #
point $-1 2.3485479257773818 -27.868621489134888 1.6006095088362624 #
point $-1 2.3485479257773818 27.868621489134888 1.6006095088362624 #
face $-1 $-1 $282 $36 $-1 $579 reversed single #
loop $-1 $-1 $446 $267 #
plane-surface $-1 0 162.62703329569385 0 0 -1 0 0 0 -1 forward_v I I I I #
coedge $-1 $580 $444 $447 $581 forward $268 $-1 #
coedge $-1 $450 $270 $271 $438 reversed $162 $-1 #
coedge $-1 $444 $580 $270 $436 reversed $268 $-1 #
edge $-1 $451 -81.313516647846924 $582 81.313516647846924 $435 $583 forward 7 unknown #
coedge $-1 $272 $271 $580 $584 forward $101 $-1 #
edge $-1 $442 -8.3825400513533079 $582 8.3825400513533079 $434 $585 forward 7 unknown #
coedge $-1 $447 $446 $272 $440 reversed $431 $-1 #
edge $-1 $586 -8.3825400513533079 $441 8.3825400513533079 $439 $587 forward 7 unknown #
vertex $-1 $274 $588 #
vertex $-1 $453 $589 #
straight-curve $-1 8.3825400513533079 0 -81.313516647846924 0 -1 0 I I #
coedge $-1 $433 $435 $275 $445 reversed $268 $-1 #
edge $-1 $448 -162.62703329569385 $451 162.62703329569385 $444 $590 forward 7 unknown #
coedge $-1 $439 $276 $281 $454 forward $431 $-1 #
coedge $-1 $276 $439 $433 $581 reversed $431 $-1 #
vertex $-1 $277 $591 #
straight-curve $-1 0 162.62703329569385 81.313516647846924 -1 0 0 I I #
coedge $-1 $278 $434 $280 $453 reversed $162 $-1 #
vertex $-1 $445 $592 #
straight-curve $-1 0 -162.62703329569385 81.313516647846924 1 0 0 I I #
edge $-1 $283 -81.313516647846924 $442 81.313516647846924 $280 $593 forward 7 unknown #
edge $-1 $284 -81.313516647846924 $441 81.313516647846924 $281 $594 forward 7 unknown #
point $-1 8.3825400513533079 -162.62703329569385 81.313516647846924 #
point $-1 8.3825400513533079 162.62703329569385 81.313516647846924 #
coedge $-1 $457 $457 $-1 $595 reversed $286 $-1 #
vertex $-1 $288 $596 #
ellipse-curve $-1 0 0 -0.5 0 0 -1 1 0 0 1 I I #
point $-1 1 0 -2.4540086062196709 #
coedge $-1 $461 $461 $-1 $597 reversed $291 $-1 #
vertex $-1 $293 $598 #
ellipse-curve $-1 0 0 -0.5 0 0 -1 1 0 0 1 I I #
point $-1 1 0 -2.4540086062196709 #
coedge $-1 $465 $465 $-1 $599 reversed $296 $-1 #
vertex $-1 $298 $600 #
ellipse-curve $-1 0 0 -0.5 0 0 -1 1 0 0 1 I I #
point $-1 1 0 -2.4540086062196709 #
face $-1 $-1 $316 $40 $-1 $601 reversed single #
loop $-1 $-1 $485 $301 #
plane-surface $-1 0 162.62703329569385 0 0 -1 0 0 0 -1 forward_v I I I I #
coedge $-1 $602 $483 $486 $603 forward $302 $-1 #
coedge $-1 $489 $304 $305 $477 reversed $185 $-1 #
coedge $-1 $483 $602 $304 $475 reversed $302 $-1 #
edge $-1 $490 -81.313516647846924 $604 81.313516647846924 $474 $605 forward 7 unknown #
coedge $-1 $306 $305 $602 $606 forward $120 $-1 #
edge $-1 $481 -5.6126682261286902 $604 5.6126682261286902 $473 $607 forward 7 unknown #
coedge $-1 $486 $485 $306 $479 reversed $470 $-1 #
edge $-1 $608 -5.6126682261286902 $480 5.6126682261286902 $478 $609 forward 7 unknown #
vertex $-1 $308 $610 #
vertex $-1 $492 $611 #
straight-curve $-1 5.6126682261286902 0 -81.313516647846924 0 -1 0 I I #
coedge $-1 $472 $474 $309 $484 reversed $302 $-1 #
edge $-1 $487 -162.62703329569385 $490 162.62703329569385 $483 $612 forward 7 unknown #
coedge $-1 $478 $310 $315 $493 forward $470 $-1 #
coedge $-1 $310 $478 $472 $603 reversed $470 $-1 #
vertex $-1 $311 $613 #
straight-curve $-1 0 162.62703329569385 81.313516647846924 -1 0 0 I I #
coedge $-1 $312 $473 $314 $492 reversed $185 $-1 #
vertex $-1 $484 $614 #
straight-curve $-1 0 -162.62703329569385 81.313516647846924 1 0 0 I I #
edge $-1 $317 -81.313516647846924 $481 81.313516647846924 $314 $615 forward 7 unknown #
edge $-1 $318 -81.313516647846924 $480 81.313516647846924 $315 $616 forward 7 unknown #
point $-1 5.6126682261286902 -162.62703329569385 81.313516647846924 #
point $-1 5.6126682261286902 162.62703329569385 81.313516647846924 #
coedge $-1 $496 $496 $-1 $617 reversed $320 $-1 #
vertex $-1 $322 $618 #
ellipse-curve $-1 0 0 -0.75 0 0 -1 1.5 0 0 1 I I #
point $-1 1.5 0 -4.6755806146427812 #
face $-1 $-1 $340 $42 $-1 $619 reversed single #
loop $-1 $-1 $516 $325 #
plane-surface $-1 0 162.62703329569385 0 0 -1 0 0 0 -1 forward_v I I I I #
coedge $-1 $620 $514 $517 $621 forward $326 $-1 #
coedge $-1 $520 $328 $329 $508 reversed $198 $-1 #
coedge $-1 $514 $620 $328 $506 reversed $326 $-1 #
edge $-1 $521 -81.313516647846924 $622 81.313516647846924 $505 $623 forward 7 unknown #
coedge $-1 $330 $329 $620 $624 forward $129 $-1 #
edge $-1 $512 -5.6126682261286902 $622 5.6126682261286902 $504 $625 forward 7 unknown #
coedge $-1 $517 $516 $330 $510 reversed $501 $-1 #
edge $-1 $626 -5.6126682261286902 $511 5.6126682261286902 $509 $627 forward 7 unknown #
vertex $-1 $332 $628 #
vertex $-1 $523 $629 #
straight-curve $-1 5.6126682261286902 0 -81.313516647846924 0 -1 0 I I #
coedge $-1 $503 $505 $333 $515 reversed $326 $-1 #
edge $-1 $518 -162.62703329569385 $521 162.62703329569385 $514 $630 forward 7 unknown #
coedge $-1 $509 $334 $339 $524 forward $501 $-1 #
coedge $-1 $334 $509 $503 $621 reversed $501 $-1 #
vertex $-1 $335 $631 #
straight-curve $-1 0 162.62703329569385 81.313516647846924 -1 0 0 I I #
coedge $-1 $336 $504 $338 $523 reversed $198 $-1 #
vertex $-1 $515 $632 #
straight-curve $-1 0 -162.62703329569385 81.313516647846924 1 0 0 I I #
edge $-1 $341 -81.313516647846924 $512 81.313516647846924 $338 $633 forward 7 unknown #
edge $-1 $342 -81.313516647846924 $511 81.313516647846924 $339 $634 forward 7 unknown #
point $-1 5.6126682261286902 -162.62703329569385 81.313516647846924 #
point $-1 5.6126682261286902 162.62703329569385 81.313516647846924 #
coedge $-1 $527 $527 $-1 $635 reversed $344 $-1 #
vertex $-1 $346 $636 #
ellipse-curve $-1 0 0 -0.75 0 0 -1 1.5 0 0 1 I I #
point $-1 1.5 0 -4.6755806146427812 #
plane-surface $-1 40.656758323923462 0 0 -1 0 0 0 0 1 forward_v I I I I #
coedge $-1 $354 $352 $356 $536 reversed $211 $-1 #
edge $-1 $367 -6.6841485727442578 $538 6.6841485727442578 $366 $637 forward 7 unknown #
vertex $-1 $536 $638 #
straight-curve $-1 -40.656758323923462 -27.868621489134888 0 0 0 -1 I I #
edge $-1 $534 -27.868621489134888 $538 27.868621489134888 $532 $639 forward 7 unknown #
straight-curve $-1 0 -27.868621489134888 -6.6841485727442578 -1 0 0 I I #
vertex $-1 $359 $640 #
straight-curve $-1 0 27.868621489134888 -6.6841485727442578 1 0 0 I I #
point $-1 40.656758323923462 27.868621489134888 -6.6841485727442578 #
point $-1 40.656758323923462 -27.868621489134888 -6.6841485727442578 #
straight-curve $-1 -40.656758323923462 0 6.6841485727442578 0 -1 0 I I #
point $-1 -40.656758323923462 27.868621489134888 6.6841485727442578 #
point $-1 -40.656758323923462 -27.868621489134888 6.6841485727442578 #
straight-curve $-1 40.656758323923462 -27.868621489134888 0 0 0 -1 I I #
straight-curve $-1 40.656758323923462 27.868621489134888 0 0 0 -1 I I #
plane-surface $-1 2.3485479257773845 0 0 -1 0 0 0 0 1 forward_v I I I I #
coedge $-1 $381 $379 $383 $552 reversed $230 $-1 #
edge $-1 $394 -1.6006095088362624 $554 1.6006095088362624 $393 $641 forward 7 unknown #
vertex $-1 $552 $642 #
straight-curve $-1 -2.3485479257773845 -27.868621489134888 0 0 0 -1 I I #
edge $-1 $550 -27.868621489134888 $554 27.868621489134888 $548 $643 forward 7 unknown #
straight-curve $-1 0 -27.868621489134888 -1.6006095088362624 -1 0 0 I I #
vertex $-1 $386 $644 #
straight-curve $-1 0 27.868621489134888 -1.6006095088362624 1 0 0 I I #
point $-1 2.3485479257773845 27.868621489134888 -1.6006095088362624 #
point $-1 2.3485479257773845 -27.868621489134888 -1.6006095088362624 #
straight-curve $-1 -2.3485479257773845 0 1.6006095088362624 0 -1 0 I I #
point $-1 -2.3485479257773845 27.868621489134888 1.6006095088362624 #
point $-1 -2.3485479257773845 -27.868621489134888 1.6006095088362624 #
straight-curve $-1 2.3485479257773845 -27.868621489134888 0 0 0 -1 I I #
straight-curve $-1 2.3485479257773845 27.868621489134888 0 0 0 -1 I I #
plane-surface $-1 2.3485479257773818 0 0 -1 0 0 0 0 1 forward_v I I I I #
coedge $-1 $408 $406 $410 $568 reversed $249 $-1 #
edge $-1 $421 -1.6006095088362624 $570 1.6006095088362624 $420 $645 forward 7 unknown #
vertex $-1 $568 $646 #
straight-curve $-1 -2.3485479257773818 -27.868621489134888 0 0 0 -1 I I #
edge $-1 $566 -27.868621489134888 $570 27.868621489134888 $564 $647 forward 7 unknown #
straight-curve $-1 0 -27.868621489134888 -1.6006095088362624 -1 0 0 I I #
vertex $-1 $413 $648 #
straight-curve $-1 0 27.868621489134888 -1.6006095088362624 1 0 0 I I #
point $-1 2.3485479257773818 27.868621489134888 -1.6006095088362624 #
point $-1 2.3485479257773818 -27.868621489134888 -1.6006095088362624 #
straight-curve $-1 -2.3485479257773818 0 1.6006095088362624 0 -1 0 I I #
point $-1 -2.3485479257773818 27.868621489134888 1.6006095088362624 #
point $-1 -2.3485479257773818 -27.868621489134888 1.6006095088362624 #
straight-curve $-1 2.3485479257773818 -27.868621489134888 0 0 0 -1 I I #
straight-curve $-1 2.3485479257773818 27.868621489134888 0 0 0 -1 I I #
plane-surface $-1 8.3825400513533079 0 0 -1 0 0 0 0 1 forward_v I I I I #
coedge $-1 $435 $433 $437 $584 reversed $268 $-1 #
edge $-1 $448 -81.313516647846924 $586 81.313516647846924 $447 $649 forward 7 unknown #
vertex $-1 $584 $650 #
straight-curve $-1 -8.3825400513533079 -162.62703329569385 0 0 0 -1 I I #
edge $-1 $582 -162.62703329569385 $586 162.62703329569385 $580 $651 forward 7 unknown #
straight-curve $-1 0 -162.62703329569385 -81.313516647846924 -1 0 0 I I #
vertex $-1 $440 $652 #
straight-curve $-1 0 162.62703329569385 -81.313516647846924 1 0 0 I I #
point $-1 8.3825400513533079 162.62703329569385 -81.313516647846924 #
point $-1 8.3825400513533079 -162.62703329569385 -81.313516647846924 #
straight-curve $-1 -8.3825400513533079 0 81.313516647846924 0 -1 0 I I #
point $-1 -8.3825400513533079 162.62703329569385 81.313516647846924 #
point $-1 -8.3825400513533079 -162.62703329569385 81.313516647846924 #
straight-curve $-1 8.3825400513533079 -162.62703329569385 0 0 0 -1 I I #
straight-curve $-1 8.3825400513533079 162.62703329569385 0 0 0 -1 I I #
edge $-1 $653 1 $653 0 $457 $-1 forward 7 unknown #
point $-1 1 0 -0.5 #
edge $-1 $654 1 $654 0 $461 $-1 forward 7 unknown #
point $-1 1 0 -0.5 #
edge $-1 $655 1 $655 0 $465 $-1 forward 7 unknown #
point $-1 1 0 -0.5 #
plane-surface $-1 5.6126682261286902 0 0 -1 0 0 0 0 1 forward_v I I I I #
coedge $-1 $474 $472 $476 $606 reversed $302 $-1 #
edge $-1 $487 -81.313516647846924 $608 81.313516647846924 $486 $656 forward 7 unknown #
vertex $-1 $606 $657 #
straight-curve $-1 -5.6126682261286902 -162.62703329569385 0 0 0 -1 I I #
edge $-1 $604 -162.62703329569385 $608 162.62703329569385 $602 $658 forward 7 unknown #
straight-curve $-1 0 -162.62703329569385 -81.313516647846924 -1 0 0 I I #
vertex $-1 $479 $659 #
straight-curve $-1 0 162.62703329569385 -81.313516647846924 1 0 0 I I #
point $-1 5.6126682261286902 162.62703329569385 -81.313516647846924 #
point $-1 5.6126682261286902 -162.62703329569385 -81.313516647846924 #
straight-curve $-1 -5.6126682261286902 0 81.313516647846924 0 -1 0 I I #
point $-1 -5.6126682261286902 162.62703329569385 81.313516647846924 #
point $-1 -5.6126682261286902 -162.62703329569385 81.313516647846924 #
straight-curve $-1 5.6126682261286902 -162.62703329569385 0 0 0 -1 I I #
straight-curve $-1 5.6126682261286902 162.62703329569385 0 0 0 -1 I I #
edge $-1 $660 1 $660 0 $496 $-1 forward 7 unknown #
point $-1 1.5 0 -0.75 #
plane-surface $-1 5.6126682261286902 0 0 -1 0 0 0 0 1 forward_v I I I I #
coedge $-1 $505 $503 $507 $624 reversed $326 $-1 #
edge $-1 $518 -81.313516647846924 $626 81.313516647846924 $517 $661 forward 7 unknown #
vertex $-1 $624 $662 #
straight-curve $-1 -5.6126682261286902 -162.62703329569385 0 0 0 -1 I I #
edge $-1 $622 -162.62703329569385 $626 162.62703329569385 $620 $663 forward 7 unknown #
straight-curve $-1 0 -162.62703329569385 -81.313516647846924 -1 0 0 I I #
vertex $-1 $510 $664 #
straight-curve $-1 0 162.62703329569385 -81.313516647846924 1 0 0 I I #
point $-1 5.6126682261286902 162.62703329569385 -81.313516647846924 #
point $-1 5.6126682261286902 -162.62703329569385 -81.313516647846924 #
straight-curve $-1 -5.6126682261286902 0 81.313516647846924 0 -1 0 I I #
point $-1 -5.6126682261286902 162.62703329569385 81.313516647846924 #
point $-1 -5.6126682261286902 -162.62703329569385 81.313516647846924 #
straight-curve $-1 5.6126682261286902 -162.62703329569385 0 0 0 -1 I I #
straight-curve $-1 5.6126682261286902 162.62703329569385 0 0 0 -1 I I #
edge $-1 $665 1 $665 0 $527 $-1 forward 7 unknown #
point $-1 1.5 0 -0.75 #
straight-curve $-1 -40.656758323923462 27.868621489134888 0 0 0 -1 I I #
point $-1 -40.656758323923462 -27.868621489134888 -6.6841485727442578 #
straight-curve $-1 -40.656758323923462 0 -6.6841485727442578 0 1 0 I I #
point $-1 -40.656758323923462 27.868621489134888 -6.6841485727442578 #
straight-curve $-1 -2.3485479257773845 27.868621489134888 0 0 0 -1 I I #
point $-1 -2.3485479257773845 -27.868621489134888 -1.6006095088362624 #
straight-curve $-1 -2.3485479257773845 0 -1.6006095088362624 0 1 0 I I #
point $-1 -2.3485479257773845 27.868621489134888 -1.6006095088362624 #
straight-curve $-1 -2.3485479257773818 27.868621489134888 0 0 0 -1 I I #
point $-1 -2.3485479257773818 -27.868621489134888 -1.6006095088362624 #
straight-curve $-1 -2.3485479257773818 0 -1.6006095088362624 0 1 0 I I #
point $-1 -2.3485479257773818 27.868621489134888 -1.6006095088362624 #
straight-curve $-1 -8.3825400513533079 162.62703329569385 0 0 0 -1 I I #
point $-1 -8.3825400513533079 -162.62703329569385 -81.313516647846924 #
straight-curve $-1 -8.3825400513533079 0 -81.313516647846924 0 1 0 I I #
point $-1 -8.3825400513533079 162.62703329569385 -81.313516647846924 #
vertex $-1 $595 $666 #
vertex $-1 $597 $667 #
vertex $-1 $599 $668 #
straight-curve $-1 -5.6126682261286902 162.62703329569385 0 0 0 -1 I I #
point $-1 -5.6126682261286902 -162.62703329569385 -81.313516647846924 #
straight-curve $-1 -5.6126682261286902 0 -81.313516647846924 0 1 0 I I #
point $-1 -5.6126682261286902 162.62703329569385 -81.313516647846924 #
vertex $-1 $617 $669 #
straight-curve $-1 -5.6126682261286902 162.62703329569385 0 0 0 -1 I I #
point $-1 -5.6126682261286902 -162.62703329569385 -81.313516647846924 #
straight-curve $-1 -5.6126682261286902 0 -81.313516647846924 0 1 0 I I #
point $-1 -5.6126682261286902 162.62703329569385 -81.313516647846924 #
vertex $-1 $635 $670 #
point $-1 0 0 0.5 #
point $-1 0 0 0.5 #
point $-1 0 0 0.5 #
point $-1 0 0 0.75 #
point $-1 0 0 0.75 #
End-of-ACIS-data 