500 0 6 0           
7 Unknown 11 ACIS 5.0 NT 24 Fri Mar 26 18:52:24 1999 
-1 9.9999999999999995e-007 1e-010 
body $-1 $6 $-1 $7 #
body $-1 $8 $-1 $9 #
body $-1 $10 $-1 $11 #
body $-1 $12 $-1 $13 #
body $-1 $14 $-1 $15 #
body $-1 $16 $-1 $17 #
lump $-1 $-1 $18 $0 #
transform $-1 1 0 0 0 1 0 0 0 1 69.930112613299968 33.66257674709626 7.2071425797777975 1 rotate no_reflect no_shear #
lump $-1 $-1 $19 $1 #
transform $-1 1 0 0 0 1 0 0 0 1 69.930112613299968 33.66257674709626 7.2071425797777975 1 rotate no_reflect no_shear #
lump $-1 $-1 $20 $2 #
transform $-1 1 0 0 0 1 0 0 0 1 69.930112613299968 33.66257674709626 7.2071425797777975 1 rotate no_reflect no_shear #
lump $-1 $-1 $21 $3 #
transform $-1 1 0 0 0 1 0 0 0 1 69.930112613299968 33.66257674709626 7.2071425797777975 1 rotate no_reflect no_shear #
lump $-1 $-1 $22 $4 #
transform $-1 1 0 0 0 1 0 0 0 1 69.930112613299968 33.66257674709626 7.2071425797777975 1 rotate no_reflect no_shear #
lump $-1 $-1 $23 $5 #
transform $-1 1 0 0 0 1 0 0 0 1 69.930112613299968 33.66257674709626 7.2071425797777975 1 rotate no_reflect no_shear #
shell $-1 $-1 $-1 $24 $-1 $6 #
shell $-1 $-1 $-1 $25 $-1 $8 #
shell $-1 $-1 $-1 $26 $-1 $10 #
shell $-1 $-1 $-1 $27 $-1 $12 #
shell $-1 $-1 $-1 $28 $-1 $14 #
shell $-1 $-1 $-1 $29 $-1 $16 #
face $-1 $30 $31 $18 $-1 $32 forward single #
face $-1 $33 $34 $19 $-1 $35 forward single #
face $-1 $36 $37 $20 $-1 $38 reversed single #
face $-1 $39 $40 $21 $-1 $41 forward single #
face $-1 $42 $43 $22 $-1 $44 reversed single #
face $-1 $45 $46 $23 $-1 $47 forward single #
face $-1 $48 $49 $18 $-1 $50 reversed single #
loop $-1 $-1 $51 $24 #
plane-surface $-1 0 0 7.2071425797777975 0 0 1 1 0 0 forward_v I I I I #
face $-1 $52 $53 $19 $-1 $54 reversed single #
loop $-1 $-1 $55 $25 #
plane-surface $-1 0 -33.66257674709626 0 0 1 0 0 0 1 forward_v I I I I #
face $-1 $56 $57 $20 $-1 $58 reversed single #
loop $-1 $-1 $59 $26 #
plane-surface $-1 121.12251098084596 9.341326910845936 194.40439013515433 0 -1 0 -0.86602541151947299 0 -0.49999998660252726 forward_v I I I I #
face $-1 $60 $61 $21 $-1 $62 forward single #
loop $-1 $63 $64 $27 #
cone-surface $-1 68.263352409711516 4.4529705556116923 4.9597140189541289 -0.86602541151947299 0 -0.49999998660252726 0.49999998660252726 0 -0.86602541151947299 1 I I 0 1 1 forward I I I I #
face $-1 $65 $66 $22 $-1 $67 reversed single #
loop $-1 $-1 $68 $28 #
plane-surface $-1 -191.05262172037237 -0.43538579962255142 73.281881028081941 0 1 0 -0.86602541151947299 0 0.49999998660252726 forward_v I I I I #
face $-1 $69 $70 $23 $-1 $71 forward single #
loop $-1 $72 $73 $29 #
cone-surface $-1 -68.26335240971153 4.4529705556116923 4.9597140189541253 0.86602541151947299 0 -0.49999998660252726 0.49999998660252726 0 0.86602541151947299 1 I I 0 1 1 forward I I I I #
face $-1 $74 $75 $18 $-1 $76 reversed single #
loop $-1 $-1 $77 $30 #
plane-surface $-1 0 0 -7.2071425797777975 0 0 1 1 0 0 forward_v I I I I #
coedge $-1 $78 $79 $80 $81 forward $31 $-1 #
face $-1 $82 $83 $19 $-1 $84 reversed single #
loop $-1 $-1 $85 $33 #
plane-surface $-1 0 0 -7.2071425797777975 0 0 1 1 0 0 forward_v I I I I #
coedge $-1 $86 $87 $88 $89 forward $34 $-1 #
face $-1 $90 $91 $20 $-1 $92 reversed single #
loop $-1 $-1 $93 $36 #
plane-surface $-1 1.8737735700824487e-006 4.4529705556116923 124.47427939562792 0.86602541151947299 0 0.49999998660252726 0.49999998660252726 0 -0.86602541151947299 forward_v I I I I #
coedge $-1 $94 $95 $96 $97 reversed $37 $-1 #
face $-1 $-1 $98 $21 $-1 $99 forward single #
loop $-1 $100 $101 $39 #
cone-surface $-1 67.276529575683128 4.4529705556116923 4.3899716104403241 -0.86602541151947299 0 -0.49999998660252726 0.24999999330126363 0 -0.43301270575973649 1 I I -0.70710678118654746 0.70710678118654746 0.5 forward I I I I #
loop $-1 $-1 $102 $27 #
coedge $-1 $64 $64 $103 $104 reversed $40 $-1 #
face $-1 $105 $106 $22 $-1 $107 reversed single #
loop $-1 $-1 $108 $42 #
plane-surface $-1 -69.930112613299983 4.4529705556116923 3.3517702885555281 -0.86602541151947299 0 0.49999998660252726 0.49999998660252726 0 0.86602541151947299 forward_v I I I I #
coedge $-1 $109 $110 $111 $112 reversed $43 $-1 #
face $-1 $-1 $113 $23 $-1 $114 forward single #
loop $-1 $115 $116 $45 #
cone-surface $-1 -67.276529575683142 4.4529705556116923 4.3899716104403206 0.86602541151947299 0 -0.49999998660252726 0.24999999330126363 0 0.43301270575973649 1 I I -0.70710678118654746 0.70710678118654746 0.5 forward I I I I #
loop $-1 $-1 $117 $29 #
coedge $-1 $73 $73 $118 $119 reversed $46 $-1 #
face $-1 $120 $121 $18 $-1 $122 reversed single #
loop $-1 $-1 $123 $48 #
plane-surface $-1 0 -33.66257674709626 0 0 1 0 0 0 1 forward_v I I I I #
coedge $-1 $124 $125 $126 $127 forward $49 $-1 #
coedge $-1 $128 $51 $129 $130 forward $31 $-1 #
coedge $-1 $51 $128 $131 $132 forward $31 $-1 #
coedge $-1 $133 $134 $51 $81 reversed $135 $-1 #
edge $-1 $136 -33.66257674709626 $137 33.66257674709626 $80 $138 forward 7 unknown #
face $-1 $139 $140 $19 $-1 $141 reversed single #
loop $-1 $-1 $142 $52 #
plane-surface $-1 -57.015827453744372 -41.35806828723593 0 0 1 0 0 0 1 forward_v I I I I #
coedge $-1 $143 $144 $87 $145 forward $53 $-1 #
coedge $-1 $146 $55 $147 $148 reversed $34 $-1 #
coedge $-1 $55 $146 $85 $145 reversed $34 $-1 #
coedge $-1 $149 $150 $55 $89 reversed $140 $-1 #
edge $-1 $151 -7.2071425797777975 $152 7.2071425797777975 $88 $153 forward 7 unknown #
face $-1 $154 $155 $20 $-1 $156 forward single #
loop $-1 $-1 $157 $56 #
plane-surface $-1 121.12251098084596 -0.43538579962255142 194.40439013515433 0 1 0 0.86602541151947299 0 0.49999998660252726 forward_v I I I I #
coedge $-1 $158 $159 $160 $161 reversed $57 $-1 #
coedge $-1 $95 $59 $162 $163 reversed $37 $-1 #
coedge $-1 $59 $94 $158 $164 reversed $37 $-1 #
coedge $-1 $160 $165 $59 $97 forward $155 $-1 #
edge $-1 $166 -9.3688571228769888 $167 -7.1429569722374282 $96 $168 forward 7 unknown #
loop $-1 $-1 $103 $60 #
plane-surface $-1 1.8737735700824487e-006 4.4529705556116923 124.47427939562792 0.86602541151947299 0 0.49999998660252726 0.49999998660252726 0 -0.86602541151947299 forward_v I I I I #
loop $-1 $-1 $169 $39 #
coedge $-1 $101 $101 $102 $170 reversed $61 $-1 #
coedge $-1 $102 $102 $101 $170 forward $63 $-1 #
coedge $-1 $103 $103 $64 $104 forward $98 $-1 #
edge $-1 $171 0 $171 6.2831853071796004 $103 $172 forward 7 unknown #
face $-1 $173 $174 $22 $-1 $175 reversed single #
loop $-1 $-1 $176 $65 #
plane-surface $-1 -191.05262172037237 9.341326910845936 73.281881028081941 0 -1 0 0.86602541151947299 0 -0.49999998660252726 forward_v I I I I #
coedge $-1 $177 $178 $179 $180 reversed $66 $-1 #
coedge $-1 $110 $68 $181 $182 reversed $43 $-1 #
coedge $-1 $68 $109 $177 $183 reversed $43 $-1 #
coedge $-1 $179 $184 $68 $112 forward $185 $-1 #
edge $-1 $186 25.596198246886217 $187 27.822098397525778 $111 $188 forward 7 unknown #
loop $-1 $-1 $118 $69 #
plane-surface $-1 -69.930112613299983 4.4529705556116923 3.3517702885555281 -0.86602541151947299 0 0.49999998660252726 0.49999998660252726 0 0.86602541151947299 forward_v I I I I #
loop $-1 $-1 $189 $45 #
coedge $-1 $116 $116 $117 $190 reversed $70 $-1 #
coedge $-1 $117 $117 $116 $190 forward $72 $-1 #
coedge $-1 $118 $118 $73 $119 forward $113 $-1 #
edge $-1 $191 0 $191 6.2831853071796004 $118 $192 forward 7 unknown #
face $-1 $193 $194 $18 $-1 $195 reversed single #
loop $-1 $-1 $196 $74 #
plane-surface $-1 -69.930112613299968 0 0 1 0 0 0 0 -1 forward_v I I I I #
coedge $-1 $197 $131 $198 $199 forward $75 $-1 #
coedge $-1 $200 $77 $197 $201 forward $49 $-1 #
coedge $-1 $77 $200 $202 $203 forward $49 $-1 #
coedge $-1 $134 $133 $77 $127 reversed $135 $-1 #
edge $-1 $204 -33.66257674709626 $205 33.66257674709626 $126 $206 forward 7 unknown #
coedge $-1 $79 $78 $207 $208 forward $31 $-1 #
coedge $-1 $209 $210 $78 $130 reversed $194 $-1 #
edge $-1 $137 -69.930112613299968 $211 69.930112613299968 $129 $212 forward 7 unknown #
coedge $-1 $123 $213 $79 $132 reversed $75 $-1 #
edge $-1 $214 -69.930112613299968 $136 69.930112613299968 $131 $215 forward 7 unknown #
coedge $-1 $126 $80 $213 $216 forward $135 $-1 #
coedge $-1 $80 $126 $209 $217 reversed $135 $-1 #
loop $-1 $-1 $133 $193 #
vertex $-1 $81 $218 #
vertex $-1 $81 $219 #
straight-curve $-1 69.930112613299968 0 7.2071425797777975 0 1 0 I I #
face $-1 $220 $221 $19 $-1 $222 reversed single #
loop $-1 $-1 $88 $82 #
plane-surface $-1 -58.515827453744372 -37.510322517166095 0 1 0 0 0 0 -1 forward_v I I I I #
coedge $-1 $223 $224 $225 $226 forward $83 $-1 #
coedge $-1 $227 $85 $228 $229 forward $53 $-1 #
coedge $-1 $85 $227 $149 $230 forward $53 $-1 #
edge $-1 $151 -58.515827453744372 $231 -55.515827453744372 $85 $232 forward 7 unknown #
coedge $-1 $87 $86 $233 $234 forward $34 $-1 #
coedge $-1 $235 $236 $86 $148 forward $237 $-1 #
edge $-1 $238 55.515827453744372 $152 58.515827453744372 $147 $239 forward 7 unknown #
coedge $-1 $225 $88 $144 $230 reversed $140 $-1 #
coedge $-1 $88 $225 $235 $240 reversed $140 $-1 #
vertex $-1 $145 $241 #
vertex $-1 $240 $242 #
straight-curve $-1 -58.515827453744372 -33.66257674709626 0 0 0 1 I I #
face $-1 $-1 $243 $20 $-1 $244 reversed single #
loop $-1 $-1 $96 $90 #
plane-surface $-1 0 0 7.2071425797777975 0 0 1 1 0 0 forward_v I I I I #
coedge $-1 $245 $246 $247 $248 reversed $91 $-1 #
coedge $-1 $249 $93 $95 $164 forward $57 $-1 #
coedge $-1 $93 $249 $245 $250 forward $57 $-1 #
coedge $-1 $247 $96 $93 $161 forward $155 $-1 #
edge $-1 $167 -7.1148416330400899 $251 2.6618710774283976 $160 $252 forward 7 unknown #
coedge $-1 $253 $254 $94 $163 forward $243 $-1 #
edge $-1 $255 -93.850424779021608 $166 -89.99505248779937 $162 $256 forward 7 unknown #
edge $-1 $167 135.40842480603504 $255 139.86022522659991 $95 $257 forward 7 unknown #
coedge $-1 $96 $247 $253 $258 forward $155 $-1 #
vertex $-1 $97 $259 #
vertex $-1 $97 $260 #
straight-curve $-1 60.56125549042298 9.341326910845936 7.2071425797777948 -1 0 0 I I #
coedge $-1 $169 $169 $-1 $261 reversed $100 $-1 #
edge $-1 $262 0 $262 6.2831853071796004 $101 $263 forward 7 unknown #
vertex $-1 $104 $264 #
ellipse-curve $-1 68.817162537980181 4.4529705556116923 5.2794564341666792 0.86602541151947299 0 0.49999998660252726 0.49999998660252726 0 -0.86602541151947299 1 I I #
face $-1 $-1 $185 $22 $-1 $265 forward single #
loop $-1 $-1 $266 $105 #
plane-surface $-1 -69.930112613299968 0 0 1 0 0 0 0 -1 forward_v I I I I #
coedge $-1 $267 $268 $269 $270 reversed $106 $-1 #
coedge $-1 $271 $108 $110 $183 forward $66 $-1 #
coedge $-1 $108 $271 $267 $272 forward $66 $-1 #
coedge $-1 $269 $111 $108 $180 forward $185 $-1 #
edge $-1 $187 -2.6618710774283976 $273 7.1148416330400899 $179 $274 forward 7 unknown #
coedge $-1 $275 $276 $109 $182 forward $174 $-1 #
edge $-1 $277 -33.289170225485421 $186 -29.433797934263172 $181 $278 forward 7 unknown #
edge $-1 $187 -4.45180042056489 $277 -2.8258016906358157e-014 $110 $279 forward 7 unknown #
coedge $-1 $111 $269 $275 $280 forward $185 $-1 #
loop $-1 $-1 $269 $173 #
vertex $-1 $182 $281 #
vertex $-1 $112 $282 #
straight-curve $-1 -95.526310860186186 -0.43538579962255142 7.2071425797777948 1 0 0 I I #
coedge $-1 $189 $189 $-1 $283 reversed $115 $-1 #
edge $-1 $284 0 $284 6.2831853071796004 $116 $285 forward 7 unknown #
vertex $-1 $119 $286 #
ellipse-curve $-1 -68.817162537980195 4.4529705556116923 5.2794564341666712 -0.86602541151947299 0 0.49999998660252726 0.49999998660252726 0 0.86602541151947299 1 I I #
face $-1 $-1 $135 $18 $-1 $287 reversed single #
loop $-1 $-1 $209 $120 #
plane-surface $-1 0 33.66257674709626 0 0 -1 0 0 0 -1 forward_v I I I I #
coedge $-1 $288 $207 $210 $289 forward $121 $-1 #
coedge $-1 $213 $123 $124 $201 reversed $75 $-1 #
coedge $-1 $207 $288 $123 $199 reversed $121 $-1 #
edge $-1 $214 -7.2071425797777975 $290 7.2071425797777975 $198 $291 forward 7 unknown #
coedge $-1 $125 $124 $288 $292 forward $49 $-1 #
edge $-1 $205 -69.930112613299968 $290 69.930112613299968 $197 $293 forward 7 unknown #
coedge $-1 $210 $209 $125 $203 reversed $194 $-1 #
edge $-1 $294 -69.930112613299968 $204 69.930112613299968 $202 $295 forward 7 unknown #
vertex $-1 $127 $296 #
vertex $-1 $216 $297 #
straight-curve $-1 69.930112613299968 0 -7.2071425797777975 0 -1 0 I I #
coedge $-1 $196 $198 $128 $208 reversed $121 $-1 #
edge $-1 $211 -33.66257674709626 $214 33.66257674709626 $207 $298 forward 7 unknown #
coedge $-1 $202 $129 $134 $217 forward $194 $-1 #
coedge $-1 $129 $202 $196 $289 reversed $194 $-1 #
vertex $-1 $130 $299 #
straight-curve $-1 0 33.66257674709626 7.2071425797777975 -1 0 0 I I #
coedge $-1 $131 $197 $133 $216 reversed $75 $-1 #
vertex $-1 $208 $300 #
straight-curve $-1 0 -33.66257674709626 7.2071425797777975 1 0 0 I I #
edge $-1 $136 -7.2071425797777975 $205 7.2071425797777975 $133 $301 forward 7 unknown #
edge $-1 $137 -7.2071425797777975 $204 7.2071425797777975 $134 $302 forward 7 unknown #
point $-1 69.930112613299968 -33.66257674709626 7.2071425797777975 #
point $-1 69.930112613299968 33.66257674709626 7.2071425797777975 #
face $-1 $-1 $237 $19 $-1 $303 forward single #
loop $-1 $-1 $304 $139 #
plane-surface $-1 -55.515827453744372 -37.510322517166095 0 -1 0 0 0 0 1 forward_v I I I I #
coedge $-1 $305 $142 $227 $306 reversed $83 $-1 #
coedge $-1 $142 $305 $307 $308 reversed $83 $-1 #
coedge $-1 $150 $149 $142 $226 reversed $140 $-1 #
edge $-1 $309 -7.2071425797777975 $310 7.2071425797777975 $225 $311 forward 7 unknown #
coedge $-1 $144 $143 $223 $306 forward $53 $-1 #
coedge $-1 $233 $304 $143 $229 reversed $221 $-1 #
edge $-1 $231 -3.8477457700698352 $312 3.8477457700698352 $228 $313 forward 7 unknown #
edge $-1 $310 -3.8477457700698352 $151 3.8477457700698352 $149 $314 forward 7 unknown #
vertex $-1 $229 $315 #
straight-curve $-1 0 -33.66257674709626 -7.2071425797777975 1 0 0 I I #
coedge $-1 $316 $228 $146 $234 reversed $221 $-1 #
edge $-1 $238 -7.2071425797777975 $231 7.2071425797777975 $233 $317 forward 7 unknown #
coedge $-1 $307 $147 $150 $240 forward $237 $-1 #
coedge $-1 $147 $307 $316 $318 forward $237 $-1 #
loop $-1 $-1 $147 $220 #
vertex $-1 $148 $319 #
straight-curve $-1 0 -33.66257674709626 7.2071425797777975 -1 0 0 I I #
edge $-1 $152 -3.8477457700698352 $309 3.8477457700698352 $150 $320 forward 7 unknown #
point $-1 -58.515827453744372 -33.66257674709626 -7.2071425797777975 #
point $-1 -58.515827453744372 -33.66257674709626 7.2071425797777975 #
loop $-1 $-1 $162 $154 #
plane-surface $-1 69.930112613299968 0 0 -1 0 0 0 0 1 forward_v I I I I #
coedge $-1 $246 $157 $159 $250 reversed $91 $-1 #
coedge $-1 $157 $245 $321 $322 reversed $91 $-1 #
coedge $-1 $165 $160 $157 $248 forward $155 $-1 #
edge $-1 $251 7.1429569722374282 $323 9.3688571228769888 $247 $324 forward 7 unknown #
coedge $-1 $159 $158 $254 $325 reversed $57 $-1 #
edge $-1 $326 -139.86022522659991 $251 -135.40842480603504 $245 $327 forward 7 unknown #
vertex $-1 $161 $328 #
straight-curve $-1 67.704212462660422 2.2264852778058462 7.2071425797777948 0 -1 0 I I #
coedge $-1 $321 $162 $165 $258 reversed $243 $-1 #
coedge $-1 $162 $321 $249 $325 forward $243 $-1 #
vertex $-1 $163 $329 #
straight-curve $-1 69.930112613299968 9.341326910845936 97.202195067577165 0 0 1 I I #
straight-curve $-1 1.8737735700824487e-006 9.341326910845936 124.47427939562792 0.49999998660252726 0 -0.86602541151947299 I I #
edge $-1 $323 -0.43538579962255142 $166 9.341326910845936 $253 $330 forward 7 unknown #
point $-1 69.930112613299968 9.341326910845936 7.2071425797777975 #
point $-1 67.704212462660408 9.341326910845936 7.207142579777809 #
edge $-1 $331 1 $331 0 $169 $-1 forward 7 unknown #
vertex $-1 $170 $332 #
ellipse-curve $-1 67.709542281442864 4.4529705556116923 4.6399716037415875 0.86602541151947299 0 0.49999998660252726 0.49999998660252726 0 -0.86602541151947299 1 I I #
point $-1 69.317162524582699 4.4529705556116923 4.413431022647198 #
plane-surface $-1 0 0 7.2071425797777975 0 0 1 1 0 0 forward_v I I I I #
coedge $-1 $276 $275 $268 $333 forward $174 $-1 #
coedge $-1 $268 $176 $178 $272 reversed $106 $-1 #
coedge $-1 $176 $267 $266 $333 reversed $106 $-1 #
coedge $-1 $184 $179 $176 $270 forward $185 $-1 #
edge $-1 $273 -27.822098397525778 $334 -25.596198246886217 $269 $335 forward 7 unknown #
coedge $-1 $178 $177 $276 $336 reversed $66 $-1 #
edge $-1 $337 2.8258016906358157e-014 $273 4.45180042056489 $267 $338 forward 7 unknown #
vertex $-1 $180 $339 #
straight-curve $-1 -67.704212462660408 2.2264852778058462 7.2071425797777984 0 1 0 I I #
coedge $-1 $266 $181 $184 $280 reversed $174 $-1 #
coedge $-1 $181 $266 $271 $336 forward $174 $-1 #
vertex $-1 $182 $340 #
straight-curve $-1 -69.930112613299968 -0.43538579962255142 36.64094051404097 0 0 1 I I #
straight-curve $-1 -69.930112613299983 -0.43538579962255142 3.3517702885555281 -0.49999998660252726 0 -0.86602541151947299 I I #
edge $-1 $334 -9.341326910845936 $186 0.43538579962255142 $275 $341 forward 7 unknown #
point $-1 -69.930112613299968 -0.43538579962255142 7.2071425797777975 #
point $-1 -67.704212462660408 -0.43538579962255142 7.2071425797777975 #
edge $-1 $342 1 $342 0 $189 $-1 forward 7 unknown #
vertex $-1 $190 $343 #
ellipse-curve $-1 -67.709542281442879 4.4529705556116923 4.6399716037415839 -0.86602541151947299 0 0.49999998660252726 0.49999998660252726 0 0.86602541151947299 1 I I #
point $-1 -68.317162551377663 4.4529705556116923 6.14548184568614 #
plane-surface $-1 69.930112613299968 0 0 -1 0 0 0 0 1 forward_v I I I I #
coedge $-1 $198 $196 $200 $292 reversed $121 $-1 #
edge $-1 $211 -7.2071425797777975 $294 7.2071425797777975 $210 $344 forward 7 unknown #
vertex $-1 $292 $345 #
straight-curve $-1 -69.930112613299968 -33.66257674709626 0 0 0 -1 I I #
edge $-1 $290 -33.66257674709626 $294 33.66257674709626 $288 $346 forward 7 unknown #
straight-curve $-1 0 -33.66257674709626 -7.2071425797777975 -1 0 0 I I #
vertex $-1 $203 $347 #
straight-curve $-1 0 33.66257674709626 -7.2071425797777975 1 0 0 I I #
point $-1 69.930112613299968 33.66257674709626 -7.2071425797777975 #
point $-1 69.930112613299968 -33.66257674709626 -7.2071425797777975 #
straight-curve $-1 -69.930112613299968 0 7.2071425797777975 0 -1 0 I I #
point $-1 -69.930112613299968 33.66257674709626 7.2071425797777975 #
point $-1 -69.930112613299968 -33.66257674709626 7.2071425797777975 #
straight-curve $-1 69.930112613299968 -33.66257674709626 0 0 0 -1 I I #
straight-curve $-1 69.930112613299968 33.66257674709626 0 0 0 -1 I I #
plane-surface $-1 0 0 7.2071425797777975 0 0 1 1 0 0 forward_v I I I I #
coedge $-1 $228 $316 $305 $348 forward $221 $-1 #
coedge $-1 $224 $223 $304 $348 reversed $83 $-1 #
edge $-1 $312 -1.5 $310 1.5 $223 $349 forward 7 unknown #
coedge $-1 $236 $235 $224 $308 forward $237 $-1 #
edge $-1 $309 -1.5 $350 1.5 $224 $351 forward 7 unknown #
vertex $-1 $240 $352 #
vertex $-1 $230 $353 #
straight-curve $-1 -58.515827453744372 -41.35806828723593 0 0 0 -1 I I #
vertex $-1 $348 $354 #
straight-curve $-1 -55.515827453744372 -37.510322517166095 -7.2071425797777975 0 -1 0 I I #
straight-curve $-1 -58.515827453744372 -37.510322517166095 -7.2071425797777975 0 1 0 I I #
point $-1 -55.515827453744372 -33.66257674709626 -7.2071425797777975 #
coedge $-1 $304 $233 $236 $318 reversed $221 $-1 #
straight-curve $-1 -55.515827453744372 -33.66257674709626 0 0 0 -1 I I #
edge $-1 $350 -3.8477457700698352 $238 3.8477457700698352 $316 $355 forward 7 unknown #
point $-1 -55.515827453744372 -33.66257674709626 7.2071425797777975 #
straight-curve $-1 -58.515827453744372 -37.510322517166095 7.2071425797777975 0 -1 0 I I #
coedge $-1 $254 $253 $246 $322 forward $243 $-1 #
edge $-1 $323 89.99505248779937 $326 93.850424779021608 $321 $356 forward 7 unknown #
vertex $-1 $258 $357 #
straight-curve $-1 60.56125549042298 -0.43538579962255142 7.2071425797777948 1 0 0 I I #
edge $-1 $326 -2.6618710774283976 $255 7.1148416330400899 $254 $358 forward 7 unknown #
vertex $-1 $325 $359 #
straight-curve $-1 1.8737735700824487e-006 -0.43538579962255142 124.47427939562792 -0.49999998660252726 0 0.86602541151947299 I I #
point $-1 67.704212462660408 -0.43538579962255142 7.207142579777809 #
point $-1 69.930112613299968 9.341326910845936 3.3517702885555565 #
straight-curve $-1 69.930112613299968 0 7.2071425797777975 0 1 0 I I #
vertex $-1 $261 $360 #
point $-1 68.209542268045396 4.4529705556116923 3.7739461922221147 #
edge $-1 $334 29.433797934263172 $337 33.289170225485421 $266 $361 forward 7 unknown #
vertex $-1 $280 $362 #
straight-curve $-1 -95.526310860186186 9.341326910845936 7.2071425797777948 -1 0 0 I I #
edge $-1 $337 -7.1148416330400899 $277 2.6618710774283976 $276 $363 forward 7 unknown #
vertex $-1 $336 $364 #
straight-curve $-1 -69.930112613299983 9.341326910845936 3.3517702885555281 0.49999998660252726 0 0.86602541151947299 I I #
point $-1 -67.704212462660408 9.341326910845936 7.2071425797777975 #
point $-1 -69.930112613299968 -0.43538579962255142 3.3517702885555525 #
straight-curve $-1 -69.930112613299968 0 7.2071425797777975 0 -1 0 I I #
vertex $-1 $283 $365 #
point $-1 -67.209542294840347 4.4529705556116923 5.5059970152610571 #
straight-curve $-1 -69.930112613299968 33.66257674709626 0 0 0 -1 I I #
point $-1 -69.930112613299968 -33.66257674709626 -7.2071425797777975 #
straight-curve $-1 -69.930112613299968 0 -7.2071425797777975 0 1 0 I I #
point $-1 -69.930112613299968 33.66257674709626 -7.2071425797777975 #
edge $-1 $350 -7.2071425797777975 $312 7.2071425797777975 $304 $366 forward 7 unknown #
straight-curve $-1 -57.015827453744372 -41.35806828723593 -7.2071425797777975 -1 0 0 I I #
vertex $-1 $318 $367 #
straight-curve $-1 -57.015827453744372 -41.35806828723593 7.2071425797777975 1 0 0 I I #
point $-1 -58.515827453744372 -41.35806828723593 7.2071425797777975 #
point $-1 -58.515827453744372 -41.35806828723593 -7.2071425797777975 #
point $-1 -55.515827453744372 -41.35806828723593 -7.2071425797777975 #
straight-curve $-1 -55.515827453744372 -37.510322517166095 7.2071425797777975 0 1 0 I I #
straight-curve $-1 69.930112613299968 -0.43538579962255142 97.202195067577165 0 0 -1 I I #
point $-1 69.930112613299968 -0.43538579962255142 7.2071425797777975 #
straight-curve $-1 69.930112613299968 2.2264852778058462 3.3517702885555423 0 1 0 I I #
point $-1 69.930112613299968 -0.43538579962255142 3.3517702885555565 #
point $-1 66.843516869923391 4.4529705556116923 4.1399716171390608 #
straight-curve $-1 -69.930112613299968 9.341326910845936 36.64094051404097 0 0 -1 I I #
point $-1 -69.930112613299968 9.341326910845936 7.2071425797777975 #
straight-curve $-1 -69.930112613299968 2.2264852778058462 3.3517702885555485 0 -1 0 I I #
point $-1 -69.930112613299968 9.341326910845936 3.3517702885555525 #
point $-1 -66.843516869923405 4.4529705556116923 4.1399716171390573 #
straight-curve $-1 -55.515827453744372 -41.35806828723593 0 0 0 -1 I I #
point $-1 -55.515827453744372 -41.35806828723593 7.2071425797777975 #
End-of-ACIS-data 