500 0 9 0           
7 Unknown 11 ACIS 5.0 NT 24 Fri Mar 26 19:18:19 1999 
-1 9.9999999999999995e-007 1e-010 
body $-1 $9 $-1 $10 #
body $-1 $11 $-1 $12 #
body $-1 $13 $-1 $14 #
body $-1 $15 $-1 $16 #
body $-1 $17 $-1 $18 #
body $-1 $19 $-1 $20 #
body $-1 $21 $-1 $22 #
body $-1 $23 $-1 $24 #
body $-1 $25 $-1 $26 #
lump $-1 $-1 $27 $0 #
transform $-1 1 0 0 0 1 0 0 0 1 63.561510055848871 27.23036621329355 12.880718625329935 1 rotate no_reflect no_shear #
lump $-1 $-1 $28 $1 #
transform $-1 1 0 0 0 1 0 0 0 1 63.561510055848871 27.23036621329355 12.880718625329935 1 rotate no_reflect no_shear #
lump $-1 $-1 $29 $2 #
transform $-1 1 0 0 0 1 0 0 0 1 63.561510055848871 27.23036621329355 12.880718625329935 1 rotate no_reflect no_shear #
lump $-1 $-1 $30 $3 #
transform $-1 1 0 0 0 1 0 0 0 1 63.561510055848871 27.23036621329355 12.880718625329935 1 rotate no_reflect no_shear #
lump $-1 $-1 $31 $4 #
transform $-1 1 0 0 0 1 0 0 0 1 63.561510055848871 27.23036621329355 12.880718625329935 1 rotate no_reflect no_shear #
lump $-1 $-1 $32 $5 #
transform $-1 1 0 0 0 1 0 0 0 1 63.561510055848871 27.23036621329355 12.880718625329935 1 rotate no_reflect no_shear #
lump $-1 $-1 $33 $6 #
transform $-1 1 0 0 0 1 0 0 0 1 63.561510055848871 27.23036621329355 12.880718625329935 1 rotate no_reflect no_shear #
lump $-1 $-1 $34 $7 #
transform $-1 1 0 0 0 1 0 0 0 1 63.561510055848871 27.23036621329355 12.880718625329935 1 rotate no_reflect no_shear #
lump $-1 $-1 $35 $8 #
transform $-1 1 0 0 0 1 0 0 0 1 63.561510055848871 27.23036621329355 12.880718625329935 1 rotate no_reflect no_shear #
shell $-1 $-1 $-1 $36 $-1 $9 #
shell $-1 $-1 $-1 $37 $-1 $11 #
shell $-1 $-1 $-1 $38 $-1 $13 #
shell $-1 $-1 $-1 $39 $-1 $15 #
shell $-1 $-1 $-1 $40 $-1 $17 #
shell $-1 $-1 $-1 $41 $-1 $19 #
shell $-1 $-1 $-1 $42 $-1 $21 #
shell $-1 $-1 $-1 $43 $-1 $23 #
shell $-1 $-1 $-1 $44 $-1 $25 #
face $-1 $45 $46 $27 $-1 $47 forward single #
face $-1 $48 $49 $28 $-1 $50 forward single #
face $-1 $51 $52 $29 $-1 $53 reversed single #
face $-1 $54 $55 $30 $-1 $56 forward single #
face $-1 $57 $58 $31 $-1 $59 forward single #
face $-1 $60 $61 $32 $-1 $62 forward single #
face $-1 $63 $64 $33 $-1 $65 reversed single #
face $-1 $66 $67 $34 $-1 $68 forward single #
face $-1 $69 $70 $35 $-1 $71 forward single #
face $-1 $72 $73 $27 $-1 $74 reversed single #
loop $-1 $-1 $75 $36 #
plane-surface $-1 0 0 12.880718625329935 0 0 1 1 0 0 forward_v I I I I #
face $-1 $76 $77 $28 $-1 $78 reversed single #
loop $-1 $-1 $79 $37 #
plane-surface $-1 -58.81156865898383 0 9.062558626967089 0 0 1 1 0 0 forward_v I I I I #
face $-1 $80 $81 $29 $-1 $82 reversed single #
loop $-1 $-1 $83 $38 #
plane-surface $-1 -39.089419142989449 98.063836164321813 122.63805466705134 -1 0 0 0 0.80901700255871778 0.5877852410284794 forward_v I I I I #
face $-1 $84 $85 $30 $-1 $86 forward single #
loop $-1 $87 $88 $39 #
cone-surface $-1 -51.067185638292926 23.547931330750114 8.0751472649102229 0 -0.80901700255871778 -0.5877852410284794 0.5 0 0 1 I I 0 1 0.5 forward I I I I #
face $-1 $89 $90 $31 $-1 $91 forward single #
loop $-1 $92 $93 $40 #
cone-surface $-1 -46.575523202554123 23.547931330750114 8.0751472649102229 0 -0.80901700255871778 -0.5877852410284794 0.5 0 0 1 I I 0 1 0.5 forward I I I I #
face $-1 $94 $95 $32 $-1 $96 forward single #
loop $-1 $97 $98 $41 #
cone-surface $-1 -42.08386076681532 23.547931330750114 8.0751472649102229 0 -0.80901700255871778 -0.5877852410284794 0.5 0 0 1 I I 0 1 0.5 forward I I I I #
face $-1 $99 $100 $33 $-1 $101 reversed single #
loop $-1 $-1 $102 $42 #
plane-surface $-1 -47.50273827775878 -27.23036621329355 7.748193764392596 0 -0.81915205242281985 0.57357642473473569 1 0 0 forward_v I I I I #
face $-1 $103 $104 $34 $-1 $105 forward single #
loop $-1 $106 $107 $43 #
cone-surface $-1 -50.313690699627358 -24.187078634310271 9.4417376174608059 0 0.81915205242281985 -0.57357642473473569 1.5 0 0 1 I I 0 1 1.5 forward I I I I #
face $-1 $108 $109 $35 $-1 $110 forward single #
loop $-1 $111 $112 $44 #
cone-surface $-1 -44.691785855890203 -24.187078634310271 9.4417376174608059 0 0.81915205242281985 -0.57357642473473569 1.5 0 0 1 I I 0 1 1.5 forward I I I I #
face $-1 $113 $114 $27 $-1 $115 reversed single #
loop $-1 $-1 $116 $45 #
plane-surface $-1 0 0 -12.880718625329935 0 0 1 1 0 0 forward_v I I I I #
coedge $-1 $117 $118 $119 $120 forward $46 $-1 #
face $-1 $121 $122 $28 $-1 $123 reversed single #
loop $-1 $-1 $124 $48 #
plane-surface $-1 -58.81156865898383 0 1.3388446557702274 0 0 1 1 0 0 forward_v I I I I #
coedge $-1 $125 $126 $127 $128 forward $49 $-1 #
face $-1 $129 $130 $29 $-1 $131 forward single #
loop $-1 $-1 $132 $51 #
plane-surface $-1 -46.575523202554123 -4.7808485226554893 47.917019650428841 0 0.80901700255871778 0.5877852410284794 1 0 0 forward_v I I I I #
coedge $-1 $133 $134 $135 $136 reversed $52 $-1 #
face $-1 $-1 $137 $30 $-1 $138 forward single #
loop $-1 $139 $140 $54 #
cone-surface $-1 -51.067185638292926 22.941168578831075 7.6343083341388631 0 -0.80901700255871778 -0.5877852410284794 0.25 0 0 1 I I -0.70710678118654746 0.70710678118654746 0.25 forward I I I I #
loop $-1 $-1 $141 $39 #
coedge $-1 $88 $88 $142 $143 reversed $55 $-1 #
face $-1 $-1 $144 $31 $-1 $145 forward single #
loop $-1 $146 $147 $57 #
cone-surface $-1 -46.575523202554123 22.941168578831075 7.6343083341388631 0 -0.80901700255871778 -0.5877852410284794 0.25 0 0 1 I I -0.70710678118654746 0.70710678118654746 0.25 forward I I I I #
loop $-1 $-1 $148 $40 #
coedge $-1 $93 $93 $149 $150 reversed $58 $-1 #
face $-1 $-1 $151 $32 $-1 $152 forward single #
loop $-1 $153 $154 $60 #
cone-surface $-1 -42.08386076681532 22.941168578831075 7.6343083341388631 0 -0.80901700255871778 -0.5877852410284794 0.25 0 0 1 I I -0.70710678118654746 0.70710678118654746 0.25 forward I I I I #
loop $-1 $-1 $155 $41 #
coedge $-1 $98 $98 $156 $157 reversed $61 $-1 #
face $-1 $158 $159 $33 $-1 $160 forward single #
loop $-1 $-1 $161 $63 #
plane-surface $-1 -40.943849293398763 -131.36344904797815 80.662961141542084 -1 0 0 0 -0.81915205242281985 0.57357642473473569 forward_v I I I I #
coedge $-1 $162 $163 $164 $165 reversed $64 $-1 #
face $-1 $-1 $166 $34 $-1 $167 forward single #
loop $-1 $168 $169 $66 #
cone-surface $-1 -50.313690699627358 -22.326343260613893 8.1388367215092838 0 0.81915205242281985 -0.57357642473473569 0.75 0 0 1 I I -0.70710678118654668 0.70710678118654835 0.75 forward I I I I #
loop $-1 $-1 $170 $43 #
coedge $-1 $107 $107 $171 $172 reversed $67 $-1 #
face $-1 $-1 $173 $35 $-1 $174 forward single #
loop $-1 $175 $176 $69 #
cone-surface $-1 -44.691785855890203 -22.326343260613893 8.1388367215092838 0 0.81915205242281985 -0.57357642473473569 0.75 0 0 1 I I -0.70710678118654668 0.70710678118654835 0.75 forward I I I I #
loop $-1 $-1 $177 $44 #
coedge $-1 $112 $112 $178 $179 reversed $70 $-1 #
face $-1 $180 $181 $27 $-1 $182 reversed single #
loop $-1 $-1 $183 $72 #
plane-surface $-1 0 -27.23036621329355 0 0 1 0 0 0 1 forward_v I I I I #
coedge $-1 $184 $185 $186 $187 forward $73 $-1 #
coedge $-1 $188 $75 $189 $190 forward $46 $-1 #
coedge $-1 $75 $188 $191 $192 forward $46 $-1 #
coedge $-1 $193 $194 $75 $120 reversed $195 $-1 #
edge $-1 $196 -27.23036621329355 $197 27.23036621329355 $119 $198 forward 7 unknown #
face $-1 $199 $200 $28 $-1 $201 reversed single #
loop $-1 $-1 $202 $76 #
plane-surface $-1 -54.06162726211879 0 5.2007016413686582 -1 0 0 0 0 1 forward_v I I I I #
coedge $-1 $203 $204 $205 $206 forward $77 $-1 #
coedge $-1 $207 $79 $208 $209 reversed $49 $-1 #
coedge $-1 $79 $207 $210 $211 reversed $49 $-1 #
coedge $-1 $202 $212 $79 $128 reversed $122 $-1 #
edge $-1 $213 -27.23036621329355 $214 27.23036621329355 $127 $215 forward 7 unknown #
face $-1 $216 $217 $29 $-1 $218 forward single #
loop $-1 $-1 $219 $80 #
plane-surface $-1 0 0 12.880718625329935 0 0 1 1 0 0 forward_v I I I I #
coedge $-1 $220 $221 $222 $223 reversed $81 $-1 #
coedge $-1 $134 $83 $224 $225 reversed $52 $-1 #
coedge $-1 $83 $133 $220 $226 reversed $52 $-1 #
coedge $-1 $222 $227 $83 $136 forward $228 $-1 #
edge $-1 $229 48.438308708195734 $230 57.46166618800671 $135 $231 forward 7 unknown #
loop $-1 $-1 $142 $84 #
plane-surface $-1 -46.575523202554123 -4.7808485226554893 47.917019650428841 0 0.80901700255871778 0.5877852410284794 1 0 0 forward_v I I I I #
loop $-1 $-1 $232 $54 #
coedge $-1 $140 $140 $141 $233 reversed $85 $-1 #
coedge $-1 $141 $141 $140 $233 forward $87 $-1 #
coedge $-1 $142 $142 $88 $143 forward $137 $-1 #
edge $-1 $234 1.032572910503424e-015 $234 6.2831853071796013 $142 $235 forward 7 unknown #
loop $-1 $-1 $149 $89 #
plane-surface $-1 -46.575523202554123 -4.7808485226554893 47.917019650428841 0 0.80901700255871778 0.5877852410284794 1 0 0 forward_v I I I I #
loop $-1 $-1 $236 $57 #
coedge $-1 $147 $147 $148 $237 reversed $90 $-1 #
coedge $-1 $148 $148 $147 $237 forward $92 $-1 #
coedge $-1 $149 $149 $93 $150 forward $144 $-1 #
edge $-1 $238 1.032572910503424e-015 $238 6.2831853071796013 $149 $239 forward 7 unknown #
loop $-1 $-1 $156 $94 #
plane-surface $-1 -46.575523202554123 -4.7808485226554893 47.917019650428841 0 0.80901700255871778 0.5877852410284794 1 0 0 forward_v I I I I #
loop $-1 $-1 $240 $60 #
coedge $-1 $154 $154 $155 $241 reversed $95 $-1 #
coedge $-1 $155 $155 $154 $241 forward $97 $-1 #
coedge $-1 $156 $156 $98 $157 forward $151 $-1 #
edge $-1 $242 1.032572910503424e-015 $242 6.2831853071796013 $156 $243 forward 7 unknown #
face $-1 $244 $245 $33 $-1 $246 forward single #
loop $-1 $-1 $247 $99 #
plane-surface $-1 0 0 12.880718625329935 0 0 1 1 0 0 forward_v I I I I #
coedge $-1 $248 $249 $250 $251 reversed $100 $-1 #
coedge $-1 $252 $102 $253 $254 reversed $64 $-1 #
coedge $-1 $102 $252 $248 $255 forward $64 $-1 #
coedge $-1 $250 $256 $102 $165 forward $257 $-1 #
edge $-1 $258 -30.3102581232394 $259 -17.192480154519373 $164 $260 forward 7 unknown #
loop $-1 $-1 $171 $103 #
plane-surface $-1 -47.50273827775878 -27.23036621329355 7.748193764392596 0 -0.81915205242281985 0.57357642473473569 1 0 0 forward_v I I I I #
loop $-1 $-1 $261 $66 #
coedge $-1 $169 $169 $170 $262 reversed $104 $-1 #
coedge $-1 $170 $170 $169 $262 forward $106 $-1 #
coedge $-1 $171 $171 $107 $172 forward $166 $-1 #
edge $-1 $263 1.1632798555566339e-015 $263 6.2831853071796013 $171 $264 forward 7 unknown #
loop $-1 $-1 $178 $108 #
plane-surface $-1 -47.50273827775878 -27.23036621329355 7.748193764392596 0 -0.81915205242281985 0.57357642473473569 1 0 0 forward_v I I I I #
loop $-1 $-1 $265 $69 #
coedge $-1 $176 $176 $177 $266 reversed $109 $-1 #
coedge $-1 $177 $177 $176 $266 forward $111 $-1 #
coedge $-1 $178 $178 $112 $179 forward $173 $-1 #
edge $-1 $267 1.1632798555566339e-015 $267 6.2831853071796013 $178 $268 forward 7 unknown #
face $-1 $269 $270 $27 $-1 $271 reversed single #
loop $-1 $-1 $272 $113 #
plane-surface $-1 -63.561510055848871 0 0 1 0 0 0 0 -1 forward_v I I I I #
coedge $-1 $273 $191 $274 $275 forward $114 $-1 #
coedge $-1 $276 $116 $273 $277 forward $73 $-1 #
coedge $-1 $116 $276 $278 $279 forward $73 $-1 #
coedge $-1 $194 $193 $116 $187 reversed $195 $-1 #
edge $-1 $280 -27.23036621329355 $281 27.23036621329355 $186 $282 forward 7 unknown #
coedge $-1 $118 $117 $283 $284 forward $46 $-1 #
coedge $-1 $285 $286 $117 $190 reversed $270 $-1 #
edge $-1 $197 -63.561510055848871 $287 63.561510055848871 $189 $288 forward 7 unknown #
coedge $-1 $183 $289 $118 $192 reversed $114 $-1 #
edge $-1 $290 -63.561510055848871 $196 63.561510055848871 $191 $291 forward 7 unknown #
coedge $-1 $186 $119 $289 $292 forward $195 $-1 #
coedge $-1 $119 $186 $285 $293 reversed $195 $-1 #
loop $-1 $-1 $193 $269 #
vertex $-1 $120 $294 #
vertex $-1 $120 $295 #
straight-curve $-1 63.561510055848871 0 12.880718625329935 0 1 0 I I #
face $-1 $296 $297 $28 $-1 $298 reversed single #
loop $-1 $-1 $299 $121 #
plane-surface $-1 0 -27.23036621329355 0 0 1 0 0 0 1 forward_v I I I I #
coedge $-1 $205 $127 $300 $301 reversed $122 $-1 #
coedge $-1 $302 $124 $299 $303 reversed $77 $-1 #
coedge $-1 $124 $302 $304 $305 reversed $77 $-1 #
coedge $-1 $212 $202 $124 $206 reversed $122 $-1 #
edge $-1 $306 -27.23036621329355 $307 27.23036621329355 $205 $308 forward 7 unknown #
coedge $-1 $126 $125 $309 $310 reversed $49 $-1 #
coedge $-1 $311 $312 $125 $209 forward $313 $-1 #
edge $-1 $314 -34.155725726356955 $214 -24.655842932626875 $208 $315 forward 7 unknown #
coedge $-1 $316 $300 $126 $211 forward $200 $-1 #
edge $-1 $213 24.655842932626875 $317 34.155725726356955 $210 $318 forward 7 unknown #
coedge $-1 $127 $205 $311 $319 reversed $122 $-1 #
vertex $-1 $211 $320 #
vertex $-1 $209 $321 #
straight-curve $-1 -54.06162726211879 0 9.062558626967089 0 1 0 I I #
face $-1 $-1 $228 $29 $-1 $322 reversed single #
loop $-1 $-1 $323 $129 #
plane-surface $-1 -54.06162726211879 0 5.2007016413686582 -1 0 0 0 0 1 forward_v I I I I #
coedge $-1 $324 $325 $326 $327 forward $130 $-1 #
coedge $-1 $328 $132 $134 $226 forward $81 $-1 #
coedge $-1 $132 $328 $323 $329 forward $81 $-1 #
coedge $-1 $330 $135 $132 $223 forward $228 $-1 #
edge $-1 $230 15.801657541712387 $331 30.773865660841729 $222 $332 forward 7 unknown #
coedge $-1 $325 $324 $133 $225 forward $130 $-1 #
edge $-1 $333 -28.357404631395525 $229 -21.801551868867357 $224 $334 forward 7 unknown #
edge $-1 $230 -54.460732426587128 $333 -43.307249309084824 $134 $335 forward 7 unknown #
coedge $-1 $135 $330 $325 $336 reversed $228 $-1 #
loop $-1 $-1 $330 $216 #
vertex $-1 $336 $337 #
vertex $-1 $136 $338 #
straight-curve $-1 -39.089419142989449 27.23036621329355 61.319027333525668 0 0 -1 I I #
coedge $-1 $232 $232 $-1 $339 reversed $139 $-1 #
edge $-1 $340 0 $340 6.2831853071796004 $140 $341 forward 7 unknown #
vertex $-1 $143 $342 #
ellipse-curve $-1 -51.067185638292926 23.952439832029462 8.3690398854244545 0 0.80901700255871778 0.5877852410284794 0.5 0 0 1 I I #
coedge $-1 $236 $236 $-1 $343 reversed $146 $-1 #
edge $-1 $344 0 $344 6.2831853071796004 $147 $345 forward 7 unknown #
vertex $-1 $150 $346 #
ellipse-curve $-1 -46.575523202554123 23.952439832029462 8.3690398854244545 0 0.80901700255871778 0.5877852410284794 0.5 0 0 1 I I #
coedge $-1 $240 $240 $-1 $347 reversed $153 $-1 #
edge $-1 $348 0 $348 6.2831853071796004 $154 $349 forward 7 unknown #
vertex $-1 $157 $350 #
ellipse-curve $-1 -42.08386076681532 23.952439832029462 8.3690398854244545 0 0.80901700255871778 0.5877852410284794 0.5 0 0 1 I I #
face $-1 $-1 $257 $33 $-1 $351 reversed single #
loop $-1 $-1 $253 $158 #
plane-surface $-1 -54.06162726211879 0 5.2007016413686582 -1 0 0 0 0 1 forward_v I I I I #
coedge $-1 $352 $353 $249 $354 forward $159 $-1 #
coedge $-1 $249 $161 $163 $255 reversed $100 $-1 #
coedge $-1 $161 $248 $247 $354 reversed $100 $-1 #
coedge $-1 $355 $164 $161 $251 forward $257 $-1 #
edge $-1 $259 -32.583286806378446 $356 -27.450761945441108 $250 $357 forward 7 unknown #
coedge $-1 $163 $162 $352 $358 reversed $64 $-1 #
coedge $-1 $359 $360 $162 $254 forward $245 $-1 #
edge $-1 $361 0.50030048366275659 $258 6.765956347866215 $253 $362 forward 7 unknown #
edge $-1 $363 -6.2656558642034597 $259 0 $248 $364 forward 7 unknown #
coedge $-1 $164 $355 $359 $365 forward $257 $-1 #
loop $-1 $-1 $250 $244 #
vertex $-1 $254 $366 #
vertex $-1 $165 $367 #
straight-curve $-1 -23.75136913887939 -27.23036621329355 7.7481937643925995 1 0 0 I I #
coedge $-1 $261 $261 $-1 $368 reversed $168 $-1 #
edge $-1 $369 0 $369 6.2831853071796004 $169 $370 forward 7 unknown #
vertex $-1 $172 $371 #
ellipse-curve $-1 -50.313690699627358 -25.433449968689523 10.314456194861268 0 -0.81915205242281985 0.57357642473473569 1.5 0 0 1 I I #
coedge $-1 $265 $265 $-1 $372 reversed $175 $-1 #
edge $-1 $373 0 $373 6.2831853071796004 $176 $374 forward 7 unknown #
vertex $-1 $179 $375 #
ellipse-curve $-1 -44.691785855890203 -25.433449968689523 10.314456194861268 0 -0.81915205242281985 0.57357642473473569 1.5 0 0 1 I I #
face $-1 $-1 $195 $27 $-1 $376 reversed single #
loop $-1 $-1 $285 $180 #
plane-surface $-1 0 27.23036621329355 0 0 -1 0 0 0 -1 forward_v I I I I #
coedge $-1 $377 $283 $286 $378 forward $181 $-1 #
coedge $-1 $289 $183 $184 $277 reversed $114 $-1 #
coedge $-1 $283 $377 $183 $275 reversed $181 $-1 #
edge $-1 $290 -12.880718625329935 $379 12.880718625329935 $274 $380 forward 7 unknown #
coedge $-1 $185 $184 $377 $381 forward $73 $-1 #
edge $-1 $281 -63.561510055848871 $379 63.561510055848871 $273 $382 forward 7 unknown #
coedge $-1 $286 $285 $185 $279 reversed $270 $-1 #
edge $-1 $383 -63.561510055848871 $280 63.561510055848871 $278 $384 forward 7 unknown #
vertex $-1 $187 $385 #
vertex $-1 $292 $386 #
straight-curve $-1 63.561510055848871 0 -12.880718625329935 0 -1 0 I I #
coedge $-1 $272 $274 $188 $284 reversed $181 $-1 #
edge $-1 $287 -27.23036621329355 $290 27.23036621329355 $283 $387 forward 7 unknown #
coedge $-1 $278 $189 $194 $293 forward $270 $-1 #
coedge $-1 $189 $278 $272 $378 reversed $270 $-1 #
vertex $-1 $190 $388 #
straight-curve $-1 0 27.23036621329355 12.880718625329935 -1 0 0 I I #
coedge $-1 $191 $273 $193 $292 reversed $114 $-1 #
vertex $-1 $284 $389 #
straight-curve $-1 0 -27.23036621329355 12.880718625329935 1 0 0 I I #
edge $-1 $196 -12.880718625329935 $281 12.880718625329935 $193 $390 forward 7 unknown #
edge $-1 $197 -12.880718625329935 $280 12.880718625329935 $194 $391 forward 7 unknown #
point $-1 63.561510055848871 -27.23036621329355 12.880718625329935 #
point $-1 63.561510055848871 27.23036621329355 12.880718625329935 #
face $-1 $-1 $313 $28 $-1 $392 reversed single #
loop $-1 $-1 $393 $199 #
plane-surface $-1 -63.561510055848871 0 0 1 0 0 0 0 -1 forward_v I I I I #
coedge $-1 $300 $316 $203 $303 forward $200 $-1 #
coedge $-1 $210 $299 $202 $301 forward $200 $-1 #
edge $-1 $307 -1.2615061649141017 $213 6.4622078062827599 $300 $394 forward 7 unknown #
coedge $-1 $204 $203 $393 $395 reversed $77 $-1 #
edge $-1 $396 -34.155725726356955 $307 -24.655842932626875 $299 $397 forward 7 unknown #
coedge $-1 $312 $311 $204 $305 forward $313 $-1 #
edge $-1 $306 24.655842932626875 $398 34.155725726356955 $304 $399 forward 7 unknown #
vertex $-1 $305 $400 #
vertex $-1 $303 $401 #
straight-curve $-1 -54.06162726211879 0 1.3388446557702274 0 -1 0 I I #
coedge $-1 $402 $403 $207 $310 forward $297 $-1 #
edge $-1 $317 -27.23036621329355 $314 27.23036621329355 $309 $404 forward 7 unknown #
coedge $-1 $304 $208 $212 $319 forward $313 $-1 #
coedge $-1 $208 $304 $402 $405 reversed $313 $-1 #
loop $-1 $-1 $304 $296 #
vertex $-1 $405 $406 #
straight-curve $-1 -29.405784329491915 27.23036621329355 9.062558626967089 1 0 0 I I #
coedge $-1 $299 $210 $403 $407 forward $200 $-1 #
vertex $-1 $407 $408 #
straight-curve $-1 -29.405784329491915 -27.23036621329355 9.062558626967089 -1 0 0 I I #
edge $-1 $214 -6.4622078062827599 $306 1.2615061649141017 $311 $409 forward 7 unknown #
point $-1 -54.06162726211879 -27.23036621329355 9.062558626967089 #
point $-1 -54.06162726211879 27.23036621329355 9.062558626967089 #
plane-surface $-1 0 27.23036621329355 0 0 -1 0 0 0 -1 forward_v I I I I #
coedge $-1 $326 $410 $221 $329 reversed $217 $-1 #
coedge $-1 $224 $219 $328 $411 forward $130 $-1 #
coedge $-1 $219 $224 $227 $336 forward $130 $-1 #
coedge $-1 $410 $323 $219 $327 reversed $217 $-1 #
edge $-1 $412 21.801551868867357 $413 28.357404631395525 $219 $414 forward 7 unknown #
coedge $-1 $221 $220 $324 $411 reversed $81 $-1 #
edge $-1 $413 43.307249309084824 $331 54.460732426587121 $323 $415 forward 7 unknown #
coedge $-1 $227 $222 $410 $416 forward $228 $-1 #
vertex $-1 $416 $417 #
straight-curve $-1 -23.287761601277062 27.23036621329355 3.8573611455189578 -1 0 0 I I #
vertex $-1 $225 $418 #
straight-curve $-1 -39.089419142989449 49.031918082160907 12.880718625329934 0 1 0 I I #
straight-curve $-1 -39.089419142989449 -4.7808485226554893 47.917019650428841 0 -0.5877852410284794 0.80901700255871778 I I #
edge $-1 $229 39.089419142989449 $412 54.061627262118797 $227 $419 forward 7 unknown #
point $-1 -39.089419142989449 27.23036621329355 12.880718625329935 #
point $-1 -39.089419142989449 27.23036621329355 3.8573611455189578 #
edge $-1 $420 1 $420 0 $232 $-1 forward 7 unknown #
vertex $-1 $233 $421 #
ellipse-curve $-1 -51.067185638292926 23.143422829470754 7.7812546443959834 0 0.80901700255871778 0.5877852410284794 0.5 0 0 1 I I #
point $-1 -50.567185638292926 23.952439832029473 8.3690398854244616 #
edge $-1 $422 1 $422 0 $236 $-1 forward 7 unknown #
vertex $-1 $237 $423 #
ellipse-curve $-1 -46.575523202554123 23.143422829470754 7.7812546443959834 0 0.80901700255871778 0.5877852410284794 0.5 0 0 1 I I #
point $-1 -46.075523202554123 23.952439832029473 8.3690398854244616 #
edge $-1 $424 1 $424 0 $240 $-1 forward 7 unknown #
vertex $-1 $241 $425 #
ellipse-curve $-1 -42.08386076681532 23.143422829470754 7.7812546443959834 0 0.80901700255871778 0.5877852410284794 0.5 0 0 1 I I #
point $-1 -41.58386076681532 23.952439832029473 8.3690398854244616 #
plane-surface $-1 0 -27.23036621329355 0 0 1 0 0 0 1 forward_v I I I I #
coedge $-1 $426 $247 $252 $358 forward $159 $-1 #
coedge $-1 $247 $426 $355 $427 forward $159 $-1 #
edge $-1 $356 38.451358310695525 $363 42.04519079990358 $247 $428 forward 7 unknown #
coedge $-1 $256 $250 $353 $427 reversed $257 $-1 #
vertex $-1 $251 $429 #
straight-curve $-1 -40.943849293398763 -27.23036621329355 40.331480570771042 0 0 1 I I #
edge $-1 $363 17.192480154519373 $361 30.310258123239407 $352 $430 forward 7 unknown #
coedge $-1 $360 $253 $256 $365 reversed $245 $-1 #
coedge $-1 $253 $359 $426 $431 reversed $245 $-1 #
vertex $-1 $431 $432 #
straight-curve $-1 -54.06162726211879 -23.349573161373158 13.290540793350413 0 -0.57357642473473569 -0.81915205242281985 I I #
vertex $-1 $358 $433 #
straight-curve $-1 -40.943849293398763 -27.23036621329355 7.748193764392596 0 -0.57357642473473569 -0.81915205242281985 I I #
edge $-1 $434 27.450761945441108 $258 32.583286806378446 $256 $435 forward 7 unknown #
point $-1 -54.06162726211879 -27.23036621329355 7.748193764392596 #
point $-1 -40.943849293398763 -27.23036621329355 7.748193764392596 #
edge $-1 $436 1 $436 0 $261 $-1 forward 7 unknown #
vertex $-1 $262 $437 #
ellipse-curve $-1 -50.313690699627358 -22.94070729993101 8.5690190400603363 0 -0.81915205242281985 0.57357642473473569 1.5 0 0 1 I I #
point $-1 -48.813690699627358 -25.43344996868953 10.314456194861275 #
edge $-1 $438 1 $438 0 $265 $-1 forward 7 unknown #
vertex $-1 $266 $439 #
ellipse-curve $-1 -44.691785855890203 -22.94070729993101 8.5690190400603363 0 -0.81915205242281985 0.57357642473473569 1.5 0 0 1 I I #
point $-1 -43.191785855890203 -25.43344996868953 10.314456194861275 #
plane-surface $-1 63.561510055848871 0 0 -1 0 0 0 0 1 forward_v I I I I #
coedge $-1 $274 $272 $276 $381 reversed $181 $-1 #
edge $-1 $287 -12.880718625329935 $383 12.880718625329935 $286 $440 forward 7 unknown #
vertex $-1 $381 $441 #
straight-curve $-1 -63.561510055848871 -27.23036621329355 0 0 0 -1 I I #
edge $-1 $379 -27.23036621329355 $383 27.23036621329355 $377 $442 forward 7 unknown #
straight-curve $-1 0 -27.23036621329355 -12.880718625329935 -1 0 0 I I #
vertex $-1 $279 $443 #
straight-curve $-1 0 27.23036621329355 -12.880718625329935 1 0 0 I I #
point $-1 63.561510055848871 27.23036621329355 -12.880718625329935 #
point $-1 63.561510055848871 -27.23036621329355 -12.880718625329935 #
straight-curve $-1 -63.561510055848871 0 12.880718625329935 0 -1 0 I I #
point $-1 -63.561510055848871 27.23036621329355 12.880718625329935 #
point $-1 -63.561510055848871 -27.23036621329355 12.880718625329935 #
straight-curve $-1 63.561510055848871 -27.23036621329355 0 0 0 -1 I I #
straight-curve $-1 63.561510055848871 27.23036621329355 0 0 0 -1 I I #
plane-surface $-1 0 27.23036621329355 0 0 -1 0 0 0 -1 forward_v I I I I #
coedge $-1 $403 $402 $302 $395 forward $297 $-1 #
straight-curve $-1 -54.06162726211879 -27.23036621329355 2.6003508206843291 0 0 1 I I #
edge $-1 $398 -27.23036621329355 $396 27.23036621329355 $393 $444 forward 7 unknown #
vertex $-1 $303 $445 #
straight-curve $-1 -29.405784329491915 -27.23036621329355 1.3388446557702274 1 0 0 I I #
vertex $-1 $305 $446 #
straight-curve $-1 -29.405784329491915 27.23036621329355 1.3388446557702274 -1 0 0 I I #
point $-1 -54.06162726211879 27.23036621329355 1.3388446557702274 #
point $-1 -54.06162726211879 -27.23036621329355 1.3388446557702274 #
coedge $-1 $393 $309 $312 $405 forward $297 $-1 #
coedge $-1 $309 $393 $316 $407 reversed $297 $-1 #
straight-curve $-1 -63.561510055848871 0 9.062558626967089 0 1 0 I I #
edge $-1 $314 -9.062558626967089 $398 -1.3388446557702274 $312 $447 forward 7 unknown #
point $-1 -63.561510055848871 27.23036621329355 9.062558626967089 #
edge $-1 $317 -9.062558626967089 $396 -1.3388446557702274 $403 $448 forward 7 unknown #
point $-1 -63.561510055848871 -27.23036621329355 9.062558626967089 #
straight-curve $-1 -54.06162726211879 27.23036621329355 2.6003508206843291 0 0 -1 I I #
coedge $-1 $323 $326 $330 $416 reversed $217 $-1 #
edge $-1 $413 -30.773865660841736 $333 -15.801657541712387 $324 $449 forward 7 unknown #
vertex $-1 $416 $450 #
vertex $-1 $411 $451 #
straight-curve $-1 -54.061627262118797 49.031918082160907 12.880718625329934 0 -1 0 I I #
straight-curve $-1 -54.061627262118797 -4.7808485226554893 47.917019650428841 0 0.5877852410284794 -0.80901700255871778 I I #
edge $-1 $331 -57.461666188006703 $412 -48.438308708195734 $330 $452 forward 7 unknown #
point $-1 -54.06162726211879 27.23036621329355 3.8573611455189645 #
point $-1 -39.089419142989449 20.674513450765382 12.880718625329934 #
straight-curve $-1 0 27.23036621329355 12.880718625329935 -1 0 0 I I #
vertex $-1 $339 $453 #
point $-1 -50.567185638292926 23.143422829470754 7.7812546443959834 #
vertex $-1 $343 $454 #
point $-1 -46.075523202554123 23.143422829470754 7.7812546443959834 #
vertex $-1 $347 $455 #
point $-1 -41.58386076681532 23.143422829470754 7.7812546443959834 #
coedge $-1 $353 $352 $360 $431 forward $159 $-1 #
edge $-1 $434 -54.061627262118797 $356 -40.943849293398763 $355 $456 forward 7 unknown #
straight-curve $-1 -40.943849293398763 -65.681724523989075 12.880718625329934 0 1 0 I I #
point $-1 -40.943849293398763 -27.23036621329355 12.880718625329935 #
straight-curve $-1 -23.75136913887939 -23.636533724085499 12.880718625329935 -1 0 0 I I #
edge $-1 $361 -42.04519079990358 $434 -38.451358310695525 $426 $457 forward 7 unknown #
point $-1 -54.061627262118797 -23.636533724085499 12.880718625329935 #
point $-1 -40.943849293398763 -23.636533724085499 12.880718625329935 #
vertex $-1 $427 $458 #
straight-curve $-1 -54.061627262118797 -27.23036621329355 40.331480570771042 0 0 -1 I I #
vertex $-1 $368 $459 #
point $-1 -48.813690699627358 -22.94070729993101 8.5690190400603363 #
vertex $-1 $372 $460 #
point $-1 -43.191785855890203 -22.94070729993101 8.5690190400603363 #
straight-curve $-1 -63.561510055848871 27.23036621329355 0 0 0 -1 I I #
point $-1 -63.561510055848871 -27.23036621329355 -12.880718625329935 #
straight-curve $-1 -63.561510055848871 0 -12.880718625329935 0 1 0 I I #
point $-1 -63.561510055848871 27.23036621329355 -12.880718625329935 #
straight-curve $-1 -63.561510055848871 0 1.3388446557702274 0 -1 0 I I #
point $-1 -63.561510055848871 -27.23036621329355 1.3388446557702274 #
point $-1 -63.561510055848871 27.23036621329355 1.3388446557702274 #
straight-curve $-1 -63.561510055848871 27.23036621329355 0 0 0 -1 I I #
straight-curve $-1 -63.561510055848871 -27.23036621329355 0 0 0 -1 I I #
straight-curve $-1 -23.287761601277062 20.674513450765382 12.880718625329934 1 0 0 I I #
point $-1 -54.061627262118797 27.23036621329355 12.880718625329935 #
point $-1 -54.061627262118797 20.674513450765382 12.880718625329934 #
straight-curve $-1 -54.061627262118797 27.23036621329355 61.319027333525668 0 0 1 I I #
point $-1 -51.067185638292926 22.738914328191395 7.4873620238817429 #
point $-1 -46.575523202554123 22.738914328191395 7.4873620238817429 #
point $-1 -42.08386076681532 22.738914328191395 7.4873620238817429 #
straight-curve $-1 0 -27.23036621329355 12.880718625329935 1 0 0 I I #
straight-curve $-1 -54.061627262118797 -65.681724523989075 12.880718625329934 0 -1 0 I I #
point $-1 -54.061627262118797 -27.23036621329355 12.880718625329935 #
point $-1 -50.313690699627358 -21.711979221296776 7.7086544029582313 #
point $-1 -44.691785855890203 -21.711979221296776 7.7086544029582313 #
End-of-ACIS-data 