500 0 10 0           
7 Unknown 11 ACIS 5.0 NT 24 Fri Mar 26 17:52:12 1999 
-1 9.9999999999999995e-007 1e-010 
body $-1 $10 $-1 $11 #
body $-1 $12 $-1 $13 #
body $-1 $14 $-1 $15 #
body $-1 $16 $-1 $17 #
body $-1 $18 $-1 $19 #
body $-1 $20 $-1 $21 #
body $-1 $22 $-1 $23 #
body $-1 $24 $-1 $25 #
body $-1 $26 $-1 $27 #
body $-1 $28 $-1 $29 #
lump $-1 $-1 $30 $0 #
transform $-1 1 0 0 0 1 0 0 0 1 45.887630848109382 26.654233769709332 12.194065881777542 1 rotate no_reflect no_shear #
lump $-1 $-1 $31 $1 #
transform $-1 1 0 0 0 1 0 0 0 1 45.887630848109382 26.654233769709332 12.194065881777542 1 rotate no_reflect no_shear #
lump $-1 $-1 $32 $2 #
transform $-1 1 0 0 0 1 0 0 0 1 45.887630848109382 26.654233769709332 12.194065881777542 1 rotate no_reflect no_shear #
lump $-1 $-1 $33 $3 #
transform $-1 1 0 0 0 1 0 0 0 1 45.887630848109382 26.654233769709332 12.194065881777542 1 rotate no_reflect no_shear #
lump $-1 $-1 $34 $4 #
transform $-1 1 0 0 0 1 0 0 0 1 45.887630848109382 26.654233769709332 12.194065881777542 1 rotate no_reflect no_shear #
lump $-1 $-1 $35 $5 #
transform $-1 1 0 0 0 1 0 0 0 1 45.887630848109382 26.654233769709332 12.194065881777542 1 rotate no_reflect no_shear #
lump $-1 $-1 $36 $6 #
transform $-1 1 0 0 0 1 0 0 0 1 45.887630848109382 26.654233769709332 12.194065881777542 1 rotate no_reflect no_shear #
lump $-1 $-1 $37 $7 #
transform $-1 1 0 0 0 1 0 0 0 1 45.887630848109382 26.654233769709332 12.194065881777542 1 rotate no_reflect no_shear #
lump $-1 $-1 $38 $8 #
transform $-1 1 0 0 0 1 0 0 0 1 45.887630848109382 26.654233769709332 12.194065881777542 1 rotate no_reflect no_shear #
lump $-1 $-1 $39 $9 #
transform $-1 1 0 0 0 1 0 0 0 1 45.887630848109382 26.654233769709332 12.194065881777542 1 rotate no_reflect no_shear #
shell $-1 $-1 $-1 $40 $-1 $10 #
shell $-1 $-1 $-1 $41 $-1 $12 #
shell $-1 $-1 $-1 $42 $-1 $14 #
shell $-1 $-1 $-1 $43 $-1 $16 #
shell $-1 $-1 $-1 $44 $-1 $18 #
shell $-1 $-1 $-1 $45 $-1 $20 #
shell $-1 $-1 $-1 $46 $-1 $22 #
shell $-1 $-1 $-1 $47 $-1 $24 #
shell $-1 $-1 $-1 $48 $-1 $26 #
shell $-1 $-1 $-1 $49 $-1 $28 #
face $-1 $50 $51 $30 $-1 $52 forward single #
face $-1 $53 $54 $31 $-1 $55 reversed single #
face $-1 $56 $57 $32 $-1 $58 reversed single #
face $-1 $59 $60 $33 $-1 $61 forward single #
face $-1 $62 $63 $34 $-1 $64 reversed single #
face $-1 $65 $66 $35 $-1 $67 forward single #
face $-1 $68 $69 $36 $-1 $70 reversed single #
face $-1 $71 $72 $37 $-1 $73 forward single #
face $-1 $74 $75 $38 $-1 $76 reversed single #
face $-1 $77 $78 $39 $-1 $79 forward single #
face $-1 $80 $81 $30 $-1 $82 reversed single #
loop $-1 $-1 $83 $40 #
plane-surface $-1 0 0 12.194065881777542 0 0 1 1 0 0 forward_v I I I I #
face $-1 $84 $85 $31 $-1 $86 reversed single #
loop $-1 $-1 $87 $41 #
plane-surface $-1 0 -19.853999896493889 7.1265712953898692 0 0 1 1 0 0 forward_v I I I I #
face $-1 $88 $89 $32 $-1 $90 reversed single #
loop $-1 $-1 $91 $42 #
plane-surface $-1 57.199560659066165 3.2901557573777716 137.80984787954674 0 -1 0 -0.7660444514056185 0 -0.64278759981090561 forward_v I I I I #
face $-1 $92 $93 $33 $-1 $94 forward single #
loop $-1 $95 $96 $43 #
cone-surface $-1 43.753901853074652 -0.80409983597739298 9.8591549941789101 -0.7660444514056185 0 -0.64278759981090561 0.3213937999054528 0 -0.38302222570280925 1 I I 0 1 0.5 forward I I I I #
face $-1 $97 $98 $34 $-1 $99 reversed single #
loop $-1 $-1 $100 $44 #
plane-surface $-1 57.199560659066165 18.498823175763437 137.80984787954674 0 -1 0 -0.7660444514056185 0 -0.64278759981090561 forward_v I I I I #
face $-1 $101 $102 $35 $-1 $103 forward single #
loop $-1 $104 $105 $45 #
cone-surface $-1 43.753901853074652 14.404567582408273 9.8591549941789101 -0.7660444514056185 0 -0.64278759981090561 0.3213937999054528 0 -0.38302222570280925 1 I I 0 1 0.5 forward I I I I #
face $-1 $106 $107 $36 $-1 $108 reversed single #
loop $-1 $-1 $109 $46 #
plane-surface $-1 -116.19156084679636 -4.8983554293325575 67.505917880859755 0 1 0 -0.7660444514056185 0 0.64278759981090561 forward_v I I I I #
face $-1 $110 $111 $37 $-1 $112 forward single #
loop $-1 $113 $114 $47 #
cone-surface $-1 -43.753901853074652 -0.80409983597739298 9.8591549941789101 0.7660444514056185 0 -0.64278759981090561 0.3213937999054528 0 0.38302222570280925 1 I I 0 1 0.5 forward I I I I #
face $-1 $115 $116 $38 $-1 $117 reversed single #
loop $-1 $-1 $118 $48 #
plane-surface $-1 -116.19156084679636 10.310311989053108 67.505917880859755 0 1 0 -0.7660444514056185 0 0.64278759981090561 forward_v I I I I #
face $-1 $119 $120 $39 $-1 $121 forward single #
loop $-1 $122 $123 $49 #
cone-surface $-1 -43.753901853074652 14.404567582408273 9.8591549941789101 0.7660444514056185 0 -0.64278759981090561 0.3213937999054528 0 0.38302222570280925 1 I I 0 1 0.5 forward I I I I #
face $-1 $124 $125 $30 $-1 $126 reversed single #
loop $-1 $-1 $127 $50 #
plane-surface $-1 0 0 -12.194065881777542 0 0 1 1 0 0 forward_v I I I I #
coedge $-1 $128 $129 $130 $131 forward $51 $-1 #
face $-1 $132 $133 $31 $-1 $134 reversed single #
loop $-1 $-1 $135 $53 #
plane-surface $-1 0 -13.053766023278445 9.6603185885837046 0 -1 0 0 0 -1 forward_v I I I I #
coedge $-1 $136 $137 $138 $139 reversed $54 $-1 #
face $-1 $140 $141 $32 $-1 $142 reversed single #
loop $-1 $-1 $143 $56 #
plane-surface $-1 -13.104369339620803 -0.80409983597739298 78.817847691816539 0.7660444514056185 0 0.64278759981090561 0.64278759981090561 0 -0.7660444514056185 forward_v I I I I #
coedge $-1 $144 $145 $146 $147 reversed $57 $-1 #
face $-1 $-1 $148 $33 $-1 $149 forward single #
loop $-1 $150 $151 $59 #
cone-surface $-1 42.972667198650726 -0.80409983597739298 9.2036213009515446 -0.7660444514056185 0 -0.64278759981090561 0.1606968999527264 0 -0.19151111285140462 1 I I -0.70710678118654746 0.70710678118654746 0.25 forward I I I I #
loop $-1 $-1 $152 $43 #
coedge $-1 $96 $96 $153 $154 reversed $60 $-1 #
face $-1 $155 $156 $34 $-1 $157 reversed single #
loop $-1 $-1 $158 $62 #
plane-surface $-1 -13.104369339620803 14.404567582408273 78.817847691816539 0.7660444514056185 0 0.64278759981090561 0.64278759981090561 0 -0.7660444514056185 forward_v I I I I #
coedge $-1 $159 $160 $161 $162 reversed $63 $-1 #
face $-1 $-1 $163 $35 $-1 $164 forward single #
loop $-1 $165 $166 $65 #
cone-surface $-1 42.972667198650726 14.404567582408273 9.2036213009515446 -0.7660444514056185 0 -0.64278759981090561 0.1606968999527264 0 -0.19151111285140462 1 I I -0.70710678118654746 0.70710678118654746 0.25 forward I I I I #
loop $-1 $-1 $167 $45 #
coedge $-1 $105 $105 $168 $169 reversed $66 $-1 #
face $-1 $170 $171 $36 $-1 $172 reversed single #
loop $-1 $-1 $173 $68 #
plane-surface $-1 -45.887630848109396 -0.80409983597739298 8.5139176931295566 -0.7660444514056185 0 0.64278759981090561 0.64278759981090561 0 0.7660444514056185 forward_v I I I I #
coedge $-1 $174 $175 $176 $177 reversed $69 $-1 #
face $-1 $-1 $178 $37 $-1 $179 forward single #
loop $-1 $180 $181 $71 #
cone-surface $-1 -42.972667198650726 -0.80409983597739298 9.2036213009515446 0.7660444514056185 0 -0.64278759981090561 0.1606968999527264 0 0.19151111285140462 1 I I -0.70710678118654746 0.70710678118654746 0.25 forward I I I I #
loop $-1 $-1 $182 $47 #
coedge $-1 $114 $114 $183 $184 reversed $72 $-1 #
face $-1 $185 $186 $38 $-1 $187 reversed single #
loop $-1 $-1 $188 $74 #
plane-surface $-1 -45.887630848109396 14.404567582408273 8.5139176931295566 -0.7660444514056185 0 0.64278759981090561 0.64278759981090561 0 0.7660444514056185 forward_v I I I I #
coedge $-1 $189 $190 $191 $192 reversed $75 $-1 #
face $-1 $-1 $193 $39 $-1 $194 forward single #
loop $-1 $195 $196 $77 #
cone-surface $-1 -42.972667198650726 14.404567582408273 9.2036213009515446 0.7660444514056185 0 -0.64278759981090561 0.1606968999527264 0 0.19151111285140462 1 I I -0.70710678118654746 0.70710678118654746 0.25 forward I I I I #
loop $-1 $-1 $197 $49 #
coedge $-1 $123 $123 $198 $199 reversed $78 $-1 #
face $-1 $200 $201 $30 $-1 $202 reversed single #
loop $-1 $-1 $203 $80 #
plane-surface $-1 0 -26.654233769709332 0 0 1 0 0 0 1 forward_v I I I I #
coedge $-1 $204 $205 $206 $207 forward $81 $-1 #
coedge $-1 $208 $83 $209 $210 forward $51 $-1 #
coedge $-1 $83 $208 $211 $212 forward $51 $-1 #
coedge $-1 $213 $214 $83 $131 reversed $215 $-1 #
edge $-1 $216 -26.654233769709332 $217 26.654233769709332 $130 $218 forward 7 unknown #
face $-1 $219 $220 $31 $-1 $221 reversed single #
loop $-1 $-1 $222 $84 #
plane-surface $-1 -45.887630848109382 0 0 1 0 0 0 0 -1 forward_v I I I I #
coedge $-1 $223 $224 $225 $226 reversed $85 $-1 #
coedge $-1 $227 $87 $228 $229 reversed $54 $-1 #
coedge $-1 $87 $227 $223 $230 forward $54 $-1 #
coedge $-1 $225 $231 $87 $139 forward $232 $-1 #
edge $-1 $233 -16.727233821462388 $234 -3.1267660750315009 $138 $235 forward 7 unknown #
face $-1 $236 $237 $32 $-1 $238 reversed single #
loop $-1 $-1 $239 $88 #
plane-surface $-1 57.199560659066165 -4.8983554293325575 137.80984787954674 0 1 0 0.7660444514056185 0 0.64278759981090561 forward_v I I I I #
coedge $-1 $240 $241 $242 $243 reversed $89 $-1 #
coedge $-1 $145 $91 $244 $245 reversed $57 $-1 #
coedge $-1 $91 $144 $240 $246 reversed $57 $-1 #
coedge $-1 $242 $247 $91 $147 forward $248 $-1 #
edge $-1 $249 -17.287850518576299 $250 -14.199839611651889 $146 $251 forward 7 unknown #
loop $-1 $-1 $153 $92 #
plane-surface $-1 -13.104369339620803 -0.80409983597739298 78.817847691816539 0.7660444514056185 0 0.64278759981090561 0.64278759981090561 0 -0.7660444514056185 forward_v I I I I #
loop $-1 $-1 $252 $59 #
coedge $-1 $151 $151 $152 $253 reversed $93 $-1 #
coedge $-1 $152 $152 $151 $253 forward $95 $-1 #
coedge $-1 $153 $153 $96 $154 forward $148 $-1 #
edge $-1 $254 0 $254 6.2831853071796004 $153 $255 forward 7 unknown #
face $-1 $256 $257 $34 $-1 $258 reversed single #
loop $-1 $-1 $259 $97 #
plane-surface $-1 57.199560659066165 10.310311989053108 137.80984787954674 0 1 0 0.7660444514056185 0 0.64278759981090561 forward_v I I I I #
coedge $-1 $260 $261 $262 $263 reversed $98 $-1 #
coedge $-1 $160 $100 $264 $265 reversed $63 $-1 #
coedge $-1 $100 $159 $260 $266 reversed $63 $-1 #
coedge $-1 $262 $267 $100 $162 forward $268 $-1 #
edge $-1 $269 -17.287850518576299 $270 -14.199839611651889 $161 $271 forward 7 unknown #
loop $-1 $-1 $168 $101 #
plane-surface $-1 -13.104369339620803 14.404567582408273 78.817847691816539 0.7660444514056185 0 0.64278759981090561 0.64278759981090561 0 -0.7660444514056185 forward_v I I I I #
loop $-1 $-1 $272 $65 #
coedge $-1 $166 $166 $167 $273 reversed $102 $-1 #
coedge $-1 $167 $167 $166 $273 forward $104 $-1 #
coedge $-1 $168 $168 $105 $169 forward $163 $-1 #
edge $-1 $274 0 $274 6.2831853071796004 $168 $275 forward 7 unknown #
face $-1 $276 $277 $36 $-1 $278 forward single #
loop $-1 $-1 $279 $106 #
plane-surface $-1 -116.19156084679636 3.2901557573777716 67.505917880859755 0 -1 0 0.7660444514056185 0 -0.64278759981090561 forward_v I I I I #
coedge $-1 $280 $281 $282 $283 reversed $107 $-1 #
coedge $-1 $175 $109 $284 $285 reversed $69 $-1 #
coedge $-1 $109 $174 $280 $286 reversed $69 $-1 #
coedge $-1 $282 $287 $109 $177 forward $277 $-1 #
edge $-1 $288 12.2081495752888 $289 15.296160482213217 $176 $290 forward 7 unknown #
loop $-1 $-1 $183 $110 #
plane-surface $-1 -45.887630848109396 -0.80409983597739298 8.5139176931295566 -0.7660444514056185 0 0.64278759981090561 0.64278759981090561 0 0.7660444514056185 forward_v I I I I #
loop $-1 $-1 $291 $71 #
coedge $-1 $181 $181 $182 $292 reversed $111 $-1 #
coedge $-1 $182 $182 $181 $292 forward $113 $-1 #
coedge $-1 $183 $183 $114 $184 forward $178 $-1 #
edge $-1 $293 0 $293 6.2831853071796004 $183 $294 forward 7 unknown #
face $-1 $295 $296 $38 $-1 $297 forward single #
loop $-1 $-1 $298 $115 #
plane-surface $-1 -116.19156084679636 18.498823175763437 67.505917880859755 0 -1 0 0.7660444514056185 0 -0.64278759981090561 forward_v I I I I #
coedge $-1 $299 $300 $301 $302 reversed $116 $-1 #
coedge $-1 $190 $118 $303 $304 reversed $75 $-1 #
coedge $-1 $118 $189 $299 $305 reversed $75 $-1 #
coedge $-1 $301 $306 $118 $192 forward $296 $-1 #
edge $-1 $307 12.2081495752888 $308 15.296160482213217 $191 $309 forward 7 unknown #
loop $-1 $-1 $198 $119 #
plane-surface $-1 -45.887630848109396 14.404567582408273 8.5139176931295566 -0.7660444514056185 0 0.64278759981090561 0.64278759981090561 0 0.7660444514056185 forward_v I I I I #
loop $-1 $-1 $310 $77 #
coedge $-1 $196 $196 $197 $311 reversed $120 $-1 #
coedge $-1 $197 $197 $196 $311 forward $122 $-1 #
coedge $-1 $198 $198 $123 $199 forward $193 $-1 #
edge $-1 $312 0 $312 6.2831853071796004 $198 $313 forward 7 unknown #
face $-1 $314 $315 $30 $-1 $316 reversed single #
loop $-1 $-1 $317 $124 #
plane-surface $-1 -45.887630848109382 0 0 1 0 0 0 0 -1 forward_v I I I I #
coedge $-1 $318 $211 $319 $320 forward $125 $-1 #
coedge $-1 $321 $127 $318 $322 forward $81 $-1 #
coedge $-1 $127 $321 $323 $324 forward $81 $-1 #
coedge $-1 $214 $213 $127 $207 reversed $215 $-1 #
edge $-1 $325 -26.654233769709332 $326 26.654233769709332 $206 $327 forward 7 unknown #
coedge $-1 $129 $128 $328 $329 forward $51 $-1 #
coedge $-1 $330 $331 $128 $210 reversed $315 $-1 #
edge $-1 $217 -45.887630848109382 $332 45.887630848109382 $209 $333 forward 7 unknown #
coedge $-1 $203 $334 $129 $212 reversed $125 $-1 #
edge $-1 $335 -45.887630848109382 $216 45.887630848109382 $211 $336 forward 7 unknown #
coedge $-1 $206 $130 $334 $337 forward $215 $-1 #
coedge $-1 $130 $206 $330 $338 reversed $215 $-1 #
loop $-1 $-1 $213 $314 #
vertex $-1 $131 $339 #
vertex $-1 $131 $340 #
straight-curve $-1 45.887630848109382 0 12.194065881777542 0 1 0 I I #
face $-1 $341 $342 $31 $-1 $343 forward single #
loop $-1 $-1 $228 $132 #
plane-surface $-1 0 -26.654233769709332 0 0 1 0 0 0 1 forward_v I I I I #
coedge $-1 $344 $345 $346 $347 forward $133 $-1 #
coedge $-1 $346 $135 $137 $230 reversed $85 $-1 #
coedge $-1 $135 $346 $348 $349 reversed $85 $-1 #
coedge $-1 $350 $138 $135 $226 forward $232 $-1 #
edge $-1 $234 2.2964120010980169 $351 7.3639065874856877 $225 $352 forward 7 unknown #
coedge $-1 $137 $136 $344 $353 reversed $54 $-1 #
coedge $-1 $354 $355 $136 $229 forward $220 $-1 #
edge $-1 $356 -45.887630848109382 $233 45.887630848109382 $228 $357 forward 7 unknown #
edge $-1 $358 -45.887630848109382 $234 45.887630848109382 $223 $359 forward 7 unknown #
coedge $-1 $138 $350 $354 $360 forward $232 $-1 #
loop $-1 $-1 $225 $341 #
vertex $-1 $229 $361 #
vertex $-1 $139 $362 #
straight-curve $-1 45.887630848109382 -9.9269999482469444 7.1265712953898692 0 1 0 I I #
face $-1 $-1 $248 $32 $-1 $363 forward single #
loop $-1 $-1 $364 $140 #
plane-surface $-1 45.887630848109382 0 0 -1 0 0 0 0 1 forward_v I I I I #
coedge $-1 $365 $366 $367 $368 reversed $141 $-1 #
coedge $-1 $369 $143 $145 $246 forward $89 $-1 #
coedge $-1 $143 $369 $365 $370 forward $89 $-1 #
coedge $-1 $367 $146 $143 $243 forward $248 $-1 #
edge $-1 $250 -3.692205675366468 $371 4.496305511343861 $242 $372 forward 7 unknown #
coedge $-1 $373 $374 $144 $245 forward $237 $-1 #
edge $-1 $375 -60.391006246643784 $249 -56.710858057995829 $244 $376 forward 7 unknown #
edge $-1 $250 86.971169476902716 $375 91.775261696218749 $145 $377 forward 7 unknown #
coedge $-1 $146 $367 $373 $378 forward $248 $-1 #
loop $-1 $-1 $367 $236 #
vertex $-1 $245 $379 #
vertex $-1 $147 $380 #
straight-curve $-1 28.599780329533083 3.2901557573777716 12.19406588177754 -1 0 0 I I #
coedge $-1 $252 $252 $-1 $381 reversed $150 $-1 #
edge $-1 $382 0 $382 6.2831853071796004 $151 $383 forward 7 unknown #
vertex $-1 $154 $384 #
ellipse-curve $-1 44.343625394647184 -0.80409983597739298 10.353991787453563 0.7660444514056185 0 0.64278759981090561 0.3213937999054528 0 -0.38302222570280925 1 I I #
face $-1 $-1 $268 $34 $-1 $385 forward single #
loop $-1 $-1 $386 $155 #
plane-surface $-1 45.887630848109382 0 0 -1 0 0 0 0 1 forward_v I I I I #
coedge $-1 $387 $388 $389 $390 reversed $156 $-1 #
coedge $-1 $391 $158 $160 $266 forward $98 $-1 #
coedge $-1 $158 $391 $387 $392 forward $98 $-1 #
coedge $-1 $389 $161 $158 $263 forward $268 $-1 #
edge $-1 $270 -11.296539384559301 $393 -3.1080281978489719 $262 $394 forward 7 unknown #
coedge $-1 $395 $396 $159 $265 forward $257 $-1 #
edge $-1 $397 -60.391006246643784 $269 -56.710858057995829 $264 $398 forward 7 unknown #
edge $-1 $270 86.971169476902716 $397 91.775261696218749 $160 $399 forward 7 unknown #
coedge $-1 $161 $389 $395 $400 forward $268 $-1 #
loop $-1 $-1 $389 $256 #
vertex $-1 $265 $401 #
vertex $-1 $162 $402 #
straight-curve $-1 28.599780329533083 18.498823175763437 12.19406588177754 -1 0 0 I I #
coedge $-1 $272 $272 $-1 $403 reversed $165 $-1 #
edge $-1 $404 0 $404 6.2831853071796004 $166 $405 forward 7 unknown #
vertex $-1 $169 $406 #
ellipse-curve $-1 44.343625394647184 14.404567582408273 10.353991787453563 0.7660444514056185 0 0.64278759981090561 0.3213937999054528 0 -0.38302222570280925 1 I I #
face $-1 $-1 $407 $36 $-1 $408 reversed single #
loop $-1 $-1 $176 $170 #
plane-surface $-1 0 0 12.194065881777542 0 0 1 1 0 0 forward_v I I I I #
coedge $-1 $409 $410 $411 $412 reversed $171 $-1 #
coedge $-1 $413 $173 $175 $286 forward $107 $-1 #
coedge $-1 $173 $413 $409 $414 forward $107 $-1 #
coedge $-1 $411 $176 $173 $283 forward $277 $-1 #
edge $-1 $289 -4.496305511343861 $415 3.692205675366468 $282 $416 forward 7 unknown #
coedge $-1 $417 $418 $174 $285 forward $407 $-1 #
edge $-1 $419 -25.239041247300303 $288 -21.558893058652338 $284 $420 forward 7 unknown #
edge $-1 $289 -4.8040922193160815 $419 -2.2742244199036027e-014 $175 $421 forward 7 unknown #
coedge $-1 $176 $411 $417 $422 forward $277 $-1 #
vertex $-1 $285 $423 #
vertex $-1 $177 $424 #
straight-curve $-1 -58.095780423398182 -4.8983554293325575 12.19406588177754 1 0 0 I I #
coedge $-1 $291 $291 $-1 $425 reversed $180 $-1 #
edge $-1 $426 0 $426 6.2831853071796004 $181 $427 forward 7 unknown #
vertex $-1 $184 $428 #
ellipse-curve $-1 -44.343625394647177 -0.80409983597739298 10.353991787453554 -0.7660444514056185 0 0.64278759981090561 0.3213937999054528 0 0.38302222570280925 1 I I #
face $-1 $-1 $429 $38 $-1 $430 reversed single #
loop $-1 $-1 $191 $185 #
plane-surface $-1 0 0 12.194065881777542 0 0 1 1 0 0 forward_v I I I I #
coedge $-1 $431 $432 $433 $434 reversed $186 $-1 #
coedge $-1 $435 $188 $190 $305 forward $116 $-1 #
coedge $-1 $188 $435 $431 $436 forward $116 $-1 #
coedge $-1 $433 $191 $188 $302 forward $296 $-1 #
edge $-1 $308 3.1080281978489719 $437 11.296539384559301 $301 $438 forward 7 unknown #
coedge $-1 $439 $440 $189 $304 forward $429 $-1 #
edge $-1 $441 -25.239041247300303 $307 -21.558893058652338 $303 $442 forward 7 unknown #
edge $-1 $308 -4.8040922193160815 $441 -2.2742244199036027e-014 $190 $443 forward 7 unknown #
coedge $-1 $191 $433 $439 $444 forward $296 $-1 #
vertex $-1 $192 $445 #
vertex $-1 $192 $446 #
straight-curve $-1 -58.095780423398182 10.310311989053108 12.19406588177754 1 0 0 I I #
coedge $-1 $310 $310 $-1 $447 reversed $195 $-1 #
edge $-1 $448 0 $448 6.2831853071796004 $196 $449 forward 7 unknown #
vertex $-1 $199 $450 #
ellipse-curve $-1 -44.343625394647177 14.404567582408273 10.353991787453554 -0.7660444514056185 0 0.64278759981090561 0.3213937999054528 0 0.38302222570280925 1 I I #
face $-1 $-1 $215 $30 $-1 $451 reversed single #
loop $-1 $-1 $330 $200 #
plane-surface $-1 0 26.654233769709332 0 0 -1 0 0 0 -1 forward_v I I I I #
coedge $-1 $452 $328 $331 $453 forward $201 $-1 #
coedge $-1 $334 $203 $204 $322 reversed $125 $-1 #
coedge $-1 $328 $452 $203 $320 reversed $201 $-1 #
edge $-1 $335 -12.194065881777542 $454 12.194065881777542 $319 $455 forward 7 unknown #
coedge $-1 $205 $204 $452 $456 forward $81 $-1 #
edge $-1 $326 -45.887630848109382 $454 45.887630848109382 $318 $457 forward 7 unknown #
coedge $-1 $331 $330 $205 $324 reversed $315 $-1 #
edge $-1 $458 -45.887630848109382 $325 45.887630848109382 $323 $459 forward 7 unknown #
vertex $-1 $207 $460 #
vertex $-1 $337 $461 #
straight-curve $-1 45.887630848109382 0 -12.194065881777542 0 -1 0 I I #
coedge $-1 $317 $319 $208 $329 reversed $201 $-1 #
edge $-1 $332 -26.654233769709332 $335 26.654233769709332 $328 $462 forward 7 unknown #
coedge $-1 $323 $209 $214 $338 forward $315 $-1 #
coedge $-1 $209 $323 $317 $453 reversed $315 $-1 #
vertex $-1 $210 $463 #
straight-curve $-1 0 26.654233769709332 12.194065881777542 -1 0 0 I I #
coedge $-1 $211 $318 $213 $337 reversed $125 $-1 #
vertex $-1 $329 $464 #
straight-curve $-1 0 -26.654233769709332 12.194065881777542 1 0 0 I I #
edge $-1 $216 -12.194065881777542 $326 12.194065881777542 $213 $465 forward 7 unknown #
edge $-1 $217 -12.194065881777542 $325 12.194065881777542 $214 $466 forward 7 unknown #
point $-1 45.887630848109382 -26.654233769709332 12.194065881777542 #
point $-1 45.887630848109382 26.654233769709332 12.194065881777542 #
face $-1 $-1 $232 $31 $-1 $467 reversed single #
loop $-1 $-1 $348 $219 #
plane-surface $-1 0 0 12.194065881777542 0 0 1 1 0 0 forward_v I I I I #
coedge $-1 $468 $222 $227 $353 forward $133 $-1 #
coedge $-1 $222 $468 $469 $470 reversed $133 $-1 #
coedge $-1 $224 $223 $222 $347 reversed $85 $-1 #
edge $-1 $471 -7.3639065874856877 $358 -2.2964120010980169 $222 $472 forward 7 unknown #
coedge $-1 $469 $473 $224 $349 forward $342 $-1 #
edge $-1 $351 -45.887630848109382 $471 45.887630848109382 $348 $474 forward 7 unknown #
coedge $-1 $231 $225 $473 $475 reversed $232 $-1 #
vertex $-1 $226 $476 #
straight-curve $-1 45.887630848109382 -13.053766023278445 4.8301592942918523 0 0 1 I I #
edge $-1 $358 3.1267660750315009 $356 16.727233821462388 $344 $477 forward 7 unknown #
coedge $-1 $478 $228 $231 $360 reversed $220 $-1 #
coedge $-1 $228 $478 $468 $479 forward $220 $-1 #
vertex $-1 $229 $480 #
straight-curve $-1 0 -26.654233769709332 7.1265712953898692 1 0 0 I I #
vertex $-1 $353 $481 #
straight-curve $-1 0 -13.053766023278445 7.1265712953898692 1 0 0 I I #
edge $-1 $482 -12.194065881777542 $233 -7.1265712953898692 $231 $483 forward 7 unknown #
point $-1 45.887630848109382 -26.654233769709332 7.1265712953898692 #
point $-1 45.887630848109382 -13.053766023278445 7.1265712953898692 #
plane-surface $-1 0 0 12.194065881777542 0 0 1 1 0 0 forward_v I I I I #
coedge $-1 $374 $373 $366 $484 forward $237 $-1 #
coedge $-1 $366 $239 $241 $370 reversed $141 $-1 #
coedge $-1 $239 $365 $364 $484 reversed $141 $-1 #
coedge $-1 $247 $242 $239 $368 forward $248 $-1 #
edge $-1 $371 14.199839611651889 $485 17.287850518576299 $367 $486 forward 7 unknown #
coedge $-1 $241 $240 $374 $487 reversed $89 $-1 #
edge $-1 $488 -91.775261696218749 $371 -86.971169476902716 $365 $489 forward 7 unknown #
vertex $-1 $243 $490 #
straight-curve $-1 42.799619941184979 -0.40204991798869649 12.194065881777533 0 -1 0 I I #
coedge $-1 $364 $244 $247 $378 reversed $237 $-1 #
coedge $-1 $244 $364 $369 $487 forward $237 $-1 #
vertex $-1 $245 $491 #
straight-curve $-1 45.887630848109382 3.2901557573777716 68.904923939773369 0 0 1 I I #
straight-curve $-1 -13.104369339620803 3.2901557573777716 78.817847691816539 0.64278759981090561 0 -0.7660444514056185 I I #
edge $-1 $485 -4.8983554293325575 $249 3.2901557573777716 $373 $492 forward 7 unknown #
point $-1 45.887630848109382 3.2901557573777716 12.194065881777542 #
point $-1 42.799619941184972 3.2901557573777716 12.194065881777547 #
edge $-1 $493 1 $493 0 $252 $-1 forward 7 unknown #
vertex $-1 $253 $494 #
ellipse-curve $-1 43.164178311502127 -0.80409983597739298 9.3643182009042718 0.7660444514056185 0 0.64278759981090561 0.3213937999054528 0 -0.38302222570280925 1 I I #
point $-1 44.66501919455262 -0.80409983597739298 9.9709695617507386 #
plane-surface $-1 0 0 12.194065881777542 0 0 1 1 0 0 forward_v I I I I #
coedge $-1 $396 $395 $388 $495 forward $257 $-1 #
coedge $-1 $388 $259 $261 $392 reversed $156 $-1 #
coedge $-1 $259 $387 $386 $495 reversed $156 $-1 #
coedge $-1 $267 $262 $259 $390 forward $268 $-1 #
edge $-1 $393 14.199839611651889 $496 17.287850518576299 $389 $497 forward 7 unknown #
coedge $-1 $261 $260 $396 $498 reversed $98 $-1 #
edge $-1 $499 -91.775261696218749 $393 -86.971169476902716 $387 $500 forward 7 unknown #
vertex $-1 $263 $501 #
straight-curve $-1 42.799619941184979 7.2022837912041364 12.194065881777533 0 -1 0 I I #
coedge $-1 $386 $264 $267 $400 reversed $257 $-1 #
coedge $-1 $264 $386 $391 $498 forward $257 $-1 #
vertex $-1 $265 $502 #
straight-curve $-1 45.887630848109382 18.498823175763437 68.904923939773369 0 0 1 I I #
straight-curve $-1 -13.104369339620803 18.498823175763437 78.817847691816539 0.64278759981090561 0 -0.7660444514056185 I I #
edge $-1 $496 10.310311989053108 $269 18.498823175763437 $395 $503 forward 7 unknown #
point $-1 45.887630848109382 18.498823175763437 12.194065881777542 #
point $-1 42.799619941184972 18.498823175763437 12.194065881777547 #
edge $-1 $504 1 $504 0 $272 $-1 forward 7 unknown #
vertex $-1 $273 $505 #
ellipse-curve $-1 43.164178311502127 14.404567582408273 9.3643182009042718 0.7660444514056185 0 0.64278759981090561 0.3213937999054528 0 -0.38302222570280925 1 I I #
point $-1 44.66501919455262 14.404567582408273 9.9709695617507386 #
loop $-1 $-1 $284 $276 #
plane-surface $-1 -45.887630848109382 0 0 1 0 0 0 0 -1 forward_v I I I I #
coedge $-1 $410 $279 $281 $414 reversed $171 $-1 #
coedge $-1 $279 $409 $506 $507 reversed $171 $-1 #
coedge $-1 $287 $282 $279 $412 forward $277 $-1 #
edge $-1 $415 -15.296160482213217 $508 -12.2081495752888 $411 $509 forward 7 unknown #
coedge $-1 $281 $280 $418 $510 reversed $107 $-1 #
edge $-1 $511 2.2742244199036027e-014 $415 4.8040922193160815 $409 $512 forward 7 unknown #
vertex $-1 $283 $513 #
straight-curve $-1 -42.799619941184964 -0.40204991798869649 12.194065881777542 0 1 0 I I #
coedge $-1 $506 $284 $287 $422 reversed $407 $-1 #
coedge $-1 $284 $506 $413 $510 forward $407 $-1 #
vertex $-1 $285 $514 #
straight-curve $-1 -45.887630848109382 -4.8983554293325575 33.752958940429878 0 0 1 I I #
straight-curve $-1 -45.887630848109396 -4.8983554293325575 8.5139176931295566 -0.64278759981090561 0 -0.7660444514056185 I I #
edge $-1 $508 -3.2901557573777716 $288 4.8983554293325575 $417 $515 forward 7 unknown #
point $-1 -45.887630848109382 -4.8983554293325575 12.194065881777542 #
point $-1 -42.799619941184964 -4.8983554293325575 12.194065881777542 #
edge $-1 $516 1 $516 0 $291 $-1 forward 7 unknown #
vertex $-1 $292 $517 #
ellipse-curve $-1 -43.164178311502127 -0.80409983597739298 9.3643182009042718 -0.7660444514056185 0 0.64278759981090561 0.3213937999054528 0 0.38302222570280925 1 I I #
point $-1 -44.022231594741712 -0.80409983597739298 10.737014013156358 #
loop $-1 $-1 $303 $295 #
plane-surface $-1 -45.887630848109382 0 0 1 0 0 0 0 -1 forward_v I I I I #
coedge $-1 $432 $298 $300 $436 reversed $186 $-1 #
coedge $-1 $298 $431 $518 $519 reversed $186 $-1 #
coedge $-1 $306 $301 $298 $434 forward $296 $-1 #
edge $-1 $437 -15.296160482213217 $520 -12.2081495752888 $433 $521 forward 7 unknown #
coedge $-1 $300 $299 $440 $522 reversed $116 $-1 #
edge $-1 $523 2.2742244199036027e-014 $437 4.8040922193160815 $431 $524 forward 7 unknown #
vertex $-1 $302 $525 #
straight-curve $-1 -42.799619941184964 7.2022837912041364 12.194065881777542 0 1 0 I I #
coedge $-1 $518 $303 $306 $444 reversed $429 $-1 #
coedge $-1 $303 $518 $435 $522 forward $429 $-1 #
vertex $-1 $304 $526 #
straight-curve $-1 -45.887630848109382 10.310311989053108 33.752958940429878 0 0 1 I I #
straight-curve $-1 -45.887630848109396 10.310311989053108 8.5139176931295566 -0.64278759981090561 0 -0.7660444514056185 I I #
edge $-1 $520 -18.498823175763437 $307 -10.310311989053108 $439 $527 forward 7 unknown #
point $-1 -45.887630848109382 10.310311989053108 12.194065881777542 #
point $-1 -42.799619941184964 10.310311989053108 12.194065881777542 #
edge $-1 $528 1 $528 0 $310 $-1 forward 7 unknown #
vertex $-1 $311 $529 #
ellipse-curve $-1 -43.164178311502127 14.404567582408273 9.3643182009042718 -0.7660444514056185 0 0.64278759981090561 0.3213937999054528 0 0.38302222570280925 1 I I #
point $-1 -44.022231594741712 14.404567582408273 10.737014013156358 #
plane-surface $-1 45.887630848109382 0 0 -1 0 0 0 0 1 forward_v I I I I #
coedge $-1 $319 $317 $321 $456 reversed $201 $-1 #
edge $-1 $332 -12.194065881777542 $458 12.194065881777542 $331 $530 forward 7 unknown #
vertex $-1 $456 $531 #
straight-curve $-1 -45.887630848109382 -26.654233769709332 0 0 0 -1 I I #
edge $-1 $454 -26.654233769709332 $458 26.654233769709332 $452 $532 forward 7 unknown #
straight-curve $-1 0 -26.654233769709332 -12.194065881777542 -1 0 0 I I #
vertex $-1 $324 $533 #
straight-curve $-1 0 26.654233769709332 -12.194065881777542 1 0 0 I I #
point $-1 45.887630848109382 26.654233769709332 -12.194065881777542 #
point $-1 45.887630848109382 -26.654233769709332 -12.194065881777542 #
straight-curve $-1 -45.887630848109382 0 12.194065881777542 0 -1 0 I I #
point $-1 -45.887630848109382 26.654233769709332 12.194065881777542 #
point $-1 -45.887630848109382 -26.654233769709332 12.194065881777542 #
straight-curve $-1 45.887630848109382 -26.654233769709332 0 0 0 -1 I I #
straight-curve $-1 45.887630848109382 26.654233769709332 0 0 0 -1 I I #
plane-surface $-1 45.887630848109382 0 0 -1 0 0 0 0 1 forward_v I I I I #
coedge $-1 $345 $344 $355 $479 reversed $133 $-1 #
coedge $-1 $534 $348 $345 $470 forward $342 $-1 #
edge $-1 $471 13.053766023278445 $535 26.654233769709332 $345 $536 forward 7 unknown #
vertex $-1 $470 $537 #
straight-curve $-1 -45.887630848109382 -13.053766023278445 4.8301592942918523 0 0 -1 I I #
coedge $-1 $348 $534 $350 $475 forward $342 $-1 #
straight-curve $-1 0 -13.053766023278445 12.194065881777542 -1 0 0 I I #
edge $-1 $482 -26.654233769709332 $351 -13.053766023278445 $350 $538 forward 7 unknown #
point $-1 45.887630848109382 -13.053766023278445 12.19406588177754 #
straight-curve $-1 -45.887630848109382 -9.9269999482469444 7.1265712953898692 0 -1 0 I I #
coedge $-1 $355 $354 $534 $539 reversed $220 $-1 #
edge $-1 $535 -12.194065881777542 $356 -7.1265712953898692 $468 $540 forward 7 unknown #
point $-1 -45.887630848109382 -26.654233769709332 7.1265712953898692 #
point $-1 -45.887630848109382 -13.053766023278445 7.1265712953898692 #
vertex $-1 $475 $541 #
straight-curve $-1 45.887630848109382 -26.654233769709332 0 0 0 -1 I I #
edge $-1 $485 56.710858057995829 $488 60.391006246643784 $364 $542 forward 7 unknown #
vertex $-1 $378 $543 #
straight-curve $-1 28.599780329533083 -4.8983554293325575 12.19406588177754 1 0 0 I I #
edge $-1 $488 -4.496305511343861 $375 3.692205675366468 $374 $544 forward 7 unknown #
vertex $-1 $487 $545 #
straight-curve $-1 -13.104369339620803 -4.8983554293325575 78.817847691816539 -0.64278759981090561 0 0.7660444514056185 I I #
point $-1 42.799619941184972 -4.8983554293325575 12.194065881777547 #
point $-1 45.887630848109382 3.2901557573777716 8.513917693129585 #
straight-curve $-1 45.887630848109382 0 12.194065881777542 0 1 0 I I #
vertex $-1 $381 $546 #
point $-1 43.485572111407585 -0.80409983597739298 8.9812959752014621 #
edge $-1 $496 56.710858057995829 $499 60.391006246643784 $386 $547 forward 7 unknown #
vertex $-1 $400 $548 #
straight-curve $-1 28.599780329533083 10.310311989053108 12.19406588177754 1 0 0 I I #
edge $-1 $499 3.1080281978489719 $397 11.296539384559301 $396 $549 forward 7 unknown #
vertex $-1 $498 $550 #
straight-curve $-1 -13.104369339620803 10.310311989053108 78.817847691816539 -0.64278759981090561 0 0.7660444514056185 I I #
point $-1 42.799619941184972 10.310311989053108 12.194065881777547 #
point $-1 45.887630848109382 18.498823175763437 8.513917693129585 #
straight-curve $-1 45.887630848109382 0 12.194065881777542 0 1 0 I I #
vertex $-1 $403 $551 #
point $-1 43.485572111407585 14.404567582408273 8.9812959752014621 #
coedge $-1 $418 $417 $410 $507 forward $407 $-1 #
edge $-1 $508 21.558893058652338 $511 25.239041247300303 $506 $552 forward 7 unknown #
vertex $-1 $422 $553 #
straight-curve $-1 -58.095780423398182 3.2901557573777716 12.19406588177754 -1 0 0 I I #
edge $-1 $511 -3.692205675366468 $419 4.496305511343861 $418 $554 forward 7 unknown #
vertex $-1 $510 $555 #
straight-curve $-1 -45.887630848109396 3.2901557573777716 8.5139176931295566 0.64278759981090561 0 0.7660444514056185 I I #
point $-1 -42.799619941184964 3.2901557573777716 12.194065881777542 #
point $-1 -45.887630848109382 -4.8983554293325575 8.5139176931295744 #
straight-curve $-1 -45.887630848109382 0 12.194065881777542 0 -1 0 I I #
vertex $-1 $425 $556 #
point $-1 -42.842784511596676 -0.80409983597739298 9.7473404266070798 #
coedge $-1 $440 $439 $432 $519 forward $429 $-1 #
edge $-1 $520 21.558893058652338 $523 25.239041247300303 $518 $557 forward 7 unknown #
vertex $-1 $444 $558 #
straight-curve $-1 -58.095780423398182 18.498823175763437 12.19406588177754 -1 0 0 I I #
edge $-1 $523 -11.296539384559301 $441 -3.1080281978489719 $440 $559 forward 7 unknown #
vertex $-1 $522 $560 #
straight-curve $-1 -45.887630848109396 18.498823175763437 8.5139176931295566 0.64278759981090561 0 0.7660444514056185 I I #
point $-1 -42.799619941184964 18.498823175763437 12.194065881777542 #
point $-1 -45.887630848109382 10.310311989053108 8.5139176931295744 #
straight-curve $-1 -45.887630848109382 0 12.194065881777542 0 -1 0 I I #
vertex $-1 $447 $561 #
point $-1 -42.842784511596676 14.404567582408273 9.7473404266070798 #
straight-curve $-1 -45.887630848109382 26.654233769709332 0 0 0 -1 I I #
point $-1 -45.887630848109382 -26.654233769709332 -12.194065881777542 #
straight-curve $-1 -45.887630848109382 0 -12.194065881777542 0 1 0 I I #
point $-1 -45.887630848109382 26.654233769709332 -12.194065881777542 #
coedge $-1 $473 $469 $478 $539 forward $342 $-1 #
vertex $-1 $470 $562 #
straight-curve $-1 -45.887630848109382 0 12.194065881777542 0 -1 0 I I #
point $-1 -45.887630848109382 -13.053766023278445 12.19406588177754 #
straight-curve $-1 45.887630848109382 0 12.194065881777542 0 1 0 I I #
edge $-1 $535 -45.887630848109382 $482 45.887630848109382 $478 $563 forward 7 unknown #
straight-curve $-1 -45.887630848109382 -26.654233769709332 0 0 0 -1 I I #
point $-1 45.887630848109382 -26.654233769709332 12.194065881777542 #
straight-curve $-1 45.887630848109382 -4.8983554293325575 68.904923939773369 0 0 -1 I I #
point $-1 45.887630848109382 -4.8983554293325575 12.194065881777542 #
straight-curve $-1 45.887630848109382 -0.40204991798869649 8.513917693129585 0 1 0 I I #
point $-1 45.887630848109382 -4.8983554293325575 8.513917693129585 #
point $-1 42.781156085799324 -0.80409983597739298 9.0429244009988174 #
straight-curve $-1 45.887630848109382 10.310311989053108 68.904923939773369 0 0 -1 I I #
point $-1 45.887630848109382 10.310311989053108 12.194065881777542 #
straight-curve $-1 45.887630848109382 7.2022837912041364 8.513917693129585 0 1 0 I I #
point $-1 45.887630848109382 10.310311989053108 8.513917693129585 #
point $-1 42.781156085799324 14.404567582408273 9.0429244009988174 #
straight-curve $-1 -45.887630848109382 3.2901557573777716 33.752958940429878 0 0 -1 I I #
point $-1 -45.887630848109382 3.2901557573777716 12.194065881777542 #
straight-curve $-1 -45.887630848109382 -0.40204991798869649 8.5139176931295708 0 -1 0 I I #
point $-1 -45.887630848109382 3.2901557573777716 8.5139176931295744 #
point $-1 -42.781156085799324 -0.80409983597739298 9.0429244009988174 #
straight-curve $-1 -45.887630848109382 18.498823175763437 33.752958940429878 0 0 -1 I I #
point $-1 -45.887630848109382 18.498823175763437 12.194065881777542 #
straight-curve $-1 -45.887630848109382 7.2022837912041364 8.5139176931295708 0 -1 0 I I #
point $-1 -45.887630848109382 18.498823175763437 8.5139176931295744 #
point $-1 -42.781156085799324 14.404567582408273 9.0429244009988174 #
point $-1 -45.887630848109382 -26.654233769709332 12.194065881777542 #
straight-curve $-1 0 -26.654233769709332 12.194065881777542 1 0 0 I I #
End-of-ACIS-data 