500 0 13 0           
7 Unknown 11 ACIS 5.0 NT 24 Fri Mar 26 15:39:09 1999 
-1 9.9999999999999995e-007 1e-010 
body $-1 $13 $-1 $14 #
body $-1 $15 $-1 $16 #
body $-1 $17 $-1 $18 #
body $-1 $19 $-1 $20 #
body $-1 $21 $-1 $22 #
body $-1 $23 $-1 $24 #
body $-1 $25 $-1 $26 #
body $-1 $27 $-1 $28 #
body $-1 $29 $-1 $30 #
body $-1 $31 $-1 $32 #
body $-1 $33 $-1 $34 #
body $-1 $35 $-1 $36 #
body $-1 $37 $-1 $38 #
lump $-1 $-1 $39 $0 #
transform $-1 1 0 0 0 1 0 0 0 1 50.326242866298408 21.457499125232147 6.8029839598494428 1 rotate no_reflect no_shear #
lump $-1 $-1 $40 $1 #
transform $-1 1 0 0 0 1 0 0 0 1 50.326242866298408 21.457499125232147 6.8029839598494428 1 rotate no_reflect no_shear #
lump $-1 $-1 $41 $2 #
transform $-1 1 0 0 0 1 0 0 0 1 50.326242866298408 21.457499125232147 6.8029839598494428 1 rotate no_reflect no_shear #
lump $-1 $-1 $42 $3 #
transform $-1 1 0 0 0 1 0 0 0 1 50.326242866298408 21.457499125232147 6.8029839598494428 1 rotate no_reflect no_shear #
lump $-1 $-1 $43 $4 #
transform $-1 1 0 0 0 1 0 0 0 1 50.326242866298408 21.457499125232147 6.8029839598494428 1 rotate no_reflect no_shear #
lump $-1 $-1 $44 $5 #
transform $-1 1 0 0 0 1 0 0 0 1 50.326242866298408 21.457499125232147 6.8029839598494428 1 rotate no_reflect no_shear #
lump $-1 $-1 $45 $6 #
transform $-1 1 0 0 0 1 0 0 0 1 50.326242866298408 21.457499125232147 6.8029839598494428 1 rotate no_reflect no_shear #
lump $-1 $-1 $46 $7 #
transform $-1 1 0 0 0 1 0 0 0 1 50.326242866298408 21.457499125232147 6.8029839598494428 1 rotate no_reflect no_shear #
lump $-1 $-1 $47 $8 #
transform $-1 1 0 0 0 1 0 0 0 1 50.326242866298408 21.457499125232147 6.8029839598494428 1 rotate no_reflect no_shear #
lump $-1 $-1 $48 $9 #
transform $-1 1 0 0 0 1 0 0 0 1 50.326242866298408 21.457499125232147 6.8029839598494428 1 rotate no_reflect no_shear #
lump $-1 $-1 $49 $10 #
transform $-1 1 0 0 0 1 0 0 0 1 50.326242866298408 21.457499125232147 6.8029839598494428 1 rotate no_reflect no_shear #
lump $-1 $-1 $50 $11 #
transform $-1 1 0 0 0 1 0 0 0 1 50.326242866298408 21.457499125232147 6.8029839598494428 1 rotate no_reflect no_shear #
lump $-1 $-1 $51 $12 #
transform $-1 1 0 0 0 1 0 0 0 1 50.326242866298408 21.457499125232147 6.8029839598494428 1 rotate no_reflect no_shear #
shell $-1 $-1 $-1 $52 $-1 $13 #
shell $-1 $-1 $-1 $53 $-1 $15 #
shell $-1 $-1 $-1 $54 $-1 $17 #
shell $-1 $-1 $-1 $55 $-1 $19 #
shell $-1 $-1 $-1 $56 $-1 $21 #
shell $-1 $-1 $-1 $57 $-1 $23 #
shell $-1 $-1 $-1 $58 $-1 $25 #
shell $-1 $-1 $-1 $59 $-1 $27 #
shell $-1 $-1 $-1 $60 $-1 $29 #
shell $-1 $-1 $-1 $61 $-1 $31 #
shell $-1 $-1 $-1 $62 $-1 $33 #
shell $-1 $-1 $-1 $63 $-1 $35 #
shell $-1 $-1 $-1 $64 $-1 $37 #
face $-1 $65 $66 $39 $-1 $67 forward single #
face $-1 $68 $69 $40 $-1 $70 reversed single #
face $-1 $71 $72 $41 $-1 $73 forward single #
face $-1 $74 $75 $42 $-1 $76 reversed single #
face $-1 $77 $78 $43 $-1 $79 forward single #
face $-1 $80 $81 $44 $-1 $82 reversed single #
face $-1 $83 $84 $45 $-1 $85 forward single #
face $-1 $86 $87 $46 $-1 $88 reversed single #
face $-1 $89 $90 $47 $-1 $91 forward single #
face $-1 $92 $93 $48 $-1 $94 forward single #
face $-1 $95 $96 $49 $-1 $97 reversed single #
face $-1 $98 $99 $50 $-1 $100 forward single #
face $-1 $101 $102 $51 $-1 $103 forward single #
face $-1 $104 $105 $39 $-1 $106 reversed single #
loop $-1 $-1 $107 $52 #
plane-surface $-1 0 0 6.8029839598494428 0 0 1 1 0 0 forward_v I I I I #
face $-1 $108 $109 $40 $-1 $110 reversed single #
loop $-1 $-1 $111 $53 #
plane-surface $-1 -46.737569690393542 0 3.8029839598494428 0 0 1 1 0 0 forward_v I I I I #
face $-1 $112 $113 $41 $-1 $114 reversed single #
loop $-1 $-1 $115 $54 #
plane-surface $-1 50.326242866298408 0 0 -1 0 0 0 0 1 forward_v I I I I #
face $-1 $116 $117 $42 $-1 $118 reversed single #
loop $-1 $-1 $119 $55 #
plane-surface $-1 -17.041807480186417 76.015259036253482 96.765301347873915 1 0 0 0 -0.79863551827123203 -0.60181501223851219 forward_v I I I I #
face $-1 $120 $121 $43 $-1 $122 forward single #
loop $-1 $123 $124 $56 #
cone-surface $-1 -8.9632959716519949 18.655253620375966 3.6357336153417421 0 -0.79863551827123203 -0.60181501223851219 1.5 0 0 1 I I 0 1 1.5 forward I I I I #
face $-1 $125 $126 $44 $-1 $127 reversed single #
loop $-1 $-1 $128 $57 #
plane-surface $-1 25.222304571184683 76.015259036253482 96.765301347873915 1 0 0 0 -0.79863551827123203 -0.60181501223851219 forward_v I I I I #
face $-1 $129 $130 $45 $-1 $131 forward single #
loop $-1 $132 $133 $58 #
cone-surface $-1 33.300816079719105 18.655253620375966 3.6357336153417421 0 -0.79863551827123203 -0.60181501223851219 1.5 0 0 1 I I 0 1 1.5 forward I I I I #
face $-1 $134 $135 $46 $-1 $136 reversed single #
loop $-1 $-1 $137 $59 #
plane-surface $-1 -0.88478446311757253 -84.80016159316969 81.247741095504168 -1 0 0 0 -0.62932039886446345 0.77714595512881146 forward_v I I I I #
face $-1 $138 $139 $47 $-1 $140 forward single #
loop $-1 $141 $142 $60 #
cone-surface $-1 -12.570069143722954 -17.927997625861966 3.4357979701650887 0 0.62932039886446345 -0.77714595512881146 1 0 0 1 I I 0 1 1 forward I I I I #
face $-1 $143 $144 $48 $-1 $145 forward single #
loop $-1 $146 $147 $61 #
cone-surface $-1 -5.5588983353597214 -17.927997625861966 3.4357979701650887 0 0.62932039886446345 -0.77714595512881146 1 0 0 1 I I 0 1 1 forward I I I I #
face $-1 $148 $149 $49 $-1 $150 reversed single #
loop $-1 $-1 $151 $62 #
plane-surface $-1 -9.0644837395413376 -21.457499125232147 3.0260689347561538 0 -0.62932039886446345 0.77714595512881146 1 0 0 forward_v I I I I #
face $-1 $152 $153 $50 $-1 $154 forward single #
loop $-1 $155 $156 $63 #
cone-surface $-1 3.7893294091245764 -17.927997625861966 3.4357979701650887 0 0.62932039886446345 -0.77714595512881146 1 0 0 1 I I 0 1 1 forward I I I I #
face $-1 $157 $158 $51 $-1 $159 forward single #
loop $-1 $160 $161 $64 #
cone-surface $-1 10.800500217487809 -17.927997625861966 3.4357979701650887 0 0.62932039886446345 -0.77714595512881146 1 0 0 1 I I 0 1 1 forward I I I I #
face $-1 $162 $163 $39 $-1 $164 reversed single #
loop $-1 $-1 $165 $65 #
plane-surface $-1 0 0 -6.8029839598494428 0 0 1 1 0 0 forward_v I I I I #
coedge $-1 $166 $167 $168 $169 forward $66 $-1 #
face $-1 $170 $171 $40 $-1 $172 reversed single #
loop $-1 $-1 $173 $68 #
plane-surface $-1 -43.148896514488676 0 5.3029839598494428 -1 0 0 0 0 1 forward_v I I I I #
coedge $-1 $174 $175 $176 $177 forward $69 $-1 #
face $-1 $178 $179 $41 $-1 $180 reversed single #
loop $-1 $-1 $181 $71 #
plane-surface $-1 0 0 -6.8029839598494428 0 0 1 1 0 0 forward_v I I I I #
coedge $-1 $182 $183 $184 $185 forward $72 $-1 #
face $-1 $186 $187 $42 $-1 $188 reversed single #
loop $-1 $-1 $189 $74 #
plane-surface $-1 -8.9632959716519949 -4.3693910720867564 36.191124414874487 0 0.79863551827123203 0.60181501223851219 1 0 0 forward_v I I I I #
coedge $-1 $190 $191 $192 $193 reversed $75 $-1 #
face $-1 $-1 $194 $43 $-1 $195 forward single #
loop $-1 $196 $197 $77 #
cone-surface $-1 -8.9632959716519949 17.094700757858455 2.4597727188269145 0 -0.79863551827123203 -0.60181501223851219 0.75 0 0 1 I I -0.70710678118654757 0.70710678118654757 0.75 forward I I I I #
loop $-1 $-1 $198 $56 #
coedge $-1 $124 $124 $199 $200 reversed $78 $-1 #
face $-1 $201 $202 $44 $-1 $203 reversed single #
loop $-1 $-1 $204 $80 #
plane-surface $-1 33.300816079719105 -4.3693910720867564 36.191124414874487 0 0.79863551827123203 0.60181501223851219 1 0 0 forward_v I I I I #
coedge $-1 $205 $206 $207 $208 reversed $81 $-1 #
face $-1 $-1 $209 $45 $-1 $210 forward single #
loop $-1 $211 $212 $83 #
cone-surface $-1 33.300816079719105 17.094700757858455 2.4597727188269145 0 -0.79863551827123203 -0.60181501223851219 0.75 0 0 1 I I -0.70710678118654757 0.70710678118654757 0.75 forward I I I I #
loop $-1 $-1 $213 $58 #
coedge $-1 $133 $133 $214 $215 reversed $84 $-1 #
face $-1 $216 $217 $46 $-1 $218 reversed single #
loop $-1 $-1 $219 $86 #
plane-surface $-1 -9.0644837395413376 -21.457499125232147 3.0260689347561538 0 -0.62932039886446345 0.77714595512881146 1 0 0 forward_v I I I I #
coedge $-1 $220 $221 $222 $223 reversed $87 $-1 #
face $-1 $-1 $224 $47 $-1 $225 forward single #
loop $-1 $226 $227 $89 #
cone-surface $-1 -12.570069143722954 -16.415886691592807 1.5684965154629795 0 0.62932039886446345 -0.77714595512881146 0.5 0 0 1 I I -0.70710678118654746 0.70710678118654746 0.5 forward I I I I #
loop $-1 $-1 $228 $60 #
coedge $-1 $142 $142 $229 $230 reversed $90 $-1 #
face $-1 $-1 $231 $48 $-1 $232 forward single #
loop $-1 $233 $234 $92 #
cone-surface $-1 -5.5588983353597214 -16.415886691592807 1.5684965154629795 0 0.62932039886446345 -0.77714595512881146 0.5 0 0 1 I I -0.70710678118654746 0.70710678118654746 0.5 forward I I I I #
loop $-1 $-1 $235 $61 #
coedge $-1 $147 $147 $236 $237 reversed $93 $-1 #
face $-1 $238 $239 $49 $-1 $240 reversed single #
loop $-1 $-1 $241 $95 #
plane-surface $-1 15.474614089729958 -84.80016159316969 81.247741095504168 -1 0 0 0 -0.62932039886446345 0.77714595512881146 forward_v I I I I #
coedge $-1 $242 $243 $244 $245 reversed $96 $-1 #
face $-1 $-1 $246 $50 $-1 $247 forward single #
loop $-1 $248 $249 $98 #
cone-surface $-1 3.7893294091245764 -16.415886691592807 1.5684965154629795 0 0.62932039886446345 -0.77714595512881146 0.5 0 0 1 I I -0.70710678118654746 0.70710678118654746 0.5 forward I I I I #
loop $-1 $-1 $250 $63 #
coedge $-1 $156 $156 $251 $252 reversed $99 $-1 #
face $-1 $-1 $253 $51 $-1 $254 forward single #
loop $-1 $255 $256 $101 #
cone-surface $-1 10.800500217487809 -16.415886691592807 1.5684965154629795 0 0.62932039886446345 -0.77714595512881146 0.5 0 0 1 I I -0.70710678118654746 0.70710678118654746 0.5 forward I I I I #
loop $-1 $-1 $257 $64 #
coedge $-1 $161 $161 $258 $259 reversed $102 $-1 #
face $-1 $260 $261 $39 $-1 $262 reversed single #
loop $-1 $-1 $263 $104 #
plane-surface $-1 0 -21.457499125232147 0 0 1 0 0 0 1 forward_v I I I I #
coedge $-1 $264 $265 $266 $267 forward $105 $-1 #
coedge $-1 $268 $107 $269 $270 forward $66 $-1 #
coedge $-1 $107 $268 $271 $272 forward $66 $-1 #
coedge $-1 $273 $274 $107 $169 reversed $275 $-1 #
edge $-1 $276 -21.457499125232147 $277 21.457499125232147 $168 $278 forward 7 unknown #
face $-1 $279 $280 $40 $-1 $281 reversed single #
loop $-1 $-1 $282 $108 #
plane-surface $-1 0 21.457499125232147 0 0 -1 0 0 0 -1 forward_v I I I I #
coedge $-1 $176 $283 $284 $285 reversed $109 $-1 #
coedge $-1 $286 $111 $287 $288 reversed $69 $-1 #
coedge $-1 $111 $286 $289 $290 reversed $69 $-1 #
coedge $-1 $291 $173 $111 $177 reversed $109 $-1 #
edge $-1 $292 -21.457499125232147 $293 21.457499125232147 $176 $294 forward 7 unknown #
face $-1 $295 $296 $41 $-1 $297 reversed single #
loop $-1 $-1 $184 $112 #
plane-surface $-1 54.79970050532085 -12.399660714405059 0 0 1 0 0 0 1 forward_v I I I I #
coedge $-1 $298 $299 $183 $300 forward $113 $-1 #
coedge $-1 $301 $115 $302 $303 reversed $72 $-1 #
coedge $-1 $115 $301 $181 $300 reversed $72 $-1 #
coedge $-1 $304 $305 $115 $185 reversed $179 $-1 #
edge $-1 $306 -6.8029839598494428 $307 6.8029839598494428 $184 $308 forward 7 unknown #
face $-1 $309 $310 $42 $-1 $311 reversed single #
loop $-1 $-1 $312 $116 #
plane-surface $-1 -0.88478446311757253 76.015259036253482 96.765301347873915 -1 0 0 0 0.79863551827123203 0.60181501223851219 forward_v I I I I #
coedge $-1 $313 $314 $315 $316 reversed $117 $-1 #
coedge $-1 $191 $119 $317 $318 reversed $75 $-1 #
coedge $-1 $119 $190 $313 $319 reversed $75 $-1 #
coedge $-1 $315 $320 $119 $193 forward $321 $-1 #
edge $-1 $322 16.550130392894594 $323 20.231468954978777 $192 $324 forward 7 unknown #
loop $-1 $-1 $199 $120 #
plane-surface $-1 -8.9632959716519949 -4.3693910720867564 36.191124414874487 0 0.79863551827123203 0.60181501223851219 1 0 0 forward_v I I I I #
loop $-1 $-1 $325 $77 #
coedge $-1 $197 $197 $198 $326 reversed $121 $-1 #
coedge $-1 $198 $198 $197 $326 forward $123 $-1 #
coedge $-1 $199 $199 $124 $200 forward $194 $-1 #
edge $-1 $327 9.5249706236848006e-016 $327 6.2831853071796013 $199 $328 forward 7 unknown #
face $-1 $329 $330 $44 $-1 $331 forward single #
loop $-1 $-1 $332 $125 #
plane-surface $-1 41.379327588253531 76.015259036253482 96.765301347873915 -1 0 0 0 0.79863551827123203 0.60181501223851219 forward_v I I I I #
coedge $-1 $333 $334 $335 $336 reversed $126 $-1 #
coedge $-1 $206 $128 $337 $338 reversed $81 $-1 #
coedge $-1 $128 $205 $333 $339 reversed $81 $-1 #
coedge $-1 $335 $340 $128 $208 forward $330 $-1 #
edge $-1 $341 16.550130392894594 $342 20.231468954978777 $207 $343 forward 7 unknown #
loop $-1 $-1 $214 $129 #
plane-surface $-1 33.300816079719105 -4.3693910720867564 36.191124414874487 0 0.79863551827123203 0.60181501223851219 1 0 0 forward_v I I I I #
loop $-1 $-1 $344 $83 #
coedge $-1 $212 $212 $213 $345 reversed $130 $-1 #
coedge $-1 $213 $213 $212 $345 forward $132 $-1 #
coedge $-1 $214 $214 $133 $215 forward $209 $-1 #
edge $-1 $346 9.5249706236848006e-016 $346 6.2831853071796013 $214 $347 forward 7 unknown #
face $-1 $348 $349 $46 $-1 $350 forward single #
loop $-1 $-1 $351 $134 #
plane-surface $-1 -17.244183015965103 -84.80016159316969 81.247741095504168 1 0 0 0 0.62932039886446345 -0.77714595512881146 forward_v I I I I #
coedge $-1 $352 $353 $354 $355 reversed $135 $-1 #
coedge $-1 $221 $137 $356 $357 reversed $87 $-1 #
coedge $-1 $137 $220 $352 $358 reversed $87 $-1 #
coedge $-1 $354 $359 $137 $223 forward $349 $-1 #
edge $-1 $360 20.942581671352698 $361 25.606683200419198 $222 $362 forward 7 unknown #
loop $-1 $-1 $229 $138 #
plane-surface $-1 -9.0644837395413376 -21.457499125232147 3.0260689347561538 0 -0.62932039886446345 0.77714595512881146 1 0 0 forward_v I I I I #
loop $-1 $-1 $363 $89 #
coedge $-1 $227 $227 $228 $364 reversed $139 $-1 #
coedge $-1 $228 $228 $227 $364 forward $141 $-1 #
coedge $-1 $229 $229 $142 $230 forward $224 $-1 #
edge $-1 $365 2.168261346330268e-015 $365 6.2831853071796022 $229 $366 forward 7 unknown #
loop $-1 $-1 $236 $143 #
plane-surface $-1 -9.0644837395413376 -21.457499125232147 3.0260689347561538 0 -0.62932039886446345 0.77714595512881146 1 0 0 forward_v I I I I #
loop $-1 $-1 $367 $92 #
coedge $-1 $234 $234 $235 $368 reversed $144 $-1 #
coedge $-1 $235 $235 $234 $368 forward $146 $-1 #
coedge $-1 $236 $236 $147 $237 forward $231 $-1 #
edge $-1 $369 2.168261346330268e-015 $369 6.2831853071796022 $236 $370 forward 7 unknown #
face $-1 $371 $372 $49 $-1 $373 forward single #
loop $-1 $-1 $374 $148 #
plane-surface $-1 0 -21.457499125232147 0 0 1 0 0 0 1 forward_v I I I I #
coedge $-1 $375 $376 $377 $378 reversed $149 $-1 #
coedge $-1 $379 $151 $380 $381 reversed $96 $-1 #
coedge $-1 $151 $379 $374 $382 reversed $96 $-1 #
coedge $-1 $383 $384 $151 $245 forward $372 $-1 #
edge $-1 $385 -6.0015773076930277 $386 0 $244 $387 forward 7 unknown #
loop $-1 $-1 $251 $152 #
plane-surface $-1 -9.0644837395413376 -21.457499125232147 3.0260689347561538 0 -0.62932039886446345 0.77714595512881146 1 0 0 forward_v I I I I #
loop $-1 $-1 $388 $98 #
coedge $-1 $249 $249 $250 $389 reversed $153 $-1 #
coedge $-1 $250 $250 $249 $389 forward $155 $-1 #
coedge $-1 $251 $251 $156 $252 forward $246 $-1 #
edge $-1 $390 2.168261346330268e-015 $390 6.2831853071796022 $251 $391 forward 7 unknown #
loop $-1 $-1 $258 $157 #
plane-surface $-1 -9.0644837395413376 -21.457499125232147 3.0260689347561538 0 -0.62932039886446345 0.77714595512881146 1 0 0 forward_v I I I I #
loop $-1 $-1 $392 $101 #
coedge $-1 $256 $256 $257 $393 reversed $158 $-1 #
coedge $-1 $257 $257 $256 $393 forward $160 $-1 #
coedge $-1 $258 $258 $161 $259 forward $253 $-1 #
edge $-1 $394 2.168261346330268e-015 $394 6.2831853071796022 $258 $395 forward 7 unknown #
face $-1 $396 $397 $39 $-1 $398 reversed single #
loop $-1 $-1 $399 $162 #
plane-surface $-1 -50.326242866298408 0 0 1 0 0 0 0 -1 forward_v I I I I #
coedge $-1 $400 $271 $401 $402 forward $163 $-1 #
coedge $-1 $403 $165 $400 $404 forward $105 $-1 #
coedge $-1 $165 $403 $405 $406 forward $105 $-1 #
coedge $-1 $274 $273 $165 $267 reversed $275 $-1 #
edge $-1 $407 -21.457499125232147 $408 21.457499125232147 $266 $409 forward 7 unknown #
coedge $-1 $167 $166 $410 $411 forward $66 $-1 #
coedge $-1 $412 $413 $166 $270 reversed $397 $-1 #
edge $-1 $277 -50.326242866298408 $414 50.326242866298408 $269 $415 forward 7 unknown #
coedge $-1 $263 $416 $167 $272 reversed $163 $-1 #
edge $-1 $417 -50.326242866298408 $276 50.326242866298408 $271 $418 forward 7 unknown #
coedge $-1 $266 $168 $416 $419 forward $275 $-1 #
coedge $-1 $168 $266 $412 $420 reversed $275 $-1 #
loop $-1 $-1 $273 $396 #
vertex $-1 $169 $421 #
vertex $-1 $169 $422 #
straight-curve $-1 50.326242866298408 0 6.8029839598494428 0 1 0 I I #
face $-1 $423 $424 $40 $-1 $425 forward single #
loop $-1 $-1 $426 $170 #
plane-surface $-1 -50.326242866298408 0 0 1 0 0 0 0 -1 forward_v I I I I #
coedge $-1 $289 $427 $291 $428 forward $171 $-1 #
coedge $-1 $173 $291 $429 $430 reversed $109 $-1 #
coedge $-1 $431 $287 $173 $285 forward $432 $-1 #
edge $-1 $293 1.1514919799247214 $433 4.151491979924721 $284 $434 forward 7 unknown #
coedge $-1 $175 $174 $426 $435 reversed $69 $-1 #
coedge $-1 $284 $436 $174 $288 forward $432 $-1 #
edge $-1 $437 -26.957458021101637 $293 -19.780111669291905 $287 $438 forward 7 unknown #
coedge $-1 $439 $282 $175 $290 forward $171 $-1 #
edge $-1 $292 19.780111669291905 $440 26.957458021101637 $289 $441 forward 7 unknown #
coedge $-1 $283 $176 $282 $428 reversed $109 $-1 #
vertex $-1 $290 $442 #
vertex $-1 $288 $443 #
straight-curve $-1 -43.148896514488676 0 3.8029839598494428 0 -1 0 I I #
face $-1 $444 $445 $41 $-1 $446 reversed single #
loop $-1 $-1 $447 $178 #
plane-surface $-1 54.79970050532085 -9.1070638144980691 0 0 -1 0 0 0 -1 forward_v I I I I #
coedge $-1 $448 $181 $449 $450 forward $113 $-1 #
coedge $-1 $181 $448 $304 $451 forward $113 $-1 #
edge $-1 $306 -12.399660714405059 $452 -9.1070638144980691 $181 $453 forward 7 unknown #
coedge $-1 $183 $182 $454 $455 forward $72 $-1 #
coedge $-1 $456 $457 $182 $303 forward $458 $-1 #
edge $-1 $459 9.1070638144980691 $307 12.399660714405059 $302 $460 forward 7 unknown #
coedge $-1 $461 $184 $299 $451 reversed $179 $-1 #
coedge $-1 $184 $461 $456 $462 reversed $179 $-1 #
vertex $-1 $300 $463 #
vertex $-1 $462 $464 #
straight-curve $-1 50.326242866298408 -12.399660714405059 0 0 0 1 I I #
face $-1 $-1 $321 $42 $-1 $465 forward single #
loop $-1 $-1 $466 $186 #
plane-surface $-1 0 21.457499125232147 0 0 -1 0 0 0 -1 forward_v I I I I #
coedge $-1 $467 $468 $469 $470 reversed $187 $-1 #
coedge $-1 $471 $189 $191 $319 forward $117 $-1 #
coedge $-1 $189 $471 $467 $472 forward $117 $-1 #
coedge $-1 $469 $192 $189 $316 forward $321 $-1 #
edge $-1 $323 -12.56015949436042 $473 3.5968635227084249 $315 $474 forward 7 unknown #
coedge $-1 $475 $476 $190 $318 forward $310 $-1 #
edge $-1 $477 -46.464968128431046 $322 -41.579666714087516 $317 $478 forward 7 unknown #
edge $-1 $323 36.797938211714076 $477 42.914998250464301 $191 $479 forward 7 unknown #
coedge $-1 $192 $469 $475 $480 forward $321 $-1 #
loop $-1 $-1 $469 $309 #
vertex $-1 $318 $481 #
vertex $-1 $193 $482 #
straight-curve $-1 -17.041807480186417 38.007629518126741 6.8029839598494419 0 -1 0 I I #
coedge $-1 $325 $325 $-1 $483 reversed $196 $-1 #
edge $-1 $484 0 $484 6.2831853071796004 $197 $485 forward 7 unknown #
vertex $-1 $200 $486 #
ellipse-curve $-1 -8.9632959716519949 19.61682984419005 4.3603332526776839 0 0.79863551827123203 0.60181501223851219 1.5 0 0 1 I I #
face $-1 $-1 $487 $44 $-1 $488 reversed single #
loop $-1 $-1 $207 $201 #
plane-surface $-1 0 0 6.8029839598494428 0 0 1 1 0 0 forward_v I I I I #
coedge $-1 $489 $490 $491 $492 reversed $202 $-1 #
coedge $-1 $493 $204 $206 $339 forward $126 $-1 #
coedge $-1 $204 $493 $489 $494 forward $126 $-1 #
coedge $-1 $491 $207 $204 $336 forward $330 $-1 #
edge $-1 $342 8.5718965313251303 $495 24.728919548393979 $335 $496 forward 7 unknown #
coedge $-1 $497 $498 $205 $338 forward $487 $-1 #
edge $-1 $499 -46.464968128431046 $341 -41.579666714087516 $337 $500 forward 7 unknown #
edge $-1 $342 36.797938211714076 $499 42.914998250464301 $206 $501 forward 7 unknown #
coedge $-1 $207 $491 $497 $502 forward $330 $-1 #
vertex $-1 $338 $503 #
vertex $-1 $208 $504 #
straight-curve $-1 25.222304571184683 38.007629518126741 6.8029839598494419 0 -1 0 I I #
coedge $-1 $344 $344 $-1 $505 reversed $211 $-1 #
edge $-1 $506 0 $506 6.2831853071796004 $212 $507 forward 7 unknown #
vertex $-1 $215 $508 #
ellipse-curve $-1 33.300816079719105 19.61682984419005 4.3603332526776839 0 0.79863551827123203 0.60181501223851219 1.5 0 0 1 I I #
face $-1 $-1 $509 $46 $-1 $510 reversed single #
loop $-1 $-1 $222 $216 #
plane-surface $-1 0 0 6.8029839598494428 0 0 1 1 0 0 forward_v I I I I #
coedge $-1 $511 $512 $513 $514 reversed $217 $-1 #
coedge $-1 $515 $219 $221 $358 forward $135 $-1 #
coedge $-1 $219 $515 $511 $516 forward $135 $-1 #
coedge $-1 $513 $222 $219 $355 forward $349 $-1 #
edge $-1 $361 -3.6474574066530963 $517 12.711941146194434 $354 $518 forward 7 unknown #
coedge $-1 $519 $520 $220 $357 forward $509 $-1 #
edge $-1 $521 -37.59780161299593 $360 -33.820886587902642 $356 $522 forward 7 unknown #
edge $-1 $361 -6.0015773076930277 $521 0 $221 $523 forward 7 unknown #
coedge $-1 $222 $513 $519 $524 forward $349 $-1 #
vertex $-1 $223 $525 #
vertex $-1 $223 $526 #
straight-curve $-1 -0.88478446311757253 -42.400080796584845 6.8029839598494419 0 1 0 I I #
coedge $-1 $363 $363 $-1 $527 reversed $226 $-1 #
edge $-1 $528 0 $528 6.2831853071796004 $227 $529 forward 7 unknown #
vertex $-1 $230 $530 #
ellipse-curve $-1 -12.570069143722954 -19.125448360698897 4.9145264473027979 0 -0.62932039886446345 0.77714595512881146 1 0 0 1 I I #
coedge $-1 $367 $367 $-1 $531 reversed $233 $-1 #
edge $-1 $532 0 $532 6.2831853071796004 $234 $533 forward 7 unknown #
vertex $-1 $237 $534 #
ellipse-curve $-1 -5.5588983353597214 -19.125448360698897 4.9145264473027979 0 -0.62932039886446345 0.77714595512881146 1 0 0 1 I I #
face $-1 $-1 $535 $49 $-1 $536 forward single #
loop $-1 $-1 $384 $238 #
plane-surface $-1 -0.88478446311757253 -84.80016159316969 81.247741095504168 -1 0 0 0 -0.62932039886446345 0.77714595512881146 forward_v I I I I #
coedge $-1 $377 $537 $243 $382 forward $239 $-1 #
coedge $-1 $376 $241 $379 $538 reversed $149 $-1 #
coedge $-1 $241 $375 $539 $540 reversed $149 $-1 #
coedge $-1 $541 $374 $241 $378 forward $239 $-1 #
edge $-1 $542 -37.59780161299593 $543 -33.820886587902642 $377 $544 forward 7 unknown #
coedge $-1 $243 $242 $375 $538 forward $96 $-1 #
coedge $-1 $545 $539 $242 $381 forward $535 $-1 #
edge $-1 $546 -20.006855959500626 $385 -3.6474574066530963 $380 $547 forward 7 unknown #
edge $-1 $386 3.6474574066530963 $542 20.006855959500626 $374 $548 forward 7 unknown #
coedge $-1 $384 $244 $537 $549 reversed $372 $-1 #
coedge $-1 $244 $383 $545 $550 reversed $372 $-1 #
vertex $-1 $381 $551 #
vertex $-1 $382 $552 #
straight-curve $-1 -0.88478446311757253 -21.457499125232147 3.0260689347561538 0 -0.77714595512881146 -0.62932039886446345 I I #
coedge $-1 $388 $388 $-1 $553 reversed $248 $-1 #
edge $-1 $554 0 $554 6.2831853071796004 $249 $555 forward 7 unknown #
vertex $-1 $252 $556 #
ellipse-curve $-1 3.7893294091245764 -19.125448360698897 4.9145264473027979 0 -0.62932039886446345 0.77714595512881146 1 0 0 1 I I #
coedge $-1 $392 $392 $-1 $557 reversed $255 $-1 #
edge $-1 $558 0 $558 6.2831853071796004 $256 $559 forward 7 unknown #
vertex $-1 $259 $560 #
ellipse-curve $-1 10.800500217487809 -19.125448360698897 4.9145264473027979 0 -0.62932039886446345 0.77714595512881146 1 0 0 1 I I #
face $-1 $-1 $275 $39 $-1 $561 reversed single #
loop $-1 $-1 $412 $260 #
plane-surface $-1 0 21.457499125232147 0 0 -1 0 0 0 -1 forward_v I I I I #
coedge $-1 $562 $410 $413 $563 forward $261 $-1 #
coedge $-1 $416 $263 $264 $404 reversed $163 $-1 #
coedge $-1 $410 $562 $263 $402 reversed $261 $-1 #
edge $-1 $417 -6.8029839598494428 $564 6.8029839598494428 $401 $565 forward 7 unknown #
coedge $-1 $265 $264 $562 $566 forward $105 $-1 #
edge $-1 $408 -50.326242866298408 $564 50.326242866298408 $400 $567 forward 7 unknown #
coedge $-1 $413 $412 $265 $406 reversed $397 $-1 #
edge $-1 $568 -50.326242866298408 $407 50.326242866298408 $405 $569 forward 7 unknown #
vertex $-1 $267 $570 #
vertex $-1 $419 $571 #
straight-curve $-1 50.326242866298408 0 -6.8029839598494428 0 -1 0 I I #
coedge $-1 $399 $401 $268 $411 reversed $261 $-1 #
edge $-1 $414 -21.457499125232147 $417 21.457499125232147 $410 $572 forward 7 unknown #
coedge $-1 $405 $269 $274 $420 forward $397 $-1 #
coedge $-1 $269 $405 $399 $563 reversed $397 $-1 #
vertex $-1 $270 $573 #
straight-curve $-1 0 21.457499125232147 6.8029839598494428 -1 0 0 I I #
coedge $-1 $271 $400 $273 $419 reversed $163 $-1 #
vertex $-1 $411 $574 #
straight-curve $-1 0 -21.457499125232147 6.8029839598494428 1 0 0 I I #
edge $-1 $276 -6.8029839598494428 $408 6.8029839598494428 $273 $575 forward 7 unknown #
edge $-1 $277 -6.8029839598494428 $407 6.8029839598494428 $274 $576 forward 7 unknown #
point $-1 50.326242866298408 -21.457499125232147 6.8029839598494428 #
point $-1 50.326242866298408 21.457499125232147 6.8029839598494428 #
face $-1 $-1 $432 $40 $-1 $577 reversed single #
loop $-1 $-1 $429 $279 #
plane-surface $-1 0 0 6.8029839598494428 0 0 1 1 0 0 forward_v I I I I #
coedge $-1 $578 $579 $286 $435 forward $280 $-1 #
coedge $-1 $282 $439 $580 $581 reversed $171 $-1 #
edge $-1 $582 -4.151491979924721 $292 -1.1514919799247214 $282 $583 forward 7 unknown #
coedge $-1 $580 $584 $283 $430 forward $424 $-1 #
edge $-1 $433 -21.457499125232147 $582 21.457499125232147 $429 $585 forward 7 unknown #
coedge $-1 $436 $284 $584 $586 reversed $432 $-1 #
loop $-1 $-1 $284 $423 #
vertex $-1 $285 $587 #
straight-curve $-1 -43.148896514488676 -21.457499125232147 2.6514919799247214 0 0 1 I I #
edge $-1 $440 -21.457499125232147 $437 21.457499125232147 $426 $588 forward 7 unknown #
coedge $-1 $287 $431 $578 $589 forward $432 $-1 #
vertex $-1 $435 $590 #
straight-curve $-1 -23.368784845196771 -21.457499125232147 3.8029839598494428 1 0 0 I I #
coedge $-1 $427 $289 $579 $591 reversed $171 $-1 #
vertex $-1 $435 $592 #
straight-curve $-1 -23.368784845196771 21.457499125232147 3.8029839598494428 -1 0 0 I I #
point $-1 -43.148896514488676 21.457499125232147 3.8029839598494428 #
point $-1 -43.148896514488676 -21.457499125232147 3.8029839598494428 #
face $-1 $-1 $458 $41 $-1 $593 forward single #
loop $-1 $-1 $594 $295 #
plane-surface $-1 59.273158144343292 -10.753362264451564 0 -1 0 0 0 0 1 forward_v I I I I #
coedge $-1 $449 $595 $596 $597 forward $296 $-1 #
coedge $-1 $299 $298 $598 $599 forward $113 $-1 #
coedge $-1 $454 $447 $298 $450 reversed $296 $-1 #
edge $-1 $452 -4.4734576390224419 $600 4.4734576390224419 $449 $601 forward 7 unknown #
edge $-1 $602 -4.4734576390224419 $306 4.4734576390224419 $304 $603 forward 7 unknown #
vertex $-1 $450 $604 #
straight-curve $-1 50.326242866298408 0 -6.8029839598494428 0 1 0 I I #
coedge $-1 $595 $449 $301 $455 reversed $296 $-1 #
edge $-1 $459 -6.8029839598494428 $452 6.8029839598494428 $454 $605 forward 7 unknown #
coedge $-1 $606 $302 $305 $462 forward $458 $-1 #
coedge $-1 $302 $606 $595 $607 forward $458 $-1 #
loop $-1 $-1 $302 $444 #
vertex $-1 $303 $608 #
straight-curve $-1 50.326242866298408 0 6.8029839598494428 0 -1 0 I I #
coedge $-1 $305 $304 $594 $609 reversed $179 $-1 #
edge $-1 $307 -4.4734576390224419 $610 4.4734576390224419 $305 $611 forward 7 unknown #
point $-1 50.326242866298408 -12.399660714405059 -6.8029839598494428 #
point $-1 50.326242866298408 -12.399660714405059 6.8029839598494428 #
plane-surface $-1 0 0 6.8029839598494428 0 0 1 1 0 0 forward_v I I I I #
coedge $-1 $476 $475 $468 $612 forward $310 $-1 #
coedge $-1 $468 $312 $314 $472 reversed $187 $-1 #
coedge $-1 $312 $467 $466 $612 reversed $187 $-1 #
coedge $-1 $320 $315 $312 $470 forward $321 $-1 #
edge $-1 $473 -20.231468954978777 $613 -16.550130392894594 $469 $614 forward 7 unknown #
coedge $-1 $314 $313 $476 $615 reversed $117 $-1 #
edge $-1 $616 -42.914998250464301 $473 -36.797938211714076 $467 $617 forward 7 unknown #
vertex $-1 $316 $618 #
straight-curve $-1 -4.4816479858259974 17.776160563147961 6.8029839598494455 1 0 0 I I #
coedge $-1 $466 $317 $320 $480 reversed $310 $-1 #
coedge $-1 $317 $466 $471 $615 forward $310 $-1 #
vertex $-1 $318 $619 #
straight-curve $-1 -17.041807480186417 21.457499125232147 48.382650673936958 0 0 1 I I #
straight-curve $-1 -17.041807480186417 -4.3693910720867564 36.191124414874487 0 0.60181501223851219 -0.79863551827123203 I I #
edge $-1 $613 0.88478446311757253 $322 17.041807480186417 $475 $620 forward 7 unknown #
point $-1 -17.041807480186417 21.457499125232147 6.8029839598494428 #
point $-1 -17.041807480186417 17.776160563147965 6.8029839598494419 #
edge $-1 $621 1 $621 0 $325 $-1 forward 7 unknown #
vertex $-1 $326 $622 #
ellipse-curve $-1 -8.9632959716519949 17.693677396561878 2.9111339780057985 0 0.79863551827123203 0.60181501223851219 1.5 0 0 1 I I #
point $-1 -7.4632959716519949 19.616829844190054 4.3603332526776848 #
loop $-1 $-1 $337 $329 #
plane-surface $-1 0 21.457499125232147 0 0 -1 0 0 0 -1 forward_v I I I I #
coedge $-1 $490 $332 $334 $494 reversed $202 $-1 #
coedge $-1 $332 $489 $623 $624 reversed $202 $-1 #
coedge $-1 $340 $335 $332 $492 forward $330 $-1 #
edge $-1 $495 -20.231468954978777 $625 -16.550130392894594 $491 $626 forward 7 unknown #
coedge $-1 $334 $333 $498 $627 reversed $126 $-1 #
edge $-1 $628 -42.914998250464301 $495 -36.797938211714076 $489 $629 forward 7 unknown #
vertex $-1 $336 $630 #
straight-curve $-1 16.650408039859553 17.776160563147961 6.8029839598494455 1 0 0 I I #
coedge $-1 $623 $337 $340 $502 reversed $487 $-1 #
coedge $-1 $337 $623 $493 $627 forward $487 $-1 #
vertex $-1 $338 $631 #
straight-curve $-1 25.222304571184683 21.457499125232147 48.382650673936958 0 0 1 I I #
straight-curve $-1 25.222304571184683 -4.3693910720867564 36.191124414874487 0 0.60181501223851219 -0.79863551827123203 I I #
edge $-1 $625 -41.379327588253531 $341 -25.222304571184683 $497 $632 forward 7 unknown #
point $-1 25.222304571184683 21.457499125232147 6.8029839598494428 #
point $-1 25.222304571184683 17.776160563147965 6.8029839598494419 #
edge $-1 $633 1 $633 0 $344 $-1 forward 7 unknown #
vertex $-1 $345 $634 #
ellipse-curve $-1 33.300816079719105 17.693677396561878 2.9111339780057985 0 0.79863551827123203 0.60181501223851219 1.5 0 0 1 I I #
point $-1 34.800816079719105 19.616829844190054 4.3603332526776848 #
loop $-1 $-1 $356 $348 #
plane-surface $-1 0 -21.457499125232147 0 0 1 0 0 0 1 forward_v I I I I #
coedge $-1 $512 $351 $353 $516 reversed $217 $-1 #
coedge $-1 $351 $511 $635 $636 reversed $217 $-1 #
coedge $-1 $359 $354 $351 $514 forward $349 $-1 #
edge $-1 $517 -25.606683200419198 $637 -20.942581671352698 $513 $638 forward 7 unknown #
coedge $-1 $353 $352 $520 $639 reversed $135 $-1 #
edge $-1 $640 0 $517 6.0015773076930277 $511 $641 forward 7 unknown #
vertex $-1 $355 $642 #
straight-curve $-1 -4.5322418697706688 -16.793397596165647 6.8029839598494419 -1 0 0 I I #
coedge $-1 $635 $356 $359 $524 reversed $509 $-1 #
coedge $-1 $356 $635 $515 $639 forward $509 $-1 #
vertex $-1 $357 $643 #
straight-curve $-1 -0.88478446311757253 -21.457499125232147 40.623870547752084 0 0 1 I I #
straight-curve $-1 -0.88478446311757253 -21.457499125232147 3.0260689347561538 0 -0.77714595512881146 -0.62932039886446345 I I #
edge $-1 $637 -17.244183015965103 $360 -0.88478446311757253 $519 $644 forward 7 unknown #
point $-1 -0.88478446311757253 -21.457499125232147 6.8029839598494428 #
point $-1 -0.88478446311757253 -16.793397596165647 6.8029839598494428 #
edge $-1 $645 1 $645 0 $363 $-1 forward 7 unknown #
vertex $-1 $364 $646 #
ellipse-curve $-1 -12.570069143722954 -16.730546891025039 1.9570694930273853 0 -0.62932039886446345 0.77714595512881146 1 0 0 1 I I #
point $-1 -11.570069143722954 -19.12544836069889 4.9145264473027925 #
edge $-1 $647 1 $647 0 $367 $-1 forward 7 unknown #
vertex $-1 $368 $648 #
ellipse-curve $-1 -5.5588983353597214 -16.730546891025039 1.9570694930273853 0 -0.62932039886446345 0.77714595512881146 1 0 0 1 I I #
point $-1 -4.5588983353597214 -19.12544836069889 4.9145264473027925 #
loop $-1 $-1 $380 $371 #
plane-surface $-1 0 0 6.8029839598494428 0 0 1 1 0 0 forward_v I I I I #
coedge $-1 $374 $541 $383 $549 forward $239 $-1 #
edge $-1 $546 -6.0015773076930277 $542 0 $375 $649 forward 7 unknown #
coedge $-1 $380 $650 $376 $540 forward $535 $-1 #
edge $-1 $543 20.942581671352698 $546 25.606683200419198 $539 $651 forward 7 unknown #
coedge $-1 $537 $377 $650 $652 reversed $239 $-1 #
vertex $-1 $378 $653 #
vertex $-1 $378 $654 #
straight-curve $-1 15.474614089729958 -21.457499125232147 40.623870547752084 0 0 1 I I #
coedge $-1 $650 $380 $384 $550 forward $535 $-1 #
vertex $-1 $540 $655 #
straight-curve $-1 -4.5322418697706688 -16.793397596165647 6.8029839598494419 -1 0 0 I I #
straight-curve $-1 -4.5322418697706688 -21.457499125232147 3.0260689347561529 1 0 0 I I #
edge $-1 $656 33.820886587902642 $386 37.59780161299593 $537 $657 forward 7 unknown #
edge $-1 $385 -25.606683200419198 $656 -20.942581671352698 $545 $658 forward 7 unknown #
point $-1 -0.88478446311757253 -16.793397596165647 6.8029839598494428 #
point $-1 -0.88478446311757253 -21.457499125232147 3.0260689347561538 #
edge $-1 $659 1 $659 0 $388 $-1 forward 7 unknown #
vertex $-1 $389 $660 #
ellipse-curve $-1 3.7893294091245764 -16.730546891025039 1.9570694930273853 0 -0.62932039886446345 0.77714595512881146 1 0 0 1 I I #
point $-1 4.7893294091245764 -19.12544836069889 4.9145264473027925 #
edge $-1 $661 1 $661 0 $392 $-1 forward 7 unknown #
vertex $-1 $393 $662 #
ellipse-curve $-1 10.800500217487809 -16.730546891025039 1.9570694930273853 0 -0.62932039886446345 0.77714595512881146 1 0 0 1 I I #
point $-1 11.800500217487809 -19.12544836069889 4.9145264473027925 #
plane-surface $-1 50.326242866298408 0 0 -1 0 0 0 0 1 forward_v I I I I #
coedge $-1 $401 $399 $403 $566 reversed $261 $-1 #
edge $-1 $414 -6.8029839598494428 $568 6.8029839598494428 $413 $663 forward 7 unknown #
vertex $-1 $566 $664 #
straight-curve $-1 -50.326242866298408 -21.457499125232147 0 0 0 -1 I I #
edge $-1 $564 -21.457499125232147 $568 21.457499125232147 $562 $665 forward 7 unknown #
straight-curve $-1 0 -21.457499125232147 -6.8029839598494428 -1 0 0 I I #
vertex $-1 $406 $666 #
straight-curve $-1 0 21.457499125232147 -6.8029839598494428 1 0 0 I I #
point $-1 50.326242866298408 21.457499125232147 -6.8029839598494428 #
point $-1 50.326242866298408 -21.457499125232147 -6.8029839598494428 #
straight-curve $-1 -50.326242866298408 0 6.8029839598494428 0 -1 0 I I #
point $-1 -50.326242866298408 21.457499125232147 6.8029839598494428 #
point $-1 -50.326242866298408 -21.457499125232147 6.8029839598494428 #
straight-curve $-1 50.326242866298408 -21.457499125232147 0 0 0 -1 I I #
straight-curve $-1 50.326242866298408 21.457499125232147 0 0 0 -1 I I #
plane-surface $-1 0 -21.457499125232147 0 0 1 0 0 0 1 forward_v I I I I #
coedge $-1 $667 $426 $436 $589 reversed $280 $-1 #
coedge $-1 $426 $667 $439 $591 forward $280 $-1 #
coedge $-1 $668 $429 $427 $581 forward $424 $-1 #
edge $-1 $582 43.148896514488676 $669 50.326242866298408 $427 $670 forward 7 unknown #
vertex $-1 $581 $671 #
straight-curve $-1 -43.148896514488676 21.457499125232147 2.6514919799247214 0 0 -1 I I #
coedge $-1 $429 $668 $431 $586 forward $424 $-1 #
straight-curve $-1 -43.148896514488676 0 6.8029839598494428 0 1 0 I I #
edge $-1 $672 -50.326242866298408 $433 -43.148896514488676 $431 $673 forward 7 unknown #
point $-1 -43.148896514488676 -21.457499125232147 6.8029839598494428 #
straight-curve $-1 -50.326242866298408 0 3.8029839598494428 0 -1 0 I I #
edge $-1 $672 -6.8029839598494428 $437 -3.8029839598494428 $578 $674 forward 7 unknown #
point $-1 -50.326242866298408 -21.457499125232147 3.8029839598494428 #
edge $-1 $669 -6.8029839598494428 $440 -3.8029839598494428 $439 $675 forward 7 unknown #
point $-1 -50.326242866298408 21.457499125232147 3.8029839598494428 #
plane-surface $-1 0 0 6.8029839598494428 0 0 1 1 0 0 forward_v I I I I #
coedge $-1 $598 $676 $461 $609 forward $445 $-1 #
coedge $-1 $447 $454 $457 $607 reversed $296 $-1 #
coedge $-1 $676 $598 $447 $597 reversed $445 $-1 #
edge $-1 $677 -6.8029839598494428 $600 6.8029839598494428 $596 $678 forward 7 unknown #
coedge $-1 $596 $594 $448 $599 reversed $445 $-1 #
edge $-1 $600 -1.6462984499534947 $602 1.6462984499534947 $598 $679 forward 7 unknown #
vertex $-1 $599 $680 #
straight-curve $-1 54.79970050532085 -9.1070638144980691 -6.8029839598494428 1 0 0 I I #
vertex $-1 $609 $681 #
straight-curve $-1 54.79970050532085 -12.399660714405059 -6.8029839598494428 -1 0 0 I I #
point $-1 50.326242866298408 -9.1070638144980691 -6.8029839598494428 #
straight-curve $-1 50.326242866298408 -9.1070638144980691 0 0 0 -1 I I #
coedge $-1 $457 $456 $676 $682 forward $458 $-1 #
edge $-1 $677 -4.4734576390224419 $459 4.4734576390224419 $595 $683 forward 7 unknown #
point $-1 50.326242866298408 -9.1070638144980691 6.8029839598494428 #
edge $-1 $610 -6.8029839598494428 $602 6.8029839598494428 $594 $684 forward 7 unknown #
vertex $-1 $682 $685 #
straight-curve $-1 54.79970050532085 -12.399660714405059 6.8029839598494428 1 0 0 I I #
edge $-1 $613 41.579666714087516 $616 46.464968128431046 $466 $686 forward 7 unknown #
vertex $-1 $480 $687 #
straight-curve $-1 -0.88478446311757253 38.007629518126741 6.8029839598494419 0 1 0 I I #
edge $-1 $616 -3.5968635227084249 $477 12.56015949436042 $476 $688 forward 7 unknown #
vertex $-1 $615 $689 #
straight-curve $-1 -0.88478446311757253 -4.3693910720867564 36.191124414874487 0 -0.60181501223851219 0.79863551827123203 I I #
point $-1 -0.88478446311757253 17.776160563147965 6.8029839598494419 #
point $-1 -17.041807480186417 21.457499125232147 1.9176825455059117 #
straight-curve $-1 0 21.457499125232147 6.8029839598494428 -1 0 0 I I #
vertex $-1 $483 $690 #
point $-1 -7.4632959716519949 17.693677396561878 2.9111339780057985 #
coedge $-1 $498 $497 $490 $624 forward $487 $-1 #
edge $-1 $625 41.579666714087516 $628 46.464968128431046 $623 $691 forward 7 unknown #
vertex $-1 $502 $692 #
straight-curve $-1 41.379327588253531 38.007629518126741 6.8029839598494419 0 1 0 I I #
edge $-1 $628 -24.728919548393979 $499 -8.5718965313251303 $498 $693 forward 7 unknown #
vertex $-1 $627 $694 #
straight-curve $-1 41.379327588253531 -4.3693910720867564 36.191124414874487 0 -0.60181501223851219 0.79863551827123203 I I #
point $-1 41.379327588253531 17.776160563147965 6.8029839598494419 #
point $-1 25.222304571184683 21.457499125232147 1.9176825455059117 #
straight-curve $-1 0 21.457499125232147 6.8029839598494428 -1 0 0 I I #
vertex $-1 $505 $695 #
point $-1 34.800816079719105 17.693677396561878 2.9111339780057985 #
coedge $-1 $520 $519 $512 $636 forward $509 $-1 #
edge $-1 $637 33.820886587902642 $640 37.59780161299593 $635 $696 forward 7 unknown #
vertex $-1 $524 $697 #
straight-curve $-1 -17.244183015965103 -42.400080796584845 6.8029839598494419 0 -1 0 I I #
edge $-1 $640 -12.711941146194434 $521 3.6474574066530963 $520 $698 forward 7 unknown #
vertex $-1 $639 $699 #
straight-curve $-1 -17.244183015965103 -21.457499125232147 3.0260689347561538 0 0.77714595512881146 0.62932039886446345 I I #
point $-1 -17.244183015965103 -16.793397596165647 6.8029839598494428 #
point $-1 -0.88478446311757253 -21.457499125232147 3.0260689347561538 #
straight-curve $-1 0 -21.457499125232147 6.8029839598494428 1 0 0 I I #
vertex $-1 $527 $700 #
point $-1 -11.570069143722954 -16.730546891025039 1.9570694930273853 #
vertex $-1 $531 $701 #
point $-1 -4.5588983353597214 -16.730546891025039 1.9570694930273853 #
straight-curve $-1 15.474614089729958 -21.457499125232147 3.0260689347561538 0 -0.77714595512881146 -0.62932039886446345 I I #
coedge $-1 $539 $545 $541 $652 forward $535 $-1 #
straight-curve $-1 15.474614089729958 -42.400080796584845 6.8029839598494419 0 1 0 I I #
edge $-1 $656 -0.88478446311757253 $543 15.474614089729958 $541 $702 forward 7 unknown #
point $-1 15.474614089729958 -21.457499125232147 3.0260689347561538 #
point $-1 15.474614089729958 -21.457499125232147 6.8029839598494428 #
point $-1 15.474614089729958 -16.793397596165647 6.8029839598494428 #
vertex $-1 $652 $703 #
straight-curve $-1 -0.88478446311757253 -21.457499125232147 40.623870547752084 0 0 -1 I I #
straight-curve $-1 -0.88478446311757253 -42.400080796584845 6.8029839598494419 0 -1 0 I I #
vertex $-1 $553 $704 #
point $-1 4.7893294091245764 -16.730546891025039 1.9570694930273853 #
vertex $-1 $557 $705 #
point $-1 11.800500217487809 -16.730546891025039 1.9570694930273853 #
straight-curve $-1 -50.326242866298408 21.457499125232147 0 0 0 -1 I I #
point $-1 -50.326242866298408 -21.457499125232147 -6.8029839598494428 #
straight-curve $-1 -50.326242866298408 0 -6.8029839598494428 0 1 0 I I #
point $-1 -50.326242866298408 21.457499125232147 -6.8029839598494428 #
coedge $-1 $579 $578 $668 $706 reversed $280 $-1 #
coedge $-1 $584 $580 $667 $706 forward $424 $-1 #
vertex $-1 $581 $707 #
straight-curve $-1 0 21.457499125232147 6.8029839598494428 -1 0 0 I I #
point $-1 -43.148896514488676 21.457499125232147 6.8029839598494428 #
vertex $-1 $706 $708 #
straight-curve $-1 0 -21.457499125232147 6.8029839598494428 1 0 0 I I #
straight-curve $-1 -50.326242866298408 -21.457499125232147 0 0 0 -1 I I #
straight-curve $-1 -50.326242866298408 21.457499125232147 0 0 0 -1 I I #
coedge $-1 $594 $596 $606 $682 reversed $445 $-1 #
vertex $-1 $682 $709 #
straight-curve $-1 59.273158144343292 -9.1070638144980691 0 0 0 -1 I I #
straight-curve $-1 59.273158144343292 -10.753362264451564 -6.8029839598494428 0 -1 0 I I #
point $-1 59.273158144343292 -9.1070638144980691 -6.8029839598494428 #
point $-1 59.273158144343292 -12.399660714405059 -6.8029839598494428 #
edge $-1 $610 -1.6462984499534947 $677 1.6462984499534947 $676 $710 forward 7 unknown #
straight-curve $-1 54.79970050532085 -9.1070638144980691 6.8029839598494428 -1 0 0 I I #
straight-curve $-1 59.273158144343292 -12.399660714405059 0 0 0 -1 I I #
point $-1 59.273158144343292 -12.399660714405059 6.8029839598494428 #
straight-curve $-1 -0.88478446311757253 21.457499125232147 48.382650673936958 0 0 -1 I I #
point $-1 -0.88478446311757253 21.457499125232147 6.8029839598494428 #
straight-curve $-1 -4.4816479858259974 21.457499125232147 1.9176825455059117 -1 0 0 I I #
point $-1 -0.88478446311757253 21.457499125232147 1.9176825455059117 #
point $-1 -8.9632959716519949 16.495724119155032 2.0084114596480305 #
straight-curve $-1 41.379327588253531 21.457499125232147 48.382650673936958 0 0 -1 I I #
point $-1 41.379327588253531 21.457499125232147 6.8029839598494428 #
straight-curve $-1 16.650408039859553 21.457499125232147 1.9176825455059117 -1 0 0 I I #
point $-1 41.379327588253531 21.457499125232147 1.9176825455059117 #
point $-1 33.300816079719105 16.495724119155032 2.0084114596480305 #
straight-curve $-1 -17.244183015965103 -21.457499125232147 40.623870547752084 0 0 -1 I I #
point $-1 -17.244183015965103 -21.457499125232147 6.8029839598494428 #
straight-curve $-1 -4.5322418697706688 -21.457499125232147 3.0260689347561529 1 0 0 I I #
point $-1 -17.244183015965103 -21.457499125232147 3.0260689347561538 #
point $-1 -12.570069143722954 -16.101226492160574 1.1799235378985737 #
point $-1 -5.5588983353597214 -16.101226492160574 1.1799235378985737 #
straight-curve $-1 0 -21.457499125232147 6.8029839598494428 1 0 0 I I #
point $-1 -0.88478446311757253 -21.457499125232147 6.8029839598494428 #
point $-1 3.7893294091245764 -16.101226492160574 1.1799235378985737 #
point $-1 10.800500217487809 -16.101226492160574 1.1799235378985737 #
edge $-1 $669 -21.457499125232147 $672 21.457499125232147 $667 $711 forward 7 unknown #
point $-1 -50.326242866298408 21.457499125232147 6.8029839598494428 #
point $-1 -50.326242866298408 -21.457499125232147 6.8029839598494428 #
point $-1 59.273158144343292 -9.1070638144980691 6.8029839598494428 #
straight-curve $-1 59.273158144343292 -10.753362264451564 6.8029839598494428 0 1 0 I I #
straight-curve $-1 -50.326242866298408 0 6.8029839598494428 0 -1 0 I I #
End-of-ACIS-data 