500 0 11 0           
7 Unknown 11 ACIS 5.0 NT 24 Thu Mar 25 19:40:51 1999 
-1 9.9999999999999995e-007 1e-010 
body $-1 $11 $-1 $12 #
body $-1 $13 $-1 $14 #
body $-1 $15 $-1 $16 #
body $-1 $17 $-1 $18 #
body $-1 $19 $-1 $20 #
body $-1 $21 $-1 $22 #
body $-1 $23 $-1 $24 #
body $-1 $25 $-1 $26 #
body $-1 $27 $-1 $28 #
body $-1 $29 $-1 $30 #
body $-1 $31 $-1 $32 #
lump $-1 $-1 $33 $0 #
transform $-1 1 0 0 0 1 0 0 0 1 46.275826288644062 26.838623468940181 9.8774685506451707 1 rotate no_reflect no_shear #
lump $-1 $-1 $34 $1 #
transform $-1 1 0 0 0 1 0 0 0 1 46.275826288644062 26.838623468940181 9.8774685506451707 1 rotate no_reflect no_shear #
lump $-1 $-1 $35 $2 #
transform $-1 1 0 0 0 1 0 0 0 1 46.275826288644062 26.838623468940181 9.8774685506451707 1 rotate no_reflect no_shear #
lump $-1 $-1 $36 $3 #
transform $-1 1 0 0 0 1 0 0 0 1 46.275826288644062 26.838623468940181 9.8774685506451707 1 rotate no_reflect no_shear #
lump $-1 $-1 $37 $4 #
transform $-1 1 0 0 0 1 0 0 0 1 46.275826288644062 26.838623468940181 9.8774685506451707 1 rotate no_reflect no_shear #
lump $-1 $-1 $38 $5 #
transform $-1 1 0 0 0 1 0 0 0 1 46.275826288644062 26.838623468940181 9.8774685506451707 1 rotate no_reflect no_shear #
lump $-1 $-1 $39 $6 #
transform $-1 1 0 0 0 1 0 0 0 1 46.275826288644062 26.838623468940181 9.8774685506451707 1 rotate no_reflect no_shear #
lump $-1 $-1 $40 $7 #
transform $-1 1 0 0 0 1 0 0 0 1 46.275826288644062 26.838623468940181 9.8774685506451707 1 rotate no_reflect no_shear #
lump $-1 $-1 $41 $8 #
transform $-1 1 0 0 0 1 0 0 0 1 46.275826288644062 26.838623468940181 9.8774685506451707 1 rotate no_reflect no_shear #
lump $-1 $-1 $42 $9 #
transform $-1 1 0 0 0 1 0 0 0 1 46.275826288644062 26.838623468940181 9.8774685506451707 1 rotate no_reflect no_shear #
lump $-1 $-1 $43 $10 #
transform $-1 1 0 0 0 1 0 0 0 1 46.275826288644062 26.838623468940181 9.8774685506451707 1 rotate no_reflect no_shear #
shell $-1 $-1 $-1 $44 $-1 $11 #
shell $-1 $-1 $-1 $45 $-1 $13 #
shell $-1 $-1 $-1 $46 $-1 $15 #
shell $-1 $-1 $-1 $47 $-1 $17 #
shell $-1 $-1 $-1 $48 $-1 $19 #
shell $-1 $-1 $-1 $49 $-1 $21 #
shell $-1 $-1 $-1 $50 $-1 $23 #
shell $-1 $-1 $-1 $51 $-1 $25 #
shell $-1 $-1 $-1 $52 $-1 $27 #
shell $-1 $-1 $-1 $53 $-1 $29 #
shell $-1 $-1 $-1 $54 $-1 $31 #
face $-1 $55 $56 $33 $-1 $57 forward single #
face $-1 $58 $59 $34 $-1 $60 reversed single #
face $-1 $61 $62 $35 $-1 $63 reversed single #
face $-1 $64 $65 $36 $-1 $66 reversed single #
face $-1 $67 $68 $37 $-1 $69 forward single #
face $-1 $70 $71 $38 $-1 $72 reversed single #
face $-1 $73 $74 $39 $-1 $75 forward single #
face $-1 $76 $77 $40 $-1 $78 reversed single #
face $-1 $79 $80 $41 $-1 $81 forward single #
face $-1 $82 $83 $42 $-1 $84 reversed single #
face $-1 $85 $86 $43 $-1 $87 forward single #
face $-1 $88 $89 $33 $-1 $90 reversed single #
loop $-1 $-1 $91 $44 #
plane-surface $-1 0 0 9.8774685506451707 0 0 1 1 0 0 forward_v I I I I #
face $-1 $92 $93 $34 $-1 $94 reversed single #
loop $-1 $-1 $95 $45 #
plane-surface $-1 0 -23.126736683619725 4.6093446490128844 0 0 1 1 0 0 forward_v I I I I #
face $-1 $96 $97 $35 $-1 $98 reversed single #
loop $-1 $-1 $99 $46 #
plane-surface $-1 0 23.126736683619729 4.6093446490128844 0 0 1 1 0 0 forward_v I I I I #
face $-1 $100 $101 $36 $-1 $102 reversed single #
loop $-1 $-1 $103 $47 #
plane-surface $-1 -118.20197008114349 -11.405975574825586 59.982111404299708 0 1 0 -0.77714596973225614 0 0.62932038083071107 forward_v I I I I #
face $-1 $104 $105 $37 $-1 $106 forward single #
loop $-1 $107 $108 $48 #
cone-surface $-1 -41.436351298917202 -7.2719224034847016 4.5574424477083131 0.77714596973225614 0 -0.62932038083071107 0.62932038083071107 0 0.77714596973225614 1 I I 0 1 1 forward I I I I #
face $-1 $109 $110 $38 $-1 $111 reversed single #
loop $-1 $-1 $112 $49 #
plane-surface $-1 -118.20197008114349 8.0088743234736839 59.982111404299708 0 1 0 -0.77714596973225614 0 0.62932038083071107 forward_v I I I I #
face $-1 $113 $114 $39 $-1 $115 forward single #
loop $-1 $116 $117 $50 #
cone-surface $-1 -41.436351298917202 12.142927494814568 4.5574424477083131 0.77714596973225614 0 -0.62932038083071107 0.62932038083071107 0 0.77714596973225614 1 I I 0 1 1 forward I I I I #
face $-1 $118 $119 $40 $-1 $120 reversed single #
loop $-1 $-1 $121 $51 #
plane-surface $-1 59.957328834692866 -3.1378692321438164 131.90825519679913 0 -1 0 -0.77714596973225614 0 -0.62932038083071107 forward_v I I I I #
face $-1 $122 $123 $41 $-1 $124 forward single #
loop $-1 $125 $126 $52 #
cone-surface $-1 41.436351298917188 -7.2719224034847016 4.5574424477083308 -0.77714596973225614 0 -0.62932038083071107 0.62932038083071107 0 -0.77714596973225614 1 I I 0 1 1 forward I I I I #
face $-1 $127 $128 $42 $-1 $129 reversed single #
loop $-1 $-1 $130 $53 #
plane-surface $-1 59.957328834692866 16.276980666155453 131.90825519679913 0 -1 0 -0.77714596973225614 0 -0.62932038083071107 forward_v I I I I #
face $-1 $131 $132 $43 $-1 $133 forward single #
loop $-1 $134 $135 $54 #
cone-surface $-1 41.436351298917188 12.142927494814568 4.5574424477083308 -0.77714596973225614 0 -0.62932038083071107 0.62932038083071107 0 -0.77714596973225614 1 I I 0 1 1 forward I I I I #
face $-1 $136 $137 $33 $-1 $138 reversed single #
loop $-1 $-1 $139 $55 #
plane-surface $-1 0 0 -9.8774685506451707 0 0 1 1 0 0 forward_v I I I I #
coedge $-1 $140 $141 $142 $143 forward $56 $-1 #
face $-1 $144 $145 $34 $-1 $146 reversed single #
loop $-1 $-1 $147 $58 #
plane-surface $-1 0 -19.41484989829927 7.2434065998290276 0 -1 0 0 0 -1 forward_v I I I I #
coedge $-1 $148 $149 $150 $151 reversed $59 $-1 #
face $-1 $152 $153 $35 $-1 $154 forward single #
loop $-1 $-1 $155 $61 #
plane-surface $-1 0 19.414849898299273 7.2434065998290276 0 1 0 0 0 1 forward_v I I I I #
coedge $-1 $156 $157 $158 $159 reversed $62 $-1 #
face $-1 $160 $161 $36 $-1 $162 reversed single #
loop $-1 $-1 $163 $64 #
plane-surface $-1 -46.275826288644055 -7.2719224034847016 1.7374701578490956 -0.77714596973225614 0 0.62932038083071107 0.62932038083071107 0 0.77714596973225614 forward_v I I I I #
coedge $-1 $164 $165 $166 $167 reversed $65 $-1 #
face $-1 $-1 $168 $37 $-1 $169 forward single #
loop $-1 $170 $171 $67 #
cone-surface $-1 -39.50412360007028 -7.2719224034847016 2.9927553507541464 0.77714596973225614 0 -0.62932038083071107 0.31466019041535553 0 0.38857298486612807 1 I I -0.70710678118654746 0.70710678118654746 0.5 forward I I I I #
loop $-1 $-1 $172 $48 #
coedge $-1 $108 $108 $173 $174 reversed $68 $-1 #
face $-1 $175 $176 $38 $-1 $177 reversed single #
loop $-1 $-1 $178 $70 #
plane-surface $-1 -46.275826288644055 12.142927494814568 1.7374701578490956 -0.77714596973225614 0 0.62932038083071107 0.62932038083071107 0 0.77714596973225614 forward_v I I I I #
coedge $-1 $179 $180 $181 $182 reversed $71 $-1 #
face $-1 $-1 $183 $39 $-1 $184 forward single #
loop $-1 $185 $186 $73 #
cone-surface $-1 -39.50412360007028 12.142927494814568 2.9927553507541464 0.77714596973225614 0 -0.62932038083071107 0.31466019041535553 0 0.38857298486612807 1 I I -0.70710678118654746 0.70710678118654746 0.5 forward I I I I #
loop $-1 $-1 $187 $50 #
coedge $-1 $117 $117 $188 $189 reversed $74 $-1 #
face $-1 $190 $191 $40 $-1 $192 reversed single #
loop $-1 $-1 $193 $76 #
plane-surface $-1 -11.968814957806565 -7.2719224034847016 73.66361395034852 0.77714596973225614 0 0.62932038083071107 0.62932038083071107 0 -0.77714596973225614 forward_v I I I I #
coedge $-1 $194 $195 $196 $197 reversed $77 $-1 #
face $-1 $-1 $198 $41 $-1 $199 forward single #
loop $-1 $200 $201 $79 #
cone-surface $-1 39.504123600070265 -7.2719224034847016 2.9927553507541642 -0.77714596973225614 0 -0.62932038083071107 0.31466019041535553 0 -0.38857298486612807 1 I I -0.70710678118654746 0.70710678118654746 0.5 forward I I I I #
loop $-1 $-1 $202 $52 #
coedge $-1 $126 $126 $203 $204 reversed $80 $-1 #
face $-1 $205 $206 $42 $-1 $207 reversed single #
loop $-1 $-1 $208 $82 #
plane-surface $-1 -11.968814957806565 12.142927494814568 73.66361395034852 0.77714596973225614 0 0.62932038083071107 0.62932038083071107 0 -0.77714596973225614 forward_v I I I I #
coedge $-1 $209 $210 $211 $212 reversed $83 $-1 #
face $-1 $-1 $213 $43 $-1 $214 forward single #
loop $-1 $215 $216 $85 #
cone-surface $-1 39.504123600070265 12.142927494814568 2.9927553507541642 -0.77714596973225614 0 -0.62932038083071107 0.31466019041535553 0 -0.38857298486612807 1 I I -0.70710678118654746 0.70710678118654746 0.5 forward I I I I #
loop $-1 $-1 $217 $54 #
coedge $-1 $135 $135 $218 $219 reversed $86 $-1 #
face $-1 $220 $221 $33 $-1 $222 reversed single #
loop $-1 $-1 $223 $88 #
plane-surface $-1 0 -26.838623468940181 0 0 1 0 0 0 1 forward_v I I I I #
coedge $-1 $224 $225 $226 $227 forward $89 $-1 #
coedge $-1 $228 $91 $229 $230 forward $56 $-1 #
coedge $-1 $91 $228 $231 $232 forward $56 $-1 #
coedge $-1 $233 $234 $91 $143 reversed $235 $-1 #
edge $-1 $236 -26.838623468940181 $237 26.838623468940181 $142 $238 forward 7 unknown #
face $-1 $239 $240 $34 $-1 $241 reversed single #
loop $-1 $-1 $242 $92 #
plane-surface $-1 -46.275826288644062 0 0 1 0 0 0 0 -1 forward_v I I I I #
coedge $-1 $243 $244 $245 $246 reversed $93 $-1 #
coedge $-1 $247 $95 $248 $249 reversed $59 $-1 #
coedge $-1 $95 $247 $243 $250 forward $59 $-1 #
coedge $-1 $245 $251 $95 $151 forward $252 $-1 #
edge $-1 $253 -15.275255127130318 $254 -7.8514815564894072 $150 $255 forward 7 unknown #
face $-1 $256 $257 $35 $-1 $258 reversed single #
loop $-1 $-1 $259 $96 #
plane-surface $-1 0 0 9.8774685506451707 0 0 1 1 0 0 forward_v I I I I #
coedge $-1 $260 $261 $262 $263 reversed $97 $-1 #
coedge $-1 $264 $99 $260 $265 forward $62 $-1 #
coedge $-1 $99 $264 $266 $267 reversed $62 $-1 #
coedge $-1 $268 $269 $99 $159 forward $257 $-1 #
edge $-1 $270 7.8514815564894089 $271 15.27525512713032 $158 $272 forward 7 unknown #
face $-1 $273 $274 $36 $-1 $275 reversed single #
loop $-1 $-1 $276 $100 #
plane-surface $-1 -118.20197008114349 -3.1378692321438164 59.982111404299708 0 -1 0 0.77714596973225614 0 -0.62932038083071107 forward_v I I I I #
coedge $-1 $277 $278 $279 $280 reversed $101 $-1 #
coedge $-1 $165 $103 $281 $282 reversed $65 $-1 #
coedge $-1 $103 $164 $277 $283 reversed $65 $-1 #
coedge $-1 $279 $284 $103 $167 forward $285 $-1 #
edge $-1 $286 12.825158751927681 $287 19.416799303419801 $166 $288 forward 7 unknown #
loop $-1 $-1 $173 $104 #
plane-surface $-1 -46.275826288644055 -7.2719224034847016 1.7374701578490956 -0.77714596973225614 0 0.62932038083071107 0.62932038083071107 0 0.77714596973225614 forward_v I I I I #
loop $-1 $-1 $289 $67 #
coedge $-1 $171 $171 $172 $290 reversed $105 $-1 #
coedge $-1 $172 $172 $171 $290 forward $107 $-1 #
coedge $-1 $173 $173 $108 $174 forward $168 $-1 #
edge $-1 $291 0 $291 6.2831853071796004 $173 $292 forward 7 unknown #
face $-1 $293 $294 $38 $-1 $295 forward single #
loop $-1 $-1 $296 $109 #
plane-surface $-1 -118.20197008114349 16.276980666155453 59.982111404299708 0 -1 0 0.77714596973225614 0 -0.62932038083071107 forward_v I I I I #
coedge $-1 $297 $298 $299 $300 reversed $110 $-1 #
coedge $-1 $180 $112 $301 $302 reversed $71 $-1 #
coedge $-1 $112 $179 $297 $303 reversed $71 $-1 #
coedge $-1 $299 $304 $112 $182 forward $294 $-1 #
edge $-1 $305 12.825158751927681 $306 19.416799303419801 $181 $307 forward 7 unknown #
loop $-1 $-1 $188 $113 #
plane-surface $-1 -46.275826288644055 12.142927494814568 1.7374701578490956 -0.77714596973225614 0 0.62932038083071107 0.62932038083071107 0 0.77714596973225614 forward_v I I I I #
loop $-1 $-1 $308 $73 #
coedge $-1 $186 $186 $187 $309 reversed $114 $-1 #
coedge $-1 $187 $187 $186 $309 forward $116 $-1 #
coedge $-1 $188 $188 $117 $189 forward $183 $-1 #
edge $-1 $310 0 $310 6.2831853071796004 $188 $311 forward 7 unknown #
face $-1 $312 $313 $40 $-1 $314 forward single #
loop $-1 $-1 $315 $118 #
plane-surface $-1 59.957328834692866 -11.405975574825586 131.90825519679913 0 1 0 0.77714596973225614 0 0.62932038083071107 forward_v I I I I #
coedge $-1 $316 $317 $318 $319 reversed $119 $-1 #
coedge $-1 $195 $121 $320 $321 reversed $77 $-1 #
coedge $-1 $121 $194 $316 $322 reversed $77 $-1 #
coedge $-1 $318 $323 $121 $197 forward $313 $-1 #
edge $-1 $324 -16.297161871297629 $325 -9.7055213198055021 $196 $326 forward 7 unknown #
loop $-1 $-1 $203 $122 #
plane-surface $-1 -11.968814957806565 -7.2719224034847016 73.66361395034852 0.77714596973225614 0 0.62932038083071107 0.62932038083071107 0 -0.77714596973225614 forward_v I I I I #
loop $-1 $-1 $327 $79 #
coedge $-1 $201 $201 $202 $328 reversed $123 $-1 #
coedge $-1 $202 $202 $201 $328 forward $125 $-1 #
coedge $-1 $203 $203 $126 $204 forward $198 $-1 #
edge $-1 $329 0 $329 6.2831853071796004 $203 $330 forward 7 unknown #
face $-1 $331 $332 $42 $-1 $333 reversed single #
loop $-1 $-1 $334 $127 #
plane-surface $-1 59.957328834692866 8.0088743234736839 131.90825519679913 0 1 0 0.77714596973225614 0 0.62932038083071107 forward_v I I I I #
coedge $-1 $335 $336 $337 $338 reversed $128 $-1 #
coedge $-1 $210 $130 $339 $340 reversed $83 $-1 #
coedge $-1 $130 $209 $335 $341 reversed $83 $-1 #
coedge $-1 $337 $342 $130 $212 forward $343 $-1 #
edge $-1 $344 -16.297161871297629 $345 -9.7055213198055021 $211 $346 forward 7 unknown #
loop $-1 $-1 $218 $131 #
plane-surface $-1 -11.968814957806565 12.142927494814568 73.66361395034852 0.77714596973225614 0 0.62932038083071107 0.62932038083071107 0 -0.77714596973225614 forward_v I I I I #
loop $-1 $-1 $347 $85 #
coedge $-1 $216 $216 $217 $348 reversed $132 $-1 #
coedge $-1 $217 $217 $216 $348 forward $134 $-1 #
coedge $-1 $218 $218 $135 $219 forward $213 $-1 #
edge $-1 $349 0 $349 6.2831853071796004 $218 $350 forward 7 unknown #
face $-1 $351 $352 $33 $-1 $353 reversed single #
loop $-1 $-1 $354 $136 #
plane-surface $-1 -46.275826288644062 0 0 1 0 0 0 0 -1 forward_v I I I I #
coedge $-1 $355 $231 $356 $357 forward $137 $-1 #
coedge $-1 $358 $139 $355 $359 forward $89 $-1 #
coedge $-1 $139 $358 $360 $361 forward $89 $-1 #
coedge $-1 $234 $233 $139 $227 reversed $235 $-1 #
edge $-1 $362 -26.838623468940181 $363 26.838623468940181 $226 $364 forward 7 unknown #
coedge $-1 $141 $140 $365 $366 forward $56 $-1 #
coedge $-1 $367 $368 $140 $230 reversed $352 $-1 #
edge $-1 $237 -46.275826288644062 $369 46.275826288644062 $229 $370 forward 7 unknown #
coedge $-1 $223 $371 $141 $232 reversed $137 $-1 #
edge $-1 $372 -46.275826288644062 $236 46.275826288644062 $231 $373 forward 7 unknown #
coedge $-1 $226 $142 $371 $374 forward $235 $-1 #
coedge $-1 $142 $226 $367 $375 reversed $235 $-1 #
loop $-1 $-1 $233 $351 #
vertex $-1 $143 $376 #
vertex $-1 $143 $377 #
straight-curve $-1 46.275826288644062 0 9.8774685506451707 0 1 0 I I #
face $-1 $378 $379 $34 $-1 $380 forward single #
loop $-1 $-1 $248 $144 #
plane-surface $-1 0 -26.838623468940181 0 0 1 0 0 0 1 forward_v I I I I #
coedge $-1 $381 $382 $383 $384 forward $145 $-1 #
coedge $-1 $383 $147 $149 $250 reversed $93 $-1 #
coedge $-1 $147 $383 $385 $386 reversed $93 $-1 #
coedge $-1 $387 $150 $147 $246 forward $252 $-1 #
edge $-1 $254 0.98764134909837065 $388 6.2557652507306569 $245 $389 forward 7 unknown #
coedge $-1 $149 $148 $381 $390 reversed $59 $-1 #
coedge $-1 $391 $392 $148 $249 forward $240 $-1 #
edge $-1 $393 -46.275826288644062 $253 46.275826288644062 $248 $394 forward 7 unknown #
edge $-1 $395 -46.275826288644062 $254 46.275826288644062 $243 $396 forward 7 unknown #
coedge $-1 $150 $387 $391 $397 forward $252 $-1 #
loop $-1 $-1 $245 $378 #
vertex $-1 $249 $398 #
vertex $-1 $151 $399 #
straight-curve $-1 46.275826288644062 -11.563368341809863 4.6093446490128844 0 1 0 I I #
face $-1 $400 $401 $35 $-1 $402 reversed single #
loop $-1 $-1 $269 $152 #
plane-surface $-1 46.275826288644062 0 0 -1 0 0 0 0 1 forward_v I I I I #
coedge $-1 $403 $404 $261 $405 forward $153 $-1 #
coedge $-1 $406 $155 $156 $265 reversed $97 $-1 #
coedge $-1 $155 $406 $259 $405 reversed $97 $-1 #
coedge $-1 $407 $408 $155 $263 forward $401 $-1 #
edge $-1 $409 0.98764134909837065 $410 6.2557652507306569 $262 $411 forward 7 unknown #
coedge $-1 $157 $156 $408 $412 reversed $62 $-1 #
edge $-1 $270 -46.275826288644062 $409 46.275826288644062 $260 $413 forward 7 unknown #
coedge $-1 $414 $415 $157 $267 forward $416 $-1 #
edge $-1 $271 -46.275826288644062 $417 46.275826288644062 $266 $418 forward 7 unknown #
coedge $-1 $419 $158 $415 $420 reversed $257 $-1 #
coedge $-1 $158 $419 $406 $421 forward $257 $-1 #
vertex $-1 $159 $422 #
vertex $-1 $267 $423 #
straight-curve $-1 46.275826288644062 11.563368341809865 4.6093446490128844 0 1 0 I I #
face $-1 $-1 $285 $36 $-1 $424 forward single #
loop $-1 $-1 $425 $160 #
plane-surface $-1 -46.275826288644062 0 0 1 0 0 0 0 -1 forward_v I I I I #
coedge $-1 $426 $427 $428 $429 reversed $161 $-1 #
coedge $-1 $430 $163 $165 $283 forward $101 $-1 #
coedge $-1 $163 $430 $426 $431 forward $101 $-1 #
coedge $-1 $428 $166 $163 $280 forward $285 $-1 #
edge $-1 $287 -7.7700143730832352 $432 0.49809196959853441 $279 $433 forward 7 unknown #
coedge $-1 $434 $435 $164 $282 forward $274 $-1 #
edge $-1 $436 -28.253585544300769 $286 -20.113587151504682 $281 $437 forward 7 unknown #
edge $-1 $287 -10.474220686752687 $436 1.1374033043381581e-014 $165 $438 forward 7 unknown #
coedge $-1 $166 $428 $434 $439 forward $285 $-1 #
loop $-1 $-1 $428 $273 #
vertex $-1 $282 $440 #
vertex $-1 $167 $441 #
straight-curve $-1 -59.100985040571743 -11.405975574825586 9.8774685506451689 1 0 0 I I #
coedge $-1 $289 $289 $-1 $442 reversed $170 $-1 #
edge $-1 $443 0 $443 6.2831853071796004 $171 $444 forward 7 unknown #
vertex $-1 $174 $445 #
ellipse-curve $-1 -42.980006012898002 -7.2719224034847016 5.8074693542471278 -0.77714596973225614 0 0.62932038083071107 0.62932038083071107 0 0.77714596973225614 1 I I #
face $-1 $-1 $446 $38 $-1 $447 reversed single #
loop $-1 $-1 $181 $175 #
plane-surface $-1 0 0 9.8774685506451707 0 0 1 1 0 0 forward_v I I I I #
coedge $-1 $448 $449 $450 $451 reversed $176 $-1 #
coedge $-1 $452 $178 $180 $303 forward $110 $-1 #
coedge $-1 $178 $452 $448 $453 forward $110 $-1 #
coedge $-1 $450 $181 $178 $300 forward $294 $-1 #
edge $-1 $306 1.9374105760663998 $454 10.205516918748168 $299 $455 forward 7 unknown #
coedge $-1 $456 $457 $179 $302 forward $446 $-1 #
edge $-1 $458 -28.253585544300769 $305 -20.113587151504682 $301 $459 forward 7 unknown #
edge $-1 $306 -10.474220686752687 $458 1.1374033043381581e-014 $180 $460 forward 7 unknown #
coedge $-1 $181 $450 $456 $461 forward $294 $-1 #
vertex $-1 $182 $462 #
vertex $-1 $182 $463 #
straight-curve $-1 -59.100985040571743 8.0088743234736839 9.8774685506451689 1 0 0 I I #
coedge $-1 $308 $308 $-1 $464 reversed $185 $-1 #
edge $-1 $465 0 $465 6.2831853071796004 $186 $466 forward 7 unknown #
vertex $-1 $189 $467 #
ellipse-curve $-1 -42.980006012898002 12.142927494814568 5.8074693542471278 -0.77714596973225614 0 0.62932038083071107 0.62932038083071107 0 0.77714596973225614 1 I I #
face $-1 $-1 $468 $40 $-1 $469 reversed single #
loop $-1 $-1 $196 $190 #
plane-surface $-1 0 0 9.8774685506451707 0 0 1 1 0 0 forward_v I I I I #
coedge $-1 $470 $471 $472 $473 reversed $191 $-1 #
coedge $-1 $474 $193 $195 $322 forward $119 $-1 #
coedge $-1 $193 $474 $470 $475 forward $119 $-1 #
coedge $-1 $472 $196 $193 $319 forward $313 $-1 #
edge $-1 $325 -0.49809196959853441 $476 7.7700143730832352 $318 $477 forward 7 unknown #
coedge $-1 $478 $479 $194 $321 forward $468 $-1 #
edge $-1 $480 -64.216657440550492 $324 -56.076659047754397 $320 $481 forward 7 unknown #
edge $-1 $325 82.077431890535422 $480 92.551652577288138 $195 $482 forward 7 unknown #
coedge $-1 $196 $472 $478 $483 forward $313 $-1 #
vertex $-1 $321 $484 #
vertex $-1 $197 $485 #
straight-curve $-1 29.978664417346433 -3.1378692321438164 9.8774685506451689 -1 0 0 I I #
coedge $-1 $327 $327 $-1 $486 reversed $200 $-1 #
edge $-1 $487 0 $487 6.2831853071796004 $201 $488 forward 7 unknown #
vertex $-1 $204 $489 #
ellipse-curve $-1 42.980006012897981 -7.2719224034847016 5.8074693542471385 0.77714596973225614 0 0.62932038083071107 0.62932038083071107 0 -0.77714596973225614 1 I I #
face $-1 $-1 $343 $42 $-1 $490 forward single #
loop $-1 $-1 $491 $205 #
plane-surface $-1 46.275826288644062 0 0 -1 0 0 0 0 1 forward_v I I I I #
coedge $-1 $492 $493 $494 $495 reversed $206 $-1 #
coedge $-1 $496 $208 $210 $341 forward $128 $-1 #
coedge $-1 $208 $496 $492 $497 forward $128 $-1 #
coedge $-1 $494 $211 $208 $338 forward $343 $-1 #
edge $-1 $345 -10.205516918748168 $498 -1.9374105760663998 $337 $499 forward 7 unknown #
coedge $-1 $500 $501 $209 $340 forward $332 $-1 #
edge $-1 $502 -64.216657440550492 $344 -56.076659047754397 $339 $503 forward 7 unknown #
edge $-1 $345 82.077431890535422 $502 92.551652577288138 $210 $504 forward 7 unknown #
coedge $-1 $211 $494 $500 $505 forward $343 $-1 #
loop $-1 $-1 $494 $331 #
vertex $-1 $340 $506 #
vertex $-1 $212 $507 #
straight-curve $-1 29.978664417346433 16.276980666155453 9.8774685506451689 -1 0 0 I I #
coedge $-1 $347 $347 $-1 $508 reversed $215 $-1 #
edge $-1 $509 0 $509 6.2831853071796004 $216 $510 forward 7 unknown #
vertex $-1 $219 $511 #
ellipse-curve $-1 42.980006012897981 12.142927494814568 5.8074693542471385 0.77714596973225614 0 0.62932038083071107 0.62932038083071107 0 -0.77714596973225614 1 I I #
face $-1 $-1 $235 $33 $-1 $512 reversed single #
loop $-1 $-1 $367 $220 #
plane-surface $-1 0 26.838623468940181 0 0 -1 0 0 0 -1 forward_v I I I I #
coedge $-1 $513 $365 $368 $514 forward $221 $-1 #
coedge $-1 $371 $223 $224 $359 reversed $137 $-1 #
coedge $-1 $365 $513 $223 $357 reversed $221 $-1 #
edge $-1 $372 -9.8774685506451707 $515 9.8774685506451707 $356 $516 forward 7 unknown #
coedge $-1 $225 $224 $513 $517 forward $89 $-1 #
edge $-1 $363 -46.275826288644062 $515 46.275826288644062 $355 $518 forward 7 unknown #
coedge $-1 $368 $367 $225 $361 reversed $352 $-1 #
edge $-1 $519 -46.275826288644062 $362 46.275826288644062 $360 $520 forward 7 unknown #
vertex $-1 $227 $521 #
vertex $-1 $374 $522 #
straight-curve $-1 46.275826288644062 0 -9.8774685506451707 0 -1 0 I I #
coedge $-1 $354 $356 $228 $366 reversed $221 $-1 #
edge $-1 $369 -26.838623468940181 $372 26.838623468940181 $365 $523 forward 7 unknown #
coedge $-1 $360 $229 $234 $375 forward $352 $-1 #
coedge $-1 $229 $360 $354 $514 reversed $352 $-1 #
vertex $-1 $230 $524 #
straight-curve $-1 0 26.838623468940181 9.8774685506451707 -1 0 0 I I #
coedge $-1 $231 $355 $233 $374 reversed $137 $-1 #
vertex $-1 $366 $525 #
straight-curve $-1 0 -26.838623468940181 9.8774685506451707 1 0 0 I I #
edge $-1 $236 -9.8774685506451707 $363 9.8774685506451707 $233 $526 forward 7 unknown #
edge $-1 $237 -9.8774685506451707 $362 9.8774685506451707 $234 $527 forward 7 unknown #
point $-1 46.275826288644062 -26.838623468940181 9.8774685506451707 #
point $-1 46.275826288644062 26.838623468940181 9.8774685506451707 #
face $-1 $-1 $252 $34 $-1 $528 reversed single #
loop $-1 $-1 $385 $239 #
plane-surface $-1 0 0 9.8774685506451707 0 0 1 1 0 0 forward_v I I I I #
coedge $-1 $529 $242 $247 $390 forward $145 $-1 #
coedge $-1 $242 $529 $530 $531 reversed $145 $-1 #
coedge $-1 $244 $243 $242 $384 reversed $93 $-1 #
edge $-1 $532 -6.2557652507306569 $395 -0.98764134909837065 $242 $533 forward 7 unknown #
coedge $-1 $530 $534 $244 $386 forward $379 $-1 #
edge $-1 $388 -46.275826288644062 $532 46.275826288644062 $385 $535 forward 7 unknown #
coedge $-1 $251 $245 $534 $536 reversed $252 $-1 #
vertex $-1 $246 $537 #
straight-curve $-1 46.275826288644062 -19.41484989829927 3.6217032999145138 0 0 1 I I #
edge $-1 $395 7.8514815564894072 $393 15.275255127130318 $381 $538 forward 7 unknown #
coedge $-1 $539 $248 $251 $397 reversed $240 $-1 #
coedge $-1 $248 $539 $529 $540 forward $240 $-1 #
vertex $-1 $249 $541 #
straight-curve $-1 0 -26.838623468940181 4.6093446490128844 1 0 0 I I #
vertex $-1 $390 $542 #
straight-curve $-1 0 -19.41484989829927 4.6093446490128844 1 0 0 I I #
edge $-1 $543 -9.8774685506451707 $253 -4.6093446490128844 $251 $544 forward 7 unknown #
point $-1 46.275826288644062 -26.838623468940181 4.6093446490128844 #
point $-1 46.275826288644062 -19.41484989829927 4.6093446490128844 #
face $-1 $-1 $416 $35 $-1 $545 reversed single #
loop $-1 $-1 $262 $256 #
plane-surface $-1 -46.275826288644062 0 0 1 0 0 0 0 -1 forward_v I I I I #
coedge $-1 $546 $259 $419 $547 forward $153 $-1 #
coedge $-1 $259 $546 $407 $548 forward $153 $-1 #
edge $-1 $410 -46.275826288644062 $549 46.275826288644062 $259 $550 forward 7 unknown #
coedge $-1 $261 $260 $269 $421 reversed $97 $-1 #
coedge $-1 $551 $262 $404 $548 reversed $401 $-1 #
coedge $-1 $262 $551 $264 $412 forward $401 $-1 #
vertex $-1 $412 $552 #
vertex $-1 $263 $553 #
straight-curve $-1 -46.275826288644062 19.414849898299273 3.6217032999145138 0 0 1 I I #
edge $-1 $417 -15.27525512713032 $409 -7.8514815564894089 $408 $554 forward 7 unknown #
straight-curve $-1 0 19.414849898299273 4.6093446490128844 -1 0 0 I I #
coedge $-1 $555 $266 $551 $556 reversed $416 $-1 #
coedge $-1 $266 $555 $268 $420 forward $416 $-1 #
loop $-1 $-1 $266 $400 #
vertex $-1 $267 $557 #
straight-curve $-1 0 26.838623468940181 4.6093446490128844 -1 0 0 I I #
coedge $-1 $269 $268 $403 $547 reversed $257 $-1 #
edge $-1 $558 -9.8774685506451707 $271 -4.6093446490128844 $268 $559 forward 7 unknown #
edge $-1 $549 -6.2557652507306569 $270 -0.98764134909837065 $269 $560 forward 7 unknown #
point $-1 46.275826288644062 19.414849898299273 4.6093446490128844 #
point $-1 46.275826288644062 26.838623468940185 4.6093446490128844 #
plane-surface $-1 0 0 9.8774685506451707 0 0 1 1 0 0 forward_v I I I I #
coedge $-1 $435 $434 $427 $561 forward $274 $-1 #
coedge $-1 $427 $276 $278 $431 reversed $161 $-1 #
coedge $-1 $276 $426 $425 $561 reversed $161 $-1 #
coedge $-1 $284 $279 $276 $429 forward $285 $-1 #
edge $-1 $432 -19.416799303419801 $562 -12.825158751927681 $428 $563 forward 7 unknown #
coedge $-1 $278 $277 $435 $564 reversed $101 $-1 #
edge $-1 $565 -1.1374033043381581e-014 $432 10.474220686752687 $426 $566 forward 7 unknown #
vertex $-1 $280 $567 #
straight-curve $-1 -39.684185737151942 -3.6359612017423508 9.8774685506451689 0 1 0 I I #
coedge $-1 $425 $281 $284 $439 reversed $274 $-1 #
coedge $-1 $281 $425 $430 $564 forward $274 $-1 #
vertex $-1 $282 $568 #
straight-curve $-1 -46.275826288644062 -11.405975574825586 29.991055702149854 0 0 1 I I #
straight-curve $-1 -46.275826288644055 -11.405975574825586 1.7374701578490956 -0.62932038083071107 0 -0.77714596973225614 I I #
edge $-1 $562 3.1378692321438164 $286 11.405975574825586 $434 $569 forward 7 unknown #
point $-1 -46.275826288644062 -11.405975574825586 9.8774685506451707 #
point $-1 -39.684185737151942 -11.405975574825586 9.8774685506451707 #
edge $-1 $570 1 $570 0 $289 $-1 forward 7 unknown #
vertex $-1 $290 $571 #
ellipse-curve $-1 -39.892696584936409 -7.2719224034847016 3.3074155411695019 -0.77714596973225614 0 0.62932038083071107 0.62932038083071107 0 0.77714596973225614 1 I I #
point $-1 -42.35068563206729 -7.2719224034847016 6.5846153239793814 #
loop $-1 $-1 $301 $293 #
plane-surface $-1 -46.275826288644062 0 0 1 0 0 0 0 -1 forward_v I I I I #
coedge $-1 $449 $296 $298 $453 reversed $176 $-1 #
coedge $-1 $296 $448 $572 $573 reversed $176 $-1 #
coedge $-1 $304 $299 $296 $451 forward $294 $-1 #
edge $-1 $454 -19.416799303419801 $574 -12.825158751927681 $450 $575 forward 7 unknown #
coedge $-1 $298 $297 $457 $576 reversed $110 $-1 #
edge $-1 $577 -1.1374033043381581e-014 $454 10.474220686752687 $448 $578 forward 7 unknown #
vertex $-1 $300 $579 #
straight-curve $-1 -39.684185737151942 6.0714637474072841 9.8774685506451689 0 1 0 I I #
coedge $-1 $572 $301 $304 $461 reversed $446 $-1 #
coedge $-1 $301 $572 $452 $576 forward $446 $-1 #
vertex $-1 $302 $580 #
straight-curve $-1 -46.275826288644062 8.0088743234736839 29.991055702149854 0 0 1 I I #
straight-curve $-1 -46.275826288644055 8.0088743234736839 1.7374701578490956 -0.62932038083071107 0 -0.77714596973225614 I I #
edge $-1 $574 -16.276980666155453 $305 -8.0088743234736839 $456 $581 forward 7 unknown #
point $-1 -46.275826288644062 8.0088743234736839 9.8774685506451707 #
point $-1 -39.684185737151942 8.0088743234736839 9.8774685506451707 #
edge $-1 $582 1 $582 0 $308 $-1 forward 7 unknown #
vertex $-1 $309 $583 #
ellipse-curve $-1 -39.892696584936409 12.142927494814568 3.3074155411695019 -0.77714596973225614 0 0.62932038083071107 0.62932038083071107 0 0.77714596973225614 1 I I #
point $-1 -42.35068563206729 12.142927494814568 6.5846153239793814 #
loop $-1 $-1 $320 $312 #
plane-surface $-1 46.275826288644062 0 0 -1 0 0 0 0 1 forward_v I I I I #
coedge $-1 $471 $315 $317 $475 reversed $191 $-1 #
coedge $-1 $315 $470 $584 $585 reversed $191 $-1 #
coedge $-1 $323 $318 $315 $473 forward $313 $-1 #
edge $-1 $476 9.7055213198055021 $586 16.297161871297629 $472 $587 forward 7 unknown #
coedge $-1 $317 $316 $479 $588 reversed $119 $-1 #
edge $-1 $589 -92.551652577288138 $476 -82.077431890535422 $470 $590 forward 7 unknown #
vertex $-1 $319 $591 #
straight-curve $-1 39.684185737151935 -3.6359612017423508 9.8774685506451689 0 -1 0 I I #
coedge $-1 $584 $320 $323 $483 reversed $468 $-1 #
coedge $-1 $320 $584 $474 $588 forward $468 $-1 #
vertex $-1 $321 $592 #
straight-curve $-1 46.275826288644062 -3.1378692321438164 65.954127598399566 0 0 1 I I #
straight-curve $-1 -11.968814957806565 -3.1378692321438164 73.66361395034852 0.62932038083071107 0 -0.77714596973225614 I I #
edge $-1 $586 -11.405975574825586 $324 -3.1378692321438164 $478 $593 forward 7 unknown #
point $-1 46.275826288644062 -3.1378692321438164 9.8774685506451707 #
point $-1 39.684185737151935 -3.1378692321438164 9.8774685506451618 #
edge $-1 $594 1 $594 0 $327 $-1 forward 7 unknown #
vertex $-1 $328 $595 #
ellipse-curve $-1 39.892696584936395 -7.2719224034847016 3.3074155411695196 0.77714596973225614 0 0.62932038083071107 0.62932038083071107 0 -0.77714596973225614 1 I I #
point $-1 43.609326393728693 -7.2719224034847016 5.0303233845148867 #
plane-surface $-1 0 0 9.8774685506451707 0 0 1 1 0 0 forward_v I I I I #
coedge $-1 $501 $500 $493 $596 forward $332 $-1 #
coedge $-1 $493 $334 $336 $497 reversed $206 $-1 #
coedge $-1 $334 $492 $491 $596 reversed $206 $-1 #
coedge $-1 $342 $337 $334 $495 forward $343 $-1 #
edge $-1 $498 9.7055213198055021 $597 16.297161871297629 $494 $598 forward 7 unknown #
coedge $-1 $336 $335 $501 $599 reversed $128 $-1 #
edge $-1 $600 -92.551652577288138 $498 -82.077431890535422 $492 $601 forward 7 unknown #
vertex $-1 $338 $602 #
straight-curve $-1 39.684185737151935 6.0714637474072841 9.8774685506451689 0 -1 0 I I #
coedge $-1 $491 $339 $342 $505 reversed $332 $-1 #
coedge $-1 $339 $491 $496 $599 forward $332 $-1 #
vertex $-1 $340 $603 #
straight-curve $-1 46.275826288644062 16.276980666155453 65.954127598399566 0 0 1 I I #
straight-curve $-1 -11.968814957806565 16.276980666155453 73.66361395034852 0.62932038083071107 0 -0.77714596973225614 I I #
edge $-1 $597 8.0088743234736839 $344 16.276980666155453 $500 $604 forward 7 unknown #
point $-1 46.275826288644062 16.276980666155453 9.8774685506451707 #
point $-1 39.684185737151935 16.276980666155453 9.8774685506451618 #
edge $-1 $605 1 $605 0 $347 $-1 forward 7 unknown #
vertex $-1 $348 $606 #
ellipse-curve $-1 39.892696584936395 12.142927494814568 3.3074155411695196 0.77714596973225614 0 0.62932038083071107 0.62932038083071107 0 -0.77714596973225614 1 I I #
point $-1 43.609326393728693 12.142927494814568 5.0303233845148867 #
plane-surface $-1 46.275826288644062 0 0 -1 0 0 0 0 1 forward_v I I I I #
coedge $-1 $356 $354 $358 $517 reversed $221 $-1 #
edge $-1 $369 -9.8774685506451707 $519 9.8774685506451707 $368 $607 forward 7 unknown #
vertex $-1 $517 $608 #
straight-curve $-1 -46.275826288644062 -26.838623468940181 0 0 0 -1 I I #
edge $-1 $515 -26.838623468940181 $519 26.838623468940181 $513 $609 forward 7 unknown #
straight-curve $-1 0 -26.838623468940181 -9.8774685506451707 -1 0 0 I I #
vertex $-1 $361 $610 #
straight-curve $-1 0 26.838623468940181 -9.8774685506451707 1 0 0 I I #
point $-1 46.275826288644062 26.838623468940181 -9.8774685506451707 #
point $-1 46.275826288644062 -26.838623468940181 -9.8774685506451707 #
straight-curve $-1 -46.275826288644062 0 9.8774685506451707 0 -1 0 I I #
point $-1 -46.275826288644062 26.838623468940181 9.8774685506451707 #
point $-1 -46.275826288644062 -26.838623468940181 9.8774685506451707 #
straight-curve $-1 46.275826288644062 -26.838623468940181 0 0 0 -1 I I #
straight-curve $-1 46.275826288644062 26.838623468940181 0 0 0 -1 I I #
plane-surface $-1 46.275826288644062 0 0 -1 0 0 0 0 1 forward_v I I I I #
coedge $-1 $382 $381 $392 $540 reversed $145 $-1 #
coedge $-1 $611 $385 $382 $531 forward $379 $-1 #
edge $-1 $532 19.41484989829927 $612 26.838623468940181 $382 $613 forward 7 unknown #
vertex $-1 $531 $614 #
straight-curve $-1 -46.275826288644062 -19.41484989829927 3.6217032999145138 0 0 -1 I I #
coedge $-1 $385 $611 $387 $536 forward $379 $-1 #
straight-curve $-1 0 -19.41484989829927 9.8774685506451707 -1 0 0 I I #
edge $-1 $543 -26.838623468940181 $388 -19.41484989829927 $387 $615 forward 7 unknown #
point $-1 46.275826288644062 -19.41484989829927 9.8774685506451707 #
straight-curve $-1 -46.275826288644062 -11.563368341809863 4.6093446490128844 0 -1 0 I I #
coedge $-1 $392 $391 $611 $616 reversed $240 $-1 #
edge $-1 $612 -9.8774685506451707 $393 -4.6093446490128844 $529 $617 forward 7 unknown #
point $-1 -46.275826288644062 -26.838623468940181 4.6093446490128844 #
point $-1 -46.275826288644062 -19.41484989829927 4.6093446490128844 #
vertex $-1 $536 $618 #
straight-curve $-1 46.275826288644062 -26.838623468940181 0 0 0 -1 I I #
plane-surface $-1 0 26.838623468940181 0 0 -1 0 0 0 -1 forward_v I I I I #
coedge $-1 $404 $403 $555 $619 forward $153 $-1 #
edge $-1 $549 19.414849898299273 $558 26.838623468940181 $419 $620 forward 7 unknown #
edge $-1 $621 -26.838623468940181 $410 -19.414849898299273 $407 $622 forward 7 unknown #
vertex $-1 $547 $623 #
straight-curve $-1 0 19.414849898299273 9.8774685506451707 1 0 0 I I #
coedge $-1 $408 $407 $414 $556 forward $401 $-1 #
point $-1 -46.275826288644062 19.414849898299273 4.6093446490128844 #
point $-1 -46.275826288644062 19.414849898299273 9.8774685506451707 #
straight-curve $-1 -46.275826288644062 11.563368341809865 4.6093446490128844 0 -1 0 I I #
coedge $-1 $415 $414 $546 $619 reversed $416 $-1 #
edge $-1 $621 -9.8774685506451707 $417 -4.6093446490128844 $414 $624 forward 7 unknown #
point $-1 -46.275826288644062 26.838623468940185 4.6093446490128844 #
vertex $-1 $547 $625 #
straight-curve $-1 46.275826288644062 26.838623468940181 0 0 0 -1 I I #
straight-curve $-1 46.275826288644062 19.414849898299273 3.6217032999145138 0 0 -1 I I #
edge $-1 $562 20.113587151504682 $565 28.253585544300769 $425 $626 forward 7 unknown #
vertex $-1 $439 $627 #
straight-curve $-1 -59.100985040571743 -3.1378692321438164 9.8774685506451689 -1 0 0 I I #
edge $-1 $565 -0.49809196959853441 $436 7.7700143730832352 $435 $628 forward 7 unknown #
vertex $-1 $564 $629 #
straight-curve $-1 -46.275826288644055 -3.1378692321438164 1.7374701578490956 0.62932038083071107 0 0.77714596973225614 I I #
point $-1 -39.684185737151942 -3.1378692321438164 9.8774685506451707 #
point $-1 -46.275826288644062 -11.405975574825586 1.7374701578490868 #
straight-curve $-1 -46.275826288644062 0 9.8774685506451707 0 -1 0 I I #
vertex $-1 $442 $630 #
point $-1 -39.263376204105697 -7.2719224034847016 4.0845615109017581 #
coedge $-1 $457 $456 $449 $573 forward $446 $-1 #
edge $-1 $574 20.113587151504682 $577 28.253585544300769 $572 $631 forward 7 unknown #
vertex $-1 $461 $632 #
straight-curve $-1 -59.100985040571743 16.276980666155453 9.8774685506451689 -1 0 0 I I #
edge $-1 $577 -10.205516918748168 $458 -1.9374105760663998 $457 $633 forward 7 unknown #
vertex $-1 $576 $634 #
straight-curve $-1 -46.275826288644055 16.276980666155453 1.7374701578490956 0.62932038083071107 0 0.77714596973225614 I I #
point $-1 -39.684185737151942 16.276980666155453 9.8774685506451707 #
point $-1 -46.275826288644062 8.0088743234736839 1.7374701578490868 #
straight-curve $-1 -46.275826288644062 0 9.8774685506451707 0 -1 0 I I #
vertex $-1 $464 $635 #
point $-1 -39.263376204105697 12.142927494814568 4.0845615109017581 #
coedge $-1 $479 $478 $471 $585 forward $468 $-1 #
edge $-1 $586 56.076659047754397 $589 64.216657440550492 $584 $636 forward 7 unknown #
vertex $-1 $483 $637 #
straight-curve $-1 29.978664417346433 -11.405975574825586 9.8774685506451689 1 0 0 I I #
edge $-1 $589 -7.7700143730832352 $480 0.49809196959853441 $479 $638 forward 7 unknown #
vertex $-1 $588 $639 #
straight-curve $-1 -11.968814957806565 -11.405975574825586 73.66361395034852 -0.62932038083071107 0 0.77714596973225614 I I #
point $-1 39.684185737151935 -11.405975574825586 9.8774685506451618 #
point $-1 46.275826288644062 -3.1378692321438164 1.7374701578490743 #
straight-curve $-1 46.275826288644062 0 9.8774685506451707 0 1 0 I I #
vertex $-1 $486 $640 #
point $-1 40.522016965767108 -7.2719224034847016 2.5302695714372634 #
edge $-1 $597 56.076659047754397 $600 64.216657440550492 $491 $641 forward 7 unknown #
vertex $-1 $505 $642 #
straight-curve $-1 29.978664417346433 8.0088743234736839 9.8774685506451689 1 0 0 I I #
edge $-1 $600 1.9374105760663998 $502 10.205516918748168 $501 $643 forward 7 unknown #
vertex $-1 $599 $644 #
straight-curve $-1 -11.968814957806565 8.0088743234736839 73.66361395034852 -0.62932038083071107 0 0.77714596973225614 I I #
point $-1 39.684185737151935 8.0088743234736839 9.8774685506451618 #
point $-1 46.275826288644062 16.276980666155453 1.7374701578490743 #
straight-curve $-1 46.275826288644062 0 9.8774685506451707 0 1 0 I I #
vertex $-1 $508 $645 #
point $-1 40.522016965767108 12.142927494814568 2.5302695714372634 #
straight-curve $-1 -46.275826288644062 26.838623468940181 0 0 0 -1 I I #
point $-1 -46.275826288644062 -26.838623468940181 -9.8774685506451707 #
straight-curve $-1 -46.275826288644062 0 -9.8774685506451707 0 1 0 I I #
point $-1 -46.275826288644062 26.838623468940181 -9.8774685506451707 #
coedge $-1 $534 $530 $539 $616 forward $379 $-1 #
vertex $-1 $531 $646 #
straight-curve $-1 -46.275826288644062 0 9.8774685506451707 0 -1 0 I I #
point $-1 -46.275826288644062 -19.41484989829927 9.8774685506451707 #
straight-curve $-1 46.275826288644062 0 9.8774685506451707 0 1 0 I I #
edge $-1 $612 -46.275826288644062 $543 46.275826288644062 $539 $647 forward 7 unknown #
straight-curve $-1 -46.275826288644062 -26.838623468940181 0 0 0 -1 I I #
point $-1 46.275826288644062 -26.838623468940181 9.8774685506451707 #
edge $-1 $558 -46.275826288644062 $621 46.275826288644062 $555 $648 forward 7 unknown #
straight-curve $-1 46.275826288644062 0 9.8774685506451707 0 1 0 I I #
vertex $-1 $619 $649 #
straight-curve $-1 -46.275826288644062 0 9.8774685506451707 0 -1 0 I I #
point $-1 46.275826288644062 19.414849898299273 9.8774685506451707 #
straight-curve $-1 -46.275826288644062 26.838623468940181 0 0 0 -1 I I #
point $-1 46.275826288644062 26.838623468940181 9.8774685506451707 #
straight-curve $-1 -46.275826288644062 -3.1378692321438164 29.991055702149854 0 0 -1 I I #
point $-1 -46.275826288644062 -3.1378692321438164 9.8774685506451707 #
straight-curve $-1 -46.275826288644062 -3.6359612017423508 1.7374701578490832 0 -1 0 I I #
point $-1 -46.275826288644062 -3.1378692321438164 1.7374701578490868 #
point $-1 -39.11555061520415 -7.2719224034847016 2.678095160338791 #
straight-curve $-1 -46.275826288644062 16.276980666155453 29.991055702149854 0 0 -1 I I #
point $-1 -46.275826288644062 16.276980666155453 9.8774685506451707 #
straight-curve $-1 -46.275826288644062 6.0714637474072841 1.7374701578490832 0 -1 0 I I #
point $-1 -46.275826288644062 16.276980666155453 1.7374701578490868 #
point $-1 -39.11555061520415 12.142927494814568 2.678095160338791 #
straight-curve $-1 46.275826288644062 -11.405975574825586 65.954127598399566 0 0 -1 I I #
point $-1 46.275826288644062 -11.405975574825586 9.8774685506451707 #
straight-curve $-1 46.275826288644055 -3.6359612017423508 1.7374701578490743 0 1 0 I I #
point $-1 46.275826288644062 -11.405975574825586 1.7374701578490743 #
point $-1 39.115550615204135 -7.2719224034847016 2.6780951603388088 #
straight-curve $-1 46.275826288644062 8.0088743234736839 65.954127598399566 0 0 -1 I I #
point $-1 46.275826288644062 8.0088743234736839 9.8774685506451707 #
straight-curve $-1 46.275826288644055 6.0714637474072841 1.7374701578490743 0 1 0 I I #
point $-1 46.275826288644062 8.0088743234736839 1.7374701578490743 #
point $-1 39.115550615204135 12.142927494814568 2.6780951603388088 #
point $-1 -46.275826288644062 -26.838623468940181 9.8774685506451707 #
straight-curve $-1 0 -26.838623468940181 9.8774685506451707 1 0 0 I I #
straight-curve $-1 0 26.838623468940181 9.8774685506451707 -1 0 0 I I #
point $-1 -46.275826288644062 26.838623468940181 9.8774685506451707 #
End-of-ACIS-data 