500 0 19 0           
7 Unknown 11 ACIS 5.0 NT 24 Thu Mar 25 19:10:12 1999 
-1 9.9999999999999995e-007 1e-010 
body $-1 $19 $-1 $20 #
body $-1 $21 $-1 $22 #
body $-1 $23 $-1 $24 #
body $-1 $25 $-1 $26 #
body $-1 $27 $-1 $28 #
body $-1 $29 $-1 $30 #
body $-1 $31 $-1 $32 #
body $-1 $33 $-1 $34 #
body $-1 $35 $-1 $36 #
body $-1 $37 $-1 $38 #
body $-1 $39 $-1 $40 #
body $-1 $41 $-1 $42 #
body $-1 $43 $-1 $44 #
body $-1 $45 $-1 $46 #
body $-1 $47 $-1 $48 #
body $-1 $49 $-1 $50 #
body $-1 $51 $-1 $52 #
body $-1 $53 $-1 $54 #
body $-1 $55 $-1 $56 #
lump $-1 $-1 $57 $0 #
transform $-1 1 0 0 0 1 0 0 0 1 79.453108310190132 32.478128096204983 16.039241341593048 1 rotate no_reflect no_shear #
lump $-1 $-1 $58 $1 #
transform $-1 1 0 0 0 1 0 0 0 1 79.453108310190132 32.478128096204983 16.039241341593048 1 rotate no_reflect no_shear #
lump $-1 $-1 $59 $2 #
transform $-1 1 0 0 0 1 0 0 0 1 79.453108310190132 32.478128096204983 16.039241341593048 1 rotate no_reflect no_shear #
lump $-1 $-1 $60 $3 #
transform $-1 1 0 0 0 1 0 0 0 1 79.453108310190132 32.478128096204983 16.039241341593048 1 rotate no_reflect no_shear #
lump $-1 $-1 $61 $4 #
transform $-1 1 0 0 0 1 0 0 0 1 79.453108310190132 32.478128096204983 16.039241341593048 1 rotate no_reflect no_shear #
lump $-1 $-1 $62 $5 #
transform $-1 1 0 0 0 1 0 0 0 1 79.453108310190132 32.478128096204983 16.039241341593048 1 rotate no_reflect no_shear #
lump $-1 $-1 $63 $6 #
transform $-1 1 0 0 0 1 0 0 0 1 79.453108310190132 32.478128096204983 16.039241341593048 1 rotate no_reflect no_shear #
lump $-1 $-1 $64 $7 #
transform $-1 1 0 0 0 1 0 0 0 1 79.453108310190132 32.478128096204983 16.039241341593048 1 rotate no_reflect no_shear #
lump $-1 $-1 $65 $8 #
transform $-1 1 0 0 0 1 0 0 0 1 79.453108310190132 32.478128096204983 16.039241341593048 1 rotate no_reflect no_shear #
lump $-1 $-1 $66 $9 #
transform $-1 1 0 0 0 1 0 0 0 1 79.453108310190132 32.478128096204983 16.039241341593048 1 rotate no_reflect no_shear #
lump $-1 $-1 $67 $10 #
transform $-1 1 0 0 0 1 0 0 0 1 79.453108310190132 32.478128096204983 16.039241341593048 1 rotate no_reflect no_shear #
lump $-1 $-1 $68 $11 #
transform $-1 1 0 0 0 1 0 0 0 1 79.453108310190132 32.478128096204983 16.039241341593048 1 rotate no_reflect no_shear #
lump $-1 $-1 $69 $12 #
transform $-1 1 0 0 0 1 0 0 0 1 79.453108310190132 32.478128096204983 16.039241341593048 1 rotate no_reflect no_shear #
lump $-1 $-1 $70 $13 #
transform $-1 1 0 0 0 1 0 0 0 1 79.453108310190132 32.478128096204983 16.039241341593048 1 rotate no_reflect no_shear #
lump $-1 $-1 $71 $14 #
transform $-1 1 0 0 0 1 0 0 0 1 79.453108310190132 32.478128096204983 16.039241341593048 1 rotate no_reflect no_shear #
lump $-1 $-1 $72 $15 #
transform $-1 1 0 0 0 1 0 0 0 1 79.453108310190132 32.478128096204983 16.039241341593048 1 rotate no_reflect no_shear #
lump $-1 $-1 $73 $16 #
transform $-1 1 0 0 0 1 0 0 0 1 79.453108310190132 32.478128096204983 16.039241341593048 1 rotate no_reflect no_shear #
lump $-1 $-1 $74 $17 #
transform $-1 1 0 0 0 1 0 0 0 1 79.453108310190132 32.478128096204983 16.039241341593048 1 rotate no_reflect no_shear #
lump $-1 $-1 $75 $18 #
transform $-1 1 0 0 0 1 0 0 0 1 79.453108310190132 32.478128096204983 16.039241341593048 1 rotate no_reflect no_shear #
shell $-1 $-1 $-1 $76 $-1 $19 #
shell $-1 $-1 $-1 $77 $-1 $21 #
shell $-1 $-1 $-1 $78 $-1 $23 #
shell $-1 $-1 $-1 $79 $-1 $25 #
shell $-1 $-1 $-1 $80 $-1 $27 #
shell $-1 $-1 $-1 $81 $-1 $29 #
shell $-1 $-1 $-1 $82 $-1 $31 #
shell $-1 $-1 $-1 $83 $-1 $33 #
shell $-1 $-1 $-1 $84 $-1 $35 #
shell $-1 $-1 $-1 $85 $-1 $37 #
shell $-1 $-1 $-1 $86 $-1 $39 #
shell $-1 $-1 $-1 $87 $-1 $41 #
shell $-1 $-1 $-1 $88 $-1 $43 #
shell $-1 $-1 $-1 $89 $-1 $45 #
shell $-1 $-1 $-1 $90 $-1 $47 #
shell $-1 $-1 $-1 $91 $-1 $49 #
shell $-1 $-1 $-1 $92 $-1 $51 #
shell $-1 $-1 $-1 $93 $-1 $53 #
shell $-1 $-1 $-1 $94 $-1 $55 #
face $-1 $95 $96 $57 $-1 $97 forward single #
face $-1 $98 $99 $58 $-1 $100 forward single #
face $-1 $101 $102 $59 $-1 $103 forward single #
face $-1 $104 $105 $60 $-1 $106 reversed single #
face $-1 $107 $108 $61 $-1 $109 forward single #
face $-1 $110 $111 $62 $-1 $112 forward single #
face $-1 $113 $114 $63 $-1 $115 forward single #
face $-1 $116 $117 $64 $-1 $118 reversed single #
face $-1 $119 $120 $65 $-1 $121 forward single #
face $-1 $122 $123 $66 $-1 $124 forward single #
face $-1 $125 $126 $67 $-1 $127 forward single #
face $-1 $128 $129 $68 $-1 $130 reversed single #
face $-1 $131 $132 $69 $-1 $133 forward single #
face $-1 $134 $135 $70 $-1 $136 forward single #
face $-1 $137 $138 $71 $-1 $139 forward single #
face $-1 $140 $141 $72 $-1 $142 reversed single #
face $-1 $143 $144 $73 $-1 $145 forward single #
face $-1 $146 $147 $74 $-1 $148 forward single #
face $-1 $149 $150 $75 $-1 $151 forward single #
face $-1 $152 $153 $57 $-1 $154 reversed single #
loop $-1 $-1 $155 $76 #
plane-surface $-1 0 0 16.039241341593048 0 0 1 1 0 0 forward_v I I I I #
face $-1 $156 $157 $58 $-1 $158 reversed single #
loop $-1 $-1 $159 $77 #
plane-surface $-1 -79.453108310190132 0 0 1 0 0 0 0 -1 forward_v I I I I #
face $-1 $160 $161 $59 $-1 $162 forward single #
loop $-1 $-1 $163 $78 #
plane-surface $-1 79.453108310190132 0 0 -1 0 0 0 0 1 forward_v I I I I #
face $-1 $164 $165 $60 $-1 $166 reversed single #
loop $-1 $-1 $167 $79 #
plane-surface $-1 -45.773489728472192 -144.84179274487951 121.21022639762737 -1 0 0 0 -0.70710678939079041 0.70710677298230451 forward_v I I I I #
face $-1 $168 $169 $61 $-1 $170 forward single #
loop $-1 $171 $172 $80 #
cone-surface $-1 -62.784330653272946 -27.639502735389097 11.200615926151157 0 0.70710678939079041 -0.70710677298230451 1.5 0 0 1 I I 0 1 1.5 forward I I I I #
face $-1 $173 $174 $62 $-1 $175 forward single #
loop $-1 $176 $177 $81 #
cone-surface $-1 -56.405265306472664 -27.639502735389097 11.200615926151157 0 0.70710678939079041 -0.70710677298230451 1.5 0 0 1 I I 0 1 1.5 forward I I I I #
face $-1 $178 $179 $63 $-1 $180 forward single #
loop $-1 $181 $182 $82 #
cone-surface $-1 -50.026199959672383 -27.639502735389097 11.200615926151157 0 0.70710678939079041 -0.70710677298230451 1.5 0 0 1 I I 0 1 1.5 forward I I I I #
face $-1 $183 $184 $64 $-1 $185 reversed single #
loop $-1 $-1 $186 $83 #
plane-surface $-1 -12.254969286235619 -144.84179274487951 121.21022639762737 -1 0 0 0 -0.70710678939079041 0.70710677298230451 forward_v I I I I #
face $-1 $187 $188 $65 $-1 $189 forward single #
loop $-1 $190 $191 $84 #
cone-surface $-1 -29.265810211036381 -27.639502735389097 11.200615926151157 0 0.70710678939079041 -0.70710677298230451 1.5 0 0 1 I I 0 1 1.5 forward I I I I #
face $-1 $192 $193 $66 $-1 $194 forward single #
loop $-1 $195 $196 $85 #
cone-surface $-1 -22.886744864236093 -27.639502735389097 11.200615926151157 0 0.70710678939079041 -0.70710677298230451 1.5 0 0 1 I I 0 1 1.5 forward I I I I #
face $-1 $197 $198 $67 $-1 $199 forward single #
loop $-1 $200 $201 $86 #
cone-surface $-1 -16.507679517435811 -27.639502735389097 11.200615926151157 0 0.70710678939079041 -0.70710677298230451 1.5 0 0 1 I I 0 1 1.5 forward I I I I #
face $-1 $202 $203 $68 $-1 $204 reversed single #
loop $-1 $-1 $205 $87 #
plane-surface $-1 21.263551156000943 -144.84179274487951 121.21022639762737 -1 0 0 0 -0.70710678939079041 0.70710677298230451 forward_v I I I I #
face $-1 $206 $207 $69 $-1 $208 forward single #
loop $-1 $209 $210 $88 #
cone-surface $-1 4.2527102312001972 -27.639502735389097 11.200615926151157 0 0.70710678939079041 -0.70710677298230451 1.5 0 0 1 I I 0 1 1.5 forward I I I I #
face $-1 $211 $212 $70 $-1 $213 forward single #
loop $-1 $214 $215 $89 #
cone-surface $-1 10.631775578000472 -27.639502735389097 11.200615926151157 0 0.70710678939079041 -0.70710677298230451 1.5 0 0 1 I I 0 1 1.5 forward I I I I #
face $-1 $216 $217 $71 $-1 $218 forward single #
loop $-1 $219 $220 $90 #
cone-surface $-1 17.01084092480076 -27.639502735389097 11.200615926151157 0 0.70710678939079041 -0.70710677298230451 1.5 0 0 1 I I 0 1 1.5 forward I I I I #
face $-1 $221 $222 $72 $-1 $223 reversed single #
loop $-1 $-1 $224 $91 #
plane-surface $-1 54.782071598237508 -144.84179274487951 121.21022639762737 -1 0 0 0 -0.70710678939079041 0.70710677298230451 forward_v I I I I #
face $-1 $225 $226 $73 $-1 $227 forward single #
loop $-1 $228 $229 $92 #
cone-surface $-1 37.771230673436762 -27.639502735389097 11.200615926151157 0 0.70710678939079041 -0.70710677298230451 1.5 0 0 1 I I 0 1 1.5 forward I I I I #
face $-1 $230 $231 $74 $-1 $232 forward single #
loop $-1 $233 $234 $93 #
cone-surface $-1 44.150296020237036 -27.639502735389097 11.200615926151157 0 0.70710678939079041 -0.70710677298230451 1.5 0 0 1 I I 0 1 1.5 forward I I I I #
face $-1 $235 $236 $75 $-1 $237 forward single #
loop $-1 $238 $239 $94 #
cone-surface $-1 50.529361367037339 -27.639502735389097 11.200615926151157 0 0.70710678939079041 -0.70710677298230451 1.5 0 0 1 I I 0 1 1.5 forward I I I I #
face $-1 $240 $241 $57 $-1 $242 reversed single #
loop $-1 $-1 $243 $95 #
plane-surface $-1 0 0 -16.039241341593048 0 0 1 1 0 0 forward_v I I I I #
coedge $-1 $244 $245 $246 $247 forward $96 $-1 #
face $-1 $248 $249 $58 $-1 $250 reversed single #
loop $-1 $-1 $251 $98 #
plane-surface $-1 0 32.478128096204983 0 0 -1 0 0 0 -1 forward_v I I I I #
coedge $-1 $252 $253 $254 $255 forward $99 $-1 #
face $-1 $256 $257 $59 $-1 $258 reversed single #
loop $-1 $-1 $259 $101 #
plane-surface $-1 0 0 16.039241341593048 0 0 1 1 0 0 forward_v I I I I #
coedge $-1 $260 $261 $262 $263 forward $102 $-1 #
face $-1 $264 $265 $60 $-1 $266 reversed single #
loop $-1 $-1 $267 $104 #
plane-surface $-1 -56.405265306472664 -32.478128096204969 8.8465643563632312 0 -0.70710678939079041 0.70710677298230451 1 0 0 forward_v I I I I #
coedge $-1 $268 $269 $270 $271 reversed $105 $-1 #
face $-1 $-1 $272 $61 $-1 $273 forward single #
loop $-1 $274 $275 $107 #
cone-surface $-1 -62.784330653272946 -25.866885691691607 9.4279989235874275 0 0.70710678939079041 -0.70710677298230451 0.75 0 0 1 I I -0.70710678118654757 0.70710678118654757 0.75 forward I I I I #
loop $-1 $-1 $276 $80 #
coedge $-1 $172 $172 $277 $278 reversed $108 $-1 #
face $-1 $-1 $279 $62 $-1 $280 forward single #
loop $-1 $281 $282 $110 #
cone-surface $-1 -56.405265306472664 -25.866885691691607 9.4279989235874275 0 0.70710678939079041 -0.70710677298230451 0.75 0 0 1 I I -0.70710678118654757 0.70710678118654757 0.75 forward I I I I #
loop $-1 $-1 $283 $81 #
coedge $-1 $177 $177 $284 $285 reversed $111 $-1 #
face $-1 $-1 $286 $63 $-1 $287 forward single #
loop $-1 $288 $289 $113 #
cone-surface $-1 -50.026199959672383 -25.866885691691607 9.4279989235874275 0 0.70710678939079041 -0.70710677298230451 0.75 0 0 1 I I -0.70710678118654757 0.70710678118654757 0.75 forward I I I I #
loop $-1 $-1 $290 $82 #
coedge $-1 $182 $182 $291 $292 reversed $114 $-1 #
face $-1 $293 $294 $64 $-1 $295 reversed single #
loop $-1 $-1 $296 $116 #
plane-surface $-1 -22.886744864236093 -32.478128096204969 8.8465643563632312 0 -0.70710678939079041 0.70710677298230451 1 0 0 forward_v I I I I #
coedge $-1 $297 $298 $299 $300 reversed $117 $-1 #
face $-1 $-1 $301 $65 $-1 $302 forward single #
loop $-1 $303 $304 $119 #
cone-surface $-1 -29.265810211036381 -25.866885691691607 9.4279989235874275 0 0.70710678939079041 -0.70710677298230451 0.75 0 0 1 I I -0.70710678118654757 0.70710678118654757 0.75 forward I I I I #
loop $-1 $-1 $305 $84 #
coedge $-1 $191 $191 $306 $307 reversed $120 $-1 #
face $-1 $-1 $308 $66 $-1 $309 forward single #
loop $-1 $310 $311 $122 #
cone-surface $-1 -22.886744864236093 -25.866885691691607 9.4279989235874275 0 0.70710678939079041 -0.70710677298230451 0.75 0 0 1 I I -0.70710678118654757 0.70710678118654757 0.75 forward I I I I #
loop $-1 $-1 $312 $85 #
coedge $-1 $196 $196 $313 $314 reversed $123 $-1 #
face $-1 $-1 $315 $67 $-1 $316 forward single #
loop $-1 $317 $318 $125 #
cone-surface $-1 -16.507679517435811 -25.866885691691607 9.4279989235874275 0 0.70710678939079041 -0.70710677298230451 0.75 0 0 1 I I -0.70710678118654757 0.70710678118654757 0.75 forward I I I I #
loop $-1 $-1 $319 $86 #
coedge $-1 $201 $201 $320 $321 reversed $126 $-1 #
face $-1 $322 $323 $68 $-1 $324 reversed single #
loop $-1 $-1 $325 $128 #
plane-surface $-1 10.631775578000472 -32.478128096204969 8.8465643563632312 0 -0.70710678939079041 0.70710677298230451 1 0 0 forward_v I I I I #
coedge $-1 $326 $327 $328 $329 reversed $129 $-1 #
face $-1 $-1 $330 $69 $-1 $331 forward single #
loop $-1 $332 $333 $131 #
cone-surface $-1 4.2527102312001972 -25.866885691691607 9.4279989235874275 0 0.70710678939079041 -0.70710677298230451 0.75 0 0 1 I I -0.70710678118654757 0.70710678118654757 0.75 forward I I I I #
loop $-1 $-1 $334 $88 #
coedge $-1 $210 $210 $335 $336 reversed $132 $-1 #
face $-1 $-1 $337 $70 $-1 $338 forward single #
loop $-1 $339 $340 $134 #
cone-surface $-1 10.631775578000472 -25.866885691691607 9.4279989235874275 0 0.70710678939079041 -0.70710677298230451 0.75 0 0 1 I I -0.70710678118654757 0.70710678118654757 0.75 forward I I I I #
loop $-1 $-1 $341 $89 #
coedge $-1 $215 $215 $342 $343 reversed $135 $-1 #
face $-1 $-1 $344 $71 $-1 $345 forward single #
loop $-1 $346 $347 $137 #
cone-surface $-1 17.01084092480076 -25.866885691691607 9.4279989235874275 0 0.70710678939079041 -0.70710677298230451 0.75 0 0 1 I I -0.70710678118654757 0.70710678118654757 0.75 forward I I I I #
loop $-1 $-1 $348 $90 #
coedge $-1 $220 $220 $349 $350 reversed $138 $-1 #
face $-1 $351 $352 $72 $-1 $353 reversed single #
loop $-1 $-1 $354 $140 #
plane-surface $-1 44.150296020237036 -32.478128096204969 8.8465643563632312 0 -0.70710678939079041 0.70710677298230451 1 0 0 forward_v I I I I #
coedge $-1 $355 $356 $357 $358 reversed $141 $-1 #
face $-1 $-1 $359 $73 $-1 $360 forward single #
loop $-1 $361 $362 $143 #
cone-surface $-1 37.771230673436762 -25.866885691691607 9.4279989235874275 0 0.70710678939079041 -0.70710677298230451 0.75 0 0 1 I I -0.70710678118654757 0.70710678118654757 0.75 forward I I I I #
loop $-1 $-1 $363 $92 #
coedge $-1 $229 $229 $364 $365 reversed $144 $-1 #
face $-1 $-1 $366 $74 $-1 $367 forward single #
loop $-1 $368 $369 $146 #
cone-surface $-1 44.150296020237036 -25.866885691691607 9.4279989235874275 0 0.70710678939079041 -0.70710677298230451 0.75 0 0 1 I I -0.70710678118654757 0.70710678118654757 0.75 forward I I I I #
loop $-1 $-1 $370 $93 #
coedge $-1 $234 $234 $371 $372 reversed $147 $-1 #
face $-1 $-1 $373 $75 $-1 $374 forward single #
loop $-1 $375 $376 $149 #
cone-surface $-1 50.529361367037339 -25.866885691691607 9.4279989235874275 0 0.70710678939079041 -0.70710677298230451 0.75 0 0 1 I I -0.70710678118654757 0.70710678118654757 0.75 forward I I I I #
loop $-1 $-1 $377 $94 #
coedge $-1 $239 $239 $378 $379 reversed $150 $-1 #
face $-1 $380 $381 $57 $-1 $382 reversed single #
loop $-1 $-1 $383 $152 #
plane-surface $-1 0 -32.478128096204983 0 0 1 0 0 0 1 forward_v I I I I #
coedge $-1 $384 $385 $386 $387 forward $153 $-1 #
coedge $-1 $388 $155 $389 $390 forward $96 $-1 #
coedge $-1 $155 $388 $391 $392 forward $96 $-1 #
coedge $-1 $393 $394 $155 $247 reversed $395 $-1 #
edge $-1 $396 -32.478128096204983 $397 32.478128096204983 $246 $398 forward 7 unknown #
face $-1 $399 $400 $58 $-1 $401 reversed single #
loop $-1 $-1 $254 $156 #
plane-surface $-1 -85.661142023048626 0 10.903375134608503 0 0 1 1 0 0 forward_v I I I I #
coedge $-1 $402 $403 $252 $404 forward $157 $-1 #
coedge $-1 $405 $159 $251 $404 reversed $99 $-1 #
coedge $-1 $159 $405 $406 $407 reversed $99 $-1 #
coedge $-1 $408 $409 $159 $255 reversed $249 $-1 #
edge $-1 $410 -32.478128096204983 $411 32.478128096204983 $254 $412 forward 7 unknown #
face $-1 $413 $414 $59 $-1 $415 reversed single #
loop $-1 $-1 $416 $160 #
plane-surface $-1 0 -32.478128096204983 0 0 1 0 0 0 1 forward_v I I I I #
coedge $-1 $417 $418 $419 $420 forward $161 $-1 #
coedge $-1 $419 $163 $416 $421 reversed $102 $-1 #
coedge $-1 $163 $419 $422 $423 reversed $102 $-1 #
coedge $-1 $424 $425 $163 $263 reversed $414 $-1 #
edge $-1 $426 -32.478128096204983 $427 32.478128096204983 $262 $428 forward 7 unknown #
face $-1 $429 $430 $60 $-1 $431 reversed single #
loop $-1 $-1 $432 $164 #
plane-surface $-1 -67.037040884473143 -144.84179274487951 121.21022639762737 1 0 0 0 0.70710678939079041 -0.70710677298230451 forward_v I I I I #
coedge $-1 $433 $434 $435 $436 reversed $165 $-1 #
coedge $-1 $269 $167 $437 $438 reversed $105 $-1 #
coedge $-1 $167 $268 $433 $439 reversed $105 $-1 #
coedge $-1 $435 $440 $167 $271 forward $441 $-1 #
edge $-1 $442 39.942768276234773 $443 47.135445094557795 $270 $444 forward 7 unknown #
loop $-1 $-1 $277 $168 #
plane-surface $-1 -56.405265306472664 -32.478128096204969 8.8465643563632312 0 -0.70710678939079041 0.70710677298230451 1 0 0 forward_v I I I I #
loop $-1 $-1 $445 $107 #
coedge $-1 $275 $275 $276 $446 reversed $169 $-1 #
coedge $-1 $276 $276 $275 $446 forward $171 $-1 #
coedge $-1 $277 $277 $172 $278 forward $272 $-1 #
edge $-1 $447 8.3738288752573036e-016 $447 6.2831853071796013 $277 $448 forward 7 unknown #
loop $-1 $-1 $284 $173 #
plane-surface $-1 -56.405265306472664 -32.478128096204969 8.8465643563632312 0 -0.70710678939079041 0.70710677298230451 1 0 0 forward_v I I I I #
loop $-1 $-1 $449 $110 #
coedge $-1 $282 $282 $283 $450 reversed $174 $-1 #
coedge $-1 $283 $283 $282 $450 forward $176 $-1 #
coedge $-1 $284 $284 $177 $285 forward $279 $-1 #
edge $-1 $451 8.3738288752573036e-016 $451 6.2831853071796013 $284 $452 forward 7 unknown #
loop $-1 $-1 $291 $178 #
plane-surface $-1 -56.405265306472664 -32.478128096204969 8.8465643563632312 0 -0.70710678939079041 0.70710677298230451 1 0 0 forward_v I I I I #
loop $-1 $-1 $453 $113 #
coedge $-1 $289 $289 $290 $454 reversed $179 $-1 #
coedge $-1 $290 $290 $289 $454 forward $181 $-1 #
coedge $-1 $291 $291 $182 $292 forward $286 $-1 #
edge $-1 $455 8.3738288752573036e-016 $455 6.2831853071796013 $291 $456 forward 7 unknown #
face $-1 $457 $458 $64 $-1 $459 reversed single #
loop $-1 $-1 $460 $183 #
plane-surface $-1 -33.518520442236564 -144.84179274487951 121.21022639762737 1 0 0 0 0.70710678939079041 -0.70710677298230451 forward_v I I I I #
coedge $-1 $461 $462 $463 $464 reversed $184 $-1 #
coedge $-1 $298 $186 $465 $466 reversed $117 $-1 #
coedge $-1 $186 $297 $461 $467 reversed $117 $-1 #
coedge $-1 $463 $468 $186 $300 forward $469 $-1 #
edge $-1 $470 39.942768276234773 $471 47.135445094557795 $299 $472 forward 7 unknown #
loop $-1 $-1 $306 $187 #
plane-surface $-1 -22.886744864236093 -32.478128096204969 8.8465643563632312 0 -0.70710678939079041 0.70710677298230451 1 0 0 forward_v I I I I #
loop $-1 $-1 $473 $119 #
coedge $-1 $304 $304 $305 $474 reversed $188 $-1 #
coedge $-1 $305 $305 $304 $474 forward $190 $-1 #
coedge $-1 $306 $306 $191 $307 forward $301 $-1 #
edge $-1 $475 8.3738288752573036e-016 $475 6.2831853071796013 $306 $476 forward 7 unknown #
loop $-1 $-1 $313 $192 #
plane-surface $-1 -22.886744864236093 -32.478128096204969 8.8465643563632312 0 -0.70710678939079041 0.70710677298230451 1 0 0 forward_v I I I I #
loop $-1 $-1 $477 $122 #
coedge $-1 $311 $311 $312 $478 reversed $193 $-1 #
coedge $-1 $312 $312 $311 $478 forward $195 $-1 #
coedge $-1 $313 $313 $196 $314 forward $308 $-1 #
edge $-1 $479 8.3738288752573036e-016 $479 6.2831853071796013 $313 $480 forward 7 unknown #
loop $-1 $-1 $320 $197 #
plane-surface $-1 -22.886744864236093 -32.478128096204969 8.8465643563632312 0 -0.70710678939079041 0.70710677298230451 1 0 0 forward_v I I I I #
loop $-1 $-1 $481 $125 #
coedge $-1 $318 $318 $319 $482 reversed $198 $-1 #
coedge $-1 $319 $319 $318 $482 forward $200 $-1 #
coedge $-1 $320 $320 $201 $321 forward $315 $-1 #
edge $-1 $483 8.3738288752573036e-016 $483 6.2831853071796013 $320 $484 forward 7 unknown #
face $-1 $485 $486 $68 $-1 $487 reversed single #
loop $-1 $-1 $488 $202 #
plane-surface $-1 -1.7763568394002505e-015 -144.84179274487951 121.21022639762737 1 0 0 0 0.70710678939079041 -0.70710677298230451 forward_v I I I I #
coedge $-1 $489 $490 $491 $492 reversed $203 $-1 #
coedge $-1 $327 $205 $493 $494 reversed $129 $-1 #
coedge $-1 $205 $326 $489 $495 reversed $129 $-1 #
coedge $-1 $491 $496 $205 $329 forward $497 $-1 #
edge $-1 $498 39.942768276234773 $499 47.135445094557795 $328 $500 forward 7 unknown #
loop $-1 $-1 $335 $206 #
plane-surface $-1 10.631775578000472 -32.478128096204969 8.8465643563632312 0 -0.70710678939079041 0.70710677298230451 1 0 0 forward_v I I I I #
loop $-1 $-1 $501 $131 #
coedge $-1 $333 $333 $334 $502 reversed $207 $-1 #
coedge $-1 $334 $334 $333 $502 forward $209 $-1 #
coedge $-1 $335 $335 $210 $336 forward $330 $-1 #
edge $-1 $503 8.3738288752573036e-016 $503 6.2831853071796013 $335 $504 forward 7 unknown #
loop $-1 $-1 $342 $211 #
plane-surface $-1 10.631775578000472 -32.478128096204969 8.8465643563632312 0 -0.70710678939079041 0.70710677298230451 1 0 0 forward_v I I I I #
loop $-1 $-1 $505 $134 #
coedge $-1 $340 $340 $341 $506 reversed $212 $-1 #
coedge $-1 $341 $341 $340 $506 forward $214 $-1 #
coedge $-1 $342 $342 $215 $343 forward $337 $-1 #
edge $-1 $507 8.3738288752573036e-016 $507 6.2831853071796013 $342 $508 forward 7 unknown #
loop $-1 $-1 $349 $216 #
plane-surface $-1 10.631775578000472 -32.478128096204969 8.8465643563632312 0 -0.70710678939079041 0.70710677298230451 1 0 0 forward_v I I I I #
loop $-1 $-1 $509 $137 #
coedge $-1 $347 $347 $348 $510 reversed $217 $-1 #
coedge $-1 $348 $348 $347 $510 forward $219 $-1 #
coedge $-1 $349 $349 $220 $350 forward $344 $-1 #
edge $-1 $511 8.3738288752573036e-016 $511 6.2831853071796013 $349 $512 forward 7 unknown #
face $-1 $513 $514 $72 $-1 $515 reversed single #
loop $-1 $-1 $516 $221 #
plane-surface $-1 33.518520442236564 -144.84179274487951 121.21022639762737 1 0 0 0 0.70710678939079041 -0.70710677298230451 forward_v I I I I #
coedge $-1 $517 $518 $519 $520 reversed $222 $-1 #
coedge $-1 $356 $224 $521 $522 reversed $141 $-1 #
coedge $-1 $224 $355 $517 $523 reversed $141 $-1 #
coedge $-1 $519 $524 $224 $358 forward $525 $-1 #
edge $-1 $526 39.942768276234773 $527 47.135445094557795 $357 $528 forward 7 unknown #
loop $-1 $-1 $364 $225 #
plane-surface $-1 44.150296020237036 -32.478128096204969 8.8465643563632312 0 -0.70710678939079041 0.70710677298230451 1 0 0 forward_v I I I I #
loop $-1 $-1 $529 $143 #
coedge $-1 $362 $362 $363 $530 reversed $226 $-1 #
coedge $-1 $363 $363 $362 $530 forward $228 $-1 #
coedge $-1 $364 $364 $229 $365 forward $359 $-1 #
edge $-1 $531 8.3738288752573036e-016 $531 6.2831853071796013 $364 $532 forward 7 unknown #
loop $-1 $-1 $371 $230 #
plane-surface $-1 44.150296020237036 -32.478128096204969 8.8465643563632312 0 -0.70710678939079041 0.70710677298230451 1 0 0 forward_v I I I I #
loop $-1 $-1 $533 $146 #
coedge $-1 $369 $369 $370 $534 reversed $231 $-1 #
coedge $-1 $370 $370 $369 $534 forward $233 $-1 #
coedge $-1 $371 $371 $234 $372 forward $366 $-1 #
edge $-1 $535 8.3738288752573036e-016 $535 6.2831853071796013 $371 $536 forward 7 unknown #
loop $-1 $-1 $378 $235 #
plane-surface $-1 44.150296020237036 -32.478128096204969 8.8465643563632312 0 -0.70710678939079041 0.70710677298230451 1 0 0 forward_v I I I I #
loop $-1 $-1 $537 $149 #
coedge $-1 $376 $376 $377 $538 reversed $236 $-1 #
coedge $-1 $377 $377 $376 $538 forward $238 $-1 #
coedge $-1 $378 $378 $239 $379 forward $373 $-1 #
edge $-1 $539 8.3738288752573036e-016 $539 6.2831853071796013 $378 $540 forward 7 unknown #
face $-1 $541 $542 $57 $-1 $543 reversed single #
loop $-1 $-1 $544 $240 #
plane-surface $-1 -79.453108310190132 0 0 1 0 0 0 0 -1 forward_v I I I I #
coedge $-1 $545 $391 $546 $547 forward $241 $-1 #
coedge $-1 $548 $243 $545 $549 forward $153 $-1 #
coedge $-1 $243 $548 $550 $551 forward $153 $-1 #
coedge $-1 $394 $393 $243 $387 reversed $395 $-1 #
edge $-1 $552 -32.478128096204983 $553 32.478128096204983 $386 $554 forward 7 unknown #
coedge $-1 $245 $244 $555 $556 forward $96 $-1 #
coedge $-1 $557 $558 $244 $390 reversed $542 $-1 #
edge $-1 $397 -79.453108310190132 $559 79.453108310190132 $389 $560 forward 7 unknown #
coedge $-1 $383 $561 $245 $392 reversed $241 $-1 #
edge $-1 $562 -79.453108310190132 $396 79.453108310190132 $391 $563 forward 7 unknown #
coedge $-1 $386 $246 $561 $564 forward $395 $-1 #
coedge $-1 $246 $386 $557 $565 reversed $395 $-1 #
loop $-1 $-1 $393 $541 #
vertex $-1 $247 $566 #
vertex $-1 $247 $567 #
straight-curve $-1 79.453108310190132 0 16.039241341593048 0 1 0 I I #
face $-1 $568 $569 $58 $-1 $570 forward single #
loop $-1 $-1 $571 $248 #
plane-surface $-1 -91.86917573590712 0 13.471308238100775 1 0 0 0 0 -1 forward_v I I I I #
coedge $-1 $572 $251 $409 $573 reversed $157 $-1 #
coedge $-1 $251 $572 $574 $575 reversed $157 $-1 #
edge $-1 $576 -16.039241341593048 $411 -10.903375134608503 $251 $577 forward 7 unknown #
coedge $-1 $253 $252 $578 $579 reversed $99 $-1 #
coedge $-1 $580 $581 $253 $407 forward $582 $-1 #
edge $-1 $410 10.903375134608503 $583 16.039241341593048 $406 $584 forward 7 unknown #
coedge $-1 $585 $254 $581 $586 forward $249 $-1 #
coedge $-1 $254 $585 $402 $573 forward $249 $-1 #
vertex $-1 $407 $587 #
vertex $-1 $404 $588 #
straight-curve $-1 -79.453108310190132 0 10.903375134608503 0 1 0 I I #
face $-1 $589 $590 $59 $-1 $591 reversed single #
loop $-1 $-1 $592 $256 #
plane-surface $-1 85.66114202304864 0 10.903375134608503 0 0 1 1 0 0 forward_v I I I I #
coedge $-1 $593 $594 $260 $421 forward $257 $-1 #
coedge $-1 $595 $259 $594 $596 forward $161 $-1 #
coedge $-1 $259 $595 $597 $598 forward $161 $-1 #
coedge $-1 $261 $260 $259 $420 reversed $102 $-1 #
edge $-1 $599 -32.478128096204983 $600 32.478128096204983 $259 $601 forward 7 unknown #
edge $-1 $600 -16.039241341593048 $427 -10.903375134608503 $416 $602 forward 7 unknown #
coedge $-1 $597 $603 $261 $423 forward $604 $-1 #
edge $-1 $426 10.903375134608503 $599 16.039241341593048 $422 $605 forward 7 unknown #
coedge $-1 $592 $262 $603 $606 forward $414 $-1 #
coedge $-1 $262 $592 $593 $607 forward $414 $-1 #
vertex $-1 $423 $608 #
vertex $-1 $421 $609 #
straight-curve $-1 79.453108310190132 0 10.903375134608503 0 -1 0 I I #
face $-1 $-1 $441 $60 $-1 $610 forward single #
loop $-1 $-1 $611 $264 #
plane-surface $-1 0 -32.478128096204983 0 0 1 0 0 0 1 forward_v I I I I #
coedge $-1 $612 $613 $614 $615 reversed $265 $-1 #
coedge $-1 $616 $267 $269 $439 forward $165 $-1 #
coedge $-1 $267 $616 $612 $617 forward $165 $-1 #
coedge $-1 $614 $270 $267 $436 forward $441 $-1 #
edge $-1 $443 17.57085707523586 $618 38.834408231236807 $435 $619 forward 7 unknown #
coedge $-1 $620 $621 $268 $438 forward $430 $-1 #
edge $-1 $622 -51.758548842450466 $442 -44.565871857220635 $437 $623 forward 7 unknown #
edge $-1 $443 -10.1719812242599 $622 2.0097183471152325e-014 $269 $624 forward 7 unknown #
coedge $-1 $270 $614 $620 $625 forward $441 $-1 #
loop $-1 $-1 $614 $429 #
vertex $-1 $438 $626 #
vertex $-1 $271 $627 #
straight-curve $-1 -45.773489728472192 -72.420896372439756 16.039241341593048 0 1 0 I I #
coedge $-1 $445 $445 $-1 $628 reversed $274 $-1 #
edge $-1 $629 0 $629 6.2831853071796004 $275 $630 forward 7 unknown #
vertex $-1 $278 $631 #
ellipse-curve $-1 -62.784330653272946 -28.881789687043472 12.442902848978134 0 -0.70710678939079041 0.70710677298230451 1.5 0 0 1 I I #
coedge $-1 $449 $449 $-1 $632 reversed $281 $-1 #
edge $-1 $633 0 $633 6.2831853071796004 $282 $634 forward 7 unknown #
vertex $-1 $285 $635 #
ellipse-curve $-1 -56.405265306472664 -28.881789687043472 12.442902848978134 0 -0.70710678939079041 0.70710677298230451 1.5 0 0 1 I I #
coedge $-1 $453 $453 $-1 $636 reversed $288 $-1 #
edge $-1 $637 0 $637 6.2831853071796004 $289 $638 forward 7 unknown #
vertex $-1 $292 $639 #
ellipse-curve $-1 -50.026199959672383 -28.881789687043472 12.442902848978134 0 -0.70710678939079041 0.70710677298230451 1.5 0 0 1 I I #
face $-1 $-1 $469 $64 $-1 $640 forward single #
loop $-1 $-1 $641 $293 #
plane-surface $-1 0 -32.478128096204983 0 0 1 0 0 0 1 forward_v I I I I #
coedge $-1 $642 $643 $644 $645 reversed $294 $-1 #
coedge $-1 $646 $296 $298 $467 forward $184 $-1 #
coedge $-1 $296 $646 $642 $647 forward $184 $-1 #
coedge $-1 $644 $299 $296 $464 forward $469 $-1 #
edge $-1 $471 0.81159685411757287 $648 22.075148010118518 $463 $649 forward 7 unknown #
coedge $-1 $650 $651 $297 $466 forward $458 $-1 #
edge $-1 $652 -51.758548842450466 $470 -44.565871857220635 $465 $653 forward 7 unknown #
edge $-1 $471 -10.1719812242599 $652 2.0097183471152325e-014 $298 $654 forward 7 unknown #
coedge $-1 $299 $644 $650 $655 forward $469 $-1 #
loop $-1 $-1 $644 $457 #
vertex $-1 $466 $656 #
vertex $-1 $300 $657 #
straight-curve $-1 -12.254969286235619 -72.420896372439756 16.039241341593048 0 1 0 I I #
coedge $-1 $473 $473 $-1 $658 reversed $303 $-1 #
edge $-1 $659 0 $659 6.2831853071796004 $304 $660 forward 7 unknown #
vertex $-1 $307 $661 #
ellipse-curve $-1 -29.265810211036381 -28.881789687043472 12.442902848978134 0 -0.70710678939079041 0.70710677298230451 1.5 0 0 1 I I #
coedge $-1 $477 $477 $-1 $662 reversed $310 $-1 #
edge $-1 $663 0 $663 6.2831853071796004 $311 $664 forward 7 unknown #
vertex $-1 $314 $665 #
ellipse-curve $-1 -22.886744864236093 -28.881789687043472 12.442902848978134 0 -0.70710678939079041 0.70710677298230451 1.5 0 0 1 I I #
coedge $-1 $481 $481 $-1 $666 reversed $317 $-1 #
edge $-1 $667 0 $667 6.2831853071796004 $318 $668 forward 7 unknown #
vertex $-1 $321 $669 #
ellipse-curve $-1 -16.507679517435811 -28.881789687043472 12.442902848978134 0 -0.70710678939079041 0.70710677298230451 1.5 0 0 1 I I #
face $-1 $-1 $497 $68 $-1 $670 forward single #
loop $-1 $-1 $671 $322 #
plane-surface $-1 0 -32.478128096204983 0 0 1 0 0 0 1 forward_v I I I I #
coedge $-1 $672 $673 $674 $675 reversed $323 $-1 #
coedge $-1 $676 $325 $327 $495 forward $203 $-1 #
coedge $-1 $325 $676 $672 $677 forward $203 $-1 #
coedge $-1 $674 $328 $325 $492 forward $497 $-1 #
edge $-1 $499 -15.947663367000708 $678 5.3158877890002376 $491 $679 forward 7 unknown #
coedge $-1 $680 $681 $326 $494 forward $486 $-1 #
edge $-1 $682 -51.758548842450466 $498 -44.565871857220635 $493 $683 forward 7 unknown #
edge $-1 $499 -10.1719812242599 $682 2.0097183471152325e-014 $327 $684 forward 7 unknown #
coedge $-1 $328 $674 $680 $685 forward $497 $-1 #
loop $-1 $-1 $674 $485 #
vertex $-1 $494 $686 #
vertex $-1 $329 $687 #
straight-curve $-1 21.263551156000943 -72.420896372439756 16.039241341593048 0 1 0 I I #
coedge $-1 $501 $501 $-1 $688 reversed $332 $-1 #
edge $-1 $689 0 $689 6.2831853071796004 $333 $690 forward 7 unknown #
vertex $-1 $336 $691 #
ellipse-curve $-1 4.2527102312001972 -28.881789687043472 12.442902848978134 0 -0.70710678939079041 0.70710677298230451 1.5 0 0 1 I I #
coedge $-1 $505 $505 $-1 $692 reversed $339 $-1 #
edge $-1 $693 0 $693 6.2831853071796004 $340 $694 forward 7 unknown #
vertex $-1 $343 $695 #
ellipse-curve $-1 10.631775578000472 -28.881789687043472 12.442902848978134 0 -0.70710678939079041 0.70710677298230451 1.5 0 0 1 I I #
coedge $-1 $509 $509 $-1 $696 reversed $346 $-1 #
edge $-1 $697 0 $697 6.2831853071796004 $347 $698 forward 7 unknown #
vertex $-1 $350 $699 #
ellipse-curve $-1 17.01084092480076 -28.881789687043472 12.442902848978134 0 -0.70710678939079041 0.70710677298230451 1.5 0 0 1 I I #
face $-1 $-1 $525 $72 $-1 $700 forward single #
loop $-1 $-1 $701 $351 #
plane-surface $-1 0 -32.478128096204983 0 0 1 0 0 0 1 forward_v I I I I #
coedge $-1 $702 $703 $704 $705 reversed $352 $-1 #
coedge $-1 $706 $354 $356 $523 forward $222 $-1 #
coedge $-1 $354 $706 $702 $707 forward $222 $-1 #
coedge $-1 $704 $357 $354 $520 forward $525 $-1 #
edge $-1 $527 -32.70692358811899 $708 -11.443372432118046 $519 $709 forward 7 unknown #
coedge $-1 $710 $711 $355 $522 forward $514 $-1 #
edge $-1 $712 -51.758548842450466 $526 -44.565871857220635 $521 $713 forward 7 unknown #
edge $-1 $527 -10.1719812242599 $712 2.0097183471152325e-014 $356 $714 forward 7 unknown #
coedge $-1 $357 $704 $710 $715 forward $525 $-1 #
loop $-1 $-1 $704 $513 #
vertex $-1 $522 $716 #
vertex $-1 $358 $717 #
straight-curve $-1 54.782071598237508 -72.420896372439756 16.039241341593048 0 1 0 I I #
coedge $-1 $529 $529 $-1 $718 reversed $361 $-1 #
edge $-1 $719 0 $719 6.2831853071796004 $362 $720 forward 7 unknown #
vertex $-1 $365 $721 #
ellipse-curve $-1 37.771230673436762 -28.881789687043472 12.442902848978134 0 -0.70710678939079041 0.70710677298230451 1.5 0 0 1 I I #
coedge $-1 $533 $533 $-1 $722 reversed $368 $-1 #
edge $-1 $723 0 $723 6.2831853071796004 $369 $724 forward 7 unknown #
vertex $-1 $372 $725 #
ellipse-curve $-1 44.150296020237036 -28.881789687043472 12.442902848978134 0 -0.70710678939079041 0.70710677298230451 1.5 0 0 1 I I #
coedge $-1 $537 $537 $-1 $726 reversed $375 $-1 #
edge $-1 $727 0 $727 6.2831853071796004 $376 $728 forward 7 unknown #
vertex $-1 $379 $729 #
ellipse-curve $-1 50.529361367037339 -28.881789687043472 12.442902848978134 0 -0.70710678939079041 0.70710677298230451 1.5 0 0 1 I I #
face $-1 $-1 $395 $57 $-1 $730 reversed single #
loop $-1 $-1 $557 $380 #
plane-surface $-1 0 32.478128096204983 0 0 -1 0 0 0 -1 forward_v I I I I #
coedge $-1 $731 $555 $558 $732 forward $381 $-1 #
coedge $-1 $561 $383 $384 $549 reversed $241 $-1 #
coedge $-1 $555 $731 $383 $547 reversed $381 $-1 #
edge $-1 $562 -16.039241341593048 $733 16.039241341593048 $546 $734 forward 7 unknown #
coedge $-1 $385 $384 $731 $735 forward $153 $-1 #
edge $-1 $553 -79.453108310190132 $733 79.453108310190132 $545 $736 forward 7 unknown #
coedge $-1 $558 $557 $385 $551 reversed $542 $-1 #
edge $-1 $737 -79.453108310190132 $552 79.453108310190132 $550 $738 forward 7 unknown #
vertex $-1 $387 $739 #
vertex $-1 $564 $740 #
straight-curve $-1 79.453108310190132 0 -16.039241341593048 0 -1 0 I I #
coedge $-1 $544 $546 $388 $556 reversed $381 $-1 #
edge $-1 $559 -32.478128096204983 $562 32.478128096204983 $555 $741 forward 7 unknown #
coedge $-1 $550 $389 $394 $565 forward $542 $-1 #
coedge $-1 $389 $550 $544 $732 reversed $542 $-1 #
vertex $-1 $390 $742 #
straight-curve $-1 0 32.478128096204983 16.039241341593048 -1 0 0 I I #
coedge $-1 $391 $545 $393 $564 reversed $241 $-1 #
vertex $-1 $556 $743 #
straight-curve $-1 0 -32.478128096204983 16.039241341593048 1 0 0 I I #
edge $-1 $396 -16.039241341593048 $553 16.039241341593048 $393 $744 forward 7 unknown #
edge $-1 $397 -16.039241341593048 $552 16.039241341593048 $394 $745 forward 7 unknown #
point $-1 79.453108310190132 -32.478128096204983 16.039241341593048 #
point $-1 79.453108310190132 32.478128096204983 16.039241341593048 #
face $-1 $-1 $582 $58 $-1 $746 reversed single #
loop $-1 $-1 $578 $399 #
plane-surface $-1 0 0 16.039241341593048 0 0 1 1 0 0 forward_v I I I I #
coedge $-1 $747 $748 $572 $749 forward $400 $-1 #
coedge $-1 $403 $402 $571 $749 reversed $157 $-1 #
edge $-1 $750 -6.2080337128584944 $411 6.2080337128584944 $402 $751 forward 7 unknown #
coedge $-1 $752 $578 $403 $575 forward $569 $-1 #
edge $-1 $576 79.453108310190132 $753 91.86917573590712 $403 $754 forward 7 unknown #
vertex $-1 $575 $755 #
straight-curve $-1 -79.453108310190132 32.478128096204983 0 0 0 -1 I I #
coedge $-1 $574 $756 $405 $579 forward $569 $-1 #
edge $-1 $583 -32.478128096204983 $576 32.478128096204983 $578 $757 forward 7 unknown #
coedge $-1 $758 $406 $756 $759 reversed $582 $-1 #
coedge $-1 $406 $758 $408 $586 reversed $582 $-1 #
loop $-1 $-1 $406 $568 #
vertex $-1 $407 $760 #
straight-curve $-1 -79.453108310190132 -32.478128096204983 0 0 0 1 I I #
coedge $-1 $409 $408 $747 $761 forward $249 $-1 #
edge $-1 $410 -6.2080337128584944 $762 6.2080337128584944 $581 $763 forward 7 unknown #
point $-1 -79.453108310190132 -32.478128096204983 10.903375134608503 #
point $-1 -79.453108310190132 32.478128096204983 10.903375134608503 #
face $-1 $-1 $604 $59 $-1 $764 reversed single #
loop $-1 $-1 $765 $413 #
plane-surface $-1 91.869175735907135 0 13.471308238100775 -1 0 0 0 0 1 forward_v I I I I #
coedge $-1 $425 $424 $766 $767 forward $414 $-1 #
coedge $-1 $768 $416 $425 $607 reversed $257 $-1 #
coedge $-1 $416 $768 $417 $596 reversed $257 $-1 #
coedge $-1 $418 $417 $769 $770 forward $161 $-1 #
edge $-1 $600 -6.2080337128585086 $771 6.2080337128584944 $594 $772 forward 7 unknown #
coedge $-1 $773 $422 $418 $598 reversed $604 $-1 #
edge $-1 $774 -91.869175735907135 $599 -79.453108310190132 $597 $775 forward 7 unknown #
vertex $-1 $423 $776 #
vertex $-1 $596 $777 #
straight-curve $-1 79.453108310190132 0 16.039241341593048 0 -1 0 I I #
straight-curve $-1 79.453108310190132 -32.478128096204983 0 0 0 -1 I I #
coedge $-1 $422 $773 $424 $606 reversed $604 $-1 #
loop $-1 $-1 $422 $589 #
straight-curve $-1 79.453108310190132 32.478128096204983 0 0 0 1 I I #
edge $-1 $426 -6.2080337128584944 $778 6.2080337128584944 $603 $779 forward 7 unknown #
edge $-1 $780 -6.2080337128584944 $427 6.2080337128584944 $593 $781 forward 7 unknown #
point $-1 79.453108310190146 32.478128096204983 10.903375134608503 #
point $-1 79.453108310190146 -32.478128096204983 10.903375134608503 #
plane-surface $-1 0 0 16.039241341593048 0 0 1 1 0 0 forward_v I I I I #
coedge $-1 $621 $620 $613 $782 forward $430 $-1 #
coedge $-1 $613 $432 $434 $617 reversed $265 $-1 #
coedge $-1 $432 $612 $611 $782 reversed $265 $-1 #
coedge $-1 $440 $435 $432 $615 forward $441 $-1 #
edge $-1 $618 -47.135445094557795 $783 -39.942768276234773 $614 $784 forward 7 unknown #
coedge $-1 $434 $433 $621 $785 reversed $165 $-1 #
edge $-1 $786 -2.0097183471152325e-014 $618 10.1719812242599 $612 $787 forward 7 unknown #
vertex $-1 $436 $788 #
straight-curve $-1 -28.202632653236332 -25.285451277881961 16.039241341593048 -1 0 0 I I #
coedge $-1 $611 $437 $440 $625 reversed $430 $-1 #
coedge $-1 $437 $611 $616 $785 forward $430 $-1 #
vertex $-1 $438 $789 #
straight-curve $-1 -45.773489728472192 -32.478128096204983 60.605113198813683 0 0 1 I I #
straight-curve $-1 -45.773489728472192 -32.478128096204969 8.8465643563632312 0 -0.70710677298230451 -0.70710678939079041 I I #
edge $-1 $783 -152.69818290752178 $442 -131.43463175152084 $620 $790 forward 7 unknown #
point $-1 -45.7734897284722 -32.478128096204983 16.039241341593048 #
point $-1 -45.773489728472192 -25.285451277881961 16.039241341593048 #
edge $-1 $791 1 $791 0 $445 $-1 forward 7 unknown #
vertex $-1 $446 $792 #
ellipse-curve $-1 -62.784330653272946 -26.397215783734701 9.958329003324156 0 -0.70710678939079041 0.70710677298230451 1.5 0 0 1 I I #
point $-1 -61.284330653272946 -28.881789687043494 12.442902848978157 #
edge $-1 $793 1 $793 0 $449 $-1 forward 7 unknown #
vertex $-1 $450 $794 #
ellipse-curve $-1 -56.405265306472664 -26.397215783734701 9.958329003324156 0 -0.70710678939079041 0.70710677298230451 1.5 0 0 1 I I #
point $-1 -54.905265306472664 -28.881789687043494 12.442902848978157 #
edge $-1 $795 1 $795 0 $453 $-1 forward 7 unknown #
vertex $-1 $454 $796 #
ellipse-curve $-1 -50.026199959672383 -26.397215783734701 9.958329003324156 0 -0.70710678939079041 0.70710677298230451 1.5 0 0 1 I I #
point $-1 -48.526199959672383 -28.881789687043494 12.442902848978157 #
plane-surface $-1 0 0 16.039241341593048 0 0 1 1 0 0 forward_v I I I I #
coedge $-1 $651 $650 $643 $797 forward $458 $-1 #
coedge $-1 $643 $460 $462 $647 reversed $294 $-1 #
coedge $-1 $460 $642 $641 $797 reversed $294 $-1 #
coedge $-1 $468 $463 $460 $645 forward $469 $-1 #
edge $-1 $648 -47.135445094557795 $798 -39.942768276234773 $644 $799 forward 7 unknown #
coedge $-1 $462 $461 $651 $800 reversed $184 $-1 #
edge $-1 $801 -2.0097183471152325e-014 $648 10.1719812242599 $642 $802 forward 7 unknown #
vertex $-1 $464 $803 #
straight-curve $-1 -11.443372432118046 -25.285451277881961 16.039241341593048 -1 0 0 I I #
coedge $-1 $641 $465 $468 $655 reversed $458 $-1 #
coedge $-1 $465 $641 $646 $800 forward $458 $-1 #
vertex $-1 $466 $804 #
straight-curve $-1 -12.254969286235619 -32.478128096204983 60.605113198813683 0 0 1 I I #
straight-curve $-1 -12.254969286235619 -32.478128096204969 8.8465643563632312 0 -0.70710677298230451 -0.70710678939079041 I I #
edge $-1 $798 -119.1796624652852 $470 -97.916111309284261 $650 $805 forward 7 unknown #
point $-1 -12.254969286235621 -32.478128096204983 16.039241341593048 #
point $-1 -12.254969286235619 -25.285451277881961 16.039241341593048 #
edge $-1 $806 1 $806 0 $473 $-1 forward 7 unknown #
vertex $-1 $474 $807 #
ellipse-curve $-1 -29.265810211036381 -26.397215783734701 9.958329003324156 0 -0.70710678939079041 0.70710677298230451 1.5 0 0 1 I I #
point $-1 -27.765810211036381 -28.881789687043494 12.442902848978157 #
edge $-1 $808 1 $808 0 $477 $-1 forward 7 unknown #
vertex $-1 $478 $809 #
ellipse-curve $-1 -22.886744864236093 -26.397215783734701 9.958329003324156 0 -0.70710678939079041 0.70710677298230451 1.5 0 0 1 I I #
point $-1 -21.386744864236093 -28.881789687043494 12.442902848978157 #
edge $-1 $810 1 $810 0 $481 $-1 forward 7 unknown #
vertex $-1 $482 $811 #
ellipse-curve $-1 -16.507679517435811 -26.397215783734701 9.958329003324156 0 -0.70710678939079041 0.70710677298230451 1.5 0 0 1 I I #
point $-1 -15.007679517435811 -28.881789687043494 12.442902848978157 #
plane-surface $-1 0 0 16.039241341593048 0 0 1 1 0 0 forward_v I I I I #
coedge $-1 $681 $680 $673 $812 forward $486 $-1 #
coedge $-1 $673 $488 $490 $677 reversed $323 $-1 #
coedge $-1 $488 $672 $671 $812 reversed $323 $-1 #
coedge $-1 $496 $491 $488 $675 forward $497 $-1 #
edge $-1 $678 -47.135445094557795 $813 -39.942768276234773 $674 $814 forward 7 unknown #
coedge $-1 $490 $489 $681 $815 reversed $203 $-1 #
edge $-1 $816 -2.0097183471152325e-014 $678 10.1719812242599 $672 $817 forward 7 unknown #
vertex $-1 $492 $818 #
straight-curve $-1 5.3158877890002358 -25.285451277881961 16.039241341593048 -1 0 0 I I #
coedge $-1 $671 $493 $496 $685 reversed $486 $-1 #
coedge $-1 $493 $671 $676 $815 forward $486 $-1 #
vertex $-1 $494 $819 #
straight-curve $-1 21.263551156000943 -32.478128096204983 60.605113198813683 0 0 1 I I #
straight-curve $-1 21.263551156000943 -32.478128096204969 8.8465643563632312 0 -0.70710677298230451 -0.70710678939079041 I I #
edge $-1 $813 -85.66114202304864 $498 -64.397590867047697 $680 $820 forward 7 unknown #
point $-1 21.263551156000943 -32.478128096204983 16.039241341593048 #
point $-1 21.263551156000943 -25.285451277881961 16.039241341593048 #
edge $-1 $821 1 $821 0 $501 $-1 forward 7 unknown #
vertex $-1 $502 $822 #
ellipse-curve $-1 4.2527102312001972 -26.397215783734701 9.958329003324156 0 -0.70710678939079041 0.70710677298230451 1.5 0 0 1 I I #
point $-1 5.7527102312001972 -28.881789687043494 12.442902848978157 #
edge $-1 $823 1 $823 0 $505 $-1 forward 7 unknown #
vertex $-1 $506 $824 #
ellipse-curve $-1 10.631775578000472 -26.397215783734701 9.958329003324156 0 -0.70710678939079041 0.70710677298230451 1.5 0 0 1 I I #
point $-1 12.131775578000472 -28.881789687043494 12.442902848978157 #
edge $-1 $825 1 $825 0 $509 $-1 forward 7 unknown #
vertex $-1 $510 $826 #
ellipse-curve $-1 17.01084092480076 -26.397215783734701 9.958329003324156 0 -0.70710678939079041 0.70710677298230451 1.5 0 0 1 I I #
point $-1 18.51084092480076 -28.881789687043494 12.442902848978157 #
plane-surface $-1 0 0 16.039241341593048 0 0 1 1 0 0 forward_v I I I I #
coedge $-1 $711 $710 $703 $827 forward $514 $-1 #
coedge $-1 $703 $516 $518 $707 reversed $352 $-1 #
coedge $-1 $516 $702 $701 $827 reversed $352 $-1 #
coedge $-1 $524 $519 $516 $705 forward $525 $-1 #
edge $-1 $708 -47.135445094557795 $828 -39.942768276234773 $704 $829 forward 7 unknown #
coedge $-1 $518 $517 $711 $830 reversed $222 $-1 #
edge $-1 $831 -2.0097183471152325e-014 $708 10.1719812242599 $702 $832 forward 7 unknown #
vertex $-1 $520 $833 #
straight-curve $-1 22.075148010118518 -25.285451277881961 16.039241341593048 -1 0 0 I I #
coedge $-1 $701 $521 $524 $715 reversed $514 $-1 #
coedge $-1 $521 $701 $706 $830 forward $514 $-1 #
vertex $-1 $522 $834 #
straight-curve $-1 54.782071598237508 -32.478128096204983 60.605113198813683 0 0 1 I I #
straight-curve $-1 54.782071598237508 -32.478128096204969 8.8465643563632312 0 -0.70710677298230451 -0.70710678939079041 I I #
edge $-1 $828 -52.142621580812076 $526 -30.879070424811133 $710 $835 forward 7 unknown #
point $-1 54.782071598237508 -32.478128096204983 16.039241341593048 #
point $-1 54.782071598237508 -25.285451277881961 16.039241341593048 #
edge $-1 $836 1 $836 0 $529 $-1 forward 7 unknown #
vertex $-1 $530 $837 #
ellipse-curve $-1 37.771230673436762 -26.397215783734701 9.958329003324156 0 -0.70710678939079041 0.70710677298230451 1.5 0 0 1 I I #
point $-1 39.271230673436762 -28.881789687043494 12.442902848978157 #
edge $-1 $838 1 $838 0 $533 $-1 forward 7 unknown #
vertex $-1 $534 $839 #
ellipse-curve $-1 44.150296020237036 -26.397215783734701 9.958329003324156 0 -0.70710678939079041 0.70710677298230451 1.5 0 0 1 I I #
point $-1 45.650296020237036 -28.881789687043494 12.442902848978157 #
edge $-1 $840 1 $840 0 $537 $-1 forward 7 unknown #
vertex $-1 $538 $841 #
ellipse-curve $-1 50.529361367037339 -26.397215783734701 9.958329003324156 0 -0.70710678939079041 0.70710677298230451 1.5 0 0 1 I I #
point $-1 52.029361367037339 -28.881789687043494 12.442902848978157 #
plane-surface $-1 79.453108310190132 0 0 -1 0 0 0 0 1 forward_v I I I I #
coedge $-1 $546 $544 $548 $735 reversed $381 $-1 #
edge $-1 $559 -16.039241341593048 $737 16.039241341593048 $558 $842 forward 7 unknown #
vertex $-1 $735 $843 #
straight-curve $-1 -79.453108310190132 -32.478128096204983 0 0 0 -1 I I #
edge $-1 $733 -32.478128096204983 $737 32.478128096204983 $731 $844 forward 7 unknown #
straight-curve $-1 0 -32.478128096204983 -16.039241341593048 -1 0 0 I I #
vertex $-1 $551 $845 #
straight-curve $-1 0 32.478128096204983 -16.039241341593048 1 0 0 I I #
point $-1 79.453108310190132 32.478128096204983 -16.039241341593048 #
point $-1 79.453108310190132 -32.478128096204983 -16.039241341593048 #
straight-curve $-1 -79.453108310190132 0 16.039241341593048 0 -1 0 I I #
point $-1 -79.453108310190132 32.478128096204983 16.039241341593048 #
point $-1 -79.453108310190132 -32.478128096204983 16.039241341593048 #
straight-curve $-1 79.453108310190132 -32.478128096204983 0 0 0 -1 I I #
straight-curve $-1 79.453108310190132 32.478128096204983 0 0 0 -1 I I #
plane-surface $-1 0 -32.478128096204983 0 0 1 0 0 0 1 forward_v I I I I #
coedge $-1 $846 $571 $585 $761 reversed $400 $-1 #
coedge $-1 $571 $846 $752 $847 reversed $400 $-1 #
edge $-1 $753 -2.5679331034922726 $750 2.5679331034922726 $572 $848 forward 7 unknown #
vertex $-1 $573 $849 #
straight-curve $-1 -85.661142023048626 32.478128096204983 10.903375134608503 1 0 0 I I #
coedge $-1 $756 $574 $748 $847 forward $569 $-1 #
vertex $-1 $575 $850 #
straight-curve $-1 0 32.478128096204983 16.039241341593048 -1 0 0 I I #
point $-1 -79.453108310190132 32.478128096204983 16.039241341593048 #
coedge $-1 $578 $752 $580 $759 forward $569 $-1 #
straight-curve $-1 -79.453108310190132 0 16.039241341593048 0 1 0 I I #
coedge $-1 $581 $580 $846 $851 forward $582 $-1 #
edge $-1 $852 -91.86917573590712 $583 -79.453108310190132 $580 $853 forward 7 unknown #
point $-1 -79.453108310190132 -32.478128096204983 16.039241341593048 #
edge $-1 $762 -32.478128096204983 $750 32.478128096204983 $747 $854 forward 7 unknown #
vertex $-1 $761 $855 #
straight-curve $-1 -85.661142023048626 -32.478128096204983 10.903375134608503 -1 0 0 I I #
plane-surface $-1 0 32.478128096204983 0 0 -1 0 0 0 -1 forward_v I I I I #
coedge $-1 $766 $769 $768 $856 forward $590 $-1 #
coedge $-1 $857 $765 $592 $767 reversed $590 $-1 #
edge $-1 $778 -32.478128096204983 $780 32.478128096204983 $766 $858 forward 7 unknown #
coedge $-1 $594 $593 $765 $856 reversed $257 $-1 #
coedge $-1 $765 $857 $595 $770 reversed $590 $-1 #
edge $-1 $771 -32.478128096204983 $774 32.478128096204983 $769 $859 forward 7 unknown #
vertex $-1 $770 $860 #
straight-curve $-1 85.66114202304864 -32.478128096204983 16.039241341593048 1 0 0 I I #
coedge $-1 $603 $597 $857 $861 forward $604 $-1 #
vertex $-1 $770 $862 #
straight-curve $-1 0 32.478128096204983 16.039241341593048 -1 0 0 I I #
point $-1 79.453108310190132 32.478128096204983 16.039241341593048 #
point $-1 79.453108310190132 -32.478128096204983 16.039241341593048 #
vertex $-1 $767 $863 #
straight-curve $-1 85.66114202304864 32.478128096204983 10.903375134608503 1 0 0 I I #
vertex $-1 $856 $864 #
straight-curve $-1 85.66114202304864 -32.478128096204983 10.903375134608503 -1 0 0 I I #
edge $-1 $783 44.565871857220635 $786 51.758548842450466 $611 $865 forward 7 unknown #
vertex $-1 $625 $866 #
straight-curve $-1 -67.037040884473143 -72.420896372439756 16.039241341593048 0 -1 0 I I #
edge $-1 $786 -38.834408231236807 $622 -17.57085707523586 $621 $867 forward 7 unknown #
vertex $-1 $785 $868 #
straight-curve $-1 -67.037040884473143 -32.478128096204969 8.8465643563632312 0 0.70710677298230451 0.70710678939079041 I I #
point $-1 -67.037040884473143 -25.285451277881961 16.039241341593048 #
point $-1 -45.773489728472192 -32.478128096204983 8.846564356363217 #
straight-curve $-1 85.66114202304864 -32.478128096204983 16.039241341593048 1 0 0 I I #
vertex $-1 $628 $869 #
point $-1 -61.284330653272946 -26.397215783734701 9.958329003324156 #
vertex $-1 $632 $870 #
point $-1 -54.905265306472664 -26.397215783734701 9.958329003324156 #
vertex $-1 $636 $871 #
point $-1 -48.526199959672383 -26.397215783734701 9.958329003324156 #
edge $-1 $798 44.565871857220635 $801 51.758548842450466 $641 $872 forward 7 unknown #
vertex $-1 $655 $873 #
straight-curve $-1 -33.518520442236564 -72.420896372439756 16.039241341593048 0 -1 0 I I #
edge $-1 $801 -22.075148010118518 $652 -0.81159685411757287 $651 $874 forward 7 unknown #
vertex $-1 $800 $875 #
straight-curve $-1 -33.518520442236564 -32.478128096204969 8.8465643563632312 0 0.70710677298230451 0.70710678939079041 I I #
point $-1 -33.518520442236564 -25.285451277881961 16.039241341593048 #
point $-1 -12.254969286235619 -32.478128096204983 8.846564356363217 #
straight-curve $-1 85.66114202304864 -32.478128096204983 16.039241341593048 1 0 0 I I #
vertex $-1 $658 $876 #
point $-1 -27.765810211036381 -26.397215783734701 9.958329003324156 #
vertex $-1 $662 $877 #
point $-1 -21.386744864236093 -26.397215783734701 9.958329003324156 #
vertex $-1 $666 $878 #
point $-1 -15.007679517435811 -26.397215783734701 9.958329003324156 #
edge $-1 $813 44.565871857220635 $816 51.758548842450466 $671 $879 forward 7 unknown #
vertex $-1 $685 $880 #
straight-curve $-1 -1.7763568394002505e-015 -72.420896372439756 16.039241341593048 0 -1 0 I I #
edge $-1 $816 -5.3158877890002376 $682 15.947663367000708 $681 $881 forward 7 unknown #
vertex $-1 $815 $882 #
straight-curve $-1 -1.7763568394002505e-015 -32.478128096204969 8.8465643563632312 0 0.70710677298230451 0.70710678939079041 I I #
point $-1 -1.7763568394002505e-015 -25.285451277881961 16.039241341593048 #
point $-1 21.263551156000943 -32.478128096204983 8.846564356363217 #
straight-curve $-1 85.66114202304864 -32.478128096204983 16.039241341593048 1 0 0 I I #
vertex $-1 $688 $883 #
point $-1 5.7527102312001972 -26.397215783734701 9.958329003324156 #
vertex $-1 $692 $884 #
point $-1 12.131775578000472 -26.397215783734701 9.958329003324156 #
vertex $-1 $696 $885 #
point $-1 18.51084092480076 -26.397215783734701 9.958329003324156 #
edge $-1 $828 44.565871857220635 $831 51.758548842450466 $701 $886 forward 7 unknown #
vertex $-1 $715 $887 #
straight-curve $-1 33.518520442236564 -72.420896372439756 16.039241341593048 0 -1 0 I I #
edge $-1 $831 11.443372432118046 $712 32.70692358811899 $711 $888 forward 7 unknown #
vertex $-1 $830 $889 #
straight-curve $-1 33.518520442236564 -32.478128096204969 8.8465643563632312 0 0.70710677298230451 0.70710678939079041 I I #
point $-1 33.518520442236564 -25.285451277881961 16.039241341593048 #
point $-1 54.782071598237508 -32.478128096204983 8.846564356363217 #
straight-curve $-1 85.66114202304864 -32.478128096204983 16.039241341593048 1 0 0 I I #
vertex $-1 $718 $890 #
point $-1 39.271230673436762 -26.397215783734701 9.958329003324156 #
vertex $-1 $722 $891 #
point $-1 45.650296020237036 -26.397215783734701 9.958329003324156 #
vertex $-1 $726 $892 #
point $-1 52.029361367037339 -26.397215783734701 9.958329003324156 #
straight-curve $-1 -79.453108310190132 32.478128096204983 0 0 0 -1 I I #
point $-1 -79.453108310190132 -32.478128096204983 -16.039241341593048 #
straight-curve $-1 -79.453108310190132 0 -16.039241341593048 0 1 0 I I #
point $-1 -79.453108310190132 32.478128096204983 -16.039241341593048 #
coedge $-1 $748 $747 $758 $851 reversed $400 $-1 #
edge $-1 $753 -32.478128096204983 $852 32.478128096204983 $748 $893 forward 7 unknown #
straight-curve $-1 -91.86917573590712 32.478128096204983 13.471308238100775 0 0 -1 I I #
point $-1 -91.86917573590712 32.478128096204983 10.903375134608503 #
point $-1 -91.86917573590712 32.478128096204983 16.039241341593048 #
edge $-1 $852 -2.5679331034922726 $762 2.5679331034922726 $846 $894 forward 7 unknown #
vertex $-1 $847 $895 #
straight-curve $-1 0 -32.478128096204983 16.039241341593048 1 0 0 I I #
straight-curve $-1 -91.86917573590712 0 10.903375134608503 0 1 0 I I #
point $-1 -91.86917573590712 -32.478128096204983 10.903375134608503 #
edge $-1 $771 -2.5679331034922726 $780 2.5679331034922726 $765 $896 forward 7 unknown #
coedge $-1 $769 $766 $773 $861 reversed $590 $-1 #
straight-curve $-1 91.869175735907135 0 10.903375134608503 0 -1 0 I I #
straight-curve $-1 91.869175735907135 0 16.039241341593048 0 1 0 I I #
point $-1 91.869175735907135 -32.478128096204983 16.039241341593048 #
edge $-1 $774 -2.5679331034922726 $778 2.5679331034922726 $857 $897 forward 7 unknown #
point $-1 91.869175735907135 32.478128096204983 16.039241341593048 #
point $-1 91.869175735907135 32.478128096204983 10.903375134608503 #
point $-1 91.869175735907135 -32.478128096204983 10.903375134608503 #
straight-curve $-1 -67.037040884473143 -32.478128096204983 60.605113198813683 0 0 -1 I I #
point $-1 -67.037040884473143 -32.478128096204983 16.039241341593048 #
straight-curve $-1 -28.202632653236332 -32.478128096204983 8.846564356363217 1 0 0 I I #
point $-1 -67.037040884473143 -32.478128096204983 8.846564356363217 #
point $-1 -62.784330653272946 -25.336555599648513 8.897668843850699 #
point $-1 -56.405265306472664 -25.336555599648513 8.897668843850699 #
point $-1 -50.026199959672383 -25.336555599648513 8.897668843850699 #
straight-curve $-1 -33.518520442236564 -32.478128096204983 60.605113198813683 0 0 -1 I I #
point $-1 -33.518520442236564 -32.478128096204983 16.039241341593048 #
straight-curve $-1 -11.443372432118046 -32.478128096204983 8.846564356363217 1 0 0 I I #
point $-1 -33.518520442236564 -32.478128096204983 8.846564356363217 #
point $-1 -29.265810211036381 -25.336555599648513 8.897668843850699 #
point $-1 -22.886744864236093 -25.336555599648513 8.897668843850699 #
point $-1 -16.507679517435811 -25.336555599648513 8.897668843850699 #
straight-curve $-1 -1.7763568394002505e-015 -32.478128096204983 60.605113198813683 0 0 -1 I I #
point $-1 0 -32.478128096204983 16.039241341593048 #
straight-curve $-1 5.3158877890002358 -32.478128096204983 8.846564356363217 1 0 0 I I #
point $-1 -1.7763568394002505e-015 -32.478128096204983 8.846564356363217 #
point $-1 4.2527102312001972 -25.336555599648513 8.897668843850699 #
point $-1 10.631775578000472 -25.336555599648513 8.897668843850699 #
point $-1 17.01084092480076 -25.336555599648513 8.897668843850699 #
straight-curve $-1 33.518520442236564 -32.478128096204983 60.605113198813683 0 0 -1 I I #
point $-1 33.518520442236564 -32.478128096204983 16.039241341593048 #
straight-curve $-1 22.075148010118518 -32.478128096204983 8.846564356363217 1 0 0 I I #
point $-1 33.518520442236564 -32.478128096204983 8.846564356363217 #
point $-1 37.771230673436762 -25.336555599648513 8.897668843850699 #
point $-1 44.150296020237036 -25.336555599648513 8.897668843850699 #
point $-1 50.529361367037339 -25.336555599648513 8.897668843850699 #
straight-curve $-1 -91.86917573590712 0 16.039241341593048 0 -1 0 I I #
straight-curve $-1 -91.86917573590712 -32.478128096204983 13.471308238100775 0 0 -1 I I #
point $-1 -91.86917573590712 -32.478128096204983 16.039241341593048 #
straight-curve $-1 91.869175735907135 -32.478128096204983 13.471308238100775 0 0 -1 I I #
straight-curve $-1 91.869175735907135 32.478128096204983 13.471308238100775 0 0 -1 I I #
End-of-ACIS-data 