500 0 9 0           
7 Unknown 11 ACIS 5.0 NT 24 Thu Mar 25 23:39:31 1999 
-1 9.9999999999999995e-007 1e-010 
body $-1 $9 $-1 $10 #
body $-1 $11 $-1 $12 #
body $-1 $13 $-1 $14 #
body $-1 $15 $-1 $16 #
body $-1 $17 $-1 $18 #
body $-1 $19 $-1 $20 #
body $-1 $21 $-1 $22 #
body $-1 $23 $-1 $24 #
body $-1 $25 $-1 $26 #
lump $-1 $-1 $27 $0 #
transform $-1 1 0 0 0 1 0 0 0 1 69.091463972899561 37.516072429536528 15.785900455625411 1 rotate no_reflect no_shear #
lump $-1 $-1 $28 $1 #
transform $-1 1 0 0 0 1 0 0 0 1 69.091463972899561 37.516072429536528 15.785900455625411 1 rotate no_reflect no_shear #
lump $-1 $-1 $29 $2 #
transform $-1 1 0 0 0 1 0 0 0 1 69.091463972899561 37.516072429536528 15.785900455625411 1 rotate no_reflect no_shear #
lump $-1 $-1 $30 $3 #
transform $-1 1 0 0 0 1 0 0 0 1 69.091463972899561 37.516072429536528 15.785900455625411 1 rotate no_reflect no_shear #
lump $-1 $-1 $31 $4 #
transform $-1 1 0 0 0 1 0 0 0 1 69.091463972899561 37.516072429536528 15.785900455625411 1 rotate no_reflect no_shear #
lump $-1 $-1 $32 $5 #
transform $-1 1 0 0 0 1 0 0 0 1 69.091463972899561 37.516072429536528 15.785900455625411 1 rotate no_reflect no_shear #
lump $-1 $-1 $33 $6 #
transform $-1 1 0 0 0 1 0 0 0 1 69.091463972899561 37.516072429536528 15.785900455625411 1 rotate no_reflect no_shear #
lump $-1 $-1 $34 $7 #
transform $-1 1 0 0 0 1 0 0 0 1 69.091463972899561 37.516072429536528 15.785900455625411 1 rotate no_reflect no_shear #
lump $-1 $-1 $35 $8 #
transform $-1 1 0 0 0 1 0 0 0 1 69.091463972899561 37.516072429536528 15.785900455625411 1 rotate no_reflect no_shear #
shell $-1 $-1 $-1 $36 $-1 $9 #
shell $-1 $-1 $-1 $37 $-1 $11 #
shell $-1 $-1 $-1 $38 $-1 $13 #
shell $-1 $-1 $-1 $39 $-1 $15 #
shell $-1 $-1 $-1 $40 $-1 $17 #
shell $-1 $-1 $-1 $41 $-1 $19 #
shell $-1 $-1 $-1 $42 $-1 $21 #
shell $-1 $-1 $-1 $43 $-1 $23 #
shell $-1 $-1 $-1 $44 $-1 $25 #
face $-1 $45 $46 $27 $-1 $47 reversed single #
face $-1 $48 $49 $28 $-1 $50 forward single #
face $-1 $51 $52 $29 $-1 $53 forward single #
face $-1 $54 $55 $30 $-1 $56 reversed single #
face $-1 $57 $58 $31 $-1 $59 forward single #
face $-1 $60 $61 $32 $-1 $62 forward single #
face $-1 $63 $64 $33 $-1 $65 reversed single #
face $-1 $66 $67 $34 $-1 $68 forward single #
face $-1 $69 $70 $35 $-1 $71 forward single #
face $-1 $72 $73 $27 $-1 $74 reversed single #
loop $-1 $-1 $75 $36 #
plane-surface $-1 0 37.516072429536528 0 0 -1 0 0 0 -1 forward_v I I I I #
face $-1 $76 $77 $28 $-1 $78 reversed single #
loop $-1 $-1 $79 $37 #
plane-surface $-1 0 -37.516072429536528 0 0 1 0 0 0 1 forward_v I I I I #
face $-1 $80 $81 $29 $-1 $82 reversed single #
loop $-1 $-1 $83 $38 #
plane-surface $-1 0 37.516072429536528 0 0 -1 0 0 0 -1 forward_v I I I I #
face $-1 $84 $85 $30 $-1 $86 reversed single #
loop $-1 $-1 $87 $39 #
plane-surface $-1 -138.18292887145012 -17.293624310229539 128.2927114178363 0 1 0 -0.50000000669873634 0 0.8660253999169214 forward_v I I I I #
face $-1 $88 $89 $31 $-1 $90 forward single #
loop $-1 $91 $92 $40 #
cone-surface $-1 -62.638024975888463 -14.908637602873352 11.771330518796507 0.50000000669873634 0 -0.8660253999169214 0.21650634997923035 0 0.12500000167468409 1 I I 0 1 0.25 forward I I I I #
face $-1 $93 $94 $32 $-1 $95 forward single #
loop $-1 $96 $97 $41 #
cone-surface $-1 -62.638024975888463 -11.331157541839076 11.771330518796507 0.50000000669873634 0 -0.8660253999169214 0.21650634997923035 0 0.12500000167468409 1 I I 0 1 0.25 forward I I I I #
face $-1 $98 $99 $33 $-1 $100 reversed single #
loop $-1 $-1 $101 $42 #
plane-surface $-1 -138.18292887145012 8.9461708344828939 128.2927114178363 0 1 0 -0.50000000669873634 0 0.8660253999169214 forward_v I I I I #
face $-1 $102 $103 $34 $-1 $104 forward single #
loop $-1 $105 $106 $43 #
cone-surface $-1 -62.638024975888463 11.331157541839083 11.771330518796507 0.50000000669873634 0 -0.8660253999169214 0.21650634997923035 0 0.12500000167468409 1 I I 0 1 0.25 forward I I I I #
face $-1 $107 $108 $35 $-1 $109 forward single #
loop $-1 $110 $111 $44 #
cone-surface $-1 -62.638024975888463 14.908637602873355 11.771330518796507 0.50000000669873634 0 -0.8660253999169214 0.21650634997923035 0 0.12500000167468409 1 I I 0 1 0.25 forward I I I I #
face $-1 $112 $113 $27 $-1 $114 forward single #
loop $-1 $-1 $115 $45 #
plane-surface $-1 0 -37.516072429536528 0 0 1 0 0 0 1 forward_v I I I I #
coedge $-1 $116 $117 $118 $119 reversed $46 $-1 #
face $-1 $120 $121 $28 $-1 $122 reversed single #
loop $-1 $-1 $123 $48 #
plane-surface $-1 0 0 -15.785900455625411 0 0 1 1 0 0 forward_v I I I I #
coedge $-1 $124 $125 $126 $127 forward $49 $-1 #
face $-1 $128 $129 $29 $-1 $130 reversed single #
loop $-1 $-1 $131 $51 #
plane-surface $-1 0 0 -15.785900455625411 0 0 1 1 0 0 forward_v I I I I #
coedge $-1 $132 $133 $134 $135 forward $52 $-1 #
face $-1 $136 $137 $30 $-1 $138 reversed single #
loop $-1 $-1 $139 $54 #
plane-surface $-1 -69.091463972899547 -13.119897572356216 8.6227859818844763 -0.50000000669873634 0 0.8660253999169214 0.8660253999169214 0 0.50000000669873634 forward_v I I I I #
coedge $-1 $140 $141 $142 $143 reversed $55 $-1 #
face $-1 $-1 $144 $31 $-1 $145 forward single #
loop $-1 $146 $147 $57 #
cone-surface $-1 -62.325524971701753 -14.908637602873352 11.230064643848431 0.50000000669873634 0 -0.8660253999169214 0.10825317498961518 0 0.062500000837342043 1 I I -0.70710678118654746 0.70710678118654746 0.125 forward I I I I #
loop $-1 $-1 $148 $40 #
coedge $-1 $92 $92 $149 $150 reversed $58 $-1 #
face $-1 $-1 $151 $32 $-1 $152 forward single #
loop $-1 $153 $154 $60 #
cone-surface $-1 -62.325524971701753 -11.331157541839076 11.230064643848431 0.50000000669873634 0 -0.8660253999169214 0.10825317498961518 0 0.062500000837342043 1 I I -0.70710678118654746 0.70710678118654746 0.125 forward I I I I #
loop $-1 $-1 $155 $41 #
coedge $-1 $97 $97 $156 $157 reversed $61 $-1 #
face $-1 $158 $159 $33 $-1 $160 reversed single #
loop $-1 $-1 $161 $63 #
plane-surface $-1 -69.091463972899547 13.119897572356216 8.6227859818844763 -0.50000000669873634 0 0.8660253999169214 0.8660253999169214 0 0.50000000669873634 forward_v I I I I #
coedge $-1 $162 $163 $164 $165 reversed $64 $-1 #
face $-1 $-1 $166 $34 $-1 $167 forward single #
loop $-1 $168 $169 $66 #
cone-surface $-1 -62.325524971701753 11.331157541839083 11.230064643848431 0.50000000669873634 0 -0.8660253999169214 0.10825317498961518 0 0.062500000837342043 1 I I -0.70710678118654746 0.70710678118654746 0.125 forward I I I I #
loop $-1 $-1 $170 $43 #
coedge $-1 $106 $106 $171 $172 reversed $67 $-1 #
face $-1 $-1 $173 $35 $-1 $174 forward single #
loop $-1 $175 $176 $69 #
cone-surface $-1 -62.325524971701753 14.908637602873355 11.230064643848431 0.50000000669873634 0 -0.8660253999169214 0.10825317498961518 0 0.062500000837342043 1 I I -0.70710678118654746 0.70710678118654746 0.125 forward I I I I #
loop $-1 $-1 $177 $44 #
coedge $-1 $111 $111 $178 $179 reversed $70 $-1 #
face $-1 $180 $181 $27 $-1 $182 reversed single #
loop $-1 $-1 $183 $72 #
plane-surface $-1 0 0 15.785900455625411 0 0 1 1 0 0 forward_v I I I I #
coedge $-1 $184 $185 $186 $187 reversed $73 $-1 #
coedge $-1 $188 $75 $189 $190 reversed $46 $-1 #
coedge $-1 $75 $188 $191 $192 forward $46 $-1 #
coedge $-1 $193 $194 $75 $119 forward $181 $-1 #
edge $-1 $195 -69.091463972899561 $196 69.091463972899561 $75 $197 forward 7 unknown #
face $-1 $198 $199 $28 $-1 $200 reversed single #
loop $-1 $-1 $201 $76 #
plane-surface $-1 -65.077265579216785 -57.738520548843518 0 0 1 0 0 0 1 forward_v I I I I #
coedge $-1 $202 $203 $125 $204 forward $77 $-1 #
coedge $-1 $205 $79 $206 $207 reversed $49 $-1 #
coedge $-1 $79 $205 $123 $204 reversed $49 $-1 #
coedge $-1 $208 $209 $79 $127 reversed $199 $-1 #
edge $-1 $210 -15.785900455625411 $211 15.785900455625411 $126 $212 forward 7 unknown #
face $-1 $213 $214 $29 $-1 $215 reversed single #
loop $-1 $-1 $216 $80 #
plane-surface $-1 -67.446234612404041 47.627296489190023 0 1 0 0 0 0 -1 forward_v I I I I #
coedge $-1 $217 $218 $133 $219 forward $81 $-1 #
coedge $-1 $220 $83 $221 $222 reversed $52 $-1 #
coedge $-1 $83 $220 $131 $219 reversed $52 $-1 #
coedge $-1 $223 $224 $83 $135 reversed $225 $-1 #
edge $-1 $226 -15.785900455625411 $227 15.785900455625411 $134 $228 forward 7 unknown #
face $-1 $229 $230 $30 $-1 $231 reversed single #
loop $-1 $-1 $232 $84 #
plane-surface $-1 -138.18292887145012 -8.9461708344828939 128.2927114178363 0 -1 0 0.50000000669873634 0 -0.8660253999169214 forward_v I I I I #
coedge $-1 $233 $234 $235 $236 reversed $85 $-1 #
coedge $-1 $141 $87 $237 $238 reversed $55 $-1 #
coedge $-1 $87 $140 $233 $239 reversed $55 $-1 #
coedge $-1 $235 $240 $87 $143 forward $241 $-1 #
edge $-1 $242 4.6282549703846598e-007 $243 12.406878450149065 $142 $244 forward 7 unknown #
loop $-1 $-1 $149 $88 #
plane-surface $-1 -69.091463972899547 -13.119897572356216 8.6227859818844763 -0.50000000669873634 0 0.8660253999169214 0.8660253999169214 0 0.50000000669873634 forward_v I I I I #
loop $-1 $-1 $245 $57 #
coedge $-1 $147 $147 $148 $246 reversed $89 $-1 #
coedge $-1 $148 $148 $147 $246 forward $91 $-1 #
coedge $-1 $149 $149 $92 $150 forward $144 $-1 #
edge $-1 $247 0 $247 6.2831853071796004 $149 $248 forward 7 unknown #
loop $-1 $-1 $156 $93 #
plane-surface $-1 -69.091463972899547 -13.119897572356216 8.6227859818844763 -0.50000000669873634 0 0.8660253999169214 0.8660253999169214 0 0.50000000669873634 forward_v I I I I #
loop $-1 $-1 $249 $60 #
coedge $-1 $154 $154 $155 $250 reversed $94 $-1 #
coedge $-1 $155 $155 $154 $250 forward $96 $-1 #
coedge $-1 $156 $156 $97 $157 forward $151 $-1 #
edge $-1 $251 0 $251 6.2831853071796004 $156 $252 forward 7 unknown #
face $-1 $253 $254 $33 $-1 $255 forward single #
loop $-1 $-1 $256 $98 #
plane-surface $-1 -138.18292887145012 17.293624310229539 128.2927114178363 0 -1 0 0.50000000669873634 0 -0.8660253999169214 forward_v I I I I #
coedge $-1 $257 $258 $259 $260 reversed $99 $-1 #
coedge $-1 $163 $101 $261 $262 reversed $64 $-1 #
coedge $-1 $101 $162 $257 $263 reversed $64 $-1 #
coedge $-1 $259 $264 $101 $165 forward $254 $-1 #
edge $-1 $265 4.6282549703846598e-007 $266 12.406878450149065 $164 $267 forward 7 unknown #
loop $-1 $-1 $171 $102 #
plane-surface $-1 -69.091463972899547 13.119897572356216 8.6227859818844763 -0.50000000669873634 0 0.8660253999169214 0.8660253999169214 0 0.50000000669873634 forward_v I I I I #
loop $-1 $-1 $268 $66 #
coedge $-1 $169 $169 $170 $269 reversed $103 $-1 #
coedge $-1 $170 $170 $169 $269 forward $105 $-1 #
coedge $-1 $171 $171 $106 $172 forward $166 $-1 #
edge $-1 $270 0 $270 6.2831853071796004 $171 $271 forward 7 unknown #
loop $-1 $-1 $178 $107 #
plane-surface $-1 -69.091463972899547 13.119897572356216 8.6227859818844763 -0.50000000669873634 0 0.8660253999169214 0.8660253999169214 0 0.50000000669873634 forward_v I I I I #
loop $-1 $-1 $272 $69 #
coedge $-1 $176 $176 $177 $273 reversed $108 $-1 #
coedge $-1 $177 $177 $176 $273 forward $110 $-1 #
coedge $-1 $178 $178 $111 $179 forward $173 $-1 #
edge $-1 $274 0 $274 6.2831853071796004 $178 $275 forward 7 unknown #
face $-1 $276 $277 $27 $-1 $278 reversed single #
loop $-1 $-1 $193 $112 #
plane-surface $-1 0 0 -15.785900455625411 0 0 1 1 0 0 forward_v I I I I #
coedge $-1 $279 $280 $281 $282 forward $113 $-1 #
coedge $-1 $283 $115 $284 $285 reversed $73 $-1 #
coedge $-1 $115 $283 $286 $287 forward $73 $-1 #
coedge $-1 $194 $193 $115 $187 forward $181 $-1 #
edge $-1 $288 -69.091463972899561 $289 69.091463972899561 $115 $290 forward 7 unknown #
coedge $-1 $117 $116 $279 $291 reversed $46 $-1 #
coedge $-1 $292 $293 $116 $190 forward $277 $-1 #
edge $-1 $294 -15.785900455625411 $195 15.785900455625411 $116 $295 forward 7 unknown #
coedge $-1 $281 $296 $117 $192 reversed $297 $-1 #
edge $-1 $298 -15.785900455625411 $196 15.785900455625411 $191 $299 forward 7 unknown #
coedge $-1 $186 $118 $296 $300 forward $181 $-1 #
coedge $-1 $118 $186 $292 $301 forward $181 $-1 #
vertex $-1 $119 $302 #
vertex $-1 $300 $303 #
straight-curve $-1 0 37.516072429536528 -15.785900455625411 1 0 0 I I #
face $-1 $304 $305 $28 $-1 $306 reversed single #
loop $-1 $-1 $126 $120 #
plane-surface $-1 -67.446234612404041 -47.627296489190023 0 1 0 0 0 0 -1 forward_v I I I I #
coedge $-1 $307 $308 $309 $310 forward $121 $-1 #
coedge $-1 $311 $123 $312 $313 forward $77 $-1 #
coedge $-1 $123 $311 $208 $314 forward $77 $-1 #
edge $-1 $210 -67.446234612404041 $315 -62.70829654602953 $123 $316 forward 7 unknown #
coedge $-1 $125 $124 $317 $318 forward $49 $-1 #
coedge $-1 $319 $320 $124 $207 forward $321 $-1 #
edge $-1 $322 62.70829654602953 $211 67.446234612404041 $206 $323 forward 7 unknown #
coedge $-1 $309 $126 $203 $314 reversed $199 $-1 #
coedge $-1 $126 $309 $319 $324 reversed $199 $-1 #
vertex $-1 $204 $325 #
vertex $-1 $324 $326 #
straight-curve $-1 -67.446234612404041 -37.516072429536528 0 0 0 1 I I #
face $-1 $327 $225 $29 $-1 $328 reversed single #
loop $-1 $-1 $329 $128 #
plane-surface $-1 -65.077265579216785 57.738520548843518 0 0 -1 0 0 0 -1 forward_v I I I I #
coedge $-1 $330 $331 $332 $333 forward $129 $-1 #
coedge $-1 $334 $131 $330 $335 forward $81 $-1 #
coedge $-1 $131 $334 $223 $336 forward $81 $-1 #
edge $-1 $226 62.70829654602953 $337 67.446234612404041 $131 $338 forward 7 unknown #
coedge $-1 $133 $132 $339 $340 forward $52 $-1 #
coedge $-1 $341 $342 $132 $222 forward $343 $-1 #
edge $-1 $344 -67.446234612404041 $227 -62.70829654602953 $221 $345 forward 7 unknown #
coedge $-1 $346 $134 $218 $336 reversed $225 $-1 #
coedge $-1 $134 $346 $341 $347 reversed $225 $-1 #
loop $-1 $-1 $134 $213 #
vertex $-1 $219 $348 #
vertex $-1 $347 $349 #
straight-curve $-1 -62.70829654602953 37.516072429536528 0 0 0 1 I I #
face $-1 $-1 $241 $30 $-1 $350 forward single #
loop $-1 $-1 $351 $136 #
plane-surface $-1 -69.091463972899561 0 0 1 0 0 0 0 -1 forward_v I I I I #
coedge $-1 $352 $353 $354 $355 reversed $137 $-1 #
coedge $-1 $356 $139 $141 $239 forward $85 $-1 #
coedge $-1 $139 $356 $352 $357 forward $85 $-1 #
coedge $-1 $354 $142 $139 $236 forward $241 $-1 #
edge $-1 $243 -10.733675524051431 $358 -2.386222048304786 $235 $359 forward 7 unknown #
coedge $-1 $360 $361 $140 $238 forward $230 $-1 #
edge $-1 $362 -55.523569727033681 $242 -48.360455253292741 $237 $363 forward 7 unknown #
edge $-1 $243 -14.326228755546612 $362 1.6747853295891438e-014 $141 $364 forward 7 unknown #
coedge $-1 $142 $354 $360 $365 forward $241 $-1 #
loop $-1 $-1 $354 $229 #
vertex $-1 $238 $366 #
vertex $-1 $143 $367 #
straight-curve $-1 -69.091464435725058 -17.293624310229539 15.785900455625409 1 0 0 I I #
coedge $-1 $245 $245 $-1 $368 reversed $146 $-1 #
edge $-1 $369 0 $369 6.2831853071796004 $147 $370 forward 7 unknown #
vertex $-1 $150 $371 #
ellipse-curve $-1 -62.888024979237805 -14.908637602873352 12.204343218754923 -0.50000000669873634 0 0.8660253999169214 0.21650634997923035 0 0.12500000167468409 1 I I #
coedge $-1 $249 $249 $-1 $372 reversed $153 $-1 #
edge $-1 $373 0 $373 6.2831853071796004 $154 $374 forward 7 unknown #
vertex $-1 $157 $375 #
ellipse-curve $-1 -62.888024979237805 -11.331157541839076 12.204343218754923 -0.50000000669873634 0 0.8660253999169214 0.21650634997923035 0 0.12500000167468409 1 I I #
face $-1 $-1 $376 $33 $-1 $377 reversed single #
loop $-1 $-1 $164 $158 #
plane-surface $-1 0 0 15.785900455625411 0 0 1 1 0 0 forward_v I I I I #
coedge $-1 $378 $379 $380 $381 reversed $159 $-1 #
coedge $-1 $382 $161 $163 $263 forward $99 $-1 #
coedge $-1 $161 $382 $378 $383 forward $99 $-1 #
coedge $-1 $380 $164 $161 $260 forward $254 $-1 #
edge $-1 $266 2.386222048304786 $384 10.733675524051431 $259 $385 forward 7 unknown #
coedge $-1 $386 $387 $162 $262 forward $376 $-1 #
edge $-1 $388 -55.523569727033681 $265 -48.360455253292741 $261 $389 forward 7 unknown #
edge $-1 $266 -14.326228755546612 $388 1.6747853295891438e-014 $163 $390 forward 7 unknown #
coedge $-1 $164 $380 $386 $391 forward $254 $-1 #
vertex $-1 $262 $392 #
vertex $-1 $165 $393 #
straight-curve $-1 -69.091464435725058 8.9461708344828939 15.785900455625409 1 0 0 I I #
coedge $-1 $268 $268 $-1 $394 reversed $168 $-1 #
edge $-1 $395 0 $395 6.2831853071796004 $169 $396 forward 7 unknown #
vertex $-1 $172 $397 #
ellipse-curve $-1 -62.888024979237805 11.331157541839083 12.204343218754923 -0.50000000669873634 0 0.8660253999169214 0.21650634997923035 0 0.12500000167468409 1 I I #
coedge $-1 $272 $272 $-1 $398 reversed $175 $-1 #
edge $-1 $399 0 $399 6.2831853071796004 $176 $400 forward 7 unknown #
vertex $-1 $179 $401 #
ellipse-curve $-1 -62.888024979237805 14.908637602873355 12.204343218754923 -0.50000000669873634 0 0.8660253999169214 0.21650634997923035 0 0.12500000167468409 1 I I #
face $-1 $-1 $297 $27 $-1 $402 reversed single #
loop $-1 $-1 $189 $180 #
plane-surface $-1 -69.091463972899561 0 0 1 0 0 0 0 -1 forward_v I I I I #
coedge $-1 $403 $183 $188 $291 forward $113 $-1 #
coedge $-1 $183 $403 $283 $404 forward $113 $-1 #
coedge $-1 $284 $191 $183 $282 reversed $297 $-1 #
edge $-1 $405 -37.516072429536528 $298 37.516072429536528 $281 $406 forward 7 unknown #
coedge $-1 $185 $184 $280 $404 reversed $73 $-1 #
coedge $-1 $296 $281 $184 $285 forward $297 $-1 #
edge $-1 $405 -15.785900455625411 $288 15.785900455625411 $284 $407 forward 7 unknown #
coedge $-1 $293 $292 $185 $287 reversed $277 $-1 #
edge $-1 $408 -15.785900455625411 $289 15.785900455625411 $286 $409 forward 7 unknown #
vertex $-1 $285 $410 #
vertex $-1 $301 $411 #
straight-curve $-1 0 -37.516072429536528 -15.785900455625411 -1 0 0 I I #
edge $-1 $298 -69.091463972899561 $294 69.091463972899561 $188 $412 forward 7 unknown #
coedge $-1 $286 $189 $194 $301 reversed $277 $-1 #
coedge $-1 $189 $286 $403 $413 reversed $277 $-1 #
vertex $-1 $291 $414 #
straight-curve $-1 -69.091463972899561 37.516072429536528 0 0 0 -1 I I #
coedge $-1 $191 $284 $193 $300 reversed $297 $-1 #
loop $-1 $-1 $284 $276 #
vertex $-1 $282 $415 #
straight-curve $-1 69.091463972899561 37.516072429536528 0 0 0 -1 I I #
edge $-1 $196 -37.516072429536528 $288 37.516072429536528 $296 $416 forward 7 unknown #
edge $-1 $289 -37.516072429536528 $195 37.516072429536528 $292 $417 forward 7 unknown #
point $-1 -69.091463972899561 37.516072429536528 -15.785900455625411 #
point $-1 69.091463972899561 37.516072429536528 -15.785900455625411 #
face $-1 $-1 $321 $28 $-1 $418 forward single #
loop $-1 $-1 $419 $198 #
plane-surface $-1 -62.70829654602953 -47.627296489190023 0 -1 0 0 0 0 1 forward_v I I I I #
coedge $-1 $420 $201 $311 $421 reversed $121 $-1 #
coedge $-1 $201 $420 $422 $423 reversed $121 $-1 #
coedge $-1 $209 $208 $201 $310 reversed $199 $-1 #
edge $-1 $424 -15.785900455625411 $425 15.785900455625411 $309 $426 forward 7 unknown #
coedge $-1 $203 $202 $307 $421 forward $77 $-1 #
coedge $-1 $317 $419 $202 $313 reversed $305 $-1 #
edge $-1 $315 -10.111224059653495 $427 10.111224059653495 $312 $428 forward 7 unknown #
edge $-1 $425 -10.111224059653495 $210 10.111224059653495 $208 $429 forward 7 unknown #
vertex $-1 $313 $430 #
straight-curve $-1 0 -37.516072429536528 -15.785900455625411 1 0 0 I I #
coedge $-1 $431 $312 $205 $318 reversed $305 $-1 #
edge $-1 $322 -15.785900455625411 $315 15.785900455625411 $317 $432 forward 7 unknown #
coedge $-1 $422 $206 $209 $324 forward $321 $-1 #
coedge $-1 $206 $422 $431 $433 forward $321 $-1 #
loop $-1 $-1 $206 $304 #
vertex $-1 $207 $434 #
straight-curve $-1 0 -37.516072429536528 15.785900455625411 -1 0 0 I I #
edge $-1 $211 -10.111224059653495 $424 10.111224059653495 $209 $435 forward 7 unknown #
point $-1 -67.446234612404041 -37.516072429536528 -15.785900455625411 #
point $-1 -67.446234612404041 -37.516072429536528 15.785900455625411 #
face $-1 $-1 $343 $29 $-1 $436 forward single #
plane-surface $-1 -62.70829654602953 47.627296489190023 0 -1 0 0 0 0 1 forward_v I I I I #
coedge $-1 $437 $438 $346 $439 forward $214 $-1 #
coedge $-1 $339 $216 $217 $335 reversed $129 $-1 #
coedge $-1 $216 $339 $342 $440 reversed $129 $-1 #
coedge $-1 $438 $437 $216 $333 reversed $214 $-1 #
edge $-1 $441 -15.785900455625411 $442 15.785900455625411 $332 $443 forward 7 unknown #
coedge $-1 $218 $217 $437 $444 forward $81 $-1 #
edge $-1 $337 -10.111224059653495 $442 10.111224059653495 $330 $445 forward 7 unknown #
edge $-1 $446 -10.111224059653495 $226 10.111224059653495 $223 $447 forward 7 unknown #
vertex $-1 $335 $448 #
straight-curve $-1 0 37.516072429536528 -15.785900455625411 -1 0 0 I I #
coedge $-1 $331 $330 $220 $340 reversed $129 $-1 #
edge $-1 $344 -15.785900455625411 $337 15.785900455625411 $339 $449 forward 7 unknown #
coedge $-1 $450 $221 $224 $347 forward $343 $-1 #
coedge $-1 $221 $450 $331 $440 forward $343 $-1 #
loop $-1 $-1 $221 $327 #
vertex $-1 $222 $451 #
straight-curve $-1 0 37.516072429536528 15.785900455625411 1 0 0 I I #
coedge $-1 $224 $223 $329 $439 reversed $225 $-1 #
edge $-1 $227 -10.111224059653495 $452 10.111224059653495 $224 $453 forward 7 unknown #
point $-1 -62.70829654602953 37.516072429536528 -15.785900455625411 #
point $-1 -62.70829654602953 37.516072429536528 15.785900455625411 #
plane-surface $-1 0 0 15.785900455625411 0 0 1 1 0 0 forward_v I I I I #
coedge $-1 $361 $360 $353 $454 forward $230 $-1 #
coedge $-1 $353 $232 $234 $357 reversed $137 $-1 #
coedge $-1 $232 $352 $351 $454 reversed $137 $-1 #
coedge $-1 $240 $235 $232 $355 forward $241 $-1 #
edge $-1 $358 -12.406878450149065 $455 -4.6282549703846598e-007 $354 $456 forward 7 unknown #
coedge $-1 $234 $233 $361 $457 reversed $85 $-1 #
edge $-1 $458 -1.6747853295891438e-014 $358 14.326228755546612 $352 $459 forward 7 unknown #
vertex $-1 $236 $460 #
straight-curve $-1 -56.684585985575993 -6.5599487861781078 15.785900455625413 0 1 0 I I #
coedge $-1 $351 $237 $240 $365 reversed $230 $-1 #
coedge $-1 $237 $351 $356 $457 forward $230 $-1 #
vertex $-1 $238 $461 #
straight-curve $-1 -69.091463972899561 -17.293624310229539 64.146355708918151 0 0 1 I I #
straight-curve $-1 -69.091463972899547 -17.293624310229539 8.6227859818844763 -0.8660253999169214 0 -0.50000000669873634 I I #
edge $-1 $455 8.9461708344828939 $242 17.293624310229539 $360 $462 forward 7 unknown #
point $-1 -69.091463972899561 -17.293624310229539 15.785900455625411 #
point $-1 -56.684585985575993 -17.293624310229539 15.785900455625411 #
edge $-1 $463 1 $463 0 $245 $-1 forward 7 unknown #
vertex $-1 $246 $464 #
ellipse-curve $-1 -62.388024972539093 -14.908637602873352 11.338317818838046 -0.50000000669873634 0 0.8660253999169214 0.21650634997923035 0 0.12500000167468409 1 I I #
point $-1 -62.6715186292586 -14.908637602873352 12.329343220429651 #
edge $-1 $465 1 $465 0 $249 $-1 forward 7 unknown #
vertex $-1 $250 $466 #
ellipse-curve $-1 -62.388024972539093 -11.331157541839076 11.338317818838046 -0.50000000669873634 0 0.8660253999169214 0.21650634997923035 0 0.12500000167468409 1 I I #
point $-1 -62.6715186292586 -11.331157541839076 12.329343220429651 #
loop $-1 $-1 $261 $253 #
plane-surface $-1 -69.091463972899561 0 0 1 0 0 0 0 -1 forward_v I I I I #
coedge $-1 $379 $256 $258 $383 reversed $159 $-1 #
coedge $-1 $256 $378 $467 $468 reversed $159 $-1 #
coedge $-1 $264 $259 $256 $381 forward $254 $-1 #
edge $-1 $384 -12.406878450149065 $469 -4.6282549703846598e-007 $380 $470 forward 7 unknown #
coedge $-1 $258 $257 $387 $471 reversed $99 $-1 #
edge $-1 $472 -1.6747853295891438e-014 $384 14.326228755546612 $378 $473 forward 7 unknown #
vertex $-1 $260 $474 #
straight-curve $-1 -56.684585985575993 6.5599487861781078 15.785900455625413 0 1 0 I I #
coedge $-1 $467 $261 $264 $391 reversed $376 $-1 #
coedge $-1 $261 $467 $382 $471 forward $376 $-1 #
vertex $-1 $262 $475 #
straight-curve $-1 -69.091463972899561 8.9461708344828939 64.146355708918151 0 0 1 I I #
straight-curve $-1 -69.091463972899547 8.9461708344828939 8.6227859818844763 -0.8660253999169214 0 -0.50000000669873634 I I #
edge $-1 $469 -17.293624310229539 $265 -8.9461708344828939 $386 $476 forward 7 unknown #
point $-1 -69.091463972899561 8.9461708344828939 15.785900455625411 #
point $-1 -56.684585985575993 8.9461708344828939 15.785900455625411 #
edge $-1 $477 1 $477 0 $268 $-1 forward 7 unknown #
vertex $-1 $269 $478 #
ellipse-curve $-1 -62.388024972539093 11.331157541839083 11.338317818838046 -0.50000000669873634 0 0.8660253999169214 0.21650634997923035 0 0.12500000167468409 1 I I #
point $-1 -62.6715186292586 11.331157541839083 12.329343220429651 #
edge $-1 $479 1 $479 0 $272 $-1 forward 7 unknown #
vertex $-1 $273 $480 #
ellipse-curve $-1 -62.388024972539093 14.908637602873355 11.338317818838046 -0.50000000669873634 0 0.8660253999169214 0.21650634997923035 0 0.12500000167468409 1 I I #
point $-1 -62.6715186292586 14.908637602873355 12.329343220429651 #
plane-surface $-1 69.091463972899561 0 0 -1 0 0 0 0 1 forward_v I I I I #
coedge $-1 $280 $279 $293 $413 forward $113 $-1 #
edge $-1 $408 -69.091463972899561 $405 69.091463972899561 $283 $481 forward 7 unknown #
vertex $-1 $282 $482 #
straight-curve $-1 69.091463972899561 0 15.785900455625411 0 1 0 I I #
straight-curve $-1 69.091463972899561 -37.516072429536528 0 0 0 -1 I I #
vertex $-1 $413 $483 #
straight-curve $-1 -69.091463972899561 -37.516072429536528 0 0 0 -1 I I #
point $-1 69.091463972899561 -37.516072429536528 -15.785900455625411 #
point $-1 -69.091463972899561 -37.516072429536528 -15.785900455625411 #
straight-curve $-1 0 37.516072429536528 15.785900455625411 -1 0 0 I I #
edge $-1 $294 -37.516072429536528 $408 37.516072429536528 $293 $484 forward 7 unknown #
point $-1 -69.091463972899561 37.516072429536528 15.785900455625411 #
point $-1 69.091463972899561 37.516072429536528 15.785900455625411 #
straight-curve $-1 69.091463972899561 0 -15.785900455625411 0 -1 0 I I #
straight-curve $-1 -69.091463972899561 0 -15.785900455625411 0 1 0 I I #
plane-surface $-1 0 0 15.785900455625411 0 0 1 1 0 0 forward_v I I I I #
coedge $-1 $312 $431 $420 $485 forward $305 $-1 #
coedge $-1 $308 $307 $419 $485 reversed $121 $-1 #
edge $-1 $427 -2.3689690331872555 $425 2.3689690331872555 $307 $486 forward 7 unknown #
coedge $-1 $320 $319 $308 $423 forward $321 $-1 #
edge $-1 $424 -2.3689690331872555 $487 2.3689690331872555 $308 $488 forward 7 unknown #
vertex $-1 $324 $489 #
vertex $-1 $314 $490 #
straight-curve $-1 -67.446234612404041 -57.738520548843518 0 0 0 -1 I I #
vertex $-1 $485 $491 #
straight-curve $-1 -62.70829654602953 -47.627296489190023 -15.785900455625411 0 -1 0 I I #
straight-curve $-1 -67.446234612404041 -47.627296489190023 -15.785900455625411 0 1 0 I I #
point $-1 -62.70829654602953 -37.516072429536528 -15.785900455625411 #
coedge $-1 $419 $317 $320 $433 reversed $305 $-1 #
straight-curve $-1 -62.70829654602953 -37.516072429536528 0 0 0 -1 I I #
edge $-1 $487 -10.111224059653495 $322 10.111224059653495 $431 $492 forward 7 unknown #
point $-1 -62.70829654602953 -37.516072429536528 15.785900455625411 #
straight-curve $-1 -67.446234612404041 -47.627296489190023 15.785900455625411 0 -1 0 I I #
plane-surface $-1 0 0 15.785900455625411 0 0 1 1 0 0 forward_v I I I I #
coedge $-1 $332 $329 $334 $444 reversed $214 $-1 #
coedge $-1 $329 $332 $450 $493 reversed $214 $-1 #
edge $-1 $452 -15.785900455625411 $446 15.785900455625411 $346 $494 forward 7 unknown #
edge $-1 $441 -10.111224059653495 $344 10.111224059653495 $331 $495 forward 7 unknown #
vertex $-1 $493 $496 #
vertex $-1 $444 $497 #
straight-curve $-1 -67.446234612404041 57.738520548843518 0 0 0 -1 I I #
edge $-1 $442 -2.3689690331872555 $446 2.3689690331872555 $437 $498 forward 7 unknown #
straight-curve $-1 -67.446234612404041 47.627296489190023 -15.785900455625411 0 1 0 I I #
vertex $-1 $336 $499 #
straight-curve $-1 -62.70829654602953 47.627296489190023 -15.785900455625411 0 -1 0 I I #
point $-1 -67.446234612404041 37.516072429536528 -15.785900455625411 #
straight-curve $-1 -67.446234612404041 37.516072429536528 0 0 0 -1 I I #
coedge $-1 $342 $341 $438 $493 forward $343 $-1 #
point $-1 -67.446234612404041 37.516072429536528 15.785900455625411 #
vertex $-1 $347 $500 #
straight-curve $-1 -62.70829654602953 47.627296489190023 15.785900455625411 0 1 0 I I #
edge $-1 $455 48.360455253292741 $458 55.523569727033681 $351 $501 forward 7 unknown #
vertex $-1 $365 $502 #
straight-curve $-1 -69.091464435725058 -8.9461708344828939 15.785900455625409 -1 0 0 I I #
edge $-1 $458 2.386222048304786 $362 10.733675524051431 $361 $503 forward 7 unknown #
vertex $-1 $457 $504 #
straight-curve $-1 -69.091463972899547 -8.9461708344828939 8.6227859818844763 0.8660253999169214 0 0.50000000669873634 I I #
point $-1 -56.684585985575993 -8.9461708344828939 15.785900455625411 #
point $-1 -69.091463972899561 -17.293624310229539 8.6227859818844674 #
straight-curve $-1 -69.091463972899561 0 15.785900455625411 0 -1 0 I I #
vertex $-1 $368 $505 #
point $-1 -62.171518622559866 -14.908637602873352 11.46331782051273 #
vertex $-1 $372 $506 #
point $-1 -62.171518622559866 -11.331157541839076 11.46331782051273 #
coedge $-1 $387 $386 $379 $468 forward $376 $-1 #
edge $-1 $469 48.360455253292741 $472 55.523569727033681 $467 $507 forward 7 unknown #
vertex $-1 $391 $508 #
straight-curve $-1 -69.091464435725058 17.293624310229539 15.785900455625409 -1 0 0 I I #
edge $-1 $472 -10.733675524051431 $388 -2.386222048304786 $387 $509 forward 7 unknown #
vertex $-1 $471 $510 #
straight-curve $-1 -69.091463972899547 17.293624310229539 8.6227859818844763 0.8660253999169214 0 0.50000000669873634 I I #
point $-1 -56.684585985575993 17.293624310229539 15.785900455625411 #
point $-1 -69.091463972899561 8.9461708344828939 8.6227859818844674 #
straight-curve $-1 -69.091463972899561 0 15.785900455625411 0 -1 0 I I #
vertex $-1 $394 $511 #
point $-1 -62.171518622559866 11.331157541839083 11.46331782051273 #
vertex $-1 $398 $512 #
point $-1 -62.171518622559866 14.908637602873355 11.46331782051273 #
straight-curve $-1 0 -37.516072429536528 15.785900455625411 1 0 0 I I #
point $-1 69.091463972899561 -37.516072429536528 15.785900455625411 #
point $-1 -69.091463972899561 -37.516072429536528 15.785900455625411 #
straight-curve $-1 -69.091463972899561 0 15.785900455625411 0 -1 0 I I #
edge $-1 $487 -15.785900455625411 $427 15.785900455625411 $419 $513 forward 7 unknown #
straight-curve $-1 -65.077265579216785 -57.738520548843518 -15.785900455625411 -1 0 0 I I #
vertex $-1 $433 $514 #
straight-curve $-1 -65.077265579216785 -57.738520548843518 15.785900455625411 1 0 0 I I #
point $-1 -67.446234612404041 -57.738520548843518 15.785900455625411 #
point $-1 -67.446234612404041 -57.738520548843518 -15.785900455625411 #
point $-1 -62.70829654602953 -57.738520548843518 -15.785900455625411 #
straight-curve $-1 -62.70829654602953 -47.627296489190023 15.785900455625411 0 1 0 I I #
edge $-1 $452 -2.3689690331872555 $441 2.3689690331872555 $438 $515 forward 7 unknown #
straight-curve $-1 -62.70829654602953 57.738520548843518 0 0 0 -1 I I #
straight-curve $-1 -67.446234612404041 47.627296489190023 15.785900455625411 0 -1 0 I I #
point $-1 -67.446234612404041 57.738520548843518 15.785900455625411 #
point $-1 -67.446234612404041 57.738520548843518 -15.785900455625411 #
straight-curve $-1 -65.077265579216785 57.738520548843518 -15.785900455625411 1 0 0 I I #
point $-1 -62.70829654602953 57.738520548843518 -15.785900455625411 #
point $-1 -62.70829654602953 57.738520548843518 15.785900455625411 #
straight-curve $-1 -69.091463972899561 -8.9461708344828939 64.146355708918151 0 0 -1 I I #
point $-1 -69.091463972899561 -8.9461708344828939 15.785900455625411 #
straight-curve $-1 -69.091463972899561 -6.5599487861781078 8.622785981884471 0 -1 0 I I #
point $-1 -69.091463972899561 -8.9461708344828939 8.6227859818844674 #
point $-1 -62.263024970864414 -14.908637602873352 11.121811468858816 #
point $-1 -62.263024970864414 -11.331157541839076 11.121811468858816 #
straight-curve $-1 -69.091463972899561 17.293624310229539 64.146355708918151 0 0 -1 I I #
point $-1 -69.091463972899561 17.293624310229539 15.785900455625411 #
straight-curve $-1 -69.091463972899561 6.5599487861781078 8.622785981884471 0 -1 0 I I #
point $-1 -69.091463972899561 17.293624310229539 8.6227859818844674 #
point $-1 -62.263024970864414 11.331157541839083 11.121811468858816 #
point $-1 -62.263024970864414 14.908637602873355 11.121811468858816 #
straight-curve $-1 -62.70829654602953 -57.738520548843518 0 0 0 -1 I I #
point $-1 -62.70829654602953 -57.738520548843518 15.785900455625411 #
straight-curve $-1 -65.077265579216785 57.738520548843518 15.785900455625411 -1 0 0 I I #
End-of-ACIS-data 