500 0 15 0           
7 Unknown 11 ACIS 5.0 NT 24 Fri Mar 26 01:25:42 1999 
-1 9.9999999999999995e-007 1e-010 
body $-1 $15 $-1 $16 #
body $-1 $17 $-1 $18 #
body $-1 $19 $-1 $20 #
body $-1 $21 $-1 $22 #
body $-1 $23 $-1 $24 #
body $-1 $25 $-1 $26 #
body $-1 $27 $-1 $28 #
body $-1 $29 $-1 $30 #
body $-1 $31 $-1 $32 #
body $-1 $33 $-1 $34 #
body $-1 $35 $-1 $36 #
body $-1 $37 $-1 $38 #
body $-1 $39 $-1 $40 #
body $-1 $41 $-1 $42 #
body $-1 $43 $-1 $44 #
lump $-1 $-1 $45 $0 #
transform $-1 1 0 0 0 1 0 0 0 1 79.367656483657342 41.455170360011557 19.376404969901333 1 rotate no_reflect no_shear #
lump $-1 $-1 $46 $1 #
transform $-1 1 0 0 0 1 0 0 0 1 79.367656483657342 41.455170360011557 19.376404969901333 1 rotate no_reflect no_shear #
lump $-1 $-1 $47 $2 #
transform $-1 1 0 0 0 1 0 0 0 1 79.367656483657342 41.455170360011557 19.376404969901333 1 rotate no_reflect no_shear #
lump $-1 $-1 $48 $3 #
transform $-1 1 0 0 0 1 0 0 0 1 79.367656483657342 41.455170360011557 19.376404969901333 1 rotate no_reflect no_shear #
lump $-1 $-1 $49 $4 #
transform $-1 1 0 0 0 1 0 0 0 1 79.367656483657342 41.455170360011557 19.376404969901333 1 rotate no_reflect no_shear #
lump $-1 $-1 $50 $5 #
transform $-1 1 0 0 0 1 0 0 0 1 79.367656483657342 41.455170360011557 19.376404969901333 1 rotate no_reflect no_shear #
lump $-1 $-1 $51 $6 #
transform $-1 1 0 0 0 1 0 0 0 1 79.367656483657342 41.455170360011557 19.376404969901333 1 rotate no_reflect no_shear #
lump $-1 $-1 $52 $7 #
transform $-1 1 0 0 0 1 0 0 0 1 79.367656483657342 41.455170360011557 19.376404969901333 1 rotate no_reflect no_shear #
lump $-1 $-1 $53 $8 #
transform $-1 1 0 0 0 1 0 0 0 1 79.367656483657342 41.455170360011557 19.376404969901333 1 rotate no_reflect no_shear #
lump $-1 $-1 $54 $9 #
transform $-1 1 0 0 0 1 0 0 0 1 79.367656483657342 41.455170360011557 19.376404969901333 1 rotate no_reflect no_shear #
lump $-1 $-1 $55 $10 #
transform $-1 1 0 0 0 1 0 0 0 1 79.367656483657342 41.455170360011557 19.376404969901333 1 rotate no_reflect no_shear #
lump $-1 $-1 $56 $11 #
transform $-1 1 0 0 0 1 0 0 0 1 79.367656483657342 41.455170360011557 19.376404969901333 1 rotate no_reflect no_shear #
lump $-1 $-1 $57 $12 #
transform $-1 1 0 0 0 1 0 0 0 1 79.367656483657342 41.455170360011557 19.376404969901333 1 rotate no_reflect no_shear #
lump $-1 $-1 $58 $13 #
transform $-1 1 0 0 0 1 0 0 0 1 79.367656483657342 41.455170360011557 19.376404969901333 1 rotate no_reflect no_shear #
lump $-1 $-1 $59 $14 #
transform $-1 1 0 0 0 1 0 0 0 1 79.367656483657342 41.455170360011557 19.376404969901333 1 rotate no_reflect no_shear #
shell $-1 $-1 $-1 $60 $-1 $15 #
shell $-1 $-1 $-1 $61 $-1 $17 #
shell $-1 $-1 $-1 $62 $-1 $19 #
shell $-1 $-1 $-1 $63 $-1 $21 #
shell $-1 $-1 $-1 $64 $-1 $23 #
shell $-1 $-1 $-1 $65 $-1 $25 #
shell $-1 $-1 $-1 $66 $-1 $27 #
shell $-1 $-1 $-1 $67 $-1 $29 #
shell $-1 $-1 $-1 $68 $-1 $31 #
shell $-1 $-1 $-1 $69 $-1 $33 #
shell $-1 $-1 $-1 $70 $-1 $35 #
shell $-1 $-1 $-1 $71 $-1 $37 #
shell $-1 $-1 $-1 $72 $-1 $39 #
shell $-1 $-1 $-1 $73 $-1 $41 #
shell $-1 $-1 $-1 $74 $-1 $43 #
face $-1 $75 $76 $45 $-1 $77 forward single #
face $-1 $78 $79 $46 $-1 $80 reversed single #
face $-1 $81 $82 $47 $-1 $83 reversed single #
face $-1 $84 $85 $48 $-1 $86 reversed single #
face $-1 $87 $88 $49 $-1 $89 forward single #
face $-1 $90 $91 $50 $-1 $92 forward single #
face $-1 $93 $94 $51 $-1 $95 reversed single #
face $-1 $96 $97 $52 $-1 $98 forward single #
face $-1 $99 $100 $53 $-1 $101 forward single #
face $-1 $102 $103 $54 $-1 $104 reversed single #
face $-1 $105 $106 $55 $-1 $107 forward single #
face $-1 $108 $109 $56 $-1 $110 forward single #
face $-1 $111 $112 $57 $-1 $113 reversed single #
face $-1 $114 $115 $58 $-1 $116 forward single #
face $-1 $117 $118 $59 $-1 $119 forward single #
face $-1 $120 $121 $45 $-1 $122 reversed single #
loop $-1 $-1 $123 $60 #
plane-surface $-1 0 0 19.376404969901333 0 0 1 1 0 0 forward_v I I I I #
face $-1 $124 $125 $46 $-1 $126 reversed single #
loop $-1 $-1 $127 $61 #
plane-surface $-1 -76.740278178601386 -23.933381891685023 0 0 -1 0 0 0 -1 forward_v I I I I #
face $-1 $128 $129 $47 $-1 $130 reversed single #
loop $-1 $-1 $131 $62 #
plane-surface $-1 -44.469726342380319 20.630800891150908 0 0 1 0 0 0 1 forward_v I I I I #
face $-1 $132 $133 $48 $-1 $134 reversed single #
loop $-1 $-1 $135 $63 #
plane-surface $-1 28.869378589092108 -10.984485215668323 234.68267008008149 0 -1 0 -0.52991927123019833 0 -0.84804809178421925 forward_v I I I I #
face $-1 $136 $137 $49 $-1 $138 forward single #
loop $-1 $139 $140 $64 #
cone-surface $-1 75.97821111884933 -18.438399254132388 16.626128407137781 -0.52991927123019833 0 -0.84804809178421925 0.84804809178421925 0 -0.52991927123019833 1 I I 0 1 1 forward I I I I #
face $-1 $141 $142 $50 $-1 $143 forward single #
loop $-1 $144 $145 $65 #
cone-surface $-1 75.97821111884933 -13.966050831053948 16.626128407137781 -0.52991927123019833 0 -0.84804809178421925 0.84804809178421925 0 -0.52991927123019833 1 I I 0 1 1 forward I I I I #
face $-1 $146 $147 $51 $-1 $148 reversed single #
loop $-1 $-1 $149 $66 #
plane-surface $-1 28.869378589092108 18.1173838689839 234.68267008008149 0 -1 0 -0.52991927123019833 0 -0.84804809178421925 forward_v I I I I #
face $-1 $150 $151 $52 $-1 $152 forward single #
loop $-1 $153 $154 $67 #
cone-surface $-1 75.97821111884933 10.663469830519837 16.626128407137781 -0.52991927123019833 0 -0.84804809178421925 0.84804809178421925 0 -0.52991927123019833 1 I I 0 1 1 forward I I I I #
face $-1 $155 $156 $53 $-1 $157 forward single #
loop $-1 $158 $159 $68 #
cone-surface $-1 75.97821111884933 15.135818253598273 16.626128407137781 -0.52991927123019833 0 -0.84804809178421925 0.84804809178421925 0 -0.52991927123019833 1 I I 0 1 1 forward I I I I #
face $-1 $160 $161 $54 $-1 $162 reversed single #
loop $-1 $-1 $163 $69 #
plane-surface $-1 -193.55228612806579 -10.411109641095354 116.93392397912436 0 1 0 -0.71933980857756763 0 0.69465836192734942 forward_v I I I I #
face $-1 $164 $165 $55 $-1 $166 forward single #
loop $-1 $167 $168 $70 #
cone-surface $-1 -72.499335181421984 -7.9083041722872736 12.315153704684615 0.71933980857756763 0 -0.69465836192734942 0.69465836192734942 0 0.71933980857756763 1 I I 0 1 1 forward I I I I #
face $-1 $169 $170 $56 $-1 $171 forward single #
loop $-1 $172 $173 $71 #
cone-surface $-1 -72.499335181421984 -4.1540959690751436 12.315153704684615 0.71933980857756763 0 -0.69465836192734942 0.69465836192734942 0 0.71933980857756763 1 I I 0 1 1 forward I I I I #
face $-1 $174 $175 $57 $-1 $176 reversed single #
loop $-1 $-1 $177 $72 #
plane-surface $-1 -193.55228612806579 11.87098175032261 116.93392397912436 0 1 0 -0.71933980857756763 0 0.69465836192734942 forward_v I I I I #
face $-1 $178 $179 $58 $-1 $180 forward single #
loop $-1 $181 $182 $73 #
cone-surface $-1 -72.499335181421984 14.373787219130698 12.315153704684615 0.71933980857756763 0 -0.69465836192734942 0.69465836192734942 0 0.71933980857756763 1 I I 0 1 1 forward I I I I #
face $-1 $183 $184 $59 $-1 $185 forward single #
loop $-1 $186 $187 $74 #
cone-surface $-1 -72.499335181421984 18.127995422342828 12.315153704684615 0.71933980857756763 0 -0.69465836192734942 0.69465836192734942 0 0.71933980857756763 1 I I 0 1 1 forward I I I I #
face $-1 $188 $189 $45 $-1 $190 reversed single #
loop $-1 $-1 $191 $75 #
plane-surface $-1 0 0 -19.376404969901333 0 0 1 1 0 0 forward_v I I I I #
coedge $-1 $192 $193 $194 $195 forward $76 $-1 #
face $-1 $196 $197 $46 $-1 $198 forward single #
loop $-1 $-1 $199 $78 #
plane-surface $-1 -74.11289987354543 -32.69427612584829 0 -1 0 0 0 0 1 forward_v I I I I #
coedge $-1 $200 $201 $202 $203 forward $79 $-1 #
face $-1 $204 $205 $47 $-1 $206 reversed single #
loop $-1 $-1 $207 $81 #
plane-surface $-1 -48.324606140905964 31.042985625581231 0 1 0 0 0 0 -1 forward_v I I I I #
coedge $-1 $208 $209 $210 $211 forward $82 $-1 #
face $-1 $212 $213 $48 $-1 $214 reversed single #
loop $-1 $-1 $215 $84 #
plane-surface $-1 -55.247522777044736 -16.20222504259317 100.06749081937943 0.52991927123019833 0 0.84804809178421925 0.84804809178421925 0 -0.52991927123019833 forward_v I I I I #
coedge $-1 $216 $217 $218 $219 reversed $85 $-1 #
face $-1 $-1 $220 $49 $-1 $221 forward single #
loop $-1 $222 $223 $87 #
cone-surface $-1 75.065031498815486 -18.438399254132388 15.164735556811483 -0.52991927123019833 0 -0.84804809178421925 0.42402404589210962 0 -0.26495963561509916 1 I I -0.70710678118654746 0.70710678118654746 0.5 forward I I I I #
loop $-1 $-1 $224 $64 #
coedge $-1 $140 $140 $225 $226 reversed $88 $-1 #
face $-1 $-1 $227 $50 $-1 $228 forward single #
loop $-1 $229 $230 $90 #
cone-surface $-1 75.065031498815486 -13.966050831053948 15.164735556811483 -0.52991927123019833 0 -0.84804809178421925 0.42402404589210962 0 -0.26495963561509916 1 I I -0.70710678118654746 0.70710678118654746 0.5 forward I I I I #
loop $-1 $-1 $231 $65 #
coedge $-1 $145 $145 $232 $233 reversed $91 $-1 #
face $-1 $234 $235 $51 $-1 $236 reversed single #
loop $-1 $-1 $237 $93 #
plane-surface $-1 -55.247522777044736 12.899644042059052 100.06749081937943 0.52991927123019833 0 0.84804809178421925 0.84804809178421925 0 -0.52991927123019833 forward_v I I I I #
coedge $-1 $238 $239 $240 $241 reversed $94 $-1 #
face $-1 $-1 $242 $52 $-1 $243 forward single #
loop $-1 $244 $245 $96 #
cone-surface $-1 75.065031498815486 10.663469830519837 15.164735556811483 -0.52991927123019833 0 -0.84804809178421925 0.42402404589210962 0 -0.26495963561509916 1 I I -0.70710678118654746 0.70710678118654746 0.5 forward I I I I #
loop $-1 $-1 $246 $67 #
coedge $-1 $154 $154 $247 $248 reversed $97 $-1 #
face $-1 $-1 $249 $53 $-1 $250 forward single #
loop $-1 $251 $252 $99 #
cone-surface $-1 75.065031498815486 15.135818253598273 15.164735556811483 -0.52991927123019833 0 -0.84804809178421925 0.42402404589210962 0 -0.26495963561509916 1 I I -0.70710678118654746 0.70710678118654746 0.5 forward I I I I #
loop $-1 $-1 $253 $68 #
coedge $-1 $159 $159 $254 $255 reversed $100 $-1 #
face $-1 $256 $257 $54 $-1 $258 reversed single #
loop $-1 $-1 $259 $102 #
plane-surface $-1 -79.367656483657356 -6.0312000706812015 6.6671114932243967 -0.71933980857756763 0 0.69465836192734942 0.69465836192734942 0 0.71933980857756763 forward_v I I I I #
coedge $-1 $260 $261 $262 $263 reversed $103 $-1 #
face $-1 $-1 $264 $55 $-1 $265 forward single #
loop $-1 $266 $267 $105 #
cone-surface $-1 -71.407954852321822 -7.9083041722872736 11.261219996842694 0.71933980857756763 0 -0.69465836192734942 0.34732918096367471 0 0.35966990428878381 1 I I -0.70710678118654746 0.70710678118654746 0.5 forward I I I I #
loop $-1 $-1 $268 $70 #
coedge $-1 $168 $168 $269 $270 reversed $106 $-1 #
face $-1 $-1 $271 $56 $-1 $272 forward single #
loop $-1 $273 $274 $108 #
cone-surface $-1 -71.407954852321822 -4.1540959690751436 11.261219996842694 0.71933980857756763 0 -0.69465836192734942 0.34732918096367471 0 0.35966990428878381 1 I I -0.70710678118654746 0.70710678118654746 0.5 forward I I I I #
loop $-1 $-1 $275 $71 #
coedge $-1 $173 $173 $276 $277 reversed $109 $-1 #
face $-1 $278 $279 $57 $-1 $280 reversed single #
loop $-1 $-1 $281 $111 #
plane-surface $-1 -79.367656483657356 16.250891320736763 6.6671114932243967 -0.71933980857756763 0 0.69465836192734942 0.69465836192734942 0 0.71933980857756763 forward_v I I I I #
coedge $-1 $282 $283 $284 $285 reversed $112 $-1 #
face $-1 $-1 $286 $58 $-1 $287 forward single #
loop $-1 $288 $289 $114 #
cone-surface $-1 -71.407954852321822 14.373787219130698 11.261219996842694 0.71933980857756763 0 -0.69465836192734942 0.34732918096367471 0 0.35966990428878381 1 I I -0.70710678118654746 0.70710678118654746 0.5 forward I I I I #
loop $-1 $-1 $290 $73 #
coedge $-1 $182 $182 $291 $292 reversed $115 $-1 #
face $-1 $-1 $293 $59 $-1 $294 forward single #
loop $-1 $295 $296 $117 #
cone-surface $-1 -71.407954852321822 18.127995422342828 11.261219996842694 0.71933980857756763 0 -0.69465836192734942 0.34732918096367471 0 0.35966990428878381 1 I I -0.70710678118654746 0.70710678118654746 0.5 forward I I I I #
loop $-1 $-1 $297 $74 #
coedge $-1 $187 $187 $298 $299 reversed $118 $-1 #
face $-1 $300 $301 $45 $-1 $302 reversed single #
loop $-1 $-1 $303 $120 #
plane-surface $-1 0 -41.455170360011557 0 0 1 0 0 0 1 forward_v I I I I #
coedge $-1 $304 $305 $306 $307 forward $121 $-1 #
coedge $-1 $308 $123 $309 $310 forward $76 $-1 #
coedge $-1 $123 $308 $311 $312 forward $76 $-1 #
coedge $-1 $313 $314 $123 $195 reversed $315 $-1 #
edge $-1 $316 -41.455170360011557 $317 41.455170360011557 $194 $318 forward 7 unknown #
face $-1 $319 $320 $46 $-1 $321 reversed single #
loop $-1 $-1 $322 $124 #
plane-surface $-1 0 0 19.376404969901333 0 0 1 1 0 0 forward_v I I I I #
coedge $-1 $323 $324 $325 $326 reversed $125 $-1 #
coedge $-1 $327 $127 $328 $329 reversed $79 $-1 #
coedge $-1 $127 $327 $330 $331 reversed $79 $-1 #
coedge $-1 $324 $323 $127 $203 reversed $125 $-1 #
edge $-1 $332 -19.376404969901333 $333 19.376404969901333 $202 $334 forward 7 unknown #
face $-1 $335 $336 $47 $-1 $337 reversed single #
loop $-1 $-1 $338 $128 #
plane-surface $-1 -40.614846543854675 31.042985625581231 0 -1 0 0 0 0 1 forward_v I I I I #
coedge $-1 $339 $340 $341 $342 reversed $129 $-1 #
coedge $-1 $343 $131 $344 $345 reversed $82 $-1 #
coedge $-1 $131 $343 $346 $347 reversed $82 $-1 #
coedge $-1 $340 $339 $131 $211 reversed $129 $-1 #
edge $-1 $348 -19.376404969901333 $349 19.376404969901333 $210 $350 forward 7 unknown #
face $-1 $351 $352 $48 $-1 $353 forward single #
loop $-1 $-1 $354 $132 #
plane-surface $-1 28.869378589092108 -21.419964869518019 234.68267008008149 0 1 0 0.52991927123019833 0 0.84804809178421925 forward_v I I I I #
coedge $-1 $355 $356 $357 $358 reversed $133 $-1 #
coedge $-1 $217 $135 $359 $360 reversed $85 $-1 #
coedge $-1 $135 $216 $355 $361 reversed $85 $-1 #
coedge $-1 $357 $362 $135 $219 forward $352 $-1 #
edge $-1 $363 -64.932967189111281 $364 -59.450516428332712 $218 $365 forward 7 unknown #
loop $-1 $-1 $225 $136 #
plane-surface $-1 -55.247522777044736 -16.20222504259317 100.06749081937943 0.52991927123019833 0 0.84804809178421925 0.84804809178421925 0 -0.52991927123019833 forward_v I I I I #
loop $-1 $-1 $366 $87 #
coedge $-1 $223 $223 $224 $367 reversed $137 $-1 #
coedge $-1 $224 $224 $223 $367 forward $139 $-1 #
coedge $-1 $225 $225 $140 $226 forward $220 $-1 #
edge $-1 $368 0 $368 6.2831853071796004 $225 $369 forward 7 unknown #
loop $-1 $-1 $232 $141 #
plane-surface $-1 -55.247522777044736 -16.20222504259317 100.06749081937943 0.52991927123019833 0 0.84804809178421925 0.84804809178421925 0 -0.52991927123019833 forward_v I I I I #
loop $-1 $-1 $370 $90 #
coedge $-1 $230 $230 $231 $371 reversed $142 $-1 #
coedge $-1 $231 $231 $230 $371 forward $144 $-1 #
coedge $-1 $232 $232 $145 $233 forward $227 $-1 #
edge $-1 $372 0 $372 6.2831853071796004 $232 $373 forward 7 unknown #
face $-1 $374 $375 $51 $-1 $376 reversed single #
loop $-1 $-1 $377 $146 #
plane-surface $-1 28.869378589092108 7.681904215134205 234.68267008008149 0 1 0 0.52991927123019833 0 0.84804809178421925 forward_v I I I I #
coedge $-1 $378 $379 $380 $381 reversed $147 $-1 #
coedge $-1 $239 $149 $382 $383 reversed $94 $-1 #
coedge $-1 $149 $238 $378 $384 reversed $94 $-1 #
coedge $-1 $380 $385 $149 $241 forward $386 $-1 #
edge $-1 $387 -64.932967189111281 $388 -59.450516428332712 $240 $389 forward 7 unknown #
loop $-1 $-1 $247 $150 #
plane-surface $-1 -55.247522777044736 12.899644042059052 100.06749081937943 0.52991927123019833 0 0.84804809178421925 0.84804809178421925 0 -0.52991927123019833 forward_v I I I I #
loop $-1 $-1 $390 $96 #
coedge $-1 $245 $245 $246 $391 reversed $151 $-1 #
coedge $-1 $246 $246 $245 $391 forward $153 $-1 #
coedge $-1 $247 $247 $154 $248 forward $242 $-1 #
edge $-1 $392 0 $392 6.2831853071796004 $247 $393 forward 7 unknown #
loop $-1 $-1 $254 $155 #
plane-surface $-1 -55.247522777044736 12.899644042059052 100.06749081937943 0.52991927123019833 0 0.84804809178421925 0.84804809178421925 0 -0.52991927123019833 forward_v I I I I #
loop $-1 $-1 $394 $99 #
coedge $-1 $252 $252 $253 $395 reversed $156 $-1 #
coedge $-1 $253 $253 $252 $395 forward $158 $-1 #
coedge $-1 $254 $254 $159 $255 forward $249 $-1 #
edge $-1 $396 0 $396 6.2831853071796004 $254 $397 forward 7 unknown #
face $-1 $398 $399 $54 $-1 $400 reversed single #
loop $-1 $-1 $401 $160 #
plane-surface $-1 -193.55228612806579 -1.6512905002670486 116.93392397912436 0 -1 0 0.71933980857756763 0 -0.69465836192734942 forward_v I I I I #
coedge $-1 $402 $403 $404 $405 reversed $161 $-1 #
coedge $-1 $261 $163 $406 $407 reversed $103 $-1 #
coedge $-1 $163 $260 $402 $408 reversed $103 $-1 #
coedge $-1 $404 $409 $163 $263 forward $410 $-1 #
edge $-1 $411 17.408486580375552 $412 29.681708335223462 $262 $413 forward 7 unknown #
loop $-1 $-1 $269 $164 #
plane-surface $-1 -79.367656483657356 -6.0312000706812015 6.6671114932243967 -0.71933980857756763 0 0.69465836192734942 0.69465836192734942 0 0.71933980857756763 forward_v I I I I #
loop $-1 $-1 $414 $105 #
coedge $-1 $267 $267 $268 $415 reversed $165 $-1 #
coedge $-1 $268 $268 $267 $415 forward $167 $-1 #
coedge $-1 $269 $269 $168 $270 forward $264 $-1 #
edge $-1 $416 0 $416 6.2831853071796004 $269 $417 forward 7 unknown #
loop $-1 $-1 $276 $169 #
plane-surface $-1 -79.367656483657356 -6.0312000706812015 6.6671114932243967 -0.71933980857756763 0 0.69465836192734942 0.69465836192734942 0 0.71933980857756763 forward_v I I I I #
loop $-1 $-1 $418 $108 #
coedge $-1 $274 $274 $275 $419 reversed $170 $-1 #
coedge $-1 $275 $275 $274 $419 forward $172 $-1 #
coedge $-1 $276 $276 $173 $277 forward $271 $-1 #
edge $-1 $420 0 $420 6.2831853071796004 $276 $421 forward 7 unknown #
face $-1 $422 $423 $57 $-1 $424 forward single #
loop $-1 $-1 $425 $174 #
plane-surface $-1 -193.55228612806579 20.630800891150916 116.93392397912436 0 -1 0 0.71933980857756763 0 -0.69465836192734942 forward_v I I I I #
coedge $-1 $426 $427 $428 $429 reversed $175 $-1 #
coedge $-1 $283 $177 $430 $431 reversed $112 $-1 #
coedge $-1 $177 $282 $426 $432 reversed $112 $-1 #
coedge $-1 $428 $433 $177 $285 forward $423 $-1 #
edge $-1 $434 17.408486580375552 $435 29.681708335223462 $284 $436 forward 7 unknown #
loop $-1 $-1 $291 $178 #
plane-surface $-1 -79.367656483657356 16.250891320736763 6.6671114932243967 -0.71933980857756763 0 0.69465836192734942 0.69465836192734942 0 0.71933980857756763 forward_v I I I I #
loop $-1 $-1 $437 $114 #
coedge $-1 $289 $289 $290 $438 reversed $179 $-1 #
coedge $-1 $290 $290 $289 $438 forward $181 $-1 #
coedge $-1 $291 $291 $182 $292 forward $286 $-1 #
edge $-1 $439 0 $439 6.2831853071796004 $291 $440 forward 7 unknown #
loop $-1 $-1 $298 $183 #
plane-surface $-1 -79.367656483657356 16.250891320736763 6.6671114932243967 -0.71933980857756763 0 0.69465836192734942 0.69465836192734942 0 0.71933980857756763 forward_v I I I I #
loop $-1 $-1 $441 $117 #
coedge $-1 $296 $296 $297 $442 reversed $184 $-1 #
coedge $-1 $297 $297 $296 $442 forward $186 $-1 #
coedge $-1 $298 $298 $187 $299 forward $293 $-1 #
edge $-1 $443 0 $443 6.2831853071796004 $298 $444 forward 7 unknown #
face $-1 $445 $446 $45 $-1 $447 reversed single #
loop $-1 $-1 $448 $188 #
plane-surface $-1 -79.367656483657342 0 0 1 0 0 0 0 -1 forward_v I I I I #
coedge $-1 $449 $311 $450 $451 forward $189 $-1 #
coedge $-1 $452 $191 $449 $453 forward $121 $-1 #
coedge $-1 $191 $452 $454 $455 forward $121 $-1 #
coedge $-1 $314 $313 $191 $307 reversed $315 $-1 #
edge $-1 $456 -41.455170360011557 $457 41.455170360011557 $306 $458 forward 7 unknown #
coedge $-1 $193 $192 $459 $460 forward $76 $-1 #
coedge $-1 $461 $462 $192 $310 reversed $446 $-1 #
edge $-1 $317 -79.367656483657342 $463 79.367656483657342 $309 $464 forward 7 unknown #
coedge $-1 $303 $465 $193 $312 reversed $189 $-1 #
edge $-1 $466 -79.367656483657342 $316 79.367656483657342 $311 $467 forward 7 unknown #
coedge $-1 $306 $194 $465 $468 forward $315 $-1 #
coedge $-1 $194 $306 $461 $469 reversed $315 $-1 #
loop $-1 $-1 $313 $445 #
vertex $-1 $195 $470 #
vertex $-1 $195 $471 #
straight-curve $-1 79.367656483657342 0 19.376404969901333 0 1 0 I I #
face $-1 $472 $473 $46 $-1 $474 reversed single #
loop $-1 $-1 $475 $196 #
plane-surface $-1 -79.367656483657342 0 0 1 0 0 0 0 -1 forward_v I I I I #
coedge $-1 $330 $476 $324 $477 forward $197 $-1 #
coedge $-1 $202 $199 $478 $479 reversed $125 $-1 #
coedge $-1 $199 $202 $322 $477 reversed $125 $-1 #
coedge $-1 $480 $481 $199 $326 forward $482 $-1 #
edge $-1 $483 -19.376404969901333 $484 19.376404969901333 $325 $485 forward 7 unknown #
coedge $-1 $201 $200 $475 $486 reversed $79 $-1 #
coedge $-1 $478 $487 $200 $329 forward $473 $-1 #
edge $-1 $488 -40.997517394356649 $333 -35.742760784244737 $328 $489 forward 7 unknown #
coedge $-1 $490 $322 $201 $331 forward $197 $-1 #
edge $-1 $332 35.742760784244737 $491 40.997517394356649 $330 $492 forward 7 unknown #
vertex $-1 $331 $493 #
vertex $-1 $329 $494 #
straight-curve $-1 -74.11289987354543 -23.933381891685023 0 0 0 -1 I I #
face $-1 $495 $496 $47 $-1 $497 forward single #
loop $-1 $-1 $498 $204 #
plane-surface $-1 0 0 -19.376404969901333 0 0 1 1 0 0 forward_v I I I I #
coedge $-1 $499 $500 $343 $501 forward $205 $-1 #
coedge $-1 $210 $207 $502 $503 reversed $129 $-1 #
coedge $-1 $207 $210 $504 $505 reversed $129 $-1 #
coedge $-1 $506 $507 $207 $342 forward $508 $-1 #
edge $-1 $509 -19.376404969901333 $510 19.376404969901333 $341 $511 forward 7 unknown #
coedge $-1 $209 $208 $338 $501 reversed $82 $-1 #
coedge $-1 $502 $498 $208 $345 forward $336 $-1 #
edge $-1 $512 18.379983372664515 $349 26.089742969715804 $344 $513 forward 7 unknown #
coedge $-1 $514 $504 $209 $347 forward $496 $-1 #
edge $-1 $348 -26.089742969715804 $515 -18.379983372664515 $346 $516 forward 7 unknown #
vertex $-1 $347 $517 #
vertex $-1 $345 $518 #
straight-curve $-1 -48.324606140905964 20.630800891150908 0 0 0 -1 I I #
face $-1 $-1 $519 $48 $-1 $520 reversed single #
loop $-1 $-1 $218 $212 #
plane-surface $-1 0 0 19.376404969901333 0 0 1 1 0 0 forward_v I I I I #
coedge $-1 $521 $522 $523 $524 reversed $213 $-1 #
coedge $-1 $525 $215 $217 $361 forward $133 $-1 #
coedge $-1 $215 $525 $521 $526 forward $133 $-1 #
coedge $-1 $523 $218 $215 $358 forward $352 $-1 #
edge $-1 $364 2.8833726943717384 $527 13.318852348221434 $357 $528 forward 7 unknown #
coedge $-1 $529 $530 $216 $360 forward $519 $-1 #
edge $-1 $531 -101.39074558679818 $363 -97.964930070139417 $359 $532 forward 7 unknown #
edge $-1 $364 152.27052539937858 $531 158.73531296731471 $217 $533 forward 7 unknown #
coedge $-1 $218 $523 $529 $534 forward $352 $-1 #
vertex $-1 $219 $535 #
vertex $-1 $219 $536 #
straight-curve $-1 14.434689294546054 -10.984485215668323 19.37640496990133 -1 0 0 I I #
coedge $-1 $366 $366 $-1 $537 reversed $222 $-1 #
edge $-1 $538 0 $538 6.2831853071796004 $223 $539 forward 7 unknown #
vertex $-1 $226 $540 #
ellipse-curve $-1 76.626431103268061 -18.438399254132388 17.663497211571954 0.52991927123019833 0 0.84804809178421925 0.84804809178421925 0 -0.52991927123019833 1 I I #
coedge $-1 $370 $370 $-1 $541 reversed $229 $-1 #
edge $-1 $542 0 $542 6.2831853071796004 $230 $543 forward 7 unknown #
vertex $-1 $233 $544 #
ellipse-curve $-1 76.626431103268061 -13.966050831053948 17.663497211571954 0.52991927123019833 0 0.84804809178421925 0.84804809178421925 0 -0.52991927123019833 1 I I #
face $-1 $-1 $386 $51 $-1 $545 forward single #
loop $-1 $-1 $546 $234 #
plane-surface $-1 79.367656483657342 0 0 -1 0 0 0 0 1 forward_v I I I I #
coedge $-1 $547 $548 $549 $550 reversed $235 $-1 #
coedge $-1 $551 $237 $239 $384 forward $147 $-1 #
coedge $-1 $237 $551 $547 $552 forward $147 $-1 #
coedge $-1 $549 $240 $237 $381 forward $386 $-1 #
edge $-1 $388 -11.667561847954374 $553 -1.2320821941046791 $380 $554 forward 7 unknown #
coedge $-1 $555 $556 $238 $383 forward $375 $-1 #
edge $-1 $557 -101.39074558679818 $387 -97.964930070139417 $382 $558 forward 7 unknown #
edge $-1 $388 152.27052539937858 $557 158.73531296731471 $239 $559 forward 7 unknown #
coedge $-1 $240 $549 $555 $560 forward $386 $-1 #
loop $-1 $-1 $549 $374 #
vertex $-1 $383 $561 #
vertex $-1 $241 $562 #
straight-curve $-1 14.434689294546054 18.1173838689839 19.37640496990133 -1 0 0 I I #
coedge $-1 $390 $390 $-1 $563 reversed $244 $-1 #
edge $-1 $564 0 $564 6.2831853071796004 $245 $565 forward 7 unknown #
vertex $-1 $248 $566 #
ellipse-curve $-1 76.626431103268061 10.663469830519837 17.663497211571954 0.52991927123019833 0 0.84804809178421925 0.84804809178421925 0 -0.52991927123019833 1 I I #
coedge $-1 $394 $394 $-1 $567 reversed $251 $-1 #
edge $-1 $568 0 $568 6.2831853071796004 $252 $569 forward 7 unknown #
vertex $-1 $255 $570 #
ellipse-curve $-1 76.626431103268061 15.135818253598273 17.663497211571954 0.52991927123019833 0 0.84804809178421925 0.84804809178421925 0 -0.52991927123019833 1 I I #
face $-1 $-1 $410 $54 $-1 $571 forward single #
loop $-1 $-1 $572 $256 #
plane-surface $-1 -79.367656483657342 0 0 1 0 0 0 0 -1 forward_v I I I I #
coedge $-1 $573 $574 $575 $576 reversed $257 $-1 #
coedge $-1 $577 $259 $261 $408 forward $161 $-1 #
coedge $-1 $259 $577 $573 $578 forward $161 $-1 #
coedge $-1 $575 $262 $259 $405 forward $410 $-1 #
edge $-1 $412 -7.3955096057547536 $579 1.3643095350735521 $404 $580 forward 7 unknown #
coedge $-1 $581 $582 $260 $407 forward $399 $-1 #
edge $-1 $583 -51.799850496337768 $411 -39.090557019660849 $406 $584 forward 7 unknown #
edge $-1 $412 -17.667996856462686 $583 -2.0733024663016622e-014 $261 $585 forward 7 unknown #
coedge $-1 $262 $575 $581 $586 forward $410 $-1 #
loop $-1 $-1 $575 $398 #
vertex $-1 $407 $587 #
vertex $-1 $263 $588 #
straight-curve $-1 -96.776143064032894 -10.411109641095354 19.37640496990133 1 0 0 I I #
coedge $-1 $414 $414 $-1 $589 reversed $266 $-1 #
edge $-1 $590 0 $590 6.2831853071796004 $267 $591 forward 7 unknown #
vertex $-1 $270 $592 #
ellipse-curve $-1 -73.23104560623338 -7.9083041722872736 13.021758231562876 -0.71933980857756763 0 0.69465836192734942 0.69465836192734942 0 0.71933980857756763 1 I I #
coedge $-1 $418 $418 $-1 $593 reversed $273 $-1 #
edge $-1 $594 0 $594 6.2831853071796004 $274 $595 forward 7 unknown #
vertex $-1 $277 $596 #
ellipse-curve $-1 -73.23104560623338 -4.1540959690751436 13.021758231562876 -0.71933980857756763 0 0.69465836192734942 0.69465836192734942 0 0.71933980857756763 1 I I #
face $-1 $-1 $597 $57 $-1 $598 reversed single #
loop $-1 $-1 $284 $278 #
plane-surface $-1 0 0 19.376404969901333 0 0 1 1 0 0 forward_v I I I I #
coedge $-1 $599 $600 $601 $602 reversed $279 $-1 #
coedge $-1 $603 $281 $283 $432 forward $175 $-1 #
coedge $-1 $281 $603 $599 $604 forward $175 $-1 #
coedge $-1 $601 $284 $281 $429 forward $423 $-1 #
edge $-1 $435 3.7455360899542285 $605 12.505355230782534 $428 $606 forward 7 unknown #
coedge $-1 $607 $608 $282 $431 forward $597 $-1 #
edge $-1 $609 -51.799850496337768 $434 -39.090557019660849 $430 $610 forward 7 unknown #
edge $-1 $435 -17.667996856462686 $609 -2.0733024663016622e-014 $283 $611 forward 7 unknown #
coedge $-1 $284 $601 $607 $612 forward $423 $-1 #
vertex $-1 $431 $613 #
vertex $-1 $285 $614 #
straight-curve $-1 -96.776143064032894 11.87098175032261 19.37640496990133 1 0 0 I I #
coedge $-1 $437 $437 $-1 $615 reversed $288 $-1 #
edge $-1 $616 0 $616 6.2831853071796004 $289 $617 forward 7 unknown #
vertex $-1 $292 $618 #
ellipse-curve $-1 -73.23104560623338 14.373787219130698 13.021758231562876 -0.71933980857756763 0 0.69465836192734942 0.69465836192734942 0 0.71933980857756763 1 I I #
coedge $-1 $441 $441 $-1 $619 reversed $295 $-1 #
edge $-1 $620 0 $620 6.2831853071796004 $296 $621 forward 7 unknown #
vertex $-1 $299 $622 #
ellipse-curve $-1 -73.23104560623338 18.127995422342828 13.021758231562876 -0.71933980857756763 0 0.69465836192734942 0.69465836192734942 0 0.71933980857756763 1 I I #
face $-1 $-1 $315 $45 $-1 $623 reversed single #
loop $-1 $-1 $461 $300 #
plane-surface $-1 0 41.455170360011557 0 0 -1 0 0 0 -1 forward_v I I I I #
coedge $-1 $624 $459 $462 $625 forward $301 $-1 #
coedge $-1 $465 $303 $304 $453 reversed $189 $-1 #
coedge $-1 $459 $624 $303 $451 reversed $301 $-1 #
edge $-1 $466 -19.376404969901333 $626 19.376404969901333 $450 $627 forward 7 unknown #
coedge $-1 $305 $304 $624 $628 forward $121 $-1 #
edge $-1 $457 -79.367656483657342 $626 79.367656483657342 $449 $629 forward 7 unknown #
coedge $-1 $462 $461 $305 $455 reversed $446 $-1 #
edge $-1 $630 -79.367656483657342 $456 79.367656483657342 $454 $631 forward 7 unknown #
vertex $-1 $307 $632 #
vertex $-1 $468 $633 #
straight-curve $-1 79.367656483657342 0 -19.376404969901333 0 -1 0 I I #
coedge $-1 $448 $450 $308 $460 reversed $301 $-1 #
edge $-1 $463 -41.455170360011557 $466 41.455170360011557 $459 $634 forward 7 unknown #
coedge $-1 $454 $309 $314 $469 forward $446 $-1 #
coedge $-1 $309 $454 $448 $625 reversed $446 $-1 #
vertex $-1 $310 $635 #
straight-curve $-1 0 41.455170360011557 19.376404969901333 -1 0 0 I I #
coedge $-1 $311 $449 $313 $468 reversed $189 $-1 #
vertex $-1 $460 $636 #
straight-curve $-1 0 -41.455170360011557 19.376404969901333 1 0 0 I I #
edge $-1 $316 -19.376404969901333 $457 19.376404969901333 $313 $637 forward 7 unknown #
edge $-1 $317 -19.376404969901333 $456 19.376404969901333 $314 $638 forward 7 unknown #
point $-1 79.367656483657342 -41.455170360011557 19.376404969901333 #
point $-1 79.367656483657342 41.455170360011557 19.376404969901333 #
face $-1 $-1 $482 $46 $-1 $639 reversed single #
loop $-1 $-1 $478 $319 #
plane-surface $-1 0 0 -19.376404969901333 0 0 1 1 0 0 forward_v I I I I #
coedge $-1 $640 $641 $327 $486 forward $320 $-1 #
coedge $-1 $322 $490 $480 $642 forward $197 $-1 #
edge $-1 $484 -25.108032297087412 $332 -7.5862438287608782 $322 $643 forward 7 unknown #
coedge $-1 $644 $328 $323 $479 forward $473 $-1 #
edge $-1 $333 7.5862438287608782 $483 25.108032297087412 $478 $645 forward 7 unknown #
coedge $-1 $646 $325 $476 $642 reversed $482 $-1 #
coedge $-1 $325 $646 $644 $647 reversed $482 $-1 #
loop $-1 $-1 $325 $472 #
vertex $-1 $647 $648 #
vertex $-1 $326 $649 #
straight-curve $-1 -74.11289987354543 -41.455170360011557 0 0 0 1 I I #
edge $-1 $491 -19.376404969901333 $488 19.376404969901333 $475 $650 forward 7 unknown #
coedge $-1 $328 $644 $640 $651 forward $473 $-1 #
vertex $-1 $329 $652 #
straight-curve $-1 -38.370139089300693 -23.933381891685023 -19.376404969901333 1 0 0 I I #
coedge $-1 $476 $330 $641 $653 forward $197 $-1 #
vertex $-1 $653 $654 #
straight-curve $-1 -38.370139089300693 -23.933381891685023 19.376404969901333 -1 0 0 I I #
point $-1 -74.11289987354543 -23.933381891685023 19.376404969901333 #
point $-1 -74.11289987354543 -23.933381891685023 -19.376404969901333 #
face $-1 $-1 $508 $47 $-1 $655 reversed single #
loop $-1 $-1 $514 $335 #
plane-surface $-1 0 0 19.376404969901333 0 0 1 1 0 0 forward_v I I I I #
coedge $-1 $344 $656 $499 $657 forward $336 $-1 #
coedge $-1 $658 $338 $498 $657 reversed $205 $-1 #
coedge $-1 $338 $658 $514 $659 reversed $205 $-1 #
edge $-1 $515 -19.376404969901333 $512 19.376404969901333 $338 $660 forward 7 unknown #
coedge $-1 $656 $344 $339 $503 forward $336 $-1 #
edge $-1 $349 5.1093080783602929 $509 25.933677547220935 $502 $661 forward 7 unknown #
coedge $-1 $346 $662 $340 $505 forward $496 $-1 #
edge $-1 $510 -25.933677547220935 $348 -5.1093080783602929 $504 $663 forward 7 unknown #
coedge $-1 $664 $341 $662 $665 reversed $508 $-1 #
coedge $-1 $341 $664 $656 $666 reversed $508 $-1 #
loop $-1 $-1 $664 $495 #
vertex $-1 $666 $667 #
vertex $-1 $342 $668 #
straight-curve $-1 -48.324606140905964 41.455170360011557 0 0 0 1 I I #
vertex $-1 $345 $669 #
straight-curve $-1 -22.23486317119016 20.630800891150908 -19.376404969901333 -1 0 0 I I #
coedge $-1 $662 $346 $500 $659 forward $496 $-1 #
vertex $-1 $347 $670 #
straight-curve $-1 -22.23486317119016 20.630800891150908 19.376404969901333 1 0 0 I I #
point $-1 -48.324606140905964 20.630800891150908 19.376404969901333 #
point $-1 -48.324606140905964 20.630800891150908 -19.376404969901333 #
loop $-1 $-1 $359 $351 #
plane-surface $-1 79.367656483657342 0 0 -1 0 0 0 0 1 forward_v I I I I #
coedge $-1 $522 $354 $356 $526 reversed $213 $-1 #
coedge $-1 $354 $521 $671 $672 reversed $213 $-1 #
coedge $-1 $362 $357 $354 $524 forward $352 $-1 #
edge $-1 $527 59.450516428332712 $673 64.932967189111281 $523 $674 forward 7 unknown #
coedge $-1 $356 $355 $530 $675 reversed $133 $-1 #
edge $-1 $676 -158.73531296731471 $527 -152.27052539937858 $521 $677 forward 7 unknown #
vertex $-1 $358 $678 #
straight-curve $-1 73.885205722878766 -8.1011125212965851 19.376404969901323 0 -1 0 I I #
coedge $-1 $671 $359 $362 $534 reversed $519 $-1 #
coedge $-1 $359 $671 $525 $675 forward $519 $-1 #
vertex $-1 $360 $679 #
straight-curve $-1 79.367656483657342 -10.984485215668323 117.34133504004075 0 0 1 I I #
straight-curve $-1 -55.247522777044736 -10.984485215668323 100.06749081937943 0.84804809178421925 0 -0.52991927123019833 I I #
edge $-1 $673 -21.419964869518019 $363 -10.984485215668323 $529 $680 forward 7 unknown #
point $-1 79.367656483657342 -10.984485215668323 19.376404969901333 #
point $-1 73.885205722878766 -10.984485215668323 19.37640496990133 #
edge $-1 $681 1 $681 0 $366 $-1 forward 7 unknown #
vertex $-1 $367 $682 #
ellipse-curve $-1 75.329991134430585 -18.438399254132388 15.588759602703592 0.52991927123019833 0 0.84804809178421925 0.84804809178421925 0 -0.52991927123019833 1 I I #
point $-1 77.474479195052282 -18.438399254132388 17.133577940341773 #
edge $-1 $683 1 $683 0 $370 $-1 forward 7 unknown #
vertex $-1 $371 $684 #
ellipse-curve $-1 75.329991134430585 -13.966050831053948 15.588759602703592 0.52991927123019833 0 0.84804809178421925 0.84804809178421925 0 -0.52991927123019833 1 I I #
point $-1 77.474479195052282 -13.966050831053948 17.133577940341773 #
plane-surface $-1 0 0 19.376404969901333 0 0 1 1 0 0 forward_v I I I I #
coedge $-1 $556 $555 $548 $685 forward $375 $-1 #
coedge $-1 $548 $377 $379 $552 reversed $235 $-1 #
coedge $-1 $377 $547 $546 $685 reversed $235 $-1 #
coedge $-1 $385 $380 $377 $550 forward $386 $-1 #
edge $-1 $553 59.450516428332712 $686 64.932967189111281 $549 $687 forward 7 unknown #
coedge $-1 $379 $378 $556 $688 reversed $147 $-1 #
edge $-1 $689 -158.73531296731471 $553 -152.27052539937858 $547 $690 forward 7 unknown #
vertex $-1 $381 $691 #
straight-curve $-1 73.885205722878766 6.4498220210295258 19.376404969901323 0 -1 0 I I #
coedge $-1 $546 $382 $385 $560 reversed $375 $-1 #
coedge $-1 $382 $546 $551 $688 forward $375 $-1 #
vertex $-1 $383 $692 #
straight-curve $-1 79.367656483657342 18.1173838689839 117.34133504004075 0 0 1 I I #
straight-curve $-1 -55.247522777044736 18.1173838689839 100.06749081937943 0.84804809178421925 0 -0.52991927123019833 I I #
edge $-1 $686 7.681904215134205 $387 18.1173838689839 $555 $693 forward 7 unknown #
point $-1 79.367656483657342 18.1173838689839 19.376404969901333 #
point $-1 73.885205722878766 18.1173838689839 19.37640496990133 #
edge $-1 $694 1 $694 0 $390 $-1 forward 7 unknown #
vertex $-1 $391 $695 #
ellipse-curve $-1 75.329991134430585 10.663469830519837 15.588759602703592 0.52991927123019833 0 0.84804809178421925 0.84804809178421925 0 -0.52991927123019833 1 I I #
point $-1 77.474479195052282 10.663469830519837 17.133577940341773 #
edge $-1 $696 1 $696 0 $394 $-1 forward 7 unknown #
vertex $-1 $395 $697 #
ellipse-curve $-1 75.329991134430585 15.135818253598273 15.588759602703592 0.52991927123019833 0 0.84804809178421925 0.84804809178421925 0 -0.52991927123019833 1 I I #
point $-1 77.474479195052282 15.135818253598273 17.133577940341773 #
plane-surface $-1 0 0 19.376404969901333 0 0 1 1 0 0 forward_v I I I I #
coedge $-1 $582 $581 $574 $698 forward $399 $-1 #
coedge $-1 $574 $401 $403 $578 reversed $257 $-1 #
coedge $-1 $401 $573 $572 $698 reversed $257 $-1 #
coedge $-1 $409 $404 $401 $576 forward $410 $-1 #
edge $-1 $579 -29.681708335223462 $699 -17.408486580375552 $575 $700 forward 7 unknown #
coedge $-1 $403 $402 $582 $701 reversed $161 $-1 #
edge $-1 $702 2.0733024663016622e-014 $579 17.667996856462686 $573 $703 forward 7 unknown #
vertex $-1 $405 $704 #
straight-curve $-1 -67.094434728809432 -3.0156000353406007 19.376404969901333 0 1 0 I I #
coedge $-1 $572 $406 $409 $586 reversed $399 $-1 #
coedge $-1 $406 $572 $577 $701 forward $399 $-1 #
vertex $-1 $407 $705 #
straight-curve $-1 -79.367656483657342 -10.411109641095354 58.466961989562179 0 0 1 I I #
straight-curve $-1 -79.367656483657356 -10.411109641095354 6.6671114932243967 -0.69465836192734942 0 -0.71933980857756763 I I #
edge $-1 $699 1.6512905002670486 $411 10.411109641095354 $581 $706 forward 7 unknown #
point $-1 -79.367656483657342 -10.411109641095354 19.376404969901333 #
point $-1 -67.094434728809432 -10.411109641095354 19.376404969901337 #
edge $-1 $707 1 $707 0 $414 $-1 forward 7 unknown #
vertex $-1 $415 $708 #
ellipse-curve $-1 -71.767624756610601 -7.9083041722872736 11.608549177806369 -0.71933980857756763 0 0.69465836192734942 0.69465836192734942 0 0.71933980857756763 1 I I #
point $-1 -72.536387244306027 -7.9083041722872736 13.741098040140431 #
edge $-1 $709 1 $709 0 $418 $-1 forward 7 unknown #
vertex $-1 $419 $710 #
ellipse-curve $-1 -71.767624756610601 -4.1540959690751436 11.608549177806369 -0.71933980857756763 0 0.69465836192734942 0.69465836192734942 0 0.71933980857756763 1 I I #
point $-1 -72.536387244306027 -4.1540959690751436 13.741098040140431 #
loop $-1 $-1 $430 $422 #
plane-surface $-1 -79.367656483657342 0 0 1 0 0 0 0 -1 forward_v I I I I #
coedge $-1 $600 $425 $427 $604 reversed $279 $-1 #
coedge $-1 $425 $599 $711 $712 reversed $279 $-1 #
coedge $-1 $433 $428 $425 $602 forward $423 $-1 #
edge $-1 $605 -29.681708335223462 $713 -17.408486580375552 $601 $714 forward 7 unknown #
coedge $-1 $427 $426 $608 $715 reversed $175 $-1 #
edge $-1 $716 2.0733024663016622e-014 $605 17.667996856462686 $599 $717 forward 7 unknown #
vertex $-1 $429 $718 #
straight-curve $-1 -67.094434728809432 8.1254456603683813 19.376404969901333 0 1 0 I I #
coedge $-1 $711 $430 $433 $612 reversed $597 $-1 #
coedge $-1 $430 $711 $603 $715 forward $597 $-1 #
vertex $-1 $431 $719 #
straight-curve $-1 -79.367656483657342 11.87098175032261 58.466961989562179 0 0 1 I I #
straight-curve $-1 -79.367656483657356 11.87098175032261 6.6671114932243967 -0.69465836192734942 0 -0.71933980857756763 I I #
edge $-1 $713 -20.630800891150916 $434 -11.87098175032261 $607 $720 forward 7 unknown #
point $-1 -79.367656483657342 11.87098175032261 19.376404969901333 #
point $-1 -67.094434728809432 11.87098175032261 19.376404969901337 #
edge $-1 $721 1 $721 0 $437 $-1 forward 7 unknown #
vertex $-1 $438 $722 #
ellipse-curve $-1 -71.767624756610601 14.373787219130698 11.608549177806369 -0.71933980857756763 0 0.69465836192734942 0.69465836192734942 0 0.71933980857756763 1 I I #
point $-1 -72.536387244306027 14.373787219130698 13.741098040140431 #
edge $-1 $723 1 $723 0 $441 $-1 forward 7 unknown #
vertex $-1 $442 $724 #
ellipse-curve $-1 -71.767624756610601 18.127995422342828 11.608549177806369 -0.71933980857756763 0 0.69465836192734942 0.69465836192734942 0 0.71933980857756763 1 I I #
point $-1 -72.536387244306027 18.127995422342828 13.741098040140431 #
plane-surface $-1 79.367656483657342 0 0 -1 0 0 0 0 1 forward_v I I I I #
coedge $-1 $450 $448 $452 $628 reversed $301 $-1 #
edge $-1 $463 -19.376404969901333 $630 19.376404969901333 $462 $725 forward 7 unknown #
vertex $-1 $628 $726 #
straight-curve $-1 -79.367656483657342 -41.455170360011557 0 0 0 -1 I I #
edge $-1 $626 -41.455170360011557 $630 41.455170360011557 $624 $727 forward 7 unknown #
straight-curve $-1 0 -41.455170360011557 -19.376404969901333 -1 0 0 I I #
vertex $-1 $455 $728 #
straight-curve $-1 0 41.455170360011557 -19.376404969901333 1 0 0 I I #
point $-1 79.367656483657342 41.455170360011557 -19.376404969901333 #
point $-1 79.367656483657342 -41.455170360011557 -19.376404969901333 #
straight-curve $-1 -79.367656483657342 0 19.376404969901333 0 -1 0 I I #
point $-1 -79.367656483657342 41.455170360011557 19.376404969901333 #
point $-1 -79.367656483657342 -41.455170360011557 19.376404969901333 #
straight-curve $-1 79.367656483657342 -41.455170360011557 0 0 0 -1 I I #
straight-curve $-1 79.367656483657342 41.455170360011557 0 0 0 -1 I I #
plane-surface $-1 0 -41.455170360011557 0 0 1 0 0 0 1 forward_v I I I I #
coedge $-1 $729 $475 $487 $651 reversed $320 $-1 #
coedge $-1 $475 $729 $490 $653 reversed $320 $-1 #
edge $-1 $730 -79.367656483657342 $484 -74.11289987354543 $480 $731 forward 7 unknown #
straight-curve $-1 -74.11289987354543 -16.347138062924145 19.376404969901333 0 1 0 I I #
coedge $-1 $487 $478 $481 $647 forward $473 $-1 #
straight-curve $-1 -74.11289987354543 -16.347138062924145 -19.376404969901333 0 -1 0 I I #
coedge $-1 $481 $480 $729 $732 forward $482 $-1 #
edge $-1 $483 74.11289987354543 $733 79.367656483657342 $481 $734 forward 7 unknown #
point $-1 -74.11289987354543 -41.455170360011557 -19.376404969901333 #
point $-1 -74.11289987354543 -41.455170360011557 19.376404969901333 #
straight-curve $-1 -79.367656483657342 -23.933381891685023 0 0 0 -1 I I #
edge $-1 $733 -41.455170360011557 $488 -23.933381891685023 $640 $735 forward 7 unknown #
point $-1 -79.367656483657342 -23.933381891685023 -19.376404969901333 #
edge $-1 $491 23.933381891685023 $730 41.455170360011557 $641 $736 forward 7 unknown #
point $-1 -79.367656483657342 -23.933381891685023 19.376404969901333 #
plane-surface $-1 0 41.455170360011557 0 0 -1 0 0 0 -1 forward_v I I I I #
coedge $-1 $498 $502 $507 $666 forward $336 $-1 #
edge $-1 $737 -25.933677547220935 $512 -5.1093080783602929 $498 $738 forward 7 unknown #
coedge $-1 $500 $499 $664 $739 reversed $205 $-1 #
edge $-1 $515 5.1093080783602929 $740 25.933677547220935 $514 $741 forward 7 unknown #
straight-curve $-1 -40.614846543854675 20.630800891150908 0 0 0 -1 I I #
straight-curve $-1 -48.324606140905964 15.521492812790616 -19.376404969901333 0 1 0 I I #
coedge $-1 $504 $514 $506 $665 forward $496 $-1 #
straight-curve $-1 -48.324606140905964 15.521492812790616 19.376404969901333 0 -1 0 I I #
coedge $-1 $507 $506 $658 $739 forward $508 $-1 #
edge $-1 $740 40.614846543854675 $510 48.324606140905964 $506 $742 forward 7 unknown #
edge $-1 $509 -48.324606140905964 $737 -40.614846543854675 $507 $743 forward 7 unknown #
point $-1 -48.324606140905964 41.45517036001155 -19.376404969901333 #
point $-1 -48.324606140905964 41.45517036001155 19.376404969901333 #
point $-1 -40.614846543854675 20.630800891150908 -19.376404969901333 #
point $-1 -40.614846543854675 20.630800891150908 19.376404969901333 #
coedge $-1 $530 $529 $522 $672 forward $519 $-1 #
edge $-1 $673 97.964930070139417 $676 101.39074558679818 $671 $744 forward 7 unknown #
vertex $-1 $534 $745 #
straight-curve $-1 14.434689294546054 -21.419964869518019 19.37640496990133 1 0 0 I I #
edge $-1 $676 -13.318852348221434 $531 -2.8833726943717384 $530 $746 forward 7 unknown #
vertex $-1 $675 $747 #
straight-curve $-1 -55.247522777044736 -21.419964869518019 100.06749081937943 -0.84804809178421925 0 0.52991927123019833 I I #
point $-1 73.885205722878766 -21.419964869518019 19.37640496990133 #
point $-1 79.367656483657328 -10.984485215668323 15.950589453242571 #
straight-curve $-1 79.367656483657342 0 19.376404969901333 0 1 0 I I #
vertex $-1 $537 $748 #
point $-1 76.178039226214807 -18.438399254132388 15.058840331473395 #
vertex $-1 $541 $749 #
point $-1 76.178039226214807 -13.966050831053948 15.058840331473395 #
edge $-1 $686 97.964930070139417 $689 101.39074558679818 $546 $750 forward 7 unknown #
vertex $-1 $560 $751 #
straight-curve $-1 14.434689294546054 7.681904215134205 19.37640496990133 1 0 0 I I #
edge $-1 $689 1.2320821941046791 $557 11.667561847954374 $556 $752 forward 7 unknown #
vertex $-1 $688 $753 #
straight-curve $-1 -55.247522777044736 7.681904215134205 100.06749081937943 -0.84804809178421925 0 0.52991927123019833 I I #
point $-1 73.885205722878766 7.681904215134205 19.37640496990133 #
point $-1 79.367656483657328 18.1173838689839 15.950589453242571 #
straight-curve $-1 79.367656483657342 0 19.376404969901333 0 1 0 I I #
vertex $-1 $563 $754 #
point $-1 76.178039226214807 10.663469830519837 15.058840331473395 #
vertex $-1 $567 $755 #
point $-1 76.178039226214807 15.135818253598273 15.058840331473395 #
edge $-1 $699 39.090557019660849 $702 51.799850496337768 $572 $756 forward 7 unknown #
vertex $-1 $586 $757 #
straight-curve $-1 -96.776143064032894 -1.6512905002670486 19.37640496990133 -1 0 0 I I #
edge $-1 $702 -1.3643095350735521 $583 7.3955096057547536 $582 $758 forward 7 unknown #
vertex $-1 $701 $759 #
straight-curve $-1 -79.367656483657356 -1.6512905002670486 6.6671114932243967 0.69465836192734942 0 0.71933980857756763 I I #
point $-1 -67.094434728809432 -1.6512905002670486 19.376404969901337 #
point $-1 -79.367656483657342 -10.411109641095354 6.6671114932244118 #
straight-curve $-1 -79.367656483657342 0 19.376404969901333 0 -1 0 I I #
vertex $-1 $589 $760 #
point $-1 -71.072966394683263 -7.9083041722872736 12.327888986383936 #
vertex $-1 $593 $761 #
point $-1 -71.072966394683263 -4.1540959690751436 12.327888986383936 #
coedge $-1 $608 $607 $600 $712 forward $597 $-1 #
edge $-1 $713 39.090557019660849 $716 51.799850496337768 $711 $762 forward 7 unknown #
vertex $-1 $612 $763 #
straight-curve $-1 -96.776143064032894 20.630800891150916 19.37640496990133 -1 0 0 I I #
edge $-1 $716 -12.505355230782534 $609 -3.7455360899542285 $608 $764 forward 7 unknown #
vertex $-1 $715 $765 #
straight-curve $-1 -79.367656483657356 20.630800891150916 6.6671114932243967 0.69465836192734942 0 0.71933980857756763 I I #
point $-1 -67.094434728809432 20.630800891150916 19.376404969901337 #
point $-1 -79.367656483657342 11.87098175032261 6.6671114932244118 #
straight-curve $-1 -79.367656483657342 0 19.376404969901333 0 -1 0 I I #
vertex $-1 $615 $766 #
point $-1 -71.072966394683263 14.373787219130698 12.327888986383936 #
vertex $-1 $619 $767 #
point $-1 -71.072966394683263 18.127995422342828 12.327888986383936 #
straight-curve $-1 -79.367656483657342 41.455170360011557 0 0 0 -1 I I #
point $-1 -79.367656483657342 -41.455170360011557 -19.376404969901333 #
straight-curve $-1 -79.367656483657342 0 -19.376404969901333 0 1 0 I I #
point $-1 -79.367656483657342 41.455170360011557 -19.376404969901333 #
coedge $-1 $641 $640 $646 $732 reversed $320 $-1 #
vertex $-1 $653 $768 #
straight-curve $-1 0 -41.455170360011557 19.376404969901333 1 0 0 I I #
edge $-1 $730 -19.376404969901333 $733 19.376404969901333 $729 $769 forward 7 unknown #
vertex $-1 $651 $770 #
straight-curve $-1 0 -41.455170360011557 -19.376404969901333 -1 0 0 I I #
straight-curve $-1 -79.367656483657342 0 -19.376404969901333 0 1 0 I I #
straight-curve $-1 -79.367656483657342 0 19.376404969901333 0 -1 0 I I #
vertex $-1 $739 $771 #
straight-curve $-1 -40.614846543854675 15.521492812790616 -19.376404969901333 0 -1 0 I I #
edge $-1 $740 -19.376404969901333 $737 19.376404969901333 $664 $772 forward 7 unknown #
vertex $-1 $665 $773 #
straight-curve $-1 -40.614846543854675 15.521492812790616 19.376404969901333 0 1 0 I I #
straight-curve $-1 0 41.455170360011557 19.376404969901333 -1 0 0 I I #
straight-curve $-1 0 41.455170360011557 -19.376404969901333 1 0 0 I I #
straight-curve $-1 79.367656483657342 -21.419964869518019 117.34133504004075 0 0 -1 I I #
point $-1 79.367656483657342 -21.419964869518019 19.376404969901333 #
straight-curve $-1 79.367656483657356 -8.1011125212965851 15.950589453242564 0 1 0 I I #
point $-1 79.367656483657328 -21.419964869518019 15.950589453242571 #
point $-1 74.800071863200387 -18.438399254132388 14.740711510919374 #
point $-1 74.800071863200387 -13.966050831053948 14.740711510919374 #
straight-curve $-1 79.367656483657342 7.681904215134205 117.34133504004075 0 0 -1 I I #
point $-1 79.367656483657342 7.681904215134205 19.376404969901333 #
straight-curve $-1 79.367656483657356 6.4498220210295258 15.950589453242564 0 1 0 I I #
point $-1 79.367656483657328 7.681904215134205 15.950589453242571 #
point $-1 74.800071863200387 10.663469830519837 14.740711510919374 #
point $-1 74.800071863200387 15.135818253598273 14.740711510919374 #
straight-curve $-1 -79.367656483657342 -1.6512905002670486 58.466961989562179 0 0 -1 I I #
point $-1 -79.367656483657342 -1.6512905002670486 19.376404969901333 #
straight-curve $-1 -79.367656483657342 -3.0156000353406007 6.6671114932244206 0 -1 0 I I #
point $-1 -79.367656483657342 -1.6512905002670486 6.6671114932244118 #
point $-1 -71.048284948033043 -7.9083041722872736 10.91389081587902 #
point $-1 -71.048284948033043 -4.1540959690751436 10.91389081587902 #
straight-curve $-1 -79.367656483657342 20.630800891150916 58.466961989562179 0 0 -1 I I #
point $-1 -79.367656483657342 20.630800891150916 19.376404969901333 #
straight-curve $-1 -79.367656483657342 8.1254456603683813 6.6671114932244206 0 -1 0 I I #
point $-1 -79.367656483657342 20.630800891150916 6.6671114932244118 #
point $-1 -71.048284948033043 14.373787219130698 10.91389081587902 #
point $-1 -71.048284948033043 18.127995422342828 10.91389081587902 #
point $-1 -79.367656483657342 -41.455170360011557 19.376404969901333 #
straight-curve $-1 -79.367656483657342 -41.455170360011557 0 0 0 -1 I I #
point $-1 -79.367656483657342 -41.455170360011557 -19.376404969901333 #
point $-1 -40.614846543854675 41.45517036001155 -19.376404969901333 #
straight-curve $-1 -40.614846543854675 41.455170360011557 0 0 0 -1 I I #
point $-1 -40.614846543854675 41.45517036001155 19.376404969901333 #
End-of-ACIS-data 