500 0 5 0           
7 Unknown 11 ACIS 5.0 NT 24 Thu Mar 25 20:17:35 1999 
-1 9.9999999999999995e-007 1e-010 
body $-1 $5 $-1 $6 #
body $-1 $7 $-1 $8 #
body $-1 $9 $-1 $10 #
body $-1 $11 $-1 $12 #
body $-1 $13 $-1 $14 #
lump $-1 $-1 $15 $0 #
transform $-1 1 0 0 0 1 0 0 0 1 71.424298837244791 40.369213369114455 19.830897124381661 1 rotate no_reflect no_shear #
lump $-1 $-1 $16 $1 #
transform $-1 1 0 0 0 1 0 0 0 1 71.424298837244791 40.369213369114455 19.830897124381661 1 rotate no_reflect no_shear #
lump $-1 $-1 $17 $2 #
transform $-1 1 0 0 0 1 0 0 0 1 71.424298837244791 40.369213369114455 19.830897124381661 1 rotate no_reflect no_shear #
lump $-1 $-1 $18 $3 #
transform $-1 1 0 0 0 1 0 0 0 1 71.424298837244791 40.369213369114455 19.830897124381661 1 rotate no_reflect no_shear #
lump $-1 $-1 $19 $4 #
transform $-1 1 0 0 0 1 0 0 0 1 71.424298837244791 40.369213369114455 19.830897124381661 1 rotate no_reflect no_shear #
shell $-1 $-1 $-1 $20 $-1 $5 #
shell $-1 $-1 $-1 $21 $-1 $7 #
shell $-1 $-1 $-1 $22 $-1 $9 #
shell $-1 $-1 $-1 $23 $-1 $11 #
shell $-1 $-1 $-1 $24 $-1 $13 #
face $-1 $25 $26 $15 $-1 $27 forward single #
face $-1 $28 $29 $16 $-1 $30 forward single #
face $-1 $31 $32 $17 $-1 $33 reversed single #
face $-1 $34 $35 $18 $-1 $36 forward single #
face $-1 $37 $38 $19 $-1 $39 reversed single #
face $-1 $40 $41 $15 $-1 $42 reversed single #
loop $-1 $-1 $43 $20 #
plane-surface $-1 0 0 19.830897124381661 0 0 1 1 0 0 forward_v I I I I #
face $-1 $44 $45 $16 $-1 $46 forward single #
loop $-1 $-1 $47 $21 #
plane-surface $-1 85.516394286650424 23.825067776033308 216.60976387037195 0 1 0 0.75470958851134928 0 0.65605901945558964 forward_v I I I I #
face $-1 $48 $49 $17 $-1 $50 reversed single #
loop $-1 $51 $52 $22 #
cone-surface $-1 68.705653801633446 32.097140572573885 16.887617638755376 -0.75470958851134928 0 -0.65605901945558964 0.65605901945558964 0 -0.75470958851134928 1 I I 0 1 1 forward I I I I #
face $-1 $53 $54 $18 $-1 $55 forward single #
loop $-1 $-1 $56 $23 #
plane-surface $-1 -179.23350520758208 23.825067776033308 108.80055750003464 0 1 0 -0.75470958851134928 0 0.65605901945558964 forward_v I I I I #
face $-1 $57 $58 $19 $-1 $59 reversed single #
loop $-1 $60 $61 $24 #
cone-surface $-1 -68.70565380163346 32.097140572573885 16.887617638755369 0.75470958851134928 0 -0.65605901945558964 0.65605901945558964 0 0.75470958851134928 1 I I 0 1 1 forward I I I I #
face $-1 $62 $63 $15 $-1 $64 reversed single #
loop $-1 $-1 $65 $25 #
plane-surface $-1 0 0 -19.830897124381661 0 0 1 1 0 0 forward_v I I I I #
coedge $-1 $66 $67 $68 $69 forward $26 $-1 #
face $-1 $70 $71 $16 $-1 $72 reversed single #
loop $-1 $-1 $73 $28 #
plane-surface $-1 -22.292812083686897 32.097140572573885 122.89265294944029 0.75470958851134928 0 0.65605901945558964 0.65605901945558964 0 -0.75470958851134928 forward_v I I I I #
coedge $-1 $74 $75 $76 $77 reversed $29 $-1 #
face $-1 $78 $79 $17 $-1 $80 forward single #
loop $-1 $81 $82 $31 #
cone-surface $-1 67.673101817839878 32.097140572573885 15.990033916040634 -0.75470958851134928 0 -0.65605901945558964 0.32802950972779482 0 -0.37735479425567464 1 I I -0.70710678118654746 0.70710678118654746 0.5 forward I I I I #
loop $-1 $-1 $83 $22 #
coedge $-1 $52 $52 $84 $85 reversed $32 $-1 #
face $-1 $86 $87 $18 $-1 $88 forward single #
loop $-1 $-1 $89 $34 #
plane-surface $-1 -71.424298837244763 32.097140572573885 15.083446579102983 -0.75470958851134928 0 0.65605901945558964 0.65605901945558964 0 0.75470958851134928 forward_v I I I I #
coedge $-1 $90 $91 $92 $93 reversed $35 $-1 #
face $-1 $94 $95 $19 $-1 $96 forward single #
loop $-1 $97 $98 $37 #
cone-surface $-1 -67.673101817839893 32.097140572573885 15.990033916040627 0.75470958851134928 0 -0.65605901945558964 0.32802950972779482 0 0.37735479425567464 1 I I -0.70710678118654746 0.70710678118654746 0.5 forward I I I I #
loop $-1 $-1 $99 $24 #
coedge $-1 $61 $61 $100 $101 reversed $38 $-1 #
face $-1 $102 $103 $15 $-1 $104 reversed single #
loop $-1 $-1 $105 $40 #
plane-surface $-1 0 -40.369213369114455 0 0 1 0 0 0 1 forward_v I I I I #
coedge $-1 $106 $107 $108 $109 forward $41 $-1 #
coedge $-1 $110 $43 $111 $112 forward $26 $-1 #
coedge $-1 $43 $110 $113 $114 forward $26 $-1 #
coedge $-1 $115 $116 $43 $69 reversed $117 $-1 #
edge $-1 $118 -40.369213369114455 $119 40.369213369114455 $68 $120 forward 7 unknown #
face $-1 $121 $122 $16 $-1 $123 forward single #
loop $-1 $-1 $124 $44 #
plane-surface $-1 71.424298837244791 0 0 -1 0 0 0 0 1 forward_v I I I I #
coedge $-1 $125 $126 $124 $127 reversed $45 $-1 #
coedge $-1 $75 $47 $126 $128 forward $29 $-1 #
coedge $-1 $47 $74 $129 $130 reversed $29 $-1 #
coedge $-1 $131 $124 $47 $77 forward $71 $-1 #
edge $-1 $132 -93.221435356083035 $133 -88.473984810804311 $76 $134 forward 7 unknown #
face $-1 $135 $136 $17 $-1 $137 forward single #
loop $-1 $-1 $138 $48 #
plane-surface $-1 85.516394286650424 23.825067776033308 216.60976387037195 0 1 0 0.75470958851134928 0 0.65605901945558964 forward_v I I I I #
loop $-1 $-1 $139 $31 #
coedge $-1 $82 $82 $83 $140 forward $49 $-1 #
coedge $-1 $83 $83 $82 $140 reversed $51 $-1 #
coedge $-1 $84 $84 $52 $85 forward $136 $-1 #
edge $-1 $141 0 $141 6.2831853071796004 $84 $142 forward 7 unknown #
face $-1 $143 $144 $18 $-1 $145 reversed single #
loop $-1 $-1 $146 $53 #
plane-surface $-1 0 0 19.830897124381661 0 0 1 1 0 0 forward_v I I I I #
coedge $-1 $147 $148 $146 $149 reversed $54 $-1 #
coedge $-1 $91 $56 $148 $150 forward $35 $-1 #
coedge $-1 $56 $90 $151 $152 reversed $35 $-1 #
coedge $-1 $153 $146 $56 $93 forward $87 $-1 #
edge $-1 $154 -22.319349458693168 $155 -18.192453766546251 $92 $156 forward 7 unknown #
face $-1 $157 $158 $19 $-1 $159 forward single #
loop $-1 $-1 $160 $57 #
plane-surface $-1 -179.23350520758208 23.825067776033308 108.80055750003464 0 1 0 -0.75470958851134928 0 0.65605901945558964 forward_v I I I I #
loop $-1 $-1 $161 $37 #
coedge $-1 $98 $98 $99 $162 forward $58 $-1 #
coedge $-1 $99 $99 $98 $162 reversed $60 $-1 #
coedge $-1 $100 $100 $61 $101 forward $158 $-1 #
edge $-1 $163 0 $163 6.2831853071796004 $100 $164 forward 7 unknown #
face $-1 $165 $166 $15 $-1 $167 reversed single #
loop $-1 $-1 $168 $62 #
plane-surface $-1 -71.424298837244791 0 0 1 0 0 0 0 -1 forward_v I I I I #
coedge $-1 $169 $113 $170 $171 forward $63 $-1 #
coedge $-1 $172 $65 $169 $173 forward $41 $-1 #
coedge $-1 $65 $172 $174 $175 forward $41 $-1 #
coedge $-1 $116 $115 $65 $109 reversed $117 $-1 #
edge $-1 $176 -40.369213369114455 $177 40.369213369114455 $108 $178 forward 7 unknown #
coedge $-1 $67 $66 $179 $180 forward $26 $-1 #
coedge $-1 $181 $182 $66 $112 reversed $166 $-1 #
edge $-1 $119 -71.424298837244791 $183 71.424298837244791 $111 $184 forward 7 unknown #
coedge $-1 $105 $185 $67 $114 reversed $63 $-1 #
edge $-1 $186 -71.424298837244791 $118 71.424298837244791 $113 $187 forward 7 unknown #
coedge $-1 $108 $68 $185 $188 forward $117 $-1 #
coedge $-1 $68 $108 $181 $189 reversed $117 $-1 #
loop $-1 $-1 $115 $165 #
vertex $-1 $69 $190 #
vertex $-1 $69 $191 #
straight-curve $-1 71.424298837244791 0 19.830897124381661 0 1 0 I I #
face $-1 $192 $193 $16 $-1 $194 reversed single #
loop $-1 $-1 $129 $70 #
plane-surface $-1 0 0 19.830897124381661 0 0 1 1 0 0 forward_v I I I I #
coedge $-1 $76 $195 $73 $127 forward $71 $-1 #
coedge $-1 $196 $73 $197 $198 reversed $45 $-1 #
coedge $-1 $73 $196 $74 $128 reversed $45 $-1 #
edge $-1 $199 -24.320643082827512 $132 -7.7764974897463652 $124 $200 forward 7 unknown #
edge $-1 $132 -142.84859767448967 $201 -136.55816408579898 $74 $202 forward 7 unknown #
coedge $-1 $203 $204 $75 $130 forward $122 $-1 #
edge $-1 $133 -28.666101693919579 $201 -24.539206001772662 $129 $205 forward 7 unknown #
coedge $-1 $206 $76 $204 $207 reversed $71 $-1 #
vertex $-1 $127 $208 #
vertex $-1 $130 $209 #
straight-curve $-1 71.424298837244791 23.825067776033308 108.30488193518597 0 0 1 I I #
face $-1 $210 $211 $17 $-1 $212 reversed single #
loop $-1 $213 $84 $78 #
plane-surface $-1 -22.292812083686897 32.097140572573885 122.89265294944029 0.75470958851134928 0 0.65605901945558964 0.65605901945558964 0 -0.75470958851134928 forward_v I I I I #
coedge $-1 $214 $215 $216 $217 reversed $79 $-1 #
coedge $-1 $139 $139 $-1 $218 forward $81 $-1 #
edge $-1 $219 0 $219 6.2831853071796004 $82 $220 forward 7 unknown #
vertex $-1 $85 $221 #
ellipse-curve $-1 69.360850991171318 32.097140572573885 17.457171851742313 -0.75470958851134928 0 -0.65605901945558964 0.65605901945558964 0 -0.75470958851134928 1 I I #
face $-1 $222 $223 $18 $-1 $224 reversed single #
loop $-1 $-1 $151 $86 #
plane-surface $-1 -71.424298837244791 0 0 1 0 0 0 0 -1 forward_v I I I I #
coedge $-1 $92 $225 $89 $149 forward $87 $-1 #
coedge $-1 $226 $89 $227 $228 reversed $54 $-1 #
coedge $-1 $89 $226 $90 $150 reversed $54 $-1 #
edge $-1 $229 -24.32064308282752 $154 -7.7764974897463652 $146 $230 forward 7 unknown #
edge $-1 $154 -6.2904335886906386 $231 4.2777722527798062e-014 $90 $232 forward 7 unknown #
coedge $-1 $233 $234 $91 $152 forward $144 $-1 #
edge $-1 $155 34.569381625635657 $231 39.316832170914367 $151 $235 forward 7 unknown #
coedge $-1 $236 $92 $234 $237 forward $87 $-1 #
vertex $-1 $149 $238 #
vertex $-1 $237 $239 #
straight-curve $-1 -89.616752603791042 23.825067776033308 19.830897124381664 -1 0 0 I I #
face $-1 $240 $241 $19 $-1 $242 forward single #
loop $-1 $243 $100 $94 #
plane-surface $-1 -71.424298837244763 32.097140572573885 15.083446579102983 -0.75470958851134928 0 0.65605901945558964 0.65605901945558964 0 0.75470958851134928 forward_v I I I I #
coedge $-1 $244 $245 $246 $247 reversed $95 $-1 #
coedge $-1 $161 $161 $-1 $248 forward $97 $-1 #
edge $-1 $249 0 $249 6.2831853071796004 $98 $250 forward 7 unknown #
vertex $-1 $101 $251 #
ellipse-curve $-1 -69.360850991171333 32.097140572573885 17.457171851742306 0.75470958851134928 0 -0.65605901945558964 0.65605901945558964 0 0.75470958851134928 1 I I #
face $-1 $-1 $117 $15 $-1 $252 reversed single #
loop $-1 $-1 $181 $102 #
plane-surface $-1 0 40.369213369114455 0 0 -1 0 0 0 -1 forward_v I I I I #
coedge $-1 $253 $179 $182 $254 forward $103 $-1 #
coedge $-1 $185 $105 $106 $173 reversed $63 $-1 #
coedge $-1 $179 $253 $105 $171 reversed $103 $-1 #
edge $-1 $186 -19.830897124381661 $255 19.830897124381661 $170 $256 forward 7 unknown #
coedge $-1 $107 $106 $253 $257 forward $41 $-1 #
edge $-1 $177 -71.424298837244791 $255 71.424298837244791 $169 $258 forward 7 unknown #
coedge $-1 $182 $181 $107 $175 reversed $166 $-1 #
edge $-1 $259 -71.424298837244791 $176 71.424298837244791 $174 $260 forward 7 unknown #
vertex $-1 $109 $261 #
vertex $-1 $188 $262 #
straight-curve $-1 71.424298837244791 0 -19.830897124381661 0 -1 0 I I #
coedge $-1 $168 $170 $110 $180 reversed $103 $-1 #
edge $-1 $183 -40.369213369114455 $186 40.369213369114455 $179 $263 forward 7 unknown #
coedge $-1 $174 $111 $116 $189 forward $166 $-1 #
coedge $-1 $111 $174 $168 $254 reversed $166 $-1 #
vertex $-1 $112 $264 #
straight-curve $-1 0 40.369213369114455 19.830897124381661 -1 0 0 I I #
coedge $-1 $113 $169 $115 $188 reversed $63 $-1 #
vertex $-1 $180 $265 #
straight-curve $-1 0 -40.369213369114455 19.830897124381661 1 0 0 I I #
edge $-1 $118 -19.830897124381661 $177 19.830897124381661 $115 $266 forward 7 unknown #
edge $-1 $119 -19.830897124381661 $176 19.830897124381661 $116 $267 forward 7 unknown #
point $-1 71.424298837244791 -40.369213369114455 19.830897124381661 #
point $-1 71.424298837244791 40.369213369114455 19.830897124381661 #
face $-1 $268 $269 $16 $-1 $270 reversed single #
loop $-1 $-1 $271 $121 #
plane-surface $-1 0 0 -19.830897124381661 0 0 1 1 0 0 forward_v I I I I #
coedge $-1 $124 $272 $273 $274 reversed $71 $-1 #
coedge $-1 $126 $125 $203 $275 reversed $45 $-1 #
coedge $-1 $273 $276 $125 $198 forward $277 $-1 #
edge $-1 $278 82.87133209826321 $199 89.161765686953899 $197 $279 forward 7 unknown #
vertex $-1 $274 $280 #
straight-curve $-1 71.424298837244791 16.048570286286942 15.083446579102933 0 -1 0 I I #
vertex $-1 $275 $281 #
straight-curve $-1 -22.292812083686897 23.825067776033308 122.89265294944029 -0.65605901945558964 0 0.75470958851134928 I I #
coedge $-1 $282 $129 $196 $275 forward $122 $-1 #
coedge $-1 $129 $283 $131 $207 forward $122 $-1 #
straight-curve $-1 42.758197143325212 23.825067776033308 19.830897124381664 -1 0 0 I I #
coedge $-1 $272 $131 $284 $285 forward $71 $-1 #
edge $-1 $286 -40.369213369114455 $133 23.825067776033308 $131 $287 forward 7 unknown #
point $-1 71.424298837244791 23.825067776033308 15.08344657910294 #
point $-1 71.424298837244791 23.825067776033308 19.830897124381661 #
face $-1 $288 $289 $17 $-1 $290 forward single #
loop $-1 $-1 $291 $135 #
plane-surface $-1 71.424298837244791 0 0 -1 0 0 0 0 1 forward_v I I I I #
loop $-1 $-1 $292 $78 #
coedge $-1 $215 $138 $293 $294 forward $79 $-1 #
coedge $-1 $138 $214 $295 $296 reversed $79 $-1 #
coedge $-1 $297 $291 $138 $217 forward $211 $-1 #
edge $-1 $298 -93.221435356083035 $299 -88.473984810804311 $216 $300 forward 7 unknown #
edge $-1 $301 1 $301 0 $139 $-1 forward 7 unknown #
vertex $-1 $140 $302 #
ellipse-curve $-1 68.050456612095559 32.097140572573885 16.318063425768429 0.75470958851134928 0 0.65605901945558964 0.65605901945558964 0 -0.75470958851134928 1 I I #
point $-1 70.01691001062693 32.097140572573885 16.702462263230981 #
face $-1 $303 $304 $18 $-1 $305 reversed single #
loop $-1 $306 $307 $143 #
cone-surface $-1 68.705653801633446 32.097140572573885 16.887617638755376 -0.75470958851134928 0 -0.65605901945558964 0.65605901945558964 0 -0.75470958851134928 1 I I 0 1 1 forward I I I I #
coedge $-1 $146 $308 $309 $310 forward $87 $-1 #
coedge $-1 $148 $147 $233 $311 reversed $54 $-1 #
coedge $-1 $309 $312 $147 $228 forward $313 $-1 #
edge $-1 $314 -17.737466849709087 $229 -11.447033261018404 $227 $315 forward 7 unknown #
vertex $-1 $228 $316 #
straight-curve $-1 -67.297403145097874 16.048570286286942 19.830897124381657 0 -1 0 I I #
vertex $-1 $311 $317 #
straight-curve $-1 -71.424298837244763 23.825067776033308 15.083446579102983 -0.65605901945558964 0 -0.75470958851134928 I I #
coedge $-1 $318 $151 $226 $311 forward $144 $-1 #
coedge $-1 $151 $319 $153 $237 reversed $144 $-1 #
straight-curve $-1 -71.424298837244791 23.825067776033308 54.400278750017321 0 0 -1 I I #
coedge $-1 $320 $153 $321 $322 forward $87 $-1 #
edge $-1 $155 -23.825067776033308 $323 40.369213369114455 $234 $324 forward 7 unknown #
point $-1 -67.297403145097874 23.825067776033308 19.830897124381661 #
point $-1 -71.424298837244791 23.825067776033308 19.830897124381661 #
face $-1 $325 $326 $19 $-1 $327 reversed single #
loop $-1 $-1 $328 $157 #
plane-surface $-1 0 0 19.830897124381661 0 0 1 1 0 0 forward_v I I I I #
loop $-1 $-1 $329 $94 #
coedge $-1 $245 $160 $330 $331 forward $95 $-1 #
coedge $-1 $160 $244 $332 $333 reversed $95 $-1 #
coedge $-1 $334 $328 $160 $247 forward $241 $-1 #
edge $-1 $335 -22.319349458693168 $336 -18.192453766546251 $246 $337 forward 7 unknown #
edge $-1 $338 1 $338 0 $161 $-1 forward 7 unknown #
vertex $-1 $162 $339 #
ellipse-curve $-1 -68.050456612095573 32.097140572573885 16.318063425768422 -0.75470958851134928 0 0.65605901945558964 0.65605901945558964 0 0.75470958851134928 1 I I #
point $-1 -68.704791971715764 32.097140572573885 18.21188144025367 #
plane-surface $-1 71.424298837244791 0 0 -1 0 0 0 0 1 forward_v I I I I #
coedge $-1 $170 $168 $172 $257 reversed $103 $-1 #
edge $-1 $183 -19.830897124381661 $259 19.830897124381661 $182 $340 forward 7 unknown #
vertex $-1 $257 $341 #
straight-curve $-1 -71.424298837244791 -40.369213369114455 0 0 0 -1 I I #
edge $-1 $255 -40.369213369114455 $259 40.369213369114455 $253 $342 forward 7 unknown #
straight-curve $-1 0 -40.369213369114455 -19.830897124381661 -1 0 0 I I #
vertex $-1 $175 $343 #
straight-curve $-1 0 40.369213369114455 -19.830897124381661 1 0 0 I I #
point $-1 71.424298837244791 40.369213369114455 -19.830897124381661 #
point $-1 71.424298837244791 -40.369213369114455 -19.830897124381661 #
straight-curve $-1 -71.424298837244791 0 19.830897124381661 0 -1 0 I I #
point $-1 -71.424298837244791 40.369213369114455 19.830897124381661 #
point $-1 -71.424298837244791 -40.369213369114455 19.830897124381661 #
straight-curve $-1 71.424298837244791 -40.369213369114455 0 0 0 -1 I I #
straight-curve $-1 71.424298837244791 40.369213369114455 0 0 0 -1 I I #
face $-1 $344 $345 $16 $-1 $346 reversed single #
loop $-1 $-1 $347 $192 #
plane-surface $-1 0 -40.369213369114455 0 0 1 0 0 0 1 forward_v I I I I #
coedge $-1 $348 $349 $272 $350 forward $193 $-1 #
coedge $-1 $195 $206 $271 $350 reversed $71 $-1 #
coedge $-1 $351 $197 $195 $274 forward $277 $-1 #
edge $-1 $199 -15.083446579102931 $352 19.830897124381661 $195 $353 forward 7 unknown #
edge $-1 $201 7.7764974897463652 $278 24.32064308282752 $203 $354 forward 7 unknown #
coedge $-1 $197 $355 $282 $356 reversed $277 $-1 #
loop $-1 $-1 $197 $344 #
vertex $-1 $356 $357 #
straight-curve $-1 12.92891826773279 40.369213369114455 82.374686071649251 0.65605901945558975 0 -0.75470958851134939 I I #
point $-1 71.424298837244791 40.369213369114455 15.083446579102931 #
point $-1 67.297403145097874 23.825067776033308 19.83089712438165 #
coedge $-1 $358 $203 $276 $356 forward $122 $-1 #
coedge $-1 $204 $358 $359 $360 forward $122 $-1 #
coedge $-1 $359 $361 $206 $285 reversed $269 $-1 #
edge $-1 $286 -19.830897124381661 $362 19.830897124381661 $206 $363 forward 7 unknown #
vertex $-1 $207 $364 #
straight-curve $-1 71.424298837244791 0 19.830897124381661 0 1 0 I I #
face $-1 $365 $366 $17 $-1 $367 reversed single #
loop $-1 $-1 $295 $210 #
plane-surface $-1 0 0 19.830897124381661 0 0 1 1 0 0 forward_v I I I I #
coedge $-1 $216 $368 $292 $369 forward $211 $-1 #
coedge $-1 $370 $293 $291 $369 reversed $213 $-1 #
coedge $-1 $292 $371 $214 $294 reversed $213 $-1 #
edge $-1 $298 -142.84859767448967 $372 -136.55816408579898 $214 $373 forward 7 unknown #
coedge $-1 $374 $375 $215 $296 forward $289 $-1 #
edge $-1 $299 -28.666101693919579 $372 -24.539206001772662 $295 $376 forward 7 unknown #
coedge $-1 $377 $216 $375 $378 reversed $211 $-1 #
vertex $-1 $369 $379 #
vertex $-1 $296 $380 #
straight-curve $-1 71.424298837244791 23.825067776033308 108.30488193518597 0 0 1 I I #
vertex $-1 $218 $381 #
point $-1 68.706515631551142 32.097140572573885 15.563353837257079 #
face $-1 $382 $383 $18 $-1 $384 forward single #
loop $-1 $385 $386 $222 #
cone-surface $-1 67.673101817839878 32.097140572573885 15.990033916040634 -0.75470958851134928 0 -0.65605901945558964 0.32802950972779482 0 -0.37735479425567464 1 I I -0.70710678118654746 0.70710678118654746 0.5 forward I I I I #
loop $-1 $-1 $387 $143 #
coedge $-1 $307 $307 $388 $389 reversed $223 $-1 #
coedge $-1 $225 $390 $391 $392 forward $87 $-1 #
coedge $-1 $393 $227 $225 $310 reversed $313 $-1 #
edge $-1 $394 -67.297403145097874 $229 67.297403145097874 $309 $395 forward 7 unknown #
edge $-1 $231 7.7764974897463652 $314 24.32064308282752 $233 $396 forward 7 unknown #
coedge $-1 $227 $397 $318 $398 reversed $313 $-1 #
loop $-1 $-1 $227 $399 #
vertex $-1 $398 $400 #
straight-curve $-1 -59.78747372819862 40.369213369114455 28.47008288648059 0.65605901945558975 0 0.75470958851134939 I I #
point $-1 -67.297403145097874 40.369213369114462 19.830897124381661 #
point $-1 -71.424298837244791 23.825067776033308 15.083446579102951 #
coedge $-1 $401 $233 $312 $398 forward $144 $-1 #
coedge $-1 $234 $401 $402 $403 reversed $144 $-1 #
coedge $-1 $390 $236 $404 $405 forward $87 $-1 #
coedge $-1 $402 $406 $236 $322 reversed $407 $-1 #
edge $-1 $323 -71.424298837244791 $408 71.424298837244791 $321 $409 forward 7 unknown #
vertex $-1 $237 $410 #
straight-curve $-1 -71.424298837244791 0 19.830897124381661 0 -1 0 I I #
face $-1 $411 $412 $19 $-1 $413 reversed single #
loop $-1 $-1 $332 $240 #
plane-surface $-1 -71.424298837244791 0 0 1 0 0 0 0 -1 forward_v I I I I #
coedge $-1 $246 $414 $329 $415 forward $241 $-1 #
coedge $-1 $416 $330 $328 $415 reversed $243 $-1 #
coedge $-1 $329 $417 $244 $331 reversed $243 $-1 #
edge $-1 $335 -6.2904335886906386 $418 4.2777722527798062e-014 $244 $419 forward 7 unknown #
coedge $-1 $420 $421 $245 $333 forward $326 $-1 #
edge $-1 $336 34.569381625635657 $418 39.316832170914367 $332 $422 forward 7 unknown #
coedge $-1 $423 $246 $421 $424 forward $241 $-1 #
vertex $-1 $415 $425 #
vertex $-1 $424 $426 #
straight-curve $-1 -89.616752603791042 23.825067776033308 19.830897124381664 -1 0 0 I I #
vertex $-1 $248 $427 #
point $-1 -67.394397592639976 32.097140572573885 17.072773014279772 #
straight-curve $-1 -71.424298837244791 40.369213369114455 0 0 0 -1 I I #
point $-1 -71.424298837244791 -40.369213369114455 -19.830897124381661 #
straight-curve $-1 -71.424298837244791 0 -19.830897124381661 0 1 0 I I #
point $-1 -71.424298837244791 40.369213369114455 -19.830897124381661 #
face $-1 $-1 $277 $16 $-1 $428 reversed single #
loop $-1 $-1 $429 $268 #
plane-surface $-1 -71.424298837244791 0 0 1 0 0 0 0 -1 forward_v I I I I #
coedge $-1 $361 $359 $430 $431 forward $269 $-1 #
coedge $-1 $432 $271 $361 $433 forward $193 $-1 #
coedge $-1 $271 $432 $351 $434 forward $193 $-1 #
edge $-1 $352 -40.369213369114455 $362 40.369213369114455 $272 $435 forward 7 unknown #
coedge $-1 $355 $273 $349 $434 reversed $277 $-1 #
vertex $-1 $350 $436 #
straight-curve $-1 71.424298837244791 40.369213369114455 0 0 0 -1 I I #
straight-curve $-1 67.29740314509786 16.048570286286942 19.830897124381664 0 1 0 I I #
coedge $-1 $276 $351 $429 $437 reversed $277 $-1 #
edge $-1 $278 -67.297403145097874 $438 71.424298837244791 $276 $439 forward 7 unknown #
point $-1 67.297403145097874 40.369213369114462 19.83089712438165 #
coedge $-1 $283 $282 $440 $441 forward $122 $-1 #
coedge $-1 $347 $284 $283 $360 reversed $269 $-1 #
edge $-1 $442 -71.424298837244791 $286 71.424298837244791 $359 $443 forward 7 unknown #
coedge $-1 $284 $347 $348 $433 reversed $269 $-1 #
vertex $-1 $285 $444 #
straight-curve $-1 71.424298837244791 -40.369213369114455 0 0 0 -1 I I #
point $-1 71.424298837244791 -40.369213369114455 19.830897124381661 #
face $-1 $445 $446 $17 $-1 $447 reversed single #
loop $-1 $-1 $448 $288 #
plane-surface $-1 0 0 -19.830897124381661 0 0 1 1 0 0 forward_v I I I I #
coedge $-1 $291 $449 $450 $451 reversed $211 $-1 #
edge $-1 $452 -24.320643082827512 $298 -7.7764974897463652 $291 $453 forward 7 unknown #
coedge $-1 $371 $292 $454 $455 reversed $213 $-1 #
coedge $-1 $293 $370 $374 $456 reversed $213 $-1 #
vertex $-1 $456 $457 #
straight-curve $-1 -22.292812083686897 23.825067776033308 122.89265294944029 -0.65605901945558964 0 0.75470958851134928 I I #
coedge $-1 $458 $295 $371 $456 forward $289 $-1 #
coedge $-1 $295 $459 $297 $378 forward $289 $-1 #
straight-curve $-1 42.758197143325212 23.825067776033308 19.830897124381664 -1 0 0 I I #
coedge $-1 $449 $297 $460 $461 forward $211 $-1 #
edge $-1 $462 -40.369213369114455 $299 23.825067776033308 $297 $463 forward 7 unknown #
point $-1 71.424298837244791 23.825067776033308 15.08344657910294 #
point $-1 71.424298837244791 23.825067776033308 19.830897124381661 #
point $-1 67.295747023584198 32.097140572573885 15.662004406312839 #
face $-1 $464 $465 $18 $-1 $466 forward single #
loop $-1 $-1 $467 $303 #
plane-surface $-1 85.516394286650424 23.825067776033308 216.60976387037195 0 1 0 0.75470958851134928 0 0.65605901945558964 forward_v I I I I #
loop $-1 $-1 $468 $222 #
coedge $-1 $386 $386 $387 $469 forward $304 $-1 #
coedge $-1 $387 $387 $386 $469 reversed $306 $-1 #
coedge $-1 $388 $388 $307 $389 forward $465 $-1 #
edge $-1 $470 0 $470 6.2831853071796004 $388 $471 forward 7 unknown #
coedge $-1 $308 $320 $472 $473 forward $87 $-1 #
coedge $-1 $474 $475 $308 $392 reversed $476 $-1 #
edge $-1 $477 7.7764974897463652 $394 24.32064308282752 $308 $478 forward 7 unknown #
coedge $-1 $479 $309 $475 $480 forward $313 $-1 #
vertex $-1 $310 $481 #
straight-curve $-1 0 40.369213369114455 19.830897124381661 -1 0 0 I I #
straight-curve $-1 -71.424298837244791 16.048570286286942 15.083446579102942 0 1 0 I I #
coedge $-1 $312 $479 $482 $483 reversed $313 $-1 #
edge $-1 $314 -15.083446579102951 $484 19.830897124381661 $312 $485 forward 7 unknown #
face $-1 $-1 $313 $18 $-1 $486 reversed single #
point $-1 -71.424298837244791 40.369213369114462 15.083446579102951 #
coedge $-1 $319 $318 $487 $488 reversed $144 $-1 #
coedge $-1 $489 $321 $319 $403 forward $407 $-1 #
edge $-1 $323 -19.830897124381661 $490 19.830897124381661 $319 $491 forward 7 unknown #
coedge $-1 $492 $493 $320 $405 reversed $494 $-1 #
edge $-1 $408 -40.369213369114455 $495 23.825067776033308 $404 $496 forward 7 unknown #
coedge $-1 $321 $489 $492 $497 reversed $407 $-1 #
loop $-1 $-1 $402 $498 #
vertex $-1 $405 $499 #
straight-curve $-1 0 -40.369213369114455 19.830897124381661 1 0 0 I I #
point $-1 -71.424298837244791 -40.369213369114455 19.830897124381661 #
face $-1 $500 $501 $19 $-1 $502 reversed single #
loop $-1 $503 $504 $325 #
cone-surface $-1 68.705653801633446 32.097140572573885 16.887617638755376 -0.75470958851134928 0 -0.65605901945558964 0.65605901945558964 0 -0.75470958851134928 1 I I 0 1 1 forward I I I I #
coedge $-1 $328 $505 $506 $507 forward $241 $-1 #
edge $-1 $508 -24.32064308282752 $335 -7.7764974897463652 $328 $509 forward 7 unknown #
coedge $-1 $417 $329 $510 $511 reversed $243 $-1 #
coedge $-1 $330 $416 $420 $512 reversed $243 $-1 #
vertex $-1 $512 $513 #
straight-curve $-1 -71.424298837244763 23.825067776033308 15.083446579102983 -0.65605901945558964 0 -0.75470958851134928 I I #
coedge $-1 $514 $332 $417 $512 forward $326 $-1 #
coedge $-1 $332 $515 $334 $424 reversed $326 $-1 #
straight-curve $-1 -71.424298837244791 23.825067776033308 54.400278750017321 0 0 -1 I I #
coedge $-1 $516 $334 $517 $518 forward $241 $-1 #
edge $-1 $336 -23.825067776033308 $519 40.369213369114455 $421 $520 forward 7 unknown #
point $-1 -67.297403145097874 23.825067776033308 19.830897124381661 #
point $-1 -71.424298837244791 23.825067776033308 19.830897124381661 #
point $-1 -67.295747023584212 32.097140572573885 15.662004406312832 #
plane-surface $-1 0 40.369213369114455 0 0 -1 0 0 0 -1 forward_v I I I I #
coedge $-1 $521 $440 $355 $437 forward $345 $-1 #
coedge $-1 $440 $521 $347 $431 reversed $345 $-1 #
edge $-1 $442 -19.830897124381661 $522 19.830897124381661 $430 $523 forward 7 unknown #
coedge $-1 $349 $348 $521 $524 forward $193 $-1 #
edge $-1 $362 -71.424298837244791 $522 71.424298837244791 $361 $525 forward 7 unknown #
edge $-1 $526 -71.424298837244791 $352 71.424298837244791 $351 $527 forward 7 unknown #
straight-curve $-1 71.424298837244791 0 -19.830897124381661 0 -1 0 I I #
point $-1 71.424298837244791 40.369213369114455 -19.830897124381661 #
edge $-1 $438 -19.830897124381661 $526 19.830897124381661 $355 $528 forward 7 unknown #
vertex $-1 $356 $529 #
straight-curve $-1 0 40.369213369114455 19.830897124381661 -1 0 0 I I #
coedge $-1 $429 $430 $358 $441 reversed $345 $-1 #
edge $-1 $438 -40.369213369114455 $442 40.369213369114455 $440 $530 forward 7 unknown #
vertex $-1 $441 $531 #
straight-curve $-1 0 -40.369213369114455 19.830897124381661 1 0 0 I I #
point $-1 71.424298837244791 -40.369213369114455 -19.830897124381661 #
face $-1 $532 $533 $17 $-1 $534 reversed single #
loop $-1 $-1 $535 $365 #
plane-surface $-1 0 -40.369213369114455 0 0 1 0 0 0 1 forward_v I I I I #
coedge $-1 $536 $537 $449 $538 forward $366 $-1 #
coedge $-1 $368 $377 $448 $538 reversed $211 $-1 #
coedge $-1 $539 $454 $368 $451 forward $540 $-1 #
edge $-1 $452 -15.083446579102931 $541 19.830897124381661 $368 $542 forward 7 unknown #
vertex $-1 $451 $543 #
straight-curve $-1 71.424298837244791 16.048570286286942 15.083446579102933 0 -1 0 I I #
coedge $-1 $450 $544 $370 $455 forward $540 $-1 #
edge $-1 $545 82.87133209826321 $452 89.161765686953899 $454 $546 forward 7 unknown #
edge $-1 $372 7.7764974897463652 $545 24.32064308282752 $374 $547 forward 7 unknown #
point $-1 67.297403145097874 23.825067776033308 19.83089712438165 #
coedge $-1 $548 $374 $544 $549 forward $289 $-1 #
coedge $-1 $375 $548 $550 $551 forward $289 $-1 #
coedge $-1 $550 $552 $377 $461 reversed $446 $-1 #
edge $-1 $462 -19.830897124381661 $553 19.830897124381661 $377 $554 forward 7 unknown #
vertex $-1 $378 $555 #
straight-curve $-1 71.424298837244791 0 19.830897124381661 0 1 0 I I #
face $-1 $556 $494 $18 $-1 $557 reversed single #
loop $-1 $476 $388 $382 #
plane-surface $-1 -22.292812083686897 32.097140572573885 122.89265294944029 0.75470958851134928 0 0.65605901945558964 0.65605901945558964 0 -0.75470958851134928 forward_v I I I I #
coedge $-1 $558 $472 $493 $559 reversed $383 $-1 #
coedge $-1 $468 $468 $-1 $560 forward $385 $-1 #
edge $-1 $561 0 $561 6.2831853071796004 $386 $562 forward 7 unknown #
vertex $-1 $389 $563 #
ellipse-curve $-1 69.360850991171318 32.097140572573885 17.457171851742313 -0.75470958851134928 0 -0.65605901945558964 0.65605901945558964 0 -0.75470958851134928 1 I I #
coedge $-1 $467 $558 $390 $473 reversed $383 $-1 #
edge $-1 $495 -28.666101693919579 $477 -24.539206001772662 $390 $564 forward 7 unknown #
coedge $-1 $565 $391 $558 $566 reversed $476 $-1 #
coedge $-1 $391 $565 $393 $480 reversed $476 $-1 #
loop $-1 $-1 $565 $382 #
vertex $-1 $392 $567 #
straight-curve $-1 67.29740314509786 16.048570286286942 19.830897124381664 0 1 0 I I #
coedge $-1 $397 $393 $568 $569 forward $313 $-1 #
edge $-1 $394 82.87133209826321 $570 89.161765686953899 $393 $571 forward 7 unknown #
point $-1 67.297403145097874 40.369213369114462 19.83089712438165 #
coedge $-1 $572 $487 $397 $483 forward $573 $-1 #
edge $-1 $484 -71.424298837244791 $574 71.424298837244791 $397 $575 forward 7 unknown #
vertex $-1 $483 $576 #
straight-curve $-1 -71.424298837244791 40.369213369114455 0 0 0 -1 I I #
plane-surface $-1 0 40.369213369114455 0 0 -1 0 0 0 -1 forward_v I I I I #
coedge $-1 $482 $577 $401 $488 forward $573 $-1 #
edge $-1 $490 -40.369213369114455 $484 40.369213369114455 $401 $578 forward 7 unknown #
coedge $-1 $406 $402 $577 $579 reversed $407 $-1 #
vertex $-1 $488 $580 #
straight-curve $-1 -71.424298837244791 -40.369213369114455 0 0 0 -1 I I #
coedge $-1 $581 $404 $406 $497 forward $494 $-1 #
coedge $-1 $404 $582 $467 $559 forward $494 $-1 #
loop $-1 $-1 $582 $464 #
vertex $-1 $473 $583 #
straight-curve $-1 71.424298837244791 0 19.830897124381661 0 1 0 I I #
edge $-1 $408 -19.830897124381661 $584 19.830897124381661 $492 $585 forward 7 unknown #
face $-1 $399 $407 $18 $-1 $586 reversed single #
point $-1 71.424298837244791 -40.369213369114455 19.830897124381661 #
face $-1 $587 $588 $19 $-1 $589 forward single #
loop $-1 $590 $591 $411 #
cone-surface $-1 67.673101817839878 32.097140572573885 15.990033916040634 -0.75470958851134928 0 -0.65605901945558964 0.32802950972779482 0 -0.37735479425567464 1 I I -0.70710678118654746 0.70710678118654746 0.5 forward I I I I #
loop $-1 $-1 $592 $325 #
coedge $-1 $504 $504 $593 $594 reversed $412 $-1 #
coedge $-1 $414 $595 $596 $597 forward $241 $-1 #
coedge $-1 $598 $510 $414 $507 reversed $599 $-1 #
edge $-1 $600 -67.297403145097874 $508 67.297403145097874 $506 $601 forward 7 unknown #
vertex $-1 $511 $602 #
straight-curve $-1 -67.297403145097874 16.048570286286942 19.830897124381657 0 -1 0 I I #
coedge $-1 $506 $603 $416 $511 forward $599 $-1 #
edge $-1 $604 -17.737466849709087 $508 -11.447033261018404 $510 $605 forward 7 unknown #
edge $-1 $418 7.7764974897463652 $604 24.32064308282752 $420 $606 forward 7 unknown #
point $-1 -71.424298837244791 23.825067776033308 15.083446579102951 #
coedge $-1 $607 $420 $603 $608 forward $326 $-1 #
coedge $-1 $421 $607 $609 $610 reversed $326 $-1 #
coedge $-1 $595 $423 $611 $612 forward $241 $-1 #
coedge $-1 $609 $613 $423 $518 reversed $614 $-1 #
edge $-1 $519 -71.424298837244791 $615 71.424298837244791 $517 $616 forward 7 unknown #
vertex $-1 $424 $617 #
straight-curve $-1 -71.424298837244791 0 19.830897124381661 0 -1 0 I I #
coedge $-1 $430 $429 $432 $524 reversed $345 $-1 #
vertex $-1 $524 $618 #
straight-curve $-1 -71.424298837244791 -40.369213369114455 0 0 0 -1 I I #
edge $-1 $522 -40.369213369114455 $526 40.369213369114455 $521 $619 forward 7 unknown #
straight-curve $-1 0 -40.369213369114455 -19.830897124381661 -1 0 0 I I #
vertex $-1 $434 $620 #
straight-curve $-1 0 40.369213369114455 -19.830897124381661 1 0 0 I I #
straight-curve $-1 -71.424298837244791 40.369213369114455 0 0 0 -1 I I #
point $-1 -71.424298837244791 40.369213369114455 19.830897124381661 #
straight-curve $-1 -71.424298837244791 0 19.830897124381661 0 -1 0 I I #
point $-1 -71.424298837244791 -40.369213369114455 19.830897124381661 #
face $-1 $-1 $540 $17 $-1 $621 reversed single #
loop $-1 $-1 $622 $445 #
plane-surface $-1 -71.424298837244791 0 0 1 0 0 0 0 -1 forward_v I I I I #
coedge $-1 $552 $550 $623 $624 forward $446 $-1 #
coedge $-1 $625 $448 $552 $626 forward $366 $-1 #
coedge $-1 $448 $625 $539 $627 forward $366 $-1 #
edge $-1 $541 -40.369213369114455 $553 40.369213369114455 $449 $628 forward 7 unknown #
coedge $-1 $629 $450 $537 $627 reversed $540 $-1 #
loop $-1 $-1 $454 $532 #
vertex $-1 $538 $630 #
straight-curve $-1 71.424298837244791 40.369213369114455 0 0 0 -1 I I #
point $-1 71.424298837244791 40.369213369114455 15.083446579102931 #
coedge $-1 $454 $629 $458 $549 reversed $540 $-1 #
vertex $-1 $549 $631 #
straight-curve $-1 12.92891826773279 40.369213369114455 82.374686071649251 0.65605901945558975 0 -0.75470958851134939 I I #
straight-curve $-1 67.29740314509786 16.048570286286942 19.830897124381664 0 1 0 I I #
coedge $-1 $459 $458 $632 $633 forward $289 $-1 #
edge $-1 $545 -67.297403145097874 $634 71.424298837244791 $544 $635 forward 7 unknown #
coedge $-1 $535 $460 $459 $551 reversed $446 $-1 #
edge $-1 $636 -71.424298837244791 $462 71.424298837244791 $550 $637 forward 7 unknown #
coedge $-1 $460 $535 $536 $626 reversed $446 $-1 #
vertex $-1 $461 $638 #
straight-curve $-1 71.424298837244791 -40.369213369114455 0 0 0 -1 I I #
point $-1 71.424298837244791 -40.369213369114455 19.830897124381661 #
face $-1 $498 $573 $18 $-1 $639 reversed single #
plane-surface $-1 71.424298837244791 0 0 -1 0 0 0 0 1 forward_v I I I I #
coedge $-1 $472 $467 $474 $566 forward $383 $-1 #
edge $-1 $640 -93.221435356083035 $495 -88.473984810804311 $493 $641 forward 7 unknown #
edge $-1 $642 1 $642 0 $468 $-1 forward 7 unknown #
vertex $-1 $469 $643 #
ellipse-curve $-1 68.050456612095559 32.097140572573885 16.318063425768429 0.75470958851134928 0 0.65605901945558964 0.65605901945558964 0 -0.75470958851134928 1 I I #
point $-1 70.01691001062693 32.097140572573885 16.702462263230981 #
straight-curve $-1 42.758197143325212 23.825067776033308 19.830897124381664 -1 0 0 I I #
coedge $-1 $475 $474 $582 $644 reversed $476 $-1 #
edge $-1 $640 -142.84859767448967 $477 -136.55816408579898 $558 $645 forward 7 unknown #
point $-1 67.297403145097874 23.825067776033308 19.83089712438165 #
coedge $-1 $582 $581 $479 $569 reversed $494 $-1 #
edge $-1 $570 -15.083446579102931 $574 19.830897124381661 $568 $646 forward 7 unknown #
vertex $-1 $569 $647 #
straight-curve $-1 12.92891826773279 40.369213369114455 82.374686071649251 0.65605901945558975 0 -0.75470958851134939 I I #
coedge $-1 $577 $482 $581 $648 forward $573 $-1 #
loop $-1 $-1 $572 $556 #
vertex $-1 $648 $649 #
straight-curve $-1 0 40.369213369114455 -19.830897124381661 1 0 0 I I #
point $-1 -71.424298837244791 40.369213369114455 -19.830897124381661 #
coedge $-1 $487 $572 $489 $579 forward $573 $-1 #
straight-curve $-1 -71.424298837244791 0 -19.830897124381661 0 1 0 I I #
edge $-1 $584 -71.424298837244791 $490 71.424298837244791 $489 $650 forward 7 unknown #
point $-1 -71.424298837244791 -40.369213369114455 -19.830897124381661 #
coedge $-1 $568 $492 $572 $648 reversed $494 $-1 #
coedge $-1 $493 $568 $565 $644 forward $494 $-1 #
point $-1 71.424298837244791 23.825067776033308 19.830897124381661 #
vertex $-1 $497 $651 #
straight-curve $-1 71.424298837244791 -40.369213369114455 0 0 0 -1 I I #
plane-surface $-1 0 -40.369213369114455 0 0 1 0 0 0 1 forward_v I I I I #
face $-1 $652 $653 $19 $-1 $654 forward single #
loop $-1 $-1 $655 $500 #
plane-surface $-1 85.516394286650424 23.825067776033308 216.60976387037195 0 1 0 0.75470958851134928 0 0.65605901945558964 forward_v I I I I #
loop $-1 $-1 $656 $411 #
coedge $-1 $591 $591 $592 $657 forward $501 $-1 #
coedge $-1 $592 $592 $591 $657 reversed $503 $-1 #
coedge $-1 $593 $593 $504 $594 forward $653 $-1 #
edge $-1 $658 0 $658 6.2831853071796004 $593 $659 forward 7 unknown #
coedge $-1 $505 $516 $660 $661 forward $241 $-1 #
coedge $-1 $662 $663 $505 $597 reversed $664 $-1 #
edge $-1 $665 7.7764974897463652 $600 24.32064308282752 $505 $666 forward 7 unknown #
coedge $-1 $667 $506 $663 $668 forward $599 $-1 #
loop $-1 $-1 $510 $669 #
vertex $-1 $507 $670 #
straight-curve $-1 0 40.369213369114455 19.830897124381661 -1 0 0 I I #
point $-1 -67.297403145097874 40.369213369114462 19.830897124381661 #
coedge $-1 $510 $671 $514 $608 reversed $599 $-1 #
vertex $-1 $608 $672 #
straight-curve $-1 -59.78747372819862 40.369213369114455 28.47008288648059 0.65605901945558975 0 0.75470958851134939 I I #
straight-curve $-1 -71.424298837244791 16.048570286286942 15.083446579102942 0 1 0 I I #
coedge $-1 $515 $514 $673 $674 reversed $326 $-1 #
edge $-1 $604 -15.083446579102951 $675 19.830897124381661 $603 $676 forward 7 unknown #
coedge $-1 $677 $517 $515 $610 forward $614 $-1 #
edge $-1 $519 -19.830897124381661 $678 19.830897124381661 $515 $679 forward 7 unknown #
coedge $-1 $680 $681 $516 $612 reversed $682 $-1 #
edge $-1 $615 -40.369213369114455 $683 23.825067776033308 $611 $684 forward 7 unknown #
coedge $-1 $517 $677 $680 $685 reversed $614 $-1 #
loop $-1 $-1 $609 $686 #
vertex $-1 $612 $687 #
straight-curve $-1 0 -40.369213369114455 19.830897124381661 1 0 0 I I #
point $-1 -71.424298837244791 -40.369213369114455 19.830897124381661 #
point $-1 -71.424298837244791 -40.369213369114455 -19.830897124381661 #
straight-curve $-1 -71.424298837244791 0 -19.830897124381661 0 1 0 I I #
point $-1 -71.424298837244791 40.369213369114455 -19.830897124381661 #
plane-surface $-1 0 40.369213369114455 0 0 -1 0 0 0 -1 forward_v I I I I #
coedge $-1 $688 $632 $629 $689 forward $533 $-1 #
coedge $-1 $632 $688 $535 $624 reversed $533 $-1 #
edge $-1 $636 -19.830897124381661 $690 19.830897124381661 $623 $691 forward 7 unknown #
coedge $-1 $537 $536 $688 $692 forward $366 $-1 #
edge $-1 $553 -71.424298837244791 $690 71.424298837244791 $552 $693 forward 7 unknown #
edge $-1 $694 -71.424298837244791 $541 71.424298837244791 $539 $695 forward 7 unknown #
straight-curve $-1 71.424298837244791 0 -19.830897124381661 0 -1 0 I I #
coedge $-1 $544 $539 $622 $689 reversed $540 $-1 #
point $-1 71.424298837244791 40.369213369114455 -19.830897124381661 #
point $-1 67.297403145097874 40.369213369114462 19.83089712438165 #
coedge $-1 $622 $623 $548 $633 reversed $533 $-1 #
edge $-1 $634 -40.369213369114455 $636 40.369213369114455 $632 $696 forward 7 unknown #
vertex $-1 $549 $697 #
straight-curve $-1 0 40.369213369114455 19.830897124381661 -1 0 0 I I #
vertex $-1 $633 $698 #
straight-curve $-1 0 -40.369213369114455 19.830897124381661 1 0 0 I I #
point $-1 71.424298837244791 -40.369213369114455 -19.830897124381661 #
plane-surface $-1 0 0 -19.830897124381661 0 0 1 1 0 0 forward_v I I I I #
vertex $-1 $644 $699 #
straight-curve $-1 71.424298837244791 23.825067776033308 108.30488193518597 0 0 1 I I #
vertex $-1 $560 $700 #
point $-1 68.706515631551142 32.097140572573885 15.563353837257079 #
edge $-1 $570 -24.320643082827512 $640 -7.7764974897463652 $582 $701 forward 7 unknown #
straight-curve $-1 -22.292812083686897 23.825067776033308 122.89265294944029 -0.65605901945558964 0 0.75470958851134928 I I #
straight-curve $-1 71.424298837244791 40.369213369114455 0 0 0 -1 I I #
point $-1 71.424298837244791 40.369213369114455 15.083446579102931 #
edge $-1 $574 -40.369213369114455 $584 40.369213369114455 $581 $702 forward 7 unknown #
point $-1 71.424298837244791 40.369213369114455 -19.830897124381661 #
straight-curve $-1 0 -40.369213369114455 -19.830897124381661 -1 0 0 I I #
point $-1 71.424298837244791 -40.369213369114455 -19.830897124381661 #
face $-1 $703 $682 $19 $-1 $704 reversed single #
loop $-1 $664 $593 $587 #
plane-surface $-1 -22.292812083686897 32.097140572573885 122.89265294944029 0.75470958851134928 0 0.65605901945558964 0.65605901945558964 0 -0.75470958851134928 forward_v I I I I #
coedge $-1 $705 $660 $681 $706 reversed $588 $-1 #
coedge $-1 $656 $656 $-1 $707 forward $590 $-1 #
edge $-1 $708 0 $708 6.2831853071796004 $591 $709 forward 7 unknown #
vertex $-1 $594 $710 #
ellipse-curve $-1 69.360850991171318 32.097140572573885 17.457171851742313 -0.75470958851134928 0 -0.65605901945558964 0.65605901945558964 0 -0.75470958851134928 1 I I #
coedge $-1 $655 $705 $595 $661 reversed $588 $-1 #
edge $-1 $683 -28.666101693919579 $665 -24.539206001772662 $595 $711 forward 7 unknown #
coedge $-1 $712 $596 $705 $713 reversed $664 $-1 #
coedge $-1 $596 $712 $598 $668 reversed $664 $-1 #
loop $-1 $-1 $712 $587 #
vertex $-1 $597 $714 #
straight-curve $-1 67.29740314509786 16.048570286286942 19.830897124381664 0 1 0 I I #
coedge $-1 $671 $598 $715 $716 forward $599 $-1 #
edge $-1 $600 82.87133209826321 $717 89.161765686953899 $598 $718 forward 7 unknown #
face $-1 $-1 $599 $19 $-1 $719 reversed single #
point $-1 67.297403145097874 40.369213369114462 19.83089712438165 #
coedge $-1 $603 $667 $720 $721 reversed $599 $-1 #
point $-1 -71.424298837244791 40.369213369114462 15.083446579102951 #
coedge $-1 $720 $722 $607 $674 forward $723 $-1 #
edge $-1 $678 -40.369213369114455 $675 40.369213369114455 $607 $724 forward 7 unknown #
vertex $-1 $721 $725 #
straight-curve $-1 -71.424298837244791 40.369213369114455 0 0 0 -1 I I #
coedge $-1 $613 $609 $722 $726 reversed $614 $-1 #
vertex $-1 $674 $727 #
straight-curve $-1 -71.424298837244791 -40.369213369114455 0 0 0 -1 I I #
coedge $-1 $728 $611 $613 $685 forward $682 $-1 #
coedge $-1 $611 $729 $655 $706 forward $682 $-1 #
loop $-1 $-1 $729 $652 #
vertex $-1 $661 $730 #
straight-curve $-1 71.424298837244791 0 19.830897124381661 0 1 0 I I #
edge $-1 $615 -19.830897124381661 $731 19.830897124381661 $680 $732 forward 7 unknown #
face $-1 $669 $614 $19 $-1 $733 reversed single #
point $-1 71.424298837244791 -40.369213369114455 19.830897124381661 #
coedge $-1 $623 $622 $625 $692 reversed $533 $-1 #
edge $-1 $634 -19.830897124381661 $694 19.830897124381661 $629 $734 forward 7 unknown #
vertex $-1 $692 $735 #
straight-curve $-1 -71.424298837244791 -40.369213369114455 0 0 0 -1 I I #
edge $-1 $690 -40.369213369114455 $694 40.369213369114455 $688 $736 forward 7 unknown #
straight-curve $-1 0 -40.369213369114455 -19.830897124381661 -1 0 0 I I #
vertex $-1 $627 $737 #
straight-curve $-1 0 40.369213369114455 -19.830897124381661 1 0 0 I I #
straight-curve $-1 -71.424298837244791 0 19.830897124381661 0 -1 0 I I #
point $-1 -71.424298837244791 40.369213369114455 19.830897124381661 #
point $-1 -71.424298837244791 -40.369213369114455 19.830897124381661 #
point $-1 71.424298837244791 23.825067776033308 15.08344657910294 #
point $-1 67.295747023584198 32.097140572573885 15.662004406312839 #
straight-curve $-1 71.424298837244791 16.048570286286942 15.083446579102933 0 -1 0 I I #
straight-curve $-1 71.424298837244791 0 -19.830897124381661 0 -1 0 I I #
face $-1 $686 $723 $19 $-1 $738 reversed single #
plane-surface $-1 71.424298837244791 0 0 -1 0 0 0 0 1 forward_v I I I I #
coedge $-1 $660 $655 $662 $713 forward $588 $-1 #
edge $-1 $739 -93.221435356083035 $683 -88.473984810804311 $681 $740 forward 7 unknown #
edge $-1 $741 1 $741 0 $656 $-1 forward 7 unknown #
vertex $-1 $657 $742 #
ellipse-curve $-1 68.050456612095559 32.097140572573885 16.318063425768429 0.75470958851134928 0 0.65605901945558964 0.65605901945558964 0 -0.75470958851134928 1 I I #
point $-1 70.01691001062693 32.097140572573885 16.702462263230981 #
straight-curve $-1 42.758197143325212 23.825067776033308 19.830897124381664 -1 0 0 I I #
coedge $-1 $663 $662 $729 $743 reversed $664 $-1 #
edge $-1 $739 -142.84859767448967 $665 -136.55816408579898 $705 $744 forward 7 unknown #
point $-1 67.297403145097874 23.825067776033308 19.83089712438165 #
coedge $-1 $729 $728 $667 $716 reversed $682 $-1 #
edge $-1 $717 -15.083446579102931 $745 19.830897124381661 $715 $746 forward 7 unknown #
vertex $-1 $716 $747 #
straight-curve $-1 12.92891826773279 40.369213369114455 82.374686071649251 0.65605901945558975 0 -0.75470958851134939 I I #
plane-surface $-1 0 40.369213369114455 0 0 -1 0 0 0 -1 forward_v I I I I #
coedge $-1 $748 $673 $671 $721 forward $723 $-1 #
edge $-1 $675 -71.424298837244791 $745 71.424298837244791 $671 $749 forward 7 unknown #
coedge $-1 $673 $748 $677 $726 forward $723 $-1 #
loop $-1 $-1 $748 $703 #
straight-curve $-1 -71.424298837244791 0 -19.830897124381661 0 1 0 I I #
point $-1 -71.424298837244791 40.369213369114455 -19.830897124381661 #
edge $-1 $731 -71.424298837244791 $678 71.424298837244791 $677 $750 forward 7 unknown #
point $-1 -71.424298837244791 -40.369213369114455 -19.830897124381661 #
coedge $-1 $715 $680 $748 $751 reversed $682 $-1 #
coedge $-1 $681 $715 $712 $743 forward $682 $-1 #
point $-1 71.424298837244791 23.825067776033308 19.830897124381661 #
vertex $-1 $685 $752 #
straight-curve $-1 71.424298837244791 -40.369213369114455 0 0 0 -1 I I #
plane-surface $-1 0 -40.369213369114455 0 0 1 0 0 0 1 forward_v I I I I #
straight-curve $-1 -71.424298837244791 40.369213369114455 0 0 0 -1 I I #
point $-1 -71.424298837244791 -40.369213369114455 -19.830897124381661 #
straight-curve $-1 -71.424298837244791 0 -19.830897124381661 0 1 0 I I #
point $-1 -71.424298837244791 40.369213369114455 -19.830897124381661 #
plane-surface $-1 0 0 -19.830897124381661 0 0 1 1 0 0 forward_v I I I I #
vertex $-1 $743 $753 #
straight-curve $-1 71.424298837244791 23.825067776033308 108.30488193518597 0 0 1 I I #
vertex $-1 $707 $754 #
point $-1 68.706515631551142 32.097140572573885 15.563353837257079 #
edge $-1 $717 -24.320643082827512 $739 -7.7764974897463652 $729 $755 forward 7 unknown #
straight-curve $-1 -22.292812083686897 23.825067776033308 122.89265294944029 -0.65605901945558964 0 0.75470958851134928 I I #
vertex $-1 $751 $756 #
straight-curve $-1 71.424298837244791 40.369213369114455 0 0 0 -1 I I #
point $-1 71.424298837244791 40.369213369114455 15.083446579102931 #
coedge $-1 $722 $720 $728 $751 forward $723 $-1 #
straight-curve $-1 0 40.369213369114455 -19.830897124381661 1 0 0 I I #
straight-curve $-1 0 -40.369213369114455 -19.830897124381661 -1 0 0 I I #
edge $-1 $745 -40.369213369114455 $731 40.369213369114455 $728 $757 forward 7 unknown #
point $-1 71.424298837244791 -40.369213369114455 -19.830897124381661 #
point $-1 71.424298837244791 23.825067776033308 15.08344657910294 #
point $-1 67.295747023584198 32.097140572573885 15.662004406312839 #
straight-curve $-1 71.424298837244791 16.048570286286942 15.083446579102933 0 -1 0 I I #
point $-1 71.424298837244791 40.369213369114455 -19.830897124381661 #
straight-curve $-1 71.424298837244791 0 -19.830897124381661 0 -1 0 I I #
End-of-ACIS-data 