500 0 15 0           
7 Unknown 11 ACIS 5.0 NT 24 Fri Mar 26 00:53:38 1999 
-1 9.9999999999999995e-007 1e-010 
body $-1 $15 $-1 $16 #
body $-1 $17 $-1 $18 #
body $-1 $19 $-1 $20 #
body $-1 $21 $-1 $22 #
body $-1 $23 $-1 $24 #
body $-1 $25 $-1 $26 #
body $-1 $27 $-1 $28 #
body $-1 $29 $-1 $30 #
body $-1 $31 $-1 $32 #
body $-1 $33 $-1 $34 #
body $-1 $35 $-1 $36 #
body $-1 $37 $-1 $38 #
body $-1 $39 $-1 $40 #
body $-1 $41 $-1 $42 #
body $-1 $43 $-1 $44 #
lump $-1 $-1 $45 $0 #
transform $-1 1 0 0 0 1 0 0 0 1 44.526505325479903 27.334058878522928 12.145958759641765 1 rotate no_reflect no_shear #
lump $-1 $-1 $46 $1 #
transform $-1 1 0 0 0 1 0 0 0 1 44.526505325479903 27.334058878522928 12.145958759641765 1 rotate no_reflect no_shear #
lump $-1 $-1 $47 $2 #
transform $-1 1 0 0 0 1 0 0 0 1 44.526505325479903 27.334058878522928 12.145958759641765 1 rotate no_reflect no_shear #
lump $-1 $-1 $48 $3 #
transform $-1 1 0 0 0 1 0 0 0 1 44.526505325479903 27.334058878522928 12.145958759641765 1 rotate no_reflect no_shear #
lump $-1 $-1 $49 $4 #
transform $-1 1 0 0 0 1 0 0 0 1 44.526505325479903 27.334058878522928 12.145958759641765 1 rotate no_reflect no_shear #
lump $-1 $-1 $50 $5 #
transform $-1 1 0 0 0 1 0 0 0 1 44.526505325479903 27.334058878522928 12.145958759641765 1 rotate no_reflect no_shear #
lump $-1 $-1 $51 $6 #
transform $-1 1 0 0 0 1 0 0 0 1 44.526505325479903 27.334058878522928 12.145958759641765 1 rotate no_reflect no_shear #
lump $-1 $-1 $52 $7 #
transform $-1 1 0 0 0 1 0 0 0 1 44.526505325479903 27.334058878522928 12.145958759641765 1 rotate no_reflect no_shear #
lump $-1 $-1 $53 $8 #
transform $-1 1 0 0 0 1 0 0 0 1 44.526505325479903 27.334058878522928 12.145958759641765 1 rotate no_reflect no_shear #
lump $-1 $-1 $54 $9 #
transform $-1 1 0 0 0 1 0 0 0 1 44.526505325479903 27.334058878522928 12.145958759641765 1 rotate no_reflect no_shear #
lump $-1 $-1 $55 $10 #
transform $-1 1 0 0 0 1 0 0 0 1 44.526505325479903 27.334058878522928 12.145958759641765 1 rotate no_reflect no_shear #
lump $-1 $-1 $56 $11 #
transform $-1 1 0 0 0 1 0 0 0 1 44.526505325479903 27.334058878522928 12.145958759641765 1 rotate no_reflect no_shear #
lump $-1 $-1 $57 $12 #
transform $-1 1 0 0 0 1 0 0 0 1 44.526505325479903 27.334058878522928 12.145958759641765 1 rotate no_reflect no_shear #
lump $-1 $-1 $58 $13 #
transform $-1 1 0 0 0 1 0 0 0 1 44.526505325479903 27.334058878522928 12.145958759641765 1 rotate no_reflect no_shear #
lump $-1 $-1 $59 $14 #
transform $-1 1 0 0 0 1 0 0 0 1 44.526505325479903 27.334058878522928 12.145958759641765 1 rotate no_reflect no_shear #
shell $-1 $-1 $-1 $60 $-1 $15 #
shell $-1 $-1 $-1 $61 $-1 $17 #
shell $-1 $-1 $-1 $62 $-1 $19 #
shell $-1 $-1 $-1 $63 $-1 $21 #
shell $-1 $-1 $-1 $64 $-1 $23 #
shell $-1 $-1 $-1 $65 $-1 $25 #
shell $-1 $-1 $-1 $66 $-1 $27 #
shell $-1 $-1 $-1 $67 $-1 $29 #
shell $-1 $-1 $-1 $68 $-1 $31 #
shell $-1 $-1 $-1 $69 $-1 $33 #
shell $-1 $-1 $-1 $70 $-1 $35 #
shell $-1 $-1 $-1 $71 $-1 $37 #
shell $-1 $-1 $-1 $72 $-1 $39 #
shell $-1 $-1 $-1 $73 $-1 $41 #
shell $-1 $-1 $-1 $74 $-1 $43 #
face $-1 $75 $76 $45 $-1 $77 forward single #
face $-1 $78 $79 $46 $-1 $80 forward single #
face $-1 $81 $82 $47 $-1 $83 forward single #
face $-1 $84 $85 $48 $-1 $86 reversed single #
face $-1 $87 $88 $49 $-1 $89 forward single #
face $-1 $90 $91 $50 $-1 $92 forward single #
face $-1 $93 $94 $51 $-1 $95 forward single #
face $-1 $96 $97 $52 $-1 $98 reversed single #
face $-1 $99 $100 $53 $-1 $101 forward single #
face $-1 $102 $103 $54 $-1 $104 forward single #
face $-1 $105 $106 $55 $-1 $107 forward single #
face $-1 $108 $109 $56 $-1 $110 reversed single #
face $-1 $111 $112 $57 $-1 $113 forward single #
face $-1 $114 $115 $58 $-1 $116 forward single #
face $-1 $117 $118 $59 $-1 $119 forward single #
face $-1 $120 $121 $45 $-1 $122 reversed single #
loop $-1 $-1 $123 $60 #
plane-surface $-1 0 0 12.145958759641765 0 0 1 1 0 0 forward_v I I I I #
face $-1 $124 $125 $46 $-1 $126 forward single #
loop $-1 $-1 $127 $61 #
plane-surface $-1 0 -27.334058878522928 0 0 1 0 0 0 1 forward_v I I I I #
face $-1 $128 $129 $47 $-1 $130 forward single #
loop $-1 $-1 $131 $62 #
plane-surface $-1 0 27.334058878522928 0 0 -1 0 0 0 -1 forward_v I I I I #
face $-1 $132 $133 $48 $-1 $134 reversed single #
loop $-1 $-1 $135 $63 #
plane-surface $-1 44.526506786704971 -8.6504488439245364 132.66316366002934 0 -1 0 -0.70710678939079041 0 -0.70710677298230451 forward_v I I I I #
face $-1 $136 $137 $49 $-1 $138 forward single #
loop $-1 $139 $140 $64 #
cone-surface $-1 41.42793993365995 -13.516933600523554 9.0473933138883957 -0.70710678939079041 0 -0.70710677298230451 0.35355338649115226 0 -0.35355339469539521 1 I I 0 1 0.5 forward I I I I #
face $-1 $141 $142 $50 $-1 $143 forward single #
loop $-1 $144 $145 $65 #
cone-surface $-1 41.42793993365995 -11.692001816798923 9.0473933138883957 -0.70710678939079041 0 -0.70710677298230451 0.35355338649115226 0 -0.35355339469539521 1 I I 0 1 0.5 forward I I I I #
face $-1 $146 $147 $51 $-1 $148 forward single #
loop $-1 $149 $150 $66 #
cone-surface $-1 41.42793993365995 -9.8670700330742918 9.0473933138883957 -0.70710678939079041 0 -0.70710677298230451 0.35355338649115226 0 -0.35355339469539521 1 I I 0 1 0.5 forward I I I I #
face $-1 $151 $152 $52 $-1 $153 reversed single #
loop $-1 $-1 $154 $67 #
plane-surface $-1 44.526506786704971 1.4992478480852487 132.66316366002934 0 -1 0 -0.70710678939079041 0 -0.70710677298230451 forward_v I I I I #
face $-1 $155 $156 $53 $-1 $157 forward single #
loop $-1 $158 $159 $68 #
cone-surface $-1 41.42793993365995 -3.367236908513771 9.0473933138883957 -0.70710678939079041 0 -0.70710677298230451 0.35355338649115226 0 -0.35355339469539521 1 I I 0 1 0.5 forward I I I I #
face $-1 $160 $161 $54 $-1 $162 forward single #
loop $-1 $163 $164 $69 #
cone-surface $-1 41.42793993365995 -1.5423051247891379 9.0473933138883957 -0.70710678939079041 0 -0.70710677298230451 0.35355338649115226 0 -0.35355339469539521 1 I I 0 1 0.5 forward I I I I #
face $-1 $165 $166 $55 $-1 $167 forward single #
loop $-1 $168 $169 $70 #
cone-surface $-1 41.42793993365995 0.2826266589354951 9.0473933138883957 -0.70710678939079041 0 -0.70710677298230451 0.35355338649115226 0 -0.35355339469539521 1 I I 0 1 0.5 forward I I I I #
face $-1 $170 $171 $56 $-1 $172 reversed single #
loop $-1 $-1 $173 $71 #
plane-surface $-1 44.526506786704971 11.648944540095036 132.66316366002934 0 -1 0 -0.70710678939079041 0 -0.70710677298230451 forward_v I I I I #
face $-1 $174 $175 $57 $-1 $176 forward single #
loop $-1 $177 $178 $72 #
cone-surface $-1 41.42793993365995 6.7824597834960123 9.0473933138883957 -0.70710678939079041 0 -0.70710677298230451 0.35355338649115226 0 -0.35355339469539521 1 I I 0 1 0.5 forward I I I I #
face $-1 $179 $180 $58 $-1 $181 forward single #
loop $-1 $182 $183 $73 #
cone-surface $-1 41.42793993365995 8.6073915672206489 9.0473933138883957 -0.70710678939079041 0 -0.70710677298230451 0.35355338649115226 0 -0.35355339469539521 1 I I 0 1 0.5 forward I I I I #
face $-1 $184 $185 $59 $-1 $186 forward single #
loop $-1 $187 $188 $74 #
cone-surface $-1 41.42793993365995 10.432323350945278 9.0473933138883957 -0.70710678939079041 0 -0.70710677298230451 0.35355338649115226 0 -0.35355339469539521 1 I I 0 1 0.5 forward I I I I #
face $-1 $189 $190 $45 $-1 $191 reversed single #
loop $-1 $-1 $192 $75 #
plane-surface $-1 0 0 -12.145958759641765 0 0 1 1 0 0 forward_v I I I I #
coedge $-1 $193 $194 $195 $196 forward $76 $-1 #
face $-1 $197 $198 $46 $-1 $199 reversed single #
loop $-1 $-1 $200 $78 #
plane-surface $-1 0 0 12.145958759641765 0 0 1 1 0 0 forward_v I I I I #
coedge $-1 $201 $202 $203 $204 forward $79 $-1 #
face $-1 $205 $206 $47 $-1 $207 reversed single #
loop $-1 $-1 $208 $81 #
plane-surface $-1 0 0 12.145958759641765 0 0 1 1 0 0 forward_v I I I I #
coedge $-1 $209 $210 $211 $212 forward $82 $-1 #
face $-1 $213 $214 $48 $-1 $215 reversed single #
loop $-1 $-1 $216 $84 #
plane-surface $-1 -18.443481660279083 -11.692001816798923 69.693176674270362 0.70710678939079041 0 0.70710677298230451 0.70710677298230451 0 -0.70710678939079041 forward_v I I I I #
coedge $-1 $217 $218 $219 $220 reversed $85 $-1 #
face $-1 $-1 $221 $49 $-1 $222 forward single #
loop $-1 $223 $224 $87 #
cone-surface $-1 40.863983047752043 -13.516933600523554 8.4834364410671697 -0.70710678939079041 0 -0.70710677298230451 0.17677669324557613 0 -0.1767766973476976 1 I I -0.70710678118654746 0.70710678118654746 0.25 forward I I I I #
loop $-1 $-1 $225 $64 #
coedge $-1 $140 $140 $226 $227 reversed $88 $-1 #
face $-1 $-1 $228 $50 $-1 $229 forward single #
loop $-1 $230 $231 $90 #
cone-surface $-1 40.863983047752043 -11.692001816798923 8.4834364410671697 -0.70710678939079041 0 -0.70710677298230451 0.17677669324557613 0 -0.1767766973476976 1 I I -0.70710678118654746 0.70710678118654746 0.25 forward I I I I #
loop $-1 $-1 $232 $65 #
coedge $-1 $145 $145 $233 $234 reversed $91 $-1 #
face $-1 $-1 $235 $51 $-1 $236 forward single #
loop $-1 $237 $238 $93 #
cone-surface $-1 40.863983047752043 -9.8670700330742918 8.4834364410671697 -0.70710678939079041 0 -0.70710677298230451 0.17677669324557613 0 -0.1767766973476976 1 I I -0.70710678118654746 0.70710678118654746 0.25 forward I I I I #
loop $-1 $-1 $239 $66 #
coedge $-1 $150 $150 $240 $241 reversed $94 $-1 #
face $-1 $242 $243 $52 $-1 $244 reversed single #
loop $-1 $-1 $245 $96 #
plane-surface $-1 -18.443481660279083 -1.5423051247891379 69.693176674270362 0.70710678939079041 0 0.70710677298230451 0.70710677298230451 0 -0.70710678939079041 forward_v I I I I #
coedge $-1 $246 $247 $248 $249 reversed $97 $-1 #
face $-1 $-1 $250 $53 $-1 $251 forward single #
loop $-1 $252 $253 $99 #
cone-surface $-1 40.863983047752043 -3.367236908513771 8.4834364410671697 -0.70710678939079041 0 -0.70710677298230451 0.17677669324557613 0 -0.1767766973476976 1 I I -0.70710678118654746 0.70710678118654746 0.25 forward I I I I #
loop $-1 $-1 $254 $68 #
coedge $-1 $159 $159 $255 $256 reversed $100 $-1 #
face $-1 $-1 $257 $54 $-1 $258 forward single #
loop $-1 $259 $260 $102 #
cone-surface $-1 40.863983047752043 -1.5423051247891379 8.4834364410671697 -0.70710678939079041 0 -0.70710677298230451 0.17677669324557613 0 -0.1767766973476976 1 I I -0.70710678118654746 0.70710678118654746 0.25 forward I I I I #
loop $-1 $-1 $261 $69 #
coedge $-1 $164 $164 $262 $263 reversed $103 $-1 #
face $-1 $-1 $264 $55 $-1 $265 forward single #
loop $-1 $266 $267 $105 #
cone-surface $-1 40.863983047752043 0.2826266589354951 8.4834364410671697 -0.70710678939079041 0 -0.70710677298230451 0.17677669324557613 0 -0.1767766973476976 1 I I -0.70710678118654746 0.70710678118654746 0.25 forward I I I I #
loop $-1 $-1 $268 $70 #
coedge $-1 $169 $169 $269 $270 reversed $106 $-1 #
face $-1 $271 $272 $56 $-1 $273 reversed single #
loop $-1 $-1 $274 $108 #
plane-surface $-1 -18.443481660279083 8.6073915672206489 69.693176674270362 0.70710678939079041 0 0.70710677298230451 0.70710677298230451 0 -0.70710678939079041 forward_v I I I I #
coedge $-1 $275 $276 $277 $278 reversed $109 $-1 #
face $-1 $-1 $279 $57 $-1 $280 forward single #
loop $-1 $281 $282 $111 #
cone-surface $-1 40.863983047752043 6.7824597834960123 8.4834364410671697 -0.70710678939079041 0 -0.70710677298230451 0.17677669324557613 0 -0.1767766973476976 1 I I -0.70710678118654746 0.70710678118654746 0.25 forward I I I I #
loop $-1 $-1 $283 $72 #
coedge $-1 $178 $178 $284 $285 reversed $112 $-1 #
face $-1 $-1 $286 $58 $-1 $287 forward single #
loop $-1 $288 $289 $114 #
cone-surface $-1 40.863983047752043 8.6073915672206489 8.4834364410671697 -0.70710678939079041 0 -0.70710677298230451 0.17677669324557613 0 -0.1767766973476976 1 I I -0.70710678118654746 0.70710678118654746 0.25 forward I I I I #
loop $-1 $-1 $290 $73 #
coedge $-1 $183 $183 $291 $292 reversed $115 $-1 #
face $-1 $-1 $293 $59 $-1 $294 forward single #
loop $-1 $295 $296 $117 #
cone-surface $-1 40.863983047752043 10.432323350945278 8.4834364410671697 -0.70710678939079041 0 -0.70710677298230451 0.17677669324557613 0 -0.1767766973476976 1 I I -0.70710678118654746 0.70710678118654746 0.25 forward I I I I #
loop $-1 $-1 $297 $74 #
coedge $-1 $188 $188 $298 $299 reversed $118 $-1 #
face $-1 $300 $301 $45 $-1 $302 reversed single #
loop $-1 $-1 $303 $120 #
plane-surface $-1 0 -27.334058878522928 0 0 1 0 0 0 1 forward_v I I I I #
coedge $-1 $304 $305 $306 $307 forward $121 $-1 #
coedge $-1 $308 $123 $309 $310 forward $76 $-1 #
coedge $-1 $123 $308 $311 $312 forward $76 $-1 #
coedge $-1 $313 $314 $123 $196 reversed $315 $-1 #
edge $-1 $316 -27.334058878522928 $317 27.334058878522928 $195 $318 forward 7 unknown #
face $-1 $319 $320 $46 $-1 $321 reversed single #
loop $-1 $-1 $322 $124 #
plane-surface $-1 -44.526505325479903 0 0 1 0 0 0 0 -1 forward_v I I I I #
coedge $-1 $323 $324 $202 $325 forward $125 $-1 #
coedge $-1 $326 $127 $327 $328 reversed $79 $-1 #
coedge $-1 $127 $326 $200 $325 reversed $79 $-1 #
coedge $-1 $329 $330 $127 $204 reversed $331 $-1 #
edge $-1 $332 -12.145958759641765 $333 12.145958759641765 $203 $334 forward 7 unknown #
face $-1 $335 $336 $47 $-1 $337 reversed single #
loop $-1 $-1 $338 $128 #
plane-surface $-1 -43.026505325479903 40.969677760388208 0 0 -1 0 0 0 -1 forward_v I I I I #
coedge $-1 $339 $340 $209 $341 forward $129 $-1 #
coedge $-1 $342 $131 $208 $341 reversed $82 $-1 #
coedge $-1 $131 $342 $343 $344 reversed $82 $-1 #
coedge $-1 $345 $346 $131 $212 reversed $336 $-1 #
edge $-1 $347 -12.145958759641765 $348 12.145958759641765 $211 $349 forward 7 unknown #
face $-1 $350 $351 $48 $-1 $352 forward single #
loop $-1 $-1 $353 $132 #
plane-surface $-1 44.526506786704971 -14.73355478967331 132.66316366002934 0 1 0 0.70710678939079041 0 0.70710677298230451 forward_v I I I I #
coedge $-1 $354 $355 $356 $357 reversed $133 $-1 #
coedge $-1 $218 $135 $358 $359 reversed $85 $-1 #
coedge $-1 $135 $217 $354 $360 reversed $85 $-1 #
coedge $-1 $356 $361 $135 $220 forward $351 $-1 #
edge $-1 $362 -22.263251932127417 $363 -16.840481525607906 $219 $364 forward 7 unknown #
loop $-1 $-1 $226 $136 #
plane-surface $-1 -18.443481660279083 -11.692001816798923 69.693176674270362 0.70710678939079041 0 0.70710677298230451 0.70710677298230451 0 -0.70710678939079041 forward_v I I I I #
loop $-1 $-1 $365 $87 #
coedge $-1 $224 $224 $225 $366 reversed $137 $-1 #
coedge $-1 $225 $225 $224 $366 forward $139 $-1 #
coedge $-1 $226 $226 $140 $227 forward $221 $-1 #
edge $-1 $367 0 $367 6.2831853071796004 $226 $368 forward 7 unknown #
loop $-1 $-1 $233 $141 #
plane-surface $-1 -18.443481660279083 -11.692001816798923 69.693176674270362 0.70710678939079041 0 0.70710677298230451 0.70710677298230451 0 -0.70710678939079041 forward_v I I I I #
loop $-1 $-1 $369 $90 #
coedge $-1 $231 $231 $232 $370 reversed $142 $-1 #
coedge $-1 $232 $232 $231 $370 forward $144 $-1 #
coedge $-1 $233 $233 $145 $234 forward $228 $-1 #
edge $-1 $371 0 $371 6.2831853071796004 $233 $372 forward 7 unknown #
loop $-1 $-1 $240 $146 #
plane-surface $-1 -18.443481660279083 -11.692001816798923 69.693176674270362 0.70710678939079041 0 0.70710677298230451 0.70710677298230451 0 -0.70710678939079041 forward_v I I I I #
loop $-1 $-1 $373 $93 #
coedge $-1 $238 $238 $239 $374 reversed $147 $-1 #
coedge $-1 $239 $239 $238 $374 forward $149 $-1 #
coedge $-1 $240 $240 $150 $241 forward $235 $-1 #
edge $-1 $375 0 $375 6.2831853071796004 $240 $376 forward 7 unknown #
face $-1 $377 $378 $52 $-1 $379 reversed single #
loop $-1 $-1 $380 $151 #
plane-surface $-1 44.526506786704971 -4.5838580976635246 132.66316366002934 0 1 0 0.70710678939079041 0 0.70710677298230451 forward_v I I I I #
coedge $-1 $381 $382 $383 $384 reversed $152 $-1 #
coedge $-1 $247 $154 $385 $386 reversed $97 $-1 #
coedge $-1 $154 $246 $381 $387 reversed $97 $-1 #
coedge $-1 $383 $388 $154 $249 forward $389 $-1 #
edge $-1 $390 -22.263251932127417 $391 -16.840481525607906 $248 $392 forward 7 unknown #
loop $-1 $-1 $255 $155 #
plane-surface $-1 -18.443481660279083 -1.5423051247891379 69.693176674270362 0.70710678939079041 0 0.70710677298230451 0.70710677298230451 0 -0.70710678939079041 forward_v I I I I #
loop $-1 $-1 $393 $99 #
coedge $-1 $253 $253 $254 $394 reversed $156 $-1 #
coedge $-1 $254 $254 $253 $394 forward $158 $-1 #
coedge $-1 $255 $255 $159 $256 forward $250 $-1 #
edge $-1 $395 0 $395 6.2831853071796004 $255 $396 forward 7 unknown #
loop $-1 $-1 $262 $160 #
plane-surface $-1 -18.443481660279083 -1.5423051247891379 69.693176674270362 0.70710678939079041 0 0.70710677298230451 0.70710677298230451 0 -0.70710678939079041 forward_v I I I I #
loop $-1 $-1 $397 $102 #
coedge $-1 $260 $260 $261 $398 reversed $161 $-1 #
coedge $-1 $261 $261 $260 $398 forward $163 $-1 #
coedge $-1 $262 $262 $164 $263 forward $257 $-1 #
edge $-1 $399 0 $399 6.2831853071796004 $262 $400 forward 7 unknown #
loop $-1 $-1 $269 $165 #
plane-surface $-1 -18.443481660279083 -1.5423051247891379 69.693176674270362 0.70710678939079041 0 0.70710677298230451 0.70710677298230451 0 -0.70710678939079041 forward_v I I I I #
loop $-1 $-1 $401 $105 #
coedge $-1 $267 $267 $268 $402 reversed $166 $-1 #
coedge $-1 $268 $268 $267 $402 forward $168 $-1 #
coedge $-1 $269 $269 $169 $270 forward $264 $-1 #
edge $-1 $403 0 $403 6.2831853071796004 $269 $404 forward 7 unknown #
face $-1 $405 $406 $56 $-1 $407 reversed single #
loop $-1 $-1 $408 $170 #
plane-surface $-1 44.526506786704971 5.5658385943462623 132.66316366002934 0 1 0 0.70710678939079041 0 0.70710677298230451 forward_v I I I I #
coedge $-1 $409 $410 $411 $412 reversed $171 $-1 #
coedge $-1 $276 $173 $413 $414 reversed $109 $-1 #
coedge $-1 $173 $275 $409 $415 reversed $109 $-1 #
coedge $-1 $411 $416 $173 $278 forward $417 $-1 #
edge $-1 $418 -22.263251932127417 $419 -16.840481525607906 $277 $420 forward 7 unknown #
loop $-1 $-1 $284 $174 #
plane-surface $-1 -18.443481660279083 8.6073915672206489 69.693176674270362 0.70710678939079041 0 0.70710677298230451 0.70710677298230451 0 -0.70710678939079041 forward_v I I I I #
loop $-1 $-1 $421 $111 #
coedge $-1 $282 $282 $283 $422 reversed $175 $-1 #
coedge $-1 $283 $283 $282 $422 forward $177 $-1 #
coedge $-1 $284 $284 $178 $285 forward $279 $-1 #
edge $-1 $423 0 $423 6.2831853071796004 $284 $424 forward 7 unknown #
loop $-1 $-1 $291 $179 #
plane-surface $-1 -18.443481660279083 8.6073915672206489 69.693176674270362 0.70710678939079041 0 0.70710677298230451 0.70710677298230451 0 -0.70710678939079041 forward_v I I I I #
loop $-1 $-1 $425 $114 #
coedge $-1 $289 $289 $290 $426 reversed $180 $-1 #
coedge $-1 $290 $290 $289 $426 forward $182 $-1 #
coedge $-1 $291 $291 $183 $292 forward $286 $-1 #
edge $-1 $427 0 $427 6.2831853071796004 $291 $428 forward 7 unknown #
loop $-1 $-1 $298 $184 #
plane-surface $-1 -18.443481660279083 8.6073915672206489 69.693176674270362 0.70710678939079041 0 0.70710677298230451 0.70710677298230451 0 -0.70710678939079041 forward_v I I I I #
loop $-1 $-1 $429 $117 #
coedge $-1 $296 $296 $297 $430 reversed $185 $-1 #
coedge $-1 $297 $297 $296 $430 forward $187 $-1 #
coedge $-1 $298 $298 $188 $299 forward $293 $-1 #
edge $-1 $431 0 $431 6.2831853071796004 $298 $432 forward 7 unknown #
face $-1 $433 $434 $45 $-1 $435 reversed single #
loop $-1 $-1 $436 $189 #
plane-surface $-1 -44.526505325479903 0 0 1 0 0 0 0 -1 forward_v I I I I #
coedge $-1 $437 $311 $438 $439 forward $190 $-1 #
coedge $-1 $440 $192 $437 $441 forward $121 $-1 #
coedge $-1 $192 $440 $442 $443 forward $121 $-1 #
coedge $-1 $314 $313 $192 $307 reversed $315 $-1 #
edge $-1 $444 -27.334058878522928 $445 27.334058878522928 $306 $446 forward 7 unknown #
coedge $-1 $194 $193 $447 $448 forward $76 $-1 #
coedge $-1 $449 $450 $193 $310 reversed $434 $-1 #
edge $-1 $317 -44.526505325479903 $451 44.526505325479903 $309 $452 forward 7 unknown #
coedge $-1 $303 $453 $194 $312 reversed $190 $-1 #
edge $-1 $454 -44.526505325479903 $316 44.526505325479903 $311 $455 forward 7 unknown #
coedge $-1 $306 $195 $453 $456 forward $315 $-1 #
coedge $-1 $195 $306 $449 $457 reversed $315 $-1 #
loop $-1 $-1 $313 $433 #
vertex $-1 $196 $458 #
vertex $-1 $196 $459 #
straight-curve $-1 44.526505325479903 0 12.145958759641765 0 1 0 I I #
face $-1 $460 $331 $46 $-1 $461 reversed single #
loop $-1 $-1 $462 $197 #
plane-surface $-1 -41.320634982619289 -37.917467677674139 0 0 1 0 0 0 1 forward_v I I I I #
coedge $-1 $463 $464 $326 $465 forward $198 $-1 #
coedge $-1 $466 $200 $464 $467 forward $125 $-1 #
coedge $-1 $200 $466 $329 $468 forward $125 $-1 #
edge $-1 $332 38.114764639758675 $469 44.526505325479903 $200 $470 forward 7 unknown #
coedge $-1 $202 $201 $322 $465 reversed $79 $-1 #
coedge $-1 $471 $472 $201 $328 forward $473 $-1 #
edge $-1 $474 -44.526505325479903 $333 -38.114764639758675 $327 $475 forward 7 unknown #
coedge $-1 $476 $203 $324 $468 reversed $331 $-1 #
coedge $-1 $203 $476 $471 $477 reversed $331 $-1 #
loop $-1 $-1 $476 $319 #
vertex $-1 $325 $478 #
vertex $-1 $477 $479 #
straight-curve $-1 -38.114764639758675 -27.334058878522928 0 0 0 -1 I I #
face $-1 $480 $481 $47 $-1 $482 reversed single #
loop $-1 $-1 $211 $205 #
plane-surface $-1 -41.526505325479903 34.151868319455573 0 -1 0 0 0 0 1 forward_v I I I I #
coedge $-1 $483 $484 $485 $486 forward $206 $-1 #
coedge $-1 $487 $208 $346 $488 forward $129 $-1 #
coedge $-1 $208 $487 $489 $490 forward $129 $-1 #
edge $-1 $491 -44.526505325479903 $348 -41.526505325479903 $208 $492 forward 7 unknown #
coedge $-1 $210 $209 $493 $494 reversed $82 $-1 #
coedge $-1 $495 $496 $210 $344 forward $481 $-1 #
edge $-1 $347 41.526505325479903 $497 44.526505325479903 $343 $498 forward 7 unknown #
coedge $-1 $485 $211 $496 $499 reversed $336 $-1 #
coedge $-1 $211 $485 $339 $488 reversed $336 $-1 #
vertex $-1 $344 $500 #
vertex $-1 $488 $501 #
straight-curve $-1 -41.526505325479903 27.334058878522928 0 0 0 1 I I #
face $-1 $-1 $502 $48 $-1 $503 reversed single #
loop $-1 $-1 $219 $213 #
plane-surface $-1 0 0 12.145958759641765 0 0 1 1 0 0 forward_v I I I I #
coedge $-1 $504 $505 $506 $507 reversed $214 $-1 #
coedge $-1 $508 $216 $218 $360 forward $133 $-1 #
coedge $-1 $216 $508 $504 $509 forward $133 $-1 #
coedge $-1 $506 $219 $216 $357 forward $351 $-1 #
edge $-1 $363 2.8044479355250749 $510 8.887553881273849 $356 $511 forward 7 unknown #
coedge $-1 $512 $513 $217 $359 forward $502 $-1 #
edge $-1 $514 -59.60839360272837 $362 -54.185623070372905 $358 $515 forward 7 unknown #
edge $-1 $363 81.384055107445036 $514 89.053010650959848 $218 $516 forward 7 unknown #
coedge $-1 $219 $506 $512 $517 forward $351 $-1 #
vertex $-1 $220 $518 #
vertex $-1 $220 $519 #
straight-curve $-1 22.263253393352485 -8.6504488439245364 12.145958759641765 -1 0 0 I I #
coedge $-1 $365 $365 $-1 $520 reversed $223 $-1 #
edge $-1 $521 0 $521 6.2831853071796004 $224 $522 forward 7 unknown #
vertex $-1 $227 $523 #
ellipse-curve $-1 41.815120122220151 -13.516933600523554 9.434573493464038 0.70710678939079041 0 0.70710677298230451 0.35355338649115226 0 -0.35355339469539521 1 I I #
coedge $-1 $369 $369 $-1 $524 reversed $230 $-1 #
edge $-1 $525 0 $525 6.2831853071796004 $231 $526 forward 7 unknown #
vertex $-1 $234 $527 #
ellipse-curve $-1 41.815120122220151 -11.692001816798923 9.434573493464038 0.70710678939079041 0 0.70710677298230451 0.35355338649115226 0 -0.35355339469539521 1 I I #
coedge $-1 $373 $373 $-1 $528 reversed $237 $-1 #
edge $-1 $529 0 $529 6.2831853071796004 $238 $530 forward 7 unknown #
vertex $-1 $241 $531 #
ellipse-curve $-1 41.815120122220151 -9.8670700330742918 9.434573493464038 0.70710678939079041 0 0.70710677298230451 0.35355338649115226 0 -0.35355339469539521 1 I I #
face $-1 $-1 $389 $52 $-1 $532 forward single #
loop $-1 $-1 $533 $242 #
plane-surface $-1 44.526505325479903 0 0 -1 0 0 0 0 1 forward_v I I I I #
coedge $-1 $534 $535 $536 $537 reversed $243 $-1 #
coedge $-1 $538 $245 $247 $387 forward $152 $-1 #
coedge $-1 $245 $538 $534 $539 forward $152 $-1 #
coedge $-1 $536 $248 $245 $384 forward $389 $-1 #
edge $-1 $391 -2.2704004104798177 $540 3.8127055352689556 $383 $541 forward 7 unknown #
coedge $-1 $542 $543 $246 $386 forward $378 $-1 #
edge $-1 $544 -59.60839360272837 $390 -54.185623070372905 $385 $545 forward 7 unknown #
edge $-1 $391 81.384055107445036 $544 89.053010650959848 $247 $546 forward 7 unknown #
coedge $-1 $248 $536 $542 $547 forward $389 $-1 #
loop $-1 $-1 $536 $377 #
vertex $-1 $386 $548 #
vertex $-1 $249 $549 #
straight-curve $-1 22.263253393352485 1.4992478480852487 12.145958759641765 -1 0 0 I I #
coedge $-1 $393 $393 $-1 $550 reversed $252 $-1 #
edge $-1 $551 0 $551 6.2831853071796004 $253 $552 forward 7 unknown #
vertex $-1 $256 $553 #
ellipse-curve $-1 41.815120122220151 -3.367236908513771 9.434573493464038 0.70710678939079041 0 0.70710677298230451 0.35355338649115226 0 -0.35355339469539521 1 I I #
coedge $-1 $397 $397 $-1 $554 reversed $259 $-1 #
edge $-1 $555 0 $555 6.2831853071796004 $260 $556 forward 7 unknown #
vertex $-1 $263 $557 #
ellipse-curve $-1 41.815120122220151 -1.5423051247891379 9.434573493464038 0.70710678939079041 0 0.70710677298230451 0.35355338649115226 0 -0.35355339469539521 1 I I #
coedge $-1 $401 $401 $-1 $558 reversed $266 $-1 #
edge $-1 $559 0 $559 6.2831853071796004 $267 $560 forward 7 unknown #
vertex $-1 $270 $561 #
ellipse-curve $-1 41.815120122220151 0.2826266589354951 9.434573493464038 0.70710678939079041 0 0.70710677298230451 0.35355338649115226 0 -0.35355339469539521 1 I I #
face $-1 $-1 $417 $56 $-1 $562 forward single #
loop $-1 $-1 $563 $271 #
plane-surface $-1 44.526505325479903 0 0 -1 0 0 0 0 1 forward_v I I I I #
coedge $-1 $564 $565 $566 $567 reversed $272 $-1 #
coedge $-1 $568 $274 $276 $415 forward $171 $-1 #
coedge $-1 $274 $568 $564 $569 forward $171 $-1 #
coedge $-1 $566 $277 $274 $412 forward $417 $-1 #
edge $-1 $419 -7.3452487564847111 $570 -1.2621428107359378 $411 $571 forward 7 unknown #
coedge $-1 $572 $573 $275 $414 forward $406 $-1 #
edge $-1 $574 -59.60839360272837 $418 -54.185623070372905 $413 $575 forward 7 unknown #
edge $-1 $419 81.384055107445036 $574 89.053010650959848 $276 $576 forward 7 unknown #
coedge $-1 $277 $566 $572 $577 forward $417 $-1 #
loop $-1 $-1 $566 $405 #
vertex $-1 $414 $578 #
vertex $-1 $278 $579 #
straight-curve $-1 22.263253393352485 11.648944540095036 12.145958759641765 -1 0 0 I I #
coedge $-1 $421 $421 $-1 $580 reversed $281 $-1 #
edge $-1 $581 0 $581 6.2831853071796004 $282 $582 forward 7 unknown #
vertex $-1 $285 $583 #
ellipse-curve $-1 41.815120122220151 6.7824597834960123 9.434573493464038 0.70710678939079041 0 0.70710677298230451 0.35355338649115226 0 -0.35355339469539521 1 I I #
coedge $-1 $425 $425 $-1 $584 reversed $288 $-1 #
edge $-1 $585 0 $585 6.2831853071796004 $289 $586 forward 7 unknown #
vertex $-1 $292 $587 #
ellipse-curve $-1 41.815120122220151 8.6073915672206489 9.434573493464038 0.70710678939079041 0 0.70710677298230451 0.35355338649115226 0 -0.35355339469539521 1 I I #
coedge $-1 $429 $429 $-1 $588 reversed $295 $-1 #
edge $-1 $589 0 $589 6.2831853071796004 $296 $590 forward 7 unknown #
vertex $-1 $299 $591 #
ellipse-curve $-1 41.815120122220151 10.432323350945278 9.434573493464038 0.70710678939079041 0 0.70710677298230451 0.35355338649115226 0 -0.35355339469539521 1 I I #
face $-1 $-1 $315 $45 $-1 $592 reversed single #
loop $-1 $-1 $449 $300 #
plane-surface $-1 0 27.334058878522928 0 0 -1 0 0 0 -1 forward_v I I I I #
coedge $-1 $593 $447 $450 $594 forward $301 $-1 #
coedge $-1 $453 $303 $304 $441 reversed $190 $-1 #
coedge $-1 $447 $593 $303 $439 reversed $301 $-1 #
edge $-1 $454 -12.145958759641765 $595 12.145958759641765 $438 $596 forward 7 unknown #
coedge $-1 $305 $304 $593 $597 forward $121 $-1 #
edge $-1 $445 -44.526505325479903 $595 44.526505325479903 $437 $598 forward 7 unknown #
coedge $-1 $450 $449 $305 $443 reversed $434 $-1 #
edge $-1 $599 -44.526505325479903 $444 44.526505325479903 $442 $600 forward 7 unknown #
vertex $-1 $307 $601 #
vertex $-1 $456 $602 #
straight-curve $-1 44.526505325479903 0 -12.145958759641765 0 -1 0 I I #
coedge $-1 $436 $438 $308 $448 reversed $301 $-1 #
edge $-1 $451 -27.334058878522928 $454 27.334058878522928 $447 $603 forward 7 unknown #
coedge $-1 $442 $309 $314 $457 forward $434 $-1 #
coedge $-1 $309 $442 $436 $594 reversed $434 $-1 #
vertex $-1 $310 $604 #
straight-curve $-1 0 27.334058878522928 12.145958759641765 -1 0 0 I I #
coedge $-1 $311 $437 $313 $456 reversed $190 $-1 #
vertex $-1 $448 $605 #
straight-curve $-1 0 -27.334058878522928 12.145958759641765 1 0 0 I I #
edge $-1 $316 -12.145958759641765 $445 12.145958759641765 $313 $606 forward 7 unknown #
edge $-1 $317 -12.145958759641765 $444 12.145958759641765 $314 $607 forward 7 unknown #
point $-1 44.526505325479903 -27.334058878522928 12.145958759641765 #
point $-1 44.526505325479903 27.334058878522928 12.145958759641765 #
face $-1 $-1 $473 $46 $-1 $608 reversed single #
plane-surface $-1 -38.114764639758675 -32.625763278098532 0 -1 0 0 0 0 1 forward_v I I I I #
coedge $-1 $609 $610 $611 $612 forward $320 $-1 #
coedge $-1 $611 $322 $472 $613 reversed $198 $-1 #
coedge $-1 $322 $611 $323 $467 reversed $198 $-1 #
edge $-1 $469 -12.145958759641765 $474 12.145958759641765 $322 $614 forward 7 unknown #
coedge $-1 $324 $323 $610 $615 forward $125 $-1 #
edge $-1 $469 27.334058878522928 $616 37.917467677674139 $464 $617 forward 7 unknown #
edge $-1 $618 -5.2917043995756075 $332 5.2917043995756075 $329 $619 forward 7 unknown #
vertex $-1 $467 $620 #
straight-curve $-1 0 -27.334058878522928 12.145958759641765 -1 0 0 I I #
coedge $-1 $621 $327 $330 $477 forward $473 $-1 #
coedge $-1 $327 $621 $463 $613 forward $473 $-1 #
loop $-1 $-1 $327 $460 #
vertex $-1 $465 $622 #
straight-curve $-1 0 -27.334058878522928 -12.145958759641765 1 0 0 I I #
coedge $-1 $330 $329 $623 $624 forward $331 $-1 #
edge $-1 $333 -5.2917043995756075 $625 5.2917043995756075 $330 $626 forward 7 unknown #
point $-1 -38.114764639758675 -27.334058878522924 12.145958759641765 #
point $-1 -38.114764639758675 -27.334058878522924 -12.145958759641765 #
face $-1 $-1 $627 $47 $-1 $628 reversed single #
loop $-1 $-1 $343 $335 #
plane-surface $-1 0 0 -12.145958759641765 0 0 1 1 0 0 forward_v I I I I #
coedge $-1 $629 $338 $630 $631 reversed $206 $-1 #
coedge $-1 $338 $629 $487 $632 reversed $206 $-1 #
coedge $-1 $346 $345 $338 $486 reversed $336 $-1 #
edge $-1 $633 -12.145958759641765 $634 12.145958759641765 $485 $635 forward 7 unknown #
coedge $-1 $340 $339 $484 $632 forward $129 $-1 #
edge $-1 $348 -6.8178094409326384 $633 6.8178094409326349 $346 $636 forward 7 unknown #
coedge $-1 $637 $493 $340 $490 reversed $627 $-1 #
edge $-1 $638 -40.969677760388208 $491 -27.334058878522928 $489 $639 forward 7 unknown #
vertex $-1 $494 $640 #
straight-curve $-1 0 27.334058878522928 12.145958759641765 1 0 0 I I #
coedge $-1 $489 $641 $342 $494 forward $627 $-1 #
edge $-1 $497 -12.145958759641765 $491 12.145958759641765 $493 $642 forward 7 unknown #
coedge $-1 $630 $343 $641 $643 forward $481 $-1 #
coedge $-1 $343 $630 $345 $499 forward $481 $-1 #
vertex $-1 $643 $644 #
straight-curve $-1 0 27.334058878522928 -12.145958759641765 -1 0 0 I I #
edge $-1 $634 -6.8178094409326349 $347 6.8178094409326384 $345 $645 forward 7 unknown #
point $-1 -41.526505325479903 27.334058878522935 -12.145958759641765 #
point $-1 -41.526505325479903 27.334058878522935 12.145958759641765 #
loop $-1 $-1 $358 $350 #
plane-surface $-1 44.526505325479903 0 0 -1 0 0 0 0 1 forward_v I I I I #
coedge $-1 $505 $353 $355 $509 reversed $214 $-1 #
coedge $-1 $353 $504 $646 $647 reversed $214 $-1 #
coedge $-1 $361 $356 $353 $507 forward $351 $-1 #
edge $-1 $510 16.840481525607906 $648 22.263251932127417 $506 $649 forward 7 unknown #
coedge $-1 $355 $354 $513 $650 reversed $133 $-1 #
edge $-1 $651 -89.053010650959848 $510 -81.384055107445036 $504 $652 forward 7 unknown #
vertex $-1 $357 $653 #
straight-curve $-1 39.103734918960413 -5.8460009083994615 12.145958759641758 0 -1 0 I I #
coedge $-1 $646 $358 $361 $517 reversed $502 $-1 #
coedge $-1 $358 $646 $508 $650 forward $502 $-1 #
vertex $-1 $359 $654 #
straight-curve $-1 44.526505325479903 -8.6504488439245364 66.33158183001467 0 0 1 I I #
straight-curve $-1 -18.443481660279083 -8.6504488439245364 69.693176674270362 0.70710677298230451 0 -0.70710678939079041 I I #
edge $-1 $648 -14.73355478967331 $362 -8.6504488439245364 $512 $655 forward 7 unknown #
point $-1 44.526505325479903 -8.6504488439245364 12.145958759641765 #
point $-1 39.103734918960392 -8.6504488439245364 12.145958759641765 #
edge $-1 $656 1 $656 0 $365 $-1 forward 7 unknown #
vertex $-1 $366 $657 #
ellipse-curve $-1 41.040759745099741 -13.516933600523554 8.6602131343127464 0.70710678939079041 0 0.70710677298230451 0.35355338649115226 0 -0.35355339469539521 1 I I #
point $-1 42.168673508711301 -13.516933600523554 9.0810200987686489 #
edge $-1 $658 1 $658 0 $369 $-1 forward 7 unknown #
vertex $-1 $370 $659 #
ellipse-curve $-1 41.040759745099741 -11.692001816798923 8.6602131343127464 0.70710678939079041 0 0.70710677298230451 0.35355338649115226 0 -0.35355339469539521 1 I I #
point $-1 42.168673508711301 -11.692001816798923 9.0810200987686489 #
edge $-1 $660 1 $660 0 $373 $-1 forward 7 unknown #
vertex $-1 $374 $661 #
ellipse-curve $-1 41.040759745099741 -9.8670700330742918 8.6602131343127464 0.70710678939079041 0 0.70710677298230451 0.35355338649115226 0 -0.35355339469539521 1 I I #
point $-1 42.168673508711301 -9.8670700330742918 9.0810200987686489 #
plane-surface $-1 0 0 12.145958759641765 0 0 1 1 0 0 forward_v I I I I #
coedge $-1 $543 $542 $535 $662 forward $378 $-1 #
coedge $-1 $535 $380 $382 $539 reversed $243 $-1 #
coedge $-1 $380 $534 $533 $662 reversed $243 $-1 #
coedge $-1 $388 $383 $380 $537 forward $389 $-1 #
edge $-1 $540 16.840481525607906 $663 22.263251932127417 $536 $664 forward 7 unknown #
coedge $-1 $382 $381 $543 $665 reversed $152 $-1 #
edge $-1 $666 -89.053010650959848 $540 -81.384055107445036 $534 $667 forward 7 unknown #
vertex $-1 $384 $668 #
straight-curve $-1 39.103734918960413 -0.77115256239456897 12.145958759641758 0 -1 0 I I #
coedge $-1 $533 $385 $388 $547 reversed $378 $-1 #
coedge $-1 $385 $533 $538 $665 forward $378 $-1 #
vertex $-1 $386 $669 #
straight-curve $-1 44.526505325479903 1.4992478480852487 66.33158183001467 0 0 1 I I #
straight-curve $-1 -18.443481660279083 1.4992478480852487 69.693176674270362 0.70710677298230451 0 -0.70710678939079041 I I #
edge $-1 $663 -4.5838580976635246 $390 1.4992478480852487 $542 $670 forward 7 unknown #
point $-1 44.526505325479903 1.4992478480852487 12.145958759641765 #
point $-1 39.103734918960392 1.4992478480852487 12.145958759641765 #
edge $-1 $671 1 $671 0 $393 $-1 forward 7 unknown #
vertex $-1 $394 $672 #
ellipse-curve $-1 41.040759745099741 -3.367236908513771 8.6602131343127464 0.70710678939079041 0 0.70710677298230451 0.35355338649115226 0 -0.35355339469539521 1 I I #
point $-1 42.168673508711301 -3.367236908513771 9.0810200987686489 #
edge $-1 $673 1 $673 0 $397 $-1 forward 7 unknown #
vertex $-1 $398 $674 #
ellipse-curve $-1 41.040759745099741 -1.5423051247891379 8.6602131343127464 0.70710678939079041 0 0.70710677298230451 0.35355338649115226 0 -0.35355339469539521 1 I I #
point $-1 42.168673508711301 -1.5423051247891379 9.0810200987686489 #
edge $-1 $675 1 $675 0 $401 $-1 forward 7 unknown #
vertex $-1 $402 $676 #
ellipse-curve $-1 41.040759745099741 0.2826266589354951 8.6602131343127464 0.70710678939079041 0 0.70710677298230451 0.35355338649115226 0 -0.35355339469539521 1 I I #
point $-1 42.168673508711301 0.2826266589354951 9.0810200987686489 #
plane-surface $-1 0 0 12.145958759641765 0 0 1 1 0 0 forward_v I I I I #
coedge $-1 $573 $572 $565 $677 forward $406 $-1 #
coedge $-1 $565 $408 $410 $569 reversed $272 $-1 #
coedge $-1 $408 $564 $563 $677 reversed $272 $-1 #
coedge $-1 $416 $411 $408 $567 forward $417 $-1 #
edge $-1 $570 16.840481525607906 $678 22.263251932127417 $566 $679 forward 7 unknown #
coedge $-1 $410 $409 $573 $680 reversed $171 $-1 #
edge $-1 $681 -89.053010650959848 $570 -81.384055107445036 $564 $682 forward 7 unknown #
vertex $-1 $412 $683 #
straight-curve $-1 39.103734918960413 4.3036957836103245 12.145958759641758 0 -1 0 I I #
coedge $-1 $563 $413 $416 $577 reversed $406 $-1 #
coedge $-1 $413 $563 $568 $680 forward $406 $-1 #
vertex $-1 $414 $684 #
straight-curve $-1 44.526505325479903 11.648944540095036 66.33158183001467 0 0 1 I I #
straight-curve $-1 -18.443481660279083 11.648944540095036 69.693176674270362 0.70710677298230451 0 -0.70710678939079041 I I #
edge $-1 $678 5.5658385943462623 $418 11.648944540095036 $572 $685 forward 7 unknown #
point $-1 44.526505325479903 11.648944540095036 12.145958759641765 #
point $-1 39.103734918960392 11.648944540095036 12.145958759641765 #
edge $-1 $686 1 $686 0 $421 $-1 forward 7 unknown #
vertex $-1 $422 $687 #
ellipse-curve $-1 41.040759745099741 6.7824597834960123 8.6602131343127464 0.70710678939079041 0 0.70710677298230451 0.35355338649115226 0 -0.35355339469539521 1 I I #
point $-1 42.168673508711301 6.7824597834960123 9.0810200987686489 #
edge $-1 $688 1 $688 0 $425 $-1 forward 7 unknown #
vertex $-1 $426 $689 #
ellipse-curve $-1 41.040759745099741 8.6073915672206489 8.6602131343127464 0.70710678939079041 0 0.70710677298230451 0.35355338649115226 0 -0.35355339469539521 1 I I #
point $-1 42.168673508711301 8.6073915672206489 9.0810200987686489 #
edge $-1 $690 1 $690 0 $429 $-1 forward 7 unknown #
vertex $-1 $430 $691 #
ellipse-curve $-1 41.040759745099741 10.432323350945278 8.6602131343127464 0.70710678939079041 0 0.70710677298230451 0.35355338649115226 0 -0.35355339469539521 1 I I #
point $-1 42.168673508711301 10.432323350945278 9.0810200987686489 #
plane-surface $-1 44.526505325479903 0 0 -1 0 0 0 0 1 forward_v I I I I #
coedge $-1 $438 $436 $440 $597 reversed $301 $-1 #
edge $-1 $451 -12.145958759641765 $599 12.145958759641765 $450 $692 forward 7 unknown #
vertex $-1 $597 $693 #
straight-curve $-1 -44.526505325479903 -27.334058878522928 0 0 0 -1 I I #
edge $-1 $595 -27.334058878522928 $599 27.334058878522928 $593 $694 forward 7 unknown #
straight-curve $-1 0 -27.334058878522928 -12.145958759641765 -1 0 0 I I #
vertex $-1 $443 $695 #
straight-curve $-1 0 27.334058878522928 -12.145958759641765 1 0 0 I I #
point $-1 44.526505325479903 27.334058878522928 -12.145958759641765 #
point $-1 44.526505325479903 -27.334058878522928 -12.145958759641765 #
straight-curve $-1 -44.526505325479903 0 12.145958759641765 0 -1 0 I I #
point $-1 -44.526505325479903 27.334058878522928 12.145958759641765 #
point $-1 -44.526505325479903 -27.334058878522928 12.145958759641765 #
straight-curve $-1 44.526505325479903 -27.334058878522928 0 0 0 -1 I I #
straight-curve $-1 44.526505325479903 27.334058878522928 0 0 0 -1 I I #
plane-surface $-1 0 0 -12.145958759641765 0 0 1 1 0 0 forward_v I I I I #
coedge $-1 $623 $462 $621 $696 reversed $320 $-1 #
coedge $-1 $462 $623 $466 $615 reversed $320 $-1 #
coedge $-1 $464 $463 $462 $612 reversed $198 $-1 #
edge $-1 $616 -12.145958759641765 $697 12.145958759641765 $611 $698 forward 7 unknown #
edge $-1 $697 -37.917467677674139 $474 -27.334058878522928 $463 $699 forward 7 unknown #
straight-curve $-1 -44.526505325479903 -27.334058878522928 0 0 0 -1 I I #
edge $-1 $616 -3.2058703428606137 $618 3.2058703428606137 $610 $700 forward 7 unknown #
vertex $-1 $467 $701 #
straight-curve $-1 -44.526505325479903 0 12.145958759641765 0 -1 0 I I #
vertex $-1 $468 $702 #
straight-curve $-1 -38.114764639758675 -32.625763278098532 12.145958759641765 0 1 0 I I #
point $-1 -44.526505325479903 -27.334058878522928 12.145958759641765 #
coedge $-1 $472 $471 $609 $696 forward $473 $-1 #
point $-1 -44.526505325479903 -27.334058878522928 -12.145958759641765 #
coedge $-1 $610 $609 $476 $624 reversed $320 $-1 #
edge $-1 $618 -12.145958759641765 $625 12.145958759641765 $476 $703 forward 7 unknown #
vertex $-1 $624 $704 #
straight-curve $-1 -38.114764639758675 -32.625763278098532 -12.145958759641765 0 -1 0 I I #
loop $-1 $-1 $493 $480 #
plane-surface $-1 -44.526505325479903 0 0 1 0 0 0 0 -1 forward_v I I I I #
coedge $-1 $484 $483 $637 $705 reversed $206 $-1 #
coedge $-1 $496 $495 $483 $631 forward $481 $-1 #
edge $-1 $706 -1.5 $634 1.5 $483 $707 forward 7 unknown #
edge $-1 $633 -1.5 $638 1.5 $484 $708 forward 7 unknown #
vertex $-1 $488 $709 #
vertex $-1 $499 $710 #
straight-curve $-1 -41.526505325479903 40.969677760388208 0 0 0 -1 I I #
straight-curve $-1 -41.526505325479903 34.151868319455573 12.145958759641765 0 1 0 I I #
coedge $-1 $641 $489 $629 $705 forward $627 $-1 #
vertex $-1 $632 $711 #
straight-curve $-1 -44.526505325479903 0 12.145958759641765 0 -1 0 I I #
point $-1 -44.526505325479903 27.334058878522928 12.145958759641765 #
coedge $-1 $493 $637 $495 $643 reversed $627 $-1 #
straight-curve $-1 -44.526505325479903 27.334058878522928 0 0 0 1 I I #
edge $-1 $497 -6.8178094409326455 $706 6.8178094409326349 $641 $712 forward 7 unknown #
point $-1 -44.526505325479903 27.334058878522928 -12.145958759641765 #
straight-curve $-1 -41.526505325479903 34.151868319455573 -12.145958759641765 0 -1 0 I I #
coedge $-1 $513 $512 $505 $647 forward $502 $-1 #
edge $-1 $648 54.185623070372905 $651 59.60839360272837 $646 $713 forward 7 unknown #
vertex $-1 $517 $714 #
straight-curve $-1 22.263253393352485 -14.73355478967331 12.145958759641765 1 0 0 I I #
edge $-1 $651 -8.887553881273849 $514 -2.8044479355250749 $513 $715 forward 7 unknown #
vertex $-1 $650 $716 #
straight-curve $-1 -18.443481660279083 -14.73355478967331 69.693176674270362 -0.70710677298230451 0 0.70710678939079041 I I #
point $-1 39.103734918960392 -14.73355478967331 12.145958759641765 #
point $-1 44.52650532547991 -8.6504488439245364 6.7231882272863004 #
straight-curve $-1 44.526505325479903 0 12.145958759641765 0 1 0 I I #
vertex $-1 $520 $717 #
point $-1 41.394313131590891 -13.516933600523554 8.3066597396173503 #
vertex $-1 $524 $718 #
point $-1 41.394313131590891 -11.692001816798923 8.3066597396173503 #
vertex $-1 $528 $719 #
point $-1 41.394313131590891 -9.8670700330742918 8.3066597396173503 #
edge $-1 $663 54.185623070372905 $666 59.60839360272837 $533 $720 forward 7 unknown #
vertex $-1 $547 $721 #
straight-curve $-1 22.263253393352485 -4.5838580976635246 12.145958759641765 1 0 0 I I #
edge $-1 $666 -3.8127055352689556 $544 2.2704004104798177 $543 $722 forward 7 unknown #
vertex $-1 $665 $723 #
straight-curve $-1 -18.443481660279083 -4.5838580976635246 69.693176674270362 -0.70710677298230451 0 0.70710678939079041 I I #
point $-1 39.103734918960392 -4.5838580976635246 12.145958759641765 #
point $-1 44.52650532547991 1.4992478480852487 6.7231882272863004 #
straight-curve $-1 44.526505325479903 0 12.145958759641765 0 1 0 I I #
vertex $-1 $550 $724 #
point $-1 41.394313131590891 -3.367236908513771 8.3066597396173503 #
vertex $-1 $554 $725 #
point $-1 41.394313131590891 -1.5423051247891379 8.3066597396173503 #
vertex $-1 $558 $726 #
point $-1 41.394313131590891 0.2826266589354951 8.3066597396173503 #
edge $-1 $678 54.185623070372905 $681 59.60839360272837 $563 $727 forward 7 unknown #
vertex $-1 $577 $728 #
straight-curve $-1 22.263253393352485 5.5658385943462623 12.145958759641765 1 0 0 I I #
edge $-1 $681 1.2621428107359378 $574 7.3452487564847111 $573 $729 forward 7 unknown #
vertex $-1 $680 $730 #
straight-curve $-1 -18.443481660279083 5.5658385943462623 69.693176674270362 -0.70710677298230451 0 0.70710678939079041 I I #
point $-1 39.103734918960392 5.5658385943462623 12.145958759641765 #
point $-1 44.52650532547991 11.648944540095036 6.7231882272863004 #
straight-curve $-1 44.526505325479903 0 12.145958759641765 0 1 0 I I #
vertex $-1 $580 $731 #
point $-1 41.394313131590891 6.7824597834960123 8.3066597396173503 #
vertex $-1 $584 $732 #
point $-1 41.394313131590891 8.6073915672206489 8.3066597396173503 #
vertex $-1 $588 $733 #
point $-1 41.394313131590891 10.432323350945278 8.3066597396173503 #
straight-curve $-1 -44.526505325479903 27.334058878522928 0 0 0 -1 I I #
point $-1 -44.526505325479903 -27.334058878522928 -12.145958759641765 #
straight-curve $-1 -44.526505325479903 0 -12.145958759641765 0 1 0 I I #
point $-1 -44.526505325479903 27.334058878522928 -12.145958759641765 #
edge $-1 $625 -3.2058703428606137 $697 3.2058703428606137 $609 $734 forward 7 unknown #
vertex $-1 $613 $735 #
straight-curve $-1 -44.526505325479903 -37.917467677674139 0 0 0 -1 I I #
straight-curve $-1 -44.526505325479903 0 -12.145958759641765 0 1 0 I I #
straight-curve $-1 -41.320634982619289 -37.917467677674139 12.145958759641765 1 0 0 I I #
point $-1 -44.526505325479903 -37.917467677674139 12.145958759641765 #
point $-1 -38.114764639758675 -37.917467677674139 12.145958759641765 #
straight-curve $-1 -38.114764639758675 -37.917467677674139 0 0 0 -1 I I #
point $-1 -38.114764639758675 -37.917467677674139 -12.145958759641765 #
edge $-1 $638 -12.145958759641765 $706 12.145958759641765 $629 $736 forward 7 unknown #
vertex $-1 $631 $737 #
straight-curve $-1 -43.026505325479903 40.969677760388208 -12.145958759641765 1 0 0 I I #
straight-curve $-1 -43.026505325479903 40.969677760388208 12.145958759641765 -1 0 0 I I #
point $-1 -41.526505325479903 40.969677760388208 12.145958759641765 #
point $-1 -41.526505325479903 40.969677760388208 -12.145958759641765 #
point $-1 -44.526505325479903 40.969677760388208 12.145958759641765 #
straight-curve $-1 -44.526505325479903 34.151868319455573 -12.145958759641765 0 1 0 I I #
straight-curve $-1 44.526505325479903 -14.73355478967331 66.33158183001467 0 0 -1 I I #
point $-1 44.526505325479903 -14.73355478967331 12.145958759641765 #
straight-curve $-1 44.526505325479903 -5.8460009083994615 6.7231882272863075 0 1 0 I I #
point $-1 44.52650532547991 -14.73355478967331 6.7231882272863004 #
point $-1 40.687206350404345 -13.516933600523554 8.3066597478215929 #
point $-1 40.687206350404345 -11.692001816798923 8.3066597478215929 #
point $-1 40.687206350404345 -9.8670700330742918 8.3066597478215929 #
straight-curve $-1 44.526505325479903 -4.5838580976635246 66.33158183001467 0 0 -1 I I #
point $-1 44.526505325479903 -4.5838580976635246 12.145958759641765 #
straight-curve $-1 44.526505325479903 -0.77115256239456897 6.7231882272863075 0 1 0 I I #
point $-1 44.52650532547991 -4.5838580976635246 6.7231882272863004 #
point $-1 40.687206350404345 -3.367236908513771 8.3066597478215929 #
point $-1 40.687206350404345 -1.5423051247891379 8.3066597478215929 #
point $-1 40.687206350404345 0.2826266589354951 8.3066597478215929 #
straight-curve $-1 44.526505325479903 5.5658385943462623 66.33158183001467 0 0 -1 I I #
point $-1 44.526505325479903 5.5658385943462623 12.145958759641765 #
straight-curve $-1 44.526505325479903 4.3036957836103245 6.7231882272863075 0 1 0 I I #
point $-1 44.52650532547991 5.5658385943462623 6.7231882272863004 #
point $-1 40.687206350404345 6.7824597834960123 8.3066597478215929 #
point $-1 40.687206350404345 8.6073915672206489 8.3066597478215929 #
point $-1 40.687206350404345 10.432323350945278 8.3066597478215929 #
straight-curve $-1 -41.320634982619289 -37.917467677674139 -12.145958759641765 -1 0 0 I I #
point $-1 -44.526505325479903 -37.917467677674139 -12.145958759641765 #
straight-curve $-1 -44.526505325479903 40.969677760388208 0 0 0 -1 I I #
point $-1 -44.526505325479903 40.969677760388208 -12.145958759641765 #
End-of-ACIS-data 