500 0 5 0           
7 Unknown 11 ACIS 5.0 NT 24 Fri Mar 26 17:17:11 1999 
-1 9.9999999999999995e-007 1e-010 
body $-1 $5 $-1 $6 #
body $-1 $7 $-1 $8 #
body $-1 $9 $-1 $10 #
body $-1 $11 $-1 $12 #
body $-1 $13 $-1 $14 #
lump $-1 $-1 $15 $0 #
transform $-1 1 0 0 0 1 0 0 0 1 49.396038697470019 32.4652287296623 11.395080282596702 1 rotate no_reflect no_shear #
lump $-1 $-1 $16 $1 #
transform $-1 1 0 0 0 1 0 0 0 1 49.396038697470019 32.4652287296623 11.395080282596702 1 rotate no_reflect no_shear #
lump $-1 $-1 $17 $2 #
transform $-1 1 0 0 0 1 0 0 0 1 49.396038697470019 32.4652287296623 11.395080282596702 1 rotate no_reflect no_shear #
lump $-1 $-1 $18 $3 #
transform $-1 1 0 0 0 1 0 0 0 1 49.396038697470019 32.4652287296623 11.395080282596702 1 rotate no_reflect no_shear #
lump $-1 $-1 $19 $4 #
transform $-1 1 0 0 0 1 0 0 0 1 49.396038697470019 32.4652287296623 11.395080282596702 1 rotate no_reflect no_shear #
shell $-1 $-1 $-1 $20 $-1 $5 #
shell $-1 $-1 $-1 $21 $-1 $7 #
shell $-1 $-1 $-1 $22 $-1 $9 #
shell $-1 $-1 $-1 $23 $-1 $11 #
shell $-1 $-1 $-1 $24 $-1 $13 #
face $-1 $25 $26 $15 $-1 $27 forward single #
face $-1 $28 $29 $16 $-1 $30 forward single #
face $-1 $31 $32 $17 $-1 $33 reversed single #
face $-1 $34 $35 $18 $-1 $36 forward single #
face $-1 $37 $38 $19 $-1 $39 forward single #
face $-1 $40 $41 $15 $-1 $42 reversed single #
loop $-1 $-1 $43 $20 #
plane-surface $-1 0 0 11.395080282596702 0 0 1 1 0 0 forward_v I I I I #
face $-1 $44 $45 $16 $-1 $46 forward single #
loop $-1 $-1 $47 $21 #
plane-surface $-1 0 -32.4652287296623 0 0 1 0 0 0 1 forward_v I I I I #
face $-1 $48 $49 $17 $-1 $50 reversed single #
loop $-1 $-1 $51 $22 #
plane-surface $-1 16.287838368446806 38.003912424724362 123.02671163689578 1 0 0 0 -0.5877852598018023 -0.80901698891910034 forward_v I I I I #
face $-1 $52 $53 $18 $-1 $54 forward single #
loop $-1 $55 $56 $23 #
cone-surface $-1 19.755331788550237 26.291315811471904 5.7855250266850078 0 -0.5877852598018023 -0.80901698891910034 1.5 0 0 1 I I 0 1 1.5 forward I I I I #
face $-1 $57 $58 $19 $-1 $59 forward single #
loop $-1 $60 $61 $24 #
cone-surface $-1 24.956571918705393 26.291315811471904 5.7855250266850078 0 -0.5877852598018023 -0.80901698891910034 1.5 0 0 1 I I 0 1 1.5 forward I I I I #
face $-1 $62 $63 $15 $-1 $64 reversed single #
loop $-1 $-1 $65 $25 #
plane-surface $-1 0 0 -11.395080282596702 0 0 1 1 0 0 forward_v I I I I #
coedge $-1 $66 $67 $68 $69 forward $26 $-1 #
face $-1 $70 $71 $16 $-1 $72 reversed single #
loop $-1 $-1 $73 $28 #
plane-surface $-1 0 0 11.395080282596702 0 0 1 1 0 0 forward_v I I I I #
coedge $-1 $74 $75 $76 $77 forward $29 $-1 #
face $-1 $78 $79 $17 $-1 $80 reversed single #
loop $-1 $-1 $81 $31 #
plane-surface $-1 22.355951853627815 -20.06461445322023 43.102242653778674 0 0.5877852598018023 0.80901698891910034 1 0 0 forward_v I I I I #
coedge $-1 $82 $83 $84 $85 reversed $32 $-1 #
face $-1 $-1 $86 $18 $-1 $87 forward single #
loop $-1 $88 $89 $34 #
cone-surface $-1 19.755331788550237 24.120903447227406 2.7982087468825014 0 -0.5877852598018023 -0.80901698891910034 0.75 0 0 1 I I -0.70710678118654757 0.70710678118654757 0.75 forward I I I I #
loop $-1 $-1 $90 $23 #
coedge $-1 $56 $56 $91 $92 reversed $35 $-1 #
face $-1 $-1 $93 $19 $-1 $94 forward single #
loop $-1 $95 $96 $37 #
cone-surface $-1 24.956571918705393 24.120903447227406 2.7982087468825014 0 -0.5877852598018023 -0.80901698891910034 0.75 0 0 1 I I -0.70710678118654757 0.70710678118654757 0.75 forward I I I I #
loop $-1 $-1 $97 $24 #
coedge $-1 $61 $61 $98 $99 reversed $38 $-1 #
face $-1 $100 $101 $15 $-1 $102 reversed single #
loop $-1 $-1 $103 $40 #
plane-surface $-1 0 -32.4652287296623 0 0 1 0 0 0 1 forward_v I I I I #
coedge $-1 $104 $105 $106 $107 forward $41 $-1 #
coedge $-1 $108 $43 $109 $110 forward $26 $-1 #
coedge $-1 $43 $108 $111 $112 forward $26 $-1 #
coedge $-1 $113 $114 $43 $69 reversed $115 $-1 #
edge $-1 $116 -32.4652287296623 $117 32.4652287296623 $68 $118 forward 7 unknown #
face $-1 $119 $120 $16 $-1 $121 reversed single #
loop $-1 $-1 $122 $44 #
plane-surface $-1 -49.396038697470019 0 0 1 0 0 0 0 -1 forward_v I I I I #
coedge $-1 $123 $124 $75 $125 forward $45 $-1 #
coedge $-1 $126 $47 $127 $128 reversed $29 $-1 #
coedge $-1 $47 $126 $73 $125 reversed $29 $-1 #
coedge $-1 $129 $130 $47 $77 reversed $131 $-1 #
edge $-1 $132 -11.395080282596702 $133 11.395080282596702 $76 $134 forward 7 unknown #
face $-1 $135 $136 $17 $-1 $137 reversed single #
loop $-1 $-1 $138 $48 #
plane-surface $-1 28.424065338808823 38.003912424724362 123.02671163689578 -1 0 0 0 0.5877852598018023 0.80901698891910034 forward_v I I I I #
coedge $-1 $139 $140 $141 $142 reversed $49 $-1 #
coedge $-1 $83 $51 $143 $144 reversed $32 $-1 #
coedge $-1 $51 $82 $139 $145 reversed $32 $-1 #
coedge $-1 $141 $146 $51 $85 forward $147 $-1 #
edge $-1 $148 -13.463272517300119 $149 -4.5745935197056298 $84 $150 forward 7 unknown #
loop $-1 $-1 $91 $52 #
plane-surface $-1 22.355951853627815 -20.06461445322023 43.102242653778674 0 0.5877852598018023 0.80901698891910034 1 0 0 forward_v I I I I #
loop $-1 $-1 $151 $34 #
coedge $-1 $89 $89 $90 $152 reversed $53 $-1 #
coedge $-1 $90 $90 $89 $152 forward $55 $-1 #
coedge $-1 $91 $91 $56 $92 forward $86 $-1 #
edge $-1 $153 -1.0479639869596157e-015 $153 6.2831853071795996 $91 $154 forward 7 unknown #
loop $-1 $-1 $98 $57 #
plane-surface $-1 22.355951853627815 -20.06461445322023 43.102242653778674 0 0.5877852598018023 0.80901698891910034 1 0 0 forward_v I I I I #
loop $-1 $-1 $155 $37 #
coedge $-1 $96 $96 $97 $156 reversed $58 $-1 #
coedge $-1 $97 $97 $96 $156 forward $60 $-1 #
coedge $-1 $98 $98 $61 $99 forward $93 $-1 #
edge $-1 $157 -1.0479639869596157e-015 $157 6.2831853071795996 $98 $158 forward 7 unknown #
face $-1 $159 $160 $15 $-1 $161 reversed single #
loop $-1 $-1 $162 $62 #
plane-surface $-1 -49.396038697470019 0 0 1 0 0 0 0 -1 forward_v I I I I #
coedge $-1 $163 $111 $164 $165 forward $63 $-1 #
coedge $-1 $166 $65 $163 $167 forward $41 $-1 #
coedge $-1 $65 $166 $168 $169 forward $41 $-1 #
coedge $-1 $114 $113 $65 $107 reversed $115 $-1 #
edge $-1 $170 -32.4652287296623 $171 32.4652287296623 $106 $172 forward 7 unknown #
coedge $-1 $67 $66 $173 $174 forward $26 $-1 #
coedge $-1 $175 $176 $66 $110 reversed $160 $-1 #
edge $-1 $117 -49.396038697470019 $177 49.396038697470019 $109 $178 forward 7 unknown #
coedge $-1 $103 $179 $67 $112 reversed $63 $-1 #
edge $-1 $180 -49.396038697470019 $116 49.396038697470019 $111 $181 forward 7 unknown #
coedge $-1 $106 $68 $179 $182 forward $115 $-1 #
coedge $-1 $68 $106 $175 $183 reversed $115 $-1 #
loop $-1 $-1 $113 $159 #
vertex $-1 $69 $184 #
vertex $-1 $69 $185 #
straight-curve $-1 49.396038697470019 0 11.395080282596702 0 1 0 I I #
face $-1 $186 $131 $16 $-1 $187 reversed single #
loop $-1 $-1 $188 $70 #
plane-surface $-1 -46.579140910151636 -40.715403176521619 0 0 1 0 0 0 1 forward_v I I I I #
coedge $-1 $189 $190 $126 $191 forward $71 $-1 #
coedge $-1 $192 $73 $190 $193 forward $45 $-1 #
coedge $-1 $73 $192 $129 $194 forward $45 $-1 #
edge $-1 $132 43.762243122833254 $195 49.396038697470019 $73 $196 forward 7 unknown #
coedge $-1 $75 $74 $122 $191 reversed $29 $-1 #
coedge $-1 $197 $198 $74 $128 forward $199 $-1 #
edge $-1 $200 -49.396038697470019 $133 -43.762243122833254 $127 $201 forward 7 unknown #
coedge $-1 $202 $76 $124 $194 reversed $131 $-1 #
coedge $-1 $76 $202 $197 $203 reversed $131 $-1 #
loop $-1 $-1 $202 $119 #
vertex $-1 $125 $204 #
vertex $-1 $203 $205 #
straight-curve $-1 -43.762243122833254 -32.4652287296623 0 0 0 -1 I I #
face $-1 $-1 $147 $17 $-1 $206 forward single #
loop $-1 $-1 $207 $78 #
plane-surface $-1 0 32.4652287296623 0 0 -1 0 0 0 -1 forward_v I I I I #
coedge $-1 $208 $209 $210 $211 reversed $79 $-1 #
coedge $-1 $212 $81 $83 $145 forward $49 $-1 #
coedge $-1 $81 $212 $208 $213 forward $49 $-1 #
coedge $-1 $210 $84 $81 $142 forward $147 $-1 #
edge $-1 $149 5.1098624416328988 $214 17.246089411994916 $141 $215 forward 7 unknown #
coedge $-1 $216 $217 $82 $144 forward $136 $-1 #
edge $-1 $218 -56.576278971448197 $148 -50.11827553585119 $143 $219 forward 7 unknown #
edge $-1 $149 53.943445914028942 $218 64.9304574593246 $83 $220 forward 7 unknown #
coedge $-1 $84 $210 $216 $221 forward $147 $-1 #
loop $-1 $-1 $210 $135 #
vertex $-1 $144 $222 #
vertex $-1 $85 $223 #
straight-curve $-1 16.287838368446806 19.001956212362181 11.395080282596702 0 -1 0 I I #
coedge $-1 $151 $151 $-1 $224 reversed $88 $-1 #
edge $-1 $225 0 $225 6.2831853071796004 $89 $226 forward 7 unknown #
vertex $-1 $92 $227 #
ellipse-curve $-1 19.755331788550237 28.020889230865055 8.1660785647981946 0 0.5877852598018023 0.80901698891910034 1.5 0 0 1 I I #
coedge $-1 $155 $155 $-1 $228 reversed $95 $-1 #
edge $-1 $229 0 $229 6.2831853071796004 $96 $230 forward 7 unknown #
vertex $-1 $99 $231 #
ellipse-curve $-1 24.956571918705393 28.020889230865055 8.1660785647981946 0 0.5877852598018023 0.80901698891910034 1.5 0 0 1 I I #
face $-1 $-1 $115 $15 $-1 $232 reversed single #
loop $-1 $-1 $175 $100 #
plane-surface $-1 0 32.4652287296623 0 0 -1 0 0 0 -1 forward_v I I I I #
coedge $-1 $233 $173 $176 $234 forward $101 $-1 #
coedge $-1 $179 $103 $104 $167 reversed $63 $-1 #
coedge $-1 $173 $233 $103 $165 reversed $101 $-1 #
edge $-1 $180 -11.395080282596702 $235 11.395080282596702 $164 $236 forward 7 unknown #
coedge $-1 $105 $104 $233 $237 forward $41 $-1 #
edge $-1 $171 -49.396038697470019 $235 49.396038697470019 $163 $238 forward 7 unknown #
coedge $-1 $176 $175 $105 $169 reversed $160 $-1 #
edge $-1 $239 -49.396038697470019 $170 49.396038697470019 $168 $240 forward 7 unknown #
vertex $-1 $107 $241 #
vertex $-1 $182 $242 #
straight-curve $-1 49.396038697470019 0 -11.395080282596702 0 -1 0 I I #
coedge $-1 $162 $164 $108 $174 reversed $101 $-1 #
edge $-1 $177 -32.4652287296623 $180 32.4652287296623 $173 $243 forward 7 unknown #
coedge $-1 $168 $109 $114 $183 forward $160 $-1 #
coedge $-1 $109 $168 $162 $234 reversed $160 $-1 #
vertex $-1 $110 $244 #
straight-curve $-1 0 32.4652287296623 11.395080282596702 -1 0 0 I I #
coedge $-1 $111 $163 $113 $182 reversed $63 $-1 #
vertex $-1 $174 $245 #
straight-curve $-1 0 -32.4652287296623 11.395080282596702 1 0 0 I I #
edge $-1 $116 -11.395080282596702 $171 11.395080282596702 $113 $246 forward 7 unknown #
edge $-1 $117 -11.395080282596702 $170 11.395080282596702 $114 $247 forward 7 unknown #
point $-1 49.396038697470019 -32.4652287296623 11.395080282596702 #
point $-1 49.396038697470019 32.4652287296623 11.395080282596702 #
face $-1 $-1 $199 $16 $-1 $248 reversed single #
plane-surface $-1 -43.762243122833254 -36.590315953091959 0 -1 0 0 0 0 1 forward_v I I I I #
coedge $-1 $249 $250 $251 $252 forward $120 $-1 #
coedge $-1 $251 $122 $198 $253 reversed $71 $-1 #
coedge $-1 $122 $251 $123 $193 reversed $71 $-1 #
edge $-1 $195 -11.395080282596702 $200 11.395080282596702 $122 $254 forward 7 unknown #
coedge $-1 $124 $123 $250 $255 forward $45 $-1 #
edge $-1 $195 32.4652287296623 $256 40.715403176521619 $190 $257 forward 7 unknown #
edge $-1 $258 -4.1250872234296594 $132 4.1250872234296594 $129 $259 forward 7 unknown #
vertex $-1 $193 $260 #
straight-curve $-1 0 -32.4652287296623 11.395080282596702 -1 0 0 I I #
coedge $-1 $261 $127 $130 $203 forward $199 $-1 #
coedge $-1 $127 $261 $189 $253 forward $199 $-1 #
loop $-1 $-1 $127 $186 #
vertex $-1 $191 $262 #
straight-curve $-1 0 -32.4652287296623 -11.395080282596702 1 0 0 I I #
coedge $-1 $130 $129 $263 $264 forward $131 $-1 #
edge $-1 $133 -4.1250872234296594 $265 4.1250872234296594 $130 $266 forward 7 unknown #
point $-1 -43.762243122833254 -32.4652287296623 11.395080282596702 #
point $-1 -43.762243122833254 -32.4652287296623 -11.395080282596702 #
plane-surface $-1 0 0 11.395080282596702 0 0 1 1 0 0 forward_v I I I I #
coedge $-1 $217 $216 $209 $267 forward $136 $-1 #
coedge $-1 $209 $138 $140 $213 reversed $79 $-1 #
coedge $-1 $138 $208 $207 $267 reversed $79 $-1 #
coedge $-1 $146 $141 $138 $211 forward $147 $-1 #
edge $-1 $214 4.5745935197056298 $268 13.463272517300119 $210 $269 forward 7 unknown #
coedge $-1 $140 $139 $217 $270 reversed $49 $-1 #
edge $-1 $271 -64.9304574593246 $214 -53.943445914028942 $208 $272 forward 7 unknown #
vertex $-1 $142 $273 #
straight-curve $-1 11.177975926813907 23.576549732067811 11.395080282596702 1 0 0 I I #
coedge $-1 $207 $143 $146 $221 reversed $136 $-1 #
coedge $-1 $143 $207 $212 $270 forward $136 $-1 #
vertex $-1 $144 $274 #
straight-curve $-1 16.287838368446806 32.4652287296623 61.513355818447891 0 0 1 I I #
straight-curve $-1 16.287838368446806 -20.06461445322023 43.102242653778674 0 0.80901698891910034 -0.5877852598018023 I I #
edge $-1 $268 -28.424065338808823 $148 -16.287838368446806 $216 $275 forward 7 unknown #
point $-1 16.287838368446806 32.4652287296623 11.395080282596702 #
point $-1 16.287838368446806 23.576549732067811 11.395080282596702 #
edge $-1 $276 1 $276 0 $151 $-1 forward 7 unknown #
vertex $-1 $152 $277 #
ellipse-curve $-1 19.755331788550237 24.561742392078756 3.4049714885718267 0 0.5877852598018023 0.80901698891910034 1.5 0 0 1 I I #
point $-1 21.255331788550237 28.020889230865048 8.1660785647981875 #
edge $-1 $278 1 $278 0 $155 $-1 forward 7 unknown #
vertex $-1 $156 $279 #
ellipse-curve $-1 24.956571918705393 24.561742392078756 3.4049714885718267 0 0.5877852598018023 0.80901698891910034 1.5 0 0 1 I I #
point $-1 26.456571918705393 28.020889230865048 8.1660785647981875 #
plane-surface $-1 49.396038697470019 0 0 -1 0 0 0 0 1 forward_v I I I I #
coedge $-1 $164 $162 $166 $237 reversed $101 $-1 #
edge $-1 $177 -11.395080282596702 $239 11.395080282596702 $176 $280 forward 7 unknown #
vertex $-1 $237 $281 #
straight-curve $-1 -49.396038697470019 -32.4652287296623 0 0 0 -1 I I #
edge $-1 $235 -32.4652287296623 $239 32.4652287296623 $233 $282 forward 7 unknown #
straight-curve $-1 0 -32.4652287296623 -11.395080282596702 -1 0 0 I I #
vertex $-1 $169 $283 #
straight-curve $-1 0 32.4652287296623 -11.395080282596702 1 0 0 I I #
point $-1 49.396038697470019 32.4652287296623 -11.395080282596702 #
point $-1 49.396038697470019 -32.4652287296623 -11.395080282596702 #
straight-curve $-1 -49.396038697470019 0 11.395080282596702 0 -1 0 I I #
point $-1 -49.396038697470019 32.4652287296623 11.395080282596702 #
point $-1 -49.396038697470019 -32.4652287296623 11.395080282596702 #
straight-curve $-1 49.396038697470019 -32.4652287296623 0 0 0 -1 I I #
straight-curve $-1 49.396038697470019 32.4652287296623 0 0 0 -1 I I #
plane-surface $-1 0 0 -11.395080282596702 0 0 1 1 0 0 forward_v I I I I #
coedge $-1 $263 $188 $261 $284 reversed $120 $-1 #
coedge $-1 $188 $263 $192 $255 reversed $120 $-1 #
coedge $-1 $190 $189 $188 $252 reversed $71 $-1 #
edge $-1 $256 -11.395080282596702 $285 11.395080282596702 $251 $286 forward 7 unknown #
edge $-1 $285 -40.715403176521619 $200 -32.4652287296623 $189 $287 forward 7 unknown #
straight-curve $-1 -49.396038697470019 -32.4652287296623 0 0 0 -1 I I #
edge $-1 $256 -2.816897787318382 $258 2.816897787318382 $250 $288 forward 7 unknown #
vertex $-1 $193 $289 #
straight-curve $-1 -49.396038697470019 0 11.395080282596702 0 -1 0 I I #
vertex $-1 $194 $290 #
straight-curve $-1 -43.762243122833254 -36.590315953091959 11.395080282596702 0 1 0 I I #
point $-1 -49.396038697470019 -32.4652287296623 11.395080282596702 #
coedge $-1 $198 $197 $249 $284 forward $199 $-1 #
point $-1 -49.396038697470019 -32.4652287296623 -11.395080282596702 #
coedge $-1 $250 $249 $202 $264 reversed $120 $-1 #
edge $-1 $258 -11.395080282596702 $265 11.395080282596702 $202 $291 forward 7 unknown #
vertex $-1 $264 $292 #
straight-curve $-1 -43.762243122833254 -36.590315953091959 -11.395080282596702 0 -1 0 I I #
edge $-1 $268 50.11827553585119 $271 56.576278971448197 $207 $293 forward 7 unknown #
vertex $-1 $221 $294 #
straight-curve $-1 28.424065338808823 19.001956212362181 11.395080282596702 0 1 0 I I #
edge $-1 $271 -17.246089411994916 $218 -5.1098624416328988 $217 $295 forward 7 unknown #
vertex $-1 $270 $296 #
straight-curve $-1 28.424065338808823 -20.06461445322023 43.102242653778674 0 -0.80901698891910034 0.5877852598018023 I I #
point $-1 28.424065338808823 23.576549732067811 11.395080282596702 #
point $-1 16.287838368446806 32.465228729662293 4.9370768469996946 #
straight-curve $-1 0 32.4652287296623 11.395080282596702 -1 0 0 I I #
vertex $-1 $224 $297 #
point $-1 21.255331788550237 24.561742392078756 3.4049714885718267 #
vertex $-1 $228 $298 #
point $-1 26.456571918705393 24.561742392078756 3.4049714885718267 #
straight-curve $-1 -49.396038697470019 32.4652287296623 0 0 0 -1 I I #
point $-1 -49.396038697470019 -32.4652287296623 -11.395080282596702 #
straight-curve $-1 -49.396038697470019 0 -11.395080282596702 0 1 0 I I #
point $-1 -49.396038697470019 32.4652287296623 -11.395080282596702 #
edge $-1 $265 -2.816897787318382 $285 2.816897787318382 $249 $299 forward 7 unknown #
vertex $-1 $253 $300 #
straight-curve $-1 -49.396038697470019 -40.715403176521619 0 0 0 -1 I I #
straight-curve $-1 -49.396038697470019 0 -11.395080282596702 0 1 0 I I #
straight-curve $-1 -46.579140910151636 -40.715403176521619 11.395080282596702 1 0 0 I I #
point $-1 -49.396038697470019 -40.715403176521619 11.395080282596702 #
point $-1 -43.762243122833254 -40.715403176521619 11.395080282596702 #
straight-curve $-1 -43.762243122833254 -40.715403176521619 0 0 0 -1 I I #
point $-1 -43.762243122833254 -40.715403176521619 -11.395080282596702 #
straight-curve $-1 28.424065338808823 32.4652287296623 61.513355818447891 0 0 -1 I I #
point $-1 28.424065338808823 32.4652287296623 11.395080282596702 #
straight-curve $-1 11.177975926813907 32.4652287296623 4.937076846999684 -1 0 0 I I #
point $-1 28.424065338808823 32.465228729662293 4.9370768469996946 #
point $-1 19.755331788550237 23.680064502376055 2.1914460051931761 #
point $-1 24.956571918705393 23.680064502376055 2.1914460051931761 #
straight-curve $-1 -46.579140910151636 -40.715403176521619 -11.395080282596702 -1 0 0 I I #
point $-1 -49.396038697470019 -40.715403176521619 -11.395080282596702 #
End-of-ACIS-data 