500 0 8 0           
7 Unknown 11 ACIS 5.0 NT 24 Thu Mar 25 17:08:55 1999 
-1 9.9999999999999995e-007 1e-010 
body $-1 $8 $-1 $9 #
body $-1 $10 $-1 $11 #
body $-1 $12 $-1 $13 #
body $-1 $14 $-1 $15 #
body $-1 $16 $-1 $17 #
body $-1 $18 $-1 $19 #
body $-1 $20 $-1 $21 #
body $-1 $22 $-1 $23 #
lump $-1 $-1 $24 $0 #
transform $-1 1 0 0 0 1 0 0 0 1 66.43147068697165 27.910665323447411 9.3776326104138192 1 rotate no_reflect no_shear #
lump $-1 $-1 $25 $1 #
transform $-1 1 0 0 0 1 0 0 0 1 66.43147068697165 27.910665323447411 9.3776326104138192 1 rotate no_reflect no_shear #
lump $-1 $-1 $26 $2 #
transform $-1 1 0 0 0 1 0 0 0 1 66.43147068697165 27.910665323447411 9.3776326104138192 1 rotate no_reflect no_shear #
lump $-1 $-1 $27 $3 #
transform $-1 1 0 0 0 1 0 0 0 1 66.43147068697165 27.910665323447411 9.3776326104138192 1 rotate no_reflect no_shear #
lump $-1 $-1 $28 $4 #
transform $-1 1 0 0 0 1 0 0 0 1 66.43147068697165 27.910665323447411 9.3776326104138192 1 rotate no_reflect no_shear #
lump $-1 $-1 $29 $5 #
transform $-1 1 0 0 0 1 0 0 0 1 66.43147068697165 27.910665323447411 9.3776326104138192 1 rotate no_reflect no_shear #
lump $-1 $-1 $30 $6 #
transform $-1 1 0 0 0 1 0 0 0 1 66.43147068697165 27.910665323447411 9.3776326104138192 1 rotate no_reflect no_shear #
lump $-1 $-1 $31 $7 #
transform $-1 1 0 0 0 1 0 0 0 1 66.43147068697165 27.910665323447411 9.3776326104138192 1 rotate no_reflect no_shear #
shell $-1 $-1 $-1 $32 $-1 $8 #
shell $-1 $-1 $-1 $33 $-1 $10 #
shell $-1 $-1 $-1 $34 $-1 $12 #
shell $-1 $-1 $-1 $35 $-1 $14 #
shell $-1 $-1 $-1 $36 $-1 $16 #
shell $-1 $-1 $-1 $37 $-1 $18 #
shell $-1 $-1 $-1 $38 $-1 $20 #
shell $-1 $-1 $-1 $39 $-1 $22 #
face $-1 $40 $41 $24 $-1 $42 forward single #
face $-1 $43 $44 $25 $-1 $45 forward single #
face $-1 $46 $47 $26 $-1 $48 reversed single #
face $-1 $49 $50 $27 $-1 $51 forward single #
face $-1 $52 $53 $28 $-1 $54 forward single #
face $-1 $55 $56 $29 $-1 $57 reversed single #
face $-1 $58 $59 $30 $-1 $60 forward single #
face $-1 $61 $62 $31 $-1 $63 forward single #
face $-1 $64 $65 $24 $-1 $66 reversed single #
loop $-1 $-1 $67 $32 #
plane-surface $-1 0 0 9.3776326104138192 0 0 1 1 0 0 forward_v I I I I #
face $-1 $68 $69 $25 $-1 $70 reversed single #
loop $-1 $-1 $71 $33 #
plane-surface $-1 -62.792103824825041 0 1.8584566857547848 0 0 1 1 0 0 forward_v I I I I #
face $-1 $72 $73 $26 $-1 $74 reversed single #
loop $-1 $-1 $75 $34 #
plane-surface $-1 29.438418816028694 -116.81332691683684 101.77350408396953 1 0 0 0 0.66913061440640931 -0.74314481823134659 forward_v I I I I #
face $-1 $76 $77 $27 $-1 $78 forward single #
loop $-1 $79 $80 $35 #
cone-surface $-1 40.007862207726689 -22.069691323107261 3.6307049029536391 0 0.66913061440640931 -0.74314481823134659 2 0 0 1 I I 0 1 2 forward I I I I #
face $-1 $81 $82 $28 $-1 $83 forward single #
loop $-1 $84 $85 $36 #
cone-surface $-1 55.862027295273663 -22.069691323107261 3.6307049029536391 0 0.66913061440640931 -0.74314481823134659 2 0 0 1 I I 0 1 2 forward I I I I #
face $-1 $86 $87 $29 $-1 $88 reversed single #
loop $-1 $-1 $89 $37 #
plane-surface $-1 29.438418816028694 75.329994299818281 139.12526535670958 1 0 0 0 -0.66913061440640931 -0.74314481823134659 forward_v I I I I #
face $-1 $90 $91 $30 $-1 $92 forward single #
loop $-1 $93 $94 $38 #
cone-surface $-1 40.007862207726689 22.069691323107261 3.6307049029536409 0 -0.66913061440640931 -0.74314481823134659 2 0 0 1 I I 0 1 2 forward I I I I #
face $-1 $95 $96 $31 $-1 $97 forward single #
loop $-1 $98 $99 $39 #
cone-surface $-1 55.862027295273663 22.069691323107261 3.6307049029536409 0 -0.66913061440640931 -0.74314481823134659 2 0 0 1 I I 0 1 2 forward I I I I #
face $-1 $100 $101 $24 $-1 $102 reversed single #
loop $-1 $-1 $103 $40 #
plane-surface $-1 0 0 -9.3776326104138192 0 0 1 1 0 0 forward_v I I I I #
coedge $-1 $104 $105 $106 $107 forward $41 $-1 #
face $-1 $108 $109 $25 $-1 $110 reversed single #
loop $-1 $-1 $111 $43 #
plane-surface $-1 -62.792103824825041 0 -1.1415433142452152 0 0 1 1 0 0 forward_v I I I I #
coedge $-1 $112 $113 $114 $115 forward $44 $-1 #
face $-1 $116 $117 $26 $-1 $118 forward single #
loop $-1 $-1 $119 $46 #
plane-surface $-1 47.934944751500169 -27.910665323447418 3.0370976669483696 0 -0.66913061440640931 0.74314481823134659 1 0 0 forward_v I I I I #
coedge $-1 $120 $121 $122 $123 reversed $47 $-1 #
face $-1 $-1 $124 $27 $-1 $125 forward single #
loop $-1 $126 $127 $49 #
cone-surface $-1 40.007862207726689 -19.080525361146101 0.31089984899483802 0 0.66913061440640931 -0.74314481823134659 1 0 0 1 I I -0.70710678118654746 0.70710678118654746 1 forward I I I I #
loop $-1 $-1 $128 $35 #
coedge $-1 $80 $80 $129 $130 reversed $50 $-1 #
face $-1 $-1 $131 $28 $-1 $132 forward single #
loop $-1 $133 $134 $52 #
cone-surface $-1 55.862027295273663 -19.080525361146101 0.31089984899483802 0 0.66913061440640931 -0.74314481823134659 1 0 0 1 I I -0.70710678118654746 0.70710678118654746 1 forward I I I I #
loop $-1 $-1 $135 $36 #
coedge $-1 $85 $85 $136 $137 reversed $53 $-1 #
face $-1 $138 $139 $29 $-1 $140 reversed single #
loop $-1 $-1 $141 $55 #
plane-surface $-1 47.934944751500169 -13.572667293571143 40.388858939688419 0 0.66913061440640931 0.74314481823134659 1 0 0 forward_v I I I I #
coedge $-1 $142 $143 $144 $145 reversed $56 $-1 #
face $-1 $-1 $146 $30 $-1 $147 forward single #
loop $-1 $148 $149 $58 #
cone-surface $-1 40.007862207726689 19.080525361146101 0.3108998489948398 0 -0.66913061440640931 -0.74314481823134659 1 0 0 1 I I -0.70710678118654746 0.70710678118654746 1 forward I I I I #
loop $-1 $-1 $150 $38 #
coedge $-1 $94 $94 $151 $152 reversed $59 $-1 #
face $-1 $-1 $153 $31 $-1 $154 forward single #
loop $-1 $155 $156 $61 #
cone-surface $-1 55.862027295273663 19.080525361146101 0.3108998489948398 0 -0.66913061440640931 -0.74314481823134659 1 0 0 1 I I -0.70710678118654746 0.70710678118654746 1 forward I I I I #
loop $-1 $-1 $157 $39 #
coedge $-1 $99 $99 $158 $159 reversed $62 $-1 #
face $-1 $160 $161 $24 $-1 $162 reversed single #
loop $-1 $-1 $163 $64 #
plane-surface $-1 0 -27.910665323447411 0 0 1 0 0 0 1 forward_v I I I I #
coedge $-1 $164 $165 $166 $167 forward $65 $-1 #
coedge $-1 $168 $67 $169 $170 forward $41 $-1 #
coedge $-1 $67 $168 $171 $172 forward $41 $-1 #
coedge $-1 $173 $174 $67 $107 reversed $175 $-1 #
edge $-1 $176 -27.910665323447411 $177 27.910665323447411 $106 $178 forward 7 unknown #
face $-1 $179 $180 $25 $-1 $181 reversed single #
loop $-1 $-1 $182 $68 #
plane-surface $-1 -59.152736962678432 0 0.35845668575478484 -1 0 0 0 0 1 forward_v I I I I #
coedge $-1 $183 $184 $185 $186 forward $69 $-1 #
coedge $-1 $187 $71 $188 $189 reversed $44 $-1 #
coedge $-1 $71 $187 $190 $191 reversed $44 $-1 #
coedge $-1 $182 $192 $71 $115 reversed $109 $-1 #
edge $-1 $193 -27.910665323447411 $194 27.910665323447411 $114 $195 forward 7 unknown #
face $-1 $196 $197 $26 $-1 $198 reversed single #
loop $-1 $-1 $199 $72 #
plane-surface $-1 0 0 9.3776326104138192 0 0 1 1 0 0 forward_v I I I I #
coedge $-1 $200 $201 $202 $203 reversed $73 $-1 #
coedge $-1 $121 $75 $204 $205 reversed $47 $-1 #
coedge $-1 $75 $120 $200 $206 reversed $47 $-1 #
coedge $-1 $202 $207 $75 $123 forward $197 $-1 #
edge $-1 $208 41.509119431570944 $209 47.849654375036387 $122 $210 forward 7 unknown #
loop $-1 $-1 $129 $76 #
plane-surface $-1 47.934944751500169 -27.910665323447418 3.0370976669483696 0 -0.66913061440640931 0.74314481823134659 1 0 0 forward_v I I I I #
loop $-1 $-1 $211 $49 #
coedge $-1 $127 $127 $128 $212 reversed $77 $-1 #
coedge $-1 $128 $128 $127 $212 forward $79 $-1 #
coedge $-1 $129 $129 $80 $130 forward $124 $-1 #
edge $-1 $213 -4.6283173449926694e-016 $213 6.2831853071795996 $129 $214 forward 7 unknown #
loop $-1 $-1 $136 $81 #
plane-surface $-1 47.934944751500169 -27.910665323447418 3.0370976669483696 0 -0.66913061440640931 0.74314481823134659 1 0 0 forward_v I I I I #
loop $-1 $-1 $215 $52 #
coedge $-1 $134 $134 $135 $216 reversed $82 $-1 #
coedge $-1 $135 $135 $134 $216 forward $84 $-1 #
coedge $-1 $136 $136 $85 $137 forward $131 $-1 #
edge $-1 $217 -4.6283173449926694e-016 $217 6.2831853071795996 $136 $218 forward 7 unknown #
face $-1 $219 $220 $29 $-1 $221 forward single #
loop $-1 $-1 $222 $86 #
plane-surface $-1 66.43147068697165 0 0 -1 0 0 0 0 1 forward_v I I I I #
coedge $-1 $223 $224 $225 $226 reversed $87 $-1 #
coedge $-1 $143 $89 $227 $228 reversed $56 $-1 #
coedge $-1 $89 $142 $223 $229 reversed $56 $-1 #
coedge $-1 $225 $230 $89 $145 forward $220 $-1 #
edge $-1 $231 9.7543318264617298 $232 16.796209132032537 $144 $233 forward 7 unknown #
loop $-1 $-1 $151 $90 #
plane-surface $-1 47.934944751500169 -13.572667293571143 40.388858939688419 0 0.66913061440640931 0.74314481823134659 1 0 0 forward_v I I I I #
loop $-1 $-1 $234 $58 #
coedge $-1 $149 $149 $150 $235 reversed $91 $-1 #
coedge $-1 $150 $150 $149 $235 forward $93 $-1 #
coedge $-1 $151 $151 $94 $152 forward $146 $-1 #
edge $-1 $236 2.629512743543829e-016 $236 6.2831853071796004 $151 $237 forward 7 unknown #
loop $-1 $-1 $158 $95 #
plane-surface $-1 47.934944751500169 -13.572667293571143 40.388858939688419 0 0.66913061440640931 0.74314481823134659 1 0 0 forward_v I I I I #
loop $-1 $-1 $238 $61 #
coedge $-1 $156 $156 $157 $239 reversed $96 $-1 #
coedge $-1 $157 $157 $156 $239 forward $98 $-1 #
coedge $-1 $158 $158 $99 $159 forward $153 $-1 #
edge $-1 $240 2.629512743543829e-016 $240 6.2831853071796004 $158 $241 forward 7 unknown #
face $-1 $242 $243 $24 $-1 $244 reversed single #
loop $-1 $-1 $245 $100 #
plane-surface $-1 -66.43147068697165 0 0 1 0 0 0 0 -1 forward_v I I I I #
coedge $-1 $246 $171 $247 $248 forward $101 $-1 #
coedge $-1 $249 $103 $246 $250 forward $65 $-1 #
coedge $-1 $103 $249 $251 $252 forward $65 $-1 #
coedge $-1 $174 $173 $103 $167 reversed $175 $-1 #
edge $-1 $253 -27.910665323447411 $254 27.910665323447411 $166 $255 forward 7 unknown #
coedge $-1 $105 $104 $256 $257 forward $41 $-1 #
coedge $-1 $258 $259 $104 $170 reversed $243 $-1 #
edge $-1 $177 -66.43147068697165 $260 66.43147068697165 $169 $261 forward 7 unknown #
coedge $-1 $163 $262 $105 $172 reversed $101 $-1 #
edge $-1 $263 -66.43147068697165 $176 66.43147068697165 $171 $264 forward 7 unknown #
coedge $-1 $166 $106 $262 $265 forward $175 $-1 #
coedge $-1 $106 $166 $258 $266 reversed $175 $-1 #
loop $-1 $-1 $173 $242 #
vertex $-1 $107 $267 #
vertex $-1 $107 $268 #
straight-curve $-1 66.43147068697165 0 9.3776326104138192 0 1 0 I I #
face $-1 $269 $270 $25 $-1 $271 reversed single #
loop $-1 $-1 $272 $108 #
plane-surface $-1 0 -27.910665323447411 0 0 1 0 0 0 1 forward_v I I I I #
coedge $-1 $185 $114 $273 $274 reversed $109 $-1 #
coedge $-1 $275 $111 $272 $276 reversed $69 $-1 #
coedge $-1 $111 $275 $277 $278 reversed $69 $-1 #
coedge $-1 $192 $182 $111 $186 reversed $109 $-1 #
edge $-1 $279 -27.910665323447411 $280 27.910665323447411 $185 $281 forward 7 unknown #
coedge $-1 $113 $112 $282 $283 reversed $44 $-1 #
coedge $-1 $284 $285 $112 $189 forward $286 $-1 #
edge $-1 $287 -35.035418774559133 $194 -27.756685050265911 $188 $288 forward 7 unknown #
coedge $-1 $289 $273 $113 $191 forward $180 $-1 #
edge $-1 $193 27.756685050265911 $290 35.035418774559133 $190 $291 forward 7 unknown #
coedge $-1 $114 $185 $284 $292 reversed $109 $-1 #
vertex $-1 $191 $293 #
vertex $-1 $189 $294 #
straight-curve $-1 -59.152736962678432 0 1.8584566857547848 0 1 0 I I #
face $-1 $-1 $295 $26 $-1 $296 reversed single #
loop $-1 $-1 $122 $116 #
plane-surface $-1 0 -27.910665323447411 0 0 1 0 0 0 1 forward_v I I I I #
coedge $-1 $204 $297 $298 $299 forward $117 $-1 #
coedge $-1 $298 $119 $121 $206 forward $73 $-1 #
coedge $-1 $119 $298 $300 $301 reversed $73 $-1 #
coedge $-1 $302 $122 $119 $203 forward $197 $-1 #
edge $-1 $209 5.4709464402786097 $303 42.463998311221552 $202 $304 forward 7 unknown #
coedge $-1 $305 $199 $120 $205 forward $117 $-1 #
edge $-1 $306 -37.537875440541796 $208 -30.495998134971011 $204 $307 forward 7 unknown #
edge $-1 $209 9.4405131238556439e-015 $306 9.4757806726421947 $121 $308 forward 7 unknown #
coedge $-1 $122 $302 $305 $309 reversed $197 $-1 #
vertex $-1 $309 $310 #
vertex $-1 $123 $311 #
straight-curve $-1 29.438418816028694 -27.910665323447411 50.886752041984764 0 0 -1 I I #
coedge $-1 $211 $211 $-1 $312 reversed $126 $-1 #
edge $-1 $313 0 $313 6.2831853071796004 $127 $314 forward 7 unknown #
vertex $-1 $130 $315 #
ellipse-curve $-1 40.007862207726689 -24.389726670662018 6.2073651386810997 0 -0.66913061440640931 0.74314481823134659 2 0 0 1 I I #
coedge $-1 $215 $215 $-1 $316 reversed $133 $-1 #
edge $-1 $317 0 $317 6.2831853071796004 $134 $318 forward 7 unknown #
vertex $-1 $137 $319 #
ellipse-curve $-1 55.862027295273663 -24.389726670662018 6.2073651386810997 0 -0.66913061440640931 0.74314481823134659 2 0 0 1 I I #
face $-1 $-1 $320 $29 $-1 $321 reversed single #
loop $-1 $-1 $225 $138 #
plane-surface $-1 0 0 9.3776326104138192 0 0 1 1 0 0 forward_v I I I I #
coedge $-1 $322 $323 $224 $324 forward $139 $-1 #
coedge $-1 $325 $141 $143 $229 forward $87 $-1 #
coedge $-1 $141 $325 $222 $324 reversed $87 $-1 #
coedge $-1 $326 $144 $141 $226 forward $220 $-1 #
edge $-1 $232 5.4709464402786097 $327 42.463998311221552 $225 $328 forward 7 unknown #
coedge $-1 $329 $330 $142 $228 forward $320 $-1 #
edge $-1 $331 -66.525535011406433 $231 -60.185000067940969 $227 $332 forward 7 unknown #
edge $-1 $232 46.345549974252613 $331 55.821330646894829 $143 $333 forward 7 unknown #
coedge $-1 $144 $326 $329 $334 forward $220 $-1 #
vertex $-1 $228 $335 #
vertex $-1 $145 $336 #
straight-curve $-1 29.438418816028694 37.664997149909141 9.3776326104138121 0 -1 0 I I #
coedge $-1 $234 $234 $-1 $337 reversed $148 $-1 #
edge $-1 $338 0 $338 6.2831853071796004 $149 $339 forward 7 unknown #
vertex $-1 $152 $340 #
ellipse-curve $-1 40.007862207726689 24.389726670662007 6.2073651386810891 0 0.66913061440640931 0.74314481823134659 2 0 0 1 I I #
coedge $-1 $238 $238 $-1 $341 reversed $155 $-1 #
edge $-1 $342 0 $342 6.2831853071796004 $156 $343 forward 7 unknown #
vertex $-1 $159 $344 #
ellipse-curve $-1 55.862027295273663 24.389726670662007 6.2073651386810891 0 0.66913061440640931 0.74314481823134659 2 0 0 1 I I #
face $-1 $-1 $175 $24 $-1 $345 reversed single #
loop $-1 $-1 $258 $160 #
plane-surface $-1 0 27.910665323447411 0 0 -1 0 0 0 -1 forward_v I I I I #
coedge $-1 $346 $256 $259 $347 forward $161 $-1 #
coedge $-1 $262 $163 $164 $250 reversed $101 $-1 #
coedge $-1 $256 $346 $163 $248 reversed $161 $-1 #
edge $-1 $263 -9.3776326104138192 $348 9.3776326104138192 $247 $349 forward 7 unknown #
coedge $-1 $165 $164 $346 $350 forward $65 $-1 #
edge $-1 $254 -66.43147068697165 $348 66.43147068697165 $246 $351 forward 7 unknown #
coedge $-1 $259 $258 $165 $252 reversed $243 $-1 #
edge $-1 $352 -66.43147068697165 $253 66.43147068697165 $251 $353 forward 7 unknown #
vertex $-1 $167 $354 #
vertex $-1 $265 $355 #
straight-curve $-1 66.43147068697165 0 -9.3776326104138192 0 -1 0 I I #
coedge $-1 $245 $247 $168 $257 reversed $161 $-1 #
edge $-1 $260 -27.910665323447411 $263 27.910665323447411 $256 $356 forward 7 unknown #
coedge $-1 $251 $169 $174 $266 forward $243 $-1 #
coedge $-1 $169 $251 $245 $347 reversed $243 $-1 #
vertex $-1 $170 $357 #
straight-curve $-1 0 27.910665323447411 9.3776326104138192 -1 0 0 I I #
coedge $-1 $171 $246 $173 $265 reversed $101 $-1 #
vertex $-1 $257 $358 #
straight-curve $-1 0 -27.910665323447411 9.3776326104138192 1 0 0 I I #
edge $-1 $176 -9.3776326104138192 $254 9.3776326104138192 $173 $359 forward 7 unknown #
edge $-1 $177 -9.3776326104138192 $253 9.3776326104138192 $174 $360 forward 7 unknown #
point $-1 66.43147068697165 -27.910665323447411 9.3776326104138192 #
point $-1 66.43147068697165 27.910665323447411 9.3776326104138192 #
face $-1 $-1 $286 $25 $-1 $361 reversed single #
loop $-1 $-1 $362 $179 #
plane-surface $-1 -66.43147068697165 0 0 1 0 0 0 0 -1 forward_v I I I I #
coedge $-1 $273 $289 $183 $276 forward $180 $-1 #
coedge $-1 $190 $272 $182 $274 forward $180 $-1 #
edge $-1 $280 -1.3207716571226076 $193 1.6792283428773924 $273 $363 forward 7 unknown #
coedge $-1 $184 $183 $362 $364 reversed $69 $-1 #
edge $-1 $365 -35.035418774559133 $280 -27.756685050265911 $272 $366 forward 7 unknown #
coedge $-1 $285 $284 $184 $278 forward $286 $-1 #
edge $-1 $279 27.756685050265911 $367 35.035418774559133 $277 $368 forward 7 unknown #
vertex $-1 $278 $369 #
vertex $-1 $276 $370 #
straight-curve $-1 -59.152736962678432 0 -1.1415433142452152 0 -1 0 I I #
coedge $-1 $371 $372 $187 $283 forward $270 $-1 #
edge $-1 $290 -27.910665323447411 $287 27.910665323447411 $282 $373 forward 7 unknown #
coedge $-1 $277 $188 $192 $292 forward $286 $-1 #
coedge $-1 $188 $277 $371 $374 reversed $286 $-1 #
loop $-1 $-1 $277 $269 #
vertex $-1 $374 $375 #
straight-curve $-1 -31.396051912412521 27.910665323447411 1.8584566857547848 1 0 0 I I #
coedge $-1 $272 $190 $372 $376 forward $180 $-1 #
vertex $-1 $376 $377 #
straight-curve $-1 -31.396051912412521 -27.910665323447411 1.8584566857547848 -1 0 0 I I #
edge $-1 $194 -1.6792283428773924 $279 1.3207716571226076 $284 $378 forward 7 unknown #
point $-1 -59.152736962678432 -27.910665323447411 1.8584566857547848 #
point $-1 -59.152736962678432 27.910665323447411 1.8584566857547848 #
loop $-1 $-1 $300 $196 #
plane-surface $-1 66.43147068697165 0 0 -1 0 0 0 0 1 forward_v I I I I #
coedge $-1 $199 $305 $379 $380 forward $117 $-1 #
coedge $-1 $201 $200 $199 $299 reversed $73 $-1 #
edge $-1 $381 -42.463998311221552 $306 -5.4709464402786097 $199 $382 forward 7 unknown #
coedge $-1 $379 $383 $201 $301 forward $295 $-1 #
edge $-1 $303 -9.3547256403059151 $381 0.12105503233627146 $300 $384 forward 7 unknown #
coedge $-1 $207 $202 $383 $385 reversed $197 $-1 #
vertex $-1 $203 $386 #
straight-curve $-1 23.967472375750084 -27.910665323447411 3.0370976669483758 1 0 0 I I #
coedge $-1 $297 $204 $207 $309 forward $117 $-1 #
vertex $-1 $205 $387 #
straight-curve $-1 29.438418816028694 -58.406663458418421 9.3776326104138192 0 -1 0 I I #
straight-curve $-1 29.438418816028694 -27.910665323447418 3.0370976669483696 0 0.74314481823134659 0.66913061440640931 I I #
edge $-1 $208 29.438418816028694 $388 66.43147068697165 $207 $389 forward 7 unknown #
point $-1 29.438418816028694 -27.910665323447411 9.3776326104138192 #
point $-1 29.438418816028694 -27.910665323447411 3.0370976669483758 #
edge $-1 $390 1 $390 0 $211 $-1 forward 7 unknown #
vertex $-1 $212 $391 #
ellipse-curve $-1 40.007862207726689 -19.749655975552511 1.0540446672261847 0 -0.66913061440640931 0.74314481823134659 2 0 0 1 I I #
point $-1 42.007862207726689 -24.389726670662014 6.2073651386810944 #
edge $-1 $392 1 $392 0 $215 $-1 forward 7 unknown #
vertex $-1 $216 $393 #
ellipse-curve $-1 55.862027295273663 -19.749655975552511 1.0540446672261847 0 -0.66913061440640931 0.74314481823134659 2 0 0 1 I I #
point $-1 57.862027295273663 -24.389726670662014 6.2073651386810944 #
loop $-1 $-1 $227 $219 #
plane-surface $-1 0 27.910665323447411 0 0 -1 0 0 0 -1 forward_v I I I I #
coedge $-1 $323 $222 $394 $395 reversed $139 $-1 #
coedge $-1 $222 $322 $326 $396 reversed $139 $-1 #
edge $-1 $327 27.789610291111124 $397 37.265390963753333 $222 $398 forward 7 unknown #
coedge $-1 $224 $223 $330 $399 reversed $87 $-1 #
coedge $-1 $230 $225 $323 $396 forward $220 $-1 #
vertex $-1 $396 $400 #
straight-curve $-1 23.967472375750084 20.868788017876611 9.3776326104138157 1 0 0 I I #
coedge $-1 $394 $227 $230 $334 reversed $320 $-1 #
coedge $-1 $227 $394 $325 $399 forward $320 $-1 #
vertex $-1 $228 $401 #
straight-curve $-1 29.438418816028694 27.910665323447411 69.562632678354788 0 0 1 I I #
straight-curve $-1 29.438418816028694 -13.572667293571143 40.388858939688419 0 0.74314481823134659 -0.66913061440640931 I I #
edge $-1 $402 -66.43147068697165 $231 -29.438418816028694 $329 $403 forward 7 unknown #
point $-1 29.438418816028694 27.910665323447411 9.3776326104138192 #
point $-1 29.438418816028694 20.868788017876604 9.3776326104138192 #
edge $-1 $404 1 $404 0 $234 $-1 forward 7 unknown #
vertex $-1 $235 $405 #
ellipse-curve $-1 40.007862207726689 19.749655975552511 1.0540446672261865 0 0.66913061440640931 0.74314481823134659 2 0 0 1 I I #
point $-1 42.007862207726689 24.389726670662014 6.2073651386810962 #
edge $-1 $406 1 $406 0 $238 $-1 forward 7 unknown #
vertex $-1 $239 $407 #
ellipse-curve $-1 55.862027295273663 19.749655975552511 1.0540446672261865 0 0.66913061440640931 0.74314481823134659 2 0 0 1 I I #
point $-1 57.862027295273663 24.389726670662014 6.2073651386810962 #
plane-surface $-1 66.43147068697165 0 0 -1 0 0 0 0 1 forward_v I I I I #
coedge $-1 $247 $245 $249 $350 reversed $161 $-1 #
edge $-1 $260 -9.3776326104138192 $352 9.3776326104138192 $259 $408 forward 7 unknown #
vertex $-1 $350 $409 #
straight-curve $-1 -66.43147068697165 -27.910665323447411 0 0 0 -1 I I #
edge $-1 $348 -27.910665323447411 $352 27.910665323447411 $346 $410 forward 7 unknown #
straight-curve $-1 0 -27.910665323447411 -9.3776326104138192 -1 0 0 I I #
vertex $-1 $252 $411 #
straight-curve $-1 0 27.910665323447411 -9.3776326104138192 1 0 0 I I #
point $-1 66.43147068697165 27.910665323447411 -9.3776326104138192 #
point $-1 66.43147068697165 -27.910665323447411 -9.3776326104138192 #
straight-curve $-1 -66.43147068697165 0 9.3776326104138192 0 -1 0 I I #
point $-1 -66.43147068697165 27.910665323447411 9.3776326104138192 #
point $-1 -66.43147068697165 -27.910665323447411 9.3776326104138192 #
straight-curve $-1 66.43147068697165 -27.910665323447411 0 0 0 -1 I I #
straight-curve $-1 66.43147068697165 27.910665323447411 0 0 0 -1 I I #
plane-surface $-1 0 27.910665323447411 0 0 -1 0 0 0 -1 forward_v I I I I #
coedge $-1 $372 $371 $275 $364 forward $270 $-1 #
straight-curve $-1 -59.152736962678432 -27.910665323447411 0.17922834287739242 0 0 1 I I #
edge $-1 $367 -27.910665323447411 $365 27.910665323447411 $362 $412 forward 7 unknown #
vertex $-1 $276 $413 #
straight-curve $-1 -31.396051912412521 -27.910665323447411 -1.1415433142452152 1 0 0 I I #
vertex $-1 $278 $414 #
straight-curve $-1 -31.396051912412521 27.910665323447411 -1.1415433142452152 -1 0 0 I I #
point $-1 -59.152736962678432 27.910665323447411 -1.1415433142452152 #
point $-1 -59.152736962678432 -27.910665323447411 -1.1415433142452152 #
coedge $-1 $362 $282 $285 $374 forward $270 $-1 #
coedge $-1 $282 $362 $289 $376 reversed $270 $-1 #
straight-curve $-1 -66.43147068697165 0 1.8584566857547848 0 1 0 I I #
edge $-1 $287 -1.8584566857547848 $367 1.1415433142452152 $285 $415 forward 7 unknown #
point $-1 -66.43147068697165 27.910665323447411 1.8584566857547848 #
edge $-1 $290 -1.8584566857547848 $365 1.1415433142452152 $372 $416 forward 7 unknown #
point $-1 -66.43147068697165 -27.910665323447411 1.8584566857547848 #
straight-curve $-1 -59.152736962678432 27.910665323447411 0.17922834287739242 0 0 -1 I I #
coedge $-1 $383 $300 $297 $380 reversed $295 $-1 #
edge $-1 $388 -27.910665323447411 $381 -20.868788017876625 $379 $417 forward 7 unknown #
vertex $-1 $301 $418 #
straight-curve $-1 23.967472375750084 -20.868788017876629 9.3776326104138192 -1 0 0 I I #
coedge $-1 $300 $379 $302 $385 forward $295 $-1 #
straight-curve $-1 66.43147068697165 -20.958749437878154 9.2966309822496633 0 0.74314481823134659 0.66913061440640931 I I #
edge $-1 $388 -9.3776326104138192 $303 -3.0370976669483758 $383 $419 forward 7 unknown #
point $-1 66.431470686971636 -27.910665323447411 3.0370976669483758 #
point $-1 29.438418816028694 -20.868788017876625 9.3776326104138192 #
vertex $-1 $380 $420 #
straight-curve $-1 0 -27.910665323447411 9.3776326104138192 1 0 0 I I #
vertex $-1 $312 $421 #
point $-1 42.007862207726689 -19.749655975552511 1.0540446672261847 #
vertex $-1 $316 $422 #
point $-1 57.862027295273663 -19.749655975552511 1.0540446672261847 #
coedge $-1 $330 $329 $322 $395 forward $320 $-1 #
edge $-1 $402 -9.3776326104138192 $397 -3.0370976669483554 $322 $423 forward 7 unknown #
edge $-1 $327 20.868788017876604 $402 27.910665323447411 $323 $424 forward 7 unknown #
vertex $-1 $324 $425 #
straight-curve $-1 66.43147068697165 0.21708312936887086 27.972511618619681 0 0.74314481823134659 -0.66913061440640931 I I #
edge $-1 $397 -42.463998311221552 $331 -5.4709464402786097 $330 $426 forward 7 unknown #
point $-1 66.431470686971636 20.868788017876604 9.3776326104138192 #
point $-1 29.438418816028694 27.910665323447411 3.0370976669483554 #
vertex $-1 $396 $427 #
straight-curve $-1 0 27.910665323447411 9.3776326104138192 -1 0 0 I I #
vertex $-1 $337 $428 #
point $-1 42.007862207726689 19.749655975552511 1.0540446672261865 #
vertex $-1 $341 $429 #
point $-1 57.862027295273663 19.749655975552511 1.0540446672261865 #
straight-curve $-1 -66.43147068697165 27.910665323447411 0 0 0 -1 I I #
point $-1 -66.43147068697165 -27.910665323447411 -9.3776326104138192 #
straight-curve $-1 -66.43147068697165 0 -9.3776326104138192 0 1 0 I I #
point $-1 -66.43147068697165 27.910665323447411 -9.3776326104138192 #
straight-curve $-1 -66.43147068697165 0 -1.1415433142452152 0 -1 0 I I #
point $-1 -66.43147068697165 -27.910665323447411 -1.1415433142452152 #
point $-1 -66.43147068697165 27.910665323447411 -1.1415433142452152 #
straight-curve $-1 -66.43147068697165 27.910665323447411 0 0 0 -1 I I #
straight-curve $-1 -66.43147068697165 -27.910665323447411 0 0 0 -1 I I #
straight-curve $-1 66.43147068697165 0 9.3776326104138192 0 1 0 I I #
point $-1 66.431470686971636 -20.868788017876625 9.3776326104138192 #
straight-curve $-1 66.43147068697165 -27.910665323447411 0 0 0 -1 I I #
point $-1 66.43147068697165 -27.910665323447411 9.3776326104138192 #
point $-1 40.007862207726689 -18.411394746739692 -0.43224496923650857 #
point $-1 55.862027295273663 -18.411394746739692 -0.43224496923650857 #
straight-curve $-1 66.43147068697165 27.910665323447411 0 0 0 -1 I I #
straight-curve $-1 66.43147068697165 0 9.3776326104138192 0 1 0 I I #
point $-1 66.431470686971636 27.910665323447411 3.0370976669483554 #
straight-curve $-1 23.967472375750084 27.910665323447407 3.0370976669483589 -1 0 0 I I #
point $-1 66.43147068697165 27.910665323447411 9.3776326104138192 #
point $-1 40.007862207726689 18.411394746739692 -0.43224496923650679 #
point $-1 55.862027295273663 18.411394746739692 -0.43224496923650679 #
End-of-ACIS-data 