500 0 9 0           
7 Unknown 11 ACIS 5.0 NT 24 Thu Mar 25 15:46:44 1999 
-1 9.9999999999999995e-007 1e-010 
body $-1 $9 $-1 $10 #
body $-1 $11 $-1 $12 #
body $-1 $13 $-1 $14 #
body $-1 $15 $-1 $16 #
body $-1 $17 $-1 $18 #
body $-1 $19 $-1 $20 #
body $-1 $21 $-1 $22 #
body $-1 $23 $-1 $24 #
body $-1 $25 $-1 $26 #
lump $-1 $-1 $27 $0 #
transform $-1 1 0 0 0 1 0 0 0 1 58.890957365642265 40.24613813558846 10.725097756888283 1 rotate no_reflect no_shear #
lump $-1 $-1 $28 $1 #
transform $-1 1 0 0 0 1 0 0 0 1 58.890957365642265 40.24613813558846 10.725097756888283 1 rotate no_reflect no_shear #
lump $-1 $-1 $29 $2 #
transform $-1 1 0 0 0 1 0 0 0 1 58.890957365642265 40.24613813558846 10.725097756888283 1 rotate no_reflect no_shear #
lump $-1 $-1 $30 $3 #
transform $-1 1 0 0 0 1 0 0 0 1 58.890957365642265 40.24613813558846 10.725097756888283 1 rotate no_reflect no_shear #
lump $-1 $-1 $31 $4 #
transform $-1 1 0 0 0 1 0 0 0 1 58.890957365642265 40.24613813558846 10.725097756888283 1 rotate no_reflect no_shear #
lump $-1 $-1 $32 $5 #
transform $-1 1 0 0 0 1 0 0 0 1 58.890957365642265 40.24613813558846 10.725097756888283 1 rotate no_reflect no_shear #
lump $-1 $-1 $33 $6 #
transform $-1 1 0 0 0 1 0 0 0 1 58.890957365642265 40.24613813558846 10.725097756888283 1 rotate no_reflect no_shear #
lump $-1 $-1 $34 $7 #
transform $-1 1 0 0 0 1 0 0 0 1 58.890957365642265 40.24613813558846 10.725097756888283 1 rotate no_reflect no_shear #
lump $-1 $-1 $35 $8 #
transform $-1 1 0 0 0 1 0 0 0 1 58.890957365642265 40.24613813558846 10.725097756888283 1 rotate no_reflect no_shear #
shell $-1 $-1 $-1 $36 $-1 $9 #
shell $-1 $-1 $-1 $37 $-1 $11 #
shell $-1 $-1 $-1 $38 $-1 $13 #
shell $-1 $-1 $-1 $39 $-1 $15 #
shell $-1 $-1 $-1 $40 $-1 $17 #
shell $-1 $-1 $-1 $41 $-1 $19 #
shell $-1 $-1 $-1 $42 $-1 $21 #
shell $-1 $-1 $-1 $43 $-1 $23 #
shell $-1 $-1 $-1 $44 $-1 $25 #
face $-1 $45 $46 $27 $-1 $47 forward single #
face $-1 $48 $49 $28 $-1 $50 forward single #
face $-1 $51 $52 $29 $-1 $53 reversed single #
face $-1 $54 $55 $30 $-1 $56 forward single #
face $-1 $57 $58 $31 $-1 $59 forward single #
face $-1 $60 $61 $32 $-1 $62 reversed single #
face $-1 $63 $64 $33 $-1 $65 forward single #
face $-1 $66 $67 $34 $-1 $68 forward single #
face $-1 $69 $70 $35 $-1 $71 forward single #
face $-1 $72 $73 $27 $-1 $74 reversed single #
loop $-1 $-1 $75 $36 #
plane-surface $-1 0 0 10.725097756888283 0 0 1 1 0 0 forward_v I I I I #
face $-1 $76 $77 $28 $-1 $78 reversed single #
loop $-1 $-1 $79 $37 #
plane-surface $-1 -58.890957365642265 0 0 1 0 0 0 0 -1 forward_v I I I I #
face $-1 $80 $81 $29 $-1 $82 reversed single #
loop $-1 $-1 $83 $38 #
plane-surface $-1 -4.8934712787480024 76.329594692298286 141.79985996772686 1 0 0 0 -0.75470958851134928 -0.65605901945558964 forward_v I I I I #
face $-1 $84 $85 $30 $-1 $86 forward single #
loop $-1 $87 $88 $39 #
cone-surface $-1 1.5233234864216598 36.232718038281376 6.3877611628475455 0 -0.75470958851134928 -0.65605901945558964 1 0 0 1 I I 0 1 1 forward I I I I #
face $-1 $89 $90 $31 $-1 $91 forward single #
loop $-1 $92 $93 $40 #
cone-surface $-1 11.148515634176164 36.232718038281376 6.3877611628475455 0 -0.75470958851134928 -0.65605901945558964 1 0 0 1 I I 0 1 1 forward I I I I #
face $-1 $94 $95 $32 $-1 $96 reversed single #
loop $-1 $-1 $97 $41 #
plane-surface $-1 -31.890624675718765 -139.02636439973887 66.350139514163018 -1 0 0 0 -0.83867057594974714 0.54463902268945019 forward_v I I I I #
face $-1 $98 $99 $33 $-1 $100 forward single #
loop $-1 $101 $102 $42 #
cone-surface $-1 -45.681246928032301 -35.916065250995189 5.4486496690671844 0 0.83867057594974714 -0.54463902268945019 1 0 0 1 I I 0 1 1 forward I I I I #
face $-1 $103 $104 $34 $-1 $105 forward single #
loop $-1 $106 $107 $43 #
cone-surface $-1 -40.509763583414724 -35.916065250995189 5.4486496690671844 0 0.83867057594974714 -0.54463902268945019 1 0 0 1 I I 0 1 1 forward I I I I #
face $-1 $108 $109 $35 $-1 $110 forward single #
loop $-1 $111 $112 $44 #
cone-surface $-1 -35.338280238797154 -35.916065250995189 5.4486496690671844 0 0.83867057594974714 -0.54463902268945019 1 0 0 1 I I 0 1 1 forward I I I I #
face $-1 $113 $114 $27 $-1 $115 reversed single #
loop $-1 $-1 $116 $45 #
plane-surface $-1 0 0 -10.725097756888283 0 0 1 1 0 0 forward_v I I I I #
coedge $-1 $117 $118 $119 $120 forward $46 $-1 #
face $-1 $121 $122 $28 $-1 $123 reversed single #
loop $-1 $-1 $124 $48 #
plane-surface $-1 0 0 -10.725097756888283 0 0 1 1 0 0 forward_v I I I I #
coedge $-1 $125 $126 $127 $128 forward $49 $-1 #
face $-1 $129 $130 $29 $-1 $131 reversed single #
loop $-1 $-1 $132 $51 #
plane-surface $-1 6.3359195602989189 -12.561545708628287 64.527972479518468 0 0.75470958851134928 0.65605901945558964 1 0 0 forward_v I I I I #
coedge $-1 $133 $134 $135 $136 reversed $52 $-1 #
face $-1 $-1 $137 $30 $-1 $138 forward single #
loop $-1 $139 $140 $54 #
cone-surface $-1 1.5233234864216598 34.860722939137425 5.1951040492448097 0 -0.75470958851134928 -0.65605901945558964 0.5 0 0 1 I I -0.70710678118654746 0.70710678118654746 0.5 forward I I I I #
loop $-1 $-1 $141 $39 #
coedge $-1 $88 $88 $142 $143 reversed $55 $-1 #
face $-1 $-1 $144 $31 $-1 $145 forward single #
loop $-1 $146 $147 $57 #
cone-surface $-1 11.148515634176164 34.860722939137425 5.1951040492448097 0 -0.75470958851134928 -0.65605901945558964 0.5 0 0 1 I I -0.70710678118654746 0.70710678118654746 0.5 forward I I I I #
loop $-1 $-1 $148 $40 #
coedge $-1 $93 $93 $149 $150 reversed $58 $-1 #
face $-1 $151 $152 $32 $-1 $153 reversed single #
loop $-1 $-1 $154 $60 #
plane-surface $-1 -40.509763583414724 -40.246138135588467 2.2015125844240515 0 -0.83867057594974714 0.54463902268945019 1 0 0 forward_v I I I I #
coedge $-1 $155 $156 $157 $158 reversed $61 $-1 #
face $-1 $-1 $159 $33 $-1 $160 forward single #
loop $-1 $161 $162 $63 #
cone-surface $-1 -45.681246928032301 -33.934297455510801 4.1616746561334779 0 0.83867057594974714 -0.54463902268945019 0.5 0 0 1 I I -0.70710678118654746 0.70710678118654746 0.5 forward I I I I #
loop $-1 $-1 $163 $42 #
coedge $-1 $102 $102 $164 $165 reversed $64 $-1 #
face $-1 $-1 $166 $34 $-1 $167 forward single #
loop $-1 $168 $169 $66 #
cone-surface $-1 -40.509763583414724 -33.934297455510801 4.1616746561334779 0 0.83867057594974714 -0.54463902268945019 0.5 0 0 1 I I -0.70710678118654746 0.70710678118654746 0.5 forward I I I I #
loop $-1 $-1 $170 $43 #
coedge $-1 $107 $107 $171 $172 reversed $67 $-1 #
face $-1 $-1 $173 $35 $-1 $174 forward single #
loop $-1 $175 $176 $69 #
cone-surface $-1 -35.338280238797154 -33.934297455510801 4.1616746561334779 0 0.83867057594974714 -0.54463902268945019 0.5 0 0 1 I I -0.70710678118654746 0.70710678118654746 0.5 forward I I I I #
loop $-1 $-1 $177 $44 #
coedge $-1 $112 $112 $178 $179 reversed $70 $-1 #
face $-1 $180 $181 $27 $-1 $182 reversed single #
loop $-1 $-1 $183 $72 #
plane-surface $-1 0 -40.24613813558846 0 0 1 0 0 0 1 forward_v I I I I #
coedge $-1 $184 $185 $186 $187 forward $73 $-1 #
coedge $-1 $188 $75 $189 $190 forward $46 $-1 #
coedge $-1 $75 $188 $191 $192 forward $46 $-1 #
coedge $-1 $193 $194 $75 $120 reversed $195 $-1 #
edge $-1 $196 -40.24613813558846 $197 40.24613813558846 $119 $198 forward 7 unknown #
face $-1 $199 $200 $28 $-1 $201 reversed single #
loop $-1 $-1 $202 $76 #
plane-surface $-1 -63.771984802908058 -22.315157260396795 0 0 1 0 0 0 1 forward_v I I I I #
coedge $-1 $203 $204 $126 $205 forward $77 $-1 #
coedge $-1 $206 $79 $207 $208 reversed $49 $-1 #
coedge $-1 $79 $206 $124 $205 reversed $49 $-1 #
coedge $-1 $209 $210 $79 $128 reversed $211 $-1 #
edge $-1 $212 -10.725097756888283 $213 10.725097756888283 $127 $214 forward 7 unknown #
face $-1 $215 $216 $29 $-1 $217 forward single #
loop $-1 $-1 $218 $80 #
plane-surface $-1 17.56531039934584 76.329594692298286 141.79985996772686 -1 0 0 0 0.75470958851134928 0.65605901945558964 forward_v I I I I #
coedge $-1 $219 $220 $221 $222 reversed $81 $-1 #
coedge $-1 $134 $83 $223 $224 reversed $52 $-1 #
coedge $-1 $83 $133 $219 $225 reversed $52 $-1 #
coedge $-1 $221 $226 $83 $136 forward $216 $-1 #
edge $-1 $227 -2.0813407894393166 $228 3.956218795398307 $135 $229 forward 7 unknown #
loop $-1 $-1 $142 $84 #
plane-surface $-1 6.3359195602989189 -12.561545708628287 64.527972479518468 0 0.75470958851134928 0.65605901945558964 1 0 0 forward_v I I I I #
loop $-1 $-1 $230 $54 #
coedge $-1 $140 $140 $141 $231 reversed $85 $-1 #
coedge $-1 $141 $141 $140 $231 forward $87 $-1 #
coedge $-1 $142 $142 $88 $143 forward $137 $-1 #
edge $-1 $232 -1.340633539313084e-015 $232 6.2831853071795987 $142 $233 forward 7 unknown #
loop $-1 $-1 $149 $89 #
plane-surface $-1 6.3359195602989189 -12.561545708628287 64.527972479518468 0 0.75470958851134928 0.65605901945558964 1 0 0 forward_v I I I I #
loop $-1 $-1 $234 $57 #
coedge $-1 $147 $147 $148 $235 reversed $90 $-1 #
coedge $-1 $148 $148 $147 $235 forward $92 $-1 #
coedge $-1 $149 $149 $93 $150 forward $144 $-1 #
edge $-1 $236 -1.340633539313084e-015 $236 6.2831853071795987 $149 $237 forward 7 unknown #
face $-1 $238 $239 $32 $-1 $240 forward single #
loop $-1 $-1 $241 $94 #
plane-surface $-1 -49.128902491110679 -139.02636439973887 66.350139514163018 1 0 0 0 0.83867057594974714 -0.54463902268945019 forward_v I I I I #
coedge $-1 $242 $243 $244 $245 reversed $95 $-1 #
coedge $-1 $156 $97 $246 $247 reversed $61 $-1 #
coedge $-1 $97 $155 $242 $248 reversed $61 $-1 #
coedge $-1 $244 $249 $97 $158 forward $239 $-1 #
edge $-1 $250 29.267044064280974 $251 34.802324818448469 $157 $252 forward 7 unknown #
loop $-1 $-1 $164 $98 #
plane-surface $-1 -40.509763583414724 -40.246138135588467 2.2015125844240515 0 -0.83867057594974714 0.54463902268945019 1 0 0 forward_v I I I I #
loop $-1 $-1 $253 $63 #
coedge $-1 $162 $162 $163 $254 reversed $99 $-1 #
coedge $-1 $163 $163 $162 $254 forward $101 $-1 #
coedge $-1 $164 $164 $102 $165 forward $159 $-1 #
edge $-1 $255 -1.3443307357375898e-015 $255 6.2831853071795987 $164 $256 forward 7 unknown #
loop $-1 $-1 $171 $103 #
plane-surface $-1 -40.509763583414724 -40.246138135588467 2.2015125844240515 0 -0.83867057594974714 0.54463902268945019 1 0 0 forward_v I I I I #
loop $-1 $-1 $257 $66 #
coedge $-1 $169 $169 $170 $258 reversed $104 $-1 #
coedge $-1 $170 $170 $169 $258 forward $106 $-1 #
coedge $-1 $171 $171 $107 $172 forward $166 $-1 #
edge $-1 $259 -1.3443307357375898e-015 $259 6.2831853071795987 $171 $260 forward 7 unknown #
loop $-1 $-1 $178 $108 #
plane-surface $-1 -40.509763583414724 -40.246138135588467 2.2015125844240515 0 -0.83867057594974714 0.54463902268945019 1 0 0 forward_v I I I I #
loop $-1 $-1 $261 $69 #
coedge $-1 $176 $176 $177 $262 reversed $109 $-1 #
coedge $-1 $177 $177 $176 $262 forward $111 $-1 #
coedge $-1 $178 $178 $112 $179 forward $173 $-1 #
edge $-1 $263 -1.3443307357375898e-015 $263 6.2831853071795987 $178 $264 forward 7 unknown #
face $-1 $265 $266 $27 $-1 $267 reversed single #
loop $-1 $-1 $268 $113 #
plane-surface $-1 -58.890957365642265 0 0 1 0 0 0 0 -1 forward_v I I I I #
coedge $-1 $269 $191 $270 $271 forward $114 $-1 #
coedge $-1 $272 $116 $269 $273 forward $73 $-1 #
coedge $-1 $116 $272 $274 $275 forward $73 $-1 #
coedge $-1 $194 $193 $116 $187 reversed $195 $-1 #
edge $-1 $276 -40.24613813558846 $277 40.24613813558846 $186 $278 forward 7 unknown #
coedge $-1 $118 $117 $279 $280 forward $46 $-1 #
coedge $-1 $281 $282 $117 $190 reversed $266 $-1 #
edge $-1 $197 -58.890957365642265 $283 58.890957365642265 $189 $284 forward 7 unknown #
coedge $-1 $183 $285 $118 $192 reversed $114 $-1 #
edge $-1 $286 -58.890957365642265 $196 58.890957365642265 $191 $287 forward 7 unknown #
coedge $-1 $186 $119 $285 $288 forward $195 $-1 #
coedge $-1 $119 $186 $281 $289 reversed $195 $-1 #
loop $-1 $-1 $193 $265 #
vertex $-1 $120 $290 #
vertex $-1 $120 $291 #
straight-curve $-1 58.890957365642265 0 10.725097756888283 0 1 0 I I #
face $-1 $292 $211 $28 $-1 $293 reversed single #
loop $-1 $-1 $294 $121 #
plane-surface $-1 -68.653012240173851 -20.555549941104346 0 1 0 0 0 0 -1 forward_v I I I I #
coedge $-1 $295 $296 $297 $298 forward $122 $-1 #
coedge $-1 $299 $124 $295 $300 forward $77 $-1 #
coedge $-1 $124 $299 $209 $301 forward $77 $-1 #
edge $-1 $212 18.795942621811896 $302 22.315157260396795 $124 $303 forward 7 unknown #
coedge $-1 $126 $125 $304 $305 forward $49 $-1 #
coedge $-1 $306 $307 $125 $208 forward $308 $-1 #
edge $-1 $309 -22.315157260396795 $213 -18.795942621811896 $207 $310 forward 7 unknown #
coedge $-1 $311 $127 $204 $301 reversed $211 $-1 #
coedge $-1 $127 $311 $306 $312 reversed $211 $-1 #
loop $-1 $-1 $127 $199 #
vertex $-1 $205 $313 #
vertex $-1 $312 $314 #
straight-curve $-1 -58.890957365642265 -18.795942621811896 0 0 0 1 I I #
face $-1 $-1 $315 $29 $-1 $316 reversed single #
loop $-1 $-1 $135 $129 #
plane-surface $-1 0 0 10.725097756888283 0 0 1 1 0 0 forward_v I I I I #
coedge $-1 $317 $318 $319 $320 reversed $130 $-1 #
coedge $-1 $321 $132 $134 $225 forward $81 $-1 #
coedge $-1 $132 $321 $317 $322 forward $81 $-1 #
coedge $-1 $319 $135 $132 $222 forward $216 $-1 #
edge $-1 $228 -8.0614310588974618 $323 14.397350619196381 $221 $324 forward 7 unknown #
coedge $-1 $325 $326 $133 $224 forward $315 $-1 #
edge $-1 $327 -67.120250207306725 $227 -60.174832226975148 $223 $328 forward 7 unknown #
edge $-1 $228 71.28950730406828 $327 80.49227627117692 $134 $329 forward 7 unknown #
coedge $-1 $135 $319 $325 $330 forward $216 $-1 #
vertex $-1 $224 $331 #
vertex $-1 $136 $332 #
straight-curve $-1 -4.8934712787480024 38.164797346149143 10.725097756888289 0 -1 0 I I #
coedge $-1 $230 $230 $-1 $333 reversed $139 $-1 #
edge $-1 $334 0 $334 6.2831853071796004 $140 $335 forward 7 unknown #
vertex $-1 $143 $336 #
ellipse-curve $-1 1.5233234864216598 37.227358343169648 7.2523887667224844 0 0.75470958851134928 0.65605901945558964 1 0 0 1 I I #
coedge $-1 $234 $234 $-1 $337 reversed $146 $-1 #
edge $-1 $338 0 $338 6.2831853071796004 $147 $339 forward 7 unknown #
vertex $-1 $150 $340 #
ellipse-curve $-1 11.148515634176164 37.227358343169648 7.2523887667224844 0 0.75470958851134928 0.65605901945558964 1 0 0 1 I I #
face $-1 $-1 $341 $32 $-1 $342 reversed single #
loop $-1 $-1 $157 $151 #
plane-surface $-1 0 0 10.725097756888283 0 0 1 1 0 0 forward_v I I I I #
coedge $-1 $343 $344 $345 $346 reversed $152 $-1 #
coedge $-1 $347 $154 $156 $248 forward $95 $-1 #
coedge $-1 $154 $347 $343 $348 forward $95 $-1 #
coedge $-1 $345 $157 $154 $245 forward $239 $-1 #
edge $-1 $251 11.635742884011403 $349 28.874020699403317 $244 $350 forward 7 unknown #
coedge $-1 $351 $352 $155 $247 forward $341 $-1 #
edge $-1 $353 -30.973557172657447 $250 -22.449972000193227 $246 $354 forward 7 unknown #
edge $-1 $251 -10.163209986008813 $353 -1.3181006846785195e-014 $156 $355 forward 7 unknown #
coedge $-1 $157 $345 $351 $356 forward $239 $-1 #
vertex $-1 $158 $357 #
vertex $-1 $158 $358 #
straight-curve $-1 -31.890624675718765 -69.513182199869433 10.725097756888282 0 1 0 I I #
coedge $-1 $253 $253 $-1 $359 reversed $161 $-1 #
edge $-1 $360 0 $360 6.2831853071796004 $162 $361 forward 7 unknown #
vertex $-1 $165 $362 #
ellipse-curve $-1 -45.681246928032301 -37.478497758504716 6.4633051706561711 0 -0.83867057594974714 0.54463902268945019 1 0 0 1 I I #
coedge $-1 $257 $257 $-1 $363 reversed $168 $-1 #
edge $-1 $364 0 $364 6.2831853071796004 $169 $365 forward 7 unknown #
vertex $-1 $172 $366 #
ellipse-curve $-1 -40.509763583414724 -37.478497758504716 6.4633051706561711 0 -0.83867057594974714 0.54463902268945019 1 0 0 1 I I #
coedge $-1 $261 $261 $-1 $367 reversed $175 $-1 #
edge $-1 $368 0 $368 6.2831853071796004 $176 $369 forward 7 unknown #
vertex $-1 $179 $370 #
ellipse-curve $-1 -35.338280238797154 -37.478497758504716 6.4633051706561711 0 -0.83867057594974714 0.54463902268945019 1 0 0 1 I I #
face $-1 $-1 $195 $27 $-1 $371 reversed single #
loop $-1 $-1 $281 $180 #
plane-surface $-1 0 40.24613813558846 0 0 -1 0 0 0 -1 forward_v I I I I #
coedge $-1 $372 $279 $282 $373 forward $181 $-1 #
coedge $-1 $285 $183 $184 $273 reversed $114 $-1 #
coedge $-1 $279 $372 $183 $271 reversed $181 $-1 #
edge $-1 $286 -10.725097756888283 $374 10.725097756888283 $270 $375 forward 7 unknown #
coedge $-1 $185 $184 $372 $376 forward $73 $-1 #
edge $-1 $277 -58.890957365642265 $374 58.890957365642265 $269 $377 forward 7 unknown #
coedge $-1 $282 $281 $185 $275 reversed $266 $-1 #
edge $-1 $378 -58.890957365642265 $276 58.890957365642265 $274 $379 forward 7 unknown #
vertex $-1 $187 $380 #
vertex $-1 $288 $381 #
straight-curve $-1 58.890957365642265 0 -10.725097756888283 0 -1 0 I I #
coedge $-1 $268 $270 $188 $280 reversed $181 $-1 #
edge $-1 $283 -40.24613813558846 $286 40.24613813558846 $279 $382 forward 7 unknown #
coedge $-1 $274 $189 $194 $289 forward $266 $-1 #
coedge $-1 $189 $274 $268 $373 reversed $266 $-1 #
vertex $-1 $190 $383 #
straight-curve $-1 0 40.24613813558846 10.725097756888283 -1 0 0 I I #
coedge $-1 $191 $269 $193 $288 reversed $114 $-1 #
vertex $-1 $280 $384 #
straight-curve $-1 0 -40.24613813558846 10.725097756888283 1 0 0 I I #
edge $-1 $196 -10.725097756888283 $277 10.725097756888283 $193 $385 forward 7 unknown #
edge $-1 $197 -10.725097756888283 $276 10.725097756888283 $194 $386 forward 7 unknown #
point $-1 58.890957365642265 -40.24613813558846 10.725097756888283 #
point $-1 58.890957365642265 40.24613813558846 10.725097756888283 #
face $-1 $-1 $308 $28 $-1 $387 forward single #
plane-surface $-1 -63.771984802908058 -18.795942621811896 0 0 -1 0 0 0 -1 forward_v I I I I #
coedge $-1 $388 $389 $311 $390 forward $200 $-1 #
coedge $-1 $304 $202 $203 $300 reversed $122 $-1 #
coedge $-1 $202 $304 $307 $391 reversed $122 $-1 #
coedge $-1 $389 $388 $202 $298 reversed $200 $-1 #
edge $-1 $392 -10.725097756888283 $393 10.725097756888283 $297 $394 forward 7 unknown #
coedge $-1 $204 $203 $388 $395 forward $77 $-1 #
edge $-1 $302 -4.8810274372657929 $393 4.8810274372657929 $295 $396 forward 7 unknown #
edge $-1 $397 -4.8810274372657929 $212 4.8810274372657929 $209 $398 forward 7 unknown #
vertex $-1 $300 $399 #
straight-curve $-1 -58.890957365642265 0 -10.725097756888283 0 -1 0 I I #
coedge $-1 $296 $295 $206 $305 reversed $122 $-1 #
edge $-1 $309 -10.725097756888283 $302 10.725097756888283 $304 $400 forward 7 unknown #
coedge $-1 $401 $207 $210 $312 forward $308 $-1 #
coedge $-1 $207 $401 $296 $391 forward $308 $-1 #
loop $-1 $-1 $207 $292 #
vertex $-1 $208 $402 #
straight-curve $-1 -58.890957365642265 0 10.725097756888283 0 1 0 I I #
coedge $-1 $210 $209 $294 $390 reversed $211 $-1 #
edge $-1 $213 -4.8810274372657929 $403 4.8810274372657929 $210 $404 forward 7 unknown #
point $-1 -58.890957365642265 -18.795942621811896 -10.725097756888283 #
point $-1 -58.890957365642265 -18.795942621811896 10.725097756888283 #
loop $-1 $-1 $223 $215 #
plane-surface $-1 0 40.24613813558846 0 0 -1 0 0 0 -1 forward_v I I I I #
coedge $-1 $318 $218 $220 $322 reversed $130 $-1 #
coedge $-1 $218 $317 $405 $406 reversed $130 $-1 #
coedge $-1 $226 $221 $218 $320 forward $216 $-1 #
edge $-1 $323 -3.956218795398307 $407 2.0813407894393166 $319 $408 forward 7 unknown #
coedge $-1 $220 $219 $326 $409 reversed $81 $-1 #
edge $-1 $410 -80.49227627117692 $323 -71.28950730406828 $317 $411 forward 7 unknown #
vertex $-1 $222 $412 #
straight-curve $-1 3.1679597801494594 34.208578550750836 10.725097756888275 1 0 0 I I #
coedge $-1 $405 $223 $226 $330 reversed $315 $-1 #
coedge $-1 $223 $405 $321 $409 forward $315 $-1 #
vertex $-1 $224 $413 #
straight-curve $-1 -4.8934712787480024 40.24613813558846 70.89992998386343 0 0 1 I I #
straight-curve $-1 -4.8934712787480024 -12.561545708628287 64.527972479518468 0 0.65605901945558964 -0.75470958851134928 I I #
edge $-1 $407 -17.56531039934584 $227 4.8934712787480024 $325 $414 forward 7 unknown #
point $-1 -4.8934712787480024 40.24613813558846 10.725097756888283 #
point $-1 -4.8934712787480024 34.208578550750836 10.725097756888282 #
edge $-1 $415 1 $415 0 $230 $-1 forward 7 unknown #
vertex $-1 $231 $416 #
ellipse-curve $-1 1.5233234864216598 35.238077733393098 5.5231335589726047 0 0.75470958851134928 0.65605901945558964 1 0 0 1 I I #
point $-1 2.5233234864216598 37.227358343169648 7.2523887667224862 #
edge $-1 $417 1 $417 0 $234 $-1 forward 7 unknown #
vertex $-1 $235 $418 #
ellipse-curve $-1 11.148515634176164 35.238077733393098 5.5231335589726047 0 0.75470958851134928 0.65605901945558964 1 0 0 1 I I #
point $-1 12.148515634176164 37.227358343169648 7.2523887667224862 #
loop $-1 $-1 $246 $238 #
plane-surface $-1 0 -40.24613813558846 0 0 1 0 0 0 1 forward_v I I I I #
coedge $-1 $344 $241 $243 $348 reversed $152 $-1 #
coedge $-1 $241 $343 $419 $420 reversed $152 $-1 #
coedge $-1 $249 $244 $241 $346 forward $239 $-1 #
edge $-1 $349 -34.802324818448469 $421 -29.267044064280974 $345 $422 forward 7 unknown #
coedge $-1 $243 $242 $352 $423 reversed $95 $-1 #
edge $-1 $424 1.3181006846785195e-014 $349 10.163209986008813 $343 $425 forward 7 unknown #
vertex $-1 $245 $426 #
straight-curve $-1 -20.254881791707362 -34.710857381420965 10.725097756888283 -1 0 0 I I #
coedge $-1 $419 $246 $249 $356 reversed $341 $-1 #
coedge $-1 $246 $419 $347 $423 forward $341 $-1 #
vertex $-1 $247 $427 #
straight-curve $-1 -31.890624675718765 -40.24613813558846 33.175069757081509 0 0 1 I I #
straight-curve $-1 -31.890624675718765 -40.246138135588467 2.2015125844240515 0 -0.54463902268945019 -0.83867057594974714 I I #
edge $-1 $421 -49.128902491110679 $250 -31.890624675718765 $351 $428 forward 7 unknown #
point $-1 -31.890624675718765 -40.24613813558846 10.725097756888283 #
point $-1 -31.890624675718765 -34.710857381420965 10.725097756888283 #
edge $-1 $429 1 $429 0 $253 $-1 forward 7 unknown #
vertex $-1 $254 $430 #
ellipse-curve $-1 -45.681246928032301 -34.353632743485676 4.4339941674782031 0 -0.83867057594974714 0.54463902268945019 1 0 0 1 I I #
point $-1 -44.681246928032301 -37.478497758504709 6.4633051706561648 #
edge $-1 $431 1 $431 0 $257 $-1 forward 7 unknown #
vertex $-1 $258 $432 #
ellipse-curve $-1 -40.509763583414724 -34.353632743485676 4.4339941674782031 0 -0.83867057594974714 0.54463902268945019 1 0 0 1 I I #
point $-1 -39.509763583414724 -37.478497758504709 6.4633051706561648 #
edge $-1 $433 1 $433 0 $261 $-1 forward 7 unknown #
vertex $-1 $262 $434 #
ellipse-curve $-1 -35.338280238797154 -34.353632743485676 4.4339941674782031 0 -0.83867057594974714 0.54463902268945019 1 0 0 1 I I #
point $-1 -34.338280238797154 -37.478497758504709 6.4633051706561648 #
plane-surface $-1 58.890957365642265 0 0 -1 0 0 0 0 1 forward_v I I I I #
coedge $-1 $270 $268 $272 $376 reversed $181 $-1 #
edge $-1 $283 -10.725097756888283 $378 10.725097756888283 $282 $435 forward 7 unknown #
vertex $-1 $376 $436 #
straight-curve $-1 -58.890957365642265 -40.24613813558846 0 0 0 -1 I I #
edge $-1 $374 -40.24613813558846 $378 40.24613813558846 $372 $437 forward 7 unknown #
straight-curve $-1 0 -40.24613813558846 -10.725097756888283 -1 0 0 I I #
vertex $-1 $275 $438 #
straight-curve $-1 0 40.24613813558846 -10.725097756888283 1 0 0 I I #
point $-1 58.890957365642265 40.24613813558846 -10.725097756888283 #
point $-1 58.890957365642265 -40.24613813558846 -10.725097756888283 #
straight-curve $-1 -58.890957365642265 0 10.725097756888283 0 -1 0 I I #
point $-1 -58.890957365642265 40.24613813558846 10.725097756888283 #
point $-1 -58.890957365642265 -40.24613813558846 10.725097756888283 #
straight-curve $-1 58.890957365642265 -40.24613813558846 0 0 0 -1 I I #
straight-curve $-1 58.890957365642265 40.24613813558846 0 0 0 -1 I I #
plane-surface $-1 0 0 10.725097756888283 0 0 1 1 0 0 forward_v I I I I #
coedge $-1 $297 $294 $299 $395 reversed $200 $-1 #
coedge $-1 $294 $297 $401 $439 reversed $200 $-1 #
edge $-1 $403 -10.725097756888283 $397 10.725097756888283 $311 $440 forward 7 unknown #
edge $-1 $392 -4.8810274372657929 $309 4.8810274372657929 $296 $441 forward 7 unknown #
vertex $-1 $439 $442 #
vertex $-1 $395 $443 #
straight-curve $-1 -68.653012240173851 -22.315157260396795 0 0 0 -1 I I #
edge $-1 $393 -1.7596073192924493 $397 1.7596073192924493 $388 $444 forward 7 unknown #
straight-curve $-1 -63.771984802908058 -22.315157260396795 -10.725097756888283 -1 0 0 I I #
vertex $-1 $301 $445 #
straight-curve $-1 -63.771984802908058 -18.795942621811896 -10.725097756888283 1 0 0 I I #
point $-1 -58.890957365642265 -22.315157260396795 -10.725097756888283 #
straight-curve $-1 -58.890957365642265 -22.315157260396795 0 0 0 -1 I I #
coedge $-1 $307 $306 $389 $439 forward $308 $-1 #
point $-1 -58.890957365642265 -22.315157260396795 10.725097756888283 #
vertex $-1 $312 $446 #
straight-curve $-1 -63.771984802908058 -18.795942621811896 10.725097756888283 -1 0 0 I I #
coedge $-1 $326 $325 $318 $406 forward $315 $-1 #
edge $-1 $407 60.174832226975148 $410 67.120250207306725 $405 $447 forward 7 unknown #
vertex $-1 $330 $448 #
straight-curve $-1 17.56531039934584 38.164797346149143 10.725097756888289 0 1 0 I I #
edge $-1 $410 -14.397350619196381 $327 8.0614310588974618 $326 $449 forward 7 unknown #
vertex $-1 $409 $450 #
straight-curve $-1 17.56531039934584 -12.561545708628287 64.527972479518468 0 -0.65605901945558964 0.75470958851134928 I I #
point $-1 17.56531039934584 34.208578550750836 10.725097756888282 #
point $-1 -4.8934712787480024 40.24613813558846 3.779679776556705 #
straight-curve $-1 0 40.24613813558846 10.725097756888283 -1 0 0 I I #
vertex $-1 $333 $451 #
point $-1 2.5233234864216598 35.238077733393098 5.5231335589726047 #
vertex $-1 $337 $452 #
point $-1 12.148515634176164 35.238077733393098 5.5231335589726047 #
coedge $-1 $352 $351 $344 $420 forward $341 $-1 #
edge $-1 $421 22.449972000193227 $424 30.973557172657447 $419 $453 forward 7 unknown #
vertex $-1 $356 $454 #
straight-curve $-1 -49.128902491110679 -69.513182199869433 10.725097756888282 0 -1 0 I I #
edge $-1 $424 -28.874020699403317 $353 -11.635742884011403 $352 $455 forward 7 unknown #
vertex $-1 $423 $456 #
straight-curve $-1 -49.128902491110679 -40.246138135588467 2.2015125844240515 0 0.54463902268945019 0.83867057594974714 I I #
point $-1 -49.128902491110679 -34.710857381420965 10.725097756888283 #
point $-1 -31.890624675718765 -40.24613813558846 2.2015125844240626 #
straight-curve $-1 0 -40.24613813558846 10.725097756888283 1 0 0 I I #
vertex $-1 $359 $457 #
point $-1 -44.681246928032301 -34.353632743485676 4.4339941674782031 #
vertex $-1 $363 $458 #
point $-1 -39.509763583414724 -34.353632743485676 4.4339941674782031 #
vertex $-1 $367 $459 #
point $-1 -34.338280238797154 -34.353632743485676 4.4339941674782031 #
straight-curve $-1 -58.890957365642265 40.24613813558846 0 0 0 -1 I I #
point $-1 -58.890957365642265 -40.24613813558846 -10.725097756888283 #
straight-curve $-1 -58.890957365642265 0 -10.725097756888283 0 1 0 I I #
point $-1 -58.890957365642265 40.24613813558846 -10.725097756888283 #
edge $-1 $403 -1.7596073192924493 $392 1.7596073192924493 $389 $460 forward 7 unknown #
straight-curve $-1 -68.653012240173851 -18.795942621811896 0 0 0 -1 I I #
straight-curve $-1 -63.771984802908058 -22.315157260396795 10.725097756888283 1 0 0 I I #
point $-1 -68.653012240173851 -22.315157260396795 10.725097756888283 #
point $-1 -68.653012240173851 -22.315157260396795 -10.725097756888283 #
straight-curve $-1 -68.653012240173851 -20.555549941104346 -10.725097756888283 0 1 0 I I #
point $-1 -68.653012240173851 -18.795942621811896 -10.725097756888283 #
point $-1 -68.653012240173851 -18.795942621811896 10.725097756888283 #
straight-curve $-1 17.56531039934584 40.24613813558846 70.89992998386343 0 0 -1 I I #
point $-1 17.56531039934584 40.24613813558846 10.725097756888283 #
straight-curve $-1 3.1679597801494594 40.246138135588467 3.7796797765566907 -1 0 0 I I #
point $-1 17.56531039934584 40.24613813558846 3.779679776556705 #
point $-1 1.5233234864216598 34.483368144881752 4.8670745395170147 #
point $-1 11.148515634176164 34.483368144881752 4.8670745395170147 #
straight-curve $-1 -49.128902491110679 -40.24613813558846 33.175069757081509 0 0 -1 I I #
point $-1 -49.128902491110679 -40.24613813558846 10.725097756888283 #
straight-curve $-1 -20.254881791707362 -40.24613813558846 2.2015125844240728 1 0 0 I I #
point $-1 -49.128902491110679 -40.24613813558846 2.2015125844240626 #
point $-1 -45.681246928032301 -33.514962167535927 3.8893551447887527 #
point $-1 -40.509763583414724 -33.514962167535927 3.8893551447887527 #
point $-1 -35.338280238797154 -33.514962167535927 3.8893551447887527 #
straight-curve $-1 -68.653012240173851 -20.555549941104346 10.725097756888283 0 -1 0 I I #
End-of-ACIS-data 