500 0 13 0           
7 Unknown 11 ACIS 5.0 NT 24 Thu Mar 25 16:56:34 1999 
-1 9.9999999999999995e-007 1e-010 
body $-1 $13 $-1 $14 #
body $-1 $15 $-1 $16 #
body $-1 $17 $-1 $18 #
body $-1 $19 $-1 $20 #
body $-1 $21 $-1 $22 #
body $-1 $23 $-1 $24 #
body $-1 $25 $-1 $26 #
body $-1 $27 $-1 $28 #
body $-1 $29 $-1 $30 #
body $-1 $31 $-1 $32 #
body $-1 $33 $-1 $34 #
body $-1 $35 $-1 $36 #
body $-1 $37 $-1 $38 #
lump $-1 $-1 $39 $0 #
transform $-1 1 0 0 0 1 0 0 0 1 41.838435010834068 20.462489449648263 10.160990198529829 1 rotate no_reflect no_shear #
lump $-1 $-1 $40 $1 #
transform $-1 1 0 0 0 1 0 0 0 1 41.838435010834068 20.462489449648263 10.160990198529829 1 rotate no_reflect no_shear #
lump $-1 $-1 $41 $2 #
transform $-1 1 0 0 0 1 0 0 0 1 41.838435010834068 20.462489449648263 10.160990198529829 1 rotate no_reflect no_shear #
lump $-1 $-1 $42 $3 #
transform $-1 1 0 0 0 1 0 0 0 1 41.838435010834068 20.462489449648263 10.160990198529829 1 rotate no_reflect no_shear #
lump $-1 $-1 $43 $4 #
transform $-1 1 0 0 0 1 0 0 0 1 41.838435010834068 20.462489449648263 10.160990198529829 1 rotate no_reflect no_shear #
lump $-1 $-1 $44 $5 #
transform $-1 1 0 0 0 1 0 0 0 1 41.838435010834068 20.462489449648263 10.160990198529829 1 rotate no_reflect no_shear #
lump $-1 $-1 $45 $6 #
transform $-1 1 0 0 0 1 0 0 0 1 41.838435010834068 20.462489449648263 10.160990198529829 1 rotate no_reflect no_shear #
lump $-1 $-1 $46 $7 #
transform $-1 1 0 0 0 1 0 0 0 1 41.838435010834068 20.462489449648263 10.160990198529829 1 rotate no_reflect no_shear #
lump $-1 $-1 $47 $8 #
transform $-1 1 0 0 0 1 0 0 0 1 41.838435010834068 20.462489449648263 10.160990198529829 1 rotate no_reflect no_shear #
lump $-1 $-1 $48 $9 #
transform $-1 1 0 0 0 1 0 0 0 1 41.838435010834068 20.462489449648263 10.160990198529829 1 rotate no_reflect no_shear #
lump $-1 $-1 $49 $10 #
transform $-1 1 0 0 0 1 0 0 0 1 41.838435010834068 20.462489449648263 10.160990198529829 1 rotate no_reflect no_shear #
lump $-1 $-1 $50 $11 #
transform $-1 1 0 0 0 1 0 0 0 1 41.838435010834068 20.462489449648263 10.160990198529829 1 rotate no_reflect no_shear #
lump $-1 $-1 $51 $12 #
transform $-1 1 0 0 0 1 0 0 0 1 41.838435010834068 20.462489449648263 10.160990198529829 1 rotate no_reflect no_shear #
shell $-1 $-1 $-1 $52 $-1 $13 #
shell $-1 $-1 $-1 $53 $-1 $15 #
shell $-1 $-1 $-1 $54 $-1 $17 #
shell $-1 $-1 $-1 $55 $-1 $19 #
shell $-1 $-1 $-1 $56 $-1 $21 #
shell $-1 $-1 $-1 $57 $-1 $23 #
shell $-1 $-1 $-1 $58 $-1 $25 #
shell $-1 $-1 $-1 $59 $-1 $27 #
shell $-1 $-1 $-1 $60 $-1 $29 #
shell $-1 $-1 $-1 $61 $-1 $31 #
shell $-1 $-1 $-1 $62 $-1 $33 #
shell $-1 $-1 $-1 $63 $-1 $35 #
shell $-1 $-1 $-1 $64 $-1 $37 #
face $-1 $65 $66 $39 $-1 $67 forward single #
face $-1 $68 $69 $40 $-1 $70 forward single #
face $-1 $71 $72 $41 $-1 $73 reversed single #
face $-1 $74 $75 $42 $-1 $76 forward single #
face $-1 $77 $78 $43 $-1 $79 forward single #
face $-1 $80 $81 $44 $-1 $82 forward single #
face $-1 $83 $84 $45 $-1 $85 reversed single #
face $-1 $86 $87 $46 $-1 $88 forward single #
face $-1 $89 $90 $47 $-1 $91 forward single #
face $-1 $92 $93 $48 $-1 $94 forward single #
face $-1 $95 $96 $49 $-1 $97 reversed single #
face $-1 $98 $99 $50 $-1 $100 forward single #
face $-1 $101 $102 $51 $-1 $103 forward single #
face $-1 $104 $105 $39 $-1 $106 reversed single #
loop $-1 $-1 $107 $52 #
plane-surface $-1 0 0 10.160990198529829 0 0 1 1 0 0 forward_v I I I I #
face $-1 $108 $109 $40 $-1 $110 reversed single #
loop $-1 $-1 $111 $53 #
plane-surface $-1 -35.25876669691128 0 -6.8457295334557475 0 0 1 1 0 0 forward_v I I I I #
face $-1 $112 $113 $41 $-1 $114 reversed single #
loop $-1 $-1 $115 $54 #
plane-surface $-1 -28.679098382988499 -66.036179788433884 70.263433559611514 1 0 0 0 0.54463904215088732 -0.83867056331134215 forward_v I I I I #
face $-1 $116 $117 $42 $-1 $118 forward single #
loop $-1 $119 $120 $55 #
cone-surface $-1 -27.014112424998302 -12.20723155381001 4.3562682426654016 0 0.54463904215088732 -0.83867056331134215 0.5 0 0 1 I I 0 1 0.5 forward I I I I #
face $-1 $121 $122 $43 $-1 $123 forward single #
loop $-1 $124 $125 $56 #
cone-surface $-1 -24.516633488013007 -12.20723155381001 4.3562682426654016 0 0.54463904215088732 -0.83867056331134215 0.5 0 0 1 I I 0 1 0.5 forward I I I I #
face $-1 $126 $127 $44 $-1 $128 forward single #
loop $-1 $129 $130 $57 #
cone-surface $-1 -22.019154551027711 -12.20723155381001 4.3562682426654016 0 0.54463904215088732 -0.83867056331134215 0.5 0 0 1 I I 0 1 0.5 forward I I I I #
face $-1 $131 $132 $45 $-1 $133 reversed single #
loop $-1 $-1 $134 $58 #
plane-surface $-1 33.513505220883076 -66.036179788433884 70.263433559611514 1 0 0 0 0.54463904215088732 -0.83867056331134215 forward_v I I I I #
face $-1 $135 $136 $46 $-1 $137 forward single #
loop $-1 $138 $139 $59 #
cone-surface $-1 35.17849117887328 -12.20723155381001 4.3562682426654016 0 0.54463904215088732 -0.83867056331134215 0.5 0 0 1 I I 0 1 0.5 forward I I I I #
face $-1 $140 $141 $47 $-1 $142 forward single #
loop $-1 $143 $144 $60 #
cone-surface $-1 37.675970115858568 -12.20723155381001 4.3562682426654016 0 0.54463904215088732 -0.83867056331134215 0.5 0 0 1 I I 0 1 0.5 forward I I I I #
face $-1 $145 $146 $48 $-1 $147 forward single #
loop $-1 $148 $149 $61 #
cone-surface $-1 40.173449052843871 -12.20723155381001 4.3562682426654016 0 0.54463904215088732 -0.83867056331134215 0.5 0 0 1 I I 0 1 0.5 forward I I I I #
face $-1 $150 $151 $49 $-1 $152 reversed single #
loop $-1 $-1 $153 $62 #
plane-surface $-1 23.093515805123019 42.898592978754181 97.457552168866386 1 0 0 0 -0.64278761758704617 -0.76604443648966558 forward_v I I I I #
face $-1 $154 $155 $50 $-1 $156 forward single #
loop $-1 $157 $158 $63 #
cone-surface $-1 28.44920700675474 18.153667621344333 8.0629123437947356 0 -0.64278761758704617 -0.76604443648966558 0.5 0 0 1 I I 0 1 0.5 forward I I I I #
face $-1 $159 $160 $51 $-1 $161 forward single #
loop $-1 $162 $163 $64 #
cone-surface $-1 36.48274380920234 18.153667621344333 8.0629123437947356 0 -0.64278761758704617 -0.76604443648966558 0.5 0 0 1 I I 0 1 0.5 forward I I I I #
face $-1 $164 $165 $39 $-1 $166 reversed single #
loop $-1 $-1 $167 $65 #
plane-surface $-1 0 0 -10.160990198529829 0 0 1 1 0 0 forward_v I I I I #
coedge $-1 $168 $169 $170 $171 forward $66 $-1 #
face $-1 $172 $173 $40 $-1 $174 reversed single #
loop $-1 $-1 $175 $68 #
plane-surface $-1 -28.679098382988496 0 -8.5033598659927883 -1 0 0 0 0 1 forward_v I I I I #
coedge $-1 $176 $177 $178 $179 forward $69 $-1 #
face $-1 $180 $181 $41 $-1 $182 reversed single #
loop $-1 $-1 $183 $71 #
plane-surface $-1 -24.516633488013007 -20.462489449648253 0.086105842409139655 0 -0.54463904215088732 0.83867056331134215 1 0 0 forward_v I I I I #
coedge $-1 $184 $185 $186 $187 reversed $72 $-1 #
face $-1 $-1 $188 $42 $-1 $189 forward single #
loop $-1 $190 $191 $74 #
cone-surface $-1 -27.014112424998302 -11.572794470177749 3.3793208240334778 0 0.54463904215088732 -0.83867056331134215 0.25 0 0 1 I I -0.70710678118654746 0.70710678118654746 0.25 forward I I I I #
loop $-1 $-1 $192 $55 #
coedge $-1 $120 $120 $193 $194 reversed $75 $-1 #
face $-1 $-1 $195 $43 $-1 $196 forward single #
loop $-1 $197 $198 $77 #
cone-surface $-1 -24.516633488013007 -11.572794470177749 3.3793208240334778 0 0.54463904215088732 -0.83867056331134215 0.25 0 0 1 I I -0.70710678118654746 0.70710678118654746 0.25 forward I I I I #
loop $-1 $-1 $199 $56 #
coedge $-1 $125 $125 $200 $201 reversed $78 $-1 #
face $-1 $-1 $202 $44 $-1 $203 forward single #
loop $-1 $204 $205 $80 #
cone-surface $-1 -22.019154551027711 -11.572794470177749 3.3793208240334778 0 0.54463904215088732 -0.83867056331134215 0.25 0 0 1 I I -0.70710678118654746 0.70710678118654746 0.25 forward I I I I #
loop $-1 $-1 $206 $57 #
coedge $-1 $130 $130 $207 $208 reversed $81 $-1 #
face $-1 $209 $210 $45 $-1 $211 reversed single #
loop $-1 $-1 $212 $83 #
plane-surface $-1 37.675970115858568 -20.462489449648253 0.086105842409139655 0 -0.54463904215088732 0.83867056331134215 1 0 0 forward_v I I I I #
coedge $-1 $213 $214 $215 $216 reversed $84 $-1 #
face $-1 $-1 $217 $46 $-1 $218 forward single #
loop $-1 $219 $220 $86 #
cone-surface $-1 35.17849117887328 -11.572794470177749 3.3793208240334778 0 0.54463904215088732 -0.83867056331134215 0.25 0 0 1 I I -0.70710678118654746 0.70710678118654746 0.25 forward I I I I #
loop $-1 $-1 $221 $59 #
coedge $-1 $139 $139 $222 $223 reversed $87 $-1 #
face $-1 $-1 $224 $47 $-1 $225 forward single #
loop $-1 $226 $227 $89 #
cone-surface $-1 37.675970115858568 -11.572794470177749 3.3793208240334778 0 0.54463904215088732 -0.83867056331134215 0.25 0 0 1 I I -0.70710678118654746 0.70710678118654746 0.25 forward I I I I #
loop $-1 $-1 $228 $60 #
coedge $-1 $144 $144 $229 $230 reversed $90 $-1 #
face $-1 $-1 $231 $48 $-1 $232 forward single #
loop $-1 $233 $234 $92 #
cone-surface $-1 40.173449052843871 -11.572794470177749 3.3793208240334778 0 0.54463904215088732 -0.83867056331134215 0.25 0 0 1 I I -0.70710678118654746 0.70710678118654746 0.25 forward I I I I #
loop $-1 $-1 $235 $61 #
coedge $-1 $149 $149 $236 $237 reversed $93 $-1 #
face $-1 $238 $239 $49 $-1 $240 reversed single #
loop $-1 $-1 $241 $95 #
plane-surface $-1 32.46597540797854 -10.887862949614806 33.357351425898628 0 0.64278761758704617 0.76604443648966558 1 0 0 forward_v I I I I #
coedge $-1 $242 $243 $244 $245 reversed $96 $-1 #
face $-1 $-1 $246 $50 $-1 $247 forward single #
loop $-1 $248 $249 $98 #
cone-surface $-1 28.44920700675474 17.537151963865124 7.328177609492295 0 -0.64278761758704617 -0.76604443648966558 0.25 0 0 1 I I -0.70710678118654746 0.70710678118654746 0.25 forward I I I I #
loop $-1 $-1 $250 $63 #
coedge $-1 $158 $158 $251 $252 reversed $99 $-1 #
face $-1 $-1 $253 $51 $-1 $254 forward single #
loop $-1 $255 $256 $101 #
cone-surface $-1 36.48274380920234 17.537151963865124 7.328177609492295 0 -0.64278761758704617 -0.76604443648966558 0.25 0 0 1 I I -0.70710678118654746 0.70710678118654746 0.25 forward I I I I #
loop $-1 $-1 $257 $64 #
coedge $-1 $163 $163 $258 $259 reversed $102 $-1 #
face $-1 $260 $261 $39 $-1 $262 reversed single #
loop $-1 $-1 $263 $104 #
plane-surface $-1 0 -20.462489449648263 0 0 1 0 0 0 1 forward_v I I I I #
coedge $-1 $264 $265 $266 $267 forward $105 $-1 #
coedge $-1 $268 $107 $269 $270 forward $66 $-1 #
coedge $-1 $107 $268 $271 $272 forward $66 $-1 #
coedge $-1 $273 $274 $107 $171 reversed $275 $-1 #
edge $-1 $276 -20.462489449648263 $277 20.462489449648263 $170 $278 forward 7 unknown #
face $-1 $279 $280 $40 $-1 $281 reversed single #
loop $-1 $-1 $282 $108 #
plane-surface $-1 0 0 -10.160990198529829 0 0 1 1 0 0 forward_v I I I I #
coedge $-1 $283 $178 $284 $285 reversed $109 $-1 #
coedge $-1 $286 $111 $287 $288 reversed $69 $-1 #
coedge $-1 $111 $286 $289 $290 reversed $69 $-1 #
coedge $-1 $175 $291 $111 $179 reversed $109 $-1 #
edge $-1 $292 -20.462489449648263 $293 20.462489449648263 $178 $294 forward 7 unknown #
face $-1 $295 $296 $41 $-1 $297 forward single #
loop $-1 $-1 $298 $112 #
plane-surface $-1 -20.354168593037514 -66.036179788433884 70.263433559611514 -1 0 0 0 -0.54463904215088732 0.83867056331134215 forward_v I I I I #
coedge $-1 $299 $300 $301 $302 reversed $113 $-1 #
coedge $-1 $185 $115 $303 $304 reversed $72 $-1 #
coedge $-1 $115 $184 $299 $305 reversed $72 $-1 #
coedge $-1 $301 $306 $115 $187 forward $307 $-1 #
edge $-1 $308 24.970726581275926 $309 35.045610937396624 $186 $310 forward 7 unknown #
loop $-1 $-1 $193 $116 #
plane-surface $-1 -24.516633488013007 -20.462489449648253 0.086105842409139655 0 -0.54463904215088732 0.83867056331134215 1 0 0 forward_v I I I I #
loop $-1 $-1 $311 $74 #
coedge $-1 $191 $191 $192 $312 reversed $117 $-1 #
coedge $-1 $192 $192 $191 $312 forward $119 $-1 #
coedge $-1 $193 $193 $120 $194 forward $188 $-1 #
edge $-1 $313 -3.8568259848068354e-016 $313 6.2831853071796004 $193 $314 forward 7 unknown #
loop $-1 $-1 $200 $121 #
plane-surface $-1 -24.516633488013007 -20.462489449648253 0.086105842409139655 0 -0.54463904215088732 0.83867056331134215 1 0 0 forward_v I I I I #
loop $-1 $-1 $315 $77 #
coedge $-1 $198 $198 $199 $316 reversed $122 $-1 #
coedge $-1 $199 $199 $198 $316 forward $124 $-1 #
coedge $-1 $200 $200 $125 $201 forward $195 $-1 #
edge $-1 $317 -3.8568259848068354e-016 $317 6.2831853071796004 $200 $318 forward 7 unknown #
loop $-1 $-1 $207 $126 #
plane-surface $-1 -24.516633488013007 -20.462489449648253 0.086105842409139655 0 -0.54463904215088732 0.83867056331134215 1 0 0 forward_v I I I I #
loop $-1 $-1 $319 $80 #
coedge $-1 $205 $205 $206 $320 reversed $127 $-1 #
coedge $-1 $206 $206 $205 $320 forward $129 $-1 #
coedge $-1 $207 $207 $130 $208 forward $202 $-1 #
edge $-1 $321 -3.8568259848068354e-016 $321 6.2831853071796004 $207 $322 forward 7 unknown #
face $-1 $323 $324 $45 $-1 $325 forward single #
loop $-1 $-1 $215 $131 #
plane-surface $-1 0 -20.462489449648263 0 0 1 0 0 0 1 forward_v I I I I #
coedge $-1 $326 $327 $328 $329 reversed $132 $-1 #
coedge $-1 $214 $134 $330 $331 reversed $84 $-1 #
coedge $-1 $134 $213 $326 $332 reversed $84 $-1 #
coedge $-1 $328 $333 $134 $216 forward $210 $-1 #
edge $-1 $334 24.970726581275926 $335 35.045610937396624 $215 $336 forward 7 unknown #
loop $-1 $-1 $222 $135 #
plane-surface $-1 37.675970115858568 -20.462489449648253 0.086105842409139655 0 -0.54463904215088732 0.83867056331134215 1 0 0 forward_v I I I I #
loop $-1 $-1 $337 $86 #
coedge $-1 $220 $220 $221 $338 reversed $136 $-1 #
coedge $-1 $221 $221 $220 $338 forward $138 $-1 #
coedge $-1 $222 $222 $139 $223 forward $217 $-1 #
edge $-1 $339 -3.8568259848068354e-016 $339 6.2831853071796004 $222 $340 forward 7 unknown #
loop $-1 $-1 $229 $140 #
plane-surface $-1 37.675970115858568 -20.462489449648253 0.086105842409139655 0 -0.54463904215088732 0.83867056331134215 1 0 0 forward_v I I I I #
loop $-1 $-1 $341 $89 #
coedge $-1 $227 $227 $228 $342 reversed $141 $-1 #
coedge $-1 $228 $228 $227 $342 forward $143 $-1 #
coedge $-1 $229 $229 $144 $230 forward $224 $-1 #
edge $-1 $343 -3.8568259848068354e-016 $343 6.2831853071796004 $229 $344 forward 7 unknown #
loop $-1 $-1 $236 $145 #
plane-surface $-1 37.675970115858568 -20.462489449648253 0.086105842409139655 0 -0.54463904215088732 0.83867056331134215 1 0 0 forward_v I I I I #
loop $-1 $-1 $345 $92 #
coedge $-1 $234 $234 $235 $346 reversed $146 $-1 #
coedge $-1 $235 $235 $234 $346 forward $148 $-1 #
coedge $-1 $236 $236 $149 $237 forward $231 $-1 #
edge $-1 $347 -3.8568259848068354e-016 $347 6.2831853071796004 $236 $348 forward 7 unknown #
face $-1 $349 $350 $49 $-1 $351 reversed single #
loop $-1 $-1 $352 $150 #
plane-surface $-1 41.838435010834068 0 0 -1 0 0 0 0 1 forward_v I I I I #
coedge $-1 $353 $354 $355 $356 reversed $151 $-1 #
coedge $-1 $243 $153 $357 $358 reversed $96 $-1 #
coedge $-1 $153 $242 $353 $359 reversed $96 $-1 #
coedge $-1 $355 $360 $153 $245 forward $361 $-1 #
edge $-1 $362 0.98680703972882711 $363 4.6928131901718118 $244 $364 forward 7 unknown #
loop $-1 $-1 $251 $154 #
plane-surface $-1 32.46597540797854 -10.887862949614806 33.357351425898628 0 0.64278761758704617 0.76604443648966558 1 0 0 forward_v I I I I #
loop $-1 $-1 $365 $98 #
coedge $-1 $249 $249 $250 $366 reversed $155 $-1 #
coedge $-1 $250 $250 $249 $366 forward $157 $-1 #
coedge $-1 $251 $251 $158 $252 forward $246 $-1 #
edge $-1 $367 3.4373675755954887e-016 $367 6.2831853071796004 $251 $368 forward 7 unknown #
loop $-1 $-1 $258 $159 #
plane-surface $-1 32.46597540797854 -10.887862949614806 33.357351425898628 0 0.64278761758704617 0.76604443648966558 1 0 0 forward_v I I I I #
loop $-1 $-1 $369 $101 #
coedge $-1 $256 $256 $257 $370 reversed $160 $-1 #
coedge $-1 $257 $257 $256 $370 forward $162 $-1 #
coedge $-1 $258 $258 $163 $259 forward $253 $-1 #
edge $-1 $371 3.4373675755954887e-016 $371 6.2831853071796004 $258 $372 forward 7 unknown #
face $-1 $373 $374 $39 $-1 $375 reversed single #
loop $-1 $-1 $376 $164 #
plane-surface $-1 -41.838435010834068 0 0 1 0 0 0 0 -1 forward_v I I I I #
coedge $-1 $377 $271 $378 $379 forward $165 $-1 #
coedge $-1 $380 $167 $377 $381 forward $105 $-1 #
coedge $-1 $167 $380 $382 $383 forward $105 $-1 #
coedge $-1 $274 $273 $167 $267 reversed $275 $-1 #
edge $-1 $384 -20.462489449648263 $385 20.462489449648263 $266 $386 forward 7 unknown #
coedge $-1 $169 $168 $387 $388 forward $66 $-1 #
coedge $-1 $389 $390 $168 $270 reversed $374 $-1 #
edge $-1 $277 -41.838435010834068 $391 41.838435010834068 $269 $392 forward 7 unknown #
coedge $-1 $263 $393 $169 $272 reversed $165 $-1 #
edge $-1 $394 -41.838435010834068 $276 41.838435010834068 $271 $395 forward 7 unknown #
coedge $-1 $266 $170 $393 $396 forward $275 $-1 #
coedge $-1 $170 $266 $389 $397 reversed $275 $-1 #
loop $-1 $-1 $273 $373 #
vertex $-1 $171 $398 #
vertex $-1 $171 $399 #
straight-curve $-1 41.838435010834068 0 10.160990198529829 0 1 0 I I #
face $-1 $400 $401 $40 $-1 $402 reversed single #
loop $-1 $-1 $284 $172 #
plane-surface $-1 0 -20.462489449648263 0 0 1 0 0 0 1 forward_v I I I I #
coedge $-1 $403 $404 $283 $405 forward $173 $-1 #
coedge $-1 $291 $175 $282 $405 reversed $109 $-1 #
coedge $-1 $289 $406 $175 $285 forward $280 $-1 #
edge $-1 $407 -5.9093102655334349 $292 -2.5940496004593534 $284 $408 forward 7 unknown #
coedge $-1 $177 $176 $409 $410 reversed $69 $-1 #
coedge $-1 $411 $412 $176 $288 forward $413 $-1 #
edge $-1 $414 -24.209051662378428 $293 -11.049715034532856 $287 $415 forward 7 unknown #
coedge $-1 $416 $284 $177 $290 forward $280 $-1 #
edge $-1 $292 11.049715034532856 $417 24.209051662378428 $289 $418 forward 7 unknown #
coedge $-1 $178 $283 $411 $419 reversed $109 $-1 #
vertex $-1 $290 $420 #
vertex $-1 $288 $421 #
straight-curve $-1 -28.679098382988496 0 -6.8457295334557475 0 1 0 I I #
face $-1 $-1 $307 $41 $-1 $422 reversed single #
loop $-1 $-1 $423 $180 #
plane-surface $-1 0 0 10.160990198529829 0 0 1 1 0 0 forward_v I I I I #
coedge $-1 $424 $425 $426 $427 reversed $181 $-1 #
coedge $-1 $428 $183 $185 $305 forward $113 $-1 #
coedge $-1 $183 $428 $424 $429 forward $113 $-1 #
coedge $-1 $426 $186 $183 $302 forward $307 $-1 #
edge $-1 $309 -16.420781638981996 $430 -8.0958518490310105 $301 $431 forward 7 unknown #
coedge $-1 $432 $433 $184 $304 forward $296 $-1 #
edge $-1 $434 -28.069561590056139 $308 -12.555600444568679 $303 $435 forward 7 unknown #
edge $-1 $309 -1.2710303291202424e-014 $434 18.498277898574766 $185 $436 forward 7 unknown #
coedge $-1 $186 $426 $432 $437 reversed $307 $-1 #
loop $-1 $-1 $426 $295 #
vertex $-1 $437 $438 #
vertex $-1 $187 $439 #
straight-curve $-1 -28.679098382988499 -20.462489449648263 35.131716779805757 0 0 -1 I I #
coedge $-1 $311 $311 $-1 $440 reversed $190 $-1 #
edge $-1 $441 0 $441 6.2831853071796004 $191 $442 forward 7 unknown #
vertex $-1 $194 $443 #
ellipse-curve $-1 -27.014112424998302 -12.70550887690454 5.1235480204694772 0 -0.54463904215088732 0.83867056331134215 0.5 0 0 1 I I #
coedge $-1 $315 $315 $-1 $444 reversed $197 $-1 #
edge $-1 $445 0 $445 6.2831853071796004 $198 $446 forward 7 unknown #
vertex $-1 $201 $447 #
ellipse-curve $-1 -24.516633488013007 -12.70550887690454 5.1235480204694772 0 -0.54463904215088732 0.83867056331134215 0.5 0 0 1 I I #
coedge $-1 $319 $319 $-1 $448 reversed $204 $-1 #
edge $-1 $449 0 $449 6.2831853071796004 $205 $450 forward 7 unknown #
vertex $-1 $208 $451 #
ellipse-curve $-1 -22.019154551027711 -12.70550887690454 5.1235480204694772 0 -0.54463904215088732 0.83867056331134215 0.5 0 0 1 I I #
face $-1 $-1 $452 $45 $-1 $453 reversed single #
loop $-1 $-1 $330 $209 #
plane-surface $-1 0 0 10.160990198529829 0 0 1 1 0 0 forward_v I I I I #
coedge $-1 $454 $212 $214 $332 forward $132 $-1 #
coedge $-1 $212 $454 $455 $456 reversed $132 $-1 #
coedge $-1 $457 $215 $212 $329 forward $210 $-1 #
edge $-1 $335 14.675520162953791 $458 23.000449952904777 $328 $459 forward 7 unknown #
coedge $-1 $460 $461 $213 $331 forward $324 $-1 #
edge $-1 $462 -28.069561590056139 $334 -12.555600444568679 $330 $463 forward 7 unknown #
edge $-1 $335 -1.2710303291202424e-014 $462 18.498277898574766 $214 $464 forward 7 unknown #
coedge $-1 $215 $457 $460 $465 reversed $210 $-1 #
vertex $-1 $465 $466 #
vertex $-1 $216 $467 #
straight-curve $-1 33.513505220883076 -20.462489449648263 35.131716779805757 0 0 -1 I I #
coedge $-1 $337 $337 $-1 $468 reversed $219 $-1 #
edge $-1 $469 0 $469 6.2831853071796004 $220 $470 forward 7 unknown #
vertex $-1 $223 $471 #
ellipse-curve $-1 35.17849117887328 -12.70550887690454 5.1235480204694772 0 -0.54463904215088732 0.83867056331134215 0.5 0 0 1 I I #
coedge $-1 $341 $341 $-1 $472 reversed $226 $-1 #
edge $-1 $473 0 $473 6.2831853071796004 $227 $474 forward 7 unknown #
vertex $-1 $230 $475 #
ellipse-curve $-1 37.675970115858568 -12.70550887690454 5.1235480204694772 0 -0.54463904215088732 0.83867056331134215 0.5 0 0 1 I I #
coedge $-1 $345 $345 $-1 $476 reversed $233 $-1 #
edge $-1 $477 0 $477 6.2831853071796004 $234 $478 forward 7 unknown #
vertex $-1 $237 $479 #
ellipse-curve $-1 40.173449052843871 -12.70550887690454 5.1235480204694772 0 -0.54463904215088732 0.83867056331134215 0.5 0 0 1 I I #
face $-1 $-1 $361 $49 $-1 $480 forward single #
loop $-1 $-1 $481 $238 #
plane-surface $-1 0 20.462489449648263 0 0 -1 0 0 0 -1 forward_v I I I I #
coedge $-1 $482 $483 $354 $484 forward $239 $-1 #
coedge $-1 $485 $241 $243 $359 forward $151 $-1 #
coedge $-1 $241 $485 $352 $484 reversed $151 $-1 #
coedge $-1 $486 $244 $241 $356 forward $361 $-1 #
edge $-1 $363 6.8605281011337489 $487 25.605447306844791 $355 $488 forward 7 unknown #
coedge $-1 $489 $481 $242 $358 forward $350 $-1 #
edge $-1 $490 -41.677494345013514 $362 -38.567785885903362 $357 $491 forward 7 unknown #
edge $-1 $363 36.087131414331502 $490 40.924978899296534 $243 $492 forward 7 unknown #
coedge $-1 $244 $486 $489 $493 forward $361 $-1 #
loop $-1 $-1 $355 $349 #
vertex $-1 $358 $494 #
vertex $-1 $245 $495 #
straight-curve $-1 23.093515805123019 21.44929648937709 10.160990198529831 0 -1 0 I I #
coedge $-1 $365 $365 $-1 $496 reversed $248 $-1 #
edge $-1 $497 0 $497 6.2831853071796004 $249 $498 forward 7 unknown #
vertex $-1 $252 $499 #
ellipse-curve $-1 28.44920700675474 18.609486374426773 8.6061359689747476 0 0.64278761758704617 0.76604443648966558 0.5 0 0 1 I I #
coedge $-1 $369 $369 $-1 $500 reversed $255 $-1 #
edge $-1 $501 0 $501 6.2831853071796004 $256 $502 forward 7 unknown #
vertex $-1 $259 $503 #
ellipse-curve $-1 36.48274380920234 18.609486374426773 8.6061359689747476 0 0.64278761758704617 0.76604443648966558 0.5 0 0 1 I I #
face $-1 $-1 $275 $39 $-1 $504 reversed single #
loop $-1 $-1 $389 $260 #
plane-surface $-1 0 20.462489449648263 0 0 -1 0 0 0 -1 forward_v I I I I #
coedge $-1 $505 $387 $390 $506 forward $261 $-1 #
coedge $-1 $393 $263 $264 $381 reversed $165 $-1 #
coedge $-1 $387 $505 $263 $379 reversed $261 $-1 #
edge $-1 $394 -10.160990198529829 $507 10.160990198529829 $378 $508 forward 7 unknown #
coedge $-1 $265 $264 $505 $509 forward $105 $-1 #
edge $-1 $385 -41.838435010834068 $507 41.838435010834068 $377 $510 forward 7 unknown #
coedge $-1 $390 $389 $265 $383 reversed $374 $-1 #
edge $-1 $511 -41.838435010834068 $384 41.838435010834068 $382 $512 forward 7 unknown #
vertex $-1 $267 $513 #
vertex $-1 $396 $514 #
straight-curve $-1 41.838435010834068 0 -10.160990198529829 0 -1 0 I I #
coedge $-1 $376 $378 $268 $388 reversed $261 $-1 #
edge $-1 $391 -20.462489449648263 $394 20.462489449648263 $387 $515 forward 7 unknown #
coedge $-1 $382 $269 $274 $397 forward $374 $-1 #
coedge $-1 $269 $382 $376 $506 reversed $374 $-1 #
vertex $-1 $270 $516 #
straight-curve $-1 0 20.462489449648263 10.160990198529829 -1 0 0 I I #
coedge $-1 $271 $377 $273 $396 reversed $165 $-1 #
vertex $-1 $388 $517 #
straight-curve $-1 0 -20.462489449648263 10.160990198529829 1 0 0 I I #
edge $-1 $276 -10.160990198529829 $385 10.160990198529829 $273 $518 forward 7 unknown #
edge $-1 $277 -10.160990198529829 $384 10.160990198529829 $274 $519 forward 7 unknown #
point $-1 41.838435010834068 -20.462489449648263 10.160990198529829 #
point $-1 41.838435010834068 20.462489449648263 10.160990198529829 #
face $-1 $-1 $413 $40 $-1 $520 reversed single #
loop $-1 $-1 $409 $279 #
plane-surface $-1 -41.838435010834068 0 0 1 0 0 0 0 -1 forward_v I I I I #
coedge $-1 $521 $282 $406 $522 forward $173 $-1 #
coedge $-1 $282 $521 $523 $524 forward $173 $-1 #
edge $-1 $525 -20.462489449648263 $407 20.462489449648263 $282 $526 forward 7 unknown #
coedge $-1 $284 $416 $403 $522 reversed $280 $-1 #
vertex $-1 $522 $527 #
straight-curve $-1 -28.679098382988496 -20.462489449648263 -4.2516799329963941 0 0 1 I I #
coedge $-1 $528 $529 $286 $410 forward $401 $-1 #
edge $-1 $417 -20.462489449648263 $414 20.462489449648263 $409 $530 forward 7 unknown #
coedge $-1 $523 $287 $291 $419 forward $413 $-1 #
coedge $-1 $287 $523 $528 $531 reversed $413 $-1 #
loop $-1 $-1 $411 $400 #
vertex $-1 $531 $532 #
straight-curve $-1 -17.62938334845564 20.462489449648263 -6.8457295334557475 1 0 0 I I #
coedge $-1 $406 $289 $529 $533 forward $280 $-1 #
vertex $-1 $533 $534 #
straight-curve $-1 -17.62938334845564 -20.462489449648263 -6.8457295334557475 -1 0 0 I I #
edge $-1 $293 2.5940496004593534 $525 5.9093102655334349 $411 $535 forward 7 unknown #
point $-1 -28.679098382988496 -20.462489449648263 -6.8457295334557475 #
point $-1 -28.679098382988496 20.462489449648263 -6.8457295334557475 #
plane-surface $-1 0 -20.462489449648263 0 0 1 0 0 0 1 forward_v I I I I #
coedge $-1 $433 $432 $425 $536 forward $296 $-1 #
coedge $-1 $425 $298 $300 $429 reversed $181 $-1 #
coedge $-1 $298 $424 $423 $536 reversed $181 $-1 #
coedge $-1 $306 $301 $298 $427 forward $307 $-1 #
edge $-1 $430 -35.045610937396624 $537 -24.970726581275926 $426 $538 forward 7 unknown #
coedge $-1 $300 $299 $433 $539 reversed $113 $-1 #
edge $-1 $540 -18.498277898574766 $430 1.2710303291202424e-014 $424 $541 forward 7 unknown #
vertex $-1 $302 $542 #
straight-curve $-1 -12.258316744006503 -20.462489449648263 0.086105842409134672 1 0 0 I I #
coedge $-1 $423 $303 $306 $437 forward $296 $-1 #
coedge $-1 $303 $423 $428 $539 forward $296 $-1 #
vertex $-1 $304 $543 #
straight-curve $-1 -28.679098382988499 -33.018089894216942 10.160990198529831 0 -1 0 I I #
straight-curve $-1 -28.679098382988499 -20.462489449648253 0.086105842409139655 0 0.83867056331134215 0.54463904215088732 I I #
edge $-1 $308 -28.679098382988499 $537 -20.354168593037514 $306 $544 forward 7 unknown #
point $-1 -28.679098382988499 -20.462489449648263 10.160990198529829 #
point $-1 -28.679098382988499 -20.462489449648263 0.08610584240913273 #
edge $-1 $545 1 $545 0 $311 $-1 forward 7 unknown #
vertex $-1 $312 $546 #
ellipse-curve $-1 -27.014112424998302 -11.70895423071547 3.5889884648613135 0 -0.54463904215088732 0.83867056331134215 0.5 0 0 1 I I #
point $-1 -26.514112424998302 -12.705508876904549 5.1235480204694905 #
edge $-1 $547 1 $547 0 $315 $-1 forward 7 unknown #
vertex $-1 $316 $548 #
ellipse-curve $-1 -24.516633488013007 -11.70895423071547 3.5889884648613135 0 -0.54463904215088732 0.83867056331134215 0.5 0 0 1 I I #
point $-1 -24.016633488013007 -12.705508876904549 5.1235480204694905 #
edge $-1 $549 1 $549 0 $319 $-1 forward 7 unknown #
vertex $-1 $320 $550 #
ellipse-curve $-1 -22.019154551027711 -11.70895423071547 3.5889884648613135 0 -0.54463904215088732 0.83867056331134215 0.5 0 0 1 I I #
point $-1 -21.519154551027711 -12.705508876904549 5.1235480204694905 #
loop $-1 $-1 $455 $323 #
plane-surface $-1 41.838435010834068 0 0 -1 0 0 0 0 1 forward_v I I I I #
coedge $-1 $327 $326 $461 $551 reversed $132 $-1 #
coedge $-1 $552 $553 $327 $456 forward $452 $-1 #
edge $-1 $458 -8.5571954749778065 $554 9.9410824235969724 $455 $555 forward 7 unknown #
coedge $-1 $333 $328 $553 $556 reversed $210 $-1 #
vertex $-1 $329 $557 #
straight-curve $-1 18.837985057929284 -20.462489449648263 0.086105842409134672 1 0 0 I I #
coedge $-1 $558 $330 $333 $465 forward $324 $-1 #
coedge $-1 $330 $558 $454 $551 forward $324 $-1 #
vertex $-1 $331 $559 #
straight-curve $-1 33.513505220883076 -33.018089894216942 10.160990198529831 0 -1 0 I I #
straight-curve $-1 33.513505220883076 -20.462489449648253 0.086105842409139655 0 0.83867056331134215 0.54463904215088732 I I #
edge $-1 $334 33.513505220883076 $560 41.838435010834068 $333 $561 forward 7 unknown #
point $-1 33.513505220883076 -20.462489449648263 10.160990198529829 #
point $-1 33.513505220883076 -20.462489449648263 0.08610584240913273 #
edge $-1 $562 1 $562 0 $337 $-1 forward 7 unknown #
vertex $-1 $338 $563 #
ellipse-curve $-1 35.17849117887328 -11.70895423071547 3.5889884648613135 0 -0.54463904215088732 0.83867056331134215 0.5 0 0 1 I I #
point $-1 35.67849117887328 -12.705508876904549 5.1235480204694905 #
edge $-1 $564 1 $564 0 $341 $-1 forward 7 unknown #
vertex $-1 $342 $565 #
ellipse-curve $-1 37.675970115858568 -11.70895423071547 3.5889884648613135 0 -0.54463904215088732 0.83867056331134215 0.5 0 0 1 I I #
point $-1 38.175970115858568 -12.705508876904549 5.1235480204694905 #
edge $-1 $566 1 $566 0 $345 $-1 forward 7 unknown #
vertex $-1 $346 $567 #
ellipse-curve $-1 40.173449052843871 -11.70895423071547 3.5889884648613135 0 -0.54463904215088732 0.83867056331134215 0.5 0 0 1 I I #
point $-1 40.673449052843871 -12.705508876904549 5.1235480204694905 #
plane-surface $-1 0 0 10.160990198529829 0 0 1 1 0 0 forward_v I I I I #
coedge $-1 $357 $568 $485 $569 forward $350 $-1 #
coedge $-1 $483 $352 $568 $570 reversed $239 $-1 #
coedge $-1 $352 $482 $486 $571 reversed $239 $-1 #
edge $-1 $487 21.195991769390691 $572 26.033839254355719 $352 $573 forward 7 unknown #
coedge $-1 $354 $353 $481 $569 reversed $151 $-1 #
coedge $-1 $360 $355 $483 $571 forward $361 $-1 #
vertex $-1 $571 $574 #
straight-curve $-1 16.23298770398927 16.756483299205282 10.160990198529833 1 0 0 I I #
coedge $-1 $568 $357 $360 $493 reversed $350 $-1 #
vertex $-1 $358 $575 #
straight-curve $-1 23.093515805123019 20.462489449648263 48.728776084433193 0 0 1 I I #
straight-curve $-1 23.093515805123019 -10.887862949614806 33.357351425898628 0 0.76604443648966558 -0.64278761758704617 I I #
edge $-1 $576 -41.838435010834068 $362 -23.093515805123019 $489 $577 forward 7 unknown #
point $-1 23.093515805123019 20.462489449648263 10.160990198529829 #
point $-1 23.093515805123019 16.756483299205279 10.160990198529831 #
edge $-1 $578 1 $578 0 $365 $-1 forward 7 unknown #
vertex $-1 $366 $579 #
ellipse-curve $-1 28.44920700675474 17.697848868261886 7.5196887186147112 0 0.64278761758704617 0.76604443648966558 0.5 0 0 1 I I #
point $-1 28.94920700675474 18.609486374426783 8.6061359689747601 #
edge $-1 $580 1 $580 0 $369 $-1 forward 7 unknown #
vertex $-1 $370 $581 #
ellipse-curve $-1 36.48274380920234 17.697848868261886 7.5196887186147112 0 0.64278761758704617 0.76604443648966558 0.5 0 0 1 I I #
point $-1 36.98274380920234 18.609486374426783 8.6061359689747601 #
plane-surface $-1 41.838435010834068 0 0 -1 0 0 0 0 1 forward_v I I I I #
coedge $-1 $378 $376 $380 $509 reversed $261 $-1 #
edge $-1 $391 -10.160990198529829 $511 10.160990198529829 $390 $582 forward 7 unknown #
vertex $-1 $509 $583 #
straight-curve $-1 -41.838435010834068 -20.462489449648263 0 0 0 -1 I I #
edge $-1 $507 -20.462489449648263 $511 20.462489449648263 $505 $584 forward 7 unknown #
straight-curve $-1 0 -20.462489449648263 -10.160990198529829 -1 0 0 I I #
vertex $-1 $383 $585 #
straight-curve $-1 0 20.462489449648263 -10.160990198529829 1 0 0 I I #
point $-1 41.838435010834068 20.462489449648263 -10.160990198529829 #
point $-1 41.838435010834068 -20.462489449648263 -10.160990198529829 #
straight-curve $-1 -41.838435010834068 0 10.160990198529829 0 -1 0 I I #
point $-1 -41.838435010834068 20.462489449648263 10.160990198529829 #
point $-1 -41.838435010834068 -20.462489449648263 10.160990198529829 #
straight-curve $-1 41.838435010834068 -20.462489449648263 0 0 0 -1 I I #
straight-curve $-1 41.838435010834068 20.462489449648263 0 0 0 -1 I I #
plane-surface $-1 0 20.462489449648263 0 0 -1 0 0 0 -1 forward_v I I I I #
coedge $-1 $404 $403 $586 $587 forward $173 $-1 #
edge $-1 $407 28.679098382988496 $588 41.838435010834068 $406 $589 forward 7 unknown #
coedge $-1 $412 $411 $404 $524 reversed $413 $-1 #
edge $-1 $590 -41.838435010834068 $525 -28.679098382988496 $523 $591 forward 7 unknown #
vertex $-1 $419 $592 #
straight-curve $-1 -28.679098382988496 0 -10.160990198529829 0 -1 0 I I #
point $-1 -28.679098382988496 -20.462489449648263 -10.160990198529829 #
coedge $-1 $586 $409 $412 $531 forward $401 $-1 #
coedge $-1 $409 $586 $416 $533 reversed $401 $-1 #
straight-curve $-1 -41.838435010834068 0 -6.8457295334557475 0 1 0 I I #
edge $-1 $414 6.8457295334557475 $590 10.160990198529829 $412 $593 forward 7 unknown #
point $-1 -41.838435010834068 20.462489449648263 -6.8457295334557475 #
edge $-1 $417 6.8457295334557475 $588 10.160990198529829 $529 $594 forward 7 unknown #
point $-1 -41.838435010834068 -20.462489449648263 -6.8457295334557475 #
straight-curve $-1 -28.679098382988496 20.462489449648263 -4.2516799329963941 0 0 -1 I I #
edge $-1 $537 12.555600444568679 $540 28.069561590056139 $423 $595 forward 7 unknown #
vertex $-1 $427 $596 #
straight-curve $-1 -20.354168593037514 -20.462489449648263 35.131716779805757 0 0 1 I I #
edge $-1 $540 8.0958518490310105 $434 16.420781638981996 $433 $597 forward 7 unknown #
vertex $-1 $539 $598 #
straight-curve $-1 -20.354168593037514 -20.462489449648253 0.086105842409139655 0 -0.83867056331134215 -0.54463904215088732 I I #
point $-1 -20.354168593037514 -20.462489449648263 0.08610584240913273 #
point $-1 -28.679098382988499 -4.9485283041608028 10.160990198529829 #
straight-curve $-1 0 -20.462489449648263 10.160990198529829 1 0 0 I I #
vertex $-1 $440 $599 #
point $-1 -26.514112424998302 -11.70895423071547 3.5889884648613135 #
vertex $-1 $444 $600 #
point $-1 -24.016633488013007 -11.70895423071547 3.5889884648613135 #
vertex $-1 $448 $601 #
point $-1 -21.519154551027711 -11.70895423071547 3.5889884648613135 #
edge $-1 $554 -23.000449952904777 $462 -14.675520162953791 $461 $602 forward 7 unknown #
coedge $-1 $553 $455 $558 $603 reversed $452 $-1 #
coedge $-1 $455 $552 $457 $556 forward $452 $-1 #
vertex $-1 $456 $604 #
straight-curve $-1 41.838435010834068 -13.285821500283358 4.7466885893989526 0 0.83867056331134215 0.54463904215088732 I I #
edge $-1 $560 -10.160990198529829 $458 -0.08610584240913273 $553 $605 forward 7 unknown #
point $-1 41.838435010834061 -20.462489449648263 0.08610584240913273 #
coedge $-1 $461 $460 $552 $603 forward $324 $-1 #
point $-1 33.513505220883076 -4.9485283041608028 10.160990198529829 #
vertex $-1 $603 $606 #
straight-curve $-1 0 -20.462489449648263 10.160990198529829 1 0 0 I I #
vertex $-1 $468 $607 #
point $-1 35.67849117887328 -11.70895423071547 3.5889884648613135 #
vertex $-1 $472 $608 #
point $-1 38.175970115858568 -11.70895423071547 3.5889884648613135 #
vertex $-1 $476 $609 #
point $-1 40.673449052843871 -11.70895423071547 3.5889884648613135 #
coedge $-1 $481 $489 $482 $570 forward $350 $-1 #
edge $-1 $572 -25.605447306844791 $490 -6.8605281011337489 $481 $610 forward 7 unknown #
edge $-1 $576 -10.160990198529829 $572 -7.0512817394196752 $482 $611 forward 7 unknown #
edge $-1 $487 16.756483299205279 $576 20.462489449648263 $483 $612 forward 7 unknown #
vertex $-1 $569 $613 #
straight-curve $-1 41.838435010834068 0.51941172838279481 23.785511250371112 0 0.76604443648966558 -0.64278761758704617 I I #
point $-1 41.838435010834061 16.756483299205279 10.160990198529831 #
point $-1 23.093515805123019 20.46248944964826 7.0512817394196752 #
vertex $-1 $571 $614 #
straight-curve $-1 0 20.462489449648263 10.160990198529829 -1 0 0 I I #
vertex $-1 $496 $615 #
point $-1 28.94920700675474 17.697848868261886 7.5196887186147112 #
vertex $-1 $500 $616 #
point $-1 36.98274380920234 17.697848868261886 7.5196887186147112 #
straight-curve $-1 -41.838435010834068 20.462489449648263 0 0 0 -1 I I #
point $-1 -41.838435010834068 -20.462489449648263 -10.160990198529829 #
straight-curve $-1 -41.838435010834068 0 -10.160990198529829 0 1 0 I I #
point $-1 -41.838435010834068 20.462489449648263 -10.160990198529829 #
coedge $-1 $529 $528 $521 $587 reversed $401 $-1 #
edge $-1 $588 -20.462489449648263 $590 20.462489449648263 $586 $617 forward 7 unknown #
vertex $-1 $587 $618 #
straight-curve $-1 0 -20.462489449648263 -10.160990198529829 -1 0 0 I I #
vertex $-1 $524 $619 #
straight-curve $-1 0 20.462489449648263 -10.160990198529829 1 0 0 I I #
point $-1 -28.679098382988496 20.462489449648263 -10.160990198529829 #
straight-curve $-1 -41.838435010834068 20.462489449648263 0 0 0 -1 I I #
straight-curve $-1 -41.838435010834068 -20.462489449648263 0 0 0 -1 I I #
straight-curve $-1 -20.354168593037514 -33.018089894216942 10.160990198529831 0 1 0 I I #
point $-1 -20.354168593037514 -20.462489449648263 10.160990198529829 #
straight-curve $-1 -12.258316744006503 -4.9485283041608037 10.160990198529829 -1 0 0 I I #
point $-1 -20.354168593037514 -4.9485283041608028 10.160990198529829 #
point $-1 -27.014112424998302 -11.436634709640028 3.169653183205642 #
point $-1 -24.516633488013007 -11.436634709640028 3.169653183205642 #
point $-1 -22.019154551027711 -11.436634709640028 3.169653183205642 #
straight-curve $-1 18.837985057929284 -4.9485283041608037 10.160990198529829 -1 0 0 I I #
edge $-1 $560 -20.462489449648263 $554 -4.9485283041608028 $552 $620 forward 7 unknown #
point $-1 41.838435010834061 -4.9485283041608028 10.160990198529829 #
straight-curve $-1 41.838435010834068 -20.462489449648263 0 0 0 -1 I I #
point $-1 41.838435010834068 -20.462489449648263 10.160990198529829 #
point $-1 35.17849117887328 -11.436634709640028 3.169653183205642 #
point $-1 37.675970115858568 -11.436634709640028 3.169653183205642 #
point $-1 40.173449052843871 -11.436634709640028 3.169653183205642 #
straight-curve $-1 16.23298770398927 20.46248944964826 7.0512817394196734 -1 0 0 I I #
straight-curve $-1 41.838435010834068 20.462489449648263 0 0 0 -1 I I #
straight-curve $-1 41.838435010834068 0 10.160990198529829 0 1 0 I I #
point $-1 41.838435010834061 20.46248944964826 7.0512817394196752 #
point $-1 41.838435010834068 20.462489449648263 10.160990198529829 #
point $-1 28.44920700675474 17.376455059468363 7.1366665003698788 #
point $-1 36.48274380920234 17.376455059468363 7.1366665003698788 #
straight-curve $-1 -41.838435010834068 0 -10.160990198529829 0 1 0 I I #
point $-1 -41.838435010834068 -20.462489449648263 -10.160990198529829 #
point $-1 -41.838435010834068 20.462489449648263 -10.160990198529829 #
straight-curve $-1 41.838435010834068 0 10.160990198529829 0 1 0 I I #
End-of-ACIS-data 