500 0 11 0           
7 Unknown 11 ACIS 5.0 NT 24 Fri Mar 26 01:44:13 1999 
-1 9.9999999999999995e-007 1e-010 
body $-1 $11 $-1 $12 #
body $-1 $13 $-1 $14 #
body $-1 $15 $-1 $16 #
body $-1 $17 $-1 $18 #
body $-1 $19 $-1 $20 #
body $-1 $21 $-1 $22 #
body $-1 $23 $-1 $24 #
body $-1 $25 $-1 $26 #
body $-1 $27 $-1 $28 #
body $-1 $29 $-1 $30 #
body $-1 $31 $-1 $32 #
lump $-1 $-1 $33 $0 #
transform $-1 1 0 0 0 1 0 0 0 1 60.315561387981809 40.865187201689238 14.233786066823312 1 rotate no_reflect no_shear #
lump $-1 $-1 $34 $1 #
transform $-1 1 0 0 0 1 0 0 0 1 60.315561387981809 40.865187201689238 14.233786066823312 1 rotate no_reflect no_shear #
lump $-1 $-1 $35 $2 #
transform $-1 1 0 0 0 1 0 0 0 1 60.315561387981809 40.865187201689238 14.233786066823312 1 rotate no_reflect no_shear #
lump $-1 $-1 $36 $3 #
transform $-1 1 0 0 0 1 0 0 0 1 60.315561387981809 40.865187201689238 14.233786066823312 1 rotate no_reflect no_shear #
lump $-1 $-1 $37 $4 #
transform $-1 1 0 0 0 1 0 0 0 1 60.315561387981809 40.865187201689238 14.233786066823312 1 rotate no_reflect no_shear #
lump $-1 $-1 $38 $5 #
transform $-1 1 0 0 0 1 0 0 0 1 60.315561387981809 40.865187201689238 14.233786066823312 1 rotate no_reflect no_shear #
lump $-1 $-1 $39 $6 #
transform $-1 1 0 0 0 1 0 0 0 1 60.315561387981809 40.865187201689238 14.233786066823312 1 rotate no_reflect no_shear #
lump $-1 $-1 $40 $7 #
transform $-1 1 0 0 0 1 0 0 0 1 60.315561387981809 40.865187201689238 14.233786066823312 1 rotate no_reflect no_shear #
lump $-1 $-1 $41 $8 #
transform $-1 1 0 0 0 1 0 0 0 1 60.315561387981809 40.865187201689238 14.233786066823312 1 rotate no_reflect no_shear #
lump $-1 $-1 $42 $9 #
transform $-1 1 0 0 0 1 0 0 0 1 60.315561387981809 40.865187201689238 14.233786066823312 1 rotate no_reflect no_shear #
lump $-1 $-1 $43 $10 #
transform $-1 1 0 0 0 1 0 0 0 1 60.315561387981809 40.865187201689238 14.233786066823312 1 rotate no_reflect no_shear #
shell $-1 $-1 $-1 $44 $-1 $11 #
shell $-1 $-1 $-1 $45 $-1 $13 #
shell $-1 $-1 $-1 $46 $-1 $15 #
shell $-1 $-1 $-1 $47 $-1 $17 #
shell $-1 $-1 $-1 $48 $-1 $19 #
shell $-1 $-1 $-1 $49 $-1 $21 #
shell $-1 $-1 $-1 $50 $-1 $23 #
shell $-1 $-1 $-1 $51 $-1 $25 #
shell $-1 $-1 $-1 $52 $-1 $27 #
shell $-1 $-1 $-1 $53 $-1 $29 #
shell $-1 $-1 $-1 $54 $-1 $31 #
face $-1 $55 $56 $33 $-1 $57 forward single #
face $-1 $58 $59 $34 $-1 $60 reversed single #
face $-1 $61 $62 $35 $-1 $63 reversed single #
face $-1 $64 $65 $36 $-1 $66 reversed single #
face $-1 $67 $68 $37 $-1 $69 forward single #
face $-1 $70 $71 $38 $-1 $72 forward single #
face $-1 $73 $74 $39 $-1 $75 forward single #
face $-1 $76 $77 $40 $-1 $78 reversed single #
face $-1 $79 $80 $41 $-1 $81 forward single #
face $-1 $82 $83 $42 $-1 $84 reversed single #
face $-1 $85 $86 $43 $-1 $87 forward single #
face $-1 $88 $89 $33 $-1 $90 reversed single #
loop $-1 $-1 $91 $44 #
plane-surface $-1 0 0 14.233786066823312 0 0 1 1 0 0 forward_v I I I I #
face $-1 $92 $93 $34 $-1 $94 reversed single #
loop $-1 $-1 $95 $45 #
plane-surface $-1 0 -33.154104080403656 7.2986868951922776 0 0 1 1 0 0 forward_v I I I I #
face $-1 $96 $97 $35 $-1 $98 reversed single #
loop $-1 $-1 $99 $46 #
plane-surface $-1 0 33.154104080403656 7.2986868951922776 0 0 1 1 0 0 forward_v I I I I #
face $-1 $100 $101 $36 $-1 $102 reversed single #
loop $-1 $-1 $103 $47 #
plane-surface $-1 -137.85575340399393 -3.6435899031849743 93.389661151115845 0 1 0 -0.64278761758704617 0 0.76604443648966558 forward_v I I I I #
face $-1 $104 $105 $37 $-1 $106 forward single #
loop $-1 $107 $108 $48 #
cone-surface $-1 -52.060187023038921 -1.2311475679516946 7.1803612003167725 0.64278761758704617 0 -0.76604443648966558 0.76604443648966558 0 0.64278761758704617 1 I I 0 1 1 forward I I I I #
face $-1 $109 $110 $38 $-1 $111 forward single #
loop $-1 $112 $113 $49 #
cone-surface $-1 -52.060187023038921 2.387515934898218 7.1803612003167725 0.64278761758704617 0 -0.76604443648966558 0.76604443648966558 0 0.64278761758704617 1 I I 0 1 1 forward I I I I #
face $-1 $114 $115 $39 $-1 $116 forward single #
loop $-1 $117 $118 $50 #
cone-surface $-1 -52.060187023038921 6.0061794377481306 7.1803612003167725 0.64278761758704617 0 -0.76604443648966558 0.76604443648966558 0 0.64278761758704617 1 I I 0 1 1 forward I I I I #
face $-1 $119 $120 $40 $-1 $121 reversed single #
loop $-1 $-1 $122 $51 #
plane-surface $-1 84.058240016042134 -5.2969652738030106 172.87061924890915 0 -1 0 -0.79863551827123203 0 -0.60181501223851219 forward_v I I I I #
face $-1 $123 $124 $41 $-1 $125 forward single #
loop $-1 $126 $127 $52 #
cone-surface $-1 55.424787800985143 -9.4948247191408441 8.3224840354665872 -0.79863551827123203 0 -0.60181501223851219 0.90272251835776829 0 -1.197953277406848 1 I I 0 1 1.5 forward I I I I #
face $-1 $128 $129 $42 $-1 $130 reversed single #
loop $-1 $-1 $131 $53 #
plane-surface $-1 84.058240016042134 20.146055685315059 172.87061924890915 0 -1 0 -0.79863551827123203 0 -0.60181501223851219 forward_v I I I I #
face $-1 $132 $133 $43 $-1 $134 forward single #
loop $-1 $135 $136 $54 #
cone-surface $-1 55.424787800985143 15.948196239977229 8.3224840354665872 -0.79863551827123203 0 -0.60181501223851219 0.90272251835776829 0 -1.197953277406848 1 I I 0 1 1.5 forward I I I I #
face $-1 $137 $138 $33 $-1 $139 reversed single #
loop $-1 $-1 $140 $55 #
plane-surface $-1 0 0 -14.233786066823312 0 0 1 1 0 0 forward_v I I I I #
coedge $-1 $141 $142 $143 $144 forward $56 $-1 #
face $-1 $145 $146 $34 $-1 $147 reversed single #
loop $-1 $-1 $148 $58 #
plane-surface $-1 0 -25.443020959118073 10.766236481007796 0 -1 0 0 0 -1 forward_v I I I I #
coedge $-1 $149 $150 $151 $152 reversed $59 $-1 #
face $-1 $153 $154 $35 $-1 $155 forward single #
loop $-1 $-1 $156 $61 #
plane-surface $-1 0 25.443020959118073 10.766236481007796 0 1 0 0 0 1 forward_v I I I I #
coedge $-1 $157 $158 $159 $160 reversed $62 $-1 #
face $-1 $161 $162 $36 $-1 $163 reversed single #
loop $-1 $-1 $164 $64 #
plane-surface $-1 -60.315561387981802 2.387515934898218 0.98086068108712254 -0.64278761758704617 0 0.76604443648966558 0.76604443648966558 0 0.64278761758704617 forward_v I I I I #
coedge $-1 $165 $166 $167 $168 reversed $65 $-1 #
face $-1 $-1 $169 $37 $-1 $170 forward single #
loop $-1 $171 $172 $67 #
cone-surface $-1 -51.380529404314913 -1.2311475679516946 6.3703768084335 0.64278761758704617 0 -0.76604443648966558 0.38302221824483279 0 0.32139380879352308 1 I I -0.70710678118654746 0.70710678118654746 0.5 forward I I I I #
loop $-1 $-1 $173 $48 #
coedge $-1 $108 $108 $174 $175 reversed $68 $-1 #
face $-1 $-1 $176 $38 $-1 $177 forward single #
loop $-1 $178 $179 $70 #
cone-surface $-1 -51.380529404314913 2.387515934898218 6.3703768084335 0.64278761758704617 0 -0.76604443648966558 0.38302221824483279 0 0.32139380879352308 1 I I -0.70710678118654746 0.70710678118654746 0.5 forward I I I I #
loop $-1 $-1 $180 $49 #
coedge $-1 $113 $113 $181 $182 reversed $71 $-1 #
face $-1 $-1 $183 $39 $-1 $184 forward single #
loop $-1 $185 $186 $73 #
cone-surface $-1 -51.380529404314913 6.0061794377481306 6.3703768084335 0.64278761758704617 0 -0.76604443648966558 0.38302221824483279 0 0.32139380879352308 1 I I -0.70710678118654746 0.70710678118654746 0.5 forward I I I I #
loop $-1 $-1 $187 $50 #
coedge $-1 $118 $118 $188 $189 reversed $74 $-1 #
face $-1 $190 $191 $40 $-1 $192 reversed single #
loop $-1 $-1 $193 $76 #
plane-surface $-1 -12.282059241780203 -9.4948247191408477 100.27299861914713 0.79863551827123203 0 0.60181501223851219 0.60181501223851219 0 -0.79863551827123203 forward_v I I I I #
coedge $-1 $194 $195 $196 $197 reversed $77 $-1 #
face $-1 $-1 $198 $41 $-1 $199 forward single #
loop $-1 $200 $201 $79 #
cone-surface $-1 53.816250268629183 -9.4948247191408441 7.11036409768022 -0.79863551827123203 0 -0.60181501223851219 0.45136125917888414 0 -0.59897663870342399 1 I I -0.70710678118654757 0.70710678118654757 0.75 forward I I I I #
loop $-1 $-1 $202 $52 #
coedge $-1 $127 $127 $203 $204 reversed $80 $-1 #
face $-1 $205 $206 $42 $-1 $207 reversed single #
loop $-1 $-1 $208 $82 #
plane-surface $-1 -12.282059241780203 15.948196239977221 100.27299861914713 0.79863551827123203 0 0.60181501223851219 0.60181501223851219 0 -0.79863551827123203 forward_v I I I I #
coedge $-1 $209 $210 $211 $212 reversed $83 $-1 #
face $-1 $-1 $213 $43 $-1 $214 forward single #
loop $-1 $215 $216 $85 #
cone-surface $-1 53.816250268629183 15.948196239977229 7.11036409768022 -0.79863551827123203 0 -0.60181501223851219 0.45136125917888414 0 -0.59897663870342399 1 I I -0.70710678118654757 0.70710678118654757 0.75 forward I I I I #
loop $-1 $-1 $217 $54 #
coedge $-1 $136 $136 $218 $219 reversed $86 $-1 #
face $-1 $220 $221 $33 $-1 $222 reversed single #
loop $-1 $-1 $223 $88 #
plane-surface $-1 0 -40.865187201689238 0 0 1 0 0 0 1 forward_v I I I I #
coedge $-1 $224 $225 $226 $227 forward $89 $-1 #
coedge $-1 $228 $91 $229 $230 forward $56 $-1 #
coedge $-1 $91 $228 $231 $232 forward $56 $-1 #
coedge $-1 $233 $234 $91 $144 reversed $235 $-1 #
edge $-1 $236 -40.865187201689238 $237 40.865187201689238 $143 $238 forward 7 unknown #
face $-1 $239 $240 $34 $-1 $241 reversed single #
loop $-1 $-1 $242 $92 #
plane-surface $-1 -60.315561387981809 0 0 1 0 0 0 0 -1 forward_v I I I I #
coedge $-1 $243 $244 $245 $246 reversed $93 $-1 #
coedge $-1 $247 $95 $248 $249 reversed $59 $-1 #
coedge $-1 $95 $247 $243 $250 forward $59 $-1 #
coedge $-1 $245 $251 $95 $152 forward $252 $-1 #
edge $-1 $253 -24.288135161487411 $254 -8.8659689189162449 $151 $255 forward 7 unknown #
face $-1 $256 $257 $35 $-1 $258 reversed single #
loop $-1 $-1 $259 $96 #
plane-surface $-1 0 0 14.233786066823312 0 0 1 1 0 0 forward_v I I I I #
coedge $-1 $260 $261 $262 $263 reversed $97 $-1 #
coedge $-1 $264 $99 $260 $265 forward $62 $-1 #
coedge $-1 $99 $264 $266 $267 reversed $62 $-1 #
coedge $-1 $268 $269 $99 $160 forward $257 $-1 #
edge $-1 $270 8.8659689189162449 $271 24.288135161487411 $159 $272 forward 7 unknown #
face $-1 $273 $274 $36 $-1 $275 reversed single #
loop $-1 $-1 $276 $100 #
plane-surface $-1 -137.85575340399393 8.4186217729814103 93.389661151115845 0 -1 0 0.64278761758704617 0 -0.76604443648966558 forward_v I I I I #
coedge $-1 $277 $278 $279 $280 reversed $101 $-1 #
coedge $-1 $166 $103 $281 $282 reversed $65 $-1 #
coedge $-1 $103 $165 $277 $283 reversed $65 $-1 #
coedge $-1 $279 $284 $103 $168 forward $285 $-1 #
edge $-1 $286 8.6123153140151558 $287 24.406536424039949 $167 $288 forward 7 unknown #
loop $-1 $-1 $174 $104 #
plane-surface $-1 -60.315561387981802 2.387515934898218 0.98086068108712254 -0.64278761758704617 0 0.76604443648966558 0.76604443648966558 0 0.64278761758704617 forward_v I I I I #
loop $-1 $-1 $289 $67 #
coedge $-1 $172 $172 $173 $290 reversed $105 $-1 #
coedge $-1 $173 $173 $172 $290 forward $107 $-1 #
coedge $-1 $174 $174 $108 $175 forward $169 $-1 #
edge $-1 $291 0 $291 6.2831853071796004 $174 $292 forward 7 unknown #
loop $-1 $-1 $181 $109 #
plane-surface $-1 -60.315561387981802 2.387515934898218 0.98086068108712254 -0.64278761758704617 0 0.76604443648966558 0.76604443648966558 0 0.64278761758704617 forward_v I I I I #
loop $-1 $-1 $293 $70 #
coedge $-1 $179 $179 $180 $294 reversed $110 $-1 #
coedge $-1 $180 $180 $179 $294 forward $112 $-1 #
coedge $-1 $181 $181 $113 $182 forward $176 $-1 #
edge $-1 $295 0 $295 6.2831853071796004 $181 $296 forward 7 unknown #
loop $-1 $-1 $188 $114 #
plane-surface $-1 -60.315561387981802 2.387515934898218 0.98086068108712254 -0.64278761758704617 0 0.76604443648966558 0.76604443648966558 0 0.64278761758704617 forward_v I I I I #
loop $-1 $-1 $297 $73 #
coedge $-1 $186 $186 $187 $298 reversed $115 $-1 #
coedge $-1 $187 $187 $186 $298 forward $117 $-1 #
coedge $-1 $188 $188 $118 $189 forward $183 $-1 #
edge $-1 $299 0 $299 6.2831853071796004 $188 $300 forward 7 unknown #
face $-1 $301 $302 $40 $-1 $303 forward single #
loop $-1 $-1 $304 $119 #
plane-surface $-1 84.058240016042134 -13.692684164478685 172.87061924890915 0 1 0 0.79863551827123203 0 0.60181501223851219 forward_v I I I I #
coedge $-1 $305 $306 $307 $308 reversed $120 $-1 #
coedge $-1 $195 $122 $309 $310 reversed $77 $-1 #
coedge $-1 $122 $194 $305 $311 reversed $77 $-1 #
coedge $-1 $307 $312 $122 $197 forward $302 $-1 #
edge $-1 $313 -18.286441379960742 $314 -10.524015993272471 $196 $315 forward 7 unknown #
loop $-1 $-1 $203 $123 #
plane-surface $-1 -12.282059241780203 -9.4948247191408477 100.27299861914713 0.79863551827123203 0 0.60181501223851219 0.60181501223851219 0 -0.79863551827123203 forward_v I I I I #
loop $-1 $-1 $316 $79 #
coedge $-1 $201 $201 $202 $317 reversed $124 $-1 #
coedge $-1 $202 $202 $201 $317 forward $126 $-1 #
coedge $-1 $203 $203 $127 $204 forward $198 $-1 #
edge $-1 $318 0 $318 6.2831853071796004 $203 $319 forward 7 unknown #
face $-1 $320 $321 $42 $-1 $322 reversed single #
loop $-1 $-1 $323 $128 #
plane-surface $-1 84.058240016042134 11.750336794639384 172.87061924890915 0 1 0 0.79863551827123203 0 0.60181501223851219 forward_v I I I I #
coedge $-1 $324 $325 $326 $327 reversed $129 $-1 #
coedge $-1 $210 $131 $328 $329 reversed $83 $-1 #
coedge $-1 $131 $209 $324 $330 reversed $83 $-1 #
coedge $-1 $326 $331 $131 $212 forward $332 $-1 #
edge $-1 $333 -18.286441379960742 $334 -10.524015993272471 $211 $335 forward 7 unknown #
loop $-1 $-1 $218 $132 #
plane-surface $-1 -12.282059241780203 15.948196239977221 100.27299861914713 0.79863551827123203 0 0.60181501223851219 0.60181501223851219 0 -0.79863551827123203 forward_v I I I I #
loop $-1 $-1 $336 $85 #
coedge $-1 $216 $216 $217 $337 reversed $133 $-1 #
coedge $-1 $217 $217 $216 $337 forward $135 $-1 #
coedge $-1 $218 $218 $136 $219 forward $213 $-1 #
edge $-1 $338 0 $338 6.2831853071796004 $218 $339 forward 7 unknown #
face $-1 $340 $341 $33 $-1 $342 reversed single #
loop $-1 $-1 $343 $137 #
plane-surface $-1 -60.315561387981809 0 0 1 0 0 0 0 -1 forward_v I I I I #
coedge $-1 $344 $231 $345 $346 forward $138 $-1 #
coedge $-1 $347 $140 $344 $348 forward $89 $-1 #
coedge $-1 $140 $347 $349 $350 forward $89 $-1 #
coedge $-1 $234 $233 $140 $227 reversed $235 $-1 #
edge $-1 $351 -40.865187201689238 $352 40.865187201689238 $226 $353 forward 7 unknown #
coedge $-1 $142 $141 $354 $355 forward $56 $-1 #
coedge $-1 $356 $357 $141 $230 reversed $341 $-1 #
edge $-1 $237 -60.315561387981809 $358 60.315561387981809 $229 $359 forward 7 unknown #
coedge $-1 $223 $360 $142 $232 reversed $138 $-1 #
edge $-1 $361 -60.315561387981809 $236 60.315561387981809 $231 $362 forward 7 unknown #
coedge $-1 $226 $143 $360 $363 forward $235 $-1 #
coedge $-1 $143 $226 $356 $364 reversed $235 $-1 #
loop $-1 $-1 $233 $340 #
vertex $-1 $144 $365 #
vertex $-1 $144 $366 #
straight-curve $-1 60.315561387981809 0 14.233786066823312 0 1 0 I I #
face $-1 $367 $368 $34 $-1 $369 forward single #
loop $-1 $-1 $248 $145 #
plane-surface $-1 0 -40.865187201689238 0 0 1 0 0 0 1 forward_v I I I I #
coedge $-1 $370 $371 $372 $373 forward $146 $-1 #
coedge $-1 $372 $148 $150 $250 reversed $93 $-1 #
coedge $-1 $148 $372 $374 $375 reversed $93 $-1 #
coedge $-1 $376 $151 $148 $246 forward $252 $-1 #
edge $-1 $254 1.9155686546883794 $377 8.8506678263194161 $245 $378 forward 7 unknown #
coedge $-1 $150 $149 $370 $379 reversed $59 $-1 #
coedge $-1 $380 $381 $149 $249 forward $240 $-1 #
edge $-1 $382 -60.315561387981809 $253 60.315561387981809 $248 $383 forward 7 unknown #
edge $-1 $384 -60.315561387981809 $254 60.315561387981809 $243 $385 forward 7 unknown #
coedge $-1 $151 $376 $380 $386 forward $252 $-1 #
loop $-1 $-1 $245 $367 #
vertex $-1 $249 $387 #
vertex $-1 $152 $388 #
straight-curve $-1 60.315561387981809 -16.577052040201828 7.2986868951922776 0 1 0 I I #
face $-1 $389 $390 $35 $-1 $391 reversed single #
loop $-1 $-1 $269 $153 #
plane-surface $-1 60.315561387981809 0 0 -1 0 0 0 0 1 forward_v I I I I #
coedge $-1 $392 $393 $261 $394 forward $154 $-1 #
coedge $-1 $395 $156 $157 $265 reversed $97 $-1 #
coedge $-1 $156 $395 $259 $394 reversed $97 $-1 #
coedge $-1 $396 $397 $156 $263 forward $390 $-1 #
edge $-1 $398 1.9155686546883794 $399 8.8506678263194161 $262 $400 forward 7 unknown #
coedge $-1 $158 $157 $397 $401 reversed $62 $-1 #
edge $-1 $270 -60.315561387981809 $398 60.315561387981809 $260 $402 forward 7 unknown #
coedge $-1 $403 $404 $158 $267 forward $405 $-1 #
edge $-1 $271 -60.315561387981809 $406 60.315561387981809 $266 $407 forward 7 unknown #
coedge $-1 $408 $159 $404 $409 reversed $257 $-1 #
coedge $-1 $159 $408 $395 $410 forward $257 $-1 #
vertex $-1 $160 $411 #
vertex $-1 $267 $412 #
straight-curve $-1 60.315561387981809 16.577052040201828 7.2986868951922776 0 1 0 I I #
face $-1 $-1 $285 $36 $-1 $413 forward single #
loop $-1 $-1 $414 $161 #
plane-surface $-1 -60.315561387981809 0 0 1 0 0 0 0 -1 forward_v I I I I #
coedge $-1 $415 $416 $417 $418 reversed $162 $-1 #
coedge $-1 $419 $164 $166 $283 forward $101 $-1 #
coedge $-1 $164 $419 $415 $420 forward $101 $-1 #
coedge $-1 $417 $167 $164 $280 forward $285 $-1 #
edge $-1 $287 -4.8373478706340833 $421 7.2248638055323013 $279 $422 forward 7 unknown #
coedge $-1 $423 $424 $165 $282 forward $274 $-1 #
edge $-1 $425 -45.713969894470807 $286 -32.461044508734609 $281 $426 forward 7 unknown #
edge $-1 $287 -20.617891544778367 $425 9.2967162063127932e-015 $166 $427 forward 7 unknown #
coedge $-1 $167 $417 $423 $428 forward $285 $-1 #
loop $-1 $-1 $417 $273 #
vertex $-1 $282 $429 #
vertex $-1 $168 $430 #
straight-curve $-1 -68.927876701996965 -3.6435899031849743 14.233786066823313 1 0 0 I I #
coedge $-1 $289 $289 $-1 $431 reversed $171 $-1 #
edge $-1 $432 0 $432 6.2831853071796004 $172 $433 forward 7 unknown #
vertex $-1 $175 $434 #
ellipse-curve $-1 -52.418450832969413 -1.2311475679516946 7.6073233739552171 -0.64278761758704617 0 0.76604443648966558 0.76604443648966558 0 0.64278761758704617 1 I I #
coedge $-1 $293 $293 $-1 $435 reversed $178 $-1 #
edge $-1 $436 0 $436 6.2831853071796004 $179 $437 forward 7 unknown #
vertex $-1 $182 $438 #
ellipse-curve $-1 -52.418450832969413 2.387515934898218 7.6073233739552171 -0.64278761758704617 0 0.76604443648966558 0.76604443648966558 0 0.64278761758704617 1 I I #
coedge $-1 $297 $297 $-1 $439 reversed $185 $-1 #
edge $-1 $440 0 $440 6.2831853071796004 $186 $441 forward 7 unknown #
vertex $-1 $189 $442 #
ellipse-curve $-1 -52.418450832969413 6.0061794377481306 7.6073233739552171 -0.64278761758704617 0 0.76604443648966558 0.76604443648966558 0 0.64278761758704617 1 I I #
face $-1 $-1 $443 $40 $-1 $444 reversed single #
loop $-1 $-1 $196 $190 #
plane-surface $-1 0 0 14.233786066823312 0 0 1 1 0 0 forward_v I I I I #
coedge $-1 $445 $446 $447 $448 reversed $191 $-1 #
coedge $-1 $449 $193 $195 $311 forward $120 $-1 #
coedge $-1 $193 $449 $445 $450 forward $120 $-1 #
coedge $-1 $447 $196 $193 $308 forward $302 $-1 #
edge $-1 $314 0.54955291423258679 $451 8.9452718049082609 $307 $452 forward 7 unknown #
coedge $-1 $453 $454 $194 $310 forward $443 $-1 #
edge $-1 $455 -82.502610263129782 $313 -72.201523557631262 $309 $456 forward 7 unknown #
edge $-1 $314 107.73276492707058 $455 120.63112277596363 $195 $457 forward 7 unknown #
coedge $-1 $196 $447 $453 $458 forward $302 $-1 #
vertex $-1 $310 $459 #
vertex $-1 $197 $460 #
straight-curve $-1 42.029120008021067 -5.2969652738030106 14.233786066823313 -1 0 0 I I #
coedge $-1 $316 $316 $-1 $461 reversed $200 $-1 #
edge $-1 $462 0 $462 6.2831853071796004 $201 $463 forward 7 unknown #
vertex $-1 $204 $464 #
ellipse-curve $-1 56.434348694637663 -9.4948247191408441 9.083242714074057 0.79863551827123203 0 0.60181501223851219 0.90272251835776829 0 -1.197953277406848 1 I I #
face $-1 $-1 $332 $42 $-1 $465 forward single #
loop $-1 $-1 $466 $205 #
plane-surface $-1 60.315561387981809 0 0 -1 0 0 0 0 1 forward_v I I I I #
coedge $-1 $467 $468 $469 $470 reversed $206 $-1 #
coedge $-1 $471 $208 $210 $330 forward $129 $-1 #
coedge $-1 $208 $471 $467 $472 forward $129 $-1 #
coedge $-1 $469 $211 $208 $327 forward $332 $-1 #
edge $-1 $334 -12.171957565326448 $473 -3.7762386746507737 $326 $474 forward 7 unknown #
coedge $-1 $475 $476 $209 $329 forward $321 $-1 #
edge $-1 $477 -82.502610263129782 $333 -72.201523557631262 $328 $478 forward 7 unknown #
edge $-1 $334 107.73276492707058 $477 120.63112277596363 $210 $479 forward 7 unknown #
coedge $-1 $211 $469 $475 $480 forward $332 $-1 #
loop $-1 $-1 $469 $320 #
vertex $-1 $329 $481 #
vertex $-1 $212 $482 #
straight-curve $-1 42.029120008021067 20.146055685315059 14.233786066823313 -1 0 0 I I #
coedge $-1 $336 $336 $-1 $483 reversed $215 $-1 #
edge $-1 $484 0 $484 6.2831853071796004 $216 $485 forward 7 unknown #
vertex $-1 $219 $486 #
ellipse-curve $-1 56.434348694637663 15.948196239977229 9.083242714074057 0.79863551827123203 0 0.60181501223851219 0.90272251835776829 0 -1.197953277406848 1 I I #
face $-1 $-1 $235 $33 $-1 $487 reversed single #
loop $-1 $-1 $356 $220 #
plane-surface $-1 0 40.865187201689238 0 0 -1 0 0 0 -1 forward_v I I I I #
coedge $-1 $488 $354 $357 $489 forward $221 $-1 #
coedge $-1 $360 $223 $224 $348 reversed $138 $-1 #
coedge $-1 $354 $488 $223 $346 reversed $221 $-1 #
edge $-1 $361 -14.233786066823312 $490 14.233786066823312 $345 $491 forward 7 unknown #
coedge $-1 $225 $224 $488 $492 forward $89 $-1 #
edge $-1 $352 -60.315561387981809 $490 60.315561387981809 $344 $493 forward 7 unknown #
coedge $-1 $357 $356 $225 $350 reversed $341 $-1 #
edge $-1 $494 -60.315561387981809 $351 60.315561387981809 $349 $495 forward 7 unknown #
vertex $-1 $227 $496 #
vertex $-1 $363 $497 #
straight-curve $-1 60.315561387981809 0 -14.233786066823312 0 -1 0 I I #
coedge $-1 $343 $345 $228 $355 reversed $221 $-1 #
edge $-1 $358 -40.865187201689238 $361 40.865187201689238 $354 $498 forward 7 unknown #
coedge $-1 $349 $229 $234 $364 forward $341 $-1 #
coedge $-1 $229 $349 $343 $489 reversed $341 $-1 #
vertex $-1 $230 $499 #
straight-curve $-1 0 40.865187201689238 14.233786066823312 -1 0 0 I I #
coedge $-1 $231 $344 $233 $363 reversed $138 $-1 #
vertex $-1 $355 $500 #
straight-curve $-1 0 -40.865187201689238 14.233786066823312 1 0 0 I I #
edge $-1 $236 -14.233786066823312 $352 14.233786066823312 $233 $501 forward 7 unknown #
edge $-1 $237 -14.233786066823312 $351 14.233786066823312 $234 $502 forward 7 unknown #
point $-1 60.315561387981809 -40.865187201689238 14.233786066823312 #
point $-1 60.315561387981809 40.865187201689238 14.233786066823312 #
face $-1 $-1 $252 $34 $-1 $503 reversed single #
loop $-1 $-1 $374 $239 #
plane-surface $-1 0 0 14.233786066823312 0 0 1 1 0 0 forward_v I I I I #
coedge $-1 $504 $242 $247 $379 forward $146 $-1 #
coedge $-1 $242 $504 $505 $506 reversed $146 $-1 #
coedge $-1 $244 $243 $242 $373 reversed $93 $-1 #
edge $-1 $507 -8.8506678263194161 $384 -1.9155686546883794 $242 $508 forward 7 unknown #
coedge $-1 $505 $509 $244 $375 forward $368 $-1 #
edge $-1 $377 -60.315561387981809 $507 60.315561387981809 $374 $510 forward 7 unknown #
coedge $-1 $251 $245 $509 $511 reversed $252 $-1 #
vertex $-1 $246 $512 #
straight-curve $-1 60.315561387981809 -25.443020959118073 5.3831182405038982 0 0 1 I I #
edge $-1 $384 8.8659689189162449 $382 24.288135161487411 $370 $513 forward 7 unknown #
coedge $-1 $514 $248 $251 $386 reversed $240 $-1 #
coedge $-1 $248 $514 $504 $515 forward $240 $-1 #
vertex $-1 $249 $516 #
straight-curve $-1 0 -40.865187201689238 7.2986868951922776 1 0 0 I I #
vertex $-1 $379 $517 #
straight-curve $-1 0 -25.443020959118073 7.2986868951922776 1 0 0 I I #
edge $-1 $518 -14.233786066823312 $253 -7.2986868951922776 $251 $519 forward 7 unknown #
point $-1 60.315561387981809 -40.865187201689238 7.2986868951922776 #
point $-1 60.315561387981809 -25.443020959118073 7.2986868951922776 #
face $-1 $-1 $405 $35 $-1 $520 reversed single #
loop $-1 $-1 $262 $256 #
plane-surface $-1 -60.315561387981809 0 0 1 0 0 0 0 -1 forward_v I I I I #
coedge $-1 $521 $259 $408 $522 forward $154 $-1 #
coedge $-1 $259 $521 $396 $523 forward $154 $-1 #
edge $-1 $399 -60.315561387981809 $524 60.315561387981809 $259 $525 forward 7 unknown #
coedge $-1 $261 $260 $269 $410 reversed $97 $-1 #
coedge $-1 $526 $262 $393 $523 reversed $390 $-1 #
coedge $-1 $262 $526 $264 $401 forward $390 $-1 #
vertex $-1 $401 $527 #
vertex $-1 $263 $528 #
straight-curve $-1 -60.315561387981809 25.443020959118073 5.3831182405038982 0 0 1 I I #
edge $-1 $406 -24.288135161487411 $398 -8.8659689189162449 $397 $529 forward 7 unknown #
straight-curve $-1 0 25.443020959118073 7.2986868951922776 -1 0 0 I I #
coedge $-1 $530 $266 $526 $531 reversed $405 $-1 #
coedge $-1 $266 $530 $268 $409 forward $405 $-1 #
loop $-1 $-1 $266 $389 #
vertex $-1 $267 $532 #
straight-curve $-1 0 40.865187201689238 7.2986868951922776 -1 0 0 I I #
coedge $-1 $269 $268 $392 $522 reversed $257 $-1 #
edge $-1 $533 -14.233786066823312 $271 -7.2986868951922776 $268 $534 forward 7 unknown #
edge $-1 $524 -8.8506678263194161 $270 -1.9155686546883794 $269 $535 forward 7 unknown #
point $-1 60.315561387981809 25.443020959118073 7.2986868951922776 #
point $-1 60.315561387981809 40.865187201689238 7.2986868951922776 #
plane-surface $-1 0 0 14.233786066823312 0 0 1 1 0 0 forward_v I I I I #
coedge $-1 $424 $423 $416 $536 forward $274 $-1 #
coedge $-1 $416 $276 $278 $420 reversed $162 $-1 #
coedge $-1 $276 $415 $414 $536 reversed $162 $-1 #
coedge $-1 $284 $279 $276 $418 forward $285 $-1 #
edge $-1 $421 -24.406536424039949 $537 -8.6123153140151558 $417 $538 forward 7 unknown #
coedge $-1 $278 $277 $424 $539 reversed $101 $-1 #
edge $-1 $540 -9.2967162063127932e-015 $421 20.617891544778367 $415 $541 forward 7 unknown #
vertex $-1 $280 $542 #
straight-curve $-1 -44.521340277957023 1.193757967449109 14.233786066823313 0 1 0 I I #
coedge $-1 $414 $281 $284 $428 reversed $274 $-1 #
coedge $-1 $281 $414 $419 $539 forward $274 $-1 #
vertex $-1 $282 $543 #
straight-curve $-1 -60.315561387981809 -3.6435899031849743 46.694830575557923 0 0 1 I I #
straight-curve $-1 -60.315561387981802 -3.6435899031849743 0.98086068108712254 -0.76604443648966558 0 -0.64278761758704617 I I #
edge $-1 $537 -8.4186217729814103 $286 3.6435899031849743 $423 $544 forward 7 unknown #
point $-1 -60.315561387981809 -3.6435899031849743 14.233786066823312 #
point $-1 -44.521340277957016 -3.6435899031849743 14.233786066823312 #
edge $-1 $545 1 $545 0 $289 $-1 forward 7 unknown #
vertex $-1 $290 $546 #
ellipse-curve $-1 -51.701923213108437 -1.2311475679516946 6.7533990266783324 -0.64278761758704617 0 0.76604443648966558 0.76604443648966558 0 0.64278761758704617 1 I I #
point $-1 -51.652406396479741 -1.2311475679516946 8.2501109915422592 #
edge $-1 $547 1 $547 0 $293 $-1 forward 7 unknown #
vertex $-1 $294 $548 #
ellipse-curve $-1 -51.701923213108437 2.387515934898218 6.7533990266783324 -0.64278761758704617 0 0.76604443648966558 0.76604443648966558 0 0.64278761758704617 1 I I #
point $-1 -51.652406396479741 2.387515934898218 8.2501109915422592 #
edge $-1 $549 1 $549 0 $297 $-1 forward 7 unknown #
vertex $-1 $298 $550 #
ellipse-curve $-1 -51.701923213108437 6.0061794377481306 6.7533990266783324 -0.64278761758704617 0 0.76604443648966558 0.76604443648966558 0 0.64278761758704617 1 I I #
point $-1 -51.652406396479741 6.0061794377481306 8.2501109915422592 #
loop $-1 $-1 $309 $301 #
plane-surface $-1 60.315561387981809 0 0 -1 0 0 0 0 1 forward_v I I I I #
coedge $-1 $446 $304 $306 $450 reversed $191 $-1 #
coedge $-1 $304 $445 $551 $552 reversed $191 $-1 #
coedge $-1 $312 $307 $304 $448 forward $302 $-1 #
edge $-1 $451 10.524015993272471 $553 18.286441379960742 $447 $554 forward 7 unknown #
coedge $-1 $306 $305 $454 $555 reversed $120 $-1 #
edge $-1 $556 -120.63112277596363 $451 -107.73276492707058 $445 $557 forward 7 unknown #
vertex $-1 $308 $558 #
straight-curve $-1 52.553136001293524 -4.7474123595704238 14.23378606682332 0 -1 0 I I #
coedge $-1 $551 $309 $312 $458 reversed $443 $-1 #
coedge $-1 $309 $551 $449 $555 forward $443 $-1 #
vertex $-1 $310 $559 #
straight-curve $-1 60.315561387981809 -5.2969652738030106 86.435309624454575 0 0 1 I I #
straight-curve $-1 -12.282059241780203 -5.2969652738030106 100.27299861914713 0.60181501223851219 0 -0.79863551827123203 I I #
edge $-1 $553 -13.692684164478685 $313 -5.2969652738030106 $453 $560 forward 7 unknown #
point $-1 60.315561387981809 -5.2969652738030106 14.233786066823312 #
point $-1 52.553136001293538 -5.2969652738030106 14.233786066823313 #
edge $-1 $561 1 $561 0 $316 $-1 forward 7 unknown #
vertex $-1 $317 $562 #
ellipse-curve $-1 54.41522690733261 -9.4948247191408441 7.5617253568591041 0.79863551827123203 0 0.60181501223851219 0.90272251835776829 0 -1.197953277406848 1 I I #
point $-1 57.337071212995447 -9.4948247191408441 7.8852894366672226 #
plane-surface $-1 0 0 14.233786066823312 0 0 1 1 0 0 forward_v I I I I #
coedge $-1 $476 $475 $468 $563 forward $321 $-1 #
coedge $-1 $468 $323 $325 $472 reversed $206 $-1 #
coedge $-1 $323 $467 $466 $563 reversed $206 $-1 #
coedge $-1 $331 $326 $323 $470 forward $332 $-1 #
edge $-1 $473 10.524015993272471 $564 18.286441379960742 $469 $565 forward 7 unknown #
coedge $-1 $325 $324 $476 $566 reversed $129 $-1 #
edge $-1 $567 -120.63112277596363 $473 -107.73276492707058 $467 $568 forward 7 unknown #
vertex $-1 $327 $569 #
straight-curve $-1 52.553136001293524 7.9740981199886107 14.23378606682332 0 -1 0 I I #
coedge $-1 $466 $328 $331 $480 reversed $321 $-1 #
coedge $-1 $328 $466 $471 $566 forward $321 $-1 #
vertex $-1 $329 $570 #
straight-curve $-1 60.315561387981809 20.146055685315059 86.435309624454575 0 0 1 I I #
straight-curve $-1 -12.282059241780203 20.146055685315059 100.27299861914713 0.60181501223851219 0 -0.79863551827123203 I I #
edge $-1 $564 11.750336794639384 $333 20.146055685315059 $475 $571 forward 7 unknown #
point $-1 60.315561387981809 20.146055685315059 14.233786066823312 #
point $-1 52.553136001293538 20.146055685315059 14.233786066823313 #
edge $-1 $572 1 $572 0 $336 $-1 forward 7 unknown #
vertex $-1 $337 $573 #
ellipse-curve $-1 54.41522690733261 15.948196239977229 7.5617253568591041 0.79863551827123203 0 0.60181501223851219 0.90272251835776829 0 -1.197953277406848 1 I I #
point $-1 57.337071212995447 15.948196239977229 7.8852894366672226 #
plane-surface $-1 60.315561387981809 0 0 -1 0 0 0 0 1 forward_v I I I I #
coedge $-1 $345 $343 $347 $492 reversed $221 $-1 #
edge $-1 $358 -14.233786066823312 $494 14.233786066823312 $357 $574 forward 7 unknown #
vertex $-1 $492 $575 #
straight-curve $-1 -60.315561387981809 -40.865187201689238 0 0 0 -1 I I #
edge $-1 $490 -40.865187201689238 $494 40.865187201689238 $488 $576 forward 7 unknown #
straight-curve $-1 0 -40.865187201689238 -14.233786066823312 -1 0 0 I I #
vertex $-1 $350 $577 #
straight-curve $-1 0 40.865187201689238 -14.233786066823312 1 0 0 I I #
point $-1 60.315561387981809 40.865187201689238 -14.233786066823312 #
point $-1 60.315561387981809 -40.865187201689238 -14.233786066823312 #
straight-curve $-1 -60.315561387981809 0 14.233786066823312 0 -1 0 I I #
point $-1 -60.315561387981809 40.865187201689238 14.233786066823312 #
point $-1 -60.315561387981809 -40.865187201689238 14.233786066823312 #
straight-curve $-1 60.315561387981809 -40.865187201689238 0 0 0 -1 I I #
straight-curve $-1 60.315561387981809 40.865187201689238 0 0 0 -1 I I #
plane-surface $-1 60.315561387981809 0 0 -1 0 0 0 0 1 forward_v I I I I #
coedge $-1 $371 $370 $381 $515 reversed $146 $-1 #
coedge $-1 $578 $374 $371 $506 forward $368 $-1 #
edge $-1 $507 25.443020959118073 $579 40.865187201689238 $371 $580 forward 7 unknown #
vertex $-1 $506 $581 #
straight-curve $-1 -60.315561387981809 -25.443020959118073 5.3831182405038982 0 0 -1 I I #
coedge $-1 $374 $578 $376 $511 forward $368 $-1 #
straight-curve $-1 0 -25.443020959118073 14.233786066823312 -1 0 0 I I #
edge $-1 $518 -40.865187201689238 $377 -25.443020959118073 $376 $582 forward 7 unknown #
point $-1 60.315561387981809 -25.443020959118073 14.233786066823315 #
straight-curve $-1 -60.315561387981809 -16.577052040201828 7.2986868951922776 0 -1 0 I I #
coedge $-1 $381 $380 $578 $583 reversed $240 $-1 #
edge $-1 $579 -14.233786066823312 $382 -7.2986868951922776 $504 $584 forward 7 unknown #
point $-1 -60.315561387981809 -40.865187201689238 7.2986868951922776 #
point $-1 -60.315561387981809 -25.443020959118073 7.2986868951922776 #
vertex $-1 $511 $585 #
straight-curve $-1 60.315561387981809 -40.865187201689238 0 0 0 -1 I I #
plane-surface $-1 0 40.865187201689238 0 0 -1 0 0 0 -1 forward_v I I I I #
coedge $-1 $393 $392 $530 $586 forward $154 $-1 #
edge $-1 $524 25.443020959118073 $533 40.865187201689238 $408 $587 forward 7 unknown #
edge $-1 $588 -40.865187201689238 $399 -25.443020959118073 $396 $589 forward 7 unknown #
vertex $-1 $522 $590 #
straight-curve $-1 0 25.443020959118073 14.233786066823312 1 0 0 I I #
coedge $-1 $397 $396 $403 $531 forward $390 $-1 #
point $-1 -60.315561387981809 25.443020959118073 7.2986868951922776 #
point $-1 -60.315561387981809 25.443020959118073 14.233786066823315 #
straight-curve $-1 -60.315561387981809 16.577052040201828 7.2986868951922776 0 -1 0 I I #
coedge $-1 $404 $403 $521 $586 reversed $405 $-1 #
edge $-1 $588 -14.233786066823312 $406 -7.2986868951922776 $403 $591 forward 7 unknown #
point $-1 -60.315561387981809 40.865187201689238 7.2986868951922776 #
vertex $-1 $522 $592 #
straight-curve $-1 60.315561387981809 40.865187201689238 0 0 0 -1 I I #
straight-curve $-1 60.315561387981809 25.443020959118073 5.3831182405038982 0 0 -1 I I #
edge $-1 $537 32.461044508734609 $540 45.713969894470807 $414 $593 forward 7 unknown #
vertex $-1 $428 $594 #
straight-curve $-1 -68.927876701996965 8.4186217729814103 14.233786066823313 -1 0 0 I I #
edge $-1 $540 -7.2248638055323013 $425 4.8373478706340833 $424 $595 forward 7 unknown #
vertex $-1 $539 $596 #
straight-curve $-1 -60.315561387981802 8.4186217729814103 0.98086068108712254 0.76604443648966558 0 0.64278761758704617 I I #
point $-1 -44.521340277957016 8.4186217729814103 14.233786066823312 #
point $-1 -60.315561387981809 -3.6435899031849743 0.98086068108711655 #
straight-curve $-1 -60.315561387981809 0 14.233786066823312 0 -1 0 I I #
vertex $-1 $431 $597 #
point $-1 -50.935878776618772 -1.2311475679516946 7.396186644265379 #
vertex $-1 $435 $598 #
point $-1 -50.935878776618772 2.387515934898218 7.396186644265379 #
vertex $-1 $439 $599 #
point $-1 -50.935878776618772 6.0061794377481306 7.396186644265379 #
coedge $-1 $454 $453 $446 $552 forward $443 $-1 #
edge $-1 $553 72.201523557631262 $556 82.502610263129782 $551 $600 forward 7 unknown #
vertex $-1 $458 $601 #
straight-curve $-1 42.029120008021067 -13.692684164478685 14.233786066823313 1 0 0 I I #
edge $-1 $556 -8.9452718049082609 $455 -0.54955291423258679 $454 $602 forward 7 unknown #
vertex $-1 $555 $603 #
straight-curve $-1 -12.282059241780203 -13.692684164478685 100.27299861914713 -0.60181501223851219 0 0.79863551827123203 I I #
point $-1 52.553136001293538 -13.692684164478685 14.233786066823313 #
point $-1 60.315561387981816 -5.2969652738030106 3.9326993613247936 #
straight-curve $-1 60.315561387981809 0 14.233786066823312 0 1 0 I I #
vertex $-1 $461 $604 #
point $-1 55.317949425690372 -9.4948247191408441 6.3637720794522563 #
edge $-1 $564 72.201523557631262 $567 82.502610263129782 $466 $605 forward 7 unknown #
vertex $-1 $480 $606 #
straight-curve $-1 42.029120008021067 11.750336794639384 14.233786066823313 1 0 0 I I #
edge $-1 $567 3.7762386746507737 $477 12.171957565326448 $476 $607 forward 7 unknown #
vertex $-1 $566 $608 #
straight-curve $-1 -12.282059241780203 11.750336794639384 100.27299861914713 -0.60181501223851219 0 0.79863551827123203 I I #
point $-1 52.553136001293538 11.750336794639384 14.233786066823313 #
point $-1 60.315561387981816 20.146055685315059 3.9326993613247936 #
straight-curve $-1 60.315561387981809 0 14.233786066823312 0 1 0 I I #
vertex $-1 $483 $609 #
point $-1 55.317949425690372 15.948196239977229 6.3637720794522563 #
straight-curve $-1 -60.315561387981809 40.865187201689238 0 0 0 -1 I I #
point $-1 -60.315561387981809 -40.865187201689238 -14.233786066823312 #
straight-curve $-1 -60.315561387981809 0 -14.233786066823312 0 1 0 I I #
point $-1 -60.315561387981809 40.865187201689238 -14.233786066823312 #
coedge $-1 $509 $505 $514 $583 forward $368 $-1 #
vertex $-1 $506 $610 #
straight-curve $-1 -60.315561387981809 0 14.233786066823312 0 -1 0 I I #
point $-1 -60.315561387981809 -25.443020959118073 14.233786066823315 #
straight-curve $-1 60.315561387981809 0 14.233786066823312 0 1 0 I I #
edge $-1 $579 -60.315561387981809 $518 60.315561387981809 $514 $611 forward 7 unknown #
straight-curve $-1 -60.315561387981809 -40.865187201689238 0 0 0 -1 I I #
point $-1 60.315561387981809 -40.865187201689238 14.233786066823312 #
edge $-1 $533 -60.315561387981809 $588 60.315561387981809 $530 $612 forward 7 unknown #
straight-curve $-1 60.315561387981809 0 14.233786066823312 0 1 0 I I #
vertex $-1 $586 $613 #
straight-curve $-1 -60.315561387981809 0 14.233786066823312 0 -1 0 I I #
point $-1 60.315561387981809 25.443020959118073 14.233786066823315 #
straight-curve $-1 -60.315561387981809 40.865187201689238 0 0 0 -1 I I #
point $-1 60.315561387981809 40.865187201689238 14.233786066823312 #
straight-curve $-1 -60.315561387981809 8.4186217729814103 46.694830575557923 0 0 -1 I I #
point $-1 -60.315561387981809 8.4186217729814103 14.233786066823312 #
straight-curve $-1 -60.315561387981809 1.193757967449109 0.98086068108711255 0 -1 0 I I #
point $-1 -60.315561387981809 8.4186217729814103 0.98086068108711655 #
point $-1 -51.05913559552139 -1.2311475679516946 5.9873545901886676 #
point $-1 -51.05913559552139 2.387515934898218 5.9873545901886676 #
point $-1 -51.05913559552139 6.0061794377481306 5.9873545901886676 #
straight-curve $-1 60.315561387981809 -13.692684164478685 86.435309624454575 0 0 -1 I I #
point $-1 60.315561387981809 -13.692684164478685 14.233786066823312 #
straight-curve $-1 60.315561387981809 -4.7474123595704238 3.9326993613247936 0 1 0 I I #
point $-1 60.315561387981816 -13.692684164478685 3.9326993613247936 #
point $-1 53.217273629925756 -9.4948247191408441 6.659002838501336 #
straight-curve $-1 60.315561387981809 11.750336794639384 86.435309624454575 0 0 -1 I I #
point $-1 60.315561387981809 11.750336794639384 14.233786066823312 #
straight-curve $-1 60.315561387981809 7.9740981199886107 3.9326993613247936 0 1 0 I I #
point $-1 60.315561387981816 11.750336794639384 3.9326993613247936 #
point $-1 53.217273629925756 15.948196239977229 6.659002838501336 #
point $-1 -60.315561387981809 -40.865187201689238 14.233786066823312 #
straight-curve $-1 0 -40.865187201689238 14.233786066823312 1 0 0 I I #
straight-curve $-1 0 40.865187201689238 14.233786066823312 -1 0 0 I I #
point $-1 -60.315561387981809 40.865187201689238 14.233786066823312 #
End-of-ACIS-data 