500 0 3 0           
7 Unknown 11 ACIS 5.0 NT 24 Fri Mar 26 18:08:52 1999 
-1 9.9999999999999995e-007 1e-010 
body $-1 $3 $-1 $4 #
body $-1 $5 $-1 $6 #
body $-1 $7 $-1 $8 #
lump $-1 $-1 $9 $0 #
transform $-1 1 0 0 0 1 0 0 0 1 46.29291665395062 27.779281969409308 8.861189947223119 1 rotate no_reflect no_shear #
lump $-1 $-1 $10 $1 #
transform $-1 1 0 0 0 1 0 0 0 1 46.29291665395062 27.779281969409308 8.861189947223119 1 rotate no_reflect no_shear #
lump $-1 $-1 $11 $2 #
transform $-1 1 0 0 0 1 0 0 0 1 46.29291665395062 27.779281969409308 8.861189947223119 1 rotate no_reflect no_shear #
shell $-1 $-1 $-1 $12 $-1 $3 #
shell $-1 $-1 $-1 $13 $-1 $5 #
shell $-1 $-1 $-1 $14 $-1 $7 #
face $-1 $15 $16 $9 $-1 $17 forward single #
face $-1 $18 $19 $10 $-1 $20 reversed single #
face $-1 $21 $22 $11 $-1 $23 forward single #
face $-1 $24 $25 $9 $-1 $26 reversed single #
loop $-1 $-1 $27 $12 #
plane-surface $-1 0 0 8.861189947223119 0 0 1 1 0 0 forward_v I I I I #
face $-1 $28 $29 $10 $-1 $30 reversed single #
loop $-1 $-1 $31 $13 #
plane-surface $-1 36.801362796204714 -94.379957578109583 68.312480283560163 -1 0 0 0 -0.71933980857756763 0.69465836192734942 forward_v I I I I #
face $-1 $32 $33 $11 $-1 $34 forward single #
loop $-1 $35 $36 $14 #
cone-surface $-1 27.11173698758261 -23.633126578834876 4.6932596564593112 0 0.71933980857756763 -0.69465836192734942 1.5 0 0 1 I I 0 1 1.5 forward I I I I #
face $-1 $37 $38 $9 $-1 $39 reversed single #
loop $-1 $-1 $40 $15 #
plane-surface $-1 0 0 -8.861189947223119 0 0 1 1 0 0 forward_v I I I I #
coedge $-1 $41 $42 $43 $44 forward $16 $-1 #
face $-1 $45 $46 $10 $-1 $47 reversed single #
loop $-1 $-1 $48 $18 #
plane-surface $-1 27.11173698758261 -27.779281969409325 3.9969569802148612 0 -0.71933980857756763 0.69465836192734942 1 0 0 forward_v I I I I #
coedge $-1 $49 $50 $51 $52 reversed $19 $-1 #
face $-1 $-1 $53 $11 $-1 $54 forward single #
loop $-1 $55 $56 $21 #
cone-surface $-1 27.11173698758261 -21.296133863224288 2.436452077754117 0 0.71933980857756763 -0.69465836192734942 0.75 0 0 1 I I -0.70710678118654757 0.70710678118654757 0.75 forward I I I I #
loop $-1 $-1 $57 $14 #
coedge $-1 $36 $36 $58 $59 reversed $22 $-1 #
face $-1 $60 $61 $9 $-1 $62 reversed single #
loop $-1 $-1 $63 $24 #
plane-surface $-1 0 -27.779281969409308 0 0 1 0 0 0 1 forward_v I I I I #
coedge $-1 $64 $65 $66 $67 forward $25 $-1 #
coedge $-1 $68 $27 $69 $70 forward $16 $-1 #
coedge $-1 $27 $68 $71 $72 forward $16 $-1 #
coedge $-1 $73 $74 $27 $44 reversed $75 $-1 #
edge $-1 $76 -27.779281969409308 $77 27.779281969409308 $43 $78 forward 7 unknown #
face $-1 $79 $80 $10 $-1 $81 reversed single #
loop $-1 $-1 $82 $28 #
plane-surface $-1 17.42211117896051 -94.379957578109583 68.312480283560163 1 0 0 0 0.71933980857756763 -0.69465836192734942 forward_v I I I I #
coedge $-1 $83 $84 $85 $86 reversed $29 $-1 #
coedge $-1 $50 $31 $87 $88 reversed $19 $-1 #
coedge $-1 $31 $49 $83 $89 reversed $19 $-1 #
coedge $-1 $85 $90 $31 $52 forward $91 $-1 #
edge $-1 $92 19.410696819645484 $93 24.108031882439512 $51 $94 forward 7 unknown #
loop $-1 $-1 $58 $32 #
plane-surface $-1 27.11173698758261 -27.779281969409325 3.9969569802148612 0 -0.71933980857756763 0.69465836192734942 1 0 0 forward_v I I I I #
loop $-1 $-1 $95 $21 #
coedge $-1 $56 $56 $57 $96 reversed $33 $-1 #
coedge $-1 $57 $57 $56 $96 forward $35 $-1 #
coedge $-1 $58 $58 $36 $59 forward $53 $-1 #
edge $-1 $97 3.0901991210412328e-016 $97 6.2831853071796004 $58 $98 forward 7 unknown #
face $-1 $99 $100 $9 $-1 $101 reversed single #
loop $-1 $-1 $102 $37 #
plane-surface $-1 -46.29291665395062 0 0 1 0 0 0 0 -1 forward_v I I I I #
coedge $-1 $103 $71 $104 $105 forward $38 $-1 #
coedge $-1 $106 $40 $103 $107 forward $25 $-1 #
coedge $-1 $40 $106 $108 $109 forward $25 $-1 #
coedge $-1 $74 $73 $40 $67 reversed $75 $-1 #
edge $-1 $110 -27.779281969409308 $111 27.779281969409308 $66 $112 forward 7 unknown #
coedge $-1 $42 $41 $113 $114 forward $16 $-1 #
coedge $-1 $115 $116 $41 $70 reversed $100 $-1 #
edge $-1 $77 -46.29291665395062 $117 46.29291665395062 $69 $118 forward 7 unknown #
coedge $-1 $63 $119 $42 $72 reversed $38 $-1 #
edge $-1 $120 -46.29291665395062 $76 46.29291665395062 $71 $121 forward 7 unknown #
coedge $-1 $66 $43 $119 $122 forward $75 $-1 #
coedge $-1 $43 $66 $115 $123 reversed $75 $-1 #
loop $-1 $-1 $73 $99 #
vertex $-1 $44 $124 #
vertex $-1 $44 $125 #
straight-curve $-1 46.29291665395062 0 8.861189947223119 0 1 0 I I #
face $-1 $-1 $91 $10 $-1 $126 forward single #
loop $-1 $-1 $127 $45 #
plane-surface $-1 0 -27.779281969409308 0 0 1 0 0 0 1 forward_v I I I I #
coedge $-1 $128 $129 $130 $131 reversed $46 $-1 #
coedge $-1 $132 $48 $50 $89 forward $29 $-1 #
coedge $-1 $48 $132 $128 $133 forward $29 $-1 #
coedge $-1 $130 $51 $48 $86 forward $91 $-1 #
edge $-1 $93 -23.245494302413409 $134 -3.8662426851692047 $85 $135 forward 7 unknown #
coedge $-1 $136 $137 $49 $88 forward $80 $-1 #
edge $-1 $138 -30.159283161565202 $92 -25.295050194556964 $87 $139 forward 7 unknown #
edge $-1 $93 -6.7620794915088291 $138 -2.5437104257963417e-014 $50 $140 forward 7 unknown #
coedge $-1 $51 $130 $136 $141 forward $91 $-1 #
loop $-1 $-1 $130 $79 #
vertex $-1 $88 $142 #
vertex $-1 $52 $143 #
straight-curve $-1 36.801362796204714 -47.189978789054791 8.8611899472231173 0 1 0 I I #
coedge $-1 $95 $95 $-1 $144 reversed $55 $-1 #
edge $-1 $145 0 $145 6.2831853071796004 $56 $146 forward 7 unknown #
vertex $-1 $59 $147 #
ellipse-curve $-1 27.11173698758261 -25.430614438012292 6.429073463718999 0 -0.71933980857756763 0.69465836192734942 1.5 0 0 1 I I #
face $-1 $-1 $75 $9 $-1 $148 reversed single #
loop $-1 $-1 $115 $60 #
plane-surface $-1 0 27.779281969409308 0 0 -1 0 0 0 -1 forward_v I I I I #
coedge $-1 $149 $113 $116 $150 forward $61 $-1 #
coedge $-1 $119 $63 $64 $107 reversed $38 $-1 #
coedge $-1 $113 $149 $63 $105 reversed $61 $-1 #
edge $-1 $120 -8.861189947223119 $151 8.861189947223119 $104 $152 forward 7 unknown #
coedge $-1 $65 $64 $149 $153 forward $25 $-1 #
edge $-1 $111 -46.29291665395062 $151 46.29291665395062 $103 $154 forward 7 unknown #
coedge $-1 $116 $115 $65 $109 reversed $100 $-1 #
edge $-1 $155 -46.29291665395062 $110 46.29291665395062 $108 $156 forward 7 unknown #
vertex $-1 $67 $157 #
vertex $-1 $122 $158 #
straight-curve $-1 46.29291665395062 0 -8.861189947223119 0 -1 0 I I #
coedge $-1 $102 $104 $68 $114 reversed $61 $-1 #
edge $-1 $117 -27.779281969409308 $120 27.779281969409308 $113 $159 forward 7 unknown #
coedge $-1 $108 $69 $74 $123 forward $100 $-1 #
coedge $-1 $69 $108 $102 $150 reversed $100 $-1 #
vertex $-1 $70 $160 #
straight-curve $-1 0 27.779281969409308 8.861189947223119 -1 0 0 I I #
coedge $-1 $71 $103 $73 $122 reversed $38 $-1 #
vertex $-1 $114 $161 #
straight-curve $-1 0 -27.779281969409308 8.861189947223119 1 0 0 I I #
edge $-1 $76 -8.861189947223119 $111 8.861189947223119 $73 $162 forward 7 unknown #
edge $-1 $77 -8.861189947223119 $110 8.861189947223119 $74 $163 forward 7 unknown #
point $-1 46.29291665395062 -27.779281969409308 8.861189947223119 #
point $-1 46.29291665395062 27.779281969409308 8.861189947223119 #
plane-surface $-1 0 0 8.861189947223119 0 0 1 1 0 0 forward_v I I I I #
coedge $-1 $137 $136 $129 $164 forward $80 $-1 #
coedge $-1 $129 $82 $84 $133 reversed $46 $-1 #
coedge $-1 $82 $128 $127 $164 reversed $46 $-1 #
coedge $-1 $90 $85 $82 $131 forward $91 $-1 #
edge $-1 $134 -24.108031882439512 $165 -19.410696819645484 $130 $166 forward 7 unknown #
coedge $-1 $84 $83 $137 $167 reversed $29 $-1 #
edge $-1 $168 2.5437104257963417e-014 $134 6.7620794915088291 $128 $169 forward 7 unknown #
vertex $-1 $86 $170 #
straight-curve $-1 13.555868493791305 -23.081946906615276 8.861189947223119 -1 0 0 I I #
coedge $-1 $127 $87 $90 $141 reversed $80 $-1 #
coedge $-1 $87 $127 $132 $167 forward $80 $-1 #
vertex $-1 $88 $171 #
straight-curve $-1 36.801362796204714 -27.779281969409311 34.156240141780081 0 0 1 I I #
straight-curve $-1 36.801362796204714 -27.779281969409325 3.9969569802148612 0 -0.69465836192734942 -0.71933980857756763 I I #
edge $-1 $165 17.42211117896051 $92 36.801362796204714 $136 $172 forward 7 unknown #
point $-1 36.801362796204714 -27.779281969409308 8.861189947223119 #
point $-1 36.801362796204714 -23.081946906615279 8.861189947223119 #
edge $-1 $173 1 $173 0 $95 $-1 forward 7 unknown #
vertex $-1 $96 $174 #
ellipse-curve $-1 27.11173698758261 -21.835638719657464 2.9574458491996292 0 -0.71933980857756763 0.69465836192734942 1.5 0 0 1 I I #
point $-1 28.61173698758261 -25.430614438012284 6.4290734637189928 #
plane-surface $-1 46.29291665395062 0 0 -1 0 0 0 0 1 forward_v I I I I #
coedge $-1 $104 $102 $106 $153 reversed $61 $-1 #
edge $-1 $117 -8.861189947223119 $155 8.861189947223119 $116 $175 forward 7 unknown #
vertex $-1 $153 $176 #
straight-curve $-1 -46.29291665395062 -27.779281969409308 0 0 0 -1 I I #
edge $-1 $151 -27.779281969409308 $155 27.779281969409308 $149 $177 forward 7 unknown #
straight-curve $-1 0 -27.779281969409308 -8.861189947223119 -1 0 0 I I #
vertex $-1 $109 $178 #
straight-curve $-1 0 27.779281969409308 -8.861189947223119 1 0 0 I I #
point $-1 46.29291665395062 27.779281969409308 -8.861189947223119 #
point $-1 46.29291665395062 -27.779281969409308 -8.861189947223119 #
straight-curve $-1 -46.29291665395062 0 8.861189947223119 0 -1 0 I I #
point $-1 -46.29291665395062 27.779281969409308 8.861189947223119 #
point $-1 -46.29291665395062 -27.779281969409308 8.861189947223119 #
straight-curve $-1 46.29291665395062 -27.779281969409308 0 0 0 -1 I I #
straight-curve $-1 46.29291665395062 27.779281969409308 0 0 0 -1 I I #
edge $-1 $165 25.295050194556964 $168 30.159283161565202 $127 $179 forward 7 unknown #
vertex $-1 $141 $180 #
straight-curve $-1 17.42211117896051 -47.189978789054791 8.8611899472231173 0 -1 0 I I #
edge $-1 $168 3.8662426851692047 $138 23.245494302413409 $137 $181 forward 7 unknown #
vertex $-1 $167 $182 #
straight-curve $-1 17.42211117896051 -27.779281969409325 3.9969569802148612 0 0.69465836192734942 0.71933980857756763 I I #
point $-1 17.42211117896051 -23.081946906615279 8.861189947223119 #
point $-1 36.801362796204714 -27.779281969409308 3.9969569802148794 #
straight-curve $-1 0 -27.779281969409308 8.861189947223119 1 0 0 I I #
vertex $-1 $144 $183 #
point $-1 28.61173698758261 -21.835638719657464 2.9574458491996292 #
straight-curve $-1 -46.29291665395062 27.779281969409308 0 0 0 -1 I I #
point $-1 -46.29291665395062 -27.779281969409308 -8.861189947223119 #
straight-curve $-1 -46.29291665395062 0 -8.861189947223119 0 1 0 I I #
point $-1 -46.29291665395062 27.779281969409308 -8.861189947223119 #
straight-curve $-1 17.42211117896051 -27.779281969409311 34.156240141780081 0 0 -1 I I #
point $-1 17.42211117896051 -27.779281969409308 8.861189947223119 #
straight-curve $-1 13.555868493791305 -27.779281969409308 3.9969569802148799 1 0 0 I I #
point $-1 17.42211117896051 -27.779281969409308 3.9969569802148794 #
point $-1 27.11173698758261 -20.756629006791112 1.9154583063086048 #
End-of-ACIS-data 