500 0 7 0           
7 Unknown 11 ACIS 5.0 NT 24 Thu Mar 25 20:18:06 1999 
-1 9.9999999999999995e-007 1e-010 
body $-1 $7 $-1 $8 #
body $-1 $9 $-1 $10 #
body $-1 $11 $-1 $12 #
body $-1 $13 $-1 $14 #
body $-1 $15 $-1 $16 #
body $-1 $17 $-1 $18 #
body $-1 $19 $-1 $20 #
lump $-1 $-1 $21 $0 #
transform $-1 1 0 0 0 1 0 0 0 1 69.99603259376812 43.982552979709141 10.495034187986384 1 rotate no_reflect no_shear #
lump $-1 $-1 $22 $1 #
transform $-1 1 0 0 0 1 0 0 0 1 69.99603259376812 43.982552979709141 10.495034187986384 1 rotate no_reflect no_shear #
lump $-1 $-1 $23 $2 #
transform $-1 1 0 0 0 1 0 0 0 1 69.99603259376812 43.982552979709141 10.495034187986384 1 rotate no_reflect no_shear #
lump $-1 $-1 $24 $3 #
transform $-1 1 0 0 0 1 0 0 0 1 69.99603259376812 43.982552979709141 10.495034187986384 1 rotate no_reflect no_shear #
lump $-1 $-1 $25 $4 #
transform $-1 1 0 0 0 1 0 0 0 1 69.99603259376812 43.982552979709141 10.495034187986384 1 rotate no_reflect no_shear #
lump $-1 $-1 $26 $5 #
transform $-1 1 0 0 0 1 0 0 0 1 69.99603259376812 43.982552979709141 10.495034187986384 1 rotate no_reflect no_shear #
lump $-1 $-1 $27 $6 #
transform $-1 1 0 0 0 1 0 0 0 1 69.99603259376812 43.982552979709141 10.495034187986384 1 rotate no_reflect no_shear #
shell $-1 $-1 $-1 $28 $-1 $7 #
shell $-1 $-1 $-1 $29 $-1 $9 #
shell $-1 $-1 $-1 $30 $-1 $11 #
shell $-1 $-1 $-1 $31 $-1 $13 #
shell $-1 $-1 $-1 $32 $-1 $15 #
shell $-1 $-1 $-1 $33 $-1 $17 #
shell $-1 $-1 $-1 $34 $-1 $19 #
face $-1 $35 $36 $21 $-1 $37 forward single #
face $-1 $38 $39 $22 $-1 $40 forward single #
face $-1 $41 $42 $23 $-1 $43 forward single #
face $-1 $44 $45 $24 $-1 $46 reversed single #
face $-1 $47 $48 $25 $-1 $49 forward single #
face $-1 $50 $51 $26 $-1 $52 reversed single #
face $-1 $53 $54 $27 $-1 $55 forward single #
face $-1 $56 $57 $21 $-1 $58 reversed single #
loop $-1 $-1 $59 $28 #
plane-surface $-1 0 0 10.495034187986384 0 0 1 1 0 0 forward_v I I I I #
face $-1 $60 $61 $22 $-1 $62 reversed single #
loop $-1 $-1 $63 $29 #
plane-surface $-1 -66.398753688992088 0 5.0349301198980871 0 0 1 1 0 0 forward_v I I I I #
face $-1 $64 $65 $23 $-1 $66 reversed single #
loop $-1 $-1 $67 $30 #
plane-surface $-1 66.398753688992088 0 5.0349301198980871 0 0 1 1 0 0 forward_v I I I I #
face $-1 $68 $69 $24 $-1 $70 reversed single #
loop $-1 $-1 $71 $31 #
plane-surface $-1 -19.987915287625729 -135.82561244990416 108.14910415489254 1 0 0 0 0.6560590369687036 -0.75470957328743171 forward_v I I I I #
face $-1 $72 $73 $25 $-1 $74 forward single #
loop $-1 $75 $76 $32 #
cone-surface $-1 -9.9939576438128626 -37.690198889860156 4.549782542091088 0 0.6560590369687036 -0.75470957328743171 2 0 0 1 I I 0 1 2 forward I I I I #
face $-1 $77 $78 $26 $-1 $79 reversed single #
loop $-1 $-1 $80 $33 #
plane-surface $-1 19.987915287625729 -135.82561244990416 108.14910415489254 -1 0 0 0 -0.6560590369687036 0.75470957328743171 forward_v I I I I #
face $-1 $81 $82 $27 $-1 $83 forward single #
loop $-1 $84 $85 $34 #
cone-surface $-1 9.9939576438128626 -37.690198889860156 4.549782542091088 0 0.6560590369687036 -0.75470957328743171 2 0 0 1 I I 0 1 2 forward I I I I #
face $-1 $86 $87 $21 $-1 $88 reversed single #
loop $-1 $-1 $89 $35 #
plane-surface $-1 0 0 -10.495034187986384 0 0 1 1 0 0 forward_v I I I I #
coedge $-1 $90 $91 $92 $93 forward $36 $-1 #
face $-1 $94 $95 $22 $-1 $96 reversed single #
loop $-1 $-1 $97 $38 #
plane-surface $-1 -66.398753688992088 0 2.0349301198980871 0 0 1 1 0 0 forward_v I I I I #
coedge $-1 $98 $99 $100 $101 forward $39 $-1 #
face $-1 $102 $103 $23 $-1 $104 reversed single #
loop $-1 $-1 $105 $41 #
plane-surface $-1 66.398753688992088 0 2.0349301198980871 0 0 1 1 0 0 forward_v I I I I #
coedge $-1 $106 $107 $108 $109 reversed $42 $-1 #
face $-1 $110 $111 $24 $-1 $112 reversed single #
loop $-1 $-1 $113 $44 #
plane-surface $-1 -9.9939576438128626 -43.982552979709155 2.4957523735807428 0 -0.6560590369687036 0.75470957328743171 1 0 0 forward_v I I I I #
coedge $-1 $114 $115 $116 $117 reversed $45 $-1 #
face $-1 $-1 $118 $25 $-1 $119 forward single #
loop $-1 $120 $121 $47 #
cone-surface $-1 -9.9939576438128626 -35.342846204683795 1.8494622301111932 0 0.6560590369687036 -0.75470957328743171 1 0 0 1 I I -0.70710678118654746 0.70710678118654746 1 forward I I I I #
loop $-1 $-1 $122 $32 #
coedge $-1 $76 $76 $123 $124 reversed $48 $-1 #
face $-1 $125 $126 $26 $-1 $127 reversed single #
loop $-1 $-1 $128 $50 #
plane-surface $-1 -9.9939576438128626 -43.982552979709155 2.4957523735807428 0 -0.6560590369687036 0.75470957328743171 1 0 0 forward_v I I I I #
coedge $-1 $129 $130 $131 $132 reversed $51 $-1 #
face $-1 $-1 $133 $27 $-1 $134 forward single #
loop $-1 $135 $136 $53 #
cone-surface $-1 9.9939576438128626 -35.342846204683795 1.8494622301111932 0 0.6560590369687036 -0.75470957328743171 1 0 0 1 I I -0.70710678118654746 0.70710678118654746 1 forward I I I I #
loop $-1 $-1 $137 $34 #
coedge $-1 $85 $85 $138 $139 reversed $54 $-1 #
face $-1 $140 $141 $21 $-1 $142 reversed single #
loop $-1 $-1 $143 $56 #
plane-surface $-1 0 -43.982552979709141 0 0 1 0 0 0 1 forward_v I I I I #
coedge $-1 $144 $145 $146 $147 forward $57 $-1 #
coedge $-1 $148 $59 $149 $150 forward $36 $-1 #
coedge $-1 $59 $148 $151 $152 forward $36 $-1 #
coedge $-1 $153 $154 $59 $93 reversed $155 $-1 #
edge $-1 $156 -43.982552979709141 $157 43.982552979709141 $92 $158 forward 7 unknown #
face $-1 $159 $160 $22 $-1 $161 reversed single #
loop $-1 $-1 $162 $60 #
plane-surface $-1 -62.801474784216047 0 3.5349301198980871 -1 0 0 0 0 1 forward_v I I I I #
coedge $-1 $163 $164 $165 $166 forward $61 $-1 #
coedge $-1 $167 $63 $168 $169 reversed $39 $-1 #
coedge $-1 $63 $167 $170 $171 reversed $39 $-1 #
coedge $-1 $162 $172 $63 $101 reversed $95 $-1 #
edge $-1 $173 -43.982552979709141 $174 43.982552979709141 $100 $175 forward 7 unknown #
face $-1 $176 $177 $23 $-1 $178 reversed single #
loop $-1 $-1 $179 $64 #
plane-surface $-1 62.801474784216055 0 3.5349301198980871 1 0 0 0 0 -1 forward_v I I I I #
coedge $-1 $180 $181 $182 $183 reversed $65 $-1 #
coedge $-1 $184 $67 $185 $186 reversed $42 $-1 #
coedge $-1 $67 $184 $187 $188 reversed $42 $-1 #
coedge $-1 $189 $190 $67 $109 forward $191 $-1 #
edge $-1 $192 -43.982552979709141 $193 43.982552979709141 $108 $194 forward 7 unknown #
face $-1 $195 $196 $24 $-1 $197 forward single #
loop $-1 $-1 $198 $68 #
plane-surface $-1 3.5527136788005009e-015 -135.82561244990416 108.14910415489254 -1 0 0 0 -0.6560590369687036 0.75470957328743171 forward_v I I I I #
coedge $-1 $199 $200 $201 $202 reversed $69 $-1 #
coedge $-1 $115 $71 $203 $204 reversed $45 $-1 #
coedge $-1 $71 $114 $199 $205 reversed $45 $-1 #
coedge $-1 $201 $206 $71 $117 forward $207 $-1 #
edge $-1 $208 43.579517889459886 $209 51.578799703865513 $116 $210 forward 7 unknown #
loop $-1 $-1 $123 $72 #
plane-surface $-1 -9.9939576438128626 -43.982552979709155 2.4957523735807428 0 -0.6560590369687036 0.75470957328743171 1 0 0 forward_v I I I I #
loop $-1 $-1 $211 $47 #
coedge $-1 $121 $121 $122 $212 reversed $73 $-1 #
coedge $-1 $122 $122 $121 $212 forward $75 $-1 #
coedge $-1 $123 $123 $76 $124 forward $118 $-1 #
edge $-1 $213 -1.6298356951382949e-015 $213 6.2831853071795987 $123 $214 forward 7 unknown #
face $-1 $215 $216 $26 $-1 $217 forward single #
loop $-1 $-1 $218 $77 #
plane-surface $-1 0 -43.982552979709141 0 0 1 0 0 0 1 forward_v I I I I #
coedge $-1 $219 $220 $221 $222 reversed $78 $-1 #
coedge $-1 $130 $80 $223 $224 reversed $51 $-1 #
coedge $-1 $80 $129 $225 $226 reversed $51 $-1 #
coedge $-1 $227 $218 $80 $132 forward $126 $-1 #
edge $-1 $228 -51.578799703865513 $229 -43.579517889459886 $131 $230 forward 7 unknown #
loop $-1 $-1 $138 $81 #
plane-surface $-1 -9.9939576438128626 -43.982552979709155 2.4957523735807428 0 -0.6560590369687036 0.75470957328743171 1 0 0 forward_v I I I I #
loop $-1 $-1 $231 $53 #
coedge $-1 $136 $136 $137 $232 reversed $82 $-1 #
coedge $-1 $137 $137 $136 $232 forward $84 $-1 #
coedge $-1 $138 $138 $85 $139 forward $133 $-1 #
edge $-1 $233 -1.6298356951382949e-015 $233 6.2831853071795987 $138 $234 forward 7 unknown #
face $-1 $235 $236 $21 $-1 $237 reversed single #
loop $-1 $-1 $238 $86 #
plane-surface $-1 -69.99603259376812 0 0 1 0 0 0 0 -1 forward_v I I I I #
coedge $-1 $239 $151 $240 $241 forward $87 $-1 #
coedge $-1 $242 $89 $239 $243 forward $57 $-1 #
coedge $-1 $89 $242 $244 $245 forward $57 $-1 #
coedge $-1 $154 $153 $89 $147 reversed $155 $-1 #
edge $-1 $246 -43.982552979709141 $247 43.982552979709141 $146 $248 forward 7 unknown #
coedge $-1 $91 $90 $249 $250 forward $36 $-1 #
coedge $-1 $251 $252 $90 $150 reversed $236 $-1 #
edge $-1 $157 -69.99603259376812 $253 69.99603259376812 $149 $254 forward 7 unknown #
coedge $-1 $143 $255 $91 $152 reversed $87 $-1 #
edge $-1 $256 -69.99603259376812 $156 69.99603259376812 $151 $257 forward 7 unknown #
coedge $-1 $146 $92 $255 $258 forward $155 $-1 #
coedge $-1 $92 $146 $251 $259 reversed $155 $-1 #
loop $-1 $-1 $153 $235 #
vertex $-1 $93 $260 #
vertex $-1 $93 $261 #
straight-curve $-1 69.99603259376812 0 10.495034187986384 0 1 0 I I #
face $-1 $262 $263 $22 $-1 $264 reversed single #
loop $-1 $-1 $265 $94 #
plane-surface $-1 0 -43.982552979709141 0 0 1 0 0 0 1 forward_v I I I I #
coedge $-1 $165 $100 $266 $267 reversed $95 $-1 #
coedge $-1 $268 $97 $265 $269 reversed $61 $-1 #
coedge $-1 $97 $268 $270 $271 reversed $61 $-1 #
coedge $-1 $172 $162 $97 $166 reversed $95 $-1 #
edge $-1 $272 -43.982552979709141 $273 43.982552979709141 $165 $274 forward 7 unknown #
coedge $-1 $99 $98 $275 $276 reversed $39 $-1 #
coedge $-1 $277 $278 $98 $169 forward $279 $-1 #
edge $-1 $280 -36.796655749272077 $174 -29.602097939720004 $168 $281 forward 7 unknown #
coedge $-1 $282 $266 $99 $171 forward $160 $-1 #
edge $-1 $173 29.602097939720004 $283 36.796655749272077 $170 $284 forward 7 unknown #
coedge $-1 $100 $165 $277 $285 reversed $95 $-1 #
vertex $-1 $171 $286 #
vertex $-1 $169 $287 #
straight-curve $-1 -62.801474784216047 0 5.0349301198980871 0 1 0 I I #
face $-1 $288 $289 $23 $-1 $290 reversed single #
loop $-1 $-1 $187 $102 #
plane-surface $-1 0 -43.982552979709141 0 0 1 0 0 0 1 forward_v I I I I #
coedge $-1 $291 $292 $293 $294 reversed $103 $-1 #
coedge $-1 $295 $105 $296 $297 reversed $65 $-1 #
coedge $-1 $105 $295 $298 $299 reversed $65 $-1 #
coedge $-1 $190 $189 $105 $183 forward $191 $-1 #
edge $-1 $300 -43.982552979709141 $301 43.982552979709141 $182 $302 forward 7 unknown #
coedge $-1 $107 $106 $292 $303 forward $42 $-1 #
coedge $-1 $304 $293 $106 $186 forward $289 $-1 #
edge $-1 $305 29.602097939720011 $192 36.796655749272077 $185 $306 forward 7 unknown #
coedge $-1 $307 $308 $107 $188 forward $177 $-1 #
edge $-1 $193 -36.796655749272077 $309 -29.602097939720011 $187 $310 forward 7 unknown #
coedge $-1 $182 $108 $308 $311 forward $191 $-1 #
coedge $-1 $108 $182 $304 $312 reversed $191 $-1 #
loop $-1 $-1 $108 $288 #
vertex $-1 $312 $313 #
vertex $-1 $311 $314 #
straight-curve $-1 69.99603259376812 0 5.0349301198980871 0 -1 0 I I #
face $-1 $-1 $207 $24 $-1 $315 reversed single #
loop $-1 $-1 $316 $110 #
plane-surface $-1 0 0 10.495034187986384 0 0 1 1 0 0 forward_v I I I I #
coedge $-1 $317 $318 $319 $320 reversed $111 $-1 #
coedge $-1 $321 $113 $115 $205 forward $69 $-1 #
coedge $-1 $113 $321 $317 $322 forward $69 $-1 #
coedge $-1 $319 $116 $113 $202 forward $207 $-1 #
edge $-1 $209 -14.990936465719297 $323 4.9969788219064348 $201 $324 forward 7 unknown #
coedge $-1 $325 $326 $114 $204 forward $196 $-1 #
edge $-1 $327 -33.132374128525548 $208 -23.930253245242938 $203 $328 forward 7 unknown #
edge $-1 $209 1.888283279974768e-014 $327 12.192929848761823 $115 $329 forward 7 unknown #
coedge $-1 $116 $319 $325 $330 reversed $207 $-1 #
loop $-1 $-1 $319 $195 #
vertex $-1 $330 $331 #
vertex $-1 $117 $332 #
straight-curve $-1 -19.987915287625729 -43.982552979709141 54.07455207744627 0 0 -1 I I #
coedge $-1 $211 $211 $-1 $333 reversed $120 $-1 #
edge $-1 $334 0 $334 6.2831853071796004 $121 $335 forward 7 unknown #
vertex $-1 $124 $336 #
ellipse-curve $-1 -9.9939576438128626 -39.381492538067832 6.4953932807835724 0 -0.6560590369687036 0.75470957328743171 2 0 0 1 I I #
face $-1 $-1 $337 $26 $-1 $338 forward single #
loop $-1 $-1 $339 $125 #
plane-surface $-1 3.5527136788005009e-015 -135.82561244990416 108.14910415489254 -1 0 0 0 -0.6560590369687036 0.75470957328743171 forward_v I I I I #
coedge $-1 $131 $340 $220 $341 forward $126 $-1 #
coedge $-1 $223 $128 $342 $343 reversed $78 $-1 #
coedge $-1 $128 $223 $218 $341 reversed $78 $-1 #
coedge $-1 $339 $344 $128 $222 forward $216 $-1 #
edge $-1 $345 -12.192929848761823 $346 -1.888283279974768e-014 $221 $347 forward 7 unknown #
coedge $-1 $220 $219 $129 $224 forward $78 $-1 #
edge $-1 $348 -12.192929848761823 $228 -1.888283279974768e-014 $129 $349 forward 7 unknown #
coedge $-1 $342 $350 $130 $226 forward $337 $-1 #
edge $-1 $229 23.930253245242938 $348 33.132374128525548 $225 $351 forward 7 unknown #
coedge $-1 $340 $131 $350 $352 reversed $126 $-1 #
vertex $-1 $132 $353 #
vertex $-1 $226 $354 #
straight-curve $-1 19.987915287625729 -43.982552979709141 54.07455207744627 0 0 1 I I #
coedge $-1 $231 $231 $-1 $355 reversed $135 $-1 #
edge $-1 $356 0 $356 6.2831853071796004 $136 $357 forward 7 unknown #
vertex $-1 $139 $358 #
ellipse-curve $-1 9.9939576438128626 -39.381492538067832 6.4953932807835724 0 -0.6560590369687036 0.75470957328743171 2 0 0 1 I I #
face $-1 $-1 $155 $21 $-1 $359 reversed single #
loop $-1 $-1 $251 $140 #
plane-surface $-1 0 43.982552979709141 0 0 -1 0 0 0 -1 forward_v I I I I #
coedge $-1 $360 $249 $252 $361 forward $141 $-1 #
coedge $-1 $255 $143 $144 $243 reversed $87 $-1 #
coedge $-1 $249 $360 $143 $241 reversed $141 $-1 #
edge $-1 $256 -10.495034187986384 $362 10.495034187986384 $240 $363 forward 7 unknown #
coedge $-1 $145 $144 $360 $364 forward $57 $-1 #
edge $-1 $247 -69.99603259376812 $362 69.99603259376812 $239 $365 forward 7 unknown #
coedge $-1 $252 $251 $145 $245 reversed $236 $-1 #
edge $-1 $366 -69.99603259376812 $246 69.99603259376812 $244 $367 forward 7 unknown #
vertex $-1 $147 $368 #
vertex $-1 $258 $369 #
straight-curve $-1 69.99603259376812 0 -10.495034187986384 0 -1 0 I I #
coedge $-1 $238 $240 $148 $250 reversed $141 $-1 #
edge $-1 $253 -43.982552979709141 $256 43.982552979709141 $249 $370 forward 7 unknown #
coedge $-1 $244 $149 $154 $259 forward $236 $-1 #
coedge $-1 $149 $244 $238 $361 reversed $236 $-1 #
vertex $-1 $150 $371 #
straight-curve $-1 0 43.982552979709141 10.495034187986384 -1 0 0 I I #
coedge $-1 $151 $239 $153 $258 reversed $87 $-1 #
vertex $-1 $250 $372 #
straight-curve $-1 0 -43.982552979709141 10.495034187986384 1 0 0 I I #
edge $-1 $156 -10.495034187986384 $247 10.495034187986384 $153 $373 forward 7 unknown #
edge $-1 $157 -10.495034187986384 $246 10.495034187986384 $154 $374 forward 7 unknown #
point $-1 69.99603259376812 -43.982552979709141 10.495034187986384 #
point $-1 69.99603259376812 43.982552979709141 10.495034187986384 #
face $-1 $-1 $279 $22 $-1 $375 reversed single #
loop $-1 $-1 $376 $159 #
plane-surface $-1 -69.99603259376812 0 0 1 0 0 0 0 -1 forward_v I I I I #
coedge $-1 $266 $282 $163 $269 forward $160 $-1 #
coedge $-1 $170 $265 $162 $267 forward $160 $-1 #
edge $-1 $273 0.26746505994904357 $173 3.2674650599490436 $266 $377 forward 7 unknown #
coedge $-1 $164 $163 $376 $378 reversed $61 $-1 #
edge $-1 $379 -36.796655749272077 $273 -29.602097939720004 $265 $380 forward 7 unknown #
coedge $-1 $278 $277 $164 $271 forward $279 $-1 #
edge $-1 $272 29.602097939720004 $381 36.796655749272077 $270 $382 forward 7 unknown #
vertex $-1 $271 $383 #
vertex $-1 $269 $384 #
straight-curve $-1 -62.801474784216047 0 2.0349301198980871 0 -1 0 I I #
coedge $-1 $385 $386 $167 $276 forward $263 $-1 #
edge $-1 $283 -43.982552979709141 $280 43.982552979709141 $275 $387 forward 7 unknown #
coedge $-1 $270 $168 $172 $285 forward $279 $-1 #
coedge $-1 $168 $270 $385 $388 reversed $279 $-1 #
loop $-1 $-1 $270 $262 #
vertex $-1 $388 $389 #
straight-curve $-1 -33.199376844496044 43.982552979709141 5.0349301198980871 1 0 0 I I #
coedge $-1 $265 $170 $386 $390 forward $160 $-1 #
vertex $-1 $390 $391 #
straight-curve $-1 -33.199376844496044 -43.982552979709141 5.0349301198980871 -1 0 0 I I #
edge $-1 $174 -3.2674650599490436 $272 -0.26746505994904357 $277 $392 forward 7 unknown #
point $-1 -62.801474784216047 -43.982552979709141 5.0349301198980871 #
point $-1 -62.801474784216047 43.982552979709141 5.0349301198980871 #
face $-1 $-1 $191 $23 $-1 $393 reversed single #
loop $-1 $-1 $185 $176 #
plane-surface $-1 0 43.982552979709141 0 0 -1 0 0 0 -1 forward_v I I I I #
coedge $-1 $394 $179 $295 $395 reversed $103 $-1 #
coedge $-1 $179 $394 $184 $303 reversed $103 $-1 #
coedge $-1 $185 $298 $179 $294 forward $289 $-1 #
edge $-1 $396 0.26746505994904357 $305 3.2674650599490436 $293 $397 forward 7 unknown #
coedge $-1 $181 $180 $291 $395 forward $65 $-1 #
coedge $-1 $308 $307 $180 $297 forward $177 $-1 #
edge $-1 $398 29.602097939720011 $300 36.796655749272077 $296 $399 forward 7 unknown #
coedge $-1 $293 $304 $181 $299 forward $289 $-1 #
edge $-1 $301 -36.796655749272077 $396 -29.602097939720011 $298 $400 forward 7 unknown #
vertex $-1 $183 $401 #
vertex $-1 $183 $402 #
straight-curve $-1 69.99603259376812 0 2.0349301198980871 0 1 0 I I #
edge $-1 $305 -43.982552979709141 $309 43.982552979709141 $292 $403 forward 7 unknown #
coedge $-1 $298 $185 $190 $312 forward $289 $-1 #
vertex $-1 $186 $404 #
straight-curve $-1 33.199376844496044 43.982552979709141 5.0349301198980871 1 0 0 I I #
coedge $-1 $296 $187 $394 $405 forward $177 $-1 #
coedge $-1 $187 $296 $189 $311 reversed $177 $-1 #
vertex $-1 $188 $406 #
straight-curve $-1 33.199376844496044 -43.982552979709141 5.0349301198980871 -1 0 0 I I #
edge $-1 $193 -5.0349301198980871 $300 -2.0349301198980871 $189 $407 forward 7 unknown #
edge $-1 $192 -5.0349301198980871 $301 -2.0349301198980871 $190 $408 forward 7 unknown #
point $-1 69.99603259376812 43.982552979709141 5.0349301198980871 #
point $-1 69.99603259376812 -43.982552979709141 5.0349301198980871 #
plane-surface $-1 0 -43.982552979709141 0 0 1 0 0 0 1 forward_v I I I I #
coedge $-1 $326 $325 $318 $409 forward $196 $-1 #
coedge $-1 $318 $198 $200 $322 reversed $111 $-1 #
coedge $-1 $198 $317 $316 $409 reversed $111 $-1 #
coedge $-1 $206 $201 $198 $320 forward $207 $-1 #
edge $-1 $323 -51.578799703865513 $410 -43.579517889459886 $319 $411 forward 7 unknown #
coedge $-1 $200 $199 $326 $412 reversed $69 $-1 #
edge $-1 $413 -12.192929848761823 $323 -1.888283279974768e-014 $317 $414 forward 7 unknown #
vertex $-1 $202 $415 #
straight-curve $-1 -4.9969788219064313 -43.982552979709141 2.4957523735807539 1 0 0 I I #
coedge $-1 $316 $203 $206 $330 forward $196 $-1 #
coedge $-1 $203 $316 $321 $412 forward $196 $-1 #
vertex $-1 $204 $416 #
straight-curve $-1 -19.987915287625729 -67.912806224952078 10.495034187986384 0 -1 0 I I #
straight-curve $-1 -19.987915287625729 -43.982552979709155 2.4957523735807428 0 0.75470957328743171 0.6560590369687036 I I #
edge $-1 $208 -19.987915287625729 $410 3.5527136788005009e-015 $206 $417 forward 7 unknown #
point $-1 -19.987915287625729 -43.982552979709141 10.495034187986384 #
point $-1 -19.987915287625729 -43.982552979709141 2.4957523735807552 #
edge $-1 $418 1 $418 0 $211 $-1 forward 7 unknown #
vertex $-1 $212 $419 #
ellipse-curve $-1 -9.9939576438128626 -35.998905241652501 2.604171803398625 0 -0.6560590369687036 0.75470957328743171 2 0 0 1 I I #
point $-1 -7.9939576438128626 -39.381492538067818 6.495393280783551 #
loop $-1 $-1 $342 $215 #
plane-surface $-1 0 0 10.495034187986384 0 0 1 1 0 0 forward_v I I I I #
coedge $-1 $344 $221 $340 $420 reversed $216 $-1 #
coedge $-1 $218 $227 $339 $420 forward $126 $-1 #
edge $-1 $346 4.9969788219064348 $228 24.98489410953216 $218 $421 forward 7 unknown #
coedge $-1 $422 $225 $219 $343 forward $337 $-1 #
edge $-1 $348 -24.98489410953216 $345 -4.9969788219064348 $342 $423 forward 7 unknown #
coedge $-1 $221 $339 $422 $424 reversed $216 $-1 #
vertex $-1 $343 $425 #
vertex $-1 $341 $426 #
straight-curve $-1 3.5527136788005009e-015 -43.982552979709155 2.4957523735807428 0 -0.75470957328743171 -0.6560590369687036 I I #
vertex $-1 $226 $427 #
straight-curve $-1 19.987915287625729 -43.982552979709155 2.4957523735807428 0 -0.75470957328743171 -0.6560590369687036 I I #
coedge $-1 $225 $422 $227 $352 forward $337 $-1 #
straight-curve $-1 19.987915287625729 -67.912806224952078 10.495034187986384 0 1 0 I I #
edge $-1 $428 3.5527136788005009e-015 $229 19.987915287625729 $227 $429 forward 7 unknown #
point $-1 19.987915287625729 -43.982552979709141 2.4957523735807552 #
point $-1 19.987915287625729 -43.982552979709141 10.495034187986384 #
edge $-1 $430 1 $430 0 $231 $-1 forward 7 unknown #
vertex $-1 $232 $431 #
ellipse-curve $-1 9.9939576438128626 -35.998905241652501 2.604171803398625 0 -0.6560590369687036 0.75470957328743171 2 0 0 1 I I #
point $-1 11.993957643812863 -39.381492538067818 6.495393280783551 #
plane-surface $-1 69.99603259376812 0 0 -1 0 0 0 0 1 forward_v I I I I #
coedge $-1 $240 $238 $242 $364 reversed $141 $-1 #
edge $-1 $253 -10.495034187986384 $366 10.495034187986384 $252 $432 forward 7 unknown #
vertex $-1 $364 $433 #
straight-curve $-1 -69.99603259376812 -43.982552979709141 0 0 0 -1 I I #
edge $-1 $362 -43.982552979709141 $366 43.982552979709141 $360 $434 forward 7 unknown #
straight-curve $-1 0 -43.982552979709141 -10.495034187986384 -1 0 0 I I #
vertex $-1 $245 $435 #
straight-curve $-1 0 43.982552979709141 -10.495034187986384 1 0 0 I I #
point $-1 69.99603259376812 43.982552979709141 -10.495034187986384 #
point $-1 69.99603259376812 -43.982552979709141 -10.495034187986384 #
straight-curve $-1 -69.99603259376812 0 10.495034187986384 0 -1 0 I I #
point $-1 -69.99603259376812 43.982552979709141 10.495034187986384 #
point $-1 -69.99603259376812 -43.982552979709141 10.495034187986384 #
straight-curve $-1 69.99603259376812 -43.982552979709141 0 0 0 -1 I I #
straight-curve $-1 69.99603259376812 43.982552979709141 0 0 0 -1 I I #
plane-surface $-1 0 43.982552979709141 0 0 -1 0 0 0 -1 forward_v I I I I #
coedge $-1 $386 $385 $268 $378 forward $263 $-1 #
straight-curve $-1 -62.801474784216047 -43.982552979709141 1.7674650599490436 0 0 1 I I #
edge $-1 $381 -43.982552979709141 $379 43.982552979709141 $376 $436 forward 7 unknown #
vertex $-1 $269 $437 #
straight-curve $-1 -33.199376844496044 -43.982552979709141 2.0349301198980871 1 0 0 I I #
vertex $-1 $271 $438 #
straight-curve $-1 -33.199376844496044 43.982552979709141 2.0349301198980871 -1 0 0 I I #
point $-1 -62.801474784216047 43.982552979709141 2.0349301198980871 #
point $-1 -62.801474784216047 -43.982552979709141 2.0349301198980871 #
coedge $-1 $376 $275 $278 $388 forward $263 $-1 #
coedge $-1 $275 $376 $282 $390 reversed $263 $-1 #
straight-curve $-1 -69.99603259376812 0 5.0349301198980871 0 1 0 I I #
edge $-1 $280 -5.0349301198980871 $381 -2.0349301198980871 $278 $439 forward 7 unknown #
point $-1 -69.99603259376812 43.982552979709141 5.0349301198980871 #
edge $-1 $283 -5.0349301198980871 $379 -2.0349301198980871 $386 $440 forward 7 unknown #
point $-1 -69.99603259376812 -43.982552979709141 5.0349301198980871 #
straight-curve $-1 -62.801474784216047 43.982552979709141 1.7674650599490436 0 0 -1 I I #
plane-surface $-1 69.99603259376812 0 0 -1 0 0 0 0 1 forward_v I I I I #
coedge $-1 $292 $291 $307 $405 reversed $103 $-1 #
edge $-1 $398 -43.982552979709141 $396 43.982552979709141 $291 $441 forward 7 unknown #
vertex $-1 $299 $442 #
straight-curve $-1 62.801474784216055 43.982552979709141 1.7674650599490436 0 0 1 I I #
vertex $-1 $297 $443 #
straight-curve $-1 33.199376844496044 -43.982552979709141 2.0349301198980871 1 0 0 I I #
straight-curve $-1 33.199376844496044 43.982552979709141 2.0349301198980871 -1 0 0 I I #
point $-1 69.99603259376812 -43.982552979709141 2.0349301198980871 #
point $-1 69.99603259376812 43.982552979709141 2.0349301198980871 #
straight-curve $-1 62.801474784216055 0 5.0349301198980871 0 -1 0 I I #
point $-1 62.801474784216055 43.982552979709141 5.0349301198980871 #
edge $-1 $309 -3.2674650599490436 $398 -0.26746505994904357 $307 $444 forward 7 unknown #
point $-1 62.801474784216055 -43.982552979709141 5.0349301198980871 #
straight-curve $-1 69.99603259376812 -43.982552979709141 0 0 0 -1 I I #
straight-curve $-1 69.99603259376812 43.982552979709141 0 0 0 -1 I I #
edge $-1 $410 23.930253245242938 $413 33.132374128525548 $316 $445 forward 7 unknown #
vertex $-1 $409 $446 #
straight-curve $-1 3.5527136788005009e-015 -43.982552979709141 54.07455207744627 0 0 1 I I #
edge $-1 $413 -4.9969788219064348 $327 14.990936465719297 $326 $447 forward 7 unknown #
vertex $-1 $412 $448 #
straight-curve $-1 3.5527136788005009e-015 -43.982552979709155 2.4957523735807428 0 -0.75470957328743171 -0.6560590369687036 I I #
point $-1 3.5527136788005009e-015 -43.982552979709141 2.4957523735807552 #
point $-1 -19.987915287625729 -34.78043209642653 10.495034187986384 #
straight-curve $-1 0 -43.982552979709141 10.495034187986384 1 0 0 I I #
vertex $-1 $333 $449 #
point $-1 -7.9939576438128626 -35.998905241652501 2.604171803398625 #
edge $-1 $428 43.579517889459886 $346 51.578799703865513 $340 $450 forward 7 unknown #
straight-curve $-1 -4.9969788219064313 -43.982552979709141 2.4957523735807539 1 0 0 I I #
coedge $-1 $350 $342 $344 $424 forward $337 $-1 #
straight-curve $-1 -4.9969788219064313 -34.780432096426537 10.495034187986384 -1 0 0 I I #
edge $-1 $345 -33.132374128525548 $428 -23.930253245242938 $422 $451 forward 7 unknown #
point $-1 3.5527136788005009e-015 -34.78043209642653 10.495034187986384 #
point $-1 3.5527136788005009e-015 -43.982552979709141 2.4957523735807552 #
point $-1 19.987915287625729 -34.78043209642653 10.495034187986384 #
vertex $-1 $352 $452 #
straight-curve $-1 0 -43.982552979709141 10.495034187986384 1 0 0 I I #
vertex $-1 $355 $453 #
point $-1 11.993957643812863 -35.998905241652501 2.604171803398625 #
straight-curve $-1 -69.99603259376812 43.982552979709141 0 0 0 -1 I I #
point $-1 -69.99603259376812 -43.982552979709141 -10.495034187986384 #
straight-curve $-1 -69.99603259376812 0 -10.495034187986384 0 1 0 I I #
point $-1 -69.99603259376812 43.982552979709141 -10.495034187986384 #
straight-curve $-1 -69.99603259376812 0 2.0349301198980871 0 -1 0 I I #
point $-1 -69.99603259376812 -43.982552979709141 2.0349301198980871 #
point $-1 -69.99603259376812 43.982552979709141 2.0349301198980871 #
straight-curve $-1 -69.99603259376812 43.982552979709141 0 0 0 -1 I I #
straight-curve $-1 -69.99603259376812 -43.982552979709141 0 0 0 -1 I I #
straight-curve $-1 62.801474784216055 0 2.0349301198980871 0 1 0 I I #
point $-1 62.801474784216055 43.982552979709141 2.0349301198980871 #
point $-1 62.801474784216055 -43.982552979709141 2.0349301198980871 #
straight-curve $-1 62.801474784216055 -43.982552979709141 1.7674650599490436 0 0 -1 I I #
straight-curve $-1 3.5527136788005009e-015 -67.912806224952078 10.495034187986384 0 1 0 I I #
point $-1 3.5527136788005009e-015 -43.982552979709141 10.495034187986384 #
straight-curve $-1 -4.9969788219064313 -34.780432096426537 10.495034187986384 -1 0 0 I I #
point $-1 3.5527136788005009e-015 -34.78043209642653 10.495034187986384 #
point $-1 -9.9939576438128626 -34.686787167715089 1.0947526568237613 #
straight-curve $-1 3.5527136788005009e-015 -43.982552979709141 54.07455207744627 0 0 -1 I I #
straight-curve $-1 3.5527136788005009e-015 -67.912806224952078 10.495034187986384 0 -1 0 I I #
point $-1 3.5527136788005009e-015 -43.982552979709141 10.495034187986384 #
point $-1 9.9939576438128626 -34.686787167715089 1.0947526568237613 #
End-of-ACIS-data 