500 0 4 0           
7 Unknown 11 ACIS 5.0 NT 24 Fri Mar 26 18:04:33 1999 
-1 9.9999999999999995e-007 1e-010 
body $-1 $4 $-1 $5 #
body $-1 $6 $-1 $7 #
body $-1 $8 $-1 $9 #
body $-1 $10 $-1 $11 #
lump $-1 $-1 $12 $0 #
transform $-1 1 0 0 0 1 0 0 0 1 45.948667867061374 20.463122213924574 6.0165338822953194 1 rotate no_reflect no_shear #
lump $-1 $-1 $13 $1 #
transform $-1 1 0 0 0 1 0 0 0 1 45.948667867061374 20.463122213924574 6.0165338822953194 1 rotate no_reflect no_shear #
lump $-1 $-1 $14 $2 #
transform $-1 1 0 0 0 1 0 0 0 1 45.948667867061374 20.463122213924574 6.0165338822953194 1 rotate no_reflect no_shear #
lump $-1 $-1 $15 $3 #
transform $-1 1 0 0 0 1 0 0 0 1 45.948667867061374 20.463122213924574 6.0165338822953194 1 rotate no_reflect no_shear #
shell $-1 $-1 $-1 $16 $-1 $4 #
shell $-1 $-1 $-1 $17 $-1 $6 #
shell $-1 $-1 $-1 $18 $-1 $8 #
shell $-1 $-1 $-1 $19 $-1 $10 #
face $-1 $20 $21 $12 $-1 $22 reversed single #
face $-1 $23 $24 $13 $-1 $25 forward single #
face $-1 $26 $27 $14 $-1 $28 reversed single #
face $-1 $29 $30 $15 $-1 $31 forward single #
face $-1 $32 $33 $12 $-1 $34 forward single #
loop $-1 $-1 $35 $16 #
plane-surface $-1 -45.948667867061374 0 0 1 0 0 0 0 -1 forward_v I I I I #
face $-1 $36 $37 $13 $-1 $38 reversed single #
loop $-1 $-1 $39 $17 #
plane-surface $-1 -45.948667867061374 0 0 1 0 0 0 0 -1 forward_v I I I I #
face $-1 $40 $41 $14 $-1 $42 reversed single #
loop $-1 $-1 $43 $18 #
plane-surface $-1 -19.032560649565568 -16.430253317987795 65.470161310538614 0.70710678939079041 0 0.70710677298230451 0.70710677298230451 0 -0.70710678939079041 forward_v I I I I #
face $-1 $44 $45 $15 $-1 $46 forward single #
loop $-1 $47 $48 $19 #
cone-surface $-1 41.921625651661138 -16.430253317987795 1.9894916320744165 -0.70710678939079041 0 -0.70710677298230451 0.70710677298230451 0 -0.70710678939079041 1 I I 0 1 1 forward I I I I #
face $-1 $49 $50 $12 $-1 $51 reversed single #
loop $-1 $-1 $52 $20 #
plane-surface $-1 0 0 6.0165338822953194 0 0 1 1 0 0 forward_v I I I I #
coedge $-1 $53 $54 $55 $56 reversed $21 $-1 #
face $-1 $57 $58 $13 $-1 $59 reversed single #
loop $-1 $-1 $60 $23 #
plane-surface $-1 0 0 -6.0165338822953194 0 0 1 1 0 0 forward_v I I I I #
coedge $-1 $61 $62 $63 $64 forward $24 $-1 #
face $-1 $65 $66 $14 $-1 $67 reversed single #
loop $-1 $-1 $68 $26 #
plane-surface $-1 45.948669374957518 -12.397384422051015 130.45138982716557 0 -1 0 -0.70710678939079041 0 -0.70710677298230451 forward_v I I I I #
coedge $-1 $69 $70 $71 $72 reversed $27 $-1 #
face $-1 $-1 $73 $15 $-1 $74 forward single #
loop $-1 $75 $76 $29 #
cone-surface $-1 40.304831275571104 -16.430253317987795 0.37269729350226388 -0.70710678939079041 0 -0.70710677298230451 0.35355338649115226 0 -0.35355339469539521 1 I I -0.70710678118654768 0.70710678118654735 0.5 forward I I I I #
loop $-1 $-1 $77 $19 #
coedge $-1 $48 $48 $78 $79 reversed $30 $-1 #
face $-1 $80 $81 $12 $-1 $82 reversed single #
loop $-1 $-1 $83 $32 #
plane-surface $-1 0 0 -6.0165338822953194 0 0 1 1 0 0 forward_v I I I I #
coedge $-1 $84 $85 $86 $87 forward $33 $-1 #
coedge $-1 $88 $35 $89 $90 reversed $21 $-1 #
coedge $-1 $35 $88 $91 $92 forward $21 $-1 #
coedge $-1 $93 $94 $35 $56 forward $50 $-1 #
edge $-1 $95 -20.463122213924574 $96 20.463122213924574 $35 $97 forward 7 unknown #
face $-1 $98 $99 $13 $-1 $100 reversed single #
loop $-1 $-1 $101 $36 #
plane-surface $-1 -49.415202738243295 -11.430054449333936 0 0 1 0 0 0 1 forward_v I I I I #
coedge $-1 $102 $103 $62 $104 forward $37 $-1 #
coedge $-1 $105 $39 $106 $107 reversed $24 $-1 #
coedge $-1 $39 $105 $60 $104 reversed $24 $-1 #
coedge $-1 $108 $109 $39 $64 reversed $110 $-1 #
edge $-1 $111 -6.0165338822953194 $112 6.0165338822953194 $63 $113 forward 7 unknown #
face $-1 $114 $115 $14 $-1 $116 reversed single #
loop $-1 $-1 $117 $40 #
plane-surface $-1 0 -20.463122213924574 0 0 1 0 0 0 1 forward_v I I I I #
coedge $-1 $118 $119 $120 $121 reversed $41 $-1 #
coedge $-1 $122 $43 $117 $123 reversed $27 $-1 #
coedge $-1 $43 $122 $118 $124 forward $27 $-1 #
coedge $-1 $120 $125 $43 $72 forward $115 $-1 #
edge $-1 $126 -12.247995554930677 $127 -4.1822577630571178 $71 $128 forward 7 unknown #
loop $-1 $-1 $78 $44 #
plane-surface $-1 -19.032560649565568 -16.430253317987795 65.470161310538614 0.70710678939079041 0 0.70710677298230451 0.70710677298230451 0 -0.70710678939079041 forward_v I I I I #
loop $-1 $-1 $129 $29 #
coedge $-1 $76 $76 $77 $130 reversed $45 $-1 #
coedge $-1 $77 $77 $76 $130 forward $47 $-1 #
coedge $-1 $78 $78 $48 $79 forward $73 $-1 #
edge $-1 $131 0 $131 6.2831853071796004 $78 $132 forward 7 unknown #
face $-1 $133 $134 $12 $-1 $135 reversed single #
loop $-1 $-1 $89 $49 #
plane-surface $-1 0 -20.463122213924574 0 0 1 0 0 0 1 forward_v I I I I #
coedge $-1 $94 $93 $136 $137 forward $50 $-1 #
coedge $-1 $138 $52 $139 $140 forward $33 $-1 #
coedge $-1 $52 $138 $141 $142 forward $33 $-1 #
coedge $-1 $143 $144 $52 $87 reversed $145 $-1 #
edge $-1 $146 -20.463122213924574 $147 20.463122213924574 $86 $148 forward 7 unknown #
coedge $-1 $54 $53 $138 $149 reversed $21 $-1 #
coedge $-1 $150 $141 $53 $90 forward $81 $-1 #
edge $-1 $151 -6.0165338822953194 $95 6.0165338822953194 $53 $152 forward 7 unknown #
coedge $-1 $139 $153 $54 $92 reversed $134 $-1 #
edge $-1 $154 -6.0165338822953194 $96 6.0165338822953194 $91 $155 forward 7 unknown #
coedge $-1 $83 $55 $153 $156 forward $50 $-1 #
coedge $-1 $55 $83 $150 $157 forward $50 $-1 #
vertex $-1 $56 $158 #
vertex $-1 $156 $159 #
straight-curve $-1 -45.948667867061374 0 -6.0165338822953194 0 1 0 I I #
face $-1 $160 $110 $13 $-1 $161 reversed single #
loop $-1 $-1 $162 $57 #
plane-surface $-1 -52.881737609425215 -9.9300544493339356 0 1 0 0 0 0 -1 forward_v I I I I #
coedge $-1 $163 $164 $165 $166 forward $58 $-1 #
coedge $-1 $167 $60 $163 $168 forward $37 $-1 #
coedge $-1 $60 $167 $108 $169 forward $37 $-1 #
edge $-1 $111 8.4300544493339356 $170 11.430054449333936 $60 $171 forward 7 unknown #
coedge $-1 $62 $61 $172 $173 forward $24 $-1 #
coedge $-1 $174 $175 $61 $107 forward $176 $-1 #
edge $-1 $177 -11.430054449333936 $112 -8.4300544493339356 $106 $178 forward 7 unknown #
coedge $-1 $179 $63 $103 $169 reversed $110 $-1 #
coedge $-1 $63 $179 $174 $180 reversed $110 $-1 #
loop $-1 $-1 $63 $98 #
vertex $-1 $104 $181 #
vertex $-1 $180 $182 #
straight-curve $-1 -45.948667867061374 -8.4300544493339356 0 0 0 1 I I #
face $-1 $-1 $183 $14 $-1 $184 forward single #
loop $-1 $-1 $71 $65 #
plane-surface $-1 45.948667867061374 0 0 -1 0 0 0 0 1 forward_v I I I I #
coedge $-1 $185 $186 $69 $123 forward $66 $-1 #
coedge $-1 $119 $68 $70 $124 reversed $41 $-1 #
coedge $-1 $68 $118 $187 $188 reversed $41 $-1 #
coedge $-1 $189 $71 $68 $121 forward $115 $-1 #
edge $-1 $127 -64.736763627567257 $190 -59.209161031287465 $120 $191 forward 7 unknown #
coedge $-1 $70 $69 $192 $193 reversed $27 $-1 #
edge $-1 $194 54.203901211906519 $126 62.021111680274537 $117 $195 forward 7 unknown #
edge $-1 $196 84.080125265754745 $127 91.897335734122763 $118 $197 forward 7 unknown #
coedge $-1 $71 $189 $185 $198 forward $115 $-1 #
vertex $-1 $72 $199 #
vertex $-1 $72 $200 #
straight-curve $-1 45.948667867061374 -8.2151266589938974 0.48893128601554281 0 1 0 I I #
coedge $-1 $129 $129 $-1 $201 reversed $75 $-1 #
edge $-1 $202 0 $202 6.2831853071796004 $76 $203 forward 7 unknown #
vertex $-1 $79 $204 #
ellipse-curve $-1 43.184866633055783 -16.430253317987795 3.2527325841554209 0.70710678939079041 0 0.70710677298230451 0.70710677298230451 0 -0.70710678939079041 1 I I #
face $-1 $-1 $145 $12 $-1 $205 reversed single #
loop $-1 $-1 $206 $80 #
plane-surface $-1 0 20.463122213924574 0 0 -1 0 0 0 -1 forward_v I I I I #
coedge $-1 $144 $143 $83 $137 reversed $145 $-1 #
edge $-1 $207 -20.463122213924574 $208 20.463122213924574 $136 $209 forward 7 unknown #
coedge $-1 $85 $84 $88 $149 forward $33 $-1 #
coedge $-1 $206 $91 $84 $140 reversed $134 $-1 #
edge $-1 $147 -45.948667867061374 $154 45.948667867061374 $139 $210 forward 7 unknown #
coedge $-1 $89 $211 $85 $142 reversed $81 $-1 #
edge $-1 $151 -45.948667867061374 $146 45.948667867061374 $141 $212 forward 7 unknown #
coedge $-1 $136 $86 $211 $213 forward $145 $-1 #
coedge $-1 $86 $136 $206 $214 reversed $145 $-1 #
loop $-1 $-1 $143 $133 #
vertex $-1 $87 $215 #
vertex $-1 $87 $216 #
straight-curve $-1 45.948667867061374 0 6.0165338822953194 0 1 0 I I #
edge $-1 $154 -20.463122213924574 $151 20.463122213924574 $88 $217 forward 7 unknown #
coedge $-1 $211 $89 $94 $157 reversed $81 $-1 #
vertex $-1 $149 $218 #
straight-curve $-1 -45.948667867061374 -20.463122213924574 0 0 0 -1 I I #
coedge $-1 $91 $206 $93 $156 reversed $134 $-1 #
vertex $-1 $140 $219 #
straight-curve $-1 -45.948667867061374 20.463122213924574 0 0 0 -1 I I #
edge $-1 $96 -45.948667867061374 $207 45.948667867061374 $153 $220 forward 7 unknown #
edge $-1 $208 -45.948667867061374 $95 45.948667867061374 $150 $221 forward 7 unknown #
point $-1 -45.948667867061374 -20.463122213924574 -6.0165338822953194 #
point $-1 -45.948667867061374 20.463122213924574 -6.0165338822953194 #
face $-1 $-1 $176 $13 $-1 $222 forward single #
plane-surface $-1 -49.415202738243295 -8.4300544493339356 0 0 -1 0 0 0 -1 forward_v I I I I #
coedge $-1 $223 $224 $179 $225 forward $99 $-1 #
coedge $-1 $172 $101 $102 $168 reversed $58 $-1 #
coedge $-1 $101 $172 $175 $226 reversed $58 $-1 #
coedge $-1 $224 $223 $101 $166 reversed $99 $-1 #
edge $-1 $227 -6.0165338822953194 $228 6.0165338822953194 $165 $229 forward 7 unknown #
coedge $-1 $103 $102 $223 $230 forward $37 $-1 #
edge $-1 $170 -3.4665348711819206 $228 3.4665348711819206 $163 $231 forward 7 unknown #
edge $-1 $232 -3.4665348711819206 $111 3.4665348711819206 $108 $233 forward 7 unknown #
vertex $-1 $168 $234 #
straight-curve $-1 -45.948667867061374 0 -6.0165338822953194 0 -1 0 I I #
coedge $-1 $164 $163 $105 $173 reversed $58 $-1 #
edge $-1 $177 -6.0165338822953194 $170 6.0165338822953194 $172 $235 forward 7 unknown #
coedge $-1 $236 $106 $109 $180 forward $176 $-1 #
coedge $-1 $106 $236 $164 $226 forward $176 $-1 #
loop $-1 $-1 $106 $160 #
vertex $-1 $107 $237 #
straight-curve $-1 -45.948667867061374 0 6.0165338822953194 0 1 0 I I #
coedge $-1 $109 $108 $162 $225 reversed $110 $-1 #
edge $-1 $112 -3.4665348711819206 $238 3.4665348711819206 $109 $239 forward 7 unknown #
point $-1 -45.948667867061374 -8.4300544493339356 -6.0165338822953194 #
point $-1 -45.948667867061374 -8.4300544493339356 6.0165338822953194 #
loop $-1 $-1 $192 $114 #
plane-surface $-1 0 0 6.0165338822953194 0 0 1 1 0 0 forward_v I I I I #
coedge $-1 $186 $117 $125 $198 reversed $66 $-1 #
coedge $-1 $117 $185 $240 $241 reversed $66 $-1 #
coedge $-1 $192 $242 $119 $188 forward $183 $-1 #
edge $-1 $190 -22.974333179582615 $196 -17.446730711571419 $187 $243 forward 7 unknown #
coedge $-1 $125 $120 $242 $244 reversed $115 $-1 #
vertex $-1 $121 $245 #
straight-curve $-1 45.948667867061374 -12.397384422051015 65.225694913582785 0 0 1 I I #
coedge $-1 $240 $187 $122 $193 forward $183 $-1 #
edge $-1 $196 4.1822577630571178 $194 12.247995554930677 $192 $246 forward 7 unknown #
vertex $-1 $241 $247 #
straight-curve $-1 2.0931197300473396 -20.463122213924574 44.344480440702107 0.70710677298230462 0 -0.70710678939079052 I I #
vertex $-1 $193 $248 #
straight-curve $-1 -19.032560649565568 -12.397384422051015 65.470161310538614 0.70710677298230451 0 -0.70710678939079041 I I #
edge $-1 $249 -6.0165338822953194 $126 -0.48893128601552904 $125 $250 forward 7 unknown #
point $-1 45.948667867061374 -20.463122213924574 0.48893128601552904 #
point $-1 45.948667867061374 -12.397384422051015 0.4889312860155286 #
edge $-1 $251 1 $251 0 $129 $-1 forward 7 unknown #
vertex $-1 $130 $252 #
ellipse-curve $-1 40.6583846702665 -16.430253317987795 0.72625067999341597 0.70710678939079041 0 0.70710677298230451 0.70710677298230451 0 -0.70710678939079041 1 I I #
point $-1 43.891973406038076 -16.430253317987795 2.5456257947646264 #
plane-surface $-1 45.948667867061374 0 0 -1 0 0 0 0 1 forward_v I I I I #
coedge $-1 $153 $139 $144 $214 forward $134 $-1 #
vertex $-1 $137 $253 #
vertex $-1 $213 $254 #
straight-curve $-1 45.948667867061374 0 -6.0165338822953194 0 -1 0 I I #
straight-curve $-1 0 20.463122213924574 6.0165338822953194 -1 0 0 I I #
coedge $-1 $141 $150 $143 $213 reversed $81 $-1 #
straight-curve $-1 0 -20.463122213924574 6.0165338822953194 1 0 0 I I #
edge $-1 $146 -6.0165338822953194 $208 6.0165338822953194 $143 $255 forward 7 unknown #
edge $-1 $147 -6.0165338822953194 $207 6.0165338822953194 $144 $256 forward 7 unknown #
point $-1 45.948667867061374 -20.463122213924574 6.0165338822953194 #
point $-1 45.948667867061374 20.463122213924574 6.0165338822953194 #
straight-curve $-1 -45.948667867061374 0 6.0165338822953194 0 -1 0 I I #
point $-1 -45.948667867061374 -20.463122213924574 6.0165338822953194 #
point $-1 -45.948667867061374 20.463122213924574 6.0165338822953194 #
straight-curve $-1 0 20.463122213924574 -6.0165338822953194 1 0 0 I I #
straight-curve $-1 0 -20.463122213924574 -6.0165338822953194 -1 0 0 I I #
plane-surface $-1 0 0 6.0165338822953194 0 0 1 1 0 0 forward_v I I I I #
coedge $-1 $165 $162 $167 $230 reversed $99 $-1 #
coedge $-1 $162 $165 $236 $257 reversed $99 $-1 #
edge $-1 $238 -6.0165338822953194 $232 6.0165338822953194 $179 $258 forward 7 unknown #
edge $-1 $227 -3.4665348711819206 $177 3.4665348711819206 $164 $259 forward 7 unknown #
vertex $-1 $257 $260 #
vertex $-1 $230 $261 #
straight-curve $-1 -52.881737609425215 -11.430054449333936 0 0 0 -1 I I #
edge $-1 $228 -1.5 $232 1.5 $223 $262 forward 7 unknown #
straight-curve $-1 -49.415202738243295 -11.430054449333936 -6.0165338822953194 -1 0 0 I I #
vertex $-1 $169 $263 #
straight-curve $-1 -49.415202738243295 -8.4300544493339356 -6.0165338822953194 1 0 0 I I #
point $-1 -45.948667867061374 -11.430054449333936 -6.0165338822953194 #
straight-curve $-1 -45.948667867061374 -11.430054449333936 0 0 0 -1 I I #
coedge $-1 $175 $174 $224 $257 forward $176 $-1 #
point $-1 -45.948667867061374 -11.430054449333936 6.0165338822953194 #
vertex $-1 $180 $264 #
straight-curve $-1 -49.415202738243295 -8.4300544493339356 6.0165338822953194 -1 0 0 I I #
coedge $-1 $242 $192 $186 $241 forward $183 $-1 #
edge $-1 $194 40.421065399050178 $249 45.948667867061374 $186 $265 forward 7 unknown #
coedge $-1 $187 $240 $189 $244 forward $183 $-1 #
straight-curve $-1 22.974334687478759 -12.397384422051015 6.0165338822953203 -1 0 0 I I #
edge $-1 $249 -20.463122213924574 $190 -12.397384422051015 $189 $266 forward 7 unknown #
point $-1 45.948667867061374 -12.397384422051015 6.0165338822953194 #
straight-curve $-1 40.421065399050178 -8.2151266589938974 6.0165338822953132 0 -1 0 I I #
point $-1 40.421065399050178 -20.463122213924574 6.0165338822953203 #
point $-1 40.421065399050178 -12.397384422051015 6.0165338822953203 #
vertex $-1 $244 $267 #
straight-curve $-1 45.948667867061374 -20.463122213924574 0 0 0 -1 I I #
vertex $-1 $201 $268 #
point $-1 41.3654914432488 -16.430253317987795 0.019143890602625557 #
point $-1 45.948667867061374 20.463122213924574 -6.0165338822953194 #
point $-1 45.948667867061374 -20.463122213924574 -6.0165338822953194 #
straight-curve $-1 45.948667867061374 -20.463122213924574 0 0 0 -1 I I #
straight-curve $-1 45.948667867061374 20.463122213924574 0 0 0 -1 I I #
edge $-1 $238 -1.5 $227 1.5 $224 $269 forward 7 unknown #
straight-curve $-1 -52.881737609425215 -8.4300544493339356 0 0 0 -1 I I #
straight-curve $-1 -49.415202738243295 -11.430054449333936 6.0165338822953194 1 0 0 I I #
point $-1 -52.881737609425215 -11.430054449333936 6.0165338822953194 #
point $-1 -52.881737609425215 -11.430054449333936 -6.0165338822953194 #
straight-curve $-1 -52.881737609425215 -9.9300544493339356 -6.0165338822953194 0 1 0 I I #
point $-1 -52.881737609425215 -8.4300544493339356 -6.0165338822953194 #
point $-1 -52.881737609425215 -8.4300544493339356 6.0165338822953194 #
straight-curve $-1 0 -20.463122213924574 6.0165338822953194 1 0 0 I I #
straight-curve $-1 45.948667867061374 0 6.0165338822953194 0 1 0 I I #
point $-1 45.948667867061374 -20.463122213924574 6.0165338822953194 #
point $-1 39.951277880875708 -16.430253317987795 0.019143907011111794 #
straight-curve $-1 -52.881737609425215 -9.9300544493339356 6.0165338822953194 0 -1 0 I I #
End-of-ACIS-data 