500 0 6 0           
7 Unknown 11 ACIS 5.0 NT 24 Fri Mar 26 02:20:54 1999 
-1 9.9999999999999995e-007 1e-010 
body $-1 $6 $-1 $7 #
body $-1 $8 $-1 $9 #
body $-1 $10 $-1 $11 #
body $-1 $12 $-1 $13 #
body $-1 $14 $-1 $15 #
body $-1 $16 $-1 $17 #
lump $-1 $-1 $18 $0 #
transform $-1 1 0 0 0 1 0 0 0 1 43.497421185949278 21.886768144881703 5.024799057695291 1 rotate no_reflect no_shear #
lump $-1 $-1 $19 $1 #
transform $-1 1 0 0 0 1 0 0 0 1 43.497421185949278 21.886768144881703 5.024799057695291 1 rotate no_reflect no_shear #
lump $-1 $-1 $20 $2 #
transform $-1 1 0 0 0 1 0 0 0 1 43.497421185949278 21.886768144881703 5.024799057695291 1 rotate no_reflect no_shear #
lump $-1 $-1 $21 $3 #
transform $-1 1 0 0 0 1 0 0 0 1 43.497421185949278 21.886768144881703 5.024799057695291 1 rotate no_reflect no_shear #
lump $-1 $-1 $22 $4 #
transform $-1 1 0 0 0 1 0 0 0 1 43.497421185949278 21.886768144881703 5.024799057695291 1 rotate no_reflect no_shear #
lump $-1 $-1 $23 $5 #
transform $-1 1 0 0 0 1 0 0 0 1 43.497421185949278 21.886768144881703 5.024799057695291 1 rotate no_reflect no_shear #
shell $-1 $-1 $-1 $24 $-1 $6 #
shell $-1 $-1 $-1 $25 $-1 $8 #
shell $-1 $-1 $-1 $26 $-1 $10 #
shell $-1 $-1 $-1 $27 $-1 $12 #
shell $-1 $-1 $-1 $28 $-1 $14 #
shell $-1 $-1 $-1 $29 $-1 $16 #
face $-1 $30 $31 $18 $-1 $32 forward single #
face $-1 $33 $34 $19 $-1 $35 forward single #
face $-1 $36 $37 $20 $-1 $38 reversed single #
face $-1 $39 $40 $21 $-1 $41 forward single #
face $-1 $42 $43 $22 $-1 $44 forward single #
face $-1 $45 $46 $23 $-1 $47 forward single #
face $-1 $48 $49 $18 $-1 $50 reversed single #
loop $-1 $-1 $51 $24 #
plane-surface $-1 0 0 5.024799057695291 0 0 1 1 0 0 forward_v I I I I #
face $-1 $52 $53 $19 $-1 $54 reversed single #
loop $-1 $-1 $55 $25 #
plane-surface $-1 -40.478714150865777 0 3.6851021838729343 0 0 1 1 0 0 forward_v I I I I #
face $-1 $56 $57 $20 $-1 $58 reversed single #
loop $-1 $-1 $59 $26 #
plane-surface $-1 -29.754758427370305 -3.8426704338657771 35.864259456817898 0 0.80901700255871778 0.5877852410284794 1 0 0 forward_v I I I I #
face $-1 $60 $61 $21 $-1 $62 forward single #
loop $-1 $63 $64 $27 #
cone-surface $-1 -34.37790764041749 19.383505804451499 2.1262799227572518 0 -0.80901700255871778 -0.5877852410284794 1 0 0 1 I I 0 1 1 forward I I I I #
face $-1 $65 $66 $22 $-1 $67 forward single #
loop $-1 $68 $69 $28 #
cone-surface $-1 -29.754758427370305 19.383505804451499 2.1262799227572518 0 -0.80901700255871778 -0.5877852410284794 1 0 0 1 I I 0 1 1 forward I I I I #
face $-1 $70 $71 $23 $-1 $72 forward single #
loop $-1 $73 $74 $29 #
cone-surface $-1 -25.131609214323124 19.383505804451499 2.1262799227572518 0 -0.80901700255871778 -0.5877852410284794 1 0 0 1 I I 0 1 1 forward I I I I #
face $-1 $75 $76 $18 $-1 $77 reversed single #
loop $-1 $-1 $78 $30 #
plane-surface $-1 0 0 -5.024799057695291 0 0 1 1 0 0 forward_v I I I I #
coedge $-1 $79 $80 $81 $82 forward $31 $-1 #
face $-1 $83 $84 $19 $-1 $85 reversed single #
loop $-1 $-1 $86 $33 #
plane-surface $-1 -40.478714150865777 0 0.68510218387293431 0 0 1 1 0 0 forward_v I I I I #
coedge $-1 $87 $88 $89 $90 forward $34 $-1 #
face $-1 $91 $92 $20 $-1 $93 forward single #
loop $-1 $-1 $94 $36 #
plane-surface $-1 -22.049509738958335 66.537636179915722 86.998543848618866 -1 0 0 0 0.80901700255871778 0.5877852410284794 forward_v I I I I #
coedge $-1 $95 $96 $97 $98 reversed $37 $-1 #
face $-1 $-1 $99 $21 $-1 $100 forward single #
loop $-1 $101 $102 $39 #
cone-surface $-1 -34.37790764041749 18.137364819782707 1.2209055280134882 0 -0.80901700255871778 -0.5877852410284794 0.5 0 0 1 I I -0.70710678118654746 0.70710678118654746 0.5 forward I I I I #
loop $-1 $-1 $103 $27 #
coedge $-1 $64 $64 $104 $105 reversed $40 $-1 #
face $-1 $-1 $106 $22 $-1 $107 forward single #
loop $-1 $108 $109 $42 #
cone-surface $-1 -29.754758427370305 18.137364819782707 1.2209055280134882 0 -0.80901700255871778 -0.5877852410284794 0.5 0 0 1 I I -0.70710678118654746 0.70710678118654746 0.5 forward I I I I #
loop $-1 $-1 $110 $28 #
coedge $-1 $69 $69 $111 $112 reversed $43 $-1 #
face $-1 $-1 $113 $23 $-1 $114 forward single #
loop $-1 $115 $116 $45 #
cone-surface $-1 -25.131609214323124 18.137364819782707 1.2209055280134882 0 -0.80901700255871778 -0.5877852410284794 0.5 0 0 1 I I -0.70710678118654746 0.70710678118654746 0.5 forward I I I I #
loop $-1 $-1 $117 $29 #
coedge $-1 $74 $74 $118 $119 reversed $46 $-1 #
face $-1 $120 $121 $18 $-1 $122 reversed single #
loop $-1 $-1 $123 $48 #
plane-surface $-1 0 -21.886768144881703 0 0 1 0 0 0 1 forward_v I I I I #
coedge $-1 $124 $125 $126 $127 forward $49 $-1 #
coedge $-1 $128 $51 $129 $130 forward $31 $-1 #
coedge $-1 $51 $128 $131 $132 forward $31 $-1 #
coedge $-1 $133 $134 $51 $82 reversed $135 $-1 #
edge $-1 $136 -21.886768144881703 $137 21.886768144881703 $81 $138 forward 7 unknown #
face $-1 $139 $140 $19 $-1 $141 reversed single #
loop $-1 $-1 $89 $52 #
plane-surface $-1 -37.460007115782275 0 2.1851021838729343 -1 0 0 0 0 1 forward_v I I I I #
coedge $-1 $142 $143 $144 $145 forward $53 $-1 #
coedge $-1 $146 $55 $147 $148 reversed $34 $-1 #
coedge $-1 $55 $146 $149 $150 reversed $34 $-1 #
coedge $-1 $151 $152 $55 $90 reversed $84 $-1 #
edge $-1 $153 -21.886768144881703 $154 21.886768144881703 $89 $155 forward 7 unknown #
face $-1 $156 $157 $20 $-1 $158 forward single #
loop $-1 $-1 $159 $56 #
plane-surface $-1 -37.460007115782275 0 2.1851021838729343 -1 0 0 0 0 1 forward_v I I I I #
coedge $-1 $160 $161 $162 $163 reversed $57 $-1 #
coedge $-1 $164 $59 $159 $165 forward $37 $-1 #
coedge $-1 $59 $164 $160 $166 forward $37 $-1 #
coedge $-1 $162 $167 $59 $98 forward $157 $-1 #
edge $-1 $168 -22.582627902097123 $169 -7.1721305252731824 $97 $170 forward 7 unknown #
loop $-1 $-1 $104 $60 #
plane-surface $-1 -29.754758427370305 -3.8426704338657771 35.864259456817898 0 0.80901700255871778 0.5877852410284794 1 0 0 forward_v I I I I #
loop $-1 $-1 $171 $39 #
coedge $-1 $102 $102 $103 $172 reversed $61 $-1 #
coedge $-1 $103 $103 $102 $172 forward $63 $-1 #
coedge $-1 $104 $104 $64 $105 forward $99 $-1 #
edge $-1 $173 1.6615352820468872e-015 $173 6.2831853071796022 $104 $174 forward 7 unknown #
loop $-1 $-1 $111 $65 #
plane-surface $-1 -29.754758427370305 -3.8426704338657771 35.864259456817898 0 0.80901700255871778 0.5877852410284794 1 0 0 forward_v I I I I #
loop $-1 $-1 $175 $42 #
coedge $-1 $109 $109 $110 $176 reversed $66 $-1 #
coedge $-1 $110 $110 $109 $176 forward $68 $-1 #
coedge $-1 $111 $111 $69 $112 forward $106 $-1 #
edge $-1 $177 1.6615352820468872e-015 $177 6.2831853071796022 $111 $178 forward 7 unknown #
loop $-1 $-1 $118 $70 #
plane-surface $-1 -29.754758427370305 -3.8426704338657771 35.864259456817898 0 0.80901700255871778 0.5877852410284794 1 0 0 forward_v I I I I #
loop $-1 $-1 $179 $45 #
coedge $-1 $116 $116 $117 $180 reversed $71 $-1 #
coedge $-1 $117 $117 $116 $180 forward $73 $-1 #
coedge $-1 $118 $118 $74 $119 forward $113 $-1 #
edge $-1 $181 1.6615352820468872e-015 $181 6.2831853071796022 $118 $182 forward 7 unknown #
face $-1 $183 $184 $18 $-1 $185 reversed single #
loop $-1 $-1 $186 $75 #
plane-surface $-1 -43.497421185949278 0 0 1 0 0 0 0 -1 forward_v I I I I #
coedge $-1 $187 $131 $188 $189 forward $76 $-1 #
coedge $-1 $190 $78 $187 $191 forward $49 $-1 #
coedge $-1 $78 $190 $192 $193 forward $49 $-1 #
coedge $-1 $134 $133 $78 $127 reversed $135 $-1 #
edge $-1 $194 -21.886768144881703 $195 21.886768144881703 $126 $196 forward 7 unknown #
coedge $-1 $80 $79 $197 $198 forward $31 $-1 #
coedge $-1 $199 $200 $79 $130 reversed $184 $-1 #
edge $-1 $137 -43.497421185949278 $201 43.497421185949278 $129 $202 forward 7 unknown #
coedge $-1 $123 $203 $80 $132 reversed $76 $-1 #
edge $-1 $204 -43.497421185949278 $136 43.497421185949278 $131 $205 forward 7 unknown #
coedge $-1 $126 $81 $203 $206 forward $135 $-1 #
coedge $-1 $81 $126 $199 $207 reversed $135 $-1 #
loop $-1 $-1 $133 $183 #
vertex $-1 $82 $208 #
vertex $-1 $82 $209 #
straight-curve $-1 43.497421185949278 0 5.024799057695291 0 1 0 I I #
face $-1 $210 $211 $19 $-1 $212 reversed single #
loop $-1 $-1 $213 $83 #
plane-surface $-1 0 -21.886768144881703 0 0 1 0 0 0 1 forward_v I I I I #
coedge $-1 $214 $86 $213 $215 reversed $53 $-1 #
coedge $-1 $86 $214 $216 $217 reversed $53 $-1 #
coedge $-1 $152 $151 $86 $145 reversed $84 $-1 #
edge $-1 $218 -21.886768144881703 $219 21.886768144881703 $144 $220 forward 7 unknown #
coedge $-1 $88 $87 $221 $222 reversed $34 $-1 #
coedge $-1 $223 $224 $87 $148 forward $225 $-1 #
edge $-1 $226 -23.25806411051639 $154 -17.220650040349387 $147 $227 forward 7 unknown #
coedge $-1 $228 $229 $88 $150 forward $140 $-1 #
edge $-1 $153 17.220650040349387 $230 23.25806411051639 $149 $231 forward 7 unknown #
coedge $-1 $144 $89 $229 $232 reversed $84 $-1 #
coedge $-1 $89 $144 $223 $233 reversed $84 $-1 #
vertex $-1 $150 $234 #
vertex $-1 $148 $235 #
straight-curve $-1 -37.460007115782275 0 3.6851021838729343 0 1 0 I I #
face $-1 $-1 $236 $20 $-1 $237 reversed single #
loop $-1 $-1 $162 $91 #
plane-surface $-1 0 0 5.024799057695291 0 0 1 1 0 0 forward_v I I I I #
coedge $-1 $238 $239 $95 $165 reversed $92 $-1 #
coedge $-1 $161 $94 $96 $166 reversed $57 $-1 #
coedge $-1 $94 $160 $240 $241 reversed $57 $-1 #
coedge $-1 $242 $97 $94 $163 forward $157 $-1 #
edge $-1 $169 -14.705309659157706 $243 -11.382049945076158 $162 $244 forward 7 unknown #
coedge $-1 $96 $95 $245 $246 reversed $37 $-1 #
edge $-1 $168 38.119669057121342 $247 43.77353628976342 $159 $248 forward 7 unknown #
edge $-1 $249 -43.77353628976342 $169 -38.119669057121342 $160 $250 forward 7 unknown #
coedge $-1 $97 $242 $238 $251 forward $157 $-1 #
vertex $-1 $251 $252 #
vertex $-1 $98 $253 #
straight-curve $-1 -14.877379213685153 18.563508430800155 5.0247990576952901 1 0 0 I I #
coedge $-1 $171 $171 $-1 $254 reversed $101 $-1 #
edge $-1 $255 0 $255 6.2831853071796004 $102 $256 forward 7 unknown #
vertex $-1 $105 $257 #
ellipse-curve $-1 -34.37790764041749 20.225138287840927 2.7377616969867726 0 0.80901700255871778 0.5877852410284794 1 0 0 1 I I #
coedge $-1 $175 $175 $-1 $258 reversed $108 $-1 #
edge $-1 $259 0 $259 6.2831853071796004 $109 $260 forward 7 unknown #
vertex $-1 $112 $261 #
ellipse-curve $-1 -29.754758427370305 20.225138287840927 2.7377616969867726 0 0.80901700255871778 0.5877852410284794 1 0 0 1 I I #
coedge $-1 $179 $179 $-1 $262 reversed $115 $-1 #
edge $-1 $263 0 $263 6.2831853071796004 $116 $264 forward 7 unknown #
vertex $-1 $119 $265 #
ellipse-curve $-1 -25.131609214323124 20.225138287840927 2.7377616969867726 0 0.80901700255871778 0.5877852410284794 1 0 0 1 I I #
face $-1 $-1 $135 $18 $-1 $266 reversed single #
loop $-1 $-1 $199 $120 #
plane-surface $-1 0 21.886768144881703 0 0 -1 0 0 0 -1 forward_v I I I I #
coedge $-1 $267 $197 $200 $268 forward $121 $-1 #
coedge $-1 $203 $123 $124 $191 reversed $76 $-1 #
coedge $-1 $197 $267 $123 $189 reversed $121 $-1 #
edge $-1 $204 -5.024799057695291 $269 5.024799057695291 $188 $270 forward 7 unknown #
coedge $-1 $125 $124 $267 $271 forward $49 $-1 #
edge $-1 $195 -43.497421185949278 $269 43.497421185949278 $187 $272 forward 7 unknown #
coedge $-1 $200 $199 $125 $193 reversed $184 $-1 #
edge $-1 $273 -43.497421185949278 $194 43.497421185949278 $192 $274 forward 7 unknown #
vertex $-1 $127 $275 #
vertex $-1 $206 $276 #
straight-curve $-1 43.497421185949278 0 -5.024799057695291 0 -1 0 I I #
coedge $-1 $186 $188 $128 $198 reversed $121 $-1 #
edge $-1 $201 -21.886768144881703 $204 21.886768144881703 $197 $277 forward 7 unknown #
coedge $-1 $192 $129 $134 $207 forward $184 $-1 #
coedge $-1 $129 $192 $186 $268 reversed $184 $-1 #
vertex $-1 $130 $278 #
straight-curve $-1 0 21.886768144881703 5.024799057695291 -1 0 0 I I #
coedge $-1 $131 $187 $133 $206 reversed $76 $-1 #
vertex $-1 $198 $279 #
straight-curve $-1 0 -21.886768144881703 5.024799057695291 1 0 0 I I #
edge $-1 $136 -5.024799057695291 $195 5.024799057695291 $133 $280 forward 7 unknown #
edge $-1 $137 -5.024799057695291 $194 5.024799057695291 $134 $281 forward 7 unknown #
point $-1 43.497421185949278 -21.886768144881703 5.024799057695291 #
point $-1 43.497421185949278 21.886768144881703 5.024799057695291 #
face $-1 $-1 $225 $19 $-1 $282 reversed single #
loop $-1 $-1 $283 $139 #
plane-surface $-1 -43.497421185949278 0 0 1 0 0 0 0 -1 forward_v I I I I #
coedge $-1 $229 $228 $142 $215 forward $140 $-1 #
coedge $-1 $143 $142 $283 $284 reversed $53 $-1 #
edge $-1 $285 -23.25806411051639 $219 -17.220650040349387 $213 $286 forward 7 unknown #
coedge $-1 $224 $223 $143 $217 forward $225 $-1 #
edge $-1 $218 17.220650040349387 $287 23.25806411051639 $216 $288 forward 7 unknown #
vertex $-1 $217 $289 #
vertex $-1 $215 $290 #
straight-curve $-1 -37.460007115782275 0 0.68510218387293431 0 -1 0 I I #
coedge $-1 $291 $292 $146 $222 forward $211 $-1 #
edge $-1 $230 -21.886768144881703 $226 21.886768144881703 $221 $293 forward 7 unknown #
coedge $-1 $216 $147 $152 $233 forward $225 $-1 #
coedge $-1 $147 $216 $291 $294 reversed $225 $-1 #
loop $-1 $-1 $216 $210 #
vertex $-1 $294 $295 #
straight-curve $-1 -20.239357075432888 21.886768144881703 3.6851021838729343 1 0 0 I I #
coedge $-1 $213 $149 $292 $296 forward $140 $-1 #
coedge $-1 $149 $213 $151 $232 forward $140 $-1 #
vertex $-1 $296 $297 #
straight-curve $-1 -20.239357075432888 -21.886768144881703 3.6851021838729343 -1 0 0 I I #
edge $-1 $219 -0.40744890806353284 $153 2.5925510919364672 $229 $298 forward 7 unknown #
edge $-1 $154 -2.5925510919364672 $218 0.40744890806353284 $223 $299 forward 7 unknown #
point $-1 -37.460007115782275 -21.886768144881703 3.6851021838729343 #
point $-1 -37.460007115782275 21.886768144881703 3.6851021838729343 #
loop $-1 $-1 $300 $156 #
plane-surface $-1 0 21.886768144881703 0 0 -1 0 0 0 -1 forward_v I I I I #
coedge $-1 $239 $159 $167 $251 reversed $92 $-1 #
coedge $-1 $159 $238 $300 $301 reversed $92 $-1 #
coedge $-1 $245 $302 $161 $241 forward $236 $-1 #
edge $-1 $243 38.474472866614143 $249 43.048547588031191 $240 $303 forward 7 unknown #
coedge $-1 $167 $162 $302 $304 forward $157 $-1 #
vertex $-1 $304 $305 #
straight-curve $-1 -22.049509738958335 33.268818089957861 5.0247990576952901 0 1 0 I I #
coedge $-1 $300 $240 $164 $246 forward $236 $-1 #
edge $-1 $249 7.1721305252731824 $247 22.582627902097123 $245 $306 forward 7 unknown #
vertex $-1 $301 $307 #
straight-curve $-1 -37.460007115782275 -3.8426704338657771 35.864259456817898 0 0.5877852410284794 -0.80901700255871778 I I #
vertex $-1 $246 $308 #
straight-curve $-1 -22.049509738958335 -3.8426704338657771 35.864259456817898 0 -0.5877852410284794 0.80901700255871778 I I #
edge $-1 $309 11.382049945076158 $168 14.705309659157706 $167 $310 forward 7 unknown #
point $-1 -37.460007115782275 18.563508430800155 5.0247990576952901 #
point $-1 -22.049509738958335 18.563508430800155 5.0247990576952901 #
edge $-1 $311 1 $311 0 $171 $-1 forward 7 unknown #
vertex $-1 $172 $312 #
ellipse-curve $-1 -34.37790764041749 18.541873321062067 1.5147981485277278 0 0.80901700255871778 0.5877852410284794 1 0 0 1 I I #
point $-1 -33.37790764041749 20.225138287840934 2.7377616969867757 #
edge $-1 $313 1 $313 0 $175 $-1 forward 7 unknown #
vertex $-1 $176 $314 #
ellipse-curve $-1 -29.754758427370305 18.541873321062067 1.5147981485277278 0 0.80901700255871778 0.5877852410284794 1 0 0 1 I I #
point $-1 -28.754758427370305 20.225138287840934 2.7377616969867757 #
edge $-1 $315 1 $315 0 $179 $-1 forward 7 unknown #
vertex $-1 $180 $316 #
ellipse-curve $-1 -25.131609214323124 18.541873321062067 1.5147981485277278 0 0.80901700255871778 0.5877852410284794 1 0 0 1 I I #
point $-1 -24.131609214323124 20.225138287840934 2.7377616969867757 #
plane-surface $-1 43.497421185949278 0 0 -1 0 0 0 0 1 forward_v I I I I #
coedge $-1 $188 $186 $190 $271 reversed $121 $-1 #
edge $-1 $201 -5.024799057695291 $273 5.024799057695291 $200 $317 forward 7 unknown #
vertex $-1 $271 $318 #
straight-curve $-1 -43.497421185949278 -21.886768144881703 0 0 0 -1 I I #
edge $-1 $269 -21.886768144881703 $273 21.886768144881703 $267 $319 forward 7 unknown #
straight-curve $-1 0 -21.886768144881703 -5.024799057695291 -1 0 0 I I #
vertex $-1 $193 $320 #
straight-curve $-1 0 21.886768144881703 -5.024799057695291 1 0 0 I I #
point $-1 43.497421185949278 21.886768144881703 -5.024799057695291 #
point $-1 43.497421185949278 -21.886768144881703 -5.024799057695291 #
straight-curve $-1 -43.497421185949278 0 5.024799057695291 0 -1 0 I I #
point $-1 -43.497421185949278 21.886768144881703 5.024799057695291 #
point $-1 -43.497421185949278 -21.886768144881703 5.024799057695291 #
straight-curve $-1 43.497421185949278 -21.886768144881703 0 0 0 -1 I I #
straight-curve $-1 43.497421185949278 21.886768144881703 0 0 0 -1 I I #
plane-surface $-1 0 21.886768144881703 0 0 -1 0 0 0 -1 forward_v I I I I #
coedge $-1 $292 $291 $214 $284 forward $211 $-1 #
edge $-1 $287 -21.886768144881703 $285 21.886768144881703 $283 $321 forward 7 unknown #
vertex $-1 $215 $322 #
straight-curve $-1 -20.239357075432888 -21.886768144881703 0.68510218387293431 1 0 0 I I #
vertex $-1 $217 $323 #
straight-curve $-1 -20.239357075432888 21.886768144881703 0.68510218387293431 -1 0 0 I I #
point $-1 -37.460007115782275 21.886768144881703 0.68510218387293431 #
point $-1 -37.460007115782275 -21.886768144881703 0.68510218387293431 #
coedge $-1 $283 $221 $224 $294 forward $211 $-1 #
coedge $-1 $221 $283 $228 $296 reversed $211 $-1 #
straight-curve $-1 -43.497421185949278 0 3.6851021838729343 0 1 0 I I #
edge $-1 $226 -3.6851021838729343 $287 -0.68510218387293431 $224 $324 forward 7 unknown #
point $-1 -43.497421185949278 21.886768144881703 3.6851021838729343 #
edge $-1 $230 -3.6851021838729343 $285 -0.68510218387293431 $292 $325 forward 7 unknown #
point $-1 -43.497421185949278 -21.886768144881703 3.6851021838729343 #
straight-curve $-1 -37.460007115782275 -21.886768144881703 1.0925510919364672 0 0 1 I I #
straight-curve $-1 -37.460007115782275 21.886768144881703 1.0925510919364672 0 0 -1 I I #
coedge $-1 $302 $245 $239 $301 forward $236 $-1 #
edge $-1 $247 -43.048547588031191 $309 -38.474472866614143 $300 $326 forward 7 unknown #
coedge $-1 $240 $300 $242 $304 reversed $236 $-1 #
straight-curve $-1 -22.049509738958335 21.886768144881703 43.499271924309433 0 0 -1 I I #
edge $-1 $243 22.049509738958335 $309 37.460007115782275 $302 $327 forward 7 unknown #
point $-1 -22.049509738958335 21.886768144881703 5.024799057695291 #
straight-curve $-1 -14.877379213685153 21.886768144881703 0.45072433627824182 -1 0 0 I I #
point $-1 -37.460007115782275 21.886768144881703 0.45072433627824182 #
point $-1 -22.049509738958335 21.886768144881703 0.45072433627824182 #
vertex $-1 $251 $328 #
straight-curve $-1 -37.460007115782275 33.268818089957861 5.0247990576952901 0 -1 0 I I #
vertex $-1 $254 $329 #
point $-1 -33.37790764041749 18.541873321062067 1.5147981485277278 #
vertex $-1 $258 $330 #
point $-1 -28.754758427370305 18.541873321062067 1.5147981485277278 #
vertex $-1 $262 $331 #
point $-1 -24.131609214323124 18.541873321062067 1.5147981485277278 #
straight-curve $-1 -43.497421185949278 21.886768144881703 0 0 0 -1 I I #
point $-1 -43.497421185949278 -21.886768144881703 -5.024799057695291 #
straight-curve $-1 -43.497421185949278 0 -5.024799057695291 0 1 0 I I #
point $-1 -43.497421185949278 21.886768144881703 -5.024799057695291 #
straight-curve $-1 -43.497421185949278 0 0.68510218387293431 0 -1 0 I I #
point $-1 -43.497421185949278 -21.886768144881703 0.68510218387293431 #
point $-1 -43.497421185949278 21.886768144881703 0.68510218387293431 #
straight-curve $-1 -43.497421185949278 21.886768144881703 0 0 0 -1 I I #
straight-curve $-1 -43.497421185949278 -21.886768144881703 0 0 0 -1 I I #
straight-curve $-1 -37.460007115782275 21.886768144881703 43.499271924309433 0 0 1 I I #
straight-curve $-1 0 21.886768144881703 5.024799057695291 -1 0 0 I I #
point $-1 -37.460007115782275 21.886768144881703 5.024799057695291 #
point $-1 -34.37790764041749 17.732856318503348 0.92701290749924847 #
point $-1 -29.754758427370305 17.732856318503348 0.92701290749924847 #
point $-1 -25.131609214323124 17.732856318503348 0.92701290749924847 #
End-of-ACIS-data 