500 0 6 0           
7 Unknown 11 ACIS 5.0 NT 24 Thu Mar 25 15:31:53 1999 
-1 9.9999999999999995e-007 1e-010 
body $-1 $6 $-1 $7 #
body $-1 $8 $-1 $9 #
body $-1 $10 $-1 $11 #
body $-1 $12 $-1 $13 #
body $-1 $14 $-1 $15 #
body $-1 $16 $-1 $17 #
lump $-1 $-1 $18 $0 #
transform $-1 1 0 0 0 1 0 0 0 1 71.504867702261421 37.432744777695284 17.899333933541765 1 rotate no_reflect no_shear #
lump $-1 $-1 $19 $1 #
transform $-1 1 0 0 0 1 0 0 0 1 71.504867702261421 37.432744777695284 17.899333933541765 1 rotate no_reflect no_shear #
lump $-1 $-1 $20 $2 #
transform $-1 1 0 0 0 1 0 0 0 1 71.504867702261421 37.432744777695284 17.899333933541765 1 rotate no_reflect no_shear #
lump $-1 $-1 $21 $3 #
transform $-1 1 0 0 0 1 0 0 0 1 71.504867702261421 37.432744777695284 17.899333933541765 1 rotate no_reflect no_shear #
lump $-1 $-1 $22 $4 #
transform $-1 1 0 0 0 1 0 0 0 1 71.504867702261421 37.432744777695284 17.899333933541765 1 rotate no_reflect no_shear #
lump $-1 $-1 $23 $5 #
transform $-1 1 0 0 0 1 0 0 0 1 71.504867702261421 37.432744777695284 17.899333933541765 1 rotate no_reflect no_shear #
shell $-1 $-1 $-1 $24 $-1 $6 #
shell $-1 $-1 $-1 $25 $-1 $8 #
shell $-1 $-1 $-1 $26 $-1 $10 #
shell $-1 $-1 $-1 $27 $-1 $12 #
shell $-1 $-1 $-1 $28 $-1 $14 #
shell $-1 $-1 $-1 $29 $-1 $16 #
face $-1 $30 $31 $18 $-1 $32 forward single #
face $-1 $33 $34 $19 $-1 $35 reversed single #
face $-1 $36 $37 $20 $-1 $38 reversed single #
face $-1 $39 $40 $21 $-1 $41 forward single #
face $-1 $42 $43 $22 $-1 $44 reversed single #
face $-1 $45 $46 $23 $-1 $47 forward single #
face $-1 $48 $49 $18 $-1 $50 reversed single #
loop $-1 $-1 $51 $24 #
plane-surface $-1 0 0 17.899333933541765 0 0 1 1 0 0 forward_v I I I I #
face $-1 $52 $53 $19 $-1 $54 reversed single #
loop $-1 $-1 $55 $25 #
plane-surface $-1 0 -29.828939255836726 11.246858317542177 0 0 1 1 0 0 forward_v I I I I #
face $-1 $56 $57 $20 $-1 $58 reversed single #
loop $-1 $-1 $59 $26 #
plane-surface $-1 71.504870048834633 33.501881231101798 212.55402552018131 0 -1 0 -0.70710678939079041 0 -0.70710677298230451 forward_v I I I I #
face $-1 $60 $61 $21 $-1 $62 forward single #
loop $-1 $63 $64 $27 #
cone-surface $-1 66.302377690642899 26.174758511632191 12.696843866483324 -0.70710678939079041 0 -0.70710677298230451 1.414213545964609 0 -1.4142135787815808 1 I I 0 1 2 forward I I I I #
face $-1 $65 $66 $22 $-1 $67 reversed single #
loop $-1 $-1 $68 $28 #
plane-surface $-1 -172.62802255578003 18.847635792162585 111.4308706666627 0 1 0 -0.70710678939079041 0 0.70710677298230451 forward_v I I I I #
face $-1 $69 $70 $23 $-1 $71 forward single #
loop $-1 $72 $73 $29 #
cone-surface $-1 -66.302377690642899 26.174758511632191 12.696843866483327 0.70710678939079041 0 -0.70710677298230451 1.414213545964609 0 1.4142135787815808 1 I I 0 1 2 forward I I I I #
face $-1 $74 $75 $18 $-1 $76 reversed single #
loop $-1 $-1 $77 $30 #
plane-surface $-1 0 0 -17.899333933541765 0 0 1 1 0 0 forward_v I I I I #
coedge $-1 $78 $79 $80 $81 forward $31 $-1 #
face $-1 $82 $83 $19 $-1 $84 reversed single #
loop $-1 $-1 $85 $33 #
plane-surface $-1 0 -22.225133733978168 14.573096125541969 0 -1 0 0 0 -1 forward_v I I I I #
coedge $-1 $86 $87 $88 $89 reversed $34 $-1 #
face $-1 $90 $91 $20 $-1 $92 reversed single #
loop $-1 $-1 $93 $36 #
plane-surface $-1 -29.618284804683967 26.174758511632191 111.43087301323594 0.70710678939079041 0 0.70710677298230451 0.70710677298230451 0 -0.70710678939079041 forward_v I I I I #
coedge $-1 $94 $95 $96 $97 reversed $37 $-1 #
face $-1 $-1 $98 $21 $-1 $99 forward single #
loop $-1 $100 $101 $39 #
cone-surface $-1 64.188588688463668 26.174758511632191 10.58305491335479 -0.70710678939079041 0 -0.70710677298230451 0.70710677298230451 0 -0.70710678939079041 1 I I -0.70710678118654746 0.70710678118654746 1 forward I I I I #
loop $-1 $-1 $102 $27 #
coedge $-1 $64 $64 $103 $104 reversed $40 $-1 #
face $-1 $105 $106 $22 $-1 $107 reversed single #
loop $-1 $-1 $108 $42 #
plane-surface $-1 -71.504867702261436 26.174758511632191 10.307718159717325 -0.70710678939079041 0 0.70710677298230451 0.70710677298230451 0 0.70710678939079041 forward_v I I I I #
coedge $-1 $109 $110 $111 $112 reversed $43 $-1 #
face $-1 $-1 $113 $23 $-1 $114 forward single #
loop $-1 $115 $116 $45 #
cone-surface $-1 -64.188588688463668 26.174758511632191 10.583054913354793 0.70710678939079041 0 -0.70710677298230451 0.70710677298230451 0 0.70710678939079041 1 I I -0.70710678118654746 0.70710678118654746 1 forward I I I I #
loop $-1 $-1 $117 $29 #
coedge $-1 $73 $73 $118 $119 reversed $46 $-1 #
face $-1 $120 $121 $18 $-1 $122 reversed single #
loop $-1 $-1 $123 $48 #
plane-surface $-1 0 -37.432744777695284 0 0 1 0 0 0 1 forward_v I I I I #
coedge $-1 $124 $125 $126 $127 forward $49 $-1 #
coedge $-1 $128 $51 $129 $130 forward $31 $-1 #
coedge $-1 $51 $128 $131 $132 forward $31 $-1 #
coedge $-1 $133 $134 $51 $81 reversed $135 $-1 #
edge $-1 $136 -37.432744777695284 $137 37.432744777695284 $80 $138 forward 7 unknown #
face $-1 $139 $140 $19 $-1 $141 reversed single #
loop $-1 $-1 $142 $52 #
plane-surface $-1 -71.504867702261421 0 0 1 0 0 0 0 -1 forward_v I I I I #
coedge $-1 $143 $144 $145 $146 reversed $53 $-1 #
coedge $-1 $147 $55 $148 $149 reversed $34 $-1 #
coedge $-1 $55 $147 $143 $150 forward $34 $-1 #
coedge $-1 $145 $151 $55 $89 forward $152 $-1 #
edge $-1 $153 -22.518275149776919 $154 -7.3106641060598054 $88 $155 forward 7 unknown #
face $-1 $156 $157 $20 $-1 $158 reversed single #
loop $-1 $-1 $159 $56 #
plane-surface $-1 71.504870048834633 18.847635792162585 212.55402552018131 0 1 0 0.70710678939079041 0 0.70710677298230451 forward_v I I I I #
coedge $-1 $160 $161 $162 $163 reversed $57 $-1 #
coedge $-1 $95 $59 $164 $165 reversed $37 $-1 #
coedge $-1 $59 $94 $160 $166 reversed $37 $-1 #
coedge $-1 $162 $167 $59 $97 forward $168 $-1 #
edge $-1 $169 -35.752432677844105 $170 -28.160817080183897 $96 $171 forward 7 unknown #
loop $-1 $-1 $103 $60 #
plane-surface $-1 -29.618284804683967 26.174758511632191 111.43087301323594 0.70710678939079041 0 0.70710677298230451 0.70710677298230451 0 -0.70710678939079041 forward_v I I I I #
loop $-1 $-1 $172 $39 #
coedge $-1 $101 $101 $102 $173 reversed $61 $-1 #
coedge $-1 $102 $102 $101 $173 forward $63 $-1 #
coedge $-1 $103 $103 $64 $104 forward $98 $-1 #
edge $-1 $174 0 $174 6.2831853071796004 $103 $175 forward 7 unknown #
face $-1 $176 $177 $22 $-1 $178 forward single #
loop $-1 $-1 $179 $65 #
plane-surface $-1 -172.62802255578003 33.501881231101798 111.4308706666627 0 -1 0 0.70710678939079041 0 -0.70710677298230451 forward_v I I I I #
coedge $-1 $180 $181 $182 $183 reversed $66 $-1 #
coedge $-1 $110 $68 $184 $185 reversed $43 $-1 #
coedge $-1 $68 $109 $180 $186 reversed $43 $-1 #
coedge $-1 $182 $187 $68 $112 forward $177 $-1 #
edge $-1 $188 14.809143575628596 $189 22.400759173288797 $111 $190 forward 7 unknown #
loop $-1 $-1 $118 $69 #
plane-surface $-1 -71.504867702261436 26.174758511632191 10.307718159717325 -0.70710678939079041 0 0.70710677298230451 0.70710677298230451 0 0.70710678939079041 forward_v I I I I #
loop $-1 $-1 $191 $45 #
coedge $-1 $116 $116 $117 $192 reversed $70 $-1 #
coedge $-1 $117 $117 $116 $192 forward $72 $-1 #
coedge $-1 $118 $118 $73 $119 forward $113 $-1 #
edge $-1 $193 0 $193 6.2831853071796004 $118 $194 forward 7 unknown #
face $-1 $195 $196 $18 $-1 $197 reversed single #
loop $-1 $-1 $198 $74 #
plane-surface $-1 -71.504867702261421 0 0 1 0 0 0 0 -1 forward_v I I I I #
coedge $-1 $199 $131 $200 $201 forward $75 $-1 #
coedge $-1 $202 $77 $199 $203 forward $49 $-1 #
coedge $-1 $77 $202 $204 $205 forward $49 $-1 #
coedge $-1 $134 $133 $77 $127 reversed $135 $-1 #
edge $-1 $206 -37.432744777695284 $207 37.432744777695284 $126 $208 forward 7 unknown #
coedge $-1 $79 $78 $209 $210 forward $31 $-1 #
coedge $-1 $211 $212 $78 $130 reversed $196 $-1 #
edge $-1 $137 -71.504867702261421 $213 71.504867702261421 $129 $214 forward 7 unknown #
coedge $-1 $123 $215 $79 $132 reversed $75 $-1 #
edge $-1 $216 -71.504867702261421 $136 71.504867702261421 $131 $217 forward 7 unknown #
coedge $-1 $126 $80 $215 $218 forward $135 $-1 #
coedge $-1 $80 $126 $211 $219 reversed $135 $-1 #
loop $-1 $-1 $133 $195 #
vertex $-1 $81 $220 #
vertex $-1 $81 $221 #
straight-curve $-1 71.504867702261421 0 17.899333933541765 0 1 0 I I #
face $-1 $222 $223 $19 $-1 $224 forward single #
loop $-1 $-1 $148 $82 #
plane-surface $-1 0 -37.432744777695284 0 0 1 0 0 0 1 forward_v I I I I #
coedge $-1 $225 $226 $227 $228 forward $83 $-1 #
coedge $-1 $227 $85 $87 $150 reversed $53 $-1 #
coedge $-1 $85 $227 $229 $230 reversed $53 $-1 #
coedge $-1 $231 $88 $85 $146 forward $152 $-1 #
edge $-1 $154 3.9603102547711924 $232 10.612785870770777 $145 $233 forward 7 unknown #
coedge $-1 $87 $86 $225 $234 reversed $34 $-1 #
coedge $-1 $235 $236 $86 $149 forward $140 $-1 #
edge $-1 $237 -71.504867702261421 $153 71.504867702261421 $148 $238 forward 7 unknown #
edge $-1 $239 -71.504867702261421 $154 71.504867702261421 $143 $240 forward 7 unknown #
coedge $-1 $88 $231 $235 $241 forward $152 $-1 #
loop $-1 $-1 $145 $222 #
vertex $-1 $149 $242 #
vertex $-1 $89 $243 #
straight-curve $-1 71.504867702261421 -14.914469627918363 11.246858317542177 0 1 0 I I #
face $-1 $-1 $168 $20 $-1 $244 forward single #
loop $-1 $-1 $245 $90 #
plane-surface $-1 71.504867702261421 0 0 -1 0 0 0 0 1 forward_v I I I I #
coedge $-1 $246 $247 $248 $249 reversed $91 $-1 #
coedge $-1 $250 $93 $95 $166 forward $57 $-1 #
coedge $-1 $93 $250 $246 $251 forward $57 $-1 #
coedge $-1 $248 $96 $93 $163 forward $168 $-1 #
edge $-1 $170 -20.414501975285702 $252 -5.760256536346489 $162 $253 forward 7 unknown #
coedge $-1 $254 $255 $94 $165 forward $157 $-1 #
edge $-1 $256 -95.969294600373331 $169 -88.377678826548888 $164 $257 forward 7 unknown #
edge $-1 $170 132.27356954142178 $256 143.0097354045229 $95 $258 forward 7 unknown #
coedge $-1 $96 $248 $254 $259 forward $168 $-1 #
loop $-1 $-1 $248 $156 #
vertex $-1 $165 $260 #
vertex $-1 $97 $261 #
straight-curve $-1 35.752435024417316 33.501881231101798 17.899333933541769 -1 0 0 I I #
coedge $-1 $172 $172 $-1 $262 reversed $100 $-1 #
edge $-1 $263 0 $263 6.2831853071796004 $101 $264 forward 7 unknown #
vertex $-1 $104 $265 #
ellipse-curve $-1 67.709059903431324 26.174758511632191 14.103526046629543 0.70710678939079041 0 0.70710677298230451 1.414213545964609 0 -1.4142135787815808 1 I I #
face $-1 $-1 $266 $22 $-1 $267 reversed single #
loop $-1 $-1 $111 $105 #
plane-surface $-1 0 0 17.899333933541765 0 0 1 1 0 0 forward_v I I I I #
coedge $-1 $268 $269 $270 $271 reversed $106 $-1 #
coedge $-1 $272 $108 $110 $186 forward $66 $-1 #
coedge $-1 $108 $272 $268 $273 forward $66 $-1 #
coedge $-1 $270 $111 $108 $183 forward $177 $-1 #
edge $-1 $189 5.760256536346489 $274 20.414501975285702 $182 $275 forward 7 unknown #
coedge $-1 $276 $277 $109 $185 forward $266 $-1 #
edge $-1 $278 -45.40771717361401 $188 -37.816101399789588 $184 $279 forward 7 unknown #
edge $-1 $189 -10.736165863101128 $278 -2.0097183471152325e-014 $110 $280 forward 7 unknown #
coedge $-1 $111 $270 $276 $281 forward $177 $-1 #
vertex $-1 $185 $282 #
vertex $-1 $112 $283 #
straight-curve $-1 -86.314011277890017 18.847635792162585 17.899333933541769 1 0 0 I I #
coedge $-1 $191 $191 $-1 $284 reversed $115 $-1 #
edge $-1 $285 0 $285 6.2831853071796004 $116 $286 forward 7 unknown #
vertex $-1 $119 $287 #
ellipse-curve $-1 -67.709059903431324 26.174758511632191 14.103526046629549 -0.70710678939079041 0 0.70710677298230451 1.414213545964609 0 1.4142135787815808 1 I I #
face $-1 $-1 $135 $18 $-1 $288 reversed single #
loop $-1 $-1 $211 $120 #
plane-surface $-1 0 37.432744777695284 0 0 -1 0 0 0 -1 forward_v I I I I #
coedge $-1 $289 $209 $212 $290 forward $121 $-1 #
coedge $-1 $215 $123 $124 $203 reversed $75 $-1 #
coedge $-1 $209 $289 $123 $201 reversed $121 $-1 #
edge $-1 $216 -17.899333933541765 $291 17.899333933541765 $200 $292 forward 7 unknown #
coedge $-1 $125 $124 $289 $293 forward $49 $-1 #
edge $-1 $207 -71.504867702261421 $291 71.504867702261421 $199 $294 forward 7 unknown #
coedge $-1 $212 $211 $125 $205 reversed $196 $-1 #
edge $-1 $295 -71.504867702261421 $206 71.504867702261421 $204 $296 forward 7 unknown #
vertex $-1 $127 $297 #
vertex $-1 $218 $298 #
straight-curve $-1 71.504867702261421 0 -17.899333933541765 0 -1 0 I I #
coedge $-1 $198 $200 $128 $210 reversed $121 $-1 #
edge $-1 $213 -37.432744777695284 $216 37.432744777695284 $209 $299 forward 7 unknown #
coedge $-1 $204 $129 $134 $219 forward $196 $-1 #
coedge $-1 $129 $204 $198 $290 reversed $196 $-1 #
vertex $-1 $130 $300 #
straight-curve $-1 0 37.432744777695284 17.899333933541765 -1 0 0 I I #
coedge $-1 $131 $199 $133 $218 reversed $75 $-1 #
vertex $-1 $210 $301 #
straight-curve $-1 0 -37.432744777695284 17.899333933541765 1 0 0 I I #
edge $-1 $136 -17.899333933541765 $207 17.899333933541765 $133 $302 forward 7 unknown #
edge $-1 $137 -17.899333933541765 $206 17.899333933541765 $134 $303 forward 7 unknown #
point $-1 71.504867702261421 -37.432744777695284 17.899333933541765 #
point $-1 71.504867702261421 37.432744777695284 17.899333933541765 #
face $-1 $-1 $152 $19 $-1 $304 reversed single #
loop $-1 $-1 $229 $139 #
plane-surface $-1 0 0 17.899333933541765 0 0 1 1 0 0 forward_v I I I I #
coedge $-1 $305 $142 $147 $234 forward $83 $-1 #
coedge $-1 $142 $305 $306 $307 reversed $83 $-1 #
coedge $-1 $144 $143 $142 $228 reversed $53 $-1 #
edge $-1 $308 -10.612785870770777 $239 -3.9603102547711924 $142 $309 forward 7 unknown #
coedge $-1 $306 $310 $144 $230 forward $223 $-1 #
edge $-1 $232 -71.504867702261421 $308 71.504867702261421 $229 $311 forward 7 unknown #
coedge $-1 $151 $145 $310 $312 reversed $152 $-1 #
vertex $-1 $146 $313 #
straight-curve $-1 71.504867702261421 -22.225133733978168 7.2865480627709847 0 0 1 I I #
edge $-1 $239 7.3106641060598054 $237 22.518275149776919 $225 $314 forward 7 unknown #
coedge $-1 $315 $148 $151 $241 reversed $140 $-1 #
coedge $-1 $148 $315 $305 $316 forward $140 $-1 #
vertex $-1 $149 $317 #
straight-curve $-1 0 -37.432744777695284 11.246858317542177 1 0 0 I I #
vertex $-1 $234 $318 #
straight-curve $-1 0 -22.225133733978168 11.246858317542177 1 0 0 I I #
edge $-1 $319 -17.899333933541765 $153 -11.246858317542177 $151 $320 forward 7 unknown #
point $-1 71.504867702261421 -37.432744777695284 11.246858317542177 #
point $-1 71.504867702261421 -22.225133733978168 11.246858317542177 #
plane-surface $-1 0 0 17.899333933541765 0 0 1 1 0 0 forward_v I I I I #
coedge $-1 $255 $254 $247 $321 forward $157 $-1 #
coedge $-1 $247 $159 $161 $251 reversed $91 $-1 #
coedge $-1 $159 $246 $245 $321 reversed $91 $-1 #
coedge $-1 $167 $162 $159 $249 forward $168 $-1 #
edge $-1 $252 28.160817080183897 $322 35.752432677844105 $248 $323 forward 7 unknown #
coedge $-1 $161 $160 $255 $324 reversed $57 $-1 #
edge $-1 $325 -143.0097354045229 $252 -132.27356954142178 $246 $326 forward 7 unknown #
vertex $-1 $163 $327 #
straight-curve $-1 63.913252104601199 13.087379255816096 17.899333933541769 0 -1 0 I I #
coedge $-1 $245 $164 $167 $259 reversed $157 $-1 #
coedge $-1 $164 $245 $250 $324 forward $157 $-1 #
vertex $-1 $165 $328 #
straight-curve $-1 71.504867702261421 33.501881231101798 106.27701276009066 0 0 1 I I #
straight-curve $-1 -29.618284804683967 33.501881231101798 111.43087301323594 0.70710677298230451 0 -0.70710678939079041 I I #
edge $-1 $322 18.847635792162585 $169 33.501881231101798 $254 $329 forward 7 unknown #
point $-1 71.504867702261421 33.501881231101798 17.899333933541765 #
point $-1 63.913252104601213 33.501881231101798 17.899333933541769 #
edge $-1 $330 1 $330 0 $172 $-1 forward 7 unknown #
vertex $-1 $173 $331 #
ellipse-curve $-1 64.89569547785446 26.174758511632191 11.290161686337095 0.70710678939079041 0 0.70710677298230451 1.414213545964609 0 -1.4142135787815808 1 I I #
point $-1 69.123273449395938 26.174758511632191 12.689312467847973 #
loop $-1 $-1 $184 $176 #
plane-surface $-1 -71.504867702261421 0 0 1 0 0 0 0 -1 forward_v I I I I #
coedge $-1 $269 $179 $181 $273 reversed $106 $-1 #
coedge $-1 $179 $268 $332 $333 reversed $106 $-1 #
coedge $-1 $187 $182 $179 $271 forward $177 $-1 #
edge $-1 $274 -22.400759173288797 $334 -14.809143575628596 $270 $335 forward 7 unknown #
coedge $-1 $181 $180 $277 $336 reversed $66 $-1 #
edge $-1 $337 2.0097183471152325e-014 $274 10.736165863101128 $268 $338 forward 7 unknown #
vertex $-1 $183 $339 #
straight-curve $-1 -63.91325210460122 13.087379255816096 17.899333933541762 0 1 0 I I #
coedge $-1 $332 $184 $187 $281 reversed $266 $-1 #
coedge $-1 $184 $332 $272 $336 forward $266 $-1 #
vertex $-1 $185 $340 #
straight-curve $-1 -71.504867702261421 18.847635792162585 55.715435333331349 0 0 1 I I #
straight-curve $-1 -71.504867702261436 18.847635792162585 10.307718159717325 -0.70710677298230451 0 -0.70710678939079041 I I #
edge $-1 $334 -33.501881231101798 $188 -18.847635792162585 $276 $341 forward 7 unknown #
point $-1 -71.504867702261421 18.847635792162585 17.899333933541765 #
point $-1 -63.91325210460122 18.847635792162585 17.899333933541765 #
edge $-1 $342 1 $342 0 $191 $-1 forward 7 unknown #
vertex $-1 $192 $343 #
ellipse-curve $-1 -64.89569547785446 26.174758511632191 11.290161686337099 -0.70710678939079041 0 0.70710677298230451 1.414213545964609 0 1.4142135787815808 1 I I #
point $-1 -66.294846357466724 26.174758511632191 15.517739625411139 #
plane-surface $-1 71.504867702261421 0 0 -1 0 0 0 0 1 forward_v I I I I #
coedge $-1 $200 $198 $202 $293 reversed $121 $-1 #
edge $-1 $213 -17.899333933541765 $295 17.899333933541765 $212 $344 forward 7 unknown #
vertex $-1 $293 $345 #
straight-curve $-1 -71.504867702261421 -37.432744777695284 0 0 0 -1 I I #
edge $-1 $291 -37.432744777695284 $295 37.432744777695284 $289 $346 forward 7 unknown #
straight-curve $-1 0 -37.432744777695284 -17.899333933541765 -1 0 0 I I #
vertex $-1 $205 $347 #
straight-curve $-1 0 37.432744777695284 -17.899333933541765 1 0 0 I I #
point $-1 71.504867702261421 37.432744777695284 -17.899333933541765 #
point $-1 71.504867702261421 -37.432744777695284 -17.899333933541765 #
straight-curve $-1 -71.504867702261421 0 17.899333933541765 0 -1 0 I I #
point $-1 -71.504867702261421 37.432744777695284 17.899333933541765 #
point $-1 -71.504867702261421 -37.432744777695284 17.899333933541765 #
straight-curve $-1 71.504867702261421 -37.432744777695284 0 0 0 -1 I I #
straight-curve $-1 71.504867702261421 37.432744777695284 0 0 0 -1 I I #
plane-surface $-1 71.504867702261421 0 0 -1 0 0 0 0 1 forward_v I I I I #
coedge $-1 $226 $225 $236 $316 reversed $83 $-1 #
coedge $-1 $348 $229 $226 $307 forward $223 $-1 #
edge $-1 $308 22.225133733978168 $349 37.432744777695284 $226 $350 forward 7 unknown #
vertex $-1 $307 $351 #
straight-curve $-1 -71.504867702261421 -22.225133733978168 7.2865480627709847 0 0 -1 I I #
coedge $-1 $229 $348 $231 $312 forward $223 $-1 #
straight-curve $-1 0 -22.225133733978168 17.899333933541765 -1 0 0 I I #
edge $-1 $319 -37.432744777695284 $232 -22.225133733978168 $231 $352 forward 7 unknown #
point $-1 71.504867702261421 -22.225133733978168 17.899333933541762 #
straight-curve $-1 -71.504867702261421 -14.914469627918363 11.246858317542177 0 -1 0 I I #
coedge $-1 $236 $235 $348 $353 reversed $140 $-1 #
edge $-1 $349 -17.899333933541765 $237 -11.246858317542177 $305 $354 forward 7 unknown #
point $-1 -71.504867702261421 -37.432744777695284 11.246858317542177 #
point $-1 -71.504867702261421 -22.225133733978168 11.246858317542177 #
vertex $-1 $312 $355 #
straight-curve $-1 71.504867702261421 -37.432744777695284 0 0 0 -1 I I #
edge $-1 $322 88.377678826548888 $325 95.969294600373331 $245 $356 forward 7 unknown #
vertex $-1 $259 $357 #
straight-curve $-1 35.752435024417316 18.847635792162585 17.899333933541769 1 0 0 I I #
edge $-1 $325 5.760256536346489 $256 20.414501975285702 $255 $358 forward 7 unknown #
vertex $-1 $324 $359 #
straight-curve $-1 -29.618284804683967 18.847635792162585 111.43087301323594 -0.70710677298230451 0 0.70710678939079041 I I #
point $-1 63.913252104601213 18.847635792162585 17.899333933541769 #
point $-1 71.504867702261421 33.501881231101798 10.307718159717325 #
straight-curve $-1 71.504867702261421 0 17.899333933541765 0 1 0 I I #
vertex $-1 $262 $360 #
point $-1 66.309909023819074 26.174758511632191 9.875948107555514 #
coedge $-1 $277 $276 $269 $333 forward $266 $-1 #
edge $-1 $334 37.816101399789588 $337 45.40771717361401 $332 $361 forward 7 unknown #
vertex $-1 $281 $362 #
straight-curve $-1 -86.314011277890017 33.501881231101798 17.899333933541769 -1 0 0 I I #
edge $-1 $337 -20.414501975285702 $278 -5.760256536346489 $277 $363 forward 7 unknown #
vertex $-1 $336 $364 #
straight-curve $-1 -71.504867702261436 33.501881231101798 10.307718159717325 0.70710677298230451 0 0.70710678939079041 I I #
point $-1 -63.91325210460122 33.501881231101798 17.899333933541765 #
point $-1 -71.504867702261421 18.847635792162585 10.307718159717339 #
straight-curve $-1 -71.504867702261421 0 17.899333933541765 0 -1 0 I I #
vertex $-1 $284 $365 #
point $-1 -63.481481931889846 26.174758511632191 12.704375265118678 #
straight-curve $-1 -71.504867702261421 37.432744777695284 0 0 0 -1 I I #
point $-1 -71.504867702261421 -37.432744777695284 -17.899333933541765 #
straight-curve $-1 -71.504867702261421 0 -17.899333933541765 0 1 0 I I #
point $-1 -71.504867702261421 37.432744777695284 -17.899333933541765 #
coedge $-1 $310 $306 $315 $353 forward $223 $-1 #
vertex $-1 $307 $366 #
straight-curve $-1 -71.504867702261421 0 17.899333933541765 0 -1 0 I I #
point $-1 -71.504867702261421 -22.225133733978168 17.899333933541762 #
straight-curve $-1 71.504867702261421 0 17.899333933541765 0 1 0 I I #
edge $-1 $349 -71.504867702261421 $319 71.504867702261421 $315 $367 forward 7 unknown #
straight-curve $-1 -71.504867702261421 -37.432744777695284 0 0 0 -1 I I #
point $-1 71.504867702261421 -37.432744777695284 17.899333933541765 #
straight-curve $-1 71.504867702261421 18.847635792162585 106.27701276009066 0 0 -1 I I #
point $-1 71.504867702261421 18.847635792162585 17.899333933541765 #
straight-curve $-1 71.504867702261421 13.087379255816096 10.307718159717332 0 1 0 I I #
point $-1 71.504867702261421 18.847635792162585 10.307718159717325 #
point $-1 63.481481899072875 26.174758511632191 9.8759481403724845 #
straight-curve $-1 -71.504867702261421 33.501881231101798 55.715435333331349 0 0 -1 I I #
point $-1 -71.504867702261421 33.501881231101798 17.899333933541765 #
straight-curve $-1 -71.504867702261421 13.087379255816096 10.30771815971735 0 -1 0 I I #
point $-1 -71.504867702261421 33.501881231101798 10.307718159717339 #
point $-1 -63.481481899072875 26.174758511632191 9.875948140372488 #
point $-1 -71.504867702261421 -37.432744777695284 17.899333933541765 #
straight-curve $-1 0 -37.432744777695284 17.899333933541765 1 0 0 I I #
End-of-ACIS-data 