500 0 15 0           
7 Unknown 11 ACIS 5.0 NT 24 Thu Mar 25 19:11:16 1999 
-1 9.9999999999999995e-007 1e-010 
body $-1 $15 $-1 $16 #
body $-1 $17 $-1 $18 #
body $-1 $19 $-1 $20 #
body $-1 $21 $-1 $22 #
body $-1 $23 $-1 $24 #
body $-1 $25 $-1 $26 #
body $-1 $27 $-1 $28 #
body $-1 $29 $-1 $30 #
body $-1 $31 $-1 $32 #
body $-1 $33 $-1 $34 #
body $-1 $35 $-1 $36 #
body $-1 $37 $-1 $38 #
body $-1 $39 $-1 $40 #
body $-1 $41 $-1 $42 #
body $-1 $43 $-1 $44 #
lump $-1 $-1 $45 $0 #
transform $-1 1 0 0 0 1 0 0 0 1 53.511154515213477 25.243997783767767 11.538495413289841 1 rotate no_reflect no_shear #
lump $-1 $-1 $46 $1 #
transform $-1 1 0 0 0 1 0 0 0 1 53.511154515213477 25.243997783767767 11.538495413289841 1 rotate no_reflect no_shear #
lump $-1 $-1 $47 $2 #
transform $-1 1 0 0 0 1 0 0 0 1 53.511154515213477 25.243997783767767 11.538495413289841 1 rotate no_reflect no_shear #
lump $-1 $-1 $48 $3 #
transform $-1 1 0 0 0 1 0 0 0 1 53.511154515213477 25.243997783767767 11.538495413289841 1 rotate no_reflect no_shear #
lump $-1 $-1 $49 $4 #
transform $-1 1 0 0 0 1 0 0 0 1 53.511154515213477 25.243997783767767 11.538495413289841 1 rotate no_reflect no_shear #
lump $-1 $-1 $50 $5 #
transform $-1 1 0 0 0 1 0 0 0 1 53.511154515213477 25.243997783767767 11.538495413289841 1 rotate no_reflect no_shear #
lump $-1 $-1 $51 $6 #
transform $-1 1 0 0 0 1 0 0 0 1 53.511154515213477 25.243997783767767 11.538495413289841 1 rotate no_reflect no_shear #
lump $-1 $-1 $52 $7 #
transform $-1 1 0 0 0 1 0 0 0 1 53.511154515213477 25.243997783767767 11.538495413289841 1 rotate no_reflect no_shear #
lump $-1 $-1 $53 $8 #
transform $-1 1 0 0 0 1 0 0 0 1 53.511154515213477 25.243997783767767 11.538495413289841 1 rotate no_reflect no_shear #
lump $-1 $-1 $54 $9 #
transform $-1 1 0 0 0 1 0 0 0 1 53.511154515213477 25.243997783767767 11.538495413289841 1 rotate no_reflect no_shear #
lump $-1 $-1 $55 $10 #
transform $-1 1 0 0 0 1 0 0 0 1 53.511154515213477 25.243997783767767 11.538495413289841 1 rotate no_reflect no_shear #
lump $-1 $-1 $56 $11 #
transform $-1 1 0 0 0 1 0 0 0 1 53.511154515213477 25.243997783767767 11.538495413289841 1 rotate no_reflect no_shear #
lump $-1 $-1 $57 $12 #
transform $-1 1 0 0 0 1 0 0 0 1 53.511154515213477 25.243997783767767 11.538495413289841 1 rotate no_reflect no_shear #
lump $-1 $-1 $58 $13 #
transform $-1 1 0 0 0 1 0 0 0 1 53.511154515213477 25.243997783767767 11.538495413289841 1 rotate no_reflect no_shear #
lump $-1 $-1 $59 $14 #
transform $-1 1 0 0 0 1 0 0 0 1 53.511154515213477 25.243997783767767 11.538495413289841 1 rotate no_reflect no_shear #
shell $-1 $-1 $-1 $60 $-1 $15 #
shell $-1 $-1 $-1 $61 $-1 $17 #
shell $-1 $-1 $-1 $62 $-1 $19 #
shell $-1 $-1 $-1 $63 $-1 $21 #
shell $-1 $-1 $-1 $64 $-1 $23 #
shell $-1 $-1 $-1 $65 $-1 $25 #
shell $-1 $-1 $-1 $66 $-1 $27 #
shell $-1 $-1 $-1 $67 $-1 $29 #
shell $-1 $-1 $-1 $68 $-1 $31 #
shell $-1 $-1 $-1 $69 $-1 $33 #
shell $-1 $-1 $-1 $70 $-1 $35 #
shell $-1 $-1 $-1 $71 $-1 $37 #
shell $-1 $-1 $-1 $72 $-1 $39 #
shell $-1 $-1 $-1 $73 $-1 $41 #
shell $-1 $-1 $-1 $74 $-1 $43 #
face $-1 $75 $76 $45 $-1 $77 forward single #
face $-1 $78 $79 $46 $-1 $80 reversed single #
face $-1 $81 $82 $47 $-1 $83 reversed single #
face $-1 $84 $85 $48 $-1 $86 reversed single #
face $-1 $87 $88 $49 $-1 $89 forward single #
face $-1 $90 $91 $50 $-1 $92 forward single #
face $-1 $93 $94 $51 $-1 $95 forward single #
face $-1 $96 $97 $52 $-1 $98 reversed single #
face $-1 $99 $100 $53 $-1 $101 forward single #
face $-1 $102 $103 $54 $-1 $104 forward single #
face $-1 $105 $106 $55 $-1 $107 forward single #
face $-1 $108 $109 $56 $-1 $110 reversed single #
face $-1 $111 $112 $57 $-1 $113 forward single #
face $-1 $114 $115 $58 $-1 $116 forward single #
face $-1 $117 $118 $59 $-1 $119 forward single #
face $-1 $120 $121 $45 $-1 $122 reversed single #
loop $-1 $-1 $123 $60 #
plane-surface $-1 0 0 11.538495413289841 0 0 1 1 0 0 forward_v I I I I #
face $-1 $124 $125 $46 $-1 $126 reversed single #
loop $-1 $-1 $127 $61 #
plane-surface $-1 -35.328947890538501 -18.926140697436551 0 1 0 0 0 0 -1 forward_v I I I I #
face $-1 $128 $129 $47 $-1 $130 reversed single #
loop $-1 $-1 $131 $62 #
plane-surface $-1 -32.881555789586145 12.608283611105335 0 0 1 0 0 0 1 forward_v I I I I #
face $-1 $132 $133 $48 $-1 $134 reversed single #
loop $-1 $-1 $135 $63 #
plane-surface $-1 77.187888465048346 -4.202761203701785 156.64953835485014 0 -1 0 -0.80901700255871778 0 -0.5877852410284794 forward_v I I I I #
face $-1 $136 $137 $49 $-1 $138 forward single #
loop $-1 $139 $140 $64 #
cone-surface $-1 51.271334838183328 -8.8630455121870604 8.8776753516384588 -0.80901700255871778 0 -0.5877852410284794 0.2938926205142397 0 -0.40450850127935889 1 I I 0 1 0.5 forward I I I I #
face $-1 $141 $142 $50 $-1 $143 forward single #
loop $-1 $144 $145 $65 #
cone-surface $-1 51.271334838183328 -7.1154388965050828 8.8776753516384588 -0.80901700255871778 0 -0.5877852410284794 0.2938926205142397 0 -0.40450850127935889 1 I I 0 1 0.5 forward I I I I #
face $-1 $146 $147 $51 $-1 $148 forward single #
loop $-1 $149 $150 $66 #
cone-surface $-1 51.271334838183328 -5.3678322808231016 8.8776753516384588 -0.80901700255871778 0 -0.5877852410284794 0.2938926205142397 0 -0.40450850127935889 1 I I 0 1 0.5 forward I I I I #
face $-1 $151 $152 $52 $-1 $153 reversed single #
loop $-1 $-1 $154 $67 #
plane-surface $-1 77.187888465048346 4.2027612037017743 156.64953835485014 0 -1 0 -0.80901700255871778 0 -0.5877852410284794 forward_v I I I I #
face $-1 $155 $156 $53 $-1 $157 forward single #
loop $-1 $158 $159 $68 #
cone-surface $-1 51.271334838183328 -0.45752310478350466 8.8776753516384588 -0.80901700255871778 0 -0.5877852410284794 0.2938926205142397 0 -0.40450850127935889 1 I I 0 1 0.5 forward I I I I #
face $-1 $160 $161 $54 $-1 $162 forward single #
loop $-1 $163 $164 $69 #
cone-surface $-1 51.271334838183328 1.2900835108984765 8.8776753516384588 -0.80901700255871778 0 -0.5877852410284794 0.2938926205142397 0 -0.40450850127935889 1 I I 0 1 0.5 forward I I I I #
face $-1 $165 $166 $55 $-1 $167 forward single #
loop $-1 $168 $169 $70 #
cone-surface $-1 51.271334838183328 3.0376901265804577 8.8776753516384588 -0.80901700255871778 0 -0.5877852410284794 0.2938926205142397 0 -0.40450850127935889 1 I I 0 1 0.5 forward I I I I #
face $-1 $170 $171 $56 $-1 $172 reversed single #
loop $-1 $-1 $173 $71 #
plane-surface $-1 77.187888465048346 12.608283611105334 156.64953835485014 0 -1 0 -0.80901700255871778 0 -0.5877852410284794 forward_v I I I I #
face $-1 $174 $175 $57 $-1 $176 forward single #
loop $-1 $177 $178 $72 #
cone-surface $-1 51.271334838183328 7.9479993026200546 8.8776753516384588 -0.80901700255871778 0 -0.5877852410284794 0.2938926205142397 0 -0.40450850127935889 1 I I 0 1 0.5 forward I I I I #
face $-1 $179 $180 $58 $-1 $181 forward single #
loop $-1 $182 $183 $73 #
cone-surface $-1 51.271334838183328 9.6956059183020358 8.8776753516384588 -0.80901700255871778 0 -0.5877852410284794 0.2938926205142397 0 -0.40450850127935889 1 I I 0 1 0.5 forward I I I I #
face $-1 $184 $185 $59 $-1 $186 forward single #
loop $-1 $187 $188 $74 #
cone-surface $-1 51.271334838183328 11.443212533984017 8.8776753516384588 -0.80901700255871778 0 -0.5877852410284794 0.2938926205142397 0 -0.40450850127935889 1 I I 0 1 0.5 forward I I I I #
face $-1 $189 $190 $45 $-1 $191 reversed single #
loop $-1 $-1 $192 $75 #
plane-surface $-1 0 0 -11.538495413289841 0 0 1 1 0 0 forward_v I I I I #
coedge $-1 $193 $194 $195 $196 forward $76 $-1 #
face $-1 $197 $198 $46 $-1 $199 reversed single #
loop $-1 $-1 $200 $78 #
plane-surface $-1 -32.881555789586145 -12.608283611105337 0 0 -1 0 0 0 -1 forward_v I I I I #
coedge $-1 $201 $202 $203 $204 forward $79 $-1 #
face $-1 $205 $206 $47 $-1 $207 reversed single #
loop $-1 $-1 $208 $81 #
plane-surface $-1 -35.328947890538501 18.926140697436551 0 1 0 0 0 0 -1 forward_v I I I I #
coedge $-1 $209 $210 $211 $212 forward $82 $-1 #
face $-1 $213 $214 $48 $-1 $215 reversed single #
loop $-1 $-1 $216 $84 #
plane-surface $-1 -9.3949791936604612 -7.1154388965050828 93.743404645976227 0.80901700255871778 0 0.5877852410284794 0.5877852410284794 0 -0.80901700255871778 forward_v I I I I #
coedge $-1 $217 $218 $219 $220 reversed $85 $-1 #
face $-1 $-1 $221 $49 $-1 $222 forward single #
loop $-1 $223 $224 $87 #
cone-surface $-1 50.419647355120688 -8.8630455121870604 8.2588881927411641 -0.80901700255871778 0 -0.5877852410284794 0.14694631025711985 0 -0.20225425063967944 1 I I -0.70710678118654746 0.70710678118654746 0.25 forward I I I I #
loop $-1 $-1 $225 $64 #
coedge $-1 $140 $140 $226 $227 reversed $88 $-1 #
face $-1 $-1 $228 $50 $-1 $229 forward single #
loop $-1 $230 $231 $90 #
cone-surface $-1 50.419647355120688 -7.1154388965050828 8.2588881927411641 -0.80901700255871778 0 -0.5877852410284794 0.14694631025711985 0 -0.20225425063967944 1 I I -0.70710678118654746 0.70710678118654746 0.25 forward I I I I #
loop $-1 $-1 $232 $65 #
coedge $-1 $145 $145 $233 $234 reversed $91 $-1 #
face $-1 $-1 $235 $51 $-1 $236 forward single #
loop $-1 $237 $238 $93 #
cone-surface $-1 50.419647355120688 -5.3678322808231016 8.2588881927411641 -0.80901700255871778 0 -0.5877852410284794 0.14694631025711985 0 -0.20225425063967944 1 I I -0.70710678118654746 0.70710678118654746 0.25 forward I I I I #
loop $-1 $-1 $239 $66 #
coedge $-1 $150 $150 $240 $241 reversed $94 $-1 #
face $-1 $242 $243 $52 $-1 $244 reversed single #
loop $-1 $-1 $245 $96 #
plane-surface $-1 -9.3949791936604612 1.2900835108984765 93.743404645976227 0.80901700255871778 0 0.5877852410284794 0.5877852410284794 0 -0.80901700255871778 forward_v I I I I #
coedge $-1 $246 $247 $248 $249 reversed $97 $-1 #
face $-1 $-1 $250 $53 $-1 $251 forward single #
loop $-1 $252 $253 $99 #
cone-surface $-1 50.419647355120688 -0.45752310478350466 8.2588881927411641 -0.80901700255871778 0 -0.5877852410284794 0.14694631025711985 0 -0.20225425063967944 1 I I -0.70710678118654746 0.70710678118654746 0.25 forward I I I I #
loop $-1 $-1 $254 $68 #
coedge $-1 $159 $159 $255 $256 reversed $100 $-1 #
face $-1 $-1 $257 $54 $-1 $258 forward single #
loop $-1 $259 $260 $102 #
cone-surface $-1 50.419647355120688 1.2900835108984765 8.2588881927411641 -0.80901700255871778 0 -0.5877852410284794 0.14694631025711985 0 -0.20225425063967944 1 I I -0.70710678118654746 0.70710678118654746 0.25 forward I I I I #
loop $-1 $-1 $261 $69 #
coedge $-1 $164 $164 $262 $263 reversed $103 $-1 #
face $-1 $-1 $264 $55 $-1 $265 forward single #
loop $-1 $266 $267 $105 #
cone-surface $-1 50.419647355120688 3.0376901265804577 8.2588881927411641 -0.80901700255871778 0 -0.5877852410284794 0.14694631025711985 0 -0.20225425063967944 1 I I -0.70710678118654746 0.70710678118654746 0.25 forward I I I I #
loop $-1 $-1 $268 $70 #
coedge $-1 $169 $169 $269 $270 reversed $106 $-1 #
face $-1 $271 $272 $56 $-1 $273 reversed single #
loop $-1 $-1 $274 $108 #
plane-surface $-1 -9.3949791936604612 9.6956059183020358 93.743404645976227 0.80901700255871778 0 0.5877852410284794 0.5877852410284794 0 -0.80901700255871778 forward_v I I I I #
coedge $-1 $275 $276 $277 $278 reversed $109 $-1 #
face $-1 $-1 $279 $57 $-1 $280 forward single #
loop $-1 $281 $282 $111 #
cone-surface $-1 50.419647355120688 7.9479993026200546 8.2588881927411641 -0.80901700255871778 0 -0.5877852410284794 0.14694631025711985 0 -0.20225425063967944 1 I I -0.70710678118654746 0.70710678118654746 0.25 forward I I I I #
loop $-1 $-1 $283 $72 #
coedge $-1 $178 $178 $284 $285 reversed $112 $-1 #
face $-1 $-1 $286 $58 $-1 $287 forward single #
loop $-1 $288 $289 $114 #
cone-surface $-1 50.419647355120688 9.6956059183020358 8.2588881927411641 -0.80901700255871778 0 -0.5877852410284794 0.14694631025711985 0 -0.20225425063967944 1 I I -0.70710678118654746 0.70710678118654746 0.25 forward I I I I #
loop $-1 $-1 $290 $73 #
coedge $-1 $183 $183 $291 $292 reversed $115 $-1 #
face $-1 $-1 $293 $59 $-1 $294 forward single #
loop $-1 $295 $296 $117 #
cone-surface $-1 50.419647355120688 11.443212533984017 8.2588881927411641 -0.80901700255871778 0 -0.5877852410284794 0.14694631025711985 0 -0.20225425063967944 1 I I -0.70710678118654746 0.70710678118654746 0.25 forward I I I I #
loop $-1 $-1 $297 $74 #
coedge $-1 $188 $188 $298 $299 reversed $118 $-1 #
face $-1 $300 $301 $45 $-1 $302 reversed single #
loop $-1 $-1 $303 $120 #
plane-surface $-1 0 -25.243997783767767 0 0 1 0 0 0 1 forward_v I I I I #
coedge $-1 $304 $305 $306 $307 forward $121 $-1 #
coedge $-1 $308 $123 $309 $310 forward $76 $-1 #
coedge $-1 $123 $308 $311 $312 forward $76 $-1 #
coedge $-1 $313 $314 $123 $196 reversed $315 $-1 #
edge $-1 $316 -25.243997783767767 $317 25.243997783767767 $195 $318 forward 7 unknown #
face $-1 $319 $320 $46 $-1 $321 forward single #
loop $-1 $-1 $322 $124 #
plane-surface $-1 -30.434163688633792 -18.926140697436551 0 -1 0 0 0 0 1 forward_v I I I I #
coedge $-1 $323 $324 $325 $326 forward $125 $-1 #
coedge $-1 $327 $127 $328 $329 reversed $79 $-1 #
coedge $-1 $127 $327 $330 $331 reversed $79 $-1 #
coedge $-1 $324 $323 $127 $204 reversed $125 $-1 #
edge $-1 $332 -11.538495413289841 $333 11.538495413289841 $203 $334 forward 7 unknown #
face $-1 $335 $336 $47 $-1 $337 reversed single #
loop $-1 $-1 $338 $128 #
plane-surface $-1 -30.434163688633792 18.926140697436551 0 -1 0 0 0 0 1 forward_v I I I I #
coedge $-1 $339 $340 $341 $342 reversed $129 $-1 #
coedge $-1 $343 $131 $344 $345 reversed $82 $-1 #
coedge $-1 $131 $343 $346 $347 reversed $82 $-1 #
coedge $-1 $340 $339 $131 $212 reversed $129 $-1 #
edge $-1 $348 -11.538495413289841 $349 11.538495413289841 $211 $350 forward 7 unknown #
face $-1 $351 $352 $48 $-1 $353 forward single #
loop $-1 $-1 $354 $132 #
plane-surface $-1 77.187888465048346 -10.028116589308381 156.64953835485014 0 1 0 0.80901700255871778 0 0.5877852410284794 forward_v I I I I #
coedge $-1 $355 $356 $357 $358 reversed $133 $-1 #
coedge $-1 $218 $135 $359 $360 reversed $85 $-1 #
coedge $-1 $135 $217 $355 $361 reversed $85 $-1 #
coedge $-1 $357 $362 $135 $220 forward $352 $-1 #
edge $-1 $363 -14.917210282689304 $364 -11.736437393474901 $219 $365 forward 7 unknown #
loop $-1 $-1 $226 $136 #
plane-surface $-1 -9.3949791936604612 -7.1154388965050828 93.743404645976227 0.80901700255871778 0 0.5877852410284794 0.5877852410284794 0 -0.80901700255871778 forward_v I I I I #
loop $-1 $-1 $366 $87 #
coedge $-1 $224 $224 $225 $367 reversed $137 $-1 #
coedge $-1 $225 $225 $224 $367 forward $139 $-1 #
coedge $-1 $226 $226 $140 $227 forward $221 $-1 #
edge $-1 $368 0 $368 6.2831853071796004 $226 $369 forward 7 unknown #
loop $-1 $-1 $233 $141 #
plane-surface $-1 -9.3949791936604612 -7.1154388965050828 93.743404645976227 0.80901700255871778 0 0.5877852410284794 0.5877852410284794 0 -0.80901700255871778 forward_v I I I I #
loop $-1 $-1 $370 $90 #
coedge $-1 $231 $231 $232 $371 reversed $142 $-1 #
coedge $-1 $232 $232 $231 $371 forward $144 $-1 #
coedge $-1 $233 $233 $145 $234 forward $228 $-1 #
edge $-1 $372 0 $372 6.2831853071796004 $233 $373 forward 7 unknown #
loop $-1 $-1 $240 $146 #
plane-surface $-1 -9.3949791936604612 -7.1154388965050828 93.743404645976227 0.80901700255871778 0 0.5877852410284794 0.5877852410284794 0 -0.80901700255871778 forward_v I I I I #
loop $-1 $-1 $374 $93 #
coedge $-1 $238 $238 $239 $375 reversed $147 $-1 #
coedge $-1 $239 $239 $238 $375 forward $149 $-1 #
coedge $-1 $240 $240 $150 $241 forward $235 $-1 #
edge $-1 $376 0 $376 6.2831853071796004 $240 $377 forward 7 unknown #
face $-1 $378 $379 $52 $-1 $380 reversed single #
loop $-1 $-1 $381 $151 #
plane-surface $-1 77.187888465048346 -1.6225941819048213 156.64953835485014 0 1 0 0.80901700255871778 0 0.5877852410284794 forward_v I I I I #
coedge $-1 $382 $383 $384 $385 reversed $152 $-1 #
coedge $-1 $247 $154 $386 $387 reversed $97 $-1 #
coedge $-1 $154 $246 $382 $388 reversed $97 $-1 #
coedge $-1 $384 $389 $154 $249 forward $390 $-1 #
edge $-1 $391 -14.917210282689304 $392 -11.736437393474901 $248 $393 forward 7 unknown #
loop $-1 $-1 $255 $155 #
plane-surface $-1 -9.3949791936604612 1.2900835108984765 93.743404645976227 0.80901700255871778 0 0.5877852410284794 0.5877852410284794 0 -0.80901700255871778 forward_v I I I I #
loop $-1 $-1 $394 $99 #
coedge $-1 $253 $253 $254 $395 reversed $156 $-1 #
coedge $-1 $254 $254 $253 $395 forward $158 $-1 #
coedge $-1 $255 $255 $159 $256 forward $250 $-1 #
edge $-1 $396 0 $396 6.2831853071796004 $255 $397 forward 7 unknown #
loop $-1 $-1 $262 $160 #
plane-surface $-1 -9.3949791936604612 1.2900835108984765 93.743404645976227 0.80901700255871778 0 0.5877852410284794 0.5877852410284794 0 -0.80901700255871778 forward_v I I I I #
loop $-1 $-1 $398 $102 #
coedge $-1 $260 $260 $261 $399 reversed $161 $-1 #
coedge $-1 $261 $261 $260 $399 forward $163 $-1 #
coedge $-1 $262 $262 $164 $263 forward $257 $-1 #
edge $-1 $400 0 $400 6.2831853071796004 $262 $401 forward 7 unknown #
loop $-1 $-1 $269 $165 #
plane-surface $-1 -9.3949791936604612 1.2900835108984765 93.743404645976227 0.80901700255871778 0 0.5877852410284794 0.5877852410284794 0 -0.80901700255871778 forward_v I I I I #
loop $-1 $-1 $402 $105 #
coedge $-1 $267 $267 $268 $403 reversed $166 $-1 #
coedge $-1 $268 $268 $267 $403 forward $168 $-1 #
coedge $-1 $269 $269 $169 $270 forward $264 $-1 #
edge $-1 $404 0 $404 6.2831853071796004 $269 $405 forward 7 unknown #
face $-1 $406 $407 $56 $-1 $408 reversed single #
loop $-1 $-1 $409 $170 #
plane-surface $-1 77.187888465048346 6.782928225498738 156.64953835485014 0 1 0 0.80901700255871778 0 0.5877852410284794 forward_v I I I I #
coedge $-1 $410 $411 $412 $413 reversed $171 $-1 #
coedge $-1 $276 $173 $414 $415 reversed $109 $-1 #
coedge $-1 $173 $275 $410 $416 reversed $109 $-1 #
coedge $-1 $412 $417 $173 $278 forward $418 $-1 #
edge $-1 $419 -14.917210282689304 $420 -11.736437393474901 $277 $421 forward 7 unknown #
loop $-1 $-1 $284 $174 #
plane-surface $-1 -9.3949791936604612 9.6956059183020358 93.743404645976227 0.80901700255871778 0 0.5877852410284794 0.5877852410284794 0 -0.80901700255871778 forward_v I I I I #
loop $-1 $-1 $422 $111 #
coedge $-1 $282 $282 $283 $423 reversed $175 $-1 #
coedge $-1 $283 $283 $282 $423 forward $177 $-1 #
coedge $-1 $284 $284 $178 $285 forward $279 $-1 #
edge $-1 $424 0 $424 6.2831853071796004 $284 $425 forward 7 unknown #
loop $-1 $-1 $291 $179 #
plane-surface $-1 -9.3949791936604612 9.6956059183020358 93.743404645976227 0.80901700255871778 0 0.5877852410284794 0.5877852410284794 0 -0.80901700255871778 forward_v I I I I #
loop $-1 $-1 $426 $114 #
coedge $-1 $289 $289 $290 $427 reversed $180 $-1 #
coedge $-1 $290 $290 $289 $427 forward $182 $-1 #
coedge $-1 $291 $291 $183 $292 forward $286 $-1 #
edge $-1 $428 0 $428 6.2831853071796004 $291 $429 forward 7 unknown #
loop $-1 $-1 $298 $184 #
plane-surface $-1 -9.3949791936604612 9.6956059183020358 93.743404645976227 0.80901700255871778 0 0.5877852410284794 0.5877852410284794 0 -0.80901700255871778 forward_v I I I I #
loop $-1 $-1 $430 $117 #
coedge $-1 $296 $296 $297 $431 reversed $185 $-1 #
coedge $-1 $297 $297 $296 $431 forward $187 $-1 #
coedge $-1 $298 $298 $188 $299 forward $293 $-1 #
edge $-1 $432 0 $432 6.2831853071796004 $298 $433 forward 7 unknown #
face $-1 $434 $435 $45 $-1 $436 reversed single #
loop $-1 $-1 $437 $189 #
plane-surface $-1 -53.511154515213477 0 0 1 0 0 0 0 -1 forward_v I I I I #
coedge $-1 $438 $311 $439 $440 forward $190 $-1 #
coedge $-1 $441 $192 $438 $442 forward $121 $-1 #
coedge $-1 $192 $441 $443 $444 forward $121 $-1 #
coedge $-1 $314 $313 $192 $307 reversed $315 $-1 #
edge $-1 $445 -25.243997783767767 $446 25.243997783767767 $306 $447 forward 7 unknown #
coedge $-1 $194 $193 $448 $449 forward $76 $-1 #
coedge $-1 $450 $451 $193 $310 reversed $435 $-1 #
edge $-1 $317 -53.511154515213477 $452 53.511154515213477 $309 $453 forward 7 unknown #
coedge $-1 $303 $454 $194 $312 reversed $190 $-1 #
edge $-1 $455 -53.511154515213477 $316 53.511154515213477 $311 $456 forward 7 unknown #
coedge $-1 $306 $195 $454 $457 forward $315 $-1 #
coedge $-1 $195 $306 $450 $458 reversed $315 $-1 #
loop $-1 $-1 $313 $434 #
vertex $-1 $196 $459 #
vertex $-1 $196 $460 #
straight-curve $-1 53.511154515213477 0 11.538495413289841 0 1 0 I I #
face $-1 $461 $462 $46 $-1 $463 reversed single #
loop $-1 $-1 $464 $197 #
plane-surface $-1 0 0 11.538495413289841 0 0 1 1 0 0 forward_v I I I I #
coedge $-1 $465 $466 $467 $468 reversed $198 $-1 #
coedge $-1 $203 $200 $469 $470 reversed $125 $-1 #
coedge $-1 $200 $203 $471 $472 reversed $125 $-1 #
coedge $-1 $466 $465 $200 $326 reversed $198 $-1 #
edge $-1 $473 -11.538495413289841 $474 11.538495413289841 $325 $475 forward 7 unknown #
coedge $-1 $202 $201 $476 $477 reversed $79 $-1 #
coedge $-1 $469 $478 $201 $329 forward $462 $-1 #
edge $-1 $479 -15.780927435049492 $333 -3.1452132623870614 $328 $480 forward 7 unknown #
coedge $-1 $481 $471 $202 $331 forward $320 $-1 #
edge $-1 $332 3.1452132623870614 $482 15.780927435049492 $330 $483 forward 7 unknown #
vertex $-1 $331 $484 #
vertex $-1 $329 $485 #
straight-curve $-1 -35.328947890538501 -12.608283611105337 0 0 0 -1 I I #
face $-1 $486 $487 $47 $-1 $488 forward single #
loop $-1 $-1 $489 $205 #
plane-surface $-1 0 0 -11.538495413289841 0 0 1 1 0 0 forward_v I I I I #
coedge $-1 $490 $491 $343 $492 forward $206 $-1 #
coedge $-1 $211 $208 $493 $494 reversed $129 $-1 #
coedge $-1 $208 $211 $495 $496 reversed $129 $-1 #
coedge $-1 $497 $498 $208 $342 forward $499 $-1 #
edge $-1 $500 -11.538495413289841 $501 11.538495413289841 $341 $502 forward 7 unknown #
coedge $-1 $210 $209 $338 $492 reversed $82 $-1 #
coedge $-1 $493 $489 $209 $345 forward $336 $-1 #
edge $-1 $503 13.993385793840719 $349 18.888169995745429 $344 $504 forward 7 unknown #
coedge $-1 $505 $495 $210 $347 forward $487 $-1 #
edge $-1 $348 -18.888169995745429 $506 -13.993385793840719 $346 $507 forward 7 unknown #
vertex $-1 $347 $508 #
vertex $-1 $345 $509 #
straight-curve $-1 -35.328947890538501 12.608283611105335 0 0 0 -1 I I #
face $-1 $-1 $510 $48 $-1 $511 reversed single #
loop $-1 $-1 $219 $213 #
plane-surface $-1 0 0 11.538495413289841 0 0 1 1 0 0 forward_v I I I I #
coedge $-1 $512 $513 $514 $515 reversed $214 $-1 #
coedge $-1 $516 $216 $218 $361 forward $133 $-1 #
coedge $-1 $216 $516 $512 $517 forward $133 $-1 #
coedge $-1 $514 $219 $216 $358 forward $352 $-1 #
edge $-1 $364 0.64504175544924358 $518 6.4703971410558392 $357 $519 forward 7 unknown #
coedge $-1 $520 $521 $217 $360 forward $510 $-1 #
edge $-1 $522 -71.164232190157676 $363 -66.786273764135231 $359 $523 forward 7 unknown #
edge $-1 $364 101.61085486793588 $522 107.02230903042698 $218 $524 forward 7 unknown #
coedge $-1 $219 $514 $520 $525 forward $352 $-1 #
vertex $-1 $220 $526 #
vertex $-1 $220 $527 #
straight-curve $-1 38.593944232524173 -4.202761203701785 11.538495413289837 -1 0 0 I I #
coedge $-1 $366 $366 $-1 $528 reversed $223 $-1 #
edge $-1 $529 0 $529 6.2831853071796004 $224 $530 forward 7 unknown #
vertex $-1 $227 $531 #
ellipse-curve $-1 51.920768070606272 -8.8630455121870604 9.3495162002786198 0.80901700255871778 0 0.5877852410284794 0.2938926205142397 0 -0.40450850127935889 1 I I #
coedge $-1 $370 $370 $-1 $532 reversed $230 $-1 #
edge $-1 $533 0 $533 6.2831853071796004 $231 $534 forward 7 unknown #
vertex $-1 $234 $535 #
ellipse-curve $-1 51.920768070606272 -7.1154388965050828 9.3495162002786198 0.80901700255871778 0 0.5877852410284794 0.2938926205142397 0 -0.40450850127935889 1 I I #
coedge $-1 $374 $374 $-1 $536 reversed $237 $-1 #
edge $-1 $537 0 $537 6.2831853071796004 $238 $538 forward 7 unknown #
vertex $-1 $241 $539 #
ellipse-curve $-1 51.920768070606272 -5.3678322808231016 9.3495162002786198 0.80901700255871778 0 0.5877852410284794 0.2938926205142397 0 -0.40450850127935889 1 I I #
face $-1 $-1 $390 $52 $-1 $540 forward single #
loop $-1 $-1 $541 $242 #
plane-surface $-1 53.511154515213477 0 0 -1 0 0 0 0 1 forward_v I I I I #
coedge $-1 $542 $543 $544 $545 reversed $243 $-1 #
coedge $-1 $546 $245 $247 $388 forward $152 $-1 #
coedge $-1 $245 $546 $542 $547 forward $152 $-1 #
coedge $-1 $544 $248 $245 $385 forward $390 $-1 #
edge $-1 $392 -3.5577194482525361 $548 2.2676359373540595 $384 $549 forward 7 unknown #
coedge $-1 $550 $551 $246 $387 forward $379 $-1 #
edge $-1 $552 -71.164232190157676 $391 -66.786273764135231 $386 $553 forward 7 unknown #
edge $-1 $392 101.61085486793588 $552 107.02230903042698 $247 $554 forward 7 unknown #
coedge $-1 $248 $544 $550 $555 forward $390 $-1 #
loop $-1 $-1 $544 $378 #
vertex $-1 $387 $556 #
vertex $-1 $249 $557 #
straight-curve $-1 38.593944232524173 4.2027612037017743 11.538495413289837 -1 0 0 I I #
coedge $-1 $394 $394 $-1 $558 reversed $252 $-1 #
edge $-1 $559 0 $559 6.2831853071796004 $253 $560 forward 7 unknown #
vertex $-1 $256 $561 #
ellipse-curve $-1 51.920768070606272 -0.45752310478350466 9.3495162002786198 0.80901700255871778 0 0.5877852410284794 0.2938926205142397 0 -0.40450850127935889 1 I I #
coedge $-1 $398 $398 $-1 $562 reversed $259 $-1 #
edge $-1 $563 0 $563 6.2831853071796004 $260 $564 forward 7 unknown #
vertex $-1 $263 $565 #
ellipse-curve $-1 51.920768070606272 1.2900835108984765 9.3495162002786198 0.80901700255871778 0 0.5877852410284794 0.2938926205142397 0 -0.40450850127935889 1 I I #
coedge $-1 $402 $402 $-1 $566 reversed $266 $-1 #
edge $-1 $567 0 $567 6.2831853071796004 $267 $568 forward 7 unknown #
vertex $-1 $270 $569 #
ellipse-curve $-1 51.920768070606272 3.0376901265804577 9.3495162002786198 0.80901700255871778 0 0.5877852410284794 0.2938926205142397 0 -0.40450850127935889 1 I I #
face $-1 $-1 $418 $56 $-1 $570 forward single #
loop $-1 $-1 $571 $271 #
plane-surface $-1 53.511154515213477 0 0 -1 0 0 0 0 1 forward_v I I I I #
coedge $-1 $572 $573 $574 $575 reversed $272 $-1 #
coedge $-1 $576 $274 $276 $416 forward $171 $-1 #
coedge $-1 $274 $576 $572 $577 forward $171 $-1 #
coedge $-1 $574 $277 $274 $413 forward $418 $-1 #
edge $-1 $420 -7.7604806519543157 $578 -1.9351252663477201 $412 $579 forward 7 unknown #
coedge $-1 $580 $581 $275 $415 forward $407 $-1 #
edge $-1 $582 -71.164232190157676 $419 -66.786273764135231 $414 $583 forward 7 unknown #
edge $-1 $420 101.61085486793588 $582 107.02230903042698 $276 $584 forward 7 unknown #
coedge $-1 $277 $574 $580 $585 forward $418 $-1 #
loop $-1 $-1 $574 $406 #
vertex $-1 $415 $586 #
vertex $-1 $278 $587 #
straight-curve $-1 38.593944232524173 12.608283611105334 11.538495413289837 -1 0 0 I I #
coedge $-1 $422 $422 $-1 $588 reversed $281 $-1 #
edge $-1 $589 0 $589 6.2831853071796004 $282 $590 forward 7 unknown #
vertex $-1 $285 $591 #
ellipse-curve $-1 51.920768070606272 7.9479993026200546 9.3495162002786198 0.80901700255871778 0 0.5877852410284794 0.2938926205142397 0 -0.40450850127935889 1 I I #
coedge $-1 $426 $426 $-1 $592 reversed $288 $-1 #
edge $-1 $593 0 $593 6.2831853071796004 $289 $594 forward 7 unknown #
vertex $-1 $292 $595 #
ellipse-curve $-1 51.920768070606272 9.6956059183020358 9.3495162002786198 0.80901700255871778 0 0.5877852410284794 0.2938926205142397 0 -0.40450850127935889 1 I I #
coedge $-1 $430 $430 $-1 $596 reversed $295 $-1 #
edge $-1 $597 0 $597 6.2831853071796004 $296 $598 forward 7 unknown #
vertex $-1 $299 $599 #
ellipse-curve $-1 51.920768070606272 11.443212533984017 9.3495162002786198 0.80901700255871778 0 0.5877852410284794 0.2938926205142397 0 -0.40450850127935889 1 I I #
face $-1 $-1 $315 $45 $-1 $600 reversed single #
loop $-1 $-1 $450 $300 #
plane-surface $-1 0 25.243997783767767 0 0 -1 0 0 0 -1 forward_v I I I I #
coedge $-1 $601 $448 $451 $602 forward $301 $-1 #
coedge $-1 $454 $303 $304 $442 reversed $190 $-1 #
coedge $-1 $448 $601 $303 $440 reversed $301 $-1 #
edge $-1 $455 -11.538495413289841 $603 11.538495413289841 $439 $604 forward 7 unknown #
coedge $-1 $305 $304 $601 $605 forward $121 $-1 #
edge $-1 $446 -53.511154515213477 $603 53.511154515213477 $438 $606 forward 7 unknown #
coedge $-1 $451 $450 $305 $444 reversed $435 $-1 #
edge $-1 $607 -53.511154515213477 $445 53.511154515213477 $443 $608 forward 7 unknown #
vertex $-1 $307 $609 #
vertex $-1 $457 $610 #
straight-curve $-1 53.511154515213477 0 -11.538495413289841 0 -1 0 I I #
coedge $-1 $437 $439 $308 $449 reversed $301 $-1 #
edge $-1 $452 -25.243997783767767 $455 25.243997783767767 $448 $611 forward 7 unknown #
coedge $-1 $443 $309 $314 $458 forward $435 $-1 #
coedge $-1 $309 $443 $437 $602 reversed $435 $-1 #
vertex $-1 $310 $612 #
straight-curve $-1 0 25.243997783767767 11.538495413289841 -1 0 0 I I #
coedge $-1 $311 $438 $313 $457 reversed $190 $-1 #
vertex $-1 $449 $613 #
straight-curve $-1 0 -25.243997783767767 11.538495413289841 1 0 0 I I #
edge $-1 $316 -11.538495413289841 $446 11.538495413289841 $313 $614 forward 7 unknown #
edge $-1 $317 -11.538495413289841 $445 11.538495413289841 $314 $615 forward 7 unknown #
point $-1 53.511154515213477 -25.243997783767767 11.538495413289841 #
point $-1 53.511154515213477 25.243997783767767 11.538495413289841 #
face $-1 $-1 $616 $46 $-1 $617 reversed single #
loop $-1 $-1 $618 $319 #
plane-surface $-1 0 0 -11.538495413289841 0 0 1 1 0 0 forward_v I I I I #
coedge $-1 $471 $481 $466 $619 forward $320 $-1 #
coedge $-1 $325 $322 $618 $620 reversed $198 $-1 #
coedge $-1 $322 $325 $464 $619 reversed $198 $-1 #
coedge $-1 $621 $622 $322 $468 forward $616 $-1 #
edge $-1 $623 -11.538495413289841 $624 11.538495413289841 $467 $625 forward 7 unknown #
coedge $-1 $618 $328 $323 $470 forward $462 $-1 #
edge $-1 $333 -18.888169995745429 $474 -13.993385793840719 $469 $626 forward 7 unknown #
coedge $-1 $330 $464 $324 $472 forward $320 $-1 #
edge $-1 $473 13.993385793840719 $332 18.888169995745429 $471 $627 forward 7 unknown #
vertex $-1 $472 $628 #
vertex $-1 $470 $629 #
straight-curve $-1 -30.434163688633792 -12.608283611105337 0 0 0 -1 I I #
coedge $-1 $622 $621 $327 $477 forward $616 $-1 #
edge $-1 $482 -11.538495413289841 $479 11.538495413289841 $476 $630 forward 7 unknown #
coedge $-1 $328 $618 $622 $631 forward $462 $-1 #
vertex $-1 $329 $632 #
straight-curve $-1 -35.328947890538501 -9.4630703487182757 -11.538495413289841 0 1 0 I I #
coedge $-1 $464 $330 $621 $633 forward $320 $-1 #
vertex $-1 $633 $634 #
straight-curve $-1 -35.328947890538501 -9.4630703487182757 11.538495413289841 0 -1 0 I I #
point $-1 -35.328947890538501 -12.608283611105337 11.538495413289841 #
point $-1 -35.328947890538501 -12.608283611105337 -11.538495413289841 #
face $-1 $-1 $499 $47 $-1 $635 reversed single #
loop $-1 $-1 $505 $335 #
plane-surface $-1 0 0 11.538495413289841 0 0 1 1 0 0 forward_v I I I I #
coedge $-1 $344 $636 $490 $637 forward $336 $-1 #
coedge $-1 $638 $338 $489 $637 reversed $206 $-1 #
coedge $-1 $338 $638 $505 $639 reversed $206 $-1 #
edge $-1 $506 -11.538495413289841 $503 11.538495413289841 $338 $640 forward 7 unknown #
coedge $-1 $636 $344 $339 $494 forward $336 $-1 #
edge $-1 $349 3.1452132623870597 $500 15.780927435049492 $493 $641 forward 7 unknown #
coedge $-1 $346 $642 $340 $496 forward $487 $-1 #
edge $-1 $501 -15.780927435049492 $348 -3.1452132623870597 $495 $643 forward 7 unknown #
coedge $-1 $644 $341 $642 $645 reversed $499 $-1 #
coedge $-1 $341 $644 $636 $646 reversed $499 $-1 #
loop $-1 $-1 $644 $486 #
vertex $-1 $646 $647 #
vertex $-1 $342 $648 #
straight-curve $-1 -35.328947890538501 25.243997783767767 0 0 0 1 I I #
vertex $-1 $345 $649 #
straight-curve $-1 -16.440777894793072 12.608283611105335 -11.538495413289841 -1 0 0 I I #
coedge $-1 $642 $346 $491 $639 forward $487 $-1 #
vertex $-1 $347 $650 #
straight-curve $-1 -16.440777894793072 12.608283611105335 11.538495413289841 1 0 0 I I #
point $-1 -35.328947890538501 12.608283611105335 11.538495413289841 #
point $-1 -35.328947890538501 12.608283611105335 -11.538495413289841 #
loop $-1 $-1 $359 $351 #
plane-surface $-1 53.511154515213477 0 0 -1 0 0 0 0 1 forward_v I I I I #
coedge $-1 $513 $354 $356 $517 reversed $214 $-1 #
coedge $-1 $354 $512 $651 $652 reversed $214 $-1 #
coedge $-1 $362 $357 $354 $515 forward $352 $-1 #
edge $-1 $518 11.736437393474901 $653 14.917210282689304 $514 $654 forward 7 unknown #
coedge $-1 $356 $355 $521 $655 reversed $133 $-1 #
edge $-1 $656 -107.02230903042698 $518 -101.61085486793588 $512 $657 forward 7 unknown #
vertex $-1 $358 $658 #
straight-curve $-1 50.330381625999074 -3.5577194482525414 11.538495413289844 0 -1 0 I I #
coedge $-1 $651 $359 $362 $525 reversed $510 $-1 #
coedge $-1 $359 $651 $516 $655 forward $510 $-1 #
vertex $-1 $360 $659 #
straight-curve $-1 53.511154515213477 -4.202761203701785 78.324769177425068 0 0 1 I I #
straight-curve $-1 -9.3949791936604612 -4.202761203701785 93.743404645976227 0.5877852410284794 0 -0.80901700255871778 I I #
edge $-1 $653 -10.028116589308381 $363 -4.202761203701785 $520 $660 forward 7 unknown #
point $-1 53.511154515213477 -4.202761203701785 11.538495413289841 #
point $-1 50.330381625999074 -4.202761203701785 11.538495413289837 #
edge $-1 $661 1 $661 0 $366 $-1 forward 7 unknown #
vertex $-1 $367 $662 #
ellipse-curve $-1 50.621901605760364 -8.8630455121870604 8.4058345029982835 0.80901700255871778 0 0.5877852410284794 0.2938926205142397 0 -0.40450850127935889 1 I I #
point $-1 52.214660691120535 -8.8630455121870604 8.9450076989992748 #
edge $-1 $663 1 $663 0 $370 $-1 forward 7 unknown #
vertex $-1 $371 $664 #
ellipse-curve $-1 50.621901605760364 -7.1154388965050828 8.4058345029982835 0.80901700255871778 0 0.5877852410284794 0.2938926205142397 0 -0.40450850127935889 1 I I #
point $-1 52.214660691120535 -7.1154388965050828 8.9450076989992748 #
edge $-1 $665 1 $665 0 $374 $-1 forward 7 unknown #
vertex $-1 $375 $666 #
ellipse-curve $-1 50.621901605760364 -5.3678322808231016 8.4058345029982835 0.80901700255871778 0 0.5877852410284794 0.2938926205142397 0 -0.40450850127935889 1 I I #
point $-1 52.214660691120535 -5.3678322808231016 8.9450076989992748 #
plane-surface $-1 0 0 11.538495413289841 0 0 1 1 0 0 forward_v I I I I #
coedge $-1 $551 $550 $543 $667 forward $379 $-1 #
coedge $-1 $543 $381 $383 $547 reversed $243 $-1 #
coedge $-1 $381 $542 $541 $667 reversed $243 $-1 #
coedge $-1 $389 $384 $381 $545 forward $390 $-1 #
edge $-1 $548 11.736437393474901 $668 14.917210282689304 $544 $669 forward 7 unknown #
coedge $-1 $383 $382 $551 $670 reversed $152 $-1 #
edge $-1 $671 -107.02230903042698 $548 -101.61085486793588 $542 $672 forward 7 unknown #
vertex $-1 $385 $673 #
straight-curve $-1 50.330381625999074 0.64504175544923825 11.538495413289844 0 -1 0 I I #
coedge $-1 $541 $386 $389 $555 reversed $379 $-1 #
coedge $-1 $386 $541 $546 $670 forward $379 $-1 #
vertex $-1 $387 $674 #
straight-curve $-1 53.511154515213477 4.2027612037017743 78.324769177425068 0 0 1 I I #
straight-curve $-1 -9.3949791936604612 4.2027612037017743 93.743404645976227 0.5877852410284794 0 -0.80901700255871778 I I #
edge $-1 $668 -1.6225941819048213 $391 4.2027612037017743 $550 $675 forward 7 unknown #
point $-1 53.511154515213477 4.2027612037017743 11.538495413289841 #
point $-1 50.330381625999074 4.2027612037017743 11.538495413289837 #
edge $-1 $676 1 $676 0 $394 $-1 forward 7 unknown #
vertex $-1 $395 $677 #
ellipse-curve $-1 50.621901605760364 -0.45752310478350466 8.4058345029982835 0.80901700255871778 0 0.5877852410284794 0.2938926205142397 0 -0.40450850127935889 1 I I #
point $-1 52.214660691120535 -0.45752310478350466 8.9450076989992748 #
edge $-1 $678 1 $678 0 $398 $-1 forward 7 unknown #
vertex $-1 $399 $679 #
ellipse-curve $-1 50.621901605760364 1.2900835108984765 8.4058345029982835 0.80901700255871778 0 0.5877852410284794 0.2938926205142397 0 -0.40450850127935889 1 I I #
point $-1 52.214660691120535 1.2900835108984765 8.9450076989992748 #
edge $-1 $680 1 $680 0 $402 $-1 forward 7 unknown #
vertex $-1 $403 $681 #
ellipse-curve $-1 50.621901605760364 3.0376901265804577 8.4058345029982835 0.80901700255871778 0 0.5877852410284794 0.2938926205142397 0 -0.40450850127935889 1 I I #
point $-1 52.214660691120535 3.0376901265804577 8.9450076989992748 #
plane-surface $-1 0 0 11.538495413289841 0 0 1 1 0 0 forward_v I I I I #
coedge $-1 $581 $580 $573 $682 forward $407 $-1 #
coedge $-1 $573 $409 $411 $577 reversed $272 $-1 #
coedge $-1 $409 $572 $571 $682 reversed $272 $-1 #
coedge $-1 $417 $412 $409 $575 forward $418 $-1 #
edge $-1 $578 11.736437393474901 $683 14.917210282689304 $574 $684 forward 7 unknown #
coedge $-1 $411 $410 $581 $685 reversed $171 $-1 #
edge $-1 $686 -107.02230903042698 $578 -101.61085486793588 $572 $687 forward 7 unknown #
vertex $-1 $413 $688 #
straight-curve $-1 50.330381625999074 4.8478029591510179 11.538495413289844 0 -1 0 I I #
coedge $-1 $571 $414 $417 $585 reversed $407 $-1 #
coedge $-1 $414 $571 $576 $685 forward $407 $-1 #
vertex $-1 $415 $689 #
straight-curve $-1 53.511154515213477 12.608283611105334 78.324769177425068 0 0 1 I I #
straight-curve $-1 -9.3949791936604612 12.608283611105334 93.743404645976227 0.5877852410284794 0 -0.80901700255871778 I I #
edge $-1 $683 6.782928225498738 $419 12.608283611105334 $580 $690 forward 7 unknown #
point $-1 53.511154515213477 12.608283611105334 11.538495413289841 #
point $-1 50.330381625999074 12.608283611105334 11.538495413289837 #
edge $-1 $691 1 $691 0 $422 $-1 forward 7 unknown #
vertex $-1 $423 $692 #
ellipse-curve $-1 50.621901605760364 7.9479993026200546 8.4058345029982835 0.80901700255871778 0 0.5877852410284794 0.2938926205142397 0 -0.40450850127935889 1 I I #
point $-1 52.214660691120535 7.9479993026200546 8.9450076989992748 #
edge $-1 $693 1 $693 0 $426 $-1 forward 7 unknown #
vertex $-1 $427 $694 #
ellipse-curve $-1 50.621901605760364 9.6956059183020358 8.4058345029982835 0.80901700255871778 0 0.5877852410284794 0.2938926205142397 0 -0.40450850127935889 1 I I #
point $-1 52.214660691120535 9.6956059183020358 8.9450076989992748 #
edge $-1 $695 1 $695 0 $430 $-1 forward 7 unknown #
vertex $-1 $431 $696 #
ellipse-curve $-1 50.621901605760364 11.443212533984017 8.4058345029982835 0.80901700255871778 0 0.5877852410284794 0.2938926205142397 0 -0.40450850127935889 1 I I #
point $-1 52.214660691120535 11.443212533984017 8.9450076989992748 #
plane-surface $-1 53.511154515213477 0 0 -1 0 0 0 0 1 forward_v I I I I #
coedge $-1 $439 $437 $441 $605 reversed $301 $-1 #
edge $-1 $452 -11.538495413289841 $607 11.538495413289841 $451 $697 forward 7 unknown #
vertex $-1 $605 $698 #
straight-curve $-1 -53.511154515213477 -25.243997783767767 0 0 0 -1 I I #
edge $-1 $603 -25.243997783767767 $607 25.243997783767767 $601 $699 forward 7 unknown #
straight-curve $-1 0 -25.243997783767767 -11.538495413289841 -1 0 0 I I #
vertex $-1 $444 $700 #
straight-curve $-1 0 25.243997783767767 -11.538495413289841 1 0 0 I I #
point $-1 53.511154515213477 25.243997783767767 -11.538495413289841 #
point $-1 53.511154515213477 -25.243997783767767 -11.538495413289841 #
straight-curve $-1 -53.511154515213477 0 11.538495413289841 0 -1 0 I I #
point $-1 -53.511154515213477 25.243997783767767 11.538495413289841 #
point $-1 -53.511154515213477 -25.243997783767767 11.538495413289841 #
straight-curve $-1 53.511154515213477 -25.243997783767767 0 0 0 -1 I I #
straight-curve $-1 53.511154515213477 25.243997783767767 0 0 0 -1 I I #
loop $-1 $-1 $467 $461 #
plane-surface $-1 0 -25.243997783767767 0 0 1 0 0 0 1 forward_v I I I I #
coedge $-1 $478 $469 $465 $620 forward $462 $-1 #
edge $-1 $624 -15.780927435049492 $473 -3.1452132623870614 $464 $701 forward 7 unknown #
edge $-1 $474 3.1452132623870614 $623 15.780927435049492 $618 $702 forward 7 unknown #
coedge $-1 $476 $467 $481 $633 reversed $616 $-1 #
coedge $-1 $467 $476 $478 $631 reversed $616 $-1 #
vertex $-1 $631 $703 #
vertex $-1 $468 $704 #
straight-curve $-1 -30.434163688633792 -25.243997783767767 0 0 0 1 I I #
straight-curve $-1 -16.440777894793072 -12.608283611105337 -11.538495413289841 1 0 0 I I #
straight-curve $-1 -16.440777894793072 -12.608283611105337 11.538495413289841 -1 0 0 I I #
point $-1 -30.434163688633792 -12.608283611105337 11.538495413289841 #
point $-1 -30.434163688633792 -12.608283611105337 -11.538495413289841 #
straight-curve $-1 -35.328947890538501 -25.243997783767767 0 0 0 -1 I I #
edge $-1 $623 30.434163688633792 $479 35.328947890538501 $622 $705 forward 7 unknown #
point $-1 -35.328947890538501 -25.243997783767767 -11.538495413289841 #
edge $-1 $482 -35.328947890538501 $624 -30.434163688633792 $621 $706 forward 7 unknown #
point $-1 -35.328947890538501 -25.243997783767767 11.538495413289841 #
plane-surface $-1 0 25.243997783767767 0 0 -1 0 0 0 -1 forward_v I I I I #
coedge $-1 $489 $493 $498 $646 forward $336 $-1 #
edge $-1 $707 -15.780927435049492 $503 -3.1452132623870597 $489 $708 forward 7 unknown #
coedge $-1 $491 $490 $644 $709 reversed $206 $-1 #
edge $-1 $506 3.1452132623870597 $710 15.780927435049492 $505 $711 forward 7 unknown #
straight-curve $-1 -30.434163688633792 12.608283611105335 0 0 0 -1 I I #
straight-curve $-1 -35.328947890538501 9.4630703487182757 -11.538495413289841 0 1 0 I I #
coedge $-1 $495 $505 $497 $645 forward $487 $-1 #
straight-curve $-1 -35.328947890538501 9.4630703487182757 11.538495413289841 0 -1 0 I I #
coedge $-1 $498 $497 $638 $709 forward $499 $-1 #
edge $-1 $710 30.434163688633792 $501 35.328947890538501 $497 $712 forward 7 unknown #
edge $-1 $500 -35.328947890538501 $707 -30.434163688633792 $498 $713 forward 7 unknown #
point $-1 -35.328947890538501 25.243997783767767 -11.538495413289841 #
point $-1 -35.328947890538501 25.243997783767767 11.538495413289841 #
point $-1 -30.434163688633792 12.608283611105335 -11.538495413289841 #
point $-1 -30.434163688633792 12.608283611105335 11.538495413289841 #
coedge $-1 $521 $520 $513 $652 forward $510 $-1 #
edge $-1 $653 66.786273764135231 $656 71.164232190157676 $651 $714 forward 7 unknown #
vertex $-1 $525 $715 #
straight-curve $-1 38.593944232524173 -10.028116589308381 11.538495413289837 1 0 0 I I #
edge $-1 $656 -6.4703971410558392 $522 -0.64504175544924358 $521 $716 forward 7 unknown #
vertex $-1 $655 $717 #
straight-curve $-1 -9.3949791936604612 -10.028116589308381 93.743404645976227 -0.5877852410284794 0 0.80901700255871778 I I #
point $-1 50.330381625999074 -10.028116589308381 11.538495413289837 #
point $-1 53.511154515213477 -4.202761203701785 7.1605369872673919 #
straight-curve $-1 53.511154515213477 0 11.538495413289841 0 1 0 I I #
vertex $-1 $528 $718 #
point $-1 50.915794226274606 -8.8630455121870604 8.0013260017189243 #
vertex $-1 $532 $719 #
point $-1 50.915794226274606 -7.1154388965050828 8.0013260017189243 #
vertex $-1 $536 $720 #
point $-1 50.915794226274606 -5.3678322808231016 8.0013260017189243 #
edge $-1 $668 66.786273764135231 $671 71.164232190157676 $541 $721 forward 7 unknown #
vertex $-1 $555 $722 #
straight-curve $-1 38.593944232524173 -1.6225941819048213 11.538495413289837 1 0 0 I I #
edge $-1 $671 -2.2676359373540595 $552 3.5577194482525361 $551 $723 forward 7 unknown #
vertex $-1 $670 $724 #
straight-curve $-1 -9.3949791936604612 -1.6225941819048213 93.743404645976227 -0.5877852410284794 0 0.80901700255871778 I I #
point $-1 50.330381625999074 -1.6225941819048213 11.538495413289837 #
point $-1 53.511154515213477 4.2027612037017743 7.1605369872673919 #
straight-curve $-1 53.511154515213477 0 11.538495413289841 0 1 0 I I #
vertex $-1 $558 $725 #
point $-1 50.915794226274606 -0.45752310478350466 8.0013260017189243 #
vertex $-1 $562 $726 #
point $-1 50.915794226274606 1.2900835108984765 8.0013260017189243 #
vertex $-1 $566 $727 #
point $-1 50.915794226274606 3.0376901265804577 8.0013260017189243 #
edge $-1 $683 66.786273764135231 $686 71.164232190157676 $571 $728 forward 7 unknown #
vertex $-1 $585 $729 #
straight-curve $-1 38.593944232524173 6.782928225498738 11.538495413289837 1 0 0 I I #
edge $-1 $686 1.9351252663477201 $582 7.7604806519543157 $581 $730 forward 7 unknown #
vertex $-1 $685 $731 #
straight-curve $-1 -9.3949791936604612 6.782928225498738 93.743404645976227 -0.5877852410284794 0 0.80901700255871778 I I #
point $-1 50.330381625999074 6.782928225498738 11.538495413289837 #
point $-1 53.511154515213477 12.608283611105334 7.1605369872673919 #
straight-curve $-1 53.511154515213477 0 11.538495413289841 0 1 0 I I #
vertex $-1 $588 $732 #
point $-1 50.915794226274606 7.9479993026200546 8.0013260017189243 #
vertex $-1 $592 $733 #
point $-1 50.915794226274606 9.6956059183020358 8.0013260017189243 #
vertex $-1 $596 $734 #
point $-1 50.915794226274606 11.443212533984017 8.0013260017189243 #
straight-curve $-1 -53.511154515213477 25.243997783767767 0 0 0 -1 I I #
point $-1 -53.511154515213477 -25.243997783767767 -11.538495413289841 #
straight-curve $-1 -53.511154515213477 0 -11.538495413289841 0 1 0 I I #
point $-1 -53.511154515213477 25.243997783767767 -11.538495413289841 #
straight-curve $-1 -30.434163688633792 -9.4630703487182757 11.538495413289841 0 1 0 I I #
straight-curve $-1 -30.434163688633792 -9.4630703487182757 -11.538495413289841 0 -1 0 I I #
point $-1 -30.434163688633792 -25.243997783767767 -11.538495413289841 #
point $-1 -30.434163688633792 -25.243997783767767 11.538495413289841 #
straight-curve $-1 0 -25.243997783767767 -11.538495413289841 -1 0 0 I I #
straight-curve $-1 0 -25.243997783767767 11.538495413289841 1 0 0 I I #
vertex $-1 $709 $735 #
straight-curve $-1 -30.434163688633792 9.4630703487182757 -11.538495413289841 0 -1 0 I I #
edge $-1 $710 -11.538495413289841 $707 11.538495413289841 $644 $736 forward 7 unknown #
vertex $-1 $645 $737 #
straight-curve $-1 -30.434163688633792 9.4630703487182757 11.538495413289841 0 1 0 I I #
straight-curve $-1 0 25.243997783767767 11.538495413289841 -1 0 0 I I #
straight-curve $-1 0 25.243997783767767 -11.538495413289841 1 0 0 I I #
straight-curve $-1 53.511154515213477 -10.028116589308381 78.324769177425068 0 0 -1 I I #
point $-1 53.511154515213477 -10.028116589308381 11.538495413289841 #
straight-curve $-1 53.511154515213477 -3.5577194482525414 7.1605369872673919 0 1 0 I I #
point $-1 53.511154515213477 -10.028116589308381 7.1605369872673919 #
point $-1 50.217393104481012 -8.8630455121870604 8.1119418824840448 #
point $-1 50.217393104481012 -7.1154388965050828 8.1119418824840448 #
point $-1 50.217393104481012 -5.3678322808231016 8.1119418824840448 #
straight-curve $-1 53.511154515213477 -1.6225941819048213 78.324769177425068 0 0 -1 I I #
point $-1 53.511154515213477 -1.6225941819048213 11.538495413289841 #
straight-curve $-1 53.511154515213477 0.64504175544923825 7.1605369872673919 0 1 0 I I #
point $-1 53.511154515213477 -1.6225941819048213 7.1605369872673919 #
point $-1 50.217393104481012 -0.45752310478350466 8.1119418824840448 #
point $-1 50.217393104481012 1.2900835108984765 8.1119418824840448 #
point $-1 50.217393104481012 3.0376901265804577 8.1119418824840448 #
straight-curve $-1 53.511154515213477 6.782928225498738 78.324769177425068 0 0 -1 I I #
point $-1 53.511154515213477 6.782928225498738 11.538495413289841 #
straight-curve $-1 53.511154515213477 4.8478029591510179 7.1605369872673919 0 1 0 I I #
point $-1 53.511154515213477 6.782928225498738 7.1605369872673919 #
point $-1 50.217393104481012 7.9479993026200546 8.1119418824840448 #
point $-1 50.217393104481012 9.6956059183020358 8.1119418824840448 #
point $-1 50.217393104481012 11.443212533984017 8.1119418824840448 #
point $-1 -30.434163688633792 25.243997783767767 -11.538495413289841 #
straight-curve $-1 -30.434163688633792 25.243997783767767 0 0 0 -1 I I #
point $-1 -30.434163688633792 25.243997783767767 11.538495413289841 #
End-of-ACIS-data 