500 0 9 0           
7 Unknown 11 ACIS 5.0 NT 24 Fri Mar 26 15:49:45 1999 
-1 9.9999999999999995e-007 1e-010 
body $-1 $9 $-1 $10 #
body $-1 $11 $-1 $12 #
body $-1 $13 $-1 $14 #
body $-1 $15 $-1 $16 #
body $-1 $17 $-1 $18 #
body $-1 $19 $-1 $20 #
body $-1 $21 $-1 $22 #
body $-1 $23 $-1 $24 #
body $-1 $25 $-1 $26 #
lump $-1 $-1 $27 $0 #
transform $-1 1 0 0 0 1 0 0 0 1 55.480208746604816 34.653669495350101 8.5120250343417112 1 rotate no_reflect no_shear #
lump $-1 $-1 $28 $1 #
transform $-1 1 0 0 0 1 0 0 0 1 55.480208746604816 34.653669495350101 8.5120250343417112 1 rotate no_reflect no_shear #
lump $-1 $-1 $29 $2 #
transform $-1 1 0 0 0 1 0 0 0 1 55.480208746604816 34.653669495350101 8.5120250343417112 1 rotate no_reflect no_shear #
lump $-1 $-1 $30 $3 #
transform $-1 1 0 0 0 1 0 0 0 1 55.480208746604816 34.653669495350101 8.5120250343417112 1 rotate no_reflect no_shear #
lump $-1 $-1 $31 $4 #
transform $-1 1 0 0 0 1 0 0 0 1 55.480208746604816 34.653669495350101 8.5120250343417112 1 rotate no_reflect no_shear #
lump $-1 $-1 $32 $5 #
transform $-1 1 0 0 0 1 0 0 0 1 55.480208746604816 34.653669495350101 8.5120250343417112 1 rotate no_reflect no_shear #
lump $-1 $-1 $33 $6 #
transform $-1 1 0 0 0 1 0 0 0 1 55.480208746604816 34.653669495350101 8.5120250343417112 1 rotate no_reflect no_shear #
lump $-1 $-1 $34 $7 #
transform $-1 1 0 0 0 1 0 0 0 1 55.480208746604816 34.653669495350101 8.5120250343417112 1 rotate no_reflect no_shear #
lump $-1 $-1 $35 $8 #
transform $-1 1 0 0 0 1 0 0 0 1 55.480208746604816 34.653669495350101 8.5120250343417112 1 rotate no_reflect no_shear #
shell $-1 $-1 $-1 $36 $-1 $9 #
shell $-1 $-1 $-1 $37 $-1 $11 #
shell $-1 $-1 $-1 $38 $-1 $13 #
shell $-1 $-1 $-1 $39 $-1 $15 #
shell $-1 $-1 $-1 $40 $-1 $17 #
shell $-1 $-1 $-1 $41 $-1 $19 #
shell $-1 $-1 $-1 $42 $-1 $21 #
shell $-1 $-1 $-1 $43 $-1 $23 #
shell $-1 $-1 $-1 $44 $-1 $25 #
face $-1 $45 $46 $27 $-1 $47 forward single #
face $-1 $48 $49 $28 $-1 $50 reversed single #
face $-1 $51 $52 $29 $-1 $53 reversed single #
face $-1 $54 $55 $30 $-1 $56 forward single #
face $-1 $57 $58 $31 $-1 $59 forward single #
face $-1 $60 $61 $32 $-1 $62 forward single #
face $-1 $63 $64 $33 $-1 $65 reversed single #
face $-1 $66 $67 $34 $-1 $68 forward single #
face $-1 $69 $70 $35 $-1 $71 forward single #
face $-1 $72 $73 $27 $-1 $74 reversed single #
loop $-1 $-1 $75 $36 #
plane-surface $-1 0 0 8.5120250343417112 0 0 1 1 0 0 forward_v I I I I #
face $-1 $76 $77 $28 $-1 $78 reversed single #
loop $-1 $-1 $79 $37 #
plane-surface $-1 -41.456158677921394 -31.192930071234262 0 1 0 0 0 0 -1 forward_v I I I I #
face $-1 $80 $81 $29 $-1 $82 reversed single #
loop $-1 $-1 $83 $38 #
plane-surface $-1 41.803580662285228 -9.830931062245476 161.17013509349295 0 -1 0 -0.64278761758704617 0 -0.76604443648966558 forward_v I I I I #
face $-1 $84 $85 $30 $-1 $86 forward single #
loop $-1 $87 $88 $39 #
cone-surface $-1 52.471987102260996 -24.151938730143833 5.6974345658417009 -0.64278761758704617 0 -0.76604443648966558 0.76604443648966558 0 -0.64278761758704617 1 I I 0 1 1 forward I I I I #
face $-1 $89 $90 $31 $-1 $91 forward single #
loop $-1 $92 $93 $40 #
cone-surface $-1 52.471987102260996 -18.781560854681949 5.6974345658417009 -0.64278761758704617 0 -0.76604443648966558 0.76604443648966558 0 -0.64278761758704617 1 I I 0 1 1 forward I I I I #
face $-1 $94 $95 $32 $-1 $96 forward single #
loop $-1 $97 $98 $41 #
cone-surface $-1 52.471987102260996 -13.411182979220065 5.6974345658417009 -0.64278761758704617 0 -0.76604443648966558 0.76604443648966558 0 -0.64278761758704617 1 I I 0 1 1 forward I I I I #
face $-1 $99 $100 $33 $-1 $101 reversed single #
loop $-1 $-1 $102 $42 #
plane-surface $-1 -112.62904932373829 -19.261689297483699 97.994574683550553 0 1 0 -0.51503808176128008 0 0.85716729658548041 forward_v I I I I #
face $-1 $103 $104 $34 $-1 $105 forward single #
loop $-1 $106 $107 $43 #
cone-surface $-1 -50.322955493139837 -16.125818556770803 4.9101708770325834 0.51503808176128008 0 -0.85716729658548041 0.85716729658548041 0 0.51503808176128008 1 I I 0 1 1 forward I I I I #
face $-1 $108 $109 $35 $-1 $110 forward single #
loop $-1 $111 $112 $44 #
cone-surface $-1 -50.322955493139837 -11.422012445701455 4.9101708770325834 0.51503808176128008 0 -0.85716729658548041 0.85716729658548041 0 0.51503808176128008 1 I I 0 1 1 forward I I I I #
face $-1 $113 $114 $27 $-1 $115 reversed single #
loop $-1 $-1 $116 $45 #
plane-surface $-1 0 0 -8.5120250343417112 0 0 1 1 0 0 forward_v I I I I #
coedge $-1 $117 $118 $119 $120 forward $46 $-1 #
face $-1 $121 $122 $28 $-1 $123 reversed single #
loop $-1 $-1 $124 $48 #
plane-surface $-1 -39.956158677921394 -27.732190647118422 0 0 -1 0 0 0 -1 forward_v I I I I #
coedge $-1 $125 $126 $127 $128 forward $49 $-1 #
face $-1 $129 $130 $29 $-1 $131 reversed single #
loop $-1 $-1 $132 $51 #
plane-surface $-1 -29.520401744638988 -18.781560854681949 76.16952460224914 0.64278761758704617 0 0.76604443648966558 0.76604443648966558 0 -0.64278761758704617 forward_v I I I I #
coedge $-1 $133 $134 $135 $136 reversed $52 $-1 #
face $-1 $-1 $137 $30 $-1 $138 forward single #
loop $-1 $139 $140 $54 #
cone-surface $-1 51.327143651155311 -24.151938730143833 4.3330632986052464 -0.64278761758704617 0 -0.76604443648966558 0.38302221824483279 0 -0.32139380879352308 1 I I -0.70710678118654746 0.70710678118654746 0.5 forward I I I I #
loop $-1 $-1 $141 $39 #
coedge $-1 $88 $88 $142 $143 reversed $55 $-1 #
face $-1 $-1 $144 $31 $-1 $145 forward single #
loop $-1 $146 $147 $57 #
cone-surface $-1 51.327143651155311 -18.781560854681949 4.3330632986052464 -0.64278761758704617 0 -0.76604443648966558 0.38302221824483279 0 -0.32139380879352308 1 I I -0.70710678118654746 0.70710678118654746 0.5 forward I I I I #
loop $-1 $-1 $148 $40 #
coedge $-1 $93 $93 $149 $150 reversed $58 $-1 #
face $-1 $-1 $151 $32 $-1 $152 forward single #
loop $-1 $153 $154 $60 #
cone-surface $-1 51.327143651155311 -13.411182979220065 4.3330632986052464 -0.64278761758704617 0 -0.76604443648966558 0.38302221824483279 0 -0.32139380879352308 1 I I -0.70710678118654746 0.70710678118654746 0.5 forward I I I I #
loop $-1 $-1 $155 $41 #
coedge $-1 $98 $98 $156 $157 reversed $61 $-1 #
face $-1 $158 $159 $33 $-1 $160 reversed single #
loop $-1 $-1 $161 $63 #
plane-surface $-1 -55.480208746604809 -13.773915501236129 2.8829335928998034 -0.51503808176128008 0 0.85716729658548041 0.85716729658548041 0 0.51503808176128008 forward_v I I I I #
coedge $-1 $162 $163 $164 $165 reversed $64 $-1 #
face $-1 $-1 $166 $34 $-1 $167 forward single #
loop $-1 $168 $169 $66 #
cone-surface $-1 -49.592373809120417 -16.125818556770803 3.6942787921516604 0.51503808176128008 0 -0.85716729658548041 0.4285836482927402 0 0.25751904088064004 1 I I -0.70710678118654691 0.70710678118654813 0.5 forward I I I I #
loop $-1 $-1 $170 $43 #
coedge $-1 $107 $107 $171 $172 reversed $67 $-1 #
face $-1 $-1 $173 $35 $-1 $174 forward single #
loop $-1 $175 $176 $69 #
cone-surface $-1 -49.592373809120417 -11.422012445701455 3.6942787921516604 0.51503808176128008 0 -0.85716729658548041 0.4285836482927402 0 0.25751904088064004 1 I I -0.70710678118654691 0.70710678118654813 0.5 forward I I I I #
loop $-1 $-1 $177 $44 #
coedge $-1 $112 $112 $178 $179 reversed $70 $-1 #
face $-1 $180 $181 $27 $-1 $182 reversed single #
loop $-1 $-1 $183 $72 #
plane-surface $-1 0 -34.653669495350101 0 0 1 0 0 0 1 forward_v I I I I #
coedge $-1 $184 $185 $186 $187 forward $73 $-1 #
coedge $-1 $188 $75 $189 $190 forward $46 $-1 #
coedge $-1 $75 $188 $191 $192 forward $46 $-1 #
coedge $-1 $193 $194 $75 $120 reversed $195 $-1 #
edge $-1 $196 -34.653669495350101 $197 34.653669495350101 $119 $198 forward 7 unknown #
face $-1 $199 $200 $28 $-1 $201 forward single #
loop $-1 $-1 $202 $76 #
plane-surface $-1 -38.456158677921394 -31.192930071234262 0 -1 0 0 0 0 1 forward_v I I I I #
coedge $-1 $203 $204 $205 $206 forward $77 $-1 #
coedge $-1 $207 $79 $208 $209 reversed $49 $-1 #
coedge $-1 $79 $207 $210 $211 reversed $49 $-1 #
coedge $-1 $204 $203 $79 $128 reversed $77 $-1 #
edge $-1 $212 -8.5120250343417112 $213 8.5120250343417112 $127 $214 forward 7 unknown #
face $-1 $215 $216 $29 $-1 $217 reversed single #
loop $-1 $-1 $218 $80 #
plane-surface $-1 41.803580662285228 -27.732190647118422 161.17013509349295 0 1 0 0.64278761758704617 0 0.76604443648966558 forward_v I I I I #
coedge $-1 $219 $220 $221 $222 reversed $81 $-1 #
coedge $-1 $134 $83 $223 $224 reversed $52 $-1 #
coedge $-1 $83 $133 $219 $225 reversed $52 $-1 #
coedge $-1 $221 $226 $83 $136 forward $227 $-1 #
edge $-1 $228 -34.578418415462203 $229 -30.208874411398831 $135 $230 forward 7 unknown #
loop $-1 $-1 $142 $84 #
plane-surface $-1 -29.520401744638988 -18.781560854681949 76.16952460224914 0.64278761758704617 0 0.76604443648966558 0.76604443648966558 0 -0.64278761758704617 forward_v I I I I #
loop $-1 $-1 $231 $54 #
coedge $-1 $140 $140 $141 $232 reversed $85 $-1 #
coedge $-1 $141 $141 $140 $232 forward $87 $-1 #
coedge $-1 $142 $142 $88 $143 forward $137 $-1 #
edge $-1 $233 0 $233 6.2831853071796004 $142 $234 forward 7 unknown #
loop $-1 $-1 $149 $89 #
plane-surface $-1 -29.520401744638988 -18.781560854681949 76.16952460224914 0.64278761758704617 0 0.76604443648966558 0.76604443648966558 0 -0.64278761758704617 forward_v I I I I #
loop $-1 $-1 $235 $57 #
coedge $-1 $147 $147 $148 $236 reversed $90 $-1 #
coedge $-1 $148 $148 $147 $236 forward $92 $-1 #
coedge $-1 $149 $149 $93 $150 forward $144 $-1 #
edge $-1 $237 0 $237 6.2831853071796004 $149 $238 forward 7 unknown #
loop $-1 $-1 $156 $94 #
plane-surface $-1 -29.520401744638988 -18.781560854681949 76.16952460224914 0.64278761758704617 0 0.76604443648966558 0.76604443648966558 0 -0.64278761758704617 forward_v I I I I #
loop $-1 $-1 $239 $60 #
coedge $-1 $154 $154 $155 $240 reversed $95 $-1 #
coedge $-1 $155 $155 $154 $240 forward $97 $-1 #
coedge $-1 $156 $156 $98 $157 forward $151 $-1 #
edge $-1 $241 0 $241 6.2831853071796004 $156 $242 forward 7 unknown #
face $-1 $243 $244 $33 $-1 $245 reversed single #
loop $-1 $-1 $246 $99 #
plane-surface $-1 -112.62904932373829 -8.2861417049885588 97.994574683550553 0 -1 0 0.51503808176128008 0 -0.85716729658548041 forward_v I I I I #
coedge $-1 $247 $248 $249 $250 reversed $100 $-1 #
coedge $-1 $163 $102 $251 $252 reversed $64 $-1 #
coedge $-1 $102 $162 $247 $253 reversed $64 $-1 #
coedge $-1 $249 $254 $102 $165 forward $255 $-1 #
edge $-1 $256 0.83431591526432669 $257 10.202697135916765 $164 $258 forward 7 unknown #
loop $-1 $-1 $171 $103 #
plane-surface $-1 -55.480208746604809 -13.773915501236129 2.8829335928998034 -0.51503808176128008 0 0.85716729658548041 0.85716729658548041 0 0.51503808176128008 forward_v I I I I #
loop $-1 $-1 $259 $66 #
coedge $-1 $169 $169 $170 $260 reversed $104 $-1 #
coedge $-1 $170 $170 $169 $260 forward $106 $-1 #
coedge $-1 $171 $171 $107 $172 forward $166 $-1 #
edge $-1 $261 0 $261 6.2831853071796004 $171 $262 forward 7 unknown #
loop $-1 $-1 $178 $108 #
plane-surface $-1 -55.480208746604809 -13.773915501236129 2.8829335928998034 -0.51503808176128008 0 0.85716729658548041 0.85716729658548041 0 0.51503808176128008 forward_v I I I I #
loop $-1 $-1 $263 $69 #
coedge $-1 $176 $176 $177 $264 reversed $109 $-1 #
coedge $-1 $177 $177 $176 $264 forward $111 $-1 #
coedge $-1 $178 $178 $112 $179 forward $173 $-1 #
edge $-1 $265 0 $265 6.2831853071796004 $178 $266 forward 7 unknown #
face $-1 $267 $268 $27 $-1 $269 reversed single #
loop $-1 $-1 $270 $113 #
plane-surface $-1 -55.480208746604816 0 0 1 0 0 0 0 -1 forward_v I I I I #
coedge $-1 $271 $191 $272 $273 forward $114 $-1 #
coedge $-1 $274 $116 $271 $275 forward $73 $-1 #
coedge $-1 $116 $274 $276 $277 forward $73 $-1 #
coedge $-1 $194 $193 $116 $187 reversed $195 $-1 #
edge $-1 $278 -34.653669495350101 $279 34.653669495350101 $186 $280 forward 7 unknown #
coedge $-1 $118 $117 $281 $282 forward $46 $-1 #
coedge $-1 $283 $284 $117 $190 reversed $268 $-1 #
edge $-1 $197 -55.480208746604816 $285 55.480208746604816 $189 $286 forward 7 unknown #
coedge $-1 $183 $287 $118 $192 reversed $114 $-1 #
edge $-1 $288 -55.480208746604816 $196 55.480208746604816 $191 $289 forward 7 unknown #
coedge $-1 $186 $119 $287 $290 forward $195 $-1 #
coedge $-1 $119 $186 $283 $291 reversed $195 $-1 #
loop $-1 $-1 $193 $267 #
vertex $-1 $120 $292 #
vertex $-1 $120 $293 #
straight-curve $-1 55.480208746604816 0 8.5120250343417112 0 1 0 I I #
face $-1 $294 $295 $28 $-1 $296 reversed single #
loop $-1 $-1 $297 $121 #
plane-surface $-1 0 0 8.5120250343417112 0 0 1 1 0 0 forward_v I I I I #
coedge $-1 $298 $299 $300 $301 reversed $122 $-1 #
coedge $-1 $127 $124 $302 $303 reversed $77 $-1 #
coedge $-1 $124 $127 $304 $305 reversed $77 $-1 #
coedge $-1 $299 $298 $124 $206 reversed $122 $-1 #
edge $-1 $306 -8.5120250343417112 $307 8.5120250343417112 $205 $308 forward 7 unknown #
coedge $-1 $126 $125 $309 $310 reversed $49 $-1 #
coedge $-1 $302 $311 $125 $209 forward $295 $-1 #
edge $-1 $312 -19.057204459732972 $213 -12.135725611501291 $208 $313 forward 7 unknown #
coedge $-1 $314 $304 $126 $211 forward $200 $-1 #
edge $-1 $212 12.135725611501291 $315 19.057204459732972 $210 $316 forward 7 unknown #
vertex $-1 $211 $317 #
vertex $-1 $209 $318 #
straight-curve $-1 -41.456158677921394 -27.732190647118422 0 0 0 -1 I I #
face $-1 $-1 $227 $29 $-1 $319 forward single #
loop $-1 $-1 $320 $129 #
plane-surface $-1 55.480208746604816 0 0 -1 0 0 0 0 1 forward_v I I I I #
coedge $-1 $321 $322 $323 $324 reversed $130 $-1 #
coedge $-1 $325 $132 $134 $225 forward $81 $-1 #
coedge $-1 $132 $325 $321 $326 forward $81 $-1 #
coedge $-1 $323 $135 $132 $222 forward $227 $-1 #
edge $-1 $229 0.44015063490450146 $327 18.341410219777448 $221 $328 forward 7 unknown #
coedge $-1 $329 $330 $133 $224 forward $216 $-1 #
edge $-1 $331 -75.739525351421548 $228 -72.073042512404754 $223 $332 forward 7 unknown #
edge $-1 $229 105.25638284988472 $331 110.96041749320963 $134 $333 forward 7 unknown #
coedge $-1 $135 $323 $329 $334 forward $227 $-1 #
loop $-1 $-1 $323 $215 #
vertex $-1 $224 $335 #
vertex $-1 $136 $336 #
straight-curve $-1 20.901790331142614 -9.830931062245476 8.5120250343417183 -1 0 0 I I #
coedge $-1 $231 $231 $-1 $337 reversed $139 $-1 #
edge $-1 $338 0 $338 6.2831853071796004 $140 $339 forward 7 unknown #
vertex $-1 $143 $340 #
ellipse-curve $-1 53.295436744573145 -24.151938730143833 6.6787836148333053 0.64278761758704617 0 0.76604443648966558 0.76604443648966558 0 -0.64278761758704617 1 I I #
coedge $-1 $235 $235 $-1 $341 reversed $146 $-1 #
edge $-1 $342 0 $342 6.2831853071796004 $147 $343 forward 7 unknown #
vertex $-1 $150 $344 #
ellipse-curve $-1 53.295436744573145 -18.781560854681949 6.6787836148333053 0.64278761758704617 0 0.76604443648966558 0.76604443648966558 0 -0.64278761758704617 1 I I #
coedge $-1 $239 $239 $-1 $345 reversed $153 $-1 #
edge $-1 $346 0 $346 6.2831853071796004 $154 $347 forward 7 unknown #
vertex $-1 $157 $348 #
ellipse-curve $-1 53.295436744573145 -13.411182979220065 6.6787836148333053 0.64278761758704617 0 0.76604443648966558 0.76604443648966558 0 -0.64278761758704617 1 I I #
face $-1 $-1 $255 $33 $-1 $349 forward single #
loop $-1 $-1 $350 $158 #
plane-surface $-1 -55.480208746604816 0 0 1 0 0 0 0 -1 forward_v I I I I #
coedge $-1 $351 $352 $353 $354 reversed $159 $-1 #
coedge $-1 $355 $161 $163 $253 forward $100 $-1 #
coedge $-1 $161 $355 $351 $356 forward $100 $-1 #
coedge $-1 $353 $164 $161 $250 forward $255 $-1 #
edge $-1 $257 -12.374731546865634 $357 -1.3991839543704945 $249 $358 forward 7 unknown #
coedge $-1 $359 $360 $162 $252 forward $244 $-1 #
edge $-1 $361 -46.11435374887548 $256 -40.485262307433565 $251 $362 forward 7 unknown #
edge $-1 $257 -10.929466462347905 $361 8.3777685069199533e-015 $163 $363 forward 7 unknown #
coedge $-1 $164 $353 $359 $364 forward $255 $-1 #
loop $-1 $-1 $353 $243 #
vertex $-1 $252 $365 #
vertex $-1 $165 $366 #
straight-curve $-1 -56.314524661869143 -19.261689297483699 8.5120250343417112 1 0 0 I I #
coedge $-1 $259 $259 $-1 $367 reversed $168 $-1 #
edge $-1 $368 0 $368 6.2831853071796004 $169 $369 forward 7 unknown #
vertex $-1 $172 $370 #
ellipse-curve $-1 -50.796018136278605 -16.125818556770803 5.6974793136207502 -0.51503808176128008 0 0.85716729658548041 0.85716729658548041 0 0.51503808176128008 1 I I #
coedge $-1 $263 $263 $-1 $371 reversed $175 $-1 #
edge $-1 $372 0 $372 6.2831853071796004 $176 $373 forward 7 unknown #
vertex $-1 $179 $374 #
ellipse-curve $-1 -50.796018136278605 -11.422012445701455 5.6974793136207502 -0.51503808176128008 0 0.85716729658548041 0.85716729658548041 0 0.51503808176128008 1 I I #
face $-1 $-1 $195 $27 $-1 $375 reversed single #
loop $-1 $-1 $283 $180 #
plane-surface $-1 0 34.653669495350101 0 0 -1 0 0 0 -1 forward_v I I I I #
coedge $-1 $376 $281 $284 $377 forward $181 $-1 #
coedge $-1 $287 $183 $184 $275 reversed $114 $-1 #
coedge $-1 $281 $376 $183 $273 reversed $181 $-1 #
edge $-1 $288 -8.5120250343417112 $378 8.5120250343417112 $272 $379 forward 7 unknown #
coedge $-1 $185 $184 $376 $380 forward $73 $-1 #
edge $-1 $279 -55.480208746604816 $378 55.480208746604816 $271 $381 forward 7 unknown #
coedge $-1 $284 $283 $185 $277 reversed $268 $-1 #
edge $-1 $382 -55.480208746604816 $278 55.480208746604816 $276 $383 forward 7 unknown #
vertex $-1 $187 $384 #
vertex $-1 $290 $385 #
straight-curve $-1 55.480208746604816 0 -8.5120250343417112 0 -1 0 I I #
coedge $-1 $270 $272 $188 $282 reversed $181 $-1 #
edge $-1 $285 -34.653669495350101 $288 34.653669495350101 $281 $386 forward 7 unknown #
coedge $-1 $276 $189 $194 $291 forward $268 $-1 #
coedge $-1 $189 $276 $270 $377 reversed $268 $-1 #
vertex $-1 $190 $387 #
straight-curve $-1 0 34.653669495350101 8.5120250343417112 -1 0 0 I I #
coedge $-1 $191 $271 $193 $290 reversed $114 $-1 #
vertex $-1 $282 $388 #
straight-curve $-1 0 -34.653669495350101 8.5120250343417112 1 0 0 I I #
edge $-1 $196 -8.5120250343417112 $279 8.5120250343417112 $193 $389 forward 7 unknown #
edge $-1 $197 -8.5120250343417112 $278 8.5120250343417112 $194 $390 forward 7 unknown #
point $-1 55.480208746604816 -34.653669495350101 8.5120250343417112 #
point $-1 55.480208746604816 34.653669495350101 8.5120250343417112 #
face $-1 $-1 $391 $28 $-1 $392 reversed single #
loop $-1 $-1 $393 $199 #
plane-surface $-1 0 0 -8.5120250343417112 0 0 1 1 0 0 forward_v I I I I #
coedge $-1 $304 $314 $299 $394 forward $200 $-1 #
coedge $-1 $205 $202 $393 $395 reversed $122 $-1 #
coedge $-1 $202 $205 $297 $394 reversed $122 $-1 #
coedge $-1 $396 $397 $202 $301 forward $391 $-1 #
edge $-1 $398 -8.5120250343417112 $399 8.5120250343417112 $300 $400 forward 7 unknown #
coedge $-1 $393 $208 $203 $303 forward $295 $-1 #
edge $-1 $213 -21.478079338960697 $307 -18.478079338960697 $302 $401 forward 7 unknown #
coedge $-1 $210 $297 $204 $305 forward $200 $-1 #
edge $-1 $306 18.478079338960697 $212 21.478079338960697 $304 $402 forward 7 unknown #
vertex $-1 $305 $403 #
vertex $-1 $303 $404 #
straight-curve $-1 -38.456158677921394 -27.732190647118422 0 0 0 -1 I I #
coedge $-1 $397 $396 $207 $310 forward $391 $-1 #
edge $-1 $315 -8.5120250343417112 $312 8.5120250343417112 $309 $405 forward 7 unknown #
coedge $-1 $208 $393 $397 $406 forward $295 $-1 #
vertex $-1 $209 $407 #
straight-curve $-1 -41.456158677921394 -15.596465035617131 -8.5120250343417112 0 1 0 I I #
coedge $-1 $297 $210 $396 $408 forward $200 $-1 #
vertex $-1 $408 $409 #
straight-curve $-1 -41.456158677921394 -15.596465035617131 8.5120250343417112 0 -1 0 I I #
point $-1 -41.456158677921394 -27.732190647118422 8.5120250343417112 #
point $-1 -41.456158677921394 -27.732190647118422 -8.5120250343417112 #
plane-surface $-1 0 0 8.5120250343417112 0 0 1 1 0 0 forward_v I I I I #
coedge $-1 $330 $329 $322 $410 forward $216 $-1 #
coedge $-1 $322 $218 $220 $326 reversed $130 $-1 #
coedge $-1 $218 $321 $320 $410 reversed $130 $-1 #
coedge $-1 $226 $221 $218 $324 forward $227 $-1 #
edge $-1 $327 30.208874411398831 $411 34.578418415462203 $323 $412 forward 7 unknown #
coedge $-1 $220 $219 $330 $413 reversed $81 $-1 #
edge $-1 $414 -110.96041749320963 $327 -105.25638284988472 $321 $415 forward 7 unknown #
vertex $-1 $222 $416 #
straight-curve $-1 51.110664742541459 -9.3907804273409745 8.5120250343417112 0 -1 0 I I #
coedge $-1 $320 $223 $226 $334 reversed $216 $-1 #
coedge $-1 $223 $320 $325 $413 forward $216 $-1 #
vertex $-1 $224 $417 #
straight-curve $-1 55.480208746604816 -9.830931062245476 80.585067546746473 0 0 1 I I #
straight-curve $-1 -29.520401744638988 -9.830931062245476 76.16952460224914 0.76604443648966558 0 -0.64278761758704617 I I #
edge $-1 $411 -27.732190647118422 $228 -9.830931062245476 $329 $418 forward 7 unknown #
point $-1 55.480208746604816 -9.830931062245476 8.5120250343417112 #
point $-1 51.110664742541445 -9.830931062245476 8.5120250343417183 #
edge $-1 $419 1 $419 0 $231 $-1 forward 7 unknown #
vertex $-1 $232 $420 #
ellipse-curve $-1 51.648537459948834 -24.151938730143833 4.7160855168500788 0.64278761758704617 0 0.76604443648966558 0.76604443648966558 0 -0.64278761758704617 1 I I #
point $-1 54.061481181062824 -24.151938730143833 6.0359959972462764 #
edge $-1 $421 1 $421 0 $235 $-1 forward 7 unknown #
vertex $-1 $236 $422 #
ellipse-curve $-1 51.648537459948834 -18.781560854681949 4.7160855168500788 0.64278761758704617 0 0.76604443648966558 0.76604443648966558 0 -0.64278761758704617 1 I I #
point $-1 54.061481181062824 -18.781560854681949 6.0359959972462764 #
edge $-1 $423 1 $423 0 $239 $-1 forward 7 unknown #
vertex $-1 $240 $424 #
ellipse-curve $-1 51.648537459948834 -13.411182979220065 4.7160855168500788 0.64278761758704617 0 0.76604443648966558 0.76604443648966558 0 -0.64278761758704617 1 I I #
point $-1 54.061481181062824 -13.411182979220065 6.0359959972462764 #
plane-surface $-1 0 0 8.5120250343417112 0 0 1 1 0 0 forward_v I I I I #
coedge $-1 $360 $359 $352 $425 forward $244 $-1 #
coedge $-1 $352 $246 $248 $356 reversed $159 $-1 #
coedge $-1 $246 $351 $350 $425 reversed $159 $-1 #
coedge $-1 $254 $249 $246 $354 forward $255 $-1 #
edge $-1 $357 -10.202697135916765 $426 -0.83431591526432669 $353 $427 forward 7 unknown #
coedge $-1 $248 $247 $360 $428 reversed $100 $-1 #
edge $-1 $429 -8.3777685069199533e-015 $357 10.929466462347905 $351 $430 forward 7 unknown #
vertex $-1 $250 $431 #
straight-curve $-1 -46.111827525952386 -6.8869577506180644 8.5120250343417112 0 1 0 I I #
coedge $-1 $350 $251 $254 $364 reversed $244 $-1 #
coedge $-1 $251 $350 $355 $428 forward $244 $-1 #
vertex $-1 $252 $432 #
straight-curve $-1 -55.480208746604816 -19.261689297483699 48.997287341775277 0 0 1 I I #
straight-curve $-1 -55.480208746604809 -19.261689297483699 2.8829335928998034 -0.85716729658548041 0 -0.51503808176128008 I I #
edge $-1 $426 8.2861417049885588 $256 19.261689297483699 $359 $433 forward 7 unknown #
point $-1 -55.480208746604816 -19.261689297483699 8.5120250343417112 #
point $-1 -46.111827525952378 -19.261689297483699 8.5120250343417112 #
edge $-1 $434 1 $434 0 $259 $-1 forward 7 unknown #
vertex $-1 $260 $435 #
ellipse-curve $-1 -49.849892850001055 -16.125818556770803 4.1228624404444014 -0.51503808176128008 0 0.85716729658548041 0.85716729658548041 0 0.51503808176128008 1 I I #
point $-1 -49.938850839693139 -16.125818556770803 6.2125173953820436 #
edge $-1 $436 1 $436 0 $263 $-1 forward 7 unknown #
vertex $-1 $264 $437 #
ellipse-curve $-1 -49.849892850001055 -11.422012445701455 4.1228624404444014 -0.51503808176128008 0 0.85716729658548041 0.85716729658548041 0 0.51503808176128008 1 I I #
point $-1 -49.938850839693139 -11.422012445701455 6.2125173953820436 #
plane-surface $-1 55.480208746604816 0 0 -1 0 0 0 0 1 forward_v I I I I #
coedge $-1 $272 $270 $274 $380 reversed $181 $-1 #
edge $-1 $285 -8.5120250343417112 $382 8.5120250343417112 $284 $438 forward 7 unknown #
vertex $-1 $380 $439 #
straight-curve $-1 -55.480208746604816 -34.653669495350101 0 0 0 -1 I I #
edge $-1 $378 -34.653669495350101 $382 34.653669495350101 $376 $440 forward 7 unknown #
straight-curve $-1 0 -34.653669495350101 -8.5120250343417112 -1 0 0 I I #
vertex $-1 $277 $441 #
straight-curve $-1 0 34.653669495350101 -8.5120250343417112 1 0 0 I I #
point $-1 55.480208746604816 34.653669495350101 -8.5120250343417112 #
point $-1 55.480208746604816 -34.653669495350101 -8.5120250343417112 #
straight-curve $-1 -55.480208746604816 0 8.5120250343417112 0 -1 0 I I #
point $-1 -55.480208746604816 34.653669495350101 8.5120250343417112 #
point $-1 -55.480208746604816 -34.653669495350101 8.5120250343417112 #
straight-curve $-1 55.480208746604816 -34.653669495350101 0 0 0 -1 I I #
straight-curve $-1 55.480208746604816 34.653669495350101 0 0 0 -1 I I #
loop $-1 $-1 $300 $294 #
plane-surface $-1 0 -34.653669495350101 0 0 1 0 0 0 1 forward_v I I I I #
coedge $-1 $311 $302 $298 $395 forward $295 $-1 #
edge $-1 $399 -19.057204459732972 $306 -12.135725611501291 $297 $442 forward 7 unknown #
edge $-1 $307 12.135725611501291 $398 19.057204459732972 $393 $443 forward 7 unknown #
coedge $-1 $309 $300 $314 $408 reversed $391 $-1 #
coedge $-1 $300 $309 $311 $406 reversed $391 $-1 #
vertex $-1 $406 $444 #
vertex $-1 $301 $445 #
straight-curve $-1 -38.456158677921394 -34.653669495350101 0 0 0 1 I I #
straight-curve $-1 -19.978079338960697 -27.732190647118422 -8.5120250343417112 1 0 0 I I #
straight-curve $-1 -19.978079338960697 -27.732190647118422 8.5120250343417112 -1 0 0 I I #
point $-1 -38.456158677921394 -27.732190647118422 8.5120250343417112 #
point $-1 -38.456158677921394 -27.732190647118422 -8.5120250343417112 #
straight-curve $-1 -41.456158677921394 -34.653669495350101 0 0 0 -1 I I #
edge $-1 $398 38.456158677921394 $312 41.456158677921394 $397 $446 forward 7 unknown #
point $-1 -41.456158677921394 -34.653669495350101 -8.5120250343417112 #
edge $-1 $315 -41.456158677921394 $399 -38.456158677921394 $396 $447 forward 7 unknown #
point $-1 -41.456158677921394 -34.653669495350101 8.5120250343417112 #
edge $-1 $411 72.073042512404754 $414 75.739525351421548 $320 $448 forward 7 unknown #
vertex $-1 $334 $449 #
straight-curve $-1 20.901790331142614 -27.732190647118422 8.5120250343417183 1 0 0 I I #
edge $-1 $414 -18.341410219777448 $331 -0.44015063490450146 $330 $450 forward 7 unknown #
vertex $-1 $413 $451 #
straight-curve $-1 -29.520401744638988 -27.732190647118422 76.16952460224914 -0.76604443648966558 0 0.64278761758704617 I I #
point $-1 51.110664742541445 -27.732190647118422 8.5120250343417183 #
point $-1 55.480208746604816 -9.830931062245476 4.8455421953249243 #
straight-curve $-1 55.480208746604816 0 8.5120250343417112 0 1 0 I I #
vertex $-1 $337 $452 #
point $-1 52.414581896438499 -24.151938730143833 4.0732978992630331 #
vertex $-1 $341 $453 #
point $-1 52.414581896438499 -18.781560854681949 4.0732978992630331 #
vertex $-1 $345 $454 #
point $-1 52.414581896438499 -13.411182979220065 4.0732978992630331 #
edge $-1 $426 40.485262307433565 $429 46.11435374887548 $350 $455 forward 7 unknown #
vertex $-1 $364 $456 #
straight-curve $-1 -56.314524661869143 -8.2861417049885588 8.5120250343417112 -1 0 0 I I #
edge $-1 $429 1.3991839543704945 $361 12.374731546865634 $360 $457 forward 7 unknown #
vertex $-1 $428 $458 #
straight-curve $-1 -55.480208746604809 -8.2861417049885588 2.8829335928998034 0.85716729658548041 0 0.51503808176128008 I I #
point $-1 -46.111827525952378 -8.2861417049885588 8.5120250343417112 #
point $-1 -55.480208746604816 -19.261689297483699 2.882933592899799 #
straight-curve $-1 -55.480208746604816 0 8.5120250343417112 0 -1 0 I I #
vertex $-1 $367 $459 #
point $-1 -48.992725553415575 -16.125818556770803 4.6379005222056815 #
vertex $-1 $371 $460 #
point $-1 -48.992725553415575 -11.422012445701455 4.6379005222056815 #
straight-curve $-1 -55.480208746604816 34.653669495350101 0 0 0 -1 I I #
point $-1 -55.480208746604816 -34.653669495350101 -8.5120250343417112 #
straight-curve $-1 -55.480208746604816 0 -8.5120250343417112 0 1 0 I I #
point $-1 -55.480208746604816 34.653669495350101 -8.5120250343417112 #
straight-curve $-1 -38.456158677921394 -15.596465035617131 8.5120250343417112 0 1 0 I I #
straight-curve $-1 -38.456158677921394 -15.596465035617131 -8.5120250343417112 0 -1 0 I I #
point $-1 -38.456158677921394 -34.653669495350101 -8.5120250343417112 #
point $-1 -38.456158677921394 -34.653669495350101 8.5120250343417112 #
straight-curve $-1 0 -34.653669495350101 -8.5120250343417112 -1 0 0 I I #
straight-curve $-1 0 -34.653669495350101 8.5120250343417112 1 0 0 I I #
straight-curve $-1 55.480208746604816 -27.732190647118422 80.585067546746473 0 0 -1 I I #
point $-1 55.480208746604816 -27.732190647118422 8.5120250343417112 #
straight-curve $-1 55.480208746604809 -9.3907804273409745 4.8455421953249314 0 1 0 I I #
point $-1 55.480208746604816 -27.732190647118422 4.8455421953249243 #
point $-1 51.005749842361787 -24.151938730143833 3.9500410803604136 #
point $-1 51.005749842361787 -18.781560854681949 3.9500410803604136 #
point $-1 51.005749842361787 -13.411182979220065 3.9500410803604136 #
straight-curve $-1 -55.480208746604816 -8.2861417049885588 48.997287341775277 0 0 -1 I I #
point $-1 -55.480208746604816 -8.2861417049885588 8.5120250343417112 #
straight-curve $-1 -55.480208746604816 -6.8869577506180644 2.8829335928998017 0 -1 0 I I #
point $-1 -55.480208746604816 -8.2861417049885588 2.882933592899799 #
point $-1 -49.334854768239779 -16.125818556770803 3.2656951438589195 #
point $-1 -49.334854768239779 -11.422012445701455 3.2656951438589195 #
End-of-ACIS-data 