500 0 17 0           
7 Unknown 11 ACIS 5.0 NT 24 Thu Mar 25 15:21:17 1999 
-1 9.9999999999999995e-007 1e-010 
body $-1 $17 $-1 $18 #
body $-1 $19 $-1 $20 #
body $-1 $21 $-1 $22 #
body $-1 $23 $-1 $24 #
body $-1 $25 $-1 $26 #
body $-1 $27 $-1 $28 #
body $-1 $29 $-1 $30 #
body $-1 $31 $-1 $32 #
body $-1 $33 $-1 $34 #
body $-1 $35 $-1 $36 #
body $-1 $37 $-1 $38 #
body $-1 $39 $-1 $40 #
body $-1 $41 $-1 $42 #
body $-1 $43 $-1 $44 #
body $-1 $45 $-1 $46 #
body $-1 $47 $-1 $48 #
body $-1 $49 $-1 $50 #
lump $-1 $-1 $51 $0 #
transform $-1 1 0 0 0 1 0 0 0 1 78.381298257393112 37.811853989820207 10.264371472946923 1 rotate no_reflect no_shear #
lump $-1 $-1 $52 $1 #
transform $-1 1 0 0 0 1 0 0 0 1 78.381298257393112 37.811853989820207 10.264371472946923 1 rotate no_reflect no_shear #
lump $-1 $-1 $53 $2 #
transform $-1 1 0 0 0 1 0 0 0 1 78.381298257393112 37.811853989820207 10.264371472946923 1 rotate no_reflect no_shear #
lump $-1 $-1 $54 $3 #
transform $-1 1 0 0 0 1 0 0 0 1 78.381298257393112 37.811853989820207 10.264371472946923 1 rotate no_reflect no_shear #
lump $-1 $-1 $55 $4 #
transform $-1 1 0 0 0 1 0 0 0 1 78.381298257393112 37.811853989820207 10.264371472946923 1 rotate no_reflect no_shear #
lump $-1 $-1 $56 $5 #
transform $-1 1 0 0 0 1 0 0 0 1 78.381298257393112 37.811853989820207 10.264371472946923 1 rotate no_reflect no_shear #
lump $-1 $-1 $57 $6 #
transform $-1 1 0 0 0 1 0 0 0 1 78.381298257393112 37.811853989820207 10.264371472946923 1 rotate no_reflect no_shear #
lump $-1 $-1 $58 $7 #
transform $-1 1 0 0 0 1 0 0 0 1 78.381298257393112 37.811853989820207 10.264371472946923 1 rotate no_reflect no_shear #
lump $-1 $-1 $59 $8 #
transform $-1 1 0 0 0 1 0 0 0 1 78.381298257393112 37.811853989820207 10.264371472946923 1 rotate no_reflect no_shear #
lump $-1 $-1 $60 $9 #
transform $-1 1 0 0 0 1 0 0 0 1 78.381298257393112 37.811853989820207 10.264371472946923 1 rotate no_reflect no_shear #
lump $-1 $-1 $61 $10 #
transform $-1 1 0 0 0 1 0 0 0 1 78.381298257393112 37.811853989820207 10.264371472946923 1 rotate no_reflect no_shear #
lump $-1 $-1 $62 $11 #
transform $-1 1 0 0 0 1 0 0 0 1 78.381298257393112 37.811853989820207 10.264371472946923 1 rotate no_reflect no_shear #
lump $-1 $-1 $63 $12 #
transform $-1 1 0 0 0 1 0 0 0 1 78.381298257393112 37.811853989820207 10.264371472946923 1 rotate no_reflect no_shear #
lump $-1 $-1 $64 $13 #
transform $-1 1 0 0 0 1 0 0 0 1 78.381298257393112 37.811853989820207 10.264371472946923 1 rotate no_reflect no_shear #
lump $-1 $-1 $65 $14 #
transform $-1 1 0 0 0 1 0 0 0 1 78.381298257393112 37.811853989820207 10.264371472946923 1 rotate no_reflect no_shear #
lump $-1 $-1 $66 $15 #
transform $-1 1 0 0 0 1 0 0 0 1 78.381298257393112 37.811853989820207 10.264371472946923 1 rotate no_reflect no_shear #
lump $-1 $-1 $67 $16 #
transform $-1 1 0 0 0 1 0 0 0 1 78.381298257393112 37.811853989820207 10.264371472946923 1 rotate no_reflect no_shear #
shell $-1 $-1 $-1 $68 $-1 $17 #
shell $-1 $-1 $-1 $69 $-1 $19 #
shell $-1 $-1 $-1 $70 $-1 $21 #
shell $-1 $-1 $-1 $71 $-1 $23 #
shell $-1 $-1 $-1 $72 $-1 $25 #
shell $-1 $-1 $-1 $73 $-1 $27 #
shell $-1 $-1 $-1 $74 $-1 $29 #
shell $-1 $-1 $-1 $75 $-1 $31 #
shell $-1 $-1 $-1 $76 $-1 $33 #
shell $-1 $-1 $-1 $77 $-1 $35 #
shell $-1 $-1 $-1 $78 $-1 $37 #
shell $-1 $-1 $-1 $79 $-1 $39 #
shell $-1 $-1 $-1 $80 $-1 $41 #
shell $-1 $-1 $-1 $81 $-1 $43 #
shell $-1 $-1 $-1 $82 $-1 $45 #
shell $-1 $-1 $-1 $83 $-1 $47 #
shell $-1 $-1 $-1 $84 $-1 $49 #
face $-1 $85 $86 $51 $-1 $87 forward single #
face $-1 $88 $89 $52 $-1 $90 forward single #
face $-1 $91 $92 $53 $-1 $93 forward single #
face $-1 $94 $95 $54 $-1 $96 reversed single #
face $-1 $97 $98 $55 $-1 $99 forward single #
face $-1 $100 $101 $56 $-1 $102 forward single #
face $-1 $103 $104 $57 $-1 $105 reversed single #
face $-1 $106 $107 $58 $-1 $108 forward single #
face $-1 $109 $110 $59 $-1 $111 forward single #
face $-1 $112 $113 $60 $-1 $114 reversed single #
face $-1 $115 $116 $61 $-1 $117 forward single #
face $-1 $118 $119 $62 $-1 $120 forward single #
face $-1 $121 $122 $63 $-1 $123 forward single #
face $-1 $124 $125 $64 $-1 $126 reversed single #
face $-1 $127 $128 $65 $-1 $129 forward single #
face $-1 $130 $131 $66 $-1 $132 forward single #
face $-1 $133 $134 $67 $-1 $135 forward single #
face $-1 $136 $137 $51 $-1 $138 reversed single #
loop $-1 $-1 $139 $68 #
plane-surface $-1 0 0 10.264371472946923 0 0 1 1 0 0 forward_v I I I I #
face $-1 $140 $141 $52 $-1 $142 forward single #
loop $-1 $-1 $143 $69 #
plane-surface $-1 0 -37.811853989820207 0 0 1 0 0 0 1 forward_v I I I I #
face $-1 $144 $145 $53 $-1 $146 reversed single #
loop $-1 $-1 $147 $70 #
plane-surface $-1 0 37.811853989820207 0 0 -1 0 0 0 -1 forward_v I I I I #
face $-1 $148 $149 $54 $-1 $150 reversed single #
loop $-1 $-1 $151 $71 #
plane-surface $-1 62.916584036493063 -5.8079006558639321 223.35299721837373 0 -1 0 -0.6560590369687036 0 -0.75470957328743171 forward_v I I I I #
face $-1 $152 $153 $55 $-1 $154 forward single #
loop $-1 $155 $156 $72 #
cone-surface $-1 73.204217124685556 -12.505071214833073 5.6130629826001348 -0.6560590369687036 0 -0.75470957328743171 0.75470957328743171 0 -0.6560590369687036 1 I I 0 1 1 forward I I I I #
face $-1 $157 $158 $56 $-1 $159 forward single #
loop $-1 $160 $161 $73 #
cone-surface $-1 73.204217124685556 -8.4867688794515885 5.6130629826001348 -0.6560590369687036 0 -0.75470957328743171 0.75470957328743171 0 -0.6560590369687036 1 I I 0 1 1 forward I I I I #
face $-1 $162 $163 $57 $-1 $164 reversed single #
loop $-1 $-1 $165 $74 #
plane-surface $-1 62.916584036493063 22.439828328205781 223.35299721837373 0 -1 0 -0.6560590369687036 0 -0.75470957328743171 forward_v I I I I #
face $-1 $166 $167 $58 $-1 $168 forward single #
loop $-1 $169 $170 $75 #
cone-surface $-1 73.204217124685556 15.742657769236644 5.6130629826001348 -0.6560590369687036 0 -0.75470957328743171 0.75470957328743171 0 -0.6560590369687036 1 I I 0 1 1 forward I I I I #
face $-1 $171 $172 $59 $-1 $173 forward single #
loop $-1 $174 $175 $76 #
cone-surface $-1 73.204217124685556 19.760960104618121 5.6130629826001348 -0.6560590369687036 0 -0.75470957328743171 0.75470957328743171 0 -0.6560590369687036 1 I I 0 1 1 forward I I I I #
face $-1 $176 $177 $60 $-1 $178 reversed single #
loop $-1 $-1 $179 $77 #
plane-surface $-1 -168.29663087830119 -22.800442619761977 131.26897661116084 0 1 0 -0.57357644374324357 0 0.81915203911291934 forward_v I I I I #
face $-1 $180 $181 $61 $-1 $182 forward single #
loop $-1 $183 $184 $78 #
cone-surface $-1 -72.018161104402239 -20.268919238282976 5.0274667164831701 0.57357644374324357 0 -0.81915203911291934 0.81915203911291934 0 0.57357644374324357 1 I I 0 1 1 forward I I I I #
face $-1 $185 $186 $62 $-1 $187 forward single #
loop $-1 $188 $189 $79 #
cone-surface $-1 -72.018161104402239 -16.471634166064476 5.0274667164831701 0.57357644374324357 0 -0.81915203911291934 0.81915203911291934 0 0.57357644374324357 1 I I 0 1 1 forward I I I I #
face $-1 $190 $191 $63 $-1 $192 forward single #
loop $-1 $193 $194 $80 #
cone-surface $-1 -72.018161104402239 -12.674349093845976 5.0274667164831701 0.57357644374324357 0 -0.81915203911291934 0.81915203911291934 0 0.57357644374324357 1 I I 0 1 1 forward I I I I #
face $-1 $195 $196 $64 $-1 $197 reversed single #
loop $-1 $-1 $198 $81 #
plane-surface $-1 -168.29663087830119 5.4472863643077334 131.26897661116084 0 1 0 -0.57357644374324357 0 0.81915203911291934 forward_v I I I I #
face $-1 $199 $200 $65 $-1 $201 forward single #
loop $-1 $202 $203 $82 #
cone-surface $-1 -72.018161104402239 7.9788097457867337 5.0274667164831701 0.57357644374324357 0 -0.81915203911291934 0.81915203911291934 0 0.57357644374324357 1 I I 0 1 1 forward I I I I #
face $-1 $204 $205 $66 $-1 $206 forward single #
loop $-1 $207 $208 $83 #
cone-surface $-1 -72.018161104402239 11.776094818005234 5.0274667164831701 0.57357644374324357 0 -0.81915203911291934 0.81915203911291934 0 0.57357644374324357 1 I I 0 1 1 forward I I I I #
face $-1 $209 $210 $67 $-1 $211 forward single #
loop $-1 $212 $213 $84 #
cone-surface $-1 -72.018161104402239 15.573379890223734 5.0274667164831701 0.57357644374324357 0 -0.81915203911291934 0.81915203911291934 0 0.57357644374324357 1 I I 0 1 1 forward I I I I #
face $-1 $214 $215 $51 $-1 $216 reversed single #
loop $-1 $-1 $217 $85 #
plane-surface $-1 0 0 -10.264371472946923 0 0 1 1 0 0 forward_v I I I I #
coedge $-1 $218 $219 $220 $221 forward $86 $-1 #
face $-1 $222 $223 $52 $-1 $224 reversed single #
loop $-1 $-1 $225 $88 #
plane-surface $-1 0 0 10.264371472946923 0 0 1 1 0 0 forward_v I I I I #
coedge $-1 $226 $227 $228 $229 forward $89 $-1 #
face $-1 $230 $231 $53 $-1 $232 reversed single #
loop $-1 $-1 $233 $91 #
plane-surface $-1 78.381298257393112 0 0 -1 0 0 0 0 1 forward_v I I I I #
coedge $-1 $234 $235 $236 $237 forward $92 $-1 #
face $-1 $238 $239 $54 $-1 $240 reversed single #
loop $-1 $-1 $241 $94 #
plane-surface $-1 -39.928934065711033 -10.495920047142331 105.04276489526958 0.6560590369687036 0 0.75470957328743171 0.75470957328743171 0 -0.6560590369687036 forward_v I I I I #
coedge $-1 $242 $243 $244 $245 reversed $95 $-1 #
face $-1 $-1 $246 $55 $-1 $247 forward single #
loop $-1 $248 $249 $97 #
cone-surface $-1 72.339189058851147 -12.505071214833073 4.6179620455503532 -0.6560590369687036 0 -0.75470957328743171 0.37735478664371586 0 -0.3280295184843518 1 I I -0.70710678118654746 0.70710678118654746 0.5 forward I I I I #
loop $-1 $-1 $250 $72 #
coedge $-1 $156 $156 $251 $252 reversed $98 $-1 #
face $-1 $-1 $253 $56 $-1 $254 forward single #
loop $-1 $255 $256 $100 #
cone-surface $-1 72.339189058851147 -8.4867688794515885 4.6179620455503532 -0.6560590369687036 0 -0.75470957328743171 0.37735478664371586 0 -0.3280295184843518 1 I I -0.70710678118654746 0.70710678118654746 0.5 forward I I I I #
loop $-1 $-1 $257 $73 #
coedge $-1 $161 $161 $258 $259 reversed $101 $-1 #
face $-1 $260 $261 $57 $-1 $262 reversed single #
loop $-1 $-1 $263 $103 #
plane-surface $-1 -39.928934065711033 17.751808936927382 105.04276489526958 0.6560590369687036 0 0.75470957328743171 0.75470957328743171 0 -0.6560590369687036 forward_v I I I I #
coedge $-1 $264 $265 $266 $267 reversed $104 $-1 #
face $-1 $-1 $268 $58 $-1 $269 forward single #
loop $-1 $270 $271 $106 #
cone-surface $-1 72.339189058851147 15.742657769236644 4.6179620455503532 -0.6560590369687036 0 -0.75470957328743171 0.37735478664371586 0 -0.3280295184843518 1 I I -0.70710678118654746 0.70710678118654746 0.5 forward I I I I #
loop $-1 $-1 $272 $75 #
coedge $-1 $170 $170 $273 $274 reversed $107 $-1 #
face $-1 $-1 $275 $59 $-1 $276 forward single #
loop $-1 $277 $278 $109 #
cone-surface $-1 72.339189058851147 19.760960104618121 4.6179620455503532 -0.6560590369687036 0 -0.75470957328743171 0.37735478664371586 0 -0.3280295184843518 1 I I -0.70710678118654746 0.70710678118654746 0.5 forward I I I I #
loop $-1 $-1 $279 $76 #
coedge $-1 $175 $175 $280 $281 reversed $110 $-1 #
face $-1 $282 $283 $60 $-1 $284 reversed single #
loop $-1 $-1 $285 $112 #
plane-surface $-1 -78.381298257393112 -16.471634166064476 2.8565760194378811 -0.57357644374324357 0 0.81915203911291934 0.81915203911291934 0 0.57357644374324357 forward_v I I I I #
coedge $-1 $286 $287 $288 $289 reversed $113 $-1 #
face $-1 $-1 $290 $61 $-1 $291 forward single #
loop $-1 $292 $293 $115 #
cone-surface $-1 -70.657949783582794 -20.268919238282976 3.0848836672174773 0.57357644374324357 0 -0.81915203911291934 0.40957601955645967 0 0.28678822187162178 1 I I -0.70710678118654746 0.70710678118654746 0.5 forward I I I I #
loop $-1 $-1 $294 $78 #
coedge $-1 $184 $184 $295 $296 reversed $116 $-1 #
face $-1 $-1 $297 $62 $-1 $298 forward single #
loop $-1 $299 $300 $118 #
cone-surface $-1 -70.657949783582794 -16.471634166064476 3.0848836672174773 0.57357644374324357 0 -0.81915203911291934 0.40957601955645967 0 0.28678822187162178 1 I I -0.70710678118654746 0.70710678118654746 0.5 forward I I I I #
loop $-1 $-1 $301 $79 #
coedge $-1 $189 $189 $302 $303 reversed $119 $-1 #
face $-1 $-1 $304 $63 $-1 $305 forward single #
loop $-1 $306 $307 $121 #
cone-surface $-1 -70.657949783582794 -12.674349093845976 3.0848836672174773 0.57357644374324357 0 -0.81915203911291934 0.40957601955645967 0 0.28678822187162178 1 I I -0.70710678118654746 0.70710678118654746 0.5 forward I I I I #
loop $-1 $-1 $308 $80 #
coedge $-1 $194 $194 $309 $310 reversed $122 $-1 #
face $-1 $311 $312 $64 $-1 $313 reversed single #
loop $-1 $-1 $314 $124 #
plane-surface $-1 -78.381298257393112 11.776094818005234 2.8565760194378811 -0.57357644374324357 0 0.81915203911291934 0.81915203911291934 0 0.57357644374324357 forward_v I I I I #
coedge $-1 $315 $316 $317 $318 reversed $125 $-1 #
face $-1 $-1 $319 $65 $-1 $320 forward single #
loop $-1 $321 $322 $127 #
cone-surface $-1 -70.657949783582794 7.9788097457867337 3.0848836672174773 0.57357644374324357 0 -0.81915203911291934 0.40957601955645967 0 0.28678822187162178 1 I I -0.70710678118654746 0.70710678118654746 0.5 forward I I I I #
loop $-1 $-1 $323 $82 #
coedge $-1 $203 $203 $324 $325 reversed $128 $-1 #
face $-1 $-1 $326 $66 $-1 $327 forward single #
loop $-1 $328 $329 $130 #
cone-surface $-1 -70.657949783582794 11.776094818005234 3.0848836672174773 0.57357644374324357 0 -0.81915203911291934 0.40957601955645967 0 0.28678822187162178 1 I I -0.70710678118654746 0.70710678118654746 0.5 forward I I I I #
loop $-1 $-1 $330 $83 #
coedge $-1 $208 $208 $331 $332 reversed $131 $-1 #
face $-1 $-1 $333 $67 $-1 $334 forward single #
loop $-1 $335 $336 $133 #
cone-surface $-1 -70.657949783582794 15.573379890223734 3.0848836672174773 0.57357644374324357 0 -0.81915203911291934 0.40957601955645967 0 0.28678822187162178 1 I I -0.70710678118654746 0.70710678118654746 0.5 forward I I I I #
loop $-1 $-1 $337 $84 #
coedge $-1 $213 $213 $338 $339 reversed $134 $-1 #
face $-1 $340 $341 $51 $-1 $342 reversed single #
loop $-1 $-1 $343 $136 #
plane-surface $-1 0 -37.811853989820207 0 0 1 0 0 0 1 forward_v I I I I #
coedge $-1 $344 $345 $346 $347 forward $137 $-1 #
coedge $-1 $348 $139 $349 $350 forward $86 $-1 #
coedge $-1 $139 $348 $351 $352 forward $86 $-1 #
coedge $-1 $353 $354 $139 $221 reversed $355 $-1 #
edge $-1 $356 -37.811853989820207 $357 37.811853989820207 $220 $358 forward 7 unknown #
face $-1 $359 $360 $52 $-1 $361 reversed single #
loop $-1 $-1 $362 $140 #
plane-surface $-1 -78.381298257393112 0 0 1 0 0 0 0 -1 forward_v I I I I #
coedge $-1 $363 $364 $365 $366 forward $141 $-1 #
coedge $-1 $365 $143 $362 $367 reversed $89 $-1 #
coedge $-1 $143 $365 $368 $369 reversed $89 $-1 #
coedge $-1 $370 $371 $143 $229 reversed $360 $-1 #
edge $-1 $372 -78.381298257393112 $373 78.381298257393112 $228 $374 forward 7 unknown #
face $-1 $375 $376 $53 $-1 $377 reversed single #
loop $-1 $-1 $378 $144 #
plane-surface $-1 0 42.593916492695456 7.12926961511595 0 0 1 1 0 0 forward_v I I I I #
coedge $-1 $379 $380 $234 $381 forward $145 $-1 #
coedge $-1 $382 $147 $233 $381 reversed $92 $-1 #
coedge $-1 $147 $382 $383 $384 reversed $92 $-1 #
coedge $-1 $385 $378 $147 $237 reversed $231 $-1 #
edge $-1 $386 -78.381298257393112 $387 78.381298257393112 $236 $388 forward 7 unknown #
face $-1 $389 $390 $54 $-1 $391 forward single #
loop $-1 $-1 $392 $148 #
plane-surface $-1 62.916584036493063 -15.18393943842073 223.35299721837373 0 1 0 0.6560590369687036 0 0.75470957328743171 forward_v I I I I #
coedge $-1 $393 $394 $395 $396 reversed $149 $-1 #
coedge $-1 $243 $151 $397 $398 reversed $95 $-1 #
coedge $-1 $151 $242 $393 $399 reversed $95 $-1 #
coedge $-1 $395 $400 $151 $245 forward $390 $-1 #
edge $-1 $401 -46.923006239146581 $402 -37.642841068431515 $244 $403 forward 7 unknown #
loop $-1 $-1 $251 $152 #
plane-surface $-1 -39.928934065711033 -10.495920047142331 105.04276489526958 0.6560590369687036 0 0.75470957328743171 0.75470957328743171 0 -0.6560590369687036 forward_v I I I I #
loop $-1 $-1 $404 $97 #
coedge $-1 $249 $249 $250 $405 reversed $153 $-1 #
coedge $-1 $250 $250 $249 $405 forward $155 $-1 #
coedge $-1 $251 $251 $156 $252 forward $246 $-1 #
edge $-1 $406 0 $406 6.2831853071796004 $251 $407 forward 7 unknown #
loop $-1 $-1 $258 $157 #
plane-surface $-1 -39.928934065711033 -10.495920047142331 105.04276489526958 0.6560590369687036 0 0.75470957328743171 0.75470957328743171 0 -0.6560590369687036 forward_v I I I I #
loop $-1 $-1 $408 $100 #
coedge $-1 $256 $256 $257 $409 reversed $158 $-1 #
coedge $-1 $257 $257 $256 $409 forward $160 $-1 #
coedge $-1 $258 $258 $161 $259 forward $253 $-1 #
edge $-1 $410 0 $410 6.2831853071796004 $258 $411 forward 7 unknown #
face $-1 $412 $413 $57 $-1 $414 reversed single #
loop $-1 $-1 $415 $162 #
plane-surface $-1 62.916584036493063 13.063789545648984 223.35299721837373 0 1 0 0.6560590369687036 0 0.75470957328743171 forward_v I I I I #
coedge $-1 $416 $417 $418 $419 reversed $163 $-1 #
coedge $-1 $265 $165 $420 $421 reversed $104 $-1 #
coedge $-1 $165 $264 $416 $422 reversed $104 $-1 #
coedge $-1 $418 $423 $165 $267 forward $424 $-1 #
edge $-1 $425 -46.923006239146581 $426 -37.642841068431515 $266 $427 forward 7 unknown #
loop $-1 $-1 $273 $166 #
plane-surface $-1 -39.928934065711033 17.751808936927382 105.04276489526958 0.6560590369687036 0 0.75470957328743171 0.75470957328743171 0 -0.6560590369687036 forward_v I I I I #
loop $-1 $-1 $428 $106 #
coedge $-1 $271 $271 $272 $429 reversed $167 $-1 #
coedge $-1 $272 $272 $271 $429 forward $169 $-1 #
coedge $-1 $273 $273 $170 $274 forward $268 $-1 #
edge $-1 $430 0 $430 6.2831853071796004 $273 $431 forward 7 unknown #
loop $-1 $-1 $280 $171 #
plane-surface $-1 -39.928934065711033 17.751808936927382 105.04276489526958 0.6560590369687036 0 0.75470957328743171 0.75470957328743171 0 -0.6560590369687036 forward_v I I I I #
loop $-1 $-1 $432 $109 #
coedge $-1 $278 $278 $279 $433 reversed $172 $-1 #
coedge $-1 $279 $279 $278 $433 forward $174 $-1 #
coedge $-1 $280 $280 $175 $281 forward $275 $-1 #
edge $-1 $434 0 $434 6.2831853071796004 $280 $435 forward 7 unknown #
face $-1 $436 $437 $60 $-1 $438 reversed single #
loop $-1 $-1 $439 $176 #
plane-surface $-1 -168.29663087830119 -10.142825712366974 131.26897661116084 0 -1 0 0.57357644374324357 0 -0.81915203911291934 forward_v I I I I #
coedge $-1 $440 $441 $442 $443 reversed $177 $-1 #
coedge $-1 $287 $179 $444 $445 reversed $113 $-1 #
coedge $-1 $179 $286 $440 $446 reversed $113 $-1 #
coedge $-1 $442 $447 $179 $289 forward $448 $-1 #
edge $-1 $449 5.7670171817574811 $450 16.346445289843601 $288 $451 forward 7 unknown #
loop $-1 $-1 $295 $180 #
plane-surface $-1 -78.381298257393112 -16.471634166064476 2.8565760194378811 -0.57357644374324357 0 0.81915203911291934 0.81915203911291934 0 0.57357644374324357 forward_v I I I I #
loop $-1 $-1 $452 $115 #
coedge $-1 $293 $293 $294 $453 reversed $181 $-1 #
coedge $-1 $294 $294 $293 $453 forward $183 $-1 #
coedge $-1 $295 $295 $184 $296 forward $290 $-1 #
edge $-1 $454 0 $454 6.2831853071796004 $295 $455 forward 7 unknown #
loop $-1 $-1 $302 $185 #
plane-surface $-1 -78.381298257393112 -16.471634166064476 2.8565760194378811 -0.57357644374324357 0 0.81915203911291934 0.81915203911291934 0 0.57357644374324357 forward_v I I I I #
loop $-1 $-1 $456 $118 #
coedge $-1 $300 $300 $301 $457 reversed $186 $-1 #
coedge $-1 $301 $301 $300 $457 forward $188 $-1 #
coedge $-1 $302 $302 $189 $303 forward $297 $-1 #
edge $-1 $458 0 $458 6.2831853071796004 $302 $459 forward 7 unknown #
loop $-1 $-1 $309 $190 #
plane-surface $-1 -78.381298257393112 -16.471634166064476 2.8565760194378811 -0.57357644374324357 0 0.81915203911291934 0.81915203911291934 0 0.57357644374324357 forward_v I I I I #
loop $-1 $-1 $460 $121 #
coedge $-1 $307 $307 $308 $461 reversed $191 $-1 #
coedge $-1 $308 $308 $307 $461 forward $193 $-1 #
coedge $-1 $309 $309 $194 $310 forward $304 $-1 #
edge $-1 $462 0 $462 6.2831853071796004 $309 $463 forward 7 unknown #
face $-1 $464 $465 $64 $-1 $466 forward single #
loop $-1 $-1 $467 $195 #
plane-surface $-1 -168.29663087830119 18.104903271702735 131.26897661116084 0 -1 0 0.57357644374324357 0 -0.81915203911291934 forward_v I I I I #
coedge $-1 $468 $469 $470 $471 reversed $196 $-1 #
coedge $-1 $316 $198 $472 $473 reversed $125 $-1 #
coedge $-1 $198 $315 $468 $474 reversed $125 $-1 #
coedge $-1 $470 $475 $198 $318 forward $465 $-1 #
edge $-1 $476 5.7670171817574811 $477 16.346445289843601 $317 $478 forward 7 unknown #
loop $-1 $-1 $324 $199 #
plane-surface $-1 -78.381298257393112 11.776094818005234 2.8565760194378811 -0.57357644374324357 0 0.81915203911291934 0.81915203911291934 0 0.57357644374324357 forward_v I I I I #
loop $-1 $-1 $479 $127 #
coedge $-1 $322 $322 $323 $480 reversed $200 $-1 #
coedge $-1 $323 $323 $322 $480 forward $202 $-1 #
coedge $-1 $324 $324 $203 $325 forward $319 $-1 #
edge $-1 $481 0 $481 6.2831853071796004 $324 $482 forward 7 unknown #
loop $-1 $-1 $331 $204 #
plane-surface $-1 -78.381298257393112 11.776094818005234 2.8565760194378811 -0.57357644374324357 0 0.81915203911291934 0.81915203911291934 0 0.57357644374324357 forward_v I I I I #
loop $-1 $-1 $483 $130 #
coedge $-1 $329 $329 $330 $484 reversed $205 $-1 #
coedge $-1 $330 $330 $329 $484 forward $207 $-1 #
coedge $-1 $331 $331 $208 $332 forward $326 $-1 #
edge $-1 $485 0 $485 6.2831853071796004 $331 $486 forward 7 unknown #
loop $-1 $-1 $338 $209 #
plane-surface $-1 -78.381298257393112 11.776094818005234 2.8565760194378811 -0.57357644374324357 0 0.81915203911291934 0.81915203911291934 0 0.57357644374324357 forward_v I I I I #
loop $-1 $-1 $487 $133 #
coedge $-1 $336 $336 $337 $488 reversed $210 $-1 #
coedge $-1 $337 $337 $336 $488 forward $212 $-1 #
coedge $-1 $338 $338 $213 $339 forward $333 $-1 #
edge $-1 $489 0 $489 6.2831853071796004 $338 $490 forward 7 unknown #
face $-1 $491 $492 $51 $-1 $493 reversed single #
loop $-1 $-1 $494 $214 #
plane-surface $-1 -78.381298257393112 0 0 1 0 0 0 0 -1 forward_v I I I I #
coedge $-1 $495 $351 $496 $497 forward $215 $-1 #
coedge $-1 $498 $217 $495 $499 forward $137 $-1 #
coedge $-1 $217 $498 $500 $501 forward $137 $-1 #
coedge $-1 $354 $353 $217 $347 reversed $355 $-1 #
edge $-1 $502 -37.811853989820207 $503 37.811853989820207 $346 $504 forward 7 unknown #
coedge $-1 $219 $218 $505 $506 forward $86 $-1 #
coedge $-1 $507 $508 $218 $350 reversed $492 $-1 #
edge $-1 $357 -78.381298257393112 $509 78.381298257393112 $349 $510 forward 7 unknown #
coedge $-1 $343 $511 $219 $352 reversed $215 $-1 #
edge $-1 $512 -78.381298257393112 $356 78.381298257393112 $351 $513 forward 7 unknown #
coedge $-1 $346 $220 $511 $514 forward $355 $-1 #
coedge $-1 $220 $346 $507 $515 reversed $355 $-1 #
loop $-1 $-1 $353 $491 #
vertex $-1 $221 $516 #
vertex $-1 $221 $517 #
straight-curve $-1 78.381298257393112 0 10.264371472946923 0 1 0 I I #
face $-1 $518 $519 $52 $-1 $520 reversed single #
loop $-1 $-1 $370 $222 #
plane-surface $-1 0 -42.593916492695456 7.12926961511595 0 0 1 1 0 0 forward_v I I I I #
coedge $-1 $521 $522 $226 $367 forward $223 $-1 #
coedge $-1 $523 $225 $522 $524 forward $141 $-1 #
coedge $-1 $225 $523 $525 $526 forward $141 $-1 #
coedge $-1 $227 $226 $225 $366 reversed $89 $-1 #
edge $-1 $527 -78.381298257393112 $528 78.381298257393112 $225 $529 forward 7 unknown #
edge $-1 $528 -10.264371472946923 $373 -7.12926961511595 $362 $530 forward 7 unknown #
coedge $-1 $525 $531 $227 $369 forward $532 $-1 #
edge $-1 $372 7.12926961511595 $527 10.264371472946923 $368 $533 forward 7 unknown #
coedge $-1 $534 $228 $531 $535 forward $360 $-1 #
coedge $-1 $228 $534 $521 $536 forward $360 $-1 #
vertex $-1 $369 $537 #
vertex $-1 $367 $538 #
straight-curve $-1 0 -37.811853989820207 7.12926961511595 -1 0 0 I I #
face $-1 $539 $540 $53 $-1 $541 forward single #
loop $-1 $-1 $542 $230 #
plane-surface $-1 0 47.375978995570705 8.6968205440314357 0 -1 0 0 0 -1 forward_v I I I I #
coedge $-1 $236 $543 $379 $544 forward $231 $-1 #
coedge $-1 $545 $233 $378 $544 reversed $145 $-1 #
coedge $-1 $233 $545 $546 $547 reversed $145 $-1 #
edge $-1 $548 -10.264371472946923 $387 -7.12926961511595 $233 $549 forward 7 unknown #
coedge $-1 $235 $234 $550 $551 reversed $92 $-1 #
coedge $-1 $552 $553 $235 $384 forward $554 $-1 #
edge $-1 $386 7.12926961511595 $555 10.264371472946923 $383 $556 forward 7 unknown #
coedge $-1 $543 $236 $553 $557 forward $231 $-1 #
vertex $-1 $384 $558 #
vertex $-1 $381 $559 #
straight-curve $-1 0 37.811853989820207 7.12926961511595 1 0 0 I I #
face $-1 $-1 $560 $54 $-1 $561 reversed single #
loop $-1 $-1 $244 $238 #
plane-surface $-1 0 0 10.264371472946923 0 0 1 1 0 0 forward_v I I I I #
coedge $-1 $562 $563 $564 $565 reversed $239 $-1 #
coedge $-1 $566 $241 $243 $399 forward $149 $-1 #
coedge $-1 $241 $566 $562 $567 forward $149 $-1 #
coedge $-1 $564 $244 $241 $396 forward $390 $-1 #
edge $-1 $402 0.55994063229276669 $568 9.9359794148495642 $395 $569 forward 7 unknown #
coedge $-1 $570 $571 $242 $398 forward $560 $-1 #
edge $-1 $572 -109.47925181612138 $401 -101.41212713623995 $397 $573 forward 7 unknown #
edge $-1 $402 144.46625697016952 $572 156.76259651478625 $243 $574 forward 7 unknown #
coedge $-1 $244 $564 $570 $575 forward $390 $-1 #
vertex $-1 $398 $576 #
vertex $-1 $245 $577 #
straight-curve $-1 31.458292018246532 -5.8079006558639321 10.26437147294692 -1 0 0 I I #
coedge $-1 $404 $404 $-1 $578 reversed $248 $-1 #
edge $-1 $579 0 $579 6.2831853071796004 $249 $580 forward 7 unknown #
vertex $-1 $252 $581 #
ellipse-curve $-1 73.741215672035594 -12.505071214833073 6.2308091330061828 0.6560590369687036 0 0.75470957328743171 0.75470957328743171 0 -0.6560590369687036 1 I I #
coedge $-1 $408 $408 $-1 $582 reversed $255 $-1 #
edge $-1 $583 0 $583 6.2831853071796004 $256 $584 forward 7 unknown #
vertex $-1 $259 $585 #
ellipse-curve $-1 73.741215672035594 -8.4867688794515885 6.2308091330061828 0.6560590369687036 0 0.75470957328743171 0.75470957328743171 0 -0.6560590369687036 1 I I #
face $-1 $-1 $424 $57 $-1 $586 forward single #
loop $-1 $-1 $587 $260 #
plane-surface $-1 78.381298257393112 0 0 -1 0 0 0 0 1 forward_v I I I I #
coedge $-1 $588 $589 $590 $591 reversed $261 $-1 #
coedge $-1 $592 $263 $265 $422 forward $163 $-1 #
coedge $-1 $263 $592 $588 $593 forward $163 $-1 #
coedge $-1 $590 $266 $263 $419 forward $424 $-1 #
edge $-1 $426 -13.56392385974209 $594 -4.1878850771852925 $418 $595 forward 7 unknown #
coedge $-1 $596 $597 $264 $421 forward $413 $-1 #
edge $-1 $598 -109.47925181612138 $425 -101.41212713623995 $420 $599 forward 7 unknown #
edge $-1 $426 144.46625697016952 $598 156.76259651478625 $265 $600 forward 7 unknown #
coedge $-1 $266 $590 $596 $601 forward $424 $-1 #
loop $-1 $-1 $590 $412 #
vertex $-1 $421 $602 #
vertex $-1 $267 $603 #
straight-curve $-1 31.458292018246532 22.439828328205781 10.26437147294692 -1 0 0 I I #
coedge $-1 $428 $428 $-1 $604 reversed $270 $-1 #
edge $-1 $605 0 $605 6.2831853071796004 $271 $606 forward 7 unknown #
vertex $-1 $274 $607 #
ellipse-curve $-1 73.741215672035594 15.742657769236644 6.2308091330061828 0.6560590369687036 0 0.75470957328743171 0.75470957328743171 0 -0.6560590369687036 1 I I #
coedge $-1 $432 $432 $-1 $608 reversed $277 $-1 #
edge $-1 $609 0 $609 6.2831853071796004 $278 $610 forward 7 unknown #
vertex $-1 $281 $611 #
ellipse-curve $-1 73.741215672035594 19.760960104618121 6.2308091330061828 0.6560590369687036 0 0.75470957328743171 0.75470957328743171 0 -0.6560590369687036 1 I I #
face $-1 $-1 $448 $60 $-1 $612 forward single #
loop $-1 $-1 $613 $282 #
plane-surface $-1 -78.381298257393112 0 0 1 0 0 0 0 -1 forward_v I I I I #
coedge $-1 $614 $615 $616 $617 reversed $283 $-1 #
coedge $-1 $618 $285 $287 $446 forward $177 $-1 #
coedge $-1 $285 $618 $614 $619 forward $177 $-1 #
coedge $-1 $616 $288 $285 $443 forward $448 $-1 #
edge $-1 $450 -14.564625536729739 $620 -1.9070086293347366 $442 $621 forward 7 unknown #
coedge $-1 $622 $623 $286 $445 forward $437 $-1 #
edge $-1 $624 -62.777912286142538 $449 -55.370116832633499 $444 $625 forward 7 unknown #
edge $-1 $450 -12.915097079588364 $624 0 $287 $626 forward 7 unknown #
coedge $-1 $288 $616 $622 $627 forward $448 $-1 #
loop $-1 $-1 $616 $436 #
vertex $-1 $445 $628 #
vertex $-1 $289 $629 #
straight-curve $-1 -84.148315439150593 -22.800442619761977 10.26437147294692 1 0 0 I I #
coedge $-1 $452 $452 $-1 $630 reversed $292 $-1 #
edge $-1 $631 0 $631 6.2831853071796004 $293 $632 forward 7 unknown #
vertex $-1 $296 $633 #
ellipse-curve $-1 -73.091584203350052 -20.268919238282976 6.5604737461924012 -0.57357644374324357 0 0.81915203911291934 0.81915203911291934 0 0.57357644374324357 1 I I #
coedge $-1 $456 $456 $-1 $634 reversed $299 $-1 #
edge $-1 $635 0 $635 6.2831853071796004 $300 $636 forward 7 unknown #
vertex $-1 $303 $637 #
ellipse-curve $-1 -73.091584203350052 -16.471634166064476 6.5604737461924012 -0.57357644374324357 0 0.81915203911291934 0.81915203911291934 0 0.57357644374324357 1 I I #
coedge $-1 $460 $460 $-1 $638 reversed $306 $-1 #
edge $-1 $639 0 $639 6.2831853071796004 $307 $640 forward 7 unknown #
vertex $-1 $310 $641 #
ellipse-curve $-1 -73.091584203350052 -12.674349093845976 6.5604737461924012 -0.57357644374324357 0 0.81915203911291934 0.81915203911291934 0 0.57357644374324357 1 I I #
face $-1 $-1 $642 $64 $-1 $643 reversed single #
loop $-1 $-1 $317 $311 #
plane-surface $-1 0 0 10.264371472946923 0 0 1 1 0 0 forward_v I I I I #
coedge $-1 $644 $645 $646 $647 reversed $312 $-1 #
coedge $-1 $648 $314 $316 $474 forward $196 $-1 #
coedge $-1 $314 $648 $644 $649 forward $196 $-1 #
coedge $-1 $646 $317 $314 $471 forward $465 $-1 #
edge $-1 $477 -0.44076104469488353 $650 12.216855862700118 $470 $651 forward 7 unknown #
coedge $-1 $652 $653 $315 $473 forward $642 $-1 #
edge $-1 $654 -62.777912286142538 $476 -55.370116832633499 $472 $655 forward 7 unknown #
edge $-1 $477 -12.915097079588364 $654 0 $316 $656 forward 7 unknown #
coedge $-1 $317 $646 $652 $657 forward $465 $-1 #
vertex $-1 $318 $658 #
vertex $-1 $318 $659 #
straight-curve $-1 -84.148315439150593 5.4472863643077334 10.26437147294692 1 0 0 I I #
coedge $-1 $479 $479 $-1 $660 reversed $321 $-1 #
edge $-1 $661 0 $661 6.2831853071796004 $322 $662 forward 7 unknown #
vertex $-1 $325 $663 #
ellipse-curve $-1 -73.091584203350052 7.9788097457867337 6.5604737461924012 -0.57357644374324357 0 0.81915203911291934 0.81915203911291934 0 0.57357644374324357 1 I I #
coedge $-1 $483 $483 $-1 $664 reversed $328 $-1 #
edge $-1 $665 0 $665 6.2831853071796004 $329 $666 forward 7 unknown #
vertex $-1 $332 $667 #
ellipse-curve $-1 -73.091584203350052 11.776094818005234 6.5604737461924012 -0.57357644374324357 0 0.81915203911291934 0.81915203911291934 0 0.57357644374324357 1 I I #
coedge $-1 $487 $487 $-1 $668 reversed $335 $-1 #
edge $-1 $669 0 $669 6.2831853071796004 $336 $670 forward 7 unknown #
vertex $-1 $339 $671 #
ellipse-curve $-1 -73.091584203350052 15.573379890223734 6.5604737461924012 -0.57357644374324357 0 0.81915203911291934 0.81915203911291934 0 0.57357644374324357 1 I I #
face $-1 $-1 $355 $51 $-1 $672 reversed single #
loop $-1 $-1 $507 $340 #
plane-surface $-1 0 37.811853989820207 0 0 -1 0 0 0 -1 forward_v I I I I #
coedge $-1 $673 $505 $508 $674 forward $341 $-1 #
coedge $-1 $511 $343 $344 $499 reversed $215 $-1 #
coedge $-1 $505 $673 $343 $497 reversed $341 $-1 #
edge $-1 $512 -10.264371472946923 $675 10.264371472946923 $496 $676 forward 7 unknown #
coedge $-1 $345 $344 $673 $677 forward $137 $-1 #
edge $-1 $503 -78.381298257393112 $675 78.381298257393112 $495 $678 forward 7 unknown #
coedge $-1 $508 $507 $345 $501 reversed $492 $-1 #
edge $-1 $679 -78.381298257393112 $502 78.381298257393112 $500 $680 forward 7 unknown #
vertex $-1 $347 $681 #
vertex $-1 $514 $682 #
straight-curve $-1 78.381298257393112 0 -10.264371472946923 0 -1 0 I I #
coedge $-1 $494 $496 $348 $506 reversed $341 $-1 #
edge $-1 $509 -37.811853989820207 $512 37.811853989820207 $505 $683 forward 7 unknown #
coedge $-1 $500 $349 $354 $515 forward $492 $-1 #
coedge $-1 $349 $500 $494 $674 reversed $492 $-1 #
vertex $-1 $350 $684 #
straight-curve $-1 0 37.811853989820207 10.264371472946923 -1 0 0 I I #
coedge $-1 $351 $495 $353 $514 reversed $215 $-1 #
vertex $-1 $506 $685 #
straight-curve $-1 0 -37.811853989820207 10.264371472946923 1 0 0 I I #
edge $-1 $356 -10.264371472946923 $503 10.264371472946923 $353 $686 forward 7 unknown #
edge $-1 $357 -10.264371472946923 $502 10.264371472946923 $354 $687 forward 7 unknown #
point $-1 78.381298257393112 -37.811853989820207 10.264371472946923 #
point $-1 78.381298257393112 37.811853989820207 10.264371472946923 #
face $-1 $-1 $532 $52 $-1 $688 reversed single #
loop $-1 $-1 $689 $359 #
plane-surface $-1 0 -47.375978995570705 8.6968205440314357 0 1 0 0 0 1 forward_v I I I I #
coedge $-1 $690 $362 $371 $536 reversed $223 $-1 #
coedge $-1 $362 $690 $363 $524 reversed $223 $-1 #
coedge $-1 $364 $363 $691 $692 forward $141 $-1 #
edge $-1 $528 37.811853989820207 $693 47.375978995570705 $522 $694 forward 7 unknown #
coedge $-1 $695 $368 $364 $526 reversed $532 $-1 #
edge $-1 $696 -47.375978995570705 $527 -37.811853989820207 $525 $697 forward 7 unknown #
vertex $-1 $369 $698 #
vertex $-1 $524 $699 #
straight-curve $-1 0 -37.811853989820207 10.264371472946923 -1 0 0 I I #
straight-curve $-1 -78.381298257393112 -37.811853989820207 0 0 0 -1 I I #
coedge $-1 $368 $695 $370 $535 reversed $532 $-1 #
loop $-1 $-1 $368 $518 #
straight-curve $-1 78.381298257393112 -37.811853989820207 0 0 0 1 I I #
coedge $-1 $371 $370 $700 $701 forward $360 $-1 #
edge $-1 $372 -4.7820625028752488 $702 4.7820625028752488 $531 $703 forward 7 unknown #
edge $-1 $704 -4.7820625028752488 $373 4.7820625028752488 $521 $705 forward 7 unknown #
point $-1 78.381298257393112 -37.811853989820207 7.12926961511595 #
point $-1 -78.381298257393112 -37.811853989820207 7.12926961511595 #
face $-1 $-1 $554 $53 $-1 $706 reversed single #
loop $-1 $-1 $550 $375 #
plane-surface $-1 0 0 10.264371472946923 0 0 1 1 0 0 forward_v I I I I #
coedge $-1 $707 $708 $545 $709 forward $376 $-1 #
coedge $-1 $378 $385 $707 $710 forward $231 $-1 #
edge $-1 $711 -4.7820625028752488 $387 4.7820625028752488 $379 $712 forward 7 unknown #
coedge $-1 $380 $379 $542 $709 reversed $145 $-1 #
coedge $-1 $713 $550 $380 $547 forward $540 $-1 #
edge $-1 $548 37.811853989820207 $714 47.375978995570705 $380 $715 forward 7 unknown #
vertex $-1 $547 $716 #
straight-curve $-1 78.381298257393112 37.811853989820207 0 0 0 -1 I I #
coedge $-1 $546 $717 $382 $551 forward $540 $-1 #
edge $-1 $555 -78.381298257393112 $548 78.381298257393112 $550 $718 forward 7 unknown #
coedge $-1 $719 $383 $717 $720 reversed $554 $-1 #
coedge $-1 $383 $719 $385 $557 reversed $554 $-1 #
loop $-1 $-1 $383 $539 #
vertex $-1 $384 $721 #
straight-curve $-1 -78.381298257393112 37.811853989820207 0 0 0 1 I I #
edge $-1 $386 -4.7820625028752488 $722 4.7820625028752488 $553 $723 forward 7 unknown #
point $-1 -78.381298257393112 37.811853989820207 7.12926961511595 #
point $-1 78.381298257393112 37.811853989820207 7.12926961511595 #
loop $-1 $-1 $397 $389 #
plane-surface $-1 78.381298257393112 0 0 -1 0 0 0 0 1 forward_v I I I I #
coedge $-1 $563 $392 $394 $567 reversed $239 $-1 #
coedge $-1 $392 $562 $724 $725 reversed $239 $-1 #
coedge $-1 $400 $395 $392 $565 forward $390 $-1 #
edge $-1 $568 37.642841068431515 $726 46.923006239146581 $564 $727 forward 7 unknown #
coedge $-1 $394 $393 $571 $728 reversed $149 $-1 #
edge $-1 $729 -156.76259651478625 $568 -144.46625697016952 $562 $730 forward 7 unknown #
vertex $-1 $396 $731 #
straight-curve $-1 69.101133086678033 -5.2479600235711654 10.26437147294692 0 -1 0 I I #
coedge $-1 $724 $397 $400 $575 reversed $560 $-1 #
coedge $-1 $397 $724 $566 $728 forward $560 $-1 #
vertex $-1 $398 $732 #
straight-curve $-1 78.381298257393112 -5.8079006558639321 111.67649860918686 0 0 1 I I #
straight-curve $-1 -39.928934065711033 -5.8079006558639321 105.04276489526958 0.75470957328743171 0 -0.6560590369687036 I I #
edge $-1 $726 -15.18393943842073 $401 -5.8079006558639321 $570 $733 forward 7 unknown #
point $-1 78.381298257393112 -5.8079006558639321 10.264371472946923 #
point $-1 69.101133086678047 -5.8079006558639321 10.26437147294692 #
edge $-1 $734 1 $734 0 $404 $-1 forward 7 unknown #
vertex $-1 $405 $735 #
ellipse-curve $-1 72.667218577335504 -12.505071214833073 4.9953168321940691 0.6560590369687036 0 0.75470957328743171 0.75470957328743171 0 -0.6560590369687036 1 I I #
point $-1 74.495925245323036 -12.505071214833073 5.5747500960374969 #
edge $-1 $736 1 $736 0 $408 $-1 forward 7 unknown #
vertex $-1 $409 $737 #
ellipse-curve $-1 72.667218577335504 -8.4867688794515885 4.9953168321940691 0.6560590369687036 0 0.75470957328743171 0.75470957328743171 0 -0.6560590369687036 1 I I #
point $-1 74.495925245323036 -8.4867688794515885 5.5747500960374969 #
plane-surface $-1 0 0 10.264371472946923 0 0 1 1 0 0 forward_v I I I I #
coedge $-1 $597 $596 $589 $738 forward $413 $-1 #
coedge $-1 $589 $415 $417 $593 reversed $261 $-1 #
coedge $-1 $415 $588 $587 $738 reversed $261 $-1 #
coedge $-1 $423 $418 $415 $591 forward $424 $-1 #
edge $-1 $594 37.642841068431515 $739 46.923006239146581 $590 $740 forward 7 unknown #
coedge $-1 $417 $416 $597 $741 reversed $163 $-1 #
edge $-1 $742 -156.76259651478625 $594 -144.46625697016952 $588 $743 forward 7 unknown #
vertex $-1 $419 $744 #
straight-curve $-1 69.101133086678033 8.8759044684636912 10.26437147294692 0 -1 0 I I #
coedge $-1 $587 $420 $423 $601 reversed $413 $-1 #
coedge $-1 $420 $587 $592 $741 forward $413 $-1 #
vertex $-1 $421 $745 #
straight-curve $-1 78.381298257393112 22.439828328205781 111.67649860918686 0 0 1 I I #
straight-curve $-1 -39.928934065711033 22.439828328205781 105.04276489526958 0.75470957328743171 0 -0.6560590369687036 I I #
edge $-1 $739 13.063789545648984 $425 22.439828328205781 $596 $746 forward 7 unknown #
point $-1 78.381298257393112 22.439828328205781 10.264371472946923 #
point $-1 69.101133086678047 22.439828328205781 10.26437147294692 #
edge $-1 $747 1 $747 0 $428 $-1 forward 7 unknown #
vertex $-1 $429 $748 #
ellipse-curve $-1 72.667218577335504 15.742657769236644 4.9953168321940691 0.6560590369687036 0 0.75470957328743171 0.75470957328743171 0 -0.6560590369687036 1 I I #
point $-1 74.495925245323036 15.742657769236644 5.5747500960374969 #
edge $-1 $749 1 $749 0 $432 $-1 forward 7 unknown #
vertex $-1 $433 $750 #
ellipse-curve $-1 72.667218577335504 19.760960104618121 4.9953168321940691 0.6560590369687036 0 0.75470957328743171 0.75470957328743171 0 -0.6560590369687036 1 I I #
point $-1 74.495925245323036 19.760960104618121 5.5747500960374969 #
plane-surface $-1 0 0 10.264371472946923 0 0 1 1 0 0 forward_v I I I I #
coedge $-1 $623 $622 $615 $751 forward $437 $-1 #
coedge $-1 $615 $439 $441 $619 reversed $283 $-1 #
coedge $-1 $439 $614 $613 $751 reversed $283 $-1 #
coedge $-1 $447 $442 $439 $617 forward $448 $-1 #
edge $-1 $620 -16.346445289843601 $752 -5.7670171817574811 $616 $753 forward 7 unknown #
coedge $-1 $441 $440 $623 $754 reversed $177 $-1 #
edge $-1 $755 0 $620 12.915097079588364 $614 $756 forward 7 unknown #
vertex $-1 $443 $757 #
straight-curve $-1 -67.801870149307007 -8.2358170830322379 10.264371472946927 0 1 0 I I #
coedge $-1 $613 $444 $447 $627 reversed $437 $-1 #
coedge $-1 $444 $613 $618 $754 forward $437 $-1 #
vertex $-1 $445 $758 #
straight-curve $-1 -78.381298257393112 -22.800442619761977 65.634488305580419 0 0 1 I I #
straight-curve $-1 -78.381298257393112 -22.800442619761977 2.8565760194378811 -0.81915203911291934 0 -0.57357644374324357 I I #
edge $-1 $752 10.142825712366974 $449 22.800442619761977 $622 $759 forward 7 unknown #
point $-1 -78.381298257393112 -22.800442619761977 10.264371472946923 #
point $-1 -67.801870149306993 -22.800442619761977 10.264371472946923 #
edge $-1 $760 1 $760 0 $452 $-1 forward 7 unknown #
vertex $-1 $453 $761 #
ellipse-curve $-1 -70.944738005454411 -20.268919238282976 3.4944596867739368 -0.57357644374324357 0 0.81915203911291934 0.81915203911291934 0 0.57357644374324357 1 I I #
point $-1 -72.272432164237131 -20.268919238282976 7.134050189935647 #
edge $-1 $762 1 $762 0 $456 $-1 forward 7 unknown #
vertex $-1 $457 $763 #
ellipse-curve $-1 -70.944738005454411 -16.471634166064476 3.4944596867739368 -0.57357644374324357 0 0.81915203911291934 0.81915203911291934 0 0.57357644374324357 1 I I #
point $-1 -72.272432164237131 -16.471634166064476 7.134050189935647 #
edge $-1 $764 1 $764 0 $460 $-1 forward 7 unknown #
vertex $-1 $461 $765 #
ellipse-curve $-1 -70.944738005454411 -12.674349093845976 3.4944596867739368 -0.57357644374324357 0 0.81915203911291934 0.81915203911291934 0 0.57357644374324357 1 I I #
point $-1 -72.272432164237131 -12.674349093845976 7.134050189935647 #
loop $-1 $-1 $472 $464 #
plane-surface $-1 -78.381298257393112 0 0 1 0 0 0 0 -1 forward_v I I I I #
coedge $-1 $645 $467 $469 $649 reversed $312 $-1 #
coedge $-1 $467 $644 $766 $767 reversed $312 $-1 #
coedge $-1 $475 $470 $467 $647 forward $465 $-1 #
edge $-1 $650 -16.346445289843601 $768 -5.7670171817574811 $646 $769 forward 7 unknown #
coedge $-1 $469 $468 $653 $770 reversed $196 $-1 #
edge $-1 $771 0 $650 12.915097079588364 $644 $772 forward 7 unknown #
vertex $-1 $471 $773 #
straight-curve $-1 -67.801870149307007 5.8880474090026169 10.264371472946927 0 1 0 I I #
coedge $-1 $766 $472 $475 $657 reversed $642 $-1 #
coedge $-1 $472 $766 $648 $770 forward $642 $-1 #
vertex $-1 $473 $774 #
straight-curve $-1 -78.381298257393112 5.4472863643077334 65.634488305580419 0 0 1 I I #
straight-curve $-1 -78.381298257393112 5.4472863643077334 2.8565760194378811 -0.81915203911291934 0 -0.57357644374324357 I I #
edge $-1 $768 -18.104903271702735 $476 -5.4472863643077334 $652 $775 forward 7 unknown #
point $-1 -78.381298257393112 5.4472863643077334 10.264371472946923 #
point $-1 -67.801870149306993 5.4472863643077334 10.264371472946923 #
edge $-1 $776 1 $776 0 $479 $-1 forward 7 unknown #
vertex $-1 $480 $777 #
ellipse-curve $-1 -70.944738005454411 7.9788097457867337 3.4944596867739368 -0.57357644374324357 0 0.81915203911291934 0.81915203911291934 0 0.57357644374324357 1 I I #
point $-1 -72.272432164237131 7.9788097457867337 7.134050189935647 #
edge $-1 $778 1 $778 0 $483 $-1 forward 7 unknown #
vertex $-1 $484 $779 #
ellipse-curve $-1 -70.944738005454411 11.776094818005234 3.4944596867739368 -0.57357644374324357 0 0.81915203911291934 0.81915203911291934 0 0.57357644374324357 1 I I #
point $-1 -72.272432164237131 11.776094818005234 7.134050189935647 #
edge $-1 $780 1 $780 0 $487 $-1 forward 7 unknown #
vertex $-1 $488 $781 #
ellipse-curve $-1 -70.944738005454411 15.573379890223734 3.4944596867739368 -0.57357644374324357 0 0.81915203911291934 0.81915203911291934 0 0.57357644374324357 1 I I #
point $-1 -72.272432164237131 15.573379890223734 7.134050189935647 #
plane-surface $-1 78.381298257393112 0 0 -1 0 0 0 0 1 forward_v I I I I #
coedge $-1 $496 $494 $498 $677 reversed $341 $-1 #
edge $-1 $509 -10.264371472946923 $679 10.264371472946923 $508 $782 forward 7 unknown #
vertex $-1 $677 $783 #
straight-curve $-1 -78.381298257393112 -37.811853989820207 0 0 0 -1 I I #
edge $-1 $675 -37.811853989820207 $679 37.811853989820207 $673 $784 forward 7 unknown #
straight-curve $-1 0 -37.811853989820207 -10.264371472946923 -1 0 0 I I #
vertex $-1 $501 $785 #
straight-curve $-1 0 37.811853989820207 -10.264371472946923 1 0 0 I I #
point $-1 78.381298257393112 37.811853989820207 -10.264371472946923 #
point $-1 78.381298257393112 -37.811853989820207 -10.264371472946923 #
straight-curve $-1 -78.381298257393112 0 10.264371472946923 0 -1 0 I I #
point $-1 -78.381298257393112 37.811853989820207 10.264371472946923 #
point $-1 -78.381298257393112 -37.811853989820207 10.264371472946923 #
straight-curve $-1 78.381298257393112 -37.811853989820207 0 0 0 -1 I I #
straight-curve $-1 78.381298257393112 37.811853989820207 0 0 0 -1 I I #
plane-surface $-1 78.381298257393112 0 0 -1 0 0 0 0 1 forward_v I I I I #
coedge $-1 $700 $691 $690 $786 forward $519 $-1 #
coedge $-1 $522 $521 $689 $786 reversed $223 $-1 #
coedge $-1 $689 $787 $523 $692 reversed $519 $-1 #
edge $-1 $693 -78.381298257393112 $696 78.381298257393112 $691 $788 forward 7 unknown #
vertex $-1 $524 $789 #
straight-curve $-1 -78.381298257393112 0 10.264371472946923 0 -1 0 I I #
coedge $-1 $531 $525 $787 $790 forward $532 $-1 #
vertex $-1 $526 $791 #
straight-curve $-1 78.381298257393112 0 10.264371472946923 0 1 0 I I #
point $-1 78.381298257393112 -37.811853989820207 10.264371472946923 #
point $-1 -78.381298257393112 -37.811853989820207 10.264371472946923 #
coedge $-1 $787 $689 $534 $701 reversed $519 $-1 #
edge $-1 $702 -78.381298257393112 $704 78.381298257393112 $700 $792 forward 7 unknown #
vertex $-1 $790 $793 #
straight-curve $-1 78.381298257393112 -42.593916492695456 7.12926961511595 0 -1 0 I I #
vertex $-1 $536 $794 #
straight-curve $-1 -78.381298257393112 -42.593916492695456 7.12926961511595 0 1 0 I I #
plane-surface $-1 -78.381298257393112 0 0 1 0 0 0 0 -1 forward_v I I I I #
coedge $-1 $795 $542 $543 $710 reversed $376 $-1 #
coedge $-1 $542 $795 $713 $796 reversed $376 $-1 #
edge $-1 $714 -1.5675509289154856 $711 1.5675509289154856 $545 $797 forward 7 unknown #
edge $-1 $722 -78.381298257393112 $711 78.381298257393112 $707 $798 forward 7 unknown #
vertex $-1 $544 $799 #
straight-curve $-1 78.381298257393112 42.593916492695456 7.12926961511595 0 -1 0 I I #
coedge $-1 $717 $546 $708 $796 forward $540 $-1 #
vertex $-1 $547 $800 #
straight-curve $-1 78.381298257393112 0 10.264371472946923 0 1 0 I I #
point $-1 78.381298257393112 37.811853989820207 10.264371472946923 #
coedge $-1 $550 $713 $552 $720 forward $540 $-1 #
straight-curve $-1 0 37.811853989820207 10.264371472946923 1 0 0 I I #
coedge $-1 $553 $552 $795 $801 forward $554 $-1 #
edge $-1 $802 -47.375978995570705 $555 -37.811853989820207 $552 $803 forward 7 unknown #
point $-1 -78.381298257393112 37.811853989820207 10.264371472946923 #
vertex $-1 $710 $804 #
straight-curve $-1 -78.381298257393112 42.593916492695456 7.12926961511595 0 1 0 I I #
coedge $-1 $571 $570 $563 $725 forward $560 $-1 #
edge $-1 $726 101.41212713623995 $729 109.47925181612138 $724 $805 forward 7 unknown #
vertex $-1 $575 $806 #
straight-curve $-1 31.458292018246532 -15.18393943842073 10.26437147294692 1 0 0 I I #
edge $-1 $729 -9.9359794148495642 $572 -0.55994063229276669 $571 $807 forward 7 unknown #
vertex $-1 $728 $808 #
straight-curve $-1 -39.928934065711033 -15.18393943842073 105.04276489526958 -0.75470957328743171 0 0.6560590369687036 I I #
point $-1 69.101133086678047 -15.18393943842073 10.26437147294692 #
point $-1 78.381298257393112 -5.8079006558639321 2.1972467930654886 #
straight-curve $-1 78.381298257393112 0 10.264371472946923 0 1 0 I I #
vertex $-1 $578 $809 #
point $-1 73.421928150622932 -12.505071214833073 4.3392577952253655 #
vertex $-1 $582 $810 #
point $-1 73.421928150622932 -8.4867688794515885 4.3392577952253655 #
edge $-1 $739 101.41212713623995 $742 109.47925181612138 $587 $811 forward 7 unknown #
vertex $-1 $601 $812 #
straight-curve $-1 31.458292018246532 13.063789545648984 10.26437147294692 1 0 0 I I #
edge $-1 $742 4.1878850771852925 $598 13.56392385974209 $597 $813 forward 7 unknown #
vertex $-1 $741 $814 #
straight-curve $-1 -39.928934065711033 13.063789545648984 105.04276489526958 -0.75470957328743171 0 0.6560590369687036 I I #
point $-1 69.101133086678047 13.063789545648984 10.26437147294692 #
point $-1 78.381298257393112 22.439828328205781 2.1972467930654886 #
straight-curve $-1 78.381298257393112 0 10.264371472946923 0 1 0 I I #
vertex $-1 $604 $815 #
point $-1 73.421928150622932 15.742657769236644 4.3392577952253655 #
vertex $-1 $608 $816 #
point $-1 73.421928150622932 19.760960104618121 4.3392577952253655 #
edge $-1 $752 55.370116832633499 $755 62.777912286142538 $613 $817 forward 7 unknown #
vertex $-1 $627 $818 #
straight-curve $-1 -84.148315439150593 -10.142825712366974 10.26437147294692 -1 0 0 I I #
edge $-1 $755 1.9070086293347366 $624 14.564625536729739 $623 $819 forward 7 unknown #
vertex $-1 $754 $820 #
straight-curve $-1 -78.381298257393112 -10.142825712366974 2.8565760194378811 0.81915203911291934 0 0.57357644374324357 I I #
point $-1 -67.801870149306993 -10.142825712366974 10.264371472946923 #
point $-1 -78.381298257393112 -22.800442619761977 2.8565760194378811 #
straight-curve $-1 -78.381298257393112 0 10.264371472946923 0 -1 0 I I #
vertex $-1 $630 $821 #
point $-1 -70.12558596634149 -20.268919238282976 4.0680361305171804 #
vertex $-1 $634 $822 #
point $-1 -70.12558596634149 -16.471634166064476 4.0680361305171804 #
vertex $-1 $638 $823 #
point $-1 -70.12558596634149 -12.674349093845976 4.0680361305171804 #
coedge $-1 $653 $652 $645 $767 forward $642 $-1 #
edge $-1 $768 55.370116832633499 $771 62.777912286142538 $766 $824 forward 7 unknown #
vertex $-1 $657 $825 #
straight-curve $-1 -84.148315439150593 18.104903271702735 10.26437147294692 -1 0 0 I I #
edge $-1 $771 -12.216855862700118 $654 0.44076104469488353 $653 $826 forward 7 unknown #
vertex $-1 $770 $827 #
straight-curve $-1 -78.381298257393112 18.104903271702735 2.8565760194378811 0.81915203911291934 0 0.57357644374324357 I I #
point $-1 -67.801870149306993 18.104903271702735 10.264371472946923 #
point $-1 -78.381298257393112 5.4472863643077334 2.8565760194378811 #
straight-curve $-1 -78.381298257393112 0 10.264371472946923 0 -1 0 I I #
vertex $-1 $660 $828 #
point $-1 -70.12558596634149 7.9788097457867337 4.0680361305171804 #
vertex $-1 $664 $829 #
point $-1 -70.12558596634149 11.776094818005234 4.0680361305171804 #
vertex $-1 $668 $830 #
point $-1 -70.12558596634149 15.573379890223734 4.0680361305171804 #
straight-curve $-1 -78.381298257393112 37.811853989820207 0 0 0 -1 I I #
point $-1 -78.381298257393112 -37.811853989820207 -10.264371472946923 #
straight-curve $-1 -78.381298257393112 0 -10.264371472946923 0 1 0 I I #
point $-1 -78.381298257393112 37.811853989820207 -10.264371472946923 #
edge $-1 $693 -1.5675509289154856 $704 1.5675509289154856 $690 $831 forward 7 unknown #
coedge $-1 $691 $700 $695 $790 reversed $519 $-1 #
straight-curve $-1 0 -47.375978995570705 10.264371472946921 1 0 0 I I #
point $-1 -78.381298257393112 -47.375978995570705 10.264371472946921 #
edge $-1 $696 -1.5675509289154856 $702 1.5675509289154856 $695 $832 forward 7 unknown #
point $-1 78.381298257393112 -47.375978995570705 10.264371472946921 #
straight-curve $-1 0 -47.375978995570705 7.12926961511595 -1 0 0 I I #
point $-1 78.381298257393112 -47.375978995570705 7.12926961511595 #
point $-1 -78.381298257393112 -47.375978995570705 7.12926961511595 #
coedge $-1 $708 $707 $719 $801 reversed $376 $-1 #
edge $-1 $714 -78.381298257393112 $802 78.381298257393112 $708 $833 forward 7 unknown #
straight-curve $-1 78.381298257393112 47.375978995570705 8.6968205440314357 0 0 -1 I I #
straight-curve $-1 0 47.375978995570705 7.12926961511595 1 0 0 I I #
point $-1 78.381298257393112 47.375978995570705 7.12926961511595 #
point $-1 78.381298257393112 47.375978995570705 10.264371472946921 #
edge $-1 $802 -1.5675509289154856 $722 1.5675509289154856 $795 $834 forward 7 unknown #
vertex $-1 $796 $835 #
straight-curve $-1 -78.381298257393112 0 10.264371472946923 0 -1 0 I I #
point $-1 -78.381298257393112 47.375978995570705 7.12926961511595 #
straight-curve $-1 78.381298257393112 -15.18393943842073 111.67649860918686 0 0 -1 I I #
point $-1 78.381298257393112 -15.18393943842073 10.264371472946923 #
straight-curve $-1 78.381298257393112 -5.2479600235711654 2.1972467930654744 0 1 0 I I #
point $-1 78.381298257393112 -15.18393943842073 2.1972467930654886 #
point $-1 72.011159540366791 -12.505071214833073 4.2406072589066373 #
point $-1 72.011159540366791 -8.4867688794515885 4.2406072589066373 #
straight-curve $-1 78.381298257393112 13.063789545648984 111.67649860918686 0 0 -1 I I #
point $-1 78.381298257393112 13.063789545648984 10.264371472946923 #
straight-curve $-1 78.381298257393112 8.8759044684636912 2.1972467930654744 0 1 0 I I #
point $-1 78.381298257393112 13.063789545648984 2.1972467930654886 #
point $-1 72.011159540366791 15.742657769236644 4.2406072589066373 #
point $-1 72.011159540366791 19.760960104618121 4.2406072589066373 #
straight-curve $-1 -78.381298257393112 -10.142825712366974 65.634488305580419 0 0 -1 I I #
point $-1 -78.381298257393112 -10.142825712366974 10.264371472946923 #
straight-curve $-1 -78.381298257393112 -8.2358170830322379 2.8565760194378784 0 -1 0 I I #
point $-1 -78.381298257393112 -10.142825712366974 2.8565760194378811 #
point $-1 -70.371161561711176 -20.268919238282976 2.6753076476610178 #
point $-1 -70.371161561711176 -16.471634166064476 2.6753076476610178 #
point $-1 -70.371161561711176 -12.674349093845976 2.6753076476610178 #
straight-curve $-1 -78.381298257393112 18.104903271702735 65.634488305580419 0 0 -1 I I #
point $-1 -78.381298257393112 18.104903271702735 10.264371472946923 #
straight-curve $-1 -78.381298257393112 5.8880474090026169 2.8565760194378784 0 -1 0 I I #
point $-1 -78.381298257393112 18.104903271702735 2.8565760194378811 #
point $-1 -70.371161561711176 7.9788097457867337 2.6753076476610178 #
point $-1 -70.371161561711176 11.776094818005234 2.6753076476610178 #
point $-1 -70.371161561711176 15.573379890223734 2.6753076476610178 #
straight-curve $-1 -78.381298257393112 -47.375978995570705 8.6968205440314357 0 0 -1 I I #
straight-curve $-1 78.381298257393112 -47.375978995570705 8.6968205440314357 0 0 -1 I I #
straight-curve $-1 0 47.375978995570705 10.264371472946921 -1 0 0 I I #
straight-curve $-1 -78.381298257393112 47.375978995570705 8.6968205440314357 0 0 -1 I I #
point $-1 -78.381298257393112 47.375978995570705 10.264371472946921 #
End-of-ACIS-data 