500 0 10 0           
7 Unknown 11 ACIS 5.0 NT 24 Fri Mar 26 17:36:46 1999 
-1 9.9999999999999995e-007 1e-010 
body $-1 $10 $-1 $11 #
body $-1 $12 $-1 $13 #
body $-1 $14 $-1 $15 #
body $-1 $16 $-1 $17 #
body $-1 $18 $-1 $19 #
body $-1 $20 $-1 $21 #
body $-1 $22 $-1 $23 #
body $-1 $24 $-1 $25 #
body $-1 $26 $-1 $27 #
body $-1 $28 $-1 $29 #
lump $-1 $-1 $30 $0 #
transform $-1 1 0 0 0 1 0 0 0 1 67.340922269356369 32.012370492052476 11.193631852555658 1 rotate no_reflect no_shear #
lump $-1 $-1 $31 $1 #
transform $-1 1 0 0 0 1 0 0 0 1 67.340922269356369 32.012370492052476 11.193631852555658 1 rotate no_reflect no_shear #
lump $-1 $-1 $32 $2 #
transform $-1 1 0 0 0 1 0 0 0 1 67.340922269356369 32.012370492052476 11.193631852555658 1 rotate no_reflect no_shear #
lump $-1 $-1 $33 $3 #
transform $-1 1 0 0 0 1 0 0 0 1 67.340922269356369 32.012370492052476 11.193631852555658 1 rotate no_reflect no_shear #
lump $-1 $-1 $34 $4 #
transform $-1 1 0 0 0 1 0 0 0 1 67.340922269356369 32.012370492052476 11.193631852555658 1 rotate no_reflect no_shear #
lump $-1 $-1 $35 $5 #
transform $-1 1 0 0 0 1 0 0 0 1 67.340922269356369 32.012370492052476 11.193631852555658 1 rotate no_reflect no_shear #
lump $-1 $-1 $36 $6 #
transform $-1 1 0 0 0 1 0 0 0 1 67.340922269356369 32.012370492052476 11.193631852555658 1 rotate no_reflect no_shear #
lump $-1 $-1 $37 $7 #
transform $-1 1 0 0 0 1 0 0 0 1 67.340922269356369 32.012370492052476 11.193631852555658 1 rotate no_reflect no_shear #
lump $-1 $-1 $38 $8 #
transform $-1 1 0 0 0 1 0 0 0 1 67.340922269356369 32.012370492052476 11.193631852555658 1 rotate no_reflect no_shear #
lump $-1 $-1 $39 $9 #
transform $-1 1 0 0 0 1 0 0 0 1 67.340922269356369 32.012370492052476 11.193631852555658 1 rotate no_reflect no_shear #
shell $-1 $-1 $-1 $40 $-1 $10 #
shell $-1 $-1 $-1 $41 $-1 $12 #
shell $-1 $-1 $-1 $42 $-1 $14 #
shell $-1 $-1 $-1 $43 $-1 $16 #
shell $-1 $-1 $-1 $44 $-1 $18 #
shell $-1 $-1 $-1 $45 $-1 $20 #
shell $-1 $-1 $-1 $46 $-1 $22 #
shell $-1 $-1 $-1 $47 $-1 $24 #
shell $-1 $-1 $-1 $48 $-1 $26 #
shell $-1 $-1 $-1 $49 $-1 $28 #
face $-1 $50 $51 $30 $-1 $52 forward single #
face $-1 $53 $54 $31 $-1 $55 forward single #
face $-1 $56 $57 $32 $-1 $58 reversed single #
face $-1 $59 $60 $33 $-1 $61 forward single #
face $-1 $62 $63 $34 $-1 $64 forward single #
face $-1 $65 $66 $35 $-1 $67 forward single #
face $-1 $68 $69 $36 $-1 $70 reversed single #
face $-1 $71 $72 $37 $-1 $73 forward single #
face $-1 $74 $75 $38 $-1 $76 forward single #
face $-1 $77 $78 $39 $-1 $79 forward single #
face $-1 $80 $81 $30 $-1 $82 reversed single #
loop $-1 $-1 $83 $40 #
plane-surface $-1 0 0 11.193631852555658 0 0 1 1 0 0 forward_v I I I I #
face $-1 $84 $85 $31 $-1 $86 reversed single #
loop $-1 $-1 $87 $41 #
plane-surface $-1 0 -27.714114245203515 -8.1265623772110978 0 0 1 1 0 0 forward_v I I I I #
face $-1 $88 $89 $32 $-1 $90 reversed single #
loop $-1 $-1 $91 $42 #
plane-surface $-1 -52.994780053301525 112.30111058419317 129.71274175776662 -1 0 0 0 0.84804810408105047 0.52991925155115449 forward_v I I I I #
face $-1 $92 $93 $33 $-1 $94 forward single #
loop $-1 $95 $96 $43 #
cone-surface $-1 -64.471693826145398 29.228895588492037 7.2760006431840551 0 -0.84804810408105047 -0.52991925155115449 0.5 0 0 1 I I 0 1 0.5 forward I I I I #
face $-1 $97 $98 $34 $-1 $99 forward single #
loop $-1 $100 $101 $44 #
cone-surface $-1 -60.167851161328947 29.228895588492037 7.2760006431840551 0 -0.84804810408105047 -0.52991925155115449 0.5 0 0 1 I I 0 1 0.5 forward I I I I #
face $-1 $102 $103 $35 $-1 $104 forward single #
loop $-1 $105 $106 $45 #
cone-surface $-1 -55.864008496512497 29.228895588492037 7.2760006431840551 0 -0.84804810408105047 -0.52991925155115449 0.5 0 0 1 I I 0 1 0.5 forward I I I I #
face $-1 $107 $108 $36 $-1 $109 reversed single #
loop $-1 $-1 $110 $46 #
plane-surface $-1 14.346142216054851 112.30111058419317 129.71274175776662 -1 0 0 0 0.84804810408105047 0.52991925155115449 forward_v I I I I #
face $-1 $111 $112 $37 $-1 $113 forward single #
loop $-1 $114 $115 $47 #
cone-surface $-1 2.8692284432109716 29.228895588492037 7.2760006431840551 0 -0.84804810408105047 -0.52991925155115449 0.5 0 0 1 I I 0 1 0.5 forward I I I I #
face $-1 $116 $117 $38 $-1 $118 forward single #
loop $-1 $119 $120 $48 #
cone-surface $-1 7.173071108027429 29.228895588492037 7.2760006431840551 0 -0.84804810408105047 -0.52991925155115449 0.5 0 0 1 I I 0 1 0.5 forward I I I I #
face $-1 $121 $122 $39 $-1 $123 forward single #
loop $-1 $124 $125 $49 #
cone-surface $-1 11.476913772843872 29.228895588492037 7.2760006431840551 0 -0.84804810408105047 -0.52991925155115449 0.5 0 0 1 I I 0 1 0.5 forward I I I I #
face $-1 $126 $127 $30 $-1 $128 reversed single #
loop $-1 $-1 $129 $50 #
plane-surface $-1 0 0 -11.193631852555658 0 0 1 1 0 0 forward_v I I I I #
coedge $-1 $130 $131 $132 $133 forward $51 $-1 #
face $-1 $134 $135 $31 $-1 $136 reversed single #
loop $-1 $-1 $137 $53 #
plane-surface $-1 0 -23.415857998354554 -9.6600971148833779 0 -1 0 0 0 -1 forward_v I I I I #
coedge $-1 $138 $139 $140 $141 reversed $54 $-1 #
face $-1 $142 $143 $32 $-1 $144 reversed single #
loop $-1 $-1 $145 $56 #
plane-surface $-1 -60.167851161328947 -1.9155723310009733 58.342239502283007 0 0.84804810408105047 0.52991925155115449 1 0 0 forward_v I I I I #
coedge $-1 $146 $147 $148 $149 reversed $57 $-1 #
face $-1 $-1 $150 $33 $-1 $151 forward single #
loop $-1 $152 $153 $59 #
cone-surface $-1 -64.471693826145398 28.466520607874664 6.7996158989862501 0 -0.84804810408105047 -0.52991925155115449 0.25 0 0 1 I I -0.70710678118654746 0.70710678118654746 0.25 forward I I I I #
loop $-1 $-1 $154 $43 #
coedge $-1 $96 $96 $155 $156 reversed $60 $-1 #
face $-1 $-1 $157 $34 $-1 $158 forward single #
loop $-1 $159 $160 $62 #
cone-surface $-1 -60.167851161328947 28.466520607874664 6.7996158989862501 0 -0.84804810408105047 -0.52991925155115449 0.25 0 0 1 I I -0.70710678118654746 0.70710678118654746 0.25 forward I I I I #
loop $-1 $-1 $161 $44 #
coedge $-1 $101 $101 $162 $163 reversed $63 $-1 #
face $-1 $-1 $164 $35 $-1 $165 forward single #
loop $-1 $166 $167 $65 #
cone-surface $-1 -55.864008496512497 28.466520607874664 6.7996158989862501 0 -0.84804810408105047 -0.52991925155115449 0.25 0 0 1 I I -0.70710678118654746 0.70710678118654746 0.25 forward I I I I #
loop $-1 $-1 $168 $45 #
coedge $-1 $106 $106 $169 $170 reversed $66 $-1 #
face $-1 $171 $172 $36 $-1 $173 reversed single #
loop $-1 $-1 $174 $68 #
plane-surface $-1 7.173071108027429 -1.9155723310009733 58.342239502283007 0 0.84804810408105047 0.52991925155115449 1 0 0 forward_v I I I I #
coedge $-1 $175 $176 $177 $178 reversed $69 $-1 #
face $-1 $-1 $179 $37 $-1 $180 forward single #
loop $-1 $181 $182 $71 #
cone-surface $-1 2.8692284432109716 28.466520607874664 6.7996158989862501 0 -0.84804810408105047 -0.52991925155115449 0.25 0 0 1 I I -0.70710678118654746 0.70710678118654746 0.25 forward I I I I #
loop $-1 $-1 $183 $47 #
coedge $-1 $115 $115 $184 $185 reversed $72 $-1 #
face $-1 $-1 $186 $38 $-1 $187 forward single #
loop $-1 $188 $189 $74 #
cone-surface $-1 7.173071108027429 28.466520607874664 6.7996158989862501 0 -0.84804810408105047 -0.52991925155115449 0.25 0 0 1 I I -0.70710678118654746 0.70710678118654746 0.25 forward I I I I #
loop $-1 $-1 $190 $48 #
coedge $-1 $120 $120 $191 $192 reversed $75 $-1 #
face $-1 $-1 $193 $39 $-1 $194 forward single #
loop $-1 $195 $196 $77 #
cone-surface $-1 11.476913772843872 28.466520607874664 6.7996158989862501 0 -0.84804810408105047 -0.52991925155115449 0.25 0 0 1 I I -0.70710678118654746 0.70710678118654746 0.25 forward I I I I #
loop $-1 $-1 $197 $49 #
coedge $-1 $125 $125 $198 $199 reversed $78 $-1 #
face $-1 $200 $201 $30 $-1 $202 reversed single #
loop $-1 $-1 $203 $80 #
plane-surface $-1 0 -32.012370492052476 0 0 1 0 0 0 1 forward_v I I I I #
coedge $-1 $204 $205 $206 $207 forward $81 $-1 #
coedge $-1 $208 $83 $209 $210 forward $51 $-1 #
coedge $-1 $83 $208 $211 $212 forward $51 $-1 #
coedge $-1 $213 $214 $83 $133 reversed $215 $-1 #
edge $-1 $216 -32.012370492052476 $217 32.012370492052476 $132 $218 forward 7 unknown #
face $-1 $219 $220 $31 $-1 $221 reversed single #
loop $-1 $-1 $222 $84 #
plane-surface $-1 0 0 -11.193631852555658 0 0 1 1 0 0 forward_v I I I I #
coedge $-1 $223 $224 $225 $226 reversed $85 $-1 #
coedge $-1 $227 $87 $224 $228 forward $54 $-1 #
coedge $-1 $87 $227 $229 $230 reversed $54 $-1 #
coedge $-1 $231 $225 $87 $141 forward $220 $-1 #
edge $-1 $232 9.5588008757527962 $233 18.155313369450717 $140 $234 forward 7 unknown #
face $-1 $235 $236 $32 $-1 $237 forward single #
loop $-1 $-1 $148 $88 #
plane-surface $-1 0 32.012370492052476 0 0 -1 0 0 0 -1 forward_v I I I I #
coedge $-1 $238 $239 $240 $241 reversed $89 $-1 #
coedge $-1 $147 $91 $242 $243 reversed $57 $-1 #
coedge $-1 $91 $146 $238 $244 reversed $57 $-1 #
coedge $-1 $240 $245 $91 $149 forward $143 $-1 #
edge $-1 $246 53.662739026327657 $247 60.810191582450884 $148 $248 forward 7 unknown #
loop $-1 $-1 $155 $92 #
plane-surface $-1 -60.167851161328947 -1.9155723310009733 58.342239502283007 0 0.84804810408105047 0.52991925155115449 1 0 0 forward_v I I I I #
loop $-1 $-1 $249 $59 #
coedge $-1 $153 $153 $154 $250 reversed $93 $-1 #
coedge $-1 $154 $154 $153 $250 forward $95 $-1 #
coedge $-1 $155 $155 $96 $156 forward $150 $-1 #
edge $-1 $251 -7.5872966580906853e-016 $251 6.2831853071795996 $155 $252 forward 7 unknown #
loop $-1 $-1 $162 $97 #
plane-surface $-1 -60.167851161328947 -1.9155723310009733 58.342239502283007 0 0.84804810408105047 0.52991925155115449 1 0 0 forward_v I I I I #
loop $-1 $-1 $253 $62 #
coedge $-1 $160 $160 $161 $254 reversed $98 $-1 #
coedge $-1 $161 $161 $160 $254 forward $100 $-1 #
coedge $-1 $162 $162 $101 $163 forward $157 $-1 #
edge $-1 $255 -7.5872966580906853e-016 $255 6.2831853071795996 $162 $256 forward 7 unknown #
loop $-1 $-1 $169 $102 #
plane-surface $-1 -60.167851161328947 -1.9155723310009733 58.342239502283007 0 0.84804810408105047 0.52991925155115449 1 0 0 forward_v I I I I #
loop $-1 $-1 $257 $65 #
coedge $-1 $167 $167 $168 $258 reversed $103 $-1 #
coedge $-1 $168 $168 $167 $258 forward $105 $-1 #
coedge $-1 $169 $169 $106 $170 forward $164 $-1 #
edge $-1 $259 -7.5872966580906853e-016 $259 6.2831853071795996 $169 $260 forward 7 unknown #
face $-1 $261 $262 $36 $-1 $263 forward single #
loop $-1 $-1 $264 $107 #
plane-surface $-1 6.2172489379008766e-015 112.30111058419317 129.71274175776662 1 0 0 0 -0.84804810408105047 -0.52991925155115449 forward_v I I I I #
coedge $-1 $265 $266 $267 $268 reversed $108 $-1 #
coedge $-1 $176 $110 $269 $270 reversed $69 $-1 #
coedge $-1 $110 $175 $265 $271 reversed $69 $-1 #
coedge $-1 $267 $272 $110 $178 forward $273 $-1 #
edge $-1 $274 53.662739026327657 $275 60.810191582450884 $177 $276 forward 7 unknown #
loop $-1 $-1 $184 $111 #
plane-surface $-1 7.173071108027429 -1.9155723310009733 58.342239502283007 0 0.84804810408105047 0.52991925155115449 1 0 0 forward_v I I I I #
loop $-1 $-1 $277 $71 #
coedge $-1 $182 $182 $183 $278 reversed $112 $-1 #
coedge $-1 $183 $183 $182 $278 forward $114 $-1 #
coedge $-1 $184 $184 $115 $185 forward $179 $-1 #
edge $-1 $279 -7.5872966580906853e-016 $279 6.2831853071795996 $184 $280 forward 7 unknown #
loop $-1 $-1 $191 $116 #
plane-surface $-1 7.173071108027429 -1.9155723310009733 58.342239502283007 0 0.84804810408105047 0.52991925155115449 1 0 0 forward_v I I I I #
loop $-1 $-1 $281 $74 #
coedge $-1 $189 $189 $190 $282 reversed $117 $-1 #
coedge $-1 $190 $190 $189 $282 forward $119 $-1 #
coedge $-1 $191 $191 $120 $192 forward $186 $-1 #
edge $-1 $283 -7.5872966580906853e-016 $283 6.2831853071795996 $191 $284 forward 7 unknown #
loop $-1 $-1 $198 $121 #
plane-surface $-1 7.173071108027429 -1.9155723310009733 58.342239502283007 0 0.84804810408105047 0.52991925155115449 1 0 0 forward_v I I I I #
loop $-1 $-1 $285 $77 #
coedge $-1 $196 $196 $197 $286 reversed $122 $-1 #
coedge $-1 $197 $197 $196 $286 forward $124 $-1 #
coedge $-1 $198 $198 $125 $199 forward $193 $-1 #
edge $-1 $287 -7.5872966580906853e-016 $287 6.2831853071795996 $198 $288 forward 7 unknown #
face $-1 $289 $290 $30 $-1 $291 reversed single #
loop $-1 $-1 $292 $126 #
plane-surface $-1 -67.340922269356369 0 0 1 0 0 0 0 -1 forward_v I I I I #
coedge $-1 $293 $211 $294 $295 forward $127 $-1 #
coedge $-1 $296 $129 $293 $297 forward $81 $-1 #
coedge $-1 $129 $296 $298 $299 forward $81 $-1 #
coedge $-1 $214 $213 $129 $207 reversed $215 $-1 #
edge $-1 $300 -32.012370492052476 $301 32.012370492052476 $206 $302 forward 7 unknown #
coedge $-1 $131 $130 $303 $304 forward $51 $-1 #
coedge $-1 $305 $306 $130 $210 reversed $290 $-1 #
edge $-1 $217 -67.340922269356369 $307 67.340922269356369 $209 $308 forward 7 unknown #
coedge $-1 $203 $309 $131 $212 reversed $127 $-1 #
edge $-1 $310 -67.340922269356369 $216 67.340922269356369 $211 $311 forward 7 unknown #
coedge $-1 $206 $132 $309 $312 forward $215 $-1 #
coedge $-1 $132 $206 $305 $313 reversed $215 $-1 #
loop $-1 $-1 $213 $289 #
vertex $-1 $133 $314 #
vertex $-1 $133 $315 #
straight-curve $-1 67.340922269356369 0 11.193631852555658 0 1 0 I I #
face $-1 $316 $317 $31 $-1 $318 reversed single #
loop $-1 $-1 $225 $134 #
plane-surface $-1 67.340922269356369 0 0 -1 0 0 0 0 1 forward_v I I I I #
coedge $-1 $319 $320 $223 $321 forward $135 $-1 #
coedge $-1 $322 $137 $222 $321 reversed $85 $-1 #
coedge $-1 $137 $322 $138 $228 reversed $85 $-1 #
coedge $-1 $140 $323 $137 $226 forward $220 $-1 #
edge $-1 $324 -6.363583295113969 $232 -3.2965138197694088 $225 $325 forward 7 unknown #
coedge $-1 $139 $138 $326 $327 reversed $54 $-1 #
edge $-1 $232 -67.340922269356369 $328 67.340922269356369 $224 $329 forward 7 unknown #
coedge $-1 $330 $331 $139 $230 forward $317 $-1 #
edge $-1 $233 -67.340922269356369 $332 67.340922269356369 $229 $333 forward 7 unknown #
coedge $-1 $323 $140 $331 $334 forward $220 $-1 #
vertex $-1 $141 $335 #
vertex $-1 $334 $336 #
straight-curve $-1 67.340922269356369 -13.857057122601757 -8.1265623772110978 0 -1 0 I I #
face $-1 $-1 $337 $32 $-1 $338 reversed single #
loop $-1 $-1 $242 $142 #
plane-surface $-1 0 0 11.193631852555658 0 0 1 1 0 0 forward_v I I I I #
coedge $-1 $339 $145 $147 $244 forward $89 $-1 #
coedge $-1 $145 $339 $340 $341 reversed $89 $-1 #
coedge $-1 $342 $148 $145 $241 forward $143 $-1 #
edge $-1 $247 22.910854472637052 $343 37.256996688691899 $240 $344 forward 7 unknown #
coedge $-1 $345 $346 $146 $243 forward $236 $-1 #
edge $-1 $347 -28.604408697970793 $246 -24.138184800044108 $242 $348 forward 7 unknown #
edge $-1 $247 -64.024740984104994 $347 -55.596619369626254 $147 $349 forward 7 unknown #
coedge $-1 $148 $342 $345 $350 reversed $143 $-1 #
vertex $-1 $350 $351 #
vertex $-1 $149 $352 #
straight-curve $-1 -52.994780053301525 32.012370492052476 64.856370878883311 0 0 -1 I I #
coedge $-1 $249 $249 $-1 $353 reversed $152 $-1 #
edge $-1 $354 0 $354 6.2831853071796004 $153 $355 forward 7 unknown #
vertex $-1 $156 $356 #
ellipse-curve $-1 -64.471693826145398 29.779258543089124 7.619905574494056 0 0.84804810408105047 0.52991925155115449 0.5 0 0 1 I I #
coedge $-1 $253 $253 $-1 $357 reversed $159 $-1 #
edge $-1 $358 0 $358 6.2831853071796004 $160 $359 forward 7 unknown #
vertex $-1 $163 $360 #
ellipse-curve $-1 -60.167851161328947 29.779258543089124 7.619905574494056 0 0.84804810408105047 0.52991925155115449 0.5 0 0 1 I I #
coedge $-1 $257 $257 $-1 $361 reversed $166 $-1 #
edge $-1 $362 0 $362 6.2831853071796004 $167 $363 forward 7 unknown #
vertex $-1 $170 $364 #
ellipse-curve $-1 -55.864008496512497 29.779258543089124 7.619905574494056 0 0.84804810408105047 0.52991925155115449 0.5 0 0 1 I I #
face $-1 $-1 $273 $36 $-1 $365 reversed single #
loop $-1 $-1 $366 $171 #
plane-surface $-1 0 0 11.193631852555658 0 0 1 1 0 0 forward_v I I I I #
coedge $-1 $367 $368 $369 $370 reversed $172 $-1 #
coedge $-1 $371 $174 $176 $271 forward $108 $-1 #
coedge $-1 $174 $371 $367 $372 forward $108 $-1 #
coedge $-1 $369 $177 $174 $268 forward $273 $-1 #
edge $-1 $275 -10.759606662041136 $373 3.5865355540137083 $267 $374 forward 7 unknown #
coedge $-1 $375 $376 $175 $270 forward $262 $-1 #
edge $-1 $377 -28.604408697970793 $274 -24.138184800044108 $269 $378 forward 7 unknown #
edge $-1 $275 -64.024740984104994 $377 -55.596619369626254 $176 $379 forward 7 unknown #
coedge $-1 $177 $369 $375 $380 reversed $273 $-1 #
loop $-1 $-1 $369 $261 #
vertex $-1 $380 $381 #
vertex $-1 $178 $382 #
straight-curve $-1 14.346142216054851 32.012370492052476 64.856370878883311 0 0 -1 I I #
coedge $-1 $277 $277 $-1 $383 reversed $181 $-1 #
edge $-1 $384 0 $384 6.2831853071796004 $182 $385 forward 7 unknown #
vertex $-1 $185 $386 #
ellipse-curve $-1 2.8692284432109716 29.779258543089124 7.619905574494056 0 0.84804810408105047 0.52991925155115449 0.5 0 0 1 I I #
coedge $-1 $281 $281 $-1 $387 reversed $188 $-1 #
edge $-1 $388 0 $388 6.2831853071796004 $189 $389 forward 7 unknown #
vertex $-1 $192 $390 #
ellipse-curve $-1 7.173071108027429 29.779258543089124 7.619905574494056 0 0.84804810408105047 0.52991925155115449 0.5 0 0 1 I I #
coedge $-1 $285 $285 $-1 $391 reversed $195 $-1 #
edge $-1 $392 0 $392 6.2831853071796004 $196 $393 forward 7 unknown #
vertex $-1 $199 $394 #
ellipse-curve $-1 11.476913772843872 29.779258543089124 7.619905574494056 0 0.84804810408105047 0.52991925155115449 0.5 0 0 1 I I #
face $-1 $-1 $215 $30 $-1 $395 reversed single #
loop $-1 $-1 $305 $200 #
plane-surface $-1 0 32.012370492052476 0 0 -1 0 0 0 -1 forward_v I I I I #
coedge $-1 $396 $303 $306 $397 forward $201 $-1 #
coedge $-1 $309 $203 $204 $297 reversed $127 $-1 #
coedge $-1 $303 $396 $203 $295 reversed $201 $-1 #
edge $-1 $310 -11.193631852555658 $398 11.193631852555658 $294 $399 forward 7 unknown #
coedge $-1 $205 $204 $396 $400 forward $81 $-1 #
edge $-1 $301 -67.340922269356369 $398 67.340922269356369 $293 $401 forward 7 unknown #
coedge $-1 $306 $305 $205 $299 reversed $290 $-1 #
edge $-1 $402 -67.340922269356369 $300 67.340922269356369 $298 $403 forward 7 unknown #
vertex $-1 $207 $404 #
vertex $-1 $312 $405 #
straight-curve $-1 67.340922269356369 0 -11.193631852555658 0 -1 0 I I #
coedge $-1 $292 $294 $208 $304 reversed $201 $-1 #
edge $-1 $307 -32.012370492052476 $310 32.012370492052476 $303 $406 forward 7 unknown #
coedge $-1 $298 $209 $214 $313 forward $290 $-1 #
coedge $-1 $209 $298 $292 $397 reversed $290 $-1 #
vertex $-1 $210 $407 #
straight-curve $-1 0 32.012370492052476 11.193631852555658 -1 0 0 I I #
coedge $-1 $211 $293 $213 $312 reversed $127 $-1 #
vertex $-1 $304 $408 #
straight-curve $-1 0 -32.012370492052476 11.193631852555658 1 0 0 I I #
edge $-1 $216 -11.193631852555658 $301 11.193631852555658 $213 $409 forward 7 unknown #
edge $-1 $217 -11.193631852555658 $300 11.193631852555658 $214 $410 forward 7 unknown #
point $-1 67.340922269356369 -32.012370492052476 11.193631852555658 #
point $-1 67.340922269356369 32.012370492052476 11.193631852555658 #
face $-1 $-1 $411 $31 $-1 $412 reversed single #
loop $-1 $-1 $229 $219 #
plane-surface $-1 0 -32.012370492052476 0 0 1 0 0 0 1 forward_v I I I I #
coedge $-1 $413 $222 $323 $414 forward $135 $-1 #
coedge $-1 $222 $413 $415 $416 forward $135 $-1 #
edge $-1 $417 -67.340922269356369 $324 67.340922269356369 $222 $418 forward 7 unknown #
coedge $-1 $224 $223 $419 $420 reversed $85 $-1 #
coedge $-1 $225 $231 $319 $414 reversed $220 $-1 #
vertex $-1 $414 $421 #
straight-curve $-1 67.340922269356369 -23.415857998354554 -4.8300485574416889 0 0 1 I I #
coedge $-1 $419 $422 $227 $327 forward $411 $-1 #
edge $-1 $332 -18.155313369450717 $328 -9.5588008757527962 $326 $423 forward 7 unknown #
vertex $-1 $327 $424 #
straight-curve $-1 0 -23.415857998354554 -8.1265623772110978 -1 0 0 I I #
coedge $-1 $425 $229 $422 $426 forward $317 $-1 #
coedge $-1 $229 $425 $231 $334 reversed $317 $-1 #
vertex $-1 $426 $427 #
straight-curve $-1 0 -32.012370492052476 -8.1265623772110978 -1 0 0 I I #
edge $-1 $233 8.1265623772110978 $428 11.193631852555658 $231 $429 forward 7 unknown #
point $-1 67.340922269356369 -23.415857998354554 -8.1265623772110978 #
point $-1 67.340922269356369 -32.012370492052476 -8.1265623772110978 #
loop $-1 $-1 $340 $235 #
plane-surface $-1 -67.340922269356369 0 0 1 0 0 0 0 -1 forward_v I I I I #
coedge $-1 $239 $238 $346 $430 reversed $89 $-1 #
coedge $-1 $431 $432 $239 $341 forward $337 $-1 #
edge $-1 $343 -38.778678857260097 $433 -30.350557242781349 $340 $434 forward 7 unknown #
coedge $-1 $245 $240 $432 $435 reversed $143 $-1 #
vertex $-1 $241 $436 #
straight-curve $-1 -30.083925580664474 32.012370492052476 4.046179296432431 -1 0 0 I I #
coedge $-1 $437 $242 $245 $350 forward $236 $-1 #
coedge $-1 $242 $437 $339 $430 forward $236 $-1 #
vertex $-1 $243 $438 #
straight-curve $-1 -52.994780053301525 56.150555292096584 11.193631852555654 0 1 0 I I #
straight-curve $-1 -52.994780053301525 -1.9155723310009733 58.342239502283007 0 -0.52991925155115449 0.84804810408105047 I I #
edge $-1 $246 52.994780053301525 $439 67.340922269356369 $245 $440 forward 7 unknown #
point $-1 -52.994780053301525 32.012370492052476 11.193631852555658 #
point $-1 -52.994780053301525 32.012370492052476 4.0461792964324275 #
edge $-1 $441 1 $441 0 $249 $-1 forward 7 unknown #
vertex $-1 $250 $442 #
ellipse-curve $-1 -64.471693826145398 28.678532633894925 6.9320957118740383 0 0.84804810408105047 0.52991925155115449 0.5 0 0 1 I I #
point $-1 -63.971693826145398 29.779258543089149 7.619905574494072 #
edge $-1 $443 1 $443 0 $253 $-1 forward 7 unknown #
vertex $-1 $254 $444 #
ellipse-curve $-1 -60.167851161328947 28.678532633894925 6.9320957118740383 0 0.84804810408105047 0.52991925155115449 0.5 0 0 1 I I #
point $-1 -59.667851161328947 29.779258543089149 7.619905574494072 #
edge $-1 $445 1 $445 0 $257 $-1 forward 7 unknown #
vertex $-1 $258 $446 #
ellipse-curve $-1 -55.864008496512497 28.678532633894925 6.9320957118740383 0 0.84804810408105047 0.52991925155115449 0.5 0 0 1 I I #
point $-1 -55.364008496512497 29.779258543089149 7.619905574494072 #
plane-surface $-1 0 32.012370492052476 0 0 -1 0 0 0 -1 forward_v I I I I #
coedge $-1 $376 $375 $368 $447 forward $262 $-1 #
coedge $-1 $368 $264 $266 $372 reversed $172 $-1 #
coedge $-1 $264 $367 $366 $447 reversed $172 $-1 #
coedge $-1 $272 $267 $264 $370 forward $273 $-1 #
edge $-1 $373 -60.810191582450884 $448 -53.662739026327657 $369 $449 forward 7 unknown #
coedge $-1 $266 $265 $376 $450 reversed $108 $-1 #
edge $-1 $451 55.596619369626254 $373 64.024740984104994 $367 $452 forward 7 unknown #
vertex $-1 $268 $453 #
straight-curve $-1 3.5865355540137145 32.012370492052476 4.046179296432431 -1 0 0 I I #
coedge $-1 $366 $269 $272 $380 forward $262 $-1 #
coedge $-1 $269 $366 $371 $450 forward $262 $-1 #
vertex $-1 $270 $454 #
straight-curve $-1 14.346142216054851 56.150555292096584 11.193631852555654 0 1 0 I I #
straight-curve $-1 14.346142216054851 -1.9155723310009733 58.342239502283007 0 -0.52991925155115449 0.84804810408105047 I I #
edge $-1 $274 -14.346142216054851 $448 -6.2172489379008766e-015 $272 $455 forward 7 unknown #
point $-1 14.346142216054851 32.012370492052476 11.193631852555658 #
point $-1 14.346142216054851 32.012370492052476 4.0461792964324275 #
edge $-1 $456 1 $456 0 $277 $-1 forward 7 unknown #
vertex $-1 $278 $457 #
ellipse-curve $-1 2.8692284432109716 28.678532633894925 6.9320957118740383 0 0.84804810408105047 0.52991925155115449 0.5 0 0 1 I I #
point $-1 3.3692284432109716 29.779258543089149 7.619905574494072 #
edge $-1 $458 1 $458 0 $281 $-1 forward 7 unknown #
vertex $-1 $282 $459 #
ellipse-curve $-1 7.173071108027429 28.678532633894925 6.9320957118740383 0 0.84804810408105047 0.52991925155115449 0.5 0 0 1 I I #
point $-1 7.673071108027429 29.779258543089149 7.619905574494072 #
edge $-1 $460 1 $460 0 $285 $-1 forward 7 unknown #
vertex $-1 $286 $461 #
ellipse-curve $-1 11.476913772843872 28.678532633894925 6.9320957118740383 0 0.84804810408105047 0.52991925155115449 0.5 0 0 1 I I #
point $-1 11.976913772843872 29.779258543089149 7.619905574494072 #
plane-surface $-1 67.340922269356369 0 0 -1 0 0 0 0 1 forward_v I I I I #
coedge $-1 $294 $292 $296 $400 reversed $201 $-1 #
edge $-1 $307 -11.193631852555658 $402 11.193631852555658 $306 $462 forward 7 unknown #
vertex $-1 $400 $463 #
straight-curve $-1 -67.340922269356369 -32.012370492052476 0 0 0 -1 I I #
edge $-1 $398 -32.012370492052476 $402 32.012370492052476 $396 $464 forward 7 unknown #
straight-curve $-1 0 -32.012370492052476 -11.193631852555658 -1 0 0 I I #
vertex $-1 $299 $465 #
straight-curve $-1 0 32.012370492052476 -11.193631852555658 1 0 0 I I #
point $-1 67.340922269356369 32.012370492052476 -11.193631852555658 #
point $-1 67.340922269356369 -32.012370492052476 -11.193631852555658 #
straight-curve $-1 -67.340922269356369 0 11.193631852555658 0 -1 0 I I #
point $-1 -67.340922269356369 32.012370492052476 11.193631852555658 #
point $-1 -67.340922269356369 -32.012370492052476 11.193631852555658 #
straight-curve $-1 67.340922269356369 -32.012370492052476 0 0 0 -1 I I #
straight-curve $-1 67.340922269356369 32.012370492052476 0 0 0 -1 I I #
loop $-1 $-1 $419 $316 #
plane-surface $-1 -67.340922269356369 0 0 1 0 0 0 0 -1 forward_v I I I I #
coedge $-1 $320 $319 $425 $466 forward $135 $-1 #
edge $-1 $324 23.415857998354554 $428 32.012370492052476 $323 $467 forward 7 unknown #
coedge $-1 $422 $419 $320 $416 reversed $411 $-1 #
edge $-1 $468 -32.012370492052476 $417 -23.415857998354554 $415 $469 forward 7 unknown #
vertex $-1 $420 $470 #
straight-curve $-1 0 -23.415857998354554 -11.193631852555658 1 0 0 I I #
coedge $-1 $415 $326 $322 $420 forward $411 $-1 #
edge $-1 $328 3.2965138197694088 $417 6.363583295113969 $419 $471 forward 7 unknown #
point $-1 67.340922269356369 -23.415857998354554 -11.193631852555658 #
coedge $-1 $326 $415 $330 $426 reversed $411 $-1 #
straight-curve $-1 -67.340922269356369 -13.857057122601757 -8.1265623772110978 0 1 0 I I #
point $-1 -67.340922269356369 -23.415857998354554 -8.1265623772110978 #
coedge $-1 $331 $330 $413 $466 reversed $317 $-1 #
edge $-1 $332 8.1265623772110978 $468 11.193631852555658 $422 $472 forward 7 unknown #
point $-1 -67.340922269356369 -32.012370492052476 -8.1265623772110978 #
vertex $-1 $334 $473 #
straight-curve $-1 67.340922269356369 -32.012370492052476 0 0 0 -1 I I #
edge $-1 $433 -37.256996688691899 $347 -22.910854472637052 $346 $474 forward 7 unknown #
coedge $-1 $432 $340 $437 $475 reversed $337 $-1 #
coedge $-1 $340 $431 $342 $435 forward $337 $-1 #
vertex $-1 $341 $476 #
straight-curve $-1 -67.340922269356369 11.462802015870626 36.93236438009977 0 -0.52991925155115449 0.84804810408105047 I I #
edge $-1 $439 -11.193631852555658 $343 -4.0461792964324284 $342 $477 forward 7 unknown #
point $-1 -67.340922269356369 32.012370492052476 4.0461792964324284 #
coedge $-1 $346 $345 $431 $475 forward $236 $-1 #
point $-1 -52.994780053301525 27.546146594125791 11.193631852555654 #
vertex $-1 $350 $478 #
straight-curve $-1 0 32.012370492052476 11.193631852555658 -1 0 0 I I #
vertex $-1 $353 $479 #
point $-1 -63.971693826145398 28.678532633894925 6.9320957118740383 #
vertex $-1 $357 $480 #
point $-1 -59.667851161328947 28.678532633894925 6.9320957118740383 #
vertex $-1 $361 $481 #
point $-1 -55.364008496512497 28.678532633894925 6.9320957118740383 #
edge $-1 $448 24.138184800044108 $451 28.604408697970793 $366 $482 forward 7 unknown #
vertex $-1 $447 $483 #
straight-curve $-1 6.2172489379008766e-015 32.012370492052476 64.856370878883311 0 0 1 I I #
edge $-1 $451 -3.5865355540137083 $377 10.759606662041136 $376 $484 forward 7 unknown #
vertex $-1 $450 $485 #
straight-curve $-1 6.2172489379008766e-015 -1.9155723310009733 58.342239502283007 0 0.52991925155115449 -0.84804810408105047 I I #
point $-1 6.2172489379008766e-015 32.012370492052476 4.0461792964324275 #
point $-1 14.346142216054851 27.546146594125791 11.193631852555654 #
straight-curve $-1 0 32.012370492052476 11.193631852555658 -1 0 0 I I #
vertex $-1 $383 $486 #
point $-1 3.3692284432109716 28.678532633894925 6.9320957118740383 #
vertex $-1 $387 $487 #
point $-1 7.673071108027429 28.678532633894925 6.9320957118740383 #
vertex $-1 $391 $488 #
point $-1 11.976913772843872 28.678532633894925 6.9320957118740383 #
straight-curve $-1 -67.340922269356369 32.012370492052476 0 0 0 -1 I I #
point $-1 -67.340922269356369 -32.012370492052476 -11.193631852555658 #
straight-curve $-1 -67.340922269356369 0 -11.193631852555658 0 1 0 I I #
point $-1 -67.340922269356369 32.012370492052476 -11.193631852555658 #
edge $-1 $428 -67.340922269356369 $468 67.340922269356369 $425 $489 forward 7 unknown #
straight-curve $-1 67.340922269356369 0 -11.193631852555658 0 -1 0 I I #
vertex $-1 $416 $490 #
straight-curve $-1 -67.340922269356369 0 -11.193631852555658 0 1 0 I I #
point $-1 -67.340922269356369 -23.415857998354554 -11.193631852555658 #
straight-curve $-1 -67.340922269356369 -23.415857998354554 -4.8300485574416889 0 0 -1 I I #
straight-curve $-1 -67.340922269356369 -32.012370492052476 0 0 0 -1 I I #
point $-1 67.340922269356369 -32.012370492052476 -11.193631852555658 #
straight-curve $-1 -30.083925580664474 27.546146594125787 11.193631852555658 1 0 0 I I #
edge $-1 $439 -32.012370492052476 $433 -27.546146594125791 $431 $491 forward 7 unknown #
point $-1 -67.340922269356369 27.546146594125791 11.193631852555654 #
straight-curve $-1 -67.340922269356369 32.012370492052476 0 0 0 -1 I I #
point $-1 -67.340922269356369 32.012370492052476 11.193631852555658 #
point $-1 -64.471693826145398 28.254508581854402 6.6671360860984619 #
point $-1 -60.167851161328947 28.254508581854402 6.6671360860984619 #
point $-1 -55.864008496512497 28.254508581854402 6.6671360860984619 #
straight-curve $-1 6.2172489379008766e-015 56.150555292096584 11.193631852555654 0 -1 0 I I #
point $-1 6.2172489379008766e-015 32.012370492052476 11.193631852555658 #
straight-curve $-1 3.5865355540137145 27.546146594125787 11.193631852555658 1 0 0 I I #
point $-1 6.2172489379008766e-015 27.546146594125791 11.193631852555654 #
point $-1 2.8692284432109716 28.254508581854402 6.6671360860984619 #
point $-1 7.173071108027429 28.254508581854402 6.6671360860984619 #
point $-1 11.476913772843872 28.254508581854402 6.6671360860984619 #
straight-curve $-1 0 -32.012370492052476 -11.193631852555658 -1 0 0 I I #
point $-1 -67.340922269356369 -32.012370492052476 -11.193631852555658 #
straight-curve $-1 -67.340922269356369 0 11.193631852555658 0 -1 0 I I #
End-of-ACIS-data 