500 0 8 0           
7 Unknown 11 ACIS 5.0 NT 24 Thu Mar 25 18:45:11 1999 
-1 9.9999999999999995e-007 1e-010 
body $-1 $8 $-1 $9 #
body $-1 $10 $-1 $11 #
body $-1 $12 $-1 $13 #
body $-1 $14 $-1 $15 #
body $-1 $16 $-1 $17 #
body $-1 $18 $-1 $19 #
body $-1 $20 $-1 $21 #
body $-1 $22 $-1 $23 #
lump $-1 $-1 $24 $0 #
transform $-1 1 0 0 0 1 0 0 0 1 46.820276497695851 26.889473350379632 9.5763847227268339 1 rotate no_reflect no_shear #
lump $-1 $-1 $25 $1 #
transform $-1 1 0 0 0 1 0 0 0 1 46.820276497695851 26.889473350379632 9.5763847227268339 1 rotate no_reflect no_shear #
lump $-1 $-1 $26 $2 #
transform $-1 1 0 0 0 1 0 0 0 1 46.820276497695851 26.889473350379632 9.5763847227268339 1 rotate no_reflect no_shear #
lump $-1 $-1 $27 $3 #
transform $-1 1 0 0 0 1 0 0 0 1 46.820276497695851 26.889473350379632 9.5763847227268339 1 rotate no_reflect no_shear #
lump $-1 $-1 $28 $4 #
transform $-1 1 0 0 0 1 0 0 0 1 46.820276497695851 26.889473350379632 9.5763847227268339 1 rotate no_reflect no_shear #
lump $-1 $-1 $29 $5 #
transform $-1 1 0 0 0 1 0 0 0 1 46.820276497695851 26.889473350379632 9.5763847227268339 1 rotate no_reflect no_shear #
lump $-1 $-1 $30 $6 #
transform $-1 1 0 0 0 1 0 0 0 1 46.820276497695851 26.889473350379632 9.5763847227268339 1 rotate no_reflect no_shear #
lump $-1 $-1 $31 $7 #
transform $-1 1 0 0 0 1 0 0 0 1 46.820276497695851 26.889473350379632 9.5763847227268339 1 rotate no_reflect no_shear #
shell $-1 $-1 $-1 $32 $-1 $8 #
shell $-1 $-1 $-1 $33 $-1 $10 #
shell $-1 $-1 $-1 $34 $-1 $12 #
shell $-1 $-1 $-1 $35 $-1 $14 #
shell $-1 $-1 $-1 $36 $-1 $16 #
shell $-1 $-1 $-1 $37 $-1 $18 #
shell $-1 $-1 $-1 $38 $-1 $20 #
shell $-1 $-1 $-1 $39 $-1 $22 #
face $-1 $40 $41 $24 $-1 $42 forward single #
face $-1 $43 $44 $25 $-1 $45 forward single #
face $-1 $46 $47 $26 $-1 $48 forward single #
face $-1 $49 $50 $27 $-1 $51 reversed single #
face $-1 $52 $53 $28 $-1 $54 forward single #
face $-1 $55 $56 $29 $-1 $57 forward single #
face $-1 $58 $59 $30 $-1 $60 reversed single #
face $-1 $61 $62 $31 $-1 $63 forward single #
face $-1 $64 $65 $24 $-1 $66 reversed single #
loop $-1 $-1 $67 $32 #
plane-surface $-1 0 0 9.5763847227268339 0 0 1 1 0 0 forward_v I I I I #
face $-1 $68 $69 $25 $-1 $70 forward single #
loop $-1 $-1 $71 $33 #
plane-surface $-1 0 -26.889473350379632 0 0 1 0 0 0 1 forward_v I I I I #
face $-1 $72 $73 $26 $-1 $74 reversed single #
loop $-1 $-1 $75 $34 #
plane-surface $-1 0 26.889473350379632 0 0 -1 0 0 0 -1 forward_v I I I I #
face $-1 $76 $77 $27 $-1 $78 reversed single #
loop $-1 $-1 $79 $35 #
plane-surface $-1 -125.35385301059384 -15.778756822208845 54.925417710527732 0 1 0 -0.83867057594974714 0 0.54463902268945019 forward_v I I I I #
face $-1 $80 $81 $28 $-1 $82 forward single #
loop $-1 $83 $84 $36 #
cone-surface $-1 -43.742051377305032 -13.165937798057428 5.943383695406153 0.83867057594974714 0 -0.54463902268945019 0.54463902268945019 0 0.83867057594974714 1 I I 0 1 1 forward I I I I #
face $-1 $85 $86 $29 $-1 $87 forward single #
loop $-1 $88 $89 $37 #
cone-surface $-1 -43.742051377305032 -9.2467092618303006 5.943383695406153 0.83867057594974714 0 -0.54463902268945019 0.54463902268945019 0 0.83867057594974714 1 I I 0 1 1 forward I I I I #
face $-1 $90 $91 $30 $-1 $92 reversed single #
loop $-1 $-1 $93 $38 #
plane-surface $-1 21.551873601365692 -10.649517183887347 130.43340307204258 0 -1 0 -0.55919291073839883 0 -0.82903756765294845 forward_v I I I I #
face $-1 $94 $95 $31 $-1 $96 forward single #
loop $-1 $97 $98 $39 #
cone-surface $-1 39.100965166340053 -15.434433875339154 3.6054287448513591 -0.55919291073839883 0 -0.82903756765294845 0.82903756765294845 0 -0.55919291073839883 1 I I 0 1 1 forward I I I I #
face $-1 $99 $100 $24 $-1 $101 reversed single #
loop $-1 $-1 $102 $40 #
plane-surface $-1 0 0 -9.5763847227268339 0 0 1 1 0 0 forward_v I I I I #
coedge $-1 $103 $104 $105 $106 forward $41 $-1 #
face $-1 $107 $108 $25 $-1 $109 reversed single #
loop $-1 $-1 $110 $43 #
plane-surface $-1 0 0 9.5763847227268339 0 0 1 1 0 0 forward_v I I I I #
coedge $-1 $111 $112 $113 $114 forward $44 $-1 #
face $-1 $115 $116 $26 $-1 $117 reversed single #
loop $-1 $-1 $118 $46 #
plane-surface $-1 46.820276497695851 0 0 -1 0 0 0 0 1 forward_v I I I I #
coedge $-1 $119 $120 $121 $122 forward $47 $-1 #
face $-1 $123 $124 $27 $-1 $125 reversed single #
loop $-1 $-1 $126 $49 #
plane-surface $-1 -46.820276497695858 -11.206323529943864 3.9251184430179293 -0.83867057594974714 0 0.54463902268945019 0.54463902268945019 0 0.83867057594974714 forward_v I I I I #
coedge $-1 $127 $128 $129 $130 reversed $50 $-1 #
face $-1 $-1 $131 $28 $-1 $132 forward single #
loop $-1 $133 $134 $52 #
cone-surface $-1 -42.079478526511011 -13.165937798057428 4.8636962965951955 0.83867057594974714 0 -0.54463902268945019 0.2723195113447251 0 0.41933528797487357 1 I I -0.70710678118654746 0.70710678118654746 0.5 forward I I I I #
loop $-1 $-1 $135 $36 #
coedge $-1 $84 $84 $136 $137 reversed $53 $-1 #
face $-1 $-1 $138 $29 $-1 $139 forward single #
loop $-1 $140 $141 $55 #
cone-surface $-1 -42.079478526511011 -9.2467092618303006 4.8636962965951955 0.83867057594974714 0 -0.54463902268945019 0.2723195113447251 0 0.41933528797487357 1 I I -0.70710678118654746 0.70710678118654746 0.5 forward I I I I #
loop $-1 $-1 $142 $37 #
coedge $-1 $89 $89 $143 $144 reversed $56 $-1 #
face $-1 $145 $146 $30 $-1 $147 reversed single #
loop $-1 $-1 $148 $58 #
plane-surface $-1 -30.811259791280683 -15.434433875339154 52.801866783066032 0.55919291073839883 0 0.82903756765294845 0.82903756765294845 0 -0.55919291073839883 forward_v I I I I #
coedge $-1 $149 $150 $151 $152 reversed $59 $-1 #
face $-1 $-1 $153 $31 $-1 $154 forward single #
loop $-1 $155 $156 $61 #
cone-surface $-1 37.875619856107711 -15.434433875339154 1.788779649302997 -0.55919291073839883 0 -0.82903756765294845 0.41451878382647422 0 -0.27959645536919941 1 I I -0.70710678118654746 0.70710678118654746 0.5 forward I I I I #
loop $-1 $-1 $157 $39 #
coedge $-1 $98 $98 $158 $159 reversed $62 $-1 #
face $-1 $160 $161 $24 $-1 $162 reversed single #
loop $-1 $-1 $163 $64 #
plane-surface $-1 0 -26.889473350379632 0 0 1 0 0 0 1 forward_v I I I I #
coedge $-1 $164 $165 $166 $167 forward $65 $-1 #
coedge $-1 $168 $67 $169 $170 forward $41 $-1 #
coedge $-1 $67 $168 $171 $172 forward $41 $-1 #
coedge $-1 $173 $174 $67 $106 reversed $175 $-1 #
edge $-1 $176 -26.889473350379632 $177 26.889473350379632 $105 $178 forward 7 unknown #
face $-1 $179 $180 $25 $-1 $181 reversed single #
loop $-1 $-1 $182 $68 #
plane-surface $-1 -46.820276497695851 0 0 1 0 0 0 0 -1 forward_v I I I I #
coedge $-1 $183 $184 $185 $186 forward $69 $-1 #
coedge $-1 $185 $71 $182 $187 reversed $44 $-1 #
coedge $-1 $71 $185 $188 $189 reversed $44 $-1 #
coedge $-1 $190 $191 $71 $114 reversed $180 $-1 #
edge $-1 $192 -46.820276497695851 $193 46.820276497695851 $113 $194 forward 7 unknown #
face $-1 $195 $196 $26 $-1 $197 reversed single #
loop $-1 $-1 $198 $72 #
plane-surface $-1 0 30.224534742173972 5.7126888912075202 0 0 1 1 0 0 forward_v I I I I #
coedge $-1 $199 $200 $119 $201 forward $73 $-1 #
coedge $-1 $202 $75 $118 $201 reversed $47 $-1 #
coedge $-1 $75 $202 $203 $204 reversed $47 $-1 #
coedge $-1 $205 $198 $75 $122 reversed $116 $-1 #
edge $-1 $206 -46.820276497695851 $207 46.820276497695851 $121 $208 forward 7 unknown #
face $-1 $209 $210 $27 $-1 $211 reversed single #
loop $-1 $-1 $212 $76 #
plane-surface $-1 -125.35385301059384 -6.6338902376788838 54.925417710527732 0 -1 0 0.83867057594974714 0 -0.54463902268945019 forward_v I I I I #
coedge $-1 $213 $214 $215 $216 reversed $77 $-1 #
coedge $-1 $128 $79 $217 $218 reversed $50 $-1 #
coedge $-1 $79 $127 $213 $219 reversed $50 $-1 #
coedge $-1 $215 $220 $79 $130 forward $221 $-1 #
edge $-1 $222 15.856650007601068 $223 19.526625122744399 $129 $224 forward 7 unknown #
loop $-1 $-1 $136 $80 #
plane-surface $-1 -46.820276497695858 -11.206323529943864 3.9251184430179293 -0.83867057594974714 0 0.54463902268945019 0.54463902268945019 0 0.83867057594974714 forward_v I I I I #
loop $-1 $-1 $225 $52 #
coedge $-1 $134 $134 $135 $226 reversed $81 $-1 #
coedge $-1 $135 $135 $134 $226 forward $83 $-1 #
coedge $-1 $136 $136 $84 $137 forward $131 $-1 #
edge $-1 $227 0 $227 6.2831853071796004 $136 $228 forward 7 unknown #
loop $-1 $-1 $143 $85 #
plane-surface $-1 -46.820276497695858 -11.206323529943864 3.9251184430179293 -0.83867057594974714 0 0.54463902268945019 0.54463902268945019 0 0.83867057594974714 forward_v I I I I #
loop $-1 $-1 $229 $55 #
coedge $-1 $141 $141 $142 $230 reversed $86 $-1 #
coedge $-1 $142 $142 $141 $230 forward $88 $-1 #
coedge $-1 $143 $143 $89 $144 forward $138 $-1 #
edge $-1 $231 0 $231 6.2831853071796004 $143 $232 forward 7 unknown #
face $-1 $233 $234 $30 $-1 $235 forward single #
loop $-1 $-1 $236 $90 #
plane-surface $-1 21.551873601365692 -20.219350566790961 130.43340307204258 0 1 0 0.55919291073839883 0 0.82903756765294845 forward_v I I I I #
coedge $-1 $237 $238 $239 $240 reversed $91 $-1 #
coedge $-1 $150 $93 $241 $242 reversed $59 $-1 #
coedge $-1 $93 $149 $237 $243 reversed $59 $-1 #
coedge $-1 $239 $244 $93 $152 forward $234 $-1 #
edge $-1 $245 -36.044339697013001 $246 -22.497214744027676 $151 $247 forward 7 unknown #
loop $-1 $-1 $158 $94 #
plane-surface $-1 -30.811259791280683 -15.434433875339154 52.801866783066032 0.55919291073839883 0 0.82903756765294845 0.82903756765294845 0 -0.55919291073839883 forward_v I I I I #
loop $-1 $-1 $248 $61 #
coedge $-1 $156 $156 $157 $249 reversed $95 $-1 #
coedge $-1 $157 $157 $156 $249 forward $97 $-1 #
coedge $-1 $158 $158 $98 $159 forward $153 $-1 #
edge $-1 $250 0 $250 6.2831853071796004 $158 $251 forward 7 unknown #
face $-1 $252 $253 $24 $-1 $254 reversed single #
loop $-1 $-1 $255 $99 #
plane-surface $-1 -46.820276497695851 0 0 1 0 0 0 0 -1 forward_v I I I I #
coedge $-1 $256 $171 $257 $258 forward $100 $-1 #
coedge $-1 $259 $102 $256 $260 forward $65 $-1 #
coedge $-1 $102 $259 $261 $262 forward $65 $-1 #
coedge $-1 $174 $173 $102 $167 reversed $175 $-1 #
edge $-1 $263 -26.889473350379632 $264 26.889473350379632 $166 $265 forward 7 unknown #
coedge $-1 $104 $103 $266 $267 forward $41 $-1 #
coedge $-1 $268 $269 $103 $170 reversed $253 $-1 #
edge $-1 $177 -46.820276497695851 $270 46.820276497695851 $169 $271 forward 7 unknown #
coedge $-1 $163 $272 $104 $172 reversed $100 $-1 #
edge $-1 $273 -46.820276497695851 $176 46.820276497695851 $171 $274 forward 7 unknown #
coedge $-1 $166 $105 $272 $275 forward $175 $-1 #
coedge $-1 $105 $166 $268 $276 reversed $175 $-1 #
loop $-1 $-1 $173 $252 #
vertex $-1 $106 $277 #
vertex $-1 $106 $278 #
straight-curve $-1 46.820276497695851 0 9.5763847227268339 0 1 0 I I #
face $-1 $279 $280 $25 $-1 $281 reversed single #
loop $-1 $-1 $190 $107 #
plane-surface $-1 0 -30.224534742173969 5.7126888912075202 0 0 1 1 0 0 forward_v I I I I #
coedge $-1 $282 $283 $111 $187 forward $108 $-1 #
coedge $-1 $284 $110 $283 $285 forward $69 $-1 #
coedge $-1 $110 $284 $286 $287 forward $69 $-1 #
coedge $-1 $112 $111 $110 $186 reversed $44 $-1 #
edge $-1 $288 -46.820276497695851 $289 46.820276497695851 $110 $290 forward 7 unknown #
edge $-1 $289 -9.5763847227268339 $193 -5.7126888912075202 $182 $291 forward 7 unknown #
coedge $-1 $286 $292 $112 $189 forward $293 $-1 #
edge $-1 $192 5.7126888912075202 $288 9.5763847227268339 $188 $294 forward 7 unknown #
coedge $-1 $295 $113 $292 $296 forward $180 $-1 #
coedge $-1 $113 $295 $282 $297 forward $180 $-1 #
vertex $-1 $189 $298 #
vertex $-1 $187 $299 #
straight-curve $-1 0 -26.889473350379632 5.7126888912075202 -1 0 0 I I #
face $-1 $300 $301 $26 $-1 $302 forward single #
loop $-1 $-1 $303 $115 #
plane-surface $-1 0 33.559596133968313 7.6445368069671762 0 -1 0 0 0 -1 forward_v I I I I #
coedge $-1 $121 $304 $199 $305 forward $116 $-1 #
coedge $-1 $306 $118 $198 $305 reversed $73 $-1 #
coedge $-1 $118 $306 $307 $308 reversed $73 $-1 #
edge $-1 $309 -9.5763847227268339 $207 -5.7126888912075202 $118 $310 forward 7 unknown #
coedge $-1 $120 $119 $311 $312 reversed $47 $-1 #
coedge $-1 $313 $314 $120 $204 forward $315 $-1 #
edge $-1 $206 5.7126888912075202 $316 9.5763847227268339 $203 $317 forward 7 unknown #
coedge $-1 $304 $121 $314 $318 forward $116 $-1 #
vertex $-1 $204 $319 #
vertex $-1 $201 $320 #
straight-curve $-1 0 26.889473350379632 5.7126888912075202 1 0 0 I I #
face $-1 $-1 $221 $27 $-1 $321 forward single #
loop $-1 $-1 $322 $123 #
plane-surface $-1 -46.820276497695851 0 0 1 0 0 0 0 -1 forward_v I I I I #
coedge $-1 $323 $324 $325 $326 reversed $124 $-1 #
coedge $-1 $327 $126 $128 $219 forward $77 $-1 #
coedge $-1 $126 $327 $323 $328 forward $77 $-1 #
coedge $-1 $325 $129 $126 $216 forward $221 $-1 #
edge $-1 $223 -10.175595057236912 $329 -1.0307284727069517 $215 $330 forward 7 unknown #
coedge $-1 $331 $332 $127 $218 forward $210 $-1 #
edge $-1 $333 -23.537590412245926 $222 -17.886324132537034 $217 $334 forward 7 unknown #
edge $-1 $223 -6.7383624056551215 $333 -1.3181006846785195e-014 $128 $335 forward 7 unknown #
coedge $-1 $129 $325 $331 $336 forward $221 $-1 #
loop $-1 $-1 $325 $209 #
vertex $-1 $218 $337 #
vertex $-1 $130 $338 #
straight-curve $-1 -62.676926505296919 -15.778756822208845 9.5763847227268357 1 0 0 I I #
coedge $-1 $225 $225 $-1 $339 reversed $133 $-1 #
edge $-1 $340 0 $340 6.2831853071796004 $134 $341 forward 7 unknown #
vertex $-1 $137 $342 #
ellipse-curve $-1 -44.985288940124185 -13.165937798057428 6.7507515828723879 -0.83867057594974714 0 0.54463902268945019 0.54463902268945019 0 0.83867057594974714 1 I I #
coedge $-1 $229 $229 $-1 $343 reversed $140 $-1 #
edge $-1 $344 0 $344 6.2831853071796004 $141 $345 forward 7 unknown #
vertex $-1 $144 $346 #
ellipse-curve $-1 -44.985288940124185 -9.2467092618303006 6.7507515828723879 -0.83867057594974714 0 0.54463902268945019 0.54463902268945019 0 0.83867057594974714 1 I I #
face $-1 $-1 $347 $30 $-1 $348 reversed single #
loop $-1 $-1 $151 $145 #
plane-surface $-1 0 0 9.5763847227268339 0 0 1 1 0 0 forward_v I I I I #
coedge $-1 $349 $350 $351 $352 reversed $146 $-1 #
coedge $-1 $353 $148 $150 $243 forward $91 $-1 #
coedge $-1 $148 $353 $349 $354 forward $91 $-1 #
coedge $-1 $351 $151 $148 $240 forward $234 $-1 #
edge $-1 $246 2.9323002462177703 $355 12.502133629121385 $239 $356 forward 7 unknown #
coedge $-1 $357 $358 $149 $242 forward $347 $-1 #
edge $-1 $359 -64.777968145601619 $245 -55.640316813294454 $241 $360 forward 7 unknown #
edge $-1 $246 77.29976762985271 $359 93.640552995391673 $150 $361 forward 7 unknown #
coedge $-1 $151 $351 $357 $362 forward $234 $-1 #
vertex $-1 $242 $363 #
vertex $-1 $152 $364 #
straight-curve $-1 10.775936800682846 -10.649517183887347 9.5763847227268357 -1 0 0 I I #
coedge $-1 $248 $248 $-1 $365 reversed $155 $-1 #
edge $-1 $366 0 $366 6.2831853071796004 $156 $367 forward 7 unknown #
vertex $-1 $159 $368 #
ellipse-curve $-1 40.046714021203194 -15.434433875339154 5.0075590565732426 0.55919291073839883 0 0.82903756765294845 0.82903756765294845 0 -0.55919291073839883 1 I I #
face $-1 $-1 $175 $24 $-1 $369 reversed single #
loop $-1 $-1 $268 $160 #
plane-surface $-1 0 26.889473350379632 0 0 -1 0 0 0 -1 forward_v I I I I #
coedge $-1 $370 $266 $269 $371 forward $161 $-1 #
coedge $-1 $272 $163 $164 $260 reversed $100 $-1 #
coedge $-1 $266 $370 $163 $258 reversed $161 $-1 #
edge $-1 $273 -9.5763847227268339 $372 9.5763847227268339 $257 $373 forward 7 unknown #
coedge $-1 $165 $164 $370 $374 forward $65 $-1 #
edge $-1 $264 -46.820276497695851 $372 46.820276497695851 $256 $375 forward 7 unknown #
coedge $-1 $269 $268 $165 $262 reversed $253 $-1 #
edge $-1 $376 -46.820276497695851 $263 46.820276497695851 $261 $377 forward 7 unknown #
vertex $-1 $167 $378 #
vertex $-1 $275 $379 #
straight-curve $-1 46.820276497695851 0 -9.5763847227268339 0 -1 0 I I #
coedge $-1 $255 $257 $168 $267 reversed $161 $-1 #
edge $-1 $270 -26.889473350379632 $273 26.889473350379632 $266 $380 forward 7 unknown #
coedge $-1 $261 $169 $174 $276 forward $253 $-1 #
coedge $-1 $169 $261 $255 $371 reversed $253 $-1 #
vertex $-1 $170 $381 #
straight-curve $-1 0 26.889473350379632 9.5763847227268339 -1 0 0 I I #
coedge $-1 $171 $256 $173 $275 reversed $100 $-1 #
vertex $-1 $267 $382 #
straight-curve $-1 0 -26.889473350379632 9.5763847227268339 1 0 0 I I #
edge $-1 $176 -9.5763847227268339 $264 9.5763847227268339 $173 $383 forward 7 unknown #
edge $-1 $177 -9.5763847227268339 $263 9.5763847227268339 $174 $384 forward 7 unknown #
point $-1 46.820276497695851 -26.889473350379632 9.5763847227268339 #
point $-1 46.820276497695851 26.889473350379632 9.5763847227268339 #
face $-1 $-1 $293 $25 $-1 $385 reversed single #
loop $-1 $-1 $386 $179 #
plane-surface $-1 0 -33.559596133968306 7.6445368069671762 0 1 0 0 0 1 forward_v I I I I #
coedge $-1 $387 $182 $191 $297 reversed $108 $-1 #
coedge $-1 $182 $387 $183 $285 reversed $108 $-1 #
coedge $-1 $184 $183 $388 $389 forward $69 $-1 #
edge $-1 $289 26.889473350379632 $390 33.559596133968306 $283 $391 forward 7 unknown #
coedge $-1 $392 $188 $184 $287 reversed $293 $-1 #
edge $-1 $393 -33.559596133968306 $288 -26.889473350379632 $286 $394 forward 7 unknown #
vertex $-1 $189 $395 #
vertex $-1 $285 $396 #
straight-curve $-1 0 -26.889473350379632 9.5763847227268339 -1 0 0 I I #
straight-curve $-1 -46.820276497695851 -26.889473350379632 0 0 0 -1 I I #
coedge $-1 $188 $392 $190 $296 reversed $293 $-1 #
loop $-1 $-1 $188 $279 #
straight-curve $-1 46.820276497695851 -26.889473350379632 0 0 0 1 I I #
coedge $-1 $191 $190 $397 $398 forward $180 $-1 #
edge $-1 $192 -3.335061391794337 $399 3.335061391794337 $292 $400 forward 7 unknown #
edge $-1 $401 -3.335061391794337 $193 3.335061391794337 $282 $402 forward 7 unknown #
point $-1 46.820276497695851 -26.889473350379632 5.7126888912075202 #
point $-1 -46.820276497695851 -26.889473350379632 5.7126888912075202 #
face $-1 $-1 $315 $26 $-1 $403 reversed single #
loop $-1 $-1 $311 $195 #
plane-surface $-1 0 0 9.5763847227268339 0 0 1 1 0 0 forward_v I I I I #
coedge $-1 $404 $405 $306 $406 forward $196 $-1 #
coedge $-1 $198 $205 $404 $407 forward $116 $-1 #
edge $-1 $408 -3.3350613917943406 $207 3.335061391794337 $199 $409 forward 7 unknown #
coedge $-1 $200 $199 $303 $406 reversed $73 $-1 #
coedge $-1 $410 $311 $200 $308 forward $301 $-1 #
edge $-1 $309 26.889473350379632 $411 33.559596133968313 $200 $412 forward 7 unknown #
vertex $-1 $308 $413 #
straight-curve $-1 46.820276497695851 26.889473350379632 0 0 0 -1 I I #
coedge $-1 $307 $414 $202 $312 forward $301 $-1 #
edge $-1 $316 -46.820276497695851 $309 46.820276497695851 $311 $415 forward 7 unknown #
coedge $-1 $416 $203 $414 $417 reversed $315 $-1 #
coedge $-1 $203 $416 $205 $318 reversed $315 $-1 #
loop $-1 $-1 $203 $300 #
vertex $-1 $204 $418 #
straight-curve $-1 -46.820276497695851 26.889473350379632 0 0 0 1 I I #
edge $-1 $206 -3.335061391794337 $419 3.3350613917943406 $314 $420 forward 7 unknown #
point $-1 -46.820276497695851 26.889473350379635 5.7126888912075202 #
point $-1 46.820276497695851 26.889473350379635 5.7126888912075202 #
plane-surface $-1 0 0 9.5763847227268339 0 0 1 1 0 0 forward_v I I I I #
coedge $-1 $332 $331 $324 $421 forward $210 $-1 #
coedge $-1 $324 $212 $214 $328 reversed $124 $-1 #
coedge $-1 $212 $323 $322 $421 reversed $124 $-1 #
coedge $-1 $220 $215 $212 $326 forward $221 $-1 #
edge $-1 $329 -19.526625122744399 $422 -15.856650007601068 $325 $423 forward 7 unknown #
coedge $-1 $214 $213 $332 $424 reversed $77 $-1 #
edge $-1 $425 1.3181006846785195e-014 $329 6.7383624056551215 $323 $426 forward 7 unknown #
vertex $-1 $216 $427 #
straight-curve $-1 -43.150301382552527 -5.6031617649719321 9.5763847227268322 0 1 0 I I #
coedge $-1 $322 $217 $220 $336 reversed $210 $-1 #
coedge $-1 $217 $322 $327 $424 forward $210 $-1 #
vertex $-1 $218 $428 #
straight-curve $-1 -46.820276497695851 -15.778756822208845 27.462708855263866 0 0 1 I I #
straight-curve $-1 -46.820276497695858 -15.778756822208845 3.9251184430179293 -0.54463902268945019 0 -0.83867057594974714 I I #
edge $-1 $422 6.6338902376788838 $222 15.778756822208845 $331 $429 forward 7 unknown #
point $-1 -46.820276497695851 -15.778756822208845 9.5763847227268339 #
point $-1 -43.15030138255252 -15.778756822208845 9.5763847227268339 #
edge $-1 $430 1 $430 0 $225 $-1 forward 7 unknown #
vertex $-1 $226 $431 #
ellipse-curve $-1 -42.498813814485885 -13.165937798057428 5.1360158079399207 -0.83867057594974714 0 0.54463902268945019 0.54463902268945019 0 0.83867057594974714 1 I I #
point $-1 -44.440649917434733 -13.165937798057428 7.5894221588221313 #
edge $-1 $432 1 $432 0 $229 $-1 forward 7 unknown #
vertex $-1 $230 $433 #
ellipse-curve $-1 -42.498813814485885 -9.2467092618303006 5.1360158079399207 -0.83867057594974714 0 0.54463902268945019 0.54463902268945019 0 0.83867057594974714 1 I I #
point $-1 -44.440649917434733 -9.2467092618303006 7.5894221588221313 #
loop $-1 $-1 $241 $233 #
plane-surface $-1 46.820276497695851 0 0 -1 0 0 0 0 1 forward_v I I I I #
coedge $-1 $350 $236 $238 $354 reversed $146 $-1 #
coedge $-1 $236 $349 $434 $435 reversed $146 $-1 #
coedge $-1 $244 $239 $236 $352 forward $234 $-1 #
edge $-1 $355 22.497214744027676 $436 36.044339697013001 $351 $437 forward 7 unknown #
coedge $-1 $238 $237 $358 $438 reversed $91 $-1 #
edge $-1 $439 -93.640552995391673 $355 -77.29976762985271 $349 $440 forward 7 unknown #
vertex $-1 $240 $441 #
straight-curve $-1 33.273151544710522 -7.7172169376695772 9.5763847227268357 0 -1 0 I I #
coedge $-1 $434 $241 $244 $362 reversed $347 $-1 #
coedge $-1 $241 $434 $353 $438 forward $347 $-1 #
vertex $-1 $242 $442 #
straight-curve $-1 46.820276497695851 -10.649517183887347 65.21670153602129 0 0 1 I I #
straight-curve $-1 -30.811259791280683 -10.649517183887347 52.801866783066032 0.82903756765294845 0 -0.55919291073839883 I I #
edge $-1 $436 -20.219350566790961 $245 -10.649517183887347 $357 $443 forward 7 unknown #
point $-1 46.820276497695851 -10.649517183887347 9.5763847227268339 #
point $-1 33.273151544710522 -10.649517183887347 9.5763847227268357 #
edge $-1 $444 1 $444 0 $248 $-1 forward 7 unknown #
vertex $-1 $249 $445 #
ellipse-curve $-1 38.155216311476913 -15.434433875339154 2.2032984331294712 0.55919291073839883 0 0.82903756765294845 0.82903756765294845 0 -0.55919291073839883 1 I I #
point $-1 40.875751588856147 -15.434433875339154 4.4483661458348482 #
plane-surface $-1 46.820276497695851 0 0 -1 0 0 0 0 1 forward_v I I I I #
coedge $-1 $257 $255 $259 $374 reversed $161 $-1 #
edge $-1 $270 -9.5763847227268339 $376 9.5763847227268339 $269 $446 forward 7 unknown #
vertex $-1 $374 $447 #
straight-curve $-1 -46.820276497695851 -26.889473350379632 0 0 0 -1 I I #
edge $-1 $372 -26.889473350379632 $376 26.889473350379632 $370 $448 forward 7 unknown #
straight-curve $-1 0 -26.889473350379632 -9.5763847227268339 -1 0 0 I I #
vertex $-1 $262 $449 #
straight-curve $-1 0 26.889473350379632 -9.5763847227268339 1 0 0 I I #
point $-1 46.820276497695851 26.889473350379632 -9.5763847227268339 #
point $-1 46.820276497695851 -26.889473350379632 -9.5763847227268339 #
straight-curve $-1 -46.820276497695851 0 9.5763847227268339 0 -1 0 I I #
point $-1 -46.820276497695851 26.889473350379632 9.5763847227268339 #
point $-1 -46.820276497695851 -26.889473350379632 9.5763847227268339 #
straight-curve $-1 46.820276497695851 -26.889473350379632 0 0 0 -1 I I #
straight-curve $-1 46.820276497695851 26.889473350379632 0 0 0 -1 I I #
plane-surface $-1 46.820276497695851 0 0 -1 0 0 0 0 1 forward_v I I I I #
coedge $-1 $397 $388 $387 $450 forward $280 $-1 #
coedge $-1 $283 $282 $386 $450 reversed $108 $-1 #
coedge $-1 $386 $451 $284 $389 reversed $280 $-1 #
edge $-1 $390 -46.820276497695851 $393 46.820276497695851 $388 $452 forward 7 unknown #
vertex $-1 $285 $453 #
straight-curve $-1 -46.820276497695851 0 9.5763847227268339 0 -1 0 I I #
coedge $-1 $292 $286 $451 $454 forward $293 $-1 #
vertex $-1 $287 $455 #
straight-curve $-1 46.820276497695851 0 9.5763847227268339 0 1 0 I I #
point $-1 46.820276497695851 -26.889473350379632 9.5763847227268339 #
point $-1 -46.820276497695851 -26.889473350379632 9.5763847227268339 #
coedge $-1 $451 $386 $295 $398 reversed $280 $-1 #
edge $-1 $399 -46.820276497695851 $401 46.820276497695851 $397 $456 forward 7 unknown #
vertex $-1 $454 $457 #
straight-curve $-1 46.820276497695851 -30.224534742173969 5.7126888912075202 0 -1 0 I I #
vertex $-1 $297 $458 #
straight-curve $-1 -46.820276497695851 -30.224534742173969 5.7126888912075202 0 1 0 I I #
plane-surface $-1 -46.820276497695851 0 0 1 0 0 0 0 -1 forward_v I I I I #
coedge $-1 $459 $303 $304 $407 reversed $196 $-1 #
coedge $-1 $303 $459 $410 $460 reversed $196 $-1 #
edge $-1 $411 -1.931847915759656 $408 1.931847915759656 $306 $461 forward 7 unknown #
edge $-1 $419 -46.820276497695851 $408 46.820276497695851 $404 $462 forward 7 unknown #
vertex $-1 $305 $463 #
straight-curve $-1 46.820276497695851 30.224534742173972 5.7126888912075202 0 -1 0 I I #
coedge $-1 $414 $307 $405 $460 forward $301 $-1 #
vertex $-1 $308 $464 #
straight-curve $-1 46.820276497695851 0 9.5763847227268339 0 1 0 I I #
point $-1 46.820276497695851 26.889473350379632 9.5763847227268339 #
coedge $-1 $311 $410 $313 $417 forward $301 $-1 #
straight-curve $-1 0 26.889473350379632 9.5763847227268339 1 0 0 I I #
coedge $-1 $314 $313 $459 $465 forward $315 $-1 #
edge $-1 $466 -33.559596133968313 $316 -26.889473350379632 $313 $467 forward 7 unknown #
point $-1 -46.820276497695851 26.889473350379632 9.5763847227268339 #
vertex $-1 $407 $468 #
straight-curve $-1 -46.820276497695851 30.224534742173972 5.7126888912075202 0 1 0 I I #
edge $-1 $422 17.886324132537034 $425 23.537590412245926 $322 $469 forward 7 unknown #
vertex $-1 $336 $470 #
straight-curve $-1 -62.676926505296919 -6.6338902376788838 9.5763847227268357 -1 0 0 I I #
edge $-1 $425 1.0307284727069517 $333 10.175595057236912 $332 $471 forward 7 unknown #
vertex $-1 $424 $472 #
straight-curve $-1 -46.820276497695858 -6.6338902376788838 3.9251184430179293 0.54463902268945019 0 0.83867057594974714 I I #
point $-1 -43.15030138255252 -6.6338902376788838 9.5763847227268339 #
point $-1 -46.820276497695851 -15.778756822208845 3.9251184430179404 #
straight-curve $-1 -46.820276497695851 0 9.5763847227268339 0 -1 0 I I #
vertex $-1 $339 $473 #
point $-1 -41.954174791796433 -13.165937798057428 5.9746863838896678 #
vertex $-1 $343 $474 #
point $-1 -41.954174791796433 -9.2467092618303006 5.9746863838896678 #
coedge $-1 $358 $357 $350 $435 forward $347 $-1 #
edge $-1 $436 55.640316813294454 $439 64.777968145601619 $434 $475 forward 7 unknown #
vertex $-1 $362 $476 #
straight-curve $-1 10.775936800682846 -20.219350566790961 9.5763847227268357 1 0 0 I I #
edge $-1 $439 -12.502133629121385 $359 -2.9323002462177703 $358 $477 forward 7 unknown #
vertex $-1 $438 $478 #
straight-curve $-1 -30.811259791280683 -20.219350566790961 52.801866783066032 -0.82903756765294845 0 0.55919291073839883 I I #
point $-1 33.273151544710522 -20.219350566790961 9.5763847227268357 #
point $-1 46.820276497695851 -10.649517183887347 0.43873339041967085 #
straight-curve $-1 46.820276497695851 0 9.5763847227268339 0 1 0 I I #
vertex $-1 $365 $479 #
point $-1 38.984253879129859 -15.434433875339154 1.6441055223910723 #
straight-curve $-1 -46.820276497695851 26.889473350379632 0 0 0 -1 I I #
point $-1 -46.820276497695851 -26.889473350379632 -9.5763847227268339 #
straight-curve $-1 -46.820276497695851 0 -9.5763847227268339 0 1 0 I I #
point $-1 -46.820276497695851 26.889473350379632 -9.5763847227268339 #
edge $-1 $390 -1.931847915759656 $401 1.931847915759656 $387 $480 forward 7 unknown #
coedge $-1 $388 $397 $392 $454 reversed $280 $-1 #
straight-curve $-1 0 -33.559596133968306 9.5763847227268322 1 0 0 I I #
point $-1 -46.820276497695851 -33.559596133968306 9.5763847227268322 #
edge $-1 $393 -1.931847915759656 $399 1.931847915759656 $392 $481 forward 7 unknown #
point $-1 46.820276497695851 -33.559596133968306 9.5763847227268322 #
straight-curve $-1 0 -33.559596133968306 5.7126888912075202 -1 0 0 I I #
point $-1 46.820276497695851 -33.559596133968306 5.7126888912075202 #
point $-1 -46.820276497695851 -33.559596133968306 5.7126888912075202 #
coedge $-1 $405 $404 $416 $465 reversed $196 $-1 #
edge $-1 $411 -46.820276497695851 $466 46.820276497695851 $405 $482 forward 7 unknown #
straight-curve $-1 46.820276497695851 33.559596133968313 7.6445368069671762 0 0 -1 I I #
straight-curve $-1 0 33.559596133968313 5.7126888912075202 1 0 0 I I #
point $-1 46.820276497695851 33.559596133968313 5.7126888912075202 #
point $-1 46.820276497695851 33.559596133968313 9.5763847227268322 #
edge $-1 $466 -1.931847915759656 $419 1.931847915759656 $459 $483 forward 7 unknown #
vertex $-1 $460 $484 #
straight-curve $-1 -46.820276497695851 0 9.5763847227268339 0 -1 0 I I #
point $-1 -46.820276497695851 33.559596133968313 5.7126888912075202 #
straight-curve $-1 -46.820276497695851 -6.6338902376788838 27.462708855263866 0 0 -1 I I #
point $-1 -46.820276497695851 -6.6338902376788838 9.5763847227268339 #
straight-curve $-1 -46.820276497695851 -5.6031617649719321 3.9251184430179489 0 -1 0 I I #
point $-1 -46.820276497695851 -6.6338902376788838 3.9251184430179404 #
point $-1 -41.660143238536136 -13.165937798057428 4.5913767852504703 #
point $-1 -41.660143238536136 -9.2467092618303006 4.5913767852504703 #
straight-curve $-1 46.820276497695851 -20.219350566790961 65.21670153602129 0 0 -1 I I #
point $-1 46.820276497695851 -20.219350566790961 9.5763847227268339 #
straight-curve $-1 46.820276497695858 -7.7172169376695772 0.4387333904196673 0 1 0 I I #
point $-1 46.820276497695851 -20.219350566790961 0.43873339041967085 #
point $-1 37.59602340073851 -15.434433875339154 1.3742608654765229 #
straight-curve $-1 -46.820276497695851 -33.559596133968306 7.6445368069671762 0 0 -1 I I #
straight-curve $-1 46.820276497695851 -33.559596133968306 7.6445368069671762 0 0 -1 I I #
straight-curve $-1 0 33.559596133968313 9.5763847227268322 -1 0 0 I I #
straight-curve $-1 -46.820276497695851 33.559596133968313 7.6445368069671762 0 0 -1 I I #
point $-1 -46.820276497695851 33.559596133968313 9.5763847227268322 #
End-of-ACIS-data 