500 0 12 0           
7 Unknown 11 ACIS 5.0 NT 24 Thu Mar 25 17:57:39 1999 
-1 9.9999999999999995e-007 1e-010 
body $-1 $12 $-1 $13 #
body $-1 $14 $-1 $15 #
body $-1 $16 $-1 $17 #
body $-1 $18 $-1 $19 #
body $-1 $20 $-1 $21 #
body $-1 $22 $-1 $23 #
body $-1 $24 $-1 $25 #
body $-1 $26 $-1 $27 #
body $-1 $28 $-1 $29 #
body $-1 $30 $-1 $31 #
body $-1 $32 $-1 $33 #
body $-1 $34 $-1 $35 #
lump $-1 $-1 $36 $0 #
transform $-1 1 0 0 0 1 0 0 0 1 76.335337382122262 39.485546444809309 9.8264988703328804 1 rotate no_reflect no_shear #
lump $-1 $-1 $37 $1 #
transform $-1 1 0 0 0 1 0 0 0 1 76.335337382122262 39.485546444809309 9.8264988703328804 1 rotate no_reflect no_shear #
lump $-1 $-1 $38 $2 #
transform $-1 1 0 0 0 1 0 0 0 1 76.335337382122262 39.485546444809309 9.8264988703328804 1 rotate no_reflect no_shear #
lump $-1 $-1 $39 $3 #
transform $-1 1 0 0 0 1 0 0 0 1 76.335337382122262 39.485546444809309 9.8264988703328804 1 rotate no_reflect no_shear #
lump $-1 $-1 $40 $4 #
transform $-1 1 0 0 0 1 0 0 0 1 76.335337382122262 39.485546444809309 9.8264988703328804 1 rotate no_reflect no_shear #
lump $-1 $-1 $41 $5 #
transform $-1 1 0 0 0 1 0 0 0 1 76.335337382122262 39.485546444809309 9.8264988703328804 1 rotate no_reflect no_shear #
lump $-1 $-1 $42 $6 #
transform $-1 1 0 0 0 1 0 0 0 1 76.335337382122262 39.485546444809309 9.8264988703328804 1 rotate no_reflect no_shear #
lump $-1 $-1 $43 $7 #
transform $-1 1 0 0 0 1 0 0 0 1 76.335337382122262 39.485546444809309 9.8264988703328804 1 rotate no_reflect no_shear #
lump $-1 $-1 $44 $8 #
transform $-1 1 0 0 0 1 0 0 0 1 76.335337382122262 39.485546444809309 9.8264988703328804 1 rotate no_reflect no_shear #
lump $-1 $-1 $45 $9 #
transform $-1 1 0 0 0 1 0 0 0 1 76.335337382122262 39.485546444809309 9.8264988703328804 1 rotate no_reflect no_shear #
lump $-1 $-1 $46 $10 #
transform $-1 1 0 0 0 1 0 0 0 1 76.335337382122262 39.485546444809309 9.8264988703328804 1 rotate no_reflect no_shear #
lump $-1 $-1 $47 $11 #
transform $-1 1 0 0 0 1 0 0 0 1 76.335337382122262 39.485546444809309 9.8264988703328804 1 rotate no_reflect no_shear #
shell $-1 $-1 $-1 $48 $-1 $12 #
shell $-1 $-1 $-1 $49 $-1 $14 #
shell $-1 $-1 $-1 $50 $-1 $16 #
shell $-1 $-1 $-1 $51 $-1 $18 #
shell $-1 $-1 $-1 $52 $-1 $20 #
shell $-1 $-1 $-1 $53 $-1 $22 #
shell $-1 $-1 $-1 $54 $-1 $24 #
shell $-1 $-1 $-1 $55 $-1 $26 #
shell $-1 $-1 $-1 $56 $-1 $28 #
shell $-1 $-1 $-1 $57 $-1 $30 #
shell $-1 $-1 $-1 $58 $-1 $32 #
shell $-1 $-1 $-1 $59 $-1 $34 #
face $-1 $60 $61 $36 $-1 $62 forward single #
face $-1 $63 $64 $37 $-1 $65 reversed single #
face $-1 $66 $67 $38 $-1 $68 forward single #
face $-1 $69 $70 $39 $-1 $71 reversed single #
face $-1 $72 $73 $40 $-1 $74 forward single #
face $-1 $75 $76 $41 $-1 $77 forward single #
face $-1 $78 $79 $42 $-1 $80 reversed single #
face $-1 $81 $82 $43 $-1 $83 forward single #
face $-1 $84 $85 $44 $-1 $86 forward single #
face $-1 $87 $88 $45 $-1 $89 reversed single #
face $-1 $90 $91 $46 $-1 $92 forward single #
face $-1 $93 $94 $47 $-1 $95 forward single #
face $-1 $96 $97 $36 $-1 $98 reversed single #
loop $-1 $-1 $99 $48 #
plane-surface $-1 0 0 9.8264988703328804 0 0 1 1 0 0 forward_v I I I I #
face $-1 $100 $101 $37 $-1 $102 reversed single #
loop $-1 $-1 $103 $49 #
plane-surface $-1 -70.318382123755256 -35.648029784470666 0 1 0 0 0 0 -1 forward_v I I I I #
face $-1 $104 $105 $38 $-1 $106 reversed single #
loop $-1 $-1 $107 $50 #
plane-surface $-1 0 34.030665502037401 -0.29524239816547748 0 0 1 1 0 0 forward_v I I I I #
face $-1 $108 $109 $39 $-1 $110 reversed single #
loop $-1 $-1 $111 $51 #
plane-surface $-1 38.843145531402783 -4.7776691355463594 215.88089988594695 0 -1 0 -0.57357644374324357 0 -0.81915203911291934 forward_v I I I I #
face $-1 $112 $113 $40 $-1 $114 forward single #
loop $-1 $115 $116 $52 #
cone-surface $-1 71.177842178587724 -11.217945751305734 5.878225537606574 -0.57357644374324357 0 -0.81915203911291934 0.40957601955645967 0 -0.28678822187162178 1 I I 0 1 0.5 forward I I I I #
face $-1 $117 $118 $41 $-1 $119 forward single #
loop $-1 $120 $121 $53 #
cone-surface $-1 71.177842178587724 -7.3537797818501076 5.878225537606574 -0.57357644374324357 0 -0.81915203911291934 0.40957601955645967 0 -0.28678822187162178 1 I I 0 1 0.5 forward I I I I #
face $-1 $122 $123 $42 $-1 $124 reversed single #
loop $-1 $-1 $125 $54 #
plane-surface $-1 -157.23847009141338 -16.75954595328006 131.15250105057436 0 1 0 -0.52991927123019833 0 0.84804809178421925 forward_v I I I I #
face $-1 $126 $127 $43 $-1 $128 forward single #
loop $-1 $129 $130 $55 #
cone-surface $-1 -69.119967754789357 -13.685141528717843 4.6377904925554061 0.52991927123019833 0 -0.84804809178421925 0.84804809178421925 0 0.52991927123019833 1 I I 0 1 1 forward I I I I #
face $-1 $131 $132 $44 $-1 $133 forward single #
loop $-1 $134 $135 $56 #
cone-surface $-1 -69.119967754789357 -9.073534891874516 4.6377904925554061 0.52991927123019833 0 -0.84804809178421925 0.84804809178421925 0 0.52991927123019833 1 I I 0 1 1 forward I I I I #
face $-1 $136 $137 $45 $-1 $138 reversed single #
loop $-1 $-1 $139 $57 #
plane-surface $-1 -157.23847009141338 13.433602888418701 131.15250105057436 0 1 0 -0.52991927123019833 0 0.84804809178421925 forward_v I I I I #
face $-1 $140 $141 $46 $-1 $142 forward single #
loop $-1 $143 $144 $58 #
cone-surface $-1 -69.119967754789357 16.508007312980922 4.6377904925554061 0.52991927123019833 0 -0.84804809178421925 0.84804809178421925 0 0.52991927123019833 1 I I 0 1 1 forward I I I I #
face $-1 $145 $146 $47 $-1 $147 forward single #
loop $-1 $148 $149 $59 #
cone-surface $-1 -69.119967754789357 21.119613949824249 4.6377904925554061 0.52991927123019833 0 -0.84804809178421925 0.84804809178421925 0 0.52991927123019833 1 I I 0 1 1 forward I I I I #
face $-1 $150 $151 $36 $-1 $152 reversed single #
loop $-1 $-1 $153 $60 #
plane-surface $-1 0 0 -9.8264988703328804 0 0 1 1 0 0 forward_v I I I I #
coedge $-1 $154 $155 $156 $157 forward $61 $-1 #
face $-1 $158 $159 $37 $-1 $160 reversed single #
loop $-1 $-1 $161 $63 #
plane-surface $-1 -68.291454934366755 -31.810513124132022 0 0 -1 0 0 0 -1 forward_v I I I I #
coedge $-1 $162 $163 $164 $165 forward $64 $-1 #
face $-1 $166 $167 $38 $-1 $168 reversed single #
loop $-1 $-1 $169 $66 #
plane-surface $-1 0 34.030665502037401 -3.7665902488582841 0 0 1 1 0 0 forward_v I I I I #
coedge $-1 $170 $171 $172 $173 reversed $67 $-1 #
face $-1 $174 $175 $39 $-1 $176 reversed single #
loop $-1 $-1 $177 $69 #
plane-surface $-1 -48.725157163753948 -9.285862766577921 90.820405340070721 0.57357644374324357 0 0.81915203911291934 0.81915203911291934 0 -0.57357644374324357 forward_v I I I I #
coedge $-1 $178 $179 $180 $181 reversed $70 $-1 #
face $-1 $-1 $182 $40 $-1 $183 forward single #
loop $-1 $184 $185 $72 #
cone-surface $-1 70.57155820638188 -11.217945751305734 5.0123623078114896 -0.57357644374324357 0 -0.81915203911291934 0.20478800977822983 0 -0.14339411093581089 1 I I -0.70710678118654746 0.70710678118654746 0.25 forward I I I I #
loop $-1 $-1 $186 $52 #
coedge $-1 $116 $116 $187 $188 reversed $73 $-1 #
face $-1 $-1 $189 $41 $-1 $190 forward single #
loop $-1 $191 $192 $75 #
cone-surface $-1 70.57155820638188 -7.3537797818501076 5.0123623078114896 -0.57357644374324357 0 -0.81915203911291934 0.20478800977822983 0 -0.14339411093581089 1 I I -0.70710678118654746 0.70710678118654746 0.25 forward I I I I #
loop $-1 $-1 $193 $53 #
coedge $-1 $121 $121 $194 $195 reversed $76 $-1 #
face $-1 $196 $197 $42 $-1 $198 reversed single #
loop $-1 $-1 $199 $78 #
plane-surface $-1 -76.33533738212229 -11.379338210296179 1.6804266453476373 -0.52991927123019833 0 0.84804809178421925 0.84804809178421925 0 0.52991927123019833 forward_v I I I I #
coedge $-1 $200 $201 $202 $203 reversed $79 $-1 #
face $-1 $-1 $204 $43 $-1 $205 forward single #
loop $-1 $206 $207 $81 #
cone-surface $-1 -68.157858701023201 -13.685141528717843 3.0980941813784604 0.52991927123019833 0 -0.84804809178421925 0.42402404589210962 0 0.26495963561509916 1 I I -0.70710678118654746 0.70710678118654746 0.5 forward I I I I #
loop $-1 $-1 $208 $55 #
coedge $-1 $130 $130 $209 $210 reversed $82 $-1 #
face $-1 $-1 $211 $44 $-1 $212 forward single #
loop $-1 $213 $214 $84 #
cone-surface $-1 -68.157858701023201 -9.073534891874516 3.0980941813784604 0.52991927123019833 0 -0.84804809178421925 0.42402404589210962 0 0.26495963561509916 1 I I -0.70710678118654746 0.70710678118654746 0.5 forward I I I I #
loop $-1 $-1 $215 $56 #
coedge $-1 $135 $135 $216 $217 reversed $85 $-1 #
face $-1 $218 $219 $45 $-1 $220 reversed single #
loop $-1 $-1 $221 $87 #
plane-surface $-1 -76.33533738212229 18.813810631402582 1.6804266453476373 -0.52991927123019833 0 0.84804809178421925 0.84804809178421925 0 0.52991927123019833 forward_v I I I I #
coedge $-1 $222 $223 $224 $225 reversed $88 $-1 #
face $-1 $-1 $226 $46 $-1 $227 forward single #
loop $-1 $228 $229 $90 #
cone-surface $-1 -68.157858701023201 16.508007312980922 3.0980941813784604 0.52991927123019833 0 -0.84804809178421925 0.42402404589210962 0 0.26495963561509916 1 I I -0.70710678118654746 0.70710678118654746 0.5 forward I I I I #
loop $-1 $-1 $230 $58 #
coedge $-1 $144 $144 $231 $232 reversed $91 $-1 #
face $-1 $-1 $233 $47 $-1 $234 forward single #
loop $-1 $235 $236 $93 #
cone-surface $-1 -68.157858701023201 21.119613949824249 3.0980941813784604 0.52991927123019833 0 -0.84804809178421925 0.42402404589210962 0 0.26495963561509916 1 I I -0.70710678118654746 0.70710678118654746 0.5 forward I I I I #
loop $-1 $-1 $237 $59 #
coedge $-1 $149 $149 $238 $239 reversed $94 $-1 #
face $-1 $240 $241 $36 $-1 $242 reversed single #
loop $-1 $-1 $243 $96 #
plane-surface $-1 0 -39.485546444809309 0 0 1 0 0 0 1 forward_v I I I I #
coedge $-1 $244 $245 $246 $247 forward $97 $-1 #
coedge $-1 $248 $99 $249 $250 forward $61 $-1 #
coedge $-1 $99 $248 $251 $252 forward $61 $-1 #
coedge $-1 $253 $254 $99 $157 reversed $255 $-1 #
edge $-1 $256 -39.485546444809309 $257 39.485546444809309 $156 $258 forward 7 unknown #
face $-1 $259 $260 $37 $-1 $261 forward single #
loop $-1 $-1 $262 $100 #
plane-surface $-1 -66.264527744978253 -35.648029784470666 0 -1 0 0 0 0 1 forward_v I I I I #
coedge $-1 $263 $264 $265 $266 forward $101 $-1 #
coedge $-1 $267 $103 $268 $269 reversed $64 $-1 #
coedge $-1 $103 $267 $270 $271 reversed $64 $-1 #
coedge $-1 $264 $263 $103 $165 reversed $101 $-1 #
edge $-1 $272 -9.8264988703328804 $273 9.8264988703328804 $164 $274 forward 7 unknown #
face $-1 $275 $276 $38 $-1 $277 reversed single #
loop $-1 $-1 $278 $104 #
plane-surface $-1 0 28.5757845592655 -2.0309163235118808 0 1 0 0 0 1 forward_v I I I I #
coedge $-1 $279 $280 $281 $282 reversed $105 $-1 #
coedge $-1 $283 $107 $284 $285 reversed $67 $-1 #
coedge $-1 $107 $283 $286 $287 forward $67 $-1 #
coedge $-1 $288 $289 $107 $173 forward $290 $-1 #
edge $-1 $291 -22.470213693790601 $292 -11.5604518082468 $172 $293 forward 7 unknown #
face $-1 $294 $295 $39 $-1 $296 forward single #
loop $-1 $-1 $297 $108 #
plane-surface $-1 38.843145531402783 -13.794056397609483 215.88089988594695 0 1 0 0.57357644374324357 0 0.81915203911291934 forward_v I I I I #
coedge $-1 $298 $299 $300 $301 reversed $109 $-1 #
coedge $-1 $179 $111 $302 $303 reversed $70 $-1 #
coedge $-1 $111 $178 $298 $304 reversed $70 $-1 #
coedge $-1 $300 $305 $111 $181 forward $295 $-1 #
edge $-1 $306 -56.91376461642087 $307 -47.524553931891937 $180 $308 forward 7 unknown #
loop $-1 $-1 $187 $112 #
plane-surface $-1 -48.725157163753948 -9.285862766577921 90.820405340070721 0.57357644374324357 0 0.81915203911291934 0.81915203911291934 0 -0.57357644374324357 forward_v I I I I #
loop $-1 $-1 $309 $72 #
coedge $-1 $185 $185 $186 $310 reversed $113 $-1 #
coedge $-1 $186 $186 $185 $310 forward $115 $-1 #
coedge $-1 $187 $187 $116 $188 forward $182 $-1 #
edge $-1 $311 0 $311 6.2831853071796004 $187 $312 forward 7 unknown #
loop $-1 $-1 $194 $117 #
plane-surface $-1 -48.725157163753948 -9.285862766577921 90.820405340070721 0.57357644374324357 0 0.81915203911291934 0.81915203911291934 0 -0.57357644374324357 forward_v I I I I #
loop $-1 $-1 $313 $75 #
coedge $-1 $192 $192 $193 $314 reversed $118 $-1 #
coedge $-1 $193 $193 $192 $314 forward $120 $-1 #
coedge $-1 $194 $194 $121 $195 forward $189 $-1 #
edge $-1 $315 0 $315 6.2831853071796004 $194 $316 forward 7 unknown #
face $-1 $317 $318 $42 $-1 $319 reversed single #
loop $-1 $-1 $320 $122 #
plane-surface $-1 -157.23847009141338 -5.9991304673122983 131.15250105057436 0 -1 0 0.52991927123019833 0 -0.84804809178421925 forward_v I I I I #
coedge $-1 $321 $322 $323 $324 reversed $123 $-1 #
coedge $-1 $201 $125 $325 $326 reversed $79 $-1 #
coedge $-1 $125 $200 $321 $327 reversed $79 $-1 #
coedge $-1 $323 $328 $125 $203 forward $329 $-1 #
edge $-1 $330 2.2838976635844261 $331 15.320338081948044 $202 $332 forward 7 unknown #
loop $-1 $-1 $209 $126 #
plane-surface $-1 -76.33533738212229 -11.379338210296179 1.6804266453476373 -0.52991927123019833 0 0.84804809178421925 0.84804809178421925 0 0.52991927123019833 forward_v I I I I #
loop $-1 $-1 $333 $81 #
coedge $-1 $207 $207 $208 $334 reversed $127 $-1 #
coedge $-1 $208 $208 $207 $334 forward $129 $-1 #
coedge $-1 $209 $209 $130 $210 forward $204 $-1 #
edge $-1 $335 0 $335 6.2831853071796004 $209 $336 forward 7 unknown #
loop $-1 $-1 $216 $131 #
plane-surface $-1 -76.33533738212229 -11.379338210296179 1.6804266453476373 -0.52991927123019833 0 0.84804809178421925 0.84804809178421925 0 0.52991927123019833 forward_v I I I I #
loop $-1 $-1 $337 $84 #
coedge $-1 $214 $214 $215 $338 reversed $132 $-1 #
coedge $-1 $215 $215 $214 $338 forward $134 $-1 #
coedge $-1 $216 $216 $135 $217 forward $211 $-1 #
edge $-1 $339 0 $339 6.2831853071796004 $216 $340 forward 7 unknown #
face $-1 $341 $342 $45 $-1 $343 forward single #
loop $-1 $-1 $344 $136 #
plane-surface $-1 -157.23847009141338 24.194018374386463 131.15250105057436 0 -1 0 0.52991927123019833 0 -0.84804809178421925 forward_v I I I I #
coedge $-1 $345 $346 $347 $348 reversed $137 $-1 #
coedge $-1 $223 $139 $349 $350 reversed $88 $-1 #
coedge $-1 $139 $222 $345 $351 reversed $88 $-1 #
coedge $-1 $347 $352 $139 $225 forward $342 $-1 #
edge $-1 $353 2.2838976635844261 $354 15.320338081948044 $224 $355 forward 7 unknown #
loop $-1 $-1 $231 $140 #
plane-surface $-1 -76.33533738212229 18.813810631402582 1.6804266453476373 -0.52991927123019833 0 0.84804809178421925 0.84804809178421925 0 0.52991927123019833 forward_v I I I I #
loop $-1 $-1 $356 $90 #
coedge $-1 $229 $229 $230 $357 reversed $141 $-1 #
coedge $-1 $230 $230 $229 $357 forward $143 $-1 #
coedge $-1 $231 $231 $144 $232 forward $226 $-1 #
edge $-1 $358 0 $358 6.2831853071796004 $231 $359 forward 7 unknown #
loop $-1 $-1 $238 $145 #
plane-surface $-1 -76.33533738212229 18.813810631402582 1.6804266453476373 -0.52991927123019833 0 0.84804809178421925 0.84804809178421925 0 0.52991927123019833 forward_v I I I I #
loop $-1 $-1 $360 $93 #
coedge $-1 $236 $236 $237 $361 reversed $146 $-1 #
coedge $-1 $237 $237 $236 $361 forward $148 $-1 #
coedge $-1 $238 $238 $149 $239 forward $233 $-1 #
edge $-1 $362 0 $362 6.2831853071796004 $238 $363 forward 7 unknown #
face $-1 $364 $365 $36 $-1 $366 reversed single #
loop $-1 $-1 $367 $150 #
plane-surface $-1 -76.335337382122262 0 0 1 0 0 0 0 -1 forward_v I I I I #
coedge $-1 $368 $251 $369 $370 forward $151 $-1 #
coedge $-1 $371 $153 $368 $372 forward $97 $-1 #
coedge $-1 $153 $371 $373 $374 forward $97 $-1 #
coedge $-1 $254 $253 $153 $247 reversed $255 $-1 #
edge $-1 $375 -39.485546444809309 $376 39.485546444809309 $246 $377 forward 7 unknown #
coedge $-1 $155 $154 $378 $379 forward $61 $-1 #
coedge $-1 $380 $381 $154 $250 reversed $365 $-1 #
edge $-1 $257 -76.335337382122262 $382 76.335337382122262 $249 $383 forward 7 unknown #
coedge $-1 $243 $384 $155 $252 reversed $151 $-1 #
edge $-1 $385 -76.335337382122262 $256 76.335337382122262 $251 $386 forward 7 unknown #
coedge $-1 $246 $156 $384 $387 forward $255 $-1 #
coedge $-1 $156 $246 $380 $388 reversed $255 $-1 #
loop $-1 $-1 $253 $364 #
vertex $-1 $157 $389 #
vertex $-1 $157 $390 #
straight-curve $-1 76.335337382122262 0 9.8264988703328804 0 1 0 I I #
face $-1 $391 $392 $37 $-1 $393 reversed single #
loop $-1 $-1 $394 $158 #
plane-surface $-1 0 0 9.8264988703328804 0 0 1 1 0 0 forward_v I I I I #
coedge $-1 $395 $396 $397 $398 reversed $159 $-1 #
coedge $-1 $164 $161 $399 $400 reversed $101 $-1 #
coedge $-1 $161 $164 $401 $402 reversed $101 $-1 #
coedge $-1 $396 $395 $161 $266 reversed $159 $-1 #
edge $-1 $403 -9.8264988703328804 $404 9.8264988703328804 $265 $405 forward 7 unknown #
coedge $-1 $163 $162 $406 $407 reversed $64 $-1 #
coedge $-1 $399 $408 $162 $269 forward $392 $-1 #
edge $-1 $409 -21.661531552573976 $273 -13.98649823189669 $268 $410 forward 7 unknown #
coedge $-1 $411 $401 $163 $271 forward $260 $-1 #
edge $-1 $272 13.98649823189669 $412 21.661531552573976 $270 $413 forward 7 unknown #
vertex $-1 $271 $414 #
vertex $-1 $269 $415 #
straight-curve $-1 -70.318382123755256 -31.810513124132022 0 0 0 -1 I I #
face $-1 $416 $290 $38 $-1 $417 reversed single #
loop $-1 $-1 $418 $166 #
plane-surface $-1 -76.335337382122262 0 0 1 0 0 0 0 -1 forward_v I I I I #
coedge $-1 $419 $286 $420 $421 reversed $167 $-1 #
coedge $-1 $422 $169 $419 $423 forward $105 $-1 #
coedge $-1 $169 $422 $424 $425 reversed $105 $-1 #
coedge $-1 $289 $288 $169 $282 forward $290 $-1 #
edge $-1 $426 11.5604518082468 $427 22.470213693790601 $281 $428 forward 7 unknown #
coedge $-1 $171 $170 $429 $430 reversed $67 $-1 #
coedge $-1 $431 $432 $170 $285 forward $433 $-1 #
edge $-1 $434 -76.335337382122262 $291 76.335337382122262 $284 $435 forward 7 unknown #
coedge $-1 $278 $436 $171 $287 reversed $167 $-1 #
edge $-1 $437 -76.335337382122262 $292 76.335337382122262 $286 $438 forward 7 unknown #
coedge $-1 $281 $172 $436 $439 forward $290 $-1 #
coedge $-1 $172 $281 $431 $440 reversed $290 $-1 #
loop $-1 $-1 $172 $275 #
vertex $-1 $440 $441 #
vertex $-1 $173 $442 #
straight-curve $-1 76.335337382122262 17.0153327510187 -0.29524239816547748 0 -1 0 I I #
face $-1 $-1 $443 $39 $-1 $444 reversed single #
loop $-1 $-1 $180 $174 #
plane-surface $-1 0 0 9.8264988703328804 0 0 1 1 0 0 forward_v I I I I #
coedge $-1 $445 $446 $447 $448 reversed $175 $-1 #
coedge $-1 $449 $177 $179 $304 forward $109 $-1 #
coedge $-1 $177 $449 $445 $450 forward $109 $-1 #
coedge $-1 $447 $180 $177 $301 forward $295 $-1 #
edge $-1 $307 0.13473775225739892 $451 9.1511250143205221 $300 $452 forward 7 unknown #
coedge $-1 $453 $454 $178 $303 forward $443 $-1 #
edge $-1 $455 -104.68834729805948 $306 -98.113951072640589 $302 $456 forward 7 unknown #
edge $-1 $307 141.20856487961706 $455 152.67067476424452 $179 $457 forward 7 unknown #
coedge $-1 $180 $447 $453 $458 forward $295 $-1 #
vertex $-1 $303 $459 #
vertex $-1 $181 $460 #
straight-curve $-1 19.421572765701391 -4.7776691355463594 9.8264988703328839 -1 0 0 I I #
coedge $-1 $309 $309 $-1 $461 reversed $184 $-1 #
edge $-1 $462 0 $462 6.2831853071796004 $185 $463 forward 7 unknown #
vertex $-1 $188 $464 #
ellipse-curve $-1 71.640732039857781 -11.217945751305734 6.5393007576234501 0.57357644374324357 0 0.81915203911291934 0.40957601955645967 0 -0.28678822187162178 1 I I #
coedge $-1 $313 $313 $-1 $465 reversed $191 $-1 #
edge $-1 $466 0 $466 6.2831853071796004 $192 $467 forward 7 unknown #
vertex $-1 $195 $468 #
ellipse-curve $-1 71.640732039857781 -7.3537797818501076 6.5393007576234501 0.57357644374324357 0 0.81915203911291934 0.40957601955645967 0 -0.28678822187162178 1 I I #
face $-1 $-1 $329 $42 $-1 $469 forward single #
loop $-1 $-1 $470 $196 #
plane-surface $-1 -76.335337382122262 0 0 1 0 0 0 0 -1 forward_v I I I I #
coedge $-1 $471 $472 $473 $474 reversed $197 $-1 #
coedge $-1 $475 $199 $201 $327 forward $123 $-1 #
coedge $-1 $199 $475 $471 $476 forward $123 $-1 #
coedge $-1 $473 $202 $199 $324 forward $329 $-1 #
edge $-1 $331 -11.069876848131971 $477 -0.30946136216420861 $323 $478 forward 7 unknown #
coedge $-1 $479 $480 $200 $326 forward $318 $-1 #
edge $-1 $481 -63.895823879939528 $330 -55.749751654954295 $325 $482 forward 7 unknown #
edge $-1 $331 -15.3722890773047 $481 -3.3516233665497261e-014 $201 $483 forward 7 unknown #
coedge $-1 $202 $473 $479 $484 forward $329 $-1 #
loop $-1 $-1 $473 $317 #
vertex $-1 $326 $485 #
vertex $-1 $203 $486 #
straight-curve $-1 -78.619235045706688 -16.75954595328006 9.8264988703328839 1 0 0 I I #
coedge $-1 $333 $333 $-1 $487 reversed $206 $-1 #
edge $-1 $488 0 $488 6.2831853071796004 $207 $489 forward 7 unknown #
vertex $-1 $210 $490 #
ellipse-curve $-1 -69.817117172940442 -13.685141528717843 5.7534627578402775 -0.52991927123019833 0 0.84804809178421925 0.84804809178421925 0 0.52991927123019833 1 I I #
coedge $-1 $337 $337 $-1 $491 reversed $213 $-1 #
edge $-1 $492 0 $492 6.2831853071796004 $214 $493 forward 7 unknown #
vertex $-1 $217 $494 #
ellipse-curve $-1 -69.817117172940442 -9.073534891874516 5.7534627578402775 -0.52991927123019833 0 0.84804809178421925 0.84804809178421925 0 0.52991927123019833 1 I I #
face $-1 $-1 $495 $45 $-1 $496 reversed single #
loop $-1 $-1 $224 $218 #
plane-surface $-1 0 0 9.8264988703328804 0 0 1 1 0 0 forward_v I I I I #
coedge $-1 $497 $498 $499 $500 reversed $219 $-1 #
coedge $-1 $501 $221 $223 $351 forward $137 $-1 #
coedge $-1 $221 $501 $497 $502 forward $137 $-1 #
coedge $-1 $499 $224 $221 $348 forward $342 $-1 #
edge $-1 $354 4.0266975727174099 $503 14.787113058685172 $347 $504 forward 7 unknown #
coedge $-1 $505 $506 $222 $350 forward $495 $-1 #
edge $-1 $507 -63.895823879939528 $353 -55.749751654954295 $349 $508 forward 7 unknown #
edge $-1 $354 -15.3722890773047 $507 -3.3516233665497261e-014 $223 $509 forward 7 unknown #
coedge $-1 $224 $499 $505 $510 forward $342 $-1 #
vertex $-1 $225 $511 #
vertex $-1 $225 $512 #
straight-curve $-1 -78.619235045706688 13.433602888418701 9.8264988703328839 1 0 0 I I #
coedge $-1 $356 $356 $-1 $513 reversed $228 $-1 #
edge $-1 $514 0 $514 6.2831853071796004 $229 $515 forward 7 unknown #
vertex $-1 $232 $516 #
ellipse-curve $-1 -69.817117172940442 16.508007312980922 5.7534627578402775 -0.52991927123019833 0 0.84804809178421925 0.84804809178421925 0 0.52991927123019833 1 I I #
coedge $-1 $360 $360 $-1 $517 reversed $235 $-1 #
edge $-1 $518 0 $518 6.2831853071796004 $236 $519 forward 7 unknown #
vertex $-1 $239 $520 #
ellipse-curve $-1 -69.817117172940442 21.119613949824249 5.7534627578402775 -0.52991927123019833 0 0.84804809178421925 0.84804809178421925 0 0.52991927123019833 1 I I #
face $-1 $-1 $255 $36 $-1 $521 reversed single #
loop $-1 $-1 $380 $240 #
plane-surface $-1 0 39.485546444809309 0 0 -1 0 0 0 -1 forward_v I I I I #
coedge $-1 $522 $378 $381 $523 forward $241 $-1 #
coedge $-1 $384 $243 $244 $372 reversed $151 $-1 #
coedge $-1 $378 $522 $243 $370 reversed $241 $-1 #
edge $-1 $385 -9.8264988703328804 $524 9.8264988703328804 $369 $525 forward 7 unknown #
coedge $-1 $245 $244 $522 $526 forward $97 $-1 #
edge $-1 $376 -76.335337382122262 $524 76.335337382122262 $368 $527 forward 7 unknown #
coedge $-1 $381 $380 $245 $374 reversed $365 $-1 #
edge $-1 $528 -76.335337382122262 $375 76.335337382122262 $373 $529 forward 7 unknown #
vertex $-1 $247 $530 #
vertex $-1 $387 $531 #
straight-curve $-1 76.335337382122262 0 -9.8264988703328804 0 -1 0 I I #
coedge $-1 $367 $369 $248 $379 reversed $241 $-1 #
edge $-1 $382 -39.485546444809309 $385 39.485546444809309 $378 $532 forward 7 unknown #
coedge $-1 $373 $249 $254 $388 forward $365 $-1 #
coedge $-1 $249 $373 $367 $523 reversed $365 $-1 #
vertex $-1 $250 $533 #
straight-curve $-1 0 39.485546444809309 9.8264988703328804 -1 0 0 I I #
coedge $-1 $251 $368 $253 $387 reversed $151 $-1 #
vertex $-1 $379 $534 #
straight-curve $-1 0 -39.485546444809309 9.8264988703328804 1 0 0 I I #
edge $-1 $256 -9.8264988703328804 $376 9.8264988703328804 $253 $535 forward 7 unknown #
edge $-1 $257 -9.8264988703328804 $375 9.8264988703328804 $254 $536 forward 7 unknown #
point $-1 76.335337382122262 -39.485546444809309 9.8264988703328804 #
point $-1 76.335337382122262 39.485546444809309 9.8264988703328804 #
face $-1 $-1 $537 $37 $-1 $538 reversed single #
loop $-1 $-1 $539 $259 #
plane-surface $-1 0 0 -9.8264988703328804 0 0 1 1 0 0 forward_v I I I I #
coedge $-1 $401 $411 $396 $540 forward $260 $-1 #
coedge $-1 $265 $262 $539 $541 reversed $159 $-1 #
coedge $-1 $262 $265 $394 $540 reversed $159 $-1 #
coedge $-1 $542 $543 $262 $398 forward $537 $-1 #
edge $-1 $544 -9.8264988703328804 $545 9.8264988703328804 $397 $546 forward 7 unknown #
coedge $-1 $539 $268 $263 $400 forward $392 $-1 #
edge $-1 $273 -36.172654656571879 $404 -32.118800277794875 $399 $547 forward 7 unknown #
coedge $-1 $270 $394 $264 $402 forward $260 $-1 #
edge $-1 $403 32.118800277794875 $272 36.172654656571879 $401 $548 forward 7 unknown #
vertex $-1 $402 $549 #
vertex $-1 $400 $550 #
straight-curve $-1 -66.264527744978253 -31.810513124132022 0 0 0 -1 I I #
coedge $-1 $543 $542 $267 $407 forward $537 $-1 #
edge $-1 $412 -9.8264988703328804 $409 9.8264988703328804 $406 $551 forward 7 unknown #
coedge $-1 $268 $539 $543 $552 forward $392 $-1 #
vertex $-1 $269 $553 #
straight-curve $-1 -70.318382123755256 -17.824014892235333 -9.8264988703328804 0 1 0 I I #
coedge $-1 $394 $270 $542 $554 forward $260 $-1 #
vertex $-1 $554 $555 #
straight-curve $-1 -70.318382123755256 -17.824014892235333 9.8264988703328804 0 -1 0 I I #
point $-1 -70.318382123755256 -31.810513124132022 9.8264988703328804 #
point $-1 -70.318382123755256 -31.810513124132022 -9.8264988703328804 #
face $-1 $-1 $433 $38 $-1 $556 reversed single #
plane-surface $-1 76.335337382122262 0 0 -1 0 0 0 0 1 forward_v I I I I #
coedge $-1 $420 $557 $422 $558 forward $276 $-1 #
coedge $-1 $436 $278 $279 $423 reversed $167 $-1 #
coedge $-1 $429 $418 $278 $421 forward $276 $-1 #
edge $-1 $559 -2.7511320871023437 $437 0.72021576359046291 $420 $560 forward 7 unknown #
coedge $-1 $280 $279 $418 $558 reversed $105 $-1 #
edge $-1 $426 -76.335337382122262 $559 76.335337382122262 $419 $561 forward 7 unknown #
coedge $-1 $432 $431 $280 $425 forward $433 $-1 #
edge $-1 $427 -76.335337382122262 $562 76.335337382122262 $424 $563 forward 7 unknown #
vertex $-1 $282 $564 #
vertex $-1 $282 $565 #
straight-curve $-1 76.335337382122262 17.0153327510187 -3.7665902488582841 0 1 0 I I #
coedge $-1 $557 $420 $283 $430 forward $276 $-1 #
edge $-1 $437 11.5604518082468 $434 22.470213693790601 $429 $566 forward 7 unknown #
coedge $-1 $424 $284 $289 $440 forward $433 $-1 #
coedge $-1 $284 $424 $557 $567 reversed $433 $-1 #
loop $-1 $-1 $424 $416 #
vertex $-1 $567 $568 #
straight-curve $-1 0 39.485546444809309 -0.29524239816547748 1 0 0 I I #
coedge $-1 $286 $419 $288 $439 reversed $167 $-1 #
vertex $-1 $430 $569 #
straight-curve $-1 0 28.5757845592655 -0.29524239816547748 1 0 0 I I #
edge $-1 $292 -0.72021576359046291 $426 2.7511320871023437 $288 $570 forward 7 unknown #
edge $-1 $291 0.29524239816547748 $427 3.7665902488582841 $289 $571 forward 7 unknown #
point $-1 76.335337382122262 39.485546444809302 -0.29524239816547748 #
point $-1 76.335337382122262 28.5757845592655 -0.29524239816547748 #
loop $-1 $-1 $302 $294 #
plane-surface $-1 76.335337382122262 0 0 -1 0 0 0 0 1 forward_v I I I I #
coedge $-1 $446 $297 $299 $450 reversed $175 $-1 #
coedge $-1 $297 $445 $572 $573 reversed $175 $-1 #
coedge $-1 $305 $300 $297 $448 forward $295 $-1 #
edge $-1 $451 47.524553931891937 $574 56.91376461642087 $447 $575 forward 7 unknown #
coedge $-1 $299 $298 $454 $576 reversed $109 $-1 #
edge $-1 $577 -152.67067476424452 $451 -141.20856487961706 $445 $578 forward 7 unknown #
vertex $-1 $301 $579 #
straight-curve $-1 66.946126697593328 -4.6429313832889605 9.8264988703328982 0 -1 0 I I #
coedge $-1 $572 $302 $305 $458 reversed $443 $-1 #
coedge $-1 $302 $572 $449 $576 forward $443 $-1 #
vertex $-1 $303 $580 #
straight-curve $-1 76.335337382122262 -4.7776691355463594 107.94044994297347 0 0 1 I I #
straight-curve $-1 -48.725157163753948 -4.7776691355463594 90.820405340070721 0.81915203911291934 0 -0.57357644374324357 I I #
edge $-1 $574 -13.794056397609483 $306 -4.7776691355463594 $453 $581 forward 7 unknown #
point $-1 76.335337382122262 -4.7776691355463594 9.8264988703328804 #
point $-1 66.946126697593328 -4.7776691355463594 9.8264988703328839 #
edge $-1 $582 1 $582 0 $309 $-1 forward 7 unknown #
vertex $-1 $310 $583 #
ellipse-curve $-1 70.714952317317696 -11.217945751305734 5.2171503175897191 0.57357644374324357 0 0.81915203911291934 0.40957601955645967 0 -0.28678822187162178 1 I I #
point $-1 72.050308059414235 -11.217945751305734 6.2525125357518068 #
edge $-1 $584 1 $584 0 $313 $-1 forward 7 unknown #
vertex $-1 $314 $585 #
ellipse-curve $-1 70.714952317317696 -7.3537797818501076 5.2171503175897191 0.57357644374324357 0 0.81915203911291934 0.40957601955645967 0 -0.28678822187162178 1 I I #
point $-1 72.050308059414235 -7.3537797818501076 6.2525125357518068 #
plane-surface $-1 0 0 9.8264988703328804 0 0 1 1 0 0 forward_v I I I I #
coedge $-1 $480 $479 $472 $586 forward $318 $-1 #
coedge $-1 $472 $320 $322 $476 reversed $197 $-1 #
coedge $-1 $320 $471 $470 $586 reversed $197 $-1 #
coedge $-1 $328 $323 $320 $474 forward $329 $-1 #
edge $-1 $477 -15.320338081948044 $587 -2.2838976635844261 $473 $588 forward 7 unknown #
coedge $-1 $322 $321 $480 $589 reversed $123 $-1 #
edge $-1 $590 3.3516233665497261e-014 $477 15.3722890773047 $471 $591 forward 7 unknown #
vertex $-1 $324 $592 #
straight-curve $-1 -63.298896963758651 -5.6896691051480897 9.8264988703328804 0 1 0 I I #
coedge $-1 $470 $325 $328 $484 reversed $318 $-1 #
coedge $-1 $325 $470 $475 $589 forward $318 $-1 #
vertex $-1 $326 $593 #
straight-curve $-1 -76.335337382122262 -16.75954595328006 65.576250525287179 0 0 1 I I #
straight-curve $-1 -76.33533738212229 -16.75954595328006 1.6804266453476373 -0.84804809178421925 0 -0.52991927123019833 I I #
edge $-1 $587 5.9991304673122983 $330 16.75954595328006 $479 $594 forward 7 unknown #
point $-1 -76.335337382122262 -16.75954595328006 9.8264988703328804 #
point $-1 -63.298896963758644 -16.75954595328006 9.8264988703328804 #
edge $-1 $595 1 $595 0 $333 $-1 forward 7 unknown #
vertex $-1 $334 $596 #
ellipse-curve $-1 -68.422818336638301 -13.685141528717843 3.5221182272705702 -0.52991927123019833 0 0.84804809178421925 0.84804809178421925 0 0.52991927123019833 1 I I #
point $-1 -68.969069081156206 -13.685141528717843 6.2833820290704407 #
edge $-1 $597 1 $597 0 $337 $-1 forward 7 unknown #
vertex $-1 $338 $598 #
ellipse-curve $-1 -68.422818336638301 -9.073534891874516 3.5221182272705702 -0.52991927123019833 0 0.84804809178421925 0.84804809178421925 0 0.52991927123019833 1 I I #
point $-1 -68.969069081156206 -9.073534891874516 6.2833820290704407 #
loop $-1 $-1 $349 $341 #
plane-surface $-1 -76.335337382122262 0 0 1 0 0 0 0 -1 forward_v I I I I #
coedge $-1 $498 $344 $346 $502 reversed $219 $-1 #
coedge $-1 $344 $497 $599 $600 reversed $219 $-1 #
coedge $-1 $352 $347 $344 $500 forward $342 $-1 #
edge $-1 $503 -15.320338081948044 $601 -2.2838976635844261 $499 $602 forward 7 unknown #
coedge $-1 $346 $345 $506 $603 reversed $137 $-1 #
edge $-1 $604 3.3516233665497261e-014 $503 15.3722890773047 $497 $605 forward 7 unknown #
vertex $-1 $348 $606 #
straight-curve $-1 -63.298896963758651 9.406905315701291 9.8264988703328804 0 1 0 I I #
coedge $-1 $599 $349 $352 $510 reversed $495 $-1 #
coedge $-1 $349 $599 $501 $603 forward $495 $-1 #
vertex $-1 $350 $607 #
straight-curve $-1 -76.335337382122262 13.433602888418701 65.576250525287179 0 0 1 I I #
straight-curve $-1 -76.33533738212229 13.433602888418701 1.6804266453476373 -0.84804809178421925 0 -0.52991927123019833 I I #
edge $-1 $601 -24.194018374386463 $353 -13.433602888418701 $505 $608 forward 7 unknown #
point $-1 -76.335337382122262 13.433602888418701 9.8264988703328804 #
point $-1 -63.298896963758644 13.433602888418701 9.8264988703328804 #
edge $-1 $609 1 $609 0 $356 $-1 forward 7 unknown #
vertex $-1 $357 $610 #
ellipse-curve $-1 -68.422818336638301 16.508007312980922 3.5221182272705702 -0.52991927123019833 0 0.84804809178421925 0.84804809178421925 0 0.52991927123019833 1 I I #
point $-1 -68.969069081156206 16.508007312980922 6.2833820290704407 #
edge $-1 $611 1 $611 0 $360 $-1 forward 7 unknown #
vertex $-1 $361 $612 #
ellipse-curve $-1 -68.422818336638301 21.119613949824249 3.5221182272705702 -0.52991927123019833 0 0.84804809178421925 0.84804809178421925 0 0.52991927123019833 1 I I #
point $-1 -68.969069081156206 21.119613949824249 6.2833820290704407 #
plane-surface $-1 76.335337382122262 0 0 -1 0 0 0 0 1 forward_v I I I I #
coedge $-1 $369 $367 $371 $526 reversed $241 $-1 #
edge $-1 $382 -9.8264988703328804 $528 9.8264988703328804 $381 $613 forward 7 unknown #
vertex $-1 $526 $614 #
straight-curve $-1 -76.335337382122262 -39.485546444809309 0 0 0 -1 I I #
edge $-1 $524 -39.485546444809309 $528 39.485546444809309 $522 $615 forward 7 unknown #
straight-curve $-1 0 -39.485546444809309 -9.8264988703328804 -1 0 0 I I #
vertex $-1 $374 $616 #
straight-curve $-1 0 39.485546444809309 -9.8264988703328804 1 0 0 I I #
point $-1 76.335337382122262 39.485546444809309 -9.8264988703328804 #
point $-1 76.335337382122262 -39.485546444809309 -9.8264988703328804 #
straight-curve $-1 -76.335337382122262 0 9.8264988703328804 0 -1 0 I I #
point $-1 -76.335337382122262 39.485546444809309 9.8264988703328804 #
point $-1 -76.335337382122262 -39.485546444809309 9.8264988703328804 #
straight-curve $-1 76.335337382122262 -39.485546444809309 0 0 0 -1 I I #
straight-curve $-1 76.335337382122262 39.485546444809309 0 0 0 -1 I I #
loop $-1 $-1 $397 $391 #
plane-surface $-1 0 -39.485546444809309 0 0 1 0 0 0 1 forward_v I I I I #
coedge $-1 $408 $399 $395 $541 forward $392 $-1 #
edge $-1 $545 -21.661531552573976 $403 -13.98649823189669 $394 $617 forward 7 unknown #
edge $-1 $404 13.98649823189669 $544 21.661531552573976 $539 $618 forward 7 unknown #
coedge $-1 $406 $397 $411 $554 reversed $537 $-1 #
coedge $-1 $397 $406 $408 $552 reversed $537 $-1 #
vertex $-1 $552 $619 #
vertex $-1 $398 $620 #
straight-curve $-1 -66.264527744978253 -39.485546444809309 0 0 0 1 I I #
straight-curve $-1 -34.145727467183377 -31.810513124132022 -9.8264988703328804 1 0 0 I I #
straight-curve $-1 -34.145727467183377 -31.810513124132022 9.8264988703328804 -1 0 0 I I #
point $-1 -66.264527744978253 -31.810513124132022 9.8264988703328804 #
point $-1 -66.264527744978253 -31.810513124132022 -9.8264988703328804 #
straight-curve $-1 -70.318382123755256 -39.485546444809309 0 0 0 -1 I I #
edge $-1 $544 66.264527744978253 $409 70.318382123755256 $543 $621 forward 7 unknown #
point $-1 -70.318382123755256 -39.485546444809309 -9.8264988703328804 #
edge $-1 $412 -70.318382123755256 $545 -66.264527744978253 $542 $622 forward 7 unknown #
point $-1 -70.318382123755256 -39.485546444809309 9.8264988703328804 #
plane-surface $-1 0 39.485546444809309 0 0 -1 0 0 0 -1 forward_v I I I I #
coedge $-1 $418 $429 $432 $567 forward $276 $-1 #
edge $-1 $562 -22.470213693790601 $559 -11.5604518082468 $418 $623 forward 7 unknown #
vertex $-1 $558 $624 #
straight-curve $-1 -76.335337382122262 28.5757845592655 -1.0154581617559404 0 0 1 I I #
straight-curve $-1 0 28.5757845592655 -3.7665902488582841 -1 0 0 I I #
vertex $-1 $425 $625 #
straight-curve $-1 0 39.485546444809309 -3.7665902488582841 -1 0 0 I I #
point $-1 76.335337382122262 28.5757845592655 -3.7665902488582841 #
point $-1 76.335337382122262 39.485546444809302 -3.7665902488582841 #
straight-curve $-1 -76.335337382122262 17.0153327510187 -0.29524239816547748 0 1 0 I I #
edge $-1 $434 0.29524239816547748 $562 3.7665902488582841 $432 $626 forward 7 unknown #
point $-1 -76.335337382122262 39.485546444809302 -0.29524239816547748 #
point $-1 -76.335337382122262 28.5757845592655 -0.29524239816547748 #
straight-curve $-1 76.335337382122262 28.5757845592655 -1.0154581617559404 0 0 -1 I I #
straight-curve $-1 76.335337382122262 39.485546444809309 0 0 0 -1 I I #
coedge $-1 $454 $453 $446 $573 forward $443 $-1 #
edge $-1 $574 98.113951072640589 $577 104.68834729805948 $572 $627 forward 7 unknown #
vertex $-1 $458 $628 #
straight-curve $-1 19.421572765701391 -13.794056397609483 9.8264988703328839 1 0 0 I I #
edge $-1 $577 -9.1511250143205221 $455 -0.13473775225739892 $454 $629 forward 7 unknown #
vertex $-1 $576 $630 #
straight-curve $-1 -48.725157163753948 -13.794056397609483 90.820405340070721 -0.81915203911291934 0 0.57357644374324357 I I #
point $-1 66.946126697593328 -13.794056397609483 9.8264988703328839 #
point $-1 76.335337382122276 -4.7776691355463594 3.2521026449139896 #
straight-curve $-1 76.335337382122262 0 9.8264988703328804 0 1 0 I I #
vertex $-1 $461 $631 #
point $-1 71.12452833687415 -11.217945751305734 4.930362095718098 #
vertex $-1 $465 $632 #
point $-1 71.12452833687415 -7.3537797818501076 4.930362095718098 #
edge $-1 $587 55.749751654954295 $590 63.895823879939528 $470 $633 forward 7 unknown #
vertex $-1 $484 $634 #
straight-curve $-1 -78.619235045706688 -5.9991304673122983 9.8264988703328839 -1 0 0 I I #
edge $-1 $590 0.30946136216420861 $481 11.069876848131971 $480 $635 forward 7 unknown #
vertex $-1 $589 $636 #
straight-curve $-1 -76.33533738212229 -5.9991304673122983 1.6804266453476373 0.84804809178421925 0 0.52991927123019833 I I #
point $-1 -63.298896963758644 -5.9991304673122983 9.8264988703328804 #
point $-1 -76.335337382122262 -16.75954595328006 1.6804266453476551 #
straight-curve $-1 -76.335337382122262 0 9.8264988703328804 0 -1 0 I I #
vertex $-1 $487 $637 #
point $-1 -67.574770244854079 -13.685141528717843 4.0520374985007681 #
vertex $-1 $491 $638 #
point $-1 -67.574770244854079 -9.073534891874516 4.0520374985007681 #
coedge $-1 $506 $505 $498 $600 forward $495 $-1 #
edge $-1 $601 55.749751654954295 $604 63.895823879939528 $599 $639 forward 7 unknown #
vertex $-1 $510 $640 #
straight-curve $-1 -78.619235045706688 24.194018374386463 9.8264988703328839 -1 0 0 I I #
edge $-1 $604 -14.787113058685172 $507 -4.0266975727174099 $506 $641 forward 7 unknown #
vertex $-1 $603 $642 #
straight-curve $-1 -76.33533738212229 24.194018374386463 1.6804266453476373 0.84804809178421925 0 0.52991927123019833 I I #
point $-1 -63.298896963758644 24.194018374386463 9.8264988703328804 #
point $-1 -76.335337382122262 13.433602888418701 1.6804266453476551 #
straight-curve $-1 -76.335337382122262 0 9.8264988703328804 0 -1 0 I I #
vertex $-1 $513 $643 #
point $-1 -67.574770244854079 16.508007312980922 4.0520374985007681 #
vertex $-1 $517 $644 #
point $-1 -67.574770244854079 21.119613949824249 4.0520374985007681 #
straight-curve $-1 -76.335337382122262 39.485546444809309 0 0 0 -1 I I #
point $-1 -76.335337382122262 -39.485546444809309 -9.8264988703328804 #
straight-curve $-1 -76.335337382122262 0 -9.8264988703328804 0 1 0 I I #
point $-1 -76.335337382122262 39.485546444809309 -9.8264988703328804 #
straight-curve $-1 -66.264527744978253 -17.824014892235333 9.8264988703328804 0 1 0 I I #
straight-curve $-1 -66.264527744978253 -17.824014892235333 -9.8264988703328804 0 -1 0 I I #
point $-1 -66.264527744978253 -39.485546444809309 -9.8264988703328804 #
point $-1 -66.264527744978253 -39.485546444809309 9.8264988703328804 #
straight-curve $-1 0 -39.485546444809309 -9.8264988703328804 -1 0 0 I I #
straight-curve $-1 0 -39.485546444809309 9.8264988703328804 1 0 0 I I #
straight-curve $-1 -76.335337382122262 17.0153327510187 -3.7665902488582841 0 -1 0 I I #
point $-1 -76.335337382122262 28.5757845592655 -3.7665902488582841 #
point $-1 -76.335337382122262 39.485546444809302 -3.7665902488582841 #
straight-curve $-1 -76.335337382122262 39.485546444809309 0 0 0 -1 I I #
straight-curve $-1 76.335337382122262 -13.794056397609483 107.94044994297347 0 0 -1 I I #
point $-1 76.335337382122262 -13.794056397609483 9.8264988703328804 #
straight-curve $-1 76.335337382122276 -4.6429313832889605 3.2521026449139896 0 1 0 I I #
point $-1 76.335337382122276 -13.794056397609483 3.2521026449139896 #
point $-1 70.428164095446064 -11.217945751305734 4.8075742980332601 #
point $-1 70.428164095446064 -7.3537797818501076 4.8075742980332601 #
straight-curve $-1 -76.335337382122262 -5.9991304673122983 65.576250525287179 0 0 -1 I I #
point $-1 -76.335337382122262 -5.9991304673122983 9.8264988703328804 #
straight-curve $-1 -76.335337382122262 -5.6896691051480897 1.6804266453476546 0 -1 0 I I #
point $-1 -76.335337382122262 -5.9991304673122983 1.6804266453476551 #
point $-1 -67.892899065408102 -13.685141528717843 2.6740701354863505 #
point $-1 -67.892899065408102 -9.073534891874516 2.6740701354863505 #
straight-curve $-1 -76.335337382122262 24.194018374386463 65.576250525287179 0 0 -1 I I #
point $-1 -76.335337382122262 24.194018374386463 9.8264988703328804 #
straight-curve $-1 -76.335337382122262 9.406905315701291 1.6804266453476546 0 -1 0 I I #
point $-1 -76.335337382122262 24.194018374386463 1.6804266453476551 #
point $-1 -67.892899065408102 16.508007312980922 2.6740701354863505 #
point $-1 -67.892899065408102 21.119613949824249 2.6740701354863505 #
End-of-ACIS-data 