500 0 9 0           
7 Unknown 11 ACIS 5.0 NT 24 Fri Mar 26 14:36:26 1999 
-1 9.9999999999999995e-007 1e-010 
body $-1 $9 $-1 $10 #
body $-1 $11 $-1 $12 #
body $-1 $13 $-1 $14 #
body $-1 $15 $-1 $16 #
body $-1 $17 $-1 $18 #
body $-1 $19 $-1 $20 #
body $-1 $21 $-1 $22 #
body $-1 $23 $-1 $24 #
body $-1 $25 $-1 $26 #
lump $-1 $-1 $27 $0 #
transform $-1 1 0 0 0 1 0 0 0 1 72.519302957243568 32.974184232916407 11.591532209958013 1 rotate no_reflect no_shear #
lump $-1 $-1 $28 $1 #
transform $-1 1 0 0 0 1 0 0 0 1 72.519302957243568 32.974184232916407 11.591532209958013 1 rotate no_reflect no_shear #
lump $-1 $-1 $29 $2 #
transform $-1 1 0 0 0 1 0 0 0 1 72.519302957243568 32.974184232916407 11.591532209958013 1 rotate no_reflect no_shear #
lump $-1 $-1 $30 $3 #
transform $-1 1 0 0 0 1 0 0 0 1 72.519302957243568 32.974184232916407 11.591532209958013 1 rotate no_reflect no_shear #
lump $-1 $-1 $31 $4 #
transform $-1 1 0 0 0 1 0 0 0 1 72.519302957243568 32.974184232916407 11.591532209958013 1 rotate no_reflect no_shear #
lump $-1 $-1 $32 $5 #
transform $-1 1 0 0 0 1 0 0 0 1 72.519302957243568 32.974184232916407 11.591532209958013 1 rotate no_reflect no_shear #
lump $-1 $-1 $33 $6 #
transform $-1 1 0 0 0 1 0 0 0 1 72.519302957243568 32.974184232916407 11.591532209958013 1 rotate no_reflect no_shear #
lump $-1 $-1 $34 $7 #
transform $-1 1 0 0 0 1 0 0 0 1 72.519302957243568 32.974184232916407 11.591532209958013 1 rotate no_reflect no_shear #
lump $-1 $-1 $35 $8 #
transform $-1 1 0 0 0 1 0 0 0 1 72.519302957243568 32.974184232916407 11.591532209958013 1 rotate no_reflect no_shear #
shell $-1 $-1 $-1 $36 $-1 $9 #
shell $-1 $-1 $-1 $37 $-1 $11 #
shell $-1 $-1 $-1 $38 $-1 $13 #
shell $-1 $-1 $-1 $39 $-1 $15 #
shell $-1 $-1 $-1 $40 $-1 $17 #
shell $-1 $-1 $-1 $41 $-1 $19 #
shell $-1 $-1 $-1 $42 $-1 $21 #
shell $-1 $-1 $-1 $43 $-1 $23 #
shell $-1 $-1 $-1 $44 $-1 $25 #
face $-1 $45 $46 $27 $-1 $47 forward single #
face $-1 $48 $49 $28 $-1 $50 forward single #
face $-1 $51 $52 $29 $-1 $53 forward single #
face $-1 $54 $55 $30 $-1 $56 reversed single #
face $-1 $57 $58 $31 $-1 $59 forward single #
face $-1 $60 $61 $32 $-1 $62 reversed single #
face $-1 $63 $64 $33 $-1 $65 forward single #
face $-1 $66 $67 $34 $-1 $68 forward single #
face $-1 $69 $70 $35 $-1 $71 forward single #
face $-1 $72 $73 $27 $-1 $74 reversed single #
loop $-1 $-1 $75 $36 #
plane-surface $-1 0 0 11.591532209958013 0 0 1 1 0 0 forward_v I I I I #
face $-1 $76 $77 $28 $-1 $78 reversed single #
loop $-1 $-1 $79 $37 #
plane-surface $-1 0 -32.974184232916407 0 0 1 0 0 0 1 forward_v I I I I #
face $-1 $80 $81 $29 $-1 $82 reversed single #
loop $-1 $-1 $83 $38 #
plane-surface $-1 0 32.974184232916407 0 0 -1 0 0 0 -1 forward_v I I I I #
face $-1 $84 $85 $30 $-1 $86 reversed single #
loop $-1 $-1 $87 $39 #
plane-surface $-1 -173.2715857790634 6.469920520322372 107.4663885280431 0 1 0 -0.69465837861970381 0 0.71933979245794832 forward_v I I I I #
face $-1 $88 $89 $31 $-1 $90 forward single #
loop $-1 $91 $92 $40 #
cone-surface $-1 -66.96289059683545 12.85620304338866 6.1435233019180533 0.69465837861970381 0 -0.71933979245794832 1.7983494811448708 0 1.7366459465492596 1 I I 0 1 2.5 forward I I I I #
face $-1 $93 $94 $32 $-1 $95 reversed single #
loop $-1 $-1 $96 $41 #
plane-surface $-1 29.873381033215168 24.313508698827814 204.27264323378256 0 -1 0 -0.54463904215088732 0 -0.83867056331134215 forward_v I I I I #
face $-1 $97 $98 $33 $-1 $99 forward single #
loop $-1 $100 $101 $42 #
cone-surface $-1 66.062380568447566 13.728102669326567 7.1006988067324235 -0.54463904215088732 0 -0.83867056331134215 0.83867056331134215 0 -0.54463904215088732 1 I I 0 1 1 forward I I I I #
face $-1 $102 $103 $34 $-1 $104 forward single #
loop $-1 $105 $106 $43 #
cone-surface $-1 66.062380568447566 17.697629930389539 7.1006988067324235 -0.54463904215088732 0 -0.83867056331134215 0.83867056331134215 0 -0.54463904215088732 1 I I 0 1 1 forward I I I I #
face $-1 $107 $108 $35 $-1 $109 forward single #
loop $-1 $110 $111 $44 #
cone-surface $-1 66.062380568447566 21.66715719145251 7.1006988067324235 -0.54463904215088732 0 -0.83867056331134215 0.83867056331134215 0 -0.54463904215088732 1 I I 0 1 1 forward I I I I #
face $-1 $112 $113 $27 $-1 $114 reversed single #
loop $-1 $-1 $115 $45 #
plane-surface $-1 0 0 -11.591532209958013 0 0 1 1 0 0 forward_v I I I I #
coedge $-1 $116 $117 $118 $119 forward $46 $-1 #
face $-1 $120 $121 $28 $-1 $122 forward single #
loop $-1 $-1 $123 $48 #
plane-surface $-1 -72.519302957243568 0 0 1 0 0 0 0 -1 forward_v I I I I #
coedge $-1 $124 $125 $126 $127 forward $49 $-1 #
face $-1 $128 $129 $29 $-1 $130 forward single #
loop $-1 $-1 $131 $51 #
plane-surface $-1 72.519302957243568 0 0 -1 0 0 0 0 1 forward_v I I I I #
coedge $-1 $132 $133 $134 $135 forward $52 $-1 #
face $-1 $136 $137 $30 $-1 $138 reversed single #
loop $-1 $-1 $139 $54 #
plane-surface $-1 -72.519302957243582 12.856203043388668 3.1343478511257672 -0.69465837861970381 0 0.71933979245794832 0.71933979245794832 0 0.69465837861970381 forward_v I I I I #
coedge $-1 $140 $141 $142 $143 reversed $55 $-1 #
face $-1 $-1 $144 $31 $-1 $145 forward single #
loop $-1 $146 $147 $57 #
cone-surface $-1 -64.916990550181978 12.85620304338866 4.02493183272178 0.69465837861970381 0 -0.71933979245794832 0.8991747405724354 0 0.86832297327462982 1 I I -0.70710678118654746 0.70710678118654746 1.25 forward I I I I #
loop $-1 $-1 $148 $40 #
coedge $-1 $92 $92 $149 $150 reversed $58 $-1 #
face $-1 $151 $152 $32 $-1 $153 reversed single #
loop $-1 $-1 $154 $60 #
plane-surface $-1 -49.120306366951127 17.697629930389532 82.633033909587866 0.54463904215088732 0 0.83867056331134215 0.83867056331134215 0 -0.54463904215088732 forward_v I I I I #
coedge $-1 $155 $156 $157 $158 reversed $61 $-1 #
face $-1 $-1 $159 $33 $-1 $160 forward single #
loop $-1 $161 $162 $63 #
cone-surface $-1 65.455784617528181 13.728102669326567 6.1666229721193755 -0.54463904215088732 0 -0.83867056331134215 0.41933528165567108 0 -0.27231952107544366 1 I I -0.70710678118654813 0.70710678118654691 0.5 forward I I I I #
loop $-1 $-1 $163 $42 #
coedge $-1 $101 $101 $164 $165 reversed $64 $-1 #
face $-1 $-1 $166 $34 $-1 $167 forward single #
loop $-1 $168 $169 $66 #
cone-surface $-1 65.455784617528181 17.697629930389539 6.1666229721193755 -0.54463904215088732 0 -0.83867056331134215 0.41933528165567108 0 -0.27231952107544366 1 I I -0.70710678118654813 0.70710678118654691 0.5 forward I I I I #
loop $-1 $-1 $170 $43 #
coedge $-1 $106 $106 $171 $172 reversed $67 $-1 #
face $-1 $-1 $173 $35 $-1 $174 forward single #
loop $-1 $175 $176 $69 #
cone-surface $-1 65.455784617528181 21.66715719145251 6.1666229721193755 -0.54463904215088732 0 -0.83867056331134215 0.41933528165567108 0 -0.27231952107544366 1 I I -0.70710678118654813 0.70710678118654691 0.5 forward I I I I #
loop $-1 $-1 $177 $44 #
coedge $-1 $111 $111 $178 $179 reversed $70 $-1 #
face $-1 $180 $181 $27 $-1 $182 reversed single #
loop $-1 $-1 $183 $72 #
plane-surface $-1 0 -32.974184232916407 0 0 1 0 0 0 1 forward_v I I I I #
coedge $-1 $184 $185 $186 $187 forward $73 $-1 #
coedge $-1 $188 $75 $189 $190 forward $46 $-1 #
coedge $-1 $75 $188 $191 $192 forward $46 $-1 #
coedge $-1 $193 $194 $75 $119 reversed $195 $-1 #
edge $-1 $196 -32.974184232916407 $197 32.974184232916407 $118 $198 forward 7 unknown #
face $-1 $199 $200 $28 $-1 $201 reversed single #
loop $-1 $-1 $202 $76 #
plane-surface $-1 0 -37.304521999960699 4.8142416547129354 0 0 1 1 0 0 forward_v I I I I #
coedge $-1 $203 $204 $125 $205 forward $77 $-1 #
coedge $-1 $206 $79 $207 $208 reversed $49 $-1 #
coedge $-1 $79 $206 $123 $205 reversed $49 $-1 #
coedge $-1 $209 $202 $79 $127 reversed $121 $-1 #
edge $-1 $210 -72.519302957243568 $211 72.519302957243568 $126 $212 forward 7 unknown #
face $-1 $213 $214 $29 $-1 $215 reversed single #
loop $-1 $-1 $216 $80 #
plane-surface $-1 0 37.304521999960706 4.8142416547129354 0 0 1 1 0 0 forward_v I I I I #
coedge $-1 $217 $218 $133 $219 forward $81 $-1 #
coedge $-1 $220 $83 $221 $222 reversed $52 $-1 #
coedge $-1 $83 $220 $131 $219 reversed $52 $-1 #
coedge $-1 $216 $223 $83 $135 reversed $129 $-1 #
edge $-1 $224 -72.519302957243568 $225 72.519302957243568 $134 $226 forward 7 unknown #
face $-1 $227 $228 $30 $-1 $229 reversed single #
loop $-1 $-1 $230 $84 #
plane-surface $-1 -173.2715857790634 19.242485566454963 107.4663885280431 0 -1 0 0.69465837861970381 0 -0.71933979245794832 forward_v I I I I #
coedge $-1 $231 $232 $233 $234 reversed $85 $-1 #
coedge $-1 $141 $87 $235 $236 reversed $55 $-1 #
coedge $-1 $87 $140 $231 $237 reversed $55 $-1 #
coedge $-1 $233 $238 $87 $143 forward $239 $-1 #
edge $-1 $240 14.116489932288133 $241 22.874160506346655 $142 $242 forward 7 unknown #
loop $-1 $-1 $149 $88 #
plane-surface $-1 -72.519302957243582 12.856203043388668 3.1343478511257672 -0.69465837861970381 0 0.71933979245794832 0.71933979245794832 0 0.69465837861970381 forward_v I I I I #
loop $-1 $-1 $243 $57 #
coedge $-1 $147 $147 $148 $244 reversed $89 $-1 #
coedge $-1 $148 $148 $147 $244 forward $91 $-1 #
coedge $-1 $149 $149 $92 $150 forward $144 $-1 #
edge $-1 $245 0 $245 6.2831853071796004 $149 $246 forward 7 unknown #
face $-1 $247 $248 $32 $-1 $249 forward single #
loop $-1 $-1 $250 $93 #
plane-surface $-1 29.873381033215168 11.081751161951249 204.27264323378256 0 1 0 0.54463904215088732 0 0.83867056331134215 forward_v I I I I #
coedge $-1 $251 $252 $253 $254 reversed $94 $-1 #
coedge $-1 $156 $96 $255 $256 reversed $61 $-1 #
coedge $-1 $96 $155 $251 $257 reversed $61 $-1 #
coedge $-1 $253 $258 $96 $158 forward $248 $-1 #
edge $-1 $259 -57.582612440635984 $260 -45.337320522731858 $157 $261 forward 7 unknown #
loop $-1 $-1 $164 $97 #
plane-surface $-1 -49.120306366951127 17.697629930389532 82.633033909587866 0.54463904215088732 0 0.83867056331134215 0.83867056331134215 0 -0.54463904215088732 forward_v I I I I #
loop $-1 $-1 $262 $63 #
coedge $-1 $162 $162 $163 $263 reversed $98 $-1 #
coedge $-1 $163 $163 $162 $263 forward $100 $-1 #
coedge $-1 $164 $164 $101 $165 forward $159 $-1 #
edge $-1 $264 0 $264 6.2831853071796004 $164 $265 forward 7 unknown #
loop $-1 $-1 $171 $102 #
plane-surface $-1 -49.120306366951127 17.697629930389532 82.633033909587866 0.54463904215088732 0 0.83867056331134215 0.83867056331134215 0 -0.54463904215088732 forward_v I I I I #
loop $-1 $-1 $266 $66 #
coedge $-1 $169 $169 $170 $267 reversed $103 $-1 #
coedge $-1 $170 $170 $169 $267 forward $105 $-1 #
coedge $-1 $171 $171 $106 $172 forward $166 $-1 #
edge $-1 $268 0 $268 6.2831853071796004 $171 $269 forward 7 unknown #
loop $-1 $-1 $178 $107 #
plane-surface $-1 -49.120306366951127 17.697629930389532 82.633033909587866 0.54463904215088732 0 0.83867056331134215 0.83867056331134215 0 -0.54463904215088732 forward_v I I I I #
loop $-1 $-1 $270 $69 #
coedge $-1 $176 $176 $177 $271 reversed $108 $-1 #
coedge $-1 $177 $177 $176 $271 forward $110 $-1 #
coedge $-1 $178 $178 $111 $179 forward $173 $-1 #
edge $-1 $272 0 $272 6.2831853071796004 $178 $273 forward 7 unknown #
face $-1 $274 $275 $27 $-1 $276 reversed single #
loop $-1 $-1 $277 $112 #
plane-surface $-1 -72.519302957243568 0 0 1 0 0 0 0 -1 forward_v I I I I #
coedge $-1 $278 $191 $279 $280 forward $113 $-1 #
coedge $-1 $281 $115 $278 $282 forward $73 $-1 #
coedge $-1 $115 $281 $283 $284 forward $73 $-1 #
coedge $-1 $194 $193 $115 $187 reversed $195 $-1 #
edge $-1 $285 -32.974184232916407 $286 32.974184232916407 $186 $287 forward 7 unknown #
coedge $-1 $117 $116 $288 $289 forward $46 $-1 #
coedge $-1 $290 $291 $116 $190 reversed $275 $-1 #
edge $-1 $197 -72.519302957243568 $292 72.519302957243568 $189 $293 forward 7 unknown #
coedge $-1 $183 $294 $117 $192 reversed $113 $-1 #
edge $-1 $295 -72.519302957243568 $196 72.519302957243568 $191 $296 forward 7 unknown #
coedge $-1 $186 $118 $294 $297 forward $195 $-1 #
coedge $-1 $118 $186 $290 $298 reversed $195 $-1 #
loop $-1 $-1 $193 $274 #
vertex $-1 $119 $299 #
vertex $-1 $119 $300 #
straight-curve $-1 72.519302957243568 0 11.591532209958013 0 1 0 I I #
face $-1 $301 $302 $28 $-1 $303 reversed single #
loop $-1 $-1 $304 $120 #
plane-surface $-1 0 -37.304521999960699 -0.86772105319146853 0 0 1 1 0 0 forward_v I I I I #
coedge $-1 $126 $305 $306 $307 forward $121 $-1 #
coedge $-1 $308 $123 $309 $310 reversed $77 $-1 #
coedge $-1 $123 $308 $209 $311 reversed $77 $-1 #
edge $-1 $210 -4.8142416547129354 $312 0.86772105319146853 $123 $313 forward 7 unknown #
coedge $-1 $125 $124 $314 $315 forward $49 $-1 #
coedge $-1 $306 $316 $124 $208 forward $317 $-1 #
edge $-1 $318 -0.86772105319146853 $211 4.8142416547129354 $207 $319 forward 7 unknown #
coedge $-1 $305 $126 $204 $311 forward $121 $-1 #
vertex $-1 $205 $320 #
vertex $-1 $307 $321 #
straight-curve $-1 0 -32.974184232916407 4.8142416547129354 1 0 0 I I #
face $-1 $322 $323 $29 $-1 $324 reversed single #
loop $-1 $-1 $325 $128 #
plane-surface $-1 0 37.304521999960706 -0.86772105319146853 0 0 1 1 0 0 forward_v I I I I #
coedge $-1 $326 $134 $218 $327 forward $129 $-1 #
coedge $-1 $328 $131 $325 $329 reversed $81 $-1 #
coedge $-1 $131 $328 $216 $327 reversed $81 $-1 #
edge $-1 $224 -4.8142416547129354 $330 0.86772105319146853 $131 $331 forward 7 unknown #
coedge $-1 $133 $132 $332 $333 forward $52 $-1 #
coedge $-1 $334 $335 $132 $222 forward $336 $-1 #
edge $-1 $337 -0.86772105319146853 $225 4.8142416547129354 $221 $338 forward 7 unknown #
coedge $-1 $134 $326 $334 $339 forward $129 $-1 #
vertex $-1 $219 $340 #
vertex $-1 $339 $341 #
straight-curve $-1 0 32.974184232916407 4.8142416547129354 -1 0 0 I I #
face $-1 $-1 $239 $30 $-1 $342 forward single #
loop $-1 $-1 $343 $136 #
plane-surface $-1 -72.519302957243568 0 0 1 0 0 0 0 -1 forward_v I I I I #
coedge $-1 $344 $345 $346 $347 reversed $137 $-1 #
coedge $-1 $348 $139 $141 $237 forward $85 $-1 #
coedge $-1 $139 $348 $344 $349 forward $85 $-1 #
coedge $-1 $346 $142 $139 $234 forward $239 $-1 #
edge $-1 $241 0.041818998628038173 $350 12.814384044760629 $233 $351 forward 7 unknown #
coedge $-1 $352 $353 $140 $236 forward $228 $-1 #
edge $-1 $354 -50.598846412895767 $240 -42.141662054063538 $235 $355 forward 7 unknown #
edge $-1 $241 -12.174594907552676 $354 -1.9785632286268914e-014 $141 $356 forward 7 unknown #
coedge $-1 $142 $346 $352 $357 forward $239 $-1 #
loop $-1 $-1 $346 $227 #
vertex $-1 $236 $358 #
vertex $-1 $143 $359 #
straight-curve $-1 -86.6357928895317 6.469920520322372 11.591532209958011 1 0 0 I I #
coedge $-1 $243 $243 $-1 $360 reversed $146 $-1 #
edge $-1 $361 0 $361 6.2831853071796004 $147 $362 forward 7 unknown #
vertex $-1 $150 $363 #
ellipse-curve $-1 -68.140467670214306 12.85620304338866 7.3629400305418979 -0.69465837861970381 0 0.71933979245794832 1.7983494811448708 0 1.7366459465492596 1 I I #
face $-1 $-1 $364 $32 $-1 $365 reversed single #
loop $-1 $-1 $157 $151 #
plane-surface $-1 0 0 11.591532209958013 0 0 1 1 0 0 forward_v I I I I #
coedge $-1 $366 $367 $368 $369 reversed $152 $-1 #
coedge $-1 $370 $154 $156 $257 forward $94 $-1 #
coedge $-1 $154 $370 $366 $371 forward $94 $-1 #
coedge $-1 $368 $157 $154 $254 forward $248 $-1 #
edge $-1 $260 -15.464693733633048 $372 -2.2329361967564836 $253 $373 forward 7 unknown #
coedge $-1 $374 $375 $155 $256 forward $364 $-1 #
edge $-1 $376 -98.496975107469709 $259 -90.544789406933262 $255 $377 forward 7 unknown #
edge $-1 $260 130.43776924084051 $376 145.03860591448714 $156 $378 forward 7 unknown #
coedge $-1 $157 $368 $374 $379 forward $248 $-1 #
vertex $-1 $256 $380 #
vertex $-1 $158 $381 #
straight-curve $-1 14.936690516607584 24.313508698827814 11.591532209958018 -1 0 0 I I #
coedge $-1 $262 $262 $-1 $382 reversed $161 $-1 #
edge $-1 $383 0 $383 6.2831853071796004 $162 $384 forward 7 unknown #
vertex $-1 $165 $385 #
ellipse-curve $-1 66.396656998291505 13.728102669326567 7.6154393596897929 0.54463904215088732 0 0.83867056331134215 0.83867056331134215 0 -0.54463904215088732 1 I I #
coedge $-1 $266 $266 $-1 $386 reversed $168 $-1 #
edge $-1 $387 0 $387 6.2831853071796004 $169 $388 forward 7 unknown #
vertex $-1 $172 $389 #
ellipse-curve $-1 66.396656998291505 17.697629930389539 7.6154393596897929 0.54463904215088732 0 0.83867056331134215 0.83867056331134215 0 -0.54463904215088732 1 I I #
coedge $-1 $270 $270 $-1 $390 reversed $175 $-1 #
edge $-1 $391 0 $391 6.2831853071796004 $176 $392 forward 7 unknown #
vertex $-1 $179 $393 #
ellipse-curve $-1 66.396656998291505 21.66715719145251 7.6154393596897929 0.54463904215088732 0 0.83867056331134215 0.83867056331134215 0 -0.54463904215088732 1 I I #
face $-1 $-1 $195 $27 $-1 $394 reversed single #
loop $-1 $-1 $291 $180 #
plane-surface $-1 0 32.974184232916407 0 0 -1 0 0 0 -1 forward_v I I I I #
coedge $-1 $395 $288 $291 $396 forward $181 $-1 #
coedge $-1 $294 $183 $184 $282 reversed $113 $-1 #
coedge $-1 $288 $395 $183 $280 reversed $181 $-1 #
edge $-1 $295 -11.591532209958013 $397 11.591532209958013 $279 $398 forward 7 unknown #
coedge $-1 $185 $184 $395 $399 forward $73 $-1 #
edge $-1 $286 -72.519302957243568 $397 72.519302957243568 $278 $400 forward 7 unknown #
coedge $-1 $291 $290 $185 $284 reversed $275 $-1 #
edge $-1 $401 -72.519302957243568 $285 72.519302957243568 $283 $402 forward 7 unknown #
vertex $-1 $187 $403 #
vertex $-1 $297 $404 #
straight-curve $-1 72.519302957243568 0 -11.591532209958013 0 -1 0 I I #
coedge $-1 $277 $279 $188 $289 reversed $181 $-1 #
edge $-1 $292 -32.974184232916407 $295 32.974184232916407 $288 $405 forward 7 unknown #
coedge $-1 $283 $189 $194 $298 forward $275 $-1 #
coedge $-1 $189 $283 $277 $396 reversed $275 $-1 #
vertex $-1 $190 $406 #
straight-curve $-1 0 32.974184232916407 11.591532209958013 -1 0 0 I I #
coedge $-1 $191 $278 $193 $297 reversed $113 $-1 #
vertex $-1 $289 $407 #
straight-curve $-1 0 -32.974184232916407 11.591532209958013 1 0 0 I I #
edge $-1 $196 -11.591532209958013 $286 11.591532209958013 $193 $408 forward 7 unknown #
edge $-1 $197 -11.591532209958013 $285 11.591532209958013 $194 $409 forward 7 unknown #
point $-1 72.519302957243568 -32.974184232916407 11.591532209958013 #
point $-1 72.519302957243568 32.974184232916407 11.591532209958013 #
face $-1 $-1 $317 $28 $-1 $410 reversed single #
loop $-1 $-1 $411 $199 #
plane-surface $-1 0 -41.63485976700499 1.9732603007607334 0 1 0 0 0 1 forward_v I I I I #
coedge $-1 $412 $314 $316 $413 forward $200 $-1 #
coedge $-1 $202 $209 $414 $415 forward $121 $-1 #
coedge $-1 $416 $207 $202 $307 reversed $317 $-1 #
edge $-1 $417 -4.3303377670442913 $211 4.3303377670442913 $306 $418 forward 7 unknown #
coedge $-1 $204 $203 $411 $419 reversed $77 $-1 #
coedge $-1 $314 $412 $203 $310 forward $200 $-1 #
edge $-1 $420 -4.3303377670442913 $312 4.3303377670442913 $203 $421 forward 7 unknown #
edge $-1 $210 -4.3303377670442913 $422 4.3303377670442913 $204 $423 forward 7 unknown #
vertex $-1 $205 $424 #
straight-curve $-1 -72.519302957243568 -32.974184232916407 0 0 0 -1 I I #
coedge $-1 $304 $309 $206 $315 reversed $200 $-1 #
edge $-1 $318 -72.519302957243568 $312 72.519302957243568 $314 $425 forward 7 unknown #
coedge $-1 $207 $416 $304 $413 reversed $317 $-1 #
loop $-1 $-1 $207 $301 #
vertex $-1 $208 $426 #
straight-curve $-1 72.519302957243568 -32.974184232916407 0 0 0 1 I I #
point $-1 -72.519302957243568 -32.974184232916407 4.8142416547129354 #
point $-1 72.519302957243568 -32.974184232916407 4.8142416547129354 #
face $-1 $-1 $336 $29 $-1 $427 reversed single #
loop $-1 $-1 $428 $213 #
plane-surface $-1 0 41.634859767004997 1.9732603007607334 0 -1 0 0 0 -1 forward_v I I I I #
coedge $-1 $332 $429 $217 $329 forward $214 $-1 #
coedge $-1 $223 $216 $430 $431 forward $129 $-1 #
edge $-1 $224 -4.3303377670442913 $432 4.3303377670442913 $218 $433 forward 7 unknown #
coedge $-1 $218 $217 $428 $434 reversed $81 $-1 #
edge $-1 $435 -4.3303377670442913 $330 4.3303377670442913 $217 $436 forward 7 unknown #
vertex $-1 $219 $437 #
straight-curve $-1 72.519302957243568 32.974184232916407 0 0 0 -1 I I #
coedge $-1 $438 $325 $220 $333 reversed $214 $-1 #
edge $-1 $337 -72.519302957243568 $330 72.519302957243568 $332 $439 forward 7 unknown #
coedge $-1 $440 $221 $223 $339 reversed $336 $-1 #
coedge $-1 $221 $440 $438 $441 reversed $336 $-1 #
loop $-1 $-1 $221 $322 #
vertex $-1 $222 $442 #
straight-curve $-1 -72.519302957243568 32.974184232916407 0 0 0 1 I I #
edge $-1 $443 -4.3303377670442913 $225 4.3303377670442913 $334 $444 forward 7 unknown #
point $-1 72.519302957243568 32.974184232916414 4.8142416547129354 #
point $-1 -72.519302957243568 32.974184232916414 4.8142416547129354 #
plane-surface $-1 0 0 11.591532209958013 0 0 1 1 0 0 forward_v I I I I #
coedge $-1 $353 $352 $345 $445 forward $228 $-1 #
coedge $-1 $345 $230 $232 $349 reversed $137 $-1 #
coedge $-1 $230 $344 $343 $445 reversed $137 $-1 #
coedge $-1 $238 $233 $230 $347 forward $239 $-1 #
edge $-1 $350 -22.874160506346655 $446 -14.116489932288133 $346 $447 forward 7 unknown #
coedge $-1 $232 $231 $353 $448 reversed $85 $-1 #
edge $-1 $449 1.9785632286268914e-014 $350 12.174594907552676 $344 $450 forward 7 unknown #
vertex $-1 $234 $451 #
straight-curve $-1 -63.761632383185045 6.4281015216943338 11.591532209958013 0 1 0 I I #
coedge $-1 $343 $235 $238 $357 reversed $228 $-1 #
coedge $-1 $235 $343 $348 $448 forward $228 $-1 #
vertex $-1 $236 $452 #
straight-curve $-1 -72.519302957243568 6.469920520322372 53.733194264021549 0 0 1 I I #
straight-curve $-1 -72.519302957243582 6.469920520322372 3.1343478511257672 -0.71933979245794832 0 -0.69465837861970381 I I #
edge $-1 $446 -19.242485566454963 $240 -6.469920520322372 $352 $453 forward 7 unknown #
point $-1 -72.519302957243568 6.469920520322372 11.591532209958013 #
point $-1 -63.761632383185045 6.469920520322372 11.591532209958013 #
edge $-1 $454 1 $454 0 $243 $-1 forward 7 unknown #
vertex $-1 $244 $455 #
ellipse-curve $-1 -65.785313523456608 12.85620304338866 4.9241065732942157 -0.69465837861970381 0 0.71933979245794832 1.7983494811448708 0 1.7366459465492596 1 I I #
point $-1 -66.342118189069438 12.85620304338866 9.0995859770911522 #
loop $-1 $-1 $255 $247 #
plane-surface $-1 72.519302957243568 0 0 -1 0 0 0 0 1 forward_v I I I I #
coedge $-1 $367 $250 $252 $371 reversed $152 $-1 #
coedge $-1 $250 $366 $456 $457 reversed $152 $-1 #
coedge $-1 $258 $253 $250 $369 forward $248 $-1 #
edge $-1 $372 45.337320522731858 $458 57.582612440635984 $368 $459 forward 7 unknown #
coedge $-1 $252 $251 $375 $460 reversed $94 $-1 #
edge $-1 $461 -145.03860591448714 $372 -130.43776924084051 $366 $462 forward 7 unknown #
vertex $-1 $254 $463 #
straight-curve $-1 60.274011039339456 8.8488149651947658 11.591532209958004 0 -1 0 I I #
coedge $-1 $456 $255 $258 $379 reversed $364 $-1 #
coedge $-1 $255 $456 $370 $460 forward $364 $-1 #
vertex $-1 $256 $464 #
straight-curve $-1 72.519302957243568 24.313508698827814 102.13632161689128 0 0 1 I I #
straight-curve $-1 -49.120306366951127 24.313508698827814 82.633033909587866 0.83867056331134215 0 -0.54463904215088732 I I #
edge $-1 $458 11.081751161951249 $259 24.313508698827814 $374 $465 forward 7 unknown #
point $-1 72.519302957243568 24.313508698827814 11.591532209958013 #
point $-1 60.274011039339442 24.313508698827814 11.591532209958018 #
edge $-1 $466 1 $466 0 $262 $-1 forward 7 unknown #
vertex $-1 $263 $467 #
ellipse-curve $-1 65.728104138603626 13.728102669326567 6.5859582537750461 0.54463904215088732 0 0.83867056331134215 0.83867056331134215 0 -0.54463904215088732 1 I I #
point $-1 67.235327561602858 13.728102669326567 7.0708003175389145 #
edge $-1 $468 1 $468 0 $266 $-1 forward 7 unknown #
vertex $-1 $267 $469 #
ellipse-curve $-1 65.728104138603626 17.697629930389539 6.5859582537750461 0.54463904215088732 0 0.83867056331134215 0.83867056331134215 0 -0.54463904215088732 1 I I #
point $-1 67.235327561602858 17.697629930389539 7.0708003175389145 #
edge $-1 $470 1 $470 0 $270 $-1 forward 7 unknown #
vertex $-1 $271 $471 #
ellipse-curve $-1 65.728104138603626 21.66715719145251 6.5859582537750461 0.54463904215088732 0 0.83867056331134215 0.83867056331134215 0 -0.54463904215088732 1 I I #
point $-1 67.235327561602858 21.66715719145251 7.0708003175389145 #
plane-surface $-1 72.519302957243568 0 0 -1 0 0 0 0 1 forward_v I I I I #
coedge $-1 $279 $277 $281 $399 reversed $181 $-1 #
edge $-1 $292 -11.591532209958013 $401 11.591532209958013 $291 $472 forward 7 unknown #
vertex $-1 $399 $473 #
straight-curve $-1 -72.519302957243568 -32.974184232916407 0 0 0 -1 I I #
edge $-1 $397 -32.974184232916407 $401 32.974184232916407 $395 $474 forward 7 unknown #
straight-curve $-1 0 -32.974184232916407 -11.591532209958013 -1 0 0 I I #
vertex $-1 $284 $475 #
straight-curve $-1 0 32.974184232916407 -11.591532209958013 1 0 0 I I #
point $-1 72.519302957243568 32.974184232916407 -11.591532209958013 #
point $-1 72.519302957243568 -32.974184232916407 -11.591532209958013 #
straight-curve $-1 -72.519302957243568 0 11.591532209958013 0 -1 0 I I #
point $-1 -72.519302957243568 32.974184232916407 11.591532209958013 #
point $-1 -72.519302957243568 -32.974184232916407 11.591532209958013 #
straight-curve $-1 72.519302957243568 -32.974184232916407 0 0 0 -1 I I #
straight-curve $-1 72.519302957243568 32.974184232916407 0 0 0 -1 I I #
plane-surface $-1 72.519302957243568 0 0 -1 0 0 0 0 1 forward_v I I I I #
coedge $-1 $476 $414 $308 $419 forward $302 $-1 #
coedge $-1 $309 $304 $476 $477 forward $200 $-1 #
edge $-1 $318 -4.3303377670442913 $478 4.3303377670442913 $316 $479 forward 7 unknown #
coedge $-1 $411 $480 $305 $415 reversed $302 $-1 #
edge $-1 $422 -72.519302957243568 $417 72.519302957243568 $414 $481 forward 7 unknown #
coedge $-1 $316 $306 $480 $482 forward $317 $-1 #
vertex $-1 $307 $483 #
straight-curve $-1 72.519302957243568 -37.304521999960699 4.8142416547129354 0 1 0 I I #
edge $-1 $422 -2.840981353952202 $420 2.840981353952202 $308 $484 forward 7 unknown #
vertex $-1 $310 $485 #
straight-curve $-1 -72.519302957243568 -37.304521999960699 -0.86772105319146853 0 1 0 I I #
vertex $-1 $311 $486 #
straight-curve $-1 -72.519302957243568 -37.304521999960699 4.8142416547129354 0 -1 0 I I #
point $-1 -72.519302957243568 -32.974184232916407 -0.86772105319146853 #
straight-curve $-1 0 -32.974184232916407 -0.86772105319146853 -1 0 0 I I #
point $-1 72.519302957243568 -32.974184232916407 -0.86772105319146853 #
plane-surface $-1 -72.519302957243568 0 0 1 0 0 0 0 -1 forward_v I I I I #
coedge $-1 $487 $430 $328 $434 forward $323 $-1 #
coedge $-1 $325 $438 $487 $488 forward $214 $-1 #
coedge $-1 $428 $489 $326 $431 reversed $323 $-1 #
edge $-1 $432 -72.519302957243568 $443 72.519302957243568 $430 $490 forward 7 unknown #
vertex $-1 $327 $491 #
straight-curve $-1 72.519302957243568 37.304521999960706 4.8142416547129354 0 1 0 I I #
edge $-1 $432 -2.840981353952202 $435 2.840981353952202 $328 $492 forward 7 unknown #
vertex $-1 $329 $493 #
straight-curve $-1 72.519302957243568 37.304521999960706 -0.86772105319146853 0 -1 0 I I #
point $-1 72.519302957243568 32.974184232916414 -0.86772105319146853 #
coedge $-1 $429 $332 $335 $441 forward $214 $-1 #
straight-curve $-1 0 32.974184232916407 -0.86772105319146853 1 0 0 I I #
coedge $-1 $335 $334 $489 $494 forward $336 $-1 #
edge $-1 $337 -4.3303377670442913 $495 4.3303377670442913 $335 $496 forward 7 unknown #
point $-1 -72.519302957243568 32.974184232916414 -0.86772105319146853 #
vertex $-1 $431 $497 #
straight-curve $-1 -72.519302957243568 37.304521999960706 4.8142416547129354 0 -1 0 I I #
edge $-1 $446 42.141662054063538 $449 50.598846412895767 $343 $498 forward 7 unknown #
vertex $-1 $357 $499 #
straight-curve $-1 -86.6357928895317 19.242485566454963 11.591532209958011 -1 0 0 I I #
edge $-1 $449 -12.814384044760629 $354 -0.041818998628038173 $353 $500 forward 7 unknown #
vertex $-1 $448 $501 #
straight-curve $-1 -72.519302957243582 19.242485566454963 3.1343478511257672 0.71933979245794832 0 0.69465837861970381 I I #
point $-1 -63.761632383185045 19.242485566454963 11.591532209958013 #
point $-1 -72.519302957243568 6.469920520322372 3.134347851125781 #
straight-curve $-1 -72.519302957243568 0 11.591532209958013 0 -1 0 I I #
vertex $-1 $360 $502 #
point $-1 -63.98696404231174 12.85620304338866 6.6607525198434754 #
coedge $-1 $375 $374 $367 $457 forward $364 $-1 #
edge $-1 $458 90.544789406933262 $461 98.496975107469709 $456 $503 forward 7 unknown #
vertex $-1 $379 $504 #
straight-curve $-1 14.936690516607584 11.081751161951249 11.591532209958018 1 0 0 I I #
edge $-1 $461 2.2329361967564836 $376 15.464693733633048 $375 $505 forward 7 unknown #
vertex $-1 $460 $506 #
straight-curve $-1 -49.120306366951127 11.081751161951249 82.633033909587866 -0.83867056331134215 0 0.54463904215088732 I I #
point $-1 60.274011039339442 11.081751161951249 11.591532209958018 #
point $-1 72.519302957243568 24.313508698827814 3.6393465094215713 #
straight-curve $-1 72.519302957243568 0 11.591532209958013 0 1 0 I I #
vertex $-1 $382 $507 #
point $-1 66.566774701914966 13.728102669326567 6.0413192116241587 #
vertex $-1 $386 $508 #
point $-1 66.566774701914966 17.697629930389539 6.0413192116241587 #
vertex $-1 $390 $509 #
point $-1 66.566774701914966 21.66715719145251 6.0413192116241587 #
straight-curve $-1 -72.519302957243568 32.974184232916407 0 0 0 -1 I I #
point $-1 -72.519302957243568 -32.974184232916407 -11.591532209958013 #
straight-curve $-1 -72.519302957243568 0 -11.591532209958013 0 1 0 I I #
point $-1 -72.519302957243568 32.974184232916407 -11.591532209958013 #
coedge $-1 $480 $411 $412 $477 reversed $302 $-1 #
edge $-1 $478 -72.519302957243568 $420 72.519302957243568 $476 $510 forward 7 unknown #
vertex $-1 $482 $511 #
straight-curve $-1 72.519302957243568 -37.304521999960699 -0.86772105319146853 0 -1 0 I I #
coedge $-1 $414 $476 $416 $482 reversed $302 $-1 #
straight-curve $-1 0 -41.63485976700499 4.8142416547129354 1 0 0 I I #
edge $-1 $417 -2.840981353952202 $478 2.840981353952202 $416 $512 forward 7 unknown #
point $-1 72.519302957243568 -41.63485976700499 4.8142416547129354 #
straight-curve $-1 -72.519302957243568 -41.63485976700499 1.9732603007607334 0 0 -1 I I #
point $-1 -72.519302957243568 -41.63485976700499 -0.86772105319146853 #
point $-1 -72.519302957243568 -41.63485976700499 4.8142416547129354 #
coedge $-1 $489 $428 $429 $488 reversed $323 $-1 #
edge $-1 $495 -72.519302957243568 $435 72.519302957243568 $487 $513 forward 7 unknown #
coedge $-1 $430 $487 $440 $494 reversed $323 $-1 #
straight-curve $-1 0 41.634859767004997 4.8142416547129354 -1 0 0 I I #
point $-1 72.519302957243568 41.634859767004997 4.8142416547129354 #
straight-curve $-1 72.519302957243568 41.634859767004997 1.9732603007607334 0 0 -1 I I #
point $-1 72.519302957243568 41.634859767004997 -0.86772105319146853 #
edge $-1 $443 -2.840981353952202 $495 2.840981353952202 $489 $514 forward 7 unknown #
vertex $-1 $488 $515 #
straight-curve $-1 -72.519302957243568 37.304521999960706 -0.86772105319146853 0 1 0 I I #
point $-1 -72.519302957243568 41.634859767004997 4.8142416547129354 #
straight-curve $-1 -72.519302957243568 19.242485566454963 53.733194264021549 0 0 -1 I I #
point $-1 -72.519302957243568 19.242485566454963 11.591532209958013 #
straight-curve $-1 -72.519302957243568 6.4281015216943338 3.1343478511257898 0 -1 0 I I #
point $-1 -72.519302957243568 19.242485566454963 3.134347851125781 #
point $-1 -64.048667576907349 12.85620304338866 3.1257570921493447 #
straight-curve $-1 72.519302957243568 11.081751161951249 102.13632161689128 0 0 -1 I I #
point $-1 72.519302957243568 11.081751161951249 11.591532209958013 #
straight-curve $-1 72.519302957243568 8.8488149651947658 3.6393465094215642 0 1 0 I I #
point $-1 72.519302957243568 11.081751161951249 3.6393465094215713 #
point $-1 65.183465096452736 13.728102669326567 5.7472876904637049 #
point $-1 65.183465096452736 17.697629930389539 5.7472876904637049 #
point $-1 65.183465096452736 21.66715719145251 5.7472876904637049 #
straight-curve $-1 0 -41.63485976700499 -0.86772105319146853 -1 0 0 I I #
point $-1 72.519302957243568 -41.63485976700499 -0.86772105319146853 #
straight-curve $-1 72.519302957243568 -41.63485976700499 1.9732603007607334 0 0 -1 I I #
straight-curve $-1 0 41.634859767004997 -0.86772105319146853 1 0 0 I I #
straight-curve $-1 -72.519302957243568 41.634859767004997 1.9732603007607334 0 0 -1 I I #
point $-1 -72.519302957243568 41.634859767004997 -0.86772105319146853 #
End-of-ACIS-data 