500 0 5 0           
7 Unknown 11 ACIS 5.0 NT 24 Thu Mar 25 16:15:52 1999 
-1 9.9999999999999995e-007 1e-010 
body $-1 $5 $-1 $6 #
body $-1 $7 $-1 $8 #
body $-1 $9 $-1 $10 #
body $-1 $11 $-1 $12 #
body $-1 $13 $-1 $14 #
lump $-1 $-1 $15 $0 #
transform $-1 1 0 0 0 1 0 0 0 1 58.054750205999937 39.901633804264812 11.232784225003202 1 rotate no_reflect no_shear #
lump $-1 $-1 $16 $1 #
transform $-1 1 0 0 0 1 0 0 0 1 58.054750205999937 39.901633804264812 11.232784225003202 1 rotate no_reflect no_shear #
lump $-1 $-1 $17 $2 #
transform $-1 1 0 0 0 1 0 0 0 1 58.054750205999937 39.901633804264812 11.232784225003202 1 rotate no_reflect no_shear #
lump $-1 $-1 $18 $3 #
transform $-1 1 0 0 0 1 0 0 0 1 58.054750205999937 39.901633804264812 11.232784225003202 1 rotate no_reflect no_shear #
lump $-1 $-1 $19 $4 #
transform $-1 1 0 0 0 1 0 0 0 1 58.054750205999937 39.901633804264812 11.232784225003202 1 rotate no_reflect no_shear #
shell $-1 $-1 $-1 $20 $-1 $5 #
shell $-1 $-1 $-1 $21 $-1 $7 #
shell $-1 $-1 $-1 $22 $-1 $9 #
shell $-1 $-1 $-1 $23 $-1 $11 #
shell $-1 $-1 $-1 $24 $-1 $13 #
face $-1 $25 $26 $15 $-1 $27 forward single #
face $-1 $28 $29 $16 $-1 $30 forward single #
face $-1 $31 $32 $17 $-1 $33 reversed single #
face $-1 $34 $35 $18 $-1 $36 forward single #
face $-1 $37 $38 $19 $-1 $39 forward single #
face $-1 $40 $41 $15 $-1 $42 reversed single #
loop $-1 $-1 $43 $20 #
plane-surface $-1 0 0 11.232784225003202 0 0 1 1 0 0 forward_v I I I I #
face $-1 $44 $45 $16 $-1 $46 reversed single #
loop $-1 $-1 $47 $21 #
plane-surface $-1 0 -39.901633804264812 0 0 1 0 0 0 1 forward_v I I I I #
face $-1 $48 $49 $17 $-1 $50 reversed single #
loop $-1 $-1 $51 $22 #
plane-surface $-1 -24.172039343541357 77.550121507201567 138.19042841137585 1 0 0 0 -0.7660444514056185 -0.64278759981090561 forward_v I I I I #
face $-1 $52 $53 $18 $-1 $54 forward single #
loop $-1 $55 $56 $23 #
cone-surface $-1 -17.797100347912135 35.316379450799936 6.0819622802587059 0 -0.7660444514056185 -0.64278759981090561 1.5 0 0 1 I I 0 1 1.5 forward I I I I #
face $-1 $57 $58 $19 $-1 $59 forward single #
loop $-1 $60 $61 $24 #
cone-surface $-1 -8.2346918544683021 35.316379450799936 6.0819622802587059 0 -0.7660444514056185 -0.64278759981090561 1.5 0 0 1 I I 0 1 1.5 forward I I I I #
face $-1 $62 $63 $15 $-1 $64 reversed single #
loop $-1 $-1 $65 $25 #
plane-surface $-1 0 0 -11.232784225003202 0 0 1 1 0 0 forward_v I I I I #
coedge $-1 $66 $67 $68 $69 forward $26 $-1 #
face $-1 $70 $71 $16 $-1 $72 reversed single #
loop $-1 $-1 $73 $28 #
plane-surface $-1 0 0 -11.232784225003202 0 0 1 1 0 0 forward_v I I I I #
coedge $-1 $74 $75 $76 $77 forward $29 $-1 #
face $-1 $78 $79 $17 $-1 $80 reversed single #
loop $-1 $-1 $81 $31 #
plane-surface $-1 -13.015896101190215 -11.394917038889318 63.556681326303092 0 0.7660444514056185 0.64278759981090561 1 0 0 forward_v I I I I #
coedge $-1 $82 $83 $84 $85 reversed $32 $-1 #
face $-1 $-1 $86 $18 $-1 $87 forward single #
loop $-1 $88 $89 $34 #
cone-surface $-1 -17.797100347912135 33.852386375370877 4.853526262782017 0 -0.7660444514056185 -0.64278759981090561 0.75 0 0 1 I I -0.70710678118654757 0.70710678118654757 0.75 forward I I I I #
loop $-1 $-1 $90 $23 #
coedge $-1 $56 $56 $91 $92 reversed $35 $-1 #
face $-1 $-1 $93 $19 $-1 $94 forward single #
loop $-1 $95 $96 $37 #
cone-surface $-1 -8.2346918544683021 33.852386375370877 4.853526262782017 0 -0.7660444514056185 -0.64278759981090561 0.75 0 0 1 I I -0.70710678118654757 0.70710678118654757 0.75 forward I I I I #
loop $-1 $-1 $97 $24 #
coedge $-1 $61 $61 $98 $99 reversed $38 $-1 #
face $-1 $100 $101 $15 $-1 $102 reversed single #
loop $-1 $-1 $103 $40 #
plane-surface $-1 0 -39.901633804264812 0 0 1 0 0 0 1 forward_v I I I I #
coedge $-1 $104 $105 $106 $107 forward $41 $-1 #
coedge $-1 $108 $43 $109 $110 forward $26 $-1 #
coedge $-1 $43 $108 $111 $112 forward $26 $-1 #
coedge $-1 $113 $114 $43 $69 reversed $115 $-1 #
edge $-1 $116 -39.901633804264812 $117 39.901633804264812 $68 $118 forward 7 unknown #
face $-1 $119 $120 $16 $-1 $121 forward single #
loop $-1 $-1 $122 $44 #
plane-surface $-1 58.054750205999937 0 0 -1 0 0 0 0 1 forward_v I I I I #
coedge $-1 $123 $124 $125 $126 forward $45 $-1 #
coedge $-1 $125 $47 $122 $127 reversed $29 $-1 #
coedge $-1 $47 $125 $128 $129 reversed $29 $-1 #
coedge $-1 $130 $131 $47 $77 reversed $120 $-1 #
edge $-1 $132 -58.054750205999937 $133 58.054750205999937 $76 $134 forward 7 unknown #
face $-1 $135 $136 $17 $-1 $137 forward single #
loop $-1 $-1 $138 $48 #
plane-surface $-1 -1.859752858839073 77.550121507201567 138.19042841137585 -1 0 0 0 0.7660444514056185 0.64278759981090561 forward_v I I I I #
coedge $-1 $139 $140 $141 $142 reversed $49 $-1 #
coedge $-1 $83 $51 $143 $144 reversed $32 $-1 #
coedge $-1 $51 $82 $139 $145 reversed $32 $-1 #
coedge $-1 $141 $146 $51 $85 forward $136 $-1 #
edge $-1 $147 -1.1265730506640281 $148 6.2650161825159856 $84 $149 forward 7 unknown #
loop $-1 $-1 $91 $52 #
plane-surface $-1 -13.015896101190215 -11.394917038889318 63.556681326303092 0 0.7660444514056185 0.64278759981090561 1 0 0 forward_v I I I I #
loop $-1 $-1 $150 $34 #
coedge $-1 $89 $89 $90 $151 reversed $53 $-1 #
coedge $-1 $90 $90 $89 $151 forward $55 $-1 #
coedge $-1 $91 $91 $56 $92 forward $86 $-1 #
edge $-1 $152 -9.6995139041228756e-016 $152 6.2831853071795996 $91 $153 forward 7 unknown #
loop $-1 $-1 $98 $57 #
plane-surface $-1 -13.015896101190215 -11.394917038889318 63.556681326303092 0 0.7660444514056185 0.64278759981090561 1 0 0 forward_v I I I I #
loop $-1 $-1 $154 $37 #
coedge $-1 $96 $96 $97 $155 reversed $58 $-1 #
coedge $-1 $97 $97 $96 $155 forward $60 $-1 #
coedge $-1 $98 $98 $61 $99 forward $93 $-1 #
edge $-1 $156 -9.6995139041228756e-016 $156 6.2831853071795996 $98 $157 forward 7 unknown #
face $-1 $158 $159 $15 $-1 $160 reversed single #
loop $-1 $-1 $161 $62 #
plane-surface $-1 -58.054750205999937 0 0 1 0 0 0 0 -1 forward_v I I I I #
coedge $-1 $162 $111 $163 $164 forward $63 $-1 #
coedge $-1 $165 $65 $162 $166 forward $41 $-1 #
coedge $-1 $65 $165 $167 $168 forward $41 $-1 #
coedge $-1 $114 $113 $65 $107 reversed $115 $-1 #
edge $-1 $169 -39.901633804264812 $170 39.901633804264812 $106 $171 forward 7 unknown #
coedge $-1 $67 $66 $172 $173 forward $26 $-1 #
coedge $-1 $174 $175 $66 $110 reversed $159 $-1 #
edge $-1 $117 -58.054750205999937 $176 58.054750205999937 $109 $177 forward 7 unknown #
coedge $-1 $103 $178 $67 $112 reversed $63 $-1 #
edge $-1 $179 -58.054750205999937 $116 58.054750205999937 $111 $180 forward 7 unknown #
coedge $-1 $106 $68 $178 $181 forward $115 $-1 #
coedge $-1 $68 $106 $174 $182 reversed $115 $-1 #
loop $-1 $-1 $113 $158 #
vertex $-1 $69 $183 #
vertex $-1 $69 $184 #
straight-curve $-1 58.054750205999937 0 11.232784225003202 0 1 0 I I #
face $-1 $185 $186 $16 $-1 $187 reversed single #
loop $-1 $-1 $131 $70 #
plane-surface $-1 0 -44.57319611111614 -6.7457725144081859 0 0 1 1 0 0 forward_v I I I I #
coedge $-1 $188 $189 $74 $127 forward $71 $-1 #
coedge $-1 $190 $73 $189 $191 forward $45 $-1 #
coedge $-1 $73 $190 $192 $193 forward $45 $-1 #
coedge $-1 $75 $74 $73 $126 reversed $29 $-1 #
edge $-1 $194 -58.054750205999937 $195 58.054750205999937 $73 $196 forward 7 unknown #
edge $-1 $195 -11.232784225003202 $133 -6.7457725144081859 $122 $197 forward 7 unknown #
coedge $-1 $192 $198 $75 $129 forward $199 $-1 #
edge $-1 $132 6.7457725144081859 $194 11.232784225003202 $128 $200 forward 7 unknown #
coedge $-1 $201 $76 $198 $202 forward $120 $-1 #
coedge $-1 $76 $201 $188 $203 forward $120 $-1 #
vertex $-1 $129 $204 #
vertex $-1 $203 $205 #
straight-curve $-1 0 -39.901633804264812 -6.7457725144081859 1 0 0 I I #
face $-1 $-1 $206 $17 $-1 $207 reversed single #
loop $-1 $-1 $84 $78 #
plane-surface $-1 0 0 11.232784225003202 0 0 1 1 0 0 forward_v I I I I #
coedge $-1 $208 $209 $210 $211 reversed $79 $-1 #
coedge $-1 $212 $81 $83 $145 forward $49 $-1 #
coedge $-1 $81 $212 $208 $213 forward $49 $-1 #
coedge $-1 $210 $84 $81 $142 forward $136 $-1 #
edge $-1 $148 -17.664091292946249 $214 4.6481951917560345 $141 $215 forward 7 unknown #
coedge $-1 $216 $217 $82 $144 forward $206 $-1 #
edge $-1 $218 -66.671383234936656 $147 -57.862429980684723 $143 $219 forward 7 unknown #
edge $-1 $148 68.303995943434543 $218 79.803267608529623 $83 $220 forward 7 unknown #
coedge $-1 $84 $210 $216 $221 forward $136 $-1 #
vertex $-1 $144 $222 #
vertex $-1 $85 $223 #
straight-curve $-1 -24.172039343541357 38.775060753600783 11.232784225003201 0 -1 0 I I #
coedge $-1 $150 $150 $-1 $224 reversed $88 $-1 #
edge $-1 $225 0 $225 6.2831853071796004 $89 $226 forward 7 unknown #
vertex $-1 $92 $227 #
ellipse-curve $-1 -17.797100347912135 36.205839187674805 6.828307597877231 0 0.7660444514056185 0.64278759981090561 1.5 0 0 1 I I #
coedge $-1 $154 $154 $-1 $228 reversed $95 $-1 #
edge $-1 $229 0 $229 6.2831853071796004 $96 $230 forward 7 unknown #
vertex $-1 $99 $231 #
ellipse-curve $-1 -8.2346918544683021 36.205839187674805 6.828307597877231 0 0.7660444514056185 0.64278759981090561 1.5 0 0 1 I I #
face $-1 $-1 $115 $15 $-1 $232 reversed single #
loop $-1 $-1 $174 $100 #
plane-surface $-1 0 39.901633804264812 0 0 -1 0 0 0 -1 forward_v I I I I #
coedge $-1 $233 $172 $175 $234 forward $101 $-1 #
coedge $-1 $178 $103 $104 $166 reversed $63 $-1 #
coedge $-1 $172 $233 $103 $164 reversed $101 $-1 #
edge $-1 $179 -11.232784225003202 $235 11.232784225003202 $163 $236 forward 7 unknown #
coedge $-1 $105 $104 $233 $237 forward $41 $-1 #
edge $-1 $170 -58.054750205999937 $235 58.054750205999937 $162 $238 forward 7 unknown #
coedge $-1 $175 $174 $105 $168 reversed $159 $-1 #
edge $-1 $239 -58.054750205999937 $169 58.054750205999937 $167 $240 forward 7 unknown #
vertex $-1 $107 $241 #
vertex $-1 $181 $242 #
straight-curve $-1 58.054750205999937 0 -11.232784225003202 0 -1 0 I I #
coedge $-1 $161 $163 $108 $173 reversed $101 $-1 #
edge $-1 $176 -39.901633804264812 $179 39.901633804264812 $172 $243 forward 7 unknown #
coedge $-1 $167 $109 $114 $182 forward $159 $-1 #
coedge $-1 $109 $167 $161 $234 reversed $159 $-1 #
vertex $-1 $110 $244 #
straight-curve $-1 0 39.901633804264812 11.232784225003202 -1 0 0 I I #
coedge $-1 $111 $162 $113 $181 reversed $63 $-1 #
vertex $-1 $173 $245 #
straight-curve $-1 0 -39.901633804264812 11.232784225003202 1 0 0 I I #
edge $-1 $116 -11.232784225003202 $170 11.232784225003202 $113 $246 forward 7 unknown #
edge $-1 $117 -11.232784225003202 $169 11.232784225003202 $114 $247 forward 7 unknown #
point $-1 58.054750205999937 -39.901633804264812 11.232784225003202 #
point $-1 58.054750205999937 39.901633804264812 11.232784225003202 #
face $-1 $-1 $199 $16 $-1 $248 reversed single #
loop $-1 $-1 $249 $119 #
plane-surface $-1 0 -49.244758417967468 -8.9892783697056942 0 1 0 0 0 1 forward_v I I I I #
coedge $-1 $250 $122 $131 $203 reversed $71 $-1 #
coedge $-1 $122 $250 $123 $191 reversed $71 $-1 #
coedge $-1 $124 $123 $251 $252 forward $45 $-1 #
edge $-1 $195 39.901633804264812 $253 49.244758417967468 $189 $254 forward 7 unknown #
coedge $-1 $255 $128 $124 $193 reversed $199 $-1 #
edge $-1 $256 -49.244758417967468 $194 -39.901633804264812 $192 $257 forward 7 unknown #
vertex $-1 $129 $258 #
vertex $-1 $191 $259 #
straight-curve $-1 0 -39.901633804264812 -11.232784225003202 1 0 0 I I #
straight-curve $-1 58.054750205999937 -39.901633804264812 0 0 0 1 I I #
coedge $-1 $128 $255 $130 $202 reversed $199 $-1 #
loop $-1 $-1 $128 $185 #
straight-curve $-1 -58.054750205999937 -39.901633804264812 0 0 0 -1 I I #
coedge $-1 $131 $130 $260 $261 forward $120 $-1 #
edge $-1 $132 -4.6715623068513281 $262 4.6715623068513281 $198 $263 forward 7 unknown #
edge $-1 $264 -4.6715623068513281 $133 4.6715623068513281 $188 $265 forward 7 unknown #
point $-1 -58.054750205999937 -39.901633804264812 -6.7457725144081859 #
point $-1 58.054750205999937 -39.901633804264812 -6.7457725144081859 #
loop $-1 $-1 $143 $135 #
plane-surface $-1 0 39.901633804264812 0 0 -1 0 0 0 -1 forward_v I I I I #
coedge $-1 $209 $138 $140 $213 reversed $79 $-1 #
coedge $-1 $138 $208 $266 $267 reversed $79 $-1 #
coedge $-1 $146 $141 $138 $211 forward $136 $-1 #
edge $-1 $214 -6.2650161825159856 $268 1.1265730506640281 $210 $269 forward 7 unknown #
coedge $-1 $140 $139 $217 $270 reversed $49 $-1 #
edge $-1 $271 -79.803267608529623 $214 -68.303995943434543 $208 $272 forward 7 unknown #
vertex $-1 $142 $273 #
straight-curve $-1 -6.5079480505951075 32.510044571084791 11.232784225003194 1 0 0 I I #
coedge $-1 $266 $143 $146 $221 reversed $206 $-1 #
coedge $-1 $143 $266 $212 $270 forward $206 $-1 #
vertex $-1 $144 $274 #
straight-curve $-1 -24.172039343541357 39.901633804264812 69.095214205687924 0 0 1 I I #
straight-curve $-1 -24.172039343541357 -11.394917038889318 63.556681326303092 0 0.64278759981090561 -0.7660444514056185 I I #
edge $-1 $268 1.859752858839073 $147 24.172039343541357 $216 $275 forward 7 unknown #
point $-1 -24.172039343541357 39.901633804264812 11.232784225003202 #
point $-1 -24.172039343541357 32.510044571084798 11.232784225003201 #
edge $-1 $276 1 $276 0 $150 $-1 forward 7 unknown #
vertex $-1 $151 $277 #
ellipse-curve $-1 -17.797100347912135 34.426919713925088 5.3356169626401959 0 0.7660444514056185 0.64278759981090561 1.5 0 0 1 I I #
point $-1 -16.297100347912135 36.205839187674783 6.828307597877215 #
edge $-1 $278 1 $278 0 $154 $-1 forward 7 unknown #
vertex $-1 $155 $279 #
ellipse-curve $-1 -8.2346918544683021 34.426919713925088 5.3356169626401959 0 0.7660444514056185 0.64278759981090561 1.5 0 0 1 I I #
point $-1 -6.7346918544683021 36.205839187674783 6.828307597877215 #
plane-surface $-1 58.054750205999937 0 0 -1 0 0 0 0 1 forward_v I I I I #
coedge $-1 $163 $161 $165 $237 reversed $101 $-1 #
edge $-1 $176 -11.232784225003202 $239 11.232784225003202 $175 $280 forward 7 unknown #
vertex $-1 $237 $281 #
straight-curve $-1 -58.054750205999937 -39.901633804264812 0 0 0 -1 I I #
edge $-1 $235 -39.901633804264812 $239 39.901633804264812 $233 $282 forward 7 unknown #
straight-curve $-1 0 -39.901633804264812 -11.232784225003202 -1 0 0 I I #
vertex $-1 $168 $283 #
straight-curve $-1 0 39.901633804264812 -11.232784225003202 1 0 0 I I #
point $-1 58.054750205999937 39.901633804264812 -11.232784225003202 #
point $-1 58.054750205999937 -39.901633804264812 -11.232784225003202 #
straight-curve $-1 -58.054750205999937 0 11.232784225003202 0 -1 0 I I #
point $-1 -58.054750205999937 39.901633804264812 11.232784225003202 #
point $-1 -58.054750205999937 -39.901633804264812 11.232784225003202 #
straight-curve $-1 58.054750205999937 -39.901633804264812 0 0 0 -1 I I #
straight-curve $-1 58.054750205999937 39.901633804264812 0 0 0 -1 I I #
plane-surface $-1 -58.054750205999937 0 0 1 0 0 0 0 -1 forward_v I I I I #
coedge $-1 $251 $260 $255 $284 forward $186 $-1 #
coedge $-1 $189 $188 $285 $286 forward $71 $-1 #
coedge $-1 $285 $249 $190 $252 reversed $186 $-1 #
edge $-1 $253 -58.054750205999937 $256 58.054750205999937 $251 $287 forward 7 unknown #
vertex $-1 $286 $288 #
straight-curve $-1 58.054750205999937 0 -11.232784225003202 0 -1 0 I I #
coedge $-1 $198 $192 $249 $284 reversed $199 $-1 #
vertex $-1 $193 $289 #
straight-curve $-1 -58.054750205999937 0 -11.232784225003202 0 1 0 I I #
point $-1 -58.054750205999937 -39.901633804264812 -11.232784225003202 #
point $-1 58.054750205999937 -39.901633804264812 -11.232784225003202 #
coedge $-1 $249 $285 $201 $261 reversed $186 $-1 #
edge $-1 $262 -58.054750205999937 $264 58.054750205999937 $260 $290 forward 7 unknown #
vertex $-1 $202 $291 #
straight-curve $-1 -58.054750205999937 -44.57319611111614 -6.7457725144081859 0 -1 0 I I #
vertex $-1 $203 $292 #
straight-curve $-1 58.054750205999937 -44.57319611111614 -6.7457725144081859 0 1 0 I I #
coedge $-1 $217 $216 $209 $267 forward $206 $-1 #
edge $-1 $268 57.862429980684723 $271 66.671383234936656 $266 $293 forward 7 unknown #
vertex $-1 $221 $294 #
straight-curve $-1 -1.859752858839073 38.775060753600783 11.232784225003201 0 1 0 I I #
edge $-1 $271 -4.6481951917560345 $218 17.664091292946249 $217 $295 forward 7 unknown #
vertex $-1 $270 $296 #
straight-curve $-1 -1.859752858839073 -11.394917038889318 63.556681326303092 0 -0.64278759981090561 0.7660444514056185 I I #
point $-1 -1.859752858839073 32.510044571084798 11.232784225003201 #
point $-1 -24.172039343541357 39.901633804264812 2.4238309707512755 #
straight-curve $-1 0 39.901633804264812 11.232784225003202 -1 0 0 I I #
vertex $-1 $224 $297 #
point $-1 -16.297100347912135 34.426919713925088 5.3356169626401959 #
vertex $-1 $228 $298 #
point $-1 -6.7346918544683021 34.426919713925088 5.3356169626401959 #
straight-curve $-1 -58.054750205999937 39.901633804264812 0 0 0 -1 I I #
point $-1 -58.054750205999937 -39.901633804264812 -11.232784225003202 #
straight-curve $-1 -58.054750205999937 0 -11.232784225003202 0 1 0 I I #
point $-1 -58.054750205999937 39.901633804264812 -11.232784225003202 #
edge $-1 $262 -2.2435058552975082 $256 2.2435058552975082 $255 $299 forward 7 unknown #
coedge $-1 $260 $251 $250 $286 reversed $186 $-1 #
edge $-1 $264 -2.2435058552975082 $253 2.2435058552975082 $250 $300 forward 7 unknown #
straight-curve $-1 0 -49.244758417967468 -11.232784225003202 -1 0 0 I I #
point $-1 58.054750205999937 -49.244758417967468 -11.232784225003202 #
point $-1 -58.054750205999937 -49.244758417967468 -11.232784225003202 #
straight-curve $-1 0 -49.244758417967468 -6.7457725144081859 1 0 0 I I #
point $-1 -58.054750205999937 -49.244758417967468 -6.7457725144081859 #
point $-1 58.054750205999937 -49.244758417967468 -6.7457725144081859 #
straight-curve $-1 -1.859752858839073 39.901633804264812 69.095214205687924 0 0 -1 I I #
point $-1 -1.859752858839073 39.901633804264812 11.232784225003202 #
straight-curve $-1 -6.5079480505951075 39.901633804264812 2.4238309707512684 -1 0 0 I I #
point $-1 -1.859752858839073 39.901633804264812 2.4238309707512755 #
point $-1 -17.797100347912135 33.277853036816666 4.3714355629238382 #
point $-1 -8.2346918544683021 33.277853036816666 4.3714355629238382 #
straight-curve $-1 -58.054750205999937 -49.244758417967468 -8.9892783697056942 0 0 -1 I I #
straight-curve $-1 58.054750205999937 -49.244758417967468 -8.9892783697056942 0 0 -1 I I #
End-of-ACIS-data 