500 0 20 0           
7 Unknown 11 ACIS 5.0 NT 24 Fri Mar 26 20:31:01 1999 
-1 9.9999999999999995e-007 1e-010 
body $-1 $20 $-1 $21 #
body $-1 $22 $-1 $23 #
body $-1 $24 $-1 $25 #
body $-1 $26 $-1 $27 #
body $-1 $28 $-1 $29 #
body $-1 $30 $-1 $31 #
body $-1 $32 $-1 $33 #
body $-1 $34 $-1 $35 #
body $-1 $36 $-1 $37 #
body $-1 $38 $-1 $39 #
body $-1 $40 $-1 $41 #
body $-1 $42 $-1 $43 #
body $-1 $44 $-1 $45 #
body $-1 $46 $-1 $47 #
body $-1 $48 $-1 $49 #
body $-1 $50 $-1 $51 #
body $-1 $52 $-1 $53 #
body $-1 $54 $-1 $55 #
body $-1 $56 $-1 $57 #
body $-1 $58 $-1 $59 #
lump $-1 $-1 $60 $0 #
transform $-1 1 0 0 0 1 0 0 0 1 62.361522263252667 36.583510525862046 11.267681048893856 1 rotate no_reflect no_shear #
lump $-1 $-1 $61 $1 #
transform $-1 1 0 0 0 1 0 0 0 1 62.361522263252667 36.583510525862046 11.267681048893856 1 rotate no_reflect no_shear #
lump $-1 $-1 $62 $2 #
transform $-1 1 0 0 0 1 0 0 0 1 62.361522263252667 36.583510525862046 11.267681048893856 1 rotate no_reflect no_shear #
lump $-1 $-1 $63 $3 #
transform $-1 1 0 0 0 1 0 0 0 1 62.361522263252667 36.583510525862046 11.267681048893856 1 rotate no_reflect no_shear #
lump $-1 $-1 $64 $4 #
transform $-1 1 0 0 0 1 0 0 0 1 62.361522263252667 36.583510525862046 11.267681048893856 1 rotate no_reflect no_shear #
lump $-1 $-1 $65 $5 #
transform $-1 1 0 0 0 1 0 0 0 1 62.361522263252667 36.583510525862046 11.267681048893856 1 rotate no_reflect no_shear #
lump $-1 $-1 $66 $6 #
transform $-1 1 0 0 0 1 0 0 0 1 62.361522263252667 36.583510525862046 11.267681048893856 1 rotate no_reflect no_shear #
lump $-1 $-1 $67 $7 #
transform $-1 1 0 0 0 1 0 0 0 1 62.361522263252667 36.583510525862046 11.267681048893856 1 rotate no_reflect no_shear #
lump $-1 $-1 $68 $8 #
transform $-1 1 0 0 0 1 0 0 0 1 62.361522263252667 36.583510525862046 11.267681048893856 1 rotate no_reflect no_shear #
lump $-1 $-1 $69 $9 #
transform $-1 1 0 0 0 1 0 0 0 1 62.361522263252667 36.583510525862046 11.267681048893856 1 rotate no_reflect no_shear #
lump $-1 $-1 $70 $10 #
transform $-1 1 0 0 0 1 0 0 0 1 62.361522263252667 36.583510525862046 11.267681048893856 1 rotate no_reflect no_shear #
lump $-1 $-1 $71 $11 #
transform $-1 1 0 0 0 1 0 0 0 1 62.361522263252667 36.583510525862046 11.267681048893856 1 rotate no_reflect no_shear #
lump $-1 $-1 $72 $12 #
transform $-1 1 0 0 0 1 0 0 0 1 62.361522263252667 36.583510525862046 11.267681048893856 1 rotate no_reflect no_shear #
lump $-1 $-1 $73 $13 #
transform $-1 1 0 0 0 1 0 0 0 1 62.361522263252667 36.583510525862046 11.267681048893856 1 rotate no_reflect no_shear #
lump $-1 $-1 $74 $14 #
transform $-1 1 0 0 0 1 0 0 0 1 62.361522263252667 36.583510525862046 11.267681048893856 1 rotate no_reflect no_shear #
lump $-1 $-1 $75 $15 #
transform $-1 1 0 0 0 1 0 0 0 1 62.361522263252667 36.583510525862046 11.267681048893856 1 rotate no_reflect no_shear #
lump $-1 $-1 $76 $16 #
transform $-1 1 0 0 0 1 0 0 0 1 62.361522263252667 36.583510525862046 11.267681048893856 1 rotate no_reflect no_shear #
lump $-1 $-1 $77 $17 #
transform $-1 1 0 0 0 1 0 0 0 1 62.361522263252667 36.583510525862046 11.267681048893856 1 rotate no_reflect no_shear #
lump $-1 $-1 $78 $18 #
transform $-1 1 0 0 0 1 0 0 0 1 62.361522263252667 36.583510525862046 11.267681048893856 1 rotate no_reflect no_shear #
lump $-1 $-1 $79 $19 #
transform $-1 1 0 0 0 1 0 0 0 1 62.361522263252667 36.583510525862046 11.267681048893856 1 rotate no_reflect no_shear #
shell $-1 $-1 $-1 $80 $-1 $20 #
shell $-1 $-1 $-1 $81 $-1 $22 #
shell $-1 $-1 $-1 $82 $-1 $24 #
shell $-1 $-1 $-1 $83 $-1 $26 #
shell $-1 $-1 $-1 $84 $-1 $28 #
shell $-1 $-1 $-1 $85 $-1 $30 #
shell $-1 $-1 $-1 $86 $-1 $32 #
shell $-1 $-1 $-1 $87 $-1 $34 #
shell $-1 $-1 $-1 $88 $-1 $36 #
shell $-1 $-1 $-1 $89 $-1 $38 #
shell $-1 $-1 $-1 $90 $-1 $40 #
shell $-1 $-1 $-1 $91 $-1 $42 #
shell $-1 $-1 $-1 $92 $-1 $44 #
shell $-1 $-1 $-1 $93 $-1 $46 #
shell $-1 $-1 $-1 $94 $-1 $48 #
shell $-1 $-1 $-1 $95 $-1 $50 #
shell $-1 $-1 $-1 $96 $-1 $52 #
shell $-1 $-1 $-1 $97 $-1 $54 #
shell $-1 $-1 $-1 $98 $-1 $56 #
shell $-1 $-1 $-1 $99 $-1 $58 #
face $-1 $100 $101 $60 $-1 $102 forward single #
face $-1 $103 $104 $61 $-1 $105 forward single #
face $-1 $106 $107 $62 $-1 $108 reversed single #
face $-1 $109 $110 $63 $-1 $111 forward single #
face $-1 $112 $113 $64 $-1 $114 forward single #
face $-1 $115 $116 $65 $-1 $117 forward single #
face $-1 $118 $119 $66 $-1 $120 reversed single #
face $-1 $121 $122 $67 $-1 $123 forward single #
face $-1 $124 $125 $68 $-1 $126 forward single #
face $-1 $127 $128 $69 $-1 $129 forward single #
face $-1 $130 $131 $70 $-1 $132 reversed single #
face $-1 $133 $134 $71 $-1 $135 forward single #
face $-1 $136 $137 $72 $-1 $138 forward single #
face $-1 $139 $140 $73 $-1 $141 forward single #
face $-1 $142 $143 $74 $-1 $144 reversed single #
face $-1 $145 $146 $75 $-1 $147 forward single #
face $-1 $148 $149 $76 $-1 $150 forward single #
face $-1 $151 $152 $77 $-1 $153 forward single #
face $-1 $154 $155 $78 $-1 $156 reversed single #
face $-1 $157 $158 $79 $-1 $159 forward single #
face $-1 $160 $161 $60 $-1 $162 reversed single #
loop $-1 $-1 $163 $80 #
plane-surface $-1 0 0 11.267681048893856 0 0 1 1 0 0 forward_v I I I I #
face $-1 $164 $165 $61 $-1 $166 reversed single #
loop $-1 $-1 $167 $81 #
plane-surface $-1 -62.361522263252667 0 0 1 0 0 0 0 -1 forward_v I I I I #
face $-1 $168 $169 $62 $-1 $170 reversed single #
loop $-1 $-1 $171 $82 #
plane-surface $-1 -32.510424405768475 -134.86661186483406 85.01246402466063 -1 0 0 0 -0.78801076186113728 0.61566146476048833 forward_v I I I I #
face $-1 $172 $173 $63 $-1 $174 forward single #
loop $-1 $175 $176 $83 #
cone-surface $-1 -43.236815239600531 -35.001017659952296 9.4386556631090528 0 0.78801076186113728 -0.61566146476048833 0.5 0 0 1 I I 0 1 0.5 forward I I I I #
face $-1 $177 $178 $64 $-1 $179 forward single #
loop $-1 $180 $181 $84 #
cone-surface $-1 -39.21441867691351 -35.001017659952296 9.4386556631090528 0 0.78801076186113728 -0.61566146476048833 0.5 0 0 1 I I 0 1 0.5 forward I I I I #
face $-1 $182 $183 $65 $-1 $184 forward single #
loop $-1 $185 $186 $85 #
cone-surface $-1 -35.192022114226489 -35.001017659952296 9.4386556631090528 0 0.78801076186113728 -0.61566146476048833 0.5 0 0 1 I I 0 1 0.5 forward I I I I #
face $-1 $187 $188 $66 $-1 $189 reversed single #
loop $-1 $-1 $190 $86 #
plane-surface $-1 -4.1256485584226557 -134.86661186483406 85.01246402466063 -1 0 0 0 -0.78801076186113728 0.61566146476048833 forward_v I I I I #
face $-1 $191 $192 $67 $-1 $193 forward single #
loop $-1 $194 $195 $87 #
cone-surface $-1 -14.85203939225471 -35.001017659952296 9.4386556631090528 0 0.78801076186113728 -0.61566146476048833 0.5 0 0 1 I I 0 1 0.5 forward I I I I #
face $-1 $196 $197 $68 $-1 $198 forward single #
loop $-1 $199 $200 $88 #
cone-surface $-1 -10.829642829567689 -35.001017659952296 9.4386556631090528 0 0.78801076186113728 -0.61566146476048833 0.5 0 0 1 I I 0 1 0.5 forward I I I I #
face $-1 $201 $202 $69 $-1 $203 forward single #
loop $-1 $204 $205 $89 #
cone-surface $-1 -6.8072462668806679 -35.001017659952296 9.4386556631090528 0 0.78801076186113728 -0.61566146476048833 0.5 0 0 1 I I 0 1 0.5 forward I I I I #
face $-1 $206 $207 $70 $-1 $208 reversed single #
loop $-1 $-1 $209 $90 #
plane-surface $-1 24.259127288923167 -134.86661186483406 85.01246402466063 -1 0 0 0 -0.78801076186113728 0.61566146476048833 forward_v I I I I #
face $-1 $210 $211 $71 $-1 $212 forward single #
loop $-1 $213 $214 $91 #
cone-surface $-1 13.532736455091111 -35.001017659952296 9.4386556631090528 0 0.78801076186113728 -0.61566146476048833 0.5 0 0 1 I I 0 1 0.5 forward I I I I #
face $-1 $215 $216 $72 $-1 $217 forward single #
loop $-1 $218 $219 $92 #
cone-surface $-1 17.555133017778132 -35.001017659952296 9.4386556631090528 0 0.78801076186113728 -0.61566146476048833 0.5 0 0 1 I I 0 1 0.5 forward I I I I #
face $-1 $220 $221 $73 $-1 $222 forward single #
loop $-1 $223 $224 $93 #
cone-surface $-1 21.577529580465153 -35.001017659952296 9.4386556631090528 0 0.78801076186113728 -0.61566146476048833 0.5 0 0 1 I I 0 1 0.5 forward I I I I #
face $-1 $225 $226 $74 $-1 $227 reversed single #
loop $-1 $-1 $228 $94 #
plane-surface $-1 52.643903136268989 -134.86661186483406 85.01246402466063 -1 0 0 0 -0.78801076186113728 0.61566146476048833 forward_v I I I I #
face $-1 $229 $230 $75 $-1 $231 forward single #
loop $-1 $232 $233 $95 #
cone-surface $-1 41.917512302436933 -35.001017659952296 9.4386556631090528 0 0.78801076186113728 -0.61566146476048833 0.5 0 0 1 I I 0 1 0.5 forward I I I I #
face $-1 $234 $235 $76 $-1 $236 forward single #
loop $-1 $237 $238 $96 #
cone-surface $-1 45.939908865123954 -35.001017659952296 9.4386556631090528 0 0.78801076186113728 -0.61566146476048833 0.5 0 0 1 I I 0 1 0.5 forward I I I I #
face $-1 $239 $240 $77 $-1 $241 forward single #
loop $-1 $242 $243 $97 #
cone-surface $-1 49.962305427810975 -35.001017659952296 9.4386556631090528 0 0.78801076186113728 -0.61566146476048833 0.5 0 0 1 I I 0 1 0.5 forward I I I I #
face $-1 $244 $245 $78 $-1 $246 reversed single #
loop $-1 $-1 $247 $98 #
plane-surface $-1 -26.4970001042952 105.80822619985895 132.4383671524468 1 0 0 0 -0.85716730853699208 -0.51503806187062418 forward_v I I I I #
face $-1 $248 $249 $79 $-1 $250 forward single #
loop $-1 $251 $252 $99 #
cone-surface $-1 -18.645036688800587 34.183351313964685 7.9780096857601279 0 -0.85716730853699208 -0.51503806187062418 1.5 0 0 1 I I 0 1 1.5 forward I I I I #
face $-1 $253 $254 $60 $-1 $255 reversed single #
loop $-1 $-1 $256 $100 #
plane-surface $-1 0 0 -11.267681048893856 0 0 1 1 0 0 forward_v I I I I #
coedge $-1 $257 $258 $259 $260 forward $101 $-1 #
face $-1 $261 $262 $61 $-1 $263 forward single #
loop $-1 $-1 $264 $103 #
plane-surface $-1 0 36.583510525862046 0 0 -1 0 0 0 -1 forward_v I I I I #
coedge $-1 $265 $266 $267 $268 forward $104 $-1 #
face $-1 $269 $270 $62 $-1 $271 reversed single #
loop $-1 $-1 $272 $106 #
plane-surface $-1 -39.21441867691351 -36.583510525862025 8.2252917420847353 0 -0.78801076186113728 0.61566146476048833 1 0 0 forward_v I I I I #
coedge $-1 $273 $274 $275 $276 reversed $107 $-1 #
face $-1 $-1 $277 $63 $-1 $278 forward single #
loop $-1 $279 $280 $109 #
cone-surface $-1 -43.236815239600531 -34.410009588556441 8.9769095645386869 0 0.78801076186113728 -0.61566146476048833 0.25 0 0 1 I I -0.70710678118654746 0.70710678118654746 0.25 forward I I I I #
loop $-1 $-1 $281 $83 #
coedge $-1 $176 $176 $282 $283 reversed $110 $-1 #
face $-1 $-1 $284 $64 $-1 $285 forward single #
loop $-1 $286 $287 $112 #
cone-surface $-1 -39.21441867691351 -34.410009588556441 8.9769095645386869 0 0.78801076186113728 -0.61566146476048833 0.25 0 0 1 I I -0.70710678118654746 0.70710678118654746 0.25 forward I I I I #
loop $-1 $-1 $288 $84 #
coedge $-1 $181 $181 $289 $290 reversed $113 $-1 #
face $-1 $-1 $291 $65 $-1 $292 forward single #
loop $-1 $293 $294 $115 #
cone-surface $-1 -35.192022114226489 -34.410009588556441 8.9769095645386869 0 0.78801076186113728 -0.61566146476048833 0.25 0 0 1 I I -0.70710678118654746 0.70710678118654746 0.25 forward I I I I #
loop $-1 $-1 $295 $85 #
coedge $-1 $186 $186 $296 $297 reversed $116 $-1 #
face $-1 $298 $299 $66 $-1 $300 reversed single #
loop $-1 $-1 $301 $118 #
plane-surface $-1 -10.829642829567689 -36.583510525862025 8.2252917420847353 0 -0.78801076186113728 0.61566146476048833 1 0 0 forward_v I I I I #
coedge $-1 $302 $303 $304 $305 reversed $119 $-1 #
face $-1 $-1 $306 $67 $-1 $307 forward single #
loop $-1 $308 $309 $121 #
cone-surface $-1 -14.85203939225471 -34.410009588556441 8.9769095645386869 0 0.78801076186113728 -0.61566146476048833 0.25 0 0 1 I I -0.70710678118654746 0.70710678118654746 0.25 forward I I I I #
loop $-1 $-1 $310 $87 #
coedge $-1 $195 $195 $311 $312 reversed $122 $-1 #
face $-1 $-1 $313 $68 $-1 $314 forward single #
loop $-1 $315 $316 $124 #
cone-surface $-1 -10.829642829567689 -34.410009588556441 8.9769095645386869 0 0.78801076186113728 -0.61566146476048833 0.25 0 0 1 I I -0.70710678118654746 0.70710678118654746 0.25 forward I I I I #
loop $-1 $-1 $317 $88 #
coedge $-1 $200 $200 $318 $319 reversed $125 $-1 #
face $-1 $-1 $320 $69 $-1 $321 forward single #
loop $-1 $322 $323 $127 #
cone-surface $-1 -6.8072462668806679 -34.410009588556441 8.9769095645386869 0 0.78801076186113728 -0.61566146476048833 0.25 0 0 1 I I -0.70710678118654746 0.70710678118654746 0.25 forward I I I I #
loop $-1 $-1 $324 $89 #
coedge $-1 $205 $205 $325 $326 reversed $128 $-1 #
face $-1 $327 $328 $70 $-1 $329 reversed single #
loop $-1 $-1 $330 $130 #
plane-surface $-1 17.555133017778132 -36.583510525862025 8.2252917420847353 0 -0.78801076186113728 0.61566146476048833 1 0 0 forward_v I I I I #
coedge $-1 $331 $332 $333 $334 reversed $131 $-1 #
face $-1 $-1 $335 $71 $-1 $336 forward single #
loop $-1 $337 $338 $133 #
cone-surface $-1 13.532736455091111 -34.410009588556441 8.9769095645386869 0 0.78801076186113728 -0.61566146476048833 0.25 0 0 1 I I -0.70710678118654746 0.70710678118654746 0.25 forward I I I I #
loop $-1 $-1 $339 $91 #
coedge $-1 $214 $214 $340 $341 reversed $134 $-1 #
face $-1 $-1 $342 $72 $-1 $343 forward single #
loop $-1 $344 $345 $136 #
cone-surface $-1 17.555133017778132 -34.410009588556441 8.9769095645386869 0 0.78801076186113728 -0.61566146476048833 0.25 0 0 1 I I -0.70710678118654746 0.70710678118654746 0.25 forward I I I I #
loop $-1 $-1 $346 $92 #
coedge $-1 $219 $219 $347 $348 reversed $137 $-1 #
face $-1 $-1 $349 $73 $-1 $350 forward single #
loop $-1 $351 $352 $139 #
cone-surface $-1 21.577529580465153 -34.410009588556441 8.9769095645386869 0 0.78801076186113728 -0.61566146476048833 0.25 0 0 1 I I -0.70710678118654746 0.70710678118654746 0.25 forward I I I I #
loop $-1 $-1 $353 $93 #
coedge $-1 $224 $224 $354 $355 reversed $140 $-1 #
face $-1 $356 $357 $74 $-1 $358 reversed single #
loop $-1 $-1 $359 $142 #
plane-surface $-1 45.939908865123954 -36.583510525862025 8.2252917420847353 0 -0.78801076186113728 0.61566146476048833 1 0 0 forward_v I I I I #
coedge $-1 $360 $361 $362 $363 reversed $143 $-1 #
face $-1 $-1 $364 $75 $-1 $365 forward single #
loop $-1 $366 $367 $145 #
cone-surface $-1 41.917512302436933 -34.410009588556441 8.9769095645386869 0 0.78801076186113728 -0.61566146476048833 0.25 0 0 1 I I -0.70710678118654746 0.70710678118654746 0.25 forward I I I I #
loop $-1 $-1 $368 $95 #
coedge $-1 $233 $233 $369 $370 reversed $146 $-1 #
face $-1 $-1 $371 $76 $-1 $372 forward single #
loop $-1 $373 $374 $148 #
cone-surface $-1 45.939908865123954 -34.410009588556441 8.9769095645386869 0 0.78801076186113728 -0.61566146476048833 0.25 0 0 1 I I -0.70710678118654746 0.70710678118654746 0.25 forward I I I I #
loop $-1 $-1 $375 $96 #
coedge $-1 $238 $238 $376 $377 reversed $149 $-1 #
face $-1 $-1 $378 $77 $-1 $379 forward single #
loop $-1 $380 $381 $151 #
cone-surface $-1 49.962305427810975 -34.410009588556441 8.9769095645386869 0 0.78801076186113728 -0.61566146476048833 0.25 0 0 1 I I -0.70710678118654746 0.70710678118654746 0.25 forward I I I I #
loop $-1 $-1 $382 $97 #
coedge $-1 $243 $243 $383 $384 reversed $152 $-1 #
face $-1 $385 $386 $78 $-1 $387 reversed single #
loop $-1 $-1 $388 $154 #
plane-surface $-1 -18.645036688800587 -1.1002901894650563 68.201252028911924 0 0.85716730853699208 0.51503806187062418 1 0 0 forward_v I I I I #
coedge $-1 $389 $390 $391 $392 reversed $155 $-1 #
face $-1 $-1 $393 $79 $-1 $394 forward single #
loop $-1 $395 $396 $157 #
cone-surface $-1 -18.645036688800587 32.87764721646311 7.1934635405022789 0 -0.85716730853699208 -0.51503806187062418 0.75 0 0 1 I I -0.70710678118654757 0.70710678118654757 0.75 forward I I I I #
loop $-1 $-1 $397 $99 #
coedge $-1 $252 $252 $398 $399 reversed $158 $-1 #
face $-1 $400 $401 $60 $-1 $402 reversed single #
loop $-1 $-1 $403 $160 #
plane-surface $-1 0 -36.583510525862046 0 0 1 0 0 0 1 forward_v I I I I #
coedge $-1 $404 $405 $406 $407 forward $161 $-1 #
coedge $-1 $408 $163 $409 $410 forward $101 $-1 #
coedge $-1 $163 $408 $411 $412 forward $101 $-1 #
coedge $-1 $413 $414 $163 $260 reversed $415 $-1 #
edge $-1 $416 -36.583510525862046 $417 36.583510525862046 $259 $418 forward 7 unknown #
face $-1 $419 $420 $61 $-1 $421 reversed single #
loop $-1 $-1 $267 $164 #
plane-surface $-1 -67.953492831813691 0 -6.9503576574066166 0 0 1 1 0 0 forward_v I I I I #
coedge $-1 $422 $423 $266 $424 forward $165 $-1 #
coedge $-1 $425 $167 $426 $427 reversed $104 $-1 #
coedge $-1 $167 $425 $264 $424 reversed $104 $-1 #
coedge $-1 $428 $429 $167 $268 reversed $262 $-1 #
edge $-1 $430 -36.583510525862046 $431 36.583510525862046 $267 $432 forward 7 unknown #
face $-1 $433 $434 $62 $-1 $435 reversed single #
loop $-1 $-1 $436 $168 #
plane-surface $-1 -45.918412948058545 -134.86661186483406 85.01246402466063 1 0 0 0 0.78801076186113728 -0.61566146476048833 forward_v I I I I #
coedge $-1 $437 $438 $439 $440 reversed $169 $-1 #
coedge $-1 $274 $171 $441 $442 reversed $107 $-1 #
coedge $-1 $171 $273 $437 $443 reversed $107 $-1 #
coedge $-1 $439 $444 $171 $276 forward $445 $-1 #
edge $-1 $446 30.849795406554982 $447 33.226770376513372 $275 $448 forward 7 unknown #
loop $-1 $-1 $282 $172 #
plane-surface $-1 -39.21441867691351 -36.583510525862025 8.2252917420847353 0 -0.78801076186113728 0.61566146476048833 1 0 0 forward_v I I I I #
loop $-1 $-1 $449 $109 #
coedge $-1 $280 $280 $281 $450 reversed $173 $-1 #
coedge $-1 $281 $281 $280 $450 forward $175 $-1 #
coedge $-1 $282 $282 $176 $283 forward $277 $-1 #
edge $-1 $451 4.8984616427290162e-015 $451 6.2831853071796058 $282 $452 forward 7 unknown #
loop $-1 $-1 $289 $177 #
plane-surface $-1 -39.21441867691351 -36.583510525862025 8.2252917420847353 0 -0.78801076186113728 0.61566146476048833 1 0 0 forward_v I I I I #
loop $-1 $-1 $453 $112 #
coedge $-1 $287 $287 $288 $454 reversed $178 $-1 #
coedge $-1 $288 $288 $287 $454 forward $180 $-1 #
coedge $-1 $289 $289 $181 $290 forward $284 $-1 #
edge $-1 $455 4.8984616427290162e-015 $455 6.2831853071796058 $289 $456 forward 7 unknown #
loop $-1 $-1 $296 $182 #
plane-surface $-1 -39.21441867691351 -36.583510525862025 8.2252917420847353 0 -0.78801076186113728 0.61566146476048833 1 0 0 forward_v I I I I #
loop $-1 $-1 $457 $115 #
coedge $-1 $294 $294 $295 $458 reversed $183 $-1 #
coedge $-1 $295 $295 $294 $458 forward $185 $-1 #
coedge $-1 $296 $296 $186 $297 forward $291 $-1 #
edge $-1 $459 4.8984616427290162e-015 $459 6.2831853071796058 $296 $460 forward 7 unknown #
face $-1 $461 $462 $66 $-1 $463 reversed single #
loop $-1 $-1 $464 $187 #
plane-surface $-1 -17.533637100712724 -134.86661186483406 85.01246402466063 1 0 0 0 0.78801076186113728 -0.61566146476048833 forward_v I I I I #
coedge $-1 $465 $466 $467 $468 reversed $188 $-1 #
coedge $-1 $303 $190 $469 $470 reversed $119 $-1 #
coedge $-1 $190 $302 $465 $471 reversed $119 $-1 #
coedge $-1 $467 $472 $190 $305 forward $473 $-1 #
edge $-1 $474 30.849795406554982 $475 33.226770376513372 $304 $476 forward 7 unknown #
loop $-1 $-1 $311 $191 #
plane-surface $-1 -10.829642829567689 -36.583510525862025 8.2252917420847353 0 -0.78801076186113728 0.61566146476048833 1 0 0 forward_v I I I I #
loop $-1 $-1 $477 $121 #
coedge $-1 $309 $309 $310 $478 reversed $192 $-1 #
coedge $-1 $310 $310 $309 $478 forward $194 $-1 #
coedge $-1 $311 $311 $195 $312 forward $306 $-1 #
edge $-1 $479 4.8984616427290162e-015 $479 6.2831853071796058 $311 $480 forward 7 unknown #
loop $-1 $-1 $318 $196 #
plane-surface $-1 -10.829642829567689 -36.583510525862025 8.2252917420847353 0 -0.78801076186113728 0.61566146476048833 1 0 0 forward_v I I I I #
loop $-1 $-1 $481 $124 #
coedge $-1 $316 $316 $317 $482 reversed $197 $-1 #
coedge $-1 $317 $317 $316 $482 forward $199 $-1 #
coedge $-1 $318 $318 $200 $319 forward $313 $-1 #
edge $-1 $483 4.8984616427290162e-015 $483 6.2831853071796058 $318 $484 forward 7 unknown #
loop $-1 $-1 $325 $201 #
plane-surface $-1 -10.829642829567689 -36.583510525862025 8.2252917420847353 0 -0.78801076186113728 0.61566146476048833 1 0 0 forward_v I I I I #
loop $-1 $-1 $485 $127 #
coedge $-1 $323 $323 $324 $486 reversed $202 $-1 #
coedge $-1 $324 $324 $323 $486 forward $204 $-1 #
coedge $-1 $325 $325 $205 $326 forward $320 $-1 #
edge $-1 $487 4.8984616427290162e-015 $487 6.2831853071796058 $325 $488 forward 7 unknown #
face $-1 $489 $490 $70 $-1 $491 reversed single #
loop $-1 $-1 $492 $206 #
plane-surface $-1 10.851138746633099 -134.86661186483406 85.01246402466063 1 0 0 0 0.78801076186113728 -0.61566146476048833 forward_v I I I I #
coedge $-1 $493 $494 $495 $496 reversed $207 $-1 #
coedge $-1 $332 $209 $497 $498 reversed $131 $-1 #
coedge $-1 $209 $331 $493 $499 reversed $131 $-1 #
coedge $-1 $495 $500 $209 $334 forward $501 $-1 #
edge $-1 $502 30.849795406554982 $503 33.226770376513372 $333 $504 forward 7 unknown #
loop $-1 $-1 $340 $210 #
plane-surface $-1 17.555133017778132 -36.583510525862025 8.2252917420847353 0 -0.78801076186113728 0.61566146476048833 1 0 0 forward_v I I I I #
loop $-1 $-1 $505 $133 #
coedge $-1 $338 $338 $339 $506 reversed $211 $-1 #
coedge $-1 $339 $339 $338 $506 forward $213 $-1 #
coedge $-1 $340 $340 $214 $341 forward $335 $-1 #
edge $-1 $507 4.8984616427290162e-015 $507 6.2831853071796058 $340 $508 forward 7 unknown #
loop $-1 $-1 $347 $215 #
plane-surface $-1 17.555133017778132 -36.583510525862025 8.2252917420847353 0 -0.78801076186113728 0.61566146476048833 1 0 0 forward_v I I I I #
loop $-1 $-1 $509 $136 #
coedge $-1 $345 $345 $346 $510 reversed $216 $-1 #
coedge $-1 $346 $346 $345 $510 forward $218 $-1 #
coedge $-1 $347 $347 $219 $348 forward $342 $-1 #
edge $-1 $511 4.8984616427290162e-015 $511 6.2831853071796058 $347 $512 forward 7 unknown #
loop $-1 $-1 $354 $220 #
plane-surface $-1 17.555133017778132 -36.583510525862025 8.2252917420847353 0 -0.78801076186113728 0.61566146476048833 1 0 0 forward_v I I I I #
loop $-1 $-1 $513 $139 #
coedge $-1 $352 $352 $353 $514 reversed $221 $-1 #
coedge $-1 $353 $353 $352 $514 forward $223 $-1 #
coedge $-1 $354 $354 $224 $355 forward $349 $-1 #
edge $-1 $515 4.8984616427290162e-015 $515 6.2831853071796058 $354 $516 forward 7 unknown #
face $-1 $517 $518 $74 $-1 $519 reversed single #
loop $-1 $-1 $520 $225 #
plane-surface $-1 39.235914593978919 -134.86661186483406 85.01246402466063 1 0 0 0 0.78801076186113728 -0.61566146476048833 forward_v I I I I #
coedge $-1 $521 $522 $523 $524 reversed $226 $-1 #
coedge $-1 $361 $228 $525 $526 reversed $143 $-1 #
coedge $-1 $228 $360 $521 $527 reversed $143 $-1 #
coedge $-1 $523 $528 $228 $363 forward $529 $-1 #
edge $-1 $530 30.849795406554982 $531 33.226770376513372 $362 $532 forward 7 unknown #
loop $-1 $-1 $369 $229 #
plane-surface $-1 45.939908865123954 -36.583510525862025 8.2252917420847353 0 -0.78801076186113728 0.61566146476048833 1 0 0 forward_v I I I I #
loop $-1 $-1 $533 $145 #
coedge $-1 $367 $367 $368 $534 reversed $230 $-1 #
coedge $-1 $368 $368 $367 $534 forward $232 $-1 #
coedge $-1 $369 $369 $233 $370 forward $364 $-1 #
edge $-1 $535 4.8984616427290162e-015 $535 6.2831853071796058 $369 $536 forward 7 unknown #
loop $-1 $-1 $376 $234 #
plane-surface $-1 45.939908865123954 -36.583510525862025 8.2252917420847353 0 -0.78801076186113728 0.61566146476048833 1 0 0 forward_v I I I I #
loop $-1 $-1 $537 $148 #
coedge $-1 $374 $374 $375 $538 reversed $235 $-1 #
coedge $-1 $375 $375 $374 $538 forward $237 $-1 #
coedge $-1 $376 $376 $238 $377 forward $371 $-1 #
edge $-1 $539 4.8984616427290162e-015 $539 6.2831853071796058 $376 $540 forward 7 unknown #
loop $-1 $-1 $383 $239 #
plane-surface $-1 45.939908865123954 -36.583510525862025 8.2252917420847353 0 -0.78801076186113728 0.61566146476048833 1 0 0 forward_v I I I I #
loop $-1 $-1 $541 $151 #
coedge $-1 $381 $381 $382 $542 reversed $240 $-1 #
coedge $-1 $382 $382 $381 $542 forward $242 $-1 #
coedge $-1 $383 $383 $243 $384 forward $378 $-1 #
edge $-1 $543 4.8984616427290162e-015 $543 6.2831853071796058 $383 $544 forward 7 unknown #
face $-1 $545 $546 $78 $-1 $547 forward single #
loop $-1 $-1 $548 $244 #
plane-surface $-1 -10.793073273305975 105.80822619985895 132.4383671524468 -1 0 0 0 0.85716730853699208 0.51503806187062418 forward_v I I I I #
coedge $-1 $549 $550 $551 $552 reversed $245 $-1 #
coedge $-1 $390 $247 $553 $554 reversed $155 $-1 #
coedge $-1 $247 $389 $549 $555 reversed $155 $-1 #
coedge $-1 $551 $556 $247 $392 forward $546 $-1 #
edge $-1 $557 16.320602574067429 $558 19.795263765664487 $391 $559 forward 7 unknown #
loop $-1 $-1 $398 $248 #
plane-surface $-1 -18.645036688800587 -1.1002901894650563 68.201252028911924 0 0.85716730853699208 0.51503806187062418 1 0 0 forward_v I I I I #
loop $-1 $-1 $560 $157 #
coedge $-1 $396 $396 $397 $561 reversed $249 $-1 #
coedge $-1 $397 $397 $396 $561 forward $251 $-1 #
coedge $-1 $398 $398 $252 $399 forward $393 $-1 #
edge $-1 $562 6.0555966537909419e-016 $562 6.2831853071796013 $398 $563 forward 7 unknown #
face $-1 $564 $565 $60 $-1 $566 reversed single #
loop $-1 $-1 $567 $253 #
plane-surface $-1 -62.361522263252667 0 0 1 0 0 0 0 -1 forward_v I I I I #
coedge $-1 $568 $411 $569 $570 forward $254 $-1 #
coedge $-1 $571 $256 $568 $572 forward $161 $-1 #
coedge $-1 $256 $571 $573 $574 forward $161 $-1 #
coedge $-1 $414 $413 $256 $407 reversed $415 $-1 #
edge $-1 $575 -36.583510525862046 $576 36.583510525862046 $406 $577 forward 7 unknown #
coedge $-1 $258 $257 $578 $579 forward $101 $-1 #
coedge $-1 $580 $581 $257 $410 reversed $565 $-1 #
edge $-1 $417 -62.361522263252667 $582 62.361522263252667 $409 $583 forward 7 unknown #
coedge $-1 $403 $584 $258 $412 reversed $254 $-1 #
edge $-1 $585 -62.361522263252667 $416 62.361522263252667 $411 $586 forward 7 unknown #
coedge $-1 $406 $259 $584 $587 forward $415 $-1 #
coedge $-1 $259 $406 $580 $588 reversed $415 $-1 #
loop $-1 $-1 $413 $564 #
vertex $-1 $260 $589 #
vertex $-1 $260 $590 #
straight-curve $-1 62.361522263252667 0 11.267681048893856 0 1 0 I I #
face $-1 $591 $592 $61 $-1 $593 reversed single #
loop $-1 $-1 $594 $261 #
plane-surface $-1 -73.545463400374715 0 -9.1090193531502361 1 0 0 0 0 -1 forward_v I I I I #
coedge $-1 $595 $264 $596 $597 reversed $165 $-1 #
coedge $-1 $264 $595 $428 $598 reversed $165 $-1 #
edge $-1 $430 6.9503576574066166 $599 11.267681048893856 $264 $600 forward 7 unknown #
coedge $-1 $266 $265 $601 $602 reversed $104 $-1 #
coedge $-1 $603 $604 $265 $427 forward $605 $-1 #
edge $-1 $606 -11.267681048893856 $431 -6.9503576574066166 $426 $607 forward 7 unknown #
coedge $-1 $608 $267 $423 $598 forward $262 $-1 #
coedge $-1 $267 $608 $603 $609 forward $262 $-1 #
vertex $-1 $424 $610 #
vertex $-1 $609 $611 #
straight-curve $-1 -62.361522263252667 0 -6.9503576574066166 0 -1 0 I I #
face $-1 $-1 $445 $62 $-1 $612 forward single #
loop $-1 $-1 $613 $269 #
plane-surface $-1 0 -36.583510525862046 0 0 1 0 0 0 1 forward_v I I I I #
coedge $-1 $614 $615 $616 $617 reversed $270 $-1 #
coedge $-1 $618 $272 $274 $443 forward $169 $-1 #
coedge $-1 $272 $618 $614 $619 forward $169 $-1 #
coedge $-1 $616 $275 $272 $440 forward $445 $-1 #
edge $-1 $447 12.90321506731172 $620 26.31120360960179 $439 $621 forward 7 unknown #
coedge $-1 $622 $623 $273 $442 forward $434 $-1 #
edge $-1 $624 -34.280940270245608 $446 -31.23855096343646 $441 $625 forward 7 unknown #
edge $-1 $447 -3.8608474072404189 $624 3.4120438039485133e-014 $274 $626 forward 7 unknown #
coedge $-1 $275 $616 $622 $627 forward $445 $-1 #
loop $-1 $-1 $616 $433 #
vertex $-1 $442 $628 #
vertex $-1 $276 $629 #
straight-curve $-1 -32.510424405768475 -67.433305932417028 11.267681048893856 0 1 0 I I #
coedge $-1 $449 $449 $-1 $630 reversed $279 $-1 #
edge $-1 $631 0 $631 6.2831853071796004 $280 $632 forward 7 unknown #
vertex $-1 $283 $633 #
ellipse-curve $-1 -43.236815239600531 -35.395023040882847 9.7464863954892831 0 -0.78801076186113728 0.61566146476048833 0.5 0 0 1 I I #
coedge $-1 $453 $453 $-1 $634 reversed $286 $-1 #
edge $-1 $635 0 $635 6.2831853071796004 $287 $636 forward 7 unknown #
vertex $-1 $290 $637 #
ellipse-curve $-1 -39.21441867691351 -35.395023040882847 9.7464863954892831 0 -0.78801076186113728 0.61566146476048833 0.5 0 0 1 I I #
coedge $-1 $457 $457 $-1 $638 reversed $293 $-1 #
edge $-1 $639 0 $639 6.2831853071796004 $294 $640 forward 7 unknown #
vertex $-1 $297 $641 #
ellipse-curve $-1 -35.192022114226489 -35.395023040882847 9.7464863954892831 0 -0.78801076186113728 0.61566146476048833 0.5 0 0 1 I I #
face $-1 $-1 $473 $66 $-1 $642 forward single #
loop $-1 $-1 $643 $298 #
plane-surface $-1 0 -36.583510525862046 0 0 1 0 0 0 1 forward_v I I I I #
coedge $-1 $644 $645 $646 $647 reversed $299 $-1 #
coedge $-1 $648 $301 $303 $471 forward $188 $-1 #
coedge $-1 $301 $648 $644 $649 forward $188 $-1 #
coedge $-1 $646 $304 $301 $468 forward $473 $-1 #
edge $-1 $475 -1.2891728563611888 $650 12.11881568592888 $467 $651 forward 7 unknown #
coedge $-1 $652 $653 $302 $470 forward $462 $-1 #
edge $-1 $654 -34.280940270245608 $474 -31.23855096343646 $469 $655 forward 7 unknown #
edge $-1 $475 -3.8608474072404189 $654 3.4120438039485133e-014 $303 $656 forward 7 unknown #
coedge $-1 $304 $646 $652 $657 forward $473 $-1 #
loop $-1 $-1 $646 $461 #
vertex $-1 $470 $658 #
vertex $-1 $305 $659 #
straight-curve $-1 -4.1256485584226557 -67.433305932417028 11.267681048893856 0 1 0 I I #
coedge $-1 $477 $477 $-1 $660 reversed $308 $-1 #
edge $-1 $661 0 $661 6.2831853071796004 $309 $662 forward 7 unknown #
vertex $-1 $312 $663 #
ellipse-curve $-1 -14.85203939225471 -35.395023040882847 9.7464863954892831 0 -0.78801076186113728 0.61566146476048833 0.5 0 0 1 I I #
coedge $-1 $481 $481 $-1 $664 reversed $315 $-1 #
edge $-1 $665 0 $665 6.2831853071796004 $316 $666 forward 7 unknown #
vertex $-1 $319 $667 #
ellipse-curve $-1 -10.829642829567689 -35.395023040882847 9.7464863954892831 0 -0.78801076186113728 0.61566146476048833 0.5 0 0 1 I I #
coedge $-1 $485 $485 $-1 $668 reversed $322 $-1 #
edge $-1 $669 0 $669 6.2831853071796004 $323 $670 forward 7 unknown #
vertex $-1 $326 $671 #
ellipse-curve $-1 -6.8072462668806679 -35.395023040882847 9.7464863954892831 0 -0.78801076186113728 0.61566146476048833 0.5 0 0 1 I I #
face $-1 $-1 $501 $70 $-1 $672 forward single #
loop $-1 $-1 $673 $327 #
plane-surface $-1 0 -36.583510525862046 0 0 1 0 0 0 1 forward_v I I I I #
coedge $-1 $674 $675 $676 $677 reversed $328 $-1 #
coedge $-1 $678 $330 $332 $499 forward $207 $-1 #
coedge $-1 $330 $678 $674 $679 forward $207 $-1 #
coedge $-1 $676 $333 $330 $496 forward $501 $-1 #
edge $-1 $503 -15.481560780034101 $680 -2.0735722377440329 $495 $681 forward 7 unknown #
coedge $-1 $682 $683 $331 $498 forward $490 $-1 #
edge $-1 $684 -34.280940270245608 $502 -31.23855096343646 $497 $685 forward 7 unknown #
edge $-1 $503 -3.8608474072404189 $684 3.4120438039485133e-014 $332 $686 forward 7 unknown #
coedge $-1 $333 $676 $682 $687 forward $501 $-1 #
loop $-1 $-1 $676 $489 #
vertex $-1 $498 $688 #
vertex $-1 $334 $689 #
straight-curve $-1 24.259127288923167 -67.433305932417028 11.267681048893856 0 1 0 I I #
coedge $-1 $505 $505 $-1 $690 reversed $337 $-1 #
edge $-1 $691 0 $691 6.2831853071796004 $338 $692 forward 7 unknown #
vertex $-1 $341 $693 #
ellipse-curve $-1 13.532736455091111 -35.395023040882847 9.7464863954892831 0 -0.78801076186113728 0.61566146476048833 0.5 0 0 1 I I #
coedge $-1 $509 $509 $-1 $694 reversed $344 $-1 #
edge $-1 $695 0 $695 6.2831853071796004 $345 $696 forward 7 unknown #
vertex $-1 $348 $697 #
ellipse-curve $-1 17.555133017778132 -35.395023040882847 9.7464863954892831 0 -0.78801076186113728 0.61566146476048833 0.5 0 0 1 I I #
coedge $-1 $513 $513 $-1 $698 reversed $351 $-1 #
edge $-1 $699 0 $699 6.2831853071796004 $352 $700 forward 7 unknown #
vertex $-1 $355 $701 #
ellipse-curve $-1 21.577529580465153 -35.395023040882847 9.7464863954892831 0 -0.78801076186113728 0.61566146476048833 0.5 0 0 1 I I #
face $-1 $-1 $529 $74 $-1 $702 forward single #
loop $-1 $-1 $703 $356 #
plane-surface $-1 0 -36.583510525862046 0 0 1 0 0 0 1 forward_v I I I I #
coedge $-1 $704 $705 $706 $707 reversed $357 $-1 #
coedge $-1 $708 $359 $361 $527 forward $226 $-1 #
coedge $-1 $359 $708 $704 $709 forward $226 $-1 #
coedge $-1 $706 $362 $359 $524 forward $529 $-1 #
edge $-1 $531 -29.673948703707012 $710 -16.265960161416942 $523 $711 forward 7 unknown #
coedge $-1 $712 $713 $360 $526 forward $518 $-1 #
edge $-1 $714 -34.280940270245608 $530 -31.23855096343646 $525 $715 forward 7 unknown #
edge $-1 $531 -3.8608474072404189 $714 3.4120438039485133e-014 $361 $716 forward 7 unknown #
coedge $-1 $362 $706 $712 $717 forward $529 $-1 #
loop $-1 $-1 $706 $517 #
vertex $-1 $526 $718 #
vertex $-1 $363 $719 #
straight-curve $-1 52.643903136268989 -67.433305932417028 11.267681048893856 0 1 0 I I #
coedge $-1 $533 $533 $-1 $720 reversed $366 $-1 #
edge $-1 $721 0 $721 6.2831853071796004 $367 $722 forward 7 unknown #
vertex $-1 $370 $723 #
ellipse-curve $-1 41.917512302436933 -35.395023040882847 9.7464863954892831 0 -0.78801076186113728 0.61566146476048833 0.5 0 0 1 I I #
coedge $-1 $537 $537 $-1 $724 reversed $373 $-1 #
edge $-1 $725 0 $725 6.2831853071796004 $374 $726 forward 7 unknown #
vertex $-1 $377 $727 #
ellipse-curve $-1 45.939908865123954 -35.395023040882847 9.7464863954892831 0 -0.78801076186113728 0.61566146476048833 0.5 0 0 1 I I #
coedge $-1 $541 $541 $-1 $728 reversed $380 $-1 #
edge $-1 $729 0 $729 6.2831853071796004 $381 $730 forward 7 unknown #
vertex $-1 $384 $731 #
ellipse-curve $-1 49.962305427810975 -35.395023040882847 9.7464863954892831 0 -0.78801076186113728 0.61566146476048833 0.5 0 0 1 I I #
face $-1 $-1 $732 $78 $-1 $733 reversed single #
loop $-1 $-1 $391 $385 #
plane-surface $-1 0 0 11.267681048893856 0 0 1 1 0 0 forward_v I I I I #
coedge $-1 $734 $735 $736 $737 reversed $386 $-1 #
coedge $-1 $738 $388 $390 $555 forward $245 $-1 #
coedge $-1 $388 $738 $734 $739 forward $245 $-1 #
coedge $-1 $736 $391 $388 $552 forward $546 $-1 #
edge $-1 $558 -17.174481759894906 $740 -1.4705549289056812 $551 $741 forward 7 unknown #
coedge $-1 $742 $743 $389 $554 forward $732 $-1 #
edge $-1 $744 -60.734310055887207 $557 -54.951502527329545 $553 $745 forward 7 unknown #
edge $-1 $558 66.420604720905601 $744 73.167021051724049 $390 $746 forward 7 unknown #
coedge $-1 $391 $736 $742 $747 forward $546 $-1 #
vertex $-1 $554 $748 #
vertex $-1 $392 $749 #
straight-curve $-1 -26.4970001042952 52.904113099929475 11.267681048893856 0 -1 0 I I #
coedge $-1 $560 $560 $-1 $750 reversed $395 $-1 #
edge $-1 $751 0 $751 6.2831853071796004 $396 $752 forward 7 unknown #
vertex $-1 $399 $753 #
ellipse-curve $-1 -18.645036688800587 34.846179930063521 8.3762772846150142 0 0.85716730853699208 0.51503806187062418 1.5 0 0 1 I I #
face $-1 $-1 $415 $60 $-1 $754 reversed single #
loop $-1 $-1 $580 $400 #
plane-surface $-1 0 36.583510525862046 0 0 -1 0 0 0 -1 forward_v I I I I #
coedge $-1 $755 $578 $581 $756 forward $401 $-1 #
coedge $-1 $584 $403 $404 $572 reversed $254 $-1 #
coedge $-1 $578 $755 $403 $570 reversed $401 $-1 #
edge $-1 $585 -11.267681048893856 $757 11.267681048893856 $569 $758 forward 7 unknown #
coedge $-1 $405 $404 $755 $759 forward $161 $-1 #
edge $-1 $576 -62.361522263252667 $757 62.361522263252667 $568 $760 forward 7 unknown #
coedge $-1 $581 $580 $405 $574 reversed $565 $-1 #
edge $-1 $761 -62.361522263252667 $575 62.361522263252667 $573 $762 forward 7 unknown #
vertex $-1 $407 $763 #
vertex $-1 $587 $764 #
straight-curve $-1 62.361522263252667 0 -11.267681048893856 0 -1 0 I I #
coedge $-1 $567 $569 $408 $579 reversed $401 $-1 #
edge $-1 $582 -36.583510525862046 $585 36.583510525862046 $578 $765 forward 7 unknown #
coedge $-1 $573 $409 $414 $588 forward $565 $-1 #
coedge $-1 $409 $573 $567 $756 reversed $565 $-1 #
vertex $-1 $410 $766 #
straight-curve $-1 0 36.583510525862046 11.267681048893856 -1 0 0 I I #
coedge $-1 $411 $568 $413 $587 reversed $254 $-1 #
vertex $-1 $579 $767 #
straight-curve $-1 0 -36.583510525862046 11.267681048893856 1 0 0 I I #
edge $-1 $416 -11.267681048893856 $576 11.267681048893856 $413 $768 forward 7 unknown #
edge $-1 $417 -11.267681048893856 $575 11.267681048893856 $414 $769 forward 7 unknown #
point $-1 62.361522263252667 -36.583510525862046 11.267681048893856 #
point $-1 62.361522263252667 36.583510525862046 11.267681048893856 #
face $-1 $-1 $605 $61 $-1 $770 reversed single #
loop $-1 $-1 $601 $419 #
plane-surface $-1 0 0 -11.267681048893856 0 0 1 1 0 0 forward_v I I I I #
coedge $-1 $771 $772 $595 $773 forward $420 $-1 #
coedge $-1 $423 $422 $594 $773 reversed $165 $-1 #
coedge $-1 $601 $774 $422 $597 forward $592 $-1 #
edge $-1 $775 -73.545463400374715 $599 -62.361522263252667 $422 $776 forward 7 unknown #
edge $-1 $430 -5.5919705685610239 $777 5.5919705685610239 $423 $778 forward 7 unknown #
vertex $-1 $424 $779 #
straight-curve $-1 -62.361522263252667 36.583510525862046 0 0 0 -1 I I #
coedge $-1 $780 $596 $425 $602 forward $592 $-1 #
edge $-1 $599 -36.583510525862046 $606 36.583510525862046 $601 $781 forward 7 unknown #
coedge $-1 $782 $426 $429 $609 reversed $605 $-1 #
coedge $-1 $426 $782 $780 $783 reversed $605 $-1 #
loop $-1 $-1 $426 $591 #
vertex $-1 $783 $784 #
straight-curve $-1 -62.361522263252667 -36.583510525862046 0 0 0 1 I I #
coedge $-1 $429 $428 $772 $785 forward $262 $-1 #
edge $-1 $786 -5.5919705685610239 $431 5.5919705685610239 $603 $787 forward 7 unknown #
point $-1 -62.361522263252667 36.583510525862046 -6.9503576574066166 #
point $-1 -62.361522263252667 -36.583510525862046 -6.9503576574066166 #
plane-surface $-1 0 0 11.267681048893856 0 0 1 1 0 0 forward_v I I I I #
coedge $-1 $623 $622 $615 $788 forward $434 $-1 #
coedge $-1 $615 $436 $438 $619 reversed $270 $-1 #
coedge $-1 $436 $614 $613 $788 reversed $270 $-1 #
coedge $-1 $444 $439 $436 $617 forward $445 $-1 #
edge $-1 $620 -33.226770376513372 $789 -30.849795406554982 $616 $790 forward 7 unknown #
coedge $-1 $438 $437 $623 $791 reversed $169 $-1 #
edge $-1 $792 -3.4120438039485133e-014 $620 3.8608474072404189 $614 $793 forward 7 unknown #
vertex $-1 $440 $794 #
straight-curve $-1 -19.607209338456755 -34.206535555903656 11.267681048893856 -1 0 0 I I #
coedge $-1 $613 $441 $444 $627 reversed $434 $-1 #
coedge $-1 $441 $613 $618 $791 forward $434 $-1 #
vertex $-1 $442 $795 #
straight-curve $-1 -32.510424405768475 -36.583510525862046 42.506232012330315 0 0 1 I I #
straight-curve $-1 -32.510424405768475 -36.583510525862025 8.2252917420847353 0 -0.61566146476048833 -0.78801076186113728 I I #
edge $-1 $789 -45.918412948058545 $446 -32.510424405768475 $622 $796 forward 7 unknown #
point $-1 -32.510424405768475 -36.583510525862046 11.267681048893856 #
point $-1 -32.510424405768475 -34.206535555903656 11.267681048893856 #
edge $-1 $797 1 $797 0 $449 $-1 forward 7 unknown #
vertex $-1 $450 $798 #
ellipse-curve $-1 -43.236815239600531 -34.607012279021724 9.1308249307288083 0 -0.78801076186113728 0.61566146476048833 0.5 0 0 1 I I #
point $-1 -42.736815239600531 -35.395023040882862 9.7464863954892973 #
edge $-1 $799 1 $799 0 $453 $-1 forward 7 unknown #
vertex $-1 $454 $800 #
ellipse-curve $-1 -39.21441867691351 -34.607012279021724 9.1308249307288083 0 -0.78801076186113728 0.61566146476048833 0.5 0 0 1 I I #
point $-1 -38.71441867691351 -35.395023040882862 9.7464863954892973 #
edge $-1 $801 1 $801 0 $457 $-1 forward 7 unknown #
vertex $-1 $458 $802 #
ellipse-curve $-1 -35.192022114226489 -34.607012279021724 9.1308249307288083 0 -0.78801076186113728 0.61566146476048833 0.5 0 0 1 I I #
point $-1 -34.692022114226489 -35.395023040882862 9.7464863954892973 #
plane-surface $-1 0 0 11.267681048893856 0 0 1 1 0 0 forward_v I I I I #
coedge $-1 $653 $652 $645 $803 forward $462 $-1 #
coedge $-1 $645 $464 $466 $649 reversed $299 $-1 #
coedge $-1 $464 $644 $643 $803 reversed $299 $-1 #
coedge $-1 $472 $467 $464 $647 forward $473 $-1 #
edge $-1 $650 -33.226770376513372 $804 -30.849795406554982 $646 $805 forward 7 unknown #
coedge $-1 $466 $465 $653 $806 reversed $188 $-1 #
edge $-1 $807 -3.4120438039485133e-014 $650 3.8608474072404189 $644 $808 forward 7 unknown #
vertex $-1 $468 $809 #
straight-curve $-1 -5.4148214147838445 -34.206535555903656 11.267681048893856 -1 0 0 I I #
coedge $-1 $643 $469 $472 $657 reversed $462 $-1 #
coedge $-1 $469 $643 $648 $806 forward $462 $-1 #
vertex $-1 $470 $810 #
straight-curve $-1 -4.1256485584226557 -36.583510525862046 42.506232012330315 0 0 1 I I #
straight-curve $-1 -4.1256485584226557 -36.583510525862025 8.2252917420847353 0 -0.61566146476048833 -0.78801076186113728 I I #
edge $-1 $804 -17.533637100712724 $474 -4.1256485584226557 $652 $811 forward 7 unknown #
point $-1 -4.1256485584226557 -36.583510525862046 11.267681048893856 #
point $-1 -4.1256485584226557 -34.206535555903656 11.267681048893856 #
edge $-1 $812 1 $812 0 $477 $-1 forward 7 unknown #
vertex $-1 $478 $813 #
ellipse-curve $-1 -14.85203939225471 -34.607012279021724 9.1308249307288083 0 -0.78801076186113728 0.61566146476048833 0.5 0 0 1 I I #
point $-1 -14.35203939225471 -35.395023040882862 9.7464863954892973 #
edge $-1 $814 1 $814 0 $481 $-1 forward 7 unknown #
vertex $-1 $482 $815 #
ellipse-curve $-1 -10.829642829567689 -34.607012279021724 9.1308249307288083 0 -0.78801076186113728 0.61566146476048833 0.5 0 0 1 I I #
point $-1 -10.329642829567689 -35.395023040882862 9.7464863954892973 #
edge $-1 $816 1 $816 0 $485 $-1 forward 7 unknown #
vertex $-1 $486 $817 #
ellipse-curve $-1 -6.8072462668806679 -34.607012279021724 9.1308249307288083 0 -0.78801076186113728 0.61566146476048833 0.5 0 0 1 I I #
point $-1 -6.3072462668806679 -35.395023040882862 9.7464863954892973 #
plane-surface $-1 0 0 11.267681048893856 0 0 1 1 0 0 forward_v I I I I #
coedge $-1 $683 $682 $675 $818 forward $490 $-1 #
coedge $-1 $675 $492 $494 $679 reversed $328 $-1 #
coedge $-1 $492 $674 $673 $818 reversed $328 $-1 #
coedge $-1 $500 $495 $492 $677 forward $501 $-1 #
edge $-1 $680 -33.226770376513372 $819 -30.849795406554982 $676 $820 forward 7 unknown #
coedge $-1 $494 $493 $683 $821 reversed $207 $-1 #
edge $-1 $822 -3.4120438039485133e-014 $680 3.8608474072404189 $674 $823 forward 7 unknown #
vertex $-1 $496 $824 #
straight-curve $-1 8.7775665088890662 -34.206535555903656 11.267681048893856 -1 0 0 I I #
coedge $-1 $673 $497 $500 $687 reversed $490 $-1 #
coedge $-1 $497 $673 $678 $821 forward $490 $-1 #
vertex $-1 $498 $825 #
straight-curve $-1 24.259127288923167 -36.583510525862046 42.506232012330315 0 0 1 I I #
straight-curve $-1 24.259127288923167 -36.583510525862025 8.2252917420847353 0 -0.61566146476048833 -0.78801076186113728 I I #
edge $-1 $819 10.851138746633099 $502 24.259127288923167 $682 $826 forward 7 unknown #
point $-1 24.259127288923167 -36.583510525862046 11.267681048893856 #
point $-1 24.259127288923167 -34.206535555903656 11.267681048893856 #
edge $-1 $827 1 $827 0 $505 $-1 forward 7 unknown #
vertex $-1 $506 $828 #
ellipse-curve $-1 13.532736455091111 -34.607012279021724 9.1308249307288083 0 -0.78801076186113728 0.61566146476048833 0.5 0 0 1 I I #
point $-1 14.032736455091111 -35.395023040882862 9.7464863954892973 #
edge $-1 $829 1 $829 0 $509 $-1 forward 7 unknown #
vertex $-1 $510 $830 #
ellipse-curve $-1 17.555133017778132 -34.607012279021724 9.1308249307288083 0 -0.78801076186113728 0.61566146476048833 0.5 0 0 1 I I #
point $-1 18.055133017778132 -35.395023040882862 9.7464863954892973 #
edge $-1 $831 1 $831 0 $513 $-1 forward 7 unknown #
vertex $-1 $514 $832 #
ellipse-curve $-1 21.577529580465153 -34.607012279021724 9.1308249307288083 0 -0.78801076186113728 0.61566146476048833 0.5 0 0 1 I I #
point $-1 22.077529580465153 -35.395023040882862 9.7464863954892973 #
plane-surface $-1 0 0 11.267681048893856 0 0 1 1 0 0 forward_v I I I I #
coedge $-1 $713 $712 $705 $833 forward $518 $-1 #
coedge $-1 $705 $520 $522 $709 reversed $357 $-1 #
coedge $-1 $520 $704 $703 $833 reversed $357 $-1 #
coedge $-1 $528 $523 $520 $707 forward $529 $-1 #
edge $-1 $710 -33.226770376513372 $834 -30.849795406554982 $706 $835 forward 7 unknown #
coedge $-1 $522 $521 $713 $836 reversed $226 $-1 #
edge $-1 $837 -3.4120438039485133e-014 $710 3.8608474072404189 $704 $838 forward 7 unknown #
vertex $-1 $524 $839 #
straight-curve $-1 22.969954432561977 -34.206535555903656 11.267681048893856 -1 0 0 I I #
coedge $-1 $703 $525 $528 $717 reversed $518 $-1 #
coedge $-1 $525 $703 $708 $836 forward $518 $-1 #
vertex $-1 $526 $840 #
straight-curve $-1 52.643903136268989 -36.583510525862046 42.506232012330315 0 0 1 I I #
straight-curve $-1 52.643903136268989 -36.583510525862025 8.2252917420847353 0 -0.61566146476048833 -0.78801076186113728 I I #
edge $-1 $834 39.235914593978919 $530 52.643903136268989 $712 $841 forward 7 unknown #
point $-1 52.643903136268989 -36.583510525862046 11.267681048893856 #
point $-1 52.643903136268989 -34.206535555903656 11.267681048893856 #
edge $-1 $842 1 $842 0 $533 $-1 forward 7 unknown #
vertex $-1 $534 $843 #
ellipse-curve $-1 41.917512302436933 -34.607012279021724 9.1308249307288083 0 -0.78801076186113728 0.61566146476048833 0.5 0 0 1 I I #
point $-1 42.417512302436933 -35.395023040882862 9.7464863954892973 #
edge $-1 $844 1 $844 0 $537 $-1 forward 7 unknown #
vertex $-1 $538 $845 #
ellipse-curve $-1 45.939908865123954 -34.607012279021724 9.1308249307288083 0 -0.78801076186113728 0.61566146476048833 0.5 0 0 1 I I #
point $-1 46.439908865123954 -35.395023040882862 9.7464863954892973 #
edge $-1 $846 1 $846 0 $541 $-1 forward 7 unknown #
vertex $-1 $542 $847 #
ellipse-curve $-1 49.962305427810975 -34.607012279021724 9.1308249307288083 0 -0.78801076186113728 0.61566146476048833 0.5 0 0 1 I I #
point $-1 50.462305427810975 -35.395023040882862 9.7464863954892973 #
loop $-1 $-1 $553 $545 #
plane-surface $-1 0 36.583510525862046 0 0 -1 0 0 0 -1 forward_v I I I I #
coedge $-1 $735 $548 $550 $739 reversed $386 $-1 #
coedge $-1 $548 $734 $848 $849 reversed $386 $-1 #
coedge $-1 $556 $551 $548 $737 forward $546 $-1 #
edge $-1 $740 -19.795263765664487 $850 -16.320602574067429 $736 $851 forward 7 unknown #
coedge $-1 $550 $549 $743 $852 reversed $245 $-1 #
edge $-1 $853 -73.167021051724049 $740 -66.420604720905601 $734 $854 forward 7 unknown #
vertex $-1 $552 $855 #
straight-curve $-1 -9.3225183444002937 33.108849334264988 11.267681048893856 1 0 0 I I #
coedge $-1 $848 $553 $556 $747 reversed $732 $-1 #
coedge $-1 $553 $848 $738 $852 forward $732 $-1 #
vertex $-1 $554 $856 #
straight-curve $-1 -26.4970001042952 36.583510525862046 66.219183576223401 0 0 1 I I #
straight-curve $-1 -26.4970001042952 -1.1002901894650563 68.201252028911924 0 0.51503806187062418 -0.85716730853699208 I I #
edge $-1 $850 10.793073273305975 $557 26.4970001042952 $742 $857 forward 7 unknown #
point $-1 -26.4970001042952 36.583510525862046 11.267681048893856 #
point $-1 -26.4970001042952 33.108849334264988 11.267681048893856 #
edge $-1 $858 1 $858 0 $560 $-1 forward 7 unknown #
vertex $-1 $561 $859 #
ellipse-curve $-1 -18.645036688800587 33.520522697865857 7.579742086905247 0 0.85716730853699208 0.51503806187062418 1.5 0 0 1 I I #
point $-1 -17.145036688800587 34.846179930063514 8.3762772846150089 #
plane-surface $-1 62.361522263252667 0 0 -1 0 0 0 0 1 forward_v I I I I #
coedge $-1 $569 $567 $571 $759 reversed $401 $-1 #
edge $-1 $582 -11.267681048893856 $761 11.267681048893856 $581 $860 forward 7 unknown #
vertex $-1 $759 $861 #
straight-curve $-1 -62.361522263252667 -36.583510525862046 0 0 0 -1 I I #
edge $-1 $757 -36.583510525862046 $761 36.583510525862046 $755 $862 forward 7 unknown #
straight-curve $-1 0 -36.583510525862046 -11.267681048893856 -1 0 0 I I #
vertex $-1 $574 $863 #
straight-curve $-1 0 36.583510525862046 -11.267681048893856 1 0 0 I I #
point $-1 62.361522263252667 36.583510525862046 -11.267681048893856 #
point $-1 62.361522263252667 -36.583510525862046 -11.267681048893856 #
straight-curve $-1 -62.361522263252667 0 11.267681048893856 0 -1 0 I I #
point $-1 -62.361522263252667 36.583510525862046 11.267681048893856 #
point $-1 -62.361522263252667 -36.583510525862046 11.267681048893856 #
straight-curve $-1 62.361522263252667 -36.583510525862046 0 0 0 -1 I I #
straight-curve $-1 62.361522263252667 36.583510525862046 0 0 0 -1 I I #
plane-surface $-1 0 -36.583510525862046 0 0 1 0 0 0 1 forward_v I I I I #
coedge $-1 $864 $594 $774 $865 reversed $420 $-1 #
coedge $-1 $594 $864 $608 $785 reversed $420 $-1 #
edge $-1 $777 -2.1586616957436195 $775 2.1586616957436195 $595 $866 forward 7 unknown #
coedge $-1 $596 $780 $771 $865 forward $592 $-1 #
vertex $-1 $597 $867 #
straight-curve $-1 0 36.583510525862046 -11.267681048893856 1 0 0 I I #
vertex $-1 $598 $868 #
straight-curve $-1 -67.953492831813691 36.583510525862046 -6.9503576574066166 -1 0 0 I I #
point $-1 -62.361522263252667 36.583510525862046 -11.267681048893856 #
coedge $-1 $774 $601 $604 $783 forward $592 $-1 #
straight-curve $-1 -62.361522263252667 0 -11.267681048893856 0 -1 0 I I #
coedge $-1 $604 $603 $864 $869 forward $605 $-1 #
edge $-1 $606 -5.5919705685610239 $870 5.5919705685610239 $604 $871 forward 7 unknown #
point $-1 -62.361522263252667 -36.583510525862046 -11.267681048893856 #
edge $-1 $777 -36.583510525862046 $786 36.583510525862046 $772 $872 forward 7 unknown #
vertex $-1 $785 $873 #
straight-curve $-1 -67.953492831813691 -36.583510525862046 -6.9503576574066166 1 0 0 I I #
edge $-1 $789 31.23855096343646 $792 34.280940270245608 $613 $874 forward 7 unknown #
vertex $-1 $627 $875 #
straight-curve $-1 -45.918412948058545 -67.433305932417028 11.267681048893856 0 -1 0 I I #
edge $-1 $792 -26.31120360960179 $624 -12.90321506731172 $623 $876 forward 7 unknown #
vertex $-1 $791 $877 #
straight-curve $-1 -45.918412948058545 -36.583510525862025 8.2252917420847353 0 0.61566146476048833 0.78801076186113728 I I #
point $-1 -45.918412948058545 -34.206535555903656 11.267681048893856 #
point $-1 -32.510424405768475 -36.583510525862046 8.2252917420847087 #
straight-curve $-1 0 -36.583510525862046 11.267681048893856 1 0 0 I I #
vertex $-1 $630 $878 #
point $-1 -42.736815239600531 -34.607012279021724 9.1308249307288083 #
vertex $-1 $634 $879 #
point $-1 -38.71441867691351 -34.607012279021724 9.1308249307288083 #
vertex $-1 $638 $880 #
point $-1 -34.692022114226489 -34.607012279021724 9.1308249307288083 #
edge $-1 $804 31.23855096343646 $807 34.280940270245608 $643 $881 forward 7 unknown #
vertex $-1 $657 $882 #
straight-curve $-1 -17.533637100712724 -67.433305932417028 11.267681048893856 0 -1 0 I I #
edge $-1 $807 -12.11881568592888 $654 1.2891728563611888 $653 $883 forward 7 unknown #
vertex $-1 $806 $884 #
straight-curve $-1 -17.533637100712724 -36.583510525862025 8.2252917420847353 0 0.61566146476048833 0.78801076186113728 I I #
point $-1 -17.533637100712724 -34.206535555903656 11.267681048893856 #
point $-1 -4.1256485584226557 -36.583510525862046 8.2252917420847087 #
straight-curve $-1 0 -36.583510525862046 11.267681048893856 1 0 0 I I #
vertex $-1 $660 $885 #
point $-1 -14.35203939225471 -34.607012279021724 9.1308249307288083 #
vertex $-1 $664 $886 #
point $-1 -10.329642829567689 -34.607012279021724 9.1308249307288083 #
vertex $-1 $668 $887 #
point $-1 -6.3072462668806679 -34.607012279021724 9.1308249307288083 #
edge $-1 $819 31.23855096343646 $822 34.280940270245608 $673 $888 forward 7 unknown #
vertex $-1 $687 $889 #
straight-curve $-1 10.851138746633099 -67.433305932417028 11.267681048893856 0 -1 0 I I #
edge $-1 $822 2.0735722377440329 $684 15.481560780034101 $683 $890 forward 7 unknown #
vertex $-1 $821 $891 #
straight-curve $-1 10.851138746633099 -36.583510525862025 8.2252917420847353 0 0.61566146476048833 0.78801076186113728 I I #
point $-1 10.851138746633099 -34.206535555903656 11.267681048893856 #
point $-1 24.259127288923167 -36.583510525862046 8.2252917420847087 #
straight-curve $-1 0 -36.583510525862046 11.267681048893856 1 0 0 I I #
vertex $-1 $690 $892 #
point $-1 14.032736455091111 -34.607012279021724 9.1308249307288083 #
vertex $-1 $694 $893 #
point $-1 18.055133017778132 -34.607012279021724 9.1308249307288083 #
vertex $-1 $698 $894 #
point $-1 22.077529580465153 -34.607012279021724 9.1308249307288083 #
edge $-1 $834 31.23855096343646 $837 34.280940270245608 $703 $895 forward 7 unknown #
vertex $-1 $717 $896 #
straight-curve $-1 39.235914593978919 -67.433305932417028 11.267681048893856 0 -1 0 I I #
edge $-1 $837 16.265960161416942 $714 29.673948703707012 $713 $897 forward 7 unknown #
vertex $-1 $836 $898 #
straight-curve $-1 39.235914593978919 -36.583510525862025 8.2252917420847353 0 0.61566146476048833 0.78801076186113728 I I #
point $-1 39.235914593978919 -34.206535555903656 11.267681048893856 #
point $-1 52.643903136268989 -36.583510525862046 8.2252917420847087 #
straight-curve $-1 0 -36.583510525862046 11.267681048893856 1 0 0 I I #
vertex $-1 $720 $899 #
point $-1 42.417512302436933 -34.607012279021724 9.1308249307288083 #
vertex $-1 $724 $900 #
point $-1 46.439908865123954 -34.607012279021724 9.1308249307288083 #
vertex $-1 $728 $901 #
point $-1 50.462305427810975 -34.607012279021724 9.1308249307288083 #
coedge $-1 $743 $742 $735 $849 forward $732 $-1 #
edge $-1 $850 54.951502527329545 $853 60.734310055887207 $848 $902 forward 7 unknown #
vertex $-1 $747 $903 #
straight-curve $-1 -10.793073273305975 52.904113099929475 11.267681048893856 0 1 0 I I #
edge $-1 $853 1.4705549289056812 $744 17.174481759894906 $743 $904 forward 7 unknown #
vertex $-1 $852 $905 #
straight-curve $-1 -10.793073273305975 -1.1002901894650563 68.201252028911924 0 -0.51503806187062418 0.85716730853699208 I I #
point $-1 -10.793073273305975 33.108849334264988 11.267681048893856 #
point $-1 -26.4970001042952 36.583510525862053 5.484873520336194 #
straight-curve $-1 0 36.583510525862046 11.267681048893856 -1 0 0 I I #
vertex $-1 $750 $906 #
point $-1 -17.145036688800587 33.520522697865857 7.579742086905247 #
straight-curve $-1 -62.361522263252667 36.583510525862046 0 0 0 -1 I I #
point $-1 -62.361522263252667 -36.583510525862046 -11.267681048893856 #
straight-curve $-1 -62.361522263252667 0 -11.267681048893856 0 1 0 I I #
point $-1 -62.361522263252667 36.583510525862046 -11.267681048893856 #
coedge $-1 $772 $771 $782 $869 reversed $420 $-1 #
edge $-1 $870 -36.583510525862046 $775 36.583510525862046 $771 $907 forward 7 unknown #
straight-curve $-1 -73.545463400374715 36.583510525862046 -9.1090193531502361 0 0 -1 I I #
point $-1 -73.545463400374715 36.583510525862046 -11.267681048893856 #
point $-1 -73.545463400374715 36.583510525862046 -6.9503576574066166 #
edge $-1 $786 -2.1586616957436195 $870 2.1586616957436195 $864 $908 forward 7 unknown #
vertex $-1 $865 $909 #
straight-curve $-1 -67.953492831813691 -36.583510525862046 -11.267681048893856 -1 0 0 I I #
straight-curve $-1 -73.545463400374715 0 -6.9503576574066166 0 -1 0 I I #
point $-1 -73.545463400374715 -36.583510525862046 -6.9503576574066166 #
straight-curve $-1 -45.918412948058545 -36.583510525862046 42.506232012330315 0 0 -1 I I #
point $-1 -45.918412948058545 -36.583510525862046 11.267681048893856 #
straight-curve $-1 -19.607209338456755 -36.583510525862046 8.2252917420847105 1 0 0 I I #
point $-1 -45.918412948058545 -36.583510525862046 8.2252917420847087 #
point $-1 -43.236815239600531 -34.213006898091159 8.8229941983485656 #
point $-1 -39.21441867691351 -34.213006898091159 8.8229941983485656 #
point $-1 -35.192022114226489 -34.213006898091159 8.8229941983485656 #
straight-curve $-1 -17.533637100712724 -36.583510525862046 42.506232012330315 0 0 -1 I I #
point $-1 -17.533637100712724 -36.583510525862046 11.267681048893856 #
straight-curve $-1 -5.4148214147838445 -36.583510525862046 8.2252917420847105 1 0 0 I I #
point $-1 -17.533637100712724 -36.583510525862046 8.2252917420847087 #
point $-1 -14.85203939225471 -34.213006898091159 8.8229941983485656 #
point $-1 -10.829642829567689 -34.213006898091159 8.8229941983485656 #
point $-1 -6.8072462668806679 -34.213006898091159 8.8229941983485656 #
straight-curve $-1 10.851138746633099 -36.583510525862046 42.506232012330315 0 0 -1 I I #
point $-1 10.851138746633099 -36.583510525862046 11.267681048893856 #
straight-curve $-1 8.7775665088890662 -36.583510525862046 8.2252917420847105 1 0 0 I I #
point $-1 10.851138746633099 -36.583510525862046 8.2252917420847087 #
point $-1 13.532736455091111 -34.213006898091159 8.8229941983485656 #
point $-1 17.555133017778132 -34.213006898091159 8.8229941983485656 #
point $-1 21.577529580465153 -34.213006898091159 8.8229941983485656 #
straight-curve $-1 39.235914593978919 -36.583510525862046 42.506232012330315 0 0 -1 I I #
point $-1 39.235914593978919 -36.583510525862046 11.267681048893856 #
straight-curve $-1 22.969954432561977 -36.583510525862046 8.2252917420847105 1 0 0 I I #
point $-1 39.235914593978919 -36.583510525862046 8.2252917420847087 #
point $-1 41.917512302436933 -34.213006898091159 8.8229941983485656 #
point $-1 45.939908865123954 -34.213006898091159 8.8229941983485656 #
point $-1 49.962305427810975 -34.213006898091159 8.8229941983485656 #
straight-curve $-1 -10.793073273305975 36.583510525862046 66.219183576223401 0 0 -1 I I #
point $-1 -10.793073273305975 36.583510525862046 11.267681048893856 #
straight-curve $-1 -9.3225183444002937 36.583510525862053 5.4848735203361976 -1 0 0 I I #
point $-1 -10.793073273305975 36.583510525862053 5.484873520336194 #
point $-1 -18.645036688800587 32.234771735060363 6.8071849940993108 #
straight-curve $-1 -73.545463400374715 0 -11.267681048893856 0 1 0 I I #
straight-curve $-1 -73.545463400374715 -36.583510525862046 -9.1090193531502361 0 0 -1 I I #
point $-1 -73.545463400374715 -36.583510525862046 -11.267681048893856 #
End-of-ACIS-data 