500 0 13 0           
7 Unknown 11 ACIS 5.0 NT 24 Thu Mar 25 16:05:35 1999 
-1 9.9999999999999995e-007 1e-010 
body $-1 $13 $-1 $14 #
body $-1 $15 $-1 $16 #
body $-1 $17 $-1 $18 #
body $-1 $19 $-1 $20 #
body $-1 $21 $-1 $22 #
body $-1 $23 $-1 $24 #
body $-1 $25 $-1 $26 #
body $-1 $27 $-1 $28 #
body $-1 $29 $-1 $30 #
body $-1 $31 $-1 $32 #
body $-1 $33 $-1 $34 #
body $-1 $35 $-1 $36 #
body $-1 $37 $-1 $38 #
lump $-1 $-1 $39 $0 #
transform $-1 1 0 0 0 1 0 0 0 1 71.811273537400439 49.803716308016561 12.495539174774466 1 rotate no_reflect no_shear #
lump $-1 $-1 $40 $1 #
transform $-1 1 0 0 0 1 0 0 0 1 71.811273537400439 49.803716308016561 12.495539174774466 1 rotate no_reflect no_shear #
lump $-1 $-1 $41 $2 #
transform $-1 1 0 0 0 1 0 0 0 1 71.811273537400439 49.803716308016561 12.495539174774466 1 rotate no_reflect no_shear #
lump $-1 $-1 $42 $3 #
transform $-1 1 0 0 0 1 0 0 0 1 71.811273537400439 49.803716308016561 12.495539174774466 1 rotate no_reflect no_shear #
lump $-1 $-1 $43 $4 #
transform $-1 1 0 0 0 1 0 0 0 1 71.811273537400439 49.803716308016561 12.495539174774466 1 rotate no_reflect no_shear #
lump $-1 $-1 $44 $5 #
transform $-1 1 0 0 0 1 0 0 0 1 71.811273537400439 49.803716308016561 12.495539174774466 1 rotate no_reflect no_shear #
lump $-1 $-1 $45 $6 #
transform $-1 1 0 0 0 1 0 0 0 1 71.811273537400439 49.803716308016561 12.495539174774466 1 rotate no_reflect no_shear #
lump $-1 $-1 $46 $7 #
transform $-1 1 0 0 0 1 0 0 0 1 71.811273537400439 49.803716308016561 12.495539174774466 1 rotate no_reflect no_shear #
lump $-1 $-1 $47 $8 #
transform $-1 1 0 0 0 1 0 0 0 1 71.811273537400439 49.803716308016561 12.495539174774466 1 rotate no_reflect no_shear #
lump $-1 $-1 $48 $9 #
transform $-1 1 0 0 0 1 0 0 0 1 71.811273537400439 49.803716308016561 12.495539174774466 1 rotate no_reflect no_shear #
lump $-1 $-1 $49 $10 #
transform $-1 1 0 0 0 1 0 0 0 1 71.811273537400439 49.803716308016561 12.495539174774466 1 rotate no_reflect no_shear #
lump $-1 $-1 $50 $11 #
transform $-1 1 0 0 0 1 0 0 0 1 71.811273537400439 49.803716308016561 12.495539174774466 1 rotate no_reflect no_shear #
lump $-1 $-1 $51 $12 #
transform $-1 1 0 0 0 1 0 0 0 1 71.811273537400439 49.803716308016561 12.495539174774466 1 rotate no_reflect no_shear #
shell $-1 $-1 $-1 $52 $-1 $13 #
shell $-1 $-1 $-1 $53 $-1 $15 #
shell $-1 $-1 $-1 $54 $-1 $17 #
shell $-1 $-1 $-1 $55 $-1 $19 #
shell $-1 $-1 $-1 $56 $-1 $21 #
shell $-1 $-1 $-1 $57 $-1 $23 #
shell $-1 $-1 $-1 $58 $-1 $25 #
shell $-1 $-1 $-1 $59 $-1 $27 #
shell $-1 $-1 $-1 $60 $-1 $29 #
shell $-1 $-1 $-1 $61 $-1 $31 #
shell $-1 $-1 $-1 $62 $-1 $33 #
shell $-1 $-1 $-1 $63 $-1 $35 #
shell $-1 $-1 $-1 $64 $-1 $37 #
face $-1 $65 $66 $39 $-1 $67 forward single #
face $-1 $68 $69 $40 $-1 $70 forward single #
face $-1 $71 $72 $41 $-1 $73 reversed single #
face $-1 $74 $75 $42 $-1 $76 forward single #
face $-1 $77 $78 $43 $-1 $79 forward single #
face $-1 $80 $81 $44 $-1 $82 forward single #
face $-1 $83 $84 $45 $-1 $85 reversed single #
face $-1 $86 $87 $46 $-1 $88 forward single #
face $-1 $89 $90 $47 $-1 $91 forward single #
face $-1 $92 $93 $48 $-1 $94 forward single #
face $-1 $95 $96 $49 $-1 $97 reversed single #
face $-1 $98 $99 $50 $-1 $100 forward single #
face $-1 $101 $102 $51 $-1 $103 forward single #
face $-1 $104 $105 $39 $-1 $106 reversed single #
loop $-1 $-1 $107 $52 #
plane-surface $-1 0 0 12.495539174774466 0 0 1 1 0 0 forward_v I I I I #
face $-1 $108 $109 $40 $-1 $110 reversed single #
loop $-1 $-1 $111 $53 #
plane-surface $-1 -71.811273537400439 0 0 1 0 0 0 0 -1 forward_v I I I I #
face $-1 $112 $113 $41 $-1 $114 reversed single #
loop $-1 $-1 $115 $54 #
plane-surface $-1 -15.928743419970719 83.923995851384092 179.73628988420933 1 0 0 0 -0.71933980857756763 -0.69465836192734942 forward_v I I I I #
face $-1 $116 $117 $42 $-1 $118 forward single #
loop $-1 $119 $120 $55 #
cone-surface $-1 -11.886274455632638 47.333152408359965 9.968801612793305 0 -0.71933980857756763 -0.69465836192734942 0.5 0 0 1 I I 0 1 0.5 forward I I I I #
face $-1 $121 $122 $43 $-1 $123 forward single #
loop $-1 $124 $125 $56 #
cone-surface $-1 -5.822571009125511 47.333152408359965 9.968801612793305 0 -0.71933980857756763 -0.69465836192734942 0.5 0 0 1 I I 0 1 0.5 forward I I I I #
face $-1 $126 $127 $44 $-1 $128 forward single #
loop $-1 $129 $130 $57 #
cone-surface $-1 0.24113243738160861 47.333152408359965 9.968801612793305 0 -0.71933980857756763 -0.69465836192734942 0.5 0 0 1 I I 0 1 0.5 forward I I I I #
face $-1 $131 $132 $45 $-1 $133 reversed single #
loop $-1 $-1 $134 $58 #
plane-surface $-1 -5.822571009125511 -19.389419668825866 79.967686597394518 0 0.71933980857756763 0.69465836192734942 1 0 0 forward_v I I I I #
face $-1 $135 $136 $46 $-1 $137 forward single #
loop $-1 $138 $139 $59 #
cone-surface $-1 8.3260703660577633 47.333152408359965 9.968801612793305 0 -0.71933980857756763 -0.69465836192734942 0.5 0 0 1 I I 0 1 0.5 forward I I I I #
face $-1 $140 $141 $47 $-1 $142 forward single #
loop $-1 $143 $144 $60 #
cone-surface $-1 14.389773812564897 47.333152408359965 9.968801612793305 0 -0.71933980857756763 -0.69465836192734942 0.5 0 0 1 I I 0 1 0.5 forward I I I I #
face $-1 $145 $146 $48 $-1 $147 forward single #
loop $-1 $148 $149 $61 #
cone-surface $-1 20.453477259072017 47.333152408359965 9.968801612793305 0 -0.71933980857756763 -0.69465836192734942 0.5 0 0 1 I I 0 1 0.5 forward I I I I #
face $-1 $150 $151 $49 $-1 $152 reversed single #
loop $-1 $-1 $153 $62 #
plane-surface $-1 28.276201945360022 -142.12251117401121 110.76079646135778 -1 0 0 0 -0.64278761758704617 0.76604443648966558 forward_v I I I I #
face $-1 $154 $155 $50 $-1 $156 forward single #
loop $-1 $157 $158 $63 #
cone-surface $-1 9.1236019393142413 -41.322300376253111 4.8581662631447298 0 0.64278761758704617 -0.76604443648966558 2 0 0 1 I I 0 1 2 forward I I I I #
face $-1 $159 $160 $51 $-1 $161 forward single #
loop $-1 $162 $163 $64 #
cone-surface $-1 20.615161942941697 -41.322300376253111 4.8581662631447298 0 0.64278761758704617 -0.76604443648966558 2 0 0 1 I I 0 1 2 forward I I I I #
face $-1 $164 $165 $39 $-1 $166 reversed single #
loop $-1 $-1 $167 $65 #
plane-surface $-1 0 0 -12.495539174774466 0 0 1 1 0 0 forward_v I I I I #
coedge $-1 $168 $169 $170 $171 forward $66 $-1 #
face $-1 $172 $173 $40 $-1 $174 reversed single #
loop $-1 $-1 $175 $68 #
plane-surface $-1 0 49.803716308016561 0 0 -1 0 0 0 -1 forward_v I I I I #
coedge $-1 $176 $177 $178 $179 forward $69 $-1 #
face $-1 $180 $181 $41 $-1 $182 reversed single #
loop $-1 $-1 $183 $71 #
plane-surface $-1 -5.822571009125511 -19.389419668825866 79.967686597394518 0 0.71933980857756763 0.69465836192734942 1 0 0 forward_v I I I I #
coedge $-1 $184 $185 $186 $187 reversed $72 $-1 #
face $-1 $-1 $188 $42 $-1 $189 forward single #
loop $-1 $190 $191 $74 #
cone-surface $-1 -11.886274455632638 46.700774629163419 9.3581215044804065 0 -0.71933980857756763 -0.69465836192734942 0.25 0 0 1 I I -0.70710678118654746 0.70710678118654746 0.25 forward I I I I #
loop $-1 $-1 $192 $55 #
coedge $-1 $120 $120 $193 $194 reversed $75 $-1 #
face $-1 $-1 $195 $43 $-1 $196 forward single #
loop $-1 $197 $198 $77 #
cone-surface $-1 -5.822571009125511 46.700774629163419 9.3581215044804065 0 -0.71933980857756763 -0.69465836192734942 0.25 0 0 1 I I -0.70710678118654746 0.70710678118654746 0.25 forward I I I I #
loop $-1 $-1 $199 $56 #
coedge $-1 $125 $125 $200 $201 reversed $78 $-1 #
face $-1 $-1 $202 $44 $-1 $203 forward single #
loop $-1 $204 $205 $80 #
cone-surface $-1 0.24113243738160861 46.700774629163419 9.3581215044804065 0 -0.71933980857756763 -0.69465836192734942 0.25 0 0 1 I I -0.70710678118654746 0.70710678118654746 0.25 forward I I I I #
loop $-1 $-1 $206 $57 #
coedge $-1 $130 $130 $207 $208 reversed $81 $-1 #
face $-1 $209 $210 $45 $-1 $211 forward single #
loop $-1 $-1 $212 $83 #
plane-surface $-1 24.495946223410105 83.923995851384092 179.73628988420933 -1 0 0 0 0.71933980857756763 0.69465836192734942 forward_v I I I I #
coedge $-1 $213 $214 $215 $216 reversed $84 $-1 #
face $-1 $-1 $217 $46 $-1 $218 forward single #
loop $-1 $219 $220 $86 #
cone-surface $-1 8.3260703660577633 46.700774629163419 9.3581215044804065 0 -0.71933980857756763 -0.69465836192734942 0.25 0 0 1 I I -0.70710678118654746 0.70710678118654746 0.25 forward I I I I #
loop $-1 $-1 $221 $59 #
coedge $-1 $139 $139 $222 $223 reversed $87 $-1 #
face $-1 $-1 $224 $47 $-1 $225 forward single #
loop $-1 $226 $227 $89 #
cone-surface $-1 14.389773812564897 46.700774629163419 9.3581215044804065 0 -0.71933980857756763 -0.69465836192734942 0.25 0 0 1 I I -0.70710678118654746 0.70710678118654746 0.25 forward I I I I #
loop $-1 $-1 $228 $60 #
coedge $-1 $144 $144 $229 $230 reversed $90 $-1 #
face $-1 $-1 $231 $48 $-1 $232 forward single #
loop $-1 $233 $234 $92 #
cone-surface $-1 20.453477259072017 46.700774629163419 9.3581215044804065 0 -0.71933980857756763 -0.69465836192734942 0.25 0 0 1 I I -0.70710678118654746 0.70710678118654746 0.25 forward I I I I #
loop $-1 $-1 $235 $61 #
coedge $-1 $149 $149 $236 $237 reversed $93 $-1 #
face $-1 $238 $239 $49 $-1 $240 reversed single #
loop $-1 $-1 $241 $95 #
plane-surface $-1 14.869381941127983 -49.803716308016561 0.73954332023147629 0 -0.64278761758704617 0.76604443648966558 1 0 0 forward_v I I I I #
coedge $-1 $242 $243 $244 $245 reversed $96 $-1 #
face $-1 $-1 $246 $50 $-1 $247 forward single #
loop $-1 $248 $249 $98 #
cone-surface $-1 9.1236019393142413 -39.203221827267683 2.3327468422968298 0 0.64278761758704617 -0.76604443648966558 1 0 0 1 I I -0.70710678118654768 0.70710678118654735 1 forward I I I I #
loop $-1 $-1 $250 $63 #
coedge $-1 $158 $158 $251 $252 reversed $99 $-1 #
face $-1 $-1 $253 $51 $-1 $254 forward single #
loop $-1 $255 $256 $101 #
cone-surface $-1 20.615161942941697 -39.203221827267683 2.3327468422968298 0 0.64278761758704617 -0.76604443648966558 1 0 0 1 I I -0.70710678118654768 0.70710678118654735 1 forward I I I I #
loop $-1 $-1 $257 $64 #
coedge $-1 $163 $163 $258 $259 reversed $102 $-1 #
face $-1 $260 $261 $39 $-1 $262 reversed single #
loop $-1 $-1 $263 $104 #
plane-surface $-1 0 -49.803716308016561 0 0 1 0 0 0 1 forward_v I I I I #
coedge $-1 $264 $265 $266 $267 forward $105 $-1 #
coedge $-1 $268 $107 $269 $270 forward $66 $-1 #
coedge $-1 $107 $268 $271 $272 forward $66 $-1 #
coedge $-1 $273 $274 $107 $171 reversed $275 $-1 #
edge $-1 $276 -49.803716308016561 $277 49.803716308016561 $170 $278 forward 7 unknown #
face $-1 $279 $280 $40 $-1 $281 reversed single #
loop $-1 $-1 $178 $108 #
plane-surface $-1 -76.094874939120118 0 8.3375795862178101 0 0 1 1 0 0 forward_v I I I I #
coedge $-1 $282 $283 $176 $284 forward $109 $-1 #
coedge $-1 $285 $111 $175 $284 reversed $69 $-1 #
coedge $-1 $111 $285 $286 $287 reversed $69 $-1 #
coedge $-1 $288 $289 $111 $179 reversed $173 $-1 #
edge $-1 $290 -49.803716308016561 $291 49.803716308016561 $178 $292 forward 7 unknown #
face $-1 $293 $294 $41 $-1 $295 forward single #
loop $-1 $-1 $296 $112 #
plane-surface $-1 4.2836014017196966 83.923995851384092 179.73628988420933 -1 0 0 0 0.71933980857756763 0.69465836192734942 forward_v I I I I #
coedge $-1 $297 $298 $299 $300 reversed $113 $-1 #
coedge $-1 $185 $115 $301 $302 reversed $72 $-1 #
coedge $-1 $115 $184 $297 $303 reversed $72 $-1 #
coedge $-1 $299 $304 $115 $187 forward $294 $-1 #
edge $-1 $305 -7.8417183823245153 $306 -3.8056762371156196 $186 $307 forward 7 unknown #
loop $-1 $-1 $193 $116 #
plane-surface $-1 -5.822571009125511 -19.389419668825866 79.967686597394518 0 0.71933980857756763 0.69465836192734942 1 0 0 forward_v I I I I #
loop $-1 $-1 $308 $74 #
coedge $-1 $191 $191 $192 $309 reversed $117 $-1 #
coedge $-1 $192 $192 $191 $309 forward $119 $-1 #
coedge $-1 $193 $193 $120 $194 forward $188 $-1 #
edge $-1 $310 -2.5556083776392588e-015 $310 6.2831853071795978 $193 $311 forward 7 unknown #
loop $-1 $-1 $200 $121 #
plane-surface $-1 -5.822571009125511 -19.389419668825866 79.967686597394518 0 0.71933980857756763 0.69465836192734942 1 0 0 forward_v I I I I #
loop $-1 $-1 $312 $77 #
coedge $-1 $198 $198 $199 $313 reversed $122 $-1 #
coedge $-1 $199 $199 $198 $313 forward $124 $-1 #
coedge $-1 $200 $200 $125 $201 forward $195 $-1 #
edge $-1 $314 -2.5556083776392588e-015 $314 6.2831853071795978 $200 $315 forward 7 unknown #
loop $-1 $-1 $207 $126 #
plane-surface $-1 -5.822571009125511 -19.389419668825866 79.967686597394518 0 0.71933980857756763 0.69465836192734942 1 0 0 forward_v I I I I #
loop $-1 $-1 $316 $80 #
coedge $-1 $205 $205 $206 $317 reversed $127 $-1 #
coedge $-1 $206 $206 $205 $317 forward $129 $-1 #
coedge $-1 $207 $207 $130 $208 forward $202 $-1 #
edge $-1 $318 -2.5556083776392588e-015 $318 6.2831853071795978 $207 $319 forward 7 unknown #
face $-1 $320 $321 $45 $-1 $322 forward single #
loop $-1 $-1 $323 $131 #
plane-surface $-1 0 0 12.495539174774466 0 0 1 1 0 0 forward_v I I I I #
coedge $-1 $324 $325 $326 $327 reversed $132 $-1 #
coedge $-1 $328 $134 $329 $330 reversed $84 $-1 #
coedge $-1 $134 $328 $323 $331 reversed $84 $-1 #
coedge $-1 $332 $333 $134 $216 forward $321 $-1 #
edge $-1 $334 -99.607432616033151 $335 -93.797321680334079 $215 $336 forward 7 unknown #
loop $-1 $-1 $222 $135 #
plane-surface $-1 -5.822571009125511 -19.389419668825866 79.967686597394518 0 0.71933980857756763 0.69465836192734942 1 0 0 forward_v I I I I #
loop $-1 $-1 $337 $86 #
coedge $-1 $220 $220 $221 $338 reversed $136 $-1 #
coedge $-1 $221 $221 $220 $338 forward $138 $-1 #
coedge $-1 $222 $222 $139 $223 forward $217 $-1 #
edge $-1 $339 -2.5556083776392588e-015 $339 6.2831853071795978 $222 $340 forward 7 unknown #
loop $-1 $-1 $229 $140 #
plane-surface $-1 -5.822571009125511 -19.389419668825866 79.967686597394518 0 0.71933980857756763 0.69465836192734942 1 0 0 forward_v I I I I #
loop $-1 $-1 $341 $89 #
coedge $-1 $227 $227 $228 $342 reversed $141 $-1 #
coedge $-1 $228 $228 $227 $342 forward $143 $-1 #
coedge $-1 $229 $229 $144 $230 forward $224 $-1 #
edge $-1 $343 -2.5556083776392588e-015 $343 6.2831853071795978 $229 $344 forward 7 unknown #
loop $-1 $-1 $236 $145 #
plane-surface $-1 -5.822571009125511 -19.389419668825866 79.967686597394518 0 0.71933980857756763 0.69465836192734942 1 0 0 forward_v I I I I #
loop $-1 $-1 $345 $92 #
coedge $-1 $234 $234 $235 $346 reversed $146 $-1 #
coedge $-1 $235 $235 $234 $346 forward $148 $-1 #
coedge $-1 $236 $236 $149 $237 forward $231 $-1 #
edge $-1 $347 -2.5556083776392588e-015 $347 6.2831853071795978 $236 $348 forward 7 unknown #
face $-1 $349 $350 $49 $-1 $351 reversed single #
loop $-1 $-1 $352 $150 #
plane-surface $-1 1.4625619368959448 -142.12251117401121 110.76079646135778 1 0 0 0 0.64278761758704617 -0.76604443648966558 forward_v I I I I #
coedge $-1 $353 $354 $355 $356 reversed $151 $-1 #
coedge $-1 $243 $153 $357 $358 reversed $96 $-1 #
coedge $-1 $153 $242 $353 $359 reversed $96 $-1 #
coedge $-1 $355 $360 $153 $245 forward $361 $-1 #
edge $-1 $362 21.257539278989043 $363 35.267789279719167 $244 $364 forward 7 unknown #
loop $-1 $-1 $251 $154 #
plane-surface $-1 14.869381941127983 -49.803716308016561 0.73954332023147629 0 -0.64278761758704617 0.76604443648966558 1 0 0 forward_v I I I I #
loop $-1 $-1 $365 $98 #
coedge $-1 $249 $249 $250 $366 reversed $155 $-1 #
coedge $-1 $250 $250 $249 $366 forward $157 $-1 #
coedge $-1 $251 $251 $158 $252 forward $246 $-1 #
edge $-1 $367 4.3789618652077234e-016 $367 6.2831853071796004 $251 $368 forward 7 unknown #
loop $-1 $-1 $258 $159 #
plane-surface $-1 14.869381941127983 -49.803716308016561 0.73954332023147629 0 -0.64278761758704617 0.76604443648966558 1 0 0 forward_v I I I I #
loop $-1 $-1 $369 $101 #
coedge $-1 $256 $256 $257 $370 reversed $160 $-1 #
coedge $-1 $257 $257 $256 $370 forward $162 $-1 #
coedge $-1 $258 $258 $163 $259 forward $253 $-1 #
edge $-1 $371 4.3789618652077234e-016 $371 6.2831853071796004 $258 $372 forward 7 unknown #
face $-1 $373 $374 $39 $-1 $375 reversed single #
loop $-1 $-1 $376 $164 #
plane-surface $-1 -71.811273537400439 0 0 1 0 0 0 0 -1 forward_v I I I I #
coedge $-1 $377 $271 $378 $379 forward $165 $-1 #
coedge $-1 $380 $167 $377 $381 forward $105 $-1 #
coedge $-1 $167 $380 $382 $383 forward $105 $-1 #
coedge $-1 $274 $273 $167 $267 reversed $275 $-1 #
edge $-1 $384 -49.803716308016561 $385 49.803716308016561 $266 $386 forward 7 unknown #
coedge $-1 $169 $168 $387 $388 forward $66 $-1 #
coedge $-1 $389 $390 $168 $270 reversed $374 $-1 #
edge $-1 $277 -71.811273537400439 $391 71.811273537400439 $269 $392 forward 7 unknown #
coedge $-1 $263 $393 $169 $272 reversed $165 $-1 #
edge $-1 $394 -71.811273537400439 $276 71.811273537400439 $271 $395 forward 7 unknown #
coedge $-1 $266 $170 $393 $396 forward $275 $-1 #
coedge $-1 $170 $266 $389 $397 reversed $275 $-1 #
loop $-1 $-1 $273 $373 #
vertex $-1 $171 $398 #
vertex $-1 $171 $399 #
straight-curve $-1 71.811273537400439 0 12.495539174774466 0 1 0 I I #
face $-1 $400 $401 $40 $-1 $402 forward single #
loop $-1 $-1 $403 $172 #
plane-surface $-1 -80.378476340839796 0 10.416559380496137 1 0 0 0 0 -1 forward_v I I I I #
coedge $-1 $404 $175 $289 $405 reversed $109 $-1 #
coedge $-1 $175 $404 $406 $407 reversed $109 $-1 #
edge $-1 $408 -12.495539174774466 $291 -8.3375795862178101 $175 $409 forward 7 unknown #
coedge $-1 $177 $176 $410 $411 reversed $69 $-1 #
coedge $-1 $412 $413 $177 $287 forward $414 $-1 #
edge $-1 $290 8.3375795862178101 $415 12.495539174774466 $286 $416 forward 7 unknown #
coedge $-1 $417 $178 $413 $418 forward $173 $-1 #
coedge $-1 $178 $417 $282 $405 forward $173 $-1 #
vertex $-1 $287 $419 #
vertex $-1 $284 $420 #
straight-curve $-1 -71.811273537400439 0 8.3375795862178101 0 1 0 I I #
face $-1 $-1 $421 $41 $-1 $422 reversed single #
loop $-1 $-1 $186 $180 #
plane-surface $-1 0 0 12.495539174774466 0 0 1 1 0 0 forward_v I I I I #
coedge $-1 $423 $424 $425 $426 reversed $181 $-1 #
coedge $-1 $427 $183 $185 $303 forward $113 $-1 #
coedge $-1 $183 $427 $423 $428 forward $113 $-1 #
coedge $-1 $425 $186 $183 $300 forward $294 $-1 #
edge $-1 $306 -13.017457915407963 $429 7.1948869062824521 $299 $430 forward 7 unknown #
coedge $-1 $431 $432 $184 $302 forward $421 $-1 #
edge $-1 $433 -81.552049855630401 $305 -77.372605767330199 $301 $434 forward 7 unknown #
edge $-1 $306 93.797321680334079 $433 99.607432616033151 $185 $435 forward 7 unknown #
coedge $-1 $186 $425 $431 $436 forward $294 $-1 #
vertex $-1 $302 $437 #
vertex $-1 $187 $438 #
straight-curve $-1 -15.928743419970719 41.961997925692046 12.495539174774464 0 -1 0 I I #
coedge $-1 $308 $308 $-1 $439 reversed $190 $-1 #
edge $-1 $440 0 $440 6.2831853071796004 $191 $441 forward 7 unknown #
vertex $-1 $194 $442 #
ellipse-curve $-1 -11.886274455632638 47.78569523541212 10.405817130624364 0 0.71933980857756763 0.69465836192734942 0.5 0 0 1 I I #
coedge $-1 $312 $312 $-1 $443 reversed $197 $-1 #
edge $-1 $444 0 $444 6.2831853071796004 $198 $445 forward 7 unknown #
vertex $-1 $201 $446 #
ellipse-curve $-1 -5.822571009125511 47.78569523541212 10.405817130624364 0 0.71933980857756763 0.69465836192734942 0.5 0 0 1 I I #
coedge $-1 $316 $316 $-1 $447 reversed $204 $-1 #
edge $-1 $448 0 $448 6.2831853071796004 $205 $449 forward 7 unknown #
vertex $-1 $208 $450 #
ellipse-curve $-1 0.24113243738160861 47.78569523541212 10.405817130624364 0 0.71933980857756763 0.69465836192734942 0.5 0 0 1 I I #
face $-1 $-1 $451 $45 $-1 $452 reversed single #
loop $-1 $-1 $332 $209 #
plane-surface $-1 4.2836014017196966 83.923995851384092 179.73628988420933 -1 0 0 0 0.71933980857756763 0.69465836192734942 forward_v I I I I #
coedge $-1 $326 $453 $214 $331 forward $210 $-1 #
coedge $-1 $325 $212 $328 $454 reversed $132 $-1 #
coedge $-1 $212 $324 $455 $456 reversed $132 $-1 #
coedge $-1 $457 $323 $212 $327 forward $210 $-1 #
edge $-1 $458 3.8056762371156196 $459 7.8417183823245153 $326 $460 forward 7 unknown #
coedge $-1 $214 $213 $324 $454 forward $84 $-1 #
coedge $-1 $461 $455 $213 $330 forward $451 $-1 #
edge $-1 $462 -27.40723172797286 $334 -7.1948869062824521 $329 $463 forward 7 unknown #
edge $-1 $335 7.1948869062824521 $458 27.40723172797286 $323 $464 forward 7 unknown #
coedge $-1 $333 $215 $453 $465 reversed $321 $-1 #
coedge $-1 $215 $332 $461 $466 reversed $321 $-1 #
vertex $-1 $330 $467 #
vertex $-1 $331 $468 #
straight-curve $-1 4.2836014017196966 -19.389419668825866 79.967686597394518 0 -0.69465836192734942 0.71933980857756763 I I #
coedge $-1 $337 $337 $-1 $469 reversed $219 $-1 #
edge $-1 $470 0 $470 6.2831853071796004 $220 $471 forward 7 unknown #
vertex $-1 $223 $472 #
ellipse-curve $-1 8.3260703660577633 47.78569523541212 10.405817130624364 0 0.71933980857756763 0.69465836192734942 0.5 0 0 1 I I #
coedge $-1 $341 $341 $-1 $473 reversed $226 $-1 #
edge $-1 $474 0 $474 6.2831853071796004 $227 $475 forward 7 unknown #
vertex $-1 $230 $476 #
ellipse-curve $-1 14.389773812564897 47.78569523541212 10.405817130624364 0 0.71933980857756763 0.69465836192734942 0.5 0 0 1 I I #
coedge $-1 $345 $345 $-1 $477 reversed $233 $-1 #
edge $-1 $478 0 $478 6.2831853071796004 $234 $479 forward 7 unknown #
vertex $-1 $237 $480 #
ellipse-curve $-1 20.453477259072017 47.78569523541212 10.405817130624364 0 0.71933980857756763 0.69465836192734942 0.5 0 0 1 I I #
face $-1 $-1 $361 $49 $-1 $481 forward single #
loop $-1 $-1 $482 $238 #
plane-surface $-1 0 -49.803716308016561 0 0 1 0 0 0 1 forward_v I I I I #
coedge $-1 $483 $484 $485 $486 reversed $239 $-1 #
coedge $-1 $487 $241 $243 $359 forward $151 $-1 #
coedge $-1 $241 $487 $483 $488 forward $151 $-1 #
coedge $-1 $485 $244 $241 $356 forward $361 $-1 #
edge $-1 $363 -20.84151097479603 $489 5.9721290336680468 $355 $490 forward 7 unknown #
coedge $-1 $491 $492 $242 $358 forward $350 $-1 #
edge $-1 $493 -54.640854910447416 $362 -42.884859055904428 $357 $494 forward 7 unknown #
edge $-1 $363 -18.289082634593527 $493 0 $243 $495 forward 7 unknown #
coedge $-1 $244 $485 $491 $496 forward $361 $-1 #
loop $-1 $-1 $485 $349 #
vertex $-1 $358 $497 #
vertex $-1 $245 $498 #
straight-curve $-1 28.276201945360022 -71.061255587005604 12.495539174774464 0 1 0 I I #
coedge $-1 $365 $365 $-1 $499 reversed $248 $-1 #
edge $-1 $500 0 $500 6.2831853071796004 $249 $501 forward 7 unknown #
vertex $-1 $252 $502 #
ellipse-curve $-1 9.1236019393142413 -42.798591307651499 6.617541247502972 0 -0.64278761758704617 0.76604443648966558 2 0 0 1 I I #
coedge $-1 $369 $369 $-1 $503 reversed $255 $-1 #
edge $-1 $504 0 $504 6.2831853071796004 $256 $505 forward 7 unknown #
vertex $-1 $259 $506 #
ellipse-curve $-1 20.615161942941697 -42.798591307651499 6.617541247502972 0 -0.64278761758704617 0.76604443648966558 2 0 0 1 I I #
face $-1 $-1 $275 $39 $-1 $507 reversed single #
loop $-1 $-1 $389 $260 #
plane-surface $-1 0 49.803716308016561 0 0 -1 0 0 0 -1 forward_v I I I I #
coedge $-1 $508 $387 $390 $509 forward $261 $-1 #
coedge $-1 $393 $263 $264 $381 reversed $165 $-1 #
coedge $-1 $387 $508 $263 $379 reversed $261 $-1 #
edge $-1 $394 -12.495539174774466 $510 12.495539174774466 $378 $511 forward 7 unknown #
coedge $-1 $265 $264 $508 $512 forward $105 $-1 #
edge $-1 $385 -71.811273537400439 $510 71.811273537400439 $377 $513 forward 7 unknown #
coedge $-1 $390 $389 $265 $383 reversed $374 $-1 #
edge $-1 $514 -71.811273537400439 $384 71.811273537400439 $382 $515 forward 7 unknown #
vertex $-1 $267 $516 #
vertex $-1 $396 $517 #
straight-curve $-1 71.811273537400439 0 -12.495539174774466 0 -1 0 I I #
coedge $-1 $376 $378 $268 $388 reversed $261 $-1 #
edge $-1 $391 -49.803716308016561 $394 49.803716308016561 $387 $518 forward 7 unknown #
coedge $-1 $382 $269 $274 $397 forward $374 $-1 #
coedge $-1 $269 $382 $376 $509 reversed $374 $-1 #
vertex $-1 $270 $519 #
straight-curve $-1 0 49.803716308016561 12.495539174774466 -1 0 0 I I #
coedge $-1 $271 $377 $273 $396 reversed $165 $-1 #
vertex $-1 $388 $520 #
straight-curve $-1 0 -49.803716308016561 12.495539174774466 1 0 0 I I #
edge $-1 $276 -12.495539174774466 $385 12.495539174774466 $273 $521 forward 7 unknown #
edge $-1 $277 -12.495539174774466 $384 12.495539174774466 $274 $522 forward 7 unknown #
point $-1 71.811273537400439 -49.803716308016561 12.495539174774466 #
point $-1 71.811273537400439 49.803716308016561 12.495539174774466 #
face $-1 $-1 $414 $40 $-1 $523 reversed single #
loop $-1 $-1 $410 $279 #
plane-surface $-1 0 0 12.495539174774466 0 0 1 1 0 0 forward_v I I I I #
coedge $-1 $524 $525 $404 $526 forward $280 $-1 #
coedge $-1 $283 $282 $403 $526 reversed $109 $-1 #
edge $-1 $527 -4.2836014017196788 $291 4.2836014017196788 $282 $528 forward 7 unknown #
coedge $-1 $529 $410 $283 $407 forward $401 $-1 #
edge $-1 $408 71.811273537400439 $530 80.378476340839796 $283 $531 forward 7 unknown #
vertex $-1 $407 $532 #
straight-curve $-1 -71.811273537400439 49.803716308016561 0 0 0 -1 I I #
coedge $-1 $406 $533 $285 $411 forward $401 $-1 #
edge $-1 $415 -49.803716308016561 $408 49.803716308016561 $410 $534 forward 7 unknown #
coedge $-1 $535 $286 $533 $536 reversed $414 $-1 #
coedge $-1 $286 $535 $288 $418 reversed $414 $-1 #
loop $-1 $-1 $286 $400 #
vertex $-1 $287 $537 #
straight-curve $-1 -71.811273537400439 -49.803716308016561 0 0 0 1 I I #
coedge $-1 $289 $288 $524 $538 forward $173 $-1 #
edge $-1 $290 -4.2836014017196788 $539 4.2836014017196788 $413 $540 forward 7 unknown #
point $-1 -71.811273537400439 -49.803716308016561 8.3375795862178101 #
point $-1 -71.811273537400439 49.803716308016561 8.3375795862178101 #
loop $-1 $-1 $301 $293 #
plane-surface $-1 0 49.803716308016561 0 0 -1 0 0 0 -1 forward_v I I I I #
coedge $-1 $424 $296 $298 $428 reversed $181 $-1 #
coedge $-1 $296 $423 $541 $542 reversed $181 $-1 #
coedge $-1 $304 $299 $296 $426 forward $294 $-1 #
edge $-1 $429 3.8056762371156196 $543 7.8417183823245153 $425 $544 forward 7 unknown #
coedge $-1 $298 $297 $432 $545 reversed $113 $-1 #
edge $-1 $546 -99.607432616033151 $429 -93.797321680334079 $423 $547 forward 7 unknown #
vertex $-1 $300 $548 #
straight-curve $-1 -2.9112855045627555 45.767674162807666 12.495539174774464 1 0 0 I I #
coedge $-1 $541 $301 $304 $436 reversed $421 $-1 #
coedge $-1 $301 $541 $427 $545 forward $421 $-1 #
vertex $-1 $302 $549 #
straight-curve $-1 -15.928743419970719 49.803716308016561 89.868144942104664 0 0 1 I I #
straight-curve $-1 -15.928743419970719 -19.389419668825866 79.967686597394518 0 0.69465836192734942 -0.71933980857756763 I I #
edge $-1 $543 -4.2836014017196966 $305 15.928743419970719 $431 $550 forward 7 unknown #
point $-1 -15.928743419970719 49.803716308016561 12.495539174774466 #
point $-1 -15.928743419970719 45.767674162807666 12.495539174774464 #
edge $-1 $551 1 $551 0 $308 $-1 forward 7 unknown #
vertex $-1 $309 $552 #
ellipse-curve $-1 -11.886274455632638 46.880609581307809 9.5317860949622446 0 0.71933980857756763 0.69465836192734942 0.5 0 0 1 I I #
point $-1 -11.386274455632638 47.78569523541212 10.405817130624365 #
edge $-1 $553 1 $553 0 $312 $-1 forward 7 unknown #
vertex $-1 $313 $554 #
ellipse-curve $-1 -5.822571009125511 46.880609581307809 9.5317860949622446 0 0.71933980857756763 0.69465836192734942 0.5 0 0 1 I I #
point $-1 -5.322571009125511 47.78569523541212 10.405817130624365 #
edge $-1 $555 1 $555 0 $316 $-1 forward 7 unknown #
vertex $-1 $317 $556 #
ellipse-curve $-1 0.24113243738160861 46.880609581307809 9.5317860949622446 0 0.71933980857756763 0.69465836192734942 0.5 0 0 1 I I #
point $-1 0.74113243738160861 47.78569523541212 10.405817130624365 #
loop $-1 $-1 $329 $320 #
plane-surface $-1 0 49.803716308016561 0 0 -1 0 0 0 -1 forward_v I I I I #
coedge $-1 $323 $457 $332 $465 forward $210 $-1 #
edge $-1 $462 -99.607432616033151 $458 -93.797321680334079 $324 $557 forward 7 unknown #
coedge $-1 $329 $558 $325 $456 forward $451 $-1 #
edge $-1 $459 77.372605767330199 $462 81.552049855630401 $455 $559 forward 7 unknown #
coedge $-1 $453 $326 $558 $560 forward $210 $-1 #
vertex $-1 $327 $561 #
vertex $-1 $560 $562 #
straight-curve $-1 24.495946223410105 41.961997925692046 12.495539174774464 0 1 0 I I #
coedge $-1 $558 $329 $333 $466 forward $451 $-1 #
vertex $-1 $456 $563 #
straight-curve $-1 -2.9112855045627555 49.803716308016561 8.3160950864742631 -1 0 0 I I #
straight-curve $-1 -2.9112855045627555 45.767674162807666 12.495539174774464 1 0 0 I I #
edge $-1 $564 -7.8417183823245153 $335 -3.8056762371156196 $453 $565 forward 7 unknown #
edge $-1 $334 -81.552049855630401 $564 -77.372605767330199 $461 $566 forward 7 unknown #
point $-1 4.2836014017196966 49.803716308016561 8.3160950864742631 #
point $-1 4.2836014017196966 45.767674162807666 12.495539174774464 #
edge $-1 $567 1 $567 0 $337 $-1 forward 7 unknown #
vertex $-1 $338 $568 #
ellipse-curve $-1 8.3260703660577633 46.880609581307809 9.5317860949622446 0 0.71933980857756763 0.69465836192734942 0.5 0 0 1 I I #
point $-1 8.8260703660577633 47.78569523541212 10.405817130624365 #
edge $-1 $569 1 $569 0 $341 $-1 forward 7 unknown #
vertex $-1 $342 $570 #
ellipse-curve $-1 14.389773812564897 46.880609581307809 9.5317860949622446 0 0.71933980857756763 0.69465836192734942 0.5 0 0 1 I I #
point $-1 14.889773812564897 47.78569523541212 10.405817130624365 #
edge $-1 $571 1 $571 0 $345 $-1 forward 7 unknown #
vertex $-1 $346 $572 #
ellipse-curve $-1 20.453477259072017 46.880609581307809 9.5317860949622446 0 0.71933980857756763 0.69465836192734942 0.5 0 0 1 I I #
point $-1 20.953477259072017 47.78569523541212 10.405817130624365 #
plane-surface $-1 0 0 12.495539174774466 0 0 1 1 0 0 forward_v I I I I #
coedge $-1 $492 $491 $484 $573 forward $350 $-1 #
coedge $-1 $484 $352 $354 $488 reversed $239 $-1 #
coedge $-1 $352 $483 $482 $573 reversed $239 $-1 #
coedge $-1 $360 $355 $352 $486 forward $361 $-1 #
edge $-1 $489 -35.267789279719167 $574 -21.257539278989043 $485 $575 forward 7 unknown #
coedge $-1 $354 $353 $492 $576 reversed $151 $-1 #
edge $-1 $577 0 $489 18.289082634593527 $483 $578 forward 7 unknown #
vertex $-1 $356 $579 #
straight-curve $-1 7.4346909705639916 -35.793466307286437 12.495539174774466 -1 0 0 I I #
coedge $-1 $482 $357 $360 $496 reversed $350 $-1 #
coedge $-1 $357 $482 $487 $576 forward $350 $-1 #
vertex $-1 $358 $580 #
straight-curve $-1 28.276201945360022 -49.803716308016561 55.380398230678892 0 0 1 I I #
straight-curve $-1 28.276201945360022 -49.803716308016561 0.73954332023147629 0 -0.76604443648966558 -0.64278761758704617 I I #
edge $-1 $574 1.4625619368959448 $362 28.276201945360022 $491 $581 forward 7 unknown #
point $-1 28.276201945360022 -49.803716308016561 12.495539174774466 #
point $-1 28.276201945360022 -35.793466307286437 12.495539174774468 #
edge $-1 $582 1 $582 0 $365 $-1 forward 7 unknown #
vertex $-1 $366 $583 #
ellipse-curve $-1 9.1236019393142413 -39.84600944485473 3.0987912787864951 0 -0.64278761758704617 0.76604443648966558 2 0 0 1 I I #
point $-1 11.123601939314241 -42.798591307651492 6.6175412475029649 #
edge $-1 $584 1 $584 0 $369 $-1 forward 7 unknown #
vertex $-1 $370 $585 #
ellipse-curve $-1 20.615161942941697 -39.84600944485473 3.0987912787864951 0 -0.64278761758704617 0.76604443648966558 2 0 0 1 I I #
point $-1 22.615161942941697 -42.798591307651492 6.6175412475029649 #
plane-surface $-1 71.811273537400439 0 0 -1 0 0 0 0 1 forward_v I I I I #
coedge $-1 $378 $376 $380 $512 reversed $261 $-1 #
edge $-1 $391 -12.495539174774466 $514 12.495539174774466 $390 $586 forward 7 unknown #
vertex $-1 $512 $587 #
straight-curve $-1 -71.811273537400439 -49.803716308016561 0 0 0 -1 I I #
edge $-1 $510 -49.803716308016561 $514 49.803716308016561 $508 $588 forward 7 unknown #
straight-curve $-1 0 -49.803716308016561 -12.495539174774466 -1 0 0 I I #
vertex $-1 $383 $589 #
straight-curve $-1 0 49.803716308016561 -12.495539174774466 1 0 0 I I #
point $-1 71.811273537400439 49.803716308016561 -12.495539174774466 #
point $-1 71.811273537400439 -49.803716308016561 -12.495539174774466 #
straight-curve $-1 -71.811273537400439 0 12.495539174774466 0 -1 0 I I #
point $-1 -71.811273537400439 49.803716308016561 12.495539174774466 #
point $-1 -71.811273537400439 -49.803716308016561 12.495539174774466 #
straight-curve $-1 71.811273537400439 -49.803716308016561 0 0 0 -1 I I #
straight-curve $-1 71.811273537400439 49.803716308016561 0 0 0 -1 I I #
plane-surface $-1 0 -49.803716308016561 0 0 1 0 0 0 1 forward_v I I I I #
coedge $-1 $590 $403 $417 $538 reversed $280 $-1 #
coedge $-1 $403 $590 $529 $591 reversed $280 $-1 #
edge $-1 $530 -2.078979794278327 $527 2.078979794278327 $404 $592 forward 7 unknown #
vertex $-1 $405 $593 #
straight-curve $-1 -76.094874939120118 49.803716308016561 8.3375795862178101 1 0 0 I I #
coedge $-1 $533 $406 $525 $591 forward $401 $-1 #
vertex $-1 $407 $594 #
straight-curve $-1 0 49.803716308016561 12.495539174774466 -1 0 0 I I #
point $-1 -71.811273537400439 49.803716308016561 12.495539174774466 #
coedge $-1 $410 $529 $412 $536 forward $401 $-1 #
straight-curve $-1 -71.811273537400439 0 12.495539174774466 0 1 0 I I #
coedge $-1 $413 $412 $590 $595 forward $414 $-1 #
edge $-1 $596 -80.378476340839796 $415 -71.811273537400439 $412 $597 forward 7 unknown #
point $-1 -71.811273537400439 -49.803716308016561 12.495539174774466 #
edge $-1 $539 -49.803716308016561 $527 49.803716308016561 $524 $598 forward 7 unknown #
vertex $-1 $538 $599 #
straight-curve $-1 -76.094874939120118 -49.803716308016561 8.3375795862178101 -1 0 0 I I #
coedge $-1 $432 $431 $424 $542 forward $421 $-1 #
edge $-1 $543 77.372605767330199 $546 81.552049855630401 $541 $600 forward 7 unknown #
vertex $-1 $436 $601 #
straight-curve $-1 4.2836014017196966 41.961997925692046 12.495539174774464 0 1 0 I I #
edge $-1 $546 -7.1948869062824521 $433 13.017457915407963 $432 $602 forward 7 unknown #
vertex $-1 $545 $603 #
straight-curve $-1 4.2836014017196966 -19.389419668825866 79.967686597394518 0 -0.69465836192734942 0.71933980857756763 I I #
point $-1 4.2836014017196966 45.767674162807666 12.495539174774464 #
point $-1 -15.928743419970719 49.803716308016561 8.3160950864742631 #
straight-curve $-1 0 49.803716308016561 12.495539174774466 -1 0 0 I I #
vertex $-1 $439 $604 #
point $-1 -11.386274455632638 46.880609581307809 9.5317860949622446 #
vertex $-1 $443 $605 #
point $-1 -5.322571009125511 46.880609581307809 9.5317860949622446 #
vertex $-1 $447 $606 #
point $-1 0.74113243738160861 46.880609581307809 9.5317860949622446 #
straight-curve $-1 24.495946223410105 -19.389419668825866 79.967686597394518 0 -0.69465836192734942 0.71933980857756763 I I #
coedge $-1 $455 $461 $457 $560 reversed $451 $-1 #
straight-curve $-1 24.495946223410105 49.803716308016561 89.868144942104664 0 0 -1 I I #
edge $-1 $459 -24.495946223410105 $564 -4.2836014017196966 $558 $607 forward 7 unknown #
point $-1 24.495946223410105 45.767674162807666 12.495539174774464 #
point $-1 24.495946223410105 49.803716308016561 12.495539174774466 #
point $-1 24.495946223410105 49.803716308016561 8.3160950864742631 #
vertex $-1 $466 $608 #
straight-curve $-1 4.2836014017196966 41.961997925692046 12.495539174774464 0 -1 0 I I #
straight-curve $-1 4.2836014017196966 49.803716308016561 89.868144942104664 0 0 1 I I #
vertex $-1 $469 $609 #
point $-1 8.8260703660577633 46.880609581307809 9.5317860949622446 #
vertex $-1 $473 $610 #
point $-1 14.889773812564897 46.880609581307809 9.5317860949622446 #
vertex $-1 $477 $611 #
point $-1 20.953477259072017 46.880609581307809 9.5317860949622446 #
edge $-1 $574 42.884859055904428 $577 54.640854910447416 $482 $612 forward 7 unknown #
vertex $-1 $496 $613 #
straight-curve $-1 1.4625619368959448 -71.061255587005604 12.495539174774464 0 -1 0 I I #
edge $-1 $577 -5.9721290336680468 $493 20.84151097479603 $492 $614 forward 7 unknown #
vertex $-1 $576 $615 #
straight-curve $-1 1.4625619368959448 -49.803716308016561 0.73954332023147629 0 0.76604443648966558 0.64278761758704617 I I #
point $-1 1.4625619368959448 -35.793466307286437 12.495539174774468 #
point $-1 28.276201945360022 -49.803716308016561 0.73954332023147629 #
straight-curve $-1 0 -49.803716308016561 12.495539174774466 1 0 0 I I #
vertex $-1 $499 $616 #
point $-1 11.123601939314241 -39.84600944485473 3.0987912787864951 #
vertex $-1 $503 $617 #
point $-1 22.615161942941697 -39.84600944485473 3.0987912787864951 #
straight-curve $-1 -71.811273537400439 49.803716308016561 0 0 0 -1 I I #
point $-1 -71.811273537400439 -49.803716308016561 -12.495539174774466 #
straight-curve $-1 -71.811273537400439 0 -12.495539174774466 0 1 0 I I #
point $-1 -71.811273537400439 49.803716308016561 -12.495539174774466 #
coedge $-1 $525 $524 $535 $595 reversed $280 $-1 #
edge $-1 $530 -49.803716308016561 $596 49.803716308016561 $525 $618 forward 7 unknown #
straight-curve $-1 -80.378476340839796 49.803716308016561 10.416559380496137 0 0 -1 I I #
point $-1 -80.378476340839796 49.803716308016561 8.3375795862178101 #
point $-1 -80.378476340839796 49.803716308016561 12.495539174774464 #
edge $-1 $596 -2.078979794278327 $539 2.078979794278327 $590 $619 forward 7 unknown #
vertex $-1 $591 $620 #
straight-curve $-1 0 -49.803716308016561 12.495539174774466 1 0 0 I I #
straight-curve $-1 -80.378476340839796 0 8.3375795862178101 0 1 0 I I #
point $-1 -80.378476340839796 -49.803716308016561 8.3375795862178101 #
straight-curve $-1 4.2836014017196966 49.803716308016561 89.868144942104664 0 0 -1 I I #
point $-1 4.2836014017196966 49.803716308016561 12.495539174774466 #
straight-curve $-1 -2.9112855045627555 49.803716308016561 8.3160950864742631 -1 0 0 I I #
point $-1 4.2836014017196966 49.803716308016561 8.3160950864742631 #
point $-1 -11.886274455632638 46.52093967701903 9.1844569139985683 #
point $-1 -5.822571009125511 46.52093967701903 9.1844569139985683 #
point $-1 0.24113243738160861 46.52093967701903 9.1844569139985683 #
straight-curve $-1 0 49.803716308016561 12.495539174774466 -1 0 0 I I #
point $-1 4.2836014017196966 49.803716308016561 12.495539174774466 #
point $-1 8.3260703660577633 46.52093967701903 9.1844569139985683 #
point $-1 14.389773812564897 46.52093967701903 9.1844569139985683 #
point $-1 20.453477259072017 46.52093967701903 9.1844569139985683 #
straight-curve $-1 1.4625619368959448 -49.803716308016561 55.380398230678892 0 0 -1 I I #
point $-1 1.4625619368959448 -49.803716308016561 12.495539174774466 #
straight-curve $-1 7.4346909705639916 -49.803716308016561 0.7395433202314734 1 0 0 I I #
point $-1 1.4625619368959448 -49.803716308016561 0.73954332023147629 #
point $-1 9.1236019393142413 -38.560434209680636 1.5667024058071646 #
point $-1 20.615161942941697 -38.560434209680636 1.5667024058071646 #
straight-curve $-1 -80.378476340839796 0 12.495539174774464 0 -1 0 I I #
straight-curve $-1 -80.378476340839796 -49.803716308016561 10.416559380496137 0 0 -1 I I #
point $-1 -80.378476340839796 -49.803716308016561 12.495539174774464 #
End-of-ACIS-data 