500 0 8 0           
7 Unknown 11 ACIS 5.0 NT 24 Fri Mar 26 17:17:32 1999 
-1 9.9999999999999995e-007 1e-010 
body $-1 $8 $-1 $9 #
body $-1 $10 $-1 $11 #
body $-1 $12 $-1 $13 #
body $-1 $14 $-1 $15 #
body $-1 $16 $-1 $17 #
body $-1 $18 $-1 $19 #
body $-1 $20 $-1 $21 #
body $-1 $22 $-1 $23 #
lump $-1 $-1 $24 $0 #
transform $-1 1 0 0 0 1 0 0 0 1 47.384258552812284 20.938905305377386 9.1018131026972782 1 rotate no_reflect no_shear #
lump $-1 $-1 $25 $1 #
transform $-1 1 0 0 0 1 0 0 0 1 47.384258552812284 20.938905305377386 9.1018131026972782 1 rotate no_reflect no_shear #
lump $-1 $-1 $26 $2 #
transform $-1 1 0 0 0 1 0 0 0 1 47.384258552812284 20.938905305377386 9.1018131026972782 1 rotate no_reflect no_shear #
lump $-1 $-1 $27 $3 #
transform $-1 1 0 0 0 1 0 0 0 1 47.384258552812284 20.938905305377386 9.1018131026972782 1 rotate no_reflect no_shear #
lump $-1 $-1 $28 $4 #
transform $-1 1 0 0 0 1 0 0 0 1 47.384258552812284 20.938905305377386 9.1018131026972782 1 rotate no_reflect no_shear #
lump $-1 $-1 $29 $5 #
transform $-1 1 0 0 0 1 0 0 0 1 47.384258552812284 20.938905305377386 9.1018131026972782 1 rotate no_reflect no_shear #
lump $-1 $-1 $30 $6 #
transform $-1 1 0 0 0 1 0 0 0 1 47.384258552812284 20.938905305377386 9.1018131026972782 1 rotate no_reflect no_shear #
lump $-1 $-1 $31 $7 #
transform $-1 1 0 0 0 1 0 0 0 1 47.384258552812284 20.938905305377386 9.1018131026972782 1 rotate no_reflect no_shear #
shell $-1 $-1 $-1 $32 $-1 $8 #
shell $-1 $-1 $-1 $33 $-1 $10 #
shell $-1 $-1 $-1 $34 $-1 $12 #
shell $-1 $-1 $-1 $35 $-1 $14 #
shell $-1 $-1 $-1 $36 $-1 $16 #
shell $-1 $-1 $-1 $37 $-1 $18 #
shell $-1 $-1 $-1 $38 $-1 $20 #
shell $-1 $-1 $-1 $39 $-1 $22 #
face $-1 $40 $41 $24 $-1 $42 forward single #
face $-1 $43 $44 $25 $-1 $45 forward single #
face $-1 $46 $47 $26 $-1 $48 reversed single #
face $-1 $49 $50 $27 $-1 $51 forward single #
face $-1 $52 $53 $28 $-1 $54 reversed single #
face $-1 $55 $56 $29 $-1 $57 forward single #
face $-1 $58 $59 $30 $-1 $60 reversed single #
face $-1 $61 $62 $31 $-1 $63 forward single #
face $-1 $64 $65 $24 $-1 $66 reversed single #
loop $-1 $-1 $67 $32 #
plane-surface $-1 0 0 9.1018131026972782 0 0 1 1 0 0 forward_v I I I I #
face $-1 $68 $69 $25 $-1 $70 reversed single #
loop $-1 $-1 $71 $33 #
plane-surface $-1 0 -20.938905305377386 0 0 1 0 0 0 1 forward_v I I I I #
face $-1 $72 $73 $26 $-1 $74 reversed single #
loop $-1 $-1 $75 $34 #
plane-surface $-1 21.811480568144376 2.5724589235305668 134.81303163520596 0 -1 0 -0.55919291073839883 0 -0.82903756765294845 forward_v I I I I #
face $-1 $76 $77 $27 $-1 $78 forward single #
loop $-1 $79 $80 $35 #
cone-surface $-1 41.434352928805566 -0.89747797961131326 3.7844230934224385 -0.55919291073839883 0 -0.82903756765294845 1.2435563514794228 0 -0.83878936610759824 1 I I 0 1 1.5 forward I I I I #
face $-1 $81 $82 $28 $-1 $83 reversed single #
loop $-1 $-1 $84 $36 #
plane-surface $-1 21.811480568144376 16.363475109531656 134.81303163520596 0 -1 0 -0.55919291073839883 0 -0.82903756765294845 forward_v I I I I #
face $-1 $85 $86 $29 $-1 $87 forward single #
loop $-1 $88 $89 $37 #
cone-surface $-1 41.434352928805566 12.893538206389774 3.7844230934224385 -0.55919291073839883 0 -0.82903756765294845 1.2435563514794228 0 -0.83878936610759824 1 I I 0 1 1.5 forward I I I I #
face $-1 $90 $91 $30 $-1 $92 reversed single #
loop $-1 $-1 $93 $38 #
plane-surface $-1 -123.06976232725887 -3.2008688610782965 59.124905782848771 0 1 0 -0.79863551827123203 0 0.60181501223851219 forward_v I I I I #
face $-1 $94 $95 $31 $-1 $96 forward single #
loop $-1 $97 $98 $39 #
cone-surface $-1 -42.88494841449333 0.57470996975733613 4.1966267997553652 0.79863551827123203 0 -0.60181501223851219 0.90272251835776829 0 1.197953277406848 1 I I 0 1 1.5 forward I I I I #
face $-1 $99 $100 $24 $-1 $101 reversed single #
loop $-1 $-1 $102 $40 #
plane-surface $-1 0 0 -9.1018131026972782 0 0 1 1 0 0 forward_v I I I I #
coedge $-1 $103 $104 $105 $106 forward $41 $-1 #
face $-1 $107 $108 $25 $-1 $109 forward single #
loop $-1 $-1 $110 $43 #
plane-surface $-1 -47.384258552812284 0 0 1 0 0 0 0 -1 forward_v I I I I #
coedge $-1 $111 $112 $113 $114 forward $44 $-1 #
face $-1 $115 $116 $26 $-1 $117 reversed single #
loop $-1 $-1 $118 $46 #
plane-surface $-1 -31.182402358511567 -0.89747797961131326 56.246370723882123 0.55919291073839883 0 0.82903756765294845 0.82903756765294845 0 -0.55919291073839883 forward_v I I I I #
coedge $-1 $119 $120 $121 $122 reversed $47 $-1 #
face $-1 $-1 $123 $27 $-1 $124 forward single #
loop $-1 $125 $126 $49 #
cone-surface $-1 39.401043234765538 -0.89747797961131326 0.76991756114342991 -0.55919291073839883 0 -0.82903756765294845 0.62177817573971139 0 -0.41939468305379912 1 I I -0.70710678118654757 0.70710678118654757 0.75 forward I I I I #
loop $-1 $-1 $127 $35 #
coedge $-1 $80 $80 $128 $129 reversed $50 $-1 #
face $-1 $130 $131 $28 $-1 $132 reversed single #
loop $-1 $-1 $133 $52 #
plane-surface $-1 -31.182402358511567 12.893538206389774 56.246370723882123 0.55919291073839883 0 0.82903756765294845 0.82903756765294845 0 -0.55919291073839883 forward_v I I I I #
coedge $-1 $134 $135 $136 $137 reversed $53 $-1 #
face $-1 $-1 $138 $29 $-1 $139 forward single #
loop $-1 $140 $141 $55 #
cone-surface $-1 39.401043234765538 12.893538206389774 0.76991756114342991 -0.55919291073839883 0 -0.82903756765294845 0.62177817573971139 0 -0.41939468305379912 1 I I -0.70710678118654757 0.70710678118654757 0.75 forward I I I I #
loop $-1 $-1 $142 $37 #
coedge $-1 $89 $89 $143 $144 reversed $56 $-1 #
face $-1 $145 $146 $30 $-1 $147 reversed single #
loop $-1 $-1 $148 $58 #
plane-surface $-1 -47.384258552812284 0.57470996975733257 2.0917895011016725 -0.79863551827123203 0 0.60181501223851219 0.60181501223851219 0 0.79863551827123203 forward_v I I I I #
coedge $-1 $149 $150 $151 $152 reversed $59 $-1 #
face $-1 $-1 $153 $31 $-1 $154 forward single #
loop $-1 $155 $156 $61 #
cone-surface $-1 -40.42787740052556 0.57470996975733613 2.345091038432372 0.79863551827123203 0 -0.60181501223851219 0.45136125917888414 0 0.59897663870342399 1 I I -0.70710678118654757 0.70710678118654757 0.75 forward I I I I #
loop $-1 $-1 $157 $39 #
coedge $-1 $98 $98 $158 $159 reversed $62 $-1 #
face $-1 $160 $161 $24 $-1 $162 reversed single #
loop $-1 $-1 $163 $64 #
plane-surface $-1 0 -20.938905305377386 0 0 1 0 0 0 1 forward_v I I I I #
coedge $-1 $164 $165 $166 $167 forward $65 $-1 #
coedge $-1 $168 $67 $169 $170 forward $41 $-1 #
coedge $-1 $67 $168 $171 $172 forward $41 $-1 #
coedge $-1 $173 $174 $67 $106 reversed $175 $-1 #
edge $-1 $176 -20.938905305377386 $177 20.938905305377386 $105 $178 forward 7 unknown #
face $-1 $179 $180 $25 $-1 $181 reversed single #
loop $-1 $-1 $182 $68 #
plane-surface $-1 0 -26.936935418766616 -1.6846091635097977 0 0 1 1 0 0 forward_v I I I I #
coedge $-1 $183 $184 $112 $185 forward $69 $-1 #
coedge $-1 $186 $71 $187 $188 reversed $44 $-1 #
coedge $-1 $71 $186 $110 $185 reversed $44 $-1 #
coedge $-1 $189 $182 $71 $114 reversed $108 $-1 #
edge $-1 $190 -47.384258552812284 $191 47.384258552812284 $113 $192 forward 7 unknown #
face $-1 $193 $194 $26 $-1 $195 reversed single #
loop $-1 $-1 $196 $72 #
plane-surface $-1 21.811480568144376 -4.3674148827531933 134.81303163520596 0 1 0 0.55919291073839883 0 0.82903756765294845 forward_v I I I I #
coedge $-1 $197 $198 $199 $200 reversed $73 $-1 #
coedge $-1 $120 $75 $201 $202 reversed $47 $-1 #
coedge $-1 $75 $119 $197 $203 reversed $47 $-1 #
coedge $-1 $199 $204 $75 $122 forward $205 $-1 #
edge $-1 $206 -36.478518268740096 $207 -27.806537042699112 $121 $208 forward 7 unknown #
loop $-1 $-1 $128 $76 #
plane-surface $-1 -31.182402358511567 -0.89747797961131326 56.246370723882123 0.55919291073839883 0 0.82903756765294845 0.82903756765294845 0 -0.55919291073839883 forward_v I I I I #
loop $-1 $-1 $209 $49 #
coedge $-1 $126 $126 $127 $210 reversed $77 $-1 #
coedge $-1 $127 $127 $126 $210 forward $79 $-1 #
coedge $-1 $128 $128 $80 $129 forward $123 $-1 #
edge $-1 $211 0 $211 6.2831853071796004 $128 $212 forward 7 unknown #
face $-1 $213 $214 $28 $-1 $215 reversed single #
loop $-1 $-1 $216 $81 #
plane-surface $-1 21.811480568144376 9.423601303247894 134.81303163520596 0 1 0 0.55919291073839883 0 0.82903756765294845 forward_v I I I I #
coedge $-1 $217 $218 $219 $220 reversed $82 $-1 #
coedge $-1 $135 $84 $221 $222 reversed $53 $-1 #
coedge $-1 $84 $134 $217 $223 reversed $53 $-1 #
coedge $-1 $219 $224 $84 $137 forward $225 $-1 #
edge $-1 $226 -36.478518268740096 $227 -27.806537042699112 $136 $228 forward 7 unknown #
loop $-1 $-1 $143 $85 #
plane-surface $-1 -31.182402358511567 12.893538206389774 56.246370723882123 0.55919291073839883 0 0.82903756765294845 0.82903756765294845 0 -0.55919291073839883 forward_v I I I I #
loop $-1 $-1 $229 $55 #
coedge $-1 $141 $141 $142 $230 reversed $86 $-1 #
coedge $-1 $142 $142 $141 $230 forward $88 $-1 #
coedge $-1 $143 $143 $89 $144 forward $138 $-1 #
edge $-1 $231 0 $231 6.2831853071796004 $143 $232 forward 7 unknown #
face $-1 $233 $234 $30 $-1 $235 forward single #
loop $-1 $-1 $236 $90 #
plane-surface $-1 -123.06976232725887 4.3502888005929616 59.124905782848771 0 -1 0 0.79863551827123203 0 -0.60181501223851219 forward_v I I I I #
coedge $-1 $237 $238 $239 $240 reversed $91 $-1 #
coedge $-1 $150 $93 $241 $242 reversed $59 $-1 #
coedge $-1 $93 $149 $237 $243 reversed $59 $-1 #
coedge $-1 $239 $244 $93 $152 forward $234 $-1 #
edge $-1 $245 14.150622610817152 $246 19.433054136926359 $151 $247 forward 7 unknown #
loop $-1 $-1 $158 $94 #
plane-surface $-1 -47.384258552812284 0.57470996975733257 2.0917895011016725 -0.79863551827123203 0 0.60181501223851219 0.60181501223851219 0 0.79863551827123203 forward_v I I I I #
loop $-1 $-1 $248 $61 #
coedge $-1 $156 $156 $157 $249 reversed $95 $-1 #
coedge $-1 $157 $157 $156 $249 forward $97 $-1 #
coedge $-1 $158 $158 $98 $159 forward $153 $-1 #
edge $-1 $250 0 $250 6.2831853071796004 $158 $251 forward 7 unknown #
face $-1 $252 $253 $24 $-1 $254 reversed single #
loop $-1 $-1 $255 $99 #
plane-surface $-1 -47.384258552812284 0 0 1 0 0 0 0 -1 forward_v I I I I #
coedge $-1 $256 $171 $257 $258 forward $100 $-1 #
coedge $-1 $259 $102 $256 $260 forward $65 $-1 #
coedge $-1 $102 $259 $261 $262 forward $65 $-1 #
coedge $-1 $174 $173 $102 $167 reversed $175 $-1 #
edge $-1 $263 -20.938905305377386 $264 20.938905305377386 $166 $265 forward 7 unknown #
coedge $-1 $104 $103 $266 $267 forward $41 $-1 #
coedge $-1 $268 $269 $103 $170 reversed $253 $-1 #
edge $-1 $177 -47.384258552812284 $270 47.384258552812284 $169 $271 forward 7 unknown #
coedge $-1 $163 $272 $104 $172 reversed $100 $-1 #
edge $-1 $273 -47.384258552812284 $176 47.384258552812284 $171 $274 forward 7 unknown #
coedge $-1 $166 $105 $272 $275 forward $175 $-1 #
coedge $-1 $105 $166 $268 $276 reversed $175 $-1 #
loop $-1 $-1 $173 $252 #
vertex $-1 $106 $277 #
vertex $-1 $106 $278 #
straight-curve $-1 47.384258552812284 0 9.1018131026972782 0 1 0 I I #
face $-1 $279 $280 $25 $-1 $281 reversed single #
loop $-1 $-1 $282 $107 #
plane-surface $-1 0 -26.936935418766616 -4.6846091635097977 0 0 1 1 0 0 forward_v I I I I #
coedge $-1 $113 $283 $284 $285 forward $108 $-1 #
coedge $-1 $286 $110 $287 $288 reversed $69 $-1 #
coedge $-1 $110 $286 $189 $289 reversed $69 $-1 #
edge $-1 $190 1.6846091635097977 $290 4.6846091635097977 $110 $291 forward 7 unknown #
coedge $-1 $112 $111 $292 $293 forward $44 $-1 #
coedge $-1 $284 $294 $111 $188 forward $295 $-1 #
edge $-1 $296 -4.6846091635097977 $191 -1.6846091635097977 $187 $297 forward 7 unknown #
coedge $-1 $283 $113 $184 $289 forward $108 $-1 #
vertex $-1 $185 $298 #
vertex $-1 $285 $299 #
straight-curve $-1 0 -20.938905305377386 -1.6846091635097977 1 0 0 I I #
face $-1 $-1 $205 $26 $-1 $300 forward single #
loop $-1 $-1 $301 $115 #
plane-surface $-1 47.384258552812284 0 0 -1 0 0 0 0 1 forward_v I I I I #
coedge $-1 $302 $303 $304 $305 reversed $116 $-1 #
coedge $-1 $306 $118 $120 $203 forward $73 $-1 #
coedge $-1 $118 $306 $302 $307 forward $73 $-1 #
coedge $-1 $304 $121 $118 $200 forward $205 $-1 #
edge $-1 $207 -3.0211979133362235 $308 3.9186758929475367 $199 $309 forward 7 unknown #
coedge $-1 $310 $311 $119 $202 forward $194 $-1 #
edge $-1 $312 -64.154028020376813 $206 -58.304702714905702 $201 $313 forward 7 unknown #
edge $-1 $207 84.308217639833373 $312 94.768517105624596 $120 $314 forward 7 unknown #
coedge $-1 $121 $304 $310 $315 forward $205 $-1 #
loop $-1 $-1 $304 $193 #
vertex $-1 $202 $316 #
vertex $-1 $122 $317 #
straight-curve $-1 10.905740284072188 2.5724589235305668 9.1018131026972782 -1 0 0 I I #
coedge $-1 $209 $209 $-1 $318 reversed $125 $-1 #
edge $-1 $319 0 $319 6.2831853071796004 $126 $320 forward 7 unknown #
vertex $-1 $129 $321 #
ellipse-curve $-1 43.048267939791792 -0.89747797961131326 6.1771504499617276 0.55919291073839883 0 0.82903756765294845 1.2435563514794228 0 -0.83878936610759824 1 I I #
face $-1 $-1 $225 $28 $-1 $322 forward single #
loop $-1 $-1 $323 $130 #
plane-surface $-1 47.384258552812284 0 0 -1 0 0 0 0 1 forward_v I I I I #
coedge $-1 $324 $325 $326 $327 reversed $131 $-1 #
coedge $-1 $328 $133 $135 $223 forward $82 $-1 #
coedge $-1 $133 $328 $324 $329 forward $82 $-1 #
coedge $-1 $326 $136 $133 $220 forward $225 $-1 #
edge $-1 $227 -9.9167060063367689 $330 -2.976832200053007 $219 $331 forward 7 unknown #
coedge $-1 $332 $333 $134 $222 forward $214 $-1 #
edge $-1 $334 -64.154028020376813 $226 -58.304702714905702 $221 $335 forward 7 unknown #
edge $-1 $227 84.308217639833373 $334 94.768517105624596 $135 $336 forward 7 unknown #
coedge $-1 $136 $326 $332 $337 forward $225 $-1 #
loop $-1 $-1 $326 $213 #
vertex $-1 $222 $338 #
vertex $-1 $137 $339 #
straight-curve $-1 10.905740284072188 16.363475109531656 9.1018131026972782 -1 0 0 I I #
coedge $-1 $229 $229 $-1 $340 reversed $140 $-1 #
edge $-1 $341 0 $341 6.2831853071796004 $141 $342 forward 7 unknown #
vertex $-1 $144 $343 #
ellipse-curve $-1 43.048267939791792 12.893538206389774 6.1771504499617276 0.55919291073839883 0 0.82903756765294845 1.2435563514794228 0 -0.83878936610759824 1 I I #
face $-1 $-1 $344 $30 $-1 $345 reversed single #
loop $-1 $-1 $151 $145 #
plane-surface $-1 0 0 9.1018131026972782 0 0 1 1 0 0 forward_v I I I I #
coedge $-1 $346 $347 $348 $349 reversed $146 $-1 #
coedge $-1 $350 $148 $150 $243 forward $91 $-1 #
coedge $-1 $148 $350 $346 $351 forward $91 $-1 #
coedge $-1 $348 $151 $148 $240 forward $234 $-1 #
edge $-1 $246 -3.4882238459569628 $352 4.0629338157142953 $239 $353 forward 7 unknown #
coedge $-1 $354 $355 $149 $242 forward $344 $-1 #
edge $-1 $356 -27.470663390322713 $245 -20.460639788727107 $241 $357 forward 7 unknown #
edge $-1 $246 -8.7775004256883893 $356 0 $150 $358 forward 7 unknown #
coedge $-1 $151 $348 $354 $359 forward $234 $-1 #
vertex $-1 $152 $360 #
vertex $-1 $152 $361 #
straight-curve $-1 -61.534881163629436 -3.2008688610782965 9.1018131026972782 1 0 0 I I #
coedge $-1 $248 $248 $-1 $362 reversed $155 $-1 #
edge $-1 $363 0 $363 6.2831853071796004 $156 $364 forward 7 unknown #
vertex $-1 $159 $365 #
ellipse-curve $-1 -44.743042789757681 0.57470996975733613 5.5968013018994762 -0.79863551827123203 0 0.60181501223851219 0.90272251835776829 0 1.197953277406848 1 I I #
face $-1 $-1 $175 $24 $-1 $366 reversed single #
loop $-1 $-1 $268 $160 #
plane-surface $-1 0 20.938905305377386 0 0 -1 0 0 0 -1 forward_v I I I I #
coedge $-1 $367 $266 $269 $368 forward $161 $-1 #
coedge $-1 $272 $163 $164 $260 reversed $100 $-1 #
coedge $-1 $266 $367 $163 $258 reversed $161 $-1 #
edge $-1 $273 -9.1018131026972782 $369 9.1018131026972782 $257 $370 forward 7 unknown #
coedge $-1 $165 $164 $367 $371 forward $65 $-1 #
edge $-1 $264 -47.384258552812284 $369 47.384258552812284 $256 $372 forward 7 unknown #
coedge $-1 $269 $268 $165 $262 reversed $253 $-1 #
edge $-1 $373 -47.384258552812284 $263 47.384258552812284 $261 $374 forward 7 unknown #
vertex $-1 $167 $375 #
vertex $-1 $275 $376 #
straight-curve $-1 47.384258552812284 0 -9.1018131026972782 0 -1 0 I I #
coedge $-1 $255 $257 $168 $267 reversed $161 $-1 #
edge $-1 $270 -20.938905305377386 $273 20.938905305377386 $266 $377 forward 7 unknown #
coedge $-1 $261 $169 $174 $276 forward $253 $-1 #
coedge $-1 $169 $261 $255 $368 reversed $253 $-1 #
vertex $-1 $170 $378 #
straight-curve $-1 0 20.938905305377386 9.1018131026972782 -1 0 0 I I #
coedge $-1 $171 $256 $173 $275 reversed $100 $-1 #
vertex $-1 $267 $379 #
straight-curve $-1 0 -20.938905305377386 9.1018131026972782 1 0 0 I I #
edge $-1 $176 -9.1018131026972782 $264 9.1018131026972782 $173 $380 forward 7 unknown #
edge $-1 $177 -9.1018131026972782 $263 9.1018131026972782 $174 $381 forward 7 unknown #
point $-1 47.384258552812284 -20.938905305377386 9.1018131026972782 #
point $-1 47.384258552812284 20.938905305377386 9.1018131026972782 #
face $-1 $-1 $295 $25 $-1 $382 reversed single #
loop $-1 $-1 $383 $179 #
plane-surface $-1 0 -32.934965532155843 -3.1846091635097977 0 1 0 0 0 1 forward_v I I I I #
coedge $-1 $384 $292 $294 $385 forward $180 $-1 #
coedge $-1 $182 $189 $386 $387 forward $108 $-1 #
coedge $-1 $388 $187 $182 $285 reversed $295 $-1 #
edge $-1 $389 -5.9980301133892269 $191 5.9980301133892304 $284 $390 forward 7 unknown #
coedge $-1 $184 $183 $383 $391 reversed $69 $-1 #
coedge $-1 $292 $384 $183 $288 forward $180 $-1 #
edge $-1 $392 -5.9980301133892269 $290 5.9980301133892304 $183 $393 forward 7 unknown #
edge $-1 $190 -5.9980301133892304 $394 5.9980301133892269 $184 $395 forward 7 unknown #
vertex $-1 $185 $396 #
straight-curve $-1 -47.384258552812284 -20.938905305377386 0 0 0 -1 I I #
coedge $-1 $282 $287 $186 $293 reversed $180 $-1 #
edge $-1 $296 -47.384258552812284 $290 47.384258552812284 $292 $397 forward 7 unknown #
coedge $-1 $187 $388 $282 $385 reversed $295 $-1 #
loop $-1 $-1 $187 $279 #
vertex $-1 $188 $398 #
straight-curve $-1 47.384258552812284 -20.938905305377386 0 0 0 1 I I #
point $-1 -47.384258552812284 -20.938905305377386 -1.6846091635097977 #
point $-1 47.384258552812284 -20.938905305377386 -1.6846091635097977 #
plane-surface $-1 0 0 9.1018131026972782 0 0 1 1 0 0 forward_v I I I I #
coedge $-1 $311 $310 $303 $399 forward $194 $-1 #
coedge $-1 $303 $196 $198 $307 reversed $116 $-1 #
coedge $-1 $196 $302 $301 $399 reversed $116 $-1 #
coedge $-1 $204 $199 $196 $305 forward $205 $-1 #
edge $-1 $308 27.806537042699112 $400 36.478518268740096 $304 $401 forward 7 unknown #
coedge $-1 $198 $197 $311 $402 reversed $73 $-1 #
edge $-1 $403 -94.768517105624596 $308 -84.308217639833373 $302 $404 forward 7 unknown #
vertex $-1 $200 $405 #
straight-curve $-1 38.712277326771293 -0.44873898980565663 9.1018131026972782 0 -1 0 I I #
coedge $-1 $301 $201 $204 $315 reversed $194 $-1 #
coedge $-1 $201 $301 $306 $402 forward $194 $-1 #
vertex $-1 $202 $406 #
straight-curve $-1 47.384258552812284 2.5724589235305668 67.40651581760298 0 0 1 I I #
straight-curve $-1 -31.182402358511567 2.5724589235305668 56.246370723882123 0.82903756765294845 0 -0.55919291073839883 I I #
edge $-1 $400 -4.3674148827531933 $206 2.5724589235305668 $310 $407 forward 7 unknown #
point $-1 47.384258552812284 2.5724589235305668 9.1018131026972782 #
point $-1 38.7122773267713 2.5724589235305668 9.1018131026972782 #
edge $-1 $408 1 $408 0 $209 $-1 forward 7 unknown #
vertex $-1 $210 $409 #
ellipse-curve $-1 39.820437917819341 -0.89747797961131326 1.3916957368831413 0.55919291073839883 0 0.82903756765294845 1.2435563514794228 0 -0.83878936610759824 1 I I #
point $-1 44.291824291271219 -0.89747797961131326 5.3383610838541369 #
plane-surface $-1 0 0 9.1018131026972782 0 0 1 1 0 0 forward_v I I I I #
coedge $-1 $333 $332 $325 $410 forward $214 $-1 #
coedge $-1 $325 $216 $218 $329 reversed $131 $-1 #
coedge $-1 $216 $324 $323 $410 reversed $131 $-1 #
coedge $-1 $224 $219 $216 $327 forward $225 $-1 #
edge $-1 $330 27.806537042699112 $411 36.478518268740096 $326 $412 forward 7 unknown #
coedge $-1 $218 $217 $333 $413 reversed $82 $-1 #
edge $-1 $414 -94.768517105624596 $330 -84.308217639833373 $324 $415 forward 7 unknown #
vertex $-1 $220 $416 #
straight-curve $-1 38.712277326771293 6.4467691031948871 9.1018131026972782 0 -1 0 I I #
coedge $-1 $323 $221 $224 $337 reversed $214 $-1 #
coedge $-1 $221 $323 $328 $413 forward $214 $-1 #
vertex $-1 $222 $417 #
straight-curve $-1 47.384258552812284 16.363475109531656 67.40651581760298 0 0 1 I I #
straight-curve $-1 -31.182402358511567 16.363475109531656 56.246370723882123 0.82903756765294845 0 -0.55919291073839883 I I #
edge $-1 $411 9.423601303247894 $226 16.363475109531656 $332 $418 forward 7 unknown #
point $-1 47.384258552812284 16.363475109531656 9.1018131026972782 #
point $-1 38.7122773267713 16.363475109531656 9.1018131026972782 #
edge $-1 $419 1 $419 0 $229 $-1 forward 7 unknown #
vertex $-1 $230 $420 #
ellipse-curve $-1 39.820437917819341 12.893538206389774 1.3916957368831413 0.55919291073839883 0 0.82903756765294845 1.2435563514794228 0 -0.83878936610759824 1 I I #
point $-1 44.291824291271219 12.893538206389774 5.3383610838541369 #
loop $-1 $-1 $241 $233 #
plane-surface $-1 -47.384258552812284 0 0 1 0 0 0 0 -1 forward_v I I I I #
coedge $-1 $347 $236 $238 $351 reversed $146 $-1 #
coedge $-1 $236 $346 $421 $422 reversed $146 $-1 #
coedge $-1 $244 $239 $236 $349 forward $234 $-1 #
edge $-1 $352 -19.433054136926359 $423 -14.150622610817152 $348 $424 forward 7 unknown #
coedge $-1 $238 $237 $355 $425 reversed $91 $-1 #
edge $-1 $426 0 $352 8.7775004256883893 $346 $427 forward 7 unknown #
vertex $-1 $240 $428 #
straight-curve $-1 -42.101827026703077 0.28735498487866629 9.1018131026972782 0 1 0 I I #
coedge $-1 $421 $241 $244 $359 reversed $344 $-1 #
coedge $-1 $241 $421 $350 $425 forward $344 $-1 #
vertex $-1 $242 $429 #
straight-curve $-1 -47.384258552812284 -3.2008688610782965 29.562452891424385 0 0 1 I I #
straight-curve $-1 -47.384258552812284 -3.2008688610782965 2.0917895011016725 -0.60181501223851219 0 -0.79863551827123203 I I #
edge $-1 $423 -4.3502888005929616 $245 3.2008688610782965 $354 $430 forward 7 unknown #
point $-1 -47.384258552812284 -3.2008688610782965 9.1018131026972782 #
point $-1 -42.101827026703077 -3.2008688610782965 9.1018131026972782 #
edge $-1 $431 1 $431 0 $248 $-1 forward 7 unknown #
vertex $-1 $249 $432 #
ellipse-curve $-1 -41.026854039228986 0.57470996975733613 2.796452297611256 -0.79863551827123203 0 0.60181501223851219 0.90272251835776829 0 1.197953277406848 1 I I #
point $-1 -43.840320271399918 0.57470996975733613 6.7947545793063231 #
plane-surface $-1 47.384258552812284 0 0 -1 0 0 0 0 1 forward_v I I I I #
coedge $-1 $257 $255 $259 $371 reversed $161 $-1 #
edge $-1 $270 -9.1018131026972782 $373 9.1018131026972782 $269 $433 forward 7 unknown #
vertex $-1 $371 $434 #
straight-curve $-1 -47.384258552812284 -20.938905305377386 0 0 0 -1 I I #
edge $-1 $369 -20.938905305377386 $373 20.938905305377386 $367 $435 forward 7 unknown #
straight-curve $-1 0 -20.938905305377386 -9.1018131026972782 -1 0 0 I I #
vertex $-1 $262 $436 #
straight-curve $-1 0 20.938905305377386 -9.1018131026972782 1 0 0 I I #
point $-1 47.384258552812284 20.938905305377386 -9.1018131026972782 #
point $-1 47.384258552812284 -20.938905305377386 -9.1018131026972782 #
straight-curve $-1 -47.384258552812284 0 9.1018131026972782 0 -1 0 I I #
point $-1 -47.384258552812284 20.938905305377386 9.1018131026972782 #
point $-1 -47.384258552812284 -20.938905305377386 9.1018131026972782 #
straight-curve $-1 47.384258552812284 -20.938905305377386 0 0 0 -1 I I #
straight-curve $-1 47.384258552812284 20.938905305377386 0 0 0 -1 I I #
plane-surface $-1 47.384258552812284 0 0 -1 0 0 0 0 1 forward_v I I I I #
coedge $-1 $437 $386 $286 $391 forward $280 $-1 #
coedge $-1 $287 $282 $437 $438 forward $180 $-1 #
edge $-1 $296 -5.9980301133892304 $439 5.9980301133892269 $294 $440 forward 7 unknown #
coedge $-1 $383 $441 $283 $387 reversed $280 $-1 #
edge $-1 $394 -47.384258552812284 $389 47.384258552812284 $386 $442 forward 7 unknown #
coedge $-1 $294 $284 $441 $443 forward $295 $-1 #
vertex $-1 $285 $444 #
straight-curve $-1 47.384258552812284 -26.936935418766616 -1.6846091635097977 0 1 0 I I #
edge $-1 $394 -1.5 $392 1.5 $286 $445 forward 7 unknown #
vertex $-1 $288 $446 #
straight-curve $-1 -47.384258552812284 -26.936935418766616 -4.6846091635097977 0 1 0 I I #
vertex $-1 $289 $447 #
straight-curve $-1 -47.384258552812284 -26.936935418766616 -1.6846091635097977 0 -1 0 I I #
point $-1 -47.384258552812284 -20.938905305377386 -4.6846091635097977 #
straight-curve $-1 0 -20.938905305377386 -4.6846091635097977 -1 0 0 I I #
point $-1 47.384258552812284 -20.938905305377386 -4.6846091635097977 #
edge $-1 $400 58.304702714905702 $403 64.154028020376813 $301 $448 forward 7 unknown #
vertex $-1 $315 $449 #
straight-curve $-1 10.905740284072188 -4.3674148827531933 9.1018131026972782 1 0 0 I I #
edge $-1 $403 -3.9186758929475367 $312 3.0211979133362235 $311 $450 forward 7 unknown #
vertex $-1 $402 $451 #
straight-curve $-1 -31.182402358511567 -4.3674148827531933 56.246370723882123 -0.82903756765294845 0 0.55919291073839883 I I #
point $-1 38.7122773267713 -4.3674148827531933 9.1018131026972782 #
point $-1 47.384258552812284 2.5724589235305668 3.2524877972261663 #
straight-curve $-1 47.384258552812284 0 9.1018131026972782 0 1 0 I I #
vertex $-1 $318 $452 #
point $-1 41.06399426929876 -0.89747797961131326 0.55290637077554305 #
edge $-1 $411 58.304702714905702 $414 64.154028020376813 $323 $453 forward 7 unknown #
vertex $-1 $337 $454 #
straight-curve $-1 10.905740284072188 9.423601303247894 9.1018131026972782 1 0 0 I I #
edge $-1 $414 2.976832200053007 $334 9.9167060063367689 $333 $455 forward 7 unknown #
vertex $-1 $413 $456 #
straight-curve $-1 -31.182402358511567 9.423601303247894 56.246370723882123 -0.82903756765294845 0 0.55919291073839883 I I #
point $-1 38.7122773267713 9.423601303247894 9.1018131026972782 #
point $-1 47.384258552812284 16.363475109531656 3.2524877972261663 #
straight-curve $-1 47.384258552812284 0 9.1018131026972782 0 1 0 I I #
vertex $-1 $340 $457 #
point $-1 41.06399426929876 12.893538206389774 0.55290637077554305 #
coedge $-1 $355 $354 $347 $422 forward $344 $-1 #
edge $-1 $423 20.460639788727107 $426 27.470663390322713 $421 $458 forward 7 unknown #
vertex $-1 $359 $459 #
straight-curve $-1 -61.534881163629436 4.3502888005929616 9.1018131026972782 -1 0 0 I I #
edge $-1 $426 -4.0629338157142953 $356 3.4882238459569628 $355 $460 forward 7 unknown #
vertex $-1 $425 $461 #
straight-curve $-1 -47.384258552812284 4.3502888005929616 2.0917895011016725 0.60181501223851219 0 0.79863551827123203 I I #
point $-1 -42.101827026703077 4.3502888005929616 9.1018131026972782 #
point $-1 -47.384258552812284 -3.2008688610782965 2.0917895011016725 #
straight-curve $-1 -47.384258552812284 0 9.1018131026972782 0 -1 0 I I #
vertex $-1 $362 $462 #
point $-1 -40.124131520871217 0.57470996975733613 3.9944055750181042 #
straight-curve $-1 -47.384258552812284 20.938905305377386 0 0 0 -1 I I #
point $-1 -47.384258552812284 -20.938905305377386 -9.1018131026972782 #
straight-curve $-1 -47.384258552812284 0 -9.1018131026972782 0 1 0 I I #
point $-1 -47.384258552812284 20.938905305377386 -9.1018131026972782 #
coedge $-1 $441 $383 $384 $438 reversed $280 $-1 #
edge $-1 $439 -47.384258552812284 $392 47.384258552812284 $437 $463 forward 7 unknown #
vertex $-1 $443 $464 #
straight-curve $-1 47.384258552812284 -26.936935418766616 -4.6846091635097977 0 -1 0 I I #
coedge $-1 $386 $437 $388 $443 reversed $280 $-1 #
straight-curve $-1 0 -32.934965532155843 -1.6846091635097977 1 0 0 I I #
edge $-1 $389 -1.5 $439 1.5 $388 $465 forward 7 unknown #
point $-1 47.384258552812284 -32.934965532155843 -1.6846091635097977 #
straight-curve $-1 -47.384258552812284 -32.934965532155843 -3.1846091635097977 0 0 -1 I I #
point $-1 -47.384258552812284 -32.934965532155843 -4.6846091635097977 #
point $-1 -47.384258552812284 -32.934965532155843 -1.6846091635097977 #
straight-curve $-1 47.384258552812284 -4.3674148827531933 67.40651581760298 0 0 -1 I I #
point $-1 47.384258552812284 -4.3674148827531933 9.1018131026972782 #
straight-curve $-1 47.384258552812291 -0.44873898980565663 3.2524877972261628 0 1 0 I I #
point $-1 47.384258552812284 -4.3674148827531933 3.2524877972261663 #
point $-1 38.981648551711736 -0.89747797961131326 0.14813938540371852 #
straight-curve $-1 47.384258552812284 9.423601303247894 67.40651581760298 0 0 -1 I I #
point $-1 47.384258552812284 9.423601303247894 9.1018131026972782 #
straight-curve $-1 47.384258552812291 6.4467691031948871 3.2524877972261628 0 1 0 I I #
point $-1 47.384258552812284 9.423601303247894 3.2524877972261663 #
point $-1 38.981648551711736 12.893538206389774 0.14813938540371852 #
straight-curve $-1 -47.384258552812284 4.3502888005929616 29.562452891424385 0 0 -1 I I #
point $-1 -47.384258552812284 4.3502888005929616 9.1018131026972782 #
straight-curve $-1 -47.384258552812284 0.28735498487866629 2.0917895011016676 0 -1 0 I I #
point $-1 -47.384258552812284 4.3502888005929616 2.0917895011016725 #
point $-1 -39.828900761822133 0.57470996975733613 1.893729779253488 #
straight-curve $-1 0 -32.934965532155843 -4.6846091635097977 -1 0 0 I I #
point $-1 47.384258552812284 -32.934965532155843 -4.6846091635097977 #
straight-curve $-1 47.384258552812284 -32.934965532155843 -3.1846091635097977 0 0 -1 I I #
End-of-ACIS-data 