500 0 9 0           
7 Unknown 11 ACIS 5.0 NT 24 Fri Mar 26 15:08:01 1999 
-1 9.9999999999999995e-007 1e-010 
body $-1 $9 $-1 $10 #
body $-1 $11 $-1 $12 #
body $-1 $13 $-1 $14 #
body $-1 $15 $-1 $16 #
body $-1 $17 $-1 $18 #
body $-1 $19 $-1 $20 #
body $-1 $21 $-1 $22 #
body $-1 $23 $-1 $24 #
body $-1 $25 $-1 $26 #
lump $-1 $-1 $27 $0 #
transform $-1 1 0 0 0 1 0 0 0 1 44.179815057832577 20.341159699392414 8.0128662084367637 1 rotate no_reflect no_shear #
lump $-1 $-1 $28 $1 #
transform $-1 1 0 0 0 1 0 0 0 1 44.179815057832577 20.341159699392414 8.0128662084367637 1 rotate no_reflect no_shear #
lump $-1 $-1 $29 $2 #
transform $-1 1 0 0 0 1 0 0 0 1 44.179815057832577 20.341159699392414 8.0128662084367637 1 rotate no_reflect no_shear #
lump $-1 $-1 $30 $3 #
transform $-1 1 0 0 0 1 0 0 0 1 44.179815057832577 20.341159699392414 8.0128662084367637 1 rotate no_reflect no_shear #
lump $-1 $-1 $31 $4 #
transform $-1 1 0 0 0 1 0 0 0 1 44.179815057832577 20.341159699392414 8.0128662084367637 1 rotate no_reflect no_shear #
lump $-1 $-1 $32 $5 #
transform $-1 1 0 0 0 1 0 0 0 1 44.179815057832577 20.341159699392414 8.0128662084367637 1 rotate no_reflect no_shear #
lump $-1 $-1 $33 $6 #
transform $-1 1 0 0 0 1 0 0 0 1 44.179815057832577 20.341159699392414 8.0128662084367637 1 rotate no_reflect no_shear #
lump $-1 $-1 $34 $7 #
transform $-1 1 0 0 0 1 0 0 0 1 44.179815057832577 20.341159699392414 8.0128662084367637 1 rotate no_reflect no_shear #
lump $-1 $-1 $35 $8 #
transform $-1 1 0 0 0 1 0 0 0 1 44.179815057832577 20.341159699392414 8.0128662084367637 1 rotate no_reflect no_shear #
shell $-1 $-1 $-1 $36 $-1 $9 #
shell $-1 $-1 $-1 $37 $-1 $11 #
shell $-1 $-1 $-1 $38 $-1 $13 #
shell $-1 $-1 $-1 $39 $-1 $15 #
shell $-1 $-1 $-1 $40 $-1 $17 #
shell $-1 $-1 $-1 $41 $-1 $19 #
shell $-1 $-1 $-1 $42 $-1 $21 #
shell $-1 $-1 $-1 $43 $-1 $23 #
shell $-1 $-1 $-1 $44 $-1 $25 #
face $-1 $45 $46 $27 $-1 $47 forward single #
face $-1 $48 $49 $28 $-1 $50 forward single #
face $-1 $51 $52 $29 $-1 $53 forward single #
face $-1 $54 $55 $30 $-1 $56 reversed single #
face $-1 $57 $58 $31 $-1 $59 forward single #
face $-1 $60 $61 $32 $-1 $62 forward single #
face $-1 $63 $64 $33 $-1 $65 reversed single #
face $-1 $66 $67 $34 $-1 $68 forward single #
face $-1 $69 $70 $35 $-1 $71 forward single #
face $-1 $72 $73 $27 $-1 $74 reversed single #
loop $-1 $-1 $75 $36 #
plane-surface $-1 0 0 8.0128662084367637 0 0 1 1 0 0 forward_v I I I I #
face $-1 $76 $77 $28 $-1 $78 reversed single #
loop $-1 $-1 $79 $37 #
plane-surface $-1 -39.506487583576835 0 -2.0426665834630278 0 0 1 1 0 0 forward_v I I I I #
face $-1 $80 $81 $29 $-1 $82 reversed single #
loop $-1 $-1 $83 $38 #
plane-surface $-1 39.506487583576835 0 -2.0426665834630278 0 0 1 1 0 0 forward_v I I I I #
face $-1 $84 $85 $30 $-1 $86 reversed single #
loop $-1 $-1 $87 $39 #
plane-surface $-1 34.833160109321092 29.28905342224229 100.50083215148621 -1 0 0 0 0.50000000669873634 0.8660253999169214 forward_v I I I I #
face $-1 $88 $89 $31 $-1 $90 forward single #
loop $-1 $91 $92 $40 #
cone-surface $-1 24.244058029516786 15.084231220083511 3.2824769550120645 0 -0.50000000669873634 -0.8660253999169214 1.5 0 0 1 I I 0 1 1.5 forward I I I I #
face $-1 $93 $94 $32 $-1 $95 forward single #
loop $-1 $96 $97 $41 #
cone-surface $-1 30.597519277399364 15.084231220083511 3.2824769550120645 0 -0.50000000669873634 -0.8660253999169214 1.5 0 0 1 I I 0 1 1.5 forward I I I I #
face $-1 $98 $99 $33 $-1 $100 reversed single #
loop $-1 $-1 $101 $42 #
plane-surface $-1 21.167148375889099 -68.465264010394989 75.04655066955803 1 0 0 0 0.54463904215088732 -0.83867056331134215 forward_v I I I I #
face $-1 $102 $103 $34 $-1 $104 forward single #
loop $-1 $105 $106 $43 #
cone-surface $-1 25.071723156869659 -14.18134540416289 3.3753615946452413 0 0.54463904215088732 -0.83867056331134215 1.5 0 0 1 I I 0 1 1.5 forward I I I I #
face $-1 $107 $108 $35 $-1 $109 forward single #
loop $-1 $110 $111 $44 #
cone-surface $-1 30.92858532834051 -14.18134540416289 3.3753615946452413 0 0.54463904215088732 -0.83867056331134215 1.5 0 0 1 I I 0 1 1.5 forward I I I I #
face $-1 $112 $113 $27 $-1 $114 reversed single #
loop $-1 $-1 $115 $45 #
plane-surface $-1 0 0 -8.0128662084367637 0 0 1 1 0 0 forward_v I I I I #
coedge $-1 $116 $117 $118 $119 forward $46 $-1 #
face $-1 $120 $121 $28 $-1 $122 reversed single #
loop $-1 $-1 $123 $48 #
plane-surface $-1 -39.506487583576835 0 -5.1609032902186218 0 0 1 1 0 0 forward_v I I I I #
coedge $-1 $124 $125 $126 $127 forward $49 $-1 #
face $-1 $128 $129 $29 $-1 $130 reversed single #
loop $-1 $-1 $131 $51 #
plane-surface $-1 39.506487583576835 0 -5.1609032902186218 0 0 1 1 0 0 forward_v I I I I #
coedge $-1 $132 $133 $134 $135 reversed $52 $-1 #
face $-1 $136 $137 $30 $-1 $138 reversed single #
loop $-1 $-1 $139 $54 #
plane-surface $-1 27.420788653458082 -14.890762227488153 23.97914814405604 0 0.50000000669873634 0.8660253999169214 1 0 0 forward_v I I I I #
coedge $-1 $140 $141 $142 $143 reversed $55 $-1 #
face $-1 $-1 $144 $31 $-1 $145 forward single #
loop $-1 $146 $147 $57 #
cone-surface $-1 24.244058029516786 13.241058185959432 0.090007669796301926 0 -0.50000000669873634 -0.8660253999169214 0.75 0 0 1 I I -0.70710678118654757 0.70710678118654757 0.75 forward I I I I #
loop $-1 $-1 $148 $40 #
coedge $-1 $92 $92 $149 $150 reversed $58 $-1 #
face $-1 $-1 $151 $32 $-1 $152 forward single #
loop $-1 $153 $154 $60 #
cone-surface $-1 30.597519277399364 13.241058185959432 0.090007669796301926 0 -0.50000000669873634 -0.8660253999169214 0.75 0 0 1 I I -0.70710678118654757 0.70710678118654757 0.75 forward I I I I #
loop $-1 $-1 $155 $41 #
coedge $-1 $97 $97 $156 $157 reversed $61 $-1 #
face $-1 $158 $159 $33 $-1 $160 reversed single #
loop $-1 $-1 $161 $63 #
plane-surface $-1 28.000154242605099 -20.341159699392421 0.94192990647130159 0 -0.54463904215088732 0.83867056331134215 1 0 0 forward_v I I I I #
coedge $-1 $162 $163 $164 $165 reversed $64 $-1 #
face $-1 $-1 $166 $34 $-1 $167 forward single #
loop $-1 $168 $169 $66 #
cone-surface $-1 25.071723156869659 -13.057195262290005 1.6443222093529446 0 0.54463904215088732 -0.83867056331134215 0.75 0 0 1 I I -0.70710678118654757 0.70710678118654757 0.75 forward I I I I #
loop $-1 $-1 $170 $43 #
coedge $-1 $106 $106 $171 $172 reversed $67 $-1 #
face $-1 $-1 $173 $35 $-1 $174 forward single #
loop $-1 $175 $176 $69 #
cone-surface $-1 30.92858532834051 -13.057195262290005 1.6443222093529446 0 0.54463904215088732 -0.83867056331134215 0.75 0 0 1 I I -0.70710678118654757 0.70710678118654757 0.75 forward I I I I #
loop $-1 $-1 $177 $44 #
coedge $-1 $111 $111 $178 $179 reversed $70 $-1 #
face $-1 $180 $181 $27 $-1 $182 reversed single #
loop $-1 $-1 $183 $72 #
plane-surface $-1 0 -20.341159699392414 0 0 1 0 0 0 1 forward_v I I I I #
coedge $-1 $184 $185 $186 $187 forward $73 $-1 #
coedge $-1 $188 $75 $189 $190 forward $46 $-1 #
coedge $-1 $75 $188 $191 $192 forward $46 $-1 #
coedge $-1 $193 $194 $75 $119 reversed $195 $-1 #
edge $-1 $196 -20.341159699392414 $197 20.341159699392414 $118 $198 forward 7 unknown #
face $-1 $199 $200 $28 $-1 $201 reversed single #
loop $-1 $-1 $202 $76 #
plane-surface $-1 -34.833160109321092 0 -3.6017849368408248 -1 0 0 0 0 1 forward_v I I I I #
coedge $-1 $203 $204 $205 $206 forward $77 $-1 #
coedge $-1 $207 $79 $208 $209 reversed $49 $-1 #
coedge $-1 $79 $207 $210 $211 reversed $49 $-1 #
coedge $-1 $202 $212 $79 $127 reversed $121 $-1 #
edge $-1 $213 -20.341159699392414 $214 20.341159699392414 $126 $215 forward 7 unknown #
face $-1 $216 $217 $29 $-1 $218 reversed single #
loop $-1 $-1 $219 $80 #
plane-surface $-1 34.833160109321092 0 -3.6017849368408248 1 0 0 0 0 -1 forward_v I I I I #
coedge $-1 $220 $221 $222 $223 reversed $81 $-1 #
coedge $-1 $224 $83 $225 $226 reversed $52 $-1 #
coedge $-1 $83 $224 $227 $228 reversed $52 $-1 #
coedge $-1 $229 $230 $83 $135 forward $231 $-1 #
edge $-1 $232 -20.341159699392414 $233 20.341159699392414 $134 $234 forward 7 unknown #
face $-1 $235 $236 $30 $-1 $237 reversed single #
loop $-1 $-1 $238 $84 #
plane-surface $-1 20.008417197595072 29.28905342224229 100.50083215148621 1 0 0 0 -0.50000000669873634 -0.8660253999169214 forward_v I I I I #
coedge $-1 $239 $240 $241 $242 reversed $85 $-1 #
coedge $-1 $141 $87 $243 $244 reversed $55 $-1 #
coedge $-1 $87 $140 $239 $245 reversed $55 $-1 #
coedge $-1 $241 $246 $87 $143 forward $236 $-1 #
edge $-1 $247 42.237549867306342 $248 46.61242790359961 $142 $249 forward 7 unknown #
loop $-1 $-1 $149 $88 #
plane-surface $-1 27.420788653458082 -14.890762227488153 23.97914814405604 0 0.50000000669873634 0.8660253999169214 1 0 0 forward_v I I I I #
loop $-1 $-1 $250 $57 #
coedge $-1 $147 $147 $148 $251 reversed $89 $-1 #
coedge $-1 $148 $148 $147 $251 forward $91 $-1 #
coedge $-1 $149 $149 $92 $150 forward $144 $-1 #
edge $-1 $252 5.4960665290014218e-016 $252 6.2831853071796013 $149 $253 forward 7 unknown #
loop $-1 $-1 $156 $93 #
plane-surface $-1 27.420788653458082 -14.890762227488153 23.97914814405604 0 0.50000000669873634 0.8660253999169214 1 0 0 forward_v I I I I #
loop $-1 $-1 $254 $60 #
coedge $-1 $154 $154 $155 $255 reversed $94 $-1 #
coedge $-1 $155 $155 $154 $255 forward $96 $-1 #
coedge $-1 $156 $156 $97 $157 forward $151 $-1 #
edge $-1 $256 5.4960665290014218e-016 $256 6.2831853071796013 $156 $257 forward 7 unknown #
face $-1 $258 $259 $33 $-1 $260 forward single #
loop $-1 $-1 $261 $98 #
plane-surface $-1 34.833160109321099 -68.465264010394989 75.04655066955803 -1 0 0 0 -0.54463904215088732 0.83867056331134215 forward_v I I I I #
coedge $-1 $262 $263 $264 $265 reversed $99 $-1 #
coedge $-1 $163 $101 $266 $267 reversed $64 $-1 #
coedge $-1 $101 $162 $262 $268 reversed $64 $-1 #
coedge $-1 $264 $269 $101 $165 forward $270 $-1 #
edge $-1 $271 29.510409126342253 $272 36.581345428307706 $164 $273 forward 7 unknown #
loop $-1 $-1 $171 $102 #
plane-surface $-1 28.000154242605099 -20.341159699392421 0.94192990647130159 0 -0.54463904215088732 0.83867056331134215 1 0 0 forward_v I I I I #
loop $-1 $-1 $274 $66 #
coedge $-1 $169 $169 $170 $275 reversed $103 $-1 #
coedge $-1 $170 $170 $169 $275 forward $105 $-1 #
coedge $-1 $171 $171 $106 $172 forward $166 $-1 #
edge $-1 $276 6.9640653815017792e-016 $276 6.2831853071796013 $171 $277 forward 7 unknown #
loop $-1 $-1 $178 $107 #
plane-surface $-1 28.000154242605099 -20.341159699392421 0.94192990647130159 0 -0.54463904215088732 0.83867056331134215 1 0 0 forward_v I I I I #
loop $-1 $-1 $278 $69 #
coedge $-1 $176 $176 $177 $279 reversed $108 $-1 #
coedge $-1 $177 $177 $176 $279 forward $110 $-1 #
coedge $-1 $178 $178 $111 $179 forward $173 $-1 #
edge $-1 $280 6.9640653815017792e-016 $280 6.2831853071796013 $178 $281 forward 7 unknown #
face $-1 $282 $283 $27 $-1 $284 reversed single #
loop $-1 $-1 $285 $112 #
plane-surface $-1 -44.179815057832577 0 0 1 0 0 0 0 -1 forward_v I I I I #
coedge $-1 $286 $191 $287 $288 forward $113 $-1 #
coedge $-1 $289 $115 $286 $290 forward $73 $-1 #
coedge $-1 $115 $289 $291 $292 forward $73 $-1 #
coedge $-1 $194 $193 $115 $187 reversed $195 $-1 #
edge $-1 $293 -20.341159699392414 $294 20.341159699392414 $186 $295 forward 7 unknown #
coedge $-1 $117 $116 $296 $297 forward $46 $-1 #
coedge $-1 $298 $299 $116 $190 reversed $283 $-1 #
edge $-1 $197 -44.179815057832577 $300 44.179815057832577 $189 $301 forward 7 unknown #
coedge $-1 $183 $302 $117 $192 reversed $113 $-1 #
edge $-1 $303 -44.179815057832577 $196 44.179815057832577 $191 $304 forward 7 unknown #
coedge $-1 $186 $118 $302 $305 forward $195 $-1 #
coedge $-1 $118 $186 $298 $306 reversed $195 $-1 #
loop $-1 $-1 $193 $282 #
vertex $-1 $119 $307 #
vertex $-1 $119 $308 #
straight-curve $-1 44.179815057832577 0 8.0128662084367637 0 1 0 I I #
face $-1 $309 $310 $28 $-1 $311 reversed single #
loop $-1 $-1 $312 $120 #
plane-surface $-1 0 -20.341159699392414 0 0 1 0 0 0 1 forward_v I I I I #
coedge $-1 $205 $126 $313 $314 reversed $121 $-1 #
coedge $-1 $315 $123 $312 $316 reversed $77 $-1 #
coedge $-1 $123 $315 $317 $318 reversed $77 $-1 #
coedge $-1 $212 $202 $123 $206 reversed $121 $-1 #
edge $-1 $319 -20.341159699392414 $320 20.341159699392414 $205 $321 forward 7 unknown #
coedge $-1 $125 $124 $322 $323 reversed $49 $-1 #
coedge $-1 $324 $325 $124 $209 forward $326 $-1 #
edge $-1 $327 -24.42657126604416 $214 -15.079916317532675 $208 $328 forward 7 unknown #
coedge $-1 $329 $313 $125 $211 forward $200 $-1 #
edge $-1 $213 15.079916317532675 $330 24.42657126604416 $210 $331 forward 7 unknown #
coedge $-1 $126 $205 $324 $332 reversed $121 $-1 #
vertex $-1 $211 $333 #
vertex $-1 $209 $334 #
straight-curve $-1 -34.833160109321092 0 -2.0426665834630278 0 1 0 I I #
face $-1 $335 $336 $29 $-1 $337 reversed single #
loop $-1 $-1 $227 $128 #
plane-surface $-1 0 -20.341159699392414 0 0 1 0 0 0 1 forward_v I I I I #
coedge $-1 $338 $339 $340 $341 reversed $129 $-1 #
coedge $-1 $342 $131 $343 $344 reversed $81 $-1 #
coedge $-1 $131 $342 $345 $346 reversed $81 $-1 #
coedge $-1 $230 $229 $131 $223 forward $231 $-1 #
edge $-1 $347 -20.341159699392414 $348 20.341159699392414 $222 $349 forward 7 unknown #
coedge $-1 $133 $132 $339 $350 forward $52 $-1 #
coedge $-1 $351 $340 $132 $226 forward $336 $-1 #
edge $-1 $352 15.079916317532675 $232 24.42657126604416 $225 $353 forward 7 unknown #
coedge $-1 $354 $355 $133 $228 forward $217 $-1 #
edge $-1 $233 -24.42657126604416 $356 -15.079916317532675 $227 $357 forward 7 unknown #
coedge $-1 $222 $134 $355 $358 forward $231 $-1 #
coedge $-1 $134 $222 $351 $359 reversed $231 $-1 #
loop $-1 $-1 $134 $335 #
vertex $-1 $359 $360 #
vertex $-1 $358 $361 #
straight-curve $-1 44.179815057832577 0 -2.0426665834630278 0 -1 0 I I #
face $-1 $-1 $362 $30 $-1 $363 forward single #
loop $-1 $-1 $142 $136 #
plane-surface $-1 0 20.341159699392414 0 0 -1 0 0 0 -1 forward_v I I I I #
coedge $-1 $364 $365 $366 $367 reversed $137 $-1 #
coedge $-1 $368 $139 $141 $245 forward $85 $-1 #
coedge $-1 $139 $368 $364 $369 forward $85 $-1 #
coedge $-1 $366 $142 $139 $242 forward $236 $-1 #
edge $-1 $248 -21.122765782592051 $370 -6.2980228708660313 $241 $371 forward 7 unknown #
coedge $-1 $372 $373 $140 $244 forward $362 $-1 #
edge $-1 $374 -1.8808779121465093 $247 5.6966329882712685 $243 $375 forward 7 unknown #
edge $-1 $248 -40.682319398784841 $374 -31.932563443422911 $141 $376 forward 7 unknown #
coedge $-1 $142 $366 $372 $377 reversed $236 $-1 #
vertex $-1 $377 $378 #
vertex $-1 $143 $379 #
straight-curve $-1 34.833160109321092 20.341159699392414 50.250416075743104 0 0 -1 I I #
coedge $-1 $250 $250 $-1 $380 reversed $146 $-1 #
edge $-1 $381 0 $381 6.2831853071796004 $147 $382 forward 7 unknown #
vertex $-1 $150 $383 #
ellipse-curve $-1 24.244058029516786 16.552404249183532 5.8254271902901253 0 0.50000000669873634 0.8660253999169214 1.5 0 0 1 I I #
coedge $-1 $254 $254 $-1 $384 reversed $153 $-1 #
edge $-1 $385 0 $385 6.2831853071796004 $154 $386 forward 7 unknown #
vertex $-1 $157 $387 #
ellipse-curve $-1 30.597519277399364 16.552404249183532 5.8254271902901253 0 0.50000000669873634 0.8660253999169214 1.5 0 0 1 I I #
face $-1 $-1 $270 $33 $-1 $388 reversed single #
loop $-1 $-1 $389 $158 #
plane-surface $-1 0 0 8.0128662084367637 0 0 1 1 0 0 forward_v I I I I #
coedge $-1 $390 $391 $392 $393 reversed $159 $-1 #
coedge $-1 $394 $161 $163 $268 forward $99 $-1 #
coedge $-1 $161 $394 $390 $395 forward $99 $-1 #
coedge $-1 $392 $164 $161 $265 forward $270 $-1 #
edge $-1 $272 7.1670712545865491 $396 20.83308298801855 $264 $397 forward 7 unknown #
coedge $-1 $398 $399 $162 $267 forward $259 $-1 #
edge $-1 $400 -24.779759175744687 $271 -13.891472305805081 $266 $401 forward 7 unknown #
edge $-1 $272 8.4987301443310198e-015 $400 12.982793657320151 $163 $402 forward 7 unknown #
coedge $-1 $164 $392 $398 $403 reversed $270 $-1 #
loop $-1 $-1 $392 $258 #
vertex $-1 $403 $404 #
vertex $-1 $165 $405 #
straight-curve $-1 21.167148375889099 -20.341159699392414 37.523275334779015 0 0 -1 I I #
coedge $-1 $274 $274 $-1 $406 reversed $168 $-1 #
edge $-1 $407 0 $407 6.2831853071796004 $169 $408 forward 7 unknown #
vertex $-1 $172 $409 #
ellipse-curve $-1 25.071723156869659 -14.897016264422613 4.4773980574540353 0 -0.54463904215088732 0.83867056331134215 1.5 0 0 1 I I #
coedge $-1 $278 $278 $-1 $410 reversed $175 $-1 #
edge $-1 $411 0 $411 6.2831853071796004 $176 $412 forward 7 unknown #
vertex $-1 $179 $413 #
ellipse-curve $-1 30.92858532834051 -14.897016264422613 4.4773980574540353 0 -0.54463904215088732 0.83867056331134215 1.5 0 0 1 I I #
face $-1 $-1 $195 $27 $-1 $414 reversed single #
loop $-1 $-1 $298 $180 #
plane-surface $-1 0 20.341159699392414 0 0 -1 0 0 0 -1 forward_v I I I I #
coedge $-1 $415 $296 $299 $416 forward $181 $-1 #
coedge $-1 $302 $183 $184 $290 reversed $113 $-1 #
coedge $-1 $296 $415 $183 $288 reversed $181 $-1 #
edge $-1 $303 -8.0128662084367637 $417 8.0128662084367637 $287 $418 forward 7 unknown #
coedge $-1 $185 $184 $415 $419 forward $73 $-1 #
edge $-1 $294 -44.179815057832577 $417 44.179815057832577 $286 $420 forward 7 unknown #
coedge $-1 $299 $298 $185 $292 reversed $283 $-1 #
edge $-1 $421 -44.179815057832577 $293 44.179815057832577 $291 $422 forward 7 unknown #
vertex $-1 $187 $423 #
vertex $-1 $305 $424 #
straight-curve $-1 44.179815057832577 0 -8.0128662084367637 0 -1 0 I I #
coedge $-1 $285 $287 $188 $297 reversed $181 $-1 #
edge $-1 $300 -20.341159699392414 $303 20.341159699392414 $296 $425 forward 7 unknown #
coedge $-1 $291 $189 $194 $306 forward $283 $-1 #
coedge $-1 $189 $291 $285 $416 reversed $283 $-1 #
vertex $-1 $190 $426 #
straight-curve $-1 0 20.341159699392414 8.0128662084367637 -1 0 0 I I #
coedge $-1 $191 $286 $193 $305 reversed $113 $-1 #
vertex $-1 $297 $427 #
straight-curve $-1 0 -20.341159699392414 8.0128662084367637 1 0 0 I I #
edge $-1 $196 -8.0128662084367637 $294 8.0128662084367637 $193 $428 forward 7 unknown #
edge $-1 $197 -8.0128662084367637 $293 8.0128662084367637 $194 $429 forward 7 unknown #
point $-1 44.179815057832577 -20.341159699392414 8.0128662084367637 #
point $-1 44.179815057832577 20.341159699392414 8.0128662084367637 #
face $-1 $-1 $326 $28 $-1 $430 reversed single #
loop $-1 $-1 $431 $199 #
plane-surface $-1 -44.179815057832577 0 0 1 0 0 0 0 -1 forward_v I I I I #
coedge $-1 $313 $329 $203 $316 forward $200 $-1 #
coedge $-1 $210 $312 $202 $314 forward $200 $-1 #
edge $-1 $320 -3.3600108217982094 $213 -0.24177411504261537 $313 $432 forward 7 unknown #
coedge $-1 $204 $203 $431 $433 reversed $77 $-1 #
edge $-1 $434 -24.42657126604416 $320 -15.079916317532675 $312 $435 forward 7 unknown #
coedge $-1 $325 $324 $204 $318 forward $326 $-1 #
edge $-1 $319 15.079916317532675 $436 24.42657126604416 $317 $437 forward 7 unknown #
vertex $-1 $318 $438 #
vertex $-1 $316 $439 #
straight-curve $-1 -34.833160109321092 0 -5.1609032902186218 0 -1 0 I I #
coedge $-1 $440 $441 $207 $323 forward $310 $-1 #
edge $-1 $330 -20.341159699392414 $327 20.341159699392414 $322 $442 forward 7 unknown #
coedge $-1 $317 $208 $212 $332 forward $326 $-1 #
coedge $-1 $208 $317 $440 $443 reversed $326 $-1 #
loop $-1 $-1 $317 $309 #
vertex $-1 $443 $444 #
straight-curve $-1 -19.753243791788417 20.341159699392414 -2.0426665834630278 1 0 0 I I #
coedge $-1 $312 $210 $441 $445 forward $200 $-1 #
vertex $-1 $445 $446 #
straight-curve $-1 -19.753243791788417 -20.341159699392414 -2.0426665834630278 -1 0 0 I I #
edge $-1 $214 0.24177411504261537 $319 3.3600108217982094 $324 $447 forward 7 unknown #
point $-1 -34.833160109321092 -20.341159699392414 -2.0426665834630278 #
point $-1 -34.833160109321092 20.341159699392414 -2.0426665834630278 #
face $-1 $-1 $231 $29 $-1 $448 reversed single #
loop $-1 $-1 $225 $216 #
plane-surface $-1 0 20.341159699392414 0 0 -1 0 0 0 -1 forward_v I I I I #
coedge $-1 $449 $219 $342 $450 reversed $129 $-1 #
coedge $-1 $219 $449 $224 $350 reversed $129 $-1 #
coedge $-1 $225 $345 $219 $341 forward $336 $-1 #
edge $-1 $451 -3.3600108217982094 $352 -0.24177411504261537 $340 $452 forward 7 unknown #
coedge $-1 $221 $220 $338 $450 forward $81 $-1 #
coedge $-1 $355 $354 $220 $344 forward $217 $-1 #
edge $-1 $453 15.079916317532675 $347 24.42657126604416 $343 $454 forward 7 unknown #
coedge $-1 $340 $351 $221 $346 forward $336 $-1 #
edge $-1 $348 -24.42657126604416 $451 -15.079916317532675 $345 $455 forward 7 unknown #
vertex $-1 $223 $456 #
vertex $-1 $223 $457 #
straight-curve $-1 44.179815057832577 0 -5.1609032902186218 0 1 0 I I #
edge $-1 $352 -20.341159699392414 $356 20.341159699392414 $339 $458 forward 7 unknown #
coedge $-1 $345 $225 $230 $359 forward $336 $-1 #
vertex $-1 $226 $459 #
straight-curve $-1 19.753243791788417 20.341159699392414 -2.0426665834630278 1 0 0 I I #
coedge $-1 $343 $227 $449 $460 forward $217 $-1 #
coedge $-1 $227 $343 $229 $358 reversed $217 $-1 #
vertex $-1 $228 $461 #
straight-curve $-1 19.753243791788417 -20.341159699392414 -2.0426665834630278 -1 0 0 I I #
edge $-1 $233 2.0426665834630278 $347 5.1609032902186218 $229 $462 forward 7 unknown #
edge $-1 $232 2.0426665834630278 $348 5.1609032902186218 $230 $463 forward 7 unknown #
point $-1 44.179815057832577 20.341159699392414 -2.0426665834630278 #
point $-1 44.179815057832577 -20.341159699392414 -2.0426665834630278 #
loop $-1 $-1 $243 $235 #
plane-surface $-1 0 0 8.0128662084367637 0 0 1 1 0 0 forward_v I I I I #
coedge $-1 $365 $238 $240 $369 reversed $137 $-1 #
coedge $-1 $238 $364 $464 $465 reversed $137 $-1 #
coedge $-1 $246 $241 $238 $367 forward $236 $-1 #
edge $-1 $370 -46.61242790359961 $466 -42.237549867306342 $366 $467 forward 7 unknown #
coedge $-1 $240 $239 $373 $468 reversed $85 $-1 #
edge $-1 $469 31.932563443422911 $370 40.682319398784841 $364 $470 forward 7 unknown #
vertex $-1 $242 $471 #
straight-curve $-1 13.710394326729041 20.34115969939241 3.6379881721434906 -1 0 0 I I #
coedge $-1 $464 $243 $246 $377 forward $362 $-1 #
coedge $-1 $243 $464 $368 $468 forward $362 $-1 #
vertex $-1 $244 $472 #
straight-curve $-1 34.833160109321092 14.644526711121145 8.0128662084367619 0 1 0 I I #
straight-curve $-1 34.833160109321092 -14.890762227488153 23.97914814405604 0 -0.8660253999169214 0.50000000669873634 I I #
edge $-1 $247 -34.833160109321092 $466 -20.008417197595072 $246 $473 forward 7 unknown #
point $-1 34.833160109321092 20.341159699392414 8.0128662084367637 #
point $-1 34.833160109321092 20.341159699392414 3.6379881721434906 #
edge $-1 $474 1 $474 0 $250 $-1 forward 7 unknown #
vertex $-1 $251 $475 #
ellipse-curve $-1 24.244058029516786 13.616058190983484 0.73952671973399298 0 0.50000000669873634 0.8660253999169214 1.5 0 0 1 I I #
point $-1 25.744058029516786 16.552404249183539 5.825427190290136 #
edge $-1 $476 1 $476 0 $254 $-1 forward 7 unknown #
vertex $-1 $255 $477 #
ellipse-curve $-1 30.597519277399364 13.616058190983484 0.73952671973399298 0 0.50000000669873634 0.8660253999169214 1.5 0 0 1 I I #
point $-1 32.097519277399364 16.552404249183539 5.825427190290136 #
plane-surface $-1 0 -20.341159699392414 0 0 1 0 0 0 1 forward_v I I I I #
coedge $-1 $399 $398 $391 $478 forward $259 $-1 #
coedge $-1 $391 $261 $263 $395 reversed $159 $-1 #
coedge $-1 $261 $390 $389 $478 reversed $159 $-1 #
coedge $-1 $269 $264 $261 $393 forward $270 $-1 #
edge $-1 $396 -36.581345428307706 $479 -29.510409126342253 $392 $480 forward 7 unknown #
coedge $-1 $263 $262 $399 $481 reversed $99 $-1 #
edge $-1 $482 -12.982793657320151 $396 -8.4987301443310198e-015 $390 $483 forward 7 unknown #
vertex $-1 $265 $484 #
straight-curve $-1 14.000077121302549 -20.341159699392414 0.94192990647130603 1 0 0 I I #
coedge $-1 $389 $266 $269 $403 forward $259 $-1 #
coedge $-1 $266 $389 $394 $481 forward $259 $-1 #
vertex $-1 $267 $485 #
straight-curve $-1 21.167148375889099 -34.232632005197495 8.0128662084367619 0 -1 0 I I #
straight-curve $-1 21.167148375889099 -20.341159699392421 0.94192990647130159 0 0.83867056331134215 0.54463904215088732 I I #
edge $-1 $271 21.167148375889099 $479 34.833160109321099 $269 $486 forward 7 unknown #
point $-1 21.167148375889099 -20.341159699392414 8.0128662084367637 #
point $-1 21.167148375889099 -20.341159699392414 0.94192990647130626 #
edge $-1 $487 1 $487 0 $274 $-1 forward 7 unknown #
vertex $-1 $275 $488 #
ellipse-curve $-1 25.071723156869659 -13.46567454390317 2.2733251318364514 0 -0.54463904215088732 0.83867056331134215 1.5 0 0 1 I I #
point $-1 26.571723156869659 -14.897016264422609 4.4773980574540317 #
edge $-1 $489 1 $489 0 $278 $-1 forward 7 unknown #
vertex $-1 $279 $490 #
ellipse-curve $-1 30.92858532834051 -13.46567454390317 2.2733251318364514 0 -0.54463904215088732 0.83867056331134215 1.5 0 0 1 I I #
point $-1 32.42858532834051 -14.897016264422609 4.4773980574540317 #
plane-surface $-1 44.179815057832577 0 0 -1 0 0 0 0 1 forward_v I I I I #
coedge $-1 $287 $285 $289 $419 reversed $181 $-1 #
edge $-1 $300 -8.0128662084367637 $421 8.0128662084367637 $299 $491 forward 7 unknown #
vertex $-1 $419 $492 #
straight-curve $-1 -44.179815057832577 -20.341159699392414 0 0 0 -1 I I #
edge $-1 $417 -20.341159699392414 $421 20.341159699392414 $415 $493 forward 7 unknown #
straight-curve $-1 0 -20.341159699392414 -8.0128662084367637 -1 0 0 I I #
vertex $-1 $292 $494 #
straight-curve $-1 0 20.341159699392414 -8.0128662084367637 1 0 0 I I #
point $-1 44.179815057832577 20.341159699392414 -8.0128662084367637 #
point $-1 44.179815057832577 -20.341159699392414 -8.0128662084367637 #
straight-curve $-1 -44.179815057832577 0 8.0128662084367637 0 -1 0 I I #
point $-1 -44.179815057832577 20.341159699392414 8.0128662084367637 #
point $-1 -44.179815057832577 -20.341159699392414 8.0128662084367637 #
straight-curve $-1 44.179815057832577 -20.341159699392414 0 0 0 -1 I I #
straight-curve $-1 44.179815057832577 20.341159699392414 0 0 0 -1 I I #
plane-surface $-1 0 20.341159699392414 0 0 -1 0 0 0 -1 forward_v I I I I #
coedge $-1 $441 $440 $315 $433 forward $310 $-1 #
straight-curve $-1 -34.833160109321092 -20.341159699392414 -1.8008924684204124 0 0 1 I I #
edge $-1 $436 -20.341159699392414 $434 20.341159699392414 $431 $495 forward 7 unknown #
vertex $-1 $316 $496 #
straight-curve $-1 -19.753243791788417 -20.341159699392414 -5.1609032902186218 1 0 0 I I #
vertex $-1 $318 $497 #
straight-curve $-1 -19.753243791788417 20.341159699392414 -5.1609032902186218 -1 0 0 I I #
point $-1 -34.833160109321092 20.341159699392414 -5.1609032902186218 #
point $-1 -34.833160109321092 -20.341159699392414 -5.1609032902186218 #
coedge $-1 $431 $322 $325 $443 forward $310 $-1 #
coedge $-1 $322 $431 $329 $445 reversed $310 $-1 #
straight-curve $-1 -44.179815057832577 0 -2.0426665834630278 0 1 0 I I #
edge $-1 $327 2.0426665834630278 $436 5.1609032902186218 $325 $498 forward 7 unknown #
point $-1 -44.179815057832577 20.341159699392414 -2.0426665834630278 #
edge $-1 $330 2.0426665834630278 $434 5.1609032902186218 $441 $499 forward 7 unknown #
point $-1 -44.179815057832577 -20.341159699392414 -2.0426665834630278 #
straight-curve $-1 -34.833160109321092 20.341159699392414 -1.8008924684204124 0 0 -1 I I #
plane-surface $-1 44.179815057832577 0 0 -1 0 0 0 0 1 forward_v I I I I #
coedge $-1 $339 $338 $354 $460 reversed $129 $-1 #
edge $-1 $453 -20.341159699392414 $451 20.341159699392414 $338 $500 forward 7 unknown #
vertex $-1 $346 $501 #
straight-curve $-1 34.833160109321092 20.341159699392414 -1.8008924684204124 0 0 1 I I #
vertex $-1 $344 $502 #
straight-curve $-1 19.753243791788417 -20.341159699392414 -5.1609032902186218 1 0 0 I I #
straight-curve $-1 19.753243791788417 20.341159699392414 -5.1609032902186218 -1 0 0 I I #
point $-1 44.179815057832577 -20.341159699392414 -5.1609032902186218 #
point $-1 44.179815057832577 20.341159699392414 -5.1609032902186218 #
straight-curve $-1 34.833160109321092 0 -2.0426665834630278 0 -1 0 I I #
point $-1 34.833160109321092 20.341159699392414 -2.0426665834630278 #
edge $-1 $356 0.24177411504261537 $453 3.3600108217982094 $354 $503 forward 7 unknown #
point $-1 34.833160109321092 -20.341159699392414 -2.0426665834630278 #
straight-curve $-1 44.179815057832577 -20.341159699392414 0 0 0 -1 I I #
straight-curve $-1 44.179815057832577 20.341159699392414 0 0 0 -1 I I #
coedge $-1 $373 $372 $365 $465 forward $362 $-1 #
edge $-1 $466 -5.6966329882712685 $469 1.8808779121465093 $464 $504 forward 7 unknown #
vertex $-1 $465 $505 #
straight-curve $-1 20.008417197595072 20.341159699392414 50.250416075743104 0 0 1 I I #
edge $-1 $469 6.2980228708660313 $374 21.122765782592051 $373 $506 forward 7 unknown #
vertex $-1 $468 $507 #
straight-curve $-1 20.008417197595072 -14.890762227488153 23.97914814405604 0 0.8660253999169214 -0.50000000669873634 I I #
point $-1 20.008417197595072 20.341159699392414 3.6379881721434906 #
point $-1 34.833160109321092 12.763648798974636 8.0128662084367637 #
straight-curve $-1 0 20.341159699392414 8.0128662084367637 -1 0 0 I I #
vertex $-1 $380 $508 #
point $-1 25.744058029516786 13.616058190983484 0.73952671973399298 #
vertex $-1 $384 $509 #
point $-1 32.097519277399364 13.616058190983484 0.73952671973399298 #
edge $-1 $479 13.891472305805081 $482 24.779759175744687 $389 $510 forward 7 unknown #
vertex $-1 $393 $511 #
straight-curve $-1 34.833160109321099 -20.341159699392414 37.523275334779015 0 0 1 I I #
edge $-1 $482 -20.83308298801855 $400 -7.1670712545865491 $399 $512 forward 7 unknown #
vertex $-1 $481 $513 #
straight-curve $-1 34.833160109321099 -20.341159699392421 0.94192990647130159 0 -0.83867056331134215 -0.54463904215088732 I I #
point $-1 34.833160109321099 -20.341159699392414 0.94192990647130626 #
point $-1 21.167148375889099 -9.4528728294528097 8.0128662084367637 #
straight-curve $-1 0 -20.341159699392414 8.0128662084367637 1 0 0 I I #
vertex $-1 $406 $514 #
point $-1 26.571723156869659 -13.46567454390317 2.2733251318364514 #
vertex $-1 $410 $515 #
point $-1 32.42858532834051 -13.46567454390317 2.2733251318364514 #
straight-curve $-1 -44.179815057832577 20.341159699392414 0 0 0 -1 I I #
point $-1 -44.179815057832577 -20.341159699392414 -8.0128662084367637 #
straight-curve $-1 -44.179815057832577 0 -8.0128662084367637 0 1 0 I I #
point $-1 -44.179815057832577 20.341159699392414 -8.0128662084367637 #
straight-curve $-1 -44.179815057832577 0 -5.1609032902186218 0 -1 0 I I #
point $-1 -44.179815057832577 -20.341159699392414 -5.1609032902186218 #
point $-1 -44.179815057832577 20.341159699392414 -5.1609032902186218 #
straight-curve $-1 -44.179815057832577 20.341159699392414 0 0 0 -1 I I #
straight-curve $-1 -44.179815057832577 -20.341159699392414 0 0 0 -1 I I #
straight-curve $-1 34.833160109321092 0 -5.1609032902186218 0 1 0 I I #
point $-1 34.833160109321092 20.341159699392414 -5.1609032902186218 #
point $-1 34.833160109321092 -20.341159699392414 -5.1609032902186218 #
straight-curve $-1 34.833160109321092 -20.341159699392414 -1.8008924684204124 0 0 -1 I I #
straight-curve $-1 20.008417197595072 14.644526711121145 8.0128662084367619 0 -1 0 I I #
point $-1 20.008417197595072 20.341159699392414 8.0128662084367637 #
straight-curve $-1 13.710394326729041 12.763648798974636 8.0128662084367654 1 0 0 I I #
point $-1 20.008417197595072 12.763648798974636 8.0128662084367637 #
point $-1 24.244058029516786 12.866058180935379 -0.55951138014138913 #
point $-1 30.597519277399364 12.866058180935379 -0.55951138014138913 #
straight-curve $-1 34.833160109321099 -34.232632005197495 8.0128662084367619 0 1 0 I I #
point $-1 34.833160109321099 -20.341159699392414 8.0128662084367637 #
straight-curve $-1 14.000077121302549 -9.4528728294528079 8.0128662084367637 -1 0 0 I I #
point $-1 34.833160109321099 -9.4528728294528097 8.0128662084367637 #
point $-1 25.071723156869659 -12.64871598067684 1.0153192868694378 #
point $-1 30.92858532834051 -12.64871598067684 1.0153192868694378 #
End-of-ACIS-data 