500 0 10 0           
7 Unknown 11 ACIS 5.0 NT 24 Fri Mar 26 17:11:56 1999 
-1 9.9999999999999995e-007 1e-010 
body $-1 $10 $-1 $11 #
body $-1 $12 $-1 $13 #
body $-1 $14 $-1 $15 #
body $-1 $16 $-1 $17 #
body $-1 $18 $-1 $19 #
body $-1 $20 $-1 $21 #
body $-1 $22 $-1 $23 #
body $-1 $24 $-1 $25 #
body $-1 $26 $-1 $27 #
body $-1 $28 $-1 $29 #
lump $-1 $-1 $30 $0 #
transform $-1 1 0 0 0 1 0 0 0 1 69.939878536332287 33.037825310492636 6.6232939989814801 1 rotate no_reflect no_shear #
lump $-1 $-1 $31 $1 #
transform $-1 1 0 0 0 1 0 0 0 1 69.939878536332287 33.037825310492636 6.6232939989814801 1 rotate no_reflect no_shear #
lump $-1 $-1 $32 $2 #
transform $-1 1 0 0 0 1 0 0 0 1 69.939878536332287 33.037825310492636 6.6232939989814801 1 rotate no_reflect no_shear #
lump $-1 $-1 $33 $3 #
transform $-1 1 0 0 0 1 0 0 0 1 69.939878536332287 33.037825310492636 6.6232939989814801 1 rotate no_reflect no_shear #
lump $-1 $-1 $34 $4 #
transform $-1 1 0 0 0 1 0 0 0 1 69.939878536332287 33.037825310492636 6.6232939989814801 1 rotate no_reflect no_shear #
lump $-1 $-1 $35 $5 #
transform $-1 1 0 0 0 1 0 0 0 1 69.939878536332287 33.037825310492636 6.6232939989814801 1 rotate no_reflect no_shear #
lump $-1 $-1 $36 $6 #
transform $-1 1 0 0 0 1 0 0 0 1 69.939878536332287 33.037825310492636 6.6232939989814801 1 rotate no_reflect no_shear #
lump $-1 $-1 $37 $7 #
transform $-1 1 0 0 0 1 0 0 0 1 69.939878536332287 33.037825310492636 6.6232939989814801 1 rotate no_reflect no_shear #
lump $-1 $-1 $38 $8 #
transform $-1 1 0 0 0 1 0 0 0 1 69.939878536332287 33.037825310492636 6.6232939989814801 1 rotate no_reflect no_shear #
lump $-1 $-1 $39 $9 #
transform $-1 1 0 0 0 1 0 0 0 1 69.939878536332287 33.037825310492636 6.6232939989814801 1 rotate no_reflect no_shear #
shell $-1 $-1 $-1 $40 $-1 $10 #
shell $-1 $-1 $-1 $41 $-1 $12 #
shell $-1 $-1 $-1 $42 $-1 $14 #
shell $-1 $-1 $-1 $43 $-1 $16 #
shell $-1 $-1 $-1 $44 $-1 $18 #
shell $-1 $-1 $-1 $45 $-1 $20 #
shell $-1 $-1 $-1 $46 $-1 $22 #
shell $-1 $-1 $-1 $47 $-1 $24 #
shell $-1 $-1 $-1 $48 $-1 $26 #
shell $-1 $-1 $-1 $49 $-1 $28 #
face $-1 $50 $51 $30 $-1 $52 forward single #
face $-1 $53 $54 $31 $-1 $55 forward single #
face $-1 $56 $57 $32 $-1 $58 forward single #
face $-1 $59 $60 $33 $-1 $61 reversed single #
face $-1 $62 $63 $34 $-1 $64 forward single #
face $-1 $65 $66 $35 $-1 $67 reversed single #
face $-1 $68 $69 $36 $-1 $70 forward single #
face $-1 $71 $72 $37 $-1 $73 reversed single #
face $-1 $74 $75 $38 $-1 $76 forward single #
face $-1 $77 $78 $39 $-1 $79 forward single #
face $-1 $80 $81 $30 $-1 $82 reversed single #
loop $-1 $-1 $83 $40 #
plane-surface $-1 0 0 6.6232939989814801 0 0 1 1 0 0 forward_v I I I I #
face $-1 $84 $85 $31 $-1 $86 reversed single #
loop $-1 $-1 $87 $41 #
plane-surface $-1 0 -30.679641979513985 -0.0086722555062195283 0 0 1 1 0 0 forward_v I I I I #
face $-1 $88 $89 $32 $-1 $90 reversed single #
loop $-1 $-1 $91 $42 #
plane-surface $-1 0 30.679641979513988 -0.0086722555062195283 0 0 1 1 0 0 forward_v I I I I #
face $-1 $92 $93 $33 $-1 $94 reversed single #
loop $-1 $-1 $95 $43 #
plane-surface $-1 52.698744650684461 -22.943934870798525 200.25105494381654 0 1 0 0.64278761758704617 0 0.76604443648966558 forward_v I I I I #
face $-1 $96 $97 $34 $-1 $98 forward single #
loop $-1 $99 $100 $44 #
cone-surface $-1 67.500245120950908 -18.892182805111023 4.4385859250159392 -0.64278761758704617 0 -0.76604443648966558 0.76604443648966558 0 -0.64278761758704617 1 I I 0 1 1 forward I I I I #
face $-1 $101 $102 $35 $-1 $103 reversed single #
loop $-1 $-1 $104 $45 #
plane-surface $-1 52.698744650684461 14.840430739423518 200.25105494381654 0 1 0 0.64278761758704617 0 0.76604443648966558 forward_v I I I I #
face $-1 $105 $106 $36 $-1 $107 forward single #
loop $-1 $108 $109 $46 #
cone-surface $-1 67.500245120950908 18.89218280511102 4.4385859250159392 -0.64278761758704617 0 -0.76604443648966558 0.76604443648966558 0 -0.64278761758704617 1 I I 0 1 1 forward I I I I #
face $-1 $110 $111 $37 $-1 $112 reversed single #
loop $-1 $-1 $113 $47 #
plane-surface $-1 -192.28147176854458 -18.768660154538523 69.998624511559157 0 -1 0 0.87461971476443456 0 -0.48480960649040278 forward_v I I I I #
face $-1 $114 $115 $38 $-1 $116 forward single #
loop $-1 $117 $118 $48 #
cone-surface $-1 -67.759151832080235 -25.59208765025053 3.8767085342020442 0.87461971476443456 0 -0.48480960649040278 0.48480960649040278 0 0.87461971476443456 1 I I 0 1 1 forward I I I I #
face $-1 $119 $120 $39 $-1 $121 forward single #
loop $-1 $122 $123 $49 #
cone-surface $-1 -67.759151832080235 -21.498031152823327 3.8767085342020442 0.87461971476443456 0 -0.48480960649040278 0.48480960649040278 0 0.87461971476443456 1 I I 0 1 1 forward I I I I #
face $-1 $124 $125 $30 $-1 $126 reversed single #
loop $-1 $-1 $127 $50 #
plane-surface $-1 0 0 -6.6232939989814801 0 0 1 1 0 0 forward_v I I I I #
coedge $-1 $128 $129 $130 $131 forward $51 $-1 #
face $-1 $132 $133 $31 $-1 $134 reversed single #
loop $-1 $-1 $135 $53 #
plane-surface $-1 0 -30.679641979513985 -3.0086722555062195 0 0 1 1 0 0 forward_v I I I I #
coedge $-1 $136 $137 $138 $139 reversed $54 $-1 #
face $-1 $140 $141 $32 $-1 $142 reversed single #
loop $-1 $-1 $143 $56 #
plane-surface $-1 0 30.679641979513988 -3.0086722555062195 0 0 1 1 0 0 forward_v I I I I #
coedge $-1 $144 $145 $146 $147 reversed $57 $-1 #
face $-1 $148 $149 $33 $-1 $150 reversed single #
loop $-1 $-1 $151 $59 #
plane-surface $-1 -37.214231146708372 -18.892182805111023 93.096945260775897 0.64278761758704617 0 0.76604443648966558 0.76604443648966558 0 -0.64278761758704617 forward_v I I I I #
coedge $-1 $152 $153 $154 $155 reversed $60 $-1 #
face $-1 $-1 $156 $34 $-1 $157 forward single #
loop $-1 $158 $159 $62 #
cone-surface $-1 66.788631539549527 -18.892182805111023 3.5905179006047669 -0.64278761758704617 0 -0.76604443648966558 0.38302221824483279 0 -0.32139380879352308 1 I I -0.70710678118654724 0.70710678118654791 0.5 forward I I I I #
loop $-1 $-1 $160 $44 #
coedge $-1 $100 $100 $161 $162 reversed $63 $-1 #
face $-1 $163 $164 $35 $-1 $165 reversed single #
loop $-1 $-1 $166 $65 #
plane-surface $-1 -37.214231146708372 18.89218280511102 93.096945260775897 0.64278761758704617 0 0.76604443648966558 0.76604443648966558 0 -0.64278761758704617 forward_v I I I I #
coedge $-1 $167 $168 $169 $170 reversed $66 $-1 #
face $-1 $-1 $171 $36 $-1 $172 forward single #
loop $-1 $173 $174 $68 #
cone-surface $-1 66.788631539549527 18.89218280511102 3.5905179006047669 -0.64278761758704617 0 -0.76604443648966558 0.38302221824483279 0 -0.32139380879352308 1 I I -0.70710678118654724 0.70710678118654791 0.5 forward I I I I #
loop $-1 $-1 $175 $46 #
coedge $-1 $109 $109 $176 $177 reversed $69 $-1 #
face $-1 $178 $179 $37 $-1 $180 reversed single #
loop $-1 $-1 $181 $71 #
plane-surface $-1 -69.939878536332287 -23.545059401536928 2.1835745291875099 -0.87461971476443456 0 0.48480960649040278 0.48480960649040278 0 0.87461971476443456 forward_v I I I I #
coedge $-1 $182 $183 $184 $185 reversed $72 $-1 #
face $-1 $-1 $186 $38 $-1 $187 forward single #
loop $-1 $188 $189 $74 #
cone-surface $-1 -66.371603568813626 -25.59208765025053 3.1075780010743896 0.87461971476443456 0 -0.48480960649040278 0.24240480324520139 0 0.43730985738221728 1 I I -0.70710678118654746 0.70710678118654746 0.5 forward I I I I #
loop $-1 $-1 $190 $48 #
coedge $-1 $118 $118 $191 $192 reversed $75 $-1 #
face $-1 $-1 $193 $39 $-1 $194 forward single #
loop $-1 $195 $196 $77 #
cone-surface $-1 -66.371603568813626 -21.498031152823327 3.1075780010743896 0.87461971476443456 0 -0.48480960649040278 0.24240480324520139 0 0.43730985738221728 1 I I -0.70710678118654746 0.70710678118654746 0.5 forward I I I I #
loop $-1 $-1 $197 $49 #
coedge $-1 $123 $123 $198 $199 reversed $78 $-1 #
face $-1 $200 $201 $30 $-1 $202 reversed single #
loop $-1 $-1 $203 $80 #
plane-surface $-1 0 -33.037825310492636 0 0 1 0 0 0 1 forward_v I I I I #
coedge $-1 $204 $205 $206 $207 forward $81 $-1 #
coedge $-1 $208 $83 $209 $210 forward $51 $-1 #
coedge $-1 $83 $208 $211 $212 forward $51 $-1 #
coedge $-1 $213 $214 $83 $131 reversed $215 $-1 #
edge $-1 $216 -33.037825310492636 $217 33.037825310492636 $130 $218 forward 7 unknown #
face $-1 $219 $220 $31 $-1 $221 reversed single #
loop $-1 $-1 $222 $84 #
plane-surface $-1 0 -28.321458648535334 -1.5086722555062195 0 -1 0 0 0 -1 forward_v I I I I #
coedge $-1 $223 $224 $225 $226 reversed $85 $-1 #
coedge $-1 $227 $87 $228 $229 forward $54 $-1 #
coedge $-1 $87 $227 $230 $231 reversed $54 $-1 #
coedge $-1 $232 $233 $87 $139 forward $234 $-1 #
edge $-1 $235 12.981637658778341 $236 17.698004320735642 $138 $237 forward 7 unknown #
face $-1 $238 $239 $32 $-1 $240 reversed single #
loop $-1 $-1 $241 $88 #
plane-surface $-1 0 28.321458648535337 -1.5086722555062195 0 1 0 0 0 1 forward_v I I I I #
coedge $-1 $242 $243 $244 $245 reversed $89 $-1 #
coedge $-1 $246 $91 $247 $248 reversed $57 $-1 #
coedge $-1 $91 $246 $249 $250 forward $57 $-1 #
coedge $-1 $251 $252 $91 $147 forward $239 $-1 #
edge $-1 $253 -17.698004320735642 $254 -12.981637658778343 $146 $255 forward 7 unknown #
face $-1 $256 $257 $33 $-1 $258 forward single #
loop $-1 $-1 $259 $92 #
plane-surface $-1 52.698744650684461 -14.840430739423521 200.25105494381654 0 -1 0 -0.64278761758704617 0 -0.76604443648966558 forward_v I I I I #
coedge $-1 $260 $261 $262 $263 reversed $93 $-1 #
coedge $-1 $153 $95 $264 $265 reversed $60 $-1 #
coedge $-1 $95 $152 $260 $266 reversed $60 $-1 #
coedge $-1 $262 $267 $95 $155 forward $268 $-1 #
edge $-1 $269 93.50223347292679 $270 96.94155800852522 $154 $271 forward 7 unknown #
loop $-1 $-1 $161 $96 #
plane-surface $-1 -37.214231146708372 -18.892182805111023 93.096945260775897 0.64278761758704617 0 0.76604443648966558 0.76604443648966558 0 -0.64278761758704617 forward_v I I I I #
loop $-1 $-1 $272 $62 #
coedge $-1 $159 $159 $160 $273 reversed $97 $-1 #
coedge $-1 $160 $160 $159 $273 forward $99 $-1 #
coedge $-1 $161 $161 $100 $162 forward $156 $-1 #
edge $-1 $274 0 $274 6.2831853071796004 $161 $275 forward 7 unknown #
face $-1 $276 $277 $35 $-1 $278 reversed single #
loop $-1 $-1 $279 $101 #
plane-surface $-1 52.698744650684461 22.943934870798522 200.25105494381654 0 -1 0 -0.64278761758704617 0 -0.76604443648966558 forward_v I I I I #
coedge $-1 $280 $281 $282 $283 reversed $102 $-1 #
coedge $-1 $168 $104 $284 $285 reversed $66 $-1 #
coedge $-1 $104 $167 $280 $286 reversed $66 $-1 #
coedge $-1 $282 $287 $104 $170 forward $277 $-1 #
edge $-1 $288 93.50223347292679 $289 96.94155800852522 $169 $290 forward 7 unknown #
loop $-1 $-1 $176 $105 #
plane-surface $-1 -37.214231146708372 18.89218280511102 93.096945260775897 0.64278761758704617 0 0.76604443648966558 0.76604443648966558 0 -0.64278761758704617 forward_v I I I I #
loop $-1 $-1 $291 $68 #
coedge $-1 $174 $174 $175 $292 reversed $106 $-1 #
coedge $-1 $175 $175 $174 $292 forward $108 $-1 #
coedge $-1 $176 $176 $109 $177 forward $171 $-1 #
edge $-1 $293 0 $293 6.2831853071796004 $176 $294 forward 7 unknown #
face $-1 $295 $296 $37 $-1 $297 reversed single #
loop $-1 $-1 $298 $110 #
plane-surface $-1 -192.28147176854458 -28.321458648535334 69.998624511559157 0 1 0 -0.87461971476443456 0 0.48480960649040278 forward_v I I I I #
coedge $-1 $299 $300 $301 $302 reversed $111 $-1 #
coedge $-1 $183 $113 $303 $304 reversed $72 $-1 #
coedge $-1 $113 $182 $299 $305 reversed $72 $-1 #
coedge $-1 $301 $306 $113 $185 forward $296 $-1 #
edge $-1 $307 28.376018256798098 $308 32.815737726592069 $184 $309 forward 7 unknown #
loop $-1 $-1 $191 $114 #
plane-surface $-1 -69.939878536332287 -23.545059401536928 2.1835745291875099 -0.87461971476443456 0 0.48480960649040278 0.48480960649040278 0 0.87461971476443456 forward_v I I I I #
loop $-1 $-1 $310 $74 #
coedge $-1 $189 $189 $190 $311 reversed $115 $-1 #
coedge $-1 $190 $190 $189 $311 forward $117 $-1 #
coedge $-1 $191 $191 $118 $192 forward $186 $-1 #
edge $-1 $312 0 $312 6.2831853071796004 $191 $313 forward 7 unknown #
loop $-1 $-1 $198 $119 #
plane-surface $-1 -69.939878536332287 -23.545059401536928 2.1835745291875099 -0.87461971476443456 0 0.48480960649040278 0.48480960649040278 0 0.87461971476443456 forward_v I I I I #
loop $-1 $-1 $314 $77 #
coedge $-1 $196 $196 $197 $315 reversed $120 $-1 #
coedge $-1 $197 $197 $196 $315 forward $122 $-1 #
coedge $-1 $198 $198 $123 $199 forward $193 $-1 #
edge $-1 $316 0 $316 6.2831853071796004 $198 $317 forward 7 unknown #
face $-1 $318 $319 $30 $-1 $320 reversed single #
loop $-1 $-1 $321 $124 #
plane-surface $-1 -69.939878536332287 0 0 1 0 0 0 0 -1 forward_v I I I I #
coedge $-1 $322 $211 $323 $324 forward $125 $-1 #
coedge $-1 $325 $127 $322 $326 forward $81 $-1 #
coedge $-1 $127 $325 $327 $328 forward $81 $-1 #
coedge $-1 $214 $213 $127 $207 reversed $215 $-1 #
edge $-1 $329 -33.037825310492636 $330 33.037825310492636 $206 $331 forward 7 unknown #
coedge $-1 $129 $128 $332 $333 forward $51 $-1 #
coedge $-1 $334 $335 $128 $210 reversed $319 $-1 #
edge $-1 $217 -69.939878536332287 $336 69.939878536332287 $209 $337 forward 7 unknown #
coedge $-1 $203 $338 $129 $212 reversed $125 $-1 #
edge $-1 $339 -69.939878536332287 $216 69.939878536332287 $211 $340 forward 7 unknown #
coedge $-1 $206 $130 $338 $341 forward $215 $-1 #
coedge $-1 $130 $206 $334 $342 reversed $215 $-1 #
loop $-1 $-1 $213 $318 #
vertex $-1 $131 $343 #
vertex $-1 $131 $344 #
straight-curve $-1 69.939878536332287 0 6.6232939989814801 0 1 0 I I #
face $-1 $345 $346 $31 $-1 $347 reversed single #
loop $-1 $-1 $348 $132 #
plane-surface $-1 -69.939878536332287 0 0 1 0 0 0 0 -1 forward_v I I I I #
coedge $-1 $349 $228 $233 $350 reversed $133 $-1 #
coedge $-1 $351 $135 $352 $353 reversed $85 $-1 #
coedge $-1 $135 $351 $349 $354 forward $85 $-1 #
coedge $-1 $233 $232 $135 $226 forward $234 $-1 #
edge $-1 $355 -17.698004320735642 $356 -12.981637658778341 $225 $357 forward 7 unknown #
coedge $-1 $137 $136 $348 $358 reversed $54 $-1 #
coedge $-1 $222 $359 $136 $229 reversed $133 $-1 #
edge $-1 $235 -69.939878536332287 $360 69.939878536332287 $228 $361 forward 7 unknown #
coedge $-1 $362 $363 $137 $231 forward $346 $-1 #
edge $-1 $236 -69.939878536332287 $364 69.939878536332287 $230 $365 forward 7 unknown #
coedge $-1 $225 $138 $363 $366 forward $234 $-1 #
coedge $-1 $138 $225 $222 $350 forward $234 $-1 #
loop $-1 $-1 $138 $345 #
vertex $-1 $139 $367 #
vertex $-1 $366 $368 #
straight-curve $-1 69.939878536332287 -15.339820989756992 -0.0086722555062195283 0 -1 0 I I #
face $-1 $369 $370 $32 $-1 $371 reversed single #
loop $-1 $-1 $146 $140 #
plane-surface $-1 69.939878536332287 0 0 -1 0 0 0 0 1 forward_v I I I I #
coedge $-1 $372 $249 $373 $374 reversed $141 $-1 #
coedge $-1 $375 $143 $372 $376 forward $89 $-1 #
coedge $-1 $143 $375 $377 $378 reversed $89 $-1 #
coedge $-1 $252 $251 $143 $245 forward $239 $-1 #
edge $-1 $379 12.981637658778343 $380 17.698004320735642 $244 $381 forward 7 unknown #
coedge $-1 $145 $144 $382 $383 reversed $57 $-1 #
coedge $-1 $384 $385 $144 $248 forward $386 $-1 #
edge $-1 $387 -69.939878536332287 $253 69.939878536332287 $247 $388 forward 7 unknown #
coedge $-1 $241 $389 $145 $250 reversed $141 $-1 #
edge $-1 $390 -69.939878536332287 $254 69.939878536332287 $249 $391 forward 7 unknown #
coedge $-1 $244 $146 $389 $392 forward $239 $-1 #
coedge $-1 $146 $244 $384 $393 reversed $239 $-1 #
vertex $-1 $393 $394 #
vertex $-1 $147 $395 #
straight-curve $-1 69.939878536332287 15.339820989756994 -0.0086722555062195283 0 -1 0 I I #
face $-1 $-1 $268 $33 $-1 $396 reversed single #
loop $-1 $-1 $397 $148 #
plane-surface $-1 0 0 6.6232939989814801 0 0 1 1 0 0 forward_v I I I I #
coedge $-1 $398 $399 $400 $401 reversed $149 $-1 #
coedge $-1 $402 $151 $153 $266 forward $93 $-1 #
coedge $-1 $151 $402 $398 $403 forward $93 $-1 #
coedge $-1 $400 $154 $151 $263 forward $268 $-1 #
edge $-1 $270 -13.497843468243014 $404 -5.3943393368680095 $262 $405 forward 7 unknown #
coedge $-1 $406 $407 $152 $265 forward $257 $-1 #
edge $-1 $408 39.491678925442997 $269 43.590506210990057 $264 $409 forward 7 unknown #
edge $-1 $270 -139.8797570726646 $408 -134.52911801009324 $153 $410 forward 7 unknown #
coedge $-1 $154 $400 $406 $411 reversed $268 $-1 #
loop $-1 $-1 $400 $256 #
vertex $-1 $411 $412 #
vertex $-1 $155 $413 #
straight-curve $-1 69.939878536332287 -22.943934870798525 100.12552747190827 0 0 -1 I I #
coedge $-1 $272 $272 $-1 $414 reversed $158 $-1 #
edge $-1 $415 0 $415 6.2831853071796004 $159 $416 forward 7 unknown #
vertex $-1 $162 $417 #
ellipse-curve $-1 67.890464893558757 -18.892182805111023 4.9036317311822755 0.64278761758704617 0 0.76604443648966558 0.76604443648966558 0 -0.64278761758704617 1 I I #
face $-1 $-1 $418 $35 $-1 $419 forward single #
loop $-1 $-1 $169 $163 #
plane-surface $-1 69.939878536332287 0 0 -1 0 0 0 0 1 forward_v I I I I #
coedge $-1 $420 $421 $422 $423 reversed $164 $-1 #
coedge $-1 $424 $166 $168 $286 forward $102 $-1 #
coedge $-1 $166 $424 $420 $425 forward $102 $-1 #
coedge $-1 $422 $169 $166 $283 forward $277 $-1 #
edge $-1 $289 5.3943393368680077 $426 13.497843468243012 $282 $427 forward 7 unknown #
coedge $-1 $428 $429 $167 $285 forward $418 $-1 #
edge $-1 $430 39.491678925442997 $288 43.590506210990057 $284 $431 forward 7 unknown #
edge $-1 $289 -139.8797570726646 $430 -134.52911801009324 $168 $432 forward 7 unknown #
coedge $-1 $169 $422 $428 $433 reversed $277 $-1 #
vertex $-1 $433 $434 #
vertex $-1 $170 $435 #
straight-curve $-1 69.939878536332287 14.840430739423518 100.12552747190827 0 0 -1 I I #
coedge $-1 $291 $291 $-1 $436 reversed $173 $-1 #
edge $-1 $437 0 $437 6.2831853071796004 $174 $438 forward 7 unknown #
vertex $-1 $177 $439 #
ellipse-curve $-1 67.890464893558757 18.89218280511102 4.9036317311822755 0.64278761758704617 0 0.76604443648966558 0.76604443648966558 0 -0.64278761758704617 1 I I #
face $-1 $-1 $440 $37 $-1 $441 forward single #
loop $-1 $-1 $184 $178 #
plane-surface $-1 -69.939878536332287 0 0 1 0 0 0 0 -1 forward_v I I I I #
coedge $-1 $442 $443 $444 $445 reversed $179 $-1 #
coedge $-1 $446 $181 $183 $305 forward $111 $-1 #
coedge $-1 $181 $446 $442 $447 forward $111 $-1 #
coedge $-1 $444 $184 $181 $302 forward $296 $-1 #
edge $-1 $308 6.9961304537700588 $448 16.548928947766868 $301 $449 forward 7 unknown #
coedge $-1 $450 $451 $182 $304 forward $440 $-1 #
edge $-1 $452 -28.661833944675323 $307 -26.200857347940001 $303 $453 forward 7 unknown #
edge $-1 $308 0 $452 5.0761712717506509 $183 $454 forward 7 unknown #
coedge $-1 $184 $444 $450 $455 reversed $296 $-1 #
vertex $-1 $455 $456 #
vertex $-1 $185 $457 #
straight-curve $-1 -69.939878536332287 -18.768660154538523 34.999312255779579 0 0 -1 I I #
coedge $-1 $310 $310 $-1 $458 reversed $188 $-1 #
edge $-1 $459 0 $459 6.2831853071796004 $189 $460 forward 7 unknown #
vertex $-1 $192 $461 #
ellipse-curve $-1 -68.709390237964627 -25.59208765025053 4.4034342640844972 -0.87461971476443456 0 0.48480960649040278 0.48480960649040278 0 0.87461971476443456 1 I I #
coedge $-1 $314 $314 $-1 $462 reversed $195 $-1 #
edge $-1 $463 0 $463 6.2831853071796004 $196 $464 forward 7 unknown #
vertex $-1 $199 $465 #
ellipse-curve $-1 -68.709390237964627 -21.498031152823327 4.4034342640844972 -0.87461971476443456 0 0.48480960649040278 0.48480960649040278 0 0.87461971476443456 1 I I #
face $-1 $-1 $215 $30 $-1 $466 reversed single #
loop $-1 $-1 $334 $200 #
plane-surface $-1 0 33.037825310492636 0 0 -1 0 0 0 -1 forward_v I I I I #
coedge $-1 $467 $332 $335 $468 forward $201 $-1 #
coedge $-1 $338 $203 $204 $326 reversed $125 $-1 #
coedge $-1 $332 $467 $203 $324 reversed $201 $-1 #
edge $-1 $339 -6.6232939989814801 $469 6.6232939989814801 $323 $470 forward 7 unknown #
coedge $-1 $205 $204 $467 $471 forward $81 $-1 #
edge $-1 $330 -69.939878536332287 $469 69.939878536332287 $322 $472 forward 7 unknown #
coedge $-1 $335 $334 $205 $328 reversed $319 $-1 #
edge $-1 $473 -69.939878536332287 $329 69.939878536332287 $327 $474 forward 7 unknown #
vertex $-1 $207 $475 #
vertex $-1 $341 $476 #
straight-curve $-1 69.939878536332287 0 -6.6232939989814801 0 -1 0 I I #
coedge $-1 $321 $323 $208 $333 reversed $201 $-1 #
edge $-1 $336 -33.037825310492636 $339 33.037825310492636 $332 $477 forward 7 unknown #
coedge $-1 $327 $209 $214 $342 forward $319 $-1 #
coedge $-1 $209 $327 $321 $468 reversed $319 $-1 #
vertex $-1 $210 $478 #
straight-curve $-1 0 33.037825310492636 6.6232939989814801 -1 0 0 I I #
coedge $-1 $211 $322 $213 $341 reversed $125 $-1 #
vertex $-1 $333 $479 #
straight-curve $-1 0 -33.037825310492636 6.6232939989814801 1 0 0 I I #
edge $-1 $216 -6.6232939989814801 $330 6.6232939989814801 $213 $480 forward 7 unknown #
edge $-1 $217 -6.6232939989814801 $329 6.6232939989814801 $214 $481 forward 7 unknown #
point $-1 69.939878536332287 -33.037825310492636 6.6232939989814801 #
point $-1 69.939878536332287 33.037825310492636 6.6232939989814801 #
face $-1 $-1 $234 $31 $-1 $482 reversed single #
loop $-1 $-1 $230 $219 #
plane-surface $-1 0 -33.037825310492636 0 0 1 0 0 0 1 forward_v I I I I #
coedge $-1 $483 $484 $227 $358 forward $220 $-1 #
coedge $-1 $359 $222 $224 $354 reversed $133 $-1 #
edge $-1 $356 -2.2543361277531098 $235 0.74566387224689024 $233 $485 forward 7 unknown #
coedge $-1 $224 $223 $486 $487 reversed $85 $-1 #
coedge $-1 $363 $362 $223 $353 forward $346 $-1 #
edge $-1 $488 -69.939878536332287 $355 69.939878536332287 $352 $489 forward 7 unknown #
edge $-1 $490 -69.939878536332287 $356 69.939878536332287 $349 $491 forward 7 unknown #
vertex $-1 $353 $492 #
vertex $-1 $226 $493 #
straight-curve $-1 69.939878536332287 -15.339820989756992 -3.0086722555062195 0 1 0 I I #
edge $-1 $364 -17.698004320735642 $360 -12.981637658778341 $348 $494 forward 7 unknown #
coedge $-1 $228 $349 $483 $495 reversed $133 $-1 #
vertex $-1 $358 $496 #
straight-curve $-1 0 -28.321458648535334 -0.0086722555062195283 -1 0 0 I I #
coedge $-1 $352 $230 $484 $497 forward $346 $-1 #
coedge $-1 $230 $352 $232 $366 reversed $346 $-1 #
vertex $-1 $497 $498 #
straight-curve $-1 0 -33.037825310492636 -0.0086722555062195283 -1 0 0 I I #
edge $-1 $236 0.0086722555062195283 $355 3.0086722555062195 $232 $499 forward 7 unknown #
point $-1 69.939878536332287 -28.321458648535334 -0.0086722555062195283 #
point $-1 69.939878536332287 -33.037825310492636 -0.0086722555062195283 #
face $-1 $-1 $386 $32 $-1 $500 reversed single #
loop $-1 $-1 $382 $238 #
plane-surface $-1 -69.939878536332287 0 0 1 0 0 0 0 -1 forward_v I I I I #
coedge $-1 $389 $241 $242 $376 reversed $141 $-1 #
coedge $-1 $382 $501 $241 $374 forward $370 $-1 #
edge $-1 $502 -2.2543361277531098 $390 0.74566387224689024 $373 $503 forward 7 unknown #
coedge $-1 $243 $242 $501 $504 reversed $89 $-1 #
edge $-1 $379 -69.939878536332287 $502 69.939878536332287 $372 $505 forward 7 unknown #
coedge $-1 $385 $384 $243 $378 forward $386 $-1 #
edge $-1 $380 -69.939878536332287 $506 69.939878536332287 $377 $507 forward 7 unknown #
vertex $-1 $245 $508 #
vertex $-1 $378 $509 #
straight-curve $-1 69.939878536332287 15.339820989756994 -3.0086722555062195 0 1 0 I I #
coedge $-1 $510 $373 $246 $383 forward $370 $-1 #
edge $-1 $390 12.981637658778343 $387 17.698004320735642 $382 $511 forward 7 unknown #
coedge $-1 $377 $247 $252 $393 forward $386 $-1 #
coedge $-1 $247 $377 $510 $512 reversed $386 $-1 #
loop $-1 $-1 $247 $369 #
vertex $-1 $512 $513 #
straight-curve $-1 0 33.037825310492636 -0.0086722555062195283 1 0 0 I I #
coedge $-1 $249 $372 $251 $392 reversed $141 $-1 #
vertex $-1 $383 $514 #
straight-curve $-1 0 28.321458648535337 -0.0086722555062195283 1 0 0 I I #
edge $-1 $254 -0.74566387224689024 $379 2.2543361277531098 $251 $515 forward 7 unknown #
edge $-1 $253 0.0086722555062195283 $380 3.0086722555062195 $252 $516 forward 7 unknown #
point $-1 69.939878536332287 33.037825310492636 -0.0086722555062195283 #
point $-1 69.939878536332287 28.321458648535337 -0.0086722555062195283 #
plane-surface $-1 69.939878536332287 0 0 -1 0 0 0 0 1 forward_v I I I I #
coedge $-1 $407 $406 $399 $517 forward $257 $-1 #
coedge $-1 $399 $259 $261 $403 reversed $149 $-1 #
coedge $-1 $259 $398 $397 $517 reversed $149 $-1 #
coedge $-1 $267 $262 $259 $401 forward $268 $-1 #
edge $-1 $404 -96.94155800852522 $518 -93.50223347292679 $400 $519 forward 7 unknown #
coedge $-1 $261 $260 $407 $520 reversed $93 $-1 #
edge $-1 $521 134.52911801009324 $404 139.8797570726646 $398 $522 forward 7 unknown #
vertex $-1 $263 $523 #
straight-curve $-1 69.939878536332273 -9.4460914025555116 3.1839694633830646 0 1 0 I I #
coedge $-1 $397 $264 $267 $411 forward $257 $-1 #
coedge $-1 $264 $397 $402 $520 forward $257 $-1 #
vertex $-1 $265 $524 #
straight-curve $-1 26.34937232534223 -22.943934870798525 6.623293998981481 1 0 0 I I #
straight-curve $-1 -37.214231146708372 -22.943934870798525 93.096945260775897 -0.76604443648966558 0 0.64278761758704617 I I #
edge $-1 $269 -22.943934870798525 $518 -14.840430739423521 $267 $525 forward 7 unknown #
point $-1 69.939878536332287 -22.943934870798525 6.6232939989814801 #
point $-1 69.939878536332301 -22.943934870798525 3.1839694633830504 #
edge $-1 $526 1 $526 0 $272 $-1 forward 7 unknown #
vertex $-1 $273 $527 #
ellipse-curve $-1 67.110025348343058 -18.892182805111023 3.9735401188496002 0.64278761758704617 0 0.76604443648966558 0.76604443648966558 0 -0.64278761758704617 1 I I #
point $-1 68.656509330048422 -18.892182805111023 4.2608441135952315 #
loop $-1 $-1 $284 $276 #
plane-surface $-1 0 0 6.6232939989814801 0 0 1 1 0 0 forward_v I I I I #
coedge $-1 $421 $279 $281 $425 reversed $164 $-1 #
coedge $-1 $279 $420 $528 $529 reversed $164 $-1 #
coedge $-1 $287 $282 $279 $423 forward $277 $-1 #
edge $-1 $426 -96.94155800852522 $530 -93.50223347292679 $422 $531 forward 7 unknown #
coedge $-1 $281 $280 $429 $532 reversed $102 $-1 #
edge $-1 $533 134.52911801009324 $426 139.8797570726646 $420 $534 forward 7 unknown #
vertex $-1 $283 $535 #
straight-curve $-1 69.939878536332273 9.4460914025555098 3.1839694633830646 0 1 0 I I #
coedge $-1 $528 $284 $287 $433 forward $418 $-1 #
coedge $-1 $284 $528 $424 $532 forward $418 $-1 #
vertex $-1 $285 $536 #
straight-curve $-1 26.34937232534223 14.840430739423518 6.623293998981481 1 0 0 I I #
straight-curve $-1 -37.214231146708372 14.840430739423518 93.096945260775897 -0.76604443648966558 0 0.64278761758704617 I I #
edge $-1 $288 14.840430739423518 $530 22.943934870798522 $287 $537 forward 7 unknown #
point $-1 69.939878536332287 14.840430739423518 6.6232939989814801 #
point $-1 69.939878536332301 14.840430739423518 3.1839694633830504 #
edge $-1 $538 1 $538 0 $291 $-1 forward 7 unknown #
vertex $-1 $292 $539 #
ellipse-curve $-1 67.110025348343058 18.89218280511102 3.9735401188496002 0.64278761758704617 0 0.76604443648966558 0.76604443648966558 0 -0.64278761758704617 1 I I #
point $-1 68.656509330048422 18.89218280511102 4.2608441135952315 #
loop $-1 $-1 $303 $295 #
plane-surface $-1 0 0 6.6232939989814801 0 0 1 1 0 0 forward_v I I I I #
coedge $-1 $443 $298 $300 $447 reversed $179 $-1 #
coedge $-1 $298 $442 $540 $541 reversed $179 $-1 #
coedge $-1 $306 $301 $298 $445 forward $296 $-1 #
edge $-1 $448 -32.815737726592069 $542 -28.376018256798098 $444 $543 forward 7 unknown #
coedge $-1 $300 $299 $451 $544 reversed $111 $-1 #
edge $-1 $545 -5.0761712717506509 $448 0 $442 $546 forward 7 unknown #
vertex $-1 $302 $547 #
straight-curve $-1 -69.939878536332287 -11.772529700768464 2.1835745291875179 0 -1 0 I I #
coedge $-1 $540 $303 $306 $455 forward $440 $-1 #
coedge $-1 $303 $540 $446 $544 forward $440 $-1 #
vertex $-1 $304 $548 #
straight-curve $-1 -96.140735884272289 -18.768660154538523 6.623293998981481 -1 0 0 I I #
straight-curve $-1 -69.939878536332287 -18.768660154538523 2.1835745291875099 0.48480960649040278 0 0.87461971476443456 I I #
edge $-1 $307 18.768660154538523 $542 28.321458648535334 $306 $549 forward 7 unknown #
point $-1 -69.939878536332287 -18.768660154538523 6.6232939989814801 #
point $-1 -69.939878536332287 -18.768660154538523 2.1835745291875099 #
edge $-1 $550 1 $550 0 $310 $-1 forward 7 unknown #
vertex $-1 $311 $551 #
ellipse-curve $-1 -66.808913426195843 -25.59208765025053 3.3499828043195912 -0.87461971476443456 0 0.48480960649040278 0.48480960649040278 0 0.87461971476443456 1 I I #
point $-1 -68.224580631474225 -25.59208765025053 5.2780539788489316 #
edge $-1 $552 1 $552 0 $314 $-1 forward 7 unknown #
vertex $-1 $315 $553 #
ellipse-curve $-1 -66.808913426195843 -21.498031152823327 3.3499828043195912 -0.87461971476443456 0 0.48480960649040278 0.48480960649040278 0 0.87461971476443456 1 I I #
point $-1 -68.224580631474225 -21.498031152823327 5.2780539788489316 #
plane-surface $-1 69.939878536332287 0 0 -1 0 0 0 0 1 forward_v I I I I #
coedge $-1 $323 $321 $325 $471 reversed $201 $-1 #
edge $-1 $336 -6.6232939989814801 $473 6.6232939989814801 $335 $554 forward 7 unknown #
vertex $-1 $471 $555 #
straight-curve $-1 -69.939878536332287 -33.037825310492636 0 0 0 -1 I I #
edge $-1 $469 -33.037825310492636 $473 33.037825310492636 $467 $556 forward 7 unknown #
straight-curve $-1 0 -33.037825310492636 -6.6232939989814801 -1 0 0 I I #
vertex $-1 $328 $557 #
straight-curve $-1 0 33.037825310492636 -6.6232939989814801 1 0 0 I I #
point $-1 69.939878536332287 33.037825310492636 -6.6232939989814801 #
point $-1 69.939878536332287 -33.037825310492636 -6.6232939989814801 #
straight-curve $-1 -69.939878536332287 0 6.6232939989814801 0 -1 0 I I #
point $-1 -69.939878536332287 33.037825310492636 6.6232939989814801 #
point $-1 -69.939878536332287 -33.037825310492636 6.6232939989814801 #
straight-curve $-1 69.939878536332287 -33.037825310492636 0 0 0 -1 I I #
straight-curve $-1 69.939878536332287 33.037825310492636 0 0 0 -1 I I #
plane-surface $-1 69.939878536332287 0 0 -1 0 0 0 0 1 forward_v I I I I #
coedge $-1 $486 $348 $359 $495 forward $220 $-1 #
coedge $-1 $348 $486 $362 $497 reversed $220 $-1 #
straight-curve $-1 69.939878536332287 -28.321458648535334 -0.75433612775310976 0 0 1 I I #
coedge $-1 $484 $483 $351 $487 forward $220 $-1 #
edge $-1 $490 12.981637658778341 $488 17.698004320735642 $486 $558 forward 7 unknown #
vertex $-1 $353 $559 #
straight-curve $-1 0 -33.037825310492636 -3.0086722555062195 1 0 0 I I #
vertex $-1 $487 $560 #
straight-curve $-1 0 -28.321458648535334 -3.0086722555062195 1 0 0 I I #
point $-1 69.939878536332287 -33.037825310492636 -3.0086722555062195 #
point $-1 69.939878536332287 -28.321458648535334 -3.0086722555062195 #
straight-curve $-1 -69.939878536332287 -15.339820989756992 -0.0086722555062195283 0 1 0 I I #
edge $-1 $360 -0.74566387224689024 $490 2.2543361277531098 $483 $561 forward 7 unknown #
point $-1 -69.939878536332287 -28.321458648535334 -0.0086722555062195283 #
edge $-1 $364 0.0086722555062195283 $488 3.0086722555062195 $484 $562 forward 7 unknown #
point $-1 -69.939878536332287 -33.037825310492636 -0.0086722555062195283 #
straight-curve $-1 69.939878536332287 -33.037825310492636 0 0 0 -1 I I #
plane-surface $-1 0 33.037825310492636 0 0 -1 0 0 0 -1 forward_v I I I I #
coedge $-1 $373 $510 $375 $504 forward $370 $-1 #
vertex $-1 $504 $563 #
straight-curve $-1 -69.939878536332287 28.321458648535337 -0.75433612775310976 0 0 1 I I #
edge $-1 $506 -17.698004320735642 $502 -12.981637658778343 $501 $564 forward 7 unknown #
straight-curve $-1 0 28.321458648535337 -3.0086722555062195 -1 0 0 I I #
vertex $-1 $378 $565 #
straight-curve $-1 0 33.037825310492636 -3.0086722555062195 -1 0 0 I I #
point $-1 69.939878536332287 28.321458648535337 -3.0086722555062195 #
point $-1 69.939878536332287 33.037825310492636 -3.0086722555062195 #
coedge $-1 $501 $382 $385 $512 forward $370 $-1 #
straight-curve $-1 -69.939878536332287 15.339820989756994 -0.0086722555062195283 0 1 0 I I #
edge $-1 $387 0.0086722555062195283 $506 3.0086722555062195 $385 $566 forward 7 unknown #
point $-1 -69.939878536332287 33.037825310492636 -0.0086722555062195283 #
point $-1 -69.939878536332287 28.321458648535337 -0.0086722555062195283 #
straight-curve $-1 69.939878536332287 28.321458648535337 -0.75433612775310976 0 0 -1 I I #
straight-curve $-1 69.939878536332287 33.037825310492636 0 0 0 -1 I I #
edge $-1 $518 -43.590506210990057 $521 -39.491678925442997 $397 $567 forward 7 unknown #
vertex $-1 $517 $568 #
straight-curve $-1 69.939878536332287 -14.840430739423521 100.12552747190827 0 0 1 I I #
edge $-1 $521 5.3943393368680095 $408 13.497843468243014 $407 $569 forward 7 unknown #
vertex $-1 $520 $570 #
straight-curve $-1 -37.214231146708372 -14.840430739423521 93.096945260775897 0.76604443648966558 0 -0.64278761758704617 I I #
point $-1 69.939878536332301 -14.840430739423521 3.1839694633830504 #
point $-1 65.841051250785227 -22.943934870798525 6.623293998981481 #
straight-curve $-1 69.939878536332287 0 6.6232939989814801 0 1 0 I I #
vertex $-1 $414 $571 #
point $-1 67.876069784832723 -18.892182805111023 3.3307525012625541 #
coedge $-1 $429 $428 $421 $529 forward $418 $-1 #
edge $-1 $530 -43.590506210990057 $533 -39.491678925442997 $528 $572 forward 7 unknown #
vertex $-1 $529 $573 #
straight-curve $-1 69.939878536332287 22.943934870798522 100.12552747190827 0 0 1 I I #
edge $-1 $533 -13.497843468243012 $430 -5.3943393368680077 $429 $574 forward 7 unknown #
vertex $-1 $532 $575 #
straight-curve $-1 -37.214231146708372 22.943934870798522 93.096945260775897 0.76604443648966558 0 -0.64278761758704617 I I #
point $-1 69.939878536332301 22.943934870798522 3.1839694633830504 #
point $-1 65.841051250785227 14.840430739423518 6.623293998981481 #
straight-curve $-1 69.939878536332287 0 6.6232939989814801 0 1 0 I I #
vertex $-1 $436 $576 #
point $-1 67.876069784832723 18.89218280511102 3.3307525012625541 #
coedge $-1 $451 $450 $443 $541 forward $440 $-1 #
edge $-1 $542 26.200857347940001 $545 28.661833944675323 $540 $577 forward 7 unknown #
vertex $-1 $541 $578 #
straight-curve $-1 -69.939878536332287 -28.321458648535334 34.999312255779579 0 0 1 I I #
edge $-1 $545 -16.548928947766868 $452 -6.9961304537700588 $451 $579 forward 7 unknown #
vertex $-1 $544 $580 #
straight-curve $-1 -69.939878536332287 -28.321458648535334 2.1835745291875099 -0.48480960649040278 0 -0.87461971476443456 I I #
point $-1 -69.939878536332287 -28.321458648535334 2.1835745291875099 #
point $-1 -67.478901939596966 -18.768660154538523 6.6232939989814801 #
straight-curve $-1 -69.939878536332287 0 6.6232939989814801 0 -1 0 I I #
vertex $-1 $458 $581 #
point $-1 -66.324103819705442 -25.59208765025053 4.2246025190840255 #
vertex $-1 $462 $582 #
point $-1 -66.324103819705442 -21.498031152823327 4.2246025190840255 #
straight-curve $-1 -69.939878536332287 33.037825310492636 0 0 0 -1 I I #
point $-1 -69.939878536332287 -33.037825310492636 -6.6232939989814801 #
straight-curve $-1 -69.939878536332287 0 -6.6232939989814801 0 1 0 I I #
point $-1 -69.939878536332287 33.037825310492636 -6.6232939989814801 #
straight-curve $-1 -69.939878536332287 -15.339820989756992 -3.0086722555062195 0 -1 0 I I #
point $-1 -69.939878536332287 -33.037825310492636 -3.0086722555062195 #
point $-1 -69.939878536332287 -28.321458648535334 -3.0086722555062195 #
straight-curve $-1 -69.939878536332287 -28.321458648535334 -0.75433612775310976 0 0 -1 I I #
straight-curve $-1 -69.939878536332287 -33.037825310492636 0 0 0 -1 I I #
point $-1 -69.939878536332287 28.321458648535337 -3.0086722555062195 #
straight-curve $-1 -69.939878536332287 15.339820989756994 -3.0086722555062195 0 -1 0 I I #
point $-1 -69.939878536332287 33.037825310492636 -3.0086722555062195 #
straight-curve $-1 -69.939878536332287 33.037825310492636 0 0 0 -1 I I #
straight-curve $-1 26.34937232534223 -14.840430739423521 6.623293998981481 -1 0 0 I I #
point $-1 69.939878536332287 -14.840430739423521 6.6232939989814801 #
straight-curve $-1 65.841051250785213 -9.4460914025555116 6.623293998981481 0 -1 0 I I #
point $-1 65.841051250785227 -14.840430739423521 6.623293998981481 #
point $-1 66.467237730755997 -18.892182805111023 3.2074956823599337 #
straight-curve $-1 26.34937232534223 22.943934870798522 6.623293998981481 -1 0 0 I I #
point $-1 69.939878536332287 22.943934870798522 6.6232939989814801 #
straight-curve $-1 65.841051250785213 9.4460914025555098 6.623293998981481 0 -1 0 I I #
point $-1 65.841051250785227 22.943934870798522 6.623293998981481 #
point $-1 66.467237730755997 18.89218280511102 3.2074956823599337 #
straight-curve $-1 -96.140735884272289 -28.321458648535334 6.623293998981481 1 0 0 I I #
point $-1 -69.939878536332287 -28.321458648535334 6.6232939989814801 #
straight-curve $-1 -67.478901939596966 -11.772529700768464 6.6232939989814792 0 1 0 I I #
point $-1 -67.478901939596966 -28.321458648535334 6.6232939989814801 #
point $-1 -65.934293711431408 -25.59208765025053 2.8651731978291881 #
point $-1 -65.934293711431408 -21.498031152823327 2.8651731978291881 #
End-of-ACIS-data 