500 0 4 0           
7 Unknown 11 ACIS 5.0 NT 24 Fri Mar 26 17:04:23 1999 
-1 9.9999999999999995e-007 1e-010 
body $-1 $4 $-1 $5 #
body $-1 $6 $-1 $7 #
body $-1 $8 $-1 $9 #
body $-1 $10 $-1 $11 #
lump $-1 $-1 $12 $0 #
transform $-1 1 0 0 0 1 0 0 0 1 73.412884914700768 46.013951469501066 19.12232367780053 1 rotate no_reflect no_shear #
lump $-1 $-1 $13 $1 #
transform $-1 1 0 0 0 1 0 0 0 1 73.412884914700768 46.013951469501066 19.12232367780053 1 rotate no_reflect no_shear #
lump $-1 $-1 $14 $2 #
transform $-1 1 0 0 0 1 0 0 0 1 73.412884914700768 46.013951469501066 19.12232367780053 1 rotate no_reflect no_shear #
lump $-1 $-1 $15 $3 #
transform $-1 1 0 0 0 1 0 0 0 1 73.412884914700768 46.013951469501066 19.12232367780053 1 rotate no_reflect no_shear #
shell $-1 $-1 $-1 $16 $-1 $4 #
shell $-1 $-1 $-1 $17 $-1 $6 #
shell $-1 $-1 $-1 $18 $-1 $8 #
shell $-1 $-1 $-1 $19 $-1 $10 #
face $-1 $20 $21 $12 $-1 $22 forward single #
face $-1 $23 $24 $13 $-1 $25 reversed single #
face $-1 $26 $27 $14 $-1 $28 forward single #
face $-1 $29 $30 $15 $-1 $31 reversed single #
face $-1 $32 $33 $12 $-1 $34 reversed single #
loop $-1 $-1 $35 $16 #
plane-surface $-1 0 0 19.12232367780053 0 0 1 1 0 0 forward_v I I I I #
face $-1 $36 $37 $13 $-1 $38 forward single #
loop $-1 $-1 $39 $17 #
plane-surface $-1 0 -35.405517498394715 -10.675400328784129 0 0 1 1 0 0 forward_v I I I I #
face $-1 $40 $41 $14 $-1 $42 forward single #
loop $-1 $-1 $43 $18 #
plane-surface $-1 87.897330660421247 26.457122238553929 222.42355283349619 0 1 0 0.75470958851134928 0 0.65605901945558964 forward_v I I I I #
face $-1 $44 $45 $15 $-1 $46 reversed single #
loop $-1 $47 $48 $19 #
cone-surface $-1 70.905024672017632 36.235536854027515 16.473633962268654 -0.75470958851134928 0 -0.65605901945558964 0.65605901945558964 0 -0.75470958851134928 1 I I 0 1 1 forward I I I I #
face $-1 $49 $50 $12 $-1 $51 reversed single #
loop $-1 $-1 $52 $20 #
plane-surface $-1 0 0 -19.12232367780053 0 0 1 1 0 0 forward_v I I I I #
coedge $-1 $53 $54 $55 $56 forward $21 $-1 #
face $-1 $57 $58 $13 $-1 $59 reversed single #
loop $-1 $-1 $60 $23 #
plane-surface $-1 0 -24.797083527288361 -14.898862003292329 0 -1 0 0 0 -1 forward_v I I I I #
coedge $-1 $61 $62 $63 $64 reversed $24 $-1 #
face $-1 $65 $66 $14 $-1 $67 reversed single #
loop $-1 $-1 $68 $26 #
plane-surface $-1 -22.913485670388468 36.235536854027501 126.09718224840692 0.75470958851134928 0 0.65605901945558964 0.65605901945558964 0 -0.75470958851134928 forward_v I I I I #
coedge $-1 $69 $70 $71 $72 reversed $27 $-1 #
face $-1 $73 $74 $15 $-1 $75 forward single #
loop $-1 $76 $77 $29 #
cone-surface $-1 69.687083196420488 36.235536854027515 15.414893617110657 -0.75470958851134928 0 -0.65605901945558964 0.32802950972779482 0 -0.37735479425567464 1 I I -0.70710678118654746 0.70710678118654746 0.5 forward I I I I #
loop $-1 $-1 $78 $19 #
coedge $-1 $48 $48 $79 $80 reversed $30 $-1 #
face $-1 $81 $82 $12 $-1 $83 reversed single #
loop $-1 $-1 $84 $32 #
plane-surface $-1 0 -46.013951469501066 0 0 1 0 0 0 1 forward_v I I I I #
coedge $-1 $85 $86 $87 $88 forward $33 $-1 #
coedge $-1 $89 $35 $90 $91 forward $21 $-1 #
coedge $-1 $35 $89 $92 $93 forward $21 $-1 #
coedge $-1 $94 $95 $35 $56 reversed $96 $-1 #
edge $-1 $97 -46.013951469501066 $98 46.013951469501066 $55 $99 forward 7 unknown #
face $-1 $100 $101 $13 $-1 $102 reversed single #
loop $-1 $-1 $103 $36 #
plane-surface $-1 0 -46.013951469501066 0 0 1 0 0 0 1 forward_v I I I I #
coedge $-1 $104 $105 $106 $107 reversed $37 $-1 #
coedge $-1 $108 $39 $103 $109 reversed $24 $-1 #
coedge $-1 $39 $108 $104 $110 reversed $24 $-1 #
coedge $-1 $106 $111 $39 $64 forward $112 $-1 #
edge $-1 $113 -28.311192720303708 $114 -7.0943247780910035 $63 $115 forward 7 unknown #
face $-1 $116 $117 $14 $-1 $118 forward single #
loop $-1 $-1 $119 $40 #
plane-surface $-1 73.412884914700768 0 0 -1 0 0 0 0 1 forward_v I I I I #
coedge $-1 $120 $121 $119 $122 reversed $41 $-1 #
coedge $-1 $70 $43 $121 $123 forward $27 $-1 #
coedge $-1 $43 $69 $124 $125 reversed $27 $-1 #
coedge $-1 $126 $119 $43 $72 forward $66 $-1 #
edge $-1 $127 -95.925410499150843 $128 -92.089452738947557 $71 $129 forward 7 unknown #
face $-1 $130 $131 $15 $-1 $132 forward single #
loop $-1 $-1 $133 $44 #
plane-surface $-1 87.897330660421247 26.457122238553929 222.42355283349619 0 1 0 0.75470958851134928 0 0.65605901945558964 forward_v I I I I #
loop $-1 $-1 $134 $29 #
coedge $-1 $77 $77 $78 $135 forward $45 $-1 #
coedge $-1 $78 $78 $77 $135 reversed $47 $-1 #
coedge $-1 $79 $79 $48 $80 forward $131 $-1 #
edge $-1 $136 0 $136 6.2831853071796004 $79 $137 forward 7 unknown #
face $-1 $138 $139 $12 $-1 $140 reversed single #
loop $-1 $-1 $141 $49 #
plane-surface $-1 -73.412884914700768 0 0 1 0 0 0 0 -1 forward_v I I I I #
coedge $-1 $142 $92 $143 $144 forward $50 $-1 #
coedge $-1 $145 $52 $142 $146 forward $33 $-1 #
coedge $-1 $52 $145 $147 $148 forward $33 $-1 #
coedge $-1 $95 $94 $52 $88 reversed $96 $-1 #
edge $-1 $149 -46.013951469501066 $150 46.013951469501066 $87 $151 forward 7 unknown #
coedge $-1 $54 $53 $152 $153 forward $21 $-1 #
coedge $-1 $154 $155 $53 $91 reversed $139 $-1 #
edge $-1 $98 -73.412884914700768 $156 73.412884914700768 $90 $157 forward 7 unknown #
coedge $-1 $84 $158 $54 $93 reversed $50 $-1 #
edge $-1 $159 -73.412884914700768 $97 73.412884914700768 $92 $160 forward 7 unknown #
coedge $-1 $87 $55 $158 $161 forward $96 $-1 #
coedge $-1 $55 $87 $154 $162 reversed $96 $-1 #
loop $-1 $-1 $94 $138 #
vertex $-1 $56 $163 #
vertex $-1 $56 $164 #
straight-curve $-1 73.412884914700768 0 19.12232367780053 0 1 0 I I #
face $-1 $165 $166 $13 $-1 $167 forward single #
loop $-1 $-1 $168 $57 #
plane-surface $-1 0 0 -19.12232367780053 0 0 1 1 0 0 forward_v I I I I #
coedge $-1 $169 $170 $61 $109 forward $58 $-1 #
coedge $-1 $171 $60 $62 $110 forward $37 $-1 #
coedge $-1 $60 $171 $168 $172 reversed $37 $-1 #
coedge $-1 $173 $63 $60 $107 forward $112 $-1 #
edge $-1 $114 3.2259693271379639 $174 11.672892676154365 $106 $175 forward 7 unknown #
coedge $-1 $62 $61 $176 $177 reversed $24 $-1 #
edge $-1 $178 -73.412884914700768 $113 73.412884914700768 $103 $179 forward 7 unknown #
edge $-1 $114 -73.412884914700768 $180 73.412884914700768 $104 $181 forward 7 unknown #
coedge $-1 $63 $182 $169 $183 forward $112 $-1 #
loop $-1 $-1 $106 $184 #
vertex $-1 $109 $185 #
vertex $-1 $64 $186 #
straight-curve $-1 73.412884914700768 -17.702758749197358 -10.675400328784129 0 1 0 I I #
face $-1 $187 $188 $14 $-1 $189 reversed single #
loop $-1 $-1 $124 $65 #
plane-surface $-1 0 0 19.12232367780053 0 0 1 1 0 0 forward_v I I I I #
coedge $-1 $71 $190 $68 $122 forward $66 $-1 #
coedge $-1 $191 $68 $192 $193 reversed $41 $-1 #
coedge $-1 $68 $191 $69 $123 reversed $41 $-1 #
edge $-1 $194 -27.896183042487316 $127 -8.3393538115401782 $119 $195 forward 7 unknown #
edge $-1 $127 -146.82576982940151 $196 -141.74307601101549 $69 $197 forward 7 unknown #
coedge $-1 $198 $199 $70 $125 forward $117 $-1 #
edge $-1 $128 -29.464219584490145 $196 -26.129672461806813 $124 $200 forward 7 unknown #
coedge $-1 $201 $71 $199 $202 reversed $66 $-1 #
vertex $-1 $122 $203 #
vertex $-1 $125 $204 #
straight-curve $-1 73.412884914700768 26.457122238553929 111.21177641674809 0 0 1 I I #
face $-1 $205 $206 $15 $-1 $207 reversed single #
loop $-1 $208 $79 $73 #
plane-surface $-1 -22.913485670388468 36.235536854027501 126.09718224840692 0.75470958851134928 0 0.65605901945558964 0.65605901945558964 0 -0.75470958851134928 forward_v I I I I #
coedge $-1 $209 $210 $211 $212 reversed $74 $-1 #
coedge $-1 $134 $134 $-1 $213 forward $76 $-1 #
edge $-1 $214 0 $214 6.2831853071796004 $77 $215 forward 7 unknown #
vertex $-1 $80 $216 #
ellipse-curve $-1 71.745611353359138 36.235536854027515 17.204344797698884 -0.75470958851134928 0 -0.65605901945558964 0.65605901945558964 0 -0.75470958851134928 1 I I #
face $-1 $-1 $96 $12 $-1 $217 reversed single #
loop $-1 $-1 $154 $81 #
plane-surface $-1 0 46.013951469501066 0 0 -1 0 0 0 -1 forward_v I I I I #
coedge $-1 $218 $152 $155 $219 forward $82 $-1 #
coedge $-1 $158 $84 $85 $146 reversed $50 $-1 #
coedge $-1 $152 $218 $84 $144 reversed $82 $-1 #
edge $-1 $159 -19.12232367780053 $220 19.12232367780053 $143 $221 forward 7 unknown #
coedge $-1 $86 $85 $218 $222 forward $33 $-1 #
edge $-1 $150 -73.412884914700768 $220 73.412884914700768 $142 $223 forward 7 unknown #
coedge $-1 $155 $154 $86 $148 reversed $139 $-1 #
edge $-1 $224 -73.412884914700768 $149 73.412884914700768 $147 $225 forward 7 unknown #
vertex $-1 $88 $226 #
vertex $-1 $161 $227 #
straight-curve $-1 73.412884914700768 0 -19.12232367780053 0 -1 0 I I #
coedge $-1 $141 $143 $89 $153 reversed $82 $-1 #
edge $-1 $156 -46.013951469501066 $159 46.013951469501066 $152 $228 forward 7 unknown #
coedge $-1 $147 $90 $95 $162 forward $139 $-1 #
coedge $-1 $90 $147 $141 $219 reversed $139 $-1 #
vertex $-1 $91 $229 #
straight-curve $-1 0 46.013951469501066 19.12232367780053 -1 0 0 I I #
coedge $-1 $92 $142 $94 $161 reversed $50 $-1 #
vertex $-1 $153 $230 #
straight-curve $-1 0 -46.013951469501066 19.12232367780053 1 0 0 I I #
edge $-1 $97 -19.12232367780053 $150 19.12232367780053 $94 $231 forward 7 unknown #
edge $-1 $98 -19.12232367780053 $149 19.12232367780053 $95 $232 forward 7 unknown #
point $-1 73.412884914700768 -46.013951469501066 19.12232367780053 #
point $-1 73.412884914700768 46.013951469501066 19.12232367780053 #
face $-1 $233 $234 $13 $-1 $235 reversed single #
loop $-1 $-1 $236 $100 #
plane-surface $-1 0 0 19.12232367780053 0 0 1 1 0 0 forward_v I I I I #
coedge $-1 $237 $238 $105 $172 forward $101 $-1 #
coedge $-1 $239 $103 $111 $183 reversed $58 $-1 #
coedge $-1 $103 $239 $240 $241 forward $58 $-1 #
coedge $-1 $105 $104 $242 $243 reversed $37 $-1 #
edge $-1 $174 -73.412884914700768 $244 73.412884914700768 $168 $245 forward 7 unknown #
coedge $-1 $246 $106 $238 $247 reversed $112 $-1 #
vertex $-1 $172 $248 #
straight-curve $-1 73.412884914700768 -24.797083527288361 -7.4494310016461647 0 0 -1 I I #
coedge $-1 $240 $242 $108 $177 forward $234 $-1 #
edge $-1 $180 7.0943247780910035 $178 28.311192720303708 $176 $249 forward 7 unknown #
vertex $-1 $109 $250 #
straight-curve $-1 0 -46.013951469501066 -10.675400328784129 1 0 0 I I #
vertex $-1 $177 $251 #
straight-curve $-1 0 -24.797083527288361 -10.675400328784129 -1 0 0 I I #
coedge $-1 $111 $246 $236 $252 reversed $112 $-1 #
edge $-1 $253 -19.12232367780053 $113 10.675400328784129 $111 $254 forward 7 unknown #
face $-1 $-1 $112 $13 $-1 $255 reversed single #
point $-1 73.412884914700768 -46.013951469501066 -10.675400328784129 #
point $-1 73.412884914700768 -24.797083527288361 -10.675400328784129 #
face $-1 $256 $257 $14 $-1 $258 forward single #
loop $-1 $-1 $259 $116 #
plane-surface $-1 0 -35.405517498394715 -10.675400328784129 0 0 1 1 0 0 forward_v I I I I #
coedge $-1 $119 $260 $261 $262 reversed $66 $-1 #
coedge $-1 $121 $120 $198 $263 reversed $41 $-1 #
coedge $-1 $261 $264 $120 $193 forward $265 $-1 #
edge $-1 $266 86.643400276835166 $194 91.7260940952212 $192 $267 forward 7 unknown #
vertex $-1 $262 $268 #
straight-curve $-1 73.412884914700768 18.11776842701375 15.286365917597244 0 -1 0 I I #
vertex $-1 $263 $269 #
straight-curve $-1 -22.913485670388468 26.457122238553929 126.09718224840692 -0.65605901945558964 0 0.75470958851134928 I I #
coedge $-1 $270 $124 $191 $263 forward $117 $-1 #
coedge $-1 $124 $271 $126 $202 forward $117 $-1 #
straight-curve $-1 43.948665330210623 26.457122238553929 19.122323677800537 -1 0 0 I I #
coedge $-1 $272 $126 $273 $274 forward $66 $-1 #
edge $-1 $275 -46.013951469501066 $128 26.457122238553929 $126 $276 forward 7 unknown #
point $-1 73.412884914700768 26.457122238553929 15.286365917597251 #
point $-1 73.412884914700768 26.457122238553929 19.12232367780053 #
face $-1 $277 $278 $15 $-1 $279 forward single #
loop $-1 $-1 $280 $130 #
plane-surface $-1 73.412884914700768 0 0 -1 0 0 0 0 1 forward_v I I I I #
loop $-1 $-1 $281 $73 #
coedge $-1 $210 $133 $282 $283 forward $74 $-1 #
coedge $-1 $133 $209 $284 $285 reversed $74 $-1 #
coedge $-1 $286 $280 $133 $212 forward $206 $-1 #
edge $-1 $287 -95.925410499150843 $288 -92.089452738947557 $211 $289 forward 7 unknown #
edge $-1 $290 1 $290 0 $134 $-1 forward 7 unknown #
vertex $-1 $135 $291 #
ellipse-curve $-1 70.064437990676169 36.235536854027515 15.742923126838452 0.75470958851134928 0 0.65605901945558964 0.65605901945558964 0 -0.75470958851134928 1 I I #
point $-1 72.401670372814692 36.235536854027515 16.449635209187509 #
plane-surface $-1 73.412884914700768 0 0 -1 0 0 0 0 1 forward_v I I I I #
coedge $-1 $143 $141 $145 $222 reversed $82 $-1 #
edge $-1 $156 -19.12232367780053 $224 19.12232367780053 $155 $292 forward 7 unknown #
vertex $-1 $222 $293 #
straight-curve $-1 -73.412884914700768 -46.013951469501066 0 0 0 -1 I I #
edge $-1 $220 -46.013951469501066 $224 46.013951469501066 $218 $294 forward 7 unknown #
straight-curve $-1 0 -46.013951469501066 -19.12232367780053 -1 0 0 I I #
vertex $-1 $148 $295 #
straight-curve $-1 0 46.013951469501066 -19.12232367780053 1 0 0 I I #
point $-1 73.412884914700768 46.013951469501066 -19.12232367780053 #
point $-1 73.412884914700768 -46.013951469501066 -19.12232367780053 #
straight-curve $-1 -73.412884914700768 0 19.12232367780053 0 -1 0 I I #
point $-1 -73.412884914700768 46.013951469501066 19.12232367780053 #
point $-1 -73.412884914700768 -46.013951469501066 19.12232367780053 #
straight-curve $-1 73.412884914700768 -46.013951469501066 0 0 0 -1 I I #
straight-curve $-1 73.412884914700768 46.013951469501066 0 0 0 -1 I I #
face $-1 $184 $296 $13 $-1 $297 reversed single #
loop $-1 $-1 $176 $165 #
plane-surface $-1 -73.412884914700768 0 0 1 0 0 0 0 -1 forward_v I I I I #
coedge $-1 $298 $299 $182 $252 forward $166 $-1 #
coedge $-1 $300 $168 $301 $302 forward $101 $-1 #
coedge $-1 $168 $300 $173 $247 forward $101 $-1 #
coedge $-1 $170 $169 $299 $303 reversed $58 $-1 #
coedge $-1 $304 $176 $170 $241 reversed $234 $-1 #
edge $-1 $305 -19.12232367780053 $178 10.675400328784129 $240 $306 forward 7 unknown #
coedge $-1 $176 $301 $171 $243 forward $234 $-1 #
edge $-1 $244 -11.672892676154365 $180 -3.2259693271379639 $242 $307 forward 7 unknown #
vertex $-1 $302 $308 #
straight-curve $-1 0 -24.797083527288361 -19.12232367780053 -1 0 0 I I #
coedge $-1 $182 $173 $309 $310 reversed $112 $-1 #
edge $-1 $311 -46.013951469501066 $174 24.797083527288361 $173 $312 forward 7 unknown #
point $-1 73.412884914700768 -24.797083527288361 -19.12232367780053 #
straight-curve $-1 -73.412884914700768 -17.702758749197358 -10.675400328784129 0 -1 0 I I #
point $-1 -73.412884914700768 -46.013951469501066 -10.675400328784129 #
point $-1 -73.412884914700768 -24.797083527288361 -10.675400328784129 #
edge $-1 $253 -46.013951469501066 $313 46.013951469501066 $182 $314 forward 7 unknown #
vertex $-1 $252 $315 #
straight-curve $-1 73.412884914700768 -46.013951469501066 0 0 0 -1 I I #
plane-surface $-1 73.412884914700768 0 0 -1 0 0 0 0 1 forward_v I I I I #
face $-1 $316 $317 $14 $-1 $318 reversed single #
loop $-1 $-1 $319 $187 #
plane-surface $-1 0 -24.797083527288361 -14.898862003292329 0 -1 0 0 0 -1 forward_v I I I I #
coedge $-1 $320 $321 $272 $322 reversed $188 $-1 #
coedge $-1 $190 $323 $324 $325 reversed $66 $-1 #
coedge $-1 $326 $192 $190 $262 forward $265 $-1 #
edge $-1 $194 -15.286365917597248 $327 19.12232367780053 $190 $328 forward 7 unknown #
edge $-1 $196 8.3393538115401782 $266 27.896183042487323 $198 $329 forward 7 unknown #
coedge $-1 $192 $330 $270 $331 reversed $265 $-1 #
loop $-1 $-1 $192 $332 #
vertex $-1 $331 $333 #
straight-curve $-1 13.235153564098795 46.013951469501066 84.512928647954936 0.65605901945558975 0 -0.75470958851134939 I I #
point $-1 73.412884914700768 46.013951469501066 15.286365917597248 #
point $-1 70.078337792017436 26.457122238553929 19.122323677800551 #
coedge $-1 $334 $198 $264 $331 forward $117 $-1 #
coedge $-1 $199 $334 $335 $336 forward $117 $-1 #
coedge $-1 $323 $201 $259 $322 forward $66 $-1 #
coedge $-1 $335 $337 $201 $274 reversed $317 $-1 #
edge $-1 $275 -19.12232367780053 $338 10.675400328784129 $201 $339 forward 7 unknown #
vertex $-1 $202 $340 #
straight-curve $-1 73.412884914700768 0 19.12232367780053 0 1 0 I I #
face $-1 $341 $342 $15 $-1 $343 reversed single #
loop $-1 $-1 $284 $205 #
plane-surface $-1 0 0 19.12232367780053 0 0 1 1 0 0 forward_v I I I I #
coedge $-1 $211 $344 $281 $345 forward $206 $-1 #
coedge $-1 $346 $282 $280 $345 reversed $208 $-1 #
coedge $-1 $281 $347 $209 $283 reversed $208 $-1 #
edge $-1 $287 -146.82576982940151 $348 -141.74307601101549 $209 $349 forward 7 unknown #
coedge $-1 $350 $351 $210 $285 forward $278 $-1 #
edge $-1 $288 -29.464219584490145 $348 -26.129672461806813 $284 $352 forward 7 unknown #
coedge $-1 $353 $211 $351 $354 reversed $206 $-1 #
vertex $-1 $345 $355 #
vertex $-1 $285 $356 #
straight-curve $-1 73.412884914700768 26.457122238553929 111.21177641674809 0 0 1 I I #
vertex $-1 $213 $357 #
point $-1 70.720497010131751 36.235536854027515 14.988213538327102 #
straight-curve $-1 -73.412884914700768 46.013951469501066 0 0 0 -1 I I #
point $-1 -73.412884914700768 -46.013951469501066 -19.12232367780053 #
straight-curve $-1 -73.412884914700768 0 -19.12232367780053 0 1 0 I I #
point $-1 -73.412884914700768 46.013951469501066 -19.12232367780053 #
loop $-1 $-1 $309 $233 #
plane-surface $-1 0 46.013951469501066 0 0 -1 0 0 0 -1 forward_v I I I I #
coedge $-1 $358 $236 $359 $360 forward $166 $-1 #
coedge $-1 $236 $358 $239 $303 forward $166 $-1 #
coedge $-1 $238 $237 $361 $362 forward $101 $-1 #
coedge $-1 $242 $363 $237 $302 reversed $234 $-1 #
edge $-1 $244 -24.797083527288361 $364 46.013951469501066 $301 $365 forward 7 unknown #
edge $-1 $305 -73.412884914700768 $253 73.412884914700768 $239 $366 forward 7 unknown #
coedge $-1 $363 $240 $358 $367 reversed $234 $-1 #
vertex $-1 $367 $368 #
straight-curve $-1 -73.412884914700768 -46.013951469501066 0 0 0 -1 I I #
straight-curve $-1 -73.412884914700768 -24.797083527288361 -7.4494310016461647 0 0 1 I I #
point $-1 -73.412884914700768 -24.797083527288361 -19.12232367780053 #
coedge $-1 $361 $359 $246 $310 forward $296 $-1 #
edge $-1 $313 -19.12232367780053 $311 19.12232367780053 $246 $369 forward 7 unknown #
vertex $-1 $247 $370 #
straight-curve $-1 73.412884914700768 0 -19.12232367780053 0 -1 0 I I #
vertex $-1 $252 $371 #
straight-curve $-1 73.412884914700768 0 19.12232367780053 0 1 0 I I #
point $-1 73.412884914700768 -46.013951469501066 19.12232367780053 #
face $-1 $372 $373 $14 $-1 $374 reversed single #
loop $-1 $-1 $337 $256 #
plane-surface $-1 0 -46.013951469501066 0 0 1 0 0 0 1 forward_v I I I I #
coedge $-1 $375 $376 $323 $377 reversed $257 $-1 #
coedge $-1 $378 $259 $337 $379 reversed $188 $-1 #
coedge $-1 $259 $378 $375 $380 reversed $188 $-1 #
edge $-1 $338 -28.311192720303708 $381 -7.0943247780910035 $272 $382 forward 7 unknown #
coedge $-1 $260 $272 $319 $377 forward $66 $-1 #
coedge $-1 $383 $384 $260 $325 forward $373 $-1 #
edge $-1 $327 -46.013951469501066 $385 24.797083527288361 $260 $386 forward 7 unknown #
coedge $-1 $330 $261 $384 $387 reversed $265 $-1 #
vertex $-1 $325 $388 #
straight-curve $-1 73.412884914700768 46.013951469501066 0 0 0 -1 I I #
straight-curve $-1 70.078337792017464 18.11776842701375 19.122323677800523 0 1 0 I I #
coedge $-1 $264 $326 $389 $390 reversed $265 $-1 #
edge $-1 $266 -70.078337792017436 $391 73.412884914700768 $264 $392 forward 7 unknown #
face $-1 $-1 $265 $14 $-1 $393 reversed single #
point $-1 70.078337792017436 46.013951469501073 19.122323677800551 #
coedge $-1 $271 $270 $394 $395 forward $117 $-1 #
coedge $-1 $396 $273 $271 $336 reversed $317 $-1 #
edge $-1 $397 -73.412884914700768 $275 73.412884914700768 $335 $398 forward 7 unknown #
coedge $-1 $273 $396 $320 $379 forward $317 $-1 #
vertex $-1 $379 $399 #
straight-curve $-1 73.412884914700768 -46.013951469501066 0 0 0 -1 I I #
point $-1 73.412884914700768 -46.013951469501066 19.12232367780053 #
face $-1 $400 $401 $15 $-1 $402 forward single #
loop $-1 $-1 $403 $277 #
plane-surface $-1 0 -35.405517498394715 -10.675400328784129 0 0 1 1 0 0 forward_v I I I I #
coedge $-1 $280 $404 $405 $406 reversed $206 $-1 #
edge $-1 $407 -27.896183042487316 $287 -8.3393538115401782 $280 $408 forward 7 unknown #
coedge $-1 $347 $281 $409 $410 reversed $208 $-1 #
coedge $-1 $282 $346 $350 $411 reversed $208 $-1 #
vertex $-1 $411 $412 #
straight-curve $-1 -22.913485670388468 26.457122238553929 126.09718224840692 -0.65605901945558964 0 0.75470958851134928 I I #
coedge $-1 $413 $284 $347 $411 forward $278 $-1 #
coedge $-1 $284 $414 $286 $354 forward $278 $-1 #
straight-curve $-1 43.948665330210623 26.457122238553929 19.122323677800537 -1 0 0 I I #
coedge $-1 $415 $286 $416 $417 forward $206 $-1 #
edge $-1 $418 -46.013951469501066 $288 26.457122238553929 $286 $419 forward 7 unknown #
point $-1 73.412884914700768 26.457122238553929 15.286365917597251 #
point $-1 73.412884914700768 26.457122238553929 19.12232367780053 #
point $-1 69.309728402164808 36.235536854027515 15.086864107382862 #
coedge $-1 $299 $298 $304 $367 forward $166 $-1 #
coedge $-1 $309 $420 $298 $360 reversed $296 $-1 #
edge $-1 $313 -73.412884914700768 $421 73.412884914700768 $359 $422 forward 7 unknown #
coedge $-1 $420 $309 $300 $362 reversed $296 $-1 #
edge $-1 $364 -73.412884914700768 $311 73.412884914700768 $361 $423 forward 7 unknown #
coedge $-1 $301 $304 $420 $424 forward $234 $-1 #
vertex $-1 $362 $425 #
straight-curve $-1 -73.412884914700768 0 -19.12232367780053 0 1 0 I I #
straight-curve $-1 0 -46.013951469501066 19.12232367780053 1 0 0 I I #
edge $-1 $421 -46.013951469501066 $305 46.013951469501066 $304 $426 forward 7 unknown #
point $-1 -73.412884914700768 -46.013951469501066 19.12232367780053 #
straight-curve $-1 73.412884914700768 46.013951469501066 0 0 0 -1 I I #
point $-1 73.412884914700768 46.013951469501066 -19.12232367780053 #
point $-1 73.412884914700768 46.013951469501066 19.12232367780053 #
face $-1 $332 $427 $14 $-1 $428 reversed single #
loop $-1 $-1 $383 $316 #
plane-surface $-1 0 0 -19.12232367780053 0 0 1 1 0 0 forward_v I I I I #
coedge $-1 $429 $319 $321 $380 forward $257 $-1 #
coedge $-1 $319 $429 $383 $430 reversed $257 $-1 #
edge $-1 $381 3.2259693271379639 $385 11.672892676154365 $323 $431 forward 7 unknown #
coedge $-1 $321 $320 $432 $433 reversed $188 $-1 #
edge $-1 $434 -73.412884914700768 $338 73.412884914700768 $337 $435 forward 7 unknown #
edge $-1 $381 -73.412884914700768 $436 73.412884914700768 $375 $437 forward 7 unknown #
vertex $-1 $322 $438 #
straight-curve $-1 73.412884914700768 -17.702758749197358 -10.675400328784129 0 1 0 I I #
coedge $-1 $439 $324 $376 $430 forward $373 $-1 #
coedge $-1 $324 $439 $326 $387 forward $373 $-1 #
vertex $-1 $430 $440 #
straight-curve $-1 73.412884914700768 0 -19.12232367780053 0 -1 0 I I #
edge $-1 $441 -73.412884914700768 $327 73.412884914700768 $326 $442 forward 7 unknown #
point $-1 73.412884914700768 46.013951469501066 -19.12232367780053 #
coedge $-1 $443 $394 $330 $390 forward $427 $-1 #
edge $-1 $391 -19.12232367780053 $441 19.12232367780053 $330 $444 forward 7 unknown #
vertex $-1 $331 $445 #
straight-curve $-1 0 46.013951469501066 19.12232367780053 -1 0 0 I I #
plane-surface $-1 0 46.013951469501066 0 0 -1 0 0 0 -1 forward_v I I I I #
coedge $-1 $389 $446 $334 $395 reversed $427 $-1 #
edge $-1 $391 -46.013951469501066 $397 46.013951469501066 $394 $447 forward 7 unknown #
coedge $-1 $337 $335 $446 $448 forward $317 $-1 #
vertex $-1 $395 $449 #
straight-curve $-1 0 -46.013951469501066 19.12232367780053 1 0 0 I I #
point $-1 73.412884914700768 -46.013951469501066 -10.675400328784129 #
face $-1 $450 $451 $15 $-1 $452 reversed single #
loop $-1 $-1 $453 $341 #
plane-surface $-1 0 -24.797083527288361 -14.898862003292329 0 -1 0 0 0 -1 forward_v I I I I #
coedge $-1 $454 $455 $415 $456 reversed $342 $-1 #
coedge $-1 $344 $457 $458 $459 reversed $206 $-1 #
coedge $-1 $460 $409 $344 $406 forward $461 $-1 #
edge $-1 $407 -15.286365917597248 $462 19.12232367780053 $344 $463 forward 7 unknown #
vertex $-1 $406 $464 #
straight-curve $-1 73.412884914700768 18.11776842701375 15.286365917597244 0 -1 0 I I #
coedge $-1 $405 $465 $346 $410 forward $461 $-1 #
edge $-1 $466 86.643400276835166 $407 91.7260940952212 $409 $467 forward 7 unknown #
edge $-1 $348 8.3393538115401782 $466 27.896183042487323 $350 $468 forward 7 unknown #
point $-1 70.078337792017436 26.457122238553929 19.122323677800551 #
coedge $-1 $469 $350 $465 $470 forward $278 $-1 #
coedge $-1 $351 $469 $471 $472 forward $278 $-1 #
coedge $-1 $457 $353 $403 $456 forward $206 $-1 #
coedge $-1 $471 $473 $353 $417 reversed $451 $-1 #
edge $-1 $418 -19.12232367780053 $474 10.675400328784129 $353 $475 forward 7 unknown #
vertex $-1 $354 $476 #
straight-curve $-1 73.412884914700768 0 19.12232367780053 0 1 0 I I #
coedge $-1 $359 $361 $363 $424 reversed $296 $-1 #
vertex $-1 $360 $477 #
straight-curve $-1 0 46.013951469501066 19.12232367780053 -1 0 0 I I #
straight-curve $-1 0 46.013951469501066 -19.12232367780053 1 0 0 I I #
edge $-1 $421 -19.12232367780053 $364 19.12232367780053 $420 $478 forward 7 unknown #
point $-1 -73.412884914700768 46.013951469501066 -19.12232367780053 #
straight-curve $-1 -73.412884914700768 0 19.12232367780053 0 -1 0 I I #
loop $-1 $-1 $432 $372 #
plane-surface $-1 -73.412884914700768 0 0 1 0 0 0 0 -1 forward_v I I I I #
coedge $-1 $376 $375 $479 $480 reversed $257 $-1 #
edge $-1 $385 -73.412884914700768 $481 73.412884914700768 $383 $482 forward 7 unknown #
straight-curve $-1 73.412884914700768 -24.797083527288361 -7.4494310016461647 0 0 -1 I I #
coedge $-1 $446 $479 $378 $433 forward $427 $-1 #
edge $-1 $436 7.0943247780910035 $434 28.311192720303708 $432 $483 forward 7 unknown #
vertex $-1 $379 $484 #
straight-curve $-1 0 -46.013951469501066 -10.675400328784129 1 0 0 I I #
vertex $-1 $433 $485 #
straight-curve $-1 0 -24.797083527288361 -10.675400328784129 -1 0 0 I I #
point $-1 73.412884914700768 -24.797083527288361 -10.675400328784129 #
coedge $-1 $384 $383 $443 $486 forward $373 $-1 #
point $-1 73.412884914700768 -24.797083527288361 -19.12232367780053 #
vertex $-1 $387 $487 #
straight-curve $-1 0 46.013951469501066 -19.12232367780053 1 0 0 I I #
coedge $-1 $479 $389 $439 $486 reversed $427 $-1 #
straight-curve $-1 -73.412884914700768 46.013951469501066 0 0 0 -1 I I #
point $-1 -73.412884914700768 46.013951469501066 19.12232367780053 #
coedge $-1 $394 $432 $396 $448 reversed $427 $-1 #
straight-curve $-1 -73.412884914700768 0 19.12232367780053 0 -1 0 I I #
edge $-1 $397 -19.12232367780053 $434 10.675400328784129 $446 $488 forward 7 unknown #
point $-1 -73.412884914700768 -46.013951469501066 19.12232367780053 #
face $-1 $489 $490 $15 $-1 $491 reversed single #
loop $-1 $-1 $473 $400 #
plane-surface $-1 0 -46.013951469501066 0 0 1 0 0 0 1 forward_v I I I I #
coedge $-1 $492 $493 $457 $494 reversed $401 $-1 #
coedge $-1 $495 $403 $473 $496 reversed $342 $-1 #
coedge $-1 $403 $495 $492 $497 reversed $342 $-1 #
edge $-1 $474 -28.311192720303708 $498 -7.0943247780910035 $415 $499 forward 7 unknown #
coedge $-1 $404 $415 $453 $494 forward $206 $-1 #
coedge $-1 $500 $501 $404 $459 forward $490 $-1 #
edge $-1 $462 -46.013951469501066 $502 24.797083527288361 $404 $503 forward 7 unknown #
coedge $-1 $504 $405 $501 $505 reversed $461 $-1 #
loop $-1 $-1 $409 $506 #
vertex $-1 $459 $507 #
straight-curve $-1 73.412884914700768 46.013951469501066 0 0 0 -1 I I #
point $-1 73.412884914700768 46.013951469501066 15.286365917597248 #
coedge $-1 $409 $504 $413 $470 reversed $461 $-1 #
vertex $-1 $470 $508 #
straight-curve $-1 13.235153564098795 46.013951469501066 84.512928647954936 0.65605901945558975 0 -0.75470958851134939 I I #
straight-curve $-1 70.078337792017464 18.11776842701375 19.122323677800523 0 1 0 I I #
coedge $-1 $414 $413 $509 $510 forward $278 $-1 #
edge $-1 $466 -70.078337792017436 $511 73.412884914700768 $465 $512 forward 7 unknown #
coedge $-1 $513 $416 $414 $472 reversed $451 $-1 #
edge $-1 $514 -73.412884914700768 $418 73.412884914700768 $471 $515 forward 7 unknown #
coedge $-1 $416 $513 $454 $496 forward $451 $-1 #
vertex $-1 $496 $516 #
straight-curve $-1 73.412884914700768 -46.013951469501066 0 0 0 -1 I I #
point $-1 73.412884914700768 -46.013951469501066 19.12232367780053 #
point $-1 -73.412884914700768 46.013951469501066 19.12232367780053 #
straight-curve $-1 -73.412884914700768 46.013951469501066 0 0 0 -1 I I #
coedge $-1 $432 $443 $429 $480 forward $427 $-1 #
edge $-1 $481 -11.672892676154365 $436 -3.2259693271379639 $479 $517 forward 7 unknown #
vertex $-1 $486 $518 #
straight-curve $-1 0 -24.797083527288361 -19.12232367780053 -1 0 0 I I #
straight-curve $-1 -73.412884914700768 -17.702758749197358 -10.675400328784129 0 -1 0 I I #
point $-1 -73.412884914700768 -46.013951469501066 -10.675400328784129 #
point $-1 -73.412884914700768 -24.797083527288361 -10.675400328784129 #
edge $-1 $481 -24.797083527288361 $441 46.013951469501066 $443 $519 forward 7 unknown #
point $-1 -73.412884914700768 46.013951469501066 -19.12232367780053 #
straight-curve $-1 -73.412884914700768 -46.013951469501066 0 0 0 -1 I I #
face $-1 $506 $520 $15 $-1 $521 reversed single #
loop $-1 $-1 $500 $450 #
plane-surface $-1 0 0 -19.12232367780053 0 0 1 1 0 0 forward_v I I I I #
coedge $-1 $522 $453 $455 $497 forward $401 $-1 #
coedge $-1 $453 $522 $500 $523 reversed $401 $-1 #
edge $-1 $498 3.2259693271379639 $502 11.672892676154365 $457 $524 forward 7 unknown #
coedge $-1 $455 $454 $525 $526 reversed $342 $-1 #
edge $-1 $527 -73.412884914700768 $474 73.412884914700768 $473 $528 forward 7 unknown #
edge $-1 $498 -73.412884914700768 $529 73.412884914700768 $492 $530 forward 7 unknown #
vertex $-1 $456 $531 #
straight-curve $-1 73.412884914700768 -17.702758749197358 -10.675400328784129 0 1 0 I I #
coedge $-1 $532 $458 $493 $523 forward $490 $-1 #
coedge $-1 $458 $532 $460 $505 forward $490 $-1 #
vertex $-1 $523 $533 #
straight-curve $-1 73.412884914700768 0 -19.12232367780053 0 -1 0 I I #
coedge $-1 $465 $460 $534 $535 reversed $461 $-1 #
edge $-1 $536 -73.412884914700768 $462 73.412884914700768 $460 $537 forward 7 unknown #
face $-1 $-1 $461 $15 $-1 $538 reversed single #
point $-1 73.412884914700768 46.013951469501066 -19.12232367780053 #
point $-1 70.078337792017436 46.013951469501073 19.122323677800551 #
coedge $-1 $534 $539 $469 $510 reversed $520 $-1 #
edge $-1 $511 -46.013951469501066 $514 46.013951469501066 $509 $540 forward 7 unknown #
vertex $-1 $470 $541 #
straight-curve $-1 0 46.013951469501066 19.12232367780053 -1 0 0 I I #
coedge $-1 $473 $471 $539 $542 forward $451 $-1 #
vertex $-1 $510 $543 #
straight-curve $-1 0 -46.013951469501066 19.12232367780053 1 0 0 I I #
point $-1 73.412884914700768 -46.013951469501066 -10.675400328784129 #
straight-curve $-1 -73.412884914700768 -24.797083527288361 -7.4494310016461647 0 0 1 I I #
point $-1 -73.412884914700768 -24.797083527288361 -19.12232367780053 #
straight-curve $-1 -73.412884914700768 0 -19.12232367780053 0 1 0 I I #
loop $-1 $-1 $525 $489 #
plane-surface $-1 -73.412884914700768 0 0 1 0 0 0 0 -1 forward_v I I I I #
coedge $-1 $493 $492 $544 $545 reversed $401 $-1 #
edge $-1 $502 -73.412884914700768 $546 73.412884914700768 $500 $547 forward 7 unknown #
straight-curve $-1 73.412884914700768 -24.797083527288361 -7.4494310016461647 0 0 -1 I I #
coedge $-1 $539 $544 $495 $526 forward $520 $-1 #
edge $-1 $529 7.0943247780910035 $527 28.311192720303708 $525 $548 forward 7 unknown #
vertex $-1 $496 $549 #
straight-curve $-1 0 -46.013951469501066 -10.675400328784129 1 0 0 I I #
vertex $-1 $526 $550 #
straight-curve $-1 0 -24.797083527288361 -10.675400328784129 -1 0 0 I I #
point $-1 73.412884914700768 -24.797083527288361 -10.675400328784129 #
coedge $-1 $501 $500 $551 $552 forward $490 $-1 #
point $-1 73.412884914700768 -24.797083527288361 -19.12232367780053 #
coedge $-1 $551 $509 $504 $535 forward $520 $-1 #
edge $-1 $511 -19.12232367780053 $536 19.12232367780053 $504 $553 forward 7 unknown #
vertex $-1 $505 $554 #
straight-curve $-1 0 46.013951469501066 -19.12232367780053 1 0 0 I I #
plane-surface $-1 0 46.013951469501066 0 0 -1 0 0 0 -1 forward_v I I I I #
coedge $-1 $509 $525 $513 $542 reversed $520 $-1 #
straight-curve $-1 -73.412884914700768 0 19.12232367780053 0 -1 0 I I #
point $-1 -73.412884914700768 46.013951469501066 19.12232367780053 #
edge $-1 $514 -19.12232367780053 $527 10.675400328784129 $539 $555 forward 7 unknown #
point $-1 -73.412884914700768 -46.013951469501066 19.12232367780053 #
coedge $-1 $525 $551 $522 $545 forward $520 $-1 #
edge $-1 $546 -11.672892676154365 $529 -3.2259693271379639 $544 $556 forward 7 unknown #
vertex $-1 $552 $557 #
straight-curve $-1 0 -24.797083527288361 -19.12232367780053 -1 0 0 I I #
straight-curve $-1 -73.412884914700768 -17.702758749197358 -10.675400328784129 0 -1 0 I I #
point $-1 -73.412884914700768 -46.013951469501066 -10.675400328784129 #
point $-1 -73.412884914700768 -24.797083527288361 -10.675400328784129 #
coedge $-1 $544 $534 $532 $552 reversed $520 $-1 #
edge $-1 $546 -24.797083527288361 $536 46.013951469501066 $551 $558 forward 7 unknown #
straight-curve $-1 -73.412884914700768 46.013951469501066 0 0 0 -1 I I #
point $-1 -73.412884914700768 46.013951469501066 -19.12232367780053 #
straight-curve $-1 -73.412884914700768 -46.013951469501066 0 0 0 -1 I I #
straight-curve $-1 -73.412884914700768 -24.797083527288361 -7.4494310016461647 0 0 1 I I #
point $-1 -73.412884914700768 -24.797083527288361 -19.12232367780053 #
straight-curve $-1 -73.412884914700768 0 -19.12232367780053 0 1 0 I I #
End-of-ACIS-data 