500 0 12 0           
7 Unknown 11 ACIS 5.0 NT 24 Thu Mar 25 15:16:20 1999 
-1 9.9999999999999995e-007 1e-010 
body $-1 $12 $-1 $13 #
body $-1 $14 $-1 $15 #
body $-1 $16 $-1 $17 #
body $-1 $18 $-1 $19 #
body $-1 $20 $-1 $21 #
body $-1 $22 $-1 $23 #
body $-1 $24 $-1 $25 #
body $-1 $26 $-1 $27 #
body $-1 $28 $-1 $29 #
body $-1 $30 $-1 $31 #
body $-1 $32 $-1 $33 #
body $-1 $34 $-1 $35 #
lump $-1 $-1 $36 $0 #
transform $-1 1 0 0 0 1 0 0 0 1 46.35395367290262 30.130140620065422 14.134049240730784 1 rotate no_reflect no_shear #
lump $-1 $-1 $37 $1 #
transform $-1 1 0 0 0 1 0 0 0 1 46.35395367290262 30.130140620065422 14.134049240730784 1 rotate no_reflect no_shear #
lump $-1 $-1 $38 $2 #
transform $-1 1 0 0 0 1 0 0 0 1 46.35395367290262 30.130140620065422 14.134049240730784 1 rotate no_reflect no_shear #
lump $-1 $-1 $39 $3 #
transform $-1 1 0 0 0 1 0 0 0 1 46.35395367290262 30.130140620065422 14.134049240730784 1 rotate no_reflect no_shear #
lump $-1 $-1 $40 $4 #
transform $-1 1 0 0 0 1 0 0 0 1 46.35395367290262 30.130140620065422 14.134049240730784 1 rotate no_reflect no_shear #
lump $-1 $-1 $41 $5 #
transform $-1 1 0 0 0 1 0 0 0 1 46.35395367290262 30.130140620065422 14.134049240730784 1 rotate no_reflect no_shear #
lump $-1 $-1 $42 $6 #
transform $-1 1 0 0 0 1 0 0 0 1 46.35395367290262 30.130140620065422 14.134049240730784 1 rotate no_reflect no_shear #
lump $-1 $-1 $43 $7 #
transform $-1 1 0 0 0 1 0 0 0 1 46.35395367290262 30.130140620065422 14.134049240730784 1 rotate no_reflect no_shear #
lump $-1 $-1 $44 $8 #
transform $-1 1 0 0 0 1 0 0 0 1 46.35395367290262 30.130140620065422 14.134049240730784 1 rotate no_reflect no_shear #
lump $-1 $-1 $45 $9 #
transform $-1 1 0 0 0 1 0 0 0 1 46.35395367290262 30.130140620065422 14.134049240730784 1 rotate no_reflect no_shear #
lump $-1 $-1 $46 $10 #
transform $-1 1 0 0 0 1 0 0 0 1 46.35395367290262 30.130140620065422 14.134049240730784 1 rotate no_reflect no_shear #
lump $-1 $-1 $47 $11 #
transform $-1 1 0 0 0 1 0 0 0 1 46.35395367290262 30.130140620065422 14.134049240730784 1 rotate no_reflect no_shear #
shell $-1 $-1 $-1 $48 $-1 $12 #
shell $-1 $-1 $-1 $49 $-1 $14 #
shell $-1 $-1 $-1 $50 $-1 $16 #
shell $-1 $-1 $-1 $51 $-1 $18 #
shell $-1 $-1 $-1 $52 $-1 $20 #
shell $-1 $-1 $-1 $53 $-1 $22 #
shell $-1 $-1 $-1 $54 $-1 $24 #
shell $-1 $-1 $-1 $55 $-1 $26 #
shell $-1 $-1 $-1 $56 $-1 $28 #
shell $-1 $-1 $-1 $57 $-1 $30 #
shell $-1 $-1 $-1 $58 $-1 $32 #
shell $-1 $-1 $-1 $59 $-1 $34 #
face $-1 $60 $61 $36 $-1 $62 forward single #
face $-1 $63 $64 $37 $-1 $65 reversed single #
face $-1 $66 $67 $38 $-1 $68 forward single #
face $-1 $69 $70 $39 $-1 $71 forward single #
face $-1 $72 $73 $40 $-1 $74 reversed single #
face $-1 $75 $76 $41 $-1 $77 forward single #
face $-1 $78 $79 $42 $-1 $80 forward single #
face $-1 $81 $82 $43 $-1 $83 forward single #
face $-1 $84 $85 $44 $-1 $86 reversed single #
face $-1 $87 $88 $45 $-1 $89 forward single #
face $-1 $90 $91 $46 $-1 $92 forward single #
face $-1 $93 $94 $47 $-1 $95 forward single #
face $-1 $96 $97 $36 $-1 $98 reversed single #
loop $-1 $-1 $99 $48 #
plane-surface $-1 0 0 14.134049240730784 0 0 1 1 0 0 forward_v I I I I #
face $-1 $100 $101 $37 $-1 $102 reversed single #
loop $-1 $-1 $103 $49 #
plane-surface $-1 -34.483595529974494 60.563386202248097 113.4270429313914 -1 0 0 0 0.75470958851134928 0.65605901945558964 forward_v I I I I #
face $-1 $104 $105 $38 $-1 $106 forward single #
loop $-1 $107 $108 $50 #
cone-surface $-1 -42.962422774923155 25.059767711759076 8.8702869525291188 0 -0.75470958851134928 -0.65605901945558964 1.5 0 0 1 I I 0 1 1.5 forward I I I I #
face $-1 $109 $110 $39 $-1 $111 forward single #
loop $-1 $112 $113 $51 #
cone-surface $-1 -37.875126427953958 25.059767711759076 8.8702869525291188 0 -0.75470958851134928 -0.65605901945558964 1.5 0 0 1 I I 0 1 1.5 forward I I I I #
face $-1 $114 $115 $40 $-1 $116 reversed single #
loop $-1 $-1 $117 $52 #
plane-surface $-1 -3.5527136788005009e-015 -85.923152732089903 85.004318077964228 -1 0 0 0 -0.6018150307709319 0.79863550430605224 forward_v I I I I #
face $-1 $118 $119 $41 $-1 $120 forward single #
loop $-1 $121 $122 $53 #
cone-surface $-1 -14.358394263468739 -26.91228610001799 11.06990466928162 0 0.6018150307709319 -0.79863550430605224 1 0 0 1 I I 0 1 1 forward I I I I #
face $-1 $123 $124 $42 $-1 $125 forward single #
loop $-1 $126 $127 $54 #
cone-surface $-1 -8.9739964146679654 -26.91228610001799 11.06990466928162 0 0.6018150307709319 -0.79863550430605224 1 0 0 1 I I 0 1 1 forward I I I I #
face $-1 $128 $129 $43 $-1 $130 forward single #
loop $-1 $131 $132 $55 #
cone-surface $-1 -3.5895985658671918 -26.91228610001799 11.06990466928162 0 0.6018150307709319 -0.79863550430605224 1 0 0 1 I I 0 1 1 forward I I I I #
face $-1 $133 $134 $44 $-1 $135 reversed single #
loop $-1 $-1 $136 $56 #
plane-surface $-1 -8.9739964146679654 -30.130140620065418 10.964491741688292 0 -0.6018150307709319 0.79863550430605224 1 0 0 forward_v I I I I #
face $-1 $137 $138 $45 $-1 $139 forward single #
loop $-1 $140 $141 $57 #
cone-surface $-1 3.5895985658671776 -26.91228610001799 11.06990466928162 0 0.6018150307709319 -0.79863550430605224 1 0 0 1 I I 0 1 1 forward I I I I #
face $-1 $142 $143 $46 $-1 $144 forward single #
loop $-1 $145 $146 $58 #
cone-surface $-1 8.9739964146679512 -26.91228610001799 11.06990466928162 0 0.6018150307709319 -0.79863550430605224 1 0 0 1 I I 0 1 1 forward I I I I #
face $-1 $147 $148 $47 $-1 $149 forward single #
loop $-1 $150 $151 $59 #
cone-surface $-1 14.358394263468725 -26.91228610001799 11.06990466928162 0 0.6018150307709319 -0.79863550430605224 1 0 0 1 I I 0 1 1 forward I I I I #
face $-1 $152 $153 $36 $-1 $154 reversed single #
loop $-1 $-1 $155 $60 #
plane-surface $-1 0 0 -14.134049240730784 0 0 1 1 0 0 forward_v I I I I #
coedge $-1 $156 $157 $158 $159 forward $61 $-1 #
face $-1 $160 $161 $37 $-1 $162 reversed single #
loop $-1 $-1 $163 $63 #
plane-surface $-1 -40.418774601438557 -9.4041604024528738 52.605184142322756 0 0.75470958851134928 0.65605901945558964 1 0 0 forward_v I I I I #
coedge $-1 $164 $165 $166 $167 reversed $64 $-1 #
face $-1 $-1 $168 $38 $-1 $169 forward single #
loop $-1 $170 $171 $66 #
cone-surface $-1 -42.962422774923155 22.46928987064236 6.6184189780984379 0 -0.75470958851134928 -0.65605901945558964 0.75 0 0 1 I I -0.70710678118654757 0.70710678118654757 0.75 forward I I I I #
loop $-1 $-1 $172 $50 #
coedge $-1 $108 $108 $173 $174 reversed $67 $-1 #
face $-1 $-1 $175 $39 $-1 $176 forward single #
loop $-1 $177 $178 $69 #
cone-surface $-1 -37.875126427953958 22.46928987064236 6.6184189780984379 0 -0.75470958851134928 -0.65605901945558964 0.75 0 0 1 I I -0.70710678118654757 0.70710678118654757 0.75 forward I I I I #
loop $-1 $-1 $179 $51 #
coedge $-1 $113 $113 $180 $181 reversed $70 $-1 #
face $-1 $182 $183 $40 $-1 $184 reversed single #
loop $-1 $-1 $185 $72 #
plane-surface $-1 -8.9739964146679654 -30.130140620065418 10.964491741688292 0 -0.6018150307709319 0.79863550430605224 1 0 0 forward_v I I I I #
coedge $-1 $186 $187 $188 $189 reversed $73 $-1 #
face $-1 $-1 $190 $41 $-1 $191 forward single #
loop $-1 $192 $193 $75 #
cone-surface $-1 -14.358394263468739 -25.496596455808163 9.1912210952006692 0 0.6018150307709319 -0.79863550430605224 0.5 0 0 1 I I -0.70710678118654746 0.70710678118654746 0.5 forward I I I I #
loop $-1 $-1 $194 $53 #
coedge $-1 $122 $122 $195 $196 reversed $76 $-1 #
face $-1 $-1 $197 $42 $-1 $198 forward single #
loop $-1 $199 $200 $78 #
cone-surface $-1 -8.9739964146679654 -25.496596455808163 9.1912210952006692 0 0.6018150307709319 -0.79863550430605224 0.5 0 0 1 I I -0.70710678118654746 0.70710678118654746 0.5 forward I I I I #
loop $-1 $-1 $201 $54 #
coedge $-1 $127 $127 $202 $203 reversed $79 $-1 #
face $-1 $-1 $204 $43 $-1 $205 forward single #
loop $-1 $206 $207 $81 #
cone-surface $-1 -3.5895985658671918 -25.496596455808163 9.1912210952006692 0 0.6018150307709319 -0.79863550430605224 0.5 0 0 1 I I -0.70710678118654746 0.70710678118654746 0.5 forward I I I I #
loop $-1 $-1 $208 $55 #
coedge $-1 $132 $132 $209 $210 reversed $82 $-1 #
face $-1 $211 $212 $44 $-1 $213 reversed single #
loop $-1 $-1 $214 $84 #
plane-surface $-1 17.947992829335913 -85.923152732089903 85.004318077964228 -1 0 0 0 -0.6018150307709319 0.79863550430605224 forward_v I I I I #
coedge $-1 $215 $216 $217 $218 reversed $85 $-1 #
face $-1 $-1 $219 $45 $-1 $220 forward single #
loop $-1 $221 $222 $87 #
cone-surface $-1 3.5895985658671776 -25.496596455808163 9.1912210952006692 0 0.6018150307709319 -0.79863550430605224 0.5 0 0 1 I I -0.70710678118654746 0.70710678118654746 0.5 forward I I I I #
loop $-1 $-1 $223 $57 #
coedge $-1 $141 $141 $224 $225 reversed $88 $-1 #
face $-1 $-1 $226 $46 $-1 $227 forward single #
loop $-1 $228 $229 $90 #
cone-surface $-1 8.9739964146679512 -25.496596455808163 9.1912210952006692 0 0.6018150307709319 -0.79863550430605224 0.5 0 0 1 I I -0.70710678118654746 0.70710678118654746 0.5 forward I I I I #
loop $-1 $-1 $230 $58 #
coedge $-1 $146 $146 $231 $232 reversed $91 $-1 #
face $-1 $-1 $233 $47 $-1 $234 forward single #
loop $-1 $235 $236 $93 #
cone-surface $-1 14.358394263468725 -25.496596455808163 9.1912210952006692 0 0.6018150307709319 -0.79863550430605224 0.5 0 0 1 I I -0.70710678118654746 0.70710678118654746 0.5 forward I I I I #
loop $-1 $-1 $237 $59 #
coedge $-1 $151 $151 $238 $239 reversed $94 $-1 #
face $-1 $240 $241 $36 $-1 $242 reversed single #
loop $-1 $-1 $243 $96 #
plane-surface $-1 0 -30.130140620065422 0 0 1 0 0 0 1 forward_v I I I I #
coedge $-1 $244 $245 $246 $247 forward $97 $-1 #
coedge $-1 $248 $99 $249 $250 forward $61 $-1 #
coedge $-1 $99 $248 $251 $252 forward $61 $-1 #
coedge $-1 $253 $254 $99 $159 reversed $255 $-1 #
edge $-1 $256 -30.130140620065422 $257 30.130140620065422 $158 $258 forward 7 unknown #
face $-1 $259 $260 $37 $-1 $261 forward single #
loop $-1 $-1 $166 $100 #
plane-surface $-1 0 30.130140620065422 0 0 -1 0 0 0 -1 forward_v I I I I #
coedge $-1 $262 $263 $264 $265 reversed $101 $-1 #
coedge $-1 $165 $103 $266 $267 reversed $64 $-1 #
coedge $-1 $103 $164 $262 $268 reversed $64 $-1 #
coedge $-1 $264 $269 $103 $167 forward $161 $-1 #
edge $-1 $270 42.579472224964917 $271 49.58734938169026 $166 $272 forward 7 unknown #
loop $-1 $-1 $173 $104 #
plane-surface $-1 -40.418774601438557 -9.4041604024528738 52.605184142322756 0 0.75470958851134928 0.65605901945558964 1 0 0 forward_v I I I I #
loop $-1 $-1 $273 $66 #
coedge $-1 $171 $171 $172 $274 reversed $105 $-1 #
coedge $-1 $172 $172 $171 $274 forward $107 $-1 #
coedge $-1 $173 $173 $108 $174 forward $168 $-1 #
edge $-1 $275 -4.264527247342554e-016 $275 6.2831853071796004 $173 $276 forward 7 unknown #
loop $-1 $-1 $180 $109 #
plane-surface $-1 -40.418774601438557 -9.4041604024528738 52.605184142322756 0 0.75470958851134928 0.65605901945558964 1 0 0 forward_v I I I I #
loop $-1 $-1 $277 $69 #
coedge $-1 $178 $178 $179 $278 reversed $110 $-1 #
coedge $-1 $179 $179 $178 $278 forward $112 $-1 #
coedge $-1 $180 $180 $113 $181 forward $175 $-1 #
edge $-1 $279 -4.264527247342554e-016 $279 6.2831853071796004 $180 $280 forward 7 unknown #
face $-1 $281 $282 $40 $-1 $283 reversed single #
loop $-1 $-1 $284 $114 #
plane-surface $-1 -17.947992829335927 -85.923152732089903 85.004318077964228 1 0 0 0 0.6018150307709319 -0.79863550430605224 forward_v I I I I #
coedge $-1 $285 $286 $287 $288 reversed $115 $-1 #
coedge $-1 $187 $117 $289 $290 reversed $73 $-1 #
coedge $-1 $117 $186 $285 $291 reversed $73 $-1 #
coedge $-1 $287 $292 $117 $189 forward $293 $-1 #
edge $-1 $294 12.83143574597953 $295 17.037580528425693 $188 $296 forward 7 unknown #
loop $-1 $-1 $195 $118 #
plane-surface $-1 -8.9739964146679654 -30.130140620065418 10.964491741688292 0 -0.6018150307709319 0.79863550430605224 1 0 0 forward_v I I I I #
loop $-1 $-1 $297 $75 #
coedge $-1 $193 $193 $194 $298 reversed $119 $-1 #
coedge $-1 $194 $194 $193 $298 forward $121 $-1 #
coedge $-1 $195 $195 $122 $196 forward $190 $-1 #
edge $-1 $299 1.8086211606990226e-015 $299 6.2831853071796022 $195 $300 forward 7 unknown #
loop $-1 $-1 $202 $123 #
plane-surface $-1 -8.9739964146679654 -30.130140620065418 10.964491741688292 0 -0.6018150307709319 0.79863550430605224 1 0 0 forward_v I I I I #
loop $-1 $-1 $301 $78 #
coedge $-1 $200 $200 $201 $302 reversed $124 $-1 #
coedge $-1 $201 $201 $200 $302 forward $126 $-1 #
coedge $-1 $202 $202 $127 $203 forward $197 $-1 #
edge $-1 $303 1.8086211606990226e-015 $303 6.2831853071796022 $202 $304 forward 7 unknown #
loop $-1 $-1 $209 $128 #
plane-surface $-1 -8.9739964146679654 -30.130140620065418 10.964491741688292 0 -0.6018150307709319 0.79863550430605224 1 0 0 forward_v I I I I #
loop $-1 $-1 $305 $81 #
coedge $-1 $207 $207 $208 $306 reversed $129 $-1 #
coedge $-1 $208 $208 $207 $306 forward $131 $-1 #
coedge $-1 $209 $209 $132 $210 forward $204 $-1 #
edge $-1 $307 1.8086211606990226e-015 $307 6.2831853071796022 $209 $308 forward 7 unknown #
face $-1 $309 $310 $44 $-1 $311 forward single #
loop $-1 $-1 $312 $133 #
plane-surface $-1 0 -30.130140620065422 0 0 1 0 0 0 1 forward_v I I I I #
coedge $-1 $313 $314 $315 $316 reversed $134 $-1 #
coedge $-1 $317 $136 $318 $319 reversed $85 $-1 #
coedge $-1 $136 $317 $312 $320 reversed $85 $-1 #
coedge $-1 $321 $322 $136 $218 forward $310 $-1 #
edge $-1 $323 -5.2666639033296541 $324 4.9753997724514827e-015 $217 $325 forward 7 unknown #
loop $-1 $-1 $224 $137 #
plane-surface $-1 -8.9739964146679654 -30.130140620065418 10.964491741688292 0 -0.6018150307709319 0.79863550430605224 1 0 0 forward_v I I I I #
loop $-1 $-1 $326 $87 #
coedge $-1 $222 $222 $223 $327 reversed $138 $-1 #
coedge $-1 $223 $223 $222 $327 forward $140 $-1 #
coedge $-1 $224 $224 $141 $225 forward $219 $-1 #
edge $-1 $328 1.8086211606990226e-015 $328 6.2831853071796022 $224 $329 forward 7 unknown #
loop $-1 $-1 $231 $142 #
plane-surface $-1 -8.9739964146679654 -30.130140620065418 10.964491741688292 0 -0.6018150307709319 0.79863550430605224 1 0 0 forward_v I I I I #
loop $-1 $-1 $330 $90 #
coedge $-1 $229 $229 $230 $331 reversed $143 $-1 #
coedge $-1 $230 $230 $229 $331 forward $145 $-1 #
coedge $-1 $231 $231 $146 $232 forward $226 $-1 #
edge $-1 $332 1.8086211606990226e-015 $332 6.2831853071796022 $231 $333 forward 7 unknown #
loop $-1 $-1 $238 $147 #
plane-surface $-1 -8.9739964146679654 -30.130140620065418 10.964491741688292 0 -0.6018150307709319 0.79863550430605224 1 0 0 forward_v I I I I #
loop $-1 $-1 $334 $93 #
coedge $-1 $236 $236 $237 $335 reversed $148 $-1 #
coedge $-1 $237 $237 $236 $335 forward $150 $-1 #
coedge $-1 $238 $238 $151 $239 forward $233 $-1 #
edge $-1 $336 1.8086211606990226e-015 $336 6.2831853071796022 $238 $337 forward 7 unknown #
face $-1 $338 $339 $36 $-1 $340 reversed single #
loop $-1 $-1 $341 $152 #
plane-surface $-1 -46.35395367290262 0 0 1 0 0 0 0 -1 forward_v I I I I #
coedge $-1 $342 $251 $343 $344 forward $153 $-1 #
coedge $-1 $345 $155 $342 $346 forward $97 $-1 #
coedge $-1 $155 $345 $347 $348 forward $97 $-1 #
coedge $-1 $254 $253 $155 $247 reversed $255 $-1 #
edge $-1 $349 -30.130140620065422 $350 30.130140620065422 $246 $351 forward 7 unknown #
coedge $-1 $157 $156 $352 $353 forward $61 $-1 #
coedge $-1 $354 $355 $156 $250 reversed $339 $-1 #
edge $-1 $257 -46.35395367290262 $356 46.35395367290262 $249 $357 forward 7 unknown #
coedge $-1 $243 $358 $157 $252 reversed $153 $-1 #
edge $-1 $359 -46.35395367290262 $256 46.35395367290262 $251 $360 forward 7 unknown #
coedge $-1 $246 $158 $358 $361 forward $255 $-1 #
coedge $-1 $158 $246 $354 $362 reversed $255 $-1 #
loop $-1 $-1 $253 $338 #
vertex $-1 $159 $363 #
vertex $-1 $159 $364 #
straight-curve $-1 46.35395367290262 0 14.134049240730784 0 1 0 I I #
face $-1 $-1 $365 $37 $-1 $366 reversed single #
loop $-1 $-1 $266 $160 #
plane-surface $-1 0 0 14.134049240730784 0 0 1 1 0 0 forward_v I I I I #
coedge $-1 $367 $163 $165 $268 forward $101 $-1 #
coedge $-1 $163 $367 $368 $369 reversed $101 $-1 #
coedge $-1 $370 $166 $163 $265 forward $161 $-1 #
edge $-1 $271 14.274208229255215 $371 26.144566372183341 $264 $372 forward 7 unknown #
coedge $-1 $373 $374 $164 $267 forward $260 $-1 #
edge $-1 $375 -6.2434069982048825 $270 -0.1515524810586264 $266 $376 forward 7 unknown #
edge $-1 $271 -60.26028124013083 $375 -50.97475305365549 $165 $377 forward 7 unknown #
coedge $-1 $166 $370 $373 $378 reversed $161 $-1 #
vertex $-1 $378 $379 #
vertex $-1 $167 $380 #
straight-curve $-1 -34.483595529974494 30.130140620065422 56.713521465695699 0 0 -1 I I #
coedge $-1 $273 $273 $-1 $381 reversed $170 $-1 #
edge $-1 $382 0 $382 6.2831853071796004 $171 $383 forward 7 unknown #
vertex $-1 $174 $384 #
ellipse-curve $-1 -42.962422774923155 27.084213361492289 10.630110662368114 0 0.75470958851134928 0.65605901945558964 1.5 0 0 1 I I #
coedge $-1 $277 $277 $-1 $385 reversed $177 $-1 #
edge $-1 $386 0 $386 6.2831853071796004 $178 $387 forward 7 unknown #
vertex $-1 $181 $388 #
ellipse-curve $-1 -37.875126427953958 27.084213361492289 10.630110662368114 0 0.75470958851134928 0.65605901945558964 1.5 0 0 1 I I #
face $-1 $-1 $293 $40 $-1 $389 forward single #
loop $-1 $-1 $390 $182 #
plane-surface $-1 0 -30.130140620065422 0 0 1 0 0 0 1 forward_v I I I I #
coedge $-1 $391 $392 $393 $394 reversed $183 $-1 #
coedge $-1 $395 $185 $187 $291 forward $115 $-1 #
coedge $-1 $185 $395 $391 $396 forward $115 $-1 #
coedge $-1 $393 $188 $185 $288 forward $293 $-1 #
edge $-1 $295 -4.4869982073339791 $397 13.460994622001945 $287 $398 forward 7 unknown #
coedge $-1 $399 $400 $186 $290 forward $282 $-1 #
edge $-1 $401 -31.537667297293826 $294 -28.368109798251332 $289 $402 forward 7 unknown #
edge $-1 $295 -5.2666639033296541 $401 4.9753997724514827e-015 $187 $403 forward 7 unknown #
coedge $-1 $188 $393 $399 $404 forward $293 $-1 #
loop $-1 $-1 $393 $281 #
vertex $-1 $290 $405 #
vertex $-1 $189 $406 #
straight-curve $-1 -3.5527136788005009e-015 -42.961576366044952 14.134049240730782 0 1 0 I I #
coedge $-1 $297 $297 $-1 $407 reversed $192 $-1 #
edge $-1 $408 0 $408 6.2831853071796004 $193 $409 forward 7 unknown #
vertex $-1 $196 $410 #
ellipse-curve $-1 -14.358394263468739 -28.027068228842346 12.549270491209533 0 -0.6018150307709319 0.79863550430605224 1 0 0 1 I I #
coedge $-1 $301 $301 $-1 $411 reversed $199 $-1 #
edge $-1 $412 0 $412 6.2831853071796004 $200 $413 forward 7 unknown #
vertex $-1 $203 $414 #
ellipse-curve $-1 -8.9739964146679654 -28.027068228842346 12.549270491209533 0 -0.6018150307709319 0.79863550430605224 1 0 0 1 I I #
coedge $-1 $305 $305 $-1 $415 reversed $206 $-1 #
edge $-1 $416 0 $416 6.2831853071796004 $207 $417 forward 7 unknown #
vertex $-1 $210 $418 #
ellipse-curve $-1 -3.5895985658671918 -28.027068228842346 12.549270491209533 0 -0.6018150307709319 0.79863550430605224 1 0 0 1 I I #
face $-1 $-1 $419 $44 $-1 $420 forward single #
loop $-1 $-1 $322 $211 #
plane-surface $-1 -3.5527136788005009e-015 -85.923152732089903 85.004318077964228 -1 0 0 0 -0.6018150307709319 0.79863550430605224 forward_v I I I I #
coedge $-1 $315 $421 $216 $320 forward $212 $-1 #
coedge $-1 $314 $214 $317 $422 reversed $134 $-1 #
coedge $-1 $214 $313 $423 $424 reversed $134 $-1 #
coedge $-1 $425 $312 $214 $316 forward $212 $-1 #
edge $-1 $426 -31.537667297293826 $427 -28.368109798251332 $315 $428 forward 7 unknown #
coedge $-1 $216 $215 $313 $422 forward $85 $-1 #
coedge $-1 $429 $423 $215 $319 forward $419 $-1 #
edge $-1 $430 -22.434991036669896 $323 -4.4869982073339791 $318 $431 forward 7 unknown #
edge $-1 $324 4.4869982073339791 $426 22.434991036669896 $312 $432 forward 7 unknown #
coedge $-1 $322 $217 $421 $433 reversed $310 $-1 #
coedge $-1 $217 $321 $429 $434 reversed $310 $-1 #
vertex $-1 $319 $435 #
vertex $-1 $320 $436 #
straight-curve $-1 -3.5527136788005009e-015 -30.130140620065418 10.964491741688292 0 -0.79863550430605224 -0.6018150307709319 I I #
coedge $-1 $326 $326 $-1 $437 reversed $221 $-1 #
edge $-1 $438 0 $438 6.2831853071796004 $222 $439 forward 7 unknown #
vertex $-1 $225 $440 #
ellipse-curve $-1 3.5895985658671776 -28.027068228842346 12.549270491209533 0 -0.6018150307709319 0.79863550430605224 1 0 0 1 I I #
coedge $-1 $330 $330 $-1 $441 reversed $228 $-1 #
edge $-1 $442 0 $442 6.2831853071796004 $229 $443 forward 7 unknown #
vertex $-1 $232 $444 #
ellipse-curve $-1 8.9739964146679512 -28.027068228842346 12.549270491209533 0 -0.6018150307709319 0.79863550430605224 1 0 0 1 I I #
coedge $-1 $334 $334 $-1 $445 reversed $235 $-1 #
edge $-1 $446 0 $446 6.2831853071796004 $236 $447 forward 7 unknown #
vertex $-1 $239 $448 #
ellipse-curve $-1 14.358394263468725 -28.027068228842346 12.549270491209533 0 -0.6018150307709319 0.79863550430605224 1 0 0 1 I I #
face $-1 $-1 $255 $36 $-1 $449 reversed single #
loop $-1 $-1 $354 $240 #
plane-surface $-1 0 30.130140620065422 0 0 -1 0 0 0 -1 forward_v I I I I #
coedge $-1 $450 $352 $355 $451 forward $241 $-1 #
coedge $-1 $358 $243 $244 $346 reversed $153 $-1 #
coedge $-1 $352 $450 $243 $344 reversed $241 $-1 #
edge $-1 $359 -14.134049240730784 $452 14.134049240730784 $343 $453 forward 7 unknown #
coedge $-1 $245 $244 $450 $454 forward $97 $-1 #
edge $-1 $350 -46.35395367290262 $452 46.35395367290262 $342 $455 forward 7 unknown #
coedge $-1 $355 $354 $245 $348 reversed $339 $-1 #
edge $-1 $456 -46.35395367290262 $349 46.35395367290262 $347 $457 forward 7 unknown #
vertex $-1 $247 $458 #
vertex $-1 $361 $459 #
straight-curve $-1 46.35395367290262 0 -14.134049240730784 0 -1 0 I I #
coedge $-1 $341 $343 $248 $353 reversed $241 $-1 #
edge $-1 $356 -30.130140620065422 $359 30.130140620065422 $352 $460 forward 7 unknown #
coedge $-1 $347 $249 $254 $362 forward $339 $-1 #
coedge $-1 $249 $347 $341 $451 reversed $339 $-1 #
vertex $-1 $250 $461 #
straight-curve $-1 0 30.130140620065422 14.134049240730784 -1 0 0 I I #
coedge $-1 $251 $342 $253 $361 reversed $153 $-1 #
vertex $-1 $353 $462 #
straight-curve $-1 0 -30.130140620065422 14.134049240730784 1 0 0 I I #
edge $-1 $256 -14.134049240730784 $350 14.134049240730784 $253 $463 forward 7 unknown #
edge $-1 $257 -14.134049240730784 $349 14.134049240730784 $254 $464 forward 7 unknown #
point $-1 46.35395367290262 -30.130140620065422 14.134049240730784 #
point $-1 46.35395367290262 30.130140620065422 14.134049240730784 #
loop $-1 $-1 $368 $259 #
plane-surface $-1 -46.35395367290262 0 0 1 0 0 0 0 -1 forward_v I I I I #
coedge $-1 $263 $262 $374 $465 reversed $101 $-1 #
coedge $-1 $466 $467 $263 $369 forward $365 $-1 #
edge $-1 $371 -37.324620675104583 $468 -28.03909248862924 $368 $469 forward 7 unknown #
coedge $-1 $269 $264 $467 $470 reversed $161 $-1 #
vertex $-1 $265 $471 #
straight-curve $-1 -20.209387300719278 30.130140620065422 7.1261720840054323 -1 0 0 I I #
coedge $-1 $472 $266 $269 $378 forward $260 $-1 #
coedge $-1 $266 $472 $367 $465 forward $260 $-1 #
vertex $-1 $267 $473 #
straight-curve $-1 -34.483595529974494 30.281693101124048 14.134049240730782 0 1 0 I I #
straight-curve $-1 -34.483595529974494 -9.4041604024528738 52.605184142322756 0 -0.65605901945558964 0.75470958851134928 I I #
edge $-1 $270 34.483595529974494 $474 46.35395367290262 $269 $475 forward 7 unknown #
point $-1 -34.483595529974494 30.130140620065422 14.134049240730784 #
point $-1 -34.483595529974494 30.130140620065418 7.1261720840054394 #
edge $-1 $476 1 $476 0 $273 $-1 forward 7 unknown #
vertex $-1 $274 $477 #
ellipse-curve $-1 -42.962422774923155 23.035322062025873 7.1104632426901304 0 0.75470958851134928 0.65605901945558964 1.5 0 0 1 I I #
point $-1 -41.462422774923155 27.084213361492282 10.630110662368109 #
edge $-1 $478 1 $478 0 $277 $-1 forward 7 unknown #
vertex $-1 $278 $479 #
ellipse-curve $-1 -37.875126427953958 23.035322062025873 7.1104632426901304 0 0.75470958851134928 0.65605901945558964 1.5 0 0 1 I I #
point $-1 -36.375126427953958 27.084213361492282 10.630110662368109 #
plane-surface $-1 0 0 14.134049240730784 0 0 1 1 0 0 forward_v I I I I #
coedge $-1 $400 $399 $392 $480 forward $282 $-1 #
coedge $-1 $392 $284 $286 $396 reversed $183 $-1 #
coedge $-1 $284 $391 $390 $480 reversed $183 $-1 #
coedge $-1 $292 $287 $284 $394 forward $293 $-1 #
edge $-1 $397 -17.037580528425693 $481 -12.83143574597953 $393 $482 forward 7 unknown #
coedge $-1 $286 $285 $400 $483 reversed $115 $-1 #
edge $-1 $484 -4.9753997724514827e-015 $397 5.2666639033296541 $391 $485 forward 7 unknown #
vertex $-1 $288 $486 #
straight-curve $-1 -4.4869982073339827 -25.923995837619259 14.134049240730784 -1 0 0 I I #
coedge $-1 $390 $289 $292 $404 reversed $282 $-1 #
coedge $-1 $289 $390 $395 $483 forward $282 $-1 #
vertex $-1 $290 $487 #
straight-curve $-1 -3.5527136788005009e-015 -30.130140620065422 42.502159038982114 0 0 1 I I #
straight-curve $-1 -3.5527136788005009e-015 -30.130140620065418 10.964491741688292 0 -0.79863550430605224 -0.6018150307709319 I I #
edge $-1 $481 -17.947992829335927 $294 -3.5527136788005009e-015 $399 $488 forward 7 unknown #
point $-1 -3.5527136788005009e-015 -30.130140620065422 14.134049240730784 #
point $-1 -3.5527136788005009e-015 -25.923995837619259 14.134049240730784 #
edge $-1 $489 1 $489 0 $297 $-1 forward 7 unknown #
vertex $-1 $298 $490 #
ellipse-curve $-1 -14.358394263468739 -25.797503971193628 9.5905388473536952 0 -0.6018150307709319 0.79863550430605224 1 0 0 1 I I #
point $-1 -13.358394263468739 -28.027068228842353 12.549270491209546 #
edge $-1 $491 1 $491 0 $301 $-1 forward 7 unknown #
vertex $-1 $302 $492 #
ellipse-curve $-1 -8.9739964146679654 -25.797503971193628 9.5905388473536952 0 -0.6018150307709319 0.79863550430605224 1 0 0 1 I I #
point $-1 -7.9739964146679654 -28.027068228842353 12.549270491209546 #
edge $-1 $493 1 $493 0 $305 $-1 forward 7 unknown #
vertex $-1 $306 $494 #
ellipse-curve $-1 -3.5895985658671918 -25.797503971193628 9.5905388473536952 0 -0.6018150307709319 0.79863550430605224 1 0 0 1 I I #
point $-1 -2.5895985658671918 -28.027068228842353 12.549270491209546 #
loop $-1 $-1 $318 $309 #
plane-surface $-1 0 0 14.134049240730784 0 0 1 1 0 0 forward_v I I I I #
coedge $-1 $312 $425 $321 $433 forward $212 $-1 #
edge $-1 $430 -5.2666639033296541 $426 4.9753997724514827e-015 $313 $495 forward 7 unknown #
coedge $-1 $318 $496 $314 $424 forward $419 $-1 #
edge $-1 $427 12.83143574597953 $430 17.037580528425693 $423 $497 forward 7 unknown #
coedge $-1 $421 $315 $496 $498 reversed $212 $-1 #
vertex $-1 $316 $499 #
vertex $-1 $316 $500 #
straight-curve $-1 17.947992829335913 -30.130140620065422 42.502159038982114 0 0 1 I I #
coedge $-1 $496 $318 $322 $434 forward $419 $-1 #
vertex $-1 $424 $501 #
straight-curve $-1 -4.4869982073339827 -25.923995837619259 14.134049240730784 -1 0 0 I I #
straight-curve $-1 -4.4869982073339827 -30.130140620065422 10.96449174168829 1 0 0 I I #
edge $-1 $502 28.368109798251332 $324 31.537667297293826 $421 $503 forward 7 unknown #
edge $-1 $323 -17.037580528425693 $502 -12.83143574597953 $429 $504 forward 7 unknown #
point $-1 -3.5527136788005009e-015 -25.923995837619259 14.134049240730784 #
point $-1 -3.5527136788005009e-015 -30.130140620065422 10.964491741688288 #
edge $-1 $505 1 $505 0 $326 $-1 forward 7 unknown #
vertex $-1 $327 $506 #
ellipse-curve $-1 3.5895985658671776 -25.797503971193628 9.5905388473536952 0 -0.6018150307709319 0.79863550430605224 1 0 0 1 I I #
point $-1 4.5895985658671776 -28.027068228842353 12.549270491209546 #
edge $-1 $507 1 $507 0 $330 $-1 forward 7 unknown #
vertex $-1 $331 $508 #
ellipse-curve $-1 8.9739964146679512 -25.797503971193628 9.5905388473536952 0 -0.6018150307709319 0.79863550430605224 1 0 0 1 I I #
point $-1 9.9739964146679512 -28.027068228842353 12.549270491209546 #
edge $-1 $509 1 $509 0 $334 $-1 forward 7 unknown #
vertex $-1 $335 $510 #
ellipse-curve $-1 14.358394263468725 -25.797503971193628 9.5905388473536952 0 -0.6018150307709319 0.79863550430605224 1 0 0 1 I I #
point $-1 15.358394263468725 -28.027068228842353 12.549270491209546 #
plane-surface $-1 46.35395367290262 0 0 -1 0 0 0 0 1 forward_v I I I I #
coedge $-1 $343 $341 $345 $454 reversed $241 $-1 #
edge $-1 $356 -14.134049240730784 $456 14.134049240730784 $355 $511 forward 7 unknown #
vertex $-1 $454 $512 #
straight-curve $-1 -46.35395367290262 -30.130140620065422 0 0 0 -1 I I #
edge $-1 $452 -30.130140620065422 $456 30.130140620065422 $450 $513 forward 7 unknown #
straight-curve $-1 0 -30.130140620065422 -14.134049240730784 -1 0 0 I I #
vertex $-1 $348 $514 #
straight-curve $-1 0 30.130140620065422 -14.134049240730784 1 0 0 I I #
point $-1 46.35395367290262 30.130140620065422 -14.134049240730784 #
point $-1 46.35395367290262 -30.130140620065422 -14.134049240730784 #
straight-curve $-1 -46.35395367290262 0 14.134049240730784 0 -1 0 I I #
point $-1 -46.35395367290262 30.130140620065422 14.134049240730784 #
point $-1 -46.35395367290262 -30.130140620065422 14.134049240730784 #
straight-curve $-1 46.35395367290262 -30.130140620065422 0 0 0 -1 I I #
straight-curve $-1 46.35395367290262 30.130140620065422 0 0 0 -1 I I #
edge $-1 $468 -26.144566372183341 $375 -14.274208229255215 $374 $515 forward 7 unknown #
coedge $-1 $467 $368 $472 $516 reversed $365 $-1 #
coedge $-1 $368 $466 $370 $470 forward $365 $-1 #
vertex $-1 $369 $517 #
straight-curve $-1 -46.35395367290262 5.642986578404475 35.295421195055816 0 -0.65605901945558975 0.75470958851134939 I I #
edge $-1 $474 -14.134049240730784 $371 -7.1261720840054377 $370 $518 forward 7 unknown #
point $-1 -46.35395367290262 30.130140620065422 7.1261720840054377 #
coedge $-1 $374 $373 $466 $516 forward $260 $-1 #
point $-1 -34.483595529974494 24.038286102919166 14.134049240730782 #
vertex $-1 $378 $519 #
straight-curve $-1 0 30.130140620065422 14.134049240730784 -1 0 0 I I #
vertex $-1 $381 $520 #
point $-1 -41.462422774923155 23.035322062025873 7.1104632426901304 #
vertex $-1 $385 $521 #
point $-1 -36.375126427953958 23.035322062025873 7.1104632426901304 #
edge $-1 $481 28.368109798251332 $484 31.537667297293826 $390 $522 forward 7 unknown #
vertex $-1 $404 $523 #
straight-curve $-1 -17.947992829335927 -42.961576366044952 14.134049240730782 0 -1 0 I I #
edge $-1 $484 -13.460994622001945 $401 4.4869982073339791 $400 $524 forward 7 unknown #
vertex $-1 $483 $525 #
straight-curve $-1 -17.947992829335927 -30.130140620065418 10.964491741688292 0 0.79863550430605224 0.6018150307709319 I I #
point $-1 -17.947992829335927 -25.923995837619259 14.134049240730784 #
point $-1 -3.5527136788005009e-015 -30.130140620065422 10.964491741688288 #
straight-curve $-1 0 -30.130140620065422 14.134049240730784 1 0 0 I I #
vertex $-1 $407 $526 #
point $-1 -13.358394263468739 -25.797503971193628 9.5905388473536952 #
vertex $-1 $411 $527 #
point $-1 -7.9739964146679654 -25.797503971193628 9.5905388473536952 #
vertex $-1 $415 $528 #
point $-1 -2.5895985658671918 -25.797503971193628 9.5905388473536952 #
straight-curve $-1 17.947992829335913 -30.130140620065418 10.964491741688292 0 -0.79863550430605224 -0.6018150307709319 I I #
coedge $-1 $423 $429 $425 $498 forward $419 $-1 #
straight-curve $-1 17.947992829335913 -42.961576366044952 14.134049240730782 0 1 0 I I #
edge $-1 $502 -3.5527136788005009e-015 $427 17.947992829335913 $425 $529 forward 7 unknown #
point $-1 17.947992829335913 -30.130140620065422 10.964491741688288 #
point $-1 17.947992829335913 -30.130140620065422 14.134049240730784 #
point $-1 17.947992829335913 -25.923995837619259 14.134049240730784 #
vertex $-1 $498 $530 #
straight-curve $-1 -3.5527136788005009e-015 -30.130140620065422 42.502159038982114 0 0 -1 I I #
straight-curve $-1 -3.5527136788005009e-015 -42.961576366044952 14.134049240730782 0 -1 0 I I #
vertex $-1 $437 $531 #
point $-1 4.5895985658671776 -25.797503971193628 9.5905388473536952 #
vertex $-1 $441 $532 #
point $-1 9.9739964146679512 -25.797503971193628 9.5905388473536952 #
vertex $-1 $445 $533 #
point $-1 15.358394263468725 -25.797503971193628 9.5905388473536952 #
straight-curve $-1 -46.35395367290262 30.130140620065422 0 0 0 -1 I I #
point $-1 -46.35395367290262 -30.130140620065422 -14.134049240730784 #
straight-curve $-1 -46.35395367290262 0 -14.134049240730784 0 1 0 I I #
point $-1 -46.35395367290262 30.130140620065422 -14.134049240730784 #
straight-curve $-1 -20.209387300719278 24.038286102919166 14.134049240730779 1 0 0 I I #
edge $-1 $474 -30.130140620065422 $468 -24.038286102919166 $466 $534 forward 7 unknown #
point $-1 -46.35395367290262 24.038286102919166 14.134049240730782 #
straight-curve $-1 -46.35395367290262 30.130140620065422 0 0 0 -1 I I #
point $-1 -46.35395367290262 30.130140620065422 14.134049240730784 #
point $-1 -42.962422774923155 21.903257679258846 6.1263747135067455 #
point $-1 -37.875126427953958 21.903257679258846 6.1263747135067455 #
straight-curve $-1 -17.947992829335927 -30.130140620065422 42.502159038982114 0 0 -1 I I #
point $-1 -17.947992829335927 -30.130140620065422 14.134049240730784 #
straight-curve $-1 -4.4869982073339827 -30.130140620065422 10.96449174168829 1 0 0 I I #
point $-1 -17.947992829335927 -30.130140620065422 10.964491741688288 #
point $-1 -14.358394263468739 -25.195688940422698 8.7919033430476432 #
point $-1 -8.9739964146679654 -25.195688940422698 8.7919033430476432 #
point $-1 -3.5895985658671918 -25.195688940422698 8.7919033430476432 #
straight-curve $-1 0 -30.130140620065422 14.134049240730784 1 0 0 I I #
point $-1 -3.5527136788005009e-015 -30.130140620065422 14.134049240730784 #
point $-1 3.5895985658671776 -25.195688940422698 8.7919033430476432 #
point $-1 8.9739964146679512 -25.195688940422698 8.7919033430476432 #
point $-1 14.358394263468725 -25.195688940422698 8.7919033430476432 #
straight-curve $-1 -46.35395367290262 0 14.134049240730784 0 -1 0 I I #
End-of-ACIS-data 