500 0 5 0           
7 Unknown 11 ACIS 5.0 NT 24 Fri Mar 26 17:29:35 1999 
-1 9.9999999999999995e-007 1e-010 
body $-1 $5 $-1 $6 #
body $-1 $7 $-1 $8 #
body $-1 $9 $-1 $10 #
body $-1 $11 $-1 $12 #
body $-1 $13 $-1 $14 #
lump $-1 $-1 $15 $0 #
transform $-1 1 0 0 0 1 0 0 0 1 42.50251777703177 27.925167225146762 10.67645267890709 1 rotate no_reflect no_shear #
lump $-1 $-1 $16 $1 #
transform $-1 1 0 0 0 1 0 0 0 1 42.50251777703177 27.925167225146762 10.67645267890709 1 rotate no_reflect no_shear #
lump $-1 $-1 $17 $2 #
transform $-1 1 0 0 0 1 0 0 0 1 42.50251777703177 27.925167225146762 10.67645267890709 1 rotate no_reflect no_shear #
lump $-1 $-1 $18 $3 #
transform $-1 1 0 0 0 1 0 0 0 1 42.50251777703177 27.925167225146762 10.67645267890709 1 rotate no_reflect no_shear #
lump $-1 $-1 $19 $4 #
transform $-1 1 0 0 0 1 0 0 0 1 42.50251777703177 27.925167225146762 10.67645267890709 1 rotate no_reflect no_shear #
shell $-1 $-1 $-1 $20 $-1 $5 #
shell $-1 $-1 $-1 $21 $-1 $7 #
shell $-1 $-1 $-1 $22 $-1 $9 #
shell $-1 $-1 $-1 $23 $-1 $11 #
shell $-1 $-1 $-1 $24 $-1 $13 #
face $-1 $25 $26 $15 $-1 $27 forward single #
face $-1 $28 $29 $16 $-1 $30 forward single #
face $-1 $31 $32 $17 $-1 $33 reversed single #
face $-1 $34 $35 $18 $-1 $36 forward single #
face $-1 $37 $38 $19 $-1 $39 forward single #
face $-1 $40 $41 $15 $-1 $42 reversed single #
loop $-1 $-1 $43 $20 #
plane-surface $-1 0 0 10.67645267890709 0 0 1 1 0 0 forward_v I I I I #
face $-1 $44 $45 $16 $-1 $46 reversed single #
loop $-1 $-1 $47 $21 #
plane-surface $-1 0 -27.925167225146762 0 0 1 0 0 0 1 forward_v I I I I #
face $-1 $48 $49 $17 $-1 $50 reversed single #
loop $-1 $-1 $51 $22 #
plane-surface $-1 40.40447331618725 -1.87014959280833 121.86476065596452 0 -1 0 -0.69465837861970381 0 -0.71933979245794832 forward_v I I I I #
face $-1 $52 $53 $18 $-1 $54 forward single #
loop $-1 $55 $56 $23 #
cone-surface $-1 37.209714195237183 -6.9902394227609328 5.5213607126885256 -0.69465837861970381 0 -0.71933979245794832 0.35966989622897416 0 -0.3473291893098519 1 I I 0 1 0.5 forward I I I I #
face $-1 $57 $58 $19 $-1 $59 forward single #
loop $-1 $60 $61 $24 #
cone-surface $-1 37.209714195237183 -3.9181855247893687 5.5213607126885256 -0.69465837861970381 0 -0.71933979245794832 0.35966989622897416 0 -0.3473291893098519 1 I I 0 1 0.5 forward I I I I #
face $-1 $62 $63 $15 $-1 $64 reversed single #
loop $-1 $-1 $65 $25 #
plane-surface $-1 0 0 -10.67645267890709 0 0 1 1 0 0 forward_v I I I I #
coedge $-1 $66 $67 $68 $69 forward $26 $-1 #
face $-1 $70 $71 $16 $-1 $72 forward single #
loop $-1 $-1 $73 $28 #
plane-surface $-1 -42.50251777703177 0 0 1 0 0 0 0 -1 forward_v I I I I #
coedge $-1 $74 $75 $76 $77 forward $29 $-1 #
face $-1 $78 $79 $17 $-1 $80 reversed single #
loop $-1 $-1 $81 $31 #
plane-surface $-1 -18.644986856308805 -5.4542124737751543 60.717256022623936 0.69465837861970381 0 0.71933979245794832 0.71933979245794832 0 -0.69465837861970381 forward_v I I I I #
coedge $-1 $82 $83 $84 $85 reversed $32 $-1 #
face $-1 $-1 $86 $18 $-1 $87 forward single #
loop $-1 $88 $89 $34 #
cone-surface $-1 36.407614529259931 -6.9902394227609328 4.6907622127450921 -0.69465837861970381 0 -0.71933979245794832 0.17983494811448708 0 -0.17366459465492595 1 I I -0.70710678118654746 0.70710678118654746 0.25 forward I I I I #
loop $-1 $-1 $90 $23 #
coedge $-1 $56 $56 $91 $92 reversed $35 $-1 #
face $-1 $-1 $93 $19 $-1 $94 forward single #
loop $-1 $95 $96 $37 #
cone-surface $-1 36.407614529259931 -3.9181855247893687 4.6907622127450921 -0.69465837861970381 0 -0.71933979245794832 0.17983494811448708 0 -0.17366459465492595 1 I I -0.70710678118654746 0.70710678118654746 0.25 forward I I I I #
loop $-1 $-1 $97 $24 #
coedge $-1 $61 $61 $98 $99 reversed $38 $-1 #
face $-1 $100 $101 $15 $-1 $102 reversed single #
loop $-1 $-1 $103 $40 #
plane-surface $-1 0 -27.925167225146762 0 0 1 0 0 0 1 forward_v I I I I #
coedge $-1 $104 $105 $106 $107 forward $41 $-1 #
coedge $-1 $108 $43 $109 $110 forward $26 $-1 #
coedge $-1 $43 $108 $111 $112 forward $26 $-1 #
coedge $-1 $113 $114 $43 $69 reversed $115 $-1 #
edge $-1 $116 -27.925167225146762 $117 27.925167225146762 $68 $118 forward 7 unknown #
face $-1 $119 $120 $16 $-1 $121 reversed single #
loop $-1 $-1 $122 $44 #
plane-surface $-1 0 -33.825208204211265 0.18456080849117917 0 0 1 1 0 0 forward_v I I I I #
coedge $-1 $123 $124 $75 $125 forward $45 $-1 #
coedge $-1 $126 $47 $127 $128 reversed $29 $-1 #
coedge $-1 $47 $126 $73 $125 reversed $29 $-1 #
coedge $-1 $129 $122 $47 $77 reversed $71 $-1 #
edge $-1 $130 -42.50251777703177 $131 42.50251777703177 $76 $132 forward 7 unknown #
face $-1 $133 $134 $17 $-1 $135 reversed single #
loop $-1 $-1 $136 $48 #
plane-surface $-1 40.40447331618725 -9.0382753547419785 121.86476065596452 0 1 0 0.69465837861970381 0 0.71933979245794832 forward_v I I I I #
coedge $-1 $137 $138 $139 $140 reversed $49 $-1 #
coedge $-1 $83 $51 $141 $142 reversed $32 $-1 #
coedge $-1 $51 $82 $137 $143 reversed $32 $-1 #
coedge $-1 $139 $144 $51 $85 forward $145 $-1 #
edge $-1 $146 -22.300281118938145 $147 -12.97154409799365 $84 $148 forward 7 unknown #
loop $-1 $-1 $91 $52 #
plane-surface $-1 -18.644986856308805 -5.4542124737751543 60.717256022623936 0.69465837861970381 0 0.71933979245794832 0.71933979245794832 0 -0.69465837861970381 forward_v I I I I #
loop $-1 $-1 $149 $34 #
coedge $-1 $89 $89 $90 $150 reversed $53 $-1 #
coedge $-1 $90 $90 $89 $150 forward $55 $-1 #
coedge $-1 $91 $91 $56 $92 forward $86 $-1 #
edge $-1 $151 0 $151 6.2831853071796004 $91 $152 forward 7 unknown #
loop $-1 $-1 $98 $57 #
plane-surface $-1 -18.644986856308805 -5.4542124737751543 60.717256022623936 0.69465837861970381 0 0.71933979245794832 0.71933979245794832 0 -0.69465837861970381 forward_v I I I I #
loop $-1 $-1 $153 $37 #
coedge $-1 $96 $96 $97 $154 reversed $58 $-1 #
coedge $-1 $97 $97 $96 $154 forward $60 $-1 #
coedge $-1 $98 $98 $61 $99 forward $93 $-1 #
edge $-1 $155 0 $155 6.2831853071796004 $98 $156 forward 7 unknown #
face $-1 $157 $158 $15 $-1 $159 reversed single #
loop $-1 $-1 $160 $62 #
plane-surface $-1 -42.50251777703177 0 0 1 0 0 0 0 -1 forward_v I I I I #
coedge $-1 $161 $111 $162 $163 forward $63 $-1 #
coedge $-1 $164 $65 $161 $165 forward $41 $-1 #
coedge $-1 $65 $164 $166 $167 forward $41 $-1 #
coedge $-1 $114 $113 $65 $107 reversed $115 $-1 #
edge $-1 $168 -27.925167225146762 $169 27.925167225146762 $106 $170 forward 7 unknown #
coedge $-1 $67 $66 $171 $172 forward $26 $-1 #
coedge $-1 $173 $174 $66 $110 reversed $158 $-1 #
edge $-1 $117 -42.50251777703177 $175 42.50251777703177 $109 $176 forward 7 unknown #
coedge $-1 $103 $177 $67 $112 reversed $63 $-1 #
edge $-1 $178 -42.50251777703177 $116 42.50251777703177 $111 $179 forward 7 unknown #
coedge $-1 $106 $68 $177 $180 forward $115 $-1 #
coedge $-1 $68 $106 $173 $181 reversed $115 $-1 #
loop $-1 $-1 $113 $157 #
vertex $-1 $69 $182 #
vertex $-1 $69 $183 #
straight-curve $-1 42.50251777703177 0 10.67645267890709 0 1 0 I I #
face $-1 $184 $185 $16 $-1 $186 reversed single #
loop $-1 $-1 $187 $70 #
plane-surface $-1 0 -33.825208204211265 -5.3095097436251439 0 0 1 1 0 0 forward_v I I I I #
coedge $-1 $76 $188 $189 $190 forward $71 $-1 #
coedge $-1 $191 $73 $192 $193 reversed $45 $-1 #
coedge $-1 $73 $191 $129 $194 reversed $45 $-1 #
edge $-1 $130 -0.18456080849117917 $195 5.3095097436251439 $73 $196 forward 7 unknown #
coedge $-1 $75 $74 $197 $198 forward $29 $-1 #
coedge $-1 $189 $199 $74 $128 forward $200 $-1 #
edge $-1 $201 -5.3095097436251439 $131 0.18456080849117917 $127 $202 forward 7 unknown #
coedge $-1 $188 $76 $124 $194 forward $71 $-1 #
vertex $-1 $125 $203 #
vertex $-1 $190 $204 #
straight-curve $-1 0 -27.925167225146762 0.18456080849117917 1 0 0 I I #
face $-1 $-1 $145 $17 $-1 $205 forward single #
loop $-1 $-1 $206 $78 #
plane-surface $-1 42.50251777703177 0 0 -1 0 0 0 0 1 forward_v I I I I #
coedge $-1 $207 $208 $209 $210 reversed $79 $-1 #
coedge $-1 $211 $81 $83 $143 forward $49 $-1 #
coedge $-1 $81 $211 $207 $212 forward $49 $-1 #
coedge $-1 $209 $84 $81 $140 forward $145 $-1 #
edge $-1 $147 -0.8569566440792471 $213 6.3111691178544014 $139 $214 forward 7 unknown #
coedge $-1 $215 $216 $82 $142 forward $134 $-1 #
edge $-1 $217 -59.26458447785437 $146 -50.255927649075169 $141 $218 forward 7 unknown #
edge $-1 $147 72.036564855301449 $217 85.005035554063525 $83 $219 forward 7 unknown #
coedge $-1 $84 $209 $215 $220 forward $145 $-1 #
loop $-1 $-1 $209 $133 #
vertex $-1 $142 $221 #
vertex $-1 $85 $222 #
straight-curve $-1 20.202236658093625 -1.87014959280833 10.67645267890709 -1 0 0 I I #
coedge $-1 $149 $149 $-1 $223 reversed $88 $-1 #
edge $-1 $224 0 $224 6.2831853071796004 $89 $225 forward 7 unknown #
vertex $-1 $92 $226 #
ellipse-curve $-1 37.838149266559519 -6.9902394227609328 6.172124264517489 0.69465837861970381 0 0.71933979245794832 0.35966989622897416 0 -0.3473291893098519 1 I I #
coedge $-1 $153 $153 $-1 $227 reversed $95 $-1 #
edge $-1 $228 0 $228 6.2831853071796004 $96 $229 forward 7 unknown #
vertex $-1 $99 $230 #
ellipse-curve $-1 37.838149266559519 -3.9181855247893687 6.172124264517489 0.69465837861970381 0 0.71933979245794832 0.35966989622897416 0 -0.3473291893098519 1 I I #
face $-1 $-1 $115 $15 $-1 $231 reversed single #
loop $-1 $-1 $173 $100 #
plane-surface $-1 0 27.925167225146762 0 0 -1 0 0 0 -1 forward_v I I I I #
coedge $-1 $232 $171 $174 $233 forward $101 $-1 #
coedge $-1 $177 $103 $104 $165 reversed $63 $-1 #
coedge $-1 $171 $232 $103 $163 reversed $101 $-1 #
edge $-1 $178 -10.67645267890709 $234 10.67645267890709 $162 $235 forward 7 unknown #
coedge $-1 $105 $104 $232 $236 forward $41 $-1 #
edge $-1 $169 -42.50251777703177 $234 42.50251777703177 $161 $237 forward 7 unknown #
coedge $-1 $174 $173 $105 $167 reversed $158 $-1 #
edge $-1 $238 -42.50251777703177 $168 42.50251777703177 $166 $239 forward 7 unknown #
vertex $-1 $107 $240 #
vertex $-1 $180 $241 #
straight-curve $-1 42.50251777703177 0 -10.67645267890709 0 -1 0 I I #
coedge $-1 $160 $162 $108 $172 reversed $101 $-1 #
edge $-1 $175 -27.925167225146762 $178 27.925167225146762 $171 $242 forward 7 unknown #
coedge $-1 $166 $109 $114 $181 forward $158 $-1 #
coedge $-1 $109 $166 $160 $233 reversed $158 $-1 #
vertex $-1 $110 $243 #
straight-curve $-1 0 27.925167225146762 10.67645267890709 -1 0 0 I I #
coedge $-1 $111 $161 $113 $180 reversed $63 $-1 #
vertex $-1 $172 $244 #
straight-curve $-1 0 -27.925167225146762 10.67645267890709 1 0 0 I I #
edge $-1 $116 -10.67645267890709 $169 10.67645267890709 $113 $245 forward 7 unknown #
edge $-1 $117 -10.67645267890709 $168 10.67645267890709 $114 $246 forward 7 unknown #
point $-1 42.50251777703177 -27.925167225146762 10.67645267890709 #
point $-1 42.50251777703177 27.925167225146762 10.67645267890709 #
face $-1 $-1 $200 $16 $-1 $247 reversed single #
loop $-1 $-1 $248 $119 #
plane-surface $-1 0 -39.725249183275771 -2.5624744675669824 0 1 0 0 0 1 forward_v I I I I #
coedge $-1 $249 $197 $199 $250 forward $120 $-1 #
coedge $-1 $122 $129 $251 $252 forward $71 $-1 #
coedge $-1 $253 $127 $122 $190 reversed $200 $-1 #
edge $-1 $254 -5.9000409790645065 $131 5.9000409790645065 $189 $255 forward 7 unknown #
coedge $-1 $124 $123 $248 $256 reversed $45 $-1 #
coedge $-1 $197 $249 $123 $193 forward $120 $-1 #
edge $-1 $257 -5.9000409790645065 $195 5.9000409790645065 $123 $258 forward 7 unknown #
edge $-1 $130 -5.9000409790645065 $259 5.9000409790645065 $124 $260 forward 7 unknown #
vertex $-1 $125 $261 #
straight-curve $-1 -42.50251777703177 -27.925167225146762 0 0 0 -1 I I #
coedge $-1 $187 $192 $126 $198 reversed $120 $-1 #
edge $-1 $201 -42.50251777703177 $195 42.50251777703177 $197 $262 forward 7 unknown #
coedge $-1 $127 $253 $187 $250 reversed $200 $-1 #
loop $-1 $-1 $127 $184 #
vertex $-1 $128 $263 #
straight-curve $-1 42.50251777703177 -27.925167225146762 0 0 0 1 I I #
point $-1 -42.50251777703177 -27.925167225146758 0.18456080849117917 #
point $-1 42.50251777703177 -27.925167225146758 0.18456080849117917 #
plane-surface $-1 0 0 10.67645267890709 0 0 1 1 0 0 forward_v I I I I #
coedge $-1 $216 $215 $208 $264 forward $134 $-1 #
coedge $-1 $208 $136 $138 $212 reversed $79 $-1 #
coedge $-1 $136 $207 $206 $264 reversed $79 $-1 #
coedge $-1 $144 $139 $136 $210 forward $145 $-1 #
edge $-1 $213 12.97154409799365 $265 22.300281118938145 $209 $266 forward 7 unknown #
coedge $-1 $138 $137 $216 $267 reversed $49 $-1 #
edge $-1 $268 -85.005035554063525 $213 -72.036564855301449 $207 $269 forward 7 unknown #
vertex $-1 $140 $270 #
straight-curve $-1 33.173780756087268 -2.7271062368875771 10.67645267890709 0 -1 0 I I #
coedge $-1 $206 $141 $144 $220 reversed $134 $-1 #
coedge $-1 $141 $206 $211 $267 forward $134 $-1 #
vertex $-1 $142 $271 #
straight-curve $-1 42.50251777703177 -1.87014959280833 60.932380327982258 0 0 1 I I #
straight-curve $-1 -18.644986856308805 -1.87014959280833 60.717256022623936 0.71933979245794832 0 -0.69465837861970381 I I #
edge $-1 $265 -9.0382753547419785 $146 -1.87014959280833 $215 $272 forward 7 unknown #
point $-1 42.50251777703177 -1.87014959280833 10.67645267890709 #
point $-1 33.173780756087275 -1.87014959280833 10.67645267890709 #
edge $-1 $273 1 $273 0 $149 $-1 forward 7 unknown #
vertex $-1 $150 $274 #
ellipse-curve $-1 36.581279123914854 -6.9902394227609328 4.8705971608595791 0.69465837861970381 0 0.71933979245794832 0.35966989622897416 0 -0.3473291893098519 1 I I #
point $-1 38.197819162788477 -6.9902394227609328 5.8247950752076196 #
edge $-1 $275 1 $275 0 $153 $-1 forward 7 unknown #
vertex $-1 $154 $276 #
ellipse-curve $-1 36.581279123914854 -3.9181855247893687 4.8705971608595791 0.69465837861970381 0 0.71933979245794832 0.35966989622897416 0 -0.3473291893098519 1 I I #
point $-1 38.197819162788477 -3.9181855247893687 5.8247950752076196 #
plane-surface $-1 42.50251777703177 0 0 -1 0 0 0 0 1 forward_v I I I I #
coedge $-1 $162 $160 $164 $236 reversed $101 $-1 #
edge $-1 $175 -10.67645267890709 $238 10.67645267890709 $174 $277 forward 7 unknown #
vertex $-1 $236 $278 #
straight-curve $-1 -42.50251777703177 -27.925167225146762 0 0 0 -1 I I #
edge $-1 $234 -27.925167225146762 $238 27.925167225146762 $232 $279 forward 7 unknown #
straight-curve $-1 0 -27.925167225146762 -10.67645267890709 -1 0 0 I I #
vertex $-1 $167 $280 #
straight-curve $-1 0 27.925167225146762 -10.67645267890709 1 0 0 I I #
point $-1 42.50251777703177 27.925167225146762 -10.67645267890709 #
point $-1 42.50251777703177 -27.925167225146762 -10.67645267890709 #
straight-curve $-1 -42.50251777703177 0 10.67645267890709 0 -1 0 I I #
point $-1 -42.50251777703177 27.925167225146762 10.67645267890709 #
point $-1 -42.50251777703177 -27.925167225146762 10.67645267890709 #
straight-curve $-1 42.50251777703177 -27.925167225146762 0 0 0 -1 I I #
straight-curve $-1 42.50251777703177 27.925167225146762 0 0 0 -1 I I #
plane-surface $-1 42.50251777703177 0 0 -1 0 0 0 0 1 forward_v I I I I #
coedge $-1 $281 $251 $191 $256 forward $185 $-1 #
coedge $-1 $192 $187 $281 $282 forward $120 $-1 #
edge $-1 $201 -5.9000409790645065 $283 5.9000409790645065 $199 $284 forward 7 unknown #
coedge $-1 $248 $285 $188 $252 reversed $185 $-1 #
edge $-1 $259 -42.50251777703177 $254 42.50251777703177 $251 $286 forward 7 unknown #
coedge $-1 $199 $189 $285 $287 forward $200 $-1 #
vertex $-1 $190 $288 #
straight-curve $-1 42.50251777703177 -33.825208204211265 0.18456080849117917 0 1 0 I I #
edge $-1 $259 -2.7470352760581616 $257 2.7470352760581616 $191 $289 forward 7 unknown #
vertex $-1 $193 $290 #
straight-curve $-1 -42.50251777703177 -33.825208204211265 -5.3095097436251439 0 1 0 I I #
vertex $-1 $194 $291 #
straight-curve $-1 -42.50251777703177 -33.825208204211265 0.18456080849117917 0 -1 0 I I #
point $-1 -42.50251777703177 -27.925167225146758 -5.3095097436251439 #
straight-curve $-1 0 -27.925167225146762 -5.3095097436251439 -1 0 0 I I #
point $-1 42.50251777703177 -27.925167225146758 -5.3095097436251439 #
edge $-1 $265 50.255927649075169 $268 59.26458447785437 $206 $292 forward 7 unknown #
vertex $-1 $220 $293 #
straight-curve $-1 20.202236658093625 -9.0382753547419785 10.67645267890709 1 0 0 I I #
edge $-1 $268 -6.3111691178544014 $217 0.8569566440792471 $216 $294 forward 7 unknown #
vertex $-1 $267 $295 #
straight-curve $-1 -18.644986856308805 -9.0382753547419785 60.717256022623936 -0.71933979245794832 0 0.69465837861970381 I I #
point $-1 33.173780756087275 -9.0382753547419785 10.67645267890709 #
point $-1 42.50251777703177 -1.87014959280833 1.667795850127888 #
straight-curve $-1 42.50251777703177 0 10.67645267890709 0 1 0 I I #
vertex $-1 $223 $296 #
point $-1 36.940949020143833 -6.9902394227609328 4.5232679715497275 #
vertex $-1 $227 $297 #
point $-1 36.940949020143833 -3.9181855247893687 4.5232679715497275 #
straight-curve $-1 -42.50251777703177 27.925167225146762 0 0 0 -1 I I #
point $-1 -42.50251777703177 -27.925167225146762 -10.67645267890709 #
straight-curve $-1 -42.50251777703177 0 -10.67645267890709 0 1 0 I I #
point $-1 -42.50251777703177 27.925167225146762 -10.67645267890709 #
coedge $-1 $285 $248 $249 $282 reversed $185 $-1 #
edge $-1 $283 -42.50251777703177 $257 42.50251777703177 $281 $298 forward 7 unknown #
vertex $-1 $287 $299 #
straight-curve $-1 42.50251777703177 -33.825208204211265 -5.3095097436251439 0 -1 0 I I #
coedge $-1 $251 $281 $253 $287 reversed $185 $-1 #
straight-curve $-1 0 -39.725249183275771 0.18456080849117917 1 0 0 I I #
edge $-1 $254 -2.7470352760581616 $283 2.7470352760581616 $253 $300 forward 7 unknown #
point $-1 42.50251777703177 -39.725249183275771 0.18456080849117917 #
straight-curve $-1 -42.50251777703177 -39.725249183275771 -2.5624744675669824 0 0 -1 I I #
point $-1 -42.50251777703177 -39.725249183275771 -5.3095097436251439 #
point $-1 -42.50251777703177 -39.725249183275771 0.18456080849117917 #
straight-curve $-1 42.50251777703177 -9.0382753547419785 60.932380327982258 0 0 -1 I I #
point $-1 42.50251777703177 -9.0382753547419785 10.67645267890709 #
straight-curve $-1 42.50251777703177 -2.7271062368875771 1.6677958501278987 0 1 0 I I #
point $-1 42.50251777703177 -9.0382753547419785 1.667795850127888 #
point $-1 36.233949934605008 -6.9902394227609328 4.5109272646306051 #
point $-1 36.233949934605008 -3.9181855247893687 4.5109272646306051 #
straight-curve $-1 0 -39.725249183275771 -5.3095097436251439 -1 0 0 I I #
point $-1 42.50251777703177 -39.725249183275771 -5.3095097436251439 #
straight-curve $-1 42.50251777703177 -39.725249183275771 -2.5624744675669824 0 0 -1 I I #
End-of-ACIS-data 