500 0 6 0           
7 Unknown 11 ACIS 5.0 NT 24 Fri Mar 26 15:14:26 1999 
-1 9.9999999999999995e-007 1e-010 
body $-1 $6 $-1 $7 #
body $-1 $8 $-1 $9 #
body $-1 $10 $-1 $11 #
body $-1 $12 $-1 $13 #
body $-1 $14 $-1 $15 #
body $-1 $16 $-1 $17 #
lump $-1 $-1 $18 $0 #
transform $-1 1 0 0 0 1 0 0 0 1 65.670949430829793 41.615384236169895 15.151190201185218 1 rotate no_reflect no_shear #
lump $-1 $-1 $19 $1 #
transform $-1 1 0 0 0 1 0 0 0 1 65.670949430829793 41.615384236169895 15.151190201185218 1 rotate no_reflect no_shear #
lump $-1 $-1 $20 $2 #
transform $-1 1 0 0 0 1 0 0 0 1 65.670949430829793 41.615384236169895 15.151190201185218 1 rotate no_reflect no_shear #
lump $-1 $-1 $21 $3 #
transform $-1 1 0 0 0 1 0 0 0 1 65.670949430829793 41.615384236169895 15.151190201185218 1 rotate no_reflect no_shear #
lump $-1 $-1 $22 $4 #
transform $-1 1 0 0 0 1 0 0 0 1 65.670949430829793 41.615384236169895 15.151190201185218 1 rotate no_reflect no_shear #
lump $-1 $-1 $23 $5 #
transform $-1 1 0 0 0 1 0 0 0 1 65.670949430829793 41.615384236169895 15.151190201185218 1 rotate no_reflect no_shear #
shell $-1 $-1 $-1 $24 $-1 $6 #
shell $-1 $-1 $-1 $25 $-1 $8 #
shell $-1 $-1 $-1 $26 $-1 $10 #
shell $-1 $-1 $-1 $27 $-1 $12 #
shell $-1 $-1 $-1 $28 $-1 $14 #
shell $-1 $-1 $-1 $29 $-1 $16 #
face $-1 $30 $31 $18 $-1 $32 forward single #
face $-1 $33 $34 $19 $-1 $35 reversed single #
face $-1 $36 $37 $20 $-1 $38 reversed single #
face $-1 $39 $40 $21 $-1 $41 forward single #
face $-1 $42 $43 $22 $-1 $44 forward single #
face $-1 $45 $46 $23 $-1 $47 forward single #
face $-1 $48 $49 $18 $-1 $50 reversed single #
loop $-1 $-1 $51 $24 #
plane-surface $-1 0 0 15.151190201185218 0 0 1 1 0 0 forward_v I I I I #
face $-1 $52 $53 $19 $-1 $54 reversed single #
loop $-1 $-1 $55 $25 #
plane-surface $-1 -59.173392932570366 0 9.5339628443311213 0 0 1 1 0 0 forward_v I I I I #
face $-1 $56 $57 $20 $-1 $58 reversed single #
loop $-1 $-1 $59 $26 #
plane-surface $-1 85.086642977501768 5.7328547932958038 185.39954555025412 0 -1 0 -0.77714596973225614 0 -0.62932038083071107 forward_v I I I I #
face $-1 $60 $61 $21 $-1 $62 forward single #
loop $-1 $63 $64 $27 #
cone-surface $-1 58.070936374576767 -7.9520748072650562 6.5045200409489778 -0.77714596973225614 0 -0.62932038083071107 0.9439805712460666 0 -1.1657189545983841 1 I I 0 1 1.5 forward I I I I #
face $-1 $65 $66 $22 $-1 $67 forward single #
loop $-1 $68 $69 $28 #
cone-surface $-1 58.070936374576767 -2.8202262070547306 6.5045200409489778 -0.77714596973225614 0 -0.62932038083071107 0.9439805712460666 0 -1.1657189545983841 1 I I 0 1 1.5 forward I I I I #
face $-1 $70 $71 $23 $-1 $72 forward single #
loop $-1 $73 $74 $29 #
cone-surface $-1 58.070936374576767 2.311622393155595 6.5045200409489778 -0.77714596973225614 0 -0.62932038083071107 0.9439805712460666 0 -1.1657189545983841 1 I I 0 1 1.5 forward I I I I #
face $-1 $75 $76 $18 $-1 $77 reversed single #
loop $-1 $-1 $78 $30 #
plane-surface $-1 0 0 -15.151190201185218 0 0 1 1 0 0 forward_v I I I I #
coedge $-1 $79 $80 $81 $82 forward $31 $-1 #
face $-1 $83 $84 $19 $-1 $85 reversed single #
loop $-1 $-1 $86 $33 #
plane-surface $-1 -52.675836434310938 0 12.34257652275817 -1 0 0 0 0 1 forward_v I I I I #
coedge $-1 $87 $88 $89 $90 forward $34 $-1 #
face $-1 $91 $92 $20 $-1 $93 reversed single #
loop $-1 $-1 $94 $36 #
plane-surface $-1 -16.985184379818577 -2.8202262070547377 102.74341173960578 0.77714596973225614 0 0.62932038083071107 0.62932038083071107 0 -0.77714596973225614 forward_v I I I I #
coedge $-1 $95 $96 $97 $98 reversed $37 $-1 #
face $-1 $-1 $99 $21 $-1 $100 forward single #
loop $-1 $101 $102 $39 #
cone-surface $-1 55.750740482948075 -7.9520748072650562 4.6256625045396031 -0.77714596973225614 0 -0.62932038083071107 0.4719902856230333 0 -0.58285947729919207 1 I I -0.70710678118654757 0.70710678118654757 0.75 forward I I I I #
loop $-1 $-1 $103 $27 #
coedge $-1 $64 $64 $104 $105 reversed $40 $-1 #
face $-1 $-1 $106 $22 $-1 $107 forward single #
loop $-1 $108 $109 $42 #
cone-surface $-1 55.750740482948075 -2.8202262070547306 4.6256625045396031 -0.77714596973225614 0 -0.62932038083071107 0.4719902856230333 0 -0.58285947729919207 1 I I -0.70710678118654757 0.70710678118654757 0.75 forward I I I I #
loop $-1 $-1 $110 $28 #
coedge $-1 $69 $69 $111 $112 reversed $43 $-1 #
face $-1 $-1 $113 $23 $-1 $114 forward single #
loop $-1 $115 $116 $45 #
cone-surface $-1 55.750740482948075 2.311622393155595 4.6256625045396031 -0.77714596973225614 0 -0.62932038083071107 0.4719902856230333 0 -0.58285947729919207 1 I I -0.70710678118654757 0.70710678118654757 0.75 forward I I I I #
loop $-1 $-1 $117 $29 #
coedge $-1 $74 $74 $118 $119 reversed $46 $-1 #
face $-1 $120 $121 $18 $-1 $122 reversed single #
loop $-1 $-1 $123 $48 #
plane-surface $-1 0 -41.615384236169895 0 0 1 0 0 0 1 forward_v I I I I #
coedge $-1 $124 $125 $126 $127 forward $49 $-1 #
coedge $-1 $128 $51 $129 $130 forward $31 $-1 #
coedge $-1 $51 $128 $131 $132 forward $31 $-1 #
coedge $-1 $133 $134 $51 $82 reversed $135 $-1 #
edge $-1 $136 -41.615384236169895 $137 41.615384236169895 $81 $138 forward 7 unknown #
face $-1 $139 $140 $19 $-1 $141 reversed single #
loop $-1 $-1 $142 $52 #
plane-surface $-1 0 41.615384236169895 0 0 -1 0 0 0 -1 forward_v I I I I #
coedge $-1 $89 $143 $144 $145 reversed $53 $-1 #
coedge $-1 $146 $55 $147 $148 reversed $34 $-1 #
coedge $-1 $55 $146 $149 $150 reversed $34 $-1 #
coedge $-1 $151 $86 $55 $90 reversed $53 $-1 #
edge $-1 $152 -41.615384236169895 $153 41.615384236169895 $89 $154 forward 7 unknown #
face $-1 $155 $156 $20 $-1 $157 forward single #
loop $-1 $-1 $158 $56 #
plane-surface $-1 85.086642977501768 -11.373307207405279 185.39954555025412 0 1 0 0.77714596973225614 0 0.62932038083071107 forward_v I I I I #
coedge $-1 $159 $160 $161 $162 reversed $57 $-1 #
coedge $-1 $96 $59 $163 $164 reversed $37 $-1 #
coedge $-1 $59 $95 $159 $165 reversed $37 $-1 #
coedge $-1 $161 $166 $59 $98 forward $156 $-1 #
edge $-1 $167 -23.127627942078909 $168 -11.402274658231853 $97 $169 forward 7 unknown #
loop $-1 $-1 $104 $60 #
plane-surface $-1 -16.985184379818577 -2.8202262070547377 102.74341173960578 0.77714596973225614 0 0.62932038083071107 0.62932038083071107 0 -0.77714596973225614 forward_v I I I I #
loop $-1 $-1 $170 $39 #
coedge $-1 $102 $102 $103 $171 reversed $61 $-1 #
coedge $-1 $103 $103 $102 $171 forward $63 $-1 #
coedge $-1 $104 $104 $64 $105 forward $99 $-1 #
edge $-1 $172 0 $172 6.2831853071796004 $104 $173 forward 7 unknown #
loop $-1 $-1 $111 $65 #
plane-surface $-1 -16.985184379818577 -2.8202262070547377 102.74341173960578 0.77714596973225614 0 0.62932038083071107 0.62932038083071107 0 -0.77714596973225614 forward_v I I I I #
loop $-1 $-1 $174 $42 #
coedge $-1 $109 $109 $110 $175 reversed $66 $-1 #
coedge $-1 $110 $110 $109 $175 forward $68 $-1 #
coedge $-1 $111 $111 $69 $112 forward $106 $-1 #
edge $-1 $176 0 $176 6.2831853071796004 $111 $177 forward 7 unknown #
loop $-1 $-1 $118 $70 #
plane-surface $-1 -16.985184379818577 -2.8202262070547377 102.74341173960578 0.77714596973225614 0 0.62932038083071107 0.62932038083071107 0 -0.77714596973225614 forward_v I I I I #
loop $-1 $-1 $178 $45 #
coedge $-1 $116 $116 $117 $179 reversed $71 $-1 #
coedge $-1 $117 $117 $116 $179 forward $73 $-1 #
coedge $-1 $118 $118 $74 $119 forward $113 $-1 #
edge $-1 $180 0 $180 6.2831853071796004 $118 $181 forward 7 unknown #
face $-1 $182 $183 $18 $-1 $184 reversed single #
loop $-1 $-1 $185 $75 #
plane-surface $-1 -65.670949430829793 0 0 1 0 0 0 0 -1 forward_v I I I I #
coedge $-1 $186 $131 $187 $188 forward $76 $-1 #
coedge $-1 $189 $78 $186 $190 forward $49 $-1 #
coedge $-1 $78 $189 $191 $192 forward $49 $-1 #
coedge $-1 $134 $133 $78 $127 reversed $135 $-1 #
edge $-1 $193 -41.615384236169895 $194 41.615384236169895 $126 $195 forward 7 unknown #
coedge $-1 $80 $79 $196 $197 forward $31 $-1 #
coedge $-1 $198 $199 $79 $130 reversed $183 $-1 #
edge $-1 $137 -65.670949430829793 $200 65.670949430829793 $129 $201 forward 7 unknown #
coedge $-1 $123 $202 $80 $132 reversed $76 $-1 #
edge $-1 $203 -65.670949430829793 $136 65.670949430829793 $131 $204 forward 7 unknown #
coedge $-1 $126 $81 $202 $205 forward $135 $-1 #
coedge $-1 $81 $126 $198 $206 reversed $135 $-1 #
loop $-1 $-1 $133 $182 #
vertex $-1 $82 $207 #
vertex $-1 $82 $208 #
straight-curve $-1 65.670949430829793 0 15.151190201185218 0 1 0 I I #
face $-1 $209 $210 $19 $-1 $211 forward single #
loop $-1 $-1 $212 $83 #
plane-surface $-1 -65.670949430829793 0 0 1 0 0 0 0 -1 forward_v I I I I #
coedge $-1 $149 $213 $151 $214 forward $84 $-1 #
coedge $-1 $86 $151 $215 $216 reversed $53 $-1 #
coedge $-1 $217 $147 $86 $145 forward $218 $-1 #
edge $-1 $153 3.3626745829520361 $219 8.9799019398061333 $144 $220 forward 7 unknown #
coedge $-1 $88 $87 $212 $221 reversed $34 $-1 #
coedge $-1 $144 $222 $87 $148 forward $218 $-1 #
edge $-1 $223 -36.084252964544611 $153 -23.089139968025755 $147 $224 forward 7 unknown #
coedge $-1 $225 $142 $88 $150 forward $84 $-1 #
edge $-1 $152 23.089139968025755 $226 36.084252964544611 $149 $227 forward 7 unknown #
coedge $-1 $143 $89 $142 $214 reversed $53 $-1 #
vertex $-1 $150 $228 #
vertex $-1 $148 $229 #
straight-curve $-1 -52.675836434310938 0 9.5339628443311213 0 -1 0 I I #
face $-1 $-1 $230 $20 $-1 $231 reversed single #
loop $-1 $-1 $97 $91 #
plane-surface $-1 0 0 15.151190201185218 0 0 1 1 0 0 forward_v I I I I #
coedge $-1 $232 $233 $234 $235 reversed $92 $-1 #
coedge $-1 $236 $94 $96 $165 forward $57 $-1 #
coedge $-1 $94 $236 $232 $237 forward $57 $-1 #
coedge $-1 $234 $97 $94 $162 forward $156 $-1 #
edge $-1 $168 -7.1429678968231727 $238 9.9631941038779104 $161 $239 forward 7 unknown #
coedge $-1 $240 $241 $95 $164 forward $230 $-1 #
edge $-1 $242 -92.028188392841656 $167 -77.548582573941843 $163 $243 forward 7 unknown #
edge $-1 $168 112.71012776222464 $242 131.34189886165962 $96 $244 forward 7 unknown #
coedge $-1 $97 $234 $240 $245 forward $156 $-1 #
vertex $-1 $164 $246 #
vertex $-1 $98 $247 #
straight-curve $-1 42.543321488750884 5.7328547932958038 15.151190201185216 -1 0 0 I I #
coedge $-1 $170 $170 $-1 $248 reversed $101 $-1 #
edge $-1 $249 0 $249 6.2831853071796004 $102 $250 forward 7 unknown #
vertex $-1 $105 $251 #
ellipse-curve $-1 59.808272788906258 -7.9520748072650562 7.9113872917353101 0.77714596973225614 0 0.62932038083071107 0.9439805712460666 0 -1.1657189545983841 1 I I #
coedge $-1 $174 $174 $-1 $252 reversed $108 $-1 #
edge $-1 $253 0 $253 6.2831853071796004 $109 $254 forward 7 unknown #
vertex $-1 $112 $255 #
ellipse-curve $-1 59.808272788906258 -2.8202262070547306 7.9113872917353101 0.77714596973225614 0 0.62932038083071107 0.9439805712460666 0 -1.1657189545983841 1 I I #
coedge $-1 $178 $178 $-1 $256 reversed $115 $-1 #
edge $-1 $257 0 $257 6.2831853071796004 $116 $258 forward 7 unknown #
vertex $-1 $119 $259 #
ellipse-curve $-1 59.808272788906258 2.311622393155595 7.9113872917353101 0.77714596973225614 0 0.62932038083071107 0.9439805712460666 0 -1.1657189545983841 1 I I #
face $-1 $-1 $135 $18 $-1 $260 reversed single #
loop $-1 $-1 $198 $120 #
plane-surface $-1 0 41.615384236169895 0 0 -1 0 0 0 -1 forward_v I I I I #
coedge $-1 $261 $196 $199 $262 forward $121 $-1 #
coedge $-1 $202 $123 $124 $190 reversed $76 $-1 #
coedge $-1 $196 $261 $123 $188 reversed $121 $-1 #
edge $-1 $203 -15.151190201185218 $263 15.151190201185218 $187 $264 forward 7 unknown #
coedge $-1 $125 $124 $261 $265 forward $49 $-1 #
edge $-1 $194 -65.670949430829793 $263 65.670949430829793 $186 $266 forward 7 unknown #
coedge $-1 $199 $198 $125 $192 reversed $183 $-1 #
edge $-1 $267 -65.670949430829793 $193 65.670949430829793 $191 $268 forward 7 unknown #
vertex $-1 $127 $269 #
vertex $-1 $205 $270 #
straight-curve $-1 65.670949430829793 0 -15.151190201185218 0 -1 0 I I #
coedge $-1 $185 $187 $128 $197 reversed $121 $-1 #
edge $-1 $200 -41.615384236169895 $203 41.615384236169895 $196 $271 forward 7 unknown #
coedge $-1 $191 $129 $134 $206 forward $183 $-1 #
coedge $-1 $129 $191 $185 $262 reversed $183 $-1 #
vertex $-1 $130 $272 #
straight-curve $-1 0 41.615384236169895 15.151190201185218 -1 0 0 I I #
coedge $-1 $131 $186 $133 $205 reversed $76 $-1 #
vertex $-1 $197 $273 #
straight-curve $-1 0 -41.615384236169895 15.151190201185218 1 0 0 I I #
edge $-1 $136 -15.151190201185218 $194 15.151190201185218 $133 $274 forward 7 unknown #
edge $-1 $137 -15.151190201185218 $193 15.151190201185218 $134 $275 forward 7 unknown #
point $-1 65.670949430829793 -41.615384236169895 15.151190201185218 #
point $-1 65.670949430829793 41.615384236169895 15.151190201185218 #
face $-1 $-1 $218 $19 $-1 $276 reversed single #
loop $-1 $-1 $215 $139 #
plane-surface $-1 0 0 15.151190201185218 0 0 1 1 0 0 forward_v I I I I #
coedge $-1 $277 $278 $146 $221 forward $140 $-1 #
coedge $-1 $142 $225 $279 $280 reversed $84 $-1 #
edge $-1 $281 -8.9799019398061333 $152 -3.3626745829520361 $142 $282 forward 7 unknown #
coedge $-1 $279 $283 $143 $216 forward $210 $-1 #
edge $-1 $219 -41.615384236169895 $281 41.615384236169895 $215 $284 forward 7 unknown #
coedge $-1 $222 $144 $283 $285 reversed $218 $-1 #
loop $-1 $-1 $144 $209 #
vertex $-1 $145 $286 #
straight-curve $-1 -52.675836434310938 -41.615384236169895 6.1712882613790851 0 0 1 I I #
edge $-1 $226 -41.615384236169895 $223 41.615384236169895 $212 $287 forward 7 unknown #
coedge $-1 $147 $217 $277 $288 forward $218 $-1 #
vertex $-1 $221 $289 #
straight-curve $-1 -29.586696466285183 -41.615384236169895 9.5339628443311213 1 0 0 I I #
coedge $-1 $213 $149 $278 $290 reversed $84 $-1 #
vertex $-1 $221 $291 #
straight-curve $-1 -29.586696466285183 41.615384236169895 9.5339628443311213 -1 0 0 I I #
point $-1 -52.675836434310938 41.615384236169895 9.5339628443311213 #
point $-1 -52.675836434310938 -41.615384236169895 9.5339628443311213 #
loop $-1 $-1 $163 $155 #
plane-surface $-1 65.670949430829793 0 0 -1 0 0 0 0 1 forward_v I I I I #
coedge $-1 $233 $158 $160 $237 reversed $92 $-1 #
coedge $-1 $158 $232 $292 $293 reversed $92 $-1 #
coedge $-1 $166 $161 $158 $235 forward $156 $-1 #
edge $-1 $238 11.402274658231853 $294 23.127627942078909 $234 $295 forward 7 unknown #
coedge $-1 $160 $159 $241 $296 reversed $57 $-1 #
edge $-1 $297 -131.34189886165962 $238 -112.71012776222464 $232 $298 forward 7 unknown #
vertex $-1 $162 $299 #
straight-curve $-1 53.945596146982737 -1.4101131035273688 15.151190201185216 0 -1 0 I I #
coedge $-1 $292 $163 $166 $245 reversed $230 $-1 #
coedge $-1 $163 $292 $236 $296 forward $230 $-1 #
vertex $-1 $164 $300 #
straight-curve $-1 65.670949430829793 5.7328547932958038 92.699772775127059 0 0 1 I I #
straight-curve $-1 -16.985184379818577 5.7328547932958038 102.74341173960578 0.62932038083071107 0 -0.77714596973225614 I I #
edge $-1 $294 -11.373307207405279 $167 5.7328547932958038 $240 $301 forward 7 unknown #
point $-1 65.670949430829793 5.7328547932958038 15.151190201185218 #
point $-1 53.945596146982737 5.7328547932958038 15.151190201185216 #
edge $-1 $302 1 $302 0 $170 $-1 forward 7 unknown #
vertex $-1 $171 $303 #
ellipse-curve $-1 56.33359996024727 -7.9520748072650562 5.0976527901626367 0.77714596973225614 0 0.62932038083071107 0.9439805712460666 0 -1.1657189545983841 1 I I #
point $-1 60.752253360152338 -7.9520748072650562 6.7456683371369355 #
edge $-1 $304 1 $304 0 $174 $-1 forward 7 unknown #
vertex $-1 $175 $305 #
ellipse-curve $-1 56.33359996024727 -2.8202262070547306 5.0976527901626367 0.77714596973225614 0 0.62932038083071107 0.9439805712460666 0 -1.1657189545983841 1 I I #
point $-1 60.752253360152338 -2.8202262070547306 6.7456683371369355 #
edge $-1 $306 1 $306 0 $178 $-1 forward 7 unknown #
vertex $-1 $179 $307 #
ellipse-curve $-1 56.33359996024727 2.311622393155595 5.0976527901626367 0.77714596973225614 0 0.62932038083071107 0.9439805712460666 0 -1.1657189545983841 1 I I #
point $-1 60.752253360152338 2.311622393155595 6.7456683371369355 #
plane-surface $-1 65.670949430829793 0 0 -1 0 0 0 0 1 forward_v I I I I #
coedge $-1 $187 $185 $189 $265 reversed $121 $-1 #
edge $-1 $200 -15.151190201185218 $267 15.151190201185218 $199 $308 forward 7 unknown #
vertex $-1 $265 $309 #
straight-curve $-1 -65.670949430829793 -41.615384236169895 0 0 0 -1 I I #
edge $-1 $263 -41.615384236169895 $267 41.615384236169895 $261 $310 forward 7 unknown #
straight-curve $-1 0 -41.615384236169895 -15.151190201185218 -1 0 0 I I #
vertex $-1 $192 $311 #
straight-curve $-1 0 41.615384236169895 -15.151190201185218 1 0 0 I I #
point $-1 65.670949430829793 41.615384236169895 -15.151190201185218 #
point $-1 65.670949430829793 -41.615384236169895 -15.151190201185218 #
straight-curve $-1 -65.670949430829793 0 15.151190201185218 0 -1 0 I I #
point $-1 -65.670949430829793 41.615384236169895 15.151190201185218 #
point $-1 -65.670949430829793 -41.615384236169895 15.151190201185218 #
straight-curve $-1 65.670949430829793 -41.615384236169895 0 0 0 -1 I I #
straight-curve $-1 65.670949430829793 41.615384236169895 0 0 0 -1 I I #
plane-surface $-1 0 -41.615384236169895 0 0 1 0 0 0 1 forward_v I I I I #
coedge $-1 $312 $212 $222 $288 reversed $140 $-1 #
coedge $-1 $212 $312 $225 $290 forward $140 $-1 #
coedge $-1 $313 $215 $213 $280 forward $210 $-1 #
edge $-1 $281 52.675836434310938 $314 65.670949430829793 $213 $315 forward 7 unknown #
vertex $-1 $280 $316 #
straight-curve $-1 -52.675836434310938 41.615384236169895 6.1712882613790851 0 0 -1 I I #
coedge $-1 $215 $313 $217 $285 forward $210 $-1 #
straight-curve $-1 -52.675836434310938 0 15.151190201185218 0 1 0 I I #
edge $-1 $317 -65.670949430829793 $219 -52.675836434310938 $217 $318 forward 7 unknown #
point $-1 -52.675836434310938 -41.615384236169895 15.151190201185219 #
straight-curve $-1 -65.670949430829793 0 9.5339628443311213 0 -1 0 I I #
edge $-1 $317 -15.151190201185218 $223 -9.5339628443311213 $277 $319 forward 7 unknown #
point $-1 -65.670949430829793 -41.615384236169895 9.5339628443311213 #
edge $-1 $314 -15.151190201185218 $226 -9.5339628443311213 $225 $320 forward 7 unknown #
point $-1 -65.670949430829793 41.615384236169895 9.5339628443311213 #
coedge $-1 $241 $240 $233 $293 forward $230 $-1 #
edge $-1 $294 77.548582573941843 $297 92.028188392841656 $292 $321 forward 7 unknown #
vertex $-1 $245 $322 #
straight-curve $-1 42.543321488750884 -11.373307207405279 15.151190201185216 1 0 0 I I #
edge $-1 $297 -9.9631941038779104 $242 7.1429678968231727 $241 $323 forward 7 unknown #
vertex $-1 $296 $324 #
straight-curve $-1 -16.985184379818577 -11.373307207405279 102.74341173960578 -0.62932038083071107 0 0.77714596973225614 I I #
point $-1 53.945596146982737 -11.373307207405279 15.151190201185216 #
point $-1 65.670949430829793 5.7328547932958038 0.67158438228540263 #
straight-curve $-1 65.670949430829793 0 15.151190201185218 0 1 0 I I #
vertex $-1 $248 $325 #
point $-1 57.277580531493335 -7.9520748072650562 3.9319338355642524 #
vertex $-1 $252 $326 #
point $-1 57.277580531493335 -2.8202262070547306 3.9319338355642524 #
vertex $-1 $256 $327 #
point $-1 57.277580531493335 2.311622393155595 3.9319338355642524 #
straight-curve $-1 -65.670949430829793 41.615384236169895 0 0 0 -1 I I #
point $-1 -65.670949430829793 -41.615384236169895 -15.151190201185218 #
straight-curve $-1 -65.670949430829793 0 -15.151190201185218 0 1 0 I I #
point $-1 -65.670949430829793 41.615384236169895 -15.151190201185218 #
coedge $-1 $278 $277 $313 $328 reversed $140 $-1 #
coedge $-1 $283 $279 $312 $328 forward $210 $-1 #
vertex $-1 $280 $329 #
straight-curve $-1 0 41.615384236169895 15.151190201185218 -1 0 0 I I #
point $-1 -52.675836434310938 41.615384236169895 15.151190201185219 #
vertex $-1 $328 $330 #
straight-curve $-1 0 -41.615384236169895 15.151190201185218 1 0 0 I I #
straight-curve $-1 -65.670949430829793 -41.615384236169895 0 0 0 -1 I I #
straight-curve $-1 -65.670949430829793 41.615384236169895 0 0 0 -1 I I #
straight-curve $-1 65.670949430829793 -11.373307207405279 92.699772775127059 0 0 -1 I I #
point $-1 65.670949430829793 -11.373307207405279 15.151190201185218 #
straight-curve $-1 65.670949430829793 -1.4101131035273688 0.67158438228540263 0 1 0 I I #
point $-1 65.670949430829793 -11.373307207405279 0.67158438228540263 #
point $-1 55.16788100564888 -7.9520748072650562 4.1536722189165696 #
point $-1 55.16788100564888 -2.8202262070547306 4.1536722189165696 #
point $-1 55.16788100564888 2.311622393155595 4.1536722189165696 #
edge $-1 $314 -41.615384236169895 $317 41.615384236169895 $312 $331 forward 7 unknown #
point $-1 -65.670949430829793 41.615384236169895 15.151190201185218 #
point $-1 -65.670949430829793 -41.615384236169895 15.151190201185218 #
straight-curve $-1 -65.670949430829793 0 15.151190201185218 0 -1 0 I I #
End-of-ACIS-data 