500 0 8 0           
7 Unknown 11 ACIS 5.0 NT 24 Thu Mar 25 19:49:33 1999 
-1 9.9999999999999995e-007 1e-010 
body $-1 $8 $-1 $9 #
body $-1 $10 $-1 $11 #
body $-1 $12 $-1 $13 #
body $-1 $14 $-1 $15 #
body $-1 $16 $-1 $17 #
body $-1 $18 $-1 $19 #
body $-1 $20 $-1 $21 #
body $-1 $22 $-1 $23 #
lump $-1 $-1 $24 $0 #
transform $-1 1 0 0 0 1 0 0 0 1 44.638813440351576 28.610690766591013 13.979483699464463 1 rotate no_reflect no_shear #
lump $-1 $-1 $25 $1 #
transform $-1 1 0 0 0 1 0 0 0 1 44.638813440351576 28.610690766591013 13.979483699464463 1 rotate no_reflect no_shear #
lump $-1 $-1 $26 $2 #
transform $-1 1 0 0 0 1 0 0 0 1 44.638813440351576 28.610690766591013 13.979483699464463 1 rotate no_reflect no_shear #
lump $-1 $-1 $27 $3 #
transform $-1 1 0 0 0 1 0 0 0 1 44.638813440351576 28.610690766591013 13.979483699464463 1 rotate no_reflect no_shear #
lump $-1 $-1 $28 $4 #
transform $-1 1 0 0 0 1 0 0 0 1 44.638813440351576 28.610690766591013 13.979483699464463 1 rotate no_reflect no_shear #
lump $-1 $-1 $29 $5 #
transform $-1 1 0 0 0 1 0 0 0 1 44.638813440351576 28.610690766591013 13.979483699464463 1 rotate no_reflect no_shear #
lump $-1 $-1 $30 $6 #
transform $-1 1 0 0 0 1 0 0 0 1 44.638813440351576 28.610690766591013 13.979483699464463 1 rotate no_reflect no_shear #
lump $-1 $-1 $31 $7 #
transform $-1 1 0 0 0 1 0 0 0 1 44.638813440351576 28.610690766591013 13.979483699464463 1 rotate no_reflect no_shear #
shell $-1 $-1 $-1 $32 $-1 $8 #
shell $-1 $-1 $-1 $33 $-1 $10 #
shell $-1 $-1 $-1 $34 $-1 $12 #
shell $-1 $-1 $-1 $35 $-1 $14 #
shell $-1 $-1 $-1 $36 $-1 $16 #
shell $-1 $-1 $-1 $37 $-1 $18 #
shell $-1 $-1 $-1 $38 $-1 $20 #
shell $-1 $-1 $-1 $39 $-1 $22 #
face $-1 $40 $41 $24 $-1 $42 forward single #
face $-1 $43 $44 $25 $-1 $45 reversed single #
face $-1 $46 $47 $26 $-1 $48 reversed single #
face $-1 $49 $50 $27 $-1 $51 forward single #
face $-1 $52 $53 $28 $-1 $54 forward single #
face $-1 $55 $56 $29 $-1 $57 reversed single #
face $-1 $58 $59 $30 $-1 $60 forward single #
face $-1 $61 $62 $31 $-1 $63 forward single #
face $-1 $64 $65 $24 $-1 $66 reversed single #
loop $-1 $-1 $67 $32 #
plane-surface $-1 0 0 13.979483699464463 0 0 1 1 0 0 forward_v I I I I #
face $-1 $68 $69 $25 $-1 $70 reversed single #
loop $-1 $-1 $71 $33 #
plane-surface $-1 -37.607112234503667 0 8.9147526349842714 0 0 1 1 0 0 forward_v I I I I #
face $-1 $72 $73 $26 $-1 $74 reversed single #
loop $-1 $-1 $75 $34 #
plane-surface $-1 -15.729284144955733 -85.997243853063424 73.664413790559991 -1 0 0 0 -0.64278761758704617 0.76604443648966558 forward_v I I I I #
face $-1 $76 $77 $27 $-1 $78 forward single #
loop $-1 $79 $80 $35 #
cone-surface $-1 -26.333660490455756 -22.597941702874611 8.6431692511765181 0 0.64278761758704617 -0.76604443648966558 2 0 0 1 I I 0 1 2 forward I I I I #
face $-1 $81 $82 $28 $-1 $83 forward single #
loop $-1 $84 $85 $36 #
cone-surface $-1 -19.971034683155747 -22.597941702874611 8.6431692511765181 0 0.64278761758704617 -0.76604443648966558 2 0 0 1 I I 0 1 2 forward I I I I #
face $-1 $86 $87 $29 $-1 $88 reversed single #
loop $-1 $-1 $89 $37 #
plane-surface $-1 -25.381894882156153 -11.850935674926561 46.011180559868315 0 0.70710678939079041 0.70710677298230451 1 0 0 forward_v I I I I #
face $-1 $90 $91 $30 $-1 $92 forward single #
loop $-1 $93 $94 $38 #
cone-surface $-1 -27.607687516370273 23.975900504918716 9.3446933497255475 0 -0.70710678939079041 -0.70710677298230451 0.5 0 0 1 I I 0 1 0.5 forward I I I I #
face $-1 $95 $96 $31 $-1 $97 forward single #
loop $-1 $98 $99 $39 #
cone-surface $-1 -23.156102247942041 23.975900504918716 9.3446933497255475 0 -0.70710678939079041 -0.70710677298230451 0.5 0 0 1 I I 0 1 0.5 forward I I I I #
face $-1 $100 $101 $24 $-1 $102 reversed single #
loop $-1 $-1 $103 $40 #
plane-surface $-1 0 0 -13.979483699464463 0 0 1 1 0 0 forward_v I I I I #
coedge $-1 $104 $105 $106 $107 forward $41 $-1 #
face $-1 $108 $109 $25 $-1 $110 reversed single #
loop $-1 $-1 $111 $43 #
plane-surface $-1 -30.575411028655758 0 11.447118167224367 -1 0 0 0 0 1 forward_v I I I I #
coedge $-1 $112 $113 $114 $115 forward $44 $-1 #
face $-1 $116 $117 $26 $-1 $118 forward single #
loop $-1 $-1 $119 $46 #
plane-surface $-1 -23.152347586805746 -28.610690766591013 5.2737844155971203 0 -0.64278761758704617 0.76604443648966558 1 0 0 forward_v I I I I #
coedge $-1 $120 $121 $122 $123 reversed $47 $-1 #
face $-1 $-1 $124 $27 $-1 $125 forward single #
loop $-1 $126 $127 $49 #
cone-surface $-1 -26.333660490455756 -21.129929111715548 6.8936600083325708 0 0.64278761758704617 -0.76604443648966558 1 0 0 1 I I -0.70710678118654724 0.70710678118654791 1 forward I I I I #
loop $-1 $-1 $128 $35 #
coedge $-1 $80 $80 $129 $130 reversed $50 $-1 #
face $-1 $-1 $131 $28 $-1 $132 forward single #
loop $-1 $133 $134 $52 #
cone-surface $-1 -19.971034683155747 -21.129929111715548 6.8936600083325708 0 0.64278761758704617 -0.76604443648966558 1 0 0 1 I I -0.70710678118654724 0.70710678118654791 1 forward I I I I #
loop $-1 $-1 $135 $36 #
coedge $-1 $85 $85 $136 $137 reversed $53 $-1 #
face $-1 $138 $139 $29 $-1 $140 forward single #
loop $-1 $-1 $141 $55 #
plane-surface $-1 -20.188378735656549 51.277880433116373 109.13999520300057 -1 0 0 0 0.70710678939079041 0.70710677298230451 forward_v I I I I #
coedge $-1 $142 $143 $144 $145 reversed $56 $-1 #
face $-1 $-1 $146 $30 $-1 $147 forward single #
loop $-1 $148 $149 $58 #
cone-surface $-1 -27.607687516370273 23.379298708104997 8.7480915667560346 0 -0.70710678939079041 -0.70710677298230451 0.25 0 0 1 I I -0.70710678118654746 0.70710678118654746 0.25 forward I I I I #
loop $-1 $-1 $150 $38 #
coedge $-1 $94 $94 $151 $152 reversed $59 $-1 #
face $-1 $-1 $153 $31 $-1 $154 forward single #
loop $-1 $155 $156 $61 #
cone-surface $-1 -23.156102247942041 23.379298708104997 8.7480915667560346 0 -0.70710678939079041 -0.70710677298230451 0.25 0 0 1 I I -0.70710678118654746 0.70710678118654746 0.25 forward I I I I #
loop $-1 $-1 $157 $39 #
coedge $-1 $99 $99 $158 $159 reversed $62 $-1 #
face $-1 $160 $161 $24 $-1 $162 reversed single #
loop $-1 $-1 $163 $64 #
plane-surface $-1 0 -28.610690766591013 0 0 1 0 0 0 1 forward_v I I I I #
coedge $-1 $164 $165 $166 $167 forward $65 $-1 #
coedge $-1 $168 $67 $169 $170 forward $41 $-1 #
coedge $-1 $67 $168 $171 $172 forward $41 $-1 #
coedge $-1 $173 $174 $67 $107 reversed $175 $-1 #
edge $-1 $176 -28.610690766591013 $177 28.610690766591013 $106 $178 forward 7 unknown #
face $-1 $179 $180 $25 $-1 $181 reversed single #
loop $-1 $-1 $182 $68 #
plane-surface $-1 0 28.610690766591013 0 0 -1 0 0 0 -1 forward_v I I I I #
coedge $-1 $114 $183 $184 $185 reversed $69 $-1 #
coedge $-1 $186 $71 $187 $188 reversed $44 $-1 #
coedge $-1 $71 $186 $189 $190 reversed $44 $-1 #
coedge $-1 $191 $111 $71 $115 reversed $69 $-1 #
edge $-1 $192 -28.610690766591013 $193 28.610690766591013 $114 $194 forward 7 unknown #
face $-1 $195 $196 $26 $-1 $197 forward single #
loop $-1 $-1 $198 $72 #
plane-surface $-1 -30.575411028655758 0 11.447118167224367 -1 0 0 0 0 1 forward_v I I I I #
coedge $-1 $199 $200 $201 $202 reversed $73 $-1 #
coedge $-1 $121 $75 $203 $204 reversed $47 $-1 #
coedge $-1 $75 $120 $199 $205 reversed $47 $-1 #
coedge $-1 $201 $206 $75 $123 forward $196 $-1 #
edge $-1 $207 14.387931159940699 $208 24.762979340229478 $122 $209 forward 7 unknown #
loop $-1 $-1 $129 $76 #
plane-surface $-1 -23.152347586805746 -28.610690766591013 5.2737844155971203 0 -0.64278761758704617 0.76604443648966558 1 0 0 forward_v I I I I #
loop $-1 $-1 $210 $49 #
coedge $-1 $127 $127 $128 $211 reversed $77 $-1 #
coedge $-1 $128 $128 $127 $211 forward $79 $-1 #
coedge $-1 $129 $129 $80 $130 forward $124 $-1 #
edge $-1 $212 -1.0088062769120432e-015 $212 6.2831853071795996 $129 $213 forward 7 unknown #
loop $-1 $-1 $136 $81 #
plane-surface $-1 -23.152347586805746 -28.610690766591013 5.2737844155971203 0 -0.64278761758704617 0.76604443648966558 1 0 0 forward_v I I I I #
loop $-1 $-1 $214 $52 #
coedge $-1 $134 $134 $135 $215 reversed $82 $-1 #
coedge $-1 $135 $135 $134 $215 forward $84 $-1 #
coedge $-1 $136 $136 $85 $137 forward $131 $-1 #
edge $-1 $216 -1.0088062769120432e-015 $216 6.2831853071795996 $136 $217 forward 7 unknown #
face $-1 $218 $219 $29 $-1 $220 reversed single #
loop $-1 $-1 $144 $86 #
plane-surface $-1 0 0 13.979483699464463 0 0 1 1 0 0 forward_v I I I I #
coedge $-1 $221 $222 $223 $224 reversed $87 $-1 #
coedge $-1 $225 $89 $226 $227 reversed $56 $-1 #
coedge $-1 $89 $225 $221 $228 forward $56 $-1 #
coedge $-1 $223 $229 $89 $145 forward $139 $-1 #
edge $-1 $230 -17.884463587577681 $231 -7.4974312945784725 $144 $232 forward 7 unknown #
loop $-1 $-1 $151 $90 #
plane-surface $-1 -25.381894882156153 -11.850935674926561 46.011180559868315 0 0.70710678939079041 0.70710677298230451 1 0 0 forward_v I I I I #
loop $-1 $-1 $233 $58 #
coedge $-1 $149 $149 $150 $234 reversed $91 $-1 #
coedge $-1 $150 $150 $149 $234 forward $93 $-1 #
coedge $-1 $151 $151 $94 $152 forward $146 $-1 #
edge $-1 $235 2.5121480796306707e-015 $235 6.2831853071796031 $151 $236 forward 7 unknown #
loop $-1 $-1 $158 $95 #
plane-surface $-1 -25.381894882156153 -11.850935674926561 46.011180559868315 0 0.70710678939079041 0.70710677298230451 1 0 0 forward_v I I I I #
loop $-1 $-1 $237 $61 #
coedge $-1 $156 $156 $157 $238 reversed $96 $-1 #
coedge $-1 $157 $157 $156 $238 forward $98 $-1 #
coedge $-1 $158 $158 $99 $159 forward $153 $-1 #
edge $-1 $239 2.5121480796306707e-015 $239 6.2831853071796031 $158 $240 forward 7 unknown #
face $-1 $241 $242 $24 $-1 $243 reversed single #
loop $-1 $-1 $244 $100 #
plane-surface $-1 -44.638813440351576 0 0 1 0 0 0 0 -1 forward_v I I I I #
coedge $-1 $245 $171 $246 $247 forward $101 $-1 #
coedge $-1 $248 $103 $245 $249 forward $65 $-1 #
coedge $-1 $103 $248 $250 $251 forward $65 $-1 #
coedge $-1 $174 $173 $103 $167 reversed $175 $-1 #
edge $-1 $252 -28.610690766591013 $253 28.610690766591013 $166 $254 forward 7 unknown #
coedge $-1 $105 $104 $255 $256 forward $41 $-1 #
coedge $-1 $257 $258 $104 $170 reversed $242 $-1 #
edge $-1 $177 -44.638813440351576 $259 44.638813440351576 $169 $260 forward 7 unknown #
coedge $-1 $163 $261 $105 $172 reversed $101 $-1 #
edge $-1 $262 -44.638813440351576 $176 44.638813440351576 $171 $263 forward 7 unknown #
coedge $-1 $166 $106 $261 $264 forward $175 $-1 #
coedge $-1 $106 $166 $257 $265 reversed $175 $-1 #
loop $-1 $-1 $173 $241 #
vertex $-1 $107 $266 #
vertex $-1 $107 $267 #
straight-curve $-1 44.638813440351576 0 13.979483699464463 0 1 0 I I #
face $-1 $268 $269 $25 $-1 $270 forward single #
loop $-1 $-1 $271 $108 #
plane-surface $-1 -44.638813440351576 0 0 1 0 0 0 0 -1 forward_v I I I I #
coedge $-1 $189 $272 $191 $273 forward $109 $-1 #
coedge $-1 $111 $191 $274 $275 reversed $69 $-1 #
coedge $-1 $276 $187 $111 $185 forward $277 $-1 #
edge $-1 $193 3.1911935513720877 $278 8.2559246158522797 $184 $279 forward 7 unknown #
coedge $-1 $113 $112 $271 $280 reversed $44 $-1 #
coedge $-1 $184 $281 $112 $188 forward $277 $-1 #
edge $-1 $282 -25.835257323099743 $193 -11.771854911403924 $187 $283 forward 7 unknown #
coedge $-1 $284 $182 $113 $190 forward $109 $-1 #
edge $-1 $192 11.771854911403924 $285 25.835257323099743 $189 $286 forward 7 unknown #
coedge $-1 $183 $114 $182 $273 reversed $69 $-1 #
vertex $-1 $190 $287 #
vertex $-1 $188 $288 #
straight-curve $-1 -30.575411028655758 0 8.9147526349842714 0 -1 0 I I #
face $-1 $-1 $289 $26 $-1 $290 reversed single #
loop $-1 $-1 $201 $116 #
plane-surface $-1 0 0 13.979483699464463 0 0 1 1 0 0 forward_v I I I I #
coedge $-1 $291 $292 $200 $293 reversed $117 $-1 #
coedge $-1 $294 $119 $121 $205 forward $73 $-1 #
coedge $-1 $119 $294 $198 $293 forward $73 $-1 #
coedge $-1 $295 $122 $119 $202 forward $196 $-1 #
edge $-1 $208 4.1531103515528596 $296 18.999237235252885 $201 $297 forward 7 unknown #
coedge $-1 $298 $299 $120 $204 forward $289 $-1 #
edge $-1 $300 -31.558422479682875 $207 -22.852723195815532 $203 $301 forward 7 unknown #
edge $-1 $208 -13.543663638928791 $300 0 $121 $302 forward 7 unknown #
coedge $-1 $122 $295 $298 $303 forward $196 $-1 #
vertex $-1 $204 $304 #
vertex $-1 $123 $305 #
straight-curve $-1 -15.729284144955733 -42.998621926531712 13.979483699464463 0 1 0 I I #
coedge $-1 $210 $210 $-1 $306 reversed $126 $-1 #
edge $-1 $307 0 $307 6.2831853071796004 $127 $308 forward 7 unknown #
vertex $-1 $130 $309 #
ellipse-curve $-1 -26.333660490455756 -23.42316667644662 9.6266340575307936 0 -0.64278761758704617 0.76604443648966558 2 0 0 1 I I #
coedge $-1 $214 $214 $-1 $310 reversed $133 $-1 #
edge $-1 $311 0 $311 6.2831853071796004 $134 $312 forward 7 unknown #
vertex $-1 $137 $313 #
ellipse-curve $-1 -19.971034683155747 -23.42316667644662 9.6266340575307936 0 -0.64278761758704617 0.76604443648966558 2 0 0 1 I I #
face $-1 $-1 $314 $29 $-1 $315 forward single #
loop $-1 $-1 $316 $138 #
plane-surface $-1 0 28.610690766591013 0 0 -1 0 0 0 -1 forward_v I I I I #
coedge $-1 $222 $141 $143 $228 reversed $87 $-1 #
coedge $-1 $141 $221 $316 $317 reversed $87 $-1 #
coedge $-1 $318 $144 $141 $224 forward $139 $-1 #
edge $-1 $231 -5.4581797743797189 $319 2.9717505500328265 $223 $320 forward 7 unknown #
coedge $-1 $143 $142 $321 $322 reversed $56 $-1 #
coedge $-1 $323 $324 $142 $227 forward $314 $-1 #
edge $-1 $325 -40.811201498840227 $230 -28.889479565873383 $226 $326 forward 7 unknown #
edge $-1 $327 -57.22138153318204 $231 -45.299659600215193 $221 $328 forward 7 unknown #
coedge $-1 $144 $318 $323 $329 forward $139 $-1 #
vertex $-1 $227 $330 #
vertex $-1 $145 $331 #
straight-curve $-1 -12.690947441078077 20.180760442178467 13.97948369946446 1 0 0 I I #
coedge $-1 $233 $233 $-1 $332 reversed $148 $-1 #
edge $-1 $333 0 $333 6.2831853071796004 $149 $334 forward 7 unknown #
vertex $-1 $152 $335 #
ellipse-curve $-1 -27.607687516370273 24.395725604384744 9.7645184394494908 0 0.70710678939079041 0.70710677298230451 0.5 0 0 1 I I #
coedge $-1 $237 $237 $-1 $336 reversed $155 $-1 #
edge $-1 $337 0 $337 6.2831853071796004 $156 $338 forward 7 unknown #
vertex $-1 $159 $339 #
ellipse-curve $-1 -23.156102247942041 24.395725604384744 9.7645184394494908 0 0.70710678939079041 0.70710677298230451 0.5 0 0 1 I I #
face $-1 $-1 $175 $24 $-1 $340 reversed single #
loop $-1 $-1 $257 $160 #
plane-surface $-1 0 28.610690766591013 0 0 -1 0 0 0 -1 forward_v I I I I #
coedge $-1 $341 $255 $258 $342 forward $161 $-1 #
coedge $-1 $261 $163 $164 $249 reversed $101 $-1 #
coedge $-1 $255 $341 $163 $247 reversed $161 $-1 #
edge $-1 $262 -13.979483699464463 $343 13.979483699464463 $246 $344 forward 7 unknown #
coedge $-1 $165 $164 $341 $345 forward $65 $-1 #
edge $-1 $253 -44.638813440351576 $343 44.638813440351576 $245 $346 forward 7 unknown #
coedge $-1 $258 $257 $165 $251 reversed $242 $-1 #
edge $-1 $347 -44.638813440351576 $252 44.638813440351576 $250 $348 forward 7 unknown #
vertex $-1 $167 $349 #
vertex $-1 $264 $350 #
straight-curve $-1 44.638813440351576 0 -13.979483699464463 0 -1 0 I I #
coedge $-1 $244 $246 $168 $256 reversed $161 $-1 #
edge $-1 $259 -28.610690766591013 $262 28.610690766591013 $255 $351 forward 7 unknown #
coedge $-1 $250 $169 $174 $265 forward $242 $-1 #
coedge $-1 $169 $250 $244 $342 reversed $242 $-1 #
vertex $-1 $170 $352 #
straight-curve $-1 0 28.610690766591013 13.979483699464463 -1 0 0 I I #
coedge $-1 $171 $245 $173 $264 reversed $101 $-1 #
vertex $-1 $256 $353 #
straight-curve $-1 0 -28.610690766591013 13.979483699464463 1 0 0 I I #
edge $-1 $176 -13.979483699464463 $253 13.979483699464463 $173 $354 forward 7 unknown #
edge $-1 $177 -13.979483699464463 $252 13.979483699464463 $174 $355 forward 7 unknown #
point $-1 44.638813440351576 -28.610690766591013 13.979483699464463 #
point $-1 44.638813440351576 28.610690766591013 13.979483699464463 #
face $-1 $-1 $277 $25 $-1 $356 reversed single #
loop $-1 $-1 $274 $179 #
plane-surface $-1 0 0 13.979483699464463 0 0 1 1 0 0 forward_v I I I I #
coedge $-1 $357 $358 $186 $280 forward $180 $-1 #
coedge $-1 $182 $284 $359 $360 reversed $109 $-1 #
edge $-1 $361 -8.2559246158522797 $192 -3.1911935513720877 $182 $362 forward 7 unknown #
coedge $-1 $359 $363 $183 $275 forward $269 $-1 #
edge $-1 $278 -28.610690766591013 $361 28.610690766591013 $274 $364 forward 7 unknown #
coedge $-1 $281 $184 $363 $365 reversed $277 $-1 #
loop $-1 $-1 $184 $268 #
vertex $-1 $185 $366 #
straight-curve $-1 -30.575411028655758 -28.610690766591013 5.7235590836121837 0 0 1 I I #
edge $-1 $285 -28.610690766591013 $282 28.610690766591013 $271 $367 forward 7 unknown #
coedge $-1 $187 $276 $357 $368 forward $277 $-1 #
vertex $-1 $280 $369 #
straight-curve $-1 -18.803556117251834 -28.610690766591013 8.9147526349842714 1 0 0 I I #
coedge $-1 $272 $189 $358 $370 reversed $109 $-1 #
vertex $-1 $280 $371 #
straight-curve $-1 -18.803556117251834 28.610690766591013 8.9147526349842714 -1 0 0 I I #
point $-1 -30.575411028655758 28.610690766591013 8.9147526349842714 #
point $-1 -30.575411028655758 -28.610690766591013 8.9147526349842714 #
loop $-1 $-1 $203 $195 #
plane-surface $-1 0 -28.610690766591013 0 0 1 0 0 0 1 forward_v I I I I #
coedge $-1 $292 $198 $372 $373 reversed $117 $-1 #
coedge $-1 $198 $291 $295 $374 reversed $117 $-1 #
edge $-1 $375 0 $296 13.543663638928795 $198 $376 forward 7 unknown #
coedge $-1 $200 $199 $299 $377 reversed $73 $-1 #
coedge $-1 $206 $201 $292 $374 forward $196 $-1 #
vertex $-1 $374 $378 #
straight-curve $-1 -11.576173793402873 -18.23564258630223 13.979483699464463 -1 0 0 I I #
coedge $-1 $372 $203 $206 $303 reversed $289 $-1 #
coedge $-1 $203 $372 $294 $377 forward $289 $-1 #
vertex $-1 $204 $379 #
straight-curve $-1 -15.729284144955733 -28.610690766591013 36.832206895279995 0 0 1 I I #
straight-curve $-1 -15.729284144955733 -28.610690766591013 5.2737844155971203 0 -0.76604443648966558 -0.64278761758704617 I I #
edge $-1 $380 -30.575411028655758 $207 -15.729284144955733 $298 $381 forward 7 unknown #
point $-1 -15.729284144955733 -28.610690766591013 13.979483699464463 #
point $-1 -15.729284144955733 -18.235642586302234 13.979483699464463 #
edge $-1 $382 1 $382 0 $210 $-1 forward 7 unknown #
vertex $-1 $211 $383 #
ellipse-curve $-1 -26.333660490455756 -21.772716729302594 7.6597044448222373 0 -0.64278761758704617 0.76604443648966558 2 0 0 1 I I #
point $-1 -24.333660490455756 -23.423166676446627 9.6266340575307989 #
edge $-1 $384 1 $384 0 $214 $-1 forward 7 unknown #
vertex $-1 $215 $385 #
ellipse-curve $-1 -19.971034683155747 -21.772716729302594 7.6597044448222373 0 -0.64278761758704617 0.76604443648966558 2 0 0 1 I I #
point $-1 -17.971034683155747 -23.423166676446627 9.6266340575307989 #
loop $-1 $-1 $226 $218 #
plane-surface $-1 -30.575411028655758 0 11.447118167224367 -1 0 0 0 0 1 forward_v I I I I #
coedge $-1 $321 $386 $222 $317 forward $219 $-1 #
edge $-1 $319 40.590513902035823 $327 49.020444422065779 $316 $387 forward 7 unknown #
coedge $-1 $229 $223 $386 $388 forward $139 $-1 #
vertex $-1 $388 $389 #
straight-curve $-1 -20.188378735656549 25.638940216558186 13.979483699464467 0 1 0 I I #
coedge $-1 $390 $316 $225 $322 forward $219 $-1 #
edge $-1 $327 7.4974312945784725 $325 17.884463587577681 $321 $391 forward 7 unknown #
coedge $-1 $324 $226 $229 $329 reversed $314 $-1 #
coedge $-1 $226 $323 $390 $392 reversed $314 $-1 #
vertex $-1 $392 $393 #
straight-curve $-1 -30.575411028655758 -0.24718622678448376 34.40743084246003 0 -0.70710677298230462 0.70710678939079052 I I #
vertex $-1 $322 $394 #
straight-curve $-1 -20.188378735656549 -11.850935674926561 46.011180559868315 0 -0.70710677298230451 0.70710678939079041 I I #
edge $-1 $395 -28.610690766591013 $230 -20.180760442178467 $229 $396 forward 7 unknown #
point $-1 -30.575411028655758 20.180760442178467 13.97948369946446 #
point $-1 -20.188378735656549 20.180760442178467 13.97948369946446 #
edge $-1 $397 1 $397 0 $233 $-1 forward 7 unknown #
vertex $-1 $234 $398 #
ellipse-curve $-1 -27.607687516370273 23.556075405452695 8.9248682600016114 0 0.70710678939079041 0.70710677298230451 0.5 0 0 1 I I #
point $-1 -27.107687516370273 24.39572560438474 9.7645184394494855 #
edge $-1 $399 1 $399 0 $237 $-1 forward 7 unknown #
vertex $-1 $238 $400 #
ellipse-curve $-1 -23.156102247942041 23.556075405452695 8.9248682600016114 0 0.70710678939079041 0.70710677298230451 0.5 0 0 1 I I #
point $-1 -22.656102247942041 24.39572560438474 9.7645184394494855 #
plane-surface $-1 44.638813440351576 0 0 -1 0 0 0 0 1 forward_v I I I I #
coedge $-1 $246 $244 $248 $345 reversed $161 $-1 #
edge $-1 $259 -13.979483699464463 $347 13.979483699464463 $258 $401 forward 7 unknown #
vertex $-1 $345 $402 #
straight-curve $-1 -44.638813440351576 -28.610690766591013 0 0 0 -1 I I #
edge $-1 $343 -28.610690766591013 $347 28.610690766591013 $341 $403 forward 7 unknown #
straight-curve $-1 0 -28.610690766591013 -13.979483699464463 -1 0 0 I I #
vertex $-1 $251 $404 #
straight-curve $-1 0 28.610690766591013 -13.979483699464463 1 0 0 I I #
point $-1 44.638813440351576 28.610690766591013 -13.979483699464463 #
point $-1 44.638813440351576 -28.610690766591013 -13.979483699464463 #
straight-curve $-1 -44.638813440351576 0 13.979483699464463 0 -1 0 I I #
point $-1 -44.638813440351576 28.610690766591013 13.979483699464463 #
point $-1 -44.638813440351576 -28.610690766591013 13.979483699464463 #
straight-curve $-1 44.638813440351576 -28.610690766591013 0 0 0 -1 I I #
straight-curve $-1 44.638813440351576 28.610690766591013 0 0 0 -1 I I #
plane-surface $-1 0 -28.610690766591013 0 0 1 0 0 0 1 forward_v I I I I #
coedge $-1 $405 $271 $281 $368 reversed $180 $-1 #
coedge $-1 $271 $405 $284 $370 forward $180 $-1 #
coedge $-1 $406 $274 $272 $360 forward $269 $-1 #
edge $-1 $361 30.575411028655758 $407 44.638813440351576 $272 $408 forward 7 unknown #
vertex $-1 $360 $409 #
straight-curve $-1 -30.575411028655758 28.610690766591013 5.7235590836121837 0 0 -1 I I #
coedge $-1 $274 $406 $276 $365 forward $269 $-1 #
straight-curve $-1 -30.575411028655758 0 13.979483699464463 0 1 0 I I #
edge $-1 $410 -44.638813440351576 $278 -30.575411028655758 $276 $411 forward 7 unknown #
point $-1 -30.575411028655758 -28.610690766591013 13.979483699464463 #
straight-curve $-1 -44.638813440351576 0 8.9147526349842714 0 -1 0 I I #
edge $-1 $410 -13.979483699464463 $282 -8.9147526349842714 $357 $412 forward 7 unknown #
point $-1 -44.638813440351576 -28.610690766591013 8.9147526349842714 #
edge $-1 $407 -13.979483699464463 $285 -8.9147526349842714 $284 $413 forward 7 unknown #
point $-1 -44.638813440351576 28.610690766591013 8.9147526349842714 #
coedge $-1 $299 $298 $291 $373 forward $289 $-1 #
edge $-1 $380 22.852723195815532 $375 31.558422479682875 $372 $414 forward 7 unknown #
edge $-1 $296 18.23564258630223 $380 28.610690766591013 $295 $415 forward 7 unknown #
vertex $-1 $373 $416 #
straight-curve $-1 -30.575411028655758 -28.610690766591013 5.2737844155971203 0 0.76604443648966558 0.64278761758704617 I I #
edge $-1 $375 -18.999237235252885 $300 -4.1531103515528596 $299 $417 forward 7 unknown #
point $-1 -30.575411028655758 -18.23564258630223 13.979483699464463 #
point $-1 -15.729284144955733 -28.610690766591013 5.2737844155971203 #
vertex $-1 $303 $418 #
straight-curve $-1 0 -28.610690766591013 13.979483699464463 1 0 0 I I #
vertex $-1 $306 $419 #
point $-1 -24.333660490455756 -21.772716729302594 7.6597044448222373 #
vertex $-1 $310 $420 #
point $-1 -17.971034683155747 -21.772716729302594 7.6597044448222373 #
coedge $-1 $316 $390 $318 $388 reversed $219 $-1 #
straight-curve $-1 -20.188378735656549 28.610690766591013 54.569997601500283 0 0 -1 I I #
edge $-1 $319 20.188378735656549 $395 30.575411028655758 $386 $421 forward 7 unknown #
point $-1 -20.188378735656549 28.610690766591013 13.979483699464463 #
coedge $-1 $386 $321 $324 $392 forward $219 $-1 #
straight-curve $-1 -12.690947441078077 28.610690766591013 5.5495531794345112 -1 0 0 I I #
edge $-1 $325 -49.020444422065779 $395 -40.590513902035823 $390 $422 forward 7 unknown #
point $-1 -30.575411028655758 28.610690766591013 5.5495531794345041 #
point $-1 -20.188378735656549 28.610690766591013 5.5495531794345041 #
vertex $-1 $329 $423 #
straight-curve $-1 -30.575411028655758 0 13.979483699464463 0 -1 0 I I #
vertex $-1 $332 $424 #
point $-1 -27.107687516370273 23.556075405452695 8.9248682600016114 #
vertex $-1 $336 $425 #
point $-1 -22.656102247942041 23.556075405452695 8.9248682600016114 #
straight-curve $-1 -44.638813440351576 28.610690766591013 0 0 0 -1 I I #
point $-1 -44.638813440351576 -28.610690766591013 -13.979483699464463 #
straight-curve $-1 -44.638813440351576 0 -13.979483699464463 0 1 0 I I #
point $-1 -44.638813440351576 28.610690766591013 -13.979483699464463 #
coedge $-1 $358 $357 $406 $426 reversed $180 $-1 #
coedge $-1 $363 $359 $405 $426 forward $269 $-1 #
vertex $-1 $360 $427 #
straight-curve $-1 0 28.610690766591013 13.979483699464463 -1 0 0 I I #
point $-1 -30.575411028655758 28.610690766591013 13.979483699464463 #
vertex $-1 $426 $428 #
straight-curve $-1 0 -28.610690766591013 13.979483699464463 1 0 0 I I #
straight-curve $-1 -44.638813440351576 -28.610690766591013 0 0 0 -1 I I #
straight-curve $-1 -44.638813440351576 28.610690766591013 0 0 0 -1 I I #
straight-curve $-1 -30.575411028655758 -28.610690766591013 36.832206895279995 0 0 -1 I I #
straight-curve $-1 -30.575411028655758 0 13.979483699464463 0 -1 0 I I #
point $-1 -30.575411028655758 -28.610690766591013 5.2737844155971203 #
straight-curve $-1 -11.576173793402873 -28.610690766591013 5.2737844155971185 1 0 0 I I #
point $-1 -30.575411028655758 -28.610690766591013 13.979483699464463 #
point $-1 -26.333660490455756 -20.487141494128501 6.1276155718429042 #
point $-1 -19.971034683155747 -20.487141494128501 6.1276155718429042 #
straight-curve $-1 0 28.610690766591013 13.979483699464463 -1 0 0 I I #
straight-curve $-1 -30.575411028655758 28.610690766591013 54.569997601500283 0 0 1 I I #
point $-1 -30.575411028655758 28.610690766591013 13.979483699464463 #
point $-1 -27.607687516370273 23.202522010757299 8.5713148735104578 #
point $-1 -23.156102247942041 23.202522010757299 8.5713148735104578 #
edge $-1 $407 -28.610690766591013 $410 28.610690766591013 $405 $429 forward 7 unknown #
point $-1 -44.638813440351576 28.610690766591013 13.979483699464463 #
point $-1 -44.638813440351576 -28.610690766591013 13.979483699464463 #
straight-curve $-1 -44.638813440351576 0 13.979483699464463 0 -1 0 I I #
End-of-ACIS-data 