500 0 9 0           
7 Unknown 11 ACIS 5.0 NT 24 Fri Mar 26 15:36:56 1999 
-1 9.9999999999999995e-007 1e-010 
body $-1 $9 $-1 $10 #
body $-1 $11 $-1 $12 #
body $-1 $13 $-1 $14 #
body $-1 $15 $-1 $16 #
body $-1 $17 $-1 $18 #
body $-1 $19 $-1 $20 #
body $-1 $21 $-1 $22 #
body $-1 $23 $-1 $24 #
body $-1 $25 $-1 $26 #
lump $-1 $-1 $27 $0 #
transform $-1 1 0 0 0 1 0 0 0 1 47.881099887081518 23.485805893586239 11.210284691856021 1 rotate no_reflect no_shear #
lump $-1 $-1 $28 $1 #
transform $-1 1 0 0 0 1 0 0 0 1 47.881099887081518 23.485805893586239 11.210284691856021 1 rotate no_reflect no_shear #
lump $-1 $-1 $29 $2 #
transform $-1 1 0 0 0 1 0 0 0 1 47.881099887081518 23.485805893586239 11.210284691856021 1 rotate no_reflect no_shear #
lump $-1 $-1 $30 $3 #
transform $-1 1 0 0 0 1 0 0 0 1 47.881099887081518 23.485805893586239 11.210284691856021 1 rotate no_reflect no_shear #
lump $-1 $-1 $31 $4 #
transform $-1 1 0 0 0 1 0 0 0 1 47.881099887081518 23.485805893586239 11.210284691856021 1 rotate no_reflect no_shear #
lump $-1 $-1 $32 $5 #
transform $-1 1 0 0 0 1 0 0 0 1 47.881099887081518 23.485805893586239 11.210284691856021 1 rotate no_reflect no_shear #
lump $-1 $-1 $33 $6 #
transform $-1 1 0 0 0 1 0 0 0 1 47.881099887081518 23.485805893586239 11.210284691856021 1 rotate no_reflect no_shear #
lump $-1 $-1 $34 $7 #
transform $-1 1 0 0 0 1 0 0 0 1 47.881099887081518 23.485805893586239 11.210284691856021 1 rotate no_reflect no_shear #
lump $-1 $-1 $35 $8 #
transform $-1 1 0 0 0 1 0 0 0 1 47.881099887081518 23.485805893586239 11.210284691856021 1 rotate no_reflect no_shear #
shell $-1 $-1 $-1 $36 $-1 $9 #
shell $-1 $-1 $-1 $37 $-1 $11 #
shell $-1 $-1 $-1 $38 $-1 $13 #
shell $-1 $-1 $-1 $39 $-1 $15 #
shell $-1 $-1 $-1 $40 $-1 $17 #
shell $-1 $-1 $-1 $41 $-1 $19 #
shell $-1 $-1 $-1 $42 $-1 $21 #
shell $-1 $-1 $-1 $43 $-1 $23 #
shell $-1 $-1 $-1 $44 $-1 $25 #
face $-1 $45 $46 $27 $-1 $47 forward single #
face $-1 $48 $49 $28 $-1 $50 forward single #
face $-1 $51 $52 $29 $-1 $53 reversed single #
face $-1 $54 $55 $30 $-1 $56 reversed single #
face $-1 $57 $58 $31 $-1 $59 forward single #
face $-1 $60 $61 $32 $-1 $62 forward single #
face $-1 $63 $64 $33 $-1 $65 forward single #
face $-1 $66 $67 $34 $-1 $68 reversed single #
face $-1 $69 $70 $35 $-1 $71 forward single #
face $-1 $72 $73 $27 $-1 $74 reversed single #
loop $-1 $-1 $75 $36 #
plane-surface $-1 0 0 11.210284691856021 0 0 1 1 0 0 forward_v I I I I #
face $-1 $76 $77 $28 $-1 $78 reversed single #
loop $-1 $-1 $79 $37 #
plane-surface $-1 0 -17.321240679628342 -7.4893063183227575 0 0 1 1 0 0 forward_v I I I I #
face $-1 $80 $81 $29 $-1 $82 reversed single #
loop $-1 $-1 $83 $38 #
plane-surface $-1 0 18.28280988821556 5.2407490775392098 0 0 1 1 0 0 forward_v I I I I #
face $-1 $84 $85 $30 $-1 $86 reversed single #
loop $-1 $-1 $87 $39 #
plane-surface $-1 -128.19403912589357 -2.4836640758478836 55.80156112010161 0 1 0 -0.83867057594974714 0 0.54463902268945019 forward_v I I I I #
face $-1 $88 $89 $31 $-1 $90 forward single #
loop $-1 $91 $92 $40 #
cone-surface $-1 -44.633431761838452 -1.103861194681059 6.9140477004895047 0.83867057594974714 0 -0.54463902268945019 0.2723195113447251 0 0.41933528797487357 1 I I 0 1 0.5 forward I I I I #
face $-1 $93 $94 $32 $-1 $95 forward single #
loop $-1 $96 $97 $41 #
cone-surface $-1 -44.633431761838452 0.96584312706917785 6.9140477004895047 0.83867057594974714 0 -0.54463902268945019 0.2723195113447251 0 0.41933528797487357 1 I I 0 1 0.5 forward I I I I #
face $-1 $98 $99 $33 $-1 $100 forward single #
loop $-1 $101 $102 $42 #
cone-surface $-1 -44.633431761838452 3.0355474488194147 6.9140477004895047 0.83867057594974714 0 -0.54463902268945019 0.2723195113447251 0 0.41933528797487357 1 I I 0 1 0.5 forward I I I I #
face $-1 $103 $104 $34 $-1 $105 reversed single #
loop $-1 $-1 $106 $43 #
plane-surface $-1 -17.428562466162845 9.5783897422192652 73.996230188192257 0.73135370988377701 0 0.68199835119979291 0.68199835119979291 0 -0.73135370988377701 forward_v I I I I #
face $-1 $107 $108 $35 $-1 $109 forward single #
loop $-1 $110 $111 $44 #
cone-surface $-1 43.356942726781149 9.5783897422192652 6.5186770689019147 -0.73135370988377701 0 -0.68199835119979291 0.68199835119979291 0 -0.73135370988377701 1 I I 0 1 1 forward I I I I #
face $-1 $112 $113 $27 $-1 $114 reversed single #
loop $-1 $-1 $115 $45 #
plane-surface $-1 0 0 -11.210284691856021 0 0 1 1 0 0 forward_v I I I I #
coedge $-1 $116 $117 $118 $119 forward $46 $-1 #
face $-1 $120 $121 $28 $-1 $122 reversed single #
loop $-1 $-1 $123 $48 #
plane-surface $-1 0 -11.156675465670446 -9.3497955050893893 0 -1 0 0 0 -1 forward_v I I I I #
coedge $-1 $124 $125 $126 $127 reversed $49 $-1 #
face $-1 $128 $129 $29 $-1 $130 reversed single #
loop $-1 $-1 $131 $51 #
plane-surface $-1 0 13.079813882844881 8.2255168846976154 0 1 0 0 0 1 forward_v I I I I #
coedge $-1 $132 $133 $134 $135 reversed $52 $-1 #
face $-1 $136 $137 $30 $-1 $138 reversed single #
loop $-1 $-1 $139 $54 #
plane-surface $-1 -47.881099887081504 0.9658431270691743 3.6457302245095633 -0.83867057594974714 0 0.54463902268945019 0.54463902268945019 0 0.83867057594974714 forward_v I I I I #
coedge $-1 $140 $141 $142 $143 reversed $55 $-1 #
face $-1 $-1 $144 $31 $-1 $145 forward single #
loop $-1 $146 $147 $57 #
cone-surface $-1 -43.632335468704433 -1.103861194681059 6.2639281871238488 0.83867057594974714 0 -0.54463902268945019 0.13615975567236255 0 0.20966764398743679 1 I I -0.70710678118654746 0.70710678118654746 0.25 forward I I I I #
loop $-1 $-1 $148 $40 #
coedge $-1 $92 $92 $149 $150 reversed $58 $-1 #
face $-1 $-1 $151 $32 $-1 $152 forward single #
loop $-1 $153 $154 $60 #
cone-surface $-1 -43.632335468704433 0.96584312706917785 6.2639281871238488 0.83867057594974714 0 -0.54463902268945019 0.13615975567236255 0 0.20966764398743679 1 I I -0.70710678118654746 0.70710678118654746 0.25 forward I I I I #
loop $-1 $-1 $155 $41 #
coedge $-1 $97 $97 $156 $157 reversed $61 $-1 #
face $-1 $-1 $158 $33 $-1 $159 forward single #
loop $-1 $160 $161 $63 #
cone-surface $-1 -43.632335468704433 3.0355474488194147 6.2639281871238488 0.83867057594974714 0 -0.54463902268945019 0.13615975567236255 0 0.20966764398743679 1 I I -0.70710678118654746 0.70710678118654746 0.25 forward I I I I #
loop $-1 $-1 $162 $42 #
coedge $-1 $102 $102 $163 $164 reversed $64 $-1 #
face $-1 $165 $166 $34 $-1 $167 forward single #
loop $-1 $-1 $168 $66 #
plane-surface $-1 52.607477605302691 6.0769656015936491 139.30589254143663 0 1 0 0.73135370988377701 0 0.68199835119979291 forward_v I I I I #
coedge $-1 $169 $170 $171 $172 reversed $67 $-1 #
face $-1 $-1 $173 $35 $-1 $174 forward single #
loop $-1 $175 $176 $69 #
cone-surface $-1 41.847519913026147 9.5783897422192652 5.1111175579125536 -0.73135370988377701 0 -0.68199835119979291 0.34099917559989645 0 -0.36567685494188851 1 I I -0.70710678118654746 0.70710678118654746 0.5 forward I I I I #
loop $-1 $-1 $177 $44 #
coedge $-1 $111 $111 $178 $179 reversed $70 $-1 #
face $-1 $180 $181 $27 $-1 $182 reversed single #
loop $-1 $-1 $183 $72 #
plane-surface $-1 0 -23.485805893586239 0 0 1 0 0 0 1 forward_v I I I I #
coedge $-1 $184 $185 $186 $187 forward $73 $-1 #
coedge $-1 $188 $75 $189 $190 forward $46 $-1 #
coedge $-1 $75 $188 $191 $192 forward $46 $-1 #
coedge $-1 $193 $194 $75 $119 reversed $195 $-1 #
edge $-1 $196 -23.485805893586239 $197 23.485805893586239 $118 $198 forward 7 unknown #
face $-1 $199 $200 $28 $-1 $201 reversed single #
loop $-1 $-1 $202 $76 #
plane-surface $-1 0 0 -11.210284691856021 0 0 1 1 0 0 forward_v I I I I #
coedge $-1 $203 $204 $205 $206 reversed $77 $-1 #
coedge $-1 $207 $79 $204 $208 forward $49 $-1 #
coedge $-1 $79 $207 $209 $210 reversed $49 $-1 #
coedge $-1 $211 $205 $79 $127 forward $200 $-1 #
edge $-1 $212 2.4960551258562749 $213 14.825185553772068 $126 $214 forward 7 unknown #
face $-1 $215 $216 $29 $-1 $217 reversed single #
loop $-1 $-1 $218 $80 #
plane-surface $-1 0 23.485805893586239 0 0 -1 0 0 0 -1 forward_v I I I I #
coedge $-1 $219 $220 $221 $222 reversed $81 $-1 #
coedge $-1 $223 $83 $219 $224 forward $52 $-1 #
coedge $-1 $83 $223 $218 $225 reversed $52 $-1 #
coedge $-1 $226 $227 $83 $135 forward $228 $-1 #
edge $-1 $229 3.9384089387371013 $230 14.344400949478459 $134 $231 forward 7 unknown #
face $-1 $232 $233 $30 $-1 $234 reversed single #
loop $-1 $-1 $235 $84 #
plane-surface $-1 -128.19403912589357 4.4153503299862322 55.80156112010161 0 -1 0 0.83867057594974714 0 -0.54463902268945019 forward_v I I I I #
coedge $-1 $236 $237 $238 $239 reversed $85 $-1 #
coedge $-1 $141 $87 $240 $241 reversed $55 $-1 #
coedge $-1 $87 $140 $236 $242 reversed $55 $-1 #
coedge $-1 $238 $243 $87 $143 forward $244 $-1 #
edge $-1 $245 16.215919675865266 $246 21.12839862805825 $142 $247 forward 7 unknown #
loop $-1 $-1 $149 $88 #
plane-surface $-1 -47.881099887081504 0.9658431270691743 3.6457302245095633 -0.83867057594974714 0 0.54463902268945019 0.54463902268945019 0 0.83867057594974714 forward_v I I I I #
loop $-1 $-1 $248 $57 #
coedge $-1 $147 $147 $148 $249 reversed $89 $-1 #
coedge $-1 $148 $148 $147 $249 forward $91 $-1 #
coedge $-1 $149 $149 $92 $150 forward $144 $-1 #
edge $-1 $250 0 $250 6.2831853071796004 $149 $251 forward 7 unknown #
loop $-1 $-1 $156 $93 #
plane-surface $-1 -47.881099887081504 0.9658431270691743 3.6457302245095633 -0.83867057594974714 0 0.54463902268945019 0.54463902268945019 0 0.83867057594974714 forward_v I I I I #
loop $-1 $-1 $252 $60 #
coedge $-1 $154 $154 $155 $253 reversed $94 $-1 #
coedge $-1 $155 $155 $154 $253 forward $96 $-1 #
coedge $-1 $156 $156 $97 $157 forward $151 $-1 #
edge $-1 $254 0 $254 6.2831853071796004 $156 $255 forward 7 unknown #
loop $-1 $-1 $163 $98 #
plane-surface $-1 -47.881099887081504 0.9658431270691743 3.6457302245095633 -0.83867057594974714 0 0.54463902268945019 0.54463902268945019 0 0.83867057594974714 forward_v I I I I #
loop $-1 $-1 $256 $63 #
coedge $-1 $161 $161 $162 $257 reversed $99 $-1 #
coedge $-1 $162 $162 $161 $257 forward $101 $-1 #
coedge $-1 $163 $163 $102 $164 forward $158 $-1 #
edge $-1 $258 0 $258 6.2831853071796004 $163 $259 forward 7 unknown #
face $-1 $260 $261 $34 $-1 $262 forward single #
loop $-1 $-1 $171 $103 #
plane-surface $-1 0 0 11.210284691856021 0 0 1 1 0 0 forward_v I I I I #
coedge $-1 $263 $264 $265 $266 reversed $104 $-1 #
coedge $-1 $267 $106 $268 $269 reversed $67 $-1 #
coedge $-1 $106 $267 $263 $270 forward $67 $-1 #
coedge $-1 $265 $271 $106 $172 forward $166 $-1 #
edge $-1 $272 -8.2906190117352487 $273 -1.2877707304840165 $171 $274 forward 7 unknown #
loop $-1 $-1 $178 $107 #
plane-surface $-1 -17.428562466162845 9.5783897422192652 73.996230188192257 0.73135370988377701 0 0.68199835119979291 0.68199835119979291 0 -0.73135370988377701 forward_v I I I I #
loop $-1 $-1 $275 $69 #
coedge $-1 $176 $176 $177 $276 reversed $108 $-1 #
coedge $-1 $177 $177 $176 $276 forward $110 $-1 #
coedge $-1 $178 $178 $111 $179 forward $173 $-1 #
edge $-1 $277 0 $277 6.2831853071796004 $178 $278 forward 7 unknown #
face $-1 $279 $280 $27 $-1 $281 reversed single #
loop $-1 $-1 $282 $112 #
plane-surface $-1 -47.881099887081518 0 0 1 0 0 0 0 -1 forward_v I I I I #
coedge $-1 $283 $191 $284 $285 forward $113 $-1 #
coedge $-1 $286 $115 $283 $287 forward $73 $-1 #
coedge $-1 $115 $286 $288 $289 forward $73 $-1 #
coedge $-1 $194 $193 $115 $187 reversed $195 $-1 #
edge $-1 $290 -23.485805893586239 $291 23.485805893586239 $186 $292 forward 7 unknown #
coedge $-1 $117 $116 $293 $294 forward $46 $-1 #
coedge $-1 $295 $296 $116 $190 reversed $280 $-1 #
edge $-1 $197 -47.881099887081518 $297 47.881099887081518 $189 $298 forward 7 unknown #
coedge $-1 $183 $299 $117 $192 reversed $113 $-1 #
edge $-1 $300 -47.881099887081518 $196 47.881099887081518 $191 $301 forward 7 unknown #
coedge $-1 $186 $118 $299 $302 forward $195 $-1 #
coedge $-1 $118 $186 $295 $303 reversed $195 $-1 #
loop $-1 $-1 $193 $279 #
vertex $-1 $119 $304 #
vertex $-1 $119 $305 #
straight-curve $-1 47.881099887081518 0 11.210284691856021 0 1 0 I I #
face $-1 $306 $307 $28 $-1 $308 reversed single #
loop $-1 $-1 $205 $120 #
plane-surface $-1 47.881099887081518 0 0 -1 0 0 0 0 1 forward_v I I I I #
coedge $-1 $309 $310 $203 $311 forward $121 $-1 #
coedge $-1 $312 $123 $202 $311 reversed $77 $-1 #
coedge $-1 $123 $312 $124 $208 reversed $77 $-1 #
coedge $-1 $126 $313 $123 $206 forward $200 $-1 #
edge $-1 $314 -6.5353869393113264 $212 -2.8144085657780629 $205 $315 forward 7 unknown #
coedge $-1 $125 $124 $316 $317 reversed $49 $-1 #
edge $-1 $212 -47.881099887081518 $318 47.881099887081518 $204 $319 forward 7 unknown #
coedge $-1 $320 $321 $125 $210 forward $307 $-1 #
edge $-1 $213 -47.881099887081518 $322 47.881099887081518 $209 $323 forward 7 unknown #
coedge $-1 $313 $126 $321 $324 forward $200 $-1 #
vertex $-1 $127 $325 #
vertex $-1 $324 $326 #
straight-curve $-1 47.881099887081518 -8.6606203398141712 -7.4893063183227575 0 -1 0 I I #
face $-1 $327 $328 $29 $-1 $329 forward single #
loop $-1 $-1 $330 $128 #
plane-surface $-1 -47.881099887081518 0 0 1 0 0 0 0 -1 forward_v I I I I #
coedge $-1 $331 $332 $133 $225 forward $129 $-1 #
coedge $-1 $333 $131 $132 $224 reversed $81 $-1 #
coedge $-1 $131 $333 $334 $335 reversed $81 $-1 #
coedge $-1 $336 $330 $131 $222 forward $216 $-1 #
edge $-1 $337 1.1279906351904021 $338 7.0975262495072133 $221 $339 forward 7 unknown #
coedge $-1 $133 $132 $330 $340 reversed $52 $-1 #
edge $-1 $229 -47.881099887081518 $337 47.881099887081518 $219 $341 forward 7 unknown #
edge $-1 $230 -47.881099887081518 $342 47.881099887081518 $218 $343 forward 7 unknown #
coedge $-1 $344 $134 $332 $345 reversed $228 $-1 #
coedge $-1 $134 $344 $333 $346 forward $228 $-1 #
loop $-1 $-1 $134 $327 #
vertex $-1 $135 $347 #
vertex $-1 $225 $348 #
straight-curve $-1 47.881099887081518 9.14140494410778 5.2407490775392098 0 1 0 I I #
face $-1 $-1 $244 $30 $-1 $349 forward single #
loop $-1 $-1 $350 $136 #
plane-surface $-1 -47.881099887081518 0 0 1 0 0 0 0 -1 forward_v I I I I #
coedge $-1 $351 $352 $353 $354 reversed $137 $-1 #
coedge $-1 $355 $139 $141 $242 forward $85 $-1 #
coedge $-1 $139 $355 $351 $356 forward $85 $-1 #
coedge $-1 $353 $142 $139 $239 forward $244 $-1 #
edge $-1 $246 -2.9665856393824708 $357 3.9324287664516451 $238 $358 forward 7 unknown #
coedge $-1 $359 $360 $140 $241 forward $233 $-1 #
edge $-1 $361 -24.255050335541263 $245 -16.690495868194784 $240 $362 forward 7 unknown #
edge $-1 $246 -9.019696987437559 $361 2.5989569140172373e-014 $141 $363 forward 7 unknown #
coedge $-1 $142 $353 $359 $364 forward $244 $-1 #
loop $-1 $-1 $353 $232 #
vertex $-1 $241 $365 #
vertex $-1 $143 $366 #
straight-curve $-1 -64.097019562946784 -2.4836640758478836 11.210284691856021 1 0 0 I I #
coedge $-1 $248 $248 $-1 $367 reversed $146 $-1 #
edge $-1 $368 0 $368 6.2831853071796004 $147 $369 forward 7 unknown #
vertex $-1 $150 $370 #
ellipse-curve $-1 -45.424860410985019 -1.103861194681059 7.4280074581827886 -0.83867057594974714 0 0.54463902268945019 0.2723195113447251 0 0.41933528797487357 1 I I #
coedge $-1 $252 $252 $-1 $371 reversed $153 $-1 #
edge $-1 $372 0 $372 6.2831853071796004 $154 $373 forward 7 unknown #
vertex $-1 $157 $374 #
ellipse-curve $-1 -45.424860410985019 0.96584312706917785 7.4280074581827886 -0.83867057594974714 0 0.54463902268945019 0.2723195113447251 0 0.41933528797487357 1 I I #
coedge $-1 $256 $256 $-1 $375 reversed $160 $-1 #
edge $-1 $376 0 $376 6.2831853071796004 $161 $377 forward 7 unknown #
vertex $-1 $164 $378 #
ellipse-curve $-1 -45.424860410985019 3.0355474488194147 7.4280074581827886 -0.83867057594974714 0 0.54463902268945019 0.2723195113447251 0 0.41933528797487357 1 I I #
face $-1 $-1 $379 $34 $-1 $380 reversed single #
loop $-1 $-1 $268 $165 #
plane-surface $-1 0 13.079813882844881 8.2255168846976154 0 1 0 0 0 1 forward_v I I I I #
coedge $-1 $264 $168 $170 $270 reversed $104 $-1 #
coedge $-1 $168 $263 $381 $382 reversed $104 $-1 #
coedge $-1 $383 $171 $168 $266 forward $166 $-1 #
edge $-1 $273 14.816538681455697 $384 21.577361084430173 $265 $385 forward 7 unknown #
coedge $-1 $170 $169 $386 $387 reversed $67 $-1 #
coedge $-1 $388 $389 $169 $269 forward $261 $-1 #
edge $-1 $390 -65.768246753203641 $272 -55.854993457091382 $268 $391 forward 7 unknown #
edge $-1 $392 -95.762199774163022 $273 -85.848946478050749 $263 $393 forward 7 unknown #
coedge $-1 $171 $383 $388 $394 forward $166 $-1 #
vertex $-1 $172 $395 #
vertex $-1 $172 $396 #
straight-curve $-1 41.120277484107035 4.7891948711096326 11.210284691856018 0 -1 0 I I #
coedge $-1 $275 $275 $-1 $397 reversed $175 $-1 #
edge $-1 $398 0 $398 6.2831853071796004 $176 $399 forward 7 unknown #
vertex $-1 $179 $400 #
ellipse-curve $-1 44.50068868559427 9.5783897422192652 7.5852374042913873 0.73135370988377701 0 0.68199835119979291 0.68199835119979291 0 -0.73135370988377701 1 I I #
face $-1 $-1 $195 $27 $-1 $401 reversed single #
loop $-1 $-1 $295 $180 #
plane-surface $-1 0 23.485805893586239 0 0 -1 0 0 0 -1 forward_v I I I I #
coedge $-1 $402 $293 $296 $403 forward $181 $-1 #
coedge $-1 $299 $183 $184 $287 reversed $113 $-1 #
coedge $-1 $293 $402 $183 $285 reversed $181 $-1 #
edge $-1 $300 -11.210284691856021 $404 11.210284691856021 $284 $405 forward 7 unknown #
coedge $-1 $185 $184 $402 $406 forward $73 $-1 #
edge $-1 $291 -47.881099887081518 $404 47.881099887081518 $283 $407 forward 7 unknown #
coedge $-1 $296 $295 $185 $289 reversed $280 $-1 #
edge $-1 $408 -47.881099887081518 $290 47.881099887081518 $288 $409 forward 7 unknown #
vertex $-1 $187 $410 #
vertex $-1 $302 $411 #
straight-curve $-1 47.881099887081518 0 -11.210284691856021 0 -1 0 I I #
coedge $-1 $282 $284 $188 $294 reversed $181 $-1 #
edge $-1 $297 -23.485805893586239 $300 23.485805893586239 $293 $412 forward 7 unknown #
coedge $-1 $288 $189 $194 $303 forward $280 $-1 #
coedge $-1 $189 $288 $282 $403 reversed $280 $-1 #
vertex $-1 $190 $413 #
straight-curve $-1 0 23.485805893586239 11.210284691856021 -1 0 0 I I #
coedge $-1 $191 $283 $193 $302 reversed $113 $-1 #
vertex $-1 $294 $414 #
straight-curve $-1 0 -23.485805893586239 11.210284691856021 1 0 0 I I #
edge $-1 $196 -11.210284691856021 $291 11.210284691856021 $193 $415 forward 7 unknown #
edge $-1 $197 -11.210284691856021 $290 11.210284691856021 $194 $416 forward 7 unknown #
point $-1 47.881099887081518 -23.485805893586239 11.210284691856021 #
point $-1 47.881099887081518 23.485805893586239 11.210284691856021 #
face $-1 $-1 $417 $28 $-1 $418 reversed single #
loop $-1 $-1 $209 $199 #
plane-surface $-1 0 -23.485805893586239 0 0 1 0 0 0 1 forward_v I I I I #
coedge $-1 $419 $202 $313 $420 forward $121 $-1 #
coedge $-1 $202 $419 $421 $422 forward $121 $-1 #
edge $-1 $423 -47.881099887081518 $314 47.881099887081518 $202 $424 forward 7 unknown #
coedge $-1 $204 $203 $425 $426 reversed $77 $-1 #
coedge $-1 $205 $211 $309 $420 reversed $200 $-1 #
vertex $-1 $420 $427 #
straight-curve $-1 47.881099887081518 -11.156675465670446 -4.6748977525446946 0 0 1 I I #
coedge $-1 $425 $428 $207 $317 forward $417 $-1 #
edge $-1 $322 -14.825185553772068 $318 -2.4960551258562749 $316 $429 forward 7 unknown #
vertex $-1 $317 $430 #
straight-curve $-1 0 -11.156675465670446 -7.4893063183227575 -1 0 0 I I #
coedge $-1 $431 $209 $428 $432 forward $307 $-1 #
coedge $-1 $209 $431 $211 $324 reversed $307 $-1 #
vertex $-1 $432 $433 #
straight-curve $-1 0 -23.485805893586239 -7.4893063183227575 -1 0 0 I I #
edge $-1 $213 7.4893063183227575 $434 11.210284691856021 $211 $435 forward 7 unknown #
point $-1 47.881099887081518 -11.156675465670446 -7.4893063183227575 #
point $-1 47.881099887081518 -23.485805893586239 -7.4893063183227575 #
face $-1 $-1 $228 $29 $-1 $436 reversed single #
loop $-1 $-1 $334 $215 #
plane-surface $-1 0 0 11.210284691856021 0 0 1 1 0 0 forward_v I I I I #
coedge $-1 $221 $437 $223 $340 forward $216 $-1 #
coedge $-1 $438 $218 $437 $439 reversed $129 $-1 #
coedge $-1 $218 $438 $226 $345 forward $129 $-1 #
coedge $-1 $220 $219 $227 $346 reversed $81 $-1 #
coedge $-1 $440 $441 $220 $335 forward $328 $-1 #
edge $-1 $338 -47.881099887081518 $442 47.881099887081518 $334 $443 forward 7 unknown #
coedge $-1 $437 $221 $441 $444 reversed $216 $-1 #
vertex $-1 $340 $445 #
vertex $-1 $222 $446 #
straight-curve $-1 -47.881099887081518 13.079813882844881 4.1127584423488077 0 0 1 I I #
edge $-1 $342 -14.344400949478459 $337 -3.9384089387371013 $330 $447 forward 7 unknown #
straight-curve $-1 0 13.079813882844881 5.2407490775392098 -1 0 0 I I #
vertex $-1 $225 $448 #
straight-curve $-1 0 23.485805893586239 5.2407490775392098 -1 0 0 I I #
coedge $-1 $227 $226 $440 $449 reversed $228 $-1 #
edge $-1 $450 -11.210284691856021 $230 -5.2407490775392098 $226 $451 forward 7 unknown #
edge $-1 $442 -7.0975262495072133 $229 -1.1279906351904021 $227 $452 forward 7 unknown #
point $-1 47.881099887081518 13.079813882844881 5.2407490775392098 #
point $-1 47.881099887081518 23.485805893586239 5.2407490775392098 #
plane-surface $-1 0 0 11.210284691856021 0 0 1 1 0 0 forward_v I I I I #
coedge $-1 $360 $359 $352 $453 forward $233 $-1 #
coedge $-1 $352 $235 $237 $356 reversed $137 $-1 #
coedge $-1 $235 $351 $350 $453 reversed $137 $-1 #
coedge $-1 $243 $238 $235 $354 forward $244 $-1 #
edge $-1 $357 -21.12839862805825 $454 -16.215919675865266 $353 $455 forward 7 unknown #
coedge $-1 $237 $236 $360 $456 reversed $85 $-1 #
edge $-1 $457 -2.5989569140172373e-014 $357 9.019696987437559 $351 $458 forward 7 unknown #
vertex $-1 $239 $459 #
straight-curve $-1 -42.968620934888534 0.48292156353458715 11.210284691856021 0 1 0 I I #
coedge $-1 $350 $240 $243 $364 reversed $233 $-1 #
coedge $-1 $240 $350 $355 $456 forward $233 $-1 #
vertex $-1 $241 $460 #
straight-curve $-1 -47.881099887081518 -2.4836640758478836 27.900780560050805 0 0 1 I I #
straight-curve $-1 -47.881099887081504 -2.4836640758478836 3.6457302245095633 -0.54463902268945019 0 -0.83867057594974714 I I #
edge $-1 $454 -4.4153503299862322 $245 2.4836640758478836 $359 $461 forward 7 unknown #
point $-1 -47.881099887081518 -2.4836640758478836 11.210284691856021 #
point $-1 -42.968620934888534 -2.4836640758478836 11.210284691856021 #
edge $-1 $462 1 $462 0 $248 $-1 forward 7 unknown #
vertex $-1 $249 $463 #
ellipse-curve $-1 -43.84200311269187 -1.103861194681059 6.400087942796211 -0.83867057594974714 0 0.54463902268945019 0.2723195113447251 0 0.41933528797487357 1 I I #
point $-1 -45.152540899640314 -1.103861194681059 7.8473427461576728 #
edge $-1 $464 1 $464 0 $252 $-1 forward 7 unknown #
vertex $-1 $253 $465 #
ellipse-curve $-1 -43.84200311269187 0.96584312706917785 6.400087942796211 -0.83867057594974714 0 0.54463902268945019 0.2723195113447251 0 0.41933528797487357 1 I I #
point $-1 -45.152540899640314 0.96584312706917785 7.8473427461576728 #
edge $-1 $466 1 $466 0 $256 $-1 forward 7 unknown #
vertex $-1 $257 $467 #
ellipse-curve $-1 -43.84200311269187 3.0355474488194147 6.400087942796211 -0.83867057594974714 0 0.54463902268945019 0.2723195113447251 0 0.41933528797487357 1 I I #
point $-1 -45.152540899640314 3.0355474488194147 7.8473427461576728 #
loop $-1 $-1 $468 $260 #
plane-surface $-1 47.881099887081518 0 0 -1 0 0 0 0 1 forward_v I I I I #
coedge $-1 $386 $469 $264 $382 forward $379 $-1 #
edge $-1 $384 58.4426615788623 $392 65.692756153991581 $381 $470 forward 7 unknown #
coedge $-1 $271 $265 $469 $471 forward $166 $-1 #
vertex $-1 $471 $472 #
straight-curve $-1 26.303738802651345 6.0769656015936491 11.210284691856018 1 0 0 I I #
coedge $-1 $468 $381 $267 $387 forward $379 $-1 #
edge $-1 $392 1.2877707304840165 $390 8.2906190117352487 $386 $473 forward 7 unknown #
coedge $-1 $389 $268 $271 $394 reversed $261 $-1 #
coedge $-1 $268 $388 $468 $474 reversed $261 $-1 #
vertex $-1 $474 $475 #
straight-curve $-1 3.0272640400954955 13.079813882844881 52.06004137223389 -0.68199835119979291 0 0.73135370988377701 I I #
vertex $-1 $387 $476 #
straight-curve $-1 -17.428562466162845 6.0769656015936491 73.996230188192257 -0.68199835119979291 0 0.73135370988377701 I I #
edge $-1 $477 -47.881099887081518 $272 -41.120277484107042 $271 $478 forward 7 unknown #
point $-1 41.120277484107042 13.079813882844881 11.210284691856018 #
point $-1 41.120277484107042 6.0769656015936491 11.210284691856018 #
edge $-1 $479 1 $479 0 $275 $-1 forward 7 unknown #
vertex $-1 $276 $480 #
ellipse-curve $-1 42.213196767968036 9.5783897422192652 5.4521167335124501 0.73135370988377701 0 0.68199835119979291 0.68199835119979291 0 -0.73135370988377701 1 I I #
point $-1 45.182687036794057 9.5783897422192652 6.8538836944076023 #
plane-surface $-1 47.881099887081518 0 0 -1 0 0 0 0 1 forward_v I I I I #
coedge $-1 $284 $282 $286 $406 reversed $181 $-1 #
edge $-1 $297 -11.210284691856021 $408 11.210284691856021 $296 $481 forward 7 unknown #
vertex $-1 $406 $482 #
straight-curve $-1 -47.881099887081518 -23.485805893586239 0 0 0 -1 I I #
edge $-1 $404 -23.485805893586239 $408 23.485805893586239 $402 $483 forward 7 unknown #
straight-curve $-1 0 -23.485805893586239 -11.210284691856021 -1 0 0 I I #
vertex $-1 $289 $484 #
straight-curve $-1 0 23.485805893586239 -11.210284691856021 1 0 0 I I #
point $-1 47.881099887081518 23.485805893586239 -11.210284691856021 #
point $-1 47.881099887081518 -23.485805893586239 -11.210284691856021 #
straight-curve $-1 -47.881099887081518 0 11.210284691856021 0 -1 0 I I #
point $-1 -47.881099887081518 23.485805893586239 11.210284691856021 #
point $-1 -47.881099887081518 -23.485805893586239 11.210284691856021 #
straight-curve $-1 47.881099887081518 -23.485805893586239 0 0 0 -1 I I #
straight-curve $-1 47.881099887081518 23.485805893586239 0 0 0 -1 I I #
loop $-1 $-1 $425 $306 #
plane-surface $-1 -47.881099887081518 0 0 1 0 0 0 0 -1 forward_v I I I I #
coedge $-1 $310 $309 $431 $485 forward $121 $-1 #
edge $-1 $314 11.156675465670446 $434 23.485805893586239 $313 $486 forward 7 unknown #
coedge $-1 $428 $425 $310 $422 reversed $417 $-1 #
edge $-1 $487 -23.485805893586239 $423 -11.156675465670446 $421 $488 forward 7 unknown #
vertex $-1 $426 $489 #
straight-curve $-1 0 -11.156675465670446 -11.210284691856021 1 0 0 I I #
coedge $-1 $421 $316 $312 $426 forward $417 $-1 #
edge $-1 $318 2.8144085657780629 $423 6.5353869393113264 $425 $490 forward 7 unknown #
point $-1 47.881099887081518 -11.156675465670446 -11.210284691856021 #
coedge $-1 $316 $421 $320 $432 reversed $417 $-1 #
straight-curve $-1 -47.881099887081518 -8.6606203398141712 -7.4893063183227575 0 1 0 I I #
point $-1 -47.881099887081518 -11.156675465670446 -7.4893063183227575 #
coedge $-1 $321 $320 $419 $485 reversed $307 $-1 #
edge $-1 $322 7.4893063183227575 $487 11.210284691856021 $428 $491 forward 7 unknown #
point $-1 -47.881099887081518 -23.485805893586239 -7.4893063183227575 #
vertex $-1 $324 $492 #
straight-curve $-1 47.881099887081518 -23.485805893586239 0 0 0 -1 I I #
plane-surface $-1 47.881099887081518 0 0 -1 0 0 0 0 1 forward_v I I I I #
coedge $-1 $330 $336 $331 $439 forward $216 $-1 #
coedge $-1 $332 $331 $493 $494 reversed $129 $-1 #
edge $-1 $495 -11.210284691856021 $342 -5.2407490775392098 $331 $496 forward 7 unknown #
coedge $-1 $493 $334 $344 $449 forward $328 $-1 #
coedge $-1 $334 $493 $336 $444 forward $328 $-1 #
vertex $-1 $449 $497 #
straight-curve $-1 0 13.079813882844881 11.210284691856021 1 0 0 I I #
edge $-1 $495 -23.485805893586239 $338 -13.079813882844881 $336 $498 forward 7 unknown #
point $-1 -47.881099887081518 13.079813882844881 5.2407490775392098 #
point $-1 -47.881099887081518 13.079813882844881 11.210284691856021 #
straight-curve $-1 -47.881099887081518 9.14140494410778 5.2407490775392098 0 -1 0 I I #
point $-1 -47.881099887081518 23.485805893586239 5.2407490775392098 #
edge $-1 $442 13.079813882844881 $450 23.485805893586239 $344 $499 forward 7 unknown #
vertex $-1 $449 $500 #
straight-curve $-1 47.881099887081518 23.485805893586239 0 0 0 -1 I I #
straight-curve $-1 47.881099887081518 13.079813882844881 4.1127584423488077 0 0 -1 I I #
edge $-1 $454 16.690495868194784 $457 24.255050335541263 $350 $501 forward 7 unknown #
vertex $-1 $364 $502 #
straight-curve $-1 -64.097019562946784 4.4153503299862322 11.210284691856021 -1 0 0 I I #
edge $-1 $457 -3.9324287664516451 $361 2.9665856393824708 $360 $503 forward 7 unknown #
vertex $-1 $456 $504 #
straight-curve $-1 -47.881099887081504 4.4153503299862322 3.6457302245095633 0.54463902268945019 0 0.83867057594974714 I I #
point $-1 -42.968620934888534 4.4153503299862322 11.210284691856021 #
point $-1 -47.881099887081518 -2.4836640758478836 3.6457302245095415 #
straight-curve $-1 -47.881099887081518 0 11.210284691856021 0 -1 0 I I #
vertex $-1 $367 $505 #
point $-1 -43.569683601347144 -1.103861194681059 6.8194232307710845 #
vertex $-1 $371 $506 #
point $-1 -43.569683601347144 0.96584312706917785 6.8194232307710845 #
vertex $-1 $375 $507 #
point $-1 -43.569683601347144 3.0355474488194147 6.8194232307710845 #
coedge $-1 $469 $386 $389 $474 forward $379 $-1 #
coedge $-1 $381 $468 $383 $471 reversed $379 $-1 #
straight-curve $-1 47.881099887081518 6.0769656015936491 69.652946270718317 0 0 -1 I I #
edge $-1 $384 6.0769656015936491 $477 13.079813882844881 $469 $508 forward 7 unknown #
point $-1 47.881099887081518 6.0769656015936491 11.210284691856021 #
straight-curve $-1 47.881099887081518 4.7891948711096326 3.9601901167267428 0 1 0 I I #
edge $-1 $390 -65.692756153991581 $477 -58.4426615788623 $468 $509 forward 7 unknown #
point $-1 47.881099887081518 13.079813882844881 3.9601901167267357 #
point $-1 47.881099887081518 6.0769656015936491 3.9601901167267357 #
vertex $-1 $394 $510 #
straight-curve $-1 0 13.079813882844881 11.210284691856021 -1 0 0 I I #
vertex $-1 $397 $511 #
point $-1 42.89519511916783 9.5783897422192652 4.7207630236286731 #
straight-curve $-1 -47.881099887081518 23.485805893586239 0 0 0 -1 I I #
point $-1 -47.881099887081518 -23.485805893586239 -11.210284691856021 #
straight-curve $-1 -47.881099887081518 0 -11.210284691856021 0 1 0 I I #
point $-1 -47.881099887081518 23.485805893586239 -11.210284691856021 #
edge $-1 $434 -47.881099887081518 $487 47.881099887081518 $431 $512 forward 7 unknown #
straight-curve $-1 47.881099887081518 0 -11.210284691856021 0 -1 0 I I #
vertex $-1 $422 $513 #
straight-curve $-1 -47.881099887081518 0 -11.210284691856021 0 1 0 I I #
point $-1 -47.881099887081518 -11.156675465670446 -11.210284691856021 #
straight-curve $-1 -47.881099887081518 -11.156675465670446 -4.6748977525446946 0 0 -1 I I #
straight-curve $-1 -47.881099887081518 -23.485805893586239 0 0 0 -1 I I #
point $-1 47.881099887081518 -23.485805893586239 -11.210284691856021 #
coedge $-1 $441 $440 $438 $494 forward $328 $-1 #
edge $-1 $450 -47.881099887081518 $495 47.881099887081518 $438 $514 forward 7 unknown #
vertex $-1 $494 $515 #
straight-curve $-1 -47.881099887081518 23.485805893586239 0 0 0 -1 I I #
point $-1 47.881099887081518 13.079813882844881 11.210284691856021 #
straight-curve $-1 -47.881099887081518 0 11.210284691856021 0 -1 0 I I #
straight-curve $-1 47.881099887081518 0 11.210284691856021 0 1 0 I I #
point $-1 47.881099887081518 23.485805893586239 11.210284691856021 #
straight-curve $-1 -47.881099887081518 4.4153503299862322 27.900780560050805 0 0 -1 I I #
point $-1 -47.881099887081518 4.4153503299862322 11.210284691856021 #
straight-curve $-1 -47.881099887081518 0.48292156353458715 3.6457302245095433 0 -1 0 I I #
point $-1 -47.881099887081518 4.4153503299862322 3.6457302245095415 #
point $-1 -43.422667824716996 -1.103861194681059 6.1277684314514866 #
point $-1 -43.422667824716996 0.96584312706917785 6.1277684314514866 #
point $-1 -43.422667824716996 3.0355474488194147 6.1277684314514866 #
straight-curve $-1 47.881099887081518 0 11.210284691856021 0 1 0 I I #
straight-curve $-1 47.881099887081518 13.079813882844881 69.652946270718317 0 0 1 I I #
point $-1 47.881099887081518 13.079813882844881 11.210284691856021 #
point $-1 41.481843058084259 9.5783897422192652 4.7701183823126572 #
straight-curve $-1 0 -23.485805893586239 -11.210284691856021 -1 0 0 I I #
point $-1 -47.881099887081518 -23.485805893586239 -11.210284691856021 #
straight-curve $-1 0 23.485805893586239 11.210284691856021 -1 0 0 I I #
point $-1 -47.881099887081518 23.485805893586239 11.210284691856021 #
End-of-ACIS-data 