500 0 7 0           
7 Unknown 11 ACIS 5.0 NT 24 Fri Mar 26 01:06:58 1999 
-1 9.9999999999999995e-007 1e-010 
body $-1 $7 $-1 $8 #
body $-1 $9 $-1 $10 #
body $-1 $11 $-1 $12 #
body $-1 $13 $-1 $14 #
body $-1 $15 $-1 $16 #
body $-1 $17 $-1 $18 #
body $-1 $19 $-1 $20 #
lump $-1 $-1 $21 $0 #
transform $-1 1 0 0 0 1 0 0 0 1 40.726340525528734 18.268995905897295 7.4200546895850747 1 rotate no_reflect no_shear #
lump $-1 $-1 $22 $1 #
transform $-1 1 0 0 0 1 0 0 0 1 40.726340525528734 18.268995905897295 7.4200546895850747 1 rotate no_reflect no_shear #
lump $-1 $-1 $23 $2 #
transform $-1 1 0 0 0 1 0 0 0 1 40.726340525528734 18.268995905897295 7.4200546895850747 1 rotate no_reflect no_shear #
lump $-1 $-1 $24 $3 #
transform $-1 1 0 0 0 1 0 0 0 1 40.726340525528734 18.268995905897295 7.4200546895850747 1 rotate no_reflect no_shear #
lump $-1 $-1 $25 $4 #
transform $-1 1 0 0 0 1 0 0 0 1 40.726340525528734 18.268995905897295 7.4200546895850747 1 rotate no_reflect no_shear #
lump $-1 $-1 $26 $5 #
transform $-1 1 0 0 0 1 0 0 0 1 40.726340525528734 18.268995905897295 7.4200546895850747 1 rotate no_reflect no_shear #
lump $-1 $-1 $27 $6 #
transform $-1 1 0 0 0 1 0 0 0 1 40.726340525528734 18.268995905897295 7.4200546895850747 1 rotate no_reflect no_shear #
shell $-1 $-1 $-1 $28 $-1 $7 #
shell $-1 $-1 $-1 $29 $-1 $9 #
shell $-1 $-1 $-1 $30 $-1 $11 #
shell $-1 $-1 $-1 $31 $-1 $13 #
shell $-1 $-1 $-1 $32 $-1 $15 #
shell $-1 $-1 $-1 $33 $-1 $17 #
shell $-1 $-1 $-1 $34 $-1 $19 #
face $-1 $35 $36 $21 $-1 $37 forward single #
face $-1 $38 $39 $22 $-1 $40 reversed single #
face $-1 $41 $42 $23 $-1 $43 reversed single #
face $-1 $44 $45 $24 $-1 $46 forward single #
face $-1 $47 $48 $25 $-1 $49 forward single #
face $-1 $50 $51 $26 $-1 $52 reversed single #
face $-1 $53 $54 $27 $-1 $55 forward single #
face $-1 $56 $57 $21 $-1 $58 reversed single #
loop $-1 $-1 $59 $28 #
plane-surface $-1 0 0 7.4200546895850747 0 0 1 1 0 0 forward_v I I I I #
face $-1 $60 $61 $22 $-1 $62 reversed single #
loop $-1 $-1 $63 $29 #
plane-surface $-1 -38.541401968950481 -9.7665738283304897 0 0 -1 0 0 0 -1 forward_v I I I I #
face $-1 $64 $65 $23 $-1 $66 reversed single #
loop $-1 $-1 $67 $30 #
plane-surface $-1 -104.02696332824496 4.5232729638422207 53.183952870698455 0 1 0 -0.77714596973225614 0 0.62932038083071107 forward_v I I I I #
face $-1 $68 $69 $24 $-1 $70 forward single #
loop $-1 $71 $72 $31 #
cone-surface $-1 -38.112507768717677 6.6323988053144376 4.3574274603594443 0.77714596973225614 0 -0.62932038083071107 0.31466019041535553 0 0.38857298486612807 1 I I 0 1 0.5 forward I I I I #
face $-1 $73 $74 $25 $-1 $75 forward single #
loop $-1 $76 $77 $32 #
cone-surface $-1 -38.112507768717677 9.7960875675227612 4.3574274603594443 0.77714596973225614 0 -0.62932038083071107 0.31466019041535553 0 0.38857298486612807 1 I I 0 1 0.5 forward I I I I #
face $-1 $78 $79 $26 $-1 $80 reversed single #
loop $-1 $-1 $81 $33 #
plane-surface $-1 70.540092717866486 8.3403744857999449 112.56073401038432 0 -1 0 -0.86602541151947299 0 -0.49999998660252726 forward_v I I I I #
face $-1 $82 $83 $27 $-1 $84 forward single #
loop $-1 $85 $86 $34 #
cone-surface $-1 36.613182357343106 4.9240045992293524 3.0034044791620231 -0.86602541151947299 0 -0.49999998660252726 0.74999997990379086 0 -1.2990381172792094 1 I I 0 1 1.5 forward I I I I #
face $-1 $87 $88 $21 $-1 $89 reversed single #
loop $-1 $-1 $90 $35 #
plane-surface $-1 0 0 -7.4200546895850747 0 0 1 1 0 0 forward_v I I I I #
coedge $-1 $91 $92 $93 $94 forward $36 $-1 #
face $-1 $95 $96 $22 $-1 $97 forward single #
loop $-1 $-1 $98 $38 #
plane-surface $-1 -36.356463412372229 -14.017784867113892 0 -1 0 0 0 0 1 forward_v I I I I #
coedge $-1 $99 $100 $101 $102 forward $39 $-1 #
face $-1 $103 $104 $23 $-1 $105 reversed single #
loop $-1 $-1 $106 $41 #
plane-surface $-1 -40.726340525528741 8.2142431864185994 1.9241206119645256 -0.77714596973225614 0 0.62932038083071107 0.62932038083071107 0 0.77714596973225614 forward_v I I I I #
coedge $-1 $107 $108 $109 $110 reversed $42 $-1 #
face $-1 $-1 $111 $24 $-1 $112 forward single #
loop $-1 $113 $114 $44 #
cone-surface $-1 -37.529648291418482 6.6323988053144376 3.8854371747364107 0.77714596973225614 0 -0.62932038083071107 0.15733009520767777 0 0.19428649243306403 1 I I -0.70710678118654746 0.70710678118654746 0.25 forward I I I I #
loop $-1 $-1 $115 $31 #
coedge $-1 $72 $72 $116 $117 reversed $45 $-1 #
face $-1 $-1 $118 $25 $-1 $119 forward single #
loop $-1 $120 $121 $47 #
cone-surface $-1 -37.529648291418482 9.7960875675227612 3.8854371747364107 0.77714596973225614 0 -0.62932038083071107 0.15733009520767777 0 0.19428649243306403 1 I I -0.70710678118654746 0.70710678118654746 0.25 forward I I I I #
loop $-1 $-1 $122 $32 #
coedge $-1 $77 $77 $123 $124 reversed $48 $-1 #
face $-1 $125 $126 $26 $-1 $127 reversed single #
loop $-1 $-1 $128 $50 #
plane-surface $-1 1.091260060093191e-006 4.9240045992293524 71.83439457611567 0.86602541151947299 0 0.49999998660252726 0.49999998660252726 0 -0.86602541151947299 forward_v I I I I #
coedge $-1 $129 $130 $131 $132 reversed $51 $-1 #
face $-1 $-1 $133 $27 $-1 $134 forward single #
loop $-1 $135 $136 $53 #
cone-surface $-1 33.618857275401474 4.9240045992293524 1.2746301488249943 -0.86602541151947299 0 -0.49999998660252726 0.37499998995189543 0 -0.64951905863960469 1 I I -0.70710678118654757 0.70710678118654757 0.75 forward I I I I #
loop $-1 $-1 $137 $34 #
coedge $-1 $86 $86 $138 $139 reversed $54 $-1 #
face $-1 $140 $141 $21 $-1 $142 reversed single #
loop $-1 $-1 $143 $56 #
plane-surface $-1 0 -18.268995905897295 0 0 1 0 0 0 1 forward_v I I I I #
coedge $-1 $144 $145 $146 $147 forward $57 $-1 #
coedge $-1 $148 $59 $149 $150 forward $36 $-1 #
coedge $-1 $59 $148 $151 $152 forward $36 $-1 #
coedge $-1 $153 $154 $59 $94 reversed $155 $-1 #
edge $-1 $156 -18.268995905897295 $157 18.268995905897295 $93 $158 forward 7 unknown #
face $-1 $159 $160 $22 $-1 $161 reversed single #
loop $-1 $-1 $162 $60 #
plane-surface $-1 0 0 7.4200546895850747 0 0 1 1 0 0 forward_v I I I I #
coedge $-1 $163 $164 $165 $166 reversed $61 $-1 #
coedge $-1 $167 $63 $168 $169 reversed $39 $-1 #
coedge $-1 $63 $167 $170 $171 reversed $39 $-1 #
coedge $-1 $164 $163 $63 $102 reversed $61 $-1 #
edge $-1 $172 -7.4200546895850747 $173 7.4200546895850747 $101 $174 forward 7 unknown #
face $-1 $175 $176 $23 $-1 $177 reversed single #
loop $-1 $-1 $178 $64 #
plane-surface $-1 -104.02696332824496 11.905213408994978 53.183952870698455 0 -1 0 0.77714596973225614 0 -0.62932038083071107 forward_v I I I I #
coedge $-1 $179 $180 $181 $182 reversed $65 $-1 #
coedge $-1 $108 $67 $183 $184 reversed $42 $-1 #
coedge $-1 $67 $107 $179 $185 reversed $42 $-1 #
coedge $-1 $181 $186 $67 $110 forward $187 $-1 #
edge $-1 $188 11.287141138593746 $189 15.737660682483607 $109 $190 forward 7 unknown #
loop $-1 $-1 $116 $68 #
plane-surface $-1 -40.726340525528741 8.2142431864185994 1.9241206119645256 -0.77714596973225614 0 0.62932038083071107 0.62932038083071107 0 0.77714596973225614 forward_v I I I I #
loop $-1 $-1 $191 $44 #
coedge $-1 $114 $114 $115 $192 reversed $69 $-1 #
coedge $-1 $115 $115 $114 $192 forward $71 $-1 #
coedge $-1 $116 $116 $72 $117 forward $111 $-1 #
edge $-1 $193 0 $193 6.2831853071796004 $116 $194 forward 7 unknown #
loop $-1 $-1 $123 $73 #
plane-surface $-1 -40.726340525528741 8.2142431864185994 1.9241206119645256 -0.77714596973225614 0 0.62932038083071107 0.62932038083071107 0 0.77714596973225614 forward_v I I I I #
loop $-1 $-1 $195 $47 #
coedge $-1 $121 $121 $122 $196 reversed $74 $-1 #
coedge $-1 $122 $122 $121 $196 forward $76 $-1 #
coedge $-1 $123 $123 $77 $124 forward $118 $-1 #
edge $-1 $197 0 $197 6.2831853071796004 $123 $198 forward 7 unknown #
face $-1 $199 $200 $26 $-1 $201 forward single #
loop $-1 $-1 $202 $78 #
plane-surface $-1 70.540092717866486 1.5076347126587599 112.56073401038432 0 1 0 0.86602541151947299 0 0.49999998660252726 forward_v I I I I #
coedge $-1 $203 $204 $205 $206 reversed $79 $-1 #
coedge $-1 $130 $81 $207 $208 reversed $51 $-1 #
coedge $-1 $81 $129 $203 $209 reversed $51 $-1 #
coedge $-1 $205 $210 $81 $132 forward $200 $-1 #
edge $-1 $211 -5.4562941665954909 $212 -1.9195898768282831 $131 $213 forward 7 unknown #
loop $-1 $-1 $138 $82 #
plane-surface $-1 1.091260060093191e-006 4.9240045992293524 71.83439457611567 0.86602541151947299 0 0.49999998660252726 0.49999998660252726 0 -0.86602541151947299 forward_v I I I I #
loop $-1 $-1 $214 $53 #
coedge $-1 $136 $136 $137 $215 reversed $83 $-1 #
coedge $-1 $137 $137 $136 $215 forward $85 $-1 #
coedge $-1 $138 $138 $86 $139 forward $133 $-1 #
edge $-1 $216 0 $216 6.2831853071796004 $138 $217 forward 7 unknown #
face $-1 $218 $219 $21 $-1 $220 reversed single #
loop $-1 $-1 $221 $87 #
plane-surface $-1 -40.726340525528734 0 0 1 0 0 0 0 -1 forward_v I I I I #
coedge $-1 $222 $151 $223 $224 forward $88 $-1 #
coedge $-1 $225 $90 $222 $226 forward $57 $-1 #
coedge $-1 $90 $225 $227 $228 forward $57 $-1 #
coedge $-1 $154 $153 $90 $147 reversed $155 $-1 #
edge $-1 $229 -18.268995905897295 $230 18.268995905897295 $146 $231 forward 7 unknown #
coedge $-1 $92 $91 $232 $233 forward $36 $-1 #
coedge $-1 $234 $235 $91 $150 reversed $219 $-1 #
edge $-1 $157 -40.726340525528734 $236 40.726340525528734 $149 $237 forward 7 unknown #
coedge $-1 $143 $238 $92 $152 reversed $88 $-1 #
edge $-1 $239 -40.726340525528734 $156 40.726340525528734 $151 $240 forward 7 unknown #
coedge $-1 $146 $93 $238 $241 forward $155 $-1 #
coedge $-1 $93 $146 $234 $242 reversed $155 $-1 #
loop $-1 $-1 $153 $218 #
vertex $-1 $94 $243 #
vertex $-1 $94 $244 #
straight-curve $-1 40.726340525528734 0 7.4200546895850747 0 1 0 I I #
face $-1 $245 $246 $22 $-1 $247 reversed single #
loop $-1 $-1 $248 $95 #
plane-surface $-1 -40.726340525528734 0 0 1 0 0 0 0 -1 forward_v I I I I #
coedge $-1 $170 $249 $164 $250 forward $96 $-1 #
coedge $-1 $101 $98 $251 $252 reversed $61 $-1 #
coedge $-1 $98 $101 $162 $250 reversed $61 $-1 #
coedge $-1 $253 $254 $98 $166 forward $255 $-1 #
edge $-1 $256 -7.4200546895850747 $257 7.4200546895850747 $165 $258 forward 7 unknown #
coedge $-1 $100 $99 $248 $259 reversed $39 $-1 #
coedge $-1 $251 $260 $99 $169 forward $246 $-1 #
edge $-1 $261 -21.455639541053493 $173 -17.085762427896988 $168 $262 forward 7 unknown #
coedge $-1 $263 $162 $100 $171 forward $96 $-1 #
edge $-1 $172 17.085762427896988 $264 21.455639541053493 $170 $265 forward 7 unknown #
vertex $-1 $171 $266 #
vertex $-1 $169 $267 #
straight-curve $-1 -36.356463412372229 -9.7665738283304897 0 0 0 -1 I I #
face $-1 $-1 $187 $23 $-1 $268 forward single #
loop $-1 $-1 $269 $103 #
plane-surface $-1 -40.726340525528734 0 0 1 0 0 0 0 -1 forward_v I I I I #
coedge $-1 $270 $271 $272 $273 reversed $104 $-1 #
coedge $-1 $274 $106 $108 $185 forward $65 $-1 #
coedge $-1 $106 $274 $270 $275 forward $65 $-1 #
coedge $-1 $272 $109 $106 $182 forward $187 $-1 #
edge $-1 $189 0.41615137063292096 $276 7.7980918157856784 $181 $277 forward 7 unknown #
coedge $-1 $278 $279 $107 $184 forward $176 $-1 #
edge $-1 $280 -24.667855823384691 $188 -19.171921745764152 $183 $281 forward 7 unknown #
edge $-1 $189 -7.0719456725922685 $280 -1.1374033043381581e-014 $108 $282 forward 7 unknown #
coedge $-1 $109 $272 $278 $283 forward $187 $-1 #
loop $-1 $-1 $272 $175 #
vertex $-1 $184 $284 #
vertex $-1 $110 $285 #
straight-curve $-1 -52.01348166412248 4.5232729638422207 7.4200546895850756 1 0 0 I I #
coedge $-1 $191 $191 $-1 $286 reversed $113 $-1 #
edge $-1 $287 0 $287 6.2831853071796004 $114 $288 forward 7 unknown #
vertex $-1 $117 $289 #
ellipse-curve $-1 -38.501080753583807 6.6323988053144376 4.6720876507748024 -0.77714596973225614 0 0.62932038083071107 0.31466019041535553 0 0.38857298486612807 1 I I #
coedge $-1 $195 $195 $-1 $290 reversed $120 $-1 #
edge $-1 $291 0 $291 6.2831853071796004 $121 $292 forward 7 unknown #
vertex $-1 $124 $293 #
ellipse-curve $-1 -38.501080753583807 9.7960875675227612 4.6720876507748024 -0.77714596973225614 0 0.62932038083071107 0.31466019041535553 0 0.38857298486612807 1 I I #
face $-1 $-1 $294 $26 $-1 $295 reversed single #
loop $-1 $-1 $131 $125 #
plane-surface $-1 0 0 7.4200546895850747 0 0 1 1 0 0 forward_v I I I I #
coedge $-1 $296 $297 $298 $299 reversed $126 $-1 #
coedge $-1 $300 $128 $130 $209 forward $79 $-1 #
coedge $-1 $128 $300 $296 $301 forward $79 $-1 #
coedge $-1 $298 $131 $128 $206 forward $200 $-1 #
edge $-1 $212 -5.8783721861852687 $302 0.95436758695591628 $205 $303 forward 7 unknown #
coedge $-1 $304 $305 $129 $208 forward $294 $-1 #
edge $-1 $306 -54.986064055682945 $211 -48.860312315607089 $207 $307 forward 7 unknown #
edge $-1 $212 74.379272281991476 $306 81.452681051057496 $130 $308 forward 7 unknown #
coedge $-1 $131 $298 $304 $309 forward $200 $-1 #
vertex $-1 $132 $310 #
vertex $-1 $132 $311 #
straight-curve $-1 35.270046358933243 8.3403744857999449 7.4200546895850721 -1 0 0 I I #
coedge $-1 $214 $214 $-1 $312 reversed $135 $-1 #
edge $-1 $313 0 $313 6.2831853071796004 $136 $314 forward 7 unknown #
vertex $-1 $139 $315 #
ellipse-curve $-1 38.957988380645126 4.9240045992293524 4.3571788195471512 0.86602541151947299 0 0.49999998660252726 0.74999997990379086 0 -1.2990381172792094 1 I I #
face $-1 $-1 $155 $21 $-1 $316 reversed single #
loop $-1 $-1 $234 $140 #
plane-surface $-1 0 18.268995905897295 0 0 -1 0 0 0 -1 forward_v I I I I #
coedge $-1 $317 $232 $235 $318 forward $141 $-1 #
coedge $-1 $238 $143 $144 $226 reversed $88 $-1 #
coedge $-1 $232 $317 $143 $224 reversed $141 $-1 #
edge $-1 $239 -7.4200546895850747 $319 7.4200546895850747 $223 $320 forward 7 unknown #
coedge $-1 $145 $144 $317 $321 forward $57 $-1 #
edge $-1 $230 -40.726340525528734 $319 40.726340525528734 $222 $322 forward 7 unknown #
coedge $-1 $235 $234 $145 $228 reversed $219 $-1 #
edge $-1 $323 -40.726340525528734 $229 40.726340525528734 $227 $324 forward 7 unknown #
vertex $-1 $147 $325 #
vertex $-1 $241 $326 #
straight-curve $-1 40.726340525528734 0 -7.4200546895850747 0 -1 0 I I #
coedge $-1 $221 $223 $148 $233 reversed $141 $-1 #
edge $-1 $236 -18.268995905897295 $239 18.268995905897295 $232 $327 forward 7 unknown #
coedge $-1 $227 $149 $154 $242 forward $219 $-1 #
coedge $-1 $149 $227 $221 $318 reversed $219 $-1 #
vertex $-1 $150 $328 #
straight-curve $-1 0 18.268995905897295 7.4200546895850747 -1 0 0 I I #
coedge $-1 $151 $222 $153 $241 reversed $88 $-1 #
vertex $-1 $233 $329 #
straight-curve $-1 0 -18.268995905897295 7.4200546895850747 1 0 0 I I #
edge $-1 $156 -7.4200546895850747 $230 7.4200546895850747 $153 $330 forward 7 unknown #
edge $-1 $157 -7.4200546895850747 $229 7.4200546895850747 $154 $331 forward 7 unknown #
point $-1 40.726340525528734 -18.268995905897295 7.4200546895850747 #
point $-1 40.726340525528734 18.268995905897295 7.4200546895850747 #
face $-1 $-1 $255 $22 $-1 $332 reversed single #
loop $-1 $-1 $251 $159 #
plane-surface $-1 0 0 -7.4200546895850747 0 0 1 1 0 0 forward_v I I I I #
coedge $-1 $333 $334 $167 $259 forward $160 $-1 #
coedge $-1 $162 $263 $253 $335 forward $96 $-1 #
edge $-1 $257 -11.260103472340349 $172 -2.7576813947735435 $162 $336 forward 7 unknown #
coedge $-1 $337 $168 $163 $252 forward $246 $-1 #
edge $-1 $173 2.7576813947735435 $256 11.260103472340349 $251 $338 forward 7 unknown #
coedge $-1 $339 $165 $249 $335 reversed $255 $-1 #
coedge $-1 $165 $339 $337 $340 reversed $255 $-1 #
loop $-1 $-1 $165 $245 #
vertex $-1 $340 $341 #
vertex $-1 $166 $342 #
straight-curve $-1 -36.356463412372229 -18.268995905897295 0 0 0 1 I I #
edge $-1 $264 -7.4200546895850747 $261 7.4200546895850747 $248 $343 forward 7 unknown #
coedge $-1 $168 $337 $333 $344 forward $246 $-1 #
vertex $-1 $169 $345 #
straight-curve $-1 -19.270700984475241 -9.7665738283304897 -7.4200546895850747 1 0 0 I I #
coedge $-1 $249 $170 $334 $346 forward $96 $-1 #
vertex $-1 $346 $347 #
straight-curve $-1 -19.270700984475241 -9.7665738283304897 7.4200546895850747 -1 0 0 I I #
point $-1 -36.356463412372229 -9.7665738283304897 7.4200546895850747 #
point $-1 -36.356463412372229 -9.7665738283304897 -7.4200546895850747 #
plane-surface $-1 0 0 7.4200546895850747 0 0 1 1 0 0 forward_v I I I I #
coedge $-1 $279 $278 $271 $348 forward $176 $-1 #
coedge $-1 $271 $178 $180 $275 reversed $104 $-1 #
coedge $-1 $178 $270 $269 $348 reversed $104 $-1 #
coedge $-1 $186 $181 $178 $273 forward $187 $-1 #
edge $-1 $276 -15.737660682483607 $349 -11.287141138593746 $272 $350 forward 7 unknown #
coedge $-1 $180 $179 $279 $351 reversed $65 $-1 #
edge $-1 $352 1.1374033043381581e-014 $276 7.0719456725922685 $270 $353 forward 7 unknown #
vertex $-1 $182 $354 #
straight-curve $-1 -36.275820981638873 4.1071215932092997 7.4200546895850747 0 1 0 I I #
coedge $-1 $269 $183 $186 $283 reversed $176 $-1 #
coedge $-1 $183 $269 $274 $351 forward $176 $-1 #
vertex $-1 $184 $355 #
straight-curve $-1 -40.726340525528734 4.5232729638422207 26.591976435349228 0 0 1 I I #
straight-curve $-1 -40.726340525528741 4.5232729638422207 1.9241206119645256 -0.62932038083071107 0 -0.77714596973225614 I I #
edge $-1 $349 -11.905213408994978 $188 -4.5232729638422207 $278 $356 forward 7 unknown #
point $-1 -40.726340525528734 4.5232729638422207 7.4200546895850747 #
point $-1 -36.275820981638873 4.5232729638422207 7.4200546895850747 #
edge $-1 $357 1 $357 0 $191 $-1 forward 7 unknown #
vertex $-1 $192 $358 #
ellipse-curve $-1 -37.723934783851547 6.6323988053144376 4.0427672699440889 -0.77714596973225614 0 0.62932038083071107 0.31466019041535553 0 0.38857298486612807 1 I I #
point $-1 -38.186420563168447 6.6323988053144376 5.0606606356409278 #
edge $-1 $359 1 $359 0 $195 $-1 forward 7 unknown #
vertex $-1 $196 $360 #
ellipse-curve $-1 -37.723934783851547 9.7960875675227612 4.0427672699440889 -0.77714596973225614 0 0.62932038083071107 0.31466019041535553 0 0.38857298486612807 1 I I #
point $-1 -38.186420563168447 9.7960875675227612 5.0606606356409278 #
loop $-1 $-1 $207 $199 #
plane-surface $-1 40.726340525528734 0 0 -1 0 0 0 0 1 forward_v I I I I #
coedge $-1 $297 $202 $204 $301 reversed $126 $-1 #
coedge $-1 $202 $296 $361 $362 reversed $126 $-1 #
coedge $-1 $210 $205 $202 $299 forward $200 $-1 #
edge $-1 $302 1.9195898768282831 $363 5.4562941665954909 $298 $364 forward 7 unknown #
coedge $-1 $204 $203 $305 $365 reversed $79 $-1 #
edge $-1 $366 -81.452681051057496 $302 -74.379272281991476 $296 $367 forward 7 unknown #
vertex $-1 $206 $368 #
straight-curve $-1 37.189636235761526 2.4620022996146762 7.4200546895850721 0 -1 0 I I #
coedge $-1 $361 $207 $210 $309 reversed $294 $-1 #
coedge $-1 $207 $361 $300 $365 forward $294 $-1 #
vertex $-1 $208 $369 #
straight-curve $-1 40.726340525528734 8.3403744857999449 56.280367005192161 0 0 1 I I #
straight-curve $-1 1.091260060093191e-006 8.3403744857999449 71.83439457611567 0.49999998660252726 0 -0.86602541151947299 I I #
edge $-1 $363 1.5076347126587599 $211 8.3403744857999449 $304 $370 forward 7 unknown #
point $-1 40.726340525528734 8.3403744857999449 7.4200546895850747 #
point $-1 37.189636235761526 8.3403744857999449 7.4200546895850721 #
edge $-1 $371 1 $371 0 $214 $-1 forward 7 unknown #
vertex $-1 $215 $372 #
ellipse-curve $-1 34.268376334041079 4.9240045992293524 1.6496301387768897 0.86602541151947299 0 0.49999998660252726 0.74999997990379086 0 -1.2990381172792094 1 I I #
point $-1 39.707988360548924 4.9240045992293524 3.0581407022679472 #
plane-surface $-1 40.726340525528734 0 0 -1 0 0 0 0 1 forward_v I I I I #
coedge $-1 $223 $221 $225 $321 reversed $141 $-1 #
edge $-1 $236 -7.4200546895850747 $323 7.4200546895850747 $235 $373 forward 7 unknown #
vertex $-1 $321 $374 #
straight-curve $-1 -40.726340525528734 -18.268995905897295 0 0 0 -1 I I #
edge $-1 $319 -18.268995905897295 $323 18.268995905897295 $317 $375 forward 7 unknown #
straight-curve $-1 0 -18.268995905897295 -7.4200546895850747 -1 0 0 I I #
vertex $-1 $228 $376 #
straight-curve $-1 0 18.268995905897295 -7.4200546895850747 1 0 0 I I #
point $-1 40.726340525528734 18.268995905897295 -7.4200546895850747 #
point $-1 40.726340525528734 -18.268995905897295 -7.4200546895850747 #
straight-curve $-1 -40.726340525528734 0 7.4200546895850747 0 -1 0 I I #
point $-1 -40.726340525528734 18.268995905897295 7.4200546895850747 #
point $-1 -40.726340525528734 -18.268995905897295 7.4200546895850747 #
straight-curve $-1 40.726340525528734 -18.268995905897295 0 0 0 -1 I I #
straight-curve $-1 40.726340525528734 18.268995905897295 0 0 0 -1 I I #
plane-surface $-1 0 -18.268995905897295 0 0 1 0 0 0 1 forward_v I I I I #
coedge $-1 $377 $248 $260 $344 reversed $160 $-1 #
coedge $-1 $248 $377 $263 $346 reversed $160 $-1 #
edge $-1 $378 -40.726340525528734 $257 -36.356463412372229 $253 $379 forward 7 unknown #
straight-curve $-1 -36.356463412372229 -7.0088924335569462 7.4200546895850747 0 1 0 I I #
coedge $-1 $260 $251 $254 $340 forward $246 $-1 #
straight-curve $-1 -36.356463412372229 -7.0088924335569462 -7.4200546895850747 0 -1 0 I I #
coedge $-1 $254 $253 $377 $380 forward $255 $-1 #
edge $-1 $256 36.356463412372229 $381 40.726340525528734 $254 $382 forward 7 unknown #
point $-1 -36.356463412372229 -18.268995905897295 -7.4200546895850747 #
point $-1 -36.356463412372229 -18.268995905897295 7.4200546895850747 #
straight-curve $-1 -40.726340525528734 -9.7665738283304897 0 0 0 -1 I I #
edge $-1 $381 -18.268995905897295 $261 -9.7665738283304897 $333 $383 forward 7 unknown #
point $-1 -40.726340525528734 -9.7665738283304897 -7.4200546895850747 #
edge $-1 $264 9.7665738283304897 $378 18.268995905897295 $334 $384 forward 7 unknown #
point $-1 -40.726340525528734 -9.7665738283304897 7.4200546895850747 #
edge $-1 $349 19.171921745764152 $352 24.667855823384691 $269 $385 forward 7 unknown #
vertex $-1 $283 $386 #
straight-curve $-1 -52.01348166412248 11.905213408994978 7.4200546895850756 -1 0 0 I I #
edge $-1 $352 -7.7980918157856784 $280 -0.41615137063292096 $279 $387 forward 7 unknown #
vertex $-1 $351 $388 #
straight-curve $-1 -40.726340525528741 11.905213408994978 1.9241206119645256 0.62932038083071107 0 0.77714596973225614 I I #
point $-1 -36.275820981638873 11.905213408994978 7.4200546895850747 #
point $-1 -40.726340525528734 4.5232729638422207 1.9241206119645344 #
straight-curve $-1 -40.726340525528734 0 7.4200546895850747 0 -1 0 I I #
vertex $-1 $286 $389 #
point $-1 -37.409274593436187 6.6323988053144376 4.4313402548102161 #
vertex $-1 $290 $390 #
point $-1 -37.409274593436187 9.7960875675227612 4.4313402548102161 #
coedge $-1 $305 $304 $297 $362 forward $294 $-1 #
edge $-1 $363 48.860312315607089 $366 54.986064055682945 $361 $391 forward 7 unknown #
vertex $-1 $309 $392 #
straight-curve $-1 35.270046358933243 1.5076347126587599 7.4200546895850721 1 0 0 I I #
edge $-1 $366 -0.95436758695591628 $306 5.8783721861852687 $305 $393 forward 7 unknown #
vertex $-1 $365 $394 #
straight-curve $-1 1.091260060093191e-006 1.5076347126587599 71.83439457611567 -0.49999998660252726 0 0.86602541151947299 I I #
point $-1 37.189636235761526 1.5076347126587599 7.4200546895850721 #
point $-1 40.726340525528734 8.3403744857999449 1.2943029495092162 #
straight-curve $-1 40.726340525528734 0 7.4200546895850747 0 1 0 I I #
vertex $-1 $312 $395 #
point $-1 35.01837631394487 4.9240045992293524 0.35059202149768032 #
straight-curve $-1 -40.726340525528734 18.268995905897295 0 0 0 -1 I I #
point $-1 -40.726340525528734 -18.268995905897295 -7.4200546895850747 #
straight-curve $-1 -40.726340525528734 0 -7.4200546895850747 0 1 0 I I #
point $-1 -40.726340525528734 18.268995905897295 -7.4200546895850747 #
coedge $-1 $334 $333 $339 $380 reversed $160 $-1 #
vertex $-1 $346 $396 #
straight-curve $-1 0 -18.268995905897295 7.4200546895850747 1 0 0 I I #
edge $-1 $378 -7.4200546895850747 $381 7.4200546895850747 $377 $397 forward 7 unknown #
vertex $-1 $344 $398 #
straight-curve $-1 0 -18.268995905897295 -7.4200546895850747 -1 0 0 I I #
straight-curve $-1 -40.726340525528734 0 -7.4200546895850747 0 1 0 I I #
straight-curve $-1 -40.726340525528734 0 7.4200546895850747 0 -1 0 I I #
straight-curve $-1 -40.726340525528734 11.905213408994978 26.591976435349228 0 0 -1 I I #
point $-1 -40.726340525528734 11.905213408994978 7.4200546895850747 #
straight-curve $-1 -40.726340525528734 4.1071215932092997 1.9241206119645389 0 -1 0 I I #
point $-1 -40.726340525528734 11.905213408994978 1.9241206119645344 #
point $-1 -37.335361798985417 6.6323988053144376 3.728107079528733 #
point $-1 -37.335361798985417 9.7960875675227612 3.728107079528733 #
straight-curve $-1 40.726340525528734 1.5076347126587599 56.280367005192161 0 0 -1 I I #
point $-1 40.726340525528734 1.5076347126587599 7.4200546895850747 #
straight-curve $-1 40.726340525528734 2.4620022996146762 1.2943029495092233 0 1 0 I I #
point $-1 40.726340525528734 1.5076347126587599 1.2943029495092162 #
point $-1 32.969338216761869 4.9240045992293524 0.89963015887309883 #
point $-1 -40.726340525528734 -18.268995905897295 7.4200546895850747 #
straight-curve $-1 -40.726340525528734 -18.268995905897295 0 0 0 -1 I I #
point $-1 -40.726340525528734 -18.268995905897295 -7.4200546895850747 #
End-of-ACIS-data 