500 0 8 0           
7 Unknown 11 ACIS 5.0 NT 24 Fri Mar 26 20:33:23 1999 
-1 9.9999999999999995e-007 1e-010 
body $-1 $8 $-1 $9 #
body $-1 $10 $-1 $11 #
body $-1 $12 $-1 $13 #
body $-1 $14 $-1 $15 #
body $-1 $16 $-1 $17 #
body $-1 $18 $-1 $19 #
body $-1 $20 $-1 $21 #
body $-1 $22 $-1 $23 #
lump $-1 $-1 $24 $0 #
transform $-1 1 0 0 0 1 0 0 0 1 40.428479873043003 24.584419559627626 10.227739768513684 1 rotate no_reflect no_shear #
lump $-1 $-1 $25 $1 #
transform $-1 1 0 0 0 1 0 0 0 1 40.428479873043003 24.584419559627626 10.227739768513684 1 rotate no_reflect no_shear #
lump $-1 $-1 $26 $2 #
transform $-1 1 0 0 0 1 0 0 0 1 40.428479873043003 24.584419559627626 10.227739768513684 1 rotate no_reflect no_shear #
lump $-1 $-1 $27 $3 #
transform $-1 1 0 0 0 1 0 0 0 1 40.428479873043003 24.584419559627626 10.227739768513684 1 rotate no_reflect no_shear #
lump $-1 $-1 $28 $4 #
transform $-1 1 0 0 0 1 0 0 0 1 40.428479873043003 24.584419559627626 10.227739768513684 1 rotate no_reflect no_shear #
lump $-1 $-1 $29 $5 #
transform $-1 1 0 0 0 1 0 0 0 1 40.428479873043003 24.584419559627626 10.227739768513684 1 rotate no_reflect no_shear #
lump $-1 $-1 $30 $6 #
transform $-1 1 0 0 0 1 0 0 0 1 40.428479873043003 24.584419559627626 10.227739768513684 1 rotate no_reflect no_shear #
lump $-1 $-1 $31 $7 #
transform $-1 1 0 0 0 1 0 0 0 1 40.428479873043003 24.584419559627626 10.227739768513684 1 rotate no_reflect no_shear #
shell $-1 $-1 $-1 $32 $-1 $8 #
shell $-1 $-1 $-1 $33 $-1 $10 #
shell $-1 $-1 $-1 $34 $-1 $12 #
shell $-1 $-1 $-1 $35 $-1 $14 #
shell $-1 $-1 $-1 $36 $-1 $16 #
shell $-1 $-1 $-1 $37 $-1 $18 #
shell $-1 $-1 $-1 $38 $-1 $20 #
shell $-1 $-1 $-1 $39 $-1 $22 #
face $-1 $40 $41 $24 $-1 $42 forward single #
face $-1 $43 $44 $25 $-1 $45 reversed single #
face $-1 $46 $47 $26 $-1 $48 reversed single #
face $-1 $49 $50 $27 $-1 $51 reversed single #
face $-1 $52 $53 $28 $-1 $54 forward single #
face $-1 $55 $56 $29 $-1 $57 reversed single #
face $-1 $58 $59 $30 $-1 $60 forward single #
face $-1 $61 $62 $31 $-1 $63 forward single #
face $-1 $64 $65 $24 $-1 $66 reversed single #
loop $-1 $-1 $67 $32 #
plane-surface $-1 0 0 10.227739768513684 0 0 1 1 0 0 forward_v I I I I #
face $-1 $68 $69 $25 $-1 $70 reversed single #
loop $-1 $-1 $71 $33 #
plane-surface $-1 0 -20.379253780143436 5.4676129025269491 0 0 1 1 0 0 forward_v I I I I #
face $-1 $72 $73 $26 $-1 $74 reversed single #
loop $-1 $-1 $75 $34 #
plane-surface $-1 0 18.966029665152057 7.2277397685136844 0 0 1 1 0 0 forward_v I I I I #
face $-1 $76 $77 $27 $-1 $78 reversed single #
loop $-1 $-1 $79 $35 #
plane-surface $-1 -98.592109818956587 6.1542781739924983 62.780946949212208 0 1 0 -0.71933980857756763 0 0.69465836192734942 forward_v I I I I #
face $-1 $80 $81 $28 $-1 $82 forward single #
loop $-1 $83 $84 $36 #
cone-surface $-1 -37.932305564690481 9.7509589723344945 7.695313282276917 0.71933980857756763 0 -0.69465836192734942 0.69465836192734942 0 0.71933980857756763 1 I I 0 1 1 forward I I I I #
face $-1 $85 $86 $29 $-1 $87 reversed single #
loop $-1 $-1 $88 $37 #
plane-surface $-1 -1.2159319633321957 -11.982862232678499 75.498736481012998 0.85716730853699208 0 0.51503806187062418 0.51503806187062418 0 -0.85716730853699208 forward_v I I I I #
face $-1 $89 $90 $30 $-1 $91 forward single #
loop $-1 $92 $93 $38 #
cone-surface $-1 38.60279499274823 -13.779101847527389 7.8410209953761791 -0.85716730853699208 0 -0.51503806187062418 0.25751903093531209 0 -0.42858365426849604 1 I I 0 1 0.5 forward I I I I #
face $-1 $94 $95 $31 $-1 $96 forward single #
loop $-1 $97 $98 $39 #
cone-surface $-1 38.60279499274823 -10.186622617829606 7.8410209953761791 -0.85716730853699208 0 -0.51503806187062418 0.25751903093531209 0 -0.42858365426849604 1 I I 0 1 0.5 forward I I I I #
face $-1 $99 $100 $24 $-1 $101 reversed single #
loop $-1 $-1 $102 $40 #
plane-surface $-1 0 0 -10.227739768513684 0 0 1 1 0 0 forward_v I I I I #
coedge $-1 $103 $104 $105 $106 forward $41 $-1 #
face $-1 $107 $108 $25 $-1 $109 reversed single #
loop $-1 $-1 $110 $43 #
plane-surface $-1 0 -16.174088000659246 7.8476763355203172 0 -1 0 0 0 -1 forward_v I I I I #
coedge $-1 $111 $112 $113 $114 reversed $44 $-1 #
face $-1 $115 $116 $26 $-1 $117 forward single #
loop $-1 $-1 $118 $46 #
plane-surface $-1 0 13.347639770676487 8.7277397685136844 0 1 0 0 0 1 forward_v I I I I #
coedge $-1 $119 $120 $121 $122 reversed $47 $-1 #
face $-1 $123 $124 $27 $-1 $125 forward single #
loop $-1 $-1 $126 $49 #
plane-surface $-1 -40.428479873042988 9.7509589723344945 6.6129837415704742 -0.71933980857756763 0 0.69465836192734942 0.69465836192734942 0 0.71933980857756763 forward_v I I I I #
coedge $-1 $127 $128 $129 $130 reversed $50 $-1 #
face $-1 $-1 $131 $28 $-1 $132 forward single #
loop $-1 $133 $134 $52 #
cone-surface $-1 -36.821825970065163 9.7509589723344945 6.6229356285480723 0.71933980857756763 0 -0.69465836192734942 0.34732918096367471 0 0.35966990428878381 1 I I -0.70710678118654746 0.70710678118654746 0.5 forward I I I I #
loop $-1 $-1 $135 $36 #
coedge $-1 $84 $84 $136 $137 reversed $53 $-1 #
face $-1 $138 $139 $29 $-1 $140 forward single #
loop $-1 $-1 $141 $55 #
plane-surface $-1 68.092010598704249 -7.7916364646977536 117.14314831738821 0 -1 0 -0.85716730853699208 0 -0.51503806187062418 forward_v I I I I #
coedge $-1 $142 $143 $144 $145 reversed $56 $-1 #
face $-1 $-1 $146 $30 $-1 $147 forward single #
loop $-1 $148 $149 $58 #
cone-surface $-1 37.775639134594826 -13.779101847527389 7.3440156315395857 -0.85716730853699208 0 -0.51503806187062418 0.12875951546765604 0 -0.21429182713424802 1 I I -0.70710678118654746 0.70710678118654746 0.25 forward I I I I #
loop $-1 $-1 $150 $38 #
coedge $-1 $93 $93 $151 $152 reversed $59 $-1 #
face $-1 $-1 $153 $31 $-1 $154 forward single #
loop $-1 $155 $156 $61 #
cone-surface $-1 37.775639134594826 -10.186622617829606 7.3440156315395857 -0.85716730853699208 0 -0.51503806187062418 0.12875951546765604 0 -0.21429182713424802 1 I I -0.70710678118654746 0.70710678118654746 0.25 forward I I I I #
loop $-1 $-1 $157 $39 #
coedge $-1 $98 $98 $158 $159 reversed $62 $-1 #
face $-1 $160 $161 $24 $-1 $162 reversed single #
loop $-1 $-1 $163 $64 #
plane-surface $-1 0 -24.584419559627626 0 0 1 0 0 0 1 forward_v I I I I #
coedge $-1 $164 $165 $166 $167 forward $65 $-1 #
coedge $-1 $168 $67 $169 $170 forward $41 $-1 #
coedge $-1 $67 $168 $171 $172 forward $41 $-1 #
coedge $-1 $173 $174 $67 $106 reversed $175 $-1 #
edge $-1 $176 -24.584419559627626 $177 24.584419559627626 $105 $178 forward 7 unknown #
face $-1 $179 $180 $25 $-1 $181 reversed single #
loop $-1 $-1 $182 $68 #
plane-surface $-1 -40.428479873043003 0 0 1 0 0 0 0 -1 forward_v I I I I #
coedge $-1 $183 $184 $185 $186 reversed $69 $-1 #
coedge $-1 $187 $71 $188 $189 reversed $44 $-1 #
coedge $-1 $71 $187 $183 $190 forward $44 $-1 #
coedge $-1 $185 $191 $71 $114 forward $192 $-1 #
edge $-1 $193 -14.394792669555908 $194 -5.9844611105875281 $113 $195 forward 7 unknown #
face $-1 $196 $197 $26 $-1 $198 reversed single #
loop $-1 $-1 $199 $72 #
plane-surface $-1 0 0 10.227739768513684 0 0 1 1 0 0 forward_v I I I I #
coedge $-1 $200 $201 $119 $202 reversed $73 $-1 #
coedge $-1 $203 $75 $118 $202 forward $47 $-1 #
coedge $-1 $75 $203 $204 $205 reversed $47 $-1 #
coedge $-1 $206 $207 $75 $122 forward $197 $-1 #
edge $-1 $208 3.8646249381004587 $209 15.101404727051598 $121 $210 forward 7 unknown #
face $-1 $211 $212 $27 $-1 $213 forward single #
loop $-1 $-1 $129 $76 #
plane-surface $-1 0 0 10.227739768513684 0 0 1 1 0 0 forward_v I I I I #
coedge $-1 $214 $215 $216 $217 reversed $77 $-1 #
coedge $-1 $128 $79 $218 $219 reversed $50 $-1 #
coedge $-1 $79 $127 $214 $220 reversed $50 $-1 #
coedge $-1 $216 $221 $79 $130 forward $124 $-1 #
edge $-1 $222 8.8675750364352908 $223 12.358304272467315 $129 $224 forward 7 unknown #
loop $-1 $-1 $136 $80 #
plane-surface $-1 -40.428479873042988 9.7509589723344945 6.6129837415704742 -0.71933980857756763 0 0.69465836192734942 0.69465836192734942 0 0.71933980857756763 forward_v I I I I #
loop $-1 $-1 $225 $52 #
coedge $-1 $134 $134 $135 $226 reversed $81 $-1 #
coedge $-1 $135 $135 $134 $226 forward $83 $-1 #
coedge $-1 $136 $136 $84 $137 forward $131 $-1 #
edge $-1 $227 0 $227 6.2831853071796004 $136 $228 forward 7 unknown #
face $-1 $229 $230 $29 $-1 $231 forward single #
loop $-1 $-1 $232 $85 #
plane-surface $-1 0 0 10.227739768513684 0 0 1 1 0 0 forward_v I I I I #
coedge $-1 $233 $234 $235 $236 reversed $86 $-1 #
coedge $-1 $237 $88 $238 $239 reversed $56 $-1 #
coedge $-1 $88 $237 $233 $240 forward $56 $-1 #
coedge $-1 $235 $241 $88 $145 forward $242 $-1 #
edge $-1 $243 -10.182656884319996 $244 -1.8002053483585039 $144 $245 forward 7 unknown #
loop $-1 $-1 $151 $89 #
plane-surface $-1 -1.2159319633321957 -11.982862232678499 75.498736481012998 0.85716730853699208 0 0.51503806187062418 0.51503806187062418 0 -0.85716730853699208 forward_v I I I I #
loop $-1 $-1 $246 $58 #
coedge $-1 $149 $149 $150 $247 reversed $90 $-1 #
coedge $-1 $150 $150 $149 $247 forward $92 $-1 #
coedge $-1 $151 $151 $93 $152 forward $146 $-1 #
edge $-1 $248 0 $248 6.2831853071796004 $151 $249 forward 7 unknown #
loop $-1 $-1 $158 $94 #
plane-surface $-1 -1.2159319633321957 -11.982862232678499 75.498736481012998 0.85716730853699208 0 0.51503806187062418 0.51503806187062418 0 -0.85716730853699208 forward_v I I I I #
loop $-1 $-1 $250 $61 #
coedge $-1 $156 $156 $157 $251 reversed $95 $-1 #
coedge $-1 $157 $157 $156 $251 forward $97 $-1 #
coedge $-1 $158 $158 $98 $159 forward $153 $-1 #
edge $-1 $252 0 $252 6.2831853071796004 $158 $253 forward 7 unknown #
face $-1 $254 $255 $24 $-1 $256 reversed single #
loop $-1 $-1 $257 $99 #
plane-surface $-1 -40.428479873043003 0 0 1 0 0 0 0 -1 forward_v I I I I #
coedge $-1 $258 $171 $259 $260 forward $100 $-1 #
coedge $-1 $261 $102 $258 $262 forward $65 $-1 #
coedge $-1 $102 $261 $263 $264 forward $65 $-1 #
coedge $-1 $174 $173 $102 $167 reversed $175 $-1 #
edge $-1 $265 -24.584419559627626 $266 24.584419559627626 $166 $267 forward 7 unknown #
coedge $-1 $104 $103 $268 $269 forward $41 $-1 #
coedge $-1 $270 $271 $103 $170 reversed $255 $-1 #
edge $-1 $177 -40.428479873043003 $272 40.428479873043003 $169 $273 forward 7 unknown #
coedge $-1 $163 $274 $104 $172 reversed $100 $-1 #
edge $-1 $275 -40.428479873043003 $176 40.428479873043003 $171 $276 forward 7 unknown #
coedge $-1 $166 $105 $274 $277 forward $175 $-1 #
coedge $-1 $105 $166 $270 $278 reversed $175 $-1 #
loop $-1 $-1 $173 $254 #
vertex $-1 $106 $279 #
vertex $-1 $106 $280 #
straight-curve $-1 40.428479873043003 0 10.227739768513684 0 1 0 I I #
face $-1 $281 $282 $25 $-1 $283 forward single #
loop $-1 $-1 $188 $107 #
plane-surface $-1 0 -24.584419559627626 0 0 1 0 0 0 1 forward_v I I I I #
coedge $-1 $284 $285 $286 $287 forward $108 $-1 #
coedge $-1 $286 $110 $112 $190 reversed $69 $-1 #
coedge $-1 $110 $286 $288 $289 reversed $69 $-1 #
coedge $-1 $290 $113 $110 $186 forward $192 $-1 #
edge $-1 $194 1.5437747347667905 $291 6.3039016007535276 $185 $292 forward 7 unknown #
coedge $-1 $112 $111 $284 $293 reversed $44 $-1 #
coedge $-1 $294 $295 $111 $189 forward $180 $-1 #
edge $-1 $296 -40.428479873043003 $193 40.428479873043003 $188 $297 forward 7 unknown #
edge $-1 $298 -40.428479873043003 $194 40.428479873043003 $183 $299 forward 7 unknown #
coedge $-1 $113 $290 $294 $300 forward $192 $-1 #
loop $-1 $-1 $185 $281 #
vertex $-1 $189 $301 #
vertex $-1 $114 $302 #
straight-curve $-1 40.428479873043003 -10.189626890071718 5.4676129025269491 0 1 0 I I #
face $-1 $303 $304 $26 $-1 $305 reversed single #
loop $-1 $-1 $207 $115 #
plane-surface $-1 40.428479873043003 0 0 -1 0 0 0 0 1 forward_v I I I I #
coedge $-1 $306 $307 $308 $309 forward $116 $-1 #
coedge $-1 $308 $118 $207 $310 reversed $73 $-1 #
coedge $-1 $118 $308 $311 $312 reversed $73 $-1 #
edge $-1 $208 -40.428479873043003 $313 40.428479873043003 $118 $314 forward 7 unknown #
coedge $-1 $120 $119 $315 $316 reversed $47 $-1 #
coedge $-1 $317 $318 $120 $205 forward $319 $-1 #
edge $-1 $209 -40.428479873043003 $320 40.428479873043003 $204 $321 forward 7 unknown #
coedge $-1 $322 $121 $318 $323 reversed $197 $-1 #
coedge $-1 $121 $322 $200 $310 forward $197 $-1 #
vertex $-1 $122 $324 #
vertex $-1 $205 $325 #
straight-curve $-1 40.428479873043003 9.4830148325760284 7.2277397685136844 0 1 0 I I #
face $-1 $-1 $326 $27 $-1 $327 reversed single #
loop $-1 $-1 $328 $123 #
plane-surface $-1 0 13.347639770676487 8.7277397685136844 0 1 0 0 0 1 forward_v I I I I #
coedge $-1 $329 $126 $128 $220 forward $77 $-1 #
coedge $-1 $126 $329 $328 $330 forward $77 $-1 #
coedge $-1 $331 $129 $126 $217 forward $124 $-1 #
edge $-1 $223 1.2787986878252511 $332 8.4721602845092399 $216 $333 forward 7 unknown #
coedge $-1 $334 $335 $127 $219 forward $326 $-1 #
edge $-1 $336 -24.777489733035644 $222 -21.162733706092418 $218 $337 forward 7 unknown #
edge $-1 $223 -5.0251021615098415 $336 2.0733024663016622e-014 $128 $338 forward 7 unknown #
coedge $-1 $129 $331 $334 $339 forward $124 $-1 #
vertex $-1 $219 $340 #
vertex $-1 $130 $341 #
straight-curve $-1 -49.296054909478293 6.1542781739924983 10.227739768513686 1 0 0 I I #
coedge $-1 $225 $225 $-1 $342 reversed $133 $-1 #
edge $-1 $343 0 $343 6.2831853071796004 $134 $344 forward 7 unknown #
vertex $-1 $137 $345 #
ellipse-curve $-1 -38.683115255026991 9.7509589723344945 8.4203617550420695 -0.71933980857756763 0 0.69465836192734942 0.69465836192734942 0 0.71933980857756763 1 I I #
face $-1 $-1 $242 $29 $-1 $346 reversed single #
loop $-1 $-1 $238 $138 #
plane-surface $-1 0 -16.174088000659246 7.8476763355203172 0 -1 0 0 0 -1 forward_v I I I I #
coedge $-1 $347 $348 $234 $349 forward $139 $-1 #
coedge $-1 $234 $141 $143 $240 reversed $86 $-1 #
coedge $-1 $141 $233 $232 $349 reversed $86 $-1 #
coedge $-1 $350 $144 $141 $236 forward $242 $-1 #
edge $-1 $244 -52.380780239717538 $351 -48.343834390180419 $235 $352 forward 7 unknown #
coedge $-1 $143 $142 $347 $353 reversed $56 $-1 #
coedge $-1 $354 $355 $142 $239 forward $230 $-1 #
edge $-1 $356 46.840059745140621 $243 51.549695552912333 $238 $357 forward 7 unknown #
edge $-1 $358 76.147323938314287 $244 80.856959746085991 $233 $359 forward 7 unknown #
coedge $-1 $144 $350 $354 $360 forward $242 $-1 #
loop $-1 $-1 $235 $229 #
vertex $-1 $239 $361 #
vertex $-1 $145 $362 #
straight-curve $-1 40.428479873043003 -5.9914311163392497 6.1907939189765742 0 1 0 I I #
coedge $-1 $246 $246 $-1 $363 reversed $148 $-1 #
edge $-1 $364 0 $364 6.2831853071796004 $149 $365 forward 7 unknown #
vertex $-1 $152 $366 #
ellipse-curve $-1 39.215659023767387 -13.779101847527389 8.2092668437451177 0.85716730853699208 0 0.51503806187062418 0.25751903093531209 0 -0.42858365426849604 1 I I #
coedge $-1 $250 $250 $-1 $367 reversed $155 $-1 #
edge $-1 $368 0 $368 6.2831853071796004 $156 $369 forward 7 unknown #
vertex $-1 $159 $370 #
ellipse-curve $-1 39.215659023767387 -10.186622617829606 8.2092668437451177 0.85716730853699208 0 0.51503806187062418 0.25751903093531209 0 -0.42858365426849604 1 I I #
face $-1 $-1 $175 $24 $-1 $371 reversed single #
loop $-1 $-1 $270 $160 #
plane-surface $-1 0 24.584419559627626 0 0 -1 0 0 0 -1 forward_v I I I I #
coedge $-1 $372 $268 $271 $373 forward $161 $-1 #
coedge $-1 $274 $163 $164 $262 reversed $100 $-1 #
coedge $-1 $268 $372 $163 $260 reversed $161 $-1 #
edge $-1 $275 -10.227739768513684 $374 10.227739768513684 $259 $375 forward 7 unknown #
coedge $-1 $165 $164 $372 $376 forward $65 $-1 #
edge $-1 $266 -40.428479873043003 $374 40.428479873043003 $258 $377 forward 7 unknown #
coedge $-1 $271 $270 $165 $264 reversed $255 $-1 #
edge $-1 $378 -40.428479873043003 $265 40.428479873043003 $263 $379 forward 7 unknown #
vertex $-1 $167 $380 #
vertex $-1 $277 $381 #
straight-curve $-1 40.428479873043003 0 -10.227739768513684 0 -1 0 I I #
coedge $-1 $257 $259 $168 $269 reversed $161 $-1 #
edge $-1 $272 -24.584419559627626 $275 24.584419559627626 $268 $382 forward 7 unknown #
coedge $-1 $263 $169 $174 $278 forward $255 $-1 #
coedge $-1 $169 $263 $257 $373 reversed $255 $-1 #
vertex $-1 $170 $383 #
straight-curve $-1 0 24.584419559627626 10.227739768513684 -1 0 0 I I #
coedge $-1 $171 $258 $173 $277 reversed $100 $-1 #
vertex $-1 $269 $384 #
straight-curve $-1 0 -24.584419559627626 10.227739768513684 1 0 0 I I #
edge $-1 $176 -10.227739768513684 $266 10.227739768513684 $173 $385 forward 7 unknown #
edge $-1 $177 -10.227739768513684 $265 10.227739768513684 $174 $386 forward 7 unknown #
point $-1 40.428479873043003 -24.584419559627626 10.227739768513684 #
point $-1 40.428479873043003 24.584419559627626 10.227739768513684 #
face $-1 $-1 $192 $25 $-1 $387 reversed single #
loop $-1 $-1 $288 $179 #
plane-surface $-1 0 0 10.227739768513684 0 0 1 1 0 0 forward_v I I I I #
coedge $-1 $388 $182 $187 $293 forward $108 $-1 #
coedge $-1 $182 $388 $389 $390 reversed $108 $-1 #
coedge $-1 $184 $183 $182 $287 reversed $69 $-1 #
edge $-1 $391 -6.3039016007535276 $298 -1.5437747347667905 $182 $392 forward 7 unknown #
coedge $-1 $389 $393 $184 $289 forward $282 $-1 #
edge $-1 $291 -40.428479873043003 $391 40.428479873043003 $288 $394 forward 7 unknown #
coedge $-1 $191 $185 $393 $395 reversed $192 $-1 #
vertex $-1 $186 $396 #
straight-curve $-1 40.428479873043003 -16.174088000659246 3.9238381677601586 0 0 1 I I #
edge $-1 $298 5.9844611105875281 $296 14.394792669555908 $284 $397 forward 7 unknown #
coedge $-1 $398 $188 $191 $300 reversed $180 $-1 #
coedge $-1 $188 $398 $388 $399 forward $180 $-1 #
vertex $-1 $189 $400 #
straight-curve $-1 0 -24.584419559627626 5.4676129025269491 1 0 0 I I #
vertex $-1 $293 $401 #
straight-curve $-1 0 -16.174088000659246 5.4676129025269491 1 0 0 I I #
edge $-1 $402 -10.227739768513684 $193 -5.4676129025269491 $191 $403 forward 7 unknown #
point $-1 40.428479873043003 -24.584419559627626 5.4676129025269491 #
point $-1 40.428479873043003 -16.174088000659246 5.4676129025269491 #
face $-1 $-1 $319 $26 $-1 $404 reversed single #
loop $-1 $-1 $311 $196 #
plane-surface $-1 -40.428479873043003 0 0 1 0 0 0 0 -1 forward_v I I I I #
coedge $-1 $405 $199 $322 $406 forward $116 $-1 #
coedge $-1 $199 $405 $407 $408 forward $116 $-1 #
coedge $-1 $201 $200 $199 $309 reversed $73 $-1 #
edge $-1 $409 -40.428479873043003 $410 40.428479873043003 $199 $411 forward 7 unknown #
edge $-1 $410 -5.8638698842568422 $208 -2.8638698842568422 $207 $412 forward 7 unknown #
coedge $-1 $407 $315 $201 $312 forward $304 $-1 #
edge $-1 $313 2.8638698842568422 $409 5.8638698842568422 $311 $413 forward 7 unknown #
vertex $-1 $316 $414 #
straight-curve $-1 0 13.347639770676487 7.2277397685136844 -1 0 0 I I #
coedge $-1 $311 $415 $203 $316 forward $304 $-1 #
edge $-1 $320 -15.101404727051598 $313 -3.8646249381004587 $315 $416 forward 7 unknown #
coedge $-1 $417 $204 $415 $418 reversed $319 $-1 #
coedge $-1 $204 $417 $206 $323 forward $319 $-1 #
loop $-1 $-1 $204 $303 #
vertex $-1 $205 $419 #
straight-curve $-1 0 24.584419559627626 7.2277397685136844 -1 0 0 I I #
coedge $-1 $207 $206 $306 $406 reversed $197 $-1 #
edge $-1 $420 -10.227739768513684 $209 -7.2277397685136844 $206 $421 forward 7 unknown #
point $-1 40.428479873043003 13.347639770676487 7.2277397685136844 #
point $-1 40.428479873043003 24.584419559627626 7.2277397685136844 #
loop $-1 $-1 $218 $211 #
plane-surface $-1 -40.428479873043003 0 0 1 0 0 0 0 -1 forward_v I I I I #
coedge $-1 $422 $423 $215 $330 reversed $212 $-1 #
coedge $-1 $215 $214 $335 $424 reversed $77 $-1 #
edge $-1 $425 -2.0733024663016622e-014 $332 5.0251021615098415 $328 $426 forward 7 unknown #
coedge $-1 $221 $216 $423 $427 forward $124 $-1 #
vertex $-1 $427 $428 #
straight-curve $-1 -36.937750637010978 4.8754794861672472 10.227739768513684 0 1 0 I I #
coedge $-1 $429 $218 $221 $339 reversed $326 $-1 #
coedge $-1 $218 $429 $329 $424 forward $326 $-1 #
vertex $-1 $219 $430 #
straight-curve $-1 -40.428479873043003 6.1542781739924983 31.390473474606104 0 0 1 I I #
straight-curve $-1 -40.428479873042988 6.1542781739924983 6.6129837415704742 -0.69465836192734942 0 -0.71933980857756763 I I #
edge $-1 $431 -13.347639770676487 $222 -6.1542781739924983 $334 $432 forward 7 unknown #
point $-1 -40.428479873043003 6.1542781739924983 10.227739768513684 #
point $-1 -36.937750637010978 6.1542781739924983 10.227739768513684 #
edge $-1 $433 1 $433 0 $225 $-1 forward 7 unknown #
vertex $-1 $226 $434 #
ellipse-curve $-1 -37.181495874353949 9.7509589723344945 6.9702648095117468 -0.71933980857756763 0 0.69465836192734942 0.69465836192734942 0 0.71933980857756763 1 I I #
point $-1 -37.988456893099659 9.7509589723344945 9.1397015636196546 #
plane-surface $-1 40.428479873043003 0 0 -1 0 0 0 0 1 forward_v I I I I #
coedge $-1 $435 $232 $237 $353 forward $139 $-1 #
coedge $-1 $232 $435 $350 $436 forward $139 $-1 #
edge $-1 $351 -6.3824745736908781 $358 -3.9568328751396464 $232 $437 forward 7 unknown #
coedge $-1 $241 $235 $348 $436 reversed $242 $-1 #
vertex $-1 $236 $438 #
straight-curve $-1 40.428479873043003 -7.7916364646977536 58.571574158694105 0 0 1 I I #
edge $-1 $358 1.8002053483585039 $356 10.182656884319996 $347 $439 forward 7 unknown #
coedge $-1 $355 $238 $241 $360 reversed $230 $-1 #
coedge $-1 $238 $354 $435 $440 reversed $230 $-1 #
vertex $-1 $440 $441 #
straight-curve $-1 13.878424585450302 -16.174088000659246 50.37750771196778 0.51503806187062429 0 -0.85716730853699219 I I #
vertex $-1 $353 $442 #
straight-curve $-1 -1.2159319633321957 -7.7916364646977536 75.498736481012998 0.51503806187062418 0 -0.85716730853699208 I I #
edge $-1 $443 -6.3039016007535276 $243 -2.2669557512164102 $241 $444 forward 7 unknown #
point $-1 40.428479873043003 -16.174088000659246 6.1907939189765688 #
point $-1 40.428479873043003 -7.7916364646977536 6.1907939189765671 #
edge $-1 $445 1 $445 0 $246 $-1 forward 7 unknown #
vertex $-1 $247 $446 #
ellipse-curve $-1 37.989930961729073 -13.779101847527389 7.4727751470072414 0.85716730853699208 0 0.51503806187062418 0.25751903093531209 0 -0.42858365426849604 1 I I #
point $-1 39.473178054702693 -13.779101847527389 7.7806831894766209 #
edge $-1 $447 1 $447 0 $250 $-1 forward 7 unknown #
vertex $-1 $251 $448 #
ellipse-curve $-1 37.989930961729073 -10.186622617829606 7.4727751470072414 0.85716730853699208 0 0.51503806187062418 0.25751903093531209 0 -0.42858365426849604 1 I I #
point $-1 39.473178054702693 -10.186622617829606 7.7806831894766209 #
plane-surface $-1 40.428479873043003 0 0 -1 0 0 0 0 1 forward_v I I I I #
coedge $-1 $259 $257 $261 $376 reversed $161 $-1 #
edge $-1 $272 -10.227739768513684 $378 10.227739768513684 $271 $449 forward 7 unknown #
vertex $-1 $376 $450 #
straight-curve $-1 -40.428479873043003 -24.584419559627626 0 0 0 -1 I I #
edge $-1 $374 -24.584419559627626 $378 24.584419559627626 $372 $451 forward 7 unknown #
straight-curve $-1 0 -24.584419559627626 -10.227739768513684 -1 0 0 I I #
vertex $-1 $264 $452 #
straight-curve $-1 0 24.584419559627626 -10.227739768513684 1 0 0 I I #
point $-1 40.428479873043003 24.584419559627626 -10.227739768513684 #
point $-1 40.428479873043003 -24.584419559627626 -10.227739768513684 #
straight-curve $-1 -40.428479873043003 0 10.227739768513684 0 -1 0 I I #
point $-1 -40.428479873043003 24.584419559627626 10.227739768513684 #
point $-1 -40.428479873043003 -24.584419559627626 10.227739768513684 #
straight-curve $-1 40.428479873043003 -24.584419559627626 0 0 0 -1 I I #
straight-curve $-1 40.428479873043003 24.584419559627626 0 0 0 -1 I I #
plane-surface $-1 40.428479873043003 0 0 -1 0 0 0 0 1 forward_v I I I I #
coedge $-1 $285 $284 $295 $399 reversed $108 $-1 #
coedge $-1 $453 $288 $285 $390 forward $282 $-1 #
edge $-1 $391 16.174088000659246 $454 24.584419559627626 $285 $455 forward 7 unknown #
vertex $-1 $390 $456 #
straight-curve $-1 -40.428479873043003 -16.174088000659246 3.9238381677601586 0 0 -1 I I #
coedge $-1 $288 $453 $290 $395 forward $282 $-1 #
straight-curve $-1 0 -16.174088000659246 10.227739768513684 -1 0 0 I I #
edge $-1 $402 -24.584419559627626 $291 -16.174088000659246 $290 $457 forward 7 unknown #
point $-1 40.428479873043003 -16.174088000659246 10.227739768513686 #
straight-curve $-1 -40.428479873043003 -10.189626890071718 5.4676129025269491 0 -1 0 I I #
coedge $-1 $295 $294 $453 $458 reversed $180 $-1 #
edge $-1 $454 -10.227739768513684 $296 -5.4676129025269491 $388 $459 forward 7 unknown #
point $-1 -40.428479873043003 -24.584419559627626 5.4676129025269491 #
point $-1 -40.428479873043003 -16.174088000659246 5.4676129025269491 #
vertex $-1 $395 $460 #
straight-curve $-1 40.428479873043003 -24.584419559627626 0 0 0 -1 I I #
plane-surface $-1 0 24.584419559627626 0 0 -1 0 0 0 -1 forward_v I I I I #
coedge $-1 $307 $306 $417 $461 forward $116 $-1 #
edge $-1 $410 13.347639770676487 $420 24.584419559627626 $322 $462 forward 7 unknown #
coedge $-1 $415 $311 $307 $408 reversed $304 $-1 #
edge $-1 $463 -24.584419559627626 $409 -13.347639770676487 $407 $464 forward 7 unknown #
vertex $-1 $312 $465 #
vertex $-1 $406 $466 #
straight-curve $-1 0 13.347639770676487 10.227739768513684 1 0 0 I I #
straight-curve $-1 40.428479873043003 13.347639770676487 4.3638698842568422 0 0 -1 I I #
straight-curve $-1 -40.428479873043003 13.347639770676487 4.3638698842568422 0 0 1 I I #
point $-1 -40.428479873043003 13.347639770676487 7.2277397685136844 #
coedge $-1 $315 $407 $317 $418 forward $304 $-1 #
straight-curve $-1 -40.428479873043003 9.4830148325760284 7.2277397685136844 0 -1 0 I I #
coedge $-1 $318 $317 $405 $461 reversed $319 $-1 #
edge $-1 $463 -10.227739768513684 $320 -7.2277397685136844 $317 $467 forward 7 unknown #
point $-1 -40.428479873043003 24.584419559627626 7.2277397685136844 #
vertex $-1 $406 $468 #
straight-curve $-1 40.428479873043003 24.584419559627626 0 0 0 -1 I I #
coedge $-1 $423 $328 $429 $469 reversed $212 $-1 #
coedge $-1 $328 $422 $331 $427 reversed $212 $-1 #
edge $-1 $425 -8.4721602845092434 $336 -1.2787986878252511 $335 $470 forward 7 unknown #
vertex $-1 $469 $471 #
straight-curve $-1 -40.428479873042988 13.347639770676491 6.6129837415704742 0.69465836192734942 0 0.71933980857756763 I I #
edge $-1 $332 36.937750637010978 $431 40.428479873043003 $331 $472 forward 7 unknown #
point $-1 -36.937750637010978 13.347639770676487 10.227739768513684 #
coedge $-1 $335 $334 $422 $469 forward $326 $-1 #
point $-1 -40.428479873043003 6.1542781739924983 6.6129837415704591 #
vertex $-1 $339 $473 #
straight-curve $-1 -40.428479873043003 0 10.227739768513684 0 -1 0 I I #
vertex $-1 $342 $474 #
point $-1 -36.486837512426597 9.7509589723344945 7.6896046180893141 #
coedge $-1 $348 $347 $355 $440 forward $139 $-1 #
edge $-1 $443 -16.174088000659246 $351 -7.7916364646977536 $350 $475 forward 7 unknown #
straight-curve $-1 34.046005299352124 -7.7916364646977536 10.227739768513686 -1 0 0 I I #
point $-1 40.428479873043003 -7.7916364646977536 10.227739768513684 #
straight-curve $-1 38.002838174491771 -5.9914311163392497 10.227739768513679 0 -1 0 I I #
edge $-1 $356 38.002838174491771 $443 40.428479873043003 $435 $476 forward 7 unknown #
point $-1 38.002838174491771 -16.174088000659246 10.227739768513686 #
point $-1 38.002838174491771 -7.7916364646977536 10.227739768513686 #
vertex $-1 $436 $477 #
straight-curve $-1 40.428479873043003 -16.174088000659246 3.9238381677601586 0 0 -1 I I #
vertex $-1 $363 $478 #
point $-1 38.247449992664386 -13.779101847527389 7.0441914927387455 #
vertex $-1 $367 $479 #
point $-1 38.247449992664386 -10.186622617829606 7.0441914927387455 #
straight-curve $-1 -40.428479873043003 24.584419559627626 0 0 0 -1 I I #
point $-1 -40.428479873043003 -24.584419559627626 -10.227739768513684 #
straight-curve $-1 -40.428479873043003 0 -10.227739768513684 0 1 0 I I #
point $-1 -40.428479873043003 24.584419559627626 -10.227739768513684 #
coedge $-1 $393 $389 $398 $458 forward $282 $-1 #
vertex $-1 $390 $480 #
straight-curve $-1 -40.428479873043003 0 10.227739768513684 0 -1 0 I I #
point $-1 -40.428479873043003 -16.174088000659246 10.227739768513686 #
straight-curve $-1 40.428479873043003 0 10.227739768513684 0 1 0 I I #
edge $-1 $454 -40.428479873043003 $402 40.428479873043003 $398 $481 forward 7 unknown #
straight-curve $-1 -40.428479873043003 -24.584419559627626 0 0 0 -1 I I #
point $-1 40.428479873043003 -24.584419559627626 10.227739768513684 #
edge $-1 $420 -40.428479873043003 $463 40.428479873043003 $417 $482 forward 7 unknown #
straight-curve $-1 40.428479873043003 0 10.227739768513684 0 1 0 I I #
vertex $-1 $461 $483 #
straight-curve $-1 -40.428479873043003 0 10.227739768513684 0 -1 0 I I #
point $-1 -40.428479873043003 13.347639770676487 10.227739768513684 #
point $-1 40.428479873043003 13.347639770676487 10.227739768513684 #
straight-curve $-1 -40.428479873043003 24.584419559627626 0 0 0 -1 I I #
point $-1 40.428479873043003 24.584419559627626 10.227739768513684 #
edge $-1 $431 21.162733706092418 $425 24.777489733035644 $429 $484 forward 7 unknown #
straight-curve $-1 -40.428479873043003 4.8754794861672472 6.6129837415704609 0 -1 0 I I #
point $-1 -40.428479873043003 13.347639770676491 6.6129837415704591 #
straight-curve $-1 0 13.347639770676487 10.227739768513684 -1 0 0 I I #
point $-1 -40.428479873043003 13.347639770676487 10.227739768513684 #
point $-1 -36.462156065776377 9.7509589723344945 6.2756064475843978 #
straight-curve $-1 40.428479873043003 0 10.227739768513684 0 1 0 I I #
straight-curve $-1 0 -16.174088000659246 10.227739768513684 1 0 0 I I #
point $-1 40.428479873043003 -16.174088000659246 10.227739768513686 #
point $-1 37.561347307460579 -13.779101847527389 7.21525611607193 #
point $-1 37.561347307460579 -10.186622617829606 7.21525611607193 #
point $-1 -40.428479873043003 -24.584419559627626 10.227739768513684 #
straight-curve $-1 0 -24.584419559627626 10.227739768513684 1 0 0 I I #
straight-curve $-1 0 24.584419559627626 10.227739768513684 -1 0 0 I I #
point $-1 -40.428479873043003 24.584419559627626 10.227739768513684 #
straight-curve $-1 -40.428479873043003 13.347639770676491 31.390473474606104 0 0 -1 I I #
End-of-ACIS-data 