500 0 10 0           
7 Unknown 11 ACIS 5.0 NT 24 Thu Mar 25 17:12:10 1999 
-1 9.9999999999999995e-007 1e-010 
body $-1 $10 $-1 $11 #
body $-1 $12 $-1 $13 #
body $-1 $14 $-1 $15 #
body $-1 $16 $-1 $17 #
body $-1 $18 $-1 $19 #
body $-1 $20 $-1 $21 #
body $-1 $22 $-1 $23 #
body $-1 $24 $-1 $25 #
body $-1 $26 $-1 $27 #
body $-1 $28 $-1 $29 #
lump $-1 $-1 $30 $0 #
transform $-1 1 0 0 0 1 0 0 0 1 48.277840510269478 22.621793500368526 7.2968004353189189 1 rotate no_reflect no_shear #
lump $-1 $-1 $31 $1 #
transform $-1 1 0 0 0 1 0 0 0 1 48.277840510269478 22.621793500368526 7.2968004353189189 1 rotate no_reflect no_shear #
lump $-1 $-1 $32 $2 #
transform $-1 1 0 0 0 1 0 0 0 1 48.277840510269478 22.621793500368526 7.2968004353189189 1 rotate no_reflect no_shear #
lump $-1 $-1 $33 $3 #
transform $-1 1 0 0 0 1 0 0 0 1 48.277840510269478 22.621793500368526 7.2968004353189189 1 rotate no_reflect no_shear #
lump $-1 $-1 $34 $4 #
transform $-1 1 0 0 0 1 0 0 0 1 48.277840510269478 22.621793500368526 7.2968004353189189 1 rotate no_reflect no_shear #
lump $-1 $-1 $35 $5 #
transform $-1 1 0 0 0 1 0 0 0 1 48.277840510269478 22.621793500368526 7.2968004353189189 1 rotate no_reflect no_shear #
lump $-1 $-1 $36 $6 #
transform $-1 1 0 0 0 1 0 0 0 1 48.277840510269478 22.621793500368526 7.2968004353189189 1 rotate no_reflect no_shear #
lump $-1 $-1 $37 $7 #
transform $-1 1 0 0 0 1 0 0 0 1 48.277840510269478 22.621793500368526 7.2968004353189189 1 rotate no_reflect no_shear #
lump $-1 $-1 $38 $8 #
transform $-1 1 0 0 0 1 0 0 0 1 48.277840510269478 22.621793500368526 7.2968004353189189 1 rotate no_reflect no_shear #
lump $-1 $-1 $39 $9 #
transform $-1 1 0 0 0 1 0 0 0 1 48.277840510269478 22.621793500368526 7.2968004353189189 1 rotate no_reflect no_shear #
shell $-1 $-1 $-1 $40 $-1 $10 #
shell $-1 $-1 $-1 $41 $-1 $12 #
shell $-1 $-1 $-1 $42 $-1 $14 #
shell $-1 $-1 $-1 $43 $-1 $16 #
shell $-1 $-1 $-1 $44 $-1 $18 #
shell $-1 $-1 $-1 $45 $-1 $20 #
shell $-1 $-1 $-1 $46 $-1 $22 #
shell $-1 $-1 $-1 $47 $-1 $24 #
shell $-1 $-1 $-1 $48 $-1 $26 #
shell $-1 $-1 $-1 $49 $-1 $28 #
face $-1 $50 $51 $30 $-1 $52 forward single #
face $-1 $53 $54 $31 $-1 $55 reversed single #
face $-1 $56 $57 $32 $-1 $58 reversed single #
face $-1 $59 $60 $33 $-1 $61 reversed single #
face $-1 $62 $63 $34 $-1 $64 forward single #
face $-1 $65 $66 $35 $-1 $67 forward single #
face $-1 $68 $69 $36 $-1 $70 reversed single #
face $-1 $71 $72 $37 $-1 $73 forward single #
face $-1 $74 $75 $38 $-1 $76 forward single #
face $-1 $77 $78 $39 $-1 $79 forward single #
face $-1 $80 $81 $30 $-1 $82 reversed single #
loop $-1 $-1 $83 $40 #
plane-surface $-1 0 0 7.2968004353189189 0 0 1 1 0 0 forward_v I I I I #
face $-1 $84 $85 $31 $-1 $86 reversed single #
loop $-1 $-1 $87 $41 #
plane-surface $-1 -45.802435423474016 0 3.5804582695770657 0 0 1 1 0 0 forward_v I I I I #
face $-1 $88 $89 $32 $-1 $90 reversed single #
loop $-1 $-1 $91 $42 #
plane-surface $-1 45.802435423474016 0 3.5804582695770657 0 0 1 1 0 0 forward_v I I I I #
face $-1 $92 $93 $33 $-1 $94 reversed single #
loop $-1 $-1 $95 $43 #
plane-surface $-1 23.625905552648639 -94.37664902082453 68.440035927730804 1 0 0 0 0.74314483375859142 -0.66913059716165679 forward_v I I I I #
face $-1 $96 $97 $34 $-1 $98 forward single #
loop $-1 $99 $100 $44 #
cone-surface $-1 29.254798348085764 -20.650979002933219 5.1943445301788156 0 0.74314483375859142 -0.66913059716165679 0.5 0 0 1 I I 0 1 0.5 forward I I I I #
face $-1 $101 $102 $35 $-1 $103 forward single #
loop $-1 $104 $105 $45 #
cone-surface $-1 37.698137541241444 -20.650979002933219 5.1943445301788156 0 0.74314483375859142 -0.66913059716165679 0.5 0 0 1 I I 0 1 0.5 forward I I I I #
face $-1 $106 $107 $36 $-1 $108 reversed single #
loop $-1 $-1 $109 $46 #
plane-surface $-1 2.1422552469798717 55.383545908588459 104.26945088397432 1 0 0 0 -0.68199836817093118 -0.7313536940579346 forward_v I I I I #
face $-1 $110 $111 $37 $-1 $112 forward single #
loop $-1 $113 $114 $47 #
cone-surface $-1 3.9304489402111926 19.868095573083771 4.6812455619411528 0 -0.68199836817093118 -0.7313536940579346 0.5 0 0 1 I I 0 1 0.5 forward I I I I #
face $-1 $115 $116 $38 $-1 $117 forward single #
loop $-1 $118 $119 $48 #
cone-surface $-1 6.612739480058174 19.868095573083771 4.6812455619411528 0 -0.68199836817093118 -0.7313536940579346 0.5 0 0 1 I I 0 1 0.5 forward I I I I #
face $-1 $120 $121 $39 $-1 $122 forward single #
loop $-1 $123 $124 $49 #
cone-surface $-1 9.2950300199051483 19.868095573083771 4.6812455619411528 0 -0.68199836817093118 -0.7313536940579346 0.5 0 0 1 I I 0 1 0.5 forward I I I I #
face $-1 $125 $126 $30 $-1 $127 reversed single #
loop $-1 $-1 $128 $50 #
plane-surface $-1 0 0 -7.2968004353189189 0 0 1 1 0 0 forward_v I I I I #
coedge $-1 $129 $130 $131 $132 forward $51 $-1 #
face $-1 $133 $134 $31 $-1 $135 reversed single #
loop $-1 $-1 $136 $53 #
plane-surface $-1 -43.327030336678554 0 5.4386293524479923 -1 0 0 0 0 1 forward_v I I I I #
coedge $-1 $137 $138 $139 $140 forward $54 $-1 #
face $-1 $141 $142 $32 $-1 $143 forward single #
loop $-1 $-1 $144 $56 #
plane-surface $-1 43.327030336678554 0 5.4386293524479923 1 0 0 0 0 -1 forward_v I I I I #
coedge $-1 $145 $146 $147 $148 reversed $57 $-1 #
face $-1 $149 $150 $33 $-1 $151 forward single #
loop $-1 $-1 $152 $59 #
plane-surface $-1 33.476467944663604 -22.621793500368526 3.8316754271071289 0 -0.74314483375859142 0.66913059716165679 1 0 0 forward_v I I I I #
coedge $-1 $153 $154 $155 $156 reversed $60 $-1 #
face $-1 $-1 $157 $34 $-1 $158 forward single #
loop $-1 $159 $160 $62 #
cone-surface $-1 29.254798348085764 -20.054384543927874 4.6571684798542003 0 0.74314483375859142 -0.66913059716165679 0.25 0 0 1 I I -0.70710678118654746 0.70710678118654746 0.25 forward I I I I #
loop $-1 $-1 $161 $44 #
coedge $-1 $100 $100 $162 $163 reversed $63 $-1 #
face $-1 $-1 $164 $35 $-1 $165 forward single #
loop $-1 $166 $167 $65 #
cone-surface $-1 37.698137541241444 -20.054384543927874 4.6571684798542003 0 0.74314483375859142 -0.66913059716165679 0.25 0 0 1 I I -0.70710678118654746 0.70710678118654746 0.25 forward I I I I #
loop $-1 $-1 $168 $45 #
coedge $-1 $105 $105 $169 $170 reversed $66 $-1 #
face $-1 $171 $172 $36 $-1 $173 reversed single #
loop $-1 $-1 $174 $68 #
plane-surface $-1 6.6127394800581669 -10.467270985052053 33.653096887323542 0 0.68199836817093118 0.7313536940579346 1 0 0 forward_v I I I I #
coedge $-1 $175 $176 $177 $178 reversed $69 $-1 #
face $-1 $-1 $179 $37 $-1 $180 forward single #
loop $-1 $181 $182 $71 #
cone-surface $-1 3.9304489402111926 19.356596796955571 4.132730291397702 0 -0.68199836817093118 -0.7313536940579346 0.25 0 0 1 I I -0.70710678118654746 0.70710678118654746 0.25 forward I I I I #
loop $-1 $-1 $183 $47 #
coedge $-1 $114 $114 $184 $185 reversed $72 $-1 #
face $-1 $-1 $186 $38 $-1 $187 forward single #
loop $-1 $188 $189 $74 #
cone-surface $-1 6.612739480058174 19.356596796955571 4.132730291397702 0 -0.68199836817093118 -0.7313536940579346 0.25 0 0 1 I I -0.70710678118654746 0.70710678118654746 0.25 forward I I I I #
loop $-1 $-1 $190 $48 #
coedge $-1 $119 $119 $191 $192 reversed $75 $-1 #
face $-1 $-1 $193 $39 $-1 $194 forward single #
loop $-1 $195 $196 $77 #
cone-surface $-1 9.2950300199051483 19.356596796955571 4.132730291397702 0 -0.68199836817093118 -0.7313536940579346 0.25 0 0 1 I I -0.70710678118654746 0.70710678118654746 0.25 forward I I I I #
loop $-1 $-1 $197 $49 #
coedge $-1 $124 $124 $198 $199 reversed $78 $-1 #
face $-1 $200 $201 $30 $-1 $202 reversed single #
loop $-1 $-1 $203 $80 #
plane-surface $-1 0 -22.621793500368526 0 0 1 0 0 0 1 forward_v I I I I #
coedge $-1 $204 $205 $206 $207 forward $81 $-1 #
coedge $-1 $208 $83 $209 $210 forward $51 $-1 #
coedge $-1 $83 $208 $211 $212 forward $51 $-1 #
coedge $-1 $213 $214 $83 $132 reversed $215 $-1 #
edge $-1 $216 -22.621793500368526 $217 22.621793500368526 $131 $218 forward 7 unknown #
face $-1 $219 $220 $31 $-1 $221 reversed single #
loop $-1 $-1 $222 $84 #
plane-surface $-1 0 22.621793500368526 0 0 -1 0 0 0 -1 forward_v I I I I #
coedge $-1 $139 $223 $224 $225 reversed $85 $-1 #
coedge $-1 $226 $87 $227 $228 reversed $54 $-1 #
coedge $-1 $87 $226 $229 $230 reversed $54 $-1 #
coedge $-1 $231 $136 $87 $140 reversed $85 $-1 #
edge $-1 $232 -22.621793500368526 $233 22.621793500368526 $139 $234 forward 7 unknown #
face $-1 $235 $236 $32 $-1 $237 reversed single #
loop $-1 $-1 $238 $88 #
plane-surface $-1 0 0 7.2968004353189189 0 0 1 1 0 0 forward_v I I I I #
coedge $-1 $239 $240 $241 $242 reversed $89 $-1 #
coedge $-1 $243 $91 $244 $245 reversed $57 $-1 #
coedge $-1 $91 $243 $246 $247 reversed $57 $-1 #
coedge $-1 $248 $249 $91 $148 forward $250 $-1 #
edge $-1 $251 -22.621793500368526 $252 22.621793500368526 $147 $253 forward 7 unknown #
face $-1 $254 $255 $33 $-1 $256 reversed single #
loop $-1 $-1 $257 $92 #
plane-surface $-1 0 0 7.2968004353189189 0 0 1 1 0 0 forward_v I I I I #
coedge $-1 $258 $259 $260 $261 reversed $93 $-1 #
coedge $-1 $154 $95 $262 $263 reversed $60 $-1 #
coedge $-1 $95 $153 $258 $264 reversed $60 $-1 #
coedge $-1 $260 $265 $95 $156 forward $255 $-1 #
edge $-1 $266 26.923217528546484 $267 30.388342536758273 $155 $268 forward 7 unknown #
loop $-1 $-1 $162 $96 #
plane-surface $-1 33.476467944663604 -22.621793500368526 3.8316754271071289 0 -0.74314483375859142 0.66913059716165679 1 0 0 forward_v I I I I #
loop $-1 $-1 $269 $62 #
coedge $-1 $160 $160 $161 $270 reversed $97 $-1 #
coedge $-1 $161 $161 $160 $270 forward $99 $-1 #
coedge $-1 $162 $162 $100 $163 forward $157 $-1 #
edge $-1 $271 2.6828484497641021e-016 $271 6.2831853071796004 $162 $272 forward 7 unknown #
loop $-1 $-1 $169 $101 #
plane-surface $-1 33.476467944663604 -22.621793500368526 3.8316754271071289 0 -0.74314483375859142 0.66913059716165679 1 0 0 forward_v I I I I #
loop $-1 $-1 $273 $65 #
coedge $-1 $167 $167 $168 $274 reversed $102 $-1 #
coedge $-1 $168 $168 $167 $274 forward $104 $-1 #
coedge $-1 $169 $169 $105 $170 forward $164 $-1 #
edge $-1 $275 2.6828484497641021e-016 $275 6.2831853071796004 $169 $276 forward 7 unknown #
face $-1 $277 $278 $36 $-1 $279 reversed single #
loop $-1 $-1 $280 $106 #
plane-surface $-1 11.083223713136462 55.383545908588459 104.26945088397432 -1 0 0 0 0.68199836817093118 0.7313536940579346 forward_v I I I I #
coedge $-1 $281 $282 $283 $284 reversed $107 $-1 #
coedge $-1 $176 $109 $285 $286 reversed $69 $-1 #
coedge $-1 $109 $175 $281 $287 reversed $69 $-1 #
coedge $-1 $283 $288 $109 $178 forward $289 $-1 #
edge $-1 $290 5.0699794539257041 $291 9.8953769403242617 $177 $292 forward 7 unknown #
loop $-1 $-1 $184 $110 #
plane-surface $-1 6.6127394800581669 -10.467270985052053 33.653096887323542 0 0.68199836817093118 0.7313536940579346 1 0 0 forward_v I I I I #
loop $-1 $-1 $293 $71 #
coedge $-1 $182 $182 $183 $294 reversed $111 $-1 #
coedge $-1 $183 $183 $182 $294 forward $113 $-1 #
coedge $-1 $184 $184 $114 $185 forward $179 $-1 #
edge $-1 $295 -7.0138136560165447e-016 $295 6.2831853071795996 $184 $296 forward 7 unknown #
loop $-1 $-1 $191 $115 #
plane-surface $-1 6.6127394800581669 -10.467270985052053 33.653096887323542 0 0.68199836817093118 0.7313536940579346 1 0 0 forward_v I I I I #
loop $-1 $-1 $297 $74 #
coedge $-1 $189 $189 $190 $298 reversed $116 $-1 #
coedge $-1 $190 $190 $189 $298 forward $118 $-1 #
coedge $-1 $191 $191 $119 $192 forward $186 $-1 #
edge $-1 $299 -7.0138136560165447e-016 $299 6.2831853071795996 $191 $300 forward 7 unknown #
loop $-1 $-1 $198 $120 #
plane-surface $-1 6.6127394800581669 -10.467270985052053 33.653096887323542 0 0.68199836817093118 0.7313536940579346 1 0 0 forward_v I I I I #
loop $-1 $-1 $301 $77 #
coedge $-1 $196 $196 $197 $302 reversed $121 $-1 #
coedge $-1 $197 $197 $196 $302 forward $123 $-1 #
coedge $-1 $198 $198 $124 $199 forward $193 $-1 #
edge $-1 $303 -7.0138136560165447e-016 $303 6.2831853071795996 $198 $304 forward 7 unknown #
face $-1 $305 $306 $30 $-1 $307 reversed single #
loop $-1 $-1 $308 $125 #
plane-surface $-1 -48.277840510269478 0 0 1 0 0 0 0 -1 forward_v I I I I #
coedge $-1 $309 $211 $310 $311 forward $126 $-1 #
coedge $-1 $312 $128 $309 $313 forward $81 $-1 #
coedge $-1 $128 $312 $314 $315 forward $81 $-1 #
coedge $-1 $214 $213 $128 $207 reversed $215 $-1 #
edge $-1 $316 -22.621793500368526 $317 22.621793500368526 $206 $318 forward 7 unknown #
coedge $-1 $130 $129 $319 $320 forward $51 $-1 #
coedge $-1 $321 $322 $129 $210 reversed $306 $-1 #
edge $-1 $217 -48.277840510269478 $323 48.277840510269478 $209 $324 forward 7 unknown #
coedge $-1 $203 $325 $130 $212 reversed $126 $-1 #
edge $-1 $326 -48.277840510269478 $216 48.277840510269478 $211 $327 forward 7 unknown #
coedge $-1 $206 $131 $325 $328 forward $215 $-1 #
coedge $-1 $131 $206 $321 $329 reversed $215 $-1 #
loop $-1 $-1 $213 $305 #
vertex $-1 $132 $330 #
vertex $-1 $132 $331 #
straight-curve $-1 48.277840510269478 0 7.2968004353189189 0 1 0 I I #
face $-1 $332 $333 $31 $-1 $334 forward single #
loop $-1 $-1 $335 $133 #
plane-surface $-1 -48.277840510269478 0 0 1 0 0 0 0 -1 forward_v I I I I #
coedge $-1 $229 $336 $231 $337 forward $134 $-1 #
coedge $-1 $136 $231 $338 $339 reversed $85 $-1 #
coedge $-1 $340 $227 $136 $225 forward $341 $-1 #
edge $-1 $233 0.86114359335306956 $342 4.5774857590949232 $224 $343 forward 7 unknown #
coedge $-1 $138 $137 $335 $344 reversed $54 $-1 #
coedge $-1 $224 $345 $137 $228 forward $341 $-1 #
edge $-1 $346 -25.37662279853247 $233 -20.425812624941546 $227 $347 forward 7 unknown #
coedge $-1 $348 $222 $138 $230 forward $134 $-1 #
edge $-1 $232 20.425812624941546 $349 25.37662279853247 $229 $350 forward 7 unknown #
coedge $-1 $223 $139 $222 $337 reversed $85 $-1 #
vertex $-1 $230 $351 #
vertex $-1 $228 $352 #
straight-curve $-1 -43.327030336678554 0 3.5804582695770657 0 -1 0 I I #
face $-1 $353 $354 $32 $-1 $355 reversed single #
loop $-1 $-1 $356 $141 #
plane-surface $-1 0 -22.621793500368526 0 0 1 0 0 0 1 forward_v I I I I #
coedge $-1 $357 $358 $240 $359 forward $142 $-1 #
coedge $-1 $360 $144 $243 $361 reversed $89 $-1 #
coedge $-1 $144 $360 $238 $359 reversed $89 $-1 #
coedge $-1 $362 $246 $144 $242 forward $354 $-1 #
edge $-1 $363 0.86114359335306956 $364 4.5774857590949232 $241 $365 forward 7 unknown #
coedge $-1 $146 $145 $239 $361 forward $57 $-1 #
coedge $-1 $366 $356 $145 $245 forward $236 $-1 #
edge $-1 $367 20.425812624941546 $251 25.37662279853247 $244 $368 forward 7 unknown #
coedge $-1 $241 $369 $146 $247 forward $354 $-1 #
edge $-1 $252 -25.37662279853247 $363 -20.425812624941546 $246 $370 forward 7 unknown #
coedge $-1 $371 $147 $369 $372 reversed $250 $-1 #
coedge $-1 $147 $371 $366 $373 forward $250 $-1 #
loop $-1 $-1 $147 $353 #
vertex $-1 $245 $374 #
vertex $-1 $148 $375 #
straight-curve $-1 48.277840510269478 0 3.5804582695770657 0 1 0 I I #
face $-1 $-1 $376 $33 $-1 $377 forward single #
loop $-1 $-1 $155 $149 #
plane-surface $-1 0 -22.621793500368526 0 0 1 0 0 0 1 forward_v I I I I #
coedge $-1 $262 $378 $379 $380 forward $150 $-1 #
coedge $-1 $379 $152 $154 $264 forward $93 $-1 #
coedge $-1 $152 $379 $381 $382 reversed $93 $-1 #
coedge $-1 $383 $155 $152 $261 forward $255 $-1 #
edge $-1 $267 6.8876715803168373 $384 26.588796364346752 $260 $385 forward 7 unknown #
coedge $-1 $386 $257 $153 $263 forward $150 $-1 #
edge $-1 $387 -27.686543503782939 $266 -24.56653101004374 $262 $388 forward 7 unknown #
edge $-1 $267 0 $387 4.6627855712678299 $154 $389 forward 7 unknown #
coedge $-1 $155 $383 $386 $390 reversed $255 $-1 #
vertex $-1 $390 $391 #
vertex $-1 $156 $392 #
straight-curve $-1 23.625905552648639 -22.621793500368526 34.220017963865402 0 0 -1 I I #
coedge $-1 $269 $269 $-1 $393 reversed $159 $-1 #
edge $-1 $394 0 $394 6.2831853071796004 $160 $395 forward 7 unknown #
vertex $-1 $163 $396 #
ellipse-curve $-1 29.254798348085764 -21.061787253498927 5.5642379312130235 0 -0.74314483375859142 0.66913059716165679 0.5 0 0 1 I I #
coedge $-1 $273 $273 $-1 $397 reversed $166 $-1 #
edge $-1 $398 0 $398 6.2831853071796004 $167 $399 forward 7 unknown #
vertex $-1 $170 $400 #
ellipse-curve $-1 37.698137541241444 -21.061787253498927 5.5642379312130235 0 -0.74314483375859142 0.66913059716165679 0.5 0 0 1 I I #
face $-1 $-1 $289 $36 $-1 $401 forward single #
loop $-1 $-1 $402 $171 #
plane-surface $-1 0 22.621793500368526 0 0 -1 0 0 0 -1 forward_v I I I I #
coedge $-1 $403 $404 $405 $406 reversed $172 $-1 #
coedge $-1 $407 $174 $176 $287 forward $107 $-1 #
coedge $-1 $174 $407 $403 $408 forward $107 $-1 #
coedge $-1 $405 $177 $174 $284 forward $289 $-1 #
edge $-1 $291 -1.1641144930492118 $409 7.7768539731073787 $283 $410 forward 7 unknown #
coedge $-1 $411 $412 $175 $286 forward $278 $-1 #
edge $-1 $413 -49.337681059365821 $290 -44.837925006668236 $285 $414 forward 7 unknown #
edge $-1 $291 38.645688438654552 $413 45.24358700073703 $176 $415 forward 7 unknown #
coedge $-1 $177 $405 $411 $416 forward $289 $-1 #
loop $-1 $-1 $405 $277 #
vertex $-1 $286 $417 #
vertex $-1 $178 $418 #
straight-curve $-1 2.1422552469798717 27.69177295429423 7.2968004353189215 0 -1 0 I I #
coedge $-1 $293 $293 $-1 $419 reversed $181 $-1 #
edge $-1 $420 0 $420 6.2831853071796004 $182 $421 forward 7 unknown #
vertex $-1 $185 $422 #
ellipse-curve $-1 3.9304489402111926 20.209094757169243 5.0469224089701274 0 0.68199836817093118 0.7313536940579346 0.5 0 0 1 I I #
coedge $-1 $297 $297 $-1 $423 reversed $188 $-1 #
edge $-1 $424 0 $424 6.2831853071796004 $189 $425 forward 7 unknown #
vertex $-1 $192 $426 #
ellipse-curve $-1 6.612739480058174 20.209094757169243 5.0469224089701274 0 0.68199836817093118 0.7313536940579346 0.5 0 0 1 I I #
coedge $-1 $301 $301 $-1 $427 reversed $195 $-1 #
edge $-1 $428 0 $428 6.2831853071796004 $196 $429 forward 7 unknown #
vertex $-1 $199 $430 #
ellipse-curve $-1 9.2950300199051483 20.209094757169243 5.0469224089701274 0 0.68199836817093118 0.7313536940579346 0.5 0 0 1 I I #
face $-1 $-1 $215 $30 $-1 $431 reversed single #
loop $-1 $-1 $321 $200 #
plane-surface $-1 0 22.621793500368526 0 0 -1 0 0 0 -1 forward_v I I I I #
coedge $-1 $432 $319 $322 $433 forward $201 $-1 #
coedge $-1 $325 $203 $204 $313 reversed $126 $-1 #
coedge $-1 $319 $432 $203 $311 reversed $201 $-1 #
edge $-1 $326 -7.2968004353189189 $434 7.2968004353189189 $310 $435 forward 7 unknown #
coedge $-1 $205 $204 $432 $436 forward $81 $-1 #
edge $-1 $317 -48.277840510269478 $434 48.277840510269478 $309 $437 forward 7 unknown #
coedge $-1 $322 $321 $205 $315 reversed $306 $-1 #
edge $-1 $438 -48.277840510269478 $316 48.277840510269478 $314 $439 forward 7 unknown #
vertex $-1 $207 $440 #
vertex $-1 $328 $441 #
straight-curve $-1 48.277840510269478 0 -7.2968004353189189 0 -1 0 I I #
coedge $-1 $308 $310 $208 $320 reversed $201 $-1 #
edge $-1 $323 -22.621793500368526 $326 22.621793500368526 $319 $442 forward 7 unknown #
coedge $-1 $314 $209 $214 $329 forward $306 $-1 #
coedge $-1 $209 $314 $308 $433 reversed $306 $-1 #
vertex $-1 $210 $443 #
straight-curve $-1 0 22.621793500368526 7.2968004353189189 -1 0 0 I I #
coedge $-1 $211 $309 $213 $328 reversed $126 $-1 #
vertex $-1 $320 $444 #
straight-curve $-1 0 -22.621793500368526 7.2968004353189189 1 0 0 I I #
edge $-1 $216 -7.2968004353189189 $317 7.2968004353189189 $213 $445 forward 7 unknown #
edge $-1 $217 -7.2968004353189189 $316 7.2968004353189189 $214 $446 forward 7 unknown #
point $-1 48.277840510269478 -22.621793500368526 7.2968004353189189 #
point $-1 48.277840510269478 22.621793500368526 7.2968004353189189 #
face $-1 $-1 $341 $31 $-1 $447 reversed single #
loop $-1 $-1 $338 $219 #
plane-surface $-1 0 0 7.2968004353189189 0 0 1 1 0 0 forward_v I I I I #
coedge $-1 $448 $449 $226 $344 forward $220 $-1 #
coedge $-1 $222 $348 $450 $451 reversed $134 $-1 #
edge $-1 $452 -4.5774857590949232 $232 -0.86114359335306956 $222 $453 forward 7 unknown #
coedge $-1 $450 $454 $223 $339 forward $333 $-1 #
edge $-1 $342 -22.621793500368526 $452 22.621793500368526 $338 $455 forward 7 unknown #
coedge $-1 $345 $224 $454 $456 reversed $341 $-1 #
loop $-1 $-1 $224 $332 #
vertex $-1 $225 $457 #
straight-curve $-1 -43.327030336678554 -22.621793500368526 2.7193146762239961 0 0 1 I I #
edge $-1 $349 -22.621793500368526 $346 22.621793500368526 $335 $458 forward 7 unknown #
coedge $-1 $227 $340 $448 $459 forward $341 $-1 #
vertex $-1 $344 $460 #
straight-curve $-1 -22.901217711737008 -22.621793500368526 3.5804582695770657 1 0 0 I I #
coedge $-1 $336 $229 $449 $461 reversed $134 $-1 #
vertex $-1 $344 $462 #
straight-curve $-1 -22.901217711737008 22.621793500368526 3.5804582695770657 -1 0 0 I I #
point $-1 -43.327030336678554 22.621793500368526 3.5804582695770657 #
point $-1 -43.327030336678554 -22.621793500368526 3.5804582695770657 #
face $-1 $-1 $250 $32 $-1 $463 reversed single #
loop $-1 $-1 $241 $235 #
plane-surface $-1 0 22.621793500368526 0 0 -1 0 0 0 -1 forward_v I I I I #
coedge $-1 $244 $464 $360 $465 forward $236 $-1 #
coedge $-1 $466 $238 $464 $467 forward $142 $-1 #
coedge $-1 $238 $466 $362 $468 forward $142 $-1 #
edge $-1 $364 -22.621793500368526 $469 22.621793500368526 $238 $470 forward 7 unknown #
coedge $-1 $240 $239 $356 $465 reversed $89 $-1 #
edge $-1 $367 -22.621793500368526 $363 22.621793500368526 $239 $471 forward 7 unknown #
coedge $-1 $369 $241 $358 $468 reversed $354 $-1 #
vertex $-1 $247 $472 #
vertex $-1 $242 $473 #
straight-curve $-1 43.327030336678554 22.621793500368526 2.7193146762239961 0 0 1 I I #
coedge $-1 $464 $244 $249 $373 reversed $236 $-1 #
vertex $-1 $245 $474 #
straight-curve $-1 22.901217711737008 -22.621793500368526 3.5804582695770657 1 0 0 I I #
coedge $-1 $246 $362 $248 $372 forward $354 $-1 #
straight-curve $-1 22.901217711737008 22.621793500368526 3.5804582695770657 -1 0 0 I I #
coedge $-1 $249 $248 $466 $475 reversed $250 $-1 #
edge $-1 $476 -7.2968004353189189 $252 -3.5804582695770657 $248 $477 forward 7 unknown #
edge $-1 $478 -7.2968004353189189 $251 -3.5804582695770657 $249 $479 forward 7 unknown #
point $-1 48.277840510269478 -22.621793500368526 3.5804582695770657 #
point $-1 48.277840510269478 22.621793500368526 3.5804582695770657 #
loop $-1 $-1 $381 $254 #
plane-surface $-1 43.327030336678554 0 5.4386293524479923 1 0 0 0 0 -1 forward_v I I I I #
coedge $-1 $257 $386 $480 $481 forward $150 $-1 #
coedge $-1 $259 $258 $257 $380 reversed $93 $-1 #
edge $-1 $482 -26.588796364346752 $387 -6.8876715803168373 $257 $483 forward 7 unknown #
coedge $-1 $480 $484 $259 $382 forward $376 $-1 #
edge $-1 $384 -8.1655668507372141 $482 -3.5027812794693842 $381 $485 forward 7 unknown #
coedge $-1 $265 $260 $484 $486 forward $255 $-1 #
vertex $-1 $486 $487 #
straight-curve $-1 16.738233972331802 -22.621793500368526 3.8316754271071298 1 0 0 I I #
coedge $-1 $378 $262 $265 $390 forward $150 $-1 #
vertex $-1 $263 $488 #
straight-curve $-1 23.625905552648639 -47.188324510412265 7.296800435318918 0 -1 0 I I #
straight-curve $-1 23.625905552648639 -22.621793500368526 3.8316754271071289 0 0.66913059716165679 0.74314483375859142 I I #
edge $-1 $266 23.625905552648639 $489 43.327030336678554 $265 $490 forward 7 unknown #
point $-1 23.625905552648639 -22.621793500368526 7.2968004353189189 #
point $-1 23.625905552648639 -22.621793500368526 3.8316754271071289 #
edge $-1 $491 1 $491 0 $269 $-1 forward 7 unknown #
vertex $-1 $270 $492 #
ellipse-curve $-1 29.254798348085764 -20.240170752367522 4.8244511291446148 0 -0.74314483375859142 0.66913059716165679 0.5 0 0 1 I I #
point $-1 29.754798348085764 -21.06178725349892 5.5642379312130172 #
edge $-1 $493 1 $493 0 $273 $-1 forward 7 unknown #
vertex $-1 $274 $494 #
ellipse-curve $-1 37.698137541241444 -20.240170752367522 4.8244511291446148 0 -0.74314483375859142 0.66913059716165679 0.5 0 0 1 I I #
point $-1 38.198137541241444 -21.06178725349892 5.5642379312130172 #
plane-surface $-1 0 0 7.2968004353189189 0 0 1 1 0 0 forward_v I I I I #
coedge $-1 $412 $411 $404 $495 forward $278 $-1 #
coedge $-1 $404 $280 $282 $408 reversed $172 $-1 #
coedge $-1 $280 $403 $402 $495 reversed $172 $-1 #
coedge $-1 $288 $283 $280 $406 forward $289 $-1 #
edge $-1 $409 -9.8953769403242617 $496 -5.0699794539257041 $405 $497 forward 7 unknown #
coedge $-1 $282 $281 $412 $498 reversed $107 $-1 #
edge $-1 $499 -45.24358700073703 $409 -38.645688438654552 $403 $500 forward 7 unknown #
vertex $-1 $284 $501 #
straight-curve $-1 3.3063697400290835 17.796396013969968 7.2968004353189144 1 0 0 I I #
coedge $-1 $402 $285 $288 $416 reversed $278 $-1 #
coedge $-1 $285 $402 $407 $498 forward $278 $-1 #
vertex $-1 $286 $502 #
straight-curve $-1 2.1422552469798717 22.621793500368526 52.134725441987158 0 0 1 I I #
straight-curve $-1 2.1422552469798717 -10.467270985052053 33.653096887323542 0 0.7313536940579346 -0.68199836817093118 I I #
edge $-1 $496 -11.083223713136462 $290 -2.1422552469798717 $411 $503 forward 7 unknown #
point $-1 2.1422552469798717 22.621793500368526 7.2968004353189189 #
point $-1 2.1422552469798717 17.796396013969968 7.296800435318918 #
edge $-1 $504 1 $504 0 $293 $-1 forward 7 unknown #
vertex $-1 $294 $505 #
ellipse-curve $-1 3.9304489402111926 19.527096388998306 4.3155687149121853 0 0.68199836817093118 0.7313536940579346 0.5 0 0 1 I I #
point $-1 4.4304489402111926 20.209094757169236 5.0469224089701203 #
edge $-1 $506 1 $506 0 $297 $-1 forward 7 unknown #
vertex $-1 $298 $507 #
ellipse-curve $-1 6.612739480058174 19.527096388998306 4.3155687149121853 0 0.68199836817093118 0.7313536940579346 0.5 0 0 1 I I #
point $-1 7.112739480058174 20.209094757169236 5.0469224089701203 #
edge $-1 $508 1 $508 0 $301 $-1 forward 7 unknown #
vertex $-1 $302 $509 #
ellipse-curve $-1 9.2950300199051483 19.527096388998306 4.3155687149121853 0 0.68199836817093118 0.7313536940579346 0.5 0 0 1 I I #
point $-1 9.7950300199051483 20.209094757169236 5.0469224089701203 #
plane-surface $-1 48.277840510269478 0 0 -1 0 0 0 0 1 forward_v I I I I #
coedge $-1 $310 $308 $312 $436 reversed $201 $-1 #
edge $-1 $323 -7.2968004353189189 $438 7.2968004353189189 $322 $510 forward 7 unknown #
vertex $-1 $436 $511 #
straight-curve $-1 -48.277840510269478 -22.621793500368526 0 0 0 -1 I I #
edge $-1 $434 -22.621793500368526 $438 22.621793500368526 $432 $512 forward 7 unknown #
straight-curve $-1 0 -22.621793500368526 -7.2968004353189189 -1 0 0 I I #
vertex $-1 $315 $513 #
straight-curve $-1 0 22.621793500368526 -7.2968004353189189 1 0 0 I I #
point $-1 48.277840510269478 22.621793500368526 -7.2968004353189189 #
point $-1 48.277840510269478 -22.621793500368526 -7.2968004353189189 #
straight-curve $-1 -48.277840510269478 0 7.2968004353189189 0 -1 0 I I #
point $-1 -48.277840510269478 22.621793500368526 7.2968004353189189 #
point $-1 -48.277840510269478 -22.621793500368526 7.2968004353189189 #
straight-curve $-1 48.277840510269478 -22.621793500368526 0 0 0 -1 I I #
straight-curve $-1 48.277840510269478 22.621793500368526 0 0 0 -1 I I #
plane-surface $-1 0 -22.621793500368526 0 0 1 0 0 0 1 forward_v I I I I #
coedge $-1 $514 $335 $345 $459 reversed $220 $-1 #
coedge $-1 $335 $514 $348 $461 forward $220 $-1 #
coedge $-1 $515 $338 $336 $451 forward $333 $-1 #
edge $-1 $452 43.327030336678554 $516 48.277840510269478 $336 $517 forward 7 unknown #
vertex $-1 $451 $518 #
straight-curve $-1 -43.327030336678554 22.621793500368526 2.7193146762239961 0 0 -1 I I #
coedge $-1 $338 $515 $340 $456 forward $333 $-1 #
straight-curve $-1 -43.327030336678554 0 7.2968004353189189 0 1 0 I I #
edge $-1 $519 -48.277840510269478 $342 -43.327030336678554 $340 $520 forward 7 unknown #
point $-1 -43.327030336678554 -22.621793500368526 7.2968004353189189 #
straight-curve $-1 -48.277840510269478 0 3.5804582695770657 0 -1 0 I I #
edge $-1 $519 -7.2968004353189189 $346 -3.5804582695770657 $448 $521 forward 7 unknown #
point $-1 -48.277840510269478 -22.621793500368526 3.5804582695770657 #
edge $-1 $516 -7.2968004353189189 $349 -3.5804582695770657 $348 $522 forward 7 unknown #
point $-1 -48.277840510269478 22.621793500368526 3.5804582695770657 #
plane-surface $-1 48.277840510269478 0 0 -1 0 0 0 0 1 forward_v I I I I #
coedge $-1 $356 $366 $357 $467 reversed $236 $-1 #
edge $-1 $469 -4.5774857590949232 $367 -0.86114359335306956 $356 $523 forward 7 unknown #
coedge $-1 $358 $357 $371 $475 forward $142 $-1 #
edge $-1 $469 43.327030336678554 $478 48.277840510269478 $464 $524 forward 7 unknown #
edge $-1 $476 -48.277840510269478 $364 -43.327030336678554 $362 $525 forward 7 unknown #
vertex $-1 $467 $526 #
straight-curve $-1 43.327030336678554 0 7.2968004353189189 0 -1 0 I I #
straight-curve $-1 43.327030336678554 0 3.5804582695770657 0 1 0 I I #
point $-1 43.327030336678554 22.621793500368526 3.5804582695770657 #
point $-1 43.327030336678554 22.621793500368526 7.2968004353189189 #
point $-1 43.327030336678554 -22.621793500368526 3.5804582695770657 #
edge $-1 $478 -22.621793500368526 $476 22.621793500368526 $371 $527 forward 7 unknown #
vertex $-1 $475 $528 #
straight-curve $-1 48.277840510269478 22.621793500368526 0 0 0 -1 I I #
vertex $-1 $475 $529 #
straight-curve $-1 48.277840510269478 -22.621793500368526 0 0 0 -1 I I #
coedge $-1 $484 $381 $378 $481 reversed $376 $-1 #
edge $-1 $489 -22.621793500368526 $482 -19.501781006629326 $378 $530 forward 7 unknown #
vertex $-1 $382 $531 #
straight-curve $-1 16.738233972331802 -19.501781006629326 7.2968004353189189 -1 0 0 I I #
coedge $-1 $381 $480 $383 $486 reversed $376 $-1 #
straight-curve $-1 43.327030336678554 -17.157962877371304 9.8998742469429004 0 0.66913059716165679 0.74314483375859142 I I #
edge $-1 $384 1.1123607508831328 $489 4.5774857590949232 $383 $532 forward 7 unknown #
point $-1 43.327030336678554 -22.621793500368526 3.8316754271071289 #
point $-1 23.625905552648639 -19.501781006629326 7.2968004353189198 #
vertex $-1 $481 $533 #
straight-curve $-1 0 -22.621793500368526 7.2968004353189189 1 0 0 I I #
vertex $-1 $393 $534 #
point $-1 29.754798348085764 -20.240170752367522 4.8244511291446148 #
vertex $-1 $397 $535 #
point $-1 38.198137541241444 -20.240170752367522 4.8244511291446148 #
edge $-1 $496 44.837925006668236 $499 49.337681059365821 $402 $536 forward 7 unknown #
vertex $-1 $416 $537 #
straight-curve $-1 11.083223713136462 27.69177295429423 7.2968004353189215 0 1 0 I I #
edge $-1 $499 -7.7768539731073787 $413 1.1641144930492118 $412 $538 forward 7 unknown #
vertex $-1 $498 $539 #
straight-curve $-1 11.083223713136462 -10.467270985052053 33.653096887323542 0 -0.7313536940579346 0.68199836817093118 I I #
point $-1 11.083223713136462 17.796396013969968 7.296800435318918 #
point $-1 2.1422552469798717 22.621793500368526 2.7970443826213334 #
straight-curve $-1 0 22.621793500368526 7.2968004353189189 -1 0 0 I I #
vertex $-1 $419 $540 #
point $-1 4.4304489402111926 19.527096388998306 4.3155687149121853 #
vertex $-1 $423 $541 #
point $-1 7.112739480058174 19.527096388998306 4.3155687149121853 #
vertex $-1 $427 $542 #
point $-1 9.7950300199051483 19.527096388998306 4.3155687149121853 #
straight-curve $-1 -48.277840510269478 22.621793500368526 0 0 0 -1 I I #
point $-1 -48.277840510269478 -22.621793500368526 -7.2968004353189189 #
straight-curve $-1 -48.277840510269478 0 -7.2968004353189189 0 1 0 I I #
point $-1 -48.277840510269478 22.621793500368526 -7.2968004353189189 #
coedge $-1 $449 $448 $515 $543 reversed $220 $-1 #
coedge $-1 $454 $450 $514 $543 forward $333 $-1 #
vertex $-1 $451 $544 #
straight-curve $-1 0 22.621793500368526 7.2968004353189189 -1 0 0 I I #
point $-1 -43.327030336678554 22.621793500368526 7.2968004353189189 #
vertex $-1 $543 $545 #
straight-curve $-1 0 -22.621793500368526 7.2968004353189189 1 0 0 I I #
straight-curve $-1 -48.277840510269478 -22.621793500368526 0 0 0 -1 I I #
straight-curve $-1 -48.277840510269478 22.621793500368526 0 0 0 -1 I I #
straight-curve $-1 43.327030336678554 -22.621793500368526 2.7193146762239961 0 0 -1 I I #
straight-curve $-1 0 -22.621793500368526 7.2968004353189189 1 0 0 I I #
straight-curve $-1 0 22.621793500368526 7.2968004353189189 -1 0 0 I I #
point $-1 43.327030336678554 -22.621793500368526 7.2968004353189189 #
straight-curve $-1 48.277840510269478 0 7.2968004353189189 0 1 0 I I #
point $-1 48.277840510269478 22.621793500368526 7.2968004353189189 #
point $-1 48.277840510269478 -22.621793500368526 7.2968004353189189 #
straight-curve $-1 43.327030336678554 0 7.2968004353189189 0 1 0 I I #
point $-1 43.327030336678554 -19.501781006629326 7.2968004353189189 #
straight-curve $-1 43.327030336678554 -22.621793500368526 2.7193146762239961 0 0 1 I I #
point $-1 43.327030336678554 -22.621793500368526 7.2968004353189189 #
point $-1 29.254798348085764 -19.868598335488226 4.4898858305637859 #
point $-1 37.698137541241444 -19.868598335488226 4.4898858305637859 #
straight-curve $-1 11.083223713136462 22.621793500368526 52.134725441987158 0 0 -1 I I #
point $-1 11.083223713136462 22.621793500368526 7.2968004353189189 #
straight-curve $-1 3.3063697400290835 22.621793500368526 2.7970443826213298 -1 0 0 I I #
point $-1 11.083223713136462 22.621793500368526 2.7970443826213334 #
point $-1 3.9304489402111926 19.186097204912837 3.9498918678832182 #
point $-1 6.612739480058174 19.186097204912837 3.9498918678832182 #
point $-1 9.2950300199051483 19.186097204912837 3.9498918678832182 #
edge $-1 $516 -22.621793500368526 $519 22.621793500368526 $514 $546 forward 7 unknown #
point $-1 -48.277840510269478 22.621793500368526 7.2968004353189189 #
point $-1 -48.277840510269478 -22.621793500368526 7.2968004353189189 #
straight-curve $-1 -48.277840510269478 0 7.2968004353189189 0 -1 0 I I #
End-of-ACIS-data 