500 0 8 0           
7 Unknown 11 ACIS 5.0 NT 24 Fri Mar 26 15:29:28 1999 
-1 9.9999999999999995e-007 1e-010 
body $-1 $8 $-1 $9 #
body $-1 $10 $-1 $11 #
body $-1 $12 $-1 $13 #
body $-1 $14 $-1 $15 #
body $-1 $16 $-1 $17 #
body $-1 $18 $-1 $19 #
body $-1 $20 $-1 $21 #
body $-1 $22 $-1 $23 #
lump $-1 $-1 $24 $0 #
transform $-1 1 0 0 0 1 0 0 0 1 62.199163792840359 32.191061713946446 8.1824065310561593 1 rotate no_reflect no_shear #
lump $-1 $-1 $25 $1 #
transform $-1 1 0 0 0 1 0 0 0 1 62.199163792840359 32.191061713946446 8.1824065310561593 1 rotate no_reflect no_shear #
lump $-1 $-1 $26 $2 #
transform $-1 1 0 0 0 1 0 0 0 1 62.199163792840359 32.191061713946446 8.1824065310561593 1 rotate no_reflect no_shear #
lump $-1 $-1 $27 $3 #
transform $-1 1 0 0 0 1 0 0 0 1 62.199163792840359 32.191061713946446 8.1824065310561593 1 rotate no_reflect no_shear #
lump $-1 $-1 $28 $4 #
transform $-1 1 0 0 0 1 0 0 0 1 62.199163792840359 32.191061713946446 8.1824065310561593 1 rotate no_reflect no_shear #
lump $-1 $-1 $29 $5 #
transform $-1 1 0 0 0 1 0 0 0 1 62.199163792840359 32.191061713946446 8.1824065310561593 1 rotate no_reflect no_shear #
lump $-1 $-1 $30 $6 #
transform $-1 1 0 0 0 1 0 0 0 1 62.199163792840359 32.191061713946446 8.1824065310561593 1 rotate no_reflect no_shear #
lump $-1 $-1 $31 $7 #
transform $-1 1 0 0 0 1 0 0 0 1 62.199163792840359 32.191061713946446 8.1824065310561593 1 rotate no_reflect no_shear #
shell $-1 $-1 $-1 $32 $-1 $8 #
shell $-1 $-1 $-1 $33 $-1 $10 #
shell $-1 $-1 $-1 $34 $-1 $12 #
shell $-1 $-1 $-1 $35 $-1 $14 #
shell $-1 $-1 $-1 $36 $-1 $16 #
shell $-1 $-1 $-1 $37 $-1 $18 #
shell $-1 $-1 $-1 $38 $-1 $20 #
shell $-1 $-1 $-1 $39 $-1 $22 #
face $-1 $40 $41 $24 $-1 $42 forward single #
face $-1 $43 $44 $25 $-1 $45 reversed single #
face $-1 $46 $47 $26 $-1 $48 reversed single #
face $-1 $49 $50 $27 $-1 $51 forward single #
face $-1 $52 $53 $28 $-1 $54 forward single #
face $-1 $55 $56 $29 $-1 $57 reversed single #
face $-1 $58 $59 $30 $-1 $60 forward single #
face $-1 $61 $62 $31 $-1 $63 forward single #
face $-1 $64 $65 $24 $-1 $66 reversed single #
loop $-1 $-1 $67 $32 #
plane-surface $-1 0 0 8.1824065310561593 0 0 1 1 0 0 forward_v I I I I #
face $-1 $68 $69 $25 $-1 $70 reversed single #
loop $-1 $-1 $71 $33 #
plane-surface $-1 0 -27.02742555677526 4.3666137749766669 0 0 1 1 0 0 forward_v I I I I #
face $-1 $72 $73 $26 $-1 $74 reversed single #
loop $-1 $-1 $75 $34 #
plane-surface $-1 34.678306681760127 -5.8994338982022914 176.11485602568499 0 -1 0 -0.5877852598018023 0 -0.80901698891910034 forward_v I I I I #
face $-1 $76 $77 $27 $-1 $78 forward single #
loop $-1 $79 $80 $35 #
cone-surface $-1 57.453103296554893 -11.237442771534301 4.2561134457143206 -0.5877852598018023 0 -0.80901698891910034 0.80901698891910034 0 -0.5877852598018023 1 I I 0 1 1 forward I I I I #
face $-1 $81 $82 $28 $-1 $83 forward single #
loop $-1 $84 $85 $36 #
cone-surface $-1 57.453103296554893 -8.034637447535097 4.2561134457143206 -0.5877852598018023 0 -0.80901698891910034 0.80901698891910034 0 -0.5877852598018023 1 I I 0 1 1 forward I I I I #
face $-1 $86 $87 $29 $-1 $88 reversed single #
loop $-1 $-1 $89 $37 #
plane-surface $-1 -164.100309152617 16.801787873496057 75.837979012226228 0 1 0 -0.81915205242281985 0 0.57357642473473569 forward_v I I I I #
face $-1 $90 $91 $30 $-1 $92 forward single #
loop $-1 $93 $94 $38 #
cone-surface $-1 -60.237742531678819 21.198723256481877 5.8669658900586779 0.81915205242281985 0 -0.57357642473473569 0.57357642473473569 0 0.81915205242281985 1 I I 0 1 1 forward I I I I #
face $-1 $95 $96 $31 $-1 $97 forward single #
loop $-1 $98 $99 $39 #
cone-surface $-1 -60.237742531678819 27.794126330960616 5.8669658900586779 0.81915205242281985 0 -0.57357642473473569 0.57357642473473569 0 0.81915205242281985 1 I I 0 1 1 forward I I I I #
face $-1 $100 $101 $24 $-1 $102 reversed single #
loop $-1 $-1 $103 $40 #
plane-surface $-1 0 0 -8.1824065310561593 0 0 1 1 0 0 forward_v I I I I #
coedge $-1 $104 $105 $106 $107 forward $41 $-1 #
face $-1 $108 $109 $25 $-1 $110 reversed single #
loop $-1 $-1 $111 $43 #
plane-surface $-1 0 -21.863789399604073 6.2745101530164131 0 -1 0 0 0 -1 forward_v I I I I #
coedge $-1 $112 $113 $114 $115 reversed $44 $-1 #
face $-1 $116 $117 $26 $-1 $118 reversed single #
loop $-1 $-1 $119 $46 #
plane-surface $-1 -38.441196617098917 -9.6360401095346973 75.47449561574571 0.5877852598018023 0 0.80901698891910034 0.80901698891910034 0 -0.5877852598018023 forward_v I I I I #
coedge $-1 $120 $121 $122 $123 reversed $47 $-1 #
face $-1 $-1 $124 $27 $-1 $125 forward single #
loop $-1 $126 $127 $49 #
cone-surface $-1 56.423523875828117 -11.237442771534301 2.8390189729976782 -0.5877852598018023 0 -0.80901698891910034 0.40450849445955017 0 -0.29389262990090115 1 I I -0.70710678118654746 0.70710678118654746 0.5 forward I I I I #
loop $-1 $-1 $128 $35 #
coedge $-1 $80 $80 $129 $130 reversed $50 $-1 #
face $-1 $-1 $131 $28 $-1 $132 forward single #
loop $-1 $133 $134 $52 #
cone-surface $-1 56.423523875828117 -8.034637447535097 2.8390189729976782 -0.5877852598018023 0 -0.80901698891910034 0.40450849445955017 0 -0.29389262990090115 1 I I -0.70710678118654746 0.70710678118654746 0.5 forward I I I I #
loop $-1 $-1 $135 $36 #
coedge $-1 $85 $85 $136 $137 reversed $53 $-1 #
face $-1 $138 $139 $29 $-1 $140 forward single #
loop $-1 $-1 $141 $55 #
plane-surface $-1 -62.199163792840352 24.496424793721253 4.4860310326510415 -0.81915205242281985 0 0.57357642473473569 0.57357642473473569 0 0.81915205242281985 forward_v I I I I #
coedge $-1 $142 $143 $144 $145 reversed $56 $-1 #
face $-1 $-1 $146 $30 $-1 $147 forward single #
loop $-1 $148 $149 $58 #
cone-surface $-1 -59.160860199265365 21.198723256481877 5.1129247858963858 0.81915205242281985 0 -0.57357642473473569 0.28678821236736785 0 0.40957602621140993 1 I I -0.70710678118654746 0.70710678118654746 0.5 forward I I I I #
loop $-1 $-1 $150 $38 #
coedge $-1 $94 $94 $151 $152 reversed $59 $-1 #
face $-1 $-1 $153 $31 $-1 $154 forward single #
loop $-1 $155 $156 $61 #
cone-surface $-1 -59.160860199265365 27.794126330960616 5.1129247858963858 0.81915205242281985 0 -0.57357642473473569 0.28678821236736785 0 0.40957602621140993 1 I I -0.70710678118654746 0.70710678118654746 0.5 forward I I I I #
loop $-1 $-1 $157 $39 #
coedge $-1 $99 $99 $158 $159 reversed $62 $-1 #
face $-1 $160 $161 $24 $-1 $162 reversed single #
loop $-1 $-1 $163 $64 #
plane-surface $-1 0 -32.191061713946446 0 0 1 0 0 0 1 forward_v I I I I #
coedge $-1 $164 $165 $166 $167 forward $65 $-1 #
coedge $-1 $168 $67 $169 $170 forward $41 $-1 #
coedge $-1 $67 $168 $171 $172 forward $41 $-1 #
coedge $-1 $173 $174 $67 $107 reversed $175 $-1 #
edge $-1 $176 -32.191061713946446 $177 32.191061713946446 $106 $178 forward 7 unknown #
face $-1 $179 $180 $25 $-1 $181 reversed single #
loop $-1 $-1 $182 $68 #
plane-surface $-1 -62.199163792840359 0 0 1 0 0 0 0 -1 forward_v I I I I #
coedge $-1 $183 $184 $185 $186 reversed $69 $-1 #
coedge $-1 $187 $71 $188 $189 reversed $44 $-1 #
coedge $-1 $71 $187 $183 $190 forward $44 $-1 #
coedge $-1 $185 $191 $71 $115 forward $192 $-1 #
edge $-1 $193 -18.677348935558818 $194 -8.3500766212164432 $114 $195 forward 7 unknown #
face $-1 $196 $197 $26 $-1 $198 reversed single #
loop $-1 $-1 $199 $72 #
plane-surface $-1 34.678306681760127 -13.372646320867103 176.11485602568499 0 1 0 0.5877852598018023 0 0.80901698891910034 forward_v I I I I #
coedge $-1 $200 $201 $202 $203 reversed $73 $-1 #
coedge $-1 $121 $75 $204 $205 reversed $47 $-1 #
coedge $-1 $75 $120 $200 $206 reversed $47 $-1 #
coedge $-1 $202 $207 $75 $123 forward $208 $-1 #
edge $-1 $209 -44.860010451960292 $210 -36.839263041041093 $122 $211 forward 7 unknown #
loop $-1 $-1 $129 $76 #
plane-surface $-1 -38.441196617098917 -9.6360401095346973 75.47449561574571 0.5877852598018023 0 0.80901698891910034 0.80901698891910034 0 -0.5877852598018023 forward_v I I I I #
loop $-1 $-1 $212 $49 #
coedge $-1 $127 $127 $128 $213 reversed $77 $-1 #
coedge $-1 $128 $128 $127 $213 forward $79 $-1 #
coedge $-1 $129 $129 $80 $130 forward $124 $-1 #
edge $-1 $214 0 $214 6.2831853071796004 $129 $215 forward 7 unknown #
loop $-1 $-1 $136 $81 #
plane-surface $-1 -38.441196617098917 -9.6360401095346973 75.47449561574571 0.5877852598018023 0 0.80901698891910034 0.80901698891910034 0 -0.5877852598018023 forward_v I I I I #
loop $-1 $-1 $216 $52 #
coedge $-1 $134 $134 $135 $217 reversed $82 $-1 #
coedge $-1 $135 $135 $134 $217 forward $84 $-1 #
coedge $-1 $136 $136 $85 $137 forward $131 $-1 #
edge $-1 $218 0 $218 6.2831853071796004 $136 $219 forward 7 unknown #
face $-1 $220 $221 $29 $-1 $222 reversed single #
loop $-1 $-1 $144 $86 #
plane-surface $-1 0 0 8.1824065310561593 0 0 1 1 0 0 forward_v I I I I #
coedge $-1 $223 $224 $225 $226 reversed $87 $-1 #
coedge $-1 $143 $89 $227 $228 reversed $56 $-1 #
coedge $-1 $89 $142 $223 $229 reversed $56 $-1 #
coedge $-1 $225 $230 $89 $145 forward $139 $-1 #
edge $-1 $231 19.850990783468141 $232 22.439220693387156 $144 $233 forward 7 unknown #
loop $-1 $-1 $151 $90 #
plane-surface $-1 -62.199163792840352 24.496424793721253 4.4860310326510415 -0.81915205242281985 0 0.57357642473473569 0.57357642473473569 0 0.81915205242281985 forward_v I I I I #
loop $-1 $-1 $234 $58 #
coedge $-1 $149 $149 $150 $235 reversed $91 $-1 #
coedge $-1 $150 $150 $149 $235 forward $93 $-1 #
coedge $-1 $151 $151 $94 $152 forward $146 $-1 #
edge $-1 $236 0 $236 6.2831853071796004 $151 $237 forward 7 unknown #
loop $-1 $-1 $158 $95 #
plane-surface $-1 -62.199163792840352 24.496424793721253 4.4860310326510415 -0.81915205242281985 0 0.57357642473473569 0.57357642473473569 0 0.81915205242281985 forward_v I I I I #
loop $-1 $-1 $238 $61 #
coedge $-1 $156 $156 $157 $239 reversed $96 $-1 #
coedge $-1 $157 $157 $156 $239 forward $98 $-1 #
coedge $-1 $158 $158 $99 $159 forward $153 $-1 #
edge $-1 $240 0 $240 6.2831853071796004 $158 $241 forward 7 unknown #
face $-1 $242 $243 $24 $-1 $244 reversed single #
loop $-1 $-1 $245 $100 #
plane-surface $-1 -62.199163792840359 0 0 1 0 0 0 0 -1 forward_v I I I I #
coedge $-1 $246 $171 $247 $248 forward $101 $-1 #
coedge $-1 $249 $103 $246 $250 forward $65 $-1 #
coedge $-1 $103 $249 $251 $252 forward $65 $-1 #
coedge $-1 $174 $173 $103 $167 reversed $175 $-1 #
edge $-1 $253 -32.191061713946446 $254 32.191061713946446 $166 $255 forward 7 unknown #
coedge $-1 $105 $104 $256 $257 forward $41 $-1 #
coedge $-1 $258 $259 $104 $170 reversed $243 $-1 #
edge $-1 $177 -62.199163792840359 $260 62.199163792840359 $169 $261 forward 7 unknown #
coedge $-1 $163 $262 $105 $172 reversed $101 $-1 #
edge $-1 $263 -62.199163792840359 $176 62.199163792840359 $171 $264 forward 7 unknown #
coedge $-1 $166 $106 $262 $265 forward $175 $-1 #
coedge $-1 $106 $166 $258 $266 reversed $175 $-1 #
loop $-1 $-1 $173 $242 #
vertex $-1 $107 $267 #
vertex $-1 $107 $268 #
straight-curve $-1 62.199163792840359 0 8.1824065310561593 0 1 0 I I #
face $-1 $269 $270 $25 $-1 $271 forward single #
loop $-1 $-1 $188 $108 #
plane-surface $-1 0 -32.191061713946446 0 0 1 0 0 0 1 forward_v I I I I #
coedge $-1 $272 $273 $274 $275 forward $109 $-1 #
coedge $-1 $274 $111 $113 $190 reversed $69 $-1 #
coedge $-1 $111 $274 $276 $277 reversed $69 $-1 #
coedge $-1 $278 $114 $111 $186 forward $192 $-1 #
edge $-1 $194 1.2293586984684604 $279 5.0451514545479528 $185 $280 forward 7 unknown #
coedge $-1 $113 $112 $272 $281 reversed $44 $-1 #
coedge $-1 $282 $283 $112 $189 forward $180 $-1 #
edge $-1 $284 -62.199163792840359 $193 62.199163792840359 $188 $285 forward 7 unknown #
edge $-1 $286 -62.199163792840359 $194 62.199163792840359 $183 $287 forward 7 unknown #
coedge $-1 $114 $278 $282 $288 forward $192 $-1 #
loop $-1 $-1 $185 $269 #
vertex $-1 $189 $289 #
vertex $-1 $115 $290 #
straight-curve $-1 62.199163792840359 -13.51371277838763 4.3666137749766669 0 1 0 I I #
face $-1 $-1 $208 $26 $-1 $291 forward single #
loop $-1 $-1 $292 $116 #
plane-surface $-1 62.199163792840359 0 0 -1 0 0 0 0 1 forward_v I I I I #
coedge $-1 $293 $294 $295 $296 reversed $117 $-1 #
coedge $-1 $297 $119 $121 $206 forward $73 $-1 #
coedge $-1 $119 $297 $293 $298 forward $73 $-1 #
coedge $-1 $295 $122 $119 $203 forward $208 $-1 #
edge $-1 $210 1.0814138434349427 $299 8.5546262660997545 $202 $300 forward 7 unknown #
coedge $-1 $301 $302 $120 $205 forward $197 $-1 #
edge $-1 $303 -85.702435695955828 $209 -79.875021481786334 $204 $304 forward 7 unknown #
edge $-1 $210 114.48413848856987 $303 124.3983275856807 $121 $305 forward 7 unknown #
coedge $-1 $122 $295 $301 $306 forward $208 $-1 #
loop $-1 $-1 $295 $196 #
vertex $-1 $205 $307 #
vertex $-1 $123 $308 #
straight-curve $-1 17.339153340880063 -5.8994338982022914 8.1824065310561593 -1 0 0 I I #
coedge $-1 $212 $212 $-1 $309 reversed $126 $-1 #
edge $-1 $310 0 $310 6.2831853071796004 $127 $311 forward 7 unknown #
vertex $-1 $130 $312 #
ellipse-curve $-1 58.188790087380767 -11.237442771534301 5.2686994239714071 0.5877852598018023 0 0.80901698891910034 0.80901698891910034 0 -0.5877852598018023 1 I I #
coedge $-1 $216 $216 $-1 $313 reversed $133 $-1 #
edge $-1 $314 0 $314 6.2831853071796004 $134 $315 forward 7 unknown #
vertex $-1 $137 $316 #
ellipse-curve $-1 58.188790087380767 -8.034637447535097 5.2686994239714071 0.5877852598018023 0 0.80901698891910034 0.80901698891910034 0 -0.5877852598018023 1 I I #
face $-1 $-1 $317 $29 $-1 $318 reversed single #
loop $-1 $-1 $319 $138 #
plane-surface $-1 0 32.191061713946446 0 0 -1 0 0 0 -1 forward_v I I I I #
coedge $-1 $320 $141 $143 $229 forward $87 $-1 #
coedge $-1 $141 $320 $319 $321 reversed $87 $-1 #
coedge $-1 $322 $144 $141 $226 forward $139 $-1 #
edge $-1 $232 4.5535754766354302 $323 19.942849317085827 $225 $324 forward 7 unknown #
coedge $-1 $325 $326 $142 $228 forward $317 $-1 #
edge $-1 $327 -33.432958473462079 $231 -29.736582975056955 $227 $328 forward 7 unknown #
edge $-1 $232 -4.5124412341668272 $327 1.207859054955032e-014 $143 $329 forward 7 unknown #
coedge $-1 $144 $322 $325 $330 forward $139 $-1 #
vertex $-1 $228 $331 #
vertex $-1 $145 $332 #
straight-curve $-1 -82.050154576308501 16.801787873496057 8.1824065310561593 1 0 0 I I #
coedge $-1 $234 $234 $-1 $333 reversed $148 $-1 #
edge $-1 $334 0 $334 6.2831853071796004 $149 $335 forward 7 unknown #
vertex $-1 $152 $336 #
ellipse-curve $-1 -60.905048837880855 21.198723256481877 6.334218781853596 -0.81915205242281985 0 0.57357642473473569 0.57357642473473569 0 0.81915205242281985 1 I I #
coedge $-1 $238 $238 $-1 $337 reversed $155 $-1 #
edge $-1 $338 0 $338 6.2831853071796004 $156 $339 forward 7 unknown #
vertex $-1 $159 $340 #
ellipse-curve $-1 -60.905048837880855 27.794126330960616 6.334218781853596 -0.81915205242281985 0 0.57357642473473569 0.57357642473473569 0 0.81915205242281985 1 I I #
face $-1 $-1 $175 $24 $-1 $341 reversed single #
loop $-1 $-1 $258 $160 #
plane-surface $-1 0 32.191061713946446 0 0 -1 0 0 0 -1 forward_v I I I I #
coedge $-1 $342 $256 $259 $343 forward $161 $-1 #
coedge $-1 $262 $163 $164 $250 reversed $101 $-1 #
coedge $-1 $256 $342 $163 $248 reversed $161 $-1 #
edge $-1 $263 -8.1824065310561593 $344 8.1824065310561593 $247 $345 forward 7 unknown #
coedge $-1 $165 $164 $342 $346 forward $65 $-1 #
edge $-1 $254 -62.199163792840359 $344 62.199163792840359 $246 $347 forward 7 unknown #
coedge $-1 $259 $258 $165 $252 reversed $243 $-1 #
edge $-1 $348 -62.199163792840359 $253 62.199163792840359 $251 $349 forward 7 unknown #
vertex $-1 $167 $350 #
vertex $-1 $265 $351 #
straight-curve $-1 62.199163792840359 0 -8.1824065310561593 0 -1 0 I I #
coedge $-1 $245 $247 $168 $257 reversed $161 $-1 #
edge $-1 $260 -32.191061713946446 $263 32.191061713946446 $256 $352 forward 7 unknown #
coedge $-1 $251 $169 $174 $266 forward $243 $-1 #
coedge $-1 $169 $251 $245 $343 reversed $243 $-1 #
vertex $-1 $170 $353 #
straight-curve $-1 0 32.191061713946446 8.1824065310561593 -1 0 0 I I #
coedge $-1 $171 $246 $173 $265 reversed $101 $-1 #
vertex $-1 $257 $354 #
straight-curve $-1 0 -32.191061713946446 8.1824065310561593 1 0 0 I I #
edge $-1 $176 -8.1824065310561593 $254 8.1824065310561593 $173 $355 forward 7 unknown #
edge $-1 $177 -8.1824065310561593 $253 8.1824065310561593 $174 $356 forward 7 unknown #
point $-1 62.199163792840359 -32.191061713946446 8.1824065310561593 #
point $-1 62.199163792840359 32.191061713946446 8.1824065310561593 #
face $-1 $-1 $192 $25 $-1 $357 reversed single #
loop $-1 $-1 $276 $179 #
plane-surface $-1 0 0 8.1824065310561593 0 0 1 1 0 0 forward_v I I I I #
coedge $-1 $358 $182 $187 $281 forward $109 $-1 #
coedge $-1 $182 $358 $359 $360 reversed $109 $-1 #
coedge $-1 $184 $183 $182 $275 reversed $69 $-1 #
edge $-1 $361 -5.0451514545479528 $286 -1.2293586984684604 $182 $362 forward 7 unknown #
coedge $-1 $359 $363 $184 $277 forward $270 $-1 #
edge $-1 $279 -62.199163792840359 $361 62.199163792840359 $276 $364 forward 7 unknown #
coedge $-1 $191 $185 $363 $365 reversed $192 $-1 #
vertex $-1 $186 $366 #
straight-curve $-1 62.199163792840359 -21.863789399604073 3.1372550765082066 0 0 1 I I #
edge $-1 $286 8.3500766212164432 $284 18.677348935558818 $272 $367 forward 7 unknown #
coedge $-1 $368 $188 $191 $288 reversed $180 $-1 #
coedge $-1 $188 $368 $358 $369 forward $180 $-1 #
vertex $-1 $189 $370 #
straight-curve $-1 0 -32.191061713946446 4.3666137749766669 1 0 0 I I #
vertex $-1 $281 $371 #
straight-curve $-1 0 -21.863789399604073 4.3666137749766669 1 0 0 I I #
edge $-1 $372 -8.1824065310561593 $193 -4.3666137749766669 $191 $373 forward 7 unknown #
point $-1 62.199163792840359 -32.191061713946446 4.3666137749766669 #
point $-1 62.199163792840359 -21.863789399604073 4.3666137749766669 #
plane-surface $-1 0 0 8.1824065310561593 0 0 1 1 0 0 forward_v I I I I #
coedge $-1 $302 $301 $294 $374 forward $197 $-1 #
coedge $-1 $294 $199 $201 $298 reversed $117 $-1 #
coedge $-1 $199 $293 $292 $374 reversed $117 $-1 #
coedge $-1 $207 $202 $199 $296 forward $208 $-1 #
edge $-1 $299 36.839263041041093 $375 44.860010451960292 $295 $376 forward 7 unknown #
coedge $-1 $201 $200 $302 $377 reversed $73 $-1 #
edge $-1 $378 -124.3983275856807 $299 -114.48413848856987 $293 $379 forward 7 unknown #
vertex $-1 $203 $380 #
straight-curve $-1 54.178416381921167 -4.8180200547673486 8.1824065310561522 0 -1 0 I I #
coedge $-1 $292 $204 $207 $306 reversed $197 $-1 #
coedge $-1 $204 $292 $297 $377 forward $197 $-1 #
vertex $-1 $205 $381 #
straight-curve $-1 62.199163792840359 -5.8994338982022914 88.057428012842493 0 0 1 I I #
straight-curve $-1 -38.441196617098917 -5.8994338982022914 75.47449561574571 0.80901698891910034 0 -0.5877852598018023 I I #
edge $-1 $375 -13.372646320867103 $209 -5.8994338982022914 $301 $382 forward 7 unknown #
point $-1 62.199163792840359 -5.8994338982022914 8.1824065310561593 #
point $-1 54.17841638192116 -5.8994338982022914 8.1824065310561593 #
edge $-1 $383 1 $383 0 $212 $-1 forward 7 unknown #
vertex $-1 $213 $384 #
ellipse-curve $-1 56.71741650572902 -11.237442771534301 3.2435274674572283 0.5877852598018023 0 0.80901698891910034 0.80901698891910034 0 -0.5877852598018023 1 I I #
point $-1 58.997807076299871 -11.237442771534301 4.6809141641696108 #
edge $-1 $385 1 $385 0 $216 $-1 forward 7 unknown #
vertex $-1 $217 $386 #
ellipse-curve $-1 56.71741650572902 -8.034637447535097 3.2435274674572283 0.5877852598018023 0 0.80901698891910034 0.80901698891910034 0 -0.5877852598018023 1 I I #
point $-1 58.997807076299871 -8.034637447535097 4.6809141641696108 #
loop $-1 $-1 $227 $220 #
plane-surface $-1 -62.199163792840359 0 0 1 0 0 0 0 -1 forward_v I I I I #
coedge $-1 $387 $388 $224 $321 forward $221 $-1 #
coedge $-1 $224 $223 $326 $389 reversed $87 $-1 #
edge $-1 $323 11.48817499691269 $390 16.00061623107953 $319 $391 forward 7 unknown #
coedge $-1 $230 $225 $388 $392 forward $139 $-1 #
vertex $-1 $392 $393 #
straight-curve $-1 -59.610933882921351 12.248212396860627 8.1824065310561593 0 1 0 I I #
coedge $-1 $394 $227 $230 $330 reversed $317 $-1 #
coedge $-1 $227 $394 $320 $389 forward $317 $-1 #
vertex $-1 $228 $395 #
straight-curve $-1 -62.199163792840359 16.801787873496057 37.918989506113114 0 0 1 I I #
straight-curve $-1 -62.199163792840352 16.801787873496057 4.4860310326510415 -0.57357642473473569 0 -0.81915205242281985 I I #
edge $-1 $396 -32.191061713946446 $231 -16.801787873496057 $325 $397 forward 7 unknown #
point $-1 -62.199163792840359 16.801787873496057 8.1824065310561593 #
point $-1 -59.610933882921344 16.801787873496057 8.1824065310561593 #
edge $-1 $398 1 $398 0 $234 $-1 forward 7 unknown #
vertex $-1 $235 $399 #
ellipse-curve $-1 -59.570436225476776 21.198723256481877 5.3997129982637535 -0.81915205242281985 0 0.57357642473473569 0.57357642473473569 0 0.81915205242281985 1 I I #
point $-1 -60.331472413146123 21.198723256481877 7.1533708342764228 #
edge $-1 $400 1 $400 0 $238 $-1 forward 7 unknown #
vertex $-1 $239 $401 #
ellipse-curve $-1 -59.570436225476776 27.794126330960616 5.3997129982637535 -0.81915205242281985 0 0.57357642473473569 0.57357642473473569 0 0.81915205242281985 1 I I #
point $-1 -60.331472413146123 27.794126330960616 7.1533708342764228 #
plane-surface $-1 62.199163792840359 0 0 -1 0 0 0 0 1 forward_v I I I I #
coedge $-1 $247 $245 $249 $346 reversed $161 $-1 #
edge $-1 $260 -8.1824065310561593 $348 8.1824065310561593 $259 $402 forward 7 unknown #
vertex $-1 $346 $403 #
straight-curve $-1 -62.199163792840359 -32.191061713946446 0 0 0 -1 I I #
edge $-1 $344 -32.191061713946446 $348 32.191061713946446 $342 $404 forward 7 unknown #
straight-curve $-1 0 -32.191061713946446 -8.1824065310561593 -1 0 0 I I #
vertex $-1 $252 $405 #
straight-curve $-1 0 32.191061713946446 -8.1824065310561593 1 0 0 I I #
point $-1 62.199163792840359 32.191061713946446 -8.1824065310561593 #
point $-1 62.199163792840359 -32.191061713946446 -8.1824065310561593 #
straight-curve $-1 -62.199163792840359 0 8.1824065310561593 0 -1 0 I I #
point $-1 -62.199163792840359 32.191061713946446 8.1824065310561593 #
point $-1 -62.199163792840359 -32.191061713946446 8.1824065310561593 #
straight-curve $-1 62.199163792840359 -32.191061713946446 0 0 0 -1 I I #
straight-curve $-1 62.199163792840359 32.191061713946446 0 0 0 -1 I I #
plane-surface $-1 62.199163792840359 0 0 -1 0 0 0 0 1 forward_v I I I I #
coedge $-1 $273 $272 $283 $369 reversed $109 $-1 #
coedge $-1 $406 $276 $273 $360 forward $270 $-1 #
edge $-1 $361 21.863789399604073 $407 32.191061713946446 $273 $408 forward 7 unknown #
vertex $-1 $360 $409 #
straight-curve $-1 -62.199163792840359 -21.863789399604073 3.1372550765082066 0 0 -1 I I #
coedge $-1 $276 $406 $278 $365 forward $270 $-1 #
straight-curve $-1 0 -21.863789399604073 8.1824065310561593 -1 0 0 I I #
edge $-1 $372 -32.191061713946446 $279 -21.863789399604073 $278 $410 forward 7 unknown #
point $-1 62.199163792840359 -21.863789399604073 8.1824065310561593 #
straight-curve $-1 -62.199163792840359 -13.51371277838763 4.3666137749766669 0 -1 0 I I #
coedge $-1 $283 $282 $406 $411 reversed $180 $-1 #
edge $-1 $407 -8.1824065310561593 $284 -4.3666137749766669 $358 $412 forward 7 unknown #
point $-1 -62.199163792840359 -32.191061713946446 4.3666137749766669 #
point $-1 -62.199163792840359 -21.863789399604073 4.3666137749766669 #
vertex $-1 $365 $413 #
straight-curve $-1 62.199163792840359 -32.191061713946446 0 0 0 -1 I I #
edge $-1 $375 79.875021481786334 $378 85.702435695955828 $292 $414 forward 7 unknown #
vertex $-1 $306 $415 #
straight-curve $-1 17.339153340880063 -13.372646320867103 8.1824065310561593 1 0 0 I I #
edge $-1 $378 -8.5546262660997545 $303 -1.0814138434349427 $302 $416 forward 7 unknown #
vertex $-1 $377 $417 #
straight-curve $-1 -38.441196617098917 -13.372646320867103 75.47449561574571 -0.80901698891910034 0 0.5877852598018023 I I #
point $-1 54.17841638192116 -13.372646320867103 8.1824065310561593 #
point $-1 62.199163792840359 -5.8994338982022914 2.3549923168866655 #
straight-curve $-1 62.199163792840359 0 8.1824065310561593 0 1 0 I I #
vertex $-1 $309 $418 #
point $-1 57.526433494648117 -11.237442771534301 2.6557422076554262 #
vertex $-1 $313 $419 #
point $-1 57.526433494648117 -8.034637447535097 2.6557422076554262 #
coedge $-1 $388 $319 $394 $420 reversed $221 $-1 #
coedge $-1 $319 $387 $322 $392 reversed $221 $-1 #
edge $-1 $390 -19.942849317085827 $327 -4.5535754766354302 $326 $421 forward 7 unknown #
vertex $-1 $321 $422 #
straight-curve $-1 -53.02158754146518 32.191061713946446 17.59296865836971 -0.57357642473473569 0 -0.81915205242281985 I I #
edge $-1 $323 59.610933882921344 $396 62.199163792840359 $388 $423 forward 7 unknown #
point $-1 -59.610933882921344 32.191061713946453 8.1824065310561593 #
coedge $-1 $326 $325 $387 $420 forward $317 $-1 #
point $-1 -62.199163792840359 16.801787873496057 4.4860310326510318 #
vertex $-1 $392 $424 #
straight-curve $-1 -62.199163792840359 0 8.1824065310561593 0 -1 0 I I #
vertex $-1 $333 $425 #
point $-1 -58.996859800742037 21.198723256481877 6.2188650506865732 #
vertex $-1 $337 $426 #
point $-1 -58.996859800742037 27.794126330960616 6.2188650506865732 #
straight-curve $-1 -62.199163792840359 32.191061713946446 0 0 0 -1 I I #
point $-1 -62.199163792840359 -32.191061713946446 -8.1824065310561593 #
straight-curve $-1 -62.199163792840359 0 -8.1824065310561593 0 1 0 I I #
point $-1 -62.199163792840359 32.191061713946446 -8.1824065310561593 #
coedge $-1 $363 $359 $368 $411 forward $270 $-1 #
vertex $-1 $360 $427 #
straight-curve $-1 -62.199163792840359 0 8.1824065310561593 0 -1 0 I I #
point $-1 -62.199163792840359 -21.863789399604073 8.1824065310561593 #
straight-curve $-1 62.199163792840359 0 8.1824065310561593 0 1 0 I I #
edge $-1 $407 -62.199163792840359 $372 62.199163792840359 $368 $428 forward 7 unknown #
straight-curve $-1 -62.199163792840359 -32.191061713946446 0 0 0 -1 I I #
point $-1 62.199163792840359 -32.191061713946446 8.1824065310561593 #
straight-curve $-1 62.199163792840359 -13.372646320867103 88.057428012842493 0 0 -1 I I #
point $-1 62.199163792840359 -13.372646320867103 8.1824065310561593 #
straight-curve $-1 62.199163792840359 -4.8180200547673486 2.3549923168866513 0 1 0 I I #
point $-1 62.199163792840359 -13.372646320867103 2.3549923168866655 #
point $-1 56.129631245927214 -11.237442771534301 2.4345104785381282 #
point $-1 56.129631245927214 -8.034637447535097 2.4345104785381282 #
edge $-1 $396 -8.1824065310561593 $390 -4.4860310326510318 $387 $429 forward 7 unknown #
straight-curve $-1 -62.199163792840359 12.248212396860627 4.4860310326510229 0 -1 0 I I #
point $-1 -62.199163792840359 32.191061713946453 4.4860310326510318 #
straight-curve $-1 0 32.191061713946446 8.1824065310561593 -1 0 0 I I #
point $-1 -62.199163792840359 32.191061713946446 8.1824065310561593 #
point $-1 -58.751284173053953 21.198723256481877 4.826136573529018 #
point $-1 -58.751284173053953 27.794126330960616 4.826136573529018 #
point $-1 -62.199163792840359 -32.191061713946446 8.1824065310561593 #
straight-curve $-1 0 -32.191061713946446 8.1824065310561593 1 0 0 I I #
straight-curve $-1 -62.199163792840359 32.191061713946446 0 0 0 -1 I I #
End-of-ACIS-data 