500 0 8 0           
7 Unknown 11 ACIS 5.0 NT 24 Thu Mar 25 17:31:27 1999 
-1 9.9999999999999995e-007 1e-010 
body $-1 $8 $-1 $9 #
body $-1 $10 $-1 $11 #
body $-1 $12 $-1 $13 #
body $-1 $14 $-1 $15 #
body $-1 $16 $-1 $17 #
body $-1 $18 $-1 $19 #
body $-1 $20 $-1 $21 #
body $-1 $22 $-1 $23 #
lump $-1 $-1 $24 $0 #
transform $-1 1 0 0 0 1 0 0 0 1 66.939298684652243 39.099234760133555 13.214889834225016 1 rotate no_reflect no_shear #
lump $-1 $-1 $25 $1 #
transform $-1 1 0 0 0 1 0 0 0 1 66.939298684652243 39.099234760133555 13.214889834225016 1 rotate no_reflect no_shear #
lump $-1 $-1 $26 $2 #
transform $-1 1 0 0 0 1 0 0 0 1 66.939298684652243 39.099234760133555 13.214889834225016 1 rotate no_reflect no_shear #
lump $-1 $-1 $27 $3 #
transform $-1 1 0 0 0 1 0 0 0 1 66.939298684652243 39.099234760133555 13.214889834225016 1 rotate no_reflect no_shear #
lump $-1 $-1 $28 $4 #
transform $-1 1 0 0 0 1 0 0 0 1 66.939298684652243 39.099234760133555 13.214889834225016 1 rotate no_reflect no_shear #
lump $-1 $-1 $29 $5 #
transform $-1 1 0 0 0 1 0 0 0 1 66.939298684652243 39.099234760133555 13.214889834225016 1 rotate no_reflect no_shear #
lump $-1 $-1 $30 $6 #
transform $-1 1 0 0 0 1 0 0 0 1 66.939298684652243 39.099234760133555 13.214889834225016 1 rotate no_reflect no_shear #
lump $-1 $-1 $31 $7 #
transform $-1 1 0 0 0 1 0 0 0 1 66.939298684652243 39.099234760133555 13.214889834225016 1 rotate no_reflect no_shear #
shell $-1 $-1 $-1 $32 $-1 $8 #
shell $-1 $-1 $-1 $33 $-1 $10 #
shell $-1 $-1 $-1 $34 $-1 $12 #
shell $-1 $-1 $-1 $35 $-1 $14 #
shell $-1 $-1 $-1 $36 $-1 $16 #
shell $-1 $-1 $-1 $37 $-1 $18 #
shell $-1 $-1 $-1 $38 $-1 $20 #
shell $-1 $-1 $-1 $39 $-1 $22 #
face $-1 $40 $41 $24 $-1 $42 forward single #
face $-1 $43 $44 $25 $-1 $45 forward single #
face $-1 $46 $47 $26 $-1 $48 reversed single #
face $-1 $49 $50 $27 $-1 $51 forward single #
face $-1 $52 $53 $28 $-1 $54 forward single #
face $-1 $55 $56 $29 $-1 $57 reversed single #
face $-1 $58 $59 $30 $-1 $60 forward single #
face $-1 $61 $62 $31 $-1 $63 forward single #
face $-1 $64 $65 $24 $-1 $66 reversed single #
loop $-1 $-1 $67 $32 #
plane-surface $-1 0 0 13.214889834225016 0 0 1 1 0 0 forward_v I I I I #
face $-1 $68 $69 $25 $-1 $70 reversed single #
loop $-1 $-1 $71 $33 #
plane-surface $-1 0 -33.548376081648101 -7.8677131517073668 0 0 1 1 0 0 forward_v I I I I #
face $-1 $72 $73 $26 $-1 $74 reversed single #
loop $-1 $-1 $75 $34 #
plane-surface $-1 -141.80326123316775 -6.616941874044187 117.06969110498905 0 1 0 -0.55919291073839883 0 0.82903756765294845 forward_v I I I I #
face $-1 $76 $77 $27 $-1 $78 forward single #
loop $-1 $79 $80 $35 #
cone-surface $-1 -60.839598684552577 -3.1404274304642925 8.4458819644208347 0.55919291073839883 0 -0.82903756765294845 0.82903756765294845 0 0.55919291073839883 1 I I 0 1 1 forward I I I I #
face $-1 $81 $82 $28 $-1 $83 forward single #
loop $-1 $84 $85 $36 #
cone-surface $-1 -60.839598684552577 2.0743442349055528 8.4458819644208347 0.55919291073839883 0 -0.82903756765294845 0.82903756765294845 0 0.55919291073839883 1 I I 0 1 1 forward I I I I #
face $-1 $86 $87 $29 $-1 $88 reversed single #
loop $-1 $-1 $89 $37 #
plane-surface $-1 -66.939298684652229 -0.53304159777936633 6.0793043811524399 -0.55919291073839883 0 0.82903756765294845 0.82903756765294845 0 0.55919291073839883 forward_v I I I I #
face $-1 $90 $91 $30 $-1 $92 forward single #
loop $-1 $93 $94 $38 #
cone-surface $-1 -60.839598684552577 9.0273731220653488 8.4458819644208347 0.55919291073839883 0 -0.82903756765294845 0.82903756765294845 0 0.55919291073839883 1 I I 0 1 1 forward I I I I #
face $-1 $95 $96 $31 $-1 $97 forward single #
loop $-1 $98 $99 $39 #
cone-surface $-1 -60.839598684552577 14.242144787435194 8.4458819644208347 0.55919291073839883 0 -0.82903756765294845 0.82903756765294845 0 0.55919291073839883 1 I I 0 1 1 forward I I I I #
face $-1 $100 $101 $24 $-1 $102 reversed single #
loop $-1 $-1 $103 $40 #
plane-surface $-1 0 0 -13.214889834225016 0 0 1 1 0 0 forward_v I I I I #
coedge $-1 $104 $105 $106 $107 forward $41 $-1 #
face $-1 $108 $109 $25 $-1 $110 reversed single #
loop $-1 $-1 $111 $43 #
plane-surface $-1 0 -27.997517403162647 -10.541301492966191 0 -1 0 0 0 -1 forward_v I I I I #
coedge $-1 $112 $113 $114 $115 reversed $44 $-1 #
face $-1 $116 $117 $26 $-1 $118 reversed single #
loop $-1 $-1 $119 $46 #
plane-surface $-1 -66.939298684652229 -0.53304159777936633 6.0793043811524399 -0.55919291073839883 0 0.82903756765294845 0.82903756765294845 0 0.55919291073839883 forward_v I I I I #
coedge $-1 $120 $121 $122 $123 reversed $47 $-1 #
face $-1 $-1 $124 $27 $-1 $125 forward single #
loop $-1 $126 $127 $49 #
cone-surface $-1 -59.749772369167907 -3.1404274304642925 6.8301480373264667 0.55919291073839883 0 -0.82903756765294845 0.41451878382647422 0 0.27959645536919941 1 I I -0.70710678118654746 0.70710678118654746 0.5 forward I I I I #
loop $-1 $-1 $128 $35 #
coedge $-1 $80 $80 $129 $130 reversed $50 $-1 #
face $-1 $-1 $131 $28 $-1 $132 forward single #
loop $-1 $133 $134 $52 #
cone-surface $-1 -59.749772369167907 2.0743442349055528 6.8301480373264667 0.55919291073839883 0 -0.82903756765294845 0.41451878382647422 0 0.27959645536919941 1 I I -0.70710678118654746 0.70710678118654746 0.5 forward I I I I #
loop $-1 $-1 $135 $36 #
coedge $-1 $85 $85 $136 $137 reversed $53 $-1 #
face $-1 $138 $139 $29 $-1 $140 forward single #
loop $-1 $-1 $141 $55 #
plane-surface $-1 -141.80326123316775 17.718659231015096 117.06969110498905 0 -1 0 0.55919291073839883 0 -0.82903756765294845 forward_v I I I I #
coedge $-1 $142 $143 $144 $145 reversed $56 $-1 #
face $-1 $-1 $146 $30 $-1 $147 forward single #
loop $-1 $148 $149 $58 #
cone-surface $-1 -59.749772369167907 9.0273731220653488 6.8301480373264667 0.55919291073839883 0 -0.82903756765294845 0.41451878382647422 0 0.27959645536919941 1 I I -0.70710678118654746 0.70710678118654746 0.5 forward I I I I #
loop $-1 $-1 $150 $38 #
coedge $-1 $94 $94 $151 $152 reversed $59 $-1 #
face $-1 $-1 $153 $31 $-1 $154 forward single #
loop $-1 $155 $156 $61 #
cone-surface $-1 -59.749772369167907 14.242144787435194 6.8301480373264667 0.55919291073839883 0 -0.82903756765294845 0.41451878382647422 0 0.27959645536919941 1 I I -0.70710678118654746 0.70710678118654746 0.5 forward I I I I #
loop $-1 $-1 $157 $39 #
coedge $-1 $99 $99 $158 $159 reversed $62 $-1 #
face $-1 $160 $161 $24 $-1 $162 reversed single #
loop $-1 $-1 $163 $64 #
plane-surface $-1 0 -39.099234760133555 0 0 1 0 0 0 1 forward_v I I I I #
coedge $-1 $164 $165 $166 $167 forward $65 $-1 #
coedge $-1 $168 $67 $169 $170 forward $41 $-1 #
coedge $-1 $67 $168 $171 $172 forward $41 $-1 #
coedge $-1 $173 $174 $67 $107 reversed $175 $-1 #
edge $-1 $176 -39.099234760133555 $177 39.099234760133555 $106 $178 forward 7 unknown #
face $-1 $179 $180 $25 $-1 $181 reversed single #
loop $-1 $-1 $182 $68 #
plane-surface $-1 0 0 -13.214889834225016 0 0 1 1 0 0 forward_v I I I I #
coedge $-1 $183 $184 $185 $186 reversed $69 $-1 #
coedge $-1 $187 $71 $184 $188 forward $44 $-1 #
coedge $-1 $71 $187 $189 $190 reversed $44 $-1 #
coedge $-1 $191 $185 $71 $115 forward $180 $-1 #
edge $-1 $192 11.223329362338596 $193 22.325046719309505 $114 $194 forward 7 unknown #
face $-1 $195 $196 $26 $-1 $197 forward single #
loop $-1 $-1 $198 $72 #
plane-surface $-1 -141.80326123316775 5.5508586784854543 117.06969110498905 0 -1 0 0.55919291073839883 0 -0.82903756765294845 forward_v I I I I #
coedge $-1 $199 $200 $201 $202 reversed $73 $-1 #
coedge $-1 $121 $75 $203 $204 reversed $47 $-1 #
coedge $-1 $75 $120 $199 $205 reversed $47 $-1 #
coedge $-1 $201 $206 $75 $123 forward $196 $-1 #
edge $-1 $207 3.9623319319316295 $208 14.541272212100026 $122 $209 forward 7 unknown #
loop $-1 $-1 $129 $76 #
plane-surface $-1 -66.939298684652229 -0.53304159777936633 6.0793043811524399 -0.55919291073839883 0 0.82903756765294845 0.82903756765294845 0 0.55919291073839883 forward_v I I I I #
loop $-1 $-1 $210 $49 #
coedge $-1 $127 $127 $128 $211 reversed $77 $-1 #
coedge $-1 $128 $128 $127 $211 forward $79 $-1 #
coedge $-1 $129 $129 $80 $130 forward $124 $-1 #
edge $-1 $212 0 $212 6.2831853071796004 $129 $213 forward 7 unknown #
loop $-1 $-1 $136 $81 #
plane-surface $-1 -66.939298684652229 -0.53304159777936633 6.0793043811524399 -0.55919291073839883 0 0.82903756765294845 0.82903756765294845 0 0.55919291073839883 forward_v I I I I #
loop $-1 $-1 $214 $52 #
coedge $-1 $134 $134 $135 $215 reversed $82 $-1 #
coedge $-1 $135 $135 $134 $215 forward $84 $-1 #
coedge $-1 $136 $136 $85 $137 forward $131 $-1 #
edge $-1 $216 0 $216 6.2831853071796004 $136 $217 forward 7 unknown #
face $-1 $218 $219 $29 $-1 $220 forward single #
loop $-1 $-1 $221 $86 #
plane-surface $-1 0 0 13.214889834225016 0 0 1 1 0 0 forward_v I I I I #
coedge $-1 $222 $223 $224 $225 reversed $87 $-1 #
coedge $-1 $226 $89 $227 $228 reversed $56 $-1 #
coedge $-1 $89 $226 $221 $229 reversed $56 $-1 #
coedge $-1 $230 $231 $89 $145 forward $219 $-1 #
edge $-1 $232 -1.7244626260799089e-014 $233 12.760507717542826 $144 $234 forward 7 unknown #
loop $-1 $-1 $151 $90 #
plane-surface $-1 -66.939298684652229 -0.53304159777936633 6.0793043811524399 -0.55919291073839883 0 0.82903756765294845 0.82903756765294845 0 0.55919291073839883 forward_v I I I I #
loop $-1 $-1 $235 $58 #
coedge $-1 $149 $149 $150 $236 reversed $91 $-1 #
coedge $-1 $150 $150 $149 $236 forward $93 $-1 #
coedge $-1 $151 $151 $94 $152 forward $146 $-1 #
edge $-1 $237 0 $237 6.2831853071796004 $151 $238 forward 7 unknown #
loop $-1 $-1 $158 $95 #
plane-surface $-1 -66.939298684652229 -0.53304159777936633 6.0793043811524399 -0.55919291073839883 0 0.82903756765294845 0.82903756765294845 0 0.55919291073839883 forward_v I I I I #
loop $-1 $-1 $239 $61 #
coedge $-1 $156 $156 $157 $240 reversed $96 $-1 #
coedge $-1 $157 $157 $156 $240 forward $98 $-1 #
coedge $-1 $158 $158 $99 $159 forward $153 $-1 #
edge $-1 $241 0 $241 6.2831853071796004 $158 $242 forward 7 unknown #
face $-1 $243 $244 $24 $-1 $245 reversed single #
loop $-1 $-1 $246 $100 #
plane-surface $-1 -66.939298684652243 0 0 1 0 0 0 0 -1 forward_v I I I I #
coedge $-1 $247 $171 $248 $249 forward $101 $-1 #
coedge $-1 $250 $103 $247 $251 forward $65 $-1 #
coedge $-1 $103 $250 $252 $253 forward $65 $-1 #
coedge $-1 $174 $173 $103 $167 reversed $175 $-1 #
edge $-1 $254 -39.099234760133555 $255 39.099234760133555 $166 $256 forward 7 unknown #
coedge $-1 $105 $104 $257 $258 forward $41 $-1 #
coedge $-1 $259 $260 $104 $170 reversed $244 $-1 #
edge $-1 $177 -66.939298684652243 $261 66.939298684652243 $169 $262 forward 7 unknown #
coedge $-1 $163 $263 $105 $172 reversed $101 $-1 #
edge $-1 $264 -66.939298684652243 $176 66.939298684652243 $171 $265 forward 7 unknown #
coedge $-1 $166 $106 $263 $266 forward $175 $-1 #
coedge $-1 $106 $166 $259 $267 reversed $175 $-1 #
loop $-1 $-1 $173 $243 #
vertex $-1 $107 $268 #
vertex $-1 $107 $269 #
straight-curve $-1 66.939298684652243 0 13.214889834225016 0 1 0 I I #
face $-1 $270 $271 $25 $-1 $272 reversed single #
loop $-1 $-1 $185 $108 #
plane-surface $-1 66.939298684652243 0 0 -1 0 0 0 0 1 forward_v I I I I #
coedge $-1 $273 $274 $183 $275 forward $109 $-1 #
coedge $-1 $276 $111 $182 $275 reversed $69 $-1 #
coedge $-1 $111 $276 $112 $188 reversed $69 $-1 #
coedge $-1 $114 $277 $111 $186 forward $180 $-1 #
edge $-1 $278 -7.94423908774192 $192 -2.5970624052242712 $185 $279 forward 7 unknown #
coedge $-1 $113 $112 $280 $281 reversed $44 $-1 #
edge $-1 $192 -66.939298684652243 $282 66.939298684652243 $184 $283 forward 7 unknown #
coedge $-1 $284 $285 $113 $190 forward $271 $-1 #
edge $-1 $193 -66.939298684652243 $286 66.939298684652243 $189 $287 forward 7 unknown #
coedge $-1 $277 $114 $285 $288 forward $180 $-1 #
vertex $-1 $115 $289 #
vertex $-1 $288 $290 #
straight-curve $-1 66.939298684652243 -16.77418804082405 -7.8677131517073668 0 -1 0 I I #
face $-1 $-1 $291 $26 $-1 $292 reversed single #
loop $-1 $-1 $122 $116 #
plane-surface $-1 0 0 13.214889834225016 0 0 1 1 0 0 forward_v I I I I #
coedge $-1 $293 $294 $295 $296 reversed $117 $-1 #
coedge $-1 $297 $119 $121 $205 forward $73 $-1 #
coedge $-1 $119 $297 $293 $298 forward $73 $-1 #
coedge $-1 $295 $122 $119 $202 forward $196 $-1 #
edge $-1 $208 -6.3504210751545038 $299 5.8173794773751375 $201 $300 forward 7 unknown #
coedge $-1 $301 $302 $120 $204 forward $291 $-1 #
edge $-1 $303 -52.455541171342091 $207 -45.319955718269512 $203 $304 forward 7 unknown #
edge $-1 $208 -12.760507717542826 $303 1.7244626260799089e-014 $121 $305 forward 7 unknown #
coedge $-1 $122 $295 $301 $306 forward $196 $-1 #
vertex $-1 $204 $307 #
vertex $-1 $123 $308 #
straight-curve $-1 -70.901630616583873 -6.616941874044187 13.214889834225019 1 0 0 I I #
coedge $-1 $210 $210 $-1 $309 reversed $126 $-1 #
edge $-1 $310 0 $310 6.2831853071796004 $127 $311 forward 7 unknown #
vertex $-1 $130 $312 #
ellipse-curve $-1 -61.649828544568045 -3.1404274304642925 9.6470971076887224 -0.55919291073839883 0 0.82903756765294845 0.82903756765294845 0 0.55919291073839883 1 I I #
coedge $-1 $214 $214 $-1 $313 reversed $133 $-1 #
edge $-1 $314 0 $314 6.2831853071796004 $134 $315 forward 7 unknown #
vertex $-1 $137 $316 #
ellipse-curve $-1 -61.649828544568045 2.0743442349055528 9.6470971076887224 -0.55919291073839883 0 0.82903756765294845 0.82903756765294845 0 0.55919291073839883 1 I I #
face $-1 $-1 $317 $29 $-1 $318 reversed single #
loop $-1 $-1 $230 $138 #
plane-surface $-1 -141.80326123316775 5.5508586784854543 117.06969110498905 0 -1 0 0.55919291073839883 0 -0.82903756765294845 forward_v I I I I #
coedge $-1 $224 $319 $143 $229 forward $139 $-1 #
coedge $-1 $223 $141 $226 $320 reversed $87 $-1 #
coedge $-1 $141 $222 $321 $322 reversed $87 $-1 #
coedge $-1 $323 $221 $141 $225 forward $139 $-1 #
edge $-1 $324 -14.541272212100026 $325 -3.9623319319316295 $224 $326 forward 7 unknown #
coedge $-1 $143 $142 $222 $320 forward $56 $-1 #
coedge $-1 $327 $321 $142 $228 forward $317 $-1 #
edge $-1 $328 -17.985180029904779 $232 -5.8173794773751375 $227 $329 forward 7 unknown #
edge $-1 $233 5.8173794773751375 $324 17.985180029904779 $221 $330 forward 7 unknown #
coedge $-1 $231 $144 $319 $331 reversed $219 $-1 #
coedge $-1 $144 $230 $327 $332 reversed $219 $-1 #
vertex $-1 $228 $333 #
vertex $-1 $229 $334 #
straight-curve $-1 -66.939298684652229 5.5508586784854543 6.0793043811524399 0.82903756765294845 0 0.55919291073839883 I I #
coedge $-1 $235 $235 $-1 $335 reversed $148 $-1 #
edge $-1 $336 0 $336 6.2831853071796004 $149 $337 forward 7 unknown #
vertex $-1 $152 $338 #
ellipse-curve $-1 -61.649828544568045 9.0273731220653488 9.6470971076887224 -0.55919291073839883 0 0.82903756765294845 0.82903756765294845 0 0.55919291073839883 1 I I #
coedge $-1 $239 $239 $-1 $339 reversed $155 $-1 #
edge $-1 $340 0 $340 6.2831853071796004 $156 $341 forward 7 unknown #
vertex $-1 $159 $342 #
ellipse-curve $-1 -61.649828544568045 14.242144787435194 9.6470971076887224 -0.55919291073839883 0 0.82903756765294845 0.82903756765294845 0 0.55919291073839883 1 I I #
face $-1 $-1 $175 $24 $-1 $343 reversed single #
loop $-1 $-1 $259 $160 #
plane-surface $-1 0 39.099234760133555 0 0 -1 0 0 0 -1 forward_v I I I I #
coedge $-1 $344 $257 $260 $345 forward $161 $-1 #
coedge $-1 $263 $163 $164 $251 reversed $101 $-1 #
coedge $-1 $257 $344 $163 $249 reversed $161 $-1 #
edge $-1 $264 -13.214889834225016 $346 13.214889834225016 $248 $347 forward 7 unknown #
coedge $-1 $165 $164 $344 $348 forward $65 $-1 #
edge $-1 $255 -66.939298684652243 $346 66.939298684652243 $247 $349 forward 7 unknown #
coedge $-1 $260 $259 $165 $253 reversed $244 $-1 #
edge $-1 $350 -66.939298684652243 $254 66.939298684652243 $252 $351 forward 7 unknown #
vertex $-1 $167 $352 #
vertex $-1 $266 $353 #
straight-curve $-1 66.939298684652243 0 -13.214889834225016 0 -1 0 I I #
coedge $-1 $246 $248 $168 $258 reversed $161 $-1 #
edge $-1 $261 -39.099234760133555 $264 39.099234760133555 $257 $354 forward 7 unknown #
coedge $-1 $252 $169 $174 $267 forward $244 $-1 #
coedge $-1 $169 $252 $246 $345 reversed $244 $-1 #
vertex $-1 $170 $355 #
straight-curve $-1 0 39.099234760133555 13.214889834225016 -1 0 0 I I #
coedge $-1 $171 $247 $173 $266 reversed $101 $-1 #
vertex $-1 $258 $356 #
straight-curve $-1 0 -39.099234760133555 13.214889834225016 1 0 0 I I #
edge $-1 $176 -13.214889834225016 $255 13.214889834225016 $173 $357 forward 7 unknown #
edge $-1 $177 -13.214889834225016 $254 13.214889834225016 $174 $358 forward 7 unknown #
point $-1 66.939298684652243 -39.099234760133555 13.214889834225016 #
point $-1 66.939298684652243 39.099234760133555 13.214889834225016 #
face $-1 $-1 $359 $25 $-1 $360 reversed single #
loop $-1 $-1 $189 $179 #
plane-surface $-1 0 -39.099234760133555 0 0 1 0 0 0 1 forward_v I I I I #
coedge $-1 $361 $182 $277 $362 forward $109 $-1 #
coedge $-1 $182 $361 $363 $364 forward $109 $-1 #
edge $-1 $365 -66.939298684652243 $278 66.939298684652243 $182 $366 forward 7 unknown #
coedge $-1 $184 $183 $367 $368 reversed $69 $-1 #
coedge $-1 $185 $191 $273 $362 reversed $180 $-1 #
vertex $-1 $362 $369 #
straight-curve $-1 66.939298684652243 -27.997517403162647 -5.2706507464830956 0 0 1 I I #
coedge $-1 $367 $370 $187 $281 forward $359 $-1 #
edge $-1 $286 -22.325046719309505 $282 -11.223329362338596 $280 $371 forward 7 unknown #
vertex $-1 $281 $372 #
straight-curve $-1 0 -27.997517403162647 -7.8677131517073668 -1 0 0 I I #
coedge $-1 $373 $189 $370 $374 forward $271 $-1 #
coedge $-1 $189 $373 $191 $288 reversed $271 $-1 #
vertex $-1 $374 $375 #
straight-curve $-1 0 -39.099234760133555 -7.8677131517073668 -1 0 0 I I #
edge $-1 $193 7.8677131517073668 $376 13.214889834225016 $191 $377 forward 7 unknown #
point $-1 66.939298684652243 -27.997517403162647 -7.8677131517073668 #
point $-1 66.939298684652243 -39.099234760133555 -7.8677131517073668 #
loop $-1 $-1 $203 $195 #
plane-surface $-1 -66.939298684652243 0 0 1 0 0 0 0 -1 forward_v I I I I #
coedge $-1 $294 $198 $200 $298 reversed $117 $-1 #
coedge $-1 $198 $293 $378 $379 reversed $117 $-1 #
coedge $-1 $206 $201 $198 $296 forward $196 $-1 #
edge $-1 $299 -14.541272212100026 $380 -3.9623319319316295 $295 $381 forward 7 unknown #
coedge $-1 $200 $199 $302 $382 reversed $73 $-1 #
edge $-1 $383 -1.7244626260799089e-014 $299 12.760507717542826 $293 $384 forward 7 unknown #
vertex $-1 $202 $385 #
straight-curve $-1 -56.36035840448384 -0.26652079888968316 13.214889834225017 0 1 0 I I #
coedge $-1 $378 $203 $206 $306 reversed $291 $-1 #
coedge $-1 $203 $378 $297 $382 forward $291 $-1 #
vertex $-1 $204 $386 #
straight-curve $-1 -66.939298684652243 -6.616941874044187 58.534845552494524 0 0 1 I I #
straight-curve $-1 -66.939298684652229 -6.616941874044187 6.0793043811524399 -0.82903756765294845 0 -0.55919291073839883 I I #
edge $-1 $380 -5.5508586784854543 $207 6.616941874044187 $301 $387 forward 7 unknown #
point $-1 -66.939298684652243 -6.616941874044187 13.214889834225016 #
point $-1 -56.360358404483847 -6.616941874044187 13.214889834225016 #
edge $-1 $388 1 $388 0 $210 $-1 forward 7 unknown #
vertex $-1 $211 $389 #
ellipse-curve $-1 -60.029368824537109 -3.1404274304642925 7.2446668211529408 -0.55919291073839883 0 0.82903756765294845 0.82903756765294845 0 0.55919291073839883 1 I I #
point $-1 -60.820790976915099 -3.1404274304642925 10.206290018427126 #
edge $-1 $390 1 $390 0 $214 $-1 forward 7 unknown #
vertex $-1 $215 $391 #
ellipse-curve $-1 -60.029368824537109 2.0743442349055528 7.2446668211529408 -0.55919291073839883 0 0.82903756765294845 0.82903756765294845 0 0.55919291073839883 1 I I #
point $-1 -60.820790976915099 2.0743442349055528 10.206290018427126 #
loop $-1 $-1 $227 $218 #
plane-surface $-1 -66.939298684652243 0 0 1 0 0 0 0 -1 forward_v I I I I #
coedge $-1 $221 $323 $230 $331 forward $139 $-1 #
edge $-1 $328 -1.7244626260799089e-014 $324 12.760507717542826 $222 $392 forward 7 unknown #
coedge $-1 $227 $393 $223 $322 forward $317 $-1 #
edge $-1 $325 45.319955718269512 $328 52.455541171342091 $321 $394 forward 7 unknown #
coedge $-1 $319 $224 $393 $395 forward $139 $-1 #
vertex $-1 $225 $396 #
vertex $-1 $395 $397 #
straight-curve $-1 -70.901630616583873 17.718659231015096 13.214889834225019 -1 0 0 I I #
coedge $-1 $393 $227 $231 $332 forward $317 $-1 #
vertex $-1 $322 $398 #
straight-curve $-1 -66.939298684652243 -0.26652079888968316 6.079304381152439 0 -1 0 I I #
straight-curve $-1 -56.36035840448384 -0.26652079888968316 13.214889834225017 0 1 0 I I #
edge $-1 $399 3.9623319319316295 $233 14.541272212100026 $319 $400 forward 7 unknown #
edge $-1 $232 -52.455541171342091 $399 -45.319955718269512 $327 $401 forward 7 unknown #
point $-1 -66.939298684652243 5.5508586784854543 6.0793043811524301 #
point $-1 -56.360358404483847 5.5508586784854543 13.214889834225016 #
edge $-1 $402 1 $402 0 $235 $-1 forward 7 unknown #
vertex $-1 $236 $403 #
ellipse-curve $-1 -60.029368824537109 9.0273731220653488 7.2446668211529408 -0.55919291073839883 0 0.82903756765294845 0.82903756765294845 0 0.55919291073839883 1 I I #
point $-1 -60.820790976915099 9.0273731220653488 10.206290018427126 #
edge $-1 $404 1 $404 0 $239 $-1 forward 7 unknown #
vertex $-1 $240 $405 #
ellipse-curve $-1 -60.029368824537109 14.242144787435194 7.2446668211529408 -0.55919291073839883 0 0.82903756765294845 0.82903756765294845 0 0.55919291073839883 1 I I #
point $-1 -60.820790976915099 14.242144787435194 10.206290018427126 #
plane-surface $-1 66.939298684652243 0 0 -1 0 0 0 0 1 forward_v I I I I #
coedge $-1 $248 $246 $250 $348 reversed $161 $-1 #
edge $-1 $261 -13.214889834225016 $350 13.214889834225016 $260 $406 forward 7 unknown #
vertex $-1 $348 $407 #
straight-curve $-1 -66.939298684652243 -39.099234760133555 0 0 0 -1 I I #
edge $-1 $346 -39.099234760133555 $350 39.099234760133555 $344 $408 forward 7 unknown #
straight-curve $-1 0 -39.099234760133555 -13.214889834225016 -1 0 0 I I #
vertex $-1 $253 $409 #
straight-curve $-1 0 39.099234760133555 -13.214889834225016 1 0 0 I I #
point $-1 66.939298684652243 39.099234760133555 -13.214889834225016 #
point $-1 66.939298684652243 -39.099234760133555 -13.214889834225016 #
straight-curve $-1 -66.939298684652243 0 13.214889834225016 0 -1 0 I I #
point $-1 -66.939298684652243 39.099234760133555 13.214889834225016 #
point $-1 -66.939298684652243 -39.099234760133555 13.214889834225016 #
straight-curve $-1 66.939298684652243 -39.099234760133555 0 0 0 -1 I I #
straight-curve $-1 66.939298684652243 39.099234760133555 0 0 0 -1 I I #
loop $-1 $-1 $367 $270 #
plane-surface $-1 -66.939298684652243 0 0 1 0 0 0 0 -1 forward_v I I I I #
coedge $-1 $274 $273 $373 $410 forward $109 $-1 #
edge $-1 $278 27.997517403162647 $376 39.099234760133555 $277 $411 forward 7 unknown #
coedge $-1 $370 $367 $274 $364 reversed $359 $-1 #
edge $-1 $412 -39.099234760133555 $365 -27.997517403162647 $363 $413 forward 7 unknown #
vertex $-1 $368 $414 #
straight-curve $-1 0 -27.997517403162647 -13.214889834225016 1 0 0 I I #
coedge $-1 $363 $280 $276 $368 forward $359 $-1 #
edge $-1 $282 2.5970624052242712 $365 7.94423908774192 $367 $415 forward 7 unknown #
point $-1 66.939298684652243 -27.997517403162647 -13.214889834225016 #
coedge $-1 $280 $363 $284 $374 reversed $359 $-1 #
straight-curve $-1 -66.939298684652243 -16.77418804082405 -7.8677131517073668 0 1 0 I I #
point $-1 -66.939298684652243 -27.997517403162647 -7.8677131517073668 #
coedge $-1 $285 $284 $361 $410 reversed $271 $-1 #
edge $-1 $286 7.8677131517073668 $412 13.214889834225016 $370 $416 forward 7 unknown #
point $-1 -66.939298684652243 -39.099234760133555 -7.8677131517073668 #
vertex $-1 $288 $417 #
straight-curve $-1 66.939298684652243 -39.099234760133555 0 0 0 -1 I I #
coedge $-1 $302 $301 $294 $379 forward $291 $-1 #
edge $-1 $380 45.319955718269512 $383 52.455541171342091 $378 $418 forward 7 unknown #
vertex $-1 $306 $419 #
straight-curve $-1 -70.901630616583873 5.5508586784854543 13.214889834225019 -1 0 0 I I #
edge $-1 $383 -5.8173794773751375 $303 6.3504210751545038 $302 $420 forward 7 unknown #
vertex $-1 $382 $421 #
straight-curve $-1 -66.939298684652229 5.5508586784854543 6.0793043811524399 0.82903756765294845 0 0.55919291073839883 I I #
point $-1 -56.360358404483847 5.5508586784854543 13.214889834225016 #
point $-1 -66.939298684652243 -6.616941874044187 6.0793043811524301 #
straight-curve $-1 -66.939298684652243 0 13.214889834225016 0 -1 0 I I #
vertex $-1 $309 $422 #
point $-1 -59.200331256884155 -3.1404274304642925 7.8038597318913396 #
vertex $-1 $313 $423 #
point $-1 -59.200331256884155 2.0743442349055528 7.8038597318913396 #
straight-curve $-1 -66.939298684652229 17.718659231015096 6.0793043811524399 0.82903756765294845 0 0.55919291073839883 I I #
coedge $-1 $321 $327 $323 $395 reversed $317 $-1 #
straight-curve $-1 -66.939298684652243 17.718659231015096 58.534845552494524 0 0 -1 I I #
edge $-1 $325 -17.718659231015096 $399 -5.5508586784854543 $393 $424 forward 7 unknown #
point $-1 -56.360358404483847 17.718659231015096 13.214889834225016 #
point $-1 -66.939298684652243 17.718659231015096 13.214889834225016 #
point $-1 -66.939298684652243 17.718659231015096 6.0793043811524301 #
vertex $-1 $332 $425 #
straight-curve $-1 -70.901630616583873 5.5508586784854543 13.214889834225019 1 0 0 I I #
straight-curve $-1 -66.939298684652243 5.5508586784854543 58.534845552494524 0 0 1 I I #
vertex $-1 $335 $426 #
point $-1 -59.200331256884155 9.0273731220653488 7.8038597318913396 #
vertex $-1 $339 $427 #
point $-1 -59.200331256884155 14.242144787435194 7.8038597318913396 #
straight-curve $-1 -66.939298684652243 39.099234760133555 0 0 0 -1 I I #
point $-1 -66.939298684652243 -39.099234760133555 -13.214889834225016 #
straight-curve $-1 -66.939298684652243 0 -13.214889834225016 0 1 0 I I #
point $-1 -66.939298684652243 39.099234760133555 -13.214889834225016 #
edge $-1 $376 -66.939298684652243 $412 66.939298684652243 $373 $428 forward 7 unknown #
straight-curve $-1 66.939298684652243 0 -13.214889834225016 0 -1 0 I I #
vertex $-1 $364 $429 #
straight-curve $-1 -66.939298684652243 0 -13.214889834225016 0 1 0 I I #
point $-1 -66.939298684652243 -27.997517403162647 -13.214889834225016 #
straight-curve $-1 -66.939298684652243 -27.997517403162647 -5.2706507464830956 0 0 -1 I I #
straight-curve $-1 -66.939298684652243 -39.099234760133555 0 0 0 -1 I I #
point $-1 66.939298684652243 -39.099234760133555 -13.214889834225016 #
straight-curve $-1 -66.939298684652243 5.5508586784854543 58.534845552494524 0 0 -1 I I #
point $-1 -66.939298684652243 5.5508586784854543 13.214889834225016 #
straight-curve $-1 -66.939298684652243 -0.26652079888968316 6.079304381152439 0 -1 0 I I #
point $-1 -66.939298684652243 5.5508586784854543 6.0793043811524301 #
point $-1 -59.470175913798705 -3.1404274304642925 6.4156292534999926 #
point $-1 -59.470175913798705 2.0743442349055528 6.4156292534999926 #
straight-curve $-1 -66.939298684652243 0 13.214889834225016 0 -1 0 I I #
point $-1 -66.939298684652243 5.5508586784854543 13.214889834225016 #
point $-1 -59.470175913798705 9.0273731220653488 6.4156292534999926 #
point $-1 -59.470175913798705 14.242144787435194 6.4156292534999926 #
straight-curve $-1 0 -39.099234760133555 -13.214889834225016 -1 0 0 I I #
point $-1 -66.939298684652243 -39.099234760133555 -13.214889834225016 #
End-of-ACIS-data 