500 0 12 0           
7 Unknown 11 ACIS 5.0 NT 24 Fri Mar 26 03:09:56 1999 
-1 9.9999999999999995e-007 1e-010 
body $-1 $12 $-1 $13 #
body $-1 $14 $-1 $15 #
body $-1 $16 $-1 $17 #
body $-1 $18 $-1 $19 #
body $-1 $20 $-1 $21 #
body $-1 $22 $-1 $23 #
body $-1 $24 $-1 $25 #
body $-1 $26 $-1 $27 #
body $-1 $28 $-1 $29 #
body $-1 $30 $-1 $31 #
body $-1 $32 $-1 $33 #
body $-1 $34 $-1 $35 #
lump $-1 $-1 $36 $0 #
transform $-1 1 0 0 0 1 0 0 0 1 79.887691885128334 52.79750664960433 25.792581810730656 1 rotate no_reflect no_shear #
lump $-1 $-1 $37 $1 #
transform $-1 1 0 0 0 1 0 0 0 1 79.887691885128334 52.79750664960433 25.792581810730656 1 rotate no_reflect no_shear #
lump $-1 $-1 $38 $2 #
transform $-1 1 0 0 0 1 0 0 0 1 79.887691885128334 52.79750664960433 25.792581810730656 1 rotate no_reflect no_shear #
lump $-1 $-1 $39 $3 #
transform $-1 1 0 0 0 1 0 0 0 1 79.887691885128334 52.79750664960433 25.792581810730656 1 rotate no_reflect no_shear #
lump $-1 $-1 $40 $4 #
transform $-1 1 0 0 0 1 0 0 0 1 79.887691885128334 52.79750664960433 25.792581810730656 1 rotate no_reflect no_shear #
lump $-1 $-1 $41 $5 #
transform $-1 1 0 0 0 1 0 0 0 1 79.887691885128334 52.79750664960433 25.792581810730656 1 rotate no_reflect no_shear #
lump $-1 $-1 $42 $6 #
transform $-1 1 0 0 0 1 0 0 0 1 79.887691885128334 52.79750664960433 25.792581810730656 1 rotate no_reflect no_shear #
lump $-1 $-1 $43 $7 #
transform $-1 1 0 0 0 1 0 0 0 1 79.887691885128334 52.79750664960433 25.792581810730656 1 rotate no_reflect no_shear #
lump $-1 $-1 $44 $8 #
transform $-1 1 0 0 0 1 0 0 0 1 79.887691885128334 52.79750664960433 25.792581810730656 1 rotate no_reflect no_shear #
lump $-1 $-1 $45 $9 #
transform $-1 1 0 0 0 1 0 0 0 1 79.887691885128334 52.79750664960433 25.792581810730656 1 rotate no_reflect no_shear #
lump $-1 $-1 $46 $10 #
transform $-1 1 0 0 0 1 0 0 0 1 79.887691885128334 52.79750664960433 25.792581810730656 1 rotate no_reflect no_shear #
lump $-1 $-1 $47 $11 #
transform $-1 1 0 0 0 1 0 0 0 1 79.887691885128334 52.79750664960433 25.792581810730656 1 rotate no_reflect no_shear #
shell $-1 $-1 $-1 $48 $-1 $12 #
shell $-1 $-1 $-1 $49 $-1 $14 #
shell $-1 $-1 $-1 $50 $-1 $16 #
shell $-1 $-1 $-1 $51 $-1 $18 #
shell $-1 $-1 $-1 $52 $-1 $20 #
shell $-1 $-1 $-1 $53 $-1 $22 #
shell $-1 $-1 $-1 $54 $-1 $24 #
shell $-1 $-1 $-1 $55 $-1 $26 #
shell $-1 $-1 $-1 $56 $-1 $28 #
shell $-1 $-1 $-1 $57 $-1 $30 #
shell $-1 $-1 $-1 $58 $-1 $32 #
shell $-1 $-1 $-1 $59 $-1 $34 #
face $-1 $60 $61 $36 $-1 $62 forward single #
face $-1 $63 $64 $37 $-1 $65 forward single #
face $-1 $66 $67 $38 $-1 $68 forward single #
face $-1 $69 $70 $39 $-1 $71 reversed single #
face $-1 $72 $73 $40 $-1 $74 forward single #
face $-1 $75 $76 $41 $-1 $77 forward single #
face $-1 $78 $79 $42 $-1 $80 reversed single #
face $-1 $81 $82 $43 $-1 $83 forward single #
face $-1 $84 $85 $44 $-1 $86 forward single #
face $-1 $87 $88 $45 $-1 $89 reversed single #
face $-1 $90 $91 $46 $-1 $92 forward single #
face $-1 $93 $94 $47 $-1 $95 forward single #
face $-1 $96 $97 $36 $-1 $98 reversed single #
loop $-1 $-1 $99 $48 #
plane-surface $-1 0 0 25.792581810730656 0 0 1 1 0 0 forward_v I I I I #
face $-1 $100 $101 $37 $-1 $102 reversed single #
loop $-1 $-1 $103 $49 #
plane-surface $-1 0 -52.79750664960433 0 0 1 0 0 0 1 forward_v I I I I #
face $-1 $104 $105 $38 $-1 $106 reversed single #
loop $-1 $-1 $107 $50 #
plane-surface $-1 0 52.79750664960433 0 0 -1 0 0 0 -1 forward_v I I I I #
face $-1 $108 $109 $39 $-1 $110 reversed single #
loop $-1 $-1 $111 $51 #
plane-surface $-1 68.062044064548957 -15.035451204048758 232.5784596318959 0 -1 0 -0.66913061440640931 0 -0.74314481823134659 forward_v I I I I #
face $-1 $112 $113 $40 $-1 $114 forward single #
loop $-1 $115 $116 $52 #
cone-surface $-1 68.277032467817008 -22.155642471212477 15.099280615147579 -0.66913061440640931 0 -0.74314481823134659 0.74314481823134659 0 -0.66913061440640931 1 I I 0 1 1 forward I I I I #
face $-1 $117 $118 $41 $-1 $119 forward single #
loop $-1 $120 $121 $53 #
cone-surface $-1 68.277032467817008 -17.883527710914251 15.099280615147579 -0.66913061440640931 0 -0.74314481823134659 0.74314481823134659 0 -0.66913061440640931 1 I I 0 1 1 forward I I I I #
face $-1 $122 $123 $42 $-1 $124 reversed single #
loop $-1 $-1 $125 $54 #
plane-surface $-1 -219.63039246464825 -25.003718978077959 97.182168063400084 0 1 0 -0.87461971476443456 0 0.48480960649040278 forward_v I I I I #
face $-1 $126 $127 $43 $-1 $128 forward single #
loop $-1 $129 $130 $55 #
cone-surface $-1 -76.517611079988228 -22.147854038427976 21.821679828104603 0.87461971476443456 0 -0.48480960649040278 0.48480960649040278 0 0.87461971476443456 1 I I 0 1 1 forward I I I I #
face $-1 $131 $132 $44 $-1 $133 forward single #
loop $-1 $134 $135 $56 #
cone-surface $-1 -76.517611079988228 -17.864056628952994 21.821679828104603 0.87461971476443456 0 -0.48480960649040278 0.48480960649040278 0 0.87461971476443456 1 I I 0 1 1 forward I I I I #
face $-1 $136 $137 $45 $-1 $138 reversed single #
loop $-1 $-1 $139 $57 #
plane-surface $-1 -219.63039246464825 1.0658141036401503e-014 97.182168063400084 0 1 0 -0.87461971476443456 0 0.48480960649040278 forward_v I I I I #
face $-1 $140 $141 $46 $-1 $142 forward single #
loop $-1 $143 $144 $58 #
cone-surface $-1 -76.517611079988228 2.8558649396499902 21.821679828104603 0.87461971476443456 0 -0.48480960649040278 0.48480960649040278 0 0.87461971476443456 1 I I 0 1 1 forward I I I I #
face $-1 $145 $146 $47 $-1 $147 forward single #
loop $-1 $148 $149 $59 #
cone-surface $-1 -76.517611079988228 7.1396623491249755 21.821679828104603 0.87461971476443456 0 -0.48480960649040278 0.48480960649040278 0 0.87461971476443456 1 I I 0 1 1 forward I I I I #
face $-1 $150 $151 $36 $-1 $152 reversed single #
loop $-1 $-1 $153 $60 #
plane-surface $-1 0 0 -25.792581810730656 0 0 1 1 0 0 forward_v I I I I #
coedge $-1 $154 $155 $156 $157 forward $61 $-1 #
face $-1 $158 $159 $37 $-1 $160 forward single #
loop $-1 $-1 $161 $63 #
plane-surface $-1 -79.887691885128334 0 0 1 0 0 0 0 -1 forward_v I I I I #
coedge $-1 $162 $163 $164 $165 forward $64 $-1 #
face $-1 $166 $167 $38 $-1 $168 forward single #
loop $-1 $-1 $169 $66 #
plane-surface $-1 79.887691885128334 0 0 -1 0 0 0 0 1 forward_v I I I I #
coedge $-1 $170 $171 $172 $173 forward $67 $-1 #
face $-1 $174 $175 $39 $-1 $176 reversed single #
loop $-1 $-1 $177 $69 #
plane-surface $-1 -38.848556644662722 -20.019585091063362 113.84221110210486 0.66913061440640931 0 0.74314481823134659 0.74314481823134659 0 -0.66913061440640931 forward_v I I I I #
coedge $-1 $178 $179 $180 $181 reversed $70 $-1 #
face $-1 $-1 $182 $40 $-1 $183 forward single #
loop $-1 $184 $185 $72 #
cone-surface $-1 66.805422964457421 -22.155642471212477 13.464892719367565 -0.66913061440640931 0 -0.74314481823134659 0.3715724091156733 0 -0.33456530720320465 1 I I -0.70710678118654746 0.70710678118654746 0.5 forward I I I I #
loop $-1 $-1 $186 $52 #
coedge $-1 $116 $116 $187 $188 reversed $73 $-1 #
face $-1 $-1 $189 $41 $-1 $190 forward single #
loop $-1 $191 $192 $75 #
cone-surface $-1 66.805422964457421 -17.883527710914251 13.464892719367565 -0.66913061440640931 0 -0.74314481823134659 0.3715724091156733 0 -0.33456530720320465 1 I I -0.70710678118654746 0.70710678118654746 0.5 forward I I I I #
loop $-1 $-1 $193 $53 #
coedge $-1 $121 $121 $194 $195 reversed $76 $-1 #
face $-1 $196 $197 $42 $-1 $198 reversed single #
loop $-1 $-1 $199 $78 #
plane-surface $-1 -79.887691885128305 -20.00595533369048 19.721527130888859 -0.87461971476443456 0 0.48480960649040278 0.48480960649040278 0 0.87461971476443456 forward_v I I I I #
coedge $-1 $200 $201 $202 $203 reversed $79 $-1 #
face $-1 $-1 $204 $43 $-1 $205 forward single #
loop $-1 $206 $207 $81 #
cone-surface $-1 -74.392840635504655 -22.147854038427976 20.643900382154239 0.87461971476443456 0 -0.48480960649040278 0.24240480324520139 0 0.43730985738221728 1 I I -0.70710678118654502 0.70710678118655002 0.5 forward I I I I #
loop $-1 $-1 $208 $55 #
coedge $-1 $130 $130 $209 $210 reversed $82 $-1 #
face $-1 $-1 $211 $44 $-1 $212 forward single #
loop $-1 $213 $214 $84 #
cone-surface $-1 -74.392840635504655 -17.864056628952994 20.643900382154239 0.87461971476443456 0 -0.48480960649040278 0.24240480324520139 0 0.43730985738221728 1 I I -0.70710678118654502 0.70710678118655002 0.5 forward I I I I #
loop $-1 $-1 $215 $56 #
coedge $-1 $135 $135 $216 $217 reversed $85 $-1 #
face $-1 $218 $219 $45 $-1 $220 reversed single #
loop $-1 $-1 $221 $87 #
plane-surface $-1 -79.887691885128305 4.99776364438749 19.721527130888859 -0.87461971476443456 0 0.48480960649040278 0.48480960649040278 0 0.87461971476443456 forward_v I I I I #
coedge $-1 $222 $223 $224 $225 reversed $88 $-1 #
face $-1 $-1 $226 $46 $-1 $227 forward single #
loop $-1 $228 $229 $90 #
cone-surface $-1 -74.392840635504655 2.8558649396499902 20.643900382154239 0.87461971476443456 0 -0.48480960649040278 0.24240480324520139 0 0.43730985738221728 1 I I -0.70710678118654502 0.70710678118655002 0.5 forward I I I I #
loop $-1 $-1 $230 $58 #
coedge $-1 $144 $144 $231 $232 reversed $91 $-1 #
face $-1 $-1 $233 $47 $-1 $234 forward single #
loop $-1 $235 $236 $93 #
cone-surface $-1 -74.392840635504655 7.1396623491249755 20.643900382154239 0.87461971476443456 0 -0.48480960649040278 0.24240480324520139 0 0.43730985738221728 1 I I -0.70710678118654502 0.70710678118655002 0.5 forward I I I I #
loop $-1 $-1 $237 $59 #
coedge $-1 $149 $149 $238 $239 reversed $94 $-1 #
face $-1 $240 $241 $36 $-1 $242 reversed single #
loop $-1 $-1 $243 $96 #
plane-surface $-1 0 -52.79750664960433 0 0 1 0 0 0 1 forward_v I I I I #
coedge $-1 $244 $245 $246 $247 forward $97 $-1 #
coedge $-1 $248 $99 $249 $250 forward $61 $-1 #
coedge $-1 $99 $248 $251 $252 forward $61 $-1 #
coedge $-1 $253 $254 $99 $157 reversed $255 $-1 #
edge $-1 $256 -52.79750664960433 $257 52.79750664960433 $156 $258 forward 7 unknown #
face $-1 $259 $260 $37 $-1 $261 reversed single #
loop $-1 $-1 $262 $100 #
plane-surface $-1 0 -66.69440048536751 22.070779939407714 0 0 1 1 0 0 forward_v I I I I #
coedge $-1 $263 $264 $163 $265 forward $101 $-1 #
coedge $-1 $266 $103 $267 $268 reversed $64 $-1 #
coedge $-1 $103 $266 $161 $265 reversed $64 $-1 #
coedge $-1 $269 $262 $103 $165 reversed $159 $-1 #
edge $-1 $270 -79.887691885128334 $271 79.887691885128334 $164 $272 forward 7 unknown #
face $-1 $273 $274 $38 $-1 $275 reversed single #
loop $-1 $-1 $276 $104 #
plane-surface $-1 0 66.69440048536751 22.070779939407714 0 0 1 1 0 0 forward_v I I I I #
coedge $-1 $277 $278 $171 $279 forward $105 $-1 #
coedge $-1 $280 $107 $281 $282 reversed $67 $-1 #
coedge $-1 $107 $280 $169 $279 reversed $67 $-1 #
coedge $-1 $276 $283 $107 $173 reversed $167 $-1 #
edge $-1 $284 -79.887691885128334 $285 79.887691885128334 $172 $286 forward 7 unknown #
face $-1 $287 $288 $39 $-1 $289 forward single #
loop $-1 $-1 $290 $108 #
plane-surface $-1 68.062044064548957 -25.003718978077966 232.5784596318959 0 1 0 0.66913061440640931 0 0.74314481823134659 forward_v I I I I #
coedge $-1 $291 $292 $293 $294 reversed $109 $-1 #
coedge $-1 $179 $111 $295 $296 reversed $70 $-1 #
coedge $-1 $111 $178 $291 $297 reversed $70 $-1 #
coedge $-1 $293 $298 $111 $181 forward $288 $-1 #
edge $-1 $299 -45.856669852853855 $300 -24.909439410543953 $180 $301 forward 7 unknown #
loop $-1 $-1 $187 $112 #
plane-surface $-1 -38.848556644662722 -20.019585091063362 113.84221110210486 0.66913061440640931 0 0.74314481823134659 0.74314481823134659 0 -0.66913061440640931 forward_v I I I I #
loop $-1 $-1 $302 $72 #
coedge $-1 $185 $185 $186 $303 reversed $113 $-1 #
coedge $-1 $186 $186 $185 $303 forward $115 $-1 #
coedge $-1 $187 $187 $116 $188 forward $182 $-1 #
edge $-1 $304 0 $304 6.2831853071796004 $187 $305 forward 7 unknown #
loop $-1 $-1 $194 $117 #
plane-surface $-1 -38.848556644662722 -20.019585091063362 113.84221110210486 0.66913061440640931 0 0.74314481823134659 0.74314481823134659 0 -0.66913061440640931 forward_v I I I I #
loop $-1 $-1 $306 $75 #
coedge $-1 $192 $192 $193 $307 reversed $118 $-1 #
coedge $-1 $193 $193 $192 $307 forward $120 $-1 #
coedge $-1 $194 $194 $121 $195 forward $189 $-1 #
edge $-1 $308 0 $308 6.2831853071796004 $194 $309 forward 7 unknown #
face $-1 $310 $311 $42 $-1 $312 reversed single #
loop $-1 $-1 $313 $122 #
plane-surface $-1 -219.63039246464825 -15.008191689303001 97.182168063400084 0 -1 0 0.87461971476443456 0 -0.48480960649040278 forward_v I I I I #
coedge $-1 $314 $315 $316 $317 reversed $123 $-1 #
coedge $-1 $201 $125 $318 $319 reversed $79 $-1 #
coedge $-1 $125 $200 $314 $320 reversed $79 $-1 #
coedge $-1 $316 $321 $125 $203 forward $322 $-1 #
edge $-1 $323 29.927504347195793 $324 33.292744783273292 $202 $325 forward 7 unknown #
loop $-1 $-1 $209 $126 #
plane-surface $-1 -79.887691885128305 -20.00595533369048 19.721527130888859 -0.87461971476443456 0 0.48480960649040278 0.48480960649040278 0 0.87461971476443456 forward_v I I I I #
loop $-1 $-1 $326 $81 #
coedge $-1 $207 $207 $208 $327 reversed $127 $-1 #
coedge $-1 $208 $208 $207 $327 forward $129 $-1 #
coedge $-1 $209 $209 $130 $210 forward $204 $-1 #
edge $-1 $328 0 $328 6.2831853071796004 $209 $329 forward 7 unknown #
loop $-1 $-1 $216 $131 #
plane-surface $-1 -79.887691885128305 -20.00595533369048 19.721527130888859 -0.87461971476443456 0 0.48480960649040278 0.48480960649040278 0 0.87461971476443456 forward_v I I I I #
loop $-1 $-1 $330 $84 #
coedge $-1 $214 $214 $215 $331 reversed $132 $-1 #
coedge $-1 $215 $215 $214 $331 forward $134 $-1 #
coedge $-1 $216 $216 $135 $217 forward $211 $-1 #
edge $-1 $332 0 $332 6.2831853071796004 $216 $333 forward 7 unknown #
face $-1 $334 $335 $45 $-1 $336 forward single #
loop $-1 $-1 $337 $136 #
plane-surface $-1 -219.63039246464825 9.9955272887749693 97.182168063400084 0 -1 0 0.87461971476443456 0 -0.48480960649040278 forward_v I I I I #
coedge $-1 $338 $339 $340 $341 reversed $137 $-1 #
coedge $-1 $223 $139 $342 $343 reversed $88 $-1 #
coedge $-1 $139 $222 $338 $344 reversed $88 $-1 #
coedge $-1 $340 $345 $139 $225 forward $335 $-1 #
edge $-1 $346 29.927504347195793 $347 33.292744783273292 $224 $348 forward 7 unknown #
loop $-1 $-1 $231 $140 #
plane-surface $-1 -79.887691885128305 4.99776364438749 19.721527130888859 -0.87461971476443456 0 0.48480960649040278 0.48480960649040278 0 0.87461971476443456 forward_v I I I I #
loop $-1 $-1 $349 $90 #
coedge $-1 $229 $229 $230 $350 reversed $141 $-1 #
coedge $-1 $230 $230 $229 $350 forward $143 $-1 #
coedge $-1 $231 $231 $144 $232 forward $226 $-1 #
edge $-1 $351 0 $351 6.2831853071796004 $231 $352 forward 7 unknown #
loop $-1 $-1 $238 $145 #
plane-surface $-1 -79.887691885128305 4.99776364438749 19.721527130888859 -0.87461971476443456 0 0.48480960649040278 0.48480960649040278 0 0.87461971476443456 forward_v I I I I #
loop $-1 $-1 $353 $93 #
coedge $-1 $236 $236 $237 $354 reversed $146 $-1 #
coedge $-1 $237 $237 $236 $354 forward $148 $-1 #
coedge $-1 $238 $238 $149 $239 forward $233 $-1 #
edge $-1 $355 0 $355 6.2831853071796004 $238 $356 forward 7 unknown #
face $-1 $357 $358 $36 $-1 $359 reversed single #
loop $-1 $-1 $360 $150 #
plane-surface $-1 -79.887691885128334 0 0 1 0 0 0 0 -1 forward_v I I I I #
coedge $-1 $361 $251 $362 $363 forward $151 $-1 #
coedge $-1 $364 $153 $361 $365 forward $97 $-1 #
coedge $-1 $153 $364 $366 $367 forward $97 $-1 #
coedge $-1 $254 $253 $153 $247 reversed $255 $-1 #
edge $-1 $368 -52.79750664960433 $369 52.79750664960433 $246 $370 forward 7 unknown #
coedge $-1 $155 $154 $371 $372 forward $61 $-1 #
coedge $-1 $373 $374 $154 $250 reversed $358 $-1 #
edge $-1 $257 -79.887691885128334 $375 79.887691885128334 $249 $376 forward 7 unknown #
coedge $-1 $243 $377 $155 $252 reversed $151 $-1 #
edge $-1 $378 -79.887691885128334 $256 79.887691885128334 $251 $379 forward 7 unknown #
coedge $-1 $246 $156 $377 $380 forward $255 $-1 #
coedge $-1 $156 $246 $373 $381 reversed $255 $-1 #
loop $-1 $-1 $253 $357 #
vertex $-1 $157 $382 #
vertex $-1 $157 $383 #
straight-curve $-1 79.887691885128334 0 25.792581810730656 0 1 0 I I #
face $-1 $384 $385 $37 $-1 $386 reversed single #
loop $-1 $-1 $387 $158 #
plane-surface $-1 0 -66.69440048536751 12.036649339288452 0 0 1 1 0 0 forward_v I I I I #
coedge $-1 $164 $388 $389 $390 forward $159 $-1 #
coedge $-1 $391 $161 $392 $393 reversed $101 $-1 #
coedge $-1 $161 $391 $269 $394 reversed $101 $-1 #
edge $-1 $270 -22.070779939407714 $395 -12.036649339288452 $161 $396 forward 7 unknown #
coedge $-1 $163 $162 $397 $398 forward $64 $-1 #
coedge $-1 $389 $399 $162 $268 forward $400 $-1 #
edge $-1 $401 12.036649339288452 $271 22.070779939407714 $267 $402 forward 7 unknown #
coedge $-1 $388 $164 $264 $394 forward $159 $-1 #
vertex $-1 $265 $403 #
vertex $-1 $390 $404 #
straight-curve $-1 0 -52.79750664960433 22.070779939407714 1 0 0 I I #
face $-1 $405 $406 $38 $-1 $407 reversed single #
loop $-1 $-1 $408 $166 #
plane-surface $-1 0 66.69440048536751 12.036649339288452 0 0 1 1 0 0 forward_v I I I I #
coedge $-1 $409 $172 $278 $410 forward $167 $-1 #
coedge $-1 $411 $169 $408 $412 reversed $105 $-1 #
coedge $-1 $169 $411 $276 $410 reversed $105 $-1 #
edge $-1 $284 -22.070779939407714 $413 -12.036649339288452 $169 $414 forward 7 unknown #
coedge $-1 $171 $170 $415 $416 forward $67 $-1 #
coedge $-1 $417 $418 $170 $282 forward $419 $-1 #
edge $-1 $420 12.036649339288452 $285 22.070779939407714 $281 $421 forward 7 unknown #
coedge $-1 $172 $409 $417 $422 forward $167 $-1 #
vertex $-1 $279 $423 #
vertex $-1 $422 $424 #
straight-curve $-1 0 52.79750664960433 22.070779939407714 -1 0 0 I I #
face $-1 $-1 $425 $39 $-1 $426 reversed single #
loop $-1 $-1 $180 $174 #
plane-surface $-1 0 0 25.792581810730656 0 0 1 1 0 0 forward_v I I I I #
coedge $-1 $427 $428 $429 $430 reversed $175 $-1 #
coedge $-1 $431 $177 $179 $297 forward $109 $-1 #
coedge $-1 $177 $431 $427 $432 forward $109 $-1 #
coedge $-1 $429 $180 $177 $294 forward $288 $-1 #
edge $-1 $300 5.0256586585170773 $433 14.993926432546285 $293 $434 forward 7 unknown #
coedge $-1 $435 $436 $178 $296 forward $425 $-1 #
edge $-1 $437 -109.3576194230548 $299 -90.496648005217295 $295 $438 forward 7 unknown #
edge $-1 $300 131.58810461763684 $437 159.7753837702567 $179 $439 forward 7 unknown #
coedge $-1 $180 $429 $435 $440 forward $288 $-1 #
vertex $-1 $296 $441 #
vertex $-1 $181 $442 #
straight-curve $-1 34.031022032274478 -15.035451204048758 25.792581810730653 -1 0 0 I I #
coedge $-1 $302 $302 $-1 $443 reversed $184 $-1 #
edge $-1 $444 0 $444 6.2831853071796004 $185 $445 forward 7 unknown #
vertex $-1 $188 $446 #
ellipse-curve $-1 69.414076663973376 -22.155642471212477 16.362096101811908 0.66913061440640931 0 0.74314481823134659 0.74314481823134659 0 -0.66913061440640931 1 I I #
coedge $-1 $306 $306 $-1 $447 reversed $191 $-1 #
edge $-1 $448 0 $448 6.2831853071796004 $192 $449 forward 7 unknown #
vertex $-1 $195 $450 #
ellipse-curve $-1 69.414076663973376 -17.883527710914251 16.362096101811908 0.66913061440640931 0 0.74314481823134659 0.74314481823134659 0 -0.66913061440640931 1 I I #
face $-1 $-1 $322 $42 $-1 $451 forward single #
loop $-1 $-1 $452 $196 #
plane-surface $-1 -79.887691885128334 0 0 1 0 0 0 0 -1 forward_v I I I I #
coedge $-1 $453 $454 $455 $456 reversed $197 $-1 #
coedge $-1 $457 $199 $201 $320 forward $123 $-1 #
coedge $-1 $199 $457 $453 $458 forward $123 $-1 #
coedge $-1 $455 $202 $199 $317 forward $322 $-1 #
edge $-1 $324 -15.000741311232719 $459 -5.0052140224577606 $316 $460 forward 7 unknown #
coedge $-1 $461 $462 $200 $319 forward $311 $-1 #
edge $-1 $463 -28.869556900811233 $323 -22.798502220969386 $318 $464 forward 7 unknown #
edge $-1 $324 -6.9413650039628285 $463 5.7280945706229527e-014 $201 $465 forward 7 unknown #
coedge $-1 $202 $455 $461 $466 forward $322 $-1 #
loop $-1 $-1 $455 $310 #
vertex $-1 $319 $467 #
vertex $-1 $203 $468 #
straight-curve $-1 -109.81519623232413 -25.003718978077959 25.792581810730653 1 0 0 I I #
coedge $-1 $326 $326 $-1 $469 reversed $206 $-1 #
edge $-1 $470 0 $470 6.2831853071796004 $207 $471 forward 7 unknown #
vertex $-1 $210 $472 #
ellipse-curve $-1 -78.20507166708957 -22.147854038427976 22.757054470809756 -0.87461971476443456 0 0.48480960649040278 0.48480960649040278 0 0.87461971476443456 1 I I #
coedge $-1 $330 $330 $-1 $473 reversed $213 $-1 #
edge $-1 $474 0 $474 6.2831853071796004 $214 $475 forward 7 unknown #
vertex $-1 $217 $476 #
ellipse-curve $-1 -78.20507166708957 -17.864056628952994 22.757054470809756 -0.87461971476443456 0 0.48480960649040278 0.48480960649040278 0 0.87461971476443456 1 I I #
face $-1 $-1 $477 $45 $-1 $478 reversed single #
loop $-1 $-1 $224 $218 #
plane-surface $-1 0 0 25.792581810730656 0 0 1 1 0 0 forward_v I I I I #
coedge $-1 $479 $480 $481 $482 reversed $219 $-1 #
coedge $-1 $483 $221 $223 $344 forward $137 $-1 #
coedge $-1 $221 $483 $479 $484 forward $137 $-1 #
coedge $-1 $481 $224 $221 $341 forward $335 $-1 #
edge $-1 $347 -2.4988818221937343 $485 7.4966454665812243 $340 $486 forward 7 unknown #
coedge $-1 $487 $488 $222 $343 forward $477 $-1 #
edge $-1 $489 -28.869556900811233 $346 -22.798502220969386 $342 $490 forward 7 unknown #
edge $-1 $347 -6.9413650039628285 $489 5.7280945706229527e-014 $223 $491 forward 7 unknown #
coedge $-1 $224 $481 $487 $492 forward $335 $-1 #
vertex $-1 $225 $493 #
vertex $-1 $225 $494 #
straight-curve $-1 -109.81519623232413 1.0658141036401503e-014 25.792581810730653 1 0 0 I I #
coedge $-1 $349 $349 $-1 $495 reversed $228 $-1 #
edge $-1 $496 0 $496 6.2831853071796004 $229 $497 forward 7 unknown #
vertex $-1 $232 $498 #
ellipse-curve $-1 -78.20507166708957 2.8558649396499902 22.757054470809756 -0.87461971476443456 0 0.48480960649040278 0.48480960649040278 0 0.87461971476443456 1 I I #
coedge $-1 $353 $353 $-1 $499 reversed $235 $-1 #
edge $-1 $500 0 $500 6.2831853071796004 $236 $501 forward 7 unknown #
vertex $-1 $239 $502 #
ellipse-curve $-1 -78.20507166708957 7.1396623491249755 22.757054470809756 -0.87461971476443456 0 0.48480960649040278 0.48480960649040278 0 0.87461971476443456 1 I I #
face $-1 $-1 $255 $36 $-1 $503 reversed single #
loop $-1 $-1 $374 $240 #
plane-surface $-1 0 52.79750664960433 0 0 -1 0 0 0 -1 forward_v I I I I #
coedge $-1 $504 $371 $374 $505 forward $241 $-1 #
coedge $-1 $377 $243 $244 $365 reversed $151 $-1 #
coedge $-1 $371 $504 $243 $363 reversed $241 $-1 #
edge $-1 $378 -25.792581810730656 $506 25.792581810730656 $362 $507 forward 7 unknown #
coedge $-1 $245 $244 $504 $508 forward $97 $-1 #
edge $-1 $369 -79.887691885128334 $506 79.887691885128334 $361 $509 forward 7 unknown #
coedge $-1 $374 $373 $245 $367 reversed $358 $-1 #
edge $-1 $510 -79.887691885128334 $368 79.887691885128334 $366 $511 forward 7 unknown #
vertex $-1 $247 $512 #
vertex $-1 $380 $513 #
straight-curve $-1 79.887691885128334 0 -25.792581810730656 0 -1 0 I I #
coedge $-1 $360 $362 $248 $372 reversed $241 $-1 #
edge $-1 $375 -52.79750664960433 $378 52.79750664960433 $371 $514 forward 7 unknown #
coedge $-1 $366 $249 $254 $381 forward $358 $-1 #
coedge $-1 $249 $366 $360 $505 reversed $358 $-1 #
vertex $-1 $250 $515 #
straight-curve $-1 0 52.79750664960433 25.792581810730656 -1 0 0 I I #
coedge $-1 $251 $361 $253 $380 reversed $151 $-1 #
vertex $-1 $372 $516 #
straight-curve $-1 0 -52.79750664960433 25.792581810730656 1 0 0 I I #
edge $-1 $256 -25.792581810730656 $369 25.792581810730656 $253 $517 forward 7 unknown #
edge $-1 $257 -25.792581810730656 $368 25.792581810730656 $254 $518 forward 7 unknown #
point $-1 79.887691885128334 -52.79750664960433 25.792581810730656 #
point $-1 79.887691885128334 52.79750664960433 25.792581810730656 #
face $-1 $-1 $400 $37 $-1 $519 reversed single #
loop $-1 $-1 $520 $259 #
plane-surface $-1 0 -80.59129432113069 17.053714639348083 0 1 0 0 0 1 forward_v I I I I #
coedge $-1 $521 $397 $399 $522 forward $260 $-1 #
coedge $-1 $262 $269 $523 $524 forward $159 $-1 #
coedge $-1 $525 $267 $262 $390 reversed $400 $-1 #
edge $-1 $526 -13.89689383576318 $271 13.89689383576318 $389 $527 forward 7 unknown #
coedge $-1 $264 $263 $520 $528 reversed $101 $-1 #
coedge $-1 $397 $521 $263 $393 forward $260 $-1 #
edge $-1 $529 -13.89689383576318 $395 13.89689383576318 $263 $530 forward 7 unknown #
edge $-1 $270 -13.89689383576318 $531 13.89689383576318 $264 $532 forward 7 unknown #
vertex $-1 $265 $533 #
straight-curve $-1 -79.887691885128334 -52.79750664960433 0 0 0 -1 I I #
coedge $-1 $387 $392 $266 $398 reversed $260 $-1 #
edge $-1 $401 -79.887691885128334 $395 79.887691885128334 $397 $534 forward 7 unknown #
coedge $-1 $267 $525 $387 $522 reversed $400 $-1 #
loop $-1 $-1 $267 $384 #
vertex $-1 $268 $535 #
straight-curve $-1 79.887691885128334 -52.79750664960433 0 0 0 1 I I #
point $-1 -79.887691885128334 -52.79750664960433 22.070779939407714 #
point $-1 79.887691885128334 -52.79750664960433 22.070779939407714 #
face $-1 $-1 $419 $38 $-1 $536 reversed single #
loop $-1 $-1 $537 $273 #
plane-surface $-1 0 80.59129432113069 17.053714639348083 0 -1 0 0 0 -1 forward_v I I I I #
coedge $-1 $415 $538 $277 $412 forward $274 $-1 #
coedge $-1 $283 $276 $539 $540 forward $167 $-1 #
edge $-1 $284 -13.89689383576318 $541 13.89689383576318 $278 $542 forward 7 unknown #
coedge $-1 $278 $277 $537 $543 reversed $105 $-1 #
edge $-1 $544 -13.89689383576318 $413 13.89689383576318 $277 $545 forward 7 unknown #
vertex $-1 $279 $546 #
straight-curve $-1 79.887691885128334 52.79750664960433 0 0 0 -1 I I #
coedge $-1 $547 $408 $280 $416 reversed $274 $-1 #
edge $-1 $420 -79.887691885128334 $413 79.887691885128334 $415 $548 forward 7 unknown #
coedge $-1 $549 $281 $283 $422 reversed $419 $-1 #
coedge $-1 $281 $549 $547 $550 reversed $419 $-1 #
loop $-1 $-1 $281 $405 #
vertex $-1 $282 $551 #
straight-curve $-1 -79.887691885128334 52.79750664960433 0 0 0 1 I I #
edge $-1 $552 -13.89689383576318 $285 13.89689383576318 $417 $553 forward 7 unknown #
point $-1 79.887691885128334 52.79750664960433 22.070779939407714 #
point $-1 -79.887691885128334 52.79750664960433 22.070779939407714 #
loop $-1 $-1 $295 $287 #
plane-surface $-1 79.887691885128334 0 0 -1 0 0 0 0 1 forward_v I I I I #
coedge $-1 $428 $290 $292 $432 reversed $175 $-1 #
coedge $-1 $290 $427 $554 $555 reversed $175 $-1 #
coedge $-1 $298 $293 $290 $430 forward $288 $-1 #
edge $-1 $433 24.909439410543953 $556 45.856669852853855 $429 $557 forward 7 unknown #
coedge $-1 $292 $291 $436 $558 reversed $109 $-1 #
edge $-1 $559 -159.7753837702567 $433 -131.58810461763684 $427 $560 forward 7 unknown #
vertex $-1 $294 $561 #
straight-curve $-1 58.940461442818439 -10.009792545531681 25.792581810730645 0 -1 0 I I #
coedge $-1 $554 $295 $298 $440 reversed $425 $-1 #
coedge $-1 $295 $554 $431 $558 forward $425 $-1 #
vertex $-1 $296 $562 #
straight-curve $-1 79.887691885128334 -15.035451204048758 116.28922981594795 0 0 1 I I #
straight-curve $-1 -38.848556644662722 -15.035451204048758 113.84221110210486 0.74314481823134659 0 -0.66913061440640931 I I #
edge $-1 $556 -25.003718978077966 $299 -15.035451204048758 $435 $563 forward 7 unknown #
point $-1 79.887691885128334 -15.035451204048758 25.792581810730656 #
point $-1 58.940461442818432 -15.035451204048758 25.792581810730653 #
edge $-1 $564 1 $564 0 $302 $-1 forward 7 unknown #
vertex $-1 $303 $565 #
ellipse-curve $-1 67.139988271660627 -22.155642471212477 13.836465128483239 0.66913061440640931 0 0.74314481823134659 0.74314481823134659 0 -0.66913061440640931 1 I I #
point $-1 70.157221482204733 -22.155642471212477 15.692965487405512 #
edge $-1 $566 1 $566 0 $306 $-1 forward 7 unknown #
vertex $-1 $307 $567 #
ellipse-curve $-1 67.139988271660627 -17.883527710914251 13.836465128483239 0.66913061440640931 0 0.74314481823134659 0.74314481823134659 0 -0.66913061440640931 1 I I #
point $-1 70.157221482204733 -17.883527710914251 15.692965487405512 #
plane-surface $-1 0 0 25.792581810730656 0 0 1 1 0 0 forward_v I I I I #
coedge $-1 $462 $461 $454 $568 forward $311 $-1 #
coedge $-1 $454 $313 $315 $458 reversed $197 $-1 #
coedge $-1 $313 $453 $452 $568 reversed $197 $-1 #
coedge $-1 $321 $316 $313 $456 forward $322 $-1 #
edge $-1 $459 -33.292744783273292 $569 -29.927504347195793 $455 $570 forward 7 unknown #
coedge $-1 $315 $314 $462 $571 reversed $123 $-1 #
edge $-1 $572 -5.7280945706229527e-014 $459 6.9413650039628285 $453 $573 forward 7 unknown #
vertex $-1 $317 $574 #
straight-curve $-1 -76.522451449050834 -10.00297766684524 25.79258181073066 0 1 0 I I #
coedge $-1 $452 $318 $321 $466 reversed $311 $-1 #
coedge $-1 $318 $452 $457 $571 forward $311 $-1 #
vertex $-1 $319 $575 #
straight-curve $-1 -79.887691885128334 -25.003718978077959 48.591084031700042 0 0 1 I I #
straight-curve $-1 -79.887691885128305 -25.003718978077959 19.721527130888859 -0.48480960649040278 0 -0.87461971476443456 I I #
edge $-1 $569 15.008191689303001 $323 25.003718978077959 $461 $576 forward 7 unknown #
point $-1 -79.887691885128334 -25.003718978077959 25.792581810730656 #
point $-1 -76.522451449050834 -25.003718978077959 25.792581810730656 #
edge $-1 $577 1 $577 0 $326 $-1 forward 7 unknown #
vertex $-1 $327 $578 #
ellipse-curve $-1 -74.830150492886872 -22.147854038427976 20.886305185399443 -0.87461971476443456 0 0.48480960649040278 0.48480960649040278 0 0.87461971476443456 1 I I #
point $-1 -77.720262060599183 -22.147854038427976 23.631674185574198 #
edge $-1 $579 1 $579 0 $330 $-1 forward 7 unknown #
vertex $-1 $331 $580 #
ellipse-curve $-1 -74.830150492886872 -17.864056628952994 20.886305185399443 -0.87461971476443456 0 0.48480960649040278 0.48480960649040278 0 0.87461971476443456 1 I I #
point $-1 -77.720262060599183 -17.864056628952994 23.631674185574198 #
loop $-1 $-1 $342 $334 #
plane-surface $-1 -79.887691885128334 0 0 1 0 0 0 0 -1 forward_v I I I I #
coedge $-1 $480 $337 $339 $484 reversed $219 $-1 #
coedge $-1 $337 $479 $581 $582 reversed $219 $-1 #
coedge $-1 $345 $340 $337 $482 forward $335 $-1 #
edge $-1 $485 -33.292744783273292 $583 -29.927504347195793 $481 $584 forward 7 unknown #
coedge $-1 $339 $338 $488 $585 reversed $137 $-1 #
edge $-1 $586 -5.7280945706229527e-014 $485 6.9413650039628285 $479 $587 forward 7 unknown #
vertex $-1 $341 $588 #
straight-curve $-1 -76.522451449050834 2.498881822193745 25.79258181073066 0 1 0 I I #
coedge $-1 $581 $342 $345 $492 reversed $477 $-1 #
coedge $-1 $342 $581 $483 $585 forward $477 $-1 #
vertex $-1 $343 $589 #
straight-curve $-1 -79.887691885128334 1.0658141036401503e-014 48.591084031700042 0 0 1 I I #
straight-curve $-1 -79.887691885128305 1.0658141036401503e-014 19.721527130888859 -0.48480960649040278 0 -0.87461971476443456 I I #
edge $-1 $583 -9.9955272887749693 $346 -1.0658141036401503e-014 $487 $590 forward 7 unknown #
point $-1 -79.887691885128334 1.0658141036401503e-014 25.792581810730656 #
point $-1 -76.522451449050834 1.0658141036401503e-014 25.792581810730656 #
edge $-1 $591 1 $591 0 $349 $-1 forward 7 unknown #
vertex $-1 $350 $592 #
ellipse-curve $-1 -74.830150492886872 2.8558649396499902 20.886305185399443 -0.87461971476443456 0 0.48480960649040278 0.48480960649040278 0 0.87461971476443456 1 I I #
point $-1 -77.720262060599183 2.8558649396499902 23.631674185574198 #
edge $-1 $593 1 $593 0 $353 $-1 forward 7 unknown #
vertex $-1 $354 $594 #
ellipse-curve $-1 -74.830150492886872 7.1396623491249755 20.886305185399443 -0.87461971476443456 0 0.48480960649040278 0.48480960649040278 0 0.87461971476443456 1 I I #
point $-1 -77.720262060599183 7.1396623491249755 23.631674185574198 #
plane-surface $-1 79.887691885128334 0 0 -1 0 0 0 0 1 forward_v I I I I #
coedge $-1 $362 $360 $364 $508 reversed $241 $-1 #
edge $-1 $375 -25.792581810730656 $510 25.792581810730656 $374 $595 forward 7 unknown #
vertex $-1 $508 $596 #
straight-curve $-1 -79.887691885128334 -52.79750664960433 0 0 0 -1 I I #
edge $-1 $506 -52.79750664960433 $510 52.79750664960433 $504 $597 forward 7 unknown #
straight-curve $-1 0 -52.79750664960433 -25.792581810730656 -1 0 0 I I #
vertex $-1 $367 $598 #
straight-curve $-1 0 52.79750664960433 -25.792581810730656 1 0 0 I I #
point $-1 79.887691885128334 52.79750664960433 -25.792581810730656 #
point $-1 79.887691885128334 -52.79750664960433 -25.792581810730656 #
straight-curve $-1 -79.887691885128334 0 25.792581810730656 0 -1 0 I I #
point $-1 -79.887691885128334 52.79750664960433 25.792581810730656 #
point $-1 -79.887691885128334 -52.79750664960433 25.792581810730656 #
straight-curve $-1 79.887691885128334 -52.79750664960433 0 0 0 -1 I I #
straight-curve $-1 79.887691885128334 52.79750664960433 0 0 0 -1 I I #
plane-surface $-1 79.887691885128334 0 0 -1 0 0 0 0 1 forward_v I I I I #
coedge $-1 $599 $523 $391 $528 forward $385 $-1 #
coedge $-1 $392 $387 $599 $600 forward $260 $-1 #
edge $-1 $401 -13.89689383576318 $601 13.89689383576318 $399 $602 forward 7 unknown #
coedge $-1 $520 $603 $388 $524 reversed $385 $-1 #
edge $-1 $531 -79.887691885128334 $526 79.887691885128334 $523 $604 forward 7 unknown #
coedge $-1 $399 $389 $603 $605 forward $400 $-1 #
vertex $-1 $390 $606 #
straight-curve $-1 79.887691885128334 -66.69440048536751 22.070779939407714 0 1 0 I I #
edge $-1 $531 -5.017065300059631 $529 5.017065300059631 $391 $607 forward 7 unknown #
vertex $-1 $393 $608 #
straight-curve $-1 -79.887691885128334 -66.69440048536751 12.036649339288452 0 1 0 I I #
vertex $-1 $394 $609 #
straight-curve $-1 -79.887691885128334 -66.69440048536751 22.070779939407714 0 -1 0 I I #
point $-1 -79.887691885128334 -52.79750664960433 12.036649339288452 #
straight-curve $-1 0 -52.79750664960433 12.036649339288452 -1 0 0 I I #
point $-1 79.887691885128334 -52.79750664960433 12.036649339288452 #
plane-surface $-1 -79.887691885128334 0 0 1 0 0 0 0 -1 forward_v I I I I #
coedge $-1 $610 $539 $411 $543 forward $406 $-1 #
coedge $-1 $408 $547 $610 $611 forward $274 $-1 #
coedge $-1 $537 $612 $409 $540 reversed $406 $-1 #
edge $-1 $541 -79.887691885128334 $552 79.887691885128334 $539 $613 forward 7 unknown #
vertex $-1 $410 $614 #
straight-curve $-1 79.887691885128334 66.69440048536751 22.070779939407714 0 1 0 I I #
edge $-1 $541 -5.017065300059631 $544 5.017065300059631 $411 $615 forward 7 unknown #
vertex $-1 $412 $616 #
straight-curve $-1 79.887691885128334 66.69440048536751 12.036649339288452 0 -1 0 I I #
point $-1 79.887691885128334 52.79750664960433 12.036649339288452 #
coedge $-1 $538 $415 $418 $550 forward $274 $-1 #
straight-curve $-1 0 52.79750664960433 12.036649339288452 1 0 0 I I #
coedge $-1 $418 $417 $612 $617 forward $419 $-1 #
edge $-1 $420 -13.89689383576318 $618 13.89689383576318 $418 $619 forward 7 unknown #
point $-1 -79.887691885128334 52.79750664960433 12.036649339288452 #
vertex $-1 $540 $620 #
straight-curve $-1 -79.887691885128334 66.69440048536751 22.070779939407714 0 -1 0 I I #
coedge $-1 $436 $435 $428 $555 forward $425 $-1 #
edge $-1 $556 90.496648005217295 $559 109.3576194230548 $554 $621 forward 7 unknown #
vertex $-1 $440 $622 #
straight-curve $-1 34.031022032274478 -25.003718978077966 25.792581810730653 1 0 0 I I #
edge $-1 $559 -14.993926432546285 $437 -5.0256586585170773 $436 $623 forward 7 unknown #
vertex $-1 $558 $624 #
straight-curve $-1 -38.848556644662722 -25.003718978077966 113.84221110210486 -0.74314481823134659 0 0.66913061440640931 I I #
point $-1 58.940461442818432 -25.003718978077966 25.792581810730653 #
point $-1 79.887691885128334 -15.035451204048758 6.9316103928931483 #
straight-curve $-1 79.887691885128334 0 25.792581810730656 0 1 0 I I #
vertex $-1 $443 $625 #
point $-1 67.88313308989197 -22.155642471212477 13.167334514076829 #
vertex $-1 $447 $626 #
point $-1 67.88313308989197 -17.883527710914251 13.167334514076829 #
edge $-1 $569 22.798502220969386 $572 28.869556900811233 $452 $627 forward 7 unknown #
vertex $-1 $466 $628 #
straight-curve $-1 -109.81519623232413 -15.008191689303001 25.792581810730653 -1 0 0 I I #
edge $-1 $572 5.0052140224577606 $463 15.000741311232719 $462 $629 forward 7 unknown #
vertex $-1 $571 $630 #
straight-curve $-1 -79.887691885128305 -15.008191689303001 19.721527130888859 0.48480960649040278 0 0.87461971476443456 I I #
point $-1 -76.522451449050834 -15.008191689303001 25.792581810730656 #
point $-1 -79.887691885128334 -25.003718978077959 19.721527130888809 #
straight-curve $-1 -79.887691885128334 0 25.792581810730656 0 -1 0 I I #
vertex $-1 $469 $631 #
point $-1 -74.345340886396471 -22.147854038427976 21.760924900163879 #
vertex $-1 $473 $632 #
point $-1 -74.345340886396471 -17.864056628952994 21.760924900163879 #
coedge $-1 $488 $487 $480 $582 forward $477 $-1 #
edge $-1 $583 22.798502220969386 $586 28.869556900811233 $581 $633 forward 7 unknown #
vertex $-1 $492 $634 #
straight-curve $-1 -109.81519623232413 9.9955272887749693 25.792581810730653 -1 0 0 I I #
edge $-1 $586 -7.4966454665812243 $489 2.4988818221937343 $488 $635 forward 7 unknown #
vertex $-1 $585 $636 #
straight-curve $-1 -79.887691885128305 9.9955272887749693 19.721527130888859 0.48480960649040278 0 0.87461971476443456 I I #
point $-1 -76.522451449050834 9.9955272887749693 25.792581810730656 #
point $-1 -79.887691885128334 1.0658141036401503e-014 19.721527130888809 #
straight-curve $-1 -79.887691885128334 0 25.792581810730656 0 -1 0 I I #
vertex $-1 $495 $637 #
point $-1 -74.345340886396471 2.8558649396499902 21.760924900163879 #
vertex $-1 $499 $638 #
point $-1 -74.345340886396471 7.1396623491249755 21.760924900163879 #
straight-curve $-1 -79.887691885128334 52.79750664960433 0 0 0 -1 I I #
point $-1 -79.887691885128334 -52.79750664960433 -25.792581810730656 #
straight-curve $-1 -79.887691885128334 0 -25.792581810730656 0 1 0 I I #
point $-1 -79.887691885128334 52.79750664960433 -25.792581810730656 #
coedge $-1 $603 $520 $521 $600 reversed $385 $-1 #
edge $-1 $601 -79.887691885128334 $529 79.887691885128334 $599 $639 forward 7 unknown #
vertex $-1 $605 $640 #
straight-curve $-1 79.887691885128334 -66.69440048536751 12.036649339288452 0 -1 0 I I #
coedge $-1 $523 $599 $525 $605 reversed $385 $-1 #
straight-curve $-1 0 -80.59129432113069 22.070779939407714 1 0 0 I I #
edge $-1 $526 -5.017065300059631 $601 5.017065300059631 $525 $641 forward 7 unknown #
point $-1 79.887691885128334 -80.59129432113069 22.070779939407714 #
straight-curve $-1 -79.887691885128334 -80.59129432113069 17.053714639348083 0 0 -1 I I #
point $-1 -79.887691885128334 -80.59129432113069 12.036649339288452 #
point $-1 -79.887691885128334 -80.59129432113069 22.070779939407714 #
coedge $-1 $612 $537 $538 $611 reversed $406 $-1 #
edge $-1 $618 -79.887691885128334 $544 79.887691885128334 $610 $642 forward 7 unknown #
coedge $-1 $539 $610 $549 $617 reversed $406 $-1 #
straight-curve $-1 0 80.59129432113069 22.070779939407714 -1 0 0 I I #
point $-1 79.887691885128334 80.59129432113069 22.070779939407714 #
straight-curve $-1 79.887691885128334 80.59129432113069 17.053714639348083 0 0 -1 I I #
point $-1 79.887691885128334 80.59129432113069 12.036649339288452 #
edge $-1 $552 -5.017065300059631 $618 5.017065300059631 $612 $643 forward 7 unknown #
vertex $-1 $611 $644 #
straight-curve $-1 -79.887691885128334 66.69440048536751 12.036649339288452 0 1 0 I I #
point $-1 -79.887691885128334 80.59129432113069 22.070779939407714 #
straight-curve $-1 79.887691885128334 -25.003718978077966 116.28922981594795 0 0 -1 I I #
point $-1 79.887691885128334 -25.003718978077966 25.792581810730656 #
straight-curve $-1 79.887691885128334 -10.009792545531681 6.9316103928931554 0 1 0 I I #
point $-1 79.887691885128334 -25.003718978077966 6.9316103928931483 #
point $-1 66.470857657254214 -22.155642471212477 13.093320310251892 #
point $-1 66.470857657254214 -17.883527710914251 13.093320310251892 #
straight-curve $-1 -79.887691885128334 -15.008191689303001 48.591084031700042 0 0 -1 I I #
point $-1 -79.887691885128334 -15.008191689303001 25.792581810730656 #
straight-curve $-1 -79.887691885128334 -10.00297766684524 19.721527130888816 0 -1 0 I I #
point $-1 -79.887691885128334 -15.008191689303001 19.721527130888809 #
point $-1 -73.955530778122437 -22.147854038427976 20.401495578909035 #
point $-1 -73.955530778122437 -17.864056628952994 20.401495578909035 #
straight-curve $-1 -79.887691885128334 9.9955272887749693 48.591084031700042 0 0 -1 I I #
point $-1 -79.887691885128334 9.9955272887749693 25.792581810730656 #
straight-curve $-1 -79.887691885128334 2.498881822193745 19.721527130888816 0 -1 0 I I #
point $-1 -79.887691885128334 9.9955272887749693 19.721527130888809 #
point $-1 -73.955530778122437 2.8558649396499902 20.401495578909035 #
point $-1 -73.955530778122437 7.1396623491249755 20.401495578909035 #
straight-curve $-1 0 -80.59129432113069 12.036649339288452 -1 0 0 I I #
point $-1 79.887691885128334 -80.59129432113069 12.036649339288452 #
straight-curve $-1 79.887691885128334 -80.59129432113069 17.053714639348083 0 0 -1 I I #
straight-curve $-1 0 80.59129432113069 12.036649339288452 1 0 0 I I #
straight-curve $-1 -79.887691885128334 80.59129432113069 17.053714639348083 0 0 -1 I I #
point $-1 -79.887691885128334 80.59129432113069 12.036649339288452 #
End-of-ACIS-data 