500 0 6 0           
7 Unknown 11 ACIS 5.0 NT 24 Fri Mar 26 17:40:04 1999 
-1 9.9999999999999995e-007 1e-010 
body $-1 $6 $-1 $7 #
body $-1 $8 $-1 $9 #
body $-1 $10 $-1 $11 #
body $-1 $12 $-1 $13 #
body $-1 $14 $-1 $15 #
body $-1 $16 $-1 $17 #
lump $-1 $-1 $18 $0 #
transform $-1 1 0 0 0 1 0 0 0 1 45.506759849848933 26.267178963472478 9.2895886099553859 1 rotate no_reflect no_shear #
lump $-1 $-1 $19 $1 #
transform $-1 1 0 0 0 1 0 0 0 1 45.506759849848933 26.267178963472478 9.2895886099553859 1 rotate no_reflect no_shear #
lump $-1 $-1 $20 $2 #
transform $-1 1 0 0 0 1 0 0 0 1 45.506759849848933 26.267178963472478 9.2895886099553859 1 rotate no_reflect no_shear #
lump $-1 $-1 $21 $3 #
transform $-1 1 0 0 0 1 0 0 0 1 45.506759849848933 26.267178963472478 9.2895886099553859 1 rotate no_reflect no_shear #
lump $-1 $-1 $22 $4 #
transform $-1 1 0 0 0 1 0 0 0 1 45.506759849848933 26.267178963472478 9.2895886099553859 1 rotate no_reflect no_shear #
lump $-1 $-1 $23 $5 #
transform $-1 1 0 0 0 1 0 0 0 1 45.506759849848933 26.267178963472478 9.2895886099553859 1 rotate no_reflect no_shear #
shell $-1 $-1 $-1 $24 $-1 $6 #
shell $-1 $-1 $-1 $25 $-1 $8 #
shell $-1 $-1 $-1 $26 $-1 $10 #
shell $-1 $-1 $-1 $27 $-1 $12 #
shell $-1 $-1 $-1 $28 $-1 $14 #
shell $-1 $-1 $-1 $29 $-1 $16 #
face $-1 $30 $31 $18 $-1 $32 forward single #
face $-1 $33 $34 $19 $-1 $35 forward single #
face $-1 $36 $37 $20 $-1 $38 reversed single #
face $-1 $39 $40 $21 $-1 $41 forward single #
face $-1 $42 $43 $22 $-1 $44 forward single #
face $-1 $45 $46 $23 $-1 $47 forward single #
face $-1 $48 $49 $18 $-1 $50 reversed single #
loop $-1 $-1 $51 $24 #
plane-surface $-1 0 0 9.2895886099553859 0 0 1 1 0 0 forward_v I I I I #
face $-1 $52 $53 $19 $-1 $54 reversed single #
loop $-1 $-1 $55 $25 #
plane-surface $-1 -39.527473487814468 0 8.1753481971176072 0 0 1 1 0 0 forward_v I I I I #
face $-1 $56 $57 $20 $-1 $58 reversed single #
loop $-1 $-1 $59 $26 #
plane-surface $-1 29.789486550838213 49.917054145326404 102.68951681515074 1 0 0 0 -0.68199836817093118 -0.7313536940579346 forward_v I I I I #
face $-1 $60 $61 $21 $-1 $62 forward single #
loop $-1 $63 $64 $27 #
cone-surface $-1 32.315374980864306 20.151206865506484 3.4052593517382754 0 -0.68199836817093118 -0.7313536940579346 1 0 0 1 I I 0 1 1 forward I I I I #
face $-1 $65 $66 $22 $-1 $67 forward single #
loop $-1 $68 $69 $28 #
cone-surface $-1 36.104207625903442 20.151206865506484 3.4052593517382754 0 -0.68199836817093118 -0.7313536940579346 1 0 0 1 I I 0 1 1 forward I I I I #
face $-1 $70 $71 $23 $-1 $72 forward single #
loop $-1 $73 $74 $29 #
cone-surface $-1 39.893040270942578 20.151206865506484 3.4052593517382754 0 -0.68199836817093118 -0.7313536940579346 1 0 0 1 I I 0 1 1 forward I I I I #
face $-1 $75 $76 $18 $-1 $77 reversed single #
loop $-1 $-1 $78 $30 #
plane-surface $-1 0 0 -9.2895886099553859 0 0 1 1 0 0 forward_v I I I I #
coedge $-1 $79 $80 $81 $82 forward $31 $-1 #
face $-1 $83 $84 $19 $-1 $85 reversed single #
loop $-1 $-1 $86 $33 #
plane-surface $-1 -39.527473487814468 0 4.5166105388968889 0 0 1 1 0 0 forward_v I I I I #
coedge $-1 $87 $88 $89 $90 forward $34 $-1 #
face $-1 $91 $92 $20 $-1 $93 reversed single #
loop $-1 $-1 $94 $36 #
plane-surface $-1 36.104207625903442 -12.154017771360436 36.126442973562106 0 0.68199836817093118 0.7313536940579346 1 0 0 forward_v I I I I #
coedge $-1 $95 $96 $97 $98 reversed $37 $-1 #
face $-1 $-1 $99 $21 $-1 $100 forward single #
loop $-1 $101 $102 $39 #
cone-surface $-1 32.315374980864306 18.515332823209459 1.6509992542308911 0 -0.68199836817093118 -0.7313536940579346 0.5 0 0 1 I I -0.70710678118654746 0.70710678118654746 0.5 forward I I I I #
loop $-1 $-1 $103 $27 #
coedge $-1 $64 $64 $104 $105 reversed $40 $-1 #
face $-1 $-1 $106 $22 $-1 $107 forward single #
loop $-1 $108 $109 $42 #
cone-surface $-1 36.104207625903442 18.515332823209459 1.6509992542308911 0 -0.68199836817093118 -0.7313536940579346 0.5 0 0 1 I I -0.70710678118654746 0.70710678118654746 0.5 forward I I I I #
loop $-1 $-1 $110 $28 #
coedge $-1 $69 $69 $111 $112 reversed $43 $-1 #
face $-1 $-1 $113 $23 $-1 $114 forward single #
loop $-1 $115 $116 $45 #
cone-surface $-1 39.893040270942578 18.515332823209459 1.6509992542308911 0 -0.68199836817093118 -0.7313536940579346 0.5 0 0 1 I I -0.70710678118654746 0.70710678118654746 0.5 forward I I I I #
loop $-1 $-1 $117 $29 #
coedge $-1 $74 $74 $118 $119 reversed $46 $-1 #
face $-1 $120 $121 $18 $-1 $122 reversed single #
loop $-1 $-1 $123 $48 #
plane-surface $-1 0 -26.267178963472478 0 0 1 0 0 0 1 forward_v I I I I #
coedge $-1 $124 $125 $126 $127 forward $49 $-1 #
coedge $-1 $128 $51 $129 $130 forward $31 $-1 #
coedge $-1 $51 $128 $131 $132 forward $31 $-1 #
coedge $-1 $133 $134 $51 $82 reversed $135 $-1 #
edge $-1 $136 -26.267178963472478 $137 26.267178963472478 $81 $138 forward 7 unknown #
face $-1 $139 $140 $19 $-1 $141 reversed single #
loop $-1 $-1 $142 $52 #
plane-surface $-1 -33.548187125780004 0 6.3459793680072476 -1 0 0 0 0 1 forward_v I I I I #
coedge $-1 $143 $144 $145 $146 forward $53 $-1 #
coedge $-1 $147 $55 $148 $149 reversed $34 $-1 #
coedge $-1 $55 $147 $150 $151 reversed $34 $-1 #
coedge $-1 $142 $152 $55 $90 reversed $84 $-1 #
edge $-1 $153 -26.267178963472478 $154 26.267178963472478 $89 $155 forward 7 unknown #
face $-1 $156 $157 $20 $-1 $158 forward single #
loop $-1 $-1 $159 $56 #
plane-surface $-1 42.418928700968671 49.917054145326404 102.68951681515074 -1 0 0 0 0.68199836817093118 0.7313536940579346 forward_v I I I I #
coedge $-1 $160 $161 $162 $163 reversed $57 $-1 #
coedge $-1 $96 $59 $164 $165 reversed $37 $-1 #
coedge $-1 $59 $95 $160 $166 reversed $37 $-1 #
coedge $-1 $162 $167 $59 $98 forward $157 $-1 #
edge $-1 $168 -1.3086518908092764 $169 8.3335425886995509 $97 $170 forward 7 unknown #
loop $-1 $-1 $104 $60 #
plane-surface $-1 36.104207625903442 -12.154017771360436 36.126442973562106 0 0.68199836817093118 0.7313536940579346 1 0 0 forward_v I I I I #
loop $-1 $-1 $171 $39 #
coedge $-1 $102 $102 $103 $172 reversed $61 $-1 #
coedge $-1 $103 $103 $102 $172 forward $63 $-1 #
coedge $-1 $104 $104 $64 $105 forward $99 $-1 #
edge $-1 $173 -1.6578082812826022e-015 $173 6.2831853071795987 $104 $174 forward 7 unknown #
loop $-1 $-1 $111 $65 #
plane-surface $-1 36.104207625903442 -12.154017771360436 36.126442973562106 0 0.68199836817093118 0.7313536940579346 1 0 0 forward_v I I I I #
loop $-1 $-1 $175 $42 #
coedge $-1 $109 $109 $110 $176 reversed $66 $-1 #
coedge $-1 $110 $110 $109 $176 forward $68 $-1 #
coedge $-1 $111 $111 $69 $112 forward $106 $-1 #
edge $-1 $177 -1.6578082812826022e-015 $177 6.2831853071795987 $111 $178 forward 7 unknown #
loop $-1 $-1 $118 $70 #
plane-surface $-1 36.104207625903442 -12.154017771360436 36.126442973562106 0 0.68199836817093118 0.7313536940579346 1 0 0 forward_v I I I I #
loop $-1 $-1 $179 $45 #
coedge $-1 $116 $116 $117 $180 reversed $71 $-1 #
coedge $-1 $117 $117 $116 $180 forward $73 $-1 #
coedge $-1 $118 $118 $74 $119 forward $113 $-1 #
edge $-1 $181 -1.6578082812826022e-015 $181 6.2831853071795987 $118 $182 forward 7 unknown #
face $-1 $183 $184 $18 $-1 $185 reversed single #
loop $-1 $-1 $186 $75 #
plane-surface $-1 -45.506759849848933 0 0 1 0 0 0 0 -1 forward_v I I I I #
coedge $-1 $187 $131 $188 $189 forward $76 $-1 #
coedge $-1 $190 $78 $187 $191 forward $49 $-1 #
coedge $-1 $78 $190 $192 $193 forward $49 $-1 #
coedge $-1 $134 $133 $78 $127 reversed $135 $-1 #
edge $-1 $194 -26.267178963472478 $195 26.267178963472478 $126 $196 forward 7 unknown #
coedge $-1 $80 $79 $197 $198 forward $31 $-1 #
coedge $-1 $199 $200 $79 $130 reversed $184 $-1 #
edge $-1 $137 -45.506759849848933 $201 45.506759849848933 $129 $202 forward 7 unknown #
coedge $-1 $123 $203 $80 $132 reversed $76 $-1 #
edge $-1 $204 -45.506759849848933 $136 45.506759849848933 $131 $205 forward 7 unknown #
coedge $-1 $126 $81 $203 $206 forward $135 $-1 #
coedge $-1 $81 $126 $199 $207 reversed $135 $-1 #
loop $-1 $-1 $133 $183 #
vertex $-1 $82 $208 #
vertex $-1 $82 $209 #
straight-curve $-1 45.506759849848933 0 9.2895886099553859 0 1 0 I I #
face $-1 $210 $211 $19 $-1 $212 reversed single #
loop $-1 $-1 $213 $83 #
plane-surface $-1 0 -26.267178963472478 0 0 1 0 0 0 1 forward_v I I I I #
coedge $-1 $145 $89 $214 $215 reversed $84 $-1 #
coedge $-1 $216 $86 $213 $217 reversed $53 $-1 #
coedge $-1 $86 $216 $218 $219 reversed $53 $-1 #
coedge $-1 $152 $142 $86 $146 reversed $84 $-1 #
edge $-1 $220 -26.267178963472478 $221 26.267178963472478 $145 $222 forward 7 unknown #
coedge $-1 $88 $87 $223 $224 reversed $34 $-1 #
coedge $-1 $225 $226 $87 $149 forward $227 $-1 #
edge $-1 $228 -25.743023105941699 $154 -13.784450381872769 $148 $229 forward 7 unknown #
coedge $-1 $230 $214 $88 $151 forward $140 $-1 #
edge $-1 $153 13.784450381872769 $231 25.743023105941699 $150 $232 forward 7 unknown #
coedge $-1 $89 $145 $225 $233 reversed $84 $-1 #
vertex $-1 $151 $234 #
vertex $-1 $149 $235 #
straight-curve $-1 -33.548187125780004 0 8.1753481971176072 0 1 0 I I #
face $-1 $-1 $236 $20 $-1 $237 reversed single #
loop $-1 $-1 $97 $91 #
plane-surface $-1 0 0 9.2895886099553859 0 0 1 1 0 0 forward_v I I I I #
coedge $-1 $238 $239 $240 $241 reversed $92 $-1 #
coedge $-1 $242 $94 $96 $166 forward $57 $-1 #
coedge $-1 $94 $242 $238 $243 forward $57 $-1 #
coedge $-1 $240 $97 $94 $163 forward $157 $-1 #
edge $-1 $169 11.737382737886492 $244 24.36682488801695 $162 $245 forward 7 unknown #
coedge $-1 $246 $247 $95 $165 forward $236 $-1 #
edge $-1 $248 -51.04666181309733 $168 -42.055169797619982 $164 $249 forward 7 unknown #
edge $-1 $169 39.350320493553617 $248 52.534357926944935 $96 $250 forward 7 unknown #
coedge $-1 $97 $240 $246 $251 forward $157 $-1 #
vertex $-1 $165 $252 #
vertex $-1 $98 $253 #
straight-curve $-1 29.789486550838213 24.958527072663202 9.2895886099553877 0 -1 0 I I #
coedge $-1 $171 $171 $-1 $254 reversed $101 $-1 #
edge $-1 $255 0 $255 6.2831853071796004 $102 $256 forward 7 unknown #
vertex $-1 $105 $257 #
ellipse-curve $-1 32.315374980864306 21.446081723718063 4.7938426022167127 0 0.68199836817093118 0.7313536940579346 1 0 0 1 I I #
coedge $-1 $175 $175 $-1 $258 reversed $108 $-1 #
edge $-1 $259 0 $259 6.2831853071796004 $109 $260 forward 7 unknown #
vertex $-1 $112 $261 #
ellipse-curve $-1 36.104207625903442 21.446081723718063 4.7938426022167127 0 0.68199836817093118 0.7313536940579346 1 0 0 1 I I #
coedge $-1 $179 $179 $-1 $262 reversed $115 $-1 #
edge $-1 $263 0 $263 6.2831853071796004 $116 $264 forward 7 unknown #
vertex $-1 $119 $265 #
ellipse-curve $-1 39.893040270942578 21.446081723718063 4.7938426022167127 0 0.68199836817093118 0.7313536940579346 1 0 0 1 I I #
face $-1 $-1 $135 $18 $-1 $266 reversed single #
loop $-1 $-1 $199 $120 #
plane-surface $-1 0 26.267178963472478 0 0 -1 0 0 0 -1 forward_v I I I I #
coedge $-1 $267 $197 $200 $268 forward $121 $-1 #
coedge $-1 $203 $123 $124 $191 reversed $76 $-1 #
coedge $-1 $197 $267 $123 $189 reversed $121 $-1 #
edge $-1 $204 -9.2895886099553859 $269 9.2895886099553859 $188 $270 forward 7 unknown #
coedge $-1 $125 $124 $267 $271 forward $49 $-1 #
edge $-1 $195 -45.506759849848933 $269 45.506759849848933 $187 $272 forward 7 unknown #
coedge $-1 $200 $199 $125 $193 reversed $184 $-1 #
edge $-1 $273 -45.506759849848933 $194 45.506759849848933 $192 $274 forward 7 unknown #
vertex $-1 $127 $275 #
vertex $-1 $206 $276 #
straight-curve $-1 45.506759849848933 0 -9.2895886099553859 0 -1 0 I I #
coedge $-1 $186 $188 $128 $198 reversed $121 $-1 #
edge $-1 $201 -26.267178963472478 $204 26.267178963472478 $197 $277 forward 7 unknown #
coedge $-1 $192 $129 $134 $207 forward $184 $-1 #
coedge $-1 $129 $192 $186 $268 reversed $184 $-1 #
vertex $-1 $130 $278 #
straight-curve $-1 0 26.267178963472478 9.2895886099553859 -1 0 0 I I #
coedge $-1 $131 $187 $133 $206 reversed $76 $-1 #
vertex $-1 $198 $279 #
straight-curve $-1 0 -26.267178963472478 9.2895886099553859 1 0 0 I I #
edge $-1 $136 -9.2895886099553859 $195 9.2895886099553859 $133 $280 forward 7 unknown #
edge $-1 $137 -9.2895886099553859 $194 9.2895886099553859 $134 $281 forward 7 unknown #
point $-1 45.506759849848933 -26.267178963472478 9.2895886099553859 #
point $-1 45.506759849848933 26.267178963472478 9.2895886099553859 #
face $-1 $-1 $227 $19 $-1 $282 reversed single #
loop $-1 $-1 $283 $139 #
plane-surface $-1 -45.506759849848933 0 0 1 0 0 0 0 -1 forward_v I I I I #
coedge $-1 $214 $230 $143 $217 forward $140 $-1 #
coedge $-1 $150 $213 $142 $215 forward $140 $-1 #
edge $-1 $221 1.3436208548932651 $153 5.0023585131139834 $214 $284 forward 7 unknown #
coedge $-1 $144 $143 $283 $285 reversed $53 $-1 #
edge $-1 $286 -25.743023105941699 $221 -13.784450381872769 $213 $287 forward 7 unknown #
coedge $-1 $226 $225 $144 $219 forward $227 $-1 #
edge $-1 $220 13.784450381872769 $288 25.743023105941699 $218 $289 forward 7 unknown #
vertex $-1 $219 $290 #
vertex $-1 $217 $291 #
straight-curve $-1 -33.548187125780004 0 4.5166105388968889 0 -1 0 I I #
coedge $-1 $292 $293 $147 $224 forward $211 $-1 #
edge $-1 $231 -26.267178963472478 $228 26.267178963472478 $223 $294 forward 7 unknown #
coedge $-1 $218 $148 $152 $233 forward $227 $-1 #
coedge $-1 $148 $218 $292 $295 reversed $227 $-1 #
loop $-1 $-1 $218 $210 #
vertex $-1 $295 $296 #
straight-curve $-1 -19.763736743907234 26.267178963472478 8.1753481971176072 1 0 0 I I #
coedge $-1 $213 $150 $293 $297 forward $140 $-1 #
vertex $-1 $297 $298 #
straight-curve $-1 -19.763736743907234 -26.267178963472478 8.1753481971176072 -1 0 0 I I #
edge $-1 $154 -5.0023585131139834 $220 -1.3436208548932651 $225 $299 forward 7 unknown #
point $-1 -33.548187125780004 -26.267178963472478 8.1753481971176072 #
point $-1 -33.548187125780004 26.267178963472478 8.1753481971176072 #
loop $-1 $-1 $164 $156 #
plane-surface $-1 0 26.267178963472478 0 0 -1 0 0 0 -1 forward_v I I I I #
coedge $-1 $239 $159 $161 $243 reversed $92 $-1 #
coedge $-1 $159 $238 $300 $301 reversed $92 $-1 #
coedge $-1 $167 $162 $159 $241 forward $157 $-1 #
edge $-1 $244 -8.3335425886995509 $302 1.3086518908092764 $240 $303 forward 7 unknown #
coedge $-1 $161 $160 $247 $304 reversed $57 $-1 #
edge $-1 $305 -52.534357926944935 $244 -39.350320493553617 $238 $306 forward 7 unknown #
vertex $-1 $163 $307 #
straight-curve $-1 18.052103812951721 16.624984483963651 9.2895886099553877 1 0 0 I I #
coedge $-1 $300 $164 $167 $251 reversed $236 $-1 #
coedge $-1 $164 $300 $242 $304 forward $236 $-1 #
vertex $-1 $165 $308 #
straight-curve $-1 29.789486550838213 26.267178963472478 51.34475840757537 0 0 1 I I #
straight-curve $-1 29.789486550838213 -12.154017771360436 36.126442973562106 0 0.7313536940579346 -0.68199836817093118 I I #
edge $-1 $302 -42.418928700968671 $168 -29.789486550838213 $246 $309 forward 7 unknown #
point $-1 29.789486550838213 26.267178963472478 9.2895886099553859 #
point $-1 29.789486550838213 16.624984483963651 9.2895886099553877 #
edge $-1 $310 1 $310 0 $171 $-1 forward 7 unknown #
vertex $-1 $172 $311 #
ellipse-curve $-1 32.315374980864306 18.856332007294924 2.0166761012598586 0 0.68199836817093118 0.7313536940579346 1 0 0 1 I I #
point $-1 33.315374980864306 21.446081723718041 4.7938426022166922 #
edge $-1 $312 1 $312 0 $175 $-1 forward 7 unknown #
vertex $-1 $176 $313 #
ellipse-curve $-1 36.104207625903442 18.856332007294924 2.0166761012598586 0 0.68199836817093118 0.7313536940579346 1 0 0 1 I I #
point $-1 37.104207625903442 21.446081723718041 4.7938426022166922 #
edge $-1 $314 1 $314 0 $179 $-1 forward 7 unknown #
vertex $-1 $180 $315 #
ellipse-curve $-1 39.893040270942578 18.856332007294924 2.0166761012598586 0 0.68199836817093118 0.7313536940579346 1 0 0 1 I I #
point $-1 40.893040270942578 21.446081723718041 4.7938426022166922 #
plane-surface $-1 45.506759849848933 0 0 -1 0 0 0 0 1 forward_v I I I I #
coedge $-1 $188 $186 $190 $271 reversed $121 $-1 #
edge $-1 $201 -9.2895886099553859 $273 9.2895886099553859 $200 $316 forward 7 unknown #
vertex $-1 $271 $317 #
straight-curve $-1 -45.506759849848933 -26.267178963472478 0 0 0 -1 I I #
edge $-1 $269 -26.267178963472478 $273 26.267178963472478 $267 $318 forward 7 unknown #
straight-curve $-1 0 -26.267178963472478 -9.2895886099553859 -1 0 0 I I #
vertex $-1 $193 $319 #
straight-curve $-1 0 26.267178963472478 -9.2895886099553859 1 0 0 I I #
point $-1 45.506759849848933 26.267178963472478 -9.2895886099553859 #
point $-1 45.506759849848933 -26.267178963472478 -9.2895886099553859 #
straight-curve $-1 -45.506759849848933 0 9.2895886099553859 0 -1 0 I I #
point $-1 -45.506759849848933 26.267178963472478 9.2895886099553859 #
point $-1 -45.506759849848933 -26.267178963472478 9.2895886099553859 #
straight-curve $-1 45.506759849848933 -26.267178963472478 0 0 0 -1 I I #
straight-curve $-1 45.506759849848933 26.267178963472478 0 0 0 -1 I I #
plane-surface $-1 0 26.267178963472478 0 0 -1 0 0 0 -1 forward_v I I I I #
coedge $-1 $293 $292 $216 $285 forward $211 $-1 #
straight-curve $-1 -33.548187125780004 -26.267178963472478 3.1729896840036238 0 0 1 I I #
edge $-1 $288 -26.267178963472478 $286 26.267178963472478 $283 $320 forward 7 unknown #
vertex $-1 $217 $321 #
straight-curve $-1 -19.763736743907234 -26.267178963472478 4.5166105388968889 1 0 0 I I #
vertex $-1 $219 $322 #
straight-curve $-1 -19.763736743907234 26.267178963472478 4.5166105388968889 -1 0 0 I I #
point $-1 -33.548187125780004 26.267178963472478 4.5166105388968889 #
point $-1 -33.548187125780004 -26.267178963472478 4.5166105388968889 #
coedge $-1 $283 $223 $226 $295 forward $211 $-1 #
coedge $-1 $223 $283 $230 $297 reversed $211 $-1 #
straight-curve $-1 -45.506759849848933 0 8.1753481971176072 0 1 0 I I #
edge $-1 $228 -8.1753481971176072 $288 -4.5166105388968889 $226 $323 forward 7 unknown #
point $-1 -45.506759849848933 26.267178963472478 8.1753481971176072 #
edge $-1 $231 -8.1753481971176072 $286 -4.5166105388968889 $293 $324 forward 7 unknown #
point $-1 -45.506759849848933 -26.267178963472478 8.1753481971176072 #
straight-curve $-1 -33.548187125780004 26.267178963472478 3.1729896840036238 0 0 -1 I I #
coedge $-1 $247 $246 $239 $301 forward $236 $-1 #
edge $-1 $302 42.055169797619982 $305 51.04666181309733 $300 $325 forward 7 unknown #
vertex $-1 $251 $326 #
straight-curve $-1 42.418928700968671 24.958527072663202 9.2895886099553877 0 1 0 I I #
edge $-1 $305 -24.36682488801695 $248 -11.737382737886492 $247 $327 forward 7 unknown #
vertex $-1 $304 $328 #
straight-curve $-1 42.418928700968671 -12.154017771360436 36.126442973562106 0 -0.7313536940579346 0.68199836817093118 I I #
point $-1 42.418928700968671 16.624984483963651 9.2895886099553877 #
point $-1 29.789486550838213 26.267178963472482 0.29809659447803938 #
straight-curve $-1 0 26.267178963472478 9.2895886099553859 -1 0 0 I I #
vertex $-1 $254 $329 #
point $-1 33.315374980864306 18.856332007294924 2.0166761012598586 #
vertex $-1 $258 $330 #
point $-1 37.104207625903442 18.856332007294924 2.0166761012598586 #
vertex $-1 $262 $331 #
point $-1 40.893040270942578 18.856332007294924 2.0166761012598586 #
straight-curve $-1 -45.506759849848933 26.267178963472478 0 0 0 -1 I I #
point $-1 -45.506759849848933 -26.267178963472478 -9.2895886099553859 #
straight-curve $-1 -45.506759849848933 0 -9.2895886099553859 0 1 0 I I #
point $-1 -45.506759849848933 26.267178963472478 -9.2895886099553859 #
straight-curve $-1 -45.506759849848933 0 4.5166105388968889 0 -1 0 I I #
point $-1 -45.506759849848933 -26.267178963472478 4.5166105388968889 #
point $-1 -45.506759849848933 26.267178963472478 4.5166105388968889 #
straight-curve $-1 -45.506759849848933 26.267178963472478 0 0 0 -1 I I #
straight-curve $-1 -45.506759849848933 -26.267178963472478 0 0 0 -1 I I #
straight-curve $-1 42.418928700968671 26.267178963472478 51.34475840757537 0 0 -1 I I #
point $-1 42.418928700968671 26.267178963472478 9.2895886099553859 #
straight-curve $-1 18.052103812951721 26.267178963472475 0.29809659447803938 -1 0 0 I I #
point $-1 42.418928700968671 26.267178963472482 0.29809659447803938 #
point $-1 32.315374980864306 18.174333639123994 1.2853224072019238 #
point $-1 36.104207625903442 18.174333639123994 1.2853224072019238 #
point $-1 39.893040270942578 18.174333639123994 1.2853224072019238 #
End-of-ACIS-data 