500 0 6 0           
7 Unknown 11 ACIS 5.0 NT 24 Thu Mar 25 16:20:55 1999 
-1 9.9999999999999995e-007 1e-010 
body $-1 $6 $-1 $7 #
body $-1 $8 $-1 $9 #
body $-1 $10 $-1 $11 #
body $-1 $12 $-1 $13 #
body $-1 $14 $-1 $15 #
body $-1 $16 $-1 $17 #
lump $-1 $-1 $18 $0 #
transform $-1 1 0 0 0 1 0 0 0 1 55.129856257820364 24.433830912326311 9.0722910370716523 1 rotate no_reflect no_shear #
lump $-1 $-1 $19 $1 #
transform $-1 1 0 0 0 1 0 0 0 1 55.129856257820364 24.433830912326311 9.0722910370716523 1 rotate no_reflect no_shear #
lump $-1 $-1 $20 $2 #
transform $-1 1 0 0 0 1 0 0 0 1 55.129856257820364 24.433830912326311 9.0722910370716523 1 rotate no_reflect no_shear #
lump $-1 $-1 $21 $3 #
transform $-1 1 0 0 0 1 0 0 0 1 55.129856257820364 24.433830912326311 9.0722910370716523 1 rotate no_reflect no_shear #
lump $-1 $-1 $22 $4 #
transform $-1 1 0 0 0 1 0 0 0 1 55.129856257820364 24.433830912326311 9.0722910370716523 1 rotate no_reflect no_shear #
lump $-1 $-1 $23 $5 #
transform $-1 1 0 0 0 1 0 0 0 1 55.129856257820364 24.433830912326311 9.0722910370716523 1 rotate no_reflect no_shear #
shell $-1 $-1 $-1 $24 $-1 $6 #
shell $-1 $-1 $-1 $25 $-1 $8 #
shell $-1 $-1 $-1 $26 $-1 $10 #
shell $-1 $-1 $-1 $27 $-1 $12 #
shell $-1 $-1 $-1 $28 $-1 $14 #
shell $-1 $-1 $-1 $29 $-1 $16 #
face $-1 $30 $31 $18 $-1 $32 forward single #
face $-1 $33 $34 $19 $-1 $35 forward single #
face $-1 $36 $37 $20 $-1 $38 reversed single #
face $-1 $39 $40 $21 $-1 $41 forward single #
face $-1 $42 $43 $22 $-1 $44 forward single #
face $-1 $45 $46 $23 $-1 $47 forward single #
face $-1 $48 $49 $18 $-1 $50 reversed single #
loop $-1 $-1 $51 $24 #
plane-surface $-1 0 0 9.0722910370716523 0 0 1 1 0 0 forward_v I I I I #
face $-1 $52 $53 $19 $-1 $54 reversed single #
loop $-1 $-1 $55 $25 #
plane-surface $-1 -50.199363578995502 0 -5.0462836525061174 0 0 1 1 0 0 forward_v I I I I #
face $-1 $56 $57 $20 $-1 $58 reversed single #
loop $-1 $-1 $59 $26 #
plane-surface $-1 30.736909406008976 -15.848189850002239 154.17427890140794 0 -1 0 -0.5877852598018023 0 -0.80901698891910034 forward_v I I I I #
face $-1 $60 $61 $21 $-1 $62 forward single #
loop $-1 $63 $64 $27 #
cone-surface $-1 48.70485223146035 -22.716702699861496 4.2132692821966415 -0.5877852598018023 0 -0.80901698891910034 0.20225424722977509 0 -0.14694631495045057 1 I I 0 1 0.25 forward I I I I #
face $-1 $65 $66 $22 $-1 $67 forward single #
loop $-1 $68 $69 $28 #
cone-surface $-1 48.70485223146035 -20.141010381164271 4.2132692821966415 -0.5877852598018023 0 -0.80901698891910034 0.20225424722977509 0 -0.14694631495045057 1 I I 0 1 0.25 forward I I I I #
face $-1 $70 $71 $23 $-1 $72 forward single #
loop $-1 $73 $74 $29 #
cone-surface $-1 48.70485223146035 -17.56531806246705 4.2132692821966415 -0.5877852598018023 0 -0.80901698891910034 0.20225424722977509 0 -0.14694631495045057 1 I I 0 1 0.25 forward I I I I #
face $-1 $75 $76 $18 $-1 $77 reversed single #
loop $-1 $-1 $78 $30 #
plane-surface $-1 0 0 -9.0722910370716523 0 0 1 1 0 0 forward_v I I I I #
coedge $-1 $79 $80 $81 $82 forward $31 $-1 #
face $-1 $83 $84 $19 $-1 $85 reversed single #
loop $-1 $-1 $86 $33 #
plane-surface $-1 -45.26887090017064 0 -7.0592873447888849 -1 0 0 0 0 1 forward_v I I I I #
coedge $-1 $87 $88 $89 $90 forward $34 $-1 #
face $-1 $91 $92 $20 $-1 $93 forward single #
loop $-1 $-1 $94 $36 #
plane-surface $-1 -34.072124360668937 -20.141010381164275 64.972298282918644 0.5877852598018023 0 0.80901698891910034 0.80901698891910034 0 -0.5877852598018023 forward_v I I I I #
coedge $-1 $95 $96 $97 $98 reversed $37 $-1 #
face $-1 $-1 $99 $21 $-1 $100 forward single #
loop $-1 $101 $102 $39 #
cone-surface $-1 48.33748644408422 -22.716702699861496 3.7076336641222039 -0.5877852598018023 0 -0.80901698891910034 0.10112712361488754 0 -0.073473157475225287 1 I I -0.70710678118654746 0.70710678118654746 0.125 forward I I I I #
loop $-1 $-1 $103 $27 #
coedge $-1 $64 $64 $104 $105 reversed $40 $-1 #
face $-1 $-1 $106 $22 $-1 $107 forward single #
loop $-1 $108 $109 $42 #
cone-surface $-1 48.33748644408422 -20.141010381164271 3.7076336641222039 -0.5877852598018023 0 -0.80901698891910034 0.10112712361488754 0 -0.073473157475225287 1 I I -0.70710678118654746 0.70710678118654746 0.125 forward I I I I #
loop $-1 $-1 $110 $28 #
coedge $-1 $69 $69 $111 $112 reversed $43 $-1 #
face $-1 $-1 $113 $23 $-1 $114 forward single #
loop $-1 $115 $116 $45 #
cone-surface $-1 48.33748644408422 -17.56531806246705 3.7076336641222039 -0.5877852598018023 0 -0.80901698891910034 0.10112712361488754 0 -0.073473157475225287 1 I I -0.70710678118654746 0.70710678118654746 0.125 forward I I I I #
loop $-1 $-1 $117 $29 #
coedge $-1 $74 $74 $118 $119 reversed $46 $-1 #
face $-1 $120 $121 $18 $-1 $122 reversed single #
loop $-1 $-1 $123 $48 #
plane-surface $-1 0 -24.433830912326311 0 0 1 0 0 0 1 forward_v I I I I #
coedge $-1 $124 $125 $126 $127 forward $49 $-1 #
coedge $-1 $128 $51 $129 $130 forward $31 $-1 #
coedge $-1 $51 $128 $131 $132 forward $31 $-1 #
coedge $-1 $133 $134 $51 $82 reversed $135 $-1 #
edge $-1 $136 -24.433830912326311 $137 24.433830912326311 $81 $138 forward 7 unknown #
face $-1 $139 $140 $19 $-1 $141 reversed single #
loop $-1 $-1 $142 $52 #
plane-surface $-1 0 0 -9.0722910370716523 0 0 1 1 0 0 forward_v I I I I #
coedge $-1 $143 $89 $144 $145 reversed $53 $-1 #
coedge $-1 $146 $55 $147 $148 reversed $34 $-1 #
coedge $-1 $55 $146 $149 $150 reversed $34 $-1 #
coedge $-1 $86 $151 $55 $90 reversed $53 $-1 #
edge $-1 $152 -24.433830912326311 $153 24.433830912326311 $89 $154 forward 7 unknown #
face $-1 $155 $156 $20 $-1 $157 reversed single #
loop $-1 $-1 $97 $56 #
plane-surface $-1 0 0 9.0722910370716523 0 0 1 1 0 0 forward_v I I I I #
coedge $-1 $158 $159 $160 $161 reversed $57 $-1 #
coedge $-1 $96 $59 $162 $163 reversed $37 $-1 #
coedge $-1 $59 $95 $158 $164 reversed $37 $-1 #
coedge $-1 $160 $165 $59 $98 forward $92 $-1 #
edge $-1 $166 -39.761401554815876 $167 -27.49917876189761 $97 $168 forward 7 unknown #
loop $-1 $-1 $104 $60 #
plane-surface $-1 -34.072124360668937 -20.141010381164275 64.972298282918644 0.5877852598018023 0 0.80901698891910034 0.80901698891910034 0 -0.5877852598018023 forward_v I I I I #
loop $-1 $-1 $169 $39 #
coedge $-1 $102 $102 $103 $170 reversed $61 $-1 #
coedge $-1 $103 $103 $102 $170 forward $63 $-1 #
coedge $-1 $104 $104 $64 $105 forward $99 $-1 #
edge $-1 $171 0 $171 6.2831853071796004 $104 $172 forward 7 unknown #
loop $-1 $-1 $111 $65 #
plane-surface $-1 -34.072124360668937 -20.141010381164275 64.972298282918644 0.5877852598018023 0 0.80901698891910034 0.80901698891910034 0 -0.5877852598018023 forward_v I I I I #
loop $-1 $-1 $173 $42 #
coedge $-1 $109 $109 $110 $174 reversed $66 $-1 #
coedge $-1 $110 $110 $109 $174 forward $68 $-1 #
coedge $-1 $111 $111 $69 $112 forward $106 $-1 #
edge $-1 $175 0 $175 6.2831853071796004 $111 $176 forward 7 unknown #
loop $-1 $-1 $118 $70 #
plane-surface $-1 -34.072124360668937 -20.141010381164275 64.972298282918644 0.5877852598018023 0 0.80901698891910034 0.80901698891910034 0 -0.5877852598018023 forward_v I I I I #
loop $-1 $-1 $177 $45 #
coedge $-1 $116 $116 $117 $178 reversed $71 $-1 #
coedge $-1 $117 $117 $116 $178 forward $73 $-1 #
coedge $-1 $118 $118 $74 $119 forward $113 $-1 #
edge $-1 $179 0 $179 6.2831853071796004 $118 $180 forward 7 unknown #
face $-1 $181 $182 $18 $-1 $183 reversed single #
loop $-1 $-1 $184 $75 #
plane-surface $-1 -55.129856257820364 0 0 1 0 0 0 0 -1 forward_v I I I I #
coedge $-1 $185 $131 $186 $187 forward $76 $-1 #
coedge $-1 $188 $78 $185 $189 forward $49 $-1 #
coedge $-1 $78 $188 $190 $191 forward $49 $-1 #
coedge $-1 $134 $133 $78 $127 reversed $135 $-1 #
edge $-1 $192 -24.433830912326311 $193 24.433830912326311 $126 $194 forward 7 unknown #
coedge $-1 $80 $79 $195 $196 forward $31 $-1 #
coedge $-1 $197 $198 $79 $130 reversed $182 $-1 #
edge $-1 $137 -55.129856257820364 $199 55.129856257820364 $129 $200 forward 7 unknown #
coedge $-1 $123 $201 $80 $132 reversed $76 $-1 #
edge $-1 $202 -55.129856257820364 $136 55.129856257820364 $131 $203 forward 7 unknown #
coedge $-1 $126 $81 $201 $204 forward $135 $-1 #
coedge $-1 $81 $126 $197 $205 reversed $135 $-1 #
loop $-1 $-1 $133 $181 #
vertex $-1 $82 $206 #
vertex $-1 $82 $207 #
straight-curve $-1 55.129856257820364 0 9.0722910370716523 0 1 0 I I #
face $-1 $208 $209 $19 $-1 $210 reversed single #
loop $-1 $-1 $144 $83 #
plane-surface $-1 0 -24.433830912326311 0 0 1 0 0 0 1 forward_v I I I I #
coedge $-1 $211 $212 $143 $213 forward $84 $-1 #
coedge $-1 $151 $86 $142 $213 reversed $53 $-1 #
coedge $-1 $149 $214 $86 $145 forward $140 $-1 #
edge $-1 $215 -5.5426473646772099 $152 -1.516639980111675 $144 $216 forward 7 unknown #
coedge $-1 $88 $87 $217 $218 reversed $34 $-1 #
coedge $-1 $219 $220 $87 $148 forward $221 $-1 #
edge $-1 $222 -30.030174468322613 $153 -20.169189110672889 $147 $223 forward 7 unknown #
coedge $-1 $224 $144 $88 $150 forward $140 $-1 #
edge $-1 $152 20.169189110672889 $225 30.030174468322613 $149 $226 forward 7 unknown #
coedge $-1 $89 $143 $219 $227 reversed $53 $-1 #
vertex $-1 $150 $228 #
vertex $-1 $148 $229 #
straight-curve $-1 -45.26887090017064 0 -5.0462836525061174 0 1 0 I I #
face $-1 $-1 $230 $20 $-1 $231 reversed single #
loop $-1 $-1 $232 $91 #
plane-surface $-1 0 -24.433830912326311 0 0 1 0 0 0 1 forward_v I I I I #
coedge $-1 $233 $94 $96 $164 forward $57 $-1 #
coedge $-1 $94 $233 $232 $234 reversed $57 $-1 #
coedge $-1 $235 $97 $94 $161 forward $92 $-1 #
edge $-1 $167 5.7776846594201015 $236 14.363325721744173 $160 $237 forward 7 unknown #
coedge $-1 $238 $239 $95 $163 forward $230 $-1 #
edge $-1 $240 -76.923874934463242 $166 -68.014848413632322 $162 $241 forward 7 unknown #
edge $-1 $167 95.102771486131076 $240 110.25971251564073 $96 $242 forward 7 unknown #
coedge $-1 $97 $235 $238 $243 forward $92 $-1 #
vertex $-1 $98 $244 #
vertex $-1 $98 $245 #
straight-curve $-1 15.368454703004488 -15.848189850002239 9.0722910370716505 -1 0 0 I I #
coedge $-1 $169 $169 $-1 $246 reversed $101 $-1 #
edge $-1 $247 0 $247 6.2831853071796004 $102 $248 forward 7 unknown #
vertex $-1 $105 $249 #
ellipse-curve $-1 48.998744861361246 -22.716702699861496 4.6177777766561805 0.5877852598018023 0 0.80901698891910034 0.20225424722977509 0 -0.14694631495045057 1 I I #
coedge $-1 $173 $173 $-1 $250 reversed $108 $-1 #
edge $-1 $251 0 $251 6.2831853071796004 $109 $252 forward 7 unknown #
vertex $-1 $112 $253 #
ellipse-curve $-1 48.998744861361246 -20.141010381164271 4.6177777766561805 0.5877852598018023 0 0.80901698891910034 0.20225424722977509 0 -0.14694631495045057 1 I I #
coedge $-1 $177 $177 $-1 $254 reversed $115 $-1 #
edge $-1 $255 0 $255 6.2831853071796004 $116 $256 forward 7 unknown #
vertex $-1 $119 $257 #
ellipse-curve $-1 48.998744861361246 -17.56531806246705 4.6177777766561805 0.5877852598018023 0 0.80901698891910034 0.20225424722977509 0 -0.14694631495045057 1 I I #
face $-1 $-1 $135 $18 $-1 $258 reversed single #
loop $-1 $-1 $197 $120 #
plane-surface $-1 0 24.433830912326311 0 0 -1 0 0 0 -1 forward_v I I I I #
coedge $-1 $259 $195 $198 $260 forward $121 $-1 #
coedge $-1 $201 $123 $124 $189 reversed $76 $-1 #
coedge $-1 $195 $259 $123 $187 reversed $121 $-1 #
edge $-1 $202 -9.0722910370716523 $261 9.0722910370716523 $186 $262 forward 7 unknown #
coedge $-1 $125 $124 $259 $263 forward $49 $-1 #
edge $-1 $193 -55.129856257820364 $261 55.129856257820364 $185 $264 forward 7 unknown #
coedge $-1 $198 $197 $125 $191 reversed $182 $-1 #
edge $-1 $265 -55.129856257820364 $192 55.129856257820364 $190 $266 forward 7 unknown #
vertex $-1 $127 $267 #
vertex $-1 $204 $268 #
straight-curve $-1 55.129856257820364 0 -9.0722910370716523 0 -1 0 I I #
coedge $-1 $184 $186 $128 $196 reversed $121 $-1 #
edge $-1 $199 -24.433830912326311 $202 24.433830912326311 $195 $269 forward 7 unknown #
coedge $-1 $190 $129 $134 $205 forward $182 $-1 #
coedge $-1 $129 $190 $184 $260 reversed $182 $-1 #
vertex $-1 $130 $270 #
straight-curve $-1 0 24.433830912326311 9.0722910370716523 -1 0 0 I I #
coedge $-1 $131 $185 $133 $204 reversed $76 $-1 #
vertex $-1 $196 $271 #
straight-curve $-1 0 -24.433830912326311 9.0722910370716523 1 0 0 I I #
edge $-1 $136 -9.0722910370716523 $193 9.0722910370716523 $133 $272 forward 7 unknown #
edge $-1 $137 -9.0722910370716523 $192 9.0722910370716523 $134 $273 forward 7 unknown #
point $-1 55.129856257820364 -24.433830912326311 9.0722910370716523 #
point $-1 55.129856257820364 24.433830912326311 9.0722910370716523 #
face $-1 $-1 $221 $19 $-1 $274 reversed single #
loop $-1 $-1 $217 $139 #
plane-surface $-1 -55.129856257820364 0 0 1 0 0 0 0 -1 forward_v I I I I #
coedge $-1 $275 $142 $214 $276 forward $84 $-1 #
coedge $-1 $142 $275 $277 $278 forward $84 $-1 #
edge $-1 $279 -24.433830912326311 $215 24.433830912326311 $142 $280 forward 7 unknown #
coedge $-1 $144 $224 $211 $276 reversed $140 $-1 #
vertex $-1 $276 $281 #
straight-curve $-1 -45.26887090017064 -24.433830912326311 -3.5296436723944424 0 0 1 I I #
coedge $-1 $282 $283 $146 $218 forward $209 $-1 #
edge $-1 $225 -24.433830912326311 $222 24.433830912326311 $217 $284 forward 7 unknown #
coedge $-1 $277 $147 $151 $227 forward $221 $-1 #
coedge $-1 $147 $277 $282 $285 reversed $221 $-1 #
loop $-1 $-1 $219 $208 #
vertex $-1 $285 $286 #
straight-curve $-1 -25.099681789497751 24.433830912326311 -5.0462836525061174 1 0 0 I I #
coedge $-1 $214 $149 $283 $287 forward $140 $-1 #
vertex $-1 $287 $288 #
straight-curve $-1 -25.099681789497751 -24.433830912326311 -5.0462836525061174 -1 0 0 I I #
edge $-1 $153 1.516639980111675 $279 5.5426473646772099 $219 $289 forward 7 unknown #
point $-1 -45.26887090017064 -24.433830912326311 -5.0462836525061174 #
point $-1 -45.26887090017064 24.433830912326311 -5.0462836525061174 #
loop $-1 $-1 $162 $155 #
plane-surface $-1 55.129856257820364 0 0 -1 0 0 0 0 1 forward_v I I I I #
coedge $-1 $290 $291 $159 $234 forward $156 $-1 #
coedge $-1 $159 $158 $239 $292 reversed $57 $-1 #
edge $-1 $236 62.225428144885555 $293 77.382369174395194 $232 $294 forward 7 unknown #
coedge $-1 $165 $160 $291 $295 forward $92 $-1 #
vertex $-1 $295 $296 #
straight-curve $-1 42.867633464902106 -10.070505190582137 9.0722910370716505 0 -1 0 I I #
coedge $-1 $297 $162 $165 $243 reversed $230 $-1 #
coedge $-1 $162 $297 $233 $292 forward $230 $-1 #
vertex $-1 $163 $298 #
straight-curve $-1 55.129856257820364 -15.848189850002239 77.087139450703972 0 0 1 I I #
straight-curve $-1 -34.072124360668937 -15.848189850002239 64.972298282918644 0.80901698891910034 0 -0.5877852598018023 I I #
edge $-1 $299 -24.433830912326311 $166 -15.848189850002239 $238 $300 forward 7 unknown #
point $-1 55.129856257820364 -15.848189850002239 9.0722910370716523 #
point $-1 42.867633464902099 -15.848189850002239 9.0722910370716505 #
edge $-1 $301 1 $301 0 $169 $-1 forward 7 unknown #
vertex $-1 $170 $302 #
ellipse-curve $-1 48.410959601559448 -22.716702699861496 3.8087607877370915 0.5877852598018023 0 0.80901698891910034 0.20225424722977509 0 -0.14694631495045057 1 I I #
point $-1 49.20099910859102 -22.716702699861496 4.4708314617057408 #
edge $-1 $303 1 $303 0 $173 $-1 forward 7 unknown #
vertex $-1 $174 $304 #
ellipse-curve $-1 48.410959601559448 -20.141010381164271 3.8087607877370915 0.5877852598018023 0 0.80901698891910034 0.20225424722977509 0 -0.14694631495045057 1 I I #
point $-1 49.20099910859102 -20.141010381164271 4.4708314617057408 #
edge $-1 $305 1 $305 0 $177 $-1 forward 7 unknown #
vertex $-1 $178 $306 #
ellipse-curve $-1 48.410959601559448 -17.56531806246705 3.8087607877370915 0.5877852598018023 0 0.80901698891910034 0.20225424722977509 0 -0.14694631495045057 1 I I #
point $-1 49.20099910859102 -17.56531806246705 4.4708314617057408 #
plane-surface $-1 55.129856257820364 0 0 -1 0 0 0 0 1 forward_v I I I I #
coedge $-1 $186 $184 $188 $263 reversed $121 $-1 #
edge $-1 $199 -9.0722910370716523 $265 9.0722910370716523 $198 $307 forward 7 unknown #
vertex $-1 $263 $308 #
straight-curve $-1 -55.129856257820364 -24.433830912326311 0 0 0 -1 I I #
edge $-1 $261 -24.433830912326311 $265 24.433830912326311 $259 $309 forward 7 unknown #
straight-curve $-1 0 -24.433830912326311 -9.0722910370716523 -1 0 0 I I #
vertex $-1 $191 $310 #
straight-curve $-1 0 24.433830912326311 -9.0722910370716523 1 0 0 I I #
point $-1 55.129856257820364 24.433830912326311 -9.0722910370716523 #
point $-1 55.129856257820364 -24.433830912326311 -9.0722910370716523 #
straight-curve $-1 -55.129856257820364 0 9.0722910370716523 0 -1 0 I I #
point $-1 -55.129856257820364 24.433830912326311 9.0722910370716523 #
point $-1 -55.129856257820364 -24.433830912326311 9.0722910370716523 #
straight-curve $-1 55.129856257820364 -24.433830912326311 0 0 0 -1 I I #
straight-curve $-1 55.129856257820364 24.433830912326311 0 0 0 -1 I I #
plane-surface $-1 0 24.433830912326311 0 0 -1 0 0 0 -1 forward_v I I I I #
coedge $-1 $212 $211 $311 $312 forward $84 $-1 #
edge $-1 $215 45.26887090017064 $313 55.129856257820364 $214 $314 forward 7 unknown #
coedge $-1 $220 $219 $212 $278 reversed $221 $-1 #
edge $-1 $315 -55.129856257820364 $279 -45.26887090017064 $277 $316 forward 7 unknown #
vertex $-1 $227 $317 #
straight-curve $-1 -45.26887090017064 0 -9.0722910370716523 0 -1 0 I I #
point $-1 -45.26887090017064 -24.433830912326311 -9.0722910370716523 #
coedge $-1 $311 $217 $220 $285 forward $209 $-1 #
coedge $-1 $217 $311 $224 $287 reversed $209 $-1 #
straight-curve $-1 -55.129856257820364 0 -5.0462836525061174 0 1 0 I I #
edge $-1 $222 5.0462836525061174 $315 9.0722910370716523 $220 $318 forward 7 unknown #
point $-1 -55.129856257820364 24.433830912326311 -5.0462836525061174 #
edge $-1 $225 5.0462836525061174 $313 9.0722910370716523 $283 $319 forward 7 unknown #
point $-1 -55.129856257820364 -24.433830912326311 -5.0462836525061174 #
straight-curve $-1 -45.26887090017064 24.433830912326311 -3.5296436723944424 0 0 -1 I I #
coedge $-1 $291 $232 $297 $320 reversed $156 $-1 #
coedge $-1 $232 $290 $235 $295 reversed $156 $-1 #
edge $-1 $293 -14.363325721744173 $240 -5.7776846594201015 $239 $321 forward 7 unknown #
vertex $-1 $234 $322 #
straight-curve $-1 -7.473795047075054 -24.433830912326311 45.647480485491585 0.80901698891910034 0 -0.5877852598018023 I I #
edge $-1 $236 42.867633464902099 $299 55.129856257820364 $291 $323 forward 7 unknown #
point $-1 42.867633464902099 -24.433830912326311 9.0722910370716523 #
coedge $-1 $239 $238 $290 $320 forward $230 $-1 #
point $-1 55.129856257820364 -15.848189850002239 0.16326451624073002 #
vertex $-1 $243 $324 #
straight-curve $-1 55.129856257820364 0 9.0722910370716523 0 1 0 I I #
vertex $-1 $246 $325 #
point $-1 48.613213848789222 -22.716702699861496 3.6618144727866406 #
vertex $-1 $250 $326 #
point $-1 48.613213848789222 -20.141010381164271 3.6618144727866406 #
vertex $-1 $254 $327 #
point $-1 48.613213848789222 -17.56531806246705 3.6618144727866406 #
straight-curve $-1 -55.129856257820364 24.433830912326311 0 0 0 -1 I I #
point $-1 -55.129856257820364 -24.433830912326311 -9.0722910370716523 #
straight-curve $-1 -55.129856257820364 0 -9.0722910370716523 0 1 0 I I #
point $-1 -55.129856257820364 24.433830912326311 -9.0722910370716523 #
coedge $-1 $283 $282 $275 $312 reversed $209 $-1 #
edge $-1 $313 -24.433830912326311 $315 24.433830912326311 $311 $328 forward 7 unknown #
vertex $-1 $312 $329 #
straight-curve $-1 0 -24.433830912326311 -9.0722910370716523 -1 0 0 I I #
vertex $-1 $278 $330 #
straight-curve $-1 0 24.433830912326311 -9.0722910370716523 1 0 0 I I #
point $-1 -45.26887090017064 24.433830912326311 -9.0722910370716523 #
straight-curve $-1 -55.129856257820364 24.433830912326311 0 0 0 -1 I I #
straight-curve $-1 -55.129856257820364 -24.433830912326311 0 0 0 -1 I I #
edge $-1 $299 -9.0722910370716523 $293 -0.1632645162407271 $297 $331 forward 7 unknown #
straight-curve $-1 55.129856257820364 -10.070505190582137 0.16326451624073002 0 1 0 I I #
point $-1 55.129856257820364 -24.433830912326311 0.1632645162407271 #
straight-curve $-1 0 -24.433830912326311 9.0722910370716523 1 0 0 I I #
point $-1 55.129856257820364 -24.433830912326311 9.0722910370716523 #
point $-1 48.264013286608993 -22.716702699861496 3.6065065405073162 #
point $-1 48.264013286608993 -20.141010381164271 3.6065065405073162 #
point $-1 48.264013286608993 -17.56531806246705 3.6065065405073162 #
straight-curve $-1 -55.129856257820364 0 -9.0722910370716523 0 1 0 I I #
point $-1 -55.129856257820364 -24.433830912326311 -9.0722910370716523 #
point $-1 -55.129856257820364 24.433830912326311 -9.0722910370716523 #
straight-curve $-1 55.129856257820364 -24.433830912326311 0 0 0 -1 I I #
End-of-ACIS-data 