500 0 4 0           
7 Unknown 11 ACIS 5.0 NT 24 Thu Mar 25 23:02:44 1999 
-1 9.9999999999999995e-007 1e-010 
body $-1 $4 $-1 $5 #
body $-1 $6 $-1 $7 #
body $-1 $8 $-1 $9 #
body $-1 $10 $-1 $11 #
lump $-1 $-1 $12 $0 #
transform $-1 1 0 0 0 1 0 0 0 1 54.811243018890963 34.456628668270795 11.37256976178722 1 rotate no_reflect no_shear #
lump $-1 $-1 $13 $1 #
transform $-1 1 0 0 0 1 0 0 0 1 54.811243018890963 34.456628668270795 11.37256976178722 1 rotate no_reflect no_shear #
lump $-1 $-1 $14 $2 #
transform $-1 1 0 0 0 1 0 0 0 1 54.811243018890963 34.456628668270795 11.37256976178722 1 rotate no_reflect no_shear #
lump $-1 $-1 $15 $3 #
transform $-1 1 0 0 0 1 0 0 0 1 54.811243018890963 34.456628668270795 11.37256976178722 1 rotate no_reflect no_shear #
shell $-1 $-1 $-1 $16 $-1 $4 #
shell $-1 $-1 $-1 $17 $-1 $6 #
shell $-1 $-1 $-1 $18 $-1 $8 #
shell $-1 $-1 $-1 $19 $-1 $10 #
face $-1 $20 $21 $12 $-1 $22 forward single #
face $-1 $23 $24 $13 $-1 $25 forward single #
face $-1 $26 $27 $14 $-1 $28 reversed single #
face $-1 $29 $30 $15 $-1 $31 forward single #
face $-1 $32 $33 $12 $-1 $34 reversed single #
loop $-1 $-1 $35 $16 #
plane-surface $-1 0 0 11.37256976178722 0 0 1 1 0 0 forward_v I I I I #
face $-1 $36 $37 $13 $-1 $38 reversed single #
loop $-1 $-1 $39 $17 #
plane-surface $-1 0 -27.533941687197114 -4.6557878296004676 0 0 1 1 0 0 forward_v I I I I #
face $-1 $40 $41 $14 $-1 $42 reversed single #
loop $-1 $-1 $43 $18 #
plane-surface $-1 -31.735554141495996 45.392514449942936 132.54146428885934 -1 0 0 0 0.6018150307709319 0.79863550430605224 forward_v I I I I #
face $-1 $44 $45 $15 $-1 $46 forward single #
loop $-1 $47 $48 $19 #
cone-surface $-1 -43.273398580193479 27.763816313208309 5.4789908702616614 0 -0.6018150307709319 -0.79863550430605224 2 0 0 1 I I 0 1 2 forward I I I I #
face $-1 $49 $50 $12 $-1 $51 reversed single #
loop $-1 $-1 $52 $20 #
plane-surface $-1 0 0 -11.37256976178722 0 0 1 1 0 0 forward_v I I I I #
coedge $-1 $53 $54 $55 $56 forward $21 $-1 #
face $-1 $57 $58 $13 $-1 $59 reversed single #
loop $-1 $-1 $60 $23 #
plane-surface $-1 0 -20.611254706123432 -8.0141787956938444 0 -1 0 0 0 -1 forward_v I I I I #
coedge $-1 $61 $62 $63 $64 reversed $24 $-1 #
face $-1 $65 $66 $14 $-1 $67 reversed single #
loop $-1 $-1 $68 $26 #
plane-surface $-1 -43.273398580193479 -20.579945358070844 44.9930548687922 0 0.6018150307709319 0.79863550430605224 1 0 0 forward_v I I I I #
coedge $-1 $69 $70 $71 $72 reversed $27 $-1 #
face $-1 $-1 $73 $15 $-1 $74 forward single #
loop $-1 $75 $76 $29 #
cone-surface $-1 -43.273398580193479 25.679531052519884 2.7130509631855251 0 -0.6018150307709319 -0.79863550430605224 1 0 0 1 I I -0.70710678118654746 0.70710678118654746 1 forward I I I I #
loop $-1 $-1 $77 $19 #
coedge $-1 $48 $48 $78 $79 reversed $30 $-1 #
face $-1 $80 $81 $12 $-1 $82 reversed single #
loop $-1 $-1 $83 $32 #
plane-surface $-1 0 -34.456628668270795 0 0 1 0 0 0 1 forward_v I I I I #
coedge $-1 $84 $85 $86 $87 forward $33 $-1 #
coedge $-1 $88 $35 $89 $90 forward $21 $-1 #
coedge $-1 $35 $88 $91 $92 forward $21 $-1 #
coedge $-1 $93 $94 $35 $56 reversed $95 $-1 #
edge $-1 $96 -34.456628668270795 $97 34.456628668270795 $55 $98 forward 7 unknown #
face $-1 $99 $100 $13 $-1 $101 reversed single #
loop $-1 $-1 $102 $36 #
plane-surface $-1 0 0 -11.37256976178722 0 0 1 1 0 0 forward_v I I I I #
coedge $-1 $103 $104 $105 $106 reversed $37 $-1 #
coedge $-1 $107 $39 $104 $108 forward $24 $-1 #
coedge $-1 $39 $107 $109 $110 reversed $24 $-1 #
coedge $-1 $111 $105 $39 $64 forward $100 $-1 #
edge $-1 $112 6.8442838625248754 $113 20.689657824672238 $63 $114 forward 7 unknown #
face $-1 $115 $116 $14 $-1 $117 forward single #
loop $-1 $-1 $71 $40 #
plane-surface $-1 0 34.456628668270795 0 0 -1 0 0 0 -1 forward_v I I I I #
coedge $-1 $118 $119 $120 $121 reversed $41 $-1 #
coedge $-1 $70 $43 $122 $123 reversed $27 $-1 #
coedge $-1 $43 $69 $118 $124 reversed $27 $-1 #
coedge $-1 $120 $125 $43 $72 forward $66 $-1 #
edge $-1 $126 54.898162382642454 $127 62.750711360153389 $71 $128 forward 7 unknown #
loop $-1 $-1 $78 $44 #
plane-surface $-1 -43.273398580193479 -20.579945358070844 44.9930548687922 0 0.6018150307709319 0.79863550430605224 1 0 0 forward_v I I I I #
loop $-1 $-1 $129 $29 #
coedge $-1 $76 $76 $77 $130 reversed $45 $-1 #
coedge $-1 $77 $77 $76 $130 forward $47 $-1 #
coedge $-1 $78 $78 $48 $79 forward $73 $-1 #
edge $-1 $131 7.1941485166571027e-016 $131 6.2831853071796013 $78 $132 forward 7 unknown #
face $-1 $133 $134 $12 $-1 $135 reversed single #
loop $-1 $-1 $136 $49 #
plane-surface $-1 -54.811243018890963 0 0 1 0 0 0 0 -1 forward_v I I I I #
coedge $-1 $137 $91 $138 $139 forward $50 $-1 #
coedge $-1 $140 $52 $137 $141 forward $33 $-1 #
coedge $-1 $52 $140 $142 $143 forward $33 $-1 #
coedge $-1 $94 $93 $52 $87 reversed $95 $-1 #
edge $-1 $144 -34.456628668270795 $145 34.456628668270795 $86 $146 forward 7 unknown #
coedge $-1 $54 $53 $147 $148 forward $21 $-1 #
coedge $-1 $149 $150 $53 $90 reversed $134 $-1 #
edge $-1 $97 -54.811243018890963 $151 54.811243018890963 $89 $152 forward 7 unknown #
coedge $-1 $83 $153 $54 $92 reversed $50 $-1 #
edge $-1 $154 -54.811243018890963 $96 54.811243018890963 $91 $155 forward 7 unknown #
coedge $-1 $86 $55 $153 $156 forward $95 $-1 #
coedge $-1 $55 $86 $149 $157 reversed $95 $-1 #
loop $-1 $-1 $93 $133 #
vertex $-1 $56 $158 #
vertex $-1 $56 $159 #
straight-curve $-1 54.811243018890963 0 11.37256976178722 0 1 0 I I #
face $-1 $160 $161 $13 $-1 $162 reversed single #
loop $-1 $-1 $105 $57 #
plane-surface $-1 54.811243018890963 0 0 -1 0 0 0 0 1 forward_v I I I I #
coedge $-1 $163 $164 $103 $165 forward $58 $-1 #
coedge $-1 $166 $60 $102 $165 reversed $37 $-1 #
coedge $-1 $60 $166 $61 $108 reversed $37 $-1 #
coedge $-1 $63 $167 $60 $106 forward $100 $-1 #
edge $-1 $168 -7.3654803639402999 $112 -0.64869843175354536 $105 $169 forward 7 unknown #
coedge $-1 $62 $61 $170 $171 reversed $24 $-1 #
edge $-1 $112 -54.811243018890963 $172 54.811243018890963 $104 $173 forward 7 unknown #
coedge $-1 $174 $175 $62 $110 forward $161 $-1 #
edge $-1 $113 -54.811243018890963 $176 54.811243018890963 $109 $177 forward 7 unknown #
coedge $-1 $167 $63 $175 $178 forward $100 $-1 #
vertex $-1 $64 $179 #
vertex $-1 $178 $180 #
straight-curve $-1 54.811243018890963 -13.766970843598557 -4.6557878296004676 0 -1 0 I I #
face $-1 $-1 $181 $14 $-1 $182 reversed single #
loop $-1 $-1 $122 $65 #
plane-surface $-1 0 0 11.37256976178722 0 0 1 1 0 0 forward_v I I I I #
coedge $-1 $183 $68 $70 $124 forward $41 $-1 #
coedge $-1 $68 $183 $184 $185 reversed $41 $-1 #
coedge $-1 $186 $71 $68 $121 forward $66 $-1 #
edge $-1 $127 10.098854851399256 $187 33.17454372879422 $120 $188 forward 7 unknown #
coedge $-1 $189 $190 $69 $123 forward $116 $-1 #
edge $-1 $191 1.3396871930093539 $126 11.760371443299327 $122 $192 forward 7 unknown #
edge $-1 $127 -68.913257336541577 $191 -55.865146910566125 $70 $193 forward 7 unknown #
coedge $-1 $71 $186 $189 $194 reversed $66 $-1 #
vertex $-1 $194 $195 #
vertex $-1 $72 $196 #
straight-curve $-1 -31.735554141495996 34.456628668270795 66.270732144429672 0 0 -1 I I #
coedge $-1 $129 $129 $-1 $197 reversed $75 $-1 #
edge $-1 $198 0 $198 6.2831853071796004 $76 $199 forward 7 unknown #
vertex $-1 $79 $200 #
ellipse-curve $-1 -43.273398580193479 29.246286543125809 7.4462952730317511 0 0.6018150307709319 0.79863550430605224 2 0 0 1 I I #
face $-1 $-1 $95 $12 $-1 $201 reversed single #
loop $-1 $-1 $149 $80 #
plane-surface $-1 0 34.456628668270795 0 0 -1 0 0 0 -1 forward_v I I I I #
coedge $-1 $202 $147 $150 $203 forward $81 $-1 #
coedge $-1 $153 $83 $84 $141 reversed $50 $-1 #
coedge $-1 $147 $202 $83 $139 reversed $81 $-1 #
edge $-1 $154 -11.37256976178722 $204 11.37256976178722 $138 $205 forward 7 unknown #
coedge $-1 $85 $84 $202 $206 forward $33 $-1 #
edge $-1 $145 -54.811243018890963 $204 54.811243018890963 $137 $207 forward 7 unknown #
coedge $-1 $150 $149 $85 $143 reversed $134 $-1 #
edge $-1 $208 -54.811243018890963 $144 54.811243018890963 $142 $209 forward 7 unknown #
vertex $-1 $87 $210 #
vertex $-1 $156 $211 #
straight-curve $-1 54.811243018890963 0 -11.37256976178722 0 -1 0 I I #
coedge $-1 $136 $138 $88 $148 reversed $81 $-1 #
edge $-1 $151 -34.456628668270795 $154 34.456628668270795 $147 $212 forward 7 unknown #
coedge $-1 $142 $89 $94 $157 forward $134 $-1 #
coedge $-1 $89 $142 $136 $203 reversed $134 $-1 #
vertex $-1 $90 $213 #
straight-curve $-1 0 34.456628668270795 11.37256976178722 -1 0 0 I I #
coedge $-1 $91 $137 $93 $156 reversed $50 $-1 #
vertex $-1 $148 $214 #
straight-curve $-1 0 -34.456628668270795 11.37256976178722 1 0 0 I I #
edge $-1 $96 -11.37256976178722 $145 11.37256976178722 $93 $215 forward 7 unknown #
edge $-1 $97 -11.37256976178722 $144 11.37256976178722 $94 $216 forward 7 unknown #
point $-1 54.811243018890963 -34.456628668270795 11.37256976178722 #
point $-1 54.811243018890963 34.456628668270795 11.37256976178722 #
face $-1 $-1 $217 $13 $-1 $218 reversed single #
loop $-1 $-1 $109 $99 #
plane-surface $-1 0 -34.456628668270795 0 0 1 0 0 0 1 forward_v I I I I #
coedge $-1 $219 $102 $167 $220 forward $58 $-1 #
coedge $-1 $102 $219 $221 $222 forward $58 $-1 #
edge $-1 $223 -54.811243018890963 $168 54.811243018890963 $102 $224 forward 7 unknown #
coedge $-1 $104 $103 $225 $226 reversed $37 $-1 #
coedge $-1 $105 $111 $163 $220 reversed $100 $-1 #
vertex $-1 $220 $227 #
straight-curve $-1 54.811243018890963 -20.611254706123432 -4.0070893978469222 0 0 1 I I #
coedge $-1 $225 $228 $107 $171 forward $217 $-1 #
edge $-1 $176 -20.689657824672238 $172 -6.8442838625248754 $170 $229 forward 7 unknown #
vertex $-1 $171 $230 #
straight-curve $-1 0 -20.611254706123432 -4.6557878296004676 -1 0 0 I I #
coedge $-1 $231 $109 $228 $232 forward $161 $-1 #
coedge $-1 $109 $231 $111 $178 reversed $161 $-1 #
vertex $-1 $232 $233 #
straight-curve $-1 0 -34.456628668270795 -4.6557878296004676 -1 0 0 I I #
edge $-1 $113 4.6557878296004676 $234 11.37256976178722 $111 $235 forward 7 unknown #
point $-1 54.811243018890963 -20.611254706123432 -4.6557878296004676 #
point $-1 54.811243018890963 -34.456628668270795 -4.6557878296004676 #
loop $-1 $-1 $184 $115 #
plane-surface $-1 -54.811243018890963 0 0 1 0 0 0 0 -1 forward_v I I I I #
coedge $-1 $119 $118 $190 $236 reversed $41 $-1 #
coedge $-1 $237 $238 $119 $185 forward $181 $-1 #
edge $-1 $187 -47.156571466554425 $239 -34.108461040578966 $184 $240 forward 7 unknown #
coedge $-1 $125 $120 $238 $241 reversed $66 $-1 #
vertex $-1 $121 $242 #
straight-curve $-1 -21.63669929009674 34.456628668270795 3.5200207842762801 -1 0 0 I I #
coedge $-1 $243 $122 $125 $194 forward $116 $-1 #
coedge $-1 $122 $243 $183 $236 forward $116 $-1 #
vertex $-1 $123 $244 #
straight-curve $-1 -31.735554141495996 22.696257224971468 11.372569761787219 0 1 0 I I #
straight-curve $-1 -31.735554141495996 -20.579945358070844 44.9930548687922 0 -0.79863550430605224 0.6018150307709319 I I #
edge $-1 $126 31.735554141495996 $245 54.811243018890963 $125 $246 forward 7 unknown #
point $-1 -31.735554141495996 34.456628668270795 11.37256976178722 #
point $-1 -31.735554141495996 34.456628668270788 3.5200207842762836 #
edge $-1 $247 1 $247 0 $129 $-1 forward 7 unknown #
vertex $-1 $130 $248 #
ellipse-curve $-1 -43.273398580193479 26.281346083290817 3.5116864674915771 0 0.6018150307709319 0.79863550430605224 2 0 0 1 I I #
point $-1 -41.273398580193479 29.246286543125805 7.446295273031744 #
plane-surface $-1 54.811243018890963 0 0 -1 0 0 0 0 1 forward_v I I I I #
coedge $-1 $138 $136 $140 $206 reversed $81 $-1 #
edge $-1 $151 -11.37256976178722 $208 11.37256976178722 $150 $249 forward 7 unknown #
vertex $-1 $206 $250 #
straight-curve $-1 -54.811243018890963 -34.456628668270795 0 0 0 -1 I I #
edge $-1 $204 -34.456628668270795 $208 34.456628668270795 $202 $251 forward 7 unknown #
straight-curve $-1 0 -34.456628668270795 -11.37256976178722 -1 0 0 I I #
vertex $-1 $143 $252 #
straight-curve $-1 0 34.456628668270795 -11.37256976178722 1 0 0 I I #
point $-1 54.811243018890963 34.456628668270795 -11.37256976178722 #
point $-1 54.811243018890963 -34.456628668270795 -11.37256976178722 #
straight-curve $-1 -54.811243018890963 0 11.37256976178722 0 -1 0 I I #
point $-1 -54.811243018890963 34.456628668270795 11.37256976178722 #
point $-1 -54.811243018890963 -34.456628668270795 11.37256976178722 #
straight-curve $-1 54.811243018890963 -34.456628668270795 0 0 0 -1 I I #
straight-curve $-1 54.811243018890963 34.456628668270795 0 0 0 -1 I I #
loop $-1 $-1 $225 $160 #
plane-surface $-1 -54.811243018890963 0 0 1 0 0 0 0 -1 forward_v I I I I #
coedge $-1 $164 $163 $231 $253 forward $58 $-1 #
edge $-1 $168 20.611254706123432 $234 34.456628668270795 $167 $254 forward 7 unknown #
coedge $-1 $228 $225 $164 $222 reversed $217 $-1 #
edge $-1 $255 -34.456628668270795 $223 -20.611254706123432 $221 $256 forward 7 unknown #
vertex $-1 $226 $257 #
straight-curve $-1 0 -20.611254706123432 -11.37256976178722 1 0 0 I I #
coedge $-1 $221 $170 $166 $226 forward $217 $-1 #
edge $-1 $172 0.64869843175354536 $223 7.3654803639402999 $225 $258 forward 7 unknown #
point $-1 54.811243018890963 -20.611254706123432 -11.372569761787222 #
coedge $-1 $170 $221 $174 $232 reversed $217 $-1 #
straight-curve $-1 -54.811243018890963 -13.766970843598557 -4.6557878296004676 0 1 0 I I #
point $-1 -54.811243018890963 -20.611254706123432 -4.6557878296004676 #
coedge $-1 $175 $174 $219 $253 reversed $161 $-1 #
edge $-1 $176 4.6557878296004676 $255 11.37256976178722 $228 $259 forward 7 unknown #
point $-1 -54.811243018890963 -34.456628668270795 -4.6557878296004676 #
vertex $-1 $178 $260 #
straight-curve $-1 54.811243018890963 -34.456628668270795 0 0 0 -1 I I #
edge $-1 $239 -33.17454372879422 $191 -10.098854851399256 $190 $261 forward 7 unknown #
coedge $-1 $238 $184 $243 $262 reversed $181 $-1 #
coedge $-1 $184 $237 $186 $241 forward $181 $-1 #
vertex $-1 $185 $263 #
straight-curve $-1 -54.811243018890963 -3.2042835662652918 31.899554292472381 0 -0.79863550430605224 0.6018150307709319 I I #
edge $-1 $245 -11.37256976178722 $187 -3.5200207842762792 $186 $264 forward 7 unknown #
point $-1 -54.811243018890963 34.456628668270795 3.5200207842762792 #
coedge $-1 $190 $189 $237 $262 forward $116 $-1 #
point $-1 -31.735554141495996 24.035944417980822 11.372569761787219 #
vertex $-1 $194 $265 #
straight-curve $-1 0 34.456628668270795 11.37256976178722 -1 0 0 I I #
vertex $-1 $197 $266 #
point $-1 -41.273398580193479 26.281346083290817 3.5116864674915771 #
straight-curve $-1 -54.811243018890963 34.456628668270795 0 0 0 -1 I I #
point $-1 -54.811243018890963 -34.456628668270795 -11.37256976178722 #
straight-curve $-1 -54.811243018890963 0 -11.37256976178722 0 1 0 I I #
point $-1 -54.811243018890963 34.456628668270795 -11.37256976178722 #
edge $-1 $234 -54.811243018890963 $255 54.811243018890963 $231 $267 forward 7 unknown #
straight-curve $-1 54.811243018890963 0 -11.37256976178722 0 -1 0 I I #
vertex $-1 $222 $268 #
straight-curve $-1 -54.811243018890963 0 -11.37256976178722 0 1 0 I I #
point $-1 -54.811243018890963 -20.611254706123432 -11.372569761787222 #
straight-curve $-1 -54.811243018890963 -20.611254706123432 -4.0070893978469222 0 0 -1 I I #
straight-curve $-1 -54.811243018890963 -34.456628668270795 0 0 0 -1 I I #
point $-1 54.811243018890963 -34.456628668270795 -11.37256976178722 #
straight-curve $-1 -21.63669929009674 24.035944417980826 11.372569761787215 1 0 0 I I #
edge $-1 $245 -34.456628668270795 $239 -24.035944417980822 $237 $269 forward 7 unknown #
point $-1 -54.811243018890963 24.035944417980822 11.372569761787219 #
straight-curve $-1 -54.811243018890963 34.456628668270795 0 0 0 -1 I I #
point $-1 -54.811243018890963 34.456628668270795 11.37256976178722 #
point $-1 -43.273398580193479 25.077716021748952 1.9144154588794728 #
straight-curve $-1 0 -34.456628668270795 -11.37256976178722 -1 0 0 I I #
point $-1 -54.811243018890963 -34.456628668270795 -11.37256976178722 #
straight-curve $-1 -54.811243018890963 0 11.37256976178722 0 -1 0 I I #
End-of-ACIS-data 