500 0 9 0           
7 Unknown 11 ACIS 5.0 NT 24 Thu Mar 25 15:22:41 1999 
-1 9.9999999999999995e-007 1e-010 
body $-1 $9 $-1 $10 #
body $-1 $11 $-1 $12 #
body $-1 $13 $-1 $14 #
body $-1 $15 $-1 $16 #
body $-1 $17 $-1 $18 #
body $-1 $19 $-1 $20 #
body $-1 $21 $-1 $22 #
body $-1 $23 $-1 $24 #
body $-1 $25 $-1 $26 #
lump $-1 $-1 $27 $0 #
transform $-1 1 0 0 0 1 0 0 0 1 40.062257759331033 26.222457566071849 8.4930288220298085 1 rotate no_reflect no_shear #
lump $-1 $-1 $28 $1 #
transform $-1 1 0 0 0 1 0 0 0 1 40.062257759331033 26.222457566071849 8.4930288220298085 1 rotate no_reflect no_shear #
lump $-1 $-1 $29 $2 #
transform $-1 1 0 0 0 1 0 0 0 1 40.062257759331033 26.222457566071849 8.4930288220298085 1 rotate no_reflect no_shear #
lump $-1 $-1 $30 $3 #
transform $-1 1 0 0 0 1 0 0 0 1 40.062257759331033 26.222457566071849 8.4930288220298085 1 rotate no_reflect no_shear #
lump $-1 $-1 $31 $4 #
transform $-1 1 0 0 0 1 0 0 0 1 40.062257759331033 26.222457566071849 8.4930288220298085 1 rotate no_reflect no_shear #
lump $-1 $-1 $32 $5 #
transform $-1 1 0 0 0 1 0 0 0 1 40.062257759331033 26.222457566071849 8.4930288220298085 1 rotate no_reflect no_shear #
lump $-1 $-1 $33 $6 #
transform $-1 1 0 0 0 1 0 0 0 1 40.062257759331033 26.222457566071849 8.4930288220298085 1 rotate no_reflect no_shear #
lump $-1 $-1 $34 $7 #
transform $-1 1 0 0 0 1 0 0 0 1 40.062257759331033 26.222457566071849 8.4930288220298085 1 rotate no_reflect no_shear #
lump $-1 $-1 $35 $8 #
transform $-1 1 0 0 0 1 0 0 0 1 40.062257759331033 26.222457566071849 8.4930288220298085 1 rotate no_reflect no_shear #
shell $-1 $-1 $-1 $36 $-1 $9 #
shell $-1 $-1 $-1 $37 $-1 $11 #
shell $-1 $-1 $-1 $38 $-1 $13 #
shell $-1 $-1 $-1 $39 $-1 $15 #
shell $-1 $-1 $-1 $40 $-1 $17 #
shell $-1 $-1 $-1 $41 $-1 $19 #
shell $-1 $-1 $-1 $42 $-1 $21 #
shell $-1 $-1 $-1 $43 $-1 $23 #
shell $-1 $-1 $-1 $44 $-1 $25 #
face $-1 $45 $46 $27 $-1 $47 forward single #
face $-1 $48 $49 $28 $-1 $50 reversed single #
face $-1 $51 $52 $29 $-1 $53 forward single #
face $-1 $54 $55 $30 $-1 $56 reversed single #
face $-1 $57 $58 $31 $-1 $59 forward single #
face $-1 $60 $61 $32 $-1 $62 forward single #
face $-1 $63 $64 $33 $-1 $65 reversed single #
face $-1 $66 $67 $34 $-1 $68 forward single #
face $-1 $69 $70 $35 $-1 $71 forward single #
face $-1 $72 $73 $27 $-1 $74 reversed single #
loop $-1 $-1 $75 $36 #
plane-surface $-1 0 0 8.4930288220298085 0 0 1 1 0 0 forward_v I I I I #
face $-1 $76 $77 $28 $-1 $78 reversed single #
loop $-1 $-1 $79 $37 #
plane-surface $-1 -26.076200115271416 -22.129987678190243 0 1 0 0 0 0 -1 forward_v I I I I #
face $-1 $80 $81 $29 $-1 $82 forward single #
loop $-1 $-1 $83 $38 #
plane-surface $-1 0 26.222457566071849 0 0 -1 0 0 0 -1 forward_v I I I I #
face $-1 $84 $85 $30 $-1 $86 reversed single #
loop $-1 $-1 $87 $39 #
plane-surface $-1 71.29560382906503 -9.8355228160717054 113.41047497839068 0 -1 0 -0.87461971476443456 0 -0.48480960649040278 forward_v I I I I #
face $-1 $88 $89 $31 $-1 $90 forward single #
loop $-1 $91 $92 $40 #
cone-surface $-1 38.182343427123207 -15.694090654812369 6.0633553679680157 -0.87461971476443456 0 -0.48480960649040278 0.48480960649040278 0 -0.87461971476443456 1 I I 0 1 1 forward I I I I #
face $-1 $93 $94 $32 $-1 $95 forward single #
loop $-1 $96 $97 $41 #
cone-surface $-1 38.182343427123207 -12.178949951567969 6.0633553679680157 -0.87461971476443456 0 -0.48480960649040278 0.48480960649040278 0 -0.87461971476443456 1 I I 0 1 1 forward I I I I #
face $-1 $98 $99 $33 $-1 $100 reversed single #
loop $-1 $-1 $101 $42 #
plane-surface $-1 71.29560382906503 8.0968734281890598 113.41047497839068 0 -1 0 -0.87461971476443456 0 -0.48480960649040278 forward_v I I I I #
face $-1 $102 $103 $34 $-1 $104 forward single #
loop $-1 $105 $106 $43 #
cone-surface $-1 38.182343427123207 2.2383055894483981 6.0633553679680157 -0.87461971476443456 0 -0.48480960649040278 0.48480960649040278 0 -0.87461971476443456 1 I I 0 1 1 forward I I I I #
face $-1 $107 $108 $35 $-1 $109 forward single #
loop $-1 $110 $111 $44 #
cone-surface $-1 38.182343427123207 5.7534462926927965 6.0633553679680157 -0.87461971476443456 0 -0.48480960649040278 0.48480960649040278 0 -0.87461971476443456 1 I I 0 1 1 forward I I I I #
face $-1 $112 $113 $27 $-1 $114 reversed single #
loop $-1 $-1 $115 $45 #
plane-surface $-1 0 0 -8.4930288220298085 0 0 1 1 0 0 forward_v I I I I #
coedge $-1 $116 $117 $118 $119 forward $46 $-1 #
face $-1 $120 $121 $28 $-1 $122 reversed single #
loop $-1 $-1 $123 $48 #
plane-surface $-1 -24.576200115271416 -18.037517790308637 0 0 -1 0 0 0 -1 forward_v I I I I #
coedge $-1 $124 $125 $126 $127 forward $49 $-1 #
face $-1 $128 $129 $29 $-1 $130 reversed single #
loop $-1 $-1 $131 $51 #
plane-surface $-1 0 0 8.4930288220298085 0 0 1 1 0 0 forward_v I I I I #
coedge $-1 $132 $133 $134 $135 forward $52 $-1 #
face $-1 $136 $137 $30 $-1 $138 reversed single #
loop $-1 $-1 $139 $54 #
plane-surface $-1 1.2171229204943046 -13.936520303190171 74.565340139553953 0.87461971476443456 0 0.48480960649040278 0.48480960649040278 0 -0.87461971476443456 forward_v I I I I #
coedge $-1 $140 $141 $142 $143 reversed $55 $-1 #
face $-1 $-1 $144 $31 $-1 $145 forward single #
loop $-1 $146 $147 $57 #
cone-surface $-1 36.975447229334847 -15.694090654812369 5.3943619061843062 -0.87461971476443456 0 -0.48480960649040278 0.24240480324520139 0 -0.43730985738221728 1 I I -0.70710678118654746 0.70710678118654746 0.5 forward I I I I #
loop $-1 $-1 $148 $40 #
coedge $-1 $92 $92 $149 $150 reversed $58 $-1 #
face $-1 $-1 $151 $32 $-1 $152 forward single #
loop $-1 $153 $154 $60 #
cone-surface $-1 36.975447229334847 -12.178949951567969 5.3943619061843062 -0.87461971476443456 0 -0.48480960649040278 0.24240480324520139 0 -0.43730985738221728 1 I I -0.70710678118654746 0.70710678118654746 0.5 forward I I I I #
loop $-1 $-1 $155 $41 #
coedge $-1 $97 $97 $156 $157 reversed $61 $-1 #
face $-1 $158 $159 $33 $-1 $160 reversed single #
loop $-1 $-1 $161 $63 #
plane-surface $-1 1.2171229204943046 3.9958759410705937 74.565340139553953 0.87461971476443456 0 0.48480960649040278 0.48480960649040278 0 -0.87461971476443456 forward_v I I I I #
coedge $-1 $162 $163 $164 $165 reversed $64 $-1 #
face $-1 $-1 $166 $34 $-1 $167 forward single #
loop $-1 $168 $169 $66 #
cone-surface $-1 36.975447229334847 2.2383055894483981 5.3943619061843062 -0.87461971476443456 0 -0.48480960649040278 0.24240480324520139 0 -0.43730985738221728 1 I I -0.70710678118654746 0.70710678118654746 0.5 forward I I I I #
loop $-1 $-1 $170 $43 #
coedge $-1 $106 $106 $171 $172 reversed $67 $-1 #
face $-1 $-1 $173 $35 $-1 $174 forward single #
loop $-1 $175 $176 $69 #
cone-surface $-1 36.975447229334847 5.7534462926927965 5.3943619061843062 -0.87461971476443456 0 -0.48480960649040278 0.24240480324520139 0 -0.43730985738221728 1 I I -0.70710678118654746 0.70710678118654746 0.5 forward I I I I #
loop $-1 $-1 $177 $44 #
coedge $-1 $111 $111 $178 $179 reversed $70 $-1 #
face $-1 $180 $181 $27 $-1 $182 reversed single #
loop $-1 $-1 $183 $72 #
plane-surface $-1 0 -26.222457566071849 0 0 1 0 0 0 1 forward_v I I I I #
coedge $-1 $184 $185 $186 $187 forward $73 $-1 #
coedge $-1 $188 $75 $189 $190 forward $46 $-1 #
coedge $-1 $75 $188 $191 $192 forward $46 $-1 #
coedge $-1 $193 $194 $75 $119 reversed $195 $-1 #
edge $-1 $196 -26.222457566071849 $197 26.222457566071849 $118 $198 forward 7 unknown #
face $-1 $199 $200 $28 $-1 $201 forward single #
loop $-1 $-1 $202 $76 #
plane-surface $-1 -23.076200115271416 -22.129987678190243 0 -1 0 0 0 0 1 forward_v I I I I #
coedge $-1 $203 $204 $205 $206 forward $77 $-1 #
coedge $-1 $207 $79 $208 $209 reversed $49 $-1 #
coedge $-1 $79 $207 $210 $211 reversed $49 $-1 #
coedge $-1 $204 $203 $79 $127 reversed $77 $-1 #
edge $-1 $212 -8.4930288220298085 $213 8.4930288220298085 $126 $214 forward 7 unknown #
face $-1 $215 $216 $29 $-1 $217 reversed single #
loop $-1 $-1 $218 $80 #
plane-surface $-1 -37.921491959905062 34.617640433930809 0 0 -1 0 0 0 -1 forward_v I I I I #
coedge $-1 $219 $220 $132 $221 forward $81 $-1 #
coedge $-1 $222 $83 $131 $221 reversed $52 $-1 #
coedge $-1 $83 $222 $223 $224 reversed $52 $-1 #
coedge $-1 $225 $226 $83 $135 reversed $216 $-1 #
edge $-1 $227 -8.4930288220298085 $228 8.4930288220298085 $134 $229 forward 7 unknown #
face $-1 $230 $231 $30 $-1 $232 forward single #
loop $-1 $-1 $233 $84 #
plane-surface $-1 71.29560382906503 -18.037517790308637 113.41047497839068 0 1 0 0.87461971476443456 0 0.48480960649040278 forward_v I I I I #
coedge $-1 $234 $235 $236 $237 reversed $85 $-1 #
coedge $-1 $141 $87 $238 $239 reversed $55 $-1 #
coedge $-1 $87 $140 $234 $240 reversed $55 $-1 #
coedge $-1 $236 $241 $87 $143 forward $231 $-1 #
edge $-1 $242 -4.4144558447985176 $243 -2.1937998611951528 $142 $244 forward 7 unknown #
loop $-1 $-1 $149 $88 #
plane-surface $-1 1.2171229204943046 -13.936520303190171 74.565340139553953 0.87461971476443456 0 0.48480960649040278 0.48480960649040278 0 -0.87461971476443456 forward_v I I I I #
loop $-1 $-1 $245 $57 #
coedge $-1 $147 $147 $148 $246 reversed $89 $-1 #
coedge $-1 $148 $148 $147 $246 forward $91 $-1 #
coedge $-1 $149 $149 $92 $150 forward $144 $-1 #
edge $-1 $247 0 $247 6.2831853071796004 $149 $248 forward 7 unknown #
loop $-1 $-1 $156 $93 #
plane-surface $-1 1.2171229204943046 -13.936520303190171 74.565340139553953 0.87461971476443456 0 0.48480960649040278 0.48480960649040278 0 -0.87461971476443456 forward_v I I I I #
loop $-1 $-1 $249 $60 #
coedge $-1 $154 $154 $155 $250 reversed $94 $-1 #
coedge $-1 $155 $155 $154 $250 forward $96 $-1 #
coedge $-1 $156 $156 $97 $157 forward $151 $-1 #
edge $-1 $251 0 $251 6.2831853071796004 $156 $252 forward 7 unknown #
face $-1 $253 $254 $33 $-1 $255 reversed single #
loop $-1 $-1 $256 $98 #
plane-surface $-1 71.29560382906503 -0.10512154604787138 113.41047497839068 0 1 0 0.87461971476443456 0 0.48480960649040278 forward_v I I I I #
coedge $-1 $257 $258 $259 $260 reversed $99 $-1 #
coedge $-1 $163 $101 $261 $262 reversed $64 $-1 #
coedge $-1 $101 $162 $257 $263 reversed $64 $-1 #
coedge $-1 $259 $264 $101 $165 forward $265 $-1 #
edge $-1 $266 -4.4144558447985176 $267 -2.1937998611951528 $164 $268 forward 7 unknown #
loop $-1 $-1 $171 $102 #
plane-surface $-1 1.2171229204943046 3.9958759410705937 74.565340139553953 0.87461971476443456 0 0.48480960649040278 0.48480960649040278 0 -0.87461971476443456 forward_v I I I I #
loop $-1 $-1 $269 $66 #
coedge $-1 $169 $169 $170 $270 reversed $103 $-1 #
coedge $-1 $170 $170 $169 $270 forward $105 $-1 #
coedge $-1 $171 $171 $106 $172 forward $166 $-1 #
edge $-1 $271 0 $271 6.2831853071796004 $171 $272 forward 7 unknown #
loop $-1 $-1 $178 $107 #
plane-surface $-1 1.2171229204943046 3.9958759410705937 74.565340139553953 0.87461971476443456 0 0.48480960649040278 0.48480960649040278 0 -0.87461971476443456 forward_v I I I I #
loop $-1 $-1 $273 $69 #
coedge $-1 $176 $176 $177 $274 reversed $108 $-1 #
coedge $-1 $177 $177 $176 $274 forward $110 $-1 #
coedge $-1 $178 $178 $111 $179 forward $173 $-1 #
edge $-1 $275 0 $275 6.2831853071796004 $178 $276 forward 7 unknown #
face $-1 $277 $278 $27 $-1 $279 reversed single #
loop $-1 $-1 $280 $112 #
plane-surface $-1 -40.062257759331033 0 0 1 0 0 0 0 -1 forward_v I I I I #
coedge $-1 $281 $191 $282 $283 forward $113 $-1 #
coedge $-1 $284 $115 $281 $285 forward $73 $-1 #
coedge $-1 $115 $284 $286 $287 forward $73 $-1 #
coedge $-1 $194 $193 $115 $187 reversed $195 $-1 #
edge $-1 $288 -26.222457566071849 $289 26.222457566071849 $186 $290 forward 7 unknown #
coedge $-1 $117 $116 $291 $292 forward $46 $-1 #
coedge $-1 $293 $294 $116 $190 reversed $278 $-1 #
edge $-1 $197 -40.062257759331033 $295 40.062257759331033 $189 $296 forward 7 unknown #
coedge $-1 $183 $297 $117 $192 reversed $113 $-1 #
edge $-1 $298 -40.062257759331033 $196 40.062257759331033 $191 $299 forward 7 unknown #
coedge $-1 $186 $118 $297 $300 forward $195 $-1 #
coedge $-1 $118 $186 $293 $301 reversed $195 $-1 #
loop $-1 $-1 $193 $277 #
vertex $-1 $119 $302 #
vertex $-1 $119 $303 #
straight-curve $-1 40.062257759331033 0 8.4930288220298085 0 1 0 I I #
face $-1 $304 $305 $28 $-1 $306 reversed single #
loop $-1 $-1 $307 $120 #
plane-surface $-1 0 0 8.4930288220298085 0 0 1 1 0 0 forward_v I I I I #
coedge $-1 $308 $309 $310 $311 reversed $121 $-1 #
coedge $-1 $126 $123 $312 $313 reversed $77 $-1 #
coedge $-1 $123 $126 $314 $315 reversed $77 $-1 #
coedge $-1 $309 $308 $123 $206 reversed $121 $-1 #
edge $-1 $316 -8.4930288220298085 $317 8.4930288220298085 $205 $318 forward 7 unknown #
coedge $-1 $125 $124 $319 $320 reversed $49 $-1 #
coedge $-1 $312 $321 $124 $209 forward $305 $-1 #
edge $-1 $322 -15.157463726976728 $213 -6.9725239512135158 $208 $323 forward 7 unknown #
coedge $-1 $324 $314 $125 $211 forward $200 $-1 #
edge $-1 $212 6.9725239512135158 $325 15.157463726976728 $210 $326 forward 7 unknown #
vertex $-1 $211 $327 #
vertex $-1 $209 $328 #
straight-curve $-1 -26.076200115271416 -18.037517790308637 0 0 0 -1 I I #
face $-1 $329 $330 $29 $-1 $331 reversed single #
loop $-1 $-1 $134 $128 #
plane-surface $-1 -35.780726160479091 30.420049000001331 0 -1 0 0 0 0 1 forward_v I I I I #
coedge $-1 $332 $333 $334 $335 forward $129 $-1 #
coedge $-1 $336 $131 $226 $337 forward $81 $-1 #
coedge $-1 $131 $336 $338 $339 forward $81 $-1 #
edge $-1 $340 -40.062257759331033 $228 -35.780726160479091 $131 $341 forward 7 unknown #
coedge $-1 $133 $132 $342 $343 reversed $52 $-1 #
coedge $-1 $344 $345 $133 $224 forward $330 $-1 #
edge $-1 $227 35.780726160479091 $346 40.062257759331033 $223 $347 forward 7 unknown #
coedge $-1 $334 $134 $345 $348 reversed $216 $-1 #
coedge $-1 $134 $334 $219 $337 reversed $216 $-1 #
vertex $-1 $224 $349 #
vertex $-1 $337 $350 #
straight-curve $-1 -35.780726160479091 26.222457566071849 0 0 0 1 I I #
face $-1 $-1 $351 $30 $-1 $352 reversed single #
loop $-1 $-1 $142 $136 #
plane-surface $-1 0 0 8.4930288220298085 0 0 1 1 0 0 forward_v I I I I #
coedge $-1 $353 $354 $355 $356 reversed $137 $-1 #
coedge $-1 $357 $139 $141 $240 forward $85 $-1 #
coedge $-1 $139 $357 $353 $358 forward $85 $-1 #
coedge $-1 $355 $142 $139 $237 forward $231 $-1 #
edge $-1 $243 2.8672626644766197 $359 11.069257638713552 $236 $360 forward 7 unknown #
coedge $-1 $361 $362 $140 $239 forward $351 $-1 #
edge $-1 $363 -52.218378258212113 $242 -48.212208667165534 $238 $364 forward 7 unknown #
edge $-1 $243 75.544045260081646 $363 80.124515518662065 $141 $365 forward 7 unknown #
coedge $-1 $142 $355 $361 $366 forward $231 $-1 #
vertex $-1 $239 $367 #
vertex $-1 $143 $368 #
straight-curve $-1 35.647801914532515 -9.8355228160717054 8.4930288220298067 -1 0 0 I I #
coedge $-1 $245 $245 $-1 $369 reversed $146 $-1 #
edge $-1 $370 0 $370 6.2831853071796004 $147 $371 forward 7 unknown #
vertex $-1 $150 $372 #
ellipse-curve $-1 38.951929767529343 -15.694090654812369 6.4899440265065182 0.87461971476443456 0 0.48480960649040278 0.48480960649040278 0 -0.87461971476443456 1 I I #
coedge $-1 $249 $249 $-1 $373 reversed $153 $-1 #
edge $-1 $374 0 $374 6.2831853071796004 $154 $375 forward 7 unknown #
vertex $-1 $157 $376 #
ellipse-curve $-1 38.951929767529343 -12.178949951567969 6.4899440265065182 0.87461971476443456 0 0.48480960649040278 0.48480960649040278 0 -0.87461971476443456 1 I I #
face $-1 $-1 $265 $33 $-1 $377 forward single #
loop $-1 $-1 $378 $158 #
plane-surface $-1 40.062257759331033 0 0 -1 0 0 0 0 1 forward_v I I I I #
coedge $-1 $379 $380 $381 $382 reversed $159 $-1 #
coedge $-1 $383 $161 $163 $263 forward $99 $-1 #
coedge $-1 $161 $383 $379 $384 forward $99 $-1 #
coedge $-1 $381 $164 $161 $260 forward $265 $-1 #
edge $-1 $267 -6.0989354576537629 $385 2.1030595165831683 $259 $386 forward 7 unknown #
coedge $-1 $387 $388 $162 $262 forward $254 $-1 #
edge $-1 $389 -52.218378258212113 $266 -48.212208667165534 $261 $390 forward 7 unknown #
edge $-1 $267 75.544045260081646 $389 80.124515518662065 $163 $391 forward 7 unknown #
coedge $-1 $164 $381 $387 $392 forward $265 $-1 #
loop $-1 $-1 $381 $253 #
vertex $-1 $262 $393 #
vertex $-1 $165 $394 #
straight-curve $-1 35.647801914532515 8.0968734281890598 8.4930288220298067 -1 0 0 I I #
coedge $-1 $269 $269 $-1 $395 reversed $168 $-1 #
edge $-1 $396 0 $396 6.2831853071796004 $169 $397 forward 7 unknown #
vertex $-1 $172 $398 #
ellipse-curve $-1 38.951929767529343 2.2383055894483981 6.4899440265065182 0.87461971476443456 0 0.48480960649040278 0.48480960649040278 0 -0.87461971476443456 1 I I #
coedge $-1 $273 $273 $-1 $399 reversed $175 $-1 #
edge $-1 $400 0 $400 6.2831853071796004 $176 $401 forward 7 unknown #
vertex $-1 $179 $402 #
ellipse-curve $-1 38.951929767529343 5.7534462926927965 6.4899440265065182 0.87461971476443456 0 0.48480960649040278 0.48480960649040278 0 -0.87461971476443456 1 I I #
face $-1 $-1 $195 $27 $-1 $403 reversed single #
loop $-1 $-1 $293 $180 #
plane-surface $-1 0 26.222457566071849 0 0 -1 0 0 0 -1 forward_v I I I I #
coedge $-1 $404 $291 $294 $405 forward $181 $-1 #
coedge $-1 $297 $183 $184 $285 reversed $113 $-1 #
coedge $-1 $291 $404 $183 $283 reversed $181 $-1 #
edge $-1 $298 -8.4930288220298085 $406 8.4930288220298085 $282 $407 forward 7 unknown #
coedge $-1 $185 $184 $404 $408 forward $73 $-1 #
edge $-1 $289 -40.062257759331033 $406 40.062257759331033 $281 $409 forward 7 unknown #
coedge $-1 $294 $293 $185 $287 reversed $278 $-1 #
edge $-1 $410 -40.062257759331033 $288 40.062257759331033 $286 $411 forward 7 unknown #
vertex $-1 $187 $412 #
vertex $-1 $300 $413 #
straight-curve $-1 40.062257759331033 0 -8.4930288220298085 0 -1 0 I I #
coedge $-1 $280 $282 $188 $292 reversed $181 $-1 #
edge $-1 $295 -26.222457566071849 $298 26.222457566071849 $291 $414 forward 7 unknown #
coedge $-1 $286 $189 $194 $301 forward $278 $-1 #
coedge $-1 $189 $286 $280 $405 reversed $278 $-1 #
vertex $-1 $190 $415 #
straight-curve $-1 0 26.222457566071849 8.4930288220298085 -1 0 0 I I #
coedge $-1 $191 $281 $193 $300 reversed $113 $-1 #
vertex $-1 $292 $416 #
straight-curve $-1 0 -26.222457566071849 8.4930288220298085 1 0 0 I I #
edge $-1 $196 -8.4930288220298085 $289 8.4930288220298085 $193 $417 forward 7 unknown #
edge $-1 $197 -8.4930288220298085 $288 8.4930288220298085 $194 $418 forward 7 unknown #
point $-1 40.062257759331033 -26.222457566071849 8.4930288220298085 #
point $-1 40.062257759331033 26.222457566071849 8.4930288220298085 #
face $-1 $-1 $419 $28 $-1 $420 reversed single #
loop $-1 $-1 $421 $199 #
plane-surface $-1 0 0 -8.4930288220298085 0 0 1 1 0 0 forward_v I I I I #
coedge $-1 $314 $324 $309 $422 forward $200 $-1 #
coedge $-1 $205 $202 $421 $423 reversed $121 $-1 #
coedge $-1 $202 $205 $307 $422 reversed $121 $-1 #
coedge $-1 $424 $425 $202 $311 forward $419 $-1 #
edge $-1 $426 -8.4930288220298085 $427 8.4930288220298085 $310 $428 forward 7 unknown #
coedge $-1 $421 $208 $203 $313 forward $305 $-1 #
edge $-1 $213 -13.788100057635708 $317 -10.788100057635708 $312 $429 forward 7 unknown #
coedge $-1 $210 $307 $204 $315 forward $200 $-1 #
edge $-1 $316 10.788100057635708 $212 13.788100057635708 $314 $430 forward 7 unknown #
vertex $-1 $315 $431 #
vertex $-1 $313 $432 #
straight-curve $-1 -23.076200115271416 -18.037517790308637 0 0 0 -1 I I #
coedge $-1 $425 $424 $207 $320 forward $419 $-1 #
edge $-1 $325 -8.4930288220298085 $322 8.4930288220298085 $319 $433 forward 7 unknown #
coedge $-1 $208 $421 $425 $434 forward $305 $-1 #
vertex $-1 $209 $435 #
straight-curve $-1 -26.076200115271416 -11.064993839095122 -8.4930288220298085 0 1 0 I I #
coedge $-1 $307 $210 $424 $436 forward $200 $-1 #
vertex $-1 $436 $437 #
straight-curve $-1 -26.076200115271416 -11.064993839095122 8.4930288220298085 0 -1 0 I I #
point $-1 -26.076200115271416 -18.037517790308637 8.4930288220298085 #
point $-1 -26.076200115271416 -18.037517790308637 -8.4930288220298085 #
face $-1 $-1 $438 $29 $-1 $439 reversed single #
loop $-1 $-1 $223 $215 #
plane-surface $-1 0 0 -8.4930288220298085 0 0 1 1 0 0 forward_v I I I I #
coedge $-1 $440 $218 $441 $442 reversed $129 $-1 #
coedge $-1 $218 $440 $336 $443 reversed $129 $-1 #
coedge $-1 $226 $225 $218 $335 reversed $216 $-1 #
edge $-1 $444 -8.4930288220298085 $445 8.4930288220298085 $334 $446 forward 7 unknown #
coedge $-1 $220 $219 $333 $443 forward $81 $-1 #
edge $-1 $228 -4.1975914339294782 $444 4.1975914339294782 $226 $447 forward 7 unknown #
coedge $-1 $448 $342 $220 $339 reversed $438 $-1 #
edge $-1 $449 -34.617640433930809 $340 -26.222457566071849 $338 $450 forward 7 unknown #
vertex $-1 $343 $451 #
straight-curve $-1 0 26.222457566071849 8.4930288220298085 1 0 0 I I #
coedge $-1 $338 $452 $222 $343 forward $438 $-1 #
edge $-1 $346 -8.4930288220298085 $340 8.4930288220298085 $342 $453 forward 7 unknown #
coedge $-1 $441 $223 $452 $454 forward $330 $-1 #
coedge $-1 $223 $441 $225 $348 forward $330 $-1 #
vertex $-1 $454 $455 #
straight-curve $-1 0 26.222457566071849 -8.4930288220298085 -1 0 0 I I #
edge $-1 $445 -4.1975914339294782 $227 4.1975914339294782 $225 $456 forward 7 unknown #
point $-1 -35.780726160479091 26.222457566071853 -8.4930288220298085 #
point $-1 -35.780726160479091 26.222457566071853 8.4930288220298085 #
loop $-1 $-1 $238 $230 #
plane-surface $-1 40.062257759331033 0 0 -1 0 0 0 0 1 forward_v I I I I #
coedge $-1 $354 $233 $235 $358 reversed $137 $-1 #
coedge $-1 $233 $353 $457 $458 reversed $137 $-1 #
coedge $-1 $241 $236 $233 $356 forward $231 $-1 #
edge $-1 $359 2.1937998611951528 $459 4.4144558447985176 $355 $460 forward 7 unknown #
coedge $-1 $235 $234 $362 $461 reversed $85 $-1 #
edge $-1 $462 -80.124515518662065 $359 -75.544045260081646 $353 $463 forward 7 unknown #
vertex $-1 $237 $464 #
straight-curve $-1 37.841601775727668 -6.9682601515950857 8.4930288220298067 0 -1 0 I I #
coedge $-1 $457 $238 $241 $366 reversed $351 $-1 #
coedge $-1 $238 $457 $357 $461 forward $351 $-1 #
vertex $-1 $239 $465 #
straight-curve $-1 40.062257759331033 -9.8355228160717054 56.705237489195341 0 0 1 I I #
straight-curve $-1 1.2171229204943046 -9.8355228160717054 74.565340139553953 0.48480960649040278 0 -0.87461971476443456 I I #
edge $-1 $459 -18.037517790308637 $242 -9.8355228160717054 $361 $466 forward 7 unknown #
point $-1 40.062257759331033 -9.8355228160717054 8.4930288220298085 #
point $-1 37.841601775727668 -9.8355228160717054 8.4930288220298138 #
edge $-1 $467 1 $467 0 $245 $-1 forward 7 unknown #
vertex $-1 $246 $468 #
ellipse-curve $-1 37.412757086717065 -15.694090654812369 5.6367667094295077 0.87461971476443456 0 0.48480960649040278 0.48480960649040278 0 -0.87461971476443456 1 I I #
point $-1 39.436739374019758 -15.694090654812369 5.6153243117420892 #
edge $-1 $469 1 $469 0 $249 $-1 forward 7 unknown #
vertex $-1 $250 $470 #
ellipse-curve $-1 37.412757086717065 -12.178949951567969 5.6367667094295077 0.87461971476443456 0 0.48480960649040278 0.48480960649040278 0 -0.87461971476443456 1 I I #
point $-1 39.436739374019758 -12.178949951567969 5.6153243117420892 #
plane-surface $-1 0 0 8.4930288220298085 0 0 1 1 0 0 forward_v I I I I #
coedge $-1 $388 $387 $380 $471 forward $254 $-1 #
coedge $-1 $380 $256 $258 $384 reversed $159 $-1 #
coedge $-1 $256 $379 $378 $471 reversed $159 $-1 #
coedge $-1 $264 $259 $256 $382 forward $265 $-1 #
edge $-1 $385 2.1937998611951528 $472 4.4144558447985176 $381 $473 forward 7 unknown #
coedge $-1 $258 $257 $388 $474 reversed $99 $-1 #
edge $-1 $475 -80.124515518662065 $385 -75.544045260081646 $379 $476 forward 7 unknown #
vertex $-1 $260 $477 #
straight-curve $-1 37.841601775727668 1.9979379705352969 8.4930288220298067 0 -1 0 I I #
coedge $-1 $378 $261 $264 $392 reversed $254 $-1 #
coedge $-1 $261 $378 $383 $474 forward $254 $-1 #
vertex $-1 $262 $478 #
straight-curve $-1 40.062257759331033 8.0968734281890598 56.705237489195341 0 0 1 I I #
straight-curve $-1 1.2171229204943046 8.0968734281890598 74.565340139553953 0.48480960649040278 0 -0.87461971476443456 I I #
edge $-1 $472 -0.10512154604787138 $266 8.0968734281890598 $387 $479 forward 7 unknown #
point $-1 40.062257759331033 8.0968734281890598 8.4930288220298085 #
point $-1 37.841601775727668 8.0968734281890598 8.4930288220298138 #
edge $-1 $480 1 $480 0 $269 $-1 forward 7 unknown #
vertex $-1 $270 $481 #
ellipse-curve $-1 37.412757086717065 2.2383055894483981 5.6367667094295077 0.87461971476443456 0 0.48480960649040278 0.48480960649040278 0 -0.87461971476443456 1 I I #
point $-1 39.436739374019758 2.2383055894483981 5.6153243117420892 #
edge $-1 $482 1 $482 0 $273 $-1 forward 7 unknown #
vertex $-1 $274 $483 #
ellipse-curve $-1 37.412757086717065 5.7534462926927965 5.6367667094295077 0.87461971476443456 0 0.48480960649040278 0.48480960649040278 0 -0.87461971476443456 1 I I #
point $-1 39.436739374019758 5.7534462926927965 5.6153243117420892 #
plane-surface $-1 40.062257759331033 0 0 -1 0 0 0 0 1 forward_v I I I I #
coedge $-1 $282 $280 $284 $408 reversed $181 $-1 #
edge $-1 $295 -8.4930288220298085 $410 8.4930288220298085 $294 $484 forward 7 unknown #
vertex $-1 $408 $485 #
straight-curve $-1 -40.062257759331033 -26.222457566071849 0 0 0 -1 I I #
edge $-1 $406 -26.222457566071849 $410 26.222457566071849 $404 $486 forward 7 unknown #
straight-curve $-1 0 -26.222457566071849 -8.4930288220298085 -1 0 0 I I #
vertex $-1 $287 $487 #
straight-curve $-1 0 26.222457566071849 -8.4930288220298085 1 0 0 I I #
point $-1 40.062257759331033 26.222457566071849 -8.4930288220298085 #
point $-1 40.062257759331033 -26.222457566071849 -8.4930288220298085 #
straight-curve $-1 -40.062257759331033 0 8.4930288220298085 0 -1 0 I I #
point $-1 -40.062257759331033 26.222457566071849 8.4930288220298085 #
point $-1 -40.062257759331033 -26.222457566071849 8.4930288220298085 #
straight-curve $-1 40.062257759331033 -26.222457566071849 0 0 0 -1 I I #
straight-curve $-1 40.062257759331033 26.222457566071849 0 0 0 -1 I I #
loop $-1 $-1 $310 $304 #
plane-surface $-1 0 -26.222457566071849 0 0 1 0 0 0 1 forward_v I I I I #
coedge $-1 $321 $312 $308 $423 forward $305 $-1 #
edge $-1 $427 -15.157463726976728 $316 -6.9725239512135158 $307 $488 forward 7 unknown #
edge $-1 $317 6.9725239512135158 $426 15.157463726976728 $421 $489 forward 7 unknown #
coedge $-1 $319 $310 $324 $436 reversed $419 $-1 #
coedge $-1 $310 $319 $321 $434 reversed $419 $-1 #
vertex $-1 $434 $490 #
vertex $-1 $311 $491 #
straight-curve $-1 -23.076200115271416 -26.222457566071849 0 0 0 1 I I #
straight-curve $-1 -12.288100057635708 -18.037517790308637 -8.4930288220298085 1 0 0 I I #
straight-curve $-1 -12.288100057635708 -18.037517790308637 8.4930288220298085 -1 0 0 I I #
point $-1 -23.076200115271416 -18.037517790308637 8.4930288220298085 #
point $-1 -23.076200115271416 -18.037517790308637 -8.4930288220298085 #
straight-curve $-1 -26.076200115271416 -26.222457566071849 0 0 0 -1 I I #
edge $-1 $426 23.076200115271416 $322 26.076200115271416 $425 $492 forward 7 unknown #
point $-1 -26.076200115271416 -26.222457566071849 -8.4930288220298085 #
edge $-1 $325 -26.076200115271416 $427 -23.076200115271416 $424 $493 forward 7 unknown #
point $-1 -26.076200115271416 -26.222457566071849 8.4930288220298085 #
loop $-1 $-1 $342 $329 #
plane-surface $-1 -40.062257759331033 0 0 1 0 0 0 0 -1 forward_v I I I I #
coedge $-1 $333 $332 $448 $494 reversed $129 $-1 #
coedge $-1 $345 $344 $332 $442 forward $330 $-1 #
edge $-1 $495 -2.1407657994259708 $445 2.1407657994259708 $332 $496 forward 7 unknown #
edge $-1 $444 -2.1407657994259708 $449 2.1407657994259708 $333 $497 forward 7 unknown #
vertex $-1 $337 $498 #
vertex $-1 $348 $499 #
straight-curve $-1 -35.780726160479091 34.617640433930809 0 0 0 -1 I I #
straight-curve $-1 -35.780726160479091 30.420049000001331 8.4930288220298085 0 1 0 I I #
coedge $-1 $452 $338 $440 $494 forward $438 $-1 #
vertex $-1 $443 $500 #
straight-curve $-1 -40.062257759331033 0 8.4930288220298085 0 -1 0 I I #
point $-1 -40.062257759331033 26.222457566071849 8.4930288220298085 #
coedge $-1 $342 $448 $344 $454 reversed $438 $-1 #
straight-curve $-1 -40.062257759331033 26.222457566071849 0 0 0 1 I I #
edge $-1 $346 -4.1975914339294818 $495 4.1975914339294782 $452 $501 forward 7 unknown #
point $-1 -40.062257759331033 26.222457566071849 -8.4930288220298085 #
straight-curve $-1 -35.780726160479091 30.420049000001331 -8.4930288220298085 0 -1 0 I I #
coedge $-1 $362 $361 $354 $458 forward $351 $-1 #
edge $-1 $459 48.212208667165534 $462 52.218378258212113 $457 $502 forward 7 unknown #
vertex $-1 $366 $503 #
straight-curve $-1 35.647801914532515 -18.037517790308637 8.4930288220298067 1 0 0 I I #
edge $-1 $462 -11.069257638713552 $363 -2.8672626644766197 $362 $504 forward 7 unknown #
vertex $-1 $461 $505 #
straight-curve $-1 1.2171229204943046 -18.037517790308637 74.565340139553953 -0.48480960649040278 0 0.87461971476443456 I I #
point $-1 37.841601775727668 -18.037517790308637 8.4930288220298138 #
point $-1 40.062257759331033 -9.8355228160717054 4.486859230983228 #
straight-curve $-1 40.062257759331033 0 8.4930288220298085 0 1 0 I I #
vertex $-1 $369 $506 #
point $-1 37.897566693207466 -15.694090654812369 4.7621469946650734 #
vertex $-1 $373 $507 #
point $-1 37.897566693207466 -12.178949951567969 4.7621469946650734 #
edge $-1 $472 48.212208667165534 $475 52.218378258212113 $378 $508 forward 7 unknown #
vertex $-1 $392 $509 #
straight-curve $-1 35.647801914532515 -0.10512154604787138 8.4930288220298067 1 0 0 I I #
edge $-1 $475 -2.1030595165831683 $389 6.0989354576537629 $388 $510 forward 7 unknown #
vertex $-1 $474 $511 #
straight-curve $-1 1.2171229204943046 -0.10512154604787138 74.565340139553953 -0.48480960649040278 0 0.87461971476443456 I I #
point $-1 37.841601775727668 -0.10512154604787138 8.4930288220298138 #
point $-1 40.062257759331033 8.0968734281890598 4.486859230983228 #
straight-curve $-1 40.062257759331033 0 8.4930288220298085 0 1 0 I I #
vertex $-1 $395 $512 #
point $-1 37.897566693207466 2.2383055894483981 4.7621469946650734 #
vertex $-1 $399 $513 #
point $-1 37.897566693207466 5.7534462926927965 4.7621469946650734 #
straight-curve $-1 -40.062257759331033 26.222457566071849 0 0 0 -1 I I #
point $-1 -40.062257759331033 -26.222457566071849 -8.4930288220298085 #
straight-curve $-1 -40.062257759331033 0 -8.4930288220298085 0 1 0 I I #
point $-1 -40.062257759331033 26.222457566071849 -8.4930288220298085 #
straight-curve $-1 -23.076200115271416 -11.064993839095122 8.4930288220298085 0 1 0 I I #
straight-curve $-1 -23.076200115271416 -11.064993839095122 -8.4930288220298085 0 -1 0 I I #
point $-1 -23.076200115271416 -26.222457566071849 -8.4930288220298085 #
point $-1 -23.076200115271416 -26.222457566071849 8.4930288220298085 #
straight-curve $-1 0 -26.222457566071849 -8.4930288220298085 -1 0 0 I I #
straight-curve $-1 0 -26.222457566071849 8.4930288220298085 1 0 0 I I #
edge $-1 $449 -8.4930288220298085 $495 8.4930288220298085 $440 $514 forward 7 unknown #
vertex $-1 $442 $515 #
straight-curve $-1 -37.921491959905062 34.617640433930809 -8.4930288220298085 1 0 0 I I #
straight-curve $-1 -37.921491959905062 34.617640433930809 8.4930288220298085 -1 0 0 I I #
point $-1 -35.780726160479091 34.617640433930809 8.4930288220298085 #
point $-1 -35.780726160479091 34.617640433930809 -8.4930288220298085 #
point $-1 -40.062257759331033 34.617640433930809 8.4930288220298085 #
straight-curve $-1 -40.062257759331033 30.420049000001331 -8.4930288220298085 0 1 0 I I #
straight-curve $-1 40.062257759331033 -18.037517790308637 56.705237489195341 0 0 -1 I I #
point $-1 40.062257759331033 -18.037517790308637 8.4930288220298085 #
straight-curve $-1 40.062257759331033 -6.9682601515950857 4.4868592309832351 0 1 0 I I #
point $-1 40.062257759331033 -18.037517790308637 4.486859230983228 #
point $-1 36.538137371952629 -15.694090654812369 5.1519571029391047 #
point $-1 36.538137371952629 -12.178949951567969 5.1519571029391047 #
straight-curve $-1 40.062257759331033 -0.10512154604787138 56.705237489195341 0 0 -1 I I #
point $-1 40.062257759331033 -0.10512154604787138 8.4930288220298085 #
straight-curve $-1 40.062257759331033 1.9979379705352969 4.4868592309832351 0 1 0 I I #
point $-1 40.062257759331033 -0.10512154604787138 4.486859230983228 #
point $-1 36.538137371952629 2.2383055894483981 5.1519571029391047 #
point $-1 36.538137371952629 5.7534462926927965 5.1519571029391047 #
straight-curve $-1 -40.062257759331033 34.617640433930809 0 0 0 -1 I I #
point $-1 -40.062257759331033 34.617640433930809 -8.4930288220298085 #
End-of-ACIS-data 