500 0 10 0           
7 Unknown 11 ACIS 5.0 NT 24 Thu Mar 25 18:10:42 1999 
-1 9.9999999999999995e-007 1e-010 
body $-1 $10 $-1 $11 #
body $-1 $12 $-1 $13 #
body $-1 $14 $-1 $15 #
body $-1 $16 $-1 $17 #
body $-1 $18 $-1 $19 #
body $-1 $20 $-1 $21 #
body $-1 $22 $-1 $23 #
body $-1 $24 $-1 $25 #
body $-1 $26 $-1 $27 #
body $-1 $28 $-1 $29 #
lump $-1 $-1 $30 $0 #
transform $-1 1 0 0 0 1 0 0 0 1 66.082338938566238 33.993269820639576 9.8418333120042583 1 rotate no_reflect no_shear #
lump $-1 $-1 $31 $1 #
transform $-1 1 0 0 0 1 0 0 0 1 66.082338938566238 33.993269820639576 9.8418333120042583 1 rotate no_reflect no_shear #
lump $-1 $-1 $32 $2 #
transform $-1 1 0 0 0 1 0 0 0 1 66.082338938566238 33.993269820639576 9.8418333120042583 1 rotate no_reflect no_shear #
lump $-1 $-1 $33 $3 #
transform $-1 1 0 0 0 1 0 0 0 1 66.082338938566238 33.993269820639576 9.8418333120042583 1 rotate no_reflect no_shear #
lump $-1 $-1 $34 $4 #
transform $-1 1 0 0 0 1 0 0 0 1 66.082338938566238 33.993269820639576 9.8418333120042583 1 rotate no_reflect no_shear #
lump $-1 $-1 $35 $5 #
transform $-1 1 0 0 0 1 0 0 0 1 66.082338938566238 33.993269820639576 9.8418333120042583 1 rotate no_reflect no_shear #
lump $-1 $-1 $36 $6 #
transform $-1 1 0 0 0 1 0 0 0 1 66.082338938566238 33.993269820639576 9.8418333120042583 1 rotate no_reflect no_shear #
lump $-1 $-1 $37 $7 #
transform $-1 1 0 0 0 1 0 0 0 1 66.082338938566238 33.993269820639576 9.8418333120042583 1 rotate no_reflect no_shear #
lump $-1 $-1 $38 $8 #
transform $-1 1 0 0 0 1 0 0 0 1 66.082338938566238 33.993269820639576 9.8418333120042583 1 rotate no_reflect no_shear #
lump $-1 $-1 $39 $9 #
transform $-1 1 0 0 0 1 0 0 0 1 66.082338938566238 33.993269820639576 9.8418333120042583 1 rotate no_reflect no_shear #
shell $-1 $-1 $-1 $40 $-1 $10 #
shell $-1 $-1 $-1 $41 $-1 $12 #
shell $-1 $-1 $-1 $42 $-1 $14 #
shell $-1 $-1 $-1 $43 $-1 $16 #
shell $-1 $-1 $-1 $44 $-1 $18 #
shell $-1 $-1 $-1 $45 $-1 $20 #
shell $-1 $-1 $-1 $46 $-1 $22 #
shell $-1 $-1 $-1 $47 $-1 $24 #
shell $-1 $-1 $-1 $48 $-1 $26 #
shell $-1 $-1 $-1 $49 $-1 $28 #
face $-1 $50 $51 $30 $-1 $52 forward single #
face $-1 $53 $54 $31 $-1 $55 reversed single #
face $-1 $56 $57 $32 $-1 $58 reversed single #
face $-1 $59 $60 $33 $-1 $61 forward single #
face $-1 $62 $63 $34 $-1 $64 reversed single #
face $-1 $65 $66 $35 $-1 $67 forward single #
face $-1 $68 $69 $36 $-1 $70 reversed single #
face $-1 $71 $72 $37 $-1 $73 forward single #
face $-1 $74 $75 $38 $-1 $76 forward single #
face $-1 $77 $78 $39 $-1 $79 forward single #
face $-1 $80 $81 $30 $-1 $82 reversed single #
loop $-1 $-1 $83 $40 #
plane-surface $-1 0 0 9.8418333120042583 0 0 1 1 0 0 forward_v I I I I #
face $-1 $84 $85 $31 $-1 $86 reversed single #
loop $-1 $-1 $87 $41 #
plane-surface $-1 0 -30.253244008102186 6.8418333120042583 0 0 1 1 0 0 forward_v I I I I #
face $-1 $88 $89 $32 $-1 $90 reversed single #
loop $-1 $-1 $91 $42 #
plane-surface $-1 75.864406676721984 -7.8865735449027952 191.90034440517724 0 -1 0 -0.74314483375859142 0 -0.66913059716165679 forward_v I I I I #
face $-1 $92 $93 $33 $-1 $94 forward single #
loop $-1 $95 $96 $43 #
cone-surface $-1 63.055548550287213 -15.423155477619751 6.6817005189657808 -0.74314483375859142 0 -0.66913059716165679 0.66913059716165679 0 -0.74314483375859142 1 I I 0 1 1 forward I I I I #
face $-1 $97 $98 $34 $-1 $99 reversed single #
loop $-1 $-1 $100 $44 #
plane-surface $-1 75.864406676721984 22.366670463199391 191.90034440517724 0 -1 0 -0.74314483375859142 0 -0.66913059716165679 forward_v I I I I #
face $-1 $101 $102 $35 $-1 $103 forward single #
loop $-1 $104 $105 $45 #
cone-surface $-1 63.055548550287213 14.830088530482435 6.6817005189657808 -0.74314483375859142 0 -0.66913059716165679 0.66913059716165679 0 -0.74314483375859142 1 I I 0 1 1 forward I I I I #
face $-1 $106 $107 $36 $-1 $108 reversed single #
loop $-1 $-1 $109 $46 #
plane-surface $-1 -176.92496545399376 -11.313271657423179 77.359750791055347 0 1 0 -0.83867057594974714 0 0.54463902268945019 forward_v I I I I #
face $-1 $110 $111 $37 $-1 $112 forward single #
loop $-1 $113 $114 $47 #
cone-surface $-1 -64.213485843742404 -9.5389046316115156 7.3374520436513588 0.83867057594974714 0 -0.54463902268945019 0.2723195113447251 0 0.41933528797487357 1 I I 0 1 0.5 forward I I I I #
face $-1 $115 $116 $38 $-1 $117 forward single #
loop $-1 $118 $119 $48 #
cone-surface $-1 -64.213485843742404 -6.87735409289402 7.3374520436513588 0.83867057594974714 0 -0.54463902268945019 0.2723195113447251 0 0.41933528797487357 1 I I 0 1 0.5 forward I I I I #
face $-1 $120 $121 $39 $-1 $122 forward single #
loop $-1 $123 $124 $49 #
cone-surface $-1 -64.213485843742404 -4.2158035541765244 7.3374520436513588 0.83867057594974714 0 -0.54463902268945019 0.2723195113447251 0 0.41933528797487357 1 I I 0 1 0.5 forward I I I I #
face $-1 $125 $126 $30 $-1 $127 reversed single #
loop $-1 $-1 $128 $50 #
plane-surface $-1 0 0 -9.8418333120042583 0 0 1 1 0 0 forward_v I I I I #
coedge $-1 $129 $130 $131 $132 forward $51 $-1 #
face $-1 $133 $134 $31 $-1 $135 reversed single #
loop $-1 $-1 $136 $53 #
plane-surface $-1 0 -26.513218195564797 8.3418333120042583 0 -1 0 0 0 -1 forward_v I I I I #
coedge $-1 $137 $138 $139 $140 reversed $54 $-1 #
face $-1 $141 $142 $32 $-1 $143 reversed single #
loop $-1 $-1 $144 $56 #
plane-surface $-1 -22.353090893037418 -15.423155477619751 103.46491457357357 0.74314483375859142 0 0.66913059716165679 0.66913059716165679 0 -0.74314483375859142 forward_v I I I I #
coedge $-1 $145 $146 $147 $148 reversed $57 $-1 #
face $-1 $-1 $149 $33 $-1 $150 forward single #
loop $-1 $151 $152 $59 #
cone-surface $-1 61.72560120619039 -15.423155477619751 5.4842105814414985 -0.74314483375859142 0 -0.66913059716165679 0.3345652985808284 0 -0.37157241687929571 1 I I -0.70710678118654746 0.70710678118654746 0.5 forward I I I I #
loop $-1 $-1 $153 $43 #
coedge $-1 $96 $96 $154 $155 reversed $60 $-1 #
face $-1 $156 $157 $34 $-1 $158 reversed single #
loop $-1 $-1 $159 $62 #
plane-surface $-1 -22.353090893037418 14.830088530482435 103.46491457357357 0.74314483375859142 0 0.66913059716165679 0.66913059716165679 0 -0.74314483375859142 forward_v I I I I #
coedge $-1 $160 $161 $162 $163 reversed $63 $-1 #
face $-1 $-1 $164 $35 $-1 $165 forward single #
loop $-1 $166 $167 $65 #
cone-surface $-1 61.72560120619039 14.830088530482435 5.4842105814414985 -0.74314483375859142 0 -0.66913059716165679 0.3345652985808284 0 -0.37157241687929571 1 I I -0.70710678118654746 0.70710678118654746 0.5 forward I I I I #
loop $-1 $-1 $168 $45 #
coedge $-1 $105 $105 $169 $170 reversed $66 $-1 #
face $-1 $171 $172 $36 $-1 $173 reversed single #
loop $-1 $-1 $174 $68 #
plane-surface $-1 -66.082338938566267 -6.87735409289402 5.3777097979879187 -0.83867057594974714 0 0.54463902268945019 0.54463902268945019 0 0.83867057594974714 forward_v I I I I #
coedge $-1 $175 $176 $177 $178 reversed $69 $-1 #
face $-1 $-1 $179 $37 $-1 $180 forward single #
loop $-1 $181 $182 $71 #
cone-surface $-1 -63.584482911780093 -9.5389046316115156 6.9289727766342715 0.83867057594974714 0 -0.54463902268945019 0.13615975567236255 0 0.20966764398743679 1 I I -0.70710678118654746 0.70710678118654746 0.25 forward I I I I #
loop $-1 $-1 $183 $47 #
coedge $-1 $114 $114 $184 $185 reversed $72 $-1 #
face $-1 $-1 $186 $38 $-1 $187 forward single #
loop $-1 $188 $189 $74 #
cone-surface $-1 -63.584482911780093 -6.87735409289402 6.9289727766342715 0.83867057594974714 0 -0.54463902268945019 0.13615975567236255 0 0.20966764398743679 1 I I -0.70710678118654746 0.70710678118654746 0.25 forward I I I I #
loop $-1 $-1 $190 $48 #
coedge $-1 $119 $119 $191 $192 reversed $75 $-1 #
face $-1 $-1 $193 $39 $-1 $194 forward single #
loop $-1 $195 $196 $77 #
cone-surface $-1 -63.584482911780093 -4.2158035541765244 6.9289727766342715 0.83867057594974714 0 -0.54463902268945019 0.13615975567236255 0 0.20966764398743679 1 I I -0.70710678118654746 0.70710678118654746 0.25 forward I I I I #
loop $-1 $-1 $197 $49 #
coedge $-1 $124 $124 $198 $199 reversed $78 $-1 #
face $-1 $200 $201 $30 $-1 $202 reversed single #
loop $-1 $-1 $203 $80 #
plane-surface $-1 0 -33.993269820639576 0 0 1 0 0 0 1 forward_v I I I I #
coedge $-1 $204 $205 $206 $207 forward $81 $-1 #
coedge $-1 $208 $83 $209 $210 forward $51 $-1 #
coedge $-1 $83 $208 $211 $212 forward $51 $-1 #
coedge $-1 $213 $214 $83 $132 reversed $215 $-1 #
edge $-1 $216 -33.993269820639576 $217 33.993269820639576 $131 $218 forward 7 unknown #
face $-1 $219 $220 $31 $-1 $221 reversed single #
loop $-1 $-1 $222 $84 #
plane-surface $-1 -66.082338938566238 0 0 1 0 0 0 0 -1 forward_v I I I I #
coedge $-1 $223 $224 $225 $226 reversed $85 $-1 #
coedge $-1 $227 $87 $228 $229 reversed $54 $-1 #
coedge $-1 $87 $227 $223 $230 forward $54 $-1 #
coedge $-1 $225 $231 $87 $140 forward $232 $-1 #
edge $-1 $233 -18.866647816588483 $234 -11.386596191513704 $139 $235 forward 7 unknown #
face $-1 $236 $237 $32 $-1 $238 reversed single #
loop $-1 $-1 $239 $88 #
plane-surface $-1 75.864406676721984 -22.959737410336707 191.90034440517724 0 1 0 0.74314483375859142 0 0.66913059716165679 forward_v I I I I #
coedge $-1 $240 $241 $242 $243 reversed $89 $-1 #
coedge $-1 $146 $91 $244 $245 reversed $57 $-1 #
coedge $-1 $91 $145 $240 $246 reversed $57 $-1 #
coedge $-1 $242 $247 $91 $148 forward $248 $-1 #
edge $-1 $249 -28.150135600205246 $250 -24.013304678082264 $147 $251 forward 7 unknown #
loop $-1 $-1 $154 $92 #
plane-surface $-1 -22.353090893037418 -15.423155477619751 103.46491457357357 0.74314483375859142 0 0.66913059716165679 0.66913059716165679 0 -0.74314483375859142 forward_v I I I I #
loop $-1 $-1 $252 $59 #
coedge $-1 $152 $152 $153 $253 reversed $93 $-1 #
coedge $-1 $153 $153 $152 $253 forward $95 $-1 #
coedge $-1 $154 $154 $96 $155 forward $149 $-1 #
edge $-1 $254 0 $254 6.2831853071796004 $154 $255 forward 7 unknown #
face $-1 $256 $257 $34 $-1 $258 reversed single #
loop $-1 $-1 $259 $97 #
plane-surface $-1 75.864406676721984 7.2935065977654787 191.90034440517724 0 1 0 0.74314483375859142 0 0.66913059716165679 forward_v I I I I #
coedge $-1 $260 $261 $262 $263 reversed $98 $-1 #
coedge $-1 $161 $100 $264 $265 reversed $63 $-1 #
coedge $-1 $100 $160 $260 $266 reversed $63 $-1 #
coedge $-1 $262 $267 $100 $163 forward $268 $-1 #
edge $-1 $269 -28.150135600205246 $270 -24.013304678082264 $162 $271 forward 7 unknown #
loop $-1 $-1 $169 $101 #
plane-surface $-1 -22.353090893037418 14.830088530482435 103.46491457357357 0.74314483375859142 0 0.66913059716165679 0.66913059716165679 0 -0.74314483375859142 forward_v I I I I #
loop $-1 $-1 $272 $65 #
coedge $-1 $167 $167 $168 $273 reversed $102 $-1 #
coedge $-1 $168 $168 $167 $273 forward $104 $-1 #
coedge $-1 $169 $169 $105 $170 forward $164 $-1 #
edge $-1 $274 0 $274 6.2831853071796004 $169 $275 forward 7 unknown #
face $-1 $276 $277 $36 $-1 $278 forward single #
loop $-1 $-1 $279 $106 #
plane-surface $-1 -176.92496545399376 -2.4414365283648607 77.359750791055347 0 -1 0 0.83867057594974714 0 -0.54463902268945019 forward_v I I I I #
coedge $-1 $280 $281 $282 $283 reversed $107 $-1 #
coedge $-1 $176 $109 $284 $285 reversed $69 $-1 #
coedge $-1 $109 $175 $280 $286 reversed $69 $-1 #
coedge $-1 $282 $287 $109 $178 forward $277 $-1 #
edge $-1 $288 22.380143788430644 $289 25.279179402128527 $177 $290 forward 7 unknown #
loop $-1 $-1 $184 $110 #
plane-surface $-1 -66.082338938566267 -6.87735409289402 5.3777097979879187 -0.83867057594974714 0 0.54463902268945019 0.54463902268945019 0 0.83867057594974714 forward_v I I I I #
loop $-1 $-1 $291 $71 #
coedge $-1 $182 $182 $183 $292 reversed $111 $-1 #
coedge $-1 $183 $183 $182 $292 forward $113 $-1 #
coedge $-1 $184 $184 $114 $185 forward $179 $-1 #
edge $-1 $293 0 $293 6.2831853071796004 $184 $294 forward 7 unknown #
loop $-1 $-1 $191 $115 #
plane-surface $-1 -66.082338938566267 -6.87735409289402 5.3777097979879187 -0.83867057594974714 0 0.54463902268945019 0.54463902268945019 0 0.83867057594974714 forward_v I I I I #
loop $-1 $-1 $295 $74 #
coedge $-1 $189 $189 $190 $296 reversed $116 $-1 #
coedge $-1 $190 $190 $189 $296 forward $118 $-1 #
coedge $-1 $191 $191 $119 $192 forward $186 $-1 #
edge $-1 $297 0 $297 6.2831853071796004 $191 $298 forward 7 unknown #
loop $-1 $-1 $198 $120 #
plane-surface $-1 -66.082338938566267 -6.87735409289402 5.3777097979879187 -0.83867057594974714 0 0.54463902268945019 0.54463902268945019 0 0.83867057594974714 forward_v I I I I #
loop $-1 $-1 $299 $77 #
coedge $-1 $196 $196 $197 $300 reversed $121 $-1 #
coedge $-1 $197 $197 $196 $300 forward $123 $-1 #
coedge $-1 $198 $198 $124 $199 forward $193 $-1 #
edge $-1 $301 0 $301 6.2831853071796004 $198 $302 forward 7 unknown #
face $-1 $303 $304 $30 $-1 $305 reversed single #
loop $-1 $-1 $306 $125 #
plane-surface $-1 -66.082338938566238 0 0 1 0 0 0 0 -1 forward_v I I I I #
coedge $-1 $307 $211 $308 $309 forward $126 $-1 #
coedge $-1 $310 $128 $307 $311 forward $81 $-1 #
coedge $-1 $128 $310 $312 $313 forward $81 $-1 #
coedge $-1 $214 $213 $128 $207 reversed $215 $-1 #
edge $-1 $314 -33.993269820639576 $315 33.993269820639576 $206 $316 forward 7 unknown #
coedge $-1 $130 $129 $317 $318 forward $51 $-1 #
coedge $-1 $319 $320 $129 $210 reversed $304 $-1 #
edge $-1 $217 -66.082338938566238 $321 66.082338938566238 $209 $322 forward 7 unknown #
coedge $-1 $203 $323 $130 $212 reversed $126 $-1 #
edge $-1 $324 -66.082338938566238 $216 66.082338938566238 $211 $325 forward 7 unknown #
coedge $-1 $206 $131 $323 $326 forward $215 $-1 #
coedge $-1 $131 $206 $319 $327 reversed $215 $-1 #
loop $-1 $-1 $213 $303 #
vertex $-1 $132 $328 #
vertex $-1 $132 $329 #
straight-curve $-1 66.082338938566238 0 9.8418333120042583 0 1 0 I I #
face $-1 $330 $331 $31 $-1 $332 forward single #
loop $-1 $-1 $228 $133 #
plane-surface $-1 0 -33.993269820639576 0 0 1 0 0 0 1 forward_v I I I I #
coedge $-1 $333 $334 $335 $336 forward $134 $-1 #
coedge $-1 $335 $136 $138 $230 reversed $85 $-1 #
coedge $-1 $136 $335 $337 $338 reversed $85 $-1 #
coedge $-1 $339 $139 $136 $226 forward $232 $-1 #
edge $-1 $234 2.6709166560021291 $340 5.6709166560021291 $225 $341 forward 7 unknown #
coedge $-1 $138 $137 $333 $342 reversed $54 $-1 #
coedge $-1 $343 $344 $137 $229 forward $220 $-1 #
edge $-1 $345 -66.082338938566238 $233 66.082338938566238 $228 $346 forward 7 unknown #
edge $-1 $347 -66.082338938566238 $234 66.082338938566238 $223 $348 forward 7 unknown #
coedge $-1 $139 $339 $343 $349 forward $232 $-1 #
loop $-1 $-1 $225 $330 #
vertex $-1 $229 $350 #
vertex $-1 $140 $351 #
straight-curve $-1 66.082338938566238 -15.126622004051093 6.8418333120042583 0 1 0 I I #
face $-1 $-1 $248 $32 $-1 $352 forward single #
loop $-1 $-1 $353 $141 #
plane-surface $-1 66.082338938566238 0 0 -1 0 0 0 0 1 forward_v I I I I #
coedge $-1 $354 $355 $356 $357 reversed $142 $-1 #
coedge $-1 $358 $144 $146 $246 forward $89 $-1 #
coedge $-1 $144 $358 $354 $359 forward $89 $-1 #
coedge $-1 $356 $147 $144 $243 forward $248 $-1 #
edge $-1 $250 0.17499580609291954 $360 15.248159671526832 $242 $361 forward 7 unknown #
coedge $-1 $362 $363 $145 $245 forward $237 $-1 #
edge $-1 $364 -90.702755198774454 $249 -86.108338890584363 $244 $365 forward 7 unknown #
edge $-1 $250 125.98228098828781 $364 132.16467787713248 $146 $366 forward 7 unknown #
coedge $-1 $147 $356 $362 $367 forward $248 $-1 #
loop $-1 $-1 $356 $236 #
vertex $-1 $245 $368 #
vertex $-1 $148 $369 #
straight-curve $-1 37.932203338360992 -7.8865735449027952 9.8418333120042547 -1 0 0 I I #
coedge $-1 $252 $252 $-1 $370 reversed $151 $-1 #
edge $-1 $371 0 $371 6.2831853071796004 $152 $372 forward 7 unknown #
vertex $-1 $155 $373 #
ellipse-curve $-1 64.013923477504733 -15.423155477619751 7.5446251579092287 0.74314483375859142 0 0.66913059716165679 0.66913059716165679 0 -0.74314483375859142 1 I I #
face $-1 $-1 $268 $34 $-1 $374 forward single #
loop $-1 $-1 $375 $156 #
plane-surface $-1 66.082338938566238 0 0 -1 0 0 0 0 1 forward_v I I I I #
coedge $-1 $376 $377 $378 $379 reversed $157 $-1 #
coedge $-1 $380 $159 $161 $266 forward $98 $-1 #
coedge $-1 $159 $380 $376 $381 forward $98 $-1 #
coedge $-1 $378 $162 $159 $263 forward $268 $-1 #
edge $-1 $270 -14.951626197958173 $382 0.12153766747573869 $262 $383 forward 7 unknown #
coedge $-1 $384 $385 $160 $265 forward $257 $-1 #
edge $-1 $386 -90.702755198774454 $269 -86.108338890584363 $264 $387 forward 7 unknown #
edge $-1 $270 125.98228098828781 $386 132.16467787713248 $161 $388 forward 7 unknown #
coedge $-1 $162 $378 $384 $389 forward $268 $-1 #
loop $-1 $-1 $378 $256 #
vertex $-1 $265 $390 #
vertex $-1 $163 $391 #
straight-curve $-1 37.932203338360992 22.366670463199391 9.8418333120042547 -1 0 0 I I #
coedge $-1 $272 $272 $-1 $392 reversed $166 $-1 #
edge $-1 $393 0 $393 6.2831853071796004 $167 $394 forward 7 unknown #
vertex $-1 $170 $395 #
ellipse-curve $-1 64.013923477504733 14.830088530482435 7.5446251579092287 0.74314483375859142 0 0.66913059716165679 0.66913059716165679 0 -0.74314483375859142 1 I I #
face $-1 $-1 $396 $36 $-1 $397 reversed single #
loop $-1 $-1 $177 $171 #
plane-surface $-1 0 0 9.8418333120042583 0 0 1 1 0 0 forward_v I I I I #
coedge $-1 $398 $399 $400 $401 reversed $172 $-1 #
coedge $-1 $402 $174 $176 $286 forward $107 $-1 #
coedge $-1 $174 $402 $398 $403 forward $107 $-1 #
coedge $-1 $400 $177 $174 $283 forward $277 $-1 #
edge $-1 $289 -7.8745946109761693 $404 0.99724051808214931 $282 $405 forward 7 unknown #
coedge $-1 $406 $407 $175 $285 forward $396 $-1 #
edge $-1 $408 -33.302165597539712 $288 -28.838042083523415 $284 $409 forward 7 unknown #
edge $-1 $289 -5.3228569619972337 $408 -5.1979138280344745e-014 $176 $410 forward 7 unknown #
coedge $-1 $177 $400 $406 $411 forward $277 $-1 #
vertex $-1 $285 $412 #
vertex $-1 $178 $413 #
straight-curve $-1 -88.462482726996882 -11.313271657423179 9.8418333120042618 1 0 0 I I #
coedge $-1 $291 $291 $-1 $414 reversed $181 $-1 #
edge $-1 $415 0 $415 6.2831853071796004 $182 $416 forward 7 unknown #
vertex $-1 $185 $417 #
ellipse-curve $-1 -64.632821131717307 -9.5389046316115156 7.6097715549961009 -0.83867057594974714 0 0.54463902268945019 0.2723195113447251 0 0.41933528797487357 1 I I #
coedge $-1 $295 $295 $-1 $418 reversed $188 $-1 #
edge $-1 $419 0 $419 6.2831853071796004 $189 $420 forward 7 unknown #
vertex $-1 $192 $421 #
ellipse-curve $-1 -64.632821131717307 -6.87735409289402 7.6097715549961009 -0.83867057594974714 0 0.54463902268945019 0.2723195113447251 0 0.41933528797487357 1 I I #
coedge $-1 $299 $299 $-1 $422 reversed $195 $-1 #
edge $-1 $423 0 $423 6.2831853071796004 $196 $424 forward 7 unknown #
vertex $-1 $199 $425 #
ellipse-curve $-1 -64.632821131717307 -4.2158035541765244 7.6097715549961009 -0.83867057594974714 0 0.54463902268945019 0.2723195113447251 0 0.41933528797487357 1 I I #
face $-1 $-1 $215 $30 $-1 $426 reversed single #
loop $-1 $-1 $319 $200 #
plane-surface $-1 0 33.993269820639576 0 0 -1 0 0 0 -1 forward_v I I I I #
coedge $-1 $427 $317 $320 $428 forward $201 $-1 #
coedge $-1 $323 $203 $204 $311 reversed $126 $-1 #
coedge $-1 $317 $427 $203 $309 reversed $201 $-1 #
edge $-1 $324 -9.8418333120042583 $429 9.8418333120042583 $308 $430 forward 7 unknown #
coedge $-1 $205 $204 $427 $431 forward $81 $-1 #
edge $-1 $315 -66.082338938566238 $429 66.082338938566238 $307 $432 forward 7 unknown #
coedge $-1 $320 $319 $205 $313 reversed $304 $-1 #
edge $-1 $433 -66.082338938566238 $314 66.082338938566238 $312 $434 forward 7 unknown #
vertex $-1 $207 $435 #
vertex $-1 $326 $436 #
straight-curve $-1 66.082338938566238 0 -9.8418333120042583 0 -1 0 I I #
coedge $-1 $306 $308 $208 $318 reversed $201 $-1 #
edge $-1 $321 -33.993269820639576 $324 33.993269820639576 $317 $437 forward 7 unknown #
coedge $-1 $312 $209 $214 $327 forward $304 $-1 #
coedge $-1 $209 $312 $306 $428 reversed $304 $-1 #
vertex $-1 $210 $438 #
straight-curve $-1 0 33.993269820639576 9.8418333120042583 -1 0 0 I I #
coedge $-1 $211 $307 $213 $326 reversed $126 $-1 #
vertex $-1 $318 $439 #
straight-curve $-1 0 -33.993269820639576 9.8418333120042583 1 0 0 I I #
edge $-1 $216 -9.8418333120042583 $315 9.8418333120042583 $213 $440 forward 7 unknown #
edge $-1 $217 -9.8418333120042583 $314 9.8418333120042583 $214 $441 forward 7 unknown #
point $-1 66.082338938566238 -33.993269820639576 9.8418333120042583 #
point $-1 66.082338938566238 33.993269820639576 9.8418333120042583 #
face $-1 $-1 $232 $31 $-1 $442 reversed single #
loop $-1 $-1 $337 $219 #
plane-surface $-1 0 0 9.8418333120042583 0 0 1 1 0 0 forward_v I I I I #
coedge $-1 $443 $222 $227 $342 forward $134 $-1 #
coedge $-1 $222 $443 $444 $445 reversed $134 $-1 #
coedge $-1 $224 $223 $222 $336 reversed $85 $-1 #
edge $-1 $446 -5.6709166560021291 $347 -2.6709166560021291 $222 $447 forward 7 unknown #
coedge $-1 $444 $448 $224 $338 forward $331 $-1 #
edge $-1 $340 -66.082338938566238 $446 66.082338938566238 $337 $449 forward 7 unknown #
coedge $-1 $231 $225 $448 $450 reversed $232 $-1 #
vertex $-1 $226 $451 #
straight-curve $-1 66.082338938566238 -26.513218195564797 4.1709166560021291 0 0 1 I I #
edge $-1 $347 11.386596191513704 $345 18.866647816588483 $333 $452 forward 7 unknown #
coedge $-1 $453 $228 $231 $349 reversed $220 $-1 #
coedge $-1 $228 $453 $443 $454 forward $220 $-1 #
vertex $-1 $229 $455 #
straight-curve $-1 0 -33.993269820639576 6.8418333120042583 1 0 0 I I #
vertex $-1 $342 $456 #
straight-curve $-1 0 -26.513218195564797 6.8418333120042583 1 0 0 I I #
edge $-1 $457 -9.8418333120042583 $233 -6.8418333120042583 $231 $458 forward 7 unknown #
point $-1 66.082338938566238 -33.993269820639576 6.8418333120042583 #
point $-1 66.082338938566238 -26.513218195564797 6.8418333120042583 #
plane-surface $-1 0 0 9.8418333120042583 0 0 1 1 0 0 forward_v I I I I #
coedge $-1 $363 $362 $355 $459 forward $237 $-1 #
coedge $-1 $355 $239 $241 $359 reversed $142 $-1 #
coedge $-1 $239 $354 $353 $459 reversed $142 $-1 #
coedge $-1 $247 $242 $239 $357 forward $248 $-1 #
edge $-1 $360 24.013304678082264 $460 28.150135600205246 $356 $461 forward 7 unknown #
coedge $-1 $241 $240 $363 $462 reversed $89 $-1 #
edge $-1 $463 -132.16467787713248 $360 -125.98228098828781 $354 $464 forward 7 unknown #
vertex $-1 $243 $465 #
straight-curve $-1 61.945508016443256 -7.7115777388098756 9.8418333120042547 0 -1 0 I I #
coedge $-1 $353 $244 $247 $367 reversed $237 $-1 #
coedge $-1 $244 $353 $358 $462 forward $237 $-1 #
vertex $-1 $245 $466 #
straight-curve $-1 66.082338938566238 -7.8865735449027952 95.950172202588618 0 0 1 I I #
straight-curve $-1 -22.353090893037418 -7.8865735449027952 103.46491457357357 0.66913059716165679 0 -0.74314483375859142 I I #
edge $-1 $460 -22.959737410336707 $249 -7.8865735449027952 $362 $467 forward 7 unknown #
point $-1 66.082338938566238 -7.8865735449027952 9.8418333120042583 #
point $-1 61.945508016443256 -7.8865735449027952 9.8418333120042547 #
edge $-1 $468 1 $468 0 $252 $-1 forward 7 unknown #
vertex $-1 $253 $469 #
ellipse-curve $-1 62.097173623069686 -15.423155477619751 5.8187758800223266 0.74314483375859142 0 0.66913059716165679 0.66913059716165679 0 -0.74314483375859142 1 I I #
point $-1 64.683054074666401 -15.423155477619751 6.8014803241506421 #
plane-surface $-1 0 0 9.8418333120042583 0 0 1 1 0 0 forward_v I I I I #
coedge $-1 $385 $384 $377 $470 forward $257 $-1 #
coedge $-1 $377 $259 $261 $381 reversed $157 $-1 #
coedge $-1 $259 $376 $375 $470 reversed $157 $-1 #
coedge $-1 $267 $262 $259 $379 forward $268 $-1 #
edge $-1 $382 24.013304678082264 $471 28.150135600205246 $378 $472 forward 7 unknown #
coedge $-1 $261 $260 $385 $473 reversed $98 $-1 #
edge $-1 $474 -132.16467787713248 $382 -125.98228098828781 $376 $475 forward 7 unknown #
vertex $-1 $263 $476 #
straight-curve $-1 61.945508016443256 7.4150442652412174 9.8418333120042547 0 -1 0 I I #
coedge $-1 $375 $264 $267 $389 reversed $257 $-1 #
coedge $-1 $264 $375 $380 $473 forward $257 $-1 #
vertex $-1 $265 $477 #
straight-curve $-1 66.082338938566238 22.366670463199391 95.950172202588618 0 0 1 I I #
straight-curve $-1 -22.353090893037418 22.366670463199391 103.46491457357357 0.66913059716165679 0 -0.74314483375859142 I I #
edge $-1 $471 7.2935065977654787 $269 22.366670463199391 $384 $478 forward 7 unknown #
point $-1 66.082338938566238 22.366670463199391 9.8418333120042583 #
point $-1 61.945508016443256 22.366670463199391 9.8418333120042547 #
edge $-1 $479 1 $479 0 $272 $-1 forward 7 unknown #
vertex $-1 $273 $480 #
ellipse-curve $-1 62.097173623069686 14.830088530482435 5.8187758800223266 0.74314483375859142 0 0.66913059716165679 0.66913059716165679 0 -0.74314483375859142 1 I I #
point $-1 64.683054074666401 14.830088530482435 6.8014803241506421 #
loop $-1 $-1 $284 $276 #
plane-surface $-1 -66.082338938566238 0 0 1 0 0 0 0 -1 forward_v I I I I #
coedge $-1 $399 $279 $281 $403 reversed $172 $-1 #
coedge $-1 $279 $398 $481 $482 reversed $172 $-1 #
coedge $-1 $287 $282 $279 $401 forward $277 $-1 #
edge $-1 $404 -25.279179402128527 $483 -22.380143788430644 $400 $484 forward 7 unknown #
coedge $-1 $281 $280 $407 $485 reversed $107 $-1 #
edge $-1 $486 5.1979138280344745e-014 $404 5.3228569619972337 $398 $487 forward 7 unknown #
vertex $-1 $283 $488 #
straight-curve $-1 -63.183303324868355 -3.43867704644701 9.8418333120042583 0 1 0 I I #
coedge $-1 $481 $284 $287 $411 reversed $396 $-1 #
coedge $-1 $284 $481 $402 $485 forward $396 $-1 #
vertex $-1 $285 $489 #
straight-curve $-1 -66.082338938566238 -11.313271657423179 38.679875395527674 0 0 1 I I #
straight-curve $-1 -66.082338938566267 -11.313271657423179 5.3777097979879187 -0.54463902268945019 0 -0.83867057594974714 I I #
edge $-1 $483 2.4414365283648607 $288 11.313271657423179 $406 $490 forward 7 unknown #
point $-1 -66.082338938566238 -11.313271657423179 9.8418333120042583 #
point $-1 -63.183303324868355 -11.313271657423179 9.8418333120042583 #
edge $-1 $491 1 $491 0 $291 $-1 forward 7 unknown #
vertex $-1 $292 $492 #
ellipse-curve $-1 -63.79415055576753 -9.5389046316115156 7.0651325323066336 -0.83867057594974714 0 0.54463902268945019 0.2723195113447251 0 0.41933528797487357 1 I I #
point $-1 -64.360501620372546 -9.5389046316115156 8.0291068429709576 #
edge $-1 $493 1 $493 0 $295 $-1 forward 7 unknown #
vertex $-1 $296 $494 #
ellipse-curve $-1 -63.79415055576753 -6.87735409289402 7.0651325323066336 -0.83867057594974714 0 0.54463902268945019 0.2723195113447251 0 0.41933528797487357 1 I I #
point $-1 -64.360501620372546 -6.87735409289402 8.0291068429709576 #
edge $-1 $495 1 $495 0 $299 $-1 forward 7 unknown #
vertex $-1 $300 $496 #
ellipse-curve $-1 -63.79415055576753 -4.2158035541765244 7.0651325323066336 -0.83867057594974714 0 0.54463902268945019 0.2723195113447251 0 0.41933528797487357 1 I I #
point $-1 -64.360501620372546 -4.2158035541765244 8.0291068429709576 #
plane-surface $-1 66.082338938566238 0 0 -1 0 0 0 0 1 forward_v I I I I #
coedge $-1 $308 $306 $310 $431 reversed $201 $-1 #
edge $-1 $321 -9.8418333120042583 $433 9.8418333120042583 $320 $497 forward 7 unknown #
vertex $-1 $431 $498 #
straight-curve $-1 -66.082338938566238 -33.993269820639576 0 0 0 -1 I I #
edge $-1 $429 -33.993269820639576 $433 33.993269820639576 $427 $499 forward 7 unknown #
straight-curve $-1 0 -33.993269820639576 -9.8418333120042583 -1 0 0 I I #
vertex $-1 $313 $500 #
straight-curve $-1 0 33.993269820639576 -9.8418333120042583 1 0 0 I I #
point $-1 66.082338938566238 33.993269820639576 -9.8418333120042583 #
point $-1 66.082338938566238 -33.993269820639576 -9.8418333120042583 #
straight-curve $-1 -66.082338938566238 0 9.8418333120042583 0 -1 0 I I #
point $-1 -66.082338938566238 33.993269820639576 9.8418333120042583 #
point $-1 -66.082338938566238 -33.993269820639576 9.8418333120042583 #
straight-curve $-1 66.082338938566238 -33.993269820639576 0 0 0 -1 I I #
straight-curve $-1 66.082338938566238 33.993269820639576 0 0 0 -1 I I #
plane-surface $-1 66.082338938566238 0 0 -1 0 0 0 0 1 forward_v I I I I #
coedge $-1 $334 $333 $344 $454 reversed $134 $-1 #
coedge $-1 $501 $337 $334 $445 forward $331 $-1 #
edge $-1 $446 26.513218195564797 $502 33.993269820639576 $334 $503 forward 7 unknown #
vertex $-1 $445 $504 #
straight-curve $-1 -66.082338938566238 -26.513218195564797 4.1709166560021291 0 0 -1 I I #
coedge $-1 $337 $501 $339 $450 forward $331 $-1 #
straight-curve $-1 0 -26.513218195564797 9.8418333120042583 -1 0 0 I I #
edge $-1 $457 -33.993269820639576 $340 -26.513218195564797 $339 $505 forward 7 unknown #
point $-1 66.082338938566238 -26.513218195564797 9.8418333120042583 #
straight-curve $-1 -66.082338938566238 -15.126622004051093 6.8418333120042583 0 -1 0 I I #
coedge $-1 $344 $343 $501 $506 reversed $220 $-1 #
edge $-1 $502 -9.8418333120042583 $345 -6.8418333120042583 $443 $507 forward 7 unknown #
point $-1 -66.082338938566238 -33.993269820639576 6.8418333120042583 #
point $-1 -66.082338938566238 -26.513218195564797 6.8418333120042583 #
vertex $-1 $450 $508 #
straight-curve $-1 66.082338938566238 -33.993269820639576 0 0 0 -1 I I #
edge $-1 $460 86.108338890584363 $463 90.702755198774454 $353 $509 forward 7 unknown #
vertex $-1 $367 $510 #
straight-curve $-1 37.932203338360992 -22.959737410336707 9.8418333120042547 1 0 0 I I #
edge $-1 $463 -15.248159671526832 $364 -0.17499580609291954 $363 $511 forward 7 unknown #
vertex $-1 $462 $512 #
straight-curve $-1 -22.353090893037418 -22.959737410336707 103.46491457357357 -0.66913059716165679 0 0.74314483375859142 I I #
point $-1 61.945508016443256 -22.959737410336707 9.8418333120042547 #
point $-1 66.082338938566252 -7.8865735449027952 5.2474170038141636 #
straight-curve $-1 66.082338938566238 0 9.8418333120042583 0 1 0 I I #
vertex $-1 $370 $513 #
point $-1 62.766304220231341 -15.423155477619751 5.0756310462637355 #
edge $-1 $471 86.108338890584363 $474 90.702755198774454 $375 $514 forward 7 unknown #
vertex $-1 $389 $515 #
straight-curve $-1 37.932203338360992 7.2935065977654787 9.8418333120042547 1 0 0 I I #
edge $-1 $474 -0.12153766747573869 $386 14.951626197958173 $385 $516 forward 7 unknown #
vertex $-1 $473 $517 #
straight-curve $-1 -22.353090893037418 7.2935065977654787 103.46491457357357 -0.66913059716165679 0 0.74314483375859142 I I #
point $-1 61.945508016443256 7.2935065977654787 9.8418333120042547 #
point $-1 66.082338938566252 22.366670463199391 5.2474170038141636 #
straight-curve $-1 66.082338938566238 0 9.8418333120042583 0 1 0 I I #
vertex $-1 $392 $518 #
point $-1 62.766304220231341 14.830088530482435 5.0756310462637355 #
coedge $-1 $407 $406 $399 $482 forward $396 $-1 #
edge $-1 $483 28.838042083523415 $486 33.302165597539712 $481 $519 forward 7 unknown #
vertex $-1 $411 $520 #
straight-curve $-1 -88.462482726996882 -2.4414365283648607 9.8418333120042618 -1 0 0 I I #
edge $-1 $486 -0.99724051808214931 $408 7.8745946109761693 $407 $521 forward 7 unknown #
vertex $-1 $485 $522 #
straight-curve $-1 -66.082338938566267 -2.4414365283648607 5.3777097979879187 0.54463902268945019 0 0.83867057594974714 I I #
point $-1 -63.183303324868355 -2.4414365283648607 9.8418333120042583 #
point $-1 -66.082338938566238 -11.313271657423179 5.3777097979879622 #
straight-curve $-1 -66.082338938566238 0 9.8418333120042583 0 -1 0 I I #
vertex $-1 $414 $523 #
point $-1 -63.521831044422804 -9.5389046316115156 7.4844678202815071 #
vertex $-1 $418 $524 #
point $-1 -63.521831044422804 -6.87735409289402 7.4844678202815071 #
vertex $-1 $422 $525 #
point $-1 -63.521831044422804 -4.2158035541765244 7.4844678202815071 #
straight-curve $-1 -66.082338938566238 33.993269820639576 0 0 0 -1 I I #
point $-1 -66.082338938566238 -33.993269820639576 -9.8418333120042583 #
straight-curve $-1 -66.082338938566238 0 -9.8418333120042583 0 1 0 I I #
point $-1 -66.082338938566238 33.993269820639576 -9.8418333120042583 #
coedge $-1 $448 $444 $453 $506 forward $331 $-1 #
vertex $-1 $445 $526 #
straight-curve $-1 -66.082338938566238 0 9.8418333120042583 0 -1 0 I I #
point $-1 -66.082338938566238 -26.513218195564797 9.8418333120042583 #
straight-curve $-1 66.082338938566238 0 9.8418333120042583 0 1 0 I I #
edge $-1 $502 -66.082338938566238 $457 66.082338938566238 $453 $527 forward 7 unknown #
straight-curve $-1 -66.082338938566238 -33.993269820639576 0 0 0 -1 I I #
point $-1 66.082338938566238 -33.993269820639576 9.8418333120042583 #
straight-curve $-1 66.082338938566238 -22.959737410336707 95.950172202588618 0 0 -1 I I #
point $-1 66.082338938566238 -22.959737410336707 9.8418333120042583 #
straight-curve $-1 66.082338938566238 -7.7115777388098756 5.2474170038141779 0 1 0 I I #
point $-1 66.082338938566252 -22.959737410336707 5.2474170038141636 #
point $-1 61.354028789311094 -15.423155477619751 5.1496452828606705 #
straight-curve $-1 66.082338938566238 7.2935065977654787 95.950172202588618 0 0 -1 I I #
point $-1 66.082338938566238 7.2935065977654787 9.8418333120042583 #
straight-curve $-1 66.082338938566238 7.4150442652412174 5.2474170038141779 0 1 0 I I #
point $-1 66.082338938566252 7.2935065977654787 5.2474170038141636 #
point $-1 61.354028789311094 14.830088530482435 5.1496452828606705 #
straight-curve $-1 -66.082338938566238 -2.4414365283648607 38.679875395527674 0 0 -1 I I #
point $-1 -66.082338938566238 -2.4414365283648607 9.8418333120042583 #
straight-curve $-1 -66.082338938566238 -3.43867704644701 5.3777097979879684 0 -1 0 I I #
point $-1 -66.082338938566238 -2.4414365283648607 5.3777097979879622 #
point $-1 -63.374815267792656 -9.5389046316115156 6.7928130209619093 #
point $-1 -63.374815267792656 -6.87735409289402 6.7928130209619093 #
point $-1 -63.374815267792656 -4.2158035541765244 6.7928130209619093 #
point $-1 -66.082338938566238 -33.993269820639576 9.8418333120042583 #
straight-curve $-1 0 -33.993269820639576 9.8418333120042583 1 0 0 I I #
End-of-ACIS-data 