500 0 10 0           
7 Unknown 11 ACIS 5.0 NT 24 Fri Mar 26 19:11:14 1999 
-1 9.9999999999999995e-007 1e-010 
body $-1 $10 $-1 $11 #
body $-1 $12 $-1 $13 #
body $-1 $14 $-1 $15 #
body $-1 $16 $-1 $17 #
body $-1 $18 $-1 $19 #
body $-1 $20 $-1 $21 #
body $-1 $22 $-1 $23 #
body $-1 $24 $-1 $25 #
body $-1 $26 $-1 $27 #
body $-1 $28 $-1 $29 #
lump $-1 $-1 $30 $0 #
transform $-1 1 0 0 0 1 0 0 0 1 46.103701895199436 29.802433575023279 12.864879358661895 1 rotate no_reflect no_shear #
lump $-1 $-1 $31 $1 #
transform $-1 1 0 0 0 1 0 0 0 1 46.103701895199436 29.802433575023279 12.864879358661895 1 rotate no_reflect no_shear #
lump $-1 $-1 $32 $2 #
transform $-1 1 0 0 0 1 0 0 0 1 46.103701895199436 29.802433575023279 12.864879358661895 1 rotate no_reflect no_shear #
lump $-1 $-1 $33 $3 #
transform $-1 1 0 0 0 1 0 0 0 1 46.103701895199436 29.802433575023279 12.864879358661895 1 rotate no_reflect no_shear #
lump $-1 $-1 $34 $4 #
transform $-1 1 0 0 0 1 0 0 0 1 46.103701895199436 29.802433575023279 12.864879358661895 1 rotate no_reflect no_shear #
lump $-1 $-1 $35 $5 #
transform $-1 1 0 0 0 1 0 0 0 1 46.103701895199436 29.802433575023279 12.864879358661895 1 rotate no_reflect no_shear #
lump $-1 $-1 $36 $6 #
transform $-1 1 0 0 0 1 0 0 0 1 46.103701895199436 29.802433575023279 12.864879358661895 1 rotate no_reflect no_shear #
lump $-1 $-1 $37 $7 #
transform $-1 1 0 0 0 1 0 0 0 1 46.103701895199436 29.802433575023279 12.864879358661895 1 rotate no_reflect no_shear #
lump $-1 $-1 $38 $8 #
transform $-1 1 0 0 0 1 0 0 0 1 46.103701895199436 29.802433575023279 12.864879358661895 1 rotate no_reflect no_shear #
lump $-1 $-1 $39 $9 #
transform $-1 1 0 0 0 1 0 0 0 1 46.103701895199436 29.802433575023279 12.864879358661895 1 rotate no_reflect no_shear #
shell $-1 $-1 $-1 $40 $-1 $10 #
shell $-1 $-1 $-1 $41 $-1 $12 #
shell $-1 $-1 $-1 $42 $-1 $14 #
shell $-1 $-1 $-1 $43 $-1 $16 #
shell $-1 $-1 $-1 $44 $-1 $18 #
shell $-1 $-1 $-1 $45 $-1 $20 #
shell $-1 $-1 $-1 $46 $-1 $22 #
shell $-1 $-1 $-1 $47 $-1 $24 #
shell $-1 $-1 $-1 $48 $-1 $26 #
shell $-1 $-1 $-1 $49 $-1 $28 #
face $-1 $50 $51 $30 $-1 $52 forward single #
face $-1 $53 $54 $31 $-1 $55 forward single #
face $-1 $56 $57 $32 $-1 $58 reversed single #
face $-1 $59 $60 $33 $-1 $61 forward single #
face $-1 $62 $63 $34 $-1 $64 forward single #
face $-1 $65 $66 $35 $-1 $67 forward single #
face $-1 $68 $69 $36 $-1 $70 reversed single #
face $-1 $71 $72 $37 $-1 $73 forward single #
face $-1 $74 $75 $38 $-1 $76 reversed single #
face $-1 $77 $78 $39 $-1 $79 forward single #
face $-1 $80 $81 $30 $-1 $82 reversed single #
loop $-1 $-1 $83 $40 #
plane-surface $-1 0 0 12.864879358661895 0 0 1 1 0 0 forward_v I I I I #
face $-1 $84 $85 $31 $-1 $86 reversed single #
loop $-1 $-1 $87 $41 #
plane-surface $-1 0 -29.802433575023279 0 0 1 0 0 0 1 forward_v I I I I #
face $-1 $88 $89 $32 $-1 $90 reversed single #
loop $-1 $-1 $91 $42 #
plane-surface $-1 41.552775431929788 3.5419565419906363 132.29799248406692 0 -1 0 -0.68199836817093118 0 -0.7313536940579346 forward_v I I I I #
face $-1 $92 $93 $33 $-1 $94 forward single #
loop $-1 $95 $96 $43 #
cone-surface $-1 39.663588158740737 -4.4448061712998808 6.7751956026531719 -0.68199836817093118 0 -0.7313536940579346 0.3656768470289673 0 -0.34099918408546559 1 I I 0 1 0.5 forward I I I I #
face $-1 $97 $98 $34 $-1 $99 forward single #
loop $-1 $100 $101 $44 #
cone-surface $-1 39.663588158740737 -1.4497701538159369 6.7751956026531719 -0.68199836817093118 0 -0.7313536940579346 0.3656768470289673 0 -0.34099918408546559 1 I I 0 1 0.5 forward I I I I #
face $-1 $102 $103 $35 $-1 $104 forward single #
loop $-1 $105 $106 $45 #
cone-surface $-1 39.663588158740737 1.545265863668007 6.7751956026531719 -0.68199836817093118 0 -0.7313536940579346 0.3656768470289673 0 -0.34099918408546559 1 I I 0 1 0.5 forward I I I I #
face $-1 $107 $108 $36 $-1 $109 reversed single #
loop $-1 $-1 $110 $46 #
plane-surface $-1 -115.69351366755119 -16.03863416922805 60.834300438134264 0 1 0 -0.75470958851134928 0 0.65605901945558964 forward_v I I I I #
face $-1 $111 $112 $37 $-1 $113 forward single #
loop $-1 $114 $115 $47 #
cone-surface $-1 -40.13956549469318 -11.725683847586183 6.150264431100366 0.75470958851134928 0 -0.65605901945558964 0.65605901945558964 0 0.75470958851134928 1 I I 0 1 1 forward I I I I #
face $-1 $116 $117 $38 $-1 $118 reversed single #
loop $-1 $-1 $119 $48 #
plane-surface $-1 -115.69351366755119 21.176532931739541 60.834300438134264 0 1 0 -0.75470958851134928 0 0.65605901945558964 forward_v I I I I #
face $-1 $120 $121 $39 $-1 $122 forward single #
loop $-1 $123 $124 $49 #
cone-surface $-1 -40.13956549469318 25.489483253381408 6.150264431100366 0.75470958851134928 0 -0.65605901945558964 0.65605901945558964 0 0.75470958851134928 1 I I 0 1 1 forward I I I I #
face $-1 $125 $126 $30 $-1 $127 reversed single #
loop $-1 $-1 $128 $50 #
plane-surface $-1 0 0 -12.864879358661895 0 0 1 1 0 0 forward_v I I I I #
coedge $-1 $129 $130 $131 $132 forward $51 $-1 #
face $-1 $133 $134 $31 $-1 $135 reversed single #
loop $-1 $-1 $136 $53 #
plane-surface $-1 0 0 -12.864879358661895 0 0 1 1 0 0 forward_v I I I I #
coedge $-1 $137 $138 $139 $140 forward $54 $-1 #
face $-1 $141 $142 $32 $-1 $143 reversed single #
loop $-1 $-1 $144 $56 #
plane-surface $-1 -21.332523486400376 -1.4497701538159369 64.861767102467113 0.68199836817093118 0 0.7313536940579346 0.7313536940579346 0 -0.68199836817093118 forward_v I I I I #
coedge $-1 $145 $146 $147 $148 reversed $57 $-1 #
face $-1 $-1 $149 $33 $-1 $150 forward single #
loop $-1 $151 $152 $59 #
cone-surface $-1 38.891170423190232 -4.4448061712998808 5.9468790103924363 -0.68199836817093118 0 -0.7313536940579346 0.18283842351448365 0 -0.17049959204273279 1 I I -0.70710678118654746 0.70710678118654746 0.25 forward I I I I #
loop $-1 $-1 $153 $43 #
coedge $-1 $96 $96 $154 $155 reversed $60 $-1 #
face $-1 $-1 $156 $34 $-1 $157 forward single #
loop $-1 $158 $159 $62 #
cone-surface $-1 38.891170423190232 -1.4497701538159369 5.9468790103924363 -0.68199836817093118 0 -0.7313536940579346 0.18283842351448365 0 -0.17049959204273279 1 I I -0.70710678118654746 0.70710678118654746 0.25 forward I I I I #
loop $-1 $-1 $160 $44 #
coedge $-1 $101 $101 $161 $162 reversed $63 $-1 #
face $-1 $-1 $163 $35 $-1 $164 forward single #
loop $-1 $165 $166 $65 #
cone-surface $-1 38.891170423190232 1.545265863668007 5.9468790103924363 -0.68199836817093118 0 -0.7313536940579346 0.18283842351448365 0 -0.17049959204273279 1 I I -0.70710678118654746 0.70710678118654746 0.25 forward I I I I #
loop $-1 $-1 $167 $45 #
coedge $-1 $106 $106 $168 $169 reversed $66 $-1 #
face $-1 $170 $171 $36 $-1 $172 reversed single #
loop $-1 $-1 $173 $68 #
plane-surface $-1 -46.103701895199421 -11.725683847586183 0.34080152085955717 -0.75470958851134928 0 0.65605901945558964 0.65605901945558964 0 0.75470958851134928 forward_v I I I I #
coedge $-1 $174 $175 $176 $177 reversed $69 $-1 #
face $-1 $-1 $178 $37 $-1 $179 forward single #
loop $-1 $180 $181 $71 #
cone-surface $-1 -39.241581544924017 -11.725683847586183 5.3696589127122074 0.75470958851134928 0 -0.65605901945558964 0.32802950972779482 0 0.37735479425567464 1 I I -0.70710678118654746 0.70710678118654746 0.5 forward I I I I #
loop $-1 $-1 $182 $47 #
coedge $-1 $115 $115 $183 $184 reversed $72 $-1 #
face $-1 $185 $186 $38 $-1 $187 forward single #
loop $-1 $-1 $188 $74 #
plane-surface $-1 -46.103701895199421 25.489483253381408 0.34080152085955717 -0.75470958851134928 0 0.65605901945558964 0.65605901945558964 0 0.75470958851134928 forward_v I I I I #
coedge $-1 $189 $190 $191 $192 reversed $75 $-1 #
face $-1 $-1 $193 $39 $-1 $194 forward single #
loop $-1 $195 $196 $77 #
cone-surface $-1 -39.241581544924017 25.489483253381408 5.3696589127122074 0.75470958851134928 0 -0.65605901945558964 0.32802950972779482 0 0.37735479425567464 1 I I -0.70710678118654746 0.70710678118654746 0.5 forward I I I I #
loop $-1 $-1 $197 $49 #
coedge $-1 $124 $124 $198 $199 reversed $78 $-1 #
face $-1 $200 $201 $30 $-1 $202 reversed single #
loop $-1 $-1 $203 $80 #
plane-surface $-1 0 -29.802433575023279 0 0 1 0 0 0 1 forward_v I I I I #
coedge $-1 $204 $205 $206 $207 forward $81 $-1 #
coedge $-1 $208 $83 $209 $210 forward $51 $-1 #
coedge $-1 $83 $208 $211 $212 forward $51 $-1 #
coedge $-1 $213 $214 $83 $132 reversed $215 $-1 #
edge $-1 $216 -29.802433575023279 $217 29.802433575023279 $131 $218 forward 7 unknown #
face $-1 $219 $220 $31 $-1 $221 forward single #
loop $-1 $-1 $222 $84 #
plane-surface $-1 46.103701895199436 0 0 -1 0 0 0 0 1 forward_v I I I I #
coedge $-1 $223 $224 $225 $226 forward $85 $-1 #
coedge $-1 $225 $87 $222 $227 reversed $54 $-1 #
coedge $-1 $87 $225 $228 $229 reversed $54 $-1 #
coedge $-1 $230 $231 $87 $140 reversed $220 $-1 #
edge $-1 $232 -46.103701895199436 $233 46.103701895199436 $139 $234 forward 7 unknown #
face $-1 $235 $236 $32 $-1 $237 reversed single #
loop $-1 $-1 $238 $88 #
plane-surface $-1 41.552775431929788 -6.44149684962251 132.29799248406692 0 1 0 0.68199836817093118 0 0.7313536940579346 forward_v I I I I #
coedge $-1 $239 $240 $241 $242 reversed $89 $-1 #
coedge $-1 $146 $91 $243 $244 reversed $57 $-1 #
coedge $-1 $91 $145 $239 $245 reversed $57 $-1 #
coedge $-1 $241 $246 $91 $148 forward $247 $-1 #
edge $-1 $248 -25.327314179234541 $249 -13.650922993332685 $147 $250 forward 7 unknown #
loop $-1 $-1 $154 $92 #
plane-surface $-1 -21.332523486400376 -1.4497701538159369 64.861767102467113 0.68199836817093118 0 0.7313536940579346 0.7313536940579346 0 -0.68199836817093118 forward_v I I I I #
loop $-1 $-1 $251 $59 #
coedge $-1 $152 $152 $153 $252 reversed $93 $-1 #
coedge $-1 $153 $153 $152 $252 forward $95 $-1 #
coedge $-1 $154 $154 $96 $155 forward $149 $-1 #
edge $-1 $253 0 $253 6.2831853071796004 $154 $254 forward 7 unknown #
loop $-1 $-1 $161 $97 #
plane-surface $-1 -21.332523486400376 -1.4497701538159369 64.861767102467113 0.68199836817093118 0 0.7313536940579346 0.7313536940579346 0 -0.68199836817093118 forward_v I I I I #
loop $-1 $-1 $255 $62 #
coedge $-1 $159 $159 $160 $256 reversed $98 $-1 #
coedge $-1 $160 $160 $159 $256 forward $100 $-1 #
coedge $-1 $161 $161 $101 $162 forward $156 $-1 #
edge $-1 $257 0 $257 6.2831853071796004 $161 $258 forward 7 unknown #
loop $-1 $-1 $168 $102 #
plane-surface $-1 -21.332523486400376 -1.4497701538159369 64.861767102467113 0.68199836817093118 0 0.7313536940579346 0.7313536940579346 0 -0.68199836817093118 forward_v I I I I #
loop $-1 $-1 $259 $65 #
coedge $-1 $166 $166 $167 $260 reversed $103 $-1 #
coedge $-1 $167 $167 $166 $260 forward $105 $-1 #
coedge $-1 $168 $168 $106 $169 forward $163 $-1 #
edge $-1 $261 0 $261 6.2831853071796004 $168 $262 forward 7 unknown #
face $-1 $263 $264 $36 $-1 $265 forward single #
loop $-1 $-1 $266 $107 #
plane-surface $-1 -115.69351366755119 -7.4127335259443159 60.834300438134264 0 -1 0 0.75470958851134928 0 -0.65605901945558964 forward_v I I I I #
coedge $-1 $267 $268 $269 $270 reversed $108 $-1 #
coedge $-1 $175 $110 $271 $272 reversed $69 $-1 #
coedge $-1 $110 $174 $267 $273 reversed $69 $-1 #
coedge $-1 $269 $274 $110 $177 forward $264 $-1 #
edge $-1 $275 11.743054938576158 $276 22.630069428561711 $176 $277 forward 7 unknown #
loop $-1 $-1 $183 $111 #
plane-surface $-1 -46.103701895199421 -11.725683847586183 0.34080152085955717 -0.75470958851134928 0 0.65605901945558964 0.65605901945558964 0 0.75470958851134928 forward_v I I I I #
loop $-1 $-1 $278 $71 #
coedge $-1 $181 $181 $182 $279 reversed $112 $-1 #
coedge $-1 $182 $182 $181 $279 forward $114 $-1 #
coedge $-1 $183 $183 $115 $184 forward $178 $-1 #
edge $-1 $280 0 $280 6.2831853071796004 $183 $281 forward 7 unknown #
face $-1 $282 $283 $38 $-1 $284 reversed single #
loop $-1 $-1 $191 $116 #
plane-surface $-1 0 0 12.864879358661895 0 0 1 1 0 0 forward_v I I I I #
coedge $-1 $285 $286 $287 $288 reversed $117 $-1 #
coedge $-1 $190 $119 $289 $290 reversed $75 $-1 #
coedge $-1 $119 $189 $285 $291 reversed $75 $-1 #
coedge $-1 $287 $292 $119 $192 forward $186 $-1 #
edge $-1 $293 11.743054938576158 $294 22.630069428561711 $191 $295 forward 7 unknown #
loop $-1 $-1 $198 $120 #
plane-surface $-1 -46.103701895199421 25.489483253381408 0.34080152085955717 -0.75470958851134928 0 0.65605901945558964 0.65605901945558964 0 0.75470958851134928 forward_v I I I I #
loop $-1 $-1 $296 $77 #
coedge $-1 $196 $196 $197 $297 reversed $121 $-1 #
coedge $-1 $197 $197 $196 $297 forward $123 $-1 #
coedge $-1 $198 $198 $124 $199 forward $193 $-1 #
edge $-1 $298 0 $298 6.2831853071796004 $198 $299 forward 7 unknown #
face $-1 $300 $301 $30 $-1 $302 reversed single #
loop $-1 $-1 $303 $125 #
plane-surface $-1 -46.103701895199436 0 0 1 0 0 0 0 -1 forward_v I I I I #
coedge $-1 $211 $304 $213 $305 reversed $126 $-1 #
coedge $-1 $306 $128 $304 $307 forward $81 $-1 #
coedge $-1 $128 $306 $308 $309 forward $81 $-1 #
coedge $-1 $214 $213 $128 $207 reversed $215 $-1 #
edge $-1 $310 -29.802433575023279 $311 29.802433575023279 $206 $312 forward 7 unknown #
coedge $-1 $130 $129 $313 $314 forward $51 $-1 #
coedge $-1 $315 $316 $129 $210 reversed $301 $-1 #
edge $-1 $217 -46.103701895199436 $317 46.103701895199436 $209 $318 forward 7 unknown #
coedge $-1 $319 $203 $130 $212 reversed $126 $-1 #
edge $-1 $320 -46.103701895199436 $216 46.103701895199436 $211 $321 forward 7 unknown #
coedge $-1 $206 $131 $203 $305 forward $215 $-1 #
coedge $-1 $131 $206 $315 $322 reversed $215 $-1 #
loop $-1 $-1 $213 $300 #
vertex $-1 $132 $323 #
vertex $-1 $132 $324 #
straight-curve $-1 46.103701895199436 0 12.864879358661895 0 1 0 I I #
face $-1 $325 $326 $31 $-1 $327 reversed single #
loop $-1 $-1 $231 $133 #
plane-surface $-1 0 -36.684333277920892 -7.1596055187479735 0 0 1 1 0 0 forward_v I I I I #
coedge $-1 $328 $329 $137 $227 forward $134 $-1 #
coedge $-1 $330 $136 $329 $331 forward $85 $-1 #
coedge $-1 $136 $330 $332 $333 forward $85 $-1 #
coedge $-1 $138 $137 $136 $226 reversed $54 $-1 #
edge $-1 $334 -46.103701895199436 $335 46.103701895199436 $136 $336 forward 7 unknown #
edge $-1 $335 -12.864879358661895 $233 -7.1596055187479735 $222 $337 forward 7 unknown #
coedge $-1 $332 $338 $138 $229 forward $339 $-1 #
edge $-1 $232 7.1596055187479735 $334 12.864879358661895 $228 $340 forward 7 unknown #
coedge $-1 $341 $139 $338 $342 forward $220 $-1 #
coedge $-1 $139 $341 $328 $343 forward $220 $-1 #
vertex $-1 $229 $344 #
vertex $-1 $343 $345 #
straight-curve $-1 0 -29.802433575023279 -7.1596055187479735 1 0 0 I I #
face $-1 $-1 $247 $32 $-1 $346 forward single #
loop $-1 $-1 $347 $141 #
plane-surface $-1 46.103701895199436 0 0 -1 0 0 0 0 1 forward_v I I I I #
coedge $-1 $348 $349 $350 $351 reversed $142 $-1 #
coedge $-1 $352 $144 $146 $245 forward $89 $-1 #
coedge $-1 $144 $352 $348 $353 forward $89 $-1 #
coedge $-1 $350 $147 $144 $242 forward $247 $-1 #
edge $-1 $249 -4.2668416188986047 $354 5.7166117727145416 $241 $355 forward 7 unknown #
coedge $-1 $356 $357 $145 $244 forward $236 $-1 #
edge $-1 $358 -64.172528057896514 $248 -53.284116883371567 $243 $359 forward 7 unknown #
edge $-1 $249 76.241953310323893 $358 92.207403790398871 $146 $360 forward 7 unknown #
coedge $-1 $147 $350 $356 $361 forward $247 $-1 #
loop $-1 $-1 $350 $235 #
vertex $-1 $244 $362 #
vertex $-1 $148 $363 #
straight-curve $-1 20.776387715964894 3.5419565419906363 12.864879358661895 -1 0 0 I I #
coedge $-1 $251 $251 $-1 $364 reversed $151 $-1 #
edge $-1 $365 0 $365 6.2831853071796004 $152 $366 forward 7 unknown #
vertex $-1 $155 $367 #
ellipse-curve $-1 40.265506302248511 -4.4448061712998808 7.4206737713994215 0.68199836817093118 0 0.7313536940579346 0.3656768470289673 0 -0.34099918408546559 1 I I #
coedge $-1 $255 $255 $-1 $368 reversed $158 $-1 #
edge $-1 $369 0 $369 6.2831853071796004 $159 $370 forward 7 unknown #
vertex $-1 $162 $371 #
ellipse-curve $-1 40.265506302248511 -1.4497701538159369 7.4206737713994215 0.68199836817093118 0 0.7313536940579346 0.3656768470289673 0 -0.34099918408546559 1 I I #
coedge $-1 $259 $259 $-1 $372 reversed $165 $-1 #
edge $-1 $373 0 $373 6.2831853071796004 $166 $374 forward 7 unknown #
vertex $-1 $169 $375 #
ellipse-curve $-1 40.265506302248511 1.545265863668007 7.4206737713994215 0.68199836817093118 0 0.7313536940579346 0.3656768470289673 0 -0.34099918408546559 1 I I #
face $-1 $-1 $376 $36 $-1 $377 reversed single #
loop $-1 $-1 $176 $170 #
plane-surface $-1 0 0 12.864879358661895 0 0 1 1 0 0 forward_v I I I I #
coedge $-1 $378 $379 $380 $381 reversed $171 $-1 #
coedge $-1 $382 $173 $175 $273 forward $108 $-1 #
coedge $-1 $173 $382 $378 $383 forward $108 $-1 #
coedge $-1 $380 $176 $173 $270 forward $264 $-1 #
edge $-1 $276 -10.175792245434959 $384 -1.5498916021512246 $269 $385 forward 7 unknown #
coedge $-1 $386 $387 $174 $272 forward $376 $-1 #
edge $-1 $388 -30.076348698207592 $275 -17.552270860405237 $271 $389 forward 7 unknown #
edge $-1 $276 -16.594565682550627 $388 2.1640230052520235e-014 $175 $390 forward 7 unknown #
coedge $-1 $176 $380 $386 $391 forward $264 $-1 #
vertex $-1 $272 $392 #
vertex $-1 $177 $393 #
straight-curve $-1 -57.846756833775594 -16.03863416922805 12.864879358661895 1 0 0 I I #
coedge $-1 $278 $278 $-1 $394 reversed $180 $-1 #
edge $-1 $395 0 $395 6.2831853071796004 $181 $396 forward 7 unknown #
vertex $-1 $184 $397 #
ellipse-curve $-1 -40.660194650206655 -11.725683847586183 6.602840439760719 -0.75470958851134928 0 0.65605901945558964 0.65605901945558964 0 0.75470958851134928 1 I I #
face $-1 $-1 $398 $38 $-1 $399 reversed single #
loop $-1 $-1 $400 $185 #
plane-surface $-1 0 29.802433575023279 0 0 -1 0 0 0 -1 forward_v I I I I #
coedge $-1 $401 $188 $190 $291 forward $117 $-1 #
coedge $-1 $188 $401 $400 $402 reversed $117 $-1 #
coedge $-1 $403 $191 $188 $288 forward $186 $-1 #
edge $-1 $294 8.4317913050488364 $404 17.057691948332572 $287 $405 forward 7 unknown #
coedge $-1 $406 $407 $189 $290 forward $398 $-1 #
edge $-1 $408 -30.076348698207592 $293 -17.552270860405237 $289 $409 forward 7 unknown #
edge $-1 $294 -16.594565682550627 $408 2.1640230052520235e-014 $190 $410 forward 7 unknown #
coedge $-1 $191 $403 $406 $411 forward $186 $-1 #
vertex $-1 $290 $412 #
vertex $-1 $192 $413 #
straight-curve $-1 -57.846756833775594 21.176532931739541 12.864879358661895 1 0 0 I I #
coedge $-1 $296 $296 $-1 $414 reversed $195 $-1 #
edge $-1 $415 0 $415 6.2831853071796004 $196 $416 forward 7 unknown #
vertex $-1 $199 $417 #
ellipse-curve $-1 -40.660194650206655 25.489483253381408 6.602840439760719 -0.75470958851134928 0 0.65605901945558964 0.65605901945558964 0 0.75470958851134928 1 I I #
face $-1 $-1 $215 $30 $-1 $418 reversed single #
loop $-1 $-1 $315 $200 #
plane-surface $-1 0 29.802433575023279 0 0 -1 0 0 0 -1 forward_v I I I I #
coedge $-1 $419 $313 $316 $420 forward $201 $-1 #
coedge $-1 $203 $319 $204 $307 reversed $126 $-1 #
edge $-1 $216 -12.864879358661895 $311 12.864879358661895 $213 $421 forward 7 unknown #
coedge $-1 $205 $204 $419 $422 forward $81 $-1 #
edge $-1 $311 -46.103701895199436 $423 46.103701895199436 $304 $424 forward 7 unknown #
coedge $-1 $316 $315 $205 $309 reversed $301 $-1 #
edge $-1 $425 -46.103701895199436 $310 46.103701895199436 $308 $426 forward 7 unknown #
vertex $-1 $207 $427 #
vertex $-1 $305 $428 #
straight-curve $-1 46.103701895199436 0 -12.864879358661895 0 -1 0 I I #
coedge $-1 $303 $429 $208 $314 reversed $201 $-1 #
edge $-1 $317 -29.802433575023279 $320 29.802433575023279 $313 $430 forward 7 unknown #
coedge $-1 $308 $209 $214 $322 forward $301 $-1 #
coedge $-1 $209 $308 $303 $420 reversed $301 $-1 #
vertex $-1 $210 $431 #
straight-curve $-1 0 29.802433575023279 12.864879358661895 -1 0 0 I I #
coedge $-1 $304 $211 $429 $432 forward $126 $-1 #
vertex $-1 $314 $433 #
straight-curve $-1 0 -29.802433575023279 12.864879358661895 1 0 0 I I #
edge $-1 $217 -12.864879358661895 $310 12.864879358661895 $214 $434 forward 7 unknown #
point $-1 46.103701895199436 -29.802433575023279 12.864879358661895 #
point $-1 46.103701895199436 29.802433575023279 12.864879358661895 #
face $-1 $-1 $339 $31 $-1 $435 reversed single #
loop $-1 $-1 $436 $219 #
plane-surface $-1 0 -43.566232980818505 -10.012242438704934 0 1 0 0 0 1 forward_v I I I I #
coedge $-1 $437 $222 $231 $343 reversed $134 $-1 #
coedge $-1 $222 $437 $223 $331 reversed $134 $-1 #
coedge $-1 $224 $223 $438 $439 forward $85 $-1 #
edge $-1 $335 29.802433575023279 $440 43.566232980818505 $329 $441 forward 7 unknown #
coedge $-1 $442 $228 $224 $333 reversed $339 $-1 #
edge $-1 $443 -43.566232980818505 $334 -29.802433575023279 $332 $444 forward 7 unknown #
vertex $-1 $229 $445 #
vertex $-1 $331 $446 #
straight-curve $-1 0 -29.802433575023279 -12.864879358661895 1 0 0 I I #
straight-curve $-1 46.103701895199436 -29.802433575023279 0 0 0 1 I I #
coedge $-1 $228 $442 $230 $342 reversed $339 $-1 #
loop $-1 $-1 $228 $325 #
straight-curve $-1 -46.103701895199436 -29.802433575023279 0 0 0 -1 I I #
coedge $-1 $231 $230 $447 $448 forward $220 $-1 #
edge $-1 $232 -6.8818997028976163 $449 6.8818997028976128 $338 $450 forward 7 unknown #
edge $-1 $451 -6.8818997028976128 $233 6.8818997028976163 $328 $452 forward 7 unknown #
point $-1 -46.103701895199436 -29.802433575023276 -7.1596055187479735 #
point $-1 46.103701895199436 -29.802433575023276 -7.1596055187479735 #
plane-surface $-1 0 0 12.864879358661895 0 0 1 1 0 0 forward_v I I I I #
coedge $-1 $357 $356 $349 $453 forward $236 $-1 #
coedge $-1 $349 $238 $240 $353 reversed $142 $-1 #
coedge $-1 $238 $348 $347 $453 reversed $142 $-1 #
coedge $-1 $246 $241 $238 $351 forward $247 $-1 #
edge $-1 $354 13.650922993332685 $454 25.327314179234541 $350 $455 forward 7 unknown #
coedge $-1 $240 $239 $357 $456 reversed $89 $-1 #
edge $-1 $457 -92.207403790398871 $354 -76.241953310323893 $348 $458 forward 7 unknown #
vertex $-1 $242 $459 #
straight-curve $-1 34.427310709297579 -0.72488507690796844 12.864879358661895 0 -1 0 I I #
coedge $-1 $347 $243 $246 $361 reversed $236 $-1 #
coedge $-1 $243 $347 $352 $456 forward $236 $-1 #
vertex $-1 $244 $460 #
straight-curve $-1 46.103701895199436 3.5419565419906363 66.148996242033462 0 0 1 I I #
straight-curve $-1 -21.332523486400376 3.5419565419906363 64.861767102467113 0.7313536940579346 0 -0.68199836817093118 I I #
edge $-1 $454 -6.44149684962251 $248 3.5419565419906363 $356 $461 forward 7 unknown #
point $-1 46.103701895199436 3.5419565419906363 12.864879358661895 #
point $-1 34.427310709297579 3.5419565419906363 12.864879358661895 #
edge $-1 $462 1 $462 0 $251 $-1 forward 7 unknown #
vertex $-1 $252 $463 #
ellipse-curve $-1 39.061670015232963 -4.4448061712998808 6.1297174339069196 0.68199836817093118 0 0.7313536940579346 0.3656768470289673 0 -0.34099918408546559 1 I I #
point $-1 40.631183149277483 -4.4448061712998808 7.0796745873139582 #
edge $-1 $464 1 $464 0 $255 $-1 forward 7 unknown #
vertex $-1 $256 $465 #
ellipse-curve $-1 39.061670015232963 -1.4497701538159369 6.1297174339069196 0.68199836817093118 0 0.7313536940579346 0.3656768470289673 0 -0.34099918408546559 1 I I #
point $-1 40.631183149277483 -1.4497701538159369 7.0796745873139582 #
edge $-1 $466 1 $466 0 $259 $-1 forward 7 unknown #
vertex $-1 $260 $467 #
ellipse-curve $-1 39.061670015232963 1.545265863668007 6.1297174339069196 0.68199836817093118 0 0.7313536940579346 0.3656768470289673 0 -0.34099918408546559 1 I I #
point $-1 40.631183149277483 1.545265863668007 7.0796745873139582 #
loop $-1 $-1 $271 $263 #
plane-surface $-1 -46.103701895199436 0 0 1 0 0 0 0 -1 forward_v I I I I #
coedge $-1 $379 $266 $268 $383 reversed $171 $-1 #
coedge $-1 $266 $378 $468 $469 reversed $171 $-1 #
coedge $-1 $274 $269 $266 $381 forward $264 $-1 #
edge $-1 $384 -22.630069428561711 $470 -11.743054938576158 $380 $471 forward 7 unknown #
coedge $-1 $268 $267 $387 $472 reversed $108 $-1 #
edge $-1 $473 -2.1640230052520235e-014 $384 16.594565682550627 $378 $474 forward 7 unknown #
vertex $-1 $270 $475 #
straight-curve $-1 -35.216687405213882 -5.8628419237930913 12.864879358661895 0 1 0 I I #
coedge $-1 $468 $271 $274 $391 reversed $376 $-1 #
coedge $-1 $271 $468 $382 $472 forward $376 $-1 #
vertex $-1 $272 $476 #
straight-curve $-1 -46.103701895199436 -16.03863416922805 30.417150219067132 0 0 1 I I #
straight-curve $-1 -46.103701895199421 -16.03863416922805 0.34080152085955717 -0.65605901945558964 0 -0.75470958851134928 I I #
edge $-1 $470 7.4127335259443159 $275 16.03863416922805 $386 $477 forward 7 unknown #
point $-1 -46.103701895199436 -16.03863416922805 12.864879358661895 #
point $-1 -35.216687405213882 -16.03863416922805 12.864879358661895 #
edge $-1 $478 1 $478 0 $278 $-1 forward 7 unknown #
vertex $-1 $279 $479 #
ellipse-curve $-1 -39.61893633917969 -11.725683847586183 5.6976884224400024 -0.75470958851134928 0 0.65605901945558964 0.65605901945558964 0 0.75470958851134928 1 I I #
point $-1 -40.00413563075108 -11.725683847586183 7.3575500282720796 #
loop $-1 $-1 $289 $282 #
plane-surface $-1 -46.103701895199436 0 0 1 0 0 0 0 -1 forward_v I I I I #
coedge $-1 $480 $481 $286 $402 forward $283 $-1 #
coedge $-1 $286 $285 $407 $482 reversed $117 $-1 #
edge $-1 $404 -1.5997940410179297 $483 14.994771641532715 $400 $484 forward 7 unknown #
coedge $-1 $292 $287 $481 $485 forward $186 $-1 #
vertex $-1 $485 $486 #
straight-curve $-1 -35.216687405213882 12.744741626690704 12.864879358661895 0 1 0 I I #
coedge $-1 $487 $289 $292 $411 reversed $398 $-1 #
coedge $-1 $289 $487 $401 $482 forward $398 $-1 #
vertex $-1 $290 $488 #
straight-curve $-1 -46.103701895199436 21.176532931739541 30.417150219067132 0 0 1 I I #
straight-curve $-1 -46.103701895199421 21.176532931739541 0.34080152085955717 -0.65605901945558964 0 -0.75470958851134928 I I #
edge $-1 $489 -29.802433575023279 $293 -21.176532931739541 $406 $490 forward 7 unknown #
point $-1 -46.103701895199436 21.176532931739541 12.864879358661895 #
point $-1 -35.216687405213882 21.176532931739541 12.864879358661895 #
edge $-1 $491 1 $491 0 $296 $-1 forward 7 unknown #
vertex $-1 $297 $492 #
ellipse-curve $-1 -39.61893633917969 25.489483253381408 5.6976884224400024 -0.75470958851134928 0 0.65605901945558964 0.65605901945558964 0 0.75470958851134928 1 I I #
point $-1 -40.00413563075108 25.489483253381408 7.3575500282720796 #
plane-surface $-1 46.103701895199436 0 0 -1 0 0 0 0 1 forward_v I I I I #
coedge $-1 $429 $303 $306 $422 reversed $201 $-1 #
edge $-1 $317 -12.864879358661895 $425 12.864879358661895 $316 $493 forward 7 unknown #
straight-curve $-1 46.103701895199436 -29.802433575023279 0 0 0 -1 I I #
edge $-1 $423 -29.802433575023279 $425 29.802433575023279 $419 $494 forward 7 unknown #
vertex $-1 $422 $495 #
straight-curve $-1 0 -29.802433575023279 -12.864879358661895 -1 0 0 I I #
vertex $-1 $309 $496 #
straight-curve $-1 0 29.802433575023279 -12.864879358661895 1 0 0 I I #
point $-1 46.103701895199436 29.802433575023279 -12.864879358661895 #
point $-1 46.103701895199436 -29.802433575023279 -12.864879358661895 #
coedge $-1 $313 $419 $319 $432 reversed $201 $-1 #
straight-curve $-1 -46.103701895199436 0 12.864879358661895 0 -1 0 I I #
point $-1 -46.103701895199436 29.802433575023279 12.864879358661895 #
edge $-1 $320 -12.864879358661895 $423 12.864879358661895 $429 $497 forward 7 unknown #
point $-1 -46.103701895199436 -29.802433575023279 12.864879358661895 #
straight-curve $-1 46.103701895199436 29.802433575023279 0 0 0 -1 I I #
plane-surface $-1 -46.103701895199436 0 0 1 0 0 0 0 -1 forward_v I I I I #
coedge $-1 $438 $447 $442 $498 forward $326 $-1 #
coedge $-1 $329 $328 $499 $500 forward $134 $-1 #
coedge $-1 $499 $436 $330 $439 reversed $326 $-1 #
edge $-1 $440 -46.103701895199436 $443 46.103701895199436 $438 $501 forward 7 unknown #
vertex $-1 $500 $502 #
straight-curve $-1 46.103701895199436 0 -12.864879358661895 0 -1 0 I I #
coedge $-1 $338 $332 $436 $498 reversed $339 $-1 #
vertex $-1 $333 $503 #
straight-curve $-1 -46.103701895199436 0 -12.864879358661895 0 1 0 I I #
point $-1 -46.103701895199436 -29.802433575023279 -12.864879358661895 #
point $-1 46.103701895199436 -29.802433575023279 -12.864879358661895 #
coedge $-1 $436 $499 $341 $448 reversed $326 $-1 #
edge $-1 $449 -46.103701895199436 $451 46.103701895199436 $447 $504 forward 7 unknown #
vertex $-1 $342 $505 #
straight-curve $-1 -46.103701895199436 -36.684333277920892 -7.1596055187479735 0 -1 0 I I #
vertex $-1 $343 $506 #
straight-curve $-1 46.103701895199436 -36.684333277920892 -7.1596055187479735 0 1 0 I I #
edge $-1 $454 53.284116883371567 $457 64.172528057896514 $347 $507 forward 7 unknown #
vertex $-1 $361 $508 #
straight-curve $-1 20.776387715964894 -6.44149684962251 12.864879358661895 1 0 0 I I #
edge $-1 $457 -5.7166117727145416 $358 4.2668416188986047 $357 $509 forward 7 unknown #
vertex $-1 $456 $510 #
straight-curve $-1 -21.332523486400376 -6.44149684962251 64.861767102467113 -0.7313536940579346 0 0.68199836817093118 I I #
point $-1 34.427310709297579 -6.44149684962251 12.864879358661895 #
point $-1 46.103701895199436 3.5419565419906363 1.976468184136948 #
straight-curve $-1 46.103701895199436 0 12.864879358661895 0 1 0 I I #
vertex $-1 $364 $511 #
point $-1 39.427346862261935 -4.4448061712998808 5.7887182498214544 #
vertex $-1 $368 $512 #
point $-1 39.427346862261935 -1.4497701538159369 5.7887182498214544 #
vertex $-1 $372 $513 #
point $-1 39.427346862261935 1.545265863668007 5.7887182498214544 #
coedge $-1 $387 $386 $379 $469 forward $376 $-1 #
edge $-1 $470 17.552270860405237 $473 30.076348698207592 $468 $514 forward 7 unknown #
vertex $-1 $391 $515 #
straight-curve $-1 -57.846756833775594 -7.4127335259443159 12.864879358661895 -1 0 0 I I #
edge $-1 $473 1.5498916021512246 $388 10.175792245434959 $387 $516 forward 7 unknown #
vertex $-1 $472 $517 #
straight-curve $-1 -46.103701895199421 -7.4127335259443159 0.34080152085955717 0.65605901945558964 0 0.75470958851134928 I I #
point $-1 -35.216687405213882 -7.4127335259443159 12.864879358661895 #
point $-1 -46.103701895199436 -16.03863416922805 0.34080152085954085 #
straight-curve $-1 -46.103701895199436 0 12.864879358661895 0 -1 0 I I #
vertex $-1 $394 $518 #
point $-1 -38.9628773197241 -11.725683847586183 6.4523980109513515 #
coedge $-1 $481 $400 $487 $519 reversed $283 $-1 #
coedge $-1 $400 $480 $403 $485 reversed $283 $-1 #
edge $-1 $483 -17.057691948332572 $408 -8.4317913050488364 $407 $520 forward 7 unknown #
vertex $-1 $402 $521 #
straight-curve $-1 -36.266246715095001 29.802433575023279 11.657499456262345 -0.65605901945558975 0 -0.75470958851134939 I I #
edge $-1 $404 35.216687405213882 $489 46.103701895199436 $481 $522 forward 7 unknown #
point $-1 -35.216687405213882 29.802433575023276 12.864879358661895 #
coedge $-1 $407 $406 $480 $519 forward $398 $-1 #
point $-1 -46.103701895199436 21.176532931739541 0.34080152085954085 #
vertex $-1 $485 $523 #
straight-curve $-1 -46.103701895199436 0 12.864879358661895 0 -1 0 I I #
vertex $-1 $414 $524 #
point $-1 -38.9628773197241 25.489483253381408 6.4523980109513515 #
straight-curve $-1 -46.103701895199436 29.802433575023279 0 0 0 -1 I I #
straight-curve $-1 -46.103701895199436 0 -12.864879358661895 0 1 0 I I #
point $-1 -46.103701895199436 -29.802433575023279 -12.864879358661895 #
point $-1 -46.103701895199436 29.802433575023279 -12.864879358661895 #
straight-curve $-1 -46.103701895199436 -29.802433575023279 0 0 0 -1 I I #
edge $-1 $449 -2.8526369199569608 $443 2.8526369199569608 $442 $525 forward 7 unknown #
coedge $-1 $447 $438 $437 $500 reversed $326 $-1 #
edge $-1 $451 -2.8526369199569608 $440 2.8526369199569608 $437 $526 forward 7 unknown #
straight-curve $-1 0 -43.566232980818505 -12.864879358661895 -1 0 0 I I #
point $-1 46.103701895199436 -43.566232980818505 -12.864879358661895 #
point $-1 -46.103701895199436 -43.566232980818505 -12.864879358661895 #
straight-curve $-1 0 -43.566232980818505 -7.1596055187479735 1 0 0 I I #
point $-1 -46.103701895199436 -43.566232980818505 -7.1596055187479735 #
point $-1 46.103701895199436 -43.566232980818505 -7.1596055187479735 #
straight-curve $-1 46.103701895199436 -6.44149684962251 66.148996242033462 0 0 -1 I I #
point $-1 46.103701895199436 -6.44149684962251 12.864879358661895 #
straight-curve $-1 46.103701895199436 -0.72488507690796844 1.976468184136948 0 1 0 I I #
point $-1 46.103701895199436 -6.44149684962251 1.976468184136948 #
point $-1 38.720670831147501 -4.4448061712998808 5.764040586877953 #
point $-1 38.720670831147501 -1.4497701538159369 5.764040586877953 #
point $-1 38.720670831147501 1.545265863668007 5.764040586877953 #
straight-curve $-1 -46.103701895199436 -7.4127335259443159 30.417150219067132 0 0 -1 I I #
point $-1 -46.103701895199436 -7.4127335259443159 12.864879358661895 #
straight-curve $-1 -46.103701895199436 -5.8628419237930913 0.3408015208595444 0 -1 0 I I #
point $-1 -46.103701895199436 -7.4127335259443159 0.34080152085954085 #
point $-1 -38.864226750668344 -11.725683847586183 5.0416294029844124 #
edge $-1 $489 -12.864879358661895 $483 -0.34080152085954085 $480 $527 forward 7 unknown #
straight-curve $-1 -46.103701895199436 12.744741626690704 0.3408015208595444 0 -1 0 I I #
point $-1 -46.103701895199436 29.802433575023276 0.34080152085954085 #
straight-curve $-1 0 29.802433575023279 12.864879358661895 -1 0 0 I I #
point $-1 -46.103701895199436 29.802433575023279 12.864879358661895 #
point $-1 -38.864226750668344 25.489483253381408 5.0416294029844124 #
straight-curve $-1 -46.103701895199436 -43.566232980818505 -10.012242438704934 0 0 -1 I I #
straight-curve $-1 46.103701895199436 -43.566232980818505 -10.012242438704934 0 0 -1 I I #
straight-curve $-1 -46.103701895199436 29.802433575023279 0 0 0 -1 I I #
End-of-ACIS-data 