500 0 8 0           
7 Unknown 11 ACIS 5.0 NT 24 Fri Mar 26 00:20:05 1999 
-1 9.9999999999999995e-007 1e-010 
body $-1 $8 $-1 $9 #
body $-1 $10 $-1 $11 #
body $-1 $12 $-1 $13 #
body $-1 $14 $-1 $15 #
body $-1 $16 $-1 $17 #
body $-1 $18 $-1 $19 #
body $-1 $20 $-1 $21 #
body $-1 $22 $-1 $23 #
lump $-1 $-1 $24 $0 #
transform $-1 1 0 0 0 1 0 0 0 1 63.981444746238594 37.574820266893312 14.817095481203099 1 rotate no_reflect no_shear #
lump $-1 $-1 $25 $1 #
transform $-1 1 0 0 0 1 0 0 0 1 63.981444746238594 37.574820266893312 14.817095481203099 1 rotate no_reflect no_shear #
lump $-1 $-1 $26 $2 #
transform $-1 1 0 0 0 1 0 0 0 1 63.981444746238594 37.574820266893312 14.817095481203099 1 rotate no_reflect no_shear #
lump $-1 $-1 $27 $3 #
transform $-1 1 0 0 0 1 0 0 0 1 63.981444746238594 37.574820266893312 14.817095481203099 1 rotate no_reflect no_shear #
lump $-1 $-1 $28 $4 #
transform $-1 1 0 0 0 1 0 0 0 1 63.981444746238594 37.574820266893312 14.817095481203099 1 rotate no_reflect no_shear #
lump $-1 $-1 $29 $5 #
transform $-1 1 0 0 0 1 0 0 0 1 63.981444746238594 37.574820266893312 14.817095481203099 1 rotate no_reflect no_shear #
lump $-1 $-1 $30 $6 #
transform $-1 1 0 0 0 1 0 0 0 1 63.981444746238594 37.574820266893312 14.817095481203099 1 rotate no_reflect no_shear #
lump $-1 $-1 $31 $7 #
transform $-1 1 0 0 0 1 0 0 0 1 63.981444746238594 37.574820266893312 14.817095481203099 1 rotate no_reflect no_shear #
shell $-1 $-1 $-1 $32 $-1 $8 #
shell $-1 $-1 $-1 $33 $-1 $10 #
shell $-1 $-1 $-1 $34 $-1 $12 #
shell $-1 $-1 $-1 $35 $-1 $14 #
shell $-1 $-1 $-1 $36 $-1 $16 #
shell $-1 $-1 $-1 $37 $-1 $18 #
shell $-1 $-1 $-1 $38 $-1 $20 #
shell $-1 $-1 $-1 $39 $-1 $22 #
face $-1 $40 $41 $24 $-1 $42 forward single #
face $-1 $43 $44 $25 $-1 $45 forward single #
face $-1 $46 $47 $26 $-1 $48 reversed single #
face $-1 $49 $50 $27 $-1 $51 forward single #
face $-1 $52 $53 $28 $-1 $54 forward single #
face $-1 $55 $56 $29 $-1 $57 reversed single #
face $-1 $58 $59 $30 $-1 $60 forward single #
face $-1 $61 $62 $31 $-1 $63 forward single #
face $-1 $64 $65 $24 $-1 $66 reversed single #
loop $-1 $-1 $67 $32 #
plane-surface $-1 0 0 14.817095481203099 0 0 1 1 0 0 forward_v I I I I #
face $-1 $68 $69 $25 $-1 $70 reversed single #
loop $-1 $-1 $71 $33 #
plane-surface $-1 -58.727844509454393 0 -2.1534205621288534 0 0 1 1 0 0 forward_v I I I I #
face $-1 $72 $73 $26 $-1 $74 reversed single #
loop $-1 $-1 $75 $34 #
plane-surface $-1 89.167165409556958 -14.170629002087239 181.54372650565438 0 -1 0 -0.79863551827123203 0 -0.60181501223851219 forward_v I I I I #
face $-1 $76 $77 $27 $-1 $78 forward single #
loop $-1 $79 $80 $35 #
cone-surface $-1 58.608078077845988 -25.998631796319373 8.0715198429489732 -0.79863551827123203 0 -0.60181501223851219 0.60181501223851219 0 -0.79863551827123203 1 I I 0 1 1 forward I I I I #
face $-1 $81 $82 $28 $-1 $83 forward single #
loop $-1 $84 $85 $36 #
cone-surface $-1 58.608078077845988 -18.901830119780094 8.0715198429489732 -0.79863551827123203 0 -0.60181501223851219 0.60181501223851219 0 -0.79863551827123203 1 I I 0 1 1 forward I I I I #
face $-1 $86 $87 $29 $-1 $88 reversed single #
loop $-1 $-1 $89 $37 #
plane-surface $-1 89.167165409556958 30.729832914012224 181.54372650565438 0 -1 0 -0.79863551827123203 0 -0.60181501223851219 forward_v I I I I #
face $-1 $90 $91 $30 $-1 $92 forward single #
loop $-1 $93 $94 $38 #
cone-surface $-1 58.608078077845988 18.901830119780087 8.0715198429489732 -0.79863551827123203 0 -0.60181501223851219 0.60181501223851219 0 -0.79863551827123203 1 I I 0 1 1 forward I I I I #
face $-1 $95 $96 $31 $-1 $97 forward single #
loop $-1 $98 $99 $39 #
cone-surface $-1 58.608078077845988 25.998631796319366 8.0715198429489732 -0.79863551827123203 0 -0.60181501223851219 0.60181501223851219 0 -0.79863551827123203 1 I I 0 1 1 forward I I I I #
face $-1 $100 $101 $24 $-1 $102 reversed single #
loop $-1 $-1 $103 $40 #
plane-surface $-1 0 0 -14.817095481203099 0 0 1 1 0 0 forward_v I I I I #
coedge $-1 $104 $105 $106 $107 forward $41 $-1 #
face $-1 $108 $109 $25 $-1 $110 reversed single #
loop $-1 $-1 $111 $43 #
plane-surface $-1 -58.727844509454393 0 -5.612084354893832 0 0 1 1 0 0 forward_v I I I I #
coedge $-1 $112 $113 $114 $115 forward $44 $-1 #
face $-1 $116 $117 $26 $-1 $118 reversed single #
loop $-1 $-1 $119 $46 #
plane-surface $-1 -13.028543159751948 -22.450230958049733 104.53373859966383 0.79863551827123203 0 0.60181501223851219 0.60181501223851219 0 -0.79863551827123203 forward_v I I I I #
coedge $-1 $120 $121 $122 $123 reversed $47 $-1 #
face $-1 $-1 $124 $27 $-1 $125 forward single #
loop $-1 $126 $127 $49 #
cone-surface $-1 57.537218672628399 -25.998631796319373 7.2645694239996867 -0.79863551827123203 0 -0.60181501223851219 0.3009075061192561 0 -0.39931775913561601 1 I I -0.70710678118654746 0.70710678118654746 0.5 forward I I I I #
loop $-1 $-1 $128 $35 #
coedge $-1 $80 $80 $129 $130 reversed $50 $-1 #
face $-1 $-1 $131 $28 $-1 $132 forward single #
loop $-1 $133 $134 $52 #
cone-surface $-1 57.537218672628399 -18.901830119780094 7.2645694239996867 -0.79863551827123203 0 -0.60181501223851219 0.3009075061192561 0 -0.39931775913561601 1 I I -0.70710678118654746 0.70710678118654746 0.5 forward I I I I #
loop $-1 $-1 $135 $36 #
coedge $-1 $85 $85 $136 $137 reversed $53 $-1 #
face $-1 $138 $139 $29 $-1 $140 reversed single #
loop $-1 $-1 $141 $55 #
plane-surface $-1 -13.028543159751948 22.45023095804973 104.53373859966383 0.79863551827123203 0 0.60181501223851219 0.60181501223851219 0 -0.79863551827123203 forward_v I I I I #
coedge $-1 $142 $143 $144 $145 reversed $56 $-1 #
face $-1 $-1 $146 $30 $-1 $147 forward single #
loop $-1 $148 $149 $58 #
cone-surface $-1 57.537218672628399 18.901830119780087 7.2645694239996867 -0.79863551827123203 0 -0.60181501223851219 0.3009075061192561 0 -0.39931775913561601 1 I I -0.70710678118654746 0.70710678118654746 0.5 forward I I I I #
loop $-1 $-1 $150 $38 #
coedge $-1 $94 $94 $151 $152 reversed $59 $-1 #
face $-1 $-1 $153 $31 $-1 $154 forward single #
loop $-1 $155 $156 $61 #
cone-surface $-1 57.537218672628399 25.998631796319366 7.2645694239996867 -0.79863551827123203 0 -0.60181501223851219 0.3009075061192561 0 -0.39931775913561601 1 I I -0.70710678118654746 0.70710678118654746 0.5 forward I I I I #
loop $-1 $-1 $157 $39 #
coedge $-1 $99 $99 $158 $159 reversed $62 $-1 #
face $-1 $160 $161 $24 $-1 $162 reversed single #
loop $-1 $-1 $163 $64 #
plane-surface $-1 0 -37.574820266893312 0 0 1 0 0 0 1 forward_v I I I I #
coedge $-1 $164 $165 $166 $167 forward $65 $-1 #
coedge $-1 $168 $67 $169 $170 forward $41 $-1 #
coedge $-1 $67 $168 $171 $172 forward $41 $-1 #
coedge $-1 $173 $174 $67 $107 reversed $175 $-1 #
edge $-1 $176 -37.574820266893312 $177 37.574820266893312 $106 $178 forward 7 unknown #
face $-1 $179 $180 $25 $-1 $181 reversed single #
loop $-1 $-1 $182 $68 #
plane-surface $-1 -53.474244272670191 0 -3.8827524585113427 -1 0 0 0 0 1 forward_v I I I I #
coedge $-1 $183 $184 $185 $186 forward $69 $-1 #
coedge $-1 $187 $71 $188 $189 reversed $44 $-1 #
coedge $-1 $71 $187 $190 $191 reversed $44 $-1 #
coedge $-1 $182 $192 $71 $115 reversed $109 $-1 #
edge $-1 $193 -37.574820266893312 $194 37.574820266893312 $114 $195 forward 7 unknown #
face $-1 $196 $197 $26 $-1 $198 reversed single #
loop $-1 $-1 $199 $72 #
plane-surface $-1 89.167165409556958 -30.729832914012228 181.54372650565438 0 1 0 0.79863551827123203 0 0.60181501223851219 forward_v I I I I #
coedge $-1 $200 $201 $202 $203 reversed $73 $-1 #
coedge $-1 $121 $75 $204 $205 reversed $47 $-1 #
coedge $-1 $75 $120 $200 $206 reversed $47 $-1 #
coedge $-1 $202 $207 $75 $123 forward $208 $-1 #
edge $-1 $209 -19.397862041460115 $210 -9.9942119968388567 $122 $211 forward 7 unknown #
loop $-1 $-1 $129 $76 #
plane-surface $-1 -13.028543159751948 -22.450230958049733 104.53373859966383 0.79863551827123203 0 0.60181501223851219 0.60181501223851219 0 -0.79863551827123203 forward_v I I I I #
loop $-1 $-1 $212 $49 #
coedge $-1 $127 $127 $128 $213 reversed $77 $-1 #
coedge $-1 $128 $128 $127 $213 forward $79 $-1 #
coedge $-1 $129 $129 $80 $130 forward $124 $-1 #
edge $-1 $214 0 $214 6.2831853071796004 $129 $215 forward 7 unknown #
loop $-1 $-1 $136 $81 #
plane-surface $-1 -13.028543159751948 -22.450230958049733 104.53373859966383 0.79863551827123203 0 0.60181501223851219 0.60181501223851219 0 -0.79863551827123203 forward_v I I I I #
loop $-1 $-1 $216 $52 #
coedge $-1 $134 $134 $135 $217 reversed $82 $-1 #
coedge $-1 $135 $135 $134 $217 forward $84 $-1 #
coedge $-1 $136 $136 $85 $137 forward $131 $-1 #
edge $-1 $218 0 $218 6.2831853071796004 $136 $219 forward 7 unknown #
face $-1 $220 $221 $29 $-1 $222 reversed single #
loop $-1 $-1 $223 $86 #
plane-surface $-1 89.167165409556958 14.170629002087235 181.54372650565438 0 1 0 0.79863551827123203 0 0.60181501223851219 forward_v I I I I #
coedge $-1 $224 $225 $226 $227 reversed $87 $-1 #
coedge $-1 $143 $89 $228 $229 reversed $56 $-1 #
coedge $-1 $89 $142 $224 $230 reversed $56 $-1 #
coedge $-1 $226 $231 $89 $145 forward $232 $-1 #
edge $-1 $233 -19.397862041460115 $234 -9.9942119968388567 $144 $235 forward 7 unknown #
loop $-1 $-1 $151 $90 #
plane-surface $-1 -13.028543159751948 22.45023095804973 104.53373859966383 0.79863551827123203 0 0.60181501223851219 0.60181501223851219 0 -0.79863551827123203 forward_v I I I I #
loop $-1 $-1 $236 $58 #
coedge $-1 $149 $149 $150 $237 reversed $91 $-1 #
coedge $-1 $150 $150 $149 $237 forward $93 $-1 #
coedge $-1 $151 $151 $94 $152 forward $146 $-1 #
edge $-1 $238 0 $238 6.2831853071796004 $151 $239 forward 7 unknown #
loop $-1 $-1 $158 $95 #
plane-surface $-1 -13.028543159751948 22.45023095804973 104.53373859966383 0.79863551827123203 0 0.60181501223851219 0.60181501223851219 0 -0.79863551827123203 forward_v I I I I #
loop $-1 $-1 $240 $61 #
coedge $-1 $156 $156 $157 $241 reversed $96 $-1 #
coedge $-1 $157 $157 $156 $241 forward $98 $-1 #
coedge $-1 $158 $158 $99 $159 forward $153 $-1 #
edge $-1 $242 0 $242 6.2831853071796004 $158 $243 forward 7 unknown #
face $-1 $244 $245 $24 $-1 $246 reversed single #
loop $-1 $-1 $247 $100 #
plane-surface $-1 -63.981444746238594 0 0 1 0 0 0 0 -1 forward_v I I I I #
coedge $-1 $248 $171 $249 $250 forward $101 $-1 #
coedge $-1 $251 $103 $248 $252 forward $65 $-1 #
coedge $-1 $103 $251 $253 $254 forward $65 $-1 #
coedge $-1 $174 $173 $103 $167 reversed $175 $-1 #
edge $-1 $255 -37.574820266893312 $256 37.574820266893312 $166 $257 forward 7 unknown #
coedge $-1 $105 $104 $258 $259 forward $41 $-1 #
coedge $-1 $260 $261 $104 $170 reversed $245 $-1 #
edge $-1 $177 -63.981444746238594 $262 63.981444746238594 $169 $263 forward 7 unknown #
coedge $-1 $163 $264 $105 $172 reversed $101 $-1 #
edge $-1 $265 -63.981444746238594 $176 63.981444746238594 $171 $266 forward 7 unknown #
coedge $-1 $166 $106 $264 $267 forward $175 $-1 #
coedge $-1 $106 $166 $260 $268 reversed $175 $-1 #
loop $-1 $-1 $173 $244 #
vertex $-1 $107 $269 #
vertex $-1 $107 $270 #
straight-curve $-1 63.981444746238594 0 14.817095481203099 0 1 0 I I #
face $-1 $271 $272 $25 $-1 $273 reversed single #
loop $-1 $-1 $274 $108 #
plane-surface $-1 0 -37.574820266893312 0 0 1 0 0 0 1 forward_v I I I I #
coedge $-1 $185 $114 $275 $276 reversed $109 $-1 #
coedge $-1 $277 $111 $274 $278 reversed $69 $-1 #
coedge $-1 $111 $277 $279 $280 reversed $69 $-1 #
coedge $-1 $192 $182 $111 $186 reversed $109 $-1 #
edge $-1 $281 -37.574820266893312 $282 37.574820266893312 $185 $283 forward 7 unknown #
coedge $-1 $113 $112 $284 $285 reversed $44 $-1 #
coedge $-1 $286 $287 $112 $189 forward $288 $-1 #
edge $-1 $289 -34.617522491511394 $194 -24.110322017942995 $188 $290 forward 7 unknown #
coedge $-1 $291 $275 $113 $191 forward $180 $-1 #
edge $-1 $193 24.110322017942995 $292 34.617522491511394 $190 $293 forward 7 unknown #
coedge $-1 $114 $185 $286 $294 reversed $109 $-1 #
vertex $-1 $191 $295 #
vertex $-1 $189 $296 #
straight-curve $-1 -53.474244272670191 0 -2.1534205621288534 0 1 0 I I #
face $-1 $-1 $208 $26 $-1 $297 forward single #
loop $-1 $-1 $298 $116 #
plane-surface $-1 63.981444746238594 0 0 -1 0 0 0 0 1 forward_v I I I I #
coedge $-1 $299 $300 $301 $302 reversed $117 $-1 #
coedge $-1 $303 $119 $121 $206 forward $73 $-1 #
coedge $-1 $119 $303 $299 $304 forward $73 $-1 #
coedge $-1 $301 $122 $119 $203 forward $208 $-1 #
edge $-1 $210 2.9455135230623721 $305 19.504717434987363 $202 $306 forward 7 unknown #
coedge $-1 $307 $308 $120 $205 forward $197 $-1 #
edge $-1 $309 -88.433833222472259 $209 -75.954767771624091 $204 $310 forward 7 unknown #
edge $-1 $210 112.33740682190799 $309 127.96288949247719 $121 $311 forward 7 unknown #
coedge $-1 $122 $301 $307 $312 forward $208 $-1 #
loop $-1 $-1 $301 $196 #
vertex $-1 $205 $313 #
vertex $-1 $123 $314 #
straight-curve $-1 44.583582704778479 -14.170629002087239 14.817095481203097 -1 0 0 I I #
coedge $-1 $212 $212 $-1 $315 reversed $126 $-1 #
edge $-1 $316 0 $316 6.2831853071796004 $127 $317 forward 7 unknown #
vertex $-1 $130 $318 #
ellipse-curve $-1 59.279619723927972 -25.998631796319373 8.5775627557790113 0.79863551827123203 0 0.60181501223851219 0.60181501223851219 0 -0.79863551827123203 1 I I #
coedge $-1 $216 $216 $-1 $319 reversed $133 $-1 #
edge $-1 $320 0 $320 6.2831853071796004 $134 $321 forward 7 unknown #
vertex $-1 $137 $322 #
ellipse-curve $-1 59.279619723927972 -18.901830119780094 8.5775627557790113 0.79863551827123203 0 0.60181501223851219 0.60181501223851219 0 -0.79863551827123203 1 I I #
face $-1 $-1 $232 $29 $-1 $323 forward single #
loop $-1 $-1 $324 $138 #
plane-surface $-1 63.981444746238594 0 0 -1 0 0 0 0 1 forward_v I I I I #
coedge $-1 $325 $326 $327 $328 reversed $139 $-1 #
coedge $-1 $329 $141 $143 $230 forward $87 $-1 #
coedge $-1 $141 $329 $325 $330 forward $87 $-1 #
coedge $-1 $327 $144 $141 $227 forward $232 $-1 #
edge $-1 $234 -19.504717434987359 $331 -2.9455135230623704 $226 $332 forward 7 unknown #
coedge $-1 $333 $334 $142 $229 forward $221 $-1 #
edge $-1 $335 -88.433833222472259 $233 -75.954767771624091 $228 $336 forward 7 unknown #
edge $-1 $234 112.33740682190799 $335 127.96288949247719 $143 $337 forward 7 unknown #
coedge $-1 $144 $327 $333 $338 forward $232 $-1 #
loop $-1 $-1 $327 $220 #
vertex $-1 $229 $339 #
vertex $-1 $145 $340 #
straight-curve $-1 44.583582704778479 30.729832914012224 14.817095481203097 -1 0 0 I I #
coedge $-1 $236 $236 $-1 $341 reversed $148 $-1 #
edge $-1 $342 0 $342 6.2831853071796004 $149 $343 forward 7 unknown #
vertex $-1 $152 $344 #
ellipse-curve $-1 59.279619723927972 18.901830119780087 8.5775627557790113 0.79863551827123203 0 0.60181501223851219 0.60181501223851219 0 -0.79863551827123203 1 I I #
coedge $-1 $240 $240 $-1 $345 reversed $155 $-1 #
edge $-1 $346 0 $346 6.2831853071796004 $156 $347 forward 7 unknown #
vertex $-1 $159 $348 #
ellipse-curve $-1 59.279619723927972 25.998631796319366 8.5775627557790113 0.79863551827123203 0 0.60181501223851219 0.60181501223851219 0 -0.79863551827123203 1 I I #
face $-1 $-1 $175 $24 $-1 $349 reversed single #
loop $-1 $-1 $260 $160 #
plane-surface $-1 0 37.574820266893312 0 0 -1 0 0 0 -1 forward_v I I I I #
coedge $-1 $350 $258 $261 $351 forward $161 $-1 #
coedge $-1 $264 $163 $164 $252 reversed $101 $-1 #
coedge $-1 $258 $350 $163 $250 reversed $161 $-1 #
edge $-1 $265 -14.817095481203099 $352 14.817095481203099 $249 $353 forward 7 unknown #
coedge $-1 $165 $164 $350 $354 forward $65 $-1 #
edge $-1 $256 -63.981444746238594 $352 63.981444746238594 $248 $355 forward 7 unknown #
coedge $-1 $261 $260 $165 $254 reversed $245 $-1 #
edge $-1 $356 -63.981444746238594 $255 63.981444746238594 $253 $357 forward 7 unknown #
vertex $-1 $167 $358 #
vertex $-1 $267 $359 #
straight-curve $-1 63.981444746238594 0 -14.817095481203099 0 -1 0 I I #
coedge $-1 $247 $249 $168 $259 reversed $161 $-1 #
edge $-1 $262 -37.574820266893312 $265 37.574820266893312 $258 $360 forward 7 unknown #
coedge $-1 $253 $169 $174 $268 forward $245 $-1 #
coedge $-1 $169 $253 $247 $351 reversed $245 $-1 #
vertex $-1 $170 $361 #
straight-curve $-1 0 37.574820266893312 14.817095481203099 -1 0 0 I I #
coedge $-1 $171 $248 $173 $267 reversed $101 $-1 #
vertex $-1 $259 $362 #
straight-curve $-1 0 -37.574820266893312 14.817095481203099 1 0 0 I I #
edge $-1 $176 -14.817095481203099 $256 14.817095481203099 $173 $363 forward 7 unknown #
edge $-1 $177 -14.817095481203099 $255 14.817095481203099 $174 $364 forward 7 unknown #
point $-1 63.981444746238594 -37.574820266893312 14.817095481203099 #
point $-1 63.981444746238594 37.574820266893312 14.817095481203099 #
face $-1 $-1 $288 $25 $-1 $365 reversed single #
loop $-1 $-1 $366 $179 #
plane-surface $-1 -63.981444746238594 0 0 1 0 0 0 0 -1 forward_v I I I I #
coedge $-1 $275 $291 $183 $278 forward $180 $-1 #
coedge $-1 $190 $274 $182 $276 forward $180 $-1 #
edge $-1 $282 -3.6707081256381606 $193 -0.21204433287318203 $275 $367 forward 7 unknown #
coedge $-1 $184 $183 $366 $368 reversed $69 $-1 #
edge $-1 $369 -34.617522491511394 $282 -24.110322017942995 $274 $370 forward 7 unknown #
coedge $-1 $287 $286 $184 $280 forward $288 $-1 #
edge $-1 $281 24.110322017942995 $371 34.617522491511394 $279 $372 forward 7 unknown #
vertex $-1 $280 $373 #
vertex $-1 $278 $374 #
straight-curve $-1 -53.474244272670191 0 -5.612084354893832 0 -1 0 I I #
coedge $-1 $375 $376 $187 $285 forward $272 $-1 #
edge $-1 $292 -37.574820266893312 $289 37.574820266893312 $284 $377 forward 7 unknown #
coedge $-1 $279 $188 $192 $294 forward $288 $-1 #
coedge $-1 $188 $279 $375 $378 reversed $288 $-1 #
loop $-1 $-1 $279 $271 #
vertex $-1 $378 $379 #
straight-curve $-1 -29.363922254727196 37.574820266893312 -2.1534205621288534 1 0 0 I I #
coedge $-1 $274 $190 $376 $380 forward $180 $-1 #
vertex $-1 $380 $381 #
straight-curve $-1 -29.363922254727196 -37.574820266893312 -2.1534205621288534 -1 0 0 I I #
edge $-1 $194 0.21204433287318203 $281 3.6707081256381606 $286 $382 forward 7 unknown #
point $-1 -53.474244272670191 -37.574820266893312 -2.1534205621288534 #
point $-1 -53.474244272670191 37.574820266893312 -2.1534205621288534 #
plane-surface $-1 0 0 14.817095481203099 0 0 1 1 0 0 forward_v I I I I #
coedge $-1 $308 $307 $300 $383 forward $197 $-1 #
coedge $-1 $300 $199 $201 $304 reversed $117 $-1 #
coedge $-1 $199 $299 $298 $383 reversed $117 $-1 #
coedge $-1 $207 $202 $199 $302 forward $208 $-1 #
edge $-1 $305 9.9942119968388567 $384 19.397862041460115 $301 $385 forward 7 unknown #
coedge $-1 $201 $200 $308 $386 reversed $73 $-1 #
edge $-1 $387 -127.96288949247719 $305 -112.33740682190799 $299 $388 forward 7 unknown #
vertex $-1 $203 $389 #
straight-curve $-1 54.577794701617336 -11.225115479024867 14.817095481203111 0 -1 0 I I #
coedge $-1 $298 $204 $207 $312 reversed $197 $-1 #
coedge $-1 $204 $298 $303 $386 forward $197 $-1 #
vertex $-1 $205 $390 #
straight-curve $-1 63.981444746238594 -14.170629002087239 90.771863252827188 0 0 1 I I #
straight-curve $-1 -13.028543159751948 -14.170629002087239 104.53373859966383 0.60181501223851219 0 -0.79863551827123203 I I #
edge $-1 $384 -30.729832914012228 $209 -14.170629002087239 $307 $391 forward 7 unknown #
point $-1 63.981444746238594 -14.170629002087239 14.817095481203099 #
point $-1 54.577794701617336 -14.170629002087239 14.817095481203097 #
edge $-1 $392 1 $392 0 $212 $-1 forward 7 unknown #
vertex $-1 $213 $393 #
ellipse-curve $-1 57.936536431764011 -25.998631796319373 7.5654769301189431 0.79863551827123203 0 0.60181501223851219 0.60181501223851219 0 -0.79863551827123203 1 I I #
point $-1 59.881434736166476 -25.998631796319373 7.7789272375077712 #
edge $-1 $394 1 $394 0 $216 $-1 forward 7 unknown #
vertex $-1 $217 $395 #
ellipse-curve $-1 57.936536431764011 -18.901830119780094 7.5654769301189431 0.79863551827123203 0 0.60181501223851219 0.60181501223851219 0 -0.79863551827123203 1 I I #
point $-1 59.881434736166476 -18.901830119780094 7.7789272375077712 #
plane-surface $-1 0 0 14.817095481203099 0 0 1 1 0 0 forward_v I I I I #
coedge $-1 $334 $333 $326 $396 forward $221 $-1 #
coedge $-1 $326 $223 $225 $330 reversed $139 $-1 #
coedge $-1 $223 $325 $324 $396 reversed $139 $-1 #
coedge $-1 $231 $226 $223 $328 forward $232 $-1 #
edge $-1 $331 9.9942119968388567 $397 19.397862041460115 $327 $398 forward 7 unknown #
coedge $-1 $225 $224 $334 $399 reversed $87 $-1 #
edge $-1 $400 -127.96288949247719 $331 -112.33740682190799 $325 $401 forward 7 unknown #
vertex $-1 $227 $402 #
straight-curve $-1 54.577794701617336 11.225115479024865 14.817095481203111 0 -1 0 I I #
coedge $-1 $324 $228 $231 $338 reversed $221 $-1 #
coedge $-1 $228 $324 $329 $399 forward $221 $-1 #
vertex $-1 $229 $403 #
straight-curve $-1 63.981444746238594 30.729832914012224 90.771863252827188 0 0 1 I I #
straight-curve $-1 -13.028543159751948 30.729832914012224 104.53373859966383 0.60181501223851219 0 -0.79863551827123203 I I #
edge $-1 $397 14.170629002087235 $233 30.729832914012224 $333 $404 forward 7 unknown #
point $-1 63.981444746238594 30.729832914012224 14.817095481203099 #
point $-1 54.577794701617336 30.729832914012224 14.817095481203097 #
edge $-1 $405 1 $405 0 $236 $-1 forward 7 unknown #
vertex $-1 $237 $406 #
ellipse-curve $-1 57.936536431764011 18.901830119780087 7.5654769301189431 0.79863551827123203 0 0.60181501223851219 0.60181501223851219 0 -0.79863551827123203 1 I I #
point $-1 59.881434736166476 18.901830119780087 7.7789272375077712 #
edge $-1 $407 1 $407 0 $240 $-1 forward 7 unknown #
vertex $-1 $241 $408 #
ellipse-curve $-1 57.936536431764011 25.998631796319366 7.5654769301189431 0.79863551827123203 0 0.60181501223851219 0.60181501223851219 0 -0.79863551827123203 1 I I #
point $-1 59.881434736166476 25.998631796319366 7.7789272375077712 #
plane-surface $-1 63.981444746238594 0 0 -1 0 0 0 0 1 forward_v I I I I #
coedge $-1 $249 $247 $251 $354 reversed $161 $-1 #
edge $-1 $262 -14.817095481203099 $356 14.817095481203099 $261 $409 forward 7 unknown #
vertex $-1 $354 $410 #
straight-curve $-1 -63.981444746238594 -37.574820266893312 0 0 0 -1 I I #
edge $-1 $352 -37.574820266893312 $356 37.574820266893312 $350 $411 forward 7 unknown #
straight-curve $-1 0 -37.574820266893312 -14.817095481203099 -1 0 0 I I #
vertex $-1 $254 $412 #
straight-curve $-1 0 37.574820266893312 -14.817095481203099 1 0 0 I I #
point $-1 63.981444746238594 37.574820266893312 -14.817095481203099 #
point $-1 63.981444746238594 -37.574820266893312 -14.817095481203099 #
straight-curve $-1 -63.981444746238594 0 14.817095481203099 0 -1 0 I I #
point $-1 -63.981444746238594 37.574820266893312 14.817095481203099 #
point $-1 -63.981444746238594 -37.574820266893312 14.817095481203099 #
straight-curve $-1 63.981444746238594 -37.574820266893312 0 0 0 -1 I I #
straight-curve $-1 63.981444746238594 37.574820266893312 0 0 0 -1 I I #
plane-surface $-1 0 37.574820266893312 0 0 -1 0 0 0 -1 forward_v I I I I #
coedge $-1 $376 $375 $277 $368 forward $272 $-1 #
straight-curve $-1 -53.474244272670191 -37.574820266893312 -1.9413762292556713 0 0 1 I I #
edge $-1 $371 -37.574820266893312 $369 37.574820266893312 $366 $413 forward 7 unknown #
vertex $-1 $278 $414 #
straight-curve $-1 -29.363922254727196 -37.574820266893312 -5.612084354893832 1 0 0 I I #
vertex $-1 $280 $415 #
straight-curve $-1 -29.363922254727196 37.574820266893312 -5.612084354893832 -1 0 0 I I #
point $-1 -53.474244272670191 37.574820266893312 -5.612084354893832 #
point $-1 -53.474244272670191 -37.574820266893312 -5.612084354893832 #
coedge $-1 $366 $284 $287 $378 forward $272 $-1 #
coedge $-1 $284 $366 $291 $380 reversed $272 $-1 #
straight-curve $-1 -63.981444746238594 0 -2.1534205621288534 0 1 0 I I #
edge $-1 $289 2.1534205621288534 $371 5.612084354893832 $287 $416 forward 7 unknown #
point $-1 -63.981444746238594 37.574820266893312 -2.1534205621288534 #
edge $-1 $292 2.1534205621288534 $369 5.612084354893832 $376 $417 forward 7 unknown #
point $-1 -63.981444746238594 -37.574820266893312 -2.1534205621288534 #
straight-curve $-1 -53.474244272670191 37.574820266893312 -1.9413762292556713 0 0 -1 I I #
edge $-1 $384 75.954767771624091 $387 88.433833222472259 $298 $418 forward 7 unknown #
vertex $-1 $312 $419 #
straight-curve $-1 44.583582704778479 -30.729832914012228 14.817095481203097 1 0 0 I I #
edge $-1 $387 -19.504717434987363 $309 -2.9455135230623721 $308 $420 forward 7 unknown #
vertex $-1 $386 $421 #
straight-curve $-1 -13.028543159751948 -30.729832914012228 104.53373859966383 -0.60181501223851219 0 0.79863551827123203 I I #
point $-1 54.577794701617336 -30.729832914012228 14.817095481203097 #
point $-1 63.981444746238594 -14.170629002087239 2.3380300303549291 #
straight-curve $-1 63.981444746238594 0 14.817095481203099 0 1 0 I I #
vertex $-1 $315 $422 #
point $-1 58.538351444002529 -25.998631796319373 6.7668414118477109 #
vertex $-1 $319 $423 #
point $-1 58.538351444002529 -18.901830119780094 6.7668414118477109 #
edge $-1 $397 75.954767771624091 $400 88.433833222472259 $324 $424 forward 7 unknown #
vertex $-1 $338 $425 #
straight-curve $-1 44.583582704778479 14.170629002087235 14.817095481203097 1 0 0 I I #
edge $-1 $400 2.9455135230623704 $335 19.504717434987359 $334 $426 forward 7 unknown #
vertex $-1 $399 $427 #
straight-curve $-1 -13.028543159751948 14.170629002087235 104.53373859966383 -0.60181501223851219 0 0.79863551827123203 I I #
point $-1 54.577794701617336 14.170629002087235 14.817095481203097 #
point $-1 63.981444746238594 30.729832914012224 2.3380300303549291 #
straight-curve $-1 63.981444746238594 0 14.817095481203099 0 1 0 I I #
vertex $-1 $341 $428 #
point $-1 58.538351444002529 18.901830119780087 6.7668414118477109 #
vertex $-1 $345 $429 #
point $-1 58.538351444002529 25.998631796319366 6.7668414118477109 #
straight-curve $-1 -63.981444746238594 37.574820266893312 0 0 0 -1 I I #
point $-1 -63.981444746238594 -37.574820266893312 -14.817095481203099 #
straight-curve $-1 -63.981444746238594 0 -14.817095481203099 0 1 0 I I #
point $-1 -63.981444746238594 37.574820266893312 -14.817095481203099 #
straight-curve $-1 -63.981444746238594 0 -5.612084354893832 0 -1 0 I I #
point $-1 -63.981444746238594 -37.574820266893312 -5.612084354893832 #
point $-1 -63.981444746238594 37.574820266893312 -5.612084354893832 #
straight-curve $-1 -63.981444746238594 37.574820266893312 0 0 0 -1 I I #
straight-curve $-1 -63.981444746238594 -37.574820266893312 0 0 0 -1 I I #
straight-curve $-1 63.981444746238594 -30.729832914012228 90.771863252827188 0 0 -1 I I #
point $-1 63.981444746238594 -30.729832914012228 14.817095481203099 #
straight-curve $-1 63.981444746238594 -11.225115479024867 2.338030030354922 0 1 0 I I #
point $-1 63.981444746238594 -30.729832914012228 2.3380300303549291 #
point $-1 57.137900913492786 -25.998631796319373 6.9636619178804304 #
point $-1 57.137900913492786 -18.901830119780094 6.9636619178804304 #
straight-curve $-1 63.981444746238594 14.170629002087235 90.771863252827188 0 0 -1 I I #
point $-1 63.981444746238594 14.170629002087235 14.817095481203099 #
straight-curve $-1 63.981444746238594 11.225115479024865 2.338030030354922 0 1 0 I I #
point $-1 63.981444746238594 14.170629002087235 2.3380300303549291 #
point $-1 57.137900913492786 18.901830119780087 6.9636619178804304 #
point $-1 57.137900913492786 25.998631796319366 6.9636619178804304 #
End-of-ACIS-data 