500 0 9 0           
7 Unknown 11 ACIS 5.0 NT 24 Thu Mar 25 17:48:23 1999 
-1 9.9999999999999995e-007 1e-010 
body $-1 $9 $-1 $10 #
body $-1 $11 $-1 $12 #
body $-1 $13 $-1 $14 #
body $-1 $15 $-1 $16 #
body $-1 $17 $-1 $18 #
body $-1 $19 $-1 $20 #
body $-1 $21 $-1 $22 #
body $-1 $23 $-1 $24 #
body $-1 $25 $-1 $26 #
lump $-1 $-1 $27 $0 #
transform $-1 1 0 0 0 1 0 0 0 1 64.857936338389237 39.825270873612453 15.161970552511388 1 rotate no_reflect no_shear #
lump $-1 $-1 $28 $1 #
transform $-1 1 0 0 0 1 0 0 0 1 64.857936338389237 39.825270873612453 15.161970552511388 1 rotate no_reflect no_shear #
lump $-1 $-1 $29 $2 #
transform $-1 1 0 0 0 1 0 0 0 1 64.857936338389237 39.825270873612453 15.161970552511388 1 rotate no_reflect no_shear #
lump $-1 $-1 $30 $3 #
transform $-1 1 0 0 0 1 0 0 0 1 64.857936338389237 39.825270873612453 15.161970552511388 1 rotate no_reflect no_shear #
lump $-1 $-1 $31 $4 #
transform $-1 1 0 0 0 1 0 0 0 1 64.857936338389237 39.825270873612453 15.161970552511388 1 rotate no_reflect no_shear #
lump $-1 $-1 $32 $5 #
transform $-1 1 0 0 0 1 0 0 0 1 64.857936338389237 39.825270873612453 15.161970552511388 1 rotate no_reflect no_shear #
lump $-1 $-1 $33 $6 #
transform $-1 1 0 0 0 1 0 0 0 1 64.857936338389237 39.825270873612453 15.161970552511388 1 rotate no_reflect no_shear #
lump $-1 $-1 $34 $7 #
transform $-1 1 0 0 0 1 0 0 0 1 64.857936338389237 39.825270873612453 15.161970552511388 1 rotate no_reflect no_shear #
lump $-1 $-1 $35 $8 #
transform $-1 1 0 0 0 1 0 0 0 1 64.857936338389237 39.825270873612453 15.161970552511388 1 rotate no_reflect no_shear #
shell $-1 $-1 $-1 $36 $-1 $9 #
shell $-1 $-1 $-1 $37 $-1 $11 #
shell $-1 $-1 $-1 $38 $-1 $13 #
shell $-1 $-1 $-1 $39 $-1 $15 #
shell $-1 $-1 $-1 $40 $-1 $17 #
shell $-1 $-1 $-1 $41 $-1 $19 #
shell $-1 $-1 $-1 $42 $-1 $21 #
shell $-1 $-1 $-1 $43 $-1 $23 #
shell $-1 $-1 $-1 $44 $-1 $25 #
face $-1 $45 $46 $27 $-1 $47 forward single #
face $-1 $48 $49 $28 $-1 $50 forward single #
face $-1 $51 $52 $29 $-1 $53 reversed single #
face $-1 $54 $55 $30 $-1 $56 forward single #
face $-1 $57 $58 $31 $-1 $59 forward single #
face $-1 $60 $61 $32 $-1 $62 reversed single #
face $-1 $63 $64 $33 $-1 $65 forward single #
face $-1 $66 $67 $34 $-1 $68 forward single #
face $-1 $69 $70 $35 $-1 $71 forward single #
face $-1 $72 $73 $27 $-1 $74 reversed single #
loop $-1 $-1 $75 $36 #
plane-surface $-1 0 0 15.161970552511388 0 0 1 1 0 0 forward_v I I I I #
face $-1 $76 $77 $28 $-1 $78 reversed single #
loop $-1 $-1 $79 $37 #
plane-surface $-1 -57.305653629758666 0 -10.704396556705756 0 0 1 1 0 0 forward_v I I I I #
face $-1 $80 $81 $29 $-1 $82 reversed single #
loop $-1 $-1 $83 $38 #
plane-surface $-1 -49.753370921128081 -117.89023278006617 113.60008855784285 1 0 0 0 0.6018150307709319 -0.79863550430605224 forward_v I I I I #
face $-1 $84 $85 $30 $-1 $86 forward single #
loop $-1 $87 $88 $39 #
cone-surface $-1 -44.584971549338128 -35.253741718266589 11.057930553889516 0 0.6018150307709319 -0.79863550430605224 1 0 0 1 I I 0 1 1 forward I I I I #
face $-1 $89 $90 $31 $-1 $91 forward single #
loop $-1 $92 $93 $40 #
cone-surface $-1 -36.832372491653189 -35.253741718266589 11.057930553889516 0 0.6018150307709319 -0.79863550430605224 1 0 0 1 I I 0 1 1 forward I I I I #
face $-1 $94 $95 $32 $-1 $96 reversed single #
loop $-1 $-1 $97 $41 #
plane-surface $-1 -25.561871474982595 105.23336330737646 145.98977457292659 1 0 0 0 -0.83867057594974714 -0.54463902268945019 forward_v I I I I #
face $-1 $98 $99 $33 $-1 $100 forward single #
loop $-1 $101 $102 $42 #
cone-surface $-1 -19.078901610386353 36.103475940303881 10.830621157873136 0 -0.83867057594974714 -0.54463902268945019 1.5 0 0 1 I I 0 1 1.5 forward I I I I #
face $-1 $103 $104 $34 $-1 $105 forward single #
loop $-1 $106 $107 $43 #
cone-surface $-1 -9.3544468134919896 36.103475940303881 10.830621157873136 0 -0.83867057594974714 -0.54463902268945019 1.5 0 0 1 I I 0 1 1.5 forward I I I I #
face $-1 $108 $109 $35 $-1 $110 forward single #
loop $-1 $111 $112 $44 #
cone-surface $-1 0.37000798340237395 36.103475940303881 10.830621157873136 0 -0.83867057594974714 -0.54463902268945019 1.5 0 0 1 I I 0 1 1.5 forward I I I I #
face $-1 $113 $114 $27 $-1 $115 reversed single #
loop $-1 $-1 $116 $45 #
plane-surface $-1 0 0 -15.161970552511388 0 0 1 1 0 0 forward_v I I I I #
coedge $-1 $117 $118 $119 $120 forward $46 $-1 #
face $-1 $121 $122 $28 $-1 $123 reversed single #
loop $-1 $-1 $124 $48 #
plane-surface $-1 -49.753370921128095 0 -12.933183554608572 -1 0 0 0 0 1 forward_v I I I I #
coedge $-1 $125 $126 $127 $128 forward $49 $-1 #
face $-1 $129 $130 $29 $-1 $131 reversed single #
loop $-1 $-1 $132 $51 #
plane-surface $-1 -40.708672020495655 -39.825270873612453 10.004387166124218 0 -0.6018150307709319 0.79863550430605224 1 0 0 forward_v I I I I #
coedge $-1 $133 $134 $135 $136 reversed $52 $-1 #
face $-1 $-1 $137 $30 $-1 $138 forward single #
loop $-1 $139 $140 $54 #
cone-surface $-1 -44.584971549338128 -33.803477142100029 9.1333644963082143 0 0.6018150307709319 -0.79863550430605224 0.5 0 0 1 I I -0.70710678118654879 0.70710678118654635 0.5 forward I I I I #
loop $-1 $-1 $141 $39 #
coedge $-1 $88 $88 $142 $143 reversed $55 $-1 #
face $-1 $-1 $144 $31 $-1 $145 forward single #
loop $-1 $146 $147 $57 #
cone-surface $-1 -36.832372491653189 -33.803477142100029 9.1333644963082143 0 0.6018150307709319 -0.79863550430605224 0.5 0 0 1 I I -0.70710678118654879 0.70710678118654635 0.5 forward I I I I #
loop $-1 $-1 $148 $40 #
coedge $-1 $93 $93 $149 $150 reversed $58 $-1 #
face $-1 $151 $152 $32 $-1 $153 reversed single #
loop $-1 $-1 $154 $60 #
plane-surface $-1 -9.3544468134919967 -3.5555223402814136 75.341448450936809 0 0.83867057594974714 0.54463902268945019 1 0 0 forward_v I I I I #
coedge $-1 $155 $156 $157 $158 reversed $61 $-1 #
face $-1 $-1 $159 $33 $-1 $160 forward single #
loop $-1 $161 $162 $63 #
cone-surface $-1 -19.078901610386353 33.902570359741887 9.4013364079323374 0 -0.83867057594974714 -0.54463902268945019 0.75 0 0 1 I I -0.70710678118654757 0.70710678118654757 0.75 forward I I I I #
loop $-1 $-1 $163 $42 #
coedge $-1 $102 $102 $164 $165 reversed $64 $-1 #
face $-1 $-1 $166 $34 $-1 $167 forward single #
loop $-1 $168 $169 $66 #
cone-surface $-1 -9.3544468134919896 33.902570359741887 9.4013364079323374 0 -0.83867057594974714 -0.54463902268945019 0.75 0 0 1 I I -0.70710678118654757 0.70710678118654757 0.75 forward I I I I #
loop $-1 $-1 $170 $43 #
coedge $-1 $107 $107 $171 $172 reversed $67 $-1 #
face $-1 $-1 $173 $35 $-1 $174 forward single #
loop $-1 $175 $176 $69 #
cone-surface $-1 0.37000798340237395 33.902570359741887 9.4013364079323374 0 -0.83867057594974714 -0.54463902268945019 0.75 0 0 1 I I -0.70710678118654757 0.70710678118654757 0.75 forward I I I I #
loop $-1 $-1 $177 $44 #
coedge $-1 $112 $112 $178 $179 reversed $70 $-1 #
face $-1 $180 $181 $27 $-1 $182 reversed single #
loop $-1 $-1 $183 $72 #
plane-surface $-1 0 -39.825270873612453 0 0 1 0 0 0 1 forward_v I I I I #
coedge $-1 $184 $185 $186 $187 forward $73 $-1 #
coedge $-1 $188 $75 $189 $190 forward $46 $-1 #
coedge $-1 $75 $188 $191 $192 forward $46 $-1 #
coedge $-1 $193 $194 $75 $120 reversed $195 $-1 #
edge $-1 $196 -39.825270873612453 $197 39.825270873612453 $119 $198 forward 7 unknown #
face $-1 $199 $200 $28 $-1 $201 reversed single #
loop $-1 $-1 $202 $76 #
plane-surface $-1 0 0 -15.161970552511388 0 0 1 1 0 0 forward_v I I I I #
coedge $-1 $203 $127 $204 $205 reversed $77 $-1 #
coedge $-1 $206 $79 $207 $208 reversed $49 $-1 #
coedge $-1 $79 $206 $209 $210 reversed $49 $-1 #
coedge $-1 $124 $211 $79 $128 reversed $77 $-1 #
edge $-1 $212 -39.825270873612453 $213 39.825270873612453 $127 $214 forward 7 unknown #
face $-1 $215 $216 $29 $-1 $217 forward single #
loop $-1 $-1 $218 $80 #
plane-surface $-1 -31.663973119863225 -117.89023278006617 113.60008855784285 -1 0 0 0 -0.6018150307709319 0.79863550430605224 forward_v I I I I #
coedge $-1 $219 $220 $221 $222 reversed $81 $-1 #
coedge $-1 $134 $83 $223 $224 reversed $52 $-1 #
coedge $-1 $83 $133 $219 $225 reversed $52 $-1 #
coedge $-1 $221 $226 $83 $136 forward $227 $-1 #
edge $-1 $228 41.638073726410042 $229 46.795657112797208 $135 $230 forward 7 unknown #
loop $-1 $-1 $142 $84 #
plane-surface $-1 -40.708672020495655 -39.825270873612453 10.004387166124218 0 -0.6018150307709319 0.79863550430605224 1 0 0 forward_v I I I I #
loop $-1 $-1 $231 $54 #
coedge $-1 $140 $140 $141 $232 reversed $85 $-1 #
coedge $-1 $141 $141 $140 $232 forward $87 $-1 #
coedge $-1 $142 $142 $88 $143 forward $137 $-1 #
edge $-1 $233 1.398493577192428e-015 $233 6.2831853071796022 $142 $234 forward 7 unknown #
loop $-1 $-1 $149 $89 #
plane-surface $-1 -40.708672020495655 -39.825270873612453 10.004387166124218 0 -0.6018150307709319 0.79863550430605224 1 0 0 forward_v I I I I #
loop $-1 $-1 $235 $57 #
coedge $-1 $147 $147 $148 $236 reversed $90 $-1 #
coedge $-1 $148 $148 $147 $236 forward $92 $-1 #
coedge $-1 $149 $149 $93 $150 forward $144 $-1 #
edge $-1 $237 1.398493577192428e-015 $237 6.2831853071796022 $149 $238 forward 7 unknown #
face $-1 $239 $240 $32 $-1 $241 reversed single #
loop $-1 $-1 $242 $94 #
plane-surface $-1 6.8529778479986021 105.23336330737646 145.98977457292659 -1 0 0 0 0.83867057594974714 0.54463902268945019 forward_v I I I I #
coedge $-1 $243 $244 $245 $246 reversed $95 $-1 #
coedge $-1 $156 $97 $247 $248 reversed $61 $-1 #
coedge $-1 $97 $155 $243 $249 reversed $61 $-1 #
coedge $-1 $245 $250 $97 $158 forward $251 $-1 #
edge $-1 $252 12.791410780075779 $253 17.091195349493582 $157 $254 forward 7 unknown #
loop $-1 $-1 $164 $98 #
plane-surface $-1 -9.3544468134919967 -3.5555223402814136 75.341448450936809 0 0.83867057594974714 0.54463902268945019 1 0 0 forward_v I I I I #
loop $-1 $-1 $255 $63 #
coedge $-1 $162 $162 $163 $256 reversed $99 $-1 #
coedge $-1 $163 $163 $162 $256 forward $101 $-1 #
coedge $-1 $164 $164 $102 $165 forward $159 $-1 #
edge $-1 $257 -2.7856264567115064e-015 $257 6.2831853071795978 $164 $258 forward 7 unknown #
loop $-1 $-1 $171 $103 #
plane-surface $-1 -9.3544468134919967 -3.5555223402814136 75.341448450936809 0 0.83867057594974714 0.54463902268945019 1 0 0 forward_v I I I I #
loop $-1 $-1 $259 $66 #
coedge $-1 $169 $169 $170 $260 reversed $104 $-1 #
coedge $-1 $170 $170 $169 $260 forward $106 $-1 #
coedge $-1 $171 $171 $107 $172 forward $166 $-1 #
edge $-1 $261 -2.7856264567115064e-015 $261 6.2831853071795978 $171 $262 forward 7 unknown #
loop $-1 $-1 $178 $108 #
plane-surface $-1 -9.3544468134919967 -3.5555223402814136 75.341448450936809 0 0.83867057594974714 0.54463902268945019 1 0 0 forward_v I I I I #
loop $-1 $-1 $263 $69 #
coedge $-1 $176 $176 $177 $264 reversed $109 $-1 #
coedge $-1 $177 $177 $176 $264 forward $111 $-1 #
coedge $-1 $178 $178 $112 $179 forward $173 $-1 #
edge $-1 $265 -2.7856264567115064e-015 $265 6.2831853071795978 $178 $266 forward 7 unknown #
face $-1 $267 $268 $27 $-1 $269 reversed single #
loop $-1 $-1 $270 $113 #
plane-surface $-1 -64.857936338389237 0 0 1 0 0 0 0 -1 forward_v I I I I #
coedge $-1 $271 $191 $272 $273 forward $114 $-1 #
coedge $-1 $274 $116 $271 $275 forward $73 $-1 #
coedge $-1 $116 $274 $276 $277 forward $73 $-1 #
coedge $-1 $194 $193 $116 $187 reversed $195 $-1 #
edge $-1 $278 -39.825270873612453 $279 39.825270873612453 $186 $280 forward 7 unknown #
coedge $-1 $118 $117 $281 $282 forward $46 $-1 #
coedge $-1 $283 $284 $117 $190 reversed $268 $-1 #
edge $-1 $197 -64.857936338389237 $285 64.857936338389237 $189 $286 forward 7 unknown #
coedge $-1 $183 $287 $118 $192 reversed $114 $-1 #
edge $-1 $288 -64.857936338389237 $196 64.857936338389237 $191 $289 forward 7 unknown #
coedge $-1 $186 $119 $287 $290 forward $195 $-1 #
coedge $-1 $119 $186 $283 $291 reversed $195 $-1 #
loop $-1 $-1 $193 $267 #
vertex $-1 $120 $292 #
vertex $-1 $120 $293 #
straight-curve $-1 64.857936338389237 0 15.161970552511388 0 1 0 I I #
face $-1 $294 $295 $28 $-1 $296 reversed single #
loop $-1 $-1 $204 $121 #
plane-surface $-1 0 -39.825270873612453 0 0 1 0 0 0 1 forward_v I I I I #
coedge $-1 $297 $298 $203 $299 forward $122 $-1 #
coedge $-1 $211 $124 $202 $299 reversed $77 $-1 #
coedge $-1 $209 $300 $124 $205 forward $200 $-1 #
edge $-1 $301 -8.6953787752071019 $212 -4.2378047794014702 $204 $302 forward 7 unknown #
coedge $-1 $126 $125 $303 $304 reversed $49 $-1 #
coedge $-1 $305 $306 $125 $208 forward $307 $-1 #
edge $-1 $308 -36.205109523509904 $213 -21.100544106248762 $207 $309 forward 7 unknown #
coedge $-1 $310 $204 $126 $210 forward $200 $-1 #
edge $-1 $212 21.100544106248762 $311 36.205109523509904 $209 $312 forward 7 unknown #
coedge $-1 $127 $203 $305 $313 reversed $77 $-1 #
vertex $-1 $210 $314 #
vertex $-1 $208 $315 #
straight-curve $-1 -49.753370921128095 0 -10.704396556705756 0 1 0 I I #
face $-1 $-1 $227 $29 $-1 $316 reversed single #
loop $-1 $-1 $317 $129 #
plane-surface $-1 0 0 15.161970552511388 0 0 1 1 0 0 forward_v I I I I #
coedge $-1 $318 $319 $320 $321 reversed $130 $-1 #
coedge $-1 $322 $132 $134 $225 forward $81 $-1 #
coedge $-1 $132 $322 $318 $323 forward $81 $-1 #
coedge $-1 $320 $135 $132 $222 forward $227 $-1 #
edge $-1 $229 -29.399034910880253 $324 -11.309637109615398 $221 $325 forward 7 unknown #
coedge $-1 $326 $327 $133 $224 forward $216 $-1 #
edge $-1 $328 -25.964189705550154 $228 -19.119845516420632 $223 $329 forward 7 unknown #
edge $-1 $229 0 $328 8.5700474775118956 $134 $330 forward 7 unknown #
coedge $-1 $135 $320 $326 $331 reversed $227 $-1 #
loop $-1 $-1 $320 $215 #
vertex $-1 $331 $332 #
vertex $-1 $136 $333 #
straight-curve $-1 -49.753370921128081 -39.825270873612453 56.800044278921426 0 0 -1 I I #
coedge $-1 $231 $231 $-1 $334 reversed $139 $-1 #
edge $-1 $335 0 $335 6.2831853071796004 $140 $336 forward 7 unknown #
vertex $-1 $143 $337 #
ellipse-curve $-1 -44.584971549338128 -36.403098779047689 12.583178859317805 0 -0.6018150307709319 0.79863550430605224 1 0 0 1 I I #
coedge $-1 $235 $235 $-1 $338 reversed $146 $-1 #
edge $-1 $339 0 $339 6.2831853071796004 $147 $340 forward 7 unknown #
vertex $-1 $150 $341 #
ellipse-curve $-1 -36.832372491653189 -36.403098779047689 12.583178859317805 0 -0.6018150307709319 0.79863550430605224 1 0 0 1 I I #
face $-1 $-1 $251 $32 $-1 $342 forward single #
loop $-1 $-1 $343 $151 #
plane-surface $-1 0 39.825270873612453 0 0 -1 0 0 0 -1 forward_v I I I I #
coedge $-1 $344 $345 $346 $347 reversed $152 $-1 #
coedge $-1 $348 $154 $156 $249 forward $95 $-1 #
coedge $-1 $154 $348 $344 $349 forward $95 $-1 #
coedge $-1 $346 $157 $154 $246 forward $251 $-1 #
edge $-1 $253 -20.884648068236597 $350 11.5302012547446 $245 $351 forward 7 unknown #
coedge $-1 $352 $353 $155 $248 forward $240 $-1 #
edge $-1 $354 -64.45400455738104 $252 -57.832916733951905 $247 $355 forward 7 unknown #
edge $-1 $253 71.755799743272917 $354 79.650541747224977 $156 $356 forward 7 unknown #
coedge $-1 $157 $346 $352 $357 forward $251 $-1 #
loop $-1 $-1 $346 $239 #
vertex $-1 $248 $358 #
vertex $-1 $158 $359 #
straight-curve $-1 -25.561871474982595 52.616681653688232 15.161970552511391 0 -1 0 I I #
coedge $-1 $255 $255 $-1 $360 reversed $161 $-1 #
edge $-1 $361 0 $361 6.2831853071796004 $162 $362 forward 7 unknown #
vertex $-1 $165 $363 #
ellipse-curve $-1 -19.078901610386353 37.675378588903541 11.851426640796833 0 0.83867057594974714 0.54463902268945019 1.5 0 0 1 I I #
coedge $-1 $259 $259 $-1 $364 reversed $168 $-1 #
edge $-1 $365 0 $365 6.2831853071796004 $169 $366 forward 7 unknown #
vertex $-1 $172 $367 #
ellipse-curve $-1 -9.3544468134919896 37.675378588903541 11.851426640796833 0 0.83867057594974714 0.54463902268945019 1.5 0 0 1 I I #
coedge $-1 $263 $263 $-1 $368 reversed $175 $-1 #
edge $-1 $369 0 $369 6.2831853071796004 $176 $370 forward 7 unknown #
vertex $-1 $179 $371 #
ellipse-curve $-1 0.37000798340237395 37.675378588903541 11.851426640796833 0 0.83867057594974714 0.54463902268945019 1.5 0 0 1 I I #
face $-1 $-1 $195 $27 $-1 $372 reversed single #
loop $-1 $-1 $283 $180 #
plane-surface $-1 0 39.825270873612453 0 0 -1 0 0 0 -1 forward_v I I I I #
coedge $-1 $373 $281 $284 $374 forward $181 $-1 #
coedge $-1 $287 $183 $184 $275 reversed $114 $-1 #
coedge $-1 $281 $373 $183 $273 reversed $181 $-1 #
edge $-1 $288 -15.161970552511388 $375 15.161970552511388 $272 $376 forward 7 unknown #
coedge $-1 $185 $184 $373 $377 forward $73 $-1 #
edge $-1 $279 -64.857936338389237 $375 64.857936338389237 $271 $378 forward 7 unknown #
coedge $-1 $284 $283 $185 $277 reversed $268 $-1 #
edge $-1 $379 -64.857936338389237 $278 64.857936338389237 $276 $380 forward 7 unknown #
vertex $-1 $187 $381 #
vertex $-1 $290 $382 #
straight-curve $-1 64.857936338389237 0 -15.161970552511388 0 -1 0 I I #
coedge $-1 $270 $272 $188 $282 reversed $181 $-1 #
edge $-1 $285 -39.825270873612453 $288 39.825270873612453 $281 $383 forward 7 unknown #
coedge $-1 $276 $189 $194 $291 forward $268 $-1 #
coedge $-1 $189 $276 $270 $374 reversed $268 $-1 #
vertex $-1 $190 $384 #
straight-curve $-1 0 39.825270873612453 15.161970552511388 -1 0 0 I I #
coedge $-1 $191 $271 $193 $290 reversed $114 $-1 #
vertex $-1 $282 $385 #
straight-curve $-1 0 -39.825270873612453 15.161970552511388 1 0 0 I I #
edge $-1 $196 -15.161970552511388 $279 15.161970552511388 $193 $386 forward 7 unknown #
edge $-1 $197 -15.161970552511388 $278 15.161970552511388 $194 $387 forward 7 unknown #
point $-1 64.857936338389237 -39.825270873612453 15.161970552511388 #
point $-1 64.857936338389237 39.825270873612453 15.161970552511388 #
face $-1 $-1 $307 $28 $-1 $388 reversed single #
loop $-1 $-1 $303 $199 #
plane-surface $-1 -64.857936338389237 0 0 1 0 0 0 0 -1 forward_v I I I I #
coedge $-1 $389 $202 $300 $390 forward $122 $-1 #
coedge $-1 $202 $389 $391 $392 forward $122 $-1 #
edge $-1 $393 -39.825270873612453 $301 39.825270873612453 $202 $394 forward 7 unknown #
coedge $-1 $204 $310 $297 $390 reversed $200 $-1 #
vertex $-1 $390 $395 #
straight-curve $-1 -49.753370921128095 -39.825270873612453 -6.466591777304286 0 0 1 I I #
coedge $-1 $396 $397 $206 $304 forward $295 $-1 #
edge $-1 $311 -39.825270873612453 $308 39.825270873612453 $303 $398 forward 7 unknown #
coedge $-1 $391 $207 $211 $313 forward $307 $-1 #
coedge $-1 $207 $391 $396 $399 reversed $307 $-1 #
loop $-1 $-1 $305 $294 #
vertex $-1 $399 $400 #
straight-curve $-1 -28.652826814879333 39.825270873612453 -10.704396556705756 1 0 0 I I #
coedge $-1 $300 $209 $397 $401 forward $200 $-1 #
vertex $-1 $401 $402 #
straight-curve $-1 -28.652826814879333 -39.825270873612453 -10.704396556705756 -1 0 0 I I #
edge $-1 $213 4.2378047794014702 $393 8.6953787752071019 $305 $403 forward 7 unknown #
point $-1 -49.753370921128095 -39.825270873612453 -10.704396556705756 #
point $-1 -49.753370921128095 39.825270873612453 -10.704396556705756 #
plane-surface $-1 0 -39.825270873612453 0 0 1 0 0 0 1 forward_v I I I I #
coedge $-1 $327 $326 $319 $404 forward $216 $-1 #
coedge $-1 $319 $218 $220 $323 reversed $130 $-1 #
coedge $-1 $218 $318 $317 $404 reversed $130 $-1 #
coedge $-1 $226 $221 $218 $321 forward $227 $-1 #
edge $-1 $324 -46.795657112797208 $405 -41.638073726410042 $320 $406 forward 7 unknown #
coedge $-1 $220 $219 $327 $407 reversed $81 $-1 #
edge $-1 $408 -8.5700474775118956 $324 0 $318 $409 forward 7 unknown #
vertex $-1 $222 $410 #
straight-curve $-1 -20.354336010247827 -39.825270873612453 10.004387166124218 1 0 0 I I #
coedge $-1 $317 $223 $226 $331 forward $216 $-1 #
coedge $-1 $223 $317 $322 $407 forward $216 $-1 #
vertex $-1 $224 $411 #
straight-curve $-1 -49.753370921128081 -58.945116390033085 15.161970552511391 0 -1 0 I I #
straight-curve $-1 -49.753370921128081 -39.825270873612453 10.004387166124218 0 0.79863550430605224 0.6018150307709319 I I #
edge $-1 $228 -49.753370921128081 $405 -31.663973119863225 $226 $412 forward 7 unknown #
point $-1 -49.753370921128081 -39.825270873612453 15.161970552511388 #
point $-1 -49.753370921128081 -39.825270873612453 10.004387166124218 #
edge $-1 $413 1 $413 0 $231 $-1 forward 7 unknown #
vertex $-1 $232 $414 #
ellipse-curve $-1 -44.584971549338128 -34.104384657485497 9.5326822484612386 0 -0.6018150307709319 0.79863550430605224 1 0 0 1 I I #
point $-1 -43.584971549338128 -36.403098779047681 12.583178859317798 #
edge $-1 $415 1 $415 0 $235 $-1 forward 7 unknown #
vertex $-1 $236 $416 #
ellipse-curve $-1 -36.832372491653189 -34.104384657485497 9.5326822484612386 0 -0.6018150307709319 0.79863550430605224 1 0 0 1 I I #
point $-1 -35.832372491653189 -36.403098779047681 12.583178859317798 #
plane-surface $-1 0 0 15.161970552511388 0 0 1 1 0 0 forward_v I I I I #
coedge $-1 $353 $352 $345 $417 forward $240 $-1 #
coedge $-1 $345 $242 $244 $349 reversed $152 $-1 #
coedge $-1 $242 $344 $343 $417 reversed $152 $-1 #
coedge $-1 $250 $245 $242 $347 forward $251 $-1 #
edge $-1 $350 -17.091195349493582 $418 -12.791410780075779 $346 $419 forward 7 unknown #
coedge $-1 $244 $243 $353 $420 reversed $95 $-1 #
edge $-1 $421 -79.650541747224977 $350 -71.755799743272917 $344 $422 forward 7 unknown #
vertex $-1 $246 $423 #
straight-curve $-1 -4.6772234067459983 35.525486304194658 15.161970552511384 1 0 0 I I #
coedge $-1 $343 $247 $250 $357 reversed $240 $-1 #
coedge $-1 $247 $343 $348 $420 forward $240 $-1 #
vertex $-1 $248 $424 #
straight-curve $-1 -25.561871474982595 39.825270873612453 72.994887286463296 0 0 1 I I #
straight-curve $-1 -25.561871474982595 -3.5555223402814136 75.341448450936809 0 0.54463902268945019 -0.83867057594974714 I I #
edge $-1 $418 -6.8529778479986021 $252 25.561871474982595 $352 $425 forward 7 unknown #
point $-1 -25.561871474982595 39.825270873612453 15.161970552511388 #
point $-1 -25.561871474982595 35.525486304194651 15.161970552511391 #
edge $-1 $426 1 $426 0 $255 $-1 forward 7 unknown #
vertex $-1 $256 $427 #
ellipse-curve $-1 -19.078901610386353 34.531573291704198 9.8098156749494247 0 0.83867057594974714 0.54463902268945019 1.5 0 0 1 I I #
point $-1 -17.578901610386353 37.675378588903556 11.851426640796847 #
edge $-1 $428 1 $428 0 $259 $-1 forward 7 unknown #
vertex $-1 $260 $429 #
ellipse-curve $-1 -9.3544468134919896 34.531573291704198 9.8098156749494247 0 0.83867057594974714 0.54463902268945019 1.5 0 0 1 I I #
point $-1 -7.8544468134919896 37.675378588903556 11.851426640796847 #
edge $-1 $430 1 $430 0 $263 $-1 forward 7 unknown #
vertex $-1 $264 $431 #
ellipse-curve $-1 0.37000798340237395 34.531573291704198 9.8098156749494247 0 0.83867057594974714 0.54463902268945019 1.5 0 0 1 I I #
point $-1 1.870007983402374 37.675378588903556 11.851426640796847 #
plane-surface $-1 64.857936338389237 0 0 -1 0 0 0 0 1 forward_v I I I I #
coedge $-1 $272 $270 $274 $377 reversed $181 $-1 #
edge $-1 $285 -15.161970552511388 $379 15.161970552511388 $284 $432 forward 7 unknown #
vertex $-1 $377 $433 #
straight-curve $-1 -64.857936338389237 -39.825270873612453 0 0 0 -1 I I #
edge $-1 $375 -39.825270873612453 $379 39.825270873612453 $373 $434 forward 7 unknown #
straight-curve $-1 0 -39.825270873612453 -15.161970552511388 -1 0 0 I I #
vertex $-1 $277 $435 #
straight-curve $-1 0 39.825270873612453 -15.161970552511388 1 0 0 I I #
point $-1 64.857936338389237 39.825270873612453 -15.161970552511388 #
point $-1 64.857936338389237 -39.825270873612453 -15.161970552511388 #
straight-curve $-1 -64.857936338389237 0 15.161970552511388 0 -1 0 I I #
point $-1 -64.857936338389237 39.825270873612453 15.161970552511388 #
point $-1 -64.857936338389237 -39.825270873612453 15.161970552511388 #
straight-curve $-1 64.857936338389237 -39.825270873612453 0 0 0 -1 I I #
straight-curve $-1 64.857936338389237 39.825270873612453 0 0 0 -1 I I #
plane-surface $-1 0 39.825270873612453 0 0 -1 0 0 0 -1 forward_v I I I I #
coedge $-1 $298 $297 $436 $437 forward $122 $-1 #
edge $-1 $301 49.753370921128095 $438 64.857936338389237 $300 $439 forward 7 unknown #
coedge $-1 $306 $305 $298 $392 reversed $307 $-1 #
edge $-1 $440 -64.857936338389237 $393 -49.753370921128095 $391 $441 forward 7 unknown #
vertex $-1 $313 $442 #
straight-curve $-1 -49.753370921128095 0 -15.161970552511388 0 -1 0 I I #
point $-1 -49.753370921128095 -39.825270873612453 -15.161970552511388 #
coedge $-1 $436 $303 $306 $399 forward $295 $-1 #
coedge $-1 $303 $436 $310 $401 reversed $295 $-1 #
straight-curve $-1 -64.857936338389237 0 -10.704396556705756 0 1 0 I I #
edge $-1 $308 10.704396556705756 $440 15.161970552511388 $306 $443 forward 7 unknown #
point $-1 -64.857936338389237 39.825270873612453 -10.704396556705756 #
edge $-1 $311 10.704396556705756 $438 15.161970552511388 $397 $444 forward 7 unknown #
point $-1 -64.857936338389237 -39.825270873612453 -10.704396556705756 #
straight-curve $-1 -49.753370921128095 39.825270873612453 -6.466591777304286 0 0 -1 I I #
edge $-1 $405 19.119845516420632 $408 25.964189705550154 $317 $445 forward 7 unknown #
vertex $-1 $321 $446 #
straight-curve $-1 -31.663973119863225 -39.825270873612453 56.800044278921426 0 0 1 I I #
edge $-1 $408 11.309637109615398 $328 29.399034910880253 $327 $447 forward 7 unknown #
vertex $-1 $407 $448 #
straight-curve $-1 -31.663973119863225 -39.825270873612453 10.004387166124218 0 -0.79863550430605224 -0.6018150307709319 I I #
point $-1 -31.663973119863225 -39.825270873612453 10.004387166124218 #
point $-1 -49.753370921128081 -32.980926684482931 15.161970552511388 #
straight-curve $-1 0 -39.825270873612453 15.161970552511388 1 0 0 I I #
vertex $-1 $334 $449 #
point $-1 -43.584971549338128 -34.104384657485497 9.5326822484612386 #
vertex $-1 $338 $450 #
point $-1 -35.832372491653189 -34.104384657485497 9.5326822484612386 #
edge $-1 $418 57.832916733951905 $421 64.45400455738104 $343 $451 forward 7 unknown #
vertex $-1 $357 $452 #
straight-curve $-1 6.8529778479986021 52.616681653688232 15.161970552511391 0 1 0 I I #
edge $-1 $421 -11.5302012547446 $354 20.884648068236597 $353 $453 forward 7 unknown #
vertex $-1 $420 $454 #
straight-curve $-1 6.8529778479986021 -3.5555223402814136 75.341448450936809 0 -0.54463902268945019 0.83867057594974714 I I #
point $-1 6.8529778479986021 35.525486304194651 15.161970552511391 #
point $-1 -25.561871474982595 39.825270873612453 8.5408827290822558 #
straight-curve $-1 0 39.825270873612453 15.161970552511388 -1 0 0 I I #
vertex $-1 $360 $455 #
point $-1 -17.578901610386353 34.531573291704198 9.8098156749494247 #
vertex $-1 $364 $456 #
point $-1 -7.8544468134919896 34.531573291704198 9.8098156749494247 #
vertex $-1 $368 $457 #
point $-1 1.870007983402374 34.531573291704198 9.8098156749494247 #
straight-curve $-1 -64.857936338389237 39.825270873612453 0 0 0 -1 I I #
point $-1 -64.857936338389237 -39.825270873612453 -15.161970552511388 #
straight-curve $-1 -64.857936338389237 0 -15.161970552511388 0 1 0 I I #
point $-1 -64.857936338389237 39.825270873612453 -15.161970552511388 #
coedge $-1 $397 $396 $389 $437 reversed $295 $-1 #
edge $-1 $438 -39.825270873612453 $440 39.825270873612453 $436 $458 forward 7 unknown #
vertex $-1 $437 $459 #
straight-curve $-1 0 -39.825270873612453 -15.161970552511388 -1 0 0 I I #
vertex $-1 $392 $460 #
straight-curve $-1 0 39.825270873612453 -15.161970552511388 1 0 0 I I #
point $-1 -49.753370921128095 39.825270873612453 -15.161970552511388 #
straight-curve $-1 -64.857936338389237 39.825270873612453 0 0 0 -1 I I #
straight-curve $-1 -64.857936338389237 -39.825270873612453 0 0 0 -1 I I #
straight-curve $-1 -31.663973119863225 -58.945116390033085 15.161970552511391 0 1 0 I I #
point $-1 -31.663973119863225 -39.825270873612453 15.161970552511388 #
straight-curve $-1 -20.354336010247827 -32.980926684482931 15.161970552511388 -1 0 0 I I #
point $-1 -31.663973119863225 -32.980926684482931 15.161970552511388 #
point $-1 -44.584971549338128 -33.502569626714561 8.7340467441551901 #
point $-1 -36.832372491653189 -33.502569626714561 8.7340467441551901 #
straight-curve $-1 6.8529778479986021 39.825270873612453 72.994887286463296 0 0 -1 I I #
point $-1 6.8529778479986021 39.825270873612453 15.161970552511388 #
straight-curve $-1 -4.6772234067459983 39.825270873612453 8.5408827290822522 -1 0 0 I I #
point $-1 6.8529778479986021 39.825270873612453 8.5408827290822558 #
point $-1 -19.078901610386353 33.273567427779575 8.99285714091525 #
point $-1 -9.3544468134919896 33.273567427779575 8.99285714091525 #
point $-1 0.37000798340237395 33.273567427779575 8.99285714091525 #
straight-curve $-1 -64.857936338389237 0 -15.161970552511388 0 1 0 I I #
point $-1 -64.857936338389237 -39.825270873612453 -15.161970552511388 #
point $-1 -64.857936338389237 39.825270873612453 -15.161970552511388 #
End-of-ACIS-data 