500 0 4 0           
7 Unknown 11 ACIS 5.0 NT 24 Fri Mar 26 02:00:47 1999 
-1 9.9999999999999995e-007 1e-010 
body $-1 $4 $-1 $5 #
body $-1 $6 $-1 $7 #
body $-1 $8 $-1 $9 #
body $-1 $10 $-1 $11 #
lump $-1 $-1 $12 $0 #
transform $-1 1 0 0 0 1 0 0 0 1 78.100527970213932 45.519829800395264 21.245828700684378 1 rotate no_reflect no_shear #
lump $-1 $-1 $13 $1 #
transform $-1 1 0 0 0 1 0 0 0 1 78.100527970213932 45.519829800395264 21.245828700684378 1 rotate no_reflect no_shear #
lump $-1 $-1 $14 $2 #
transform $-1 1 0 0 0 1 0 0 0 1 78.100527970213932 45.519829800395264 21.245828700684378 1 rotate no_reflect no_shear #
lump $-1 $-1 $15 $3 #
transform $-1 1 0 0 0 1 0 0 0 1 78.100527970213932 45.519829800395264 21.245828700684378 1 rotate no_reflect no_shear #
shell $-1 $-1 $-1 $16 $-1 $4 #
shell $-1 $-1 $-1 $17 $-1 $6 #
shell $-1 $-1 $-1 $18 $-1 $8 #
shell $-1 $-1 $-1 $19 $-1 $10 #
face $-1 $20 $21 $12 $-1 $22 forward single #
face $-1 $23 $24 $13 $-1 $25 forward single #
face $-1 $26 $27 $14 $-1 $28 forward single #
face $-1 $29 $30 $15 $-1 $31 reversed single #
face $-1 $32 $33 $12 $-1 $34 reversed single #
loop $-1 $-1 $35 $16 #
plane-surface $-1 0 0 21.245828700684378 0 0 1 1 0 0 forward_v I I I I #
face $-1 $36 $37 $13 $-1 $38 reversed single #
loop $-1 $-1 $39 $17 #
plane-surface $-1 0 -56.925663345033612 17.633162453713304 0 0 1 1 0 0 forward_v I I I I #
face $-1 $40 $41 $14 $-1 $42 forward single #
loop $-1 $-1 $43 $18 #
plane-surface $-1 85.809887112970841 34.083706667140099 223.68156134341726 0 -1 0 -0.73135370988377701 0 -0.68199835119979291 forward_v I I I I #
face $-1 $44 $45 $15 $-1 $46 reversed single #
loop $-1 $47 $48 $19 #
cone-surface $-1 68.186173958643423 28.940527465410774 10.805196607143122 -0.73135370988377701 0 -0.68199835119979291 0.68199835119979291 0 -0.73135370988377701 1 I I 0 1 1 forward I I I I #
face $-1 $49 $50 $12 $-1 $51 reversed single #
loop $-1 $-1 $52 $20 #
plane-surface $-1 0 0 -21.245828700684378 0 0 1 1 0 0 forward_v I I I I #
coedge $-1 $53 $54 $55 $56 forward $21 $-1 #
face $-1 $57 $58 $13 $-1 $59 reversed single #
loop $-1 $-1 $60 $23 #
plane-surface $-1 0 -56.925663345033612 9.5232171971313786 0 0 1 1 0 0 forward_v I I I I #
coedge $-1 $61 $62 $63 $64 forward $24 $-1 #
face $-1 $65 $66 $14 $-1 $67 forward single #
loop $-1 $-1 $68 $26 #
plane-surface $-1 -28.428334636824459 28.940527465410774 117.15269873637884 0.73135370988377701 0 0.68199835119979291 0.68199835119979291 0 -0.73135370988377701 forward_v I I I I #
coedge $-1 $69 $70 $71 $72 reversed $27 $-1 #
face $-1 $73 $74 $15 $-1 $75 forward single #
loop $-1 $76 $77 $29 #
cone-surface $-1 66.453273895820416 28.940527465410774 9.1892411950524107 -0.73135370988377701 0 -0.68199835119979291 0.34099917559989645 0 -0.36567685494188851 1 I I -0.70710678118654746 0.70710678118654746 0.5 forward I I I I #
loop $-1 $-1 $78 $19 #
coedge $-1 $48 $48 $79 $80 reversed $30 $-1 #
face $-1 $81 $82 $12 $-1 $83 reversed single #
loop $-1 $-1 $84 $32 #
plane-surface $-1 0 -45.519829800395264 0 0 1 0 0 0 1 forward_v I I I I #
coedge $-1 $85 $86 $87 $88 forward $33 $-1 #
coedge $-1 $89 $35 $90 $91 forward $21 $-1 #
coedge $-1 $35 $89 $92 $93 forward $21 $-1 #
coedge $-1 $94 $95 $35 $56 reversed $96 $-1 #
edge $-1 $97 -45.519829800395264 $98 45.519829800395264 $55 $99 forward 7 unknown #
face $-1 $100 $101 $13 $-1 $102 reversed single #
loop $-1 $-1 $103 $36 #
plane-surface $-1 0 -68.331496889671968 13.578189825422342 0 1 0 0 0 1 forward_v I I I I #
coedge $-1 $104 $105 $106 $107 forward $37 $-1 #
coedge $-1 $108 $39 $109 $110 reversed $24 $-1 #
coedge $-1 $39 $108 $111 $112 forward $24 $-1 #
coedge $-1 $113 $114 $39 $64 reversed $115 $-1 #
edge $-1 $116 -11.405833544638355 $117 11.405833544638355 $63 $118 forward 7 unknown #
face $-1 $119 $120 $14 $-1 $121 forward single #
loop $-1 $-1 $122 $40 #
plane-surface $-1 85.809887112970841 23.79734826368145 223.68156134341726 0 1 0 0.73135370988377701 0 0.68199835119979291 forward_v I I I I #
coedge $-1 $123 $124 $125 $126 reversed $41 $-1 #
coedge $-1 $70 $43 $124 $127 forward $27 $-1 #
coedge $-1 $43 $69 $128 $129 reversed $27 $-1 #
coedge $-1 $130 $125 $43 $72 forward $120 $-1 #
edge $-1 $131 18.101322806349771 $132 35.195584413728511 $71 $133 forward 7 unknown #
face $-1 $134 $135 $15 $-1 $136 forward single #
loop $-1 $-1 $137 $44 #
plane-surface $-1 85.809887112970841 34.083706667140099 223.68156134341726 0 -1 0 -0.73135370988377701 0 -0.68199835119979291 forward_v I I I I #
loop $-1 $-1 $138 $29 #
coedge $-1 $77 $77 $78 $139 forward $45 $-1 #
coedge $-1 $78 $78 $77 $139 reversed $47 $-1 #
coedge $-1 $79 $79 $48 $80 forward $135 $-1 #
edge $-1 $140 0 $140 6.2831853071796004 $79 $141 forward 7 unknown #
face $-1 $142 $143 $12 $-1 $144 reversed single #
loop $-1 $-1 $145 $49 #
plane-surface $-1 -78.100527970213932 0 0 1 0 0 0 0 -1 forward_v I I I I #
coedge $-1 $146 $92 $147 $148 forward $50 $-1 #
coedge $-1 $149 $52 $146 $150 forward $33 $-1 #
coedge $-1 $52 $149 $151 $152 forward $33 $-1 #
coedge $-1 $95 $94 $52 $88 reversed $96 $-1 #
edge $-1 $153 -45.519829800395264 $154 45.519829800395264 $87 $155 forward 7 unknown #
coedge $-1 $54 $53 $156 $157 forward $21 $-1 #
coedge $-1 $158 $159 $53 $91 reversed $143 $-1 #
edge $-1 $98 -78.100527970213932 $160 78.100527970213932 $90 $161 forward 7 unknown #
coedge $-1 $84 $162 $54 $93 reversed $50 $-1 #
edge $-1 $163 -78.100527970213932 $97 78.100527970213932 $92 $164 forward 7 unknown #
coedge $-1 $87 $55 $162 $165 forward $96 $-1 #
coedge $-1 $55 $87 $158 $166 reversed $96 $-1 #
loop $-1 $-1 $94 $142 #
vertex $-1 $56 $167 #
vertex $-1 $56 $168 #
straight-curve $-1 78.100527970213932 0 21.245828700684378 0 1 0 I I #
face $-1 $169 $170 $13 $-1 $102 reversed single #
loop $-1 $-1 $171 $57 #
plane-surface $-1 0 -45.519829800395264 0 0 1 0 0 0 1 forward_v I I I I #
coedge $-1 $172 $111 $173 $174 forward $58 $-1 #
coedge $-1 $175 $60 $172 $176 forward $37 $-1 #
coedge $-1 $60 $175 $171 $177 reversed $37 $-1 #
coedge $-1 $178 $113 $60 $107 reversed $115 $-1 #
edge $-1 $179 -11.405833544638355 $180 11.405833544638355 $106 $181 forward 7 unknown #
coedge $-1 $62 $61 $182 $183 forward $24 $-1 #
coedge $-1 $184 $185 $61 $110 forward $170 $-1 #
edge $-1 $186 -78.100527970213932 $117 78.100527970213932 $109 $187 forward 7 unknown #
coedge $-1 $103 $188 $62 $112 reversed $58 $-1 #
edge $-1 $189 -78.100527970213932 $116 78.100527970213932 $111 $190 forward 7 unknown #
coedge $-1 $106 $63 $188 $191 forward $115 $-1 #
coedge $-1 $63 $192 $184 $193 forward $115 $-1 #
loop $-1 $-1 $114 $194 #
vertex $-1 $64 $195 #
vertex $-1 $64 $196 #
straight-curve $-1 78.100527970213932 -56.925663345033612 17.633162453713304 0 1 0 I I #
face $-1 $197 $198 $14 $-1 $199 forward single #
loop $-1 $-1 $200 $65 #
plane-surface $-1 0 0 21.245828700684378 0 0 1 1 0 0 forward_v I I I I #
coedge $-1 $201 $202 $200 $203 reversed $66 $-1 #
coedge $-1 $204 $68 $202 $205 reversed $41 $-1 #
coedge $-1 $68 $204 $69 $127 reversed $41 $-1 #
coedge $-1 $71 $200 $68 $126 forward $120 $-1 #
edge $-1 $206 9.3270845309760624 $131 19.613442934434712 $125 $207 forward 7 unknown #
edge $-1 $131 131.13609562592563 $208 156.20105594042781 $69 $209 forward 7 unknown #
coedge $-1 $210 $211 $70 $129 forward $212 $-1 #
edge $-1 $132 90.594951971024244 $208 108.92630368512505 $128 $213 forward 7 unknown #
coedge $-1 $214 $71 $211 $215 forward $120 $-1 #
vertex $-1 $126 $216 #
vertex $-1 $215 $217 #
straight-curve $-1 42.904943556485421 34.083706667140099 21.24582870068437 1 0 0 I I #
face $-1 $218 $219 $15 $-1 $220 forward single #
loop $-1 $221 $79 $73 #
plane-surface $-1 -28.428334636824459 28.940527465410774 117.15269873637884 0.73135370988377701 0 0.68199835119979291 0.68199835119979291 0 -0.73135370988377701 forward_v I I I I #
coedge $-1 $222 $223 $224 $225 reversed $74 $-1 #
coedge $-1 $138 $138 $-1 $226 forward $76 $-1 #
edge $-1 $227 0 $227 6.2831853071796004 $77 $228 forward 7 unknown #
vertex $-1 $80 $229 #
ellipse-curve $-1 69.553397166524576 28.940527465410774 12.080152843633968 -0.73135370988377701 0 -0.68199835119979291 0.68199835119979291 0 -0.73135370988377701 1 I I #
face $-1 $-1 $96 $12 $-1 $230 reversed single #
loop $-1 $-1 $158 $81 #
plane-surface $-1 0 45.519829800395264 0 0 -1 0 0 0 -1 forward_v I I I I #
coedge $-1 $231 $156 $159 $232 forward $82 $-1 #
coedge $-1 $162 $84 $85 $150 reversed $50 $-1 #
coedge $-1 $156 $231 $84 $148 reversed $82 $-1 #
edge $-1 $163 -21.245828700684378 $233 21.245828700684378 $147 $234 forward 7 unknown #
coedge $-1 $86 $85 $231 $235 forward $33 $-1 #
edge $-1 $154 -78.100527970213932 $233 78.100527970213932 $146 $236 forward 7 unknown #
coedge $-1 $159 $158 $86 $152 reversed $143 $-1 #
edge $-1 $237 -78.100527970213932 $153 78.100527970213932 $151 $238 forward 7 unknown #
vertex $-1 $88 $239 #
vertex $-1 $165 $240 #
straight-curve $-1 78.100527970213932 0 -21.245828700684378 0 -1 0 I I #
coedge $-1 $145 $147 $89 $157 reversed $82 $-1 #
edge $-1 $160 -45.519829800395264 $163 45.519829800395264 $156 $241 forward 7 unknown #
coedge $-1 $151 $90 $95 $166 forward $143 $-1 #
coedge $-1 $90 $151 $145 $232 reversed $143 $-1 #
vertex $-1 $91 $242 #
straight-curve $-1 0 45.519829800395264 21.245828700684378 -1 0 0 I I #
coedge $-1 $92 $146 $94 $165 reversed $50 $-1 #
vertex $-1 $157 $243 #
straight-curve $-1 0 -45.519829800395264 21.245828700684378 1 0 0 I I #
edge $-1 $97 -21.245828700684378 $154 21.245828700684378 $94 $244 forward 7 unknown #
edge $-1 $98 -21.245828700684378 $153 21.245828700684378 $95 $245 forward 7 unknown #
point $-1 78.100527970213932 -45.519829800395264 21.245828700684378 #
point $-1 78.100527970213932 45.519829800395264 21.245828700684378 #
face $-1 $246 $247 $13 $-1 $248 forward single #
loop $-1 $-1 $109 $100 #
coedge $-1 $249 $250 $105 $177 forward $101 $-1 #
coedge $-1 $188 $103 $104 $176 reversed $58 $-1 #
coedge $-1 $182 $251 $103 $174 reversed $252 $-1 #
edge $-1 $189 -4.0549726282909617 $253 4.0549726282909635 $173 $254 forward 7 unknown #
coedge $-1 $105 $104 $251 $255 forward $37 $-1 #
edge $-1 $180 -78.100527970213932 $253 78.100527970213932 $172 $256 forward 7 unknown #
edge $-1 $179 -78.100527970213932 $257 78.100527970213932 $171 $258 forward 7 unknown #
coedge $-1 $259 $106 $250 $260 forward $115 $-1 #
vertex $-1 $260 $261 #
vertex $-1 $191 $262 #
straight-curve $-1 78.100527970213932 -56.925663345033612 9.5232171971313786 0 -1 0 I I #
coedge $-1 $263 $173 $108 $183 reversed $252 $-1 #
edge $-1 $186 -11.405833544638355 $189 11.405833544638355 $182 $264 forward 7 unknown #
coedge $-1 $265 $109 $114 $193 reversed $170 $-1 #
coedge $-1 $109 $265 $263 $266 forward $170 $-1 #
vertex $-1 $266 $267 #
straight-curve $-1 0 -45.519829800395264 17.633162453713304 1 0 0 I I #
coedge $-1 $111 $172 $113 $191 reversed $58 $-1 #
vertex $-1 $183 $268 #
straight-curve $-1 0 -68.331496889671968 17.633162453713304 1 0 0 I I #
edge $-1 $116 -4.0549726282909617 $180 4.0549726282909635 $113 $269 forward 7 unknown #
coedge $-1 $114 $270 $271 $272 reversed $115 $-1 #
edge $-1 $273 -21.245828700684378 $117 -17.633162453713304 $114 $274 forward 7 unknown #
face $-1 $-1 $115 $13 $-1 $275 reversed single #
point $-1 78.100527970213932 -68.331496889671968 17.633162453713304 #
point $-1 78.100527970213932 -45.519829800395257 17.633162453713304 #
face $-1 $276 $277 $14 $-1 $278 reversed single #
loop $-1 $-1 $279 $119 #
plane-surface $-1 0 -56.925663345033612 17.633162453713304 0 0 1 1 0 0 forward_v I I I I #
coedge $-1 $125 $280 $122 $203 forward $120 $-1 #
coedge $-1 $202 $122 $281 $282 reversed $66 $-1 #
coedge $-1 $122 $201 $123 $205 forward $66 $-1 #
edge $-1 $283 -35.195584413728511 $206 -18.101322806349771 $200 $284 forward 7 unknown #
coedge $-1 $124 $123 $210 $285 reversed $41 $-1 #
edge $-1 $286 -156.20105594042781 $206 -131.13609562592563 $202 $287 forward 7 unknown #
vertex $-1 $126 $288 #
straight-curve $-1 61.006266362835198 14.470263732705387 21.24582870068437 0 1 0 I I #
vertex $-1 $285 $289 #
straight-curve $-1 -28.428334636824459 34.083706667140099 117.15269873637884 0.68199835119979291 0 -0.73135370988377701 I I #
coedge $-1 $281 $128 $204 $285 forward $212 $-1 #
coedge $-1 $128 $290 $130 $215 reversed $212 $-1 #
loop $-1 $-1 $281 $291 #
straight-curve $-1 78.100527970213932 34.083706667140099 111.84078067170863 0 0 -1 I I #
coedge $-1 $292 $130 $293 $294 forward $120 $-1 #
edge $-1 $132 34.083706667140099 $295 45.519829800395264 $211 $296 forward 7 unknown #
point $-1 61.006266362835191 34.083706667140099 21.245828700684385 #
point $-1 78.100527970213932 34.083706667140099 21.245828700684378 #
face $-1 $297 $298 $15 $-1 $299 forward single #
loop $-1 $-1 $300 $134 #
plane-surface $-1 85.809887112970841 23.79734826368145 223.68156134341726 0 1 0 0.73135370988377701 0 0.68199835119979291 forward_v I I I I #
loop $-1 $-1 $301 $73 #
coedge $-1 $223 $137 $302 $303 forward $74 $-1 #
coedge $-1 $137 $222 $304 $305 reversed $74 $-1 #
coedge $-1 $306 $307 $137 $225 forward $298 $-1 #
edge $-1 $308 18.101322806349771 $309 35.195584413728511 $224 $310 forward 7 unknown #
edge $-1 $311 1 $311 0 $138 $-1 forward 7 unknown #
vertex $-1 $139 $312 #
ellipse-curve $-1 66.818950750762298 28.940527465410774 9.530240370652308 0.73135370988377701 0 0.68199835119979291 0.68199835119979291 0 -0.73135370988377701 1 I I #
point $-1 70.235395517724342 28.940527465410774 11.348799133750159 #
plane-surface $-1 78.100527970213932 0 0 -1 0 0 0 0 1 forward_v I I I I #
coedge $-1 $147 $145 $149 $235 reversed $82 $-1 #
edge $-1 $160 -21.245828700684378 $237 21.245828700684378 $159 $313 forward 7 unknown #
vertex $-1 $235 $314 #
straight-curve $-1 -78.100527970213932 -45.519829800395264 0 0 0 -1 I I #
edge $-1 $233 -45.519829800395264 $237 45.519829800395264 $231 $315 forward 7 unknown #
straight-curve $-1 0 -45.519829800395264 -21.245828700684378 -1 0 0 I I #
vertex $-1 $152 $316 #
straight-curve $-1 0 45.519829800395264 -21.245828700684378 1 0 0 I I #
point $-1 78.100527970213932 45.519829800395264 -21.245828700684378 #
point $-1 78.100527970213932 -45.519829800395264 -21.245828700684378 #
straight-curve $-1 -78.100527970213932 0 21.245828700684378 0 -1 0 I I #
point $-1 -78.100527970213932 45.519829800395264 21.245828700684378 #
point $-1 -78.100527970213932 -45.519829800395264 21.245828700684378 #
straight-curve $-1 78.100527970213932 -45.519829800395264 0 0 0 -1 I I #
straight-curve $-1 78.100527970213932 45.519829800395264 0 0 0 -1 I I #
face $-1 $317 $318 $13 $-1 $319 reversed single #
loop $-1 $-1 $271 $169 #
plane-surface $-1 0 0 21.245828700684378 0 0 1 1 0 0 forward_v I I I I #
coedge $-1 $320 $171 $321 $322 forward $101 $-1 #
coedge $-1 $171 $320 $178 $260 reversed $101 $-1 #
coedge $-1 $173 $321 $175 $255 reversed $252 $-1 #
loop $-1 $-1 $323 $317 #
vertex $-1 $255 $324 #
straight-curve $-1 -78.100527970213932 -68.331496889671968 13.578189825422342 0 0 -1 I I #
edge $-1 $253 -11.405833544638355 $257 11.405833544638355 $251 $325 forward 7 unknown #
straight-curve $-1 0 -68.331496889671968 9.5232171971313786 -1 0 0 I I #
vertex $-1 $322 $326 #
straight-curve $-1 0 -45.519829800395264 9.5232171971313786 -1 0 0 I I #
coedge $-1 $270 $178 $327 $328 reversed $115 $-1 #
edge $-1 $179 -9.5232171971313786 $329 21.245828700684378 $178 $274 forward 7 unknown #
point $-1 78.100527970213932 -45.519829800395257 9.5232171971313786 #
point $-1 78.100527970213932 -68.331496889671968 9.5232171971313786 #
coedge $-1 $330 $182 $185 $266 reversed $252 $-1 #
straight-curve $-1 -78.100527970213932 -56.925663345033612 17.633162453713304 0 -1 0 I I #
coedge $-1 $185 $184 $331 $332 reversed $170 $-1 #
edge $-1 $333 -21.245828700684378 $186 -17.633162453713304 $263 $334 forward 7 unknown #
point $-1 -78.100527970213932 -45.519829800395257 17.633162453713304 #
point $-1 -78.100527970213932 -68.331496889671968 17.633162453713304 #
straight-curve $-1 78.100527970213932 -68.331496889671968 13.578189825422342 0 0 -1 I I #
coedge $-1 $192 $259 $335 $336 reversed $115 $-1 #
coedge $-1 $337 $331 $192 $272 forward $247 $-1 #
edge $-1 $273 -45.519829800395264 $338 45.519829800395264 $192 $339 forward 7 unknown #
vertex $-1 $272 $340 #
straight-curve $-1 78.100527970213932 -45.519829800395264 0 0 0 -1 I I #
plane-surface $-1 78.100527970213932 0 0 -1 0 0 0 0 1 forward_v I I I I #
face $-1 $341 $342 $14 $-1 $343 reversed single #
loop $-1 $-1 $344 $197 #
plane-surface $-1 0 -56.925663345033612 9.5232171971313786 0 0 1 1 0 0 forward_v I I I I #
coedge $-1 $345 $346 $347 $348 forward $198 $-1 #
coedge $-1 $200 $349 $350 $351 forward $120 $-1 #
coedge $-1 $350 $210 $201 $282 forward $212 $-1 #
edge $-1 $286 -108.92630368512505 $283 -90.594951971024244 $281 $352 forward 7 unknown #
vertex $-1 $282 $353 #
straight-curve $-1 42.904943556485421 23.79734826368145 21.24582870068437 -1 0 0 I I #
edge $-1 $208 -19.613442934434712 $286 -9.3270845309760624 $210 $354 forward 7 unknown #
vertex $-1 $285 $355 #
straight-curve $-1 -28.428334636824459 23.79734826368145 117.15269873637884 -0.68199835119979291 0 0.73135370988377701 I I #
point $-1 61.006266362835191 23.79734826368145 21.245828700684385 #
point $-1 78.100527970213918 34.083706667140099 2.9144769865835798 #
coedge $-1 $211 $356 $357 $358 reversed $212 $-1 #
face $-1 $-1 $212 $14 $-1 $359 reversed single #
coedge $-1 $349 $214 $360 $361 forward $120 $-1 #
coedge $-1 $357 $362 $214 $294 reversed $363 $-1 #
edge $-1 $295 -78.100527970213932 $364 78.100527970213932 $293 $365 forward 7 unknown #
vertex $-1 $215 $366 #
straight-curve $-1 78.100527970213932 0 21.245828700684378 0 1 0 I I #
face $-1 $367 $368 $15 $-1 $369 forward single #
loop $-1 $-1 $370 $218 #
plane-surface $-1 0 0 21.245828700684378 0 0 1 1 0 0 forward_v I I I I #
coedge $-1 $371 $372 $370 $373 reversed $219 $-1 #
coedge $-1 $374 $302 $307 $375 reversed $221 $-1 #
coedge $-1 $301 $376 $222 $303 reversed $221 $-1 #
edge $-1 $308 131.13609562592563 $377 156.20105594042781 $222 $378 forward 7 unknown #
coedge $-1 $379 $380 $223 $305 forward $381 $-1 #
edge $-1 $309 90.594951971024244 $377 108.92630368512505 $304 $382 forward 7 unknown #
coedge $-1 $383 $224 $380 $384 forward $298 $-1 #
coedge $-1 $224 $370 $301 $375 forward $298 $-1 #
vertex $-1 $375 $385 #
vertex $-1 $384 $386 #
straight-curve $-1 42.904943556485421 34.083706667140099 21.24582870068437 1 0 0 I I #
vertex $-1 $226 $387 #
point $-1 67.500949101962092 28.940527465410774 8.798886660768531 #
straight-curve $-1 -78.100527970213932 45.519829800395264 0 0 0 -1 I I #
point $-1 -78.100527970213932 -45.519829800395264 -21.245828700684378 #
straight-curve $-1 -78.100527970213932 0 -21.245828700684378 0 1 0 I I #
point $-1 -78.100527970213932 45.519829800395264 -21.245828700684378 #
face $-1 $388 $252 $13 $-1 $389 reversed single #
loop $-1 $-1 $327 $246 #
plane-surface $-1 0 0 -21.245828700684378 0 0 1 1 0 0 forward_v I I I I #
coedge $-1 $250 $249 $390 $391 reversed $101 $-1 #
coedge $-1 $251 $392 $249 $322 reversed $252 $-1 #
edge $-1 $257 -9.5232171971313786 $393 21.245828700684378 $321 $334 forward 7 unknown #
coedge $-1 $392 $330 $394 $395 forward $252 $-1 #
point $-1 -78.100527970213932 -68.331496889671968 9.5232171971313786 #
straight-curve $-1 -78.100527970213932 -56.925663345033612 9.5232171971313786 0 1 0 I I #
point $-1 -78.100527970213932 -45.519829800395257 9.5232171971313786 #
coedge $-1 $390 $396 $259 $328 forward $318 $-1 #
edge $-1 $397 -45.519829800395264 $329 45.519829800395264 $259 $398 forward 7 unknown #
vertex $-1 $260 $399 #
coedge $-1 $323 $263 $400 $401 reversed $252 $-1 #
coedge $-1 $271 $400 $265 $332 forward $247 $-1 #
edge $-1 $333 -78.100527970213932 $273 78.100527970213932 $265 $402 forward 7 unknown #
vertex $-1 $401 $403 #
straight-curve $-1 -78.100527970213932 -45.519829800395264 0 0 0 -1 I I #
coedge $-1 $404 $405 $270 $336 forward $406 $-1 #
edge $-1 $338 -21.245828700684378 $397 21.245828700684378 $270 $407 forward 7 unknown #
coedge $-1 $400 $271 $405 $408 forward $247 $-1 #
vertex $-1 $272 $409 #
straight-curve $-1 78.100527970213932 0 21.245828700684378 0 1 0 I I #
point $-1 78.100527970213932 -45.519829800395264 21.245828700684378 #
face $-1 $410 $411 $14 $-1 $412 reversed single #
loop $-1 $-1 $413 $276 #
plane-surface $-1 0 -68.331496889671968 13.578189825422342 0 1 0 0 0 1 forward_v I I I I #
coedge $-1 $414 $415 $416 $417 forward $277 $-1 #
coedge $-1 $418 $279 $419 $420 reversed $198 $-1 #
coedge $-1 $279 $418 $421 $422 forward $198 $-1 #
coedge $-1 $423 $424 $279 $348 reversed $212 $-1 #
edge $-1 $425 -11.405833544638355 $426 11.405833544638355 $347 $427 forward 7 unknown #
coedge $-1 $280 $292 $428 $429 forward $120 $-1 #
coedge $-1 $424 $281 $280 $351 reversed $212 $-1 #
edge $-1 $430 -45.519829800395264 $283 23.79734826368145 $350 $296 forward 7 unknown #
straight-curve $-1 78.100527970213932 23.79734826368145 111.84078067170863 0 0 1 I I #
point $-1 78.100527970213932 23.79734826368145 21.245828700684378 #
straight-curve $-1 78.100527970213932 14.470263732705387 2.9144769865835656 0 -1 0 I I #
point $-1 78.100527970213918 23.79734826368145 2.9144769865835798 #
coedge $-1 $290 $431 $432 $433 reversed $212 $-1 #
coedge $-1 $434 $293 $290 $358 forward $363 $-1 #
edge $-1 $295 -21.245828700684378 $435 21.245828700684378 $290 $436 forward 7 unknown #
plane-surface $-1 78.100527970213932 0 0 -1 0 0 0 0 1 forward_v I I I I #
coedge $-1 $437 $438 $292 $361 reversed $439 $-1 #
edge $-1 $364 -45.519829800395264 $440 45.519829800395264 $360 $441 forward 7 unknown #
coedge $-1 $293 $434 $437 $442 reversed $363 $-1 #
loop $-1 $-1 $357 $443 #
vertex $-1 $294 $444 #
straight-curve $-1 0 45.519829800395264 21.245828700684378 -1 0 0 I I #
point $-1 78.100527970213932 45.519829800395264 21.245828700684378 #
face $-1 $445 $446 $15 $-1 $447 reversed single #
loop $-1 $-1 $448 $297 #
plane-surface $-1 0 -56.925663345033612 17.633162453713304 0 0 1 1 0 0 forward_v I I I I #
coedge $-1 $307 $449 $300 $373 forward $298 $-1 #
coedge $-1 $372 $300 $450 $451 reversed $219 $-1 #
coedge $-1 $300 $371 $374 $452 forward $219 $-1 #
edge $-1 $453 -35.195584413728511 $454 -18.101322806349771 $370 $455 forward 7 unknown #
coedge $-1 $376 $301 $372 $452 reversed $221 $-1 #
edge $-1 $454 9.3270845309760624 $308 19.613442934434712 $307 $456 forward 7 unknown #
coedge $-1 $302 $374 $379 $457 reversed $221 $-1 #
vertex $-1 $457 $458 #
straight-curve $-1 -28.428334636824459 34.083706667140099 117.15269873637884 0.68199835119979291 0 -0.73135370988377701 I I #
coedge $-1 $450 $304 $376 $457 forward $381 $-1 #
coedge $-1 $304 $459 $306 $384 reversed $381 $-1 #
loop $-1 $-1 $450 $460 #
straight-curve $-1 78.100527970213932 34.083706667140099 111.84078067170863 0 0 -1 I I #
coedge $-1 $461 $306 $462 $463 forward $298 $-1 #
edge $-1 $309 34.083706667140099 $464 45.519829800395264 $380 $465 forward 7 unknown #
point $-1 61.006266362835191 34.083706667140099 21.245828700684385 #
point $-1 78.100527970213932 34.083706667140099 21.245828700684378 #
point $-1 66.087597040878535 28.940527465410774 8.8482420194525133 #
face $-1 $194 $406 $13 $-1 $466 reversed single #
plane-surface $-1 -78.100527970213932 0 0 1 0 0 0 0 -1 forward_v I I I I #
coedge $-1 $467 $327 $320 $391 forward $318 $-1 #
edge $-1 $329 -78.100527970213932 $393 78.100527970213932 $320 $468 forward 7 unknown #
coedge $-1 $321 $323 $467 $469 reversed $252 $-1 #
vertex $-1 $469 $470 #
coedge $-1 $405 $404 $323 $395 reversed $406 $-1 #
edge $-1 $471 -21.245828700684378 $472 21.245828700684378 $394 $473 forward 7 unknown #
coedge $-1 $327 $467 $404 $474 forward $318 $-1 #
vertex $-1 $328 $475 #
straight-curve $-1 78.100527970213932 0 -21.245828700684378 0 -1 0 I I #
point $-1 78.100527970213932 -45.519829800395264 -21.245828700684378 #
coedge $-1 $331 $337 $330 $401 forward $247 $-1 #
edge $-1 $471 -45.519829800395264 $333 45.519829800395264 $330 $476 forward 7 unknown #
straight-curve $-1 0 -45.519829800395264 21.245828700684378 1 0 0 I I #
point $-1 -78.100527970213932 -45.519829800395264 21.245828700684378 #
coedge $-1 $394 $335 $396 $474 reversed $406 $-1 #
coedge $-1 $335 $394 $337 $408 reversed $406 $-1 #
loop $-1 $-1 $335 $388 #
straight-curve $-1 78.100527970213932 45.519829800395264 0 0 0 -1 I I #
edge $-1 $338 -78.100527970213932 $471 78.100527970213932 $405 $477 forward 7 unknown #
point $-1 78.100527970213932 45.519829800395264 21.245828700684378 #
face $-1 $478 $479 $14 $-1 $412 reversed single #
loop $-1 $-1 $480 $341 #
plane-surface $-1 0 -45.519829800395264 0 0 1 0 0 0 1 forward_v I I I I #
coedge $-1 $481 $421 $482 $483 forward $342 $-1 #
coedge $-1 $484 $344 $481 $485 forward $277 $-1 #
coedge $-1 $344 $484 $480 $486 reversed $277 $-1 #
coedge $-1 $431 $423 $344 $417 reversed $212 $-1 #
edge $-1 $487 -11.405833544638355 $488 11.405833544638355 $416 $489 forward 7 unknown #
coedge $-1 $346 $345 $490 $491 forward $198 $-1 #
coedge $-1 $492 $493 $345 $420 forward $479 $-1 #
edge $-1 $494 -78.100527970213932 $426 78.100527970213932 $419 $495 forward 7 unknown #
coedge $-1 $413 $496 $346 $422 reversed $342 $-1 #
edge $-1 $497 -78.100527970213932 $425 78.100527970213932 $421 $498 forward 7 unknown #
coedge $-1 $416 $347 $496 $499 forward $212 $-1 #
coedge $-1 $347 $350 $492 $500 forward $212 $-1 #
vertex $-1 $348 $501 #
vertex $-1 $348 $502 #
straight-curve $-1 78.100527970213932 -56.925663345033612 17.633162453713304 0 1 0 I I #
coedge $-1 $493 $492 $349 $429 reversed $479 $-1 #
edge $-1 $440 -78.100527970213932 $430 78.100527970213932 $428 $503 forward 7 unknown #
vertex $-1 $351 $504 #
coedge $-1 $356 $416 $505 $506 forward $212 $-1 #
coedge $-1 $507 $508 $356 $433 forward $509 $-1 #
edge $-1 $435 -45.519829800395264 $510 45.519829800395264 $356 $511 forward 7 unknown #
coedge $-1 $362 $357 $508 $512 reversed $363 $-1 #
vertex $-1 $433 $513 #
straight-curve $-1 78.100527970213932 45.519829800395264 0 0 0 -1 I I #
coedge $-1 $514 $360 $362 $442 forward $439 $-1 #
coedge $-1 $360 $490 $493 $515 reversed $439 $-1 #
loop $-1 $-1 $437 $516 #
vertex $-1 $361 $517 #
straight-curve $-1 -78.100527970213932 0 21.245828700684378 0 -1 0 I I #
edge $-1 $364 -21.245828700684378 $518 21.245828700684378 $362 $519 forward 7 unknown #
face $-1 $291 $363 $14 $-1 $520 reversed single #
point $-1 -78.100527970213932 45.519829800395264 21.245828700684378 #
face $-1 $521 $522 $15 $-1 $523 reversed single #
loop $-1 $-1 $524 $367 #
plane-surface $-1 0 -56.925663345033612 9.5232171971313786 0 0 1 1 0 0 forward_v I I I I #
coedge $-1 $525 $526 $527 $528 forward $368 $-1 #
coedge $-1 $370 $529 $530 $531 forward $298 $-1 #
coedge $-1 $530 $379 $371 $451 forward $381 $-1 #
edge $-1 $532 -108.92630368512505 $453 -90.594951971024244 $450 $533 forward 7 unknown #
edge $-1 $532 -156.20105594042781 $454 -131.13609562592563 $372 $534 forward 7 unknown #
vertex $-1 $451 $535 #
vertex $-1 $375 $536 #
straight-curve $-1 42.904943556485421 23.79734826368145 21.24582870068437 -1 0 0 I I #
straight-curve $-1 61.006266362835198 14.470263732705387 21.24582870068437 0 1 0 I I #
edge $-1 $377 -19.613442934434712 $532 -9.3270845309760624 $379 $537 forward 7 unknown #
point $-1 78.100527970213918 34.083706667140099 2.9144769865835798 #
coedge $-1 $380 $538 $539 $540 reversed $381 $-1 #
face $-1 $-1 $381 $15 $-1 $541 reversed single #
coedge $-1 $529 $383 $542 $543 forward $298 $-1 #
coedge $-1 $539 $544 $383 $463 reversed $545 $-1 #
edge $-1 $464 -78.100527970213932 $546 78.100527970213932 $462 $547 forward 7 unknown #
vertex $-1 $384 $548 #
straight-curve $-1 78.100527970213932 0 21.245828700684378 0 1 0 I I #
plane-surface $-1 0 45.519829800395264 0 0 -1 0 0 0 -1 forward_v I I I I #
coedge $-1 $396 $390 $392 $469 forward $318 $-1 #
straight-curve $-1 0 -45.519829800395264 -21.245828700684378 -1 0 0 I I #
edge $-1 $393 -45.519829800395264 $472 45.519829800395264 $392 $549 forward 7 unknown #
point $-1 -78.100527970213932 -45.519829800395264 -21.245828700684378 #
vertex $-1 $408 $550 #
vertex $-1 $474 $551 #
straight-curve $-1 -78.100527970213932 45.519829800395264 0 0 0 -1 I I #
edge $-1 $472 -78.100527970213932 $397 78.100527970213932 $404 $552 forward 7 unknown #
point $-1 78.100527970213932 45.519829800395264 -21.245828700684378 #
straight-curve $-1 -78.100527970213932 0 21.245828700684378 0 -1 0 I I #
straight-curve $-1 0 45.519829800395264 21.245828700684378 -1 0 0 I I #
face $-1 $516 $509 $14 $-1 $553 reversed single #
loop $-1 $-1 $419 $410 #
coedge $-1 $554 $505 $415 $486 forward $411 $-1 #
coedge $-1 $496 $413 $414 $485 reversed $342 $-1 #
coedge $-1 $490 $555 $413 $483 reversed $439 $-1 #
edge $-1 $497 -4.0549726282909617 $556 4.0549726282909635 $482 $557 forward 7 unknown #
coedge $-1 $415 $414 $555 $558 forward $277 $-1 #
edge $-1 $488 -78.100527970213932 $556 78.100527970213932 $481 $559 forward 7 unknown #
edge $-1 $487 -78.100527970213932 $560 78.100527970213932 $480 $561 forward 7 unknown #
vertex $-1 $506 $562 #
vertex $-1 $499 $563 #
straight-curve $-1 78.100527970213932 -56.925663345033612 9.5232171971313786 0 -1 0 I I #
coedge $-1 $438 $482 $418 $491 reversed $439 $-1 #
edge $-1 $494 -11.405833544638355 $497 11.405833544638355 $490 $564 forward 7 unknown #
coedge $-1 $428 $419 $424 $500 reversed $479 $-1 #
coedge $-1 $419 $428 $438 $515 forward $479 $-1 #
vertex $-1 $515 $565 #
straight-curve $-1 0 -45.519829800395264 17.633162453713304 1 0 0 I I #
coedge $-1 $421 $481 $423 $499 reversed $342 $-1 #
vertex $-1 $491 $566 #
straight-curve $-1 0 -68.331496889671968 17.633162453713304 1 0 0 I I #
edge $-1 $425 -4.0549726282909617 $488 4.0549726282909635 $423 $567 forward 7 unknown #
edge $-1 $430 -21.245828700684378 $426 -17.633162453713304 $424 $568 forward 7 unknown #
point $-1 78.100527970213932 -68.331496889671968 17.633162453713304 #
point $-1 78.100527970213932 -45.519829800395257 17.633162453713304 #
straight-curve $-1 0 -45.519829800395264 21.245828700684378 1 0 0 I I #
point $-1 78.100527970213932 -45.519829800395264 21.245828700684378 #
coedge $-1 $480 $569 $431 $506 reversed $411 $-1 #
edge $-1 $487 -9.5232171971313786 $510 21.245828700684378 $431 $568 forward 7 unknown #
coedge $-1 $570 $432 $569 $571 forward $509 $-1 #
coedge $-1 $432 $570 $434 $512 forward $509 $-1 #
loop $-1 $-1 $432 $478 #
vertex $-1 $506 $572 #
straight-curve $-1 78.100527970213932 0 -21.245828700684378 0 -1 0 I I #
edge $-1 $518 -78.100527970213932 $435 78.100527970213932 $434 $573 forward 7 unknown #
point $-1 78.100527970213932 45.519829800395264 -21.245828700684378 #
coedge $-1 $574 $437 $570 $575 reversed $439 $-1 #
edge $-1 $440 -21.245828700684378 $494 -17.633162453713304 $438 $576 forward 7 unknown #
face $-1 $443 $439 $14 $-1 $577 reversed single #
point $-1 -78.100527970213932 -45.519829800395264 21.245828700684378 #
vertex $-1 $512 $578 #
straight-curve $-1 -78.100527970213932 45.519829800395264 0 0 0 -1 I I #
plane-surface $-1 0 45.519829800395264 0 0 -1 0 0 0 -1 forward_v I I I I #
face $-1 $579 $580 $15 $-1 $581 reversed single #
loop $-1 $-1 $582 $445 #
plane-surface $-1 0 -68.331496889671968 13.578189825422342 0 1 0 0 0 1 forward_v I I I I #
coedge $-1 $583 $584 $585 $586 forward $446 $-1 #
coedge $-1 $587 $448 $588 $589 reversed $368 $-1 #
coedge $-1 $448 $587 $590 $591 forward $368 $-1 #
coedge $-1 $592 $593 $448 $528 reversed $381 $-1 #
edge $-1 $594 -11.405833544638355 $595 11.405833544638355 $527 $596 forward 7 unknown #
coedge $-1 $449 $461 $597 $598 forward $298 $-1 #
coedge $-1 $593 $450 $449 $531 reversed $381 $-1 #
edge $-1 $599 -45.519829800395264 $453 23.79734826368145 $530 $465 forward 7 unknown #
vertex $-1 $457 $600 #
straight-curve $-1 78.100527970213932 23.79734826368145 111.84078067170863 0 0 1 I I #
straight-curve $-1 -28.428334636824459 23.79734826368145 117.15269873637884 -0.68199835119979291 0 0.73135370988377701 I I #
point $-1 78.100527970213932 23.79734826368145 21.245828700684378 #
point $-1 61.006266362835191 23.79734826368145 21.245828700684385 #
straight-curve $-1 78.100527970213932 14.470263732705387 2.9144769865835656 0 -1 0 I I #
coedge $-1 $459 $601 $602 $603 reversed $381 $-1 #
coedge $-1 $604 $462 $459 $540 forward $545 $-1 #
edge $-1 $464 -21.245828700684378 $605 21.245828700684378 $459 $606 forward 7 unknown #
plane-surface $-1 78.100527970213932 0 0 -1 0 0 0 0 1 forward_v I I I I #
coedge $-1 $607 $608 $461 $543 reversed $609 $-1 #
edge $-1 $546 -45.519829800395264 $610 45.519829800395264 $542 $611 forward 7 unknown #
coedge $-1 $462 $604 $607 $612 reversed $545 $-1 #
loop $-1 $-1 $539 $613 #
vertex $-1 $463 $614 #
straight-curve $-1 0 45.519829800395264 21.245828700684378 -1 0 0 I I #
point $-1 78.100527970213932 45.519829800395264 21.245828700684378 #
straight-curve $-1 -78.100527970213932 0 -21.245828700684378 0 1 0 I I #
point $-1 -78.100527970213932 45.519829800395264 21.245828700684378 #
point $-1 -78.100527970213932 45.519829800395264 -21.245828700684378 #
straight-curve $-1 0 45.519829800395264 -21.245828700684378 1 0 0 I I #
plane-surface $-1 0 0 -21.245828700684378 0 0 1 1 0 0 forward_v I I I I #
coedge $-1 $569 $480 $574 $615 forward $411 $-1 #
coedge $-1 $482 $574 $484 $558 reversed $439 $-1 #
vertex $-1 $558 $616 #
straight-curve $-1 -78.100527970213932 -68.331496889671968 13.578189825422342 0 0 -1 I I #
edge $-1 $556 -11.405833544638355 $560 11.405833544638355 $555 $617 forward 7 unknown #
straight-curve $-1 0 -68.331496889671968 9.5232171971313786 -1 0 0 I I #
vertex $-1 $615 $618 #
straight-curve $-1 0 -45.519829800395264 9.5232171971313786 -1 0 0 I I #
point $-1 78.100527970213932 -45.519829800395257 9.5232171971313786 #
point $-1 78.100527970213932 -68.331496889671968 9.5232171971313786 #
straight-curve $-1 -78.100527970213932 -56.925663345033612 17.633162453713304 0 -1 0 I I #
point $-1 -78.100527970213932 -45.519829800395257 17.633162453713304 #
point $-1 -78.100527970213932 -68.331496889671968 17.633162453713304 #
straight-curve $-1 78.100527970213932 -68.331496889671968 13.578189825422342 0 0 -1 I I #
straight-curve $-1 78.100527970213932 -45.519829800395264 0 0 0 -1 I I #
coedge $-1 $505 $554 $507 $571 reversed $411 $-1 #
coedge $-1 $508 $507 $514 $575 forward $509 $-1 #
edge $-1 $510 -78.100527970213932 $619 78.100527970213932 $569 $620 forward 7 unknown #
point $-1 78.100527970213932 -45.519829800395264 -21.245828700684378 #
straight-curve $-1 0 45.519829800395264 -21.245828700684378 1 0 0 I I #
coedge $-1 $555 $514 $554 $615 reversed $439 $-1 #
edge $-1 $619 -45.519829800395264 $518 45.519829800395264 $514 $621 forward 7 unknown #
straight-curve $-1 -78.100527970213932 -45.519829800395264 0 0 0 -1 I I #
plane-surface $-1 -78.100527970213932 0 0 1 0 0 0 0 -1 forward_v I I I I #
point $-1 -78.100527970213932 45.519829800395264 -21.245828700684378 #
face $-1 $622 $623 $15 $-1 $581 reversed single #
loop $-1 $-1 $624 $521 #
plane-surface $-1 0 -45.519829800395264 0 0 1 0 0 0 1 forward_v I I I I #
coedge $-1 $625 $590 $626 $627 forward $522 $-1 #
coedge $-1 $628 $524 $625 $629 forward $446 $-1 #
coedge $-1 $524 $628 $624 $630 reversed $446 $-1 #
coedge $-1 $601 $592 $524 $586 reversed $381 $-1 #
edge $-1 $631 -11.405833544638355 $632 11.405833544638355 $585 $633 forward 7 unknown #
coedge $-1 $526 $525 $634 $635 forward $368 $-1 #
coedge $-1 $636 $637 $525 $589 forward $623 $-1 #
edge $-1 $638 -78.100527970213932 $595 78.100527970213932 $588 $639 forward 7 unknown #
coedge $-1 $582 $640 $526 $591 reversed $522 $-1 #
edge $-1 $641 -78.100527970213932 $594 78.100527970213932 $590 $642 forward 7 unknown #
coedge $-1 $585 $527 $640 $643 forward $381 $-1 #
coedge $-1 $527 $530 $636 $644 forward $381 $-1 #
vertex $-1 $528 $645 #
vertex $-1 $528 $646 #
straight-curve $-1 78.100527970213932 -56.925663345033612 17.633162453713304 0 1 0 I I #
coedge $-1 $637 $636 $529 $598 reversed $623 $-1 #
edge $-1 $610 -78.100527970213932 $599 78.100527970213932 $597 $647 forward 7 unknown #
vertex $-1 $531 $648 #
point $-1 78.100527970213918 23.79734826368145 2.9144769865835798 #
coedge $-1 $538 $585 $649 $650 forward $381 $-1 #
coedge $-1 $651 $652 $538 $603 forward $653 $-1 #
edge $-1 $605 -45.519829800395264 $654 45.519829800395264 $538 $655 forward 7 unknown #
coedge $-1 $544 $539 $652 $656 reversed $545 $-1 #
vertex $-1 $603 $657 #
straight-curve $-1 78.100527970213932 45.519829800395264 0 0 0 -1 I I #
coedge $-1 $658 $542 $544 $612 forward $609 $-1 #
coedge $-1 $542 $634 $637 $659 reversed $609 $-1 #
loop $-1 $-1 $607 $660 #
vertex $-1 $543 $661 #
straight-curve $-1 -78.100527970213932 0 21.245828700684378 0 -1 0 I I #
edge $-1 $546 -21.245828700684378 $662 21.245828700684378 $544 $663 forward 7 unknown #
face $-1 $460 $545 $15 $-1 $664 reversed single #
point $-1 -78.100527970213932 45.519829800395264 21.245828700684378 #
edge $-1 $560 -9.5232171971313786 $619 21.245828700684378 $574 $576 forward 7 unknown #
point $-1 -78.100527970213932 -68.331496889671968 9.5232171971313786 #
straight-curve $-1 -78.100527970213932 -56.925663345033612 9.5232171971313786 0 1 0 I I #
point $-1 -78.100527970213932 -45.519829800395257 9.5232171971313786 #
vertex $-1 $575 $665 #
straight-curve $-1 0 -45.519829800395264 -21.245828700684378 -1 0 0 I I #
straight-curve $-1 -78.100527970213932 0 -21.245828700684378 0 1 0 I I #
face $-1 $660 $653 $15 $-1 $666 reversed single #
loop $-1 $-1 $588 $579 #
coedge $-1 $667 $649 $584 $630 forward $580 $-1 #
coedge $-1 $640 $582 $583 $629 reversed $522 $-1 #
coedge $-1 $634 $668 $582 $627 reversed $609 $-1 #
edge $-1 $641 -4.0549726282909617 $669 4.0549726282909635 $626 $670 forward 7 unknown #
coedge $-1 $584 $583 $668 $671 forward $446 $-1 #
edge $-1 $632 -78.100527970213932 $669 78.100527970213932 $625 $672 forward 7 unknown #
edge $-1 $631 -78.100527970213932 $673 78.100527970213932 $624 $674 forward 7 unknown #
vertex $-1 $650 $675 #
vertex $-1 $643 $676 #
straight-curve $-1 78.100527970213932 -56.925663345033612 9.5232171971313786 0 -1 0 I I #
coedge $-1 $608 $626 $587 $635 reversed $609 $-1 #
edge $-1 $638 -11.405833544638355 $641 11.405833544638355 $634 $677 forward 7 unknown #
coedge $-1 $597 $588 $593 $644 reversed $623 $-1 #
coedge $-1 $588 $597 $608 $659 forward $623 $-1 #
vertex $-1 $659 $678 #
straight-curve $-1 0 -45.519829800395264 17.633162453713304 1 0 0 I I #
coedge $-1 $590 $625 $592 $643 reversed $522 $-1 #
vertex $-1 $635 $679 #
straight-curve $-1 0 -68.331496889671968 17.633162453713304 1 0 0 I I #
edge $-1 $594 -4.0549726282909617 $632 4.0549726282909635 $592 $680 forward 7 unknown #
edge $-1 $599 -21.245828700684378 $595 -17.633162453713304 $593 $681 forward 7 unknown #
point $-1 78.100527970213932 -68.331496889671968 17.633162453713304 #
point $-1 78.100527970213932 -45.519829800395257 17.633162453713304 #
straight-curve $-1 0 -45.519829800395264 21.245828700684378 1 0 0 I I #
point $-1 78.100527970213932 -45.519829800395264 21.245828700684378 #
coedge $-1 $624 $682 $601 $650 reversed $580 $-1 #
edge $-1 $631 -9.5232171971313786 $654 21.245828700684378 $601 $681 forward 7 unknown #
coedge $-1 $683 $602 $682 $684 forward $653 $-1 #
coedge $-1 $602 $683 $604 $656 forward $653 $-1 #
loop $-1 $-1 $602 $622 #
vertex $-1 $650 $685 #
straight-curve $-1 78.100527970213932 0 -21.245828700684378 0 -1 0 I I #
edge $-1 $662 -78.100527970213932 $605 78.100527970213932 $604 $686 forward 7 unknown #
point $-1 78.100527970213932 45.519829800395264 -21.245828700684378 #
coedge $-1 $687 $607 $683 $688 reversed $609 $-1 #
edge $-1 $610 -21.245828700684378 $638 -17.633162453713304 $608 $689 forward 7 unknown #
face $-1 $613 $609 $15 $-1 $690 reversed single #
point $-1 -78.100527970213932 -45.519829800395264 21.245828700684378 #
vertex $-1 $656 $691 #
straight-curve $-1 -78.100527970213932 45.519829800395264 0 0 0 -1 I I #
plane-surface $-1 0 45.519829800395264 0 0 -1 0 0 0 -1 forward_v I I I I #
point $-1 -78.100527970213932 -45.519829800395264 -21.245828700684378 #
plane-surface $-1 0 0 -21.245828700684378 0 0 1 1 0 0 forward_v I I I I #
coedge $-1 $682 $624 $687 $692 forward $580 $-1 #
coedge $-1 $626 $687 $628 $671 reversed $609 $-1 #
vertex $-1 $671 $693 #
straight-curve $-1 -78.100527970213932 -68.331496889671968 13.578189825422342 0 0 -1 I I #
edge $-1 $669 -11.405833544638355 $673 11.405833544638355 $668 $694 forward 7 unknown #
straight-curve $-1 0 -68.331496889671968 9.5232171971313786 -1 0 0 I I #
vertex $-1 $692 $695 #
straight-curve $-1 0 -45.519829800395264 9.5232171971313786 -1 0 0 I I #
point $-1 78.100527970213932 -45.519829800395257 9.5232171971313786 #
point $-1 78.100527970213932 -68.331496889671968 9.5232171971313786 #
straight-curve $-1 -78.100527970213932 -56.925663345033612 17.633162453713304 0 -1 0 I I #
point $-1 -78.100527970213932 -45.519829800395257 17.633162453713304 #
point $-1 -78.100527970213932 -68.331496889671968 17.633162453713304 #
straight-curve $-1 78.100527970213932 -68.331496889671968 13.578189825422342 0 0 -1 I I #
straight-curve $-1 78.100527970213932 -45.519829800395264 0 0 0 -1 I I #
coedge $-1 $649 $667 $651 $684 reversed $580 $-1 #
coedge $-1 $652 $651 $658 $688 forward $653 $-1 #
edge $-1 $654 -78.100527970213932 $696 78.100527970213932 $682 $697 forward 7 unknown #
point $-1 78.100527970213932 -45.519829800395264 -21.245828700684378 #
straight-curve $-1 0 45.519829800395264 -21.245828700684378 1 0 0 I I #
coedge $-1 $668 $658 $667 $692 reversed $609 $-1 #
edge $-1 $696 -45.519829800395264 $662 45.519829800395264 $658 $698 forward 7 unknown #
straight-curve $-1 -78.100527970213932 -45.519829800395264 0 0 0 -1 I I #
plane-surface $-1 -78.100527970213932 0 0 1 0 0 0 0 -1 forward_v I I I I #
point $-1 -78.100527970213932 45.519829800395264 -21.245828700684378 #
edge $-1 $673 -9.5232171971313786 $696 21.245828700684378 $687 $689 forward 7 unknown #
point $-1 -78.100527970213932 -68.331496889671968 9.5232171971313786 #
straight-curve $-1 -78.100527970213932 -56.925663345033612 9.5232171971313786 0 1 0 I I #
point $-1 -78.100527970213932 -45.519829800395257 9.5232171971313786 #
vertex $-1 $688 $699 #
straight-curve $-1 0 -45.519829800395264 -21.245828700684378 -1 0 0 I I #
straight-curve $-1 -78.100527970213932 0 -21.245828700684378 0 1 0 I I #
point $-1 -78.100527970213932 -45.519829800395264 -21.245828700684378 #
End-of-ACIS-data 