500 0 14 0           
7 Unknown 11 ACIS 5.0 NT 24 Fri Mar 26 19:25:53 1999 
-1 9.9999999999999995e-007 1e-010 
body $-1 $14 $-1 $15 #
body $-1 $16 $-1 $17 #
body $-1 $18 $-1 $19 #
body $-1 $20 $-1 $21 #
body $-1 $22 $-1 $23 #
body $-1 $24 $-1 $25 #
body $-1 $26 $-1 $27 #
body $-1 $28 $-1 $29 #
body $-1 $30 $-1 $31 #
body $-1 $32 $-1 $33 #
body $-1 $34 $-1 $35 #
body $-1 $36 $-1 $37 #
body $-1 $38 $-1 $39 #
body $-1 $40 $-1 $41 #
lump $-1 $-1 $42 $0 #
transform $-1 1 0 0 0 1 0 0 0 1 41.098666341135896 20.475456665318983 9.476623983211617 1 rotate no_reflect no_shear #
lump $-1 $-1 $43 $1 #
transform $-1 1 0 0 0 1 0 0 0 1 41.098666341135896 20.475456665318983 9.476623983211617 1 rotate no_reflect no_shear #
lump $-1 $-1 $44 $2 #
transform $-1 1 0 0 0 1 0 0 0 1 41.098666341135896 20.475456665318983 9.476623983211617 1 rotate no_reflect no_shear #
lump $-1 $-1 $45 $3 #
transform $-1 1 0 0 0 1 0 0 0 1 41.098666341135896 20.475456665318983 9.476623983211617 1 rotate no_reflect no_shear #
lump $-1 $-1 $46 $4 #
transform $-1 1 0 0 0 1 0 0 0 1 41.098666341135896 20.475456665318983 9.476623983211617 1 rotate no_reflect no_shear #
lump $-1 $-1 $47 $5 #
transform $-1 1 0 0 0 1 0 0 0 1 41.098666341135896 20.475456665318983 9.476623983211617 1 rotate no_reflect no_shear #
lump $-1 $-1 $48 $6 #
transform $-1 1 0 0 0 1 0 0 0 1 41.098666341135896 20.475456665318983 9.476623983211617 1 rotate no_reflect no_shear #
lump $-1 $-1 $49 $7 #
transform $-1 1 0 0 0 1 0 0 0 1 41.098666341135896 20.475456665318983 9.476623983211617 1 rotate no_reflect no_shear #
lump $-1 $-1 $50 $8 #
transform $-1 1 0 0 0 1 0 0 0 1 41.098666341135896 20.475456665318983 9.476623983211617 1 rotate no_reflect no_shear #
lump $-1 $-1 $51 $9 #
transform $-1 1 0 0 0 1 0 0 0 1 41.098666341135896 20.475456665318983 9.476623983211617 1 rotate no_reflect no_shear #
lump $-1 $-1 $52 $10 #
transform $-1 1 0 0 0 1 0 0 0 1 41.098666341135896 20.475456665318983 9.476623983211617 1 rotate no_reflect no_shear #
lump $-1 $-1 $53 $11 #
transform $-1 1 0 0 0 1 0 0 0 1 41.098666341135896 20.475456665318983 9.476623983211617 1 rotate no_reflect no_shear #
lump $-1 $-1 $54 $12 #
transform $-1 1 0 0 0 1 0 0 0 1 41.098666341135896 20.475456665318983 9.476623983211617 1 rotate no_reflect no_shear #
lump $-1 $-1 $55 $13 #
transform $-1 1 0 0 0 1 0 0 0 1 41.098666341135896 20.475456665318983 9.476623983211617 1 rotate no_reflect no_shear #
shell $-1 $-1 $-1 $56 $-1 $14 #
shell $-1 $-1 $-1 $57 $-1 $16 #
shell $-1 $-1 $-1 $58 $-1 $18 #
shell $-1 $-1 $-1 $59 $-1 $20 #
shell $-1 $-1 $-1 $60 $-1 $22 #
shell $-1 $-1 $-1 $61 $-1 $24 #
shell $-1 $-1 $-1 $62 $-1 $26 #
shell $-1 $-1 $-1 $63 $-1 $28 #
shell $-1 $-1 $-1 $64 $-1 $30 #
shell $-1 $-1 $-1 $65 $-1 $32 #
shell $-1 $-1 $-1 $66 $-1 $34 #
shell $-1 $-1 $-1 $67 $-1 $36 #
shell $-1 $-1 $-1 $68 $-1 $38 #
shell $-1 $-1 $-1 $69 $-1 $40 #
face $-1 $70 $71 $42 $-1 $72 forward single #
face $-1 $73 $74 $43 $-1 $75 forward single #
face $-1 $76 $77 $44 $-1 $78 reversed single #
face $-1 $79 $80 $45 $-1 $81 forward single #
face $-1 $82 $83 $46 $-1 $84 forward single #
face $-1 $85 $86 $47 $-1 $87 forward single #
face $-1 $88 $89 $48 $-1 $90 reversed single #
face $-1 $91 $92 $49 $-1 $93 forward single #
face $-1 $94 $95 $50 $-1 $96 forward single #
face $-1 $97 $98 $51 $-1 $99 forward single #
face $-1 $100 $101 $52 $-1 $102 reversed single #
face $-1 $103 $104 $53 $-1 $105 forward single #
face $-1 $106 $107 $54 $-1 $108 forward single #
face $-1 $109 $110 $55 $-1 $111 forward single #
face $-1 $112 $113 $42 $-1 $114 reversed single #
loop $-1 $-1 $115 $56 #
plane-surface $-1 0 0 9.476623983211617 0 0 1 1 0 0 forward_v I I I I #
face $-1 $116 $117 $43 $-1 $118 reversed single #
loop $-1 $-1 $119 $57 #
plane-surface $-1 -36.293257063721036 0 -6.476623983211617 0 0 1 1 0 0 forward_v I I I I #
face $-1 $120 $121 $44 $-1 $122 reversed single #
loop $-1 $-1 $123 $58 #
plane-surface $-1 -19.687250293207164 -80.59078086504951 59.704622388554917 1 0 0 0 0.73135370988377701 -0.68199835119979291 forward_v I I I I #
face $-1 $124 $125 $45 $-1 $126 forward single #
loop $-1 $127 $128 $59 #
cone-surface $-1 -17.752599386866631 -17.39129000326664 6.2204013291182614 0 0.73135370988377701 -0.68199835119979291 0.25 0 0 1 I I 0 1 0.25 forward I I I I #
face $-1 $129 $130 $46 $-1 $131 forward single #
loop $-1 $132 $133 $60 #
cone-surface $-1 -14.85062302735583 -17.39129000326664 6.2204013291182614 0 0.73135370988377701 -0.68199835119979291 0.25 0 0 1 I I 0 1 0.25 forward I I I I #
face $-1 $134 $135 $47 $-1 $136 forward single #
loop $-1 $137 $138 $61 #
cone-surface $-1 -11.948646667845029 -17.39129000326664 6.2204013291182614 0 0.73135370988377701 -0.68199835119979291 0.25 0 0 1 I I 0 1 0.25 forward I I I I #
face $-1 $139 $140 $48 $-1 $141 reversed single #
loop $-1 $-1 $142 $62 #
plane-surface $-1 -22.71973466022996 65.720674851447328 81.284760922063469 1 0 0 0 -0.82903758062907751 -0.55919289150049634 forward_v I I I I #
face $-1 $143 $144 $49 $-1 $145 forward single #
loop $-1 $146 $147 $63 #
cone-surface $-1 -19.406544743863876 16.093774344332243 4.3121363717211247 0 -0.82903758062907751 -0.55919289150049634 1 0 0 1 I I 0 1 1 forward I I I I #
face $-1 $148 $149 $50 $-1 $150 forward single #
loop $-1 $151 $152 $64 #
cone-surface $-1 -14.436759869314749 16.093774344332243 4.3121363717211247 0 -0.82903758062907751 -0.55919289150049634 1 0 0 1 I I 0 1 1 forward I I I I #
face $-1 $153 $154 $51 $-1 $155 forward single #
loop $-1 $156 $157 $65 #
cone-surface $-1 -9.4669749947656214 16.093774344332243 4.3121363717211247 0 -0.82903758062907751 -0.55919289150049634 1 0 0 1 I I 0 1 1 forward I I I I #
face $-1 $158 $159 $52 $-1 $160 reversed single #
loop $-1 $-1 $161 $66 #
plane-surface $-1 13.573522403491079 65.720674851447328 81.284760922063469 1 0 0 0 -0.82903758062907751 -0.55919289150049634 forward_v I I I I #
face $-1 $162 $163 $53 $-1 $164 forward single #
loop $-1 $165 $166 $67 #
cone-surface $-1 16.88671231985716 16.093774344332243 4.3121363717211247 0 -0.82903758062907751 -0.55919289150049634 1 0 0 1 I I 0 1 1 forward I I I I #
face $-1 $167 $168 $54 $-1 $169 forward single #
loop $-1 $170 $171 $68 #
cone-surface $-1 21.856497194406288 16.093774344332243 4.3121363717211247 0 -0.82903758062907751 -0.55919289150049634 1 0 0 1 I I 0 1 1 forward I I I I #
face $-1 $172 $173 $55 $-1 $174 forward single #
loop $-1 $175 $176 $69 #
cone-surface $-1 26.826282068955408 16.093774344332243 4.3121363717211247 0 -0.82903758062907751 -0.55919289150049634 1 0 0 1 I I 0 1 1 forward I I I I #
face $-1 $177 $178 $42 $-1 $179 reversed single #
loop $-1 $-1 $180 $70 #
plane-surface $-1 0 0 -9.476623983211617 0 0 1 1 0 0 forward_v I I I I #
coedge $-1 $181 $182 $183 $184 forward $71 $-1 #
face $-1 $185 $186 $43 $-1 $187 reversed single #
loop $-1 $-1 $188 $73 #
plane-surface $-1 -31.48784778630618 0 -7.976623983211617 -1 0 0 0 0 1 forward_v I I I I #
coedge $-1 $189 $190 $191 $192 forward $74 $-1 #
face $-1 $193 $194 $44 $-1 $195 reversed single #
loop $-1 $-1 $196 $76 #
plane-surface $-1 -14.85062302735583 -20.475456665319001 3.6461770262247057 0 -0.73135370988377701 0.68199835119979291 1 0 0 forward_v I I I I #
coedge $-1 $197 $198 $199 $200 reversed $77 $-1 #
face $-1 $-1 $201 $45 $-1 $202 forward single #
loop $-1 $203 $204 $79 #
cone-surface $-1 -17.752599386866631 -16.934193934589281 5.7941523596183906 0 0.73135370988377701 -0.68199835119979291 0.125 0 0 1 I I -0.70710678118654746 0.70710678118654746 0.125 forward I I I I #
loop $-1 $-1 $205 $59 #
coedge $-1 $128 $128 $206 $207 reversed $80 $-1 #
face $-1 $-1 $208 $46 $-1 $209 forward single #
loop $-1 $210 $211 $82 #
cone-surface $-1 -14.85062302735583 -16.934193934589281 5.7941523596183906 0 0.73135370988377701 -0.68199835119979291 0.125 0 0 1 I I -0.70710678118654746 0.70710678118654746 0.125 forward I I I I #
loop $-1 $-1 $212 $60 #
coedge $-1 $133 $133 $213 $214 reversed $83 $-1 #
face $-1 $-1 $215 $47 $-1 $216 forward single #
loop $-1 $217 $218 $85 #
cone-surface $-1 -11.948646667845029 -16.934193934589281 5.7941523596183906 0 0.73135370988377701 -0.68199835119979291 0.125 0 0 1 I I -0.70710678118654746 0.70710678118654746 0.125 forward I I I I #
loop $-1 $-1 $219 $61 #
coedge $-1 $138 $138 $220 $221 reversed $86 $-1 #
face $-1 $222 $223 $48 $-1 $224 reversed single #
loop $-1 $-1 $225 $88 #
plane-surface $-1 -14.436759869314752 -2.4240029696266845 35.320596785835654 0 0.82903758062907751 0.55919289150049634 1 0 0 forward_v I I I I #
coedge $-1 $226 $227 $228 $229 reversed $89 $-1 #
face $-1 $-1 $230 $49 $-1 $231 forward single #
loop $-1 $232 $233 $91 #
cone-surface $-1 -19.406544743863876 14.031313439759334 2.9209889692599305 0 -0.82903758062907751 -0.55919289150049634 0.5 0 0 1 I I -0.70710678118654746 0.70710678118654746 0.5 forward I I I I #
loop $-1 $-1 $234 $63 #
coedge $-1 $147 $147 $235 $236 reversed $92 $-1 #
face $-1 $-1 $237 $50 $-1 $238 forward single #
loop $-1 $239 $240 $94 #
cone-surface $-1 -14.436759869314749 14.031313439759334 2.9209889692599305 0 -0.82903758062907751 -0.55919289150049634 0.5 0 0 1 I I -0.70710678118654746 0.70710678118654746 0.5 forward I I I I #
loop $-1 $-1 $241 $64 #
coedge $-1 $152 $152 $242 $243 reversed $95 $-1 #
face $-1 $-1 $244 $51 $-1 $245 forward single #
loop $-1 $246 $247 $97 #
cone-surface $-1 -9.4669749947656214 14.031313439759334 2.9209889692599305 0 -0.82903758062907751 -0.55919289150049634 0.5 0 0 1 I I -0.70710678118654746 0.70710678118654746 0.5 forward I I I I #
loop $-1 $-1 $248 $65 #
coedge $-1 $157 $157 $249 $250 reversed $98 $-1 #
face $-1 $251 $252 $52 $-1 $253 reversed single #
loop $-1 $-1 $254 $100 #
plane-surface $-1 21.856497194406288 -2.4240029696266845 35.320596785835654 0 0.82903758062907751 0.55919289150049634 1 0 0 forward_v I I I I #
coedge $-1 $255 $256 $257 $258 reversed $101 $-1 #
face $-1 $-1 $259 $53 $-1 $260 forward single #
loop $-1 $261 $262 $103 #
cone-surface $-1 16.88671231985716 14.031313439759334 2.9209889692599305 0 -0.82903758062907751 -0.55919289150049634 0.5 0 0 1 I I -0.70710678118654746 0.70710678118654746 0.5 forward I I I I #
loop $-1 $-1 $263 $67 #
coedge $-1 $166 $166 $264 $265 reversed $104 $-1 #
face $-1 $-1 $266 $54 $-1 $267 forward single #
loop $-1 $268 $269 $106 #
cone-surface $-1 21.856497194406288 14.031313439759334 2.9209889692599305 0 -0.82903758062907751 -0.55919289150049634 0.5 0 0 1 I I -0.70710678118654746 0.70710678118654746 0.5 forward I I I I #
loop $-1 $-1 $270 $68 #
coedge $-1 $171 $171 $271 $272 reversed $107 $-1 #
face $-1 $-1 $273 $55 $-1 $274 forward single #
loop $-1 $275 $276 $109 #
cone-surface $-1 26.826282068955408 14.031313439759334 2.9209889692599305 0 -0.82903758062907751 -0.55919289150049634 0.5 0 0 1 I I -0.70710678118654746 0.70710678118654746 0.5 forward I I I I #
loop $-1 $-1 $277 $69 #
coedge $-1 $176 $176 $278 $279 reversed $110 $-1 #
face $-1 $280 $281 $42 $-1 $282 reversed single #
loop $-1 $-1 $283 $112 #
plane-surface $-1 0 -20.475456665318983 0 0 1 0 0 0 1 forward_v I I I I #
coedge $-1 $284 $285 $286 $287 forward $113 $-1 #
coedge $-1 $288 $115 $289 $290 forward $71 $-1 #
coedge $-1 $115 $288 $291 $292 forward $71 $-1 #
coedge $-1 $293 $294 $115 $184 reversed $295 $-1 #
edge $-1 $296 -20.475456665318983 $297 20.475456665318983 $183 $298 forward 7 unknown #
face $-1 $299 $300 $43 $-1 $301 reversed single #
loop $-1 $-1 $302 $116 #
plane-surface $-1 0 0 -9.476623983211617 0 0 1 1 0 0 forward_v I I I I #
coedge $-1 $303 $191 $304 $305 reversed $117 $-1 #
coedge $-1 $306 $119 $307 $308 reversed $74 $-1 #
coedge $-1 $119 $306 $309 $310 reversed $74 $-1 #
coedge $-1 $188 $311 $119 $192 reversed $117 $-1 #
edge $-1 $312 -20.475456665318983 $313 20.475456665318983 $191 $314 forward 7 unknown #
face $-1 $315 $316 $44 $-1 $317 forward single #
loop $-1 $-1 $318 $120 #
plane-surface $-1 -10.013995761504496 -80.59078086504951 59.704622388554917 -1 0 0 0 -0.73135370988377701 0.68199835119979291 forward_v I I I I #
coedge $-1 $319 $320 $321 $322 reversed $121 $-1 #
coedge $-1 $198 $123 $323 $324 reversed $77 $-1 #
coedge $-1 $123 $197 $319 $325 reversed $77 $-1 #
coedge $-1 $321 $326 $123 $200 forward $327 $-1 #
edge $-1 $328 20.375687211065841 $329 26.206134168052735 $199 $330 forward 7 unknown #
loop $-1 $-1 $206 $124 #
plane-surface $-1 -14.85062302735583 -20.475456665319001 3.6461770262247057 0 -0.73135370988377701 0.68199835119979291 1 0 0 forward_v I I I I #
loop $-1 $-1 $331 $79 #
coedge $-1 $204 $204 $205 $332 reversed $125 $-1 #
coedge $-1 $205 $205 $204 $332 forward $127 $-1 #
coedge $-1 $206 $206 $128 $207 forward $201 $-1 #
edge $-1 $333 2.3910533315920498e-015 $333 6.2831853071796031 $206 $334 forward 7 unknown #
loop $-1 $-1 $213 $129 #
plane-surface $-1 -14.85062302735583 -20.475456665319001 3.6461770262247057 0 -0.73135370988377701 0.68199835119979291 1 0 0 forward_v I I I I #
loop $-1 $-1 $335 $82 #
coedge $-1 $211 $211 $212 $336 reversed $130 $-1 #
coedge $-1 $212 $212 $211 $336 forward $132 $-1 #
coedge $-1 $213 $213 $133 $214 forward $208 $-1 #
edge $-1 $337 2.3910533315920498e-015 $337 6.2831853071796031 $213 $338 forward 7 unknown #
loop $-1 $-1 $220 $134 #
plane-surface $-1 -14.85062302735583 -20.475456665319001 3.6461770262247057 0 -0.73135370988377701 0.68199835119979291 1 0 0 forward_v I I I I #
loop $-1 $-1 $339 $85 #
coedge $-1 $218 $218 $219 $340 reversed $135 $-1 #
coedge $-1 $219 $219 $218 $340 forward $137 $-1 #
coedge $-1 $220 $220 $138 $221 forward $215 $-1 #
edge $-1 $341 2.3910533315920498e-015 $341 6.2831853071796031 $220 $342 forward 7 unknown #
face $-1 $343 $344 $48 $-1 $345 reversed single #
loop $-1 $-1 $346 $139 #
plane-surface $-1 -6.1537850783995438 65.720674851447328 81.284760922063469 -1 0 0 0 0.82903758062907751 0.55919289150049634 forward_v I I I I #
coedge $-1 $347 $348 $349 $350 reversed $140 $-1 #
coedge $-1 $227 $142 $351 $352 reversed $89 $-1 #
coedge $-1 $142 $226 $347 $353 reversed $89 $-1 #
coedge $-1 $349 $354 $142 $229 forward $355 $-1 #
edge $-1 $356 12.38488076040468 $357 17.852361173861432 $228 $358 forward 7 unknown #
loop $-1 $-1 $235 $143 #
plane-surface $-1 -14.436759869314752 -2.4240029696266845 35.320596785835654 0 0.82903758062907751 0.55919289150049634 1 0 0 forward_v I I I I #
loop $-1 $-1 $359 $91 #
coedge $-1 $233 $233 $234 $360 reversed $144 $-1 #
coedge $-1 $234 $234 $233 $360 forward $146 $-1 #
coedge $-1 $235 $235 $147 $236 forward $230 $-1 #
edge $-1 $361 5.1398565825151937e-016 $361 6.2831853071796013 $235 $362 forward 7 unknown #
loop $-1 $-1 $242 $148 #
plane-surface $-1 -14.436759869314752 -2.4240029696266845 35.320596785835654 0 0.82903758062907751 0.55919289150049634 1 0 0 forward_v I I I I #
loop $-1 $-1 $363 $94 #
coedge $-1 $240 $240 $241 $364 reversed $149 $-1 #
coedge $-1 $241 $241 $240 $364 forward $151 $-1 #
coedge $-1 $242 $242 $152 $243 forward $237 $-1 #
edge $-1 $365 5.1398565825151937e-016 $365 6.2831853071796013 $242 $366 forward 7 unknown #
loop $-1 $-1 $249 $153 #
plane-surface $-1 -14.436759869314752 -2.4240029696266845 35.320596785835654 0 0.82903758062907751 0.55919289150049634 1 0 0 forward_v I I I I #
loop $-1 $-1 $367 $97 #
coedge $-1 $247 $247 $248 $368 reversed $154 $-1 #
coedge $-1 $248 $248 $247 $368 forward $156 $-1 #
coedge $-1 $249 $249 $157 $250 forward $244 $-1 #
edge $-1 $369 5.1398565825151937e-016 $369 6.2831853071796013 $249 $370 forward 7 unknown #
face $-1 $371 $372 $52 $-1 $373 forward single #
loop $-1 $-1 $374 $158 #
plane-surface $-1 30.139471985321496 65.720674851447328 81.284760922063469 -1 0 0 0 0.82903758062907751 0.55919289150049634 forward_v I I I I #
coedge $-1 $375 $376 $377 $378 reversed $159 $-1 #
coedge $-1 $256 $161 $379 $380 reversed $101 $-1 #
coedge $-1 $161 $255 $375 $381 reversed $101 $-1 #
coedge $-1 $377 $382 $161 $258 forward $372 $-1 #
edge $-1 $383 12.38488076040468 $384 17.852361173861432 $257 $385 forward 7 unknown #
loop $-1 $-1 $264 $162 #
plane-surface $-1 21.856497194406288 -2.4240029696266845 35.320596785835654 0 0.82903758062907751 0.55919289150049634 1 0 0 forward_v I I I I #
loop $-1 $-1 $386 $103 #
coedge $-1 $262 $262 $263 $387 reversed $163 $-1 #
coedge $-1 $263 $263 $262 $387 forward $165 $-1 #
coedge $-1 $264 $264 $166 $265 forward $259 $-1 #
edge $-1 $388 5.1398565825151937e-016 $388 6.2831853071796013 $264 $389 forward 7 unknown #
loop $-1 $-1 $271 $167 #
plane-surface $-1 21.856497194406288 -2.4240029696266845 35.320596785835654 0 0.82903758062907751 0.55919289150049634 1 0 0 forward_v I I I I #
loop $-1 $-1 $390 $106 #
coedge $-1 $269 $269 $270 $391 reversed $168 $-1 #
coedge $-1 $270 $270 $269 $391 forward $170 $-1 #
coedge $-1 $271 $271 $171 $272 forward $266 $-1 #
edge $-1 $392 5.1398565825151937e-016 $392 6.2831853071796013 $271 $393 forward 7 unknown #
loop $-1 $-1 $278 $172 #
plane-surface $-1 21.856497194406288 -2.4240029696266845 35.320596785835654 0 0.82903758062907751 0.55919289150049634 1 0 0 forward_v I I I I #
loop $-1 $-1 $394 $109 #
coedge $-1 $276 $276 $277 $395 reversed $173 $-1 #
coedge $-1 $277 $277 $276 $395 forward $175 $-1 #
coedge $-1 $278 $278 $176 $279 forward $273 $-1 #
edge $-1 $396 5.1398565825151937e-016 $396 6.2831853071796013 $278 $397 forward 7 unknown #
face $-1 $398 $399 $42 $-1 $400 reversed single #
loop $-1 $-1 $401 $177 #
plane-surface $-1 -41.098666341135896 0 0 1 0 0 0 0 -1 forward_v I I I I #
coedge $-1 $402 $291 $403 $404 forward $178 $-1 #
coedge $-1 $405 $180 $402 $406 forward $113 $-1 #
coedge $-1 $180 $405 $407 $408 forward $113 $-1 #
coedge $-1 $294 $293 $180 $287 reversed $295 $-1 #
edge $-1 $409 -20.475456665318983 $410 20.475456665318983 $286 $411 forward 7 unknown #
coedge $-1 $182 $181 $412 $413 forward $71 $-1 #
coedge $-1 $414 $415 $181 $290 reversed $399 $-1 #
edge $-1 $297 -41.098666341135896 $416 41.098666341135896 $289 $417 forward 7 unknown #
coedge $-1 $283 $418 $182 $292 reversed $178 $-1 #
edge $-1 $419 -41.098666341135896 $296 41.098666341135896 $291 $420 forward 7 unknown #
coedge $-1 $286 $183 $418 $421 forward $295 $-1 #
coedge $-1 $183 $286 $414 $422 reversed $295 $-1 #
loop $-1 $-1 $293 $398 #
vertex $-1 $184 $423 #
vertex $-1 $184 $424 #
straight-curve $-1 41.098666341135896 0 9.476623983211617 0 1 0 I I #
face $-1 $425 $426 $43 $-1 $427 reversed single #
loop $-1 $-1 $304 $185 #
plane-surface $-1 0 -20.475456665318983 0 0 1 0 0 0 1 forward_v I I I I #
coedge $-1 $428 $429 $303 $430 forward $186 $-1 #
coedge $-1 $311 $188 $302 $430 reversed $117 $-1 #
coedge $-1 $309 $431 $188 $305 forward $300 $-1 #
edge $-1 $432 -5.4883119916058085 $312 -2.4883119916058085 $304 $433 forward 7 unknown #
coedge $-1 $190 $189 $434 $435 reversed $74 $-1 #
coedge $-1 $436 $437 $189 $308 forward $438 $-1 #
edge $-1 $439 -22.952037809275378 $313 -13.341219254445662 $307 $440 forward 7 unknown #
coedge $-1 $441 $304 $190 $310 forward $300 $-1 #
edge $-1 $312 13.341219254445662 $442 22.952037809275378 $309 $443 forward 7 unknown #
coedge $-1 $191 $303 $436 $444 reversed $117 $-1 #
vertex $-1 $310 $445 #
vertex $-1 $308 $446 #
straight-curve $-1 -31.48784778630618 0 -6.476623983211617 0 1 0 I I #
face $-1 $-1 $327 $44 $-1 $447 reversed single #
loop $-1 $-1 $448 $193 #
plane-surface $-1 0 0 9.476623983211617 0 0 1 1 0 0 forward_v I I I I #
coedge $-1 $449 $450 $451 $452 reversed $194 $-1 #
coedge $-1 $453 $196 $198 $325 forward $121 $-1 #
coedge $-1 $196 $453 $449 $454 forward $121 $-1 #
coedge $-1 $451 $199 $196 $322 forward $327 $-1 #
edge $-1 $329 -12.261938779529249 $455 -2.5886842478265812 $321 $456 forward 7 unknown #
coedge $-1 $457 $458 $197 $324 forward $316 $-1 #
edge $-1 $459 -25.256913381426656 $328 -19.819933767205772 $323 $460 forward 7 unknown #
edge $-1 $329 2.6080534875291995e-014 $459 7.9721301446784976 $198 $461 forward 7 unknown #
coedge $-1 $199 $451 $457 $462 reversed $327 $-1 #
loop $-1 $-1 $451 $315 #
vertex $-1 $462 $463 #
vertex $-1 $200 $464 #
straight-curve $-1 -19.687250293207164 -20.475456665318983 29.852311194277458 0 0 -1 I I #
coedge $-1 $331 $331 $-1 $465 reversed $203 $-1 #
edge $-1 $466 0 $466 6.2831853071796004 $204 $467 forward 7 unknown #
vertex $-1 $207 $468 #
ellipse-curve $-1 -17.752599386866631 -17.756966858208543 6.5614005047181703 0 -0.73135370988377701 0.68199835119979291 0.25 0 0 1 I I #
coedge $-1 $335 $335 $-1 $469 reversed $210 $-1 #
edge $-1 $470 0 $470 6.2831853071796004 $211 $471 forward 7 unknown #
vertex $-1 $214 $472 #
ellipse-curve $-1 -14.85062302735583 -17.756966858208543 6.5614005047181703 0 -0.73135370988377701 0.68199835119979291 0.25 0 0 1 I I #
coedge $-1 $339 $339 $-1 $473 reversed $217 $-1 #
edge $-1 $474 0 $474 6.2831853071796004 $218 $475 forward 7 unknown #
vertex $-1 $221 $476 #
ellipse-curve $-1 -11.948646667845029 -17.756966858208543 6.5614005047181703 0 -0.73135370988377701 0.68199835119979291 0.25 0 0 1 I I #
face $-1 $-1 $355 $48 $-1 $477 forward single #
loop $-1 $-1 $478 $222 #
plane-surface $-1 0 20.475456665318983 0 0 -1 0 0 0 -1 forward_v I I I I #
coedge $-1 $479 $480 $481 $482 reversed $223 $-1 #
coedge $-1 $483 $225 $227 $353 forward $140 $-1 #
coedge $-1 $225 $483 $479 $484 forward $140 $-1 #
coedge $-1 $481 $228 $225 $350 forward $355 $-1 #
edge $-1 $357 -15.501354725572584 $485 1.0645948562578322 $349 $486 forward 7 unknown #
coedge $-1 $487 $488 $226 $352 forward $344 $-1 #
edge $-1 $489 -39.271629787379226 $356 -31.165756477820118 $351 $490 forward 7 unknown #
edge $-1 $357 31.17346355157207 $489 40.950913330637974 $227 $491 forward 7 unknown #
coedge $-1 $228 $481 $487 $492 forward $355 $-1 #
loop $-1 $-1 $481 $343 #
vertex $-1 $352 $493 #
vertex $-1 $229 $494 #
straight-curve $-1 -22.71973466022996 32.860337425723664 9.476623983211617 0 -1 0 I I #
coedge $-1 $359 $359 $-1 $495 reversed $232 $-1 #
edge $-1 $496 0 $496 6.2831853071796004 $233 $497 forward 7 unknown #
vertex $-1 $236 $498 #
ellipse-curve $-1 -19.406544743863876 17.741716458590609 5.4236873284320684 0 0.82903758062907751 0.55919289150049634 1 0 0 1 I I #
coedge $-1 $363 $363 $-1 $499 reversed $239 $-1 #
edge $-1 $500 0 $500 6.2831853071796004 $240 $501 forward 7 unknown #
vertex $-1 $243 $502 #
ellipse-curve $-1 -14.436759869314749 17.741716458590609 5.4236873284320684 0 0.82903758062907751 0.55919289150049634 1 0 0 1 I I #
coedge $-1 $367 $367 $-1 $503 reversed $246 $-1 #
edge $-1 $504 0 $504 6.2831853071796004 $247 $505 forward 7 unknown #
vertex $-1 $250 $506 #
ellipse-curve $-1 -9.4669749947656214 17.741716458590609 5.4236873284320684 0 0.82903758062907751 0.55919289150049634 1 0 0 1 I I #
face $-1 $-1 $507 $52 $-1 $508 reversed single #
loop $-1 $-1 $257 $251 #
plane-surface $-1 0 0 9.476623983211617 0 0 1 1 0 0 forward_v I I I I #
coedge $-1 $509 $510 $511 $512 reversed $252 $-1 #
coedge $-1 $513 $254 $256 $381 forward $159 $-1 #
coedge $-1 $254 $513 $509 $514 forward $159 $-1 #
coedge $-1 $511 $257 $254 $378 forward $372 $-1 #
edge $-1 $384 2.6452738062879355 $515 19.211223388118352 $377 $516 forward 7 unknown #
coedge $-1 $517 $518 $255 $380 forward $507 $-1 #
edge $-1 $519 -39.271629787379226 $383 -31.165756477820118 $379 $520 forward 7 unknown #
edge $-1 $384 31.17346355157207 $519 40.950913330637974 $256 $521 forward 7 unknown #
coedge $-1 $257 $511 $517 $522 forward $372 $-1 #
vertex $-1 $380 $523 #
vertex $-1 $258 $524 #
straight-curve $-1 13.573522403491079 32.860337425723664 9.476623983211617 0 -1 0 I I #
coedge $-1 $386 $386 $-1 $525 reversed $261 $-1 #
edge $-1 $526 0 $526 6.2831853071796004 $262 $527 forward 7 unknown #
vertex $-1 $265 $528 #
ellipse-curve $-1 16.88671231985716 17.741716458590609 5.4236873284320684 0 0.82903758062907751 0.55919289150049634 1 0 0 1 I I #
coedge $-1 $390 $390 $-1 $529 reversed $268 $-1 #
edge $-1 $530 0 $530 6.2831853071796004 $269 $531 forward 7 unknown #
vertex $-1 $272 $532 #
ellipse-curve $-1 21.856497194406288 17.741716458590609 5.4236873284320684 0 0.82903758062907751 0.55919289150049634 1 0 0 1 I I #
coedge $-1 $394 $394 $-1 $533 reversed $275 $-1 #
edge $-1 $534 0 $534 6.2831853071796004 $276 $535 forward 7 unknown #
vertex $-1 $279 $536 #
ellipse-curve $-1 26.826282068955408 17.741716458590609 5.4236873284320684 0 0.82903758062907751 0.55919289150049634 1 0 0 1 I I #
face $-1 $-1 $295 $42 $-1 $537 reversed single #
loop $-1 $-1 $414 $280 #
plane-surface $-1 0 20.475456665318983 0 0 -1 0 0 0 -1 forward_v I I I I #
coedge $-1 $538 $412 $415 $539 forward $281 $-1 #
coedge $-1 $418 $283 $284 $406 reversed $178 $-1 #
coedge $-1 $412 $538 $283 $404 reversed $281 $-1 #
edge $-1 $419 -9.476623983211617 $540 9.476623983211617 $403 $541 forward 7 unknown #
coedge $-1 $285 $284 $538 $542 forward $113 $-1 #
edge $-1 $410 -41.098666341135896 $540 41.098666341135896 $402 $543 forward 7 unknown #
coedge $-1 $415 $414 $285 $408 reversed $399 $-1 #
edge $-1 $544 -41.098666341135896 $409 41.098666341135896 $407 $545 forward 7 unknown #
vertex $-1 $287 $546 #
vertex $-1 $421 $547 #
straight-curve $-1 41.098666341135896 0 -9.476623983211617 0 -1 0 I I #
coedge $-1 $401 $403 $288 $413 reversed $281 $-1 #
edge $-1 $416 -20.475456665318983 $419 20.475456665318983 $412 $548 forward 7 unknown #
coedge $-1 $407 $289 $294 $422 forward $399 $-1 #
coedge $-1 $289 $407 $401 $539 reversed $399 $-1 #
vertex $-1 $290 $549 #
straight-curve $-1 0 20.475456665318983 9.476623983211617 -1 0 0 I I #
coedge $-1 $291 $402 $293 $421 reversed $178 $-1 #
vertex $-1 $413 $550 #
straight-curve $-1 0 -20.475456665318983 9.476623983211617 1 0 0 I I #
edge $-1 $296 -9.476623983211617 $410 9.476623983211617 $293 $551 forward 7 unknown #
edge $-1 $297 -9.476623983211617 $409 9.476623983211617 $294 $552 forward 7 unknown #
point $-1 41.098666341135896 -20.475456665318983 9.476623983211617 #
point $-1 41.098666341135896 20.475456665318983 9.476623983211617 #
face $-1 $-1 $438 $43 $-1 $553 reversed single #
loop $-1 $-1 $434 $299 #
plane-surface $-1 -41.098666341135896 0 0 1 0 0 0 0 -1 forward_v I I I I #
coedge $-1 $554 $302 $431 $555 forward $186 $-1 #
coedge $-1 $302 $554 $556 $557 forward $186 $-1 #
edge $-1 $558 -20.475456665318983 $432 20.475456665318983 $302 $559 forward 7 unknown #
coedge $-1 $304 $441 $428 $555 reversed $300 $-1 #
vertex $-1 $555 $560 #
straight-curve $-1 -31.48784778630618 -20.475456665318983 -3.9883119916058085 0 0 1 I I #
coedge $-1 $561 $562 $306 $435 forward $426 $-1 #
edge $-1 $442 -20.475456665318983 $439 20.475456665318983 $434 $563 forward 7 unknown #
coedge $-1 $556 $307 $311 $444 forward $438 $-1 #
coedge $-1 $307 $556 $561 $564 reversed $438 $-1 #
loop $-1 $-1 $436 $425 #
vertex $-1 $564 $565 #
straight-curve $-1 -18.146628531860518 20.475456665318983 -6.476623983211617 1 0 0 I I #
coedge $-1 $431 $309 $562 $566 forward $300 $-1 #
vertex $-1 $566 $567 #
straight-curve $-1 -18.146628531860518 -20.475456665318983 -6.476623983211617 -1 0 0 I I #
edge $-1 $313 2.4883119916058085 $558 5.4883119916058085 $436 $568 forward 7 unknown #
point $-1 -31.48784778630618 -20.475456665318983 -6.476623983211617 #
point $-1 -31.48784778630618 20.475456665318983 -6.476623983211617 #
plane-surface $-1 0 -20.475456665318983 0 0 1 0 0 0 1 forward_v I I I I #
coedge $-1 $458 $457 $450 $569 forward $316 $-1 #
coedge $-1 $450 $318 $320 $454 reversed $194 $-1 #
coedge $-1 $318 $449 $448 $569 reversed $194 $-1 #
coedge $-1 $326 $321 $318 $452 forward $327 $-1 #
edge $-1 $455 -26.206134168052735 $570 -20.375687211065841 $451 $571 forward 7 unknown #
coedge $-1 $320 $319 $458 $572 reversed $121 $-1 #
edge $-1 $573 -7.9721301446784976 $455 -2.6080534875291995e-014 $449 $574 forward 7 unknown #
vertex $-1 $322 $575 #
straight-curve $-1 -7.4253115136779151 -20.475456665318983 3.6461770262247262 1 0 0 I I #
coedge $-1 $448 $323 $326 $462 forward $316 $-1 #
coedge $-1 $323 $448 $453 $572 forward $316 $-1 #
vertex $-1 $324 $576 #
straight-curve $-1 -19.687250293207164 -40.295390432524755 9.476623983211617 0 -1 0 I I #
straight-curve $-1 -19.687250293207164 -20.475456665319001 3.6461770262247057 0 0.68199835119979291 0.73135370988377701 I I #
edge $-1 $328 -19.687250293207164 $570 -10.013995761504496 $326 $577 forward 7 unknown #
point $-1 -19.687250293207164 -20.475456665318983 9.476623983211617 #
point $-1 -19.687250293207164 -20.475456665318983 3.6461770262247248 #
edge $-1 $578 1 $578 0 $331 $-1 forward 7 unknown #
vertex $-1 $332 $579 #
ellipse-curve $-1 -17.752599386866631 -17.025613148324751 5.8794021535183649 0 -0.73135370988377701 0.68199835119979291 0.25 0 0 1 I I #
point $-1 -17.502599386866631 -17.756966858208528 6.5614005047181578 #
edge $-1 $580 1 $580 0 $335 $-1 forward 7 unknown #
vertex $-1 $336 $581 #
ellipse-curve $-1 -14.85062302735583 -17.025613148324751 5.8794021535183649 0 -0.73135370988377701 0.68199835119979291 0.25 0 0 1 I I #
point $-1 -14.60062302735583 -17.756966858208528 6.5614005047181578 #
edge $-1 $582 1 $582 0 $339 $-1 forward 7 unknown #
vertex $-1 $340 $583 #
ellipse-curve $-1 -11.948646667845029 -17.025613148324751 5.8794021535183649 0 -0.73135370988377701 0.68199835119979291 0.25 0 0 1 I I #
point $-1 -11.698646667845029 -17.756966858208528 6.5614005047181578 #
plane-surface $-1 0 0 9.476623983211617 0 0 1 1 0 0 forward_v I I I I #
coedge $-1 $488 $487 $480 $584 forward $344 $-1 #
coedge $-1 $480 $346 $348 $484 reversed $223 $-1 #
coedge $-1 $346 $479 $478 $584 reversed $223 $-1 #
coedge $-1 $354 $349 $346 $482 forward $355 $-1 #
edge $-1 $485 -17.852361173861432 $585 -12.38488076040468 $481 $586 forward 7 unknown #
coedge $-1 $348 $347 $488 $587 reversed $140 $-1 #
edge $-1 $588 -40.950913330637974 $485 -31.17346355157207 $479 $589 forward 7 unknown #
vertex $-1 $350 $590 #
straight-curve $-1 -7.218379934657376 15.007976251862233 9.476623983211617 1 0 0 I I #
coedge $-1 $478 $351 $354 $492 reversed $344 $-1 #
coedge $-1 $351 $478 $483 $587 forward $344 $-1 #
vertex $-1 $352 $591 #
straight-curve $-1 -22.71973466022996 20.475456665318983 40.642380461031735 0 0 1 I I #
straight-curve $-1 -22.71973466022996 -2.4240029696266845 35.320596785835654 0 0.55919289150049634 -0.82903758062907751 I I #
edge $-1 $585 6.1537850783995438 $356 22.71973466022996 $487 $592 forward 7 unknown #
point $-1 -22.71973466022996 20.475456665318983 9.476623983211617 #
point $-1 -22.71973466022996 15.007976251862232 9.476623983211617 #
edge $-1 $593 1 $593 0 $359 $-1 forward 7 unknown #
vertex $-1 $360 $594 #
ellipse-curve $-1 -19.406544743863876 14.445832230073872 3.2005854150101785 0 0.82903758062907751 0.55919289150049634 1 0 0 1 I I #
point $-1 -18.406544743863876 17.741716458590613 5.4236873284320701 #
edge $-1 $595 1 $595 0 $363 $-1 forward 7 unknown #
vertex $-1 $364 $596 #
ellipse-curve $-1 -14.436759869314749 14.445832230073872 3.2005854150101785 0 0.82903758062907751 0.55919289150049634 1 0 0 1 I I #
point $-1 -13.436759869314749 17.741716458590613 5.4236873284320701 #
edge $-1 $597 1 $597 0 $367 $-1 forward 7 unknown #
vertex $-1 $368 $598 #
ellipse-curve $-1 -9.4669749947656214 14.445832230073872 3.2005854150101785 0 0.82903758062907751 0.55919289150049634 1 0 0 1 I I #
point $-1 -8.4669749947656214 17.741716458590613 5.4236873284320701 #
loop $-1 $-1 $379 $371 #
plane-surface $-1 0 20.475456665318983 0 0 -1 0 0 0 -1 forward_v I I I I #
coedge $-1 $510 $374 $376 $514 reversed $252 $-1 #
coedge $-1 $374 $509 $599 $600 reversed $252 $-1 #
coedge $-1 $382 $377 $374 $512 forward $372 $-1 #
edge $-1 $515 -17.852361173861432 $601 -12.38488076040468 $511 $602 forward 7 unknown #
coedge $-1 $376 $375 $518 $603 reversed $159 $-1 #
edge $-1 $604 -40.950913330637974 $515 -31.17346355157207 $509 $605 forward 7 unknown #
vertex $-1 $378 $606 #
straight-curve $-1 10.928248597203144 15.007976251862233 9.476623983211617 1 0 0 I I #
coedge $-1 $599 $379 $382 $522 reversed $507 $-1 #
coedge $-1 $379 $599 $513 $603 forward $507 $-1 #
vertex $-1 $380 $607 #
straight-curve $-1 13.573522403491079 20.475456665318983 40.642380461031735 0 0 1 I I #
straight-curve $-1 13.573522403491079 -2.4240029696266845 35.320596785835654 0 0.55919289150049634 -0.82903758062907751 I I #
edge $-1 $601 -30.139471985321496 $383 -13.573522403491079 $517 $608 forward 7 unknown #
point $-1 13.573522403491079 20.475456665318983 9.476623983211617 #
point $-1 13.573522403491079 15.007976251862232 9.476623983211617 #
edge $-1 $609 1 $609 0 $386 $-1 forward 7 unknown #
vertex $-1 $387 $610 #
ellipse-curve $-1 16.88671231985716 14.445832230073872 3.2005854150101785 0 0.82903758062907751 0.55919289150049634 1 0 0 1 I I #
point $-1 17.88671231985716 17.741716458590613 5.4236873284320701 #
edge $-1 $611 1 $611 0 $390 $-1 forward 7 unknown #
vertex $-1 $391 $612 #
ellipse-curve $-1 21.856497194406288 14.445832230073872 3.2005854150101785 0 0.82903758062907751 0.55919289150049634 1 0 0 1 I I #
point $-1 22.856497194406288 17.741716458590613 5.4236873284320701 #
edge $-1 $613 1 $613 0 $394 $-1 forward 7 unknown #
vertex $-1 $395 $614 #
ellipse-curve $-1 26.826282068955408 14.445832230073872 3.2005854150101785 0 0.82903758062907751 0.55919289150049634 1 0 0 1 I I #
point $-1 27.826282068955408 17.741716458590613 5.4236873284320701 #
plane-surface $-1 41.098666341135896 0 0 -1 0 0 0 0 1 forward_v I I I I #
coedge $-1 $403 $401 $405 $542 reversed $281 $-1 #
edge $-1 $416 -9.476623983211617 $544 9.476623983211617 $415 $615 forward 7 unknown #
vertex $-1 $542 $616 #
straight-curve $-1 -41.098666341135896 -20.475456665318983 0 0 0 -1 I I #
edge $-1 $540 -20.475456665318983 $544 20.475456665318983 $538 $617 forward 7 unknown #
straight-curve $-1 0 -20.475456665318983 -9.476623983211617 -1 0 0 I I #
vertex $-1 $408 $618 #
straight-curve $-1 0 20.475456665318983 -9.476623983211617 1 0 0 I I #
point $-1 41.098666341135896 20.475456665318983 -9.476623983211617 #
point $-1 41.098666341135896 -20.475456665318983 -9.476623983211617 #
straight-curve $-1 -41.098666341135896 0 9.476623983211617 0 -1 0 I I #
point $-1 -41.098666341135896 20.475456665318983 9.476623983211617 #
point $-1 -41.098666341135896 -20.475456665318983 9.476623983211617 #
straight-curve $-1 41.098666341135896 -20.475456665318983 0 0 0 -1 I I #
straight-curve $-1 41.098666341135896 20.475456665318983 0 0 0 -1 I I #
plane-surface $-1 0 20.475456665318983 0 0 -1 0 0 0 -1 forward_v I I I I #
coedge $-1 $429 $428 $619 $620 forward $186 $-1 #
edge $-1 $432 31.48784778630618 $621 41.098666341135896 $431 $622 forward 7 unknown #
coedge $-1 $437 $436 $429 $557 reversed $438 $-1 #
edge $-1 $623 -41.098666341135896 $558 -31.48784778630618 $556 $624 forward 7 unknown #
vertex $-1 $444 $625 #
straight-curve $-1 -31.48784778630618 0 -9.476623983211617 0 -1 0 I I #
point $-1 -31.48784778630618 -20.475456665318983 -9.476623983211617 #
coedge $-1 $619 $434 $437 $564 forward $426 $-1 #
coedge $-1 $434 $619 $441 $566 reversed $426 $-1 #
straight-curve $-1 -41.098666341135896 0 -6.476623983211617 0 1 0 I I #
edge $-1 $439 6.476623983211617 $623 9.476623983211617 $437 $626 forward 7 unknown #
point $-1 -41.098666341135896 20.475456665318983 -6.476623983211617 #
edge $-1 $442 6.476623983211617 $621 9.476623983211617 $562 $627 forward 7 unknown #
point $-1 -41.098666341135896 -20.475456665318983 -6.476623983211617 #
straight-curve $-1 -31.48784778630618 20.475456665318983 -3.9883119916058085 0 0 -1 I I #
edge $-1 $570 19.819933767205772 $573 25.256913381426656 $448 $628 forward 7 unknown #
vertex $-1 $452 $629 #
straight-curve $-1 -10.013995761504496 -20.475456665318983 29.852311194277458 0 0 1 I I #
edge $-1 $573 2.5886842478265812 $459 12.261938779529249 $458 $630 forward 7 unknown #
vertex $-1 $572 $631 #
straight-curve $-1 -10.013995761504496 -20.475456665319001 3.6461770262247057 0 -0.68199835119979291 -0.73135370988377701 I I #
point $-1 -10.013995761504496 -20.475456665318983 3.6461770262247248 #
point $-1 -19.687250293207164 -15.038477051098099 9.476623983211617 #
straight-curve $-1 0 -20.475456665318983 9.476623983211617 1 0 0 I I #
vertex $-1 $465 $632 #
point $-1 -17.502599386866631 -17.025613148324751 5.8794021535183649 #
vertex $-1 $469 $633 #
point $-1 -14.60062302735583 -17.025613148324751 5.8794021535183649 #
vertex $-1 $473 $634 #
point $-1 -11.698646667845029 -17.025613148324751 5.8794021535183649 #
edge $-1 $585 31.165756477820118 $588 39.271629787379226 $478 $635 forward 7 unknown #
vertex $-1 $492 $636 #
straight-curve $-1 -6.1537850783995438 32.860337425723664 9.476623983211617 0 1 0 I I #
edge $-1 $588 -1.0645948562578322 $489 15.501354725572584 $488 $637 forward 7 unknown #
vertex $-1 $587 $638 #
straight-curve $-1 -6.1537850783995438 -2.4240029696266845 35.320596785835654 0 -0.55919289150049634 0.82903758062907751 I I #
point $-1 -6.1537850783995438 15.007976251862232 9.476623983211617 #
point $-1 -22.71973466022996 20.475456665318983 1.370750673652509 #
straight-curve $-1 0 20.475456665318983 9.476623983211617 -1 0 0 I I #
vertex $-1 $495 $639 #
point $-1 -18.406544743863876 14.445832230073872 3.2005854150101785 #
vertex $-1 $499 $640 #
point $-1 -13.436759869314749 14.445832230073872 3.2005854150101785 #
vertex $-1 $503 $641 #
point $-1 -8.4669749947656214 14.445832230073872 3.2005854150101785 #
coedge $-1 $518 $517 $510 $600 forward $507 $-1 #
edge $-1 $601 31.165756477820118 $604 39.271629787379226 $599 $642 forward 7 unknown #
vertex $-1 $522 $643 #
straight-curve $-1 30.139471985321496 32.860337425723664 9.476623983211617 0 1 0 I I #
edge $-1 $604 -19.211223388118352 $519 -2.6452738062879355 $518 $644 forward 7 unknown #
vertex $-1 $603 $645 #
straight-curve $-1 30.139471985321496 -2.4240029696266845 35.320596785835654 0 -0.55919289150049634 0.82903758062907751 I I #
point $-1 30.139471985321496 15.007976251862232 9.476623983211617 #
point $-1 13.573522403491079 20.475456665318983 1.370750673652509 #
straight-curve $-1 0 20.475456665318983 9.476623983211617 -1 0 0 I I #
vertex $-1 $525 $646 #
point $-1 17.88671231985716 14.445832230073872 3.2005854150101785 #
vertex $-1 $529 $647 #
point $-1 22.856497194406288 14.445832230073872 3.2005854150101785 #
vertex $-1 $533 $648 #
point $-1 27.826282068955408 14.445832230073872 3.2005854150101785 #
straight-curve $-1 -41.098666341135896 20.475456665318983 0 0 0 -1 I I #
point $-1 -41.098666341135896 -20.475456665318983 -9.476623983211617 #
straight-curve $-1 -41.098666341135896 0 -9.476623983211617 0 1 0 I I #
point $-1 -41.098666341135896 20.475456665318983 -9.476623983211617 #
coedge $-1 $562 $561 $554 $620 reversed $426 $-1 #
edge $-1 $621 -20.475456665318983 $623 20.475456665318983 $619 $649 forward 7 unknown #
vertex $-1 $620 $650 #
straight-curve $-1 0 -20.475456665318983 -9.476623983211617 -1 0 0 I I #
vertex $-1 $557 $651 #
straight-curve $-1 0 20.475456665318983 -9.476623983211617 1 0 0 I I #
point $-1 -31.48784778630618 20.475456665318983 -9.476623983211617 #
straight-curve $-1 -41.098666341135896 20.475456665318983 0 0 0 -1 I I #
straight-curve $-1 -41.098666341135896 -20.475456665318983 0 0 0 -1 I I #
straight-curve $-1 -10.013995761504496 -40.295390432524755 9.476623983211617 0 1 0 I I #
point $-1 -10.013995761504496 -20.475456665318983 9.476623983211617 #
straight-curve $-1 -7.4253115136779151 -15.038477051098099 9.476623983211617 -1 0 0 I I #
point $-1 -10.013995761504496 -15.038477051098099 9.476623983211617 #
point $-1 -17.752599386866631 -16.842774720853811 5.7089025657184163 #
point $-1 -14.85062302735583 -16.842774720853811 5.7089025657184163 #
point $-1 -11.948646667845029 -16.842774720853811 5.7089025657184163 #
straight-curve $-1 -6.1537850783995438 20.475456665318983 40.642380461031735 0 0 -1 I I #
point $-1 -6.1537850783995438 20.475456665318983 9.476623983211617 #
straight-curve $-1 -7.218379934657376 20.475456665318983 1.3707506736525161 -1 0 0 I I #
point $-1 -6.1537850783995438 20.475456665318983 1.370750673652509 #
point $-1 -19.406544743863876 13.616794649444795 2.6413925235096825 #
point $-1 -14.436759869314749 13.616794649444795 2.6413925235096825 #
point $-1 -9.4669749947656214 13.616794649444795 2.6413925235096825 #
straight-curve $-1 30.139471985321496 20.475456665318983 40.642380461031735 0 0 -1 I I #
point $-1 30.139471985321496 20.475456665318983 9.476623983211617 #
straight-curve $-1 10.928248597203144 20.475456665318983 1.3707506736525161 -1 0 0 I I #
point $-1 30.139471985321496 20.475456665318983 1.370750673652509 #
point $-1 16.88671231985716 13.616794649444795 2.6413925235096825 #
point $-1 21.856497194406288 13.616794649444795 2.6413925235096825 #
point $-1 26.826282068955408 13.616794649444795 2.6413925235096825 #
straight-curve $-1 -41.098666341135896 0 -9.476623983211617 0 1 0 I I #
point $-1 -41.098666341135896 -20.475456665318983 -9.476623983211617 #
point $-1 -41.098666341135896 20.475456665318983 -9.476623983211617 #
End-of-ACIS-data 