500 0 11 0           
7 Unknown 11 ACIS 5.0 NT 24 Thu Mar 25 15:32:12 1999 
-1 9.9999999999999995e-007 1e-010 
body $-1 $11 $-1 $12 #
body $-1 $13 $-1 $14 #
body $-1 $15 $-1 $16 #
body $-1 $17 $-1 $18 #
body $-1 $19 $-1 $20 #
body $-1 $21 $-1 $22 #
body $-1 $23 $-1 $24 #
body $-1 $25 $-1 $26 #
body $-1 $27 $-1 $28 #
body $-1 $29 $-1 $30 #
body $-1 $31 $-1 $32 #
lump $-1 $-1 $33 $0 #
transform $-1 1 0 0 0 1 0 0 0 1 73.366496780297254 35.129357317864738 11.13467794328475 1 rotate no_reflect no_shear #
lump $-1 $-1 $34 $1 #
transform $-1 1 0 0 0 1 0 0 0 1 73.366496780297254 35.129357317864738 11.13467794328475 1 rotate no_reflect no_shear #
lump $-1 $-1 $35 $2 #
transform $-1 1 0 0 0 1 0 0 0 1 73.366496780297254 35.129357317864738 11.13467794328475 1 rotate no_reflect no_shear #
lump $-1 $-1 $36 $3 #
transform $-1 1 0 0 0 1 0 0 0 1 73.366496780297254 35.129357317864738 11.13467794328475 1 rotate no_reflect no_shear #
lump $-1 $-1 $37 $4 #
transform $-1 1 0 0 0 1 0 0 0 1 73.366496780297254 35.129357317864738 11.13467794328475 1 rotate no_reflect no_shear #
lump $-1 $-1 $38 $5 #
transform $-1 1 0 0 0 1 0 0 0 1 73.366496780297254 35.129357317864738 11.13467794328475 1 rotate no_reflect no_shear #
lump $-1 $-1 $39 $6 #
transform $-1 1 0 0 0 1 0 0 0 1 73.366496780297254 35.129357317864738 11.13467794328475 1 rotate no_reflect no_shear #
lump $-1 $-1 $40 $7 #
transform $-1 1 0 0 0 1 0 0 0 1 73.366496780297254 35.129357317864738 11.13467794328475 1 rotate no_reflect no_shear #
lump $-1 $-1 $41 $8 #
transform $-1 1 0 0 0 1 0 0 0 1 73.366496780297254 35.129357317864738 11.13467794328475 1 rotate no_reflect no_shear #
lump $-1 $-1 $42 $9 #
transform $-1 1 0 0 0 1 0 0 0 1 73.366496780297254 35.129357317864738 11.13467794328475 1 rotate no_reflect no_shear #
lump $-1 $-1 $43 $10 #
transform $-1 1 0 0 0 1 0 0 0 1 73.366496780297254 35.129357317864738 11.13467794328475 1 rotate no_reflect no_shear #
shell $-1 $-1 $-1 $44 $-1 $11 #
shell $-1 $-1 $-1 $45 $-1 $13 #
shell $-1 $-1 $-1 $46 $-1 $15 #
shell $-1 $-1 $-1 $47 $-1 $17 #
shell $-1 $-1 $-1 $48 $-1 $19 #
shell $-1 $-1 $-1 $49 $-1 $21 #
shell $-1 $-1 $-1 $50 $-1 $23 #
shell $-1 $-1 $-1 $51 $-1 $25 #
shell $-1 $-1 $-1 $52 $-1 $27 #
shell $-1 $-1 $-1 $53 $-1 $29 #
shell $-1 $-1 $-1 $54 $-1 $31 #
face $-1 $55 $56 $33 $-1 $57 forward single #
face $-1 $58 $59 $34 $-1 $60 forward single #
face $-1 $61 $62 $35 $-1 $63 reversed single #
face $-1 $64 $65 $36 $-1 $66 forward single #
face $-1 $67 $68 $37 $-1 $69 forward single #
face $-1 $70 $71 $38 $-1 $72 reversed single #
face $-1 $73 $74 $39 $-1 $75 forward single #
face $-1 $76 $77 $40 $-1 $78 forward single #
face $-1 $79 $80 $41 $-1 $81 reversed single #
face $-1 $82 $83 $42 $-1 $84 forward single #
face $-1 $85 $86 $43 $-1 $87 forward single #
face $-1 $88 $89 $33 $-1 $90 reversed single #
loop $-1 $-1 $91 $44 #
plane-surface $-1 0 0 11.13467794328475 0 0 1 1 0 0 forward_v I I I I #
face $-1 $92 $93 $34 $-1 $94 reversed single #
loop $-1 $-1 $95 $45 #
plane-surface $-1 -67.782333628688079 0 -0.10680841293986587 0 0 1 1 0 0 forward_v I I I I #
face $-1 $96 $97 $35 $-1 $98 reversed single #
loop $-1 $-1 $99 $46 #
plane-surface $-1 38.405648740348369 -142.4430765207579 107.20486385427429 1 0 0 0 0.73135370988377701 -0.68199835119979291 forward_v I I I I #
face $-1 $100 $101 $36 $-1 $102 forward single #
loop $-1 $103 $104 $47 #
cone-surface $-1 48.39446246604804 -32.190703723758965 8.1334117867208118 0 0.73135370988377701 -0.68199835119979291 1 0 0 1 I I 0 1 1 forward I I I I #
face $-1 $105 $106 $37 $-1 $107 forward single #
loop $-1 $108 $109 $48 #
cone-surface $-1 63.377683054597568 -32.190703723758965 8.1334117867208118 0 0.73135370988377701 -0.68199835119979291 1 0 0 1 I I 0 1 1 forward I I I I #
face $-1 $110 $111 $38 $-1 $112 reversed single #
loop $-1 $-1 $113 $49 #
plane-surface $-1 -43.345894491214239 89.204840312240947 154.54279470141955 1 0 0 0 -0.70710678939079041 -0.70710677298230451 forward_v I I I I #
face $-1 $114 $115 $39 $-1 $116 forward single #
loop $-1 $117 $118 $50 #
cone-surface $-1 -36.625907438693446 29.075739237893625 5.0810597710832575 0 -0.70710678939079041 -0.70710677298230451 1.5 0 0 1 I I 0 1 1.5 forward I I I I #
face $-1 $119 $120 $40 $-1 $121 forward single #
loop $-1 $122 $123 $51 #
cone-surface $-1 -26.545926859912257 29.075739237893625 5.0810597710832575 0 -0.70710678939079041 -0.70710677298230451 1.5 0 0 1 I I 0 1 1.5 forward I I I I #
face $-1 $124 $125 $41 $-1 $126 reversed single #
loop $-1 $-1 $127 $52 #
plane-surface $-1 24.436439137473837 89.204840312240947 154.54279470141955 1 0 0 0 -0.70710678939079041 -0.70710677298230451 forward_v I I I I #
face $-1 $128 $129 $42 $-1 $130 forward single #
loop $-1 $131 $132 $53 #
cone-surface $-1 31.156426189994633 29.075739237893625 5.0810597710832575 0 -0.70710678939079041 -0.70710677298230451 1.5 0 0 1 I I 0 1 1.5 forward I I I I #
face $-1 $133 $134 $43 $-1 $135 forward single #
loop $-1 $136 $137 $54 #
cone-surface $-1 41.236406768775822 29.075739237893625 5.0810597710832575 0 -0.70710678939079041 -0.70710677298230451 1.5 0 0 1 I I 0 1 1.5 forward I I I I #
face $-1 $138 $139 $33 $-1 $140 reversed single #
loop $-1 $-1 $141 $55 #
plane-surface $-1 0 0 -11.13467794328475 0 0 1 1 0 0 forward_v I I I I #
coedge $-1 $142 $143 $144 $145 forward $56 $-1 #
face $-1 $146 $147 $34 $-1 $148 reversed single #
loop $-1 $-1 $149 $58 #
plane-surface $-1 -67.782333628688079 0 -4.2869935764129643 0 0 1 1 0 0 forward_v I I I I #
coedge $-1 $150 $151 $152 $153 forward $59 $-1 #
face $-1 $154 $155 $35 $-1 $156 forward single #
loop $-1 $-1 $157 $61 #
plane-surface $-1 55.886072760322818 -35.129357317864745 7.1332041793390033 0 -0.73135370988377701 0.68199835119979291 1 0 0 forward_v I I I I #
coedge $-1 $158 $159 $160 $161 reversed $62 $-1 #
face $-1 $-1 $162 $36 $-1 $163 forward single #
loop $-1 $164 $165 $64 #
cone-surface $-1 48.39446246604804 -30.752090555214274 6.7918833365298568 0 0.73135370988377701 -0.68199835119979291 0.5 0 0 1 I I -0.70710678118654746 0.70710678118654746 0.5 forward I I I I #
loop $-1 $-1 $166 $47 #
coedge $-1 $104 $104 $167 $168 reversed $65 $-1 #
face $-1 $-1 $169 $37 $-1 $170 forward single #
loop $-1 $171 $172 $67 #
cone-surface $-1 63.377683054597568 -30.752090555214274 6.7918833365298568 0 0.73135370988377701 -0.68199835119979291 0.5 0 0 1 I I -0.70710678118654746 0.70710678118654746 0.5 forward I I I I #
loop $-1 $-1 $173 $48 #
coedge $-1 $109 $109 $174 $175 reversed $68 $-1 #
face $-1 $176 $177 $38 $-1 $178 reversed single #
loop $-1 $-1 $179 $70 #
plane-surface $-1 -31.585917149302858 -14.551055662090562 50.786901134754302 0 0.70710678939079041 0.70710677298230451 1 0 0 forward_v I I I I #
coedge $-1 $180 $181 $182 $183 reversed $71 $-1 #
face $-1 $-1 $184 $39 $-1 $185 forward single #
loop $-1 $186 $187 $73 #
cone-surface $-1 -36.625907438693446 27.505886420189235 3.5112069898074623 0 -0.70710678939079041 -0.70710677298230451 0.75 0 0 1 I I -0.70710678118654757 0.70710678118654757 0.75 forward I I I I #
loop $-1 $-1 $188 $50 #
coedge $-1 $118 $118 $189 $190 reversed $74 $-1 #
face $-1 $-1 $191 $40 $-1 $192 forward single #
loop $-1 $193 $194 $76 #
cone-surface $-1 -26.545926859912257 27.505886420189235 3.5112069898074623 0 -0.70710678939079041 -0.70710677298230451 0.75 0 0 1 I I -0.70710678118654757 0.70710678118654757 0.75 forward I I I I #
loop $-1 $-1 $195 $51 #
coedge $-1 $123 $123 $196 $197 reversed $77 $-1 #
face $-1 $198 $199 $41 $-1 $200 reversed single #
loop $-1 $-1 $201 $79 #
plane-surface $-1 36.196416479385221 -14.551055662090562 50.786901134754302 0 0.70710678939079041 0.70710677298230451 1 0 0 forward_v I I I I #
coedge $-1 $202 $203 $204 $205 reversed $80 $-1 #
face $-1 $-1 $206 $42 $-1 $207 forward single #
loop $-1 $208 $209 $82 #
cone-surface $-1 31.156426189994633 27.505886420189235 3.5112069898074623 0 -0.70710678939079041 -0.70710677298230451 0.75 0 0 1 I I -0.70710678118654757 0.70710678118654757 0.75 forward I I I I #
loop $-1 $-1 $210 $53 #
coedge $-1 $132 $132 $211 $212 reversed $83 $-1 #
face $-1 $-1 $213 $43 $-1 $214 forward single #
loop $-1 $215 $216 $85 #
cone-surface $-1 41.236406768775822 27.505886420189235 3.5112069898074623 0 -0.70710678939079041 -0.70710677298230451 0.75 0 0 1 I I -0.70710678118654757 0.70710678118654757 0.75 forward I I I I #
loop $-1 $-1 $217 $54 #
coedge $-1 $137 $137 $218 $219 reversed $86 $-1 #
face $-1 $220 $221 $33 $-1 $222 reversed single #
loop $-1 $-1 $223 $88 #
plane-surface $-1 0 -35.129357317864738 0 0 1 0 0 0 1 forward_v I I I I #
coedge $-1 $224 $225 $226 $227 forward $89 $-1 #
coedge $-1 $228 $91 $229 $230 forward $56 $-1 #
coedge $-1 $91 $228 $231 $232 forward $56 $-1 #
coedge $-1 $233 $234 $91 $145 reversed $235 $-1 #
edge $-1 $236 -35.129357317864738 $237 35.129357317864738 $144 $238 forward 7 unknown #
face $-1 $239 $240 $34 $-1 $241 reversed single #
loop $-1 $-1 $242 $92 #
plane-surface $-1 -62.198170477078904 0 -2.1969009946764153 -1 0 0 0 0 1 forward_v I I I I #
coedge $-1 $243 $244 $245 $246 forward $93 $-1 #
coedge $-1 $247 $95 $248 $249 reversed $59 $-1 #
coedge $-1 $95 $247 $250 $251 reversed $59 $-1 #
coedge $-1 $242 $252 $95 $153 reversed $147 $-1 #
edge $-1 $253 -35.129357317864738 $254 35.129357317864738 $152 $255 forward 7 unknown #
face $-1 $256 $257 $35 $-1 $258 reversed single #
loop $-1 $-1 $259 $96 #
plane-surface $-1 0 0 11.13467794328475 0 0 1 1 0 0 forward_v I I I I #
coedge $-1 $260 $261 $262 $263 reversed $97 $-1 #
coedge $-1 $159 $99 $264 $265 reversed $62 $-1 #
coedge $-1 $99 $158 $260 $266 reversed $62 $-1 #
coedge $-1 $262 $267 $99 $161 forward $257 $-1 #
edge $-1 $268 42.467753983852397 $269 46.469227747798136 $160 $270 forward 7 unknown #
loop $-1 $-1 $167 $100 #
plane-surface $-1 55.886072760322818 -35.129357317864745 7.1332041793390033 0 -0.73135370988377701 0.68199835119979291 1 0 0 forward_v I I I I #
loop $-1 $-1 $271 $64 #
coedge $-1 $165 $165 $166 $272 reversed $101 $-1 #
coedge $-1 $166 $166 $165 $272 forward $103 $-1 #
coedge $-1 $167 $167 $104 $168 forward $162 $-1 #
edge $-1 $273 -1.6498360804101847e-015 $273 6.2831853071795987 $167 $274 forward 7 unknown #
loop $-1 $-1 $174 $105 #
plane-surface $-1 55.886072760322818 -35.129357317864745 7.1332041793390033 0 -0.73135370988377701 0.68199835119979291 1 0 0 forward_v I I I I #
loop $-1 $-1 $275 $67 #
coedge $-1 $172 $172 $173 $276 reversed $106 $-1 #
coedge $-1 $173 $173 $172 $276 forward $108 $-1 #
coedge $-1 $174 $174 $109 $175 forward $169 $-1 #
edge $-1 $277 -1.6498360804101847e-015 $277 6.2831853071795987 $174 $278 forward 7 unknown #
face $-1 $279 $280 $38 $-1 $281 reversed single #
loop $-1 $-1 $282 $110 #
plane-surface $-1 -19.825939807391475 89.204840312240947 154.54279470141955 -1 0 0 0 0.70710678939079041 0.70710677298230451 forward_v I I I I #
coedge $-1 $283 $284 $285 $286 reversed $111 $-1 #
coedge $-1 $181 $113 $287 $288 reversed $71 $-1 #
coedge $-1 $113 $180 $283 $289 reversed $71 $-1 #
coedge $-1 $285 $290 $113 $183 forward $291 $-1 #
edge $-1 $292 9.4730628382557356 $293 19.501253546875411 $182 $294 forward 7 unknown #
loop $-1 $-1 $189 $114 #
plane-surface $-1 -31.585917149302858 -14.551055662090562 50.786901134754302 0 0.70710678939079041 0.70710677298230451 1 0 0 forward_v I I I I #
loop $-1 $-1 $295 $73 #
coedge $-1 $187 $187 $188 $296 reversed $115 $-1 #
coedge $-1 $188 $188 $187 $296 forward $117 $-1 #
coedge $-1 $189 $189 $118 $190 forward $184 $-1 #
edge $-1 $297 4.1869113285805381e-016 $297 6.2831853071796004 $189 $298 forward 7 unknown #
loop $-1 $-1 $196 $119 #
plane-surface $-1 -31.585917149302858 -14.551055662090562 50.786901134754302 0 0.70710678939079041 0.70710677298230451 1 0 0 forward_v I I I I #
loop $-1 $-1 $299 $76 #
coedge $-1 $194 $194 $195 $300 reversed $120 $-1 #
coedge $-1 $195 $195 $194 $300 forward $122 $-1 #
coedge $-1 $196 $196 $123 $197 forward $191 $-1 #
edge $-1 $301 4.1869113285805381e-016 $301 6.2831853071796004 $196 $302 forward 7 unknown #
face $-1 $303 $304 $41 $-1 $305 forward single #
loop $-1 $-1 $306 $124 #
plane-surface $-1 47.956393821296601 89.204840312240947 154.54279470141955 -1 0 0 0 0.70710678939079041 0.70710677298230451 forward_v I I I I #
coedge $-1 $307 $308 $309 $310 reversed $125 $-1 #
coedge $-1 $203 $127 $311 $312 reversed $80 $-1 #
coedge $-1 $127 $202 $307 $313 reversed $80 $-1 #
coedge $-1 $309 $314 $127 $205 forward $304 $-1 #
edge $-1 $315 9.4730628382557356 $316 19.501253546875411 $204 $317 forward 7 unknown #
loop $-1 $-1 $211 $128 #
plane-surface $-1 36.196416479385221 -14.551055662090562 50.786901134754302 0 0.70710678939079041 0.70710677298230451 1 0 0 forward_v I I I I #
loop $-1 $-1 $318 $82 #
coedge $-1 $209 $209 $210 $319 reversed $129 $-1 #
coedge $-1 $210 $210 $209 $319 forward $131 $-1 #
coedge $-1 $211 $211 $132 $212 forward $206 $-1 #
edge $-1 $320 4.1869113285805381e-016 $320 6.2831853071796004 $211 $321 forward 7 unknown #
loop $-1 $-1 $218 $133 #
plane-surface $-1 36.196416479385221 -14.551055662090562 50.786901134754302 0 0.70710678939079041 0.70710677298230451 1 0 0 forward_v I I I I #
loop $-1 $-1 $322 $85 #
coedge $-1 $216 $216 $217 $323 reversed $134 $-1 #
coedge $-1 $217 $217 $216 $323 forward $136 $-1 #
coedge $-1 $218 $218 $137 $219 forward $213 $-1 #
edge $-1 $324 4.1869113285805381e-016 $324 6.2831853071796004 $218 $325 forward 7 unknown #
face $-1 $326 $327 $33 $-1 $328 reversed single #
loop $-1 $-1 $329 $138 #
plane-surface $-1 -73.366496780297254 0 0 1 0 0 0 0 -1 forward_v I I I I #
coedge $-1 $330 $231 $331 $332 forward $139 $-1 #
coedge $-1 $333 $141 $330 $334 forward $89 $-1 #
coedge $-1 $141 $333 $335 $336 forward $89 $-1 #
coedge $-1 $234 $233 $141 $227 reversed $235 $-1 #
edge $-1 $337 -35.129357317864738 $338 35.129357317864738 $226 $339 forward 7 unknown #
coedge $-1 $143 $142 $340 $341 forward $56 $-1 #
coedge $-1 $342 $343 $142 $230 reversed $327 $-1 #
edge $-1 $237 -73.366496780297254 $344 73.366496780297254 $229 $345 forward 7 unknown #
coedge $-1 $223 $346 $143 $232 reversed $139 $-1 #
edge $-1 $347 -73.366496780297254 $236 73.366496780297254 $231 $348 forward 7 unknown #
coedge $-1 $226 $144 $346 $349 forward $235 $-1 #
coedge $-1 $144 $226 $342 $350 reversed $235 $-1 #
loop $-1 $-1 $233 $326 #
vertex $-1 $145 $351 #
vertex $-1 $145 $352 #
straight-curve $-1 73.366496780297254 0 11.13467794328475 0 1 0 I I #
face $-1 $353 $354 $34 $-1 $355 reversed single #
loop $-1 $-1 $356 $146 #
plane-surface $-1 0 -35.129357317864738 0 0 1 0 0 0 1 forward_v I I I I #
coedge $-1 $245 $152 $357 $358 reversed $147 $-1 #
coedge $-1 $359 $149 $356 $360 reversed $93 $-1 #
coedge $-1 $149 $359 $361 $362 reversed $93 $-1 #
coedge $-1 $252 $242 $149 $246 reversed $147 $-1 #
edge $-1 $363 -35.129357317864738 $364 35.129357317864738 $245 $365 forward 7 unknown #
coedge $-1 $151 $150 $366 $367 reversed $59 $-1 #
coedge $-1 $368 $369 $150 $249 forward $370 $-1 #
edge $-1 $371 -39.475329965953215 $254 -28.307003662734864 $248 $372 forward 7 unknown #
coedge $-1 $373 $357 $151 $251 forward $240 $-1 #
edge $-1 $253 28.307003662734864 $374 39.475329965953215 $250 $375 forward 7 unknown #
coedge $-1 $152 $245 $368 $376 reversed $147 $-1 #
vertex $-1 $251 $377 #
vertex $-1 $249 $378 #
straight-curve $-1 -62.198170477078904 0 -0.10680841293986587 0 1 0 I I #
face $-1 $-1 $379 $35 $-1 $380 reversed single #
loop $-1 $-1 $160 $154 #
plane-surface $-1 0 -35.129357317864738 0 0 1 0 0 0 1 forward_v I I I I #
coedge $-1 $264 $381 $382 $383 forward $155 $-1 #
coedge $-1 $382 $157 $159 $266 forward $97 $-1 #
coedge $-1 $157 $382 $384 $385 reversed $97 $-1 #
coedge $-1 $386 $160 $157 $263 forward $257 $-1 #
edge $-1 $269 10.462612360186959 $387 45.423460400135859 $262 $388 forward 7 unknown #
coedge $-1 $389 $259 $158 $265 forward $155 $-1 #
edge $-1 $390 -39.823615503520131 $268 -36.092180942514211 $264 $391 forward 7 unknown #
edge $-1 $269 1.0692042983031357e-014 $390 5.4713249004802904 $159 $392 forward 7 unknown #
coedge $-1 $160 $386 $389 $393 reversed $257 $-1 #
vertex $-1 $393 $394 #
vertex $-1 $161 $395 #
straight-curve $-1 38.405648740348369 -35.129357317864738 53.602431927137147 0 0 -1 I I #
coedge $-1 $271 $271 $-1 $396 reversed $164 $-1 #
edge $-1 $397 0 $397 6.2831853071796004 $165 $398 forward 7 unknown #
vertex $-1 $168 $399 #
ellipse-curve $-1 48.39446246604804 -33.263640037361775 9.1339410613118801 0 -0.73135370988377701 0.68199835119979291 1 0 0 1 I I #
coedge $-1 $275 $275 $-1 $400 reversed $171 $-1 #
edge $-1 $401 0 $401 6.2831853071796004 $172 $402 forward 7 unknown #
vertex $-1 $175 $403 #
ellipse-curve $-1 63.377683054597568 -33.263640037361775 9.1339410613118801 0 -0.73135370988377701 0.68199835119979291 1 0 0 1 I I #
face $-1 $-1 $291 $38 $-1 $404 forward single #
loop $-1 $-1 $405 $176 #
plane-surface $-1 0 35.129357317864738 0 0 -1 0 0 0 -1 forward_v I I I I #
coedge $-1 $406 $407 $408 $409 reversed $177 $-1 #
coedge $-1 $410 $179 $181 $289 forward $111 $-1 #
coedge $-1 $179 $410 $406 $411 forward $111 $-1 #
coedge $-1 $408 $182 $179 $286 forward $291 $-1 #
edge $-1 $293 -27.552935916562809 $412 -4.0329812327400454 $285 $413 forward 7 unknown #
coedge $-1 $414 $415 $180 $288 forward $280 $-1 #
edge $-1 $416 -76.164910348749899 $292 -66.136719407425034 $287 $417 forward 7 unknown #
edge $-1 $293 56.076711164988289 $416 70.258714635729532 $181 $418 forward 7 unknown #
coedge $-1 $182 $408 $414 $419 forward $291 $-1 #
loop $-1 $-1 $408 $279 #
vertex $-1 $288 $420 #
vertex $-1 $183 $421 #
straight-curve $-1 -43.345894491214239 44.602420156120473 11.134677943284757 0 -1 0 I I #
coedge $-1 $295 $295 $-1 $422 reversed $186 $-1 #
edge $-1 $423 0 $423 6.2831853071796004 $187 $424 forward 7 unknown #
vertex $-1 $190 $425 #
ellipse-curve $-1 -36.625907438693446 30.115261963554907 6.1205824726223073 0 0.70710678939079041 0.70710677298230451 1.5 0 0 1 I I #
coedge $-1 $299 $299 $-1 $426 reversed $193 $-1 #
edge $-1 $427 0 $427 6.2831853071796004 $194 $428 forward 7 unknown #
vertex $-1 $197 $429 #
ellipse-curve $-1 -26.545926859912257 30.115261963554907 6.1205824726223073 0 0.70710678939079041 0.70710677298230451 1.5 0 0 1 I I #
face $-1 $-1 $430 $41 $-1 $431 reversed single #
loop $-1 $-1 $204 $198 #
plane-surface $-1 0 0 11.13467794328475 0 0 1 1 0 0 forward_v I I I I #
coedge $-1 $432 $433 $434 $435 reversed $199 $-1 #
coedge $-1 $436 $201 $203 $313 forward $125 $-1 #
coedge $-1 $201 $436 $432 $437 forward $125 $-1 #
coedge $-1 $434 $204 $201 $310 forward $304 $-1 #
edge $-1 $316 6.3382308977812265 $438 29.85818558160399 $309 $439 forward 7 unknown #
coedge $-1 $440 $441 $202 $312 forward $430 $-1 #
edge $-1 $442 -76.164910348749899 $315 -66.136719407425034 $311 $443 forward 7 unknown #
edge $-1 $316 56.076711164988289 $442 70.258714635729532 $203 $444 forward 7 unknown #
coedge $-1 $204 $434 $440 $445 forward $304 $-1 #
vertex $-1 $205 $446 #
vertex $-1 $205 $447 #
straight-curve $-1 24.436439137473837 44.602420156120473 11.134677943284757 0 -1 0 I I #
coedge $-1 $318 $318 $-1 $448 reversed $208 $-1 #
edge $-1 $449 0 $449 6.2831853071796004 $209 $450 forward 7 unknown #
vertex $-1 $212 $451 #
ellipse-curve $-1 31.156426189994633 30.115261963554907 6.1205824726223073 0 0.70710678939079041 0.70710677298230451 1.5 0 0 1 I I #
coedge $-1 $322 $322 $-1 $452 reversed $215 $-1 #
edge $-1 $453 0 $453 6.2831853071796004 $216 $454 forward 7 unknown #
vertex $-1 $219 $455 #
ellipse-curve $-1 41.236406768775822 30.115261963554907 6.1205824726223073 0 0.70710678939079041 0.70710677298230451 1.5 0 0 1 I I #
face $-1 $-1 $235 $33 $-1 $456 reversed single #
loop $-1 $-1 $342 $220 #
plane-surface $-1 0 35.129357317864738 0 0 -1 0 0 0 -1 forward_v I I I I #
coedge $-1 $457 $340 $343 $458 forward $221 $-1 #
coedge $-1 $346 $223 $224 $334 reversed $139 $-1 #
coedge $-1 $340 $457 $223 $332 reversed $221 $-1 #
edge $-1 $347 -11.13467794328475 $459 11.13467794328475 $331 $460 forward 7 unknown #
coedge $-1 $225 $224 $457 $461 forward $89 $-1 #
edge $-1 $338 -73.366496780297254 $459 73.366496780297254 $330 $462 forward 7 unknown #
coedge $-1 $343 $342 $225 $336 reversed $327 $-1 #
edge $-1 $463 -73.366496780297254 $337 73.366496780297254 $335 $464 forward 7 unknown #
vertex $-1 $227 $465 #
vertex $-1 $349 $466 #
straight-curve $-1 73.366496780297254 0 -11.13467794328475 0 -1 0 I I #
coedge $-1 $329 $331 $228 $341 reversed $221 $-1 #
edge $-1 $344 -35.129357317864738 $347 35.129357317864738 $340 $467 forward 7 unknown #
coedge $-1 $335 $229 $234 $350 forward $327 $-1 #
coedge $-1 $229 $335 $329 $458 reversed $327 $-1 #
vertex $-1 $230 $468 #
straight-curve $-1 0 35.129357317864738 11.13467794328475 -1 0 0 I I #
coedge $-1 $231 $330 $233 $349 reversed $139 $-1 #
vertex $-1 $341 $469 #
straight-curve $-1 0 -35.129357317864738 11.13467794328475 1 0 0 I I #
edge $-1 $236 -11.13467794328475 $338 11.13467794328475 $233 $470 forward 7 unknown #
edge $-1 $237 -11.13467794328475 $337 11.13467794328475 $234 $471 forward 7 unknown #
point $-1 73.366496780297254 -35.129357317864738 11.13467794328475 #
point $-1 73.366496780297254 35.129357317864738 11.13467794328475 #
face $-1 $-1 $370 $34 $-1 $472 reversed single #
loop $-1 $-1 $473 $239 #
plane-surface $-1 -73.366496780297254 0 0 1 0 0 0 0 -1 forward_v I I I I #
coedge $-1 $357 $373 $243 $360 forward $240 $-1 #
coedge $-1 $250 $356 $242 $358 forward $240 $-1 #
edge $-1 $364 -3.1885430790747566 $253 0.99164208439834178 $357 $474 forward 7 unknown #
coedge $-1 $244 $243 $473 $475 reversed $93 $-1 #
edge $-1 $476 -39.475329965953215 $364 -28.307003662734864 $356 $477 forward 7 unknown #
coedge $-1 $369 $368 $244 $362 forward $370 $-1 #
edge $-1 $363 28.307003662734864 $478 39.475329965953215 $361 $479 forward 7 unknown #
vertex $-1 $362 $480 #
vertex $-1 $360 $481 #
straight-curve $-1 -62.198170477078904 0 -4.2869935764129643 0 -1 0 I I #
coedge $-1 $482 $483 $247 $367 forward $354 $-1 #
edge $-1 $374 -35.129357317864738 $371 35.129357317864738 $366 $484 forward 7 unknown #
coedge $-1 $361 $248 $252 $376 forward $370 $-1 #
coedge $-1 $248 $361 $482 $485 reversed $370 $-1 #
loop $-1 $-1 $361 $353 #
vertex $-1 $485 $486 #
straight-curve $-1 -33.891166814344039 35.129357317864738 -0.10680841293986587 1 0 0 I I #
coedge $-1 $356 $250 $483 $487 forward $240 $-1 #
vertex $-1 $487 $488 #
straight-curve $-1 -33.891166814344039 -35.129357317864738 -0.10680841293986587 -1 0 0 I I #
edge $-1 $254 -0.99164208439834178 $363 3.1885430790747566 $368 $489 forward 7 unknown #
point $-1 -62.198170477078904 -35.129357317864738 -0.10680841293986587 #
point $-1 -62.198170477078904 35.129357317864738 -0.10680841293986587 #
loop $-1 $-1 $384 $256 #
plane-surface $-1 73.366496780297254 0 0 -1 0 0 0 0 1 forward_v I I I I #
coedge $-1 $259 $389 $490 $491 forward $155 $-1 #
coedge $-1 $261 $260 $259 $383 reversed $97 $-1 #
edge $-1 $492 -45.423460400135859 $390 -10.462612360186959 $259 $493 forward 7 unknown #
coedge $-1 $490 $494 $261 $385 forward $379 $-1 #
edge $-1 $387 -9.3706342147870352 $492 -3.8993093143067568 $384 $495 forward 7 unknown #
coedge $-1 $267 $262 $494 $496 reversed $257 $-1 #
vertex $-1 $263 $497 #
straight-curve $-1 27.943036380161409 -35.129357317864738 7.1332041793390175 1 0 0 I I #
coedge $-1 $381 $264 $267 $393 forward $155 $-1 #
vertex $-1 $265 $498 #
straight-curve $-1 38.405648740348369 -71.221538260378949 11.13467794328475 0 -1 0 I I #
straight-curve $-1 38.405648740348369 -35.129357317864745 7.1332041793390033 0 0.68199835119979291 0.73135370988377701 I I #
edge $-1 $268 38.405648740348369 $499 73.366496780297254 $267 $500 forward 7 unknown #
point $-1 38.405648740348369 -35.129357317864738 11.13467794328475 #
point $-1 38.405648740348369 -35.129357317864738 7.1332041793390113 #
edge $-1 $501 1 $501 0 $271 $-1 forward 7 unknown #
vertex $-1 $272 $502 #
ellipse-curve $-1 48.39446246604804 -31.117767410156162 7.1328825121297532 0 -0.73135370988377701 0.68199835119979291 1 0 0 1 I I #
point $-1 49.39446246604804 -33.263640037361768 9.1339410613118712 #
edge $-1 $503 1 $503 0 $275 $-1 forward 7 unknown #
vertex $-1 $276 $504 #
ellipse-curve $-1 63.377683054597568 -31.117767410156162 7.1328825121297532 0 -0.73135370988377701 0.68199835119979291 1 0 0 1 I I #
point $-1 64.377683054597568 -33.263640037361768 9.1339410613118712 #
plane-surface $-1 0 0 11.13467794328475 0 0 1 1 0 0 forward_v I I I I #
coedge $-1 $415 $414 $407 $505 forward $280 $-1 #
coedge $-1 $407 $282 $284 $411 reversed $177 $-1 #
coedge $-1 $282 $406 $405 $505 reversed $177 $-1 #
coedge $-1 $290 $285 $282 $409 forward $291 $-1 #
edge $-1 $412 -19.501253546875411 $506 -9.4730628382557356 $408 $507 forward 7 unknown #
coedge $-1 $284 $283 $415 $508 reversed $111 $-1 #
edge $-1 $509 -70.258714635729532 $412 -56.076711164988289 $406 $510 forward 7 unknown #
vertex $-1 $286 $511 #
straight-curve $-1 -15.792958574651429 25.10116660924507 11.134677943284746 1 0 0 I I #
coedge $-1 $405 $287 $290 $419 reversed $280 $-1 #
coedge $-1 $287 $405 $410 $508 forward $280 $-1 #
vertex $-1 $288 $512 #
straight-curve $-1 -43.345894491214239 35.129357317864738 77.271397350709776 0 0 1 I I #
straight-curve $-1 -43.345894491214239 -14.551055662090562 50.786901134754302 0 0.70710677298230451 -0.70710678939079041 I I #
edge $-1 $506 19.825939807391475 $292 43.345894491214239 $414 $513 forward 7 unknown #
point $-1 -43.345894491214239 35.129357317864738 11.13467794328475 #
point $-1 -43.345894491214239 25.101166609245062 11.13467794328475 #
edge $-1 $514 1 $514 0 $295 $-1 forward 7 unknown #
vertex $-1 $296 $515 #
ellipse-curve $-1 -36.625907438693446 28.036216512232329 4.0415370695441908 0 0.70710678939079041 0.70710677298230451 1.5 0 0 1 I I #
point $-1 -35.125907438693446 30.115261963554925 6.1205824726223241 #
edge $-1 $516 1 $516 0 $299 $-1 forward 7 unknown #
vertex $-1 $300 $517 #
ellipse-curve $-1 -26.545926859912257 28.036216512232329 4.0415370695441908 0 0.70710678939079041 0.70710677298230451 1.5 0 0 1 I I #
point $-1 -25.045926859912257 30.115261963554925 6.1205824726223241 #
loop $-1 $-1 $311 $303 #
plane-surface $-1 0 35.129357317864738 0 0 -1 0 0 0 -1 forward_v I I I I #
coedge $-1 $433 $306 $308 $437 reversed $199 $-1 #
coedge $-1 $306 $432 $518 $519 reversed $199 $-1 #
coedge $-1 $314 $309 $306 $435 forward $304 $-1 #
edge $-1 $438 -19.501253546875411 $520 -9.4730628382557356 $434 $521 forward 7 unknown #
coedge $-1 $308 $307 $441 $522 reversed $125 $-1 #
edge $-1 $523 -70.258714635729532 $438 -56.076711164988289 $432 $524 forward 7 unknown #
vertex $-1 $310 $525 #
straight-curve $-1 18.09820823969261 25.10116660924507 11.134677943284746 1 0 0 I I #
coedge $-1 $518 $311 $314 $445 reversed $430 $-1 #
coedge $-1 $311 $518 $436 $522 forward $430 $-1 #
vertex $-1 $312 $526 #
straight-curve $-1 24.436439137473837 35.129357317864738 77.271397350709776 0 0 1 I I #
straight-curve $-1 24.436439137473837 -14.551055662090562 50.786901134754302 0 0.70710677298230451 -0.70710678939079041 I I #
edge $-1 $520 -47.956393821296601 $315 -24.436439137473837 $440 $527 forward 7 unknown #
point $-1 24.436439137473837 35.129357317864738 11.13467794328475 #
point $-1 24.436439137473837 25.101166609245062 11.13467794328475 #
edge $-1 $528 1 $528 0 $318 $-1 forward 7 unknown #
vertex $-1 $319 $529 #
ellipse-curve $-1 31.156426189994633 28.036216512232329 4.0415370695441908 0 0.70710678939079041 0.70710677298230451 1.5 0 0 1 I I #
point $-1 32.656426189994633 30.115261963554925 6.1205824726223241 #
edge $-1 $530 1 $530 0 $322 $-1 forward 7 unknown #
vertex $-1 $323 $531 #
ellipse-curve $-1 41.236406768775822 28.036216512232329 4.0415370695441908 0 0.70710678939079041 0.70710677298230451 1.5 0 0 1 I I #
point $-1 42.736406768775822 30.115261963554925 6.1205824726223241 #
plane-surface $-1 73.366496780297254 0 0 -1 0 0 0 0 1 forward_v I I I I #
coedge $-1 $331 $329 $333 $461 reversed $221 $-1 #
edge $-1 $344 -11.13467794328475 $463 11.13467794328475 $343 $532 forward 7 unknown #
vertex $-1 $461 $533 #
straight-curve $-1 -73.366496780297254 -35.129357317864738 0 0 0 -1 I I #
edge $-1 $459 -35.129357317864738 $463 35.129357317864738 $457 $534 forward 7 unknown #
straight-curve $-1 0 -35.129357317864738 -11.13467794328475 -1 0 0 I I #
vertex $-1 $336 $535 #
straight-curve $-1 0 35.129357317864738 -11.13467794328475 1 0 0 I I #
point $-1 73.366496780297254 35.129357317864738 -11.13467794328475 #
point $-1 73.366496780297254 -35.129357317864738 -11.13467794328475 #
straight-curve $-1 -73.366496780297254 0 11.13467794328475 0 -1 0 I I #
point $-1 -73.366496780297254 35.129357317864738 11.13467794328475 #
point $-1 -73.366496780297254 -35.129357317864738 11.13467794328475 #
straight-curve $-1 73.366496780297254 -35.129357317864738 0 0 0 -1 I I #
straight-curve $-1 73.366496780297254 35.129357317864738 0 0 0 -1 I I #
plane-surface $-1 0 35.129357317864738 0 0 -1 0 0 0 -1 forward_v I I I I #
coedge $-1 $483 $482 $359 $475 forward $354 $-1 #
straight-curve $-1 -62.198170477078904 -35.129357317864738 -1.0984504973382077 0 0 1 I I #
edge $-1 $478 -35.129357317864738 $476 35.129357317864738 $473 $536 forward 7 unknown #
vertex $-1 $360 $537 #
straight-curve $-1 -33.891166814344039 -35.129357317864738 -4.2869935764129643 1 0 0 I I #
vertex $-1 $362 $538 #
straight-curve $-1 -33.891166814344039 35.129357317864738 -4.2869935764129643 -1 0 0 I I #
point $-1 -62.198170477078904 35.129357317864738 -4.2869935764129643 #
point $-1 -62.198170477078904 -35.129357317864738 -4.2869935764129643 #
coedge $-1 $473 $366 $369 $485 forward $354 $-1 #
coedge $-1 $366 $473 $373 $487 reversed $354 $-1 #
straight-curve $-1 -73.366496780297254 0 -0.10680841293986587 0 1 0 I I #
edge $-1 $371 0.10680841293986587 $478 4.2869935764129643 $369 $539 forward 7 unknown #
point $-1 -73.366496780297254 35.129357317864738 -0.10680841293986587 #
edge $-1 $374 0.10680841293986587 $476 4.2869935764129643 $483 $540 forward 7 unknown #
point $-1 -73.366496780297254 -35.129357317864738 -0.10680841293986587 #
straight-curve $-1 -62.198170477078904 35.129357317864738 -1.0984504973382077 0 0 -1 I I #
coedge $-1 $494 $384 $381 $491 reversed $379 $-1 #
edge $-1 $499 -35.129357317864738 $492 -31.397922756858815 $490 $541 forward 7 unknown #
vertex $-1 $385 $542 #
straight-curve $-1 27.943036380161409 -31.397922756858815 11.13467794328475 -1 0 0 I I #
coedge $-1 $384 $490 $386 $496 forward $379 $-1 #
straight-curve $-1 73.366496780297254 -28.738600233683613 13.986452276287364 0 0.68199835119979291 0.73135370988377701 I I #
edge $-1 $499 -11.13467794328475 $387 -7.1332041793390113 $494 $543 forward 7 unknown #
point $-1 73.366496780297268 -35.129357317864738 7.1332041793390113 #
point $-1 38.405648740348369 -31.397922756858815 11.13467794328475 #
vertex $-1 $491 $544 #
straight-curve $-1 0 -35.129357317864738 11.13467794328475 1 0 0 I I #
vertex $-1 $396 $545 #
point $-1 49.39446246604804 -31.117767410156162 7.1328825121297532 #
vertex $-1 $400 $546 #
point $-1 64.377683054597568 -31.117767410156162 7.1328825121297532 #
edge $-1 $506 66.136719407425034 $509 76.164910348749899 $405 $547 forward 7 unknown #
vertex $-1 $419 $548 #
straight-curve $-1 -19.825939807391475 44.602420156120473 11.134677943284757 0 1 0 I I #
edge $-1 $509 4.0329812327400454 $416 27.552935916562809 $415 $549 forward 7 unknown #
vertex $-1 $508 $550 #
straight-curve $-1 -19.825939807391475 -14.551055662090562 50.786901134754302 0 -0.70710677298230451 0.70710678939079041 I I #
point $-1 -19.825939807391475 25.101166609245062 11.13467794328475 #
point $-1 -43.345894491214239 35.129357317864731 1.1064870019598771 #
straight-curve $-1 0 35.129357317864738 11.13467794328475 -1 0 0 I I #
vertex $-1 $422 $551 #
point $-1 -35.125907438693446 28.036216512232329 4.0415370695441908 #
vertex $-1 $426 $552 #
point $-1 -25.045926859912257 28.036216512232329 4.0415370695441908 #
coedge $-1 $441 $440 $433 $519 forward $430 $-1 #
edge $-1 $520 66.136719407425034 $523 76.164910348749899 $518 $553 forward 7 unknown #
vertex $-1 $445 $554 #
straight-curve $-1 47.956393821296601 44.602420156120473 11.134677943284757 0 1 0 I I #
edge $-1 $523 -29.85818558160399 $442 -6.3382308977812265 $441 $555 forward 7 unknown #
vertex $-1 $522 $556 #
straight-curve $-1 47.956393821296601 -14.551055662090562 50.786901134754302 0 -0.70710677298230451 0.70710678939079041 I I #
point $-1 47.956393821296601 25.101166609245062 11.13467794328475 #
point $-1 24.436439137473837 35.129357317864731 1.1064870019598771 #
straight-curve $-1 0 35.129357317864738 11.13467794328475 -1 0 0 I I #
vertex $-1 $448 $557 #
point $-1 32.656426189994633 28.036216512232329 4.0415370695441908 #
vertex $-1 $452 $558 #
point $-1 42.736406768775822 28.036216512232329 4.0415370695441908 #
straight-curve $-1 -73.366496780297254 35.129357317864738 0 0 0 -1 I I #
point $-1 -73.366496780297254 -35.129357317864738 -11.13467794328475 #
straight-curve $-1 -73.366496780297254 0 -11.13467794328475 0 1 0 I I #
point $-1 -73.366496780297254 35.129357317864738 -11.13467794328475 #
straight-curve $-1 -73.366496780297254 0 -4.2869935764129643 0 -1 0 I I #
point $-1 -73.366496780297254 -35.129357317864738 -4.2869935764129643 #
point $-1 -73.366496780297254 35.129357317864738 -4.2869935764129643 #
straight-curve $-1 -73.366496780297254 35.129357317864738 0 0 0 -1 I I #
straight-curve $-1 -73.366496780297254 -35.129357317864738 0 0 0 -1 I I #
straight-curve $-1 73.366496780297254 0 11.13467794328475 0 1 0 I I #
point $-1 73.366496780297268 -31.397922756858815 11.13467794328475 #
straight-curve $-1 73.366496780297254 -35.129357317864738 0 0 0 -1 I I #
point $-1 73.366496780297254 -35.129357317864738 11.13467794328475 #
point $-1 48.39446246604804 -30.386413700272385 6.4508841609299603 #
point $-1 63.377683054597568 -30.386413700272385 6.4508841609299603 #
straight-curve $-1 -19.825939807391475 35.129357317864738 77.271397350709776 0 0 -1 I I #
point $-1 -19.825939807391475 35.129357317864738 11.13467794328475 #
straight-curve $-1 -15.792958574651429 35.129357317864731 1.1064870019598771 -1 0 0 I I #
point $-1 -19.825939807391475 35.129357317864731 1.1064870019598771 #
point $-1 -36.625907438693446 26.975556328146141 2.9808769100707337 #
point $-1 -26.545926859912257 26.975556328146141 2.9808769100707337 #
straight-curve $-1 47.956393821296601 35.129357317864738 77.271397350709776 0 0 -1 I I #
point $-1 47.956393821296601 35.129357317864738 11.13467794328475 #
straight-curve $-1 18.09820823969261 35.129357317864731 1.1064870019598771 -1 0 0 I I #
point $-1 47.956393821296601 35.129357317864731 1.1064870019598771 #
point $-1 31.156426189994633 26.975556328146141 2.9808769100707337 #
point $-1 41.236406768775822 26.975556328146141 2.9808769100707337 #
End-of-ACIS-data 