500 0 8 0           
7 Unknown 11 ACIS 5.0 NT 24 Thu Mar 25 20:58:48 1999 
-1 9.9999999999999995e-007 1e-010 
body $-1 $8 $-1 $9 #
body $-1 $10 $-1 $11 #
body $-1 $12 $-1 $13 #
body $-1 $14 $-1 $15 #
body $-1 $16 $-1 $17 #
body $-1 $18 $-1 $19 #
body $-1 $20 $-1 $21 #
body $-1 $22 $-1 $23 #
lump $-1 $-1 $24 $0 #
transform $-1 1 0 0 0 1 0 0 0 1 51.606799523911249 34.102980176737418 6.9785852437226401 1 rotate no_reflect no_shear #
lump $-1 $-1 $25 $1 #
transform $-1 1 0 0 0 1 0 0 0 1 51.606799523911249 34.102980176737418 6.9785852437226401 1 rotate no_reflect no_shear #
lump $-1 $-1 $26 $2 #
transform $-1 1 0 0 0 1 0 0 0 1 51.606799523911249 34.102980176737418 6.9785852437226401 1 rotate no_reflect no_shear #
lump $-1 $-1 $27 $3 #
transform $-1 1 0 0 0 1 0 0 0 1 51.606799523911249 34.102980176737418 6.9785852437226401 1 rotate no_reflect no_shear #
lump $-1 $-1 $28 $4 #
transform $-1 1 0 0 0 1 0 0 0 1 51.606799523911249 34.102980176737418 6.9785852437226401 1 rotate no_reflect no_shear #
lump $-1 $-1 $29 $5 #
transform $-1 1 0 0 0 1 0 0 0 1 51.606799523911249 34.102980176737418 6.9785852437226401 1 rotate no_reflect no_shear #
lump $-1 $-1 $30 $6 #
transform $-1 1 0 0 0 1 0 0 0 1 51.606799523911249 34.102980176737418 6.9785852437226401 1 rotate no_reflect no_shear #
lump $-1 $-1 $31 $7 #
transform $-1 1 0 0 0 1 0 0 0 1 51.606799523911249 34.102980176737418 6.9785852437226401 1 rotate no_reflect no_shear #
shell $-1 $-1 $-1 $32 $-1 $8 #
shell $-1 $-1 $-1 $33 $-1 $10 #
shell $-1 $-1 $-1 $34 $-1 $12 #
shell $-1 $-1 $-1 $35 $-1 $14 #
shell $-1 $-1 $-1 $36 $-1 $16 #
shell $-1 $-1 $-1 $37 $-1 $18 #
shell $-1 $-1 $-1 $38 $-1 $20 #
shell $-1 $-1 $-1 $39 $-1 $22 #
face $-1 $40 $41 $24 $-1 $42 forward single #
face $-1 $43 $44 $25 $-1 $45 forward single #
face $-1 $46 $47 $26 $-1 $48 reversed single #
face $-1 $49 $50 $27 $-1 $51 forward single #
face $-1 $52 $53 $28 $-1 $54 forward single #
face $-1 $55 $56 $29 $-1 $57 reversed single #
face $-1 $58 $59 $30 $-1 $60 forward single #
face $-1 $61 $62 $31 $-1 $63 forward single #
face $-1 $64 $65 $24 $-1 $66 reversed single #
loop $-1 $-1 $67 $32 #
plane-surface $-1 0 0 6.9785852437226401 0 0 1 1 0 0 forward_v I I I I #
face $-1 $68 $69 $25 $-1 $70 reversed single #
loop $-1 $-1 $71 $33 #
plane-surface $-1 0 -30.735554563217129 -3.8584439571359694 0 0 1 1 0 0 forward_v I I I I #
face $-1 $72 $73 $26 $-1 $74 reversed single #
loop $-1 $-1 $75 $34 #
plane-surface $-1 59.246075263857946 -5.7367618018760567 145.89594999795719 0 -1 0 -0.74314483375859142 0 -0.66913059716165679 forward_v I I I I #
face $-1 $76 $77 $27 $-1 $78 forward single #
loop $-1 $79 $80 $35 #
cone-surface $-1 47.548199982840323 -11.135238870217151 2.6760735571026331 -0.74314483375859142 0 -0.66913059716165679 0.66913059716165679 0 -0.74314483375859142 1 I I 0 1 1 forward I I I I #
face $-1 $81 $82 $28 $-1 $83 forward single #
loop $-1 $84 $85 $36 #
cone-surface $-1 47.548199982840323 -7.8961526292124944 2.6760735571026331 -0.74314483375859142 0 -0.66913059716165679 0.66913059716165679 0 -0.74314483375859142 1 I I 0 1 1 forward I I I I #
face $-1 $86 $87 $29 $-1 $88 reversed single #
loop $-1 $-1 $89 $37 #
plane-surface $-1 -128.30945242993124 -13.294629697553589 69.193297091937225 0 1 0 -0.74314483375859142 0 0.66913059716165679 forward_v I I I I #
face $-1 $90 $91 $30 $-1 $92 forward single #
loop $-1 $93 $94 $38 #
cone-surface $-1 -47.548199982840316 -11.135238870217151 2.6760735571026224 0.74314483375859142 0 -0.66913059716165679 0.66913059716165679 0 0.74314483375859142 1 I I 0 1 1 forward I I I I #
face $-1 $95 $96 $31 $-1 $97 forward single #
loop $-1 $98 $99 $39 #
cone-surface $-1 -47.548199982840316 -7.8961526292124944 2.6760735571026224 0.74314483375859142 0 -0.66913059716165679 0.66913059716165679 0 0.74314483375859142 1 I I 0 1 1 forward I I I I #
face $-1 $100 $101 $24 $-1 $102 reversed single #
loop $-1 $-1 $103 $40 #
plane-surface $-1 0 0 -6.9785852437226401 0 0 1 1 0 0 forward_v I I I I #
coedge $-1 $104 $105 $106 $107 forward $41 $-1 #
face $-1 $108 $109 $25 $-1 $110 reversed single #
loop $-1 $-1 $111 $43 #
plane-surface $-1 0 -27.368128949696839 -5.4185146004293046 0 -1 0 0 0 -1 forward_v I I I I #
coedge $-1 $112 $113 $114 $115 reversed $44 $-1 #
face $-1 $116 $117 $26 $-1 $118 reversed single #
loop $-1 $-1 $119 $46 #
plane-surface $-1 -17.456577642162017 -9.5156957497148227 76.832572831883908 0.74314483375859142 0 0.66913059716165679 0.66913059716165679 0 -0.74314483375859142 forward_v I I I I #
coedge $-1 $120 $121 $122 $123 reversed $47 $-1 #
face $-1 $-1 $124 $27 $-1 $125 forward single #
loop $-1 $126 $127 $49 #
cone-surface $-1 46.201310923273127 -11.135238870217151 1.4633292308311434 -0.74314483375859142 0 -0.66913059716165679 0.3345652985808284 0 -0.37157241687929571 1 I I -0.70710678118654746 0.70710678118654746 0.5 forward I I I I #
loop $-1 $-1 $128 $35 #
coedge $-1 $80 $80 $129 $130 reversed $50 $-1 #
face $-1 $-1 $131 $28 $-1 $132 forward single #
loop $-1 $133 $134 $52 #
cone-surface $-1 46.201310923273127 -7.8961526292124944 1.4633292308311434 -0.74314483375859142 0 -0.66913059716165679 0.3345652985808284 0 -0.37157241687929571 1 I I -0.70710678118654746 0.70710678118654746 0.5 forward I I I I #
loop $-1 $-1 $135 $36 #
coedge $-1 $85 $85 $136 $137 reversed $53 $-1 #
face $-1 $138 $139 $29 $-1 $140 reversed single #
loop $-1 $-1 $141 $55 #
plane-surface $-1 -51.606799523911278 -9.5156957497148227 0.12991992586394474 -0.74314483375859142 0 0.66913059716165679 0.66913059716165679 0 0.74314483375859142 forward_v I I I I #
coedge $-1 $142 $143 $144 $145 reversed $56 $-1 #
face $-1 $-1 $146 $30 $-1 $147 forward single #
loop $-1 $148 $149 $58 #
cone-surface $-1 -46.20131092327312 -11.135238870217151 1.4633292308311328 0.74314483375859142 0 -0.66913059716165679 0.3345652985808284 0 0.37157241687929571 1 I I -0.70710678118654746 0.70710678118654746 0.5 forward I I I I #
loop $-1 $-1 $150 $38 #
coedge $-1 $94 $94 $151 $152 reversed $59 $-1 #
face $-1 $-1 $153 $31 $-1 $154 forward single #
loop $-1 $155 $156 $61 #
cone-surface $-1 -46.20131092327312 -7.8961526292124944 1.4633292308311328 0.74314483375859142 0 -0.66913059716165679 0.3345652985808284 0 0.37157241687929571 1 I I -0.70710678118654746 0.70710678118654746 0.5 forward I I I I #
loop $-1 $-1 $157 $39 #
coedge $-1 $99 $99 $158 $159 reversed $62 $-1 #
face $-1 $160 $161 $24 $-1 $162 reversed single #
loop $-1 $-1 $163 $64 #
plane-surface $-1 0 -34.102980176737418 0 0 1 0 0 0 1 forward_v I I I I #
coedge $-1 $164 $165 $166 $167 forward $65 $-1 #
coedge $-1 $168 $67 $169 $170 forward $41 $-1 #
coedge $-1 $67 $168 $171 $172 forward $41 $-1 #
coedge $-1 $173 $174 $67 $107 reversed $175 $-1 #
edge $-1 $176 -34.102980176737418 $177 34.102980176737418 $106 $178 forward 7 unknown #
face $-1 $179 $180 $25 $-1 $181 reversed single #
loop $-1 $-1 $182 $68 #
plane-surface $-1 0 0 -6.9785852437226401 0 0 1 1 0 0 forward_v I I I I #
coedge $-1 $183 $184 $185 $186 reversed $69 $-1 #
coedge $-1 $187 $71 $184 $188 forward $44 $-1 #
coedge $-1 $71 $187 $189 $190 reversed $44 $-1 #
coedge $-1 $191 $185 $71 $115 forward $180 $-1 #
edge $-1 $192 12.000351668088275 $193 18.735202895128854 $114 $194 forward 7 unknown #
face $-1 $195 $196 $26 $-1 $197 reversed single #
loop $-1 $-1 $198 $72 #
plane-surface $-1 59.246075263857946 -13.294629697553589 145.89594999795719 0 1 0 0.74314483375859142 0 0.66913059716165679 forward_v I I I I #
coedge $-1 $199 $200 $201 $202 reversed $73 $-1 #
coedge $-1 $121 $75 $203 $204 reversed $47 $-1 #
coedge $-1 $75 $120 $199 $205 reversed $47 $-1 #
coedge $-1 $201 $206 $75 $123 forward $207 $-1 #
edge $-1 $208 -21.983761891982276 $209 -15.817196095216254 $122 $210 forward 7 unknown #
loop $-1 $-1 $129 $76 #
plane-surface $-1 -17.456577642162017 -9.5156957497148227 76.832572831883908 0.74314483375859142 0 0.66913059716165679 0.66913059716165679 0 -0.74314483375859142 forward_v I I I I #
loop $-1 $-1 $211 $49 #
coedge $-1 $127 $127 $128 $212 reversed $77 $-1 #
coedge $-1 $128 $128 $127 $212 forward $79 $-1 #
coedge $-1 $129 $129 $80 $130 forward $124 $-1 #
edge $-1 $213 0 $213 6.2831853071796004 $129 $214 forward 7 unknown #
loop $-1 $-1 $136 $81 #
plane-surface $-1 -17.456577642162017 -9.5156957497148227 76.832572831883908 0.74314483375859142 0 0.66913059716165679 0.66913059716165679 0 -0.74314483375859142 forward_v I I I I #
loop $-1 $-1 $215 $52 #
coedge $-1 $134 $134 $135 $216 reversed $82 $-1 #
coedge $-1 $135 $135 $134 $216 forward $84 $-1 #
coedge $-1 $136 $136 $85 $137 forward $131 $-1 #
edge $-1 $217 0 $217 6.2831853071796004 $136 $218 forward 7 unknown #
face $-1 $219 $220 $29 $-1 $221 forward single #
loop $-1 $-1 $222 $86 #
plane-surface $-1 -128.30945242993124 -5.7367618018760567 69.193297091937225 0 -1 0 0.74314483375859142 0 -0.66913059716165679 forward_v I I I I #
coedge $-1 $223 $224 $225 $226 reversed $87 $-1 #
coedge $-1 $143 $89 $227 $228 reversed $56 $-1 #
coedge $-1 $89 $142 $223 $229 reversed $56 $-1 #
coedge $-1 $225 $230 $89 $145 forward $220 $-1 #
edge $-1 $231 12.547926691054371 $232 18.714492487820387 $144 $233 forward 7 unknown #
loop $-1 $-1 $151 $90 #
plane-surface $-1 -51.606799523911278 -9.5156957497148227 0.12991992586394474 -0.74314483375859142 0 0.66913059716165679 0.66913059716165679 0 0.74314483375859142 forward_v I I I I #
loop $-1 $-1 $234 $58 #
coedge $-1 $149 $149 $150 $235 reversed $91 $-1 #
coedge $-1 $150 $150 $149 $235 forward $93 $-1 #
coedge $-1 $151 $151 $94 $152 forward $146 $-1 #
edge $-1 $236 0 $236 6.2831853071796004 $151 $237 forward 7 unknown #
loop $-1 $-1 $158 $95 #
plane-surface $-1 -51.606799523911278 -9.5156957497148227 0.12991992586394474 -0.74314483375859142 0 0.66913059716165679 0.66913059716165679 0 0.74314483375859142 forward_v I I I I #
loop $-1 $-1 $238 $61 #
coedge $-1 $156 $156 $157 $239 reversed $96 $-1 #
coedge $-1 $157 $157 $156 $239 forward $98 $-1 #
coedge $-1 $158 $158 $99 $159 forward $153 $-1 #
edge $-1 $240 0 $240 6.2831853071796004 $158 $241 forward 7 unknown #
face $-1 $242 $243 $24 $-1 $244 reversed single #
loop $-1 $-1 $245 $100 #
plane-surface $-1 -51.606799523911249 0 0 1 0 0 0 0 -1 forward_v I I I I #
coedge $-1 $246 $171 $247 $248 forward $101 $-1 #
coedge $-1 $249 $103 $246 $250 forward $65 $-1 #
coedge $-1 $103 $249 $251 $252 forward $65 $-1 #
coedge $-1 $174 $173 $103 $167 reversed $175 $-1 #
edge $-1 $253 -34.102980176737418 $254 34.102980176737418 $166 $255 forward 7 unknown #
coedge $-1 $105 $104 $256 $257 forward $41 $-1 #
coedge $-1 $258 $259 $104 $170 reversed $243 $-1 #
edge $-1 $177 -51.606799523911249 $260 51.606799523911249 $169 $261 forward 7 unknown #
coedge $-1 $163 $262 $105 $172 reversed $101 $-1 #
edge $-1 $263 -51.606799523911249 $176 51.606799523911249 $171 $264 forward 7 unknown #
coedge $-1 $166 $106 $262 $265 forward $175 $-1 #
coedge $-1 $106 $166 $258 $266 reversed $175 $-1 #
loop $-1 $-1 $173 $242 #
vertex $-1 $107 $267 #
vertex $-1 $107 $268 #
straight-curve $-1 51.606799523911249 0 6.9785852437226401 0 1 0 I I #
face $-1 $269 $270 $25 $-1 $271 reversed single #
loop $-1 $-1 $185 $108 #
plane-surface $-1 51.606799523911249 0 0 -1 0 0 0 0 1 forward_v I I I I #
coedge $-1 $272 $273 $183 $274 forward $109 $-1 #
coedge $-1 $275 $111 $182 $274 reversed $69 $-1 #
coedge $-1 $111 $275 $112 $188 reversed $69 $-1 #
coedge $-1 $114 $276 $111 $186 forward $180 $-1 #
edge $-1 $277 -4.2693279435079869 $192 -1.1491866569213172 $185 $278 forward 7 unknown #
coedge $-1 $113 $112 $279 $280 reversed $44 $-1 #
edge $-1 $192 -51.606799523911249 $281 51.606799523911249 $184 $282 forward 7 unknown #
coedge $-1 $283 $284 $113 $190 forward $270 $-1 #
edge $-1 $193 -51.606799523911249 $285 51.606799523911249 $189 $286 forward 7 unknown #
coedge $-1 $276 $114 $284 $287 forward $180 $-1 #
vertex $-1 $115 $288 #
vertex $-1 $287 $289 #
straight-curve $-1 51.606799523911249 -15.367777281608564 -3.8584439571359694 0 -1 0 I I #
face $-1 $-1 $207 $26 $-1 $290 forward single #
loop $-1 $-1 $291 $116 #
plane-surface $-1 51.606799523911249 0 0 -1 0 0 0 0 1 forward_v I I I I #
coedge $-1 $292 $293 $294 $295 reversed $117 $-1 #
coedge $-1 $296 $119 $121 $205 forward $73 $-1 #
coedge $-1 $119 $296 $292 $297 forward $73 $-1 #
coedge $-1 $294 $122 $119 $202 forward $207 $-1 #
edge $-1 $209 0.97891392701864532 $298 8.5367818226961774 $201 $299 forward 7 unknown #
coedge $-1 $300 $301 $120 $204 forward $196 $-1 #
edge $-1 $302 -72.818055073114635 $208 -65.96938975525596 $203 $303 forward 7 unknown #
edge $-1 $209 93.997810944687458 $302 103.21359904782247 $121 $304 forward 7 unknown #
coedge $-1 $122 $294 $300 $305 forward $207 $-1 #
loop $-1 $-1 $294 $195 #
vertex $-1 $204 $306 #
vertex $-1 $123 $307 #
straight-curve $-1 29.623037631928973 -5.7367618018760567 6.9785852437226339 -1 0 0 I I #
coedge $-1 $211 $211 $-1 $308 reversed $126 $-1 #
edge $-1 $309 0 $309 6.2831853071796004 $127 $310 forward 7 unknown #
vertex $-1 $130 $311 #
ellipse-curve $-1 48.523516625528238 -11.135238870217151 3.5542525847933071 0.74314483375859142 0 0.66913059716165679 0.66913059716165679 0 -0.74314483375859142 1 I I #
coedge $-1 $215 $215 $-1 $312 reversed $133 $-1 #
edge $-1 $313 0 $313 6.2831853071796004 $134 $314 forward 7 unknown #
vertex $-1 $137 $315 #
ellipse-curve $-1 48.523516625528238 -7.8961526292124944 3.5542525847933071 0.74314483375859142 0 0.66913059716165679 0.66913059716165679 0 -0.74314483375859142 1 I I #
face $-1 $-1 $316 $29 $-1 $317 reversed single #
loop $-1 $-1 $144 $138 #
plane-surface $-1 0 0 6.9785852437226401 0 0 1 1 0 0 forward_v I I I I #
coedge $-1 $318 $319 $320 $321 reversed $139 $-1 #
coedge $-1 $322 $141 $143 $229 forward $87 $-1 #
coedge $-1 $141 $322 $318 $323 forward $87 $-1 #
coedge $-1 $320 $144 $141 $226 forward $220 $-1 #
edge $-1 $232 -8.5367818226961774 $324 -0.97891392701864532 $225 $325 forward 7 unknown #
coedge $-1 $326 $327 $142 $228 forward $316 $-1 #
edge $-1 $328 -34.466728620104639 $231 -27.618063302245972 $227 $329 forward 7 unknown #
edge $-1 $232 -9.2157881031350399 $328 -4.2470066560136714e-014 $143 $330 forward 7 unknown #
coedge $-1 $144 $320 $326 $331 forward $220 $-1 #
vertex $-1 $228 $332 #
vertex $-1 $145 $333 #
straight-curve $-1 -64.154726214965621 -13.294629697553589 6.978585243722641 1 0 0 I I #
coedge $-1 $234 $234 $-1 $334 reversed $148 $-1 #
edge $-1 $335 0 $335 6.2831853071796004 $149 $336 forward 7 unknown #
vertex $-1 $152 $337 #
ellipse-curve $-1 -48.523516625528245 -11.135238870217151 3.5542525847933066 -0.74314483375859142 0 0.66913059716165679 0.66913059716165679 0 0.74314483375859142 1 I I #
coedge $-1 $238 $238 $-1 $338 reversed $155 $-1 #
edge $-1 $339 0 $339 6.2831853071796004 $156 $340 forward 7 unknown #
vertex $-1 $159 $341 #
ellipse-curve $-1 -48.523516625528245 -7.8961526292124944 3.5542525847933066 -0.74314483375859142 0 0.66913059716165679 0.66913059716165679 0 0.74314483375859142 1 I I #
face $-1 $-1 $175 $24 $-1 $342 reversed single #
loop $-1 $-1 $258 $160 #
plane-surface $-1 0 34.102980176737418 0 0 -1 0 0 0 -1 forward_v I I I I #
coedge $-1 $343 $256 $259 $344 forward $161 $-1 #
coedge $-1 $262 $163 $164 $250 reversed $101 $-1 #
coedge $-1 $256 $343 $163 $248 reversed $161 $-1 #
edge $-1 $263 -6.9785852437226401 $345 6.9785852437226401 $247 $346 forward 7 unknown #
coedge $-1 $165 $164 $343 $347 forward $65 $-1 #
edge $-1 $254 -51.606799523911249 $345 51.606799523911249 $246 $348 forward 7 unknown #
coedge $-1 $259 $258 $165 $252 reversed $243 $-1 #
edge $-1 $349 -51.606799523911249 $253 51.606799523911249 $251 $350 forward 7 unknown #
vertex $-1 $167 $351 #
vertex $-1 $265 $352 #
straight-curve $-1 51.606799523911249 0 -6.9785852437226401 0 -1 0 I I #
coedge $-1 $245 $247 $168 $257 reversed $161 $-1 #
edge $-1 $260 -34.102980176737418 $263 34.102980176737418 $256 $353 forward 7 unknown #
coedge $-1 $251 $169 $174 $266 forward $243 $-1 #
coedge $-1 $169 $251 $245 $344 reversed $243 $-1 #
vertex $-1 $170 $354 #
straight-curve $-1 0 34.102980176737418 6.9785852437226401 -1 0 0 I I #
coedge $-1 $171 $246 $173 $265 reversed $101 $-1 #
vertex $-1 $257 $355 #
straight-curve $-1 0 -34.102980176737418 6.9785852437226401 1 0 0 I I #
edge $-1 $176 -6.9785852437226401 $254 6.9785852437226401 $173 $356 forward 7 unknown #
edge $-1 $177 -6.9785852437226401 $253 6.9785852437226401 $174 $357 forward 7 unknown #
point $-1 51.606799523911249 -34.102980176737418 6.9785852437226401 #
point $-1 51.606799523911249 34.102980176737418 6.9785852437226401 #
face $-1 $-1 $358 $25 $-1 $359 reversed single #
loop $-1 $-1 $189 $179 #
plane-surface $-1 0 -34.102980176737418 0 0 1 0 0 0 1 forward_v I I I I #
coedge $-1 $360 $182 $276 $361 forward $109 $-1 #
coedge $-1 $182 $360 $362 $363 forward $109 $-1 #
edge $-1 $364 -51.606799523911249 $277 51.606799523911249 $182 $365 forward 7 unknown #
coedge $-1 $184 $183 $366 $367 reversed $69 $-1 #
coedge $-1 $185 $191 $272 $361 reversed $180 $-1 #
vertex $-1 $361 $368 #
straight-curve $-1 51.606799523911249 -27.368128949696839 -2.7092573002146523 0 0 1 I I #
coedge $-1 $366 $369 $187 $280 forward $358 $-1 #
edge $-1 $285 -18.735202895128854 $281 -12.000351668088275 $279 $370 forward 7 unknown #
vertex $-1 $280 $371 #
straight-curve $-1 0 -27.368128949696839 -3.8584439571359694 -1 0 0 I I #
coedge $-1 $372 $189 $369 $373 forward $270 $-1 #
coedge $-1 $189 $372 $191 $287 reversed $270 $-1 #
vertex $-1 $373 $374 #
straight-curve $-1 0 -34.102980176737418 -3.8584439571359694 -1 0 0 I I #
edge $-1 $193 3.8584439571359694 $375 6.9785852437226401 $191 $376 forward 7 unknown #
point $-1 51.606799523911249 -27.368128949696839 -3.8584439571359694 #
point $-1 51.606799523911249 -34.102980176737418 -3.8584439571359694 #
plane-surface $-1 0 0 6.9785852437226401 0 0 1 1 0 0 forward_v I I I I #
coedge $-1 $301 $300 $293 $377 forward $196 $-1 #
coedge $-1 $293 $198 $200 $297 reversed $117 $-1 #
coedge $-1 $198 $292 $291 $377 reversed $117 $-1 #
coedge $-1 $206 $201 $198 $295 forward $207 $-1 #
edge $-1 $298 15.817196095216254 $378 21.983761891982276 $294 $379 forward 7 unknown #
coedge $-1 $200 $199 $301 $380 reversed $73 $-1 #
edge $-1 $381 -103.21359904782247 $298 -93.997810944687458 $292 $382 forward 7 unknown #
vertex $-1 $202 $383 #
straight-curve $-1 45.44023372714522 -4.7578478748574113 6.978585243722641 0 -1 0 I I #
coedge $-1 $291 $203 $206 $305 reversed $196 $-1 #
coedge $-1 $203 $291 $296 $380 forward $196 $-1 #
vertex $-1 $204 $384 #
straight-curve $-1 51.606799523911249 -5.7367618018760567 72.947974998978594 0 0 1 I I #
straight-curve $-1 -17.456577642162017 -5.7367618018760567 76.832572831883908 0.66913059716165679 0 -0.74314483375859142 I I #
edge $-1 $378 -13.294629697553589 $208 -5.7367618018760567 $300 $385 forward 7 unknown #
point $-1 51.606799523911249 -5.7367618018760567 6.9785852437226401 #
point $-1 45.440233727145227 -5.7367618018760567 6.9785852437226339 #
edge $-1 $386 1 $386 0 $211 $-1 forward 7 unknown #
vertex $-1 $212 $387 #
ellipse-curve $-1 46.572883340152423 -11.135238870217151 1.7978945294119719 0.74314483375859142 0 0.66913059716165679 0.66913059716165679 0 -0.74314483375859142 1 I I #
point $-1 49.192647222689885 -11.135238870217151 2.8111077510347022 #
edge $-1 $388 1 $388 0 $215 $-1 forward 7 unknown #
vertex $-1 $216 $389 #
ellipse-curve $-1 46.572883340152423 -7.8961526292124944 1.7978945294119719 0.74314483375859142 0 0.66913059716165679 0.66913059716165679 0 -0.74314483375859142 1 I I #
point $-1 49.192647222689885 -7.8961526292124944 2.8111077510347022 #
loop $-1 $-1 $227 $219 #
plane-surface $-1 -51.606799523911249 0 0 1 0 0 0 0 -1 forward_v I I I I #
coedge $-1 $319 $222 $224 $323 reversed $139 $-1 #
coedge $-1 $222 $318 $390 $391 reversed $139 $-1 #
coedge $-1 $230 $225 $222 $321 forward $220 $-1 #
edge $-1 $324 -18.714492487820387 $392 -12.547926691054371 $320 $393 forward 7 unknown #
coedge $-1 $224 $223 $327 $394 reversed $87 $-1 #
edge $-1 $395 4.2470066560136714e-014 $324 9.2157881031350399 $318 $396 forward 7 unknown #
vertex $-1 $226 $397 #
straight-curve $-1 -45.440233727145241 -4.7578478748574113 6.978585243722641 0 1 0 I I #
coedge $-1 $390 $227 $230 $331 reversed $316 $-1 #
coedge $-1 $227 $390 $322 $394 forward $316 $-1 #
vertex $-1 $228 $398 #
straight-curve $-1 -51.606799523911249 -13.294629697553589 34.596648545968613 0 0 1 I I #
straight-curve $-1 -51.606799523911278 -13.294629697553589 0.12991992586394474 -0.66913059716165679 0 -0.74314483375859142 I I #
edge $-1 $392 5.7367618018760567 $231 13.294629697553589 $326 $399 forward 7 unknown #
point $-1 -51.606799523911249 -13.294629697553589 6.9785852437226401 #
point $-1 -45.440233727145234 -13.294629697553589 6.9785852437226401 #
edge $-1 $400 1 $400 0 $234 $-1 forward 7 unknown #
vertex $-1 $235 $401 #
ellipse-curve $-1 -46.572883340152416 -11.135238870217151 1.7978945294119613 -0.74314483375859142 0 0.66913059716165679 0.66913059716165679 0 0.74314483375859142 1 I I #
point $-1 -47.854386028366562 -11.135238870217151 4.2973974185518742 #
edge $-1 $402 1 $402 0 $238 $-1 forward 7 unknown #
vertex $-1 $239 $403 #
ellipse-curve $-1 -46.572883340152416 -7.8961526292124944 1.7978945294119613 -0.74314483375859142 0 0.66913059716165679 0.66913059716165679 0 0.74314483375859142 1 I I #
point $-1 -47.854386028366562 -7.8961526292124944 4.2973974185518742 #
plane-surface $-1 51.606799523911249 0 0 -1 0 0 0 0 1 forward_v I I I I #
coedge $-1 $247 $245 $249 $347 reversed $161 $-1 #
edge $-1 $260 -6.9785852437226401 $349 6.9785852437226401 $259 $404 forward 7 unknown #
vertex $-1 $347 $405 #
straight-curve $-1 -51.606799523911249 -34.102980176737418 0 0 0 -1 I I #
edge $-1 $345 -34.102980176737418 $349 34.102980176737418 $343 $406 forward 7 unknown #
straight-curve $-1 0 -34.102980176737418 -6.9785852437226401 -1 0 0 I I #
vertex $-1 $252 $407 #
straight-curve $-1 0 34.102980176737418 -6.9785852437226401 1 0 0 I I #
point $-1 51.606799523911249 34.102980176737418 -6.9785852437226401 #
point $-1 51.606799523911249 -34.102980176737418 -6.9785852437226401 #
straight-curve $-1 -51.606799523911249 0 6.9785852437226401 0 -1 0 I I #
point $-1 -51.606799523911249 34.102980176737418 6.9785852437226401 #
point $-1 -51.606799523911249 -34.102980176737418 6.9785852437226401 #
straight-curve $-1 51.606799523911249 -34.102980176737418 0 0 0 -1 I I #
straight-curve $-1 51.606799523911249 34.102980176737418 0 0 0 -1 I I #
loop $-1 $-1 $366 $269 #
plane-surface $-1 -51.606799523911249 0 0 1 0 0 0 0 -1 forward_v I I I I #
coedge $-1 $273 $272 $372 $408 forward $109 $-1 #
edge $-1 $277 27.368128949696839 $375 34.102980176737418 $276 $409 forward 7 unknown #
coedge $-1 $369 $366 $273 $363 reversed $358 $-1 #
edge $-1 $410 -34.102980176737418 $364 -27.368128949696839 $362 $411 forward 7 unknown #
vertex $-1 $367 $412 #
straight-curve $-1 0 -27.368128949696839 -6.9785852437226401 1 0 0 I I #
coedge $-1 $362 $279 $275 $367 forward $358 $-1 #
edge $-1 $281 1.1491866569213172 $364 4.2693279435079869 $366 $413 forward 7 unknown #
point $-1 51.606799523911249 -27.368128949696839 -6.9785852437226392 #
coedge $-1 $279 $362 $283 $373 reversed $358 $-1 #
straight-curve $-1 -51.606799523911249 -15.367777281608564 -3.8584439571359694 0 1 0 I I #
point $-1 -51.606799523911249 -27.368128949696839 -3.8584439571359694 #
coedge $-1 $284 $283 $360 $408 reversed $270 $-1 #
edge $-1 $285 3.8584439571359694 $410 6.9785852437226401 $369 $414 forward 7 unknown #
point $-1 -51.606799523911249 -34.102980176737418 -3.8584439571359694 #
vertex $-1 $287 $415 #
straight-curve $-1 51.606799523911249 -34.102980176737418 0 0 0 -1 I I #
edge $-1 $378 65.96938975525596 $381 72.818055073114635 $291 $416 forward 7 unknown #
vertex $-1 $305 $417 #
straight-curve $-1 29.623037631928973 -13.294629697553589 6.9785852437226339 1 0 0 I I #
edge $-1 $381 -8.5367818226961774 $302 -0.97891392701864532 $301 $418 forward 7 unknown #
vertex $-1 $380 $419 #
straight-curve $-1 -17.456577642162017 -13.294629697553589 76.832572831883908 -0.66913059716165679 0 0.74314483375859142 I I #
point $-1 45.440233727145227 -13.294629697553589 6.9785852437226339 #
point $-1 51.606799523911249 -5.7367618018760567 0.12991992586395895 #
straight-curve $-1 51.606799523911249 0 6.9785852437226401 0 1 0 I I #
vertex $-1 $308 $420 #
point $-1 47.242013937314077 -11.135238870217151 1.0547496956533804 #
vertex $-1 $312 $421 #
point $-1 47.242013937314077 -7.8961526292124944 1.0547496956533804 #
coedge $-1 $327 $326 $319 $391 forward $316 $-1 #
edge $-1 $392 27.618063302245972 $395 34.466728620104639 $390 $422 forward 7 unknown #
vertex $-1 $331 $423 #
straight-curve $-1 -64.154726214965621 -5.7367618018760567 6.978585243722641 -1 0 0 I I #
edge $-1 $395 0.97891392701864532 $328 8.5367818226961774 $327 $424 forward 7 unknown #
vertex $-1 $394 $425 #
straight-curve $-1 -51.606799523911278 -5.7367618018760567 0.12991992586394474 0.66913059716165679 0 0.74314483375859142 I I #
point $-1 -45.440233727145234 -5.7367618018760567 6.9785852437226401 #
point $-1 -51.606799523911249 -13.294629697553589 0.1299199258639763 #
straight-curve $-1 -51.606799523911249 0 6.9785852437226401 0 -1 0 I I #
vertex $-1 $334 $426 #
point $-1 -45.903752742990761 -11.135238870217151 2.5410393631705528 #
vertex $-1 $338 $427 #
point $-1 -45.903752742990761 -7.8961526292124944 2.5410393631705528 #
straight-curve $-1 -51.606799523911249 34.102980176737418 0 0 0 -1 I I #
point $-1 -51.606799523911249 -34.102980176737418 -6.9785852437226401 #
straight-curve $-1 -51.606799523911249 0 -6.9785852437226401 0 1 0 I I #
point $-1 -51.606799523911249 34.102980176737418 -6.9785852437226401 #
edge $-1 $375 -51.606799523911249 $410 51.606799523911249 $372 $428 forward 7 unknown #
straight-curve $-1 51.606799523911249 0 -6.9785852437226401 0 -1 0 I I #
vertex $-1 $363 $429 #
straight-curve $-1 -51.606799523911249 0 -6.9785852437226401 0 1 0 I I #
point $-1 -51.606799523911249 -27.368128949696839 -6.9785852437226392 #
straight-curve $-1 -51.606799523911249 -27.368128949696839 -2.7092573002146523 0 0 -1 I I #
straight-curve $-1 -51.606799523911249 -34.102980176737418 0 0 0 -1 I I #
point $-1 51.606799523911249 -34.102980176737418 -6.9785852437226401 #
straight-curve $-1 51.606799523911249 -13.294629697553589 72.947974998978594 0 0 -1 I I #
point $-1 51.606799523911249 -13.294629697553589 6.9785852437226401 #
straight-curve $-1 51.606799523911249 -4.7578478748574113 0.12991992586395185 0 1 0 I I #
point $-1 51.606799523911249 -13.294629697553589 0.12991992586395895 #
point $-1 45.829738506393831 -11.135238870217151 1.1287639322503149 #
point $-1 45.829738506393831 -7.8961526292124944 1.1287639322503149 #
straight-curve $-1 -51.606799523911249 -5.7367618018760567 34.596648545968613 0 0 -1 I I #
point $-1 -51.606799523911249 -5.7367618018760567 6.9785852437226401 #
straight-curve $-1 -51.606799523911249 -4.7578478748574113 0.12991992586397547 0 -1 0 I I #
point $-1 -51.606799523911249 -5.7367618018760567 0.1299199258639763 #
point $-1 -45.829738506393824 -11.135238870217151 1.1287639322503042 #
point $-1 -45.829738506393824 -7.8961526292124944 1.1287639322503042 #
straight-curve $-1 0 -34.102980176737418 -6.9785852437226401 -1 0 0 I I #
point $-1 -51.606799523911249 -34.102980176737418 -6.9785852437226401 #
End-of-ACIS-data 