500 0 8 0           
7 Unknown 11 ACIS 5.0 NT 24 Thu Mar 25 22:47:18 1999 
-1 9.9999999999999995e-007 1e-010 
body $-1 $8 $-1 $9 #
body $-1 $10 $-1 $11 #
body $-1 $12 $-1 $13 #
body $-1 $14 $-1 $15 #
body $-1 $16 $-1 $17 #
body $-1 $18 $-1 $19 #
body $-1 $20 $-1 $21 #
body $-1 $22 $-1 $23 #
lump $-1 $-1 $24 $0 #
transform $-1 1 0 0 0 1 0 0 0 1 62.083193456831566 39.562380981294069 16.276755821675017 1 rotate no_reflect no_shear #
lump $-1 $-1 $25 $1 #
transform $-1 1 0 0 0 1 0 0 0 1 62.083193456831566 39.562380981294069 16.276755821675017 1 rotate no_reflect no_shear #
lump $-1 $-1 $26 $2 #
transform $-1 1 0 0 0 1 0 0 0 1 62.083193456831566 39.562380981294069 16.276755821675017 1 rotate no_reflect no_shear #
lump $-1 $-1 $27 $3 #
transform $-1 1 0 0 0 1 0 0 0 1 62.083193456831566 39.562380981294069 16.276755821675017 1 rotate no_reflect no_shear #
lump $-1 $-1 $28 $4 #
transform $-1 1 0 0 0 1 0 0 0 1 62.083193456831566 39.562380981294069 16.276755821675017 1 rotate no_reflect no_shear #
lump $-1 $-1 $29 $5 #
transform $-1 1 0 0 0 1 0 0 0 1 62.083193456831566 39.562380981294069 16.276755821675017 1 rotate no_reflect no_shear #
lump $-1 $-1 $30 $6 #
transform $-1 1 0 0 0 1 0 0 0 1 62.083193456831566 39.562380981294069 16.276755821675017 1 rotate no_reflect no_shear #
lump $-1 $-1 $31 $7 #
transform $-1 1 0 0 0 1 0 0 0 1 62.083193456831566 39.562380981294069 16.276755821675017 1 rotate no_reflect no_shear #
shell $-1 $-1 $-1 $32 $-1 $8 #
shell $-1 $-1 $-1 $33 $-1 $10 #
shell $-1 $-1 $-1 $34 $-1 $12 #
shell $-1 $-1 $-1 $35 $-1 $14 #
shell $-1 $-1 $-1 $36 $-1 $16 #
shell $-1 $-1 $-1 $37 $-1 $18 #
shell $-1 $-1 $-1 $38 $-1 $20 #
shell $-1 $-1 $-1 $39 $-1 $22 #
face $-1 $40 $41 $24 $-1 $42 forward single #
face $-1 $43 $44 $25 $-1 $45 forward single #
face $-1 $46 $47 $26 $-1 $48 forward single #
face $-1 $49 $50 $27 $-1 $51 reversed single #
face $-1 $52 $53 $28 $-1 $54 forward single #
face $-1 $55 $56 $29 $-1 $57 forward single #
face $-1 $58 $59 $30 $-1 $60 reversed single #
face $-1 $61 $62 $31 $-1 $63 forward single #
face $-1 $64 $65 $24 $-1 $66 reversed single #
loop $-1 $-1 $67 $32 #
plane-surface $-1 0 0 16.276755821675017 0 0 1 1 0 0 forward_v I I I I #
face $-1 $68 $69 $25 $-1 $70 forward single #
loop $-1 $-1 $71 $33 #
plane-surface $-1 0 -39.562380981294069 0 0 1 0 0 0 1 forward_v I I I I #
face $-1 $72 $73 $26 $-1 $74 reversed single #
loop $-1 $-1 $75 $34 #
plane-surface $-1 0 39.562380981294069 0 0 -1 0 0 0 -1 forward_v I I I I #
face $-1 $76 $77 $27 $-1 $78 reversed single #
loop $-1 $-1 $79 $35 #
plane-surface $-1 101.58410364845832 6.8150835970559243 183.36587890119517 0 -1 0 -0.84804810408105047 0 -0.52991925155115449 forward_v I I I I #
face $-1 $80 $81 $28 $-1 $82 forward single #
loop $-1 $83 $84 $36 #
cone-surface $-1 60.406898536358561 1.5611160995905138 14.007743818746711 -0.84804810408105047 0 -0.52991925155115449 0.13247981288778862 0 -0.21201202602026262 1 I I 0 1 0.25 forward I I I I #
face $-1 $85 $86 $29 $-1 $87 forward single #
loop $-1 $88 $89 $37 #
cone-surface $-1 60.406898536358561 4.7134965980697601 14.007743818746711 -0.84804810408105047 0 -0.52991925155115449 0.13247981288778862 0 -0.21201202602026262 1 I I 0 1 0.25 forward I I I I #
face $-1 $90 $91 $30 $-1 $92 reversed single #
loop $-1 $-1 $93 $38 #
plane-surface $-1 -140.22363359489734 -21.376573571836708 108.86575830666877 0 1 0 -0.62932039886446345 0 0.77714595512881146 forward_v I I I I #
face $-1 $94 $95 $31 $-1 $96 forward single #
loop $-1 $97 $98 $39 #
cone-surface $-1 -58.827512931294748 -15.06026058214492 13.281699243305258 0.62932039886446345 0 -0.77714595512881146 0.77714595512881146 0 0.62932039886446345 1 I I 0 1 1 forward I I I I #
face $-1 $99 $100 $24 $-1 $101 reversed single #
loop $-1 $-1 $102 $40 #
plane-surface $-1 0 0 -16.276755821675017 0 0 1 1 0 0 forward_v I I I I #
coedge $-1 $103 $104 $105 $106 forward $41 $-1 #
face $-1 $107 $108 $25 $-1 $109 reversed single #
loop $-1 $-1 $110 $43 #
plane-surface $-1 0 0 16.276755821675017 0 0 1 1 0 0 forward_v I I I I #
coedge $-1 $111 $112 $113 $114 forward $44 $-1 #
face $-1 $115 $116 $26 $-1 $117 reversed single #
loop $-1 $-1 $118 $46 #
plane-surface $-1 62.083193456831566 0 0 -1 0 0 0 0 1 forward_v I I I I #
coedge $-1 $119 $120 $121 $122 forward $47 $-1 #
face $-1 $123 $124 $27 $-1 $125 reversed single #
loop $-1 $-1 $126 $49 #
plane-surface $-1 -3.7149653642678544 3.1373063488301369 117.56772008009574 0.84804810408105047 0 0.52991925155115449 0.52991925155115449 0 -0.84804810408105047 forward_v I I I I #
coedge $-1 $127 $128 $129 $130 reversed $50 $-1 #
face $-1 $-1 $131 $28 $-1 $132 forward single #
loop $-1 $133 $134 $52 #
cone-surface $-1 59.876868471307901 1.5611160995905138 13.676544286527239 -0.84804810408105047 0 -0.52991925155115449 0.066239906443894311 0 -0.10600601301013131 1 I I -0.70710678118654746 0.70710678118654746 0.125 forward I I I I #
loop $-1 $-1 $135 $36 #
coedge $-1 $84 $84 $136 $137 reversed $53 $-1 #
face $-1 $-1 $138 $29 $-1 $139 forward single #
loop $-1 $140 $141 $55 #
cone-surface $-1 59.876868471307901 4.7134965980697601 13.676544286527239 -0.84804810408105047 0 -0.52991925155115449 0.066239906443894311 0 -0.10600601301013131 1 I I -0.70710678118654746 0.70710678118654746 0.125 forward I I I I #
loop $-1 $-1 $142 $37 #
coedge $-1 $89 $89 $143 $144 reversed $56 $-1 #
face $-1 $145 $146 $30 $-1 $147 reversed single #
loop $-1 $-1 $148 $58 #
plane-surface $-1 -62.083193456831566 -15.06026058214492 12.37035295375648 -0.62932039886446345 0 0.77714595512881146 0.77714595512881146 0 0.62932039886446345 forward_v I I I I #
coedge $-1 $149 $150 $151 $152 reversed $59 $-1 #
face $-1 $-1 $153 $31 $-1 $154 forward single #
loop $-1 $155 $156 $61 #
cone-surface $-1 -57.669175053670493 -15.06026058214492 11.851271121330367 0.62932039886446345 0 -0.77714595512881146 0.38857297756440573 0 0.31466019943223172 1 I I -0.70710678118654746 0.70710678118654746 0.5 forward I I I I #
loop $-1 $-1 $157 $39 #
coedge $-1 $98 $98 $158 $159 reversed $62 $-1 #
face $-1 $160 $161 $24 $-1 $162 reversed single #
loop $-1 $-1 $163 $64 #
plane-surface $-1 0 -39.562380981294069 0 0 1 0 0 0 1 forward_v I I I I #
coedge $-1 $164 $165 $166 $167 forward $65 $-1 #
coedge $-1 $168 $67 $169 $170 forward $41 $-1 #
coedge $-1 $67 $168 $171 $172 forward $41 $-1 #
coedge $-1 $173 $174 $67 $106 reversed $175 $-1 #
edge $-1 $176 -39.562380981294069 $177 39.562380981294069 $105 $178 forward 7 unknown #
face $-1 $179 $180 $25 $-1 $181 reversed single #
loop $-1 $-1 $182 $68 #
plane-surface $-1 -62.083193456831566 0 0 1 0 0 0 0 -1 forward_v I I I I #
coedge $-1 $183 $184 $185 $186 forward $69 $-1 #
coedge $-1 $185 $71 $182 $187 reversed $44 $-1 #
coedge $-1 $71 $185 $188 $189 reversed $44 $-1 #
coedge $-1 $190 $191 $71 $114 reversed $180 $-1 #
edge $-1 $192 -62.083193456831566 $193 62.083193456831566 $113 $194 forward 7 unknown #
face $-1 $195 $196 $26 $-1 $197 reversed single #
loop $-1 $-1 $198 $72 #
plane-surface $-1 0 46.572304380957007 8.857909171181646 0 0 1 1 0 0 forward_v I I I I #
coedge $-1 $199 $200 $119 $201 forward $73 $-1 #
coedge $-1 $202 $75 $118 $201 reversed $47 $-1 #
coedge $-1 $75 $202 $203 $204 reversed $47 $-1 #
coedge $-1 $205 $198 $75 $122 reversed $116 $-1 #
edge $-1 $206 -62.083193456831566 $207 62.083193456831566 $121 $208 forward 7 unknown #
face $-1 $209 $210 $27 $-1 $211 forward single #
loop $-1 $-1 $212 $76 #
plane-surface $-1 101.58410364845832 -0.54047089939565041 183.36587890119517 0 1 0 0.84804810408105047 0 0.52991925155115449 forward_v I I I I #
coedge $-1 $213 $214 $215 $216 reversed $77 $-1 #
coedge $-1 $128 $79 $217 $218 reversed $50 $-1 #
coedge $-1 $79 $127 $213 $219 reversed $50 $-1 #
coedge $-1 $215 $220 $79 $130 forward $210 $-1 #
edge $-1 $221 -11.291141632602404 $222 -8.7865998957374813 $129 $223 forward 7 unknown #
loop $-1 $-1 $136 $80 #
plane-surface $-1 -3.7149653642678544 3.1373063488301369 117.56772008009574 0.84804810408105047 0 0.52991925155115449 0.52991925155115449 0 -0.84804810408105047 forward_v I I I I #
loop $-1 $-1 $224 $52 #
coedge $-1 $134 $134 $135 $225 reversed $81 $-1 #
coedge $-1 $135 $135 $134 $225 forward $83 $-1 #
coedge $-1 $136 $136 $84 $137 forward $131 $-1 #
edge $-1 $226 0 $226 6.2831853071796004 $136 $227 forward 7 unknown #
loop $-1 $-1 $143 $85 #
plane-surface $-1 -3.7149653642678544 3.1373063488301369 117.56772008009574 0.84804810408105047 0 0.52991925155115449 0.52991925155115449 0 -0.84804810408105047 forward_v I I I I #
loop $-1 $-1 $228 $55 #
coedge $-1 $141 $141 $142 $229 reversed $86 $-1 #
coedge $-1 $142 $142 $141 $229 forward $88 $-1 #
coedge $-1 $143 $143 $89 $144 forward $138 $-1 #
edge $-1 $230 0 $230 6.2831853071796004 $143 $231 forward 7 unknown #
face $-1 $232 $233 $30 $-1 $234 reversed single #
loop $-1 $-1 $235 $90 #
plane-surface $-1 -140.22363359489734 -8.743947592453134 108.86575830666877 0 -1 0 0.62932039886446345 0 -0.77714595512881146 forward_v I I I I #
coedge $-1 $236 $237 $238 $239 reversed $91 $-1 #
coedge $-1 $150 $93 $240 $241 reversed $59 $-1 #
coedge $-1 $93 $149 $236 $242 reversed $59 $-1 #
coedge $-1 $238 $243 $93 $152 forward $244 $-1 #
edge $-1 $245 8.0286233406171021 $246 12.852629035306663 $151 $247 forward 7 unknown #
loop $-1 $-1 $158 $94 #
plane-surface $-1 -62.083193456831566 -15.06026058214492 12.37035295375648 -0.62932039886446345 0 0.77714595512881146 0.77714595512881146 0 0.62932039886446345 forward_v I I I I #
loop $-1 $-1 $248 $61 #
coedge $-1 $156 $156 $157 $249 reversed $95 $-1 #
coedge $-1 $157 $157 $156 $249 forward $97 $-1 #
coedge $-1 $158 $158 $98 $159 forward $153 $-1 #
edge $-1 $250 0 $250 6.2831853071796004 $158 $251 forward 7 unknown #
face $-1 $252 $253 $24 $-1 $254 reversed single #
loop $-1 $-1 $255 $99 #
plane-surface $-1 -62.083193456831566 0 0 1 0 0 0 0 -1 forward_v I I I I #
coedge $-1 $256 $171 $257 $258 forward $100 $-1 #
coedge $-1 $259 $102 $256 $260 forward $65 $-1 #
coedge $-1 $102 $259 $261 $262 forward $65 $-1 #
coedge $-1 $174 $173 $102 $167 reversed $175 $-1 #
edge $-1 $263 -39.562380981294069 $264 39.562380981294069 $166 $265 forward 7 unknown #
coedge $-1 $104 $103 $266 $267 forward $41 $-1 #
coedge $-1 $268 $269 $103 $170 reversed $253 $-1 #
edge $-1 $177 -62.083193456831566 $270 62.083193456831566 $169 $271 forward 7 unknown #
coedge $-1 $163 $272 $104 $172 reversed $100 $-1 #
edge $-1 $273 -62.083193456831566 $176 62.083193456831566 $171 $274 forward 7 unknown #
coedge $-1 $166 $105 $272 $275 forward $175 $-1 #
coedge $-1 $105 $166 $268 $276 reversed $175 $-1 #
loop $-1 $-1 $173 $252 #
vertex $-1 $106 $277 #
vertex $-1 $106 $278 #
straight-curve $-1 62.083193456831566 0 16.276755821675017 0 1 0 I I #
face $-1 $279 $280 $25 $-1 $281 reversed single #
loop $-1 $-1 $190 $107 #
plane-surface $-1 0 -46.572304380957 8.857909171181646 0 0 1 1 0 0 forward_v I I I I #
coedge $-1 $282 $283 $111 $187 forward $108 $-1 #
coedge $-1 $284 $110 $283 $285 forward $69 $-1 #
coedge $-1 $110 $284 $286 $287 forward $69 $-1 #
coedge $-1 $112 $111 $110 $186 reversed $44 $-1 #
edge $-1 $288 -62.083193456831566 $289 62.083193456831566 $110 $290 forward 7 unknown #
edge $-1 $289 -16.276755821675017 $193 -8.857909171181646 $182 $291 forward 7 unknown #
coedge $-1 $286 $292 $112 $189 forward $293 $-1 #
edge $-1 $192 8.857909171181646 $288 16.276755821675017 $188 $294 forward 7 unknown #
coedge $-1 $295 $113 $292 $296 forward $180 $-1 #
coedge $-1 $113 $295 $282 $297 forward $180 $-1 #
vertex $-1 $189 $298 #
vertex $-1 $187 $299 #
straight-curve $-1 0 -39.562380981294069 8.857909171181646 -1 0 0 I I #
face $-1 $300 $301 $26 $-1 $302 forward single #
loop $-1 $-1 $303 $115 #
plane-surface $-1 0 53.582227780619938 12.567332496428332 0 -1 0 0 0 -1 forward_v I I I I #
coedge $-1 $121 $304 $199 $305 forward $116 $-1 #
coedge $-1 $306 $118 $198 $305 reversed $73 $-1 #
coedge $-1 $118 $306 $307 $308 reversed $73 $-1 #
edge $-1 $309 -16.276755821675017 $207 -8.857909171181646 $118 $310 forward 7 unknown #
coedge $-1 $120 $119 $311 $312 reversed $47 $-1 #
coedge $-1 $313 $314 $120 $204 forward $315 $-1 #
edge $-1 $206 8.857909171181646 $316 16.276755821675017 $203 $317 forward 7 unknown #
coedge $-1 $304 $121 $314 $318 forward $116 $-1 #
vertex $-1 $204 $319 #
vertex $-1 $201 $320 #
straight-curve $-1 0 39.562380981294069 8.857909171181646 1 0 0 I I #
face $-1 $-1 $321 $27 $-1 $322 reversed single #
loop $-1 $-1 $129 $123 #
plane-surface $-1 0 0 16.276755821675017 0 0 1 1 0 0 forward_v I I I I #
coedge $-1 $323 $324 $325 $326 reversed $124 $-1 #
coedge $-1 $327 $126 $128 $219 forward $77 $-1 #
coedge $-1 $126 $327 $323 $328 forward $77 $-1 #
coedge $-1 $325 $129 $126 $216 forward $210 $-1 #
edge $-1 $222 -5.2464304226408558 $329 2.1091240738107189 $215 $330 forward 7 unknown #
coedge $-1 $331 $332 $127 $218 forward $321 $-1 #
edge $-1 $333 -79.414288383228012 $221 -75.406183628922577 $217 $334 forward 7 unknown #
edge $-1 $222 119.44011639313806 $333 124.1663869136631 $128 $335 forward 7 unknown #
coedge $-1 $129 $325 $331 $336 forward $210 $-1 #
vertex $-1 $218 $337 #
vertex $-1 $130 $338 #
straight-curve $-1 50.792051824229162 6.8150835970559243 16.27675582167501 -1 0 0 I I #
coedge $-1 $224 $224 $-1 $339 reversed $133 $-1 #
edge $-1 $340 0 $340 6.2831853071796004 $134 $341 forward 7 unknown #
vertex $-1 $137 $342 #
ellipse-curve $-1 60.830922588399105 1.5611160995905138 14.2727034445223 0.84804810408105047 0 0.52991925155115449 0.13247981288778862 0 -0.21201202602026262 1 I I #
coedge $-1 $228 $228 $-1 $343 reversed $140 $-1 #
edge $-1 $344 0 $344 6.2831853071796004 $141 $345 forward 7 unknown #
vertex $-1 $144 $346 #
ellipse-curve $-1 60.830922588399105 4.7134965980697601 14.2727034445223 0.84804810408105047 0 0.52991925155115449 0.13247981288778862 0 -0.21201202602026262 1 I I #
face $-1 $-1 $244 $30 $-1 $347 forward single #
loop $-1 $-1 $348 $145 #
plane-surface $-1 -62.083193456831566 0 0 1 0 0 0 0 -1 forward_v I I I I #
coedge $-1 $349 $350 $351 $352 reversed $146 $-1 #
coedge $-1 $353 $148 $150 $242 forward $91 $-1 #
coedge $-1 $148 $353 $349 $354 forward $91 $-1 #
coedge $-1 $351 $151 $148 $239 forward $244 $-1 #
edge $-1 $246 -13.846443280764248 $355 -1.2138173013806739 $238 $356 forward 7 unknown #
coedge $-1 $357 $358 $149 $241 forward $233 $-1 #
edge $-1 $359 -42.062526199577903 $245 -38.156123331659366 $240 $360 forward 7 unknown #
edge $-1 $246 -6.207335524110122 $359 0 $150 $361 forward 7 unknown #
coedge $-1 $151 $351 $357 $362 forward $244 $-1 #
loop $-1 $-1 $351 $232 #
vertex $-1 $241 $363 #
vertex $-1 $152 $364 #
straight-curve $-1 -70.111816797448668 -21.376573571836708 16.276755821675017 1 0 0 I I #
coedge $-1 $248 $248 $-1 $365 reversed $155 $-1 #
edge $-1 $366 0 $366 6.2831853071796004 $156 $367 forward 7 unknown #
vertex $-1 $159 $368 #
ellipse-curve $-1 -59.671190609486779 -15.06026058214492 14.323554387715753 -0.62932039886446345 0 0.77714595512881146 0.77714595512881146 0 0.62932039886446345 1 I I #
face $-1 $-1 $175 $24 $-1 $369 reversed single #
loop $-1 $-1 $268 $160 #
plane-surface $-1 0 39.562380981294069 0 0 -1 0 0 0 -1 forward_v I I I I #
coedge $-1 $370 $266 $269 $371 forward $161 $-1 #
coedge $-1 $272 $163 $164 $260 reversed $100 $-1 #
coedge $-1 $266 $370 $163 $258 reversed $161 $-1 #
edge $-1 $273 -16.276755821675017 $372 16.276755821675017 $257 $373 forward 7 unknown #
coedge $-1 $165 $164 $370 $374 forward $65 $-1 #
edge $-1 $264 -62.083193456831566 $372 62.083193456831566 $256 $375 forward 7 unknown #
coedge $-1 $269 $268 $165 $262 reversed $253 $-1 #
edge $-1 $376 -62.083193456831566 $263 62.083193456831566 $261 $377 forward 7 unknown #
vertex $-1 $167 $378 #
vertex $-1 $275 $379 #
straight-curve $-1 62.083193456831566 0 -16.276755821675017 0 -1 0 I I #
coedge $-1 $255 $257 $168 $267 reversed $161 $-1 #
edge $-1 $270 -39.562380981294069 $273 39.562380981294069 $266 $380 forward 7 unknown #
coedge $-1 $261 $169 $174 $276 forward $253 $-1 #
coedge $-1 $169 $261 $255 $371 reversed $253 $-1 #
vertex $-1 $170 $381 #
straight-curve $-1 0 39.562380981294069 16.276755821675017 -1 0 0 I I #
coedge $-1 $171 $256 $173 $275 reversed $100 $-1 #
vertex $-1 $267 $382 #
straight-curve $-1 0 -39.562380981294069 16.276755821675017 1 0 0 I I #
edge $-1 $176 -16.276755821675017 $264 16.276755821675017 $173 $383 forward 7 unknown #
edge $-1 $177 -16.276755821675017 $263 16.276755821675017 $174 $384 forward 7 unknown #
point $-1 62.083193456831566 -39.562380981294069 16.276755821675017 #
point $-1 62.083193456831566 39.562380981294069 16.276755821675017 #
face $-1 $-1 $293 $25 $-1 $385 reversed single #
loop $-1 $-1 $386 $179 #
plane-surface $-1 0 -53.582227780619931 12.567332496428332 0 1 0 0 0 1 forward_v I I I I #
coedge $-1 $387 $182 $191 $297 reversed $108 $-1 #
coedge $-1 $182 $387 $183 $285 reversed $108 $-1 #
coedge $-1 $184 $183 $388 $389 forward $69 $-1 #
edge $-1 $289 39.562380981294069 $390 53.582227780619931 $283 $391 forward 7 unknown #
coedge $-1 $392 $188 $184 $287 reversed $293 $-1 #
edge $-1 $393 -53.582227780619931 $288 -39.562380981294069 $286 $394 forward 7 unknown #
vertex $-1 $189 $395 #
vertex $-1 $285 $396 #
straight-curve $-1 0 -39.562380981294069 16.276755821675017 -1 0 0 I I #
straight-curve $-1 -62.083193456831566 -39.562380981294069 0 0 0 -1 I I #
coedge $-1 $188 $392 $190 $296 reversed $293 $-1 #
loop $-1 $-1 $188 $279 #
straight-curve $-1 62.083193456831566 -39.562380981294069 0 0 0 1 I I #
coedge $-1 $191 $190 $397 $398 forward $180 $-1 #
edge $-1 $192 -7.0099233996629309 $399 7.0099233996629309 $292 $400 forward 7 unknown #
edge $-1 $401 -7.0099233996629309 $193 7.0099233996629309 $282 $402 forward 7 unknown #
point $-1 62.083193456831566 -39.562380981294069 8.857909171181646 #
point $-1 -62.083193456831566 -39.562380981294069 8.857909171181646 #
face $-1 $-1 $315 $26 $-1 $403 reversed single #
loop $-1 $-1 $311 $195 #
plane-surface $-1 0 0 16.276755821675017 0 0 1 1 0 0 forward_v I I I I #
coedge $-1 $404 $405 $306 $406 forward $196 $-1 #
coedge $-1 $198 $205 $404 $407 forward $116 $-1 #
edge $-1 $408 -7.0099233996629309 $207 7.0099233996629309 $199 $409 forward 7 unknown #
coedge $-1 $200 $199 $303 $406 reversed $73 $-1 #
coedge $-1 $410 $311 $200 $308 forward $301 $-1 #
edge $-1 $309 39.562380981294069 $411 53.582227780619938 $200 $412 forward 7 unknown #
vertex $-1 $308 $413 #
straight-curve $-1 62.083193456831566 39.562380981294069 0 0 0 -1 I I #
coedge $-1 $307 $414 $202 $312 forward $301 $-1 #
edge $-1 $316 -62.083193456831566 $309 62.083193456831566 $311 $415 forward 7 unknown #
coedge $-1 $416 $203 $414 $417 reversed $315 $-1 #
coedge $-1 $203 $416 $205 $318 reversed $315 $-1 #
loop $-1 $-1 $203 $300 #
vertex $-1 $204 $418 #
straight-curve $-1 -62.083193456831566 39.562380981294069 0 0 0 1 I I #
edge $-1 $206 -7.0099233996629309 $419 7.0099233996629309 $314 $420 forward 7 unknown #
point $-1 -62.083193456831566 39.562380981294076 8.857909171181646 #
point $-1 62.083193456831566 39.562380981294076 8.857909171181646 #
loop $-1 $-1 $217 $209 #
plane-surface $-1 62.083193456831566 0 0 -1 0 0 0 0 1 forward_v I I I I #
coedge $-1 $324 $212 $214 $328 reversed $124 $-1 #
coedge $-1 $212 $323 $421 $422 reversed $124 $-1 #
coedge $-1 $220 $215 $212 $326 forward $210 $-1 #
edge $-1 $329 8.7865998957374813 $423 11.291141632602404 $325 $424 forward 7 unknown #
coedge $-1 $214 $213 $332 $425 reversed $77 $-1 #
edge $-1 $426 -124.1663869136631 $329 -119.44011639313806 $323 $427 forward 7 unknown #
vertex $-1 $216 $428 #
straight-curve $-1 59.578651719966658 1.5686531744150685 16.27675582167501 0 -1 0 I I #
coedge $-1 $421 $217 $220 $336 reversed $321 $-1 #
coedge $-1 $217 $421 $327 $425 forward $321 $-1 #
vertex $-1 $218 $429 #
straight-curve $-1 62.083193456831566 6.8150835970559243 91.682939450597587 0 0 1 I I #
straight-curve $-1 -3.7149653642678544 6.8150835970559243 117.56772008009574 0.52991925155115449 0 -0.84804810408105047 I I #
edge $-1 $423 -0.54047089939565041 $221 6.8150835970559243 $331 $430 forward 7 unknown #
point $-1 62.083193456831566 6.8150835970559243 16.276755821675017 #
point $-1 59.578651719966643 6.8150835970559243 16.27675582167501 #
edge $-1 $431 1 $431 0 $224 $-1 forward 7 unknown #
vertex $-1 $225 $432 #
ellipse-curve $-1 59.982874484318032 1.5611160995905138 13.742784192971133 0.84804810408105047 0 0.52991925155115449 0.13247981288778862 0 -0.21201202602026262 1 I I #
point $-1 60.963402401286871 1.5611160995905138 14.060691418502024 #
edge $-1 $433 1 $433 0 $228 $-1 forward 7 unknown #
vertex $-1 $229 $434 #
ellipse-curve $-1 59.982874484318032 4.7134965980697601 13.742784192971133 0.84804810408105047 0 0.52991925155115449 0.13247981288778862 0 -0.21201202602026262 1 I I #
point $-1 60.963402401286871 4.7134965980697601 14.060691418502024 #
plane-surface $-1 0 0 16.276755821675017 0 0 1 1 0 0 forward_v I I I I #
coedge $-1 $358 $357 $350 $435 forward $233 $-1 #
coedge $-1 $350 $235 $237 $354 reversed $146 $-1 #
coedge $-1 $235 $349 $348 $435 reversed $146 $-1 #
coedge $-1 $243 $238 $235 $352 forward $244 $-1 #
edge $-1 $355 -12.852629035306663 $436 -8.0286233406171021 $351 $437 forward 7 unknown #
coedge $-1 $237 $236 $358 $438 reversed $91 $-1 #
edge $-1 $439 0 $355 6.207335524110122 $349 $440 forward 7 unknown #
vertex $-1 $239 $441 #
straight-curve $-1 -57.259187762141998 -7.5301302910724601 16.276755821675017 0 1 0 I I #
coedge $-1 $348 $240 $243 $362 reversed $233 $-1 #
coedge $-1 $240 $348 $353 $438 forward $233 $-1 #
vertex $-1 $241 $442 #
straight-curve $-1 -62.083193456831566 -21.376573571836708 54.432879153334383 0 0 1 I I #
straight-curve $-1 -62.083193456831566 -21.376573571836708 12.37035295375648 -0.77714595512881146 0 -0.62932039886446345 I I #
edge $-1 $436 8.743947592453134 $245 21.376573571836708 $357 $443 forward 7 unknown #
point $-1 -62.083193456831566 -21.376573571836708 16.276755821675017 #
point $-1 -57.259187762142005 -21.376573571836708 16.276755821675017 #
edge $-1 $444 1 $444 0 $248 $-1 forward 7 unknown #
vertex $-1 $249 $445 #
ellipse-curve $-1 -57.983835253102725 -15.06026058214492 12.239844098894773 -0.62932039886446345 0 0.77714595512881146 0.77714595512881146 0 0.62932039886446345 1 I I #
point $-1 -58.894044654357963 -15.06026058214492 14.952874786580207 #
plane-surface $-1 62.083193456831566 0 0 -1 0 0 0 0 1 forward_v I I I I #
coedge $-1 $257 $255 $259 $374 reversed $161 $-1 #
edge $-1 $270 -16.276755821675017 $376 16.276755821675017 $269 $446 forward 7 unknown #
vertex $-1 $374 $447 #
straight-curve $-1 -62.083193456831566 -39.562380981294069 0 0 0 -1 I I #
edge $-1 $372 -39.562380981294069 $376 39.562380981294069 $370 $448 forward 7 unknown #
straight-curve $-1 0 -39.562380981294069 -16.276755821675017 -1 0 0 I I #
vertex $-1 $262 $449 #
straight-curve $-1 0 39.562380981294069 -16.276755821675017 1 0 0 I I #
point $-1 62.083193456831566 39.562380981294069 -16.276755821675017 #
point $-1 62.083193456831566 -39.562380981294069 -16.276755821675017 #
straight-curve $-1 -62.083193456831566 0 16.276755821675017 0 -1 0 I I #
point $-1 -62.083193456831566 39.562380981294069 16.276755821675017 #
point $-1 -62.083193456831566 -39.562380981294069 16.276755821675017 #
straight-curve $-1 62.083193456831566 -39.562380981294069 0 0 0 -1 I I #
straight-curve $-1 62.083193456831566 39.562380981294069 0 0 0 -1 I I #
plane-surface $-1 62.083193456831566 0 0 -1 0 0 0 0 1 forward_v I I I I #
coedge $-1 $397 $388 $387 $450 forward $280 $-1 #
coedge $-1 $283 $282 $386 $450 reversed $108 $-1 #
coedge $-1 $386 $451 $284 $389 reversed $280 $-1 #
edge $-1 $390 -62.083193456831566 $393 62.083193456831566 $388 $452 forward 7 unknown #
vertex $-1 $285 $453 #
straight-curve $-1 -62.083193456831566 0 16.276755821675017 0 -1 0 I I #
coedge $-1 $292 $286 $451 $454 forward $293 $-1 #
vertex $-1 $287 $455 #
straight-curve $-1 62.083193456831566 0 16.276755821675017 0 1 0 I I #
point $-1 62.083193456831566 -39.562380981294069 16.276755821675017 #
point $-1 -62.083193456831566 -39.562380981294069 16.276755821675017 #
coedge $-1 $451 $386 $295 $398 reversed $280 $-1 #
edge $-1 $399 -62.083193456831566 $401 62.083193456831566 $397 $456 forward 7 unknown #
vertex $-1 $454 $457 #
straight-curve $-1 62.083193456831566 -46.572304380957 8.857909171181646 0 -1 0 I I #
vertex $-1 $297 $458 #
straight-curve $-1 -62.083193456831566 -46.572304380957 8.857909171181646 0 1 0 I I #
plane-surface $-1 -62.083193456831566 0 0 1 0 0 0 0 -1 forward_v I I I I #
coedge $-1 $459 $303 $304 $407 reversed $196 $-1 #
coedge $-1 $303 $459 $410 $460 reversed $196 $-1 #
edge $-1 $411 -3.7094233252466857 $408 3.7094233252466857 $306 $461 forward 7 unknown #
edge $-1 $419 -62.083193456831566 $408 62.083193456831566 $404 $462 forward 7 unknown #
vertex $-1 $305 $463 #
straight-curve $-1 62.083193456831566 46.572304380957007 8.857909171181646 0 -1 0 I I #
coedge $-1 $414 $307 $405 $460 forward $301 $-1 #
vertex $-1 $308 $464 #
straight-curve $-1 62.083193456831566 0 16.276755821675017 0 1 0 I I #
point $-1 62.083193456831566 39.562380981294069 16.276755821675017 #
coedge $-1 $311 $410 $313 $417 forward $301 $-1 #
straight-curve $-1 0 39.562380981294069 16.276755821675017 1 0 0 I I #
coedge $-1 $314 $313 $459 $465 forward $315 $-1 #
edge $-1 $466 -53.582227780619938 $316 -39.562380981294069 $313 $467 forward 7 unknown #
point $-1 -62.083193456831566 39.562380981294069 16.276755821675017 #
vertex $-1 $407 $468 #
straight-curve $-1 -62.083193456831566 46.572304380957007 8.857909171181646 0 1 0 I I #
coedge $-1 $332 $331 $324 $422 forward $321 $-1 #
edge $-1 $423 75.406183628922577 $426 79.414288383228012 $421 $469 forward 7 unknown #
vertex $-1 $336 $470 #
straight-curve $-1 50.792051824229162 -0.54047089939565041 16.27675582167501 1 0 0 I I #
edge $-1 $426 -2.1091240738107189 $333 5.2464304226408558 $332 $471 forward 7 unknown #
vertex $-1 $425 $472 #
straight-curve $-1 -3.7149653642678544 -0.54047089939565041 117.56772008009574 -0.52991925155115449 0 0.84804810408105047 I I #
point $-1 59.578651719966643 -0.54047089939565041 16.27675582167501 #
point $-1 62.083193456831566 6.8150835970559243 12.268651067369575 #
straight-curve $-1 62.083193456831566 0 16.276755821675017 0 1 0 I I #
vertex $-1 $339 $473 #
point $-1 60.115354297205819 1.5611160995905138 13.530772166950872 #
vertex $-1 $343 $474 #
point $-1 60.115354297205819 4.7134965980697601 13.530772166950872 #
edge $-1 $436 38.156123331659366 $439 42.062526199577903 $348 $475 forward 7 unknown #
vertex $-1 $362 $476 #
straight-curve $-1 -70.111816797448668 -8.743947592453134 16.276755821675017 -1 0 0 I I #
edge $-1 $439 1.2138173013806739 $359 13.846443280764248 $358 $477 forward 7 unknown #
vertex $-1 $438 $478 #
straight-curve $-1 -62.083193456831566 -8.743947592453134 12.37035295375648 0.77714595512881146 0 0.62932039886446345 I I #
point $-1 -57.259187762142005 -8.743947592453134 16.276755821675017 #
point $-1 -62.083193456831566 -21.376573571836708 12.37035295375648 #
straight-curve $-1 -62.083193456831566 0 16.276755821675017 0 -1 0 I I #
vertex $-1 $365 $479 #
point $-1 -57.206689297973917 -15.06026058214492 12.869164497759236 #
straight-curve $-1 -62.083193456831566 39.562380981294069 0 0 0 -1 I I #
point $-1 -62.083193456831566 -39.562380981294069 -16.276755821675017 #
straight-curve $-1 -62.083193456831566 0 -16.276755821675017 0 1 0 I I #
point $-1 -62.083193456831566 39.562380981294069 -16.276755821675017 #
edge $-1 $390 -3.7094233252466857 $401 3.7094233252466857 $387 $480 forward 7 unknown #
coedge $-1 $388 $397 $392 $454 reversed $280 $-1 #
straight-curve $-1 0 -53.582227780619931 16.276755821675017 1 0 0 I I #
point $-1 -62.083193456831566 -53.582227780619931 16.276755821675017 #
edge $-1 $393 -3.7094233252466857 $399 3.7094233252466857 $392 $481 forward 7 unknown #
point $-1 62.083193456831566 -53.582227780619931 16.276755821675017 #
straight-curve $-1 0 -53.582227780619931 8.857909171181646 -1 0 0 I I #
point $-1 62.083193456831566 -53.582227780619931 8.857909171181646 #
point $-1 -62.083193456831566 -53.582227780619931 8.857909171181646 #
coedge $-1 $405 $404 $416 $465 reversed $196 $-1 #
edge $-1 $411 -62.083193456831566 $466 62.083193456831566 $405 $482 forward 7 unknown #
straight-curve $-1 62.083193456831566 53.582227780619938 12.567332496428332 0 0 -1 I I #
straight-curve $-1 0 53.582227780619938 8.857909171181646 1 0 0 I I #
point $-1 62.083193456831566 53.582227780619938 8.857909171181646 #
point $-1 62.083193456831566 53.582227780619938 16.276755821675017 #
edge $-1 $466 -3.7094233252466857 $419 3.7094233252466857 $459 $483 forward 7 unknown #
vertex $-1 $460 $484 #
straight-curve $-1 -62.083193456831566 0 16.276755821675017 0 -1 0 I I #
point $-1 -62.083193456831566 53.582227780619938 8.857909171181646 #
straight-curve $-1 62.083193456831566 -0.54047089939565041 91.682939450597587 0 0 -1 I I #
point $-1 62.083193456831566 -0.54047089939565041 16.276755821675017 #
straight-curve $-1 62.083193456831566 1.5686531744150685 12.268651067369582 0 1 0 I I #
point $-1 62.083193456831566 -0.54047089939565041 12.268651067369575 #
point $-1 59.770862458297771 1.5611160995905138 13.610304380083345 #
point $-1 59.770862458297771 4.7134965980697601 13.610304380083345 #
straight-curve $-1 -62.083193456831566 -8.743947592453134 54.432879153334383 0 0 -1 I I #
point $-1 -62.083193456831566 -8.743947592453134 16.276755821675017 #
straight-curve $-1 -62.083193456831566 -7.5301302910724601 12.37035295375648 0 -1 0 I I #
point $-1 -62.083193456831566 -8.743947592453134 12.37035295375648 #
point $-1 -57.354514854238261 -15.06026058214492 11.462698143765961 #
straight-curve $-1 -62.083193456831566 -53.582227780619931 12.567332496428332 0 0 -1 I I #
straight-curve $-1 62.083193456831566 -53.582227780619931 12.567332496428332 0 0 -1 I I #
straight-curve $-1 0 53.582227780619938 16.276755821675017 -1 0 0 I I #
straight-curve $-1 -62.083193456831566 53.582227780619938 12.567332496428332 0 0 -1 I I #
point $-1 -62.083193456831566 53.582227780619938 16.276755821675017 #
End-of-ACIS-data 