500 0 7 0           
7 Unknown 11 ACIS 5.0 NT 24 Fri Mar 26 16:11:05 1999 
-1 9.9999999999999995e-007 1e-010 
body $-1 $7 $-1 $8 #
body $-1 $9 $-1 $10 #
body $-1 $11 $-1 $12 #
body $-1 $13 $-1 $14 #
body $-1 $15 $-1 $16 #
body $-1 $17 $-1 $18 #
body $-1 $19 $-1 $20 #
lump $-1 $-1 $21 $0 #
transform $-1 1 0 0 0 1 0 0 0 1 77.554857020783103 46.200843945432425 10.94864263804063 1 rotate no_reflect no_shear #
lump $-1 $-1 $22 $1 #
transform $-1 1 0 0 0 1 0 0 0 1 77.554857020783103 46.200843945432425 10.94864263804063 1 rotate no_reflect no_shear #
lump $-1 $-1 $23 $2 #
transform $-1 1 0 0 0 1 0 0 0 1 77.554857020783103 46.200843945432425 10.94864263804063 1 rotate no_reflect no_shear #
lump $-1 $-1 $24 $3 #
transform $-1 1 0 0 0 1 0 0 0 1 77.554857020783103 46.200843945432425 10.94864263804063 1 rotate no_reflect no_shear #
lump $-1 $-1 $25 $4 #
transform $-1 1 0 0 0 1 0 0 0 1 77.554857020783103 46.200843945432425 10.94864263804063 1 rotate no_reflect no_shear #
lump $-1 $-1 $26 $5 #
transform $-1 1 0 0 0 1 0 0 0 1 77.554857020783103 46.200843945432425 10.94864263804063 1 rotate no_reflect no_shear #
lump $-1 $-1 $27 $6 #
transform $-1 1 0 0 0 1 0 0 0 1 77.554857020783103 46.200843945432425 10.94864263804063 1 rotate no_reflect no_shear #
shell $-1 $-1 $-1 $28 $-1 $7 #
shell $-1 $-1 $-1 $29 $-1 $9 #
shell $-1 $-1 $-1 $30 $-1 $11 #
shell $-1 $-1 $-1 $31 $-1 $13 #
shell $-1 $-1 $-1 $32 $-1 $15 #
shell $-1 $-1 $-1 $33 $-1 $17 #
shell $-1 $-1 $-1 $34 $-1 $19 #
face $-1 $35 $36 $21 $-1 $37 forward single #
face $-1 $38 $39 $22 $-1 $40 forward single #
face $-1 $41 $42 $23 $-1 $43 reversed single #
face $-1 $44 $45 $24 $-1 $46 forward single #
face $-1 $47 $48 $25 $-1 $49 forward single #
face $-1 $50 $51 $26 $-1 $52 reversed single #
face $-1 $53 $54 $27 $-1 $55 forward single #
face $-1 $56 $57 $21 $-1 $58 reversed single #
loop $-1 $-1 $59 $28 #
plane-surface $-1 0 0 10.94864263804063 0 0 1 1 0 0 forward_v I I I I #
face $-1 $60 $61 $22 $-1 $62 reversed single #
loop $-1 $-1 $63 $29 #
plane-surface $-1 -73.451125861086268 0 -5.7938360359741203 0 0 1 1 0 0 forward_v I I I I #
face $-1 $64 $65 $23 $-1 $66 reversed single #
loop $-1 $-1 $67 $30 #
plane-surface $-1 38.408569861064663 134.32895517146426 160.23308108884984 1 0 0 0 -0.86602541151947299 -0.49999998660252726 forward_v I I I I #
face $-1 $68 $69 $24 $-1 $70 forward single #
loop $-1 $71 $72 $31 #
cone-surface $-1 49.593223335269926 42.553502499071115 6.0786402910758781 0 -0.86602541151947299 -0.49999998660252726 1.5 0 0 1 I I 0 1 1.5 forward I I I I #
face $-1 $73 $74 $25 $-1 $75 forward single #
loop $-1 $76 $77 $32 #
cone-surface $-1 66.370203546577827 42.553502499071115 6.0786402910758781 0 -0.86602541151947299 -0.49999998660252726 1.5 0 0 1 I I 0 1 1.5 forward I I I I #
face $-1 $78 $79 $26 $-1 $80 reversed single #
loop $-1 $-1 $81 $33 #
plane-surface $-1 64.21879381434492 -46.20084394543241 2.0328264811176098 0 -0.87461971476443456 0.48480960649040278 1 0 0 forward_v I I I I #
face $-1 $82 $83 $27 $-1 $84 forward single #
loop $-1 $85 $86 $34 #
cone-surface $-1 64.21879381434492 -42.635436238573142 5.8841270258866825 0 0.87461971476443456 -0.48480960649040278 2 0 0 1 I I 0 1 2 forward I I I I #
face $-1 $87 $88 $21 $-1 $89 reversed single #
loop $-1 $-1 $90 $35 #
plane-surface $-1 0 0 -10.94864263804063 0 0 1 1 0 0 forward_v I I I I #
coedge $-1 $91 $92 $93 $94 forward $36 $-1 #
face $-1 $95 $96 $22 $-1 $97 reversed single #
loop $-1 $-1 $98 $38 #
plane-surface $-1 -73.451125861086268 0 -8.8271917779297588 0 0 1 1 0 0 forward_v I I I I #
coedge $-1 $99 $100 $101 $102 forward $39 $-1 #
face $-1 $103 $104 $23 $-1 $105 forward single #
loop $-1 $-1 $106 $41 #
plane-surface $-1 57.981713440923883 1.2379491067804338e-006 82.678226146144908 0 0.86602541151947299 0.49999998660252726 1 0 0 forward_v I I I I #
coedge $-1 $107 $108 $109 $110 reversed $42 $-1 #
face $-1 $-1 $111 $24 $-1 $112 forward single #
loop $-1 $113 $114 $44 #
cone-surface $-1 49.593223335269926 40.650516913954405 4.97995109049719 0 -0.86602541151947299 -0.49999998660252726 0.75 0 0 1 I I -0.70710678118654757 0.70710678118654757 0.75 forward I I I I #
loop $-1 $-1 $115 $31 #
coedge $-1 $72 $72 $116 $117 reversed $45 $-1 #
face $-1 $-1 $118 $25 $-1 $119 forward single #
loop $-1 $120 $121 $47 #
cone-surface $-1 66.370203546577827 40.650516913954405 4.97995109049719 0 -0.86602541151947299 -0.49999998660252726 0.75 0 0 1 I I -0.70710678118654757 0.70710678118654757 0.75 forward I I I I #
loop $-1 $-1 $122 $32 #
coedge $-1 $77 $77 $123 $124 reversed $48 $-1 #
face $-1 $125 $126 $26 $-1 $127 reversed single #
loop $-1 $-1 $128 $50 #
plane-surface $-1 50.882730607906723 -181.86285779766007 77.231505908448227 1 0 0 0 0.87461971476443456 -0.48480960649040278 forward_v I I I I #
coedge $-1 $129 $130 $131 $132 reversed $51 $-1 #
face $-1 $-1 $133 $27 $-1 $134 forward single #
loop $-1 $135 $136 $53 #
cone-surface $-1 64.21879381434492 -40.666467523728535 4.7927098857038448 0 0.87461971476443456 -0.48480960649040278 1 0 0 1 I I -0.70710678118654746 0.70710678118654746 1 forward I I I I #
loop $-1 $-1 $137 $34 #
coedge $-1 $86 $86 $138 $139 reversed $54 $-1 #
face $-1 $140 $141 $21 $-1 $142 reversed single #
loop $-1 $-1 $143 $56 #
plane-surface $-1 0 -46.200843945432425 0 0 1 0 0 0 1 forward_v I I I I #
coedge $-1 $144 $145 $146 $147 forward $57 $-1 #
coedge $-1 $148 $59 $149 $150 forward $36 $-1 #
coedge $-1 $59 $148 $151 $152 forward $36 $-1 #
coedge $-1 $153 $154 $59 $94 reversed $155 $-1 #
edge $-1 $156 -46.200843945432425 $157 46.200843945432425 $93 $158 forward 7 unknown #
face $-1 $159 $160 $22 $-1 $161 reversed single #
loop $-1 $-1 $162 $60 #
plane-surface $-1 -69.347394701389433 0 -7.3105139069519396 -1 0 0 0 0 1 forward_v I I I I #
coedge $-1 $163 $164 $165 $166 forward $61 $-1 #
coedge $-1 $167 $63 $168 $169 reversed $39 $-1 #
coedge $-1 $63 $167 $170 $171 reversed $39 $-1 #
coedge $-1 $162 $172 $63 $102 reversed $96 $-1 #
edge $-1 $173 -46.200843945432425 $174 46.200843945432425 $101 $175 forward 7 unknown #
face $-1 $176 $177 $23 $-1 $178 reversed single #
loop $-1 $-1 $109 $64 #
plane-surface $-1 0 0 10.94864263804063 0 0 1 1 0 0 forward_v I I I I #
coedge $-1 $179 $180 $181 $182 reversed $65 $-1 #
coedge $-1 $108 $67 $183 $184 reversed $42 $-1 #
coedge $-1 $67 $107 $179 $185 reversed $42 $-1 #
coedge $-1 $181 $186 $67 $110 forward $104 $-1 #
edge $-1 $187 20.963633640299705 $188 25.751383480068064 $109 $189 forward 7 unknown #
loop $-1 $-1 $116 $68 #
plane-surface $-1 57.981713440923883 1.2379491067804338e-006 82.678226146144908 0 0.86602541151947299 0.49999998660252726 1 0 0 forward_v I I I I #
loop $-1 $-1 $190 $44 #
coedge $-1 $114 $114 $115 $191 reversed $69 $-1 #
coedge $-1 $115 $115 $114 $191 forward $71 $-1 #
coedge $-1 $116 $116 $72 $117 forward $111 $-1 #
edge $-1 $192 2.1247938098707306e-015 $192 6.2831853071796022 $116 $193 forward 7 unknown #
loop $-1 $-1 $123 $73 #
plane-surface $-1 57.981713440923883 1.2379491067804338e-006 82.678226146144908 0 0.86602541151947299 0.49999998660252726 1 0 0 forward_v I I I I #
loop $-1 $-1 $194 $47 #
coedge $-1 $121 $121 $122 $195 reversed $74 $-1 #
coedge $-1 $122 $122 $121 $195 forward $76 $-1 #
coedge $-1 $123 $123 $77 $124 forward $118 $-1 #
edge $-1 $196 2.1247938098707306e-015 $196 6.2831853071796022 $123 $197 forward 7 unknown #
face $-1 $198 $199 $26 $-1 $200 forward single #
loop $-1 $-1 $201 $78 #
plane-surface $-1 0 -46.200843945432425 0 0 1 0 0 0 1 forward_v I I I I #
coedge $-1 $202 $203 $204 $205 reversed $79 $-1 #
coedge $-1 $206 $81 $207 $208 reversed $51 $-1 #
coedge $-1 $81 $206 $202 $209 forward $51 $-1 #
coedge $-1 $204 $210 $81 $132 forward $199 $-1 #
edge $-1 $211 -45.445460113610658 $212 -18.773333700734263 $131 $213 forward 7 unknown #
loop $-1 $-1 $138 $82 #
plane-surface $-1 64.21879381434492 -46.20084394543241 2.0328264811176098 0 -0.87461971476443456 0.48480960649040278 1 0 0 forward_v I I I I #
loop $-1 $-1 $214 $53 #
coedge $-1 $136 $136 $137 $215 reversed $83 $-1 #
coedge $-1 $137 $137 $136 $215 forward $85 $-1 #
coedge $-1 $138 $138 $86 $139 forward $133 $-1 #
edge $-1 $216 -1.891142728988585e-015 $216 6.2831853071795987 $138 $217 forward 7 unknown #
face $-1 $218 $219 $21 $-1 $220 reversed single #
loop $-1 $-1 $221 $87 #
plane-surface $-1 -77.554857020783103 0 0 1 0 0 0 0 -1 forward_v I I I I #
coedge $-1 $222 $151 $223 $224 forward $88 $-1 #
coedge $-1 $225 $90 $222 $226 forward $57 $-1 #
coedge $-1 $90 $225 $227 $228 forward $57 $-1 #
coedge $-1 $154 $153 $90 $147 reversed $155 $-1 #
edge $-1 $229 -46.200843945432425 $230 46.200843945432425 $146 $231 forward 7 unknown #
coedge $-1 $92 $91 $232 $233 forward $36 $-1 #
coedge $-1 $234 $235 $91 $150 reversed $219 $-1 #
edge $-1 $157 -77.554857020783103 $236 77.554857020783103 $149 $237 forward 7 unknown #
coedge $-1 $143 $238 $92 $152 reversed $88 $-1 #
edge $-1 $239 -77.554857020783103 $156 77.554857020783103 $151 $240 forward 7 unknown #
coedge $-1 $146 $93 $238 $241 forward $155 $-1 #
coedge $-1 $93 $146 $234 $242 reversed $155 $-1 #
loop $-1 $-1 $153 $218 #
vertex $-1 $94 $243 #
vertex $-1 $94 $244 #
straight-curve $-1 77.554857020783103 0 10.94864263804063 0 1 0 I I #
face $-1 $245 $246 $22 $-1 $247 reversed single #
loop $-1 $-1 $248 $95 #
plane-surface $-1 0 -46.200843945432425 0 0 1 0 0 0 1 forward_v I I I I #
coedge $-1 $165 $101 $249 $250 reversed $96 $-1 #
coedge $-1 $251 $98 $248 $252 reversed $61 $-1 #
coedge $-1 $98 $251 $253 $254 reversed $61 $-1 #
coedge $-1 $172 $162 $98 $166 reversed $96 $-1 #
edge $-1 $255 -46.200843945432425 $256 46.200843945432425 $165 $257 forward 7 unknown #
coedge $-1 $100 $99 $258 $259 reversed $39 $-1 #
coedge $-1 $260 $261 $99 $169 forward $262 $-1 #
edge $-1 $263 -40.829294090239969 $174 -32.621831770846299 $168 $264 forward 7 unknown #
coedge $-1 $265 $249 $100 $171 forward $160 $-1 #
edge $-1 $173 32.621831770846299 $266 40.829294090239969 $170 $267 forward 7 unknown #
coedge $-1 $101 $165 $260 $268 reversed $96 $-1 #
vertex $-1 $171 $269 #
vertex $-1 $169 $270 #
straight-curve $-1 -69.347394701389433 0 -5.7938360359741203 0 1 0 I I #
face $-1 $-1 $271 $23 $-1 $272 reversed single #
loop $-1 $-1 $273 $103 #
plane-surface $-1 77.554857020783103 0 0 -1 0 0 0 0 1 forward_v I I I I #
coedge $-1 $274 $106 $108 $185 forward $65 $-1 #
coedge $-1 $106 $274 $273 $275 reversed $65 $-1 #
coedge $-1 $276 $109 $106 $182 forward $104 $-1 #
edge $-1 $188 9.4177131406027215 $277 48.564000300321162 $181 $278 forward 7 unknown #
coedge $-1 $279 $280 $107 $184 forward $271 $-1 #
edge $-1 $281 -77.46052417906013 $187 -69.167897906384297 $183 $282 forward 7 unknown #
edge $-1 $188 82.826187954753109 $281 92.401687890864821 $108 $283 forward 7 unknown #
coedge $-1 $109 $276 $279 $284 forward $104 $-1 #
vertex $-1 $184 $285 #
vertex $-1 $110 $286 #
straight-curve $-1 38.408569861064663 67.164477585732129 10.948642638040624 0 -1 0 I I #
coedge $-1 $190 $190 $-1 $287 reversed $113 $-1 #
edge $-1 $288 0 $288 6.2831853071796004 $114 $289 forward 7 unknown #
vertex $-1 $117 $290 #
ellipse-curve $-1 49.593223335269926 43.806969025548248 6.8023295017026859 0 0.86602541151947299 0.49999998660252726 1.5 0 0 1 I I #
coedge $-1 $194 $194 $-1 $291 reversed $120 $-1 #
edge $-1 $292 0 $292 6.2831853071796004 $121 $293 forward 7 unknown #
vertex $-1 $124 $294 #
ellipse-curve $-1 66.370203546577827 43.806969025548248 6.8023295017026859 0 0.86602541151947299 0.49999998660252726 1.5 0 0 1 I I #
face $-1 $-1 $295 $26 $-1 $296 reversed single #
loop $-1 $-1 $204 $125 #
plane-surface $-1 0 0 10.94864263804063 0 0 1 1 0 0 forward_v I I I I #
coedge $-1 $297 $298 $203 $299 forward $126 $-1 #
coedge $-1 $203 $128 $130 $209 reversed $79 $-1 #
coedge $-1 $128 $202 $201 $299 reversed $79 $-1 #
coedge $-1 $300 $131 $128 $205 forward $199 $-1 #
edge $-1 $212 -49.672702366955832 $301 -44.73058495339761 $204 $302 forward 7 unknown #
coedge $-1 $130 $129 $297 $303 reversed $51 $-1 #
coedge $-1 $304 $305 $129 $208 forward $295 $-1 #
edge $-1 $306 -10.310331427814489 $211 -0.11639684525778943 $207 $307 forward 7 unknown #
edge $-1 $308 -2.9417291209212814e-014 $212 10.19393458255667 $202 $309 forward 7 unknown #
coedge $-1 $131 $300 $304 $310 forward $199 $-1 #
vertex $-1 $208 $311 #
vertex $-1 $132 $312 #
straight-curve $-1 32.10939690717246 -41.258726531874203 10.94864263804063 -1 0 0 I I #
coedge $-1 $214 $214 $-1 $313 reversed $135 $-1 #
edge $-1 $314 0 $314 6.2831853071796004 $136 $315 forward 7 unknown #
vertex $-1 $139 $316 #
ellipse-curve $-1 64.21879381434492 -43.729785238653307 6.4907345595791144 0 -0.87461971476443456 0.48480960649040278 2 0 0 1 I I #
face $-1 $-1 $155 $21 $-1 $317 reversed single #
loop $-1 $-1 $234 $140 #
plane-surface $-1 0 46.200843945432425 0 0 -1 0 0 0 -1 forward_v I I I I #
coedge $-1 $318 $232 $235 $319 forward $141 $-1 #
coedge $-1 $238 $143 $144 $226 reversed $88 $-1 #
coedge $-1 $232 $318 $143 $224 reversed $141 $-1 #
edge $-1 $239 -10.94864263804063 $320 10.94864263804063 $223 $321 forward 7 unknown #
coedge $-1 $145 $144 $318 $322 forward $57 $-1 #
edge $-1 $230 -77.554857020783103 $320 77.554857020783103 $222 $323 forward 7 unknown #
coedge $-1 $235 $234 $145 $228 reversed $219 $-1 #
edge $-1 $324 -77.554857020783103 $229 77.554857020783103 $227 $325 forward 7 unknown #
vertex $-1 $147 $326 #
vertex $-1 $241 $327 #
straight-curve $-1 77.554857020783103 0 -10.94864263804063 0 -1 0 I I #
coedge $-1 $221 $223 $148 $233 reversed $141 $-1 #
edge $-1 $236 -46.200843945432425 $239 46.200843945432425 $232 $328 forward 7 unknown #
coedge $-1 $227 $149 $154 $242 forward $219 $-1 #
coedge $-1 $149 $227 $221 $319 reversed $219 $-1 #
vertex $-1 $150 $329 #
straight-curve $-1 0 46.200843945432425 10.94864263804063 -1 0 0 I I #
coedge $-1 $151 $222 $153 $241 reversed $88 $-1 #
vertex $-1 $233 $330 #
straight-curve $-1 0 -46.200843945432425 10.94864263804063 1 0 0 I I #
edge $-1 $156 -10.94864263804063 $230 10.94864263804063 $153 $331 forward 7 unknown #
edge $-1 $157 -10.94864263804063 $229 10.94864263804063 $154 $332 forward 7 unknown #
point $-1 77.554857020783103 -46.200843945432425 10.94864263804063 #
point $-1 77.554857020783103 46.200843945432425 10.94864263804063 #
face $-1 $-1 $262 $22 $-1 $333 reversed single #
loop $-1 $-1 $334 $159 #
plane-surface $-1 -77.554857020783103 0 0 1 0 0 0 0 -1 forward_v I I I I #
coedge $-1 $249 $265 $163 $252 forward $160 $-1 #
coedge $-1 $170 $248 $162 $250 forward $160 $-1 #
edge $-1 $256 -5.171934824453789 $173 -2.1385790824981505 $249 $335 forward 7 unknown #
coedge $-1 $164 $163 $334 $336 reversed $61 $-1 #
edge $-1 $337 -40.829294090239969 $256 -32.621831770846299 $248 $338 forward 7 unknown #
coedge $-1 $261 $260 $164 $254 forward $262 $-1 #
edge $-1 $255 32.621831770846299 $339 40.829294090239969 $253 $340 forward 7 unknown #
vertex $-1 $254 $341 #
vertex $-1 $252 $342 #
straight-curve $-1 -69.347394701389433 0 -8.8271917779297588 0 -1 0 I I #
coedge $-1 $343 $344 $167 $259 forward $246 $-1 #
edge $-1 $266 -46.200843945432425 $263 46.200843945432425 $258 $345 forward 7 unknown #
coedge $-1 $253 $168 $172 $268 forward $262 $-1 #
coedge $-1 $168 $253 $343 $346 reversed $262 $-1 #
loop $-1 $-1 $253 $245 #
vertex $-1 $346 $347 #
straight-curve $-1 -36.725562930543134 46.200843945432425 -5.7938360359741203 1 0 0 I I #
coedge $-1 $248 $170 $344 $348 forward $160 $-1 #
vertex $-1 $348 $349 #
straight-curve $-1 -36.725562930543134 -46.200843945432425 -5.7938360359741203 -1 0 0 I I #
edge $-1 $174 2.1385790824981505 $255 5.171934824453789 $260 $350 forward 7 unknown #
point $-1 -69.347394701389433 -46.200843945432425 -5.7938360359741203 #
point $-1 -69.347394701389433 46.200843945432425 -5.7938360359741203 #
loop $-1 $-1 $183 $176 #
plane-surface $-1 0 46.200843945432425 0 0 -1 0 0 0 -1 forward_v I I I I #
coedge $-1 $351 $352 $180 $275 forward $177 $-1 #
coedge $-1 $180 $179 $280 $353 reversed $65 $-1 #
edge $-1 $277 47.025465853282782 $354 56.6009657893945 $273 $355 forward 7 unknown #
coedge $-1 $186 $181 $352 $356 forward $104 $-1 #
vertex $-1 $356 $357 #
straight-curve $-1 28.990856720461942 41.413094105664065 10.948642638040631 1 0 0 I I #
coedge $-1 $358 $183 $186 $284 reversed $271 $-1 #
coedge $-1 $183 $358 $274 $353 forward $271 $-1 #
vertex $-1 $184 $359 #
straight-curve $-1 38.408569861064663 46.200843945432425 80.116540544424922 0 0 1 I I #
straight-curve $-1 38.408569861064663 1.2379491067804338e-006 82.678226146144908 0 0.49999998660252726 -0.86602541151947299 I I #
edge $-1 $360 -77.554857020783103 $187 -38.408569861064663 $279 $361 forward 7 unknown #
point $-1 38.408569861064663 46.200843945432425 10.94864263804063 #
point $-1 38.408569861064663 41.413094105664065 10.948642638040624 #
edge $-1 $362 1 $362 0 $190 $-1 forward 7 unknown #
vertex $-1 $191 $363 #
ellipse-curve $-1 49.593223335269926 41.30003597259401 5.3549510804490854 0 0.86602541151947299 0.49999998660252726 1.5 0 0 1 I I #
point $-1 51.093223335269926 43.806969025548227 6.8023295017026699 #
edge $-1 $364 1 $364 0 $194 $-1 forward 7 unknown #
vertex $-1 $195 $365 #
ellipse-curve $-1 66.370203546577827 41.30003597259401 5.3549510804490854 0 0.86602541151947299 0.49999998660252726 1.5 0 0 1 I I #
point $-1 67.870203546577827 43.806969025548227 6.8023295017026699 #
loop $-1 $-1 $207 $198 #
plane-surface $-1 77.554857020783103 0 0 -1 0 0 0 0 1 forward_v I I I I #
coedge $-1 $366 $201 $206 $303 forward $126 $-1 #
coedge $-1 $201 $366 $300 $367 reversed $126 $-1 #
edge $-1 $301 27.667110316183482 $308 36.582926473106532 $201 $368 forward 7 unknown #
coedge $-1 $210 $204 $298 $367 forward $199 $-1 #
vertex $-1 $367 $369 #
straight-curve $-1 50.882730607906723 -90.931428898830035 10.948642638040631 0 -1 0 I I #
edge $-1 $308 18.773333700734263 $306 45.445460113610658 $297 $370 forward 7 unknown #
coedge $-1 $305 $207 $210 $310 reversed $295 $-1 #
coedge $-1 $207 $304 $366 $371 forward $295 $-1 #
vertex $-1 $303 $372 #
straight-curve $-1 77.554857020783103 -41.202296223128052 11.050445613639479 0 0.48480960649040278 0.87461971476443456 I I #
vertex $-1 $303 $373 #
straight-curve $-1 50.882730607906723 -46.20084394543241 2.0328264811176098 0 0.48480960649040278 0.87461971476443456 I I #
edge $-1 $374 -46.200843945432425 $211 -41.258726531874203 $304 $375 forward 7 unknown #
point $-1 77.554857020783118 -41.258726531874203 10.94864263804063 #
point $-1 50.882730607906723 -41.258726531874203 10.94864263804063 #
edge $-1 $376 1 $376 0 $214 $-1 forward 7 unknown #
vertex $-1 $215 $377 #
ellipse-curve $-1 64.21879381434492 -41.54108723849297 5.2775194921942479 0 -0.87461971476443456 0.48480960649040278 2 0 0 1 I I #
point $-1 66.21879381434492 -43.729785238653321 6.4907345595791179 #
plane-surface $-1 77.554857020783103 0 0 -1 0 0 0 0 1 forward_v I I I I #
coedge $-1 $223 $221 $225 $322 reversed $141 $-1 #
edge $-1 $236 -10.94864263804063 $324 10.94864263804063 $235 $378 forward 7 unknown #
vertex $-1 $322 $379 #
straight-curve $-1 -77.554857020783103 -46.200843945432425 0 0 0 -1 I I #
edge $-1 $320 -46.200843945432425 $324 46.200843945432425 $318 $380 forward 7 unknown #
straight-curve $-1 0 -46.200843945432425 -10.94864263804063 -1 0 0 I I #
vertex $-1 $228 $381 #
straight-curve $-1 0 46.200843945432425 -10.94864263804063 1 0 0 I I #
point $-1 77.554857020783103 46.200843945432425 -10.94864263804063 #
point $-1 77.554857020783103 -46.200843945432425 -10.94864263804063 #
straight-curve $-1 -77.554857020783103 0 10.94864263804063 0 -1 0 I I #
point $-1 -77.554857020783103 46.200843945432425 10.94864263804063 #
point $-1 -77.554857020783103 -46.200843945432425 10.94864263804063 #
straight-curve $-1 77.554857020783103 -46.200843945432425 0 0 0 -1 I I #
straight-curve $-1 77.554857020783103 46.200843945432425 0 0 0 -1 I I #
plane-surface $-1 0 46.200843945432425 0 0 -1 0 0 0 -1 forward_v I I I I #
coedge $-1 $344 $343 $251 $336 forward $246 $-1 #
straight-curve $-1 -69.347394701389433 -46.200843945432425 -3.6552569534759698 0 0 1 I I #
edge $-1 $339 -46.200843945432425 $337 46.200843945432425 $334 $382 forward 7 unknown #
vertex $-1 $252 $383 #
straight-curve $-1 -36.725562930543134 -46.200843945432425 -8.8271917779297588 1 0 0 I I #
vertex $-1 $254 $384 #
straight-curve $-1 -36.725562930543134 46.200843945432425 -8.8271917779297588 -1 0 0 I I #
point $-1 -69.347394701389433 46.200843945432425 -8.8271917779297588 #
point $-1 -69.347394701389433 -46.200843945432425 -8.8271917779297588 #
coedge $-1 $334 $258 $261 $346 forward $246 $-1 #
coedge $-1 $258 $334 $265 $348 reversed $246 $-1 #
straight-curve $-1 -77.554857020783103 0 -5.7938360359741203 0 1 0 I I #
edge $-1 $263 5.7938360359741203 $339 8.8271917779297588 $261 $385 forward 7 unknown #
point $-1 -77.554857020783103 46.200843945432425 -5.7938360359741203 #
edge $-1 $266 5.7938360359741203 $337 8.8271917779297588 $344 $386 forward 7 unknown #
point $-1 -77.554857020783103 -46.200843945432425 -5.7938360359741203 #
straight-curve $-1 -69.347394701389433 46.200843945432425 -3.6552569534759698 0 0 -1 I I #
coedge $-1 $352 $273 $358 $387 reversed $177 $-1 #
coedge $-1 $273 $351 $276 $356 reversed $177 $-1 #
edge $-1 $354 -48.564000300321162 $281 -9.4177131406027215 $280 $388 forward 7 unknown #
vertex $-1 $275 $389 #
straight-curve $-1 77.554857020783103 17.900361809045073 51.673891055524777 0 0.49999998660252726 -0.86602541151947299 I I #
edge $-1 $277 41.413094105664065 $360 46.200843945432425 $352 $390 forward 7 unknown #
point $-1 77.554857020783103 41.413094105664065 10.948642638040624 #
coedge $-1 $280 $279 $351 $387 forward $271 $-1 #
point $-1 38.408569861064663 46.200843945432425 2.6560163653647919 #
vertex $-1 $356 $391 #
straight-curve $-1 0 46.200843945432425 10.94864263804063 -1 0 0 I I #
vertex $-1 $287 $392 #
point $-1 51.093223335269926 41.30003597259401 5.3549510804490854 #
vertex $-1 $291 $393 #
point $-1 67.870203546577827 41.30003597259401 5.3549510804490854 #
coedge $-1 $298 $297 $305 $371 reversed $126 $-1 #
edge $-1 $301 50.882730607906723 $374 77.554857020783103 $298 $394 forward 7 unknown #
straight-curve $-1 50.882730607906723 -46.200843945432425 38.615752954224114 0 0 -1 I I #
point $-1 50.882730607906723 -46.200843945432425 10.94864263804063 #
straight-curve $-1 32.10939690717246 -46.200843945432425 2.0328264811175787 1 0 0 I I #
edge $-1 $374 -10.94864263804063 $306 -2.032826481117584 $305 $395 forward 7 unknown #
point $-1 77.554857020783118 -46.200843945432425 2.032826481117584 #
point $-1 50.882730607906723 -46.200843945432425 2.032826481117584 #
vertex $-1 $310 $396 #
straight-curve $-1 77.554857020783103 0 10.94864263804063 0 1 0 I I #
vertex $-1 $313 $397 #
point $-1 66.21879381434492 -41.54108723849297 5.2775194921942479 #
straight-curve $-1 -77.554857020783103 46.200843945432425 0 0 0 -1 I I #
point $-1 -77.554857020783103 -46.200843945432425 -10.94864263804063 #
straight-curve $-1 -77.554857020783103 0 -10.94864263804063 0 1 0 I I #
point $-1 -77.554857020783103 46.200843945432425 -10.94864263804063 #
straight-curve $-1 -77.554857020783103 0 -8.8271917779297588 0 -1 0 I I #
point $-1 -77.554857020783103 -46.200843945432425 -8.8271917779297588 #
point $-1 -77.554857020783103 46.200843945432425 -8.8271917779297588 #
straight-curve $-1 -77.554857020783103 46.200843945432425 0 0 0 -1 I I #
straight-curve $-1 -77.554857020783103 -46.200843945432425 0 0 0 -1 I I #
edge $-1 $360 -10.94864263804063 $354 -2.6560163653647919 $351 $398 forward 7 unknown #
straight-curve $-1 28.990856720461942 46.200843945432425 2.6560163653647848 -1 0 0 I I #
point $-1 77.554857020783103 46.200843945432425 2.6560163653647919 #
straight-curve $-1 77.554857020783103 0 10.94864263804063 0 1 0 I I #
point $-1 77.554857020783103 46.200843945432425 10.94864263804063 #
point $-1 49.593223335269926 40.0009978553148 4.6049511005452946 #
point $-1 66.370203546577827 40.0009978553148 4.6049511005452946 #
straight-curve $-1 0 -46.200843945432425 10.94864263804063 1 0 0 I I #
straight-curve $-1 77.554857020783103 -46.200843945432425 0 0 0 -1 I I #
point $-1 77.554857020783103 -46.200843945432425 10.94864263804063 #
point $-1 64.21879381434492 -39.7918478089641 4.3079002792134418 #
straight-curve $-1 77.554857020783103 46.200843945432425 0 0 0 -1 I I #
End-of-ACIS-data 