500 0 3 0           
7 Unknown 11 ACIS 5.0 NT 24 Fri Mar 26 19:10:38 1999 
-1 9.9999999999999995e-007 1e-010 
body $-1 $3 $-1 $4 #
body $-1 $5 $-1 $6 #
body $-1 $7 $-1 $8 #
lump $-1 $-1 $9 $0 #
transform $-1 1 0 0 0 1 0 0 0 1 79.610583819086287 51.878199165484233 20.020928603385446 1 rotate no_reflect no_shear #
lump $-1 $-1 $10 $1 #
transform $-1 1 0 0 0 1 0 0 0 1 79.610583819086287 51.878199165484233 20.020928603385446 1 rotate no_reflect no_shear #
lump $-1 $-1 $11 $2 #
transform $-1 1 0 0 0 1 0 0 0 1 79.610583819086287 51.878199165484233 20.020928603385446 1 rotate no_reflect no_shear #
shell $-1 $-1 $-1 $12 $-1 $3 #
shell $-1 $-1 $-1 $13 $-1 $5 #
shell $-1 $-1 $-1 $14 $-1 $7 #
face $-1 $15 $16 $9 $-1 $17 forward single #
face $-1 $18 $19 $10 $-1 $20 forward single #
face $-1 $21 $22 $11 $-1 $23 forward single #
face $-1 $24 $25 $9 $-1 $26 reversed single #
loop $-1 $-1 $27 $12 #
plane-surface $-1 0 0 20.020928603385446 0 0 1 1 0 0 forward_v I I I I #
face $-1 $28 $29 $10 $-1 $30 reversed single #
loop $-1 $-1 $31 $13 #
plane-surface $-1 0 -60.301818364892149 -12.016589820766651 0 0 1 1 0 0 forward_v I I I I #
face $-1 $32 $33 $11 $-1 $34 forward single #
loop $-1 $-1 $35 $14 #
plane-surface $-1 -51.527846653782916 26.441800926172959 0 0 1 0 0 0 1 forward_v I I I I #
face $-1 $36 $37 $9 $-1 $38 reversed single #
loop $-1 $-1 $39 $15 #
plane-surface $-1 0 0 -20.020928603385446 0 0 1 1 0 0 forward_v I I I I #
coedge $-1 $40 $41 $42 $43 forward $16 $-1 #
face $-1 $44 $45 $10 $-1 $46 forward single #
loop $-1 $-1 $47 $18 #
plane-surface $-1 0 -68.725437564300066 -16.018759212076048 0 1 0 0 0 1 forward_v I I I I #
coedge $-1 $48 $49 $50 $51 forward $19 $-1 #
face $-1 $52 $53 $11 $-1 $54 forward single #
loop $-1 $-1 $55 $21 #
plane-surface $-1 -55.957600072822927 39.160000045828596 0 1 0 0 0 0 -1 forward_v I I I I #
coedge $-1 $56 $57 $58 $59 reversed $22 $-1 #
face $-1 $60 $61 $9 $-1 $62 reversed single #
loop $-1 $-1 $63 $24 #
plane-surface $-1 0 -51.878199165484233 0 0 1 0 0 0 1 forward_v I I I I #
coedge $-1 $64 $65 $66 $67 forward $25 $-1 #
coedge $-1 $68 $27 $69 $70 forward $16 $-1 #
coedge $-1 $27 $68 $71 $72 forward $16 $-1 #
coedge $-1 $73 $74 $27 $43 reversed $75 $-1 #
edge $-1 $76 -51.878199165484233 $77 51.878199165484233 $42 $78 forward 7 unknown #
face $-1 $79 $80 $10 $-1 $81 reversed single #
loop $-1 $-1 $82 $28 #
plane-surface $-1 0 0 20.020928603385446 0 0 1 1 0 0 forward_v I I I I #
coedge $-1 $83 $84 $85 $86 forward $29 $-1 #
coedge $-1 $87 $31 $88 $89 reversed $19 $-1 #
coedge $-1 $31 $87 $84 $90 forward $19 $-1 #
coedge $-1 $91 $92 $31 $51 reversed $93 $-1 #
edge $-1 $94 -8.4236191994079164 $95 8.4236191994079164 $50 $96 forward 7 unknown #
face $-1 $97 $98 $11 $-1 $99 forward single #
loop $-1 $-1 $100 $32 #
plane-surface $-1 -47.098093234742905 39.160000045828596 0 -1 0 0 0 0 1 forward_v I I I I #
coedge $-1 $101 $102 $103 $104 reversed $33 $-1 #
coedge $-1 $105 $35 $106 $107 reversed $22 $-1 #
coedge $-1 $35 $105 $108 $109 reversed $22 $-1 #
coedge $-1 $102 $101 $35 $59 forward $33 $-1 #
edge $-1 $110 -20.020928603385446 $111 20.020928603385446 $58 $112 forward 7 unknown #
face $-1 $113 $114 $9 $-1 $115 reversed single #
loop $-1 $-1 $116 $36 #
plane-surface $-1 -79.610583819086287 0 0 1 0 0 0 0 -1 forward_v I I I I #
coedge $-1 $117 $71 $118 $119 forward $37 $-1 #
coedge $-1 $120 $39 $117 $121 forward $25 $-1 #
coedge $-1 $39 $120 $122 $123 forward $25 $-1 #
coedge $-1 $74 $73 $39 $67 reversed $75 $-1 #
edge $-1 $124 -51.878199165484233 $125 51.878199165484233 $66 $126 forward 7 unknown #
coedge $-1 $41 $40 $127 $128 forward $16 $-1 #
coedge $-1 $129 $130 $40 $70 reversed $114 $-1 #
edge $-1 $77 -79.610583819086287 $131 79.610583819086287 $69 $132 forward 7 unknown #
coedge $-1 $63 $133 $41 $72 reversed $37 $-1 #
edge $-1 $134 -79.610583819086287 $76 79.610583819086287 $71 $135 forward 7 unknown #
coedge $-1 $66 $42 $133 $136 forward $75 $-1 #
coedge $-1 $42 $66 $129 $137 reversed $75 $-1 #
loop $-1 $-1 $73 $113 #
vertex $-1 $43 $138 #
vertex $-1 $43 $139 #
straight-curve $-1 79.610583819086287 0 20.020928603385446 0 1 0 I I #
face $-1 $140 $141 $10 $-1 $142 reversed single #
loop $-1 $-1 $143 $44 #
plane-surface $-1 0 0 -20.020928603385446 0 0 1 1 0 0 forward_v I I I I #
coedge $-1 $144 $145 $146 $147 forward $45 $-1 #
coedge $-1 $148 $47 $149 $150 reversed $29 $-1 #
coedge $-1 $47 $148 $49 $90 reversed $29 $-1 #
coedge $-1 $151 $152 $47 $86 reversed $153 $-1 #
edge $-1 $154 -4.0021693913093976 $155 4.0021693913093976 $85 $156 forward 7 unknown #
coedge $-1 $49 $48 $151 $157 forward $19 $-1 #
coedge $-1 $158 $159 $48 $89 forward $141 $-1 #
edge $-1 $160 -79.610583819086287 $95 79.610583819086287 $88 $161 forward 7 unknown #
edge $-1 $154 -79.610583819086287 $94 79.610583819086287 $84 $162 forward 7 unknown #
coedge $-1 $163 $50 $148 $164 forward $93 $-1 #
coedge $-1 $50 $146 $158 $165 forward $93 $-1 #
loop $-1 $-1 $92 $166 #
vertex $-1 $51 $167 #
vertex $-1 $51 $168 #
straight-curve $-1 79.610583819086287 -60.301818364892149 -12.016589820766651 0 1 0 I I #
face $-1 $169 $170 $11 $-1 $171 reversed single #
loop $-1 $-1 $172 $52 #
plane-surface $-1 0 0 20.020928603385446 0 0 1 1 0 0 forward_v I I I I #
coedge $-1 $173 $174 $105 $175 reversed $53 $-1 #
coedge $-1 $58 $55 $176 $177 reversed $33 $-1 #
coedge $-1 $55 $58 $178 $179 reversed $33 $-1 #
coedge $-1 $180 $181 $55 $104 forward $170 $-1 #
edge $-1 $182 -20.020928603385446 $183 20.020928603385446 $103 $184 forward 7 unknown #
coedge $-1 $57 $56 $100 $175 forward $22 $-1 #
coedge $-1 $176 $172 $56 $107 forward $98 $-1 #
edge $-1 $185 21.334169907851447 $110 30.193676745931469 $106 $186 forward 7 unknown #
coedge $-1 $187 $178 $57 $109 forward $188 $-1 #
edge $-1 $111 -30.193676745931469 $189 -21.334169907851447 $108 $190 forward 7 unknown #
vertex $-1 $107 $191 #
vertex $-1 $109 $192 #
straight-curve $-1 -55.957600072822927 26.441800926172959 0 0 0 -1 I I #
face $-1 $-1 $75 $9 $-1 $193 reversed single #
loop $-1 $-1 $129 $60 #
plane-surface $-1 0 51.878199165484233 0 0 -1 0 0 0 -1 forward_v I I I I #
coedge $-1 $194 $127 $130 $195 forward $61 $-1 #
coedge $-1 $133 $63 $64 $121 reversed $37 $-1 #
coedge $-1 $127 $194 $63 $119 reversed $61 $-1 #
edge $-1 $134 -20.020928603385446 $196 20.020928603385446 $118 $197 forward 7 unknown #
coedge $-1 $65 $64 $194 $198 forward $25 $-1 #
edge $-1 $125 -79.610583819086287 $196 79.610583819086287 $117 $199 forward 7 unknown #
coedge $-1 $130 $129 $65 $123 reversed $114 $-1 #
edge $-1 $200 -79.610583819086287 $124 79.610583819086287 $122 $201 forward 7 unknown #
vertex $-1 $67 $202 #
vertex $-1 $136 $203 #
straight-curve $-1 79.610583819086287 0 -20.020928603385446 0 -1 0 I I #
coedge $-1 $116 $118 $68 $128 reversed $61 $-1 #
edge $-1 $131 -51.878199165484233 $134 51.878199165484233 $127 $204 forward 7 unknown #
coedge $-1 $122 $69 $74 $137 forward $114 $-1 #
coedge $-1 $69 $122 $116 $195 reversed $114 $-1 #
vertex $-1 $70 $205 #
straight-curve $-1 0 51.878199165484233 20.020928603385446 -1 0 0 I I #
coedge $-1 $71 $117 $73 $136 reversed $37 $-1 #
vertex $-1 $128 $206 #
straight-curve $-1 0 -51.878199165484233 20.020928603385446 1 0 0 I I #
edge $-1 $76 -20.020928603385446 $125 20.020928603385446 $73 $207 forward 7 unknown #
edge $-1 $77 -20.020928603385446 $124 20.020928603385446 $74 $208 forward 7 unknown #
point $-1 79.610583819086287 -51.878199165484233 20.020928603385446 #
point $-1 79.610583819086287 51.878199165484233 20.020928603385446 #
face $-1 $209 $153 $10 $-1 $210 reversed single #
loop $-1 $-1 $88 $79 #
plane-surface $-1 0 -51.878199165484233 0 0 1 0 0 0 1 forward_v I I I I #
coedge $-1 $149 $211 $163 $212 forward $80 $-1 #
coedge $-1 $213 $82 $214 $215 forward $45 $-1 #
coedge $-1 $82 $213 $216 $217 forward $45 $-1 #
coedge $-1 $92 $218 $82 $147 reversed $93 $-1 #
edge $-1 $219 -51.878199165484233 $220 51.878199165484233 $146 $221 forward 7 unknown #
coedge $-1 $84 $83 $91 $164 reversed $29 $-1 #
coedge $-1 $222 $143 $83 $150 forward $80 $-1 #
edge $-1 $223 -79.610583819086287 $155 79.610583819086287 $83 $224 forward 7 unknown #
coedge $-1 $225 $85 $87 $157 reversed $153 $-1 #
coedge $-1 $85 $226 $222 $227 reversed $153 $-1 #
loop $-1 $-1 $226 $140 #
vertex $-1 $157 $228 #
vertex $-1 $227 $229 #
straight-curve $-1 -79.610583819086287 -68.725437564300066 -16.018759212076048 0 0 -1 I I #
edge $-1 $160 -8.4236191994079164 $154 8.4236191994079164 $151 $230 forward 7 unknown #
coedge $-1 $216 $88 $92 $165 reversed $141 $-1 #
coedge $-1 $88 $216 $225 $231 forward $141 $-1 #
vertex $-1 $231 $232 #
straight-curve $-1 0 -51.878199165484233 -12.016589820766651 1 0 0 I I #
straight-curve $-1 0 -68.725437564300066 -12.016589820766651 1 0 0 I I #
coedge $-1 $218 $91 $143 $212 reversed $93 $-1 #
edge $-1 $94 -4.0021693913093976 $223 4.0021693913093976 $91 $233 forward 7 unknown #
edge $-1 $219 -20.020928603385446 $95 12.016589820766651 $92 $234 forward 7 unknown #
face $-1 $-1 $93 $10 $-1 $235 reversed single #
point $-1 79.610583819086287 -68.725437564300066 -12.016589820766651 #
point $-1 79.610583819086287 -51.878199165484233 -12.016589820766651 #
face $-1 $236 $237 $11 $-1 $238 forward single #
loop $-1 $-1 $103 $97 #
plane-surface $-1 0 51.878199165484233 0 0 -1 0 0 0 -1 forward_v I I I I #
coedge $-1 $106 $239 $173 $240 forward $98 $-1 #
coedge $-1 $241 $100 $172 $240 reversed $53 $-1 #
coedge $-1 $100 $241 $187 $242 reversed $53 $-1 #
edge $-1 $185 -20.020928603385446 $189 20.020928603385446 $100 $243 forward 7 unknown #
coedge $-1 $244 $106 $101 $177 forward $98 $-1 #
edge $-1 $110 6.8618009032586613 $182 32.298199142569935 $176 $245 forward 7 unknown #
coedge $-1 $108 $246 $102 $179 forward $188 $-1 #
edge $-1 $183 -32.298199142569935 $111 -6.8618009032586613 $178 $247 forward 7 unknown #
coedge $-1 $248 $103 $246 $249 reversed $170 $-1 #
coedge $-1 $103 $248 $244 $250 reversed $170 $-1 #
vertex $-1 $250 $251 #
vertex $-1 $179 $252 #
straight-curve $-1 -55.957600072822927 51.878199165484233 0 0 0 -1 I I #
vertex $-1 $107 $253 #
straight-curve $-1 -25.763923326891458 26.441800926172959 20.020928603385446 -1 0 0 I I #
coedge $-1 $254 $108 $174 $242 forward $188 $-1 #
loop $-1 $-1 $187 $255 #
vertex $-1 $109 $256 #
straight-curve $-1 -25.763923326891458 26.441800926172959 -20.020928603385446 1 0 0 I I #
point $-1 -55.957600072822927 26.441800926172959 20.020928603385446 #
point $-1 -55.957600072822927 26.441800926172959 -20.020928603385446 #
plane-surface $-1 79.610583819086287 0 0 -1 0 0 0 0 1 forward_v I I I I #
coedge $-1 $118 $116 $120 $198 reversed $61 $-1 #
edge $-1 $131 -20.020928603385446 $200 20.020928603385446 $130 $257 forward 7 unknown #
vertex $-1 $198 $258 #
straight-curve $-1 -79.610583819086287 -51.878199165484233 0 0 0 -1 I I #
edge $-1 $196 -51.878199165484233 $200 51.878199165484233 $194 $259 forward 7 unknown #
straight-curve $-1 0 -51.878199165484233 -20.020928603385446 -1 0 0 I I #
vertex $-1 $123 $260 #
straight-curve $-1 0 51.878199165484233 -20.020928603385446 1 0 0 I I #
point $-1 79.610583819086287 51.878199165484233 -20.020928603385446 #
point $-1 79.610583819086287 -51.878199165484233 -20.020928603385446 #
straight-curve $-1 -79.610583819086287 0 20.020928603385446 0 -1 0 I I #
point $-1 -79.610583819086287 51.878199165484233 20.020928603385446 #
point $-1 -79.610583819086287 -51.878199165484233 20.020928603385446 #
straight-curve $-1 79.610583819086287 -51.878199165484233 0 0 0 -1 I I #
straight-curve $-1 79.610583819086287 51.878199165484233 0 0 0 -1 I I #
face $-1 $166 $261 $10 $-1 $262 reversed single #
plane-surface $-1 -79.610583819086287 0 0 1 0 0 0 0 -1 forward_v I I I I #
coedge $-1 $143 $222 $263 $264 forward $80 $-1 #
edge $-1 $265 -51.878199165484233 $223 68.725437564300066 $163 $266 forward 7 unknown #
coedge $-1 $145 $144 $267 $268 forward $45 $-1 #
coedge $-1 $269 $270 $144 $215 reversed $261 $-1 #
edge $-1 $220 -79.610583819086287 $271 79.610583819086287 $214 $272 forward 7 unknown #
coedge $-1 $159 $158 $145 $217 reversed $141 $-1 #
edge $-1 $273 -79.610583819086287 $219 79.610583819086287 $216 $274 forward 7 unknown #
coedge $-1 $146 $163 $269 $275 reversed $93 $-1 #
vertex $-1 $147 $276 #
vertex $-1 $147 $277 #
straight-curve $-1 79.610583819086287 0 20.020928603385446 0 1 0 I I #
coedge $-1 $211 $149 $152 $227 forward $80 $-1 #
vertex $-1 $164 $278 #
straight-curve $-1 0 -68.725437564300066 -20.020928603385446 -1 0 0 I I #
coedge $-1 $267 $151 $159 $231 reversed $153 $-1 #
coedge $-1 $152 $267 $270 $279 forward $153 $-1 #
edge $-1 $155 -68.725437564300066 $280 51.878199165484233 $152 $281 forward 7 unknown #
point $-1 -79.610583819086287 -68.725437564300066 -12.016589820766651 #
point $-1 -79.610583819086287 -68.725437564300066 -20.020928603385446 #
straight-curve $-1 -79.610583819086287 -60.301818364892149 -12.016589820766651 0 -1 0 I I #
edge $-1 $273 -20.020928603385446 $160 12.016589820766651 $225 $282 forward 7 unknown #
point $-1 -79.610583819086287 -51.878199165484233 -12.016589820766651 #
straight-curve $-1 79.610583819086287 -68.725437564300066 -16.018759212076048 0 0 -1 I I #
straight-curve $-1 79.610583819086287 -51.878199165484233 0 0 0 -1 I I #
plane-surface $-1 79.610583819086287 0 0 -1 0 0 0 0 1 forward_v I I I I #
face $-1 $255 $283 $11 $-1 $284 reversed single #
loop $-1 $-1 $285 $169 #
plane-surface $-1 0 -60.301818364892149 -12.016589820766651 0 0 1 1 0 0 forward_v I I I I #
coedge $-1 $172 $286 $287 $288 forward $98 $-1 #
edge $-1 $289 -32.298199142569935 $185 -6.8618009032586613 $172 $290 forward 7 unknown #
coedge $-1 $174 $173 $291 $292 reversed $53 $-1 #
edge $-1 $189 6.8618009032586613 $293 32.298199142569935 $187 $294 forward 7 unknown #
straight-curve $-1 -47.098093234742905 26.441800926172959 0 0 0 -1 I I #
coedge $-1 $295 $176 $181 $250 forward $98 $-1 #
straight-curve $-1 -55.957600072822927 19.580000022914298 20.020928603385446 0 1 0 I I #
coedge $-1 $178 $296 $180 $249 forward $188 $-1 #
straight-curve $-1 -55.957600072822927 19.580000022914298 -20.020928603385446 0 -1 0 I I #
coedge $-1 $181 $180 $297 $298 reversed $170 $-1 #
edge $-1 $299 -79.610583819086287 $183 -55.957600072822927 $180 $300 forward 7 unknown #
edge $-1 $182 55.957600072822927 $301 79.610583819086287 $181 $302 forward 7 unknown #
point $-1 -55.957600072822927 51.878199165484233 20.020928603385446 #
point $-1 -55.957600072822927 51.878199165484233 -20.020928603385446 #
point $-1 -47.098093234742905 26.441800926172959 20.020928603385446 #
coedge $-1 $303 $187 $304 $305 forward $188 $-1 #
face $-1 $306 $188 $11 $-1 $307 reversed single #
point $-1 -47.098093234742905 26.441800926172959 -20.020928603385446 #
straight-curve $-1 -79.610583819086287 51.878199165484233 0 0 0 -1 I I #
point $-1 -79.610583819086287 -51.878199165484233 -20.020928603385446 #
straight-curve $-1 -79.610583819086287 0 -20.020928603385446 0 1 0 I I #
point $-1 -79.610583819086287 51.878199165484233 -20.020928603385446 #
loop $-1 $-1 $269 $209 #
plane-surface $-1 0 51.878199165484233 0 0 -1 0 0 0 -1 forward_v I I I I #
coedge $-1 $270 $269 $211 $264 reversed $261 $-1 #
edge $-1 $280 -79.610583819086287 $265 79.610583819086287 $263 $308 forward 7 unknown #
vertex $-1 $212 $309 #
straight-curve $-1 79.610583819086287 0 -20.020928603385446 0 -1 0 I I #
coedge $-1 $226 $225 $213 $268 reversed $153 $-1 #
edge $-1 $271 -51.878199165484233 $273 51.878199165484233 $267 $310 forward 7 unknown #
coedge $-1 $263 $214 $218 $275 forward $261 $-1 #
coedge $-1 $214 $263 $226 $279 reversed $261 $-1 #
vertex $-1 $215 $311 #
straight-curve $-1 0 51.878199165484233 20.020928603385446 -1 0 0 I I #
vertex $-1 $268 $312 #
straight-curve $-1 0 -51.878199165484233 20.020928603385446 1 0 0 I I #
edge $-1 $220 -20.020928603385446 $265 20.020928603385446 $218 $313 forward 7 unknown #
point $-1 79.610583819086287 -51.878199165484233 20.020928603385446 #
point $-1 79.610583819086287 51.878199165484233 20.020928603385446 #
point $-1 79.610583819086287 -68.725437564300066 -20.020928603385446 #
edge $-1 $271 -20.020928603385446 $280 20.020928603385446 $270 $314 forward 7 unknown #
vertex $-1 $264 $315 #
straight-curve $-1 -79.610583819086287 0 -20.020928603385446 0 1 0 I I #
straight-curve $-1 -79.610583819086287 -51.878199165484233 0 0 0 -1 I I #
loop $-1 $-1 $316 $236 #
plane-surface $-1 0 -68.725437564300066 -16.018759212076048 0 1 0 0 0 1 forward_v I I I I #
coedge $-1 $317 $318 $319 $320 forward $237 $-1 #
coedge $-1 $239 $321 $322 $323 forward $98 $-1 #
coedge $-1 $324 $291 $239 $288 reversed $325 $-1 #
edge $-1 $326 -79.610583819086287 $289 47.098093234742905 $287 $302 forward 7 unknown #
vertex $-1 $292 $327 #
straight-curve $-1 -47.098093234742905 19.580000022914298 20.020928603385446 0 -1 0 I I #
coedge $-1 $287 $304 $241 $292 forward $325 $-1 #
edge $-1 $293 -20.020928603385446 $289 20.020928603385446 $291 $328 forward 7 unknown #
vertex $-1 $305 $329 #
straight-curve $-1 -47.098093234742905 19.580000022914298 -20.020928603385446 0 1 0 I I #
coedge $-1 $321 $244 $330 $331 forward $98 $-1 #
coedge $-1 $246 $332 $333 $334 forward $188 $-1 #
coedge $-1 $333 $330 $248 $298 forward $335 $-1 #
edge $-1 $301 -20.020928603385446 $299 20.020928603385446 $248 $336 forward 7 unknown #
vertex $-1 $249 $337 #
straight-curve $-1 0 51.878199165484233 -20.020928603385446 1 0 0 I I #
vertex $-1 $250 $338 #
straight-curve $-1 0 51.878199165484233 20.020928603385446 -1 0 0 I I #
coedge $-1 $332 $254 $339 $340 forward $188 $-1 #
coedge $-1 $291 $324 $254 $305 reversed $325 $-1 #
edge $-1 $293 -47.098093234742905 $341 79.610583819086287 $304 $300 forward 7 unknown #
face $-1 $342 $343 $11 $-1 $344 reversed single #
plane-surface $-1 0 0 -20.020928603385446 0 0 1 1 0 0 forward_v I I I I #
straight-curve $-1 0 51.878199165484233 -20.020928603385446 1 0 0 I I #
point $-1 79.610583819086287 51.878199165484233 -20.020928603385446 #
straight-curve $-1 -79.610583819086287 0 20.020928603385446 0 -1 0 I I #
point $-1 -79.610583819086287 51.878199165484233 20.020928603385446 #
point $-1 -79.610583819086287 -51.878199165484233 20.020928603385446 #
straight-curve $-1 79.610583819086287 51.878199165484233 0 0 0 -1 I I #
straight-curve $-1 -79.610583819086287 51.878199165484233 0 0 0 -1 I I #
point $-1 -79.610583819086287 51.878199165484233 -20.020928603385446 #
coedge $-1 $345 $346 $347 $348 forward $283 $-1 #
coedge $-1 $349 $285 $350 $351 reversed $237 $-1 #
coedge $-1 $285 $349 $346 $352 forward $237 $-1 #
coedge $-1 $353 $354 $285 $320 reversed $355 $-1 #
edge $-1 $356 -8.4236191994079164 $357 8.4236191994079164 $319 $358 forward 7 unknown #
coedge $-1 $286 $295 $359 $360 forward $98 $-1 #
coedge $-1 $354 $361 $286 $323 reversed $355 $-1 #
edge $-1 $362 -51.878199165484233 $326 51.878199165484233 $322 $363 forward 7 unknown #
coedge $-1 $304 $287 $361 $364 forward $325 $-1 #
loop $-1 $-1 $291 $365 #
vertex $-1 $323 $366 #
point $-1 -47.098093234742905 51.878199165484233 20.020928603385446 #
straight-curve $-1 -47.098093234742905 51.878199165484233 0 0 0 1 I I #
point $-1 -47.098093234742905 51.878199165484233 -20.020928603385446 #
coedge $-1 $297 $367 $295 $331 reversed $335 $-1 #
edge $-1 $301 -51.878199165484233 $368 51.878199165484233 $330 $369 forward 7 unknown #
coedge $-1 $296 $303 $345 $370 forward $188 $-1 #
coedge $-1 $347 $297 $296 $334 reversed $335 $-1 #
edge $-1 $371 -68.725437564300066 $299 51.878199165484233 $333 $372 forward 7 unknown #
loop $-1 $-1 $297 $342 #
straight-curve $-1 -79.610583819086287 51.878199165484233 0 0 0 -1 I I #
point $-1 -79.610583819086287 51.878199165484233 -20.020928603385446 #
point $-1 -79.610583819086287 51.878199165484233 20.020928603385446 #
coedge $-1 $361 $353 $303 $340 reversed $355 $-1 #
edge $-1 $341 -51.878199165484233 $373 68.725437564300066 $339 $374 forward 7 unknown #
vertex $-1 $340 $375 #
face $-1 $365 $335 $11 $-1 $376 reversed single #
loop $-1 $-1 $350 $306 #
plane-surface $-1 0 -51.878199165484233 0 0 1 0 0 0 1 forward_v I I I I #
coedge $-1 $377 $316 $332 $370 reversed $283 $-1 #
coedge $-1 $316 $377 $318 $352 reversed $283 $-1 #
coedge $-1 $378 $333 $316 $348 reversed $335 $-1 #
edge $-1 $379 -4.0021693913093976 $371 4.0021693913093976 $347 $380 forward 7 unknown #
coedge $-1 $318 $317 $378 $381 forward $237 $-1 #
coedge $-1 $382 $383 $317 $351 forward $343 $-1 #
edge $-1 $384 -79.610583819086287 $357 79.610583819086287 $350 $385 forward 7 unknown #
edge $-1 $379 -79.610583819086287 $356 79.610583819086287 $346 $386 forward 7 unknown #
coedge $-1 $339 $319 $377 $387 forward $355 $-1 #
coedge $-1 $319 $322 $382 $388 forward $355 $-1 #
loop $-1 $-1 $354 $389 #
vertex $-1 $320 $390 #
vertex $-1 $320 $391 #
straight-curve $-1 79.610583819086287 -60.301818364892149 -12.016589820766651 0 1 0 I I #
coedge $-1 $383 $382 $321 $360 reversed $343 $-1 #
edge $-1 $368 -79.610583819086287 $362 79.610583819086287 $359 $392 forward 7 unknown #
coedge $-1 $322 $339 $324 $364 reversed $355 $-1 #
vertex $-1 $323 $393 #
straight-curve $-1 79.610583819086287 0 20.020928603385446 0 1 0 I I #
edge $-1 $326 -20.020928603385446 $341 20.020928603385446 $361 $394 forward 7 unknown #
face $-1 $389 $325 $11 $-1 $171 reversed single #
point $-1 79.610583819086287 51.878199165484233 20.020928603385446 #
coedge $-1 $330 $378 $383 $395 reversed $335 $-1 #
vertex $-1 $331 $396 #
straight-curve $-1 -79.610583819086287 0 20.020928603385446 0 -1 0 I I #
edge $-1 $373 -79.610583819086287 $371 79.610583819086287 $345 $397 forward 7 unknown #
vertex $-1 $334 $398 #
straight-curve $-1 -79.610583819086287 0 -20.020928603385446 0 1 0 I I #
vertex $-1 $387 $399 #
straight-curve $-1 79.610583819086287 0 -20.020928603385446 0 -1 0 I I #
point $-1 79.610583819086287 51.878199165484233 -20.020928603385446 #
plane-surface $-1 -79.610583819086287 0 0 1 0 0 0 0 -1 forward_v I I I I #
coedge $-1 $346 $345 $353 $387 reversed $283 $-1 #
coedge $-1 $367 $347 $349 $381 reversed $335 $-1 #
vertex $-1 $381 $400 #
straight-curve $-1 -79.610583819086287 -68.725437564300066 -16.018759212076048 0 0 -1 I I #
edge $-1 $384 -8.4236191994079164 $379 8.4236191994079164 $378 $401 forward 7 unknown #
coedge $-1 $359 $350 $354 $388 reversed $343 $-1 #
coedge $-1 $350 $359 $367 $395 forward $343 $-1 #
vertex $-1 $395 $402 #
straight-curve $-1 0 -51.878199165484233 -12.016589820766651 1 0 0 I I #
straight-curve $-1 0 -68.725437564300066 -12.016589820766651 1 0 0 I I #
edge $-1 $356 -4.0021693913093976 $373 4.0021693913093976 $353 $403 forward 7 unknown #
edge $-1 $362 -20.020928603385446 $357 12.016589820766651 $354 $404 forward 7 unknown #
face $-1 $-1 $355 $11 $-1 $405 reversed single #
point $-1 79.610583819086287 -68.725437564300066 -12.016589820766651 #
point $-1 79.610583819086287 -51.878199165484233 -12.016589820766651 #
straight-curve $-1 0 -51.878199165484233 20.020928603385446 1 0 0 I I #
point $-1 79.610583819086287 -51.878199165484233 20.020928603385446 #
straight-curve $-1 79.610583819086287 51.878199165484233 0 0 0 -1 I I #
edge $-1 $368 -20.020928603385446 $384 12.016589820766651 $367 $406 forward 7 unknown #
point $-1 -79.610583819086287 -51.878199165484233 20.020928603385446 #
straight-curve $-1 0 -68.725437564300066 -20.020928603385446 -1 0 0 I I #
point $-1 -79.610583819086287 -68.725437564300066 -20.020928603385446 #
point $-1 79.610583819086287 -68.725437564300066 -20.020928603385446 #
point $-1 -79.610583819086287 -68.725437564300066 -12.016589820766651 #
straight-curve $-1 -79.610583819086287 -60.301818364892149 -12.016589820766651 0 -1 0 I I #
point $-1 -79.610583819086287 -51.878199165484233 -12.016589820766651 #
straight-curve $-1 79.610583819086287 -68.725437564300066 -16.018759212076048 0 0 -1 I I #
straight-curve $-1 79.610583819086287 -51.878199165484233 0 0 0 -1 I I #
plane-surface $-1 79.610583819086287 0 0 -1 0 0 0 0 1 forward_v I I I I #
straight-curve $-1 -79.610583819086287 -51.878199165484233 0 0 0 -1 I I #
End-of-ACIS-data 