500 0 10 0           
7 Unknown 11 ACIS 5.0 NT 24 Fri Mar 26 17:47:59 1999 
-1 9.9999999999999995e-007 1e-010 
body $-1 $10 $-1 $11 #
body $-1 $12 $-1 $13 #
body $-1 $14 $-1 $15 #
body $-1 $16 $-1 $17 #
body $-1 $18 $-1 $19 #
body $-1 $20 $-1 $21 #
body $-1 $22 $-1 $23 #
body $-1 $24 $-1 $25 #
body $-1 $26 $-1 $27 #
body $-1 $28 $-1 $29 #
lump $-1 $-1 $30 $0 #
transform $-1 1 0 0 0 1 0 0 0 1 70.484328745384076 31.896594851597772 11.57513380475323 1 rotate no_reflect no_shear #
lump $-1 $-1 $31 $1 #
transform $-1 1 0 0 0 1 0 0 0 1 70.484328745384076 31.896594851597772 11.57513380475323 1 rotate no_reflect no_shear #
lump $-1 $-1 $32 $2 #
transform $-1 1 0 0 0 1 0 0 0 1 70.484328745384076 31.896594851597772 11.57513380475323 1 rotate no_reflect no_shear #
lump $-1 $-1 $33 $3 #
transform $-1 1 0 0 0 1 0 0 0 1 70.484328745384076 31.896594851597772 11.57513380475323 1 rotate no_reflect no_shear #
lump $-1 $-1 $34 $4 #
transform $-1 1 0 0 0 1 0 0 0 1 70.484328745384076 31.896594851597772 11.57513380475323 1 rotate no_reflect no_shear #
lump $-1 $-1 $35 $5 #
transform $-1 1 0 0 0 1 0 0 0 1 70.484328745384076 31.896594851597772 11.57513380475323 1 rotate no_reflect no_shear #
lump $-1 $-1 $36 $6 #
transform $-1 1 0 0 0 1 0 0 0 1 70.484328745384076 31.896594851597772 11.57513380475323 1 rotate no_reflect no_shear #
lump $-1 $-1 $37 $7 #
transform $-1 1 0 0 0 1 0 0 0 1 70.484328745384076 31.896594851597772 11.57513380475323 1 rotate no_reflect no_shear #
lump $-1 $-1 $38 $8 #
transform $-1 1 0 0 0 1 0 0 0 1 70.484328745384076 31.896594851597772 11.57513380475323 1 rotate no_reflect no_shear #
lump $-1 $-1 $39 $9 #
transform $-1 1 0 0 0 1 0 0 0 1 70.484328745384076 31.896594851597772 11.57513380475323 1 rotate no_reflect no_shear #
shell $-1 $-1 $-1 $40 $-1 $10 #
shell $-1 $-1 $-1 $41 $-1 $12 #
shell $-1 $-1 $-1 $42 $-1 $14 #
shell $-1 $-1 $-1 $43 $-1 $16 #
shell $-1 $-1 $-1 $44 $-1 $18 #
shell $-1 $-1 $-1 $45 $-1 $20 #
shell $-1 $-1 $-1 $46 $-1 $22 #
shell $-1 $-1 $-1 $47 $-1 $24 #
shell $-1 $-1 $-1 $48 $-1 $26 #
shell $-1 $-1 $-1 $49 $-1 $28 #
face $-1 $50 $51 $30 $-1 $52 forward single #
face $-1 $53 $54 $31 $-1 $55 reversed single #
face $-1 $56 $57 $32 $-1 $58 reversed single #
face $-1 $59 $60 $33 $-1 $61 forward single #
face $-1 $62 $63 $34 $-1 $64 reversed single #
face $-1 $65 $66 $35 $-1 $67 forward single #
face $-1 $68 $69 $36 $-1 $70 forward single #
face $-1 $71 $72 $37 $-1 $73 reversed single #
face $-1 $74 $75 $38 $-1 $76 forward single #
face $-1 $77 $78 $39 $-1 $79 forward single #
face $-1 $80 $81 $30 $-1 $82 reversed single #
loop $-1 $-1 $83 $40 #
plane-surface $-1 0 0 11.57513380475323 0 0 1 1 0 0 forward_v I I I I #
face $-1 $84 $85 $31 $-1 $86 reversed single #
loop $-1 $-1 $87 $41 #
plane-surface $-1 -68.300889781371524 -18.68311702496165 0 0 -1 0 0 0 -1 forward_v I I I I #
face $-1 $88 $89 $32 $-1 $90 reversed single #
loop $-1 $-1 $91 $42 #
plane-surface $-1 53.108980458099069 -7.4764374226021788 204.07384001439925 0 -1 0 -0.64278761758704617 0 -0.76604443648966558 forward_v I I I I #
face $-1 $92 $93 $33 $-1 $94 forward single #
loop $-1 $95 $96 $43 #
cone-surface $-1 66.396650532841576 -13.079777223781914 7.9859885651260125 -0.64278761758704617 0 -0.76604443648966558 0.76604443648966558 0 -0.64278761758704617 1 I I 0 1 1 forward I I I I #
face $-1 $97 $98 $34 $-1 $99 reversed single #
loop $-1 $-1 $100 $44 #
plane-surface $-1 -149.31300265053113 -2.2956387561155083 123.80153902970717 0 1 0 -0.55919291073839883 0 0.82903756765294845 forward_v I I I I #
face $-1 $101 $102 $35 $-1 $103 forward single #
loop $-1 $104 $105 $45 #
cone-surface $-1 -66.464196339898393 0.24789772086551309 8.3955149285510533 0.55919291073839883 0 -0.82903756765294845 0.82903756765294845 0 0.55919291073839883 1 I I 0 1 1 forward I I I I #
face $-1 $106 $107 $36 $-1 $108 forward single #
loop $-1 $109 $110 $46 #
cone-surface $-1 -66.464196339898393 4.0632024363370398 8.3955149285510533 0.55919291073839883 0 -0.82903756765294845 0.82903756765294845 0 0.55919291073839883 1 I I 0 1 1 forward I I I I #
face $-1 $111 $112 $37 $-1 $113 reversed single #
loop $-1 $-1 $114 $47 #
plane-surface $-1 -70.484328745384104 2.1555500786012765 6.9332261082591486 -0.55919291073839883 0 0.82903756765294845 0.82903756765294845 0 0.55919291073839883 forward_v I I I I #
face $-1 $115 $116 $38 $-1 $117 forward single #
loop $-1 $118 $119 $48 #
cone-surface $-1 -66.464196339898393 9.1502753902990754 8.3955149285510533 0.55919291073839883 0 -0.82903756765294845 0.82903756765294845 0 0.55919291073839883 1 I I 0 1 1 forward I I I I #
face $-1 $120 $121 $39 $-1 $122 forward single #
loop $-1 $123 $124 $49 #
cone-surface $-1 -66.464196339898393 12.965580105770602 8.3955149285510533 0.55919291073839883 0 -0.82903756765294845 0.82903756765294845 0 0.55919291073839883 1 I I 0 1 1 forward I I I I #
face $-1 $125 $126 $30 $-1 $127 reversed single #
loop $-1 $-1 $128 $50 #
plane-surface $-1 0 0 -11.57513380475323 0 0 1 1 0 0 forward_v I I I I #
coedge $-1 $129 $130 $131 $132 forward $51 $-1 #
face $-1 $133 $134 $31 $-1 $135 forward single #
loop $-1 $-1 $136 $53 #
plane-surface $-1 -66.117450817358971 -25.289855938279711 0 -1 0 0 0 0 1 forward_v I I I I #
coedge $-1 $137 $138 $139 $140 forward $54 $-1 #
face $-1 $141 $142 $32 $-1 $143 reversed single #
loop $-1 $-1 $144 $56 #
plane-surface $-1 -37.503927044836104 -13.079777223781914 96.085584224179087 0.64278761758704617 0 0.76604443648966558 0.76604443648966558 0 -0.64278761758704617 forward_v I I I I #
coedge $-1 $145 $146 $147 $148 reversed $57 $-1 #
face $-1 $-1 $149 $33 $-1 $150 forward single #
loop $-1 $151 $152 $59 #
cone-surface $-1 65.623891011805242 -13.079777223781914 7.0650496490086052 -0.64278761758704617 0 -0.76604443648966558 0.38302221824483279 0 -0.32139380879352308 1 I I -0.70710678118654746 0.70710678118654746 0.5 forward I I I I #
loop $-1 $-1 $153 $43 #
coedge $-1 $96 $96 $154 $155 reversed $60 $-1 #
face $-1 $156 $157 $34 $-1 $158 reversed single #
loop $-1 $-1 $159 $62 #
plane-surface $-1 -70.484328745384104 2.1555500786012765 6.9332261082591486 -0.55919291073839883 0 0.82903756765294845 0.82903756765294845 0 0.55919291073839883 forward_v I I I I #
coedge $-1 $160 $161 $162 $163 reversed $63 $-1 #
face $-1 $-1 $164 $35 $-1 $165 forward single #
loop $-1 $166 $167 $65 #
cone-surface $-1 -65.605422999106679 0.24789772086551309 7.1223311167694501 0.55919291073839883 0 -0.82903756765294845 0.41451878382647422 0 0.27959645536919941 1 I I -0.70710678118654813 0.70710678118654691 0.5 forward I I I I #
loop $-1 $-1 $168 $45 #
coedge $-1 $105 $105 $169 $170 reversed $66 $-1 #
face $-1 $-1 $171 $36 $-1 $172 forward single #
loop $-1 $173 $174 $68 #
cone-surface $-1 -65.605422999106679 4.0632024363370398 7.1223311167694501 0.55919291073839883 0 -0.82903756765294845 0.41451878382647422 0 0.27959645536919941 1 I I -0.70710678118654813 0.70710678118654691 0.5 forward I I I I #
loop $-1 $-1 $175 $46 #
coedge $-1 $110 $110 $176 $177 reversed $69 $-1 #
face $-1 $178 $179 $37 $-1 $180 reversed single #
loop $-1 $-1 $181 $71 #
plane-surface $-1 -149.31300265053113 15.509116582751624 123.80153902970717 0 -1 0 0.55919291073839883 0 -0.82903756765294845 forward_v I I I I #
coedge $-1 $182 $183 $184 $185 reversed $72 $-1 #
face $-1 $-1 $186 $38 $-1 $187 forward single #
loop $-1 $188 $189 $74 #
cone-surface $-1 -65.605422999106679 9.1502753902990754 7.1223311167694501 0.55919291073839883 0 -0.82903756765294845 0.41451878382647422 0 0.27959645536919941 1 I I -0.70710678118654813 0.70710678118654691 0.5 forward I I I I #
loop $-1 $-1 $190 $48 #
coedge $-1 $119 $119 $191 $192 reversed $75 $-1 #
face $-1 $-1 $193 $39 $-1 $194 forward single #
loop $-1 $195 $196 $77 #
cone-surface $-1 -65.605422999106679 12.965580105770602 7.1223311167694501 0.55919291073839883 0 -0.82903756765294845 0.41451878382647422 0 0.27959645536919941 1 I I -0.70710678118654813 0.70710678118654691 0.5 forward I I I I #
loop $-1 $-1 $197 $49 #
coedge $-1 $124 $124 $198 $199 reversed $78 $-1 #
face $-1 $200 $201 $30 $-1 $202 reversed single #
loop $-1 $-1 $203 $80 #
plane-surface $-1 0 -31.896594851597772 0 0 1 0 0 0 1 forward_v I I I I #
coedge $-1 $204 $205 $206 $207 forward $81 $-1 #
coedge $-1 $208 $83 $209 $210 forward $51 $-1 #
coedge $-1 $83 $208 $211 $212 forward $51 $-1 #
coedge $-1 $213 $214 $83 $132 reversed $215 $-1 #
edge $-1 $216 -31.896594851597772 $217 31.896594851597772 $131 $218 forward 7 unknown #
face $-1 $219 $220 $31 $-1 $221 reversed single #
loop $-1 $-1 $222 $84 #
plane-surface $-1 0 0 11.57513380475323 0 0 1 1 0 0 forward_v I I I I #
coedge $-1 $223 $224 $225 $226 reversed $85 $-1 #
coedge $-1 $227 $87 $228 $229 reversed $54 $-1 #
coedge $-1 $87 $227 $230 $231 reversed $54 $-1 #
coedge $-1 $224 $223 $87 $140 reversed $85 $-1 #
edge $-1 $232 -11.57513380475323 $233 11.57513380475323 $139 $234 forward 7 unknown #
face $-1 $235 $236 $32 $-1 $237 reversed single #
loop $-1 $-1 $238 $88 #
plane-surface $-1 53.108980458099069 -18.68311702496165 204.07384001439925 0 1 0 0.64278761758704617 0 0.76604443648966558 forward_v I I I I #
coedge $-1 $239 $240 $241 $242 reversed $89 $-1 #
coedge $-1 $146 $91 $243 $244 reversed $57 $-1 #
coedge $-1 $91 $145 $239 $245 reversed $57 $-1 #
coedge $-1 $241 $246 $91 $148 forward $247 $-1 #
edge $-1 $248 -43.929838516334542 $249 -36.657213515735137 $147 $250 forward 7 unknown #
loop $-1 $-1 $154 $92 #
plane-surface $-1 -37.503927044836104 -13.079777223781914 96.085584224179087 0.64278761758704617 0 0.76604443648966558 0.76604443648966558 0 -0.64278761758704617 forward_v I I I I #
loop $-1 $-1 $251 $59 #
coedge $-1 $152 $152 $153 $252 reversed $93 $-1 #
coedge $-1 $153 $153 $152 $252 forward $95 $-1 #
coedge $-1 $154 $154 $96 $155 forward $149 $-1 #
edge $-1 $253 0 $253 6.2831853071796004 $154 $254 forward 7 unknown #
face $-1 $255 $256 $34 $-1 $257 reversed single #
loop $-1 $-1 $258 $97 #
plane-surface $-1 -149.31300265053113 6.6067389133180612 123.80153902970717 0 -1 0 0.55919291073839883 0 -0.82903756765294845 forward_v I I I I #
coedge $-1 $259 $260 $261 $262 reversed $98 $-1 #
coedge $-1 $161 $100 $263 $264 reversed $63 $-1 #
coedge $-1 $100 $160 $259 $265 reversed $63 $-1 #
coedge $-1 $261 $266 $100 $163 forward $267 $-1 #
edge $-1 $268 4.1721725798814902 $269 11.054083620007773 $162 $270 forward 7 unknown #
loop $-1 $-1 $169 $101 #
plane-surface $-1 -70.484328745384104 2.1555500786012765 6.9332261082591486 -0.55919291073839883 0 0.82903756765294845 0.82903756765294845 0 0.55919291073839883 forward_v I I I I #
loop $-1 $-1 $271 $65 #
coedge $-1 $167 $167 $168 $272 reversed $102 $-1 #
coedge $-1 $168 $168 $167 $272 forward $104 $-1 #
coedge $-1 $169 $169 $105 $170 forward $164 $-1 #
edge $-1 $273 0 $273 6.2831853071796004 $169 $274 forward 7 unknown #
loop $-1 $-1 $176 $106 #
plane-surface $-1 -70.484328745384104 2.1555500786012765 6.9332261082591486 -0.55919291073839883 0 0.82903756765294845 0.82903756765294845 0 0.55919291073839883 forward_v I I I I #
loop $-1 $-1 $275 $68 #
coedge $-1 $174 $174 $175 $276 reversed $107 $-1 #
coedge $-1 $175 $175 $174 $276 forward $109 $-1 #
coedge $-1 $176 $176 $110 $177 forward $171 $-1 #
edge $-1 $277 0 $277 6.2831853071796004 $176 $278 forward 7 unknown #
face $-1 $279 $280 $37 $-1 $281 forward single #
loop $-1 $-1 $282 $111 #
plane-surface $-1 -70.484328745384076 0 0 1 0 0 0 0 -1 forward_v I I I I #
coedge $-1 $283 $284 $285 $286 reversed $112 $-1 #
coedge $-1 $287 $114 $288 $289 reversed $72 $-1 #
coedge $-1 $114 $287 $290 $291 reversed $72 $-1 #
coedge $-1 $292 $293 $114 $185 forward $280 $-1 #
edge $-1 $294 3.4489252521598177e-014 $295 8.3010846656917927 $184 $296 forward 7 unknown #
loop $-1 $-1 $191 $115 #
plane-surface $-1 -70.484328745384104 2.1555500786012765 6.9332261082591486 -0.55919291073839883 0 0.82903756765294845 0.82903756765294845 0 0.55919291073839883 forward_v I I I I #
loop $-1 $-1 $297 $74 #
coedge $-1 $189 $189 $190 $298 reversed $116 $-1 #
coedge $-1 $190 $190 $189 $298 forward $118 $-1 #
coedge $-1 $191 $191 $119 $192 forward $186 $-1 #
edge $-1 $299 0 $299 6.2831853071796004 $191 $300 forward 7 unknown #
loop $-1 $-1 $198 $120 #
plane-surface $-1 -70.484328745384104 2.1555500786012765 6.9332261082591486 -0.55919291073839883 0 0.82903756765294845 0.82903756765294845 0 0.55919291073839883 forward_v I I I I #
loop $-1 $-1 $301 $77 #
coedge $-1 $196 $196 $197 $302 reversed $121 $-1 #
coedge $-1 $197 $197 $196 $302 forward $123 $-1 #
coedge $-1 $198 $198 $124 $199 forward $193 $-1 #
edge $-1 $303 0 $303 6.2831853071796004 $198 $304 forward 7 unknown #
face $-1 $305 $306 $30 $-1 $307 reversed single #
loop $-1 $-1 $308 $125 #
plane-surface $-1 -70.484328745384076 0 0 1 0 0 0 0 -1 forward_v I I I I #
coedge $-1 $309 $211 $310 $311 forward $126 $-1 #
coedge $-1 $312 $128 $309 $313 forward $81 $-1 #
coedge $-1 $128 $312 $314 $315 forward $81 $-1 #
coedge $-1 $214 $213 $128 $207 reversed $215 $-1 #
edge $-1 $316 -31.896594851597772 $317 31.896594851597772 $206 $318 forward 7 unknown #
coedge $-1 $130 $129 $319 $320 forward $51 $-1 #
coedge $-1 $321 $322 $129 $210 reversed $306 $-1 #
edge $-1 $217 -70.484328745384076 $323 70.484328745384076 $209 $324 forward 7 unknown #
coedge $-1 $203 $325 $130 $212 reversed $126 $-1 #
edge $-1 $326 -70.484328745384076 $216 70.484328745384076 $211 $327 forward 7 unknown #
coedge $-1 $206 $131 $325 $328 forward $215 $-1 #
coedge $-1 $131 $206 $321 $329 reversed $215 $-1 #
loop $-1 $-1 $213 $305 #
vertex $-1 $132 $330 #
vertex $-1 $132 $331 #
straight-curve $-1 70.484328745384076 0 11.57513380475323 0 1 0 I I #
face $-1 $332 $333 $31 $-1 $334 reversed single #
loop $-1 $-1 $335 $133 #
plane-surface $-1 -70.484328745384076 0 0 1 0 0 0 0 -1 forward_v I I I I #
coedge $-1 $230 $336 $224 $337 forward $134 $-1 #
coedge $-1 $139 $136 $338 $339 reversed $85 $-1 #
coedge $-1 $136 $139 $222 $337 reversed $85 $-1 #
coedge $-1 $340 $341 $136 $226 forward $342 $-1 #
edge $-1 $343 -11.57513380475323 $344 11.57513380475323 $225 $345 forward 7 unknown #
coedge $-1 $138 $137 $335 $346 reversed $54 $-1 #
coedge $-1 $338 $347 $137 $229 forward $333 $-1 #
edge $-1 $348 -36.333883854698314 $233 -31.96700592667321 $228 $349 forward 7 unknown #
coedge $-1 $350 $222 $138 $231 forward $134 $-1 #
edge $-1 $232 31.96700592667321 $351 36.333883854698314 $230 $352 forward 7 unknown #
vertex $-1 $231 $353 #
vertex $-1 $229 $354 #
straight-curve $-1 -66.117450817358971 -18.68311702496165 0 0 0 -1 I I #
face $-1 $-1 $247 $32 $-1 $355 forward single #
loop $-1 $-1 $356 $141 #
plane-surface $-1 70.484328745384076 0 0 -1 0 0 0 0 1 forward_v I I I I #
coedge $-1 $357 $358 $359 $360 reversed $142 $-1 #
coedge $-1 $361 $144 $146 $245 forward $89 $-1 #
coedge $-1 $144 $361 $357 $362 forward $89 $-1 #
coedge $-1 $359 $147 $144 $242 forward $247 $-1 #
edge $-1 $249 0.93654881071122187 $363 12.143228413070693 $241 $364 forward 7 unknown #
coedge $-1 $365 $366 $145 $244 forward $236 $-1 #
edge $-1 $367 -96.564243285955726 $248 -90.46178620244639 $243 $368 forward 7 unknown #
edge $-1 $249 131.47491972024716 $367 140.96865749076818 $146 $369 forward 7 unknown #
coedge $-1 $147 $359 $365 $370 forward $247 $-1 #
loop $-1 $-1 $359 $235 #
vertex $-1 $244 $371 #
vertex $-1 $148 $372 #
straight-curve $-1 26.554490229049534 -7.4764374226021788 11.575133804753236 -1 0 0 I I #
coedge $-1 $251 $251 $-1 $373 reversed $151 $-1 #
edge $-1 $374 0 $374 6.2831853071796004 $152 $375 forward 7 unknown #
vertex $-1 $155 $376 #
ellipse-curve $-1 66.848016245084381 -13.079777223781914 8.5239052629985732 0.64278761758704617 0 0.76604443648966558 0.76604443648966558 0 -0.64278761758704617 1 I I #
face $-1 $-1 $267 $34 $-1 $377 forward single #
loop $-1 $-1 $378 $156 #
plane-surface $-1 -70.484328745384076 0 0 1 0 0 0 0 -1 forward_v I I I I #
coedge $-1 $379 $380 $381 $382 reversed $157 $-1 #
coedge $-1 $383 $159 $161 $265 forward $98 $-1 #
coedge $-1 $159 $383 $379 $384 forward $98 $-1 #
coedge $-1 $381 $162 $159 $262 forward $267 $-1 #
edge $-1 $269 -3.3734137954161465 $385 5.528963874017423 $261 $386 forward 7 unknown #
coedge $-1 $387 $388 $160 $264 forward $256 $-1 #
edge $-1 $389 -54.967543406594416 $268 -50.325635710100357 $263 $390 forward 7 unknown #
edge $-1 $269 -8.3010846656917927 $389 -3.4489252521598177e-014 $161 $391 forward 7 unknown #
coedge $-1 $162 $381 $387 $392 forward $267 $-1 #
loop $-1 $-1 $381 $255 #
vertex $-1 $264 $393 #
vertex $-1 $163 $394 #
straight-curve $-1 -74.656501325265566 -2.2956387561155083 11.575133804753229 1 0 0 I I #
coedge $-1 $271 $271 $-1 $395 reversed $166 $-1 #
edge $-1 $396 0 $396 6.2831853071796004 $167 $397 forward 7 unknown #
vertex $-1 $170 $398 #
ellipse-curve $-1 -67.043373225320934 0.24789772086551309 9.2541799565062028 -0.55919291073839883 0 0.82903756765294845 0.82903756765294845 0 0.55919291073839883 1 I I #
coedge $-1 $275 $275 $-1 $399 reversed $173 $-1 #
edge $-1 $400 0 $400 6.2831853071796004 $174 $401 forward 7 unknown #
vertex $-1 $177 $402 #
ellipse-curve $-1 -67.043373225320934 4.0632024363370398 9.2541799565062028 -0.55919291073839883 0 0.82903756765294845 0.82903756765294845 0 0.55919291073839883 1 I I #
face $-1 $-1 $403 $37 $-1 $404 forward single #
loop $-1 $-1 $292 $178 #
plane-surface $-1 -149.31300265053113 6.6067389133180612 123.80153902970717 0 -1 0 0.55919291073839883 0 -0.82903756765294845 forward_v I I I I #
coedge $-1 $288 $405 $284 $406 forward $179 $-1 #
coedge $-1 $284 $181 $287 $407 reversed $112 $-1 #
coedge $-1 $181 $283 $282 $406 reversed $112 $-1 #
coedge $-1 $408 $290 $181 $286 forward $403 $-1 #
edge $-1 $409 -11.054083620007773 $410 -4.1721725798814902 $285 $411 forward 7 unknown #
coedge $-1 $183 $182 $283 $407 forward $72 $-1 #
coedge $-1 $412 $282 $182 $289 forward $179 $-1 #
edge $-1 $413 -14.431341543450985 $294 -5.528963874017423 $288 $414 forward 7 unknown #
coedge $-1 $285 $415 $183 $291 forward $403 $-1 #
edge $-1 $295 5.528963874017423 $409 14.431341543450985 $290 $416 forward 7 unknown #
coedge $-1 $293 $184 $415 $417 reversed $280 $-1 #
coedge $-1 $184 $292 $412 $418 reversed $280 $-1 #
vertex $-1 $289 $419 #
vertex $-1 $291 $420 #
straight-curve $-1 -70.484328745384104 6.6067389133180612 6.9332261082591486 0.82903756765294845 0 0.55919291073839883 I I #
coedge $-1 $297 $297 $-1 $421 reversed $188 $-1 #
edge $-1 $422 0 $422 6.2831853071796004 $189 $423 forward 7 unknown #
vertex $-1 $192 $424 #
ellipse-curve $-1 -67.043373225320934 9.1502753902990754 9.2541799565062028 -0.55919291073839883 0 0.82903756765294845 0.82903756765294845 0 0.55919291073839883 1 I I #
coedge $-1 $301 $301 $-1 $425 reversed $195 $-1 #
edge $-1 $426 0 $426 6.2831853071796004 $196 $427 forward 7 unknown #
vertex $-1 $199 $428 #
ellipse-curve $-1 -67.043373225320934 12.965580105770602 9.2541799565062028 -0.55919291073839883 0 0.82903756765294845 0.82903756765294845 0 0.55919291073839883 1 I I #
face $-1 $-1 $215 $30 $-1 $429 reversed single #
loop $-1 $-1 $321 $200 #
plane-surface $-1 0 31.896594851597772 0 0 -1 0 0 0 -1 forward_v I I I I #
coedge $-1 $430 $319 $322 $431 forward $201 $-1 #
coedge $-1 $325 $203 $204 $313 reversed $126 $-1 #
coedge $-1 $319 $430 $203 $311 reversed $201 $-1 #
edge $-1 $326 -11.57513380475323 $432 11.57513380475323 $310 $433 forward 7 unknown #
coedge $-1 $205 $204 $430 $434 forward $81 $-1 #
edge $-1 $317 -70.484328745384076 $432 70.484328745384076 $309 $435 forward 7 unknown #
coedge $-1 $322 $321 $205 $315 reversed $306 $-1 #
edge $-1 $436 -70.484328745384076 $316 70.484328745384076 $314 $437 forward 7 unknown #
vertex $-1 $207 $438 #
vertex $-1 $328 $439 #
straight-curve $-1 70.484328745384076 0 -11.57513380475323 0 -1 0 I I #
coedge $-1 $308 $310 $208 $320 reversed $201 $-1 #
edge $-1 $323 -31.896594851597772 $326 31.896594851597772 $319 $440 forward 7 unknown #
coedge $-1 $314 $209 $214 $329 forward $306 $-1 #
coedge $-1 $209 $314 $308 $431 reversed $306 $-1 #
vertex $-1 $210 $441 #
straight-curve $-1 0 31.896594851597772 11.57513380475323 -1 0 0 I I #
coedge $-1 $211 $309 $213 $328 reversed $126 $-1 #
vertex $-1 $320 $442 #
straight-curve $-1 0 -31.896594851597772 11.57513380475323 1 0 0 I I #
edge $-1 $216 -11.57513380475323 $317 11.57513380475323 $213 $443 forward 7 unknown #
edge $-1 $217 -11.57513380475323 $316 11.57513380475323 $214 $444 forward 7 unknown #
point $-1 70.484328745384076 -31.896594851597772 11.57513380475323 #
point $-1 70.484328745384076 31.896594851597772 11.57513380475323 #
face $-1 $-1 $342 $31 $-1 $445 reversed single #
loop $-1 $-1 $338 $219 #
plane-surface $-1 0 0 -11.57513380475323 0 0 1 1 0 0 forward_v I I I I #
coedge $-1 $446 $447 $227 $346 forward $220 $-1 #
coedge $-1 $222 $350 $340 $448 forward $134 $-1 #
edge $-1 $344 -19.251666882457918 $232 -6.0381890558217943 $222 $449 forward 7 unknown #
coedge $-1 $450 $228 $223 $339 forward $333 $-1 #
edge $-1 $233 6.0381890558217943 $343 19.251666882457918 $338 $451 forward 7 unknown #
coedge $-1 $452 $225 $336 $448 reversed $342 $-1 #
coedge $-1 $225 $452 $450 $453 reversed $342 $-1 #
loop $-1 $-1 $225 $332 #
vertex $-1 $453 $454 #
vertex $-1 $226 $455 #
straight-curve $-1 -66.117450817358971 -31.896594851597772 0 0 0 1 I I #
edge $-1 $351 -11.57513380475323 $348 11.57513380475323 $335 $456 forward 7 unknown #
coedge $-1 $228 $450 $446 $457 forward $333 $-1 #
vertex $-1 $229 $458 #
straight-curve $-1 -34.150444890685762 -18.68311702496165 -11.57513380475323 1 0 0 I I #
coedge $-1 $336 $230 $447 $459 forward $134 $-1 #
vertex $-1 $459 $460 #
straight-curve $-1 -34.150444890685762 -18.68311702496165 11.57513380475323 -1 0 0 I I #
point $-1 -66.117450817358971 -18.68311702496165 11.57513380475323 #
point $-1 -66.117450817358971 -18.68311702496165 -11.57513380475323 #
plane-surface $-1 0 0 11.57513380475323 0 0 1 1 0 0 forward_v I I I I #
coedge $-1 $366 $365 $358 $461 forward $236 $-1 #
coedge $-1 $358 $238 $240 $362 reversed $142 $-1 #
coedge $-1 $238 $357 $356 $461 reversed $142 $-1 #
coedge $-1 $246 $241 $238 $360 forward $247 $-1 #
edge $-1 $363 36.657213515735137 $462 43.929838516334542 $359 $463 forward 7 unknown #
coedge $-1 $240 $239 $366 $464 reversed $89 $-1 #
edge $-1 $465 -140.96865749076818 $363 -131.47491972024716 $357 $466 forward 7 unknown #
vertex $-1 $242 $467 #
straight-curve $-1 63.211703744784685 -6.5398886118909569 11.575133804753236 0 -1 0 I I #
coedge $-1 $356 $243 $246 $370 reversed $236 $-1 #
coedge $-1 $243 $356 $361 $464 forward $236 $-1 #
vertex $-1 $244 $468 #
straight-curve $-1 70.484328745384076 -7.4764374226021788 102.03692000719963 0 0 1 I I #
straight-curve $-1 -37.503927044836104 -7.4764374226021788 96.085584224179087 0.76604443648966558 0 -0.64278761758704617 I I #
edge $-1 $462 -18.68311702496165 $248 -7.4764374226021788 $365 $469 forward 7 unknown #
point $-1 70.484328745384076 -7.4764374226021788 11.57513380475323 #
point $-1 63.211703744784671 -7.4764374226021788 11.57513380475325 #
edge $-1 $470 1 $470 0 $251 $-1 forward 7 unknown #
vertex $-1 $252 $471 #
ellipse-curve $-1 65.945284820598758 -13.079777223781914 7.4480718672534376 0.64278761758704617 0 0.76604443648966558 0.76604443648966558 0 -0.64278761758704617 1 I I #
point $-1 67.61406068157406 -13.079777223781914 7.8811176454115426 #
plane-surface $-1 0 0 11.57513380475323 0 0 1 1 0 0 forward_v I I I I #
coedge $-1 $388 $387 $380 $472 forward $256 $-1 #
coedge $-1 $380 $258 $260 $384 reversed $157 $-1 #
coedge $-1 $258 $379 $378 $472 reversed $157 $-1 #
coedge $-1 $266 $261 $258 $382 forward $267 $-1 #
edge $-1 $385 -11.054083620007773 $473 -4.1721725798814902 $381 $474 forward 7 unknown #
coedge $-1 $260 $259 $388 $475 reversed $98 $-1 #
edge $-1 $476 3.4489252521598177e-014 $385 8.3010846656917927 $379 $477 forward 7 unknown #
vertex $-1 $262 $478 #
straight-curve $-1 -63.602417705257793 1.0777750393006382 11.57513380475323 0 1 0 I I #
coedge $-1 $378 $263 $266 $392 reversed $256 $-1 #
coedge $-1 $263 $378 $383 $475 forward $256 $-1 #
vertex $-1 $264 $479 #
straight-curve $-1 -70.484328745384076 -2.2956387561155083 61.900769514853586 0 0 1 I I #
straight-curve $-1 -70.484328745384104 -2.2956387561155083 6.9332261082591486 -0.82903756765294845 0 -0.55919291073839883 I I #
edge $-1 $473 -6.6067389133180612 $268 2.2956387561155083 $387 $480 forward 7 unknown #
point $-1 -70.484328745384076 -2.2956387561155083 11.57513380475323 #
point $-1 -63.602417705257793 -2.2956387561155083 11.57513380475323 #
edge $-1 $481 1 $481 0 $271 $-1 forward 7 unknown #
vertex $-1 $272 $482 #
ellipse-curve $-1 -65.885019454475881 0.24789772086551309 7.5368499005959233 -0.55919291073839883 0 0.82903756765294845 0.82903756765294845 0 0.55919291073839883 1 I I #
point $-1 -66.214335657667974 0.24789772086551309 9.8133728672445848 #
edge $-1 $483 1 $483 0 $275 $-1 forward 7 unknown #
vertex $-1 $276 $484 #
ellipse-curve $-1 -65.885019454475881 4.0632024363370398 7.5368499005959233 -0.55919291073839883 0 0.82903756765294845 0.82903756765294845 0 0.55919291073839883 1 I I #
point $-1 -66.214335657667974 4.0632024363370398 9.8133728672445848 #
loop $-1 $-1 $285 $279 #
plane-surface $-1 0 0 11.57513380475323 0 0 1 1 0 0 forward_v I I I I #
coedge $-1 $282 $412 $408 $485 reversed $179 $-1 #
edge $-1 $410 50.325635710100357 $413 54.967543406594416 $282 $486 forward 7 unknown #
edge $-1 $413 3.4489252521598177e-014 $409 8.3010846656917927 $283 $487 forward 7 unknown #
coedge $-1 $415 $285 $405 $485 forward $403 $-1 #
vertex $-1 $286 $488 #
vertex $-1 $485 $489 #
straight-curve $-1 -74.656501325265566 15.509116582751624 11.575133804753229 -1 0 0 I I #
coedge $-1 $405 $288 $293 $418 forward $179 $-1 #
vertex $-1 $406 $490 #
straight-curve $-1 -70.484328745384076 1.0777750393006382 6.9332261082591726 0 -1 0 I I #
coedge $-1 $290 $408 $292 $417 forward $403 $-1 #
straight-curve $-1 -63.602417705257793 1.0777750393006382 11.57513380475323 0 1 0 I I #
edge $-1 $491 4.1721725798814902 $295 11.054083620007773 $415 $492 forward 7 unknown #
edge $-1 $294 -54.967543406594416 $491 -50.325635710100357 $412 $493 forward 7 unknown #
point $-1 -70.484328745384076 6.6067389133180612 6.9332261082591682 #
point $-1 -63.602417705257793 6.6067389133180612 11.57513380475323 #
edge $-1 $494 1 $494 0 $297 $-1 forward 7 unknown #
vertex $-1 $298 $495 #
ellipse-curve $-1 -65.885019454475881 9.1502753902990754 7.5368499005959233 -0.55919291073839883 0 0.82903756765294845 0.82903756765294845 0 0.55919291073839883 1 I I #
point $-1 -66.214335657667974 9.1502753902990754 9.8133728672445848 #
edge $-1 $496 1 $496 0 $301 $-1 forward 7 unknown #
vertex $-1 $302 $497 #
ellipse-curve $-1 -65.885019454475881 12.965580105770602 7.5368499005959233 -0.55919291073839883 0 0.82903756765294845 0.82903756765294845 0 0.55919291073839883 1 I I #
point $-1 -66.214335657667974 12.965580105770602 9.8133728672445848 #
plane-surface $-1 70.484328745384076 0 0 -1 0 0 0 0 1 forward_v I I I I #
coedge $-1 $310 $308 $312 $434 reversed $201 $-1 #
edge $-1 $323 -11.57513380475323 $436 11.57513380475323 $322 $498 forward 7 unknown #
vertex $-1 $434 $499 #
straight-curve $-1 -70.484328745384076 -31.896594851597772 0 0 0 -1 I I #
edge $-1 $432 -31.896594851597772 $436 31.896594851597772 $430 $500 forward 7 unknown #
straight-curve $-1 0 -31.896594851597772 -11.57513380475323 -1 0 0 I I #
vertex $-1 $315 $501 #
straight-curve $-1 0 31.896594851597772 -11.57513380475323 1 0 0 I I #
point $-1 70.484328745384076 31.896594851597772 -11.57513380475323 #
point $-1 70.484328745384076 -31.896594851597772 -11.57513380475323 #
straight-curve $-1 -70.484328745384076 0 11.57513380475323 0 -1 0 I I #
point $-1 -70.484328745384076 31.896594851597772 11.57513380475323 #
point $-1 -70.484328745384076 -31.896594851597772 11.57513380475323 #
straight-curve $-1 70.484328745384076 -31.896594851597772 0 0 0 -1 I I #
straight-curve $-1 70.484328745384076 31.896594851597772 0 0 0 -1 I I #
plane-surface $-1 0 -31.896594851597772 0 0 1 0 0 0 1 forward_v I I I I #
coedge $-1 $502 $335 $347 $457 reversed $220 $-1 #
coedge $-1 $335 $502 $350 $459 reversed $220 $-1 #
edge $-1 $503 -70.484328745384076 $344 -66.117450817358971 $340 $504 forward 7 unknown #
straight-curve $-1 -66.117450817358971 -12.644927969139856 11.57513380475323 0 1 0 I I #
coedge $-1 $347 $338 $341 $453 forward $333 $-1 #
straight-curve $-1 -66.117450817358971 -12.644927969139856 -11.57513380475323 0 -1 0 I I #
coedge $-1 $341 $340 $502 $505 forward $342 $-1 #
edge $-1 $343 66.117450817358971 $506 70.484328745384076 $341 $507 forward 7 unknown #
point $-1 -66.117450817358971 -31.896594851597772 -11.57513380475323 #
point $-1 -66.117450817358971 -31.896594851597772 11.57513380475323 #
straight-curve $-1 -70.484328745384076 -18.68311702496165 0 0 0 -1 I I #
edge $-1 $506 -31.896594851597772 $348 -18.68311702496165 $446 $508 forward 7 unknown #
point $-1 -70.484328745384076 -18.68311702496165 -11.57513380475323 #
edge $-1 $351 18.68311702496165 $503 31.896594851597772 $447 $509 forward 7 unknown #
point $-1 -70.484328745384076 -18.68311702496165 11.57513380475323 #
edge $-1 $462 90.46178620244639 $465 96.564243285955726 $356 $510 forward 7 unknown #
vertex $-1 $370 $511 #
straight-curve $-1 26.554490229049534 -18.68311702496165 11.575133804753236 1 0 0 I I #
edge $-1 $465 -12.143228413070693 $367 -0.93654881071122187 $366 $512 forward 7 unknown #
vertex $-1 $464 $513 #
straight-curve $-1 -37.503927044836104 -18.68311702496165 96.085584224179087 -0.76604443648966558 0 0.64278761758704617 I I #
point $-1 63.211703744784671 -18.68311702496165 11.57513380475325 #
point $-1 70.484328745384076 -7.4764374226021788 5.4726767212439 #
straight-curve $-1 70.484328745384076 0 11.57513380475323 0 1 0 I I #
vertex $-1 $373 $514 #
point $-1 66.711329257088437 -13.079777223781914 6.8052842496663919 #
edge $-1 $473 50.325635710100357 $476 54.967543406594416 $378 $515 forward 7 unknown #
vertex $-1 $392 $516 #
straight-curve $-1 -74.656501325265566 6.6067389133180612 11.575133804753229 -1 0 0 I I #
edge $-1 $476 -5.528963874017423 $389 3.3734137954161465 $388 $517 forward 7 unknown #
vertex $-1 $475 $518 #
straight-curve $-1 -70.484328745384104 6.6067389133180612 6.9332261082591486 0.82903756765294845 0 0.55919291073839883 I I #
point $-1 -63.602417705257793 6.6067389133180612 11.57513380475323 #
point $-1 -70.484328745384076 -2.2956387561155083 6.9332261082591682 #
straight-curve $-1 -70.484328745384076 0 11.57513380475323 0 -1 0 I I #
vertex $-1 $395 $519 #
point $-1 -65.055981886822934 0.24789772086551309 8.096042811334323 #
vertex $-1 $399 $520 #
point $-1 -65.055981886822934 4.0632024363370398 8.096042811334323 #
edge $-1 $410 -15.509116582751624 $491 -6.6067389133180612 $405 $521 forward 7 unknown #
straight-curve $-1 -70.484328745384076 15.509116582751624 61.900769514853586 0 0 -1 I I #
straight-curve $-1 -70.484328745384104 15.509116582751624 6.9332261082591486 0.82903756765294845 0 0.55919291073839883 I I #
point $-1 -63.602417705257793 15.509116582751624 11.57513380475323 #
point $-1 -70.484328745384076 15.509116582751624 11.57513380475323 #
point $-1 -70.484328745384076 15.509116582751624 6.9332261082591682 #
vertex $-1 $418 $522 #
straight-curve $-1 -74.656501325265566 6.6067389133180612 11.575133804753229 1 0 0 I I #
straight-curve $-1 -70.484328745384076 6.6067389133180612 61.900769514853586 0 0 1 I I #
vertex $-1 $421 $523 #
point $-1 -65.055981886822934 9.1502753902990754 8.096042811334323 #
vertex $-1 $425 $524 #
point $-1 -65.055981886822934 12.965580105770602 8.096042811334323 #
straight-curve $-1 -70.484328745384076 31.896594851597772 0 0 0 -1 I I #
point $-1 -70.484328745384076 -31.896594851597772 -11.57513380475323 #
straight-curve $-1 -70.484328745384076 0 -11.57513380475323 0 1 0 I I #
point $-1 -70.484328745384076 31.896594851597772 -11.57513380475323 #
coedge $-1 $447 $446 $452 $505 reversed $220 $-1 #
vertex $-1 $459 $525 #
straight-curve $-1 0 -31.896594851597772 11.57513380475323 1 0 0 I I #
edge $-1 $503 -11.57513380475323 $506 11.57513380475323 $502 $526 forward 7 unknown #
vertex $-1 $457 $527 #
straight-curve $-1 0 -31.896594851597772 -11.57513380475323 -1 0 0 I I #
straight-curve $-1 -70.484328745384076 0 -11.57513380475323 0 1 0 I I #
straight-curve $-1 -70.484328745384076 0 11.57513380475323 0 -1 0 I I #
straight-curve $-1 70.484328745384076 -18.68311702496165 102.03692000719963 0 0 -1 I I #
point $-1 70.484328745384076 -18.68311702496165 11.57513380475323 #
straight-curve $-1 70.484328745384076 -6.5398886118909569 5.4726767212439071 0 1 0 I I #
point $-1 70.484328745384076 -18.68311702496165 5.4726767212439 #
point $-1 65.302497203011725 -13.079777223781914 6.6820274307637728 #
straight-curve $-1 -70.484328745384076 6.6067389133180612 61.900769514853586 0 0 -1 I I #
point $-1 -70.484328745384076 6.6067389133180612 11.57513380475323 #
straight-curve $-1 -70.484328745384076 1.0777750393006382 6.9332261082591726 0 -1 0 I I #
point $-1 -70.484328745384076 6.6067389133180612 6.9332261082591682 #
point $-1 -65.325826543737477 0.24789772086551309 6.7078123329429769 #
point $-1 -65.325826543737477 4.0632024363370398 6.7078123329429769 #
straight-curve $-1 -70.484328745384076 0 11.57513380475323 0 -1 0 I I #
point $-1 -70.484328745384076 6.6067389133180612 11.57513380475323 #
point $-1 -65.325826543737477 9.1502753902990754 6.7078123329429769 #
point $-1 -65.325826543737477 12.965580105770602 6.7078123329429769 #
point $-1 -70.484328745384076 -31.896594851597772 11.57513380475323 #
straight-curve $-1 -70.484328745384076 -31.896594851597772 0 0 0 -1 I I #
point $-1 -70.484328745384076 -31.896594851597772 -11.57513380475323 #
End-of-ACIS-data 