500 0 7 0           
7 Unknown 11 ACIS 5.0 NT 24 Thu Mar 25 15:10:09 1999 
-1 9.9999999999999995e-007 1e-010 
body $-1 $7 $-1 $8 #
body $-1 $9 $-1 $10 #
body $-1 $11 $-1 $12 #
body $-1 $13 $-1 $14 #
body $-1 $15 $-1 $16 #
body $-1 $17 $-1 $18 #
body $-1 $19 $-1 $20 #
lump $-1 $-1 $21 $0 #
transform $-1 1 0 0 0 1 0 0 0 1 46.093935972167117 31.717135074033468 10.137054621305669 1 rotate no_reflect no_shear #
lump $-1 $-1 $22 $1 #
transform $-1 1 0 0 0 1 0 0 0 1 46.093935972167117 31.717135074033468 10.137054621305669 1 rotate no_reflect no_shear #
lump $-1 $-1 $23 $2 #
transform $-1 1 0 0 0 1 0 0 0 1 46.093935972167117 31.717135074033468 10.137054621305669 1 rotate no_reflect no_shear #
lump $-1 $-1 $24 $3 #
transform $-1 1 0 0 0 1 0 0 0 1 46.093935972167117 31.717135074033468 10.137054621305669 1 rotate no_reflect no_shear #
lump $-1 $-1 $25 $4 #
transform $-1 1 0 0 0 1 0 0 0 1 46.093935972167117 31.717135074033468 10.137054621305669 1 rotate no_reflect no_shear #
lump $-1 $-1 $26 $5 #
transform $-1 1 0 0 0 1 0 0 0 1 46.093935972167117 31.717135074033468 10.137054621305669 1 rotate no_reflect no_shear #
lump $-1 $-1 $27 $6 #
transform $-1 1 0 0 0 1 0 0 0 1 46.093935972167117 31.717135074033468 10.137054621305669 1 rotate no_reflect no_shear #
shell $-1 $-1 $-1 $28 $-1 $7 #
shell $-1 $-1 $-1 $29 $-1 $9 #
shell $-1 $-1 $-1 $30 $-1 $11 #
shell $-1 $-1 $-1 $31 $-1 $13 #
shell $-1 $-1 $-1 $32 $-1 $15 #
shell $-1 $-1 $-1 $33 $-1 $17 #
shell $-1 $-1 $-1 $34 $-1 $19 #
face $-1 $35 $36 $21 $-1 $37 forward single #
face $-1 $38 $39 $22 $-1 $40 reversed single #
face $-1 $41 $42 $23 $-1 $43 reversed single #
face $-1 $44 $45 $24 $-1 $46 reversed single #
face $-1 $47 $48 $25 $-1 $49 forward single #
face $-1 $50 $51 $26 $-1 $52 reversed single #
face $-1 $53 $54 $27 $-1 $55 forward single #
face $-1 $56 $57 $21 $-1 $58 reversed single #
loop $-1 $-1 $59 $28 #
plane-surface $-1 0 0 10.137054621305669 0 0 1 1 0 0 forward_v I I I I #
face $-1 $60 $61 $22 $-1 $62 reversed single #
loop $-1 $-1 $63 $29 #
plane-surface $-1 -43.439522683065135 -25.91436351378292 0 1 0 0 0 0 -1 forward_v I I I I #
face $-1 $64 $65 $23 $-1 $66 reversed single #
loop $-1 $-1 $67 $30 #
plane-surface $-1 -41.500126897198164 20.111591953532372 0 0 1 0 0 0 1 forward_v I I I I #
face $-1 $68 $69 $24 $-1 $70 reversed single #
loop $-1 $-1 $71 $31 #
plane-surface $-1 -46.093935972167117 -16.930603499272088 0.1505082779419098 -0.71933980857756763 0 0.69465836192734942 0.69465836192734942 0 0.71933980857756763 forward_v I I I I #
face $-1 $72 $73 $25 $-1 $74 forward single #
loop $-1 $75 $76 $32 #
cone-surface $-1 -40.443376479300603 -16.930603499272088 4.3436003972916577 0.71933980857756763 0 -0.69465836192734942 1.0419875428910241 0 1.0790097128663514 1 I I 0 1 1.5 forward I I I I #
face $-1 $77 $78 $26 $-1 $79 reversed single #
loop $-1 $-1 $80 $33 #
plane-surface $-1 48.369266015358349 -13.749615045011804 130.50399054997209 0 -1 0 -0.71933980857756763 0 -0.69465836192734942 forward_v I I I I #
face $-1 $81 $82 $27 $-1 $83 forward single #
loop $-1 $84 $85 $34 #
cone-surface $-1 40.443376479300596 -16.930603499272088 4.3436003972916577 -0.71933980857756763 0 -0.69465836192734942 1.0419875428910241 0 -1.0790097128663514 1 I I 0 1 1.5 forward I I I I #
face $-1 $86 $87 $21 $-1 $88 reversed single #
loop $-1 $-1 $89 $35 #
plane-surface $-1 0 0 -10.137054621305669 0 0 1 1 0 0 forward_v I I I I #
coedge $-1 $90 $91 $92 $93 forward $36 $-1 #
face $-1 $94 $95 $22 $-1 $96 reversed single #
loop $-1 $-1 $97 $38 #
plane-surface $-1 -41.500126897198164 -20.111591953532372 0 0 -1 0 0 0 -1 forward_v I I I I #
coedge $-1 $98 $99 $100 $101 forward $39 $-1 #
face $-1 $102 $103 $23 $-1 $104 reversed single #
loop $-1 $-1 $105 $41 #
plane-surface $-1 -43.439522683065135 25.91436351378292 0 1 0 0 0 0 -1 forward_v I I I I #
coedge $-1 $106 $107 $108 $109 forward $42 $-1 #
face $-1 $110 $111 $24 $-1 $112 forward single #
loop $-1 $-1 $113 $44 #
plane-surface $-1 -112.40834212977782 -13.749615045011804 64.189584392361382 0 -1 0 0.71933980857756763 0 -0.69465836192734942 forward_v I I I I #
coedge $-1 $114 $115 $116 $117 reversed $45 $-1 #
face $-1 $-1 $118 $25 $-1 $119 forward single #
loop $-1 $120 $121 $47 #
cone-surface $-1 -39.075259866989377 -16.930603499272088 3.0224255735140169 0.71933980857756763 0 -0.69465836192734942 0.52099377144551207 0 0.53950485643317569 1 I I -0.70710678118654757 0.70710678118654757 0.75 forward I I I I #
loop $-1 $-1 $122 $32 #
coedge $-1 $76 $76 $123 $124 reversed $48 $-1 #
face $-1 $125 $126 $26 $-1 $127 reversed single #
loop $-1 $-1 $128 $50 #
plane-surface $-1 -17.945140142252356 -16.930603499272088 66.464914435552615 0.71933980857756763 0 0.69465836192734942 0.69465836192734942 0 -0.71933980857756763 forward_v I I I I #
coedge $-1 $129 $130 $131 $132 reversed $51 $-1 #
face $-1 $-1 $133 $27 $-1 $134 forward single #
loop $-1 $135 $136 $53 #
cone-surface $-1 39.07525986698937 -16.930603499272088 3.0224255735140169 -0.71933980857756763 0 -0.69465836192734942 0.52099377144551207 0 -0.53950485643317569 1 I I -0.70710678118654757 0.70710678118654757 0.75 forward I I I I #
loop $-1 $-1 $137 $34 #
coedge $-1 $85 $85 $138 $139 reversed $54 $-1 #
face $-1 $140 $141 $21 $-1 $142 reversed single #
loop $-1 $-1 $143 $56 #
plane-surface $-1 0 -31.717135074033468 0 0 1 0 0 0 1 forward_v I I I I #
coedge $-1 $144 $145 $146 $147 forward $57 $-1 #
coedge $-1 $148 $59 $149 $150 forward $36 $-1 #
coedge $-1 $59 $148 $151 $152 forward $36 $-1 #
coedge $-1 $153 $154 $59 $93 reversed $155 $-1 #
edge $-1 $156 -31.717135074033468 $157 31.717135074033468 $92 $158 forward 7 unknown #
face $-1 $159 $160 $22 $-1 $161 forward single #
loop $-1 $-1 $162 $60 #
plane-surface $-1 -39.560731111331194 -25.91436351378292 0 -1 0 0 0 0 1 forward_v I I I I #
coedge $-1 $163 $164 $165 $166 forward $61 $-1 #
coedge $-1 $167 $63 $168 $169 reversed $39 $-1 #
coedge $-1 $63 $167 $170 $171 reversed $39 $-1 #
coedge $-1 $164 $163 $63 $101 reversed $61 $-1 #
edge $-1 $172 -10.137054621305669 $173 10.137054621305669 $100 $174 forward 7 unknown #
face $-1 $175 $176 $23 $-1 $177 reversed single #
loop $-1 $-1 $178 $64 #
plane-surface $-1 -39.560731111331194 25.91436351378292 0 -1 0 0 0 0 1 forward_v I I I I #
coedge $-1 $179 $180 $181 $182 reversed $65 $-1 #
coedge $-1 $183 $67 $184 $185 reversed $42 $-1 #
coedge $-1 $67 $183 $186 $187 reversed $42 $-1 #
coedge $-1 $180 $179 $67 $109 reversed $65 $-1 #
edge $-1 $188 -10.137054621305669 $189 10.137054621305669 $108 $190 forward 7 unknown #
face $-1 $191 $192 $24 $-1 $193 forward single #
loop $-1 $-1 $194 $68 #
plane-surface $-1 -41.500126897198164 -20.111591953532372 0 0 -1 0 0 0 -1 forward_v I I I I #
coedge $-1 $195 $196 $197 $198 reversed $69 $-1 #
coedge $-1 $199 $71 $194 $200 reversed $45 $-1 #
coedge $-1 $71 $199 $195 $201 forward $45 $-1 #
coedge $-1 $197 $202 $71 $117 forward $192 $-1 #
edge $-1 $203 -11.646290203896328 $204 -5.2843132953757603 $116 $205 forward 7 unknown #
loop $-1 $-1 $123 $72 #
plane-surface $-1 -46.093935972167117 -16.930603499272088 0.1505082779419098 -0.71933980857756763 0 0.69465836192734942 0.69465836192734942 0 0.71933980857756763 forward_v I I I I #
loop $-1 $-1 $206 $47 #
coedge $-1 $121 $121 $122 $207 reversed $73 $-1 #
coedge $-1 $122 $122 $121 $207 forward $75 $-1 #
coedge $-1 $123 $123 $76 $124 forward $118 $-1 #
edge $-1 $208 0 $208 6.2831853071796004 $123 $209 forward 7 unknown #
face $-1 $210 $211 $26 $-1 $212 forward single #
loop $-1 $-1 $213 $77 #
plane-surface $-1 48.369266015358349 -20.111591953532372 130.50399054997209 0 1 0 0.71933980857756763 0 0.69465836192734942 forward_v I I I I #
coedge $-1 $214 $215 $216 $217 reversed $78 $-1 #
coedge $-1 $130 $80 $218 $219 reversed $51 $-1 #
coedge $-1 $80 $129 $214 $220 reversed $51 $-1 #
coedge $-1 $216 $221 $80 $132 forward $211 $-1 #
edge $-1 $222 -21.909302964487942 $223 -12.265407490511016 $131 $224 forward 7 unknown #
loop $-1 $-1 $138 $81 #
plane-surface $-1 -17.945140142252356 -16.930603499272088 66.464914435552615 0.71933980857756763 0 0.69465836192734942 0.69465836192734942 0 -0.71933980857756763 forward_v I I I I #
loop $-1 $-1 $225 $53 #
coedge $-1 $136 $136 $137 $226 reversed $82 $-1 #
coedge $-1 $137 $137 $136 $226 forward $84 $-1 #
coedge $-1 $138 $138 $85 $139 forward $133 $-1 #
edge $-1 $227 0 $227 6.2831853071796004 $138 $228 forward 7 unknown #
face $-1 $229 $230 $21 $-1 $231 reversed single #
loop $-1 $-1 $232 $86 #
plane-surface $-1 -46.093935972167117 0 0 1 0 0 0 0 -1 forward_v I I I I #
coedge $-1 $233 $151 $234 $235 forward $87 $-1 #
coedge $-1 $236 $89 $233 $237 forward $57 $-1 #
coedge $-1 $89 $236 $238 $239 forward $57 $-1 #
coedge $-1 $154 $153 $89 $147 reversed $155 $-1 #
edge $-1 $240 -31.717135074033468 $241 31.717135074033468 $146 $242 forward 7 unknown #
coedge $-1 $91 $90 $243 $244 forward $36 $-1 #
coedge $-1 $245 $246 $90 $150 reversed $230 $-1 #
edge $-1 $157 -46.093935972167117 $247 46.093935972167117 $149 $248 forward 7 unknown #
coedge $-1 $143 $249 $91 $152 reversed $87 $-1 #
edge $-1 $250 -46.093935972167117 $156 46.093935972167117 $151 $251 forward 7 unknown #
coedge $-1 $146 $92 $249 $252 forward $155 $-1 #
coedge $-1 $92 $146 $245 $253 reversed $155 $-1 #
loop $-1 $-1 $153 $229 #
vertex $-1 $93 $254 #
vertex $-1 $93 $255 #
straight-curve $-1 46.093935972167117 0 10.137054621305669 0 1 0 I I #
face $-1 $256 $257 $22 $-1 $258 reversed single #
loop $-1 $-1 $259 $94 #
plane-surface $-1 0 0 10.137054621305669 0 0 1 1 0 0 forward_v I I I I #
coedge $-1 $260 $261 $262 $263 reversed $95 $-1 #
coedge $-1 $100 $97 $264 $265 reversed $61 $-1 #
coedge $-1 $97 $100 $266 $267 reversed $61 $-1 #
coedge $-1 $261 $260 $97 $166 reversed $95 $-1 #
edge $-1 $268 -10.137054621305669 $269 10.137054621305669 $165 $270 forward 7 unknown #
coedge $-1 $99 $98 $271 $272 reversed $39 $-1 #
coedge $-1 $264 $273 $98 $169 forward $257 $-1 #
edge $-1 $274 -18.759953317142006 $173 -7.1544101966409119 $168 $275 forward 7 unknown #
coedge $-1 $276 $266 $99 $171 forward $160 $-1 #
edge $-1 $172 7.1544101966409119 $277 18.759953317142006 $170 $278 forward 7 unknown #
vertex $-1 $171 $279 #
vertex $-1 $169 $280 #
straight-curve $-1 -43.439522683065135 -20.111591953532372 0 0 0 -1 I I #
face $-1 $281 $282 $23 $-1 $283 forward single #
loop $-1 $-1 $284 $102 #
plane-surface $-1 0 0 -10.137054621305669 0 0 1 1 0 0 forward_v I I I I #
coedge $-1 $285 $286 $183 $287 forward $103 $-1 #
coedge $-1 $108 $105 $288 $289 reversed $65 $-1 #
coedge $-1 $105 $108 $290 $291 reversed $65 $-1 #
coedge $-1 $292 $293 $105 $182 forward $294 $-1 #
edge $-1 $295 -10.137054621305669 $296 10.137054621305669 $181 $297 forward 7 unknown #
coedge $-1 $107 $106 $178 $287 reversed $42 $-1 #
coedge $-1 $288 $284 $106 $185 forward $176 $-1 #
edge $-1 $298 18.810667662732111 $189 22.689459234466053 $184 $299 forward 7 unknown #
coedge $-1 $300 $290 $107 $187 forward $282 $-1 #
edge $-1 $188 -22.689459234466053 $301 -18.810667662732111 $186 $302 forward 7 unknown #
vertex $-1 $187 $303 #
vertex $-1 $185 $304 #
straight-curve $-1 -43.439522683065135 20.111591953532372 0 0 0 -1 I I #
face $-1 $-1 $305 $24 $-1 $306 reversed single #
loop $-1 $-1 $202 $110 #
plane-surface $-1 0 0 10.137054621305669 0 0 1 1 0 0 forward_v I I I I #
coedge $-1 $307 $308 $114 $200 forward $111 $-1 #
coedge $-1 $196 $113 $115 $201 reversed $69 $-1 #
coedge $-1 $113 $195 $309 $310 reversed $69 $-1 #
coedge $-1 $311 $116 $113 $198 forward $192 $-1 #
edge $-1 $204 -19.75413056669872 $312 -10.110235092721794 $197 $313 forward 7 unknown #
coedge $-1 $115 $114 $314 $315 reversed $45 $-1 #
edge $-1 $316 -1.5414306455904265 $203 12.341502321947257 $194 $317 forward 7 unknown #
edge $-1 $318 0 $204 13.882932967537684 $195 $319 forward 7 unknown #
coedge $-1 $116 $311 $307 $320 forward $192 $-1 #
vertex $-1 $117 $321 #
vertex $-1 $117 $322 #
straight-curve $-1 -36.450040498190198 -8.4653017496360441 10.137054621305669 0 1 0 I I #
coedge $-1 $206 $206 $-1 $323 reversed $120 $-1 #
edge $-1 $324 0 $324 6.2831853071796004 $121 $325 forward 7 unknown #
vertex $-1 $124 $326 #
ellipse-curve $-1 -41.271988235178654 -16.930603499272088 5.1437814496237895 -0.71933980857756763 0 0.69465836192734942 1.0419875428910241 0 1.0790097128663514 1 I I #
face $-1 $-1 $327 $26 $-1 $328 reversed single #
loop $-1 $-1 $131 $125 #
plane-surface $-1 0 0 10.137054621305669 0 0 1 1 0 0 forward_v I I I I #
coedge $-1 $329 $330 $331 $332 reversed $126 $-1 #
coedge $-1 $333 $128 $130 $220 forward $78 $-1 #
coedge $-1 $128 $333 $329 $334 forward $78 $-1 #
coedge $-1 $331 $131 $128 $217 forward $211 $-1 #
edge $-1 $223 5.2843132953757603 $335 11.646290203896328 $216 $336 forward 7 unknown #
coedge $-1 $337 $338 $129 $219 forward $327 $-1 #
edge $-1 $339 -65.101486997044134 $222 -55.114940653680378 $218 $340 forward 7 unknown #
edge $-1 $223 78.304938976796549 $339 92.187871944334233 $130 $341 forward 7 unknown #
coedge $-1 $131 $331 $337 $342 forward $211 $-1 #
vertex $-1 $132 $343 #
vertex $-1 $132 $344 #
straight-curve $-1 24.184633007679174 -13.749615045011804 10.137054621305666 -1 0 0 I I #
coedge $-1 $225 $225 $-1 $345 reversed $135 $-1 #
edge $-1 $346 0 $346 6.2831853071796004 $136 $347 forward 7 unknown #
vertex $-1 $139 $348 #
ellipse-curve $-1 41.271988235178654 -16.930603499272088 5.143781449623793 0.71933980857756763 0 0.69465836192734942 1.0419875428910241 0 -1.0790097128663514 1 I I #
face $-1 $-1 $155 $21 $-1 $349 reversed single #
loop $-1 $-1 $245 $140 #
plane-surface $-1 0 31.717135074033468 0 0 -1 0 0 0 -1 forward_v I I I I #
coedge $-1 $350 $243 $246 $351 forward $141 $-1 #
coedge $-1 $249 $143 $144 $237 reversed $87 $-1 #
coedge $-1 $243 $350 $143 $235 reversed $141 $-1 #
edge $-1 $250 -10.137054621305669 $352 10.137054621305669 $234 $353 forward 7 unknown #
coedge $-1 $145 $144 $350 $354 forward $57 $-1 #
edge $-1 $241 -46.093935972167117 $352 46.093935972167117 $233 $355 forward 7 unknown #
coedge $-1 $246 $245 $145 $239 reversed $230 $-1 #
edge $-1 $356 -46.093935972167117 $240 46.093935972167117 $238 $357 forward 7 unknown #
vertex $-1 $147 $358 #
vertex $-1 $252 $359 #
straight-curve $-1 46.093935972167117 0 -10.137054621305669 0 -1 0 I I #
coedge $-1 $232 $234 $148 $244 reversed $141 $-1 #
edge $-1 $247 -31.717135074033468 $250 31.717135074033468 $243 $360 forward 7 unknown #
coedge $-1 $238 $149 $154 $253 forward $230 $-1 #
coedge $-1 $149 $238 $232 $351 reversed $230 $-1 #
vertex $-1 $150 $361 #
straight-curve $-1 0 31.717135074033468 10.137054621305669 -1 0 0 I I #
coedge $-1 $151 $233 $153 $252 reversed $87 $-1 #
vertex $-1 $244 $362 #
straight-curve $-1 0 -31.717135074033468 10.137054621305669 1 0 0 I I #
edge $-1 $156 -10.137054621305669 $241 10.137054621305669 $153 $363 forward 7 unknown #
edge $-1 $157 -10.137054621305669 $240 10.137054621305669 $154 $364 forward 7 unknown #
point $-1 46.093935972167117 -31.717135074033468 10.137054621305669 #
point $-1 46.093935972167117 31.717135074033468 10.137054621305669 #
face $-1 $-1 $365 $22 $-1 $366 reversed single #
loop $-1 $-1 $367 $159 #
plane-surface $-1 0 0 -10.137054621305669 0 0 1 1 0 0 forward_v I I I I #
coedge $-1 $266 $276 $261 $368 forward $160 $-1 #
coedge $-1 $165 $162 $367 $369 reversed $95 $-1 #
coedge $-1 $162 $165 $259 $368 reversed $95 $-1 #
coedge $-1 $370 $371 $162 $263 forward $365 $-1 #
edge $-1 $372 -10.137054621305669 $373 10.137054621305669 $262 $374 forward 7 unknown #
coedge $-1 $367 $168 $163 $265 forward $257 $-1 #
edge $-1 $173 -22.689459234466053 $269 -18.810667662732111 $264 $375 forward 7 unknown #
coedge $-1 $170 $259 $164 $267 forward $160 $-1 #
edge $-1 $268 18.810667662732111 $172 22.689459234466053 $266 $376 forward 7 unknown #
vertex $-1 $267 $377 #
vertex $-1 $265 $378 #
straight-curve $-1 -39.560731111331194 -20.111591953532372 0 0 0 -1 I I #
coedge $-1 $371 $370 $167 $272 forward $365 $-1 #
edge $-1 $277 -10.137054621305669 $274 10.137054621305669 $271 $379 forward 7 unknown #
coedge $-1 $168 $367 $371 $380 forward $257 $-1 #
vertex $-1 $169 $381 #
straight-curve $-1 -43.439522683065135 -12.95718175689146 -10.137054621305669 0 1 0 I I #
coedge $-1 $259 $170 $370 $382 forward $160 $-1 #
vertex $-1 $382 $383 #
straight-curve $-1 -43.439522683065135 -12.95718175689146 10.137054621305669 0 -1 0 I I #
point $-1 -43.439522683065135 -20.111591953532372 10.137054621305669 #
point $-1 -43.439522683065135 -20.111591953532372 -10.137054621305669 #
face $-1 $-1 $294 $23 $-1 $384 reversed single #
loop $-1 $-1 $300 $175 #
plane-surface $-1 0 0 10.137054621305669 0 0 1 1 0 0 forward_v I I I I #
coedge $-1 $184 $385 $285 $386 forward $176 $-1 #
coedge $-1 $387 $178 $284 $386 reversed $103 $-1 #
coedge $-1 $178 $387 $300 $388 reversed $103 $-1 #
edge $-1 $301 -10.137054621305669 $298 10.137054621305669 $178 $389 forward 7 unknown #
coedge $-1 $385 $184 $179 $289 forward $176 $-1 #
edge $-1 $189 7.1544101966409119 $295 18.759953317142006 $288 $390 forward 7 unknown #
coedge $-1 $186 $391 $180 $291 forward $282 $-1 #
edge $-1 $296 -18.759953317142006 $188 -7.1544101966409119 $290 $392 forward 7 unknown #
coedge $-1 $393 $181 $391 $394 reversed $294 $-1 #
coedge $-1 $181 $393 $385 $395 reversed $294 $-1 #
loop $-1 $-1 $393 $281 #
vertex $-1 $395 $396 #
vertex $-1 $182 $397 #
straight-curve $-1 -43.439522683065135 31.717135074033468 0 0 0 1 I I #
vertex $-1 $185 $398 #
straight-curve $-1 -20.750063448599082 20.111591953532372 -10.137054621305669 -1 0 0 I I #
coedge $-1 $391 $186 $286 $388 forward $282 $-1 #
vertex $-1 $187 $399 #
straight-curve $-1 -20.750063448599082 20.111591953532372 10.137054621305669 1 0 0 I I #
point $-1 -43.439522683065135 20.111591953532372 10.137054621305669 #
point $-1 -43.439522683065135 20.111591953532372 -10.137054621305669 #
loop $-1 $-1 $400 $191 #
plane-surface $-1 -46.093935972167117 0 0 1 0 0 0 0 -1 forward_v I I I I #
coedge $-1 $308 $194 $202 $320 reversed $111 $-1 #
coedge $-1 $194 $307 $400 $401 reversed $111 $-1 #
coedge $-1 $314 $402 $196 $310 forward $305 $-1 #
edge $-1 $312 21.957737574875022 $318 31.944283918238781 $309 $403 forward 7 unknown #
coedge $-1 $202 $197 $402 $404 forward $192 $-1 #
vertex $-1 $404 $405 #
straight-curve $-1 -56.204171064888911 -13.749615045011804 10.137054621305669 -1 0 0 I I #
coedge $-1 $400 $309 $199 $315 forward $305 $-1 #
edge $-1 $318 5.2843132953757603 $316 11.646290203896328 $314 $406 forward 7 unknown #
vertex $-1 $401 $407 #
straight-curve $-1 -45.023168284876654 -20.111591953532372 1.2593207034765233 0.69465836192734942 0 0.71933980857756763 I I #
vertex $-1 $315 $408 #
straight-curve $-1 -46.093935972167117 -13.749615045011804 0.1505082779419098 0.69465836192734942 0 0.71933980857756763 I I #
edge $-1 $409 10.110235092721794 $203 19.75413056669872 $202 $410 forward 7 unknown #
point $-1 -36.450040498190191 -20.111591953532372 10.137054621305669 #
point $-1 -36.450040498190191 -13.749615045011804 10.137054621305669 #
edge $-1 $411 1 $411 0 $206 $-1 forward 7 unknown #
vertex $-1 $207 $412 #
ellipse-curve $-1 -39.614764723422553 -16.930603499272088 3.543419344959529 -0.71933980857756763 0 0.69465836192734942 1.0419875428910241 0 1.0790097128663514 1 I I #
point $-1 -40.230000692287625 -16.930603499272088 6.2227911624901378 #
loop $-1 $-1 $218 $210 #
plane-surface $-1 46.093935972167117 0 0 -1 0 0 0 0 1 forward_v I I I I #
coedge $-1 $330 $213 $215 $334 reversed $126 $-1 #
coedge $-1 $213 $329 $413 $414 reversed $126 $-1 #
coedge $-1 $221 $216 $213 $332 forward $211 $-1 #
edge $-1 $335 12.265407490511016 $415 21.909302964487942 $331 $416 forward 7 unknown #
coedge $-1 $215 $214 $338 $417 reversed $78 $-1 #
edge $-1 $418 -92.187871944334233 $335 -78.304938976796549 $329 $419 forward 7 unknown #
vertex $-1 $217 $420 #
straight-curve $-1 36.450040498190198 -8.4653017496360441 10.137054621305673 0 -1 0 I I #
coedge $-1 $413 $218 $221 $342 reversed $327 $-1 #
coedge $-1 $218 $413 $333 $417 forward $327 $-1 #
vertex $-1 $219 $421 #
straight-curve $-1 46.093935972167117 -13.749615045011804 65.251995274986044 0 0 1 I I #
straight-curve $-1 -17.945140142252356 -13.749615045011804 66.464914435552615 0.69465836192734942 0 -0.71933980857756763 I I #
edge $-1 $415 -20.111591953532372 $222 -13.749615045011804 $337 $422 forward 7 unknown #
point $-1 46.093935972167117 -13.749615045011804 10.137054621305669 #
point $-1 36.450040498190191 -13.749615045011804 10.137054621305673 #
edge $-1 $423 1 $423 0 $225 $-1 forward 7 unknown #
vertex $-1 $226 $424 #
ellipse-curve $-1 39.614764723422546 -16.930603499272088 3.543419344959529 0.71933980857756763 0 0.69465836192734942 1.0419875428910241 0 -1.0790097128663514 1 I I #
point $-1 42.313975778069668 -16.930603499272088 4.0647717367574341 #
plane-surface $-1 46.093935972167117 0 0 -1 0 0 0 0 1 forward_v I I I I #
coedge $-1 $234 $232 $236 $354 reversed $141 $-1 #
edge $-1 $247 -10.137054621305669 $356 10.137054621305669 $246 $425 forward 7 unknown #
vertex $-1 $354 $426 #
straight-curve $-1 -46.093935972167117 -31.717135074033468 0 0 0 -1 I I #
edge $-1 $352 -31.717135074033468 $356 31.717135074033468 $350 $427 forward 7 unknown #
straight-curve $-1 0 -31.717135074033468 -10.137054621305669 -1 0 0 I I #
vertex $-1 $239 $428 #
straight-curve $-1 0 31.717135074033468 -10.137054621305669 1 0 0 I I #
point $-1 46.093935972167117 31.717135074033468 -10.137054621305669 #
point $-1 46.093935972167117 -31.717135074033468 -10.137054621305669 #
straight-curve $-1 -46.093935972167117 0 10.137054621305669 0 -1 0 I I #
point $-1 -46.093935972167117 31.717135074033468 10.137054621305669 #
point $-1 -46.093935972167117 -31.717135074033468 10.137054621305669 #
straight-curve $-1 46.093935972167117 -31.717135074033468 0 0 0 -1 I I #
straight-curve $-1 46.093935972167117 31.717135074033468 0 0 0 -1 I I #
loop $-1 $-1 $262 $256 #
plane-surface $-1 0 -31.717135074033468 0 0 1 0 0 0 1 forward_v I I I I #
coedge $-1 $273 $264 $260 $369 forward $257 $-1 #
edge $-1 $373 -18.759953317142006 $268 -7.1544101966409119 $259 $429 forward 7 unknown #
edge $-1 $269 7.1544101966409119 $372 18.759953317142006 $367 $430 forward 7 unknown #
coedge $-1 $271 $262 $276 $382 reversed $365 $-1 #
coedge $-1 $262 $271 $273 $380 reversed $365 $-1 #
vertex $-1 $380 $431 #
vertex $-1 $263 $432 #
straight-curve $-1 -39.560731111331194 -31.717135074033468 0 0 0 1 I I #
straight-curve $-1 -20.750063448599082 -20.111591953532372 -10.137054621305669 1 0 0 I I #
straight-curve $-1 -20.750063448599082 -20.111591953532372 10.137054621305669 -1 0 0 I I #
point $-1 -39.560731111331194 -20.111591953532372 10.137054621305669 #
point $-1 -39.560731111331194 -20.111591953532372 -10.137054621305669 #
straight-curve $-1 -43.439522683065135 -31.717135074033468 0 0 0 -1 I I #
edge $-1 $372 39.560731111331194 $274 43.439522683065135 $371 $433 forward 7 unknown #
point $-1 -43.439522683065135 -31.717135074033468 -10.137054621305669 #
edge $-1 $277 -43.439522683065135 $373 -39.560731111331194 $370 $434 forward 7 unknown #
point $-1 -43.439522683065135 -31.717135074033468 10.137054621305669 #
plane-surface $-1 0 31.717135074033468 0 0 -1 0 0 0 -1 forward_v I I I I #
coedge $-1 $284 $288 $293 $395 forward $176 $-1 #
edge $-1 $435 -18.759953317142006 $298 -7.1544101966409119 $284 $436 forward 7 unknown #
coedge $-1 $286 $285 $393 $437 reversed $103 $-1 #
edge $-1 $301 7.1544101966409119 $438 18.759953317142006 $300 $439 forward 7 unknown #
straight-curve $-1 -39.560731111331194 20.111591953532372 0 0 0 -1 I I #
straight-curve $-1 -43.439522683065135 12.95718175689146 -10.137054621305669 0 1 0 I I #
coedge $-1 $290 $300 $292 $394 forward $282 $-1 #
straight-curve $-1 -43.439522683065135 12.95718175689146 10.137054621305669 0 -1 0 I I #
coedge $-1 $293 $292 $387 $437 forward $294 $-1 #
edge $-1 $438 39.560731111331194 $296 43.439522683065135 $292 $440 forward 7 unknown #
edge $-1 $295 -43.439522683065135 $435 -39.560731111331194 $293 $441 forward 7 unknown #
point $-1 -43.439522683065135 31.717135074033468 -10.137054621305669 #
point $-1 -43.439522683065135 31.717135074033468 10.137054621305669 #
point $-1 -39.560731111331194 20.111591953532372 -10.137054621305669 #
point $-1 -39.560731111331194 20.111591953532372 10.137054621305669 #
coedge $-1 $402 $314 $308 $401 forward $305 $-1 #
edge $-1 $316 -31.944283918238781 $409 -21.957737574875022 $400 $442 forward 7 unknown #
coedge $-1 $309 $400 $311 $404 reversed $305 $-1 #
straight-curve $-1 -46.093935972167117 -13.749615045011804 32.094792196180691 0 0 -1 I I #
edge $-1 $312 13.749615045011804 $409 20.111591953532372 $402 $443 forward 7 unknown #
point $-1 -46.093935972167117 -13.749615045011804 10.137054621305669 #
straight-curve $-1 -46.093935972167117 -8.4653017496360441 0.15050827794190952 0 -1 0 I I #
point $-1 -46.093935972167117 -20.111591953532372 0.1505082779419098 #
point $-1 -46.093935972167117 -13.749615045011804 0.1505082779419098 #
vertex $-1 $401 $444 #
straight-curve $-1 -56.204171064888911 -20.111591953532372 10.137054621305669 1 0 0 I I #
vertex $-1 $323 $445 #
point $-1 -38.572777180531531 -16.930603499272088 4.6224290578258804 #
coedge $-1 $338 $337 $330 $414 forward $327 $-1 #
edge $-1 $415 55.114940653680378 $418 65.101486997044134 $413 $446 forward 7 unknown #
vertex $-1 $342 $447 #
straight-curve $-1 24.184633007679174 -20.111591953532372 10.137054621305666 1 0 0 I I #
edge $-1 $418 -11.646290203896328 $339 -5.2843132953757603 $338 $448 forward 7 unknown #
vertex $-1 $417 $449 #
straight-curve $-1 -17.945140142252356 -20.111591953532372 66.464914435552615 -0.69465836192734942 0 0.71933980857756763 I I #
point $-1 36.450040498190191 -20.111591953532372 10.137054621305673 #
point $-1 46.093935972167117 -13.749615045011804 0.1505082779419098 #
straight-curve $-1 46.093935972167117 0 10.137054621305669 0 1 0 I I #
vertex $-1 $345 $450 #
point $-1 40.656752266313568 -16.930603499272088 2.4644096320931776 #
straight-curve $-1 -46.093935972167117 31.717135074033468 0 0 0 -1 I I #
point $-1 -46.093935972167117 -31.717135074033468 -10.137054621305669 #
straight-curve $-1 -46.093935972167117 0 -10.137054621305669 0 1 0 I I #
point $-1 -46.093935972167117 31.717135074033468 -10.137054621305669 #
straight-curve $-1 -39.560731111331194 -12.95718175689146 10.137054621305669 0 1 0 I I #
straight-curve $-1 -39.560731111331194 -12.95718175689146 -10.137054621305669 0 -1 0 I I #
point $-1 -39.560731111331194 -31.717135074033468 -10.137054621305669 #
point $-1 -39.560731111331194 -31.717135074033468 10.137054621305669 #
straight-curve $-1 0 -31.717135074033468 -10.137054621305669 -1 0 0 I I #
straight-curve $-1 0 -31.717135074033468 10.137054621305669 1 0 0 I I #
vertex $-1 $437 $451 #
straight-curve $-1 -39.560731111331194 12.95718175689146 -10.137054621305669 0 -1 0 I I #
edge $-1 $438 -10.137054621305669 $435 10.137054621305669 $393 $452 forward 7 unknown #
vertex $-1 $394 $453 #
straight-curve $-1 -39.560731111331194 12.95718175689146 10.137054621305669 0 1 0 I I #
straight-curve $-1 0 31.717135074033468 10.137054621305669 -1 0 0 I I #
straight-curve $-1 0 31.717135074033468 -10.137054621305669 1 0 0 I I #
straight-curve $-1 -46.093935972167117 -20.111591953532372 32.094792196180691 0 0 1 I I #
straight-curve $-1 -46.093935972167117 0 10.137054621305669 0 -1 0 I I #
point $-1 -46.093935972167117 -20.111591953532372 10.137054621305669 #
point $-1 -38.535755010556201 -16.930603499272088 2.5014318020685047 #
straight-curve $-1 46.093935972167117 -20.111591953532372 65.251995274986044 0 0 -1 I I #
point $-1 46.093935972167117 -20.111591953532372 10.137054621305669 #
straight-curve $-1 46.093935972167117 -8.4653017496360441 0.1505082779419098 0 1 0 I I #
point $-1 46.093935972167117 -20.111591953532372 0.1505082779419098 #
point $-1 38.535755010556194 -16.930603499272088 2.5014318020685047 #
point $-1 -39.560731111331194 31.717135074033468 -10.137054621305669 #
straight-curve $-1 -39.560731111331194 31.717135074033468 0 0 0 -1 I I #
point $-1 -39.560731111331194 31.717135074033468 10.137054621305669 #
End-of-ACIS-data 