500 0 6 0           
7 Unknown 11 ACIS 5.0 NT 24 Fri Mar 26 17:59:17 1999 
-1 9.9999999999999995e-007 1e-010 
body $-1 $6 $-1 $7 #
body $-1 $8 $-1 $9 #
body $-1 $10 $-1 $11 #
body $-1 $12 $-1 $13 #
body $-1 $14 $-1 $15 #
body $-1 $16 $-1 $17 #
lump $-1 $-1 $18 $0 #
transform $-1 1 0 0 0 1 0 0 0 1 79.234595782341984 53.826181365918195 25.905790215611429 1 rotate no_reflect no_shear #
lump $-1 $-1 $19 $1 #
transform $-1 1 0 0 0 1 0 0 0 1 79.234595782341984 53.826181365918195 25.905790215611429 1 rotate no_reflect no_shear #
lump $-1 $-1 $20 $2 #
transform $-1 1 0 0 0 1 0 0 0 1 79.234595782341984 53.826181365918195 25.905790215611429 1 rotate no_reflect no_shear #
lump $-1 $-1 $21 $3 #
transform $-1 1 0 0 0 1 0 0 0 1 79.234595782341984 53.826181365918195 25.905790215611429 1 rotate no_reflect no_shear #
lump $-1 $-1 $22 $4 #
transform $-1 1 0 0 0 1 0 0 0 1 79.234595782341984 53.826181365918195 25.905790215611429 1 rotate no_reflect no_shear #
lump $-1 $-1 $23 $5 #
transform $-1 1 0 0 0 1 0 0 0 1 79.234595782341984 53.826181365918195 25.905790215611429 1 rotate no_reflect no_shear #
shell $-1 $-1 $-1 $24 $-1 $6 #
shell $-1 $-1 $-1 $25 $-1 $8 #
shell $-1 $-1 $-1 $26 $-1 $10 #
shell $-1 $-1 $-1 $27 $-1 $12 #
shell $-1 $-1 $-1 $28 $-1 $14 #
shell $-1 $-1 $-1 $29 $-1 $16 #
face $-1 $30 $31 $18 $-1 $32 forward single #
face $-1 $33 $34 $19 $-1 $35 reversed single #
face $-1 $36 $37 $20 $-1 $38 reversed single #
face $-1 $39 $40 $21 $-1 $41 forward single #
face $-1 $42 $43 $22 $-1 $44 forward single #
face $-1 $45 $46 $23 $-1 $47 forward single #
face $-1 $48 $49 $18 $-1 $50 reversed single #
loop $-1 $-1 $51 $24 #
plane-surface $-1 0 0 25.905790215611429 0 0 1 1 0 0 forward_v I I I I #
face $-1 $52 $53 $19 $-1 $54 reversed single #
loop $-1 $-1 $55 $25 #
plane-surface $-1 -54.658196829600726 -37.91049778876522 0 1 0 0 0 0 -1 forward_v I I I I #
face $-1 $56 $57 $20 $-1 $58 reversed single #
loop $-1 $-1 $59 $26 #
plane-surface $-1 -13.662088877902882 118.75398174786434 198.17258629598513 1 0 0 0 -0.80901700255871778 -0.5877852410284794 forward_v I I I I #
face $-1 $60 $61 $21 $-1 $62 forward single #
loop $-1 $63 $64 $27 #
cone-surface $-1 -9.5275842888758575 47.825717119259266 19.664347008440842 0 -0.80901700255871778 -0.5877852410284794 2 0 0 1 I I 0 1 2 forward I I I I #
face $-1 $65 $66 $22 $-1 $67 forward single #
loop $-1 $68 $69 $28 #
cone-surface $-1 -3.3258274053353318 47.825717119259266 19.664347008440842 0 -0.80901700255871778 -0.5877852410284794 2 0 0 1 I I 0 1 2 forward I I I I #
face $-1 $70 $71 $23 $-1 $72 forward single #
loop $-1 $73 $74 $29 #
cone-surface $-1 2.8759294782051938 47.825717119259266 19.664347008440842 0 -0.80901700255871778 -0.5877852410284794 2 0 0 1 I I 0 1 2 forward I I I I #
face $-1 $75 $76 $18 $-1 $77 reversed single #
loop $-1 $-1 $78 $30 #
plane-surface $-1 0 0 -25.905790215611429 0 0 1 1 0 0 forward_v I I I I #
coedge $-1 $79 $80 $81 $82 forward $31 $-1 #
face $-1 $83 $84 $19 $-1 $85 reversed single #
loop $-1 $-1 $86 $33 #
plane-surface $-1 -50.094897456893804 -21.994814211612244 0 0 -1 0 0 0 -1 forward_v I I I I #
coedge $-1 $87 $88 $89 $90 forward $34 $-1 #
face $-1 $91 $92 $20 $-1 $93 reversed single #
loop $-1 $-1 $94 $36 #
plane-surface $-1 -3.3258274053353318 -9.4502886096995269 105.02673433654908 0 0.80901700255871778 0.5877852410284794 1 0 0 forward_v I I I I #
coedge $-1 $95 $96 $97 $98 reversed $37 $-1 #
face $-1 $-1 $99 $21 $-1 $100 forward single #
loop $-1 $101 $102 $39 #
cone-surface $-1 -9.5275842888758575 43.912106319503955 16.820942407610001 0 -0.80901700255871778 -0.5877852410284794 1 0 0 1 I I -0.70710678118654746 0.70710678118654746 1 forward I I I I #
loop $-1 $-1 $103 $27 #
coedge $-1 $64 $64 $104 $105 reversed $40 $-1 #
face $-1 $-1 $106 $22 $-1 $107 forward single #
loop $-1 $108 $109 $42 #
cone-surface $-1 -3.3258274053353318 43.912106319503955 16.820942407610001 0 -0.80901700255871778 -0.5877852410284794 1 0 0 1 I I -0.70710678118654746 0.70710678118654746 1 forward I I I I #
loop $-1 $-1 $110 $28 #
coedge $-1 $69 $69 $111 $112 reversed $43 $-1 #
face $-1 $-1 $113 $23 $-1 $114 forward single #
loop $-1 $115 $116 $45 #
cone-surface $-1 2.8759294782051938 43.912106319503955 16.820942407610001 0 -0.80901700255871778 -0.5877852410284794 1 0 0 1 I I -0.70710678118654746 0.70710678118654746 1 forward I I I I #
loop $-1 $-1 $117 $29 #
coedge $-1 $74 $74 $118 $119 reversed $46 $-1 #
face $-1 $120 $121 $18 $-1 $122 reversed single #
loop $-1 $-1 $123 $48 #
plane-surface $-1 0 -53.826181365918195 0 0 1 0 0 0 1 forward_v I I I I #
coedge $-1 $124 $125 $126 $127 forward $49 $-1 #
coedge $-1 $128 $51 $129 $130 forward $31 $-1 #
coedge $-1 $51 $128 $131 $132 forward $31 $-1 #
coedge $-1 $133 $134 $51 $82 reversed $135 $-1 #
edge $-1 $136 -53.826181365918195 $137 53.826181365918195 $81 $138 forward 7 unknown #
face $-1 $139 $140 $19 $-1 $141 forward single #
loop $-1 $-1 $142 $52 #
plane-surface $-1 -45.531598084186882 -37.91049778876522 0 -1 0 0 0 0 1 forward_v I I I I #
coedge $-1 $143 $144 $145 $146 forward $53 $-1 #
coedge $-1 $147 $55 $148 $149 reversed $34 $-1 #
coedge $-1 $55 $147 $150 $151 reversed $34 $-1 #
coedge $-1 $144 $143 $55 $90 reversed $53 $-1 #
edge $-1 $152 -25.905790215611429 $153 25.905790215611429 $89 $154 forward 7 unknown #
face $-1 $155 $156 $20 $-1 $157 reversed single #
loop $-1 $-1 $158 $56 #
plane-surface $-1 7.0104340672322181 118.75398174786434 198.17258629598513 -1 0 0 0 0.80901700255871778 0.5877852410284794 forward_v I I I I #
coedge $-1 $159 $160 $161 $162 reversed $57 $-1 #
coedge $-1 $96 $59 $163 $164 reversed $37 $-1 #
coedge $-1 $59 $95 $159 $165 reversed $37 $-1 #
coedge $-1 $161 $166 $59 $98 forward $167 $-1 #
edge $-1 $168 5.5508095080139768 $169 11.342550406938642 $97 $170 forward 7 unknown #
loop $-1 $-1 $104 $60 #
plane-surface $-1 -3.3258274053353318 -9.4502886096995269 105.02673433654908 0 0.80901700255871778 0.5877852410284794 1 0 0 forward_v I I I I #
loop $-1 $-1 $171 $39 #
coedge $-1 $102 $102 $103 $172 reversed $61 $-1 #
coedge $-1 $103 $103 $102 $172 forward $63 $-1 #
coedge $-1 $104 $104 $64 $105 forward $99 $-1 #
edge $-1 $173 -6.5112978031266002e-016 $173 6.2831853071795996 $104 $174 forward 7 unknown #
loop $-1 $-1 $111 $65 #
plane-surface $-1 -3.3258274053353318 -9.4502886096995269 105.02673433654908 0 0.80901700255871778 0.5877852410284794 1 0 0 forward_v I I I I #
loop $-1 $-1 $175 $42 #
coedge $-1 $109 $109 $110 $176 reversed $66 $-1 #
coedge $-1 $110 $110 $109 $176 forward $68 $-1 #
coedge $-1 $111 $111 $69 $112 forward $106 $-1 #
edge $-1 $177 -6.5112978031266002e-016 $177 6.2831853071795996 $111 $178 forward 7 unknown #
loop $-1 $-1 $118 $70 #
plane-surface $-1 -3.3258274053353318 -9.4502886096995269 105.02673433654908 0 0.80901700255871778 0.5877852410284794 1 0 0 forward_v I I I I #
loop $-1 $-1 $179 $45 #
coedge $-1 $116 $116 $117 $180 reversed $71 $-1 #
coedge $-1 $117 $117 $116 $180 forward $73 $-1 #
coedge $-1 $118 $118 $74 $119 forward $113 $-1 #
edge $-1 $181 -6.5112978031266002e-016 $181 6.2831853071795996 $118 $182 forward 7 unknown #
face $-1 $183 $184 $18 $-1 $185 reversed single #
loop $-1 $-1 $186 $75 #
plane-surface $-1 -79.234595782341984 0 0 1 0 0 0 0 -1 forward_v I I I I #
coedge $-1 $187 $131 $188 $189 forward $76 $-1 #
coedge $-1 $190 $78 $187 $191 forward $49 $-1 #
coedge $-1 $78 $190 $192 $193 forward $49 $-1 #
coedge $-1 $134 $133 $78 $127 reversed $135 $-1 #
edge $-1 $194 -53.826181365918195 $195 53.826181365918195 $126 $196 forward 7 unknown #
coedge $-1 $80 $79 $197 $198 forward $31 $-1 #
coedge $-1 $199 $200 $79 $130 reversed $184 $-1 #
edge $-1 $137 -79.234595782341984 $201 79.234595782341984 $129 $202 forward 7 unknown #
coedge $-1 $123 $203 $80 $132 reversed $76 $-1 #
edge $-1 $204 -79.234595782341984 $136 79.234595782341984 $131 $205 forward 7 unknown #
coedge $-1 $126 $81 $203 $206 forward $135 $-1 #
coedge $-1 $81 $126 $199 $207 reversed $135 $-1 #
loop $-1 $-1 $133 $183 #
vertex $-1 $82 $208 #
vertex $-1 $82 $209 #
straight-curve $-1 79.234595782341984 0 25.905790215611429 0 1 0 I I #
face $-1 $210 $211 $19 $-1 $212 reversed single #
loop $-1 $-1 $213 $83 #
plane-surface $-1 0 0 25.905790215611429 0 0 1 1 0 0 forward_v I I I I #
coedge $-1 $214 $215 $216 $217 reversed $84 $-1 #
coedge $-1 $89 $86 $218 $219 reversed $53 $-1 #
coedge $-1 $86 $89 $220 $221 reversed $53 $-1 #
coedge $-1 $215 $214 $86 $146 reversed $84 $-1 #
edge $-1 $222 -25.905790215611429 $223 25.905790215611429 $145 $224 forward 7 unknown #
coedge $-1 $88 $87 $225 $226 reversed $34 $-1 #
coedge $-1 $218 $227 $87 $149 forward $211 $-1 #
edge $-1 $228 -34.870932471535582 $153 -3.0395653172296342 $148 $229 forward 7 unknown #
coedge $-1 $230 $220 $88 $151 forward $140 $-1 #
edge $-1 $152 3.0395653172296342 $231 34.870932471535582 $150 $232 forward 7 unknown #
vertex $-1 $151 $233 #
vertex $-1 $149 $234 #
straight-curve $-1 -54.658196829600726 -21.994814211612244 0 0 0 -1 I I #
face $-1 $-1 $167 $20 $-1 $235 forward single #
loop $-1 $-1 $236 $91 #
plane-surface $-1 0 53.826181365918195 0 0 -1 0 0 0 -1 forward_v I I I I #
coedge $-1 $237 $238 $239 $240 reversed $92 $-1 #
coedge $-1 $241 $94 $96 $165 forward $57 $-1 #
coedge $-1 $94 $241 $237 $242 forward $57 $-1 #
coedge $-1 $239 $97 $94 $162 forward $167 $-1 #
edge $-1 $169 -11.999175175235216 $243 8.673347769899884 $161 $244 forward 7 unknown #
coedge $-1 $245 $246 $95 $164 forward $156 $-1 #
edge $-1 $247 -81.152150627117535 $168 -73.180502932381131 $163 $248 forward 7 unknown #
edge $-1 $169 97.798864388137645 $247 107.65236273183635 $96 $249 forward 7 unknown #
coedge $-1 $97 $239 $245 $250 forward $167 $-1 #
loop $-1 $-1 $239 $155 #
vertex $-1 $164 $251 #
vertex $-1 $98 $252 #
straight-curve $-1 -13.662088877902882 59.376990873932172 25.905790215611432 0 -1 0 I I #
coedge $-1 $171 $171 $-1 $253 reversed $101 $-1 #
edge $-1 $254 0 $254 6.2831853071796004 $102 $255 forward 7 unknown #
vertex $-1 $105 $256 #
ellipse-curve $-1 -9.5275842888758575 50.930310916455873 21.919966368243212 0 0.80901700255871778 0.5877852410284794 2 0 0 1 I I #
coedge $-1 $175 $175 $-1 $257 reversed $108 $-1 #
edge $-1 $258 0 $258 6.2831853071796004 $109 $259 forward 7 unknown #
vertex $-1 $112 $260 #
ellipse-curve $-1 -3.3258274053353318 50.930310916455873 21.919966368243212 0 0.80901700255871778 0.5877852410284794 2 0 0 1 I I #
coedge $-1 $179 $179 $-1 $261 reversed $115 $-1 #
edge $-1 $262 0 $262 6.2831853071796004 $116 $263 forward 7 unknown #
vertex $-1 $119 $264 #
ellipse-curve $-1 2.8759294782051938 50.930310916455873 21.919966368243212 0 0.80901700255871778 0.5877852410284794 2 0 0 1 I I #
face $-1 $-1 $135 $18 $-1 $265 reversed single #
loop $-1 $-1 $199 $120 #
plane-surface $-1 0 53.826181365918195 0 0 -1 0 0 0 -1 forward_v I I I I #
coedge $-1 $266 $197 $200 $267 forward $121 $-1 #
coedge $-1 $203 $123 $124 $191 reversed $76 $-1 #
coedge $-1 $197 $266 $123 $189 reversed $121 $-1 #
edge $-1 $204 -25.905790215611429 $268 25.905790215611429 $188 $269 forward 7 unknown #
coedge $-1 $125 $124 $266 $270 forward $49 $-1 #
edge $-1 $195 -79.234595782341984 $268 79.234595782341984 $187 $271 forward 7 unknown #
coedge $-1 $200 $199 $125 $193 reversed $184 $-1 #
edge $-1 $272 -79.234595782341984 $194 79.234595782341984 $192 $273 forward 7 unknown #
vertex $-1 $127 $274 #
vertex $-1 $206 $275 #
straight-curve $-1 79.234595782341984 0 -25.905790215611429 0 -1 0 I I #
coedge $-1 $186 $188 $128 $198 reversed $121 $-1 #
edge $-1 $201 -53.826181365918195 $204 53.826181365918195 $197 $276 forward 7 unknown #
coedge $-1 $192 $129 $134 $207 forward $184 $-1 #
coedge $-1 $129 $192 $186 $267 reversed $184 $-1 #
vertex $-1 $130 $277 #
straight-curve $-1 0 53.826181365918195 25.905790215611429 -1 0 0 I I #
coedge $-1 $131 $187 $133 $206 reversed $76 $-1 #
vertex $-1 $198 $278 #
straight-curve $-1 0 -53.826181365918195 25.905790215611429 1 0 0 I I #
edge $-1 $136 -25.905790215611429 $195 25.905790215611429 $133 $279 forward 7 unknown #
edge $-1 $137 -25.905790215611429 $194 25.905790215611429 $134 $280 forward 7 unknown #
point $-1 79.234595782341984 -53.826181365918195 25.905790215611429 #
point $-1 79.234595782341984 53.826181365918195 25.905790215611429 #
face $-1 $-1 $281 $19 $-1 $282 reversed single #
loop $-1 $-1 $283 $139 #
plane-surface $-1 0 0 -25.905790215611429 0 0 1 1 0 0 forward_v I I I I #
coedge $-1 $220 $230 $215 $284 forward $140 $-1 #
coedge $-1 $145 $142 $283 $285 reversed $84 $-1 #
coedge $-1 $142 $145 $213 $284 reversed $84 $-1 #
coedge $-1 $286 $287 $142 $217 forward $281 $-1 #
edge $-1 $288 -25.905790215611429 $289 25.905790215611429 $216 $290 forward 7 unknown #
coedge $-1 $283 $148 $143 $219 forward $211 $-1 #
edge $-1 $153 -29.610748101153824 $223 -20.48414935573998 $218 $291 forward 7 unknown #
coedge $-1 $150 $213 $144 $221 forward $140 $-1 #
edge $-1 $222 20.48414935573998 $152 29.610748101153824 $220 $292 forward 7 unknown #
vertex $-1 $221 $293 #
vertex $-1 $219 $294 #
straight-curve $-1 -45.531598084186882 -21.994814211612244 0 0 0 -1 I I #
coedge $-1 $287 $286 $147 $226 forward $281 $-1 #
edge $-1 $231 -25.905790215611429 $228 25.905790215611429 $225 $295 forward 7 unknown #
coedge $-1 $148 $283 $287 $296 forward $211 $-1 #
vertex $-1 $149 $297 #
straight-curve $-1 -54.658196829600726 -18.95524889438261 -25.905790215611429 0 1 0 I I #
coedge $-1 $213 $150 $286 $298 forward $140 $-1 #
vertex $-1 $298 $299 #
straight-curve $-1 -54.658196829600726 -18.95524889438261 25.905790215611429 0 -1 0 I I #
point $-1 -54.658196829600726 -21.994814211612244 25.905790215611429 #
point $-1 -54.658196829600726 -21.994814211612244 -25.905790215611429 #
plane-surface $-1 0 0 25.905790215611429 0 0 1 1 0 0 forward_v I I I I #
coedge $-1 $246 $245 $238 $300 forward $156 $-1 #
coedge $-1 $238 $158 $160 $242 reversed $92 $-1 #
coedge $-1 $158 $237 $236 $300 reversed $92 $-1 #
coedge $-1 $166 $161 $158 $240 forward $167 $-1 #
edge $-1 $243 -11.342550406938642 $301 -5.5508095080139768 $239 $302 forward 7 unknown #
coedge $-1 $160 $159 $246 $303 reversed $57 $-1 #
edge $-1 $304 -107.65236273183635 $243 -97.798864388137645 $237 $305 forward 7 unknown #
vertex $-1 $162 $306 #
straight-curve $-1 -1.6629137026676659 48.03444046699353 25.905790215611432 1 0 0 I I #
coedge $-1 $236 $163 $166 $250 reversed $156 $-1 #
coedge $-1 $163 $236 $241 $303 forward $156 $-1 #
vertex $-1 $164 $307 #
straight-curve $-1 -13.662088877902882 53.826181365918195 99.086293147992563 0 0 1 I I #
straight-curve $-1 -13.662088877902882 -9.4502886096995269 105.02673433654908 0 0.5877852410284794 -0.80901700255871778 I I #
edge $-1 $301 -7.0104340672322181 $168 13.662088877902882 $245 $308 forward 7 unknown #
point $-1 -13.662088877902882 53.826181365918195 25.905790215611429 #
point $-1 -13.662088877902882 48.03444046699353 25.905790215611432 #
edge $-1 $309 1 $309 0 $171 $-1 forward 7 unknown #
vertex $-1 $172 $310 #
ellipse-curve $-1 -9.5275842888758575 44.721123322062674 17.408727648638482 0 0.80901700255871778 0.5877852410284794 2 0 0 1 I I #
point $-1 -7.5275842888758575 50.930310916455866 21.919966368243209 #
edge $-1 $311 1 $311 0 $175 $-1 forward 7 unknown #
vertex $-1 $176 $312 #
ellipse-curve $-1 -3.3258274053353318 44.721123322062674 17.408727648638482 0 0.80901700255871778 0.5877852410284794 2 0 0 1 I I #
point $-1 -1.3258274053353318 50.930310916455866 21.919966368243209 #
edge $-1 $313 1 $313 0 $179 $-1 forward 7 unknown #
vertex $-1 $180 $314 #
ellipse-curve $-1 2.8759294782051938 44.721123322062674 17.408727648638482 0 0.80901700255871778 0.5877852410284794 2 0 0 1 I I #
point $-1 4.8759294782051938 50.930310916455866 21.919966368243209 #
plane-surface $-1 79.234595782341984 0 0 -1 0 0 0 0 1 forward_v I I I I #
coedge $-1 $188 $186 $190 $270 reversed $121 $-1 #
edge $-1 $201 -25.905790215611429 $272 25.905790215611429 $200 $315 forward 7 unknown #
vertex $-1 $270 $316 #
straight-curve $-1 -79.234595782341984 -53.826181365918195 0 0 0 -1 I I #
edge $-1 $268 -53.826181365918195 $272 53.826181365918195 $266 $317 forward 7 unknown #
straight-curve $-1 0 -53.826181365918195 -25.905790215611429 -1 0 0 I I #
vertex $-1 $193 $318 #
straight-curve $-1 0 53.826181365918195 -25.905790215611429 1 0 0 I I #
point $-1 79.234595782341984 53.826181365918195 -25.905790215611429 #
point $-1 79.234595782341984 -53.826181365918195 -25.905790215611429 #
straight-curve $-1 -79.234595782341984 0 25.905790215611429 0 -1 0 I I #
point $-1 -79.234595782341984 53.826181365918195 25.905790215611429 #
point $-1 -79.234595782341984 -53.826181365918195 25.905790215611429 #
straight-curve $-1 79.234595782341984 -53.826181365918195 0 0 0 -1 I I #
straight-curve $-1 79.234595782341984 53.826181365918195 0 0 0 -1 I I #
loop $-1 $-1 $216 $210 #
plane-surface $-1 0 -53.826181365918195 0 0 1 0 0 0 1 forward_v I I I I #
coedge $-1 $227 $218 $214 $285 forward $211 $-1 #
edge $-1 $289 -34.870932471535582 $222 -3.0395653172296342 $213 $319 forward 7 unknown #
edge $-1 $223 3.0395653172296342 $288 34.870932471535582 $283 $320 forward 7 unknown #
coedge $-1 $225 $216 $230 $298 reversed $281 $-1 #
coedge $-1 $216 $225 $227 $296 reversed $281 $-1 #
vertex $-1 $296 $321 #
vertex $-1 $217 $322 #
straight-curve $-1 -45.531598084186882 -53.826181365918195 0 0 0 1 I I #
straight-curve $-1 -25.047448728446902 -21.994814211612244 -25.905790215611429 1 0 0 I I #
straight-curve $-1 -25.047448728446902 -21.994814211612244 25.905790215611429 -1 0 0 I I #
point $-1 -45.531598084186882 -21.994814211612244 25.905790215611429 #
point $-1 -45.531598084186882 -21.994814211612244 -25.905790215611429 #
straight-curve $-1 -54.658196829600726 -53.826181365918195 0 0 0 -1 I I #
edge $-1 $288 45.531598084186882 $228 54.658196829600726 $287 $323 forward 7 unknown #
point $-1 -54.658196829600726 -53.826181365918195 -25.905790215611429 #
edge $-1 $231 -54.658196829600726 $289 -45.531598084186882 $286 $324 forward 7 unknown #
point $-1 -54.658196829600726 -53.826181365918195 25.905790215611429 #
edge $-1 $301 73.180502932381131 $304 81.152150627117535 $236 $325 forward 7 unknown #
vertex $-1 $250 $326 #
straight-curve $-1 7.0104340672322181 59.376990873932172 25.905790215611432 0 1 0 I I #
edge $-1 $304 -8.673347769899884 $247 11.999175175235216 $246 $327 forward 7 unknown #
vertex $-1 $303 $328 #
straight-curve $-1 7.0104340672322181 -9.4502886096995269 105.02673433654908 0 -0.5877852410284794 0.80901700255871778 I I #
point $-1 7.0104340672322181 48.03444046699353 25.905790215611432 #
point $-1 -13.662088877902882 53.826181365918195 17.934142520875028 #
straight-curve $-1 0 53.826181365918195 25.905790215611429 -1 0 0 I I #
vertex $-1 $253 $329 #
point $-1 -7.5275842888758575 44.721123322062674 17.408727648638482 #
vertex $-1 $257 $330 #
point $-1 -1.3258274053353318 44.721123322062674 17.408727648638482 #
vertex $-1 $261 $331 #
point $-1 4.8759294782051938 44.721123322062674 17.408727648638482 #
straight-curve $-1 -79.234595782341984 53.826181365918195 0 0 0 -1 I I #
point $-1 -79.234595782341984 -53.826181365918195 -25.905790215611429 #
straight-curve $-1 -79.234595782341984 0 -25.905790215611429 0 1 0 I I #
point $-1 -79.234595782341984 53.826181365918195 -25.905790215611429 #
straight-curve $-1 -45.531598084186882 -18.95524889438261 25.905790215611429 0 1 0 I I #
straight-curve $-1 -45.531598084186882 -18.95524889438261 -25.905790215611429 0 -1 0 I I #
point $-1 -45.531598084186882 -53.826181365918195 -25.905790215611429 #
point $-1 -45.531598084186882 -53.826181365918195 25.905790215611429 #
straight-curve $-1 0 -53.826181365918195 -25.905790215611429 -1 0 0 I I #
straight-curve $-1 0 -53.826181365918195 25.905790215611429 1 0 0 I I #
straight-curve $-1 7.0104340672322181 53.826181365918195 99.086293147992563 0 0 -1 I I #
point $-1 7.0104340672322181 53.826181365918195 25.905790215611429 #
straight-curve $-1 -1.6629137026676659 53.826181365918188 17.934142520875028 -1 0 0 I I #
point $-1 7.0104340672322181 53.826181365918195 17.934142520875028 #
point $-1 -9.5275842888758575 43.103089316945237 16.23315716658152 #
point $-1 -3.3258274053353318 43.103089316945237 16.23315716658152 #
point $-1 2.8759294782051938 43.103089316945237 16.23315716658152 #
End-of-ACIS-data 