500 0 4 0           
7 Unknown 11 ACIS 5.0 NT 24 Thu Mar 25 21:28:47 1999 
-1 9.9999999999999995e-007 1e-010 
body $-1 $4 $-1 $5 #
body $-1 $6 $-1 $7 #
body $-1 $8 $-1 $9 #
body $-1 $10 $-1 $11 #
lump $-1 $-1 $12 $0 #
transform $-1 1 0 0 0 1 0 0 0 1 42.574541459395121 24.81243288776772 6.762139521096401 1 rotate no_reflect no_shear #
lump $-1 $-1 $13 $1 #
transform $-1 1 0 0 0 1 0 0 0 1 42.574541459395121 24.81243288776772 6.762139521096401 1 rotate no_reflect no_shear #
lump $-1 $-1 $14 $2 #
transform $-1 1 0 0 0 1 0 0 0 1 42.574541459395121 24.81243288776772 6.762139521096401 1 rotate no_reflect no_shear #
lump $-1 $-1 $15 $3 #
transform $-1 1 0 0 0 1 0 0 0 1 42.574541459395121 24.81243288776772 6.762139521096401 1 rotate no_reflect no_shear #
shell $-1 $-1 $-1 $16 $-1 $4 #
shell $-1 $-1 $-1 $17 $-1 $6 #
shell $-1 $-1 $-1 $18 $-1 $8 #
shell $-1 $-1 $-1 $19 $-1 $10 #
face $-1 $20 $21 $12 $-1 $22 forward single #
face $-1 $23 $24 $13 $-1 $25 reversed single #
face $-1 $26 $27 $14 $-1 $28 reversed single #
face $-1 $29 $30 $15 $-1 $31 forward single #
face $-1 $32 $33 $12 $-1 $34 reversed single #
loop $-1 $-1 $35 $16 #
plane-surface $-1 0 0 6.762139521096401 0 0 1 1 0 0 forward_v I I I I #
face $-1 $36 $37 $13 $-1 $38 reversed single #
loop $-1 $-1 $39 $17 #
plane-surface $-1 -39.973837086192837 -22.007437897188076 0 1 0 0 0 0 -1 forward_v I I I I #
face $-1 $40 $41 $14 $-1 $42 reversed single #
loop $-1 $-1 $43 $18 #
plane-surface $-1 8.4921690815696849 48.264816121362067 98.134794766539017 1 0 0 0 -0.69465837861970381 -0.71933979245794832 forward_v I I I I #
face $-1 $44 $45 $15 $-1 $46 forward single #
loop $-1 $47 $48 $19 #
cone-surface $-1 18.667207737005612 21.532053540604881 3.5225386570551054 0 -0.69465837861970381 -0.71933979245794832 1 0 0 1 I I 0 1 1 forward I I I I #
face $-1 $49 $50 $12 $-1 $51 reversed single #
loop $-1 $-1 $52 $20 #
plane-surface $-1 0 0 -6.762139521096401 0 0 1 1 0 0 forward_v I I I I #
coedge $-1 $53 $54 $55 $56 forward $21 $-1 #
face $-1 $57 $58 $13 $-1 $59 reversed single #
loop $-1 $-1 $60 $23 #
plane-surface $-1 -38.414853029543814 -19.202442906608432 0 0 -1 0 0 0 -1 forward_v I I I I #
coedge $-1 $61 $62 $63 $64 forward $24 $-1 #
face $-1 $65 $66 $14 $-1 $67 reversed single #
loop $-1 $-1 $68 $26 #
plane-surface $-1 18.667207737005612 -10.884707759959483 36.883671131751811 0 0.69465837861970381 0.71933979245794832 1 0 0 forward_v I I I I #
coedge $-1 $69 $70 $71 $72 reversed $27 $-1 #
face $-1 $-1 $73 $15 $-1 $74 forward single #
loop $-1 $75 $76 $29 #
cone-surface $-1 18.667207737005612 20.157036141755896 2.0986664908840709 0 -0.69465837861970381 -0.71933979245794832 0.5 0 0 1 I I -0.70710678118654746 0.70710678118654746 0.5 forward I I I I #
loop $-1 $-1 $77 $19 #
coedge $-1 $48 $48 $78 $79 reversed $30 $-1 #
face $-1 $80 $81 $12 $-1 $82 reversed single #
loop $-1 $-1 $83 $32 #
plane-surface $-1 0 -24.81243288776772 0 0 1 0 0 0 1 forward_v I I I I #
coedge $-1 $84 $85 $86 $87 forward $33 $-1 #
coedge $-1 $88 $35 $89 $90 forward $21 $-1 #
coedge $-1 $35 $88 $91 $92 forward $21 $-1 #
coedge $-1 $93 $94 $35 $56 reversed $95 $-1 #
edge $-1 $96 -24.81243288776772 $97 24.81243288776772 $55 $98 forward 7 unknown #
face $-1 $99 $100 $13 $-1 $101 forward single #
loop $-1 $-1 $102 $36 #
plane-surface $-1 -36.85586897289479 -22.007437897188076 0 -1 0 0 0 0 1 forward_v I I I I #
coedge $-1 $103 $104 $105 $106 forward $37 $-1 #
coedge $-1 $107 $39 $108 $109 reversed $24 $-1 #
coedge $-1 $39 $107 $110 $111 reversed $24 $-1 #
coedge $-1 $104 $103 $39 $64 reversed $37 $-1 #
edge $-1 $112 -6.762139521096401 $113 6.762139521096401 $63 $114 forward 7 unknown #
face $-1 $115 $116 $14 $-1 $117 reversed single #
loop $-1 $-1 $118 $40 #
plane-surface $-1 28.842246392441538 48.264816121362067 98.134794766539017 -1 0 0 0 0.69465837861970381 0.71933979245794832 forward_v I I I I #
coedge $-1 $119 $120 $121 $122 reversed $41 $-1 #
coedge $-1 $70 $43 $123 $124 reversed $27 $-1 #
coedge $-1 $43 $69 $119 $125 reversed $27 $-1 #
coedge $-1 $121 $126 $43 $72 forward $127 $-1 #
edge $-1 $128 -0.68002482708668666 $129 3.8253574481607089 $71 $130 forward 7 unknown #
loop $-1 $-1 $78 $44 #
plane-surface $-1 18.667207737005612 -10.884707759959483 36.883671131751811 0 0.69465837861970381 0.71933979245794832 1 0 0 forward_v I I I I #
loop $-1 $-1 $131 $29 #
coedge $-1 $76 $76 $77 $132 reversed $45 $-1 #
coedge $-1 $77 $77 $76 $132 forward $47 $-1 #
coedge $-1 $78 $78 $48 $79 forward $73 $-1 #
edge $-1 $133 -1.4093331550183337e-015 $133 6.2831853071795987 $78 $134 forward 7 unknown #
face $-1 $135 $136 $12 $-1 $137 reversed single #
loop $-1 $-1 $138 $49 #
plane-surface $-1 -42.574541459395121 0 0 1 0 0 0 0 -1 forward_v I I I I #
coedge $-1 $139 $91 $140 $141 forward $50 $-1 #
coedge $-1 $142 $52 $139 $143 forward $33 $-1 #
coedge $-1 $52 $142 $144 $145 forward $33 $-1 #
coedge $-1 $94 $93 $52 $87 reversed $95 $-1 #
edge $-1 $146 -24.81243288776772 $147 24.81243288776772 $86 $148 forward 7 unknown #
coedge $-1 $54 $53 $149 $150 forward $21 $-1 #
coedge $-1 $151 $152 $53 $90 reversed $136 $-1 #
edge $-1 $97 -42.574541459395121 $153 42.574541459395121 $89 $154 forward 7 unknown #
coedge $-1 $83 $155 $54 $92 reversed $50 $-1 #
edge $-1 $156 -42.574541459395121 $96 42.574541459395121 $91 $157 forward 7 unknown #
coedge $-1 $86 $55 $155 $158 forward $95 $-1 #
coedge $-1 $55 $86 $151 $159 reversed $95 $-1 #
loop $-1 $-1 $93 $135 #
vertex $-1 $56 $160 #
vertex $-1 $56 $161 #
straight-curve $-1 42.574541459395121 0 6.762139521096401 0 1 0 I I #
face $-1 $162 $163 $13 $-1 $164 reversed single #
loop $-1 $-1 $165 $57 #
plane-surface $-1 0 0 6.762139521096401 0 0 1 1 0 0 forward_v I I I I #
coedge $-1 $166 $167 $168 $169 reversed $58 $-1 #
coedge $-1 $63 $60 $170 $171 reversed $37 $-1 #
coedge $-1 $60 $63 $172 $173 reversed $37 $-1 #
coedge $-1 $167 $166 $60 $106 reversed $58 $-1 #
edge $-1 $174 -6.762139521096401 $175 6.762139521096401 $105 $176 forward 7 unknown #
coedge $-1 $62 $61 $177 $178 reversed $24 $-1 #
coedge $-1 $170 $179 $61 $109 forward $163 $-1 #
edge $-1 $180 -13.808713939173682 $113 -8.1987239580143942 $108 $181 forward 7 unknown #
coedge $-1 $182 $172 $62 $111 forward $100 $-1 #
edge $-1 $112 8.1987239580143942 $183 13.808713939173682 $110 $184 forward 7 unknown #
vertex $-1 $111 $185 #
vertex $-1 $109 $186 #
straight-curve $-1 -39.973837086192837 -19.202442906608432 0 0 0 -1 I I #
face $-1 $-1 $127 $14 $-1 $187 forward single #
loop $-1 $-1 $188 $65 #
plane-surface $-1 0 24.81243288776772 0 0 -1 0 0 0 -1 forward_v I I I I #
coedge $-1 $189 $190 $191 $192 reversed $66 $-1 #
coedge $-1 $193 $68 $70 $125 forward $41 $-1 #
coedge $-1 $68 $193 $189 $194 forward $41 $-1 #
coedge $-1 $191 $71 $68 $122 forward $127 $-1 #
edge $-1 $129 -0.8414347869331209 $195 19.508642523938732 $121 $196 forward 7 unknown #
coedge $-1 $197 $198 $69 $124 forward $116 $-1 #
edge $-1 $199 -46.65605505037157 $128 -42.305257862173107 $123 $200 forward 7 unknown #
edge $-1 $129 43.361647304258142 $199 49.624865775535426 $70 $201 forward 7 unknown #
coedge $-1 $71 $191 $197 $202 forward $127 $-1 #
loop $-1 $-1 $191 $115 #
vertex $-1 $124 $203 #
vertex $-1 $72 $204 #
straight-curve $-1 8.4921690815696849 24.132408060681033 6.762139521096401 0 -1 0 I I #
coedge $-1 $131 $131 $-1 $205 reversed $75 $-1 #
edge $-1 $206 0 $206 6.2831853071796004 $76 $207 forward 7 unknown #
vertex $-1 $79 $208 #
ellipse-curve $-1 18.667207737005612 22.559741750144021 4.5867409269971713 0 0.69465837861970381 0.71933979245794832 1 0 0 1 I I #
face $-1 $-1 $95 $12 $-1 $209 reversed single #
loop $-1 $-1 $151 $80 #
plane-surface $-1 0 24.81243288776772 0 0 -1 0 0 0 -1 forward_v I I I I #
coedge $-1 $210 $149 $152 $211 forward $81 $-1 #
coedge $-1 $155 $83 $84 $143 reversed $50 $-1 #
coedge $-1 $149 $210 $83 $141 reversed $81 $-1 #
edge $-1 $156 -6.762139521096401 $212 6.762139521096401 $140 $213 forward 7 unknown #
coedge $-1 $85 $84 $210 $214 forward $33 $-1 #
edge $-1 $147 -42.574541459395121 $212 42.574541459395121 $139 $215 forward 7 unknown #
coedge $-1 $152 $151 $85 $145 reversed $136 $-1 #
edge $-1 $216 -42.574541459395121 $146 42.574541459395121 $144 $217 forward 7 unknown #
vertex $-1 $87 $218 #
vertex $-1 $158 $219 #
straight-curve $-1 42.574541459395121 0 -6.762139521096401 0 -1 0 I I #
coedge $-1 $138 $140 $88 $150 reversed $81 $-1 #
edge $-1 $153 -24.81243288776772 $156 24.81243288776772 $149 $220 forward 7 unknown #
coedge $-1 $144 $89 $94 $159 forward $136 $-1 #
coedge $-1 $89 $144 $138 $211 reversed $136 $-1 #
vertex $-1 $90 $221 #
straight-curve $-1 0 24.81243288776772 6.762139521096401 -1 0 0 I I #
coedge $-1 $91 $139 $93 $158 reversed $50 $-1 #
vertex $-1 $150 $222 #
straight-curve $-1 0 -24.81243288776772 6.762139521096401 1 0 0 I I #
edge $-1 $96 -6.762139521096401 $147 6.762139521096401 $93 $223 forward 7 unknown #
edge $-1 $97 -6.762139521096401 $146 6.762139521096401 $94 $224 forward 7 unknown #
point $-1 42.574541459395121 -24.81243288776772 6.762139521096401 #
point $-1 42.574541459395121 24.81243288776772 6.762139521096401 #
face $-1 $-1 $225 $13 $-1 $226 reversed single #
loop $-1 $-1 $227 $99 #
plane-surface $-1 0 0 -6.762139521096401 0 0 1 1 0 0 forward_v I I I I #
coedge $-1 $172 $182 $167 $228 forward $100 $-1 #
coedge $-1 $105 $102 $227 $229 reversed $58 $-1 #
coedge $-1 $102 $105 $165 $228 reversed $58 $-1 #
coedge $-1 $230 $231 $102 $169 forward $225 $-1 #
edge $-1 $232 -6.762139521096401 $233 6.762139521096401 $168 $234 forward 7 unknown #
coedge $-1 $227 $108 $103 $171 forward $163 $-1 #
edge $-1 $113 -20.766410571420931 $175 -17.648442458122883 $170 $235 forward 7 unknown #
coedge $-1 $110 $165 $104 $173 forward $100 $-1 #
edge $-1 $174 17.648442458122883 $112 20.766410571420931 $172 $236 forward 7 unknown #
vertex $-1 $173 $237 #
vertex $-1 $171 $238 #
straight-curve $-1 -36.85586897289479 -19.202442906608432 0 0 0 -1 I I #
coedge $-1 $231 $230 $107 $178 forward $225 $-1 #
edge $-1 $183 -6.762139521096401 $180 6.762139521096401 $177 $239 forward 7 unknown #
coedge $-1 $108 $227 $231 $240 forward $163 $-1 #
vertex $-1 $109 $241 #
straight-curve $-1 -39.973837086192837 -11.003718948594038 -6.762139521096401 0 1 0 I I #
coedge $-1 $165 $110 $230 $242 forward $100 $-1 #
vertex $-1 $242 $243 #
straight-curve $-1 -39.973837086192837 -11.003718948594038 6.762139521096401 0 -1 0 I I #
point $-1 -39.973837086192837 -19.202442906608432 6.762139521096401 #
point $-1 -39.973837086192837 -19.202442906608432 -6.762139521096401 #
plane-surface $-1 0 0 6.762139521096401 0 0 1 1 0 0 forward_v I I I I #
coedge $-1 $198 $197 $190 $244 forward $116 $-1 #
coedge $-1 $190 $118 $120 $194 reversed $66 $-1 #
coedge $-1 $118 $189 $188 $244 reversed $66 $-1 #
coedge $-1 $126 $121 $118 $192 forward $127 $-1 #
edge $-1 $195 -3.8253574481607089 $245 0.68002482708668666 $191 $246 forward 7 unknown #
coedge $-1 $120 $119 $198 $247 reversed $41 $-1 #
edge $-1 $248 -49.624865775535426 $195 -43.361647304258142 $189 $249 forward 7 unknown #
vertex $-1 $122 $250 #
straight-curve $-1 9.3336038685028058 20.307050612520321 6.762139521096401 1 0 0 I I #
coedge $-1 $188 $123 $126 $202 reversed $116 $-1 #
coedge $-1 $123 $188 $193 $247 forward $116 $-1 #
vertex $-1 $124 $251 #
straight-curve $-1 8.4921690815696849 24.81243288776772 49.067397383269508 0 0 1 I I #
straight-curve $-1 8.4921690815696849 -10.884707759959483 36.883671131751811 0 0.71933979245794832 -0.69465837861970381 I I #
edge $-1 $245 -28.842246392441538 $128 -8.4921690815696849 $197 $252 forward 7 unknown #
point $-1 8.4921690815696849 24.81243288776772 6.762139521096401 #
point $-1 8.4921690815696849 20.307050612520325 6.762139521096401 #
edge $-1 $253 1 $253 0 $131 $-1 forward 7 unknown #
vertex $-1 $132 $254 #
ellipse-curve $-1 18.667207737005612 20.504365331065749 2.4583363871130448 0 0.69465837861970381 0.71933979245794832 1 0 0 1 I I #
point $-1 19.667207737005612 22.559741750144013 4.586740926997166 #
plane-surface $-1 42.574541459395121 0 0 -1 0 0 0 0 1 forward_v I I I I #
coedge $-1 $140 $138 $142 $214 reversed $81 $-1 #
edge $-1 $153 -6.762139521096401 $216 6.762139521096401 $152 $255 forward 7 unknown #
vertex $-1 $214 $256 #
straight-curve $-1 -42.574541459395121 -24.81243288776772 0 0 0 -1 I I #
edge $-1 $212 -24.81243288776772 $216 24.81243288776772 $210 $257 forward 7 unknown #
straight-curve $-1 0 -24.81243288776772 -6.762139521096401 -1 0 0 I I #
vertex $-1 $145 $258 #
straight-curve $-1 0 24.81243288776772 -6.762139521096401 1 0 0 I I #
point $-1 42.574541459395121 24.81243288776772 -6.762139521096401 #
point $-1 42.574541459395121 -24.81243288776772 -6.762139521096401 #
straight-curve $-1 -42.574541459395121 0 6.762139521096401 0 -1 0 I I #
point $-1 -42.574541459395121 24.81243288776772 6.762139521096401 #
point $-1 -42.574541459395121 -24.81243288776772 6.762139521096401 #
straight-curve $-1 42.574541459395121 -24.81243288776772 0 0 0 -1 I I #
straight-curve $-1 42.574541459395121 24.81243288776772 0 0 0 -1 I I #
loop $-1 $-1 $168 $162 #
plane-surface $-1 0 -24.81243288776772 0 0 1 0 0 0 1 forward_v I I I I #
coedge $-1 $179 $170 $166 $229 forward $163 $-1 #
edge $-1 $233 -13.808713939173682 $174 -8.1987239580143942 $165 $259 forward 7 unknown #
edge $-1 $175 8.1987239580143942 $232 13.808713939173682 $227 $260 forward 7 unknown #
coedge $-1 $177 $168 $182 $242 reversed $225 $-1 #
coedge $-1 $168 $177 $179 $240 reversed $225 $-1 #
vertex $-1 $240 $261 #
vertex $-1 $169 $262 #
straight-curve $-1 -36.85586897289479 -24.81243288776772 0 0 0 1 I I #
straight-curve $-1 -19.207426514771907 -19.202442906608432 -6.762139521096401 1 0 0 I I #
straight-curve $-1 -19.207426514771907 -19.202442906608432 6.762139521096401 -1 0 0 I I #
point $-1 -36.85586897289479 -19.202442906608432 6.762139521096401 #
point $-1 -36.85586897289479 -19.202442906608432 -6.762139521096401 #
straight-curve $-1 -39.973837086192837 -24.81243288776772 0 0 0 -1 I I #
edge $-1 $232 36.85586897289479 $180 39.973837086192837 $231 $263 forward 7 unknown #
point $-1 -39.973837086192837 -24.81243288776772 -6.762139521096401 #
edge $-1 $183 -39.973837086192837 $233 -36.85586897289479 $230 $264 forward 7 unknown #
point $-1 -39.973837086192837 -24.81243288776772 6.762139521096401 #
edge $-1 $245 42.305257862173107 $248 46.65605505037157 $188 $265 forward 7 unknown #
vertex $-1 $202 $266 #
straight-curve $-1 28.842246392441538 24.132408060681033 6.762139521096401 0 1 0 I I #
edge $-1 $248 -19.508642523938732 $199 0.8414347869331209 $198 $267 forward 7 unknown #
vertex $-1 $247 $268 #
straight-curve $-1 28.842246392441538 -10.884707759959483 36.883671131751811 0 -0.71933979245794832 0.69465837861970381 I I #
point $-1 28.842246392441538 20.307050612520325 6.762139521096401 #
point $-1 8.4921690815696849 24.81243288776772 2.411342332897938 #
straight-curve $-1 0 24.81243288776772 6.762139521096401 -1 0 0 I I #
vertex $-1 $205 $269 #
point $-1 19.667207737005612 20.504365331065749 2.4583363871130448 #
straight-curve $-1 -42.574541459395121 24.81243288776772 0 0 0 -1 I I #
point $-1 -42.574541459395121 -24.81243288776772 -6.762139521096401 #
straight-curve $-1 -42.574541459395121 0 -6.762139521096401 0 1 0 I I #
point $-1 -42.574541459395121 24.81243288776772 -6.762139521096401 #
straight-curve $-1 -36.85586897289479 -11.003718948594038 6.762139521096401 0 1 0 I I #
straight-curve $-1 -36.85586897289479 -11.003718948594038 -6.762139521096401 0 -1 0 I I #
point $-1 -36.85586897289479 -24.81243288776772 -6.762139521096401 #
point $-1 -36.85586897289479 -24.81243288776772 6.762139521096401 #
straight-curve $-1 0 -24.81243288776772 -6.762139521096401 -1 0 0 I I #
straight-curve $-1 0 -24.81243288776772 6.762139521096401 1 0 0 I I #
straight-curve $-1 28.842246392441538 24.81243288776772 49.067397383269508 0 0 -1 I I #
point $-1 28.842246392441538 24.81243288776772 6.762139521096401 #
straight-curve $-1 9.3336038685028058 24.81243288776772 2.4113423328979344 -1 0 0 I I #
point $-1 28.842246392441538 24.81243288776772 2.411342332897938 #
point $-1 18.667207737005612 19.809706952446042 1.7389965946550967 #
End-of-ACIS-data 