500 0 8 0           
7 Unknown 11 ACIS 5.0 NT 24 Fri Mar 26 01:21:23 1999 
-1 9.9999999999999995e-007 1e-010 
body $-1 $8 $-1 $9 #
body $-1 $10 $-1 $11 #
body $-1 $12 $-1 $13 #
body $-1 $14 $-1 $15 #
body $-1 $16 $-1 $17 #
body $-1 $18 $-1 $19 #
body $-1 $20 $-1 $21 #
body $-1 $22 $-1 $23 #
lump $-1 $-1 $24 $0 #
transform $-1 1 0 0 0 1 0 0 0 1 69.46378978850673 42.914193836686287 18.983771467109218 1 rotate no_reflect no_shear #
lump $-1 $-1 $25 $1 #
transform $-1 1 0 0 0 1 0 0 0 1 69.46378978850673 42.914193836686287 18.983771467109218 1 rotate no_reflect no_shear #
lump $-1 $-1 $26 $2 #
transform $-1 1 0 0 0 1 0 0 0 1 69.46378978850673 42.914193836686287 18.983771467109218 1 rotate no_reflect no_shear #
lump $-1 $-1 $27 $3 #
transform $-1 1 0 0 0 1 0 0 0 1 69.46378978850673 42.914193836686287 18.983771467109218 1 rotate no_reflect no_shear #
lump $-1 $-1 $28 $4 #
transform $-1 1 0 0 0 1 0 0 0 1 69.46378978850673 42.914193836686287 18.983771467109218 1 rotate no_reflect no_shear #
lump $-1 $-1 $29 $5 #
transform $-1 1 0 0 0 1 0 0 0 1 69.46378978850673 42.914193836686287 18.983771467109218 1 rotate no_reflect no_shear #
lump $-1 $-1 $30 $6 #
transform $-1 1 0 0 0 1 0 0 0 1 69.46378978850673 42.914193836686287 18.983771467109218 1 rotate no_reflect no_shear #
lump $-1 $-1 $31 $7 #
transform $-1 1 0 0 0 1 0 0 0 1 69.46378978850673 42.914193836686287 18.983771467109218 1 rotate no_reflect no_shear #
shell $-1 $-1 $-1 $32 $-1 $8 #
shell $-1 $-1 $-1 $33 $-1 $10 #
shell $-1 $-1 $-1 $34 $-1 $12 #
shell $-1 $-1 $-1 $35 $-1 $14 #
shell $-1 $-1 $-1 $36 $-1 $16 #
shell $-1 $-1 $-1 $37 $-1 $18 #
shell $-1 $-1 $-1 $38 $-1 $20 #
shell $-1 $-1 $-1 $39 $-1 $22 #
face $-1 $40 $41 $24 $-1 $42 forward single #
face $-1 $43 $44 $25 $-1 $45 forward single #
face $-1 $46 $47 $26 $-1 $48 forward single #
face $-1 $49 $50 $27 $-1 $51 reversed single #
face $-1 $52 $53 $28 $-1 $54 forward single #
face $-1 $55 $56 $29 $-1 $57 forward single #
face $-1 $58 $59 $30 $-1 $60 reversed single #
face $-1 $61 $62 $31 $-1 $63 forward single #
face $-1 $64 $65 $24 $-1 $66 reversed single #
loop $-1 $-1 $67 $32 #
plane-surface $-1 0 0 18.983771467109218 0 0 1 1 0 0 forward_v I I I I #
face $-1 $68 $69 $25 $-1 $70 reversed single #
loop $-1 $-1 $71 $33 #
plane-surface $-1 0 -42.914193836686287 0 0 1 0 0 0 1 forward_v I I I I #
face $-1 $72 $73 $26 $-1 $74 reversed single #
loop $-1 $-1 $75 $34 #
plane-surface $-1 0 42.914193836686287 0 0 -1 0 0 0 -1 forward_v I I I I #
face $-1 $76 $77 $27 $-1 $78 reversed single #
loop $-1 $-1 $79 $35 #
plane-surface $-1 18.612767844979686 -6.9241401364919462 190.45811000902572 0 -1 0 -0.50000000669873634 0 -0.8660253999169214 forward_v I I I I #
face $-1 $80 $81 $28 $-1 $82 forward single #
loop $-1 $83 $84 $36 #
cone-surface $-1 53.361831719371764 -11.613460007215416 9.3986263471995244 -0.50000000669873634 0 -0.8660253999169214 0.4330126999584607 0 -0.25000000334936817 1 I I 0 1 0.5 forward I I I I #
face $-1 $85 $86 $29 $-1 $87 forward single #
loop $-1 $88 $89 $37 #
cone-surface $-1 53.361831719371764 -8.7998680847813375 9.3986263471995244 -0.50000000669873634 0 -0.8660253999169214 0.4330126999584607 0 -0.25000000334936817 1 I I 0 1 0.5 forward I I I I #
face $-1 $90 $91 $30 $-1 $92 reversed single #
loop $-1 $-1 $93 $38 #
plane-surface $-1 -153.07249536657815 -4.5199372010403849 120.66656432136588 0 1 0 -0.6018150307709319 0 0.79863550430605224 forward_v I I I I #
face $-1 $94 $95 $31 $-1 $96 forward single #
loop $-1 $97 $98 $39 #
cone-surface $-1 -62.539099996857836 0.89955426820040429 13.321742524332166 0.6018150307709319 0 -0.79863550430605224 1.9965887607651305 0 1.5045375769273297 1 I I 0 1 2.5 forward I I I I #
face $-1 $99 $100 $24 $-1 $101 reversed single #
loop $-1 $-1 $102 $40 #
plane-surface $-1 0 0 -18.983771467109218 0 0 1 1 0 0 forward_v I I I I #
coedge $-1 $103 $104 $105 $106 forward $41 $-1 #
face $-1 $107 $108 $25 $-1 $109 forward single #
loop $-1 $-1 $110 $43 #
plane-surface $-1 -69.46378978850673 0 0 1 0 0 0 0 -1 forward_v I I I I #
coedge $-1 $111 $112 $113 $114 forward $44 $-1 #
face $-1 $115 $116 $26 $-1 $117 forward single #
loop $-1 $-1 $118 $46 #
plane-surface $-1 69.46378978850673 0 0 -1 0 0 0 0 1 forward_v I I I I #
coedge $-1 $119 $120 $121 $122 forward $47 $-1 #
face $-1 $123 $124 $27 $-1 $125 reversed single #
loop $-1 $-1 $126 $49 #
plane-surface $-1 -50.851022874166276 -10.206664045998373 70.143297346352711 0.50000000669873634 0 0.8660253999169214 0.8660253999169214 0 -0.50000000669873634 forward_v I I I I #
coedge $-1 $127 $128 $129 $130 reversed $50 $-1 #
face $-1 $-1 $131 $28 $-1 $132 forward single #
loop $-1 $133 $134 $52 #
cone-surface $-1 52.986831714347716 -11.613460007215416 8.7491072972618333 -0.50000000669873634 0 -0.8660253999169214 0.21650634997923035 0 -0.12500000167468409 1 I I -0.70710678118654746 0.70710678118654746 0.25 forward I I I I #
loop $-1 $-1 $135 $36 #
coedge $-1 $84 $84 $136 $137 reversed $53 $-1 #
face $-1 $-1 $138 $29 $-1 $139 forward single #
loop $-1 $140 $141 $55 #
cone-surface $-1 52.986831714347716 -8.7998680847813375 8.7491072972618333 -0.50000000669873634 0 -0.8660253999169214 0.21650634997923035 0 -0.12500000167468409 1 I I -0.70710678118654746 0.70710678118654746 0.25 forward I I I I #
loop $-1 $-1 $142 $37 #
coedge $-1 $89 $89 $143 $144 reversed $56 $-1 #
face $-1 $145 $146 $30 $-1 $147 reversed single #
loop $-1 $-1 $148 $58 #
plane-surface $-1 -69.463789788506702 0.89955426820040429 9.7140667438585382 -0.6018150307709319 0 0.79863550430605224 0.79863550430605224 0 0.6018150307709319 forward_v I I I I #
coedge $-1 $149 $150 $151 $152 reversed $59 $-1 #
face $-1 $-1 $153 $31 $-1 $154 forward single #
loop $-1 $155 $156 $61 #
cone-surface $-1 -61.012798120133041 0.89955426820040429 11.296271562797887 0.6018150307709319 0 -0.79863550430605224 0.99829438038256524 0 0.75226878846366485 1 I I -0.70710678118654746 0.70710678118654746 1.25 forward I I I I #
loop $-1 $-1 $157 $39 #
coedge $-1 $98 $98 $158 $159 reversed $62 $-1 #
face $-1 $160 $161 $24 $-1 $162 reversed single #
loop $-1 $-1 $163 $64 #
plane-surface $-1 0 -42.914193836686287 0 0 1 0 0 0 1 forward_v I I I I #
coedge $-1 $164 $165 $166 $167 forward $65 $-1 #
coedge $-1 $168 $67 $169 $170 forward $41 $-1 #
coedge $-1 $67 $168 $171 $172 forward $41 $-1 #
coedge $-1 $173 $174 $67 $106 reversed $175 $-1 #
edge $-1 $176 -42.914193836686287 $177 42.914193836686287 $105 $178 forward 7 unknown #
face $-1 $179 $180 $25 $-1 $181 reversed single #
loop $-1 $-1 $182 $68 #
plane-surface $-1 0 -53.214426600468997 15.436381454871455 0 0 1 1 0 0 forward_v I I I I #
coedge $-1 $183 $184 $112 $185 forward $69 $-1 #
coedge $-1 $186 $71 $187 $188 reversed $44 $-1 #
coedge $-1 $71 $186 $110 $185 reversed $44 $-1 #
coedge $-1 $189 $182 $71 $114 reversed $108 $-1 #
edge $-1 $190 -69.46378978850673 $191 69.46378978850673 $113 $192 forward 7 unknown #
face $-1 $193 $194 $26 $-1 $195 reversed single #
loop $-1 $-1 $196 $72 #
plane-surface $-1 0 53.214426600469004 15.436381454871455 0 0 1 1 0 0 forward_v I I I I #
coedge $-1 $197 $198 $120 $199 forward $73 $-1 #
coedge $-1 $200 $75 $201 $202 reversed $47 $-1 #
coedge $-1 $75 $200 $118 $199 reversed $47 $-1 #
coedge $-1 $196 $203 $75 $122 reversed $116 $-1 #
edge $-1 $204 -69.46378978850673 $205 69.46378978850673 $121 $206 forward 7 unknown #
face $-1 $207 $208 $27 $-1 $209 forward single #
loop $-1 $-1 $210 $76 #
plane-surface $-1 18.612767844979686 -13.4891879555048 190.45811000902572 0 1 0 0.50000000669873634 0 0.8660253999169214 forward_v I I I I #
coedge $-1 $211 $212 $213 $214 reversed $77 $-1 #
coedge $-1 $128 $79 $215 $216 reversed $50 $-1 #
coedge $-1 $79 $127 $211 $217 reversed $50 $-1 #
coedge $-1 $213 $218 $79 $130 forward $208 $-1 #
edge $-1 $219 -60.157405866016887 $220 -28.453489734445682 $129 $221 forward 7 unknown #
loop $-1 $-1 $136 $80 #
plane-surface $-1 -50.851022874166276 -10.206664045998373 70.143297346352711 0.50000000669873634 0 0.8660253999169214 0.8660253999169214 0 -0.50000000669873634 forward_v I I I I #
loop $-1 $-1 $222 $52 #
coedge $-1 $134 $134 $135 $223 reversed $81 $-1 #
coedge $-1 $135 $135 $134 $223 forward $83 $-1 #
coedge $-1 $136 $136 $84 $137 forward $131 $-1 #
edge $-1 $224 0 $224 6.2831853071796004 $136 $225 forward 7 unknown #
loop $-1 $-1 $143 $85 #
plane-surface $-1 -50.851022874166276 -10.206664045998373 70.143297346352711 0.50000000669873634 0 0.8660253999169214 0.8660253999169214 0 -0.50000000669873634 forward_v I I I I #
loop $-1 $-1 $226 $55 #
coedge $-1 $141 $141 $142 $227 reversed $86 $-1 #
coedge $-1 $142 $142 $141 $227 forward $88 $-1 #
coedge $-1 $143 $143 $89 $144 forward $138 $-1 #
edge $-1 $228 0 $228 6.2831853071796004 $143 $229 forward 7 unknown #
face $-1 $230 $231 $30 $-1 $232 reversed single #
loop $-1 $-1 $233 $90 #
plane-surface $-1 -153.07249536657815 6.3190457374411935 120.66656432136588 0 -1 0 0.6018150307709319 0 -0.79863550430605224 forward_v I I I I #
coedge $-1 $234 $235 $236 $237 reversed $91 $-1 #
coedge $-1 $150 $93 $238 $239 reversed $59 $-1 #
coedge $-1 $93 $149 $234 $240 reversed $59 $-1 #
coedge $-1 $236 $241 $93 $152 forward $242 $-1 #
edge $-1 $243 7.072457894782346 $244 19.373771301557916 $151 $245 forward 7 unknown #
loop $-1 $-1 $158 $94 #
plane-surface $-1 -69.463789788506702 0.89955426820040429 9.7140667438585382 -0.6018150307709319 0 0.79863550430605224 0.79863550430605224 0 0.6018150307709319 forward_v I I I I #
loop $-1 $-1 $246 $61 #
coedge $-1 $156 $156 $157 $247 reversed $95 $-1 #
coedge $-1 $157 $157 $156 $247 forward $97 $-1 #
coedge $-1 $158 $158 $98 $159 forward $153 $-1 #
edge $-1 $248 0 $248 6.2831853071796004 $158 $249 forward 7 unknown #
face $-1 $250 $251 $24 $-1 $252 reversed single #
loop $-1 $-1 $253 $99 #
plane-surface $-1 -69.46378978850673 0 0 1 0 0 0 0 -1 forward_v I I I I #
coedge $-1 $254 $171 $255 $256 forward $100 $-1 #
coedge $-1 $257 $102 $254 $258 forward $65 $-1 #
coedge $-1 $102 $257 $259 $260 forward $65 $-1 #
coedge $-1 $174 $173 $102 $167 reversed $175 $-1 #
edge $-1 $261 -42.914193836686287 $262 42.914193836686287 $166 $263 forward 7 unknown #
coedge $-1 $104 $103 $264 $265 forward $41 $-1 #
coedge $-1 $266 $267 $103 $170 reversed $251 $-1 #
edge $-1 $177 -69.46378978850673 $268 69.46378978850673 $169 $269 forward 7 unknown #
coedge $-1 $163 $270 $104 $172 reversed $100 $-1 #
edge $-1 $271 -69.46378978850673 $176 69.46378978850673 $171 $272 forward 7 unknown #
coedge $-1 $166 $105 $270 $273 forward $175 $-1 #
coedge $-1 $105 $166 $266 $274 reversed $175 $-1 #
loop $-1 $-1 $173 $250 #
vertex $-1 $106 $275 #
vertex $-1 $106 $276 #
straight-curve $-1 69.46378978850673 0 18.983771467109218 0 1 0 I I #
face $-1 $277 $278 $25 $-1 $279 reversed single #
loop $-1 $-1 $280 $107 #
plane-surface $-1 0 -53.214426600468997 6.821699260803225 0 0 1 1 0 0 forward_v I I I I #
coedge $-1 $113 $281 $282 $283 forward $108 $-1 #
coedge $-1 $284 $110 $285 $286 reversed $69 $-1 #
coedge $-1 $110 $284 $189 $287 reversed $69 $-1 #
edge $-1 $190 -15.436381454871455 $288 -6.821699260803225 $110 $289 forward 7 unknown #
coedge $-1 $112 $111 $290 $291 forward $44 $-1 #
coedge $-1 $282 $292 $111 $188 forward $293 $-1 #
edge $-1 $294 6.821699260803225 $191 15.436381454871455 $187 $295 forward 7 unknown #
coedge $-1 $281 $113 $184 $287 forward $108 $-1 #
vertex $-1 $185 $296 #
vertex $-1 $283 $297 #
straight-curve $-1 0 -42.914193836686287 15.436381454871455 1 0 0 I I #
face $-1 $298 $299 $26 $-1 $300 reversed single #
loop $-1 $-1 $301 $115 #
plane-surface $-1 0 53.214426600469004 6.821699260803225 0 0 1 1 0 0 forward_v I I I I #
coedge $-1 $302 $121 $198 $303 forward $116 $-1 #
coedge $-1 $304 $118 $301 $305 reversed $73 $-1 #
coedge $-1 $118 $304 $196 $303 reversed $73 $-1 #
edge $-1 $204 -15.436381454871455 $306 -6.821699260803225 $118 $307 forward 7 unknown #
coedge $-1 $120 $119 $308 $309 forward $47 $-1 #
coedge $-1 $310 $311 $119 $202 forward $312 $-1 #
edge $-1 $313 6.821699260803225 $205 15.436381454871455 $201 $314 forward 7 unknown #
coedge $-1 $121 $302 $310 $315 forward $116 $-1 #
vertex $-1 $199 $316 #
vertex $-1 $315 $317 #
straight-curve $-1 0 42.914193836686287 15.436381454871455 -1 0 0 I I #
face $-1 $-1 $318 $27 $-1 $319 reversed single #
loop $-1 $-1 $129 $123 #
plane-surface $-1 0 0 18.983771467109218 0 0 1 1 0 0 forward_v I I I I #
coedge $-1 $320 $321 $322 $323 reversed $124 $-1 #
coedge $-1 $324 $126 $128 $217 forward $77 $-1 #
coedge $-1 $126 $324 $320 $325 forward $77 $-1 #
coedge $-1 $322 $129 $126 $214 forward $208 $-1 #
edge $-1 $220 1.8208081134927596 $326 8.3858559325056135 $213 $327 forward 7 unknown #
coedge $-1 $328 $329 $127 $216 forward $318 $-1 #
edge $-1 $330 -94.54954837730611 $219 -76.245283537403637 $215 $331 forward 7 unknown #
edge $-1 $220 102.3190503876703 $330 138.92757957701349 $128 $332 forward 7 unknown #
coedge $-1 $129 $322 $328 $333 forward $208 $-1 #
vertex $-1 $216 $334 #
vertex $-1 $130 $335 #
straight-curve $-1 9.306383922489843 -6.9241401364919462 18.983771467109221 -1 0 0 I I #
coedge $-1 $222 $222 $-1 $336 reversed $133 $-1 #
edge $-1 $337 0 $337 6.2831853071796004 $134 $338 forward 7 unknown #
vertex $-1 $137 $339 #
ellipse-curve $-1 53.611831722721128 -11.613460007215416 9.8316390471579798 0.50000000669873634 0 0.8660253999169214 0.4330126999584607 0 -0.25000000334936817 1 I I #
coedge $-1 $226 $226 $-1 $340 reversed $140 $-1 #
edge $-1 $341 0 $341 6.2831853071796004 $141 $342 forward 7 unknown #
vertex $-1 $144 $343 #
ellipse-curve $-1 53.611831722721128 -8.7998680847813375 9.8316390471579798 0.50000000669873634 0 0.8660253999169214 0.4330126999584607 0 -0.25000000334936817 1 I I #
face $-1 $-1 $242 $30 $-1 $344 forward single #
loop $-1 $-1 $345 $145 #
plane-surface $-1 -69.46378978850673 0 0 1 0 0 0 0 -1 forward_v I I I I #
coedge $-1 $346 $347 $348 $349 reversed $146 $-1 #
coedge $-1 $350 $148 $150 $240 forward $91 $-1 #
coedge $-1 $148 $350 $346 $351 forward $91 $-1 #
coedge $-1 $348 $151 $148 $237 forward $242 $-1 #
edge $-1 $244 -4.969714335140587 $352 5.8692686033409913 $236 $353 forward 7 unknown #
coedge $-1 $354 $355 $149 $239 forward $231 $-1 #
edge $-1 $356 -50.619215416824424 $243 -41.34951069357372 $238 $357 forward 7 unknown #
edge $-1 $244 -15.402913269507547 $356 3.5527045195756588e-014 $150 $358 forward 7 unknown #
coedge $-1 $151 $348 $354 $359 forward $242 $-1 #
loop $-1 $-1 $348 $230 #
vertex $-1 $239 $360 #
vertex $-1 $152 $361 #
straight-curve $-1 -76.536247683289076 -4.5199372010403849 18.983771467109221 1 0 0 I I #
coedge $-1 $246 $246 $-1 $362 reversed $155 $-1 #
edge $-1 $363 0 $363 6.2831853071796004 $156 $364 forward 7 unknown #
vertex $-1 $159 $365 #
ellipse-curve $-1 -63.313133085118956 0.89955426820040429 14.348919105483862 -0.6018150307709319 0 0.79863550430605224 1.9965887607651305 0 1.5045375769273297 1 I I #
face $-1 $-1 $175 $24 $-1 $366 reversed single #
loop $-1 $-1 $266 $160 #
plane-surface $-1 0 42.914193836686287 0 0 -1 0 0 0 -1 forward_v I I I I #
coedge $-1 $367 $264 $267 $368 forward $161 $-1 #
coedge $-1 $270 $163 $164 $258 reversed $100 $-1 #
coedge $-1 $264 $367 $163 $256 reversed $161 $-1 #
edge $-1 $271 -18.983771467109218 $369 18.983771467109218 $255 $370 forward 7 unknown #
coedge $-1 $165 $164 $367 $371 forward $65 $-1 #
edge $-1 $262 -69.46378978850673 $369 69.46378978850673 $254 $372 forward 7 unknown #
coedge $-1 $267 $266 $165 $260 reversed $251 $-1 #
edge $-1 $373 -69.46378978850673 $261 69.46378978850673 $259 $374 forward 7 unknown #
vertex $-1 $167 $375 #
vertex $-1 $273 $376 #
straight-curve $-1 69.46378978850673 0 -18.983771467109218 0 -1 0 I I #
coedge $-1 $253 $255 $168 $265 reversed $161 $-1 #
edge $-1 $268 -42.914193836686287 $271 42.914193836686287 $264 $377 forward 7 unknown #
coedge $-1 $259 $169 $174 $274 forward $251 $-1 #
coedge $-1 $169 $259 $253 $368 reversed $251 $-1 #
vertex $-1 $170 $378 #
straight-curve $-1 0 42.914193836686287 18.983771467109218 -1 0 0 I I #
coedge $-1 $171 $254 $173 $273 reversed $100 $-1 #
vertex $-1 $265 $379 #
straight-curve $-1 0 -42.914193836686287 18.983771467109218 1 0 0 I I #
edge $-1 $176 -18.983771467109218 $262 18.983771467109218 $173 $380 forward 7 unknown #
edge $-1 $177 -18.983771467109218 $261 18.983771467109218 $174 $381 forward 7 unknown #
point $-1 69.46378978850673 -42.914193836686287 18.983771467109218 #
point $-1 69.46378978850673 42.914193836686287 18.983771467109218 #
face $-1 $-1 $293 $25 $-1 $382 reversed single #
loop $-1 $-1 $383 $179 #
plane-surface $-1 0 -63.514659364251706 11.12904035783734 0 1 0 0 0 1 forward_v I I I I #
coedge $-1 $384 $290 $292 $385 forward $180 $-1 #
coedge $-1 $182 $189 $386 $387 forward $108 $-1 #
coedge $-1 $388 $187 $182 $283 reversed $293 $-1 #
edge $-1 $389 -10.300232763782709 $191 10.300232763782709 $282 $390 forward 7 unknown #
coedge $-1 $184 $183 $383 $391 reversed $69 $-1 #
coedge $-1 $290 $384 $183 $286 forward $180 $-1 #
edge $-1 $392 -10.300232763782709 $288 10.300232763782709 $183 $393 forward 7 unknown #
edge $-1 $190 -10.300232763782709 $394 10.300232763782709 $184 $395 forward 7 unknown #
vertex $-1 $185 $396 #
straight-curve $-1 -69.46378978850673 -42.914193836686287 0 0 0 -1 I I #
coedge $-1 $280 $285 $186 $291 reversed $180 $-1 #
edge $-1 $294 -69.46378978850673 $288 69.46378978850673 $290 $397 forward 7 unknown #
coedge $-1 $187 $388 $280 $385 reversed $293 $-1 #
loop $-1 $-1 $187 $277 #
vertex $-1 $188 $398 #
straight-curve $-1 69.46378978850673 -42.914193836686287 0 0 0 1 I I #
point $-1 -69.46378978850673 -42.914193836686287 15.436381454871455 #
point $-1 69.46378978850673 -42.914193836686287 15.436381454871455 #
face $-1 $-1 $312 $26 $-1 $399 reversed single #
loop $-1 $-1 $400 $193 #
plane-surface $-1 0 63.514659364251713 11.12904035783734 0 -1 0 0 0 -1 forward_v I I I I #
coedge $-1 $308 $401 $197 $305 forward $194 $-1 #
coedge $-1 $203 $196 $402 $403 forward $116 $-1 #
edge $-1 $204 -10.300232763782709 $404 10.300232763782709 $198 $405 forward 7 unknown #
coedge $-1 $198 $197 $400 $406 reversed $73 $-1 #
edge $-1 $407 -10.300232763782709 $306 10.300232763782709 $197 $408 forward 7 unknown #
vertex $-1 $199 $409 #
straight-curve $-1 69.46378978850673 42.914193836686287 0 0 0 -1 I I #
coedge $-1 $410 $301 $200 $309 reversed $194 $-1 #
edge $-1 $313 -69.46378978850673 $306 69.46378978850673 $308 $411 forward 7 unknown #
coedge $-1 $412 $201 $203 $315 reversed $312 $-1 #
coedge $-1 $201 $412 $410 $413 reversed $312 $-1 #
loop $-1 $-1 $201 $298 #
vertex $-1 $202 $414 #
straight-curve $-1 -69.46378978850673 42.914193836686287 0 0 0 1 I I #
edge $-1 $415 -10.300232763782709 $205 10.300232763782709 $310 $416 forward 7 unknown #
point $-1 69.46378978850673 42.914193836686295 15.436381454871455 #
point $-1 -69.46378978850673 42.914193836686295 15.436381454871455 #
loop $-1 $-1 $215 $207 #
plane-surface $-1 69.46378978850673 0 0 -1 0 0 0 0 1 forward_v I I I I #
coedge $-1 $321 $210 $212 $325 reversed $124 $-1 #
coedge $-1 $210 $320 $417 $418 reversed $124 $-1 #
coedge $-1 $218 $213 $210 $323 forward $208 $-1 #
edge $-1 $326 28.453489734445682 $419 60.157405866016887 $322 $420 forward 7 unknown #
coedge $-1 $212 $211 $329 $421 reversed $77 $-1 #
edge $-1 $422 -138.92757957701349 $326 -102.3190503876703 $320 $423 forward 7 unknown #
vertex $-1 $214 $424 #
straight-curve $-1 37.75987365693554 -5.1033320229991865 18.983771467109221 0 -1 0 I I #
coedge $-1 $417 $215 $218 $333 reversed $318 $-1 #
coedge $-1 $215 $417 $324 $421 forward $318 $-1 #
vertex $-1 $216 $425 #
straight-curve $-1 69.46378978850673 -6.9241401364919462 95.229055004512858 0 0 1 I I #
straight-curve $-1 -50.851022874166276 -6.9241401364919462 70.143297346352711 0.8660253999169214 0 -0.50000000669873634 I I #
edge $-1 $419 -13.4891879555048 $219 -6.9241401364919462 $328 $426 forward 7 unknown #
point $-1 69.46378978850673 -6.9241401364919462 18.983771467109218 #
point $-1 37.759873656935525 -6.9241401364919462 18.983771467109221 #
edge $-1 $427 1 $427 0 $222 $-1 forward 7 unknown #
vertex $-1 $223 $428 #
ellipse-curve $-1 53.111831716022401 -11.613460007215416 8.9656136472410637 0.50000000669873634 0 0.8660253999169214 0.4330126999584607 0 -0.25000000334936817 1 I I #
point $-1 54.044844422679596 -11.613460007215416 9.5816390438086163 #
edge $-1 $429 1 $429 0 $226 $-1 forward 7 unknown #
vertex $-1 $227 $430 #
ellipse-curve $-1 53.111831716022401 -8.7998680847813375 8.9656136472410637 0.50000000669873634 0 0.8660253999169214 0.4330126999584607 0 -0.25000000334936817 1 I I #
point $-1 54.044844422679596 -8.7998680847813375 9.5816390438086163 #
plane-surface $-1 0 0 18.983771467109218 0 0 1 1 0 0 forward_v I I I I #
coedge $-1 $355 $354 $347 $431 forward $231 $-1 #
coedge $-1 $347 $233 $235 $351 reversed $146 $-1 #
coedge $-1 $233 $346 $345 $431 reversed $146 $-1 #
coedge $-1 $241 $236 $233 $349 forward $242 $-1 #
edge $-1 $352 -19.373771301557916 $432 -7.072457894782346 $348 $433 forward 7 unknown #
coedge $-1 $235 $234 $355 $434 reversed $91 $-1 #
edge $-1 $435 -3.5527045195756588e-014 $352 15.402913269507547 $346 $436 forward 7 unknown #
vertex $-1 $237 $437 #
straight-curve $-1 -57.162476381731153 0.44977713410020215 18.983771467109218 0 1 0 I I #
coedge $-1 $345 $238 $241 $359 reversed $231 $-1 #
coedge $-1 $238 $345 $350 $434 forward $231 $-1 #
vertex $-1 $239 $438 #
straight-curve $-1 -69.46378978850673 -4.5199372010403849 60.333282160682941 0 0 1 I I #
straight-curve $-1 -69.463789788506702 -4.5199372010403849 9.7140667438585382 -0.79863550430605224 0 -0.6018150307709319 I I #
edge $-1 $432 -6.3190457374411935 $243 4.5199372010403849 $354 $439 forward 7 unknown #
point $-1 -69.46378978850673 -4.5199372010403849 18.983771467109218 #
point $-1 -57.16247638173116 -4.5199372010403849 18.983771467109218 #
edge $-1 $440 1 $440 0 $246 $-1 forward 7 unknown #
vertex $-1 $247 $441 #
ellipse-curve $-1 -61.765066908596708 0.89955426820040429 12.294565943180453 -0.6018150307709319 0 0.79863550430605224 1.9965887607651305 0 1.5045375769273297 1 I I #
point $-1 -61.316544324353835 0.89955426820040429 15.85345668241121 #
plane-surface $-1 69.46378978850673 0 0 -1 0 0 0 0 1 forward_v I I I I #
coedge $-1 $255 $253 $257 $371 reversed $161 $-1 #
edge $-1 $268 -18.983771467109218 $373 18.983771467109218 $267 $442 forward 7 unknown #
vertex $-1 $371 $443 #
straight-curve $-1 -69.46378978850673 -42.914193836686287 0 0 0 -1 I I #
edge $-1 $369 -42.914193836686287 $373 42.914193836686287 $367 $444 forward 7 unknown #
straight-curve $-1 0 -42.914193836686287 -18.983771467109218 -1 0 0 I I #
vertex $-1 $260 $445 #
straight-curve $-1 0 42.914193836686287 -18.983771467109218 1 0 0 I I #
point $-1 69.46378978850673 42.914193836686287 -18.983771467109218 #
point $-1 69.46378978850673 -42.914193836686287 -18.983771467109218 #
straight-curve $-1 -69.46378978850673 0 18.983771467109218 0 -1 0 I I #
point $-1 -69.46378978850673 42.914193836686287 18.983771467109218 #
point $-1 -69.46378978850673 -42.914193836686287 18.983771467109218 #
straight-curve $-1 69.46378978850673 -42.914193836686287 0 0 0 -1 I I #
straight-curve $-1 69.46378978850673 42.914193836686287 0 0 0 -1 I I #
plane-surface $-1 69.46378978850673 0 0 -1 0 0 0 0 1 forward_v I I I I #
coedge $-1 $446 $386 $284 $391 forward $278 $-1 #
coedge $-1 $285 $280 $446 $447 forward $180 $-1 #
edge $-1 $294 -10.300232763782709 $448 10.300232763782709 $292 $449 forward 7 unknown #
coedge $-1 $383 $450 $281 $387 reversed $278 $-1 #
edge $-1 $394 -69.46378978850673 $389 69.46378978850673 $386 $451 forward 7 unknown #
coedge $-1 $292 $282 $450 $452 forward $293 $-1 #
vertex $-1 $283 $453 #
straight-curve $-1 69.46378978850673 -53.214426600468997 15.436381454871455 0 1 0 I I #
edge $-1 $394 -4.3073410970341151 $392 4.3073410970341151 $284 $454 forward 7 unknown #
vertex $-1 $286 $455 #
straight-curve $-1 -69.46378978850673 -53.214426600468997 6.821699260803225 0 1 0 I I #
vertex $-1 $287 $456 #
straight-curve $-1 -69.46378978850673 -53.214426600468997 15.436381454871455 0 -1 0 I I #
point $-1 -69.46378978850673 -42.914193836686287 6.821699260803225 #
straight-curve $-1 0 -42.914193836686287 6.821699260803225 -1 0 0 I I #
point $-1 69.46378978850673 -42.914193836686287 6.821699260803225 #
plane-surface $-1 -69.46378978850673 0 0 1 0 0 0 0 -1 forward_v I I I I #
coedge $-1 $457 $402 $304 $406 forward $299 $-1 #
coedge $-1 $301 $410 $457 $458 forward $194 $-1 #
coedge $-1 $400 $459 $302 $403 reversed $299 $-1 #
edge $-1 $404 -69.46378978850673 $415 69.46378978850673 $402 $460 forward 7 unknown #
vertex $-1 $303 $461 #
straight-curve $-1 69.46378978850673 53.214426600469004 15.436381454871455 0 1 0 I I #
edge $-1 $404 -4.3073410970341151 $407 4.3073410970341151 $304 $462 forward 7 unknown #
vertex $-1 $305 $463 #
straight-curve $-1 69.46378978850673 53.214426600469004 6.821699260803225 0 -1 0 I I #
point $-1 69.46378978850673 42.914193836686295 6.821699260803225 #
coedge $-1 $401 $308 $311 $413 forward $194 $-1 #
straight-curve $-1 0 42.914193836686287 6.821699260803225 1 0 0 I I #
coedge $-1 $311 $310 $459 $464 forward $312 $-1 #
edge $-1 $313 -10.300232763782709 $465 10.300232763782709 $311 $466 forward 7 unknown #
point $-1 -69.46378978850673 42.914193836686295 6.821699260803225 #
vertex $-1 $403 $467 #
straight-curve $-1 -69.46378978850673 53.214426600469004 15.436381454871455 0 -1 0 I I #
coedge $-1 $329 $328 $321 $418 forward $318 $-1 #
edge $-1 $419 76.245283537403637 $422 94.54954837730611 $417 $468 forward 7 unknown #
vertex $-1 $333 $469 #
straight-curve $-1 9.306383922489843 -13.4891879555048 18.983771467109221 1 0 0 I I #
edge $-1 $422 -8.3858559325056135 $330 -1.8208081134927596 $329 $470 forward 7 unknown #
vertex $-1 $421 $471 #
straight-curve $-1 -50.851022874166276 -13.4891879555048 70.143297346352711 -0.8660253999169214 0 0.50000000669873634 I I #
point $-1 37.759873656935525 -13.4891879555048 18.983771467109221 #
point $-1 69.46378978850673 -6.9241401364919462 0.6795066272067487 #
straight-curve $-1 69.46378978850673 0 18.983771467109218 0 1 0 I I #
vertex $-1 $336 $472 #
point $-1 53.544844415980862 -11.613460007215416 8.7156136438916949 #
vertex $-1 $340 $473 #
point $-1 53.544844415980862 -8.7998680847813375 8.7156136438916949 #
edge $-1 $432 41.34951069357372 $435 50.619215416824424 $345 $474 forward 7 unknown #
vertex $-1 $359 $475 #
straight-curve $-1 -76.536247683289076 6.3190457374411935 18.983771467109221 -1 0 0 I I #
edge $-1 $435 -5.8692686033409913 $356 4.969714335140587 $355 $476 forward 7 unknown #
vertex $-1 $434 $477 #
straight-curve $-1 -69.463789788506702 6.3190457374411935 9.7140667438585382 0.79863550430605224 0 0.6018150307709319 I I #
point $-1 -57.16247638173116 6.3190457374411935 18.983771467109218 #
point $-1 -69.46378978850673 -4.5199372010403849 9.7140667438585169 #
straight-curve $-1 -69.46378978850673 0 18.983771467109218 0 -1 0 I I #
vertex $-1 $362 $478 #
point $-1 -59.768478147831573 0.89955426820040429 13.799103520107781 #
straight-curve $-1 -69.46378978850673 42.914193836686287 0 0 0 -1 I I #
point $-1 -69.46378978850673 -42.914193836686287 -18.983771467109218 #
straight-curve $-1 -69.46378978850673 0 -18.983771467109218 0 1 0 I I #
point $-1 -69.46378978850673 42.914193836686287 -18.983771467109218 #
coedge $-1 $450 $383 $384 $447 reversed $278 $-1 #
edge $-1 $448 -69.46378978850673 $392 69.46378978850673 $446 $479 forward 7 unknown #
vertex $-1 $452 $480 #
straight-curve $-1 69.46378978850673 -53.214426600468997 6.821699260803225 0 -1 0 I I #
coedge $-1 $386 $446 $388 $452 reversed $278 $-1 #
straight-curve $-1 0 -63.514659364251706 15.436381454871455 1 0 0 I I #
edge $-1 $389 -4.3073410970341151 $448 4.3073410970341151 $388 $481 forward 7 unknown #
point $-1 69.46378978850673 -63.514659364251706 15.436381454871455 #
straight-curve $-1 -69.46378978850673 -63.514659364251706 11.12904035783734 0 0 -1 I I #
point $-1 -69.46378978850673 -63.514659364251706 6.821699260803225 #
point $-1 -69.46378978850673 -63.514659364251706 15.436381454871455 #
coedge $-1 $459 $400 $401 $458 reversed $299 $-1 #
edge $-1 $465 -69.46378978850673 $407 69.46378978850673 $457 $482 forward 7 unknown #
coedge $-1 $402 $457 $412 $464 reversed $299 $-1 #
straight-curve $-1 0 63.514659364251713 15.436381454871455 -1 0 0 I I #
point $-1 69.46378978850673 63.514659364251713 15.436381454871455 #
straight-curve $-1 69.46378978850673 63.514659364251713 11.12904035783734 0 0 -1 I I #
point $-1 69.46378978850673 63.514659364251713 6.821699260803225 #
edge $-1 $415 -4.3073410970341151 $465 4.3073410970341151 $459 $483 forward 7 unknown #
vertex $-1 $458 $484 #
straight-curve $-1 -69.46378978850673 53.214426600469004 6.821699260803225 0 1 0 I I #
point $-1 -69.46378978850673 63.514659364251713 15.436381454871455 #
straight-curve $-1 69.46378978850673 -13.4891879555048 95.229055004512858 0 0 -1 I I #
point $-1 69.46378978850673 -13.4891879555048 18.983771467109218 #
straight-curve $-1 69.46378978850673 -5.1033320229991865 0.6795066272067487 0 1 0 I I #
point $-1 69.46378978850673 -13.4891879555048 0.6795066272067487 #
point $-1 52.86183171267303 -11.613460007215416 8.532600947282603 #
point $-1 52.86183171267303 -8.7998680847813375 8.532600947282603 #
straight-curve $-1 -69.46378978850673 6.3190457374411935 60.333282160682941 0 0 -1 I I #
point $-1 -69.46378978850673 6.3190457374411935 18.983771467109218 #
straight-curve $-1 -69.46378978850673 0.44977713410020215 9.7140667438585169 0 -1 0 I I #
point $-1 -69.46378978850673 6.3190457374411935 9.7140667438585169 #
point $-1 -60.260529331669375 0.89955426820040429 10.297977182415321 #
straight-curve $-1 0 -63.514659364251706 6.821699260803225 -1 0 0 I I #
point $-1 69.46378978850673 -63.514659364251706 6.821699260803225 #
straight-curve $-1 69.46378978850673 -63.514659364251706 11.12904035783734 0 0 -1 I I #
straight-curve $-1 0 63.514659364251713 6.821699260803225 1 0 0 I I #
straight-curve $-1 -69.46378978850673 63.514659364251713 11.12904035783734 0 0 -1 I I #
point $-1 -69.46378978850673 63.514659364251713 6.821699260803225 #
End-of-ACIS-data 