500 0 19 0           
7 Unknown 11 ACIS 5.0 NT 24 Thu Mar 25 15:09:09 1999 
-1 9.9999999999999995e-007 1e-010 
body $-1 $19 $-1 $20 #
body $-1 $21 $-1 $22 #
body $-1 $23 $-1 $24 #
body $-1 $25 $-1 $26 #
body $-1 $27 $-1 $28 #
body $-1 $29 $-1 $30 #
body $-1 $31 $-1 $32 #
body $-1 $33 $-1 $34 #
body $-1 $35 $-1 $36 #
body $-1 $37 $-1 $38 #
body $-1 $39 $-1 $40 #
body $-1 $41 $-1 $42 #
body $-1 $43 $-1 $44 #
body $-1 $45 $-1 $46 #
body $-1 $47 $-1 $48 #
body $-1 $49 $-1 $50 #
body $-1 $51 $-1 $52 #
body $-1 $53 $-1 $54 #
body $-1 $55 $-1 $56 #
lump $-1 $-1 $57 $0 #
transform $-1 1 0 0 0 1 0 0 0 1 71.43650624103519 38.372786339887213 14.530997877821848 1 rotate no_reflect no_shear #
lump $-1 $-1 $58 $1 #
transform $-1 1 0 0 0 1 0 0 0 1 71.43650624103519 38.372786339887213 14.530997877821848 1 rotate no_reflect no_shear #
lump $-1 $-1 $59 $2 #
transform $-1 1 0 0 0 1 0 0 0 1 71.43650624103519 38.372786339887213 14.530997877821848 1 rotate no_reflect no_shear #
lump $-1 $-1 $60 $3 #
transform $-1 1 0 0 0 1 0 0 0 1 71.43650624103519 38.372786339887213 14.530997877821848 1 rotate no_reflect no_shear #
lump $-1 $-1 $61 $4 #
transform $-1 1 0 0 0 1 0 0 0 1 71.43650624103519 38.372786339887213 14.530997877821848 1 rotate no_reflect no_shear #
lump $-1 $-1 $62 $5 #
transform $-1 1 0 0 0 1 0 0 0 1 71.43650624103519 38.372786339887213 14.530997877821848 1 rotate no_reflect no_shear #
lump $-1 $-1 $63 $6 #
transform $-1 1 0 0 0 1 0 0 0 1 71.43650624103519 38.372786339887213 14.530997877821848 1 rotate no_reflect no_shear #
lump $-1 $-1 $64 $7 #
transform $-1 1 0 0 0 1 0 0 0 1 71.43650624103519 38.372786339887213 14.530997877821848 1 rotate no_reflect no_shear #
lump $-1 $-1 $65 $8 #
transform $-1 1 0 0 0 1 0 0 0 1 71.43650624103519 38.372786339887213 14.530997877821848 1 rotate no_reflect no_shear #
lump $-1 $-1 $66 $9 #
transform $-1 1 0 0 0 1 0 0 0 1 71.43650624103519 38.372786339887213 14.530997877821848 1 rotate no_reflect no_shear #
lump $-1 $-1 $67 $10 #
transform $-1 1 0 0 0 1 0 0 0 1 71.43650624103519 38.372786339887213 14.530997877821848 1 rotate no_reflect no_shear #
lump $-1 $-1 $68 $11 #
transform $-1 1 0 0 0 1 0 0 0 1 71.43650624103519 38.372786339887213 14.530997877821848 1 rotate no_reflect no_shear #
lump $-1 $-1 $69 $12 #
transform $-1 1 0 0 0 1 0 0 0 1 71.43650624103519 38.372786339887213 14.530997877821848 1 rotate no_reflect no_shear #
lump $-1 $-1 $70 $13 #
transform $-1 1 0 0 0 1 0 0 0 1 71.43650624103519 38.372786339887213 14.530997877821848 1 rotate no_reflect no_shear #
lump $-1 $-1 $71 $14 #
transform $-1 1 0 0 0 1 0 0 0 1 71.43650624103519 38.372786339887213 14.530997877821848 1 rotate no_reflect no_shear #
lump $-1 $-1 $72 $15 #
transform $-1 1 0 0 0 1 0 0 0 1 71.43650624103519 38.372786339887213 14.530997877821848 1 rotate no_reflect no_shear #
lump $-1 $-1 $73 $16 #
transform $-1 1 0 0 0 1 0 0 0 1 71.43650624103519 38.372786339887213 14.530997877821848 1 rotate no_reflect no_shear #
lump $-1 $-1 $74 $17 #
transform $-1 1 0 0 0 1 0 0 0 1 71.43650624103519 38.372786339887213 14.530997877821848 1 rotate no_reflect no_shear #
lump $-1 $-1 $75 $18 #
transform $-1 1 0 0 0 1 0 0 0 1 71.43650624103519 38.372786339887213 14.530997877821848 1 rotate no_reflect no_shear #
shell $-1 $-1 $-1 $76 $-1 $19 #
shell $-1 $-1 $-1 $77 $-1 $21 #
shell $-1 $-1 $-1 $78 $-1 $23 #
shell $-1 $-1 $-1 $79 $-1 $25 #
shell $-1 $-1 $-1 $80 $-1 $27 #
shell $-1 $-1 $-1 $81 $-1 $29 #
shell $-1 $-1 $-1 $82 $-1 $31 #
shell $-1 $-1 $-1 $83 $-1 $33 #
shell $-1 $-1 $-1 $84 $-1 $35 #
shell $-1 $-1 $-1 $85 $-1 $37 #
shell $-1 $-1 $-1 $86 $-1 $39 #
shell $-1 $-1 $-1 $87 $-1 $41 #
shell $-1 $-1 $-1 $88 $-1 $43 #
shell $-1 $-1 $-1 $89 $-1 $45 #
shell $-1 $-1 $-1 $90 $-1 $47 #
shell $-1 $-1 $-1 $91 $-1 $49 #
shell $-1 $-1 $-1 $92 $-1 $51 #
shell $-1 $-1 $-1 $93 $-1 $53 #
shell $-1 $-1 $-1 $94 $-1 $55 #
face $-1 $95 $96 $57 $-1 $97 reversed single #
face $-1 $98 $99 $58 $-1 $100 forward single #
face $-1 $101 $102 $59 $-1 $103 forward single #
face $-1 $104 $105 $60 $-1 $106 reversed single #
face $-1 $107 $108 $61 $-1 $109 forward single #
face $-1 $110 $111 $62 $-1 $112 forward single #
face $-1 $113 $114 $63 $-1 $115 forward single #
face $-1 $116 $117 $64 $-1 $118 reversed single #
face $-1 $119 $120 $65 $-1 $121 forward single #
face $-1 $122 $123 $66 $-1 $124 forward single #
face $-1 $125 $126 $67 $-1 $127 forward single #
face $-1 $128 $129 $68 $-1 $130 reversed single #
face $-1 $131 $132 $69 $-1 $133 forward single #
face $-1 $134 $135 $70 $-1 $136 forward single #
face $-1 $137 $138 $71 $-1 $139 forward single #
face $-1 $140 $141 $72 $-1 $142 reversed single #
face $-1 $143 $144 $73 $-1 $145 forward single #
face $-1 $146 $147 $74 $-1 $148 forward single #
face $-1 $149 $150 $75 $-1 $151 forward single #
face $-1 $152 $153 $57 $-1 $154 forward single #
loop $-1 $-1 $155 $76 #
plane-surface $-1 71.43650624103519 0 0 -1 0 0 0 0 1 forward_v I I I I #
face $-1 $156 $157 $58 $-1 $158 reversed single #
loop $-1 $-1 $159 $77 #
plane-surface $-1 -71.43650624103519 0 0 1 0 0 0 0 -1 forward_v I I I I #
face $-1 $160 $161 $59 $-1 $162 reversed single #
loop $-1 $-1 $163 $78 #
plane-surface $-1 71.43650624103519 0 0 -1 0 0 0 0 1 forward_v I I I I #
face $-1 $164 $165 $60 $-1 $166 reversed single #
loop $-1 $-1 $167 $79 #
plane-surface $-1 -20.919480501959399 -155.40750775040635 86.722587393862469 -1 0 0 0 -0.81915205242281985 0.57357642473473569 forward_v I I I I #
face $-1 $168 $169 $61 $-1 $170 forward single #
loop $-1 $171 $172 $80 #
cone-surface $-1 -37.217410484076694 -33.766581549742881 8.8190806353500264 0 0.81915205242281985 -0.57357642473473569 2 0 0 1 I I 0 1 2 forward I I I I #
face $-1 $173 $174 $62 $-1 $175 forward single #
loop $-1 $176 $177 $81 #
cone-surface $-1 -31.105686740782708 -33.766581549742881 8.8190806353500264 0 0.81915205242281985 -0.57357642473473569 2 0 0 1 I I 0 1 2 forward I I I I #
face $-1 $178 $179 $63 $-1 $180 forward single #
loop $-1 $181 $182 $82 #
cone-surface $-1 -24.993962997488723 -33.766581549742881 8.8190806353500264 0 0.81915205242281985 -0.57357642473473569 2 0 0 1 I I 0 1 2 forward I I I I #
face $-1 $183 $184 $64 $-1 $185 reversed single #
loop $-1 $-1 $186 $83 #
plane-surface $-1 40.710857188001889 -155.40750775040635 86.722587393862469 -1 0 0 0 -0.81915205242281985 0.57357642473473569 forward_v I I I I #
face $-1 $187 $188 $65 $-1 $189 forward single #
loop $-1 $190 $191 $84 #
cone-surface $-1 24.4129272058846 -33.766581549742881 8.8190806353500264 0 0.81915205242281985 -0.57357642473473569 2 0 0 1 I I 0 1 2 forward I I I I #
face $-1 $192 $193 $66 $-1 $194 forward single #
loop $-1 $195 $196 $85 #
cone-surface $-1 30.524650949178579 -33.766581549742881 8.8190806353500264 0 0.81915205242281985 -0.57357642473473569 2 0 0 1 I I 0 1 2 forward I I I I #
face $-1 $197 $198 $67 $-1 $199 forward single #
loop $-1 $200 $201 $86 #
cone-surface $-1 36.636374692472558 -33.766581549742881 8.8190806353500264 0 0.81915205242281985 -0.57357642473473569 2 0 0 1 I I 0 1 2 forward I I I I #
face $-1 $202 $203 $68 $-1 $204 reversed single #
loop $-1 $-1 $205 $87 #
plane-surface $-1 -41.291892979606018 111.38805655852151 149.58888076886439 1 0 0 0 -0.81915205242281985 -0.57357642473473569 forward_v I I I I #
face $-1 $206 $207 $69 $-1 $208 forward single #
loop $-1 $209 $210 $88 #
cone-surface $-1 -37.217410484076694 33.766581549742881 8.8190806353500122 0 -0.81915205242281985 -0.57357642473473569 2 0 0 1 I I 0 1 2 forward I I I I #
face $-1 $211 $212 $70 $-1 $213 forward single #
loop $-1 $214 $215 $89 #
cone-surface $-1 -31.105686740782708 33.766581549742881 8.8190806353500122 0 -0.81915205242281985 -0.57357642473473569 2 0 0 1 I I 0 1 2 forward I I I I #
face $-1 $216 $217 $71 $-1 $218 forward single #
loop $-1 $219 $220 $90 #
cone-surface $-1 -24.993962997488723 33.766581549742881 8.8190806353500122 0 -0.81915205242281985 -0.57357642473473569 2 0 0 1 I I 0 1 2 forward I I I I #
face $-1 $221 $222 $72 $-1 $223 reversed single #
loop $-1 $-1 $224 $91 #
plane-surface $-1 20.338444710355269 111.38805655852151 149.58888076886439 1 0 0 0 -0.81915205242281985 -0.57357642473473569 forward_v I I I I #
face $-1 $225 $226 $73 $-1 $227 forward single #
loop $-1 $228 $229 $92 #
cone-surface $-1 24.4129272058846 33.766581549742881 8.8190806353500122 0 -0.81915205242281985 -0.57357642473473569 2 0 0 1 I I 0 1 2 forward I I I I #
face $-1 $230 $231 $74 $-1 $232 forward single #
loop $-1 $233 $234 $93 #
cone-surface $-1 30.524650949178579 33.766581549742881 8.8190806353500122 0 -0.81915205242281985 -0.57357642473473569 2 0 0 1 I I 0 1 2 forward I I I I #
face $-1 $235 $236 $75 $-1 $237 forward single #
loop $-1 $238 $239 $94 #
cone-surface $-1 36.636374692472558 33.766581549742881 8.8190806353500122 0 -0.81915205242281985 -0.57357642473473569 2 0 0 1 I I 0 1 2 forward I I I I #
face $-1 $240 $241 $57 $-1 $242 reversed single #
loop $-1 $-1 $243 $95 #
plane-surface $-1 0 0 14.530997877821848 0 0 1 1 0 0 forward_v I I I I #
coedge $-1 $244 $245 $246 $247 reversed $96 $-1 #
face $-1 $248 $249 $58 $-1 $250 forward single #
loop $-1 $-1 $251 $98 #
plane-surface $-1 0 38.372786339887213 0 0 -1 0 0 0 -1 forward_v I I I I #
coedge $-1 $252 $253 $254 $255 forward $99 $-1 #
face $-1 $256 $257 $59 $-1 $258 forward single #
loop $-1 $-1 $259 $101 #
plane-surface $-1 0 -38.372786339887213 0 0 1 0 0 0 1 forward_v I I I I #
coedge $-1 $260 $261 $262 $263 forward $102 $-1 #
face $-1 $264 $265 $60 $-1 $266 reversed single #
loop $-1 $-1 $267 $104 #
plane-surface $-1 -31.105686740782708 -38.372786339887242 4.7739957033152791 0 -0.81915205242281985 0.57357642473473569 1 0 0 forward_v I I I I #
coedge $-1 $268 $269 $270 $271 reversed $105 $-1 #
face $-1 $-1 $272 $61 $-1 $273 forward single #
loop $-1 $274 $275 $107 #
cone-surface $-1 -37.217410484076694 -31.757187840534183 7.4120880553967634 0 0.81915205242281985 -0.57357642473473569 1 0 0 1 I I -0.70710678118654746 0.70710678118654746 1 forward I I I I #
loop $-1 $-1 $276 $80 #
coedge $-1 $172 $172 $277 $278 reversed $108 $-1 #
face $-1 $-1 $279 $62 $-1 $280 forward single #
loop $-1 $281 $282 $110 #
cone-surface $-1 -31.105686740782708 -31.757187840534183 7.4120880553967634 0 0.81915205242281985 -0.57357642473473569 1 0 0 1 I I -0.70710678118654746 0.70710678118654746 1 forward I I I I #
loop $-1 $-1 $283 $81 #
coedge $-1 $177 $177 $284 $285 reversed $111 $-1 #
face $-1 $-1 $286 $63 $-1 $287 forward single #
loop $-1 $288 $289 $113 #
cone-surface $-1 -24.993962997488723 -31.757187840534183 7.4120880553967634 0 0.81915205242281985 -0.57357642473473569 1 0 0 1 I I -0.70710678118654746 0.70710678118654746 1 forward I I I I #
loop $-1 $-1 $290 $82 #
coedge $-1 $182 $182 $291 $292 reversed $114 $-1 #
face $-1 $293 $294 $64 $-1 $295 reversed single #
loop $-1 $-1 $296 $116 #
plane-surface $-1 30.524650949178579 -38.372786339887242 4.7739957033152791 0 -0.81915205242281985 0.57357642473473569 1 0 0 forward_v I I I I #
coedge $-1 $297 $298 $299 $300 reversed $117 $-1 #
face $-1 $-1 $301 $65 $-1 $302 forward single #
loop $-1 $303 $304 $119 #
cone-surface $-1 24.4129272058846 -31.757187840534183 7.4120880553967634 0 0.81915205242281985 -0.57357642473473569 1 0 0 1 I I -0.70710678118654746 0.70710678118654746 1 forward I I I I #
loop $-1 $-1 $305 $84 #
coedge $-1 $191 $191 $306 $307 reversed $120 $-1 #
face $-1 $-1 $308 $66 $-1 $309 forward single #
loop $-1 $310 $311 $122 #
cone-surface $-1 30.524650949178579 -31.757187840534183 7.4120880553967634 0 0.81915205242281985 -0.57357642473473569 1 0 0 1 I I -0.70710678118654746 0.70710678118654746 1 forward I I I I #
loop $-1 $-1 $312 $85 #
coedge $-1 $196 $196 $313 $314 reversed $123 $-1 #
face $-1 $-1 $315 $67 $-1 $316 forward single #
loop $-1 $317 $318 $125 #
cone-surface $-1 36.636374692472558 -31.757187840534183 7.4120880553967634 0 0.81915205242281985 -0.57357642473473569 1 0 0 1 I I -0.70710678118654746 0.70710678118654746 1 forward I I I I #
loop $-1 $-1 $319 $86 #
coedge $-1 $201 $201 $320 $321 reversed $126 $-1 #
face $-1 $322 $323 $68 $-1 $324 reversed single #
loop $-1 $-1 $325 $128 #
plane-surface $-1 -31.105686740782708 -5.646664851997599 67.640289078317196 0 0.81915205242281985 0.57357642473473569 1 0 0 forward_v I I I I #
coedge $-1 $326 $327 $328 $329 reversed $129 $-1 #
face $-1 $-1 $330 $69 $-1 $331 forward single #
loop $-1 $332 $333 $131 #
cone-surface $-1 -37.217410484076694 31.757187840534186 7.4120880553967492 0 -0.81915205242281985 -0.57357642473473569 1 0 0 1 I I -0.70710678118654746 0.70710678118654746 1 forward I I I I #
loop $-1 $-1 $334 $88 #
coedge $-1 $210 $210 $335 $336 reversed $132 $-1 #
face $-1 $-1 $337 $70 $-1 $338 forward single #
loop $-1 $339 $340 $134 #
cone-surface $-1 -31.105686740782708 31.757187840534186 7.4120880553967492 0 -0.81915205242281985 -0.57357642473473569 1 0 0 1 I I -0.70710678118654746 0.70710678118654746 1 forward I I I I #
loop $-1 $-1 $341 $89 #
coedge $-1 $215 $215 $342 $343 reversed $135 $-1 #
face $-1 $-1 $344 $71 $-1 $345 forward single #
loop $-1 $346 $347 $137 #
cone-surface $-1 -24.993962997488723 31.757187840534186 7.4120880553967492 0 -0.81915205242281985 -0.57357642473473569 1 0 0 1 I I -0.70710678118654746 0.70710678118654746 1 forward I I I I #
loop $-1 $-1 $348 $90 #
coedge $-1 $220 $220 $349 $350 reversed $138 $-1 #
face $-1 $351 $352 $72 $-1 $353 reversed single #
loop $-1 $-1 $354 $140 #
plane-surface $-1 30.524650949178579 -5.646664851997599 67.640289078317196 0 0.81915205242281985 0.57357642473473569 1 0 0 forward_v I I I I #
coedge $-1 $355 $356 $357 $358 reversed $141 $-1 #
face $-1 $-1 $359 $73 $-1 $360 forward single #
loop $-1 $361 $362 $143 #
cone-surface $-1 24.4129272058846 31.757187840534186 7.4120880553967492 0 -0.81915205242281985 -0.57357642473473569 1 0 0 1 I I -0.70710678118654746 0.70710678118654746 1 forward I I I I #
loop $-1 $-1 $363 $92 #
coedge $-1 $229 $229 $364 $365 reversed $144 $-1 #
face $-1 $-1 $366 $74 $-1 $367 forward single #
loop $-1 $368 $369 $146 #
cone-surface $-1 30.524650949178579 31.757187840534186 7.4120880553967492 0 -0.81915205242281985 -0.57357642473473569 1 0 0 1 I I -0.70710678118654746 0.70710678118654746 1 forward I I I I #
loop $-1 $-1 $370 $93 #
coedge $-1 $234 $234 $371 $372 reversed $147 $-1 #
face $-1 $-1 $373 $75 $-1 $374 forward single #
loop $-1 $375 $376 $149 #
cone-surface $-1 36.636374692472558 31.757187840534186 7.4120880553967492 0 -0.81915205242281985 -0.57357642473473569 1 0 0 1 I I -0.70710678118654746 0.70710678118654746 1 forward I I I I #
loop $-1 $-1 $377 $94 #
coedge $-1 $239 $239 $378 $379 reversed $150 $-1 #
face $-1 $380 $381 $57 $-1 $382 reversed single #
loop $-1 $-1 $383 $152 #
plane-surface $-1 0 0 -14.530997877821848 0 0 1 1 0 0 forward_v I I I I #
coedge $-1 $384 $385 $244 $386 forward $153 $-1 #
coedge $-1 $387 $155 $243 $386 reversed $96 $-1 #
coedge $-1 $155 $387 $383 $388 reversed $96 $-1 #
coedge $-1 $389 $390 $155 $247 forward $391 $-1 #
edge $-1 $392 -14.530997877821848 $393 14.530997877821848 $155 $394 forward 7 unknown #
face $-1 $395 $396 $58 $-1 $397 reversed single #
loop $-1 $-1 $254 $156 #
plane-surface $-1 -76.339590516572144 0 -10.63361713677161 0 0 1 1 0 0 forward_v I I I I #
coedge $-1 $398 $399 $253 $400 forward $157 $-1 #
coedge $-1 $401 $159 $402 $403 reversed $99 $-1 #
coedge $-1 $159 $401 $251 $400 reversed $99 $-1 #
coedge $-1 $404 $405 $159 $255 reversed $249 $-1 #
edge $-1 $406 -38.372786339887213 $407 38.372786339887213 $254 $408 forward 7 unknown #
face $-1 $409 $410 $59 $-1 $411 reversed single #
loop $-1 $-1 $412 $160 #
plane-surface $-1 76.33959051657213 0 -10.63361713677161 0 0 1 1 0 0 forward_v I I I I #
coedge $-1 $413 $414 $261 $415 forward $161 $-1 #
coedge $-1 $416 $163 $417 $418 reversed $102 $-1 #
coedge $-1 $163 $416 $259 $415 reversed $102 $-1 #
coedge $-1 $419 $420 $163 $263 reversed $257 $-1 #
edge $-1 $421 -38.372786339887213 $422 38.372786339887213 $262 $423 forward 7 unknown #
face $-1 $424 $425 $60 $-1 $426 forward single #
loop $-1 $-1 $427 $164 #
plane-surface $-1 -41.291892979606018 -155.40750775040635 86.722587393862469 1 0 0 0 0.81915205242281985 -0.57357642473473569 forward_v I I I I #
coedge $-1 $428 $429 $430 $431 reversed $165 $-1 #
coedge $-1 $269 $167 $432 $433 reversed $105 $-1 #
coedge $-1 $167 $268 $428 $434 reversed $105 $-1 #
coedge $-1 $430 $435 $167 $271 forward $425 $-1 #
edge $-1 $436 39.330967535315963 $437 46.162893802032833 $270 $438 forward 7 unknown #
loop $-1 $-1 $277 $168 #
plane-surface $-1 -31.105686740782708 -38.372786339887242 4.7739957033152791 0 -0.81915205242281985 0.57357642473473569 1 0 0 forward_v I I I I #
loop $-1 $-1 $439 $107 #
coedge $-1 $275 $275 $276 $440 reversed $169 $-1 #
coedge $-1 $276 $276 $275 $440 forward $171 $-1 #
coedge $-1 $277 $277 $172 $278 forward $272 $-1 #
edge $-1 $441 -5.7962686500984556e-016 $441 6.2831853071795996 $277 $442 forward 7 unknown #
loop $-1 $-1 $284 $173 #
plane-surface $-1 -31.105686740782708 -38.372786339887242 4.7739957033152791 0 -0.81915205242281985 0.57357642473473569 1 0 0 forward_v I I I I #
loop $-1 $-1 $443 $110 #
coedge $-1 $282 $282 $283 $444 reversed $174 $-1 #
coedge $-1 $283 $283 $282 $444 forward $176 $-1 #
coedge $-1 $284 $284 $177 $285 forward $279 $-1 #
edge $-1 $445 -5.7962686500984556e-016 $445 6.2831853071795996 $284 $446 forward 7 unknown #
loop $-1 $-1 $291 $178 #
plane-surface $-1 -31.105686740782708 -38.372786339887242 4.7739957033152791 0 -0.81915205242281985 0.57357642473473569 1 0 0 forward_v I I I I #
loop $-1 $-1 $447 $113 #
coedge $-1 $289 $289 $290 $448 reversed $179 $-1 #
coedge $-1 $290 $290 $289 $448 forward $181 $-1 #
coedge $-1 $291 $291 $182 $292 forward $286 $-1 #
edge $-1 $449 -5.7962686500984556e-016 $449 6.2831853071795996 $291 $450 forward 7 unknown #
face $-1 $451 $452 $64 $-1 $453 reversed single #
loop $-1 $-1 $454 $183 #
plane-surface $-1 20.338444710355269 -155.40750775040635 86.722587393862469 1 0 0 0 0.81915205242281985 -0.57357642473473569 forward_v I I I I #
coedge $-1 $455 $456 $457 $458 reversed $184 $-1 #
coedge $-1 $298 $186 $459 $460 reversed $117 $-1 #
coedge $-1 $186 $297 $455 $461 reversed $117 $-1 #
coedge $-1 $457 $462 $186 $300 forward $463 $-1 #
edge $-1 $464 39.330967535315963 $465 46.162893802032833 $299 $466 forward 7 unknown #
loop $-1 $-1 $306 $187 #
plane-surface $-1 30.524650949178579 -38.372786339887242 4.7739957033152791 0 -0.81915205242281985 0.57357642473473569 1 0 0 forward_v I I I I #
loop $-1 $-1 $467 $119 #
coedge $-1 $304 $304 $305 $468 reversed $188 $-1 #
coedge $-1 $305 $305 $304 $468 forward $190 $-1 #
coedge $-1 $306 $306 $191 $307 forward $301 $-1 #
edge $-1 $469 -5.7962686500984556e-016 $469 6.2831853071795996 $306 $470 forward 7 unknown #
loop $-1 $-1 $313 $192 #
plane-surface $-1 30.524650949178579 -38.372786339887242 4.7739957033152791 0 -0.81915205242281985 0.57357642473473569 1 0 0 forward_v I I I I #
loop $-1 $-1 $471 $122 #
coedge $-1 $311 $311 $312 $472 reversed $193 $-1 #
coedge $-1 $312 $312 $311 $472 forward $195 $-1 #
coedge $-1 $313 $313 $196 $314 forward $308 $-1 #
edge $-1 $473 -5.7962686500984556e-016 $473 6.2831853071795996 $313 $474 forward 7 unknown #
loop $-1 $-1 $320 $197 #
plane-surface $-1 30.524650949178579 -38.372786339887242 4.7739957033152791 0 -0.81915205242281985 0.57357642473473569 1 0 0 forward_v I I I I #
loop $-1 $-1 $475 $125 #
coedge $-1 $318 $318 $319 $476 reversed $198 $-1 #
coedge $-1 $319 $319 $318 $476 forward $200 $-1 #
coedge $-1 $320 $320 $201 $321 forward $315 $-1 #
edge $-1 $477 -5.7962686500984556e-016 $477 6.2831853071795996 $320 $478 forward 7 unknown #
face $-1 $479 $480 $68 $-1 $481 reversed single #
loop $-1 $-1 $482 $202 #
plane-surface $-1 -20.919480501959399 111.38805655852151 149.58888076886439 -1 0 0 0 0.81915205242281985 0.57357642473473569 forward_v I I I I #
coedge $-1 $483 $484 $485 $486 reversed $203 $-1 #
coedge $-1 $327 $205 $487 $488 reversed $129 $-1 #
coedge $-1 $205 $326 $483 $489 reversed $129 $-1 #
coedge $-1 $485 $490 $205 $329 forward $491 $-1 #
edge $-1 $492 17.321241939373543 $493 24.153168206090427 $328 $494 forward 7 unknown #
loop $-1 $-1 $335 $206 #
plane-surface $-1 -31.105686740782708 -5.646664851997599 67.640289078317196 0 0.81915205242281985 0.57357642473473569 1 0 0 forward_v I I I I #
loop $-1 $-1 $495 $131 #
coedge $-1 $333 $333 $334 $496 reversed $207 $-1 #
coedge $-1 $334 $334 $333 $496 forward $209 $-1 #
coedge $-1 $335 $335 $210 $336 forward $330 $-1 #
edge $-1 $497 1.8898264995874128e-015 $497 6.2831853071796022 $335 $498 forward 7 unknown #
loop $-1 $-1 $342 $211 #
plane-surface $-1 -31.105686740782708 -5.646664851997599 67.640289078317196 0 0.81915205242281985 0.57357642473473569 1 0 0 forward_v I I I I #
loop $-1 $-1 $499 $134 #
coedge $-1 $340 $340 $341 $500 reversed $212 $-1 #
coedge $-1 $341 $341 $340 $500 forward $214 $-1 #
coedge $-1 $342 $342 $215 $343 forward $337 $-1 #
edge $-1 $501 1.8898264995874128e-015 $501 6.2831853071796022 $342 $502 forward 7 unknown #
loop $-1 $-1 $349 $216 #
plane-surface $-1 -31.105686740782708 -5.646664851997599 67.640289078317196 0 0.81915205242281985 0.57357642473473569 1 0 0 forward_v I I I I #
loop $-1 $-1 $503 $137 #
coedge $-1 $347 $347 $348 $504 reversed $217 $-1 #
coedge $-1 $348 $348 $347 $504 forward $219 $-1 #
coedge $-1 $349 $349 $220 $350 forward $344 $-1 #
edge $-1 $505 1.8898264995874128e-015 $505 6.2831853071796022 $349 $506 forward 7 unknown #
face $-1 $507 $508 $72 $-1 $509 forward single #
loop $-1 $-1 $510 $221 #
plane-surface $-1 40.710857188001889 111.38805655852151 149.58888076886439 -1 0 0 0 0.81915205242281985 0.57357642473473569 forward_v I I I I #
coedge $-1 $511 $512 $513 $514 reversed $222 $-1 #
coedge $-1 $356 $224 $515 $516 reversed $141 $-1 #
coedge $-1 $224 $355 $511 $517 reversed $141 $-1 #
coedge $-1 $513 $518 $224 $358 forward $508 $-1 #
edge $-1 $519 17.321241939373543 $520 24.153168206090427 $357 $521 forward 7 unknown #
loop $-1 $-1 $364 $225 #
plane-surface $-1 30.524650949178579 -5.646664851997599 67.640289078317196 0 0.81915205242281985 0.57357642473473569 1 0 0 forward_v I I I I #
loop $-1 $-1 $522 $143 #
coedge $-1 $362 $362 $363 $523 reversed $226 $-1 #
coedge $-1 $363 $363 $362 $523 forward $228 $-1 #
coedge $-1 $364 $364 $229 $365 forward $359 $-1 #
edge $-1 $524 1.8898264995874128e-015 $524 6.2831853071796022 $364 $525 forward 7 unknown #
loop $-1 $-1 $371 $230 #
plane-surface $-1 30.524650949178579 -5.646664851997599 67.640289078317196 0 0.81915205242281985 0.57357642473473569 1 0 0 forward_v I I I I #
loop $-1 $-1 $526 $146 #
coedge $-1 $369 $369 $370 $527 reversed $231 $-1 #
coedge $-1 $370 $370 $369 $527 forward $233 $-1 #
coedge $-1 $371 $371 $234 $372 forward $366 $-1 #
edge $-1 $528 1.8898264995874128e-015 $528 6.2831853071796022 $371 $529 forward 7 unknown #
loop $-1 $-1 $378 $235 #
plane-surface $-1 30.524650949178579 -5.646664851997599 67.640289078317196 0 0.81915205242281985 0.57357642473473569 1 0 0 forward_v I I I I #
loop $-1 $-1 $530 $149 #
coedge $-1 $376 $376 $377 $531 reversed $236 $-1 #
coedge $-1 $377 $377 $376 $531 forward $238 $-1 #
coedge $-1 $378 $378 $239 $379 forward $373 $-1 #
edge $-1 $532 1.8898264995874128e-015 $532 6.2831853071796022 $378 $533 forward 7 unknown #
face $-1 $534 $535 $57 $-1 $536 reversed single #
loop $-1 $-1 $537 $240 #
plane-surface $-1 0 -38.372786339887213 0 0 1 0 0 0 1 forward_v I I I I #
coedge $-1 $538 $539 $245 $388 forward $241 $-1 #
coedge $-1 $540 $243 $390 $541 forward $153 $-1 #
coedge $-1 $243 $540 $542 $543 forward $153 $-1 #
edge $-1 $544 -38.372786339887213 $392 38.372786339887213 $244 $545 forward 7 unknown #
coedge $-1 $245 $244 $546 $547 forward $96 $-1 #
edge $-1 $393 -38.372786339887213 $548 38.372786339887213 $245 $549 forward 7 unknown #
coedge $-1 $550 $246 $539 $551 reversed $391 $-1 #
coedge $-1 $246 $550 $384 $541 reversed $391 $-1 #
loop $-1 $-1 $246 $534 #
vertex $-1 $386 $552 #
vertex $-1 $388 $553 #
straight-curve $-1 71.43650624103519 38.372786339887213 0 0 0 -1 I I #
face $-1 $554 $555 $58 $-1 $556 reversed single #
loop $-1 $-1 $557 $248 #
plane-surface $-1 -76.339590516572144 0 -14.030997877821848 0 0 1 1 0 0 forward_v I I I I #
coedge $-1 $558 $251 $559 $560 reversed $157 $-1 #
coedge $-1 $251 $558 $404 $561 reversed $157 $-1 #
edge $-1 $406 10.63361713677161 $562 14.030997877821848 $251 $563 forward 7 unknown #
coedge $-1 $253 $252 $557 $564 forward $99 $-1 #
coedge $-1 $565 $566 $252 $403 forward $567 $-1 #
edge $-1 $568 -14.030997877821848 $407 -10.63361713677161 $402 $569 forward 7 unknown #
coedge $-1 $570 $254 $399 $561 forward $249 $-1 #
coedge $-1 $254 $570 $565 $571 forward $249 $-1 #
vertex $-1 $400 $572 #
vertex $-1 $571 $573 #
straight-curve $-1 -71.43650624103519 0 -10.63361713677161 0 -1 0 I I #
face $-1 $574 $575 $59 $-1 $576 reversed single #
loop $-1 $-1 $577 $256 #
plane-surface $-1 76.33959051657213 0 -14.030997877821848 0 0 1 1 0 0 forward_v I I I I #
coedge $-1 $420 $419 $578 $579 forward $257 $-1 #
coedge $-1 $580 $259 $581 $582 reversed $161 $-1 #
coedge $-1 $259 $580 $419 $583 reversed $161 $-1 #
edge $-1 $421 10.63361713677161 $584 14.030997877821848 $259 $585 forward 7 unknown #
coedge $-1 $261 $260 $586 $587 forward $102 $-1 #
coedge $-1 $588 $589 $260 $418 forward $590 $-1 #
edge $-1 $591 -14.030997877821848 $422 -10.63361713677161 $417 $592 forward 7 unknown #
coedge $-1 $412 $262 $414 $583 forward $257 $-1 #
coedge $-1 $262 $412 $588 $593 forward $257 $-1 #
vertex $-1 $415 $594 #
vertex $-1 $593 $595 #
straight-curve $-1 71.43650624103519 0 -10.63361713677161 0 1 0 I I #
face $-1 $-1 $596 $60 $-1 $597 reversed single #
loop $-1 $-1 $270 $264 #
plane-surface $-1 0 0 14.530997877821848 0 0 1 1 0 0 forward_v I I I I #
coedge $-1 $598 $599 $600 $601 reversed $265 $-1 #
coedge $-1 $602 $267 $269 $434 forward $165 $-1 #
coedge $-1 $267 $602 $598 $603 forward $165 $-1 #
coedge $-1 $600 $270 $267 $431 forward $425 $-1 #
edge $-1 $437 5.3666371315680443 $604 25.739049609214664 $430 $605 forward 7 unknown #
coedge $-1 $606 $607 $268 $433 forward $596 $-1 #
edge $-1 $608 -38.587297993615913 $436 -28.830295819109388 $432 $609 forward 7 unknown #
edge $-1 $437 -11.911100198855781 $608 -4.9769468549031306e-014 $269 $610 forward 7 unknown #
coedge $-1 $270 $600 $606 $611 forward $425 $-1 #
vertex $-1 $433 $612 #
vertex $-1 $271 $613 #
straight-curve $-1 -20.919480501959399 -77.703753875203176 14.530997877821846 0 1 0 I I #
coedge $-1 $439 $439 $-1 $614 reversed $274 $-1 #
edge $-1 $615 0 $615 6.2831853071796004 $275 $616 forward 7 unknown #
vertex $-1 $278 $617 #
ellipse-curve $-1 -37.217410484076694 -34.956823206528789 9.6524967905685735 0 -0.81915205242281985 0.57357642473473569 2 0 0 1 I I #
coedge $-1 $443 $443 $-1 $618 reversed $281 $-1 #
edge $-1 $619 0 $619 6.2831853071796004 $282 $620 forward 7 unknown #
vertex $-1 $285 $621 #
ellipse-curve $-1 -31.105686740782708 -34.956823206528789 9.6524967905685735 0 -0.81915205242281985 0.57357642473473569 2 0 0 1 I I #
coedge $-1 $447 $447 $-1 $622 reversed $288 $-1 #
edge $-1 $623 0 $623 6.2831853071796004 $289 $624 forward 7 unknown #
vertex $-1 $292 $625 #
ellipse-curve $-1 -24.993962997488723 -34.956823206528789 9.6524967905685735 0 -0.81915205242281985 0.57357642473473569 2 0 0 1 I I #
face $-1 $-1 $463 $64 $-1 $626 forward single #
loop $-1 $-1 $627 $293 #
plane-surface $-1 0 -38.372786339887213 0 0 1 0 0 0 1 forward_v I I I I #
coedge $-1 $628 $629 $630 $631 reversed $294 $-1 #
coedge $-1 $632 $296 $298 $461 forward $184 $-1 #
coedge $-1 $296 $632 $628 $633 forward $184 $-1 #
coedge $-1 $630 $299 $296 $458 forward $463 $-1 #
edge $-1 $465 -25.448531713412599 $634 -5.0761192357659795 $457 $635 forward 7 unknown #
coedge $-1 $636 $637 $297 $460 forward $452 $-1 #
edge $-1 $638 -38.587297993615913 $464 -28.830295819109388 $459 $639 forward 7 unknown #
edge $-1 $465 -11.911100198855781 $638 -4.9769468549031306e-014 $298 $640 forward 7 unknown #
coedge $-1 $299 $630 $636 $641 forward $463 $-1 #
loop $-1 $-1 $630 $451 #
vertex $-1 $460 $642 #
vertex $-1 $300 $643 #
straight-curve $-1 40.710857188001889 -77.703753875203176 14.530997877821846 0 1 0 I I #
coedge $-1 $467 $467 $-1 $644 reversed $303 $-1 #
edge $-1 $645 0 $645 6.2831853071796004 $304 $646 forward 7 unknown #
vertex $-1 $307 $647 #
ellipse-curve $-1 24.4129272058846 -34.956823206528789 9.6524967905685735 0 -0.81915205242281985 0.57357642473473569 2 0 0 1 I I #
coedge $-1 $471 $471 $-1 $648 reversed $310 $-1 #
edge $-1 $649 0 $649 6.2831853071796004 $311 $650 forward 7 unknown #
vertex $-1 $314 $651 #
ellipse-curve $-1 30.524650949178579 -34.956823206528789 9.6524967905685735 0 -0.81915205242281985 0.57357642473473569 2 0 0 1 I I #
coedge $-1 $475 $475 $-1 $652 reversed $317 $-1 #
edge $-1 $653 0 $653 6.2831853071796004 $318 $654 forward 7 unknown #
vertex $-1 $321 $655 #
ellipse-curve $-1 36.636374692472558 -34.956823206528789 9.6524967905685735 0 -0.81915205242281985 0.57357642473473569 2 0 0 1 I I #
face $-1 $-1 $491 $68 $-1 $656 forward single #
loop $-1 $-1 $657 $322 #
plane-surface $-1 0 38.372786339887213 0 0 -1 0 0 0 -1 forward_v I I I I #
coedge $-1 $658 $659 $660 $661 reversed $323 $-1 #
coedge $-1 $662 $325 $327 $489 forward $203 $-1 #
coedge $-1 $325 $662 $658 $663 forward $203 $-1 #
coedge $-1 $660 $328 $325 $486 forward $491 $-1 #
edge $-1 $493 -25.739049609214664 $664 -5.3666371315680443 $485 $665 forward 7 unknown #
coedge $-1 $666 $667 $326 $488 forward $480 $-1 #
edge $-1 $668 -70.020444681116899 $492 -60.263442506610346 $487 $669 forward 7 unknown #
edge $-1 $493 64.834472480918663 $668 76.745572679774426 $327 $670 forward 7 unknown #
coedge $-1 $328 $660 $666 $671 forward $491 $-1 #
loop $-1 $-1 $660 $479 #
vertex $-1 $488 $672 #
vertex $-1 $329 $673 #
straight-curve $-1 -41.291892979606018 55.694028279260756 14.530997877821846 0 -1 0 I I #
coedge $-1 $495 $495 $-1 $674 reversed $332 $-1 #
edge $-1 $675 0 $675 6.2831853071796004 $333 $676 forward 7 unknown #
vertex $-1 $336 $677 #
ellipse-curve $-1 -37.217410484076694 34.956823206528782 9.6524967905685575 0 0.81915205242281985 0.57357642473473569 2 0 0 1 I I #
coedge $-1 $499 $499 $-1 $678 reversed $339 $-1 #
edge $-1 $679 0 $679 6.2831853071796004 $340 $680 forward 7 unknown #
vertex $-1 $343 $681 #
ellipse-curve $-1 -31.105686740782708 34.956823206528782 9.6524967905685575 0 0.81915205242281985 0.57357642473473569 2 0 0 1 I I #
coedge $-1 $503 $503 $-1 $682 reversed $346 $-1 #
edge $-1 $683 0 $683 6.2831853071796004 $347 $684 forward 7 unknown #
vertex $-1 $350 $685 #
ellipse-curve $-1 -24.993962997488723 34.956823206528782 9.6524967905685575 0 0.81915205242281985 0.57357642473473569 2 0 0 1 I I #
face $-1 $-1 $686 $72 $-1 $687 reversed single #
loop $-1 $-1 $357 $351 #
plane-surface $-1 0 0 14.530997877821848 0 0 1 1 0 0 forward_v I I I I #
coedge $-1 $688 $689 $690 $691 reversed $352 $-1 #
coedge $-1 $692 $354 $356 $517 forward $222 $-1 #
coedge $-1 $354 $692 $688 $693 forward $222 $-1 #
coedge $-1 $690 $357 $354 $514 forward $508 $-1 #
edge $-1 $520 5.0761192357659795 $694 25.448531713412599 $513 $695 forward 7 unknown #
coedge $-1 $696 $697 $355 $516 forward $686 $-1 #
edge $-1 $698 -70.020444681116899 $519 -60.263442506610346 $515 $699 forward 7 unknown #
edge $-1 $520 64.834472480918663 $698 76.745572679774426 $356 $700 forward 7 unknown #
coedge $-1 $357 $690 $696 $701 forward $508 $-1 #
vertex $-1 $358 $702 #
vertex $-1 $358 $703 #
straight-curve $-1 20.338444710355269 55.694028279260756 14.530997877821846 0 -1 0 I I #
coedge $-1 $522 $522 $-1 $704 reversed $361 $-1 #
edge $-1 $705 0 $705 6.2831853071796004 $362 $706 forward 7 unknown #
vertex $-1 $365 $707 #
ellipse-curve $-1 24.4129272058846 34.956823206528782 9.6524967905685575 0 0.81915205242281985 0.57357642473473569 2 0 0 1 I I #
coedge $-1 $526 $526 $-1 $708 reversed $368 $-1 #
edge $-1 $709 0 $709 6.2831853071796004 $369 $710 forward 7 unknown #
vertex $-1 $372 $711 #
ellipse-curve $-1 30.524650949178579 34.956823206528782 9.6524967905685575 0 0.81915205242281985 0.57357642473473569 2 0 0 1 I I #
coedge $-1 $530 $530 $-1 $712 reversed $375 $-1 #
edge $-1 $713 0 $713 6.2831853071796004 $376 $714 forward 7 unknown #
vertex $-1 $379 $715 #
ellipse-curve $-1 36.636374692472558 34.956823206528782 9.6524967905685575 0 0.81915205242281985 0.57357642473473569 2 0 0 1 I I #
face $-1 $-1 $391 $57 $-1 $716 reversed single #
loop $-1 $-1 $717 $380 #
plane-surface $-1 -71.43650624103519 0 0 1 0 0 0 0 -1 forward_v I I I I #
coedge $-1 $718 $542 $717 $719 forward $381 $-1 #
coedge $-1 $720 $383 $718 $721 forward $241 $-1 #
coedge $-1 $383 $720 $389 $551 forward $241 $-1 #
coedge $-1 $385 $384 $722 $723 forward $153 $-1 #
edge $-1 $392 -71.43650624103519 $724 71.43650624103519 $390 $725 forward 7 unknown #
coedge $-1 $537 $546 $385 $543 reversed $381 $-1 #
edge $-1 $726 -71.43650624103519 $544 71.43650624103519 $542 $727 forward 7 unknown #
vertex $-1 $386 $728 #
straight-curve $-1 71.43650624103519 0 14.530997877821848 0 1 0 I I #
coedge $-1 $542 $718 $387 $547 reversed $381 $-1 #
edge $-1 $544 -14.530997877821848 $548 14.530997877821848 $387 $729 forward 7 unknown #
vertex $-1 $547 $730 #
straight-curve $-1 71.43650624103519 0 -14.530997877821848 0 -1 0 I I #
coedge $-1 $390 $389 $731 $732 reversed $391 $-1 #
edge $-1 $733 -71.43650624103519 $393 71.43650624103519 $389 $734 forward 7 unknown #
point $-1 71.43650624103519 38.372786339887213 14.530997877821848 #
point $-1 71.43650624103519 38.372786339887213 -14.530997877821848 #
face $-1 $-1 $567 $58 $-1 $735 reversed single #
loop $-1 $-1 $736 $395 #
plane-surface $-1 -81.242674792109099 0 -12.332307507296729 1 0 0 0 0 -1 forward_v I I I I #
coedge $-1 $737 $559 $401 $564 reversed $396 $-1 #
coedge $-1 $399 $398 $736 $738 reversed $157 $-1 #
coedge $-1 $557 $739 $398 $560 forward $396 $-1 #
edge $-1 $740 -4.9030842755369548 $562 4.9030842755369548 $398 $741 forward 7 unknown #
edge $-1 $406 -4.9030842755369548 $742 4.9030842755369548 $399 $743 forward 7 unknown #
vertex $-1 $400 $744 #
straight-curve $-1 -71.43650624103519 38.372786339887213 0 0 0 -1 I I #
edge $-1 $568 -38.372786339887213 $562 38.372786339887213 $557 $745 forward 7 unknown #
coedge $-1 $746 $402 $405 $571 reversed $567 $-1 #
coedge $-1 $402 $746 $737 $747 reversed $567 $-1 #
loop $-1 $-1 $402 $554 #
vertex $-1 $403 $748 #
straight-curve $-1 -71.43650624103519 -38.372786339887213 0 0 0 1 I I #
coedge $-1 $405 $404 $749 $750 forward $249 $-1 #
edge $-1 $751 -4.9030842755369548 $407 4.9030842755369548 $565 $752 forward 7 unknown #
point $-1 -71.43650624103519 38.372786339887213 -10.63361713677161 #
point $-1 -71.43650624103519 -38.372786339887213 -10.63361713677161 #
face $-1 $-1 $590 $59 $-1 $753 reversed single #
loop $-1 $-1 $754 $409 #
plane-surface $-1 81.242674792109085 0 -12.332307507296729 -1 0 0 0 0 1 forward_v I I I I #
coedge $-1 $581 $755 $756 $757 forward $410 $-1 #
coedge $-1 $754 $758 $412 $579 reversed $575 $-1 #
edge $-1 $759 -38.372786339887213 $760 38.372786339887213 $578 $761 forward 7 unknown #
coedge $-1 $414 $413 $754 $762 reversed $161 $-1 #
coedge $-1 $586 $577 $413 $582 forward $410 $-1 #
edge $-1 $763 -4.9030842755369548 $584 4.9030842755369548 $413 $764 forward 7 unknown #
edge $-1 $421 -4.9030842755369548 $759 4.9030842755369548 $414 $765 forward 7 unknown #
vertex $-1 $415 $766 #
straight-curve $-1 71.43650624103519 -38.372786339887213 0 0 0 -1 I I #
coedge $-1 $755 $581 $416 $587 reversed $410 $-1 #
edge $-1 $591 -38.372786339887213 $584 38.372786339887213 $586 $767 forward 7 unknown #
coedge $-1 $768 $417 $420 $593 reversed $590 $-1 #
coedge $-1 $417 $768 $755 $769 reversed $590 $-1 #
loop $-1 $-1 $417 $574 #
vertex $-1 $418 $770 #
straight-curve $-1 71.43650624103519 38.372786339887213 0 0 0 1 I I #
edge $-1 $760 -4.9030842755369548 $422 4.9030842755369548 $588 $771 forward 7 unknown #
point $-1 71.436506241035175 -38.372786339887213 -10.63361713677161 #
point $-1 71.436506241035175 38.372786339887213 -10.63361713677161 #
loop $-1 $-1 $432 $424 #
plane-surface $-1 0 -38.372786339887213 0 0 1 0 0 0 1 forward_v I I I I #
coedge $-1 $599 $427 $429 $603 reversed $265 $-1 #
coedge $-1 $427 $598 $772 $773 reversed $265 $-1 #
coedge $-1 $435 $430 $427 $601 forward $425 $-1 #
edge $-1 $604 -46.162893802032833 $774 -39.330967535315963 $600 $775 forward 7 unknown #
coedge $-1 $429 $428 $607 $776 reversed $165 $-1 #
edge $-1 $777 4.9769468549031306e-014 $604 11.911100198855781 $598 $778 forward 7 unknown #
vertex $-1 $431 $779 #
straight-curve $-1 -15.552843370391354 -31.540860073170347 14.530997877821848 -1 0 0 I I #
coedge $-1 $772 $432 $435 $611 reversed $596 $-1 #
coedge $-1 $432 $772 $602 $776 forward $596 $-1 #
vertex $-1 $433 $780 #
straight-curve $-1 -20.919480501959399 -38.372786339887213 43.361293696931234 0 0 1 I I #
straight-curve $-1 -20.919480501959399 -38.372786339887242 4.7739957033152791 0 -0.57357642473473569 -0.81915205242281985 I I #
edge $-1 $774 -41.291892979606018 $436 -20.919480501959399 $606 $781 forward 7 unknown #
point $-1 -20.919480501959399 -38.372786339887213 14.530997877821848 #
point $-1 -20.919480501959399 -31.540860073170343 14.530997877821848 #
edge $-1 $782 1 $782 0 $439 $-1 forward 7 unknown #
vertex $-1 $440 $783 #
ellipse-curve $-1 -37.217410484076694 -32.576339892957002 7.9856644801314989 0 -0.81915205242281985 0.57357642473473569 2 0 0 1 I I #
point $-1 -35.217410484076694 -34.95682320652876 9.6524967905685521 #
edge $-1 $784 1 $784 0 $443 $-1 forward 7 unknown #
vertex $-1 $444 $785 #
ellipse-curve $-1 -31.105686740782708 -32.576339892957002 7.9856644801314989 0 -0.81915205242281985 0.57357642473473569 2 0 0 1 I I #
point $-1 -29.105686740782708 -34.95682320652876 9.6524967905685521 #
edge $-1 $786 1 $786 0 $447 $-1 forward 7 unknown #
vertex $-1 $448 $787 #
ellipse-curve $-1 -24.993962997488723 -32.576339892957002 7.9856644801314989 0 -0.81915205242281985 0.57357642473473569 2 0 0 1 I I #
point $-1 -22.993962997488723 -34.95682320652876 9.6524967905685521 #
plane-surface $-1 0 0 14.530997877821848 0 0 1 1 0 0 forward_v I I I I #
coedge $-1 $637 $636 $629 $788 forward $452 $-1 #
coedge $-1 $629 $454 $456 $633 reversed $294 $-1 #
coedge $-1 $454 $628 $627 $788 reversed $294 $-1 #
coedge $-1 $462 $457 $454 $631 forward $463 $-1 #
edge $-1 $634 -46.162893802032833 $789 -39.330967535315963 $630 $790 forward 7 unknown #
coedge $-1 $456 $455 $637 $791 reversed $184 $-1 #
edge $-1 $792 4.9769468549031306e-014 $634 11.911100198855781 $628 $793 forward 7 unknown #
vertex $-1 $458 $794 #
straight-curve $-1 15.262325474589289 -31.540860073170347 14.530997877821848 -1 0 0 I I #
coedge $-1 $627 $459 $462 $641 reversed $452 $-1 #
coedge $-1 $459 $627 $632 $791 forward $452 $-1 #
vertex $-1 $460 $795 #
straight-curve $-1 40.710857188001889 -38.372786339887213 43.361293696931234 0 0 1 I I #
straight-curve $-1 40.710857188001889 -38.372786339887242 4.7739957033152791 0 -0.57357642473473569 -0.81915205242281985 I I #
edge $-1 $789 20.338444710355269 $464 40.710857188001889 $636 $796 forward 7 unknown #
point $-1 40.710857188001889 -38.372786339887213 14.530997877821848 #
point $-1 40.710857188001889 -31.540860073170343 14.530997877821848 #
edge $-1 $797 1 $797 0 $467 $-1 forward 7 unknown #
vertex $-1 $468 $798 #
ellipse-curve $-1 24.4129272058846 -32.576339892957002 7.9856644801314989 0 -0.81915205242281985 0.57357642473473569 2 0 0 1 I I #
point $-1 26.4129272058846 -34.95682320652876 9.6524967905685521 #
edge $-1 $799 1 $799 0 $471 $-1 forward 7 unknown #
vertex $-1 $472 $800 #
ellipse-curve $-1 30.524650949178579 -32.576339892957002 7.9856644801314989 0 -0.81915205242281985 0.57357642473473569 2 0 0 1 I I #
point $-1 32.524650949178579 -34.95682320652876 9.6524967905685521 #
edge $-1 $801 1 $801 0 $475 $-1 forward 7 unknown #
vertex $-1 $476 $802 #
ellipse-curve $-1 36.636374692472558 -32.576339892957002 7.9856644801314989 0 -0.81915205242281985 0.57357642473473569 2 0 0 1 I I #
point $-1 38.636374692472558 -34.95682320652876 9.6524967905685521 #
plane-surface $-1 0 0 14.530997877821848 0 0 1 1 0 0 forward_v I I I I #
coedge $-1 $667 $666 $659 $803 forward $480 $-1 #
coedge $-1 $659 $482 $484 $663 reversed $323 $-1 #
coedge $-1 $482 $658 $657 $803 reversed $323 $-1 #
coedge $-1 $490 $485 $482 $661 forward $491 $-1 #
edge $-1 $664 -24.153168206090427 $804 -17.321241939373543 $660 $805 forward 7 unknown #
coedge $-1 $484 $483 $667 $806 reversed $203 $-1 #
edge $-1 $807 -76.745572679774426 $664 -64.834472480918663 $658 $808 forward 7 unknown #
vertex $-1 $486 $809 #
straight-curve $-1 -15.552843370391354 31.540860073170336 14.530997877821846 1 0 0 I I #
coedge $-1 $657 $487 $490 $671 reversed $480 $-1 #
coedge $-1 $487 $657 $662 $806 forward $480 $-1 #
vertex $-1 $488 $810 #
straight-curve $-1 -41.291892979606018 38.372786339887213 74.794440384432193 0 0 1 I I #
straight-curve $-1 -41.291892979606018 -5.646664851997599 67.640289078317196 0 0.57357642473473569 -0.81915205242281985 I I #
edge $-1 $804 20.919480501959399 $492 41.291892979606018 $666 $811 forward 7 unknown #
point $-1 -41.291892979606018 38.372786339887213 14.530997877821848 #
point $-1 -41.291892979606018 31.540860073170329 14.530997877821854 #
edge $-1 $812 1 $812 0 $495 $-1 forward 7 unknown #
vertex $-1 $496 $813 #
ellipse-curve $-1 -37.217410484076694 32.576339892957009 7.9856644801314847 0 0.81915205242281985 0.57357642473473569 2 0 0 1 I I #
point $-1 -35.217410484076694 34.95682320652876 9.6524967905685379 #
edge $-1 $814 1 $814 0 $499 $-1 forward 7 unknown #
vertex $-1 $500 $815 #
ellipse-curve $-1 -31.105686740782708 32.576339892957009 7.9856644801314847 0 0.81915205242281985 0.57357642473473569 2 0 0 1 I I #
point $-1 -29.105686740782708 34.95682320652876 9.6524967905685379 #
edge $-1 $816 1 $816 0 $503 $-1 forward 7 unknown #
vertex $-1 $504 $817 #
ellipse-curve $-1 -24.993962997488723 32.576339892957009 7.9856644801314847 0 0.81915205242281985 0.57357642473473569 2 0 0 1 I I #
point $-1 -22.993962997488723 34.95682320652876 9.6524967905685379 #
loop $-1 $-1 $515 $507 #
plane-surface $-1 0 38.372786339887213 0 0 -1 0 0 0 -1 forward_v I I I I #
coedge $-1 $689 $510 $512 $693 reversed $352 $-1 #
coedge $-1 $510 $688 $818 $819 reversed $352 $-1 #
coedge $-1 $518 $513 $510 $691 forward $508 $-1 #
edge $-1 $694 -24.153168206090427 $820 -17.321241939373543 $690 $821 forward 7 unknown #
coedge $-1 $512 $511 $697 $822 reversed $222 $-1 #
edge $-1 $823 -76.745572679774426 $694 -64.834472480918663 $688 $824 forward 7 unknown #
vertex $-1 $514 $825 #
straight-curve $-1 15.262325474589289 31.540860073170336 14.530997877821846 1 0 0 I I #
coedge $-1 $818 $515 $518 $701 reversed $686 $-1 #
coedge $-1 $515 $818 $692 $822 forward $686 $-1 #
vertex $-1 $516 $826 #
straight-curve $-1 20.338444710355269 38.372786339887213 74.794440384432193 0 0 1 I I #
straight-curve $-1 20.338444710355269 -5.646664851997599 67.640289078317196 0 0.57357642473473569 -0.81915205242281985 I I #
edge $-1 $820 -40.710857188001889 $519 -20.338444710355269 $696 $827 forward 7 unknown #
point $-1 20.338444710355269 38.372786339887213 14.530997877821848 #
point $-1 20.338444710355269 31.540860073170329 14.530997877821854 #
edge $-1 $828 1 $828 0 $522 $-1 forward 7 unknown #
vertex $-1 $523 $829 #
ellipse-curve $-1 24.4129272058846 32.576339892957009 7.9856644801314847 0 0.81915205242281985 0.57357642473473569 2 0 0 1 I I #
point $-1 26.4129272058846 34.95682320652876 9.6524967905685379 #
edge $-1 $830 1 $830 0 $526 $-1 forward 7 unknown #
vertex $-1 $527 $831 #
ellipse-curve $-1 30.524650949178579 32.576339892957009 7.9856644801314847 0 0.81915205242281985 0.57357642473473569 2 0 0 1 I I #
point $-1 32.524650949178579 34.95682320652876 9.6524967905685379 #
edge $-1 $832 1 $832 0 $530 $-1 forward 7 unknown #
vertex $-1 $531 $833 #
ellipse-curve $-1 36.636374692472558 32.576339892957009 7.9856644801314847 0 0.81915205242281985 0.57357642473473569 2 0 0 1 I I #
point $-1 38.636374692472558 34.95682320652876 9.6524967905685379 #
plane-surface $-1 0 38.372786339887213 0 0 -1 0 0 0 -1 forward_v I I I I #
coedge $-1 $722 $834 $537 $719 reversed $535 $-1 #
coedge $-1 $546 $537 $538 $721 reversed $381 $-1 #
edge $-1 $726 -14.530997877821848 $835 14.530997877821848 $717 $836 forward 7 unknown #
coedge $-1 $539 $538 $834 $837 forward $241 $-1 #
edge $-1 $548 -71.43650624103519 $835 71.43650624103519 $718 $838 forward 7 unknown #
coedge $-1 $731 $717 $540 $723 reversed $535 $-1 #
edge $-1 $724 -38.372786339887213 $726 38.372786339887213 $722 $839 forward 7 unknown #
vertex $-1 $541 $840 #
straight-curve $-1 0 38.372786339887213 14.530997877821848 -1 0 0 I I #
vertex $-1 $723 $841 #
straight-curve $-1 0 -38.372786339887213 14.530997877821848 1 0 0 I I #
point $-1 71.43650624103519 -38.372786339887213 14.530997877821848 #
straight-curve $-1 71.43650624103519 -38.372786339887213 0 0 0 -1 I I #
point $-1 71.43650624103519 -38.372786339887213 -14.530997877821848 #
coedge $-1 $834 $722 $550 $732 forward $535 $-1 #
edge $-1 $724 -14.530997877821848 $733 14.530997877821848 $550 $842 forward 7 unknown #
vertex $-1 $551 $843 #
straight-curve $-1 0 38.372786339887213 -14.530997877821848 1 0 0 I I #
plane-surface $-1 0 -38.372786339887213 0 0 1 0 0 0 1 forward_v I I I I #
coedge $-1 $844 $749 $558 $738 forward $555 $-1 #
coedge $-1 $739 $557 $566 $747 forward $396 $-1 #
edge $-1 $742 -1.6986903705251191 $740 1.6986903705251191 $558 $845 forward 7 unknown #
coedge $-1 $559 $737 $844 $846 forward $396 $-1 #
vertex $-1 $560 $847 #
straight-curve $-1 -76.339590516572144 38.372786339887213 -14.030997877821848 1 0 0 I I #
vertex $-1 $561 $848 #
straight-curve $-1 -76.339590516572144 38.372786339887213 -10.63361713677161 -1 0 0 I I #
point $-1 -71.43650624103519 38.372786339887213 -14.030997877821848 #
straight-curve $-1 -71.43650624103519 0 -14.030997877821848 0 1 0 I I #
coedge $-1 $566 $565 $849 $850 forward $567 $-1 #
edge $-1 $568 -4.9030842755369548 $851 4.9030842755369548 $566 $852 forward 7 unknown #
point $-1 -71.43650624103519 -38.372786339887213 -14.030997877821848 #
coedge $-1 $736 $849 $570 $750 reversed $555 $-1 #
edge $-1 $742 -38.372786339887213 $751 38.372786339887213 $749 $853 forward 7 unknown #
vertex $-1 $750 $854 #
straight-curve $-1 -76.339590516572144 -38.372786339887213 -10.63361713677161 1 0 0 I I #
plane-surface $-1 0 38.372786339887213 0 0 -1 0 0 0 -1 forward_v I I I I #
coedge $-1 $756 $578 $580 $762 forward $575 $-1 #
coedge $-1 $577 $586 $589 $769 forward $410 $-1 #
coedge $-1 $758 $754 $577 $757 reversed $575 $-1 #
edge $-1 $855 -38.372786339887213 $763 38.372786339887213 $756 $856 forward 7 unknown #
coedge $-1 $578 $756 $768 $857 reversed $575 $-1 #
vertex $-1 $579 $858 #
vertex $-1 $579 $859 #
straight-curve $-1 81.242674792109085 0 -10.63361713677161 0 1 0 I I #
edge $-1 $759 -1.6986903705251191 $763 1.6986903705251191 $754 $860 forward 7 unknown #
vertex $-1 $762 $861 #
straight-curve $-1 76.33959051657213 -38.372786339887213 -14.030997877821848 -1 0 0 I I #
straight-curve $-1 76.33959051657213 -38.372786339887213 -10.63361713677161 1 0 0 I I #
point $-1 71.436506241035175 -38.372786339887213 -14.030997877821848 #
straight-curve $-1 71.43650624103519 0 -14.030997877821848 0 -1 0 I I #
coedge $-1 $589 $588 $758 $857 forward $590 $-1 #
edge $-1 $591 -4.9030842755369548 $855 4.9030842755369548 $589 $862 forward 7 unknown #
point $-1 71.436506241035175 38.372786339887213 -14.030997877821848 #
straight-curve $-1 76.33959051657213 38.372786339887213 -10.63361713677161 -1 0 0 I I #
coedge $-1 $607 $606 $599 $773 forward $596 $-1 #
edge $-1 $774 28.830295819109388 $777 38.587297993615913 $772 $863 forward 7 unknown #
vertex $-1 $611 $864 #
straight-curve $-1 -41.291892979606018 -77.703753875203176 14.530997877821846 0 -1 0 I I #
edge $-1 $777 -25.739049609214664 $608 -5.3666371315680443 $607 $865 forward 7 unknown #
vertex $-1 $776 $866 #
straight-curve $-1 -41.291892979606018 -38.372786339887242 4.7739957033152791 0 0.57357642473473569 0.81915205242281985 I I #
point $-1 -41.291892979606018 -31.540860073170343 14.530997877821848 #
point $-1 -20.919480501959399 -38.372786339887213 4.77399570331532 #
straight-curve $-1 0 -38.372786339887213 14.530997877821848 1 0 0 I I #
vertex $-1 $614 $867 #
point $-1 -35.217410484076694 -32.576339892957002 7.9856644801314989 #
vertex $-1 $618 $868 #
point $-1 -29.105686740782708 -32.576339892957002 7.9856644801314989 #
vertex $-1 $622 $869 #
point $-1 -22.993962997488723 -32.576339892957002 7.9856644801314989 #
edge $-1 $789 28.830295819109388 $792 38.587297993615913 $627 $870 forward 7 unknown #
vertex $-1 $641 $871 #
straight-curve $-1 20.338444710355269 -77.703753875203176 14.530997877821846 0 -1 0 I I #
edge $-1 $792 5.0761192357659795 $638 25.448531713412599 $637 $872 forward 7 unknown #
vertex $-1 $791 $873 #
straight-curve $-1 20.338444710355269 -38.372786339887242 4.7739957033152791 0 0.57357642473473569 0.81915205242281985 I I #
point $-1 20.338444710355269 -31.540860073170343 14.530997877821848 #
point $-1 40.710857188001889 -38.372786339887213 4.77399570331532 #
straight-curve $-1 0 -38.372786339887213 14.530997877821848 1 0 0 I I #
vertex $-1 $644 $874 #
point $-1 26.4129272058846 -32.576339892957002 7.9856644801314989 #
vertex $-1 $648 $875 #
point $-1 32.524650949178579 -32.576339892957002 7.9856644801314989 #
vertex $-1 $652 $876 #
point $-1 38.636374692472558 -32.576339892957002 7.9856644801314989 #
edge $-1 $804 60.263442506610346 $807 70.020444681116899 $657 $877 forward 7 unknown #
vertex $-1 $671 $878 #
straight-curve $-1 -20.919480501959399 55.694028279260756 14.530997877821846 0 1 0 I I #
edge $-1 $807 5.3666371315680443 $668 25.739049609214664 $667 $879 forward 7 unknown #
vertex $-1 $806 $880 #
straight-curve $-1 -20.919480501959399 -5.646664851997599 67.640289078317196 0 -0.57357642473473569 0.81915205242281985 I I #
point $-1 -20.919480501959399 31.540860073170329 14.530997877821854 #
point $-1 -41.291892979606018 38.372786339887213 4.7739957033152933 #
straight-curve $-1 0 38.372786339887213 14.530997877821848 -1 0 0 I I #
vertex $-1 $674 $881 #
point $-1 -35.217410484076694 32.576339892957009 7.9856644801314847 #
vertex $-1 $678 $882 #
point $-1 -29.105686740782708 32.576339892957009 7.9856644801314847 #
vertex $-1 $682 $883 #
point $-1 -22.993962997488723 32.576339892957009 7.9856644801314847 #
coedge $-1 $697 $696 $689 $819 forward $686 $-1 #
edge $-1 $820 60.263442506610346 $823 70.020444681116899 $818 $884 forward 7 unknown #
vertex $-1 $701 $885 #
straight-curve $-1 40.710857188001889 55.694028279260756 14.530997877821846 0 1 0 I I #
edge $-1 $823 -25.448531713412599 $698 -5.0761192357659795 $697 $886 forward 7 unknown #
vertex $-1 $822 $887 #
straight-curve $-1 40.710857188001889 -5.646664851997599 67.640289078317196 0 -0.57357642473473569 0.81915205242281985 I I #
point $-1 40.710857188001889 31.540860073170329 14.530997877821854 #
point $-1 20.338444710355269 38.372786339887213 4.7739957033152933 #
straight-curve $-1 0 38.372786339887213 14.530997877821848 -1 0 0 I I #
vertex $-1 $704 $888 #
point $-1 26.4129272058846 32.576339892957009 7.9856644801314847 #
vertex $-1 $708 $889 #
point $-1 32.524650949178579 32.576339892957009 7.9856644801314847 #
vertex $-1 $712 $890 #
point $-1 38.636374692472558 32.576339892957009 7.9856644801314847 #
coedge $-1 $717 $731 $720 $837 reversed $535 $-1 #
vertex $-1 $837 $891 #
straight-curve $-1 -71.43650624103519 -38.372786339887213 0 0 0 -1 I I #
edge $-1 $835 -38.372786339887213 $733 38.372786339887213 $834 $892 forward 7 unknown #
straight-curve $-1 0 -38.372786339887213 -14.530997877821848 -1 0 0 I I #
straight-curve $-1 -71.43650624103519 0 14.530997877821848 0 -1 0 I I #
point $-1 -71.43650624103519 38.372786339887213 14.530997877821848 #
point $-1 -71.43650624103519 -38.372786339887213 14.530997877821848 #
straight-curve $-1 -71.43650624103519 38.372786339887213 0 0 0 -1 I I #
point $-1 -71.43650624103519 38.372786339887213 -14.530997877821848 #
coedge $-1 $849 $736 $739 $846 reversed $555 $-1 #
straight-curve $-1 -81.242674792109099 38.372786339887213 -12.332307507296729 0 0 -1 I I #
edge $-1 $851 -38.372786339887213 $740 38.372786339887213 $844 $893 forward 7 unknown #
point $-1 -81.242674792109099 38.372786339887213 -14.030997877821848 #
point $-1 -81.242674792109099 38.372786339887213 -10.63361713677161 #
coedge $-1 $749 $844 $746 $850 reversed $555 $-1 #
edge $-1 $751 -1.6986903705251191 $851 1.6986903705251191 $849 $894 forward 7 unknown #
vertex $-1 $846 $895 #
straight-curve $-1 -76.339590516572144 -38.372786339887213 -14.030997877821848 -1 0 0 I I #
straight-curve $-1 -81.242674792109099 0 -10.63361713677161 0 -1 0 I I #
point $-1 -81.242674792109099 -38.372786339887213 -10.63361713677161 #
vertex $-1 $757 $896 #
straight-curve $-1 81.242674792109085 0 -14.030997877821848 0 -1 0 I I #
edge $-1 $760 -1.6986903705251191 $855 1.6986903705251191 $758 $897 forward 7 unknown #
point $-1 81.242674792109085 -38.372786339887213 -10.63361713677161 #
point $-1 81.242674792109085 38.372786339887213 -10.63361713677161 #
straight-curve $-1 81.242674792109085 -38.372786339887213 -12.332307507296729 0 0 -1 I I #
point $-1 81.242674792109085 -38.372786339887213 -14.030997877821848 #
straight-curve $-1 76.33959051657213 38.372786339887213 -14.030997877821848 1 0 0 I I #
straight-curve $-1 -41.291892979606018 -38.372786339887213 43.361293696931234 0 0 -1 I I #
point $-1 -41.291892979606018 -38.372786339887213 14.530997877821848 #
straight-curve $-1 -15.552843370391354 -38.372786339887213 4.7739957033153164 1 0 0 I I #
point $-1 -41.291892979606018 -38.372786339887213 4.77399570331532 #
point $-1 -37.217410484076694 -30.938035788111364 6.8385116306620279 #
point $-1 -31.105686740782708 -30.938035788111364 6.8385116306620279 #
point $-1 -24.993962997488723 -30.938035788111364 6.8385116306620279 #
straight-curve $-1 20.338444710355269 -38.372786339887213 43.361293696931234 0 0 -1 I I #
point $-1 20.338444710355269 -38.372786339887213 14.530997877821848 #
straight-curve $-1 15.262325474589289 -38.372786339887213 4.7739957033153164 1 0 0 I I #
point $-1 20.338444710355269 -38.372786339887213 4.77399570331532 #
point $-1 24.4129272058846 -30.938035788111364 6.8385116306620279 #
point $-1 30.524650949178579 -30.938035788111364 6.8385116306620279 #
point $-1 36.636374692472558 -30.938035788111364 6.8385116306620279 #
straight-curve $-1 -20.919480501959399 38.372786339887213 74.794440384432193 0 0 -1 I I #
point $-1 -20.919480501959399 38.372786339887213 14.530997877821848 #
straight-curve $-1 -15.552843370391354 38.372786339887213 4.7739957033153004 -1 0 0 I I #
point $-1 -20.919480501959399 38.372786339887213 4.7739957033152933 #
point $-1 -37.217410484076694 30.938035788111367 6.8385116306620137 #
point $-1 -31.105686740782708 30.938035788111367 6.8385116306620137 #
point $-1 -24.993962997488723 30.938035788111367 6.8385116306620137 #
straight-curve $-1 40.710857188001889 38.372786339887213 74.794440384432193 0 0 -1 I I #
point $-1 40.710857188001889 38.372786339887213 14.530997877821848 #
straight-curve $-1 15.262325474589289 38.372786339887213 4.7739957033153004 -1 0 0 I I #
point $-1 40.710857188001889 38.372786339887213 4.7739957033152933 #
point $-1 24.4129272058846 30.938035788111367 6.8385116306620137 #
point $-1 30.524650949178579 30.938035788111367 6.8385116306620137 #
point $-1 36.636374692472558 30.938035788111367 6.8385116306620137 #
point $-1 -71.43650624103519 -38.372786339887213 -14.530997877821848 #
straight-curve $-1 -71.43650624103519 0 -14.530997877821848 0 1 0 I I #
straight-curve $-1 -81.242674792109099 0 -14.030997877821848 0 1 0 I I #
straight-curve $-1 -81.242674792109099 -38.372786339887213 -12.332307507296729 0 0 -1 I I #
point $-1 -81.242674792109099 -38.372786339887213 -14.030997877821848 #
point $-1 81.242674792109085 38.372786339887213 -14.030997877821848 #
straight-curve $-1 81.242674792109085 38.372786339887213 -12.332307507296729 0 0 -1 I I #
End-of-ACIS-data 