500 0 8 0           
7 Unknown 11 ACIS 5.0 NT 24 Thu Mar 25 21:37:25 1999 
-1 9.9999999999999995e-007 1e-010 
body $-1 $8 $-1 $9 #
body $-1 $10 $-1 $11 #
body $-1 $12 $-1 $13 #
body $-1 $14 $-1 $15 #
body $-1 $16 $-1 $17 #
body $-1 $18 $-1 $19 #
body $-1 $20 $-1 $21 #
body $-1 $22 $-1 $23 #
lump $-1 $-1 $24 $0 #
transform $-1 1 0 0 0 1 0 0 0 1 53.71135593737602 34.751658728304101 13.240883624538657 1 rotate no_reflect no_shear #
lump $-1 $-1 $25 $1 #
transform $-1 1 0 0 0 1 0 0 0 1 53.71135593737602 34.751658728304101 13.240883624538657 1 rotate no_reflect no_shear #
lump $-1 $-1 $26 $2 #
transform $-1 1 0 0 0 1 0 0 0 1 53.71135593737602 34.751658728304101 13.240883624538657 1 rotate no_reflect no_shear #
lump $-1 $-1 $27 $3 #
transform $-1 1 0 0 0 1 0 0 0 1 53.71135593737602 34.751658728304101 13.240883624538657 1 rotate no_reflect no_shear #
lump $-1 $-1 $28 $4 #
transform $-1 1 0 0 0 1 0 0 0 1 53.71135593737602 34.751658728304101 13.240883624538657 1 rotate no_reflect no_shear #
lump $-1 $-1 $29 $5 #
transform $-1 1 0 0 0 1 0 0 0 1 53.71135593737602 34.751658728304101 13.240883624538657 1 rotate no_reflect no_shear #
lump $-1 $-1 $30 $6 #
transform $-1 1 0 0 0 1 0 0 0 1 53.71135593737602 34.751658728304101 13.240883624538657 1 rotate no_reflect no_shear #
lump $-1 $-1 $31 $7 #
transform $-1 1 0 0 0 1 0 0 0 1 53.71135593737602 34.751658728304101 13.240883624538657 1 rotate no_reflect no_shear #
shell $-1 $-1 $-1 $32 $-1 $8 #
shell $-1 $-1 $-1 $33 $-1 $10 #
shell $-1 $-1 $-1 $34 $-1 $12 #
shell $-1 $-1 $-1 $35 $-1 $14 #
shell $-1 $-1 $-1 $36 $-1 $16 #
shell $-1 $-1 $-1 $37 $-1 $18 #
shell $-1 $-1 $-1 $38 $-1 $20 #
shell $-1 $-1 $-1 $39 $-1 $22 #
face $-1 $40 $41 $24 $-1 $42 reversed single #
face $-1 $43 $44 $25 $-1 $45 forward single #
face $-1 $46 $47 $26 $-1 $48 reversed single #
face $-1 $49 $50 $27 $-1 $51 forward single #
face $-1 $52 $53 $28 $-1 $54 forward single #
face $-1 $55 $56 $29 $-1 $57 reversed single #
face $-1 $58 $59 $30 $-1 $60 forward single #
face $-1 $61 $62 $31 $-1 $63 forward single #
face $-1 $64 $65 $24 $-1 $66 forward single #
loop $-1 $-1 $67 $32 #
plane-surface $-1 -53.71135593737602 0 0 1 0 0 0 0 -1 forward_v I I I I #
face $-1 $68 $69 $25 $-1 $70 reversed single #
loop $-1 $-1 $71 $33 #
plane-surface $-1 -53.71135593737602 0 0 1 0 0 0 0 -1 forward_v I I I I #
face $-1 $72 $73 $26 $-1 $74 reversed single #
loop $-1 $-1 $75 $34 #
plane-surface $-1 -26.071594519263471 28.271377089364684 136.89227022216764 1 0 0 0 -0.50000000669873634 -0.8660253999169214 forward_v I I I I #
face $-1 $76 $77 $27 $-1 $78 forward single #
loop $-1 $79 $80 $35 #
cone-surface $-1 -22.860168259888098 30.321245956501805 9.6982531287209248 0 -0.50000000669873634 -0.8660253999169214 1 0 0 1 I I 0 1 1 forward I I I I #
face $-1 $81 $82 $28 $-1 $83 forward single #
loop $-1 $84 $85 $36 #
cone-surface $-1 -18.043028870825033 30.321245956501805 9.6982531287209248 0 -0.50000000669873634 -0.8660253999169214 1 0 0 1 I I 0 1 1 forward I I I I #
face $-1 $86 $87 $29 $-1 $88 reversed single #
loop $-1 $-1 $89 $37 #
plane-surface $-1 11.542526592779986 -100.8876848339757 94.201992124274724 -1 0 0 0 -0.61566148304635926 0.78801074757464917 forward_v I I I I #
face $-1 $90 $91 $30 $-1 $92 forward single #
loop $-1 $93 $94 $38 #
cone-surface $-1 -5.0148722550885267 -32.056137941406412 10.968073126839279 0 0.61566148304635926 -0.78801074757464917 1 0 0 1 I I 0 1 1 forward I I I I #
face $-1 $95 $96 $31 $-1 $97 forward single #
loop $-1 $98 $99 $39 #
cone-surface $-1 4.9195670536325835 -32.056137941406412 10.968073126839279 0 0.61566148304635926 -0.78801074757464917 1 0 0 1 I I 0 1 1 forward I I I I #
face $-1 $100 $101 $24 $-1 $102 reversed single #
loop $-1 $-1 $103 $40 #
plane-surface $-1 0 0 13.240883624538657 0 0 1 1 0 0 forward_v I I I I #
coedge $-1 $104 $105 $106 $107 reversed $41 $-1 #
face $-1 $108 $109 $25 $-1 $110 reversed single #
loop $-1 $-1 $111 $43 #
plane-surface $-1 0 0 -13.240883624538657 0 0 1 1 0 0 forward_v I I I I #
coedge $-1 $112 $113 $114 $115 forward $44 $-1 #
face $-1 $116 $117 $26 $-1 $118 reversed single #
loop $-1 $-1 $119 $46 #
plane-surface $-1 -20.451598565356562 -25.439979567607757 43.861473210675285 0 0.50000000669873634 0.8660253999169214 1 0 0 forward_v I I I I #
coedge $-1 $120 $121 $122 $123 reversed $47 $-1 #
face $-1 $-1 $124 $27 $-1 $125 forward single #
loop $-1 $126 $127 $49 #
cone-surface $-1 -22.860168259888098 29.218444342557156 7.7881447368206658 0 -0.50000000669873634 -0.8660253999169214 0.5 0 0 1 I I -0.70710678118654746 0.70710678118654746 0.5 forward I I I I #
loop $-1 $-1 $128 $35 #
coedge $-1 $80 $80 $129 $130 reversed $50 $-1 #
face $-1 $-1 $131 $28 $-1 $132 forward single #
loop $-1 $133 $134 $52 #
cone-surface $-1 -18.043028870825033 29.218444342557156 7.7881447368206658 0 -0.50000000669873634 -0.8660253999169214 0.5 0 0 1 I I -0.70710678118654746 0.70710678118654746 0.5 forward I I I I #
loop $-1 $-1 $135 $36 #
coedge $-1 $85 $85 $136 $137 reversed $53 $-1 #
face $-1 $138 $139 $29 $-1 $140 reversed single #
loop $-1 $-1 $141 $55 #
plane-surface $-1 -0.047652600727971617 -34.751658728304108 9.5517406333552088 0 -0.61566148304635926 0.78801074757464917 1 0 0 forward_v I I I I #
coedge $-1 $142 $143 $144 $145 reversed $56 $-1 #
face $-1 $-1 $146 $30 $-1 $147 forward single #
loop $-1 $148 $149 $58 #
cone-surface $-1 -5.0148722550885267 -31.41373021607005 10.14582875094429 0 0.61566148304635926 -0.78801074757464917 0.5 0 0 1 I I -0.70710678118654746 0.70710678118654746 0.5 forward I I I I #
loop $-1 $-1 $150 $38 #
coedge $-1 $94 $94 $151 $152 reversed $59 $-1 #
face $-1 $-1 $153 $31 $-1 $154 forward single #
loop $-1 $155 $156 $61 #
cone-surface $-1 4.9195670536325835 -31.41373021607005 10.14582875094429 0 0.61566148304635926 -0.78801074757464917 0.5 0 0 1 I I -0.70710678118654746 0.70710678118654746 0.5 forward I I I I #
loop $-1 $-1 $157 $39 #
coedge $-1 $99 $99 $158 $159 reversed $62 $-1 #
face $-1 $160 $161 $24 $-1 $162 reversed single #
loop $-1 $-1 $163 $64 #
plane-surface $-1 0 0 -13.240883624538657 0 0 1 1 0 0 forward_v I I I I #
coedge $-1 $164 $165 $166 $167 forward $65 $-1 #
coedge $-1 $168 $67 $169 $170 reversed $41 $-1 #
coedge $-1 $67 $168 $171 $172 forward $41 $-1 #
coedge $-1 $173 $174 $67 $107 forward $101 $-1 #
edge $-1 $175 -34.751658728304101 $176 34.751658728304101 $67 $177 forward 7 unknown #
face $-1 $178 $179 $25 $-1 $180 reversed single #
loop $-1 $-1 $181 $68 #
plane-surface $-1 -58.986296550396403 -31.017650416043086 0 0 1 0 0 0 1 forward_v I I I I #
coedge $-1 $182 $183 $113 $184 forward $69 $-1 #
coedge $-1 $185 $71 $186 $187 reversed $44 $-1 #
coedge $-1 $71 $185 $111 $184 reversed $44 $-1 #
coedge $-1 $188 $189 $71 $115 reversed $190 $-1 #
edge $-1 $191 -13.240883624538657 $192 13.240883624538657 $114 $193 forward 7 unknown #
face $-1 $194 $195 $26 $-1 $196 forward single #
loop $-1 $-1 $197 $72 #
plane-surface $-1 -14.831602611449652 28.271377089364684 136.89227022216764 -1 0 0 0 0.50000000669873634 0.8660253999169214 forward_v I I I I #
coedge $-1 $198 $199 $200 $201 reversed $73 $-1 #
coedge $-1 $121 $75 $202 $203 reversed $47 $-1 #
coedge $-1 $75 $120 $198 $204 reversed $47 $-1 #
coedge $-1 $200 $205 $75 $123 forward $195 $-1 #
edge $-1 $206 -20.615970183621759 $207 -13.460747861207754 $122 $208 forward 7 unknown #
loop $-1 $-1 $129 $76 #
plane-surface $-1 -20.451598565356562 -25.439979567607757 43.861473210675285 0 0.50000000669873634 0.8660253999169214 1 0 0 forward_v I I I I #
loop $-1 $-1 $209 $49 #
coedge $-1 $127 $127 $128 $210 reversed $77 $-1 #
coedge $-1 $128 $128 $127 $210 forward $79 $-1 #
coedge $-1 $129 $129 $80 $130 forward $124 $-1 #
edge $-1 $211 1.3641518735238365e-015 $211 6.2831853071796022 $129 $212 forward 7 unknown #
loop $-1 $-1 $136 $81 #
plane-surface $-1 -20.451598565356562 -25.439979567607757 43.861473210675285 0 0.50000000669873634 0.8660253999169214 1 0 0 forward_v I I I I #
loop $-1 $-1 $213 $52 #
coedge $-1 $134 $134 $135 $214 reversed $82 $-1 #
coedge $-1 $135 $135 $134 $214 forward $84 $-1 #
coedge $-1 $136 $136 $85 $137 forward $131 $-1 #
edge $-1 $215 1.3641518735238365e-015 $215 6.2831853071796022 $136 $216 forward 7 unknown #
face $-1 $217 $218 $29 $-1 $219 forward single #
loop $-1 $-1 $220 $86 #
plane-surface $-1 -11.637831794235929 -100.8876848339757 94.201992124274724 1 0 0 0 0.61566148304635926 -0.78801074757464917 forward_v I I I I #
coedge $-1 $221 $222 $223 $224 reversed $87 $-1 #
coedge $-1 $143 $89 $225 $226 reversed $56 $-1 #
coedge $-1 $89 $142 $221 $227 reversed $56 $-1 #
coedge $-1 $223 $228 $89 $145 forward $218 $-1 #
edge $-1 $229 15.692183688683748 $230 20.414071294852768 $144 $231 forward 7 unknown #
loop $-1 $-1 $151 $90 #
plane-surface $-1 -0.047652600727971617 -34.751658728304108 9.5517406333552088 0 -0.61566148304635926 0.78801074757464917 1 0 0 forward_v I I I I #
loop $-1 $-1 $232 $58 #
coedge $-1 $149 $149 $150 $233 reversed $91 $-1 #
coedge $-1 $150 $150 $149 $233 forward $93 $-1 #
coedge $-1 $151 $151 $94 $152 forward $146 $-1 #
edge $-1 $234 -2.3182496654064245e-015 $234 6.2831853071795978 $151 $235 forward 7 unknown #
loop $-1 $-1 $158 $95 #
plane-surface $-1 -0.047652600727971617 -34.751658728304108 9.5517406333552088 0 -0.61566148304635926 0.78801074757464917 1 0 0 forward_v I I I I #
loop $-1 $-1 $236 $61 #
coedge $-1 $156 $156 $157 $237 reversed $96 $-1 #
coedge $-1 $157 $157 $156 $237 forward $98 $-1 #
coedge $-1 $158 $158 $99 $159 forward $153 $-1 #
edge $-1 $238 -2.3182496654064245e-015 $238 6.2831853071795978 $158 $239 forward 7 unknown #
face $-1 $240 $241 $24 $-1 $242 reversed single #
loop $-1 $-1 $169 $100 #
plane-surface $-1 0 -34.751658728304101 0 0 1 0 0 0 1 forward_v I I I I #
coedge $-1 $174 $173 $243 $244 forward $101 $-1 #
coedge $-1 $245 $103 $246 $247 forward $65 $-1 #
coedge $-1 $103 $245 $248 $249 forward $65 $-1 #
coedge $-1 $250 $251 $103 $167 reversed $252 $-1 #
edge $-1 $253 -34.751658728304101 $254 34.751658728304101 $166 $255 forward 7 unknown #
coedge $-1 $105 $104 $245 $256 reversed $41 $-1 #
coedge $-1 $257 $248 $104 $170 forward $161 $-1 #
edge $-1 $258 -13.240883624538657 $175 13.240883624538657 $104 $259 forward 7 unknown #
coedge $-1 $246 $260 $105 $172 reversed $241 $-1 #
edge $-1 $261 -13.240883624538657 $176 13.240883624538657 $171 $262 forward 7 unknown #
coedge $-1 $163 $106 $260 $263 forward $101 $-1 #
coedge $-1 $106 $163 $257 $264 forward $101 $-1 #
vertex $-1 $107 $265 #
vertex $-1 $263 $266 #
straight-curve $-1 -53.71135593737602 0 -13.240883624538657 0 1 0 I I #
face $-1 $267 $190 $25 $-1 $268 reversed single #
loop $-1 $-1 $269 $108 #
plane-surface $-1 -64.261237163416794 -28.234224087902433 0 1 0 0 0 0 -1 forward_v I I I I #
coedge $-1 $270 $271 $272 $273 forward $109 $-1 #
coedge $-1 $274 $111 $270 $275 forward $69 $-1 #
coedge $-1 $111 $274 $188 $276 forward $69 $-1 #
edge $-1 $191 25.45079775976178 $277 31.017650416043086 $111 $278 forward 7 unknown #
coedge $-1 $113 $112 $279 $280 forward $44 $-1 #
coedge $-1 $281 $282 $112 $187 forward $283 $-1 #
edge $-1 $284 -31.017650416043086 $192 -25.45079775976178 $186 $285 forward 7 unknown #
coedge $-1 $286 $114 $183 $276 reversed $190 $-1 #
coedge $-1 $114 $286 $281 $287 reversed $190 $-1 #
loop $-1 $-1 $114 $178 #
vertex $-1 $184 $288 #
vertex $-1 $287 $289 #
straight-curve $-1 -53.71135593737602 -25.45079775976178 0 0 0 1 I I #
face $-1 $-1 $290 $26 $-1 $291 reversed single #
loop $-1 $-1 $122 $116 #
plane-surface $-1 0 0 13.240883624538657 0 0 1 1 0 0 forward_v I I I I #
coedge $-1 $292 $293 $294 $295 reversed $117 $-1 #
coedge $-1 $296 $119 $121 $204 forward $73 $-1 #
coedge $-1 $119 $296 $292 $297 forward $73 $-1 #
coedge $-1 $294 $122 $119 $201 forward $195 $-1 #
edge $-1 $207 -15.84579523658519 $298 -4.6058033287713709 $200 $299 forward 7 unknown #
coedge $-1 $300 $301 $120 $203 forward $290 $-1 #
edge $-1 $302 -59.336321094297034 $206 -55.205251486545166 $202 $303 forward 7 unknown #
edge $-1 $207 61.24117835179625 $302 69.503317456608215 $121 $304 forward 7 unknown #
coedge $-1 $122 $294 $300 $305 forward $195 $-1 #
vertex $-1 $203 $306 #
vertex $-1 $123 $307 #
straight-curve $-1 -26.071594519263471 14.135688544682342 13.240883624538654 0 -1 0 I I #
coedge $-1 $209 $209 $-1 $308 reversed $126 $-1 #
edge $-1 $309 0 $309 6.2831853071796004 $127 $310 forward 7 unknown #
vertex $-1 $130 $311 #
ellipse-curve $-1 -22.860168259888098 31.174047567097091 11.175348820662732 0 0.50000000669873634 0.8660253999169214 1 0 0 1 I I #
coedge $-1 $213 $213 $-1 $312 reversed $133 $-1 #
edge $-1 $313 0 $313 6.2831853071796004 $134 $314 forward 7 unknown #
vertex $-1 $137 $315 #
ellipse-curve $-1 -18.043028870825033 31.174047567097091 11.175348820662732 0 0.50000000669873634 0.8660253999169214 1 0 0 1 I I #
face $-1 $-1 $316 $29 $-1 $317 reversed single #
loop $-1 $-1 $144 $138 #
plane-surface $-1 0 0 13.240883624538657 0 0 1 1 0 0 forward_v I I I I #
coedge $-1 $318 $319 $320 $321 reversed $139 $-1 #
coedge $-1 $322 $141 $143 $227 forward $87 $-1 #
coedge $-1 $141 $322 $318 $323 forward $87 $-1 #
coedge $-1 $320 $144 $141 $224 forward $218 $-1 #
edge $-1 $230 -11.566352893143971 $324 11.614005493871943 $223 $325 forward 7 unknown #
coedge $-1 $326 $327 $142 $226 forward $316 $-1 #
edge $-1 $328 -37.549255428782146 $229 -33.860112437598701 $225 $329 forward 7 unknown #
edge $-1 $230 -5.9921614276228095 $328 -8.8800565823946346e-015 $143 $330 forward 7 unknown #
coedge $-1 $144 $320 $326 $331 forward $218 $-1 #
vertex $-1 $145 $332 #
vertex $-1 $145 $333 #
straight-curve $-1 11.542526592779986 -50.443842416987849 13.240883624538654 0 1 0 I I #
coedge $-1 $232 $232 $-1 $334 reversed $148 $-1 #
edge $-1 $335 0 $335 6.2831853071796004 $149 $336 forward 7 unknown #
vertex $-1 $152 $337 #
ellipse-curve $-1 -5.0148722550885267 -32.390714925219591 11.396312128946937 0 -0.61566148304635926 0.78801074757464917 1 0 0 1 I I #
coedge $-1 $236 $236 $-1 $338 reversed $155 $-1 #
edge $-1 $339 0 $339 6.2831853071796004 $156 $340 forward 7 unknown #
vertex $-1 $159 $341 #
ellipse-curve $-1 4.9195670536325835 -32.390714925219591 11.396312128946937 0 -0.61566148304635926 0.78801074757464917 1 0 0 1 I I #
face $-1 $-1 $252 $24 $-1 $342 reversed single #
loop $-1 $-1 $343 $160 #
plane-surface $-1 0 34.751658728304101 0 0 -1 0 0 0 -1 forward_v I I I I #
coedge $-1 $251 $250 $163 $244 reversed $252 $-1 #
edge $-1 $344 -34.751658728304101 $345 34.751658728304101 $243 $346 forward 7 unknown #
coedge $-1 $165 $164 $168 $256 forward $65 $-1 #
coedge $-1 $343 $171 $164 $247 reversed $241 $-1 #
edge $-1 $254 -53.71135593737602 $261 53.71135593737602 $246 $347 forward 7 unknown #
coedge $-1 $169 $348 $165 $249 reversed $161 $-1 #
edge $-1 $258 -53.71135593737602 $253 53.71135593737602 $248 $349 forward 7 unknown #
coedge $-1 $243 $166 $348 $350 forward $252 $-1 #
coedge $-1 $166 $243 $343 $351 reversed $252 $-1 #
loop $-1 $-1 $250 $240 #
vertex $-1 $167 $352 #
vertex $-1 $167 $353 #
straight-curve $-1 53.71135593737602 0 13.240883624538657 0 1 0 I I #
edge $-1 $261 -34.751658728304101 $258 34.751658728304101 $168 $354 forward 7 unknown #
coedge $-1 $348 $169 $174 $264 reversed $161 $-1 #
vertex $-1 $256 $355 #
straight-curve $-1 -53.71135593737602 -34.751658728304101 0 0 0 -1 I I #
coedge $-1 $171 $343 $173 $263 reversed $241 $-1 #
vertex $-1 $247 $356 #
straight-curve $-1 -53.71135593737602 34.751658728304101 0 0 0 -1 I I #
edge $-1 $176 -53.71135593737602 $344 53.71135593737602 $260 $357 forward 7 unknown #
edge $-1 $345 -53.71135593737602 $175 53.71135593737602 $257 $358 forward 7 unknown #
point $-1 -53.71135593737602 -34.751658728304101 -13.240883624538657 #
point $-1 -53.71135593737602 34.751658728304101 -13.240883624538657 #
face $-1 $-1 $283 $25 $-1 $359 forward single #
plane-surface $-1 -58.986296550396403 -25.45079775976178 0 0 -1 0 0 0 -1 forward_v I I I I #
coedge $-1 $360 $361 $286 $362 forward $179 $-1 #
coedge $-1 $279 $181 $182 $275 reversed $109 $-1 #
coedge $-1 $181 $279 $282 $363 reversed $109 $-1 #
coedge $-1 $361 $360 $181 $273 reversed $179 $-1 #
edge $-1 $364 -13.240883624538657 $365 13.240883624538657 $272 $366 forward 7 unknown #
coedge $-1 $183 $182 $360 $367 forward $69 $-1 #
edge $-1 $277 -5.2749406130203838 $365 5.2749406130203909 $270 $368 forward 7 unknown #
edge $-1 $369 -5.2749406130203909 $191 5.2749406130203838 $188 $370 forward 7 unknown #
vertex $-1 $275 $371 #
straight-curve $-1 -53.71135593737602 0 -13.240883624538657 0 -1 0 I I #
coedge $-1 $271 $270 $185 $280 reversed $109 $-1 #
edge $-1 $284 -13.240883624538657 $277 13.240883624538657 $279 $372 forward 7 unknown #
coedge $-1 $373 $186 $189 $287 forward $283 $-1 #
coedge $-1 $186 $373 $271 $363 forward $283 $-1 #
loop $-1 $-1 $186 $267 #
vertex $-1 $187 $374 #
straight-curve $-1 -53.71135593737602 0 13.240883624538657 0 1 0 I I #
coedge $-1 $189 $188 $269 $362 reversed $190 $-1 #
edge $-1 $192 -5.2749406130203838 $375 5.2749406130203909 $189 $376 forward 7 unknown #
point $-1 -53.71135593737602 -25.45079775976178 -13.240883624538657 #
point $-1 -53.71135593737602 -25.45079775976178 13.240883624538657 #
loop $-1 $-1 $202 $194 #
plane-surface $-1 0 34.751658728304101 0 0 -1 0 0 0 -1 forward_v I I I I #
coedge $-1 $293 $197 $199 $297 reversed $117 $-1 #
coedge $-1 $197 $292 $377 $378 reversed $117 $-1 #
coedge $-1 $205 $200 $197 $295 forward $195 $-1 #
edge $-1 $298 13.460747861207754 $379 20.615970183621759 $294 $380 forward 7 unknown #
coedge $-1 $199 $198 $301 $381 reversed $73 $-1 #
edge $-1 $382 -69.503317456608215 $298 -61.24117835179625 $292 $383 forward 7 unknown #
vertex $-1 $201 $384 #
straight-curve $-1 -10.225799282678281 27.596436405890096 13.240883624538657 1 0 0 I I #
coedge $-1 $377 $202 $205 $305 reversed $290 $-1 #
coedge $-1 $202 $377 $296 $381 forward $290 $-1 #
vertex $-1 $203 $385 #
straight-curve $-1 -26.071594519263471 34.751658728304101 68.446135111083819 0 0 1 I I #
straight-curve $-1 -26.071594519263471 -25.439979567607757 43.861473210675285 0 0.8660253999169214 -0.50000000669873634 I I #
edge $-1 $379 14.831602611449652 $206 26.071594519263471 $300 $386 forward 7 unknown #
point $-1 -26.071594519263471 34.751658728304101 13.240883624538657 #
point $-1 -26.071594519263471 27.596436405890096 13.240883624538657 #
edge $-1 $387 1 $387 0 $209 $-1 forward 7 unknown #
vertex $-1 $210 $388 #
ellipse-curve $-1 -22.860168259888098 29.468444345906523 8.2211574367791265 0 0.50000000669873634 0.8660253999169214 1 0 0 1 I I #
point $-1 -21.860168259888098 31.174047567097087 11.175348820662723 #
edge $-1 $389 1 $389 0 $213 $-1 forward 7 unknown #
vertex $-1 $214 $390 #
ellipse-curve $-1 -18.043028870825033 29.468444345906523 8.2211574367791265 0 0.50000000669873634 0.8660253999169214 1 0 0 1 I I #
point $-1 -17.043028870825033 31.174047567097087 11.175348820662723 #
loop $-1 $-1 $225 $217 #
plane-surface $-1 0 -34.751658728304101 0 0 1 0 0 0 1 forward_v I I I I #
coedge $-1 $319 $220 $222 $323 reversed $139 $-1 #
coedge $-1 $220 $318 $391 $392 reversed $139 $-1 #
coedge $-1 $228 $223 $220 $321 forward $218 $-1 #
edge $-1 $324 -20.414071294852768 $393 -15.692183688683748 $320 $394 forward 7 unknown #
coedge $-1 $222 $221 $327 $395 reversed $87 $-1 #
edge $-1 $396 8.8800565823946346e-015 $324 5.9921614276228095 $318 $397 forward 7 unknown #
vertex $-1 $224 $398 #
straight-curve $-1 -0.023826300363985808 -30.029771122135081 13.240883624538657 -1 0 0 I I #
coedge $-1 $391 $225 $228 $331 reversed $316 $-1 #
coedge $-1 $225 $391 $322 $395 forward $316 $-1 #
vertex $-1 $226 $399 #
straight-curve $-1 11.542526592779986 -34.751658728304101 47.100996062137362 0 0 1 I I #
straight-curve $-1 11.542526592779986 -34.751658728304108 9.5517406333552088 0 -0.78801074757464917 -0.61566148304635926 I I #
edge $-1 $393 -11.637831794235929 $229 11.542526592779986 $326 $400 forward 7 unknown #
point $-1 11.542526592779986 -34.751658728304101 13.240883624538657 #
point $-1 11.542526592779986 -30.029771122135081 13.240883624538657 #
edge $-1 $401 1 $401 0 $232 $-1 forward 7 unknown #
vertex $-1 $233 $402 #
ellipse-curve $-1 -5.0148722550885267 -31.72156095759323 10.539834124731614 0 -0.61566148304635926 0.78801074757464917 1 0 0 1 I I #
point $-1 -4.0148722550885267 -32.390714925219598 11.396312128946942 #
edge $-1 $403 1 $403 0 $236 $-1 forward 7 unknown #
vertex $-1 $237 $404 #
ellipse-curve $-1 4.9195670536325835 -31.72156095759323 10.539834124731614 0 -0.61566148304635926 0.78801074757464917 1 0 0 1 I I #
point $-1 5.9195670536325835 -32.390714925219598 11.396312128946942 #
plane-surface $-1 53.71135593737602 0 0 -1 0 0 0 0 1 forward_v I I I I #
coedge $-1 $260 $246 $251 $351 forward $241 $-1 #
vertex $-1 $244 $405 #
vertex $-1 $350 $406 #
straight-curve $-1 53.71135593737602 0 -13.240883624538657 0 -1 0 I I #
straight-curve $-1 0 34.751658728304101 13.240883624538657 -1 0 0 I I #
coedge $-1 $248 $257 $250 $350 reversed $161 $-1 #
straight-curve $-1 0 -34.751658728304101 13.240883624538657 1 0 0 I I #
edge $-1 $253 -13.240883624538657 $345 13.240883624538657 $250 $407 forward 7 unknown #
edge $-1 $254 -13.240883624538657 $344 13.240883624538657 $251 $408 forward 7 unknown #
point $-1 53.71135593737602 -34.751658728304101 13.240883624538657 #
point $-1 53.71135593737602 34.751658728304101 13.240883624538657 #
straight-curve $-1 -53.71135593737602 0 13.240883624538657 0 -1 0 I I #
point $-1 -53.71135593737602 -34.751658728304101 13.240883624538657 #
point $-1 -53.71135593737602 34.751658728304101 13.240883624538657 #
straight-curve $-1 0 34.751658728304101 -13.240883624538657 1 0 0 I I #
straight-curve $-1 0 -34.751658728304101 -13.240883624538657 -1 0 0 I I #
plane-surface $-1 0 0 13.240883624538657 0 0 1 1 0 0 forward_v I I I I #
coedge $-1 $272 $269 $274 $367 reversed $179 $-1 #
coedge $-1 $269 $272 $373 $409 reversed $179 $-1 #
edge $-1 $375 -13.240883624538657 $369 13.240883624538657 $286 $410 forward 7 unknown #
edge $-1 $364 -5.2749406130203909 $284 5.2749406130203838 $271 $411 forward 7 unknown #
vertex $-1 $409 $412 #
vertex $-1 $367 $413 #
straight-curve $-1 -64.261237163416794 -31.017650416043086 0 0 0 -1 I I #
edge $-1 $365 -2.7834263281406528 $369 2.7834263281406528 $360 $414 forward 7 unknown #
straight-curve $-1 -58.986296550396403 -31.017650416043086 -13.240883624538657 -1 0 0 I I #
vertex $-1 $276 $415 #
straight-curve $-1 -58.986296550396403 -25.45079775976178 -13.240883624538657 1 0 0 I I #
point $-1 -53.71135593737602 -31.017650416043086 -13.240883624538657 #
straight-curve $-1 -53.71135593737602 -31.017650416043086 0 0 0 -1 I I #
coedge $-1 $282 $281 $361 $409 forward $283 $-1 #
point $-1 -53.71135593737602 -31.017650416043086 13.240883624538657 #
vertex $-1 $287 $416 #
straight-curve $-1 -58.986296550396403 -25.45079775976178 13.240883624538657 -1 0 0 I I #
coedge $-1 $301 $300 $293 $378 forward $290 $-1 #
edge $-1 $379 55.205251486545166 $382 59.336321094297034 $377 $417 forward 7 unknown #
vertex $-1 $305 $418 #
straight-curve $-1 -14.831602611449652 14.135688544682342 13.240883624538654 0 1 0 I I #
edge $-1 $382 4.6058033287713709 $302 15.84579523658519 $301 $419 forward 7 unknown #
vertex $-1 $381 $420 #
straight-curve $-1 -14.831602611449652 -25.439979567607757 43.861473210675285 0 -0.8660253999169214 0.50000000669873634 I I #
point $-1 -14.831602611449652 27.596436405890096 13.240883624538657 #
point $-1 -26.071594519263471 34.751658728304108 9.1098140167867854 #
straight-curve $-1 0 34.751658728304101 13.240883624538657 -1 0 0 I I #
vertex $-1 $308 $421 #
point $-1 -21.860168259888098 29.468444345906523 8.2211574367791265 #
vertex $-1 $312 $422 #
point $-1 -17.043028870825033 29.468444345906523 8.2211574367791265 #
coedge $-1 $327 $326 $319 $392 forward $316 $-1 #
edge $-1 $393 33.860112437598701 $396 37.549255428782146 $391 $423 forward 7 unknown #
vertex $-1 $331 $424 #
straight-curve $-1 -11.637831794235929 -50.443842416987849 13.240883624538654 0 -1 0 I I #
edge $-1 $396 -11.614005493871943 $328 11.566352893143971 $327 $425 forward 7 unknown #
vertex $-1 $395 $426 #
straight-curve $-1 -11.637831794235929 -34.751658728304108 9.5517406333552088 0 0.78801074757464917 0.61566148304635926 I I #
point $-1 -11.637831794235929 -30.029771122135081 13.240883624538657 #
point $-1 11.542526592779986 -34.751658728304101 9.5517406333552142 #
straight-curve $-1 0 -34.751658728304101 13.240883624538657 1 0 0 I I #
vertex $-1 $334 $427 #
point $-1 -4.0148722550885267 -31.72156095759323 10.539834124731614 #
vertex $-1 $338 $428 #
point $-1 5.9195670536325835 -31.72156095759323 10.539834124731614 #
point $-1 53.71135593737602 34.751658728304101 -13.240883624538657 #
point $-1 53.71135593737602 -34.751658728304101 -13.240883624538657 #
straight-curve $-1 53.71135593737602 -34.751658728304101 0 0 0 -1 I I #
straight-curve $-1 53.71135593737602 34.751658728304101 0 0 0 -1 I I #
edge $-1 $375 -2.7834263281406528 $364 2.7834263281406528 $361 $429 forward 7 unknown #
straight-curve $-1 -64.261237163416794 -25.45079775976178 0 0 0 -1 I I #
straight-curve $-1 -58.986296550396403 -31.017650416043086 13.240883624538657 1 0 0 I I #
point $-1 -64.261237163416794 -31.017650416043086 13.240883624538657 #
point $-1 -64.261237163416794 -31.017650416043086 -13.240883624538657 #
straight-curve $-1 -64.261237163416794 -28.234224087902433 -13.240883624538657 0 1 0 I I #
point $-1 -64.261237163416794 -25.45079775976178 -13.240883624538657 #
point $-1 -64.261237163416794 -25.45079775976178 13.240883624538657 #
straight-curve $-1 -14.831602611449652 34.751658728304101 68.446135111083819 0 0 -1 I I #
point $-1 -14.831602611449652 34.751658728304101 13.240883624538657 #
straight-curve $-1 -10.225799282678281 34.751658728304101 9.1098140167867889 -1 0 0 I I #
point $-1 -14.831602611449652 34.751658728304108 9.1098140167867854 #
point $-1 -22.860168259888098 28.968444339207789 7.3551320368622051 #
point $-1 -18.043028870825033 28.968444339207789 7.3551320368622051 #
straight-curve $-1 -11.637831794235929 -34.751658728304101 47.100996062137362 0 0 -1 I I #
point $-1 -11.637831794235929 -34.751658728304101 13.240883624538657 #
straight-curve $-1 -0.023826300363985808 -34.751658728304101 9.5517406333552142 1 0 0 I I #
point $-1 -11.637831794235929 -34.751658728304101 9.5517406333552142 #
point $-1 -5.0148722550885267 -31.10589947454687 9.7518233771569651 #
point $-1 4.9195670536325835 -31.10589947454687 9.7518233771569651 #
straight-curve $-1 -64.261237163416794 -28.234224087902433 13.240883624538657 0 -1 0 I I #
End-of-ACIS-data 