500 0 9 0           
7 Unknown 11 ACIS 5.0 NT 24 Fri Mar 26 03:26:02 1999 
-1 9.9999999999999995e-007 1e-010 
body $-1 $9 $-1 $10 #
body $-1 $11 $-1 $12 #
body $-1 $13 $-1 $14 #
body $-1 $15 $-1 $16 #
body $-1 $17 $-1 $18 #
body $-1 $19 $-1 $20 #
body $-1 $21 $-1 $22 #
body $-1 $23 $-1 $24 #
body $-1 $25 $-1 $26 #
lump $-1 $-1 $27 $0 #
transform $-1 1 0 0 0 1 0 0 0 1 75.493026520584735 46.608597873208694 15.356926334987124 1 rotate no_reflect no_shear #
lump $-1 $-1 $28 $1 #
transform $-1 1 0 0 0 1 0 0 0 1 75.493026520584735 46.608597873208694 15.356926334987124 1 rotate no_reflect no_shear #
lump $-1 $-1 $29 $2 #
transform $-1 1 0 0 0 1 0 0 0 1 75.493026520584735 46.608597873208694 15.356926334987124 1 rotate no_reflect no_shear #
lump $-1 $-1 $30 $3 #
transform $-1 1 0 0 0 1 0 0 0 1 75.493026520584735 46.608597873208694 15.356926334987124 1 rotate no_reflect no_shear #
lump $-1 $-1 $31 $4 #
transform $-1 1 0 0 0 1 0 0 0 1 75.493026520584735 46.608597873208694 15.356926334987124 1 rotate no_reflect no_shear #
lump $-1 $-1 $32 $5 #
transform $-1 1 0 0 0 1 0 0 0 1 75.493026520584735 46.608597873208694 15.356926334987124 1 rotate no_reflect no_shear #
lump $-1 $-1 $33 $6 #
transform $-1 1 0 0 0 1 0 0 0 1 75.493026520584735 46.608597873208694 15.356926334987124 1 rotate no_reflect no_shear #
lump $-1 $-1 $34 $7 #
transform $-1 1 0 0 0 1 0 0 0 1 75.493026520584735 46.608597873208694 15.356926334987124 1 rotate no_reflect no_shear #
lump $-1 $-1 $35 $8 #
transform $-1 1 0 0 0 1 0 0 0 1 75.493026520584735 46.608597873208694 15.356926334987124 1 rotate no_reflect no_shear #
shell $-1 $-1 $-1 $36 $-1 $9 #
shell $-1 $-1 $-1 $37 $-1 $11 #
shell $-1 $-1 $-1 $38 $-1 $13 #
shell $-1 $-1 $-1 $39 $-1 $15 #
shell $-1 $-1 $-1 $40 $-1 $17 #
shell $-1 $-1 $-1 $41 $-1 $19 #
shell $-1 $-1 $-1 $42 $-1 $21 #
shell $-1 $-1 $-1 $43 $-1 $23 #
shell $-1 $-1 $-1 $44 $-1 $25 #
face $-1 $45 $46 $27 $-1 $47 forward single #
face $-1 $48 $49 $28 $-1 $50 forward single #
face $-1 $51 $52 $29 $-1 $53 reversed single #
face $-1 $54 $55 $30 $-1 $56 forward single #
face $-1 $57 $58 $31 $-1 $59 forward single #
face $-1 $60 $61 $32 $-1 $62 reversed single #
face $-1 $63 $64 $33 $-1 $65 forward single #
face $-1 $66 $67 $34 $-1 $68 forward single #
face $-1 $69 $70 $35 $-1 $71 forward single #
face $-1 $72 $73 $27 $-1 $74 reversed single #
loop $-1 $-1 $75 $36 #
plane-surface $-1 0 0 15.356926334987124 0 0 1 1 0 0 forward_v I I I I #
face $-1 $76 $77 $28 $-1 $78 reversed single #
loop $-1 $-1 $79 $37 #
plane-surface $-1 0 -41.216023524862536 -1.6677061891503282 0 0 1 1 0 0 forward_v I I I I #
face $-1 $80 $81 $29 $-1 $82 reversed single #
loop $-1 $-1 $83 $38 #
plane-surface $-1 42.090120933690741 -16.385515819399195 216.37487628776509 0 1 0 0.5877852598018023 0 0.80901698891910034 forward_v I I I I #
face $-1 $84 $85 $30 $-1 $86 forward single #
loop $-1 $87 $88 $39 #
cone-surface $-1 67.655755627625481 -10.267541246783502 8.988188160473122 -0.5877852598018023 0 -0.80901698891910034 1.2135254833786506 0 -0.88167788970270344 1 I I 0 1 1.5 forward I I I I #
face $-1 $89 $90 $31 $-1 $91 forward single #
loop $-1 $92 $93 $40 #
cone-surface $-1 67.655755627625481 -1.090579387859961 8.988188160473122 -0.5877852598018023 0 -0.80901698891910034 1.2135254833786506 0 -0.88167788970270344 1 I I 0 1 1.5 forward I I I I #
face $-1 $94 $95 $32 $-1 $96 reversed single #
loop $-1 $-1 $97 $41 #
plane-surface $-1 -199.17356175647944 10.249603943079951 91.285808458393575 0 1 0 -0.81915205242281985 0 0.57357642473473569 forward_v I I I I #
face $-1 $98 $99 $33 $-1 $100 forward single #
loop $-1 $101 $102 $42 #
cone-surface $-1 -71.237165704928628 14.680914517627784 9.6568358508645193 0.81915205242281985 0 -0.57357642473473569 0.57357642473473569 0 0.81915205242281985 1 I I 0 1 1 forward I I I I #
face $-1 $103 $104 $34 $-1 $105 forward single #
loop $-1 $106 $107 $43 #
cone-surface $-1 -71.237165704928628 21.327880379449525 9.6568358508645193 0.81915205242281985 0 -0.57357642473473569 0.57357642473473569 0 0.81915205242281985 1 I I 0 1 1 forward I I I I #
face $-1 $108 $109 $35 $-1 $110 forward single #
loop $-1 $111 $112 $44 #
cone-surface $-1 -71.237165704928628 27.974846241271266 9.6568358508645193 0.81915205242281985 0 -0.57357642473473569 0.57357642473473569 0 0.81915205242281985 1 I I 0 1 1 forward I I I I #
face $-1 $113 $114 $27 $-1 $115 reversed single #
loop $-1 $-1 $116 $45 #
plane-surface $-1 0 0 -15.356926334987124 0 0 1 1 0 0 forward_v I I I I #
coedge $-1 $117 $118 $119 $120 forward $46 $-1 #
face $-1 $121 $122 $28 $-1 $123 reversed single #
loop $-1 $-1 $124 $48 #
plane-surface $-1 0 -41.216023524862536 -10.341016230977127 0 0 1 1 0 0 forward_v I I I I #
coedge $-1 $125 $126 $127 $128 reversed $49 $-1 #
face $-1 $129 $130 $29 $-1 $131 reversed single #
loop $-1 $-1 $132 $51 #
plane-surface $-1 -46.657255479561755 -5.6790603173217278 94.224594287618586 0.5877852598018023 0 0.80901698891910034 0.80901698891910034 0 -0.5877852598018023 forward_v I I I I #
coedge $-1 $133 $134 $135 $136 reversed $52 $-1 #
face $-1 $-1 $137 $30 $-1 $138 forward single #
loop $-1 $139 $140 $54 #
cone-surface $-1 66.176771709462272 -10.267541246783502 6.9525414745803271 -0.5877852598018023 0 -0.80901698891910034 0.60676274168932531 0 -0.44083894485135172 1 I I -0.70710678118654757 0.70710678118654757 0.75 forward I I I I #
loop $-1 $-1 $141 $39 #
coedge $-1 $88 $88 $142 $143 reversed $55 $-1 #
face $-1 $-1 $144 $31 $-1 $145 forward single #
loop $-1 $146 $147 $57 #
cone-surface $-1 66.176771709462272 -1.090579387859961 6.9525414745803271 -0.5877852598018023 0 -0.80901698891910034 0.60676274168932531 0 -0.44083894485135172 1 I I -0.70710678118654757 0.70710678118654757 0.75 forward I I I I #
loop $-1 $-1 $148 $40 #
coedge $-1 $93 $93 $149 $150 reversed $58 $-1 #
face $-1 $151 $152 $32 $-1 $153 reversed single #
loop $-1 $-1 $154 $60 #
plane-surface $-1 -75.493026520584735 21.327880379449525 4.68376797023042 -0.81915205242281985 0 0.57357642473473569 0.57357642473473569 0 0.81915205242281985 forward_v I I I I #
coedge $-1 $155 $156 $157 $158 reversed $61 $-1 #
face $-1 $-1 $159 $33 $-1 $160 forward single #
loop $-1 $161 $162 $63 #
cone-surface $-1 -70.308441722034019 14.680914517627784 9.0065363367528999 0.81915205242281985 0 -0.57357642473473569 0.28678821236736785 0 0.40957602621140993 1 I I -0.70710678118654746 0.70710678118654746 0.5 forward I I I I #
loop $-1 $-1 $163 $42 #
coedge $-1 $102 $102 $164 $165 reversed $64 $-1 #
face $-1 $-1 $166 $34 $-1 $167 forward single #
loop $-1 $168 $169 $66 #
cone-surface $-1 -70.308441722034019 21.327880379449525 9.0065363367528999 0.81915205242281985 0 -0.57357642473473569 0.28678821236736785 0 0.40957602621140993 1 I I -0.70710678118654746 0.70710678118654746 0.5 forward I I I I #
loop $-1 $-1 $170 $43 #
coedge $-1 $107 $107 $171 $172 reversed $67 $-1 #
face $-1 $-1 $173 $35 $-1 $174 forward single #
loop $-1 $175 $176 $69 #
cone-surface $-1 -70.308441722034019 27.974846241271266 9.0065363367528999 0.81915205242281985 0 -0.57357642473473569 0.28678821236736785 0 0.40957602621140993 1 I I -0.70710678118654746 0.70710678118654746 0.5 forward I I I I #
loop $-1 $-1 $177 $44 #
coedge $-1 $112 $112 $178 $179 reversed $70 $-1 #
face $-1 $180 $181 $27 $-1 $182 reversed single #
loop $-1 $-1 $183 $72 #
plane-surface $-1 0 -46.608597873208694 0 0 1 0 0 0 1 forward_v I I I I #
coedge $-1 $184 $185 $186 $187 forward $73 $-1 #
coedge $-1 $188 $75 $189 $190 forward $46 $-1 #
coedge $-1 $75 $188 $191 $192 forward $46 $-1 #
coedge $-1 $193 $194 $75 $120 reversed $195 $-1 #
edge $-1 $196 -46.608597873208694 $197 46.608597873208694 $119 $198 forward 7 unknown #
face $-1 $199 $200 $28 $-1 $201 reversed single #
loop $-1 $-1 $202 $76 #
plane-surface $-1 0 -35.823449176516377 -6.0043612100637276 0 -1 0 0 0 -1 forward_v I I I I #
coedge $-1 $203 $204 $205 $206 reversed $77 $-1 #
coedge $-1 $207 $79 $208 $209 forward $49 $-1 #
coedge $-1 $79 $207 $210 $211 reversed $49 $-1 #
coedge $-1 $212 $213 $79 $128 forward $214 $-1 #
edge $-1 $215 15.215437414085109 $216 26.000586110777427 $127 $217 forward 7 unknown #
face $-1 $218 $219 $29 $-1 $220 forward single #
loop $-1 $-1 $221 $80 #
plane-surface $-1 42.090120933690741 5.0273951847557417 216.37487628776509 0 -1 0 -0.5877852598018023 0 -0.80901698891910034 forward_v I I I I #
coedge $-1 $222 $223 $224 $225 reversed $81 $-1 #
coedge $-1 $134 $83 $226 $227 reversed $52 $-1 #
coedge $-1 $83 $133 $222 $228 reversed $52 $-1 #
coedge $-1 $224 $229 $83 $136 forward $230 $-1 #
edge $-1 $231 92.830511808895423 $232 102.71022026951646 $135 $233 forward 7 unknown #
loop $-1 $-1 $142 $84 #
plane-surface $-1 -46.657255479561755 -5.6790603173217278 94.224594287618586 0.5877852598018023 0 0.80901698891910034 0.80901698891910034 0 -0.5877852598018023 forward_v I I I I #
loop $-1 $-1 $234 $54 #
coedge $-1 $140 $140 $141 $235 reversed $85 $-1 #
coedge $-1 $141 $141 $140 $235 forward $87 $-1 #
coedge $-1 $142 $142 $88 $143 forward $137 $-1 #
edge $-1 $236 0 $236 6.2831853071796004 $142 $237 forward 7 unknown #
loop $-1 $-1 $149 $89 #
plane-surface $-1 -46.657255479561755 -5.6790603173217278 94.224594287618586 0.5877852598018023 0 0.80901698891910034 0.80901698891910034 0 -0.5877852598018023 forward_v I I I I #
loop $-1 $-1 $238 $57 #
coedge $-1 $147 $147 $148 $239 reversed $90 $-1 #
coedge $-1 $148 $148 $147 $239 forward $92 $-1 #
coedge $-1 $149 $149 $93 $150 forward $144 $-1 #
edge $-1 $240 0 $240 6.2831853071796004 $149 $241 forward 7 unknown #
face $-1 $242 $243 $32 $-1 $244 reversed single #
loop $-1 $-1 $245 $94 #
plane-surface $-1 -199.17356175647944 32.406156815819102 91.285808458393575 0 -1 0 0.81915205242281985 0 -0.57357642473473569 forward_v I I I I #
coedge $-1 $246 $247 $248 $249 reversed $95 $-1 #
coedge $-1 $156 $97 $250 $251 reversed $61 $-1 #
coedge $-1 $97 $155 $246 $252 reversed $61 $-1 #
coedge $-1 $248 $253 $97 $158 forward $254 $-1 #
edge $-1 $255 24.093754357654987 $256 31.567180075600788 $157 $257 forward 7 unknown #
loop $-1 $-1 $164 $98 #
plane-surface $-1 -75.493026520584735 21.327880379449525 4.68376797023042 -0.81915205242281985 0 0.57357642473473569 0.57357642473473569 0 0.81915205242281985 forward_v I I I I #
loop $-1 $-1 $258 $63 #
coedge $-1 $162 $162 $163 $259 reversed $99 $-1 #
coedge $-1 $163 $163 $162 $259 forward $101 $-1 #
coedge $-1 $164 $164 $102 $165 forward $159 $-1 #
edge $-1 $260 0 $260 6.2831853071796004 $164 $261 forward 7 unknown #
loop $-1 $-1 $171 $103 #
plane-surface $-1 -75.493026520584735 21.327880379449525 4.68376797023042 -0.81915205242281985 0 0.57357642473473569 0.57357642473473569 0 0.81915205242281985 forward_v I I I I #
loop $-1 $-1 $262 $66 #
coedge $-1 $169 $169 $170 $263 reversed $104 $-1 #
coedge $-1 $170 $170 $169 $263 forward $106 $-1 #
coedge $-1 $171 $171 $107 $172 forward $166 $-1 #
edge $-1 $264 0 $264 6.2831853071796004 $171 $265 forward 7 unknown #
loop $-1 $-1 $178 $108 #
plane-surface $-1 -75.493026520584735 21.327880379449525 4.68376797023042 -0.81915205242281985 0 0.57357642473473569 0.57357642473473569 0 0.81915205242281985 forward_v I I I I #
loop $-1 $-1 $266 $69 #
coedge $-1 $176 $176 $177 $267 reversed $109 $-1 #
coedge $-1 $177 $177 $176 $267 forward $111 $-1 #
coedge $-1 $178 $178 $112 $179 forward $173 $-1 #
edge $-1 $268 0 $268 6.2831853071796004 $178 $269 forward 7 unknown #
face $-1 $270 $271 $27 $-1 $272 reversed single #
loop $-1 $-1 $273 $113 #
plane-surface $-1 -75.493026520584735 0 0 1 0 0 0 0 -1 forward_v I I I I #
coedge $-1 $274 $191 $275 $276 forward $114 $-1 #
coedge $-1 $277 $116 $274 $278 forward $73 $-1 #
coedge $-1 $116 $277 $279 $280 forward $73 $-1 #
coedge $-1 $194 $193 $116 $187 reversed $195 $-1 #
edge $-1 $281 -46.608597873208694 $282 46.608597873208694 $186 $283 forward 7 unknown #
coedge $-1 $118 $117 $284 $285 forward $46 $-1 #
coedge $-1 $286 $287 $117 $190 reversed $271 $-1 #
edge $-1 $197 -75.493026520584735 $288 75.493026520584735 $189 $289 forward 7 unknown #
coedge $-1 $183 $290 $118 $192 reversed $114 $-1 #
edge $-1 $291 -75.493026520584735 $196 75.493026520584735 $191 $292 forward 7 unknown #
coedge $-1 $186 $119 $290 $293 forward $195 $-1 #
coedge $-1 $119 $186 $286 $294 reversed $195 $-1 #
loop $-1 $-1 $193 $270 #
vertex $-1 $120 $295 #
vertex $-1 $120 $296 #
straight-curve $-1 75.493026520584735 0 15.356926334987124 0 1 0 I I #
face $-1 $297 $298 $28 $-1 $299 reversed single #
loop $-1 $-1 $300 $121 #
plane-surface $-1 -75.493026520584735 0 0 1 0 0 0 0 -1 forward_v I I I I #
coedge $-1 $301 $208 $213 $302 reversed $122 $-1 #
coedge $-1 $303 $124 $304 $305 reversed $77 $-1 #
coedge $-1 $124 $303 $301 $306 forward $77 $-1 #
coedge $-1 $213 $212 $124 $206 forward $214 $-1 #
edge $-1 $307 -26.000586110777427 $308 -15.215437414085109 $205 $309 forward 7 unknown #
coedge $-1 $126 $125 $300 $310 reversed $49 $-1 #
coedge $-1 $202 $311 $125 $209 reversed $122 $-1 #
edge $-1 $215 -75.493026520584735 $312 75.493026520584735 $208 $313 forward 7 unknown #
coedge $-1 $314 $315 $126 $211 forward $298 $-1 #
edge $-1 $216 -75.493026520584735 $316 75.493026520584735 $210 $317 forward 7 unknown #
coedge $-1 $205 $127 $315 $318 forward $214 $-1 #
coedge $-1 $127 $205 $202 $302 forward $214 $-1 #
loop $-1 $-1 $127 $297 #
vertex $-1 $128 $319 #
vertex $-1 $318 $320 #
straight-curve $-1 75.493026520584735 -20.608011762431268 -1.6677061891503282 0 -1 0 I I #
face $-1 $-1 $230 $29 $-1 $321 reversed single #
loop $-1 $-1 $322 $129 #
plane-surface $-1 0 0 15.356926334987124 0 0 1 1 0 0 forward_v I I I I #
coedge $-1 $323 $324 $325 $326 reversed $130 $-1 #
coedge $-1 $327 $132 $134 $228 forward $81 $-1 #
coedge $-1 $132 $327 $323 $328 forward $81 $-1 #
coedge $-1 $325 $135 $132 $225 forward $230 $-1 #
edge $-1 $232 -13.545985660738332 $329 7.8669253434166055 $224 $330 forward 7 unknown #
coedge $-1 $331 $332 $133 $227 forward $219 $-1 #
edge $-1 $333 40.849714214444631 $231 54.447966053739364 $226 $334 forward 7 unknown #
edge $-1 $232 -150.98605304116947 $333 -134.17768927928739 $134 $335 forward 7 unknown #
coedge $-1 $135 $325 $331 $336 reversed $230 $-1 #
loop $-1 $-1 $325 $218 #
vertex $-1 $336 $337 #
vertex $-1 $136 $338 #
straight-curve $-1 75.493026520584735 -16.385515819399195 108.18743814388255 0 0 -1 I I #
coedge $-1 $234 $234 $-1 $339 reversed $139 $-1 #
edge $-1 $340 0 $340 6.2831853071796004 $140 $341 forward 7 unknown #
vertex $-1 $143 $342 #
ellipse-curve $-1 68.693900600937368 -10.267541246783502 10.41707210467662 0.5877852598018023 0 0.80901698891910034 1.2135254833786506 0 -0.88167788970270344 1 I I #
coedge $-1 $238 $238 $-1 $343 reversed $146 $-1 #
edge $-1 $344 0 $344 6.2831853071796004 $147 $345 forward 7 unknown #
vertex $-1 $150 $346 #
ellipse-curve $-1 68.693900600937368 -1.090579387859961 10.41707210467662 0.5877852598018023 0 0.80901698891910034 1.2135254833786506 0 -0.88167788970270344 1 I I #
face $-1 $-1 $254 $32 $-1 $347 forward single #
loop $-1 $-1 $348 $151 #
plane-surface $-1 -75.493026520584735 0 0 1 0 0 0 0 -1 forward_v I I I I #
coedge $-1 $349 $350 $351 $352 reversed $152 $-1 #
coedge $-1 $353 $154 $156 $252 forward $95 $-1 #
coedge $-1 $154 $353 $349 $354 forward $95 $-1 #
coedge $-1 $351 $157 $154 $249 forward $254 $-1 #
edge $-1 $256 -0.41433624664481172 $355 21.74221662609434 $248 $356 forward 7 unknown #
coedge $-1 $357 $358 $155 $251 forward $243 $-1 #
edge $-1 $359 -40.959136258966367 $255 -30.285977894209665 $250 $360 forward 7 unknown #
edge $-1 $256 -13.02952038414422 $359 0 $156 $361 forward 7 unknown #
coedge $-1 $157 $351 $357 $362 forward $254 $-1 #
loop $-1 $-1 $351 $242 #
vertex $-1 $251 $363 #
vertex $-1 $158 $364 #
straight-curve $-1 -99.586780878239722 10.249603943079951 15.356926334987122 1 0 0 I I #
coedge $-1 $258 $258 $-1 $365 reversed $161 $-1 #
edge $-1 $366 0 $366 6.2831853071796004 $162 $367 forward 7 unknown #
vertex $-1 $165 $368 #
ellipse-curve $-1 -71.756313661611827 14.680914517627784 10.020347152608773 -0.81915205242281985 0 0.57357642473473569 0.57357642473473569 0 0.81915205242281985 1 I I #
coedge $-1 $262 $262 $-1 $369 reversed $168 $-1 #
edge $-1 $370 0 $370 6.2831853071796004 $169 $371 forward 7 unknown #
vertex $-1 $172 $372 #
ellipse-curve $-1 -71.756313661611827 21.327880379449525 10.020347152608773 -0.81915205242281985 0 0.57357642473473569 0.57357642473473569 0 0.81915205242281985 1 I I #
coedge $-1 $266 $266 $-1 $373 reversed $175 $-1 #
edge $-1 $374 0 $374 6.2831853071796004 $176 $375 forward 7 unknown #
vertex $-1 $179 $376 #
ellipse-curve $-1 -71.756313661611827 27.974846241271266 10.020347152608773 -0.81915205242281985 0 0.57357642473473569 0.57357642473473569 0 0.81915205242281985 1 I I #
face $-1 $-1 $195 $27 $-1 $377 reversed single #
loop $-1 $-1 $286 $180 #
plane-surface $-1 0 46.608597873208694 0 0 -1 0 0 0 -1 forward_v I I I I #
coedge $-1 $378 $284 $287 $379 forward $181 $-1 #
coedge $-1 $290 $183 $184 $278 reversed $114 $-1 #
coedge $-1 $284 $378 $183 $276 reversed $181 $-1 #
edge $-1 $291 -15.356926334987124 $380 15.356926334987124 $275 $381 forward 7 unknown #
coedge $-1 $185 $184 $378 $382 forward $73 $-1 #
edge $-1 $282 -75.493026520584735 $380 75.493026520584735 $274 $383 forward 7 unknown #
coedge $-1 $287 $286 $185 $280 reversed $271 $-1 #
edge $-1 $384 -75.493026520584735 $281 75.493026520584735 $279 $385 forward 7 unknown #
vertex $-1 $187 $386 #
vertex $-1 $293 $387 #
straight-curve $-1 75.493026520584735 0 -15.356926334987124 0 -1 0 I I #
coedge $-1 $273 $275 $188 $285 reversed $181 $-1 #
edge $-1 $288 -46.608597873208694 $291 46.608597873208694 $284 $388 forward 7 unknown #
coedge $-1 $279 $189 $194 $294 forward $271 $-1 #
coedge $-1 $189 $279 $273 $379 reversed $271 $-1 #
vertex $-1 $190 $389 #
straight-curve $-1 0 46.608597873208694 15.356926334987124 -1 0 0 I I #
coedge $-1 $191 $274 $193 $293 reversed $114 $-1 #
vertex $-1 $285 $390 #
straight-curve $-1 0 -46.608597873208694 15.356926334987124 1 0 0 I I #
edge $-1 $196 -15.356926334987124 $282 15.356926334987124 $193 $391 forward 7 unknown #
edge $-1 $197 -15.356926334987124 $281 15.356926334987124 $194 $392 forward 7 unknown #
point $-1 75.493026520584735 -46.608597873208694 15.356926334987124 #
point $-1 75.493026520584735 46.608597873208694 15.356926334987124 #
face $-1 $-1 $214 $28 $-1 $393 reversed single #
loop $-1 $-1 $210 $199 #
plane-surface $-1 0 -46.608597873208694 0 0 1 0 0 0 1 forward_v I I I I #
coedge $-1 $394 $395 $207 $310 forward $200 $-1 #
coedge $-1 $311 $202 $204 $306 reversed $122 $-1 #
edge $-1 $308 -7.3388356259452632 $215 1.3344744158815356 $213 $396 forward 7 unknown #
coedge $-1 $204 $203 $397 $398 reversed $77 $-1 #
coedge $-1 $315 $314 $203 $305 forward $298 $-1 #
edge $-1 $399 -75.493026520584735 $307 75.493026520584735 $304 $400 forward 7 unknown #
edge $-1 $401 -75.493026520584735 $308 75.493026520584735 $301 $402 forward 7 unknown #
vertex $-1 $305 $403 #
vertex $-1 $206 $404 #
straight-curve $-1 75.493026520584735 -20.608011762431268 -10.341016230977127 0 1 0 I I #
edge $-1 $316 -26.000586110777427 $312 -15.215437414085109 $300 $405 forward 7 unknown #
coedge $-1 $208 $301 $394 $406 reversed $122 $-1 #
vertex $-1 $310 $407 #
straight-curve $-1 0 -35.823449176516377 -1.6677061891503282 -1 0 0 I I #
coedge $-1 $304 $210 $395 $408 forward $298 $-1 #
coedge $-1 $210 $304 $212 $318 reversed $298 $-1 #
vertex $-1 $408 $409 #
straight-curve $-1 0 -46.608597873208694 -1.6677061891503282 -1 0 0 I I #
edge $-1 $216 1.6677061891503282 $307 10.341016230977127 $212 $410 forward 7 unknown #
point $-1 75.493026520584735 -35.823449176516377 -1.6677061891503282 #
point $-1 75.493026520584735 -46.608597873208694 -1.6677061891503282 #
plane-surface $-1 75.493026520584735 0 0 -1 0 0 0 0 1 forward_v I I I I #
coedge $-1 $332 $331 $324 $411 forward $219 $-1 #
coedge $-1 $324 $221 $223 $328 reversed $130 $-1 #
coedge $-1 $221 $323 $322 $411 reversed $130 $-1 #
coedge $-1 $229 $224 $221 $326 forward $230 $-1 #
edge $-1 $329 -102.71022026951646 $412 -92.830511808895423 $325 $413 forward 7 unknown #
coedge $-1 $223 $222 $332 $414 reversed $81 $-1 #
edge $-1 $415 134.17768927928739 $329 150.98605304116947 $323 $416 forward 7 unknown #
vertex $-1 $225 $417 #
straight-curve $-1 75.493026520584735 -2.8395301586608639 5.4772178743660902 0 1 0 I I #
coedge $-1 $322 $226 $229 $336 forward $219 $-1 #
coedge $-1 $226 $322 $327 $414 forward $219 $-1 #
vertex $-1 $227 $418 #
straight-curve $-1 21.045060466845371 -16.385515819399195 15.356926334987122 1 0 0 I I #
straight-curve $-1 -46.657255479561755 -16.385515819399195 94.224594287618586 -0.80901698891910034 0 0.5877852598018023 I I #
edge $-1 $231 -16.385515819399195 $412 5.0273951847557417 $229 $419 forward 7 unknown #
point $-1 75.493026520584735 -16.385515819399195 15.356926334987124 #
point $-1 75.493026520584749 -16.385515819399195 5.4772178743660902 #
edge $-1 $420 1 $420 0 $234 $-1 forward 7 unknown #
vertex $-1 $235 $421 #
ellipse-curve $-1 66.617610654313623 -10.267541246783502 7.559304216269652 0.5877852598018023 0 0.80901698891910034 1.2135254833786506 0 -0.88167788970270344 1 I I #
point $-1 69.907426084316 -10.267541246783502 9.5353942149738877 #
edge $-1 $422 1 $422 0 $238 $-1 forward 7 unknown #
vertex $-1 $239 $423 #
ellipse-curve $-1 66.617610654313623 -1.090579387859961 7.559304216269652 0.5877852598018023 0 0.80901698891910034 1.2135254833786506 0 -0.88167788970270344 1 I I #
point $-1 69.907426084316 -1.090579387859961 9.5353942149738877 #
plane-surface $-1 0 0 15.356926334987124 0 0 1 1 0 0 forward_v I I I I #
coedge $-1 $358 $357 $350 $424 forward $243 $-1 #
coedge $-1 $350 $245 $247 $354 reversed $152 $-1 #
coedge $-1 $245 $349 $348 $424 reversed $152 $-1 #
coedge $-1 $253 $248 $245 $352 forward $254 $-1 #
edge $-1 $355 -31.567180075600788 $425 -24.093754357654987 $351 $426 forward 7 unknown #
coedge $-1 $247 $246 $358 $427 reversed $95 $-1 #
edge $-1 $428 0 $355 13.02952038414422 $349 $429 forward 7 unknown #
vertex $-1 $249 $430 #
straight-curve $-1 -68.019600802638934 10.663940189724762 15.356926334987124 0 1 0 I I #
coedge $-1 $348 $250 $253 $362 reversed $243 $-1 #
coedge $-1 $250 $348 $353 $427 forward $243 $-1 #
vertex $-1 $251 $431 #
straight-curve $-1 -75.493026520584735 10.249603943079951 45.642904229196787 0 0 1 I I #
straight-curve $-1 -75.493026520584735 10.249603943079951 4.68376797023042 -0.57357642473473569 0 -0.81915205242281985 I I #
edge $-1 $425 -32.406156815819102 $255 -10.249603943079951 $357 $432 forward 7 unknown #
point $-1 -75.493026520584735 10.249603943079951 15.356926334987124 #
point $-1 -68.019600802638934 10.249603943079951 15.356926334987124 #
edge $-1 $433 1 $433 0 $258 $-1 forward 7 unknown #
vertex $-1 $259 $434 #
ellipse-curve $-1 -70.71801774824543 14.680914517627784 9.2933245491202676 -0.81915205242281985 0 0.57357642473473569 0.57357642473473569 0 0.81915205242281985 1 I I #
point $-1 -71.182737236877102 14.680914517627784 10.83949920503159 #
edge $-1 $435 1 $435 0 $262 $-1 forward 7 unknown #
vertex $-1 $263 $436 #
ellipse-curve $-1 -70.71801774824543 21.327880379449525 9.2933245491202676 -0.81915205242281985 0 0.57357642473473569 0.57357642473473569 0 0.81915205242281985 1 I I #
point $-1 -71.182737236877102 21.327880379449525 10.83949920503159 #
edge $-1 $437 1 $437 0 $266 $-1 forward 7 unknown #
vertex $-1 $267 $438 #
ellipse-curve $-1 -70.71801774824543 27.974846241271266 9.2933245491202676 -0.81915205242281985 0 0.57357642473473569 0.57357642473473569 0 0.81915205242281985 1 I I #
point $-1 -71.182737236877102 27.974846241271266 10.83949920503159 #
plane-surface $-1 75.493026520584735 0 0 -1 0 0 0 0 1 forward_v I I I I #
coedge $-1 $275 $273 $277 $382 reversed $181 $-1 #
edge $-1 $288 -15.356926334987124 $384 15.356926334987124 $287 $439 forward 7 unknown #
vertex $-1 $382 $440 #
straight-curve $-1 -75.493026520584735 -46.608597873208694 0 0 0 -1 I I #
edge $-1 $380 -46.608597873208694 $384 46.608597873208694 $378 $441 forward 7 unknown #
straight-curve $-1 0 -46.608597873208694 -15.356926334987124 -1 0 0 I I #
vertex $-1 $280 $442 #
straight-curve $-1 0 46.608597873208694 -15.356926334987124 1 0 0 I I #
point $-1 75.493026520584735 46.608597873208694 -15.356926334987124 #
point $-1 75.493026520584735 -46.608597873208694 -15.356926334987124 #
straight-curve $-1 -75.493026520584735 0 15.356926334987124 0 -1 0 I I #
point $-1 -75.493026520584735 46.608597873208694 15.356926334987124 #
point $-1 -75.493026520584735 -46.608597873208694 15.356926334987124 #
straight-curve $-1 75.493026520584735 -46.608597873208694 0 0 0 -1 I I #
straight-curve $-1 75.493026520584735 46.608597873208694 0 0 0 -1 I I #
plane-surface $-1 75.493026520584735 0 0 -1 0 0 0 0 1 forward_v I I I I #
coedge $-1 $397 $300 $311 $406 forward $200 $-1 #
coedge $-1 $300 $397 $314 $408 reversed $200 $-1 #
straight-curve $-1 75.493026520584735 -35.823449176516377 -3.0021806050318638 0 0 1 I I #
coedge $-1 $395 $394 $303 $398 forward $200 $-1 #
edge $-1 $401 15.215437414085109 $399 26.000586110777427 $397 $443 forward 7 unknown #
vertex $-1 $305 $444 #
straight-curve $-1 0 -46.608597873208694 -10.341016230977127 1 0 0 I I #
vertex $-1 $398 $445 #
straight-curve $-1 0 -35.823449176516377 -10.341016230977127 1 0 0 I I #
point $-1 75.493026520584735 -46.608597873208694 -10.341016230977127 #
point $-1 75.493026520584735 -35.823449176516377 -10.341016230977127 #
straight-curve $-1 -75.493026520584735 -20.608011762431268 -1.6677061891503282 0 1 0 I I #
edge $-1 $312 -1.3344744158815356 $401 7.3388356259452632 $394 $446 forward 7 unknown #
point $-1 -75.493026520584735 -35.823449176516377 -1.6677061891503282 #
edge $-1 $316 1.6677061891503282 $399 10.341016230977127 $395 $447 forward 7 unknown #
point $-1 -75.493026520584735 -46.608597873208694 -1.6677061891503282 #
straight-curve $-1 75.493026520584735 -46.608597873208694 0 0 0 -1 I I #
edge $-1 $412 -54.447966053739364 $415 -40.849714214444631 $322 $448 forward 7 unknown #
vertex $-1 $411 $449 #
straight-curve $-1 75.493026520584735 5.0273951847557417 108.18743814388255 0 0 1 I I #
edge $-1 $415 -7.8669253434166055 $333 13.545985660738332 $332 $450 forward 7 unknown #
vertex $-1 $414 $451 #
straight-curve $-1 -46.657255479561755 5.0273951847557417 94.224594287618586 0.80901698891910034 0 -0.5877852598018023 I I #
point $-1 75.493026520584749 5.0273951847557417 5.4772178743660902 #
point $-1 61.894774681290002 -16.385515819399195 15.356926334987122 #
straight-curve $-1 75.493026520584735 0 15.356926334987124 0 1 0 I I #
vertex $-1 $339 $452 #
point $-1 67.831136137692269 -10.267541246783502 6.6776263265669487 #
vertex $-1 $343 $453 #
point $-1 67.831136137692269 -1.090579387859961 6.6776263265669487 #
edge $-1 $425 30.285977894209665 $428 40.959136258966367 $348 $454 forward 7 unknown #
vertex $-1 $362 $455 #
straight-curve $-1 -99.586780878239722 32.406156815819102 15.356926334987122 -1 0 0 I I #
edge $-1 $428 -21.74221662609434 $359 0.41433624664481172 $358 $456 forward 7 unknown #
vertex $-1 $427 $457 #
straight-curve $-1 -75.493026520584735 32.406156815819102 4.68376797023042 0.57357642473473569 0 0.81915205242281985 I I #
point $-1 -68.019600802638934 32.406156815819102 15.356926334987124 #
point $-1 -75.493026520584735 10.249603943079951 4.68376797023042 #
straight-curve $-1 -75.493026520584735 0 15.356926334987124 0 -1 0 I I #
vertex $-1 $365 $458 #
point $-1 -70.144441323510691 14.680914517627784 10.112476601543088 #
vertex $-1 $369 $459 #
point $-1 -70.144441323510691 21.327880379449525 10.112476601543088 #
vertex $-1 $373 $460 #
point $-1 -70.144441323510691 27.974846241271266 10.112476601543088 #
straight-curve $-1 -75.493026520584735 46.608597873208694 0 0 0 -1 I I #
point $-1 -75.493026520584735 -46.608597873208694 -15.356926334987124 #
straight-curve $-1 -75.493026520584735 0 -15.356926334987124 0 1 0 I I #
point $-1 -75.493026520584735 46.608597873208694 -15.356926334987124 #
straight-curve $-1 -75.493026520584735 -20.608011762431268 -10.341016230977127 0 -1 0 I I #
point $-1 -75.493026520584735 -46.608597873208694 -10.341016230977127 #
point $-1 -75.493026520584735 -35.823449176516377 -10.341016230977127 #
straight-curve $-1 -75.493026520584735 -35.823449176516377 -3.0021806050318638 0 0 -1 I I #
straight-curve $-1 -75.493026520584735 -46.608597873208694 0 0 0 -1 I I #
straight-curve $-1 21.045060466845371 5.0273951847557417 15.356926334987122 -1 0 0 I I #
point $-1 75.493026520584735 5.0273951847557417 15.356926334987124 #
straight-curve $-1 61.894774681290002 -2.8395301586608639 15.356926334987122 0 -1 0 I I #
point $-1 61.894774681290002 5.0273951847557417 15.356926334987122 #
point $-1 65.735932764610922 -10.267541246783502 6.3457787328910022 #
point $-1 65.735932764610922 -1.090579387859961 6.3457787328910022 #
straight-curve $-1 -75.493026520584735 32.406156815819102 45.642904229196787 0 0 -1 I I #
point $-1 -75.493026520584735 32.406156815819102 15.356926334987124 #
straight-curve $-1 -75.493026520584735 10.663940189724762 4.6837679702304111 0 -1 0 I I #
point $-1 -75.493026520584735 32.406156815819102 4.68376797023042 #
point $-1 -69.898865695822607 14.680914517627784 8.7197481243855322 #
point $-1 -69.898865695822607 21.327880379449525 8.7197481243855322 #
point $-1 -69.898865695822607 27.974846241271266 8.7197481243855322 #
End-of-ACIS-data 