500 0 2 0           
7 Unknown 11 ACIS 5.0 NT 24 Thu Mar 25 18:16:03 1999 
-1 9.9999999999999995e-007 1e-010 
body $-1 $2 $-1 $3 #
body $-1 $4 $-1 $5 #
lump $-1 $-1 $6 $0 #
transform $-1 1 0 0 0 1 0 0 0 1 60.457167271950439 27.922439851887241 6.744351030236567 1 rotate no_reflect no_shear #
lump $-1 $-1 $7 $1 #
transform $-1 1 0 0 0 1 0 0 0 1 60.457167271950439 27.922439851887241 6.744351030236567 1 rotate no_reflect no_shear #
shell $-1 $-1 $-1 $8 $-1 $2 #
shell $-1 $-1 $-1 $9 $-1 $4 #
face $-1 $10 $11 $6 $-1 $12 forward single #
face $-1 $13 $14 $7 $-1 $15 reversed single #
face $-1 $16 $17 $6 $-1 $18 reversed single #
loop $-1 $-1 $19 $8 #
plane-surface $-1 0 0 6.744351030236567 0 0 1 1 0 0 forward_v I I I I #
face $-1 $20 $21 $7 $-1 $22 forward single #
loop $-1 $-1 $23 $9 #
plane-surface $-1 0 -23.551453262505589 -3.744351030236567 0 0 1 1 0 0 forward_v I I I I #
face $-1 $24 $25 $6 $-1 $26 reversed single #
loop $-1 $-1 $27 $10 #
plane-surface $-1 0 0 -6.744351030236567 0 0 1 1 0 0 forward_v I I I I #
coedge $-1 $28 $29 $30 $31 forward $11 $-1 #
face $-1 $32 $33 $7 $-1 $34 reversed single #
loop $-1 $-1 $35 $13 #
plane-surface $-1 0 -19.180466673123938 -5.244351030236567 0 -1 0 0 0 -1 forward_v I I I I #
coedge $-1 $36 $37 $38 $39 reversed $14 $-1 #
face $-1 $40 $41 $6 $-1 $42 reversed single #
loop $-1 $-1 $43 $16 #
plane-surface $-1 0 -27.922439851887241 0 0 1 0 0 0 1 forward_v I I I I #
coedge $-1 $44 $45 $46 $47 forward $17 $-1 #
coedge $-1 $48 $19 $49 $50 forward $11 $-1 #
coedge $-1 $19 $48 $51 $52 forward $11 $-1 #
coedge $-1 $53 $54 $19 $31 reversed $55 $-1 #
edge $-1 $56 -27.922439851887241 $57 27.922439851887241 $30 $58 forward 7 unknown #
face $-1 $59 $60 $7 $-1 $61 reversed single #
loop $-1 $-1 $62 $20 #
plane-surface $-1 0 -27.922439851887241 0 0 1 0 0 0 1 forward_v I I I I #
coedge $-1 $63 $64 $65 $66 reversed $21 $-1 #
coedge $-1 $67 $23 $62 $68 reversed $14 $-1 #
coedge $-1 $23 $67 $63 $69 reversed $14 $-1 #
coedge $-1 $65 $70 $23 $39 forward $71 $-1 #
edge $-1 $72 -16.146713220634446 $73 -7.4047400418711433 $38 $74 forward 7 unknown #
face $-1 $75 $76 $6 $-1 $77 reversed single #
loop $-1 $-1 $78 $24 #
plane-surface $-1 -60.457167271950439 0 0 1 0 0 0 0 -1 forward_v I I I I #
coedge $-1 $79 $51 $80 $81 forward $25 $-1 #
coedge $-1 $82 $27 $79 $83 forward $17 $-1 #
coedge $-1 $27 $82 $84 $85 forward $17 $-1 #
coedge $-1 $54 $53 $27 $47 reversed $55 $-1 #
edge $-1 $86 -27.922439851887241 $87 27.922439851887241 $46 $88 forward 7 unknown #
coedge $-1 $29 $28 $89 $90 forward $11 $-1 #
coedge $-1 $91 $92 $28 $50 reversed $76 $-1 #
edge $-1 $57 -60.457167271950439 $93 60.457167271950439 $49 $94 forward 7 unknown #
coedge $-1 $43 $95 $29 $52 reversed $25 $-1 #
edge $-1 $96 -60.457167271950439 $56 60.457167271950439 $51 $97 forward 7 unknown #
coedge $-1 $46 $30 $95 $98 forward $55 $-1 #
coedge $-1 $30 $46 $91 $99 reversed $55 $-1 #
loop $-1 $-1 $53 $75 #
vertex $-1 $31 $100 #
vertex $-1 $31 $101 #
straight-curve $-1 60.457167271950439 0 6.744351030236567 0 1 0 I I #
face $-1 $102 $103 $7 $-1 $104 forward single #
loop $-1 $-1 $105 $32 #
plane-surface $-1 0 0 -6.744351030236567 0 0 1 1 0 0 forward_v I I I I #
coedge $-1 $106 $107 $36 $68 forward $33 $-1 #
coedge $-1 $108 $35 $37 $69 forward $21 $-1 #
coedge $-1 $35 $108 $105 $109 reversed $21 $-1 #
coedge $-1 $110 $38 $35 $66 forward $71 $-1 #
edge $-1 $73 1.1221755151182835 $111 4.1221755151182835 $65 $112 forward 7 unknown #
coedge $-1 $37 $36 $113 $114 reversed $14 $-1 #
edge $-1 $115 -60.457167271950439 $72 60.457167271950439 $62 $116 forward 7 unknown #
edge $-1 $73 -60.457167271950439 $117 60.457167271950439 $63 $118 forward 7 unknown #
coedge $-1 $38 $119 $106 $120 forward $71 $-1 #
loop $-1 $-1 $65 $121 #
vertex $-1 $68 $122 #
vertex $-1 $39 $123 #
straight-curve $-1 60.457167271950439 -11.775726631252795 -3.744351030236567 0 1 0 I I #
face $-1 $-1 $55 $6 $-1 $124 reversed single #
loop $-1 $-1 $91 $40 #
plane-surface $-1 0 27.922439851887241 0 0 -1 0 0 0 -1 forward_v I I I I #
coedge $-1 $125 $89 $92 $126 forward $41 $-1 #
coedge $-1 $95 $43 $44 $83 reversed $25 $-1 #
coedge $-1 $89 $125 $43 $81 reversed $41 $-1 #
edge $-1 $96 -6.744351030236567 $127 6.744351030236567 $80 $128 forward 7 unknown #
coedge $-1 $45 $44 $125 $129 forward $17 $-1 #
edge $-1 $87 -60.457167271950439 $127 60.457167271950439 $79 $130 forward 7 unknown #
coedge $-1 $92 $91 $45 $85 reversed $76 $-1 #
edge $-1 $131 -60.457167271950439 $86 60.457167271950439 $84 $132 forward 7 unknown #
vertex $-1 $47 $133 #
vertex $-1 $98 $134 #
straight-curve $-1 60.457167271950439 0 -6.744351030236567 0 -1 0 I I #
coedge $-1 $78 $80 $48 $90 reversed $41 $-1 #
edge $-1 $93 -27.922439851887241 $96 27.922439851887241 $89 $135 forward 7 unknown #
coedge $-1 $84 $49 $54 $99 forward $76 $-1 #
coedge $-1 $49 $84 $78 $126 reversed $76 $-1 #
vertex $-1 $50 $136 #
straight-curve $-1 0 27.922439851887241 6.744351030236567 -1 0 0 I I #
coedge $-1 $51 $79 $53 $98 reversed $25 $-1 #
vertex $-1 $90 $137 #
straight-curve $-1 0 -27.922439851887241 6.744351030236567 1 0 0 I I #
edge $-1 $56 -6.744351030236567 $87 6.744351030236567 $53 $138 forward 7 unknown #
edge $-1 $57 -6.744351030236567 $86 6.744351030236567 $54 $139 forward 7 unknown #
point $-1 60.457167271950439 -27.922439851887241 6.744351030236567 #
point $-1 60.457167271950439 27.922439851887241 6.744351030236567 #
face $-1 $140 $141 $7 $-1 $142 reversed single #
loop $-1 $-1 $143 $59 #
plane-surface $-1 0 0 6.744351030236567 0 0 1 1 0 0 forward_v I I I I #
coedge $-1 $144 $145 $64 $109 forward $60 $-1 #
coedge $-1 $146 $62 $70 $120 reversed $33 $-1 #
coedge $-1 $62 $146 $147 $148 forward $33 $-1 #
coedge $-1 $64 $63 $149 $150 reversed $21 $-1 #
edge $-1 $111 -60.457167271950439 $151 60.457167271950439 $105 $152 forward 7 unknown #
coedge $-1 $153 $65 $145 $154 reversed $71 $-1 #
vertex $-1 $109 $155 #
straight-curve $-1 60.457167271950439 -19.180466673123938 -2.6221755151182835 0 0 -1 I I #
coedge $-1 $147 $149 $67 $114 forward $141 $-1 #
edge $-1 $117 7.4047400418711433 $115 16.146713220634446 $113 $156 forward 7 unknown #
vertex $-1 $68 $157 #
straight-curve $-1 0 -27.922439851887241 -3.744351030236567 1 0 0 I I #
vertex $-1 $114 $158 #
straight-curve $-1 0 -19.180466673123938 -3.744351030236567 -1 0 0 I I #
coedge $-1 $70 $153 $143 $159 reversed $71 $-1 #
edge $-1 $160 -6.744351030236567 $72 3.744351030236567 $70 $161 forward 7 unknown #
face $-1 $-1 $71 $7 $-1 $162 reversed single #
point $-1 60.457167271950439 -27.922439851887241 -3.744351030236567 #
point $-1 60.457167271950439 -19.180466673123938 -3.744351030236567 #
plane-surface $-1 60.457167271950439 0 0 -1 0 0 0 0 1 forward_v I I I I #
coedge $-1 $80 $78 $82 $129 reversed $41 $-1 #
edge $-1 $93 -6.744351030236567 $131 6.744351030236567 $92 $163 forward 7 unknown #
vertex $-1 $129 $164 #
straight-curve $-1 -60.457167271950439 -27.922439851887241 0 0 0 -1 I I #
edge $-1 $127 -27.922439851887241 $131 27.922439851887241 $125 $165 forward 7 unknown #
straight-curve $-1 0 -27.922439851887241 -6.744351030236567 -1 0 0 I I #
vertex $-1 $85 $166 #
straight-curve $-1 0 27.922439851887241 -6.744351030236567 1 0 0 I I #
point $-1 60.457167271950439 27.922439851887241 -6.744351030236567 #
point $-1 60.457167271950439 -27.922439851887241 -6.744351030236567 #
straight-curve $-1 -60.457167271950439 0 6.744351030236567 0 -1 0 I I #
point $-1 -60.457167271950439 27.922439851887241 6.744351030236567 #
point $-1 -60.457167271950439 -27.922439851887241 6.744351030236567 #
straight-curve $-1 60.457167271950439 -27.922439851887241 0 0 0 -1 I I #
straight-curve $-1 60.457167271950439 27.922439851887241 0 0 0 -1 I I #
face $-1 $121 $167 $7 $-1 $168 reversed single #
loop $-1 $-1 $113 $102 #
plane-surface $-1 -60.457167271950439 0 0 1 0 0 0 0 -1 forward_v I I I I #
coedge $-1 $169 $170 $119 $159 forward $103 $-1 #
coedge $-1 $171 $105 $172 $173 forward $60 $-1 #
coedge $-1 $105 $171 $110 $154 forward $60 $-1 #
coedge $-1 $107 $106 $170 $174 reversed $33 $-1 #
coedge $-1 $175 $113 $107 $148 reversed $141 $-1 #
edge $-1 $176 -6.744351030236567 $115 3.744351030236567 $147 $177 forward 7 unknown #
coedge $-1 $113 $172 $108 $150 forward $141 $-1 #
edge $-1 $151 -4.1221755151182835 $117 -1.1221755151182835 $149 $178 forward 7 unknown #
vertex $-1 $173 $179 #
straight-curve $-1 0 -19.180466673123938 -6.744351030236567 -1 0 0 I I #
coedge $-1 $119 $110 $180 $181 reversed $71 $-1 #
edge $-1 $182 -27.922439851887241 $111 19.180466673123938 $110 $183 forward 7 unknown #
point $-1 60.457167271950439 -19.180466673123938 -6.744351030236567 #
straight-curve $-1 -60.457167271950439 -11.775726631252795 -3.744351030236567 0 -1 0 I I #
point $-1 -60.457167271950439 -27.922439851887241 -3.744351030236567 #
point $-1 -60.457167271950439 -19.180466673123938 -3.744351030236567 #
edge $-1 $160 -27.922439851887241 $184 27.922439851887241 $119 $185 forward 7 unknown #
vertex $-1 $159 $186 #
straight-curve $-1 60.457167271950439 -27.922439851887241 0 0 0 -1 I I #
plane-surface $-1 60.457167271950439 0 0 -1 0 0 0 0 1 forward_v I I I I #
straight-curve $-1 -60.457167271950439 27.922439851887241 0 0 0 -1 I I #
point $-1 -60.457167271950439 -27.922439851887241 -6.744351030236567 #
straight-curve $-1 -60.457167271950439 0 -6.744351030236567 0 1 0 I I #
point $-1 -60.457167271950439 27.922439851887241 -6.744351030236567 #
loop $-1 $-1 $180 $140 #
plane-surface $-1 0 27.922439851887241 0 0 -1 0 0 0 -1 forward_v I I I I #
coedge $-1 $187 $143 $188 $189 forward $103 $-1 #
coedge $-1 $143 $187 $146 $174 forward $103 $-1 #
coedge $-1 $145 $144 $190 $191 forward $60 $-1 #
coedge $-1 $149 $192 $144 $173 reversed $141 $-1 #
edge $-1 $151 -19.180466673123938 $193 27.922439851887241 $172 $194 forward 7 unknown #
edge $-1 $176 -60.457167271950439 $160 60.457167271950439 $146 $195 forward 7 unknown #
coedge $-1 $192 $147 $187 $196 reversed $141 $-1 #
vertex $-1 $196 $197 #
straight-curve $-1 -60.457167271950439 -27.922439851887241 0 0 0 -1 I I #
straight-curve $-1 -60.457167271950439 -19.180466673123938 -2.6221755151182835 0 0 1 I I #
point $-1 -60.457167271950439 -19.180466673123938 -6.744351030236567 #
coedge $-1 $190 $188 $153 $181 forward $167 $-1 #
edge $-1 $184 -6.744351030236567 $182 6.744351030236567 $153 $198 forward 7 unknown #
vertex $-1 $154 $199 #
straight-curve $-1 60.457167271950439 0 -6.744351030236567 0 -1 0 I I #
vertex $-1 $159 $200 #
straight-curve $-1 60.457167271950439 0 6.744351030236567 0 1 0 I I #
point $-1 60.457167271950439 -27.922439851887241 6.744351030236567 #
coedge $-1 $170 $169 $175 $196 forward $103 $-1 #
coedge $-1 $180 $201 $169 $189 reversed $167 $-1 #
edge $-1 $184 -60.457167271950439 $202 60.457167271950439 $188 $203 forward 7 unknown #
coedge $-1 $201 $180 $171 $191 reversed $167 $-1 #
edge $-1 $193 -60.457167271950439 $182 60.457167271950439 $190 $204 forward 7 unknown #
coedge $-1 $172 $175 $201 $205 forward $141 $-1 #
vertex $-1 $191 $206 #
straight-curve $-1 -60.457167271950439 0 -6.744351030236567 0 1 0 I I #
straight-curve $-1 0 -27.922439851887241 6.744351030236567 1 0 0 I I #
edge $-1 $202 -27.922439851887241 $176 27.922439851887241 $175 $207 forward 7 unknown #
point $-1 -60.457167271950439 -27.922439851887241 6.744351030236567 #
straight-curve $-1 60.457167271950439 27.922439851887241 0 0 0 -1 I I #
point $-1 60.457167271950439 27.922439851887241 -6.744351030236567 #
point $-1 60.457167271950439 27.922439851887241 6.744351030236567 #
coedge $-1 $188 $190 $192 $205 reversed $167 $-1 #
vertex $-1 $189 $208 #
straight-curve $-1 0 27.922439851887241 6.744351030236567 -1 0 0 I I #
straight-curve $-1 0 27.922439851887241 -6.744351030236567 1 0 0 I I #
edge $-1 $202 -6.744351030236567 $193 6.744351030236567 $201 $209 forward 7 unknown #
point $-1 -60.457167271950439 27.922439851887241 -6.744351030236567 #
straight-curve $-1 -60.457167271950439 0 6.744351030236567 0 -1 0 I I #
point $-1 -60.457167271950439 27.922439851887241 6.744351030236567 #
straight-curve $-1 -60.457167271950439 27.922439851887241 0 0 0 -1 I I #
End-of-ACIS-data 