500 0 10 0           
7 Unknown 11 ACIS 5.0 NT 24 Fri Mar 26 17:57:16 1999 
-1 9.9999999999999995e-007 1e-010 
body $-1 $10 $-1 $11 #
body $-1 $12 $-1 $13 #
body $-1 $14 $-1 $15 #
body $-1 $16 $-1 $17 #
body $-1 $18 $-1 $19 #
body $-1 $20 $-1 $21 #
body $-1 $22 $-1 $23 #
body $-1 $24 $-1 $25 #
body $-1 $26 $-1 $27 #
body $-1 $28 $-1 $29 #
lump $-1 $-1 $30 $0 #
transform $-1 1 0 0 0 1 0 0 0 1 53.203527939695427 22.592705135169471 6.474709237092469 1 rotate no_reflect no_shear #
lump $-1 $-1 $31 $1 #
transform $-1 1 0 0 0 1 0 0 0 1 53.203527939695427 22.592705135169471 6.474709237092469 1 rotate no_reflect no_shear #
lump $-1 $-1 $32 $2 #
transform $-1 1 0 0 0 1 0 0 0 1 53.203527939695427 22.592705135169471 6.474709237092469 1 rotate no_reflect no_shear #
lump $-1 $-1 $33 $3 #
transform $-1 1 0 0 0 1 0 0 0 1 53.203527939695427 22.592705135169471 6.474709237092469 1 rotate no_reflect no_shear #
lump $-1 $-1 $34 $4 #
transform $-1 1 0 0 0 1 0 0 0 1 53.203527939695427 22.592705135169471 6.474709237092469 1 rotate no_reflect no_shear #
lump $-1 $-1 $35 $5 #
transform $-1 1 0 0 0 1 0 0 0 1 53.203527939695427 22.592705135169471 6.474709237092469 1 rotate no_reflect no_shear #
lump $-1 $-1 $36 $6 #
transform $-1 1 0 0 0 1 0 0 0 1 53.203527939695427 22.592705135169471 6.474709237092469 1 rotate no_reflect no_shear #
lump $-1 $-1 $37 $7 #
transform $-1 1 0 0 0 1 0 0 0 1 53.203527939695427 22.592705135169471 6.474709237092469 1 rotate no_reflect no_shear #
lump $-1 $-1 $38 $8 #
transform $-1 1 0 0 0 1 0 0 0 1 53.203527939695427 22.592705135169471 6.474709237092469 1 rotate no_reflect no_shear #
lump $-1 $-1 $39 $9 #
transform $-1 1 0 0 0 1 0 0 0 1 53.203527939695427 22.592705135169471 6.474709237092469 1 rotate no_reflect no_shear #
shell $-1 $-1 $-1 $40 $-1 $10 #
shell $-1 $-1 $-1 $41 $-1 $12 #
shell $-1 $-1 $-1 $42 $-1 $14 #
shell $-1 $-1 $-1 $43 $-1 $16 #
shell $-1 $-1 $-1 $44 $-1 $18 #
shell $-1 $-1 $-1 $45 $-1 $20 #
shell $-1 $-1 $-1 $46 $-1 $22 #
shell $-1 $-1 $-1 $47 $-1 $24 #
shell $-1 $-1 $-1 $48 $-1 $26 #
shell $-1 $-1 $-1 $49 $-1 $28 #
face $-1 $50 $51 $30 $-1 $52 forward single #
face $-1 $53 $54 $31 $-1 $55 forward single #
face $-1 $56 $57 $32 $-1 $58 reversed single #
face $-1 $59 $60 $33 $-1 $61 forward single #
face $-1 $62 $63 $34 $-1 $64 reversed single #
face $-1 $65 $66 $35 $-1 $67 forward single #
face $-1 $68 $69 $36 $-1 $70 reversed single #
face $-1 $71 $72 $37 $-1 $73 forward single #
face $-1 $74 $75 $38 $-1 $76 forward single #
face $-1 $77 $78 $39 $-1 $79 forward single #
face $-1 $80 $81 $30 $-1 $82 reversed single #
loop $-1 $-1 $83 $40 #
plane-surface $-1 0 0 6.474709237092469 0 0 1 1 0 0 forward_v I I I I #
face $-1 $84 $85 $31 $-1 $86 reversed single #
loop $-1 $-1 $87 $41 #
plane-surface $-1 -53.203527939695427 0 0 1 0 0 0 0 -1 forward_v I I I I #
face $-1 $88 $89 $32 $-1 $90 reversed single #
loop $-1 $-1 $91 $42 #
plane-surface $-1 -38.406933483364021 83.83897727800894 100.2411771527878 1 0 0 0 -0.81915205242281985 -0.57357642473473569 forward_v I I I I #
face $-1 $92 $93 $33 $-1 $94 forward single #
loop $-1 $95 $96 $43 #
cone-surface $-1 -29.65188607979422 20.225269097817463 3.7262772737058936 0 -0.81915205242281985 -0.57357642473473569 1 0 0 1 I I 0 1 1 forward I I I I #
face $-1 $97 $98 $34 $-1 $99 reversed single #
loop $-1 $-1 $100 $44 #
plane-surface $-1 11.20724779397602 83.83897727800894 100.2411771527878 1 0 0 0 -0.81915205242281985 -0.57357642473473569 forward_v I I I I #
face $-1 $101 $102 $35 $-1 $103 forward single #
loop $-1 $104 $105 $45 #
cone-surface $-1 19.962295197545821 20.225269097817463 3.7262772737058936 0 -0.81915205242281985 -0.57357642473473569 1 0 0 1 I I 0 1 1 forward I I I I #
face $-1 $106 $107 $36 $-1 $108 reversed single #
loop $-1 $-1 $109 $46 #
plane-surface $-1 -16.297479320358583 -80.546142127416857 92.557276784009417 -1 0 0 0 -0.54463904215088732 0.83867056331134215 forward_v I I I I #
face $-1 $110 $111 $37 $-1 $112 forward single #
loop $-1 $113 $114 $47 #
cone-surface $-1 -27.316863629693277 -19.153787160022006 3.3442696312921529 0 0.54463904215088732 -0.83867056331134215 1 0 0 1 I I 0 1 1 forward I I I I #
face $-1 $115 $116 $38 $-1 $117 forward single #
loop $-1 $118 $119 $48 #
cone-surface $-1 -23.184594513692765 -19.153787160022006 3.3442696312921529 0 0.54463904215088732 -0.83867056331134215 1 0 0 1 I I 0 1 1 forward I I I I #
face $-1 $120 $121 $39 $-1 $122 forward single #
loop $-1 $123 $124 $49 #
cone-surface $-1 -19.052325397692258 -19.153787160022006 3.3442696312921529 0 0.54463904215088732 -0.83867056331134215 1 0 0 1 I I 0 1 1 forward I I I I #
face $-1 $125 $126 $30 $-1 $127 reversed single #
loop $-1 $-1 $128 $50 #
plane-surface $-1 0 0 -6.474709237092469 0 0 1 1 0 0 forward_v I I I I #
coedge $-1 $129 $130 $131 $132 forward $51 $-1 #
face $-1 $133 $134 $31 $-1 $135 reversed single #
loop $-1 $-1 $136 $53 #
plane-surface $-1 0 22.592705135169471 0 0 -1 0 0 0 -1 forward_v I I I I #
coedge $-1 $137 $138 $139 $140 forward $54 $-1 #
face $-1 $141 $142 $32 $-1 $143 reversed single #
loop $-1 $-1 $144 $56 #
plane-surface $-1 -29.65188607979422 -3.3245809378637574 39.20859847493756 0 0.81915205242281985 0.57357642473473569 1 0 0 forward_v I I I I #
coedge $-1 $145 $146 $147 $148 reversed $57 $-1 #
face $-1 $-1 $149 $33 $-1 $150 forward single #
loop $-1 $151 $152 $59 #
cone-surface $-1 -29.65188607979422 18.946642417033633 2.8309732602870525 0 -0.81915205242281985 -0.57357642473473569 0.5 0 0 1 I I -0.70710678118654746 0.70710678118654746 0.5 forward I I I I #
loop $-1 $-1 $153 $43 #
coedge $-1 $96 $96 $154 $155 reversed $60 $-1 #
face $-1 $156 $157 $34 $-1 $158 reversed single #
loop $-1 $-1 $159 $62 #
plane-surface $-1 19.962295197545821 -3.3245809378637574 39.20859847493756 0 0.81915205242281985 0.57357642473473569 1 0 0 forward_v I I I I #
coedge $-1 $160 $161 $162 $163 reversed $63 $-1 #
face $-1 $-1 $164 $35 $-1 $165 forward single #
loop $-1 $166 $167 $65 #
cone-surface $-1 19.962295197545821 18.946642417033633 2.8309732602870525 0 -0.81915205242281985 -0.57357642473473569 0.5 0 0 1 I I -0.70710678118654746 0.70710678118654746 0.5 forward I I I I #
loop $-1 $-1 $168 $45 #
coedge $-1 $105 $105 $169 $170 reversed $66 $-1 #
face $-1 $171 $172 $36 $-1 $173 reversed single #
loop $-1 $-1 $174 $68 #
plane-surface $-1 -23.184594513692765 -22.592705135169481 3.3168112893392276 0 -0.54463904215088732 0.83867056331134215 1 0 0 forward_v I I I I #
coedge $-1 $175 $176 $177 $178 reversed $69 $-1 #
face $-1 $-1 $179 $37 $-1 $180 forward single #
loop $-1 $181 $182 $71 #
cone-surface $-1 -27.316863629693277 -17.873917823032372 1.3734437177127896 0 0.54463904215088732 -0.83867056331134215 0.5 0 0 1 I I -0.70710678118654746 0.70710678118654746 0.5 forward I I I I #
loop $-1 $-1 $183 $47 #
coedge $-1 $114 $114 $184 $185 reversed $72 $-1 #
face $-1 $-1 $186 $38 $-1 $187 forward single #
loop $-1 $188 $189 $74 #
cone-surface $-1 -23.184594513692765 -17.873917823032372 1.3734437177127896 0 0.54463904215088732 -0.83867056331134215 0.5 0 0 1 I I -0.70710678118654746 0.70710678118654746 0.5 forward I I I I #
loop $-1 $-1 $190 $48 #
coedge $-1 $119 $119 $191 $192 reversed $75 $-1 #
face $-1 $-1 $193 $39 $-1 $194 forward single #
loop $-1 $195 $196 $77 #
cone-surface $-1 -19.052325397692258 -17.873917823032372 1.3734437177127896 0 0.54463904215088732 -0.83867056331134215 0.5 0 0 1 I I -0.70710678118654746 0.70710678118654746 0.5 forward I I I I #
loop $-1 $-1 $197 $49 #
coedge $-1 $124 $124 $198 $199 reversed $78 $-1 #
face $-1 $200 $201 $30 $-1 $202 reversed single #
loop $-1 $-1 $203 $80 #
plane-surface $-1 0 -22.592705135169471 0 0 1 0 0 0 1 forward_v I I I I #
coedge $-1 $204 $205 $206 $207 forward $81 $-1 #
coedge $-1 $208 $83 $209 $210 forward $51 $-1 #
coedge $-1 $83 $208 $211 $212 forward $51 $-1 #
coedge $-1 $213 $214 $83 $132 reversed $215 $-1 #
edge $-1 $216 -22.592705135169471 $217 22.592705135169471 $131 $218 forward 7 unknown #
face $-1 $219 $220 $31 $-1 $221 reversed single #
loop $-1 $-1 $139 $84 #
plane-surface $-1 -56.792874602050816 0 3.474709237092469 0 0 1 1 0 0 forward_v I I I I #
coedge $-1 $222 $223 $137 $224 forward $85 $-1 #
coedge $-1 $225 $87 $136 $224 reversed $54 $-1 #
coedge $-1 $87 $225 $226 $227 reversed $54 $-1 #
coedge $-1 $228 $229 $87 $140 reversed $134 $-1 #
edge $-1 $230 -22.592705135169471 $231 22.592705135169471 $139 $232 forward 7 unknown #
face $-1 $233 $234 $32 $-1 $235 forward single #
loop $-1 $-1 $236 $88 #
plane-surface $-1 -20.896838676224419 83.83897727800894 100.2411771527878 -1 0 0 0 0.81915205242281985 0.57357642473473569 forward_v I I I I #
coedge $-1 $237 $238 $239 $240 reversed $89 $-1 #
coedge $-1 $146 $91 $241 $242 reversed $57 $-1 #
coedge $-1 $91 $145 $237 $243 reversed $57 $-1 #
coedge $-1 $239 $244 $91 $148 forward $234 $-1 #
edge $-1 $245 19.326783503834999 $246 22.323554269394176 $147 $247 forward 7 unknown #
loop $-1 $-1 $154 $92 #
plane-surface $-1 -29.65188607979422 -3.3245809378637574 39.20859847493756 0 0.81915205242281985 0.57357642473473569 1 0 0 forward_v I I I I #
loop $-1 $-1 $248 $59 #
coedge $-1 $152 $152 $153 $249 reversed $93 $-1 #
coedge $-1 $153 $153 $152 $249 forward $95 $-1 #
coedge $-1 $154 $154 $96 $155 forward $149 $-1 #
edge $-1 $250 4.377397429100914e-016 $250 6.2831853071796004 $154 $251 forward 7 unknown #
face $-1 $252 $253 $34 $-1 $254 forward single #
loop $-1 $-1 $255 $97 #
plane-surface $-1 28.717342601115622 83.83897727800894 100.2411771527878 -1 0 0 0 0.81915205242281985 0.57357642473473569 forward_v I I I I #
coedge $-1 $256 $257 $258 $259 reversed $98 $-1 #
coedge $-1 $161 $100 $260 $261 reversed $63 $-1 #
coedge $-1 $100 $160 $256 $262 reversed $63 $-1 #
coedge $-1 $258 $263 $100 $163 forward $253 $-1 #
edge $-1 $264 19.326783503834999 $265 22.323554269394176 $162 $266 forward 7 unknown #
loop $-1 $-1 $169 $101 #
plane-surface $-1 19.962295197545821 -3.3245809378637574 39.20859847493756 0 0.81915205242281985 0.57357642473473569 1 0 0 forward_v I I I I #
loop $-1 $-1 $267 $65 #
coedge $-1 $167 $167 $168 $268 reversed $102 $-1 #
coedge $-1 $168 $168 $167 $268 forward $104 $-1 #
coedge $-1 $169 $169 $105 $170 forward $164 $-1 #
edge $-1 $269 4.377397429100914e-016 $269 6.2831853071796004 $169 $270 forward 7 unknown #
face $-1 $271 $272 $36 $-1 $273 reversed single #
loop $-1 $-1 $274 $106 #
plane-surface $-1 -30.071709707026947 -80.546142127416857 92.557276784009417 1 0 0 0 0.54463904215088732 -0.83867056331134215 forward_v I I I I #
coedge $-1 $275 $276 $277 $278 reversed $107 $-1 #
coedge $-1 $176 $109 $279 $280 reversed $69 $-1 #
coedge $-1 $109 $175 $275 $281 reversed $69 $-1 #
coedge $-1 $277 $282 $109 $178 forward $283 $-1 #
edge $-1 $284 17.680365928538958 $285 22.543102247005475 $177 $286 forward 7 unknown #
loop $-1 $-1 $184 $110 #
plane-surface $-1 -23.184594513692765 -22.592705135169481 3.3168112893392276 0 -0.54463904215088732 0.83867056331134215 1 0 0 forward_v I I I I #
loop $-1 $-1 $287 $71 #
coedge $-1 $182 $182 $183 $288 reversed $111 $-1 #
coedge $-1 $183 $183 $182 $288 forward $113 $-1 #
coedge $-1 $184 $184 $114 $185 forward $179 $-1 #
edge $-1 $289 -3.3090199866558177e-015 $289 6.2831853071795969 $184 $290 forward 7 unknown #
loop $-1 $-1 $191 $115 #
plane-surface $-1 -23.184594513692765 -22.592705135169481 3.3168112893392276 0 -0.54463904215088732 0.83867056331134215 1 0 0 forward_v I I I I #
loop $-1 $-1 $291 $74 #
coedge $-1 $189 $189 $190 $292 reversed $116 $-1 #
coedge $-1 $190 $190 $189 $292 forward $118 $-1 #
coedge $-1 $191 $191 $119 $192 forward $186 $-1 #
edge $-1 $293 -3.3090199866558177e-015 $293 6.2831853071795969 $191 $294 forward 7 unknown #
loop $-1 $-1 $198 $120 #
plane-surface $-1 -23.184594513692765 -22.592705135169481 3.3168112893392276 0 -0.54463904215088732 0.83867056331134215 1 0 0 forward_v I I I I #
loop $-1 $-1 $295 $77 #
coedge $-1 $196 $196 $197 $296 reversed $121 $-1 #
coedge $-1 $197 $197 $196 $296 forward $123 $-1 #
coedge $-1 $198 $198 $124 $199 forward $193 $-1 #
edge $-1 $297 -3.3090199866558177e-015 $297 6.2831853071795969 $198 $298 forward 7 unknown #
face $-1 $299 $300 $30 $-1 $301 reversed single #
loop $-1 $-1 $302 $125 #
plane-surface $-1 -53.203527939695427 0 0 1 0 0 0 0 -1 forward_v I I I I #
coedge $-1 $303 $211 $304 $305 forward $126 $-1 #
coedge $-1 $306 $128 $303 $307 forward $81 $-1 #
coedge $-1 $128 $306 $308 $309 forward $81 $-1 #
coedge $-1 $214 $213 $128 $207 reversed $215 $-1 #
edge $-1 $310 -22.592705135169471 $311 22.592705135169471 $206 $312 forward 7 unknown #
coedge $-1 $130 $129 $313 $314 forward $51 $-1 #
coedge $-1 $315 $316 $129 $210 reversed $300 $-1 #
edge $-1 $217 -53.203527939695427 $317 53.203527939695427 $209 $318 forward 7 unknown #
coedge $-1 $203 $319 $130 $212 reversed $126 $-1 #
edge $-1 $320 -53.203527939695427 $216 53.203527939695427 $211 $321 forward 7 unknown #
coedge $-1 $206 $131 $319 $322 forward $215 $-1 #
coedge $-1 $131 $206 $315 $323 reversed $215 $-1 #
loop $-1 $-1 $213 $299 #
vertex $-1 $132 $324 #
vertex $-1 $132 $325 #
straight-curve $-1 53.203527939695427 0 6.474709237092469 0 1 0 I I #
face $-1 $326 $327 $31 $-1 $328 forward single #
loop $-1 $-1 $329 $133 #
plane-surface $-1 -60.382221264406205 0 4.974709237092469 1 0 0 0 0 -1 forward_v I I I I #
coedge $-1 $330 $136 $229 $331 reversed $85 $-1 #
coedge $-1 $136 $330 $332 $333 reversed $85 $-1 #
edge $-1 $334 -6.474709237092469 $231 -3.474709237092469 $136 $335 forward 7 unknown #
coedge $-1 $138 $137 $336 $337 reversed $54 $-1 #
coedge $-1 $338 $339 $138 $227 forward $340 $-1 #
edge $-1 $230 3.474709237092469 $341 6.474709237092469 $226 $342 forward 7 unknown #
coedge $-1 $343 $139 $339 $344 forward $134 $-1 #
coedge $-1 $139 $343 $222 $331 forward $134 $-1 #
vertex $-1 $227 $345 #
vertex $-1 $224 $346 #
straight-curve $-1 -53.203527939695427 0 3.474709237092469 0 1 0 I I #
face $-1 $-1 $347 $32 $-1 $348 reversed single #
loop $-1 $-1 $147 $141 #
plane-surface $-1 0 0 6.474709237092469 0 0 1 1 0 0 forward_v I I I I #
coedge $-1 $349 $350 $351 $352 reversed $142 $-1 #
coedge $-1 $353 $144 $146 $243 forward $89 $-1 #
coedge $-1 $144 $353 $349 $354 forward $89 $-1 #
coedge $-1 $351 $147 $144 $240 forward $234 $-1 #
edge $-1 $246 -23.580990443466909 $355 -6.0708956363273092 $239 $356 forward 7 unknown #
coedge $-1 $357 $358 $145 $242 forward $347 $-1 #
edge $-1 $359 -47.925711663971661 $245 -43.64587933930143 $241 $360 forward 7 unknown #
edge $-1 $246 39.96069977610081 $359 45.185410270338963 $146 $361 forward 7 unknown #
coedge $-1 $147 $351 $357 $362 forward $234 $-1 #
vertex $-1 $242 $363 #
vertex $-1 $148 $364 #
straight-curve $-1 -38.406933483364021 41.91948863900447 6.474709237092469 0 -1 0 I I #
coedge $-1 $248 $248 $-1 $365 reversed $151 $-1 #
edge $-1 $366 0 $366 6.2831853071796004 $152 $367 forward 7 unknown #
vertex $-1 $155 $368 #
ellipse-curve $-1 -29.65188607979422 21.094319752389875 4.3347930747573615 0 0.81915205242281985 0.57357642473473569 1 0 0 1 I I #
face $-1 $-1 $369 $34 $-1 $370 reversed single #
loop $-1 $-1 $162 $156 #
plane-surface $-1 0 0 6.474709237092469 0 0 1 1 0 0 forward_v I I I I #
coedge $-1 $371 $372 $373 $374 reversed $157 $-1 #
coedge $-1 $375 $159 $161 $262 forward $98 $-1 #
coedge $-1 $159 $375 $371 $376 forward $98 $-1 #
coedge $-1 $373 $162 $159 $259 forward $253 $-1 #
edge $-1 $265 1.2261001952031094 $377 18.736195002342711 $258 $378 forward 7 unknown #
coedge $-1 $379 $380 $160 $261 forward $369 $-1 #
edge $-1 $381 -47.925711663971661 $264 -43.64587933930143 $260 $382 forward 7 unknown #
edge $-1 $265 39.96069977610081 $381 45.185410270338963 $161 $383 forward 7 unknown #
coedge $-1 $162 $373 $379 $384 forward $253 $-1 #
vertex $-1 $163 $385 #
vertex $-1 $163 $386 #
straight-curve $-1 11.20724779397602 41.91948863900447 6.474709237092469 0 -1 0 I I #
coedge $-1 $267 $267 $-1 $387 reversed $166 $-1 #
edge $-1 $388 0 $388 6.2831853071796004 $167 $389 forward 7 unknown #
vertex $-1 $170 $390 #
ellipse-curve $-1 19.962295197545821 21.094319752389875 4.3347930747573615 0 0.81915205242281985 0.57357642473473569 1 0 0 1 I I #
face $-1 $-1 $283 $36 $-1 $391 forward single #
loop $-1 $-1 $392 $171 #
plane-surface $-1 0 -22.592705135169471 0 0 1 0 0 0 1 forward_v I I I I #
coedge $-1 $393 $394 $395 $396 reversed $172 $-1 #
coedge $-1 $397 $174 $176 $281 forward $107 $-1 #
coedge $-1 $174 $397 $393 $398 forward $107 $-1 #
coedge $-1 $395 $177 $174 $278 forward $283 $-1 #
edge $-1 $285 4.7051820635122006 $399 18.479412450180565 $277 $400 forward 7 unknown #
coedge $-1 $401 $402 $175 $280 forward $272 $-1 #
edge $-1 $403 -42.961827102665474 $284 -39.80392915491224 $279 $404 forward 7 unknown #
edge $-1 $285 -5.7981483209174236 $403 -1.2808562296967101e-014 $176 $405 forward 7 unknown #
coedge $-1 $177 $395 $401 $406 forward $283 $-1 #
loop $-1 $-1 $395 $271 #
vertex $-1 $280 $407 #
vertex $-1 $178 $408 #
straight-curve $-1 -16.297479320358583 -40.273071063708429 6.474709237092469 0 1 0 I I #
coedge $-1 $287 $287 $-1 $409 reversed $181 $-1 #
edge $-1 $410 0 $410 6.2831853071796004 $182 $411 forward 7 unknown #
vertex $-1 $185 $412 #
ellipse-curve $-1 -27.316863629693277 -20.161336975936205 4.8957602632158563 0 -0.54463904215088732 0.83867056331134215 1 0 0 1 I I #
coedge $-1 $291 $291 $-1 $413 reversed $188 $-1 #
edge $-1 $414 0 $414 6.2831853071796004 $189 $415 forward 7 unknown #
vertex $-1 $192 $416 #
ellipse-curve $-1 -23.184594513692765 -20.161336975936205 4.8957602632158563 0 -0.54463904215088732 0.83867056331134215 1 0 0 1 I I #
coedge $-1 $295 $295 $-1 $417 reversed $195 $-1 #
edge $-1 $418 0 $418 6.2831853071796004 $196 $419 forward 7 unknown #
vertex $-1 $199 $420 #
ellipse-curve $-1 -19.052325397692258 -20.161336975936205 4.8957602632158563 0 -0.54463904215088732 0.83867056331134215 1 0 0 1 I I #
face $-1 $-1 $215 $30 $-1 $421 reversed single #
loop $-1 $-1 $315 $200 #
plane-surface $-1 0 22.592705135169471 0 0 -1 0 0 0 -1 forward_v I I I I #
coedge $-1 $422 $313 $316 $423 forward $201 $-1 #
coedge $-1 $319 $203 $204 $307 reversed $126 $-1 #
coedge $-1 $313 $422 $203 $305 reversed $201 $-1 #
edge $-1 $320 -6.474709237092469 $424 6.474709237092469 $304 $425 forward 7 unknown #
coedge $-1 $205 $204 $422 $426 forward $81 $-1 #
edge $-1 $311 -53.203527939695427 $424 53.203527939695427 $303 $427 forward 7 unknown #
coedge $-1 $316 $315 $205 $309 reversed $300 $-1 #
edge $-1 $428 -53.203527939695427 $310 53.203527939695427 $308 $429 forward 7 unknown #
vertex $-1 $207 $430 #
vertex $-1 $322 $431 #
straight-curve $-1 53.203527939695427 0 -6.474709237092469 0 -1 0 I I #
coedge $-1 $302 $304 $208 $314 reversed $201 $-1 #
edge $-1 $317 -22.592705135169471 $320 22.592705135169471 $313 $432 forward 7 unknown #
coedge $-1 $308 $209 $214 $323 forward $300 $-1 #
coedge $-1 $209 $308 $302 $423 reversed $300 $-1 #
vertex $-1 $210 $433 #
straight-curve $-1 0 22.592705135169471 6.474709237092469 -1 0 0 I I #
coedge $-1 $211 $303 $213 $322 reversed $126 $-1 #
vertex $-1 $314 $434 #
straight-curve $-1 0 -22.592705135169471 6.474709237092469 1 0 0 I I #
edge $-1 $216 -6.474709237092469 $311 6.474709237092469 $213 $435 forward 7 unknown #
edge $-1 $217 -6.474709237092469 $310 6.474709237092469 $214 $436 forward 7 unknown #
point $-1 53.203527939695427 -22.592705135169471 6.474709237092469 #
point $-1 53.203527939695427 22.592705135169471 6.474709237092469 #
face $-1 $-1 $340 $31 $-1 $437 reversed single #
loop $-1 $-1 $336 $219 #
plane-surface $-1 0 0 6.474709237092469 0 0 1 1 0 0 forward_v I I I I #
coedge $-1 $438 $439 $330 $440 forward $220 $-1 #
coedge $-1 $223 $222 $329 $440 reversed $85 $-1 #
edge $-1 $441 -3.5893466623553891 $231 3.5893466623553891 $222 $442 forward 7 unknown #
coedge $-1 $443 $336 $223 $333 forward $327 $-1 #
edge $-1 $334 53.203527939695427 $444 60.382221264406205 $223 $445 forward 7 unknown #
vertex $-1 $333 $446 #
straight-curve $-1 -53.203527939695427 22.592705135169471 0 0 0 -1 I I #
coedge $-1 $332 $447 $225 $337 forward $327 $-1 #
edge $-1 $341 -22.592705135169471 $334 22.592705135169471 $336 $448 forward 7 unknown #
coedge $-1 $449 $226 $447 $450 reversed $340 $-1 #
coedge $-1 $226 $449 $228 $344 reversed $340 $-1 #
loop $-1 $-1 $226 $326 #
vertex $-1 $227 $451 #
straight-curve $-1 -53.203527939695427 -22.592705135169471 0 0 0 1 I I #
coedge $-1 $229 $228 $438 $452 forward $134 $-1 #
edge $-1 $230 -3.5893466623553891 $453 3.5893466623553891 $339 $454 forward 7 unknown #
point $-1 -53.203527939695427 -22.592705135169471 3.474709237092469 #
point $-1 -53.203527939695427 22.592705135169471 3.474709237092469 #
loop $-1 $-1 $241 $233 #
plane-surface $-1 0 22.592705135169471 0 0 -1 0 0 0 -1 forward_v I I I I #
coedge $-1 $350 $236 $238 $354 reversed $142 $-1 #
coedge $-1 $236 $349 $455 $456 reversed $142 $-1 #
coedge $-1 $244 $239 $236 $352 forward $234 $-1 #
edge $-1 $355 -22.323554269394176 $457 -19.326783503834999 $351 $458 forward 7 unknown #
coedge $-1 $238 $237 $358 $459 reversed $89 $-1 #
edge $-1 $460 -45.185410270338963 $355 -39.96069977610081 $349 $461 forward 7 unknown #
vertex $-1 $240 $462 #
straight-curve $-1 -14.82594303989711 19.595934369610294 6.4747092370924726 1 0 0 I I #
coedge $-1 $455 $241 $244 $362 reversed $347 $-1 #
coedge $-1 $241 $455 $353 $459 forward $347 $-1 #
vertex $-1 $242 $463 #
straight-curve $-1 -38.406933483364021 22.592705135169471 50.120588576393899 0 0 1 I I #
straight-curve $-1 -38.406933483364021 -3.3245809378637574 39.20859847493756 0 0.57357642473473569 -0.81915205242281985 I I #
edge $-1 $457 20.896838676224419 $245 38.406933483364021 $357 $464 forward 7 unknown #
point $-1 -38.406933483364021 22.592705135169471 6.474709237092469 #
point $-1 -38.406933483364021 19.595934369610294 6.474709237092469 #
edge $-1 $465 1 $465 0 $248 $-1 forward 7 unknown #
vertex $-1 $249 $466 #
ellipse-curve $-1 -29.65188607979422 19.356218443245044 3.1177614726544203 0 0.81915205242281985 0.57357642473473569 1 0 0 1 I I #
point $-1 -28.65188607979422 21.094319752389882 4.334793074757366 #
loop $-1 $-1 $260 $252 #
plane-surface $-1 0 22.592705135169471 0 0 -1 0 0 0 -1 forward_v I I I I #
coedge $-1 $372 $255 $257 $376 reversed $157 $-1 #
coedge $-1 $255 $371 $467 $468 reversed $157 $-1 #
coedge $-1 $263 $258 $255 $374 forward $253 $-1 #
edge $-1 $377 -22.323554269394176 $469 -19.326783503834999 $373 $470 forward 7 unknown #
coedge $-1 $257 $256 $380 $471 reversed $98 $-1 #
edge $-1 $472 -45.185410270338963 $377 -39.96069977610081 $371 $473 forward 7 unknown #
vertex $-1 $259 $474 #
straight-curve $-1 9.9811475987729104 19.595934369610294 6.4747092370924726 1 0 0 I I #
coedge $-1 $467 $260 $263 $384 reversed $369 $-1 #
coedge $-1 $260 $467 $375 $471 forward $369 $-1 #
vertex $-1 $261 $475 #
straight-curve $-1 11.20724779397602 22.592705135169471 50.120588576393899 0 0 1 I I #
straight-curve $-1 11.20724779397602 -3.3245809378637574 39.20859847493756 0 0.57357642473473569 -0.81915205242281985 I I #
edge $-1 $469 -28.717342601115622 $264 -11.20724779397602 $379 $476 forward 7 unknown #
point $-1 11.20724779397602 22.592705135169471 6.474709237092469 #
point $-1 11.20724779397602 19.595934369610294 6.474709237092469 #
edge $-1 $477 1 $477 0 $267 $-1 forward 7 unknown #
vertex $-1 $268 $478 #
ellipse-curve $-1 19.962295197545821 19.356218443245044 3.1177614726544203 0 0.81915205242281985 0.57357642473473569 1 0 0 1 I I #
point $-1 20.962295197545821 21.094319752389882 4.334793074757366 #
plane-surface $-1 0 0 6.474709237092469 0 0 1 1 0 0 forward_v I I I I #
coedge $-1 $402 $401 $394 $479 forward $272 $-1 #
coedge $-1 $394 $274 $276 $398 reversed $172 $-1 #
coedge $-1 $274 $393 $392 $479 reversed $172 $-1 #
coedge $-1 $282 $277 $274 $396 forward $283 $-1 #
edge $-1 $399 -22.543102247005475 $480 -17.680365928538958 $395 $481 forward 7 unknown #
coedge $-1 $276 $275 $402 $482 reversed $107 $-1 #
edge $-1 $483 1.2808562296967101e-014 $399 5.7981483209174236 $393 $484 forward 7 unknown #
vertex $-1 $278 $485 #
straight-curve $-1 -11.592297256846383 -17.729968816702954 6.474709237092469 -1 0 0 I I #
coedge $-1 $392 $279 $282 $406 reversed $272 $-1 #
coedge $-1 $279 $392 $397 $482 forward $272 $-1 #
vertex $-1 $280 $486 #
straight-curve $-1 -16.297479320358583 -22.592705135169471 46.278638392004709 0 0 1 I I #
straight-curve $-1 -16.297479320358583 -22.592705135169481 3.3168112893392276 0 -0.83867056331134215 -0.54463904215088732 I I #
edge $-1 $480 -30.071709707026947 $284 -16.297479320358583 $401 $487 forward 7 unknown #
point $-1 -16.297479320358583 -22.592705135169471 6.474709237092469 #
point $-1 -16.297479320358583 -17.729968816702954 6.474709237092469 #
edge $-1 $488 1 $488 0 $287 $-1 forward 7 unknown #
vertex $-1 $288 $489 #
ellipse-curve $-1 -27.316863629693277 -18.146237344107817 1.7927789993684606 0 -0.54463904215088732 0.83867056331134215 1 0 0 1 I I #
point $-1 -26.316863629693277 -20.161336975936202 4.8957602632158448 #
edge $-1 $490 1 $490 0 $291 $-1 forward 7 unknown #
vertex $-1 $292 $491 #
ellipse-curve $-1 -23.184594513692765 -18.146237344107817 1.7927789993684606 0 -0.54463904215088732 0.83867056331134215 1 0 0 1 I I #
point $-1 -22.184594513692765 -20.161336975936202 4.8957602632158448 #
edge $-1 $492 1 $492 0 $295 $-1 forward 7 unknown #
vertex $-1 $296 $493 #
ellipse-curve $-1 -19.052325397692258 -18.146237344107817 1.7927789993684606 0 -0.54463904215088732 0.83867056331134215 1 0 0 1 I I #
point $-1 -18.052325397692258 -20.161336975936202 4.8957602632158448 #
plane-surface $-1 53.203527939695427 0 0 -1 0 0 0 0 1 forward_v I I I I #
coedge $-1 $304 $302 $306 $426 reversed $201 $-1 #
edge $-1 $317 -6.474709237092469 $428 6.474709237092469 $316 $494 forward 7 unknown #
vertex $-1 $426 $495 #
straight-curve $-1 -53.203527939695427 -22.592705135169471 0 0 0 -1 I I #
edge $-1 $424 -22.592705135169471 $428 22.592705135169471 $422 $496 forward 7 unknown #
straight-curve $-1 0 -22.592705135169471 -6.474709237092469 -1 0 0 I I #
vertex $-1 $309 $497 #
straight-curve $-1 0 22.592705135169471 -6.474709237092469 1 0 0 I I #
point $-1 53.203527939695427 22.592705135169471 -6.474709237092469 #
point $-1 53.203527939695427 -22.592705135169471 -6.474709237092469 #
straight-curve $-1 -53.203527939695427 0 6.474709237092469 0 -1 0 I I #
point $-1 -53.203527939695427 22.592705135169471 6.474709237092469 #
point $-1 -53.203527939695427 -22.592705135169471 6.474709237092469 #
straight-curve $-1 53.203527939695427 -22.592705135169471 0 0 0 -1 I I #
straight-curve $-1 53.203527939695427 22.592705135169471 0 0 0 -1 I I #
plane-surface $-1 0 -22.592705135169471 0 0 1 0 0 0 1 forward_v I I I I #
coedge $-1 $498 $329 $343 $452 reversed $220 $-1 #
coedge $-1 $329 $498 $443 $499 reversed $220 $-1 #
edge $-1 $444 -1.5 $441 1.5 $330 $500 forward 7 unknown #
vertex $-1 $331 $501 #
straight-curve $-1 -56.792874602050816 22.592705135169471 3.474709237092469 1 0 0 I I #
coedge $-1 $447 $332 $439 $499 forward $327 $-1 #
vertex $-1 $333 $502 #
straight-curve $-1 0 22.592705135169471 6.474709237092469 -1 0 0 I I #
point $-1 -53.203527939695427 22.592705135169471 6.474709237092469 #
coedge $-1 $336 $443 $338 $450 forward $327 $-1 #
straight-curve $-1 -53.203527939695427 0 6.474709237092469 0 1 0 I I #
coedge $-1 $339 $338 $498 $503 forward $340 $-1 #
edge $-1 $504 -60.382221264406205 $341 -53.203527939695427 $338 $505 forward 7 unknown #
point $-1 -53.203527939695427 -22.592705135169471 6.474709237092469 #
edge $-1 $453 -22.592705135169471 $441 22.592705135169471 $438 $506 forward 7 unknown #
vertex $-1 $452 $507 #
straight-curve $-1 -56.792874602050816 -22.592705135169471 3.474709237092469 -1 0 0 I I #
coedge $-1 $358 $357 $350 $456 forward $347 $-1 #
edge $-1 $457 43.64587933930143 $460 47.925711663971661 $455 $508 forward 7 unknown #
vertex $-1 $362 $509 #
straight-curve $-1 -20.896838676224419 41.91948863900447 6.474709237092469 0 1 0 I I #
edge $-1 $460 6.0708956363273092 $359 23.580990443466909 $358 $510 forward 7 unknown #
vertex $-1 $459 $511 #
straight-curve $-1 -20.896838676224419 -3.3245809378637574 39.20859847493756 0 -0.57357642473473569 0.81915205242281985 I I #
point $-1 -20.896838676224419 19.595934369610294 6.474709237092469 #
point $-1 -38.406933483364021 22.592705135169471 2.194876912422238 #
straight-curve $-1 0 22.592705135169471 6.474709237092469 -1 0 0 I I #
vertex $-1 $365 $512 #
point $-1 -28.65188607979422 19.356218443245044 3.1177614726544203 #
coedge $-1 $380 $379 $372 $468 forward $369 $-1 #
edge $-1 $469 43.64587933930143 $472 47.925711663971661 $467 $513 forward 7 unknown #
vertex $-1 $384 $514 #
straight-curve $-1 28.717342601115622 41.91948863900447 6.474709237092469 0 1 0 I I #
edge $-1 $472 -18.736195002342711 $381 -1.2261001952031094 $380 $515 forward 7 unknown #
vertex $-1 $471 $516 #
straight-curve $-1 28.717342601115622 -3.3245809378637574 39.20859847493756 0 -0.57357642473473569 0.81915205242281985 I I #
point $-1 28.717342601115622 19.595934369610294 6.474709237092469 #
point $-1 11.20724779397602 22.592705135169471 2.194876912422238 #
straight-curve $-1 0 22.592705135169471 6.474709237092469 -1 0 0 I I #
vertex $-1 $387 $517 #
point $-1 20.962295197545821 19.356218443245044 3.1177614726544203 #
edge $-1 $480 39.80392915491224 $483 42.961827102665474 $392 $518 forward 7 unknown #
vertex $-1 $406 $519 #
straight-curve $-1 -30.071709707026947 -40.273071063708429 6.474709237092469 0 -1 0 I I #
edge $-1 $483 -18.479412450180565 $403 -4.7051820635122006 $402 $520 forward 7 unknown #
vertex $-1 $482 $521 #
straight-curve $-1 -30.071709707026947 -22.592705135169481 3.3168112893392276 0 0.83867056331134215 0.54463904215088732 I I #
point $-1 -30.071709707026947 -17.729968816702954 6.474709237092469 #
point $-1 -16.297479320358583 -22.592705135169471 3.3168112893392347 #
straight-curve $-1 0 -22.592705135169471 6.474709237092469 1 0 0 I I #
vertex $-1 $409 $522 #
point $-1 -26.316863629693277 -18.146237344107817 1.7927789993684606 #
vertex $-1 $413 $523 #
point $-1 -22.184594513692765 -18.146237344107817 1.7927789993684606 #
vertex $-1 $417 $524 #
point $-1 -18.052325397692258 -18.146237344107817 1.7927789993684606 #
straight-curve $-1 -53.203527939695427 22.592705135169471 0 0 0 -1 I I #
point $-1 -53.203527939695427 -22.592705135169471 -6.474709237092469 #
straight-curve $-1 -53.203527939695427 0 -6.474709237092469 0 1 0 I I #
point $-1 -53.203527939695427 22.592705135169471 -6.474709237092469 #
coedge $-1 $439 $438 $449 $503 reversed $220 $-1 #
edge $-1 $444 -22.592705135169471 $504 22.592705135169471 $439 $525 forward 7 unknown #
straight-curve $-1 -60.382221264406205 22.592705135169471 4.974709237092469 0 0 -1 I I #
point $-1 -60.382221264406205 22.592705135169471 3.474709237092469 #
point $-1 -60.382221264406205 22.592705135169471 6.474709237092469 #
edge $-1 $504 -1.5 $453 1.5 $498 $526 forward 7 unknown #
vertex $-1 $499 $527 #
straight-curve $-1 0 -22.592705135169471 6.474709237092469 1 0 0 I I #
straight-curve $-1 -60.382221264406205 0 3.474709237092469 0 1 0 I I #
point $-1 -60.382221264406205 -22.592705135169471 3.474709237092469 #
straight-curve $-1 -20.896838676224419 22.592705135169471 50.120588576393899 0 0 -1 I I #
point $-1 -20.896838676224419 22.592705135169471 6.474709237092469 #
straight-curve $-1 -14.82594303989711 22.592705135169471 2.1948769124222345 -1 0 0 I I #
point $-1 -20.896838676224419 22.592705135169471 2.194876912422238 #
point $-1 -29.65188607979422 18.537066390822222 2.5441850479196848 #
straight-curve $-1 28.717342601115622 22.592705135169471 50.120588576393899 0 0 -1 I I #
point $-1 28.717342601115622 22.592705135169471 6.474709237092469 #
straight-curve $-1 9.9811475987729104 22.592705135169471 2.1948769124222345 -1 0 0 I I #
point $-1 28.717342601115622 22.592705135169471 2.194876912422238 #
point $-1 19.962295197545821 18.537066390822222 2.5441850479196848 #
straight-curve $-1 -30.071709707026947 -22.592705135169471 46.278638392004709 0 0 -1 I I #
point $-1 -30.071709707026947 -22.592705135169471 6.474709237092469 #
straight-curve $-1 -11.592297256846383 -22.592705135169471 3.3168112893392339 1 0 0 I I #
point $-1 -30.071709707026947 -22.592705135169471 3.3168112893392347 #
point $-1 -27.316863629693277 -17.601598301956926 0.95410843605711859 #
point $-1 -23.184594513692765 -17.601598301956926 0.95410843605711859 #
point $-1 -19.052325397692258 -17.601598301956926 0.95410843605711859 #
straight-curve $-1 -60.382221264406205 0 6.474709237092469 0 -1 0 I I #
straight-curve $-1 -60.382221264406205 -22.592705135169471 4.974709237092469 0 0 -1 I I #
point $-1 -60.382221264406205 -22.592705135169471 6.474709237092469 #
End-of-ACIS-data 