500 0 6 0           
7 Unknown 11 ACIS 5.0 NT 24 Thu Mar 25 19:05:28 1999 
-1 9.9999999999999995e-007 1e-010 
body $-1 $6 $-1 $7 #
body $-1 $8 $-1 $9 #
body $-1 $10 $-1 $11 #
body $-1 $12 $-1 $13 #
body $-1 $14 $-1 $15 #
body $-1 $16 $-1 $17 #
lump $-1 $-1 $18 $0 #
transform $-1 1 0 0 0 1 0 0 0 1 75.119479964598526 42.499005694257249 13.425441994745514 1 rotate no_reflect no_shear #
lump $-1 $-1 $19 $1 #
transform $-1 1 0 0 0 1 0 0 0 1 75.119479964598526 42.499005694257249 13.425441994745514 1 rotate no_reflect no_shear #
lump $-1 $-1 $20 $2 #
transform $-1 1 0 0 0 1 0 0 0 1 75.119479964598526 42.499005694257249 13.425441994745514 1 rotate no_reflect no_shear #
lump $-1 $-1 $21 $3 #
transform $-1 1 0 0 0 1 0 0 0 1 75.119479964598526 42.499005694257249 13.425441994745514 1 rotate no_reflect no_shear #
lump $-1 $-1 $22 $4 #
transform $-1 1 0 0 0 1 0 0 0 1 75.119479964598526 42.499005694257249 13.425441994745514 1 rotate no_reflect no_shear #
lump $-1 $-1 $23 $5 #
transform $-1 1 0 0 0 1 0 0 0 1 75.119479964598526 42.499005694257249 13.425441994745514 1 rotate no_reflect no_shear #
shell $-1 $-1 $-1 $24 $-1 $6 #
shell $-1 $-1 $-1 $25 $-1 $8 #
shell $-1 $-1 $-1 $26 $-1 $10 #
shell $-1 $-1 $-1 $27 $-1 $12 #
shell $-1 $-1 $-1 $28 $-1 $14 #
shell $-1 $-1 $-1 $29 $-1 $16 #
face $-1 $30 $31 $18 $-1 $32 forward single #
face $-1 $33 $34 $19 $-1 $35 forward single #
face $-1 $36 $37 $20 $-1 $38 forward single #
face $-1 $39 $40 $21 $-1 $41 reversed single #
face $-1 $42 $43 $22 $-1 $44 forward single #
face $-1 $45 $46 $23 $-1 $47 forward single #
face $-1 $48 $49 $18 $-1 $50 reversed single #
loop $-1 $-1 $51 $24 #
plane-surface $-1 0 0 13.425441994745514 0 0 1 1 0 0 forward_v I I I I #
face $-1 $52 $53 $19 $-1 $54 reversed single #
loop $-1 $-1 $55 $25 #
plane-surface $-1 -68.858623608599871 0 1.7559526760916535 0 0 1 1 0 0 forward_v I I I I #
face $-1 $56 $57 $20 $-1 $58 reversed single #
loop $-1 $-1 $59 $26 #
plane-surface $-1 68.858623608599856 0 1.7559526760916535 0 0 1 1 0 0 forward_v I I I I #
face $-1 $60 $61 $21 $-1 $62 reversed single #
loop $-1 $-1 $63 $27 #
plane-surface $-1 28.032815564815323 102.95305960384647 171.63282036284249 -1 0 0 0 0.7660444514056185 0.64278759981090561 forward_v I I I I #
face $-1 $64 $65 $22 $-1 $66 forward single #
loop $-1 $67 $68 $28 #
cone-surface $-1 3.7700368019571897 40.657369448783946 11.3657396510593 0 -0.7660444514056185 -0.64278759981090561 0.25 0 0 1 I I 0 1 0.25 forward I I I I #
face $-1 $69 $70 $23 $-1 $71 forward single #
loop $-1 $72 $73 $29 #
cone-surface $-1 18.327704059672072 40.657369448783946 11.3657396510593 0 -0.7660444514056185 -0.64278759981090561 0.25 0 0 1 I I 0 1 0.25 forward I I I I #
face $-1 $74 $75 $18 $-1 $76 reversed single #
loop $-1 $-1 $77 $30 #
plane-surface $-1 0 0 -13.425441994745514 0 0 1 1 0 0 forward_v I I I I #
coedge $-1 $78 $79 $80 $81 forward $31 $-1 #
face $-1 $82 $83 $19 $-1 $84 reversed single #
loop $-1 $-1 $85 $33 #
plane-surface $-1 -68.858623608599871 0 -2.6840676101798779 0 0 1 1 0 0 forward_v I I I I #
coedge $-1 $86 $87 $88 $89 forward $34 $-1 #
face $-1 $90 $91 $20 $-1 $92 reversed single #
loop $-1 $-1 $93 $36 #
plane-surface $-1 68.858623608599856 0 -2.6840676101798779 0 0 1 1 0 0 forward_v I I I I #
coedge $-1 $94 $95 $96 $97 reversed $37 $-1 #
face $-1 $98 $99 $21 $-1 $100 reversed single #
loop $-1 $-1 $101 $39 #
plane-surface $-1 11.048870430814631 -12.136662034865992 75.061079911867097 0 0.7660444514056185 0.64278759981090561 1 0 0 forward_v I I I I #
coedge $-1 $102 $103 $104 $105 reversed $40 $-1 #
face $-1 $-1 $106 $22 $-1 $107 forward single #
loop $-1 $108 $109 $42 #
cone-surface $-1 3.7700368019571897 40.178591666655436 10.963997401177485 0 -0.7660444514056185 -0.64278759981090561 0.125 0 0 1 I I -0.70710678118654746 0.70710678118654746 0.125 forward I I I I #
loop $-1 $-1 $110 $28 #
coedge $-1 $68 $68 $111 $112 reversed $43 $-1 #
face $-1 $-1 $113 $23 $-1 $114 forward single #
loop $-1 $115 $116 $45 #
cone-surface $-1 18.327704059672072 40.178591666655436 10.963997401177485 0 -0.7660444514056185 -0.64278759981090561 0.125 0 0 1 I I -0.70710678118654746 0.70710678118654746 0.125 forward I I I I #
loop $-1 $-1 $117 $29 #
coedge $-1 $73 $73 $118 $119 reversed $46 $-1 #
face $-1 $120 $121 $18 $-1 $122 reversed single #
loop $-1 $-1 $123 $48 #
plane-surface $-1 0 -42.499005694257249 0 0 1 0 0 0 1 forward_v I I I I #
coedge $-1 $124 $125 $126 $127 forward $49 $-1 #
coedge $-1 $128 $51 $129 $130 forward $31 $-1 #
coedge $-1 $51 $128 $131 $132 forward $31 $-1 #
coedge $-1 $133 $134 $51 $81 reversed $135 $-1 #
edge $-1 $136 -42.499005694257249 $137 42.499005694257249 $80 $138 forward 7 unknown #
face $-1 $139 $140 $19 $-1 $141 reversed single #
loop $-1 $-1 $142 $52 #
plane-surface $-1 -62.597767252601216 0 -0.46405746704411222 -1 0 0 0 0 1 forward_v I I I I #
coedge $-1 $143 $144 $145 $146 forward $53 $-1 #
coedge $-1 $147 $55 $148 $149 reversed $34 $-1 #
coedge $-1 $55 $147 $150 $151 reversed $34 $-1 #
coedge $-1 $142 $152 $55 $89 reversed $83 $-1 #
edge $-1 $153 -42.499005694257249 $154 42.499005694257249 $88 $155 forward 7 unknown #
face $-1 $156 $157 $20 $-1 $158 reversed single #
loop $-1 $-1 $159 $56 #
plane-surface $-1 62.597767252601201 0 -0.46405746704411222 1 0 0 0 0 -1 forward_v I I I I #
coedge $-1 $160 $161 $162 $163 reversed $57 $-1 #
coedge $-1 $164 $59 $165 $166 reversed $37 $-1 #
coedge $-1 $59 $164 $167 $168 reversed $37 $-1 #
coedge $-1 $169 $170 $59 $97 forward $171 $-1 #
edge $-1 $172 -42.499005694257249 $173 42.499005694257249 $96 $174 forward 7 unknown #
face $-1 $175 $176 $21 $-1 $177 reversed single #
loop $-1 $-1 $178 $60 #
plane-surface $-1 -5.9350747031860607 102.95305960384647 171.63282036284249 1 0 0 0 -0.7660444514056185 -0.64278759981090561 forward_v I I I I #
coedge $-1 $179 $180 $181 $182 reversed $61 $-1 #
coedge $-1 $103 $63 $183 $184 reversed $40 $-1 #
coedge $-1 $63 $102 $179 $185 reversed $40 $-1 #
coedge $-1 $181 $186 $63 $105 forward $176 $-1 #
edge $-1 $187 72.390968186675735 $188 75.867585274237243 $104 $189 forward 7 unknown #
loop $-1 $-1 $111 $64 #
plane-surface $-1 11.048870430814631 -12.136662034865992 75.061079911867097 0 0.7660444514056185 0.64278759981090561 1 0 0 forward_v I I I I #
loop $-1 $-1 $190 $42 #
coedge $-1 $109 $109 $110 $191 reversed $65 $-1 #
coedge $-1 $110 $110 $109 $191 forward $67 $-1 #
coedge $-1 $111 $111 $68 $112 forward $106 $-1 #
edge $-1 $192 3.5031704213313594e-015 $192 6.283185307179604 $111 $193 forward 7 unknown #
loop $-1 $-1 $118 $69 #
plane-surface $-1 11.048870430814631 -12.136662034865992 75.061079911867097 0 0.7660444514056185 0.64278759981090561 1 0 0 forward_v I I I I #
loop $-1 $-1 $194 $45 #
coedge $-1 $116 $116 $117 $195 reversed $70 $-1 #
coedge $-1 $117 $117 $116 $195 forward $72 $-1 #
coedge $-1 $118 $118 $73 $119 forward $113 $-1 #
edge $-1 $196 3.5031704213313594e-015 $196 6.283185307179604 $118 $197 forward 7 unknown #
face $-1 $198 $199 $18 $-1 $200 reversed single #
loop $-1 $-1 $201 $74 #
plane-surface $-1 -75.119479964598526 0 0 1 0 0 0 0 -1 forward_v I I I I #
coedge $-1 $202 $131 $203 $204 forward $75 $-1 #
coedge $-1 $205 $77 $202 $206 forward $49 $-1 #
coedge $-1 $77 $205 $207 $208 forward $49 $-1 #
coedge $-1 $134 $133 $77 $127 reversed $135 $-1 #
edge $-1 $209 -42.499005694257249 $210 42.499005694257249 $126 $211 forward 7 unknown #
coedge $-1 $79 $78 $212 $213 forward $31 $-1 #
coedge $-1 $214 $215 $78 $130 reversed $199 $-1 #
edge $-1 $137 -75.119479964598526 $216 75.119479964598526 $129 $217 forward 7 unknown #
coedge $-1 $123 $218 $79 $132 reversed $75 $-1 #
edge $-1 $219 -75.119479964598526 $136 75.119479964598526 $131 $220 forward 7 unknown #
coedge $-1 $126 $80 $218 $221 forward $135 $-1 #
coedge $-1 $80 $126 $214 $222 reversed $135 $-1 #
loop $-1 $-1 $133 $198 #
vertex $-1 $81 $223 #
vertex $-1 $81 $224 #
straight-curve $-1 75.119479964598526 0 13.425441994745514 0 1 0 I I #
face $-1 $225 $226 $19 $-1 $227 reversed single #
loop $-1 $-1 $228 $82 #
plane-surface $-1 0 -42.499005694257249 0 0 1 0 0 0 1 forward_v I I I I #
coedge $-1 $145 $88 $229 $230 reversed $83 $-1 #
coedge $-1 $231 $85 $228 $232 reversed $53 $-1 #
coedge $-1 $85 $231 $233 $234 reversed $53 $-1 #
coedge $-1 $152 $142 $85 $146 reversed $83 $-1 #
edge $-1 $235 -42.499005694257249 $236 42.499005694257249 $145 $237 forward 7 unknown #
coedge $-1 $87 $86 $238 $239 reversed $34 $-1 #
coedge $-1 $240 $241 $86 $149 forward $242 $-1 #
edge $-1 $243 -40.69016816029859 $154 -28.16845544830128 $148 $244 forward 7 unknown #
coedge $-1 $245 $229 $87 $151 forward $140 $-1 #
edge $-1 $153 28.16845544830128 $246 40.69016816029859 $150 $247 forward 7 unknown #
coedge $-1 $88 $145 $240 $248 reversed $83 $-1 #
vertex $-1 $151 $249 #
vertex $-1 $149 $250 #
straight-curve $-1 -62.597767252601216 0 1.7559526760916535 0 1 0 I I #
face $-1 $251 $252 $20 $-1 $253 reversed single #
loop $-1 $-1 $167 $90 #
plane-surface $-1 0 -42.499005694257249 0 0 1 0 0 0 1 forward_v I I I I #
coedge $-1 $254 $255 $256 $257 reversed $91 $-1 #
coedge $-1 $258 $93 $259 $260 reversed $57 $-1 #
coedge $-1 $93 $258 $261 $262 reversed $57 $-1 #
coedge $-1 $170 $169 $93 $163 forward $171 $-1 #
edge $-1 $263 -42.499005694257249 $264 42.499005694257249 $162 $265 forward 7 unknown #
coedge $-1 $95 $94 $255 $266 forward $37 $-1 #
coedge $-1 $267 $256 $94 $166 forward $252 $-1 #
edge $-1 $268 28.168455448301273 $172 40.690168160298583 $165 $269 forward 7 unknown #
coedge $-1 $270 $271 $95 $168 forward $157 $-1 #
edge $-1 $173 -40.690168160298583 $272 -28.168455448301273 $167 $273 forward 7 unknown #
coedge $-1 $162 $96 $271 $274 forward $171 $-1 #
coedge $-1 $96 $162 $267 $275 reversed $171 $-1 #
loop $-1 $-1 $96 $251 #
vertex $-1 $275 $276 #
vertex $-1 $274 $277 #
straight-curve $-1 75.119479964598526 0 1.7559526760916535 0 -1 0 I I #
face $-1 $-1 $278 $21 $-1 $279 forward single #
loop $-1 $-1 $104 $98 #
plane-surface $-1 0 42.499005694257249 0 0 -1 0 0 0 -1 forward_v I I I I #
coedge $-1 $280 $281 $282 $283 reversed $99 $-1 #
coedge $-1 $284 $101 $103 $185 forward $61 $-1 #
coedge $-1 $101 $284 $280 $285 forward $61 $-1 #
coedge $-1 $282 $104 $101 $182 forward $176 $-1 #
edge $-1 $188 -22.508380349408007 $286 11.459509918593376 $181 $287 forward 7 unknown #
coedge $-1 $288 $289 $102 $184 forward $278 $-1 #
edge $-1 $290 -11.894752147206944 $187 -8.9775241076659853 $183 $291 forward 7 unknown #
edge $-1 $188 -84.998011388514513 $290 -80.459610149288451 $103 $292 forward 7 unknown #
coedge $-1 $104 $282 $288 $293 reversed $176 $-1 #
vertex $-1 $293 $294 #
vertex $-1 $105 $295 #
straight-curve $-1 28.032815564815323 42.499005694257249 85.816410181421247 0 0 -1 I I #
coedge $-1 $190 $190 $-1 $296 reversed $108 $-1 #
edge $-1 $297 0 $297 6.2831853071796004 $109 $298 forward 7 unknown #
vertex $-1 $112 $299 #
ellipse-curve $-1 3.7700368019571897 41.040391674486763 11.687133450964762 0 0.7660444514056185 0.64278759981090561 0.25 0 0 1 I I #
coedge $-1 $194 $194 $-1 $300 reversed $115 $-1 #
edge $-1 $301 0 $301 6.2831853071796004 $116 $302 forward 7 unknown #
vertex $-1 $119 $303 #
ellipse-curve $-1 18.327704059672072 41.040391674486763 11.687133450964762 0 0.7660444514056185 0.64278759981090561 0.25 0 0 1 I I #
face $-1 $-1 $135 $18 $-1 $304 reversed single #
loop $-1 $-1 $214 $120 #
plane-surface $-1 0 42.499005694257249 0 0 -1 0 0 0 -1 forward_v I I I I #
coedge $-1 $305 $212 $215 $306 forward $121 $-1 #
coedge $-1 $218 $123 $124 $206 reversed $75 $-1 #
coedge $-1 $212 $305 $123 $204 reversed $121 $-1 #
edge $-1 $219 -13.425441994745514 $307 13.425441994745514 $203 $308 forward 7 unknown #
coedge $-1 $125 $124 $305 $309 forward $49 $-1 #
edge $-1 $210 -75.119479964598526 $307 75.119479964598526 $202 $310 forward 7 unknown #
coedge $-1 $215 $214 $125 $208 reversed $199 $-1 #
edge $-1 $311 -75.119479964598526 $209 75.119479964598526 $207 $312 forward 7 unknown #
vertex $-1 $127 $313 #
vertex $-1 $221 $314 #
straight-curve $-1 75.119479964598526 0 -13.425441994745514 0 -1 0 I I #
coedge $-1 $201 $203 $128 $213 reversed $121 $-1 #
edge $-1 $216 -42.499005694257249 $219 42.499005694257249 $212 $315 forward 7 unknown #
coedge $-1 $207 $129 $134 $222 forward $199 $-1 #
coedge $-1 $129 $207 $201 $306 reversed $199 $-1 #
vertex $-1 $130 $316 #
straight-curve $-1 0 42.499005694257249 13.425441994745514 -1 0 0 I I #
coedge $-1 $131 $202 $133 $221 reversed $75 $-1 #
vertex $-1 $213 $317 #
straight-curve $-1 0 -42.499005694257249 13.425441994745514 1 0 0 I I #
edge $-1 $136 -13.425441994745514 $210 13.425441994745514 $133 $318 forward 7 unknown #
edge $-1 $137 -13.425441994745514 $209 13.425441994745514 $134 $319 forward 7 unknown #
point $-1 75.119479964598526 -42.499005694257249 13.425441994745514 #
point $-1 75.119479964598526 42.499005694257249 13.425441994745514 #
face $-1 $-1 $242 $19 $-1 $320 reversed single #
loop $-1 $-1 $321 $139 #
plane-surface $-1 -75.119479964598526 0 0 1 0 0 0 0 -1 forward_v I I I I #
coedge $-1 $229 $245 $143 $232 forward $140 $-1 #
coedge $-1 $150 $228 $142 $230 forward $140 $-1 #
edge $-1 $236 -2.4520388766578218 $153 1.9879814096137096 $229 $322 forward 7 unknown #
coedge $-1 $144 $143 $321 $323 reversed $53 $-1 #
edge $-1 $324 -40.69016816029859 $236 -28.16845544830128 $228 $325 forward 7 unknown #
coedge $-1 $241 $240 $144 $234 forward $242 $-1 #
edge $-1 $235 28.16845544830128 $326 40.69016816029859 $233 $327 forward 7 unknown #
vertex $-1 $234 $328 #
vertex $-1 $232 $329 #
straight-curve $-1 -62.597767252601216 0 -2.6840676101798779 0 -1 0 I I #
coedge $-1 $330 $331 $147 $239 forward $226 $-1 #
edge $-1 $246 -42.499005694257249 $243 42.499005694257249 $238 $332 forward 7 unknown #
coedge $-1 $233 $148 $152 $248 forward $242 $-1 #
coedge $-1 $148 $233 $330 $333 reversed $242 $-1 #
loop $-1 $-1 $233 $225 #
vertex $-1 $333 $334 #
straight-curve $-1 -34.429311804299935 42.499005694257249 1.7559526760916535 1 0 0 I I #
coedge $-1 $228 $150 $331 $335 forward $140 $-1 #
vertex $-1 $335 $336 #
straight-curve $-1 -34.429311804299935 -42.499005694257249 1.7559526760916535 -1 0 0 I I #
edge $-1 $154 -1.9879814096137096 $235 2.4520388766578218 $240 $337 forward 7 unknown #
point $-1 -62.597767252601216 -42.499005694257249 1.7559526760916535 #
point $-1 -62.597767252601216 42.499005694257249 1.7559526760916535 #
face $-1 $-1 $171 $20 $-1 $338 reversed single #
loop $-1 $-1 $165 $156 #
plane-surface $-1 0 42.499005694257249 0 0 -1 0 0 0 -1 forward_v I I I I #
coedge $-1 $339 $159 $258 $340 reversed $91 $-1 #
coedge $-1 $159 $339 $164 $266 reversed $91 $-1 #
coedge $-1 $165 $261 $159 $257 forward $252 $-1 #
edge $-1 $341 -2.4520388766578218 $268 1.9879814096137096 $256 $342 forward 7 unknown #
coedge $-1 $161 $160 $254 $340 forward $57 $-1 #
coedge $-1 $271 $270 $160 $260 forward $157 $-1 #
edge $-1 $343 28.168455448301273 $263 40.690168160298583 $259 $344 forward 7 unknown #
coedge $-1 $256 $267 $161 $262 forward $252 $-1 #
edge $-1 $264 -40.690168160298583 $341 -28.168455448301273 $261 $345 forward 7 unknown #
vertex $-1 $163 $346 #
vertex $-1 $163 $347 #
straight-curve $-1 75.119479964598526 0 -2.6840676101798779 0 1 0 I I #
edge $-1 $268 -42.499005694257249 $272 42.499005694257249 $255 $348 forward 7 unknown #
coedge $-1 $261 $165 $170 $275 forward $252 $-1 #
vertex $-1 $166 $349 #
straight-curve $-1 34.429311804299928 42.499005694257249 1.7559526760916535 1 0 0 I I #
coedge $-1 $259 $167 $339 $350 forward $157 $-1 #
coedge $-1 $167 $259 $169 $274 reversed $157 $-1 #
vertex $-1 $168 $351 #
straight-curve $-1 34.429311804299928 -42.499005694257249 1.7559526760916535 -1 0 0 I I #
edge $-1 $173 -1.7559526760916535 $263 2.6840676101798779 $169 $352 forward 7 unknown #
edge $-1 $172 -1.7559526760916535 $264 2.6840676101798779 $170 $353 forward 7 unknown #
point $-1 75.119479964598511 42.499005694257249 1.7559526760916535 #
point $-1 75.119479964598511 -42.499005694257249 1.7559526760916535 #
loop $-1 $-1 $183 $175 #
plane-surface $-1 0 0 13.425441994745514 0 0 1 1 0 0 forward_v I I I I #
coedge $-1 $281 $178 $180 $285 reversed $99 $-1 #
coedge $-1 $178 $280 $354 $355 reversed $99 $-1 #
coedge $-1 $186 $181 $178 $283 forward $176 $-1 #
edge $-1 $286 -75.867585274237243 $356 -72.390968186675735 $282 $357 forward 7 unknown #
coedge $-1 $180 $179 $289 $358 reversed $61 $-1 #
edge $-1 $359 80.459610149288451 $286 84.998011388514513 $280 $360 forward 7 unknown #
vertex $-1 $182 $361 #
straight-curve $-1 5.5244352154073155 42.499005694257249 9.9488249071840116 -1 0 0 I I #
coedge $-1 $354 $183 $186 $293 forward $278 $-1 #
coedge $-1 $183 $354 $284 $358 forward $278 $-1 #
vertex $-1 $184 $362 #
straight-curve $-1 28.032815564815323 51.476529801923235 13.425441994745512 0 1 0 I I #
straight-curve $-1 28.032815564815323 -12.136662034865992 75.061079911867097 0 -0.64278759981090561 0.7660444514056185 I I #
edge $-1 $187 -28.032815564815323 $356 5.9350747031860607 $186 $363 forward 7 unknown #
point $-1 28.032815564815323 42.499005694257249 13.425441994745514 #
point $-1 28.032815564815323 42.499005694257256 9.9488249071840045 #
edge $-1 $364 1 $364 0 $190 $-1 forward 7 unknown #
vertex $-1 $191 $365 #
ellipse-curve $-1 3.7700368019571897 40.274347223081136 11.044345851153848 0 0.7660444514056185 0.64278759981090561 0.25 0 0 1 I I #
point $-1 4.0200368019571897 41.040391674486756 11.687133450964755 #
edge $-1 $366 1 $366 0 $194 $-1 forward 7 unknown #
vertex $-1 $195 $367 #
ellipse-curve $-1 18.327704059672072 40.274347223081136 11.044345851153848 0 0.7660444514056185 0.64278759981090561 0.25 0 0 1 I I #
point $-1 18.577704059672072 41.040391674486756 11.687133450964755 #
plane-surface $-1 75.119479964598526 0 0 -1 0 0 0 0 1 forward_v I I I I #
coedge $-1 $203 $201 $205 $309 reversed $121 $-1 #
edge $-1 $216 -13.425441994745514 $311 13.425441994745514 $215 $368 forward 7 unknown #
vertex $-1 $309 $369 #
straight-curve $-1 -75.119479964598526 -42.499005694257249 0 0 0 -1 I I #
edge $-1 $307 -42.499005694257249 $311 42.499005694257249 $305 $370 forward 7 unknown #
straight-curve $-1 0 -42.499005694257249 -13.425441994745514 -1 0 0 I I #
vertex $-1 $208 $371 #
straight-curve $-1 0 42.499005694257249 -13.425441994745514 1 0 0 I I #
point $-1 75.119479964598526 42.499005694257249 -13.425441994745514 #
point $-1 75.119479964598526 -42.499005694257249 -13.425441994745514 #
straight-curve $-1 -75.119479964598526 0 13.425441994745514 0 -1 0 I I #
point $-1 -75.119479964598526 42.499005694257249 13.425441994745514 #
point $-1 -75.119479964598526 -42.499005694257249 13.425441994745514 #
straight-curve $-1 75.119479964598526 -42.499005694257249 0 0 0 -1 I I #
straight-curve $-1 75.119479964598526 42.499005694257249 0 0 0 -1 I I #
plane-surface $-1 0 42.499005694257249 0 0 -1 0 0 0 -1 forward_v I I I I #
coedge $-1 $331 $330 $231 $323 forward $226 $-1 #
straight-curve $-1 -62.597767252601216 -42.499005694257249 -0.23202873352205611 0 0 1 I I #
edge $-1 $326 -42.499005694257249 $324 42.499005694257249 $321 $372 forward 7 unknown #
vertex $-1 $232 $373 #
straight-curve $-1 -34.429311804299935 -42.499005694257249 -2.6840676101798779 1 0 0 I I #
vertex $-1 $234 $374 #
straight-curve $-1 -34.429311804299935 42.499005694257249 -2.6840676101798779 -1 0 0 I I #
point $-1 -62.597767252601216 42.499005694257249 -2.6840676101798779 #
point $-1 -62.597767252601216 -42.499005694257249 -2.6840676101798779 #
coedge $-1 $321 $238 $241 $333 forward $226 $-1 #
coedge $-1 $238 $321 $245 $335 reversed $226 $-1 #
straight-curve $-1 -75.119479964598526 0 1.7559526760916535 0 1 0 I I #
edge $-1 $243 -1.7559526760916535 $326 2.6840676101798779 $241 $375 forward 7 unknown #
point $-1 -75.119479964598526 42.499005694257249 1.7559526760916535 #
edge $-1 $246 -1.7559526760916535 $324 2.6840676101798779 $331 $376 forward 7 unknown #
point $-1 -75.119479964598526 -42.499005694257249 1.7559526760916535 #
straight-curve $-1 -62.597767252601216 42.499005694257249 -0.23202873352205611 0 0 -1 I I #
plane-surface $-1 75.119479964598526 0 0 -1 0 0 0 0 1 forward_v I I I I #
coedge $-1 $255 $254 $270 $350 reversed $91 $-1 #
edge $-1 $343 -42.499005694257249 $341 42.499005694257249 $254 $377 forward 7 unknown #
vertex $-1 $262 $378 #
straight-curve $-1 62.597767252601201 42.499005694257249 -0.23202873352205611 0 0 1 I I #
vertex $-1 $260 $379 #
straight-curve $-1 34.429311804299928 -42.499005694257249 -2.6840676101798779 1 0 0 I I #
straight-curve $-1 34.429311804299928 42.499005694257249 -2.6840676101798779 -1 0 0 I I #
point $-1 75.119479964598511 -42.499005694257249 -2.6840676101798779 #
point $-1 75.119479964598511 42.499005694257249 -2.6840676101798779 #
straight-curve $-1 62.597767252601201 0 1.7559526760916535 0 -1 0 I I #
point $-1 62.597767252601201 42.499005694257249 1.7559526760916535 #
edge $-1 $272 -1.9879814096137096 $343 2.4520388766578218 $270 $380 forward 7 unknown #
point $-1 62.597767252601201 -42.499005694257249 1.7559526760916535 #
straight-curve $-1 75.119479964598526 -42.499005694257249 0 0 0 -1 I I #
straight-curve $-1 75.119479964598526 42.499005694257249 0 0 0 -1 I I #
coedge $-1 $289 $288 $281 $355 forward $278 $-1 #
edge $-1 $356 8.9775241076659853 $359 11.894752147206944 $354 $381 forward 7 unknown #
vertex $-1 $355 $382 #
straight-curve $-1 -5.9350747031860607 42.499005694257249 85.816410181421247 0 0 1 I I #
edge $-1 $359 -11.459509918593376 $290 22.508380349408007 $289 $383 forward 7 unknown #
vertex $-1 $358 $384 #
straight-curve $-1 -5.9350747031860607 -12.136662034865992 75.061079911867097 0 0.64278759981090561 -0.7660444514056185 I I #
point $-1 -5.9350747031860607 42.499005694257256 9.9488249071840045 #
point $-1 28.032815564815323 39.581777654716291 13.425441994745512 #
straight-curve $-1 0 42.499005694257249 13.425441994745514 -1 0 0 I I #
vertex $-1 $296 $385 #
point $-1 4.0200368019571897 40.274347223081136 11.044345851153848 #
vertex $-1 $300 $386 #
point $-1 18.577704059672072 40.274347223081136 11.044345851153848 #
straight-curve $-1 -75.119479964598526 42.499005694257249 0 0 0 -1 I I #
point $-1 -75.119479964598526 -42.499005694257249 -13.425441994745514 #
straight-curve $-1 -75.119479964598526 0 -13.425441994745514 0 1 0 I I #
point $-1 -75.119479964598526 42.499005694257249 -13.425441994745514 #
straight-curve $-1 -75.119479964598526 0 -2.6840676101798779 0 -1 0 I I #
point $-1 -75.119479964598526 -42.499005694257249 -2.6840676101798779 #
point $-1 -75.119479964598526 42.499005694257249 -2.6840676101798779 #
straight-curve $-1 -75.119479964598526 42.499005694257249 0 0 0 -1 I I #
straight-curve $-1 -75.119479964598526 -42.499005694257249 0 0 0 -1 I I #
straight-curve $-1 62.597767252601201 0 -2.6840676101798779 0 1 0 I I #
point $-1 62.597767252601201 42.499005694257249 -2.6840676101798779 #
point $-1 62.597767252601201 -42.499005694257249 -2.6840676101798779 #
straight-curve $-1 62.597767252601201 -42.499005694257249 -0.23202873352205611 0 0 -1 I I #
straight-curve $-1 -5.9350747031860607 51.476529801923235 13.425441994745512 0 -1 0 I I #
point $-1 -5.9350747031860607 42.499005694257249 13.425441994745514 #
straight-curve $-1 5.5244352154073155 39.581777654716298 13.425441994745512 1 0 0 I I #
point $-1 -5.9350747031860607 39.581777654716291 13.425441994745512 #
point $-1 3.7700368019571897 40.082836110229735 10.883648951201122 #
point $-1 18.327704059672072 40.082836110229735 10.883648951201122 #
End-of-ACIS-data 