500 0 9 0           
7 Unknown 11 ACIS 5.0 NT 24 Fri Mar 26 16:31:04 1999 
-1 9.9999999999999995e-007 1e-010 
body $-1 $9 $-1 $10 #
body $-1 $11 $-1 $12 #
body $-1 $13 $-1 $14 #
body $-1 $15 $-1 $16 #
body $-1 $17 $-1 $18 #
body $-1 $19 $-1 $20 #
body $-1 $21 $-1 $22 #
body $-1 $23 $-1 $24 #
body $-1 $25 $-1 $26 #
lump $-1 $-1 $27 $0 #
transform $-1 1 0 0 0 1 0 0 0 1 45.782647175511947 28.1529677032851 8.9089918946541804 1 rotate no_reflect no_shear #
lump $-1 $-1 $28 $1 #
transform $-1 1 0 0 0 1 0 0 0 1 45.782647175511947 28.1529677032851 8.9089918946541804 1 rotate no_reflect no_shear #
lump $-1 $-1 $29 $2 #
transform $-1 1 0 0 0 1 0 0 0 1 45.782647175511947 28.1529677032851 8.9089918946541804 1 rotate no_reflect no_shear #
lump $-1 $-1 $30 $3 #
transform $-1 1 0 0 0 1 0 0 0 1 45.782647175511947 28.1529677032851 8.9089918946541804 1 rotate no_reflect no_shear #
lump $-1 $-1 $31 $4 #
transform $-1 1 0 0 0 1 0 0 0 1 45.782647175511947 28.1529677032851 8.9089918946541804 1 rotate no_reflect no_shear #
lump $-1 $-1 $32 $5 #
transform $-1 1 0 0 0 1 0 0 0 1 45.782647175511947 28.1529677032851 8.9089918946541804 1 rotate no_reflect no_shear #
lump $-1 $-1 $33 $6 #
transform $-1 1 0 0 0 1 0 0 0 1 45.782647175511947 28.1529677032851 8.9089918946541804 1 rotate no_reflect no_shear #
lump $-1 $-1 $34 $7 #
transform $-1 1 0 0 0 1 0 0 0 1 45.782647175511947 28.1529677032851 8.9089918946541804 1 rotate no_reflect no_shear #
lump $-1 $-1 $35 $8 #
transform $-1 1 0 0 0 1 0 0 0 1 45.782647175511947 28.1529677032851 8.9089918946541804 1 rotate no_reflect no_shear #
shell $-1 $-1 $-1 $36 $-1 $9 #
shell $-1 $-1 $-1 $37 $-1 $11 #
shell $-1 $-1 $-1 $38 $-1 $13 #
shell $-1 $-1 $-1 $39 $-1 $15 #
shell $-1 $-1 $-1 $40 $-1 $17 #
shell $-1 $-1 $-1 $41 $-1 $19 #
shell $-1 $-1 $-1 $42 $-1 $21 #
shell $-1 $-1 $-1 $43 $-1 $23 #
shell $-1 $-1 $-1 $44 $-1 $25 #
face $-1 $45 $46 $27 $-1 $47 forward single #
face $-1 $48 $49 $28 $-1 $50 forward single #
face $-1 $51 $52 $29 $-1 $53 forward single #
face $-1 $54 $55 $30 $-1 $56 reversed single #
face $-1 $57 $58 $31 $-1 $59 forward single #
face $-1 $60 $61 $32 $-1 $62 forward single #
face $-1 $63 $64 $33 $-1 $65 reversed single #
face $-1 $66 $67 $34 $-1 $68 forward single #
face $-1 $69 $70 $35 $-1 $71 forward single #
face $-1 $72 $73 $27 $-1 $74 reversed single #
loop $-1 $-1 $75 $36 #
plane-surface $-1 0 0 8.9089918946541804 0 0 1 1 0 0 forward_v I I I I #
face $-1 $76 $77 $28 $-1 $78 reversed single #
loop $-1 $-1 $79 $37 #
plane-surface $-1 -45.782647175511947 0 0 1 0 0 0 0 -1 forward_v I I I I #
face $-1 $80 $81 $29 $-1 $82 reversed single #
loop $-1 $-1 $83 $38 #
plane-surface $-1 45.782647175511947 0 0 -1 0 0 0 0 1 forward_v I I I I #
face $-1 $84 $85 $30 $-1 $86 reversed single #
loop $-1 $-1 $87 $39 #
plane-surface $-1 -24.525236312132463 54.906140157784066 106.21310958394419 1 0 0 0 -0.71933980857756763 -0.69465836192734942 forward_v I I I I #
face $-1 $88 $89 $31 $-1 $90 forward single #
loop $-1 $91 $92 $40 #
cone-surface $-1 -22.039819737898892 24.50726153382557 5.1588724681250495 0 -0.71933980857756763 -0.69465836192734942 0.5 0 0 1 I I 0 1 0.5 forward I I I I #
face $-1 $93 $94 $32 $-1 $95 forward single #
loop $-1 $96 $97 $41 #
cone-surface $-1 -18.311694876548536 24.50726153382557 5.1588724681250495 0 -0.71933980857756763 -0.69465836192734942 0.5 0 0 1 I I 0 1 0.5 forward I I I I #
face $-1 $98 $99 $33 $-1 $100 reversed single #
loop $-1 $-1 $101 $42 #
plane-surface $-1 10.784175414905912 54.906140157784066 106.21310958394419 1 0 0 0 -0.71933980857756763 -0.69465836192734942 forward_v I I I I #
face $-1 $102 $103 $34 $-1 $104 forward single #
loop $-1 $105 $106 $43 #
cone-surface $-1 13.269591989139478 24.50726153382557 5.1588724681250495 0 -0.71933980857756763 -0.69465836192734942 0.5 0 0 1 I I 0 1 0.5 forward I I I I #
face $-1 $107 $108 $35 $-1 $109 forward single #
loop $-1 $110 $111 $44 #
cone-surface $-1 16.997716850489837 24.50726153382557 5.1588724681250495 0 -0.71933980857756763 -0.69465836192734942 0.5 0 0 1 I I 0 1 0.5 forward I I I I #
face $-1 $112 $113 $27 $-1 $114 reversed single #
loop $-1 $-1 $115 $45 #
plane-surface $-1 0 0 -8.9089918946541804 0 0 1 1 0 0 forward_v I I I I #
coedge $-1 $116 $117 $118 $119 forward $46 $-1 #
face $-1 $120 $121 $28 $-1 $122 reversed single #
loop $-1 $-1 $123 $48 #
plane-surface $-1 0 0 -8.9089918946541804 0 0 1 1 0 0 forward_v I I I I #
coedge $-1 $124 $125 $126 $127 forward $49 $-1 #
face $-1 $128 $129 $29 $-1 $130 reversed single #
loop $-1 $-1 $131 $51 #
plane-surface $-1 0 0 -8.9089918946541804 0 0 1 1 0 0 forward_v I I I I #
coedge $-1 $132 $133 $134 $135 forward $52 $-1 #
face $-1 $136 $137 $30 $-1 $138 reversed single #
loop $-1 $-1 $139 $54 #
plane-surface $-1 -20.175757307223712 -10.960421153030083 42.606512200666359 0 0.71933980857756763 0.69465836192734942 1 0 0 forward_v I I I I #
coedge $-1 $140 $141 $142 $143 reversed $55 $-1 #
face $-1 $-1 $144 $31 $-1 $145 forward single #
loop $-1 $146 $147 $57 #
cone-surface $-1 -22.039819737898892 23.967756677392394 4.6378786966795378 0 -0.71933980857756763 -0.69465836192734942 0.25 0 0 1 I I -0.70710678118654746 0.70710678118654746 0.25 forward I I I I #
loop $-1 $-1 $148 $40 #
coedge $-1 $92 $92 $149 $150 reversed $58 $-1 #
face $-1 $-1 $151 $32 $-1 $152 forward single #
loop $-1 $153 $154 $60 #
cone-surface $-1 -18.311694876548536 23.967756677392394 4.6378786966795378 0 -0.71933980857756763 -0.69465836192734942 0.25 0 0 1 I I -0.70710678118654746 0.70710678118654746 0.25 forward I I I I #
loop $-1 $-1 $155 $41 #
coedge $-1 $97 $97 $156 $157 reversed $61 $-1 #
face $-1 $158 $159 $33 $-1 $160 reversed single #
loop $-1 $-1 $161 $63 #
plane-surface $-1 15.133654419814661 -10.960421153030083 42.606512200666359 0 0.71933980857756763 0.69465836192734942 1 0 0 forward_v I I I I #
coedge $-1 $162 $163 $164 $165 reversed $64 $-1 #
face $-1 $-1 $166 $34 $-1 $167 forward single #
loop $-1 $168 $169 $66 #
cone-surface $-1 13.269591989139478 23.967756677392394 4.6378786966795378 0 -0.71933980857756763 -0.69465836192734942 0.25 0 0 1 I I -0.70710678118654746 0.70710678118654746 0.25 forward I I I I #
loop $-1 $-1 $170 $43 #
coedge $-1 $106 $106 $171 $172 reversed $67 $-1 #
face $-1 $-1 $173 $35 $-1 $174 forward single #
loop $-1 $175 $176 $69 #
cone-surface $-1 16.997716850489837 23.967756677392394 4.6378786966795378 0 -0.71933980857756763 -0.69465836192734942 0.25 0 0 1 I I -0.70710678118654746 0.70710678118654746 0.25 forward I I I I #
loop $-1 $-1 $177 $44 #
coedge $-1 $111 $111 $178 $179 reversed $70 $-1 #
face $-1 $180 $181 $27 $-1 $182 reversed single #
loop $-1 $-1 $183 $72 #
plane-surface $-1 0 -28.1529677032851 0 0 1 0 0 0 1 forward_v I I I I #
coedge $-1 $184 $185 $186 $187 forward $73 $-1 #
coedge $-1 $188 $75 $189 $190 forward $46 $-1 #
coedge $-1 $75 $188 $191 $192 forward $46 $-1 #
coedge $-1 $193 $194 $75 $119 reversed $195 $-1 #
edge $-1 $196 -28.1529677032851 $197 28.1529677032851 $118 $198 forward 7 unknown #
face $-1 $199 $200 $28 $-1 $201 reversed single #
loop $-1 $-1 $202 $76 #
plane-surface $-1 -51.019264899748734 -23.261273906204238 0 0 1 0 0 0 1 forward_v I I I I #
coedge $-1 $203 $204 $125 $205 forward $77 $-1 #
coedge $-1 $206 $79 $207 $208 reversed $49 $-1 #
coedge $-1 $79 $206 $123 $205 reversed $49 $-1 #
coedge $-1 $209 $210 $79 $127 reversed $211 $-1 #
edge $-1 $212 -8.9089918946541804 $213 8.9089918946541804 $126 $214 forward 7 unknown #
face $-1 $215 $216 $29 $-1 $217 reversed single #
loop $-1 $-1 $134 $80 #
plane-surface $-1 51.019264899748727 -23.261273906204238 0 0 1 0 0 0 1 forward_v I I I I #
coedge $-1 $218 $219 $133 $220 forward $81 $-1 #
coedge $-1 $221 $83 $222 $223 reversed $52 $-1 #
coedge $-1 $83 $221 $131 $220 reversed $52 $-1 #
coedge $-1 $224 $225 $83 $135 reversed $129 $-1 #
edge $-1 $226 -8.9089918946541804 $227 8.9089918946541804 $134 $228 forward 7 unknown #
face $-1 $229 $230 $30 $-1 $231 reversed single #
loop $-1 $-1 $232 $84 #
plane-surface $-1 -15.826278302314963 54.906140157784066 106.21310958394419 -1 0 0 0 0.71933980857756763 0.69465836192734942 forward_v I I I I #
coedge $-1 $233 $234 $235 $236 reversed $85 $-1 #
coedge $-1 $141 $87 $237 $238 reversed $55 $-1 #
coedge $-1 $87 $140 $233 $239 reversed $55 $-1 #
coedge $-1 $235 $240 $87 $143 forward $241 $-1 #
edge $-1 $242 -0.69989762439306702 $243 5.8721749059483912 $142 $244 forward 7 unknown #
loop $-1 $-1 $149 $88 #
plane-surface $-1 -20.175757307223712 -10.960421153030083 42.606512200666359 0 0.71933980857756763 0.69465836192734942 1 0 0 forward_v I I I I #
loop $-1 $-1 $245 $57 #
coedge $-1 $147 $147 $148 $246 reversed $89 $-1 #
coedge $-1 $148 $148 $147 $246 forward $91 $-1 #
coedge $-1 $149 $149 $92 $150 forward $144 $-1 #
edge $-1 $247 -3.1319236614443672e-015 $247 6.2831853071795969 $149 $248 forward 7 unknown #
loop $-1 $-1 $156 $93 #
plane-surface $-1 -20.175757307223712 -10.960421153030083 42.606512200666359 0 0.71933980857756763 0.69465836192734942 1 0 0 forward_v I I I I #
loop $-1 $-1 $249 $60 #
coedge $-1 $154 $154 $155 $250 reversed $94 $-1 #
coedge $-1 $155 $155 $154 $250 forward $96 $-1 #
coedge $-1 $156 $156 $97 $157 forward $151 $-1 #
edge $-1 $251 -3.1319236614443672e-015 $251 6.2831853071795969 $156 $252 forward 7 unknown #
face $-1 $253 $254 $33 $-1 $255 forward single #
loop $-1 $-1 $256 $98 #
plane-surface $-1 19.483133424723412 54.906140157784066 106.21310958394419 -1 0 0 0 0.71933980857756763 0.69465836192734942 forward_v I I I I #
coedge $-1 $257 $258 $259 $260 reversed $99 $-1 #
coedge $-1 $163 $101 $261 $262 reversed $64 $-1 #
coedge $-1 $101 $162 $257 $263 reversed $64 $-1 #
coedge $-1 $259 $264 $101 $165 forward $254 $-1 #
edge $-1 $265 -0.69989762439306702 $266 5.8721749059483912 $164 $267 forward 7 unknown #
loop $-1 $-1 $171 $102 #
plane-surface $-1 15.133654419814661 -10.960421153030083 42.606512200666359 0 0.71933980857756763 0.69465836192734942 1 0 0 forward_v I I I I #
loop $-1 $-1 $268 $66 #
coedge $-1 $169 $169 $170 $269 reversed $103 $-1 #
coedge $-1 $170 $170 $169 $269 forward $105 $-1 #
coedge $-1 $171 $171 $106 $172 forward $166 $-1 #
edge $-1 $270 -3.1319236614443672e-015 $270 6.2831853071795969 $171 $271 forward 7 unknown #
loop $-1 $-1 $178 $107 #
plane-surface $-1 15.133654419814661 -10.960421153030083 42.606512200666359 0 0.71933980857756763 0.69465836192734942 1 0 0 forward_v I I I I #
loop $-1 $-1 $272 $69 #
coedge $-1 $176 $176 $177 $273 reversed $108 $-1 #
coedge $-1 $177 $177 $176 $273 forward $110 $-1 #
coedge $-1 $178 $178 $111 $179 forward $173 $-1 #
edge $-1 $274 -3.1319236614443672e-015 $274 6.2831853071795969 $178 $275 forward 7 unknown #
face $-1 $276 $277 $27 $-1 $278 reversed single #
loop $-1 $-1 $279 $112 #
plane-surface $-1 -45.782647175511947 0 0 1 0 0 0 0 -1 forward_v I I I I #
coedge $-1 $280 $191 $281 $282 forward $113 $-1 #
coedge $-1 $283 $115 $280 $284 forward $73 $-1 #
coedge $-1 $115 $283 $285 $286 forward $73 $-1 #
coedge $-1 $194 $193 $115 $187 reversed $195 $-1 #
edge $-1 $287 -28.1529677032851 $288 28.1529677032851 $186 $289 forward 7 unknown #
coedge $-1 $117 $116 $290 $291 forward $46 $-1 #
coedge $-1 $292 $293 $116 $190 reversed $277 $-1 #
edge $-1 $197 -45.782647175511947 $294 45.782647175511947 $189 $295 forward 7 unknown #
coedge $-1 $183 $296 $117 $192 reversed $113 $-1 #
edge $-1 $297 -45.782647175511947 $196 45.782647175511947 $191 $298 forward 7 unknown #
coedge $-1 $186 $118 $296 $299 forward $195 $-1 #
coedge $-1 $118 $186 $292 $300 reversed $195 $-1 #
loop $-1 $-1 $193 $276 #
vertex $-1 $119 $301 #
vertex $-1 $119 $302 #
straight-curve $-1 45.782647175511947 0 8.9089918946541804 0 1 0 I I #
face $-1 $303 $211 $28 $-1 $304 reversed single #
loop $-1 $-1 $305 $120 #
plane-surface $-1 -56.255882623985521 -21.761273906204238 0 1 0 0 0 0 -1 forward_v I I I I #
coedge $-1 $306 $307 $308 $309 forward $121 $-1 #
coedge $-1 $310 $123 $306 $311 forward $77 $-1 #
coedge $-1 $123 $310 $209 $312 forward $77 $-1 #
edge $-1 $212 20.261273906204238 $313 23.261273906204238 $123 $314 forward 7 unknown #
coedge $-1 $125 $124 $315 $316 forward $49 $-1 #
coedge $-1 $317 $318 $124 $208 forward $319 $-1 #
edge $-1 $320 -23.261273906204238 $213 -20.261273906204238 $207 $321 forward 7 unknown #
coedge $-1 $322 $126 $204 $312 reversed $211 $-1 #
coedge $-1 $126 $322 $317 $323 reversed $211 $-1 #
loop $-1 $-1 $126 $199 #
vertex $-1 $205 $324 #
vertex $-1 $323 $325 #
straight-curve $-1 -45.782647175511947 -20.261273906204238 0 0 0 1 I I #
face $-1 $326 $327 $29 $-1 $328 reversed single #
loop $-1 $-1 $329 $128 #
plane-surface $-1 51.019264899748727 -20.261273906204238 0 0 -1 0 0 0 -1 forward_v I I I I #
coedge $-1 $330 $131 $331 $332 forward $81 $-1 #
coedge $-1 $131 $330 $224 $333 forward $81 $-1 #
edge $-1 $226 -23.261273906204238 $334 -20.261273906204238 $131 $335 forward 7 unknown #
coedge $-1 $133 $132 $336 $337 forward $52 $-1 #
coedge $-1 $338 $339 $132 $223 forward $340 $-1 #
edge $-1 $341 20.261273906204238 $227 23.261273906204238 $222 $342 forward 7 unknown #
coedge $-1 $343 $134 $219 $333 reversed $129 $-1 #
coedge $-1 $134 $343 $338 $344 reversed $129 $-1 #
vertex $-1 $220 $345 #
vertex $-1 $344 $346 #
straight-curve $-1 45.782647175511947 -23.261273906204238 0 0 0 1 I I #
face $-1 $-1 $241 $30 $-1 $347 forward single #
loop $-1 $-1 $348 $136 #
plane-surface $-1 0 28.1529677032851 0 0 -1 0 0 0 -1 forward_v I I I I #
coedge $-1 $349 $350 $351 $352 reversed $137 $-1 #
coedge $-1 $353 $139 $141 $239 forward $85 $-1 #
coedge $-1 $139 $353 $349 $354 forward $85 $-1 #
coedge $-1 $351 $142 $139 $236 forward $241 $-1 #
edge $-1 $243 -14.437357658520607 $355 -5.7383996487031066 $235 $356 forward 7 unknown #
coedge $-1 $357 $358 $140 $238 forward $230 $-1 #
edge $-1 $359 -51.003143388448812 $242 -44.197562897317916 $237 $360 forward 7 unknown #
edge $-1 $243 46.845065300426121 $359 56.305935406570171 $141 $361 forward 7 unknown #
coedge $-1 $142 $351 $357 $362 forward $241 $-1 #
loop $-1 $-1 $351 $229 #
vertex $-1 $238 $363 #
vertex $-1 $143 $364 #
straight-curve $-1 -24.525236312132463 27.453070078892033 8.9089918946541786 0 -1 0 I I #
coedge $-1 $245 $245 $-1 $365 reversed $146 $-1 #
edge $-1 $366 0 $366 6.2831853071796004 $147 $367 forward 7 unknown #
vertex $-1 $150 $368 #
ellipse-curve $-1 -22.039819737898892 24.866931438114367 5.5062016490887364 0 0.71933980857756763 0.69465836192734942 0.5 0 0 1 I I #
coedge $-1 $249 $249 $-1 $369 reversed $153 $-1 #
edge $-1 $370 0 $370 6.2831853071796004 $154 $371 forward 7 unknown #
vertex $-1 $157 $372 #
ellipse-curve $-1 -18.311694876548536 24.866931438114367 5.5062016490887364 0 0.71933980857756763 0.69465836192734942 0.5 0 0 1 I I #
face $-1 $-1 $373 $33 $-1 $374 reversed single #
loop $-1 $-1 $164 $158 #
plane-surface $-1 0 0 8.9089918946541804 0 0 1 1 0 0 forward_v I I I I #
coedge $-1 $375 $376 $377 $378 reversed $159 $-1 #
coedge $-1 $379 $161 $163 $263 forward $99 $-1 #
coedge $-1 $161 $379 $375 $380 forward $99 $-1 #
coedge $-1 $377 $164 $161 $260 forward $254 $-1 #
edge $-1 $266 3.2173482049985811 $381 11.916306214816082 $259 $382 forward 7 unknown #
coedge $-1 $383 $384 $162 $262 forward $373 $-1 #
edge $-1 $385 -51.003143388448812 $265 -44.197562897317916 $261 $386 forward 7 unknown #
edge $-1 $266 46.845065300426121 $385 56.305935406570171 $163 $387 forward 7 unknown #
coedge $-1 $164 $377 $383 $388 forward $254 $-1 #
vertex $-1 $262 $389 #
vertex $-1 $165 $390 #
straight-curve $-1 10.784175414905912 27.453070078892033 8.9089918946541786 0 -1 0 I I #
coedge $-1 $268 $268 $-1 $391 reversed $168 $-1 #
edge $-1 $392 0 $392 6.2831853071796004 $169 $393 forward 7 unknown #
vertex $-1 $172 $394 #
ellipse-curve $-1 13.269591989139478 24.866931438114367 5.5062016490887364 0 0.71933980857756763 0.69465836192734942 0.5 0 0 1 I I #
coedge $-1 $272 $272 $-1 $395 reversed $175 $-1 #
edge $-1 $396 0 $396 6.2831853071796004 $176 $397 forward 7 unknown #
vertex $-1 $179 $398 #
ellipse-curve $-1 16.997716850489837 24.866931438114367 5.5062016490887364 0 0.71933980857756763 0.69465836192734942 0.5 0 0 1 I I #
face $-1 $-1 $195 $27 $-1 $399 reversed single #
loop $-1 $-1 $292 $180 #
plane-surface $-1 0 28.1529677032851 0 0 -1 0 0 0 -1 forward_v I I I I #
coedge $-1 $400 $290 $293 $401 forward $181 $-1 #
coedge $-1 $296 $183 $184 $284 reversed $113 $-1 #
coedge $-1 $290 $400 $183 $282 reversed $181 $-1 #
edge $-1 $297 -8.9089918946541804 $402 8.9089918946541804 $281 $403 forward 7 unknown #
coedge $-1 $185 $184 $400 $404 forward $73 $-1 #
edge $-1 $288 -45.782647175511947 $402 45.782647175511947 $280 $405 forward 7 unknown #
coedge $-1 $293 $292 $185 $286 reversed $277 $-1 #
edge $-1 $406 -45.782647175511947 $287 45.782647175511947 $285 $407 forward 7 unknown #
vertex $-1 $187 $408 #
vertex $-1 $299 $409 #
straight-curve $-1 45.782647175511947 0 -8.9089918946541804 0 -1 0 I I #
coedge $-1 $279 $281 $188 $291 reversed $181 $-1 #
edge $-1 $294 -28.1529677032851 $297 28.1529677032851 $290 $410 forward 7 unknown #
coedge $-1 $285 $189 $194 $300 forward $277 $-1 #
coedge $-1 $189 $285 $279 $401 reversed $277 $-1 #
vertex $-1 $190 $411 #
straight-curve $-1 0 28.1529677032851 8.9089918946541804 -1 0 0 I I #
coedge $-1 $191 $280 $193 $299 reversed $113 $-1 #
vertex $-1 $291 $412 #
straight-curve $-1 0 -28.1529677032851 8.9089918946541804 1 0 0 I I #
edge $-1 $196 -8.9089918946541804 $288 8.9089918946541804 $193 $413 forward 7 unknown #
edge $-1 $197 -8.9089918946541804 $287 8.9089918946541804 $194 $414 forward 7 unknown #
point $-1 45.782647175511947 -28.1529677032851 8.9089918946541804 #
point $-1 45.782647175511947 28.1529677032851 8.9089918946541804 #
face $-1 $-1 $319 $28 $-1 $415 forward single #
plane-surface $-1 -51.019264899748734 -20.261273906204238 0 0 -1 0 0 0 -1 forward_v I I I I #
coedge $-1 $416 $417 $322 $418 forward $200 $-1 #
coedge $-1 $315 $202 $203 $311 reversed $121 $-1 #
coedge $-1 $202 $315 $318 $419 reversed $121 $-1 #
coedge $-1 $417 $416 $202 $309 reversed $200 $-1 #
edge $-1 $420 -8.9089918946541804 $421 8.9089918946541804 $308 $422 forward 7 unknown #
coedge $-1 $204 $203 $416 $423 forward $77 $-1 #
edge $-1 $313 -5.2366177242367868 $421 5.2366177242367868 $306 $424 forward 7 unknown #
edge $-1 $425 -5.2366177242367868 $212 5.2366177242367868 $209 $426 forward 7 unknown #
vertex $-1 $311 $427 #
straight-curve $-1 -45.782647175511947 0 -8.9089918946541804 0 -1 0 I I #
coedge $-1 $307 $306 $206 $316 reversed $121 $-1 #
edge $-1 $320 -8.9089918946541804 $313 8.9089918946541804 $315 $428 forward 7 unknown #
coedge $-1 $429 $207 $210 $323 forward $319 $-1 #
coedge $-1 $207 $429 $307 $419 forward $319 $-1 #
loop $-1 $-1 $207 $303 #
vertex $-1 $208 $430 #
straight-curve $-1 -45.782647175511947 0 8.9089918946541804 0 1 0 I I #
coedge $-1 $210 $209 $305 $418 reversed $211 $-1 #
edge $-1 $213 -5.2366177242367868 $431 5.2366177242367868 $210 $432 forward 7 unknown #
point $-1 -45.782647175511947 -20.261273906204238 -8.9089918946541804 #
point $-1 -45.782647175511947 -20.261273906204238 8.9089918946541804 #
face $-1 $-1 $340 $29 $-1 $433 forward single #
loop $-1 $-1 $434 $215 #
plane-surface $-1 56.255882623985514 -21.761273906204238 0 -1 0 0 0 0 1 forward_v I I I I #
coedge $-1 $331 $435 $436 $437 forward $216 $-1 #
coedge $-1 $219 $218 $438 $439 forward $81 $-1 #
coedge $-1 $336 $329 $218 $332 reversed $216 $-1 #
edge $-1 $334 -5.2366177242367868 $440 5.2366177242367868 $331 $441 forward 7 unknown #
edge $-1 $442 -5.2366177242367868 $226 5.2366177242367868 $224 $443 forward 7 unknown #
vertex $-1 $332 $444 #
straight-curve $-1 45.782647175511947 0 -8.9089918946541804 0 1 0 I I #
coedge $-1 $435 $331 $221 $337 reversed $216 $-1 #
edge $-1 $341 -8.9089918946541804 $334 8.9089918946541804 $336 $445 forward 7 unknown #
coedge $-1 $446 $222 $225 $344 forward $340 $-1 #
coedge $-1 $222 $446 $435 $447 forward $340 $-1 #
loop $-1 $-1 $222 $326 #
vertex $-1 $223 $448 #
straight-curve $-1 45.782647175511947 0 8.9089918946541804 0 -1 0 I I #
coedge $-1 $225 $224 $434 $449 reversed $129 $-1 #
edge $-1 $227 -5.2366177242367868 $450 5.2366177242367868 $225 $451 forward 7 unknown #
point $-1 45.78264717551194 -23.261273906204238 -8.9089918946541804 #
point $-1 45.78264717551194 -23.261273906204238 8.9089918946541804 #
plane-surface $-1 0 0 8.9089918946541804 0 0 1 1 0 0 forward_v I I I I #
coedge $-1 $358 $357 $350 $452 forward $230 $-1 #
coedge $-1 $350 $232 $234 $354 reversed $137 $-1 #
coedge $-1 $232 $349 $348 $452 reversed $137 $-1 #
coedge $-1 $240 $235 $232 $352 forward $241 $-1 #
edge $-1 $355 -5.8721749059483912 $453 0.69989762439306702 $351 $454 forward 7 unknown #
coedge $-1 $234 $233 $358 $455 reversed $85 $-1 #
edge $-1 $456 -56.305935406570171 $355 -46.845065300426121 $349 $457 forward 7 unknown #
vertex $-1 $236 $458 #
straight-curve $-1 -10.087878653611856 21.580895172943642 8.9089918946541822 1 0 0 I I #
coedge $-1 $348 $237 $240 $362 reversed $230 $-1 #
coedge $-1 $237 $348 $353 $455 forward $230 $-1 #
vertex $-1 $238 $459 #
straight-curve $-1 -24.525236312132463 28.1529677032851 53.106554791972094 0 0 1 I I #
straight-curve $-1 -24.525236312132463 -10.960421153030083 42.606512200666359 0 0.69465836192734942 -0.71933980857756763 I I #
edge $-1 $453 15.826278302314963 $242 24.525236312132463 $357 $460 forward 7 unknown #
point $-1 -24.525236312132463 28.1529677032851 8.9089918946541804 #
point $-1 -24.525236312132463 21.580895172943642 8.9089918946541786 #
edge $-1 $461 1 $461 0 $245 $-1 forward 7 unknown #
vertex $-1 $246 $462 #
ellipse-curve $-1 -22.039819737898892 24.147591629536787 4.811543287161375 0 0.71933980857756763 0.69465836192734942 0.5 0 0 1 I I #
point $-1 -21.539819737898892 24.866931438114353 5.5062016490887249 #
edge $-1 $463 1 $463 0 $249 $-1 forward 7 unknown #
vertex $-1 $250 $464 #
ellipse-curve $-1 -18.311694876548536 24.147591629536787 4.811543287161375 0 0.71933980857756763 0.69465836192734942 0.5 0 0 1 I I #
point $-1 -17.811694876548536 24.866931438114353 5.5062016490887249 #
loop $-1 $-1 $261 $253 #
plane-surface $-1 0 28.1529677032851 0 0 -1 0 0 0 -1 forward_v I I I I #
coedge $-1 $376 $256 $258 $380 reversed $159 $-1 #
coedge $-1 $256 $375 $465 $466 reversed $159 $-1 #
coedge $-1 $264 $259 $256 $378 forward $254 $-1 #
edge $-1 $381 -5.8721749059483912 $467 0.69989762439306702 $377 $468 forward 7 unknown #
coedge $-1 $258 $257 $384 $469 reversed $99 $-1 #
edge $-1 $470 -56.305935406570171 $381 -46.845065300426121 $375 $471 forward 7 unknown #
vertex $-1 $260 $472 #
straight-curve $-1 7.5668272099073306 21.580895172943642 8.9089918946541822 1 0 0 I I #
coedge $-1 $465 $261 $264 $388 reversed $373 $-1 #
coedge $-1 $261 $465 $379 $469 forward $373 $-1 #
vertex $-1 $262 $473 #
straight-curve $-1 10.784175414905912 28.1529677032851 53.106554791972094 0 0 1 I I #
straight-curve $-1 10.784175414905912 -10.960421153030083 42.606512200666359 0 0.69465836192734942 -0.71933980857756763 I I #
edge $-1 $467 -19.483133424723412 $265 -10.784175414905912 $383 $474 forward 7 unknown #
point $-1 10.784175414905912 28.1529677032851 8.9089918946541804 #
point $-1 10.784175414905912 21.580895172943642 8.9089918946541786 #
edge $-1 $475 1 $475 0 $268 $-1 forward 7 unknown #
vertex $-1 $269 $476 #
ellipse-curve $-1 13.269591989139478 24.147591629536787 4.811543287161375 0 0.71933980857756763 0.69465836192734942 0.5 0 0 1 I I #
point $-1 13.769591989139478 24.866931438114353 5.5062016490887249 #
edge $-1 $477 1 $477 0 $272 $-1 forward 7 unknown #
vertex $-1 $273 $478 #
ellipse-curve $-1 16.997716850489837 24.147591629536787 4.811543287161375 0 0.71933980857756763 0.69465836192734942 0.5 0 0 1 I I #
point $-1 17.497716850489837 24.866931438114353 5.5062016490887249 #
plane-surface $-1 45.782647175511947 0 0 -1 0 0 0 0 1 forward_v I I I I #
coedge $-1 $281 $279 $283 $404 reversed $181 $-1 #
edge $-1 $294 -8.9089918946541804 $406 8.9089918946541804 $293 $479 forward 7 unknown #
vertex $-1 $404 $480 #
straight-curve $-1 -45.782647175511947 -28.1529677032851 0 0 0 -1 I I #
edge $-1 $402 -28.1529677032851 $406 28.1529677032851 $400 $481 forward 7 unknown #
straight-curve $-1 0 -28.1529677032851 -8.9089918946541804 -1 0 0 I I #
vertex $-1 $286 $482 #
straight-curve $-1 0 28.1529677032851 -8.9089918946541804 1 0 0 I I #
point $-1 45.782647175511947 28.1529677032851 -8.9089918946541804 #
point $-1 45.782647175511947 -28.1529677032851 -8.9089918946541804 #
straight-curve $-1 -45.782647175511947 0 8.9089918946541804 0 -1 0 I I #
point $-1 -45.782647175511947 28.1529677032851 8.9089918946541804 #
point $-1 -45.782647175511947 -28.1529677032851 8.9089918946541804 #
straight-curve $-1 45.782647175511947 -28.1529677032851 0 0 0 -1 I I #
straight-curve $-1 45.782647175511947 28.1529677032851 0 0 0 -1 I I #
plane-surface $-1 0 0 8.9089918946541804 0 0 1 1 0 0 forward_v I I I I #
coedge $-1 $308 $305 $310 $423 reversed $200 $-1 #
coedge $-1 $305 $308 $429 $483 reversed $200 $-1 #
edge $-1 $431 -8.9089918946541804 $425 8.9089918946541804 $322 $484 forward 7 unknown #
edge $-1 $420 -5.2366177242367868 $320 5.2366177242367868 $307 $485 forward 7 unknown #
vertex $-1 $483 $486 #
vertex $-1 $423 $487 #
straight-curve $-1 -56.255882623985521 -23.261273906204238 0 0 0 -1 I I #
edge $-1 $421 -1.5 $425 1.5 $416 $488 forward 7 unknown #
straight-curve $-1 -51.019264899748734 -23.261273906204238 -8.9089918946541804 -1 0 0 I I #
vertex $-1 $312 $489 #
straight-curve $-1 -51.019264899748734 -20.261273906204238 -8.9089918946541804 1 0 0 I I #
point $-1 -45.782647175511947 -23.261273906204238 -8.9089918946541804 #
straight-curve $-1 -45.782647175511947 -23.261273906204238 0 0 0 -1 I I #
coedge $-1 $318 $317 $417 $483 forward $319 $-1 #
point $-1 -45.782647175511947 -23.261273906204238 8.9089918946541804 #
vertex $-1 $323 $490 #
straight-curve $-1 -51.019264899748734 -20.261273906204238 8.9089918946541804 -1 0 0 I I #
plane-surface $-1 0 0 8.9089918946541804 0 0 1 1 0 0 forward_v I I I I #
coedge $-1 $438 $491 $343 $449 forward $327 $-1 #
coedge $-1 $329 $336 $339 $447 reversed $216 $-1 #
coedge $-1 $491 $438 $329 $437 reversed $327 $-1 #
edge $-1 $492 -8.9089918946541804 $440 8.9089918946541804 $436 $493 forward 7 unknown #
coedge $-1 $436 $434 $330 $439 reversed $327 $-1 #
edge $-1 $440 -1.5 $442 1.5 $438 $494 forward 7 unknown #
vertex $-1 $439 $495 #
straight-curve $-1 51.019264899748727 -20.261273906204238 -8.9089918946541804 1 0 0 I I #
vertex $-1 $449 $496 #
straight-curve $-1 51.019264899748727 -23.261273906204238 -8.9089918946541804 -1 0 0 I I #
point $-1 45.78264717551194 -20.261273906204238 -8.9089918946541804 #
straight-curve $-1 45.782647175511947 -20.261273906204238 0 0 0 -1 I I #
coedge $-1 $339 $338 $491 $497 forward $340 $-1 #
edge $-1 $492 -5.2366177242367868 $341 5.2366177242367868 $435 $498 forward 7 unknown #
point $-1 45.78264717551194 -20.261273906204238 8.9089918946541804 #
edge $-1 $450 -8.9089918946541804 $442 8.9089918946541804 $434 $499 forward 7 unknown #
vertex $-1 $497 $500 #
straight-curve $-1 51.019264899748727 -23.261273906204238 8.9089918946541804 1 0 0 I I #
edge $-1 $453 44.197562897317916 $456 51.003143388448812 $348 $501 forward 7 unknown #
vertex $-1 $362 $502 #
straight-curve $-1 -15.826278302314963 27.453070078892033 8.9089918946541786 0 1 0 I I #
edge $-1 $456 5.7383996487031066 $359 14.437357658520607 $358 $503 forward 7 unknown #
vertex $-1 $455 $504 #
straight-curve $-1 -15.826278302314963 -10.960421153030083 42.606512200666359 0 -0.69465836192734942 0.71933980857756763 I I #
point $-1 -15.826278302314963 21.580895172943642 8.9089918946541786 #
point $-1 -24.525236312132463 28.1529677032851 2.1034114035232818 #
straight-curve $-1 0 28.1529677032851 8.9089918946541804 -1 0 0 I I #
vertex $-1 $365 $505 #
point $-1 -21.539819737898892 24.147591629536787 4.811543287161375 #
vertex $-1 $369 $506 #
point $-1 -17.811694876548536 24.147591629536787 4.811543287161375 #
coedge $-1 $384 $383 $376 $466 forward $373 $-1 #
edge $-1 $467 44.197562897317916 $470 51.003143388448812 $465 $507 forward 7 unknown #
vertex $-1 $388 $508 #
straight-curve $-1 19.483133424723412 27.453070078892033 8.9089918946541786 0 1 0 I I #
edge $-1 $470 -11.916306214816082 $385 -3.2173482049985811 $384 $509 forward 7 unknown #
vertex $-1 $469 $510 #
straight-curve $-1 19.483133424723412 -10.960421153030083 42.606512200666359 0 -0.69465836192734942 0.71933980857756763 I I #
point $-1 19.483133424723412 21.580895172943642 8.9089918946541786 #
point $-1 10.784175414905912 28.1529677032851 2.1034114035232818 #
straight-curve $-1 0 28.1529677032851 8.9089918946541804 -1 0 0 I I #
vertex $-1 $391 $511 #
point $-1 13.769591989139478 24.147591629536787 4.811543287161375 #
vertex $-1 $395 $512 #
point $-1 17.497716850489837 24.147591629536787 4.811543287161375 #
straight-curve $-1 -45.782647175511947 28.1529677032851 0 0 0 -1 I I #
point $-1 -45.782647175511947 -28.1529677032851 -8.9089918946541804 #
straight-curve $-1 -45.782647175511947 0 -8.9089918946541804 0 1 0 I I #
point $-1 -45.782647175511947 28.1529677032851 -8.9089918946541804 #
edge $-1 $431 -1.5 $420 1.5 $417 $513 forward 7 unknown #
straight-curve $-1 -56.255882623985521 -20.261273906204238 0 0 0 -1 I I #
straight-curve $-1 -51.019264899748734 -23.261273906204238 8.9089918946541804 1 0 0 I I #
point $-1 -56.255882623985521 -23.261273906204238 8.9089918946541804 #
point $-1 -56.255882623985521 -23.261273906204238 -8.9089918946541804 #
straight-curve $-1 -56.255882623985521 -21.761273906204238 -8.9089918946541804 0 1 0 I I #
point $-1 -56.255882623985521 -20.261273906204238 -8.9089918946541804 #
point $-1 -56.255882623985521 -20.261273906204238 8.9089918946541804 #
coedge $-1 $434 $436 $446 $497 reversed $327 $-1 #
vertex $-1 $497 $514 #
straight-curve $-1 56.255882623985514 -20.261273906204238 0 0 0 -1 I I #
straight-curve $-1 56.255882623985514 -21.761273906204238 -8.9089918946541804 0 -1 0 I I #
point $-1 56.255882623985514 -20.261273906204238 -8.9089918946541804 #
point $-1 56.255882623985514 -23.261273906204238 -8.9089918946541804 #
edge $-1 $450 -1.5 $492 1.5 $491 $515 forward 7 unknown #
straight-curve $-1 51.019264899748727 -20.261273906204238 8.9089918946541804 -1 0 0 I I #
straight-curve $-1 56.255882623985514 -23.261273906204238 0 0 0 -1 I I #
point $-1 56.255882623985514 -23.261273906204238 8.9089918946541804 #
straight-curve $-1 -15.826278302314963 28.1529677032851 53.106554791972094 0 0 -1 I I #
point $-1 -15.826278302314963 28.1529677032851 8.9089918946541804 #
straight-curve $-1 -10.087878653611856 28.1529677032851 2.1034114035232818 -1 0 0 I I #
point $-1 -15.826278302314963 28.1529677032851 2.1034114035232818 #
point $-1 -22.039819737898892 23.787921725248001 4.4642141061977005 #
point $-1 -18.311694876548536 23.787921725248001 4.4642141061977005 #
straight-curve $-1 19.483133424723412 28.1529677032851 53.106554791972094 0 0 -1 I I #
point $-1 19.483133424723412 28.1529677032851 8.9089918946541804 #
straight-curve $-1 7.5668272099073306 28.1529677032851 2.1034114035232818 -1 0 0 I I #
point $-1 19.483133424723412 28.1529677032851 2.1034114035232818 #
point $-1 13.269591989139478 23.787921725248001 4.4642141061977005 #
point $-1 16.997716850489837 23.787921725248001 4.4642141061977005 #
straight-curve $-1 -56.255882623985521 -21.761273906204238 8.9089918946541804 0 -1 0 I I #
point $-1 56.255882623985514 -20.261273906204238 8.9089918946541804 #
straight-curve $-1 56.255882623985514 -21.761273906204238 8.9089918946541804 0 1 0 I I #
End-of-ACIS-data 