500 0 14 0           
7 Unknown 11 ACIS 5.0 NT 24 Fri Mar 26 17:35:56 1999 
-1 9.9999999999999995e-007 1e-010 
body $-1 $14 $-1 $15 #
body $-1 $16 $-1 $17 #
body $-1 $18 $-1 $19 #
body $-1 $20 $-1 $21 #
body $-1 $22 $-1 $23 #
body $-1 $24 $-1 $25 #
body $-1 $26 $-1 $27 #
body $-1 $28 $-1 $29 #
body $-1 $30 $-1 $31 #
body $-1 $32 $-1 $33 #
body $-1 $34 $-1 $35 #
body $-1 $36 $-1 $37 #
body $-1 $38 $-1 $39 #
body $-1 $40 $-1 $41 #
lump $-1 $-1 $42 $0 #
transform $-1 1 0 0 0 1 0 0 0 1 69.025543992431409 35.207725057622092 9.9800528544024623 1 rotate no_reflect no_shear #
lump $-1 $-1 $43 $1 #
transform $-1 1 0 0 0 1 0 0 0 1 69.025543992431409 35.207725057622092 9.9800528544024623 1 rotate no_reflect no_shear #
lump $-1 $-1 $44 $2 #
transform $-1 1 0 0 0 1 0 0 0 1 69.025543992431409 35.207725057622092 9.9800528544024623 1 rotate no_reflect no_shear #
lump $-1 $-1 $45 $3 #
transform $-1 1 0 0 0 1 0 0 0 1 69.025543992431409 35.207725057622092 9.9800528544024623 1 rotate no_reflect no_shear #
lump $-1 $-1 $46 $4 #
transform $-1 1 0 0 0 1 0 0 0 1 69.025543992431409 35.207725057622092 9.9800528544024623 1 rotate no_reflect no_shear #
lump $-1 $-1 $47 $5 #
transform $-1 1 0 0 0 1 0 0 0 1 69.025543992431409 35.207725057622092 9.9800528544024623 1 rotate no_reflect no_shear #
lump $-1 $-1 $48 $6 #
transform $-1 1 0 0 0 1 0 0 0 1 69.025543992431409 35.207725057622092 9.9800528544024623 1 rotate no_reflect no_shear #
lump $-1 $-1 $49 $7 #
transform $-1 1 0 0 0 1 0 0 0 1 69.025543992431409 35.207725057622092 9.9800528544024623 1 rotate no_reflect no_shear #
lump $-1 $-1 $50 $8 #
transform $-1 1 0 0 0 1 0 0 0 1 69.025543992431409 35.207725057622092 9.9800528544024623 1 rotate no_reflect no_shear #
lump $-1 $-1 $51 $9 #
transform $-1 1 0 0 0 1 0 0 0 1 69.025543992431409 35.207725057622092 9.9800528544024623 1 rotate no_reflect no_shear #
lump $-1 $-1 $52 $10 #
transform $-1 1 0 0 0 1 0 0 0 1 69.025543992431409 35.207725057622092 9.9800528544024623 1 rotate no_reflect no_shear #
lump $-1 $-1 $53 $11 #
transform $-1 1 0 0 0 1 0 0 0 1 69.025543992431409 35.207725057622092 9.9800528544024623 1 rotate no_reflect no_shear #
lump $-1 $-1 $54 $12 #
transform $-1 1 0 0 0 1 0 0 0 1 69.025543992431409 35.207725057622092 9.9800528544024623 1 rotate no_reflect no_shear #
lump $-1 $-1 $55 $13 #
transform $-1 1 0 0 0 1 0 0 0 1 69.025543992431409 35.207725057622092 9.9800528544024623 1 rotate no_reflect no_shear #
shell $-1 $-1 $-1 $56 $-1 $14 #
shell $-1 $-1 $-1 $57 $-1 $16 #
shell $-1 $-1 $-1 $58 $-1 $18 #
shell $-1 $-1 $-1 $59 $-1 $20 #
shell $-1 $-1 $-1 $60 $-1 $22 #
shell $-1 $-1 $-1 $61 $-1 $24 #
shell $-1 $-1 $-1 $62 $-1 $26 #
shell $-1 $-1 $-1 $63 $-1 $28 #
shell $-1 $-1 $-1 $64 $-1 $30 #
shell $-1 $-1 $-1 $65 $-1 $32 #
shell $-1 $-1 $-1 $66 $-1 $34 #
shell $-1 $-1 $-1 $67 $-1 $36 #
shell $-1 $-1 $-1 $68 $-1 $38 #
shell $-1 $-1 $-1 $69 $-1 $40 #
face $-1 $70 $71 $42 $-1 $72 forward single #
face $-1 $73 $74 $43 $-1 $75 reversed single #
face $-1 $76 $77 $44 $-1 $78 reversed single #
face $-1 $79 $80 $45 $-1 $81 forward single #
face $-1 $82 $83 $46 $-1 $84 forward single #
face $-1 $85 $86 $47 $-1 $87 reversed single #
face $-1 $88 $89 $48 $-1 $90 forward single #
face $-1 $91 $92 $49 $-1 $93 forward single #
face $-1 $94 $95 $50 $-1 $96 reversed single #
face $-1 $97 $98 $51 $-1 $99 forward single #
face $-1 $100 $101 $52 $-1 $102 forward single #
face $-1 $103 $104 $53 $-1 $105 reversed single #
face $-1 $106 $107 $54 $-1 $108 forward single #
face $-1 $109 $110 $55 $-1 $111 forward single #
face $-1 $112 $113 $42 $-1 $114 reversed single #
loop $-1 $-1 $115 $56 #
plane-surface $-1 0 0 9.9800528544024623 0 0 1 1 0 0 forward_v I I I I #
face $-1 $116 $117 $43 $-1 $118 reversed single #
loop $-1 $-1 $119 $57 #
plane-surface $-1 -65.062829185875074 -19.040508481050018 0 0 1 0 0 0 1 forward_v I I I I #
face $-1 $120 $121 $44 $-1 $122 reversed single #
loop $-1 $-1 $123 $58 #
plane-surface $-1 -34.385516098505597 -154.76347534042387 72.113704813578792 -1 0 0 0 -0.86602541151947299 0.49999998660252726 forward_v I I I I #
face $-1 $124 $125 $45 $-1 $126 forward single #
loop $-1 $127 $128 $59 #
cone-surface $-1 -48.534197293271511 -31.950588115394002 5.8022472212227303 0 0.86602541151947299 -0.49999998660252726 1.5 0 0 1 I I 0 1 1.5 forward I I I I #
face $-1 $129 $130 $46 $-1 $131 forward single #
loop $-1 $132 $133 $60 #
cone-surface $-1 -40.044988576411967 -31.950588115394002 5.8022472212227303 0 0.86602541151947299 -0.49999998660252726 1.5 0 0 1 I I 0 1 1.5 forward I I I I #
face $-1 $134 $135 $47 $-1 $136 reversed single #
loop $-1 $-1 $137 $61 #
plane-surface $-1 62.119099384290571 -154.76347534042387 72.113704813578792 -1 0 0 0 -0.86602541151947299 0.49999998660252726 forward_v I I I I #
face $-1 $138 $139 $48 $-1 $140 forward single #
loop $-1 $141 $142 $62 #
cone-surface $-1 47.970418189524651 -31.950588115394002 5.8022472212227303 0 0.86602541151947299 -0.49999998660252726 1.5 0 0 1 I I 0 1 1.5 forward I I I I #
face $-1 $143 $144 $49 $-1 $145 forward single #
loop $-1 $146 $147 $63 #
cone-surface $-1 56.459626906384202 -31.950588115394002 5.8022472212227303 0 0.86602541151947299 -0.49999998660252726 1.5 0 0 1 I I 0 1 1.5 forward I I I I #
face $-1 $148 $149 $50 $-1 $150 reversed single #
loop $-1 $-1 $151 $64 #
plane-surface $-1 -54.193669771177873 119.55575122619084 133.09527397696206 1 0 0 0 -0.86602541151947299 -0.49999998660252726 forward_v I I I I #
face $-1 $152 $153 $51 $-1 $154 forward single #
loop $-1 $155 $156 $65 #
cone-surface $-1 -48.534197293271511 31.950588115393987 5.8022472212227338 0 -0.86602541151947299 -0.49999998660252726 1.5 0 0 1 I I 0 1 1.5 forward I I I I #
face $-1 $157 $158 $52 $-1 $159 forward single #
loop $-1 $160 $161 $66 #
cone-surface $-1 -40.044988576411967 31.950588115393987 5.8022472212227338 0 -0.86602541151947299 -0.49999998660252726 1.5 0 0 1 I I 0 1 1.5 forward I I I I #
face $-1 $162 $163 $53 $-1 $164 reversed single #
loop $-1 $-1 $165 $67 #
plane-surface $-1 42.310945711618295 119.55575122619084 133.09527397696206 1 0 0 0 -0.86602541151947299 -0.49999998660252726 forward_v I I I I #
face $-1 $166 $167 $54 $-1 $168 forward single #
loop $-1 $169 $170 $68 #
cone-surface $-1 47.970418189524651 31.950588115393987 5.8022472212227338 0 -0.86602541151947299 -0.49999998660252726 1.5 0 0 1 I I 0 1 1.5 forward I I I I #
face $-1 $171 $172 $55 $-1 $173 forward single #
loop $-1 $174 $175 $69 #
cone-surface $-1 56.459626906384202 31.950588115393987 5.8022472212227338 0 -0.86602541151947299 -0.49999998660252726 1.5 0 0 1 I I 0 1 1.5 forward I I I I #
face $-1 $176 $177 $42 $-1 $178 reversed single #
loop $-1 $-1 $179 $70 #
plane-surface $-1 0 0 -9.9800528544024623 0 0 1 1 0 0 forward_v I I I I #
coedge $-1 $180 $181 $182 $183 forward $71 $-1 #
face $-1 $184 $185 $43 $-1 $186 reversed single #
loop $-1 $-1 $187 $73 #
plane-surface $-1 -65.062829185875074 -15.247619348817167 0 0 -1 0 0 0 -1 forward_v I I I I #
coedge $-1 $188 $189 $190 $191 reversed $74 $-1 #
face $-1 $192 $193 $44 $-1 $194 reversed single #
loop $-1 $-1 $195 $76 #
plane-surface $-1 -44.289592934841735 -35.207725057622071 3.0881626706830758 0 -0.86602541151947299 0.49999998660252726 1 0 0 forward_v I I I I #
coedge $-1 $196 $197 $198 $199 reversed $77 $-1 #
face $-1 $-1 $200 $45 $-1 $201 forward single #
loop $-1 $202 $203 $79 #
cone-surface $-1 -48.534197293271511 -30.033449369845492 4.6953866899507943 0 0.86602541151947299 -0.49999998660252726 0.75 0 0 1 I I -0.70710678118654757 0.70710678118654757 0.75 forward I I I I #
loop $-1 $-1 $204 $59 #
coedge $-1 $128 $128 $205 $206 reversed $80 $-1 #
face $-1 $-1 $207 $46 $-1 $208 forward single #
loop $-1 $209 $210 $82 #
cone-surface $-1 -40.044988576411967 -30.033449369845492 4.6953866899507943 0 0.86602541151947299 -0.49999998660252726 0.75 0 0 1 I I -0.70710678118654757 0.70710678118654757 0.75 forward I I I I #
loop $-1 $-1 $211 $60 #
coedge $-1 $133 $133 $212 $213 reversed $83 $-1 #
face $-1 $214 $215 $47 $-1 $216 reversed single #
loop $-1 $-1 $217 $85 #
plane-surface $-1 52.215022547954433 -35.207725057622071 3.0881626706830758 0 -0.86602541151947299 0.49999998660252726 1 0 0 forward_v I I I I #
coedge $-1 $218 $219 $220 $221 reversed $86 $-1 #
face $-1 $-1 $222 $48 $-1 $223 forward single #
loop $-1 $224 $225 $88 #
cone-surface $-1 47.970418189524651 -30.033449369845492 4.6953866899507943 0 0.86602541151947299 -0.49999998660252726 0.75 0 0 1 I I -0.70710678118654757 0.70710678118654757 0.75 forward I I I I #
loop $-1 $-1 $226 $62 #
coedge $-1 $142 $142 $227 $228 reversed $89 $-1 #
face $-1 $-1 $229 $49 $-1 $230 forward single #
loop $-1 $231 $232 $91 #
cone-surface $-1 56.459626906384202 -30.033449369845492 4.6953866899507943 0 0.86602541151947299 -0.49999998660252726 0.75 0 0 1 I I -0.70710678118654757 0.70710678118654757 0.75 forward I I I I #
loop $-1 $-1 $233 $63 #
coedge $-1 $147 $147 $234 $235 reversed $92 $-1 #
face $-1 $236 $237 $50 $-1 $238 reversed single #
loop $-1 $-1 $239 $94 #
plane-surface $-1 -44.289592934841735 9.4338903977586597e-007 64.069731834066346 0 0.86602541151947299 0.49999998660252726 1 0 0 forward_v I I I I #
coedge $-1 $240 $241 $242 $243 reversed $95 $-1 #
face $-1 $-1 $244 $51 $-1 $245 forward single #
loop $-1 $246 $247 $97 #
cone-surface $-1 -48.534197293271511 30.033449369845478 4.6953866899507979 0 -0.86602541151947299 -0.49999998660252726 0.75 0 0 1 I I -0.70710678118654757 0.70710678118654757 0.75 forward I I I I #
loop $-1 $-1 $248 $65 #
coedge $-1 $156 $156 $249 $250 reversed $98 $-1 #
face $-1 $-1 $251 $52 $-1 $252 forward single #
loop $-1 $253 $254 $100 #
cone-surface $-1 -40.044988576411967 30.033449369845478 4.6953866899507979 0 -0.86602541151947299 -0.49999998660252726 0.75 0 0 1 I I -0.70710678118654757 0.70710678118654757 0.75 forward I I I I #
loop $-1 $-1 $255 $66 #
coedge $-1 $161 $161 $256 $257 reversed $101 $-1 #
face $-1 $258 $259 $53 $-1 $260 reversed single #
loop $-1 $-1 $261 $103 #
plane-surface $-1 52.215022547954433 9.4338903977586597e-007 64.069731834066346 0 0.86602541151947299 0.49999998660252726 1 0 0 forward_v I I I I #
coedge $-1 $262 $263 $264 $265 reversed $104 $-1 #
face $-1 $-1 $266 $54 $-1 $267 forward single #
loop $-1 $268 $269 $106 #
cone-surface $-1 47.970418189524651 30.033449369845478 4.6953866899507979 0 -0.86602541151947299 -0.49999998660252726 0.75 0 0 1 I I -0.70710678118654757 0.70710678118654757 0.75 forward I I I I #
loop $-1 $-1 $270 $68 #
coedge $-1 $170 $170 $271 $272 reversed $107 $-1 #
face $-1 $-1 $273 $55 $-1 $274 forward single #
loop $-1 $275 $276 $109 #
cone-surface $-1 56.459626906384202 30.033449369845478 4.6953866899507979 0 -0.86602541151947299 -0.49999998660252726 0.75 0 0 1 I I -0.70710678118654757 0.70710678118654757 0.75 forward I I I I #
loop $-1 $-1 $277 $69 #
coedge $-1 $175 $175 $278 $279 reversed $110 $-1 #
face $-1 $280 $281 $42 $-1 $282 reversed single #
loop $-1 $-1 $283 $112 #
plane-surface $-1 0 -35.207725057622092 0 0 1 0 0 0 1 forward_v I I I I #
coedge $-1 $284 $285 $286 $287 forward $113 $-1 #
coedge $-1 $288 $115 $289 $290 forward $71 $-1 #
coedge $-1 $115 $288 $291 $292 forward $71 $-1 #
coedge $-1 $293 $294 $115 $183 reversed $295 $-1 #
edge $-1 $296 -35.207725057622092 $297 35.207725057622092 $182 $298 forward 7 unknown #
face $-1 $299 $300 $43 $-1 $301 reversed single #
loop $-1 $-1 $302 $116 #
plane-surface $-1 -61.100114379318732 -17.144063914933593 0 -1 0 0 0 0 1 forward_v I I I I #
coedge $-1 $303 $304 $305 $306 forward $117 $-1 #
coedge $-1 $307 $119 $308 $309 reversed $74 $-1 #
coedge $-1 $119 $307 $310 $311 reversed $74 $-1 #
coedge $-1 $312 $313 $119 $191 forward $314 $-1 #
edge $-1 $315 -9.9800528544024623 $316 9.9800528544024623 $190 $317 forward 7 unknown #
face $-1 $318 $319 $44 $-1 $320 reversed single #
loop $-1 $-1 $321 $120 #
plane-surface $-1 -54.193669771177873 -154.76347534042387 72.113704813578792 1 0 0 0 0.86602541151947299 -0.49999998660252726 forward_v I I I I #
coedge $-1 $322 $323 $324 $325 reversed $121 $-1 #
coedge $-1 $197 $123 $326 $327 reversed $77 $-1 #
coedge $-1 $123 $196 $322 $328 reversed $77 $-1 #
coedge $-1 $324 $329 $123 $199 forward $330 $-1 #
edge $-1 $331 42.174012612589841 $332 46.153047123228234 $198 $333 forward 7 unknown #
loop $-1 $-1 $205 $124 #
plane-surface $-1 -44.289592934841735 -35.207725057622071 3.0881626706830758 0 -0.86602541151947299 0.49999998660252726 1 0 0 forward_v I I I I #
loop $-1 $-1 $334 $79 #
coedge $-1 $203 $203 $204 $335 reversed $125 $-1 #
coedge $-1 $204 $204 $203 $335 forward $127 $-1 #
coedge $-1 $205 $205 $128 $206 forward $200 $-1 #
edge $-1 $336 -1.4647365701056782e-015 $336 6.2831853071795987 $205 $337 forward 7 unknown #
loop $-1 $-1 $212 $129 #
plane-surface $-1 -44.289592934841735 -35.207725057622071 3.0881626706830758 0 -0.86602541151947299 0.49999998660252726 1 0 0 forward_v I I I I #
loop $-1 $-1 $338 $82 #
coedge $-1 $210 $210 $211 $339 reversed $130 $-1 #
coedge $-1 $211 $211 $210 $339 forward $132 $-1 #
coedge $-1 $212 $212 $133 $213 forward $207 $-1 #
edge $-1 $340 -1.4647365701056782e-015 $340 6.2831853071795987 $212 $341 forward 7 unknown #
face $-1 $342 $343 $47 $-1 $344 reversed single #
loop $-1 $-1 $345 $134 #
plane-surface $-1 42.310945711618295 -154.76347534042387 72.113704813578792 1 0 0 0 0.86602541151947299 -0.49999998660252726 forward_v I I I I #
coedge $-1 $346 $347 $348 $349 reversed $135 $-1 #
coedge $-1 $219 $137 $350 $351 reversed $86 $-1 #
coedge $-1 $137 $218 $346 $352 reversed $86 $-1 #
coedge $-1 $348 $353 $137 $221 forward $354 $-1 #
edge $-1 $355 42.174012612589841 $356 46.153047123228234 $220 $357 forward 7 unknown #
loop $-1 $-1 $227 $138 #
plane-surface $-1 52.215022547954433 -35.207725057622071 3.0881626706830758 0 -0.86602541151947299 0.49999998660252726 1 0 0 forward_v I I I I #
loop $-1 $-1 $358 $88 #
coedge $-1 $225 $225 $226 $359 reversed $139 $-1 #
coedge $-1 $226 $226 $225 $359 forward $141 $-1 #
coedge $-1 $227 $227 $142 $228 forward $222 $-1 #
edge $-1 $360 -1.4647365701056782e-015 $360 6.2831853071795987 $227 $361 forward 7 unknown #
loop $-1 $-1 $234 $143 #
plane-surface $-1 52.215022547954433 -35.207725057622071 3.0881626706830758 0 -0.86602541151947299 0.49999998660252726 1 0 0 forward_v I I I I #
loop $-1 $-1 $362 $91 #
coedge $-1 $232 $232 $233 $363 reversed $144 $-1 #
coedge $-1 $233 $233 $232 $363 forward $146 $-1 #
coedge $-1 $234 $234 $147 $235 forward $229 $-1 #
edge $-1 $364 -1.4647365701056782e-015 $364 6.2831853071795987 $234 $365 forward 7 unknown #
face $-1 $366 $367 $50 $-1 $368 reversed single #
loop $-1 $-1 $369 $148 #
plane-surface $-1 -34.385516098505597 119.55575122619084 133.09527397696206 -1 0 0 0 0.86602541151947299 0.49999998660252726 forward_v I I I I #
coedge $-1 $370 $371 $372 $373 reversed $149 $-1 #
coedge $-1 $241 $151 $374 $375 reversed $95 $-1 #
coedge $-1 $151 $240 $370 $376 reversed $95 $-1 #
coedge $-1 $372 $377 $151 $243 forward $378 $-1 #
edge $-1 $379 24.570150555473326 $380 28.549185066111729 $242 $381 forward 7 unknown #
loop $-1 $-1 $249 $152 #
plane-surface $-1 -44.289592934841735 9.4338903977586597e-007 64.069731834066346 0 0.86602541151947299 0.49999998660252726 1 0 0 forward_v I I I I #
loop $-1 $-1 $382 $97 #
coedge $-1 $247 $247 $248 $383 reversed $153 $-1 #
coedge $-1 $248 $248 $247 $383 forward $155 $-1 #
coedge $-1 $249 $249 $156 $250 forward $244 $-1 #
edge $-1 $384 -9.0373915229814363e-016 $384 6.2831853071795996 $249 $385 forward 7 unknown #
loop $-1 $-1 $256 $157 #
plane-surface $-1 -44.289592934841735 9.4338903977586597e-007 64.069731834066346 0 0.86602541151947299 0.49999998660252726 1 0 0 forward_v I I I I #
loop $-1 $-1 $386 $100 #
coedge $-1 $254 $254 $255 $387 reversed $158 $-1 #
coedge $-1 $255 $255 $254 $387 forward $160 $-1 #
coedge $-1 $256 $256 $161 $257 forward $251 $-1 #
edge $-1 $388 -9.0373915229814363e-016 $388 6.2831853071795996 $256 $389 forward 7 unknown #
face $-1 $390 $391 $53 $-1 $392 forward single #
loop $-1 $-1 $393 $162 #
plane-surface $-1 62.119099384290571 119.55575122619084 133.09527397696206 -1 0 0 0 0.86602541151947299 0.49999998660252726 forward_v I I I I #
coedge $-1 $394 $395 $396 $397 reversed $163 $-1 #
coedge $-1 $263 $165 $398 $399 reversed $104 $-1 #
coedge $-1 $165 $262 $394 $400 reversed $104 $-1 #
coedge $-1 $396 $401 $165 $265 forward $391 $-1 #
edge $-1 $402 24.570150555473326 $403 28.549185066111729 $264 $404 forward 7 unknown #
loop $-1 $-1 $271 $166 #
plane-surface $-1 52.215022547954433 9.4338903977586597e-007 64.069731834066346 0 0.86602541151947299 0.49999998660252726 1 0 0 forward_v I I I I #
loop $-1 $-1 $405 $106 #
coedge $-1 $269 $269 $270 $406 reversed $167 $-1 #
coedge $-1 $270 $270 $269 $406 forward $169 $-1 #
coedge $-1 $271 $271 $170 $272 forward $266 $-1 #
edge $-1 $407 -9.0373915229814363e-016 $407 6.2831853071795996 $271 $408 forward 7 unknown #
loop $-1 $-1 $278 $171 #
plane-surface $-1 52.215022547954433 9.4338903977586597e-007 64.069731834066346 0 0.86602541151947299 0.49999998660252726 1 0 0 forward_v I I I I #
loop $-1 $-1 $409 $109 #
coedge $-1 $276 $276 $277 $410 reversed $172 $-1 #
coedge $-1 $277 $277 $276 $410 forward $174 $-1 #
coedge $-1 $278 $278 $175 $279 forward $273 $-1 #
edge $-1 $411 -9.0373915229814363e-016 $411 6.2831853071795996 $278 $412 forward 7 unknown #
face $-1 $413 $414 $42 $-1 $415 reversed single #
loop $-1 $-1 $416 $176 #
plane-surface $-1 -69.025543992431409 0 0 1 0 0 0 0 -1 forward_v I I I I #
coedge $-1 $417 $291 $418 $419 forward $177 $-1 #
coedge $-1 $420 $179 $417 $421 forward $113 $-1 #
coedge $-1 $179 $420 $422 $423 forward $113 $-1 #
coedge $-1 $294 $293 $179 $287 reversed $295 $-1 #
edge $-1 $424 -35.207725057622092 $425 35.207725057622092 $286 $426 forward 7 unknown #
coedge $-1 $181 $180 $427 $428 forward $71 $-1 #
coedge $-1 $429 $430 $180 $290 reversed $414 $-1 #
edge $-1 $297 -69.025543992431409 $431 69.025543992431409 $289 $432 forward 7 unknown #
coedge $-1 $283 $433 $181 $292 reversed $177 $-1 #
edge $-1 $434 -69.025543992431409 $296 69.025543992431409 $291 $435 forward 7 unknown #
coedge $-1 $286 $182 $433 $436 forward $295 $-1 #
coedge $-1 $182 $286 $429 $437 reversed $295 $-1 #
loop $-1 $-1 $293 $413 #
vertex $-1 $183 $438 #
vertex $-1 $183 $439 #
straight-curve $-1 69.025543992431409 0 9.9800528544024623 0 1 0 I I #
face $-1 $440 $441 $43 $-1 $442 forward single #
loop $-1 $-1 $443 $184 #
plane-surface $-1 0 0 -9.9800528544024623 0 0 1 1 0 0 forward_v I I I I #
coedge $-1 $444 $445 $307 $446 forward $185 $-1 #
coedge $-1 $447 $187 $443 $448 reversed $117 $-1 #
coedge $-1 $187 $447 $449 $450 reversed $117 $-1 #
coedge $-1 $445 $444 $187 $306 reversed $185 $-1 #
edge $-1 $451 -9.9800528544024623 $452 9.9800528544024623 $305 $453 forward 7 unknown #
coedge $-1 $189 $188 $302 $446 reversed $74 $-1 #
coedge $-1 $454 $455 $188 $309 forward $300 $-1 #
edge $-1 $456 28.568699786381195 $315 36.494129399493872 $308 $457 forward 7 unknown #
coedge $-1 $458 $459 $189 $311 forward $441 $-1 #
edge $-1 $316 -36.494129399493872 $460 -28.568699786381195 $310 $461 forward 7 unknown #
coedge $-1 $462 $190 $459 $463 reversed $314 $-1 #
coedge $-1 $190 $462 $454 $464 reversed $314 $-1 #
loop $-1 $-1 $462 $440 #
vertex $-1 $464 $465 #
vertex $-1 $191 $466 #
straight-curve $-1 -69.025543992431409 -19.040508481050018 0 0 0 1 I I #
face $-1 $-1 $330 $44 $-1 $467 forward single #
loop $-1 $-1 $468 $192 #
plane-surface $-1 0 -35.207725057622092 0 0 1 0 0 0 1 forward_v I I I I #
coedge $-1 $469 $470 $471 $472 reversed $193 $-1 #
coedge $-1 $473 $195 $197 $328 forward $121 $-1 #
coedge $-1 $195 $473 $469 $474 forward $121 $-1 #
coedge $-1 $471 $198 $195 $325 forward $330 $-1 #
edge $-1 $332 12.24071963108473 $475 32.048873303757006 $324 $476 forward 7 unknown #
coedge $-1 $477 $478 $196 $327 forward $319 $-1 #
edge $-1 $479 -32.968689736106356 $331 -26.076799552386934 $326 $480 forward 7 unknown #
edge $-1 $332 -7.958069234512779 $479 4.2579321629893116e-014 $197 $481 forward 7 unknown #
coedge $-1 $198 $471 $477 $482 forward $330 $-1 #
loop $-1 $-1 $471 $318 #
vertex $-1 $327 $483 #
vertex $-1 $199 $484 #
straight-curve $-1 -34.385516098505597 -77.381737670211933 9.9800528544024623 0 1 0 I I #
coedge $-1 $334 $334 $-1 $485 reversed $202 $-1 #
edge $-1 $486 0 $486 6.2831853071796004 $203 $487 forward 7 unknown #
vertex $-1 $206 $488 #
ellipse-curve $-1 -48.534197293271511 -33.218207802302885 6.5341077625427602 0 -0.86602541151947299 0.49999998660252726 1.5 0 0 1 I I #
coedge $-1 $338 $338 $-1 $489 reversed $209 $-1 #
edge $-1 $490 0 $490 6.2831853071796004 $210 $491 forward 7 unknown #
vertex $-1 $213 $492 #
ellipse-curve $-1 -40.044988576411967 -33.218207802302885 6.5341077625427602 0 -0.86602541151947299 0.49999998660252726 1.5 0 0 1 I I #
face $-1 $-1 $354 $47 $-1 $493 forward single #
loop $-1 $-1 $494 $214 #
plane-surface $-1 0 -35.207725057622092 0 0 1 0 0 0 1 forward_v I I I I #
coedge $-1 $495 $496 $497 $498 reversed $215 $-1 #
coedge $-1 $499 $217 $219 $352 forward $135 $-1 #
coedge $-1 $217 $499 $495 $500 forward $135 $-1 #
coedge $-1 $497 $220 $217 $349 forward $354 $-1 #
edge $-1 $356 -36.011588110313355 $501 -16.203434437641079 $348 $502 forward 7 unknown #
coedge $-1 $503 $504 $218 $351 forward $343 $-1 #
edge $-1 $505 -32.968689736106356 $355 -26.076799552386934 $350 $506 forward 7 unknown #
edge $-1 $356 -7.958069234512779 $505 4.2579321629893116e-014 $219 $507 forward 7 unknown #
coedge $-1 $220 $497 $503 $508 forward $354 $-1 #
loop $-1 $-1 $497 $342 #
vertex $-1 $351 $509 #
vertex $-1 $221 $510 #
straight-curve $-1 62.119099384290571 -77.381737670211933 9.9800528544024623 0 1 0 I I #
coedge $-1 $358 $358 $-1 $511 reversed $224 $-1 #
edge $-1 $512 0 $512 6.2831853071796004 $225 $513 forward 7 unknown #
vertex $-1 $228 $514 #
ellipse-curve $-1 47.970418189524651 -33.218207802302885 6.5341077625427602 0 -0.86602541151947299 0.49999998660252726 1.5 0 0 1 I I #
coedge $-1 $362 $362 $-1 $515 reversed $231 $-1 #
edge $-1 $516 0 $516 6.2831853071796004 $232 $517 forward 7 unknown #
vertex $-1 $235 $518 #
ellipse-curve $-1 56.459626906384202 -33.218207802302885 6.5341077625427602 0 -0.86602541151947299 0.49999998660252726 1.5 0 0 1 I I #
face $-1 $-1 $378 $50 $-1 $519 forward single #
loop $-1 $-1 $520 $236 #
plane-surface $-1 0 35.207725057622092 0 0 -1 0 0 0 -1 forward_v I I I I #
coedge $-1 $521 $522 $523 $524 reversed $237 $-1 #
coedge $-1 $525 $239 $241 $376 forward $149 $-1 #
coedge $-1 $239 $525 $521 $526 forward $149 $-1 #
coedge $-1 $523 $242 $239 $373 forward $378 $-1 #
edge $-1 $380 -32.048873303757006 $527 -12.24071963108473 $372 $528 forward 7 unknown #
coedge $-1 $529 $530 $240 $375 forward $367 $-1 #
edge $-1 $531 -63.459474317798012 $379 -56.567584134078572 $374 $532 forward 7 unknown #
edge $-1 $380 62.457380880731407 $531 70.415450115244255 $241 $533 forward 7 unknown #
coedge $-1 $242 $523 $529 $534 forward $378 $-1 #
loop $-1 $-1 $523 $366 #
vertex $-1 $375 $535 #
vertex $-1 $243 $536 #
straight-curve $-1 -54.193669771177873 59.777875613095418 9.9800528544024587 0 -1 0 I I #
coedge $-1 $382 $382 $-1 $537 reversed $246 $-1 #
edge $-1 $538 0 $538 6.2831853071796004 $247 $539 forward 7 unknown #
vertex $-1 $250 $540 #
ellipse-curve $-1 -48.534197293271511 33.218207802302878 6.5341077625427637 0 0.86602541151947299 0.49999998660252726 1.5 0 0 1 I I #
coedge $-1 $386 $386 $-1 $541 reversed $253 $-1 #
edge $-1 $542 0 $542 6.2831853071796004 $254 $543 forward 7 unknown #
vertex $-1 $257 $544 #
ellipse-curve $-1 -40.044988576411967 33.218207802302878 6.5341077625427637 0 0.86602541151947299 0.49999998660252726 1.5 0 0 1 I I #
face $-1 $-1 $545 $53 $-1 $546 reversed single #
loop $-1 $-1 $264 $258 #
plane-surface $-1 0 0 9.9800528544024623 0 0 1 1 0 0 forward_v I I I I #
coedge $-1 $547 $548 $549 $550 reversed $259 $-1 #
coedge $-1 $551 $261 $263 $400 forward $163 $-1 #
coedge $-1 $261 $551 $547 $552 forward $163 $-1 #
coedge $-1 $549 $264 $261 $397 forward $391 $-1 #
edge $-1 $403 16.203434437641079 $553 36.011588110313355 $396 $554 forward 7 unknown #
coedge $-1 $555 $556 $262 $399 forward $545 $-1 #
edge $-1 $557 -63.459474317798012 $402 -56.567584134078572 $398 $558 forward 7 unknown #
edge $-1 $403 62.457380880731407 $557 70.415450115244255 $263 $559 forward 7 unknown #
coedge $-1 $264 $549 $555 $560 forward $391 $-1 #
vertex $-1 $399 $561 #
vertex $-1 $265 $562 #
straight-curve $-1 42.310945711618295 59.777875613095418 9.9800528544024587 0 -1 0 I I #
coedge $-1 $405 $405 $-1 $563 reversed $268 $-1 #
edge $-1 $564 0 $564 6.2831853071796004 $269 $565 forward 7 unknown #
vertex $-1 $272 $566 #
ellipse-curve $-1 47.970418189524651 33.218207802302878 6.5341077625427637 0 0.86602541151947299 0.49999998660252726 1.5 0 0 1 I I #
coedge $-1 $409 $409 $-1 $567 reversed $275 $-1 #
edge $-1 $568 0 $568 6.2831853071796004 $276 $569 forward 7 unknown #
vertex $-1 $279 $570 #
ellipse-curve $-1 56.459626906384202 33.218207802302878 6.5341077625427637 0 0.86602541151947299 0.49999998660252726 1.5 0 0 1 I I #
face $-1 $-1 $295 $42 $-1 $571 reversed single #
loop $-1 $-1 $429 $280 #
plane-surface $-1 0 35.207725057622092 0 0 -1 0 0 0 -1 forward_v I I I I #
coedge $-1 $572 $427 $430 $573 forward $281 $-1 #
coedge $-1 $433 $283 $284 $421 reversed $177 $-1 #
coedge $-1 $427 $572 $283 $419 reversed $281 $-1 #
edge $-1 $434 -9.9800528544024623 $574 9.9800528544024623 $418 $575 forward 7 unknown #
coedge $-1 $285 $284 $572 $576 forward $113 $-1 #
edge $-1 $425 -69.025543992431409 $574 69.025543992431409 $417 $577 forward 7 unknown #
coedge $-1 $430 $429 $285 $423 reversed $414 $-1 #
edge $-1 $578 -69.025543992431409 $424 69.025543992431409 $422 $579 forward 7 unknown #
vertex $-1 $287 $580 #
vertex $-1 $436 $581 #
straight-curve $-1 69.025543992431409 0 -9.9800528544024623 0 -1 0 I I #
coedge $-1 $416 $418 $288 $428 reversed $281 $-1 #
edge $-1 $431 -35.207725057622092 $434 35.207725057622092 $427 $582 forward 7 unknown #
coedge $-1 $422 $289 $294 $437 forward $414 $-1 #
coedge $-1 $289 $422 $416 $573 reversed $414 $-1 #
vertex $-1 $290 $583 #
straight-curve $-1 0 35.207725057622092 9.9800528544024623 -1 0 0 I I #
coedge $-1 $291 $417 $293 $436 reversed $177 $-1 #
vertex $-1 $428 $584 #
straight-curve $-1 0 -35.207725057622092 9.9800528544024623 1 0 0 I I #
edge $-1 $296 -9.9800528544024623 $425 9.9800528544024623 $293 $585 forward 7 unknown #
edge $-1 $297 -9.9800528544024623 $424 9.9800528544024623 $294 $586 forward 7 unknown #
point $-1 69.025543992431409 -35.207725057622092 9.9800528544024623 #
point $-1 69.025543992431409 35.207725057622092 9.9800528544024623 #
face $-1 $-1 $314 $43 $-1 $587 reversed single #
loop $-1 $-1 $449 $299 #
plane-surface $-1 0 0 9.9800528544024623 0 0 1 1 0 0 forward_v I I I I #
coedge $-1 $455 $454 $303 $448 forward $300 $-1 #
coedge $-1 $305 $302 $455 $588 reversed $185 $-1 #
coedge $-1 $302 $305 $458 $589 reversed $185 $-1 #
edge $-1 $460 -9.9800528544024623 $456 9.9800528544024623 $302 $590 forward 7 unknown #
coedge $-1 $304 $303 $462 $591 reversed $117 $-1 #
edge $-1 $592 -36.494129399493872 $452 -28.568699786381195 $443 $593 forward 7 unknown #
coedge $-1 $459 $458 $304 $450 forward $441 $-1 #
edge $-1 $451 28.568699786381195 $594 36.494129399493872 $449 $595 forward 7 unknown #
vertex $-1 $450 $596 #
vertex $-1 $448 $597 #
straight-curve $-1 -61.100114379318732 -15.247619348817167 0 0 0 -1 I I #
coedge $-1 $443 $308 $313 $464 forward $300 $-1 #
coedge $-1 $308 $443 $444 $588 forward $300 $-1 #
vertex $-1 $309 $598 #
straight-curve $-1 -32.531414592937537 -19.040508481050018 -9.9800528544024623 -1 0 0 I I #
coedge $-1 $449 $310 $445 $589 forward $441 $-1 #
coedge $-1 $310 $449 $312 $463 forward $441 $-1 #
vertex $-1 $311 $599 #
straight-curve $-1 -32.531414592937537 -19.040508481050018 9.9800528544024623 1 0 0 I I #
coedge $-1 $313 $312 $447 $591 forward $314 $-1 #
edge $-1 $594 15.247619348817167 $316 19.040508481050018 $312 $600 forward 7 unknown #
edge $-1 $315 -19.040508481050018 $592 -15.247619348817167 $313 $601 forward 7 unknown #
point $-1 -69.025543992431409 -19.040508481050018 -9.9800528544024623 #
point $-1 -69.025543992431409 -19.040508481050018 9.9800528544024623 #
plane-surface $-1 0 0 9.9800528544024623 0 0 1 1 0 0 forward_v I I I I #
coedge $-1 $478 $477 $470 $602 forward $319 $-1 #
coedge $-1 $470 $321 $323 $474 reversed $193 $-1 #
coedge $-1 $321 $469 $468 $602 reversed $193 $-1 #
coedge $-1 $329 $324 $321 $472 forward $330 $-1 #
edge $-1 $475 -46.153047123228234 $603 -42.174012612589841 $471 $604 forward 7 unknown #
coedge $-1 $323 $322 $478 $605 reversed $121 $-1 #
edge $-1 $606 -4.2579321629893116e-014 $475 7.958069234512779 $469 $607 forward 7 unknown #
vertex $-1 $325 $608 #
straight-curve $-1 -22.144796467420868 -31.228690546983696 9.9800528544024623 -1 0 0 I I #
coedge $-1 $468 $326 $329 $482 reversed $319 $-1 #
coedge $-1 $326 $468 $473 $605 forward $319 $-1 #
vertex $-1 $327 $609 #
straight-curve $-1 -34.385516098505597 -35.207725057622092 36.056852406789396 0 0 1 I I #
straight-curve $-1 -34.385516098505597 -35.207725057622071 3.0881626706830758 0 -0.49999998660252726 -0.86602541151947299 I I #
edge $-1 $603 -54.193669771177873 $331 -34.385516098505597 $477 $610 forward 7 unknown #
point $-1 -34.385516098505597 -35.207725057622092 9.9800528544024623 #
point $-1 -34.385516098505597 -31.228690546983696 9.9800528544024623 #
edge $-1 $611 1 $611 0 $334 $-1 forward 7 unknown #
vertex $-1 $335 $612 #
ellipse-curve $-1 -48.534197293271511 -30.682968428485097 5.0703866799026898 0 -0.86602541151947299 0.49999998660252726 1.5 0 0 1 I I #
point $-1 -47.034197293271511 -33.218207802302906 6.5341077625427699 #
edge $-1 $613 1 $613 0 $338 $-1 forward 7 unknown #
vertex $-1 $339 $614 #
ellipse-curve $-1 -40.044988576411967 -30.682968428485097 5.0703866799026898 0 -0.86602541151947299 0.49999998660252726 1.5 0 0 1 I I #
point $-1 -38.544988576411967 -33.218207802302906 6.5341077625427699 #
plane-surface $-1 0 0 9.9800528544024623 0 0 1 1 0 0 forward_v I I I I #
coedge $-1 $504 $503 $496 $615 forward $343 $-1 #
coedge $-1 $496 $345 $347 $500 reversed $215 $-1 #
coedge $-1 $345 $495 $494 $615 reversed $215 $-1 #
coedge $-1 $353 $348 $345 $498 forward $354 $-1 #
edge $-1 $501 -46.153047123228234 $616 -42.174012612589841 $497 $617 forward 7 unknown #
coedge $-1 $347 $346 $504 $618 reversed $135 $-1 #
edge $-1 $619 -4.2579321629893116e-014 $501 7.958069234512779 $495 $620 forward 7 unknown #
vertex $-1 $349 $621 #
straight-curve $-1 26.107511273977217 -31.228690546983696 9.9800528544024623 -1 0 0 I I #
coedge $-1 $494 $350 $353 $508 reversed $343 $-1 #
coedge $-1 $350 $494 $499 $618 forward $343 $-1 #
vertex $-1 $351 $622 #
straight-curve $-1 62.119099384290571 -35.207725057622092 36.056852406789396 0 0 1 I I #
straight-curve $-1 62.119099384290571 -35.207725057622071 3.0881626706830758 0 -0.49999998660252726 -0.86602541151947299 I I #
edge $-1 $616 42.310945711618295 $355 62.119099384290571 $503 $623 forward 7 unknown #
point $-1 62.119099384290571 -35.207725057622092 9.9800528544024623 #
point $-1 62.119099384290571 -31.228690546983696 9.9800528544024623 #
edge $-1 $624 1 $624 0 $358 $-1 forward 7 unknown #
vertex $-1 $359 $625 #
ellipse-curve $-1 47.970418189524651 -30.682968428485097 5.0703866799026898 0 -0.86602541151947299 0.49999998660252726 1.5 0 0 1 I I #
point $-1 49.470418189524651 -33.218207802302906 6.5341077625427699 #
edge $-1 $626 1 $626 0 $362 $-1 forward 7 unknown #
vertex $-1 $363 $627 #
ellipse-curve $-1 56.459626906384202 -30.682968428485097 5.0703866799026898 0 -0.86602541151947299 0.49999998660252726 1.5 0 0 1 I I #
point $-1 57.959626906384202 -33.218207802302906 6.5341077625427699 #
plane-surface $-1 0 0 9.9800528544024623 0 0 1 1 0 0 forward_v I I I I #
coedge $-1 $530 $529 $522 $628 forward $367 $-1 #
coedge $-1 $522 $369 $371 $526 reversed $237 $-1 #
coedge $-1 $369 $521 $520 $628 reversed $237 $-1 #
coedge $-1 $377 $372 $369 $524 forward $378 $-1 #
edge $-1 $527 -28.549185066111729 $629 -24.570150555473326 $523 $630 forward 7 unknown #
coedge $-1 $371 $370 $530 $631 reversed $149 $-1 #
edge $-1 $632 -70.415450115244255 $527 -62.457380880731407 $521 $633 forward 7 unknown #
vertex $-1 $373 $634 #
straight-curve $-1 -22.144796467420868 31.228690546983685 9.9800528544024658 1 0 0 I I #
coedge $-1 $520 $374 $377 $534 reversed $367 $-1 #
coedge $-1 $374 $520 $525 $631 forward $367 $-1 #
vertex $-1 $375 $635 #
straight-curve $-1 -54.193669771177873 35.207725057622092 66.547636988481031 0 0 1 I I #
straight-curve $-1 -54.193669771177873 9.4338903977586597e-007 64.069731834066346 0 0.49999998660252726 -0.86602541151947299 I I #
edge $-1 $629 34.385516098505597 $379 54.193669771177873 $529 $636 forward 7 unknown #
point $-1 -54.193669771177873 35.207725057622092 9.9800528544024623 #
point $-1 -54.193669771177873 31.228690546983689 9.9800528544024587 #
edge $-1 $637 1 $637 0 $382 $-1 forward 7 unknown #
vertex $-1 $383 $638 #
ellipse-curve $-1 -48.534197293271511 30.682968428485083 5.0703866799026933 0 0.86602541151947299 0.49999998660252726 1.5 0 0 1 I I #
point $-1 -47.034197293271511 33.218207802302892 6.5341077625427735 #
edge $-1 $639 1 $639 0 $386 $-1 forward 7 unknown #
vertex $-1 $387 $640 #
ellipse-curve $-1 -40.044988576411967 30.682968428485083 5.0703866799026933 0 0.86602541151947299 0.49999998660252726 1.5 0 0 1 I I #
point $-1 -38.544988576411967 33.218207802302892 6.5341077625427735 #
loop $-1 $-1 $398 $390 #
plane-surface $-1 0 35.207725057622092 0 0 -1 0 0 0 -1 forward_v I I I I #
coedge $-1 $548 $393 $395 $552 reversed $259 $-1 #
coedge $-1 $393 $547 $641 $642 reversed $259 $-1 #
coedge $-1 $401 $396 $393 $550 forward $391 $-1 #
edge $-1 $553 -28.549185066111729 $643 -24.570150555473326 $549 $644 forward 7 unknown #
coedge $-1 $395 $394 $556 $645 reversed $163 $-1 #
edge $-1 $646 -70.415450115244255 $553 -62.457380880731407 $547 $647 forward 7 unknown #
vertex $-1 $397 $648 #
straight-curve $-1 26.107511273977217 31.228690546983685 9.9800528544024658 1 0 0 I I #
coedge $-1 $641 $398 $401 $560 reversed $545 $-1 #
coedge $-1 $398 $641 $551 $645 forward $545 $-1 #
vertex $-1 $399 $649 #
straight-curve $-1 42.310945711618295 35.207725057622092 66.547636988481031 0 0 1 I I #
straight-curve $-1 42.310945711618295 9.4338903977586597e-007 64.069731834066346 0 0.49999998660252726 -0.86602541151947299 I I #
edge $-1 $643 -62.119099384290571 $402 -42.310945711618295 $555 $650 forward 7 unknown #
point $-1 42.310945711618295 35.207725057622092 9.9800528544024623 #
point $-1 42.310945711618295 31.228690546983689 9.9800528544024587 #
edge $-1 $651 1 $651 0 $405 $-1 forward 7 unknown #
vertex $-1 $406 $652 #
ellipse-curve $-1 47.970418189524651 30.682968428485083 5.0703866799026933 0 0.86602541151947299 0.49999998660252726 1.5 0 0 1 I I #
point $-1 49.470418189524651 33.218207802302892 6.5341077625427735 #
edge $-1 $653 1 $653 0 $409 $-1 forward 7 unknown #
vertex $-1 $410 $654 #
ellipse-curve $-1 56.459626906384202 30.682968428485083 5.0703866799026933 0 0.86602541151947299 0.49999998660252726 1.5 0 0 1 I I #
point $-1 57.959626906384202 33.218207802302892 6.5341077625427735 #
plane-surface $-1 69.025543992431409 0 0 -1 0 0 0 0 1 forward_v I I I I #
coedge $-1 $418 $416 $420 $576 reversed $281 $-1 #
edge $-1 $431 -9.9800528544024623 $578 9.9800528544024623 $430 $655 forward 7 unknown #
vertex $-1 $576 $656 #
straight-curve $-1 -69.025543992431409 -35.207725057622092 0 0 0 -1 I I #
edge $-1 $574 -35.207725057622092 $578 35.207725057622092 $572 $657 forward 7 unknown #
straight-curve $-1 0 -35.207725057622092 -9.9800528544024623 -1 0 0 I I #
vertex $-1 $423 $658 #
straight-curve $-1 0 35.207725057622092 -9.9800528544024623 1 0 0 I I #
point $-1 69.025543992431409 35.207725057622092 -9.9800528544024623 #
point $-1 69.025543992431409 -35.207725057622092 -9.9800528544024623 #
straight-curve $-1 -69.025543992431409 0 9.9800528544024623 0 -1 0 I I #
point $-1 -69.025543992431409 35.207725057622092 9.9800528544024623 #
point $-1 -69.025543992431409 -35.207725057622092 9.9800528544024623 #
straight-curve $-1 69.025543992431409 -35.207725057622092 0 0 0 -1 I I #
straight-curve $-1 69.025543992431409 35.207725057622092 0 0 0 -1 I I #
plane-surface $-1 -69.025543992431409 0 0 1 0 0 0 0 -1 forward_v I I I I #
edge $-1 $452 6.6755873913503709 $456 10.468476523583222 $455 $659 forward 7 unknown #
edge $-1 $460 -10.468476523583222 $451 -6.6755873913503709 $458 $660 forward 7 unknown #
straight-curve $-1 -61.100114379318732 -19.040508481050018 0 0 0 -1 I I #
edge $-1 $594 -9.9800528544024623 $592 9.9800528544024623 $462 $661 forward 7 unknown #
vertex $-1 $591 $662 #
straight-curve $-1 -32.531414592937537 -15.247619348817167 -9.9800528544024623 1 0 0 I I #
vertex $-1 $463 $663 #
straight-curve $-1 -32.531414592937537 -15.247619348817167 9.9800528544024623 -1 0 0 I I #
point $-1 -61.100114379318732 -15.247619348817167 9.9800528544024623 #
point $-1 -61.100114379318732 -15.247619348817167 -9.9800528544024623 #
point $-1 -61.100114379318732 -19.040508481050018 -9.9800528544024623 #
point $-1 -61.100114379318732 -19.040508481050018 9.9800528544024623 #
straight-curve $-1 -69.025543992431409 0 9.9800528544024623 0 -1 0 I I #
straight-curve $-1 -69.025543992431409 0 -9.9800528544024623 0 1 0 I I #
edge $-1 $603 26.076799552386934 $606 32.968689736106356 $468 $664 forward 7 unknown #
vertex $-1 $482 $665 #
straight-curve $-1 -54.193669771177873 -77.381737670211933 9.9800528544024623 0 -1 0 I I #
edge $-1 $606 -32.048873303757006 $479 -12.24071963108473 $478 $666 forward 7 unknown #
vertex $-1 $605 $667 #
straight-curve $-1 -54.193669771177873 -35.207725057622071 3.0881626706830758 0 0.49999998660252726 0.86602541151947299 I I #
point $-1 -54.193669771177873 -31.228690546983696 9.9800528544024623 #
point $-1 -34.385516098505597 -35.207725057622092 3.088162670683039 #
straight-curve $-1 0 -35.207725057622092 9.9800528544024623 1 0 0 I I #
vertex $-1 $485 $668 #
point $-1 -47.034197293271511 -30.682968428485097 5.0703866799026898 #
vertex $-1 $489 $669 #
point $-1 -38.544988576411967 -30.682968428485097 5.0703866799026898 #
edge $-1 $616 26.076799552386934 $619 32.968689736106356 $494 $670 forward 7 unknown #
vertex $-1 $508 $671 #
straight-curve $-1 42.310945711618295 -77.381737670211933 9.9800528544024623 0 -1 0 I I #
edge $-1 $619 16.203434437641079 $505 36.011588110313355 $504 $672 forward 7 unknown #
vertex $-1 $618 $673 #
straight-curve $-1 42.310945711618295 -35.207725057622071 3.0881626706830758 0 0.49999998660252726 0.86602541151947299 I I #
point $-1 42.310945711618295 -31.228690546983696 9.9800528544024623 #
point $-1 62.119099384290571 -35.207725057622092 3.088162670683039 #
straight-curve $-1 0 -35.207725057622092 9.9800528544024623 1 0 0 I I #
vertex $-1 $511 $674 #
point $-1 49.470418189524651 -30.682968428485097 5.0703866799026898 #
vertex $-1 $515 $675 #
point $-1 57.959626906384202 -30.682968428485097 5.0703866799026898 #
edge $-1 $629 56.567584134078572 $632 63.459474317798012 $520 $676 forward 7 unknown #
vertex $-1 $534 $677 #
straight-curve $-1 -34.385516098505597 59.777875613095418 9.9800528544024587 0 1 0 I I #
edge $-1 $632 12.24071963108473 $531 32.048873303757006 $530 $678 forward 7 unknown #
vertex $-1 $631 $679 #
straight-curve $-1 -34.385516098505597 9.4338903977586597e-007 64.069731834066346 0 -0.49999998660252726 0.86602541151947299 I I #
point $-1 -34.385516098505597 31.228690546983689 9.9800528544024587 #
point $-1 -54.193669771177873 35.207725057622092 3.088162670683019 #
straight-curve $-1 0 35.207725057622092 9.9800528544024623 -1 0 0 I I #
vertex $-1 $537 $680 #
point $-1 -47.034197293271511 30.682968428485083 5.0703866799026933 #
vertex $-1 $541 $681 #
point $-1 -38.544988576411967 30.682968428485083 5.0703866799026933 #
coedge $-1 $556 $555 $548 $642 forward $545 $-1 #
edge $-1 $643 56.567584134078572 $646 63.459474317798012 $641 $682 forward 7 unknown #
vertex $-1 $560 $683 #
straight-curve $-1 62.119099384290571 59.777875613095418 9.9800528544024587 0 1 0 I I #
edge $-1 $646 -36.011588110313355 $557 -16.203434437641079 $556 $684 forward 7 unknown #
vertex $-1 $645 $685 #
straight-curve $-1 62.119099384290571 9.4338903977586597e-007 64.069731834066346 0 -0.49999998660252726 0.86602541151947299 I I #
point $-1 62.119099384290571 31.228690546983689 9.9800528544024587 #
point $-1 42.310945711618295 35.207725057622092 3.088162670683019 #
straight-curve $-1 0 35.207725057622092 9.9800528544024623 -1 0 0 I I #
vertex $-1 $563 $686 #
point $-1 49.470418189524651 30.682968428485083 5.0703866799026933 #
vertex $-1 $567 $687 #
point $-1 57.959626906384202 30.682968428485083 5.0703866799026933 #
straight-curve $-1 -69.025543992431409 35.207725057622092 0 0 0 -1 I I #
point $-1 -69.025543992431409 -35.207725057622092 -9.9800528544024623 #
straight-curve $-1 -69.025543992431409 0 -9.9800528544024623 0 1 0 I I #
point $-1 -69.025543992431409 35.207725057622092 -9.9800528544024623 #
straight-curve $-1 -61.100114379318732 -8.5720319574667965 -9.9800528544024623 0 -1 0 I I #
straight-curve $-1 -61.100114379318732 -8.5720319574667965 9.9800528544024623 0 1 0 I I #
straight-curve $-1 -69.025543992431409 -15.247619348817167 0 0 0 -1 I I #
point $-1 -69.025543992431409 -15.247619348817167 -9.9800528544024623 #
point $-1 -69.025543992431409 -15.247619348817167 9.9800528544024623 #
straight-curve $-1 -54.193669771177873 -35.207725057622092 36.056852406789396 0 0 -1 I I #
point $-1 -54.193669771177873 -35.207725057622092 9.9800528544024623 #
straight-curve $-1 -22.144796467420868 -35.207725057622092 3.0881626706830403 1 0 0 I I #
point $-1 -54.193669771177873 -35.207725057622092 3.088162670683039 #
point $-1 -48.534197293271511 -29.383930311205887 4.3203866999988989 #
point $-1 -40.044988576411967 -29.383930311205887 4.3203866999988989 #
straight-curve $-1 42.310945711618295 -35.207725057622092 36.056852406789396 0 0 -1 I I #
point $-1 42.310945711618295 -35.207725057622092 9.9800528544024623 #
straight-curve $-1 26.107511273977217 -35.207725057622092 3.0881626706830403 1 0 0 I I #
point $-1 42.310945711618295 -35.207725057622092 3.088162670683039 #
point $-1 47.970418189524651 -29.383930311205887 4.3203866999988989 #
point $-1 56.459626906384202 -29.383930311205887 4.3203866999988989 #
straight-curve $-1 -34.385516098505597 35.207725057622092 66.547636988481031 0 0 -1 I I #
point $-1 -34.385516098505597 35.207725057622092 9.9800528544024623 #
straight-curve $-1 -22.144796467420868 35.207725057622092 3.088162670683019 -1 0 0 I I #
point $-1 -34.385516098505597 35.207725057622092 3.088162670683019 #
point $-1 -48.534197293271511 29.383930311205873 4.3203866999989025 #
point $-1 -40.044988576411967 29.383930311205873 4.3203866999989025 #
straight-curve $-1 62.119099384290571 35.207725057622092 66.547636988481031 0 0 -1 I I #
point $-1 62.119099384290571 35.207725057622092 9.9800528544024623 #
straight-curve $-1 26.107511273977217 35.207725057622092 3.088162670683019 -1 0 0 I I #
point $-1 62.119099384290571 35.207725057622092 3.088162670683019 #
point $-1 47.970418189524651 29.383930311205873 4.3203866999989025 #
point $-1 56.459626906384202 29.383930311205873 4.3203866999989025 #
End-of-ACIS-data 