500 0 7 0           
7 Unknown 11 ACIS 5.0 NT 24 Fri Mar 26 19:24:46 1999 
-1 9.9999999999999995e-007 1e-010 
body $-1 $7 $-1 $8 #
body $-1 $9 $-1 $10 #
body $-1 $11 $-1 $12 #
body $-1 $13 $-1 $14 #
body $-1 $15 $-1 $16 #
body $-1 $17 $-1 $18 #
body $-1 $19 $-1 $20 #
lump $-1 $-1 $21 $0 #
transform $-1 1 0 0 0 1 0 0 0 1 41.424604022339551 24.676634214095046 11.82658966942804 1 rotate no_reflect no_shear #
lump $-1 $-1 $22 $1 #
transform $-1 1 0 0 0 1 0 0 0 1 41.424604022339551 24.676634214095046 11.82658966942804 1 rotate no_reflect no_shear #
lump $-1 $-1 $23 $2 #
transform $-1 1 0 0 0 1 0 0 0 1 41.424604022339551 24.676634214095046 11.82658966942804 1 rotate no_reflect no_shear #
lump $-1 $-1 $24 $3 #
transform $-1 1 0 0 0 1 0 0 0 1 41.424604022339551 24.676634214095046 11.82658966942804 1 rotate no_reflect no_shear #
lump $-1 $-1 $25 $4 #
transform $-1 1 0 0 0 1 0 0 0 1 41.424604022339551 24.676634214095046 11.82658966942804 1 rotate no_reflect no_shear #
lump $-1 $-1 $26 $5 #
transform $-1 1 0 0 0 1 0 0 0 1 41.424604022339551 24.676634214095046 11.82658966942804 1 rotate no_reflect no_shear #
lump $-1 $-1 $27 $6 #
transform $-1 1 0 0 0 1 0 0 0 1 41.424604022339551 24.676634214095046 11.82658966942804 1 rotate no_reflect no_shear #
shell $-1 $-1 $-1 $28 $-1 $7 #
shell $-1 $-1 $-1 $29 $-1 $9 #
shell $-1 $-1 $-1 $30 $-1 $11 #
shell $-1 $-1 $-1 $31 $-1 $13 #
shell $-1 $-1 $-1 $32 $-1 $15 #
shell $-1 $-1 $-1 $33 $-1 $17 #
shell $-1 $-1 $-1 $34 $-1 $19 #
face $-1 $35 $36 $21 $-1 $37 forward single #
face $-1 $38 $39 $22 $-1 $40 forward single #
face $-1 $41 $42 $23 $-1 $43 forward single #
face $-1 $44 $45 $24 $-1 $46 reversed single #
face $-1 $47 $48 $25 $-1 $49 forward single #
face $-1 $50 $51 $26 $-1 $52 reversed single #
face $-1 $53 $54 $27 $-1 $55 forward single #
face $-1 $56 $57 $21 $-1 $58 reversed single #
loop $-1 $-1 $59 $28 #
plane-surface $-1 0 0 11.82658966942804 0 0 1 1 0 0 forward_v I I I I #
face $-1 $60 $61 $22 $-1 $62 reversed single #
loop $-1 $-1 $63 $29 #
plane-surface $-1 -36.546939755027999 0 -2.5285591811072421 0 0 1 1 0 0 forward_v I I I I #
face $-1 $64 $65 $23 $-1 $66 reversed single #
loop $-1 $-1 $67 $30 #
plane-surface $-1 41.424604022339551 0 0 -1 0 0 0 0 1 forward_v I I I I #
face $-1 $68 $69 $24 $-1 $70 reversed single #
loop $-1 $-1 $71 $31 #
plane-surface $-1 18.027901896163144 -71.005324012970306 75.758337876481008 1 0 0 0 0.55919291073839883 -0.82903756765294845 forward_v I I I I #
face $-1 $72 $73 $25 $-1 $74 forward single #
loop $-1 $75 $76 $32 #
cone-surface $-1 25.420420742813079 -20.115082358870012 7.9110412964392109 0 0.55919291073839883 -0.82903756765294845 1 0 0 1 I I 0 1 1 forward I I I I #
face $-1 $77 $78 $26 $-1 $79 reversed single #
loop $-1 $-1 $80 $33 #
plane-surface $-1 18.027901896163144 30.089610399540547 103.35633570329415 1 0 0 0 -0.55919291073839883 -0.82903756765294845 forward_v I I I I #
face $-1 $81 $82 $27 $-1 $83 forward single #
loop $-1 $84 $85 $34 #
cone-surface $-1 25.420420742813079 20.115082358870016 7.9110412964392109 0 -0.55919291073839883 -0.82903756765294845 1 0 0 1 I I 0 1 1 forward I I I I #
face $-1 $86 $87 $21 $-1 $88 reversed single #
loop $-1 $-1 $89 $35 #
plane-surface $-1 0 0 -11.82658966942804 0 0 1 1 0 0 forward_v I I I I #
coedge $-1 $90 $91 $92 $93 forward $36 $-1 #
face $-1 $94 $95 $22 $-1 $96 reversed single #
loop $-1 $-1 $97 $38 #
plane-surface $-1 -36.546939755027999 0 -7.29723705916801 0 0 1 1 0 0 forward_v I I I I #
coedge $-1 $98 $99 $100 $101 forward $39 $-1 #
face $-1 $102 $103 $23 $-1 $104 reversed single #
loop $-1 $-1 $105 $41 #
plane-surface $-1 0 -24.676634214095046 0 0 1 0 0 0 1 forward_v I I I I #
coedge $-1 $106 $107 $108 $109 forward $42 $-1 #
face $-1 $110 $111 $24 $-1 $112 reversed single #
loop $-1 $-1 $113 $44 #
plane-surface $-1 25.420420742813079 -24.676634214095031 7.0732319571471578 0 -0.55919291073839883 0.82903756765294845 1 0 0 forward_v I I I I #
coedge $-1 $114 $115 $116 $117 reversed $45 $-1 #
face $-1 $-1 $118 $25 $-1 $119 forward single #
loop $-1 $120 $121 $47 #
cone-surface $-1 25.420420742813079 -18.797505288449504 5.9576529957643398 0 0.55919291073839883 -0.82903756765294845 0.5 0 0 1 I I -0.70710678118654746 0.70710678118654746 0.5 forward I I I I #
loop $-1 $-1 $122 $32 #
coedge $-1 $76 $76 $123 $124 reversed $48 $-1 #
face $-1 $125 $126 $26 $-1 $127 reversed single #
loop $-1 $-1 $128 $50 #
plane-surface $-1 25.420420742813079 -16.239079399334727 34.6712297839603 0 0.55919291073839883 0.82903756765294845 1 0 0 forward_v I I I I #
coedge $-1 $129 $130 $131 $132 reversed $51 $-1 #
face $-1 $-1 $133 $27 $-1 $134 forward single #
loop $-1 $135 $136 $53 #
cone-surface $-1 25.420420742813079 18.797505288449507 5.9576529957643398 0 -0.55919291073839883 -0.82903756765294845 0.5 0 0 1 I I -0.70710678118654746 0.70710678118654746 0.5 forward I I I I #
loop $-1 $-1 $137 $34 #
coedge $-1 $85 $85 $138 $139 reversed $54 $-1 #
face $-1 $140 $141 $21 $-1 $142 reversed single #
loop $-1 $-1 $143 $56 #
plane-surface $-1 0 -24.676634214095046 0 0 1 0 0 0 1 forward_v I I I I #
coedge $-1 $144 $145 $146 $147 forward $57 $-1 #
coedge $-1 $148 $59 $149 $150 forward $36 $-1 #
coedge $-1 $59 $148 $151 $152 forward $36 $-1 #
coedge $-1 $153 $154 $59 $93 reversed $155 $-1 #
edge $-1 $156 -24.676634214095046 $157 24.676634214095046 $92 $158 forward 7 unknown #
face $-1 $159 $160 $22 $-1 $161 reversed single #
loop $-1 $-1 $162 $60 #
plane-surface $-1 -31.669275487716448 0 -4.9128981201376263 -1 0 0 0 0 1 forward_v I I I I #
coedge $-1 $163 $164 $165 $166 forward $61 $-1 #
coedge $-1 $167 $63 $168 $169 reversed $39 $-1 #
coedge $-1 $63 $167 $170 $171 reversed $39 $-1 #
coedge $-1 $162 $172 $63 $101 reversed $95 $-1 #
edge $-1 $173 -24.676634214095046 $174 24.676634214095046 $100 $175 forward 7 unknown #
face $-1 $176 $177 $23 $-1 $178 reversed single #
loop $-1 $-1 $179 $64 #
plane-surface $-1 0 0 -11.82658966942804 0 0 1 1 0 0 forward_v I I I I #
coedge $-1 $180 $181 $182 $183 forward $65 $-1 #
coedge $-1 $182 $67 $179 $184 reversed $42 $-1 #
coedge $-1 $67 $182 $185 $186 reversed $42 $-1 #
coedge $-1 $187 $188 $67 $109 reversed $177 $-1 #
edge $-1 $189 -11.82658966942804 $190 11.82658966942804 $108 $191 forward 7 unknown #
face $-1 $192 $193 $24 $-1 $194 reversed single #
loop $-1 $-1 $195 $68 #
plane-surface $-1 32.812939589463014 -71.005324012970306 75.758337876481008 -1 0 0 0 -0.55919291073839883 0.82903756765294845 forward_v I I I I #
coedge $-1 $196 $197 $198 $199 reversed $69 $-1 #
coedge $-1 $115 $71 $200 $201 reversed $45 $-1 #
coedge $-1 $71 $114 $196 $202 reversed $45 $-1 #
coedge $-1 $198 $203 $71 $117 forward $193 $-1 #
edge $-1 $204 26.052579268812465 $205 30.805936981093357 $116 $206 forward 7 unknown #
loop $-1 $-1 $123 $72 #
plane-surface $-1 25.420420742813079 -24.676634214095031 7.0732319571471578 0 -0.55919291073839883 0.82903756765294845 1 0 0 forward_v I I I I #
loop $-1 $-1 $207 $47 #
coedge $-1 $121 $121 $122 $208 reversed $73 $-1 #
coedge $-1 $122 $122 $121 $208 forward $75 $-1 #
coedge $-1 $123 $123 $76 $124 forward $118 $-1 #
edge $-1 $209 1.385813910509611e-016 $209 6.2831853071796004 $123 $210 forward 7 unknown #
face $-1 $211 $212 $26 $-1 $213 reversed single #
loop $-1 $-1 $214 $77 #
plane-surface $-1 32.812939589463014 30.089610399540547 103.35633570329415 -1 0 0 0 0.55919291073839883 0.82903756765294845 forward_v I I I I #
coedge $-1 $215 $216 $217 $218 reversed $78 $-1 #
coedge $-1 $130 $80 $219 $220 reversed $51 $-1 #
coedge $-1 $80 $129 $215 $221 reversed $51 $-1 #
coedge $-1 $217 $222 $80 $132 forward $223 $-1 #
edge $-1 $224 -9.6318290143247722 $225 -2.5846865339772975 $131 $226 forward 7 unknown #
loop $-1 $-1 $138 $81 #
plane-surface $-1 25.420420742813079 -16.239079399334727 34.6712297839603 0 0.55919291073839883 0.82903756765294845 1 0 0 forward_v I I I I #
loop $-1 $-1 $227 $53 #
coedge $-1 $136 $136 $137 $228 reversed $82 $-1 #
coedge $-1 $137 $137 $136 $228 forward $84 $-1 #
coedge $-1 $138 $138 $85 $139 forward $133 $-1 #
edge $-1 $229 8.8939010824606818e-016 $229 6.2831853071796013 $138 $230 forward 7 unknown #
face $-1 $231 $232 $21 $-1 $233 reversed single #
loop $-1 $-1 $234 $86 #
plane-surface $-1 -41.424604022339551 0 0 1 0 0 0 0 -1 forward_v I I I I #
coedge $-1 $235 $151 $236 $237 forward $87 $-1 #
coedge $-1 $238 $89 $235 $239 forward $57 $-1 #
coedge $-1 $89 $238 $240 $241 forward $57 $-1 #
coedge $-1 $154 $153 $89 $147 reversed $155 $-1 #
edge $-1 $242 -24.676634214095046 $243 24.676634214095046 $146 $244 forward 7 unknown #
coedge $-1 $91 $90 $245 $246 forward $36 $-1 #
coedge $-1 $247 $248 $90 $150 reversed $232 $-1 #
edge $-1 $157 -41.424604022339551 $249 41.424604022339551 $149 $250 forward 7 unknown #
coedge $-1 $143 $251 $91 $152 reversed $87 $-1 #
edge $-1 $252 -41.424604022339551 $156 41.424604022339551 $151 $253 forward 7 unknown #
coedge $-1 $146 $92 $251 $254 forward $155 $-1 #
coedge $-1 $92 $146 $247 $255 reversed $155 $-1 #
loop $-1 $-1 $153 $231 #
vertex $-1 $93 $256 #
vertex $-1 $93 $257 #
straight-curve $-1 41.424604022339551 0 11.82658966942804 0 1 0 I I #
face $-1 $258 $259 $22 $-1 $260 reversed single #
loop $-1 $-1 $261 $94 #
plane-surface $-1 0 -24.676634214095046 0 0 1 0 0 0 1 forward_v I I I I #
coedge $-1 $165 $100 $262 $263 reversed $95 $-1 #
coedge $-1 $264 $97 $261 $265 reversed $61 $-1 #
coedge $-1 $97 $264 $266 $267 reversed $61 $-1 #
coedge $-1 $172 $162 $97 $166 reversed $95 $-1 #
edge $-1 $268 -24.676634214095046 $269 24.676634214095046 $165 $270 forward 7 unknown #
coedge $-1 $99 $98 $271 $272 reversed $39 $-1 #
coedge $-1 $273 $274 $98 $169 forward $275 $-1 #
edge $-1 $276 -23.151134144825551 $174 -13.395805610202448 $168 $277 forward 7 unknown #
coedge $-1 $278 $262 $99 $171 forward $160 $-1 #
edge $-1 $173 13.395805610202448 $279 23.151134144825551 $170 $280 forward 7 unknown #
coedge $-1 $100 $165 $273 $281 reversed $95 $-1 #
vertex $-1 $171 $282 #
vertex $-1 $169 $283 #
straight-curve $-1 -31.669275487716448 0 -2.5285591811072421 0 1 0 I I #
face $-1 $284 $285 $23 $-1 $286 reversed single #
loop $-1 $-1 $287 $102 #
plane-surface $-1 45.730436238777813 -21.107398542810706 0 0 -1 0 0 0 -1 forward_v I I I I #
coedge $-1 $288 $289 $106 $184 forward $103 $-1 #
coedge $-1 $290 $105 $289 $291 reversed $65 $-1 #
coedge $-1 $105 $290 $292 $293 reversed $65 $-1 #
coedge $-1 $107 $106 $105 $183 reversed $42 $-1 #
edge $-1 $294 -11.82658966942804 $295 11.82658966942804 $105 $296 forward 7 unknown #
edge $-1 $295 -24.676634214095046 $190 -21.107398542810706 $179 $297 forward 7 unknown #
coedge $-1 $292 $298 $107 $186 forward $299 $-1 #
edge $-1 $189 21.107398542810706 $294 24.676634214095046 $185 $300 forward 7 unknown #
coedge $-1 $287 $108 $298 $301 reversed $177 $-1 #
coedge $-1 $108 $287 $288 $302 reversed $177 $-1 #
vertex $-1 $186 $303 #
vertex $-1 $302 $304 #
straight-curve $-1 41.424604022339551 -21.107398542810706 0 0 0 -1 I I #
face $-1 $-1 $305 $24 $-1 $306 forward single #
loop $-1 $-1 $116 $110 #
plane-surface $-1 0 -24.676634214095046 0 0 1 0 0 0 1 forward_v I I I I #
coedge $-1 $307 $308 $309 $310 reversed $111 $-1 #
coedge $-1 $311 $113 $115 $202 forward $69 $-1 #
coedge $-1 $113 $311 $307 $312 forward $69 $-1 #
coedge $-1 $309 $116 $113 $199 forward $193 $-1 #
edge $-1 $205 5.3176915247566043 $313 20.102729218056474 $198 $314 forward 7 unknown #
coedge $-1 $315 $316 $114 $201 forward $305 $-1 #
edge $-1 $317 -17.8731702727376 $204 -10.826027792390107 $200 $318 forward 7 unknown #
edge $-1 $205 -1.7244626260799089e-014 $317 8.500389795722203 $115 $319 forward 7 unknown #
coedge $-1 $116 $309 $315 $320 reversed $193 $-1 #
vertex $-1 $320 $321 #
vertex $-1 $117 $322 #
straight-curve $-1 18.027901896163144 -24.676634214095046 37.879168938240504 0 0 -1 I I #
coedge $-1 $207 $207 $-1 $323 reversed $120 $-1 #
edge $-1 $324 0 $324 6.2831853071796004 $121 $325 forward 7 unknown #
vertex $-1 $124 $326 #
ellipse-curve $-1 25.420420742813079 -21.153062973921308 9.4499108132875875 0 -0.55919291073839883 0.82903756765294845 1 0 0 1 I I #
face $-1 $-1 $223 $26 $-1 $327 forward single #
loop $-1 $-1 $328 $125 #
plane-surface $-1 0 24.676634214095046 0 0 -1 0 0 0 -1 forward_v I I I I #
coedge $-1 $329 $330 $331 $332 reversed $126 $-1 #
coedge $-1 $333 $128 $130 $221 forward $78 $-1 #
coedge $-1 $128 $333 $329 $334 forward $78 $-1 #
coedge $-1 $331 $131 $128 $218 forward $223 $-1 #
edge $-1 $225 5.3176915247566043 $335 20.102729218056474 $217 $336 forward 7 unknown #
coedge $-1 $337 $338 $129 $220 forward $212 $-1 #
edge $-1 $339 -44.604935894499917 $224 -39.851578182219036 $219 $340 forward 7 unknown #
edge $-1 $225 40.852878632467892 $339 49.353268428190091 $130 $341 forward 7 unknown #
coedge $-1 $131 $331 $337 $342 forward $223 $-1 #
loop $-1 $-1 $331 $211 #
vertex $-1 $220 $343 #
vertex $-1 $132 $344 #
straight-curve $-1 18.027901896163144 15.044805199770273 11.826589669428039 0 -1 0 I I #
coedge $-1 $227 $227 $-1 $345 reversed $135 $-1 #
edge $-1 $346 0 $346 6.2831853071796004 $136 $347 forward 7 unknown #
vertex $-1 $139 $348 #
ellipse-curve $-1 25.420420742813079 21.153062973921315 9.4499108132875946 0 0.55919291073839883 0.82903756765294845 1 0 0 1 I I #
face $-1 $-1 $155 $21 $-1 $349 reversed single #
loop $-1 $-1 $247 $140 #
plane-surface $-1 0 24.676634214095046 0 0 -1 0 0 0 -1 forward_v I I I I #
coedge $-1 $350 $245 $248 $351 forward $141 $-1 #
coedge $-1 $251 $143 $144 $239 reversed $87 $-1 #
coedge $-1 $245 $350 $143 $237 reversed $141 $-1 #
edge $-1 $252 -11.82658966942804 $352 11.82658966942804 $236 $353 forward 7 unknown #
coedge $-1 $145 $144 $350 $354 forward $57 $-1 #
edge $-1 $243 -41.424604022339551 $352 41.424604022339551 $235 $355 forward 7 unknown #
coedge $-1 $248 $247 $145 $241 reversed $232 $-1 #
edge $-1 $356 -41.424604022339551 $242 41.424604022339551 $240 $357 forward 7 unknown #
vertex $-1 $147 $358 #
vertex $-1 $254 $359 #
straight-curve $-1 41.424604022339551 0 -11.82658966942804 0 -1 0 I I #
coedge $-1 $234 $236 $148 $246 reversed $141 $-1 #
edge $-1 $249 -24.676634214095046 $252 24.676634214095046 $245 $360 forward 7 unknown #
coedge $-1 $240 $149 $154 $255 forward $232 $-1 #
coedge $-1 $149 $240 $234 $351 reversed $232 $-1 #
vertex $-1 $150 $361 #
straight-curve $-1 0 24.676634214095046 11.82658966942804 -1 0 0 I I #
coedge $-1 $151 $235 $153 $254 reversed $87 $-1 #
vertex $-1 $246 $362 #
straight-curve $-1 0 -24.676634214095046 11.82658966942804 1 0 0 I I #
edge $-1 $156 -11.82658966942804 $243 11.82658966942804 $153 $363 forward 7 unknown #
edge $-1 $157 -11.82658966942804 $242 11.82658966942804 $154 $364 forward 7 unknown #
point $-1 41.424604022339551 -24.676634214095046 11.82658966942804 #
point $-1 41.424604022339551 24.676634214095046 11.82658966942804 #
face $-1 $-1 $275 $22 $-1 $365 reversed single #
loop $-1 $-1 $366 $159 #
plane-surface $-1 -41.424604022339551 0 0 1 0 0 0 0 -1 forward_v I I I I #
coedge $-1 $262 $278 $163 $265 forward $160 $-1 #
coedge $-1 $170 $261 $162 $263 forward $160 $-1 #
edge $-1 $269 -4.8407879990991969 $173 -0.072110121038428954 $262 $367 forward 7 unknown #
coedge $-1 $164 $163 $366 $368 reversed $61 $-1 #
edge $-1 $369 -23.151134144825551 $269 -13.395805610202448 $261 $370 forward 7 unknown #
coedge $-1 $274 $273 $164 $267 forward $275 $-1 #
edge $-1 $268 13.395805610202448 $371 23.151134144825551 $266 $372 forward 7 unknown #
vertex $-1 $267 $373 #
vertex $-1 $265 $374 #
straight-curve $-1 -31.669275487716448 0 -7.29723705916801 0 -1 0 I I #
coedge $-1 $375 $376 $167 $272 forward $259 $-1 #
edge $-1 $279 -24.676634214095046 $276 24.676634214095046 $271 $377 forward 7 unknown #
coedge $-1 $266 $168 $172 $281 forward $275 $-1 #
coedge $-1 $168 $266 $375 $378 reversed $275 $-1 #
loop $-1 $-1 $266 $258 #
vertex $-1 $378 $379 #
straight-curve $-1 -18.273469877514 24.676634214095046 -2.5285591811072421 1 0 0 I I #
coedge $-1 $261 $170 $376 $380 forward $160 $-1 #
vertex $-1 $380 $381 #
straight-curve $-1 -18.273469877514 -24.676634214095046 -2.5285591811072421 -1 0 0 I I #
edge $-1 $174 0.072110121038428954 $268 4.8407879990991969 $273 $382 forward 7 unknown #
point $-1 -31.669275487716448 -24.676634214095046 -2.5285591811072421 #
point $-1 -31.669275487716448 24.676634214095046 -2.5285591811072421 #
face $-1 $-1 $299 $23 $-1 $383 forward single #
loop $-1 $-1 $384 $176 #
plane-surface $-1 50.036268455216081 -22.892016378452876 0 -1 0 0 0 0 1 forward_v I I I I #
coedge $-1 $188 $187 $385 $386 forward $177 $-1 #
coedge $-1 $387 $179 $188 $302 forward $103 $-1 #
coedge $-1 $179 $387 $180 $291 forward $103 $-1 #
coedge $-1 $181 $180 $384 $388 reversed $65 $-1 #
edge $-1 $389 -4.3058322164382687 $295 4.3058322164382616 $180 $390 forward 7 unknown #
coedge $-1 $391 $185 $181 $293 forward $299 $-1 #
edge $-1 $294 -4.3058322164382616 $392 4.3058322164382687 $181 $393 forward 7 unknown #
vertex $-1 $293 $394 #
vertex $-1 $184 $395 #
straight-curve $-1 41.424604022339551 -24.676634214095046 0 0 0 -1 I I #
straight-curve $-1 41.424604022339551 0 -11.82658966942804 0 1 0 I I #
coedge $-1 $185 $391 $187 $301 forward $299 $-1 #
loop $-1 $-1 $185 $284 #
straight-curve $-1 41.424604022339551 0 11.82658966942804 0 -1 0 I I #
edge $-1 $396 -4.3058322164382687 $189 4.3058322164382687 $187 $397 forward 7 unknown #
edge $-1 $190 -4.3058322164382687 $398 4.3058322164382687 $188 $399 forward 7 unknown #
point $-1 41.424604022339544 -21.107398542810706 11.82658966942804 #
point $-1 41.424604022339544 -21.107398542810706 -11.82658966942804 #
loop $-1 $-1 $200 $192 #
plane-surface $-1 0 0 11.82658966942804 0 0 1 1 0 0 forward_v I I I I #
coedge $-1 $308 $195 $197 $312 reversed $111 $-1 #
coedge $-1 $195 $307 $400 $401 reversed $111 $-1 #
coedge $-1 $203 $198 $195 $310 forward $193 $-1 #
edge $-1 $313 -30.805936981093357 $402 -26.052579268812465 $309 $403 forward 7 unknown #
coedge $-1 $197 $196 $316 $404 reversed $69 $-1 #
edge $-1 $405 -8.500389795722203 $313 1.7244626260799089e-014 $307 $406 forward 7 unknown #
vertex $-1 $199 $407 #
straight-curve $-1 12.710210371406539 -24.676634214095046 7.0732319571471489 1 0 0 I I #
coedge $-1 $400 $200 $203 $320 forward $305 $-1 #
coedge $-1 $200 $400 $311 $404 forward $305 $-1 #
vertex $-1 $201 $408 #
straight-curve $-1 18.027901896163144 -35.502662006485153 11.826589669428039 0 -1 0 I I #
straight-curve $-1 18.027901896163144 -24.676634214095031 7.0732319571471578 0 0.82903756765294845 0.55919291073839883 I I #
edge $-1 $204 -27.702534342614669 $402 -12.917496649314799 $203 $409 forward 7 unknown #
point $-1 18.027901896163144 -24.676634214095046 11.82658966942804 #
point $-1 18.027901896163144 -24.676634214095046 7.073231957147148 #
edge $-1 $410 1 $410 0 $207 $-1 forward 7 unknown #
vertex $-1 $208 $411 #
ellipse-curve $-1 25.420420742813079 -19.077101743818702 6.3721717795908139 0 -0.55919291073839883 0.82903756765294845 1 0 0 1 I I #
point $-1 26.420420742813079 -21.153062973921323 9.4499108132876088 #
plane-surface $-1 0 0 11.82658966942804 0 0 1 1 0 0 forward_v I I I I #
coedge $-1 $338 $337 $330 $412 forward $212 $-1 #
coedge $-1 $330 $214 $216 $334 reversed $126 $-1 #
coedge $-1 $214 $329 $328 $412 reversed $126 $-1 #
coedge $-1 $222 $217 $214 $332 forward $223 $-1 #
edge $-1 $335 2.5846865339772975 $413 9.6318290143247722 $331 $414 forward 7 unknown #
coedge $-1 $216 $215 $338 $415 reversed $78 $-1 #
edge $-1 $416 -49.353268428190091 $335 -40.852878632467892 $329 $417 forward 7 unknown #
vertex $-1 $218 $418 #
straight-curve $-1 12.710210371406539 17.629491733747571 11.826589669428039 1 0 0 I I #
coedge $-1 $328 $219 $222 $342 reversed $212 $-1 #
coedge $-1 $219 $328 $333 $415 forward $212 $-1 #
vertex $-1 $220 $419 #
straight-curve $-1 18.027901896163144 24.676634214095046 51.678167851647075 0 0 1 I I #
straight-curve $-1 18.027901896163144 -16.239079399334727 34.6712297839603 0 0.82903756765294845 -0.55919291073839883 I I #
edge $-1 $413 -32.812939589463014 $224 -18.027901896163144 $337 $420 forward 7 unknown #
point $-1 18.027901896163144 24.676634214095046 11.82658966942804 #
point $-1 18.027901896163144 17.629491733747571 11.826589669428039 #
edge $-1 $421 1 $421 0 $227 $-1 forward 7 unknown #
vertex $-1 $228 $422 #
ellipse-curve $-1 25.420420742813079 19.077101743818705 6.3721717795908139 0 0.55919291073839883 0.82903756765294845 1 0 0 1 I I #
point $-1 26.420420742813079 21.153062973921326 9.4499108132876088 #
plane-surface $-1 41.424604022339551 0 0 -1 0 0 0 0 1 forward_v I I I I #
coedge $-1 $236 $234 $238 $354 reversed $141 $-1 #
edge $-1 $249 -11.82658966942804 $356 11.82658966942804 $248 $423 forward 7 unknown #
vertex $-1 $354 $424 #
straight-curve $-1 -41.424604022339551 -24.676634214095046 0 0 0 -1 I I #
edge $-1 $352 -24.676634214095046 $356 24.676634214095046 $350 $425 forward 7 unknown #
straight-curve $-1 0 -24.676634214095046 -11.82658966942804 -1 0 0 I I #
vertex $-1 $241 $426 #
straight-curve $-1 0 24.676634214095046 -11.82658966942804 1 0 0 I I #
point $-1 41.424604022339551 24.676634214095046 -11.82658966942804 #
point $-1 41.424604022339551 -24.676634214095046 -11.82658966942804 #
straight-curve $-1 -41.424604022339551 0 11.82658966942804 0 -1 0 I I #
point $-1 -41.424604022339551 24.676634214095046 11.82658966942804 #
point $-1 -41.424604022339551 -24.676634214095046 11.82658966942804 #
straight-curve $-1 41.424604022339551 -24.676634214095046 0 0 0 -1 I I #
straight-curve $-1 41.424604022339551 24.676634214095046 0 0 0 -1 I I #
plane-surface $-1 0 24.676634214095046 0 0 -1 0 0 0 -1 forward_v I I I I #
coedge $-1 $376 $375 $264 $368 forward $259 $-1 #
straight-curve $-1 -31.669275487716448 -24.676634214095046 -2.4564490600688131 0 0 1 I I #
edge $-1 $371 -24.676634214095046 $369 24.676634214095046 $366 $427 forward 7 unknown #
vertex $-1 $265 $428 #
straight-curve $-1 -18.273469877514 -24.676634214095046 -7.29723705916801 1 0 0 I I #
vertex $-1 $267 $429 #
straight-curve $-1 -18.273469877514 24.676634214095046 -7.29723705916801 -1 0 0 I I #
point $-1 -31.669275487716448 24.676634214095046 -7.29723705916801 #
point $-1 -31.669275487716448 -24.676634214095046 -7.29723705916801 #
coedge $-1 $366 $271 $274 $378 forward $259 $-1 #
coedge $-1 $271 $366 $278 $380 reversed $259 $-1 #
straight-curve $-1 -41.424604022339551 0 -2.5285591811072421 0 1 0 I I #
edge $-1 $276 2.5285591811072421 $371 7.29723705916801 $274 $430 forward 7 unknown #
point $-1 -41.424604022339551 24.676634214095046 -2.5285591811072421 #
edge $-1 $279 2.5285591811072421 $369 7.29723705916801 $376 $431 forward 7 unknown #
point $-1 -41.424604022339551 -24.676634214095046 -2.5285591811072421 #
straight-curve $-1 -31.669275487716448 24.676634214095046 -2.4564490600688131 0 0 -1 I I #
plane-surface $-1 0 0 11.82658966942804 0 0 1 1 0 0 forward_v I I I I #
coedge $-1 $432 $433 $290 $388 forward $285 $-1 #
coedge $-1 $433 $432 $287 $386 reversed $285 $-1 #
edge $-1 $396 -11.82658966942804 $398 11.82658966942804 $385 $434 forward 7 unknown #
coedge $-1 $289 $288 $432 $435 forward $103 $-1 #
edge $-1 $392 -11.82658966942804 $389 11.82658966942804 $384 $436 forward 7 unknown #
vertex $-1 $388 $437 #
straight-curve $-1 45.730436238777813 -24.676634214095046 -11.82658966942804 -1 0 0 I I #
coedge $-1 $298 $292 $433 $438 forward $299 $-1 #
vertex $-1 $438 $439 #
straight-curve $-1 45.730436238777813 -24.676634214095046 11.82658966942804 1 0 0 I I #
point $-1 41.424604022339551 -24.676634214095046 11.82658966942804 #
point $-1 41.424604022339551 -24.676634214095046 -11.82658966942804 #
vertex $-1 $438 $440 #
straight-curve $-1 45.730436238777813 -21.107398542810706 11.82658966942804 -1 0 0 I I #
vertex $-1 $435 $441 #
straight-curve $-1 45.730436238777813 -21.107398542810706 -11.82658966942804 1 0 0 I I #
coedge $-1 $316 $315 $308 $401 forward $305 $-1 #
edge $-1 $402 10.826027792390107 $405 17.8731702727376 $400 $442 forward 7 unknown #
vertex $-1 $401 $443 #
straight-curve $-1 32.812939589463014 -24.676634214095046 37.879168938240504 0 0 1 I I #
edge $-1 $405 -20.102729218056474 $317 -5.3176915247566043 $316 $444 forward 7 unknown #
vertex $-1 $404 $445 #
straight-curve $-1 32.812939589463014 -24.676634214095031 7.0732319571471578 0 -0.82903756765294845 -0.55919291073839883 I I #
point $-1 32.812939589463014 -24.676634214095046 7.073231957147148 #
point $-1 18.027901896163144 -17.629491733747553 11.82658966942804 #
straight-curve $-1 45.730436238777813 -24.676634214095046 11.82658966942804 1 0 0 I I #
vertex $-1 $323 $446 #
point $-1 26.420420742813079 -19.077101743818702 6.3721717795908139 #
edge $-1 $413 39.851578182219036 $416 44.604935894499917 $328 $447 forward 7 unknown #
vertex $-1 $342 $448 #
straight-curve $-1 32.812939589463014 15.044805199770273 11.826589669428039 0 1 0 I I #
edge $-1 $416 -20.102729218056474 $339 -5.3176915247566043 $338 $449 forward 7 unknown #
vertex $-1 $415 $450 #
straight-curve $-1 32.812939589463014 -16.239079399334727 34.6712297839603 0 -0.82903756765294845 0.55919291073839883 I I #
point $-1 32.812939589463014 17.629491733747571 11.826589669428039 #
point $-1 18.027901896163144 24.676634214095046 7.0732319571471578 #
straight-curve $-1 0 24.676634214095046 11.82658966942804 -1 0 0 I I #
vertex $-1 $345 $451 #
point $-1 26.420420742813079 19.077101743818705 6.3721717795908139 #
straight-curve $-1 -41.424604022339551 24.676634214095046 0 0 0 -1 I I #
point $-1 -41.424604022339551 -24.676634214095046 -11.82658966942804 #
straight-curve $-1 -41.424604022339551 0 -11.82658966942804 0 1 0 I I #
point $-1 -41.424604022339551 24.676634214095046 -11.82658966942804 #
straight-curve $-1 -41.424604022339551 0 -7.29723705916801 0 -1 0 I I #
point $-1 -41.424604022339551 -24.676634214095046 -7.29723705916801 #
point $-1 -41.424604022339551 24.676634214095046 -7.29723705916801 #
straight-curve $-1 -41.424604022339551 24.676634214095046 0 0 0 -1 I I #
straight-curve $-1 -41.424604022339551 -24.676634214095046 0 0 0 -1 I I #
coedge $-1 $385 $384 $387 $435 reversed $285 $-1 #
coedge $-1 $384 $385 $391 $438 reversed $285 $-1 #
straight-curve $-1 50.036268455216081 -21.107398542810706 0 0 0 -1 I I #
edge $-1 $398 -1.7846178356421696 $389 1.7846178356421696 $432 $452 forward 7 unknown #
straight-curve $-1 50.036268455216081 -24.676634214095046 0 0 0 -1 I I #
point $-1 50.036268455216081 -24.676634214095046 -11.82658966942804 #
edge $-1 $392 -1.7846178356421696 $396 1.7846178356421696 $433 $453 forward 7 unknown #
point $-1 50.036268455216081 -24.676634214095046 11.82658966942804 #
point $-1 50.036268455216081 -21.107398542810706 11.82658966942804 #
point $-1 50.036268455216081 -21.107398542810706 -11.82658966942804 #
straight-curve $-1 32.812939589463014 -35.502662006485153 11.826589669428039 0 1 0 I I #
point $-1 32.812939589463014 -24.676634214095046 11.82658966942804 #
straight-curve $-1 12.710210371406539 -17.629491733747553 11.82658966942804 -1 0 0 I I #
point $-1 32.812939589463014 -17.629491733747553 11.82658966942804 #
point $-1 25.420420742813079 -18.517908833080305 5.5431342119378657 #
straight-curve $-1 32.812939589463014 24.676634214095046 51.678167851647075 0 0 -1 I I #
point $-1 32.812939589463014 24.676634214095046 11.82658966942804 #
straight-curve $-1 12.710210371406539 24.676634214095046 7.0732319571471578 -1 0 0 I I #
point $-1 32.812939589463014 24.676634214095046 7.0732319571471578 #
point $-1 25.420420742813079 18.517908833080309 5.5431342119378657 #
straight-curve $-1 50.036268455216081 -22.892016378452876 -11.82658966942804 0 -1 0 I I #
straight-curve $-1 50.036268455216081 -22.892016378452876 11.82658966942804 0 1 0 I I #
End-of-ACIS-data 