500 0 8 0           
7 Unknown 11 ACIS 5.0 NT 24 Fri Mar 26 03:13:37 1999 
-1 9.9999999999999995e-007 1e-010 
body $-1 $8 $-1 $9 #
body $-1 $10 $-1 $11 #
body $-1 $12 $-1 $13 #
body $-1 $14 $-1 $15 #
body $-1 $16 $-1 $17 #
body $-1 $18 $-1 $19 #
body $-1 $20 $-1 $21 #
body $-1 $22 $-1 $23 #
lump $-1 $-1 $24 $0 #
transform $-1 1 0 0 0 1 0 0 0 1 64.5478682821131 27.813675851791118 10.420685189199917 1 rotate no_reflect no_shear #
lump $-1 $-1 $25 $1 #
transform $-1 1 0 0 0 1 0 0 0 1 64.5478682821131 27.813675851791118 10.420685189199917 1 rotate no_reflect no_shear #
lump $-1 $-1 $26 $2 #
transform $-1 1 0 0 0 1 0 0 0 1 64.5478682821131 27.813675851791118 10.420685189199917 1 rotate no_reflect no_shear #
lump $-1 $-1 $27 $3 #
transform $-1 1 0 0 0 1 0 0 0 1 64.5478682821131 27.813675851791118 10.420685189199917 1 rotate no_reflect no_shear #
lump $-1 $-1 $28 $4 #
transform $-1 1 0 0 0 1 0 0 0 1 64.5478682821131 27.813675851791118 10.420685189199917 1 rotate no_reflect no_shear #
lump $-1 $-1 $29 $5 #
transform $-1 1 0 0 0 1 0 0 0 1 64.5478682821131 27.813675851791118 10.420685189199917 1 rotate no_reflect no_shear #
lump $-1 $-1 $30 $6 #
transform $-1 1 0 0 0 1 0 0 0 1 64.5478682821131 27.813675851791118 10.420685189199917 1 rotate no_reflect no_shear #
lump $-1 $-1 $31 $7 #
transform $-1 1 0 0 0 1 0 0 0 1 64.5478682821131 27.813675851791118 10.420685189199917 1 rotate no_reflect no_shear #
shell $-1 $-1 $-1 $32 $-1 $8 #
shell $-1 $-1 $-1 $33 $-1 $10 #
shell $-1 $-1 $-1 $34 $-1 $12 #
shell $-1 $-1 $-1 $35 $-1 $14 #
shell $-1 $-1 $-1 $36 $-1 $16 #
shell $-1 $-1 $-1 $37 $-1 $18 #
shell $-1 $-1 $-1 $38 $-1 $20 #
shell $-1 $-1 $-1 $39 $-1 $22 #
face $-1 $40 $41 $24 $-1 $42 forward single #
face $-1 $43 $44 $25 $-1 $45 forward single #
face $-1 $46 $47 $26 $-1 $48 reversed single #
face $-1 $49 $50 $27 $-1 $51 forward single #
face $-1 $52 $53 $28 $-1 $54 forward single #
face $-1 $55 $56 $29 $-1 $57 reversed single #
face $-1 $58 $59 $30 $-1 $60 forward single #
face $-1 $61 $62 $31 $-1 $63 forward single #
face $-1 $64 $65 $24 $-1 $66 reversed single #
loop $-1 $-1 $67 $32 #
plane-surface $-1 0 0 10.420685189199917 0 0 1 1 0 0 forward_v I I I I #
face $-1 $68 $69 $25 $-1 $70 reversed single #
loop $-1 $-1 $71 $33 #
plane-surface $-1 -64.5478682821131 0 0 1 0 0 0 0 -1 forward_v I I I I #
face $-1 $72 $73 $26 $-1 $74 reversed single #
loop $-1 $-1 $75 $34 #
plane-surface $-1 -48.229024234390621 103.73247331688475 123.62994599711145 1 0 0 0 -0.82903758062907751 -0.55919289150049634 forward_v I I I I #
face $-1 $76 $77 $27 $-1 $78 forward single #
loop $-1 $79 $80 $35 #
cone-surface $-1 -40.481501211175114 23.856867648318968 6.3626664793321419 0 -0.82903758062907751 -0.55919289150049634 1.5 0 0 1 I I 0 1 1.5 forward I I I I #
face $-1 $81 $82 $28 $-1 $83 forward single #
loop $-1 $84 $85 $36 #
cone-surface $-1 -28.86021667635184 23.856867648318968 6.3626664793321419 0 -0.82903758062907751 -0.55919289150049634 1.5 0 0 1 I I 0 1 1.5 forward I I I I #
face $-1 $86 $87 $29 $-1 $88 reversed single #
loop $-1 $-1 $89 $37 #
plane-surface $-1 -21.112693653136319 -134.83889296252596 77.512780923970851 -1 0 0 0 -0.82903758062907751 0.55919289150049634 forward_v I I I I #
face $-1 $90 $91 $30 $-1 $92 forward single #
loop $-1 $93 $94 $38 #
cone-surface $-1 -40.481501211175114 -23.856867648318968 6.3626664793321455 0 0.82903758062907751 -0.55919289150049634 1.5 0 0 1 I I 0 1 1.5 forward I I I I #
face $-1 $95 $96 $31 $-1 $97 forward single #
loop $-1 $98 $99 $39 #
cone-surface $-1 -28.86021667635184 -23.856867648318968 6.3626664793321455 0 0.82903758062907751 -0.55919289150049634 1.5 0 0 1 I I 0 1 1.5 forward I I I I #
face $-1 $100 $101 $24 $-1 $102 reversed single #
loop $-1 $-1 $103 $40 #
plane-surface $-1 0 0 -10.420685189199917 0 0 1 1 0 0 forward_v I I I I #
coedge $-1 $104 $105 $106 $107 forward $41 $-1 #
face $-1 $108 $109 $25 $-1 $110 forward single #
loop $-1 $-1 $111 $43 #
plane-surface $-1 0 27.813675851791118 0 0 -1 0 0 0 -1 forward_v I I I I #
coedge $-1 $112 $113 $114 $115 forward $44 $-1 #
face $-1 $116 $117 $26 $-1 $118 reversed single #
loop $-1 $-1 $119 $46 #
plane-surface $-1 -34.67085894376347 -3.2927437938500788 51.440527787375444 0 0.82903758062907751 0.55919289150049634 1 0 0 forward_v I I I I #
coedge $-1 $120 $121 $122 $123 reversed $47 $-1 #
face $-1 $-1 $124 $27 $-1 $125 forward single #
loop $-1 $126 $127 $49 #
cone-surface $-1 -40.481501211175114 20.997374917061371 4.433914338321534 0 -0.82903758062907751 -0.55919289150049634 0.75 0 0 1 I I -0.70710678118654757 0.70710678118654757 0.75 forward I I I I #
loop $-1 $-1 $128 $35 #
coedge $-1 $80 $80 $129 $130 reversed $50 $-1 #
face $-1 $-1 $131 $28 $-1 $132 forward single #
loop $-1 $133 $134 $52 #
cone-surface $-1 -28.86021667635184 20.997374917061371 4.433914338321534 0 -0.82903758062907751 -0.55919289150049634 0.75 0 0 1 I I -0.70710678118654757 0.70710678118654757 0.75 forward I I I I #
loop $-1 $-1 $135 $36 #
coedge $-1 $85 $85 $136 $137 reversed $53 $-1 #
face $-1 $138 $139 $29 $-1 $140 reversed single #
loop $-1 $-1 $141 $55 #
plane-surface $-1 -34.67085894376347 -27.813675851791132 5.3233627142348467 0 -0.82903758062907751 0.55919289150049634 1 0 0 forward_v I I I I #
coedge $-1 $142 $143 $144 $145 reversed $56 $-1 #
face $-1 $-1 $146 $30 $-1 $147 forward single #
loop $-1 $148 $149 $58 #
cone-surface $-1 -40.481501211175114 -20.997374917061371 4.4339143383215376 0 0.82903758062907751 -0.55919289150049634 0.75 0 0 1 I I -0.70710678118654757 0.70710678118654757 0.75 forward I I I I #
loop $-1 $-1 $150 $38 #
coedge $-1 $94 $94 $151 $152 reversed $59 $-1 #
face $-1 $-1 $153 $31 $-1 $154 forward single #
loop $-1 $155 $156 $61 #
cone-surface $-1 -28.86021667635184 -20.997374917061371 4.4339143383215376 0 0.82903758062907751 -0.55919289150049634 0.75 0 0 1 I I -0.70710678118654757 0.70710678118654757 0.75 forward I I I I #
loop $-1 $-1 $157 $39 #
coedge $-1 $99 $99 $158 $159 reversed $62 $-1 #
face $-1 $160 $161 $24 $-1 $162 reversed single #
loop $-1 $-1 $163 $64 #
plane-surface $-1 0 -27.813675851791118 0 0 1 0 0 0 1 forward_v I I I I #
coedge $-1 $164 $165 $166 $167 forward $65 $-1 #
coedge $-1 $168 $67 $169 $170 forward $41 $-1 #
coedge $-1 $67 $168 $171 $172 forward $41 $-1 #
coedge $-1 $173 $174 $67 $107 reversed $175 $-1 #
edge $-1 $176 -27.813675851791118 $177 27.813675851791118 $106 $178 forward 7 unknown #
face $-1 $179 $180 $25 $-1 $181 reversed single #
loop $-1 $-1 $114 $68 #
plane-surface $-1 -68.265645772668975 0 -5.6015373137693363 0 0 1 1 0 0 forward_v I I I I #
coedge $-1 $182 $183 $113 $184 forward $69 $-1 #
coedge $-1 $185 $71 $186 $187 reversed $44 $-1 #
coedge $-1 $71 $185 $111 $184 reversed $44 $-1 #
coedge $-1 $188 $189 $71 $115 reversed $109 $-1 #
edge $-1 $190 -27.813675851791118 $191 27.813675851791118 $114 $192 forward 7 unknown #
face $-1 $193 $194 $26 $-1 $195 forward single #
loop $-1 $-1 $196 $72 #
plane-surface $-1 -21.112693653136319 103.73247331688475 123.62994599711145 -1 0 0 0 0.82903758062907751 0.55919289150049634 forward_v I I I I #
coedge $-1 $197 $198 $199 $200 reversed $73 $-1 #
coedge $-1 $121 $75 $201 $202 reversed $47 $-1 #
coedge $-1 $75 $120 $197 $203 reversed $47 $-1 #
coedge $-1 $199 $204 $75 $123 forward $194 $-1 #
edge $-1 $205 24.052560806651258 $206 27.490748122023973 $122 $207 forward 7 unknown #
loop $-1 $-1 $129 $76 #
plane-surface $-1 -34.67085894376347 -3.2927437938500788 51.440527787375444 0 0.82903758062907751 0.55919289150049634 1 0 0 forward_v I I I I #
loop $-1 $-1 $208 $49 #
coedge $-1 $127 $127 $128 $209 reversed $77 $-1 #
coedge $-1 $128 $128 $127 $209 forward $79 $-1 #
coedge $-1 $129 $129 $80 $130 forward $124 $-1 #
edge $-1 $210 1.6208983297927182e-015 $210 6.2831853071796022 $129 $211 forward 7 unknown #
loop $-1 $-1 $136 $81 #
plane-surface $-1 -34.67085894376347 -3.2927437938500788 51.440527787375444 0 0.82903758062907751 0.55919289150049634 1 0 0 forward_v I I I I #
loop $-1 $-1 $212 $52 #
coedge $-1 $134 $134 $135 $213 reversed $82 $-1 #
coedge $-1 $135 $135 $134 $213 forward $84 $-1 #
coedge $-1 $136 $136 $85 $137 forward $131 $-1 #
edge $-1 $214 1.6208983297927182e-015 $214 6.2831853071796022 $136 $215 forward 7 unknown #
face $-1 $216 $217 $29 $-1 $218 reversed single #
loop $-1 $-1 $219 $86 #
plane-surface $-1 -48.229024234390621 -134.83889296252596 77.512780923970851 1 0 0 0 0.82903758062907751 -0.55919289150049634 forward_v I I I I #
coedge $-1 $220 $221 $222 $223 reversed $87 $-1 #
coedge $-1 $143 $89 $224 $225 reversed $56 $-1 #
coedge $-1 $89 $142 $220 $226 reversed $56 $-1 #
coedge $-1 $222 $227 $89 $145 forward $228 $-1 #
edge $-1 $229 39.605770629471863 $230 43.043957944844571 $144 $231 forward 7 unknown #
loop $-1 $-1 $151 $90 #
plane-surface $-1 -34.67085894376347 -27.813675851791132 5.3233627142348467 0 -0.82903758062907751 0.55919289150049634 1 0 0 forward_v I I I I #
loop $-1 $-1 $232 $58 #
coedge $-1 $149 $149 $150 $233 reversed $91 $-1 #
coedge $-1 $150 $150 $149 $233 forward $93 $-1 #
coedge $-1 $151 $151 $94 $152 forward $146 $-1 #
edge $-1 $234 -1.2782412242917051e-015 $234 6.2831853071795996 $151 $235 forward 7 unknown #
loop $-1 $-1 $158 $95 #
plane-surface $-1 -34.67085894376347 -27.813675851791132 5.3233627142348467 0 -0.82903758062907751 0.55919289150049634 1 0 0 forward_v I I I I #
loop $-1 $-1 $236 $61 #
coedge $-1 $156 $156 $157 $237 reversed $96 $-1 #
coedge $-1 $157 $157 $156 $237 forward $98 $-1 #
coedge $-1 $158 $158 $99 $159 forward $153 $-1 #
edge $-1 $238 -1.2782412242917051e-015 $238 6.2831853071795996 $158 $239 forward 7 unknown #
face $-1 $240 $241 $24 $-1 $242 reversed single #
loop $-1 $-1 $243 $100 #
plane-surface $-1 -64.5478682821131 0 0 1 0 0 0 0 -1 forward_v I I I I #
coedge $-1 $244 $171 $245 $246 forward $101 $-1 #
coedge $-1 $247 $103 $244 $248 forward $65 $-1 #
coedge $-1 $103 $247 $249 $250 forward $65 $-1 #
coedge $-1 $174 $173 $103 $167 reversed $175 $-1 #
edge $-1 $251 -27.813675851791118 $252 27.813675851791118 $166 $253 forward 7 unknown #
coedge $-1 $105 $104 $254 $255 forward $41 $-1 #
coedge $-1 $256 $257 $104 $170 reversed $241 $-1 #
edge $-1 $177 -64.5478682821131 $258 64.5478682821131 $169 $259 forward 7 unknown #
coedge $-1 $163 $260 $105 $172 reversed $101 $-1 #
edge $-1 $261 -64.5478682821131 $176 64.5478682821131 $171 $262 forward 7 unknown #
coedge $-1 $166 $106 $260 $263 forward $175 $-1 #
coedge $-1 $106 $166 $256 $264 reversed $175 $-1 #
loop $-1 $-1 $173 $240 #
vertex $-1 $107 $265 #
vertex $-1 $107 $266 #
straight-curve $-1 64.5478682821131 0 10.420685189199917 0 1 0 I I #
face $-1 $267 $268 $25 $-1 $269 reversed single #
loop $-1 $-1 $270 $108 #
plane-surface $-1 -68.265645772668975 0 -8.6015373137693363 0 0 1 1 0 0 forward_v I I I I #
coedge $-1 $271 $111 $272 $273 reversed $69 $-1 #
coedge $-1 $111 $271 $188 $274 reversed $69 $-1 #
edge $-1 $190 5.6015373137693363 $275 8.6015373137693363 $111 $276 forward 7 unknown #
coedge $-1 $113 $112 $270 $277 forward $44 $-1 #
coedge $-1 $278 $279 $112 $187 forward $280 $-1 #
edge $-1 $281 -8.6015373137693363 $191 -5.6015373137693363 $186 $282 forward 7 unknown #
coedge $-1 $283 $114 $183 $274 forward $109 $-1 #
coedge $-1 $114 $283 $278 $284 forward $109 $-1 #
vertex $-1 $184 $285 #
vertex $-1 $284 $286 #
straight-curve $-1 -64.5478682821131 0 -5.6015373137693363 0 -1 0 I I #
face $-1 $-1 $287 $26 $-1 $288 reversed single #
loop $-1 $-1 $122 $116 #
plane-surface $-1 0 0 10.420685189199917 0 0 1 1 0 0 forward_v I I I I #
coedge $-1 $289 $290 $291 $292 reversed $117 $-1 #
coedge $-1 $293 $119 $121 $203 forward $73 $-1 #
coedge $-1 $119 $293 $289 $294 forward $73 $-1 #
coedge $-1 $291 $122 $119 $200 forward $194 $-1 #
edge $-1 $206 -30.893594762508886 $295 -3.7772641812545835 $199 $296 forward 7 unknown #
coedge $-1 $297 $298 $120 $202 forward $287 $-1 #
edge $-1 $299 -56.491610284320863 $205 -51.394287809355809 $201 $300 forward 7 unknown #
edge $-1 $206 49.478869904847365 $299 55.627351703582207 $121 $301 forward 7 unknown #
coedge $-1 $122 $291 $297 $302 forward $194 $-1 #
vertex $-1 $202 $303 #
vertex $-1 $123 $304 #
straight-curve $-1 -48.229024234390621 51.866236658442375 10.420685189199915 0 -1 0 I I #
coedge $-1 $208 $208 $-1 $305 reversed $126 $-1 #
edge $-1 $306 0 $306 6.2831853071796004 $127 $307 forward 7 unknown #
vertex $-1 $130 $308 #
ellipse-curve $-1 -40.481501211175114 26.094582194104763 7.8720239517173827 0 0.82903758062907751 0.55919289150049634 1.5 0 0 1 I I #
coedge $-1 $212 $212 $-1 $309 reversed $133 $-1 #
edge $-1 $310 0 $310 6.2831853071796004 $134 $311 forward 7 unknown #
vertex $-1 $137 $312 #
ellipse-curve $-1 -28.86021667635184 26.094582194104763 7.8720239517173827 0 0.82903758062907751 0.55919289150049634 1.5 0 0 1 I I #
face $-1 $-1 $228 $29 $-1 $313 forward single #
loop $-1 $-1 $314 $138 #
plane-surface $-1 0 -27.813675851791118 0 0 1 0 0 0 1 forward_v I I I I #
coedge $-1 $315 $316 $317 $318 reversed $139 $-1 #
coedge $-1 $319 $141 $143 $226 forward $87 $-1 #
coedge $-1 $141 $319 $315 $320 forward $87 $-1 #
coedge $-1 $317 $144 $141 $223 forward $228 $-1 #
edge $-1 $230 3.7772641812545835 $321 30.893594762508886 $222 $322 forward 7 unknown #
coedge $-1 $323 $324 $142 $225 forward $217 $-1 #
edge $-1 $325 -33.433027747750558 $229 -28.335705272785511 $224 $326 forward 7 unknown #
edge $-1 $230 -6.1484817987348643 $325 -2.5618607856530852e-014 $143 $327 forward 7 unknown #
coedge $-1 $144 $317 $323 $328 forward $228 $-1 #
loop $-1 $-1 $317 $216 #
vertex $-1 $225 $329 #
vertex $-1 $145 $330 #
straight-curve $-1 -21.112693653136319 -67.41944648126298 10.420685189199915 0 1 0 I I #
coedge $-1 $232 $232 $-1 $331 reversed $148 $-1 #
edge $-1 $332 0 $332 6.2831853071796004 $149 $333 forward 7 unknown #
vertex $-1 $152 $334 #
ellipse-curve $-1 -40.481501211175114 -26.094582194104767 7.872023951717388 0 -0.82903758062907751 0.55919289150049634 1.5 0 0 1 I I #
coedge $-1 $236 $236 $-1 $335 reversed $155 $-1 #
edge $-1 $336 0 $336 6.2831853071796004 $156 $337 forward 7 unknown #
vertex $-1 $159 $338 #
ellipse-curve $-1 -28.86021667635184 -26.094582194104767 7.872023951717388 0 -0.82903758062907751 0.55919289150049634 1.5 0 0 1 I I #
face $-1 $-1 $175 $24 $-1 $339 reversed single #
loop $-1 $-1 $256 $160 #
plane-surface $-1 0 27.813675851791118 0 0 -1 0 0 0 -1 forward_v I I I I #
coedge $-1 $340 $254 $257 $341 forward $161 $-1 #
coedge $-1 $260 $163 $164 $248 reversed $101 $-1 #
coedge $-1 $254 $340 $163 $246 reversed $161 $-1 #
edge $-1 $261 -10.420685189199917 $342 10.420685189199917 $245 $343 forward 7 unknown #
coedge $-1 $165 $164 $340 $344 forward $65 $-1 #
edge $-1 $252 -64.5478682821131 $342 64.5478682821131 $244 $345 forward 7 unknown #
coedge $-1 $257 $256 $165 $250 reversed $241 $-1 #
edge $-1 $346 -64.5478682821131 $251 64.5478682821131 $249 $347 forward 7 unknown #
vertex $-1 $167 $348 #
vertex $-1 $263 $349 #
straight-curve $-1 64.5478682821131 0 -10.420685189199917 0 -1 0 I I #
coedge $-1 $243 $245 $168 $255 reversed $161 $-1 #
edge $-1 $258 -27.813675851791118 $261 27.813675851791118 $254 $350 forward 7 unknown #
coedge $-1 $249 $169 $174 $264 forward $241 $-1 #
coedge $-1 $169 $249 $243 $341 reversed $241 $-1 #
vertex $-1 $170 $351 #
straight-curve $-1 0 27.813675851791118 10.420685189199917 -1 0 0 I I #
coedge $-1 $171 $244 $173 $263 reversed $101 $-1 #
vertex $-1 $255 $352 #
straight-curve $-1 0 -27.813675851791118 10.420685189199917 1 0 0 I I #
edge $-1 $176 -10.420685189199917 $252 10.420685189199917 $173 $353 forward 7 unknown #
edge $-1 $177 -10.420685189199917 $251 10.420685189199917 $174 $354 forward 7 unknown #
point $-1 64.5478682821131 -27.813675851791118 10.420685189199917 #
point $-1 64.5478682821131 27.813675851791118 10.420685189199917 #
face $-1 $-1 $280 $25 $-1 $355 reversed single #
loop $-1 $-1 $356 $179 #
plane-surface $-1 -71.98342326322485 0 -7.1015373137693363 1 0 0 0 0 -1 forward_v I I I I #
coedge $-1 $357 $272 $185 $277 reversed $180 $-1 #
coedge $-1 $183 $182 $356 $358 reversed $69 $-1 #
coedge $-1 $270 $359 $182 $273 forward $180 $-1 #
edge $-1 $360 -3.7177774905558749 $275 3.7177774905558749 $182 $361 forward 7 unknown #
edge $-1 $190 -3.7177774905558749 $362 3.7177774905558749 $183 $363 forward 7 unknown #
vertex $-1 $184 $364 #
straight-curve $-1 -64.5478682821131 27.813675851791118 0 0 0 -1 I I #
edge $-1 $281 -27.813675851791118 $275 27.813675851791118 $270 $365 forward 7 unknown #
coedge $-1 $366 $186 $189 $284 reversed $280 $-1 #
coedge $-1 $186 $366 $357 $367 reversed $280 $-1 #
loop $-1 $-1 $186 $267 #
vertex $-1 $187 $368 #
straight-curve $-1 -64.5478682821131 -27.813675851791118 0 0 0 1 I I #
coedge $-1 $189 $188 $369 $370 forward $109 $-1 #
edge $-1 $371 -3.7177774905558749 $191 3.7177774905558749 $278 $372 forward 7 unknown #
point $-1 -64.5478682821131 27.813675851791118 -5.6015373137693363 #
point $-1 -64.5478682821131 -27.813675851791118 -5.6015373137693363 #
loop $-1 $-1 $201 $193 #
plane-surface $-1 0 27.813675851791118 0 0 -1 0 0 0 -1 forward_v I I I I #
coedge $-1 $290 $196 $198 $294 reversed $117 $-1 #
coedge $-1 $196 $289 $373 $374 reversed $117 $-1 #
coedge $-1 $204 $199 $196 $292 forward $194 $-1 #
edge $-1 $295 -27.490748122023973 $375 -24.052560806651258 $291 $376 forward 7 unknown #
coedge $-1 $198 $197 $298 $377 reversed $73 $-1 #
edge $-1 $378 -55.627351703582207 $295 -49.478869904847365 $289 $379 forward 7 unknown #
vertex $-1 $200 $380 #
straight-curve $-1 -17.335429471881735 24.375488536418402 10.420685189199919 1 0 0 I I #
coedge $-1 $373 $201 $204 $302 reversed $287 $-1 #
coedge $-1 $201 $373 $293 $377 forward $287 $-1 #
vertex $-1 $202 $381 #
straight-curve $-1 -48.229024234390621 27.813675851791118 61.814972998555724 0 0 1 I I #
straight-curve $-1 -48.229024234390621 -3.2927437938500788 51.440527787375444 0 0.55919289150049634 -0.82903758062907751 I I #
edge $-1 $375 21.112693653136319 $205 48.229024234390621 $297 $382 forward 7 unknown #
point $-1 -48.229024234390621 27.813675851791118 10.420685189199917 #
point $-1 -48.229024234390621 24.375488536418402 10.420685189199915 #
edge $-1 $383 1 $383 0 $208 $-1 forward 7 unknown #
vertex $-1 $209 $384 #
ellipse-curve $-1 -40.481501211175114 21.619153102533179 4.8533090069469065 0 0.82903758062907751 0.55919289150049634 1.5 0 0 1 I I #
point $-1 -38.981501211175114 26.09458219410476 7.8720239517173773 #
edge $-1 $385 1 $385 0 $212 $-1 forward 7 unknown #
vertex $-1 $213 $386 #
ellipse-curve $-1 -28.86021667635184 21.619153102533179 4.8533090069469065 0 0.82903758062907751 0.55919289150049634 1.5 0 0 1 I I #
point $-1 -27.36021667635184 26.09458219410476 7.8720239517173773 #
plane-surface $-1 0 0 10.420685189199917 0 0 1 1 0 0 forward_v I I I I #
coedge $-1 $324 $323 $316 $387 forward $217 $-1 #
coedge $-1 $316 $219 $221 $320 reversed $139 $-1 #
coedge $-1 $219 $315 $314 $387 reversed $139 $-1 #
coedge $-1 $227 $222 $219 $318 forward $228 $-1 #
edge $-1 $321 -43.043957944844571 $388 -39.605770629471863 $317 $389 forward 7 unknown #
coedge $-1 $221 $220 $324 $390 reversed $87 $-1 #
edge $-1 $391 2.5618607856530852e-014 $321 6.1484817987348643 $315 $392 forward 7 unknown #
vertex $-1 $223 $393 #
straight-curve $-1 -17.335429471881735 -24.375488536418409 10.420685189199917 -1 0 0 I I #
coedge $-1 $314 $224 $227 $328 reversed $217 $-1 #
coedge $-1 $224 $314 $319 $390 forward $217 $-1 #
vertex $-1 $225 $394 #
straight-curve $-1 -21.112693653136319 -27.813675851791118 38.756390461985426 0 0 1 I I #
straight-curve $-1 -21.112693653136319 -27.813675851791132 5.3233627142348467 0 -0.55919289150049634 -0.82903758062907751 I I #
edge $-1 $388 -48.229024234390621 $229 -21.112693653136319 $323 $395 forward 7 unknown #
point $-1 -21.112693653136319 -27.813675851791118 10.420685189199917 #
point $-1 -21.112693653136319 -24.375488536418409 10.420685189199917 #
edge $-1 $396 1 $396 0 $232 $-1 forward 7 unknown #
vertex $-1 $233 $397 #
ellipse-curve $-1 -40.481501211175114 -21.619153102533179 4.85330900694691 0 -0.82903758062907751 0.55919289150049634 1.5 0 0 1 I I #
point $-1 -38.981501211175114 -26.09458219410476 7.8720239517173809 #
edge $-1 $398 1 $398 0 $236 $-1 forward 7 unknown #
vertex $-1 $237 $399 #
ellipse-curve $-1 -28.86021667635184 -21.619153102533179 4.85330900694691 0 -0.82903758062907751 0.55919289150049634 1.5 0 0 1 I I #
point $-1 -27.36021667635184 -26.09458219410476 7.8720239517173809 #
plane-surface $-1 64.5478682821131 0 0 -1 0 0 0 0 1 forward_v I I I I #
coedge $-1 $245 $243 $247 $344 reversed $161 $-1 #
edge $-1 $258 -10.420685189199917 $346 10.420685189199917 $257 $400 forward 7 unknown #
vertex $-1 $344 $401 #
straight-curve $-1 -64.5478682821131 -27.813675851791118 0 0 0 -1 I I #
edge $-1 $342 -27.813675851791118 $346 27.813675851791118 $340 $402 forward 7 unknown #
straight-curve $-1 0 -27.813675851791118 -10.420685189199917 -1 0 0 I I #
vertex $-1 $250 $403 #
straight-curve $-1 0 27.813675851791118 -10.420685189199917 1 0 0 I I #
point $-1 64.5478682821131 27.813675851791118 -10.420685189199917 #
point $-1 64.5478682821131 -27.813675851791118 -10.420685189199917 #
straight-curve $-1 -64.5478682821131 0 10.420685189199917 0 -1 0 I I #
point $-1 -64.5478682821131 27.813675851791118 10.420685189199917 #
point $-1 -64.5478682821131 -27.813675851791118 10.420685189199917 #
straight-curve $-1 64.5478682821131 -27.813675851791118 0 0 0 -1 I I #
straight-curve $-1 64.5478682821131 27.813675851791118 0 0 0 -1 I I #
plane-surface $-1 0 -27.813675851791118 0 0 1 0 0 0 1 forward_v I I I I #
coedge $-1 $404 $369 $271 $358 forward $268 $-1 #
coedge $-1 $359 $270 $279 $367 forward $180 $-1 #
edge $-1 $362 -1.5 $360 1.5 $271 $405 forward 7 unknown #
coedge $-1 $272 $357 $404 $406 forward $180 $-1 #
vertex $-1 $273 $407 #
straight-curve $-1 -68.265645772668975 27.813675851791118 -8.6015373137693363 1 0 0 I I #
vertex $-1 $274 $408 #
straight-curve $-1 -68.265645772668975 27.813675851791118 -5.6015373137693363 -1 0 0 I I #
point $-1 -64.5478682821131 27.813675851791118 -8.6015373137693363 #
straight-curve $-1 -64.5478682821131 0 -8.6015373137693363 0 1 0 I I #
coedge $-1 $279 $278 $409 $410 forward $280 $-1 #
edge $-1 $281 -3.7177774905558749 $411 3.7177774905558749 $279 $412 forward 7 unknown #
point $-1 -64.5478682821131 -27.813675851791118 -8.6015373137693363 #
coedge $-1 $356 $409 $283 $370 reversed $268 $-1 #
edge $-1 $362 -27.813675851791118 $371 27.813675851791118 $369 $413 forward 7 unknown #
vertex $-1 $370 $414 #
straight-curve $-1 -68.265645772668975 -27.813675851791118 -5.6015373137693363 1 0 0 I I #
coedge $-1 $298 $297 $290 $374 forward $287 $-1 #
edge $-1 $375 51.394287809355809 $378 56.491610284320863 $373 $415 forward 7 unknown #
vertex $-1 $302 $416 #
straight-curve $-1 -21.112693653136319 51.866236658442375 10.420685189199915 0 1 0 I I #
edge $-1 $378 3.7772641812545835 $299 30.893594762508886 $298 $417 forward 7 unknown #
vertex $-1 $377 $418 #
straight-curve $-1 -21.112693653136319 -3.2927437938500788 51.440527787375444 0 -0.55919289150049634 0.82903758062907751 I I #
point $-1 -21.112693653136319 24.375488536418402 10.420685189199915 #
point $-1 -48.229024234390621 27.813675851791118 5.323362714234861 #
straight-curve $-1 0 27.813675851791118 10.420685189199917 -1 0 0 I I #
vertex $-1 $305 $419 #
point $-1 -38.981501211175114 21.619153102533179 4.8533090069469065 #
vertex $-1 $309 $420 #
point $-1 -27.36021667635184 21.619153102533179 4.8533090069469065 #
edge $-1 $388 28.335705272785511 $391 33.433027747750558 $314 $421 forward 7 unknown #
vertex $-1 $328 $422 #
straight-curve $-1 -48.229024234390621 -67.41944648126298 10.420685189199915 0 -1 0 I I #
edge $-1 $391 -30.893594762508886 $325 -3.7772641812545835 $324 $423 forward 7 unknown #
vertex $-1 $390 $424 #
straight-curve $-1 -48.229024234390621 -27.813675851791132 5.3233627142348467 0 0.55919289150049634 0.82903758062907751 I I #
point $-1 -48.229024234390621 -24.375488536418409 10.420685189199917 #
point $-1 -21.112693653136319 -27.813675851791118 5.3233627142348681 #
straight-curve $-1 0 -27.813675851791118 10.420685189199917 1 0 0 I I #
vertex $-1 $331 $425 #
point $-1 -38.981501211175114 -21.619153102533179 4.85330900694691 #
vertex $-1 $335 $426 #
point $-1 -27.36021667635184 -21.619153102533179 4.85330900694691 #
straight-curve $-1 -64.5478682821131 27.813675851791118 0 0 0 -1 I I #
point $-1 -64.5478682821131 -27.813675851791118 -10.420685189199917 #
straight-curve $-1 -64.5478682821131 0 -10.420685189199917 0 1 0 I I #
point $-1 -64.5478682821131 27.813675851791118 -10.420685189199917 #
coedge $-1 $409 $356 $359 $406 reversed $268 $-1 #
straight-curve $-1 -71.98342326322485 27.813675851791118 -7.1015373137693363 0 0 -1 I I #
edge $-1 $411 -27.813675851791118 $360 27.813675851791118 $404 $427 forward 7 unknown #
point $-1 -71.98342326322485 27.813675851791118 -8.6015373137693363 #
point $-1 -71.98342326322485 27.813675851791118 -5.6015373137693363 #
coedge $-1 $369 $404 $366 $410 reversed $268 $-1 #
edge $-1 $371 -1.5 $411 1.5 $409 $428 forward 7 unknown #
vertex $-1 $406 $429 #
straight-curve $-1 -68.265645772668975 -27.813675851791118 -8.6015373137693363 -1 0 0 I I #
straight-curve $-1 -71.98342326322485 0 -5.6015373137693363 0 -1 0 I I #
point $-1 -71.98342326322485 -27.813675851791118 -5.6015373137693363 #
straight-curve $-1 -21.112693653136319 27.813675851791118 61.814972998555724 0 0 -1 I I #
point $-1 -21.112693653136319 27.813675851791118 10.420685189199917 #
straight-curve $-1 -17.335429471881735 27.813675851791118 5.3233627142348539 -1 0 0 I I #
point $-1 -21.112693653136319 27.813675851791118 5.323362714234861 #
point $-1 -40.481501211175114 20.375596731589564 4.0145196696961616 #
point $-1 -28.86021667635184 20.375596731589564 4.0145196696961616 #
straight-curve $-1 -48.229024234390621 -27.813675851791118 38.756390461985426 0 0 -1 I I #
point $-1 -48.229024234390621 -27.813675851791118 10.420685189199917 #
straight-curve $-1 -17.335429471881735 -27.813675851791118 5.3233627142348663 1 0 0 I I #
point $-1 -48.229024234390621 -27.813675851791118 5.3233627142348681 #
point $-1 -40.481501211175114 -20.375596731589564 4.0145196696961651 #
point $-1 -28.86021667635184 -20.375596731589564 4.0145196696961651 #
straight-curve $-1 -71.98342326322485 0 -8.6015373137693363 0 1 0 I I #
straight-curve $-1 -71.98342326322485 -27.813675851791118 -7.1015373137693363 0 0 -1 I I #
point $-1 -71.98342326322485 -27.813675851791118 -8.6015373137693363 #
End-of-ACIS-data 