500 0 6 0           
7 Unknown 11 ACIS 5.0 NT 24 Fri Mar 26 14:33:23 1999 
-1 9.9999999999999995e-007 1e-010 
body $-1 $6 $-1 $7 #
body $-1 $8 $-1 $9 #
body $-1 $10 $-1 $11 #
body $-1 $12 $-1 $13 #
body $-1 $14 $-1 $15 #
body $-1 $16 $-1 $17 #
lump $-1 $-1 $18 $0 #
transform $-1 1 0 0 0 1 0 0 0 1 59.703970458082829 38.380212827816294 11.104574959993663 1 rotate no_reflect no_shear #
lump $-1 $-1 $19 $1 #
transform $-1 1 0 0 0 1 0 0 0 1 59.703970458082829 38.380212827816294 11.104574959993663 1 rotate no_reflect no_shear #
lump $-1 $-1 $20 $2 #
transform $-1 1 0 0 0 1 0 0 0 1 59.703970458082829 38.380212827816294 11.104574959993663 1 rotate no_reflect no_shear #
lump $-1 $-1 $21 $3 #
transform $-1 1 0 0 0 1 0 0 0 1 59.703970458082829 38.380212827816294 11.104574959993663 1 rotate no_reflect no_shear #
lump $-1 $-1 $22 $4 #
transform $-1 1 0 0 0 1 0 0 0 1 59.703970458082829 38.380212827816294 11.104574959993663 1 rotate no_reflect no_shear #
lump $-1 $-1 $23 $5 #
transform $-1 1 0 0 0 1 0 0 0 1 59.703970458082829 38.380212827816294 11.104574959993663 1 rotate no_reflect no_shear #
shell $-1 $-1 $-1 $24 $-1 $6 #
shell $-1 $-1 $-1 $25 $-1 $8 #
shell $-1 $-1 $-1 $26 $-1 $10 #
shell $-1 $-1 $-1 $27 $-1 $12 #
shell $-1 $-1 $-1 $28 $-1 $14 #
shell $-1 $-1 $-1 $29 $-1 $16 #
face $-1 $30 $31 $18 $-1 $32 forward single #
face $-1 $33 $34 $19 $-1 $35 forward single #
face $-1 $36 $37 $20 $-1 $38 reversed single #
face $-1 $39 $40 $21 $-1 $41 forward single #
face $-1 $42 $43 $22 $-1 $44 reversed single #
face $-1 $45 $46 $23 $-1 $47 forward single #
face $-1 $48 $49 $18 $-1 $50 reversed single #
loop $-1 $-1 $51 $24 #
plane-surface $-1 0 0 11.104574959993663 0 0 1 1 0 0 forward_v I I I I #
face $-1 $52 $53 $19 $-1 $54 forward single #
loop $-1 $-1 $55 $25 #
plane-surface $-1 -59.703970458082829 0 0 1 0 0 0 0 -1 forward_v I I I I #
face $-1 $56 $57 $20 $-1 $58 reversed single #
loop $-1 $-1 $59 $26 #
plane-surface $-1 33.287145218863323 0 172.43876299620251 0 -1 0 -0.5877852598018023 0 -0.80901698891910034 forward_v I I I I #
face $-1 $60 $61 $21 $-1 $62 forward single #
loop $-1 $63 $64 $27 #
cone-surface $-1 55.537378235401427 -6.4246182854876075 7.8093441288473624 -0.5877852598018023 0 -0.80901698891910034 0.80901698891910034 0 -0.5877852598018023 1 I I 0 1 1 forward I I I I #
face $-1 $65 $66 $22 $-1 $67 reversed single #
loop $-1 $-1 $68 $28 #
plane-surface $-1 33.287145218863323 25.530976256841075 172.43876299620251 0 1 0 0.5877852598018023 0 0.80901698891910034 forward_v I I I I #
face $-1 $69 $70 $23 $-1 $71 forward single #
loop $-1 $72 $73 $29 #
cone-surface $-1 55.537378235401427 31.955594542328683 7.8093441288473624 -0.5877852598018023 0 -0.80901698891910034 0.80901698891910034 0 -0.5877852598018023 1 I I 0 1 1 forward I I I I #
face $-1 $74 $75 $18 $-1 $76 reversed single #
loop $-1 $-1 $77 $30 #
plane-surface $-1 0 0 -11.104574959993663 0 0 1 1 0 0 forward_v I I I I #
coedge $-1 $78 $79 $80 $81 forward $31 $-1 #
face $-1 $82 $83 $19 $-1 $84 reversed single #
loop $-1 $-1 $85 $33 #
plane-surface $-1 0 0 11.104574959993663 0 0 1 1 0 0 forward_v I I I I #
coedge $-1 $86 $87 $88 $89 forward $34 $-1 #
face $-1 $90 $91 $20 $-1 $92 reversed single #
loop $-1 $-1 $93 $36 #
plane-surface $-1 -36.899082354943367 -6.4246182854876075 75.835710183176332 0.5877852598018023 0 0.80901698891910034 0.80901698891910034 0 -0.5877852598018023 forward_v I I I I #
coedge $-1 $94 $95 $96 $97 reversed $37 $-1 #
face $-1 $-1 $98 $21 $-1 $99 forward single #
loop $-1 $100 $101 $39 #
cone-surface $-1 54.831038552490092 -6.4246182854876075 6.8371509785535167 -0.5877852598018023 0 -0.80901698891910034 0.40450849445955017 0 -0.29389262990090115 1 I I -0.70710678118654746 0.70710678118654746 0.5 forward I I I I #
loop $-1 $-1 $102 $27 #
coedge $-1 $64 $64 $103 $104 reversed $40 $-1 #
face $-1 $105 $106 $22 $-1 $107 reversed single #
loop $-1 $-1 $108 $42 #
plane-surface $-1 -36.899082354943367 31.955594542328683 75.835710183176332 0.5877852598018023 0 0.80901698891910034 0.80901698891910034 0 -0.5877852598018023 forward_v I I I I #
coedge $-1 $109 $110 $111 $112 reversed $43 $-1 #
face $-1 $-1 $113 $23 $-1 $114 forward single #
loop $-1 $115 $116 $45 #
cone-surface $-1 54.831038552490092 31.955594542328683 6.8371509785535167 -0.5877852598018023 0 -0.80901698891910034 0.40450849445955017 0 -0.29389262990090115 1 I I -0.70710678118654746 0.70710678118654746 0.5 forward I I I I #
loop $-1 $-1 $117 $29 #
coedge $-1 $73 $73 $118 $119 reversed $46 $-1 #
face $-1 $120 $121 $18 $-1 $122 reversed single #
loop $-1 $-1 $123 $48 #
plane-surface $-1 0 -38.380212827816294 0 0 1 0 0 0 1 forward_v I I I I #
coedge $-1 $124 $125 $126 $127 forward $49 $-1 #
coedge $-1 $128 $51 $129 $130 forward $31 $-1 #
coedge $-1 $51 $128 $131 $132 forward $31 $-1 #
coedge $-1 $133 $134 $51 $81 reversed $135 $-1 #
edge $-1 $136 -38.380212827816294 $137 38.380212827816294 $80 $138 forward 7 unknown #
face $-1 $139 $140 $19 $-1 $141 reversed single #
loop $-1 $-1 $142 $52 #
plane-surface $-1 -71.087022280045119 -35.868220854917922 0 1 0 0 0 0 -1 forward_v I I I I #
coedge $-1 $143 $144 $86 $145 forward $53 $-1 #
coedge $-1 $146 $55 $85 $145 reversed $34 $-1 #
coedge $-1 $55 $146 $147 $148 reversed $34 $-1 #
coedge $-1 $149 $150 $55 $89 reversed $140 $-1 #
edge $-1 $151 -11.104574959993663 $152 11.104574959993663 $88 $153 forward 7 unknown #
face $-1 $154 $155 $20 $-1 $156 forward single #
loop $-1 $-1 $157 $56 #
plane-surface $-1 33.287145218863323 -12.849236570975215 172.43876299620251 0 1 0 0.5877852598018023 0 0.80901698891910034 forward_v I I I I #
coedge $-1 $158 $159 $160 $161 reversed $57 $-1 #
coedge $-1 $95 $59 $162 $163 reversed $37 $-1 #
coedge $-1 $59 $94 $158 $164 reversed $37 $-1 #
coedge $-1 $160 $165 $59 $97 forward $155 $-1 #
edge $-1 $166 -43.060397848651164 $167 -35.552107509309195 $96 $168 forward 7 unknown #
loop $-1 $-1 $103 $60 #
plane-surface $-1 -36.899082354943367 -6.4246182854876075 75.835710183176332 0.5877852598018023 0 0.80901698891910034 0.80901698891910034 0 -0.5877852598018023 forward_v I I I I #
loop $-1 $-1 $169 $39 #
coedge $-1 $101 $101 $102 $170 reversed $61 $-1 #
coedge $-1 $102 $102 $101 $170 forward $63 $-1 #
coedge $-1 $103 $103 $64 $104 forward $98 $-1 #
edge $-1 $171 0 $171 6.2831853071796004 $103 $172 forward 7 unknown #
face $-1 $173 $174 $22 $-1 $175 reversed single #
loop $-1 $-1 $111 $65 #
plane-surface $-1 59.703970458082829 0 0 -1 0 0 0 0 1 forward_v I I I I #
coedge $-1 $176 $177 $178 $179 reversed $66 $-1 #
coedge $-1 $110 $68 $180 $181 reversed $43 $-1 #
coedge $-1 $68 $109 $176 $182 reversed $43 $-1 #
coedge $-1 $178 $183 $68 $112 forward $106 $-1 #
edge $-1 $184 75.114806538107587 $185 80.569898888731629 $111 $186 forward 7 unknown #
loop $-1 $-1 $118 $69 #
plane-surface $-1 -36.899082354943367 31.955594542328683 75.835710183176332 0.5877852598018023 0 0.80901698891910034 0.80901698891910034 0 -0.5877852598018023 forward_v I I I I #
loop $-1 $-1 $187 $45 #
coedge $-1 $116 $116 $117 $188 reversed $70 $-1 #
coedge $-1 $117 $117 $116 $188 forward $72 $-1 #
coedge $-1 $118 $118 $73 $119 forward $113 $-1 #
edge $-1 $189 0 $189 6.2831853071796004 $118 $190 forward 7 unknown #
face $-1 $191 $192 $18 $-1 $193 reversed single #
loop $-1 $-1 $194 $74 #
plane-surface $-1 -59.703970458082829 0 0 1 0 0 0 0 -1 forward_v I I I I #
coedge $-1 $195 $131 $196 $197 forward $75 $-1 #
coedge $-1 $198 $77 $195 $199 forward $49 $-1 #
coedge $-1 $77 $198 $200 $201 forward $49 $-1 #
coedge $-1 $134 $133 $77 $127 reversed $135 $-1 #
edge $-1 $202 -38.380212827816294 $203 38.380212827816294 $126 $204 forward 7 unknown #
coedge $-1 $79 $78 $205 $206 forward $31 $-1 #
coedge $-1 $207 $208 $78 $130 reversed $192 $-1 #
edge $-1 $137 -59.703970458082829 $209 59.703970458082829 $129 $210 forward 7 unknown #
coedge $-1 $123 $211 $79 $132 reversed $75 $-1 #
edge $-1 $212 -59.703970458082829 $136 59.703970458082829 $131 $213 forward 7 unknown #
coedge $-1 $126 $80 $211 $214 forward $135 $-1 #
coedge $-1 $80 $126 $207 $215 reversed $135 $-1 #
loop $-1 $-1 $133 $191 #
vertex $-1 $81 $216 #
vertex $-1 $81 $217 #
straight-curve $-1 59.703970458082829 0 11.104574959993663 0 1 0 I I #
face $-1 $218 $219 $19 $-1 $220 reversed single #
loop $-1 $-1 $88 $82 #
plane-surface $-1 -65.395496369063977 -33.35622888201955 0 0 -1 0 0 0 -1 forward_v I I I I #
coedge $-1 $221 $222 $223 $224 forward $83 $-1 #
coedge $-1 $225 $85 $150 $226 forward $53 $-1 #
coedge $-1 $85 $225 $227 $228 forward $53 $-1 #
edge $-1 $229 -38.380212827816294 $152 -33.35622888201955 $85 $230 forward 7 unknown #
coedge $-1 $87 $86 $231 $232 reversed $34 $-1 #
coedge $-1 $233 $234 $87 $148 forward $219 $-1 #
edge $-1 $151 33.35622888201955 $235 38.380212827816294 $147 $236 forward 7 unknown #
coedge $-1 $223 $88 $234 $237 reversed $140 $-1 #
coedge $-1 $88 $223 $143 $226 reversed $140 $-1 #
vertex $-1 $148 $238 #
vertex $-1 $226 $239 #
straight-curve $-1 -59.703970458082829 -33.35622888201955 0 0 0 1 I I #
face $-1 $-1 $240 $20 $-1 $241 reversed single #
loop $-1 $-1 $96 $90 #
plane-surface $-1 0 0 11.104574959993663 0 0 1 1 0 0 forward_v I I I I #
coedge $-1 $242 $243 $244 $245 reversed $91 $-1 #
coedge $-1 $246 $93 $95 $164 forward $57 $-1 #
coedge $-1 $93 $246 $242 $247 forward $57 $-1 #
coedge $-1 $244 $96 $93 $161 forward $155 $-1 #
edge $-1 $167 -3.2123091427438037 $248 9.6369274282314112 $160 $249 forward 7 unknown #
coedge $-1 $250 $251 $94 $163 forward $240 $-1 #
edge $-1 $252 -80.569898888731629 $166 -75.114806538107587 $162 $253 forward 7 unknown #
edge $-1 $167 110.12718359934649 $252 119.40794091616567 $95 $254 forward 7 unknown #
coedge $-1 $96 $244 $250 $255 forward $155 $-1 #
vertex $-1 $97 $256 #
vertex $-1 $97 $257 #
straight-curve $-1 16.643572609431661 0 11.10457495999367 -1 0 0 I I #
coedge $-1 $169 $169 $-1 $258 reversed $100 $-1 #
edge $-1 $259 0 $259 6.2831853071796004 $101 $260 forward 7 unknown #
vertex $-1 $104 $261 #
ellipse-curve $-1 55.949825288411851 -6.4246182854876075 8.3770287846816487 0.5877852598018023 0 0.80901698891910034 0.80901698891910034 0 -0.5877852598018023 1 I I #
face $-1 $-1 $262 $22 $-1 $263 forward single #
loop $-1 $-1 $264 $105 #
plane-surface $-1 0 38.380212827816294 0 0 -1 0 0 0 -1 forward_v I I I I #
coedge $-1 $265 $108 $110 $182 forward $66 $-1 #
coedge $-1 $108 $265 $264 $266 reversed $66 $-1 #
coedge $-1 $267 $111 $108 $179 forward $106 $-1 #
edge $-1 $185 9.553178985676734 $268 22.402415556651952 $178 $269 forward 7 unknown #
coedge $-1 $270 $271 $109 $181 forward $262 $-1 #
edge $-1 $272 35.552107509309195 $184 43.060397848651164 $180 $273 forward 7 unknown #
edge $-1 $185 -119.40794091616567 $272 -110.12718359934649 $110 $274 forward 7 unknown #
coedge $-1 $111 $267 $270 $275 reversed $106 $-1 #
vertex $-1 $275 $276 #
vertex $-1 $112 $277 #
straight-curve $-1 59.703970458082829 25.530976256841075 86.219381498101257 0 0 -1 I I #
coedge $-1 $187 $187 $-1 $278 reversed $115 $-1 #
edge $-1 $279 0 $279 6.2831853071796004 $116 $280 forward 7 unknown #
vertex $-1 $119 $281 #
ellipse-curve $-1 55.949825288411851 31.955594542328683 8.3770287846816487 0.5877852598018023 0 0.80901698891910034 0.80901698891910034 0 -0.5877852598018023 1 I I #
face $-1 $-1 $135 $18 $-1 $282 reversed single #
loop $-1 $-1 $207 $120 #
plane-surface $-1 0 38.380212827816294 0 0 -1 0 0 0 -1 forward_v I I I I #
coedge $-1 $283 $205 $208 $284 forward $121 $-1 #
coedge $-1 $211 $123 $124 $199 reversed $75 $-1 #
coedge $-1 $205 $283 $123 $197 reversed $121 $-1 #
edge $-1 $212 -11.104574959993663 $285 11.104574959993663 $196 $286 forward 7 unknown #
coedge $-1 $125 $124 $283 $287 forward $49 $-1 #
edge $-1 $203 -59.703970458082829 $285 59.703970458082829 $195 $288 forward 7 unknown #
coedge $-1 $208 $207 $125 $201 reversed $192 $-1 #
edge $-1 $289 -59.703970458082829 $202 59.703970458082829 $200 $290 forward 7 unknown #
vertex $-1 $127 $291 #
vertex $-1 $214 $292 #
straight-curve $-1 59.703970458082829 0 -11.104574959993663 0 -1 0 I I #
coedge $-1 $194 $196 $128 $206 reversed $121 $-1 #
edge $-1 $209 -38.380212827816294 $212 38.380212827816294 $205 $293 forward 7 unknown #
coedge $-1 $200 $129 $134 $215 forward $192 $-1 #
coedge $-1 $129 $200 $194 $284 reversed $192 $-1 #
vertex $-1 $130 $294 #
straight-curve $-1 0 38.380212827816294 11.104574959993663 -1 0 0 I I #
coedge $-1 $131 $195 $133 $214 reversed $75 $-1 #
vertex $-1 $206 $295 #
straight-curve $-1 0 -38.380212827816294 11.104574959993663 1 0 0 I I #
edge $-1 $136 -11.104574959993663 $203 11.104574959993663 $133 $296 forward 7 unknown #
edge $-1 $137 -11.104574959993663 $202 11.104574959993663 $134 $297 forward 7 unknown #
point $-1 59.703970458082829 -38.380212827816294 11.104574959993663 #
point $-1 59.703970458082829 38.380212827816294 11.104574959993663 #
face $-1 $-1 $298 $19 $-1 $299 reversed single #
loop $-1 $-1 $147 $139 #
plane-surface $-1 0 0 -11.104574959993663 0 0 1 1 0 0 forward_v I I I I #
coedge $-1 $300 $142 $301 $302 reversed $83 $-1 #
coedge $-1 $142 $300 $225 $303 reversed $83 $-1 #
coedge $-1 $150 $149 $142 $224 reversed $140 $-1 #
edge $-1 $304 -11.104574959993663 $305 11.104574959993663 $223 $306 forward 7 unknown #
coedge $-1 $144 $143 $222 $303 forward $53 $-1 #
edge $-1 $152 -5.6915259109811416 $304 5.6915259109811416 $150 $307 forward 7 unknown #
coedge $-1 $308 $231 $144 $228 reversed $298 $-1 #
edge $-1 $309 -71.087022280045119 $229 -59.703970458082829 $227 $310 forward 7 unknown #
vertex $-1 $232 $311 #
straight-curve $-1 -59.703970458082829 0 11.104574959993663 0 1 0 I I #
coedge $-1 $227 $312 $146 $232 forward $298 $-1 #
edge $-1 $235 -11.104574959993663 $229 11.104574959993663 $231 $313 forward 7 unknown #
coedge $-1 $301 $147 $312 $314 forward $219 $-1 #
coedge $-1 $147 $301 $149 $237 forward $219 $-1 #
vertex $-1 $314 $315 #
straight-curve $-1 -59.703970458082829 0 -11.104574959993663 0 -1 0 I I #
edge $-1 $305 -5.6915259109811416 $151 5.6915259109811416 $149 $316 forward 7 unknown #
point $-1 -59.703970458082836 -33.35622888201955 -11.104574959993663 #
point $-1 -59.703970458082836 -33.35622888201955 11.104574959993663 #
loop $-1 $-1 $162 $154 #
plane-surface $-1 59.703970458082829 0 0 -1 0 0 0 0 1 forward_v I I I I #
coedge $-1 $243 $157 $159 $247 reversed $91 $-1 #
coedge $-1 $157 $242 $317 $318 reversed $91 $-1 #
coedge $-1 $165 $160 $157 $245 forward $155 $-1 #
edge $-1 $248 35.552107509309195 $319 43.060397848651164 $244 $320 forward 7 unknown #
coedge $-1 $159 $158 $251 $321 reversed $57 $-1 #
edge $-1 $322 -119.40794091616567 $248 -110.12718359934649 $242 $323 forward 7 unknown #
vertex $-1 $161 $324 #
straight-curve $-1 52.195680118740881 -3.2123091427438037 11.104574959993663 0 -1 0 I I #
coedge $-1 $317 $162 $165 $255 reversed $240 $-1 #
coedge $-1 $162 $317 $246 $321 forward $240 $-1 #
vertex $-1 $163 $325 #
straight-curve $-1 59.703970458082829 0 86.219381498101257 0 0 1 I I #
straight-curve $-1 -36.899082354943367 0 75.835710183176332 0.80901698891910034 0 -0.5877852598018023 I I #
edge $-1 $319 -12.849236570975215 $166 0 $250 $326 forward 7 unknown #
point $-1 59.703970458082829 0 11.104574959993663 #
point $-1 52.19568011874086 0 11.10457495999367 #
edge $-1 $327 1 $327 0 $169 $-1 forward 7 unknown #
vertex $-1 $170 $328 #
ellipse-curve $-1 55.124931182390995 -6.4246182854876075 7.2416594730130672 0.5877852598018023 0 0.80901698891910034 0.80901698891910034 0 -0.5877852598018023 1 I I #
point $-1 56.758842277330963 -6.4246182854876075 7.7892435248798568 #
loop $-1 $-1 $180 $173 #
plane-surface $-1 0 0 11.104574959993663 0 0 1 1 0 0 forward_v I I I I #
coedge $-1 $329 $330 $177 $266 forward $174 $-1 #
coedge $-1 $177 $176 $271 $331 reversed $66 $-1 #
edge $-1 $268 -82.19439235969233 $332 -72.913635042873153 $264 $333 forward 7 unknown #
coedge $-1 $183 $178 $330 $334 reversed $106 $-1 #
vertex $-1 $266 $335 #
straight-curve $-1 59.703970458082829 15.977797271164341 5.6494826093696204 0 1 0 I I #
coedge $-1 $336 $180 $183 $275 forward $262 $-1 #
coedge $-1 $180 $336 $265 $331 forward $262 $-1 #
vertex $-1 $181 $337 #
straight-curve $-1 16.643572609431661 25.530976256841075 11.10457495999367 1 0 0 I I #
straight-curve $-1 -36.899082354943367 25.530976256841075 75.835710183176332 -0.80901698891910034 0 0.5877852598018023 I I #
edge $-1 $184 25.530976256841075 $338 38.380212827816294 $183 $339 forward 7 unknown #
point $-1 59.703970458082829 25.530976256841075 11.104574959993663 #
point $-1 59.703970458082829 25.530976256841075 5.6494826093696275 #
edge $-1 $340 1 $340 0 $187 $-1 forward 7 unknown #
vertex $-1 $188 $341 #
ellipse-curve $-1 55.124931182390995 31.955594542328683 7.2416594730130672 0.5877852598018023 0 0.80901698891910034 0.80901698891910034 0 -0.5877852598018023 1 I I #
point $-1 56.758842277330963 31.955594542328683 7.7892435248798568 #
plane-surface $-1 59.703970458082829 0 0 -1 0 0 0 0 1 forward_v I I I I #
coedge $-1 $196 $194 $198 $287 reversed $121 $-1 #
edge $-1 $209 -11.104574959993663 $289 11.104574959993663 $208 $342 forward 7 unknown #
vertex $-1 $287 $343 #
straight-curve $-1 -59.703970458082829 -38.380212827816294 0 0 0 -1 I I #
edge $-1 $285 -38.380212827816294 $289 38.380212827816294 $283 $344 forward 7 unknown #
straight-curve $-1 0 -38.380212827816294 -11.104574959993663 -1 0 0 I I #
vertex $-1 $201 $345 #
straight-curve $-1 0 38.380212827816294 -11.104574959993663 1 0 0 I I #
point $-1 59.703970458082829 38.380212827816294 -11.104574959993663 #
point $-1 59.703970458082829 -38.380212827816294 -11.104574959993663 #
straight-curve $-1 -59.703970458082829 0 11.104574959993663 0 -1 0 I I #
point $-1 -59.703970458082829 38.380212827816294 11.104574959993663 #
point $-1 -59.703970458082829 -38.380212827816294 11.104574959993663 #
straight-curve $-1 59.703970458082829 -38.380212827816294 0 0 0 -1 I I #
straight-curve $-1 59.703970458082829 38.380212827816294 0 0 0 -1 I I #
loop $-1 $-1 $231 $218 #
plane-surface $-1 0 -38.380212827816294 0 0 1 0 0 0 1 forward_v I I I I #
coedge $-1 $222 $221 $308 $346 reversed $83 $-1 #
coedge $-1 $234 $233 $221 $302 forward $219 $-1 #
edge $-1 $347 -2.5119919728983717 $305 2.5119919728983717 $221 $348 forward 7 unknown #
edge $-1 $304 -2.5119919728983717 $309 2.5119919728983717 $222 $349 forward 7 unknown #
vertex $-1 $226 $350 #
vertex $-1 $237 $351 #
straight-curve $-1 -71.087022280045119 -33.35622888201955 0 0 0 -1 I I #
straight-curve $-1 -65.395496369063977 -33.35622888201955 11.104574959993663 -1 0 0 I I #
coedge $-1 $312 $227 $300 $346 forward $298 $-1 #
vertex $-1 $303 $352 #
straight-curve $-1 0 -38.380212827816294 11.104574959993663 1 0 0 I I #
point $-1 -59.703970458082829 -38.380212827816294 11.104574959993663 #
coedge $-1 $231 $308 $233 $314 reversed $298 $-1 #
straight-curve $-1 -59.703970458082829 -38.380212827816294 0 0 0 1 I I #
edge $-1 $235 -5.6915259109811487 $347 5.6915259109811416 $312 $353 forward 7 unknown #
point $-1 -59.703970458082829 -38.380212827816294 -11.104574959993663 #
straight-curve $-1 -65.395496369063977 -33.35622888201955 -11.104574959993663 1 0 0 I I #
coedge $-1 $251 $250 $243 $318 forward $240 $-1 #
edge $-1 $319 75.114806538107587 $322 80.569898888731629 $317 $354 forward 7 unknown #
vertex $-1 $255 $355 #
straight-curve $-1 16.643572609431661 -12.849236570975215 11.10457495999367 1 0 0 I I #
edge $-1 $322 -9.6369274282314112 $252 3.2123091427438037 $251 $356 forward 7 unknown #
vertex $-1 $321 $357 #
straight-curve $-1 -36.899082354943367 -12.849236570975215 75.835710183176332 -0.80901698891910034 0 0.5877852598018023 I I #
point $-1 52.19568011874086 -12.849236570975215 11.10457495999367 #
point $-1 59.703970458082829 0 5.6494826093696275 #
straight-curve $-1 59.703970458082829 0 11.104574959993663 0 1 0 I I #
vertex $-1 $258 $358 #
point $-1 55.933948171310092 -6.4246182854876075 6.6538742132112647 #
coedge $-1 $330 $264 $336 $359 reversed $174 $-1 #
coedge $-1 $264 $329 $267 $334 forward $174 $-1 #
edge $-1 $332 -22.402415556651952 $272 -9.553178985676734 $271 $360 forward 7 unknown #
vertex $-1 $266 $361 #
straight-curve $-1 -6.7926893547905749 38.380212827816294 53.962134876762661 -0.80901698891910034 0 0.5877852598018023 I I #
edge $-1 $338 -11.104574959993663 $268 -5.6494826093696249 $267 $362 forward 7 unknown #
point $-1 59.703970458082829 38.380212827816294 5.6494826093696249 #
coedge $-1 $271 $270 $329 $359 forward $262 $-1 #
point $-1 52.19568011874086 25.530976256841075 11.10457495999367 #
vertex $-1 $275 $363 #
straight-curve $-1 59.703970458082829 0 11.104574959993663 0 1 0 I I #
vertex $-1 $278 $364 #
point $-1 55.933948171310092 31.955594542328683 6.6538742132112647 #
straight-curve $-1 -59.703970458082829 38.380212827816294 0 0 0 -1 I I #
point $-1 -59.703970458082829 -38.380212827816294 -11.104574959993663 #
straight-curve $-1 -59.703970458082829 0 -11.104574959993663 0 1 0 I I #
point $-1 -59.703970458082829 38.380212827816294 -11.104574959993663 #
edge $-1 $309 -11.104574959993663 $347 11.104574959993663 $300 $365 forward 7 unknown #
vertex $-1 $302 $366 #
straight-curve $-1 -71.087022280045119 -35.868220854917922 -11.104574959993663 0 1 0 I I #
straight-curve $-1 -71.087022280045119 -35.868220854917922 11.104574959993663 0 -1 0 I I #
point $-1 -71.087022280045119 -33.35622888201955 11.104574959993663 #
point $-1 -71.087022280045119 -33.35622888201955 -11.104574959993663 #
point $-1 -71.087022280045119 -38.380212827816294 11.104574959993663 #
straight-curve $-1 -65.395496369063977 -38.380212827816294 -11.104574959993663 -1 0 0 I I #
straight-curve $-1 59.703970458082829 -12.849236570975215 86.219381498101257 0 0 -1 I I #
point $-1 59.703970458082829 -12.849236570975215 11.104574959993663 #
straight-curve $-1 59.703970458082829 -3.2123091427438037 5.6494826093696204 0 1 0 I I #
point $-1 59.703970458082829 -12.849236570975215 5.6494826093696275 #
point $-1 54.53714592258919 -6.4246182854876075 6.4326424840939662 #
edge $-1 $338 -59.703970458082829 $332 -52.19568011874086 $329 $367 forward 7 unknown #
straight-curve $-1 52.195680118740881 15.977797271164341 11.104574959993663 0 -1 0 I I #
point $-1 52.19568011874086 38.380212827816294 11.10457495999367 #
straight-curve $-1 59.703970458082829 38.380212827816294 0 0 0 -1 I I #
point $-1 59.703970458082829 38.380212827816294 11.104574959993663 #
point $-1 54.53714592258919 31.955594542328683 6.4326424840939662 #
straight-curve $-1 -71.087022280045119 -38.380212827816294 0 0 0 -1 I I #
point $-1 -71.087022280045119 -38.380212827816294 -11.104574959993663 #
straight-curve $-1 0 38.380212827816294 11.104574959993663 -1 0 0 I I #
End-of-ACIS-data 