500 0 4 0           
7 Unknown 11 ACIS 5.0 NT 24 Thu Mar 25 18:09:10 1999 
-1 9.9999999999999995e-007 1e-010 
body $-1 $4 $-1 $5 #
body $-1 $6 $-1 $7 #
body $-1 $8 $-1 $9 #
body $-1 $10 $-1 $11 #
lump $-1 $-1 $12 $0 #
transform $-1 1 0 0 0 1 0 0 0 1 60.84292123172704 36.582254352084327 14.566362162618324 1 rotate no_reflect no_shear #
lump $-1 $-1 $13 $1 #
transform $-1 1 0 0 0 1 0 0 0 1 60.84292123172704 36.582254352084327 14.566362162618324 1 rotate no_reflect no_shear #
lump $-1 $-1 $14 $2 #
transform $-1 1 0 0 0 1 0 0 0 1 60.84292123172704 36.582254352084327 14.566362162618324 1 rotate no_reflect no_shear #
lump $-1 $-1 $15 $3 #
transform $-1 1 0 0 0 1 0 0 0 1 60.84292123172704 36.582254352084327 14.566362162618324 1 rotate no_reflect no_shear #
shell $-1 $-1 $-1 $16 $-1 $4 #
shell $-1 $-1 $-1 $17 $-1 $6 #
shell $-1 $-1 $-1 $18 $-1 $8 #
shell $-1 $-1 $-1 $19 $-1 $10 #
face $-1 $20 $21 $12 $-1 $22 forward single #
face $-1 $23 $24 $13 $-1 $25 forward single #
face $-1 $26 $27 $14 $-1 $28 reversed single #
face $-1 $29 $30 $15 $-1 $31 forward single #
face $-1 $32 $33 $12 $-1 $34 reversed single #
loop $-1 $-1 $35 $16 #
plane-surface $-1 0 0 14.566362162618324 0 0 1 1 0 0 forward_v I I I I #
face $-1 $36 $37 $13 $-1 $38 reversed single #
loop $-1 $-1 $39 $17 #
plane-surface $-1 0 -36.582254352084327 0 0 1 0 0 0 1 forward_v I I I I #
face $-1 $40 $41 $14 $-1 $42 reversed single #
loop $-1 $-1 $43 $18 #
plane-surface $-1 -11.499421181107671 105.38303277572609 125.86393459879336 1 0 0 0 -0.86602541151947299 -0.49999998660252726 forward_v I I I I #
face $-1 $44 $45 $15 $-1 $46 forward single #
loop $-1 $47 $48 $19 #
cone-surface $-1 -0.3801345447982456 31.439044003697987 7.2943712610449936 0 -0.86602541151947299 -0.49999998660252726 2 0 0 1 I I 0 1 2 forward I I I I #
face $-1 $49 $50 $12 $-1 $51 reversed single #
loop $-1 $-1 $52 $20 #
plane-surface $-1 0 0 -14.566362162618324 0 0 1 1 0 0 forward_v I I I I #
coedge $-1 $53 $54 $55 $56 forward $21 $-1 #
face $-1 $57 $58 $13 $-1 $59 reversed single #
loop $-1 $-1 $60 $23 #
plane-surface $-1 0 0 -14.566362162618324 0 0 1 1 0 0 forward_v I I I I #
coedge $-1 $61 $62 $63 $64 forward $24 $-1 #
face $-1 $65 $66 $14 $-1 $67 reversed single #
loop $-1 $-1 $68 $26 #
plane-surface $-1 -0.38013454479823849 9.802194966823663e-007 65.021014997349084 0 0.86602541151947299 0.49999998660252726 1 0 0 forward_v I I I I #
coedge $-1 $69 $70 $71 $72 reversed $27 $-1 #
face $-1 $-1 $73 $15 $-1 $74 forward single #
loop $-1 $75 $76 $29 #
cone-surface $-1 -0.3801345447982456 29.15593175208209 5.9762158350776264 0 -0.86602541151947299 -0.49999998660252726 1 0 0 1 I I -0.70710678118654746 0.70710678118654746 1 forward I I I I #
loop $-1 $-1 $77 $19 #
coedge $-1 $48 $48 $78 $79 reversed $30 $-1 #
face $-1 $80 $81 $12 $-1 $82 reversed single #
loop $-1 $-1 $83 $32 #
plane-surface $-1 0 -36.582254352084327 0 0 1 0 0 0 1 forward_v I I I I #
coedge $-1 $84 $85 $86 $87 forward $33 $-1 #
coedge $-1 $88 $35 $89 $90 forward $21 $-1 #
coedge $-1 $35 $88 $91 $92 forward $21 $-1 #
coedge $-1 $93 $94 $35 $56 reversed $95 $-1 #
edge $-1 $96 -36.582254352084327 $97 36.582254352084327 $55 $98 forward 7 unknown #
face $-1 $99 $100 $13 $-1 $101 reversed single #
loop $-1 $-1 $102 $36 #
plane-surface $-1 -54.316396781439579 -50.934737668190031 0 0 1 0 0 0 1 forward_v I I I I #
coedge $-1 $103 $104 $62 $105 forward $37 $-1 #
coedge $-1 $106 $39 $107 $108 reversed $24 $-1 #
coedge $-1 $39 $106 $60 $105 reversed $24 $-1 #
coedge $-1 $109 $110 $39 $64 reversed $100 $-1 #
edge $-1 $111 -14.566362162618324 $112 14.566362162618324 $63 $113 forward 7 unknown #
face $-1 $114 $115 $14 $-1 $116 forward single #
loop $-1 $-1 $117 $40 #
plane-surface $-1 10.739152091511194 105.38303277572609 125.86393459879336 -1 0 0 0 0.86602541151947299 0.49999998660252726 forward_v I I I I #
coedge $-1 $118 $119 $120 $121 reversed $41 $-1 #
coedge $-1 $70 $43 $122 $123 reversed $27 $-1 #
coedge $-1 $43 $69 $118 $124 reversed $27 $-1 #
coedge $-1 $120 $125 $43 $72 forward $115 $-1 #
edge $-1 $126 16.10926203577872 $127 23.561509052358566 $71 $128 forward 7 unknown #
loop $-1 $-1 $78 $44 #
plane-surface $-1 -0.38013454479823849 9.802194966823663e-007 65.021014997349084 0 0.86602541151947299 0.49999998660252726 1 0 0 forward_v I I I I #
loop $-1 $-1 $129 $29 #
coedge $-1 $76 $76 $77 $130 reversed $45 $-1 #
coedge $-1 $77 $77 $76 $130 forward $47 $-1 #
coedge $-1 $78 $78 $48 $79 forward $73 $-1 #
edge $-1 $131 1.0071717103793496e-015 $131 6.2831853071796013 $78 $132 forward 7 unknown #
face $-1 $133 $134 $12 $-1 $135 reversed single #
loop $-1 $-1 $136 $49 #
plane-surface $-1 -60.84292123172704 0 0 1 0 0 0 0 -1 forward_v I I I I #
coedge $-1 $137 $91 $138 $139 forward $50 $-1 #
coedge $-1 $140 $52 $137 $141 forward $33 $-1 #
coedge $-1 $52 $140 $142 $143 forward $33 $-1 #
coedge $-1 $94 $93 $52 $87 reversed $95 $-1 #
edge $-1 $144 -36.582254352084327 $145 36.582254352084327 $86 $146 forward 7 unknown #
coedge $-1 $54 $53 $147 $148 forward $21 $-1 #
coedge $-1 $149 $150 $53 $90 reversed $134 $-1 #
edge $-1 $97 -60.84292123172704 $151 60.84292123172704 $89 $152 forward 7 unknown #
coedge $-1 $83 $153 $54 $92 reversed $50 $-1 #
edge $-1 $154 -60.84292123172704 $96 60.84292123172704 $91 $155 forward 7 unknown #
coedge $-1 $86 $55 $153 $156 forward $95 $-1 #
coedge $-1 $55 $86 $149 $157 reversed $95 $-1 #
loop $-1 $-1 $93 $133 #
vertex $-1 $56 $158 #
vertex $-1 $56 $159 #
straight-curve $-1 60.84292123172704 0 14.566362162618324 0 1 0 I I #
face $-1 $160 $161 $13 $-1 $162 reversed single #
loop $-1 $-1 $63 $57 #
plane-surface $-1 -57.589349490637169 -43.758496010137179 0 1 0 0 0 0 -1 forward_v I I I I #
coedge $-1 $163 $164 $165 $166 forward $58 $-1 #
coedge $-1 $167 $60 $168 $169 forward $37 $-1 #
coedge $-1 $60 $167 $109 $170 forward $37 $-1 #
edge $-1 $111 -57.589349490637169 $171 -51.043444072241989 $60 $172 forward 7 unknown #
coedge $-1 $62 $61 $173 $174 forward $24 $-1 #
coedge $-1 $175 $176 $61 $108 forward $177 $-1 #
edge $-1 $178 51.043444072241989 $112 57.589349490637169 $107 $179 forward 7 unknown #
coedge $-1 $165 $63 $104 $170 reversed $100 $-1 #
coedge $-1 $63 $165 $175 $180 reversed $100 $-1 #
vertex $-1 $105 $181 #
vertex $-1 $180 $182 #
straight-curve $-1 -57.589349490637169 -36.582254352084327 0 0 0 1 I I #
face $-1 $-1 $183 $14 $-1 $184 reversed single #
loop $-1 $-1 $71 $65 #
plane-surface $-1 0 0 14.566362162618324 0 0 1 1 0 0 forward_v I I I I #
coedge $-1 $185 $186 $187 $188 reversed $66 $-1 #
coedge $-1 $189 $68 $70 $124 forward $41 $-1 #
coedge $-1 $68 $189 $185 $190 forward $41 $-1 #
coedge $-1 $187 $71 $68 $121 forward $115 $-1 #
edge $-1 $127 -11.309353908708552 $191 10.929219363910313 $120 $192 forward 7 unknown #
coedge $-1 $193 $194 $69 $123 forward $183 $-1 #
edge $-1 $195 -61.273276061195347 $126 -48.365605136778356 $122 $196 forward 7 unknown #
edge $-1 $127 58.260014271643875 $195 73.164508704168682 $70 $197 forward 7 unknown #
coedge $-1 $71 $187 $193 $198 forward $115 $-1 #
vertex $-1 $123 $199 #
vertex $-1 $72 $200 #
straight-curve $-1 -11.499421181107671 52.691516387863047 14.566362162618326 0 -1 0 I I #
coedge $-1 $129 $129 $-1 $201 reversed $75 $-1 #
edge $-1 $202 0 $202 6.2831853071796004 $76 $203 forward 7 unknown #
vertex $-1 $79 $204 #
ellipse-curve $-1 -0.3801345447982456 32.856130843794404 8.1125267004098305 0 0.86602541151947299 0.49999998660252726 2 0 0 1 I I #
face $-1 $-1 $95 $12 $-1 $205 reversed single #
loop $-1 $-1 $149 $80 #
plane-surface $-1 0 36.582254352084327 0 0 -1 0 0 0 -1 forward_v I I I I #
coedge $-1 $206 $147 $150 $207 forward $81 $-1 #
coedge $-1 $153 $83 $84 $141 reversed $50 $-1 #
coedge $-1 $147 $206 $83 $139 reversed $81 $-1 #
edge $-1 $154 -14.566362162618324 $208 14.566362162618324 $138 $209 forward 7 unknown #
coedge $-1 $85 $84 $206 $210 forward $33 $-1 #
edge $-1 $145 -60.84292123172704 $208 60.84292123172704 $137 $211 forward 7 unknown #
coedge $-1 $150 $149 $85 $143 reversed $134 $-1 #
edge $-1 $212 -60.84292123172704 $144 60.84292123172704 $142 $213 forward 7 unknown #
vertex $-1 $87 $214 #
vertex $-1 $156 $215 #
straight-curve $-1 60.84292123172704 0 -14.566362162618324 0 -1 0 I I #
coedge $-1 $136 $138 $88 $148 reversed $81 $-1 #
edge $-1 $151 -36.582254352084327 $154 36.582254352084327 $147 $216 forward 7 unknown #
coedge $-1 $142 $89 $94 $157 forward $134 $-1 #
coedge $-1 $89 $142 $136 $207 reversed $134 $-1 #
vertex $-1 $90 $217 #
straight-curve $-1 0 36.582254352084327 14.566362162618324 -1 0 0 I I #
coedge $-1 $91 $137 $93 $156 reversed $50 $-1 #
vertex $-1 $148 $218 #
straight-curve $-1 0 -36.582254352084327 14.566362162618324 1 0 0 I I #
edge $-1 $96 -14.566362162618324 $145 14.566362162618324 $93 $219 forward 7 unknown #
edge $-1 $97 -14.566362162618324 $144 14.566362162618324 $94 $220 forward 7 unknown #
point $-1 60.84292123172704 -36.582254352084327 14.566362162618324 #
point $-1 60.84292123172704 36.582254352084327 14.566362162618324 #
face $-1 $-1 $177 $13 $-1 $221 forward single #
loop $-1 $-1 $222 $99 #
plane-surface $-1 -51.043444072241989 -43.758496010137179 0 -1 0 0 0 0 1 forward_v I I I I #
coedge $-1 $223 $102 $167 $224 reversed $58 $-1 #
coedge $-1 $102 $223 $225 $226 reversed $58 $-1 #
coedge $-1 $110 $109 $102 $166 reversed $100 $-1 #
edge $-1 $227 -14.566362162618324 $228 14.566362162618324 $165 $229 forward 7 unknown #
coedge $-1 $104 $103 $163 $224 forward $37 $-1 #
coedge $-1 $173 $222 $103 $169 reversed $161 $-1 #
edge $-1 $171 -7.1762416580528523 $230 7.1762416580528523 $168 $231 forward 7 unknown #
edge $-1 $228 -7.1762416580528523 $111 7.1762416580528523 $109 $232 forward 7 unknown #
vertex $-1 $169 $233 #
straight-curve $-1 0 -36.582254352084327 -14.566362162618324 1 0 0 I I #
coedge $-1 $234 $168 $106 $174 reversed $161 $-1 #
edge $-1 $178 -14.566362162618324 $171 14.566362162618324 $173 $235 forward 7 unknown #
coedge $-1 $225 $107 $110 $180 forward $177 $-1 #
coedge $-1 $107 $225 $234 $236 forward $177 $-1 #
loop $-1 $-1 $107 $160 #
vertex $-1 $108 $237 #
straight-curve $-1 0 -36.582254352084327 14.566362162618324 -1 0 0 I I #
edge $-1 $112 -7.1762416580528523 $227 7.1762416580528523 $110 $238 forward 7 unknown #
point $-1 -57.589349490637169 -36.582254352084327 -14.566362162618324 #
point $-1 -57.589349490637169 -36.582254352084327 14.566362162618324 #
loop $-1 $-1 $122 $114 #
plane-surface $-1 0 36.582254352084327 0 0 -1 0 0 0 -1 forward_v I I I I #
coedge $-1 $186 $117 $119 $190 reversed $66 $-1 #
coedge $-1 $117 $185 $239 $240 reversed $66 $-1 #
coedge $-1 $125 $120 $117 $188 forward $115 $-1 #
edge $-1 $191 -23.561509052358566 $241 -16.10926203577872 $187 $242 forward 7 unknown #
coedge $-1 $119 $118 $194 $243 reversed $41 $-1 #
edge $-1 $244 -73.164508704168682 $191 -58.260014271643875 $185 $245 forward 7 unknown #
vertex $-1 $121 $246 #
straight-curve $-1 -0.19006727239911925 29.13000733550448 14.566362162618326 1 0 0 I I #
coedge $-1 $239 $122 $125 $198 reversed $183 $-1 #
coedge $-1 $122 $239 $189 $243 forward $183 $-1 #
vertex $-1 $123 $247 #
straight-curve $-1 -11.499421181107671 36.582254352084327 62.931967299396682 0 0 1 I I #
straight-curve $-1 -11.499421181107671 9.802194966823663e-007 65.021014997349084 0 0.49999998660252726 -0.86602541151947299 I I #
edge $-1 $241 -10.739152091511194 $126 11.499421181107671 $193 $248 forward 7 unknown #
point $-1 -11.499421181107671 36.582254352084327 14.566362162618324 #
point $-1 -11.499421181107671 29.13000733550448 14.566362162618326 #
edge $-1 $249 1 $249 0 $129 $-1 forward 7 unknown #
vertex $-1 $130 $250 #
ellipse-curve $-1 -0.3801345447982456 30.021957163601563 6.476215821680154 0 0.86602541151947299 0.49999998660252726 2 0 0 1 I I #
point $-1 1.6198654552017544 32.856130843794411 8.1125267004098323 #
plane-surface $-1 60.84292123172704 0 0 -1 0 0 0 0 1 forward_v I I I I #
coedge $-1 $138 $136 $140 $210 reversed $81 $-1 #
edge $-1 $151 -14.566362162618324 $212 14.566362162618324 $150 $251 forward 7 unknown #
vertex $-1 $210 $252 #
straight-curve $-1 -60.84292123172704 -36.582254352084327 0 0 0 -1 I I #
edge $-1 $208 -36.582254352084327 $212 36.582254352084327 $206 $253 forward 7 unknown #
straight-curve $-1 0 -36.582254352084327 -14.566362162618324 -1 0 0 I I #
vertex $-1 $143 $254 #
straight-curve $-1 0 36.582254352084327 -14.566362162618324 1 0 0 I I #
point $-1 60.84292123172704 36.582254352084327 -14.566362162618324 #
point $-1 60.84292123172704 -36.582254352084327 -14.566362162618324 #
straight-curve $-1 -60.84292123172704 0 14.566362162618324 0 -1 0 I I #
point $-1 -60.84292123172704 36.582254352084327 14.566362162618324 #
point $-1 -60.84292123172704 -36.582254352084327 14.566362162618324 #
straight-curve $-1 60.84292123172704 -36.582254352084327 0 0 0 -1 I I #
straight-curve $-1 60.84292123172704 36.582254352084327 0 0 0 -1 I I #
plane-surface $-1 0 0 14.566362162618324 0 0 1 1 0 0 forward_v I I I I #
coedge $-1 $168 $234 $223 $255 forward $161 $-1 #
coedge $-1 $164 $163 $222 $255 reversed $58 $-1 #
edge $-1 $230 -3.2729527091975896 $228 3.2729527091975896 $163 $256 forward 7 unknown #
coedge $-1 $176 $175 $164 $226 forward $177 $-1 #
edge $-1 $227 -3.2729527091975896 $257 3.2729527091975896 $164 $258 forward 7 unknown #
vertex $-1 $180 $259 #
vertex $-1 $170 $260 #
straight-curve $-1 -57.589349490637169 -50.934737668190031 0 0 0 -1 I I #
vertex $-1 $255 $261 #
straight-curve $-1 -51.043444072241989 -43.758496010137179 -14.566362162618324 0 -1 0 I I #
straight-curve $-1 -57.589349490637169 -43.758496010137179 -14.566362162618324 0 1 0 I I #
point $-1 -51.043444072241989 -36.582254352084327 -14.566362162618324 #
coedge $-1 $222 $173 $176 $236 reversed $161 $-1 #
straight-curve $-1 -51.043444072241989 -36.582254352084327 0 0 0 -1 I I #
edge $-1 $257 -7.1762416580528523 $178 7.1762416580528523 $234 $262 forward 7 unknown #
point $-1 -51.043444072241989 -36.582254352084327 14.566362162618324 #
straight-curve $-1 -57.589349490637169 -43.758496010137179 14.566362162618324 0 -1 0 I I #
coedge $-1 $194 $193 $186 $240 forward $183 $-1 #
edge $-1 $241 48.365605136778356 $244 61.273276061195347 $239 $263 forward 7 unknown #
vertex $-1 $198 $264 #
straight-curve $-1 10.739152091511194 52.691516387863047 14.566362162618326 0 1 0 I I #
edge $-1 $244 -10.929219363910313 $195 11.309353908708552 $194 $265 forward 7 unknown #
vertex $-1 $243 $266 #
straight-curve $-1 10.739152091511194 9.802194966823663e-007 65.021014997349084 0 -0.49999998660252726 0.86602541151947299 I I #
point $-1 10.739152091511194 29.13000733550448 14.566362162618326 #
point $-1 -11.499421181107671 36.582254352084327 1.6586912382013352 #
straight-curve $-1 0 36.582254352084327 14.566362162618324 -1 0 0 I I #
vertex $-1 $201 $267 #
point $-1 1.6198654552017544 30.021957163601563 6.476215821680154 #
straight-curve $-1 -60.84292123172704 36.582254352084327 0 0 0 -1 I I #
point $-1 -60.84292123172704 -36.582254352084327 -14.566362162618324 #
straight-curve $-1 -60.84292123172704 0 -14.566362162618324 0 1 0 I I #
point $-1 -60.84292123172704 36.582254352084327 -14.566362162618324 #
edge $-1 $257 -14.566362162618324 $230 14.566362162618324 $222 $268 forward 7 unknown #
straight-curve $-1 -54.316396781439579 -50.934737668190031 -14.566362162618324 -1 0 0 I I #
vertex $-1 $236 $269 #
straight-curve $-1 -54.316396781439579 -50.934737668190031 14.566362162618324 1 0 0 I I #
point $-1 -57.589349490637169 -50.934737668190031 14.566362162618324 #
point $-1 -57.589349490637169 -50.934737668190031 -14.566362162618324 #
point $-1 -51.043444072241989 -50.934737668190031 -14.566362162618324 #
straight-curve $-1 -51.043444072241989 -43.758496010137179 14.566362162618324 0 1 0 I I #
straight-curve $-1 10.739152091511194 36.582254352084327 62.931967299396682 0 0 -1 I I #
point $-1 10.739152091511194 36.582254352084327 14.566362162618324 #
straight-curve $-1 -0.19006727239911925 36.582254352084327 1.6586912382013281 -1 0 0 I I #
point $-1 10.739152091511194 36.582254352084327 1.6586912382013352 #
point $-1 -0.3801345447982456 28.289906340562617 5.4762158484750989 #
straight-curve $-1 -51.043444072241989 -50.934737668190031 0 0 0 -1 I I #
point $-1 -51.043444072241989 -50.934737668190031 14.566362162618324 #
End-of-ACIS-data 