500 0 14 0           
7 Unknown 11 ACIS 5.0 NT 24 Thu Mar 25 15:56:11 1999 
-1 9.9999999999999995e-007 1e-010 
body $-1 $14 $-1 $15 #
body $-1 $16 $-1 $17 #
body $-1 $18 $-1 $19 #
body $-1 $20 $-1 $21 #
body $-1 $22 $-1 $23 #
body $-1 $24 $-1 $25 #
body $-1 $26 $-1 $27 #
body $-1 $28 $-1 $29 #
body $-1 $30 $-1 $31 #
body $-1 $32 $-1 $33 #
body $-1 $34 $-1 $35 #
body $-1 $36 $-1 $37 #
body $-1 $38 $-1 $39 #
body $-1 $40 $-1 $41 #
lump $-1 $-1 $42 $0 #
transform $-1 1 0 0 0 1 0 0 0 1 43.590197454756307 23.489511841124397 5.8196525476429359 1 rotate no_reflect no_shear #
lump $-1 $-1 $43 $1 #
transform $-1 1 0 0 0 1 0 0 0 1 43.590197454756307 23.489511841124397 5.8196525476429359 1 rotate no_reflect no_shear #
lump $-1 $-1 $44 $2 #
transform $-1 1 0 0 0 1 0 0 0 1 43.590197454756307 23.489511841124397 5.8196525476429359 1 rotate no_reflect no_shear #
lump $-1 $-1 $45 $3 #
transform $-1 1 0 0 0 1 0 0 0 1 43.590197454756307 23.489511841124397 5.8196525476429359 1 rotate no_reflect no_shear #
lump $-1 $-1 $46 $4 #
transform $-1 1 0 0 0 1 0 0 0 1 43.590197454756307 23.489511841124397 5.8196525476429359 1 rotate no_reflect no_shear #
lump $-1 $-1 $47 $5 #
transform $-1 1 0 0 0 1 0 0 0 1 43.590197454756307 23.489511841124397 5.8196525476429359 1 rotate no_reflect no_shear #
lump $-1 $-1 $48 $6 #
transform $-1 1 0 0 0 1 0 0 0 1 43.590197454756307 23.489511841124397 5.8196525476429359 1 rotate no_reflect no_shear #
lump $-1 $-1 $49 $7 #
transform $-1 1 0 0 0 1 0 0 0 1 43.590197454756307 23.489511841124397 5.8196525476429359 1 rotate no_reflect no_shear #
lump $-1 $-1 $50 $8 #
transform $-1 1 0 0 0 1 0 0 0 1 43.590197454756307 23.489511841124397 5.8196525476429359 1 rotate no_reflect no_shear #
lump $-1 $-1 $51 $9 #
transform $-1 1 0 0 0 1 0 0 0 1 43.590197454756307 23.489511841124397 5.8196525476429359 1 rotate no_reflect no_shear #
lump $-1 $-1 $52 $10 #
transform $-1 1 0 0 0 1 0 0 0 1 43.590197454756307 23.489511841124397 5.8196525476429359 1 rotate no_reflect no_shear #
lump $-1 $-1 $53 $11 #
transform $-1 1 0 0 0 1 0 0 0 1 43.590197454756307 23.489511841124397 5.8196525476429359 1 rotate no_reflect no_shear #
lump $-1 $-1 $54 $12 #
transform $-1 1 0 0 0 1 0 0 0 1 43.590197454756307 23.489511841124397 5.8196525476429359 1 rotate no_reflect no_shear #
lump $-1 $-1 $55 $13 #
transform $-1 1 0 0 0 1 0 0 0 1 43.590197454756307 23.489511841124397 5.8196525476429359 1 rotate no_reflect no_shear #
shell $-1 $-1 $-1 $56 $-1 $14 #
shell $-1 $-1 $-1 $57 $-1 $16 #
shell $-1 $-1 $-1 $58 $-1 $18 #
shell $-1 $-1 $-1 $59 $-1 $20 #
shell $-1 $-1 $-1 $60 $-1 $22 #
shell $-1 $-1 $-1 $61 $-1 $24 #
shell $-1 $-1 $-1 $62 $-1 $26 #
shell $-1 $-1 $-1 $63 $-1 $28 #
shell $-1 $-1 $-1 $64 $-1 $30 #
shell $-1 $-1 $-1 $65 $-1 $32 #
shell $-1 $-1 $-1 $66 $-1 $34 #
shell $-1 $-1 $-1 $67 $-1 $36 #
shell $-1 $-1 $-1 $68 $-1 $38 #
shell $-1 $-1 $-1 $69 $-1 $40 #
face $-1 $70 $71 $42 $-1 $72 reversed single #
face $-1 $73 $74 $43 $-1 $75 forward single #
face $-1 $76 $77 $44 $-1 $78 reversed single #
face $-1 $79 $80 $45 $-1 $81 forward single #
face $-1 $82 $83 $46 $-1 $84 forward single #
face $-1 $85 $86 $47 $-1 $87 forward single #
face $-1 $88 $89 $48 $-1 $90 reversed single #
face $-1 $91 $92 $49 $-1 $93 forward single #
face $-1 $94 $95 $50 $-1 $96 forward single #
face $-1 $97 $98 $51 $-1 $99 forward single #
face $-1 $100 $101 $52 $-1 $102 reversed single #
face $-1 $103 $104 $53 $-1 $105 forward single #
face $-1 $106 $107 $54 $-1 $108 forward single #
face $-1 $109 $110 $55 $-1 $111 forward single #
face $-1 $112 $113 $42 $-1 $114 forward single #
loop $-1 $-1 $115 $56 #
plane-surface $-1 0 -23.489511841124397 0 0 1 0 0 0 1 forward_v I I I I #
face $-1 $116 $117 $43 $-1 $118 reversed single #
loop $-1 $-1 $119 $57 #
plane-surface $-1 0 -23.489511841124397 0 0 1 0 0 0 1 forward_v I I I I #
face $-1 $120 $121 $44 $-1 $122 reversed single #
loop $-1 $-1 $123 $58 #
plane-surface $-1 -96.056669499846635 15.255871539511048 69.911996510423293 0 1 0 -0.6018150307709319 0 0.79863550430605224 forward_v I I I I #
face $-1 $124 $125 $45 $-1 $126 forward single #
loop $-1 $127 $128 $59 #
cone-surface $-1 -39.499399922896927 16.902599599833721 2.4964255488998273 0.6018150307709319 0 -0.79863550430605224 0.39931775215302612 0 0.30090751538546595 1 I I 0 1 0.5 forward I I I I #
face $-1 $129 $130 $46 $-1 $131 forward single #
loop $-1 $132 $133 $60 #
cone-surface $-1 -39.499399922896927 19.372691690317723 2.4964255488998273 0.6018150307709319 0 -0.79863550430605224 0.39931775215302612 0 0.30090751538546595 1 I I 0 1 0.5 forward I I I I #
face $-1 $134 $135 $47 $-1 $136 forward single #
loop $-1 $137 $138 $61 #
cone-surface $-1 -39.499399922896927 21.842783780801724 2.4964255488998273 0.6018150307709319 0 -0.79863550430605224 0.39931775215302612 0 0.30090751538546595 1 I I 0 1 0.5 forward I I I I #
face $-1 $139 $140 $48 $-1 $141 reversed single #
loop $-1 $-1 $142 $62 #
plane-surface $-1 37.137609936385118 -4.727379939444404 123.45101676563544 0 -1 0 -0.66913061440640931 0 -0.74314481823134659 forward_v I I I I #
face $-1 $143 $144 $49 $-1 $145 forward single #
loop $-1 $146 $147 $63 #
cone-surface $-1 40.126085451659193 -12.53173344578841 2.6133738951286793 -0.66913061440640931 0 -0.74314481823134659 0.3715724091156733 0 -0.33456530720320465 1 I I 0 1 0.5 forward I I I I #
face $-1 $148 $149 $50 $-1 $150 forward single #
loop $-1 $151 $152 $64 #
cone-surface $-1 40.126085451659193 -9.6051008809094078 2.6133738951286793 -0.66913061440640931 0 -0.74314481823134659 0.3715724091156733 0 -0.33456530720320465 1 I I 0 1 0.5 forward I I I I #
face $-1 $153 $154 $51 $-1 $155 forward single #
loop $-1 $156 $157 $65 #
cone-surface $-1 40.126085451659193 -6.6784683160304041 2.6133738951286793 -0.66913061440640931 0 -0.74314481823134659 0.3715724091156733 0 -0.33456530720320465 1 I I 0 1 0.5 forward I I I I #
face $-1 $158 $159 $52 $-1 $160 reversed single #
loop $-1 $-1 $161 $66 #
plane-surface $-1 37.137609936385118 16.828400621842153 123.45101676563544 0 -1 0 -0.66913061440640931 0 -0.74314481823134659 forward_v I I I I #
face $-1 $162 $163 $53 $-1 $164 forward single #
loop $-1 $165 $166 $67 #
cone-surface $-1 40.126085451659193 9.0240471154981492 2.6133738951286793 -0.66913061440640931 0 -0.74314481823134659 0.3715724091156733 0 -0.33456530720320465 1 I I 0 1 0.5 forward I I I I #
face $-1 $167 $168 $54 $-1 $169 forward single #
loop $-1 $170 $171 $68 #
cone-surface $-1 40.126085451659193 11.950679680377149 2.6133738951286793 -0.66913061440640931 0 -0.74314481823134659 0.3715724091156733 0 -0.33456530720320465 1 I I 0 1 0.5 forward I I I I #
face $-1 $172 $173 $55 $-1 $174 forward single #
loop $-1 $175 $176 $69 #
cone-surface $-1 40.126085451659193 14.877312245256149 2.6133738951286793 -0.66913061440640931 0 -0.74314481823134659 0.3715724091156733 0 -0.33456530720320465 1 I I 0 1 0.5 forward I I I I #
face $-1 $177 $178 $42 $-1 $179 reversed single #
loop $-1 $-1 $180 $70 #
plane-surface $-1 0 0 5.8196525476429359 0 0 1 1 0 0 forward_v I I I I #
coedge $-1 $181 $182 $183 $184 reversed $71 $-1 #
face $-1 $185 $186 $43 $-1 $187 reversed single #
loop $-1 $-1 $188 $73 #
plane-surface $-1 0 0 -5.8196525476429359 0 0 1 1 0 0 forward_v I I I I #
coedge $-1 $189 $190 $191 $192 forward $74 $-1 #
face $-1 $193 $194 $44 $-1 $195 reversed single #
loop $-1 $-1 $196 $76 #
plane-surface $-1 -43.590197454756307 19.372691690317723 0.28663785626389426 -0.6018150307709319 0 0.79863550430605224 0.79863550430605224 0 0.6018150307709319 forward_v I I I I #
coedge $-1 $197 $198 $199 $200 reversed $77 $-1 #
face $-1 $-1 $201 $45 $-1 $202 forward single #
loop $-1 $203 $204 $79 #
cone-surface $-1 -38.929427807546972 16.902599599833721 1.7400470197697331 0.6018150307709319 0 -0.79863550430605224 0.19965887607651306 0 0.15045375769273298 1 I I -0.70710678118654746 0.70710678118654746 0.25 forward I I I I #
loop $-1 $-1 $205 $59 #
coedge $-1 $128 $128 $206 $207 reversed $80 $-1 #
face $-1 $-1 $208 $46 $-1 $209 forward single #
loop $-1 $210 $211 $82 #
cone-surface $-1 -38.929427807546972 19.372691690317723 1.7400470197697331 0.6018150307709319 0 -0.79863550430605224 0.19965887607651306 0 0.15045375769273298 1 I I -0.70710678118654746 0.70710678118654746 0.25 forward I I I I #
loop $-1 $-1 $212 $60 #
coedge $-1 $133 $133 $213 $214 reversed $83 $-1 #
face $-1 $-1 $215 $47 $-1 $216 forward single #
loop $-1 $217 $218 $85 #
cone-surface $-1 -38.929427807546972 21.842783780801724 1.7400470197697331 0.6018150307709319 0 -0.79863550430605224 0.19965887607651306 0 0.15045375769273298 1 I I -0.70710678118654746 0.70710678118654746 0.25 forward I I I I #
loop $-1 $-1 $219 $61 #
coedge $-1 $138 $138 $220 $221 reversed $86 $-1 #
face $-1 $222 $223 $48 $-1 $224 reversed single #
loop $-1 $-1 $225 $88 #
plane-surface $-1 -21.197461273610458 -9.6051008809094078 58.663358037268679 0.66913061440640931 0 0.74314481823134659 0.74314481823134659 0 -0.66913061440640931 forward_v I I I I #
coedge $-1 $226 $227 $228 $229 reversed $89 $-1 #
face $-1 $-1 $230 $49 $-1 $231 forward single #
loop $-1 $232 $233 $91 #
cone-surface $-1 39.544080474826103 -12.53173344578841 1.9669918982414911 -0.66913061440640931 0 -0.74314481823134659 0.18578620455783665 0 -0.16728265360160233 1 I I -0.70710678118654746 0.70710678118654746 0.25 forward I I I I #
loop $-1 $-1 $234 $63 #
coedge $-1 $147 $147 $235 $236 reversed $92 $-1 #
face $-1 $-1 $237 $50 $-1 $238 forward single #
loop $-1 $239 $240 $94 #
cone-surface $-1 39.544080474826103 -9.6051008809094078 1.9669918982414911 -0.66913061440640931 0 -0.74314481823134659 0.18578620455783665 0 -0.16728265360160233 1 I I -0.70710678118654746 0.70710678118654746 0.25 forward I I I I #
loop $-1 $-1 $241 $64 #
coedge $-1 $152 $152 $242 $243 reversed $95 $-1 #
face $-1 $-1 $244 $51 $-1 $245 forward single #
loop $-1 $246 $247 $97 #
cone-surface $-1 39.544080474826103 -6.6784683160304041 1.9669918982414911 -0.66913061440640931 0 -0.74314481823134659 0.18578620455783665 0 -0.16728265360160233 1 I I -0.70710678118654746 0.70710678118654746 0.25 forward I I I I #
loop $-1 $-1 $248 $65 #
coedge $-1 $157 $157 $249 $250 reversed $98 $-1 #
face $-1 $251 $252 $52 $-1 $253 reversed single #
loop $-1 $-1 $254 $100 #
plane-surface $-1 -21.197461273610458 11.950679680377149 58.663358037268679 0.66913061440640931 0 0.74314481823134659 0.74314481823134659 0 -0.66913061440640931 forward_v I I I I #
coedge $-1 $255 $256 $257 $258 reversed $101 $-1 #
face $-1 $-1 $259 $53 $-1 $260 forward single #
loop $-1 $261 $262 $103 #
cone-surface $-1 39.544080474826103 9.0240471154981492 1.9669918982414911 -0.66913061440640931 0 -0.74314481823134659 0.18578620455783665 0 -0.16728265360160233 1 I I -0.70710678118654746 0.70710678118654746 0.25 forward I I I I #
loop $-1 $-1 $263 $67 #
coedge $-1 $166 $166 $264 $265 reversed $104 $-1 #
face $-1 $-1 $266 $54 $-1 $267 forward single #
loop $-1 $268 $269 $106 #
cone-surface $-1 39.544080474826103 11.950679680377149 1.9669918982414911 -0.66913061440640931 0 -0.74314481823134659 0.18578620455783665 0 -0.16728265360160233 1 I I -0.70710678118654746 0.70710678118654746 0.25 forward I I I I #
loop $-1 $-1 $270 $68 #
coedge $-1 $171 $171 $271 $272 reversed $107 $-1 #
face $-1 $-1 $273 $55 $-1 $274 forward single #
loop $-1 $275 $276 $109 #
cone-surface $-1 39.544080474826103 14.877312245256149 1.9669918982414911 -0.66913061440640931 0 -0.74314481823134659 0.18578620455783665 0 -0.16728265360160233 1 I I -0.70710678118654746 0.70710678118654746 0.25 forward I I I I #
loop $-1 $-1 $277 $69 #
coedge $-1 $176 $176 $278 $279 reversed $110 $-1 #
face $-1 $280 $281 $42 $-1 $282 reversed single #
loop $-1 $-1 $283 $112 #
plane-surface $-1 0 0 -5.8196525476429359 0 0 1 1 0 0 forward_v I I I I #
coedge $-1 $284 $285 $286 $287 forward $113 $-1 #
coedge $-1 $288 $115 $289 $290 reversed $71 $-1 #
coedge $-1 $115 $288 $291 $292 forward $71 $-1 #
coedge $-1 $293 $283 $115 $184 forward $178 $-1 #
edge $-1 $294 -43.590197454756307 $295 43.590197454756307 $115 $296 forward 7 unknown #
face $-1 $297 $298 $43 $-1 $299 reversed single #
loop $-1 $-1 $300 $116 #
plane-surface $-1 -33.450892359470437 -27.356974400800077 0 0 1 0 0 0 1 forward_v I I I I #
coedge $-1 $301 $302 $190 $303 forward $117 $-1 #
coedge $-1 $304 $119 $305 $306 reversed $74 $-1 #
coedge $-1 $119 $304 $188 $303 reversed $74 $-1 #
coedge $-1 $307 $308 $119 $192 reversed $298 $-1 #
edge $-1 $309 -5.8196525476429359 $310 5.8196525476429359 $191 $311 forward 7 unknown #
face $-1 $312 $313 $44 $-1 $314 forward single #
loop $-1 $-1 $315 $120 #
plane-surface $-1 -43.590197454756307 0 0 1 0 0 0 0 -1 forward_v I I I I #
coedge $-1 $316 $317 $318 $319 reversed $121 $-1 #
coedge $-1 $198 $123 $320 $321 reversed $77 $-1 #
coedge $-1 $123 $197 $316 $322 reversed $77 $-1 #
coedge $-1 $318 $323 $123 $200 forward $313 $-1 #
edge $-1 $324 4.4381372951670102 $325 11.780695643571313 $199 $326 forward 7 unknown #
loop $-1 $-1 $206 $124 #
plane-surface $-1 -43.590197454756307 19.372691690317723 0.28663785626389426 -0.6018150307709319 0 0.79863550430605224 0.79863550430605224 0 0.6018150307709319 forward_v I I I I #
loop $-1 $-1 $327 $79 #
coedge $-1 $204 $204 $205 $328 reversed $125 $-1 #
coedge $-1 $205 $205 $204 $328 forward $127 $-1 #
coedge $-1 $206 $206 $128 $207 forward $201 $-1 #
edge $-1 $329 0 $329 6.2831853071796004 $206 $330 forward 7 unknown #
loop $-1 $-1 $213 $129 #
plane-surface $-1 -43.590197454756307 19.372691690317723 0.28663785626389426 -0.6018150307709319 0 0.79863550430605224 0.79863550430605224 0 0.6018150307709319 forward_v I I I I #
loop $-1 $-1 $331 $82 #
coedge $-1 $211 $211 $212 $332 reversed $130 $-1 #
coedge $-1 $212 $212 $211 $332 forward $132 $-1 #
coedge $-1 $213 $213 $133 $214 forward $208 $-1 #
edge $-1 $333 0 $333 6.2831853071796004 $213 $334 forward 7 unknown #
loop $-1 $-1 $220 $134 #
plane-surface $-1 -43.590197454756307 19.372691690317723 0.28663785626389426 -0.6018150307709319 0 0.79863550430605224 0.79863550430605224 0 0.6018150307709319 forward_v I I I I #
loop $-1 $-1 $335 $85 #
coedge $-1 $218 $218 $219 $336 reversed $135 $-1 #
coedge $-1 $219 $219 $218 $336 forward $137 $-1 #
coedge $-1 $220 $220 $138 $221 forward $215 $-1 #
edge $-1 $337 0 $337 6.2831853071796004 $220 $338 forward 7 unknown #
face $-1 $339 $340 $48 $-1 $341 forward single #
loop $-1 $-1 $342 $139 #
plane-surface $-1 37.137609936385118 -14.482821822374412 123.45101676563544 0 1 0 0.66913061440640931 0 0.74314481823134659 forward_v I I I I #
coedge $-1 $343 $344 $345 $346 reversed $140 $-1 #
coedge $-1 $227 $142 $347 $348 reversed $89 $-1 #
coedge $-1 $142 $226 $343 $349 reversed $89 $-1 #
coedge $-1 $345 $350 $142 $229 forward $340 $-1 #
edge $-1 $351 -25.021392486563748 $352 -18.922613126832516 $228 $353 forward 7 unknown #
loop $-1 $-1 $235 $143 #
plane-surface $-1 -21.197461273610458 -9.6051008809094078 58.663358037268679 0.66913061440640931 0 0.74314481823134659 0.74314481823134659 0 -0.66913061440640931 forward_v I I I I #
loop $-1 $-1 $354 $91 #
coedge $-1 $233 $233 $234 $355 reversed $144 $-1 #
coedge $-1 $234 $234 $233 $355 forward $146 $-1 #
coedge $-1 $235 $235 $147 $236 forward $230 $-1 #
edge $-1 $356 0 $356 6.2831853071796004 $235 $357 forward 7 unknown #
loop $-1 $-1 $242 $148 #
plane-surface $-1 -21.197461273610458 -9.6051008809094078 58.663358037268679 0.66913061440640931 0 0.74314481823134659 0.74314481823134659 0 -0.66913061440640931 forward_v I I I I #
loop $-1 $-1 $358 $94 #
coedge $-1 $240 $240 $241 $359 reversed $149 $-1 #
coedge $-1 $241 $241 $240 $359 forward $151 $-1 #
coedge $-1 $242 $242 $152 $243 forward $237 $-1 #
edge $-1 $360 0 $360 6.2831853071796004 $242 $361 forward 7 unknown #
loop $-1 $-1 $249 $153 #
plane-surface $-1 -21.197461273610458 -9.6051008809094078 58.663358037268679 0.66913061440640931 0 0.74314481823134659 0.74314481823134659 0 -0.66913061440640931 forward_v I I I I #
loop $-1 $-1 $362 $97 #
coedge $-1 $247 $247 $248 $363 reversed $154 $-1 #
coedge $-1 $248 $248 $247 $363 forward $156 $-1 #
coedge $-1 $249 $249 $157 $250 forward $244 $-1 #
edge $-1 $364 0 $364 6.2831853071796004 $249 $365 forward 7 unknown #
face $-1 $366 $367 $52 $-1 $368 reversed single #
loop $-1 $-1 $369 $158 #
plane-surface $-1 37.137609936385118 7.0729587389121455 123.45101676563544 0 1 0 0.66913061440640931 0 0.74314481823134659 forward_v I I I I #
coedge $-1 $370 $371 $372 $373 reversed $159 $-1 #
coedge $-1 $256 $161 $374 $375 reversed $101 $-1 #
coedge $-1 $161 $255 $370 $376 reversed $101 $-1 #
coedge $-1 $372 $377 $161 $258 forward $378 $-1 #
edge $-1 $379 -25.021392486563748 $380 -18.922613126832516 $257 $381 forward 7 unknown #
loop $-1 $-1 $264 $162 #
plane-surface $-1 -21.197461273610458 11.950679680377149 58.663358037268679 0.66913061440640931 0 0.74314481823134659 0.74314481823134659 0 -0.66913061440640931 forward_v I I I I #
loop $-1 $-1 $382 $103 #
coedge $-1 $262 $262 $263 $383 reversed $163 $-1 #
coedge $-1 $263 $263 $262 $383 forward $165 $-1 #
coedge $-1 $264 $264 $166 $265 forward $259 $-1 #
edge $-1 $384 0 $384 6.2831853071796004 $264 $385 forward 7 unknown #
loop $-1 $-1 $271 $167 #
plane-surface $-1 -21.197461273610458 11.950679680377149 58.663358037268679 0.66913061440640931 0 0.74314481823134659 0.74314481823134659 0 -0.66913061440640931 forward_v I I I I #
loop $-1 $-1 $386 $106 #
coedge $-1 $269 $269 $270 $387 reversed $168 $-1 #
coedge $-1 $270 $270 $269 $387 forward $170 $-1 #
coedge $-1 $271 $271 $171 $272 forward $266 $-1 #
edge $-1 $388 0 $388 6.2831853071796004 $271 $389 forward 7 unknown #
loop $-1 $-1 $278 $172 #
plane-surface $-1 -21.197461273610458 11.950679680377149 58.663358037268679 0.66913061440640931 0 0.74314481823134659 0.74314481823134659 0 -0.66913061440640931 forward_v I I I I #
loop $-1 $-1 $390 $109 #
coedge $-1 $276 $276 $277 $391 reversed $173 $-1 #
coedge $-1 $277 $277 $276 $391 forward $175 $-1 #
coedge $-1 $278 $278 $176 $279 forward $273 $-1 #
edge $-1 $392 0 $392 6.2831853071796004 $278 $393 forward 7 unknown #
face $-1 $394 $395 $42 $-1 $396 reversed single #
loop $-1 $-1 $397 $177 #
plane-surface $-1 -43.590197454756307 0 0 1 0 0 0 0 -1 forward_v I I I I #
coedge $-1 $183 $398 $399 $400 forward $178 $-1 #
coedge $-1 $401 $180 $402 $403 forward $113 $-1 #
coedge $-1 $180 $401 $288 $404 forward $113 $-1 #
coedge $-1 $289 $405 $180 $287 reversed $406 $-1 #
edge $-1 $407 -23.489511841124397 $408 23.489511841124397 $286 $409 forward 7 unknown #
coedge $-1 $182 $181 $285 $404 reversed $71 $-1 #
coedge $-1 $399 $286 $181 $290 forward $406 $-1 #
edge $-1 $407 -5.8196525476429359 $294 5.8196525476429359 $289 $410 forward 7 unknown #
coedge $-1 $411 $412 $182 $292 reversed $281 $-1 #
edge $-1 $413 -5.8196525476429359 $295 5.8196525476429359 $291 $414 forward 7 unknown #
coedge $-1 $398 $183 $412 $415 forward $178 $-1 #
vertex $-1 $290 $416 #
vertex $-1 $415 $417 #
straight-curve $-1 0 -23.489511841124397 -5.8196525476429359 -1 0 0 I I #
face $-1 $418 $419 $43 $-1 $420 reversed single #
loop $-1 $-1 $191 $185 #
plane-surface $-1 -34.950892359470437 -25.423243120962237 0 1 0 0 0 0 -1 forward_v I I I I #
coedge $-1 $421 $422 $423 $424 forward $186 $-1 #
coedge $-1 $425 $188 $426 $427 forward $117 $-1 #
coedge $-1 $188 $425 $307 $428 forward $117 $-1 #
edge $-1 $309 -34.950892359470437 $429 -31.950892359470437 $188 $430 forward 7 unknown #
coedge $-1 $190 $189 $431 $432 forward $74 $-1 #
coedge $-1 $433 $434 $189 $306 forward $435 $-1 #
edge $-1 $436 31.950892359470437 $310 34.950892359470437 $305 $437 forward 7 unknown #
coedge $-1 $423 $191 $302 $428 reversed $298 $-1 #
coedge $-1 $191 $423 $433 $438 reversed $298 $-1 #
vertex $-1 $303 $439 #
vertex $-1 $438 $440 #
straight-curve $-1 -34.950892359470437 -23.489511841124397 0 0 0 1 I I #
face $-1 $-1 $441 $44 $-1 $442 reversed single #
loop $-1 $-1 $318 $193 #
plane-surface $-1 0 0 5.8196525476429359 0 0 1 1 0 0 forward_v I I I I #
coedge $-1 $320 $443 $444 $445 forward $194 $-1 #
coedge $-1 $444 $196 $198 $322 forward $121 $-1 #
coedge $-1 $196 $444 $446 $447 reversed $121 $-1 #
coedge $-1 $448 $199 $196 $319 forward $313 $-1 #
edge $-1 $325 5.5695256943521869 $449 13.803165995965536 $318 $450 forward 7 unknown #
coedge $-1 $451 $315 $197 $321 forward $194 $-1 #
edge $-1 $452 -34.669360398947752 $324 -29.136345707568712 $320 $453 forward 7 unknown #
edge $-1 $325 -9.193879196222781 $452 0 $198 $454 forward 7 unknown #
coedge $-1 $199 $448 $451 $455 forward $313 $-1 #
vertex $-1 $321 $456 #
vertex $-1 $200 $457 #
straight-curve $-1 -48.028334749923317 15.255871539511048 5.8196525476429386 1 0 0 I I #
coedge $-1 $327 $327 $-1 $458 reversed $203 $-1 #
edge $-1 $459 0 $459 6.2831853071796004 $204 $460 forward 7 unknown #
vertex $-1 $207 $461 #
ellipse-curve $-1 -39.918918280554159 16.902599599833721 3.0531452019534155 -0.6018150307709319 0 0.79863550430605224 0.39931775215302612 0 0.30090751538546595 1 I I #
coedge $-1 $331 $331 $-1 $462 reversed $210 $-1 #
edge $-1 $463 0 $463 6.2831853071796004 $211 $464 forward 7 unknown #
vertex $-1 $214 $465 #
ellipse-curve $-1 -39.918918280554159 19.372691690317723 3.0531452019534155 -0.6018150307709319 0 0.79863550430605224 0.39931775215302612 0 0.30090751538546595 1 I I #
coedge $-1 $335 $335 $-1 $466 reversed $217 $-1 #
edge $-1 $467 0 $467 6.2831853071796004 $218 $468 forward 7 unknown #
vertex $-1 $221 $469 #
ellipse-curve $-1 -39.918918280554159 21.842783780801724 3.0531452019534155 -0.6018150307709319 0 0.79863550430605224 0.39931775215302612 0 0.30090751538546595 1 I I #
face $-1 $-1 $470 $48 $-1 $471 reversed single #
loop $-1 $-1 $228 $222 #
plane-surface $-1 0 0 5.8196525476429359 0 0 1 1 0 0 forward_v I I I I #
coedge $-1 $472 $473 $474 $475 reversed $223 $-1 #
coedge $-1 $476 $225 $227 $349 forward $140 $-1 #
coedge $-1 $225 $476 $472 $477 forward $140 $-1 #
coedge $-1 $474 $228 $225 $346 forward $340 $-1 #
edge $-1 $352 -0.075170501010299873 $478 9.6802713819197077 $345 $479 forward 7 unknown #
coedge $-1 $480 $481 $226 $348 forward $470 $-1 #
edge $-1 $482 -61.397221555544618 $351 -55.905855835174783 $347 $483 forward 7 unknown #
edge $-1 $352 78.973677712390696 $482 87.180394909512614 $227 $484 forward 7 unknown #
coedge $-1 $228 $474 $480 $485 forward $340 $-1 #
vertex $-1 $229 $486 #
vertex $-1 $229 $487 #
straight-curve $-1 18.568804968192559 -4.727379939444404 5.8196525476429386 -1 0 0 I I #
coedge $-1 $354 $354 $-1 $488 reversed $232 $-1 #
edge $-1 $489 0 $489 6.2831853071796004 $233 $490 forward 7 unknown #
vertex $-1 $236 $491 #
ellipse-curve $-1 40.540807774890681 -12.53173344578841 3.0739696874580282 0.66913061440640931 0 0.74314481823134659 0.3715724091156733 0 -0.33456530720320465 1 I I #
coedge $-1 $358 $358 $-1 $492 reversed $239 $-1 #
edge $-1 $493 0 $493 6.2831853071796004 $240 $494 forward 7 unknown #
vertex $-1 $243 $495 #
ellipse-curve $-1 40.540807774890681 -9.6051008809094078 3.0739696874580282 0.66913061440640931 0 0.74314481823134659 0.3715724091156733 0 -0.33456530720320465 1 I I #
coedge $-1 $362 $362 $-1 $496 reversed $246 $-1 #
edge $-1 $497 0 $497 6.2831853071796004 $247 $498 forward 7 unknown #
vertex $-1 $250 $499 #
ellipse-curve $-1 40.540807774890681 -6.6784683160304041 3.0739696874580282 0.66913061440640931 0 0.74314481823134659 0.3715724091156733 0 -0.33456530720320465 1 I I #
face $-1 $-1 $378 $52 $-1 $500 forward single #
loop $-1 $-1 $501 $251 #
plane-surface $-1 43.590197454756307 0 0 -1 0 0 0 0 1 forward_v I I I I #
coedge $-1 $502 $503 $504 $505 reversed $252 $-1 #
coedge $-1 $506 $254 $256 $376 forward $159 $-1 #
coedge $-1 $254 $506 $502 $507 forward $159 $-1 #
coedge $-1 $504 $257 $254 $373 forward $378 $-1 #
edge $-1 $380 -10.853060781653578 $508 -1.0976188987235709 $372 $509 forward 7 unknown #
coedge $-1 $510 $511 $255 $375 forward $367 $-1 #
edge $-1 $512 -61.397221555544618 $379 -55.905855835174783 $374 $513 forward 7 unknown #
edge $-1 $380 78.973677712390696 $512 87.180394909512614 $256 $514 forward 7 unknown #
coedge $-1 $257 $504 $510 $515 forward $378 $-1 #
loop $-1 $-1 $504 $366 #
vertex $-1 $375 $516 #
vertex $-1 $258 $517 #
straight-curve $-1 18.568804968192559 16.828400621842153 5.8196525476429386 -1 0 0 I I #
coedge $-1 $382 $382 $-1 $518 reversed $261 $-1 #
edge $-1 $519 0 $519 6.2831853071796004 $262 $520 forward 7 unknown #
vertex $-1 $265 $521 #
ellipse-curve $-1 40.540807774890681 9.0240471154981492 3.0739696874580282 0.66913061440640931 0 0.74314481823134659 0.3715724091156733 0 -0.33456530720320465 1 I I #
coedge $-1 $386 $386 $-1 $522 reversed $268 $-1 #
edge $-1 $523 0 $523 6.2831853071796004 $269 $524 forward 7 unknown #
vertex $-1 $272 $525 #
ellipse-curve $-1 40.540807774890681 11.950679680377149 3.0739696874580282 0.66913061440640931 0 0.74314481823134659 0.3715724091156733 0 -0.33456530720320465 1 I I #
coedge $-1 $390 $390 $-1 $526 reversed $275 $-1 #
edge $-1 $527 0 $527 6.2831853071796004 $276 $528 forward 7 unknown #
vertex $-1 $279 $529 #
ellipse-curve $-1 40.540807774890681 14.877312245256149 3.0739696874580282 0.66913061440640931 0 0.74314481823134659 0.3715724091156733 0 -0.33456530720320465 1 I I #
face $-1 $-1 $406 $42 $-1 $530 reversed single #
loop $-1 $-1 $531 $280 #
plane-surface $-1 0 23.489511841124397 0 0 -1 0 0 0 -1 forward_v I I I I #
coedge $-1 $412 $411 $532 $533 forward $281 $-1 #
coedge $-1 $283 $293 $534 $535 forward $178 $-1 #
coedge $-1 $405 $289 $283 $400 reversed $406 $-1 #
edge $-1 $536 -23.489511841124397 $294 23.489511841124397 $399 $537 forward 7 unknown #
coedge $-1 $285 $284 $411 $538 forward $113 $-1 #
coedge $-1 $531 $532 $284 $403 reversed $395 $-1 #
edge $-1 $408 -43.590197454756307 $539 43.590197454756307 $402 $540 forward 7 unknown #
edge $-1 $413 -43.590197454756307 $407 43.590197454756307 $288 $541 forward 7 unknown #
coedge $-1 $286 $399 $531 $542 reversed $406 $-1 #
loop $-1 $-1 $289 $394 #
vertex $-1 $287 $543 #
vertex $-1 $287 $544 #
straight-curve $-1 43.590197454756307 0 5.8196525476429359 0 1 0 I I #
straight-curve $-1 43.590197454756307 -23.489511841124397 0 0 0 -1 I I #
coedge $-1 $397 $291 $401 $538 reversed $281 $-1 #
coedge $-1 $291 $397 $293 $415 reversed $281 $-1 #
vertex $-1 $538 $545 #
straight-curve $-1 -43.590197454756307 -23.489511841124397 0 0 0 -1 I I #
edge $-1 $295 -23.489511841124397 $546 23.489511841124397 $412 $547 forward 7 unknown #
point $-1 43.590197454756307 -23.489511841124397 -5.8196525476429359 #
point $-1 -43.590197454756307 -23.489511841124397 -5.8196525476429359 #
face $-1 $-1 $435 $43 $-1 $548 forward single #
loop $-1 $-1 $549 $297 #
plane-surface $-1 -31.950892359470437 -25.423243120962237 0 -1 0 0 0 0 1 forward_v I I I I #
coedge $-1 $550 $300 $425 $551 reversed $186 $-1 #
coedge $-1 $300 $550 $552 $553 reversed $186 $-1 #
coedge $-1 $308 $307 $300 $424 reversed $298 $-1 #
edge $-1 $554 -5.8196525476429359 $555 5.8196525476429359 $423 $556 forward 7 unknown #
coedge $-1 $302 $301 $421 $551 forward $117 $-1 #
coedge $-1 $431 $549 $301 $427 reversed $419 $-1 #
edge $-1 $429 -1.9337312798378399 $557 1.9337312798378399 $426 $558 forward 7 unknown #
edge $-1 $555 -1.9337312798378399 $309 1.9337312798378399 $307 $559 forward 7 unknown #
vertex $-1 $427 $560 #
straight-curve $-1 0 -23.489511841124397 -5.8196525476429359 1 0 0 I I #
coedge $-1 $561 $426 $304 $432 reversed $419 $-1 #
edge $-1 $436 -5.8196525476429359 $429 5.8196525476429359 $431 $562 forward 7 unknown #
coedge $-1 $552 $305 $308 $438 forward $435 $-1 #
coedge $-1 $305 $552 $561 $563 forward $435 $-1 #
loop $-1 $-1 $305 $418 #
vertex $-1 $306 $564 #
straight-curve $-1 0 -23.489511841124397 5.8196525476429359 -1 0 0 I I #
edge $-1 $310 -1.9337312798378399 $554 1.9337312798378399 $308 $565 forward 7 unknown #
point $-1 -34.950892359470437 -23.489511841124397 -5.8196525476429359 #
point $-1 -34.950892359470437 -23.489511841124397 5.8196525476429359 #
loop $-1 $-1 $446 $312 #
plane-surface $-1 0 23.489511841124397 0 0 -1 0 0 0 -1 forward_v I I I I #
coedge $-1 $315 $451 $566 $567 forward $194 $-1 #
coedge $-1 $317 $316 $315 $445 reversed $121 $-1 #
edge $-1 $568 -13.803165995965536 $452 -5.5695256943521869 $315 $569 forward 7 unknown #
coedge $-1 $566 $570 $317 $447 forward $441 $-1 #
edge $-1 $449 8.126208982173285 $568 17.320088178396066 $446 $571 forward 7 unknown #
coedge $-1 $323 $318 $570 $572 forward $313 $-1 #
vertex $-1 $572 $573 #
straight-curve $-1 -36.247639106352011 9.6863458451588613 5.8196525476429368 0 1 0 I I #
coedge $-1 $443 $320 $323 $455 reversed $194 $-1 #
vertex $-1 $321 $574 #
straight-curve $-1 -43.590197454756307 15.255871539511048 34.955998255211647 0 0 1 I I #
straight-curve $-1 -43.590197454756307 15.255871539511048 0.28663785626389426 -0.79863550430605224 0 -0.6018150307709319 I I #
edge $-1 $575 -23.489511841124397 $324 -15.255871539511048 $451 $576 forward 7 unknown #
point $-1 -43.590197454756307 15.255871539511048 5.8196525476429359 #
point $-1 -36.247639106352004 15.255871539511048 5.8196525476429359 #
edge $-1 $577 1 $577 0 $327 $-1 forward 7 unknown #
vertex $-1 $328 $578 #
ellipse-curve $-1 -39.079881565239702 16.902599599833721 1.9397058958462461 -0.6018150307709319 0 0.79863550430605224 0.39931775215302612 0 0.30090751538546595 1 I I #
point $-1 -39.519600528401128 16.902599599833721 3.3540527173388739 #
edge $-1 $579 1 $579 0 $331 $-1 forward 7 unknown #
vertex $-1 $332 $580 #
ellipse-curve $-1 -39.079881565239702 19.372691690317723 1.9397058958462461 -0.6018150307709319 0 0.79863550430605224 0.39931775215302612 0 0.30090751538546595 1 I I #
point $-1 -39.519600528401128 19.372691690317723 3.3540527173388739 #
edge $-1 $581 1 $581 0 $335 $-1 forward 7 unknown #
vertex $-1 $336 $582 #
ellipse-curve $-1 -39.079881565239702 21.842783780801724 1.9397058958462461 -0.6018150307709319 0 0.79863550430605224 0.39931775215302612 0 0.30090751538546595 1 I I #
point $-1 -39.519600528401128 21.842783780801724 3.3540527173388739 #
loop $-1 $-1 $347 $339 #
plane-surface $-1 43.590197454756307 0 0 -1 0 0 0 0 1 forward_v I I I I #
coedge $-1 $473 $342 $344 $477 reversed $223 $-1 #
coedge $-1 $342 $472 $583 $584 reversed $223 $-1 #
coedge $-1 $350 $345 $342 $475 forward $340 $-1 #
edge $-1 $478 18.922613126832516 $585 25.021392486563748 $474 $586 forward 7 unknown #
coedge $-1 $344 $343 $481 $587 reversed $140 $-1 #
edge $-1 $588 -87.180394909512614 $478 -78.973677712390696 $472 $589 forward 7 unknown #
vertex $-1 $346 $590 #
straight-curve $-1 37.491418095025082 -4.8025504404547039 5.8196525476429315 0 -1 0 I I #
coedge $-1 $583 $347 $350 $485 reversed $470 $-1 #
coedge $-1 $347 $583 $476 $587 forward $470 $-1 #
vertex $-1 $348 $591 #
straight-curve $-1 43.590197454756307 -4.727379939444404 61.725508382817722 0 0 1 I I #
straight-curve $-1 -21.197461273610458 -4.727379939444404 58.663358037268679 0.74314481823134659 0 -0.66913061440640931 I I #
edge $-1 $585 -14.482821822374412 $351 -4.727379939444404 $480 $592 forward 7 unknown #
point $-1 43.590197454756307 -4.727379939444404 5.8196525476429359 #
point $-1 37.491418095025075 -4.727379939444404 5.8196525476429386 #
edge $-1 $593 1 $593 0 $354 $-1 forward 7 unknown #
vertex $-1 $355 $594 #
ellipse-curve $-1 39.711363128427706 -12.53173344578841 2.1527781027993278 0.66913061440640931 0 0.74314481823134659 0.3715724091156733 0 -0.33456530720320465 1 I I #
point $-1 40.912380184006352 -12.53173344578841 2.7394043802548262 #
edge $-1 $595 1 $595 0 $358 $-1 forward 7 unknown #
vertex $-1 $359 $596 #
ellipse-curve $-1 39.711363128427706 -9.6051008809094078 2.1527781027993278 0.66913061440640931 0 0.74314481823134659 0.3715724091156733 0 -0.33456530720320465 1 I I #
point $-1 40.912380184006352 -9.6051008809094078 2.7394043802548262 #
edge $-1 $597 1 $597 0 $362 $-1 forward 7 unknown #
vertex $-1 $363 $598 #
ellipse-curve $-1 39.711363128427706 -6.6784683160304041 2.1527781027993278 0.66913061440640931 0 0.74314481823134659 0.3715724091156733 0 -0.33456530720320465 1 I I #
point $-1 40.912380184006352 -6.6784683160304041 2.7394043802548262 #
plane-surface $-1 0 0 5.8196525476429359 0 0 1 1 0 0 forward_v I I I I #
coedge $-1 $511 $510 $503 $599 forward $367 $-1 #
coedge $-1 $503 $369 $371 $507 reversed $252 $-1 #
coedge $-1 $369 $502 $501 $599 reversed $252 $-1 #
coedge $-1 $377 $372 $369 $505 forward $378 $-1 #
edge $-1 $508 18.922613126832516 $600 25.021392486563748 $504 $601 forward 7 unknown #
coedge $-1 $371 $370 $511 $602 reversed $159 $-1 #
edge $-1 $603 -87.180394909512614 $508 -78.973677712390696 $502 $604 forward 7 unknown #
vertex $-1 $373 $605 #
straight-curve $-1 37.491418095025082 5.9753398401885747 5.8196525476429315 0 -1 0 I I #
coedge $-1 $501 $374 $377 $515 reversed $367 $-1 #
coedge $-1 $374 $501 $506 $602 forward $367 $-1 #
vertex $-1 $375 $606 #
straight-curve $-1 43.590197454756307 16.828400621842153 61.725508382817722 0 0 1 I I #
straight-curve $-1 -21.197461273610458 16.828400621842153 58.663358037268679 0.74314481823134659 0 -0.66913061440640931 I I #
edge $-1 $600 7.0729587389121455 $379 16.828400621842153 $510 $607 forward 7 unknown #
point $-1 43.590197454756307 16.828400621842153 5.8196525476429359 #
point $-1 37.491418095025075 16.828400621842153 5.8196525476429386 #
edge $-1 $608 1 $608 0 $382 $-1 forward 7 unknown #
vertex $-1 $383 $609 #
ellipse-curve $-1 39.711363128427706 9.0240471154981492 2.1527781027993278 0.66913061440640931 0 0.74314481823134659 0.3715724091156733 0 -0.33456530720320465 1 I I #
point $-1 40.912380184006352 9.0240471154981492 2.7394043802548262 #
edge $-1 $610 1 $610 0 $386 $-1 forward 7 unknown #
vertex $-1 $387 $611 #
ellipse-curve $-1 39.711363128427706 11.950679680377149 2.1527781027993278 0.66913061440640931 0 0.74314481823134659 0.3715724091156733 0 -0.33456530720320465 1 I I #
point $-1 40.912380184006352 11.950679680377149 2.7394043802548262 #
edge $-1 $612 1 $612 0 $390 $-1 forward 7 unknown #
vertex $-1 $391 $613 #
ellipse-curve $-1 39.711363128427706 14.877312245256149 2.1527781027993278 0.66913061440640931 0 0.74314481823134659 0.3715724091156733 0 -0.33456530720320465 1 I I #
point $-1 40.912380184006352 14.877312245256149 2.7394043802548262 #
plane-surface $-1 43.590197454756307 0 0 -1 0 0 0 0 1 forward_v I I I I #
coedge $-1 $534 $402 $405 $542 forward $395 $-1 #
coedge $-1 $402 $534 $397 $533 reversed $395 $-1 #
edge $-1 $539 -5.8196525476429359 $546 5.8196525476429359 $532 $614 forward 7 unknown #
coedge $-1 $532 $531 $398 $535 reversed $395 $-1 #
edge $-1 $546 -43.590197454756307 $536 43.590197454756307 $534 $615 forward 7 unknown #
vertex $-1 $400 $616 #
straight-curve $-1 43.590197454756307 0 -5.8196525476429359 0 -1 0 I I #
edge $-1 $539 -23.489511841124397 $413 23.489511841124397 $411 $617 forward 7 unknown #
vertex $-1 $403 $618 #
straight-curve $-1 0 23.489511841124397 5.8196525476429359 -1 0 0 I I #
straight-curve $-1 0 -23.489511841124397 5.8196525476429359 1 0 0 I I #
edge $-1 $408 -5.8196525476429359 $536 5.8196525476429359 $405 $619 forward 7 unknown #
point $-1 43.590197454756307 -23.489511841124397 5.8196525476429359 #
point $-1 43.590197454756307 23.489511841124397 5.8196525476429359 #
point $-1 -43.590197454756307 -23.489511841124397 5.8196525476429359 #
vertex $-1 $535 $620 #
straight-curve $-1 -43.590197454756307 0 -5.8196525476429359 0 1 0 I I #
plane-surface $-1 0 0 5.8196525476429359 0 0 1 1 0 0 forward_v I I I I #
coedge $-1 $426 $561 $550 $621 forward $419 $-1 #
coedge $-1 $422 $421 $549 $621 reversed $186 $-1 #
edge $-1 $557 -1.5 $555 1.5 $421 $622 forward 7 unknown #
coedge $-1 $434 $433 $422 $553 forward $435 $-1 #
edge $-1 $554 -1.5 $623 1.5 $422 $624 forward 7 unknown #
vertex $-1 $438 $625 #
vertex $-1 $428 $626 #
straight-curve $-1 -34.950892359470437 -27.356974400800077 0 0 0 -1 I I #
vertex $-1 $621 $627 #
straight-curve $-1 -31.950892359470437 -25.423243120962237 -5.8196525476429359 0 -1 0 I I #
straight-curve $-1 -34.950892359470437 -25.423243120962237 -5.8196525476429359 0 1 0 I I #
point $-1 -31.950892359470437 -23.489511841124397 -5.8196525476429359 #
coedge $-1 $549 $431 $434 $563 reversed $419 $-1 #
straight-curve $-1 -31.950892359470437 -23.489511841124397 0 0 0 -1 I I #
edge $-1 $623 -1.9337312798378399 $436 1.9337312798378399 $561 $628 forward 7 unknown #
point $-1 -31.950892359470437 -23.489511841124397 5.8196525476429359 #
straight-curve $-1 -34.950892359470437 -25.423243120962237 5.8196525476429359 0 -1 0 I I #
coedge $-1 $570 $446 $443 $567 reversed $441 $-1 #
edge $-1 $575 -5.8196525476429359 $568 -0.28663785626389426 $566 $629 forward 7 unknown #
vertex $-1 $447 $630 #
straight-curve $-1 -43.590197454756307 9.6863458451588613 0.28663785626389626 0 -1 0 I I #
coedge $-1 $446 $566 $448 $572 reversed $441 $-1 #
straight-curve $-1 -29.757760097777673 23.489511841124397 10.710127256300575 -0.79863550430605224 0 -0.6018150307709319 I I #
edge $-1 $449 36.247639106352004 $575 43.590197454756307 $570 $631 forward 7 unknown #
point $-1 -36.247639106352004 23.489511841124397 5.8196525476429359 #
point $-1 -43.590197454756307 15.255871539511048 0.28663785626389426 #
vertex $-1 $572 $632 #
straight-curve $-1 -43.590197454756307 0 5.8196525476429359 0 -1 0 I I #
vertex $-1 $458 $633 #
point $-1 -38.680563813086678 16.902599599833721 2.240613411231712 #
vertex $-1 $462 $634 #
point $-1 -38.680563813086678 19.372691690317723 2.240613411231712 #
vertex $-1 $466 $635 #
point $-1 -38.680563813086678 21.842783780801724 2.240613411231712 #
coedge $-1 $481 $480 $473 $584 forward $470 $-1 #
edge $-1 $585 55.905855835174783 $588 61.397221555544618 $583 $636 forward 7 unknown #
vertex $-1 $485 $637 #
straight-curve $-1 18.568804968192559 -14.482821822374412 5.8196525476429386 1 0 0 I I #
edge $-1 $588 -9.6802713819197077 $482 0.075170501010299873 $481 $638 forward 7 unknown #
vertex $-1 $587 $639 #
straight-curve $-1 -21.197461273610458 -14.482821822374412 58.663358037268679 -0.74314481823134659 0 0.66913061440640931 I I #
point $-1 37.491418095025075 -14.482821822374412 5.8196525476429386 #
point $-1 43.590197454756307 -4.727379939444404 0.32828682727310365 #
straight-curve $-1 43.590197454756307 0 5.8196525476429359 0 1 0 I I #
vertex $-1 $488 $640 #
point $-1 40.082935537543378 -12.53173344578841 1.8182127955961231 #
vertex $-1 $492 $641 #
point $-1 40.082935537543378 -9.6051008809094078 1.8182127955961231 #
vertex $-1 $496 $642 #
point $-1 40.082935537543378 -6.6784683160304041 1.8182127955961231 #
edge $-1 $600 55.905855835174783 $603 61.397221555544618 $501 $643 forward 7 unknown #
vertex $-1 $515 $644 #
straight-curve $-1 18.568804968192559 7.0729587389121455 5.8196525476429386 1 0 0 I I #
edge $-1 $603 1.0976188987235709 $512 10.853060781653578 $511 $645 forward 7 unknown #
vertex $-1 $602 $646 #
straight-curve $-1 -21.197461273610458 7.0729587389121455 58.663358037268679 -0.74314481823134659 0 0.66913061440640931 I I #
point $-1 37.491418095025075 7.0729587389121455 5.8196525476429386 #
point $-1 43.590197454756307 16.828400621842153 0.32828682727310365 #
straight-curve $-1 43.590197454756307 0 5.8196525476429359 0 1 0 I I #
vertex $-1 $518 $647 #
point $-1 40.082935537543378 9.0240471154981492 1.8182127955961231 #
vertex $-1 $522 $648 #
point $-1 40.082935537543378 11.950679680377149 1.8182127955961231 #
vertex $-1 $526 $649 #
point $-1 40.082935537543378 14.877312245256149 1.8182127955961231 #
straight-curve $-1 -43.590197454756307 23.489511841124397 0 0 0 -1 I I #
straight-curve $-1 0 23.489511841124397 -5.8196525476429359 1 0 0 I I #
point $-1 43.590197454756307 23.489511841124397 -5.8196525476429359 #
straight-curve $-1 -43.590197454756307 0 5.8196525476429359 0 -1 0 I I #
point $-1 -43.590197454756307 23.489511841124397 5.8196525476429359 #
straight-curve $-1 43.590197454756307 23.489511841124397 0 0 0 -1 I I #
point $-1 -43.590197454756307 23.489511841124397 -5.8196525476429359 #
edge $-1 $623 -5.8196525476429359 $557 5.8196525476429359 $549 $650 forward 7 unknown #
straight-curve $-1 -33.450892359470437 -27.356974400800077 -5.8196525476429359 -1 0 0 I I #
vertex $-1 $563 $651 #
straight-curve $-1 -33.450892359470437 -27.356974400800077 5.8196525476429359 1 0 0 I I #
point $-1 -34.950892359470437 -27.356974400800077 5.8196525476429359 #
point $-1 -34.950892359470437 -27.356974400800077 -5.8196525476429359 #
point $-1 -31.950892359470437 -27.356974400800077 -5.8196525476429359 #
straight-curve $-1 -31.950892359470437 -25.423243120962237 5.8196525476429359 0 1 0 I I #
straight-curve $-1 -43.590197454756307 23.489511841124397 0 0 0 -1 I I #
point $-1 -43.590197454756307 23.489511841124397 0.28663785626389426 #
straight-curve $-1 0 23.489511841124397 5.8196525476429359 -1 0 0 I I #
point $-1 -43.590197454756307 23.489511841124397 5.8196525476429359 #
point $-1 -38.778974049854241 16.902599599833721 1.5403881436932201 #
point $-1 -38.778974049854241 19.372691690317723 1.5403881436932201 #
point $-1 -38.778974049854241 21.842783780801724 1.5403881436932201 #
straight-curve $-1 43.590197454756307 -14.482821822374412 61.725508382817722 0 0 -1 I I #
point $-1 43.590197454756307 -14.482821822374412 5.8196525476429359 #
straight-curve $-1 43.590197454756307 -4.8025504404547039 0.32828682727311076 0 1 0 I I #
point $-1 43.590197454756307 -14.482821822374412 0.32828682727310365 #
point $-1 39.3767978212245 -12.53173344578841 1.7812056936836544 #
point $-1 39.3767978212245 -9.6051008809094078 1.7812056936836544 #
point $-1 39.3767978212245 -6.6784683160304041 1.7812056936836544 #
straight-curve $-1 43.590197454756307 7.0729587389121455 61.725508382817722 0 0 -1 I I #
point $-1 43.590197454756307 7.0729587389121455 5.8196525476429359 #
straight-curve $-1 43.590197454756307 5.9753398401885747 0.32828682727311076 0 1 0 I I #
point $-1 43.590197454756307 7.0729587389121455 0.32828682727310365 #
point $-1 39.3767978212245 9.0240471154981492 1.7812056936836544 #
point $-1 39.3767978212245 11.950679680377149 1.7812056936836544 #
point $-1 39.3767978212245 14.877312245256149 1.7812056936836544 #
straight-curve $-1 -31.950892359470437 -27.356974400800077 0 0 0 -1 I I #
point $-1 -31.950892359470437 -27.356974400800077 5.8196525476429359 #
End-of-ACIS-data 