500 0 9 0           
7 Unknown 11 ACIS 5.0 NT 24 Fri Mar 26 17:20:32 1999 
-1 9.9999999999999995e-007 1e-010 
body $-1 $9 $-1 $10 #
body $-1 $11 $-1 $12 #
body $-1 $13 $-1 $14 #
body $-1 $15 $-1 $16 #
body $-1 $17 $-1 $18 #
body $-1 $19 $-1 $20 #
body $-1 $21 $-1 $22 #
body $-1 $23 $-1 $24 #
body $-1 $25 $-1 $26 #
lump $-1 $-1 $27 $0 #
transform $-1 1 0 0 0 1 0 0 0 1 58.507644886623737 27.513788264350875 9.5470754474575958 1 rotate no_reflect no_shear #
lump $-1 $-1 $28 $1 #
transform $-1 1 0 0 0 1 0 0 0 1 58.507644886623737 27.513788264350875 9.5470754474575958 1 rotate no_reflect no_shear #
lump $-1 $-1 $29 $2 #
transform $-1 1 0 0 0 1 0 0 0 1 58.507644886623737 27.513788264350875 9.5470754474575958 1 rotate no_reflect no_shear #
lump $-1 $-1 $30 $3 #
transform $-1 1 0 0 0 1 0 0 0 1 58.507644886623737 27.513788264350875 9.5470754474575958 1 rotate no_reflect no_shear #
lump $-1 $-1 $31 $4 #
transform $-1 1 0 0 0 1 0 0 0 1 58.507644886623737 27.513788264350875 9.5470754474575958 1 rotate no_reflect no_shear #
lump $-1 $-1 $32 $5 #
transform $-1 1 0 0 0 1 0 0 0 1 58.507644886623737 27.513788264350875 9.5470754474575958 1 rotate no_reflect no_shear #
lump $-1 $-1 $33 $6 #
transform $-1 1 0 0 0 1 0 0 0 1 58.507644886623737 27.513788264350875 9.5470754474575958 1 rotate no_reflect no_shear #
lump $-1 $-1 $34 $7 #
transform $-1 1 0 0 0 1 0 0 0 1 58.507644886623737 27.513788264350875 9.5470754474575958 1 rotate no_reflect no_shear #
lump $-1 $-1 $35 $8 #
transform $-1 1 0 0 0 1 0 0 0 1 58.507644886623737 27.513788264350875 9.5470754474575958 1 rotate no_reflect no_shear #
shell $-1 $-1 $-1 $36 $-1 $9 #
shell $-1 $-1 $-1 $37 $-1 $11 #
shell $-1 $-1 $-1 $38 $-1 $13 #
shell $-1 $-1 $-1 $39 $-1 $15 #
shell $-1 $-1 $-1 $40 $-1 $17 #
shell $-1 $-1 $-1 $41 $-1 $19 #
shell $-1 $-1 $-1 $42 $-1 $21 #
shell $-1 $-1 $-1 $43 $-1 $23 #
shell $-1 $-1 $-1 $44 $-1 $25 #
face $-1 $45 $46 $27 $-1 $47 forward single #
face $-1 $48 $49 $28 $-1 $50 forward single #
face $-1 $51 $52 $29 $-1 $53 reversed single #
face $-1 $54 $55 $30 $-1 $56 forward single #
face $-1 $57 $58 $31 $-1 $59 reversed single #
face $-1 $60 $61 $32 $-1 $62 forward single #
face $-1 $63 $64 $33 $-1 $65 reversed single #
face $-1 $66 $67 $34 $-1 $68 forward single #
face $-1 $69 $70 $35 $-1 $71 forward single #
face $-1 $72 $73 $27 $-1 $74 reversed single #
loop $-1 $-1 $75 $36 #
plane-surface $-1 0 0 9.5470754474575958 0 0 1 1 0 0 forward_v I I I I #
face $-1 $76 $77 $28 $-1 $78 reversed single #
loop $-1 $-1 $79 $37 #
plane-surface $-1 0 -21.799038907455841 -2.3097562003359986 0 0 1 1 0 0 forward_v I I I I #
face $-1 $80 $81 $29 $-1 $82 reversed single #
loop $-1 $-1 $83 $38 #
plane-surface $-1 -144.08721117541347 -16.084289550560808 85.796645950163096 0 1 0 -0.73135370988377701 0 0.68199835119979291 forward_v I I I I #
face $-1 $84 $85 $30 $-1 $86 forward single #
loop $-1 $87 $88 $39 #
cone-surface $-1 -56.132003963710368 -12.857458561721266 7.0999625697855322 0.73135370988377701 0 -0.68199835119979291 0.68199835119979291 0 0.73135370988377701 1 I I 0 1 1 forward I I I I #
face $-1 $89 $90 $31 $-1 $91 reversed single #
loop $-1 $-1 $92 $40 #
plane-surface $-1 -144.08721117541347 21.060126286671789 85.796645950163096 0 1 0 -0.73135370988377701 0 0.68199835119979291 forward_v I I I I #
face $-1 $93 $94 $32 $-1 $95 forward single #
loop $-1 $96 $97 $41 #
cone-surface $-1 -56.132003963710368 24.28695727551133 7.0999625697855322 0.73135370988377701 0 -0.68199835119979291 0.68199835119979291 0 0.73135370988377701 1 I I 0 1 1 forward I I I I #
face $-1 $98 $99 $33 $-1 $100 reversed single #
loop $-1 $-1 $101 $42 #
plane-surface $-1 29.771545433203357 -2.6360707286768346 163.37573556059016 0 -1 0 -0.57357644374324357 0 -0.81915203911291934 forward_v I I I I #
face $-1 $102 $103 $34 $-1 $104 forward single #
loop $-1 $105 $106 $43 #
cone-surface $-1 51.674997504685344 -8.1213446248134638 4.5410167021809604 -0.57357644374324357 0 -0.81915203911291934 0.40957601955645967 0 -0.28678822187162178 1 I I 0 1 0.5 forward I I I I #
face $-1 $107 $108 $35 $-1 $109 forward single #
loop $-1 $110 $111 $44 #
cone-surface $-1 51.674997504685344 -4.8301802871314869 4.5410167021809604 -0.57357644374324357 0 -0.81915203911291934 0.40957601955645967 0 -0.28678822187162178 1 I I 0 1 0.5 forward I I I I #
face $-1 $112 $113 $27 $-1 $114 reversed single #
loop $-1 $-1 $115 $45 #
plane-surface $-1 0 0 -9.5470754474575958 0 0 1 1 0 0 forward_v I I I I #
coedge $-1 $116 $117 $118 $119 forward $46 $-1 #
face $-1 $120 $121 $28 $-1 $122 reversed single #
loop $-1 $-1 $123 $48 #
plane-surface $-1 0 -21.799038907455841 -5.3097562003359986 0 0 1 1 0 0 forward_v I I I I #
coedge $-1 $124 $125 $126 $127 reversed $49 $-1 #
face $-1 $128 $129 $29 $-1 $130 reversed single #
loop $-1 $-1 $131 $51 #
plane-surface $-1 -58.507644886623737 -12.857458561721266 5.9924112596423242 -0.73135370988377701 0 0.68199835119979291 0.68199835119979291 0 0.73135370988377701 forward_v I I I I #
coedge $-1 $132 $133 $134 $135 reversed $52 $-1 #
face $-1 $-1 $136 $30 $-1 $137 forward single #
loop $-1 $138 $139 $54 #
cone-surface $-1 -55.048075136233308 -12.857458561721266 6.0891826104211972 0.73135370988377701 0 -0.68199835119979291 0.34099917559989645 0 0.36567685494188851 1 I I -0.70710678118654746 0.70710678118654746 0.5 forward I I I I #
loop $-1 $-1 $140 $39 #
coedge $-1 $88 $88 $141 $142 reversed $55 $-1 #
face $-1 $143 $144 $31 $-1 $145 forward single #
loop $-1 $-1 $146 $57 #
plane-surface $-1 -58.507644886623737 24.28695727551133 5.9924112596423242 -0.73135370988377701 0 0.68199835119979291 0.68199835119979291 0 0.73135370988377701 forward_v I I I I #
coedge $-1 $147 $148 $149 $150 reversed $58 $-1 #
face $-1 $-1 $151 $32 $-1 $152 forward single #
loop $-1 $153 $154 $60 #
cone-surface $-1 -55.048075136233308 24.28695727551133 6.0891826104211972 0.73135370988377701 0 -0.68199835119979291 0.34099917559989645 0 0.36567685494188851 1 I I -0.70710678118654746 0.70710678118654746 0.5 forward I I I I #
loop $-1 $-1 $155 $41 #
coedge $-1 $97 $97 $156 $157 reversed $61 $-1 #
face $-1 $158 $159 $33 $-1 $160 reversed single #
loop $-1 $-1 $161 $63 #
plane-surface $-1 -37.345668338521065 -6.4757624559724754 67.522422335445356 0.57357644374324357 0 0.81915203911291934 0.81915203911291934 0 -0.57357644374324357 forward_v I I I I #
coedge $-1 $162 $163 $164 $165 reversed $64 $-1 #
face $-1 $-1 $166 $34 $-1 $167 forward single #
loop $-1 $168 $169 $66 #
cone-surface $-1 51.226925370385388 -8.1213446248134638 3.9011033889944269 -0.57357644374324357 0 -0.81915203911291934 0.20478800977822983 0 -0.14339411093581089 1 I I -0.70710678118654746 0.70710678118654746 0.25 forward I I I I #
loop $-1 $-1 $170 $43 #
coedge $-1 $106 $106 $171 $172 reversed $67 $-1 #
face $-1 $-1 $173 $35 $-1 $174 forward single #
loop $-1 $175 $176 $69 #
cone-surface $-1 51.226925370385388 -4.8301802871314869 3.9011033889944269 -0.57357644374324357 0 -0.81915203911291934 0.20478800977822983 0 -0.14339411093581089 1 I I -0.70710678118654746 0.70710678118654746 0.25 forward I I I I #
loop $-1 $-1 $177 $44 #
coedge $-1 $111 $111 $178 $179 reversed $70 $-1 #
face $-1 $180 $181 $27 $-1 $182 reversed single #
loop $-1 $-1 $183 $72 #
plane-surface $-1 0 -27.513788264350875 0 0 1 0 0 0 1 forward_v I I I I #
coedge $-1 $184 $185 $186 $187 forward $73 $-1 #
coedge $-1 $188 $75 $189 $190 forward $46 $-1 #
coedge $-1 $75 $188 $191 $192 forward $46 $-1 #
coedge $-1 $193 $194 $75 $119 reversed $195 $-1 #
edge $-1 $196 -27.513788264350875 $197 27.513788264350875 $118 $198 forward 7 unknown #
face $-1 $199 $200 $28 $-1 $201 reversed single #
loop $-1 $-1 $202 $76 #
plane-surface $-1 0 -16.084289550560808 -3.8097562003359986 0 -1 0 0 0 -1 forward_v I I I I #
coedge $-1 $203 $204 $205 $206 reversed $77 $-1 #
coedge $-1 $207 $79 $208 $209 forward $49 $-1 #
coedge $-1 $79 $207 $210 $211 reversed $49 $-1 #
coedge $-1 $212 $213 $79 $127 forward $214 $-1 #
edge $-1 $215 5.1847700968328869 $216 16.614268810622953 $126 $217 forward 7 unknown #
face $-1 $218 $219 $29 $-1 $220 reversed single #
loop $-1 $-1 $221 $80 #
plane-surface $-1 -144.08721117541347 -9.6306275728817248 85.796645950163096 0 -1 0 0.73135370988377701 0 -0.68199835119979291 forward_v I I I I #
coedge $-1 $222 $223 $224 $225 reversed $81 $-1 #
coedge $-1 $133 $83 $226 $227 reversed $52 $-1 #
coedge $-1 $83 $132 $222 $228 reversed $52 $-1 #
coedge $-1 $224 $229 $83 $135 forward $230 $-1 #
edge $-1 $231 13.535960701082999 $232 16.850738601839417 $134 $233 forward 7 unknown #
loop $-1 $-1 $141 $84 #
plane-surface $-1 -58.507644886623737 -12.857458561721266 5.9924112596423242 -0.73135370988377701 0 0.68199835119979291 0.68199835119979291 0 0.73135370988377701 forward_v I I I I #
loop $-1 $-1 $234 $54 #
coedge $-1 $139 $139 $140 $235 reversed $85 $-1 #
coedge $-1 $140 $140 $139 $235 forward $87 $-1 #
coedge $-1 $141 $141 $88 $142 forward $136 $-1 #
edge $-1 $236 0 $236 6.2831853071796004 $141 $237 forward 7 unknown #
face $-1 $238 $239 $31 $-1 $240 reversed single #
loop $-1 $-1 $149 $89 #
plane-surface $-1 0 0 9.5470754474575958 0 0 1 1 0 0 forward_v I I I I #
coedge $-1 $241 $242 $243 $244 reversed $90 $-1 #
coedge $-1 $148 $92 $245 $246 reversed $58 $-1 #
coedge $-1 $92 $147 $241 $247 reversed $58 $-1 #
coedge $-1 $243 $248 $92 $150 forward $144 $-1 #
edge $-1 $249 13.535960701082999 $250 16.850738601839417 $149 $251 forward 7 unknown #
loop $-1 $-1 $156 $93 #
plane-surface $-1 -58.507644886623737 24.28695727551133 5.9924112596423242 -0.73135370988377701 0 0.68199835119979291 0.68199835119979291 0 0.73135370988377701 forward_v I I I I #
loop $-1 $-1 $252 $60 #
coedge $-1 $154 $154 $155 $253 reversed $94 $-1 #
coedge $-1 $155 $155 $154 $253 forward $96 $-1 #
coedge $-1 $156 $156 $97 $157 forward $151 $-1 #
edge $-1 $254 0 $254 6.2831853071796004 $156 $255 forward 7 unknown #
face $-1 $256 $257 $33 $-1 $258 reversed single #
loop $-1 $-1 $259 $98 #
plane-surface $-1 29.771545433203357 -10.315454183268116 163.37573556059016 0 1 0 0.57357644374324357 0 0.81915203911291934 forward_v I I I I #
coedge $-1 $260 $261 $262 $263 reversed $99 $-1 #
coedge $-1 $163 $101 $264 $265 reversed $64 $-1 #
coedge $-1 $101 $162 $260 $266 reversed $64 $-1 #
coedge $-1 $262 $267 $101 $165 forward $268 $-1 #
edge $-1 $269 -43.621872170022058 $270 -30.56593345287358 $164 $271 forward 7 unknown #
loop $-1 $-1 $171 $102 #
plane-surface $-1 -37.345668338521065 -6.4757624559724754 67.522422335445356 0.57357644374324357 0 0.81915203911291934 0.81915203911291934 0 -0.57357644374324357 forward_v I I I I #
loop $-1 $-1 $272 $66 #
coedge $-1 $169 $169 $170 $273 reversed $103 $-1 #
coedge $-1 $170 $170 $169 $273 forward $105 $-1 #
coedge $-1 $171 $171 $106 $172 forward $166 $-1 #
edge $-1 $274 0 $274 6.2831853071796004 $171 $275 forward 7 unknown #
loop $-1 $-1 $178 $107 #
plane-surface $-1 -37.345668338521065 -6.4757624559724754 67.522422335445356 0.57357644374324357 0 0.81915203911291934 0.81915203911291934 0 -0.57357644374324357 forward_v I I I I #
loop $-1 $-1 $276 $69 #
coedge $-1 $176 $176 $177 $277 reversed $108 $-1 #
coedge $-1 $177 $177 $176 $277 forward $110 $-1 #
coedge $-1 $178 $178 $111 $179 forward $173 $-1 #
edge $-1 $278 0 $278 6.2831853071796004 $178 $279 forward 7 unknown #
face $-1 $280 $281 $27 $-1 $282 reversed single #
loop $-1 $-1 $283 $112 #
plane-surface $-1 -58.507644886623737 0 0 1 0 0 0 0 -1 forward_v I I I I #
coedge $-1 $284 $191 $285 $286 forward $113 $-1 #
coedge $-1 $287 $115 $284 $288 forward $73 $-1 #
coedge $-1 $115 $287 $289 $290 forward $73 $-1 #
coedge $-1 $194 $193 $115 $187 reversed $195 $-1 #
edge $-1 $291 -27.513788264350875 $292 27.513788264350875 $186 $293 forward 7 unknown #
coedge $-1 $117 $116 $294 $295 forward $46 $-1 #
coedge $-1 $296 $297 $116 $190 reversed $281 $-1 #
edge $-1 $197 -58.507644886623737 $298 58.507644886623737 $189 $299 forward 7 unknown #
coedge $-1 $183 $300 $117 $192 reversed $113 $-1 #
edge $-1 $301 -58.507644886623737 $196 58.507644886623737 $191 $302 forward 7 unknown #
coedge $-1 $186 $118 $300 $303 forward $195 $-1 #
coedge $-1 $118 $186 $296 $304 reversed $195 $-1 #
loop $-1 $-1 $193 $280 #
vertex $-1 $119 $305 #
vertex $-1 $119 $306 #
straight-curve $-1 58.507644886623737 0 9.5470754474575958 0 1 0 I I #
face $-1 $307 $308 $28 $-1 $309 reversed single #
loop $-1 $-1 $310 $120 #
plane-surface $-1 -58.507644886623737 0 0 1 0 0 0 0 -1 forward_v I I I I #
coedge $-1 $311 $208 $213 $312 reversed $121 $-1 #
coedge $-1 $313 $123 $314 $315 reversed $77 $-1 #
coedge $-1 $123 $313 $311 $316 forward $77 $-1 #
coedge $-1 $213 $212 $123 $206 forward $214 $-1 #
edge $-1 $317 -16.614268810622953 $318 -5.1847700968328869 $205 $319 forward 7 unknown #
coedge $-1 $125 $124 $310 $320 reversed $49 $-1 #
coedge $-1 $202 $321 $124 $209 reversed $121 $-1 #
edge $-1 $215 -58.507644886623737 $322 58.507644886623737 $208 $323 forward 7 unknown #
coedge $-1 $324 $325 $125 $211 forward $308 $-1 #
edge $-1 $216 -58.507644886623737 $326 58.507644886623737 $210 $327 forward 7 unknown #
coedge $-1 $205 $126 $325 $328 forward $214 $-1 #
coedge $-1 $126 $205 $202 $312 forward $214 $-1 #
loop $-1 $-1 $126 $307 #
vertex $-1 $127 $329 #
vertex $-1 $328 $330 #
straight-curve $-1 58.507644886623737 -10.899519453727921 -2.3097562003359986 0 -1 0 I I #
face $-1 $-1 $230 $29 $-1 $331 forward single #
loop $-1 $-1 $332 $128 #
plane-surface $-1 -58.507644886623737 0 0 1 0 0 0 0 -1 forward_v I I I I #
coedge $-1 $333 $334 $335 $336 reversed $129 $-1 #
coedge $-1 $337 $131 $133 $228 forward $81 $-1 #
coedge $-1 $131 $337 $333 $338 forward $81 $-1 #
coedge $-1 $335 $134 $131 $225 forward $230 $-1 #
edge $-1 $232 -9.6555602697001746 $339 -3.2018982920210917 $224 $340 forward 7 unknown #
coedge $-1 $341 $342 $132 $227 forward $219 $-1 #
edge $-1 $343 -36.905911715439224 $231 -33.351247527623954 $226 $344 forward 7 unknown #
edge $-1 $232 -4.8603899040590903 $343 0 $133 $345 forward 7 unknown #
coedge $-1 $134 $335 $341 $346 forward $230 $-1 #
loop $-1 $-1 $335 $218 #
vertex $-1 $227 $347 #
vertex $-1 $135 $348 #
straight-curve $-1 -72.043605587706736 -16.084289550560808 9.5470754474575941 1 0 0 I I #
coedge $-1 $234 $234 $-1 $349 reversed $138 $-1 #
edge $-1 $350 0 $350 6.2831853071796004 $139 $351 forward 7 unknown #
vertex $-1 $142 $352 #
ellipse-curve $-1 -56.850255936245524 -12.857458561721266 7.76974335354996 -0.73135370988377701 0 0.68199835119979291 0.68199835119979291 0 0.73135370988377701 1 I I #
face $-1 $-1 $353 $31 $-1 $354 reversed single #
loop $-1 $-1 $355 $143 #
plane-surface $-1 0 27.513788264350875 0 0 -1 0 0 0 -1 forward_v I I I I #
coedge $-1 $356 $146 $148 $247 forward $90 $-1 #
coedge $-1 $146 $356 $355 $357 reversed $90 $-1 #
coedge $-1 $358 $149 $146 $244 forward $144 $-1 #
edge $-1 $250 8.9166476489161237 $359 15.370309626595207 $243 $360 forward 7 unknown #
coedge $-1 $361 $362 $147 $246 forward $353 $-1 #
edge $-1 $363 -36.905911715439224 $249 -33.351247527623954 $245 $364 forward 7 unknown #
edge $-1 $250 -4.8603899040590903 $363 0 $148 $365 forward 7 unknown #
coedge $-1 $149 $358 $361 $366 forward $144 $-1 #
vertex $-1 $246 $367 #
vertex $-1 $150 $368 #
straight-curve $-1 -72.043605587706736 21.060126286671789 9.5470754474575941 1 0 0 I I #
coedge $-1 $252 $252 $-1 $369 reversed $153 $-1 #
edge $-1 $370 0 $370 6.2831853071796004 $154 $371 forward 7 unknown #
vertex $-1 $157 $372 #
ellipse-curve $-1 -56.850255936245524 24.28695727551133 7.76974335354996 -0.73135370988377701 0 0.68199835119979291 0.68199835119979291 0 0.73135370988377701 1 I I #
face $-1 $-1 $268 $33 $-1 $373 forward single #
loop $-1 $-1 $374 $158 #
plane-surface $-1 58.507644886623737 0 0 -1 0 0 0 0 1 forward_v I I I I #
coedge $-1 $375 $376 $377 $378 reversed $159 $-1 #
coedge $-1 $379 $161 $163 $266 forward $99 $-1 #
coedge $-1 $161 $379 $375 $380 forward $99 $-1 #
coedge $-1 $377 $164 $161 $263 forward $268 $-1 #
edge $-1 $270 -0.60181049930940311 $381 7.0775729552818785 $262 $382 forward 7 unknown #
coedge $-1 $383 $384 $162 $265 forward $257 $-1 #
edge $-1 $385 -81.282659216574146 $269 -72.140792332837478 $264 $386 forward 7 unknown #
edge $-1 $270 101.07693145421418 $385 117.01528977324747 $163 $387 forward 7 unknown #
coedge $-1 $164 $377 $383 $388 forward $268 $-1 #
loop $-1 $-1 $377 $256 #
vertex $-1 $265 $389 #
vertex $-1 $165 $390 #
straight-curve $-1 14.885772716601679 -2.6360707286768346 9.5470754474576012 -1 0 0 I I #
coedge $-1 $272 $272 $-1 $391 reversed $168 $-1 #
edge $-1 $392 0 $392 6.2831853071796004 $169 $393 forward 7 unknown #
vertex $-1 $172 $394 #
ellipse-curve $-1 51.979675528049491 -8.1213446248134638 4.9761420055892644 0.57357644374324357 0 0.81915203911291934 0.40957601955645967 0 -0.28678822187162178 1 I I #
coedge $-1 $276 $276 $-1 $395 reversed $175 $-1 #
edge $-1 $396 0 $396 6.2831853071796004 $176 $397 forward 7 unknown #
vertex $-1 $179 $398 #
ellipse-curve $-1 51.979675528049491 -4.8301802871314869 4.9761420055892644 0.57357644374324357 0 0.81915203911291934 0.40957601955645967 0 -0.28678822187162178 1 I I #
face $-1 $-1 $195 $27 $-1 $399 reversed single #
loop $-1 $-1 $296 $180 #
plane-surface $-1 0 27.513788264350875 0 0 -1 0 0 0 -1 forward_v I I I I #
coedge $-1 $400 $294 $297 $401 forward $181 $-1 #
coedge $-1 $300 $183 $184 $288 reversed $113 $-1 #
coedge $-1 $294 $400 $183 $286 reversed $181 $-1 #
edge $-1 $301 -9.5470754474575958 $402 9.5470754474575958 $285 $403 forward 7 unknown #
coedge $-1 $185 $184 $400 $404 forward $73 $-1 #
edge $-1 $292 -58.507644886623737 $402 58.507644886623737 $284 $405 forward 7 unknown #
coedge $-1 $297 $296 $185 $290 reversed $281 $-1 #
edge $-1 $406 -58.507644886623737 $291 58.507644886623737 $289 $407 forward 7 unknown #
vertex $-1 $187 $408 #
vertex $-1 $303 $409 #
straight-curve $-1 58.507644886623737 0 -9.5470754474575958 0 -1 0 I I #
coedge $-1 $283 $285 $188 $295 reversed $181 $-1 #
edge $-1 $298 -27.513788264350875 $301 27.513788264350875 $294 $410 forward 7 unknown #
coedge $-1 $289 $189 $194 $304 forward $281 $-1 #
coedge $-1 $189 $289 $283 $401 reversed $281 $-1 #
vertex $-1 $190 $411 #
straight-curve $-1 0 27.513788264350875 9.5470754474575958 -1 0 0 I I #
coedge $-1 $191 $284 $193 $303 reversed $113 $-1 #
vertex $-1 $295 $412 #
straight-curve $-1 0 -27.513788264350875 9.5470754474575958 1 0 0 I I #
edge $-1 $196 -9.5470754474575958 $292 9.5470754474575958 $193 $413 forward 7 unknown #
edge $-1 $197 -9.5470754474575958 $291 9.5470754474575958 $194 $414 forward 7 unknown #
point $-1 58.507644886623737 -27.513788264350875 9.5470754474575958 #
point $-1 58.507644886623737 27.513788264350875 9.5470754474575958 #
face $-1 $-1 $214 $28 $-1 $415 reversed single #
loop $-1 $-1 $210 $199 #
plane-surface $-1 0 -27.513788264350875 0 0 1 0 0 0 1 forward_v I I I I #
coedge $-1 $416 $417 $207 $320 forward $200 $-1 #
coedge $-1 $321 $202 $204 $316 reversed $121 $-1 #
edge $-1 $318 -3.4048781001679993 $215 -0.4048781001679993 $213 $418 forward 7 unknown #
coedge $-1 $204 $203 $419 $420 reversed $77 $-1 #
coedge $-1 $325 $324 $203 $315 forward $308 $-1 #
edge $-1 $421 -58.507644886623737 $317 58.507644886623737 $314 $422 forward 7 unknown #
edge $-1 $423 -58.507644886623737 $318 58.507644886623737 $311 $424 forward 7 unknown #
vertex $-1 $315 $425 #
vertex $-1 $206 $426 #
straight-curve $-1 58.507644886623737 -10.899519453727921 -5.3097562003359986 0 1 0 I I #
edge $-1 $326 -16.614268810622953 $322 -5.1847700968328869 $310 $427 forward 7 unknown #
coedge $-1 $208 $311 $416 $428 reversed $121 $-1 #
vertex $-1 $320 $429 #
straight-curve $-1 0 -16.084289550560808 -2.3097562003359986 -1 0 0 I I #
coedge $-1 $314 $210 $417 $430 forward $308 $-1 #
coedge $-1 $210 $314 $212 $328 reversed $308 $-1 #
vertex $-1 $430 $431 #
straight-curve $-1 0 -27.513788264350875 -2.3097562003359986 -1 0 0 I I #
edge $-1 $216 2.3097562003359986 $317 5.3097562003359986 $212 $432 forward 7 unknown #
point $-1 58.507644886623737 -16.084289550560808 -2.3097562003359986 #
point $-1 58.507644886623737 -27.513788264350875 -2.3097562003359986 #
plane-surface $-1 0 0 9.5470754474575958 0 0 1 1 0 0 forward_v I I I I #
coedge $-1 $342 $341 $334 $433 forward $219 $-1 #
coedge $-1 $334 $221 $223 $338 reversed $129 $-1 #
coedge $-1 $221 $333 $332 $433 reversed $129 $-1 #
coedge $-1 $229 $224 $221 $336 forward $230 $-1 #
edge $-1 $339 -16.850738601839417 $434 -13.535960701082999 $335 $435 forward 7 unknown #
coedge $-1 $223 $222 $342 $436 reversed $81 $-1 #
edge $-1 $437 0 $339 4.8603899040590903 $333 $438 forward 7 unknown #
vertex $-1 $225 $439 #
straight-curve $-1 -55.192866985867312 -6.4287292808606331 9.5470754474575941 0 1 0 I I #
coedge $-1 $332 $226 $229 $346 reversed $219 $-1 #
coedge $-1 $226 $332 $337 $436 forward $219 $-1 #
vertex $-1 $227 $440 #
straight-curve $-1 -58.507644886623737 -16.084289550560808 42.898322975081548 0 0 1 I I #
straight-curve $-1 -58.507644886623737 -16.084289550560808 5.9924112596423242 -0.68199835119979291 0 -0.73135370988377701 I I #
edge $-1 $434 9.6306275728817248 $231 16.084289550560808 $341 $441 forward 7 unknown #
point $-1 -58.507644886623737 -16.084289550560808 9.5470754474575958 #
point $-1 -55.192866985867319 -16.084289550560808 9.5470754474575958 #
edge $-1 $442 1 $442 0 $234 $-1 forward 7 unknown #
vertex $-1 $235 $443 #
ellipse-curve $-1 -55.413751991175197 -12.857458561721266 6.4301817860210937 -0.73135370988377701 0 0.68199835119979291 0.68199835119979291 0 0.73135370988377701 1 I I #
point $-1 -56.168257585045744 -12.857458561721266 8.5010970634337468 #
loop $-1 $-1 $245 $238 #
plane-surface $-1 -58.507644886623737 0 0 1 0 0 0 0 -1 forward_v I I I I #
coedge $-1 $444 $445 $242 $357 forward $239 $-1 #
coedge $-1 $242 $241 $362 $446 reversed $90 $-1 #
edge $-1 $359 12.899382665626739 $447 17.759772569685829 $355 $448 forward 7 unknown #
coedge $-1 $248 $243 $445 $449 forward $144 $-1 #
vertex $-1 $449 $450 #
straight-curve $-1 -55.192866985867312 12.143478637755665 9.5470754474575941 0 1 0 I I #
coedge $-1 $451 $245 $248 $366 reversed $353 $-1 #
coedge $-1 $245 $451 $356 $446 forward $353 $-1 #
vertex $-1 $246 $452 #
straight-curve $-1 -58.507644886623737 21.060126286671789 42.898322975081548 0 0 1 I I #
straight-curve $-1 -58.507644886623737 21.060126286671789 5.9924112596423242 -0.68199835119979291 0 -0.73135370988377701 I I #
edge $-1 $453 -27.513788264350875 $249 -21.060126286671789 $361 $454 forward 7 unknown #
point $-1 -58.507644886623737 21.060126286671789 9.5470754474575958 #
point $-1 -55.192866985867319 21.060126286671789 9.5470754474575958 #
edge $-1 $455 1 $455 0 $252 $-1 forward 7 unknown #
vertex $-1 $253 $456 #
ellipse-curve $-1 -55.413751991175197 24.28695727551133 6.4301817860210937 -0.73135370988377701 0 0.68199835119979291 0.68199835119979291 0 0.73135370988377701 1 I I #
point $-1 -56.168257585045744 24.28695727551133 8.5010970634337468 #
plane-surface $-1 0 0 9.5470754474575958 0 0 1 1 0 0 forward_v I I I I #
coedge $-1 $384 $383 $376 $457 forward $257 $-1 #
coedge $-1 $376 $259 $261 $380 reversed $159 $-1 #
coedge $-1 $259 $375 $374 $457 reversed $159 $-1 #
coedge $-1 $267 $262 $259 $378 forward $268 $-1 #
edge $-1 $381 30.56593345287358 $458 43.621872170022058 $377 $459 forward 7 unknown #
coedge $-1 $261 $260 $384 $460 reversed $99 $-1 #
edge $-1 $461 -117.01528977324747 $381 -101.07693145421418 $375 $462 forward 7 unknown #
vertex $-1 $263 $463 #
straight-curve $-1 45.451706169475244 -3.2378812279862377 9.5470754474576012 0 -1 0 I I #
coedge $-1 $374 $264 $267 $388 reversed $257 $-1 #
coedge $-1 $264 $374 $379 $460 forward $257 $-1 #
vertex $-1 $265 $464 #
straight-curve $-1 58.507644886623737 -2.6360707286768346 81.687867780295079 0 0 1 I I #
straight-curve $-1 -37.345668338521065 -2.6360707286768346 67.522422335445356 0.81915203911291934 0 -0.57357644374324357 I I #
edge $-1 $458 -10.315454183268116 $269 -2.6360707286768346 $383 $465 forward 7 unknown #
point $-1 58.507644886623737 -2.6360707286768346 9.5470754474575958 #
point $-1 45.451706169475258 -2.6360707286768346 9.5470754474575941 #
edge $-1 $466 1 $466 0 $272 $-1 forward 7 unknown #
vertex $-1 $273 $467 #
ellipse-curve $-1 51.370319481321197 -8.1213446248134638 4.1058913987726564 0.57357644374324357 0 0.81915203911291934 0.40957601955645967 0 -0.28678822187162178 1 I I #
point $-1 52.389251547605951 -8.1213446248134638 4.6893537837176433 #
edge $-1 $468 1 $468 0 $276 $-1 forward 7 unknown #
vertex $-1 $277 $469 #
ellipse-curve $-1 51.370319481321197 -4.8301802871314869 4.1058913987726564 0.57357644374324357 0 0.81915203911291934 0.40957601955645967 0 -0.28678822187162178 1 I I #
point $-1 52.389251547605951 -4.8301802871314869 4.6893537837176433 #
plane-surface $-1 58.507644886623737 0 0 -1 0 0 0 0 1 forward_v I I I I #
coedge $-1 $285 $283 $287 $404 reversed $181 $-1 #
edge $-1 $298 -9.5470754474575958 $406 9.5470754474575958 $297 $470 forward 7 unknown #
vertex $-1 $404 $471 #
straight-curve $-1 -58.507644886623737 -27.513788264350875 0 0 0 -1 I I #
edge $-1 $402 -27.513788264350875 $406 27.513788264350875 $400 $472 forward 7 unknown #
straight-curve $-1 0 -27.513788264350875 -9.5470754474575958 -1 0 0 I I #
vertex $-1 $290 $473 #
straight-curve $-1 0 27.513788264350875 -9.5470754474575958 1 0 0 I I #
point $-1 58.507644886623737 27.513788264350875 -9.5470754474575958 #
point $-1 58.507644886623737 -27.513788264350875 -9.5470754474575958 #
straight-curve $-1 -58.507644886623737 0 9.5470754474575958 0 -1 0 I I #
point $-1 -58.507644886623737 27.513788264350875 9.5470754474575958 #
point $-1 -58.507644886623737 -27.513788264350875 9.5470754474575958 #
straight-curve $-1 58.507644886623737 -27.513788264350875 0 0 0 -1 I I #
straight-curve $-1 58.507644886623737 27.513788264350875 0 0 0 -1 I I #
plane-surface $-1 58.507644886623737 0 0 -1 0 0 0 0 1 forward_v I I I I #
coedge $-1 $419 $310 $321 $428 forward $200 $-1 #
coedge $-1 $310 $419 $324 $430 reversed $200 $-1 #
straight-curve $-1 58.507644886623737 -16.084289550560808 -1.9048781001679993 0 0 1 I I #
coedge $-1 $417 $416 $313 $420 forward $200 $-1 #
edge $-1 $423 5.1847700968328869 $421 16.614268810622953 $419 $474 forward 7 unknown #
vertex $-1 $315 $475 #
straight-curve $-1 0 -27.513788264350875 -5.3097562003359986 1 0 0 I I #
vertex $-1 $420 $476 #
straight-curve $-1 0 -16.084289550560808 -5.3097562003359986 1 0 0 I I #
point $-1 58.507644886623737 -27.513788264350875 -5.3097562003359986 #
point $-1 58.507644886623737 -16.084289550560808 -5.3097562003359986 #
straight-curve $-1 -58.507644886623737 -10.899519453727921 -2.3097562003359986 0 1 0 I I #
edge $-1 $322 0.4048781001679993 $423 3.4048781001679993 $416 $477 forward 7 unknown #
point $-1 -58.507644886623737 -16.084289550560808 -2.3097562003359986 #
edge $-1 $326 2.3097562003359986 $421 5.3097562003359986 $417 $478 forward 7 unknown #
point $-1 -58.507644886623737 -27.513788264350875 -2.3097562003359986 #
straight-curve $-1 58.507644886623737 -27.513788264350875 0 0 0 -1 I I #
edge $-1 $434 33.351247527623954 $437 36.905911715439224 $332 $479 forward 7 unknown #
vertex $-1 $346 $480 #
straight-curve $-1 -72.043605587706736 -9.6306275728817248 9.5470754474575941 -1 0 0 I I #
edge $-1 $437 3.2018982920210917 $343 9.6555602697001746 $342 $481 forward 7 unknown #
vertex $-1 $436 $482 #
straight-curve $-1 -58.507644886623737 -9.6306275728817248 5.9924112596423242 0.68199835119979291 0 0.73135370988377701 I I #
point $-1 -55.192866985867319 -9.6306275728817248 9.5470754474575958 #
point $-1 -58.507644886623737 -16.084289550560808 5.9924112596423242 #
straight-curve $-1 -58.507644886623737 0 9.5470754474575958 0 -1 0 I I #
vertex $-1 $349 $483 #
point $-1 -54.731753639975402 -12.857458561721266 7.1615354959048707 #
coedge $-1 $445 $355 $451 $484 reversed $239 $-1 #
coedge $-1 $355 $444 $358 $449 reversed $239 $-1 #
edge $-1 $447 -15.370309626595207 $363 -8.9166476489161237 $362 $485 forward 7 unknown #
vertex $-1 $357 $486 #
straight-curve $-1 -46.395509276414693 27.513788264350875 18.981086815174194 -0.68199835119979291 0 -0.73135370988377701 I I #
edge $-1 $359 55.192866985867319 $453 58.507644886623737 $445 $487 forward 7 unknown #
point $-1 -55.192866985867319 27.513788264350872 9.5470754474575958 #
coedge $-1 $362 $361 $444 $484 forward $353 $-1 #
point $-1 -58.507644886623737 21.060126286671789 5.9924112596423242 #
vertex $-1 $449 $488 #
straight-curve $-1 -58.507644886623737 0 9.5470754474575958 0 -1 0 I I #
vertex $-1 $369 $489 #
point $-1 -54.731753639975402 24.28695727551133 7.1615354959048707 #
edge $-1 $458 72.140792332837478 $461 81.282659216574146 $374 $490 forward 7 unknown #
vertex $-1 $388 $491 #
straight-curve $-1 14.885772716601679 -10.315454183268116 9.5470754474576012 1 0 0 I I #
edge $-1 $461 -7.0775729552818785 $385 0.60181049930940311 $384 $492 forward 7 unknown #
vertex $-1 $460 $493 #
straight-curve $-1 -37.345668338521065 -10.315454183268116 67.522422335445356 -0.81915203911291934 0 0.57357644374324357 I I #
point $-1 45.451706169475258 -10.315454183268116 9.5470754474575941 #
point $-1 58.507644886623737 -2.6360707286768346 0.40520856372093306 #
straight-curve $-1 58.507644886623737 0 9.5470754474575958 0 1 0 I I #
vertex $-1 $391 $494 #
point $-1 51.779895500877657 -8.1213446248134638 3.8191031769010348 #
vertex $-1 $395 $495 #
point $-1 51.779895500877657 -4.8301802871314869 3.8191031769010348 #
straight-curve $-1 -58.507644886623737 27.513788264350875 0 0 0 -1 I I #
point $-1 -58.507644886623737 -27.513788264350875 -9.5470754474575958 #
straight-curve $-1 -58.507644886623737 0 -9.5470754474575958 0 1 0 I I #
point $-1 -58.507644886623737 27.513788264350875 -9.5470754474575958 #
straight-curve $-1 -58.507644886623737 -10.899519453727921 -5.3097562003359986 0 -1 0 I I #
point $-1 -58.507644886623737 -27.513788264350875 -5.3097562003359986 #
point $-1 -58.507644886623737 -16.084289550560808 -5.3097562003359986 #
straight-curve $-1 -58.507644886623737 -16.084289550560808 -1.9048781001679993 0 0 -1 I I #
straight-curve $-1 -58.507644886623737 -27.513788264350875 0 0 0 -1 I I #
straight-curve $-1 -58.507644886623737 -9.6306275728817248 42.898322975081548 0 0 -1 I I #
point $-1 -58.507644886623737 -9.6306275728817248 9.5470754474575958 #
straight-curve $-1 -58.507644886623737 -6.4287292808606331 5.9924112596423242 0 -1 0 I I #
point $-1 -58.507644886623737 -9.6306275728817248 5.9924112596423242 #
point $-1 -54.68239828129142 -12.857458561721266 5.7481834348213008 #
edge $-1 $453 -9.5470754474575958 $447 -5.9924112596423242 $444 $496 forward 7 unknown #
straight-curve $-1 -58.507644886623737 12.143478637755665 5.9924112596423242 0 -1 0 I I #
point $-1 -58.507644886623737 27.513788264350872 5.9924112596423242 #
straight-curve $-1 0 27.513788264350875 9.5470754474575958 -1 0 0 I I #
point $-1 -58.507644886623737 27.513788264350875 9.5470754474575958 #
point $-1 -54.68239828129142 24.28695727551133 5.7481834348213008 #
straight-curve $-1 58.507644886623737 -10.315454183268116 81.687867780295079 0 0 -1 I I #
point $-1 58.507644886623737 -10.315454183268116 9.5470754474575958 #
straight-curve $-1 58.507644886623744 -3.2378812279862377 0.40520856372092595 0 1 0 I I #
point $-1 58.507644886623737 -10.315454183268116 0.40520856372093306 #
point $-1 51.083531259449579 -8.1213446248134638 3.6963153792161969 #
point $-1 51.083531259449579 -4.8301802871314869 3.6963153792161969 #
straight-curve $-1 -58.507644886623737 27.513788264350875 0 0 0 -1 I I #
End-of-ACIS-data 