500 0 9 0           
7 Unknown 11 ACIS 5.0 NT 24 Fri Mar 26 00:11:39 1999 
-1 9.9999999999999995e-007 1e-010 
body $-1 $9 $-1 $10 #
body $-1 $11 $-1 $12 #
body $-1 $13 $-1 $14 #
body $-1 $15 $-1 $16 #
body $-1 $17 $-1 $18 #
body $-1 $19 $-1 $20 #
body $-1 $21 $-1 $22 #
body $-1 $23 $-1 $24 #
body $-1 $25 $-1 $26 #
lump $-1 $-1 $27 $0 #
transform $-1 1 0 0 0 1 0 0 0 1 79.47019867549669 44.07276987002551 17.697435738451727 1 rotate no_reflect no_shear #
lump $-1 $-1 $28 $1 #
transform $-1 1 0 0 0 1 0 0 0 1 79.47019867549669 44.07276987002551 17.697435738451727 1 rotate no_reflect no_shear #
lump $-1 $-1 $29 $2 #
transform $-1 1 0 0 0 1 0 0 0 1 79.47019867549669 44.07276987002551 17.697435738451727 1 rotate no_reflect no_shear #
lump $-1 $-1 $30 $3 #
transform $-1 1 0 0 0 1 0 0 0 1 79.47019867549669 44.07276987002551 17.697435738451727 1 rotate no_reflect no_shear #
lump $-1 $-1 $31 $4 #
transform $-1 1 0 0 0 1 0 0 0 1 79.47019867549669 44.07276987002551 17.697435738451727 1 rotate no_reflect no_shear #
lump $-1 $-1 $32 $5 #
transform $-1 1 0 0 0 1 0 0 0 1 79.47019867549669 44.07276987002551 17.697435738451727 1 rotate no_reflect no_shear #
lump $-1 $-1 $33 $6 #
transform $-1 1 0 0 0 1 0 0 0 1 79.47019867549669 44.07276987002551 17.697435738451727 1 rotate no_reflect no_shear #
lump $-1 $-1 $34 $7 #
transform $-1 1 0 0 0 1 0 0 0 1 79.47019867549669 44.07276987002551 17.697435738451727 1 rotate no_reflect no_shear #
lump $-1 $-1 $35 $8 #
transform $-1 1 0 0 0 1 0 0 0 1 79.47019867549669 44.07276987002551 17.697435738451727 1 rotate no_reflect no_shear #
shell $-1 $-1 $-1 $36 $-1 $9 #
shell $-1 $-1 $-1 $37 $-1 $11 #
shell $-1 $-1 $-1 $38 $-1 $13 #
shell $-1 $-1 $-1 $39 $-1 $15 #
shell $-1 $-1 $-1 $40 $-1 $17 #
shell $-1 $-1 $-1 $41 $-1 $19 #
shell $-1 $-1 $-1 $42 $-1 $21 #
shell $-1 $-1 $-1 $43 $-1 $23 #
shell $-1 $-1 $-1 $44 $-1 $25 #
face $-1 $45 $46 $27 $-1 $47 reversed single #
face $-1 $48 $49 $28 $-1 $50 forward single #
face $-1 $51 $52 $29 $-1 $53 reversed single #
face $-1 $54 $55 $30 $-1 $56 forward single #
face $-1 $57 $58 $31 $-1 $59 forward single #
face $-1 $60 $61 $32 $-1 $62 reversed single #
face $-1 $63 $64 $33 $-1 $65 forward single #
face $-1 $66 $67 $34 $-1 $68 reversed single #
face $-1 $69 $70 $35 $-1 $71 forward single #
face $-1 $72 $73 $27 $-1 $74 forward single #
loop $-1 $-1 $75 $36 #
plane-surface $-1 0 -44.07276987002551 0 0 1 0 0 0 1 forward_v I I I I #
face $-1 $76 $77 $28 $-1 $78 forward single #
loop $-1 $-1 $79 $37 #
plane-surface $-1 0 -44.07276987002551 0 0 1 0 0 0 1 forward_v I I I I #
face $-1 $80 $81 $29 $-1 $82 reversed single #
loop $-1 $-1 $83 $38 #
plane-surface $-1 -191.85803275085411 28.503367040701889 123.04299019314439 0 1 0 -0.70710678939079041 0 0.70710677298230451 forward_v I I I I #
face $-1 $84 $85 $30 $-1 $86 forward single #
loop $-1 $87 $88 $39 #
cone-surface $-1 -75.242838235122903 32.951767849080071 13.470075232757511 0.70710678939079041 0 -0.70710677298230451 0.70710677298230451 0 0.70710678939079041 1 I I 0 1 1 forward I I I I #
face $-1 $89 $90 $31 $-1 $91 forward single #
loop $-1 $92 $93 $40 #
cone-surface $-1 -75.242838235122903 39.624369061647343 13.470075232757511 0.70710678939079041 0 -0.70710677298230451 0.70710677298230451 0 0.70710678939079041 1 I I 0 1 1 forward I I I I #
face $-1 $94 $95 $32 $-1 $96 reversed single #
loop $-1 $-1 $97 $41 #
plane-surface $-1 133.84835708604521 -9.5891654640513906 222.77314209153329 0 -1 0 -0.85716730853699208 0 -0.51503806187062418 forward_v I I I I #
face $-1 $98 $99 $33 $-1 $100 forward single #
loop $-1 $101 $102 $42 #
cone-surface $-1 73.350114521611019 -17.067313629965781 9.8594364113290496 -0.85716730853699208 0 -0.51503806187062418 1.2875951546765605 0 -2.1429182713424804 1 I I 0 1 2.5 forward I I I I #
face $-1 $103 $104 $34 $-1 $105 reversed single #
loop $-1 $-1 $106 $43 #
plane-surface $-1 133.84835708604521 40.516902008669803 222.77314209153329 0 -1 0 -0.85716730853699208 0 -0.51503806187062418 forward_v I I I I #
face $-1 $107 $108 $35 $-1 $109 forward single #
loop $-1 $110 $111 $44 #
cone-surface $-1 73.350114521611019 33.038753842755412 9.8594364113290496 -0.85716730853699208 0 -0.51503806187062418 1.2875951546765605 0 -2.1429182713424804 1 I I 0 1 2.5 forward I I I I #
face $-1 $112 $113 $27 $-1 $114 reversed single #
loop $-1 $-1 $115 $45 #
plane-surface $-1 0 0 17.697435738451727 0 0 1 1 0 0 forward_v I I I I #
coedge $-1 $116 $117 $118 $119 reversed $46 $-1 #
face $-1 $120 $121 $28 $-1 $122 reversed single #
loop $-1 $-1 $123 $48 #
plane-surface $-1 0 0 17.697435738451727 0 0 1 1 0 0 forward_v I I I I #
coedge $-1 $124 $125 $126 $127 forward $49 $-1 #
face $-1 $128 $129 $29 $-1 $130 reversed single #
loop $-1 $-1 $131 $51 #
plane-surface $-1 -79.47019867549669 36.2880684553637 10.655158725758241 -0.70710678939079041 0 0.70710677298230451 0.70710677298230451 0 0.70710678939079041 forward_v I I I I #
coedge $-1 $132 $133 $134 $135 reversed $52 $-1 #
face $-1 $-1 $136 $30 $-1 $137 forward single #
loop $-1 $138 $139 $54 #
cone-surface $-1 -74.183062824692072 32.951767849080071 12.410299846918878 0.70710678939079041 0 -0.70710677298230451 0.35355338649115226 0 0.35355339469539521 1 I I -0.70710678118654746 0.70710678118654746 0.5 forward I I I I #
loop $-1 $-1 $140 $39 #
coedge $-1 $88 $88 $141 $142 reversed $55 $-1 #
face $-1 $-1 $143 $31 $-1 $144 forward single #
loop $-1 $145 $146 $57 #
cone-surface $-1 -74.183062824692072 39.624369061647343 12.410299846918878 0.70710678939079041 0 -0.70710677298230451 0.35355338649115226 0 0.35355339469539521 1 I I -0.70710678118654746 0.70710678118654746 0.5 forward I I I I #
loop $-1 $-1 $147 $40 #
coedge $-1 $93 $93 $148 $149 reversed $58 $-1 #
face $-1 $150 $151 $32 $-1 $152 reversed single #
loop $-1 $-1 $153 $60 #
plane-surface $-1 -2.3901555291058401 -17.067313629965785 140.91278788693077 0.85716730853699208 0 0.51503806187062418 0.51503806187062418 0 -0.85716730853699208 forward_v I I I I #
coedge $-1 $154 $155 $156 $157 reversed $61 $-1 #
face $-1 $-1 $158 $33 $-1 $159 forward single #
loop $-1 $160 $161 $63 #
cone-surface $-1 70.071123227085891 -17.067313629965781 7.8892197402041155 -0.85716730853699208 0 -0.51503806187062418 0.64379757733828025 0 -1.0714591356712402 1 I I -0.70710678118654746 0.70710678118654746 1.25 forward I I I I #
loop $-1 $-1 $162 $42 #
coedge $-1 $102 $102 $163 $164 reversed $64 $-1 #
face $-1 $165 $166 $34 $-1 $167 reversed single #
loop $-1 $-1 $168 $66 #
plane-surface $-1 -2.3901555291058401 33.038753842755412 140.91278788693077 0.85716730853699208 0 0.51503806187062418 0.51503806187062418 0 -0.85716730853699208 forward_v I I I I #
coedge $-1 $169 $170 $171 $172 reversed $67 $-1 #
face $-1 $-1 $173 $35 $-1 $174 forward single #
loop $-1 $175 $176 $69 #
cone-surface $-1 70.071123227085891 33.038753842755412 7.8892197402041155 -0.85716730853699208 0 -0.51503806187062418 0.64379757733828025 0 -1.0714591356712402 1 I I -0.70710678118654746 0.70710678118654746 1.25 forward I I I I #
loop $-1 $-1 $177 $44 #
coedge $-1 $111 $111 $178 $179 reversed $70 $-1 #
face $-1 $180 $181 $27 $-1 $182 reversed single #
loop $-1 $-1 $183 $72 #
plane-surface $-1 0 0 -17.697435738451727 0 0 1 1 0 0 forward_v I I I I #
coedge $-1 $184 $185 $186 $187 forward $73 $-1 #
coedge $-1 $188 $75 $189 $190 reversed $46 $-1 #
coedge $-1 $75 $188 $191 $192 forward $46 $-1 #
coedge $-1 $193 $183 $75 $119 forward $113 $-1 #
edge $-1 $194 -79.47019867549669 $195 79.47019867549669 $75 $196 forward 7 unknown #
face $-1 $197 $198 $28 $-1 $199 reversed single #
loop $-1 $-1 $200 $76 #
plane-surface $-1 -79.47019867549669 0 0 1 0 0 0 0 -1 forward_v I I I I #
coedge $-1 $201 $202 $125 $203 forward $77 $-1 #
coedge $-1 $204 $79 $205 $206 reversed $49 $-1 #
coedge $-1 $79 $204 $123 $203 reversed $49 $-1 #
coedge $-1 $207 $208 $79 $127 reversed $209 $-1 #
edge $-1 $210 -17.697435738451727 $211 17.697435738451727 $126 $212 forward 7 unknown #
face $-1 $213 $214 $29 $-1 $215 reversed single #
loop $-1 $-1 $216 $80 #
plane-surface $-1 0 44.07276987002551 0 0 -1 0 0 0 -1 forward_v I I I I #
coedge $-1 $217 $218 $219 $220 reversed $81 $-1 #
coedge $-1 $133 $83 $221 $222 reversed $52 $-1 #
coedge $-1 $83 $132 $217 $223 reversed $52 $-1 #
coedge $-1 $219 $224 $83 $135 forward $225 $-1 #
edge $-1 $226 16.458817699930364 $227 23.501094549207082 $134 $228 forward 7 unknown #
loop $-1 $-1 $141 $84 #
plane-surface $-1 -79.47019867549669 36.2880684553637 10.655158725758241 -0.70710678939079041 0 0.70710677298230451 0.70710677298230451 0 0.70710678939079041 forward_v I I I I #
loop $-1 $-1 $229 $54 #
coedge $-1 $139 $139 $140 $230 reversed $85 $-1 #
coedge $-1 $140 $140 $139 $230 forward $87 $-1 #
coedge $-1 $141 $141 $88 $142 forward $136 $-1 #
edge $-1 $231 0 $231 6.2831853071796004 $141 $232 forward 7 unknown #
loop $-1 $-1 $148 $89 #
plane-surface $-1 -79.47019867549669 36.2880684553637 10.655158725758241 -0.70710678939079041 0 0.70710677298230451 0.70710677298230451 0 0.70710678939079041 forward_v I I I I #
loop $-1 $-1 $233 $57 #
coedge $-1 $146 $146 $147 $234 reversed $90 $-1 #
coedge $-1 $147 $147 $146 $234 forward $92 $-1 #
coedge $-1 $148 $148 $93 $149 forward $143 $-1 #
edge $-1 $235 0 $235 6.2831853071796004 $148 $236 forward 7 unknown #
face $-1 $237 $238 $32 $-1 $239 reversed single #
loop $-1 $-1 $240 $94 #
plane-surface $-1 133.84835708604521 -24.545461795880179 222.77314209153329 0 1 0 0.85716730853699208 0 0.51503806187062418 forward_v I I I I #
coedge $-1 $241 $242 $243 $244 reversed $95 $-1 #
coedge $-1 $155 $97 $245 $246 reversed $61 $-1 #
coedge $-1 $97 $154 $241 $247 reversed $61 $-1 #
coedge $-1 $243 $248 $97 $157 forward $249 $-1 #
edge $-1 $250 -12.546020132474084 $251 -4.7209161424104735 $156 $252 forward 7 unknown #
loop $-1 $-1 $163 $98 #
plane-surface $-1 -2.3901555291058401 -17.067313629965785 140.91278788693077 0.85716730853699208 0 0.51503806187062418 0.51503806187062418 0 -0.85716730853699208 forward_v I I I I #
loop $-1 $-1 $253 $63 #
coedge $-1 $161 $161 $162 $254 reversed $99 $-1 #
coedge $-1 $162 $162 $161 $254 forward $101 $-1 #
coedge $-1 $163 $163 $102 $164 forward $158 $-1 #
edge $-1 $255 0 $255 6.2831853071796004 $163 $256 forward 7 unknown #
face $-1 $257 $258 $34 $-1 $259 reversed single #
loop $-1 $-1 $260 $103 #
plane-surface $-1 133.84835708604521 25.560605676841018 222.77314209153329 0 1 0 0.85716730853699208 0 0.51503806187062418 forward_v I I I I #
coedge $-1 $261 $262 $263 $264 reversed $104 $-1 #
coedge $-1 $170 $106 $265 $266 reversed $67 $-1 #
coedge $-1 $106 $169 $261 $267 reversed $67 $-1 #
coedge $-1 $263 $268 $106 $172 forward $269 $-1 #
edge $-1 $270 -12.546020132474084 $271 -4.7209161424104735 $171 $272 forward 7 unknown #
loop $-1 $-1 $178 $107 #
plane-surface $-1 -2.3901555291058401 33.038753842755412 140.91278788693077 0.85716730853699208 0 0.51503806187062418 0.51503806187062418 0 -0.85716730853699208 forward_v I I I I #
loop $-1 $-1 $273 $69 #
coedge $-1 $176 $176 $177 $274 reversed $108 $-1 #
coedge $-1 $177 $177 $176 $274 forward $110 $-1 #
coedge $-1 $178 $178 $111 $179 forward $173 $-1 #
edge $-1 $275 0 $275 6.2831853071796004 $178 $276 forward 7 unknown #
face $-1 $277 $278 $27 $-1 $279 reversed single #
loop $-1 $-1 $280 $112 #
plane-surface $-1 -79.47019867549669 0 0 1 0 0 0 0 -1 forward_v I I I I #
coedge $-1 $118 $281 $282 $283 forward $113 $-1 #
coedge $-1 $284 $115 $285 $286 forward $73 $-1 #
coedge $-1 $115 $284 $188 $287 forward $73 $-1 #
coedge $-1 $189 $288 $115 $187 reversed $289 $-1 #
edge $-1 $290 -44.07276987002551 $291 44.07276987002551 $186 $292 forward 7 unknown #
coedge $-1 $117 $116 $185 $287 reversed $46 $-1 #
coedge $-1 $282 $186 $116 $190 forward $289 $-1 #
edge $-1 $290 -17.697435738451727 $194 17.697435738451727 $189 $293 forward 7 unknown #
coedge $-1 $294 $295 $117 $192 reversed $181 $-1 #
edge $-1 $296 -17.697435738451727 $195 17.697435738451727 $191 $297 forward 7 unknown #
coedge $-1 $281 $118 $295 $298 forward $113 $-1 #
vertex $-1 $190 $299 #
vertex $-1 $298 $300 #
straight-curve $-1 0 -44.07276987002551 -17.697435738451727 -1 0 0 I I #
face $-1 $301 $209 $28 $-1 $302 reversed single #
loop $-1 $-1 $303 $120 #
plane-surface $-1 -75.696146375634655 -60.044210082815127 0 0 1 0 0 0 1 forward_v I I I I #
coedge $-1 $304 $305 $204 $306 forward $121 $-1 #
coedge $-1 $307 $123 $305 $308 forward $77 $-1 #
coedge $-1 $123 $307 $207 $309 forward $77 $-1 #
edge $-1 $210 71.92209407577262 $310 79.47019867549669 $123 $311 forward 7 unknown #
coedge $-1 $125 $124 $200 $306 reversed $49 $-1 #
coedge $-1 $312 $313 $124 $206 forward $314 $-1 #
edge $-1 $315 -79.47019867549669 $211 -71.92209407577262 $205 $316 forward 7 unknown #
coedge $-1 $317 $126 $202 $309 reversed $209 $-1 #
coedge $-1 $126 $317 $312 $318 reversed $209 $-1 #
loop $-1 $-1 $317 $197 #
vertex $-1 $203 $319 #
vertex $-1 $318 $320 #
straight-curve $-1 -71.92209407577262 -44.07276987002551 0 0 0 -1 I I #
face $-1 $-1 $225 $29 $-1 $321 forward single #
loop $-1 $-1 $322 $128 #
plane-surface $-1 -79.47019867549669 0 0 1 0 0 0 0 -1 forward_v I I I I #
coedge $-1 $323 $324 $218 $325 forward $129 $-1 #
coedge $-1 $326 $131 $133 $223 forward $81 $-1 #
coedge $-1 $131 $326 $216 $325 reversed $81 $-1 #
coedge $-1 $327 $134 $131 $220 forward $225 $-1 #
edge $-1 $227 10.359332813020039 $328 25.928735642343661 $219 $329 forward 7 unknown #
coedge $-1 $330 $322 $132 $222 forward $214 $-1 #
edge $-1 $331 -50.866336370813954 $226 -43.824059358120465 $221 $332 forward 7 unknown #
edge $-1 $227 -9.9592835457863114 $331 0 $133 $333 forward 7 unknown #
coedge $-1 $134 $327 $330 $334 forward $225 $-1 #
loop $-1 $-1 $219 $213 #
vertex $-1 $222 $335 #
vertex $-1 $135 $336 #
straight-curve $-1 -95.929016375427054 28.503367040701889 17.69743573845173 1 0 0 I I #
coedge $-1 $229 $229 $-1 $337 reversed $138 $-1 #
edge $-1 $338 0 $338 6.2831853071796004 $139 $339 forward 7 unknown #
vertex $-1 $142 $340 #
ellipse-curve $-1 -75.949060250858324 32.951767849080071 14.176297232104982 -0.70710678939079041 0 0.70710677298230451 0.70710677298230451 0 0.70710678939079041 1 I I #
coedge $-1 $233 $233 $-1 $341 reversed $145 $-1 #
edge $-1 $342 0 $342 6.2831853071796004 $146 $343 forward 7 unknown #
vertex $-1 $149 $344 #
ellipse-curve $-1 -75.949060250858324 39.624369061647343 14.176297232104982 -0.70710678939079041 0 0.70710677298230451 0.70710677298230451 0 0.70710678939079041 1 I I #
face $-1 $-1 $249 $32 $-1 $345 forward single #
loop $-1 $-1 $346 $150 #
plane-surface $-1 79.47019867549669 0 0 -1 0 0 0 0 1 forward_v I I I I #
coedge $-1 $347 $348 $349 $350 reversed $151 $-1 #
coedge $-1 $351 $153 $155 $247 forward $95 $-1 #
coedge $-1 $153 $351 $347 $352 forward $95 $-1 #
coedge $-1 $349 $156 $153 $244 forward $249 $-1 #
edge $-1 $251 1.0555086490684982 $353 16.011804980897288 $243 $354 forward 7 unknown #
coedge $-1 $355 $356 $154 $246 forward $238 $-1 #
edge $-1 $357 -106.71229577398695 $250 -93.689135307314913 $245 $358 forward 7 unknown #
edge $-1 $251 143.74714355215232 $357 158.94039735099344 $155 $359 forward 7 unknown #
coedge $-1 $156 $349 $355 $360 forward $249 $-1 #
loop $-1 $-1 $349 $237 #
vertex $-1 $246 $361 #
vertex $-1 $157 $362 #
straight-curve $-1 66.924178543022606 -9.5891654640513906 17.69743573845173 -1 0 0 I I #
coedge $-1 $253 $253 $-1 $363 reversed $160 $-1 #
edge $-1 $364 0 $364 6.2831853071796004 $161 $365 forward 7 unknown #
vertex $-1 $164 $366 #
ellipse-curve $-1 75.557646680464899 -17.067313629965781 11.185855505115695 0.85716730853699208 0 0.51503806187062418 1.2875951546765605 0 -2.1429182713424804 1 I I #
face $-1 $-1 $269 $34 $-1 $367 forward single #
loop $-1 $-1 $368 $165 #
plane-surface $-1 79.47019867549669 0 0 -1 0 0 0 0 1 forward_v I I I I #
coedge $-1 $369 $370 $371 $372 reversed $166 $-1 #
coedge $-1 $373 $168 $170 $267 forward $104 $-1 #
coedge $-1 $168 $373 $369 $374 forward $104 $-1 #
coedge $-1 $371 $171 $168 $264 forward $269 $-1 #
edge $-1 $271 -23.997525087292097 $375 -9.0412287554633117 $263 $376 forward 7 unknown #
coedge $-1 $377 $378 $169 $266 forward $258 $-1 #
edge $-1 $379 -106.71229577398695 $270 -93.689135307314913 $265 $380 forward 7 unknown #
edge $-1 $271 143.74714355215232 $379 158.94039735099344 $170 $381 forward 7 unknown #
coedge $-1 $171 $371 $377 $382 forward $269 $-1 #
loop $-1 $-1 $371 $257 #
vertex $-1 $266 $383 #
vertex $-1 $172 $384 #
straight-curve $-1 66.924178543022606 40.516902008669803 17.69743573845173 -1 0 0 I I #
coedge $-1 $273 $273 $-1 $385 reversed $175 $-1 #
edge $-1 $386 0 $386 6.2831853071796004 $176 $387 forward 7 unknown #
vertex $-1 $179 $388 #
ellipse-curve $-1 75.557646680464899 33.038753842755412 11.185855505115695 0.85716730853699208 0 0.51503806187062418 1.2875951546765605 0 -2.1429182713424804 1 I I #
face $-1 $-1 $289 $27 $-1 $389 reversed single #
loop $-1 $-1 $390 $180 #
plane-surface $-1 0 44.07276987002551 0 0 -1 0 0 0 -1 forward_v I I I I #
coedge $-1 $295 $294 $391 $392 forward $181 $-1 #
coedge $-1 $183 $193 $393 $394 forward $113 $-1 #
coedge $-1 $288 $189 $183 $283 reversed $289 $-1 #
edge $-1 $395 -44.07276987002551 $194 44.07276987002551 $282 $396 forward 7 unknown #
coedge $-1 $185 $184 $294 $397 forward $73 $-1 #
coedge $-1 $390 $391 $184 $286 reversed $278 $-1 #
edge $-1 $291 -79.47019867549669 $398 79.47019867549669 $285 $399 forward 7 unknown #
edge $-1 $296 -79.47019867549669 $290 79.47019867549669 $188 $400 forward 7 unknown #
coedge $-1 $186 $282 $390 $401 reversed $289 $-1 #
loop $-1 $-1 $189 $277 #
vertex $-1 $187 $402 #
vertex $-1 $187 $403 #
straight-curve $-1 79.47019867549669 0 17.697435738451727 0 1 0 I I #
straight-curve $-1 79.47019867549669 -44.07276987002551 0 0 0 -1 I I #
coedge $-1 $280 $191 $284 $397 reversed $181 $-1 #
coedge $-1 $191 $280 $193 $298 reversed $181 $-1 #
vertex $-1 $397 $404 #
straight-curve $-1 -79.47019867549669 -44.07276987002551 0 0 0 -1 I I #
edge $-1 $195 -44.07276987002551 $405 44.07276987002551 $295 $406 forward 7 unknown #
point $-1 79.47019867549669 -44.07276987002551 -17.697435738451727 #
point $-1 -79.47019867549669 -44.07276987002551 -17.697435738451727 #
face $-1 $-1 $314 $28 $-1 $407 reversed single #
plane-surface $-1 -71.92209407577262 -52.058489976420319 0 -1 0 0 0 0 1 forward_v I I I I #
coedge $-1 $408 $409 $410 $411 forward $198 $-1 #
coedge $-1 $410 $200 $313 $412 reversed $121 $-1 #
coedge $-1 $200 $410 $201 $308 reversed $121 $-1 #
edge $-1 $310 -17.697435738451727 $315 17.697435738451727 $200 $413 forward 7 unknown #
coedge $-1 $202 $201 $409 $414 forward $77 $-1 #
edge $-1 $310 44.07276987002551 $415 60.044210082815127 $305 $416 forward 7 unknown #
edge $-1 $417 -7.9857201063948082 $210 7.9857201063948082 $207 $418 forward 7 unknown #
vertex $-1 $308 $419 #
straight-curve $-1 0 -44.07276987002551 17.697435738451727 -1 0 0 I I #
coedge $-1 $420 $205 $208 $318 forward $314 $-1 #
coedge $-1 $205 $420 $304 $412 forward $314 $-1 #
loop $-1 $-1 $205 $301 #
vertex $-1 $306 $421 #
straight-curve $-1 0 -44.07276987002551 -17.697435738451727 1 0 0 I I #
coedge $-1 $208 $207 $422 $423 forward $209 $-1 #
edge $-1 $211 -7.9857201063948082 $424 7.9857201063948082 $208 $425 forward 7 unknown #
point $-1 -71.92209407577262 -44.07276987002551 17.697435738451727 #
point $-1 -71.92209407577262 -44.07276987002551 -17.697435738451727 #
plane-surface $-1 0 0 17.697435738451727 0 0 1 1 0 0 forward_v I I I I #
coedge $-1 $221 $426 $326 $427 forward $214 $-1 #
coedge $-1 $324 $216 $426 $428 reversed $129 $-1 #
coedge $-1 $216 $323 $327 $429 reversed $129 $-1 #
edge $-1 $328 14.370506782550144 $430 24.329790328336451 $216 $431 forward 7 unknown #
coedge $-1 $218 $217 $322 $427 reversed $81 $-1 #
coedge $-1 $224 $219 $324 $429 forward $225 $-1 #
vertex $-1 $429 $432 #
straight-curve $-1 -72.427921826219972 18.14403422768185 17.697435738451723 0 1 0 I I #
coedge $-1 $426 $221 $224 $334 reversed $214 $-1 #
vertex $-1 $222 $433 #
straight-curve $-1 -79.47019867549669 28.503367040701889 61.521495096572195 0 0 1 I I #
straight-curve $-1 -79.47019867549669 28.503367040701889 10.655158725758241 -0.70710677298230451 0 -0.70710678939079041 I I #
edge $-1 $434 -44.07276987002551 $226 -28.503367040701889 $330 $435 forward 7 unknown #
point $-1 -79.47019867549669 28.503367040701889 17.697435738451727 #
point $-1 -72.427921826219972 28.503367040701889 17.697435738451727 #
edge $-1 $436 1 $436 0 $229 $-1 forward 7 unknown #
vertex $-1 $230 $437 #
ellipse-curve $-1 -74.536616219387469 32.951767849080071 12.76385323341003 -0.70710678939079041 0 0.70710677298230451 0.70710677298230451 0 0.70710678939079041 1 I I #
point $-1 -75.241953477876038 32.951767849080071 14.883404021495782 #
edge $-1 $438 1 $438 0 $233 $-1 forward 7 unknown #
vertex $-1 $234 $439 #
ellipse-curve $-1 -74.536616219387469 39.624369061647343 12.76385323341003 -0.70710678939079041 0 0.70710677298230451 0.70710677298230451 0 0.70710678939079041 1 I I #
point $-1 -75.241953477876038 39.624369061647343 14.883404021495782 #
plane-surface $-1 0 0 17.697435738451727 0 0 1 1 0 0 forward_v I I I I #
coedge $-1 $356 $355 $348 $440 forward $238 $-1 #
coedge $-1 $348 $240 $242 $352 reversed $151 $-1 #
coedge $-1 $240 $347 $346 $440 reversed $151 $-1 #
coedge $-1 $248 $243 $240 $350 forward $249 $-1 #
edge $-1 $353 4.7209161424104735 $441 12.546020132474084 $349 $442 forward 7 unknown #
coedge $-1 $242 $241 $356 $443 reversed $95 $-1 #
edge $-1 $444 -158.94039735099344 $353 -143.74714355215232 $347 $445 forward 7 unknown #
vertex $-1 $244 $446 #
straight-curve $-1 71.645094685433079 -8.5336568149828924 17.697435738451716 0 -1 0 I I #
coedge $-1 $346 $245 $248 $360 reversed $238 $-1 #
coedge $-1 $245 $346 $351 $443 forward $238 $-1 #
vertex $-1 $246 $447 #
straight-curve $-1 79.47019867549669 -9.5891654640513906 111.38657104576664 0 0 1 I I #
straight-curve $-1 -2.3901555291058401 -9.5891654640513906 140.91278788693077 0.51503806187062418 0 -0.85716730853699208 I I #
edge $-1 $441 -24.545461795880179 $250 -9.5891654640513906 $355 $448 forward 7 unknown #
point $-1 79.47019867549669 -9.5891654640513906 17.697435738451727 #
point $-1 71.645094685433079 -9.5891654640513906 17.697435738451745 #
edge $-1 $449 1 $449 0 $253 $-1 forward 7 unknown #
vertex $-1 $254 $450 #
ellipse-curve $-1 71.142582362757125 -17.067313629965781 8.5330173175423951 0.85716730853699208 0 0.51503806187062418 1.2875951546765605 0 -2.1429182713424804 1 I I #
point $-1 76.845241835141465 -17.067313629965781 9.0429372337732232 #
plane-surface $-1 0 0 17.697435738451727 0 0 1 1 0 0 forward_v I I I I #
coedge $-1 $378 $377 $370 $451 forward $258 $-1 #
coedge $-1 $370 $260 $262 $374 reversed $166 $-1 #
coedge $-1 $260 $369 $368 $451 reversed $166 $-1 #
coedge $-1 $268 $263 $260 $372 forward $269 $-1 #
edge $-1 $375 4.7209161424104735 $452 12.546020132474084 $371 $453 forward 7 unknown #
coedge $-1 $262 $261 $378 $454 reversed $104 $-1 #
edge $-1 $455 -158.94039735099344 $375 -143.74714355215232 $369 $456 forward 7 unknown #
vertex $-1 $264 $457 #
straight-curve $-1 71.645094685433079 16.519376921377706 17.697435738451716 0 -1 0 I I #
coedge $-1 $368 $265 $268 $382 reversed $258 $-1 #
coedge $-1 $265 $368 $373 $454 forward $258 $-1 #
vertex $-1 $266 $458 #
straight-curve $-1 79.47019867549669 40.516902008669803 111.38657104576664 0 0 1 I I #
straight-curve $-1 -2.3901555291058401 40.516902008669803 140.91278788693077 0.51503806187062418 0 -0.85716730853699208 I I #
edge $-1 $452 25.560605676841018 $270 40.516902008669803 $377 $459 forward 7 unknown #
point $-1 79.47019867549669 40.516902008669803 17.697435738451727 #
point $-1 71.645094685433079 40.516902008669803 17.697435738451745 #
edge $-1 $460 1 $460 0 $273 $-1 forward 7 unknown #
vertex $-1 $274 $461 #
ellipse-curve $-1 71.142582362757125 33.038753842755412 8.5330173175423951 0.85716730853699208 0 0.51503806187062418 1.2875951546765605 0 -2.1429182713424804 1 I I #
point $-1 76.845241835141465 33.038753842755412 9.0429372337732232 #
plane-surface $-1 79.47019867549669 0 0 -1 0 0 0 0 1 forward_v I I I I #
coedge $-1 $393 $285 $288 $401 forward $278 $-1 #
coedge $-1 $285 $393 $280 $392 reversed $278 $-1 #
edge $-1 $398 -17.697435738451727 $405 17.697435738451727 $391 $462 forward 7 unknown #
coedge $-1 $391 $390 $281 $394 reversed $278 $-1 #
edge $-1 $405 -79.47019867549669 $395 79.47019867549669 $393 $463 forward 7 unknown #
vertex $-1 $283 $464 #
straight-curve $-1 79.47019867549669 0 -17.697435738451727 0 -1 0 I I #
edge $-1 $398 -44.07276987002551 $296 44.07276987002551 $294 $465 forward 7 unknown #
vertex $-1 $286 $466 #
straight-curve $-1 0 44.07276987002551 17.697435738451727 -1 0 0 I I #
straight-curve $-1 0 -44.07276987002551 17.697435738451727 1 0 0 I I #
edge $-1 $291 -17.697435738451727 $395 17.697435738451727 $288 $467 forward 7 unknown #
point $-1 79.47019867549669 -44.07276987002551 17.697435738451727 #
point $-1 79.47019867549669 44.07276987002551 17.697435738451727 #
point $-1 -79.47019867549669 -44.07276987002551 17.697435738451727 #
vertex $-1 $394 $468 #
straight-curve $-1 -79.47019867549669 0 -17.697435738451727 0 1 0 I I #
plane-surface $-1 0 0 -17.697435738451727 0 0 1 1 0 0 forward_v I I I I #
coedge $-1 $422 $303 $420 $469 reversed $198 $-1 #
coedge $-1 $303 $422 $307 $414 reversed $198 $-1 #
coedge $-1 $305 $304 $303 $411 reversed $121 $-1 #
edge $-1 $415 -17.697435738451727 $470 17.697435738451727 $410 $471 forward 7 unknown #
edge $-1 $470 -60.044210082815127 $315 -44.07276987002551 $304 $472 forward 7 unknown #
straight-curve $-1 -79.47019867549669 -44.07276987002551 0 0 0 -1 I I #
edge $-1 $415 -3.7740522998620349 $417 3.7740522998620349 $409 $473 forward 7 unknown #
vertex $-1 $308 $474 #
straight-curve $-1 -79.47019867549669 0 17.697435738451727 0 -1 0 I I #
vertex $-1 $309 $475 #
straight-curve $-1 -71.92209407577262 -52.058489976420319 17.697435738451727 0 1 0 I I #
point $-1 -79.47019867549669 -44.07276987002551 17.697435738451727 #
coedge $-1 $313 $312 $408 $469 forward $314 $-1 #
point $-1 -79.47019867549669 -44.07276987002551 -17.697435738451727 #
coedge $-1 $409 $408 $317 $423 reversed $198 $-1 #
edge $-1 $417 -17.697435738451727 $424 17.697435738451727 $317 $476 forward 7 unknown #
vertex $-1 $423 $477 #
straight-curve $-1 -71.92209407577262 -52.058489976420319 -17.697435738451727 0 -1 0 I I #
coedge $-1 $322 $330 $323 $428 forward $214 $-1 #
edge $-1 $430 -25.928735642343661 $331 -10.359332813020039 $322 $478 forward 7 unknown #
edge $-1 $434 -17.697435738451727 $430 -10.655158725758241 $323 $479 forward 7 unknown #
edge $-1 $328 72.427921826219972 $434 79.47019867549669 $324 $480 forward 7 unknown #
vertex $-1 $427 $481 #
straight-curve $-1 -62.266439149090616 44.07276987002551 27.85891865137933 -0.70710677298230462 0 -0.70710678939079052 I I #
point $-1 -72.427921826219972 44.07276987002551 17.697435738451727 #
point $-1 -79.47019867549669 28.503367040701889 10.655158725758241 #
vertex $-1 $429 $482 #
straight-curve $-1 -79.47019867549669 0 17.697435738451727 0 -1 0 I I #
vertex $-1 $337 $483 #
point $-1 -73.829509446405169 32.951767849080071 13.470960022800821 #
vertex $-1 $341 $484 #
point $-1 -73.829509446405169 39.624369061647343 13.470960022800821 #
edge $-1 $441 93.689135307314913 $444 106.71229577398695 $346 $485 forward 7 unknown #
vertex $-1 $360 $486 #
straight-curve $-1 66.924178543022606 -24.545461795880179 17.69743573845173 1 0 0 I I #
edge $-1 $444 -16.011804980897288 $357 -1.0555086490684982 $356 $487 forward 7 unknown #
vertex $-1 $443 $488 #
straight-curve $-1 -2.3901555291058401 -24.545461795880179 140.91278788693077 -0.51503806187062418 0 0.85716730853699208 I I #
point $-1 71.645094685433079 -24.545461795880179 17.697435738451745 #
point $-1 79.47019867549669 -9.5891654640513906 4.6742752717796918 #
straight-curve $-1 79.47019867549669 0 17.697435738451727 0 1 0 I I #
vertex $-1 $363 $489 #
point $-1 72.430177517433691 -17.067313629965781 6.3900990461999152 #
edge $-1 $452 93.689135307314913 $455 106.71229577398695 $368 $490 forward 7 unknown #
vertex $-1 $382 $491 #
straight-curve $-1 66.924178543022606 25.560605676841018 17.69743573845173 1 0 0 I I #
edge $-1 $455 9.0412287554633117 $379 23.997525087292097 $378 $492 forward 7 unknown #
vertex $-1 $454 $493 #
straight-curve $-1 -2.3901555291058401 25.560605676841018 140.91278788693077 -0.51503806187062418 0 0.85716730853699208 I I #
point $-1 71.645094685433079 25.560605676841018 17.697435738451745 #
point $-1 79.47019867549669 40.516902008669803 4.6742752717796918 #
straight-curve $-1 79.47019867549669 0 17.697435738451727 0 1 0 I I #
vertex $-1 $385 $494 #
point $-1 72.430177517433691 33.038753842755412 6.3900990461999152 #
straight-curve $-1 -79.47019867549669 44.07276987002551 0 0 0 -1 I I #
straight-curve $-1 0 44.07276987002551 -17.697435738451727 1 0 0 I I #
point $-1 79.47019867549669 44.07276987002551 -17.697435738451727 #
straight-curve $-1 -79.47019867549669 0 17.697435738451727 0 -1 0 I I #
point $-1 -79.47019867549669 44.07276987002551 17.697435738451727 #
straight-curve $-1 79.47019867549669 44.07276987002551 0 0 0 -1 I I #
point $-1 -79.47019867549669 44.07276987002551 -17.697435738451727 #
edge $-1 $424 -3.7740522998620349 $470 3.7740522998620349 $408 $495 forward 7 unknown #
vertex $-1 $412 $496 #
straight-curve $-1 -79.47019867549669 -60.044210082815127 0 0 0 -1 I I #
straight-curve $-1 -79.47019867549669 0 -17.697435738451727 0 1 0 I I #
straight-curve $-1 -75.696146375634655 -60.044210082815127 17.697435738451727 1 0 0 I I #
point $-1 -79.47019867549669 -60.044210082815127 17.697435738451727 #
point $-1 -71.92209407577262 -60.044210082815127 17.697435738451727 #
straight-curve $-1 -71.92209407577262 -60.044210082815127 0 0 0 -1 I I #
point $-1 -71.92209407577262 -60.044210082815127 -17.697435738451727 #
straight-curve $-1 -79.47019867549669 18.14403422768185 10.655158725758234 0 -1 0 I I #
straight-curve $-1 -79.47019867549669 44.07276987002551 0 0 0 -1 I I #
straight-curve $-1 0 44.07276987002551 17.697435738451727 -1 0 0 I I #
point $-1 -79.47019867549669 44.07276987002551 10.655158725758241 #
point $-1 -79.47019867549669 44.07276987002551 17.697435738451727 #
point $-1 -73.829509429996676 32.951767849080071 12.056746460427727 #
point $-1 -73.829509429996676 39.624369061647343 12.056746460427727 #
straight-curve $-1 79.47019867549669 -24.545461795880179 111.38657104576664 0 0 -1 I I #
point $-1 79.47019867549669 -24.545461795880179 17.697435738451727 #
straight-curve $-1 79.470198675496704 -8.5336568149828924 4.6742752717796918 0 1 0 I I #
point $-1 79.47019867549669 -24.545461795880179 4.6742752717796918 #
point $-1 68.999664091414658 -17.067313629965781 7.2454221628658351 #
straight-curve $-1 79.47019867549669 25.560605676841018 111.38657104576664 0 0 -1 I I #
point $-1 79.47019867549669 25.560605676841018 17.697435738451727 #
straight-curve $-1 79.470198675496704 16.519376921377706 4.6742752717796918 0 1 0 I I #
point $-1 79.47019867549669 25.560605676841018 4.6742752717796918 #
point $-1 68.999664091414658 33.038753842755412 7.2454221628658351 #
straight-curve $-1 -75.696146375634655 -60.044210082815127 -17.697435738451727 -1 0 0 I I #
point $-1 -79.47019867549669 -60.044210082815127 -17.697435738451727 #
End-of-ACIS-data 