500 0 9 0           
7 Unknown 11 ACIS 5.0 NT 24 Fri Mar 26 15:15:32 1999 
-1 9.9999999999999995e-007 1e-010 
body $-1 $9 $-1 $10 #
body $-1 $11 $-1 $12 #
body $-1 $13 $-1 $14 #
body $-1 $15 $-1 $16 #
body $-1 $17 $-1 $18 #
body $-1 $19 $-1 $20 #
body $-1 $21 $-1 $22 #
body $-1 $23 $-1 $24 #
body $-1 $25 $-1 $26 #
lump $-1 $-1 $27 $0 #
transform $-1 1 0 0 0 1 0 0 0 1 44.965971861934264 24.993735835401317 9.6781218803416689 1 rotate no_reflect no_shear #
lump $-1 $-1 $28 $1 #
transform $-1 1 0 0 0 1 0 0 0 1 44.965971861934264 24.993735835401317 9.6781218803416689 1 rotate no_reflect no_shear #
lump $-1 $-1 $29 $2 #
transform $-1 1 0 0 0 1 0 0 0 1 44.965971861934264 24.993735835401317 9.6781218803416689 1 rotate no_reflect no_shear #
lump $-1 $-1 $30 $3 #
transform $-1 1 0 0 0 1 0 0 0 1 44.965971861934264 24.993735835401317 9.6781218803416689 1 rotate no_reflect no_shear #
lump $-1 $-1 $31 $4 #
transform $-1 1 0 0 0 1 0 0 0 1 44.965971861934264 24.993735835401317 9.6781218803416689 1 rotate no_reflect no_shear #
lump $-1 $-1 $32 $5 #
transform $-1 1 0 0 0 1 0 0 0 1 44.965971861934264 24.993735835401317 9.6781218803416689 1 rotate no_reflect no_shear #
lump $-1 $-1 $33 $6 #
transform $-1 1 0 0 0 1 0 0 0 1 44.965971861934264 24.993735835401317 9.6781218803416689 1 rotate no_reflect no_shear #
lump $-1 $-1 $34 $7 #
transform $-1 1 0 0 0 1 0 0 0 1 44.965971861934264 24.993735835401317 9.6781218803416689 1 rotate no_reflect no_shear #
lump $-1 $-1 $35 $8 #
transform $-1 1 0 0 0 1 0 0 0 1 44.965971861934264 24.993735835401317 9.6781218803416689 1 rotate no_reflect no_shear #
shell $-1 $-1 $-1 $36 $-1 $9 #
shell $-1 $-1 $-1 $37 $-1 $11 #
shell $-1 $-1 $-1 $38 $-1 $13 #
shell $-1 $-1 $-1 $39 $-1 $15 #
shell $-1 $-1 $-1 $40 $-1 $17 #
shell $-1 $-1 $-1 $41 $-1 $19 #
shell $-1 $-1 $-1 $42 $-1 $21 #
shell $-1 $-1 $-1 $43 $-1 $23 #
shell $-1 $-1 $-1 $44 $-1 $25 #
face $-1 $45 $46 $27 $-1 $47 forward single #
face $-1 $48 $49 $28 $-1 $50 reversed single #
face $-1 $51 $52 $29 $-1 $53 reversed single #
face $-1 $54 $55 $30 $-1 $56 forward single #
face $-1 $57 $58 $31 $-1 $59 forward single #
face $-1 $60 $61 $32 $-1 $62 forward single #
face $-1 $63 $64 $33 $-1 $65 reversed single #
face $-1 $66 $67 $34 $-1 $68 forward single #
face $-1 $69 $70 $35 $-1 $71 forward single #
face $-1 $72 $73 $27 $-1 $74 reversed single #
loop $-1 $-1 $75 $36 #
plane-surface $-1 0 0 9.6781218803416689 0 0 1 1 0 0 forward_v I I I I #
face $-1 $76 $77 $28 $-1 $78 reversed single #
loop $-1 $-1 $79 $37 #
plane-surface $-1 0 -19.001316390315594 5.8289071225369042 0 0 1 1 0 0 forward_v I I I I #
face $-1 $80 $81 $29 $-1 $82 reversed single #
loop $-1 $-1 $83 $38 #
plane-surface $-1 58.260214403975738 21.851655184947404 131.36435709845057 0 -1 0 -0.77714596973225614 0 -0.62932038083071107 forward_v I I I I #
face $-1 $84 $85 $30 $-1 $86 forward single #
loop $-1 $87 $88 $39 #
cone-surface $-1 42.535619603718935 15.296476780262338 6.8838588208248792 -0.77714596973225614 0 -0.62932038083071107 0.31466019041535553 0 -0.38857298486612807 1 I I 0 1 0.5 forward I I I I #
face $-1 $89 $90 $31 $-1 $91 forward single #
loop $-1 $92 $93 $40 #
cone-surface $-1 42.535619603718935 17.754668682019236 6.8838588208248792 -0.77714596973225614 0 -0.62932038083071107 0.31466019041535553 0 -0.38857298486612807 1 I I 0 1 0.5 forward I I I I #
face $-1 $94 $95 $32 $-1 $96 forward single #
loop $-1 $97 $98 $41 #
cone-surface $-1 42.535619603718935 20.212860583776134 6.8838588208248792 -0.77714596973225614 0 -0.62932038083071107 0.31466019041535553 0 -0.38857298486612807 1 I I 0 1 0.5 forward I I I I #
face $-1 $99 $100 $33 $-1 $101 reversed single #
loop $-1 $-1 $102 $42 #
plane-surface $-1 -122.05269401522288 18.061326152122128 50.252447504397416 0 1 0 -0.85716730853699208 0 0.51503806187062418 forward_v I I I I #
face $-1 $103 $104 $34 $-1 $105 forward single #
loop $-1 $106 $107 $43 #
cone-surface $-1 -42.811702036944155 20.04201463305904 6.5485786635345917 0.85716730853699208 0 -0.51503806187062418 0.12875951546765604 0 0.21429182713424802 1 I I 0 1 0.25 forward I I I I #
face $-1 $108 $109 $35 $-1 $110 forward single #
loop $-1 $111 $112 $44 #
cone-surface $-1 -42.811702036944155 23.013047354464405 6.5485786635345917 0.85716730853699208 0 -0.51503806187062418 0.12875951546765604 0 0.21429182713424802 1 I I 0 1 0.25 forward I I I I #
face $-1 $113 $114 $27 $-1 $115 reversed single #
loop $-1 $-1 $116 $45 #
plane-surface $-1 0 0 -9.6781218803416689 0 0 1 1 0 0 forward_v I I I I #
coedge $-1 $117 $118 $119 $120 forward $46 $-1 #
face $-1 $121 $122 $28 $-1 $123 reversed single #
loop $-1 $-1 $124 $48 #
plane-surface $-1 0 -13.008896945229871 7.7535145014392857 0 -1 0 0 0 -1 forward_v I I I I #
coedge $-1 $125 $126 $127 $128 reversed $49 $-1 #
face $-1 $129 $130 $29 $-1 $131 reversed single #
loop $-1 $-1 $132 $51 #
plane-surface $-1 -11.630033211216755 17.754668682019236 74.768352025299549 0.77714596973225614 0 0.62932038083071107 0.62932038083071107 0 -0.77714596973225614 forward_v I I I I #
coedge $-1 $133 $134 $135 $136 reversed $52 $-1 #
face $-1 $-1 $137 $30 $-1 $138 forward single #
loop $-1 $139 $140 $54 #
cone-surface $-1 41.854469554043177 15.296476780262338 6.3322744012177257 -0.77714596973225614 0 -0.62932038083071107 0.15733009520767777 0 -0.19428649243306403 1 I I -0.70710678118654746 0.70710678118654746 0.25 forward I I I I #
loop $-1 $-1 $141 $39 #
coedge $-1 $88 $88 $142 $143 reversed $55 $-1 #
face $-1 $-1 $144 $31 $-1 $145 forward single #
loop $-1 $146 $147 $57 #
cone-surface $-1 41.854469554043177 17.754668682019236 6.3322744012177257 -0.77714596973225614 0 -0.62932038083071107 0.15733009520767777 0 -0.19428649243306403 1 I I -0.70710678118654746 0.70710678118654746 0.25 forward I I I I #
loop $-1 $-1 $148 $40 #
coedge $-1 $93 $93 $149 $150 reversed $58 $-1 #
face $-1 $-1 $151 $32 $-1 $152 forward single #
loop $-1 $153 $154 $60 #
cone-surface $-1 41.854469554043177 20.212860583776134 6.3322744012177257 -0.77714596973225614 0 -0.62932038083071107 0.15733009520767777 0 -0.19428649243306403 1 I I -0.70710678118654746 0.70710678118654746 0.25 forward I I I I #
loop $-1 $-1 $155 $41 #
coedge $-1 $98 $98 $156 $157 reversed $61 $-1 #
face $-1 $158 $159 $33 $-1 $160 forward single #
loop $-1 $-1 $161 $63 #
plane-surface $-1 -44.965971861934264 21.527530993761722 3.9340735085981251 -0.85716730853699208 0 0.51503806187062418 0.51503806187062418 0 0.85716730853699208 forward_v I I I I #
coedge $-1 $162 $163 $164 $165 reversed $64 $-1 #
face $-1 $-1 $166 $34 $-1 $167 forward single #
loop $-1 $168 $169 $66 #
cone-surface $-1 -42.275972469108538 20.04201463305904 6.2266798748654519 0.85716730853699208 0 -0.51503806187062418 0.064379757733828022 0 0.10714591356712401 1 I I -0.70710678118654746 0.70710678118654746 0.125 forward I I I I #
loop $-1 $-1 $170 $43 #
coedge $-1 $107 $107 $171 $172 reversed $67 $-1 #
face $-1 $-1 $173 $35 $-1 $174 forward single #
loop $-1 $175 $176 $69 #
cone-surface $-1 -42.275972469108538 23.013047354464405 6.2266798748654519 0.85716730853699208 0 -0.51503806187062418 0.064379757733828022 0 0.10714591356712401 1 I I -0.70710678118654746 0.70710678118654746 0.125 forward I I I I #
loop $-1 $-1 $177 $44 #
coedge $-1 $112 $112 $178 $179 reversed $70 $-1 #
face $-1 $180 $181 $27 $-1 $182 reversed single #
loop $-1 $-1 $183 $72 #
plane-surface $-1 0 -24.993735835401317 0 0 1 0 0 0 1 forward_v I I I I #
coedge $-1 $184 $185 $186 $187 forward $73 $-1 #
coedge $-1 $188 $75 $189 $190 forward $46 $-1 #
coedge $-1 $75 $188 $191 $192 forward $46 $-1 #
coedge $-1 $193 $194 $75 $120 reversed $195 $-1 #
edge $-1 $196 -24.993735835401317 $197 24.993735835401317 $119 $198 forward 7 unknown #
face $-1 $199 $200 $28 $-1 $201 reversed single #
loop $-1 $-1 $202 $76 #
plane-surface $-1 -44.965971861934264 0 0 1 0 0 0 0 -1 forward_v I I I I #
coedge $-1 $203 $204 $205 $206 reversed $77 $-1 #
coedge $-1 $207 $79 $208 $209 reversed $49 $-1 #
coedge $-1 $79 $207 $203 $210 forward $49 $-1 #
coedge $-1 $205 $211 $79 $128 forward $212 $-1 #
edge $-1 $213 -15.49307764024352 $214 -3.5082387500720742 $127 $215 forward 7 unknown #
face $-1 $216 $217 $29 $-1 $218 reversed single #
loop $-1 $-1 $219 $80 #
plane-surface $-1 58.260214403975738 13.657682179091069 131.36435709845057 0 1 0 0.77714596973225614 0 0.62932038083071107 forward_v I I I I #
coedge $-1 $220 $221 $222 $223 reversed $81 $-1 #
coedge $-1 $134 $83 $224 $225 reversed $52 $-1 #
coedge $-1 $83 $133 $220 $226 reversed $52 $-1 #
coedge $-1 $222 $227 $83 $136 forward $228 $-1 #
edge $-1 $229 -15.835864659946395 $230 -11.948887258001136 $135 $231 forward 7 unknown #
loop $-1 $-1 $142 $84 #
plane-surface $-1 -11.630033211216755 17.754668682019236 74.768352025299549 0.77714596973225614 0 0.62932038083071107 0.62932038083071107 0 -0.77714596973225614 forward_v I I I I #
loop $-1 $-1 $232 $54 #
coedge $-1 $140 $140 $141 $233 reversed $85 $-1 #
coedge $-1 $141 $141 $140 $233 forward $87 $-1 #
coedge $-1 $142 $142 $88 $143 forward $137 $-1 #
edge $-1 $234 0 $234 6.2831853071796004 $142 $235 forward 7 unknown #
loop $-1 $-1 $149 $89 #
plane-surface $-1 -11.630033211216755 17.754668682019236 74.768352025299549 0.77714596973225614 0 0.62932038083071107 0.62932038083071107 0 -0.77714596973225614 forward_v I I I I #
loop $-1 $-1 $236 $57 #
coedge $-1 $147 $147 $148 $237 reversed $90 $-1 #
coedge $-1 $148 $148 $147 $237 forward $92 $-1 #
coedge $-1 $149 $149 $93 $150 forward $144 $-1 #
edge $-1 $238 0 $238 6.2831853071796004 $149 $239 forward 7 unknown #
loop $-1 $-1 $156 $94 #
plane-surface $-1 -11.630033211216755 17.754668682019236 74.768352025299549 0.77714596973225614 0 0.62932038083071107 0.62932038083071107 0 -0.77714596973225614 forward_v I I I I #
loop $-1 $-1 $240 $60 #
coedge $-1 $154 $154 $155 $241 reversed $95 $-1 #
coedge $-1 $155 $155 $154 $241 forward $97 $-1 #
coedge $-1 $156 $156 $98 $157 forward $151 $-1 #
edge $-1 $242 0 $242 6.2831853071796004 $156 $243 forward 7 unknown #
face $-1 $244 $245 $33 $-1 $246 reversed single #
loop $-1 $-1 $164 $99 #
plane-surface $-1 0 0 9.6781218803416689 0 0 1 1 0 0 forward_v I I I I #
coedge $-1 $247 $248 $249 $250 reversed $100 $-1 #
coedge $-1 $163 $102 $251 $252 reversed $64 $-1 #
coedge $-1 $102 $162 $247 $253 reversed $64 $-1 #
coedge $-1 $249 $254 $102 $165 forward $159 $-1 #
edge $-1 $255 16.060375145677177 $256 19.51174748712041 $164 $257 forward 7 unknown #
loop $-1 $-1 $171 $103 #
plane-surface $-1 -44.965971861934264 21.527530993761722 3.9340735085981251 -0.85716730853699208 0 0.51503806187062418 0.51503806187062418 0 0.85716730853699208 forward_v I I I I #
loop $-1 $-1 $258 $66 #
coedge $-1 $169 $169 $170 $259 reversed $104 $-1 #
coedge $-1 $170 $170 $169 $259 forward $106 $-1 #
coedge $-1 $171 $171 $107 $172 forward $166 $-1 #
edge $-1 $260 0 $260 6.2831853071796004 $171 $261 forward 7 unknown #
loop $-1 $-1 $178 $108 #
plane-surface $-1 -44.965971861934264 21.527530993761722 3.9340735085981251 -0.85716730853699208 0 0.51503806187062418 0.51503806187062418 0 0.85716730853699208 forward_v I I I I #
loop $-1 $-1 $262 $69 #
coedge $-1 $176 $176 $177 $263 reversed $109 $-1 #
coedge $-1 $177 $177 $176 $263 forward $111 $-1 #
coedge $-1 $178 $178 $112 $179 forward $173 $-1 #
edge $-1 $264 0 $264 6.2831853071796004 $178 $265 forward 7 unknown #
face $-1 $266 $267 $27 $-1 $268 reversed single #
loop $-1 $-1 $269 $113 #
plane-surface $-1 -44.965971861934264 0 0 1 0 0 0 0 -1 forward_v I I I I #
coedge $-1 $270 $191 $271 $272 forward $114 $-1 #
coedge $-1 $273 $116 $270 $274 forward $73 $-1 #
coedge $-1 $116 $273 $275 $276 forward $73 $-1 #
coedge $-1 $194 $193 $116 $187 reversed $195 $-1 #
edge $-1 $277 -24.993735835401317 $278 24.993735835401317 $186 $279 forward 7 unknown #
coedge $-1 $118 $117 $280 $281 forward $46 $-1 #
coedge $-1 $282 $283 $117 $190 reversed $267 $-1 #
edge $-1 $197 -44.965971861934264 $284 44.965971861934264 $189 $285 forward 7 unknown #
coedge $-1 $183 $286 $118 $192 reversed $114 $-1 #
edge $-1 $287 -44.965971861934264 $196 44.965971861934264 $191 $288 forward 7 unknown #
coedge $-1 $186 $119 $286 $289 forward $195 $-1 #
coedge $-1 $119 $186 $282 $290 reversed $195 $-1 #
loop $-1 $-1 $193 $266 #
vertex $-1 $120 $291 #
vertex $-1 $120 $292 #
straight-curve $-1 44.965971861934264 0 9.6781218803416689 0 1 0 I I #
face $-1 $293 $294 $28 $-1 $295 forward single #
loop $-1 $-1 $208 $121 #
plane-surface $-1 0 -24.993735835401317 0 0 1 0 0 0 1 forward_v I I I I #
coedge $-1 $296 $297 $298 $299 forward $122 $-1 #
coedge $-1 $298 $124 $126 $210 reversed $77 $-1 #
coedge $-1 $124 $298 $300 $301 reversed $77 $-1 #
coedge $-1 $302 $127 $124 $206 forward $212 $-1 #
edge $-1 $214 1.9521498718172614 $303 5.8013646296220243 $205 $304 forward 7 unknown #
coedge $-1 $126 $125 $296 $305 reversed $49 $-1 #
coedge $-1 $306 $307 $125 $209 forward $200 $-1 #
edge $-1 $308 -44.965971861934264 $213 44.965971861934264 $208 $309 forward 7 unknown #
edge $-1 $310 -44.965971861934264 $214 44.965971861934264 $203 $311 forward 7 unknown #
coedge $-1 $127 $302 $306 $312 forward $212 $-1 #
loop $-1 $-1 $205 $293 #
vertex $-1 $209 $313 #
vertex $-1 $128 $314 #
straight-curve $-1 44.965971861934264 -9.5006581951577971 5.8289071225369042 0 1 0 I I #
face $-1 $-1 $228 $29 $-1 $315 forward single #
loop $-1 $-1 $316 $129 #
plane-surface $-1 44.965971861934264 0 0 -1 0 0 0 0 1 forward_v I I I I #
coedge $-1 $317 $318 $319 $320 reversed $130 $-1 #
coedge $-1 $321 $132 $134 $226 forward $81 $-1 #
coedge $-1 $132 $321 $317 $322 forward $81 $-1 #
coedge $-1 $319 $135 $132 $223 forward $228 $-1 #
edge $-1 $230 -12.974320843937786 $323 -4.7803478380814504 $222 $324 forward 7 unknown #
coedge $-1 $325 $326 $133 $225 forward $217 $-1 #
edge $-1 $327 -60.804074139118228 $229 -56.004056668883614 $224 $328 forward 7 unknown #
edge $-1 $230 83.755475393358722 $327 89.931943723868528 $134 $329 forward 7 unknown #
coedge $-1 $135 $319 $325 $330 forward $228 $-1 #
loop $-1 $-1 $319 $216 #
vertex $-1 $225 $331 #
vertex $-1 $136 $332 #
straight-curve $-1 29.130107201987869 21.851655184947404 9.6781218803416706 -1 0 0 I I #
coedge $-1 $232 $232 $-1 $333 reversed $139 $-1 #
edge $-1 $334 0 $334 6.2831853071796004 $140 $335 forward 7 unknown #
vertex $-1 $143 $336 #
ellipse-curve $-1 43.022483160961627 15.296476780262338 7.2781131452243573 0.77714596973225614 0 0.62932038083071107 0.31466019041535553 0 -0.38857298486612807 1 I I #
coedge $-1 $236 $236 $-1 $337 reversed $146 $-1 #
edge $-1 $338 0 $338 6.2831853071796004 $147 $339 forward 7 unknown #
vertex $-1 $150 $340 #
ellipse-curve $-1 43.022483160961627 17.754668682019236 7.2781131452243573 0.77714596973225614 0 0.62932038083071107 0.31466019041535553 0 -0.38857298486612807 1 I I #
coedge $-1 $240 $240 $-1 $341 reversed $153 $-1 #
edge $-1 $342 0 $342 6.2831853071796004 $154 $343 forward 7 unknown #
vertex $-1 $157 $344 #
ellipse-curve $-1 43.022483160961627 20.212860583776134 7.2781131452243573 0.77714596973225614 0 0.62932038083071107 0.31466019041535553 0 -0.38857298486612807 1 I I #
face $-1 $-1 $345 $33 $-1 $346 reversed single #
loop $-1 $-1 $347 $158 #
plane-surface $-1 0 24.993735835401317 0 0 -1 0 0 0 -1 forward_v I I I I #
coedge $-1 $348 $161 $163 $253 forward $100 $-1 #
coedge $-1 $161 $348 $347 $349 reversed $100 $-1 #
coedge $-1 $350 $164 $161 $250 forward $159 $-1 #
edge $-1 $256 7.2975606552412664 $351 14.229970338520456 $249 $352 forward 7 unknown #
coedge $-1 $353 $354 $162 $252 forward $345 $-1 #
edge $-1 $355 -21.192150243600583 $255 -15.448101871857039 $251 $356 forward 7 unknown #
edge $-1 $256 -6.7011986044445075 $355 0 $163 $357 forward 7 unknown #
coedge $-1 $164 $350 $353 $358 forward $159 $-1 #
vertex $-1 $252 $359 #
vertex $-1 $165 $360 #
straight-curve $-1 -61.026347007611442 18.061326152122128 9.6781218803416706 1 0 0 I I #
coedge $-1 $258 $258 $-1 $361 reversed $168 $-1 #
edge $-1 $362 0 $362 6.2831853071796004 $169 $363 forward 7 unknown #
vertex $-1 $172 $364 #
ellipse-curve $-1 -43.240285691212648 20.04201463305904 6.8060976944699014 -0.85716730853699208 0 0.51503806187062418 0.12875951546765604 0 0.21429182713424802 1 I I #
coedge $-1 $262 $262 $-1 $365 reversed $175 $-1 #
edge $-1 $366 0 $366 6.2831853071796004 $176 $367 forward 7 unknown #
vertex $-1 $179 $368 #
ellipse-curve $-1 -43.240285691212648 23.013047354464405 6.8060976944699014 -0.85716730853699208 0 0.51503806187062418 0.12875951546765604 0 0.21429182713424802 1 I I #
face $-1 $-1 $195 $27 $-1 $369 reversed single #
loop $-1 $-1 $282 $180 #
plane-surface $-1 0 24.993735835401317 0 0 -1 0 0 0 -1 forward_v I I I I #
coedge $-1 $370 $280 $283 $371 forward $181 $-1 #
coedge $-1 $286 $183 $184 $274 reversed $114 $-1 #
coedge $-1 $280 $370 $183 $272 reversed $181 $-1 #
edge $-1 $287 -9.6781218803416689 $372 9.6781218803416689 $271 $373 forward 7 unknown #
coedge $-1 $185 $184 $370 $374 forward $73 $-1 #
edge $-1 $278 -44.965971861934264 $372 44.965971861934264 $270 $375 forward 7 unknown #
coedge $-1 $283 $282 $185 $276 reversed $267 $-1 #
edge $-1 $376 -44.965971861934264 $277 44.965971861934264 $275 $377 forward 7 unknown #
vertex $-1 $187 $378 #
vertex $-1 $289 $379 #
straight-curve $-1 44.965971861934264 0 -9.6781218803416689 0 -1 0 I I #
coedge $-1 $269 $271 $188 $281 reversed $181 $-1 #
edge $-1 $284 -24.993735835401317 $287 24.993735835401317 $280 $380 forward 7 unknown #
coedge $-1 $275 $189 $194 $290 forward $267 $-1 #
coedge $-1 $189 $275 $269 $371 reversed $267 $-1 #
vertex $-1 $190 $381 #
straight-curve $-1 0 24.993735835401317 9.6781218803416689 -1 0 0 I I #
coedge $-1 $191 $270 $193 $289 reversed $114 $-1 #
vertex $-1 $281 $382 #
straight-curve $-1 0 -24.993735835401317 9.6781218803416689 1 0 0 I I #
edge $-1 $196 -9.6781218803416689 $278 9.6781218803416689 $193 $383 forward 7 unknown #
edge $-1 $197 -9.6781218803416689 $277 9.6781218803416689 $194 $384 forward 7 unknown #
point $-1 44.965971861934264 -24.993735835401317 9.6781218803416689 #
point $-1 44.965971861934264 24.993735835401317 9.6781218803416689 #
face $-1 $-1 $212 $28 $-1 $385 reversed single #
loop $-1 $-1 $300 $199 #
plane-surface $-1 0 0 9.6781218803416689 0 0 1 1 0 0 forward_v I I I I #
coedge $-1 $386 $202 $207 $305 forward $122 $-1 #
coedge $-1 $202 $386 $387 $388 reversed $122 $-1 #
coedge $-1 $204 $203 $202 $299 reversed $77 $-1 #
edge $-1 $389 -5.8013646296220243 $310 -1.9521498718172614 $202 $390 forward 7 unknown #
coedge $-1 $387 $391 $204 $301 forward $294 $-1 #
edge $-1 $303 -44.965971861934264 $389 44.965971861934264 $300 $392 forward 7 unknown #
coedge $-1 $211 $205 $391 $393 reversed $212 $-1 #
vertex $-1 $206 $394 #
straight-curve $-1 44.965971861934264 -13.008896945229871 3.8767572507196428 0 0 1 I I #
edge $-1 $310 3.5082387500720742 $308 15.49307764024352 $296 $395 forward 7 unknown #
coedge $-1 $396 $208 $211 $312 reversed $200 $-1 #
coedge $-1 $208 $396 $386 $397 forward $200 $-1 #
vertex $-1 $209 $398 #
straight-curve $-1 0 -24.993735835401317 5.8289071225369042 1 0 0 I I #
vertex $-1 $305 $399 #
straight-curve $-1 0 -13.008896945229871 5.8289071225369042 1 0 0 I I #
edge $-1 $400 -9.6781218803416689 $213 -5.8289071225369042 $211 $401 forward 7 unknown #
point $-1 44.965971861934264 -24.993735835401317 5.8289071225369042 #
point $-1 44.965971861934264 -13.008896945229871 5.8289071225369042 #
plane-surface $-1 0 0 9.6781218803416689 0 0 1 1 0 0 forward_v I I I I #
coedge $-1 $326 $325 $318 $402 forward $217 $-1 #
coedge $-1 $318 $219 $221 $322 reversed $130 $-1 #
coedge $-1 $219 $317 $316 $402 reversed $130 $-1 #
coedge $-1 $227 $222 $219 $320 forward $228 $-1 #
edge $-1 $323 11.948887258001136 $403 15.835864659946395 $319 $404 forward 7 unknown #
coedge $-1 $221 $220 $326 $405 reversed $81 $-1 #
edge $-1 $406 -89.931943723868528 $323 -83.755475393358722 $317 $407 forward 7 unknown #
vertex $-1 $223 $408 #
straight-curve $-1 41.078994459989005 8.8773343410096182 9.6781218803416706 0 -1 0 I I #
coedge $-1 $316 $224 $227 $330 reversed $217 $-1 #
coedge $-1 $224 $316 $321 $405 forward $217 $-1 #
vertex $-1 $225 $409 #
straight-curve $-1 44.965971861934264 21.851655184947404 65.682178549225284 0 0 1 I I #
straight-curve $-1 -11.630033211216755 21.851655184947404 74.768352025299549 0.62932038083071107 0 -0.77714596973225614 I I #
edge $-1 $403 13.657682179091069 $229 21.851655184947404 $325 $410 forward 7 unknown #
point $-1 44.965971861934264 21.851655184947404 9.6781218803416689 #
point $-1 41.078994459989005 21.851655184947404 9.6781218803416635 #
edge $-1 $411 1 $411 0 $232 $-1 forward 7 unknown #
vertex $-1 $233 $412 #
ellipse-curve $-1 42.048756046476242 15.296476780262338 6.4896044964254038 0.77714596973225614 0 0.62932038083071107 0.31466019041535553 0 -0.38857298486612807 1 I I #
point $-1 43.33714335137698 15.296476780262338 6.8895401603582274 #
edge $-1 $413 1 $413 0 $236 $-1 forward 7 unknown #
vertex $-1 $237 $414 #
ellipse-curve $-1 42.048756046476242 17.754668682019236 6.4896044964254038 0.77714596973225614 0 0.62932038083071107 0.31466019041535553 0 -0.38857298486612807 1 I I #
point $-1 43.33714335137698 17.754668682019236 6.8895401603582274 #
edge $-1 $415 1 $415 0 $240 $-1 forward 7 unknown #
vertex $-1 $241 $416 #
ellipse-curve $-1 42.048756046476242 20.212860583776134 6.4896044964254038 0.77714596973225614 0 0.62932038083071107 0.31466019041535553 0 -0.38857298486612807 1 I I #
point $-1 43.33714335137698 20.212860583776134 6.8895401603582274 #
loop $-1 $-1 $251 $244 #
plane-surface $-1 -44.965971861934264 0 0 1 0 0 0 0 -1 forward_v I I I I #
coedge $-1 $417 $418 $248 $349 forward $245 $-1 #
coedge $-1 $248 $247 $354 $419 reversed $100 $-1 #
edge $-1 $351 3.1923152940294512 $420 9.8935138984739588 $347 $421 forward 7 unknown #
coedge $-1 $254 $249 $418 $422 forward $159 $-1 #
vertex $-1 $422 $423 #
straight-curve $-1 -41.514599520491032 10.763765496880861 9.6781218803416689 0 1 0 I I #
coedge $-1 $424 $251 $254 $358 reversed $345 $-1 #
coedge $-1 $251 $424 $348 $419 forward $345 $-1 #
vertex $-1 $252 $425 #
straight-curve $-1 -44.965971861934264 18.061326152122128 25.126223752198708 0 0 1 I I #
straight-curve $-1 -44.965971861934264 18.061326152122128 3.9340735085981251 -0.51503806187062418 0 -0.85716730853699208 I I #
edge $-1 $426 -24.993735835401317 $255 -18.061326152122128 $353 $427 forward 7 unknown #
point $-1 -44.965971861934264 18.061326152122128 9.6781218803416689 #
point $-1 -41.514599520491032 18.061326152122128 9.6781218803416689 #
edge $-1 $428 1 $428 0 $258 $-1 forward 7 unknown #
vertex $-1 $259 $429 #
ellipse-curve $-1 -42.383118382675661 20.04201463305904 6.2910596325992802 -0.85716730853699208 0 0.51503806187062418 0.12875951546765604 0 0.21429182713424802 1 I I #
point $-1 -43.111526175744999 20.04201463305904 7.0203895216041516 #
edge $-1 $430 1 $430 0 $262 $-1 forward 7 unknown #
vertex $-1 $263 $431 #
ellipse-curve $-1 -42.383118382675661 23.013047354464405 6.2910596325992802 -0.85716730853699208 0 0.51503806187062418 0.12875951546765604 0 0.21429182713424802 1 I I #
point $-1 -43.111526175744999 23.013047354464405 7.0203895216041516 #
plane-surface $-1 44.965971861934264 0 0 -1 0 0 0 0 1 forward_v I I I I #
coedge $-1 $271 $269 $273 $374 reversed $181 $-1 #
edge $-1 $284 -9.6781218803416689 $376 9.6781218803416689 $283 $432 forward 7 unknown #
vertex $-1 $374 $433 #
straight-curve $-1 -44.965971861934264 -24.993735835401317 0 0 0 -1 I I #
edge $-1 $372 -24.993735835401317 $376 24.993735835401317 $370 $434 forward 7 unknown #
straight-curve $-1 0 -24.993735835401317 -9.6781218803416689 -1 0 0 I I #
vertex $-1 $276 $435 #
straight-curve $-1 0 24.993735835401317 -9.6781218803416689 1 0 0 I I #
point $-1 44.965971861934264 24.993735835401317 -9.6781218803416689 #
point $-1 44.965971861934264 -24.993735835401317 -9.6781218803416689 #
straight-curve $-1 -44.965971861934264 0 9.6781218803416689 0 -1 0 I I #
point $-1 -44.965971861934264 24.993735835401317 9.6781218803416689 #
point $-1 -44.965971861934264 -24.993735835401317 9.6781218803416689 #
straight-curve $-1 44.965971861934264 -24.993735835401317 0 0 0 -1 I I #
straight-curve $-1 44.965971861934264 24.993735835401317 0 0 0 -1 I I #
plane-surface $-1 44.965971861934264 0 0 -1 0 0 0 0 1 forward_v I I I I #
coedge $-1 $297 $296 $307 $397 reversed $122 $-1 #
coedge $-1 $436 $300 $297 $388 forward $294 $-1 #
edge $-1 $389 13.008896945229871 $437 24.993735835401317 $297 $438 forward 7 unknown #
vertex $-1 $388 $439 #
straight-curve $-1 -44.965971861934264 -13.008896945229871 3.8767572507196428 0 0 -1 I I #
coedge $-1 $300 $436 $302 $393 forward $294 $-1 #
straight-curve $-1 0 -13.008896945229871 9.6781218803416689 -1 0 0 I I #
edge $-1 $400 -24.993735835401317 $303 -13.008896945229871 $302 $440 forward 7 unknown #
point $-1 44.965971861934264 -13.008896945229871 9.6781218803416671 #
straight-curve $-1 -44.965971861934264 -9.5006581951577971 5.8289071225369042 0 -1 0 I I #
coedge $-1 $307 $306 $436 $441 reversed $200 $-1 #
edge $-1 $437 -9.6781218803416689 $308 -5.8289071225369042 $386 $442 forward 7 unknown #
point $-1 -44.965971861934264 -24.993735835401317 5.8289071225369042 #
point $-1 -44.965971861934264 -13.008896945229871 5.8289071225369042 #
vertex $-1 $393 $443 #
straight-curve $-1 44.965971861934264 -24.993735835401317 0 0 0 -1 I I #
edge $-1 $403 56.004056668883614 $406 60.804074139118228 $316 $444 forward 7 unknown #
vertex $-1 $330 $445 #
straight-curve $-1 29.130107201987869 13.657682179091069 9.6781218803416706 1 0 0 I I #
edge $-1 $406 4.7803478380814504 $327 12.974320843937786 $326 $446 forward 7 unknown #
vertex $-1 $405 $447 #
straight-curve $-1 -11.630033211216755 13.657682179091069 74.768352025299549 -0.62932038083071107 0 0.77714596973225614 I I #
point $-1 41.078994459989005 13.657682179091069 9.6781218803416635 #
point $-1 44.965971861934264 21.851655184947404 4.8781044101070563 #
straight-curve $-1 44.965971861934264 0 9.6781218803416689 0 1 0 I I #
vertex $-1 $333 $448 #
point $-1 42.363416236891595 15.296476780262338 6.1010315115592757 #
vertex $-1 $337 $449 #
point $-1 42.363416236891595 17.754668682019236 6.1010315115592757 #
vertex $-1 $341 $450 #
point $-1 42.363416236891595 20.212860583776134 6.1010315115592757 #
coedge $-1 $418 $347 $424 $451 reversed $245 $-1 #
coedge $-1 $347 $417 $350 $422 reversed $245 $-1 #
edge $-1 $420 -14.229970338520456 $355 -7.2975606552412664 $354 $452 forward 7 unknown #
vertex $-1 $349 $453 #
straight-curve $-1 -39.870435638574151 24.993735835401317 12.414470188926369 -0.51503806187062429 0 -0.85716730853699219 I I #
edge $-1 $351 41.514599520491032 $426 44.965971861934264 $418 $454 forward 7 unknown #
point $-1 -41.514599520491032 24.993735835401317 9.6781218803416689 #
coedge $-1 $354 $353 $417 $451 forward $345 $-1 #
point $-1 -44.965971861934264 18.061326152122128 3.9340735085981251 #
vertex $-1 $422 $455 #
straight-curve $-1 -44.965971861934264 0 9.6781218803416689 0 -1 0 I I #
vertex $-1 $361 $456 #
point $-1 -42.254358867208005 20.04201463305904 6.5053514597335278 #
vertex $-1 $365 $457 #
point $-1 -42.254358867208005 23.013047354464405 6.5053514597335278 #
straight-curve $-1 -44.965971861934264 24.993735835401317 0 0 0 -1 I I #
point $-1 -44.965971861934264 -24.993735835401317 -9.6781218803416689 #
straight-curve $-1 -44.965971861934264 0 -9.6781218803416689 0 1 0 I I #
point $-1 -44.965971861934264 24.993735835401317 -9.6781218803416689 #
coedge $-1 $391 $387 $396 $441 forward $294 $-1 #
vertex $-1 $388 $458 #
straight-curve $-1 -44.965971861934264 0 9.6781218803416689 0 -1 0 I I #
point $-1 -44.965971861934264 -13.008896945229871 9.6781218803416671 #
straight-curve $-1 44.965971861934264 0 9.6781218803416689 0 1 0 I I #
edge $-1 $437 -44.965971861934264 $400 44.965971861934264 $396 $459 forward 7 unknown #
straight-curve $-1 -44.965971861934264 -24.993735835401317 0 0 0 -1 I I #
point $-1 44.965971861934264 -24.993735835401317 9.6781218803416689 #
straight-curve $-1 44.965971861934264 13.657682179091069 65.682178549225284 0 0 -1 I I #
point $-1 44.965971861934264 13.657682179091069 9.6781218803416689 #
straight-curve $-1 44.965971861934264 8.8773343410096182 4.8781044101070563 0 1 0 I I #
point $-1 44.965971861934264 13.657682179091069 4.8781044101070563 #
point $-1 41.660183061610113 15.296476780262338 6.1749443060100475 #
point $-1 41.660183061610113 17.754668682019236 6.1749443060100475 #
point $-1 41.660183061610113 20.212860583776134 6.1749443060100475 #
edge $-1 $426 -9.6781218803416689 $420 -3.9340735085981251 $417 $460 forward 7 unknown #
straight-curve $-1 -44.965971861934264 10.763765496880861 3.9340735085981251 0 -1 0 I I #
point $-1 -44.965971861934264 24.993735835401317 3.9340735085981251 #
straight-curve $-1 0 24.993735835401317 9.6781218803416689 -1 0 0 I I #
point $-1 -44.965971861934264 24.993735835401317 9.6781218803416689 #
point $-1 -42.168826555541415 20.04201463305904 6.1623001171316236 #
point $-1 -42.168826555541415 23.013047354464405 6.1623001171316236 #
point $-1 -44.965971861934264 -24.993735835401317 9.6781218803416689 #
straight-curve $-1 0 -24.993735835401317 9.6781218803416689 1 0 0 I I #
straight-curve $-1 -44.965971861934264 24.993735835401317 0 0 0 -1 I I #
End-of-ACIS-data 