500 0 10 0           
7 Unknown 11 ACIS 5.0 NT 24 Fri Mar 26 19:50:43 1999 
-1 9.9999999999999995e-007 1e-010 
body $-1 $10 $-1 $11 #
body $-1 $12 $-1 $13 #
body $-1 $14 $-1 $15 #
body $-1 $16 $-1 $17 #
body $-1 $18 $-1 $19 #
body $-1 $20 $-1 $21 #
body $-1 $22 $-1 $23 #
body $-1 $24 $-1 $25 #
body $-1 $26 $-1 $27 #
body $-1 $28 $-1 $29 #
lump $-1 $-1 $30 $0 #
transform $-1 1 0 0 0 1 0 0 0 1 51.387066255684076 21.523068169385645 5.9535747939597048 1 rotate no_reflect no_shear #
lump $-1 $-1 $31 $1 #
transform $-1 1 0 0 0 1 0 0 0 1 51.387066255684076 21.523068169385645 5.9535747939597048 1 rotate no_reflect no_shear #
lump $-1 $-1 $32 $2 #
transform $-1 1 0 0 0 1 0 0 0 1 51.387066255684076 21.523068169385645 5.9535747939597048 1 rotate no_reflect no_shear #
lump $-1 $-1 $33 $3 #
transform $-1 1 0 0 0 1 0 0 0 1 51.387066255684076 21.523068169385645 5.9535747939597048 1 rotate no_reflect no_shear #
lump $-1 $-1 $34 $4 #
transform $-1 1 0 0 0 1 0 0 0 1 51.387066255684076 21.523068169385645 5.9535747939597048 1 rotate no_reflect no_shear #
lump $-1 $-1 $35 $5 #
transform $-1 1 0 0 0 1 0 0 0 1 51.387066255684076 21.523068169385645 5.9535747939597048 1 rotate no_reflect no_shear #
lump $-1 $-1 $36 $6 #
transform $-1 1 0 0 0 1 0 0 0 1 51.387066255684076 21.523068169385645 5.9535747939597048 1 rotate no_reflect no_shear #
lump $-1 $-1 $37 $7 #
transform $-1 1 0 0 0 1 0 0 0 1 51.387066255684076 21.523068169385645 5.9535747939597048 1 rotate no_reflect no_shear #
lump $-1 $-1 $38 $8 #
transform $-1 1 0 0 0 1 0 0 0 1 51.387066255684076 21.523068169385645 5.9535747939597048 1 rotate no_reflect no_shear #
lump $-1 $-1 $39 $9 #
transform $-1 1 0 0 0 1 0 0 0 1 51.387066255684076 21.523068169385645 5.9535747939597048 1 rotate no_reflect no_shear #
shell $-1 $-1 $-1 $40 $-1 $10 #
shell $-1 $-1 $-1 $41 $-1 $12 #
shell $-1 $-1 $-1 $42 $-1 $14 #
shell $-1 $-1 $-1 $43 $-1 $16 #
shell $-1 $-1 $-1 $44 $-1 $18 #
shell $-1 $-1 $-1 $45 $-1 $20 #
shell $-1 $-1 $-1 $46 $-1 $22 #
shell $-1 $-1 $-1 $47 $-1 $24 #
shell $-1 $-1 $-1 $48 $-1 $26 #
shell $-1 $-1 $-1 $49 $-1 $28 #
face $-1 $50 $51 $30 $-1 $52 forward single #
face $-1 $53 $54 $31 $-1 $55 reversed single #
face $-1 $56 $57 $32 $-1 $58 reversed single #
face $-1 $59 $60 $33 $-1 $61 reversed single #
face $-1 $62 $63 $34 $-1 $64 forward single #
face $-1 $65 $66 $35 $-1 $67 forward single #
face $-1 $68 $69 $36 $-1 $70 forward single #
face $-1 $71 $72 $37 $-1 $73 reversed single #
face $-1 $74 $75 $38 $-1 $76 forward single #
face $-1 $77 $78 $39 $-1 $79 forward single #
face $-1 $80 $81 $30 $-1 $82 reversed single #
loop $-1 $-1 $83 $40 #
plane-surface $-1 0 0 5.9535747939597048 0 0 1 1 0 0 forward_v I I I I #
face $-1 $84 $85 $31 $-1 $86 reversed single #
loop $-1 $-1 $87 $41 #
plane-surface $-1 -45.725608541079836 0 4.4535747939597048 -1 0 0 0 0 1 forward_v I I I I #
face $-1 $88 $89 $32 $-1 $90 reversed single #
loop $-1 $-1 $91 $42 #
plane-surface $-1 48.556337398381956 0 2.9535747939597048 0 0 1 1 0 0 forward_v I I I I #
face $-1 $92 $93 $33 $-1 $94 reversed single #
loop $-1 $-1 $95 $43 #
plane-surface $-1 -36.153610290833285 -0.64733046155377849 39.058455614211837 0 0.85716730853699208 0.51503806187062418 1 0 0 forward_v I I I I #
face $-1 $96 $97 $34 $-1 $98 forward single #
loop $-1 $99 $100 $44 #
cone-surface $-1 -41.89680924098122 19.94679999463715 3.7947020346783207 0 -0.85716730853699208 -0.51503806187062418 0.5 0 0 1 I I 0 1 0.5 forward I I I I #
face $-1 $101 $102 $35 $-1 $103 forward single #
loop $-1 $104 $105 $45 #
cone-surface $-1 -36.153610290833285 19.94679999463715 3.7947020346783207 0 -0.85716730853699208 -0.51503806187062418 0.5 0 0 1 I I 0 1 0.5 forward I I I I #
face $-1 $106 $107 $36 $-1 $108 forward single #
loop $-1 $109 $110 $46 #
cone-surface $-1 -30.410411340685354 19.94679999463715 3.7947020346783207 0 -0.85716730853699208 -0.51503806187062418 0.5 0 0 1 I I 0 1 0.5 forward I I I I #
face $-1 $111 $112 $37 $-1 $113 reversed single #
loop $-1 $-1 $114 $47 #
plane-surface $-1 -29.493694315544023 -87.585007955943382 80.209720023627753 -1 0 0 0 -0.64278761758704617 0.76604443648966558 forward_v I I I I #
face $-1 $115 $116 $38 $-1 $117 forward single #
loop $-1 $118 $119 $48 #
cone-surface $-1 -41.087918762355322 -17.652175686819437 2.2804589751294038 0 0.64278761758704617 -0.76604443648966558 1.5 0 0 1 I I 0 1 1.5 forward I I I I #
face $-1 $120 $121 $39 $-1 $122 forward single #
loop $-1 $123 $124 $49 #
cone-surface $-1 -34.13138409426854 -17.652175686819437 2.2804589751294038 0 0.64278761758704617 -0.76604443648966558 1.5 0 0 1 I I 0 1 1.5 forward I I I I #
face $-1 $125 $126 $30 $-1 $127 reversed single #
loop $-1 $-1 $128 $50 #
plane-surface $-1 0 0 -5.9535747939597048 0 0 1 1 0 0 forward_v I I I I #
coedge $-1 $129 $130 $131 $132 forward $51 $-1 #
face $-1 $133 $134 $31 $-1 $135 reversed single #
loop $-1 $-1 $136 $53 #
plane-surface $-1 -48.556337398381956 0 2.9535747939597048 0 0 1 1 0 0 forward_v I I I I #
coedge $-1 $137 $138 $136 $139 reversed $54 $-1 #
face $-1 $140 $141 $32 $-1 $142 forward single #
loop $-1 $-1 $143 $56 #
plane-surface $-1 45.725608541079836 0 4.4535747939597048 1 0 0 0 0 -1 forward_v I I I I #
coedge $-1 $144 $145 $146 $147 reversed $57 $-1 #
face $-1 $148 $149 $33 $-1 $150 reversed single #
loop $-1 $-1 $151 $59 #
plane-surface $-1 -26.581612040586727 87.447296090439835 91.991045633301596 -1 0 0 0 0.85716730853699208 0.51503806187062418 forward_v I I I I #
coedge $-1 $152 $153 $154 $155 reversed $60 $-1 #
face $-1 $-1 $156 $34 $-1 $157 forward single #
loop $-1 $158 $159 $62 #
cone-surface $-1 -41.89680924098122 19.295730059686655 3.4034997640137181 0 -0.85716730853699208 -0.51503806187062418 0.25 0 0 1 I I -0.70710678118654746 0.70710678118654746 0.25 forward I I I I #
loop $-1 $-1 $160 $44 #
coedge $-1 $100 $100 $161 $162 reversed $63 $-1 #
face $-1 $-1 $163 $35 $-1 $164 forward single #
loop $-1 $165 $166 $65 #
cone-surface $-1 -36.153610290833285 19.295730059686655 3.4034997640137181 0 -0.85716730853699208 -0.51503806187062418 0.25 0 0 1 I I -0.70710678118654746 0.70710678118654746 0.25 forward I I I I #
loop $-1 $-1 $167 $45 #
coedge $-1 $105 $105 $168 $169 reversed $66 $-1 #
face $-1 $-1 $170 $36 $-1 $171 forward single #
loop $-1 $172 $173 $68 #
cone-surface $-1 -30.410411340685354 19.295730059686655 3.4034997640137181 0 -0.85716730853699208 -0.51503806187062418 0.25 0 0 1 I I -0.70710678118654746 0.70710678118654746 0.25 forward I I I I #
loop $-1 $-1 $174 $46 #
coedge $-1 $110 $110 $175 $176 reversed $69 $-1 #
face $-1 $177 $178 $37 $-1 $179 forward single #
loop $-1 $-1 $180 $71 #
plane-surface $-1 -37.609651428311935 -21.523068169385667 1.4801675982425166 0 -0.64278761758704617 0.76604443648966558 1 0 0 forward_v I I I I #
coedge $-1 $181 $182 $183 $184 reversed $72 $-1 #
face $-1 $-1 $185 $38 $-1 $186 forward single #
loop $-1 $187 $188 $74 #
cone-surface $-1 -41.087918762355322 -15.964791983548444 0.26951342679045176 0 0.64278761758704617 -0.76604443648966558 0.75 0 0 1 I I -0.70710678118654757 0.70710678118654757 0.75 forward I I I I #
loop $-1 $-1 $189 $48 #
coedge $-1 $119 $119 $190 $191 reversed $75 $-1 #
face $-1 $-1 $192 $39 $-1 $193 forward single #
loop $-1 $194 $195 $77 #
cone-surface $-1 -34.13138409426854 -15.964791983548444 0.26951342679045176 0 0.64278761758704617 -0.76604443648966558 0.75 0 0 1 I I -0.70710678118654757 0.70710678118654757 0.75 forward I I I I #
loop $-1 $-1 $196 $49 #
coedge $-1 $124 $124 $197 $198 reversed $78 $-1 #
face $-1 $199 $200 $30 $-1 $201 reversed single #
loop $-1 $-1 $202 $80 #
plane-surface $-1 0 -21.523068169385645 0 0 1 0 0 0 1 forward_v I I I I #
coedge $-1 $203 $204 $205 $206 forward $81 $-1 #
coedge $-1 $207 $83 $208 $209 forward $51 $-1 #
coedge $-1 $83 $207 $210 $211 forward $51 $-1 #
coedge $-1 $212 $213 $83 $132 reversed $214 $-1 #
edge $-1 $215 -21.523068169385645 $216 21.523068169385645 $131 $217 forward 7 unknown #
face $-1 $218 $219 $31 $-1 $220 reversed single #
loop $-1 $-1 $221 $84 #
plane-surface $-1 0 21.523068169385645 0 0 -1 0 0 0 -1 forward_v I I I I #
coedge $-1 $222 $223 $87 $139 forward $85 $-1 #
coedge $-1 $224 $87 $221 $225 reversed $54 $-1 #
coedge $-1 $87 $224 $226 $227 reversed $54 $-1 #
edge $-1 $228 -21.523068169385645 $229 21.523068169385645 $87 $230 forward 7 unknown #
face $-1 $231 $232 $32 $-1 $233 reversed single #
loop $-1 $-1 $234 $88 #
plane-surface $-1 0 0 5.9535747939597048 0 0 1 1 0 0 forward_v I I I I #
coedge $-1 $235 $236 $237 $238 reversed $89 $-1 #
coedge $-1 $239 $91 $240 $241 reversed $57 $-1 #
coedge $-1 $91 $239 $242 $243 reversed $57 $-1 #
coedge $-1 $244 $245 $91 $147 forward $246 $-1 #
edge $-1 $247 -21.523068169385645 $248 21.523068169385645 $146 $249 forward 7 unknown #
face $-1 $250 $251 $33 $-1 $252 forward single #
loop $-1 $-1 $253 $92 #
plane-surface $-1 0 21.523068169385645 0 0 -1 0 0 0 -1 forward_v I I I I #
coedge $-1 $254 $255 $256 $257 reversed $93 $-1 #
coedge $-1 $258 $95 $259 $260 reversed $60 $-1 #
coedge $-1 $95 $258 $254 $261 forward $60 $-1 #
coedge $-1 $256 $262 $95 $155 forward $251 $-1 #
edge $-1 $263 -27.648803395663201 $264 -8.5048068951700841 $154 $265 forward 7 unknown #
loop $-1 $-1 $161 $96 #
plane-surface $-1 -36.153610290833285 -0.64733046155377849 39.058455614211837 0 0.85716730853699208 0.51503806187062418 1 0 0 forward_v I I I I #
loop $-1 $-1 $266 $62 #
coedge $-1 $159 $159 $160 $267 reversed $97 $-1 #
coedge $-1 $160 $160 $159 $267 forward $99 $-1 #
coedge $-1 $161 $161 $100 $162 forward $156 $-1 #
edge $-1 $268 1.2285910259226982e-015 $268 6.2831853071796013 $161 $269 forward 7 unknown #
loop $-1 $-1 $168 $101 #
plane-surface $-1 -36.153610290833285 -0.64733046155377849 39.058455614211837 0 0.85716730853699208 0.51503806187062418 1 0 0 forward_v I I I I #
loop $-1 $-1 $270 $65 #
coedge $-1 $166 $166 $167 $271 reversed $102 $-1 #
coedge $-1 $167 $167 $166 $271 forward $104 $-1 #
coedge $-1 $168 $168 $105 $169 forward $163 $-1 #
edge $-1 $272 1.2285910259226982e-015 $272 6.2831853071796013 $168 $273 forward 7 unknown #
loop $-1 $-1 $175 $106 #
plane-surface $-1 -36.153610290833285 -0.64733046155377849 39.058455614211837 0 0.85716730853699208 0.51503806187062418 1 0 0 forward_v I I I I #
loop $-1 $-1 $274 $68 #
coedge $-1 $173 $173 $174 $275 reversed $107 $-1 #
coedge $-1 $174 $174 $173 $275 forward $109 $-1 #
coedge $-1 $175 $175 $110 $176 forward $170 $-1 #
edge $-1 $276 1.2285910259226982e-015 $276 6.2831853071796013 $175 $277 forward 7 unknown #
face $-1 $278 $279 $37 $-1 $280 forward single #
loop $-1 $-1 $183 $111 #
plane-surface $-1 0 0 5.9535747939597048 0 0 1 1 0 0 forward_v I I I I #
coedge $-1 $281 $282 $283 $284 reversed $112 $-1 #
coedge $-1 $182 $114 $285 $286 reversed $72 $-1 #
coedge $-1 $114 $181 $281 $287 reversed $72 $-1 #
coedge $-1 $283 $288 $114 $184 forward $178 $-1 #
edge $-1 $289 22.269435808586046 $290 27.600634793557028 $183 $291 forward 7 unknown #
loop $-1 $-1 $190 $115 #
plane-surface $-1 -37.609651428311935 -21.523068169385667 1.4801675982425166 0 -0.64278761758704617 0.76604443648966558 1 0 0 forward_v I I I I #
loop $-1 $-1 $292 $74 #
coedge $-1 $188 $188 $189 $293 reversed $116 $-1 #
coedge $-1 $189 $189 $188 $293 forward $118 $-1 #
coedge $-1 $190 $190 $119 $191 forward $185 $-1 #
edge $-1 $294 1.3580265275191491e-015 $294 6.2831853071796022 $190 $295 forward 7 unknown #
loop $-1 $-1 $197 $120 #
plane-surface $-1 -37.609651428311935 -21.523068169385667 1.4801675982425166 0 -0.64278761758704617 0.76604443648966558 1 0 0 forward_v I I I I #
loop $-1 $-1 $296 $77 #
coedge $-1 $195 $195 $196 $297 reversed $121 $-1 #
coedge $-1 $196 $196 $195 $297 forward $123 $-1 #
coedge $-1 $197 $197 $124 $198 forward $192 $-1 #
edge $-1 $298 1.3580265275191491e-015 $298 6.2831853071796022 $197 $299 forward 7 unknown #
face $-1 $300 $301 $30 $-1 $302 reversed single #
loop $-1 $-1 $303 $125 #
plane-surface $-1 -51.387066255684076 0 0 1 0 0 0 0 -1 forward_v I I I I #
coedge $-1 $304 $210 $305 $306 forward $126 $-1 #
coedge $-1 $307 $128 $304 $308 forward $81 $-1 #
coedge $-1 $128 $307 $309 $310 forward $81 $-1 #
coedge $-1 $213 $212 $128 $206 reversed $214 $-1 #
edge $-1 $311 -21.523068169385645 $312 21.523068169385645 $205 $313 forward 7 unknown #
coedge $-1 $130 $129 $314 $315 forward $51 $-1 #
coedge $-1 $316 $317 $129 $209 reversed $301 $-1 #
edge $-1 $216 -51.387066255684076 $318 51.387066255684076 $208 $319 forward 7 unknown #
coedge $-1 $202 $320 $130 $211 reversed $126 $-1 #
edge $-1 $321 -51.387066255684076 $215 51.387066255684076 $210 $322 forward 7 unknown #
coedge $-1 $205 $131 $320 $323 forward $214 $-1 #
coedge $-1 $131 $205 $316 $324 reversed $214 $-1 #
loop $-1 $-1 $212 $300 #
vertex $-1 $132 $325 #
vertex $-1 $132 $326 #
straight-curve $-1 51.387066255684076 0 5.9535747939597048 0 1 0 I I #
face $-1 $327 $328 $31 $-1 $329 forward single #
loop $-1 $-1 $330 $133 #
plane-surface $-1 -51.387066255684076 0 0 1 0 0 0 0 -1 forward_v I I I I #
coedge $-1 $331 $332 $137 $225 forward $134 $-1 #
coedge $-1 $333 $136 $334 $335 reversed $85 $-1 #
coedge $-1 $136 $333 $331 $336 reversed $85 $-1 #
coedge $-1 $138 $137 $337 $338 reversed $54 $-1 #
edge $-1 $339 -3.7267873969798524 $228 -0.7267873969798524 $221 $340 forward 7 unknown #
coedge $-1 $341 $334 $138 $227 forward $342 $-1 #
edge $-1 $229 0.7267873969798524 $343 3.7267873969798524 $226 $344 forward 7 unknown #
vertex $-1 $336 $345 #
vertex $-1 $335 $346 #
straight-curve $-1 -45.725608541079836 0 2.9535747939597048 0 -1 0 I I #
face $-1 $347 $348 $32 $-1 $349 reversed single #
loop $-1 $-1 $350 $140 #
plane-surface $-1 0 -21.523068169385645 0 0 1 0 0 0 1 forward_v I I I I #
coedge $-1 $351 $352 $236 $353 forward $141 $-1 #
coedge $-1 $354 $143 $239 $355 reversed $89 $-1 #
coedge $-1 $143 $354 $234 $353 reversed $89 $-1 #
coedge $-1 $356 $242 $143 $238 forward $348 $-1 #
edge $-1 $357 0.7267873969798524 $358 3.7267873969798524 $237 $359 forward 7 unknown #
coedge $-1 $145 $144 $235 $355 forward $57 $-1 #
coedge $-1 $360 $350 $144 $241 forward $232 $-1 #
edge $-1 $361 21.447439841888858 $247 27.108897556493098 $240 $362 forward 7 unknown #
coedge $-1 $237 $363 $145 $243 forward $348 $-1 #
edge $-1 $248 -27.108897556493098 $357 -21.447439841888858 $242 $364 forward 7 unknown #
coedge $-1 $365 $146 $363 $366 reversed $246 $-1 #
coedge $-1 $146 $365 $360 $367 forward $246 $-1 #
loop $-1 $-1 $146 $347 #
vertex $-1 $241 $368 #
vertex $-1 $147 $369 #
straight-curve $-1 51.387066255684076 0 2.9535747939597048 0 1 0 I I #
face $-1 $-1 $370 $33 $-1 $371 forward single #
loop $-1 $-1 $256 $148 #
plane-surface $-1 0 0 5.9535747939597048 0 0 1 1 0 0 forward_v I I I I #
coedge $-1 $372 $373 $255 $374 forward $149 $-1 #
coedge $-1 $255 $151 $153 $261 reversed $93 $-1 #
coedge $-1 $151 $254 $253 $374 reversed $93 $-1 #
coedge $-1 $375 $154 $151 $257 forward $251 $-1 #
edge $-1 $264 -24.479560009698762 $376 -22.200579875834272 $256 $377 forward 7 unknown #
coedge $-1 $153 $152 $372 $378 reversed $60 $-1 #
coedge $-1 $379 $380 $152 $260 forward $370 $-1 #
edge $-1 $381 -28.04835014814762 $263 -23.623473032100684 $259 $382 forward 7 unknown #
edge $-1 $383 -43.046136338771319 $264 -38.621259222724383 $254 $384 forward 7 unknown #
coedge $-1 $154 $375 $379 $385 forward $251 $-1 #
vertex $-1 $260 $386 #
vertex $-1 $155 $387 #
straight-curve $-1 -18.076805145416643 19.244088035521152 5.953574793959703 1 0 0 I I #
coedge $-1 $266 $266 $-1 $388 reversed $158 $-1 #
edge $-1 $389 0 $389 6.2831853071796004 $159 $390 forward 7 unknown #
vertex $-1 $162 $391 #
ellipse-curve $-1 -41.89680924098122 20.383578102453392 4.0571447898752631 0 0.85716730853699208 0.51503806187062418 0.5 0 0 1 I I #
coedge $-1 $270 $270 $-1 $392 reversed $165 $-1 #
edge $-1 $393 0 $393 6.2831853071796004 $166 $394 forward 7 unknown #
vertex $-1 $169 $395 #
ellipse-curve $-1 -36.153610290833285 20.383578102453392 4.0571447898752631 0 0.85716730853699208 0.51503806187062418 0.5 0 0 1 I I #
coedge $-1 $274 $274 $-1 $396 reversed $172 $-1 #
edge $-1 $397 0 $397 6.2831853071796004 $173 $398 forward 7 unknown #
vertex $-1 $176 $399 #
ellipse-curve $-1 -30.410411340685354 20.383578102453392 4.0571447898752631 0 0.85716730853699208 0.51503806187062418 0.5 0 0 1 I I #
face $-1 $-1 $400 $37 $-1 $401 reversed single #
loop $-1 $-1 $402 $177 #
plane-surface $-1 -45.725608541079836 0 4.4535747939597048 -1 0 0 0 0 1 forward_v I I I I #
coedge $-1 $403 $180 $182 $287 forward $112 $-1 #
coedge $-1 $180 $403 $402 $404 forward $112 $-1 #
coedge $-1 $405 $183 $180 $284 forward $178 $-1 #
edge $-1 $290 10.688868601388055 $406 26.920782826923869 $283 $407 forward 7 unknown #
coedge $-1 $408 $409 $181 $286 forward $400 $-1 #
edge $-1 $410 -38.624692413571339 $289 -34.151285217854173 $285 $411 forward 7 unknown #
edge $-1 $290 -6.9593860760881894 $410 -2.7890148618938379e-014 $182 $412 forward 7 unknown #
coedge $-1 $183 $405 $408 $413 forward $178 $-1 #
vertex $-1 $286 $414 #
vertex $-1 $184 $415 #
straight-curve $-1 -29.493694315544023 -43.792503977971691 5.953574793959703 0 1 0 I I #
coedge $-1 $292 $292 $-1 $416 reversed $187 $-1 #
edge $-1 $417 0 $417 6.2831853071796004 $188 $418 forward 7 unknown #
vertex $-1 $191 $419 #
ellipse-curve $-1 -41.087918762355322 -18.857468676900154 3.7168711961011205 0 -0.64278761758704617 0.76604443648966558 1.5 0 0 1 I I #
coedge $-1 $296 $296 $-1 $420 reversed $194 $-1 #
edge $-1 $421 0 $421 6.2831853071796004 $195 $422 forward 7 unknown #
vertex $-1 $198 $423 #
ellipse-curve $-1 -34.13138409426854 -18.857468676900154 3.7168711961011205 0 -0.64278761758704617 0.76604443648966558 1.5 0 0 1 I I #
face $-1 $-1 $214 $30 $-1 $424 reversed single #
loop $-1 $-1 $316 $199 #
plane-surface $-1 0 21.523068169385645 0 0 -1 0 0 0 -1 forward_v I I I I #
coedge $-1 $425 $314 $317 $426 forward $200 $-1 #
coedge $-1 $320 $202 $203 $308 reversed $126 $-1 #
coedge $-1 $314 $425 $202 $306 reversed $200 $-1 #
edge $-1 $321 -5.9535747939597048 $427 5.9535747939597048 $305 $428 forward 7 unknown #
coedge $-1 $204 $203 $425 $429 forward $81 $-1 #
edge $-1 $312 -51.387066255684076 $427 51.387066255684076 $304 $430 forward 7 unknown #
coedge $-1 $317 $316 $204 $310 reversed $301 $-1 #
edge $-1 $431 -51.387066255684076 $311 51.387066255684076 $309 $432 forward 7 unknown #
vertex $-1 $206 $433 #
vertex $-1 $323 $434 #
straight-curve $-1 51.387066255684076 0 -5.9535747939597048 0 -1 0 I I #
coedge $-1 $303 $305 $207 $315 reversed $200 $-1 #
edge $-1 $318 -21.523068169385645 $321 21.523068169385645 $314 $435 forward 7 unknown #
coedge $-1 $309 $208 $213 $324 forward $301 $-1 #
coedge $-1 $208 $309 $303 $426 reversed $301 $-1 #
vertex $-1 $209 $436 #
straight-curve $-1 0 21.523068169385645 5.9535747939597048 -1 0 0 I I #
coedge $-1 $210 $304 $212 $323 reversed $126 $-1 #
vertex $-1 $315 $437 #
straight-curve $-1 0 -21.523068169385645 5.9535747939597048 1 0 0 I I #
edge $-1 $215 -5.9535747939597048 $312 5.9535747939597048 $212 $438 forward 7 unknown #
edge $-1 $216 -5.9535747939597048 $311 5.9535747939597048 $213 $439 forward 7 unknown #
point $-1 51.387066255684076 -21.523068169385645 5.9535747939597048 #
point $-1 51.387066255684076 21.523068169385645 5.9535747939597048 #
face $-1 $-1 $342 $31 $-1 $440 reversed single #
loop $-1 $-1 $337 $218 #
plane-surface $-1 0 0 5.9535747939597048 0 0 1 1 0 0 forward_v I I I I #
coedge $-1 $441 $442 $333 $443 forward $219 $-1 #
coedge $-1 $444 $221 $223 $336 forward $134 $-1 #
coedge $-1 $221 $444 $445 $446 reversed $134 $-1 #
coedge $-1 $223 $222 $330 $443 reversed $85 $-1 #
coedge $-1 $226 $447 $222 $335 forward $342 $-1 #
edge $-1 $448 -27.108897556493098 $229 -21.447439841888858 $334 $449 forward 7 unknown #
edge $-1 $228 21.447439841888858 $450 27.108897556493098 $331 $451 forward 7 unknown #
coedge $-1 $445 $452 $224 $338 forward $328 $-1 #
edge $-1 $343 -21.523068169385645 $339 21.523068169385645 $337 $453 forward 7 unknown #
vertex $-1 $446 $454 #
straight-curve $-1 -45.725608541079836 21.523068169385645 2.2267873969798524 0 0 -1 I I #
coedge $-1 $447 $226 $452 $455 reversed $342 $-1 #
loop $-1 $-1 $226 $327 #
vertex $-1 $227 $456 #
straight-curve $-1 -45.725608541079836 -21.523068169385645 2.2267873969798524 0 0 1 I I #
point $-1 -45.725608541079836 21.523068169385645 2.9535747939597048 #
point $-1 -45.725608541079836 -21.523068169385645 2.9535747939597048 #
face $-1 $-1 $246 $32 $-1 $457 reversed single #
loop $-1 $-1 $237 $231 #
plane-surface $-1 0 21.523068169385645 0 0 -1 0 0 0 -1 forward_v I I I I #
coedge $-1 $240 $458 $354 $459 forward $232 $-1 #
coedge $-1 $460 $234 $458 $461 forward $141 $-1 #
coedge $-1 $234 $460 $356 $462 forward $141 $-1 #
edge $-1 $358 -21.523068169385645 $463 21.523068169385645 $234 $464 forward 7 unknown #
coedge $-1 $236 $235 $350 $459 reversed $89 $-1 #
edge $-1 $361 -21.523068169385645 $357 21.523068169385645 $235 $465 forward 7 unknown #
coedge $-1 $363 $237 $352 $462 reversed $348 $-1 #
vertex $-1 $243 $466 #
vertex $-1 $238 $467 #
straight-curve $-1 45.725608541079836 21.523068169385645 2.2267873969798524 0 0 1 I I #
coedge $-1 $458 $240 $245 $367 reversed $232 $-1 #
vertex $-1 $241 $468 #
straight-curve $-1 24.278168699190978 -21.523068169385645 2.9535747939597048 1 0 0 I I #
coedge $-1 $242 $356 $244 $366 forward $348 $-1 #
straight-curve $-1 24.278168699190978 21.523068169385645 2.9535747939597048 -1 0 0 I I #
coedge $-1 $245 $244 $460 $469 reversed $246 $-1 #
edge $-1 $470 -5.9535747939597048 $248 -2.9535747939597048 $244 $471 forward 7 unknown #
edge $-1 $472 -5.9535747939597048 $247 -2.9535747939597048 $245 $473 forward 7 unknown #
point $-1 51.387066255684076 -21.523068169385645 2.9535747939597048 #
point $-1 51.387066255684076 21.523068169385645 2.9535747939597048 #
loop $-1 $-1 $259 $250 #
plane-surface $-1 -45.725608541079836 0 4.4535747939597048 -1 0 0 0 0 1 forward_v I I I I #
coedge $-1 $474 $253 $258 $378 forward $149 $-1 #
coedge $-1 $253 $474 $375 $475 reversed $149 $-1 #
edge $-1 $376 40.041948022691095 $383 43.834808030859975 $253 $476 forward 7 unknown #
coedge $-1 $262 $256 $373 $475 forward $251 $-1 #
vertex $-1 $475 $477 #
straight-curve $-1 -26.581612040586727 43.723648045219917 5.953574793959703 0 1 0 I I #
edge $-1 $383 8.5048068951700841 $381 27.648803395663201 $372 $478 forward 7 unknown #
coedge $-1 $380 $259 $262 $385 reversed $370 $-1 #
coedge $-1 $259 $379 $474 $479 reversed $370 $-1 #
vertex $-1 $479 $480 #
straight-curve $-1 -45.725608541079836 7.0771002704150581 26.202843591181662 0 -0.51503806187062429 0.85716730853699219 I I #
vertex $-1 $378 $481 #
straight-curve $-1 -26.581612040586727 -0.64733046155377849 39.058455614211837 0 -0.51503806187062418 0.85716730853699208 I I #
edge $-1 $482 -21.523068169385645 $263 -19.244088035521155 $262 $483 forward 7 unknown #
point $-1 -45.725608541079843 19.244088035521155 5.953574793959703 #
point $-1 -26.581612040586727 19.244088035521155 5.953574793959703 #
edge $-1 $484 1 $484 0 $266 $-1 forward 7 unknown #
vertex $-1 $267 $485 #
ellipse-curve $-1 -41.89680924098122 19.510021886820901 3.5322592794813743 0 0.85716730853699208 0.51503806187062418 0.5 0 0 1 I I #
point $-1 -41.39680924098122 20.383578102453399 4.0571447898752666 #
edge $-1 $486 1 $486 0 $270 $-1 forward 7 unknown #
vertex $-1 $271 $487 #
ellipse-curve $-1 -36.153610290833285 19.510021886820901 3.5322592794813743 0 0.85716730853699208 0.51503806187062418 0.5 0 0 1 I I #
point $-1 -35.653610290833285 20.383578102453399 4.0571447898752666 #
edge $-1 $488 1 $488 0 $274 $-1 forward 7 unknown #
vertex $-1 $275 $489 #
ellipse-curve $-1 -30.410411340685354 19.510021886820901 3.5322592794813743 0 0.85716730853699208 0.51503806187062418 0.5 0 0 1 I I #
point $-1 -29.910411340685354 20.383578102453399 4.0571447898752666 #
loop $-1 $-1 $285 $278 #
plane-surface $-1 0 -21.523068169385645 0 0 1 0 0 0 1 forward_v I I I I #
coedge $-1 $490 $491 $282 $404 reversed $279 $-1 #
coedge $-1 $282 $281 $409 $492 reversed $112 $-1 #
edge $-1 $493 2.7890148618938379e-014 $406 6.9593860760881867 $402 $494 forward 7 unknown #
coedge $-1 $288 $283 $491 $495 forward $178 $-1 #
vertex $-1 $495 $496 #
straight-curve $-1 -18.804825714155967 -16.191869184414667 5.9535747939597048 -1 0 0 I I #
coedge $-1 $497 $285 $288 $413 reversed $400 $-1 #
coedge $-1 $285 $497 $403 $492 forward $400 $-1 #
vertex $-1 $286 $498 #
straight-curve $-1 -29.493694315544023 -21.523068169385645 40.104860011813876 0 0 1 I I #
straight-curve $-1 -29.493694315544023 -21.523068169385667 1.4801675982425166 0 -0.76604443648966558 -0.64278761758704617 I I #
edge $-1 $499 -45.725608541079836 $289 -29.493694315544023 $408 $500 forward 7 unknown #
point $-1 -29.493694315544023 -21.523068169385645 5.9535747939597048 #
point $-1 -29.493694315544023 -16.191869184414664 5.9535747939597048 #
edge $-1 $501 1 $501 0 $292 $-1 forward 7 unknown #
vertex $-1 $293 $502 #
ellipse-curve $-1 -41.087918762355322 -16.446882696738729 0.84404675415770092 0 -0.64278761758704617 0.76604443648966558 1.5 0 0 1 I I #
point $-1 -39.587918762355322 -18.85746867690014 3.7168711961011067 #
edge $-1 $503 1 $503 0 $296 $-1 forward 7 unknown #
vertex $-1 $297 $504 #
ellipse-curve $-1 -34.13138409426854 -16.446882696738729 0.84404675415770092 0 -0.64278761758704617 0.76604443648966558 1.5 0 0 1 I I #
point $-1 -32.63138409426854 -18.85746867690014 3.7168711961011067 #
plane-surface $-1 51.387066255684076 0 0 -1 0 0 0 0 1 forward_v I I I I #
coedge $-1 $305 $303 $307 $429 reversed $200 $-1 #
edge $-1 $318 -5.9535747939597048 $431 5.9535747939597048 $317 $505 forward 7 unknown #
vertex $-1 $429 $506 #
straight-curve $-1 -51.387066255684076 -21.523068169385645 0 0 0 -1 I I #
edge $-1 $427 -21.523068169385645 $431 21.523068169385645 $425 $507 forward 7 unknown #
straight-curve $-1 0 -21.523068169385645 -5.9535747939597048 -1 0 0 I I #
vertex $-1 $310 $508 #
straight-curve $-1 0 21.523068169385645 -5.9535747939597048 1 0 0 I I #
point $-1 51.387066255684076 21.523068169385645 -5.9535747939597048 #
point $-1 51.387066255684076 -21.523068169385645 -5.9535747939597048 #
straight-curve $-1 -51.387066255684076 0 5.9535747939597048 0 -1 0 I I #
point $-1 -51.387066255684076 21.523068169385645 5.9535747939597048 #
point $-1 -51.387066255684076 -21.523068169385645 5.9535747939597048 #
straight-curve $-1 51.387066255684076 -21.523068169385645 0 0 0 -1 I I #
straight-curve $-1 51.387066255684076 21.523068169385645 0 0 0 -1 I I #
plane-surface $-1 0 -21.523068169385645 0 0 1 0 0 0 1 forward_v I I I I #
coedge $-1 $509 $330 $447 $510 reversed $219 $-1 #
coedge $-1 $330 $509 $444 $511 forward $219 $-1 #
edge $-1 $450 -21.523068169385645 $448 21.523068169385645 $330 $512 forward 7 unknown #
coedge $-1 $332 $331 $442 $511 reversed $134 $-1 #
coedge $-1 $513 $337 $332 $446 forward $328 $-1 #
edge $-1 $339 45.725608541079836 $514 51.387066255684076 $332 $515 forward 7 unknown #
coedge $-1 $334 $341 $441 $510 forward $342 $-1 #
vertex $-1 $443 $516 #
straight-curve $-1 -24.278168699190978 -21.523068169385645 2.9535747939597048 1 0 0 I I #
vertex $-1 $443 $517 #
straight-curve $-1 -24.278168699190978 21.523068169385645 2.9535747939597048 -1 0 0 I I #
coedge $-1 $337 $513 $341 $455 forward $328 $-1 #
straight-curve $-1 -45.725608541079836 0 5.9535747939597048 0 1 0 I I #
point $-1 -45.725608541079836 21.523068169385645 5.9535747939597048 #
edge $-1 $518 -51.387066255684076 $343 -45.725608541079836 $341 $519 forward 7 unknown #
point $-1 -45.725608541079836 -21.523068169385645 5.9535747939597048 #
plane-surface $-1 51.387066255684076 0 0 -1 0 0 0 0 1 forward_v I I I I #
coedge $-1 $350 $360 $351 $461 reversed $232 $-1 #
edge $-1 $463 -3.7267873969798524 $361 -0.7267873969798524 $350 $520 forward 7 unknown #
coedge $-1 $352 $351 $365 $469 forward $141 $-1 #
edge $-1 $463 45.725608541079836 $472 51.387066255684076 $458 $521 forward 7 unknown #
edge $-1 $470 -51.387066255684076 $358 -45.725608541079836 $356 $522 forward 7 unknown #
vertex $-1 $461 $523 #
straight-curve $-1 45.725608541079836 0 5.9535747939597048 0 -1 0 I I #
straight-curve $-1 45.725608541079836 0 2.9535747939597048 0 1 0 I I #
point $-1 45.725608541079836 21.523068169385645 2.9535747939597048 #
point $-1 45.725608541079836 21.523068169385645 5.9535747939597048 #
point $-1 45.725608541079836 -21.523068169385645 2.9535747939597048 #
edge $-1 $472 -21.523068169385645 $470 21.523068169385645 $365 $524 forward 7 unknown #
vertex $-1 $469 $525 #
straight-curve $-1 51.387066255684076 21.523068169385645 0 0 0 -1 I I #
vertex $-1 $469 $526 #
straight-curve $-1 51.387066255684076 -21.523068169385645 0 0 0 -1 I I #
coedge $-1 $373 $372 $380 $479 forward $149 $-1 #
edge $-1 $376 26.581612040586727 $482 45.725608541079836 $373 $527 forward 7 unknown #
straight-curve $-1 -26.581612040586727 21.523068169385645 45.995522816650798 0 0 -1 I I #
point $-1 -26.581612040586727 21.523068169385645 5.9535747939597048 #
straight-curve $-1 -18.076805145416643 21.523068169385645 2.1607147857908195 -1 0 0 I I #
edge $-1 $381 -43.834808030859975 $482 -40.041948022691095 $474 $528 forward 7 unknown #
point $-1 -45.725608541079843 21.523068169385645 2.1607147857908231 #
point $-1 -26.581612040586727 21.523068169385645 2.1607147857908231 #
vertex $-1 $385 $529 #
straight-curve $-1 -45.725608541079836 0 5.9535747939597048 0 -1 0 I I #
vertex $-1 $388 $530 #
point $-1 -41.39680924098122 19.510021886820901 3.5322592794813743 #
vertex $-1 $392 $531 #
point $-1 -35.653610290833285 19.510021886820901 3.5322592794813743 #
vertex $-1 $396 $532 #
point $-1 -29.910411340685354 19.510021886820901 3.5322592794813743 #
coedge $-1 $491 $402 $497 $533 reversed $279 $-1 #
coedge $-1 $402 $490 $405 $495 reversed $279 $-1 #
edge $-1 $493 -26.920782826923883 $410 -10.688868601388055 $409 $534 forward 7 unknown #
vertex $-1 $533 $535 #
straight-curve $-1 -45.725608541079851 -21.523068169385667 1.4801675982425166 0 0.76604443648966558 0.64278761758704617 I I #
edge $-1 $406 16.191869184414667 $499 21.523068169385645 $405 $536 forward 7 unknown #
point $-1 -45.725608541079836 -16.191869184414667 5.9535747939597048 #
coedge $-1 $409 $408 $490 $533 forward $400 $-1 #
point $-1 -29.493694315544023 -21.523068169385645 1.4801675982425346 #
vertex $-1 $413 $537 #
straight-curve $-1 0 -21.523068169385645 5.9535747939597048 1 0 0 I I #
vertex $-1 $416 $538 #
point $-1 -39.587918762355322 -16.446882696738729 0.84404675415770092 #
vertex $-1 $420 $539 #
point $-1 -32.63138409426854 -16.446882696738729 0.84404675415770092 #
straight-curve $-1 -51.387066255684076 21.523068169385645 0 0 0 -1 I I #
point $-1 -51.387066255684076 -21.523068169385645 -5.9535747939597048 #
straight-curve $-1 -51.387066255684076 0 -5.9535747939597048 0 1 0 I I #
point $-1 -51.387066255684076 21.523068169385645 -5.9535747939597048 #
coedge $-1 $442 $441 $513 $540 reversed $219 $-1 #
edge $-1 $518 -5.9535747939597048 $448 -2.9535747939597048 $441 $541 forward 7 unknown #
edge $-1 $514 -5.9535747939597048 $450 -2.9535747939597048 $444 $542 forward 7 unknown #
straight-curve $-1 -51.387066255684076 0 2.9535747939597048 0 -1 0 I I #
coedge $-1 $452 $445 $509 $540 forward $328 $-1 #
vertex $-1 $446 $543 #
straight-curve $-1 0 21.523068169385645 5.9535747939597048 -1 0 0 I I #
point $-1 -51.387066255684076 -21.523068169385645 2.9535747939597048 #
point $-1 -51.387066255684076 21.523068169385645 2.9535747939597048 #
vertex $-1 $540 $544 #
straight-curve $-1 0 -21.523068169385645 5.9535747939597048 1 0 0 I I #
straight-curve $-1 45.725608541079836 -21.523068169385645 2.2267873969798524 0 0 -1 I I #
straight-curve $-1 0 -21.523068169385645 5.9535747939597048 1 0 0 I I #
straight-curve $-1 0 21.523068169385645 5.9535747939597048 -1 0 0 I I #
point $-1 45.725608541079836 -21.523068169385645 5.9535747939597048 #
straight-curve $-1 51.387066255684076 0 5.9535747939597048 0 1 0 I I #
point $-1 51.387066255684076 21.523068169385645 5.9535747939597048 #
point $-1 51.387066255684076 -21.523068169385645 5.9535747939597048 #
straight-curve $-1 0 21.523068169385645 5.9535747939597048 -1 0 0 I I #
straight-curve $-1 -45.725608541079843 21.523068169385645 45.995522816650798 0 0 1 I I #
point $-1 -45.725608541079836 21.523068169385645 5.9535747939597048 #
point $-1 -41.89680924098122 19.081438232552408 3.2747402485460619 #
point $-1 -36.153610290833285 19.081438232552408 3.2747402485460619 #
point $-1 -30.410411340685354 19.081438232552408 3.2747402485460619 #
edge $-1 $499 34.151285217854173 $493 38.624692413571339 $497 $545 forward 7 unknown #
straight-curve $-1 -18.804825714155967 -21.523068169385645 1.4801675982425333 1 0 0 I I #
point $-1 -45.725608541079851 -21.523068169385645 1.4801675982425346 #
straight-curve $-1 -45.725608541079836 0 5.9535747939597048 0 -1 0 I I #
point $-1 -45.725608541079836 -21.523068169385645 5.9535747939597048 #
point $-1 -41.087918762355322 -15.482701270358159 -0.3050199005767974 #
point $-1 -34.13138409426854 -15.482701270358159 -0.3050199005767974 #
edge $-1 $514 -21.523068169385645 $518 21.523068169385645 $509 $546 forward 7 unknown #
straight-curve $-1 -51.387066255684076 -21.523068169385645 0 0 0 -1 I I #
straight-curve $-1 -51.387066255684076 21.523068169385645 0 0 0 -1 I I #
point $-1 -51.387066255684076 21.523068169385645 5.9535747939597048 #
point $-1 -51.387066255684076 -21.523068169385645 5.9535747939597048 #
straight-curve $-1 -45.725608541079851 -21.523068169385645 40.104860011813876 0 0 -1 I I #
straight-curve $-1 -51.387066255684076 0 5.9535747939597048 0 -1 0 I I #
End-of-ACIS-data 