500 0 6 0           
7 Unknown 11 ACIS 5.0 NT 24 Fri Mar 26 02:52:27 1999 
-1 9.9999999999999995e-007 1e-010 
body $-1 $6 $-1 $7 #
body $-1 $8 $-1 $9 #
body $-1 $10 $-1 $11 #
body $-1 $12 $-1 $13 #
body $-1 $14 $-1 $15 #
body $-1 $16 $-1 $17 #
lump $-1 $-1 $18 $0 #
transform $-1 1 0 0 0 1 0 0 0 1 72.282479323709822 47.92875235042095 20.207687596409055 1 rotate no_reflect no_shear #
lump $-1 $-1 $19 $1 #
transform $-1 1 0 0 0 1 0 0 0 1 72.282479323709822 47.92875235042095 20.207687596409055 1 rotate no_reflect no_shear #
lump $-1 $-1 $20 $2 #
transform $-1 1 0 0 0 1 0 0 0 1 72.282479323709822 47.92875235042095 20.207687596409055 1 rotate no_reflect no_shear #
lump $-1 $-1 $21 $3 #
transform $-1 1 0 0 0 1 0 0 0 1 72.282479323709822 47.92875235042095 20.207687596409055 1 rotate no_reflect no_shear #
lump $-1 $-1 $22 $4 #
transform $-1 1 0 0 0 1 0 0 0 1 72.282479323709822 47.92875235042095 20.207687596409055 1 rotate no_reflect no_shear #
lump $-1 $-1 $23 $5 #
transform $-1 1 0 0 0 1 0 0 0 1 72.282479323709822 47.92875235042095 20.207687596409055 1 rotate no_reflect no_shear #
shell $-1 $-1 $-1 $24 $-1 $6 #
shell $-1 $-1 $-1 $25 $-1 $8 #
shell $-1 $-1 $-1 $26 $-1 $10 #
shell $-1 $-1 $-1 $27 $-1 $12 #
shell $-1 $-1 $-1 $28 $-1 $14 #
shell $-1 $-1 $-1 $29 $-1 $16 #
face $-1 $30 $31 $18 $-1 $32 forward single #
face $-1 $33 $34 $19 $-1 $35 forward single #
face $-1 $36 $37 $20 $-1 $38 reversed single #
face $-1 $39 $40 $21 $-1 $41 forward single #
face $-1 $42 $43 $22 $-1 $44 reversed single #
face $-1 $45 $46 $23 $-1 $47 forward single #
face $-1 $48 $49 $18 $-1 $50 reversed single #
loop $-1 $-1 $51 $24 #
plane-surface $-1 0 0 20.207687596409055 0 0 1 1 0 0 forward_v I I I I #
face $-1 $52 $53 $19 $-1 $54 reversed single #
loop $-1 $-1 $55 $25 #
plane-surface $-1 0 -36.83806393604705 10.13410428823266 0 0 1 1 0 0 forward_v I I I I #
face $-1 $56 $57 $20 $-1 $58 reversed single #
loop $-1 $-1 $59 $26 #
plane-surface $-1 -51.633875461090653 -18.629007363957488 79.171807571888507 0.51503808176128008 0 0.85716729658548041 0.85716729658548041 0 -0.51503808176128008 forward_v I I I I #
face $-1 $60 $61 $21 $-1 $62 forward single #
loop $-1 $63 $64 $27 #
cone-surface $-1 58.500095673155698 -18.629007363957488 10.979322616513961 -0.51503808176128008 0 -0.85716729658548041 2.1429182414637009 0 -1.2875952044032002 1 I I 0 1 2.5 forward I I I I #
face $-1 $65 $66 $22 $-1 $67 reversed single #
loop $-1 $-1 $68 $28 #
plane-surface $-1 -72.282479323709808 -18.629007363957488 4.7153485802227237 -0.51503808176128008 0 0.85716729658548041 0.85716729658548041 0 0.51503808176128008 forward_v I I I I #
face $-1 $69 $70 $23 $-1 $71 forward single #
loop $-1 $72 $73 $29 #
cone-surface $-1 -58.500095673155691 -18.629007363957488 10.979322616513958 0.51503808176128008 0 -0.85716729658548041 2.1429182414637009 0 1.2875952044032002 1 I I 0 1 2.5 forward I I I I #
face $-1 $74 $75 $18 $-1 $76 reversed single #
loop $-1 $-1 $77 $30 #
plane-surface $-1 0 0 -20.207687596409055 0 0 1 1 0 0 forward_v I I I I #
coedge $-1 $78 $79 $80 $81 forward $31 $-1 #
face $-1 $82 $83 $19 $-1 $84 reversed single #
loop $-1 $-1 $85 $33 #
plane-surface $-1 0 -36.83806393604705 5.4650041938568243 0 0 1 1 0 0 forward_v I I I I #
coedge $-1 $86 $87 $88 $89 reversed $34 $-1 #
face $-1 $90 $91 $20 $-1 $92 forward single #
loop $-1 $-1 $93 $36 #
plane-surface $-1 22.822583530575145 -11.510639206241827 203.08816235668897 0 -1 0 -0.51503808176128008 0 -0.85716729658548041 forward_v I I I I #
coedge $-1 $94 $95 $96 $97 reversed $37 $-1 #
face $-1 $-1 $98 $21 $-1 $99 forward single #
loop $-1 $100 $101 $39 #
cone-surface $-1 56.9657051661232 -18.629007363957488 8.4256680239801973 -0.51503808176128008 0 -0.85716729658548041 1.0714591207318505 0 -0.64379760220160009 1 I I -0.70710678118654746 0.70710678118654746 1.25 forward I I I I #
loop $-1 $-1 $102 $27 #
coedge $-1 $64 $64 $103 $104 reversed $40 $-1 #
face $-1 $105 $106 $22 $-1 $107 forward single #
loop $-1 $-1 $108 $42 #
plane-surface $-1 -146.73893831537561 -11.510639206241827 128.63170336502318 0 -1 0 0.51503808176128008 0 -0.85716729658548041 forward_v I I I I #
coedge $-1 $109 $110 $111 $112 reversed $43 $-1 #
face $-1 $-1 $113 $23 $-1 $114 forward single #
loop $-1 $115 $116 $45 #
cone-surface $-1 -56.965705166123193 -18.629007363957488 8.4256680239801938 0.51503808176128008 0 -0.85716729658548041 1.0714591207318505 0 0.64379760220160009 1 I I -0.70710678118654746 0.70710678118654746 1.25 forward I I I I #
loop $-1 $-1 $117 $29 #
coedge $-1 $73 $73 $118 $119 reversed $46 $-1 #
face $-1 $120 $121 $18 $-1 $122 reversed single #
loop $-1 $-1 $123 $48 #
plane-surface $-1 0 -47.92875235042095 0 0 1 0 0 0 1 forward_v I I I I #
coedge $-1 $124 $125 $126 $127 forward $49 $-1 #
coedge $-1 $128 $51 $129 $130 forward $31 $-1 #
coedge $-1 $51 $128 $131 $132 forward $31 $-1 #
coedge $-1 $133 $134 $51 $81 reversed $135 $-1 #
edge $-1 $136 -47.92875235042095 $137 47.92875235042095 $80 $138 forward 7 unknown #
face $-1 $139 $140 $19 $-1 $141 reversed single #
loop $-1 $-1 $142 $52 #
plane-surface $-1 0 -25.747375521673149 7.799554241044742 0 -1 0 0 0 -1 forward_v I I I I #
coedge $-1 $143 $144 $145 $146 reversed $53 $-1 #
coedge $-1 $147 $55 $142 $148 forward $34 $-1 #
coedge $-1 $55 $147 $149 $150 reversed $34 $-1 #
coedge $-1 $151 $152 $55 $89 forward $153 $-1 #
edge $-1 $154 7.3283435536496242 $155 29.509720382397425 $88 $156 forward 7 unknown #
face $-1 $157 $158 $20 $-1 $159 reversed single #
loop $-1 $-1 $160 $56 #
plane-surface $-1 0 -25.747375521673149 7.799554241044742 0 -1 0 0 0 -1 forward_v I I I I #
coedge $-1 $161 $162 $163 $164 reversed $57 $-1 #
coedge $-1 $165 $59 $160 $166 forward $37 $-1 #
coedge $-1 $59 $165 $161 $167 forward $37 $-1 #
coedge $-1 $163 $168 $59 $97 forward $158 $-1 #
edge $-1 $169 -16.432871839694407 $170 -2.1961355242630827 $96 $171 forward 7 unknown #
loop $-1 $-1 $103 $60 #
plane-surface $-1 -51.633875461090653 -18.629007363957488 79.171807571888507 0.51503808176128008 0 0.85716729658548041 0.85716729658548041 0 -0.51503808176128008 forward_v I I I I #
loop $-1 $-1 $172 $39 #
coedge $-1 $101 $101 $102 $173 reversed $61 $-1 #
coedge $-1 $102 $102 $101 $173 forward $63 $-1 #
coedge $-1 $103 $103 $64 $104 forward $98 $-1 #
edge $-1 $174 0 $174 6.2831853071796004 $103 $175 forward 7 unknown #
face $-1 $176 $177 $22 $-1 $178 forward single #
loop $-1 $-1 $179 $65 #
plane-surface $-1 0 0 20.207687596409055 0 0 1 1 0 0 forward_v I I I I #
coedge $-1 $180 $181 $182 $183 reversed $66 $-1 #
coedge $-1 $184 $68 $185 $186 forward $43 $-1 #
coedge $-1 $68 $184 $180 $187 forward $43 $-1 #
coedge $-1 $182 $179 $68 $112 forward $106 $-1 #
edge $-1 $188 -16.432871839694407 $189 -2.1961355242630827 $111 $190 forward 7 unknown #
loop $-1 $-1 $118 $69 #
plane-surface $-1 -72.282479323709808 -18.629007363957488 4.7153485802227237 -0.51503808176128008 0 0.85716729658548041 0.85716729658548041 0 0.51503808176128008 forward_v I I I I #
loop $-1 $-1 $191 $45 #
coedge $-1 $116 $116 $117 $192 reversed $70 $-1 #
coedge $-1 $117 $117 $116 $192 forward $72 $-1 #
coedge $-1 $118 $118 $73 $119 forward $113 $-1 #
edge $-1 $193 0 $193 6.2831853071796004 $118 $194 forward 7 unknown #
face $-1 $195 $196 $18 $-1 $197 reversed single #
loop $-1 $-1 $198 $74 #
plane-surface $-1 -72.282479323709822 0 0 1 0 0 0 0 -1 forward_v I I I I #
coedge $-1 $199 $131 $200 $201 forward $75 $-1 #
coedge $-1 $202 $77 $199 $203 forward $49 $-1 #
coedge $-1 $77 $202 $204 $205 forward $49 $-1 #
coedge $-1 $134 $133 $77 $127 reversed $135 $-1 #
edge $-1 $206 -47.92875235042095 $207 47.92875235042095 $126 $208 forward 7 unknown #
coedge $-1 $79 $78 $209 $210 forward $31 $-1 #
coedge $-1 $211 $212 $78 $130 reversed $196 $-1 #
edge $-1 $137 -72.282479323709822 $213 72.282479323709822 $129 $214 forward 7 unknown #
coedge $-1 $123 $215 $79 $132 reversed $75 $-1 #
edge $-1 $216 -72.282479323709822 $136 72.282479323709822 $131 $217 forward 7 unknown #
coedge $-1 $126 $80 $215 $218 forward $135 $-1 #
coedge $-1 $80 $126 $211 $219 reversed $135 $-1 #
loop $-1 $-1 $133 $195 #
vertex $-1 $81 $220 #
vertex $-1 $81 $221 #
straight-curve $-1 72.282479323709822 0 20.207687596409055 0 1 0 I I #
face $-1 $222 $223 $19 $-1 $224 reversed single #
loop $-1 $-1 $225 $82 #
plane-surface $-1 -72.282479323709822 0 0 1 0 0 0 0 -1 forward_v I I I I #
coedge $-1 $226 $227 $86 $148 reversed $83 $-1 #
coedge $-1 $228 $85 $229 $230 reversed $53 $-1 #
coedge $-1 $85 $228 $231 $232 forward $53 $-1 #
coedge $-1 $152 $151 $85 $146 forward $153 $-1 #
edge $-1 $233 -29.509720382397425 $234 -7.3283435536496242 $145 $235 forward 7 unknown #
coedge $-1 $87 $86 $225 $236 reversed $34 $-1 #
edge $-1 $154 -72.282479323709822 $237 72.282479323709822 $142 $238 forward 7 unknown #
coedge $-1 $239 $240 $87 $150 forward $223 $-1 #
edge $-1 $155 -72.282479323709822 $241 72.282479323709822 $149 $242 forward 7 unknown #
coedge $-1 $145 $88 $240 $243 forward $153 $-1 #
coedge $-1 $88 $145 $226 $244 forward $153 $-1 #
loop $-1 $-1 $88 $222 #
vertex $-1 $89 $245 #
vertex $-1 $243 $246 #
straight-curve $-1 72.282479323709822 -18.419031968023525 10.13410428823266 0 -1 0 I I #
face $-1 $-1 $247 $20 $-1 $248 forward single #
loop $-1 $-1 $168 $90 #
plane-surface $-1 72.282479323709822 0 0 -1 0 0 0 0 1 forward_v I I I I #
coedge $-1 $249 $250 $94 $166 reversed $91 $-1 #
coedge $-1 $162 $93 $95 $167 reversed $57 $-1 #
coedge $-1 $93 $161 $251 $252 reversed $57 $-1 #
coedge $-1 $253 $96 $93 $164 forward $158 $-1 #
edge $-1 $170 -96.828732598121775 $254 -81.336393581935425 $163 $255 forward 7 unknown #
coedge $-1 $95 $94 $256 $257 reversed $37 $-1 #
edge $-1 $169 -144.56495864741964 $258 -114.48497123521304 $160 $259 forward 7 unknown #
edge $-1 $260 114.48497123521304 $170 144.56495864741964 $161 $261 forward 7 unknown #
coedge $-1 $96 $253 $249 $262 forward $158 $-1 #
vertex $-1 $97 $263 #
vertex $-1 $97 $264 #
straight-curve $-1 72.282479323709822 -9.3145036819787439 4.7153485802227166 0 1 0 I I #
coedge $-1 $172 $172 $-1 $265 reversed $100 $-1 #
edge $-1 $266 0 $266 6.2831853071796004 $101 $267 forward 7 unknown #
vertex $-1 $104 $268 #
ellipse-curve $-1 59.390688577986602 -18.629007363957488 12.461518088315882 0.51503808176128008 0 0.85716729658548041 2.1429182414637009 0 -1.2875952044032002 1 I I #
face $-1 $-1 $269 $22 $-1 $270 reversed single #
loop $-1 $-1 $185 $105 #
plane-surface $-1 0 -25.747375521673149 7.799554241044742 0 -1 0 0 0 -1 forward_v I I I I #
coedge $-1 $111 $271 $272 $273 forward $106 $-1 #
coedge $-1 $181 $108 $110 $187 reversed $66 $-1 #
coedge $-1 $108 $180 $274 $275 reversed $66 $-1 #
coedge $-1 $271 $111 $108 $183 forward $106 $-1 #
edge $-1 $189 -26.870571325424393 $276 -1.0869898339779809 $182 $277 forward 7 unknown #
coedge $-1 $110 $109 $278 $279 reversed $43 $-1 #
coedge $-1 $272 $280 $109 $186 reversed $177 $-1 #
edge $-1 $188 -30.079987412206584 $281 1.6755537013839907e-014 $185 $282 forward 7 unknown #
edge $-1 $283 -1.6755537013839907e-014 $189 30.079987412206584 $180 $284 forward 7 unknown #
vertex $-1 $273 $285 #
vertex $-1 $112 $286 #
straight-curve $-1 -46.49889783226341 -9.3145036819787439 20.207687596409055 0 1 0 I I #
coedge $-1 $191 $191 $-1 $287 reversed $115 $-1 #
edge $-1 $288 0 $288 6.2831853071796004 $116 $289 forward 7 unknown #
vertex $-1 $119 $290 #
ellipse-curve $-1 -59.390688577986602 -18.629007363957488 12.461518088315891 -0.51503808176128008 0 0.85716729658548041 2.1429182414637009 0 1.2875952044032002 1 I I #
face $-1 $-1 $135 $18 $-1 $291 reversed single #
loop $-1 $-1 $211 $120 #
plane-surface $-1 0 47.92875235042095 0 0 -1 0 0 0 -1 forward_v I I I I #
coedge $-1 $292 $209 $212 $293 forward $121 $-1 #
coedge $-1 $215 $123 $124 $203 reversed $75 $-1 #
coedge $-1 $209 $292 $123 $201 reversed $121 $-1 #
edge $-1 $216 -20.207687596409055 $294 20.207687596409055 $200 $295 forward 7 unknown #
coedge $-1 $125 $124 $292 $296 forward $49 $-1 #
edge $-1 $207 -72.282479323709822 $294 72.282479323709822 $199 $297 forward 7 unknown #
coedge $-1 $212 $211 $125 $205 reversed $196 $-1 #
edge $-1 $298 -72.282479323709822 $206 72.282479323709822 $204 $299 forward 7 unknown #
vertex $-1 $127 $300 #
vertex $-1 $218 $301 #
straight-curve $-1 72.282479323709822 0 -20.207687596409055 0 -1 0 I I #
coedge $-1 $198 $200 $128 $210 reversed $121 $-1 #
edge $-1 $213 -47.92875235042095 $216 47.92875235042095 $209 $302 forward 7 unknown #
coedge $-1 $204 $129 $134 $219 forward $196 $-1 #
coedge $-1 $129 $204 $198 $293 reversed $196 $-1 #
vertex $-1 $130 $303 #
straight-curve $-1 0 47.92875235042095 20.207687596409055 -1 0 0 I I #
coedge $-1 $131 $199 $133 $218 reversed $75 $-1 #
vertex $-1 $210 $304 #
straight-curve $-1 0 -47.92875235042095 20.207687596409055 1 0 0 I I #
edge $-1 $136 -20.207687596409055 $207 20.207687596409055 $133 $305 forward 7 unknown #
edge $-1 $137 -20.207687596409055 $206 20.207687596409055 $134 $306 forward 7 unknown #
point $-1 72.282479323709822 -47.92875235042095 20.207687596409055 #
point $-1 72.282479323709822 47.92875235042095 20.207687596409055 #
face $-1 $-1 $153 $19 $-1 $307 reversed single #
loop $-1 $-1 $149 $139 #
plane-surface $-1 0 -47.92875235042095 0 0 1 0 0 0 1 forward_v I I I I #
coedge $-1 $308 $309 $147 $236 forward $140 $-1 #
coedge $-1 $231 $142 $152 $244 reversed $83 $-1 #
coedge $-1 $142 $231 $308 $310 reversed $83 $-1 #
coedge $-1 $144 $143 $311 $312 reversed $53 $-1 #
coedge $-1 $240 $239 $143 $230 forward $223 $-1 #
edge $-1 $313 -72.282479323709822 $233 72.282479323709822 $229 $314 forward 7 unknown #
coedge $-1 $227 $226 $144 $232 reversed $83 $-1 #
edge $-1 $315 -72.282479323709822 $234 72.282479323709822 $231 $316 forward 7 unknown #
vertex $-1 $230 $317 #
vertex $-1 $146 $318 #
straight-curve $-1 72.282479323709822 -18.419031968023525 5.4650041938568243 0 1 0 I I #
edge $-1 $241 -29.509720382397425 $237 -7.3283435536496242 $225 $319 forward 7 unknown #
vertex $-1 $236 $320 #
straight-curve $-1 0 -25.747375521673149 10.13410428823266 -1 0 0 I I #
coedge $-1 $229 $149 $309 $321 forward $223 $-1 #
coedge $-1 $149 $229 $151 $243 reversed $223 $-1 #
vertex $-1 $321 $322 #
straight-curve $-1 0 -47.92875235042095 10.13410428823266 -1 0 0 I I #
edge $-1 $155 -10.13410428823266 $233 -5.4650041938568243 $151 $323 forward 7 unknown #
edge $-1 $234 1.5652270733344533 $154 6.2343271677102887 $152 $324 forward 7 unknown #
point $-1 72.282479323709822 -25.747375521673149 10.13410428823266 #
point $-1 72.282479323709822 -47.92875235042095 10.13410428823266 #
loop $-1 $-1 $325 $157 #
plane-surface $-1 0 0 20.207687596409055 0 0 1 1 0 0 forward_v I I I I #
coedge $-1 $250 $160 $168 $262 reversed $91 $-1 #
coedge $-1 $160 $249 $325 $326 reversed $91 $-1 #
coedge $-1 $256 $327 $162 $252 forward $247 $-1 #
edge $-1 $254 -60.87118755842225 $260 -35.087606066975823 $251 $328 forward 7 unknown #
coedge $-1 $168 $163 $327 $329 reversed $158 $-1 #
vertex $-1 $164 $330 #
straight-curve $-1 72.282479323709822 -11.510639206241827 101.54408117834448 0 0 1 I I #
coedge $-1 $325 $251 $165 $257 forward $247 $-1 #
edge $-1 $260 2.1961355242630827 $258 16.432871839694407 $256 $331 forward 7 unknown #
vertex $-1 $326 $332 #
straight-curve $-1 -51.633875461090653 -25.747375521673149 79.171807571888507 -0.85716729658548041 0 0.51503808176128008 I I #
vertex $-1 $257 $333 #
straight-curve $-1 -51.633875461090653 -11.510639206241827 79.171807571888507 0.85716729658548041 0 -0.51503808176128008 I I #
edge $-1 $334 81.336393581935425 $169 96.828732598121775 $168 $335 forward 7 unknown #
point $-1 72.282479323709808 -25.747375521673149 4.7153485802227095 #
point $-1 72.282479323709808 -11.510639206241827 4.7153485802227095 #
edge $-1 $336 1 $336 0 $172 $-1 forward 7 unknown #
vertex $-1 $173 $337 #
ellipse-curve $-1 57.609502768324802 -18.629007363957488 9.4971271447120476 0.51503808176128008 0 0.85716729658548041 2.1429182414637009 0 -1.2875952044032002 1 I I #
point $-1 61.533606819450306 -18.629007363957488 11.173922883912677 #
loop $-1 $-1 $338 $176 #
plane-surface $-1 -72.282479323709822 0 0 1 0 0 0 0 -1 forward_v I I I I #
coedge $-1 $179 $182 $339 $340 forward $106 $-1 #
coedge $-1 $280 $185 $179 $273 reversed $177 $-1 #
edge $-1 $341 1.0869898339779809 $188 26.870571325424393 $179 $342 forward 7 unknown #
coedge $-1 $278 $339 $181 $275 forward $269 $-1 #
edge $-1 $276 44.108164086102533 $283 59.600503102288876 $274 $343 forward 7 unknown #
vertex $-1 $340 $344 #
straight-curve $-1 -73.369469157687803 -11.510639206241827 20.207687596409059 -1 0 0 I I #
coedge $-1 $338 $274 $184 $279 forward $269 $-1 #
edge $-1 $283 2.1961355242630827 $281 16.432871839694407 $278 $345 forward 7 unknown #
coedge $-1 $185 $272 $338 $346 reversed $177 $-1 #
vertex $-1 $346 $347 #
straight-curve $-1 -72.282479323709808 -25.747375521673149 4.7153485802227237 -0.85716729658548041 0 -0.51503808176128008 I I #
vertex $-1 $279 $348 #
straight-curve $-1 -72.282479323709808 -11.510639206241827 4.7153485802227237 0.85716729658548041 0 0.51503808176128008 I I #
point $-1 -46.49889783226341 -25.747375521673149 20.207687596409055 #
point $-1 -46.49889783226341 -11.510639206241827 20.207687596409055 #
edge $-1 $349 1 $349 0 $191 $-1 forward 7 unknown #
vertex $-1 $192 $350 #
ellipse-curve $-1 -57.609502768324795 -18.629007363957488 9.497127144712044 -0.51503808176128008 0 0.85716729658548041 2.1429182414637009 0 1.2875952044032002 1 I I #
point $-1 -57.247770336522898 -18.629007363957488 13.749113292719073 #
plane-surface $-1 72.282479323709822 0 0 -1 0 0 0 0 1 forward_v I I I I #
coedge $-1 $200 $198 $202 $296 reversed $121 $-1 #
edge $-1 $213 -20.207687596409055 $298 20.207687596409055 $212 $351 forward 7 unknown #
vertex $-1 $296 $352 #
straight-curve $-1 -72.282479323709822 -47.92875235042095 0 0 0 -1 I I #
edge $-1 $294 -47.92875235042095 $298 47.92875235042095 $292 $353 forward 7 unknown #
straight-curve $-1 0 -47.92875235042095 -20.207687596409055 -1 0 0 I I #
vertex $-1 $205 $354 #
straight-curve $-1 0 47.92875235042095 -20.207687596409055 1 0 0 I I #
point $-1 72.282479323709822 47.92875235042095 -20.207687596409055 #
point $-1 72.282479323709822 -47.92875235042095 -20.207687596409055 #
straight-curve $-1 -72.282479323709822 0 20.207687596409055 0 -1 0 I I #
point $-1 -72.282479323709822 47.92875235042095 20.207687596409055 #
point $-1 -72.282479323709822 -47.92875235042095 20.207687596409055 #
straight-curve $-1 72.282479323709822 -47.92875235042095 0 0 0 -1 I I #
straight-curve $-1 72.282479323709822 47.92875235042095 0 0 0 -1 I I #
plane-surface $-1 72.282479323709822 0 0 -1 0 0 0 0 1 forward_v I I I I #
coedge $-1 $311 $225 $227 $310 forward $140 $-1 #
coedge $-1 $225 $311 $239 $321 reversed $140 $-1 #
edge $-1 $237 -6.2343271677102887 $315 -1.5652270733344533 $308 $355 forward 7 unknown #
coedge $-1 $309 $308 $228 $312 forward $140 $-1 #
edge $-1 $315 7.3283435536496242 $313 29.509720382397425 $311 $356 forward 7 unknown #
vertex $-1 $230 $357 #
straight-curve $-1 0 -47.92875235042095 5.4650041938568243 1 0 0 I I #
vertex $-1 $312 $358 #
straight-curve $-1 0 -25.747375521673149 5.4650041938568243 1 0 0 I I #
point $-1 72.282479323709822 -47.92875235042095 5.4650041938568243 #
point $-1 72.282479323709822 -25.747375521673149 5.4650041938568243 #
straight-curve $-1 -72.282479323709822 -18.419031968023525 10.13410428823266 0 1 0 I I #
point $-1 -72.282479323709822 -25.747375521673149 10.13410428823266 #
edge $-1 $241 -10.13410428823266 $313 -5.4650041938568243 $309 $359 forward 7 unknown #
point $-1 -72.282479323709822 -47.92875235042095 10.13410428823266 #
straight-curve $-1 72.282479323709822 -47.92875235042095 0 0 0 -1 I I #
straight-curve $-1 72.282479323709822 -25.747375521673149 3.899777120522371 0 0 1 I I #
coedge $-1 $327 $256 $250 $326 forward $247 $-1 #
edge $-1 $258 35.087606066975823 $334 60.87118755842225 $325 $360 forward 7 unknown #
coedge $-1 $251 $325 $253 $329 forward $247 $-1 #
straight-curve $-1 11.411291765287572 -11.510639206241827 20.207687596409059 -1 0 0 I I #
edge $-1 $334 -25.747375521673149 $254 -11.510639206241827 $253 $361 forward 7 unknown #
point $-1 72.282479323709822 -11.510639206241827 20.207687596409055 #
straight-curve $-1 46.498897832263395 -9.3145036819787439 20.207687596409052 0 -1 0 I I #
point $-1 46.498897832263395 -25.747375521673149 20.207687596409059 #
point $-1 46.498897832263395 -11.510639206241827 20.207687596409059 #
vertex $-1 $329 $362 #
straight-curve $-1 72.282479323709822 -25.747375521673149 101.54408117834448 0 0 -1 I I #
vertex $-1 $265 $363 #
point $-1 59.752421009788499 -18.629007363957488 8.2095319403088478 #
coedge $-1 $339 $278 $280 $346 forward $269 $-1 #
coedge $-1 $274 $338 $271 $340 reversed $269 $-1 #
edge $-1 $276 11.510639206241827 $341 25.747375521673149 $339 $364 forward 7 unknown #
vertex $-1 $346 $365 #
straight-curve $-1 -73.369469157687803 -25.747375521673149 20.207687596409059 1 0 0 I I #
straight-curve $-1 -72.282479323709822 -11.510639206241827 64.315851682511592 0 0 -1 I I #
point $-1 -72.282479323709822 -11.510639206241827 20.207687596409055 #
straight-curve $-1 -72.282479323709822 -9.3145036819787439 4.7153485802227229 0 -1 0 I I #
edge $-1 $281 -59.600503102288876 $341 -44.108164086102533 $338 $366 forward 7 unknown #
point $-1 -72.282479323709822 -25.747375521673149 4.7153485802227149 #
point $-1 -72.282479323709822 -11.510639206241827 4.7153485802227149 #
vertex $-1 $287 $367 #
point $-1 -55.466584526861091 -18.629007363957488 10.784722349115246 #
straight-curve $-1 -72.282479323709822 47.92875235042095 0 0 0 -1 I I #
point $-1 -72.282479323709822 -47.92875235042095 -20.207687596409055 #
straight-curve $-1 -72.282479323709822 0 -20.207687596409055 0 1 0 I I #
point $-1 -72.282479323709822 47.92875235042095 -20.207687596409055 #
straight-curve $-1 -72.282479323709822 -25.747375521673149 3.899777120522371 0 0 -1 I I #
straight-curve $-1 -72.282479323709822 -18.419031968023525 5.4650041938568243 0 -1 0 I I #
point $-1 -72.282479323709822 -47.92875235042095 5.4650041938568243 #
point $-1 -72.282479323709822 -25.747375521673149 5.4650041938568243 #
straight-curve $-1 -72.282479323709822 -47.92875235042095 0 0 0 -1 I I #
straight-curve $-1 11.411291765287572 -25.747375521673149 20.207687596409059 1 0 0 I I #
straight-curve $-1 72.282479323709822 0 20.207687596409055 0 1 0 I I #
point $-1 72.282479323709822 -25.747375521673149 20.207687596409055 #
point $-1 56.321907563921599 -18.629007363957488 7.3542089032483471 #
straight-curve $-1 -72.282479323709822 0 20.207687596409055 0 -1 0 I I #
point $-1 -72.282479323709822 -25.747375521673149 20.207687596409055 #
straight-curve $-1 -72.282479323709822 -25.747375521673149 64.315851682511592 0 0 1 I I #
point $-1 -56.321907563921592 -18.629007363957488 7.3542089032483435 #
End-of-ACIS-data 