500 0 5 0           
7 Unknown 11 ACIS 5.0 NT 24 Thu Mar 25 16:59:22 1999 
-1 9.9999999999999995e-007 1e-010 
body $-1 $5 $-1 $6 #
body $-1 $7 $-1 $8 #
body $-1 $9 $-1 $10 #
body $-1 $11 $-1 $12 #
body $-1 $13 $-1 $14 #
lump $-1 $-1 $15 $0 #
transform $-1 1 0 0 0 1 0 0 0 1 49.147007660145874 32.077020637269555 11.747216405077394 1 rotate no_reflect no_shear #
lump $-1 $-1 $16 $1 #
transform $-1 1 0 0 0 1 0 0 0 1 49.147007660145874 32.077020637269555 11.747216405077394 1 rotate no_reflect no_shear #
lump $-1 $-1 $17 $2 #
transform $-1 1 0 0 0 1 0 0 0 1 49.147007660145874 32.077020637269555 11.747216405077394 1 rotate no_reflect no_shear #
lump $-1 $-1 $18 $3 #
transform $-1 1 0 0 0 1 0 0 0 1 49.147007660145874 32.077020637269555 11.747216405077394 1 rotate no_reflect no_shear #
lump $-1 $-1 $19 $4 #
transform $-1 1 0 0 0 1 0 0 0 1 49.147007660145874 32.077020637269555 11.747216405077394 1 rotate no_reflect no_shear #
shell $-1 $-1 $-1 $20 $-1 $5 #
shell $-1 $-1 $-1 $21 $-1 $7 #
shell $-1 $-1 $-1 $22 $-1 $9 #
shell $-1 $-1 $-1 $23 $-1 $11 #
shell $-1 $-1 $-1 $24 $-1 $13 #
face $-1 $25 $26 $15 $-1 $27 forward single #
face $-1 $28 $29 $16 $-1 $30 reversed single #
face $-1 $31 $32 $17 $-1 $33 reversed single #
face $-1 $34 $35 $18 $-1 $36 forward single #
face $-1 $37 $38 $19 $-1 $39 forward single #
face $-1 $40 $41 $15 $-1 $42 reversed single #
loop $-1 $-1 $43 $20 #
plane-surface $-1 0 0 11.747216405077394 0 0 1 1 0 0 forward_v I I I I #
face $-1 $44 $45 $16 $-1 $46 reversed single #
loop $-1 $-1 $47 $21 #
plane-surface $-1 0 -24.417084109365369 5.0150902080552591 0 0 1 1 0 0 forward_v I I I I #
face $-1 $48 $49 $17 $-1 $50 reversed single #
loop $-1 $-1 $51 $22 #
plane-surface $-1 -11.368829789134807 26.917427939311303 80.784565615040947 0.78801076186113728 0 0.61566146476048833 0.61566146476048833 0 -0.78801076186113728 forward_v I I I I #
face $-1 $52 $53 $18 $-1 $54 forward single #
loop $-1 $55 $56 $23 #
cone-surface $-1 44.359713022233478 24.706173925900622 6.3669046170372621 -0.78801076186113728 0 -0.61566146476048833 0.61566146476048833 0 -0.78801076186113728 1 I I 0 1 1 forward I I I I #
face $-1 $57 $58 $19 $-1 $59 forward single #
loop $-1 $60 $61 $24 #
cone-surface $-1 44.359713022233478 29.128681952721983 6.3669046170372621 -0.78801076186113728 0 -0.61566146476048833 0.61566146476048833 0 -0.78801076186113728 1 I I 0 1 1 forward I I I I #
face $-1 $62 $63 $15 $-1 $64 reversed single #
loop $-1 $-1 $65 $25 #
plane-surface $-1 0 0 -11.747216405077394 0 0 1 1 0 0 forward_v I I I I #
coedge $-1 $66 $67 $68 $69 forward $26 $-1 #
face $-1 $70 $71 $16 $-1 $72 reversed single #
loop $-1 $-1 $73 $28 #
plane-surface $-1 0 -16.757147581461183 8.3811533065663273 0 -1 0 0 0 -1 forward_v I I I I #
coedge $-1 $74 $75 $76 $77 reversed $29 $-1 #
face $-1 $78 $79 $17 $-1 $80 reversed single #
loop $-1 $-1 $81 $31 #
plane-surface $-1 66.087912109798594 21.75783524135305 141.30040306432164 0 1 0 0.78801076186113728 0 0.61566146476048833 forward_v I I I I #
coedge $-1 $82 $83 $84 $85 reversed $32 $-1 #
face $-1 $-1 $86 $18 $-1 $87 forward single #
loop $-1 $88 $89 $34 #
cone-surface $-1 42.467388158401377 24.706173925900622 4.8884584411018341 -0.78801076186113728 0 -0.61566146476048833 0.30783073238024417 0 -0.39400538093056864 1 I I -0.70710678118654746 0.70710678118654746 0.5 forward I I I I #
loop $-1 $-1 $90 $23 #
coedge $-1 $56 $56 $91 $92 reversed $35 $-1 #
face $-1 $-1 $93 $19 $-1 $94 forward single #
loop $-1 $95 $96 $37 #
cone-surface $-1 42.467388158401377 29.128681952721983 4.8884584411018341 -0.78801076186113728 0 -0.61566146476048833 0.30783073238024417 0 -0.39400538093056864 1 I I -0.70710678118654746 0.70710678118654746 0.5 forward I I I I #
loop $-1 $-1 $97 $24 #
coedge $-1 $61 $61 $98 $99 reversed $38 $-1 #
face $-1 $100 $101 $15 $-1 $102 reversed single #
loop $-1 $-1 $103 $40 #
plane-surface $-1 0 -32.077020637269555 0 0 1 0 0 0 1 forward_v I I I I #
coedge $-1 $104 $105 $106 $107 forward $41 $-1 #
coedge $-1 $108 $43 $109 $110 forward $26 $-1 #
coedge $-1 $43 $108 $111 $112 forward $26 $-1 #
coedge $-1 $113 $114 $43 $69 reversed $115 $-1 #
edge $-1 $116 -32.077020637269555 $117 32.077020637269555 $68 $118 forward 7 unknown #
face $-1 $119 $120 $16 $-1 $121 reversed single #
loop $-1 $-1 $122 $44 #
plane-surface $-1 -49.147007660145874 0 0 1 0 0 0 0 -1 forward_v I I I I #
coedge $-1 $123 $124 $125 $126 reversed $45 $-1 #
coedge $-1 $127 $47 $128 $129 reversed $29 $-1 #
coedge $-1 $47 $127 $123 $130 forward $29 $-1 #
coedge $-1 $125 $131 $47 $77 forward $132 $-1 #
edge $-1 $133 -19.868478582586871 $134 -4.5486055267784984 $76 $135 forward 7 unknown #
face $-1 $136 $137 $17 $-1 $138 forward single #
loop $-1 $-1 $139 $48 #
plane-surface $-1 0 32.077020637269555 0 0 -1 0 0 0 -1 forward_v I I I I #
coedge $-1 $140 $141 $142 $143 reversed $49 $-1 #
coedge $-1 $144 $51 $139 $145 reversed $32 $-1 #
coedge $-1 $51 $144 $140 $146 forward $32 $-1 #
coedge $-1 $142 $147 $51 $85 forward $137 $-1 #
edge $-1 $148 -18.618306667613904 $149 -8.2991212716973983 $84 $150 forward 7 unknown #
loop $-1 $-1 $91 $52 #
plane-surface $-1 -11.368829789134807 26.917427939311303 80.784565615040947 0.78801076186113728 0 0.61566146476048833 0.61566146476048833 0 -0.78801076186113728 forward_v I I I I #
loop $-1 $-1 $151 $34 #
coedge $-1 $89 $89 $90 $152 reversed $53 $-1 #
coedge $-1 $90 $90 $89 $152 forward $55 $-1 #
coedge $-1 $91 $91 $56 $92 forward $86 $-1 #
edge $-1 $153 0 $153 6.2831853071796004 $91 $154 forward 7 unknown #
loop $-1 $-1 $98 $57 #
plane-surface $-1 -11.368829789134807 26.917427939311303 80.784565615040947 0.78801076186113728 0 0.61566146476048833 0.61566146476048833 0 -0.78801076186113728 forward_v I I I I #
loop $-1 $-1 $155 $37 #
coedge $-1 $96 $96 $97 $156 reversed $58 $-1 #
coedge $-1 $97 $97 $96 $156 forward $60 $-1 #
coedge $-1 $98 $98 $61 $99 forward $93 $-1 #
edge $-1 $157 0 $157 6.2831853071796004 $98 $158 forward 7 unknown #
face $-1 $159 $160 $15 $-1 $161 reversed single #
loop $-1 $-1 $162 $62 #
plane-surface $-1 -49.147007660145874 0 0 1 0 0 0 0 -1 forward_v I I I I #
coedge $-1 $163 $111 $164 $165 forward $63 $-1 #
coedge $-1 $166 $65 $163 $167 forward $41 $-1 #
coedge $-1 $65 $166 $168 $169 forward $41 $-1 #
coedge $-1 $114 $113 $65 $107 reversed $115 $-1 #
edge $-1 $170 -32.077020637269555 $171 32.077020637269555 $106 $172 forward 7 unknown #
coedge $-1 $67 $66 $173 $174 forward $26 $-1 #
coedge $-1 $175 $176 $66 $110 reversed $160 $-1 #
edge $-1 $117 -49.147007660145874 $177 49.147007660145874 $109 $178 forward 7 unknown #
coedge $-1 $103 $179 $67 $112 reversed $63 $-1 #
edge $-1 $180 -49.147007660145874 $116 49.147007660145874 $111 $181 forward 7 unknown #
coedge $-1 $106 $68 $179 $182 forward $115 $-1 #
coedge $-1 $68 $106 $175 $183 reversed $115 $-1 #
loop $-1 $-1 $113 $159 #
vertex $-1 $69 $184 #
vertex $-1 $69 $185 #
straight-curve $-1 49.147007660145874 0 11.747216405077394 0 1 0 I I #
face $-1 $186 $187 $16 $-1 $188 forward single #
loop $-1 $-1 $128 $70 #
plane-surface $-1 0 -32.077020637269555 0 0 1 0 0 0 1 forward_v I I I I #
coedge $-1 $189 $190 $191 $192 forward $71 $-1 #
coedge $-1 $191 $73 $75 $130 reversed $45 $-1 #
coedge $-1 $73 $191 $193 $194 reversed $45 $-1 #
coedge $-1 $195 $76 $73 $126 forward $132 $-1 #
edge $-1 $134 0.82451355477209542 $196 7.5566397517942319 $125 $197 forward 7 unknown #
coedge $-1 $75 $74 $189 $198 reversed $29 $-1 #
coedge $-1 $199 $200 $74 $129 forward $120 $-1 #
edge $-1 $201 -49.147007660145874 $133 49.147007660145874 $128 $202 forward 7 unknown #
edge $-1 $203 -49.147007660145874 $134 49.147007660145874 $123 $204 forward 7 unknown #
coedge $-1 $76 $195 $199 $205 forward $132 $-1 #
loop $-1 $-1 $125 $186 #
vertex $-1 $129 $206 #
vertex $-1 $77 $207 #
straight-curve $-1 49.147007660145874 -12.208542054682685 5.0150902080552591 0 1 0 I I #
face $-1 $-1 $208 $17 $-1 $209 reversed single #
loop $-1 $-1 $84 $78 #
plane-surface $-1 0 0 11.747216405077394 0 0 1 1 0 0 forward_v I I I I #
coedge $-1 $210 $211 $82 $145 forward $79 $-1 #
coedge $-1 $141 $81 $83 $146 reversed $49 $-1 #
coedge $-1 $81 $140 $212 $213 reversed $49 $-1 #
coedge $-1 $214 $84 $81 $143 forward $137 $-1 #
edge $-1 $149 9.5251012952248644 $215 16.103051605246577 $142 $216 forward 7 unknown #
coedge $-1 $83 $82 $217 $218 reversed $32 $-1 #
edge $-1 $219 -62.964786571531292 $148 -52.280424001298414 $139 $220 forward 7 unknown #
edge $-1 $221 -98.29401532029172 $149 -87.609652750058842 $140 $222 forward 7 unknown #
coedge $-1 $84 $214 $210 $223 forward $137 $-1 #
vertex $-1 $85 $224 #
vertex $-1 $85 $225 #
straight-curve $-1 42.569057350124176 13.458713969655651 11.747216405077396 0 -1 0 I I #
coedge $-1 $151 $151 $-1 $226 reversed $88 $-1 #
edge $-1 $227 0 $227 6.2831853071796004 $89 $228 forward 7 unknown #
vertex $-1 $92 $229 #
ellipse-curve $-1 45.858032505135036 24.706173925900622 7.537520060592465 0.78801076186113728 0 0.61566146476048833 0.61566146476048833 0 -0.78801076186113728 1 I I #
coedge $-1 $155 $155 $-1 $230 reversed $95 $-1 #
edge $-1 $231 0 $231 6.2831853071796004 $96 $232 forward 7 unknown #
vertex $-1 $99 $233 #
ellipse-curve $-1 45.858032505135036 29.128681952721983 7.537520060592465 0.78801076186113728 0 0.61566146476048833 0.61566146476048833 0 -0.78801076186113728 1 I I #
face $-1 $-1 $115 $15 $-1 $234 reversed single #
loop $-1 $-1 $175 $100 #
plane-surface $-1 0 32.077020637269555 0 0 -1 0 0 0 -1 forward_v I I I I #
coedge $-1 $235 $173 $176 $236 forward $101 $-1 #
coedge $-1 $179 $103 $104 $167 reversed $63 $-1 #
coedge $-1 $173 $235 $103 $165 reversed $101 $-1 #
edge $-1 $180 -11.747216405077394 $237 11.747216405077394 $164 $238 forward 7 unknown #
coedge $-1 $105 $104 $235 $239 forward $41 $-1 #
edge $-1 $171 -49.147007660145874 $237 49.147007660145874 $163 $240 forward 7 unknown #
coedge $-1 $176 $175 $105 $169 reversed $160 $-1 #
edge $-1 $241 -49.147007660145874 $170 49.147007660145874 $168 $242 forward 7 unknown #
vertex $-1 $107 $243 #
vertex $-1 $182 $244 #
straight-curve $-1 49.147007660145874 0 -11.747216405077394 0 -1 0 I I #
coedge $-1 $162 $164 $108 $174 reversed $101 $-1 #
edge $-1 $177 -32.077020637269555 $180 32.077020637269555 $173 $245 forward 7 unknown #
coedge $-1 $168 $109 $114 $183 forward $160 $-1 #
coedge $-1 $109 $168 $162 $236 reversed $160 $-1 #
vertex $-1 $110 $246 #
straight-curve $-1 0 32.077020637269555 11.747216405077394 -1 0 0 I I #
coedge $-1 $111 $163 $113 $182 reversed $63 $-1 #
vertex $-1 $174 $247 #
straight-curve $-1 0 -32.077020637269555 11.747216405077394 1 0 0 I I #
edge $-1 $116 -11.747216405077394 $171 11.747216405077394 $113 $248 forward 7 unknown #
edge $-1 $117 -11.747216405077394 $170 11.747216405077394 $114 $249 forward 7 unknown #
point $-1 49.147007660145874 -32.077020637269555 11.747216405077394 #
point $-1 49.147007660145874 32.077020637269555 11.747216405077394 #
face $-1 $-1 $132 $16 $-1 $250 reversed single #
loop $-1 $-1 $193 $119 #
plane-surface $-1 0 0 11.747216405077394 0 0 1 1 0 0 forward_v I I I I #
coedge $-1 $251 $122 $127 $198 forward $71 $-1 #
coedge $-1 $122 $251 $252 $253 reversed $71 $-1 #
coedge $-1 $124 $123 $122 $192 reversed $45 $-1 #
edge $-1 $254 -7.5566397517942319 $203 -0.82451355477209542 $122 $255 forward 7 unknown #
coedge $-1 $252 $256 $124 $194 forward $187 $-1 #
edge $-1 $196 -49.147007660145874 $254 49.147007660145874 $193 $257 forward 7 unknown #
coedge $-1 $131 $125 $256 $258 reversed $132 $-1 #
vertex $-1 $126 $259 #
straight-curve $-1 49.147007660145874 -16.757147581461183 4.1905766532831636 0 0 1 I I #
edge $-1 $203 4.5486055267784984 $201 19.868478582586871 $189 $260 forward 7 unknown #
coedge $-1 $261 $128 $131 $205 reversed $120 $-1 #
coedge $-1 $128 $261 $251 $262 forward $120 $-1 #
vertex $-1 $129 $263 #
straight-curve $-1 0 -32.077020637269555 5.0150902080552591 1 0 0 I I #
vertex $-1 $198 $264 #
straight-curve $-1 0 -16.757147581461183 5.0150902080552591 1 0 0 I I #
edge $-1 $265 -11.747216405077394 $133 -5.0150902080552591 $131 $266 forward 7 unknown #
point $-1 49.147007660145874 -32.077020637269555 5.0150902080552591 #
point $-1 49.147007660145874 -16.757147581461183 5.0150902080552591 #
loop $-1 $-1 $217 $136 #
plane-surface $-1 49.147007660145874 0 0 -1 0 0 0 0 1 forward_v I I I I #
coedge $-1 $211 $139 $147 $223 reversed $79 $-1 #
coedge $-1 $139 $210 $267 $268 forward $79 $-1 #
coedge $-1 $217 $269 $141 $213 forward $208 $-1 #
edge $-1 $215 58.902985127083426 $221 67.322377816053248 $212 $270 forward 7 unknown #
coedge $-1 $147 $142 $269 $271 forward $137 $-1 #
vertex $-1 $271 $272 #
straight-curve $-1 33.043956054899297 21.75783524135305 11.747216405077396 1 0 0 I I #
coedge $-1 $267 $212 $144 $218 forward $208 $-1 #
edge $-1 $221 8.2991212716973983 $219 18.618306667613904 $217 $273 forward 7 unknown #
vertex $-1 $218 $274 #
straight-curve $-1 10.382014931185395 32.077020637269555 52.944753152763852 -0.61566146476048833 0 0.78801076186113728 I I #
vertex $-1 $218 $275 #
straight-curve $-1 -11.368829789134807 21.75783524135305 80.784565615040947 -0.61566146476048833 0 0.78801076186113728 I I #
edge $-1 $276 -49.147007660145874 $148 -42.569057350124162 $210 $277 forward 7 unknown #
point $-1 42.569057350124162 32.077020637269555 11.747216405077396 #
point $-1 42.569057350124162 21.75783524135305 11.747216405077396 #
edge $-1 $278 1 $278 0 $151 $-1 forward 7 unknown #
vertex $-1 $152 $279 #
ellipse-curve $-1 42.861393539331942 24.706173925900622 5.1962891734820786 0.78801076186113728 0 0.61566146476048833 0.61566146476048833 0 -0.78801076186113728 1 I I #
point $-1 46.473693969895493 24.706173925900622 6.7495092987313079 #
edge $-1 $280 1 $280 0 $155 $-1 forward 7 unknown #
vertex $-1 $156 $281 #
ellipse-curve $-1 42.861393539331942 29.128681952721983 5.1962891734820786 0.78801076186113728 0 0.61566146476048833 0.61566146476048833 0 -0.78801076186113728 1 I I #
point $-1 46.473693969895493 29.128681952721983 6.7495092987313079 #
plane-surface $-1 49.147007660145874 0 0 -1 0 0 0 0 1 forward_v I I I I #
coedge $-1 $164 $162 $166 $239 reversed $101 $-1 #
edge $-1 $177 -11.747216405077394 $241 11.747216405077394 $176 $282 forward 7 unknown #
vertex $-1 $239 $283 #
straight-curve $-1 -49.147007660145874 -32.077020637269555 0 0 0 -1 I I #
edge $-1 $237 -32.077020637269555 $241 32.077020637269555 $235 $284 forward 7 unknown #
straight-curve $-1 0 -32.077020637269555 -11.747216405077394 -1 0 0 I I #
vertex $-1 $169 $285 #
straight-curve $-1 0 32.077020637269555 -11.747216405077394 1 0 0 I I #
point $-1 49.147007660145874 32.077020637269555 -11.747216405077394 #
point $-1 49.147007660145874 -32.077020637269555 -11.747216405077394 #
straight-curve $-1 -49.147007660145874 0 11.747216405077394 0 -1 0 I I #
point $-1 -49.147007660145874 32.077020637269555 11.747216405077394 #
point $-1 -49.147007660145874 -32.077020637269555 11.747216405077394 #
straight-curve $-1 49.147007660145874 -32.077020637269555 0 0 0 -1 I I #
straight-curve $-1 49.147007660145874 32.077020637269555 0 0 0 -1 I I #
plane-surface $-1 49.147007660145874 0 0 -1 0 0 0 0 1 forward_v I I I I #
coedge $-1 $190 $189 $200 $262 reversed $71 $-1 #
coedge $-1 $286 $193 $190 $253 forward $187 $-1 #
edge $-1 $254 16.757147581461183 $287 32.077020637269555 $190 $288 forward 7 unknown #
vertex $-1 $253 $289 #
straight-curve $-1 -49.147007660145874 -16.757147581461183 4.1905766532831636 0 0 -1 I I #
coedge $-1 $193 $286 $195 $258 forward $187 $-1 #
straight-curve $-1 0 -16.757147581461183 11.747216405077394 -1 0 0 I I #
edge $-1 $265 -32.077020637269555 $196 -16.757147581461183 $195 $290 forward 7 unknown #
point $-1 49.147007660145874 -16.757147581461183 11.747216405077396 #
straight-curve $-1 -49.147007660145874 -12.208542054682685 5.0150902080552591 0 -1 0 I I #
coedge $-1 $200 $199 $286 $291 reversed $120 $-1 #
edge $-1 $287 -11.747216405077394 $201 -5.0150902080552591 $251 $292 forward 7 unknown #
point $-1 -49.147007660145874 -32.077020637269555 5.0150902080552591 #
point $-1 -49.147007660145874 -16.757147581461183 5.0150902080552591 #
vertex $-1 $258 $293 #
straight-curve $-1 49.147007660145874 -32.077020637269555 0 0 0 -1 I I #
coedge $-1 $269 $217 $211 $268 reversed $208 $-1 #
edge $-1 $276 -11.747216405077394 $219 -3.3278237161075737 $267 $294 forward 7 unknown #
coedge $-1 $212 $267 $214 $271 reversed $208 $-1 #
straight-curve $-1 49.147007660145874 21.75783524135305 70.650201532160821 0 0 -1 I I #
edge $-1 $215 21.75783524135305 $276 32.077020637269555 $269 $295 forward 7 unknown #
point $-1 49.147007660145874 21.75783524135305 11.747216405077394 #
straight-curve $-1 49.147007660145874 13.458713969655651 3.3278237161075808 0 1 0 I I #
point $-1 49.147007660145874 32.077020637269555 3.3278237161075737 #
point $-1 49.147007660145874 21.75783524135305 3.3278237161075737 #
vertex $-1 $271 $296 #
straight-curve $-1 0 32.077020637269555 11.747216405077394 -1 0 0 I I #
vertex $-1 $226 $297 #
point $-1 43.477055004092435 24.706173925900622 4.408278411620941 #
vertex $-1 $230 $298 #
point $-1 43.477055004092435 29.128681952721983 4.408278411620941 #
straight-curve $-1 -49.147007660145874 32.077020637269555 0 0 0 -1 I I #
point $-1 -49.147007660145874 -32.077020637269555 -11.747216405077394 #
straight-curve $-1 -49.147007660145874 0 -11.747216405077394 0 1 0 I I #
point $-1 -49.147007660145874 32.077020637269555 -11.747216405077394 #
coedge $-1 $256 $252 $261 $291 forward $187 $-1 #
vertex $-1 $253 $299 #
straight-curve $-1 -49.147007660145874 0 11.747216405077394 0 -1 0 I I #
point $-1 -49.147007660145874 -16.757147581461183 11.747216405077396 #
straight-curve $-1 49.147007660145874 0 11.747216405077394 0 1 0 I I #
edge $-1 $287 -49.147007660145874 $265 49.147007660145874 $261 $300 forward 7 unknown #
straight-curve $-1 -49.147007660145874 -32.077020637269555 0 0 0 -1 I I #
point $-1 49.147007660145874 -32.077020637269555 11.747216405077394 #
straight-curve $-1 49.147007660145874 32.077020637269555 0 0 0 -1 I I #
straight-curve $-1 49.147007660145874 0 11.747216405077394 0 1 0 I I #
point $-1 49.147007660145874 32.077020637269555 11.747216405077394 #
point $-1 42.073382777470812 24.706173925900622 4.5806277087215896 #
point $-1 42.073382777470812 29.128681952721983 4.5806277087215896 #
point $-1 -49.147007660145874 -32.077020637269555 11.747216405077394 #
straight-curve $-1 0 -32.077020637269555 11.747216405077394 1 0 0 I I #
End-of-ACIS-data 