500 0 4 0           
7 Unknown 11 ACIS 5.0 NT 24 Thu Mar 25 20:32:03 1999 
-1 9.9999999999999995e-007 1e-010 
body $-1 $4 $-1 $5 #
body $-1 $6 $-1 $7 #
body $-1 $8 $-1 $9 #
body $-1 $10 $-1 $11 #
lump $-1 $-1 $12 $0 #
transform $-1 1 0 0 0 1 0 0 0 1 54.144718771935175 29.122016332429222 6.2736717151092458 1 rotate no_reflect no_shear #
lump $-1 $-1 $13 $1 #
transform $-1 1 0 0 0 1 0 0 0 1 54.144718771935175 29.122016332429222 6.2736717151092458 1 rotate no_reflect no_shear #
lump $-1 $-1 $14 $2 #
transform $-1 1 0 0 0 1 0 0 0 1 54.144718771935175 29.122016332429222 6.2736717151092458 1 rotate no_reflect no_shear #
lump $-1 $-1 $15 $3 #
transform $-1 1 0 0 0 1 0 0 0 1 54.144718771935175 29.122016332429222 6.2736717151092458 1 rotate no_reflect no_shear #
shell $-1 $-1 $-1 $16 $-1 $4 #
shell $-1 $-1 $-1 $17 $-1 $6 #
shell $-1 $-1 $-1 $18 $-1 $8 #
shell $-1 $-1 $-1 $19 $-1 $10 #
face $-1 $20 $21 $12 $-1 $22 forward single #
face $-1 $23 $24 $13 $-1 $25 reversed single #
face $-1 $26 $27 $14 $-1 $28 reversed single #
face $-1 $29 $30 $15 $-1 $31 forward single #
face $-1 $32 $33 $12 $-1 $34 reversed single #
loop $-1 $-1 $35 $16 #
plane-surface $-1 0 0 6.2736717151092458 0 0 1 1 0 0 forward_v I I I I #
face $-1 $36 $37 $13 $-1 $38 reversed single #
loop $-1 $-1 $39 $17 #
plane-surface $-1 0 -26.708432371716704 3.2736717151092458 0 0 1 1 0 0 forward_v I I I I #
face $-1 $40 $41 $14 $-1 $42 reversed single #
loop $-1 $-1 $43 $18 #
plane-surface $-1 -144.96388372612711 1.152481129610841 62.197375976900673 0 1 0 -0.83867057594974714 0 0.54463902268945019 forward_v I I I I #
face $-1 $44 $45 $15 $-1 $46 forward single #
loop $-1 $47 $48 $19 #
cone-surface $-1 -52.64254216257121 6.9064888934099322 4.4148544196760993 0.83867057594974714 0 -0.54463902268945019 0.2723195113447251 0 0.41933528797487357 1 I I 0 1 0.5 forward I I I I #
face $-1 $49 $50 $12 $-1 $51 reversed single #
loop $-1 $-1 $52 $20 #
plane-surface $-1 0 0 -6.2736717151092458 0 0 1 1 0 0 forward_v I I I I #
coedge $-1 $53 $54 $55 $56 forward $21 $-1 #
face $-1 $57 $58 $13 $-1 $59 reversed single #
loop $-1 $-1 $60 $23 #
plane-surface $-1 0 -24.294848411004182 4.7736717151092458 0 -1 0 0 0 -1 forward_v I I I I #
coedge $-1 $61 $62 $63 $64 reversed $24 $-1 #
face $-1 $65 $66 $14 $-1 $67 reversed single #
loop $-1 $-1 $68 $26 #
plane-surface $-1 -54.144718771935189 6.9064888934099322 3.218722545416874 -0.83867057594974714 0 0.54463902268945019 0.54463902268945019 0 0.83867057594974714 forward_v I I I I #
coedge $-1 $69 $70 $71 $72 reversed $27 $-1 #
face $-1 $-1 $73 $15 $-1 $74 forward single #
loop $-1 $75 $76 $29 #
cone-surface $-1 -51.922651471119245 6.9064888934099322 3.9473519534167787 0.83867057594974714 0 -0.54463902268945019 0.13615975567236255 0 0.20966764398743679 1 I I -0.70710678118654813 0.70710678118654691 0.25 forward I I I I #
loop $-1 $-1 $77 $19 #
coedge $-1 $48 $48 $78 $79 reversed $30 $-1 #
face $-1 $80 $81 $12 $-1 $82 reversed single #
loop $-1 $-1 $83 $32 #
plane-surface $-1 0 -29.122016332429222 0 0 1 0 0 0 1 forward_v I I I I #
coedge $-1 $84 $85 $86 $87 forward $33 $-1 #
coedge $-1 $88 $35 $89 $90 forward $21 $-1 #
coedge $-1 $35 $88 $91 $92 forward $21 $-1 #
coedge $-1 $93 $94 $35 $56 reversed $95 $-1 #
edge $-1 $96 -29.122016332429222 $97 29.122016332429222 $55 $98 forward 7 unknown #
face $-1 $99 $100 $13 $-1 $101 reversed single #
loop $-1 $-1 $102 $36 #
plane-surface $-1 -54.144718771935175 0 0 1 0 0 0 0 -1 forward_v I I I I #
coedge $-1 $103 $104 $105 $106 reversed $37 $-1 #
coedge $-1 $107 $39 $108 $109 reversed $24 $-1 #
coedge $-1 $39 $107 $103 $110 forward $24 $-1 #
coedge $-1 $105 $111 $39 $64 forward $112 $-1 #
edge $-1 $113 -15.767800146570874 $114 -10.94063222514583 $63 $115 forward 7 unknown #
face $-1 $116 $117 $14 $-1 $118 forward single #
loop $-1 $-1 $119 $40 #
plane-surface $-1 -144.96388372612711 12.660496657209023 62.197375976900673 0 -1 0 0.83867057594974714 0 -0.54463902268945019 forward_v I I I I #
coedge $-1 $120 $121 $122 $123 reversed $41 $-1 #
coedge $-1 $70 $43 $124 $125 reversed $27 $-1 #
coedge $-1 $43 $69 $120 $126 reversed $27 $-1 #
coedge $-1 $122 $127 $43 $72 forward $117 $-1 #
edge $-1 $128 18.337223091128379 $129 20.32113021492723 $71 $130 forward 7 unknown #
loop $-1 $-1 $78 $44 #
plane-surface $-1 -54.144718771935189 6.9064888934099322 3.218722545416874 -0.83867057594974714 0 0.54463902268945019 0.54463902268945019 0 0.83867057594974714 forward_v I I I I #
loop $-1 $-1 $131 $29 #
coedge $-1 $76 $76 $77 $132 reversed $45 $-1 #
coedge $-1 $77 $77 $76 $132 forward $47 $-1 #
coedge $-1 $78 $78 $48 $79 forward $73 $-1 #
edge $-1 $133 0 $133 6.2831853071796004 $78 $134 forward 7 unknown #
face $-1 $135 $136 $12 $-1 $137 reversed single #
loop $-1 $-1 $138 $49 #
plane-surface $-1 -54.144718771935175 0 0 1 0 0 0 0 -1 forward_v I I I I #
coedge $-1 $139 $91 $140 $141 forward $50 $-1 #
coedge $-1 $142 $52 $139 $143 forward $33 $-1 #
coedge $-1 $52 $142 $144 $145 forward $33 $-1 #
coedge $-1 $94 $93 $52 $87 reversed $95 $-1 #
edge $-1 $146 -29.122016332429222 $147 29.122016332429222 $86 $148 forward 7 unknown #
coedge $-1 $54 $53 $149 $150 forward $21 $-1 #
coedge $-1 $151 $152 $53 $90 reversed $136 $-1 #
edge $-1 $97 -54.144718771935175 $153 54.144718771935175 $89 $154 forward 7 unknown #
coedge $-1 $83 $155 $54 $92 reversed $50 $-1 #
edge $-1 $156 -54.144718771935175 $96 54.144718771935175 $91 $157 forward 7 unknown #
coedge $-1 $86 $55 $155 $158 forward $95 $-1 #
coedge $-1 $55 $86 $151 $159 reversed $95 $-1 #
loop $-1 $-1 $93 $135 #
vertex $-1 $56 $160 #
vertex $-1 $56 $161 #
straight-curve $-1 54.144718771935175 0 6.2736717151092458 0 1 0 I I #
face $-1 $162 $163 $13 $-1 $164 forward single #
loop $-1 $-1 $108 $57 #
plane-surface $-1 0 -29.122016332429222 0 0 1 0 0 0 1 forward_v I I I I #
coedge $-1 $165 $166 $167 $168 forward $58 $-1 #
coedge $-1 $167 $60 $62 $110 reversed $37 $-1 #
coedge $-1 $60 $167 $169 $170 reversed $37 $-1 #
coedge $-1 $171 $63 $60 $106 forward $112 $-1 #
edge $-1 $114 0.88683585755462291 $172 3.8868358575546229 $105 $173 forward 7 unknown #
coedge $-1 $62 $61 $165 $174 reversed $24 $-1 #
coedge $-1 $175 $176 $61 $109 forward $100 $-1 #
edge $-1 $177 -54.144718771935175 $113 54.144718771935175 $108 $178 forward 7 unknown #
edge $-1 $179 -54.144718771935175 $114 54.144718771935175 $103 $180 forward 7 unknown #
coedge $-1 $63 $171 $175 $181 forward $112 $-1 #
loop $-1 $-1 $105 $162 #
vertex $-1 $109 $182 #
vertex $-1 $64 $183 #
straight-curve $-1 54.144718771935175 -13.354216185858352 3.2736717151092458 0 1 0 I I #
face $-1 $-1 $184 $14 $-1 $185 reversed single #
loop $-1 $-1 $71 $65 #
plane-surface $-1 0 0 6.2736717151092458 0 0 1 1 0 0 forward_v I I I I #
coedge $-1 $186 $187 $188 $189 reversed $66 $-1 #
coedge $-1 $190 $68 $70 $126 forward $41 $-1 #
coedge $-1 $68 $190 $186 $191 forward $41 $-1 #
coedge $-1 $188 $71 $68 $123 forward $117 $-1 #
edge $-1 $129 -2.3007633170941251 $192 9.2072522105040573 $122 $193 forward 7 unknown #
coedge $-1 $194 $195 $69 $125 forward $184 $-1 #
edge $-1 $196 -27.879965443033441 $128 -24.825016273341092 $124 $197 forward 7 unknown #
edge $-1 $129 -3.642609216655555 $196 -2.5989569140172373e-014 $70 $198 forward 7 unknown #
coedge $-1 $71 $188 $194 $199 forward $117 $-1 #
vertex $-1 $125 $200 #
vertex $-1 $72 $201 #
straight-curve $-1 -72.481941863063554 1.152481129610841 6.2736717151092449 1 0 0 I I #
coedge $-1 $131 $131 $-1 $202 reversed $75 $-1 #
edge $-1 $203 0 $203 6.2831853071796004 $76 $204 forward 7 unknown #
vertex $-1 $79 $205 #
ellipse-curve $-1 -53.152765210035753 6.9064888934099322 4.7461971302630657 -0.83867057594974714 0 0.54463902268945019 0.2723195113447251 0 0.41933528797487357 1 I I #
face $-1 $-1 $95 $12 $-1 $206 reversed single #
loop $-1 $-1 $151 $80 #
plane-surface $-1 0 29.122016332429222 0 0 -1 0 0 0 -1 forward_v I I I I #
coedge $-1 $207 $149 $152 $208 forward $81 $-1 #
coedge $-1 $155 $83 $84 $143 reversed $50 $-1 #
coedge $-1 $149 $207 $83 $141 reversed $81 $-1 #
edge $-1 $156 -6.2736717151092458 $209 6.2736717151092458 $140 $210 forward 7 unknown #
coedge $-1 $85 $84 $207 $211 forward $33 $-1 #
edge $-1 $147 -54.144718771935175 $209 54.144718771935175 $139 $212 forward 7 unknown #
coedge $-1 $152 $151 $85 $145 reversed $136 $-1 #
edge $-1 $213 -54.144718771935175 $146 54.144718771935175 $144 $214 forward 7 unknown #
vertex $-1 $87 $215 #
vertex $-1 $158 $216 #
straight-curve $-1 54.144718771935175 0 -6.2736717151092458 0 -1 0 I I #
coedge $-1 $138 $140 $88 $150 reversed $81 $-1 #
edge $-1 $153 -29.122016332429222 $156 29.122016332429222 $149 $217 forward 7 unknown #
coedge $-1 $144 $89 $94 $159 forward $136 $-1 #
coedge $-1 $89 $144 $138 $208 reversed $136 $-1 #
vertex $-1 $90 $218 #
straight-curve $-1 0 29.122016332429222 6.2736717151092458 -1 0 0 I I #
coedge $-1 $91 $139 $93 $158 reversed $50 $-1 #
vertex $-1 $150 $219 #
straight-curve $-1 0 -29.122016332429222 6.2736717151092458 1 0 0 I I #
edge $-1 $96 -6.2736717151092458 $147 6.2736717151092458 $93 $220 forward 7 unknown #
edge $-1 $97 -6.2736717151092458 $146 6.2736717151092458 $94 $221 forward 7 unknown #
point $-1 54.144718771935175 -29.122016332429222 6.2736717151092458 #
point $-1 54.144718771935175 29.122016332429222 6.2736717151092458 #
face $-1 $-1 $112 $13 $-1 $222 reversed single #
loop $-1 $-1 $169 $99 #
plane-surface $-1 0 0 6.2736717151092458 0 0 1 1 0 0 forward_v I I I I #
coedge $-1 $223 $102 $107 $174 forward $58 $-1 #
coedge $-1 $102 $223 $224 $225 reversed $58 $-1 #
coedge $-1 $104 $103 $102 $168 reversed $37 $-1 #
edge $-1 $226 -3.8868358575546229 $179 -0.88683585755462291 $102 $227 forward 7 unknown #
coedge $-1 $224 $228 $104 $170 forward $163 $-1 #
edge $-1 $172 -54.144718771935175 $226 54.144718771935175 $169 $229 forward 7 unknown #
coedge $-1 $111 $105 $228 $230 reversed $112 $-1 #
vertex $-1 $106 $231 #
straight-curve $-1 54.144718771935175 -24.294848411004182 2.3868358575546229 0 0 1 I I #
edge $-1 $179 10.94063222514583 $177 15.767800146570874 $165 $232 forward 7 unknown #
coedge $-1 $233 $108 $111 $181 reversed $100 $-1 #
coedge $-1 $108 $233 $223 $234 forward $100 $-1 #
vertex $-1 $109 $235 #
straight-curve $-1 0 -29.122016332429222 3.2736717151092458 1 0 0 I I #
vertex $-1 $174 $236 #
straight-curve $-1 0 -24.294848411004182 3.2736717151092458 1 0 0 I I #
edge $-1 $237 -6.2736717151092458 $113 -3.2736717151092458 $111 $238 forward 7 unknown #
point $-1 54.144718771935175 -29.122016332429226 3.2736717151092458 #
point $-1 54.144718771935175 -24.294848411004182 3.2736717151092458 #
loop $-1 $-1 $124 $116 #
plane-surface $-1 -54.144718771935175 0 0 1 0 0 0 0 -1 forward_v I I I I #
coedge $-1 $187 $119 $121 $191 reversed $66 $-1 #
coedge $-1 $119 $186 $239 $240 reversed $66 $-1 #
coedge $-1 $127 $122 $119 $189 forward $117 $-1 #
edge $-1 $192 -20.32113021492723 $241 -18.337223091128379 $188 $242 forward 7 unknown #
coedge $-1 $121 $120 $195 $243 reversed $41 $-1 #
edge $-1 $244 2.5989569140172373e-014 $192 3.642609216655555 $186 $245 forward 7 unknown #
vertex $-1 $123 $246 #
straight-curve $-1 -52.160811648136324 3.4532444467049661 6.2736717151092449 0 1 0 I I #
coedge $-1 $239 $124 $127 $199 reversed $184 $-1 #
coedge $-1 $124 $239 $190 $243 forward $184 $-1 #
vertex $-1 $125 $247 #
straight-curve $-1 -54.144718771935175 1.152481129610841 31.098687988450337 0 0 1 I I #
straight-curve $-1 -54.144718771935189 1.152481129610841 3.218722545416874 -0.54463902268945019 0 -0.83867057594974714 I I #
edge $-1 $241 -12.660496657209023 $128 -1.152481129610841 $194 $248 forward 7 unknown #
point $-1 -54.144718771935175 1.152481129610841 6.2736717151092458 #
point $-1 -52.160811648136324 1.152481129610841 6.2736717151092458 #
edge $-1 $249 1 $249 0 $131 $-1 forward 7 unknown #
vertex $-1 $132 $250 #
ellipse-curve $-1 -52.132319115106682 6.9064888934099322 4.0835117090891409 -0.83867057594974714 0 0.54463902268945019 0.2723195113447251 0 0.41933528797487357 1 I I #
point $-1 -52.88044569869102 6.9064888934099322 5.1655324182379303 #
plane-surface $-1 54.144718771935175 0 0 -1 0 0 0 0 1 forward_v I I I I #
coedge $-1 $140 $138 $142 $211 reversed $81 $-1 #
edge $-1 $153 -6.2736717151092458 $213 6.2736717151092458 $152 $251 forward 7 unknown #
vertex $-1 $211 $252 #
straight-curve $-1 -54.144718771935175 -29.122016332429222 0 0 0 -1 I I #
edge $-1 $209 -29.122016332429222 $213 29.122016332429222 $207 $253 forward 7 unknown #
straight-curve $-1 0 -29.122016332429222 -6.2736717151092458 -1 0 0 I I #
vertex $-1 $145 $254 #
straight-curve $-1 0 29.122016332429222 -6.2736717151092458 1 0 0 I I #
point $-1 54.144718771935175 29.122016332429222 -6.2736717151092458 #
point $-1 54.144718771935175 -29.122016332429222 -6.2736717151092458 #
straight-curve $-1 -54.144718771935175 0 6.2736717151092458 0 -1 0 I I #
point $-1 -54.144718771935175 29.122016332429222 6.2736717151092458 #
point $-1 -54.144718771935175 -29.122016332429222 6.2736717151092458 #
straight-curve $-1 54.144718771935175 -29.122016332429222 0 0 0 -1 I I #
straight-curve $-1 54.144718771935175 29.122016332429222 0 0 0 -1 I I #
plane-surface $-1 54.144718771935175 0 0 -1 0 0 0 0 1 forward_v I I I I #
coedge $-1 $166 $165 $176 $234 reversed $58 $-1 #
coedge $-1 $255 $169 $166 $225 forward $163 $-1 #
edge $-1 $226 24.294848411004182 $256 29.122016332429222 $166 $257 forward 7 unknown #
vertex $-1 $225 $258 #
straight-curve $-1 -54.144718771935175 -24.294848411004182 2.3868358575546229 0 0 -1 I I #
coedge $-1 $169 $255 $171 $230 forward $163 $-1 #
straight-curve $-1 0 -24.294848411004182 6.2736717151092458 -1 0 0 I I #
edge $-1 $237 -29.122016332429222 $172 -24.294848411004182 $171 $259 forward 7 unknown #
point $-1 54.144718771935175 -24.294848411004182 6.2736717151092458 #
straight-curve $-1 -54.144718771935175 -13.354216185858352 3.2736717151092458 0 -1 0 I I #
coedge $-1 $176 $175 $255 $260 reversed $100 $-1 #
edge $-1 $256 -6.2736717151092458 $177 -3.2736717151092458 $223 $261 forward 7 unknown #
point $-1 -54.144718771935175 -29.122016332429226 3.2736717151092458 #
point $-1 -54.144718771935175 -24.294848411004182 3.2736717151092458 #
vertex $-1 $230 $262 #
straight-curve $-1 54.144718771935175 -29.122016332429222 0 0 0 -1 I I #
coedge $-1 $195 $194 $187 $240 forward $184 $-1 #
edge $-1 $241 24.825016273341092 $244 27.879965443033441 $239 $263 forward 7 unknown #
vertex $-1 $199 $264 #
straight-curve $-1 -72.481941863063554 12.660496657209023 6.2736717151092449 -1 0 0 I I #
edge $-1 $244 -9.2072522105040573 $196 2.3007633170941251 $195 $265 forward 7 unknown #
vertex $-1 $243 $266 #
straight-curve $-1 -54.144718771935189 12.660496657209023 3.218722545416874 0.54463902268945019 0 0.83867057594974714 I I #
point $-1 -52.160811648136324 12.660496657209023 6.2736717151092458 #
point $-1 -54.144718771935175 1.152481129610841 3.2187225454168957 #
straight-curve $-1 -54.144718771935175 0 6.2736717151092458 0 -1 0 I I #
vertex $-1 $202 $267 #
point $-1 -51.859999603761956 6.9064888934099322 4.5028469970640144 #
straight-curve $-1 -54.144718771935175 29.122016332429222 0 0 0 -1 I I #
point $-1 -54.144718771935175 -29.122016332429222 -6.2736717151092458 #
straight-curve $-1 -54.144718771935175 0 -6.2736717151092458 0 1 0 I I #
point $-1 -54.144718771935175 29.122016332429222 -6.2736717151092458 #
coedge $-1 $228 $224 $233 $260 forward $163 $-1 #
vertex $-1 $225 $268 #
straight-curve $-1 -54.144718771935175 0 6.2736717151092458 0 -1 0 I I #
point $-1 -54.144718771935175 -24.294848411004182 6.2736717151092458 #
straight-curve $-1 54.144718771935175 0 6.2736717151092458 0 1 0 I I #
edge $-1 $256 -54.144718771935175 $237 54.144718771935175 $233 $269 forward 7 unknown #
straight-curve $-1 -54.144718771935175 -29.122016332429222 0 0 0 -1 I I #
point $-1 54.144718771935175 -29.122016332429222 6.2736717151092458 #
straight-curve $-1 -54.144718771935175 12.660496657209023 31.098687988450337 0 0 -1 I I #
point $-1 -54.144718771935175 12.660496657209023 6.2736717151092458 #
straight-curve $-1 -54.144718771935175 3.4532444467049661 3.2187225454168957 0 -1 0 I I #
point $-1 -54.144718771935175 12.660496657209023 3.2187225454168957 #
point $-1 -51.712983827131808 6.9064888934099322 3.8111921977444165 #
point $-1 -54.144718771935175 -29.122016332429222 6.2736717151092458 #
straight-curve $-1 0 -29.122016332429222 6.2736717151092458 1 0 0 I I #
End-of-ACIS-data 