500 0 6 0           
7 Unknown 11 ACIS 5.0 NT 24 Thu Mar 25 18:59:40 1999 
-1 9.9999999999999995e-007 1e-010 
body $-1 $6 $-1 $7 #
body $-1 $8 $-1 $9 #
body $-1 $10 $-1 $11 #
body $-1 $12 $-1 $13 #
body $-1 $14 $-1 $15 #
body $-1 $16 $-1 $17 #
lump $-1 $-1 $18 $0 #
transform $-1 1 0 0 0 1 0 0 0 1 44.213995788445693 20.292938140873858 7.5853116351641292 1 rotate no_reflect no_shear #
lump $-1 $-1 $19 $1 #
transform $-1 1 0 0 0 1 0 0 0 1 44.213995788445693 20.292938140873858 7.5853116351641292 1 rotate no_reflect no_shear #
lump $-1 $-1 $20 $2 #
transform $-1 1 0 0 0 1 0 0 0 1 44.213995788445693 20.292938140873858 7.5853116351641292 1 rotate no_reflect no_shear #
lump $-1 $-1 $21 $3 #
transform $-1 1 0 0 0 1 0 0 0 1 44.213995788445693 20.292938140873858 7.5853116351641292 1 rotate no_reflect no_shear #
lump $-1 $-1 $22 $4 #
transform $-1 1 0 0 0 1 0 0 0 1 44.213995788445693 20.292938140873858 7.5853116351641292 1 rotate no_reflect no_shear #
lump $-1 $-1 $23 $5 #
transform $-1 1 0 0 0 1 0 0 0 1 44.213995788445693 20.292938140873858 7.5853116351641292 1 rotate no_reflect no_shear #
shell $-1 $-1 $-1 $24 $-1 $6 #
shell $-1 $-1 $-1 $25 $-1 $8 #
shell $-1 $-1 $-1 $26 $-1 $10 #
shell $-1 $-1 $-1 $27 $-1 $12 #
shell $-1 $-1 $-1 $28 $-1 $14 #
shell $-1 $-1 $-1 $29 $-1 $16 #
face $-1 $30 $31 $18 $-1 $32 forward single #
face $-1 $33 $34 $19 $-1 $35 reversed single #
face $-1 $36 $37 $20 $-1 $38 forward single #
face $-1 $39 $40 $21 $-1 $41 forward single #
face $-1 $42 $43 $22 $-1 $44 reversed single #
face $-1 $45 $46 $23 $-1 $47 forward single #
face $-1 $48 $49 $18 $-1 $50 reversed single #
loop $-1 $-1 $51 $24 #
plane-surface $-1 0 0 7.5853116351641292 0 0 1 1 0 0 forward_v I I I I #
face $-1 $52 $53 $19 $-1 $54 reversed single #
loop $-1 $-1 $55 $25 #
plane-surface $-1 33.56941591917748 -20.292938140873872 0.6816325258609055 0 -0.81915205242281985 0.57357642473473569 1 0 0 forward_v I I I I #
face $-1 $56 $57 $20 $-1 $58 forward single #
loop $-1 $59 $60 $26 #
cone-surface $-1 29.007453118062536 -16.466498620637534 3.1465747371451185 0 0.81915205242281985 -0.57357642473473569 1.5 0 0 1 I I 0 1 1.5 forward I I I I #
face $-1 $61 $62 $21 $-1 $63 forward single #
loop $-1 $64 $65 $27 #
cone-surface $-1 38.131378720292439 -16.466498620637534 3.1465747371451185 0 0.81915205242281985 -0.57357642473473569 1.5 0 0 1 I I 0 1 1.5 forward I I I I #
face $-1 $66 $67 $22 $-1 $68 reversed single #
loop $-1 $-1 $69 $28 #
plane-surface $-1 -11.203919960892769 39.434944721545882 98.803130198049331 1 0 0 0 -0.5877852598018023 -0.80901698891910034 forward_v I I I I #
face $-1 $70 $71 $23 $-1 $72 forward single #
loop $-1 $73 $74 $29 #
cone-surface $-1 1.559401819048297 16.737251711603836 4.5596572126404418 0 -0.5877852598018023 -0.80901698891910034 1.5 0 0 1 I I 0 1 1.5 forward I I I I #
face $-1 $75 $76 $18 $-1 $77 reversed single #
loop $-1 $-1 $78 $30 #
plane-surface $-1 0 0 -7.5853116351641292 0 0 1 1 0 0 forward_v I I I I #
coedge $-1 $79 $80 $81 $82 forward $31 $-1 #
face $-1 $83 $84 $19 $-1 $85 reversed single #
loop $-1 $-1 $86 $33 #
plane-surface $-1 22.924836049909267 -92.728908932712272 51.401843781007592 1 0 0 0 0.81915205242281985 -0.57357642473473569 forward_v I I I I #
coedge $-1 $87 $88 $89 $90 reversed $34 $-1 #
face $-1 $-1 $91 $20 $-1 $92 forward single #
loop $-1 $93 $94 $36 #
cone-surface $-1 29.007453118062536 -14.442699064991608 1.7294950752266649 0 0.81915205242281985 -0.57357642473473569 0.75 0 0 1 I I -0.70710678118654757 0.70710678118654757 0.75 forward I I I I #
loop $-1 $-1 $95 $26 #
coedge $-1 $60 $60 $96 $97 reversed $37 $-1 #
face $-1 $-1 $98 $21 $-1 $99 forward single #
loop $-1 $100 $101 $39 #
cone-surface $-1 38.131378720292439 -14.442699064991608 1.7294950752266649 0 0.81915205242281985 -0.57357642473473569 0.75 0 0 1 I I -0.70710678118654757 0.70710678118654757 0.75 forward I I I I #
loop $-1 $-1 $102 $27 #
coedge $-1 $65 $65 $103 $104 reversed $40 $-1 #
face $-1 $105 $106 $22 $-1 $107 reversed single #
loop $-1 $-1 $108 $42 #
plane-surface $-1 1.559401819048297 -12.541725281228807 27.263382716349099 0 0.5877852598018023 0.80901698891910034 1 0 0 forward_v I I I I #
coedge $-1 $109 $110 $111 $112 reversed $43 $-1 #
face $-1 $-1 $113 $23 $-1 $114 forward single #
loop $-1 $115 $116 $45 #
cone-surface $-1 1.559401819048297 15.615787679926413 3.0160944251103947 0 -0.5877852598018023 -0.80901698891910034 0.75 0 0 1 I I -0.70710678118654757 0.70710678118654757 0.75 forward I I I I #
loop $-1 $-1 $117 $29 #
coedge $-1 $74 $74 $118 $119 reversed $46 $-1 #
face $-1 $120 $121 $18 $-1 $122 reversed single #
loop $-1 $-1 $123 $48 #
plane-surface $-1 0 -20.292938140873858 0 0 1 0 0 0 1 forward_v I I I I #
coedge $-1 $124 $125 $126 $127 forward $49 $-1 #
coedge $-1 $128 $51 $129 $130 forward $31 $-1 #
coedge $-1 $51 $128 $131 $132 forward $31 $-1 #
coedge $-1 $133 $134 $51 $82 reversed $135 $-1 #
edge $-1 $136 -20.292938140873858 $137 20.292938140873858 $81 $138 forward 7 unknown #
face $-1 $139 $140 $19 $-1 $141 forward single #
loop $-1 $-1 $142 $52 #
plane-surface $-1 0 -20.292938140873858 0 0 1 0 0 0 1 forward_v I I I I #
coedge $-1 $143 $144 $145 $146 reversed $53 $-1 #
coedge $-1 $147 $55 $148 $149 reversed $34 $-1 #
coedge $-1 $55 $147 $143 $150 forward $34 $-1 #
coedge $-1 $145 $151 $55 $90 forward $140 $-1 #
edge $-1 $152 -27.429287828856953 $153 -6.1401280903205269 $89 $154 forward 7 unknown #
loop $-1 $-1 $96 $56 #
plane-surface $-1 33.56941591917748 -20.292938140873872 0.6816325258609055 0 -0.81915205242281985 0.57357642473473569 1 0 0 forward_v I I I I #
loop $-1 $-1 $155 $36 #
coedge $-1 $94 $94 $95 $156 reversed $57 $-1 #
coedge $-1 $95 $95 $94 $156 forward $59 $-1 #
coedge $-1 $96 $96 $60 $97 forward $91 $-1 #
edge $-1 $157 -1.9320895500328186e-016 $157 6.2831853071796004 $96 $158 forward 7 unknown #
loop $-1 $-1 $103 $61 #
plane-surface $-1 33.56941591917748 -20.292938140873872 0.6816325258609055 0 -0.81915205242281985 0.57357642473473569 1 0 0 forward_v I I I I #
loop $-1 $-1 $159 $39 #
coedge $-1 $101 $101 $102 $160 reversed $62 $-1 #
coedge $-1 $102 $102 $101 $160 forward $64 $-1 #
coedge $-1 $103 $103 $65 $104 forward $98 $-1 #
edge $-1 $161 -1.9320895500328186e-016 $161 6.2831853071796004 $103 $162 forward 7 unknown #
face $-1 $163 $164 $22 $-1 $165 forward single #
loop $-1 $-1 $166 $66 #
plane-surface $-1 14.322723598989363 39.434944721545882 98.803130198049331 -1 0 0 0 0.5877852598018023 0.80901698891910034 forward_v I I I I #
coedge $-1 $167 $168 $169 $170 reversed $67 $-1 #
coedge $-1 $110 $69 $171 $172 reversed $43 $-1 #
coedge $-1 $69 $109 $167 $173 reversed $43 $-1 #
coedge $-1 $169 $174 $69 $112 forward $164 $-1 #
edge $-1 $175 -0.57546578010091665 $176 5.1746569047869606 $111 $177 forward 7 unknown #
loop $-1 $-1 $118 $70 #
plane-surface $-1 1.559401819048297 -12.541725281228807 27.263382716349099 0 0.5877852598018023 0.80901698891910034 1 0 0 forward_v I I I I #
loop $-1 $-1 $178 $45 #
coedge $-1 $116 $116 $117 $179 reversed $71 $-1 #
coedge $-1 $117 $117 $116 $179 forward $73 $-1 #
coedge $-1 $118 $118 $74 $119 forward $113 $-1 #
edge $-1 $180 3.4419116817049722e-016 $180 6.2831853071796004 $118 $181 forward 7 unknown #
face $-1 $182 $183 $18 $-1 $184 reversed single #
loop $-1 $-1 $185 $75 #
plane-surface $-1 -44.213995788445693 0 0 1 0 0 0 0 -1 forward_v I I I I #
coedge $-1 $186 $131 $187 $188 forward $76 $-1 #
coedge $-1 $189 $78 $186 $190 forward $49 $-1 #
coedge $-1 $78 $189 $191 $192 forward $49 $-1 #
coedge $-1 $134 $133 $78 $127 reversed $135 $-1 #
edge $-1 $193 -20.292938140873858 $194 20.292938140873858 $126 $195 forward 7 unknown #
coedge $-1 $80 $79 $196 $197 forward $31 $-1 #
coedge $-1 $198 $199 $79 $130 reversed $183 $-1 #
edge $-1 $137 -44.213995788445693 $200 44.213995788445693 $129 $201 forward 7 unknown #
coedge $-1 $123 $202 $80 $132 reversed $76 $-1 #
edge $-1 $203 -44.213995788445693 $136 44.213995788445693 $131 $204 forward 7 unknown #
coedge $-1 $126 $81 $202 $205 forward $135 $-1 #
coedge $-1 $81 $126 $198 $206 reversed $135 $-1 #
loop $-1 $-1 $133 $182 #
vertex $-1 $82 $207 #
vertex $-1 $82 $208 #
straight-curve $-1 44.213995788445693 0 7.5853116351641292 0 1 0 I I #
face $-1 $-1 $209 $19 $-1 $210 reversed single #
loop $-1 $-1 $145 $83 #
plane-surface $-1 0 0 7.5853116351641292 0 0 1 1 0 0 forward_v I I I I #
coedge $-1 $211 $212 $144 $213 forward $84 $-1 #
coedge $-1 $144 $86 $88 $150 reversed $53 $-1 #
coedge $-1 $86 $143 $142 $213 reversed $53 $-1 #
coedge $-1 $214 $89 $86 $146 forward $140 $-1 #
edge $-1 $153 -30.905524333297294 $215 -26.071516325482278 $145 $216 forward 7 unknown #
coedge $-1 $88 $87 $211 $217 reversed $34 $-1 #
coedge $-1 $218 $219 $87 $149 forward $209 $-1 #
edge $-1 $220 -5.5405951118242136 $152 2.8872408300916703 $148 $221 forward 7 unknown #
edge $-1 $222 2.4793790127588779e-014 $153 8.4278359419159088 $143 $223 forward 7 unknown #
coedge $-1 $89 $214 $218 $224 forward $140 $-1 #
vertex $-1 $149 $225 #
vertex $-1 $90 $226 #
straight-curve $-1 16.78470795958874 -15.458930133058844 7.5853116351641292 -1 0 0 I I #
coedge $-1 $155 $155 $-1 $227 reversed $93 $-1 #
edge $-1 $228 0 $228 6.2831853071796004 $94 $229 forward 7 unknown #
vertex $-1 $97 $230 #
ellipse-curve $-1 29.007453118062536 -17.875934136966354 4.1334720805125258 0 -0.81915205242281985 0.57357642473473569 1.5 0 0 1 I I #
coedge $-1 $159 $159 $-1 $231 reversed $100 $-1 #
edge $-1 $232 0 $232 6.2831853071796004 $101 $233 forward 7 unknown #
vertex $-1 $104 $234 #
ellipse-curve $-1 38.131378720292439 -17.875934136966354 4.1334720805125258 0 -0.81915205242281985 0.57357642473473569 1.5 0 0 1 I I #
face $-1 $-1 $235 $22 $-1 $236 reversed single #
loop $-1 $-1 $111 $105 #
plane-surface $-1 0 0 7.5853116351641292 0 0 1 1 0 0 forward_v I I I I #
coedge $-1 $237 $238 $239 $240 reversed $106 $-1 #
coedge $-1 $241 $108 $110 $173 forward $67 $-1 #
coedge $-1 $108 $241 $237 $242 forward $67 $-1 #
coedge $-1 $239 $111 $108 $170 forward $164 $-1 #
edge $-1 $176 -11.983620870416917 $243 13.543022689465214 $169 $244 forward 7 unknown #
coedge $-1 $245 $246 $109 $172 forward $235 $-1 #
edge $-1 $247 -45.993962217226454 $175 -41.816253463860534 $171 $248 forward 7 unknown #
edge $-1 $176 33.478333716330859 $247 40.585876281747709 $110 $249 forward 7 unknown #
coedge $-1 $111 $239 $245 $250 forward $164 $-1 #
vertex $-1 $172 $251 #
vertex $-1 $112 $252 #
straight-curve $-1 -11.203919960892769 19.717472360772941 7.5853116351641319 0 -1 0 I I #
coedge $-1 $178 $178 $-1 $253 reversed $115 $-1 #
edge $-1 $254 0 $254 6.2831853071796004 $116 $255 forward 7 unknown #
vertex $-1 $119 $256 #
ellipse-curve $-1 1.559401819048297 17.417876798429916 5.4964572584811755 0 0.5877852598018023 0.80901698891910034 1.5 0 0 1 I I #
face $-1 $-1 $135 $18 $-1 $257 reversed single #
loop $-1 $-1 $198 $120 #
plane-surface $-1 0 20.292938140873858 0 0 -1 0 0 0 -1 forward_v I I I I #
coedge $-1 $258 $196 $199 $259 forward $121 $-1 #
coedge $-1 $202 $123 $124 $190 reversed $76 $-1 #
coedge $-1 $196 $258 $123 $188 reversed $121 $-1 #
edge $-1 $203 -7.5853116351641292 $260 7.5853116351641292 $187 $261 forward 7 unknown #
coedge $-1 $125 $124 $258 $262 forward $49 $-1 #
edge $-1 $194 -44.213995788445693 $260 44.213995788445693 $186 $263 forward 7 unknown #
coedge $-1 $199 $198 $125 $192 reversed $183 $-1 #
edge $-1 $264 -44.213995788445693 $193 44.213995788445693 $191 $265 forward 7 unknown #
vertex $-1 $127 $266 #
vertex $-1 $205 $267 #
straight-curve $-1 44.213995788445693 0 -7.5853116351641292 0 -1 0 I I #
coedge $-1 $185 $187 $128 $197 reversed $121 $-1 #
edge $-1 $200 -20.292938140873858 $203 20.292938140873858 $196 $268 forward 7 unknown #
coedge $-1 $191 $129 $134 $206 forward $183 $-1 #
coedge $-1 $129 $191 $185 $259 reversed $183 $-1 #
vertex $-1 $130 $269 #
straight-curve $-1 0 20.292938140873858 7.5853116351641292 -1 0 0 I I #
coedge $-1 $131 $186 $133 $205 reversed $76 $-1 #
vertex $-1 $197 $270 #
straight-curve $-1 0 -20.292938140873858 7.5853116351641292 1 0 0 I I #
edge $-1 $136 -7.5853116351641292 $194 7.5853116351641292 $133 $271 forward 7 unknown #
edge $-1 $137 -7.5853116351641292 $193 7.5853116351641292 $134 $272 forward 7 unknown #
point $-1 44.213995788445693 -20.292938140873858 7.5853116351641292 #
point $-1 44.213995788445693 20.292938140873858 7.5853116351641292 #
loop $-1 $-1 $148 $139 #
plane-surface $-1 44.213995788445693 0 0 -1 0 0 0 0 1 forward_v I I I I #
coedge $-1 $273 $142 $147 $217 forward $84 $-1 #
coedge $-1 $142 $273 $214 $274 reversed $84 $-1 #
edge $-1 $215 18.115610255339668 $222 25.019289364642869 $142 $275 forward 7 unknown #
coedge $-1 $151 $145 $212 $274 forward $140 $-1 #
vertex $-1 $274 $276 #
straight-curve $-1 22.924836049909267 -46.364454466356136 7.5853116351641283 0 -1 0 I I #
edge $-1 $222 6.1401280903205269 $220 27.429287828856953 $211 $277 forward 7 unknown #
coedge $-1 $219 $148 $151 $224 reversed $209 $-1 #
coedge $-1 $148 $218 $273 $278 forward $209 $-1 #
vertex $-1 $217 $279 #
straight-curve $-1 44.213995788445693 -17.114983405730975 5.2202223833555736 0 0.57357642473473569 0.81915205242281985 I I #
vertex $-1 $217 $280 #
straight-curve $-1 22.924836049909267 -20.292938140873872 0.6816325258609055 0 0.57357642473473569 0.81915205242281985 I I #
edge $-1 $281 -20.292938140873858 $152 -15.458930133058843 $218 $282 forward 7 unknown #
point $-1 44.213995788445693 -15.458930133058843 7.5853116351641301 #
point $-1 22.924836049909267 -15.458930133058843 7.5853116351641301 #
edge $-1 $283 1 $283 0 $155 $-1 forward 7 unknown #
vertex $-1 $156 $284 #
ellipse-curve $-1 29.007453118062536 -15.057063104308723 2.1596773937777165 0 -0.81915205242281985 0.57357642473473569 1.5 0 0 1 I I #
point $-1 30.507453118062536 -17.875934136966347 4.1334720805125205 #
edge $-1 $285 1 $285 0 $159 $-1 forward 7 unknown #
vertex $-1 $160 $286 #
ellipse-curve $-1 38.131378720292439 -15.057063104308723 2.1596773937777165 0 -0.81915205242281985 0.57357642473473569 1.5 0 0 1 I I #
point $-1 39.631378720292439 -17.875934136966347 4.1334720805125205 #
loop $-1 $-1 $171 $163 #
plane-surface $-1 0 20.292938140873858 0 0 -1 0 0 0 -1 forward_v I I I I #
coedge $-1 $238 $166 $168 $242 reversed $106 $-1 #
coedge $-1 $166 $237 $287 $288 reversed $106 $-1 #
coedge $-1 $174 $169 $166 $240 forward $164 $-1 #
edge $-1 $243 -5.1746569047869606 $289 0.57546578010091665 $239 $290 forward 7 unknown #
coedge $-1 $168 $167 $246 $291 reversed $67 $-1 #
edge $-1 $292 -40.585876281747709 $243 -33.478333716330859 $237 $293 forward 7 unknown #
vertex $-1 $170 $294 #
straight-curve $-1 0.7797009095241485 14.542815455985981 7.5853116351641283 1 0 0 I I #
coedge $-1 $287 $171 $174 $250 reversed $235 $-1 #
coedge $-1 $171 $287 $241 $291 forward $235 $-1 #
vertex $-1 $172 $295 #
straight-curve $-1 -11.203919960892769 20.292938140873858 49.401565099024666 0 0 1 I I #
straight-curve $-1 -11.203919960892769 -12.541725281228807 27.263382716349099 0 0.80901698891910034 -0.5877852598018023 I I #
edge $-1 $289 -14.322723598989363 $175 11.203919960892769 $245 $296 forward 7 unknown #
point $-1 -11.203919960892769 20.292938140873858 7.5853116351641292 #
point $-1 -11.203919960892769 14.542815455985981 7.5853116351641283 #
edge $-1 $297 1 $297 0 $178 $-1 forward 7 unknown #
vertex $-1 $179 $298 #
ellipse-curve $-1 1.559401819048297 16.056626624777763 3.62285716679972 0 0.5877852598018023 0.80901698891910034 1.5 0 0 1 I I #
point $-1 3.059401819048297 17.417876798429909 5.4964572584811648 #
plane-surface $-1 44.213995788445693 0 0 -1 0 0 0 0 1 forward_v I I I I #
coedge $-1 $187 $185 $189 $262 reversed $121 $-1 #
edge $-1 $200 -7.5853116351641292 $264 7.5853116351641292 $199 $299 forward 7 unknown #
vertex $-1 $262 $300 #
straight-curve $-1 -44.213995788445693 -20.292938140873858 0 0 0 -1 I I #
edge $-1 $260 -20.292938140873858 $264 20.292938140873858 $258 $301 forward 7 unknown #
straight-curve $-1 0 -20.292938140873858 -7.5853116351641292 -1 0 0 I I #
vertex $-1 $192 $302 #
straight-curve $-1 0 20.292938140873858 -7.5853116351641292 1 0 0 I I #
point $-1 44.213995788445693 20.292938140873858 -7.5853116351641292 #
point $-1 44.213995788445693 -20.292938140873858 -7.5853116351641292 #
straight-curve $-1 -44.213995788445693 0 7.5853116351641292 0 -1 0 I I #
point $-1 -44.213995788445693 20.292938140873858 7.5853116351641292 #
point $-1 -44.213995788445693 -20.292938140873858 7.5853116351641292 #
straight-curve $-1 44.213995788445693 -20.292938140873858 0 0 0 -1 I I #
straight-curve $-1 44.213995788445693 20.292938140873858 0 0 0 -1 I I #
coedge $-1 $212 $211 $219 $278 reversed $84 $-1 #
edge $-1 $215 22.924836049909267 $281 44.213995788445693 $212 $303 forward 7 unknown #
straight-curve $-1 22.924836049909267 -20.292938140873858 25.700921890503796 0 0 -1 I I #
point $-1 22.924836049909267 -20.292938140873858 7.5853116351641292 #
straight-curve $-1 16.78470795958874 -20.292938140873858 0.68163252586092615 1 0 0 I I #
edge $-1 $281 -7.5853116351641292 $220 -0.68163252586092582 $219 $304 forward 7 unknown #
point $-1 44.213995788445693 -20.292938140873858 0.68163252586092582 #
point $-1 22.924836049909267 -20.292938140873858 0.68163252586092582 #
vertex $-1 $224 $305 #
straight-curve $-1 44.213995788445693 0 7.5853116351641292 0 1 0 I I #
vertex $-1 $227 $306 #
point $-1 30.507453118062536 -15.057063104308723 2.1596773937777165 #
vertex $-1 $231 $307 #
point $-1 39.631378720292439 -15.057063104308723 2.1596773937777165 #
coedge $-1 $246 $245 $238 $288 forward $235 $-1 #
edge $-1 $289 41.816253463860534 $292 45.993962217226454 $287 $308 forward 7 unknown #
vertex $-1 $250 $309 #
straight-curve $-1 14.322723598989363 19.717472360772941 7.5853116351641319 0 1 0 I I #
edge $-1 $292 -13.543022689465214 $247 11.983620870416917 $246 $310 forward 7 unknown #
vertex $-1 $291 $311 #
straight-curve $-1 14.322723598989363 -12.541725281228807 27.263382716349099 0 -0.80901698891910034 0.5877852598018023 I I #
point $-1 14.322723598989363 14.542815455985981 7.5853116351641283 #
point $-1 -11.203919960892769 20.292938140873858 3.4076028817982156 #
straight-curve $-1 0 20.292938140873858 7.5853116351641292 -1 0 0 I I #
vertex $-1 $253 $312 #
point $-1 3.059401819048297 16.056626624777763 3.62285716679972 #
straight-curve $-1 -44.213995788445693 20.292938140873858 0 0 0 -1 I I #
point $-1 -44.213995788445693 -20.292938140873858 -7.5853116351641292 #
straight-curve $-1 -44.213995788445693 0 -7.5853116351641292 0 1 0 I I #
point $-1 -44.213995788445693 20.292938140873858 -7.5853116351641292 #
straight-curve $-1 0 -20.292938140873858 7.5853116351641292 1 0 0 I I #
straight-curve $-1 44.213995788445693 -20.292938140873858 0 0 0 -1 I I #
point $-1 44.213995788445693 -20.292938140873858 7.5853116351641292 #
point $-1 29.007453118062536 -13.828335025674493 1.2993127566756131 #
point $-1 38.131378720292439 -13.828335025674493 1.2993127566756131 #
straight-curve $-1 14.322723598989363 20.292938140873858 49.401565099024666 0 0 -1 I I #
point $-1 14.322723598989363 20.292938140873858 7.5853116351641292 #
straight-curve $-1 0.7797009095241485 20.292938140873858 3.4076028817982138 -1 0 0 I I #
point $-1 14.322723598989363 20.292938140873858 3.4076028817982156 #
point $-1 1.559401819048297 15.174948735075061 2.4093316834210694 #
End-of-ACIS-data 