500 0 9 0           
7 Unknown 11 ACIS 5.0 NT 24 Fri Mar 26 16:57:53 1999 
-1 9.9999999999999995e-007 1e-010 
body $-1 $9 $-1 $10 #
body $-1 $11 $-1 $12 #
body $-1 $13 $-1 $14 #
body $-1 $15 $-1 $16 #
body $-1 $17 $-1 $18 #
body $-1 $19 $-1 $20 #
body $-1 $21 $-1 $22 #
body $-1 $23 $-1 $24 #
body $-1 $25 $-1 $26 #
lump $-1 $-1 $27 $0 #
transform $-1 1 0 0 0 1 0 0 0 1 60.540177617725149 33.135525420921347 16.201893601378693 1 rotate no_reflect no_shear #
lump $-1 $-1 $28 $1 #
transform $-1 1 0 0 0 1 0 0 0 1 60.540177617725149 33.135525420921347 16.201893601378693 1 rotate no_reflect no_shear #
lump $-1 $-1 $29 $2 #
transform $-1 1 0 0 0 1 0 0 0 1 60.540177617725149 33.135525420921347 16.201893601378693 1 rotate no_reflect no_shear #
lump $-1 $-1 $30 $3 #
transform $-1 1 0 0 0 1 0 0 0 1 60.540177617725149 33.135525420921347 16.201893601378693 1 rotate no_reflect no_shear #
lump $-1 $-1 $31 $4 #
transform $-1 1 0 0 0 1 0 0 0 1 60.540177617725149 33.135525420921347 16.201893601378693 1 rotate no_reflect no_shear #
lump $-1 $-1 $32 $5 #
transform $-1 1 0 0 0 1 0 0 0 1 60.540177617725149 33.135525420921347 16.201893601378693 1 rotate no_reflect no_shear #
lump $-1 $-1 $33 $6 #
transform $-1 1 0 0 0 1 0 0 0 1 60.540177617725149 33.135525420921347 16.201893601378693 1 rotate no_reflect no_shear #
lump $-1 $-1 $34 $7 #
transform $-1 1 0 0 0 1 0 0 0 1 60.540177617725149 33.135525420921347 16.201893601378693 1 rotate no_reflect no_shear #
lump $-1 $-1 $35 $8 #
transform $-1 1 0 0 0 1 0 0 0 1 60.540177617725149 33.135525420921347 16.201893601378693 1 rotate no_reflect no_shear #
shell $-1 $-1 $-1 $36 $-1 $9 #
shell $-1 $-1 $-1 $37 $-1 $11 #
shell $-1 $-1 $-1 $38 $-1 $13 #
shell $-1 $-1 $-1 $39 $-1 $15 #
shell $-1 $-1 $-1 $40 $-1 $17 #
shell $-1 $-1 $-1 $41 $-1 $19 #
shell $-1 $-1 $-1 $42 $-1 $21 #
shell $-1 $-1 $-1 $43 $-1 $23 #
shell $-1 $-1 $-1 $44 $-1 $25 #
face $-1 $45 $46 $27 $-1 $47 forward single #
face $-1 $48 $49 $28 $-1 $50 reversed single #
face $-1 $51 $52 $29 $-1 $53 reversed single #
face $-1 $54 $55 $30 $-1 $56 reversed single #
face $-1 $57 $58 $31 $-1 $59 forward single #
face $-1 $60 $61 $32 $-1 $62 forward single #
face $-1 $63 $64 $33 $-1 $65 reversed single #
face $-1 $66 $67 $34 $-1 $68 forward single #
face $-1 $69 $70 $35 $-1 $71 forward single #
face $-1 $72 $73 $27 $-1 $74 reversed single #
loop $-1 $-1 $75 $36 #
plane-surface $-1 0 0 16.201893601378693 0 0 1 1 0 0 forward_v I I I I #
face $-1 $76 $77 $28 $-1 $78 reversed single #
loop $-1 $-1 $79 $37 #
plane-surface $-1 -53.471119417629488 -6.8805212279259322 0 0 1 0 0 0 1 forward_v I I I I #
face $-1 $80 $81 $29 $-1 $82 reversed single #
loop $-1 $-1 $83 $38 #
plane-surface $-1 53.471119417629481 -6.8805212279259322 0 0 1 0 0 0 1 forward_v I I I I #
face $-1 $84 $85 $30 $-1 $86 reversed single #
loop $-1 $-1 $87 $39 #
plane-surface $-1 7.1375052474932446 102.78953405108291 122.16114119570102 1 0 0 0 -0.85716730853699208 -0.51503806187062418 forward_v I I I I #
face $-1 $88 $89 $31 $-1 $90 forward single #
loop $-1 $91 $92 $40 #
cone-surface $-1 14.828502905063473 25.753175711733988 7.5466759473523419 0 -0.85716730853699208 -0.51503806187062418 2.5 0 0 1 I I 0 1 2.5 forward I I I I #
face $-1 $93 $94 $32 $-1 $95 forward single #
loop $-1 $96 $97 $41 #
cone-surface $-1 26.36499939141882 25.753175711733988 7.5466759473523419 0 -0.85716730853699208 -0.51503806187062418 2.5 0 0 1 I I 0 1 2.5 forward I I I I #
face $-1 $98 $99 $33 $-1 $100 reversed single #
loop $-1 $-1 $101 $42 #
plane-surface $-1 34.055997048989063 -136.92164763479516 65.355762911680557 -1 0 0 0 -0.85716730853699208 0.51503806187062418 forward_v I I I I #
face $-1 $102 $103 $34 $-1 $104 forward single #
loop $-1 $105 $106 $43 #
cone-surface $-1 14.828502905063473 -25.753175711733995 7.5466759473523277 0 0.85716730853699208 -0.51503806187062418 2.5 0 0 1 I I 0 1 2.5 forward I I I I #
face $-1 $107 $108 $35 $-1 $109 forward single #
loop $-1 $110 $111 $44 #
cone-surface $-1 26.36499939141882 -25.753175711733995 7.5466759473523277 0 0.85716730853699208 -0.51503806187062418 2.5 0 0 1 I I 0 1 2.5 forward I I I I #
face $-1 $112 $113 $27 $-1 $114 reversed single #
loop $-1 $-1 $115 $45 #
plane-surface $-1 0 0 -16.201893601378693 0 0 1 1 0 0 forward_v I I I I #
coedge $-1 $116 $117 $118 $119 forward $46 $-1 #
face $-1 $120 $121 $28 $-1 $122 reversed single #
loop $-1 $-1 $123 $48 #
plane-surface $-1 -53.471119417629488 -1.2317382181639616 0 0 -1 0 0 0 -1 forward_v I I I I #
coedge $-1 $124 $125 $126 $127 reversed $49 $-1 #
face $-1 $128 $129 $29 $-1 $130 reversed single #
loop $-1 $-1 $131 $51 #
plane-surface $-1 46.40206121753382 -4.0561297230449469 0 1 0 0 0 0 -1 forward_v I I I I #
coedge $-1 $132 $133 $134 $135 forward $52 $-1 #
face $-1 $136 $137 $30 $-1 $138 reversed single #
loop $-1 $-1 $139 $54 #
plane-surface $-1 20.596751148241154 -0.99658816279091411 59.800149704628019 0 0.85716730853699208 0.51503806187062418 1 0 0 forward_v I I I I #
coedge $-1 $140 $141 $142 $143 reversed $55 $-1 #
face $-1 $-1 $144 $31 $-1 $145 forward single #
loop $-1 $146 $147 $57 #
cone-surface $-1 14.828502905063473 21.267186534708266 4.8512218063732675 0 -0.85716730853699208 -0.51503806187062418 1.25 0 0 1 I I -0.70710678118654746 0.70710678118654746 1.25 forward I I I I #
loop $-1 $-1 $148 $40 #
coedge $-1 $92 $92 $149 $150 reversed $58 $-1 #
face $-1 $-1 $151 $32 $-1 $152 forward single #
loop $-1 $153 $154 $60 #
cone-surface $-1 26.36499939141882 21.267186534708266 4.8512218063732675 0 -0.85716730853699208 -0.51503806187062418 1.25 0 0 1 I I -0.70710678118654746 0.70710678118654746 1.25 forward I I I I #
loop $-1 $-1 $155 $41 #
coedge $-1 $97 $97 $156 $157 reversed $61 $-1 #
face $-1 $158 $159 $33 $-1 $160 reversed single #
loop $-1 $-1 $161 $63 #
plane-surface $-1 20.596751148241154 -33.13552542092134 2.994771420607556 0 -0.85716730853699208 0.51503806187062418 1 0 0 forward_v I I I I #
coedge $-1 $162 $163 $164 $165 reversed $64 $-1 #
face $-1 $-1 $166 $34 $-1 $167 forward single #
loop $-1 $168 $169 $66 #
cone-surface $-1 14.828502905063473 -21.267186534708273 4.8512218063732533 0 0.85716730853699208 -0.51503806187062418 1.25 0 0 1 I I -0.70710678118654746 0.70710678118654746 1.25 forward I I I I #
loop $-1 $-1 $170 $43 #
coedge $-1 $106 $106 $171 $172 reversed $67 $-1 #
face $-1 $-1 $173 $35 $-1 $174 forward single #
loop $-1 $175 $176 $69 #
cone-surface $-1 26.36499939141882 -21.267186534708273 4.8512218063732533 0 0.85716730853699208 -0.51503806187062418 1.25 0 0 1 I I -0.70710678118654746 0.70710678118654746 1.25 forward I I I I #
loop $-1 $-1 $177 $44 #
coedge $-1 $111 $111 $178 $179 reversed $70 $-1 #
face $-1 $180 $181 $27 $-1 $182 reversed single #
loop $-1 $-1 $183 $72 #
plane-surface $-1 0 -33.135525420921347 0 0 1 0 0 0 1 forward_v I I I I #
coedge $-1 $184 $185 $186 $187 forward $73 $-1 #
coedge $-1 $188 $75 $189 $190 forward $46 $-1 #
coedge $-1 $75 $188 $191 $192 forward $46 $-1 #
coedge $-1 $193 $194 $75 $119 reversed $195 $-1 #
edge $-1 $196 -33.135525420921347 $197 33.135525420921347 $118 $198 forward 7 unknown #
face $-1 $199 $200 $28 $-1 $201 reversed single #
loop $-1 $-1 $202 $76 #
plane-surface $-1 -46.402061217533827 -4.0561297230449469 0 -1 0 0 0 0 1 forward_v I I I I #
coedge $-1 $203 $204 $205 $206 forward $77 $-1 #
coedge $-1 $207 $79 $208 $209 reversed $49 $-1 #
coedge $-1 $79 $207 $210 $211 reversed $49 $-1 #
coedge $-1 $212 $213 $79 $127 forward $214 $-1 #
edge $-1 $215 -16.201893601378693 $216 16.201893601378693 $126 $217 forward 7 unknown #
face $-1 $218 $219 $29 $-1 $220 reversed single #
loop $-1 $-1 $221 $80 #
plane-surface $-1 53.471119417629481 -1.2317382181639616 0 0 -1 0 0 0 -1 forward_v I I I I #
coedge $-1 $222 $223 $224 $225 forward $81 $-1 #
coedge $-1 $226 $83 $227 $228 reversed $52 $-1 #
coedge $-1 $83 $226 $229 $230 reversed $52 $-1 #
coedge $-1 $223 $222 $83 $135 reversed $81 $-1 #
edge $-1 $231 -16.201893601378693 $232 16.201893601378693 $134 $233 forward 7 unknown #
face $-1 $234 $235 $30 $-1 $236 reversed single #
loop $-1 $-1 $237 $84 #
plane-surface $-1 34.055997048989063 102.78953405108291 122.16114119570102 -1 0 0 0 0.85716730853699208 0.51503806187062418 forward_v I I I I #
coedge $-1 $238 $239 $240 $241 reversed $85 $-1 #
coedge $-1 $141 $87 $242 $243 reversed $55 $-1 #
coedge $-1 $87 $140 $238 $244 reversed $55 $-1 #
coedge $-1 $240 $245 $87 $143 forward $246 $-1 #
edge $-1 $247 18.259241604620108 $248 26.194880940285863 $142 $249 forward 7 unknown #
loop $-1 $-1 $149 $88 #
plane-surface $-1 20.596751148241154 -0.99658816279091411 59.800149704628019 0 0.85716730853699208 0.51503806187062418 1 0 0 forward_v I I I I #
loop $-1 $-1 $250 $57 #
coedge $-1 $147 $147 $148 $251 reversed $89 $-1 #
coedge $-1 $148 $148 $147 $251 forward $91 $-1 #
coedge $-1 $149 $149 $92 $150 forward $144 $-1 #
edge $-1 $252 -4.8619490181972651e-016 $252 6.2831853071795996 $149 $253 forward 7 unknown #
loop $-1 $-1 $156 $93 #
plane-surface $-1 20.596751148241154 -0.99658816279091411 59.800149704628019 0 0.85716730853699208 0.51503806187062418 1 0 0 forward_v I I I I #
loop $-1 $-1 $254 $60 #
coedge $-1 $154 $154 $155 $255 reversed $94 $-1 #
coedge $-1 $155 $155 $154 $255 forward $96 $-1 #
coedge $-1 $156 $156 $97 $157 forward $151 $-1 #
edge $-1 $256 -4.8619490181972651e-016 $256 6.2831853071795996 $156 $257 forward 7 unknown #
face $-1 $258 $259 $33 $-1 $260 forward single #
loop $-1 $-1 $261 $98 #
plane-surface $-1 7.1375052474932446 -136.92164763479516 65.355762911680557 1 0 0 0 0.85716730853699208 -0.51503806187062418 forward_v I I I I #
coedge $-1 $262 $263 $264 $265 reversed $99 $-1 #
coedge $-1 $163 $101 $266 $267 reversed $64 $-1 #
coedge $-1 $101 $162 $262 $268 reversed $64 $-1 #
coedge $-1 $264 $269 $101 $165 forward $259 $-1 #
edge $-1 $270 35.325298396476235 $271 43.260937732141997 $164 $272 forward 7 unknown #
loop $-1 $-1 $171 $102 #
plane-surface $-1 20.596751148241154 -33.13552542092134 2.994771420607556 0 -0.85716730853699208 0.51503806187062418 1 0 0 forward_v I I I I #
loop $-1 $-1 $273 $66 #
coedge $-1 $169 $169 $170 $274 reversed $103 $-1 #
coedge $-1 $170 $170 $169 $274 forward $105 $-1 #
coedge $-1 $171 $171 $106 $172 forward $166 $-1 #
edge $-1 $275 -2.4571820518453967e-016 $275 6.2831853071796004 $171 $276 forward 7 unknown #
loop $-1 $-1 $178 $107 #
plane-surface $-1 20.596751148241154 -33.13552542092134 2.994771420607556 0 -0.85716730853699208 0.51503806187062418 1 0 0 forward_v I I I I #
loop $-1 $-1 $277 $69 #
coedge $-1 $176 $176 $177 $278 reversed $108 $-1 #
coedge $-1 $177 $177 $176 $278 forward $110 $-1 #
coedge $-1 $178 $178 $111 $179 forward $173 $-1 #
edge $-1 $279 -2.4571820518453967e-016 $279 6.2831853071796004 $178 $280 forward 7 unknown #
face $-1 $281 $282 $27 $-1 $283 reversed single #
loop $-1 $-1 $284 $112 #
plane-surface $-1 -60.540177617725149 0 0 1 0 0 0 0 -1 forward_v I I I I #
coedge $-1 $285 $191 $286 $287 forward $113 $-1 #
coedge $-1 $288 $115 $285 $289 forward $73 $-1 #
coedge $-1 $115 $288 $290 $291 forward $73 $-1 #
coedge $-1 $194 $193 $115 $187 reversed $195 $-1 #
edge $-1 $292 -33.135525420921347 $293 33.135525420921347 $186 $294 forward 7 unknown #
coedge $-1 $117 $116 $295 $296 forward $46 $-1 #
coedge $-1 $297 $298 $116 $190 reversed $282 $-1 #
edge $-1 $197 -60.540177617725149 $299 60.540177617725149 $189 $300 forward 7 unknown #
coedge $-1 $183 $301 $117 $192 reversed $113 $-1 #
edge $-1 $302 -60.540177617725149 $196 60.540177617725149 $191 $303 forward 7 unknown #
coedge $-1 $186 $118 $301 $304 forward $195 $-1 #
coedge $-1 $118 $186 $297 $305 reversed $195 $-1 #
loop $-1 $-1 $193 $281 #
vertex $-1 $119 $306 #
vertex $-1 $119 $307 #
straight-curve $-1 60.540177617725149 0 16.201893601378693 0 1 0 I I #
face $-1 $308 $309 $28 $-1 $310 forward single #
loop $-1 $-1 $311 $120 #
plane-surface $-1 0 0 -16.201893601378693 0 0 1 1 0 0 forward_v I I I I #
coedge $-1 $312 $313 $207 $314 forward $121 $-1 #
coedge $-1 $315 $123 $311 $316 reversed $77 $-1 #
coedge $-1 $123 $315 $317 $318 reversed $77 $-1 #
coedge $-1 $313 $312 $123 $206 reversed $121 $-1 #
edge $-1 $319 -16.201893601378693 $320 16.201893601378693 $205 $321 forward 7 unknown #
coedge $-1 $125 $124 $202 $314 reversed $49 $-1 #
coedge $-1 $322 $323 $124 $209 forward $200 $-1 #
edge $-1 $324 19.666501508719083 $215 33.804617908910402 $208 $325 forward 7 unknown #
coedge $-1 $326 $327 $125 $211 forward $309 $-1 #
edge $-1 $216 -33.804617908910402 $328 -19.666501508719083 $210 $329 forward 7 unknown #
coedge $-1 $330 $126 $327 $331 reversed $214 $-1 #
coedge $-1 $126 $330 $322 $332 reversed $214 $-1 #
loop $-1 $-1 $330 $308 #
vertex $-1 $332 $333 #
vertex $-1 $127 $334 #
straight-curve $-1 -60.540177617725149 -6.8805212279259322 0 0 0 1 I I #
face $-1 $335 $336 $29 $-1 $337 forward single #
loop $-1 $-1 $227 $128 #
plane-surface $-1 0 0 -16.201893601378693 0 0 1 1 0 0 forward_v I I I I #
coedge $-1 $338 $339 $340 $341 reversed $129 $-1 #
coedge $-1 $134 $131 $342 $343 reversed $81 $-1 #
coedge $-1 $131 $134 $344 $345 reversed $81 $-1 #
coedge $-1 $339 $338 $131 $225 reversed $129 $-1 #
edge $-1 $346 -16.201893601378693 $347 16.201893601378693 $224 $348 forward 7 unknown #
coedge $-1 $133 $132 $349 $350 reversed $52 $-1 #
coedge $-1 $342 $351 $132 $228 forward $219 $-1 #
edge $-1 $352 -33.804617908910402 $232 -19.66650150871908 $227 $353 forward 7 unknown #
coedge $-1 $354 $344 $133 $230 forward $336 $-1 #
edge $-1 $231 19.66650150871908 $355 33.804617908910402 $229 $356 forward 7 unknown #
vertex $-1 $230 $357 #
vertex $-1 $228 $358 #
straight-curve $-1 46.40206121753382 -6.8805212279259322 0 0 0 -1 I I #
face $-1 $-1 $246 $30 $-1 $359 forward single #
loop $-1 $-1 $360 $136 #
plane-surface $-1 0 33.135525420921347 0 0 -1 0 0 0 -1 forward_v I I I I #
coedge $-1 $361 $362 $363 $364 reversed $137 $-1 #
coedge $-1 $365 $139 $141 $244 forward $85 $-1 #
coedge $-1 $139 $365 $361 $366 forward $85 $-1 #
coedge $-1 $363 $142 $139 $241 forward $246 $-1 #
edge $-1 $248 -3.1608703266273324 $367 23.757621474868486 $240 $368 forward 7 unknown #
coedge $-1 $369 $370 $140 $243 forward $235 $-1 #
edge $-1 $371 -58.085799177242954 $247 -44.878676996471818 $242 $372 forward 7 unknown #
edge $-1 $248 50.863181165486317 $371 66.271050841842708 $141 $373 forward 7 unknown #
coedge $-1 $142 $363 $369 $374 forward $246 $-1 #
loop $-1 $-1 $363 $234 #
vertex $-1 $243 $375 #
vertex $-1 $143 $376 #
straight-curve $-1 7.1375052474932446 51.394767025541455 16.201893601378693 0 -1 0 I I #
coedge $-1 $250 $250 $-1 $377 reversed $146 $-1 #
edge $-1 $378 0 $378 6.2831853071796004 $147 $379 forward 7 unknown #
vertex $-1 $150 $380 #
ellipse-curve $-1 14.828502905063473 29.167705753088462 9.5983325109931315 0 0.85716730853699208 0.51503806187062418 2.5 0 0 1 I I #
coedge $-1 $254 $254 $-1 $381 reversed $153 $-1 #
edge $-1 $382 0 $382 6.2831853071796004 $154 $383 forward 7 unknown #
vertex $-1 $157 $384 #
ellipse-curve $-1 26.36499939141882 29.167705753088462 9.5983325109931315 0 0.85716730853699208 0.51503806187062418 2.5 0 0 1 I I #
face $-1 $-1 $385 $33 $-1 $386 reversed single #
loop $-1 $-1 $164 $158 #
plane-surface $-1 0 0 16.201893601378693 0 0 1 1 0 0 forward_v I I I I #
coedge $-1 $387 $388 $389 $390 reversed $159 $-1 #
coedge $-1 $391 $161 $163 $268 forward $99 $-1 #
coedge $-1 $161 $391 $387 $392 forward $99 $-1 #
coedge $-1 $389 $164 $161 $265 forward $259 $-1 #
edge $-1 $271 -23.757621474868486 $393 3.1608703266273324 $264 $394 forward 7 unknown #
coedge $-1 $395 $396 $162 $267 forward $385 $-1 #
edge $-1 $397 -29.683110035232733 $270 -16.475987854461586 $266 $398 forward 7 unknown #
edge $-1 $271 -15.407869676356386 $397 1.393735185947377e-014 $163 $399 forward 7 unknown #
coedge $-1 $164 $389 $395 $400 forward $259 $-1 #
vertex $-1 $165 $401 #
vertex $-1 $165 $402 #
straight-curve $-1 34.055997048989063 -68.460823817397582 16.201893601378693 0 1 0 I I #
coedge $-1 $273 $273 $-1 $403 reversed $168 $-1 #
edge $-1 $404 0 $404 6.2831853071796004 $169 $405 forward 7 unknown #
vertex $-1 $172 $406 #
ellipse-curve $-1 14.828502905063473 -29.167705753088466 9.5983325109931172 0 -0.85716730853699208 0.51503806187062418 2.5 0 0 1 I I #
coedge $-1 $277 $277 $-1 $407 reversed $175 $-1 #
edge $-1 $408 0 $408 6.2831853071796004 $176 $409 forward 7 unknown #
vertex $-1 $179 $410 #
ellipse-curve $-1 26.36499939141882 -29.167705753088466 9.5983325109931172 0 -0.85716730853699208 0.51503806187062418 2.5 0 0 1 I I #
face $-1 $-1 $195 $27 $-1 $411 reversed single #
loop $-1 $-1 $297 $180 #
plane-surface $-1 0 33.135525420921347 0 0 -1 0 0 0 -1 forward_v I I I I #
coedge $-1 $412 $295 $298 $413 forward $181 $-1 #
coedge $-1 $301 $183 $184 $289 reversed $113 $-1 #
coedge $-1 $295 $412 $183 $287 reversed $181 $-1 #
edge $-1 $302 -16.201893601378693 $414 16.201893601378693 $286 $415 forward 7 unknown #
coedge $-1 $185 $184 $412 $416 forward $73 $-1 #
edge $-1 $293 -60.540177617725149 $414 60.540177617725149 $285 $417 forward 7 unknown #
coedge $-1 $298 $297 $185 $291 reversed $282 $-1 #
edge $-1 $418 -60.540177617725149 $292 60.540177617725149 $290 $419 forward 7 unknown #
vertex $-1 $187 $420 #
vertex $-1 $304 $421 #
straight-curve $-1 60.540177617725149 0 -16.201893601378693 0 -1 0 I I #
coedge $-1 $284 $286 $188 $296 reversed $181 $-1 #
edge $-1 $299 -33.135525420921347 $302 33.135525420921347 $295 $422 forward 7 unknown #
coedge $-1 $290 $189 $194 $305 forward $282 $-1 #
coedge $-1 $189 $290 $284 $413 reversed $282 $-1 #
vertex $-1 $190 $423 #
straight-curve $-1 0 33.135525420921347 16.201893601378693 -1 0 0 I I #
coedge $-1 $191 $285 $193 $304 reversed $113 $-1 #
vertex $-1 $296 $424 #
straight-curve $-1 0 -33.135525420921347 16.201893601378693 1 0 0 I I #
edge $-1 $196 -16.201893601378693 $293 16.201893601378693 $193 $425 forward 7 unknown #
edge $-1 $197 -16.201893601378693 $292 16.201893601378693 $194 $426 forward 7 unknown #
point $-1 60.540177617725149 -33.135525420921347 16.201893601378693 #
point $-1 60.540177617725149 33.135525420921347 16.201893601378693 #
face $-1 $-1 $214 $28 $-1 $427 reversed single #
loop $-1 $-1 $317 $199 #
plane-surface $-1 0 0 16.201893601378693 0 0 1 1 0 0 forward_v I I I I #
coedge $-1 $323 $322 $203 $316 forward $200 $-1 #
coedge $-1 $205 $202 $323 $428 reversed $121 $-1 #
coedge $-1 $202 $205 $326 $429 reversed $121 $-1 #
edge $-1 $328 -16.201893601378693 $324 16.201893601378693 $202 $430 forward 7 unknown #
coedge $-1 $204 $203 $330 $431 reversed $77 $-1 #
edge $-1 $432 -33.804617908910402 $320 -19.666501508719083 $311 $433 forward 7 unknown #
coedge $-1 $327 $326 $204 $318 forward $309 $-1 #
edge $-1 $319 19.666501508719083 $434 33.804617908910402 $317 $435 forward 7 unknown #
vertex $-1 $318 $436 #
vertex $-1 $316 $437 #
straight-curve $-1 -46.402061217533827 -1.2317382181639616 0 0 0 -1 I I #
coedge $-1 $311 $208 $213 $332 forward $200 $-1 #
coedge $-1 $208 $311 $312 $428 forward $200 $-1 #
vertex $-1 $209 $438 #
straight-curve $-1 -26.735559708814744 -6.8805212279259322 -16.201893601378693 -1 0 0 I I #
coedge $-1 $317 $210 $313 $429 forward $309 $-1 #
coedge $-1 $210 $317 $212 $331 forward $309 $-1 #
vertex $-1 $211 $439 #
straight-curve $-1 -26.735559708814744 -6.8805212279259322 16.201893601378693 1 0 0 I I #
coedge $-1 $213 $212 $315 $431 forward $214 $-1 #
edge $-1 $434 1.2317382181639616 $216 6.8805212279259322 $212 $440 forward 7 unknown #
edge $-1 $215 -6.8805212279259322 $432 -1.2317382181639616 $213 $441 forward 7 unknown #
point $-1 -60.540177617725149 -6.8805212279259322 -16.201893601378693 #
point $-1 -60.540177617725149 -6.8805212279259322 16.201893601378693 #
face $-1 $-1 $442 $29 $-1 $443 reversed single #
loop $-1 $-1 $229 $218 #
plane-surface $-1 0 0 16.201893601378693 0 0 1 1 0 0 forward_v I I I I #
coedge $-1 $224 $221 $444 $445 reversed $129 $-1 #
coedge $-1 $221 $224 $446 $447 reversed $129 $-1 #
coedge $-1 $448 $449 $221 $341 forward $442 $-1 #
edge $-1 $450 -16.201893601378693 $451 16.201893601378693 $340 $452 forward 7 unknown #
coedge $-1 $444 $227 $222 $343 forward $219 $-1 #
edge $-1 $232 -4.8524563664034588 $347 0.79632664335851189 $342 $453 forward 7 unknown #
coedge $-1 $229 $446 $223 $345 forward $336 $-1 #
edge $-1 $346 -0.79632664335851189 $231 4.8524563664034588 $344 $454 forward 7 unknown #
vertex $-1 $345 $455 #
vertex $-1 $343 $456 #
straight-curve $-1 46.40206121753382 -1.2317382181639616 0 0 0 -1 I I #
coedge $-1 $449 $448 $226 $350 forward $442 $-1 #
edge $-1 $355 -16.201893601378693 $352 16.201893601378693 $349 $457 forward 7 unknown #
coedge $-1 $227 $444 $449 $458 forward $219 $-1 #
vertex $-1 $350 $459 #
straight-curve $-1 26.735559708814741 -6.8805212279259322 -16.201893601378693 -1 0 0 I I #
coedge $-1 $446 $229 $448 $460 forward $336 $-1 #
vertex $-1 $460 $461 #
straight-curve $-1 26.735559708814741 -6.8805212279259322 16.201893601378693 1 0 0 I I #
point $-1 46.40206121753382 -6.8805212279259322 16.201893601378693 #
point $-1 46.40206121753382 -6.8805212279259322 -16.201893601378693 #
plane-surface $-1 0 0 16.201893601378693 0 0 1 1 0 0 forward_v I I I I #
coedge $-1 $370 $369 $362 $462 forward $235 $-1 #
coedge $-1 $362 $237 $239 $366 reversed $137 $-1 #
coedge $-1 $237 $361 $360 $462 reversed $137 $-1 #
coedge $-1 $245 $240 $237 $364 forward $246 $-1 #
edge $-1 $367 -26.194880940285863 $463 -18.259241604620108 $363 $464 forward 7 unknown #
coedge $-1 $239 $238 $370 $465 reversed $85 $-1 #
edge $-1 $466 -66.271050841842708 $367 -50.863181165486317 $361 $467 forward 7 unknown #
vertex $-1 $241 $468 #
straight-curve $-1 10.298375574120577 25.199886085255592 16.201893601378693 1 0 0 I I #
coedge $-1 $360 $242 $245 $374 reversed $235 $-1 #
coedge $-1 $242 $360 $365 $465 forward $235 $-1 #
vertex $-1 $243 $469 #
straight-curve $-1 7.1375052474932446 33.135525420921347 61.08057059785051 0 0 1 I I #
straight-curve $-1 7.1375052474932446 -0.99658816279091411 59.800149704628019 0 0.51503806187062418 -0.85716730853699208 I I #
edge $-1 $463 -34.055997048989063 $247 -7.1375052474932446 $369 $470 forward 7 unknown #
point $-1 7.1375052474932446 33.135525420921347 16.201893601378693 #
point $-1 7.1375052474932446 25.199886085255592 16.201893601378693 #
edge $-1 $471 1 $471 0 $250 $-1 forward 7 unknown #
vertex $-1 $251 $472 #
ellipse-curve $-1 14.828502905063473 22.338645670379506 5.495019383711548 0 0.85716730853699208 0.51503806187062418 2.5 0 0 1 I I #
point $-1 17.328502905063473 29.167705753088466 9.598332510993135 #
edge $-1 $473 1 $473 0 $254 $-1 forward 7 unknown #
vertex $-1 $255 $474 #
ellipse-curve $-1 26.36499939141882 22.338645670379506 5.495019383711548 0 0.85716730853699208 0.51503806187062418 2.5 0 0 1 I I #
point $-1 28.86499939141882 29.167705753088466 9.598332510993135 #
loop $-1 $-1 $266 $258 #
plane-surface $-1 0 -33.135525420921347 0 0 1 0 0 0 1 forward_v I I I I #
coedge $-1 $388 $261 $263 $392 reversed $159 $-1 #
coedge $-1 $261 $387 $475 $476 reversed $159 $-1 #
coedge $-1 $269 $264 $261 $390 forward $259 $-1 #
edge $-1 $393 -43.260937732141997 $477 -35.325298396476235 $389 $478 forward 7 unknown #
coedge $-1 $263 $262 $396 $479 reversed $99 $-1 #
edge $-1 $480 -1.393735185947377e-014 $393 15.407869676356386 $387 $481 forward 7 unknown #
vertex $-1 $265 $482 #
straight-curve $-1 10.298375574120577 -25.199886085255585 16.201893601378693 -1 0 0 I I #
coedge $-1 $475 $266 $269 $400 reversed $385 $-1 #
coedge $-1 $266 $475 $391 $479 forward $385 $-1 #
vertex $-1 $267 $483 #
straight-curve $-1 34.055997048989063 -33.135525420921347 32.677881455840279 0 0 1 I I #
straight-curve $-1 34.055997048989063 -33.13552542092134 2.994771420607556 0 -0.51503806187062418 -0.85716730853699208 I I #
edge $-1 $477 7.1375052474932446 $270 34.055997048989063 $395 $484 forward 7 unknown #
point $-1 34.055997048989063 -33.135525420921347 16.201893601378693 #
point $-1 34.055997048989063 -25.199886085255585 16.201893601378693 #
edge $-1 $485 1 $485 0 $273 $-1 forward 7 unknown #
vertex $-1 $274 $486 #
ellipse-curve $-1 14.828502905063473 -22.338645670379513 5.4950193837115338 0 -0.85716730853699208 0.51503806187062418 2.5 0 0 1 I I #
point $-1 17.328502905063473 -29.167705753088473 9.5983325109931208 #
edge $-1 $487 1 $487 0 $277 $-1 forward 7 unknown #
vertex $-1 $278 $488 #
ellipse-curve $-1 26.36499939141882 -22.338645670379513 5.4950193837115338 0 -0.85716730853699208 0.51503806187062418 2.5 0 0 1 I I #
point $-1 28.86499939141882 -29.167705753088473 9.5983325109931208 #
plane-surface $-1 60.540177617725149 0 0 -1 0 0 0 0 1 forward_v I I I I #
coedge $-1 $286 $284 $288 $416 reversed $181 $-1 #
edge $-1 $299 -16.201893601378693 $418 16.201893601378693 $298 $489 forward 7 unknown #
vertex $-1 $416 $490 #
straight-curve $-1 -60.540177617725149 -33.135525420921347 0 0 0 -1 I I #
edge $-1 $414 -33.135525420921347 $418 33.135525420921347 $412 $491 forward 7 unknown #
straight-curve $-1 0 -33.135525420921347 -16.201893601378693 -1 0 0 I I #
vertex $-1 $291 $492 #
straight-curve $-1 0 33.135525420921347 -16.201893601378693 1 0 0 I I #
point $-1 60.540177617725149 33.135525420921347 -16.201893601378693 #
point $-1 60.540177617725149 -33.135525420921347 -16.201893601378693 #
straight-curve $-1 -60.540177617725149 0 16.201893601378693 0 -1 0 I I #
point $-1 -60.540177617725149 33.135525420921347 16.201893601378693 #
point $-1 -60.540177617725149 -33.135525420921347 16.201893601378693 #
straight-curve $-1 60.540177617725149 -33.135525420921347 0 0 0 -1 I I #
straight-curve $-1 60.540177617725149 33.135525420921347 0 0 0 -1 I I #
plane-surface $-1 -60.540177617725149 0 0 1 0 0 0 0 -1 forward_v I I I I #
edge $-1 $320 -0.79632664335851189 $324 4.8524563664034588 $323 $493 forward 7 unknown #
edge $-1 $328 -4.8524563664034588 $319 0.79632664335851189 $326 $494 forward 7 unknown #
straight-curve $-1 -46.402061217533827 -6.8805212279259322 0 0 0 -1 I I #
edge $-1 $434 -16.201893601378693 $432 16.201893601378693 $330 $495 forward 7 unknown #
vertex $-1 $431 $496 #
straight-curve $-1 -26.735559708814744 -1.2317382181639616 -16.201893601378693 1 0 0 I I #
vertex $-1 $331 $497 #
straight-curve $-1 -26.735559708814744 -1.2317382181639616 16.201893601378693 -1 0 0 I I #
point $-1 -46.402061217533827 -1.2317382181639616 16.201893601378693 #
point $-1 -46.402061217533827 -1.2317382181639616 -16.201893601378693 #
point $-1 -46.402061217533827 -6.8805212279259322 -16.201893601378693 #
point $-1 -46.402061217533827 -6.8805212279259322 16.201893601378693 #
straight-curve $-1 -60.540177617725149 0 16.201893601378693 0 -1 0 I I #
straight-curve $-1 -60.540177617725149 0 -16.201893601378693 0 1 0 I I #
loop $-1 $-1 $349 $335 #
plane-surface $-1 60.540177617725149 0 0 -1 0 0 0 0 1 forward_v I I I I #
coedge $-1 $351 $342 $338 $445 forward $219 $-1 #
edge $-1 $347 19.66650150871908 $450 33.804617908910402 $444 $498 forward 7 unknown #
coedge $-1 $344 $354 $339 $447 forward $336 $-1 #
edge $-1 $451 -33.804617908910402 $346 -19.66650150871908 $446 $499 forward 7 unknown #
coedge $-1 $349 $340 $354 $460 reversed $442 $-1 #
coedge $-1 $340 $349 $351 $458 reversed $442 $-1 #
vertex $-1 $458 $500 #
vertex $-1 $341 $501 #
straight-curve $-1 60.540177617725149 -1.2317382181639616 0 0 0 1 I I #
straight-curve $-1 46.40206121753382 -2.0280648615224734 -16.201893601378693 0 1 0 I I #
straight-curve $-1 46.40206121753382 -2.0280648615224734 16.201893601378693 0 -1 0 I I #
point $-1 46.40206121753382 -1.2317382181639616 16.201893601378693 #
point $-1 46.40206121753382 -1.2317382181639616 -16.201893601378693 #
straight-curve $-1 60.540177617725149 -6.8805212279259322 0 0 0 -1 I I #
edge $-1 $450 1.2317382181639616 $352 6.8805212279259322 $449 $502 forward 7 unknown #
point $-1 60.540177617725142 -6.8805212279259322 -16.201893601378693 #
edge $-1 $355 -6.8805212279259322 $451 -1.2317382181639616 $448 $503 forward 7 unknown #
point $-1 60.540177617725142 -6.8805212279259322 16.201893601378693 #
edge $-1 $463 44.878676996471818 $466 58.085799177242954 $360 $504 forward 7 unknown #
vertex $-1 $374 $505 #
straight-curve $-1 34.055997048989063 51.394767025541455 16.201893601378693 0 1 0 I I #
edge $-1 $466 -23.757621474868486 $371 3.1608703266273324 $370 $506 forward 7 unknown #
vertex $-1 $465 $507 #
straight-curve $-1 34.055997048989063 -0.99658816279091411 59.800149704628019 0 -0.51503806187062418 0.85716730853699208 I I #
point $-1 34.055997048989063 25.199886085255592 16.201893601378693 #
point $-1 7.1375052474932446 33.135525420921347 2.994771420607556 #
straight-curve $-1 0 33.135525420921347 16.201893601378693 -1 0 0 I I #
vertex $-1 $377 $508 #
point $-1 17.328502905063473 22.338645670379506 5.495019383711548 #
vertex $-1 $381 $509 #
point $-1 28.86499939141882 22.338645670379506 5.495019383711548 #
coedge $-1 $396 $395 $388 $476 forward $385 $-1 #
edge $-1 $477 16.475987854461586 $480 29.683110035232733 $475 $510 forward 7 unknown #
vertex $-1 $400 $511 #
straight-curve $-1 7.1375052474932446 -68.460823817397582 16.201893601378693 0 -1 0 I I #
edge $-1 $480 -3.1608703266273324 $397 23.757621474868486 $396 $512 forward 7 unknown #
vertex $-1 $479 $513 #
straight-curve $-1 7.1375052474932446 -33.13552542092134 2.994771420607556 0 0.51503806187062418 0.85716730853699208 I I #
point $-1 7.1375052474932446 -25.199886085255585 16.201893601378693 #
point $-1 34.055997048989063 -33.135525420921347 2.994771420607544 #
straight-curve $-1 0 -33.135525420921347 16.201893601378693 1 0 0 I I #
vertex $-1 $403 $514 #
point $-1 17.328502905063473 -22.338645670379513 5.4950193837115338 #
vertex $-1 $407 $515 #
point $-1 28.86499939141882 -22.338645670379513 5.4950193837115338 #
straight-curve $-1 -60.540177617725149 33.135525420921347 0 0 0 -1 I I #
point $-1 -60.540177617725149 -33.135525420921347 -16.201893601378693 #
straight-curve $-1 -60.540177617725149 0 -16.201893601378693 0 1 0 I I #
point $-1 -60.540177617725149 33.135525420921347 -16.201893601378693 #
straight-curve $-1 -46.402061217533827 -2.0280648615224734 -16.201893601378693 0 -1 0 I I #
straight-curve $-1 -46.402061217533827 -2.0280648615224734 16.201893601378693 0 1 0 I I #
straight-curve $-1 -60.540177617725149 -1.2317382181639616 0 0 0 -1 I I #
point $-1 -60.540177617725149 -1.2317382181639616 -16.201893601378693 #
point $-1 -60.540177617725149 -1.2317382181639616 16.201893601378693 #
straight-curve $-1 26.735559708814741 -1.2317382181639616 -16.201893601378693 1 0 0 I I #
straight-curve $-1 26.735559708814741 -1.2317382181639616 16.201893601378693 -1 0 0 I I #
point $-1 60.540177617725142 -1.2317382181639616 -16.201893601378693 #
point $-1 60.540177617725142 -1.2317382181639616 16.201893601378693 #
straight-curve $-1 60.540177617725149 0 -16.201893601378693 0 -1 0 I I #
straight-curve $-1 60.540177617725149 0 16.201893601378693 0 1 0 I I #
straight-curve $-1 34.055997048989063 33.135525420921347 61.08057059785051 0 0 -1 I I #
point $-1 34.055997048989063 33.135525420921347 16.201893601378693 #
straight-curve $-1 10.298375574120577 33.135525420921347 2.9947714206075524 -1 0 0 I I #
point $-1 34.055997048989063 33.135525420921347 2.994771420607556 #
point $-1 14.828502905063473 20.195727399037025 4.207424229034987 #
point $-1 26.36499939141882 20.195727399037025 4.207424229034987 #
straight-curve $-1 7.1375052474932446 -33.135525420921347 32.677881455840279 0 0 -1 I I #
point $-1 7.1375052474932446 -33.135525420921347 16.201893601378693 #
straight-curve $-1 10.298375574120577 -33.135525420921347 2.9947714206075364 1 0 0 I I #
point $-1 7.1375052474932446 -33.135525420921347 2.994771420607544 #
point $-1 14.828502905063473 -20.195727399037033 4.2074242290349728 #
point $-1 26.36499939141882 -20.195727399037033 4.2074242290349728 #
End-of-ACIS-data 