500 0 7 0           
7 Unknown 11 ACIS 5.0 NT 24 Thu Mar 25 22:12:00 1999 
-1 9.9999999999999995e-007 1e-010 
body $-1 $7 $-1 $8 #
body $-1 $9 $-1 $10 #
body $-1 $11 $-1 $12 #
body $-1 $13 $-1 $14 #
body $-1 $15 $-1 $16 #
body $-1 $17 $-1 $18 #
body $-1 $19 $-1 $20 #
lump $-1 $-1 $21 $0 #
transform $-1 1 0 0 0 1 0 0 0 1 70.238959929197051 39.016952328356759 12.826285756870037 1 rotate no_reflect no_shear #
lump $-1 $-1 $22 $1 #
transform $-1 1 0 0 0 1 0 0 0 1 70.238959929197051 39.016952328356759 12.826285756870037 1 rotate no_reflect no_shear #
lump $-1 $-1 $23 $2 #
transform $-1 1 0 0 0 1 0 0 0 1 70.238959929197051 39.016952328356759 12.826285756870037 1 rotate no_reflect no_shear #
lump $-1 $-1 $24 $3 #
transform $-1 1 0 0 0 1 0 0 0 1 70.238959929197051 39.016952328356759 12.826285756870037 1 rotate no_reflect no_shear #
lump $-1 $-1 $25 $4 #
transform $-1 1 0 0 0 1 0 0 0 1 70.238959929197051 39.016952328356759 12.826285756870037 1 rotate no_reflect no_shear #
lump $-1 $-1 $26 $5 #
transform $-1 1 0 0 0 1 0 0 0 1 70.238959929197051 39.016952328356759 12.826285756870037 1 rotate no_reflect no_shear #
lump $-1 $-1 $27 $6 #
transform $-1 1 0 0 0 1 0 0 0 1 70.238959929197051 39.016952328356759 12.826285756870037 1 rotate no_reflect no_shear #
shell $-1 $-1 $-1 $28 $-1 $7 #
shell $-1 $-1 $-1 $29 $-1 $9 #
shell $-1 $-1 $-1 $30 $-1 $11 #
shell $-1 $-1 $-1 $31 $-1 $13 #
shell $-1 $-1 $-1 $32 $-1 $15 #
shell $-1 $-1 $-1 $33 $-1 $17 #
shell $-1 $-1 $-1 $34 $-1 $19 #
face $-1 $35 $36 $21 $-1 $37 forward single #
face $-1 $38 $39 $22 $-1 $40 forward single #
face $-1 $41 $42 $23 $-1 $43 forward single #
face $-1 $44 $45 $24 $-1 $46 reversed single #
face $-1 $47 $48 $25 $-1 $49 forward single #
face $-1 $50 $51 $26 $-1 $52 reversed single #
face $-1 $53 $54 $27 $-1 $55 forward single #
face $-1 $56 $57 $21 $-1 $58 reversed single #
loop $-1 $-1 $59 $28 #
plane-surface $-1 0 0 12.826285756870037 0 0 1 1 0 0 forward_v I I I I #
face $-1 $60 $61 $22 $-1 $62 reversed single #
loop $-1 $-1 $63 $29 #
plane-surface $-1 -62.591030164738548 0 -4.3793314863390584 0 0 1 1 0 0 forward_v I I I I #
face $-1 $64 $65 $23 $-1 $66 reversed single #
loop $-1 $-1 $67 $30 #
plane-surface $-1 62.591030164738555 0 -4.3793314863390584 0 0 1 1 0 0 forward_v I I I I #
face $-1 $68 $69 $24 $-1 $70 reversed single #
loop $-1 $-1 $71 $31 #
plane-surface $-1 -14.086049670768769 119.23960178766094 148.80167591839989 -1 0 0 0 0.85716730853699208 0.51503806187062418 forward_v I I I I #
face $-1 $72 $73 $25 $-1 $74 forward single #
loop $-1 $75 $76 $32 #
cone-surface $-1 -22.74444645829665 37.607704858508932 10.936668002343865 0 -0.85716730853699208 -0.51503806187062418 0.25 0 0 1 I I 0 1 0.25 forward I I I I #
face $-1 $77 $78 $26 $-1 $79 reversed single #
loop $-1 $-1 $80 $33 #
plane-surface $-1 -31.402843245824531 -159.43003280225173 81.913563889172536 1 0 0 0 0.85716730853699208 -0.51503806187062418 forward_v I I I I #
face $-1 $81 $82 $27 $-1 $83 forward single #
loop $-1 $84 $85 $34 #
cone-surface $-1 -22.74444645829665 -37.607704858508939 10.936668002343879 0 0.85716730853699208 -0.51503806187062418 0.25 0 0 1 I I 0 1 0.25 forward I I I I #
face $-1 $86 $87 $21 $-1 $88 reversed single #
loop $-1 $-1 $89 $35 #
plane-surface $-1 0 0 -12.826285756870037 0 0 1 1 0 0 forward_v I I I I #
coedge $-1 $90 $91 $92 $93 forward $36 $-1 #
face $-1 $94 $95 $22 $-1 $96 reversed single #
loop $-1 $-1 $97 $38 #
plane-surface $-1 -62.591030164738548 0 -10.513260838043665 0 0 1 1 0 0 forward_v I I I I #
coedge $-1 $98 $99 $100 $101 forward $39 $-1 #
face $-1 $102 $103 $23 $-1 $104 reversed single #
loop $-1 $-1 $105 $41 #
plane-surface $-1 62.591030164738555 0 -10.513260838043665 0 0 1 1 0 0 forward_v I I I I #
coedge $-1 $106 $107 $108 $109 reversed $42 $-1 #
face $-1 $110 $111 $24 $-1 $112 reversed single #
loop $-1 $-1 $113 $44 #
plane-surface $-1 -22.74444645829665 -1.1734786862340059 76.450200338915721 0 0.85716730853699208 0.51503806187062418 1 0 0 forward_v I I I I #
coedge $-1 $114 $115 $116 $117 reversed $45 $-1 #
face $-1 $-1 $118 $25 $-1 $119 forward single #
loop $-1 $120 $121 $47 #
cone-surface $-1 -22.74444645829665 37.071975290673315 10.614769213674725 0 -0.85716730853699208 -0.51503806187062418 0.125 0 0 1 I I -0.70710678118654746 0.70710678118654746 0.125 forward I I I I #
loop $-1 $-1 $122 $32 #
coedge $-1 $76 $76 $123 $124 reversed $48 $-1 #
face $-1 $125 $126 $26 $-1 $127 reversed single #
loop $-1 $-1 $128 $50 #
plane-surface $-1 -22.74444645829665 -39.01695232835678 9.5620883096883631 0 -0.85716730853699208 0.51503806187062418 1 0 0 forward_v I I I I #
coedge $-1 $129 $130 $131 $132 reversed $51 $-1 #
face $-1 $-1 $133 $27 $-1 $134 forward single #
loop $-1 $135 $136 $53 #
cone-surface $-1 -22.74444645829665 -37.071975290673322 10.614769213674739 0 0.85716730853699208 -0.51503806187062418 0.125 0 0 1 I I -0.70710678118654746 0.70710678118654746 0.125 forward I I I I #
loop $-1 $-1 $137 $34 #
coedge $-1 $85 $85 $138 $139 reversed $54 $-1 #
face $-1 $140 $141 $21 $-1 $142 reversed single #
loop $-1 $-1 $143 $56 #
plane-surface $-1 0 -39.016952328356759 0 0 1 0 0 0 1 forward_v I I I I #
coedge $-1 $144 $145 $146 $147 forward $57 $-1 #
coedge $-1 $148 $59 $149 $150 forward $36 $-1 #
coedge $-1 $59 $148 $151 $152 forward $36 $-1 #
coedge $-1 $153 $154 $59 $93 reversed $155 $-1 #
edge $-1 $156 -39.016952328356759 $157 39.016952328356759 $92 $158 forward 7 unknown #
face $-1 $159 $160 $22 $-1 $161 reversed single #
loop $-1 $-1 $162 $60 #
plane-surface $-1 -54.943100400280045 0 -7.4462961621913619 -1 0 0 0 0 1 forward_v I I I I #
coedge $-1 $163 $164 $165 $166 forward $61 $-1 #
coedge $-1 $167 $63 $168 $169 reversed $39 $-1 #
coedge $-1 $63 $167 $170 $171 reversed $39 $-1 #
coedge $-1 $162 $172 $63 $101 reversed $95 $-1 #
edge $-1 $173 -39.016952328356759 $174 39.016952328356759 $100 $175 forward 7 unknown #
face $-1 $176 $177 $23 $-1 $178 reversed single #
loop $-1 $-1 $179 $64 #
plane-surface $-1 54.943100400280052 0 -7.4462961621913619 1 0 0 0 0 -1 forward_v I I I I #
coedge $-1 $180 $181 $182 $183 reversed $65 $-1 #
coedge $-1 $184 $67 $185 $186 reversed $42 $-1 #
coedge $-1 $67 $184 $187 $188 reversed $42 $-1 #
coedge $-1 $189 $190 $67 $109 forward $191 $-1 #
edge $-1 $192 -39.016952328356759 $193 39.016952328356759 $108 $194 forward 7 unknown #
face $-1 $195 $196 $24 $-1 $197 reversed single #
loop $-1 $-1 $198 $68 #
plane-surface $-1 -31.402843245824531 119.23960178766094 148.80167591839989 1 0 0 0 -0.85716730853699208 -0.51503806187062418 forward_v I I I I #
coedge $-1 $199 $200 $201 $202 reversed $69 $-1 #
coedge $-1 $115 $71 $203 $204 reversed $45 $-1 #
coedge $-1 $71 $114 $199 $205 reversed $45 $-1 #
coedge $-1 $201 $206 $71 $117 forward $196 $-1 #
edge $-1 $207 61.574552202329912 $208 64.838749649511527 $116 $209 forward 7 unknown #
loop $-1 $-1 $123 $72 #
plane-surface $-1 -22.74444645829665 -1.1734786862340059 76.450200338915721 0 0.85716730853699208 0.51503806187062418 1 0 0 forward_v I I I I #
loop $-1 $-1 $210 $47 #
coedge $-1 $121 $121 $122 $211 reversed $73 $-1 #
coedge $-1 $122 $122 $121 $211 forward $75 $-1 #
coedge $-1 $123 $123 $76 $124 forward $118 $-1 #
edge $-1 $212 -1.0483017098706441e-016 $212 6.2831853071796004 $123 $213 forward 7 unknown #
face $-1 $214 $215 $26 $-1 $216 forward single #
loop $-1 $-1 $217 $77 #
plane-surface $-1 -14.086049670768769 -159.43003280225173 81.913563889172536 -1 0 0 0 -0.85716730853699208 0.51503806187062418 forward_v I I I I #
coedge $-1 $218 $219 $220 $221 reversed $78 $-1 #
coedge $-1 $130 $80 $222 $223 reversed $51 $-1 #
coedge $-1 $80 $129 $218 $224 reversed $51 $-1 #
coedge $-1 $220 $225 $80 $132 forward $226 $-1 #
edge $-1 $227 28.130496187716233 $228 31.39469363489787 $131 $229 forward 7 unknown #
loop $-1 $-1 $138 $81 #
plane-surface $-1 -22.74444645829665 -39.01695232835678 9.5620883096883631 0 -0.85716730853699208 0.51503806187062418 1 0 0 forward_v I I I I #
loop $-1 $-1 $230 $53 #
coedge $-1 $136 $136 $137 $231 reversed $82 $-1 #
coedge $-1 $137 $137 $136 $231 forward $84 $-1 #
coedge $-1 $138 $138 $85 $139 forward $133 $-1 #
edge $-1 $232 -1.3357256028669092e-014 $232 6.2831853071795871 $138 $233 forward 7 unknown #
face $-1 $234 $235 $21 $-1 $236 reversed single #
loop $-1 $-1 $237 $86 #
plane-surface $-1 -70.238959929197051 0 0 1 0 0 0 0 -1 forward_v I I I I #
coedge $-1 $238 $151 $239 $240 forward $87 $-1 #
coedge $-1 $241 $89 $238 $242 forward $57 $-1 #
coedge $-1 $89 $241 $243 $244 forward $57 $-1 #
coedge $-1 $154 $153 $89 $147 reversed $155 $-1 #
edge $-1 $245 -39.016952328356759 $246 39.016952328356759 $146 $247 forward 7 unknown #
coedge $-1 $91 $90 $248 $249 forward $36 $-1 #
coedge $-1 $250 $251 $90 $150 reversed $235 $-1 #
edge $-1 $157 -70.238959929197051 $252 70.238959929197051 $149 $253 forward 7 unknown #
coedge $-1 $143 $254 $91 $152 reversed $87 $-1 #
edge $-1 $255 -70.238959929197051 $156 70.238959929197051 $151 $256 forward 7 unknown #
coedge $-1 $146 $92 $254 $257 forward $155 $-1 #
coedge $-1 $92 $146 $250 $258 reversed $155 $-1 #
loop $-1 $-1 $153 $234 #
vertex $-1 $93 $259 #
vertex $-1 $93 $260 #
straight-curve $-1 70.238959929197051 0 12.826285756870037 0 1 0 I I #
face $-1 $261 $262 $22 $-1 $263 reversed single #
loop $-1 $-1 $264 $94 #
plane-surface $-1 0 -39.016952328356759 0 0 1 0 0 0 1 forward_v I I I I #
coedge $-1 $165 $100 $265 $266 reversed $95 $-1 #
coedge $-1 $267 $97 $264 $268 reversed $61 $-1 #
coedge $-1 $97 $267 $269 $270 reversed $61 $-1 #
coedge $-1 $172 $162 $97 $166 reversed $95 $-1 #
edge $-1 $271 -39.016952328356759 $272 39.016952328356759 $165 $273 forward 7 unknown #
coedge $-1 $99 $98 $274 $275 reversed $39 $-1 #
coedge $-1 $276 $277 $98 $169 forward $278 $-1 #
edge $-1 $279 -38.943444846827774 $174 -23.647585317910771 $168 $280 forward 7 unknown #
coedge $-1 $281 $265 $99 $171 forward $160 $-1 #
edge $-1 $173 23.647585317910771 $282 38.943444846827774 $170 $283 forward 7 unknown #
coedge $-1 $100 $165 $276 $284 reversed $95 $-1 #
vertex $-1 $171 $285 #
vertex $-1 $169 $286 #
straight-curve $-1 -54.943100400280045 0 -4.3793314863390584 0 1 0 I I #
face $-1 $287 $288 $23 $-1 $289 reversed single #
loop $-1 $-1 $187 $102 #
plane-surface $-1 0 -39.016952328356759 0 0 1 0 0 0 1 forward_v I I I I #
coedge $-1 $290 $291 $292 $293 reversed $103 $-1 #
coedge $-1 $294 $105 $295 $296 reversed $65 $-1 #
coedge $-1 $105 $294 $297 $298 reversed $65 $-1 #
coedge $-1 $190 $189 $105 $183 forward $191 $-1 #
edge $-1 $299 -39.016952328356759 $300 39.016952328356759 $182 $301 forward 7 unknown #
coedge $-1 $107 $106 $291 $302 forward $42 $-1 #
coedge $-1 $303 $292 $106 $186 forward $288 $-1 #
edge $-1 $304 23.647585317910774 $192 38.943444846827774 $185 $305 forward 7 unknown #
coedge $-1 $306 $307 $107 $188 forward $177 $-1 #
edge $-1 $193 -38.943444846827774 $308 -23.647585317910774 $187 $309 forward 7 unknown #
coedge $-1 $182 $108 $307 $310 forward $191 $-1 #
coedge $-1 $108 $182 $303 $311 reversed $191 $-1 #
loop $-1 $-1 $108 $287 #
vertex $-1 $311 $312 #
vertex $-1 $310 $313 #
straight-curve $-1 70.238959929197051 0 -4.3793314863390584 0 -1 0 I I #
face $-1 $-1 $314 $24 $-1 $315 forward single #
loop $-1 $-1 $116 $110 #
plane-surface $-1 0 39.016952328356759 0 0 -1 0 0 0 -1 forward_v I I I I #
coedge $-1 $316 $317 $318 $319 reversed $111 $-1 #
coedge $-1 $320 $113 $115 $205 forward $69 $-1 #
coedge $-1 $113 $320 $316 $321 forward $69 $-1 #
coedge $-1 $318 $116 $113 $202 forward $196 $-1 #
edge $-1 $208 2.7138264416204443 $322 20.030620016676206 $201 $323 forward 7 unknown #
coedge $-1 $324 $325 $114 $204 forward $314 $-1 #
edge $-1 $326 -22.564176196632324 $207 -20.602848565473714 $203 $327 forward 7 unknown #
edge $-1 $208 -78.033904656713446 $326 -74.225782934534223 $115 $328 forward 7 unknown #
coedge $-1 $116 $318 $324 $329 reversed $196 $-1 #
vertex $-1 $329 $330 #
vertex $-1 $117 $331 #
straight-curve $-1 -14.086049670768769 39.016952328356759 74.400837959199947 0 0 -1 I I #
coedge $-1 $210 $210 $-1 $332 reversed $120 $-1 #
edge $-1 $333 0 $333 6.2831853071796004 $121 $334 forward 7 unknown #
vertex $-1 $124 $335 #
ellipse-curve $-1 -22.74444645829665 38.036288512777467 11.194187033279199 0 0.85716730853699208 0.51503806187062418 0.25 0 0 1 I I #
face $-1 $-1 $226 $26 $-1 $336 reversed single #
loop $-1 $-1 $337 $125 #
plane-surface $-1 0 0 12.826285756870037 0 0 1 1 0 0 forward_v I I I I #
coedge $-1 $338 $339 $340 $341 reversed $126 $-1 #
coedge $-1 $342 $128 $130 $224 forward $78 $-1 #
coedge $-1 $128 $342 $338 $343 forward $78 $-1 #
coedge $-1 $340 $131 $128 $221 forward $226 $-1 #
edge $-1 $228 -20.030620016676206 $344 -2.7138264416204443 $220 $345 forward 7 unknown #
coedge $-1 $346 $347 $129 $223 forward $215 $-1 #
edge $-1 $348 -42.659391703927731 $227 -40.698064072769107 $222 $349 forward 7 unknown #
edge $-1 $228 4.1431396825663817e-014 $348 3.8081217221792882 $130 $350 forward 7 unknown #
coedge $-1 $131 $340 $346 $351 reversed $226 $-1 #
loop $-1 $-1 $340 $214 #
vertex $-1 $351 $352 #
vertex $-1 $132 $353 #
straight-curve $-1 -31.402843245824531 -39.016952328356759 40.956781944586268 0 0 -1 I I #
coedge $-1 $230 $230 $-1 $354 reversed $135 $-1 #
edge $-1 $355 0 $355 6.2831853071796004 $136 $356 forward 7 unknown #
vertex $-1 $139 $357 #
ellipse-curve $-1 -22.74444645829665 -38.036288512777453 11.194187033279205 0 -0.85716730853699208 0.51503806187062418 0.25 0 0 1 I I #
face $-1 $-1 $155 $21 $-1 $358 reversed single #
loop $-1 $-1 $250 $140 #
plane-surface $-1 0 39.016952328356759 0 0 -1 0 0 0 -1 forward_v I I I I #
coedge $-1 $359 $248 $251 $360 forward $141 $-1 #
coedge $-1 $254 $143 $144 $242 reversed $87 $-1 #
coedge $-1 $248 $359 $143 $240 reversed $141 $-1 #
edge $-1 $255 -12.826285756870037 $361 12.826285756870037 $239 $362 forward 7 unknown #
coedge $-1 $145 $144 $359 $363 forward $57 $-1 #
edge $-1 $246 -70.238959929197051 $361 70.238959929197051 $238 $364 forward 7 unknown #
coedge $-1 $251 $250 $145 $244 reversed $235 $-1 #
edge $-1 $365 -70.238959929197051 $245 70.238959929197051 $243 $366 forward 7 unknown #
vertex $-1 $147 $367 #
vertex $-1 $257 $368 #
straight-curve $-1 70.238959929197051 0 -12.826285756870037 0 -1 0 I I #
coedge $-1 $237 $239 $148 $249 reversed $141 $-1 #
edge $-1 $252 -39.016952328356759 $255 39.016952328356759 $248 $369 forward 7 unknown #
coedge $-1 $243 $149 $154 $258 forward $235 $-1 #
coedge $-1 $149 $243 $237 $360 reversed $235 $-1 #
vertex $-1 $150 $370 #
straight-curve $-1 0 39.016952328356759 12.826285756870037 -1 0 0 I I #
coedge $-1 $151 $238 $153 $257 reversed $87 $-1 #
vertex $-1 $249 $371 #
straight-curve $-1 0 -39.016952328356759 12.826285756870037 1 0 0 I I #
edge $-1 $156 -12.826285756870037 $246 12.826285756870037 $153 $372 forward 7 unknown #
edge $-1 $157 -12.826285756870037 $245 12.826285756870037 $154 $373 forward 7 unknown #
point $-1 70.238959929197051 -39.016952328356759 12.826285756870037 #
point $-1 70.238959929197051 39.016952328356759 12.826285756870037 #
face $-1 $-1 $278 $22 $-1 $374 reversed single #
loop $-1 $-1 $375 $159 #
plane-surface $-1 -70.238959929197051 0 0 1 0 0 0 0 -1 forward_v I I I I #
coedge $-1 $265 $281 $163 $268 forward $160 $-1 #
coedge $-1 $170 $264 $162 $266 forward $160 $-1 #
edge $-1 $272 -6.790112756947984 $173 -0.65618340524337748 $265 $376 forward 7 unknown #
coedge $-1 $164 $163 $375 $377 reversed $61 $-1 #
edge $-1 $378 -38.943444846827774 $272 -23.647585317910771 $264 $379 forward 7 unknown #
coedge $-1 $277 $276 $164 $270 forward $278 $-1 #
edge $-1 $271 23.647585317910771 $380 38.943444846827774 $269 $381 forward 7 unknown #
vertex $-1 $270 $382 #
vertex $-1 $268 $383 #
straight-curve $-1 -54.943100400280045 0 -10.513260838043665 0 -1 0 I I #
coedge $-1 $384 $385 $167 $275 forward $262 $-1 #
edge $-1 $282 -39.016952328356759 $279 39.016952328356759 $274 $386 forward 7 unknown #
coedge $-1 $269 $168 $172 $284 forward $278 $-1 #
coedge $-1 $168 $269 $384 $387 reversed $278 $-1 #
loop $-1 $-1 $269 $261 #
vertex $-1 $387 $388 #
straight-curve $-1 -31.295515082369274 39.016952328356759 -4.3793314863390584 1 0 0 I I #
coedge $-1 $264 $170 $385 $389 forward $160 $-1 #
vertex $-1 $389 $390 #
straight-curve $-1 -31.295515082369274 -39.016952328356759 -4.3793314863390584 -1 0 0 I I #
edge $-1 $174 0.65618340524337748 $271 6.790112756947984 $276 $391 forward 7 unknown #
point $-1 -54.943100400280045 -39.016952328356759 -4.3793314863390584 #
point $-1 -54.943100400280045 39.016952328356759 -4.3793314863390584 #
face $-1 $-1 $191 $23 $-1 $392 reversed single #
loop $-1 $-1 $185 $176 #
plane-surface $-1 0 39.016952328356759 0 0 -1 0 0 0 -1 forward_v I I I I #
coedge $-1 $393 $179 $294 $394 reversed $103 $-1 #
coedge $-1 $179 $393 $184 $302 reversed $103 $-1 #
coedge $-1 $185 $297 $179 $293 forward $288 $-1 #
edge $-1 $395 -6.790112756947984 $304 -0.65618340524337748 $292 $396 forward 7 unknown #
coedge $-1 $181 $180 $290 $394 forward $65 $-1 #
coedge $-1 $307 $306 $180 $296 forward $177 $-1 #
edge $-1 $397 23.647585317910774 $299 38.943444846827774 $295 $398 forward 7 unknown #
coedge $-1 $292 $303 $181 $298 forward $288 $-1 #
edge $-1 $300 -38.943444846827774 $395 -23.647585317910774 $297 $399 forward 7 unknown #
vertex $-1 $183 $400 #
vertex $-1 $183 $401 #
straight-curve $-1 70.238959929197051 0 -10.513260838043665 0 1 0 I I #
edge $-1 $304 -39.016952328356759 $308 39.016952328356759 $291 $402 forward 7 unknown #
coedge $-1 $297 $185 $190 $311 forward $288 $-1 #
vertex $-1 $186 $403 #
straight-curve $-1 31.295515082369278 39.016952328356759 -4.3793314863390584 1 0 0 I I #
coedge $-1 $295 $187 $393 $404 forward $177 $-1 #
coedge $-1 $187 $295 $189 $310 reversed $177 $-1 #
vertex $-1 $188 $405 #
straight-curve $-1 31.295515082369278 -39.016952328356759 -4.3793314863390584 -1 0 0 I I #
edge $-1 $193 4.3793314863390584 $299 10.513260838043665 $189 $406 forward 7 unknown #
edge $-1 $192 4.3793314863390584 $300 10.513260838043665 $190 $407 forward 7 unknown #
point $-1 70.238959929197051 39.016952328356759 -4.3793314863390584 #
point $-1 70.238959929197051 -39.016952328356759 -4.3793314863390584 #
loop $-1 $-1 $203 $195 #
plane-surface $-1 0 0 12.826285756870037 0 0 1 1 0 0 forward_v I I I I #
coedge $-1 $317 $198 $200 $321 reversed $111 $-1 #
coedge $-1 $198 $316 $408 $409 reversed $111 $-1 #
coedge $-1 $206 $201 $198 $319 forward $196 $-1 #
edge $-1 $322 -64.838749649511527 $410 -61.574552202329912 $318 $411 forward 7 unknown #
coedge $-1 $200 $199 $325 $412 reversed $69 $-1 #
edge $-1 $413 74.225782934534223 $322 78.033904656713446 $316 $414 forward 7 unknown #
vertex $-1 $202 $415 #
straight-curve $-1 -11.372223229148325 39.016952328356766 9.5620883096884057 -1 0 0 I I #
coedge $-1 $408 $203 $206 $329 forward $314 $-1 #
coedge $-1 $203 $408 $320 $412 forward $314 $-1 #
vertex $-1 $204 $416 #
straight-curve $-1 -14.086049670768769 59.619800893830472 12.826285756870035 0 1 0 I I #
straight-curve $-1 -14.086049670768769 -1.1734786862340059 76.450200338915721 0 -0.51503806187062418 0.85716730853699208 I I #
edge $-1 $207 14.086049670768769 $410 31.402843245824531 $206 $417 forward 7 unknown #
point $-1 -14.086049670768769 39.016952328356759 12.826285756870037 #
point $-1 -14.086049670768769 39.016952328356759 9.5620883096884199 #
edge $-1 $418 1 $418 0 $210 $-1 forward 7 unknown #
vertex $-1 $211 $419 #
ellipse-curve $-1 -22.74444645829665 37.179121204240438 10.679148971408553 0 0.85716730853699208 0.51503806187062418 0.25 0 0 1 I I #
point $-1 -22.49444645829665 38.036288512777432 11.194187033279178 #
plane-surface $-1 0 -39.016952328356759 0 0 1 0 0 0 1 forward_v I I I I #
coedge $-1 $347 $346 $339 $420 forward $215 $-1 #
coedge $-1 $339 $217 $219 $343 reversed $126 $-1 #
coedge $-1 $217 $338 $337 $420 reversed $126 $-1 #
coedge $-1 $225 $220 $217 $341 forward $226 $-1 #
edge $-1 $344 -31.39469363489787 $421 -28.130496187716233 $340 $422 forward 7 unknown #
coedge $-1 $219 $218 $347 $423 reversed $78 $-1 #
edge $-1 $424 -3.8081217221792882 $344 -4.1431396825663817e-014 $338 $425 forward 7 unknown #
vertex $-1 $221 $426 #
straight-curve $-1 -11.372223229148325 -39.016952328356759 9.5620883096883897 1 0 0 I I #
coedge $-1 $337 $222 $225 $351 forward $215 $-1 #
coedge $-1 $222 $337 $342 $423 forward $215 $-1 #
vertex $-1 $223 $427 #
straight-curve $-1 -31.402843245824531 -79.715016401125865 12.826285756870035 0 -1 0 I I #
straight-curve $-1 -31.402843245824531 -39.01695232835678 9.5620883096883631 0 0.51503806187062418 0.85716730853699208 I I #
edge $-1 $227 -31.402843245824531 $421 -14.086049670768769 $225 $428 forward 7 unknown #
point $-1 -31.402843245824531 -39.016952328356759 12.826285756870037 #
point $-1 -31.402843245824531 -39.016952328356759 9.5620883096883986 #
edge $-1 $429 1 $429 0 $230 $-1 forward 7 unknown #
vertex $-1 $231 $430 #
ellipse-curve $-1 -22.74444645829665 -37.179121204240445 10.679148971408567 0 -0.85716730853699208 0.51503806187062418 0.25 0 0 1 I I #
point $-1 -22.49444645829665 -38.036288512777439 11.194187033279192 #
plane-surface $-1 70.238959929197051 0 0 -1 0 0 0 0 1 forward_v I I I I #
coedge $-1 $239 $237 $241 $363 reversed $141 $-1 #
edge $-1 $252 -12.826285756870037 $365 12.826285756870037 $251 $431 forward 7 unknown #
vertex $-1 $363 $432 #
straight-curve $-1 -70.238959929197051 -39.016952328356759 0 0 0 -1 I I #
edge $-1 $361 -39.016952328356759 $365 39.016952328356759 $359 $433 forward 7 unknown #
straight-curve $-1 0 -39.016952328356759 -12.826285756870037 -1 0 0 I I #
vertex $-1 $244 $434 #
straight-curve $-1 0 39.016952328356759 -12.826285756870037 1 0 0 I I #
point $-1 70.238959929197051 39.016952328356759 -12.826285756870037 #
point $-1 70.238959929197051 -39.016952328356759 -12.826285756870037 #
straight-curve $-1 -70.238959929197051 0 12.826285756870037 0 -1 0 I I #
point $-1 -70.238959929197051 39.016952328356759 12.826285756870037 #
point $-1 -70.238959929197051 -39.016952328356759 12.826285756870037 #
straight-curve $-1 70.238959929197051 -39.016952328356759 0 0 0 -1 I I #
straight-curve $-1 70.238959929197051 39.016952328356759 0 0 0 -1 I I #
plane-surface $-1 0 39.016952328356759 0 0 -1 0 0 0 -1 forward_v I I I I #
coedge $-1 $385 $384 $267 $377 forward $262 $-1 #
straight-curve $-1 -54.943100400280045 -39.016952328356759 -3.723148081095681 0 0 1 I I #
edge $-1 $380 -39.016952328356759 $378 39.016952328356759 $375 $435 forward 7 unknown #
vertex $-1 $268 $436 #
straight-curve $-1 -31.295515082369274 -39.016952328356759 -10.513260838043665 1 0 0 I I #
vertex $-1 $270 $437 #
straight-curve $-1 -31.295515082369274 39.016952328356759 -10.513260838043665 -1 0 0 I I #
point $-1 -54.943100400280045 39.016952328356759 -10.513260838043665 #
point $-1 -54.943100400280045 -39.016952328356759 -10.513260838043665 #
coedge $-1 $375 $274 $277 $387 forward $262 $-1 #
coedge $-1 $274 $375 $281 $389 reversed $262 $-1 #
straight-curve $-1 -70.238959929197051 0 -4.3793314863390584 0 1 0 I I #
edge $-1 $279 4.3793314863390584 $380 10.513260838043665 $277 $438 forward 7 unknown #
point $-1 -70.238959929197051 39.016952328356759 -4.3793314863390584 #
edge $-1 $282 4.3793314863390584 $378 10.513260838043665 $385 $439 forward 7 unknown #
point $-1 -70.238959929197051 -39.016952328356759 -4.3793314863390584 #
straight-curve $-1 -54.943100400280045 39.016952328356759 -3.723148081095681 0 0 -1 I I #
plane-surface $-1 70.238959929197051 0 0 -1 0 0 0 0 1 forward_v I I I I #
coedge $-1 $291 $290 $306 $404 reversed $103 $-1 #
edge $-1 $397 -39.016952328356759 $395 39.016952328356759 $290 $440 forward 7 unknown #
vertex $-1 $298 $441 #
straight-curve $-1 54.943100400280052 39.016952328356759 -3.723148081095681 0 0 1 I I #
vertex $-1 $296 $442 #
straight-curve $-1 31.295515082369278 -39.016952328356759 -10.513260838043665 1 0 0 I I #
straight-curve $-1 31.295515082369278 39.016952328356759 -10.513260838043665 -1 0 0 I I #
point $-1 70.238959929197051 -39.016952328356759 -10.513260838043665 #
point $-1 70.238959929197051 39.016952328356759 -10.513260838043665 #
straight-curve $-1 54.943100400280052 0 -4.3793314863390584 0 -1 0 I I #
point $-1 54.943100400280052 39.016952328356759 -4.3793314863390584 #
edge $-1 $308 0.65618340524337748 $397 6.790112756947984 $306 $443 forward 7 unknown #
point $-1 54.943100400280052 -39.016952328356759 -4.3793314863390584 #
straight-curve $-1 70.238959929197051 -39.016952328356759 0 0 0 -1 I I #
straight-curve $-1 70.238959929197051 39.016952328356759 0 0 0 -1 I I #
coedge $-1 $325 $324 $317 $409 forward $314 $-1 #
edge $-1 $410 20.602848565473714 $413 22.564176196632324 $408 $444 forward 7 unknown #
vertex $-1 $409 $445 #
straight-curve $-1 -31.402843245824531 39.016952328356759 74.400837959199947 0 0 1 I I #
edge $-1 $413 -20.030620016676206 $326 -2.7138264416204443 $325 $446 forward 7 unknown #
vertex $-1 $412 $447 #
straight-curve $-1 -31.402843245824531 -1.1734786862340059 76.450200338915721 0 0.51503806187062418 -0.85716730853699208 I I #
point $-1 -31.402843245824531 39.016952328356759 9.5620883096884199 #
point $-1 -14.086049670768769 37.055624697198148 12.826285756870043 #
straight-curve $-1 0 39.016952328356759 12.826285756870037 -1 0 0 I I #
vertex $-1 $332 $448 #
point $-1 -22.49444645829665 37.179121204240438 10.679148971408553 #
edge $-1 $421 40.698064072769107 $424 42.659391703927731 $337 $449 forward 7 unknown #
vertex $-1 $341 $450 #
straight-curve $-1 -14.086049670768769 -39.016952328356759 40.956781944586268 0 0 1 I I #
edge $-1 $424 2.7138264416204443 $348 20.030620016676206 $347 $451 forward 7 unknown #
vertex $-1 $423 $452 #
straight-curve $-1 -14.086049670768769 -39.01695232835678 9.5620883096883631 0 -0.51503806187062418 -0.85716730853699208 I I #
point $-1 -14.086049670768769 -39.016952328356759 9.5620883096883986 #
point $-1 -31.402843245824531 -37.055624697198134 12.826285756870037 #
straight-curve $-1 0 -39.016952328356759 12.826285756870037 1 0 0 I I #
vertex $-1 $354 $453 #
point $-1 -22.49444645829665 -37.179121204240445 10.679148971408567 #
straight-curve $-1 -70.238959929197051 39.016952328356759 0 0 0 -1 I I #
point $-1 -70.238959929197051 -39.016952328356759 -12.826285756870037 #
straight-curve $-1 -70.238959929197051 0 -12.826285756870037 0 1 0 I I #
point $-1 -70.238959929197051 39.016952328356759 -12.826285756870037 #
straight-curve $-1 -70.238959929197051 0 -10.513260838043665 0 -1 0 I I #
point $-1 -70.238959929197051 -39.016952328356759 -10.513260838043665 #
point $-1 -70.238959929197051 39.016952328356759 -10.513260838043665 #
straight-curve $-1 -70.238959929197051 39.016952328356759 0 0 0 -1 I I #
straight-curve $-1 -70.238959929197051 -39.016952328356759 0 0 0 -1 I I #
straight-curve $-1 54.943100400280052 0 -10.513260838043665 0 1 0 I I #
point $-1 54.943100400280052 39.016952328356759 -10.513260838043665 #
point $-1 54.943100400280052 -39.016952328356759 -10.513260838043665 #
straight-curve $-1 54.943100400280052 -39.016952328356759 -3.723148081095681 0 0 -1 I I #
straight-curve $-1 -31.402843245824531 59.619800893830472 12.826285756870035 0 -1 0 I I #
point $-1 -31.402843245824531 39.016952328356759 12.826285756870037 #
straight-curve $-1 -11.372223229148325 37.055624697198141 12.826285756870043 1 0 0 I I #
point $-1 -31.402843245824531 37.055624697198148 12.826285756870043 #
point $-1 -22.74444645829665 36.964829377106192 10.550389455940897 #
straight-curve $-1 -14.086049670768769 -79.715016401125865 12.826285756870035 0 1 0 I I #
point $-1 -14.086049670768769 -39.016952328356759 12.826285756870037 #
straight-curve $-1 -11.372223229148325 -37.055624697198134 12.826285756870035 -1 0 0 I I #
point $-1 -14.086049670768769 -37.055624697198134 12.826285756870037 #
point $-1 -22.74444645829665 -36.964829377106199 10.550389455940911 #
End-of-ACIS-data 