500 0 15 0           
7 Unknown 11 ACIS 5.0 NT 24 Thu Mar 25 18:57:48 1999 
-1 9.9999999999999995e-007 1e-010 
body $-1 $15 $-1 $16 #
body $-1 $17 $-1 $18 #
body $-1 $19 $-1 $20 #
body $-1 $21 $-1 $22 #
body $-1 $23 $-1 $24 #
body $-1 $25 $-1 $26 #
body $-1 $27 $-1 $28 #
body $-1 $29 $-1 $30 #
body $-1 $31 $-1 $32 #
body $-1 $33 $-1 $34 #
body $-1 $35 $-1 $36 #
body $-1 $37 $-1 $38 #
body $-1 $39 $-1 $40 #
body $-1 $41 $-1 $42 #
body $-1 $43 $-1 $44 #
lump $-1 $-1 $45 $0 #
transform $-1 1 0 0 0 1 0 0 0 1 79.75463118381299 54.816917958407103 22.239103332013453 1 rotate no_reflect no_shear #
lump $-1 $-1 $46 $1 #
transform $-1 1 0 0 0 1 0 0 0 1 79.75463118381299 54.816917958407103 22.239103332013453 1 rotate no_reflect no_shear #
lump $-1 $-1 $47 $2 #
transform $-1 1 0 0 0 1 0 0 0 1 79.75463118381299 54.816917958407103 22.239103332013453 1 rotate no_reflect no_shear #
lump $-1 $-1 $48 $3 #
transform $-1 1 0 0 0 1 0 0 0 1 79.75463118381299 54.816917958407103 22.239103332013453 1 rotate no_reflect no_shear #
lump $-1 $-1 $49 $4 #
transform $-1 1 0 0 0 1 0 0 0 1 79.75463118381299 54.816917958407103 22.239103332013453 1 rotate no_reflect no_shear #
lump $-1 $-1 $50 $5 #
transform $-1 1 0 0 0 1 0 0 0 1 79.75463118381299 54.816917958407103 22.239103332013453 1 rotate no_reflect no_shear #
lump $-1 $-1 $51 $6 #
transform $-1 1 0 0 0 1 0 0 0 1 79.75463118381299 54.816917958407103 22.239103332013453 1 rotate no_reflect no_shear #
lump $-1 $-1 $52 $7 #
transform $-1 1 0 0 0 1 0 0 0 1 79.75463118381299 54.816917958407103 22.239103332013453 1 rotate no_reflect no_shear #
lump $-1 $-1 $53 $8 #
transform $-1 1 0 0 0 1 0 0 0 1 79.75463118381299 54.816917958407103 22.239103332013453 1 rotate no_reflect no_shear #
lump $-1 $-1 $54 $9 #
transform $-1 1 0 0 0 1 0 0 0 1 79.75463118381299 54.816917958407103 22.239103332013453 1 rotate no_reflect no_shear #
lump $-1 $-1 $55 $10 #
transform $-1 1 0 0 0 1 0 0 0 1 79.75463118381299 54.816917958407103 22.239103332013453 1 rotate no_reflect no_shear #
lump $-1 $-1 $56 $11 #
transform $-1 1 0 0 0 1 0 0 0 1 79.75463118381299 54.816917958407103 22.239103332013453 1 rotate no_reflect no_shear #
lump $-1 $-1 $57 $12 #
transform $-1 1 0 0 0 1 0 0 0 1 79.75463118381299 54.816917958407103 22.239103332013453 1 rotate no_reflect no_shear #
lump $-1 $-1 $58 $13 #
transform $-1 1 0 0 0 1 0 0 0 1 79.75463118381299 54.816917958407103 22.239103332013453 1 rotate no_reflect no_shear #
lump $-1 $-1 $59 $14 #
transform $-1 1 0 0 0 1 0 0 0 1 79.75463118381299 54.816917958407103 22.239103332013453 1 rotate no_reflect no_shear #
shell $-1 $-1 $-1 $60 $-1 $15 #
shell $-1 $-1 $-1 $61 $-1 $17 #
shell $-1 $-1 $-1 $62 $-1 $19 #
shell $-1 $-1 $-1 $63 $-1 $21 #
shell $-1 $-1 $-1 $64 $-1 $23 #
shell $-1 $-1 $-1 $65 $-1 $25 #
shell $-1 $-1 $-1 $66 $-1 $27 #
shell $-1 $-1 $-1 $67 $-1 $29 #
shell $-1 $-1 $-1 $68 $-1 $31 #
shell $-1 $-1 $-1 $69 $-1 $33 #
shell $-1 $-1 $-1 $70 $-1 $35 #
shell $-1 $-1 $-1 $71 $-1 $37 #
shell $-1 $-1 $-1 $72 $-1 $39 #
shell $-1 $-1 $-1 $73 $-1 $41 #
shell $-1 $-1 $-1 $74 $-1 $43 #
face $-1 $75 $76 $45 $-1 $77 forward single #
face $-1 $78 $79 $46 $-1 $80 reversed single #
face $-1 $81 $82 $47 $-1 $83 forward single #
face $-1 $84 $85 $48 $-1 $86 forward single #
face $-1 $87 $88 $49 $-1 $89 reversed single #
face $-1 $90 $91 $50 $-1 $92 forward single #
face $-1 $93 $94 $51 $-1 $95 forward single #
face $-1 $96 $97 $52 $-1 $98 reversed single #
face $-1 $99 $100 $53 $-1 $101 forward single #
face $-1 $102 $103 $54 $-1 $104 forward single #
face $-1 $105 $106 $55 $-1 $107 reversed single #
face $-1 $108 $109 $56 $-1 $110 forward single #
face $-1 $111 $112 $57 $-1 $113 forward single #
face $-1 $114 $115 $58 $-1 $116 reversed single #
face $-1 $117 $118 $59 $-1 $119 forward single #
face $-1 $120 $121 $45 $-1 $122 reversed single #
loop $-1 $-1 $123 $60 #
plane-surface $-1 0 0 22.239103332013453 0 0 1 1 0 0 forward_v I I I I #
face $-1 $124 $125 $46 $-1 $126 reversed single #
loop $-1 $-1 $127 $61 #
plane-surface $-1 -74.283964837256704 86.757382754757245 197.97632635879367 1 0 0 0 -0.69465837861970381 -0.71933979245794832 forward_v I I I I #
face $-1 $128 $129 $47 $-1 $130 forward single #
loop $-1 $131 $132 $62 #
cone-surface $-1 -66.563862300041094 43.52623961695074 11.095551647978411 0 -0.69465837861970381 -0.71933979245794832 2.5 0 0 1 I I 0 1 2.5 forward I I I I #
face $-1 $133 $134 $48 $-1 $135 forward single #
loop $-1 $136 $137 $63 #
cone-surface $-1 -54.98370849421768 43.52623961695074 11.095551647978411 0 -0.69465837861970381 -0.71933979245794832 2.5 0 0 1 I I 0 1 2.5 forward I I I I #
face $-1 $138 $139 $49 $-1 $140 reversed single #
loop $-1 $-1 $141 $64 #
plane-surface $-1 -34.406649245350209 86.757382754757245 197.97632635879367 1 0 0 0 -0.69465837861970381 -0.71933979245794832 forward_v I I I I #
face $-1 $142 $143 $50 $-1 $144 forward single #
loop $-1 $145 $146 $65 #
cone-surface $-1 -26.6865467081346 43.52623961695074 11.095551647978411 0 -0.69465837861970381 -0.71933979245794832 2.5 0 0 1 I I 0 1 2.5 forward I I I I #
face $-1 $147 $148 $51 $-1 $149 forward single #
loop $-1 $150 $151 $66 #
cone-surface $-1 -15.106392902311185 43.52623961695074 11.095551647978411 0 -0.69465837861970381 -0.71933979245794832 2.5 0 0 1 I I 0 1 2.5 forward I I I I #
face $-1 $152 $153 $52 $-1 $154 reversed single #
loop $-1 $-1 $155 $67 #
plane-surface $-1 5.4706663465562819 86.757382754757245 197.97632635879367 1 0 0 0 -0.69465837861970381 -0.71933979245794832 forward_v I I I I #
face $-1 $156 $157 $53 $-1 $158 forward single #
loop $-1 $159 $160 $68 #
cone-surface $-1 13.190768883771895 43.52623961695074 11.095551647978411 0 -0.69465837861970381 -0.71933979245794832 2.5 0 0 1 I I 0 1 2.5 forward I I I I #
face $-1 $161 $162 $54 $-1 $163 forward single #
loop $-1 $164 $165 $69 #
cone-surface $-1 24.770922689595309 43.52623961695074 11.095551647978411 0 -0.69465837861970381 -0.71933979245794832 2.5 0 0 1 I I 0 1 2.5 forward I I I I #
face $-1 $166 $167 $55 $-1 $168 reversed single #
loop $-1 $-1 $169 $70 #
plane-surface $-1 45.34798193846278 86.757382754757245 197.97632635879367 1 0 0 0 -0.69465837861970381 -0.71933979245794832 forward_v I I I I #
face $-1 $170 $171 $56 $-1 $172 forward single #
loop $-1 $173 $174 $71 #
cone-surface $-1 53.068084475678404 43.52623961695074 11.095551647978411 0 -0.69465837861970381 -0.71933979245794832 2.5 0 0 1 I I 0 1 2.5 forward I I I I #
face $-1 $175 $176 $57 $-1 $177 forward single #
loop $-1 $178 $179 $72 #
cone-surface $-1 64.64823828150179 43.52623961695074 11.095551647978411 0 -0.69465837861970381 -0.71933979245794832 2.5 0 0 1 I I 0 1 2.5 forward I I I I #
face $-1 $180 $181 $58 $-1 $182 reversed single #
loop $-1 $-1 $183 $73 #
plane-surface $-1 6.7031648995911901 -161.54944868996984 122.67200904013367 -1 0 0 0 -0.66913061440640931 0.74314481823134659 forward_v I I I I #
face $-1 $184 $185 $59 $-1 $186 forward single #
loop $-1 $187 $188 $74 #
cone-surface $-1 -12.38736822104849 -42.349082822674646 10.505634739702451 0 0.66913061440640931 -0.74314481823134659 2.5 0 0 1 I I 0 1 2.5 forward I I I I #
face $-1 $189 $190 $45 $-1 $191 reversed single #
loop $-1 $-1 $192 $75 #
plane-surface $-1 0 0 -22.239103332013453 0 0 1 1 0 0 forward_v I I I I #
coedge $-1 $193 $194 $195 $196 forward $76 $-1 #
face $-1 $197 $198 $46 $-1 $199 reversed single #
loop $-1 $-1 $200 $78 #
plane-surface $-1 -60.773785397129387 -24.047062816362754 83.234966672145177 0 0.69465837861970381 0.71933979245794832 1 0 0 forward_v I I I I #
coedge $-1 $201 $202 $203 $204 reversed $79 $-1 #
face $-1 $-1 $205 $47 $-1 $206 forward single #
loop $-1 $207 $208 $81 #
cone-surface $-1 -66.563862300041094 39.21769665434195 6.6339249032214731 0 -0.69465837861970381 -0.71933979245794832 1.25 0 0 1 I I -0.70710678118654746 0.70710678118654746 1.25 forward I I I I #
loop $-1 $-1 $209 $62 #
coedge $-1 $132 $132 $210 $211 reversed $82 $-1 #
face $-1 $-1 $212 $48 $-1 $213 forward single #
loop $-1 $214 $215 $84 #
cone-surface $-1 -54.98370849421768 39.21769665434195 6.6339249032214731 0 -0.69465837861970381 -0.71933979245794832 1.25 0 0 1 I I -0.70710678118654746 0.70710678118654746 1.25 forward I I I I #
loop $-1 $-1 $216 $63 #
coedge $-1 $137 $137 $217 $218 reversed $85 $-1 #
face $-1 $219 $220 $49 $-1 $221 reversed single #
loop $-1 $-1 $222 $87 #
plane-surface $-1 -20.896469805222893 -24.047062816362754 83.234966672145177 0 0.69465837861970381 0.71933979245794832 1 0 0 forward_v I I I I #
coedge $-1 $223 $224 $225 $226 reversed $88 $-1 #
face $-1 $-1 $227 $50 $-1 $228 forward single #
loop $-1 $229 $230 $90 #
cone-surface $-1 -26.6865467081346 39.21769665434195 6.6339249032214731 0 -0.69465837861970381 -0.71933979245794832 1.25 0 0 1 I I -0.70710678118654746 0.70710678118654746 1.25 forward I I I I #
loop $-1 $-1 $231 $65 #
coedge $-1 $146 $146 $232 $233 reversed $91 $-1 #
face $-1 $-1 $234 $51 $-1 $235 forward single #
loop $-1 $236 $237 $93 #
cone-surface $-1 -15.106392902311185 39.21769665434195 6.6339249032214731 0 -0.69465837861970381 -0.71933979245794832 1.25 0 0 1 I I -0.70710678118654746 0.70710678118654746 1.25 forward I I I I #
loop $-1 $-1 $238 $66 #
coedge $-1 $151 $151 $239 $240 reversed $94 $-1 #
face $-1 $241 $242 $52 $-1 $243 reversed single #
loop $-1 $-1 $244 $96 #
plane-surface $-1 18.980845786683602 -24.047062816362754 83.234966672145177 0 0.69465837861970381 0.71933979245794832 1 0 0 forward_v I I I I #
coedge $-1 $245 $246 $247 $248 reversed $97 $-1 #
face $-1 $-1 $249 $53 $-1 $250 forward single #
loop $-1 $251 $252 $99 #
cone-surface $-1 13.190768883771895 39.21769665434195 6.6339249032214731 0 -0.69465837861970381 -0.71933979245794832 1.25 0 0 1 I I -0.70710678118654746 0.70710678118654746 1.25 forward I I I I #
loop $-1 $-1 $253 $68 #
coedge $-1 $160 $160 $254 $255 reversed $100 $-1 #
face $-1 $-1 $256 $54 $-1 $257 forward single #
loop $-1 $258 $259 $102 #
cone-surface $-1 24.770922689595309 39.21769665434195 6.6339249032214731 0 -0.69465837861970381 -0.71933979245794832 1.25 0 0 1 I I -0.70710678118654746 0.70710678118654746 1.25 forward I I I I #
loop $-1 $-1 $260 $69 #
coedge $-1 $165 $165 $261 $262 reversed $103 $-1 #
face $-1 $263 $264 $55 $-1 $265 reversed single #
loop $-1 $-1 $266 $105 #
plane-surface $-1 58.858161378590097 -24.047062816362754 83.234966672145177 0 0.69465837861970381 0.71933979245794832 1 0 0 forward_v I I I I #
coedge $-1 $267 $268 $269 $270 reversed $106 $-1 #
face $-1 $-1 $271 $56 $-1 $272 forward single #
loop $-1 $273 $274 $108 #
cone-surface $-1 53.068084475678404 39.21769665434195 6.6339249032214731 0 -0.69465837861970381 -0.71933979245794832 1.25 0 0 1 I I -0.70710678118654746 0.70710678118654746 1.25 forward I I I I #
loop $-1 $-1 $275 $71 #
coedge $-1 $174 $174 $276 $277 reversed $109 $-1 #
face $-1 $-1 $278 $57 $-1 $279 forward single #
loop $-1 $280 $281 $111 #
cone-surface $-1 64.64823828150179 39.21769665434195 6.6339249032214731 0 -0.69465837861970381 -0.71933979245794832 1.25 0 0 1 I I -0.70710678118654746 0.70710678118654746 1.25 forward I I I I #
loop $-1 $-1 $282 $72 #
coedge $-1 $179 $179 $283 $284 reversed $112 $-1 #
face $-1 $285 $286 $58 $-1 $287 reversed single #
loop $-1 $-1 $288 $114 #
plane-surface $-1 -12.38736822104849 -54.816917958407117 4.133527251728097 0 -0.66913061440640931 0.74314481823134659 1 0 0 forward_v I I I I #
coedge $-1 $289 $290 $291 $292 reversed $115 $-1 #
face $-1 $-1 $293 $59 $-1 $294 forward single #
loop $-1 $295 $296 $117 #
cone-surface $-1 -12.38736822104849 -39.0989738914597 6.896023164744939 0 0.66913061440640931 -0.74314481823134659 1.25 0 0 1 I I -0.70710678118654746 0.70710678118654746 1.25 forward I I I I #
loop $-1 $-1 $297 $74 #
coedge $-1 $188 $188 $298 $299 reversed $118 $-1 #
face $-1 $300 $301 $45 $-1 $302 reversed single #
loop $-1 $-1 $303 $120 #
plane-surface $-1 0 -54.816917958407103 0 0 1 0 0 0 1 forward_v I I I I #
coedge $-1 $304 $305 $306 $307 forward $121 $-1 #
coedge $-1 $308 $123 $309 $310 forward $76 $-1 #
coedge $-1 $123 $308 $311 $312 forward $76 $-1 #
coedge $-1 $313 $314 $123 $196 reversed $315 $-1 #
edge $-1 $316 -54.816917958407103 $317 54.816917958407103 $195 $318 forward 7 unknown #
face $-1 $319 $320 $46 $-1 $321 reversed single #
loop $-1 $-1 $322 $124 #
plane-surface $-1 -47.263605957002071 86.757382754757245 197.97632635879367 -1 0 0 0 0.69465837861970381 0.71933979245794832 forward_v I I I I #
coedge $-1 $323 $324 $325 $326 reversed $125 $-1 #
coedge $-1 $202 $127 $327 $328 reversed $79 $-1 #
coedge $-1 $127 $201 $323 $329 reversed $79 $-1 #
coedge $-1 $325 $330 $127 $204 forward $331 $-1 #
edge $-1 $332 -11.438226581028481 $333 4.2626901232158474 $203 $334 forward 7 unknown #
loop $-1 $-1 $210 $128 #
plane-surface $-1 -60.773785397129387 -24.047062816362754 83.234966672145177 0 0.69465837861970381 0.71933979245794832 1 0 0 forward_v I I I I #
loop $-1 $-1 $335 $81 #
coedge $-1 $208 $208 $209 $336 reversed $129 $-1 #
coedge $-1 $209 $209 $208 $336 forward $131 $-1 #
coedge $-1 $210 $210 $132 $211 forward $205 $-1 #
edge $-1 $337 -7.7417965373997481e-016 $337 6.2831853071795996 $210 $338 forward 7 unknown #
loop $-1 $-1 $217 $133 #
plane-surface $-1 -60.773785397129387 -24.047062816362754 83.234966672145177 0 0.69465837861970381 0.71933979245794832 1 0 0 forward_v I I I I #
loop $-1 $-1 $339 $84 #
coedge $-1 $215 $215 $216 $340 reversed $134 $-1 #
coedge $-1 $216 $216 $215 $340 forward $136 $-1 #
coedge $-1 $217 $217 $137 $218 forward $212 $-1 #
edge $-1 $341 -7.7417965373997481e-016 $341 6.2831853071795996 $217 $342 forward 7 unknown #
face $-1 $343 $344 $49 $-1 $345 forward single #
loop $-1 $-1 $346 $138 #
plane-surface $-1 -7.3862903650955722 86.757382754757245 197.97632635879367 -1 0 0 0 0.69465837861970381 0.71933979245794832 forward_v I I I I #
coedge $-1 $347 $348 $349 $350 reversed $139 $-1 #
coedge $-1 $224 $141 $351 $352 reversed $88 $-1 #
coedge $-1 $141 $223 $347 $353 reversed $88 $-1 #
coedge $-1 $349 $354 $141 $226 forward $344 $-1 #
edge $-1 $355 -11.438226581028481 $356 4.2626901232158474 $225 $357 forward 7 unknown #
loop $-1 $-1 $232 $142 #
plane-surface $-1 -20.896469805222893 -24.047062816362754 83.234966672145177 0 0.69465837861970381 0.71933979245794832 1 0 0 forward_v I I I I #
loop $-1 $-1 $358 $90 #
coedge $-1 $230 $230 $231 $359 reversed $143 $-1 #
coedge $-1 $231 $231 $230 $359 forward $145 $-1 #
coedge $-1 $232 $232 $146 $233 forward $227 $-1 #
edge $-1 $360 -7.7417965373997481e-016 $360 6.2831853071795996 $232 $361 forward 7 unknown #
loop $-1 $-1 $239 $147 #
plane-surface $-1 -20.896469805222893 -24.047062816362754 83.234966672145177 0 0.69465837861970381 0.71933979245794832 1 0 0 forward_v I I I I #
loop $-1 $-1 $362 $93 #
coedge $-1 $237 $237 $238 $363 reversed $148 $-1 #
coedge $-1 $238 $238 $237 $363 forward $150 $-1 #
coedge $-1 $239 $239 $151 $240 forward $234 $-1 #
edge $-1 $364 -7.7417965373997481e-016 $364 6.2831853071795996 $239 $365 forward 7 unknown #
face $-1 $366 $367 $52 $-1 $368 forward single #
loop $-1 $-1 $369 $152 #
plane-surface $-1 32.491025226810919 86.757382754757245 197.97632635879367 -1 0 0 0 0.69465837861970381 0.71933979245794832 forward_v I I I I #
coedge $-1 $370 $371 $372 $373 reversed $153 $-1 #
coedge $-1 $246 $155 $374 $375 reversed $97 $-1 #
coedge $-1 $155 $245 $370 $376 reversed $97 $-1 #
coedge $-1 $372 $377 $155 $248 forward $367 $-1 #
edge $-1 $378 -11.438226581028481 $379 4.2626901232158474 $247 $380 forward 7 unknown #
loop $-1 $-1 $254 $156 #
plane-surface $-1 18.980845786683602 -24.047062816362754 83.234966672145177 0 0.69465837861970381 0.71933979245794832 1 0 0 forward_v I I I I #
loop $-1 $-1 $381 $99 #
coedge $-1 $252 $252 $253 $382 reversed $157 $-1 #
coedge $-1 $253 $253 $252 $382 forward $159 $-1 #
coedge $-1 $254 $254 $160 $255 forward $249 $-1 #
edge $-1 $383 -7.7417965373997481e-016 $383 6.2831853071795996 $254 $384 forward 7 unknown #
loop $-1 $-1 $261 $161 #
plane-surface $-1 18.980845786683602 -24.047062816362754 83.234966672145177 0 0.69465837861970381 0.71933979245794832 1 0 0 forward_v I I I I #
loop $-1 $-1 $385 $102 #
coedge $-1 $259 $259 $260 $386 reversed $162 $-1 #
coedge $-1 $260 $260 $259 $386 forward $164 $-1 #
coedge $-1 $261 $261 $165 $262 forward $256 $-1 #
edge $-1 $387 -7.7417965373997481e-016 $387 6.2831853071795996 $261 $388 forward 7 unknown #
face $-1 $389 $390 $55 $-1 $391 forward single #
loop $-1 $-1 $392 $166 #
plane-surface $-1 72.368340818717414 86.757382754757245 197.97632635879367 -1 0 0 0 0.69465837861970381 0.71933979245794832 forward_v I I I I #
coedge $-1 $393 $394 $395 $396 reversed $167 $-1 #
coedge $-1 $268 $169 $397 $398 reversed $106 $-1 #
coedge $-1 $169 $267 $393 $399 reversed $106 $-1 #
coedge $-1 $395 $400 $169 $270 forward $390 $-1 #
edge $-1 $401 -11.438226581028481 $402 4.2626901232158474 $269 $403 forward 7 unknown #
loop $-1 $-1 $276 $170 #
plane-surface $-1 58.858161378590097 -24.047062816362754 83.234966672145177 0 0.69465837861970381 0.71933979245794832 1 0 0 forward_v I I I I #
loop $-1 $-1 $404 $108 #
coedge $-1 $274 $274 $275 $405 reversed $171 $-1 #
coedge $-1 $275 $275 $274 $405 forward $173 $-1 #
coedge $-1 $276 $276 $174 $277 forward $271 $-1 #
edge $-1 $406 -7.7417965373997481e-016 $406 6.2831853071795996 $276 $407 forward 7 unknown #
loop $-1 $-1 $283 $175 #
plane-surface $-1 58.858161378590097 -24.047062816362754 83.234966672145177 0 0.69465837861970381 0.71933979245794832 1 0 0 forward_v I I I I #
loop $-1 $-1 $408 $111 #
coedge $-1 $281 $281 $282 $409 reversed $176 $-1 #
coedge $-1 $282 $282 $281 $409 forward $178 $-1 #
coedge $-1 $283 $283 $179 $284 forward $278 $-1 #
edge $-1 $410 -7.7417965373997481e-016 $410 6.2831853071795996 $283 $411 forward 7 unknown #
face $-1 $412 $413 $58 $-1 $414 reversed single #
loop $-1 $-1 $415 $180 #
plane-surface $-1 -31.47790134168817 -161.54944868996984 122.67200904013367 1 0 0 0 0.66913061440640931 -0.74314481823134659 forward_v I I I I #
coedge $-1 $416 $417 $418 $419 reversed $181 $-1 #
coedge $-1 $290 $183 $420 $421 reversed $115 $-1 #
coedge $-1 $183 $289 $416 $422 reversed $115 $-1 #
coedge $-1 $418 $423 $183 $292 forward $424 $-1 #
edge $-1 $425 25.957806386577815 $426 46.066085331628855 $291 $427 forward 7 unknown #
loop $-1 $-1 $298 $184 #
plane-surface $-1 -12.38736822104849 -54.816917958407117 4.133527251728097 0 -0.66913061440640931 0.74314481823134659 1 0 0 forward_v I I I I #
loop $-1 $-1 $428 $117 #
coedge $-1 $296 $296 $297 $429 reversed $185 $-1 #
coedge $-1 $297 $297 $296 $429 forward $187 $-1 #
coedge $-1 $298 $298 $188 $299 forward $293 $-1 #
edge $-1 $430 6.858069168246732e-016 $430 6.2831853071796013 $298 $431 forward 7 unknown #
face $-1 $432 $433 $45 $-1 $434 reversed single #
loop $-1 $-1 $435 $189 #
plane-surface $-1 -79.75463118381299 0 0 1 0 0 0 0 -1 forward_v I I I I #
coedge $-1 $436 $311 $437 $438 forward $190 $-1 #
coedge $-1 $439 $192 $436 $440 forward $121 $-1 #
coedge $-1 $192 $439 $441 $442 forward $121 $-1 #
coedge $-1 $314 $313 $192 $307 reversed $315 $-1 #
edge $-1 $443 -54.816917958407103 $444 54.816917958407103 $306 $445 forward 7 unknown #
coedge $-1 $194 $193 $446 $447 forward $76 $-1 #
coedge $-1 $448 $449 $193 $310 reversed $433 $-1 #
edge $-1 $317 -79.75463118381299 $450 79.75463118381299 $309 $451 forward 7 unknown #
coedge $-1 $303 $452 $194 $312 reversed $190 $-1 #
edge $-1 $453 -79.75463118381299 $316 79.75463118381299 $311 $454 forward 7 unknown #
coedge $-1 $306 $195 $452 $455 forward $315 $-1 #
coedge $-1 $195 $306 $448 $456 reversed $315 $-1 #
loop $-1 $-1 $313 $432 #
vertex $-1 $196 $457 #
vertex $-1 $196 $458 #
straight-curve $-1 79.75463118381299 0 22.239103332013453 0 1 0 I I #
face $-1 $-1 $331 $46 $-1 $459 forward single #
loop $-1 $-1 $460 $197 #
plane-surface $-1 0 54.816917958407103 0 0 -1 0 0 0 -1 forward_v I I I I #
coedge $-1 $461 $462 $463 $464 reversed $198 $-1 #
coedge $-1 $465 $200 $202 $329 forward $125 $-1 #
coedge $-1 $200 $465 $461 $466 forward $125 $-1 #
coedge $-1 $463 $203 $200 $326 forward $331 $-1 #
edge $-1 $333 -43.89707213869201 $467 -16.876713258437377 $325 $468 forward 7 unknown #
coedge $-1 $469 $470 $201 $328 forward $320 $-1 #
edge $-1 $471 -91.911259207084427 $332 -76.749059847383378 $327 $472 forward 7 unknown #
edge $-1 $333 87.806992929864862 $471 109.63383591681415 $202 $473 forward 7 unknown #
coedge $-1 $203 $463 $469 $474 forward $331 $-1 #
loop $-1 $-1 $463 $319 #
vertex $-1 $328 $475 #
vertex $-1 $204 $476 #
straight-curve $-1 -74.283964837256704 43.378691377378622 22.239103332013457 0 -1 0 I I #
coedge $-1 $335 $335 $-1 $477 reversed $207 $-1 #
edge $-1 $478 0 $478 6.2831853071796004 $208 $479 forward 7 unknown #
vertex $-1 $211 $480 #
ellipse-curve $-1 -66.563862300041094 46.966459606284928 14.65800365216294 0 0.69465837861970381 0.71933979245794832 2.5 0 0 1 I I #
coedge $-1 $339 $339 $-1 $481 reversed $214 $-1 #
edge $-1 $482 0 $482 6.2831853071796004 $215 $483 forward 7 unknown #
vertex $-1 $218 $484 #
ellipse-curve $-1 -54.98370849421768 46.966459606284928 14.65800365216294 0 0.69465837861970381 0.71933979245794832 2.5 0 0 1 I I #
face $-1 $-1 $485 $49 $-1 $486 reversed single #
loop $-1 $-1 $225 $219 #
plane-surface $-1 0 0 22.239103332013453 0 0 1 1 0 0 forward_v I I I I #
coedge $-1 $487 $488 $489 $490 reversed $220 $-1 #
coedge $-1 $491 $222 $224 $353 forward $139 $-1 #
coedge $-1 $222 $491 $487 $492 forward $139 $-1 #
coedge $-1 $489 $225 $222 $350 forward $344 $-1 #
edge $-1 $356 -23.958414342738763 $493 3.061944537515874 $349 $494 forward 7 unknown #
coedge $-1 $495 $496 $223 $352 forward $485 $-1 #
edge $-1 $497 -91.911259207084427 $355 -76.749059847383378 $351 $498 forward 7 unknown #
edge $-1 $356 87.806992929864862 $497 109.63383591681415 $224 $499 forward 7 unknown #
coedge $-1 $225 $489 $495 $500 forward $344 $-1 #
vertex $-1 $226 $501 #
vertex $-1 $226 $502 #
straight-curve $-1 -34.406649245350209 43.378691377378622 22.239103332013457 0 -1 0 I I #
coedge $-1 $358 $358 $-1 $503 reversed $229 $-1 #
edge $-1 $504 0 $504 6.2831853071796004 $230 $505 forward 7 unknown #
vertex $-1 $233 $506 #
ellipse-curve $-1 -26.6865467081346 46.966459606284928 14.65800365216294 0 0.69465837861970381 0.71933979245794832 2.5 0 0 1 I I #
coedge $-1 $362 $362 $-1 $507 reversed $236 $-1 #
edge $-1 $508 0 $508 6.2831853071796004 $237 $509 forward 7 unknown #
vertex $-1 $240 $510 #
ellipse-curve $-1 -15.106392902311185 46.966459606284928 14.65800365216294 0 0.69465837861970381 0.71933979245794832 2.5 0 0 1 I I #
face $-1 $-1 $511 $52 $-1 $512 reversed single #
loop $-1 $-1 $247 $241 #
plane-surface $-1 0 0 22.239103332013453 0 0 1 1 0 0 forward_v I I I I #
coedge $-1 $513 $514 $515 $516 reversed $242 $-1 #
coedge $-1 $517 $244 $246 $376 forward $153 $-1 #
coedge $-1 $244 $517 $513 $518 forward $153 $-1 #
coedge $-1 $515 $247 $244 $373 forward $367 $-1 #
edge $-1 $379 -4.0197565467855192 $519 23.000602333469118 $372 $520 forward 7 unknown #
coedge $-1 $521 $522 $245 $375 forward $511 $-1 #
edge $-1 $523 -91.911259207084427 $378 -76.749059847383378 $374 $524 forward 7 unknown #
edge $-1 $379 87.806992929864862 $523 109.63383591681415 $246 $525 forward 7 unknown #
coedge $-1 $247 $515 $521 $526 forward $367 $-1 #
vertex $-1 $248 $527 #
vertex $-1 $248 $528 #
straight-curve $-1 5.4706663465562819 43.378691377378622 22.239103332013457 0 -1 0 I I #
coedge $-1 $381 $381 $-1 $529 reversed $251 $-1 #
edge $-1 $530 0 $530 6.2831853071796004 $252 $531 forward 7 unknown #
vertex $-1 $255 $532 #
ellipse-curve $-1 13.190768883771895 46.966459606284928 14.65800365216294 0 0.69465837861970381 0.71933979245794832 2.5 0 0 1 I I #
coedge $-1 $385 $385 $-1 $533 reversed $258 $-1 #
edge $-1 $534 0 $534 6.2831853071796004 $259 $535 forward 7 unknown #
vertex $-1 $262 $536 #
ellipse-curve $-1 24.770922689595309 46.966459606284928 14.65800365216294 0 0.69465837861970381 0.71933979245794832 2.5 0 0 1 I I #
face $-1 $-1 $537 $55 $-1 $538 reversed single #
loop $-1 $-1 $269 $263 #
plane-surface $-1 0 0 22.239103332013453 0 0 1 1 0 0 forward_v I I I I #
coedge $-1 $539 $540 $541 $542 reversed $264 $-1 #
coedge $-1 $543 $266 $268 $399 forward $167 $-1 #
coedge $-1 $266 $543 $539 $544 forward $167 $-1 #
coedge $-1 $541 $269 $266 $396 forward $390 $-1 #
edge $-1 $402 15.918901249167732 $545 42.939260129422365 $395 $546 forward 7 unknown #
coedge $-1 $547 $548 $267 $398 forward $537 $-1 #
edge $-1 $549 -91.911259207084427 $401 -76.749059847383378 $397 $550 forward 7 unknown #
edge $-1 $402 87.806992929864862 $549 109.63383591681415 $268 $551 forward 7 unknown #
coedge $-1 $269 $541 $547 $552 forward $390 $-1 #
vertex $-1 $270 $553 #
vertex $-1 $270 $554 #
straight-curve $-1 45.34798193846278 43.378691377378622 22.239103332013457 0 -1 0 I I #
coedge $-1 $404 $404 $-1 $555 reversed $273 $-1 #
edge $-1 $556 0 $556 6.2831853071796004 $274 $557 forward 7 unknown #
vertex $-1 $277 $558 #
ellipse-curve $-1 53.068084475678404 46.966459606284928 14.65800365216294 0 0.69465837861970381 0.71933979245794832 2.5 0 0 1 I I #
coedge $-1 $408 $408 $-1 $559 reversed $280 $-1 #
edge $-1 $560 0 $560 6.2831853071796004 $281 $561 forward 7 unknown #
vertex $-1 $284 $562 #
ellipse-curve $-1 64.64823828150179 46.966459606284928 14.65800365216294 0 0.69465837861970381 0.71933979245794832 2.5 0 0 1 I I #
face $-1 $-1 $424 $58 $-1 $563 forward single #
loop $-1 $-1 $564 $285 #
plane-surface $-1 0 -54.816917958407103 0 0 1 0 0 0 1 forward_v I I I I #
coedge $-1 $565 $566 $567 $568 reversed $286 $-1 #
coedge $-1 $569 $288 $290 $422 forward $181 $-1 #
coedge $-1 $288 $569 $565 $570 forward $181 $-1 #
coedge $-1 $567 $291 $288 $419 forward $424 $-1 #
edge $-1 $426 -12.896849010115435 $571 25.284217231163925 $418 $572 forward 7 unknown #
coedge $-1 $573 $574 $289 $421 forward $413 $-1 #
edge $-1 $575 -57.202477268338725 $425 -39.09690118805338 $420 $576 forward 7 unknown #
edge $-1 $426 -27.058358548348508 $575 -1.8881026247711288e-014 $290 $577 forward 7 unknown #
coedge $-1 $291 $567 $573 $578 forward $424 $-1 #
loop $-1 $-1 $567 $412 #
vertex $-1 $421 $579 #
vertex $-1 $292 $580 #
straight-curve $-1 6.7031648995911901 -80.774724344984918 22.239103332013457 0 1 0 I I #
coedge $-1 $428 $428 $-1 $581 reversed $295 $-1 #
edge $-1 $582 0 $582 6.2831853071796004 $296 $583 forward 7 unknown #
vertex $-1 $299 $584 #
ellipse-curve $-1 -12.38736822104849 -44.762778485881583 13.186315291870782 0 -0.66913061440640931 0.74314481823134659 2.5 0 0 1 I I #
face $-1 $-1 $315 $45 $-1 $585 reversed single #
loop $-1 $-1 $448 $300 #
plane-surface $-1 0 54.816917958407103 0 0 -1 0 0 0 -1 forward_v I I I I #
coedge $-1 $586 $446 $449 $587 forward $301 $-1 #
coedge $-1 $452 $303 $304 $440 reversed $190 $-1 #
coedge $-1 $446 $586 $303 $438 reversed $301 $-1 #
edge $-1 $453 -22.239103332013453 $588 22.239103332013453 $437 $589 forward 7 unknown #
coedge $-1 $305 $304 $586 $590 forward $121 $-1 #
edge $-1 $444 -79.75463118381299 $588 79.75463118381299 $436 $591 forward 7 unknown #
coedge $-1 $449 $448 $305 $442 reversed $433 $-1 #
edge $-1 $592 -79.75463118381299 $443 79.75463118381299 $441 $593 forward 7 unknown #
vertex $-1 $307 $594 #
vertex $-1 $455 $595 #
straight-curve $-1 79.75463118381299 0 -22.239103332013453 0 -1 0 I I #
coedge $-1 $435 $437 $308 $447 reversed $301 $-1 #
edge $-1 $450 -54.816917958407103 $453 54.816917958407103 $446 $596 forward 7 unknown #
coedge $-1 $441 $309 $314 $456 forward $433 $-1 #
coedge $-1 $309 $441 $435 $587 reversed $433 $-1 #
vertex $-1 $310 $597 #
straight-curve $-1 0 54.816917958407103 22.239103332013453 -1 0 0 I I #
coedge $-1 $311 $436 $313 $455 reversed $190 $-1 #
vertex $-1 $447 $598 #
straight-curve $-1 0 -54.816917958407103 22.239103332013453 1 0 0 I I #
edge $-1 $316 -22.239103332013453 $444 22.239103332013453 $313 $599 forward 7 unknown #
edge $-1 $317 -22.239103332013453 $443 22.239103332013453 $314 $600 forward 7 unknown #
point $-1 79.75463118381299 -54.816917958407103 22.239103332013453 #
point $-1 79.75463118381299 54.816917958407103 22.239103332013453 #
plane-surface $-1 0 0 22.239103332013453 0 0 1 1 0 0 forward_v I I I I #
coedge $-1 $470 $469 $462 $601 forward $320 $-1 #
coedge $-1 $462 $322 $324 $466 reversed $198 $-1 #
coedge $-1 $322 $461 $460 $601 reversed $198 $-1 #
coedge $-1 $330 $325 $322 $464 forward $331 $-1 #
edge $-1 $467 -4.2626901232158474 $602 11.438226581028481 $463 $603 forward 7 unknown #
coedge $-1 $324 $323 $470 $604 reversed $125 $-1 #
edge $-1 $605 -109.63383591681415 $467 -87.806992929864862 $461 $606 forward 7 unknown #
vertex $-1 $326 $607 #
straight-curve $-1 -30.386892698564694 39.116001254162775 22.239103332013464 1 0 0 I I #
coedge $-1 $460 $327 $330 $474 reversed $320 $-1 #
coedge $-1 $327 $460 $465 $604 forward $320 $-1 #
vertex $-1 $328 $608 #
straight-curve $-1 -74.283964837256704 54.816917958407103 98.988163179396835 0 0 1 I I #
straight-curve $-1 -74.283964837256704 -24.047062816362754 83.234966672145177 0 0.71933979245794832 -0.69465837861970381 I I #
edge $-1 $602 47.263605957002071 $332 74.283964837256704 $469 $609 forward 7 unknown #
point $-1 -74.283964837256704 54.816917958407103 22.239103332013453 #
point $-1 -74.283964837256704 39.116001254162775 22.239103332013457 #
edge $-1 $610 1 $610 0 $335 $-1 forward 7 unknown #
vertex $-1 $336 $611 #
ellipse-curve $-1 -66.563862300041094 40.086019627616579 7.5330996437939088 0 0.69465837861970381 0.71933979245794832 2.5 0 0 1 I I #
point $-1 -64.063862300041094 46.9664596062849 14.658003652162913 #
edge $-1 $612 1 $612 0 $339 $-1 forward 7 unknown #
vertex $-1 $340 $613 #
ellipse-curve $-1 -54.98370849421768 40.086019627616579 7.5330996437939088 0 0.69465837861970381 0.71933979245794832 2.5 0 0 1 I I #
point $-1 -52.48370849421768 46.9664596062849 14.658003652162913 #
loop $-1 $-1 $351 $343 #
plane-surface $-1 0 54.816917958407103 0 0 -1 0 0 0 -1 forward_v I I I I #
coedge $-1 $488 $346 $348 $492 reversed $220 $-1 #
coedge $-1 $346 $487 $614 $615 reversed $220 $-1 #
coedge $-1 $354 $349 $346 $490 forward $344 $-1 #
edge $-1 $493 -4.2626901232158474 $616 11.438226581028481 $489 $617 forward 7 unknown #
coedge $-1 $348 $347 $496 $618 reversed $139 $-1 #
edge $-1 $619 -109.63383591681415 $493 -87.806992929864862 $487 $620 forward 7 unknown #
vertex $-1 $350 $621 #
straight-curve $-1 -10.448234902611446 39.116001254162775 22.239103332013464 1 0 0 I I #
coedge $-1 $614 $351 $354 $500 reversed $485 $-1 #
coedge $-1 $351 $614 $491 $618 forward $485 $-1 #
vertex $-1 $352 $622 #
straight-curve $-1 -34.406649245350209 54.816917958407103 98.988163179396835 0 0 1 I I #
straight-curve $-1 -34.406649245350209 -24.047062816362754 83.234966672145177 0 0.71933979245794832 -0.69465837861970381 I I #
edge $-1 $616 7.3862903650955722 $355 34.406649245350209 $495 $623 forward 7 unknown #
point $-1 -34.406649245350209 54.816917958407103 22.239103332013453 #
point $-1 -34.406649245350209 39.116001254162775 22.239103332013457 #
edge $-1 $624 1 $624 0 $358 $-1 forward 7 unknown #
vertex $-1 $359 $625 #
ellipse-curve $-1 -26.6865467081346 40.086019627616579 7.5330996437939088 0 0.69465837861970381 0.71933979245794832 2.5 0 0 1 I I #
point $-1 -24.1865467081346 46.9664596062849 14.658003652162913 #
edge $-1 $626 1 $626 0 $362 $-1 forward 7 unknown #
vertex $-1 $363 $627 #
ellipse-curve $-1 -15.106392902311185 40.086019627616579 7.5330996437939088 0 0.69465837861970381 0.71933979245794832 2.5 0 0 1 I I #
point $-1 -12.606392902311185 46.9664596062849 14.658003652162913 #
loop $-1 $-1 $374 $366 #
plane-surface $-1 0 54.816917958407103 0 0 -1 0 0 0 -1 forward_v I I I I #
coedge $-1 $514 $369 $371 $518 reversed $242 $-1 #
coedge $-1 $369 $513 $628 $629 reversed $242 $-1 #
coedge $-1 $377 $372 $369 $516 forward $367 $-1 #
edge $-1 $519 -4.2626901232158474 $630 11.438226581028481 $515 $631 forward 7 unknown #
coedge $-1 $371 $370 $522 $632 reversed $153 $-1 #
edge $-1 $633 -109.63383591681415 $519 -87.806992929864862 $513 $634 forward 7 unknown #
vertex $-1 $373 $635 #
straight-curve $-1 9.4904228933418011 39.116001254162775 22.239103332013464 1 0 0 I I #
coedge $-1 $628 $374 $377 $526 reversed $511 $-1 #
coedge $-1 $374 $628 $517 $632 forward $511 $-1 #
vertex $-1 $375 $636 #
straight-curve $-1 5.4706663465562819 54.816917958407103 98.988163179396835 0 0 1 I I #
straight-curve $-1 5.4706663465562819 -24.047062816362754 83.234966672145177 0 0.71933979245794832 -0.69465837861970381 I I #
edge $-1 $630 -32.491025226810919 $378 -5.4706663465562819 $521 $637 forward 7 unknown #
point $-1 5.4706663465562819 54.816917958407103 22.239103332013453 #
point $-1 5.4706663465562819 39.116001254162775 22.239103332013457 #
edge $-1 $638 1 $638 0 $381 $-1 forward 7 unknown #
vertex $-1 $382 $639 #
ellipse-curve $-1 13.190768883771895 40.086019627616579 7.5330996437939088 0 0.69465837861970381 0.71933979245794832 2.5 0 0 1 I I #
point $-1 15.690768883771895 46.9664596062849 14.658003652162913 #
edge $-1 $640 1 $640 0 $385 $-1 forward 7 unknown #
vertex $-1 $386 $641 #
ellipse-curve $-1 24.770922689595309 40.086019627616579 7.5330996437939088 0 0.69465837861970381 0.71933979245794832 2.5 0 0 1 I I #
point $-1 27.270922689595309 46.9664596062849 14.658003652162913 #
loop $-1 $-1 $397 $389 #
plane-surface $-1 0 54.816917958407103 0 0 -1 0 0 0 -1 forward_v I I I I #
coedge $-1 $540 $392 $394 $544 reversed $264 $-1 #
coedge $-1 $392 $539 $642 $643 reversed $264 $-1 #
coedge $-1 $400 $395 $392 $542 forward $390 $-1 #
edge $-1 $545 -4.2626901232158474 $644 11.438226581028481 $541 $645 forward 7 unknown #
coedge $-1 $394 $393 $548 $646 reversed $167 $-1 #
edge $-1 $647 -109.63383591681415 $545 -87.806992929864862 $539 $648 forward 7 unknown #
vertex $-1 $396 $649 #
straight-curve $-1 29.429080689295049 39.116001254162775 22.239103332013464 1 0 0 I I #
coedge $-1 $642 $397 $400 $552 reversed $537 $-1 #
coedge $-1 $397 $642 $543 $646 forward $537 $-1 #
vertex $-1 $398 $650 #
straight-curve $-1 45.34798193846278 54.816917958407103 98.988163179396835 0 0 1 I I #
straight-curve $-1 45.34798193846278 -24.047062816362754 83.234966672145177 0 0.71933979245794832 -0.69465837861970381 I I #
edge $-1 $644 -72.368340818717414 $401 -45.34798193846278 $547 $651 forward 7 unknown #
point $-1 45.34798193846278 54.816917958407103 22.239103332013453 #
point $-1 45.34798193846278 39.116001254162775 22.239103332013457 #
edge $-1 $652 1 $652 0 $404 $-1 forward 7 unknown #
vertex $-1 $405 $653 #
ellipse-curve $-1 53.068084475678404 40.086019627616579 7.5330996437939088 0 0.69465837861970381 0.71933979245794832 2.5 0 0 1 I I #
point $-1 55.568084475678404 46.9664596062849 14.658003652162913 #
edge $-1 $654 1 $654 0 $408 $-1 forward 7 unknown #
vertex $-1 $409 $655 #
ellipse-curve $-1 64.64823828150179 40.086019627616579 7.5330996437939088 0 0.69465837861970381 0.71933979245794832 2.5 0 0 1 I I #
point $-1 67.14823828150179 46.9664596062849 14.658003652162913 #
plane-surface $-1 0 0 22.239103332013453 0 0 1 1 0 0 forward_v I I I I #
coedge $-1 $574 $573 $566 $656 forward $413 $-1 #
coedge $-1 $566 $415 $417 $570 reversed $286 $-1 #
coedge $-1 $415 $565 $564 $656 reversed $286 $-1 #
coedge $-1 $423 $418 $415 $568 forward $424 $-1 #
edge $-1 $571 -46.066085331628855 $657 -25.957806386577815 $567 $658 forward 7 unknown #
coedge $-1 $417 $416 $574 $659 reversed $181 $-1 #
edge $-1 $660 1.8881026247711288e-014 $571 27.058358548348508 $565 $661 forward 7 unknown #
vertex $-1 $419 $662 #
straight-curve $-1 -6.1936841105242451 -34.708639013356063 22.239103332013453 -1 0 0 I I #
coedge $-1 $564 $420 $423 $578 reversed $413 $-1 #
coedge $-1 $420 $564 $569 $659 forward $413 $-1 #
vertex $-1 $421 $663 #
straight-curve $-1 6.7031648995911901 -54.816917958407103 61.336004520066837 0 0 1 I I #
straight-curve $-1 6.7031648995911901 -54.816917958407117 4.133527251728097 0 -0.74314481823134659 -0.66913061440640931 I I #
edge $-1 $657 -31.47790134168817 $425 6.7031648995911901 $573 $664 forward 7 unknown #
point $-1 6.7031648995911901 -54.816917958407103 22.239103332013453 #
point $-1 6.7031648995911901 -34.708639013356063 22.239103332013453 #
edge $-1 $665 1 $665 0 $428 $-1 forward 7 unknown #
vertex $-1 $429 $666 #
ellipse-curve $-1 -12.38736822104849 -39.935387159467709 7.8249541875341224 0 -0.66913061440640931 0.74314481823134659 2.5 0 0 1 I I #
point $-1 -9.8873682210484901 -44.762778485881576 13.186315291870777 #
plane-surface $-1 79.75463118381299 0 0 -1 0 0 0 0 1 forward_v I I I I #
coedge $-1 $437 $435 $439 $590 reversed $301 $-1 #
edge $-1 $450 -22.239103332013453 $592 22.239103332013453 $449 $667 forward 7 unknown #
vertex $-1 $590 $668 #
straight-curve $-1 -79.75463118381299 -54.816917958407103 0 0 0 -1 I I #
edge $-1 $588 -54.816917958407103 $592 54.816917958407103 $586 $669 forward 7 unknown #
straight-curve $-1 0 -54.816917958407103 -22.239103332013453 -1 0 0 I I #
vertex $-1 $442 $670 #
straight-curve $-1 0 54.816917958407103 -22.239103332013453 1 0 0 I I #
point $-1 79.75463118381299 54.816917958407103 -22.239103332013453 #
point $-1 79.75463118381299 -54.816917958407103 -22.239103332013453 #
straight-curve $-1 -79.75463118381299 0 22.239103332013453 0 -1 0 I I #
point $-1 -79.75463118381299 54.816917958407103 22.239103332013453 #
point $-1 -79.75463118381299 -54.816917958407103 22.239103332013453 #
straight-curve $-1 79.75463118381299 -54.816917958407103 0 0 0 -1 I I #
straight-curve $-1 79.75463118381299 54.816917958407103 0 0 0 -1 I I #
edge $-1 $602 76.749059847383378 $605 91.911259207084427 $460 $671 forward 7 unknown #
vertex $-1 $474 $672 #
straight-curve $-1 -47.263605957002071 43.378691377378622 22.239103332013457 0 1 0 I I #
edge $-1 $605 16.876713258437377 $471 43.89707213869201 $470 $673 forward 7 unknown #
vertex $-1 $604 $674 #
straight-curve $-1 -47.263605957002071 -24.047062816362754 83.234966672145177 0 -0.71933979245794832 0.69465837861970381 I I #
point $-1 -47.263605957002071 39.116001254162775 22.239103332013457 #
point $-1 -74.283964837256704 54.816917958407103 7.0769039723124081 #
straight-curve $-1 0 54.816917958407103 22.239103332013453 -1 0 0 I I #
vertex $-1 $477 $675 #
point $-1 -64.063862300041094 40.086019627616579 7.5330996437939088 #
vertex $-1 $481 $676 #
point $-1 -52.48370849421768 40.086019627616579 7.5330996437939088 #
coedge $-1 $496 $495 $488 $615 forward $485 $-1 #
edge $-1 $616 76.749059847383378 $619 91.911259207084427 $614 $677 forward 7 unknown #
vertex $-1 $500 $678 #
straight-curve $-1 -7.3862903650955722 43.378691377378622 22.239103332013457 0 1 0 I I #
edge $-1 $619 -3.061944537515874 $497 23.958414342738763 $496 $679 forward 7 unknown #
vertex $-1 $618 $680 #
straight-curve $-1 -7.3862903650955722 -24.047062816362754 83.234966672145177 0 -0.71933979245794832 0.69465837861970381 I I #
point $-1 -7.3862903650955722 39.116001254162775 22.239103332013457 #
point $-1 -34.406649245350209 54.816917958407103 7.0769039723124081 #
straight-curve $-1 0 54.816917958407103 22.239103332013453 -1 0 0 I I #
vertex $-1 $503 $681 #
point $-1 -24.1865467081346 40.086019627616579 7.5330996437939088 #
vertex $-1 $507 $682 #
point $-1 -12.606392902311185 40.086019627616579 7.5330996437939088 #
coedge $-1 $522 $521 $514 $629 forward $511 $-1 #
edge $-1 $630 76.749059847383378 $633 91.911259207084427 $628 $683 forward 7 unknown #
vertex $-1 $526 $684 #
straight-curve $-1 32.491025226810919 43.378691377378622 22.239103332013457 0 1 0 I I #
edge $-1 $633 -23.000602333469118 $523 4.0197565467855192 $522 $685 forward 7 unknown #
vertex $-1 $632 $686 #
straight-curve $-1 32.491025226810919 -24.047062816362754 83.234966672145177 0 -0.71933979245794832 0.69465837861970381 I I #
point $-1 32.491025226810919 39.116001254162775 22.239103332013457 #
point $-1 5.4706663465562819 54.816917958407103 7.0769039723124081 #
straight-curve $-1 0 54.816917958407103 22.239103332013453 -1 0 0 I I #
vertex $-1 $529 $687 #
point $-1 15.690768883771895 40.086019627616579 7.5330996437939088 #
vertex $-1 $533 $688 #
point $-1 27.270922689595309 40.086019627616579 7.5330996437939088 #
coedge $-1 $548 $547 $540 $643 forward $537 $-1 #
edge $-1 $644 76.749059847383378 $647 91.911259207084427 $642 $689 forward 7 unknown #
vertex $-1 $552 $690 #
straight-curve $-1 72.368340818717414 43.378691377378622 22.239103332013457 0 1 0 I I #
edge $-1 $647 -42.939260129422365 $549 -15.918901249167732 $548 $691 forward 7 unknown #
vertex $-1 $646 $692 #
straight-curve $-1 72.368340818717414 -24.047062816362754 83.234966672145177 0 -0.71933979245794832 0.69465837861970381 I I #
point $-1 72.368340818717414 39.116001254162775 22.239103332013457 #
point $-1 45.34798193846278 54.816917958407103 7.0769039723124081 #
straight-curve $-1 0 54.816917958407103 22.239103332013453 -1 0 0 I I #
vertex $-1 $555 $693 #
point $-1 55.568084475678404 40.086019627616579 7.5330996437939088 #
vertex $-1 $559 $694 #
point $-1 67.14823828150179 40.086019627616579 7.5330996437939088 #
edge $-1 $657 39.09690118805338 $660 57.202477268338725 $564 $695 forward 7 unknown #
vertex $-1 $578 $696 #
straight-curve $-1 -31.47790134168817 -80.774724344984918 22.239103332013457 0 -1 0 I I #
edge $-1 $660 -25.284217231163925 $575 12.896849010115435 $574 $697 forward 7 unknown #
vertex $-1 $659 $698 #
straight-curve $-1 -31.47790134168817 -54.816917958407117 4.133527251728097 0 0.74314481823134659 0.66913061440640931 I I #
point $-1 -31.47790134168817 -34.708639013356063 22.239103332013453 #
point $-1 6.7031648995911901 -54.816917958407103 4.1335272517281094 #
straight-curve $-1 0 -54.816917958407103 22.239103332013453 1 0 0 I I #
vertex $-1 $581 $699 #
point $-1 -9.8873682210484901 -39.935387159467709 7.8249541875341224 #
straight-curve $-1 -79.75463118381299 54.816917958407103 0 0 0 -1 I I #
point $-1 -79.75463118381299 -54.816917958407103 -22.239103332013453 #
straight-curve $-1 -79.75463118381299 0 -22.239103332013453 0 1 0 I I #
point $-1 -79.75463118381299 54.816917958407103 -22.239103332013453 #
straight-curve $-1 -47.263605957002071 54.816917958407103 98.988163179396835 0 0 -1 I I #
point $-1 -47.263605957002071 54.816917958407103 22.239103332013453 #
straight-curve $-1 -30.386892698564694 54.816917958407089 7.0769039723124081 -1 0 0 I I #
point $-1 -47.263605957002071 54.816917958407103 7.0769039723124081 #
point $-1 -66.563862300041094 38.34937368106732 5.7347501626490374 #
point $-1 -54.98370849421768 38.34937368106732 5.7347501626490374 #
straight-curve $-1 -7.3862903650955722 54.816917958407103 98.988163179396835 0 0 -1 I I #
point $-1 -7.3862903650955722 54.816917958407103 22.239103332013453 #
straight-curve $-1 -10.448234902611446 54.816917958407089 7.0769039723124081 -1 0 0 I I #
point $-1 -7.3862903650955722 54.816917958407103 7.0769039723124081 #
point $-1 -26.6865467081346 38.34937368106732 5.7347501626490374 #
point $-1 -15.106392902311185 38.34937368106732 5.7347501626490374 #
straight-curve $-1 32.491025226810919 54.816917958407103 98.988163179396835 0 0 -1 I I #
point $-1 32.491025226810919 54.816917958407103 22.239103332013453 #
straight-curve $-1 9.4904228933418011 54.816917958407089 7.0769039723124081 -1 0 0 I I #
point $-1 32.491025226810919 54.816917958407103 7.0769039723124081 #
point $-1 13.190768883771895 38.34937368106732 5.7347501626490374 #
point $-1 24.770922689595309 38.34937368106732 5.7347501626490374 #
straight-curve $-1 72.368340818717414 54.816917958407103 98.988163179396835 0 0 -1 I I #
point $-1 72.368340818717414 54.816917958407103 22.239103332013453 #
straight-curve $-1 29.429080689295049 54.816917958407089 7.0769039723124081 -1 0 0 I I #
point $-1 72.368340818717414 54.816917958407103 7.0769039723124081 #
point $-1 53.068084475678404 38.34937368106732 5.7347501626490374 #
point $-1 64.64823828150179 38.34937368106732 5.7347501626490374 #
straight-curve $-1 -31.47790134168817 -54.816917958407103 61.336004520066837 0 0 -1 I I #
point $-1 -31.47790134168817 -54.816917958407103 22.239103332013453 #
straight-curve $-1 -6.1936841105242451 -54.816917958407103 4.1335272517281094 1 0 0 I I #
point $-1 -31.47790134168817 -54.816917958407103 4.1335272517281094 #
point $-1 -12.38736822104849 -38.262560623451691 5.9670921419557557 #
End-of-ACIS-data 