500 0 11 0           
7 Unknown 11 ACIS 5.0 NT 24 Fri Mar 26 16:36:04 1999 
-1 9.9999999999999995e-007 1e-010 
body $-1 $11 $-1 $12 #
body $-1 $13 $-1 $14 #
body $-1 $15 $-1 $16 #
body $-1 $17 $-1 $18 #
body $-1 $19 $-1 $20 #
body $-1 $21 $-1 $22 #
body $-1 $23 $-1 $24 #
body $-1 $25 $-1 $26 #
body $-1 $27 $-1 $28 #
body $-1 $29 $-1 $30 #
body $-1 $31 $-1 $32 #
lump $-1 $-1 $33 $0 #
transform $-1 1 0 0 0 1 0 0 0 1 56.530045472579118 27.275268193987284 11.922056602935358 1 rotate no_reflect no_shear #
lump $-1 $-1 $34 $1 #
transform $-1 1 0 0 0 1 0 0 0 1 56.530045472579118 27.275268193987284 11.922056602935358 1 rotate no_reflect no_shear #
lump $-1 $-1 $35 $2 #
transform $-1 1 0 0 0 1 0 0 0 1 56.530045472579118 27.275268193987284 11.922056602935358 1 rotate no_reflect no_shear #
lump $-1 $-1 $36 $3 #
transform $-1 1 0 0 0 1 0 0 0 1 56.530045472579118 27.275268193987284 11.922056602935358 1 rotate no_reflect no_shear #
lump $-1 $-1 $37 $4 #
transform $-1 1 0 0 0 1 0 0 0 1 56.530045472579118 27.275268193987284 11.922056602935358 1 rotate no_reflect no_shear #
lump $-1 $-1 $38 $5 #
transform $-1 1 0 0 0 1 0 0 0 1 56.530045472579118 27.275268193987284 11.922056602935358 1 rotate no_reflect no_shear #
lump $-1 $-1 $39 $6 #
transform $-1 1 0 0 0 1 0 0 0 1 56.530045472579118 27.275268193987284 11.922056602935358 1 rotate no_reflect no_shear #
lump $-1 $-1 $40 $7 #
transform $-1 1 0 0 0 1 0 0 0 1 56.530045472579118 27.275268193987284 11.922056602935358 1 rotate no_reflect no_shear #
lump $-1 $-1 $41 $8 #
transform $-1 1 0 0 0 1 0 0 0 1 56.530045472579118 27.275268193987284 11.922056602935358 1 rotate no_reflect no_shear #
lump $-1 $-1 $42 $9 #
transform $-1 1 0 0 0 1 0 0 0 1 56.530045472579118 27.275268193987284 11.922056602935358 1 rotate no_reflect no_shear #
lump $-1 $-1 $43 $10 #
transform $-1 1 0 0 0 1 0 0 0 1 56.530045472579118 27.275268193987284 11.922056602935358 1 rotate no_reflect no_shear #
shell $-1 $-1 $-1 $44 $-1 $11 #
shell $-1 $-1 $-1 $45 $-1 $13 #
shell $-1 $-1 $-1 $46 $-1 $15 #
shell $-1 $-1 $-1 $47 $-1 $17 #
shell $-1 $-1 $-1 $48 $-1 $19 #
shell $-1 $-1 $-1 $49 $-1 $21 #
shell $-1 $-1 $-1 $50 $-1 $23 #
shell $-1 $-1 $-1 $51 $-1 $25 #
shell $-1 $-1 $-1 $52 $-1 $27 #
shell $-1 $-1 $-1 $53 $-1 $29 #
shell $-1 $-1 $-1 $54 $-1 $31 #
face $-1 $55 $56 $33 $-1 $57 reversed single #
face $-1 $58 $59 $34 $-1 $60 forward single #
face $-1 $61 $62 $35 $-1 $63 forward single #
face $-1 $64 $65 $36 $-1 $66 reversed single #
face $-1 $67 $68 $37 $-1 $69 forward single #
face $-1 $70 $71 $38 $-1 $72 forward single #
face $-1 $73 $74 $39 $-1 $75 forward single #
face $-1 $76 $77 $40 $-1 $78 reversed single #
face $-1 $79 $80 $41 $-1 $81 forward single #
face $-1 $82 $83 $42 $-1 $84 reversed single #
face $-1 $85 $86 $43 $-1 $87 forward single #
face $-1 $88 $89 $33 $-1 $90 forward single #
loop $-1 $-1 $91 $44 #
plane-surface $-1 0 -27.275268193987284 0 0 1 0 0 0 1 forward_v I I I I #
face $-1 $92 $93 $34 $-1 $94 reversed single #
loop $-1 $-1 $95 $45 #
plane-surface $-1 0 -27.275268193987284 0 0 1 0 0 0 1 forward_v I I I I #
face $-1 $96 $97 $35 $-1 $98 reversed single #
loop $-1 $-1 $99 $46 #
plane-surface $-1 0 27.275268193987284 0 0 -1 0 0 0 -1 forward_v I I I I #
face $-1 $100 $101 $36 $-1 $102 reversed single #
loop $-1 $-1 $103 $47 #
plane-surface $-1 23.28681494943487 2.2808420759327426 160.3523633837041 0 -1 0 -0.54463904215088732 0 -0.83867056331134215 forward_v I I I I #
face $-1 $104 $105 $37 $-1 $106 forward single #
loop $-1 $107 $108 $48 #
cone-surface $-1 49.961619881669733 -2.7308858248880092 7.269544844739662 -0.54463904215088732 0 -0.83867056331134215 0.41933528165567108 0 -0.27231952107544366 1 I I 0 1 0.5 forward I I I I #
face $-1 $109 $110 $38 $-1 $111 forward single #
loop $-1 $112 $113 $49 #
cone-surface $-1 49.961619881669733 -0.85148786208022642 7.269544844739662 -0.54463904215088732 0 -0.83867056331134215 0.41933528165567108 0 -0.27231952107544366 1 I I 0 1 0.5 forward I I I I #
face $-1 $114 $115 $39 $-1 $116 forward single #
loop $-1 $117 $118 $50 #
cone-surface $-1 49.961619881669733 1.0279101007275564 7.269544844739662 -0.54463904215088732 0 -0.83867056331134215 0.41933528165567108 0 -0.27231952107544366 1 I I 0 1 0.5 forward I I I I #
face $-1 $119 $120 $40 $-1 $121 reversed single #
loop $-1 $-1 $122 $51 #
plane-surface $-1 -126.13678873723148 -7.312976345481335 93.436375160422855 0 1 0 -0.61566148304635926 0 0.78801074757464917 forward_v I I I I #
face $-1 $123 $124 $41 $-1 $125 forward single #
loop $-1 $126 $127 $52 #
cone-surface $-1 -51.196435055322574 -4.091926306002641 7.5137571378238679 0.61566148304635926 0 -0.78801074757464917 0.78801074757464917 0 0.61566148304635926 1 I I 0 1 1 forward I I I I #
face $-1 $128 $129 $42 $-1 $130 reversed single #
loop $-1 $-1 $131 $53 #
plane-surface $-1 -126.13678873723148 3.2806474719105054 93.436375160422855 0 1 0 -0.61566148304635926 0 0.78801074757464917 forward_v I I I I #
face $-1 $132 $133 $43 $-1 $134 forward single #
loop $-1 $135 $136 $54 #
cone-surface $-1 -51.196435055322574 6.5016975113891995 7.5137571378238679 0.61566148304635926 0 -0.78801074757464917 0.78801074757464917 0 0.61566148304635926 1 I I 0 1 1 forward I I I I #
face $-1 $137 $138 $33 $-1 $139 reversed single #
loop $-1 $-1 $140 $55 #
plane-surface $-1 0 0 11.922056602935358 0 0 1 1 0 0 forward_v I I I I #
coedge $-1 $141 $142 $143 $144 reversed $56 $-1 #
face $-1 $145 $146 $34 $-1 $147 reversed single #
loop $-1 $-1 $148 $58 #
plane-surface $-1 0 0 -11.922056602935358 0 0 1 1 0 0 forward_v I I I I #
coedge $-1 $149 $150 $151 $152 forward $59 $-1 #
face $-1 $153 $154 $35 $-1 $155 forward single #
loop $-1 $-1 $156 $61 #
plane-surface $-1 56.530045472579118 0 0 -1 0 0 0 0 1 forward_v I I I I #
coedge $-1 $157 $158 $159 $160 forward $62 $-1 #
face $-1 $161 $162 $36 $-1 $163 reversed single #
loop $-1 $-1 $164 $64 #
plane-surface $-1 -38.290124688428321 -0.85148786208022642 65.532193222696662 0.54463904215088732 0 0.83867056331134215 0.83867056331134215 0 -0.54463904215088732 forward_v I I I I #
coedge $-1 $165 $166 $167 $168 reversed $65 $-1 #
face $-1 $-1 $169 $37 $-1 $170 forward single #
loop $-1 $171 $172 $67 #
cone-surface $-1 49.390934836557008 -2.7308858248880092 6.3907669547670789 -0.54463904215088732 0 -0.83867056331134215 0.20966764082783554 0 -0.13615976053772183 1 I I -0.70710678118654746 0.70710678118654746 0.25 forward I I I I #
loop $-1 $-1 $173 $48 #
coedge $-1 $108 $108 $174 $175 reversed $68 $-1 #
face $-1 $-1 $176 $38 $-1 $177 forward single #
loop $-1 $178 $179 $70 #
cone-surface $-1 49.390934836557008 -0.85148786208022642 6.3907669547670789 -0.54463904215088732 0 -0.83867056331134215 0.20966764082783554 0 -0.13615976053772183 1 I I -0.70710678118654746 0.70710678118654746 0.25 forward I I I I #
loop $-1 $-1 $180 $49 #
coedge $-1 $113 $113 $181 $182 reversed $71 $-1 #
face $-1 $-1 $183 $39 $-1 $184 forward single #
loop $-1 $185 $186 $73 #
cone-surface $-1 49.390934836557008 1.0279101007275564 6.3907669547670789 -0.54463904215088732 0 -0.83867056331134215 0.20966764082783554 0 -0.13615976053772183 1 I I -0.70710678118654746 0.70710678118654746 0.25 forward I I I I #
loop $-1 $-1 $187 $50 #
coedge $-1 $118 $118 $188 $189 reversed $74 $-1 #
face $-1 $190 $191 $40 $-1 $192 reversed single #
loop $-1 $-1 $193 $76 #
plane-surface $-1 -56.530045472579104 -4.091926306002641 4.3438083738708855 -0.61566148304635926 0 0.78801074757464917 0.78801074757464917 0 0.61566148304635926 forward_v I I I I #
coedge $-1 $194 $195 $196 $197 reversed $77 $-1 #
face $-1 $-1 $198 $41 $-1 $199 forward single #
loop $-1 $200 $201 $79 #
cone-surface $-1 -50.404851502335021 -4.091926306002641 6.5005764134572797 0.61566148304635926 0 -0.78801074757464917 0.39400537378732459 0 0.30783074152317963 1 I I -0.70710678118654746 0.70710678118654746 0.5 forward I I I I #
loop $-1 $-1 $202 $52 #
coedge $-1 $127 $127 $203 $204 reversed $80 $-1 #
face $-1 $205 $206 $42 $-1 $207 reversed single #
loop $-1 $-1 $208 $82 #
plane-surface $-1 -56.530045472579104 6.5016975113891995 4.3438083738708855 -0.61566148304635926 0 0.78801074757464917 0.78801074757464917 0 0.61566148304635926 forward_v I I I I #
coedge $-1 $209 $210 $211 $212 reversed $83 $-1 #
face $-1 $-1 $213 $43 $-1 $214 forward single #
loop $-1 $215 $216 $85 #
cone-surface $-1 -50.404851502335021 6.5016975113891995 6.5005764134572797 0.61566148304635926 0 -0.78801074757464917 0.39400537378732459 0 0.30783074152317963 1 I I -0.70710678118654746 0.70710678118654746 0.5 forward I I I I #
loop $-1 $-1 $217 $54 #
coedge $-1 $136 $136 $218 $219 reversed $86 $-1 #
face $-1 $220 $221 $33 $-1 $222 reversed single #
loop $-1 $-1 $223 $88 #
plane-surface $-1 0 0 -11.922056602935358 0 0 1 1 0 0 forward_v I I I I #
coedge $-1 $224 $225 $226 $227 forward $89 $-1 #
coedge $-1 $228 $91 $229 $230 reversed $56 $-1 #
coedge $-1 $91 $228 $231 $232 forward $56 $-1 #
coedge $-1 $233 $223 $91 $144 forward $138 $-1 #
edge $-1 $234 -56.530045472579118 $235 56.530045472579118 $91 $236 forward 7 unknown #
face $-1 $237 $238 $34 $-1 $239 reversed single #
loop $-1 $-1 $240 $92 #
plane-surface $-1 -34.185932266708406 -42.724699212397773 0 0 1 0 0 0 1 forward_v I I I I #
coedge $-1 $241 $242 $150 $243 forward $93 $-1 #
coedge $-1 $244 $95 $245 $246 reversed $59 $-1 #
coedge $-1 $95 $244 $148 $243 reversed $59 $-1 #
coedge $-1 $247 $248 $95 $152 reversed $238 $-1 #
edge $-1 $249 -11.922056602935358 $250 11.922056602935358 $151 $251 forward 7 unknown #
face $-1 $252 $253 $35 $-1 $254 reversed single #
loop $-1 $-1 $255 $96 #
plane-surface $-1 0 33.795098100499246 6.5446045615265565 0 0 1 1 0 0 forward_v I I I I #
coedge $-1 $256 $257 $158 $258 forward $97 $-1 #
coedge $-1 $259 $99 $260 $261 reversed $62 $-1 #
coedge $-1 $99 $259 $156 $258 reversed $62 $-1 #
coedge $-1 $255 $262 $99 $160 reversed $154 $-1 #
edge $-1 $263 -56.530045472579118 $264 56.530045472579118 $159 $265 forward 7 unknown #
face $-1 $266 $267 $36 $-1 $268 forward single #
loop $-1 $-1 $269 $100 #
plane-surface $-1 23.28681494943487 -3.9838178000931954 160.3523633837041 0 1 0 0.54463904215088732 0 0.83867056331134215 forward_v I I I I #
coedge $-1 $270 $271 $272 $273 reversed $101 $-1 #
coedge $-1 $166 $103 $274 $275 reversed $65 $-1 #
coedge $-1 $103 $165 $270 $276 reversed $65 $-1 #
coedge $-1 $272 $277 $103 $168 forward $267 $-1 #
edge $-1 $278 -44.886637997861683 $279 -32.618837385192862 $167 $280 forward 7 unknown #
loop $-1 $-1 $174 $104 #
plane-surface $-1 -38.290124688428321 -0.85148786208022642 65.532193222696662 0.54463904215088732 0 0.83867056331134215 0.83867056331134215 0 -0.54463904215088732 forward_v I I I I #
loop $-1 $-1 $281 $67 #
coedge $-1 $172 $172 $173 $282 reversed $105 $-1 #
coedge $-1 $173 $173 $172 $282 forward $107 $-1 #
coedge $-1 $174 $174 $108 $175 forward $169 $-1 #
edge $-1 $283 0 $283 6.2831853071796004 $174 $284 forward 7 unknown #
loop $-1 $-1 $181 $109 #
plane-surface $-1 -38.290124688428321 -0.85148786208022642 65.532193222696662 0.54463904215088732 0 0.83867056331134215 0.83867056331134215 0 -0.54463904215088732 forward_v I I I I #
loop $-1 $-1 $285 $70 #
coedge $-1 $179 $179 $180 $286 reversed $110 $-1 #
coedge $-1 $180 $180 $179 $286 forward $112 $-1 #
coedge $-1 $181 $181 $113 $182 forward $176 $-1 #
edge $-1 $287 0 $287 6.2831853071796004 $181 $288 forward 7 unknown #
loop $-1 $-1 $188 $114 #
plane-surface $-1 -38.290124688428321 -0.85148786208022642 65.532193222696662 0.54463904215088732 0 0.83867056331134215 0.83867056331134215 0 -0.54463904215088732 forward_v I I I I #
loop $-1 $-1 $289 $73 #
coedge $-1 $186 $186 $187 $290 reversed $115 $-1 #
coedge $-1 $187 $187 $186 $290 forward $117 $-1 #
coedge $-1 $188 $188 $118 $189 forward $183 $-1 #
edge $-1 $291 0 $291 6.2831853071796004 $188 $292 forward 7 unknown #
face $-1 $293 $294 $40 $-1 $295 reversed single #
loop $-1 $-1 $296 $119 #
plane-surface $-1 -126.13678873723148 -0.8708762665239469 93.436375160422855 0 -1 0 0.61566148304635926 0 -0.78801074757464917 forward_v I I I I #
coedge $-1 $297 $298 $299 $300 reversed $120 $-1 #
coedge $-1 $195 $122 $301 $302 reversed $77 $-1 #
coedge $-1 $122 $194 $297 $303 reversed $77 $-1 #
coedge $-1 $299 $304 $122 $197 forward $305 $-1 #
edge $-1 $306 6.5383488960366236 $307 16.238064107621 $196 $308 forward 7 unknown #
loop $-1 $-1 $203 $123 #
plane-surface $-1 -56.530045472579104 -4.091926306002641 4.3438083738708855 -0.61566148304635926 0 0.78801074757464917 0.78801074757464917 0 0.61566148304635926 forward_v I I I I #
loop $-1 $-1 $309 $79 #
coedge $-1 $201 $201 $202 $310 reversed $124 $-1 #
coedge $-1 $202 $202 $201 $310 forward $126 $-1 #
coedge $-1 $203 $203 $127 $204 forward $198 $-1 #
edge $-1 $311 0 $311 6.2831853071796004 $203 $312 forward 7 unknown #
face $-1 $313 $314 $42 $-1 $315 forward single #
loop $-1 $-1 $316 $128 #
plane-surface $-1 -126.13678873723148 9.7227475508678936 93.436375160422855 0 -1 0 0.61566148304635926 0 -0.78801074757464917 forward_v I I I I #
coedge $-1 $317 $318 $319 $320 reversed $129 $-1 #
coedge $-1 $210 $131 $321 $322 reversed $83 $-1 #
coedge $-1 $131 $209 $317 $323 reversed $83 $-1 #
coedge $-1 $319 $324 $131 $212 forward $314 $-1 #
edge $-1 $325 6.5383488960366236 $326 16.238064107621 $211 $327 forward 7 unknown #
loop $-1 $-1 $218 $132 #
plane-surface $-1 -56.530045472579104 6.5016975113891995 4.3438083738708855 -0.61566148304635926 0 0.78801074757464917 0.78801074757464917 0 0.61566148304635926 forward_v I I I I #
loop $-1 $-1 $328 $85 #
coedge $-1 $216 $216 $217 $329 reversed $133 $-1 #
coedge $-1 $217 $217 $216 $329 forward $135 $-1 #
coedge $-1 $218 $218 $136 $219 forward $213 $-1 #
edge $-1 $330 0 $330 6.2831853071796004 $218 $331 forward 7 unknown #
face $-1 $332 $333 $33 $-1 $334 reversed single #
loop $-1 $-1 $335 $137 #
plane-surface $-1 -56.530045472579118 0 0 1 0 0 0 0 -1 forward_v I I I I #
coedge $-1 $143 $336 $337 $338 forward $138 $-1 #
coedge $-1 $339 $140 $340 $341 forward $89 $-1 #
coedge $-1 $140 $339 $228 $342 forward $89 $-1 #
coedge $-1 $229 $343 $140 $227 reversed $344 $-1 #
edge $-1 $345 -27.275268193987284 $346 27.275268193987284 $226 $347 forward 7 unknown #
coedge $-1 $142 $141 $225 $342 reversed $56 $-1 #
coedge $-1 $337 $226 $141 $230 forward $344 $-1 #
edge $-1 $345 -11.922056602935358 $234 11.922056602935358 $229 $348 forward 7 unknown #
coedge $-1 $349 $350 $142 $232 reversed $221 $-1 #
edge $-1 $351 -11.922056602935358 $235 11.922056602935358 $231 $352 forward 7 unknown #
coedge $-1 $336 $143 $350 $353 forward $138 $-1 #
vertex $-1 $230 $354 #
vertex $-1 $353 $355 #
straight-curve $-1 0 -27.275268193987284 -11.922056602935358 -1 0 0 I I #
face $-1 $356 $357 $34 $-1 $358 reversed single #
loop $-1 $-1 $151 $145 #
plane-surface $-1 -35.685932266708406 -34.999983703192527 0 1 0 0 0 0 -1 forward_v I I I I #
coedge $-1 $359 $360 $361 $362 forward $146 $-1 #
coedge $-1 $363 $148 $364 $365 forward $93 $-1 #
coedge $-1 $148 $363 $247 $366 forward $93 $-1 #
edge $-1 $249 -35.685932266708406 $367 -32.685932266708406 $148 $368 forward 7 unknown #
coedge $-1 $150 $149 $369 $370 forward $59 $-1 #
coedge $-1 $371 $372 $149 $246 forward $373 $-1 #
edge $-1 $374 32.685932266708406 $250 35.685932266708406 $245 $375 forward 7 unknown #
coedge $-1 $361 $151 $242 $366 reversed $238 $-1 #
coedge $-1 $151 $361 $371 $376 reversed $238 $-1 #
vertex $-1 $243 $377 #
vertex $-1 $376 $378 #
straight-curve $-1 -35.685932266708406 -27.275268193987284 0 0 0 1 I I #
face $-1 $379 $380 $35 $-1 $381 reversed single #
loop $-1 $-1 $382 $153 #
plane-surface $-1 0 33.795098100499246 2.7099134588629941 0 0 1 1 0 0 forward_v I I I I #
coedge $-1 $383 $159 $257 $384 forward $154 $-1 #
coedge $-1 $385 $156 $382 $386 reversed $97 $-1 #
coedge $-1 $156 $385 $255 $384 reversed $97 $-1 #
edge $-1 $263 -6.5446045615265565 $387 -2.7099134588629941 $156 $388 forward 7 unknown #
coedge $-1 $158 $157 $389 $390 forward $62 $-1 #
coedge $-1 $391 $392 $157 $261 forward $393 $-1 #
edge $-1 $394 2.7099134588629941 $264 6.5446045615265565 $260 $395 forward 7 unknown #
coedge $-1 $159 $383 $391 $396 forward $154 $-1 #
vertex $-1 $258 $397 #
vertex $-1 $396 $398 #
straight-curve $-1 0 27.275268193987284 6.5446045615265565 -1 0 0 I I #
face $-1 $-1 $399 $36 $-1 $400 reversed single #
loop $-1 $-1 $167 $161 #
plane-surface $-1 0 0 11.922056602935358 0 0 1 1 0 0 forward_v I I I I #
coedge $-1 $401 $402 $403 $404 reversed $162 $-1 #
coedge $-1 $405 $164 $166 $276 forward $101 $-1 #
coedge $-1 $164 $405 $401 $406 forward $101 $-1 #
coedge $-1 $403 $167 $164 $273 forward $267 $-1 #
edge $-1 $279 -2.7065860069728558 $407 3.5580738690530822 $272 $408 forward 7 unknown #
coedge $-1 $409 $410 $165 $275 forward $399 $-1 #
edge $-1 $411 -76.22092810701858 $278 -68.254125088916695 $274 $412 forward 7 unknown #
edge $-1 $279 98.432415729956233 $411 113.06009094515824 $166 $413 forward 7 unknown #
coedge $-1 $167 $403 $409 $414 forward $267 $-1 #
vertex $-1 $275 $415 #
vertex $-1 $168 $416 #
straight-curve $-1 11.643407474717435 2.2808420759327426 11.922056602935356 -1 0 0 I I #
coedge $-1 $281 $281 $-1 $417 reversed $171 $-1 #
edge $-1 $418 0 $418 6.2831853071796004 $172 $419 forward 7 unknown #
vertex $-1 $175 $420 #
ellipse-curve $-1 50.396145166244729 -2.7308858248880092 7.9386550938844023 0.54463904215088732 0 0.83867056331134215 0.41933528165567108 0 -0.27231952107544366 1 I I #
coedge $-1 $285 $285 $-1 $421 reversed $178 $-1 #
edge $-1 $422 0 $422 6.2831853071796004 $179 $423 forward 7 unknown #
vertex $-1 $182 $424 #
ellipse-curve $-1 50.396145166244729 -0.85148786208022642 7.9386550938844023 0.54463904215088732 0 0.83867056331134215 0.41933528165567108 0 -0.27231952107544366 1 I I #
coedge $-1 $289 $289 $-1 $425 reversed $185 $-1 #
edge $-1 $426 0 $426 6.2831853071796004 $186 $427 forward 7 unknown #
vertex $-1 $189 $428 #
ellipse-curve $-1 50.396145166244729 1.0279101007275564 7.9386550938844023 0.54463904215088732 0 0.83867056331134215 0.41933528165567108 0 -0.27231952107544366 1 I I #
face $-1 $-1 $305 $40 $-1 $429 forward single #
loop $-1 $-1 $430 $190 #
plane-surface $-1 -56.530045472579118 0 0 1 0 0 0 0 -1 forward_v I I I I #
coedge $-1 $431 $432 $433 $434 reversed $191 $-1 #
coedge $-1 $435 $193 $195 $303 forward $120 $-1 #
coedge $-1 $193 $435 $431 $436 forward $120 $-1 #
coedge $-1 $433 $196 $193 $300 forward $305 $-1 #
edge $-1 $307 -5.2670131924800145 $437 1.1750868864773736 $299 $438 forward 7 unknown #
coedge $-1 $439 $440 $194 $302 forward $294 $-1 #
edge $-1 $441 -42.374379206340556 $306 -34.796130977276071 $301 $442 forward 7 unknown #
edge $-1 $307 -12.309115378741069 $441 1.830693040787162e-014 $195 $443 forward 7 unknown #
coedge $-1 $196 $433 $439 $444 forward $305 $-1 #
loop $-1 $-1 $433 $293 #
vertex $-1 $302 $445 #
vertex $-1 $197 $446 #
straight-curve $-1 -63.068394368615742 -7.312976345481335 11.922056602935356 1 0 0 I I #
coedge $-1 $309 $309 $-1 $447 reversed $200 $-1 #
edge $-1 $448 0 $448 6.2831853071796004 $201 $449 forward 7 unknown #
vertex $-1 $204 $450 #
ellipse-curve $-1 -51.680187866786937 -4.091926306002641 8.1329324884031156 -0.61566148304635926 0 0.78801074757464917 0.78801074757464917 0 0.61566148304635926 1 I I #
face $-1 $-1 $451 $42 $-1 $452 reversed single #
loop $-1 $-1 $211 $205 #
plane-surface $-1 0 0 11.922056602935358 0 0 1 1 0 0 forward_v I I I I #
coedge $-1 $453 $454 $455 $456 reversed $206 $-1 #
coedge $-1 $457 $208 $210 $323 forward $129 $-1 #
coedge $-1 $208 $457 $453 $458 forward $129 $-1 #
coedge $-1 $455 $211 $208 $320 forward $314 $-1 #
edge $-1 $326 0.029798716215905685 $459 6.4718987951732938 $319 $460 forward 7 unknown #
coedge $-1 $461 $462 $209 $322 forward $451 $-1 #
edge $-1 $463 -42.374379206340556 $325 -34.796130977276071 $321 $464 forward 7 unknown #
edge $-1 $326 -12.309115378741069 $463 1.830693040787162e-014 $210 $465 forward 7 unknown #
coedge $-1 $211 $455 $461 $466 forward $314 $-1 #
vertex $-1 $322 $467 #
vertex $-1 $212 $468 #
straight-curve $-1 -63.068394368615742 3.2806474719105054 11.922056602935356 1 0 0 I I #
coedge $-1 $328 $328 $-1 $469 reversed $215 $-1 #
edge $-1 $470 0 $470 6.2831853071796004 $216 $471 forward 7 unknown #
vertex $-1 $219 $472 #
ellipse-curve $-1 -51.680187866786937 6.5016975113891995 8.1329324884031156 -0.61566148304635926 0 0.78801074757464917 0.78801074757464917 0 0.61566148304635926 1 I I #
face $-1 $-1 $344 $33 $-1 $473 reversed single #
loop $-1 $-1 $474 $220 #
plane-surface $-1 0 27.275268193987284 0 0 -1 0 0 0 -1 forward_v I I I I #
coedge $-1 $350 $349 $474 $475 forward $221 $-1 #
coedge $-1 $223 $233 $476 $477 forward $138 $-1 #
coedge $-1 $343 $229 $223 $338 reversed $344 $-1 #
edge $-1 $478 -27.275268193987284 $234 27.275268193987284 $337 $479 forward 7 unknown #
coedge $-1 $225 $224 $349 $480 forward $89 $-1 #
coedge $-1 $481 $474 $224 $341 reversed $333 $-1 #
edge $-1 $346 -56.530045472579118 $482 56.530045472579118 $340 $483 forward 7 unknown #
edge $-1 $351 -56.530045472579118 $345 56.530045472579118 $228 $484 forward 7 unknown #
coedge $-1 $226 $337 $481 $485 reversed $344 $-1 #
loop $-1 $-1 $229 $332 #
vertex $-1 $227 $486 #
vertex $-1 $227 $487 #
straight-curve $-1 56.530045472579118 0 11.922056602935358 0 1 0 I I #
straight-curve $-1 56.530045472579118 -27.275268193987284 0 0 0 -1 I I #
coedge $-1 $335 $231 $339 $480 reversed $221 $-1 #
coedge $-1 $231 $335 $233 $353 reversed $221 $-1 #
vertex $-1 $480 $488 #
straight-curve $-1 -56.530045472579118 -27.275268193987284 0 0 0 -1 I I #
edge $-1 $235 -27.275268193987284 $489 27.275268193987284 $350 $490 forward 7 unknown #
point $-1 56.530045472579118 -27.275268193987284 -11.922056602935358 #
point $-1 -56.530045472579118 -27.275268193987284 -11.922056602935358 #
face $-1 $-1 $373 $34 $-1 $491 forward single #
loop $-1 $-1 $492 $237 #
plane-surface $-1 -32.685932266708406 -34.999983703192527 0 -1 0 0 0 0 1 forward_v I I I I #
coedge $-1 $493 $240 $363 $494 reversed $146 $-1 #
coedge $-1 $240 $493 $495 $496 reversed $146 $-1 #
coedge $-1 $248 $247 $240 $362 reversed $238 $-1 #
edge $-1 $497 -11.922056602935358 $498 11.922056602935358 $361 $499 forward 7 unknown #
coedge $-1 $242 $241 $359 $494 forward $93 $-1 #
coedge $-1 $369 $492 $241 $365 reversed $357 $-1 #
edge $-1 $367 -7.7247155092052466 $500 7.7247155092052466 $364 $501 forward 7 unknown #
edge $-1 $498 -7.7247155092052466 $249 7.7247155092052466 $247 $502 forward 7 unknown #
vertex $-1 $365 $503 #
straight-curve $-1 0 -27.275268193987284 -11.922056602935358 1 0 0 I I #
coedge $-1 $504 $364 $244 $370 reversed $357 $-1 #
edge $-1 $374 -11.922056602935358 $367 11.922056602935358 $369 $505 forward 7 unknown #
coedge $-1 $495 $245 $248 $376 forward $373 $-1 #
coedge $-1 $245 $495 $504 $506 forward $373 $-1 #
loop $-1 $-1 $245 $356 #
vertex $-1 $246 $507 #
straight-curve $-1 0 -27.275268193987284 11.922056602935358 -1 0 0 I I #
edge $-1 $250 -7.7247155092052466 $497 7.7247155092052466 $248 $508 forward 7 unknown #
point $-1 -35.685932266708406 -27.27526819398728 -11.922056602935358 #
point $-1 -35.685932266708406 -27.27526819398728 11.922056602935358 #
face $-1 $-1 $393 $35 $-1 $509 reversed single #
loop $-1 $-1 $510 $252 #
plane-surface $-1 0 40.314928007011218 4.6272590101947753 0 -1 0 0 0 -1 forward_v I I I I #
coedge $-1 $389 $511 $256 $386 forward $253 $-1 #
coedge $-1 $262 $255 $512 $513 forward $154 $-1 #
edge $-1 $263 -6.5198299065119691 $514 6.5198299065119727 $257 $515 forward 7 unknown #
coedge $-1 $257 $256 $510 $516 reversed $97 $-1 #
edge $-1 $517 -6.5198299065119727 $387 6.5198299065119691 $256 $518 forward 7 unknown #
vertex $-1 $258 $519 #
straight-curve $-1 56.530045472579118 27.275268193987284 0 0 0 -1 I I #
coedge $-1 $520 $382 $259 $390 reversed $253 $-1 #
edge $-1 $394 -56.530045472579118 $387 56.530045472579118 $389 $521 forward 7 unknown #
coedge $-1 $522 $260 $262 $396 reversed $393 $-1 #
coedge $-1 $260 $522 $520 $523 reversed $393 $-1 #
loop $-1 $-1 $260 $379 #
vertex $-1 $261 $524 #
straight-curve $-1 -56.530045472579118 27.275268193987284 0 0 0 1 I I #
edge $-1 $525 -6.5198299065119727 $264 6.5198299065119691 $391 $526 forward 7 unknown #
point $-1 56.530045472579118 27.275268193987277 6.5446045615265565 #
point $-1 -56.530045472579118 27.275268193987277 6.5446045615265565 #
loop $-1 $-1 $274 $266 #
plane-surface $-1 56.530045472579118 0 0 -1 0 0 0 0 1 forward_v I I I I #
coedge $-1 $402 $269 $271 $406 reversed $162 $-1 #
coedge $-1 $269 $401 $527 $528 reversed $162 $-1 #
coedge $-1 $277 $272 $269 $404 forward $267 $-1 #
edge $-1 $407 32.618837385192862 $529 44.886637997861683 $403 $530 forward 7 unknown #
coedge $-1 $271 $270 $410 $531 reversed $101 $-1 #
edge $-1 $532 -113.06009094515824 $407 -98.432415729956233 $401 $533 forward 7 unknown #
vertex $-1 $273 $534 #
straight-curve $-1 44.262244859910311 -0.42574393104011321 11.922056602935356 0 -1 0 I I #
coedge $-1 $527 $274 $277 $414 reversed $399 $-1 #
coedge $-1 $274 $527 $405 $531 forward $399 $-1 #
vertex $-1 $275 $535 #
straight-curve $-1 56.530045472579118 2.2808420759327426 80.176181691852051 0 0 1 I I #
straight-curve $-1 -38.290124688428321 2.2808420759327426 65.532193222696662 0.83867056331134215 0 -0.54463904215088732 I I #
edge $-1 $529 -3.9838178000931954 $278 2.2808420759327426 $409 $536 forward 7 unknown #
point $-1 56.530045472579118 2.2808420759327426 11.922056602935358 #
point $-1 44.262244859910297 2.2808420759327426 11.922056602935356 #
edge $-1 $537 1 $537 0 $281 $-1 forward 7 unknown #
vertex $-1 $282 $538 #
ellipse-curve $-1 49.527094597094731 -2.7308858248880092 6.6004345955949146 0.54463904215088732 0 0.83867056331134215 0.41933528165567108 0 -0.27231952107544366 1 I I #
point $-1 50.815480447900399 -2.7308858248880092 7.6663355728089666 #
edge $-1 $539 1 $539 0 $285 $-1 forward 7 unknown #
vertex $-1 $286 $540 #
ellipse-curve $-1 49.527094597094731 -0.85148786208022642 6.6004345955949146 0.54463904215088732 0 0.83867056331134215 0.41933528165567108 0 -0.27231952107544366 1 I I #
point $-1 50.815480447900399 -0.85148786208022642 7.6663355728089666 #
edge $-1 $541 1 $541 0 $289 $-1 forward 7 unknown #
vertex $-1 $290 $542 #
ellipse-curve $-1 49.527094597094731 1.0279101007275564 6.6004345955949146 0.54463904215088732 0 0.83867056331134215 0.41933528165567108 0 -0.27231952107544366 1 I I #
point $-1 50.815480447900399 1.0279101007275564 7.6663355728089666 #
plane-surface $-1 0 0 11.922056602935358 0 0 1 1 0 0 forward_v I I I I #
coedge $-1 $440 $439 $432 $543 forward $294 $-1 #
coedge $-1 $432 $296 $298 $436 reversed $191 $-1 #
coedge $-1 $296 $431 $430 $543 reversed $191 $-1 #
coedge $-1 $304 $299 $296 $434 forward $305 $-1 #
edge $-1 $437 -16.238064107621 $544 -6.5383488960366236 $433 $545 forward 7 unknown #
coedge $-1 $298 $297 $440 $546 reversed $120 $-1 #
edge $-1 $547 -1.830693040787162e-014 $437 12.309115378741069 $431 $548 forward 7 unknown #
vertex $-1 $300 $549 #
straight-curve $-1 -46.830330260994742 -2.0459631530013205 11.922056602935358 0 1 0 I I #
coedge $-1 $430 $301 $304 $444 reversed $294 $-1 #
coedge $-1 $301 $430 $435 $546 forward $294 $-1 #
vertex $-1 $302 $550 #
straight-curve $-1 -56.530045472579118 -7.312976345481335 46.718187580211428 0 0 1 I I #
straight-curve $-1 -56.530045472579104 -7.312976345481335 4.3438083738708855 -0.78801074757464917 0 -0.61566148304635926 I I #
edge $-1 $544 0.8708762665239469 $306 7.312976345481335 $439 $551 forward 7 unknown #
point $-1 -56.530045472579118 -7.312976345481335 11.922056602935358 #
point $-1 -46.830330260994742 -7.312976345481335 11.922056602935358 #
edge $-1 $552 1 $552 0 $309 $-1 forward 7 unknown #
vertex $-1 $310 $553 #
ellipse-curve $-1 -50.712682243858197 -4.091926306002641 6.8945817872446042 -0.61566148304635926 0 0.78801074757464917 0.78801074757464917 0 0.61566148304635926 1 I I #
point $-1 -50.892177119212299 -4.091926306002641 8.7485939714494894 #
loop $-1 $-1 $321 $313 #
plane-surface $-1 -56.530045472579118 0 0 1 0 0 0 0 -1 forward_v I I I I #
coedge $-1 $454 $316 $318 $458 reversed $206 $-1 #
coedge $-1 $316 $453 $554 $555 reversed $206 $-1 #
coedge $-1 $324 $319 $316 $456 forward $314 $-1 #
edge $-1 $459 -16.238064107621 $556 -6.5383488960366236 $455 $557 forward 7 unknown #
coedge $-1 $318 $317 $462 $558 reversed $129 $-1 #
edge $-1 $559 -1.830693040787162e-014 $459 12.309115378741069 $453 $560 forward 7 unknown #
vertex $-1 $320 $561 #
straight-curve $-1 -46.830330260994742 3.2508487556945997 11.922056602935358 0 1 0 I I #
coedge $-1 $554 $321 $324 $466 reversed $451 $-1 #
coedge $-1 $321 $554 $457 $558 forward $451 $-1 #
vertex $-1 $322 $562 #
straight-curve $-1 -56.530045472579118 3.2806474719105054 46.718187580211428 0 0 1 I I #
straight-curve $-1 -56.530045472579104 3.2806474719105054 4.3438083738708855 -0.78801074757464917 0 -0.61566148304635926 I I #
edge $-1 $556 -9.7227475508678936 $325 -3.2806474719105054 $461 $563 forward 7 unknown #
point $-1 -56.530045472579118 3.2806474719105054 11.922056602935358 #
point $-1 -46.830330260994742 3.2806474719105054 11.922056602935358 #
edge $-1 $564 1 $564 0 $328 $-1 forward 7 unknown #
vertex $-1 $329 $565 #
ellipse-curve $-1 -50.712682243858197 6.5016975113891995 6.8945817872446042 -0.61566148304635926 0 0.78801074757464917 0.78801074757464917 0 0.61566148304635926 1 I I #
point $-1 -50.892177119212299 6.5016975113891995 8.7485939714494894 #
plane-surface $-1 56.530045472579118 0 0 -1 0 0 0 0 1 forward_v I I I I #
coedge $-1 $340 $476 $335 $475 reversed $333 $-1 #
edge $-1 $482 -11.922056602935358 $489 11.922056602935358 $474 $566 forward 7 unknown #
coedge $-1 $474 $481 $336 $477 reversed $333 $-1 #
edge $-1 $489 -56.530045472579118 $478 56.530045472579118 $476 $567 forward 7 unknown #
vertex $-1 $338 $568 #
straight-curve $-1 56.530045472579118 0 -11.922056602935358 0 -1 0 I I #
edge $-1 $482 -27.275268193987284 $351 27.275268193987284 $349 $569 forward 7 unknown #
coedge $-1 $476 $340 $343 $485 forward $333 $-1 #
vertex $-1 $341 $570 #
straight-curve $-1 0 27.275268193987284 11.922056602935358 -1 0 0 I I #
straight-curve $-1 0 -27.275268193987284 11.922056602935358 1 0 0 I I #
edge $-1 $346 -11.922056602935358 $478 11.922056602935358 $343 $571 forward 7 unknown #
point $-1 56.530045472579118 -27.275268193987284 11.922056602935358 #
point $-1 56.530045472579118 27.275268193987284 11.922056602935358 #
point $-1 -56.530045472579118 -27.275268193987284 11.922056602935358 #
vertex $-1 $477 $572 #
straight-curve $-1 -56.530045472579118 0 -11.922056602935358 0 1 0 I I #
plane-surface $-1 0 0 11.922056602935358 0 0 1 1 0 0 forward_v I I I I #
coedge $-1 $364 $504 $493 $573 forward $357 $-1 #
coedge $-1 $360 $359 $492 $573 reversed $146 $-1 #
edge $-1 $500 -1.5 $498 1.5 $359 $574 forward 7 unknown #
coedge $-1 $372 $371 $360 $496 forward $373 $-1 #
edge $-1 $497 -1.5 $575 1.5 $360 $576 forward 7 unknown #
vertex $-1 $376 $577 #
vertex $-1 $366 $578 #
straight-curve $-1 -35.685932266708406 -42.724699212397773 0 0 0 -1 I I #
vertex $-1 $573 $579 #
straight-curve $-1 -32.685932266708406 -34.999983703192527 -11.922056602935358 0 -1 0 I I #
straight-curve $-1 -35.685932266708406 -34.999983703192527 -11.922056602935358 0 1 0 I I #
point $-1 -32.685932266708406 -27.27526819398728 -11.922056602935358 #
coedge $-1 $492 $369 $372 $506 reversed $357 $-1 #
straight-curve $-1 -32.685932266708406 -27.275268193987284 0 0 0 -1 I I #
edge $-1 $575 -7.7247155092052466 $374 7.7247155092052466 $504 $580 forward 7 unknown #
point $-1 -32.685932266708406 -27.27526819398728 11.922056602935358 #
straight-curve $-1 -35.685932266708406 -34.999983703192527 11.922056602935358 0 -1 0 I I #
plane-surface $-1 -56.530045472579118 0 0 1 0 0 0 0 -1 forward_v I I I I #
coedge $-1 $581 $512 $385 $516 forward $380 $-1 #
coedge $-1 $382 $520 $581 $582 forward $253 $-1 #
coedge $-1 $510 $583 $383 $513 reversed $380 $-1 #
edge $-1 $514 -56.530045472579118 $525 56.530045472579118 $512 $584 forward 7 unknown #
vertex $-1 $384 $585 #
straight-curve $-1 56.530045472579118 33.795098100499246 6.5446045615265565 0 1 0 I I #
edge $-1 $514 -1.9173455513317812 $517 1.9173455513317812 $385 $586 forward 7 unknown #
vertex $-1 $386 $587 #
straight-curve $-1 56.530045472579118 33.795098100499246 2.7099134588629941 0 -1 0 I I #
point $-1 56.530045472579118 27.275268193987277 2.7099134588629941 #
coedge $-1 $511 $389 $392 $523 forward $253 $-1 #
straight-curve $-1 0 27.275268193987284 2.7099134588629941 1 0 0 I I #
coedge $-1 $392 $391 $583 $588 forward $393 $-1 #
edge $-1 $394 -6.5198299065119691 $589 6.5198299065119727 $392 $590 forward 7 unknown #
point $-1 -56.530045472579118 27.275268193987277 2.7099134588629941 #
vertex $-1 $513 $591 #
straight-curve $-1 -56.530045472579118 33.795098100499246 6.5446045615265565 0 -1 0 I I #
coedge $-1 $410 $409 $402 $528 forward $399 $-1 #
edge $-1 $529 68.254125088916695 $532 76.22092810701858 $527 $592 forward 7 unknown #
vertex $-1 $414 $593 #
straight-curve $-1 11.643407474717435 -3.9838178000931954 11.922056602935356 1 0 0 I I #
edge $-1 $532 -3.5580738690530822 $411 2.7065860069728558 $410 $594 forward 7 unknown #
vertex $-1 $531 $595 #
straight-curve $-1 -38.290124688428321 -3.9838178000931954 65.532193222696662 -0.83867056331134215 0 0.54463904215088732 I I #
point $-1 44.262244859910297 -3.9838178000931954 11.922056602935356 #
point $-1 56.530045472579118 2.2808420759327426 3.9552535848334642 #
straight-curve $-1 56.530045472579118 0 11.922056602935358 0 1 0 I I #
vertex $-1 $417 $596 #
point $-1 49.946429878750401 -2.7308858248880092 6.328115074519471 #
vertex $-1 $421 $597 #
point $-1 49.946429878750401 -0.85148786208022642 6.328115074519471 #
vertex $-1 $425 $598 #
point $-1 49.946429878750401 1.0279101007275564 6.328115074519471 #
edge $-1 $544 34.796130977276071 $547 42.374379206340556 $430 $599 forward 7 unknown #
vertex $-1 $444 $600 #
straight-curve $-1 -63.068394368615742 -0.8708762665239469 11.922056602935356 -1 0 0 I I #
edge $-1 $547 -1.1750868864773736 $441 5.2670131924800145 $440 $601 forward 7 unknown #
vertex $-1 $546 $602 #
straight-curve $-1 -56.530045472579104 -0.8708762665239469 4.3438083738708855 0.78801074757464917 0 0.61566148304635926 I I #
point $-1 -46.830330260994742 -0.8708762665239469 11.922056602935358 #
point $-1 -56.530045472579118 -7.312976345481335 4.3438083738708739 #
straight-curve $-1 -56.530045472579118 0 11.922056602935358 0 -1 0 I I #
vertex $-1 $447 $603 #
point $-1 -49.924671496283551 -4.091926306002641 7.5102432702909638 #
coedge $-1 $462 $461 $454 $555 forward $451 $-1 #
edge $-1 $556 34.796130977276071 $559 42.374379206340556 $554 $604 forward 7 unknown #
vertex $-1 $466 $605 #
straight-curve $-1 -63.068394368615742 9.7227475508678936 11.922056602935356 -1 0 0 I I #
edge $-1 $559 -6.4718987951732938 $463 -0.029798716215905685 $462 $606 forward 7 unknown #
vertex $-1 $558 $607 #
straight-curve $-1 -56.530045472579104 9.7227475508678936 4.3438083738708855 0.78801074757464917 0 0.61566148304635926 I I #
point $-1 -46.830330260994742 9.7227475508678936 11.922056602935358 #
point $-1 -56.530045472579118 3.2806474719105054 4.3438083738708739 #
straight-curve $-1 -56.530045472579118 0 11.922056602935358 0 -1 0 I I #
vertex $-1 $469 $608 #
point $-1 -49.924671496283551 6.5016975113891995 7.5102432702909638 #
straight-curve $-1 -56.530045472579118 27.275268193987284 0 0 0 -1 I I #
straight-curve $-1 0 27.275268193987284 -11.922056602935358 1 0 0 I I #
point $-1 56.530045472579118 27.275268193987284 -11.922056602935358 #
straight-curve $-1 -56.530045472579118 0 11.922056602935358 0 -1 0 I I #
point $-1 -56.530045472579118 27.275268193987284 11.922056602935358 #
straight-curve $-1 56.530045472579118 27.275268193987284 0 0 0 -1 I I #
point $-1 -56.530045472579118 27.275268193987284 -11.922056602935358 #
edge $-1 $575 -11.922056602935358 $500 11.922056602935358 $492 $609 forward 7 unknown #
straight-curve $-1 -34.185932266708406 -42.724699212397773 -11.922056602935358 -1 0 0 I I #
vertex $-1 $506 $610 #
straight-curve $-1 -34.185932266708406 -42.724699212397773 11.922056602935358 1 0 0 I I #
point $-1 -35.685932266708406 -42.724699212397773 11.922056602935358 #
point $-1 -35.685932266708406 -42.724699212397773 -11.922056602935358 #
point $-1 -32.685932266708406 -42.724699212397773 -11.922056602935358 #
straight-curve $-1 -32.685932266708406 -34.999983703192527 11.922056602935358 0 1 0 I I #
coedge $-1 $583 $510 $511 $582 reversed $380 $-1 #
edge $-1 $589 -56.530045472579118 $517 56.530045472579118 $581 $611 forward 7 unknown #
coedge $-1 $512 $581 $522 $588 reversed $380 $-1 #
straight-curve $-1 0 40.314928007011218 6.5446045615265565 -1 0 0 I I #
point $-1 56.530045472579118 40.314928007011218 6.5446045615265565 #
straight-curve $-1 56.530045472579118 40.314928007011218 4.6272590101947753 0 0 -1 I I #
point $-1 56.530045472579118 40.314928007011218 2.7099134588629941 #
edge $-1 $525 -1.9173455513317812 $589 1.9173455513317812 $583 $612 forward 7 unknown #
vertex $-1 $582 $613 #
straight-curve $-1 -56.530045472579118 33.795098100499246 2.7099134588629941 0 1 0 I I #
point $-1 -56.530045472579118 40.314928007011218 6.5446045615265565 #
straight-curve $-1 56.530045472579118 -3.9838178000931954 80.176181691852051 0 0 -1 I I #
point $-1 56.530045472579118 -3.9838178000931954 11.922056602935358 #
straight-curve $-1 56.530045472579118 -0.42574393104011321 3.9552535848334678 0 1 0 I I #
point $-1 56.530045472579118 -3.9838178000931954 3.9552535848334642 #
point $-1 49.254775076019286 -2.7308858248880092 6.1810993139392432 #
point $-1 49.254775076019286 -0.85148786208022642 6.1810993139392432 #
point $-1 49.254775076019286 1.0279101007275564 6.1810993139392432 #
straight-curve $-1 -56.530045472579118 -0.8708762665239469 46.718187580211428 0 0 -1 I I #
point $-1 -56.530045472579118 -0.8708762665239469 11.922056602935358 #
straight-curve $-1 -56.530045472579118 -2.0459631530013205 4.3438083738708722 0 -1 0 I I #
point $-1 -56.530045472579118 -0.8708762665239469 4.3438083738708739 #
point $-1 -50.097020760811844 -4.091926306002641 6.1065710396699551 #
straight-curve $-1 -56.530045472579118 9.7227475508678936 46.718187580211428 0 0 -1 I I #
point $-1 -56.530045472579118 9.7227475508678936 11.922056602935358 #
straight-curve $-1 -56.530045472579118 3.2508487556945997 4.3438083738708722 0 -1 0 I I #
point $-1 -56.530045472579118 9.7227475508678936 4.3438083738708739 #
point $-1 -50.097020760811844 6.5016975113891995 6.1065710396699551 #
straight-curve $-1 -32.685932266708406 -42.724699212397773 0 0 0 -1 I I #
point $-1 -32.685932266708406 -42.724699212397773 11.922056602935358 #
straight-curve $-1 0 40.314928007011218 2.7099134588629941 1 0 0 I I #
straight-curve $-1 -56.530045472579118 40.314928007011218 4.6272590101947753 0 0 -1 I I #
point $-1 -56.530045472579118 40.314928007011218 2.7099134588629941 #
End-of-ACIS-data 