500 0 11 0           
7 Unknown 11 ACIS 5.0 NT 24 Fri Mar 26 19:02:11 1999 
-1 9.9999999999999995e-007 1e-010 
body $-1 $11 $-1 $12 #
body $-1 $13 $-1 $14 #
body $-1 $15 $-1 $16 #
body $-1 $17 $-1 $18 #
body $-1 $19 $-1 $20 #
body $-1 $21 $-1 $22 #
body $-1 $23 $-1 $24 #
body $-1 $25 $-1 $26 #
body $-1 $27 $-1 $28 #
body $-1 $29 $-1 $30 #
body $-1 $31 $-1 $32 #
lump $-1 $-1 $33 $0 #
transform $-1 1 0 0 0 1 0 0 0 1 56.118655964842674 29.054895923104436 13.894867537603039 1 rotate no_reflect no_shear #
lump $-1 $-1 $34 $1 #
transform $-1 1 0 0 0 1 0 0 0 1 56.118655964842674 29.054895923104436 13.894867537603039 1 rotate no_reflect no_shear #
lump $-1 $-1 $35 $2 #
transform $-1 1 0 0 0 1 0 0 0 1 56.118655964842674 29.054895923104436 13.894867537603039 1 rotate no_reflect no_shear #
lump $-1 $-1 $36 $3 #
transform $-1 1 0 0 0 1 0 0 0 1 56.118655964842674 29.054895923104436 13.894867537603039 1 rotate no_reflect no_shear #
lump $-1 $-1 $37 $4 #
transform $-1 1 0 0 0 1 0 0 0 1 56.118655964842674 29.054895923104436 13.894867537603039 1 rotate no_reflect no_shear #
lump $-1 $-1 $38 $5 #
transform $-1 1 0 0 0 1 0 0 0 1 56.118655964842674 29.054895923104436 13.894867537603039 1 rotate no_reflect no_shear #
lump $-1 $-1 $39 $6 #
transform $-1 1 0 0 0 1 0 0 0 1 56.118655964842674 29.054895923104436 13.894867537603039 1 rotate no_reflect no_shear #
lump $-1 $-1 $40 $7 #
transform $-1 1 0 0 0 1 0 0 0 1 56.118655964842674 29.054895923104436 13.894867537603039 1 rotate no_reflect no_shear #
lump $-1 $-1 $41 $8 #
transform $-1 1 0 0 0 1 0 0 0 1 56.118655964842674 29.054895923104436 13.894867537603039 1 rotate no_reflect no_shear #
lump $-1 $-1 $42 $9 #
transform $-1 1 0 0 0 1 0 0 0 1 56.118655964842674 29.054895923104436 13.894867537603039 1 rotate no_reflect no_shear #
lump $-1 $-1 $43 $10 #
transform $-1 1 0 0 0 1 0 0 0 1 56.118655964842674 29.054895923104436 13.894867537603039 1 rotate no_reflect no_shear #
shell $-1 $-1 $-1 $44 $-1 $11 #
shell $-1 $-1 $-1 $45 $-1 $13 #
shell $-1 $-1 $-1 $46 $-1 $15 #
shell $-1 $-1 $-1 $47 $-1 $17 #
shell $-1 $-1 $-1 $48 $-1 $19 #
shell $-1 $-1 $-1 $49 $-1 $21 #
shell $-1 $-1 $-1 $50 $-1 $23 #
shell $-1 $-1 $-1 $51 $-1 $25 #
shell $-1 $-1 $-1 $52 $-1 $27 #
shell $-1 $-1 $-1 $53 $-1 $29 #
shell $-1 $-1 $-1 $54 $-1 $31 #
face $-1 $55 $56 $33 $-1 $57 forward single #
face $-1 $58 $59 $34 $-1 $60 reversed single #
face $-1 $61 $62 $35 $-1 $63 reversed single #
face $-1 $64 $65 $36 $-1 $66 forward single #
face $-1 $67 $68 $37 $-1 $69 forward single #
face $-1 $70 $71 $38 $-1 $72 reversed single #
face $-1 $73 $74 $39 $-1 $75 forward single #
face $-1 $76 $77 $40 $-1 $78 forward single #
face $-1 $79 $80 $41 $-1 $81 reversed single #
face $-1 $82 $83 $42 $-1 $84 forward single #
face $-1 $85 $86 $43 $-1 $87 forward single #
face $-1 $88 $89 $33 $-1 $90 reversed single #
loop $-1 $-1 $91 $44 #
plane-surface $-1 0 0 13.894867537603039 0 0 1 1 0 0 forward_v I I I I #
face $-1 $92 $93 $34 $-1 $94 reversed single #
loop $-1 $-1 $95 $45 #
plane-surface $-1 -49.913162409889452 -7.4238180089330594 0 0 1 0 0 0 1 forward_v I I I I #
face $-1 $96 $97 $35 $-1 $98 reversed single #
loop $-1 $-1 $99 $46 #
plane-surface $-1 35.911190225009562 75.638018365785015 125.66504287937579 1 0 0 0 -0.75470958851134928 -0.65605901945558964 forward_v I I I I #
face $-1 $100 $101 $36 $-1 $102 forward single #
loop $-1 $103 $104 $47 #
cone-surface $-1 41.684751864961882 25.630279285765795 10.219062238575818 0 -0.75470958851134928 -0.65605901945558964 1 0 0 1 I I 0 1 1 forward I I I I #
face $-1 $105 $106 $37 $-1 $107 forward single #
loop $-1 $108 $109 $48 #
cone-surface $-1 50.345094324890354 25.630279285765795 10.219062238575818 0 -0.75470958851134928 -0.65605901945558964 1 0 0 1 I I 0 1 1 forward I I I I #
face $-1 $110 $111 $38 $-1 $112 reversed single #
loop $-1 $-1 $113 $49 #
plane-surface $-1 -19.441974129748353 -113.76147142517722 76.433244715810901 -1 0 0 0 -0.75470958851134928 0.65605901945558964 forward_v I I I I #
face $-1 $114 $115 $39 $-1 $116 forward single #
loop $-1 $117 $118 $50 #
cone-surface $-1 -31.017560897060672 -22.227114533706128 6.6039755261532047 0 0.75470958851134928 -0.65605901945558964 1.5 0 0 1 I I 0 1 1.5 forward I I I I #
face $-1 $119 $120 $40 $-1 $121 forward single #
loop $-1 $122 $123 $51 #
cone-surface $-1 -24.072208836673283 -22.227114533706128 6.6039755261532047 0 0.75470958851134928 -0.65605901945558964 1.5 0 0 1 I I 0 1 1.5 forward I I I I #
face $-1 $124 $125 $41 $-1 $126 reversed single #
loop $-1 $-1 $127 $52 #
plane-surface $-1 48.058782713892043 -113.76147142517722 76.433244715810901 -1 0 0 0 -0.75470958851134928 0.65605901945558964 forward_v I I I I #
face $-1 $128 $129 $42 $-1 $130 forward single #
loop $-1 $131 $132 $53 #
cone-surface $-1 36.483195946579727 -22.227114533706128 6.6039755261532047 0 0.75470958851134928 -0.65605901945558964 1.5 0 0 1 I I 0 1 1.5 forward I I I I #
face $-1 $133 $134 $43 $-1 $135 forward single #
loop $-1 $136 $137 $54 #
cone-surface $-1 43.428548006967119 -22.227114533706128 6.6039755261532047 0 0.75470958851134928 -0.65605901945558964 1.5 0 0 1 I I 0 1 1.5 forward I I I I #
face $-1 $138 $139 $33 $-1 $140 reversed single #
loop $-1 $-1 $141 $55 #
plane-surface $-1 0 0 -13.894867537603039 0 0 1 1 0 0 forward_v I I I I #
coedge $-1 $142 $143 $144 $145 forward $56 $-1 #
face $-1 $146 $147 $34 $-1 $148 reversed single #
loop $-1 $-1 $149 $58 #
plane-surface $-1 -49.913162409889452 -1.2651608478983594 0 0 -1 0 0 0 -1 forward_v I I I I #
coedge $-1 $150 $151 $152 $153 reversed $59 $-1 #
face $-1 $154 $155 $35 $-1 $156 forward single #
loop $-1 $-1 $157 $61 #
plane-surface $-1 46.014923094926118 -9.0685571362877653 52.030742068455268 0 0.75470958851134928 0.65605901945558964 1 0 0 forward_v I I I I #
coedge $-1 $158 $159 $160 $161 reversed $62 $-1 #
face $-1 $-1 $162 $36 $-1 $163 forward single #
loop $-1 $164 $165 $64 #
cone-surface $-1 41.684751864961882 24.314529824463111 9.0752987107609346 0 -0.75470958851134928 -0.65605901945558964 0.5 0 0 1 I I -0.70710678118654746 0.70710678118654746 0.5 forward I I I I #
loop $-1 $-1 $166 $47 #
coedge $-1 $104 $104 $167 $168 reversed $65 $-1 #
face $-1 $-1 $169 $37 $-1 $170 forward single #
loop $-1 $171 $172 $67 #
cone-surface $-1 50.345094324890354 24.314529824463111 9.0752987107609346 0 -0.75470958851134928 -0.65605901945558964 0.5 0 0 1 I I -0.70710678118654746 0.70710678118654746 0.5 forward I I I I #
loop $-1 $-1 $173 $48 #
coedge $-1 $109 $109 $174 $175 reversed $68 $-1 #
face $-1 $176 $177 $38 $-1 $178 reversed single #
loop $-1 $-1 $179 $70 #
plane-surface $-1 -27.544884866866976 -29.054895923104439 2.798943904890379 0 -0.75470958851134928 0.65605901945558964 1 0 0 forward_v I I I I #
coedge $-1 $180 $181 $182 $183 reversed $71 $-1 #
face $-1 $-1 $184 $39 $-1 $185 forward single #
loop $-1 $186 $187 $73 #
cone-surface $-1 -31.017560897060672 -19.656070458735424 4.3690010664680177 0 0.75470958851134928 -0.65605901945558964 0.75 0 0 1 I I -0.70710678118654757 0.70710678118654757 0.75 forward I I I I #
loop $-1 $-1 $188 $50 #
coedge $-1 $118 $118 $189 $190 reversed $74 $-1 #
face $-1 $-1 $191 $40 $-1 $192 forward single #
loop $-1 $193 $194 $76 #
cone-surface $-1 -24.072208836673283 -19.656070458735424 4.3690010664680177 0 0.75470958851134928 -0.65605901945558964 0.75 0 0 1 I I -0.70710678118654757 0.70710678118654757 0.75 forward I I I I #
loop $-1 $-1 $195 $51 #
coedge $-1 $123 $123 $196 $197 reversed $77 $-1 #
face $-1 $198 $199 $41 $-1 $200 reversed single #
loop $-1 $-1 $201 $79 #
plane-surface $-1 39.955871976773423 -29.054895923104439 2.798943904890379 0 -0.75470958851134928 0.65605901945558964 1 0 0 forward_v I I I I #
coedge $-1 $202 $203 $204 $205 reversed $80 $-1 #
face $-1 $-1 $206 $42 $-1 $207 forward single #
loop $-1 $208 $209 $82 #
cone-surface $-1 36.483195946579727 -19.656070458735424 4.3690010664680177 0 0.75470958851134928 -0.65605901945558964 0.75 0 0 1 I I -0.70710678118654757 0.70710678118654757 0.75 forward I I I I #
loop $-1 $-1 $210 $53 #
coedge $-1 $132 $132 $211 $212 reversed $83 $-1 #
face $-1 $-1 $213 $43 $-1 $214 forward single #
loop $-1 $215 $216 $85 #
cone-surface $-1 43.428548006967119 -19.656070458735424 4.3690010664680177 0 0.75470958851134928 -0.65605901945558964 0.75 0 0 1 I I -0.70710678118654757 0.70710678118654757 0.75 forward I I I I #
loop $-1 $-1 $217 $54 #
coedge $-1 $137 $137 $218 $219 reversed $86 $-1 #
face $-1 $220 $221 $33 $-1 $222 reversed single #
loop $-1 $-1 $223 $88 #
plane-surface $-1 0 -29.054895923104436 0 0 1 0 0 0 1 forward_v I I I I #
coedge $-1 $224 $225 $226 $227 forward $89 $-1 #
coedge $-1 $228 $91 $229 $230 forward $56 $-1 #
coedge $-1 $91 $228 $231 $232 forward $56 $-1 #
coedge $-1 $233 $234 $91 $145 reversed $235 $-1 #
edge $-1 $236 -29.054895923104436 $237 29.054895923104436 $144 $238 forward 7 unknown #
face $-1 $239 $240 $34 $-1 $241 reversed single #
loop $-1 $-1 $242 $92 #
plane-surface $-1 -43.70766885493623 -4.3444894284157094 0 -1 0 0 0 0 1 forward_v I I I I #
coedge $-1 $243 $244 $245 $246 forward $93 $-1 #
coedge $-1 $247 $95 $248 $249 reversed $59 $-1 #
coedge $-1 $95 $247 $250 $251 reversed $59 $-1 #
coedge $-1 $252 $253 $95 $153 forward $254 $-1 #
edge $-1 $255 -13.894867537603039 $256 13.894867537603039 $152 $257 forward 7 unknown #
face $-1 $258 $259 $35 $-1 $260 reversed single #
loop $-1 $-1 $160 $96 #
plane-surface $-1 0 0 13.894867537603039 0 0 1 1 0 0 forward_v I I I I #
coedge $-1 $261 $262 $263 $264 reversed $97 $-1 #
coedge $-1 $159 $99 $265 $266 reversed $62 $-1 #
coedge $-1 $99 $158 $261 $267 reversed $62 $-1 #
coedge $-1 $263 $268 $99 $161 forward $155 $-1 #
edge $-1 $269 8.764113259788072 $270 13.736557200371301 $160 $271 forward 7 unknown #
loop $-1 $-1 $167 $100 #
plane-surface $-1 46.014923094926118 -9.0685571362877653 52.030742068455268 0 0.75470958851134928 0.65605901945558964 1 0 0 forward_v I I I I #
loop $-1 $-1 $272 $64 #
coedge $-1 $165 $165 $166 $273 reversed $101 $-1 #
coedge $-1 $166 $166 $165 $273 forward $103 $-1 #
coedge $-1 $167 $167 $104 $168 forward $162 $-1 #
edge $-1 $274 1.7523861305292527e-015 $274 6.2831853071796022 $167 $275 forward 7 unknown #
loop $-1 $-1 $174 $105 #
plane-surface $-1 46.014923094926118 -9.0685571362877653 52.030742068455268 0 0.75470958851134928 0.65605901945558964 1 0 0 forward_v I I I I #
loop $-1 $-1 $276 $67 #
coedge $-1 $172 $172 $173 $277 reversed $106 $-1 #
coedge $-1 $173 $173 $172 $277 forward $108 $-1 #
coedge $-1 $174 $174 $109 $175 forward $169 $-1 #
edge $-1 $278 1.7523861305292527e-015 $278 6.2831853071796022 $174 $279 forward 7 unknown #
face $-1 $280 $281 $38 $-1 $282 reversed single #
loop $-1 $-1 $283 $110 #
plane-surface $-1 -35.6477956039856 -113.76147142517722 76.433244715810901 1 0 0 0 0.75470958851134928 -0.65605901945558964 forward_v I I I I #
coedge $-1 $284 $285 $286 $287 reversed $111 $-1 #
coedge $-1 $181 $113 $288 $289 reversed $71 $-1 #
coedge $-1 $113 $180 $284 $290 reversed $71 $-1 #
coedge $-1 $286 $291 $113 $183 forward $292 $-1 #
edge $-1 $293 27.825839789484174 $294 37.47137880110639 $182 $295 forward 7 unknown #
loop $-1 $-1 $189 $114 #
plane-surface $-1 -27.544884866866976 -29.054895923104439 2.798943904890379 0 -0.75470958851134928 0.65605901945558964 1 0 0 forward_v I I I I #
loop $-1 $-1 $296 $73 #
coedge $-1 $187 $187 $188 $297 reversed $115 $-1 #
coedge $-1 $188 $188 $187 $297 forward $117 $-1 #
coedge $-1 $189 $189 $118 $190 forward $184 $-1 #
edge $-1 $298 1.9280124066368788e-016 $298 6.2831853071796004 $189 $299 forward 7 unknown #
loop $-1 $-1 $196 $119 #
plane-surface $-1 -27.544884866866976 -29.054895923104439 2.798943904890379 0 -0.75470958851134928 0.65605901945558964 1 0 0 forward_v I I I I #
loop $-1 $-1 $300 $76 #
coedge $-1 $194 $194 $195 $301 reversed $120 $-1 #
coedge $-1 $195 $195 $194 $301 forward $122 $-1 #
coedge $-1 $196 $196 $123 $197 forward $191 $-1 #
edge $-1 $302 1.9280124066368788e-016 $302 6.2831853071796004 $196 $303 forward 7 unknown #
face $-1 $304 $305 $41 $-1 $306 reversed single #
loop $-1 $-1 $307 $124 #
plane-surface $-1 31.8529612396548 -113.76147142517722 76.433244715810901 1 0 0 0 0.75470958851134928 -0.65605901945558964 forward_v I I I I #
coedge $-1 $308 $309 $310 $311 reversed $125 $-1 #
coedge $-1 $203 $127 $312 $313 reversed $80 $-1 #
coedge $-1 $127 $202 $308 $314 reversed $80 $-1 #
coedge $-1 $310 $315 $127 $205 forward $316 $-1 #
edge $-1 $317 27.825839789484174 $318 37.47137880110639 $204 $319 forward 7 unknown #
loop $-1 $-1 $211 $128 #
plane-surface $-1 39.955871976773423 -29.054895923104439 2.798943904890379 0 -0.75470958851134928 0.65605901945558964 1 0 0 forward_v I I I I #
loop $-1 $-1 $320 $82 #
coedge $-1 $209 $209 $210 $321 reversed $129 $-1 #
coedge $-1 $210 $210 $209 $321 forward $131 $-1 #
coedge $-1 $211 $211 $132 $212 forward $206 $-1 #
edge $-1 $322 1.9280124066368788e-016 $322 6.2831853071796004 $211 $323 forward 7 unknown #
loop $-1 $-1 $218 $133 #
plane-surface $-1 39.955871976773423 -29.054895923104439 2.798943904890379 0 -0.75470958851134928 0.65605901945558964 1 0 0 forward_v I I I I #
loop $-1 $-1 $324 $85 #
coedge $-1 $216 $216 $217 $325 reversed $134 $-1 #
coedge $-1 $217 $217 $216 $325 forward $136 $-1 #
coedge $-1 $218 $218 $137 $219 forward $213 $-1 #
edge $-1 $326 1.9280124066368788e-016 $326 6.2831853071796004 $218 $327 forward 7 unknown #
face $-1 $328 $329 $33 $-1 $330 reversed single #
loop $-1 $-1 $331 $138 #
plane-surface $-1 -56.118655964842674 0 0 1 0 0 0 0 -1 forward_v I I I I #
coedge $-1 $332 $231 $333 $334 forward $139 $-1 #
coedge $-1 $335 $141 $332 $336 forward $89 $-1 #
coedge $-1 $141 $335 $337 $338 forward $89 $-1 #
coedge $-1 $234 $233 $141 $227 reversed $235 $-1 #
edge $-1 $339 -29.054895923104436 $340 29.054895923104436 $226 $341 forward 7 unknown #
coedge $-1 $143 $142 $342 $343 forward $56 $-1 #
coedge $-1 $344 $345 $142 $230 reversed $329 $-1 #
edge $-1 $237 -56.118655964842674 $346 56.118655964842674 $229 $347 forward 7 unknown #
coedge $-1 $223 $348 $143 $232 reversed $139 $-1 #
edge $-1 $349 -56.118655964842674 $236 56.118655964842674 $231 $350 forward 7 unknown #
coedge $-1 $226 $144 $348 $351 forward $235 $-1 #
coedge $-1 $144 $226 $344 $352 reversed $235 $-1 #
loop $-1 $-1 $233 $328 #
vertex $-1 $145 $353 #
vertex $-1 $145 $354 #
straight-curve $-1 56.118655964842674 0 13.894867537603039 0 1 0 I I #
face $-1 $355 $356 $34 $-1 $357 forward single #
loop $-1 $-1 $358 $146 #
plane-surface $-1 0 0 -13.894867537603039 0 0 1 1 0 0 forward_v I I I I #
coedge $-1 $359 $360 $247 $361 forward $147 $-1 #
coedge $-1 $362 $149 $358 $363 reversed $93 $-1 #
coedge $-1 $149 $362 $364 $365 reversed $93 $-1 #
coedge $-1 $360 $359 $149 $246 reversed $147 $-1 #
edge $-1 $366 -13.894867537603039 $367 13.894867537603039 $245 $368 forward 7 unknown #
coedge $-1 $151 $150 $242 $361 reversed $59 $-1 #
coedge $-1 $369 $370 $150 $249 forward $240 $-1 #
edge $-1 $371 18.751087649991504 $255 31.162074759897948 $248 $372 forward 7 unknown #
coedge $-1 $373 $374 $151 $251 forward $356 $-1 #
edge $-1 $256 -31.162074759897948 $375 -18.751087649991504 $250 $376 forward 7 unknown #
coedge $-1 $377 $152 $374 $378 reversed $254 $-1 #
coedge $-1 $152 $377 $369 $379 reversed $254 $-1 #
loop $-1 $-1 $377 $355 #
vertex $-1 $379 $380 #
vertex $-1 $153 $381 #
straight-curve $-1 -56.118655964842674 -7.4238180089330594 0 0 0 1 I I #
face $-1 $-1 $382 $35 $-1 $383 reversed single #
loop $-1 $-1 $384 $154 #
plane-surface $-1 56.118655964842674 0 0 -1 0 0 0 0 1 forward_v I I I I #
coedge $-1 $385 $157 $159 $267 forward $97 $-1 #
coedge $-1 $157 $385 $384 $386 reversed $97 $-1 #
coedge $-1 $387 $160 $157 $264 forward $155 $-1 #
edge $-1 $270 12.903728677546503 $388 33.111194417379615 $263 $389 forward 7 unknown #
coedge $-1 $390 $391 $158 $266 forward $382 $-1 #
edge $-1 $392 -54.657796463965077 $269 -48.937653902084854 $265 $393 forward 7 unknown #
edge $-1 $270 50.530528711149067 $392 58.109791846208871 $159 $394 forward 7 unknown #
coedge $-1 $160 $387 $390 $395 forward $155 $-1 #
vertex $-1 $266 $396 #
vertex $-1 $161 $397 #
straight-curve $-1 35.911190225009562 37.819009182892508 13.894867537603041 0 -1 0 I I #
coedge $-1 $272 $272 $-1 $398 reversed $164 $-1 #
edge $-1 $399 0 $399 6.2831853071796004 $165 $400 forward 7 unknown #
vertex $-1 $168 $401 #
ellipse-curve $-1 41.684751864961882 26.568673952812826 11.034796256662926 0 0.75470958851134928 0.65605901945558964 1 0 0 1 I I #
coedge $-1 $276 $276 $-1 $402 reversed $171 $-1 #
edge $-1 $403 0 $403 6.2831853071796004 $172 $404 forward 7 unknown #
vertex $-1 $175 $405 #
ellipse-curve $-1 50.345094324890354 26.568673952812826 11.034796256662926 0 0.75470958851134928 0.65605901945558964 1 0 0 1 I I #
face $-1 $-1 $292 $38 $-1 $406 forward single #
loop $-1 $-1 $407 $176 #
plane-surface $-1 0 -29.054895923104436 0 0 1 0 0 0 1 forward_v I I I I #
coedge $-1 $408 $409 $410 $411 reversed $177 $-1 #
coedge $-1 $412 $179 $181 $290 forward $111 $-1 #
coedge $-1 $179 $412 $408 $413 forward $111 $-1 #
coedge $-1 $410 $182 $179 $287 forward $292 $-1 #
edge $-1 $294 5.6695316963148645 $414 21.87535317055211 $286 $415 forward 7 unknown #
coedge $-1 $416 $417 $180 $289 forward $281 $-1 #
edge $-1 $418 -35.417678453015064 $293 -24.321754820302409 $288 $419 forward 7 unknown #
edge $-1 $294 -14.702242825083443 $418 -5.3472153159747578e-015 $181 $420 forward 7 unknown #
coedge $-1 $182 $410 $416 $421 forward $292 $-1 #
loop $-1 $-1 $410 $280 #
vertex $-1 $289 $422 #
vertex $-1 $183 $423 #
straight-curve $-1 -19.441974129748353 -56.88073571258861 13.894867537603041 0 1 0 I I #
coedge $-1 $296 $296 $-1 $424 reversed $186 $-1 #
edge $-1 $425 0 $425 6.2831853071796004 $187 $426 forward 7 unknown #
vertex $-1 $190 $427 #
ellipse-curve $-1 -31.017560897060672 -24.23212641729333 8.3469057212467082 0 -0.75470958851134928 0.65605901945558964 1.5 0 0 1 I I #
coedge $-1 $300 $300 $-1 $428 reversed $193 $-1 #
edge $-1 $429 0 $429 6.2831853071796004 $194 $430 forward 7 unknown #
vertex $-1 $197 $431 #
ellipse-curve $-1 -24.072208836673283 -24.23212641729333 8.3469057212467082 0 -0.75470958851134928 0.65605901945558964 1.5 0 0 1 I I #
face $-1 $-1 $316 $41 $-1 $432 forward single #
loop $-1 $-1 $433 $198 #
plane-surface $-1 0 -29.054895923104436 0 0 1 0 0 0 1 forward_v I I I I #
coedge $-1 $434 $435 $436 $437 reversed $199 $-1 #
coedge $-1 $438 $201 $203 $314 forward $125 $-1 #
coedge $-1 $201 $438 $434 $439 forward $125 $-1 #
coedge $-1 $436 $204 $201 $311 forward $316 $-1 #
edge $-1 $318 -28.080846725505332 $440 -11.875025251268088 $310 $441 forward 7 unknown #
coedge $-1 $442 $443 $202 $313 forward $305 $-1 #
edge $-1 $444 -35.417678453015064 $317 -24.321754820302409 $312 $445 forward 7 unknown #
edge $-1 $318 -14.702242825083443 $444 -5.3472153159747578e-015 $203 $446 forward 7 unknown #
coedge $-1 $204 $436 $442 $447 forward $316 $-1 #
loop $-1 $-1 $436 $304 #
vertex $-1 $313 $448 #
vertex $-1 $205 $449 #
straight-curve $-1 48.058782713892043 -56.88073571258861 13.894867537603041 0 1 0 I I #
coedge $-1 $320 $320 $-1 $450 reversed $208 $-1 #
edge $-1 $451 0 $451 6.2831853071796004 $209 $452 forward 7 unknown #
vertex $-1 $212 $453 #
ellipse-curve $-1 36.483195946579727 -24.23212641729333 8.3469057212467082 0 -0.75470958851134928 0.65605901945558964 1.5 0 0 1 I I #
coedge $-1 $324 $324 $-1 $454 reversed $215 $-1 #
edge $-1 $455 0 $455 6.2831853071796004 $216 $456 forward 7 unknown #
vertex $-1 $219 $457 #
ellipse-curve $-1 43.428548006967119 -24.23212641729333 8.3469057212467082 0 -0.75470958851134928 0.65605901945558964 1.5 0 0 1 I I #
face $-1 $-1 $235 $33 $-1 $458 reversed single #
loop $-1 $-1 $344 $220 #
plane-surface $-1 0 29.054895923104436 0 0 -1 0 0 0 -1 forward_v I I I I #
coedge $-1 $459 $342 $345 $460 forward $221 $-1 #
coedge $-1 $348 $223 $224 $336 reversed $139 $-1 #
coedge $-1 $342 $459 $223 $334 reversed $221 $-1 #
edge $-1 $349 -13.894867537603039 $461 13.894867537603039 $333 $462 forward 7 unknown #
coedge $-1 $225 $224 $459 $463 forward $89 $-1 #
edge $-1 $340 -56.118655964842674 $461 56.118655964842674 $332 $464 forward 7 unknown #
coedge $-1 $345 $344 $225 $338 reversed $329 $-1 #
edge $-1 $465 -56.118655964842674 $339 56.118655964842674 $337 $466 forward 7 unknown #
vertex $-1 $227 $467 #
vertex $-1 $351 $468 #
straight-curve $-1 56.118655964842674 0 -13.894867537603039 0 -1 0 I I #
coedge $-1 $331 $333 $228 $343 reversed $221 $-1 #
edge $-1 $346 -29.054895923104436 $349 29.054895923104436 $342 $469 forward 7 unknown #
coedge $-1 $337 $229 $234 $352 forward $329 $-1 #
coedge $-1 $229 $337 $331 $460 reversed $329 $-1 #
vertex $-1 $230 $470 #
straight-curve $-1 0 29.054895923104436 13.894867537603039 -1 0 0 I I #
coedge $-1 $231 $332 $233 $351 reversed $139 $-1 #
vertex $-1 $343 $471 #
straight-curve $-1 0 -29.054895923104436 13.894867537603039 1 0 0 I I #
edge $-1 $236 -13.894867537603039 $340 13.894867537603039 $233 $472 forward 7 unknown #
edge $-1 $237 -13.894867537603039 $339 13.894867537603039 $234 $473 forward 7 unknown #
point $-1 56.118655964842674 -29.054895923104436 13.894867537603039 #
point $-1 56.118655964842674 29.054895923104436 13.894867537603039 #
face $-1 $-1 $254 $34 $-1 $474 reversed single #
loop $-1 $-1 $364 $239 #
plane-surface $-1 0 0 13.894867537603039 0 0 1 1 0 0 forward_v I I I I #
coedge $-1 $370 $369 $243 $363 forward $240 $-1 #
coedge $-1 $245 $242 $370 $475 reversed $147 $-1 #
coedge $-1 $242 $245 $373 $476 reversed $147 $-1 #
edge $-1 $375 -13.894867537603039 $371 13.894867537603039 $242 $477 forward 7 unknown #
coedge $-1 $244 $243 $377 $478 reversed $93 $-1 #
edge $-1 $479 -31.162074759897948 $367 -18.751087649991504 $358 $480 forward 7 unknown #
coedge $-1 $374 $373 $244 $365 forward $356 $-1 #
edge $-1 $366 18.751087649991504 $481 31.162074759897948 $364 $482 forward 7 unknown #
vertex $-1 $365 $483 #
vertex $-1 $363 $484 #
straight-curve $-1 -43.70766885493623 -1.2651608478983594 0 0 0 -1 I I #
coedge $-1 $358 $248 $253 $379 forward $240 $-1 #
coedge $-1 $248 $358 $359 $475 forward $240 $-1 #
vertex $-1 $249 $485 #
straight-curve $-1 -24.956581204944726 -7.4238180089330594 -13.894867537603039 -1 0 0 I I #
coedge $-1 $364 $250 $360 $476 forward $356 $-1 #
coedge $-1 $250 $364 $252 $378 forward $356 $-1 #
vertex $-1 $251 $486 #
straight-curve $-1 -24.956581204944726 -7.4238180089330594 13.894867537603039 1 0 0 I I #
coedge $-1 $253 $252 $362 $478 forward $254 $-1 #
edge $-1 $481 1.2651608478983594 $256 7.4238180089330594 $252 $487 forward 7 unknown #
edge $-1 $255 -7.4238180089330594 $479 -1.2651608478983594 $253 $488 forward 7 unknown #
point $-1 -56.118655964842674 -7.4238180089330594 -13.894867537603039 #
point $-1 -56.118655964842674 -7.4238180089330594 13.894867537603039 #
loop $-1 $-1 $265 $258 #
plane-surface $-1 0 29.054895923104436 0 0 -1 0 0 0 -1 forward_v I I I I #
coedge $-1 $489 $490 $262 $386 forward $259 $-1 #
coedge $-1 $262 $261 $391 $491 reversed $97 $-1 #
edge $-1 $388 27.921724391582075 $492 35.500987526641879 $384 $493 forward 7 unknown #
coedge $-1 $268 $263 $490 $494 forward $155 $-1 #
vertex $-1 $494 $495 #
straight-curve $-1 23.007461547463059 24.082451982521206 13.894867537603037 1 0 0 I I #
coedge $-1 $496 $265 $268 $395 reversed $382 $-1 #
coedge $-1 $265 $496 $385 $491 forward $382 $-1 #
vertex $-1 $266 $497 #
straight-curve $-1 35.911190225009562 29.054895923104436 62.832521439687895 0 0 1 I I #
straight-curve $-1 35.911190225009562 -9.0685571362877653 52.030742068455268 0 0.65605901945558964 -0.75470958851134928 I I #
edge $-1 $498 -56.118655964842674 $269 -35.911190225009562 $390 $499 forward 7 unknown #
point $-1 35.911190225009562 29.054895923104436 13.894867537603039 #
point $-1 35.911190225009562 24.082451982521206 13.894867537603041 #
edge $-1 $500 1 $500 0 $272 $-1 forward 7 unknown #
vertex $-1 $273 $501 #
ellipse-curve $-1 41.684751864961882 24.691884618718785 9.4033282204887296 0 0.75470958851134928 0.65605901945558964 1 0 0 1 I I #
point $-1 42.684751864961882 26.568673952812809 11.034796256662908 #
edge $-1 $502 1 $502 0 $276 $-1 forward 7 unknown #
vertex $-1 $277 $503 #
ellipse-curve $-1 50.345094324890354 24.691884618718785 9.4033282204887296 0 0.75470958851134928 0.65605901945558964 1 0 0 1 I I #
point $-1 51.345094324890354 26.568673952812809 11.034796256662908 #
plane-surface $-1 0 0 13.894867537603039 0 0 1 1 0 0 forward_v I I I I #
coedge $-1 $417 $416 $409 $504 forward $281 $-1 #
coedge $-1 $409 $283 $285 $413 reversed $177 $-1 #
coedge $-1 $283 $408 $407 $504 reversed $177 $-1 #
coedge $-1 $291 $286 $283 $411 forward $292 $-1 #
edge $-1 $414 -37.47137880110639 $505 -27.825839789484174 $410 $506 forward 7 unknown #
coedge $-1 $285 $284 $417 $507 reversed $111 $-1 #
edge $-1 $508 5.3472153159747578e-015 $414 14.702242825083443 $408 $509 forward 7 unknown #
vertex $-1 $287 $510 #
straight-curve $-1 -13.772442433433488 -19.409356911482217 13.894867537603039 -1 0 0 I I #
coedge $-1 $407 $288 $291 $421 reversed $281 $-1 #
coedge $-1 $288 $407 $412 $507 forward $281 $-1 #
vertex $-1 $289 $511 #
straight-curve $-1 -19.441974129748353 -29.054895923104439 38.21662235790545 0 0 1 I I #
straight-curve $-1 -19.441974129748353 -29.054895923104439 2.798943904890379 0 -0.65605901945558964 -0.75470958851134928 I I #
edge $-1 $505 -35.6477956039856 $293 -19.441974129748353 $416 $512 forward 7 unknown #
point $-1 -19.441974129748353 -29.054895923104436 13.894867537603039 #
point $-1 -19.441974129748353 -19.40935691148222 13.894867537603039 #
edge $-1 $513 1 $513 0 $296 $-1 forward 7 unknown #
vertex $-1 $297 $514 #
ellipse-curve $-1 -31.017560897060672 -20.222102650118938 4.8610453310597102 0 -0.75470958851134928 0.65605901945558964 1.5 0 0 1 I I #
point $-1 -29.517560897060672 -24.232126417293319 8.3469057212466993 #
edge $-1 $515 1 $515 0 $300 $-1 forward 7 unknown #
vertex $-1 $301 $516 #
ellipse-curve $-1 -24.072208836673283 -20.222102650118938 4.8610453310597102 0 -0.75470958851134928 0.65605901945558964 1.5 0 0 1 I I #
point $-1 -22.572208836673283 -24.232126417293319 8.3469057212466993 #
plane-surface $-1 0 0 13.894867537603039 0 0 1 1 0 0 forward_v I I I I #
coedge $-1 $443 $442 $435 $517 forward $305 $-1 #
coedge $-1 $435 $307 $309 $439 reversed $199 $-1 #
coedge $-1 $307 $434 $433 $517 reversed $199 $-1 #
coedge $-1 $315 $310 $307 $437 forward $316 $-1 #
edge $-1 $440 -37.47137880110639 $518 -27.825839789484174 $436 $519 forward 7 unknown #
coedge $-1 $309 $308 $443 $520 reversed $125 $-1 #
edge $-1 $521 5.3472153159747578e-015 $440 14.702242825083443 $434 $522 forward 7 unknown #
vertex $-1 $311 $523 #
straight-curve $-1 19.977935988386712 -19.409356911482217 13.894867537603039 -1 0 0 I I #
coedge $-1 $433 $312 $315 $447 reversed $305 $-1 #
coedge $-1 $312 $433 $438 $520 forward $305 $-1 #
vertex $-1 $313 $524 #
straight-curve $-1 48.058782713892043 -29.054895923104439 38.21662235790545 0 0 1 I I #
straight-curve $-1 48.058782713892043 -29.054895923104439 2.798943904890379 0 -0.65605901945558964 -0.75470958851134928 I I #
edge $-1 $518 31.8529612396548 $317 48.058782713892043 $442 $525 forward 7 unknown #
point $-1 48.058782713892043 -29.054895923104436 13.894867537603039 #
point $-1 48.058782713892043 -19.40935691148222 13.894867537603039 #
edge $-1 $526 1 $526 0 $320 $-1 forward 7 unknown #
vertex $-1 $321 $527 #
ellipse-curve $-1 36.483195946579727 -20.222102650118938 4.8610453310597102 0 -0.75470958851134928 0.65605901945558964 1.5 0 0 1 I I #
point $-1 37.983195946579727 -24.232126417293319 8.3469057212466993 #
edge $-1 $528 1 $528 0 $324 $-1 forward 7 unknown #
vertex $-1 $325 $529 #
ellipse-curve $-1 43.428548006967119 -20.222102650118938 4.8610453310597102 0 -0.75470958851134928 0.65605901945558964 1.5 0 0 1 I I #
point $-1 44.928548006967119 -24.232126417293319 8.3469057212466993 #
plane-surface $-1 56.118655964842674 0 0 -1 0 0 0 0 1 forward_v I I I I #
coedge $-1 $333 $331 $335 $463 reversed $221 $-1 #
edge $-1 $346 -13.894867537603039 $465 13.894867537603039 $345 $530 forward 7 unknown #
vertex $-1 $463 $531 #
straight-curve $-1 -56.118655964842674 -29.054895923104436 0 0 0 -1 I I #
edge $-1 $461 -29.054895923104436 $465 29.054895923104436 $459 $532 forward 7 unknown #
straight-curve $-1 0 -29.054895923104436 -13.894867537603039 -1 0 0 I I #
vertex $-1 $338 $533 #
straight-curve $-1 0 29.054895923104436 -13.894867537603039 1 0 0 I I #
point $-1 56.118655964842674 29.054895923104436 -13.894867537603039 #
point $-1 56.118655964842674 -29.054895923104436 -13.894867537603039 #
straight-curve $-1 -56.118655964842674 0 13.894867537603039 0 -1 0 I I #
point $-1 -56.118655964842674 29.054895923104436 13.894867537603039 #
point $-1 -56.118655964842674 -29.054895923104436 13.894867537603039 #
straight-curve $-1 56.118655964842674 -29.054895923104436 0 0 0 -1 I I #
straight-curve $-1 56.118655964842674 29.054895923104436 0 0 0 -1 I I #
plane-surface $-1 -56.118655964842674 0 0 1 0 0 0 0 -1 forward_v I I I I #
edge $-1 $367 -0.90708386630949533 $371 5.2515732947252047 $370 $534 forward 7 unknown #
edge $-1 $375 -5.2515732947252047 $366 0.90708386630949533 $373 $535 forward 7 unknown #
straight-curve $-1 -43.70766885493623 -7.4238180089330594 0 0 0 -1 I I #
edge $-1 $481 -13.894867537603039 $479 13.894867537603039 $377 $536 forward 7 unknown #
vertex $-1 $478 $537 #
straight-curve $-1 -24.956581204944726 -1.2651608478983594 -13.894867537603039 1 0 0 I I #
vertex $-1 $378 $538 #
straight-curve $-1 -24.956581204944726 -1.2651608478983594 13.894867537603039 -1 0 0 I I #
point $-1 -43.70766885493623 -1.2651608478983594 13.894867537603039 #
point $-1 -43.70766885493623 -1.2651608478983594 -13.894867537603039 #
point $-1 -43.70766885493623 -7.4238180089330594 -13.894867537603039 #
point $-1 -43.70766885493623 -7.4238180089330594 13.894867537603039 #
straight-curve $-1 -56.118655964842674 0 13.894867537603039 0 -1 0 I I #
straight-curve $-1 -56.118655964842674 0 -13.894867537603039 0 1 0 I I #
coedge $-1 $490 $384 $496 $539 reversed $259 $-1 #
coedge $-1 $384 $489 $387 $494 reversed $259 $-1 #
edge $-1 $492 -33.111194417379615 $392 -12.903728677546503 $391 $540 forward 7 unknown #
vertex $-1 $386 $541 #
straight-curve $-1 56.118655964842674 5.7641528566706519 34.967660663701253 0 0.65605901945558975 -0.75470958851134939 I I #
edge $-1 $388 24.082451982521206 $498 29.054895923104436 $490 $542 forward 7 unknown #
point $-1 56.118655964842674 24.082451982521206 13.894867537603041 #
coedge $-1 $391 $390 $489 $539 forward $382 $-1 #
point $-1 35.911190225009562 29.054895923104439 8.1747249757228175 #
vertex $-1 $494 $543 #
straight-curve $-1 0 29.054895923104436 13.894867537603039 -1 0 0 I I #
vertex $-1 $398 $544 #
point $-1 42.684751864961882 24.691884618718785 9.4033282204887296 #
vertex $-1 $402 $545 #
point $-1 51.345094324890354 24.691884618718785 9.4033282204887296 #
edge $-1 $505 24.321754820302409 $508 35.417678453015064 $407 $546 forward 7 unknown #
vertex $-1 $421 $547 #
straight-curve $-1 -35.6477956039856 -56.88073571258861 13.894867537603041 0 -1 0 I I #
edge $-1 $508 -21.87535317055211 $418 -5.6695316963148645 $417 $548 forward 7 unknown #
vertex $-1 $507 $549 #
straight-curve $-1 -35.6477956039856 -29.054895923104439 2.798943904890379 0 0.65605901945558964 0.75470958851134928 I I #
point $-1 -35.6477956039856 -19.40935691148222 13.894867537603039 #
point $-1 -19.441974129748353 -29.054895923104436 2.798943904890383 #
straight-curve $-1 0 -29.054895923104436 13.894867537603039 1 0 0 I I #
vertex $-1 $424 $550 #
point $-1 -29.517560897060672 -20.222102650118938 4.8610453310597102 #
vertex $-1 $428 $551 #
point $-1 -22.572208836673283 -20.222102650118938 4.8610453310597102 #
edge $-1 $518 24.321754820302409 $521 35.417678453015064 $433 $552 forward 7 unknown #
vertex $-1 $447 $553 #
straight-curve $-1 31.8529612396548 -56.88073571258861 13.894867537603041 0 -1 0 I I #
edge $-1 $521 11.875025251268088 $444 28.080846725505332 $443 $554 forward 7 unknown #
vertex $-1 $520 $555 #
straight-curve $-1 31.8529612396548 -29.054895923104439 2.798943904890379 0 0.65605901945558964 0.75470958851134928 I I #
point $-1 31.8529612396548 -19.40935691148222 13.894867537603039 #
point $-1 48.058782713892043 -29.054895923104436 2.798943904890383 #
straight-curve $-1 0 -29.054895923104436 13.894867537603039 1 0 0 I I #
vertex $-1 $450 $556 #
point $-1 37.983195946579727 -20.222102650118938 4.8610453310597102 #
vertex $-1 $454 $557 #
point $-1 44.928548006967119 -20.222102650118938 4.8610453310597102 #
straight-curve $-1 -56.118655964842674 29.054895923104436 0 0 0 -1 I I #
point $-1 -56.118655964842674 -29.054895923104436 -13.894867537603039 #
straight-curve $-1 -56.118655964842674 0 -13.894867537603039 0 1 0 I I #
point $-1 -56.118655964842674 29.054895923104436 -13.894867537603039 #
straight-curve $-1 -43.70766885493623 -2.1722447142078547 -13.894867537603039 0 -1 0 I I #
straight-curve $-1 -43.70766885493623 -2.1722447142078547 13.894867537603039 0 1 0 I I #
straight-curve $-1 -56.118655964842674 -1.2651608478983594 0 0 0 -1 I I #
point $-1 -56.118655964842674 -1.2651608478983594 -13.894867537603039 #
point $-1 -56.118655964842674 -1.2651608478983594 13.894867537603039 #
edge $-1 $498 -13.894867537603039 $492 -8.1747249757228175 $489 $558 forward 7 unknown #
straight-curve $-1 23.007461547463059 29.054895923104436 8.1747249757228246 -1 0 0 I I #
point $-1 56.118655964842674 29.054895923104439 8.1747249757228175 #
straight-curve $-1 56.118655964842674 0 13.894867537603039 0 1 0 I I #
point $-1 56.118655964842674 29.054895923104436 13.894867537603039 #
point $-1 41.684751864961882 23.937175030207438 8.7472692010331397 #
point $-1 50.345094324890354 23.937175030207438 8.7472692010331397 #
straight-curve $-1 -35.6477956039856 -29.054895923104439 38.21662235790545 0 0 -1 I I #
point $-1 -35.6477956039856 -29.054895923104436 13.894867537603039 #
straight-curve $-1 -13.772442433433488 -29.054895923104436 2.7989439048903857 1 0 0 I I #
point $-1 -35.6477956039856 -29.054895923104436 2.798943904890383 #
point $-1 -31.017560897060672 -19.090038267351911 3.8769568018763252 #
point $-1 -24.072208836673283 -19.090038267351911 3.8769568018763252 #
straight-curve $-1 31.8529612396548 -29.054895923104439 38.21662235790545 0 0 -1 I I #
point $-1 31.8529612396548 -29.054895923104436 13.894867537603039 #
straight-curve $-1 19.977935988386712 -29.054895923104436 2.7989439048903857 1 0 0 I I #
point $-1 31.8529612396548 -29.054895923104436 2.798943904890383 #
point $-1 36.483195946579727 -19.090038267351911 3.8769568018763252 #
point $-1 43.428548006967119 -19.090038267351911 3.8769568018763252 #
straight-curve $-1 56.118655964842674 29.054895923104436 0 0 0 -1 I I #
End-of-ACIS-data 