500 0 7 0           
7 Unknown 11 ACIS 5.0 NT 24 Fri Mar 26 03:16:51 1999 
-1 9.9999999999999995e-007 1e-010 
body $-1 $7 $-1 $8 #
body $-1 $9 $-1 $10 #
body $-1 $11 $-1 $12 #
body $-1 $13 $-1 $14 #
body $-1 $15 $-1 $16 #
body $-1 $17 $-1 $18 #
body $-1 $19 $-1 $20 #
lump $-1 $-1 $21 $0 #
transform $-1 1 0 0 0 1 0 0 0 1 63.722647785882138 38.139269740360255 8.5751958359982936 1 rotate no_reflect no_shear #
lump $-1 $-1 $22 $1 #
transform $-1 1 0 0 0 1 0 0 0 1 63.722647785882138 38.139269740360255 8.5751958359982936 1 rotate no_reflect no_shear #
lump $-1 $-1 $23 $2 #
transform $-1 1 0 0 0 1 0 0 0 1 63.722647785882138 38.139269740360255 8.5751958359982936 1 rotate no_reflect no_shear #
lump $-1 $-1 $24 $3 #
transform $-1 1 0 0 0 1 0 0 0 1 63.722647785882138 38.139269740360255 8.5751958359982936 1 rotate no_reflect no_shear #
lump $-1 $-1 $25 $4 #
transform $-1 1 0 0 0 1 0 0 0 1 63.722647785882138 38.139269740360255 8.5751958359982936 1 rotate no_reflect no_shear #
lump $-1 $-1 $26 $5 #
transform $-1 1 0 0 0 1 0 0 0 1 63.722647785882138 38.139269740360255 8.5751958359982936 1 rotate no_reflect no_shear #
lump $-1 $-1 $27 $6 #
transform $-1 1 0 0 0 1 0 0 0 1 63.722647785882138 38.139269740360255 8.5751958359982936 1 rotate no_reflect no_shear #
shell $-1 $-1 $-1 $28 $-1 $7 #
shell $-1 $-1 $-1 $29 $-1 $9 #
shell $-1 $-1 $-1 $30 $-1 $11 #
shell $-1 $-1 $-1 $31 $-1 $13 #
shell $-1 $-1 $-1 $32 $-1 $15 #
shell $-1 $-1 $-1 $33 $-1 $17 #
shell $-1 $-1 $-1 $34 $-1 $19 #
face $-1 $35 $36 $21 $-1 $37 reversed single #
face $-1 $38 $39 $22 $-1 $40 forward single #
face $-1 $41 $42 $23 $-1 $43 forward single #
face $-1 $44 $45 $24 $-1 $46 reversed single #
face $-1 $47 $48 $25 $-1 $49 forward single #
face $-1 $50 $51 $26 $-1 $52 reversed single #
face $-1 $53 $54 $27 $-1 $55 forward single #
face $-1 $56 $57 $21 $-1 $58 forward single #
loop $-1 $-1 $59 $28 #
plane-surface $-1 63.722647785882138 0 0 -1 0 0 0 0 1 forward_v I I I I #
face $-1 $60 $61 $22 $-1 $62 reversed single #
loop $-1 $-1 $63 $29 #
plane-surface $-1 -63.722647785882138 0 0 1 0 0 0 0 -1 forward_v I I I I #
face $-1 $64 $65 $23 $-1 $66 reversed single #
loop $-1 $-1 $67 $30 #
plane-surface $-1 63.722647785882138 0 0 -1 0 0 0 0 1 forward_v I I I I #
face $-1 $68 $69 $24 $-1 $70 reversed single #
loop $-1 $-1 $71 $31 #
plane-surface $-1 55.005468040802668 -114.83776421649208 103.04125308916366 -1 0 0 0 -0.6018150307709319 0.79863550430605224 forward_v I I I I #
face $-1 $72 $73 $25 $-1 $74 forward single #
loop $-1 $75 $76 $32 #
cone-surface $-1 39.343170077379334 -30.136038027490326 0.73856881579432887 0 0.6018150307709319 -0.79863550430605224 3 0 0 1 I I 0 1 3 forward I I I I #
face $-1 $77 $78 $26 $-1 $79 reversed single #
loop $-1 $-1 $80 $33 #
plane-surface $-1 23.680872113955971 53.919014370577734 148.94682467391519 1 0 0 0 -0.6018150307709319 -0.79863550430605224 forward_v I I I I #
face $-1 $81 $82 $27 $-1 $83 forward single #
loop $-1 $84 $85 $34 #
cone-surface $-1 39.343170077379334 30.136038027490319 0.7385688157943191 0 -0.6018150307709319 -0.79863550430605224 3 0 0 1 I I 0 1 3 forward I I I I #
face $-1 $86 $87 $21 $-1 $88 reversed single #
loop $-1 $-1 $89 $35 #
plane-surface $-1 0 0 8.5751958359982936 0 0 1 1 0 0 forward_v I I I I #
coedge $-1 $90 $91 $92 $93 reversed $36 $-1 #
face $-1 $94 $95 $22 $-1 $96 forward single #
loop $-1 $-1 $97 $38 #
plane-surface $-1 0 38.139269740360255 0 0 -1 0 0 0 -1 forward_v I I I I #
coedge $-1 $98 $99 $100 $101 forward $39 $-1 #
face $-1 $102 $103 $23 $-1 $104 forward single #
loop $-1 $-1 $105 $41 #
plane-surface $-1 0 -38.139269740360255 0 0 1 0 0 0 1 forward_v I I I I #
coedge $-1 $106 $107 $108 $109 forward $42 $-1 #
face $-1 $110 $111 $24 $-1 $112 reversed single #
loop $-1 $-1 $113 $44 #
plane-surface $-1 39.34317007737932 -38.139269740360248 1.2589151887738126 0 -0.6018150307709319 0.79863550430605224 1 0 0 forward_v I I I I #
coedge $-1 $114 $115 $116 $117 reversed $45 $-1 #
face $-1 $-1 $118 $25 $-1 $119 forward single #
loop $-1 $120 $121 $47 #
cone-surface $-1 39.343170077379334 -26.08459984531882 -4.6378711372564725 0 0.6018150307709319 -0.79863550430605224 1.5 0 0 1 I I -0.70710678118654757 0.70710678118654757 1.5 forward I I I I #
loop $-1 $-1 $122 $32 #
coedge $-1 $76 $76 $123 $124 reversed $48 $-1 #
face $-1 $125 $126 $26 $-1 $127 reversed single #
loop $-1 $-1 $128 $50 #
plane-surface $-1 39.34317007737932 -22.779480105554093 47.16448677352534 0 0.6018150307709319 0.79863550430605224 1 0 0 forward_v I I I I #
coedge $-1 $129 $130 $131 $132 reversed $51 $-1 #
face $-1 $-1 $133 $27 $-1 $134 forward single #
loop $-1 $135 $136 $53 #
cone-surface $-1 39.343170077379334 26.084599845318813 -4.6378711372564823 0 -0.6018150307709319 -0.79863550430605224 1.5 0 0 1 I I -0.70710678118654757 0.70710678118654757 1.5 forward I I I I #
loop $-1 $-1 $137 $34 #
coedge $-1 $85 $85 $138 $139 reversed $54 $-1 #
face $-1 $140 $141 $21 $-1 $142 reversed single #
loop $-1 $-1 $143 $56 #
plane-surface $-1 0 0 -8.5751958359982936 0 0 1 1 0 0 forward_v I I I I #
coedge $-1 $144 $145 $90 $146 forward $57 $-1 #
coedge $-1 $147 $59 $89 $146 reversed $36 $-1 #
coedge $-1 $59 $147 $143 $148 reversed $36 $-1 #
coedge $-1 $149 $150 $59 $93 forward $151 $-1 #
edge $-1 $152 -8.5751958359982936 $153 8.5751958359982936 $59 $154 forward 7 unknown #
face $-1 $155 $156 $22 $-1 $157 reversed single #
loop $-1 $-1 $100 $60 #
plane-surface $-1 -68.08123765842187 0 5.7051656434872404 0 0 1 1 0 0 forward_v I I I I #
coedge $-1 $158 $159 $99 $160 forward $61 $-1 #
coedge $-1 $161 $63 $162 $163 reversed $39 $-1 #
coedge $-1 $63 $161 $97 $160 reversed $39 $-1 #
coedge $-1 $164 $165 $63 $101 reversed $95 $-1 #
edge $-1 $166 -38.139269740360255 $167 38.139269740360255 $100 $168 forward 7 unknown #
face $-1 $169 $170 $23 $-1 $171 reversed single #
loop $-1 $-1 $172 $64 #
plane-surface $-1 68.081237658421855 0 5.7051656434872404 0 0 1 1 0 0 forward_v I I I I #
coedge $-1 $173 $174 $107 $175 forward $65 $-1 #
coedge $-1 $176 $67 $177 $178 reversed $42 $-1 #
coedge $-1 $67 $176 $105 $175 reversed $42 $-1 #
coedge $-1 $179 $180 $67 $109 reversed $103 $-1 #
edge $-1 $181 -38.139269740360255 $182 38.139269740360255 $108 $183 forward 7 unknown #
face $-1 $184 $185 $24 $-1 $186 forward single #
loop $-1 $-1 $187 $68 #
plane-surface $-1 23.680872113955971 -114.83776421649208 103.04125308916366 1 0 0 0 0.6018150307709319 -0.79863550430605224 forward_v I I I I #
coedge $-1 $188 $189 $190 $191 reversed $69 $-1 #
coedge $-1 $115 $71 $192 $193 reversed $45 $-1 #
coedge $-1 $71 $114 $188 $194 reversed $45 $-1 #
coedge $-1 $190 $195 $71 $117 forward $185 $-1 #
edge $-1 $196 19.279612367885782 $197 28.988644521595429 $116 $198 forward 7 unknown #
loop $-1 $-1 $123 $72 #
plane-surface $-1 39.34317007737932 -38.139269740360248 1.2589151887738126 0 -0.6018150307709319 0.79863550430605224 1 0 0 forward_v I I I I #
loop $-1 $-1 $199 $47 #
coedge $-1 $121 $121 $122 $200 reversed $73 $-1 #
coedge $-1 $122 $122 $121 $200 forward $75 $-1 #
coedge $-1 $123 $123 $76 $124 forward $118 $-1 #
edge $-1 $201 0 $201 6.2831853071796004 $123 $202 forward 7 unknown #
face $-1 $203 $204 $26 $-1 $205 reversed single #
loop $-1 $-1 $206 $77 #
plane-surface $-1 55.005468040802668 53.919014370577734 148.94682467391519 -1 0 0 0 0.6018150307709319 0.79863550430605224 forward_v I I I I #
coedge $-1 $207 $208 $209 $210 reversed $78 $-1 #
coedge $-1 $130 $80 $211 $212 reversed $51 $-1 #
coedge $-1 $80 $129 $207 $213 reversed $51 $-1 #
coedge $-1 $209 $214 $80 $132 forward $215 $-1 #
edge $-1 $216 -11.179762555071388 $217 -1.4707304013617026 $131 $218 forward 7 unknown #
loop $-1 $-1 $138 $81 #
plane-surface $-1 39.34317007737932 -22.779480105554093 47.16448677352534 0 0.6018150307709319 0.79863550430605224 1 0 0 forward_v I I I I #
loop $-1 $-1 $219 $53 #
coedge $-1 $136 $136 $137 $220 reversed $82 $-1 #
coedge $-1 $137 $137 $136 $220 forward $84 $-1 #
coedge $-1 $138 $138 $85 $139 forward $133 $-1 #
edge $-1 $221 -6.8354597251099225e-017 $221 6.2831853071796004 $138 $222 forward 7 unknown #
face $-1 $223 $224 $21 $-1 $225 reversed single #
loop $-1 $-1 $226 $86 #
plane-surface $-1 0 -38.139269740360255 0 0 1 0 0 0 1 forward_v I I I I #
coedge $-1 $227 $228 $91 $148 forward $87 $-1 #
coedge $-1 $229 $89 $150 $230 forward $57 $-1 #
coedge $-1 $89 $229 $231 $232 forward $57 $-1 #
edge $-1 $233 -38.139269740360255 $152 38.139269740360255 $90 $234 forward 7 unknown #
coedge $-1 $91 $90 $235 $236 forward $36 $-1 #
edge $-1 $153 -38.139269740360255 $237 38.139269740360255 $91 $238 forward 7 unknown #
coedge $-1 $239 $92 $228 $240 reversed $151 $-1 #
coedge $-1 $92 $239 $144 $230 reversed $151 $-1 #
loop $-1 $-1 $92 $223 #
vertex $-1 $146 $241 #
vertex $-1 $148 $242 #
straight-curve $-1 63.722647785882138 38.139269740360255 0 0 0 -1 I I #
face $-1 $243 $244 $22 $-1 $245 reversed single #
loop $-1 $-1 $246 $94 #
plane-surface $-1 -68.08123765842187 0 0.56528218579585232 0 0 1 1 0 0 forward_v I I I I #
coedge $-1 $247 $97 $248 $249 reversed $61 $-1 #
coedge $-1 $97 $247 $164 $250 reversed $61 $-1 #
edge $-1 $166 -5.7051656434872404 $251 -0.56528218579585232 $97 $252 forward 7 unknown #
coedge $-1 $99 $98 $246 $253 forward $39 $-1 #
coedge $-1 $254 $255 $98 $163 forward $256 $-1 #
edge $-1 $257 0.56528218579585232 $167 5.7051656434872404 $162 $258 forward 7 unknown #
coedge $-1 $259 $100 $159 $250 forward $95 $-1 #
coedge $-1 $100 $259 $254 $260 forward $95 $-1 #
vertex $-1 $160 $261 #
vertex $-1 $260 $262 #
straight-curve $-1 -63.722647785882138 0 5.7051656434872404 0 -1 0 I I #
face $-1 $263 $264 $23 $-1 $265 reversed single #
loop $-1 $-1 $266 $102 #
plane-surface $-1 68.081237658421855 0 0.56528218579585232 0 0 1 1 0 0 forward_v I I I I #
coedge $-1 $180 $179 $267 $268 forward $103 $-1 #
coedge $-1 $269 $105 $270 $271 reversed $65 $-1 #
coedge $-1 $105 $269 $179 $272 reversed $65 $-1 #
edge $-1 $181 -5.7051656434872404 $273 -0.56528218579585232 $105 $274 forward 7 unknown #
coedge $-1 $107 $106 $275 $276 forward $42 $-1 #
coedge $-1 $277 $278 $106 $178 forward $279 $-1 #
edge $-1 $280 0.56528218579585232 $182 5.7051656434872404 $177 $281 forward 7 unknown #
coedge $-1 $172 $108 $174 $272 forward $103 $-1 #
coedge $-1 $108 $172 $277 $282 forward $103 $-1 #
vertex $-1 $175 $283 #
vertex $-1 $282 $284 #
straight-curve $-1 63.722647785882138 0 5.7051656434872404 0 1 0 I I #
face $-1 $-1 $285 $24 $-1 $286 reversed single #
loop $-1 $-1 $116 $110 #
plane-surface $-1 0 0 8.5751958359982936 0 0 1 1 0 0 forward_v I I I I #
coedge $-1 $287 $288 $289 $290 reversed $111 $-1 #
coedge $-1 $291 $113 $115 $194 forward $69 $-1 #
coedge $-1 $113 $291 $287 $292 forward $69 $-1 #
coedge $-1 $289 $116 $113 $191 forward $185 $-1 #
edge $-1 $197 -35.333883002113012 $293 -4.009287075266311 $190 $294 forward 7 unknown #
coedge $-1 $295 $296 $114 $193 forward $285 $-1 #
edge $-1 $297 -50.261711355808025 $196 -42.945430708583537 $192 $298 forward 7 unknown #
edge $-1 $197 -12.157025453239749 $297 8.8817612989391469e-015 $115 $299 forward 7 unknown #
coedge $-1 $116 $289 $295 $300 forward $185 $-1 #
vertex $-1 $193 $301 #
vertex $-1 $117 $302 #
straight-curve $-1 55.005468040802668 -57.418882108246038 8.5751958359982936 0 1 0 I I #
coedge $-1 $199 $199 $-1 $303 reversed $120 $-1 #
edge $-1 $304 0 $304 6.2831853071796004 $121 $305 forward 7 unknown #
vertex $-1 $124 $306 #
ellipse-curve $-1 39.343170077379334 -33.284753663505434 4.9170555123860504 0 -0.6018150307709319 0.79863550430605224 3 0 0 1 I I #
face $-1 $-1 $215 $26 $-1 $307 forward single #
loop $-1 $-1 $308 $125 #
plane-surface $-1 0 38.139269740360255 0 0 -1 0 0 0 -1 forward_v I I I I #
coedge $-1 $309 $310 $311 $312 reversed $126 $-1 #
coedge $-1 $313 $128 $130 $213 forward $78 $-1 #
coedge $-1 $128 $313 $309 $314 forward $78 $-1 #
coedge $-1 $311 $131 $128 $210 forward $215 $-1 #
edge $-1 $217 4.009287075266311 $315 35.333883002113012 $209 $316 forward 7 unknown #
coedge $-1 $317 $318 $129 $212 forward $204 $-1 #
edge $-1 $319 -73.214497148183824 $216 -65.898216500959307 $211 $320 forward 7 unknown #
edge $-1 $217 64.121514027480714 $319 76.278539480720539 $130 $321 forward 7 unknown #
coedge $-1 $131 $311 $317 $322 forward $215 $-1 #
loop $-1 $-1 $311 $203 #
vertex $-1 $212 $323 #
vertex $-1 $132 $324 #
straight-curve $-1 23.680872113955971 26.959507185288867 8.5751958359983007 0 -1 0 I I #
coedge $-1 $219 $219 $-1 $325 reversed $135 $-1 #
edge $-1 $326 0 $326 6.2831853071796004 $136 $327 forward 7 unknown #
vertex $-1 $139 $328 #
ellipse-curve $-1 39.343170077379334 33.28475366350542 4.9170555123860309 0 0.6018150307709319 0.79863550430605224 3 0 0 1 I I #
face $-1 $-1 $151 $21 $-1 $329 reversed single #
loop $-1 $-1 $330 $140 #
plane-surface $-1 -63.722647785882138 0 0 1 0 0 0 0 -1 forward_v I I I I #
coedge $-1 $331 $231 $330 $332 forward $141 $-1 #
coedge $-1 $333 $143 $331 $334 forward $87 $-1 #
coedge $-1 $143 $333 $149 $240 forward $87 $-1 #
coedge $-1 $145 $144 $335 $336 forward $57 $-1 #
edge $-1 $152 -63.722647785882138 $337 63.722647785882138 $150 $338 forward 7 unknown #
coedge $-1 $226 $235 $145 $232 reversed $141 $-1 #
edge $-1 $339 -63.722647785882138 $233 63.722647785882138 $231 $340 forward 7 unknown #
vertex $-1 $146 $341 #
straight-curve $-1 63.722647785882138 0 8.5751958359982936 0 1 0 I I #
coedge $-1 $231 $331 $147 $236 reversed $141 $-1 #
edge $-1 $233 -8.5751958359982936 $237 8.5751958359982936 $147 $342 forward 7 unknown #
vertex $-1 $236 $343 #
straight-curve $-1 63.722647785882138 0 -8.5751958359982936 0 -1 0 I I #
coedge $-1 $150 $149 $344 $345 reversed $151 $-1 #
edge $-1 $346 -63.722647785882138 $153 63.722647785882138 $149 $347 forward 7 unknown #
point $-1 63.722647785882138 38.139269740360255 8.5751958359982936 #
point $-1 63.722647785882138 38.139269740360255 -8.5751958359982936 #
face $-1 $-1 $256 $22 $-1 $348 reversed single #
loop $-1 $-1 $349 $155 #
plane-surface $-1 -72.439827530961594 0 3.1352239146415464 1 0 0 0 0 -1 forward_v I I I I #
coedge $-1 $350 $248 $161 $253 reversed $156 $-1 #
coedge $-1 $159 $158 $349 $351 reversed $61 $-1 #
coedge $-1 $246 $352 $158 $249 forward $156 $-1 #
edge $-1 $353 -4.3585898725397243 $251 4.3585898725397314 $158 $354 forward 7 unknown #
edge $-1 $166 -4.3585898725397314 $355 4.3585898725397243 $159 $356 forward 7 unknown #
vertex $-1 $160 $357 #
straight-curve $-1 -63.722647785882138 38.139269740360255 0 0 0 -1 I I #
edge $-1 $257 -38.139269740360255 $251 38.139269740360255 $246 $358 forward 7 unknown #
coedge $-1 $359 $162 $165 $260 reversed $256 $-1 #
coedge $-1 $162 $359 $350 $360 reversed $256 $-1 #
loop $-1 $-1 $162 $243 #
vertex $-1 $163 $361 #
straight-curve $-1 -63.722647785882138 -38.139269740360255 0 0 0 1 I I #
coedge $-1 $165 $164 $362 $363 forward $95 $-1 #
edge $-1 $364 -4.3585898725397243 $167 4.3585898725397314 $254 $365 forward 7 unknown #
point $-1 -63.722647785882138 38.139269740360255 5.7051656434872404 #
point $-1 -63.722647785882138 -38.139269740360255 5.7051656434872404 #
face $-1 $-1 $279 $23 $-1 $366 reversed single #
loop $-1 $-1 $367 $169 #
plane-surface $-1 72.439827530961594 0 3.1352239146415464 -1 0 0 0 0 1 forward_v I I I I #
coedge $-1 $270 $368 $369 $370 forward $170 $-1 #
coedge $-1 $367 $371 $172 $268 reversed $264 $-1 #
edge $-1 $372 -38.139269740360255 $373 38.139269740360255 $267 $374 forward 7 unknown #
coedge $-1 $174 $173 $367 $375 reversed $65 $-1 #
coedge $-1 $275 $266 $173 $271 forward $170 $-1 #
edge $-1 $376 -4.3585898725397385 $273 4.3585898725397314 $173 $377 forward 7 unknown #
edge $-1 $181 -4.3585898725397314 $372 4.3585898725397385 $174 $378 forward 7 unknown #
vertex $-1 $175 $379 #
straight-curve $-1 63.722647785882138 -38.139269740360255 0 0 0 -1 I I #
coedge $-1 $368 $270 $176 $276 reversed $170 $-1 #
edge $-1 $280 -38.139269740360255 $273 38.139269740360255 $275 $380 forward 7 unknown #
coedge $-1 $381 $177 $180 $282 reversed $279 $-1 #
coedge $-1 $177 $381 $368 $382 reversed $279 $-1 #
loop $-1 $-1 $177 $263 #
vertex $-1 $178 $383 #
straight-curve $-1 63.722647785882138 38.139269740360255 0 0 0 1 I I #
edge $-1 $373 -4.3585898725397385 $182 4.3585898725397314 $277 $384 forward 7 unknown #
point $-1 63.722647785882124 -38.139269740360255 5.7051656434872404 #
point $-1 63.722647785882124 38.139269740360255 5.7051656434872404 #
loop $-1 $-1 $192 $184 #
plane-surface $-1 0 -38.139269740360255 0 0 1 0 0 0 1 forward_v I I I I #
coedge $-1 $288 $187 $189 $292 reversed $111 $-1 #
coedge $-1 $187 $287 $385 $386 reversed $111 $-1 #
coedge $-1 $195 $190 $187 $290 forward $185 $-1 #
edge $-1 $293 -28.988644521595429 $387 -19.279612367885782 $289 $388 forward 7 unknown #
coedge $-1 $189 $188 $296 $389 reversed $69 $-1 #
edge $-1 $390 -8.8817612989391469e-015 $293 12.157025453239749 $287 $391 forward 7 unknown #
vertex $-1 $191 $392 #
straight-curve $-1 19.67158503868966 -28.430237586650613 8.5751958359982936 -1 0 0 I I #
coedge $-1 $385 $192 $195 $300 reversed $285 $-1 #
coedge $-1 $192 $385 $291 $389 forward $285 $-1 #
vertex $-1 $193 $393 #
straight-curve $-1 55.005468040802668 -38.139269740360255 51.52062654458183 0 0 1 I I #
straight-curve $-1 55.005468040802668 -38.139269740360248 1.2589151887738126 0 -0.79863550430605224 -0.6018150307709319 I I #
edge $-1 $387 23.680872113955971 $196 55.005468040802668 $295 $394 forward 7 unknown #
point $-1 55.005468040802668 -38.139269740360255 8.5751958359982936 #
point $-1 55.005468040802668 -28.430237586650609 8.5751958359982936 #
edge $-1 $395 1 $395 0 $199 $-1 forward 7 unknown #
vertex $-1 $200 $396 #
ellipse-curve $-1 39.343170077379334 -26.987322391475217 -3.439917880797394 0 -0.6018150307709319 0.79863550430605224 3 0 0 1 I I #
point $-1 42.343170077379334 -33.284753663505434 4.9170555123860504 #
plane-surface $-1 0 0 8.5751958359982936 0 0 1 1 0 0 forward_v I I I I #
coedge $-1 $318 $317 $310 $397 forward $204 $-1 #
coedge $-1 $310 $206 $208 $314 reversed $126 $-1 #
coedge $-1 $206 $309 $308 $397 reversed $126 $-1 #
coedge $-1 $214 $209 $206 $312 forward $215 $-1 #
edge $-1 $315 1.4707304013617026 $398 11.179762555071388 $311 $399 forward 7 unknown #
coedge $-1 $208 $207 $318 $400 reversed $78 $-1 #
edge $-1 $401 -76.278539480720539 $315 -64.121514027480714 $309 $402 forward 7 unknown #
vertex $-1 $210 $403 #
straight-curve $-1 19.67158503868966 28.430237586650573 8.5751958359982936 1 0 0 I I #
coedge $-1 $308 $211 $214 $322 reversed $204 $-1 #
coedge $-1 $211 $308 $313 $400 forward $204 $-1 #
vertex $-1 $212 $404 #
straight-curve $-1 23.680872113955971 38.139269740360255 74.473412336957594 0 0 1 I I #
straight-curve $-1 23.680872113955971 -22.779480105554093 47.16448677352534 0 0.79863550430605224 -0.6018150307709319 I I #
edge $-1 $398 -55.005468040802668 $216 -23.680872113955971 $317 $405 forward 7 unknown #
point $-1 23.680872113955971 38.139269740360255 8.5751958359982936 #
point $-1 23.680872113955971 28.43023758665057 8.5751958359982936 #
edge $-1 $406 1 $406 0 $219 $-1 forward 7 unknown #
vertex $-1 $220 $407 #
ellipse-curve $-1 39.343170077379334 26.98732239147521 -3.4399178807974038 0 0.6018150307709319 0.79863550430605224 3 0 0 1 I I #
point $-1 42.343170077379334 33.284753663505427 4.9170555123860407 #
plane-surface $-1 0 38.139269740360255 0 0 -1 0 0 0 -1 forward_v I I I I #
coedge $-1 $335 $408 $226 $332 reversed $224 $-1 #
coedge $-1 $235 $226 $227 $334 reversed $141 $-1 #
edge $-1 $339 -8.5751958359982936 $409 8.5751958359982936 $330 $410 forward 7 unknown #
coedge $-1 $228 $227 $408 $411 forward $87 $-1 #
edge $-1 $237 -63.722647785882138 $409 63.722647785882138 $331 $412 forward 7 unknown #
coedge $-1 $344 $330 $229 $336 reversed $224 $-1 #
edge $-1 $337 -38.139269740360255 $339 38.139269740360255 $335 $413 forward 7 unknown #
vertex $-1 $230 $414 #
straight-curve $-1 0 38.139269740360255 8.5751958359982936 -1 0 0 I I #
vertex $-1 $336 $415 #
straight-curve $-1 0 -38.139269740360255 8.5751958359982936 1 0 0 I I #
point $-1 63.722647785882138 -38.139269740360255 8.5751958359982936 #
straight-curve $-1 63.722647785882138 -38.139269740360255 0 0 0 -1 I I #
point $-1 63.722647785882138 -38.139269740360255 -8.5751958359982936 #
coedge $-1 $408 $335 $239 $345 forward $224 $-1 #
edge $-1 $337 -8.5751958359982936 $346 8.5751958359982936 $239 $416 forward 7 unknown #
vertex $-1 $240 $417 #
straight-curve $-1 0 38.139269740360255 -8.5751958359982936 1 0 0 I I #
plane-surface $-1 0 -38.139269740360255 0 0 1 0 0 0 1 forward_v I I I I #
coedge $-1 $418 $362 $247 $351 forward $244 $-1 #
coedge $-1 $352 $246 $255 $360 forward $156 $-1 #
edge $-1 $355 -2.5699417288456941 $353 2.5699417288456941 $247 $419 forward 7 unknown #
coedge $-1 $248 $350 $418 $420 forward $156 $-1 #
vertex $-1 $249 $421 #
straight-curve $-1 -68.08123765842187 38.139269740360255 0.56528218579585232 1 0 0 I I #
vertex $-1 $250 $422 #
straight-curve $-1 -68.08123765842187 38.139269740360255 5.7051656434872404 -1 0 0 I I #
point $-1 -63.722647785882138 38.139269740360255 0.56528218579585232 #
straight-curve $-1 -63.722647785882138 0 0.56528218579585232 0 1 0 I I #
coedge $-1 $255 $254 $423 $424 forward $256 $-1 #
edge $-1 $257 -4.3585898725397314 $425 4.3585898725397243 $255 $426 forward 7 unknown #
point $-1 -63.722647785882138 -38.139269740360255 0.56528218579585232 #
coedge $-1 $349 $423 $259 $363 reversed $244 $-1 #
edge $-1 $355 -38.139269740360255 $364 38.139269740360255 $362 $427 forward 7 unknown #
vertex $-1 $363 $428 #
straight-curve $-1 -68.08123765842187 -38.139269740360255 5.7051656434872404 1 0 0 I I #
plane-surface $-1 0 38.139269740360255 0 0 -1 0 0 0 -1 forward_v I I I I #
coedge $-1 $369 $267 $269 $375 forward $264 $-1 #
coedge $-1 $266 $275 $278 $382 forward $170 $-1 #
coedge $-1 $371 $367 $266 $370 reversed $264 $-1 #
edge $-1 $429 -38.139269740360255 $376 38.139269740360255 $369 $430 forward 7 unknown #
coedge $-1 $267 $369 $381 $431 reversed $264 $-1 #
vertex $-1 $268 $432 #
vertex $-1 $268 $433 #
straight-curve $-1 72.439827530961594 0 5.7051656434872404 0 1 0 I I #
edge $-1 $372 -2.5699417288456941 $376 2.5699417288456941 $367 $434 forward 7 unknown #
vertex $-1 $375 $435 #
straight-curve $-1 68.081237658421855 -38.139269740360255 0.56528218579585232 -1 0 0 I I #
straight-curve $-1 68.081237658421855 -38.139269740360255 5.7051656434872404 1 0 0 I I #
point $-1 63.722647785882124 -38.139269740360255 0.56528218579585232 #
straight-curve $-1 63.722647785882138 0 0.56528218579585232 0 -1 0 I I #
coedge $-1 $278 $277 $371 $431 forward $279 $-1 #
edge $-1 $280 -4.3585898725397314 $429 4.3585898725397385 $278 $436 forward 7 unknown #
point $-1 63.722647785882124 38.139269740360255 0.56528218579585232 #
straight-curve $-1 68.081237658421855 38.139269740360255 5.7051656434872404 -1 0 0 I I #
coedge $-1 $296 $295 $288 $386 forward $285 $-1 #
edge $-1 $387 42.945430708583537 $390 50.261711355808025 $385 $437 forward 7 unknown #
vertex $-1 $300 $438 #
straight-curve $-1 23.680872113955971 -57.418882108246038 8.5751958359982936 0 -1 0 I I #
edge $-1 $390 4.009287075266311 $297 35.333883002113012 $296 $439 forward 7 unknown #
vertex $-1 $389 $440 #
straight-curve $-1 23.680872113955971 -38.139269740360248 1.2589151887738126 0 0.79863550430605224 0.6018150307709319 I I #
point $-1 23.680872113955971 -28.430237586650609 8.5751958359982936 #
point $-1 55.005468040802668 -38.139269740360255 1.2589151887738073 #
straight-curve $-1 0 -38.139269740360255 8.5751958359982936 1 0 0 I I #
vertex $-1 $303 $441 #
point $-1 42.343170077379334 -26.987322391475217 -3.439917880797394 #
edge $-1 $398 65.898216500959307 $401 73.214497148183824 $308 $442 forward 7 unknown #
vertex $-1 $322 $443 #
straight-curve $-1 55.005468040802668 26.959507185288867 8.5751958359983007 0 1 0 I I #
edge $-1 $401 -35.333883002113012 $319 -4.009287075266311 $318 $444 forward 7 unknown #
vertex $-1 $400 $445 #
straight-curve $-1 55.005468040802668 -22.779480105554093 47.16448677352534 0 -0.79863550430605224 0.6018150307709319 I I #
point $-1 55.005468040802668 28.43023758665057 8.5751958359982936 #
point $-1 23.680872113955971 38.139269740360263 1.25891518877377 #
straight-curve $-1 0 38.139269740360255 8.5751958359982936 -1 0 0 I I #
vertex $-1 $325 $446 #
point $-1 42.343170077379334 26.98732239147521 -3.4399178807974038 #
coedge $-1 $330 $344 $333 $411 reversed $224 $-1 #
vertex $-1 $411 $447 #
straight-curve $-1 -63.722647785882138 -38.139269740360255 0 0 0 -1 I I #
edge $-1 $409 -38.139269740360255 $346 38.139269740360255 $408 $448 forward 7 unknown #
straight-curve $-1 0 -38.139269740360255 -8.5751958359982936 -1 0 0 I I #
straight-curve $-1 -63.722647785882138 0 8.5751958359982936 0 -1 0 I I #
point $-1 -63.722647785882138 38.139269740360255 8.5751958359982936 #
point $-1 -63.722647785882138 -38.139269740360255 8.5751958359982936 #
straight-curve $-1 -63.722647785882138 38.139269740360255 0 0 0 -1 I I #
point $-1 -63.722647785882138 38.139269740360255 -8.5751958359982936 #
coedge $-1 $423 $349 $352 $420 reversed $244 $-1 #
straight-curve $-1 -72.439827530961594 38.139269740360255 3.1352239146415464 0 0 -1 I I #
edge $-1 $425 -38.139269740360255 $353 38.139269740360255 $418 $449 forward 7 unknown #
point $-1 -72.439827530961594 38.139269740360255 0.56528218579585232 #
point $-1 -72.439827530961594 38.139269740360255 5.7051656434872404 #
coedge $-1 $362 $418 $359 $424 reversed $244 $-1 #
edge $-1 $364 -2.5699417288456941 $425 2.5699417288456941 $423 $450 forward 7 unknown #
vertex $-1 $420 $451 #
straight-curve $-1 -68.08123765842187 -38.139269740360255 0.56528218579585232 -1 0 0 I I #
straight-curve $-1 -72.439827530961594 0 5.7051656434872404 0 -1 0 I I #
point $-1 -72.439827530961594 -38.139269740360255 5.7051656434872404 #
vertex $-1 $370 $452 #
straight-curve $-1 72.439827530961594 0 0.56528218579585232 0 -1 0 I I #
edge $-1 $373 -2.5699417288456941 $429 2.5699417288456941 $371 $453 forward 7 unknown #
point $-1 72.439827530961594 -38.139269740360255 5.7051656434872404 #
point $-1 72.439827530961594 38.139269740360255 5.7051656434872404 #
straight-curve $-1 72.439827530961594 -38.139269740360255 3.1352239146415464 0 0 -1 I I #
point $-1 72.439827530961594 -38.139269740360255 0.56528218579585232 #
straight-curve $-1 68.081237658421855 38.139269740360255 0.56528218579585232 1 0 0 I I #
straight-curve $-1 23.680872113955971 -38.139269740360255 51.52062654458183 0 0 -1 I I #
point $-1 23.680872113955971 -38.139269740360255 8.5751958359982936 #
straight-curve $-1 19.67158503868966 -38.139269740360255 1.2589151887738057 1 0 0 I I #
point $-1 23.680872113955971 -38.139269740360255 1.2589151887738073 #
point $-1 39.343170077379334 -25.181877299162423 -5.8358243937155514 #
straight-curve $-1 55.005468040802668 38.139269740360255 74.473412336957594 0 0 -1 I I #
point $-1 55.005468040802668 38.139269740360255 8.5751958359982936 #
straight-curve $-1 19.67158503868966 38.139269740360255 1.2589151887737806 -1 0 0 I I #
point $-1 55.005468040802668 38.139269740360263 1.25891518877377 #
point $-1 39.343170077379334 25.181877299162416 -5.8358243937155603 #
point $-1 -63.722647785882138 -38.139269740360255 -8.5751958359982936 #
straight-curve $-1 -63.722647785882138 0 -8.5751958359982936 0 1 0 I I #
straight-curve $-1 -72.439827530961594 0 0.56528218579585232 0 1 0 I I #
straight-curve $-1 -72.439827530961594 -38.139269740360255 3.1352239146415464 0 0 -1 I I #
point $-1 -72.439827530961594 -38.139269740360255 0.56528218579585232 #
point $-1 72.439827530961594 38.139269740360255 0.56528218579585232 #
straight-curve $-1 72.439827530961594 38.139269740360255 3.1352239146415464 0 0 -1 I I #
End-of-ACIS-data 