500 0 6 0           
7 Unknown 11 ACIS 5.0 NT 24 Thu Mar 25 15:07:29 1999 
-1 9.9999999999999995e-007 1e-010 
body $-1 $6 $-1 $7 #
body $-1 $8 $-1 $9 #
body $-1 $10 $-1 $11 #
body $-1 $12 $-1 $13 #
body $-1 $14 $-1 $15 #
body $-1 $16 $-1 $17 #
lump $-1 $-1 $18 $0 #
transform $-1 1 0 0 0 1 0 0 0 1 75.035248878444776 35.890605049954679 16.547773822830756 1 rotate no_reflect no_shear #
lump $-1 $-1 $19 $1 #
transform $-1 1 0 0 0 1 0 0 0 1 75.035248878444776 35.890605049954679 16.547773822830756 1 rotate no_reflect no_shear #
lump $-1 $-1 $20 $2 #
transform $-1 1 0 0 0 1 0 0 0 1 75.035248878444776 35.890605049954679 16.547773822830756 1 rotate no_reflect no_shear #
lump $-1 $-1 $21 $3 #
transform $-1 1 0 0 0 1 0 0 0 1 75.035248878444776 35.890605049954679 16.547773822830756 1 rotate no_reflect no_shear #
lump $-1 $-1 $22 $4 #
transform $-1 1 0 0 0 1 0 0 0 1 75.035248878444776 35.890605049954679 16.547773822830756 1 rotate no_reflect no_shear #
lump $-1 $-1 $23 $5 #
transform $-1 1 0 0 0 1 0 0 0 1 75.035248878444776 35.890605049954679 16.547773822830756 1 rotate no_reflect no_shear #
shell $-1 $-1 $-1 $24 $-1 $6 #
shell $-1 $-1 $-1 $25 $-1 $8 #
shell $-1 $-1 $-1 $26 $-1 $10 #
shell $-1 $-1 $-1 $27 $-1 $12 #
shell $-1 $-1 $-1 $28 $-1 $14 #
shell $-1 $-1 $-1 $29 $-1 $16 #
face $-1 $30 $31 $18 $-1 $32 forward single #
face $-1 $33 $34 $19 $-1 $35 forward single #
face $-1 $36 $37 $20 $-1 $38 forward single #
face $-1 $39 $40 $21 $-1 $41 reversed single #
face $-1 $42 $43 $22 $-1 $44 forward single #
face $-1 $45 $46 $23 $-1 $47 forward single #
face $-1 $48 $49 $18 $-1 $50 reversed single #
loop $-1 $-1 $51 $24 #
plane-surface $-1 0 0 16.547773822830756 0 0 1 1 0 0 forward_v I I I I #
face $-1 $52 $53 $19 $-1 $54 reversed single #
loop $-1 $-1 $55 $25 #
plane-surface $-1 0 -35.890605049954679 0 0 1 0 0 0 1 forward_v I I I I #
face $-1 $56 $57 $20 $-1 $58 reversed single #
loop $-1 $-1 $59 $26 #
plane-surface $-1 0 35.890605049954679 0 0 -1 0 0 0 -1 forward_v I I I I #
face $-1 $60 $61 $21 $-1 $62 reversed single #
loop $-1 $-1 $63 $27 #
plane-surface $-1 -194.88687863174002 0.96026480076472609 95.906696051971664 0 1 0 -0.79863551827123203 0 0.60181501223851219 forward_v I I I I #
face $-1 $64 $65 $22 $-1 $66 forward single #
loop $-1 $67 $68 $28 #
cone-surface $-1 -69.999288543366134 3.2407738527516798 10.385605947592525 0.79863551827123203 0 -0.60181501223851219 0.60181501223851219 0 0.79863551827123203 1 I I 0 1 1 forward I I I I #
face $-1 $69 $70 $23 $-1 $71 forward single #
loop $-1 $72 $73 $29 #
cone-surface $-1 -69.999288543366134 6.6615374307321176 10.385605947592525 0.79863551827123203 0 -0.60181501223851219 0.60181501223851219 0 0.79863551827123203 1 I I 0 1 1 forward I I I I #
face $-1 $74 $75 $18 $-1 $76 reversed single #
loop $-1 $-1 $77 $30 #
plane-surface $-1 0 0 -16.547773822830756 0 0 1 1 0 0 forward_v I I I I #
coedge $-1 $78 $79 $80 $81 forward $31 $-1 #
face $-1 $82 $83 $19 $-1 $84 forward single #
loop $-1 $-1 $85 $33 #
plane-surface $-1 -75.035248878444776 0 0 1 0 0 0 0 -1 forward_v I I I I #
coedge $-1 $86 $87 $88 $89 forward $34 $-1 #
face $-1 $90 $91 $20 $-1 $92 forward single #
loop $-1 $-1 $93 $36 #
plane-surface $-1 75.035248878444776 0 0 -1 0 0 0 0 1 forward_v I I I I #
coedge $-1 $94 $95 $96 $97 forward $37 $-1 #
face $-1 $98 $99 $21 $-1 $100 reversed single #
loop $-1 $-1 $101 $39 #
plane-surface $-1 -75.035248878444762 4.9511556417418987 5.5920176077695629 -0.79863551827123203 0 0.60181501223851219 0.60181501223851219 0 0.79863551827123203 forward_v I I I I #
coedge $-1 $102 $103 $104 $105 reversed $40 $-1 #
face $-1 $-1 $106 $22 $-1 $107 forward single #
loop $-1 $108 $109 $42 #
cone-surface $-1 -68.691887565687765 3.2407738527516798 9.4004086737656252 0.79863551827123203 0 -0.60181501223851219 0.3009075061192561 0 0.39931775913561601 1 I I -0.70710678118654746 0.70710678118654746 0.5 forward I I I I #
loop $-1 $-1 $110 $28 #
coedge $-1 $68 $68 $111 $112 reversed $43 $-1 #
face $-1 $-1 $113 $23 $-1 $114 forward single #
loop $-1 $115 $116 $45 #
cone-surface $-1 -68.691887565687765 6.6615374307321176 9.4004086737656252 0.79863551827123203 0 -0.60181501223851219 0.3009075061192561 0 0.39931775913561601 1 I I -0.70710678118654746 0.70710678118654746 0.5 forward I I I I #
loop $-1 $-1 $117 $29 #
coedge $-1 $73 $73 $118 $119 reversed $46 $-1 #
face $-1 $120 $121 $18 $-1 $122 reversed single #
loop $-1 $-1 $123 $48 #
plane-surface $-1 0 -35.890605049954679 0 0 1 0 0 0 1 forward_v I I I I #
coedge $-1 $124 $125 $126 $127 forward $49 $-1 #
coedge $-1 $128 $51 $129 $130 forward $31 $-1 #
coedge $-1 $51 $128 $131 $132 forward $31 $-1 #
coedge $-1 $133 $134 $51 $81 reversed $135 $-1 #
edge $-1 $136 -35.890605049954679 $137 35.890605049954679 $80 $138 forward 7 unknown #
face $-1 $139 $140 $19 $-1 $141 reversed single #
loop $-1 $-1 $142 $52 #
plane-surface $-1 0 -45.499232256736285 4.4024204244708969 0 0 1 1 0 0 forward_v I I I I #
coedge $-1 $143 $144 $87 $145 forward $53 $-1 #
coedge $-1 $146 $55 $147 $148 reversed $34 $-1 #
coedge $-1 $55 $146 $85 $145 reversed $34 $-1 #
coedge $-1 $149 $142 $55 $89 reversed $83 $-1 #
edge $-1 $150 -75.035248878444776 $151 75.035248878444776 $88 $152 forward 7 unknown #
face $-1 $153 $154 $20 $-1 $155 reversed single #
loop $-1 $-1 $156 $56 #
plane-surface $-1 0 45.499232256736285 4.4024204244708969 0 0 1 1 0 0 forward_v I I I I #
coedge $-1 $157 $158 $95 $159 forward $57 $-1 #
coedge $-1 $160 $59 $161 $162 reversed $37 $-1 #
coedge $-1 $59 $160 $93 $159 reversed $37 $-1 #
coedge $-1 $156 $163 $59 $97 reversed $91 $-1 #
edge $-1 $164 -75.035248878444776 $165 75.035248878444776 $96 $166 forward 7 unknown #
face $-1 $167 $168 $21 $-1 $169 reversed single #
loop $-1 $-1 $170 $60 #
plane-surface $-1 -194.88687863174002 8.9420464827190713 95.906696051971664 0 -1 0 0.79863551827123203 0 -0.60181501223851219 forward_v I I I I #
coedge $-1 $171 $172 $173 $174 reversed $61 $-1 #
coedge $-1 $103 $63 $175 $176 reversed $40 $-1 #
coedge $-1 $63 $102 $171 $177 reversed $40 $-1 #
coedge $-1 $173 $178 $63 $105 forward $179 $-1 #
edge $-1 $180 22.408190437425233 $181 30.663944670497031 $104 $182 forward 7 unknown #
loop $-1 $-1 $111 $64 #
plane-surface $-1 -75.035248878444762 4.9511556417418987 5.5920176077695629 -0.79863551827123203 0 0.60181501223851219 0.60181501223851219 0 0.79863551827123203 forward_v I I I I #
loop $-1 $-1 $183 $42 #
coedge $-1 $109 $109 $110 $184 reversed $65 $-1 #
coedge $-1 $110 $110 $109 $184 forward $67 $-1 #
coedge $-1 $111 $111 $68 $112 forward $106 $-1 #
edge $-1 $185 0 $185 6.2831853071796004 $111 $186 forward 7 unknown #
loop $-1 $-1 $118 $69 #
plane-surface $-1 -75.035248878444762 4.9511556417418987 5.5920176077695629 -0.79863551827123203 0 0.60181501223851219 0.60181501223851219 0 0.79863551827123203 forward_v I I I I #
loop $-1 $-1 $187 $45 #
coedge $-1 $116 $116 $117 $188 reversed $70 $-1 #
coedge $-1 $117 $117 $116 $188 forward $72 $-1 #
coedge $-1 $118 $118 $73 $119 forward $113 $-1 #
edge $-1 $189 0 $189 6.2831853071796004 $118 $190 forward 7 unknown #
face $-1 $191 $192 $18 $-1 $193 reversed single #
loop $-1 $-1 $194 $74 #
plane-surface $-1 -75.035248878444776 0 0 1 0 0 0 0 -1 forward_v I I I I #
coedge $-1 $195 $131 $196 $197 forward $75 $-1 #
coedge $-1 $198 $77 $195 $199 forward $49 $-1 #
coedge $-1 $77 $198 $200 $201 forward $49 $-1 #
coedge $-1 $134 $133 $77 $127 reversed $135 $-1 #
edge $-1 $202 -35.890605049954679 $203 35.890605049954679 $126 $204 forward 7 unknown #
coedge $-1 $79 $78 $205 $206 forward $31 $-1 #
coedge $-1 $207 $208 $78 $130 reversed $192 $-1 #
edge $-1 $137 -75.035248878444776 $209 75.035248878444776 $129 $210 forward 7 unknown #
coedge $-1 $123 $211 $79 $132 reversed $75 $-1 #
edge $-1 $212 -75.035248878444776 $136 75.035248878444776 $131 $213 forward 7 unknown #
coedge $-1 $126 $80 $211 $214 forward $135 $-1 #
coedge $-1 $80 $126 $207 $215 reversed $135 $-1 #
loop $-1 $-1 $133 $191 #
vertex $-1 $81 $216 #
vertex $-1 $81 $217 #
straight-curve $-1 75.035248878444776 0 16.547773822830756 0 1 0 I I #
face $-1 $218 $219 $19 $-1 $220 reversed single #
loop $-1 $-1 $221 $82 #
plane-surface $-1 0 -45.499232256736285 -0.89244298758548268 0 0 1 1 0 0 forward_v I I I I #
coedge $-1 $88 $222 $223 $224 forward $83 $-1 #
coedge $-1 $225 $85 $226 $227 reversed $53 $-1 #
coedge $-1 $85 $225 $149 $228 reversed $53 $-1 #
edge $-1 $150 -4.4024204244708969 $229 0.89244298758548268 $85 $230 forward 7 unknown #
coedge $-1 $87 $86 $231 $232 forward $34 $-1 #
coedge $-1 $223 $233 $86 $148 forward $234 $-1 #
edge $-1 $235 -0.89244298758548268 $151 4.4024204244708969 $147 $236 forward 7 unknown #
coedge $-1 $222 $88 $144 $228 forward $83 $-1 #
vertex $-1 $145 $237 #
vertex $-1 $224 $238 #
straight-curve $-1 0 -35.890605049954679 4.4024204244708969 1 0 0 I I #
face $-1 $239 $240 $20 $-1 $241 reversed single #
loop $-1 $-1 $242 $90 #
plane-surface $-1 0 45.499232256736285 -0.89244298758548268 0 0 1 1 0 0 forward_v I I I I #
coedge $-1 $243 $96 $158 $244 forward $91 $-1 #
coedge $-1 $245 $93 $242 $246 reversed $57 $-1 #
coedge $-1 $93 $245 $156 $244 reversed $57 $-1 #
edge $-1 $164 -4.4024204244708969 $247 0.89244298758548268 $93 $248 forward 7 unknown #
coedge $-1 $95 $94 $249 $250 forward $37 $-1 #
coedge $-1 $251 $252 $94 $162 forward $253 $-1 #
edge $-1 $254 -0.89244298758548268 $165 4.4024204244708969 $161 $255 forward 7 unknown #
coedge $-1 $96 $243 $251 $256 forward $91 $-1 #
vertex $-1 $159 $257 #
vertex $-1 $256 $258 #
straight-curve $-1 0 35.890605049954679 4.4024204244708969 -1 0 0 I I #
face $-1 $-1 $179 $21 $-1 $259 forward single #
loop $-1 $-1 $260 $98 #
plane-surface $-1 -75.035248878444776 0 0 1 0 0 0 0 -1 forward_v I I I I #
coedge $-1 $261 $262 $263 $264 reversed $99 $-1 #
coedge $-1 $265 $101 $103 $177 forward $61 $-1 #
coedge $-1 $101 $265 $261 $266 forward $61 $-1 #
coedge $-1 $263 $104 $101 $174 forward $179 $-1 #
edge $-1 $181 -1.5153130201062233 $267 6.466468661848122 $173 $268 forward 7 unknown #
coedge $-1 $269 $270 $102 $176 forward $168 $-1 #
edge $-1 $271 -42.361330418216291 $180 -31.405574203155076 $175 $272 forward 7 unknown #
edge $-1 $181 -13.71809287768291 $271 2.3448253187574213e-014 $103 $273 forward 7 unknown #
coedge $-1 $104 $263 $269 $274 forward $179 $-1 #
loop $-1 $-1 $263 $167 #
vertex $-1 $176 $275 #
vertex $-1 $105 $276 #
straight-curve $-1 -97.443439315870009 0.96026480076472609 16.547773822830756 1 0 0 I I #
coedge $-1 $183 $183 $-1 $277 reversed $108 $-1 #
edge $-1 $278 0 $278 6.2831853071796004 $109 $279 forward 7 unknown #
vertex $-1 $112 $280 #
ellipse-curve $-1 -70.907371761908863 3.2407738527516798 11.069895715300154 -0.79863551827123203 0 0.60181501223851219 0.60181501223851219 0 0.79863551827123203 1 I I #
coedge $-1 $187 $187 $-1 $281 reversed $115 $-1 #
edge $-1 $282 0 $282 6.2831853071796004 $116 $283 forward 7 unknown #
vertex $-1 $119 $284 #
ellipse-curve $-1 -70.907371761908863 6.6615374307321176 11.069895715300154 -0.79863551827123203 0 0.60181501223851219 0.60181501223851219 0 0.79863551827123203 1 I I #
face $-1 $-1 $135 $18 $-1 $285 reversed single #
loop $-1 $-1 $208 $120 #
plane-surface $-1 0 35.890605049954679 0 0 -1 0 0 0 -1 forward_v I I I I #
coedge $-1 $286 $205 $208 $287 forward $121 $-1 #
coedge $-1 $211 $123 $124 $199 reversed $75 $-1 #
coedge $-1 $205 $286 $123 $197 reversed $121 $-1 #
edge $-1 $212 -16.547773822830756 $288 16.547773822830756 $196 $289 forward 7 unknown #
coedge $-1 $125 $124 $286 $290 forward $49 $-1 #
edge $-1 $203 -75.035248878444776 $288 75.035248878444776 $195 $291 forward 7 unknown #
coedge $-1 $208 $207 $125 $201 reversed $192 $-1 #
edge $-1 $292 -75.035248878444776 $202 75.035248878444776 $200 $293 forward 7 unknown #
vertex $-1 $127 $294 #
vertex $-1 $214 $295 #
straight-curve $-1 75.035248878444776 0 -16.547773822830756 0 -1 0 I I #
coedge $-1 $194 $196 $128 $206 reversed $121 $-1 #
edge $-1 $209 -35.890605049954679 $212 35.890605049954679 $205 $296 forward 7 unknown #
coedge $-1 $200 $129 $134 $215 forward $192 $-1 #
coedge $-1 $129 $200 $194 $287 reversed $192 $-1 #
vertex $-1 $130 $297 #
straight-curve $-1 0 35.890605049954679 16.547773822830756 -1 0 0 I I #
coedge $-1 $131 $195 $133 $214 reversed $75 $-1 #
vertex $-1 $206 $298 #
straight-curve $-1 0 -35.890605049954679 16.547773822830756 1 0 0 I I #
edge $-1 $136 -16.547773822830756 $203 16.547773822830756 $133 $299 forward 7 unknown #
edge $-1 $137 -16.547773822830756 $202 16.547773822830756 $134 $300 forward 7 unknown #
point $-1 75.035248878444776 -35.890605049954679 16.547773822830756 #
point $-1 75.035248878444776 35.890605049954679 16.547773822830756 #
face $-1 $-1 $234 $19 $-1 $301 reversed single #
loop $-1 $-1 $302 $139 #
plane-surface $-1 0 -55.10785946351789 1.7549887184427071 0 1 0 0 0 1 forward_v I I I I #
coedge $-1 $303 $231 $233 $304 forward $140 $-1 #
coedge $-1 $142 $149 $305 $306 forward $83 $-1 #
coedge $-1 $307 $147 $142 $224 reversed $234 $-1 #
edge $-1 $308 -9.6086272067816054 $151 9.6086272067816054 $223 $309 forward 7 unknown #
coedge $-1 $144 $143 $302 $310 reversed $53 $-1 #
coedge $-1 $231 $303 $143 $227 forward $140 $-1 #
edge $-1 $311 -9.6086272067816054 $229 9.6086272067816054 $143 $312 forward 7 unknown #
edge $-1 $150 -9.6086272067816054 $313 9.6086272067816054 $144 $314 forward 7 unknown #
vertex $-1 $145 $315 #
straight-curve $-1 -75.035248878444776 -35.890605049954679 0 0 0 -1 I I #
coedge $-1 $221 $226 $146 $232 reversed $140 $-1 #
edge $-1 $235 -75.035248878444776 $229 75.035248878444776 $231 $316 forward 7 unknown #
coedge $-1 $147 $307 $221 $304 reversed $234 $-1 #
loop $-1 $-1 $147 $218 #
vertex $-1 $148 $317 #
straight-curve $-1 75.035248878444776 -35.890605049954679 0 0 0 1 I I #
point $-1 -75.035248878444776 -35.890605049954679 4.4024204244708969 #
point $-1 75.035248878444776 -35.890605049954679 4.4024204244708969 #
face $-1 $-1 $253 $20 $-1 $318 reversed single #
loop $-1 $-1 $319 $153 #
plane-surface $-1 0 55.10785946351789 1.7549887184427071 0 -1 0 0 0 -1 forward_v I I I I #
coedge $-1 $249 $320 $157 $246 forward $154 $-1 #
coedge $-1 $163 $156 $321 $322 forward $91 $-1 #
edge $-1 $164 -9.6086272067816054 $323 9.6086272067816054 $158 $324 forward 7 unknown #
coedge $-1 $158 $157 $319 $325 reversed $57 $-1 #
edge $-1 $326 -9.6086272067816054 $247 9.6086272067816054 $157 $327 forward 7 unknown #
vertex $-1 $159 $328 #
straight-curve $-1 75.035248878444776 35.890605049954679 0 0 0 -1 I I #
coedge $-1 $329 $242 $160 $250 reversed $154 $-1 #
edge $-1 $254 -75.035248878444776 $247 75.035248878444776 $249 $330 forward 7 unknown #
coedge $-1 $331 $161 $163 $256 reversed $253 $-1 #
coedge $-1 $161 $331 $329 $332 reversed $253 $-1 #
loop $-1 $-1 $161 $239 #
vertex $-1 $162 $333 #
straight-curve $-1 -75.035248878444776 35.890605049954679 0 0 0 1 I I #
edge $-1 $334 -9.6086272067816054 $165 9.6086272067816054 $251 $335 forward 7 unknown #
point $-1 75.035248878444776 35.890605049954679 4.4024204244708969 #
point $-1 -75.035248878444776 35.890605049954679 4.4024204244708969 #
plane-surface $-1 0 0 16.547773822830756 0 0 1 1 0 0 forward_v I I I I #
coedge $-1 $270 $269 $262 $336 forward $168 $-1 #
coedge $-1 $262 $170 $172 $266 reversed $99 $-1 #
coedge $-1 $170 $261 $260 $336 reversed $99 $-1 #
coedge $-1 $178 $173 $170 $264 forward $179 $-1 #
edge $-1 $267 -30.663944670497031 $337 -22.408190437425233 $263 $338 forward 7 unknown #
coedge $-1 $172 $171 $270 $339 reversed $61 $-1 #
edge $-1 $340 -2.3448253187574213e-014 $267 13.71809287768291 $261 $341 forward 7 unknown #
vertex $-1 $174 $342 #
straight-curve $-1 -66.779494645372964 2.4755778208709494 16.547773822830756 0 1 0 I I #
coedge $-1 $260 $175 $178 $274 reversed $168 $-1 #
coedge $-1 $175 $260 $265 $339 forward $168 $-1 #
vertex $-1 $176 $343 #
straight-curve $-1 -75.035248878444776 0.96026480076472609 47.953348025985832 0 0 1 I I #
straight-curve $-1 -75.035248878444762 0.96026480076472609 5.5920176077695629 -0.60181501223851219 0 -0.79863551827123203 I I #
edge $-1 $337 -8.9420464827190713 $180 -0.96026480076472609 $269 $344 forward 7 unknown #
point $-1 -75.035248878444776 0.96026480076472609 16.547773822830756 #
point $-1 -66.779494645372978 0.96026480076472609 16.547773822830756 #
edge $-1 $345 1 $345 0 $183 $-1 forward 7 unknown #
vertex $-1 $184 $346 #
ellipse-curve $-1 -69.091205324823378 3.2407738527516798 9.7013161798848806 -0.79863551827123203 0 0.60181501223851219 0.60181501223851219 0 0.79863551827123203 1 I I #
point $-1 -70.305556749670373 3.2407738527516798 11.868531233571401 #
edge $-1 $347 1 $347 0 $187 $-1 forward 7 unknown #
vertex $-1 $188 $348 #
ellipse-curve $-1 -69.091205324823378 6.6615374307321176 9.7013161798848806 -0.79863551827123203 0 0.60181501223851219 0.60181501223851219 0 0.79863551827123203 1 I I #
point $-1 -70.305556749670373 6.6615374307321176 11.868531233571401 #
plane-surface $-1 75.035248878444776 0 0 -1 0 0 0 0 1 forward_v I I I I #
coedge $-1 $196 $194 $198 $290 reversed $121 $-1 #
edge $-1 $209 -16.547773822830756 $292 16.547773822830756 $208 $349 forward 7 unknown #
vertex $-1 $290 $350 #
straight-curve $-1 -75.035248878444776 -35.890605049954679 0 0 0 -1 I I #
edge $-1 $288 -35.890605049954679 $292 35.890605049954679 $286 $351 forward 7 unknown #
straight-curve $-1 0 -35.890605049954679 -16.547773822830756 -1 0 0 I I #
vertex $-1 $201 $352 #
straight-curve $-1 0 35.890605049954679 -16.547773822830756 1 0 0 I I #
point $-1 75.035248878444776 35.890605049954679 -16.547773822830756 #
point $-1 75.035248878444776 -35.890605049954679 -16.547773822830756 #
straight-curve $-1 -75.035248878444776 0 16.547773822830756 0 -1 0 I I #
point $-1 -75.035248878444776 35.890605049954679 16.547773822830756 #
point $-1 -75.035248878444776 -35.890605049954679 16.547773822830756 #
straight-curve $-1 75.035248878444776 -35.890605049954679 0 0 0 -1 I I #
straight-curve $-1 75.035248878444776 35.890605049954679 0 0 0 -1 I I #
plane-surface $-1 75.035248878444776 0 0 -1 0 0 0 0 1 forward_v I I I I #
coedge $-1 $353 $305 $225 $310 forward $219 $-1 #
coedge $-1 $226 $221 $353 $354 forward $140 $-1 #
edge $-1 $235 -9.6086272067816054 $355 9.6086272067816054 $233 $356 forward 7 unknown #
coedge $-1 $302 $357 $222 $306 reversed $219 $-1 #
edge $-1 $313 -75.035248878444776 $308 75.035248878444776 $305 $358 forward 7 unknown #
coedge $-1 $233 $223 $357 $359 forward $234 $-1 #
vertex $-1 $224 $360 #
straight-curve $-1 75.035248878444776 -45.499232256736285 4.4024204244708969 0 1 0 I I #
edge $-1 $313 -2.6474317060281898 $311 2.6474317060281898 $225 $361 forward 7 unknown #
vertex $-1 $227 $362 #
straight-curve $-1 -75.035248878444776 -45.499232256736285 -0.89244298758548268 0 1 0 I I #
vertex $-1 $228 $363 #
straight-curve $-1 -75.035248878444776 -45.499232256736285 4.4024204244708969 0 -1 0 I I #
point $-1 -75.035248878444776 -35.890605049954679 -0.89244298758548268 #
straight-curve $-1 0 -35.890605049954679 -0.89244298758548268 -1 0 0 I I #
point $-1 75.035248878444776 -35.890605049954679 -0.89244298758548268 #
plane-surface $-1 -75.035248878444776 0 0 1 0 0 0 0 -1 forward_v I I I I #
coedge $-1 $364 $321 $245 $325 forward $240 $-1 #
coedge $-1 $242 $329 $364 $365 forward $154 $-1 #
coedge $-1 $319 $366 $243 $322 reversed $240 $-1 #
edge $-1 $323 -75.035248878444776 $334 75.035248878444776 $321 $367 forward 7 unknown #
vertex $-1 $244 $368 #
straight-curve $-1 75.035248878444776 45.499232256736285 4.4024204244708969 0 1 0 I I #
edge $-1 $323 -2.6474317060281898 $326 2.6474317060281898 $245 $369 forward 7 unknown #
vertex $-1 $246 $370 #
straight-curve $-1 75.035248878444776 45.499232256736285 -0.89244298758548268 0 -1 0 I I #
point $-1 75.035248878444776 35.890605049954679 -0.89244298758548268 #
coedge $-1 $320 $249 $252 $332 forward $154 $-1 #
straight-curve $-1 0 35.890605049954679 -0.89244298758548268 1 0 0 I I #
coedge $-1 $252 $251 $366 $371 forward $253 $-1 #
edge $-1 $254 -9.6086272067816054 $372 9.6086272067816054 $252 $373 forward 7 unknown #
point $-1 -75.035248878444776 35.890605049954679 -0.89244298758548268 #
vertex $-1 $322 $374 #
straight-curve $-1 -75.035248878444776 45.499232256736285 4.4024204244708969 0 -1 0 I I #
edge $-1 $337 31.405574203155076 $340 42.361330418216291 $260 $375 forward 7 unknown #
vertex $-1 $274 $376 #
straight-curve $-1 -97.443439315870009 8.9420464827190713 16.547773822830756 -1 0 0 I I #
edge $-1 $340 -6.466468661848122 $271 1.5153130201062233 $270 $377 forward 7 unknown #
vertex $-1 $339 $378 #
straight-curve $-1 -75.035248878444762 8.9420464827190713 5.5920176077695629 0.60181501223851219 0 0.79863551827123203 I I #
point $-1 -66.779494645372978 8.9420464827190713 16.547773822830756 #
point $-1 -75.035248878444776 0.96026480076472609 5.5920176077695443 #
straight-curve $-1 -75.035248878444776 0 16.547773822830756 0 -1 0 I I #
vertex $-1 $277 $379 #
point $-1 -68.489390312584874 3.2407738527516798 10.499951698156114 #
vertex $-1 $281 $380 #
point $-1 -68.489390312584874 6.6615374307321176 10.499951698156114 #
straight-curve $-1 -75.035248878444776 35.890605049954679 0 0 0 -1 I I #
point $-1 -75.035248878444776 -35.890605049954679 -16.547773822830756 #
straight-curve $-1 -75.035248878444776 0 -16.547773822830756 0 1 0 I I #
point $-1 -75.035248878444776 35.890605049954679 -16.547773822830756 #
coedge $-1 $357 $302 $303 $354 reversed $219 $-1 #
edge $-1 $355 -75.035248878444776 $311 75.035248878444776 $353 $381 forward 7 unknown #
vertex $-1 $359 $382 #
straight-curve $-1 75.035248878444776 -45.499232256736285 -0.89244298758548268 0 -1 0 I I #
coedge $-1 $305 $353 $307 $359 reversed $219 $-1 #
straight-curve $-1 0 -55.10785946351789 4.4024204244708969 1 0 0 I I #
edge $-1 $308 -2.6474317060281898 $355 2.6474317060281898 $307 $383 forward 7 unknown #
point $-1 75.035248878444776 -55.10785946351789 4.4024204244708969 #
straight-curve $-1 -75.035248878444776 -55.10785946351789 1.7549887184427071 0 0 -1 I I #
point $-1 -75.035248878444776 -55.10785946351789 -0.89244298758548268 #
point $-1 -75.035248878444776 -55.10785946351789 4.4024204244708969 #
coedge $-1 $366 $319 $320 $365 reversed $240 $-1 #
edge $-1 $372 -75.035248878444776 $326 75.035248878444776 $364 $384 forward 7 unknown #
coedge $-1 $321 $364 $331 $371 reversed $240 $-1 #
straight-curve $-1 0 55.10785946351789 4.4024204244708969 -1 0 0 I I #
point $-1 75.035248878444776 55.10785946351789 4.4024204244708969 #
straight-curve $-1 75.035248878444776 55.10785946351789 1.7549887184427071 0 0 -1 I I #
point $-1 75.035248878444776 55.10785946351789 -0.89244298758548268 #
edge $-1 $334 -2.6474317060281898 $372 2.6474317060281898 $366 $385 forward 7 unknown #
vertex $-1 $365 $386 #
straight-curve $-1 -75.035248878444776 45.499232256736285 -0.89244298758548268 0 1 0 I I #
point $-1 -75.035248878444776 55.10785946351789 4.4024204244708969 #
straight-curve $-1 -75.035248878444776 8.9420464827190713 47.953348025985832 0 0 -1 I I #
point $-1 -75.035248878444776 8.9420464827190713 16.547773822830756 #
straight-curve $-1 -75.035248878444776 2.4755778208709494 5.5920176077695523 0 -1 0 I I #
point $-1 -75.035248878444776 8.9420464827190713 5.5920176077695443 #
point $-1 -68.292569806552152 3.2407738527516798 9.0995011676463697 #
point $-1 -68.292569806552152 6.6615374307321176 9.0995011676463697 #
straight-curve $-1 0 -55.10785946351789 -0.89244298758548268 -1 0 0 I I #
point $-1 75.035248878444776 -55.10785946351789 -0.89244298758548268 #
straight-curve $-1 75.035248878444776 -55.10785946351789 1.7549887184427071 0 0 -1 I I #
straight-curve $-1 0 55.10785946351789 -0.89244298758548268 1 0 0 I I #
straight-curve $-1 -75.035248878444776 55.10785946351789 1.7549887184427071 0 0 -1 I I #
point $-1 -75.035248878444776 55.10785946351789 -0.89244298758548268 #
End-of-ACIS-data 