500 0 8 0           
7 Unknown 11 ACIS 5.0 NT 24 Fri Mar 26 01:46:57 1999 
-1 9.9999999999999995e-007 1e-010 
body $-1 $8 $-1 $9 #
body $-1 $10 $-1 $11 #
body $-1 $12 $-1 $13 #
body $-1 $14 $-1 $15 #
body $-1 $16 $-1 $17 #
body $-1 $18 $-1 $19 #
body $-1 $20 $-1 $21 #
body $-1 $22 $-1 $23 #
lump $-1 $-1 $24 $0 #
transform $-1 1 0 0 0 1 0 0 0 1 52.825098422193058 33.659294409546192 11.756869911073277 1 rotate no_reflect no_shear #
lump $-1 $-1 $25 $1 #
transform $-1 1 0 0 0 1 0 0 0 1 52.825098422193058 33.659294409546192 11.756869911073277 1 rotate no_reflect no_shear #
lump $-1 $-1 $26 $2 #
transform $-1 1 0 0 0 1 0 0 0 1 52.825098422193058 33.659294409546192 11.756869911073277 1 rotate no_reflect no_shear #
lump $-1 $-1 $27 $3 #
transform $-1 1 0 0 0 1 0 0 0 1 52.825098422193058 33.659294409546192 11.756869911073277 1 rotate no_reflect no_shear #
lump $-1 $-1 $28 $4 #
transform $-1 1 0 0 0 1 0 0 0 1 52.825098422193058 33.659294409546192 11.756869911073277 1 rotate no_reflect no_shear #
lump $-1 $-1 $29 $5 #
transform $-1 1 0 0 0 1 0 0 0 1 52.825098422193058 33.659294409546192 11.756869911073277 1 rotate no_reflect no_shear #
lump $-1 $-1 $30 $6 #
transform $-1 1 0 0 0 1 0 0 0 1 52.825098422193058 33.659294409546192 11.756869911073277 1 rotate no_reflect no_shear #
lump $-1 $-1 $31 $7 #
transform $-1 1 0 0 0 1 0 0 0 1 52.825098422193058 33.659294409546192 11.756869911073277 1 rotate no_reflect no_shear #
shell $-1 $-1 $-1 $32 $-1 $8 #
shell $-1 $-1 $-1 $33 $-1 $10 #
shell $-1 $-1 $-1 $34 $-1 $12 #
shell $-1 $-1 $-1 $35 $-1 $14 #
shell $-1 $-1 $-1 $36 $-1 $16 #
shell $-1 $-1 $-1 $37 $-1 $18 #
shell $-1 $-1 $-1 $38 $-1 $20 #
shell $-1 $-1 $-1 $39 $-1 $22 #
face $-1 $40 $41 $24 $-1 $42 forward single #
face $-1 $43 $44 $25 $-1 $45 forward single #
face $-1 $46 $47 $26 $-1 $48 reversed single #
face $-1 $49 $50 $27 $-1 $51 forward single #
face $-1 $52 $53 $28 $-1 $54 forward single #
face $-1 $55 $56 $29 $-1 $57 reversed single #
face $-1 $58 $59 $30 $-1 $60 forward single #
face $-1 $61 $62 $31 $-1 $63 forward single #
face $-1 $64 $65 $24 $-1 $66 reversed single #
loop $-1 $-1 $67 $32 #
plane-surface $-1 0 0 11.756869911073277 0 0 1 1 0 0 forward_v I I I I #
face $-1 $68 $69 $25 $-1 $70 reversed single #
loop $-1 $-1 $71 $33 #
plane-surface $-1 -45.18752113023843 0 -6.0046256702106859 0 0 1 1 0 0 forward_v I I I I #
face $-1 $72 $73 $26 $-1 $74 reversed single #
loop $-1 $-1 $75 $34 #
plane-surface $-1 58.03950178248126 0 150.87041935135804 0 -1 0 -0.73135370988377701 0 -0.68199835119979291 forward_v I I I I #
face $-1 $76 $77 $27 $-1 $78 forward single #
loop $-1 $79 $80 $35 #
cone-surface $-1 46.718061924103509 -7.9630251786091826 5.3963656917705851 -0.73135370988377701 0 -0.68199835119979291 0.68199835119979291 0 -0.73135370988377701 1 I I 0 1 1 forward I I I I #
face $-1 $81 $82 $28 $-1 $83 forward single #
loop $-1 $84 $85 $36 #
cone-surface $-1 46.718061924103509 -3.1852100714436737 5.3963656917705851 -0.73135370988377701 0 -0.68199835119979291 0.68199835119979291 0 -0.73135370988377701 1 I I 0 1 1 forward I I I I #
face $-1 $86 $87 $29 $-1 $88 reversed single #
loop $-1 $-1 $89 $37 #
plane-surface $-1 58.03950178248126 11.14823525005286 150.87041935135804 0 -1 0 -0.73135370988377701 0 -0.68199835119979291 forward_v I I I I #
face $-1 $90 $91 $30 $-1 $92 forward single #
loop $-1 $93 $94 $38 #
cone-surface $-1 46.718061924103509 3.1852100714436773 5.3963656917705851 -0.73135370988377701 0 -0.68199835119979291 0.68199835119979291 0 -0.73135370988377701 1 I I 0 1 1 forward I I I I #
face $-1 $95 $96 $31 $-1 $97 forward single #
loop $-1 $98 $99 $39 #
cone-surface $-1 46.718061924103509 7.9630251786091861 5.3963656917705851 -0.73135370988377701 0 -0.68199835119979291 0.68199835119979291 0 -0.73135370988377701 1 I I 0 1 1 forward I I I I #
face $-1 $100 $101 $24 $-1 $102 reversed single #
loop $-1 $-1 $103 $40 #
plane-surface $-1 0 0 -11.756869911073277 0 0 1 1 0 0 forward_v I I I I #
coedge $-1 $104 $105 $106 $107 forward $41 $-1 #
face $-1 $108 $109 $25 $-1 $110 reversed single #
loop $-1 $-1 $111 $43 #
plane-surface $-1 -37.549943838283802 0 -8.8807477906419816 -1 0 0 0 0 1 forward_v I I I I #
coedge $-1 $112 $113 $114 $115 forward $44 $-1 #
face $-1 $116 $117 $26 $-1 $118 reversed single #
loop $-1 $-1 $119 $46 #
plane-surface $-1 -19.22816162961184 -5.5741176250264282 78.81715929955314 0.73135370988377701 0 0.68199835119979291 0.68199835119979291 0 -0.73135370988377701 forward_v I I I I #
coedge $-1 $120 $121 $122 $123 reversed $47 $-1 #
face $-1 $-1 $124 $27 $-1 $125 forward single #
loop $-1 $126 $127 $49 #
cone-surface $-1 45.004613588877284 -7.9630251786091826 3.7985493086746125 -0.73135370988377701 0 -0.68199835119979291 0.34099917559989645 0 -0.36567685494188851 1 I I -0.70710678118654746 0.70710678118654746 0.5 forward I I I I #
loop $-1 $-1 $128 $35 #
coedge $-1 $80 $80 $129 $130 reversed $50 $-1 #
face $-1 $-1 $131 $28 $-1 $132 forward single #
loop $-1 $133 $134 $52 #
cone-surface $-1 45.004613588877284 -3.1852100714436737 3.7985493086746125 -0.73135370988377701 0 -0.68199835119979291 0.34099917559989645 0 -0.36567685494188851 1 I I -0.70710678118654746 0.70710678118654746 0.5 forward I I I I #
loop $-1 $-1 $135 $36 #
coedge $-1 $85 $85 $136 $137 reversed $53 $-1 #
face $-1 $138 $139 $29 $-1 $140 reversed single #
loop $-1 $-1 $141 $55 #
plane-surface $-1 -19.22816162961184 -5.5741176250264282 78.81715929955314 0.73135370988377701 0 0.68199835119979291 0.68199835119979291 0 -0.73135370988377701 forward_v I I I I #
coedge $-1 $142 $143 $144 $145 reversed $56 $-1 #
face $-1 $-1 $146 $30 $-1 $147 forward single #
loop $-1 $148 $149 $58 #
cone-surface $-1 45.004613588877284 3.1852100714436773 3.7985493086746125 -0.73135370988377701 0 -0.68199835119979291 0.34099917559989645 0 -0.36567685494188851 1 I I -0.70710678118654746 0.70710678118654746 0.5 forward I I I I #
loop $-1 $-1 $150 $38 #
coedge $-1 $94 $94 $151 $152 reversed $59 $-1 #
face $-1 $-1 $153 $31 $-1 $154 forward single #
loop $-1 $155 $156 $61 #
cone-surface $-1 45.004613588877284 7.9630251786091861 3.7985493086746125 -0.73135370988377701 0 -0.68199835119979291 0.34099917559989645 0 -0.36567685494188851 1 I I -0.70710678118654746 0.70710678118654746 0.5 forward I I I I #
loop $-1 $-1 $157 $39 #
coedge $-1 $99 $99 $158 $159 reversed $62 $-1 #
face $-1 $160 $161 $24 $-1 $162 reversed single #
loop $-1 $-1 $163 $64 #
plane-surface $-1 0 -33.659294409546192 0 0 1 0 0 0 1 forward_v I I I I #
coedge $-1 $164 $165 $166 $167 forward $65 $-1 #
coedge $-1 $168 $67 $169 $170 forward $41 $-1 #
coedge $-1 $67 $168 $171 $172 forward $41 $-1 #
coedge $-1 $173 $174 $67 $107 reversed $175 $-1 #
edge $-1 $176 -33.659294409546192 $177 33.659294409546192 $106 $178 forward 7 unknown #
face $-1 $179 $180 $25 $-1 $181 reversed single #
loop $-1 $-1 $182 $68 #
plane-surface $-1 0 0 -11.756869911073277 0 0 1 1 0 0 forward_v I I I I #
coedge $-1 $183 $114 $184 $185 reversed $69 $-1 #
coedge $-1 $186 $71 $187 $188 reversed $44 $-1 #
coedge $-1 $71 $186 $189 $190 reversed $44 $-1 #
coedge $-1 $111 $191 $71 $115 reversed $69 $-1 #
edge $-1 $192 -33.659294409546192 $193 33.659294409546192 $114 $194 forward 7 unknown #
face $-1 $195 $196 $26 $-1 $197 forward single #
loop $-1 $-1 $198 $72 #
plane-surface $-1 58.03950178248126 -11.148235250052856 150.87041935135804 0 1 0 0.73135370988377701 0 0.68199835119979291 forward_v I I I I #
coedge $-1 $199 $200 $201 $202 reversed $73 $-1 #
coedge $-1 $121 $75 $203 $204 reversed $47 $-1 #
coedge $-1 $75 $120 $199 $205 reversed $47 $-1 #
coedge $-1 $201 $206 $75 $123 forward $196 $-1 #
edge $-1 $207 -23.805347530952428 $208 -14.286817495342031 $122 $209 forward 7 unknown #
loop $-1 $-1 $129 $76 #
plane-surface $-1 -19.22816162961184 -5.5741176250264282 78.81715929955314 0.73135370988377701 0 0.68199835119979291 0.68199835119979291 0 -0.73135370988377701 forward_v I I I I #
loop $-1 $-1 $210 $49 #
coedge $-1 $127 $127 $128 $211 reversed $77 $-1 #
coedge $-1 $128 $128 $127 $211 forward $79 $-1 #
coedge $-1 $129 $129 $80 $130 forward $124 $-1 #
edge $-1 $212 0 $212 6.2831853071796004 $129 $213 forward 7 unknown #
loop $-1 $-1 $136 $81 #
plane-surface $-1 -19.22816162961184 -5.5741176250264282 78.81715929955314 0.73135370988377701 0 0.68199835119979291 0.68199835119979291 0 -0.73135370988377701 forward_v I I I I #
loop $-1 $-1 $214 $52 #
coedge $-1 $134 $134 $135 $215 reversed $82 $-1 #
coedge $-1 $135 $135 $134 $215 forward $84 $-1 #
coedge $-1 $136 $136 $85 $137 forward $131 $-1 #
edge $-1 $216 0 $216 6.2831853071796004 $136 $217 forward 7 unknown #
face $-1 $218 $219 $29 $-1 $220 forward single #
loop $-1 $-1 $221 $86 #
plane-surface $-1 52.825098422193058 0 0 -1 0 0 0 0 1 forward_v I I I I #
coedge $-1 $222 $223 $224 $225 reversed $87 $-1 #
coedge $-1 $143 $89 $226 $227 reversed $56 $-1 #
coedge $-1 $89 $142 $228 $229 reversed $56 $-1 #
coedge $-1 $230 $221 $89 $145 forward $139 $-1 #
edge $-1 $231 -73.885713788218979 $232 -63.678339764605738 $144 $233 forward 7 unknown #
loop $-1 $-1 $151 $90 #
plane-surface $-1 -19.22816162961184 -5.5741176250264282 78.81715929955314 0.73135370988377701 0 0.68199835119979291 0.68199835119979291 0 -0.73135370988377701 forward_v I I I I #
loop $-1 $-1 $234 $58 #
coedge $-1 $149 $149 $150 $235 reversed $91 $-1 #
coedge $-1 $150 $150 $149 $235 forward $93 $-1 #
coedge $-1 $151 $151 $94 $152 forward $146 $-1 #
edge $-1 $236 0 $236 6.2831853071796004 $151 $237 forward 7 unknown #
loop $-1 $-1 $158 $95 #
plane-surface $-1 -19.22816162961184 -5.5741176250264282 78.81715929955314 0.73135370988377701 0 0.68199835119979291 0.68199835119979291 0 -0.73135370988377701 forward_v I I I I #
loop $-1 $-1 $238 $61 #
coedge $-1 $156 $156 $157 $239 reversed $96 $-1 #
coedge $-1 $157 $157 $156 $239 forward $98 $-1 #
coedge $-1 $158 $158 $99 $159 forward $153 $-1 #
edge $-1 $240 0 $240 6.2831853071796004 $158 $241 forward 7 unknown #
face $-1 $242 $243 $24 $-1 $244 reversed single #
loop $-1 $-1 $245 $100 #
plane-surface $-1 -52.825098422193058 0 0 1 0 0 0 0 -1 forward_v I I I I #
coedge $-1 $246 $171 $247 $248 forward $101 $-1 #
coedge $-1 $249 $103 $246 $250 forward $65 $-1 #
coedge $-1 $103 $249 $251 $252 forward $65 $-1 #
coedge $-1 $174 $173 $103 $167 reversed $175 $-1 #
edge $-1 $253 -33.659294409546192 $254 33.659294409546192 $166 $255 forward 7 unknown #
coedge $-1 $105 $104 $256 $257 forward $41 $-1 #
coedge $-1 $258 $259 $104 $170 reversed $243 $-1 #
edge $-1 $177 -52.825098422193058 $260 52.825098422193058 $169 $261 forward 7 unknown #
coedge $-1 $163 $262 $105 $172 reversed $101 $-1 #
edge $-1 $263 -52.825098422193058 $176 52.825098422193058 $171 $264 forward 7 unknown #
coedge $-1 $166 $106 $262 $265 forward $175 $-1 #
coedge $-1 $106 $166 $258 $266 reversed $175 $-1 #
loop $-1 $-1 $173 $242 #
vertex $-1 $107 $267 #
vertex $-1 $107 $268 #
straight-curve $-1 52.825098422193058 0 11.756869911073277 0 1 0 I I #
face $-1 $269 $270 $25 $-1 $271 reversed single #
loop $-1 $-1 $184 $108 #
plane-surface $-1 0 -33.659294409546192 0 0 1 0 0 0 1 forward_v I I I I #
coedge $-1 $272 $273 $183 $274 forward $109 $-1 #
coedge $-1 $191 $111 $182 $274 reversed $69 $-1 #
coedge $-1 $189 $275 $111 $185 forward $180 $-1 #
edge $-1 $276 -7.3164960157522865 $192 -1.5642517748896951 $184 $277 forward 7 unknown #
coedge $-1 $113 $112 $278 $279 reversed $44 $-1 #
coedge $-1 $280 $281 $112 $188 forward $282 $-1 #
edge $-1 $283 -30.231337857073843 $193 -14.956183273164587 $187 $284 forward 7 unknown #
coedge $-1 $285 $184 $113 $190 forward $180 $-1 #
edge $-1 $192 14.956183273164587 $286 30.231337857073843 $189 $287 forward 7 unknown #
coedge $-1 $114 $183 $280 $288 reversed $69 $-1 #
vertex $-1 $190 $289 #
vertex $-1 $188 $290 #
straight-curve $-1 -37.549943838283802 0 -6.0046256702106859 0 1 0 I I #
face $-1 $-1 $291 $26 $-1 $292 reversed single #
loop $-1 $-1 $122 $116 #
plane-surface $-1 0 0 11.756869911073277 0 0 1 1 0 0 forward_v I I I I #
coedge $-1 $293 $294 $295 $296 reversed $117 $-1 #
coedge $-1 $297 $119 $121 $205 forward $73 $-1 #
coedge $-1 $119 $297 $293 $298 forward $73 $-1 #
coedge $-1 $295 $122 $119 $202 forward $196 $-1 #
edge $-1 $208 -2.7870588125132141 $299 8.3611764375396422 $201 $300 forward 7 unknown #
coedge $-1 $301 $302 $120 $204 forward $291 $-1 #
edge $-1 $303 -73.885713788218979 $207 -63.678339764605738 $203 $304 forward 7 unknown #
edge $-1 $208 91.693374193913286 $303 105.65019684438612 $121 $305 forward 7 unknown #
coedge $-1 $122 $295 $301 $306 forward $196 $-1 #
vertex $-1 $204 $307 #
vertex $-1 $123 $308 #
straight-curve $-1 29.01975089124063 0 11.756869911073281 -1 0 0 I I #
coedge $-1 $210 $210 $-1 $309 reversed $126 $-1 #
edge $-1 $310 0 $310 6.2831853071796004 $127 $311 forward 7 unknown #
vertex $-1 $130 $312 #
ellipse-curve $-1 48.065833404387853 -7.9630251786091826 6.6531828992666631 0.73135370988377701 0 0.68199835119979291 0.68199835119979291 0 -0.73135370988377701 1 I I #
coedge $-1 $214 $214 $-1 $313 reversed $133 $-1 #
edge $-1 $314 0 $314 6.2831853071796004 $134 $315 forward 7 unknown #
vertex $-1 $137 $316 #
ellipse-curve $-1 48.065833404387853 -3.1852100714436737 6.6531828992666631 0.73135370988377701 0 0.68199835119979291 0.68199835119979291 0 -0.73135370988377701 1 I I #
face $-1 $-1 $317 $29 $-1 $318 forward single #
loop $-1 $-1 $319 $138 #
plane-surface $-1 58.03950178248126 0 150.87041935135804 0 -1 0 -0.73135370988377701 0 -0.68199835119979291 forward_v I I I I #
coedge $-1 $144 $320 $223 $321 forward $139 $-1 #
coedge $-1 $226 $141 $322 $323 reversed $87 $-1 #
coedge $-1 $141 $226 $221 $321 reversed $87 $-1 #
coedge $-1 $324 $319 $141 $225 forward $219 $-1 #
edge $-1 $325 91.693374193913286 $326 105.65019684438612 $224 $327 forward 7 unknown #
coedge $-1 $223 $222 $142 $227 forward $87 $-1 #
edge $-1 $328 91.693374193913286 $231 105.65019684438612 $142 $329 forward 7 unknown #
coedge $-1 $322 $330 $143 $229 forward $317 $-1 #
edge $-1 $232 -23.805347530952428 $328 -14.286817495342031 $228 $331 forward 7 unknown #
coedge $-1 $320 $144 $330 $332 reversed $139 $-1 #
vertex $-1 $145 $333 #
vertex $-1 $145 $334 #
straight-curve $-1 52.825098422193058 11.14823525005286 75.435209675679019 0 0 1 I I #
coedge $-1 $234 $234 $-1 $335 reversed $148 $-1 #
edge $-1 $336 0 $336 6.2831853071796004 $149 $337 forward 7 unknown #
vertex $-1 $152 $338 #
ellipse-curve $-1 48.065833404387853 3.1852100714436773 6.6531828992666631 0.73135370988377701 0 0.68199835119979291 0.68199835119979291 0 -0.73135370988377701 1 I I #
coedge $-1 $238 $238 $-1 $339 reversed $155 $-1 #
edge $-1 $340 0 $340 6.2831853071796004 $156 $341 forward 7 unknown #
vertex $-1 $159 $342 #
ellipse-curve $-1 48.065833404387853 7.9630251786091861 6.6531828992666631 0.73135370988377701 0 0.68199835119979291 0.68199835119979291 0 -0.73135370988377701 1 I I #
face $-1 $-1 $175 $24 $-1 $343 reversed single #
loop $-1 $-1 $258 $160 #
plane-surface $-1 0 33.659294409546192 0 0 -1 0 0 0 -1 forward_v I I I I #
coedge $-1 $344 $256 $259 $345 forward $161 $-1 #
coedge $-1 $262 $163 $164 $250 reversed $101 $-1 #
coedge $-1 $256 $344 $163 $248 reversed $161 $-1 #
edge $-1 $263 -11.756869911073277 $346 11.756869911073277 $247 $347 forward 7 unknown #
coedge $-1 $165 $164 $344 $348 forward $65 $-1 #
edge $-1 $254 -52.825098422193058 $346 52.825098422193058 $246 $349 forward 7 unknown #
coedge $-1 $259 $258 $165 $252 reversed $243 $-1 #
edge $-1 $350 -52.825098422193058 $253 52.825098422193058 $251 $351 forward 7 unknown #
vertex $-1 $167 $352 #
vertex $-1 $265 $353 #
straight-curve $-1 52.825098422193058 0 -11.756869911073277 0 -1 0 I I #
coedge $-1 $245 $247 $168 $257 reversed $161 $-1 #
edge $-1 $260 -33.659294409546192 $263 33.659294409546192 $256 $354 forward 7 unknown #
coedge $-1 $251 $169 $174 $266 forward $243 $-1 #
coedge $-1 $169 $251 $245 $345 reversed $243 $-1 #
vertex $-1 $170 $355 #
straight-curve $-1 0 33.659294409546192 11.756869911073277 -1 0 0 I I #
coedge $-1 $171 $246 $173 $265 reversed $101 $-1 #
vertex $-1 $257 $356 #
straight-curve $-1 0 -33.659294409546192 11.756869911073277 1 0 0 I I #
edge $-1 $176 -11.756869911073277 $254 11.756869911073277 $173 $357 forward 7 unknown #
edge $-1 $177 -11.756869911073277 $253 11.756869911073277 $174 $358 forward 7 unknown #
point $-1 52.825098422193058 -33.659294409546192 11.756869911073277 #
point $-1 52.825098422193058 33.659294409546192 11.756869911073277 #
face $-1 $-1 $282 $25 $-1 $359 reversed single #
loop $-1 $-1 $278 $179 #
plane-surface $-1 -52.825098422193058 0 0 1 0 0 0 0 -1 forward_v I I I I #
coedge $-1 $360 $182 $275 $361 forward $109 $-1 #
coedge $-1 $182 $360 $362 $363 forward $109 $-1 #
edge $-1 $364 -33.659294409546192 $276 33.659294409546192 $182 $365 forward 7 unknown #
coedge $-1 $184 $285 $272 $361 reversed $180 $-1 #
vertex $-1 $361 $366 #
straight-curve $-1 -37.549943838283802 -33.659294409546192 -4.4403738953209908 0 0 1 I I #
coedge $-1 $367 $368 $186 $279 forward $270 $-1 #
edge $-1 $286 -33.659294409546192 $283 33.659294409546192 $278 $369 forward 7 unknown #
coedge $-1 $362 $187 $191 $288 forward $282 $-1 #
coedge $-1 $187 $362 $367 $370 reversed $282 $-1 #
loop $-1 $-1 $280 $269 #
vertex $-1 $370 $371 #
straight-curve $-1 -22.593760565119215 33.659294409546192 -6.0046256702106859 1 0 0 I I #
coedge $-1 $275 $189 $368 $372 forward $180 $-1 #
vertex $-1 $372 $373 #
straight-curve $-1 -22.593760565119215 -33.659294409546192 -6.0046256702106859 -1 0 0 I I #
edge $-1 $193 1.5642517748896951 $364 7.3164960157522865 $280 $374 forward 7 unknown #
point $-1 -37.549943838283802 -33.659294409546192 -6.0046256702106859 #
point $-1 -37.549943838283802 33.659294409546192 -6.0046256702106859 #
loop $-1 $-1 $203 $195 #
plane-surface $-1 52.825098422193058 0 0 -1 0 0 0 0 1 forward_v I I I I #
coedge $-1 $294 $198 $200 $298 reversed $117 $-1 #
coedge $-1 $198 $293 $375 $376 reversed $117 $-1 #
coedge $-1 $206 $201 $198 $296 forward $196 $-1 #
edge $-1 $299 14.286817495342031 $377 23.805347530952428 $295 $378 forward 7 unknown #
coedge $-1 $200 $199 $302 $379 reversed $73 $-1 #
edge $-1 $380 -105.65019684438612 $299 -91.693374193913286 $293 $381 forward 7 unknown #
vertex $-1 $202 $382 #
straight-curve $-1 43.306568386582668 -2.7870588125132141 11.756869911073267 0 -1 0 I I #
coedge $-1 $375 $203 $206 $306 reversed $291 $-1 #
coedge $-1 $203 $375 $297 $379 forward $291 $-1 #
vertex $-1 $204 $383 #
straight-curve $-1 52.825098422193058 0 75.435209675679019 0 0 1 I I #
straight-curve $-1 -19.22816162961184 0 78.81715929955314 0.68199835119979291 0 -0.73135370988377701 I I #
edge $-1 $377 -11.148235250052856 $207 0 $301 $384 forward 7 unknown #
point $-1 52.825098422193058 0 11.756869911073277 #
point $-1 43.306568386582661 0 11.756869911073281 #
edge $-1 $385 1 $385 0 $210 $-1 forward 7 unknown #
vertex $-1 $211 $386 #
ellipse-curve $-1 45.370290443819172 -7.9630251786091826 4.1395484842745089 0.73135370988377701 0 0.68199835119979291 0.68199835119979291 0 -0.73135370988377701 1 I I #
point $-1 48.74783175558764 -7.9630251786091826 5.9218291893828834 #
edge $-1 $387 1 $387 0 $214 $-1 forward 7 unknown #
vertex $-1 $215 $388 #
ellipse-curve $-1 45.370290443819172 -3.1852100714436737 4.1395484842745089 0.73135370988377701 0 0.68199835119979291 0.68199835119979291 0 -0.73135370988377701 1 I I #
point $-1 48.74783175558764 -3.1852100714436737 5.9218291893828834 #
loop $-1 $-1 $322 $218 #
plane-surface $-1 0 0 11.756869911073277 0 0 1 1 0 0 forward_v I I I I #
coedge $-1 $224 $324 $389 $390 reversed $219 $-1 #
coedge $-1 $221 $230 $324 $391 forward $139 $-1 #
edge $-1 $326 2.7870588125132141 $231 13.935294062566074 $221 $392 forward 7 unknown #
coedge $-1 $389 $228 $222 $323 forward $317 $-1 #
edge $-1 $328 -13.935294062566074 $325 -2.7870588125132141 $322 $393 forward 7 unknown #
coedge $-1 $319 $224 $320 $391 reversed $219 $-1 #
vertex $-1 $323 $394 #
vertex $-1 $321 $395 #
straight-curve $-1 -19.22816162961184 0 78.81715929955314 0.68199835119979291 0 -0.73135370988377701 I I #
vertex $-1 $229 $396 #
straight-curve $-1 -19.22816162961184 11.14823525005286 78.81715929955314 0.68199835119979291 0 -0.73135370988377701 I I #
coedge $-1 $228 $389 $230 $332 forward $317 $-1 #
straight-curve $-1 29.01975089124063 11.14823525005286 11.756869911073281 -1 0 0 I I #
edge $-1 $397 0 $232 11.14823525005286 $230 $398 forward 7 unknown #
point $-1 52.825098422193058 11.14823525005286 1.54949588746004 #
point $-1 52.825098422193058 11.14823525005286 11.756869911073277 #
edge $-1 $399 1 $399 0 $234 $-1 forward 7 unknown #
vertex $-1 $235 $400 #
ellipse-curve $-1 45.370290443819172 3.1852100714436773 4.1395484842745089 0.73135370988377701 0 0.68199835119979291 0.68199835119979291 0 -0.73135370988377701 1 I I #
point $-1 48.74783175558764 3.1852100714436773 5.9218291893828834 #
edge $-1 $401 1 $401 0 $238 $-1 forward 7 unknown #
vertex $-1 $239 $402 #
ellipse-curve $-1 45.370290443819172 7.9630251786091861 4.1395484842745089 0.73135370988377701 0 0.68199835119979291 0.68199835119979291 0 -0.73135370988377701 1 I I #
point $-1 48.74783175558764 7.9630251786091861 5.9218291893828834 #
plane-surface $-1 52.825098422193058 0 0 -1 0 0 0 0 1 forward_v I I I I #
coedge $-1 $247 $245 $249 $348 reversed $161 $-1 #
edge $-1 $260 -11.756869911073277 $350 11.756869911073277 $259 $403 forward 7 unknown #
vertex $-1 $348 $404 #
straight-curve $-1 -52.825098422193058 -33.659294409546192 0 0 0 -1 I I #
edge $-1 $346 -33.659294409546192 $350 33.659294409546192 $344 $405 forward 7 unknown #
straight-curve $-1 0 -33.659294409546192 -11.756869911073277 -1 0 0 I I #
vertex $-1 $252 $406 #
straight-curve $-1 0 33.659294409546192 -11.756869911073277 1 0 0 I I #
point $-1 52.825098422193058 33.659294409546192 -11.756869911073277 #
point $-1 52.825098422193058 -33.659294409546192 -11.756869911073277 #
straight-curve $-1 -52.825098422193058 0 11.756869911073277 0 -1 0 I I #
point $-1 -52.825098422193058 33.659294409546192 11.756869911073277 #
point $-1 -52.825098422193058 -33.659294409546192 11.756869911073277 #
straight-curve $-1 52.825098422193058 -33.659294409546192 0 0 0 -1 I I #
straight-curve $-1 52.825098422193058 33.659294409546192 0 0 0 -1 I I #
plane-surface $-1 0 33.659294409546192 0 0 -1 0 0 0 -1 forward_v I I I I #
coedge $-1 $273 $272 $407 $408 forward $109 $-1 #
edge $-1 $276 37.549943838283802 $409 52.825098422193058 $275 $410 forward 7 unknown #
coedge $-1 $281 $280 $273 $363 reversed $282 $-1 #
edge $-1 $411 -52.825098422193058 $364 -37.549943838283802 $362 $412 forward 7 unknown #
vertex $-1 $288 $413 #
straight-curve $-1 -37.549943838283802 0 -11.756869911073277 0 -1 0 I I #
point $-1 -37.549943838283802 -33.659294409546192 -11.756869911073277 #
coedge $-1 $407 $278 $281 $370 forward $270 $-1 #
coedge $-1 $278 $407 $285 $372 reversed $270 $-1 #
straight-curve $-1 -52.825098422193058 0 -6.0046256702106859 0 1 0 I I #
edge $-1 $283 6.0046256702106859 $411 11.756869911073277 $281 $414 forward 7 unknown #
point $-1 -52.825098422193058 33.659294409546192 -6.0046256702106859 #
edge $-1 $286 6.0046256702106859 $409 11.756869911073277 $368 $415 forward 7 unknown #
point $-1 -52.825098422193058 -33.659294409546192 -6.0046256702106859 #
straight-curve $-1 -37.549943838283802 33.659294409546192 -4.4403738953209908 0 0 -1 I I #
coedge $-1 $302 $301 $294 $376 forward $291 $-1 #
edge $-1 $377 63.678339764605738 $380 73.885713788218979 $375 $416 forward 7 unknown #
vertex $-1 $306 $417 #
straight-curve $-1 29.01975089124063 -11.148235250052856 11.756869911073281 1 0 0 I I #
edge $-1 $380 -8.3611764375396422 $303 2.7870588125132141 $302 $418 forward 7 unknown #
vertex $-1 $379 $419 #
straight-curve $-1 -19.22816162961184 -11.148235250052856 78.81715929955314 -0.68199835119979291 0 0.73135370988377701 I I #
point $-1 43.306568386582661 -11.148235250052856 11.756869911073281 #
point $-1 52.825098422193058 0 1.54949588746004 #
straight-curve $-1 52.825098422193058 0 11.756869911073277 0 1 0 I I #
vertex $-1 $309 $420 #
point $-1 46.052288795018967 -7.9630251786091826 3.4081947743907319 #
vertex $-1 $313 $421 #
point $-1 46.052288795018967 -3.1852100714436737 3.4081947743907319 #
coedge $-1 $330 $322 $319 $390 forward $317 $-1 #
edge $-1 $325 14.286817495342031 $397 23.805347530952428 $389 $422 forward 7 unknown #
edge $-1 $397 63.678339764605738 $326 73.885713788218979 $320 $423 forward 7 unknown #
straight-curve $-1 52.825098422193051 -2.7870588125132141 1.5494958874600471 0 1 0 I I #
straight-curve $-1 43.306568386582668 -2.7870588125132141 11.756869911073267 0 -1 0 I I #
point $-1 43.306568386582661 0 11.756869911073281 #
point $-1 52.825098422193058 0 1.54949588746004 #
point $-1 43.306568386582661 11.14823525005286 11.756869911073281 #
vertex $-1 $332 $424 #
straight-curve $-1 52.825098422193058 0 11.756869911073277 0 1 0 I I #
vertex $-1 $335 $425 #
point $-1 46.052288795018967 3.1852100714436773 3.4081947743907319 #
vertex $-1 $339 $426 #
point $-1 46.052288795018967 7.9630251786091861 3.4081947743907319 #
straight-curve $-1 -52.825098422193058 33.659294409546192 0 0 0 -1 I I #
point $-1 -52.825098422193058 -33.659294409546192 -11.756869911073277 #
straight-curve $-1 -52.825098422193058 0 -11.756869911073277 0 1 0 I I #
point $-1 -52.825098422193058 33.659294409546192 -11.756869911073277 #
coedge $-1 $368 $367 $360 $408 reversed $270 $-1 #
edge $-1 $409 -33.659294409546192 $411 33.659294409546192 $407 $427 forward 7 unknown #
vertex $-1 $408 $428 #
straight-curve $-1 0 -33.659294409546192 -11.756869911073277 -1 0 0 I I #
vertex $-1 $363 $429 #
straight-curve $-1 0 33.659294409546192 -11.756869911073277 1 0 0 I I #
point $-1 -37.549943838283802 33.659294409546192 -11.756869911073277 #
straight-curve $-1 -52.825098422193058 33.659294409546192 0 0 0 -1 I I #
straight-curve $-1 -52.825098422193058 -33.659294409546192 0 0 0 -1 I I #
straight-curve $-1 52.825098422193058 -11.148235250052856 75.435209675679019 0 0 -1 I I #
point $-1 52.825098422193058 -11.148235250052856 11.756869911073277 #
straight-curve $-1 52.825098422193051 -2.7870588125132141 1.5494958874600471 0 1 0 I I #
point $-1 52.825098422193058 -11.148235250052856 1.54949588746004 #
point $-1 44.638936733935395 -7.9630251786091826 3.457550133074716 #
point $-1 44.638936733935395 -3.1852100714436737 3.457550133074716 #
straight-curve $-1 29.01975089124063 0 11.756869911073281 1 0 0 I I #
straight-curve $-1 52.825098422193058 0 75.435209675679019 0 0 -1 I I #
point $-1 52.825098422193058 0 11.756869911073277 #
point $-1 44.638936733935395 3.1852100714436773 3.457550133074716 #
point $-1 44.638936733935395 7.9630251786091861 3.457550133074716 #
straight-curve $-1 -52.825098422193058 0 -11.756869911073277 0 1 0 I I #
point $-1 -52.825098422193058 -33.659294409546192 -11.756869911073277 #
point $-1 -52.825098422193058 33.659294409546192 -11.756869911073277 #
End-of-ACIS-data 