500 0 6 0           
7 Unknown 11 ACIS 5.0 NT 24 Fri Mar 26 19:09:20 1999 
-1 9.9999999999999995e-007 1e-010 
body $-1 $6 $-1 $7 #
body $-1 $8 $-1 $9 #
body $-1 $10 $-1 $11 #
body $-1 $12 $-1 $13 #
body $-1 $14 $-1 $15 #
body $-1 $16 $-1 $17 #
lump $-1 $-1 $18 $0 #
transform $-1 1 0 0 0 1 0 0 0 1 47.716299935911131 32.25681289865944 13.739785861015037 1 rotate no_reflect no_shear #
lump $-1 $-1 $19 $1 #
transform $-1 1 0 0 0 1 0 0 0 1 47.716299935911131 32.25681289865944 13.739785861015037 1 rotate no_reflect no_shear #
lump $-1 $-1 $20 $2 #
transform $-1 1 0 0 0 1 0 0 0 1 47.716299935911131 32.25681289865944 13.739785861015037 1 rotate no_reflect no_shear #
lump $-1 $-1 $21 $3 #
transform $-1 1 0 0 0 1 0 0 0 1 47.716299935911131 32.25681289865944 13.739785861015037 1 rotate no_reflect no_shear #
lump $-1 $-1 $22 $4 #
transform $-1 1 0 0 0 1 0 0 0 1 47.716299935911131 32.25681289865944 13.739785861015037 1 rotate no_reflect no_shear #
lump $-1 $-1 $23 $5 #
transform $-1 1 0 0 0 1 0 0 0 1 47.716299935911131 32.25681289865944 13.739785861015037 1 rotate no_reflect no_shear #
shell $-1 $-1 $-1 $24 $-1 $6 #
shell $-1 $-1 $-1 $25 $-1 $8 #
shell $-1 $-1 $-1 $26 $-1 $10 #
shell $-1 $-1 $-1 $27 $-1 $12 #
shell $-1 $-1 $-1 $28 $-1 $14 #
shell $-1 $-1 $-1 $29 $-1 $16 #
face $-1 $30 $31 $18 $-1 $32 forward single #
face $-1 $33 $34 $19 $-1 $35 forward single #
face $-1 $36 $37 $20 $-1 $38 reversed single #
face $-1 $39 $40 $21 $-1 $41 forward single #
face $-1 $42 $43 $22 $-1 $44 reversed single #
face $-1 $45 $46 $23 $-1 $47 forward single #
face $-1 $48 $49 $18 $-1 $50 reversed single #
loop $-1 $-1 $51 $24 #
plane-surface $-1 0 0 13.739785861015037 0 0 1 1 0 0 forward_v I I I I #
face $-1 $52 $53 $19 $-1 $54 reversed single #
loop $-1 $-1 $55 $25 #
plane-surface $-1 0 -23.908518674052473 -0.89688921809380195 0 0 1 1 0 0 forward_v I I I I #
face $-1 $56 $57 $20 $-1 $58 reversed single #
loop $-1 $-1 $59 $26 #
plane-surface $-1 -110.32571950323847 -11.890107359680997 72.433927309941723 0 1 0 -0.6560590369687036 0 0.75470957328743171 forward_v I I I I #
face $-1 $60 $61 $21 $-1 $62 forward single #
loop $-1 $63 $64 $27 #
cone-surface $-1 -39.214430484216251 -7.0510605135492241 6.1145750116450053 0.6560590369687036 0 -0.75470957328743171 0.75470957328743171 0 0.6560590369687036 1 I I 0 1 1 forward I I I I #
face $-1 $65 $66 $22 $-1 $67 reversed single #
loop $-1 $-1 $68 $28 #
plane-surface $-1 38.301822776265276 -2.2120136674174518 135.04334687726907 0 -1 0 -0.6560590369687036 0 -0.75470957328743171 forward_v I I I I #
face $-1 $69 $70 $23 $-1 $71 forward single #
loop $-1 $72 $73 $29 #
cone-surface $-1 39.214430484216237 -7.0510605135492241 6.1145750116450124 -0.6560590369687036 0 -0.75470957328743171 0.75470957328743171 0 -0.6560590369687036 1 I I 0 1 1 forward I I I I #
face $-1 $74 $75 $18 $-1 $76 reversed single #
loop $-1 $-1 $77 $30 #
plane-surface $-1 0 0 -13.739785861015037 0 0 1 1 0 0 forward_v I I I I #
coedge $-1 $78 $79 $80 $81 forward $31 $-1 #
face $-1 $82 $83 $19 $-1 $84 reversed single #
loop $-1 $-1 $85 $33 #
plane-surface $-1 0 -23.908518674052473 -8.2598579319799494 0 0 1 1 0 0 forward_v I I I I #
coedge $-1 $86 $87 $88 $89 reversed $34 $-1 #
face $-1 $90 $91 $20 $-1 $92 reversed single #
loop $-1 $-1 $93 $36 #
plane-surface $-1 -47.716299935911145 -7.0510605135492241 0.41003058296854533 -0.6560590369687036 0 0.75470957328743171 0.75470957328743171 0 0.6560590369687036 forward_v I I I I #
coedge $-1 $94 $95 $96 $97 reversed $37 $-1 #
face $-1 $-1 $98 $21 $-1 $99 forward single #
loop $-1 $100 $101 $39 #
cone-surface $-1 -38.051596024269706 -7.0510605135492241 4.7768870146545126 0.6560590369687036 0 -0.75470957328743171 0.37735478664371586 0 0.3280295184843518 1 I I -0.70710678118654746 0.70710678118654746 0.5 forward I I I I #
loop $-1 $-1 $102 $27 #
coedge $-1 $64 $64 $103 $104 reversed $40 $-1 #
face $-1 $105 $106 $22 $-1 $107 reversed single #
loop $-1 $-1 $108 $42 #
plane-surface $-1 -24.307596791062053 -7.0510605135492241 63.019450150295896 0.6560590369687036 0 0.75470957328743171 0.75470957328743171 0 -0.6560590369687036 forward_v I I I I #
coedge $-1 $109 $110 $111 $112 reversed $43 $-1 #
face $-1 $-1 $113 $23 $-1 $114 forward single #
loop $-1 $115 $116 $45 #
cone-surface $-1 38.051596024269692 -7.0510605135492241 4.7768870146545197 -0.6560590369687036 0 -0.75470957328743171 0.37735478664371586 0 -0.3280295184843518 1 I I -0.70710678118654746 0.70710678118654746 0.5 forward I I I I #
loop $-1 $-1 $117 $29 #
coedge $-1 $73 $73 $118 $119 reversed $46 $-1 #
face $-1 $120 $121 $18 $-1 $122 reversed single #
loop $-1 $-1 $123 $48 #
plane-surface $-1 0 -32.25681289865944 0 0 1 0 0 0 1 forward_v I I I I #
coedge $-1 $124 $125 $126 $127 forward $49 $-1 #
coedge $-1 $128 $51 $129 $130 forward $31 $-1 #
coedge $-1 $51 $128 $131 $132 forward $31 $-1 #
coedge $-1 $133 $134 $51 $81 reversed $135 $-1 #
edge $-1 $136 -32.25681289865944 $137 32.25681289865944 $80 $138 forward 7 unknown #
face $-1 $139 $140 $19 $-1 $141 reversed single #
loop $-1 $-1 $142 $52 #
plane-surface $-1 0 -15.560224449445508 -4.5783735750368759 0 -1 0 0 0 -1 forward_v I I I I #
coedge $-1 $143 $144 $145 $146 reversed $53 $-1 #
coedge $-1 $147 $55 $148 $149 forward $34 $-1 #
coedge $-1 $55 $147 $150 $151 reversed $34 $-1 #
coedge $-1 $152 $153 $55 $89 forward $154 $-1 #
edge $-1 $155 3.6059651124192715 $156 20.302553561633204 $88 $157 forward 7 unknown #
face $-1 $158 $159 $20 $-1 $160 reversed single #
loop $-1 $-1 $161 $56 #
plane-surface $-1 -110.32571950323847 -2.2120136674174518 72.433927309941723 0 -1 0 0.6560590369687036 0 -0.75470957328743171 forward_v I I I I #
coedge $-1 $162 $163 $164 $165 reversed $57 $-1 #
coedge $-1 $95 $59 $166 $167 reversed $37 $-1 #
coedge $-1 $59 $94 $162 $168 reversed $37 $-1 #
coedge $-1 $164 $169 $59 $97 forward $170 $-1 #
edge $-1 $171 7.4465598157081061 $172 22.780688836173454 $96 $173 forward 7 unknown #
loop $-1 $-1 $103 $60 #
plane-surface $-1 -47.716299935911145 -7.0510605135492241 0.41003058296854533 -0.6560590369687036 0 0.75470957328743171 0.75470957328743171 0 0.6560590369687036 forward_v I I I I #
loop $-1 $-1 $174 $39 #
coedge $-1 $101 $101 $102 $175 reversed $61 $-1 #
coedge $-1 $102 $102 $101 $175 forward $63 $-1 #
coedge $-1 $103 $103 $64 $104 forward $98 $-1 #
edge $-1 $176 0 $176 6.2831853071796004 $103 $177 forward 7 unknown #
face $-1 $178 $179 $22 $-1 $180 forward single #
loop $-1 $-1 $181 $65 #
plane-surface $-1 38.301822776265276 -11.890107359680997 135.04334687726907 0 1 0 0.6560590369687036 0 0.75470957328743171 forward_v I I I I #
coedge $-1 $182 $183 $184 $185 reversed $66 $-1 #
coedge $-1 $110 $68 $186 $187 reversed $43 $-1 #
coedge $-1 $68 $109 $182 $188 reversed $43 $-1 #
coedge $-1 $184 $189 $68 $112 forward $179 $-1 #
edge $-1 $190 -28.565388547778493 $191 -13.231259527313146 $111 $192 forward 7 unknown #
loop $-1 $-1 $118 $69 #
plane-surface $-1 -24.307596791062053 -7.0510605135492241 63.019450150295896 0.6560590369687036 0 0.75470957328743171 0.75470957328743171 0 -0.6560590369687036 forward_v I I I I #
loop $-1 $-1 $193 $45 #
coedge $-1 $116 $116 $117 $194 reversed $70 $-1 #
coedge $-1 $117 $117 $116 $194 forward $72 $-1 #
coedge $-1 $118 $118 $73 $119 forward $113 $-1 #
edge $-1 $195 0 $195 6.2831853071796004 $118 $196 forward 7 unknown #
face $-1 $197 $198 $18 $-1 $199 reversed single #
loop $-1 $-1 $200 $74 #
plane-surface $-1 -47.716299935911131 0 0 1 0 0 0 0 -1 forward_v I I I I #
coedge $-1 $201 $131 $202 $203 forward $75 $-1 #
coedge $-1 $204 $77 $201 $205 forward $49 $-1 #
coedge $-1 $77 $204 $206 $207 forward $49 $-1 #
coedge $-1 $134 $133 $77 $127 reversed $135 $-1 #
edge $-1 $208 -32.25681289865944 $209 32.25681289865944 $126 $210 forward 7 unknown #
coedge $-1 $79 $78 $211 $212 forward $31 $-1 #
coedge $-1 $213 $214 $78 $130 reversed $198 $-1 #
edge $-1 $137 -47.716299935911131 $215 47.716299935911131 $129 $216 forward 7 unknown #
coedge $-1 $123 $217 $79 $132 reversed $75 $-1 #
edge $-1 $218 -47.716299935911131 $136 47.716299935911131 $131 $219 forward 7 unknown #
coedge $-1 $126 $80 $217 $220 forward $135 $-1 #
coedge $-1 $80 $126 $213 $221 reversed $135 $-1 #
loop $-1 $-1 $133 $197 #
vertex $-1 $81 $222 #
vertex $-1 $81 $223 #
straight-curve $-1 47.716299935911131 0 13.739785861015037 0 1 0 I I #
face $-1 $224 $225 $19 $-1 $226 reversed single #
loop $-1 $-1 $227 $82 #
plane-surface $-1 -47.716299935911131 0 0 1 0 0 0 0 -1 forward_v I I I I #
coedge $-1 $228 $148 $153 $229 reversed $83 $-1 #
coedge $-1 $230 $85 $231 $232 reversed $53 $-1 #
coedge $-1 $85 $230 $228 $233 forward $53 $-1 #
coedge $-1 $153 $152 $85 $146 forward $154 $-1 #
edge $-1 $234 -20.302553561633204 $235 -3.6059651124192715 $145 $236 forward 7 unknown #
coedge $-1 $87 $86 $227 $237 reversed $34 $-1 #
coedge $-1 $142 $238 $86 $149 reversed $83 $-1 #
edge $-1 $155 -47.716299935911131 $239 47.716299935911131 $148 $240 forward 7 unknown #
coedge $-1 $241 $242 $87 $151 forward $225 $-1 #
edge $-1 $156 -47.716299935911131 $243 47.716299935911131 $150 $244 forward 7 unknown #
coedge $-1 $145 $88 $242 $245 forward $154 $-1 #
coedge $-1 $88 $145 $142 $229 forward $154 $-1 #
loop $-1 $-1 $88 $224 #
vertex $-1 $89 $246 #
vertex $-1 $245 $247 #
straight-curve $-1 47.716299935911131 -11.954259337026237 -0.89688921809380195 0 -1 0 I I #
face $-1 $-1 $170 $20 $-1 $248 forward single #
loop $-1 $-1 $249 $90 #
plane-surface $-1 -47.716299935911131 0 0 1 0 0 0 0 -1 forward_v I I I I #
coedge $-1 $250 $251 $252 $253 reversed $91 $-1 #
coedge $-1 $254 $93 $95 $168 forward $57 $-1 #
coedge $-1 $93 $254 $250 $255 forward $57 $-1 #
coedge $-1 $252 $96 $93 $165 forward $170 $-1 #
edge $-1 $172 -8.3645771029063845 $256 1.3135165893571603 $164 $257 forward 7 unknown #
coedge $-1 $258 $259 $94 $167 forward $159 $-1 #
edge $-1 $260 -35.806933072002302 $171 -22.477177793955825 $166 $261 forward 7 unknown #
edge $-1 $172 -20.317920380513513 $260 -1.8846414207329876e-014 $95 $262 forward 7 unknown #
coedge $-1 $96 $252 $258 $263 forward $170 $-1 #
loop $-1 $-1 $252 $158 #
vertex $-1 $167 $264 #
vertex $-1 $97 $265 #
straight-curve $-1 -55.162859751619237 -11.890107359680997 13.739785861015037 1 0 0 I I #
coedge $-1 $174 $174 $-1 $266 reversed $100 $-1 #
edge $-1 $267 0 $267 6.2831853071796004 $101 $268 forward 7 unknown #
vertex $-1 $104 $269 #
ellipse-curve $-1 -40.049235425678454 -7.0510605135492241 7.0749082219917971 -0.6560590369687036 0 0.75470957328743171 0.75470957328743171 0 0.6560590369687036 1 I I #
face $-1 $-1 $270 $22 $-1 $271 reversed single #
loop $-1 $-1 $111 $105 #
plane-surface $-1 0 0 13.739785861015037 0 0 1 1 0 0 forward_v I I I I #
coedge $-1 $272 $273 $274 $275 reversed $106 $-1 #
coedge $-1 $276 $108 $110 $188 forward $66 $-1 #
coedge $-1 $108 $276 $272 $277 forward $66 $-1 #
coedge $-1 $274 $111 $108 $185 forward $179 $-1 #
edge $-1 $191 -1.3135165893571603 $278 8.3645771029063845 $184 $279 forward 7 unknown #
coedge $-1 $280 $281 $109 $187 forward $270 $-1 #
edge $-1 $282 -67.111642855665991 $190 -53.7818875776195 $186 $283 forward 7 unknown #
edge $-1 $191 75.114679491308777 $282 95.432599871822276 $110 $284 forward 7 unknown #
coedge $-1 $111 $274 $280 $285 forward $179 $-1 #
vertex $-1 $187 $286 #
vertex $-1 $112 $287 #
straight-curve $-1 19.150911388132638 -2.2120136674174518 13.739785861015037 -1 0 0 I I #
coedge $-1 $193 $193 $-1 $288 reversed $115 $-1 #
edge $-1 $289 0 $289 6.2831853071796004 $116 $290 forward 7 unknown #
vertex $-1 $119 $291 #
ellipse-curve $-1 40.04923542567844 -7.0510605135492241 7.0749082219918042 0.6560590369687036 0 0.75470957328743171 0.75470957328743171 0 -0.6560590369687036 1 I I #
face $-1 $-1 $135 $18 $-1 $292 reversed single #
loop $-1 $-1 $213 $120 #
plane-surface $-1 0 32.25681289865944 0 0 -1 0 0 0 -1 forward_v I I I I #
coedge $-1 $293 $211 $214 $294 forward $121 $-1 #
coedge $-1 $217 $123 $124 $205 reversed $75 $-1 #
coedge $-1 $211 $293 $123 $203 reversed $121 $-1 #
edge $-1 $218 -13.739785861015037 $295 13.739785861015037 $202 $296 forward 7 unknown #
coedge $-1 $125 $124 $293 $297 forward $49 $-1 #
edge $-1 $209 -47.716299935911131 $295 47.716299935911131 $201 $298 forward 7 unknown #
coedge $-1 $214 $213 $125 $207 reversed $198 $-1 #
edge $-1 $299 -47.716299935911131 $208 47.716299935911131 $206 $300 forward 7 unknown #
vertex $-1 $127 $301 #
vertex $-1 $220 $302 #
straight-curve $-1 47.716299935911131 0 -13.739785861015037 0 -1 0 I I #
coedge $-1 $200 $202 $128 $212 reversed $121 $-1 #
edge $-1 $215 -32.25681289865944 $218 32.25681289865944 $211 $303 forward 7 unknown #
coedge $-1 $206 $129 $134 $221 forward $198 $-1 #
coedge $-1 $129 $206 $200 $294 reversed $198 $-1 #
vertex $-1 $130 $304 #
straight-curve $-1 0 32.25681289865944 13.739785861015037 -1 0 0 I I #
coedge $-1 $131 $201 $133 $220 reversed $75 $-1 #
vertex $-1 $212 $305 #
straight-curve $-1 0 -32.25681289865944 13.739785861015037 1 0 0 I I #
edge $-1 $136 -13.739785861015037 $209 13.739785861015037 $133 $306 forward 7 unknown #
edge $-1 $137 -13.739785861015037 $208 13.739785861015037 $134 $307 forward 7 unknown #
point $-1 47.716299935911131 -32.25681289865944 13.739785861015037 #
point $-1 47.716299935911131 32.25681289865944 13.739785861015037 #
face $-1 $-1 $154 $19 $-1 $308 reversed single #
loop $-1 $-1 $150 $139 #
plane-surface $-1 0 -32.25681289865944 0 0 1 0 0 0 1 forward_v I I I I #
coedge $-1 $309 $310 $147 $237 forward $140 $-1 #
coedge $-1 $238 $142 $144 $233 reversed $83 $-1 #
edge $-1 $235 -5.9706711444615115 $155 1.392297569424636 $153 $311 forward 7 unknown #
coedge $-1 $144 $143 $312 $313 reversed $53 $-1 #
coedge $-1 $242 $241 $143 $232 forward $225 $-1 #
edge $-1 $314 -47.716299935911131 $234 47.716299935911131 $231 $315 forward 7 unknown #
edge $-1 $316 -47.716299935911131 $235 47.716299935911131 $228 $317 forward 7 unknown #
vertex $-1 $232 $318 #
vertex $-1 $146 $319 #
straight-curve $-1 47.716299935911131 -11.954259337026237 -8.2598579319799494 0 1 0 I I #
edge $-1 $243 -20.302553561633204 $239 -3.6059651124192715 $227 $320 forward 7 unknown #
coedge $-1 $148 $228 $309 $321 reversed $83 $-1 #
vertex $-1 $237 $322 #
straight-curve $-1 0 -15.560224449445508 -0.89688921809380195 -1 0 0 I I #
coedge $-1 $231 $150 $310 $323 forward $225 $-1 #
coedge $-1 $150 $231 $152 $245 reversed $225 $-1 #
vertex $-1 $323 $324 #
straight-curve $-1 0 -32.25681289865944 -0.89688921809380195 -1 0 0 I I #
edge $-1 $156 0.89688921809380195 $234 8.2598579319799494 $152 $325 forward 7 unknown #
point $-1 47.716299935911131 -15.560224449445508 -0.89688921809380195 #
point $-1 47.716299935911131 -32.25681289865944 -0.89688921809380195 #
plane-surface $-1 0 0 13.739785861015037 0 0 1 1 0 0 forward_v I I I I #
coedge $-1 $259 $258 $251 $326 forward $159 $-1 #
coedge $-1 $251 $161 $163 $255 reversed $91 $-1 #
coedge $-1 $161 $250 $249 $326 reversed $91 $-1 #
coedge $-1 $169 $164 $161 $253 forward $170 $-1 #
edge $-1 $256 -22.780688836173454 $327 -7.4465598157081061 $252 $328 forward 7 unknown #
coedge $-1 $163 $162 $259 $329 reversed $57 $-1 #
edge $-1 $330 1.8846414207329876e-014 $256 20.317920380513513 $250 $331 forward 7 unknown #
vertex $-1 $165 $332 #
straight-curve $-1 -32.382170915445776 -3.5255302567746121 13.739785861015037 0 1 0 I I #
coedge $-1 $249 $166 $169 $263 reversed $159 $-1 #
coedge $-1 $166 $249 $254 $329 forward $159 $-1 #
vertex $-1 $167 $333 #
straight-curve $-1 -47.716299935911131 -11.890107359680997 36.216963654970861 0 0 1 I I #
straight-curve $-1 -47.716299935911145 -11.890107359680997 0.41003058296854533 -0.75470957328743171 0 -0.6560590369687036 I I #
edge $-1 $327 2.2120136674174518 $171 11.890107359680997 $258 $334 forward 7 unknown #
point $-1 -47.716299935911131 -11.890107359680997 13.739785861015037 #
point $-1 -32.382170915445784 -11.890107359680997 13.739785861015037 #
edge $-1 $335 1 $335 0 $174 $-1 forward 7 unknown #
vertex $-1 $175 $336 #
ellipse-curve $-1 -38.379625542754056 -7.0510605135492241 5.1542418012982285 -0.6560590369687036 0 0.75470957328743171 0.75470957328743171 0 0.6560590369687036 1 I I #
point $-1 -39.294525852391011 -7.0510605135492241 7.7309672589604856 #
loop $-1 $-1 $186 $178 #
plane-surface $-1 47.716299935911131 0 0 -1 0 0 0 0 1 forward_v I I I I #
coedge $-1 $273 $181 $183 $277 reversed $106 $-1 #
coedge $-1 $181 $272 $337 $338 reversed $106 $-1 #
coedge $-1 $189 $184 $181 $275 forward $179 $-1 #
edge $-1 $278 13.231259527313146 $339 28.565388547778493 $274 $340 forward 7 unknown #
coedge $-1 $183 $182 $281 $341 reversed $66 $-1 #
edge $-1 $342 -95.432599871822276 $278 -75.114679491308777 $272 $343 forward 7 unknown #
vertex $-1 $185 $344 #
straight-curve $-1 32.382170915445784 -3.5255302567746121 13.739785861015044 0 -1 0 I I #
coedge $-1 $337 $186 $189 $285 reversed $270 $-1 #
coedge $-1 $186 $337 $276 $341 forward $270 $-1 #
vertex $-1 $187 $345 #
straight-curve $-1 47.716299935911131 -2.2120136674174518 67.521673438634537 0 0 1 I I #
straight-curve $-1 -24.307596791062053 -2.2120136674174518 63.019450150295896 0.75470957328743171 0 -0.6560590369687036 I I #
edge $-1 $339 -11.890107359680997 $190 -2.2120136674174518 $280 $346 forward 7 unknown #
point $-1 47.716299935911131 -2.2120136674174518 13.739785861015037 #
point $-1 32.382170915445784 -2.2120136674174518 13.739785861015037 #
edge $-1 $347 1 $347 0 $193 $-1 forward 7 unknown #
vertex $-1 $194 $348 #
ellipse-curve $-1 38.379625542754042 -7.0510605135492241 5.1542418012982356 0.6560590369687036 0 0.75470957328743171 0.75470957328743171 0 -0.6560590369687036 1 I I #
point $-1 40.803944998965861 -7.0510605135492241 6.4188491850230855 #
plane-surface $-1 47.716299935911131 0 0 -1 0 0 0 0 1 forward_v I I I I #
coedge $-1 $202 $200 $204 $297 reversed $121 $-1 #
edge $-1 $215 -13.739785861015037 $299 13.739785861015037 $214 $349 forward 7 unknown #
vertex $-1 $297 $350 #
straight-curve $-1 -47.716299935911131 -32.25681289865944 0 0 0 -1 I I #
edge $-1 $295 -32.25681289865944 $299 32.25681289865944 $293 $351 forward 7 unknown #
straight-curve $-1 0 -32.25681289865944 -13.739785861015037 -1 0 0 I I #
vertex $-1 $207 $352 #
straight-curve $-1 0 32.25681289865944 -13.739785861015037 1 0 0 I I #
point $-1 47.716299935911131 32.25681289865944 -13.739785861015037 #
point $-1 47.716299935911131 -32.25681289865944 -13.739785861015037 #
straight-curve $-1 -47.716299935911131 0 13.739785861015037 0 -1 0 I I #
point $-1 -47.716299935911131 32.25681289865944 13.739785861015037 #
point $-1 -47.716299935911131 -32.25681289865944 13.739785861015037 #
straight-curve $-1 47.716299935911131 -32.25681289865944 0 0 0 -1 I I #
straight-curve $-1 47.716299935911131 32.25681289865944 0 0 0 -1 I I #
plane-surface $-1 47.716299935911131 0 0 -1 0 0 0 0 1 forward_v I I I I #
coedge $-1 $312 $227 $238 $321 forward $140 $-1 #
coedge $-1 $227 $312 $241 $323 reversed $140 $-1 #
straight-curve $-1 47.716299935911131 -15.560224449445508 -2.289186787518438 0 0 1 I I #
coedge $-1 $310 $309 $230 $313 forward $140 $-1 #
edge $-1 $316 3.6059651124192715 $314 20.302553561633204 $312 $353 forward 7 unknown #
vertex $-1 $232 $354 #
straight-curve $-1 0 -32.25681289865944 -8.2598579319799494 1 0 0 I I #
vertex $-1 $313 $355 #
straight-curve $-1 0 -15.560224449445508 -8.2598579319799494 1 0 0 I I #
point $-1 47.716299935911131 -32.25681289865944 -8.2598579319799494 #
point $-1 47.716299935911131 -15.560224449445508 -8.2598579319799494 #
straight-curve $-1 -47.716299935911131 -11.954259337026237 -0.89688921809380195 0 1 0 I I #
edge $-1 $239 -1.392297569424636 $316 5.9706711444615115 $309 $356 forward 7 unknown #
point $-1 -47.716299935911131 -15.560224449445508 -0.89688921809380195 #
edge $-1 $243 0.89688921809380195 $314 8.2598579319799494 $310 $357 forward 7 unknown #
point $-1 -47.716299935911131 -32.25681289865944 -0.89688921809380195 #
straight-curve $-1 47.716299935911131 -32.25681289865944 0 0 0 -1 I I #
edge $-1 $327 22.477177793955825 $330 35.806933072002302 $249 $358 forward 7 unknown #
vertex $-1 $263 $359 #
straight-curve $-1 -55.162859751619237 -2.2120136674174518 13.739785861015037 -1 0 0 I I #
edge $-1 $330 -1.3135165893571603 $260 8.3645771029063845 $259 $360 forward 7 unknown #
vertex $-1 $329 $361 #
straight-curve $-1 -47.716299935911145 -2.2120136674174518 0.41003058296854533 0.75470957328743171 0 0.6560590369687036 I I #
point $-1 -32.382170915445784 -2.2120136674174518 13.739785861015037 #
point $-1 -47.716299935911131 -11.890107359680997 0.41003058296855771 #
straight-curve $-1 -47.716299935911131 0 13.739785861015037 0 -1 0 I I #
vertex $-1 $266 $362 #
point $-1 -37.624915969466628 -7.0510605135492241 5.8103008382669321 #
coedge $-1 $281 $280 $273 $338 forward $270 $-1 #
edge $-1 $339 53.7818875776195 $342 67.111642855665991 $337 $363 forward 7 unknown #
vertex $-1 $285 $364 #
straight-curve $-1 19.150911388132638 -11.890107359680997 13.739785861015037 1 0 0 I I #
edge $-1 $342 -8.3645771029063845 $282 1.3135165893571603 $281 $365 forward 7 unknown #
vertex $-1 $341 $366 #
straight-curve $-1 -24.307596791062053 -11.890107359680997 63.019450150295896 -0.75470957328743171 0 0.6560590369687036 I I #
point $-1 32.382170915445784 -11.890107359680997 13.739785861015037 #
point $-1 47.716299935911138 -2.2120136674174518 0.41003058296855244 #
straight-curve $-1 47.716299935911131 0 13.739785861015037 0 1 0 I I #
vertex $-1 $288 $367 #
point $-1 39.134335116041477 -7.0510605135492241 4.498182764329532 #
straight-curve $-1 -47.716299935911131 32.25681289865944 0 0 0 -1 I I #
point $-1 -47.716299935911131 -32.25681289865944 -13.739785861015037 #
straight-curve $-1 -47.716299935911131 0 -13.739785861015037 0 1 0 I I #
point $-1 -47.716299935911131 32.25681289865944 -13.739785861015037 #
straight-curve $-1 -47.716299935911131 -11.954259337026237 -8.2598579319799494 0 -1 0 I I #
point $-1 -47.716299935911131 -32.25681289865944 -8.2598579319799494 #
point $-1 -47.716299935911131 -15.560224449445508 -8.2598579319799494 #
straight-curve $-1 -47.716299935911131 -15.560224449445508 -2.289186787518438 0 0 -1 I I #
straight-curve $-1 -47.716299935911131 -32.25681289865944 0 0 0 -1 I I #
straight-curve $-1 -47.716299935911131 -2.2120136674174518 36.216963654970861 0 0 -1 I I #
point $-1 -47.716299935911131 -2.2120136674174518 13.739785861015037 #
straight-curve $-1 -47.716299935911131 -3.5255302567746121 0.41003058296855766 0 -1 0 I I #
point $-1 -47.716299935911131 -2.2120136674174518 0.41003058296855771 #
point $-1 -37.723566505785357 -7.0510605135492241 4.3995322280107967 #
straight-curve $-1 47.716299935911131 -11.890107359680997 67.521673438634537 0 0 -1 I I #
point $-1 47.716299935911131 -11.890107359680997 13.739785861015037 #
straight-curve $-1 47.716299935911131 -3.5255302567746121 0.41003058296856665 0 1 0 I I #
point $-1 47.716299935911138 -11.890107359680997 0.41003058296855244 #
point $-1 37.723566505785342 -7.0510605135492241 4.3995322280108038 #
End-of-ACIS-data 