500 0 3 0           
7 Unknown 11 ACIS 5.0 NT 24 Thu Mar 25 18:20:21 1999 
-1 9.9999999999999995e-007 1e-010 
body $-1 $3 $-1 $4 #
body $-1 $5 $-1 $6 #
body $-1 $7 $-1 $8 #
lump $-1 $-1 $9 $0 #
transform $-1 1 0 0 0 1 0 0 0 1 63.410138248847929 34.535080604727781 11.016192190213802 1 rotate no_reflect no_shear #
lump $-1 $-1 $10 $1 #
transform $-1 1 0 0 0 1 0 0 0 1 63.410138248847929 34.535080604727781 11.016192190213802 1 rotate no_reflect no_shear #
lump $-1 $-1 $11 $2 #
transform $-1 1 0 0 0 1 0 0 0 1 63.410138248847929 34.535080604727781 11.016192190213802 1 rotate no_reflect no_shear #
shell $-1 $-1 $-1 $12 $-1 $3 #
shell $-1 $-1 $-1 $13 $-1 $5 #
shell $-1 $-1 $-1 $14 $-1 $7 #
face $-1 $15 $16 $9 $-1 $17 forward single #
face $-1 $18 $19 $10 $-1 $20 forward single #
face $-1 $21 $22 $11 $-1 $23 reversed single #
face $-1 $24 $25 $9 $-1 $26 reversed single #
loop $-1 $-1 $27 $12 #
plane-surface $-1 0 0 11.016192190213802 0 0 1 1 0 0 forward_v I I I I #
face $-1 $28 $29 $10 $-1 $30 forward single #
loop $-1 $-1 $31 $13 #
plane-surface $-1 61.122237620067558 -127.28556030980403 93.382057368679341 -1 0 0 0 -0.73135370988377701 0.68199835119979291 forward_v I I I I #
face $-1 $32 $33 $11 $-1 $34 reversed single #
loop $-1 $35 $36 $14 #
cone-surface $-1 42.592280749612726 -31.283283342452179 7.7148368658800175 0 0.73135370988377701 -0.68199835119979291 1 0 0 1 I I 0 1 1 forward I I I I #
face $-1 $37 $38 $9 $-1 $39 reversed single #
loop $-1 $-1 $40 $15 #
plane-surface $-1 0 0 -11.016192190213802 0 0 1 1 0 0 forward_v I I I I #
coedge $-1 $41 $42 $43 $44 forward $16 $-1 #
face $-1 $45 $46 $10 $-1 $47 forward single #
loop $-1 $-1 $48 $18 #
plane-surface $-1 42.592280749612726 -34.535080604727781 6.8908378985489236 0 -0.73135370988377701 0.68199835119979291 1 0 0 forward_v I I I I #
coedge $-1 $49 $50 $51 $52 reversed $19 $-1 #
face $-1 $53 $54 $11 $-1 $55 forward single #
loop $-1 $56 $57 $21 #
cone-surface $-1 42.592280749612726 -29.589286734822736 6.1351595117787863 0 0.73135370988377701 -0.68199835119979291 0.5 0 0 1 I I -0.70710678118654746 0.70710678118654746 0.5 forward I I I I #
loop $-1 $-1 $58 $14 #
coedge $-1 $36 $36 $59 $60 reversed $22 $-1 #
face $-1 $61 $62 $9 $-1 $63 reversed single #
loop $-1 $-1 $64 $24 #
plane-surface $-1 0 -34.535080604727781 0 0 1 0 0 0 1 forward_v I I I I #
coedge $-1 $65 $66 $67 $68 forward $25 $-1 #
coedge $-1 $69 $27 $70 $71 forward $16 $-1 #
coedge $-1 $27 $69 $72 $73 forward $16 $-1 #
coedge $-1 $74 $75 $27 $44 reversed $76 $-1 #
edge $-1 $77 -34.535080604727781 $78 34.535080604727781 $43 $79 forward 7 unknown #
face $-1 $80 $81 $10 $-1 $82 forward single #
loop $-1 $-1 $83 $28 #
plane-surface $-1 24.062323879157894 -127.28556030980403 93.382057368679341 1 0 0 0 0.73135370988377701 -0.68199835119979291 forward_v I I I I #
coedge $-1 $84 $85 $86 $87 reversed $29 $-1 #
coedge $-1 $50 $31 $85 $88 forward $19 $-1 #
coedge $-1 $31 $49 $89 $90 reversed $19 $-1 #
coedge $-1 $91 $86 $31 $52 forward $81 $-1 #
edge $-1 $92 -32.954654569350303 $93 -29.107699550174232 $51 $94 forward 7 unknown #
face $-1 $95 $96 $11 $-1 $97 forward single #
loop $-1 $-1 $98 $32 #
plane-surface $-1 61.122237620067558 -127.28556030980403 93.382057368679341 -1 0 0 0 -0.73135370988377701 0.68199835119979291 forward_v I I I I #
loop $-1 $-1 $99 $21 #
coedge $-1 $57 $57 $58 $100 forward $33 $-1 #
coedge $-1 $58 $58 $57 $100 reversed $35 $-1 #
coedge $-1 $59 $59 $36 $60 forward $96 $-1 #
edge $-1 $101 1.6498360804101847e-015 $101 6.2831853071796022 $59 $102 forward 7 unknown #
face $-1 $103 $104 $9 $-1 $105 reversed single #
loop $-1 $-1 $106 $37 #
plane-surface $-1 -63.410138248847929 0 0 1 0 0 0 0 -1 forward_v I I I I #
coedge $-1 $107 $72 $108 $109 forward $38 $-1 #
coedge $-1 $110 $40 $107 $111 forward $25 $-1 #
coedge $-1 $40 $110 $112 $113 forward $25 $-1 #
coedge $-1 $75 $74 $40 $68 reversed $76 $-1 #
edge $-1 $114 -34.535080604727781 $115 34.535080604727781 $67 $116 forward 7 unknown #
coedge $-1 $42 $41 $117 $118 forward $16 $-1 #
coedge $-1 $119 $120 $41 $71 reversed $104 $-1 #
edge $-1 $78 -63.410138248847929 $121 63.410138248847929 $70 $122 forward 7 unknown #
coedge $-1 $64 $123 $42 $73 reversed $38 $-1 #
edge $-1 $124 -63.410138248847929 $77 63.410138248847929 $72 $125 forward 7 unknown #
coedge $-1 $67 $43 $123 $126 forward $76 $-1 #
coedge $-1 $43 $67 $119 $127 reversed $76 $-1 #
loop $-1 $-1 $74 $103 #
vertex $-1 $44 $128 #
vertex $-1 $44 $129 #
straight-curve $-1 63.410138248847929 0 11.016192190213802 0 1 0 I I #
face $-1 $130 $131 $10 $-1 $132 reversed single #
loop $-1 $-1 $133 $45 #
plane-surface $-1 0 0 11.016192190213802 0 0 1 1 0 0 forward_v I I I I #
coedge $-1 $134 $135 $133 $136 reversed $46 $-1 #
coedge $-1 $137 $48 $135 $138 reversed $29 $-1 #
coedge $-1 $48 $137 $49 $88 reversed $29 $-1 #
coedge $-1 $51 $133 $48 $87 forward $81 $-1 #
edge $-1 $139 2.766183504351531 $92 39.826097245261195 $86 $140 forward 7 unknown #
edge $-1 $92 -5.6407101460119193 $141 0 $49 $142 forward 7 unknown #
coedge $-1 $143 $144 $50 $90 forward $145 $-1 #
edge $-1 $93 35.67483649412587 $141 39.800190785790747 $89 $146 forward 7 unknown #
coedge $-1 $147 $51 $144 $148 forward $81 $-1 #
vertex $-1 $87 $149 #
vertex $-1 $148 $150 #
straight-curve $-1 61.122237620067558 -63.642780154902013 11.0161921902138 0 -1 0 I I #
face $-1 $151 $152 $11 $-1 $153 forward single #
loop $-1 $154 $59 $53 #
plane-surface $-1 42.592280749612726 -34.535080604727781 6.8908378985489236 0 -0.73135370988377701 0.68199835119979291 1 0 0 forward_v I I I I #
coedge $-1 $155 $156 $157 $158 reversed $54 $-1 #
coedge $-1 $99 $99 $-1 $159 forward $56 $-1 #
edge $-1 $160 0 $160 6.2831853071796004 $57 $161 forward 7 unknown #
vertex $-1 $60 $162 #
ellipse-curve $-1 42.592280749612726 -32.611603095139749 8.953515044381362 0 0.73135370988377701 -0.68199835119979291 1 0 0 1 I I #
face $-1 $-1 $76 $9 $-1 $163 reversed single #
loop $-1 $-1 $119 $61 #
plane-surface $-1 0 34.535080604727781 0 0 -1 0 0 0 -1 forward_v I I I I #
coedge $-1 $164 $117 $120 $165 forward $62 $-1 #
coedge $-1 $123 $64 $65 $111 reversed $38 $-1 #
coedge $-1 $117 $164 $64 $109 reversed $62 $-1 #
edge $-1 $124 -11.016192190213802 $166 11.016192190213802 $108 $167 forward 7 unknown #
coedge $-1 $66 $65 $164 $168 forward $25 $-1 #
edge $-1 $115 -63.410138248847929 $166 63.410138248847929 $107 $169 forward 7 unknown #
coedge $-1 $120 $119 $66 $113 reversed $104 $-1 #
edge $-1 $170 -63.410138248847929 $114 63.410138248847929 $112 $171 forward 7 unknown #
vertex $-1 $68 $172 #
vertex $-1 $126 $173 #
straight-curve $-1 63.410138248847929 0 -11.016192190213802 0 -1 0 I I #
coedge $-1 $106 $108 $69 $118 reversed $62 $-1 #
edge $-1 $121 -34.535080604727781 $124 34.535080604727781 $117 $174 forward 7 unknown #
coedge $-1 $112 $70 $75 $127 forward $104 $-1 #
coedge $-1 $70 $112 $106 $165 reversed $104 $-1 #
vertex $-1 $71 $175 #
straight-curve $-1 0 34.535080604727781 11.016192190213802 -1 0 0 I I #
coedge $-1 $72 $107 $74 $126 reversed $38 $-1 #
vertex $-1 $118 $176 #
straight-curve $-1 0 -34.535080604727781 11.016192190213802 1 0 0 I I #
edge $-1 $77 -11.016192190213802 $115 11.016192190213802 $74 $177 forward 7 unknown #
edge $-1 $78 -11.016192190213802 $114 11.016192190213802 $75 $178 forward 7 unknown #
point $-1 63.410138248847929 -34.535080604727781 11.016192190213802 #
point $-1 63.410138248847929 34.535080604727781 11.016192190213802 #
face $-1 $179 $145 $10 $-1 $180 reversed single #
loop $-1 $-1 $181 $80 #
plane-surface $-1 0 0 -11.016192190213802 0 0 1 1 0 0 forward_v I I I I #
coedge $-1 $86 $182 $83 $136 forward $81 $-1 #
coedge $-1 $135 $83 $183 $184 reversed $46 $-1 #
coedge $-1 $83 $134 $84 $138 forward $46 $-1 #
edge $-1 $185 29.107699550174232 $139 32.954654569350303 $133 $186 forward 7 unknown #
coedge $-1 $85 $84 $143 $187 reversed $29 $-1 #
edge $-1 $188 0 $139 5.6407101460119193 $135 $189 forward 7 unknown #
vertex $-1 $87 $190 #
straight-curve $-1 21.296140374806363 -30.68812558555171 11.0161921902138 1 0 0 I I #
vertex $-1 $187 $191 #
straight-curve $-1 61.122237620067558 -34.535080604727781 6.8908378985489236 0 -0.68199835119979291 -0.73135370988377701 I I #
coedge $-1 $183 $89 $137 $187 forward $145 $-1 #
coedge $-1 $89 $192 $91 $148 reversed $145 $-1 #
loop $-1 $-1 $183 $130 #
straight-curve $-1 61.122237620067558 -34.535080604727781 46.69102868433967 0 0 -1 I I #
coedge $-1 $193 $91 $194 $195 forward $81 $-1 #
edge $-1 $93 61.122237620067558 $196 63.410138248847929 $144 $197 forward 7 unknown #
point $-1 61.122237620067558 -30.68812558555171 11.016192190213802 #
point $-1 61.122237620067558 -34.535080604727781 11.016192190213802 #
face $-1 $198 $199 $11 $-1 $200 forward single #
loop $-1 $-1 $201 $95 #
plane-surface $-1 24.062323879157894 -127.28556030980403 93.382057368679341 1 0 0 0 0.73135370988377701 -0.68199835119979291 forward_v I I I I #
loop $-1 $-1 $202 $53 #
coedge $-1 $156 $98 $203 $204 forward $54 $-1 #
coedge $-1 $98 $155 $205 $206 reversed $54 $-1 #
coedge $-1 $207 $208 $98 $158 forward $199 $-1 #
edge $-1 $209 -32.954654569350303 $210 -29.107699550174232 $157 $211 forward 7 unknown #
edge $-1 $212 1 $212 0 $99 $-1 forward 7 unknown #
vertex $-1 $100 $213 #
ellipse-curve $-1 42.592280749612726 -29.954963589764624 6.4761586873786827 0 -0.73135370988377701 0.68199835119979291 1 0 0 1 I I #
point $-1 43.592280749612726 -32.611603095139742 8.9535150443813531 #
plane-surface $-1 63.410138248847929 0 0 -1 0 0 0 0 1 forward_v I I I I #
coedge $-1 $108 $106 $110 $168 reversed $62 $-1 #
edge $-1 $121 -11.016192190213802 $170 11.016192190213802 $120 $214 forward 7 unknown #
vertex $-1 $168 $215 #
straight-curve $-1 -63.410138248847929 -34.535080604727781 0 0 0 -1 I I #
edge $-1 $166 -34.535080604727781 $170 34.535080604727781 $164 $216 forward 7 unknown #
straight-curve $-1 0 -34.535080604727781 -11.016192190213802 -1 0 0 I I #
vertex $-1 $113 $217 #
straight-curve $-1 0 34.535080604727781 -11.016192190213802 1 0 0 I I #
point $-1 63.410138248847929 34.535080604727781 -11.016192190213802 #
point $-1 63.410138248847929 -34.535080604727781 -11.016192190213802 #
straight-curve $-1 -63.410138248847929 0 11.016192190213802 0 -1 0 I I #
point $-1 -63.410138248847929 34.535080604727781 11.016192190213802 #
point $-1 -63.410138248847929 -34.535080604727781 11.016192190213802 #
straight-curve $-1 63.410138248847929 -34.535080604727781 0 0 0 -1 I I #
straight-curve $-1 63.410138248847929 34.535080604727781 0 0 0 -1 I I #
face $-1 $218 $219 $10 $-1 $220 reversed single #
plane-surface $-1 0 -34.535080604727781 0 0 1 0 0 0 1 forward_v I I I I #
coedge $-1 $221 $222 $223 $224 forward $131 $-1 #
coedge $-1 $133 $225 $226 $227 forward $81 $-1 #
coedge $-1 $226 $143 $134 $184 forward $145 $-1 #
edge $-1 $188 -39.800190785790747 $185 -35.67483649412587 $183 $228 forward 7 unknown #
vertex $-1 $184 $229 #
straight-curve $-1 24.062323879157894 -63.642780154902013 11.0161921902138 0 1 0 I I #
edge $-1 $141 -39.826097245261195 $188 -2.766183504351531 $143 $230 forward 7 unknown #
vertex $-1 $187 $231 #
straight-curve $-1 24.062323879157894 -34.535080604727781 6.8908378985489236 0 0.68199835119979291 0.73135370988377701 I I #
point $-1 24.062323879157894 -30.68812558555171 11.016192190213802 #
point $-1 61.122237620067558 -34.535080604727781 6.8908378985489236 #
coedge $-1 $144 $232 $233 $234 reversed $145 $-1 #
coedge $-1 $225 $147 $235 $236 forward $81 $-1 #
coedge $-1 $233 $237 $147 $195 reversed $238 $-1 #
edge $-1 $196 -34.535080604727781 $239 34.535080604727781 $194 $240 forward 7 unknown #
vertex $-1 $195 $241 #
straight-curve $-1 0 -34.535080604727781 11.016192190213802 1 0 0 I I #
face $-1 $242 $243 $11 $-1 $244 reversed single #
loop $-1 $-1 $245 $151 #
plane-surface $-1 0 0 11.016192190213802 0 0 1 1 0 0 forward_v I I I I #
coedge $-1 $246 $247 $245 $248 reversed $152 $-1 #
coedge $-1 $249 $203 $208 $250 reversed $154 $-1 #
coedge $-1 $202 $251 $155 $204 reversed $154 $-1 #
edge $-1 $209 -5.6407101460119193 $252 0 $155 $253 forward 7 unknown #
coedge $-1 $254 $255 $156 $206 forward $256 $-1 #
edge $-1 $210 35.67483649412587 $252 39.800190785790747 $205 $257 forward 7 unknown #
coedge $-1 $258 $157 $255 $259 forward $199 $-1 #
coedge $-1 $157 $245 $202 $250 forward $199 $-1 #
vertex $-1 $250 $260 #
vertex $-1 $259 $261 #
straight-curve $-1 61.122237620067558 -63.642780154902013 11.0161921902138 0 -1 0 I I #
vertex $-1 $159 $262 #
point $-1 43.592280749612726 -29.954963589764624 6.4761586873786827 #
straight-curve $-1 -63.410138248847929 34.535080604727781 0 0 0 -1 I I #
point $-1 -63.410138248847929 -34.535080604727781 -11.016192190213802 #
straight-curve $-1 -63.410138248847929 0 -11.016192190213802 0 1 0 I I #
point $-1 -63.410138248847929 34.535080604727781 -11.016192190213802 #
face $-1 $263 $264 $10 $-1 $265 reversed single #
loop $-1 $-1 $266 $179 #
plane-surface $-1 -63.410138248847929 0 0 1 0 0 0 0 -1 forward_v I I I I #
coedge $-1 $267 $181 $232 $268 forward $131 $-1 #
coedge $-1 $181 $267 $269 $270 forward $131 $-1 #
coedge $-1 $237 $233 $181 $224 reversed $238 $-1 #
edge $-1 $271 -34.535080604727781 $272 34.535080604727781 $223 $273 forward 7 unknown #
coedge $-1 $182 $193 $274 $275 forward $81 $-1 #
coedge $-1 $276 $183 $182 $227 reversed $145 $-1 #
edge $-1 $277 -63.410138248847929 $185 24.062323879157894 $226 $197 forward 7 unknown #
straight-curve $-1 24.062323879157894 -34.535080604727781 46.69102868433967 0 0 1 I I #
point $-1 24.062323879157894 -34.535080604727781 11.016192190213802 #
straight-curve $-1 21.296140374806363 -34.535080604727781 6.8908378985489254 -1 0 0 I I #
point $-1 24.062323879157894 -34.535080604727781 6.8908378985489236 #
coedge $-1 $192 $276 $221 $268 reversed $145 $-1 #
coedge $-1 $223 $194 $192 $234 forward $238 $-1 #
edge $-1 $196 -11.016192190213802 $272 11.016192190213802 $233 $278 forward 7 unknown #
coedge $-1 $279 $280 $193 $236 reversed $264 $-1 #
edge $-1 $239 -63.410138248847929 $281 63.410138248847929 $235 $282 forward 7 unknown #
coedge $-1 $194 $223 $279 $283 reversed $238 $-1 #
loop $-1 $-1 $233 $263 #
vertex $-1 $195 $284 #
straight-curve $-1 63.410138248847929 0 11.016192190213802 0 1 0 I I #
point $-1 63.410138248847929 -34.535080604727781 11.016192190213802 #
face $-1 $285 $256 $11 $-1 $286 reversed single #
loop $-1 $-1 $287 $198 #
plane-surface $-1 0 0 -11.016192190213802 0 0 1 1 0 0 forward_v I I I I #
coedge $-1 $208 $288 $201 $248 forward $199 $-1 #
coedge $-1 $247 $201 $289 $290 reversed $152 $-1 #
coedge $-1 $201 $246 $249 $291 forward $152 $-1 #
edge $-1 $292 29.107699550174232 $293 32.954654569350303 $245 $294 forward 7 unknown #
coedge $-1 $251 $202 $247 $291 reversed $154 $-1 #
edge $-1 $293 2.766183504351531 $209 39.826097245261195 $208 $295 forward 7 unknown #
coedge $-1 $203 $249 $254 $296 reversed $154 $-1 #
vertex $-1 $296 $297 #
straight-curve $-1 61.122237620067558 -34.535080604727781 6.8908378985489236 0 -0.68199835119979291 -0.73135370988377701 I I #
coedge $-1 $289 $205 $251 $296 forward $256 $-1 #
coedge $-1 $205 $298 $207 $259 reversed $256 $-1 #
loop $-1 $-1 $289 $242 #
straight-curve $-1 61.122237620067558 -34.535080604727781 46.69102868433967 0 0 -1 I I #
coedge $-1 $299 $207 $300 $301 forward $199 $-1 #
edge $-1 $210 61.122237620067558 $302 63.410138248847929 $255 $303 forward 7 unknown #
point $-1 61.122237620067558 -30.68812558555171 11.016192190213802 #
point $-1 61.122237620067558 -34.535080604727781 11.016192190213802 #
point $-1 42.592280749612726 -29.223609879880847 5.7941603361788898 #
face $-1 $-1 $238 $10 $-1 $304 reversed single #
loop $-1 $-1 $279 $218 #
plane-surface $-1 0 34.535080604727781 0 0 -1 0 0 0 -1 forward_v I I I I #
coedge $-1 $305 $274 $280 $306 forward $219 $-1 #
coedge $-1 $222 $221 $305 $307 forward $131 $-1 #
edge $-1 $272 -63.410138248847929 $308 63.410138248847929 $232 $309 forward 7 unknown #
coedge $-1 $280 $279 $222 $270 reversed $264 $-1 #
edge $-1 $310 -63.410138248847929 $271 63.410138248847929 $269 $311 forward 7 unknown #
vertex $-1 $224 $312 #
vertex $-1 $234 $313 #
straight-curve $-1 63.410138248847929 0 -11.016192190213802 0 -1 0 I I #
coedge $-1 $266 $314 $225 $275 reversed $219 $-1 #
edge $-1 $281 -34.535080604727781 $277 34.535080604727781 $274 $315 forward 7 unknown #
coedge $-1 $232 $226 $314 $316 forward $145 $-1 #
vertex $-1 $275 $317 #
straight-curve $-1 63.410138248847929 -34.535080604727781 0 0 0 -1 I I #
coedge $-1 $269 $235 $237 $283 forward $264 $-1 #
coedge $-1 $235 $269 $266 $306 reversed $264 $-1 #
vertex $-1 $236 $318 #
straight-curve $-1 0 34.535080604727781 11.016192190213802 -1 0 0 I I #
edge $-1 $239 -11.016192190213802 $271 11.016192190213802 $237 $319 forward 7 unknown #
point $-1 63.410138248847929 34.535080604727781 11.016192190213802 #
face $-1 $320 $321 $11 $-1 $322 reversed single #
plane-surface $-1 0 -34.535080604727781 0 0 1 0 0 0 1 forward_v I I I I #
coedge $-1 $323 $324 $325 $326 forward $243 $-1 #
coedge $-1 $245 $327 $328 $329 forward $199 $-1 #
coedge $-1 $328 $254 $246 $290 forward $256 $-1 #
edge $-1 $330 -39.800190785790747 $292 -35.67483649412587 $289 $331 forward 7 unknown #
edge $-1 $330 0 $293 5.6407101460119193 $247 $332 forward 7 unknown #
vertex $-1 $290 $333 #
vertex $-1 $250 $334 #
straight-curve $-1 24.062323879157894 -63.642780154902013 11.0161921902138 0 1 0 I I #
straight-curve $-1 21.296140374806363 -30.68812558555171 11.0161921902138 1 0 0 I I #
edge $-1 $252 -39.826097245261195 $330 -2.766183504351531 $254 $335 forward 7 unknown #
point $-1 61.122237620067558 -34.535080604727781 6.8908378985489236 #
coedge $-1 $255 $336 $337 $338 reversed $256 $-1 #
coedge $-1 $327 $258 $339 $340 forward $199 $-1 #
coedge $-1 $337 $341 $258 $301 reversed $342 $-1 #
edge $-1 $302 -34.535080604727781 $343 34.535080604727781 $300 $344 forward 7 unknown #
vertex $-1 $301 $345 #
straight-curve $-1 0 -34.535080604727781 11.016192190213802 1 0 0 I I #
plane-surface $-1 63.410138248847929 0 0 -1 0 0 0 0 1 forward_v I I I I #
coedge $-1 $314 $266 $267 $307 reversed $219 $-1 #
edge $-1 $281 -11.016192190213802 $310 11.016192190213802 $280 $346 forward 7 unknown #
edge $-1 $308 -34.535080604727781 $310 34.535080604727781 $305 $347 forward 7 unknown #
vertex $-1 $307 $348 #
straight-curve $-1 0 -34.535080604727781 -11.016192190213802 -1 0 0 I I #
vertex $-1 $270 $349 #
straight-curve $-1 0 34.535080604727781 -11.016192190213802 1 0 0 I I #
point $-1 63.410138248847929 34.535080604727781 -11.016192190213802 #
point $-1 63.410138248847929 -34.535080604727781 -11.016192190213802 #
coedge $-1 $274 $305 $276 $316 reversed $219 $-1 #
straight-curve $-1 -63.410138248847929 0 11.016192190213802 0 -1 0 I I #
edge $-1 $277 -11.016192190213802 $308 11.016192190213802 $314 $350 forward 7 unknown #
point $-1 -63.410138248847929 -34.535080604727781 11.016192190213802 #
point $-1 -63.410138248847929 34.535080604727781 11.016192190213802 #
straight-curve $-1 63.410138248847929 34.535080604727781 0 0 0 -1 I I #
face $-1 $351 $352 $11 $-1 $353 reversed single #
loop $-1 $-1 $354 $285 #
plane-surface $-1 -63.410138248847929 0 0 1 0 0 0 0 -1 forward_v I I I I #
coedge $-1 $355 $287 $336 $356 forward $243 $-1 #
coedge $-1 $287 $355 $357 $358 forward $243 $-1 #
coedge $-1 $341 $337 $287 $326 reversed $342 $-1 #
edge $-1 $359 -34.535080604727781 $360 34.535080604727781 $325 $361 forward 7 unknown #
coedge $-1 $288 $299 $362 $363 forward $199 $-1 #
coedge $-1 $364 $289 $288 $329 reversed $256 $-1 #
edge $-1 $365 -63.410138248847929 $292 24.062323879157894 $328 $303 forward 7 unknown #
vertex $-1 $296 $366 #
straight-curve $-1 24.062323879157894 -34.535080604727781 46.69102868433967 0 0 1 I I #
straight-curve $-1 24.062323879157894 -34.535080604727781 6.8908378985489236 0 0.68199835119979291 0.73135370988377701 I I #
point $-1 24.062323879157894 -34.535080604727781 11.016192190213802 #
point $-1 24.062323879157894 -30.68812558555171 11.016192190213802 #
straight-curve $-1 21.296140374806363 -34.535080604727781 6.8908378985489254 -1 0 0 I I #
coedge $-1 $298 $364 $323 $356 reversed $256 $-1 #
coedge $-1 $325 $300 $298 $338 forward $342 $-1 #
edge $-1 $302 -11.016192190213802 $360 11.016192190213802 $337 $367 forward 7 unknown #
coedge $-1 $368 $369 $299 $340 reversed $352 $-1 #
edge $-1 $343 -63.410138248847929 $370 63.410138248847929 $339 $371 forward 7 unknown #
coedge $-1 $300 $325 $368 $372 reversed $342 $-1 #
loop $-1 $-1 $337 $351 #
vertex $-1 $301 $373 #
straight-curve $-1 63.410138248847929 0 11.016192190213802 0 1 0 I I #
point $-1 63.410138248847929 -34.535080604727781 11.016192190213802 #
straight-curve $-1 -63.410138248847929 34.535080604727781 0 0 0 -1 I I #
straight-curve $-1 -63.410138248847929 0 -11.016192190213802 0 1 0 I I #
point $-1 -63.410138248847929 -34.535080604727781 -11.016192190213802 #
point $-1 -63.410138248847929 34.535080604727781 -11.016192190213802 #
straight-curve $-1 -63.410138248847929 -34.535080604727781 0 0 0 -1 I I #
face $-1 $-1 $342 $11 $-1 $374 reversed single #
loop $-1 $-1 $368 $320 #
plane-surface $-1 0 34.535080604727781 0 0 -1 0 0 0 -1 forward_v I I I I #
coedge $-1 $375 $362 $369 $376 forward $321 $-1 #
coedge $-1 $324 $323 $375 $377 forward $243 $-1 #
edge $-1 $360 -63.410138248847929 $378 63.410138248847929 $336 $379 forward 7 unknown #
coedge $-1 $369 $368 $324 $358 reversed $352 $-1 #
edge $-1 $380 -63.410138248847929 $359 63.410138248847929 $357 $381 forward 7 unknown #
vertex $-1 $326 $382 #
vertex $-1 $338 $383 #
straight-curve $-1 63.410138248847929 0 -11.016192190213802 0 -1 0 I I #
coedge $-1 $354 $384 $327 $363 reversed $321 $-1 #
edge $-1 $370 -34.535080604727781 $365 34.535080604727781 $362 $385 forward 7 unknown #
coedge $-1 $336 $328 $384 $386 forward $256 $-1 #
vertex $-1 $363 $387 #
point $-1 24.062323879157894 -34.535080604727781 6.8908378985489236 #
straight-curve $-1 63.410138248847929 -34.535080604727781 0 0 0 -1 I I #
coedge $-1 $357 $339 $341 $372 forward $352 $-1 #
coedge $-1 $339 $357 $354 $376 reversed $352 $-1 #
vertex $-1 $340 $388 #
straight-curve $-1 0 34.535080604727781 11.016192190213802 -1 0 0 I I #
edge $-1 $343 -11.016192190213802 $359 11.016192190213802 $341 $389 forward 7 unknown #
point $-1 63.410138248847929 34.535080604727781 11.016192190213802 #
plane-surface $-1 63.410138248847929 0 0 -1 0 0 0 0 1 forward_v I I I I #
coedge $-1 $384 $354 $355 $377 reversed $321 $-1 #
edge $-1 $370 -11.016192190213802 $380 11.016192190213802 $369 $390 forward 7 unknown #
edge $-1 $378 -34.535080604727781 $380 34.535080604727781 $375 $391 forward 7 unknown #
vertex $-1 $377 $392 #
straight-curve $-1 0 -34.535080604727781 -11.016192190213802 -1 0 0 I I #
vertex $-1 $358 $393 #
straight-curve $-1 0 34.535080604727781 -11.016192190213802 1 0 0 I I #
point $-1 63.410138248847929 34.535080604727781 -11.016192190213802 #
point $-1 63.410138248847929 -34.535080604727781 -11.016192190213802 #
coedge $-1 $362 $375 $364 $386 reversed $321 $-1 #
straight-curve $-1 -63.410138248847929 0 11.016192190213802 0 -1 0 I I #
edge $-1 $365 -11.016192190213802 $378 11.016192190213802 $384 $394 forward 7 unknown #
point $-1 -63.410138248847929 -34.535080604727781 11.016192190213802 #
point $-1 -63.410138248847929 34.535080604727781 11.016192190213802 #
straight-curve $-1 63.410138248847929 34.535080604727781 0 0 0 -1 I I #
straight-curve $-1 -63.410138248847929 34.535080604727781 0 0 0 -1 I I #
straight-curve $-1 -63.410138248847929 0 -11.016192190213802 0 1 0 I I #
point $-1 -63.410138248847929 -34.535080604727781 -11.016192190213802 #
point $-1 -63.410138248847929 34.535080604727781 -11.016192190213802 #
straight-curve $-1 -63.410138248847929 -34.535080604727781 0 0 0 -1 I I #
End-of-ACIS-data 