500 0 7 0           
7 Unknown 11 ACIS 5.0 NT 24 Thu Mar 25 15:29:40 1999 
-1 9.9999999999999995e-007 1e-010 
body $-1 $7 $-1 $8 #
body $-1 $9 $-1 $10 #
body $-1 $11 $-1 $12 #
body $-1 $13 $-1 $14 #
body $-1 $15 $-1 $16 #
body $-1 $17 $-1 $18 #
body $-1 $19 $-1 $20 #
lump $-1 $-1 $21 $0 #
transform $-1 1 0 0 0 1 0 0 0 1 75.635853144932398 37.346111380876359 14.038271855166908 1 rotate no_reflect no_shear #
lump $-1 $-1 $22 $1 #
transform $-1 1 0 0 0 1 0 0 0 1 75.635853144932398 37.346111380876359 14.038271855166908 1 rotate no_reflect no_shear #
lump $-1 $-1 $23 $2 #
transform $-1 1 0 0 0 1 0 0 0 1 75.635853144932398 37.346111380876359 14.038271855166908 1 rotate no_reflect no_shear #
lump $-1 $-1 $24 $3 #
transform $-1 1 0 0 0 1 0 0 0 1 75.635853144932398 37.346111380876359 14.038271855166908 1 rotate no_reflect no_shear #
lump $-1 $-1 $25 $4 #
transform $-1 1 0 0 0 1 0 0 0 1 75.635853144932398 37.346111380876359 14.038271855166908 1 rotate no_reflect no_shear #
lump $-1 $-1 $26 $5 #
transform $-1 1 0 0 0 1 0 0 0 1 75.635853144932398 37.346111380876359 14.038271855166908 1 rotate no_reflect no_shear #
lump $-1 $-1 $27 $6 #
transform $-1 1 0 0 0 1 0 0 0 1 75.635853144932398 37.346111380876359 14.038271855166908 1 rotate no_reflect no_shear #
shell $-1 $-1 $-1 $28 $-1 $7 #
shell $-1 $-1 $-1 $29 $-1 $9 #
shell $-1 $-1 $-1 $30 $-1 $11 #
shell $-1 $-1 $-1 $31 $-1 $13 #
shell $-1 $-1 $-1 $32 $-1 $15 #
shell $-1 $-1 $-1 $33 $-1 $17 #
shell $-1 $-1 $-1 $34 $-1 $19 #
face $-1 $35 $36 $21 $-1 $37 forward single #
face $-1 $38 $39 $22 $-1 $40 reversed single #
face $-1 $41 $42 $23 $-1 $43 reversed single #
face $-1 $44 $45 $24 $-1 $46 forward single #
face $-1 $47 $48 $25 $-1 $49 reversed single #
face $-1 $50 $51 $26 $-1 $52 forward single #
face $-1 $53 $54 $27 $-1 $55 forward single #
face $-1 $56 $57 $21 $-1 $58 reversed single #
loop $-1 $-1 $59 $28 #
plane-surface $-1 0 0 14.038271855166908 0 0 1 1 0 0 forward_v I I I I #
face $-1 $60 $61 $22 $-1 $62 reversed single #
loop $-1 $-1 $63 $29 #
plane-surface $-1 -69.914165945831485 -24.458368816411003 0 0 1 0 0 0 1 forward_v I I I I #
face $-1 $64 $65 $23 $-1 $66 reversed single #
loop $-1 $-1 $67 $30 #
plane-surface $-1 36.930056477607323 -168.3512530718094 76.930111821650769 -1 0 0 0 -0.86602541151947299 0.49999998660252726 forward_v I I I I #
face $-1 $68 $69 $24 $-1 $70 forward single #
loop $-1 $71 $72 $31 #
cone-surface $-1 27.760583283472656 -32.354463976954044 6.9083391167441368 0 0.86602541151947299 -0.49999998660252726 2.5 0 0 1 I I 0 1 2.5 forward I I I I #
face $-1 $73 $74 $25 $-1 $75 reversed single #
loop $-1 $-1 $76 $32 #
plane-surface $-1 -4.4206605827828653 105.21572804531917 160.49762700950538 1 0 0 0 -0.7660444514056185 -0.64278759981090561 forward_v I I I I #
face $-1 $77 $78 $26 $-1 $79 forward single #
loop $-1 $80 $81 $33 #
cone-surface $-1 6.0820249043402868 33.109851033426601 9.3008996660571519 0 -0.7660444514056185 -0.64278759981090561 2 0 0 1 I I 0 1 2 forward I I I I #
face $-1 $82 $83 $27 $-1 $84 forward single #
loop $-1 $85 $86 $34 #
cone-surface $-1 21.836053135024997 33.109851033426601 9.3008996660571519 0 -0.7660444514056185 -0.64278759981090561 2 0 0 1 I I 0 1 2 forward I I I I #
face $-1 $87 $88 $21 $-1 $89 reversed single #
loop $-1 $-1 $90 $35 #
plane-surface $-1 0 0 -14.038271855166908 0 0 1 1 0 0 forward_v I I I I #
coedge $-1 $91 $92 $93 $94 forward $36 $-1 #
face $-1 $95 $96 $22 $-1 $97 reversed single #
loop $-1 $-1 $98 $38 #
plane-surface $-1 -69.914165945831485 -21.439242812707242 0 0 -1 0 0 0 -1 forward_v I I I I #
coedge $-1 $99 $100 $101 $102 reversed $39 $-1 #
face $-1 $103 $104 $23 $-1 $105 reversed single #
loop $-1 $-1 $106 $41 #
plane-surface $-1 27.760583283472656 -37.34611138087638 1.2942607033769349 0 -0.86602541151947299 0.49999998660252726 1 0 0 forward_v I I I I #
coedge $-1 $107 $108 $109 $110 reversed $42 $-1 #
face $-1 $-1 $111 $24 $-1 $112 forward single #
loop $-1 $113 $114 $44 #
cone-surface $-1 27.760583283472656 -29.959163811719343 5.525411970963205 0 0.86602541151947299 -0.49999998660252726 1.25 0 0 1 I I -0.70710678118654746 0.70710678118654746 1.25 forward I I I I #
loop $-1 $-1 $115 $31 #
coedge $-1 $72 $72 $116 $117 reversed $45 $-1 #
face $-1 $118 $119 $25 $-1 $120 reversed single #
loop $-1 $-1 $121 $47 #
plane-surface $-1 13.959039019682635 -10.665123212692166 63.262050004142921 0 0.7660444514056185 0.64278759981090561 1 0 0 forward_v I I I I #
coedge $-1 $122 $123 $124 $125 reversed $48 $-1 #
face $-1 $-1 $126 $26 $-1 $127 forward single #
loop $-1 $128 $129 $50 #
cone-surface $-1 6.0820249043402868 31.461337027066058 7.9176322075450436 0 -0.7660444514056185 -0.64278759981090561 1 0 0 1 I I -0.70710678118654779 0.70710678118654713 1 forward I I I I #
loop $-1 $-1 $130 $33 #
coedge $-1 $81 $81 $131 $132 reversed $51 $-1 #
face $-1 $-1 $133 $27 $-1 $134 forward single #
loop $-1 $135 $136 $53 #
cone-surface $-1 21.836053135024997 31.461337027066058 7.9176322075450436 0 -0.7660444514056185 -0.64278759981090561 1 0 0 1 I I -0.70710678118654779 0.70710678118654713 1 forward I I I I #
loop $-1 $-1 $137 $34 #
coedge $-1 $86 $86 $138 $139 reversed $54 $-1 #
face $-1 $140 $141 $21 $-1 $142 reversed single #
loop $-1 $-1 $143 $56 #
plane-surface $-1 0 -37.346111380876359 0 0 1 0 0 0 1 forward_v I I I I #
coedge $-1 $144 $145 $146 $147 forward $57 $-1 #
coedge $-1 $148 $59 $149 $150 forward $36 $-1 #
coedge $-1 $59 $148 $151 $152 forward $36 $-1 #
coedge $-1 $153 $154 $59 $94 reversed $155 $-1 #
edge $-1 $156 -37.346111380876359 $157 37.346111380876359 $93 $158 forward 7 unknown #
face $-1 $159 $160 $22 $-1 $161 reversed single #
loop $-1 $-1 $162 $60 #
plane-surface $-1 -64.192478746730572 -22.948805814559122 0 -1 0 0 0 0 1 forward_v I I I I #
coedge $-1 $163 $164 $165 $166 forward $61 $-1 #
coedge $-1 $167 $63 $168 $169 reversed $39 $-1 #
coedge $-1 $63 $167 $170 $171 reversed $39 $-1 #
coedge $-1 $172 $173 $63 $102 forward $174 $-1 #
edge $-1 $175 -14.038271855166908 $176 14.038271855166908 $101 $177 forward 7 unknown #
face $-1 $178 $179 $23 $-1 $180 reversed single #
loop $-1 $-1 $181 $64 #
plane-surface $-1 18.591110089337988 -168.3512530718094 76.930111821650769 1 0 0 0 0.86602541151947299 -0.49999998660252726 forward_v I I I I #
coedge $-1 $182 $183 $184 $185 reversed $65 $-1 #
coedge $-1 $108 $67 $186 $187 reversed $42 $-1 #
coedge $-1 $67 $107 $182 $188 reversed $42 $-1 #
coedge $-1 $184 $189 $67 $110 forward $190 $-1 #
edge $-1 $191 46.829515155028339 $192 54.187273161202214 $109 $193 forward 7 unknown #
loop $-1 $-1 $116 $68 #
plane-surface $-1 27.760583283472656 -37.34611138087638 1.2942607033769349 0 -0.86602541151947299 0.49999998660252726 1 0 0 forward_v I I I I #
loop $-1 $-1 $194 $44 #
coedge $-1 $114 $114 $115 $195 reversed $69 $-1 #
coedge $-1 $115 $115 $114 $195 forward $71 $-1 #
coedge $-1 $116 $116 $72 $117 forward $111 $-1 #
edge $-1 $196 1.4620914751985456e-016 $196 6.2831853071796004 $116 $197 forward 7 unknown #
face $-1 $198 $199 $25 $-1 $200 reversed single #
loop $-1 $-1 $201 $73 #
plane-surface $-1 32.338738622148135 105.21572804531917 160.49762700950538 -1 0 0 0 0.7660444514056185 0.64278759981090561 forward_v I I I I #
coedge $-1 $202 $203 $204 $205 reversed $74 $-1 #
coedge $-1 $123 $76 $206 $207 reversed $48 $-1 #
coedge $-1 $76 $122 $202 $208 reversed $48 $-1 #
coedge $-1 $204 $209 $76 $125 forward $210 $-1 #
edge $-1 $211 15.261752641783225 $212 21.969334226772922 $124 $213 forward 7 unknown #
loop $-1 $-1 $131 $77 #
plane-surface $-1 13.959039019682635 -10.665123212692166 63.262050004142921 0 0.7660444514056185 0.64278759981090561 1 0 0 forward_v I I I I #
loop $-1 $-1 $214 $50 #
coedge $-1 $129 $129 $130 $215 reversed $78 $-1 #
coedge $-1 $130 $130 $129 $215 forward $80 $-1 #
coedge $-1 $131 $131 $81 $132 forward $126 $-1 #
edge $-1 $216 -1.3607683005389834e-015 $216 6.2831853071795987 $131 $217 forward 7 unknown #
loop $-1 $-1 $138 $82 #
plane-surface $-1 13.959039019682635 -10.665123212692166 63.262050004142921 0 0.7660444514056185 0.64278759981090561 1 0 0 forward_v I I I I #
loop $-1 $-1 $218 $53 #
coedge $-1 $136 $136 $137 $219 reversed $83 $-1 #
coedge $-1 $137 $137 $136 $219 forward $85 $-1 #
coedge $-1 $138 $138 $86 $139 forward $133 $-1 #
edge $-1 $220 -1.3607683005389834e-015 $220 6.2831853071795987 $138 $221 forward 7 unknown #
face $-1 $222 $223 $21 $-1 $224 reversed single #
loop $-1 $-1 $225 $87 #
plane-surface $-1 -75.635853144932398 0 0 1 0 0 0 0 -1 forward_v I I I I #
coedge $-1 $226 $151 $227 $228 forward $88 $-1 #
coedge $-1 $229 $90 $226 $230 forward $57 $-1 #
coedge $-1 $90 $229 $231 $232 forward $57 $-1 #
coedge $-1 $154 $153 $90 $147 reversed $155 $-1 #
edge $-1 $233 -37.346111380876359 $234 37.346111380876359 $146 $235 forward 7 unknown #
coedge $-1 $92 $91 $236 $237 forward $36 $-1 #
coedge $-1 $238 $239 $91 $150 reversed $223 $-1 #
edge $-1 $157 -75.635853144932398 $240 75.635853144932398 $149 $241 forward 7 unknown #
coedge $-1 $143 $242 $92 $152 reversed $88 $-1 #
edge $-1 $243 -75.635853144932398 $156 75.635853144932398 $151 $244 forward 7 unknown #
coedge $-1 $146 $93 $242 $245 forward $155 $-1 #
coedge $-1 $93 $146 $238 $246 reversed $155 $-1 #
loop $-1 $-1 $153 $222 #
vertex $-1 $94 $247 #
vertex $-1 $94 $248 #
straight-curve $-1 75.635853144932398 0 14.038271855166908 0 1 0 I I #
face $-1 $249 $250 $22 $-1 $251 forward single #
loop $-1 $-1 $252 $95 #
plane-surface $-1 0 0 -14.038271855166908 0 0 1 1 0 0 forward_v I I I I #
coedge $-1 $253 $254 $167 $255 forward $96 $-1 #
coedge $-1 $256 $98 $252 $257 reversed $61 $-1 #
coedge $-1 $98 $256 $258 $259 reversed $61 $-1 #
coedge $-1 $254 $253 $98 $166 reversed $96 $-1 #
edge $-1 $260 -14.038271855166908 $261 14.038271855166908 $165 $262 forward 7 unknown #
coedge $-1 $100 $99 $162 $255 reversed $39 $-1 #
coedge $-1 $263 $264 $99 $169 forward $160 $-1 #
edge $-1 $265 29.23539577381483 $175 40.678770172016655 $168 $266 forward 7 unknown #
coedge $-1 $267 $268 $100 $171 forward $250 $-1 #
edge $-1 $176 -40.678770172016655 $269 -29.23539577381483 $170 $270 forward 7 unknown #
coedge $-1 $271 $101 $268 $272 reversed $174 $-1 #
coedge $-1 $101 $271 $263 $273 reversed $174 $-1 #
loop $-1 $-1 $271 $249 #
vertex $-1 $273 $274 #
vertex $-1 $102 $275 #
straight-curve $-1 -75.635853144932398 -24.458368816411003 0 0 0 1 I I #
face $-1 $-1 $190 $23 $-1 $276 forward single #
loop $-1 $-1 $277 $103 #
plane-surface $-1 0 -37.346111380876359 0 0 1 0 0 0 1 forward_v I I I I #
coedge $-1 $278 $279 $280 $281 reversed $104 $-1 #
coedge $-1 $282 $106 $108 $188 forward $65 $-1 #
coedge $-1 $106 $282 $278 $283 forward $65 $-1 #
coedge $-1 $280 $109 $106 $185 forward $190 $-1 #
edge $-1 $192 -23.049764835870995 $284 -4.7108184476016604 $184 $285 forward 7 unknown #
coedge $-1 $286 $287 $107 $187 forward $179 $-1 #
edge $-1 $288 -37.170795207448414 $191 -24.426784055658477 $186 $289 forward 7 unknown #
edge $-1 $192 -14.715516406649249 $288 -4.2579321629893116e-014 $108 $290 forward 7 unknown #
coedge $-1 $109 $280 $286 $291 forward $190 $-1 #
loop $-1 $-1 $280 $178 #
vertex $-1 $187 $292 #
vertex $-1 $110 $293 #
straight-curve $-1 36.930056477607323 -84.175626535904698 14.038271855166908 0 1 0 I I #
coedge $-1 $194 $194 $-1 $294 reversed $113 $-1 #
edge $-1 $295 0 $295 6.2831853071796004 $114 $296 forward 7 unknown #
vertex $-1 $117 $297 #
ellipse-curve $-1 27.760583283472656 -33.667232377789432 7.6662662792719249 0 -0.86602541151947299 0.49999998660252726 2.5 0 0 1 I I #
face $-1 $-1 $210 $25 $-1 $298 forward single #
loop $-1 $-1 $299 $118 #
plane-surface $-1 0 37.346111380876359 0 0 -1 0 0 0 -1 forward_v I I I I #
coedge $-1 $300 $301 $302 $303 reversed $119 $-1 #
coedge $-1 $304 $121 $123 $208 forward $74 $-1 #
coedge $-1 $121 $304 $300 $305 forward $74 $-1 #
coedge $-1 $302 $124 $121 $205 forward $210 $-1 #
edge $-1 $212 -11.400180092624183 $306 25.359219112306818 $204 $307 forward 7 unknown #
coedge $-1 $308 $309 $122 $207 forward $199 $-1 #
edge $-1 $310 -74.204326310402891 $211 -66.210541649585778 $206 $311 forward 7 unknown #
edge $-1 $212 64.257078109051093 $310 74.692222761752745 $123 $312 forward 7 unknown #
coedge $-1 $124 $302 $308 $313 forward $210 $-1 #
loop $-1 $-1 $302 $198 #
vertex $-1 $207 $314 #
vertex $-1 $125 $315 #
straight-curve $-1 -4.4206605827828653 52.607864022659584 14.038271855166911 0 -1 0 I I #
coedge $-1 $214 $214 $-1 $316 reversed $128 $-1 #
edge $-1 $317 0 $317 6.2831853071796004 $129 $318 forward 7 unknown #
vertex $-1 $132 $319 #
ellipse-curve $-1 6.0820249043402868 33.992320588381517 10.04137952475835 0 0.7660444514056185 0.64278759981090561 2 0 0 1 I I #
coedge $-1 $218 $218 $-1 $320 reversed $135 $-1 #
edge $-1 $321 0 $321 6.2831853071796004 $136 $322 forward 7 unknown #
vertex $-1 $139 $323 #
ellipse-curve $-1 21.836053135024997 33.992320588381517 10.04137952475835 0 0.7660444514056185 0.64278759981090561 2 0 0 1 I I #
face $-1 $-1 $155 $21 $-1 $324 reversed single #
loop $-1 $-1 $238 $140 #
plane-surface $-1 0 37.346111380876359 0 0 -1 0 0 0 -1 forward_v I I I I #
coedge $-1 $325 $236 $239 $326 forward $141 $-1 #
coedge $-1 $242 $143 $144 $230 reversed $88 $-1 #
coedge $-1 $236 $325 $143 $228 reversed $141 $-1 #
edge $-1 $243 -14.038271855166908 $327 14.038271855166908 $227 $328 forward 7 unknown #
coedge $-1 $145 $144 $325 $329 forward $57 $-1 #
edge $-1 $234 -75.635853144932398 $327 75.635853144932398 $226 $330 forward 7 unknown #
coedge $-1 $239 $238 $145 $232 reversed $223 $-1 #
edge $-1 $331 -75.635853144932398 $233 75.635853144932398 $231 $332 forward 7 unknown #
vertex $-1 $147 $333 #
vertex $-1 $245 $334 #
straight-curve $-1 75.635853144932398 0 -14.038271855166908 0 -1 0 I I #
coedge $-1 $225 $227 $148 $237 reversed $141 $-1 #
edge $-1 $240 -37.346111380876359 $243 37.346111380876359 $236 $335 forward 7 unknown #
coedge $-1 $231 $149 $154 $246 forward $223 $-1 #
coedge $-1 $149 $231 $225 $326 reversed $223 $-1 #
vertex $-1 $150 $336 #
straight-curve $-1 0 37.346111380876359 14.038271855166908 -1 0 0 I I #
coedge $-1 $151 $226 $153 $245 reversed $88 $-1 #
vertex $-1 $237 $337 #
straight-curve $-1 0 -37.346111380876359 14.038271855166908 1 0 0 I I #
edge $-1 $156 -14.038271855166908 $234 14.038271855166908 $153 $338 forward 7 unknown #
edge $-1 $157 -14.038271855166908 $233 14.038271855166908 $154 $339 forward 7 unknown #
point $-1 75.635853144932398 -37.346111380876359 14.038271855166908 #
point $-1 75.635853144932398 37.346111380876359 14.038271855166908 #
face $-1 $-1 $174 $22 $-1 $340 reversed single #
loop $-1 $-1 $258 $159 #
plane-surface $-1 0 0 14.038271855166908 0 0 1 1 0 0 forward_v I I I I #
coedge $-1 $264 $263 $163 $257 forward $160 $-1 #
coedge $-1 $165 $162 $264 $341 reversed $96 $-1 #
coedge $-1 $162 $165 $267 $342 reversed $96 $-1 #
edge $-1 $269 -14.038271855166908 $265 14.038271855166908 $162 $343 forward 7 unknown #
coedge $-1 $164 $163 $271 $344 reversed $61 $-1 #
edge $-1 $345 -40.678770172016655 $261 -29.23539577381483 $252 $346 forward 7 unknown #
coedge $-1 $268 $267 $164 $259 forward $250 $-1 #
edge $-1 $260 29.23539577381483 $347 40.678770172016655 $258 $348 forward 7 unknown #
vertex $-1 $259 $349 #
vertex $-1 $257 $350 #
straight-curve $-1 -64.192478746730572 -21.439242812707242 0 0 0 -1 I I #
coedge $-1 $252 $168 $173 $273 forward $160 $-1 #
coedge $-1 $168 $252 $253 $341 forward $160 $-1 #
vertex $-1 $169 $351 #
straight-curve $-1 -34.957082972915742 -24.458368816411003 -14.038271855166908 -1 0 0 I I #
coedge $-1 $258 $170 $254 $342 forward $250 $-1 #
coedge $-1 $170 $258 $172 $272 forward $250 $-1 #
vertex $-1 $171 $352 #
straight-curve $-1 -34.957082972915742 -24.458368816411003 14.038271855166908 1 0 0 I I #
coedge $-1 $173 $172 $256 $344 forward $174 $-1 #
edge $-1 $347 21.439242812707242 $176 24.458368816411003 $172 $353 forward 7 unknown #
edge $-1 $175 -24.458368816411003 $345 -21.439242812707242 $173 $354 forward 7 unknown #
point $-1 -75.635853144932398 -24.458368816411003 -14.038271855166908 #
point $-1 -75.635853144932398 -24.458368816411003 14.038271855166908 #
plane-surface $-1 0 0 14.038271855166908 0 0 1 1 0 0 forward_v I I I I #
coedge $-1 $287 $286 $279 $355 forward $179 $-1 #
coedge $-1 $279 $181 $183 $283 reversed $104 $-1 #
coedge $-1 $181 $278 $277 $355 reversed $104 $-1 #
coedge $-1 $189 $184 $181 $281 forward $190 $-1 #
edge $-1 $284 -54.187273161202214 $356 -46.829515155028339 $280 $357 forward 7 unknown #
coedge $-1 $183 $182 $287 $358 reversed $65 $-1 #
edge $-1 $359 4.2579321629893116e-014 $284 14.715516406649249 $278 $360 forward 7 unknown #
vertex $-1 $185 $361 #
straight-curve $-1 13.880291641736328 -29.988353374702484 14.038271855166908 -1 0 0 I I #
coedge $-1 $277 $186 $189 $291 reversed $179 $-1 #
coedge $-1 $186 $277 $282 $358 forward $179 $-1 #
vertex $-1 $187 $362 #
straight-curve $-1 36.930056477607323 -37.346111380876351 38.465055910825384 0 0 1 I I #
straight-curve $-1 36.930056477607323 -37.34611138087638 1.2942607033769349 0 -0.49999998660252726 -0.86602541151947299 I I #
edge $-1 $356 18.591110089337988 $191 36.930056477607323 $286 $363 forward 7 unknown #
point $-1 36.930056477607323 -37.346111380876359 14.038271855166908 #
point $-1 36.930056477607323 -29.988353374702484 14.038271855166908 #
edge $-1 $364 1 $364 0 $194 $-1 forward 7 unknown #
vertex $-1 $195 $365 #
ellipse-curve $-1 27.760583283472656 -31.041695576118684 6.1504119542163638 0 -0.86602541151947299 0.49999998660252726 2.5 0 0 1 I I #
point $-1 30.260583283472656 -33.667232377789404 7.666266279271909 #
plane-surface $-1 0 0 14.038271855166908 0 0 1 1 0 0 forward_v I I I I #
coedge $-1 $309 $308 $301 $366 forward $199 $-1 #
coedge $-1 $301 $201 $203 $305 reversed $119 $-1 #
coedge $-1 $201 $300 $299 $366 reversed $119 $-1 #
coedge $-1 $209 $204 $201 $303 forward $210 $-1 #
edge $-1 $306 -21.969334226772922 $367 -15.261752641783225 $302 $368 forward 7 unknown #
coedge $-1 $203 $202 $309 $369 reversed $74 $-1 #
edge $-1 $370 -74.692222761752745 $306 -64.257078109051093 $300 $371 forward 7 unknown #
vertex $-1 $205 $372 #
straight-curve $-1 6.9795195098413174 30.638529795886669 14.038271855166897 1 0 0 I I #
coedge $-1 $299 $206 $209 $313 reversed $199 $-1 #
coedge $-1 $206 $299 $304 $369 forward $199 $-1 #
vertex $-1 $207 $373 #
straight-curve $-1 -4.4206605827828653 37.346111380876359 80.24881350475269 0 0 1 I I #
straight-curve $-1 -4.4206605827828653 -10.665123212692166 63.262050004142921 0 0.64278759981090561 -0.7660444514056185 I I #
edge $-1 $367 -32.338738622148135 $211 4.4206605827828653 $308 $374 forward 7 unknown #
point $-1 -4.4206605827828653 37.346111380876359 14.038271855166908 #
point $-1 -4.4206605827828653 30.638529795886662 14.038271855166911 #
edge $-1 $375 1 $375 0 $214 $-1 forward 7 unknown #
vertex $-1 $215 $376 #
ellipse-curve $-1 6.0820249043402868 32.227381478471678 8.5604198073559488 0 0.7660444514056185 0.64278759981090561 2 0 0 1 I I #
point $-1 8.0820249043402868 33.992320588381517 10.041379524758353 #
edge $-1 $377 1 $377 0 $218 $-1 forward 7 unknown #
vertex $-1 $219 $378 #
ellipse-curve $-1 21.836053135024997 32.227381478471678 8.5604198073559488 0 0.7660444514056185 0.64278759981090561 2 0 0 1 I I #
point $-1 23.836053135024997 33.992320588381517 10.041379524758353 #
plane-surface $-1 75.635853144932398 0 0 -1 0 0 0 0 1 forward_v I I I I #
coedge $-1 $227 $225 $229 $329 reversed $141 $-1 #
edge $-1 $240 -14.038271855166908 $331 14.038271855166908 $239 $379 forward 7 unknown #
vertex $-1 $329 $380 #
straight-curve $-1 -75.635853144932398 -37.346111380876359 0 0 0 -1 I I #
edge $-1 $327 -37.346111380876359 $331 37.346111380876359 $325 $381 forward 7 unknown #
straight-curve $-1 0 -37.346111380876359 -14.038271855166908 -1 0 0 I I #
vertex $-1 $232 $382 #
straight-curve $-1 0 37.346111380876359 -14.038271855166908 1 0 0 I I #
point $-1 75.635853144932398 37.346111380876359 -14.038271855166908 #
point $-1 75.635853144932398 -37.346111380876359 -14.038271855166908 #
straight-curve $-1 -75.635853144932398 0 14.038271855166908 0 -1 0 I I #
point $-1 -75.635853144932398 37.346111380876359 14.038271855166908 #
point $-1 -75.635853144932398 -37.346111380876359 14.038271855166908 #
straight-curve $-1 75.635853144932398 -37.346111380876359 0 0 0 -1 I I #
straight-curve $-1 75.635853144932398 37.346111380876359 0 0 0 -1 I I #
plane-surface $-1 -75.635853144932398 0 0 1 0 0 0 0 -1 forward_v I I I I #
edge $-1 $261 9.9648399054276808 $265 12.983965909131442 $264 $383 forward 7 unknown #
edge $-1 $269 -12.983965909131442 $260 -9.9648399054276808 $267 $384 forward 7 unknown #
straight-curve $-1 -64.192478746730572 -24.458368816411003 0 0 0 -1 I I #
edge $-1 $347 -14.038271855166908 $345 14.038271855166908 $271 $385 forward 7 unknown #
vertex $-1 $344 $386 #
straight-curve $-1 -34.957082972915742 -21.439242812707242 -14.038271855166908 1 0 0 I I #
vertex $-1 $272 $387 #
straight-curve $-1 -34.957082972915742 -21.439242812707242 14.038271855166908 -1 0 0 I I #
point $-1 -64.192478746730572 -21.439242812707242 14.038271855166908 #
point $-1 -64.192478746730572 -21.439242812707242 -14.038271855166908 #
point $-1 -64.192478746730572 -24.458368816411003 -14.038271855166908 #
point $-1 -64.192478746730572 -24.458368816411003 14.038271855166908 #
straight-curve $-1 -75.635853144932398 0 14.038271855166908 0 -1 0 I I #
straight-curve $-1 -75.635853144932398 0 -14.038271855166908 0 1 0 I I #
edge $-1 $356 24.426784055658477 $359 37.170795207448414 $277 $388 forward 7 unknown #
vertex $-1 $291 $389 #
straight-curve $-1 18.591110089337988 -84.175626535904698 14.038271855166908 0 -1 0 I I #
edge $-1 $359 4.7108184476016604 $288 23.049764835870995 $287 $390 forward 7 unknown #
vertex $-1 $358 $391 #
straight-curve $-1 18.591110089337988 -37.34611138087638 1.2942607033769349 0 0.49999998660252726 0.86602541151947299 I I #
point $-1 18.591110089337988 -29.988353374702484 14.038271855166908 #
point $-1 36.930056477607323 -37.346111380876359 1.2942607033769717 #
straight-curve $-1 0 -37.346111380876359 14.038271855166908 1 0 0 I I #
vertex $-1 $294 $392 #
point $-1 30.260583283472656 -31.041695576118684 6.1504119542163638 #
edge $-1 $367 66.210541649585778 $370 74.204326310402891 $299 $393 forward 7 unknown #
vertex $-1 $313 $394 #
straight-curve $-1 32.338738622148135 52.607864022659584 14.038271855166911 0 1 0 I I #
edge $-1 $370 -25.359219112306818 $310 11.400180092624183 $309 $395 forward 7 unknown #
vertex $-1 $369 $396 #
straight-curve $-1 32.338738622148135 -10.665123212692166 63.262050004142921 0 -0.64278759981090561 0.7660444514056185 I I #
point $-1 32.338738622148135 30.638529795886662 14.038271855166911 #
point $-1 -4.4206605827828653 37.346111380876366 6.0444871943497986 #
straight-curve $-1 0 37.346111380876359 14.038271855166908 -1 0 0 I I #
vertex $-1 $316 $397 #
point $-1 8.0820249043402868 32.227381478471678 8.5604198073559488 #
vertex $-1 $320 $398 #
point $-1 23.836053135024997 32.227381478471678 8.5604198073559488 #
straight-curve $-1 -75.635853144932398 37.346111380876359 0 0 0 -1 I I #
point $-1 -75.635853144932398 -37.346111380876359 -14.038271855166908 #
straight-curve $-1 -75.635853144932398 0 -14.038271855166908 0 1 0 I I #
point $-1 -75.635853144932398 37.346111380876359 -14.038271855166908 #
straight-curve $-1 -64.192478746730572 -11.474402907279561 -14.038271855166908 0 -1 0 I I #
straight-curve $-1 -64.192478746730572 -11.474402907279561 14.038271855166908 0 1 0 I I #
straight-curve $-1 -75.635853144932398 -21.439242812707242 0 0 0 -1 I I #
point $-1 -75.635853144932398 -21.439242812707242 -14.038271855166908 #
point $-1 -75.635853144932398 -21.439242812707242 14.038271855166908 #
straight-curve $-1 18.591110089337988 -37.346111380876351 38.465055910825384 0 0 -1 I I #
point $-1 18.591110089337988 -37.346111380876359 14.038271855166908 #
straight-curve $-1 13.880291641736328 -37.346111380876359 1.2942607033769717 1 0 0 I I #
point $-1 18.591110089337988 -37.346111380876359 1.2942607033769717 #
point $-1 27.760583283472656 -28.876632047320001 4.9004119877100463 #
straight-curve $-1 32.338738622148135 37.346111380876359 80.24881350475269 0 0 -1 I I #
point $-1 32.338738622148135 37.346111380876359 14.038271855166908 #
straight-curve $-1 6.9795195098413174 37.346111380876359 6.0444871943498022 -1 0 0 I I #
point $-1 32.338738622148135 37.346111380876366 6.0444871943497986 #
point $-1 6.0820249043402868 30.695292575660439 7.2748446077341384 #
point $-1 21.836053135024997 30.695292575660439 7.2748446077341384 #
End-of-ACIS-data 