500 0 5 0           
7 Unknown 11 ACIS 5.0 NT 24 Fri Mar 26 18:08:30 1999 
-1 9.9999999999999995e-007 1e-010 
body $-1 $5 $-1 $6 #
body $-1 $7 $-1 $8 #
body $-1 $9 $-1 $10 #
body $-1 $11 $-1 $12 #
body $-1 $13 $-1 $14 #
lump $-1 $-1 $15 $0 #
transform $-1 1 0 0 0 1 0 0 0 1 66.292306283761093 27.630662392321859 9.7513040530048514 1 rotate no_reflect no_shear #
lump $-1 $-1 $16 $1 #
transform $-1 1 0 0 0 1 0 0 0 1 66.292306283761093 27.630662392321859 9.7513040530048514 1 rotate no_reflect no_shear #
lump $-1 $-1 $17 $2 #
transform $-1 1 0 0 0 1 0 0 0 1 66.292306283761093 27.630662392321859 9.7513040530048514 1 rotate no_reflect no_shear #
lump $-1 $-1 $18 $3 #
transform $-1 1 0 0 0 1 0 0 0 1 66.292306283761093 27.630662392321859 9.7513040530048514 1 rotate no_reflect no_shear #
lump $-1 $-1 $19 $4 #
transform $-1 1 0 0 0 1 0 0 0 1 66.292306283761093 27.630662392321859 9.7513040530048514 1 rotate no_reflect no_shear #
shell $-1 $-1 $-1 $20 $-1 $5 #
shell $-1 $-1 $-1 $21 $-1 $7 #
shell $-1 $-1 $-1 $22 $-1 $9 #
shell $-1 $-1 $-1 $23 $-1 $11 #
shell $-1 $-1 $-1 $24 $-1 $13 #
face $-1 $25 $26 $15 $-1 $27 forward single #
face $-1 $28 $29 $16 $-1 $30 forward single #
face $-1 $31 $32 $17 $-1 $33 reversed single #
face $-1 $34 $35 $18 $-1 $36 forward single #
face $-1 $37 $38 $19 $-1 $39 forward single #
face $-1 $40 $41 $15 $-1 $42 reversed single #
loop $-1 $-1 $43 $20 #
plane-surface $-1 0 0 9.7513040530048514 0 0 1 1 0 0 forward_v I I I I #
face $-1 $44 $45 $16 $-1 $46 reversed single #
loop $-1 $-1 $47 $21 #
plane-surface $-1 0 -27.630662392321859 0 0 1 0 0 0 1 forward_v I I I I #
face $-1 $48 $49 $17 $-1 $50 reversed single #
loop $-1 $-1 $51 $22 #
plane-surface $-1 72.836067393008221 -6.8562909833770371 188.08494371064072 0 -1 0 -0.73135370988377701 0 -0.68199835119979291 forward_v I I I I #
face $-1 $52 $53 $18 $-1 $54 forward single #
loop $-1 $55 $56 $23 #
cone-surface $-1 61.039575730137159 -15.993963417481092 4.262590557302711 -0.73135370988377701 0 -0.68199835119979291 1.0229975267996894 0 -1.0970305648256655 1 I I 0 1 1.5 forward I I I I #
face $-1 $57 $58 $19 $-1 $59 forward single #
loop $-1 $60 $61 $24 #
cone-surface $-1 61.039575730137159 -10.511359957018659 4.262590557302711 -0.73135370988377701 0 -0.68199835119979291 1.0229975267996894 0 -1.0970305648256655 1 I I 0 1 1.5 forward I I I I #
face $-1 $62 $63 $15 $-1 $64 reversed single #
loop $-1 $-1 $65 $25 #
plane-surface $-1 0 0 -9.7513040530048514 0 0 1 1 0 0 forward_v I I I I #
coedge $-1 $66 $67 $68 $69 forward $26 $-1 #
face $-1 $70 $71 $16 $-1 $72 reversed single #
loop $-1 $-1 $73 $28 #
plane-surface $-1 0 0 -9.7513040530048514 0 0 1 1 0 0 forward_v I I I I #
coedge $-1 $74 $75 $76 $77 forward $29 $-1 #
face $-1 $78 $79 $17 $-1 $80 reversed single #
loop $-1 $-1 $81 $31 #
plane-surface $-1 -24.130180881752381 -13.252661687249876 97.662456545127242 0.73135370988377701 0 0.68199835119979291 0.68199835119979291 0 -0.73135370988377701 forward_v I I I I #
coedge $-1 $82 $83 $84 $85 reversed $32 $-1 #
face $-1 $-1 $86 $18 $-1 $87 forward single #
loop $-1 $88 $89 $34 #
cone-surface $-1 59.460336503389925 -15.993963417481092 2.7899261895198393 -0.73135370988377701 0 -0.68199835119979291 0.51149876339984468 0 -0.54851528241283276 1 I I -0.70710678118654757 0.70710678118654757 0.75 forward I I I I #
loop $-1 $-1 $90 $23 #
coedge $-1 $56 $56 $91 $92 reversed $35 $-1 #
face $-1 $-1 $93 $19 $-1 $94 forward single #
loop $-1 $95 $96 $37 #
cone-surface $-1 59.460336503389925 -10.511359957018659 2.7899261895198393 -0.73135370988377701 0 -0.68199835119979291 0.51149876339984468 0 -0.54851528241283276 1 I I -0.70710678118654757 0.70710678118654757 0.75 forward I I I I #
loop $-1 $-1 $97 $24 #
coedge $-1 $61 $61 $98 $99 reversed $38 $-1 #
face $-1 $100 $101 $15 $-1 $102 reversed single #
loop $-1 $-1 $103 $40 #
plane-surface $-1 0 -27.630662392321859 0 0 1 0 0 0 1 forward_v I I I I #
coedge $-1 $104 $105 $106 $107 forward $41 $-1 #
coedge $-1 $108 $43 $109 $110 forward $26 $-1 #
coedge $-1 $43 $108 $111 $112 forward $26 $-1 #
coedge $-1 $113 $114 $43 $69 reversed $115 $-1 #
edge $-1 $116 -27.630662392321859 $117 27.630662392321859 $68 $118 forward 7 unknown #
face $-1 $119 $120 $16 $-1 $121 forward single #
loop $-1 $-1 $122 $44 #
plane-surface $-1 66.292306283761093 0 0 -1 0 0 0 0 1 forward_v I I I I #
coedge $-1 $123 $124 $125 $126 forward $45 $-1 #
coedge $-1 $125 $47 $122 $127 reversed $29 $-1 #
coedge $-1 $47 $125 $128 $129 reversed $29 $-1 #
coedge $-1 $130 $131 $47 $77 reversed $120 $-1 #
edge $-1 $132 -66.292306283761093 $133 66.292306283761093 $76 $134 forward 7 unknown #
face $-1 $135 $136 $17 $-1 $137 reversed single #
loop $-1 $-1 $138 $48 #
plane-surface $-1 72.836067393008221 -19.649032391122716 188.08494371064072 0 1 0 0.73135370988377701 0 0.68199835119979291 forward_v I I I I #
coedge $-1 $139 $140 $141 $142 reversed $49 $-1 #
coedge $-1 $83 $51 $143 $144 reversed $32 $-1 #
coedge $-1 $51 $82 $139 $145 reversed $32 $-1 #
coedge $-1 $141 $146 $51 $85 forward $147 $-1 #
edge $-1 $148 -29.874272587256982 $149 -21.430259368677909 $84 $150 forward 7 unknown #
loop $-1 $-1 $91 $52 #
plane-surface $-1 -24.130180881752381 -13.252661687249876 97.662456545127242 0.73135370988377701 0 0.68199835119979291 0.68199835119979291 0 -0.73135370988377701 forward_v I I I I #
loop $-1 $-1 $151 $34 #
coedge $-1 $89 $89 $90 $152 reversed $53 $-1 #
coedge $-1 $90 $90 $89 $152 forward $55 $-1 #
coedge $-1 $91 $91 $56 $92 forward $86 $-1 #
edge $-1 $153 0 $153 6.2831853071796004 $91 $154 forward 7 unknown #
loop $-1 $-1 $98 $57 #
plane-surface $-1 -24.130180881752381 -13.252661687249876 97.662456545127242 0.73135370988377701 0 0.68199835119979291 0.68199835119979291 0 -0.73135370988377701 forward_v I I I I #
loop $-1 $-1 $155 $37 #
coedge $-1 $96 $96 $97 $156 reversed $58 $-1 #
coedge $-1 $97 $97 $96 $156 forward $60 $-1 #
coedge $-1 $98 $98 $61 $99 forward $93 $-1 #
edge $-1 $157 0 $157 6.2831853071796004 $98 $158 forward 7 unknown #
face $-1 $159 $160 $15 $-1 $161 reversed single #
loop $-1 $-1 $162 $62 #
plane-surface $-1 -66.292306283761093 0 0 1 0 0 0 0 -1 forward_v I I I I #
coedge $-1 $111 $163 $113 $164 reversed $63 $-1 #
coedge $-1 $165 $65 $163 $166 forward $41 $-1 #
coedge $-1 $65 $165 $167 $168 forward $41 $-1 #
coedge $-1 $114 $113 $65 $107 reversed $115 $-1 #
edge $-1 $169 -27.630662392321859 $170 27.630662392321859 $106 $171 forward 7 unknown #
coedge $-1 $67 $66 $172 $173 forward $26 $-1 #
coedge $-1 $174 $175 $66 $110 reversed $160 $-1 #
edge $-1 $117 -66.292306283761093 $176 66.292306283761093 $109 $177 forward 7 unknown #
coedge $-1 $178 $103 $67 $112 reversed $63 $-1 #
edge $-1 $179 -66.292306283761093 $116 66.292306283761093 $111 $180 forward 7 unknown #
coedge $-1 $106 $68 $103 $164 forward $115 $-1 #
coedge $-1 $68 $106 $174 $181 reversed $115 $-1 #
loop $-1 $-1 $113 $159 #
vertex $-1 $69 $182 #
vertex $-1 $69 $183 #
straight-curve $-1 66.292306283761093 0 9.7513040530048514 0 1 0 I I #
face $-1 $184 $185 $16 $-1 $186 reversed single #
loop $-1 $-1 $131 $70 #
plane-surface $-1 0 -31.621477392921431 -5.3951640808659782 0 0 1 1 0 0 forward_v I I I I #
coedge $-1 $187 $188 $74 $127 forward $71 $-1 #
coedge $-1 $189 $73 $188 $190 forward $45 $-1 #
coedge $-1 $73 $189 $191 $192 forward $45 $-1 #
coedge $-1 $75 $74 $73 $126 reversed $29 $-1 #
edge $-1 $193 -66.292306283761093 $194 66.292306283761093 $73 $195 forward 7 unknown #
edge $-1 $194 -9.7513040530048514 $133 -5.3951640808659782 $122 $196 forward 7 unknown #
coedge $-1 $191 $197 $75 $129 forward $198 $-1 #
edge $-1 $132 5.3951640808659782 $193 9.7513040530048514 $128 $199 forward 7 unknown #
coedge $-1 $200 $76 $197 $201 forward $120 $-1 #
coedge $-1 $76 $200 $187 $202 forward $120 $-1 #
vertex $-1 $129 $203 #
vertex $-1 $202 $204 #
straight-curve $-1 0 -27.630662392321859 -5.3951640808659782 1 0 0 I I #
face $-1 $-1 $147 $17 $-1 $205 forward single #
loop $-1 $-1 $206 $78 #
plane-surface $-1 66.292306283761093 0 0 -1 0 0 0 0 1 forward_v I I I I #
coedge $-1 $207 $208 $209 $210 reversed $79 $-1 #
coedge $-1 $211 $81 $83 $145 forward $49 $-1 #
coedge $-1 $81 $211 $207 $212 forward $49 $-1 #
coedge $-1 $209 $84 $81 $142 forward $147 $-1 #
edge $-1 $149 0.22996013975209895 $213 13.022701547497778 $141 $214 forward 7 unknown #
coedge $-1 $215 $216 $82 $144 forward $136 $-1 #
edge $-1 $217 -93.346263584953718 $148 -84.291167802315499 $143 $218 forward 7 unknown #
edge $-1 $149 120.2033315809566 $217 132.58461256752219 $83 $219 forward 7 unknown #
coedge $-1 $84 $209 $215 $220 forward $147 $-1 #
loop $-1 $-1 $209 $135 #
vertex $-1 $144 $221 #
vertex $-1 $85 $222 #
straight-curve $-1 36.418033696504111 -6.8562909833770371 9.7513040530048585 -1 0 0 I I #
coedge $-1 $151 $151 $-1 $223 reversed $88 $-1 #
edge $-1 $224 0 $224 6.2831853071796004 $89 $225 forward 7 unknown #
vertex $-1 $92 $226 #
ellipse-curve $-1 62.070299674471563 -15.993963417481092 5.2237561616857393 0.73135370988377701 0 0.68199835119979291 1.0229975267996894 0 -1.0970305648256655 1 I I #
coedge $-1 $155 $155 $-1 $227 reversed $95 $-1 #
edge $-1 $228 0 $228 6.2831853071796004 $96 $229 forward 7 unknown #
vertex $-1 $99 $230 #
ellipse-curve $-1 62.070299674471563 -10.511359957018659 5.2237561616857393 0.73135370988377701 0 0.68199835119979291 1.0229975267996894 0 -1.0970305648256655 1 I I #
face $-1 $-1 $115 $15 $-1 $231 reversed single #
loop $-1 $-1 $174 $100 #
plane-surface $-1 0 27.630662392321859 0 0 -1 0 0 0 -1 forward_v I I I I #
coedge $-1 $232 $172 $175 $233 forward $101 $-1 #
coedge $-1 $103 $178 $104 $166 reversed $63 $-1 #
edge $-1 $116 -9.7513040530048514 $170 9.7513040530048514 $113 $234 forward 7 unknown #
coedge $-1 $105 $104 $232 $235 forward $41 $-1 #
edge $-1 $170 -66.292306283761093 $236 66.292306283761093 $163 $237 forward 7 unknown #
coedge $-1 $175 $174 $105 $168 reversed $160 $-1 #
edge $-1 $238 -66.292306283761093 $169 66.292306283761093 $167 $239 forward 7 unknown #
vertex $-1 $107 $240 #
vertex $-1 $164 $241 #
straight-curve $-1 66.292306283761093 0 -9.7513040530048514 0 -1 0 I I #
coedge $-1 $162 $242 $108 $173 reversed $101 $-1 #
edge $-1 $176 -27.630662392321859 $179 27.630662392321859 $172 $243 forward 7 unknown #
coedge $-1 $167 $109 $114 $181 forward $160 $-1 #
coedge $-1 $109 $167 $162 $233 reversed $160 $-1 #
vertex $-1 $110 $244 #
straight-curve $-1 0 27.630662392321859 9.7513040530048514 -1 0 0 I I #
coedge $-1 $163 $111 $242 $245 forward $63 $-1 #
vertex $-1 $173 $246 #
straight-curve $-1 0 -27.630662392321859 9.7513040530048514 1 0 0 I I #
edge $-1 $117 -9.7513040530048514 $169 9.7513040530048514 $114 $247 forward 7 unknown #
point $-1 66.292306283761093 -27.630662392321859 9.7513040530048514 #
point $-1 66.292306283761093 27.630662392321859 9.7513040530048514 #
face $-1 $-1 $198 $16 $-1 $248 reversed single #
loop $-1 $-1 $249 $119 #
plane-surface $-1 0 -35.612292393521003 -7.5732340669354148 0 1 0 0 0 1 forward_v I I I I #
coedge $-1 $250 $122 $131 $202 reversed $71 $-1 #
coedge $-1 $122 $250 $123 $190 reversed $71 $-1 #
coedge $-1 $124 $123 $251 $252 forward $45 $-1 #
edge $-1 $194 27.630662392321859 $253 35.612292393521003 $188 $254 forward 7 unknown #
coedge $-1 $255 $128 $124 $192 reversed $198 $-1 #
edge $-1 $256 -35.612292393521003 $193 -27.630662392321859 $191 $257 forward 7 unknown #
vertex $-1 $129 $258 #
vertex $-1 $190 $259 #
straight-curve $-1 0 -27.630662392321859 -9.7513040530048514 1 0 0 I I #
straight-curve $-1 66.292306283761093 -27.630662392321859 0 0 0 1 I I #
coedge $-1 $128 $255 $130 $201 reversed $198 $-1 #
loop $-1 $-1 $128 $184 #
straight-curve $-1 -66.292306283761093 -27.630662392321859 0 0 0 -1 I I #
coedge $-1 $131 $130 $260 $261 forward $120 $-1 #
edge $-1 $132 -3.9908150005995715 $262 3.9908150005995715 $197 $263 forward 7 unknown #
edge $-1 $264 -3.9908150005995715 $133 3.9908150005995715 $187 $265 forward 7 unknown #
point $-1 -66.292306283761093 -27.630662392321859 -5.3951640808659782 #
point $-1 66.292306283761093 -27.630662392321859 -5.3951640808659782 #
plane-surface $-1 0 0 9.7513040530048514 0 0 1 1 0 0 forward_v I I I I #
coedge $-1 $216 $215 $208 $266 forward $136 $-1 #
coedge $-1 $208 $138 $140 $212 reversed $79 $-1 #
coedge $-1 $138 $207 $206 $266 reversed $79 $-1 #
coedge $-1 $146 $141 $138 $210 forward $147 $-1 #
edge $-1 $213 21.430259368677909 $267 29.874272587256982 $209 $268 forward 7 unknown #
coedge $-1 $140 $139 $216 $269 reversed $49 $-1 #
edge $-1 $270 -132.58461256752219 $213 -120.2033315809566 $207 $271 forward 7 unknown #
vertex $-1 $142 $272 #
straight-curve $-1 57.848293065182034 -6.6263308436249382 9.7513040530048372 0 -1 0 I I #
coedge $-1 $206 $143 $146 $220 reversed $136 $-1 #
coedge $-1 $143 $206 $211 $269 forward $136 $-1 #
vertex $-1 $144 $273 #
straight-curve $-1 66.292306283761093 -6.8562909833770371 94.042471855320358 0 0 1 I I #
straight-curve $-1 -24.130180881752381 -6.8562909833770371 97.662456545127242 0.68199835119979291 0 -0.73135370988377701 I I #
edge $-1 $267 -19.649032391122716 $148 -6.8562909833770371 $215 $274 forward 7 unknown #
point $-1 66.292306283761093 -6.8562909833770371 9.7513040530048514 #
point $-1 57.84829306518202 -6.8562909833770371 9.7513040530048443 #
edge $-1 $275 1 $275 0 $151 $-1 forward 7 unknown #
vertex $-1 $152 $276 #
ellipse-curve $-1 60.008851785802761 -15.993963417481092 3.301424952919684 0.73135370988377701 0 0.68199835119979291 1.0229975267996894 0 -1.0970305648256655 1 I I #
point $-1 63.093297201271255 -15.993963417481092 4.1267255968600729 #
edge $-1 $277 1 $277 0 $155 $-1 forward 7 unknown #
vertex $-1 $156 $278 #
ellipse-curve $-1 60.008851785802761 -10.511359957018659 3.301424952919684 0.73135370988377701 0 0.68199835119979291 1.0229975267996894 0 -1.0970305648256655 1 I I #
point $-1 63.093297201271255 -10.511359957018659 4.1267255968600729 #
plane-surface $-1 66.292306283761093 0 0 -1 0 0 0 0 1 forward_v I I I I #
coedge $-1 $242 $162 $165 $235 reversed $101 $-1 #
edge $-1 $176 -9.7513040530048514 $238 9.7513040530048514 $175 $279 forward 7 unknown #
straight-curve $-1 66.292306283761093 -27.630662392321859 0 0 0 -1 I I #
edge $-1 $236 -27.630662392321859 $238 27.630662392321859 $232 $280 forward 7 unknown #
vertex $-1 $235 $281 #
straight-curve $-1 0 -27.630662392321859 -9.7513040530048514 -1 0 0 I I #
vertex $-1 $168 $282 #
straight-curve $-1 0 27.630662392321859 -9.7513040530048514 1 0 0 I I #
point $-1 66.292306283761093 27.630662392321859 -9.7513040530048514 #
point $-1 66.292306283761093 -27.630662392321859 -9.7513040530048514 #
coedge $-1 $172 $232 $178 $245 reversed $101 $-1 #
straight-curve $-1 -66.292306283761093 0 9.7513040530048514 0 -1 0 I I #
point $-1 -66.292306283761093 27.630662392321859 9.7513040530048514 #
edge $-1 $179 -9.7513040530048514 $236 9.7513040530048514 $242 $283 forward 7 unknown #
point $-1 -66.292306283761093 -27.630662392321859 9.7513040530048514 #
straight-curve $-1 66.292306283761093 27.630662392321859 0 0 0 -1 I I #
plane-surface $-1 -66.292306283761093 0 0 1 0 0 0 0 -1 forward_v I I I I #
coedge $-1 $251 $260 $255 $284 forward $185 $-1 #
coedge $-1 $188 $187 $285 $286 forward $71 $-1 #
coedge $-1 $285 $249 $189 $252 reversed $185 $-1 #
edge $-1 $253 -66.292306283761093 $256 66.292306283761093 $251 $287 forward 7 unknown #
vertex $-1 $286 $288 #
straight-curve $-1 66.292306283761093 0 -9.7513040530048514 0 -1 0 I I #
coedge $-1 $197 $191 $249 $284 reversed $198 $-1 #
vertex $-1 $192 $289 #
straight-curve $-1 -66.292306283761093 0 -9.7513040530048514 0 1 0 I I #
point $-1 -66.292306283761093 -27.630662392321859 -9.7513040530048514 #
point $-1 66.292306283761093 -27.630662392321859 -9.7513040530048514 #
coedge $-1 $249 $285 $200 $261 reversed $185 $-1 #
edge $-1 $262 -66.292306283761093 $264 66.292306283761093 $260 $290 forward 7 unknown #
vertex $-1 $201 $291 #
straight-curve $-1 -66.292306283761093 -31.621477392921431 -5.3951640808659782 0 -1 0 I I #
vertex $-1 $202 $292 #
straight-curve $-1 66.292306283761093 -31.621477392921431 -5.3951640808659782 0 1 0 I I #
edge $-1 $267 84.291167802315499 $270 93.346263584953718 $206 $293 forward 7 unknown #
vertex $-1 $220 $294 #
straight-curve $-1 36.418033696504111 -19.649032391122716 9.7513040530048585 1 0 0 I I #
edge $-1 $270 -13.022701547497778 $217 -0.22996013975209895 $216 $295 forward 7 unknown #
vertex $-1 $269 $296 #
straight-curve $-1 -24.130180881752381 -19.649032391122716 97.662456545127242 -0.68199835119979291 0 0.73135370988377701 I I #
point $-1 57.84829306518202 -19.649032391122716 9.7513040530048443 #
point $-1 66.292306283761093 -6.8562909833770371 0.69620827036663968 #
straight-curve $-1 66.292306283761093 0 9.7513040530048514 0 1 0 I I #
vertex $-1 $223 $297 #
point $-1 61.031849312602446 -15.993963417481092 2.2043943880940184 #
vertex $-1 $227 $298 #
point $-1 61.031849312602446 -10.511359957018659 2.2043943880940184 #
straight-curve $-1 -66.292306283761093 27.630662392321859 0 0 0 -1 I I #
straight-curve $-1 -66.292306283761093 0 -9.7513040530048514 0 1 0 I I #
point $-1 -66.292306283761093 -27.630662392321859 -9.7513040530048514 #
point $-1 -66.292306283761093 27.630662392321859 -9.7513040530048514 #
straight-curve $-1 -66.292306283761093 -27.630662392321859 0 0 0 -1 I I #
edge $-1 $262 -2.1780699860694366 $256 2.1780699860694366 $255 $299 forward 7 unknown #
coedge $-1 $260 $251 $250 $286 reversed $185 $-1 #
edge $-1 $264 -2.1780699860694366 $253 2.1780699860694366 $250 $300 forward 7 unknown #
straight-curve $-1 0 -35.612292393521003 -9.7513040530048514 -1 0 0 I I #
point $-1 66.292306283761093 -35.612292393521003 -9.7513040530048514 #
point $-1 -66.292306283761093 -35.612292393521003 -9.7513040530048514 #
straight-curve $-1 0 -35.612292393521003 -5.3951640808659782 1 0 0 I I #
point $-1 -66.292306283761093 -35.612292393521003 -5.3951640808659782 #
point $-1 66.292306283761093 -35.612292393521003 -5.3951640808659782 #
straight-curve $-1 66.292306283761093 -19.649032391122716 94.042471855320358 0 0 -1 I I #
point $-1 66.292306283761093 -19.649032391122716 9.7513040530048514 #
straight-curve $-1 66.292306283761079 -6.6263308436249382 0.69620827036664679 0 1 0 I I #
point $-1 66.292306283761093 -19.649032391122716 0.69620827036663968 #
point $-1 58.911821220977089 -15.993963417481092 2.2784274261199946 #
point $-1 58.911821220977089 -10.511359957018659 2.2784274261199946 #
straight-curve $-1 -66.292306283761093 -35.612292393521003 -7.5732340669354148 0 0 -1 I I #
straight-curve $-1 66.292306283761093 -35.612292393521003 -7.5732340669354148 0 0 -1 I I #
End-of-ACIS-data 