500 0 12 0           
7 Unknown 11 ACIS 5.0 NT 24 Thu Mar 25 16:33:37 1999 
-1 9.9999999999999995e-007 1e-010 
body $-1 $12 $-1 $13 #
body $-1 $14 $-1 $15 #
body $-1 $16 $-1 $17 #
body $-1 $18 $-1 $19 #
body $-1 $20 $-1 $21 #
body $-1 $22 $-1 $23 #
body $-1 $24 $-1 $25 #
body $-1 $26 $-1 $27 #
body $-1 $28 $-1 $29 #
body $-1 $30 $-1 $31 #
body $-1 $32 $-1 $33 #
body $-1 $34 $-1 $35 #
lump $-1 $-1 $36 $0 #
transform $-1 1 0 0 0 1 0 0 0 1 79.588610492263555 43.893603257173162 10.733015453884962 1 rotate no_reflect no_shear #
lump $-1 $-1 $37 $1 #
transform $-1 1 0 0 0 1 0 0 0 1 79.588610492263555 43.893603257173162 10.733015453884962 1 rotate no_reflect no_shear #
lump $-1 $-1 $38 $2 #
transform $-1 1 0 0 0 1 0 0 0 1 79.588610492263555 43.893603257173162 10.733015453884962 1 rotate no_reflect no_shear #
lump $-1 $-1 $39 $3 #
transform $-1 1 0 0 0 1 0 0 0 1 79.588610492263555 43.893603257173162 10.733015453884962 1 rotate no_reflect no_shear #
lump $-1 $-1 $40 $4 #
transform $-1 1 0 0 0 1 0 0 0 1 79.588610492263555 43.893603257173162 10.733015453884962 1 rotate no_reflect no_shear #
lump $-1 $-1 $41 $5 #
transform $-1 1 0 0 0 1 0 0 0 1 79.588610492263555 43.893603257173162 10.733015453884962 1 rotate no_reflect no_shear #
lump $-1 $-1 $42 $6 #
transform $-1 1 0 0 0 1 0 0 0 1 79.588610492263555 43.893603257173162 10.733015453884962 1 rotate no_reflect no_shear #
lump $-1 $-1 $43 $7 #
transform $-1 1 0 0 0 1 0 0 0 1 79.588610492263555 43.893603257173162 10.733015453884962 1 rotate no_reflect no_shear #
lump $-1 $-1 $44 $8 #
transform $-1 1 0 0 0 1 0 0 0 1 79.588610492263555 43.893603257173162 10.733015453884962 1 rotate no_reflect no_shear #
lump $-1 $-1 $45 $9 #
transform $-1 1 0 0 0 1 0 0 0 1 79.588610492263555 43.893603257173162 10.733015453884962 1 rotate no_reflect no_shear #
lump $-1 $-1 $46 $10 #
transform $-1 1 0 0 0 1 0 0 0 1 79.588610492263555 43.893603257173162 10.733015453884962 1 rotate no_reflect no_shear #
lump $-1 $-1 $47 $11 #
transform $-1 1 0 0 0 1 0 0 0 1 79.588610492263555 43.893603257173162 10.733015453884962 1 rotate no_reflect no_shear #
shell $-1 $-1 $-1 $48 $-1 $12 #
shell $-1 $-1 $-1 $49 $-1 $14 #
shell $-1 $-1 $-1 $50 $-1 $16 #
shell $-1 $-1 $-1 $51 $-1 $18 #
shell $-1 $-1 $-1 $52 $-1 $20 #
shell $-1 $-1 $-1 $53 $-1 $22 #
shell $-1 $-1 $-1 $54 $-1 $24 #
shell $-1 $-1 $-1 $55 $-1 $26 #
shell $-1 $-1 $-1 $56 $-1 $28 #
shell $-1 $-1 $-1 $57 $-1 $30 #
shell $-1 $-1 $-1 $58 $-1 $32 #
shell $-1 $-1 $-1 $59 $-1 $34 #
face $-1 $60 $61 $36 $-1 $62 forward single #
face $-1 $63 $64 $37 $-1 $65 reversed single #
face $-1 $66 $67 $38 $-1 $68 reversed single #
face $-1 $69 $70 $39 $-1 $71 forward single #
face $-1 $72 $73 $40 $-1 $74 reversed single #
face $-1 $75 $76 $41 $-1 $77 forward single #
face $-1 $78 $79 $42 $-1 $80 forward single #
face $-1 $81 $82 $43 $-1 $83 forward single #
face $-1 $84 $85 $44 $-1 $86 reversed single #
face $-1 $87 $88 $45 $-1 $89 forward single #
face $-1 $90 $91 $46 $-1 $92 forward single #
face $-1 $93 $94 $47 $-1 $95 forward single #
face $-1 $96 $97 $36 $-1 $98 reversed single #
loop $-1 $-1 $99 $48 #
plane-surface $-1 0 0 10.733015453884962 0 0 1 1 0 0 forward_v I I I I #
face $-1 $100 $101 $37 $-1 $102 reversed single #
loop $-1 $-1 $103 $49 #
plane-surface $-1 -73.720654396595123 -25.427572349403238 0 0 1 0 0 0 1 forward_v I I I I #
face $-1 $104 $105 $38 $-1 $106 reversed single #
loop $-1 $-1 $107 $50 #
plane-surface $-1 -67.852698300926676 82.069412395098539 182.44970480001595 1 0 0 0 -0.6560590369687036 -0.75470957328743171 forward_v I I I I #
face $-1 $108 $109 $39 $-1 $110 forward single #
loop $-1 $111 $112 $51 #
cone-surface $-1 -49.385299775472056 38.861792719271271 5.9161535416952926 0 -0.6560590369687036 -0.75470957328743171 1.5 0 0 1 I I 0 1 1.5 forward I I I I #
face $-1 $113 $114 $40 $-1 $115 reversed single #
loop $-1 $-1 $116 $52 #
plane-surface $-1 -27.44772011793032 -146.21074990794412 126.8173067309085 -1 0 0 0 -0.64278761758704617 0.76604443648966558 forward_v I I I I #
face $-1 $117 $118 $41 $-1 $119 forward single #
loop $-1 $120 $121 $53 #
cone-surface $-1 -45.034124538077201 -39.893369413129854 7.1955637921916979 0 0.64278761758704617 -0.76604443648966558 0.5 0 0 1 I I 0 1 0.5 forward I I I I #
face $-1 $122 $123 $42 $-1 $124 forward single #
loop $-1 $125 $126 $54 #
cone-surface $-1 -38.439222880522117 -39.893369413129854 7.1955637921916979 0 0.64278761758704617 -0.76604443648966558 0.5 0 0 1 I I 0 1 0.5 forward I I I I #
face $-1 $127 $128 $43 $-1 $129 forward single #
loop $-1 $130 $131 $55 #
cone-surface $-1 -31.844321222967032 -39.893369413129854 7.1955637921916979 0 0.64278761758704617 -0.76604443648966558 0.5 0 0 1 I I 0 1 0.5 forward I I I I #
face $-1 $132 $133 $44 $-1 $134 reversed single #
loop $-1 $-1 $135 $56 #
plane-surface $-1 46.272934278664806 -146.21074990794412 126.8173067309085 -1 0 0 0 -0.64278761758704617 0.76604443648966558 forward_v I I I I #
face $-1 $136 $137 $45 $-1 $138 forward single #
loop $-1 $139 $140 $57 #
cone-surface $-1 28.686529858517915 -39.893369413129854 7.1955637921916979 0 0.64278761758704617 -0.76604443648966558 0.5 0 0 1 I I 0 1 0.5 forward I I I I #
face $-1 $141 $142 $46 $-1 $143 forward single #
loop $-1 $144 $145 $58 #
cone-surface $-1 35.281431516072999 -39.893369413129854 7.1955637921916979 0 0.64278761758704617 -0.76604443648966558 0.5 0 0 1 I I 0 1 0.5 forward I I I I #
face $-1 $146 $147 $47 $-1 $148 forward single #
loop $-1 $149 $150 $59 #
cone-surface $-1 41.876333173628083 -39.893369413129854 7.1955637921916979 0 0.64278761758704617 -0.76604443648966558 0.5 0 0 1 I I 0 1 0.5 forward I I I I #
face $-1 $151 $152 $36 $-1 $153 reversed single #
loop $-1 $-1 $154 $60 #
plane-surface $-1 0 0 -10.733015453884962 0 0 1 1 0 0 forward_v I I I I #
coedge $-1 $155 $156 $157 $158 forward $61 $-1 #
face $-1 $159 $160 $37 $-1 $161 reversed single #
loop $-1 $-1 $162 $63 #
plane-surface $-1 -73.720654396595123 -22.427572349403238 0 0 -1 0 0 0 -1 forward_v I I I I #
coedge $-1 $163 $164 $165 $166 reversed $64 $-1 #
face $-1 $167 $168 $38 $-1 $169 reversed single #
loop $-1 $-1 $170 $66 #
plane-surface $-1 -49.385299775472056 -22.360241911364838 62.317132273704274 0 0.6560590369687036 0.75470957328743171 1 0 0 forward_v I I I I #
coedge $-1 $171 $172 $173 $174 reversed $67 $-1 #
face $-1 $-1 $175 $39 $-1 $176 forward single #
loop $-1 $177 $178 $69 #
cone-surface $-1 -49.385299775472056 36.794491969421323 3.5379961216177573 0 -0.6560590369687036 -0.75470957328743171 0.75 0 0 1 I I -0.70710678118654757 0.70710678118654757 0.75 forward I I I I #
loop $-1 $-1 $179 $51 #
coedge $-1 $112 $112 $180 $181 reversed $70 $-1 #
face $-1 $182 $183 $40 $-1 $184 reversed single #
loop $-1 $-1 $185 $72 #
plane-surface $-1 -38.439222880522124 -43.893603257173169 4.8804821798254636 0 -0.64278761758704617 0.76604443648966558 1 0 0 forward_v I I I I #
coedge $-1 $186 $187 $188 $189 reversed $73 $-1 #
face $-1 $-1 $190 $41 $-1 $191 forward single #
loop $-1 $192 $193 $75 #
cone-surface $-1 -45.034124538077201 -39.219827369215338 6.392867658405768 0 0.64278761758704617 -0.76604443648966558 0.25 0 0 1 I I -0.70710678118654746 0.70710678118654746 0.25 forward I I I I #
loop $-1 $-1 $194 $53 #
coedge $-1 $121 $121 $195 $196 reversed $76 $-1 #
face $-1 $-1 $197 $42 $-1 $198 forward single #
loop $-1 $199 $200 $78 #
cone-surface $-1 -38.439222880522117 -39.219827369215338 6.392867658405768 0 0.64278761758704617 -0.76604443648966558 0.25 0 0 1 I I -0.70710678118654746 0.70710678118654746 0.25 forward I I I I #
loop $-1 $-1 $201 $54 #
coedge $-1 $126 $126 $202 $203 reversed $79 $-1 #
face $-1 $-1 $204 $43 $-1 $205 forward single #
loop $-1 $206 $207 $81 #
cone-surface $-1 -31.844321222967032 -39.219827369215338 6.392867658405768 0 0.64278761758704617 -0.76604443648966558 0.25 0 0 1 I I -0.70710678118654746 0.70710678118654746 0.25 forward I I I I #
loop $-1 $-1 $208 $55 #
coedge $-1 $131 $131 $209 $210 reversed $82 $-1 #
face $-1 $211 $212 $44 $-1 $213 reversed single #
loop $-1 $-1 $214 $84 #
plane-surface $-1 35.281431516072999 -43.893603257173169 4.8804821798254636 0 -0.64278761758704617 0.76604443648966558 1 0 0 forward_v I I I I #
coedge $-1 $215 $216 $217 $218 reversed $85 $-1 #
face $-1 $-1 $219 $45 $-1 $220 forward single #
loop $-1 $221 $222 $87 #
cone-surface $-1 28.686529858517915 -39.219827369215338 6.392867658405768 0 0.64278761758704617 -0.76604443648966558 0.25 0 0 1 I I -0.70710678118654746 0.70710678118654746 0.25 forward I I I I #
loop $-1 $-1 $223 $57 #
coedge $-1 $140 $140 $224 $225 reversed $88 $-1 #
face $-1 $-1 $226 $46 $-1 $227 forward single #
loop $-1 $228 $229 $90 #
cone-surface $-1 35.281431516072999 -39.219827369215338 6.392867658405768 0 0.64278761758704617 -0.76604443648966558 0.25 0 0 1 I I -0.70710678118654746 0.70710678118654746 0.25 forward I I I I #
loop $-1 $-1 $230 $58 #
coedge $-1 $145 $145 $231 $232 reversed $91 $-1 #
face $-1 $-1 $233 $47 $-1 $234 forward single #
loop $-1 $235 $236 $93 #
cone-surface $-1 41.876333173628083 -39.219827369215338 6.392867658405768 0 0.64278761758704617 -0.76604443648966558 0.25 0 0 1 I I -0.70710678118654746 0.70710678118654746 0.25 forward I I I I #
loop $-1 $-1 $237 $59 #
coedge $-1 $150 $150 $238 $239 reversed $94 $-1 #
face $-1 $240 $241 $36 $-1 $242 reversed single #
loop $-1 $-1 $243 $96 #
plane-surface $-1 0 -43.893603257173162 0 0 1 0 0 0 1 forward_v I I I I #
coedge $-1 $244 $245 $246 $247 forward $97 $-1 #
coedge $-1 $248 $99 $249 $250 forward $61 $-1 #
coedge $-1 $99 $248 $251 $252 forward $61 $-1 #
coedge $-1 $253 $254 $99 $158 reversed $255 $-1 #
edge $-1 $256 -43.893603257173162 $257 43.893603257173162 $157 $258 forward 7 unknown #
face $-1 $259 $260 $37 $-1 $261 reversed single #
loop $-1 $-1 $262 $100 #
plane-surface $-1 -67.85269830092669 -23.927572349403238 0 -1 0 0 0 0 1 forward_v I I I I #
coedge $-1 $263 $264 $265 $266 forward $101 $-1 #
coedge $-1 $267 $103 $268 $269 reversed $64 $-1 #
coedge $-1 $103 $267 $270 $271 reversed $64 $-1 #
coedge $-1 $272 $273 $103 $166 forward $274 $-1 #
edge $-1 $275 -10.733015453884962 $276 10.733015453884962 $165 $277 forward 7 unknown #
face $-1 $278 $279 $38 $-1 $280 reversed single #
loop $-1 $-1 $281 $104 #
plane-surface $-1 -30.91790125001743 82.069412395098539 182.44970480001595 -1 0 0 0 0.6560590369687036 0.75470957328743171 forward_v I I I I #
coedge $-1 $282 $283 $284 $285 reversed $105 $-1 #
coedge $-1 $172 $107 $286 $287 reversed $67 $-1 #
coedge $-1 $107 $171 $282 $288 reversed $67 $-1 #
coedge $-1 $284 $289 $107 $174 forward $290 $-1 #
edge $-1 $291 -2.8588970596238923 $292 4.0542110719330609 $173 $293 forward 7 unknown #
loop $-1 $-1 $180 $108 #
plane-surface $-1 -49.385299775472056 -22.360241911364838 62.317132273704274 0 0.6560590369687036 0.75470957328743171 1 0 0 forward_v I I I I #
loop $-1 $-1 $294 $69 #
coedge $-1 $178 $178 $179 $295 reversed $109 $-1 #
coedge $-1 $179 $179 $178 $295 forward $111 $-1 #
coedge $-1 $180 $180 $112 $181 forward $175 $-1 #
edge $-1 $296 3.0346062096393033e-015 $296 6.2831853071796031 $180 $297 forward 7 unknown #
face $-1 $298 $299 $40 $-1 $300 forward single #
loop $-1 $-1 $301 $113 #
plane-surface $-1 -49.430725643113931 -146.21074990794412 126.8173067309085 1 0 0 0 0.64278761758704617 -0.76604443648966558 forward_v I I I I #
coedge $-1 $302 $303 $304 $305 reversed $114 $-1 #
coedge $-1 $187 $116 $306 $307 reversed $73 $-1 #
coedge $-1 $116 $186 $302 $308 reversed $73 $-1 #
coedge $-1 $304 $309 $116 $189 forward $299 $-1 #
edge $-1 $310 29.211771696798898 $311 36.18654910585002 $188 $312 forward 7 unknown #
loop $-1 $-1 $195 $117 #
plane-surface $-1 -38.439222880522124 -43.893603257173169 4.8804821798254636 0 -0.64278761758704617 0.76604443648966558 1 0 0 forward_v I I I I #
loop $-1 $-1 $313 $75 #
coedge $-1 $193 $193 $194 $314 reversed $118 $-1 #
coedge $-1 $194 $194 $193 $314 forward $120 $-1 #
coedge $-1 $195 $195 $121 $196 forward $190 $-1 #
edge $-1 $315 -1.1418201807825422e-015 $315 6.2831853071795996 $195 $316 forward 7 unknown #
loop $-1 $-1 $202 $122 #
plane-surface $-1 -38.439222880522124 -43.893603257173169 4.8804821798254636 0 -0.64278761758704617 0.76604443648966558 1 0 0 forward_v I I I I #
loop $-1 $-1 $317 $78 #
coedge $-1 $200 $200 $201 $318 reversed $123 $-1 #
coedge $-1 $201 $201 $200 $318 forward $125 $-1 #
coedge $-1 $202 $202 $126 $203 forward $197 $-1 #
edge $-1 $319 -1.1418201807825422e-015 $319 6.2831853071795996 $202 $320 forward 7 unknown #
loop $-1 $-1 $209 $127 #
plane-surface $-1 -38.439222880522124 -43.893603257173169 4.8804821798254636 0 -0.64278761758704617 0.76604443648966558 1 0 0 forward_v I I I I #
loop $-1 $-1 $321 $81 #
coedge $-1 $207 $207 $208 $322 reversed $128 $-1 #
coedge $-1 $208 $208 $207 $322 forward $130 $-1 #
coedge $-1 $209 $209 $131 $210 forward $204 $-1 #
edge $-1 $323 -1.1418201807825422e-015 $323 6.2831853071795996 $209 $324 forward 7 unknown #
face $-1 $325 $326 $44 $-1 $327 reversed single #
loop $-1 $-1 $328 $132 #
plane-surface $-1 24.289928753481195 -146.21074990794412 126.8173067309085 1 0 0 0 0.64278761758704617 -0.76604443648966558 forward_v I I I I #
coedge $-1 $329 $330 $331 $332 reversed $133 $-1 #
coedge $-1 $216 $135 $333 $334 reversed $85 $-1 #
coedge $-1 $135 $215 $329 $335 reversed $85 $-1 #
coedge $-1 $331 $336 $135 $218 forward $337 $-1 #
edge $-1 $338 29.211771696798898 $339 36.18654910585002 $217 $340 forward 7 unknown #
loop $-1 $-1 $224 $136 #
plane-surface $-1 35.281431516072999 -43.893603257173169 4.8804821798254636 0 -0.64278761758704617 0.76604443648966558 1 0 0 forward_v I I I I #
loop $-1 $-1 $341 $87 #
coedge $-1 $222 $222 $223 $342 reversed $137 $-1 #
coedge $-1 $223 $223 $222 $342 forward $139 $-1 #
coedge $-1 $224 $224 $140 $225 forward $219 $-1 #
edge $-1 $343 -1.1418201807825422e-015 $343 6.2831853071795996 $224 $344 forward 7 unknown #
loop $-1 $-1 $231 $141 #
plane-surface $-1 35.281431516072999 -43.893603257173169 4.8804821798254636 0 -0.64278761758704617 0.76604443648966558 1 0 0 forward_v I I I I #
loop $-1 $-1 $345 $90 #
coedge $-1 $229 $229 $230 $346 reversed $142 $-1 #
coedge $-1 $230 $230 $229 $346 forward $144 $-1 #
coedge $-1 $231 $231 $145 $232 forward $226 $-1 #
edge $-1 $347 -1.1418201807825422e-015 $347 6.2831853071795996 $231 $348 forward 7 unknown #
loop $-1 $-1 $238 $146 #
plane-surface $-1 35.281431516072999 -43.893603257173169 4.8804821798254636 0 -0.64278761758704617 0.76604443648966558 1 0 0 forward_v I I I I #
loop $-1 $-1 $349 $93 #
coedge $-1 $236 $236 $237 $350 reversed $147 $-1 #
coedge $-1 $237 $237 $236 $350 forward $149 $-1 #
coedge $-1 $238 $238 $150 $239 forward $233 $-1 #
edge $-1 $351 -1.1418201807825422e-015 $351 6.2831853071795996 $238 $352 forward 7 unknown #
face $-1 $353 $354 $36 $-1 $355 reversed single #
loop $-1 $-1 $356 $151 #
plane-surface $-1 -79.588610492263555 0 0 1 0 0 0 0 -1 forward_v I I I I #
coedge $-1 $357 $251 $358 $359 forward $152 $-1 #
coedge $-1 $360 $154 $357 $361 forward $97 $-1 #
coedge $-1 $154 $360 $362 $363 forward $97 $-1 #
coedge $-1 $254 $253 $154 $247 reversed $255 $-1 #
edge $-1 $364 -43.893603257173162 $365 43.893603257173162 $246 $366 forward 7 unknown #
coedge $-1 $156 $155 $367 $368 forward $61 $-1 #
coedge $-1 $369 $370 $155 $250 reversed $354 $-1 #
edge $-1 $257 -79.588610492263555 $371 79.588610492263555 $249 $372 forward 7 unknown #
coedge $-1 $243 $373 $156 $252 reversed $152 $-1 #
edge $-1 $374 -79.588610492263555 $256 79.588610492263555 $251 $375 forward 7 unknown #
coedge $-1 $246 $157 $373 $376 forward $255 $-1 #
coedge $-1 $157 $246 $369 $377 reversed $255 $-1 #
loop $-1 $-1 $253 $353 #
vertex $-1 $158 $378 #
vertex $-1 $158 $379 #
straight-curve $-1 79.588610492263555 0 10.733015453884962 0 1 0 I I #
face $-1 $380 $381 $37 $-1 $382 forward single #
loop $-1 $-1 $383 $159 #
plane-surface $-1 0 0 -10.733015453884962 0 0 1 1 0 0 forward_v I I I I #
coedge $-1 $384 $385 $267 $386 forward $160 $-1 #
coedge $-1 $387 $162 $383 $388 reversed $101 $-1 #
coedge $-1 $162 $387 $389 $390 reversed $101 $-1 #
coedge $-1 $385 $384 $162 $266 reversed $160 $-1 #
edge $-1 $391 -10.733015453884962 $392 10.733015453884962 $265 $393 forward 7 unknown #
coedge $-1 $164 $163 $262 $386 reversed $64 $-1 #
coedge $-1 $394 $395 $163 $269 forward $260 $-1 #
edge $-1 $396 30.992371102629129 $275 42.728283293965994 $268 $397 forward 7 unknown #
coedge $-1 $398 $399 $164 $271 forward $381 $-1 #
edge $-1 $276 -42.728283293965994 $400 -30.992371102629129 $270 $401 forward 7 unknown #
coedge $-1 $402 $165 $399 $403 reversed $274 $-1 #
coedge $-1 $165 $402 $394 $404 reversed $274 $-1 #
loop $-1 $-1 $402 $380 #
vertex $-1 $404 $405 #
vertex $-1 $166 $406 #
straight-curve $-1 -79.588610492263555 -25.427572349403238 0 0 0 1 I I #
face $-1 $-1 $290 $38 $-1 $407 forward single #
loop $-1 $-1 $408 $167 #
plane-surface $-1 0 43.893603257173162 0 0 -1 0 0 0 -1 forward_v I I I I #
coedge $-1 $409 $410 $411 $412 reversed $168 $-1 #
coedge $-1 $413 $170 $172 $288 forward $105 $-1 #
coedge $-1 $170 $413 $409 $414 forward $105 $-1 #
coedge $-1 $411 $173 $170 $285 forward $290 $-1 #
edge $-1 $292 -43.160048413190651 $415 -6.2252513622814014 $284 $416 forward 7 unknown #
coedge $-1 $417 $418 $171 $287 forward $279 $-1 #
edge $-1 $419 -86.501310290278482 $291 -80.491836946123016 $286 $420 forward 7 unknown #
edge $-1 $292 78.627248331433421 $419 87.787206514346366 $172 $421 forward 7 unknown #
coedge $-1 $173 $411 $417 $422 forward $290 $-1 #
loop $-1 $-1 $411 $278 #
vertex $-1 $287 $423 #
vertex $-1 $174 $424 #
straight-curve $-1 -67.852698300926676 41.034706197549269 10.73301545388496 0 -1 0 I I #
coedge $-1 $294 $294 $-1 $425 reversed $177 $-1 #
edge $-1 $426 0 $426 6.2831853071796004 $178 $427 forward 7 unknown #
vertex $-1 $181 $428 #
ellipse-curve $-1 -49.385299775472056 40.437049191394671 7.7282787818072283 0 0.6560590369687036 0.75470957328743171 1.5 0 0 1 I I #
face $-1 $-1 $429 $40 $-1 $430 reversed single #
loop $-1 $-1 $188 $182 #
plane-surface $-1 0 0 10.733015453884962 0 0 1 1 0 0 forward_v I I I I #
coedge $-1 $431 $432 $433 $434 reversed $183 $-1 #
coedge $-1 $435 $185 $187 $308 forward $114 $-1 #
coedge $-1 $185 $435 $431 $436 forward $114 $-1 #
coedge $-1 $433 $188 $185 $305 forward $299 $-1 #
edge $-1 $311 8.2281086776692582 $437 30.211114202852869 $304 $438 forward 7 unknown #
coedge $-1 $439 $440 $186 $307 forward $429 $-1 #
edge $-1 $441 -58.528171185628779 $310 -52.675637911569289 $306 $442 forward 7 unknown #
edge $-1 $311 -9.1049253500390428 $441 -9.439443728910611e-015 $187 $443 forward 7 unknown #
coedge $-1 $188 $433 $439 $444 forward $299 $-1 #
vertex $-1 $307 $445 #
vertex $-1 $189 $446 #
straight-curve $-1 -27.44772011793032 -73.10537495397206 10.73301545388496 0 1 0 I I #
coedge $-1 $313 $313 $-1 $447 reversed $192 $-1 #
edge $-1 $448 0 $448 6.2831853071796004 $193 $449 forward 7 unknown #
vertex $-1 $196 $450 #
ellipse-curve $-1 -45.034124538077201 -40.406214552647604 7.8067488168552117 0 -0.64278761758704617 0.76604443648966558 0.5 0 0 1 I I #
coedge $-1 $317 $317 $-1 $451 reversed $199 $-1 #
edge $-1 $452 0 $452 6.2831853071796004 $200 $453 forward 7 unknown #
vertex $-1 $203 $454 #
ellipse-curve $-1 -38.439222880522117 -40.406214552647604 7.8067488168552117 0 -0.64278761758704617 0.76604443648966558 0.5 0 0 1 I I #
coedge $-1 $321 $321 $-1 $455 reversed $206 $-1 #
edge $-1 $456 0 $456 6.2831853071796004 $207 $457 forward 7 unknown #
vertex $-1 $210 $458 #
ellipse-curve $-1 -31.844321222967032 -40.406214552647604 7.8067488168552117 0 -0.64278761758704617 0.76604443648966558 0.5 0 0 1 I I #
face $-1 $-1 $337 $44 $-1 $459 forward single #
loop $-1 $-1 $460 $211 #
plane-surface $-1 0 -43.893603257173162 0 0 1 0 0 0 1 forward_v I I I I #
coedge $-1 $461 $462 $463 $464 reversed $212 $-1 #
coedge $-1 $465 $214 $216 $335 forward $133 $-1 #
coedge $-1 $214 $465 $461 $466 forward $133 $-1 #
coedge $-1 $463 $217 $214 $332 forward $337 $-1 #
edge $-1 $339 -28.632218520628307 $467 -6.6492129954446959 $331 $468 forward 7 unknown #
coedge $-1 $469 $470 $215 $334 forward $326 $-1 #
edge $-1 $471 -58.528171185628779 $338 -52.675637911569289 $333 $472 forward 7 unknown #
edge $-1 $339 -9.1049253500390428 $471 -9.439443728910611e-015 $216 $473 forward 7 unknown #
coedge $-1 $217 $463 $469 $474 forward $337 $-1 #
loop $-1 $-1 $463 $325 #
vertex $-1 $334 $475 #
vertex $-1 $218 $476 #
straight-curve $-1 46.272934278664806 -73.10537495397206 10.73301545388496 0 1 0 I I #
coedge $-1 $341 $341 $-1 $477 reversed $221 $-1 #
edge $-1 $478 0 $478 6.2831853071796004 $222 $479 forward 7 unknown #
vertex $-1 $225 $480 #
ellipse-curve $-1 28.686529858517915 -40.406214552647604 7.8067488168552117 0 -0.64278761758704617 0.76604443648966558 0.5 0 0 1 I I #
coedge $-1 $345 $345 $-1 $481 reversed $228 $-1 #
edge $-1 $482 0 $482 6.2831853071796004 $229 $483 forward 7 unknown #
vertex $-1 $232 $484 #
ellipse-curve $-1 35.281431516072999 -40.406214552647604 7.8067488168552117 0 -0.64278761758704617 0.76604443648966558 0.5 0 0 1 I I #
coedge $-1 $349 $349 $-1 $485 reversed $235 $-1 #
edge $-1 $486 0 $486 6.2831853071796004 $236 $487 forward 7 unknown #
vertex $-1 $239 $488 #
ellipse-curve $-1 41.876333173628083 -40.406214552647604 7.8067488168552117 0 -0.64278761758704617 0.76604443648966558 0.5 0 0 1 I I #
face $-1 $-1 $255 $36 $-1 $489 reversed single #
loop $-1 $-1 $369 $240 #
plane-surface $-1 0 43.893603257173162 0 0 -1 0 0 0 -1 forward_v I I I I #
coedge $-1 $490 $367 $370 $491 forward $241 $-1 #
coedge $-1 $373 $243 $244 $361 reversed $152 $-1 #
coedge $-1 $367 $490 $243 $359 reversed $241 $-1 #
edge $-1 $374 -10.733015453884962 $492 10.733015453884962 $358 $493 forward 7 unknown #
coedge $-1 $245 $244 $490 $494 forward $97 $-1 #
edge $-1 $365 -79.588610492263555 $492 79.588610492263555 $357 $495 forward 7 unknown #
coedge $-1 $370 $369 $245 $363 reversed $354 $-1 #
edge $-1 $496 -79.588610492263555 $364 79.588610492263555 $362 $497 forward 7 unknown #
vertex $-1 $247 $498 #
vertex $-1 $376 $499 #
straight-curve $-1 79.588610492263555 0 -10.733015453884962 0 -1 0 I I #
coedge $-1 $356 $358 $248 $368 reversed $241 $-1 #
edge $-1 $371 -43.893603257173162 $374 43.893603257173162 $367 $500 forward 7 unknown #
coedge $-1 $362 $249 $254 $377 forward $354 $-1 #
coedge $-1 $249 $362 $356 $491 reversed $354 $-1 #
vertex $-1 $250 $501 #
straight-curve $-1 0 43.893603257173162 10.733015453884962 -1 0 0 I I #
coedge $-1 $251 $357 $253 $376 reversed $152 $-1 #
vertex $-1 $368 $502 #
straight-curve $-1 0 -43.893603257173162 10.733015453884962 1 0 0 I I #
edge $-1 $256 -10.733015453884962 $365 10.733015453884962 $253 $503 forward 7 unknown #
edge $-1 $257 -10.733015453884962 $364 10.733015453884962 $254 $504 forward 7 unknown #
point $-1 79.588610492263555 -43.893603257173162 10.733015453884962 #
point $-1 79.588610492263555 43.893603257173162 10.733015453884962 #
face $-1 $-1 $274 $37 $-1 $505 reversed single #
loop $-1 $-1 $389 $259 #
plane-surface $-1 0 0 10.733015453884962 0 0 1 1 0 0 forward_v I I I I #
coedge $-1 $395 $394 $263 $388 forward $260 $-1 #
coedge $-1 $265 $262 $395 $506 reversed $160 $-1 #
coedge $-1 $262 $265 $398 $507 reversed $160 $-1 #
edge $-1 $400 -10.733015453884962 $396 10.733015453884962 $262 $508 forward 7 unknown #
coedge $-1 $264 $263 $402 $509 reversed $101 $-1 #
edge $-1 $510 -42.728283293965994 $392 -30.992371102629129 $383 $511 forward 7 unknown #
coedge $-1 $399 $398 $264 $390 forward $381 $-1 #
edge $-1 $391 30.992371102629129 $512 42.728283293965994 $389 $513 forward 7 unknown #
vertex $-1 $390 $514 #
vertex $-1 $388 $515 #
straight-curve $-1 -67.85269830092669 -22.427572349403238 0 0 0 -1 I I #
coedge $-1 $383 $268 $273 $404 forward $260 $-1 #
coedge $-1 $268 $383 $384 $506 forward $260 $-1 #
vertex $-1 $269 $516 #
straight-curve $-1 -36.860327198297561 -25.427572349403238 -10.733015453884962 -1 0 0 I I #
coedge $-1 $389 $270 $385 $507 forward $381 $-1 #
coedge $-1 $270 $389 $272 $403 forward $381 $-1 #
vertex $-1 $271 $517 #
straight-curve $-1 -36.860327198297561 -25.427572349403238 10.733015453884962 1 0 0 I I #
coedge $-1 $273 $272 $387 $509 forward $274 $-1 #
edge $-1 $512 22.427572349403238 $276 25.427572349403238 $272 $518 forward 7 unknown #
edge $-1 $275 -25.427572349403238 $510 -22.427572349403238 $273 $519 forward 7 unknown #
point $-1 -79.588610492263555 -25.427572349403238 -10.733015453884962 #
point $-1 -79.588610492263555 -25.427572349403238 10.733015453884962 #
plane-surface $-1 0 0 10.733015453884962 0 0 1 1 0 0 forward_v I I I I #
coedge $-1 $418 $417 $410 $520 forward $279 $-1 #
coedge $-1 $410 $281 $283 $414 reversed $168 $-1 #
coedge $-1 $281 $409 $408 $520 reversed $168 $-1 #
coedge $-1 $289 $284 $281 $412 forward $290 $-1 #
edge $-1 $415 -4.0542110719330609 $521 2.8588970596238923 $411 $522 forward 7 unknown #
coedge $-1 $283 $282 $418 $523 reversed $105 $-1 #
edge $-1 $524 -87.787206514346366 $415 -78.627248331433421 $409 $525 forward 7 unknown #
vertex $-1 $285 $526 #
straight-curve $-1 -24.692649887736028 36.980495125616201 10.733015453884967 1 0 0 I I #
coedge $-1 $408 $286 $289 $422 reversed $279 $-1 #
coedge $-1 $286 $408 $413 $523 forward $279 $-1 #
vertex $-1 $287 $527 #
straight-curve $-1 -67.852698300926676 43.893603257173162 91.224852400007975 0 0 1 I I #
straight-curve $-1 -67.852698300926676 -22.360241911364838 62.317132273704274 0 0.75470957328743171 -0.6560590369687036 I I #
edge $-1 $521 30.91790125001743 $291 67.852698300926676 $417 $528 forward 7 unknown #
point $-1 -67.852698300926676 43.893603257173162 10.733015453884962 #
point $-1 -67.852698300926676 36.980495125616208 10.73301545388496 #
edge $-1 $529 1 $529 0 $294 $-1 forward 7 unknown #
vertex $-1 $295 $530 #
ellipse-curve $-1 -49.385299775472056 37.286536247147851 4.1040283015833312 0 0.6560590369687036 0.75470957328743171 1.5 0 0 1 I I #
point $-1 -47.885299775472056 40.437049191394699 7.728278781807254 #
loop $-1 $-1 $306 $298 #
plane-surface $-1 0 -43.893603257173162 0 0 1 0 0 0 1 forward_v I I I I #
coedge $-1 $432 $301 $303 $436 reversed $183 $-1 #
coedge $-1 $301 $431 $531 $532 reversed $183 $-1 #
coedge $-1 $309 $304 $301 $434 forward $299 $-1 #
edge $-1 $437 -36.18654910585002 $533 -29.211771696798898 $433 $534 forward 7 unknown #
coedge $-1 $303 $302 $440 $535 reversed $114 $-1 #
edge $-1 $536 9.439443728910611e-015 $437 9.1049253500390428 $431 $537 forward 7 unknown #
vertex $-1 $305 $538 #
straight-curve $-1 -19.219611440261062 -36.91882584812204 10.733015453884963 -1 0 0 I I #
coedge $-1 $531 $306 $309 $444 reversed $429 $-1 #
coedge $-1 $306 $531 $435 $535 forward $429 $-1 #
vertex $-1 $307 $539 #
straight-curve $-1 -27.44772011793032 -43.893603257173162 63.408653365454249 0 0 1 I I #
straight-curve $-1 -27.44772011793032 -43.893603257173169 4.8804821798254636 0 -0.76604443648966558 -0.64278761758704617 I I #
edge $-1 $533 -49.430725643113931 $310 -27.44772011793032 $439 $540 forward 7 unknown #
point $-1 -27.44772011793032 -43.893603257173162 10.733015453884962 #
point $-1 -27.44772011793032 -36.91882584812204 10.733015453884962 #
edge $-1 $541 1 $541 0 $313 $-1 forward 7 unknown #
vertex $-1 $314 $542 #
ellipse-curve $-1 -45.034124538077201 -39.380524273612096 6.5843787675281842 0 -0.64278761758704617 0.76604443648966558 0.5 0 0 1 I I #
point $-1 -44.534124538077201 -40.406214552647604 7.8067488168552108 #
edge $-1 $543 1 $543 0 $317 $-1 forward 7 unknown #
vertex $-1 $318 $544 #
ellipse-curve $-1 -38.439222880522117 -39.380524273612096 6.5843787675281842 0 -0.64278761758704617 0.76604443648966558 0.5 0 0 1 I I #
point $-1 -37.939222880522117 -40.406214552647604 7.8067488168552108 #
edge $-1 $545 1 $545 0 $321 $-1 forward 7 unknown #
vertex $-1 $322 $546 #
ellipse-curve $-1 -31.844321222967032 -39.380524273612096 6.5843787675281842 0 -0.64278761758704617 0.76604443648966558 0.5 0 0 1 I I #
point $-1 -31.344321222967032 -40.406214552647604 7.8067488168552108 #
plane-surface $-1 0 0 10.733015453884962 0 0 1 1 0 0 forward_v I I I I #
coedge $-1 $470 $469 $462 $547 forward $326 $-1 #
coedge $-1 $462 $328 $330 $466 reversed $212 $-1 #
coedge $-1 $328 $461 $460 $547 reversed $212 $-1 #
coedge $-1 $336 $331 $328 $464 forward $337 $-1 #
edge $-1 $467 -36.18654910585002 $548 -29.211771696798898 $463 $549 forward 7 unknown #
coedge $-1 $330 $329 $470 $550 reversed $133 $-1 #
edge $-1 $551 9.439443728910611e-015 $467 9.1049253500390428 $461 $552 forward 7 unknown #
vertex $-1 $332 $553 #
straight-curve $-1 17.640715758036499 -36.91882584812204 10.733015453884963 -1 0 0 I I #
coedge $-1 $460 $333 $336 $474 reversed $326 $-1 #
coedge $-1 $333 $460 $465 $550 forward $326 $-1 #
vertex $-1 $334 $554 #
straight-curve $-1 46.272934278664806 -43.893603257173162 63.408653365454249 0 0 1 I I #
straight-curve $-1 46.272934278664806 -43.893603257173169 4.8804821798254636 0 -0.76604443648966558 -0.64278761758704617 I I #
edge $-1 $548 24.289928753481195 $338 46.272934278664806 $469 $555 forward 7 unknown #
point $-1 46.272934278664806 -43.893603257173162 10.733015453884962 #
point $-1 46.272934278664806 -36.91882584812204 10.733015453884962 #
edge $-1 $556 1 $556 0 $341 $-1 forward 7 unknown #
vertex $-1 $342 $557 #
ellipse-curve $-1 28.686529858517915 -39.380524273612096 6.5843787675281842 0 -0.64278761758704617 0.76604443648966558 0.5 0 0 1 I I #
point $-1 29.186529858517915 -40.406214552647604 7.8067488168552108 #
edge $-1 $558 1 $558 0 $345 $-1 forward 7 unknown #
vertex $-1 $346 $559 #
ellipse-curve $-1 35.281431516072999 -39.380524273612096 6.5843787675281842 0 -0.64278761758704617 0.76604443648966558 0.5 0 0 1 I I #
point $-1 35.781431516072999 -40.406214552647604 7.8067488168552108 #
edge $-1 $560 1 $560 0 $349 $-1 forward 7 unknown #
vertex $-1 $350 $561 #
ellipse-curve $-1 41.876333173628083 -39.380524273612096 6.5843787675281842 0 -0.64278761758704617 0.76604443648966558 0.5 0 0 1 I I #
point $-1 42.376333173628083 -40.406214552647604 7.8067488168552108 #
plane-surface $-1 79.588610492263555 0 0 -1 0 0 0 0 1 forward_v I I I I #
coedge $-1 $358 $356 $360 $494 reversed $241 $-1 #
edge $-1 $371 -10.733015453884962 $496 10.733015453884962 $370 $562 forward 7 unknown #
vertex $-1 $494 $563 #
straight-curve $-1 -79.588610492263555 -43.893603257173162 0 0 0 -1 I I #
edge $-1 $492 -43.893603257173162 $496 43.893603257173162 $490 $564 forward 7 unknown #
straight-curve $-1 0 -43.893603257173162 -10.733015453884962 -1 0 0 I I #
vertex $-1 $363 $565 #
straight-curve $-1 0 43.893603257173162 -10.733015453884962 1 0 0 I I #
point $-1 79.588610492263555 43.893603257173162 -10.733015453884962 #
point $-1 79.588610492263555 -43.893603257173162 -10.733015453884962 #
straight-curve $-1 -79.588610492263555 0 10.733015453884962 0 -1 0 I I #
point $-1 -79.588610492263555 43.893603257173162 10.733015453884962 #
point $-1 -79.588610492263555 -43.893603257173162 10.733015453884962 #
straight-curve $-1 79.588610492263555 -43.893603257173162 0 0 0 -1 I I #
straight-curve $-1 79.588610492263555 43.893603257173162 0 0 0 -1 I I #
plane-surface $-1 -79.588610492263555 0 0 1 0 0 0 0 -1 forward_v I I I I #
edge $-1 $392 10.463786174701619 $396 13.463786174701619 $395 $566 forward 7 unknown #
edge $-1 $400 -13.463786174701619 $391 -10.463786174701619 $398 $567 forward 7 unknown #
straight-curve $-1 -67.85269830092669 -25.427572349403238 0 0 0 -1 I I #
edge $-1 $512 -10.733015453884962 $510 10.733015453884962 $402 $568 forward 7 unknown #
vertex $-1 $509 $569 #
straight-curve $-1 -36.860327198297561 -22.427572349403238 -10.733015453884962 1 0 0 I I #
vertex $-1 $403 $570 #
straight-curve $-1 -36.860327198297561 -22.427572349403238 10.733015453884962 -1 0 0 I I #
point $-1 -67.85269830092669 -22.427572349403238 10.733015453884962 #
point $-1 -67.85269830092669 -22.427572349403238 -10.733015453884962 #
point $-1 -67.85269830092669 -25.427572349403238 -10.733015453884962 #
point $-1 -67.85269830092669 -25.427572349403238 10.733015453884962 #
straight-curve $-1 -79.588610492263555 0 10.733015453884962 0 -1 0 I I #
straight-curve $-1 -79.588610492263555 0 -10.733015453884962 0 1 0 I I #
edge $-1 $521 80.491836946123016 $524 86.501310290278482 $408 $571 forward 7 unknown #
vertex $-1 $422 $572 #
straight-curve $-1 -30.91790125001743 41.034706197549269 10.73301545388496 0 1 0 I I #
edge $-1 $524 6.2252513622814014 $419 43.160048413190651 $418 $573 forward 7 unknown #
vertex $-1 $523 $574 #
straight-curve $-1 -30.91790125001743 -22.360241911364838 62.317132273704274 0 -0.75470957328743171 0.6560590369687036 I I #
point $-1 -30.91790125001743 36.980495125616208 10.73301545388496 #
point $-1 -67.852698300926676 43.893603257173154 4.7235421097294932 #
straight-curve $-1 0 43.893603257173162 10.733015453884962 -1 0 0 I I #
vertex $-1 $425 $575 #
point $-1 -47.885299775472056 37.286536247147851 4.1040283015833312 #
coedge $-1 $440 $439 $432 $532 forward $429 $-1 #
edge $-1 $533 52.675637911569289 $536 58.528171185628779 $531 $576 forward 7 unknown #
vertex $-1 $444 $577 #
straight-curve $-1 -49.430725643113931 -73.10537495397206 10.73301545388496 0 -1 0 I I #
edge $-1 $536 -30.211114202852869 $441 -8.2281086776692582 $440 $578 forward 7 unknown #
vertex $-1 $535 $579 #
straight-curve $-1 -49.430725643113931 -43.893603257173169 4.8804821798254636 0 0.76604443648966558 0.64278761758704617 I I #
point $-1 -49.430725643113931 -36.91882584812204 10.733015453884962 #
point $-1 -27.44772011793032 -43.893603257173162 4.8804821798254698 #
straight-curve $-1 0 -43.893603257173162 10.733015453884962 1 0 0 I I #
vertex $-1 $447 $580 #
point $-1 -44.534124538077201 -39.380524273612096 6.5843787675281842 #
vertex $-1 $451 $581 #
point $-1 -37.939222880522117 -39.380524273612096 6.5843787675281842 #
vertex $-1 $455 $582 #
point $-1 -31.344321222967032 -39.380524273612096 6.5843787675281842 #
edge $-1 $548 52.675637911569289 $551 58.528171185628779 $460 $583 forward 7 unknown #
vertex $-1 $474 $584 #
straight-curve $-1 24.289928753481195 -73.10537495397206 10.73301545388496 0 -1 0 I I #
edge $-1 $551 6.6492129954446959 $471 28.632218520628307 $470 $585 forward 7 unknown #
vertex $-1 $550 $586 #
straight-curve $-1 24.289928753481195 -43.893603257173169 4.8804821798254636 0 0.76604443648966558 0.64278761758704617 I I #
point $-1 24.289928753481195 -36.91882584812204 10.733015453884962 #
point $-1 46.272934278664806 -43.893603257173162 4.8804821798254698 #
straight-curve $-1 0 -43.893603257173162 10.733015453884962 1 0 0 I I #
vertex $-1 $477 $587 #
point $-1 29.186529858517915 -39.380524273612096 6.5843787675281842 #
vertex $-1 $481 $588 #
point $-1 35.781431516072999 -39.380524273612096 6.5843787675281842 #
vertex $-1 $485 $589 #
point $-1 42.376333173628083 -39.380524273612096 6.5843787675281842 #
straight-curve $-1 -79.588610492263555 43.893603257173162 0 0 0 -1 I I #
point $-1 -79.588610492263555 -43.893603257173162 -10.733015453884962 #
straight-curve $-1 -79.588610492263555 0 -10.733015453884962 0 1 0 I I #
point $-1 -79.588610492263555 43.893603257173162 -10.733015453884962 #
straight-curve $-1 -67.85269830092669 -11.963786174701619 -10.733015453884962 0 -1 0 I I #
straight-curve $-1 -67.85269830092669 -11.963786174701619 10.733015453884962 0 1 0 I I #
straight-curve $-1 -79.588610492263555 -22.427572349403238 0 0 0 -1 I I #
point $-1 -79.588610492263555 -22.427572349403238 -10.733015453884962 #
point $-1 -79.588610492263555 -22.427572349403238 10.733015453884962 #
straight-curve $-1 -30.91790125001743 43.893603257173162 91.224852400007975 0 0 -1 I I #
point $-1 -30.91790125001743 43.893603257173162 10.733015453884962 #
straight-curve $-1 -24.692649887736028 43.893603257173162 4.7235421097294861 -1 0 0 I I #
point $-1 -30.91790125001743 43.893603257173154 4.7235421097294932 #
point $-1 -49.385299775472056 36.302447691694795 2.9719639416521835 #
straight-curve $-1 -49.430725643113931 -43.893603257173162 63.408653365454249 0 0 -1 I I #
point $-1 -49.430725643113931 -43.893603257173162 10.733015453884962 #
straight-curve $-1 -19.219611440261062 -43.893603257173162 4.8804821798254725 1 0 0 I I #
point $-1 -49.430725643113931 -43.893603257173162 4.8804821798254698 #
point $-1 -45.034124538077201 -39.05913046481858 6.2013565492833518 #
point $-1 -38.439222880522117 -39.05913046481858 6.2013565492833518 #
point $-1 -31.844321222967032 -39.05913046481858 6.2013565492833518 #
straight-curve $-1 24.289928753481195 -43.893603257173162 63.408653365454249 0 0 -1 I I #
point $-1 24.289928753481195 -43.893603257173162 10.733015453884962 #
straight-curve $-1 17.640715758036499 -43.893603257173162 4.8804821798254725 1 0 0 I I #
point $-1 24.289928753481195 -43.893603257173162 4.8804821798254698 #
point $-1 28.686529858517915 -39.05913046481858 6.2013565492833518 #
point $-1 35.281431516072999 -39.05913046481858 6.2013565492833518 #
point $-1 41.876333173628083 -39.05913046481858 6.2013565492833518 #
End-of-ACIS-data 