500 0 7 0           
7 Unknown 11 ACIS 5.0 NT 24 Thu Mar 25 23:53:25 1999 
-1 9.9999999999999995e-007 1e-010 
body $-1 $7 $-1 $8 #
body $-1 $9 $-1 $10 #
body $-1 $11 $-1 $12 #
body $-1 $13 $-1 $14 #
body $-1 $15 $-1 $16 #
body $-1 $17 $-1 $18 #
body $-1 $19 $-1 $20 #
lump $-1 $-1 $21 $0 #
transform $-1 1 0 0 0 1 0 0 0 1 73.144322031311987 37.553014163657295 7.9053065919393086 1 rotate no_reflect no_shear #
lump $-1 $-1 $22 $1 #
transform $-1 1 0 0 0 1 0 0 0 1 73.144322031311987 37.553014163657295 7.9053065919393086 1 rotate no_reflect no_shear #
lump $-1 $-1 $23 $2 #
transform $-1 1 0 0 0 1 0 0 0 1 73.144322031311987 37.553014163657295 7.9053065919393086 1 rotate no_reflect no_shear #
lump $-1 $-1 $24 $3 #
transform $-1 1 0 0 0 1 0 0 0 1 73.144322031311987 37.553014163657295 7.9053065919393086 1 rotate no_reflect no_shear #
lump $-1 $-1 $25 $4 #
transform $-1 1 0 0 0 1 0 0 0 1 73.144322031311987 37.553014163657295 7.9053065919393086 1 rotate no_reflect no_shear #
lump $-1 $-1 $26 $5 #
transform $-1 1 0 0 0 1 0 0 0 1 73.144322031311987 37.553014163657295 7.9053065919393086 1 rotate no_reflect no_shear #
lump $-1 $-1 $27 $6 #
transform $-1 1 0 0 0 1 0 0 0 1 73.144322031311987 37.553014163657295 7.9053065919393086 1 rotate no_reflect no_shear #
shell $-1 $-1 $-1 $28 $-1 $7 #
shell $-1 $-1 $-1 $29 $-1 $9 #
shell $-1 $-1 $-1 $30 $-1 $11 #
shell $-1 $-1 $-1 $31 $-1 $13 #
shell $-1 $-1 $-1 $32 $-1 $15 #
shell $-1 $-1 $-1 $33 $-1 $17 #
shell $-1 $-1 $-1 $34 $-1 $19 #
face $-1 $35 $36 $21 $-1 $37 forward single #
face $-1 $38 $39 $22 $-1 $40 forward single #
face $-1 $41 $42 $23 $-1 $43 forward single #
face $-1 $44 $45 $24 $-1 $46 reversed single #
face $-1 $47 $48 $25 $-1 $49 forward single #
face $-1 $50 $51 $26 $-1 $52 forward single #
face $-1 $53 $54 $27 $-1 $55 forward single #
face $-1 $56 $57 $21 $-1 $58 reversed single #
loop $-1 $-1 $59 $28 #
plane-surface $-1 0 0 7.9053065919393086 0 0 1 1 0 0 forward_v I I I I #
face $-1 $60 $61 $22 $-1 $62 reversed single #
loop $-1 $-1 $63 $29 #
plane-surface $-1 -70.138052175028605 0 2.9521479926798828 0 0 1 1 0 0 forward_v I I I I #
face $-1 $64 $65 $23 $-1 $66 reversed single #
loop $-1 $-1 $67 $30 #
plane-surface $-1 70.138052175028605 0 2.9521479926798828 0 0 1 1 0 0 forward_v I I I I #
face $-1 $68 $69 $24 $-1 $70 reversed single #
loop $-1 $-1 $71 $31 #
plane-surface $-1 10.757138373906685 62.777269933023419 164.84849237767614 -1 0 0 0 0.5877852598018023 0.80901698891910034 forward_v I I I I #
face $-1 $72 $73 $25 $-1 $74 forward single #
loop $-1 $75 $76 $32 #
cone-surface $-1 -11.818251336519857 32.385270018873328 3.2759069441262811 0 -0.5877852598018023 -0.80901698891910034 2 0 0 1 I I 0 1 2 forward I I I I #
face $-1 $77 $78 $26 $-1 $79 forward single #
loop $-1 $80 $81 $33 #
cone-surface $-1 -3.352480195109905 32.385270018873328 3.2759069441262811 0 -0.5877852598018023 -0.80901698891910034 2 0 0 1 I I 0 1 2 forward I I I I #
face $-1 $82 $83 $27 $-1 $84 forward single #
loop $-1 $85 $86 $34 #
cone-surface $-1 5.1132909463000544 32.385270018873328 3.2759069441262811 0 -0.5877852598018023 -0.80901698891910034 2 0 0 1 I I 0 1 2 forward I I I I #
face $-1 $87 $88 $21 $-1 $89 reversed single #
loop $-1 $-1 $90 $35 #
plane-surface $-1 0 0 -7.9053065919393086 0 0 1 1 0 0 forward_v I I I I #
coedge $-1 $91 $92 $93 $94 forward $36 $-1 #
face $-1 $95 $96 $22 $-1 $97 reversed single #
loop $-1 $-1 $98 $38 #
plane-surface $-1 -70.138052175028605 0 -1.1704234353342939 0 0 1 1 0 0 forward_v I I I I #
coedge $-1 $99 $100 $101 $102 forward $39 $-1 #
face $-1 $103 $104 $23 $-1 $105 reversed single #
loop $-1 $-1 $106 $41 #
plane-surface $-1 70.138052175028605 0 -1.1704234353342939 0 0 1 1 0 0 forward_v I I I I #
coedge $-1 $107 $108 $109 $110 reversed $42 $-1 #
face $-1 $111 $112 $24 $-1 $113 reversed single #
loop $-1 $-1 $114 $44 #
plane-surface $-1 -3.352480195109905 -23.209038723379393 46.498494045074068 0 0.5877852598018023 0.80901698891910034 1 0 0 forward_v I I I I #
coedge $-1 $115 $116 $117 $118 reversed $45 $-1 #
face $-1 $-1 $119 $25 $-1 $120 forward single #
loop $-1 $121 $122 $47 #
cone-surface $-1 -11.818251336519857 30.451284844307096 0.61400476735285192 0 -0.5877852598018023 -0.80901698891910034 1 0 0 1 I I -0.70710678118654746 0.70710678118654746 1 forward I I I I #
loop $-1 $-1 $123 $32 #
coedge $-1 $76 $76 $124 $125 reversed $48 $-1 #
face $-1 $-1 $126 $26 $-1 $127 forward single #
loop $-1 $128 $129 $50 #
cone-surface $-1 -3.352480195109905 30.451284844307096 0.61400476735285192 0 -0.5877852598018023 -0.80901698891910034 1 0 0 1 I I -0.70710678118654746 0.70710678118654746 1 forward I I I I #
loop $-1 $-1 $130 $33 #
coedge $-1 $81 $81 $131 $132 reversed $51 $-1 #
face $-1 $-1 $133 $27 $-1 $134 forward single #
loop $-1 $135 $136 $53 #
cone-surface $-1 5.1132909463000544 30.451284844307096 0.61400476735285192 0 -0.5877852598018023 -0.80901698891910034 1 0 0 1 I I -0.70710678118654746 0.70710678118654746 1 forward I I I I #
loop $-1 $-1 $137 $34 #
coedge $-1 $86 $86 $138 $139 reversed $54 $-1 #
face $-1 $140 $141 $21 $-1 $142 reversed single #
loop $-1 $-1 $143 $56 #
plane-surface $-1 0 -37.553014163657295 0 0 1 0 0 0 1 forward_v I I I I #
coedge $-1 $144 $145 $146 $147 forward $57 $-1 #
coedge $-1 $148 $59 $149 $150 forward $36 $-1 #
coedge $-1 $59 $148 $151 $152 forward $36 $-1 #
coedge $-1 $153 $154 $59 $94 reversed $155 $-1 #
edge $-1 $156 -37.553014163657295 $157 37.553014163657295 $93 $158 forward 7 unknown #
face $-1 $159 $160 $22 $-1 $161 reversed single #
loop $-1 $-1 $162 $60 #
plane-surface $-1 -67.131782318745223 0 0.89086227867279444 -1 0 0 0 0 1 forward_v I I I I #
coedge $-1 $163 $164 $165 $166 forward $61 $-1 #
coedge $-1 $167 $63 $168 $169 reversed $39 $-1 #
coedge $-1 $63 $167 $170 $171 reversed $39 $-1 #
coedge $-1 $162 $172 $63 $102 reversed $96 $-1 #
edge $-1 $173 -37.553014163657295 $174 37.553014163657295 $101 $175 forward 7 unknown #
face $-1 $176 $177 $23 $-1 $178 reversed single #
loop $-1 $-1 $179 $64 #
plane-surface $-1 67.131782318745223 0 0.89086227867279444 1 0 0 0 0 -1 forward_v I I I I #
coedge $-1 $180 $181 $182 $183 reversed $65 $-1 #
coedge $-1 $184 $67 $185 $186 reversed $42 $-1 #
coedge $-1 $67 $184 $187 $188 reversed $42 $-1 #
coedge $-1 $189 $190 $67 $110 forward $191 $-1 #
edge $-1 $192 -37.553014163657295 $193 37.553014163657295 $109 $194 forward 7 unknown #
face $-1 $195 $196 $24 $-1 $197 reversed single #
loop $-1 $-1 $198 $68 #
plane-surface $-1 -17.462098764126495 62.777269933023419 164.84849237767614 1 0 0 0 -0.5877852598018023 -0.80901698891910034 forward_v I I I I #
coedge $-1 $199 $200 $201 $202 reversed $69 $-1 #
coedge $-1 $116 $71 $203 $204 reversed $45 $-1 #
coedge $-1 $71 $115 $199 $205 reversed $45 $-1 #
coedge $-1 $201 $206 $71 $118 forward $196 $-1 #
edge $-1 $207 74.518939596898761 $208 80.071968516816128 $117 $209 forward 7 unknown #
loop $-1 $-1 $124 $72 #
plane-surface $-1 -3.352480195109905 -23.209038723379393 46.498494045074068 0 0.5877852598018023 0.80901698891910034 1 0 0 forward_v I I I I #
loop $-1 $-1 $210 $47 #
coedge $-1 $122 $122 $123 $211 reversed $73 $-1 #
coedge $-1 $123 $123 $122 $211 forward $75 $-1 #
coedge $-1 $124 $124 $76 $125 forward $119 $-1 #
edge $-1 $212 -2.6160623467870083e-015 $212 6.2831853071795978 $124 $213 forward 7 unknown #
loop $-1 $-1 $131 $77 #
plane-surface $-1 -3.352480195109905 -23.209038723379393 46.498494045074068 0 0.5877852598018023 0.80901698891910034 1 0 0 forward_v I I I I #
loop $-1 $-1 $214 $50 #
coedge $-1 $129 $129 $130 $215 reversed $78 $-1 #
coedge $-1 $130 $130 $129 $215 forward $80 $-1 #
coedge $-1 $131 $131 $81 $132 forward $126 $-1 #
edge $-1 $216 -2.6160623467870083e-015 $216 6.2831853071795978 $131 $217 forward 7 unknown #
loop $-1 $-1 $138 $82 #
plane-surface $-1 -3.352480195109905 -23.209038723379393 46.498494045074068 0 0.5877852598018023 0.80901698891910034 1 0 0 forward_v I I I I #
loop $-1 $-1 $218 $53 #
coedge $-1 $136 $136 $137 $219 reversed $83 $-1 #
coedge $-1 $137 $137 $136 $219 forward $85 $-1 #
coedge $-1 $138 $138 $86 $139 forward $133 $-1 #
edge $-1 $220 -2.6160623467870083e-015 $220 6.2831853071795978 $138 $221 forward 7 unknown #
face $-1 $222 $223 $21 $-1 $224 reversed single #
loop $-1 $-1 $225 $87 #
plane-surface $-1 -73.144322031311987 0 0 1 0 0 0 0 -1 forward_v I I I I #
coedge $-1 $226 $151 $227 $228 forward $88 $-1 #
coedge $-1 $229 $90 $226 $230 forward $57 $-1 #
coedge $-1 $90 $229 $231 $232 forward $57 $-1 #
coedge $-1 $154 $153 $90 $147 reversed $155 $-1 #
edge $-1 $233 -37.553014163657295 $234 37.553014163657295 $146 $235 forward 7 unknown #
coedge $-1 $92 $91 $236 $237 forward $36 $-1 #
coedge $-1 $238 $239 $91 $150 reversed $223 $-1 #
edge $-1 $157 -73.144322031311987 $240 73.144322031311987 $149 $241 forward 7 unknown #
coedge $-1 $143 $242 $92 $152 reversed $88 $-1 #
edge $-1 $243 -73.144322031311987 $156 73.144322031311987 $151 $244 forward 7 unknown #
coedge $-1 $146 $93 $242 $245 forward $155 $-1 #
coedge $-1 $93 $146 $238 $246 reversed $155 $-1 #
loop $-1 $-1 $153 $222 #
vertex $-1 $94 $247 #
vertex $-1 $94 $248 #
straight-curve $-1 73.144322031311987 0 7.9053065919393086 0 1 0 I I #
face $-1 $249 $250 $22 $-1 $251 reversed single #
loop $-1 $-1 $252 $95 #
plane-surface $-1 0 -37.553014163657295 0 0 1 0 0 0 1 forward_v I I I I #
coedge $-1 $165 $101 $253 $254 reversed $96 $-1 #
coedge $-1 $255 $98 $252 $256 reversed $61 $-1 #
coedge $-1 $98 $255 $257 $258 reversed $61 $-1 #
coedge $-1 $172 $162 $98 $166 reversed $96 $-1 #
edge $-1 $259 -37.553014163657295 $260 37.553014163657295 $165 $261 forward 7 unknown #
coedge $-1 $100 $99 $262 $263 reversed $39 $-1 #
coedge $-1 $264 $265 $99 $169 forward $266 $-1 #
edge $-1 $267 -38.075295943797684 $174 -32.062756231230921 $168 $268 forward 7 unknown #
coedge $-1 $269 $253 $100 $171 forward $160 $-1 #
edge $-1 $173 32.062756231230921 $270 38.075295943797684 $170 $271 forward 7 unknown #
coedge $-1 $101 $165 $264 $272 reversed $96 $-1 #
vertex $-1 $171 $273 #
vertex $-1 $169 $274 #
straight-curve $-1 -67.131782318745223 0 2.9521479926798828 0 1 0 I I #
face $-1 $275 $276 $23 $-1 $277 reversed single #
loop $-1 $-1 $187 $103 #
plane-surface $-1 0 -37.553014163657295 0 0 1 0 0 0 1 forward_v I I I I #
coedge $-1 $278 $279 $280 $281 reversed $104 $-1 #
coedge $-1 $282 $106 $283 $284 reversed $65 $-1 #
coedge $-1 $106 $282 $285 $286 reversed $65 $-1 #
coedge $-1 $190 $189 $106 $183 forward $191 $-1 #
edge $-1 $287 -37.553014163657295 $288 37.553014163657295 $182 $289 forward 7 unknown #
coedge $-1 $108 $107 $279 $290 forward $42 $-1 #
coedge $-1 $291 $280 $107 $186 forward $276 $-1 #
edge $-1 $292 32.062756231230921 $192 38.075295943797684 $185 $293 forward 7 unknown #
coedge $-1 $294 $295 $108 $188 forward $177 $-1 #
edge $-1 $193 -38.075295943797684 $296 -32.062756231230921 $187 $297 forward 7 unknown #
coedge $-1 $182 $109 $295 $298 forward $191 $-1 #
coedge $-1 $109 $182 $291 $299 reversed $191 $-1 #
loop $-1 $-1 $109 $275 #
vertex $-1 $299 $300 #
vertex $-1 $298 $301 #
straight-curve $-1 73.144322031311987 0 2.9521479926798828 0 -1 0 I I #
face $-1 $-1 $302 $24 $-1 $303 forward single #
loop $-1 $-1 $117 $111 #
plane-surface $-1 0 37.553014163657295 0 0 -1 0 0 0 -1 forward_v I I I I #
coedge $-1 $304 $305 $306 $307 reversed $112 $-1 #
coedge $-1 $308 $114 $116 $205 forward $69 $-1 #
coedge $-1 $114 $308 $304 $309 forward $69 $-1 #
coedge $-1 $306 $117 $114 $202 forward $196 $-1 #
edge $-1 $208 -12.433378471461637 $310 15.785858666571542 $201 $311 forward 7 unknown #
coedge $-1 $312 $313 $115 $204 forward $302 $-1 #
edge $-1 $314 -1.4787092628934957 $207 6.1643791971455855 $203 $315 forward 7 unknown #
edge $-1 $208 -75.106028327314576 $314 -65.658651368950885 $116 $316 forward 7 unknown #
coedge $-1 $117 $306 $312 $317 reversed $196 $-1 #
vertex $-1 $317 $318 #
vertex $-1 $118 $319 #
straight-curve $-1 10.757138373906685 37.553014163657295 82.424246188838069 0 0 -1 I I #
coedge $-1 $210 $210 $-1 $320 reversed $121 $-1 #
edge $-1 $321 0 $321 6.2831853071796004 $122 $322 forward 7 unknown #
vertex $-1 $125 $323 #
ellipse-curve $-1 -11.818251336519857 33.731469933637769 5.1287921319806209 0 0.5877852598018023 0.80901698891910034 2 0 0 1 I I #
coedge $-1 $214 $214 $-1 $324 reversed $128 $-1 #
edge $-1 $325 0 $325 6.2831853071796004 $129 $326 forward 7 unknown #
vertex $-1 $132 $327 #
ellipse-curve $-1 -3.352480195109905 33.731469933637769 5.1287921319806209 0 0.5877852598018023 0.80901698891910034 2 0 0 1 I I #
coedge $-1 $218 $218 $-1 $328 reversed $135 $-1 #
edge $-1 $329 0 $329 6.2831853071796004 $136 $330 forward 7 unknown #
vertex $-1 $139 $331 #
ellipse-curve $-1 5.1132909463000544 33.731469933637769 5.1287921319806209 0 0.5877852598018023 0.80901698891910034 2 0 0 1 I I #
face $-1 $-1 $155 $21 $-1 $332 reversed single #
loop $-1 $-1 $238 $140 #
plane-surface $-1 0 37.553014163657295 0 0 -1 0 0 0 -1 forward_v I I I I #
coedge $-1 $333 $236 $239 $334 forward $141 $-1 #
coedge $-1 $242 $143 $144 $230 reversed $88 $-1 #
coedge $-1 $236 $333 $143 $228 reversed $141 $-1 #
edge $-1 $243 -7.9053065919393086 $335 7.9053065919393086 $227 $336 forward 7 unknown #
coedge $-1 $145 $144 $333 $337 forward $57 $-1 #
edge $-1 $234 -73.144322031311987 $335 73.144322031311987 $226 $338 forward 7 unknown #
coedge $-1 $239 $238 $145 $232 reversed $223 $-1 #
edge $-1 $339 -73.144322031311987 $233 73.144322031311987 $231 $340 forward 7 unknown #
vertex $-1 $147 $341 #
vertex $-1 $245 $342 #
straight-curve $-1 73.144322031311987 0 -7.9053065919393086 0 -1 0 I I #
coedge $-1 $225 $227 $148 $237 reversed $141 $-1 #
edge $-1 $240 -37.553014163657295 $243 37.553014163657295 $236 $343 forward 7 unknown #
coedge $-1 $231 $149 $154 $246 forward $223 $-1 #
coedge $-1 $149 $231 $225 $334 reversed $223 $-1 #
vertex $-1 $150 $344 #
straight-curve $-1 0 37.553014163657295 7.9053065919393086 -1 0 0 I I #
coedge $-1 $151 $226 $153 $245 reversed $88 $-1 #
vertex $-1 $237 $345 #
straight-curve $-1 0 -37.553014163657295 7.9053065919393086 1 0 0 I I #
edge $-1 $156 -7.9053065919393086 $234 7.9053065919393086 $153 $346 forward 7 unknown #
edge $-1 $157 -7.9053065919393086 $233 7.9053065919393086 $154 $347 forward 7 unknown #
point $-1 73.144322031311987 -37.553014163657295 7.9053065919393086 #
point $-1 73.144322031311987 37.553014163657295 7.9053065919393086 #
face $-1 $-1 $266 $22 $-1 $348 reversed single #
loop $-1 $-1 $349 $159 #
plane-surface $-1 -73.144322031311987 0 0 1 0 0 0 0 -1 forward_v I I I I #
coedge $-1 $253 $269 $163 $256 forward $160 $-1 #
coedge $-1 $170 $252 $162 $254 forward $160 $-1 #
edge $-1 $260 -1.6158545746706912 $173 2.5067168533434856 $253 $350 forward 7 unknown #
coedge $-1 $164 $163 $349 $351 reversed $61 $-1 #
edge $-1 $352 -38.075295943797684 $260 -32.062756231230921 $252 $353 forward 7 unknown #
coedge $-1 $265 $264 $164 $258 forward $266 $-1 #
edge $-1 $259 32.062756231230921 $354 38.075295943797684 $257 $355 forward 7 unknown #
vertex $-1 $258 $356 #
vertex $-1 $256 $357 #
straight-curve $-1 -67.131782318745223 0 -1.1704234353342939 0 -1 0 I I #
coedge $-1 $358 $359 $167 $263 forward $250 $-1 #
edge $-1 $270 -37.553014163657295 $267 37.553014163657295 $262 $360 forward 7 unknown #
coedge $-1 $257 $168 $172 $272 forward $266 $-1 #
coedge $-1 $168 $257 $358 $361 reversed $266 $-1 #
loop $-1 $-1 $257 $249 #
vertex $-1 $361 $362 #
straight-curve $-1 -35.069026087514303 37.553014163657295 2.9521479926798828 1 0 0 I I #
coedge $-1 $252 $170 $359 $363 forward $160 $-1 #
vertex $-1 $363 $364 #
straight-curve $-1 -35.069026087514303 -37.553014163657295 2.9521479926798828 -1 0 0 I I #
edge $-1 $174 -2.5067168533434856 $259 1.6158545746706912 $264 $365 forward 7 unknown #
point $-1 -67.131782318745223 -37.553014163657295 2.9521479926798828 #
point $-1 -67.131782318745223 37.553014163657295 2.9521479926798828 #
face $-1 $-1 $191 $23 $-1 $366 reversed single #
loop $-1 $-1 $185 $176 #
plane-surface $-1 0 37.553014163657295 0 0 -1 0 0 0 -1 forward_v I I I I #
coedge $-1 $367 $179 $282 $368 reversed $104 $-1 #
coedge $-1 $179 $367 $184 $290 reversed $104 $-1 #
coedge $-1 $185 $285 $179 $281 forward $276 $-1 #
edge $-1 $369 -1.6158545746706912 $292 2.5067168533434856 $280 $370 forward 7 unknown #
coedge $-1 $181 $180 $278 $368 forward $65 $-1 #
coedge $-1 $295 $294 $180 $284 forward $177 $-1 #
edge $-1 $371 32.062756231230921 $287 38.075295943797684 $283 $372 forward 7 unknown #
coedge $-1 $280 $291 $181 $286 forward $276 $-1 #
edge $-1 $288 -38.075295943797684 $369 -32.062756231230921 $285 $373 forward 7 unknown #
vertex $-1 $183 $374 #
vertex $-1 $183 $375 #
straight-curve $-1 73.144322031311987 0 -1.1704234353342939 0 1 0 I I #
edge $-1 $292 -37.553014163657295 $296 37.553014163657295 $279 $376 forward 7 unknown #
coedge $-1 $285 $185 $190 $299 forward $276 $-1 #
vertex $-1 $186 $377 #
straight-curve $-1 35.069026087514303 37.553014163657295 2.9521479926798828 1 0 0 I I #
coedge $-1 $283 $187 $367 $378 forward $177 $-1 #
coedge $-1 $187 $283 $189 $298 reversed $177 $-1 #
vertex $-1 $188 $379 #
straight-curve $-1 35.069026087514303 -37.553014163657295 2.9521479926798828 -1 0 0 I I #
edge $-1 $193 -2.9521479926798828 $287 1.1704234353342939 $189 $380 forward 7 unknown #
edge $-1 $192 -2.9521479926798828 $288 1.1704234353342939 $190 $381 forward 7 unknown #
point $-1 73.144322031311987 37.553014163657295 2.9521479926798828 #
point $-1 73.144322031311987 -37.553014163657295 2.9521479926798828 #
loop $-1 $-1 $203 $195 #
plane-surface $-1 0 0 7.9053065919393086 0 0 1 1 0 0 forward_v I I I I #
coedge $-1 $305 $198 $200 $309 reversed $112 $-1 #
coedge $-1 $198 $304 $382 $383 reversed $112 $-1 #
coedge $-1 $206 $201 $198 $307 forward $196 $-1 #
edge $-1 $310 -80.071968516816128 $384 -74.518939596898761 $306 $385 forward 7 unknown #
coedge $-1 $200 $199 $313 $386 reversed $69 $-1 #
edge $-1 $387 65.658651368950885 $310 75.106028327314576 $304 $388 forward 7 unknown #
vertex $-1 $202 $389 #
straight-curve $-1 -1.6762400975549525 37.553014163657295 2.3522776720219518 -1 0 0 I I #
coedge $-1 $382 $203 $206 $317 forward $302 $-1 #
coedge $-1 $203 $382 $308 $386 forward $302 $-1 #
vertex $-1 $204 $390 #
straight-curve $-1 10.757138373906685 31.388634966511709 7.9053065919393077 0 1 0 I I #
straight-curve $-1 10.757138373906685 -23.209038723379393 46.498494045074068 0 -0.80901698891910034 0.5877852598018023 I I #
edge $-1 $207 -10.757138373906685 $384 17.462098764126495 $206 $391 forward 7 unknown #
point $-1 10.757138373906685 37.553014163657295 7.9053065919393086 #
point $-1 10.757138373906685 37.553014163657302 2.3522776720219483 #
edge $-1 $392 1 $392 0 $210 $-1 forward 7 unknown #
vertex $-1 $211 $393 #
ellipse-curve $-1 -11.818251336519857 31.039070104108898 1.4230217562719523 0 0.5877852598018023 0.80901698891910034 2 0 0 1 I I #
point $-1 -9.8182513365198574 33.731469933637754 5.1287921319806102 #
edge $-1 $394 1 $394 0 $214 $-1 forward 7 unknown #
vertex $-1 $215 $395 #
ellipse-curve $-1 -3.352480195109905 31.039070104108898 1.4230217562719523 0 0.5877852598018023 0.80901698891910034 2 0 0 1 I I #
point $-1 -1.352480195109905 33.731469933637754 5.1287921319806102 #
edge $-1 $396 1 $396 0 $218 $-1 forward 7 unknown #
vertex $-1 $219 $397 #
ellipse-curve $-1 5.1132909463000544 31.039070104108898 1.4230217562719523 0 0.5877852598018023 0.80901698891910034 2 0 0 1 I I #
point $-1 7.1132909463000544 33.731469933637754 5.1287921319806102 #
plane-surface $-1 73.144322031311987 0 0 -1 0 0 0 0 1 forward_v I I I I #
coedge $-1 $227 $225 $229 $337 reversed $141 $-1 #
edge $-1 $240 -7.9053065919393086 $339 7.9053065919393086 $239 $398 forward 7 unknown #
vertex $-1 $337 $399 #
straight-curve $-1 -73.144322031311987 -37.553014163657295 0 0 0 -1 I I #
edge $-1 $335 -37.553014163657295 $339 37.553014163657295 $333 $400 forward 7 unknown #
straight-curve $-1 0 -37.553014163657295 -7.9053065919393086 -1 0 0 I I #
vertex $-1 $232 $401 #
straight-curve $-1 0 37.553014163657295 -7.9053065919393086 1 0 0 I I #
point $-1 73.144322031311987 37.553014163657295 -7.9053065919393086 #
point $-1 73.144322031311987 -37.553014163657295 -7.9053065919393086 #
straight-curve $-1 -73.144322031311987 0 7.9053065919393086 0 -1 0 I I #
point $-1 -73.144322031311987 37.553014163657295 7.9053065919393086 #
point $-1 -73.144322031311987 -37.553014163657295 7.9053065919393086 #
straight-curve $-1 73.144322031311987 -37.553014163657295 0 0 0 -1 I I #
straight-curve $-1 73.144322031311987 37.553014163657295 0 0 0 -1 I I #
plane-surface $-1 0 37.553014163657295 0 0 -1 0 0 0 -1 forward_v I I I I #
coedge $-1 $359 $358 $255 $351 forward $250 $-1 #
straight-curve $-1 -67.131782318745223 -37.553014163657295 0.44543113933639722 0 0 1 I I #
edge $-1 $354 -37.553014163657295 $352 37.553014163657295 $349 $402 forward 7 unknown #
vertex $-1 $256 $403 #
straight-curve $-1 -35.069026087514303 -37.553014163657295 -1.1704234353342939 1 0 0 I I #
vertex $-1 $258 $404 #
straight-curve $-1 -35.069026087514303 37.553014163657295 -1.1704234353342939 -1 0 0 I I #
point $-1 -67.131782318745223 37.553014163657295 -1.1704234353342939 #
point $-1 -67.131782318745223 -37.553014163657295 -1.1704234353342939 #
coedge $-1 $349 $262 $265 $361 forward $250 $-1 #
coedge $-1 $262 $349 $269 $363 reversed $250 $-1 #
straight-curve $-1 -73.144322031311987 0 2.9521479926798828 0 1 0 I I #
edge $-1 $267 -2.9521479926798828 $354 1.1704234353342939 $265 $405 forward 7 unknown #
point $-1 -73.144322031311987 37.553014163657295 2.9521479926798828 #
edge $-1 $270 -2.9521479926798828 $352 1.1704234353342939 $359 $406 forward 7 unknown #
point $-1 -73.144322031311987 -37.553014163657295 2.9521479926798828 #
straight-curve $-1 -67.131782318745223 37.553014163657295 0.44543113933639722 0 0 -1 I I #
plane-surface $-1 73.144322031311987 0 0 -1 0 0 0 0 1 forward_v I I I I #
coedge $-1 $279 $278 $294 $378 reversed $104 $-1 #
edge $-1 $371 -37.553014163657295 $369 37.553014163657295 $278 $407 forward 7 unknown #
vertex $-1 $286 $408 #
straight-curve $-1 67.131782318745223 37.553014163657295 0.44543113933639722 0 0 1 I I #
vertex $-1 $284 $409 #
straight-curve $-1 35.069026087514303 -37.553014163657295 -1.1704234353342939 1 0 0 I I #
straight-curve $-1 35.069026087514303 37.553014163657295 -1.1704234353342939 -1 0 0 I I #
point $-1 73.144322031311987 -37.553014163657295 -1.1704234353342939 #
point $-1 73.144322031311987 37.553014163657295 -1.1704234353342939 #
straight-curve $-1 67.131782318745223 0 2.9521479926798828 0 -1 0 I I #
point $-1 67.131782318745223 37.553014163657295 2.9521479926798828 #
edge $-1 $296 -2.5067168533434856 $371 1.6158545746706912 $294 $410 forward 7 unknown #
point $-1 67.131782318745223 -37.553014163657295 2.9521479926798828 #
straight-curve $-1 73.144322031311987 -37.553014163657295 0 0 0 -1 I I #
straight-curve $-1 73.144322031311987 37.553014163657295 0 0 0 -1 I I #
coedge $-1 $313 $312 $305 $383 forward $302 $-1 #
edge $-1 $384 -6.1643791971455855 $387 1.4787092628934957 $382 $411 forward 7 unknown #
vertex $-1 $383 $412 #
straight-curve $-1 -17.462098764126495 37.553014163657295 82.424246188838069 0 0 1 I I #
edge $-1 $387 -15.785858666571542 $314 12.433378471461637 $313 $413 forward 7 unknown #
vertex $-1 $386 $414 #
straight-curve $-1 -17.462098764126495 -23.209038723379393 46.498494045074068 0 0.80901698891910034 -0.5877852598018023 I I #
point $-1 -17.462098764126495 37.553014163657302 2.3522776720219483 #
point $-1 10.757138373906685 29.909925703618214 7.9053065919393077 #
straight-curve $-1 0 37.553014163657295 7.9053065919393086 -1 0 0 I I #
vertex $-1 $320 $415 #
point $-1 -9.8182513365198574 31.039070104108898 1.4230217562719523 #
vertex $-1 $324 $416 #
point $-1 -1.352480195109905 31.039070104108898 1.4230217562719523 #
vertex $-1 $328 $417 #
point $-1 7.1132909463000544 31.039070104108898 1.4230217562719523 #
straight-curve $-1 -73.144322031311987 37.553014163657295 0 0 0 -1 I I #
point $-1 -73.144322031311987 -37.553014163657295 -7.9053065919393086 #
straight-curve $-1 -73.144322031311987 0 -7.9053065919393086 0 1 0 I I #
point $-1 -73.144322031311987 37.553014163657295 -7.9053065919393086 #
straight-curve $-1 -73.144322031311987 0 -1.1704234353342939 0 -1 0 I I #
point $-1 -73.144322031311987 -37.553014163657295 -1.1704234353342939 #
point $-1 -73.144322031311987 37.553014163657295 -1.1704234353342939 #
straight-curve $-1 -73.144322031311987 37.553014163657295 0 0 0 -1 I I #
straight-curve $-1 -73.144322031311987 -37.553014163657295 0 0 0 -1 I I #
straight-curve $-1 67.131782318745223 0 -1.1704234353342939 0 1 0 I I #
point $-1 67.131782318745223 37.553014163657295 -1.1704234353342939 #
point $-1 67.131782318745223 -37.553014163657295 -1.1704234353342939 #
straight-curve $-1 67.131782318745223 -37.553014163657295 0.44543113933639722 0 0 -1 I I #
straight-curve $-1 -17.462098764126495 31.388634966511709 7.9053065919393077 0 -1 0 I I #
point $-1 -17.462098764126495 37.553014163657295 7.9053065919393086 #
straight-curve $-1 -1.6762400975549525 29.909925703618214 7.9053065919393113 1 0 0 I I #
point $-1 -17.462098764126495 29.909925703618214 7.9053065919393077 #
point $-1 -11.818251336519857 29.863499584505295 -0.19501222156624842 #
point $-1 -3.352480195109905 29.863499584505295 -0.19501222156624842 #
point $-1 5.1132909463000544 29.863499584505295 -0.19501222156624842 #
End-of-ACIS-data 