500 0 7 0           
7 Unknown 11 ACIS 5.0 NT 24 Thu Mar 25 18:34:58 1999 
-1 9.9999999999999995e-007 1e-010 
body $-1 $7 $-1 $8 #
body $-1 $9 $-1 $10 #
body $-1 $11 $-1 $12 #
body $-1 $13 $-1 $14 #
body $-1 $15 $-1 $16 #
body $-1 $17 $-1 $18 #
body $-1 $19 $-1 $20 #
lump $-1 $-1 $21 $0 #
transform $-1 1 0 0 0 1 0 0 0 1 43.075045014801475 23.136979499786641 6.8410386115827784 1 rotate no_reflect no_shear #
lump $-1 $-1 $22 $1 #
transform $-1 1 0 0 0 1 0 0 0 1 43.075045014801475 23.136979499786641 6.8410386115827784 1 rotate no_reflect no_shear #
lump $-1 $-1 $23 $2 #
transform $-1 1 0 0 0 1 0 0 0 1 43.075045014801475 23.136979499786641 6.8410386115827784 1 rotate no_reflect no_shear #
lump $-1 $-1 $24 $3 #
transform $-1 1 0 0 0 1 0 0 0 1 43.075045014801475 23.136979499786641 6.8410386115827784 1 rotate no_reflect no_shear #
lump $-1 $-1 $25 $4 #
transform $-1 1 0 0 0 1 0 0 0 1 43.075045014801475 23.136979499786641 6.8410386115827784 1 rotate no_reflect no_shear #
lump $-1 $-1 $26 $5 #
transform $-1 1 0 0 0 1 0 0 0 1 43.075045014801475 23.136979499786641 6.8410386115827784 1 rotate no_reflect no_shear #
lump $-1 $-1 $27 $6 #
transform $-1 1 0 0 0 1 0 0 0 1 43.075045014801475 23.136979499786641 6.8410386115827784 1 rotate no_reflect no_shear #
shell $-1 $-1 $-1 $28 $-1 $7 #
shell $-1 $-1 $-1 $29 $-1 $9 #
shell $-1 $-1 $-1 $30 $-1 $11 #
shell $-1 $-1 $-1 $31 $-1 $13 #
shell $-1 $-1 $-1 $32 $-1 $15 #
shell $-1 $-1 $-1 $33 $-1 $17 #
shell $-1 $-1 $-1 $34 $-1 $19 #
face $-1 $35 $36 $21 $-1 $37 forward single #
face $-1 $38 $39 $22 $-1 $40 reversed single #
face $-1 $41 $42 $23 $-1 $43 reversed single #
face $-1 $44 $45 $24 $-1 $46 forward single #
face $-1 $47 $48 $25 $-1 $49 forward single #
face $-1 $50 $51 $26 $-1 $52 reversed single #
face $-1 $53 $54 $27 $-1 $55 forward single #
face $-1 $56 $57 $21 $-1 $58 reversed single #
loop $-1 $-1 $59 $28 #
plane-surface $-1 0 0 6.8410386115827784 0 0 1 1 0 0 forward_v I I I I #
face $-1 $60 $61 $22 $-1 $62 reversed single #
loop $-1 $-1 $63 $29 #
plane-surface $-1 -40.206456202932401 -12.939620910183148 0 0 1 0 0 0 1 forward_v I I I I #
face $-1 $64 $65 $23 $-1 $66 reversed single #
loop $-1 $-1 $67 $30 #
plane-surface $-1 0.27169837506241556 -71.311499103815422 71.50805427512104 -1 0 0 0 -0.55919291073839883 0.82903756765294845 forward_v I I I I #
face $-1 $68 $69 $24 $-1 $70 forward single #
loop $-1 $71 $72 $31 #
cone-surface $-1 -14.530449173840104 -16.806112296071337 1.5011306868855647 0 0.55919291073839883 -0.82903756765294845 1.5 0 0 1 I I 0 1 1.5 forward I I I I #
face $-1 $73 $74 $25 $-1 $75 forward single #
loop $-1 $76 $77 $32 #
cone-surface $-1 -5.6491606444985933 -16.806112296071337 1.5011306868855647 0 0.55919291073839883 -0.82903756765294845 1.5 0 0 1 I I 0 1 1.5 forward I I I I #
face $-1 $78 $79 $26 $-1 $80 reversed single #
loop $-1 $-1 $81 $33 #
plane-surface $-1 -15.686829167184991 68.682572774759109 88.939029140475782 1 0 0 0 -0.82903758062907751 -0.55919289150049634 forward_v I I I I #
face $-1 $82 $83 $27 $-1 $84 forward single #
loop $-1 $85 $86 $34 #
cone-surface $-1 -4.3142440045018517 20.101517948025883 3.5837783933844269 0 -0.82903758062907751 -0.55919289150049634 1 0 0 1 I I 0 1 1 forward I I I I #
face $-1 $87 $88 $21 $-1 $89 reversed single #
loop $-1 $-1 $90 $35 #
plane-surface $-1 0 0 -6.8410386115827784 0 0 1 1 0 0 forward_v I I I I #
coedge $-1 $91 $92 $93 $94 forward $36 $-1 #
face $-1 $95 $96 $22 $-1 $97 reversed single #
loop $-1 $-1 $98 $38 #
plane-surface $-1 -40.206456202932401 -9.454902276621084 0 0 -1 0 0 0 -1 forward_v I I I I #
coedge $-1 $99 $100 $101 $102 reversed $39 $-1 #
face $-1 $103 $104 $23 $-1 $105 reversed single #
loop $-1 $-1 $106 $41 #
plane-surface $-1 -10.089804909169345 -23.136979499786634 0.0863931838964902 0 -0.55919291073839883 0.82903756765294845 1 0 0 forward_v I I I I #
coedge $-1 $107 $108 $109 $110 reversed $42 $-1 #
face $-1 $-1 $111 $24 $-1 $112 forward single #
loop $-1 $113 $114 $44 #
cone-surface $-1 -14.530449173840104 -15.062937148235219 -1.0832326997082191 0 0.55919291073839883 -0.82903756765294845 0.75 0 0 1 I I -0.70710678118654757 0.70710678118654757 0.75 forward I I I I #
loop $-1 $-1 $115 $31 #
coedge $-1 $72 $72 $116 $117 reversed $45 $-1 #
face $-1 $-1 $118 $25 $-1 $119 forward single #
loop $-1 $120 $121 $47 #
cone-surface $-1 -5.6491606444985933 -15.062937148235219 -1.0832326997082191 0 0.55919291073839883 -0.82903756765294845 0.75 0 0 1 I I -0.70710678118654757 0.70710678118654757 0.75 forward I I I I #
loop $-1 $-1 $122 $32 #
coedge $-1 $77 $77 $123 $124 reversed $48 $-1 #
face $-1 $125 $126 $26 $-1 $127 reversed single #
loop $-1 $-1 $128 $50 #
plane-surface $-1 -4.3142440045018517 -2.7390894343601389 40.764511193794029 0 0.82903758062907751 0.55919289150049634 1 0 0 forward_v I I I I #
coedge $-1 $129 $130 $131 $132 reversed $51 $-1 #
face $-1 $-1 $133 $27 $-1 $134 forward single #
loop $-1 $135 $136 $53 #
cone-surface $-1 -4.3142440045018517 18.148736840566748 2.2666109458978916 0 -0.82903758062907751 -0.55919289150049634 0.5 0 0 1 I I -0.70710678118654746 0.70710678118654746 0.5 forward I I I I #
loop $-1 $-1 $137 $34 #
coedge $-1 $86 $86 $138 $139 reversed $54 $-1 #
face $-1 $140 $141 $21 $-1 $142 reversed single #
loop $-1 $-1 $143 $56 #
plane-surface $-1 0 -23.136979499786641 0 0 1 0 0 0 1 forward_v I I I I #
coedge $-1 $144 $145 $146 $147 forward $57 $-1 #
coedge $-1 $148 $59 $149 $150 forward $36 $-1 #
coedge $-1 $59 $148 $151 $152 forward $36 $-1 #
coedge $-1 $153 $154 $59 $94 reversed $155 $-1 #
edge $-1 $156 -23.136979499786641 $157 23.136979499786641 $93 $158 forward 7 unknown #
face $-1 $159 $160 $22 $-1 $161 reversed single #
loop $-1 $-1 $162 $60 #
plane-surface $-1 -37.337867391063327 -11.197261593402116 0 -1 0 0 0 0 1 forward_v I I I I #
coedge $-1 $163 $164 $165 $166 forward $61 $-1 #
coedge $-1 $167 $63 $168 $169 reversed $39 $-1 #
coedge $-1 $63 $167 $170 $171 reversed $39 $-1 #
coedge $-1 $172 $173 $63 $102 forward $174 $-1 #
edge $-1 $175 -6.8410386115827784 $176 6.8410386115827784 $101 $177 forward 7 unknown #
face $-1 $178 $179 $23 $-1 $180 reversed single #
loop $-1 $-1 $181 $64 #
plane-surface $-1 -20.451308193401104 -71.311499103815422 71.50805427512104 1 0 0 0 0.55919291073839883 -0.82903756765294845 forward_v I I I I #
coedge $-1 $182 $183 $184 $185 reversed $65 $-1 #
coedge $-1 $108 $67 $186 $187 reversed $42 $-1 #
coedge $-1 $67 $107 $182 $188 reversed $42 $-1 #
coedge $-1 $184 $189 $67 $110 forward $190 $-1 #
edge $-1 $191 12.51877005212107 $192 22.532943529987055 $109 $193 forward 7 unknown #
loop $-1 $-1 $116 $68 #
plane-surface $-1 -10.089804909169345 -23.136979499786634 0.0863931838964902 0 -0.55919291073839883 0.82903756765294845 1 0 0 forward_v I I I I #
loop $-1 $-1 $194 $44 #
coedge $-1 $114 $114 $115 $195 reversed $69 $-1 #
coedge $-1 $115 $115 $114 $195 forward $71 $-1 #
coedge $-1 $116 $116 $72 $117 forward $111 $-1 #
edge $-1 $196 -1.2782410716953982e-015 $196 6.2831853071795996 $116 $197 forward 7 unknown #
loop $-1 $-1 $123 $73 #
plane-surface $-1 -10.089804909169345 -23.136979499786634 0.0863931838964902 0 -0.55919291073839883 0.82903756765294845 1 0 0 forward_v I I I I #
loop $-1 $-1 $198 $47 #
coedge $-1 $121 $121 $122 $199 reversed $74 $-1 #
coedge $-1 $122 $122 $121 $199 forward $76 $-1 #
coedge $-1 $123 $123 $77 $124 forward $118 $-1 #
edge $-1 $200 -1.2782410716953982e-015 $200 6.2831853071795996 $123 $201 forward 7 unknown #
face $-1 $202 $203 $26 $-1 $204 reversed single #
loop $-1 $-1 $205 $78 #
plane-surface $-1 7.0583411581812872 68.682572774759109 88.939029140475782 -1 0 0 0 0.82903758062907751 0.55919289150049634 forward_v I I I I #
coedge $-1 $206 $207 $208 $209 reversed $79 $-1 #
coedge $-1 $130 $81 $210 $211 reversed $51 $-1 #
coedge $-1 $81 $129 $206 $212 reversed $51 $-1 #
coedge $-1 $208 $213 $81 $132 forward $214 $-1 #
edge $-1 $215 11.204306887592914 $216 14.198705356825219 $131 $217 forward 7 unknown #
loop $-1 $-1 $138 $82 #
plane-surface $-1 -4.3142440045018517 -2.7390894343601389 40.764511193794029 0 0.82903758062907751 0.55919289150049634 1 0 0 forward_v I I I I #
loop $-1 $-1 $218 $53 #
coedge $-1 $136 $136 $137 $219 reversed $83 $-1 #
coedge $-1 $137 $137 $136 $219 forward $85 $-1 #
coedge $-1 $138 $138 $86 $139 forward $133 $-1 #
edge $-1 $220 8.8939051993451917e-016 $220 6.2831853071796013 $138 $221 forward 7 unknown #
face $-1 $222 $223 $21 $-1 $224 reversed single #
loop $-1 $-1 $225 $87 #
plane-surface $-1 -43.075045014801475 0 0 1 0 0 0 0 -1 forward_v I I I I #
coedge $-1 $226 $151 $227 $228 forward $88 $-1 #
coedge $-1 $229 $90 $226 $230 forward $57 $-1 #
coedge $-1 $90 $229 $231 $232 forward $57 $-1 #
coedge $-1 $154 $153 $90 $147 reversed $155 $-1 #
edge $-1 $233 -23.136979499786641 $234 23.136979499786641 $146 $235 forward 7 unknown #
coedge $-1 $92 $91 $236 $237 forward $36 $-1 #
coedge $-1 $238 $239 $91 $150 reversed $223 $-1 #
edge $-1 $157 -43.075045014801475 $240 43.075045014801475 $149 $241 forward 7 unknown #
coedge $-1 $143 $242 $92 $152 reversed $88 $-1 #
edge $-1 $243 -43.075045014801475 $156 43.075045014801475 $151 $244 forward 7 unknown #
coedge $-1 $146 $93 $242 $245 forward $155 $-1 #
coedge $-1 $93 $146 $238 $246 reversed $155 $-1 #
loop $-1 $-1 $153 $222 #
vertex $-1 $94 $247 #
vertex $-1 $94 $248 #
straight-curve $-1 43.075045014801475 0 6.8410386115827784 0 1 0 I I #
face $-1 $249 $250 $22 $-1 $251 forward single #
loop $-1 $-1 $252 $95 #
plane-surface $-1 0 0 -6.8410386115827784 0 0 1 1 0 0 forward_v I I I I #
coedge $-1 $253 $254 $167 $255 forward $96 $-1 #
coedge $-1 $256 $98 $252 $257 reversed $61 $-1 #
coedge $-1 $98 $256 $258 $259 reversed $61 $-1 #
coedge $-1 $254 $253 $98 $166 reversed $96 $-1 #
edge $-1 $260 -6.8410386115827784 $261 6.8410386115827784 $165 $262 forward 7 unknown #
coedge $-1 $100 $99 $162 $255 reversed $39 $-1 #
coedge $-1 $263 $264 $99 $169 forward $160 $-1 #
edge $-1 $265 17.234639289597126 $175 22.971816913335275 $168 $266 forward 7 unknown #
coedge $-1 $267 $268 $100 $171 forward $250 $-1 #
edge $-1 $176 -22.971816913335275 $269 -17.234639289597126 $170 $270 forward 7 unknown #
coedge $-1 $271 $101 $268 $272 reversed $174 $-1 #
coedge $-1 $101 $271 $263 $273 reversed $174 $-1 #
loop $-1 $-1 $271 $249 #
vertex $-1 $273 $274 #
vertex $-1 $102 $275 #
straight-curve $-1 -43.075045014801475 -12.939620910183148 0 0 0 1 I I #
face $-1 $-1 $190 $23 $-1 $276 forward single #
loop $-1 $-1 $277 $103 #
plane-surface $-1 0 -23.136979499786641 0 0 1 0 0 0 1 forward_v I I I I #
coedge $-1 $278 $279 $280 $281 reversed $104 $-1 #
coedge $-1 $282 $106 $108 $188 forward $65 $-1 #
coedge $-1 $106 $282 $278 $283 forward $65 $-1 #
coedge $-1 $280 $109 $106 $185 forward $190 $-1 #
edge $-1 $192 -5.3166008296470881 $284 15.406405738816431 $184 $285 forward 7 unknown #
coedge $-1 $286 $287 $107 $187 forward $179 $-1 #
edge $-1 $288 -35.667633953664037 $191 -28.912988525977742 $186 $289 forward 7 unknown #
edge $-1 $192 -12.079275859858388 $288 8.5679906064875137e-015 $108 $290 forward 7 unknown #
coedge $-1 $109 $280 $286 $291 forward $190 $-1 #
loop $-1 $-1 $280 $178 #
vertex $-1 $187 $292 #
vertex $-1 $110 $293 #
straight-curve $-1 0.27169837506241556 -35.655749551907711 6.8410386115827819 0 1 0 I I #
coedge $-1 $194 $194 $-1 $294 reversed $113 $-1 #
edge $-1 $295 0 $295 6.2831853071796004 $114 $296 forward 7 unknown #
vertex $-1 $117 $297 #
ellipse-curve $-1 -14.530449173840104 -18.12989276085365 3.4637158977396298 0 -0.55919291073839883 0.82903756765294845 1.5 0 0 1 I I #
coedge $-1 $198 $198 $-1 $298 reversed $120 $-1 #
edge $-1 $299 0 $299 6.2831853071796004 $121 $300 forward 7 unknown #
vertex $-1 $124 $301 #
ellipse-curve $-1 -5.6491606444985933 -18.12989276085365 3.4637158977396298 0 -0.55919291073839883 0.82903756765294845 1.5 0 0 1 I I #
face $-1 $-1 $214 $26 $-1 $302 forward single #
loop $-1 $-1 $303 $125 #
plane-surface $-1 0 23.136979499786641 0 0 -1 0 0 0 -1 forward_v I I I I #
coedge $-1 $304 $305 $306 $307 reversed $126 $-1 #
coedge $-1 $308 $128 $130 $212 forward $79 $-1 #
coedge $-1 $128 $308 $304 $309 forward $79 $-1 #
coedge $-1 $306 $131 $128 $209 forward $214 $-1 #
edge $-1 $216 -13.529707164934065 $310 9.215463160432213 $208 $311 forward 7 unknown #
coedge $-1 $312 $313 $129 $211 forward $203 $-1 #
edge $-1 $314 -42.067854391579196 $215 -37.628475958655116 $210 $315 forward 7 unknown #
edge $-1 $216 40.919101105730284 $314 46.273958999573253 $130 $316 forward 7 unknown #
coedge $-1 $131 $306 $312 $317 forward $214 $-1 #
loop $-1 $-1 $306 $202 #
vertex $-1 $211 $318 #
vertex $-1 $132 $319 #
straight-curve $-1 -15.686829167184991 34.341286387379554 6.8410386115827748 0 -1 0 I I #
coedge $-1 $218 $218 $-1 $320 reversed $135 $-1 #
edge $-1 $321 0 $321 6.2831853071796004 $136 $322 forward 7 unknown #
vertex $-1 $139 $323 #
ellipse-curve $-1 -4.3142440045018517 21.639780265170494 4.6213493951207241 0 0.82903758062907751 0.55919289150049634 1 0 0 1 I I #
face $-1 $-1 $155 $21 $-1 $324 reversed single #
loop $-1 $-1 $238 $140 #
plane-surface $-1 0 23.136979499786641 0 0 -1 0 0 0 -1 forward_v I I I I #
coedge $-1 $325 $236 $239 $326 forward $141 $-1 #
coedge $-1 $242 $143 $144 $230 reversed $88 $-1 #
coedge $-1 $236 $325 $143 $228 reversed $141 $-1 #
edge $-1 $243 -6.8410386115827784 $327 6.8410386115827784 $227 $328 forward 7 unknown #
coedge $-1 $145 $144 $325 $329 forward $57 $-1 #
edge $-1 $234 -43.075045014801475 $327 43.075045014801475 $226 $330 forward 7 unknown #
coedge $-1 $239 $238 $145 $232 reversed $223 $-1 #
edge $-1 $331 -43.075045014801475 $233 43.075045014801475 $231 $332 forward 7 unknown #
vertex $-1 $147 $333 #
vertex $-1 $245 $334 #
straight-curve $-1 43.075045014801475 0 -6.8410386115827784 0 -1 0 I I #
coedge $-1 $225 $227 $148 $237 reversed $141 $-1 #
edge $-1 $240 -23.136979499786641 $243 23.136979499786641 $236 $335 forward 7 unknown #
coedge $-1 $231 $149 $154 $246 forward $223 $-1 #
coedge $-1 $149 $231 $225 $326 reversed $223 $-1 #
vertex $-1 $150 $336 #
straight-curve $-1 0 23.136979499786641 6.8410386115827784 -1 0 0 I I #
coedge $-1 $151 $226 $153 $245 reversed $88 $-1 #
vertex $-1 $237 $337 #
straight-curve $-1 0 -23.136979499786641 6.8410386115827784 1 0 0 I I #
edge $-1 $156 -6.8410386115827784 $234 6.8410386115827784 $153 $338 forward 7 unknown #
edge $-1 $157 -6.8410386115827784 $233 6.8410386115827784 $154 $339 forward 7 unknown #
point $-1 43.075045014801475 -23.136979499786641 6.8410386115827784 #
point $-1 43.075045014801475 23.136979499786641 6.8410386115827784 #
face $-1 $-1 $174 $22 $-1 $340 reversed single #
loop $-1 $-1 $258 $159 #
plane-surface $-1 0 0 6.8410386115827784 0 0 1 1 0 0 forward_v I I I I #
coedge $-1 $264 $263 $163 $257 forward $160 $-1 #
coedge $-1 $165 $162 $264 $341 reversed $96 $-1 #
coedge $-1 $162 $165 $267 $342 reversed $96 $-1 #
edge $-1 $269 -6.8410386115827784 $265 6.8410386115827784 $162 $343 forward 7 unknown #
coedge $-1 $164 $163 $271 $344 reversed $61 $-1 #
edge $-1 $345 -22.971816913335275 $261 -17.234639289597126 $252 $346 forward 7 unknown #
coedge $-1 $268 $267 $164 $259 forward $250 $-1 #
edge $-1 $260 17.234639289597126 $347 22.971816913335275 $258 $348 forward 7 unknown #
vertex $-1 $259 $349 #
vertex $-1 $257 $350 #
straight-curve $-1 -37.337867391063327 -9.454902276621084 0 0 0 -1 I I #
coedge $-1 $252 $168 $173 $273 forward $160 $-1 #
coedge $-1 $168 $252 $253 $341 forward $160 $-1 #
vertex $-1 $169 $351 #
straight-curve $-1 -20.1032281014662 -12.939620910183148 -6.8410386115827784 -1 0 0 I I #
coedge $-1 $258 $170 $254 $342 forward $250 $-1 #
coedge $-1 $170 $258 $172 $272 forward $250 $-1 #
vertex $-1 $171 $352 #
straight-curve $-1 -20.1032281014662 -12.939620910183148 6.8410386115827784 1 0 0 I I #
coedge $-1 $173 $172 $256 $344 forward $174 $-1 #
edge $-1 $347 9.454902276621084 $176 12.939620910183148 $172 $353 forward 7 unknown #
edge $-1 $175 -12.939620910183148 $345 -9.454902276621084 $173 $354 forward 7 unknown #
point $-1 -43.075045014801475 -12.939620910183148 -6.8410386115827784 #
point $-1 -43.075045014801475 -12.939620910183148 6.8410386115827784 #
plane-surface $-1 0 0 6.8410386115827784 0 0 1 1 0 0 forward_v I I I I #
coedge $-1 $287 $286 $279 $355 forward $179 $-1 #
coedge $-1 $279 $181 $183 $283 reversed $104 $-1 #
coedge $-1 $181 $278 $277 $355 reversed $104 $-1 #
coedge $-1 $189 $184 $181 $281 forward $190 $-1 #
edge $-1 $284 -22.532943529987055 $356 -12.51877005212107 $280 $357 forward 7 unknown #
coedge $-1 $183 $182 $287 $358 reversed $65 $-1 #
edge $-1 $359 -8.5679906064875137e-015 $284 12.079275859858388 $278 $360 forward 7 unknown #
vertex $-1 $185 $361 #
straight-curve $-1 -5.0449024545846726 -13.122806021920656 6.8410386115827784 -1 0 0 I I #
coedge $-1 $277 $186 $189 $291 reversed $179 $-1 #
coedge $-1 $186 $277 $282 $358 forward $179 $-1 #
vertex $-1 $187 $362 #
straight-curve $-1 0.27169837506241556 -23.136979499786641 35.75402713756052 0 0 1 I I #
straight-curve $-1 0.27169837506241556 -23.136979499786634 0.0863931838964902 0 -0.82903756765294845 -0.55919291073839883 I I #
edge $-1 $356 -20.451308193401104 $191 0.27169837506241556 $286 $363 forward 7 unknown #
point $-1 0.27169837506241556 -23.136979499786641 6.8410386115827784 #
point $-1 0.27169837506241556 -13.122806021920656 6.8410386115827784 #
edge $-1 $364 1 $364 0 $194 $-1 forward 7 unknown #
vertex $-1 $195 $365 #
ellipse-curve $-1 -14.530449173840104 -15.482331831289018 -0.46145452396850772 0 -0.55919291073839883 0.82903756765294845 1.5 0 0 1 I I #
point $-1 -13.030449173840104 -18.129892760853657 3.463715897739637 #
edge $-1 $366 1 $366 0 $198 $-1 forward 7 unknown #
vertex $-1 $199 $367 #
ellipse-curve $-1 -5.6491606444985933 -15.482331831289018 -0.46145452396850772 0 -0.55919291073839883 0.82903756765294845 1.5 0 0 1 I I #
point $-1 -4.1491606444985933 -18.129892760853657 3.463715897739637 #
plane-surface $-1 0 0 6.8410386115827784 0 0 1 1 0 0 forward_v I I I I #
coedge $-1 $313 $312 $305 $368 forward $203 $-1 #
coedge $-1 $305 $205 $207 $309 reversed $126 $-1 #
coedge $-1 $205 $304 $303 $368 reversed $126 $-1 #
coedge $-1 $213 $208 $205 $307 forward $214 $-1 #
edge $-1 $310 -14.198705356825219 $369 -11.204306887592914 $306 $370 forward 7 unknown #
coedge $-1 $207 $206 $313 $371 reversed $79 $-1 #
edge $-1 $372 -46.273958999573253 $310 -40.919101105730284 $304 $373 forward 7 unknown #
vertex $-1 $209 $374 #
straight-curve $-1 -2.1571220022509259 20.142581030554339 6.8410386115827784 1 0 0 I I #
coedge $-1 $303 $210 $213 $317 reversed $203 $-1 #
coedge $-1 $210 $303 $308 $371 forward $203 $-1 #
vertex $-1 $211 $375 #
straight-curve $-1 -15.686829167184991 23.136979499786641 44.469514570237891 0 0 1 I I #
straight-curve $-1 -15.686829167184991 -2.7390894343601389 40.764511193794029 0 0.55919289150049634 -0.82903758062907751 I I #
edge $-1 $369 -7.0583411581812872 $215 15.686829167184991 $312 $376 forward 7 unknown #
point $-1 -15.686829167184991 23.136979499786641 6.8410386115827784 #
point $-1 -15.686829167184991 20.142581030554336 6.8410386115827819 #
edge $-1 $377 1 $377 0 $218 $-1 forward 7 unknown #
vertex $-1 $219 $378 #
ellipse-curve $-1 -4.3142440045018517 18.563255630881287 2.5462073916481396 0 0.82903758062907751 0.55919289150049634 1 0 0 1 I I #
point $-1 -3.3142440045018517 21.639780265170479 4.6213493951207134 #
plane-surface $-1 43.075045014801475 0 0 -1 0 0 0 0 1 forward_v I I I I #
coedge $-1 $227 $225 $229 $329 reversed $141 $-1 #
edge $-1 $240 -6.8410386115827784 $331 6.8410386115827784 $239 $379 forward 7 unknown #
vertex $-1 $329 $380 #
straight-curve $-1 -43.075045014801475 -23.136979499786641 0 0 0 -1 I I #
edge $-1 $327 -23.136979499786641 $331 23.136979499786641 $325 $381 forward 7 unknown #
straight-curve $-1 0 -23.136979499786641 -6.8410386115827784 -1 0 0 I I #
vertex $-1 $232 $382 #
straight-curve $-1 0 23.136979499786641 -6.8410386115827784 1 0 0 I I #
point $-1 43.075045014801475 23.136979499786641 -6.8410386115827784 #
point $-1 43.075045014801475 -23.136979499786641 -6.8410386115827784 #
straight-curve $-1 -43.075045014801475 0 6.8410386115827784 0 -1 0 I I #
point $-1 -43.075045014801475 23.136979499786641 6.8410386115827784 #
point $-1 -43.075045014801475 -23.136979499786641 6.8410386115827784 #
straight-curve $-1 43.075045014801475 -23.136979499786641 0 0 0 -1 I I #
straight-curve $-1 43.075045014801475 23.136979499786641 0 0 0 -1 I I #
plane-surface $-1 -43.075045014801475 0 0 1 0 0 0 0 -1 forward_v I I I I #
edge $-1 $261 3.8562714799200259 $265 7.3409901134820901 $264 $383 forward 7 unknown #
edge $-1 $269 -7.3409901134820901 $260 -3.8562714799200259 $267 $384 forward 7 unknown #
straight-curve $-1 -37.337867391063327 -12.939620910183148 0 0 0 -1 I I #
edge $-1 $347 -6.8410386115827784 $345 6.8410386115827784 $271 $385 forward 7 unknown #
vertex $-1 $344 $386 #
straight-curve $-1 -20.1032281014662 -9.454902276621084 -6.8410386115827784 1 0 0 I I #
vertex $-1 $272 $387 #
straight-curve $-1 -20.1032281014662 -9.454902276621084 6.8410386115827784 -1 0 0 I I #
point $-1 -37.337867391063327 -9.454902276621084 6.8410386115827784 #
point $-1 -37.337867391063327 -9.454902276621084 -6.8410386115827784 #
point $-1 -37.337867391063327 -12.939620910183148 -6.8410386115827784 #
point $-1 -37.337867391063327 -12.939620910183148 6.8410386115827784 #
straight-curve $-1 -43.075045014801475 0 6.8410386115827784 0 -1 0 I I #
straight-curve $-1 -43.075045014801475 0 -6.8410386115827784 0 1 0 I I #
edge $-1 $356 28.912988525977742 $359 35.667633953664037 $277 $388 forward 7 unknown #
vertex $-1 $291 $389 #
straight-curve $-1 -20.451308193401104 -35.655749551907711 6.8410386115827819 0 -1 0 I I #
edge $-1 $359 -15.406405738816431 $288 5.3166008296470881 $287 $390 forward 7 unknown #
vertex $-1 $358 $391 #
straight-curve $-1 -20.451308193401104 -23.136979499786634 0.0863931838964902 0 0.82903756765294845 0.55919291073839883 I I #
point $-1 -20.451308193401104 -13.122806021920656 6.8410386115827784 #
point $-1 0.27169837506241556 -23.136979499786641 0.086393183896485412 #
straight-curve $-1 0 -23.136979499786641 6.8410386115827784 1 0 0 I I #
vertex $-1 $294 $392 #
point $-1 -13.030449173840104 -15.482331831289018 -0.46145452396850772 #
vertex $-1 $298 $393 #
point $-1 -4.1491606444985933 -15.482331831289018 -0.46145452396850772 #
edge $-1 $369 37.628475958655116 $372 42.067854391579196 $303 $394 forward 7 unknown #
vertex $-1 $317 $395 #
straight-curve $-1 7.0583411581812872 34.341286387379554 6.8410386115827748 0 1 0 I I #
edge $-1 $372 -9.215463160432213 $314 13.529707164934065 $313 $396 forward 7 unknown #
vertex $-1 $371 $397 #
straight-curve $-1 7.0583411581812872 -2.7390894343601389 40.764511193794029 0 -0.55919289150049634 0.82903758062907751 I I #
point $-1 7.0583411581812872 20.142581030554336 6.8410386115827819 #
point $-1 -15.686829167184991 23.136979499786641 2.4016601786586946 #
straight-curve $-1 0 23.136979499786641 6.8410386115827784 -1 0 0 I I #
vertex $-1 $320 $398 #
point $-1 -3.3142440045018517 18.563255630881287 2.5462073916481396 #
straight-curve $-1 -43.075045014801475 23.136979499786641 0 0 0 -1 I I #
point $-1 -43.075045014801475 -23.136979499786641 -6.8410386115827784 #
straight-curve $-1 -43.075045014801475 0 -6.8410386115827784 0 1 0 I I #
point $-1 -43.075045014801475 23.136979499786641 -6.8410386115827784 #
straight-curve $-1 -37.337867391063327 -5.598630796701058 -6.8410386115827784 0 -1 0 I I #
straight-curve $-1 -37.337867391063327 -5.598630796701058 6.8410386115827784 0 1 0 I I #
straight-curve $-1 -43.075045014801475 -9.454902276621084 0 0 0 -1 I I #
point $-1 -43.075045014801475 -9.454902276621084 -6.8410386115827784 #
point $-1 -43.075045014801475 -9.454902276621084 6.8410386115827784 #
straight-curve $-1 -20.451308193401104 -23.136979499786641 35.75402713756052 0 0 -1 I I #
point $-1 -20.451308193401104 -23.136979499786641 6.8410386115827784 #
straight-curve $-1 -5.0449024545846726 -23.136979499786641 0.086393183896485856 1 0 0 I I #
point $-1 -20.451308193401104 -23.136979499786641 0.086393183896485412 #
point $-1 -14.530449173840104 -14.643542465181421 -1.7050108754479305 #
point $-1 -5.6491606444985933 -14.643542465181421 -1.7050108754479305 #
straight-curve $-1 7.0583411581812872 23.136979499786641 44.469514570237891 0 0 -1 I I #
point $-1 7.0583411581812872 23.136979499786641 6.8410386115827784 #
straight-curve $-1 -2.1571220022509259 23.136979499786641 2.4016601786586946 -1 0 0 I I #
point $-1 7.0583411581812872 23.136979499786641 2.4016601786586946 #
point $-1 -4.3142440045018517 17.73421805025221 1.9870145001476434 #
End-of-ACIS-data 