500 0 10 0           
7 Unknown 11 ACIS 5.0 NT 24 Fri Mar 26 01:11:08 1999 
-1 9.9999999999999995e-007 1e-010 
body $-1 $10 $-1 $11 #
body $-1 $12 $-1 $13 #
body $-1 $14 $-1 $15 #
body $-1 $16 $-1 $17 #
body $-1 $18 $-1 $19 #
body $-1 $20 $-1 $21 #
body $-1 $22 $-1 $23 #
body $-1 $24 $-1 $25 #
body $-1 $26 $-1 $27 #
body $-1 $28 $-1 $29 #
lump $-1 $-1 $30 $0 #
transform $-1 1 0 0 0 1 0 0 0 1 48.049562059389018 30.63531680543613 11.055715238632837 1 rotate no_reflect no_shear #
lump $-1 $-1 $31 $1 #
transform $-1 1 0 0 0 1 0 0 0 1 48.049562059389018 30.63531680543613 11.055715238632837 1 rotate no_reflect no_shear #
lump $-1 $-1 $32 $2 #
transform $-1 1 0 0 0 1 0 0 0 1 48.049562059389018 30.63531680543613 11.055715238632837 1 rotate no_reflect no_shear #
lump $-1 $-1 $33 $3 #
transform $-1 1 0 0 0 1 0 0 0 1 48.049562059389018 30.63531680543613 11.055715238632837 1 rotate no_reflect no_shear #
lump $-1 $-1 $34 $4 #
transform $-1 1 0 0 0 1 0 0 0 1 48.049562059389018 30.63531680543613 11.055715238632837 1 rotate no_reflect no_shear #
lump $-1 $-1 $35 $5 #
transform $-1 1 0 0 0 1 0 0 0 1 48.049562059389018 30.63531680543613 11.055715238632837 1 rotate no_reflect no_shear #
lump $-1 $-1 $36 $6 #
transform $-1 1 0 0 0 1 0 0 0 1 48.049562059389018 30.63531680543613 11.055715238632837 1 rotate no_reflect no_shear #
lump $-1 $-1 $37 $7 #
transform $-1 1 0 0 0 1 0 0 0 1 48.049562059389018 30.63531680543613 11.055715238632837 1 rotate no_reflect no_shear #
lump $-1 $-1 $38 $8 #
transform $-1 1 0 0 0 1 0 0 0 1 48.049562059389018 30.63531680543613 11.055715238632837 1 rotate no_reflect no_shear #
lump $-1 $-1 $39 $9 #
transform $-1 1 0 0 0 1 0 0 0 1 48.049562059389018 30.63531680543613 11.055715238632837 1 rotate no_reflect no_shear #
shell $-1 $-1 $-1 $40 $-1 $10 #
shell $-1 $-1 $-1 $41 $-1 $12 #
shell $-1 $-1 $-1 $42 $-1 $14 #
shell $-1 $-1 $-1 $43 $-1 $16 #
shell $-1 $-1 $-1 $44 $-1 $18 #
shell $-1 $-1 $-1 $45 $-1 $20 #
shell $-1 $-1 $-1 $46 $-1 $22 #
shell $-1 $-1 $-1 $47 $-1 $24 #
shell $-1 $-1 $-1 $48 $-1 $26 #
shell $-1 $-1 $-1 $49 $-1 $28 #
face $-1 $50 $51 $30 $-1 $52 forward single #
face $-1 $53 $54 $31 $-1 $55 forward single #
face $-1 $56 $57 $32 $-1 $58 reversed single #
face $-1 $59 $60 $33 $-1 $61 forward single #
face $-1 $62 $63 $34 $-1 $64 forward single #
face $-1 $65 $66 $35 $-1 $67 reversed single #
face $-1 $68 $69 $36 $-1 $70 forward single #
face $-1 $71 $72 $37 $-1 $73 forward single #
face $-1 $74 $75 $38 $-1 $76 reversed single #
face $-1 $77 $78 $39 $-1 $79 forward single #
face $-1 $80 $81 $30 $-1 $82 reversed single #
loop $-1 $-1 $83 $40 #
plane-surface $-1 0 0 11.055715238632837 0 0 1 1 0 0 forward_v I I I I #
face $-1 $84 $85 $31 $-1 $86 reversed single #
loop $-1 $-1 $87 $41 #
plane-surface $-1 0 -24.042345769933799 -8.0557152386328372 0 0 1 1 0 0 forward_v I I I I #
face $-1 $88 $89 $32 $-1 $90 reversed single #
loop $-1 $-1 $91 $42 #
plane-surface $-1 -125.79538740248101 -9.1770333201255632 56.785827755855856 0 1 0 -0.80901700255871778 0 0.5877852410284794 forward_v I I I I #
face $-1 $92 $93 $33 $-1 $94 forward single #
loop $-1 $95 $96 $43 #
cone-surface $-1 -43.328344211804414 -6.4685160320646808 5.0865123897823104 0.80901700255871778 0 -0.5877852410284794 0.5877852410284794 0 0.80901700255871778 1 I I 0 1 1 forward I I I I #
face $-1 $97 $98 $34 $-1 $99 forward single #
loop $-1 $100 $101 $44 #
cone-surface $-1 -43.328344211804414 -2.4057400999733574 5.0865123897823104 0.80901700255871778 0 -0.5877852410284794 0.5877852410284794 0 0.80901700255871778 1 I I 0 1 1 forward I I I I #
face $-1 $102 $103 $35 $-1 $104 reversed single #
loop $-1 $-1 $105 $45 #
plane-surface $-1 -125.79538740248101 12.883164882917136 56.785827755855856 0 1 0 -0.80901700255871778 0 0.5877852410284794 forward_v I I I I #
face $-1 $106 $107 $36 $-1 $108 forward single #
loop $-1 $109 $110 $46 #
cone-surface $-1 -43.328344211804414 15.591682170978022 5.0865123897823104 0.80901700255871778 0 -0.5877852410284794 0.5877852410284794 0 0.80901700255871778 1 I I 0 1 1 forward I I I I #
face $-1 $111 $112 $37 $-1 $113 forward single #
loop $-1 $114 $115 $47 #
cone-surface $-1 -43.328344211804414 19.654458103069349 5.0865123897823104 0.80901700255871778 0 -0.5877852410284794 0.5877852410284794 0 0.80901700255871778 1 I I 0 1 1 forward I I I I #
face $-1 $116 $117 $38 $-1 $118 reversed single #
loop $-1 $-1 $119 $48 #
plane-surface $-1 55.162265368674454 17.482450056059893 138.04661648078871 0 1 0 0.74314483375859142 0 0.66913059716165679 forward_v I I I I #
face $-1 $120 $121 $39 $-1 $122 forward single #
loop $-1 $123 $124 $49 #
cone-surface $-1 42.756942294713483 24.058883430748008 5.4642779156347556 -0.74314483375859142 0 -0.66913059716165679 1.0036958957424851 0 -1.1147172506378871 1 I I 0 1 1.5 forward I I I I #
face $-1 $125 $126 $30 $-1 $127 reversed single #
loop $-1 $-1 $128 $50 #
plane-surface $-1 0 0 -11.055715238632837 0 0 1 1 0 0 forward_v I I I I #
coedge $-1 $129 $130 $131 $132 forward $51 $-1 #
face $-1 $133 $134 $31 $-1 $135 reversed single #
loop $-1 $-1 $136 $53 #
plane-surface $-1 0 -17.449374734431469 -9.5557152386328372 0 -1 0 0 0 -1 forward_v I I I I #
coedge $-1 $137 $138 $139 $140 reversed $54 $-1 #
face $-1 $141 $142 $32 $-1 $143 reversed single #
loop $-1 $-1 $144 $56 #
plane-surface $-1 -48.049562059389018 -4.4371280660190209 0.30018092307415145 -0.80901700255871778 0 0.5877852410284794 0.5877852410284794 0 0.80901700255871778 forward_v I I I I #
coedge $-1 $145 $146 $147 $148 reversed $57 $-1 #
face $-1 $-1 $149 $33 $-1 $150 forward single #
loop $-1 $151 $152 $59 #
cone-surface $-1 -42.109794294378865 -6.4685160320646808 4.2011840781968868 0.80901700255871778 0 -0.5877852410284794 0.2938926205142397 0 0.40450850127935889 1 I I -0.70710678118654746 0.70710678118654746 0.5 forward I I I I #
loop $-1 $-1 $153 $43 #
coedge $-1 $96 $96 $154 $155 reversed $60 $-1 #
face $-1 $-1 $156 $34 $-1 $157 forward single #
loop $-1 $158 $159 $62 #
cone-surface $-1 -42.109794294378865 -2.4057400999733574 4.2011840781968868 0.80901700255871778 0 -0.5877852410284794 0.2938926205142397 0 0.40450850127935889 1 I I -0.70710678118654746 0.70710678118654746 0.5 forward I I I I #
loop $-1 $-1 $160 $44 #
coedge $-1 $101 $101 $161 $162 reversed $63 $-1 #
face $-1 $163 $164 $35 $-1 $165 reversed single #
loop $-1 $-1 $166 $65 #
plane-surface $-1 -48.049562059389018 17.623070137023678 0.30018092307415145 -0.80901700255871778 0 0.5877852410284794 0.5877852410284794 0 0.80901700255871778 forward_v I I I I #
coedge $-1 $167 $168 $169 $170 reversed $66 $-1 #
face $-1 $-1 $171 $36 $-1 $172 forward single #
loop $-1 $173 $174 $68 #
cone-surface $-1 -42.109794294378865 15.591682170978022 4.2011840781968868 0.80901700255871778 0 -0.5877852410284794 0.2938926205142397 0 0.40450850127935889 1 I I -0.70710678118654746 0.70710678118654746 0.5 forward I I I I #
loop $-1 $-1 $175 $46 #
coedge $-1 $110 $110 $176 $177 reversed $69 $-1 #
face $-1 $-1 $178 $37 $-1 $179 forward single #
loop $-1 $180 $181 $71 #
cone-surface $-1 -42.109794294378865 19.654458103069349 4.2011840781968868 0.80901700255871778 0 -0.5877852410284794 0.2938926205142397 0 0.40450850127935889 1 I I -0.70710678118654746 0.70710678118654746 0.5 forward I I I I #
loop $-1 $-1 $182 $47 #
coedge $-1 $115 $115 $183 $184 reversed $72 $-1 #
face $-1 $185 $186 $38 $-1 $187 reversed single #
loop $-1 $-1 $188 $74 #
plane-surface $-1 -16.253302248921088 24.058883430748008 73.743752172478594 0.74314483375859142 0 0.66913059716165679 0.66913059716165679 0 -0.74314483375859142 forward_v I I I I #
coedge $-1 $189 $190 $191 $192 reversed $75 $-1 #
face $-1 $-1 $193 $39 $-1 $194 forward single #
loop $-1 $195 $196 $77 #
cone-surface $-1 40.836115769119388 24.058883430748008 3.7347579866403375 -0.74314483375859142 0 -0.66913059716165679 0.50184794787124254 0 -0.55735862531894353 1 I I -0.70710678118654757 0.70710678118654757 0.75 forward I I I I #
loop $-1 $-1 $197 $49 #
coedge $-1 $124 $124 $198 $199 reversed $78 $-1 #
face $-1 $200 $201 $30 $-1 $202 reversed single #
loop $-1 $-1 $203 $80 #
plane-surface $-1 0 -30.63531680543613 0 0 1 0 0 0 1 forward_v I I I I #
coedge $-1 $204 $205 $206 $207 forward $81 $-1 #
coedge $-1 $208 $83 $209 $210 forward $51 $-1 #
coedge $-1 $83 $208 $211 $212 forward $51 $-1 #
coedge $-1 $213 $214 $83 $132 reversed $215 $-1 #
edge $-1 $216 -30.63531680543613 $217 30.63531680543613 $131 $218 forward 7 unknown #
face $-1 $219 $220 $31 $-1 $221 reversed single #
loop $-1 $-1 $222 $84 #
plane-surface $-1 0 0 -11.055715238632837 0 0 1 1 0 0 forward_v I I I I #
coedge $-1 $223 $224 $225 $226 reversed $85 $-1 #
coedge $-1 $227 $87 $224 $228 forward $54 $-1 #
coedge $-1 $87 $227 $229 $230 reversed $54 $-1 #
coedge $-1 $231 $225 $87 $140 forward $220 $-1 #
edge $-1 $232 5.4282018494645694 $233 18.614143920469232 $139 $234 forward 7 unknown #
face $-1 $235 $236 $32 $-1 $237 forward single #
loop $-1 $-1 $238 $88 #
plane-surface $-1 -125.79538740248101 0.30277718808752141 56.785827755855856 0 -1 0 0.80901700255871778 0 -0.5877852410284794 forward_v I I I I #
coedge $-1 $239 $240 $241 $242 reversed $89 $-1 #
coedge $-1 $146 $91 $243 $244 reversed $57 $-1 #
coedge $-1 $91 $145 $239 $245 reversed $57 $-1 #
coedge $-1 $241 $246 $91 $148 forward $236 $-1 #
edge $-1 $247 14.848131641851488 $248 22.662484504728312 $147 $249 forward 7 unknown #
loop $-1 $-1 $154 $92 #
plane-surface $-1 -48.049562059389018 -4.4371280660190209 0.30018092307415145 -0.80901700255871778 0 0.5877852410284794 0.5877852410284794 0 0.80901700255871778 forward_v I I I I #
loop $-1 $-1 $250 $59 #
coedge $-1 $152 $152 $153 $251 reversed $93 $-1 #
coedge $-1 $153 $153 $152 $251 forward $95 $-1 #
coedge $-1 $154 $154 $96 $155 forward $149 $-1 #
edge $-1 $252 0 $252 6.2831853071796004 $154 $253 forward 7 unknown #
loop $-1 $-1 $161 $97 #
plane-surface $-1 -48.049562059389018 -4.4371280660190209 0.30018092307415145 -0.80901700255871778 0 0.5877852410284794 0.5877852410284794 0 0.80901700255871778 forward_v I I I I #
loop $-1 $-1 $254 $62 #
coedge $-1 $159 $159 $160 $255 reversed $98 $-1 #
coedge $-1 $160 $160 $159 $255 forward $100 $-1 #
coedge $-1 $161 $161 $101 $162 forward $156 $-1 #
edge $-1 $256 0 $256 6.2831853071796004 $161 $257 forward 7 unknown #
face $-1 $258 $259 $35 $-1 $260 forward single #
loop $-1 $-1 $261 $102 #
plane-surface $-1 -125.79538740248101 22.36297539113022 56.785827755855856 0 -1 0 0.80901700255871778 0 -0.5877852410284794 forward_v I I I I #
coedge $-1 $262 $263 $264 $265 reversed $103 $-1 #
coedge $-1 $168 $105 $266 $267 reversed $66 $-1 #
coedge $-1 $105 $167 $262 $268 reversed $66 $-1 #
coedge $-1 $264 $269 $105 $170 forward $259 $-1 #
edge $-1 $270 14.848131641851488 $271 22.662484504728312 $169 $272 forward 7 unknown #
loop $-1 $-1 $176 $106 #
plane-surface $-1 -48.049562059389018 17.623070137023678 0.30018092307415145 -0.80901700255871778 0 0.5877852410284794 0.5877852410284794 0 0.80901700255871778 forward_v I I I I #
loop $-1 $-1 $273 $68 #
coedge $-1 $174 $174 $175 $274 reversed $107 $-1 #
coedge $-1 $175 $175 $174 $274 forward $109 $-1 #
coedge $-1 $176 $176 $110 $177 forward $171 $-1 #
edge $-1 $275 0 $275 6.2831853071796004 $176 $276 forward 7 unknown #
loop $-1 $-1 $183 $111 #
plane-surface $-1 -48.049562059389018 17.623070137023678 0.30018092307415145 -0.80901700255871778 0 0.5877852410284794 0.5877852410284794 0 0.80901700255871778 forward_v I I I I #
loop $-1 $-1 $277 $71 #
coedge $-1 $181 $181 $182 $278 reversed $112 $-1 #
coedge $-1 $182 $182 $181 $278 forward $114 $-1 #
coedge $-1 $183 $183 $115 $184 forward $178 $-1 #
edge $-1 $279 0 $279 6.2831853071796004 $183 $280 forward 7 unknown #
face $-1 $281 $282 $38 $-1 $283 forward single #
loop $-1 $-1 $284 $116 #
plane-surface $-1 0 30.63531680543613 0 0 -1 0 0 0 -1 forward_v I I I I #
coedge $-1 $285 $286 $287 $288 reversed $117 $-1 #
coedge $-1 $190 $119 $289 $290 reversed $75 $-1 #
coedge $-1 $119 $189 $285 $291 reversed $75 $-1 #
coedge $-1 $287 $292 $119 $192 forward $293 $-1 #
edge $-1 $294 57.967593001761522 $295 66.695123685511291 $191 $296 forward 7 unknown #
loop $-1 $-1 $198 $120 #
plane-surface $-1 -16.253302248921088 24.058883430748008 73.743752172478594 0.74314483375859142 0 0.66913059716165679 0.66913059716165679 0 -0.74314483375859142 forward_v I I I I #
loop $-1 $-1 $297 $77 #
coedge $-1 $196 $196 $197 $298 reversed $121 $-1 #
coedge $-1 $197 $197 $196 $298 forward $123 $-1 #
coedge $-1 $198 $198 $124 $199 forward $193 $-1 #
edge $-1 $299 0 $299 6.2831853071796004 $198 $300 forward 7 unknown #
face $-1 $301 $302 $30 $-1 $303 reversed single #
loop $-1 $-1 $304 $125 #
plane-surface $-1 -48.049562059389018 0 0 1 0 0 0 0 -1 forward_v I I I I #
coedge $-1 $305 $211 $306 $307 forward $126 $-1 #
coedge $-1 $308 $128 $305 $309 forward $81 $-1 #
coedge $-1 $128 $308 $310 $311 forward $81 $-1 #
coedge $-1 $214 $213 $128 $207 reversed $215 $-1 #
edge $-1 $312 -30.63531680543613 $313 30.63531680543613 $206 $314 forward 7 unknown #
coedge $-1 $130 $129 $315 $316 forward $51 $-1 #
coedge $-1 $317 $318 $129 $210 reversed $302 $-1 #
edge $-1 $217 -48.049562059389018 $319 48.049562059389018 $209 $320 forward 7 unknown #
coedge $-1 $203 $321 $130 $212 reversed $126 $-1 #
edge $-1 $322 -48.049562059389018 $216 48.049562059389018 $211 $323 forward 7 unknown #
coedge $-1 $206 $131 $321 $324 forward $215 $-1 #
coedge $-1 $131 $206 $317 $325 reversed $215 $-1 #
loop $-1 $-1 $213 $301 #
vertex $-1 $132 $326 #
vertex $-1 $132 $327 #
straight-curve $-1 48.049562059389018 0 11.055715238632837 0 1 0 I I #
face $-1 $328 $329 $31 $-1 $330 reversed single #
loop $-1 $-1 $225 $133 #
plane-surface $-1 48.049562059389018 0 0 -1 0 0 0 0 1 forward_v I I I I #
coedge $-1 $331 $332 $223 $333 forward $134 $-1 #
coedge $-1 $334 $136 $222 $333 reversed $85 $-1 #
coedge $-1 $136 $334 $137 $228 reversed $85 $-1 #
coedge $-1 $139 $335 $136 $226 forward $220 $-1 #
edge $-1 $336 -6.2778576193164186 $232 -3.2778576193164186 $225 $337 forward 7 unknown #
coedge $-1 $138 $137 $338 $339 reversed $54 $-1 #
edge $-1 $232 -48.049562059389018 $340 48.049562059389018 $224 $341 forward 7 unknown #
coedge $-1 $342 $343 $138 $230 forward $329 $-1 #
edge $-1 $233 -48.049562059389018 $344 48.049562059389018 $229 $345 forward 7 unknown #
coedge $-1 $335 $139 $343 $346 forward $220 $-1 #
vertex $-1 $140 $347 #
vertex $-1 $346 $348 #
straight-curve $-1 48.049562059389018 -12.0211728849669 -8.0557152386328372 0 -1 0 I I #
face $-1 $-1 $349 $32 $-1 $350 reversed single #
loop $-1 $-1 $147 $141 #
plane-surface $-1 0 0 11.055715238632837 0 0 1 1 0 0 forward_v I I I I #
coedge $-1 $351 $352 $353 $354 reversed $142 $-1 #
coedge $-1 $355 $144 $146 $245 forward $89 $-1 #
coedge $-1 $144 $355 $351 $356 forward $89 $-1 #
coedge $-1 $353 $147 $144 $242 forward $236 $-1 #
edge $-1 $248 -6.9584692871160527 $357 2.5213412210970318 $241 $358 forward 7 unknown #
coedge $-1 $359 $360 $145 $244 forward $349 $-1 #
edge $-1 $361 -28.092732954853776 $247 -17.337198639295089 $243 $362 forward 7 unknown #
edge $-1 $248 -13.294571413878359 $361 0 $146 $363 forward 7 unknown #
coedge $-1 $147 $353 $359 $364 forward $236 $-1 #
vertex $-1 $244 $365 #
vertex $-1 $148 $366 #
straight-curve $-1 -62.897693701240506 -9.1770333201255632 11.055715238632835 1 0 0 I I #
coedge $-1 $250 $250 $-1 $367 reversed $151 $-1 #
edge $-1 $368 0 $368 6.2831853071796004 $152 $369 forward 7 unknown #
vertex $-1 $155 $370 #
ellipse-curve $-1 -44.142385627950603 -6.4685160320646808 5.6779480808534952 -0.80901700255871778 0 0.5877852410284794 0.5877852410284794 0 0.80901700255871778 1 I I #
coedge $-1 $254 $254 $-1 $371 reversed $158 $-1 #
edge $-1 $372 0 $372 6.2831853071796004 $159 $373 forward 7 unknown #
vertex $-1 $162 $374 #
ellipse-curve $-1 -44.142385627950603 -2.4057400999733574 5.6779480808534952 -0.80901700255871778 0 0.5877852410284794 0.5877852410284794 0 0.80901700255871778 1 I I #
face $-1 $-1 $375 $35 $-1 $376 reversed single #
loop $-1 $-1 $169 $163 #
plane-surface $-1 0 0 11.055715238632837 0 0 1 1 0 0 forward_v I I I I #
coedge $-1 $377 $378 $379 $380 reversed $164 $-1 #
coedge $-1 $381 $166 $168 $268 forward $103 $-1 #
coedge $-1 $166 $381 $377 $382 forward $103 $-1 #
coedge $-1 $379 $169 $166 $265 forward $259 $-1 #
edge $-1 $271 4.0716298144052967 $383 13.551440322618381 $264 $384 forward 7 unknown #
coedge $-1 $385 $386 $167 $267 forward $375 $-1 #
edge $-1 $387 -28.092732954853776 $270 -17.337198639295089 $266 $388 forward 7 unknown #
edge $-1 $271 -13.294571413878359 $387 0 $168 $389 forward 7 unknown #
coedge $-1 $169 $379 $385 $390 forward $259 $-1 #
vertex $-1 $170 $391 #
vertex $-1 $170 $392 #
straight-curve $-1 -62.897693701240506 12.883164882917136 11.055715238632835 1 0 0 I I #
coedge $-1 $273 $273 $-1 $393 reversed $173 $-1 #
edge $-1 $394 0 $394 6.2831853071796004 $174 $395 forward 7 unknown #
vertex $-1 $177 $396 #
ellipse-curve $-1 -44.142385627950603 15.591682170978022 5.6779480808534952 -0.80901700255871778 0 0.5877852410284794 0.5877852410284794 0 0.80901700255871778 1 I I #
coedge $-1 $277 $277 $-1 $397 reversed $180 $-1 #
edge $-1 $398 0 $398 6.2831853071796004 $181 $399 forward 7 unknown #
vertex $-1 $184 $400 #
ellipse-curve $-1 -44.142385627950603 19.654458103069349 5.6779480808534952 -0.80901700255871778 0 0.5877852410284794 0.5877852410284794 0 0.80901700255871778 1 I I #
face $-1 $-1 $293 $38 $-1 $401 reversed single #
loop $-1 $-1 $402 $185 #
plane-surface $-1 0 0 11.055715238632837 0 0 1 1 0 0 forward_v I I I I #
coedge $-1 $403 $404 $286 $405 forward $186 $-1 #
coedge $-1 $406 $188 $190 $291 forward $117 $-1 #
coedge $-1 $188 $406 $284 $405 reversed $117 $-1 #
coedge $-1 $407 $191 $188 $288 forward $293 $-1 #
edge $-1 $295 5.4530083406858889 $408 18.605875090062128 $287 $409 forward 7 unknown #
coedge $-1 $410 $402 $189 $290 forward $282 $-1 #
edge $-1 $411 12.610125646251021 $294 20.468429375051791 $289 $412 forward 7 unknown #
edge $-1 $295 -96.099124118778008 $411 -84.355073312949628 $190 $413 forward 7 unknown #
coedge $-1 $191 $407 $410 $414 reversed $293 $-1 #
loop $-1 $-1 $287 $281 #
vertex $-1 $414 $415 #
vertex $-1 $192 $416 #
straight-curve $-1 48.049562059389018 17.482450056059893 69.023308240394357 0 0 -1 I I #
coedge $-1 $297 $297 $-1 $417 reversed $195 $-1 #
edge $-1 $418 0 $418 6.2831853071796004 $196 $419 forward 7 unknown #
vertex $-1 $199 $420 #
ellipse-curve $-1 44.120410194988644 24.058883430748008 6.6919498967579383 0.74314483375859142 0 0.66913059716165679 1.0036958957424851 0 -1.1147172506378871 1 I I #
face $-1 $-1 $215 $30 $-1 $421 reversed single #
loop $-1 $-1 $317 $200 #
plane-surface $-1 0 30.63531680543613 0 0 -1 0 0 0 -1 forward_v I I I I #
coedge $-1 $422 $315 $318 $423 forward $201 $-1 #
coedge $-1 $321 $203 $204 $309 reversed $126 $-1 #
coedge $-1 $315 $422 $203 $307 reversed $201 $-1 #
edge $-1 $322 -11.055715238632837 $424 11.055715238632837 $306 $425 forward 7 unknown #
coedge $-1 $205 $204 $422 $426 forward $81 $-1 #
edge $-1 $313 -48.049562059389018 $424 48.049562059389018 $305 $427 forward 7 unknown #
coedge $-1 $318 $317 $205 $311 reversed $302 $-1 #
edge $-1 $428 -48.049562059389018 $312 48.049562059389018 $310 $429 forward 7 unknown #
vertex $-1 $207 $430 #
vertex $-1 $324 $431 #
straight-curve $-1 48.049562059389018 0 -11.055715238632837 0 -1 0 I I #
coedge $-1 $304 $306 $208 $316 reversed $201 $-1 #
edge $-1 $319 -30.63531680543613 $322 30.63531680543613 $315 $432 forward 7 unknown #
coedge $-1 $310 $209 $214 $325 forward $302 $-1 #
coedge $-1 $209 $310 $304 $423 reversed $302 $-1 #
vertex $-1 $210 $433 #
straight-curve $-1 0 30.63531680543613 11.055715238632837 -1 0 0 I I #
coedge $-1 $211 $305 $213 $324 reversed $126 $-1 #
vertex $-1 $316 $434 #
straight-curve $-1 0 -30.63531680543613 11.055715238632837 1 0 0 I I #
edge $-1 $216 -11.055715238632837 $313 11.055715238632837 $213 $435 forward 7 unknown #
edge $-1 $217 -11.055715238632837 $312 11.055715238632837 $214 $436 forward 7 unknown #
point $-1 48.049562059389018 -30.63531680543613 11.055715238632837 #
point $-1 48.049562059389018 30.63531680543613 11.055715238632837 #
face $-1 $-1 $437 $31 $-1 $438 reversed single #
loop $-1 $-1 $229 $219 #
plane-surface $-1 0 -30.63531680543613 0 0 1 0 0 0 1 forward_v I I I I #
coedge $-1 $439 $222 $335 $440 forward $134 $-1 #
coedge $-1 $222 $439 $441 $442 forward $134 $-1 #
edge $-1 $443 -48.049562059389018 $336 48.049562059389018 $222 $444 forward 7 unknown #
coedge $-1 $224 $223 $445 $446 reversed $85 $-1 #
coedge $-1 $225 $231 $331 $440 reversed $220 $-1 #
vertex $-1 $440 $447 #
straight-curve $-1 48.049562059389018 -17.449374734431469 -4.7778576193164186 0 0 1 I I #
coedge $-1 $445 $448 $227 $339 forward $437 $-1 #
edge $-1 $344 -18.614143920469232 $340 -5.4282018494645694 $338 $449 forward 7 unknown #
vertex $-1 $339 $450 #
straight-curve $-1 0 -17.449374734431469 -8.0557152386328372 -1 0 0 I I #
coedge $-1 $451 $229 $448 $452 forward $329 $-1 #
coedge $-1 $229 $451 $231 $346 reversed $329 $-1 #
vertex $-1 $452 $453 #
straight-curve $-1 0 -30.63531680543613 -8.0557152386328372 -1 0 0 I I #
edge $-1 $233 8.0557152386328372 $454 11.055715238632837 $231 $455 forward 7 unknown #
point $-1 48.049562059389018 -17.449374734431469 -8.0557152386328372 #
point $-1 48.049562059389018 -30.63531680543613 -8.0557152386328372 #
loop $-1 $-1 $243 $235 #
plane-surface $-1 -48.049562059389018 0 0 1 0 0 0 0 -1 forward_v I I I I #
coedge $-1 $352 $238 $240 $356 reversed $142 $-1 #
coedge $-1 $238 $351 $456 $457 reversed $142 $-1 #
coedge $-1 $246 $241 $238 $354 forward $236 $-1 #
edge $-1 $357 -22.662484504728312 $458 -14.848131641851488 $353 $459 forward 7 unknown #
coedge $-1 $240 $239 $360 $460 reversed $89 $-1 #
edge $-1 $461 0 $357 13.294571413878359 $351 $462 forward 7 unknown #
vertex $-1 $242 $463 #
straight-curve $-1 -40.235209196512194 -2.2185640330095104 11.055715238632837 0 1 0 I I #
coedge $-1 $456 $243 $246 $364 reversed $349 $-1 #
coedge $-1 $243 $456 $355 $460 forward $349 $-1 #
vertex $-1 $244 $464 #
straight-curve $-1 -48.049562059389018 -9.1770333201255632 28.392913877927928 0 0 1 I I #
straight-curve $-1 -48.049562059389018 -9.1770333201255632 0.30018092307415145 -0.5877852410284794 0 -0.80901700255871778 I I #
edge $-1 $458 -0.30277718808752141 $247 9.1770333201255632 $359 $465 forward 7 unknown #
point $-1 -48.049562059389018 -9.1770333201255632 11.055715238632837 #
point $-1 -40.235209196512194 -9.1770333201255632 11.055715238632837 #
edge $-1 $466 1 $466 0 $250 $-1 forward 7 unknown #
vertex $-1 $251 $467 #
ellipse-curve $-1 -42.514302795658224 -6.4685160320646808 4.4950766987111264 -0.80901700255871778 0 0.5877852410284794 0.5877852410284794 0 0.80901700255871778 1 I I #
point $-1 -43.554600386922125 -6.4685160320646808 6.4869650834122119 #
edge $-1 $468 1 $468 0 $254 $-1 forward 7 unknown #
vertex $-1 $255 $469 #
ellipse-curve $-1 -42.514302795658224 -2.4057400999733574 4.4950766987111264 -0.80901700255871778 0 0.5877852410284794 0.5877852410284794 0 0.80901700255871778 1 I I #
point $-1 -43.554600386922125 -2.4057400999733574 6.4869650834122119 #
loop $-1 $-1 $266 $258 #
plane-surface $-1 -48.049562059389018 0 0 1 0 0 0 0 -1 forward_v I I I I #
coedge $-1 $378 $261 $263 $382 reversed $164 $-1 #
coedge $-1 $261 $377 $470 $471 reversed $164 $-1 #
coedge $-1 $269 $264 $261 $380 forward $259 $-1 #
edge $-1 $383 -22.662484504728312 $472 -14.848131641851488 $379 $473 forward 7 unknown #
coedge $-1 $263 $262 $386 $474 reversed $103 $-1 #
edge $-1 $475 0 $383 13.294571413878359 $377 $476 forward 7 unknown #
vertex $-1 $265 $477 #
straight-curve $-1 -40.235209196512194 8.811535068511839 11.055715238632837 0 1 0 I I #
coedge $-1 $470 $266 $269 $390 reversed $375 $-1 #
coedge $-1 $266 $470 $381 $474 forward $375 $-1 #
vertex $-1 $267 $478 #
straight-curve $-1 -48.049562059389018 12.883164882917136 28.392913877927928 0 0 1 I I #
straight-curve $-1 -48.049562059389018 12.883164882917136 0.30018092307415145 -0.5877852410284794 0 -0.80901700255871778 I I #
edge $-1 $472 -22.36297539113022 $270 -12.883164882917136 $385 $479 forward 7 unknown #
point $-1 -48.049562059389018 12.883164882917136 11.055715238632837 #
point $-1 -40.235209196512194 12.883164882917136 11.055715238632837 #
edge $-1 $480 1 $480 0 $273 $-1 forward 7 unknown #
vertex $-1 $274 $481 #
ellipse-curve $-1 -42.514302795658224 15.591682170978022 4.4950766987111264 -0.80901700255871778 0 0.5877852410284794 0.5877852410284794 0 0.80901700255871778 1 I I #
point $-1 -43.554600386922125 15.591682170978022 6.4869650834122119 #
edge $-1 $482 1 $482 0 $277 $-1 forward 7 unknown #
vertex $-1 $278 $483 #
ellipse-curve $-1 -42.514302795658224 19.654458103069349 4.4950766987111264 -0.80901700255871778 0 0.5877852410284794 0.5877852410284794 0 0.80901700255871778 1 I I #
point $-1 -43.554600386922125 19.654458103069349 6.4869650834122119 #
plane-surface $-1 48.049562059389018 0 0 -1 0 0 0 0 1 forward_v I I I I #
coedge $-1 $289 $484 $406 $485 forward $282 $-1 #
coedge $-1 $404 $284 $484 $486 reversed $186 $-1 #
coedge $-1 $284 $403 $407 $487 forward $186 $-1 #
edge $-1 $408 -63.260188974467582 $488 -51.516138168639216 $284 $489 forward 7 unknown #
coedge $-1 $286 $285 $402 $485 reversed $117 $-1 #
coedge $-1 $292 $287 $404 $487 reversed $293 $-1 #
vertex $-1 $288 $490 #
straight-curve $-1 48.049562059389018 12.029441715374004 2.328184554883066 0 1 0 I I #
coedge $-1 $484 $289 $292 $414 forward $282 $-1 #
vertex $-1 $290 $491 #
straight-curve $-1 27.581132684337227 17.482450056059893 11.055715238632835 1 0 0 I I #
straight-curve $-1 -16.253302248921088 17.482450056059893 73.743752172478594 -0.66913059716165679 0 0.74314483375859142 I I #
edge $-1 $294 17.482450056059893 $492 30.63531680543613 $292 $493 forward 7 unknown #
point $-1 48.049562059389018 17.482450056059893 11.055715238632837 #
point $-1 48.049562059389018 17.482450056059893 2.328184554883066 #
edge $-1 $494 1 $494 0 $297 $-1 forward 7 unknown #
vertex $-1 $298 $495 #
ellipse-curve $-1 41.393474394438329 24.058883430748008 4.2366059345115801 0.74314483375859142 0 0.66913059716165679 1.0036958957424851 0 -1.1147172506378871 1 I I #
point $-1 45.124106090731118 24.058883430748008 5.5772326461200432 #
plane-surface $-1 48.049562059389018 0 0 -1 0 0 0 0 1 forward_v I I I I #
coedge $-1 $306 $304 $308 $426 reversed $201 $-1 #
edge $-1 $319 -11.055715238632837 $428 11.055715238632837 $318 $496 forward 7 unknown #
vertex $-1 $426 $497 #
straight-curve $-1 -48.049562059389018 -30.63531680543613 0 0 0 -1 I I #
edge $-1 $424 -30.63531680543613 $428 30.63531680543613 $422 $498 forward 7 unknown #
straight-curve $-1 0 -30.63531680543613 -11.055715238632837 -1 0 0 I I #
vertex $-1 $311 $499 #
straight-curve $-1 0 30.63531680543613 -11.055715238632837 1 0 0 I I #
point $-1 48.049562059389018 30.63531680543613 -11.055715238632837 #
point $-1 48.049562059389018 -30.63531680543613 -11.055715238632837 #
straight-curve $-1 -48.049562059389018 0 11.055715238632837 0 -1 0 I I #
point $-1 -48.049562059389018 30.63531680543613 11.055715238632837 #
point $-1 -48.049562059389018 -30.63531680543613 11.055715238632837 #
straight-curve $-1 48.049562059389018 -30.63531680543613 0 0 0 -1 I I #
straight-curve $-1 48.049562059389018 30.63531680543613 0 0 0 -1 I I #
loop $-1 $-1 $445 $328 #
plane-surface $-1 -48.049562059389018 0 0 1 0 0 0 0 -1 forward_v I I I I #
coedge $-1 $332 $331 $451 $500 forward $134 $-1 #
edge $-1 $336 17.449374734431469 $454 30.63531680543613 $335 $501 forward 7 unknown #
coedge $-1 $448 $445 $332 $442 reversed $437 $-1 #
edge $-1 $502 -30.63531680543613 $443 -17.449374734431469 $441 $503 forward 7 unknown #
vertex $-1 $446 $504 #
straight-curve $-1 0 -17.449374734431469 -11.055715238632837 1 0 0 I I #
coedge $-1 $441 $338 $334 $446 forward $437 $-1 #
edge $-1 $340 3.2778576193164186 $443 6.2778576193164186 $445 $505 forward 7 unknown #
point $-1 48.049562059389018 -17.449374734431469 -11.055715238632837 #
coedge $-1 $338 $441 $342 $452 reversed $437 $-1 #
straight-curve $-1 -48.049562059389018 -12.0211728849669 -8.0557152386328372 0 1 0 I I #
point $-1 -48.049562059389018 -17.449374734431469 -8.0557152386328372 #
coedge $-1 $343 $342 $439 $500 reversed $329 $-1 #
edge $-1 $344 8.0557152386328372 $502 11.055715238632837 $448 $506 forward 7 unknown #
point $-1 -48.049562059389018 -30.63531680543613 -8.0557152386328372 #
vertex $-1 $346 $507 #
straight-curve $-1 48.049562059389018 -30.63531680543613 0 0 0 -1 I I #
coedge $-1 $360 $359 $352 $457 forward $349 $-1 #
edge $-1 $458 17.337198639295089 $461 28.092732954853776 $456 $508 forward 7 unknown #
vertex $-1 $364 $509 #
straight-curve $-1 -62.897693701240506 0.30277718808752141 11.055715238632835 -1 0 0 I I #
edge $-1 $461 -2.5213412210970318 $361 6.9584692871160527 $360 $510 forward 7 unknown #
vertex $-1 $460 $511 #
straight-curve $-1 -48.049562059389018 0.30277718808752141 0.30018092307415145 0.5877852410284794 0 0.80901700255871778 I I #
point $-1 -40.235209196512194 0.30277718808752141 11.055715238632837 #
point $-1 -48.049562059389018 -9.1770333201255632 0.30018092307415145 #
straight-curve $-1 -48.049562059389018 0 11.055715238632837 0 -1 0 I I #
vertex $-1 $367 $512 #
point $-1 -41.926517554629747 -6.4685160320646808 5.3040937012698439 #
vertex $-1 $371 $513 #
point $-1 -41.926517554629747 -2.4057400999733574 5.3040937012698439 #
coedge $-1 $386 $385 $378 $471 forward $375 $-1 #
edge $-1 $472 17.337198639295089 $475 28.092732954853776 $470 $514 forward 7 unknown #
vertex $-1 $390 $515 #
straight-curve $-1 -62.897693701240506 22.36297539113022 11.055715238632835 -1 0 0 I I #
edge $-1 $475 -13.551440322618381 $387 -4.0716298144052967 $386 $516 forward 7 unknown #
vertex $-1 $474 $517 #
straight-curve $-1 -48.049562059389018 22.36297539113022 0.30018092307415145 0.5877852410284794 0 0.80901700255871778 I I #
point $-1 -40.235209196512194 22.36297539113022 11.055715238632837 #
point $-1 -48.049562059389018 12.883164882917136 0.30018092307415145 #
straight-curve $-1 -48.049562059389018 0 11.055715238632837 0 -1 0 I I #
vertex $-1 $393 $518 #
point $-1 -41.926517554629747 15.591682170978022 5.3040937012698439 #
vertex $-1 $397 $519 #
point $-1 -41.926517554629747 19.654458103069349 5.3040937012698439 #
coedge $-1 $402 $410 $403 $486 forward $282 $-1 #
edge $-1 $488 -18.605875090062121 $411 -5.4530083406858889 $402 $520 forward 7 unknown #
edge $-1 $492 -48.049562059389018 $488 -40.191258330588248 $403 $521 forward 7 unknown #
edge $-1 $492 -11.055715238632837 $408 -2.3281845548830571 $407 $522 forward 7 unknown #
vertex $-1 $485 $523 #
straight-curve $-1 5.7202340343442604 30.63531680543613 49.339667173850856 -0.66913059716165679 0 0.74314483375859142 I I #
point $-1 48.049562059389018 30.63531680543613 2.3281845548830571 #
point $-1 40.191258330588248 17.482450056059893 11.055715238632843 #
vertex $-1 $414 $524 #
straight-curve $-1 48.049562059389018 0 11.055715238632837 0 1 0 I I #
vertex $-1 $417 $525 #
point $-1 42.397170290180817 24.058883430748008 3.121888683873693 #
straight-curve $-1 -48.049562059389018 30.63531680543613 0 0 0 -1 I I #
point $-1 -48.049562059389018 -30.63531680543613 -11.055715238632837 #
straight-curve $-1 -48.049562059389018 0 -11.055715238632837 0 1 0 I I #
point $-1 -48.049562059389018 30.63531680543613 -11.055715238632837 #
edge $-1 $454 -48.049562059389018 $502 48.049562059389018 $451 $526 forward 7 unknown #
straight-curve $-1 48.049562059389018 0 -11.055715238632837 0 -1 0 I I #
vertex $-1 $442 $527 #
straight-curve $-1 -48.049562059389018 0 -11.055715238632837 0 1 0 I I #
point $-1 -48.049562059389018 -17.449374734431469 -11.055715238632837 #
straight-curve $-1 -48.049562059389018 -17.449374734431469 -4.7778576193164186 0 0 -1 I I #
straight-curve $-1 -48.049562059389018 -30.63531680543613 0 0 0 -1 I I #
point $-1 48.049562059389018 -30.63531680543613 -11.055715238632837 #
straight-curve $-1 -48.049562059389018 0.30277718808752141 28.392913877927928 0 0 -1 I I #
point $-1 -48.049562059389018 0.30277718808752141 11.055715238632837 #
straight-curve $-1 -48.049562059389018 -2.2185640330095104 0.30018092307415556 0 -1 0 I I #
point $-1 -48.049562059389018 0.30277718808752141 0.30018092307415145 #
point $-1 -41.705285793099506 -6.4685160320646808 3.9072914576826472 #
point $-1 -41.705285793099506 -2.4057400999733574 3.9072914576826472 #
straight-curve $-1 -48.049562059389018 22.36297539113022 28.392913877927928 0 0 -1 I I #
point $-1 -48.049562059389018 22.36297539113022 11.055715238632837 #
straight-curve $-1 -48.049562059389018 8.811535068511839 0.30018092307415556 0 -1 0 I I #
point $-1 -48.049562059389018 22.36297539113022 0.30018092307415145 #
point $-1 -41.705285793099506 15.591682170978022 3.9072914576826472 #
point $-1 -41.705285793099506 19.654458103069349 3.9072914576826472 #
straight-curve $-1 40.191258330588255 12.029441715374004 11.055715238632828 0 -1 0 I I #
straight-curve $-1 0 30.63531680543613 11.055715238632837 -1 0 0 I I #
straight-curve $-1 48.049562059389018 30.63531680543613 0 0 0 -1 I I #
point $-1 40.191258330588248 30.635316805436123 11.055715238632843 #
point $-1 48.049562059389018 30.63531680543613 11.055715238632837 #
point $-1 40.278757143800448 24.058883430748008 3.232910038769095 #
straight-curve $-1 0 -30.63531680543613 -11.055715238632837 -1 0 0 I I #
point $-1 -48.049562059389018 -30.63531680543613 -11.055715238632837 #
End-of-ACIS-data 