500 0 12 0           
7 Unknown 11 ACIS 5.0 NT 24 Fri Mar 26 02:44:41 1999 
-1 9.9999999999999995e-007 1e-010 
body $-1 $12 $-1 $13 #
body $-1 $14 $-1 $15 #
body $-1 $16 $-1 $17 #
body $-1 $18 $-1 $19 #
body $-1 $20 $-1 $21 #
body $-1 $22 $-1 $23 #
body $-1 $24 $-1 $25 #
body $-1 $26 $-1 $27 #
body $-1 $28 $-1 $29 #
body $-1 $30 $-1 $31 #
body $-1 $32 $-1 $33 #
body $-1 $34 $-1 $35 #
lump $-1 $-1 $36 $0 #
transform $-1 1 0 0 0 1 0 0 0 1 49.187292092654197 31.108969508033905 10.531972150134969 1 rotate no_reflect no_shear #
lump $-1 $-1 $37 $1 #
transform $-1 1 0 0 0 1 0 0 0 1 49.187292092654197 31.108969508033905 10.531972150134969 1 rotate no_reflect no_shear #
lump $-1 $-1 $38 $2 #
transform $-1 1 0 0 0 1 0 0 0 1 49.187292092654197 31.108969508033905 10.531972150134969 1 rotate no_reflect no_shear #
lump $-1 $-1 $39 $3 #
transform $-1 1 0 0 0 1 0 0 0 1 49.187292092654197 31.108969508033905 10.531972150134969 1 rotate no_reflect no_shear #
lump $-1 $-1 $40 $4 #
transform $-1 1 0 0 0 1 0 0 0 1 49.187292092654197 31.108969508033905 10.531972150134969 1 rotate no_reflect no_shear #
lump $-1 $-1 $41 $5 #
transform $-1 1 0 0 0 1 0 0 0 1 49.187292092654197 31.108969508033905 10.531972150134969 1 rotate no_reflect no_shear #
lump $-1 $-1 $42 $6 #
transform $-1 1 0 0 0 1 0 0 0 1 49.187292092654197 31.108969508033905 10.531972150134969 1 rotate no_reflect no_shear #
lump $-1 $-1 $43 $7 #
transform $-1 1 0 0 0 1 0 0 0 1 49.187292092654197 31.108969508033905 10.531972150134969 1 rotate no_reflect no_shear #
lump $-1 $-1 $44 $8 #
transform $-1 1 0 0 0 1 0 0 0 1 49.187292092654197 31.108969508033905 10.531972150134969 1 rotate no_reflect no_shear #
lump $-1 $-1 $45 $9 #
transform $-1 1 0 0 0 1 0 0 0 1 49.187292092654197 31.108969508033905 10.531972150134969 1 rotate no_reflect no_shear #
lump $-1 $-1 $46 $10 #
transform $-1 1 0 0 0 1 0 0 0 1 49.187292092654197 31.108969508033905 10.531972150134969 1 rotate no_reflect no_shear #
lump $-1 $-1 $47 $11 #
transform $-1 1 0 0 0 1 0 0 0 1 49.187292092654197 31.108969508033905 10.531972150134969 1 rotate no_reflect no_shear #
shell $-1 $-1 $-1 $48 $-1 $12 #
shell $-1 $-1 $-1 $49 $-1 $14 #
shell $-1 $-1 $-1 $50 $-1 $16 #
shell $-1 $-1 $-1 $51 $-1 $18 #
shell $-1 $-1 $-1 $52 $-1 $20 #
shell $-1 $-1 $-1 $53 $-1 $22 #
shell $-1 $-1 $-1 $54 $-1 $24 #
shell $-1 $-1 $-1 $55 $-1 $26 #
shell $-1 $-1 $-1 $56 $-1 $28 #
shell $-1 $-1 $-1 $57 $-1 $30 #
shell $-1 $-1 $-1 $58 $-1 $32 #
shell $-1 $-1 $-1 $59 $-1 $34 #
face $-1 $60 $61 $36 $-1 $62 forward single #
face $-1 $63 $64 $37 $-1 $65 forward single #
face $-1 $66 $67 $38 $-1 $68 reversed single #
face $-1 $69 $70 $39 $-1 $71 forward single #
face $-1 $72 $73 $40 $-1 $74 reversed single #
face $-1 $75 $76 $41 $-1 $77 forward single #
face $-1 $78 $79 $42 $-1 $80 reversed single #
face $-1 $81 $82 $43 $-1 $83 forward single #
face $-1 $84 $85 $44 $-1 $86 reversed single #
face $-1 $87 $88 $45 $-1 $89 forward single #
face $-1 $90 $91 $46 $-1 $92 reversed single #
face $-1 $93 $94 $47 $-1 $95 forward single #
face $-1 $96 $97 $36 $-1 $98 reversed single #
loop $-1 $-1 $99 $48 #
plane-surface $-1 0 0 10.531972150134969 0 0 1 1 0 0 forward_v I I I I #
face $-1 $100 $101 $37 $-1 $102 forward single #
loop $-1 $-1 $103 $49 #
plane-surface $-1 0 -31.108969508033905 0 0 1 0 0 0 1 forward_v I I I I #
face $-1 $104 $105 $38 $-1 $106 reversed single #
loop $-1 $-1 $107 $50 #
plane-surface $-1 25.028895012102801 -3.6917477325562835 142.06518632136718 0 -1 0 -0.57357644374324357 0 -0.81915203911291934 forward_v I I I I #
face $-1 $108 $109 $39 $-1 $110 forward single #
loop $-1 $111 $112 $51 #
cone-surface $-1 44.586677080419932 -8.3120503743201759 6.8079891827201067 -0.57357644374324357 0 -0.81915203911291934 0.81915203911291934 0 -0.57357644374324357 1 I I 0 1 1 forward I I I I #
face $-1 $113 $114 $40 $-1 $115 reversed single #
loop $-1 $-1 $116 $52 #
plane-surface $-1 -123.43153404312338 -20.0126148278047 69.496562550480263 0 1 0 -0.75470958851134928 0 0.65605901945558964 forward_v I I I I #
face $-1 $117 $118 $41 $-1 $119 forward single #
loop $-1 $120 $121 $53 #
cone-surface $-1 -46.231942625375474 -15.904731394193083 7.281833662190218 0.75470958851134928 0 -0.65605901945558964 0.65605901945558964 0 0.75470958851134928 1 I I 0 1 1 forward I I I I #
face $-1 $122 $123 $42 $-1 $124 reversed single #
loop $-1 $-1 $125 $54 #
plane-surface $-1 -123.43153404312338 -6.5246121639074248 69.496562550480263 0 1 0 -0.75470958851134928 0 0.65605901945558964 forward_v I I I I #
face $-1 $126 $127 $43 $-1 $128 forward single #
loop $-1 $129 $130 $55 #
cone-surface $-1 -46.231942625375474 -2.4167287302958087 7.281833662190218 0.75470958851134928 0 -0.65605901945558964 0.65605901945558964 0 0.75470958851134928 1 I I 0 1 1 forward I I I I #
face $-1 $131 $132 $44 $-1 $133 reversed single #
loop $-1 $-1 $134 $56 #
plane-surface $-1 -123.43153404312338 6.9633904999898517 69.496562550480263 0 1 0 -0.75470958851134928 0 0.65605901945558964 forward_v I I I I #
face $-1 $135 $136 $45 $-1 $137 forward single #
loop $-1 $138 $139 $57 #
cone-surface $-1 -46.231942625375474 11.071273933601464 7.281833662190218 0.75470958851134928 0 -0.65605901945558964 0.65605901945558964 0 0.75470958851134928 1 I I 0 1 1 forward I I I I #
face $-1 $140 $141 $46 $-1 $142 reversed single #
loop $-1 $-1 $143 $58 #
plane-surface $-1 -123.43153404312338 20.451393163887129 69.496562550480263 0 1 0 -0.75470958851134928 0 0.65605901945558964 forward_v I I I I #
face $-1 $144 $145 $47 $-1 $146 forward single #
loop $-1 $147 $148 $59 #
cone-surface $-1 -46.231942625375474 24.559276597498741 7.281833662190218 0.75470958851134928 0 -0.65605901945558964 0.65605901945558964 0 0.75470958851134928 1 I I 0 1 1 forward I I I I #
face $-1 $149 $150 $36 $-1 $151 reversed single #
loop $-1 $-1 $152 $60 #
plane-surface $-1 0 0 -10.531972150134969 0 0 1 1 0 0 forward_v I I I I #
coedge $-1 $153 $154 $155 $156 forward $61 $-1 #
face $-1 $157 $158 $37 $-1 $159 reversed single #
loop $-1 $-1 $160 $63 #
plane-surface $-1 0 0 10.531972150134969 0 0 1 1 0 0 forward_v I I I I #
coedge $-1 $161 $162 $163 $164 forward $64 $-1 #
face $-1 $165 $166 $38 $-1 $167 reversed single #
loop $-1 $-1 $168 $66 #
plane-surface $-1 -31.396449139626718 -8.3120503743201759 61.481445089086264 0.57357644374324357 0 0.81915203911291934 0.81915203911291934 0 -0.57357644374324357 forward_v I I I I #
coedge $-1 $169 $170 $171 $172 reversed $67 $-1 #
face $-1 $-1 $173 $39 $-1 $174 forward single #
loop $-1 $175 $176 $69 #
cone-surface $-1 43.609451050065239 -8.3120503743201759 5.4123658021378915 -0.57357644374324357 0 -0.81915203911291934 0.40957601955645967 0 -0.28678822187162178 1 I I -0.70710678118654746 0.70710678118654746 0.5 forward I I I I #
loop $-1 $-1 $177 $51 #
coedge $-1 $112 $112 $178 $179 reversed $70 $-1 #
face $-1 $180 $181 $40 $-1 $182 reversed single #
loop $-1 $-1 $183 $72 #
plane-surface $-1 -49.187292092654189 -15.904731394193082 4.9570293105154803 -0.75470958851134928 0 0.65605901945558964 0.65605901945558964 0 0.75470958851134928 forward_v I I I I #
coedge $-1 $184 $185 $186 $187 reversed $73 $-1 #
face $-1 $-1 $188 $41 $-1 $189 forward single #
loop $-1 $190 $191 $75 #
cone-surface $-1 -45.322350239295091 -15.904731394193083 6.4911370843274163 0.75470958851134928 0 -0.65605901945558964 0.32802950972779482 0 0.37735479425567464 1 I I -0.70710678118654746 0.70710678118654746 0.5 forward I I I I #
loop $-1 $-1 $192 $53 #
coedge $-1 $121 $121 $193 $194 reversed $76 $-1 #
face $-1 $195 $196 $42 $-1 $197 reversed single #
loop $-1 $-1 $198 $78 #
plane-surface $-1 -49.187292092654189 -2.4167287302958051 4.9570293105154803 -0.75470958851134928 0 0.65605901945558964 0.65605901945558964 0 0.75470958851134928 forward_v I I I I #
coedge $-1 $199 $200 $201 $202 reversed $79 $-1 #
face $-1 $-1 $203 $43 $-1 $204 forward single #
loop $-1 $205 $206 $81 #
cone-surface $-1 -45.322350239295091 -2.4167287302958087 6.4911370843274163 0.75470958851134928 0 -0.65605901945558964 0.32802950972779482 0 0.37735479425567464 1 I I -0.70710678118654746 0.70710678118654746 0.5 forward I I I I #
loop $-1 $-1 $207 $55 #
coedge $-1 $130 $130 $208 $209 reversed $82 $-1 #
face $-1 $210 $211 $44 $-1 $212 reversed single #
loop $-1 $-1 $213 $84 #
plane-surface $-1 -49.187292092654189 11.071273933601471 4.9570293105154803 -0.75470958851134928 0 0.65605901945558964 0.65605901945558964 0 0.75470958851134928 forward_v I I I I #
coedge $-1 $214 $215 $216 $217 reversed $85 $-1 #
face $-1 $-1 $218 $45 $-1 $219 forward single #
loop $-1 $220 $221 $87 #
cone-surface $-1 -45.322350239295091 11.071273933601464 6.4911370843274163 0.75470958851134928 0 -0.65605901945558964 0.32802950972779482 0 0.37735479425567464 1 I I -0.70710678118654746 0.70710678118654746 0.5 forward I I I I #
loop $-1 $-1 $222 $57 #
coedge $-1 $139 $139 $223 $224 reversed $88 $-1 #
face $-1 $225 $226 $46 $-1 $227 reversed single #
loop $-1 $-1 $228 $90 #
plane-surface $-1 -49.187292092654189 24.559276597498748 4.9570293105154803 -0.75470958851134928 0 0.65605901945558964 0.65605901945558964 0 0.75470958851134928 forward_v I I I I #
coedge $-1 $229 $230 $231 $232 reversed $91 $-1 #
face $-1 $-1 $233 $47 $-1 $234 forward single #
loop $-1 $235 $236 $93 #
cone-surface $-1 -45.322350239295091 24.559276597498741 6.4911370843274163 0.75470958851134928 0 -0.65605901945558964 0.32802950972779482 0 0.37735479425567464 1 I I -0.70710678118654746 0.70710678118654746 0.5 forward I I I I #
loop $-1 $-1 $237 $59 #
coedge $-1 $148 $148 $238 $239 reversed $94 $-1 #
face $-1 $240 $241 $36 $-1 $242 reversed single #
loop $-1 $-1 $243 $96 #
plane-surface $-1 0 -31.108969508033905 0 0 1 0 0 0 1 forward_v I I I I #
coedge $-1 $244 $245 $246 $247 forward $97 $-1 #
coedge $-1 $248 $99 $249 $250 forward $61 $-1 #
coedge $-1 $99 $248 $251 $252 forward $61 $-1 #
coedge $-1 $253 $254 $99 $156 reversed $255 $-1 #
edge $-1 $256 -31.108969508033905 $257 31.108969508033905 $155 $258 forward 7 unknown #
face $-1 $259 $260 $37 $-1 $261 reversed single #
loop $-1 $-1 $262 $100 #
plane-surface $-1 -49.187292092654197 0 0 1 0 0 0 0 -1 forward_v I I I I #
coedge $-1 $263 $264 $162 $265 forward $101 $-1 #
coedge $-1 $266 $103 $267 $268 reversed $64 $-1 #
coedge $-1 $103 $266 $160 $265 reversed $64 $-1 #
coedge $-1 $269 $270 $103 $164 reversed $271 $-1 #
edge $-1 $272 -10.531972150134969 $273 10.531972150134969 $163 $274 forward 7 unknown #
face $-1 $275 $276 $38 $-1 $277 forward single #
loop $-1 $-1 $278 $104 #
plane-surface $-1 25.028895012102801 -12.932353016084068 142.06518632136718 0 1 0 0.57357644374324357 0 0.81915203911291934 forward_v I I I I #
coedge $-1 $279 $280 $281 $282 reversed $105 $-1 #
coedge $-1 $170 $107 $283 $284 reversed $67 $-1 #
coedge $-1 $107 $169 $279 $285 reversed $67 $-1 #
coedge $-1 $281 $286 $107 $172 forward $276 $-1 #
edge $-1 $287 -36.672844586602793 $288 -28.852490179100418 $171 $289 forward 7 unknown #
loop $-1 $-1 $178 $108 #
plane-surface $-1 -31.396449139626718 -8.3120503743201759 61.481445089086264 0.57357644374324357 0 0.81915203911291934 0.81915203911291934 0 -0.57357644374324357 forward_v I I I I #
loop $-1 $-1 $290 $69 #
coedge $-1 $176 $176 $177 $291 reversed $109 $-1 #
coedge $-1 $177 $177 $176 $291 forward $111 $-1 #
coedge $-1 $178 $178 $112 $179 forward $173 $-1 #
edge $-1 $292 0 $292 6.2831853071796004 $178 $293 forward 7 unknown #
face $-1 $294 $295 $40 $-1 $296 reversed single #
loop $-1 $-1 $297 $113 #
plane-surface $-1 -123.43153404312338 -11.796847960581463 69.496562550480263 0 -1 0 0.75470958851134928 0 -0.65605901945558964 forward_v I I I I #
coedge $-1 $298 $299 $300 $301 reversed $114 $-1 #
coedge $-1 $185 $116 $302 $303 reversed $73 $-1 #
coedge $-1 $116 $184 $298 $304 reversed $73 $-1 #
coedge $-1 $300 $305 $116 $187 forward $306 $-1 #
edge $-1 $307 12.528474928907492 $308 17.374698679815523 $186 $309 forward 7 unknown #
loop $-1 $-1 $193 $117 #
plane-surface $-1 -49.187292092654189 -15.904731394193082 4.9570293105154803 -0.75470958851134928 0 0.65605901945558964 0.65605901945558964 0 0.75470958851134928 forward_v I I I I #
loop $-1 $-1 $310 $75 #
coedge $-1 $191 $191 $192 $311 reversed $118 $-1 #
coedge $-1 $192 $192 $191 $311 forward $120 $-1 #
coedge $-1 $193 $193 $121 $194 forward $188 $-1 #
edge $-1 $312 0 $312 6.2831853071796004 $193 $313 forward 7 unknown #
face $-1 $314 $315 $42 $-1 $316 forward single #
loop $-1 $-1 $317 $122 #
plane-surface $-1 -123.43153404312338 1.6911547033158145 69.496562550480263 0 -1 0 0.75470958851134928 0 -0.65605901945558964 forward_v I I I I #
coedge $-1 $318 $319 $320 $321 reversed $123 $-1 #
coedge $-1 $200 $125 $322 $323 reversed $79 $-1 #
coedge $-1 $125 $199 $318 $324 reversed $79 $-1 #
coedge $-1 $320 $325 $125 $202 forward $315 $-1 #
edge $-1 $326 12.528474928907492 $327 17.374698679815523 $201 $328 forward 7 unknown #
loop $-1 $-1 $208 $126 #
plane-surface $-1 -49.187292092654189 -2.4167287302958051 4.9570293105154803 -0.75470958851134928 0 0.65605901945558964 0.65605901945558964 0 0.75470958851134928 forward_v I I I I #
loop $-1 $-1 $329 $81 #
coedge $-1 $206 $206 $207 $330 reversed $127 $-1 #
coedge $-1 $207 $207 $206 $330 forward $129 $-1 #
coedge $-1 $208 $208 $130 $209 forward $203 $-1 #
edge $-1 $331 0 $331 6.2831853071796004 $208 $332 forward 7 unknown #
face $-1 $333 $334 $44 $-1 $335 forward single #
loop $-1 $-1 $336 $131 #
plane-surface $-1 -123.43153404312338 15.17915736721309 69.496562550480263 0 -1 0 0.75470958851134928 0 -0.65605901945558964 forward_v I I I I #
coedge $-1 $337 $338 $339 $340 reversed $132 $-1 #
coedge $-1 $215 $134 $341 $342 reversed $85 $-1 #
coedge $-1 $134 $214 $337 $343 reversed $85 $-1 #
coedge $-1 $339 $344 $134 $217 forward $334 $-1 #
edge $-1 $345 12.528474928907492 $346 17.374698679815523 $216 $347 forward 7 unknown #
loop $-1 $-1 $223 $135 #
plane-surface $-1 -49.187292092654189 11.071273933601471 4.9570293105154803 -0.75470958851134928 0 0.65605901945558964 0.65605901945558964 0 0.75470958851134928 forward_v I I I I #
loop $-1 $-1 $348 $87 #
coedge $-1 $221 $221 $222 $349 reversed $136 $-1 #
coedge $-1 $222 $222 $221 $349 forward $138 $-1 #
coedge $-1 $223 $223 $139 $224 forward $218 $-1 #
edge $-1 $350 0 $350 6.2831853071796004 $223 $351 forward 7 unknown #
face $-1 $352 $353 $46 $-1 $354 forward single #
loop $-1 $-1 $355 $140 #
plane-surface $-1 -123.43153404312338 28.667160031110367 69.496562550480263 0 -1 0 0.75470958851134928 0 -0.65605901945558964 forward_v I I I I #
coedge $-1 $356 $357 $358 $359 reversed $141 $-1 #
coedge $-1 $230 $143 $360 $361 reversed $91 $-1 #
coedge $-1 $143 $229 $356 $362 reversed $91 $-1 #
coedge $-1 $358 $363 $143 $232 forward $353 $-1 #
edge $-1 $364 12.528474928907492 $365 17.374698679815523 $231 $366 forward 7 unknown #
loop $-1 $-1 $238 $144 #
plane-surface $-1 -49.187292092654189 24.559276597498748 4.9570293105154803 -0.75470958851134928 0 0.65605901945558964 0.65605901945558964 0 0.75470958851134928 forward_v I I I I #
loop $-1 $-1 $367 $93 #
coedge $-1 $236 $236 $237 $368 reversed $145 $-1 #
coedge $-1 $237 $237 $236 $368 forward $147 $-1 #
coedge $-1 $238 $238 $148 $239 forward $233 $-1 #
edge $-1 $369 0 $369 6.2831853071796004 $238 $370 forward 7 unknown #
face $-1 $371 $372 $36 $-1 $373 reversed single #
loop $-1 $-1 $374 $149 #
plane-surface $-1 -49.187292092654197 0 0 1 0 0 0 0 -1 forward_v I I I I #
coedge $-1 $375 $251 $376 $377 forward $150 $-1 #
coedge $-1 $378 $152 $375 $379 forward $97 $-1 #
coedge $-1 $152 $378 $380 $381 forward $97 $-1 #
coedge $-1 $254 $253 $152 $247 reversed $255 $-1 #
edge $-1 $382 -31.108969508033905 $383 31.108969508033905 $246 $384 forward 7 unknown #
coedge $-1 $154 $153 $385 $386 forward $61 $-1 #
coedge $-1 $387 $388 $153 $250 reversed $372 $-1 #
edge $-1 $257 -49.187292092654197 $389 49.187292092654197 $249 $390 forward 7 unknown #
coedge $-1 $243 $391 $154 $252 reversed $150 $-1 #
edge $-1 $392 -49.187292092654197 $256 49.187292092654197 $251 $393 forward 7 unknown #
coedge $-1 $246 $155 $391 $394 forward $255 $-1 #
coedge $-1 $155 $246 $387 $395 reversed $255 $-1 #
loop $-1 $-1 $253 $371 #
vertex $-1 $156 $396 #
vertex $-1 $156 $397 #
straight-curve $-1 49.187292092654197 0 10.531972150134969 0 1 0 I I #
face $-1 $398 $271 $37 $-1 $399 reversed single #
loop $-1 $-1 $400 $157 #
plane-surface $-1 -47.553867327806302 -39.374897868512619 0 0 1 0 0 0 1 forward_v I I I I #
coedge $-1 $401 $402 $266 $403 forward $158 $-1 #
coedge $-1 $404 $160 $402 $405 forward $101 $-1 #
coedge $-1 $160 $404 $269 $406 forward $101 $-1 #
edge $-1 $272 45.920442562958407 $407 49.187292092654197 $160 $408 forward 7 unknown #
coedge $-1 $162 $161 $262 $403 reversed $64 $-1 #
coedge $-1 $409 $410 $161 $268 forward $411 $-1 #
edge $-1 $412 -49.187292092654197 $273 -45.920442562958407 $267 $413 forward 7 unknown #
coedge $-1 $414 $163 $264 $406 reversed $271 $-1 #
coedge $-1 $163 $414 $409 $415 reversed $271 $-1 #
loop $-1 $-1 $414 $259 #
vertex $-1 $265 $416 #
vertex $-1 $415 $417 #
straight-curve $-1 -45.920442562958407 -31.108969508033905 0 0 0 -1 I I #
face $-1 $-1 $418 $38 $-1 $419 reversed single #
loop $-1 $-1 $171 $165 #
plane-surface $-1 0 0 10.531972150134969 0 0 1 1 0 0 forward_v I I I I #
coedge $-1 $420 $421 $422 $423 reversed $166 $-1 #
coedge $-1 $424 $168 $170 $285 forward $105 $-1 #
coedge $-1 $168 $424 $420 $425 forward $105 $-1 #
coedge $-1 $422 $171 $168 $282 forward $276 $-1 #
edge $-1 $288 -0.46427745460380443 $426 8.7763278289239803 $281 $427 forward 7 unknown #
coedge $-1 $428 $429 $169 $284 forward $418 $-1 #
edge $-1 $430 -65.976492223326844 $287 -60.50062101054862 $283 $431 forward 7 unknown #
edge $-1 $288 88.827694189195782 $430 98.374584185308393 $170 $432 forward 7 unknown #
coedge $-1 $171 $422 $428 $433 forward $276 $-1 #
vertex $-1 $284 $434 #
vertex $-1 $172 $435 #
straight-curve $-1 12.5144475060514 -3.6917477325562835 10.531972150134976 -1 0 0 I I #
coedge $-1 $290 $290 $-1 $436 reversed $175 $-1 #
edge $-1 $437 0 $437 6.2831853071796004 $176 $438 forward 7 unknown #
vertex $-1 $179 $439 #
ellipse-curve $-1 45.277114888903 -8.3120503743201759 7.7940365437458619 0.57357644374324357 0 0.81915203911291934 0.81915203911291934 0 -0.57357644374324357 1 I I #
face $-1 $-1 $306 $40 $-1 $440 forward single #
loop $-1 $-1 $441 $180 #
plane-surface $-1 -49.187292092654197 0 0 1 0 0 0 0 -1 forward_v I I I I #
coedge $-1 $442 $443 $444 $445 reversed $181 $-1 #
coedge $-1 $446 $183 $185 $304 forward $114 $-1 #
coedge $-1 $183 $446 $442 $447 forward $114 $-1 #
coedge $-1 $444 $186 $183 $301 forward $306 $-1 #
edge $-1 $308 -12.06024913070816 $448 -3.8444822634849221 $300 $449 forward 7 unknown #
coedge $-1 $450 $451 $184 $303 forward $295 $-1 #
edge $-1 $452 -29.791251964724658 $307 -24.216309125105163 $302 $453 forward 7 unknown #
edge $-1 $308 -7.3868716185466274 $452 1.0694430631949516e-014 $185 $454 forward 7 unknown #
coedge $-1 $186 $444 $450 $455 forward $306 $-1 #
loop $-1 $-1 $444 $294 #
vertex $-1 $303 $456 #
vertex $-1 $187 $457 #
straight-curve $-1 -61.715767021561689 -20.0126148278047 10.531972150134969 1 0 0 I I #
coedge $-1 $310 $310 $-1 $458 reversed $190 $-1 #
edge $-1 $459 0 $459 6.2831853071796004 $191 $460 forward 7 unknown #
vertex $-1 $194 $461 #
ellipse-curve $-1 -46.764180217200177 -15.904731394193083 7.744500730325222 -0.75470958851134928 0 0.65605901945558964 0.65605901945558964 0 0.75470958851134928 1 I I #
face $-1 $-1 $462 $42 $-1 $463 reversed single #
loop $-1 $-1 $201 $195 #
plane-surface $-1 0 0 10.531972150134969 0 0 1 1 0 0 forward_v I I I I #
coedge $-1 $464 $465 $466 $467 reversed $196 $-1 #
coedge $-1 $468 $198 $200 $324 forward $123 $-1 #
coedge $-1 $198 $468 $464 $469 forward $123 $-1 #
coedge $-1 $466 $201 $198 $321 forward $315 $-1 #
edge $-1 $327 -5.3162477987595222 $470 2.8995190684637171 $320 $471 forward 7 unknown #
coedge $-1 $472 $473 $199 $323 forward $462 $-1 #
edge $-1 $474 -29.791251964724658 $326 -24.216309125105163 $322 $475 forward 7 unknown #
edge $-1 $327 -7.3868716185466274 $474 1.0694430631949516e-014 $200 $476 forward 7 unknown #
coedge $-1 $201 $466 $472 $477 forward $315 $-1 #
vertex $-1 $323 $478 #
vertex $-1 $202 $479 #
straight-curve $-1 -61.715767021561689 -6.5246121639074248 10.531972150134969 1 0 0 I I #
coedge $-1 $329 $329 $-1 $480 reversed $205 $-1 #
edge $-1 $481 0 $481 6.2831853071796004 $206 $482 forward 7 unknown #
vertex $-1 $209 $483 #
ellipse-curve $-1 -46.764180217200177 -2.4167287302958087 7.744500730325222 -0.75470958851134928 0 0.65605901945558964 0.65605901945558964 0 0.75470958851134928 1 I I #
face $-1 $-1 $484 $44 $-1 $485 reversed single #
loop $-1 $-1 $216 $210 #
plane-surface $-1 0 0 10.531972150134969 0 0 1 1 0 0 forward_v I I I I #
coedge $-1 $486 $487 $488 $489 reversed $211 $-1 #
coedge $-1 $490 $213 $215 $343 forward $132 $-1 #
coedge $-1 $213 $490 $486 $491 forward $132 $-1 #
coedge $-1 $488 $216 $213 $340 forward $334 $-1 #
edge $-1 $346 1.427753533189116 $492 9.6435204004123545 $339 $493 forward 7 unknown #
coedge $-1 $494 $495 $214 $342 forward $484 $-1 #
edge $-1 $496 -29.791251964724658 $345 -24.216309125105163 $341 $497 forward 7 unknown #
edge $-1 $346 -7.3868716185466274 $496 1.0694430631949516e-014 $215 $498 forward 7 unknown #
coedge $-1 $216 $488 $494 $499 forward $334 $-1 #
vertex $-1 $217 $500 #
vertex $-1 $217 $501 #
straight-curve $-1 -61.715767021561689 6.9633904999898517 10.531972150134969 1 0 0 I I #
coedge $-1 $348 $348 $-1 $502 reversed $220 $-1 #
edge $-1 $503 0 $503 6.2831853071796004 $221 $504 forward 7 unknown #
vertex $-1 $224 $505 #
ellipse-curve $-1 -46.764180217200177 11.071273933601464 7.744500730325222 -0.75470958851134928 0 0.65605901945558964 0.65605901945558964 0 0.75470958851134928 1 I I #
face $-1 $-1 $506 $46 $-1 $507 reversed single #
loop $-1 $-1 $231 $225 #
plane-surface $-1 0 0 10.531972150134969 0 0 1 1 0 0 forward_v I I I I #
coedge $-1 $508 $509 $510 $511 reversed $226 $-1 #
coedge $-1 $512 $228 $230 $362 forward $141 $-1 #
coedge $-1 $228 $512 $508 $513 forward $141 $-1 #
coedge $-1 $510 $231 $228 $359 forward $353 $-1 #
edge $-1 $365 8.1717548651377552 $514 16.387521732360995 $358 $515 forward 7 unknown #
coedge $-1 $516 $517 $229 $361 forward $506 $-1 #
edge $-1 $518 -29.791251964724658 $364 -24.216309125105163 $360 $519 forward 7 unknown #
edge $-1 $365 -7.3868716185466274 $518 1.0694430631949516e-014 $230 $520 forward 7 unknown #
coedge $-1 $231 $510 $516 $521 forward $353 $-1 #
vertex $-1 $232 $522 #
vertex $-1 $232 $523 #
straight-curve $-1 -61.715767021561689 20.451393163887129 10.531972150134969 1 0 0 I I #
coedge $-1 $367 $367 $-1 $524 reversed $235 $-1 #
edge $-1 $525 0 $525 6.2831853071796004 $236 $526 forward 7 unknown #
vertex $-1 $239 $527 #
ellipse-curve $-1 -46.764180217200177 24.559276597498741 7.744500730325222 -0.75470958851134928 0 0.65605901945558964 0.65605901945558964 0 0.75470958851134928 1 I I #
face $-1 $-1 $255 $36 $-1 $528 reversed single #
loop $-1 $-1 $387 $240 #
plane-surface $-1 0 31.108969508033905 0 0 -1 0 0 0 -1 forward_v I I I I #
coedge $-1 $529 $385 $388 $530 forward $241 $-1 #
coedge $-1 $391 $243 $244 $379 reversed $150 $-1 #
coedge $-1 $385 $529 $243 $377 reversed $241 $-1 #
edge $-1 $392 -10.531972150134969 $531 10.531972150134969 $376 $532 forward 7 unknown #
coedge $-1 $245 $244 $529 $533 forward $97 $-1 #
edge $-1 $383 -49.187292092654197 $531 49.187292092654197 $375 $534 forward 7 unknown #
coedge $-1 $388 $387 $245 $381 reversed $372 $-1 #
edge $-1 $535 -49.187292092654197 $382 49.187292092654197 $380 $536 forward 7 unknown #
vertex $-1 $247 $537 #
vertex $-1 $394 $538 #
straight-curve $-1 49.187292092654197 0 -10.531972150134969 0 -1 0 I I #
coedge $-1 $374 $376 $248 $386 reversed $241 $-1 #
edge $-1 $389 -31.108969508033905 $392 31.108969508033905 $385 $539 forward 7 unknown #
coedge $-1 $380 $249 $254 $395 forward $372 $-1 #
coedge $-1 $249 $380 $374 $530 reversed $372 $-1 #
vertex $-1 $250 $540 #
straight-curve $-1 0 31.108969508033905 10.531972150134969 -1 0 0 I I #
coedge $-1 $251 $375 $253 $394 reversed $150 $-1 #
vertex $-1 $386 $541 #
straight-curve $-1 0 -31.108969508033905 10.531972150134969 1 0 0 I I #
edge $-1 $256 -10.531972150134969 $383 10.531972150134969 $253 $542 forward 7 unknown #
edge $-1 $257 -10.531972150134969 $382 10.531972150134969 $254 $543 forward 7 unknown #
point $-1 49.187292092654197 -31.108969508033905 10.531972150134969 #
point $-1 49.187292092654197 31.108969508033905 10.531972150134969 #
face $-1 $-1 $411 $37 $-1 $544 reversed single #
plane-surface $-1 -45.920442562958407 -35.241933688273264 0 -1 0 0 0 0 1 forward_v I I I I #
coedge $-1 $545 $546 $547 $548 forward $260 $-1 #
coedge $-1 $547 $262 $410 $549 reversed $158 $-1 #
coedge $-1 $262 $547 $263 $405 reversed $158 $-1 #
edge $-1 $407 -10.531972150134969 $412 10.531972150134969 $262 $550 forward 7 unknown #
coedge $-1 $264 $263 $546 $551 forward $101 $-1 #
edge $-1 $407 31.108969508033905 $552 39.374897868512619 $402 $553 forward 7 unknown #
edge $-1 $554 -4.1329641802393553 $272 4.1329641802393553 $269 $555 forward 7 unknown #
vertex $-1 $405 $556 #
straight-curve $-1 0 -31.108969508033905 10.531972150134969 -1 0 0 I I #
coedge $-1 $557 $267 $270 $415 forward $411 $-1 #
coedge $-1 $267 $557 $401 $549 forward $411 $-1 #
loop $-1 $-1 $267 $398 #
vertex $-1 $403 $558 #
straight-curve $-1 0 -31.108969508033905 -10.531972150134969 1 0 0 I I #
coedge $-1 $270 $269 $559 $560 forward $271 $-1 #
edge $-1 $273 -4.1329641802393553 $561 4.1329641802393553 $270 $562 forward 7 unknown #
point $-1 -45.920442562958407 -31.108969508033908 10.531972150134969 #
point $-1 -45.920442562958407 -31.108969508033908 -10.531972150134969 #
loop $-1 $-1 $283 $275 #
plane-surface $-1 49.187292092654197 0 0 -1 0 0 0 0 1 forward_v I I I I #
coedge $-1 $421 $278 $280 $425 reversed $166 $-1 #
coedge $-1 $278 $420 $563 $564 reversed $166 $-1 #
coedge $-1 $286 $281 $278 $423 forward $276 $-1 #
edge $-1 $426 28.852490179100418 $565 36.672844586602793 $422 $566 forward 7 unknown #
coedge $-1 $280 $279 $429 $567 reversed $105 $-1 #
edge $-1 $568 -98.374584185308393 $426 -88.827694189195782 $420 $569 forward 7 unknown #
vertex $-1 $282 $570 #
straight-curve $-1 41.366937685151825 -4.156025187160088 10.531972150134976 0 -1 0 I I #
coedge $-1 $563 $283 $286 $433 reversed $418 $-1 #
coedge $-1 $283 $563 $424 $567 forward $418 $-1 #
vertex $-1 $284 $571 #
straight-curve $-1 49.187292092654197 -3.6917477325562835 71.032593160683589 0 0 1 I I #
straight-curve $-1 -31.396449139626718 -3.6917477325562835 61.481445089086264 0.81915203911291934 0 -0.57357644374324357 I I #
edge $-1 $565 -12.932353016084068 $287 -3.6917477325562835 $428 $572 forward 7 unknown #
point $-1 49.187292092654197 -3.6917477325562835 10.531972150134969 #
point $-1 41.366937685151818 -3.6917477325562835 10.531972150134969 #
edge $-1 $573 1 $573 0 $290 $-1 forward 7 unknown #
vertex $-1 $291 $574 #
ellipse-curve $-1 43.896239271936864 -8.3120503743201759 5.8219418216943515 0.57357644374324357 0 0.81915203911291934 0.81915203911291934 0 -0.57357644374324357 1 I I #
point $-1 46.096266928015922 -8.3120503743201759 7.220460100002617 #
plane-surface $-1 0 0 10.531972150134969 0 0 1 1 0 0 forward_v I I I I #
coedge $-1 $451 $450 $443 $575 forward $295 $-1 #
coedge $-1 $443 $297 $299 $447 reversed $181 $-1 #
coedge $-1 $297 $442 $441 $575 reversed $181 $-1 #
coedge $-1 $305 $300 $297 $445 forward $306 $-1 #
edge $-1 $448 -17.374698679815523 $576 -12.528474928907492 $444 $577 forward 7 unknown #
coedge $-1 $299 $298 $451 $578 reversed $114 $-1 #
edge $-1 $579 -1.0694430631949516e-014 $448 7.3868716185466274 $442 $580 forward 7 unknown #
vertex $-1 $301 $581 #
straight-curve $-1 -44.341068341746166 -7.9523656970965408 10.531972150134969 0 1 0 I I #
coedge $-1 $441 $302 $305 $455 reversed $295 $-1 #
coedge $-1 $302 $441 $446 $578 forward $295 $-1 #
vertex $-1 $303 $582 #
straight-curve $-1 -49.187292092654197 -20.0126148278047 34.748281275240132 0 0 1 I I #
straight-curve $-1 -49.187292092654189 -20.0126148278047 4.9570293105154803 -0.65605901945558964 0 -0.75470958851134928 I I #
edge $-1 $576 11.796847960581463 $307 20.0126148278047 $450 $583 forward 7 unknown #
point $-1 -49.187292092654197 -20.0126148278047 10.531972150134969 #
point $-1 -44.341068341746166 -20.0126148278047 10.531972150134969 #
edge $-1 $584 1 $584 0 $310 $-1 forward 7 unknown #
vertex $-1 $311 $585 #
ellipse-curve $-1 -45.699705033550764 -15.904731394193083 6.8191665940552113 -0.75470958851134928 0 0.65605901945558964 0.65605901945558964 0 0.75470958851134928 1 I I #
point $-1 -46.108121197744595 -15.904731394193083 8.4992103188365729 #
loop $-1 $-1 $322 $314 #
plane-surface $-1 -49.187292092654197 0 0 1 0 0 0 0 -1 forward_v I I I I #
coedge $-1 $465 $317 $319 $469 reversed $196 $-1 #
coedge $-1 $317 $464 $586 $587 reversed $196 $-1 #
coedge $-1 $325 $320 $317 $467 forward $315 $-1 #
edge $-1 $470 -17.374698679815523 $588 -12.528474928907492 $466 $589 forward 7 unknown #
coedge $-1 $319 $318 $473 $590 reversed $123 $-1 #
edge $-1 $591 -1.0694430631949516e-014 $470 7.3868716185466274 $464 $592 forward 7 unknown #
vertex $-1 $321 $593 #
straight-curve $-1 -44.341068341746166 -1.2083643651479026 10.531972150134969 0 1 0 I I #
coedge $-1 $586 $322 $325 $477 reversed $462 $-1 #
coedge $-1 $322 $586 $468 $590 forward $462 $-1 #
vertex $-1 $323 $594 #
straight-curve $-1 -49.187292092654197 -6.5246121639074248 34.748281275240132 0 0 1 I I #
straight-curve $-1 -49.187292092654189 -6.5246121639074248 4.9570293105154803 -0.65605901945558964 0 -0.75470958851134928 I I #
edge $-1 $588 -1.6911547033158145 $326 6.5246121639074248 $472 $595 forward 7 unknown #
point $-1 -49.187292092654197 -6.5246121639074248 10.531972150134969 #
point $-1 -44.341068341746166 -6.5246121639074248 10.531972150134969 #
edge $-1 $596 1 $596 0 $329 $-1 forward 7 unknown #
vertex $-1 $330 $597 #
ellipse-curve $-1 -45.699705033550764 -2.4167287302958087 6.8191665940552113 -0.75470958851134928 0 0.65605901945558964 0.65605901945558964 0 0.75470958851134928 1 I I #
point $-1 -46.108121197744595 -2.4167287302958087 8.4992103188365729 #
loop $-1 $-1 $341 $333 #
plane-surface $-1 -49.187292092654197 0 0 1 0 0 0 0 -1 forward_v I I I I #
coedge $-1 $487 $336 $338 $491 reversed $211 $-1 #
coedge $-1 $336 $486 $598 $599 reversed $211 $-1 #
coedge $-1 $344 $339 $336 $489 forward $334 $-1 #
edge $-1 $492 -17.374698679815523 $600 -12.528474928907492 $488 $601 forward 7 unknown #
coedge $-1 $338 $337 $495 $602 reversed $132 $-1 #
edge $-1 $603 -1.0694430631949516e-014 $492 7.3868716185466274 $486 $604 forward 7 unknown #
vertex $-1 $340 $605 #
straight-curve $-1 -44.341068341746166 5.5356369668007357 10.531972150134969 0 1 0 I I #
coedge $-1 $598 $341 $344 $499 reversed $484 $-1 #
coedge $-1 $341 $598 $490 $602 forward $484 $-1 #
vertex $-1 $342 $606 #
straight-curve $-1 -49.187292092654197 6.9633904999898517 34.748281275240132 0 0 1 I I #
straight-curve $-1 -49.187292092654189 6.9633904999898517 4.9570293105154803 -0.65605901945558964 0 -0.75470958851134928 I I #
edge $-1 $600 -15.17915736721309 $345 -6.9633904999898517 $494 $607 forward 7 unknown #
point $-1 -49.187292092654197 6.9633904999898517 10.531972150134969 #
point $-1 -44.341068341746166 6.9633904999898517 10.531972150134969 #
edge $-1 $608 1 $608 0 $348 $-1 forward 7 unknown #
vertex $-1 $349 $609 #
ellipse-curve $-1 -45.699705033550764 11.071273933601464 6.8191665940552113 -0.75470958851134928 0 0.65605901945558964 0.65605901945558964 0 0.75470958851134928 1 I I #
point $-1 -46.108121197744595 11.071273933601464 8.4992103188365729 #
loop $-1 $-1 $360 $352 #
plane-surface $-1 -49.187292092654197 0 0 1 0 0 0 0 -1 forward_v I I I I #
coedge $-1 $509 $355 $357 $513 reversed $226 $-1 #
coedge $-1 $355 $508 $610 $611 reversed $226 $-1 #
coedge $-1 $363 $358 $355 $511 forward $353 $-1 #
edge $-1 $514 -17.374698679815523 $612 -12.528474928907492 $510 $613 forward 7 unknown #
coedge $-1 $357 $356 $517 $614 reversed $141 $-1 #
edge $-1 $615 -1.0694430631949516e-014 $514 7.3868716185466274 $508 $616 forward 7 unknown #
vertex $-1 $359 $617 #
straight-curve $-1 -44.341068341746166 12.279638298749374 10.531972150134969 0 1 0 I I #
coedge $-1 $610 $360 $363 $521 reversed $506 $-1 #
coedge $-1 $360 $610 $512 $614 forward $506 $-1 #
vertex $-1 $361 $618 #
straight-curve $-1 -49.187292092654197 20.451393163887129 34.748281275240132 0 0 1 I I #
straight-curve $-1 -49.187292092654189 20.451393163887129 4.9570293105154803 -0.65605901945558964 0 -0.75470958851134928 I I #
edge $-1 $612 -28.667160031110367 $364 -20.451393163887129 $516 $619 forward 7 unknown #
point $-1 -49.187292092654197 20.451393163887129 10.531972150134969 #
point $-1 -44.341068341746166 20.451393163887129 10.531972150134969 #
edge $-1 $620 1 $620 0 $367 $-1 forward 7 unknown #
vertex $-1 $368 $621 #
ellipse-curve $-1 -45.699705033550764 24.559276597498741 6.8191665940552113 -0.75470958851134928 0 0.65605901945558964 0.65605901945558964 0 0.75470958851134928 1 I I #
point $-1 -46.108121197744595 24.559276597498741 8.4992103188365729 #
plane-surface $-1 49.187292092654197 0 0 -1 0 0 0 0 1 forward_v I I I I #
coedge $-1 $376 $374 $378 $533 reversed $241 $-1 #
edge $-1 $389 -10.531972150134969 $535 10.531972150134969 $388 $622 forward 7 unknown #
vertex $-1 $533 $623 #
straight-curve $-1 -49.187292092654197 -31.108969508033905 0 0 0 -1 I I #
edge $-1 $531 -31.108969508033905 $535 31.108969508033905 $529 $624 forward 7 unknown #
straight-curve $-1 0 -31.108969508033905 -10.531972150134969 -1 0 0 I I #
vertex $-1 $381 $625 #
straight-curve $-1 0 31.108969508033905 -10.531972150134969 1 0 0 I I #
point $-1 49.187292092654197 31.108969508033905 -10.531972150134969 #
point $-1 49.187292092654197 -31.108969508033905 -10.531972150134969 #
straight-curve $-1 -49.187292092654197 0 10.531972150134969 0 -1 0 I I #
point $-1 -49.187292092654197 31.108969508033905 10.531972150134969 #
point $-1 -49.187292092654197 -31.108969508033905 10.531972150134969 #
straight-curve $-1 49.187292092654197 -31.108969508033905 0 0 0 -1 I I #
straight-curve $-1 49.187292092654197 31.108969508033905 0 0 0 -1 I I #
plane-surface $-1 0 0 -10.531972150134969 0 0 1 1 0 0 forward_v I I I I #
coedge $-1 $559 $400 $557 $626 reversed $260 $-1 #
coedge $-1 $400 $559 $404 $551 reversed $260 $-1 #
coedge $-1 $402 $401 $400 $548 reversed $158 $-1 #
edge $-1 $552 -10.531972150134969 $627 10.531972150134969 $547 $628 forward 7 unknown #
edge $-1 $627 -39.374897868512619 $412 -31.108969508033905 $401 $629 forward 7 unknown #
straight-curve $-1 -49.187292092654197 -31.108969508033905 0 0 0 -1 I I #
edge $-1 $552 -1.633424764847895 $554 1.633424764847895 $546 $630 forward 7 unknown #
vertex $-1 $405 $631 #
straight-curve $-1 -49.187292092654197 0 10.531972150134969 0 -1 0 I I #
vertex $-1 $406 $632 #
straight-curve $-1 -45.920442562958407 -35.241933688273264 10.531972150134969 0 1 0 I I #
point $-1 -49.187292092654197 -31.108969508033905 10.531972150134969 #
coedge $-1 $410 $409 $545 $626 forward $411 $-1 #
point $-1 -49.187292092654197 -31.108969508033905 -10.531972150134969 #
coedge $-1 $546 $545 $414 $560 reversed $260 $-1 #
edge $-1 $554 -10.531972150134969 $561 10.531972150134969 $414 $633 forward 7 unknown #
vertex $-1 $560 $634 #
straight-curve $-1 -45.920442562958407 -35.241933688273264 -10.531972150134969 0 -1 0 I I #
coedge $-1 $429 $428 $421 $564 forward $418 $-1 #
edge $-1 $565 60.50062101054862 $568 65.976492223326844 $563 $635 forward 7 unknown #
vertex $-1 $433 $636 #
straight-curve $-1 12.5144475060514 -12.932353016084068 10.531972150134976 1 0 0 I I #
edge $-1 $568 -8.7763278289239803 $430 0.46427745460380443 $429 $637 forward 7 unknown #
vertex $-1 $567 $638 #
straight-curve $-1 -31.396449139626718 -12.932353016084068 61.481445089086264 -0.81915203911291934 0 0.57357644374324357 I I #
point $-1 41.366937685151818 -12.932353016084068 10.531972150134969 #
point $-1 49.187292092654197 -3.6917477325562835 5.0561009373567458 #
straight-curve $-1 49.187292092654197 0 10.531972150134969 0 1 0 I I #
vertex $-1 $436 $639 #
point $-1 44.715391311049778 -8.3120503743201759 5.2483653779511075 #
edge $-1 $576 24.216309125105163 $579 29.791251964724658 $441 $640 forward 7 unknown #
vertex $-1 $455 $641 #
straight-curve $-1 -61.715767021561689 -11.796847960581463 10.531972150134969 -1 0 0 I I #
edge $-1 $579 3.8444822634849221 $452 12.06024913070816 $451 $642 forward 7 unknown #
vertex $-1 $578 $643 #
straight-curve $-1 -49.187292092654189 -11.796847960581463 4.9570293105154803 0.65605901945558964 0 0.75470958851134928 I I #
point $-1 -44.341068341746166 -11.796847960581463 10.531972150134969 #
point $-1 -49.187292092654197 -20.0126148278047 4.9570293105154724 #
straight-curve $-1 -49.187292092654197 0 10.531972150134969 0 -1 0 I I #
vertex $-1 $458 $644 #
point $-1 -45.043646014095174 -15.904731394193083 7.5738761825665604 #
coedge $-1 $473 $472 $465 $587 forward $462 $-1 #
edge $-1 $588 24.216309125105163 $591 29.791251964724658 $586 $645 forward 7 unknown #
vertex $-1 $477 $646 #
straight-curve $-1 -61.715767021561689 1.6911547033158145 10.531972150134969 -1 0 0 I I #
edge $-1 $591 -2.8995190684637171 $474 5.3162477987595222 $473 $647 forward 7 unknown #
vertex $-1 $590 $648 #
straight-curve $-1 -49.187292092654189 1.6911547033158145 4.9570293105154803 0.65605901945558964 0 0.75470958851134928 I I #
point $-1 -44.341068341746166 1.6911547033158145 10.531972150134969 #
point $-1 -49.187292092654197 -6.5246121639074248 4.9570293105154724 #
straight-curve $-1 -49.187292092654197 0 10.531972150134969 0 -1 0 I I #
vertex $-1 $480 $649 #
point $-1 -45.043646014095174 -2.4167287302958087 7.5738761825665604 #
coedge $-1 $495 $494 $487 $599 forward $484 $-1 #
edge $-1 $600 24.216309125105163 $603 29.791251964724658 $598 $650 forward 7 unknown #
vertex $-1 $499 $651 #
straight-curve $-1 -61.715767021561689 15.17915736721309 10.531972150134969 -1 0 0 I I #
edge $-1 $603 -9.6435204004123545 $496 -1.427753533189116 $495 $652 forward 7 unknown #
vertex $-1 $602 $653 #
straight-curve $-1 -49.187292092654189 15.17915736721309 4.9570293105154803 0.65605901945558964 0 0.75470958851134928 I I #
point $-1 -44.341068341746166 15.17915736721309 10.531972150134969 #
point $-1 -49.187292092654197 6.9633904999898517 4.9570293105154724 #
straight-curve $-1 -49.187292092654197 0 10.531972150134969 0 -1 0 I I #
vertex $-1 $502 $654 #
point $-1 -45.043646014095174 11.071273933601464 7.5738761825665604 #
coedge $-1 $517 $516 $509 $611 forward $506 $-1 #
edge $-1 $612 24.216309125105163 $615 29.791251964724658 $610 $655 forward 7 unknown #
vertex $-1 $521 $656 #
straight-curve $-1 -61.715767021561689 28.667160031110367 10.531972150134969 -1 0 0 I I #
edge $-1 $615 -16.387521732360995 $518 -8.1717548651377552 $517 $657 forward 7 unknown #
vertex $-1 $614 $658 #
straight-curve $-1 -49.187292092654189 28.667160031110367 4.9570293105154803 0.65605901945558964 0 0.75470958851134928 I I #
point $-1 -44.341068341746166 28.667160031110367 10.531972150134969 #
point $-1 -49.187292092654197 20.451393163887129 4.9570293105154724 #
straight-curve $-1 -49.187292092654197 0 10.531972150134969 0 -1 0 I I #
vertex $-1 $524 $659 #
point $-1 -45.043646014095174 24.559276597498741 7.5738761825665604 #
straight-curve $-1 -49.187292092654197 31.108969508033905 0 0 0 -1 I I #
point $-1 -49.187292092654197 -31.108969508033905 -10.531972150134969 #
straight-curve $-1 -49.187292092654197 0 -10.531972150134969 0 1 0 I I #
point $-1 -49.187292092654197 31.108969508033905 -10.531972150134969 #
edge $-1 $561 -1.633424764847895 $627 1.633424764847895 $545 $660 forward 7 unknown #
vertex $-1 $549 $661 #
straight-curve $-1 -49.187292092654197 -39.374897868512619 0 0 0 -1 I I #
straight-curve $-1 -49.187292092654197 0 -10.531972150134969 0 1 0 I I #
straight-curve $-1 -47.553867327806302 -39.374897868512619 10.531972150134969 1 0 0 I I #
point $-1 -49.187292092654197 -39.374897868512619 10.531972150134969 #
point $-1 -45.920442562958407 -39.374897868512619 10.531972150134969 #
straight-curve $-1 -45.920442562958407 -39.374897868512619 0 0 0 -1 I I #
point $-1 -45.920442562958407 -39.374897868512619 -10.531972150134969 #
straight-curve $-1 49.187292092654197 -12.932353016084068 71.032593160683589 0 0 -1 I I #
point $-1 49.187292092654197 -12.932353016084068 10.531972150134969 #
straight-curve $-1 49.187292092654204 -4.156025187160088 5.0561009373567494 0 1 0 I I #
point $-1 49.187292092654197 -12.932353016084068 5.0561009373567458 #
point $-1 43.322662828193614 -8.3120503743201759 5.0027897825814316 #
straight-curve $-1 -49.187292092654197 -11.796847960581463 34.748281275240132 0 0 -1 I I #
point $-1 -49.187292092654197 -11.796847960581463 10.531972150134969 #
straight-curve $-1 -49.187292092654197 -7.9523656970965408 4.9570293105154688 0 -1 0 I I #
point $-1 -49.187292092654197 -11.796847960581463 4.9570293105154724 #
point $-1 -44.944995445039417 -15.904731394193083 6.1631075745996213 #
straight-curve $-1 -49.187292092654197 1.6911547033158145 34.748281275240132 0 0 -1 I I #
point $-1 -49.187292092654197 1.6911547033158145 10.531972150134969 #
straight-curve $-1 -49.187292092654197 -1.2083643651479026 4.9570293105154688 0 -1 0 I I #
point $-1 -49.187292092654197 1.6911547033158145 4.9570293105154724 #
point $-1 -44.944995445039417 -2.4167287302958087 6.1631075745996213 #
straight-curve $-1 -49.187292092654197 15.17915736721309 34.748281275240132 0 0 -1 I I #
point $-1 -49.187292092654197 15.17915736721309 10.531972150134969 #
straight-curve $-1 -49.187292092654197 5.5356369668007357 4.9570293105154688 0 -1 0 I I #
point $-1 -49.187292092654197 15.17915736721309 4.9570293105154724 #
point $-1 -44.944995445039417 11.071273933601464 6.1631075745996213 #
straight-curve $-1 -49.187292092654197 28.667160031110367 34.748281275240132 0 0 -1 I I #
point $-1 -49.187292092654197 28.667160031110367 10.531972150134969 #
straight-curve $-1 -49.187292092654197 12.279638298749374 4.9570293105154688 0 -1 0 I I #
point $-1 -49.187292092654197 28.667160031110367 4.9570293105154724 #
point $-1 -44.944995445039417 24.559276597498741 6.1631075745996213 #
straight-curve $-1 -47.553867327806302 -39.374897868512619 -10.531972150134969 -1 0 0 I I #
point $-1 -49.187292092654197 -39.374897868512619 -10.531972150134969 #
End-of-ACIS-data 