500 0 6 0           
7 Unknown 11 ACIS 5.0 NT 24 Thu Mar 25 23:08:16 1999 
-1 9.9999999999999995e-007 1e-010 
body $-1 $6 $-1 $7 #
body $-1 $8 $-1 $9 #
body $-1 $10 $-1 $11 #
body $-1 $12 $-1 $13 #
body $-1 $14 $-1 $15 #
body $-1 $16 $-1 $17 #
lump $-1 $-1 $18 $0 #
transform $-1 1 0 0 0 1 0 0 0 1 74.503006073183386 32.344131656613314 11.046675367971595 1 rotate no_reflect no_shear #
lump $-1 $-1 $19 $1 #
transform $-1 1 0 0 0 1 0 0 0 1 74.503006073183386 32.344131656613314 11.046675367971595 1 rotate no_reflect no_shear #
lump $-1 $-1 $20 $2 #
transform $-1 1 0 0 0 1 0 0 0 1 74.503006073183386 32.344131656613314 11.046675367971595 1 rotate no_reflect no_shear #
lump $-1 $-1 $21 $3 #
transform $-1 1 0 0 0 1 0 0 0 1 74.503006073183386 32.344131656613314 11.046675367971595 1 rotate no_reflect no_shear #
lump $-1 $-1 $22 $4 #
transform $-1 1 0 0 0 1 0 0 0 1 74.503006073183386 32.344131656613314 11.046675367971595 1 rotate no_reflect no_shear #
lump $-1 $-1 $23 $5 #
transform $-1 1 0 0 0 1 0 0 0 1 74.503006073183386 32.344131656613314 11.046675367971595 1 rotate no_reflect no_shear #
shell $-1 $-1 $-1 $24 $-1 $6 #
shell $-1 $-1 $-1 $25 $-1 $8 #
shell $-1 $-1 $-1 $26 $-1 $10 #
shell $-1 $-1 $-1 $27 $-1 $12 #
shell $-1 $-1 $-1 $28 $-1 $14 #
shell $-1 $-1 $-1 $29 $-1 $16 #
face $-1 $30 $31 $18 $-1 $32 forward single #
face $-1 $33 $34 $19 $-1 $35 forward single #
face $-1 $36 $37 $20 $-1 $38 reversed single #
face $-1 $39 $40 $21 $-1 $41 forward single #
face $-1 $42 $43 $22 $-1 $44 forward single #
face $-1 $45 $46 $23 $-1 $47 forward single #
face $-1 $48 $49 $18 $-1 $50 reversed single #
loop $-1 $-1 $51 $24 #
plane-surface $-1 0 0 11.046675367971595 0 0 1 1 0 0 forward_v I I I I #
face $-1 $52 $53 $19 $-1 $54 reversed single #
loop $-1 $-1 $55 $25 #
plane-surface $-1 -74.503006073183386 0 0 1 0 0 0 0 -1 forward_v I I I I #
face $-1 $56 $57 $20 $-1 $58 reversed single #
loop $-1 $-1 $59 $26 #
plane-surface $-1 64.406379761500617 -126.11665465376794 117.50860449715879 -1 0 0 0 -0.62932039886446345 0.77714595512881146 forward_v I I I I #
face $-1 $60 $61 $21 $-1 $62 forward single #
loop $-1 $63 $64 $27 #
cone-surface $-1 42.140486753691007 -25.735019458562686 5.3360571854408096 0 0.62932039886446345 -0.77714595512881146 2.5 0 0 1 I I 0 1 2.5 forward I I I I #
face $-1 $65 $66 $22 $-1 $67 forward single #
loop $-1 $68 $69 $28 #
cone-surface $-1 50.490196631619611 -25.735019458562686 5.3360571854408096 0 0.62932039886446345 -0.77714595512881146 2.5 0 0 1 I I 0 1 2.5 forward I I I I #
face $-1 $70 $71 $23 $-1 $72 forward single #
loop $-1 $73 $74 $29 #
cone-surface $-1 58.839906509548214 -25.735019458562686 5.3360571854408096 0 0.62932039886446345 -0.77714595512881146 2.5 0 0 1 I I 0 1 2.5 forward I I I I #
face $-1 $75 $76 $18 $-1 $77 reversed single #
loop $-1 $-1 $78 $30 #
plane-surface $-1 0 0 -11.046675367971595 0 0 1 1 0 0 forward_v I I I I #
coedge $-1 $79 $80 $81 $82 forward $31 $-1 #
face $-1 $83 $84 $19 $-1 $85 forward single #
loop $-1 $-1 $86 $33 #
plane-surface $-1 0 32.344131656613314 0 0 -1 0 0 0 -1 forward_v I I I I #
coedge $-1 $87 $88 $89 $90 forward $34 $-1 #
face $-1 $91 $92 $20 $-1 $93 reversed single #
loop $-1 $-1 $94 $36 #
plane-surface $-1 50.490196631619611 -32.344131656613314 1.7091848677353028 0 -0.62932039886446345 0.77714595512881146 1 0 0 forward_v I I I I #
coedge $-1 $95 $96 $97 $98 reversed $37 $-1 #
face $-1 $-1 $99 $21 $-1 $100 forward single #
loop $-1 $101 $102 $39 #
cone-surface $-1 42.140486753691007 -24.104676877349661 3.3227518091171611 0 0.62932039886446345 -0.77714595512881146 1.25 0 0 1 I I -0.70710678118654746 0.70710678118654746 1.25 forward I I I I #
loop $-1 $-1 $103 $27 #
coedge $-1 $64 $64 $104 $105 reversed $40 $-1 #
face $-1 $-1 $106 $22 $-1 $107 forward single #
loop $-1 $108 $109 $42 #
cone-surface $-1 50.490196631619611 -24.104676877349661 3.3227518091171611 0 0.62932039886446345 -0.77714595512881146 1.25 0 0 1 I I -0.70710678118654746 0.70710678118654746 1.25 forward I I I I #
loop $-1 $-1 $110 $28 #
coedge $-1 $69 $69 $111 $112 reversed $43 $-1 #
face $-1 $-1 $113 $23 $-1 $114 forward single #
loop $-1 $115 $116 $45 #
cone-surface $-1 58.839906509548214 -24.104676877349661 3.3227518091171611 0 0.62932039886446345 -0.77714595512881146 1.25 0 0 1 I I -0.70710678118654746 0.70710678118654746 1.25 forward I I I I #
loop $-1 $-1 $117 $29 #
coedge $-1 $74 $74 $118 $119 reversed $46 $-1 #
face $-1 $120 $121 $18 $-1 $122 reversed single #
loop $-1 $-1 $123 $48 #
plane-surface $-1 0 -32.344131656613314 0 0 1 0 0 0 1 forward_v I I I I #
coedge $-1 $124 $125 $126 $127 forward $49 $-1 #
coedge $-1 $128 $51 $129 $130 forward $31 $-1 #
coedge $-1 $51 $128 $131 $132 forward $31 $-1 #
coedge $-1 $133 $134 $51 $82 reversed $135 $-1 #
edge $-1 $136 -32.344131656613314 $137 32.344131656613314 $81 $138 forward 7 unknown #
face $-1 $139 $140 $19 $-1 $141 reversed single #
loop $-1 $-1 $89 $52 #
plane-surface $-1 -80.885548348459579 0 0.49878616353642835 0 0 1 1 0 0 forward_v I I I I #
coedge $-1 $142 $143 $88 $144 forward $53 $-1 #
coedge $-1 $145 $55 $146 $147 reversed $34 $-1 #
coedge $-1 $55 $145 $86 $144 reversed $34 $-1 #
coedge $-1 $148 $149 $55 $90 reversed $84 $-1 #
edge $-1 $150 -32.344131656613314 $151 32.344131656613314 $89 $152 forward 7 unknown #
face $-1 $153 $154 $20 $-1 $155 reversed single #
loop $-1 $-1 $156 $56 #
plane-surface $-1 36.574013501738605 -126.11665465376794 117.50860449715879 1 0 0 0 0.62932039886446345 -0.77714595512881146 forward_v I I I I #
coedge $-1 $157 $158 $159 $160 reversed $57 $-1 #
coedge $-1 $96 $59 $161 $162 reversed $37 $-1 #
coedge $-1 $59 $95 $157 $163 reversed $37 $-1 #
coedge $-1 $159 $164 $59 $98 forward $165 $-1 #
edge $-1 $166 30.714195670270655 $167 42.245035901107009 $97 $168 forward 7 unknown #
loop $-1 $-1 $104 $60 #
plane-surface $-1 50.490196631619611 -32.344131656613314 1.7091848677353028 0 -0.62932039886446345 0.77714595512881146 1 0 0 forward_v I I I I #
loop $-1 $-1 $169 $39 #
coedge $-1 $102 $102 $103 $170 reversed $61 $-1 #
coedge $-1 $103 $103 $102 $170 forward $63 $-1 #
coedge $-1 $104 $104 $64 $105 forward $99 $-1 #
edge $-1 $171 -4.6066580649153295e-016 $171 6.2831853071795996 $104 $172 forward 7 unknown #
loop $-1 $-1 $111 $65 #
plane-surface $-1 50.490196631619611 -32.344131656613314 1.7091848677353028 0 -0.62932039886446345 0.77714595512881146 1 0 0 forward_v I I I I #
loop $-1 $-1 $173 $42 #
coedge $-1 $109 $109 $110 $174 reversed $66 $-1 #
coedge $-1 $110 $110 $109 $174 forward $68 $-1 #
coedge $-1 $111 $111 $69 $112 forward $106 $-1 #
edge $-1 $175 -4.6066580649153295e-016 $175 6.2831853071795996 $111 $176 forward 7 unknown #
loop $-1 $-1 $118 $70 #
plane-surface $-1 50.490196631619611 -32.344131656613314 1.7091848677353028 0 -0.62932039886446345 0.77714595512881146 1 0 0 forward_v I I I I #
loop $-1 $-1 $177 $45 #
coedge $-1 $116 $116 $117 $178 reversed $71 $-1 #
coedge $-1 $117 $117 $116 $178 forward $73 $-1 #
coedge $-1 $118 $118 $74 $119 forward $113 $-1 #
edge $-1 $179 -4.6066580649153295e-016 $179 6.2831853071795996 $118 $180 forward 7 unknown #
face $-1 $181 $182 $18 $-1 $183 reversed single #
loop $-1 $-1 $184 $75 #
plane-surface $-1 -74.503006073183386 0 0 1 0 0 0 0 -1 forward_v I I I I #
coedge $-1 $185 $131 $184 $186 forward $76 $-1 #
coedge $-1 $187 $78 $185 $188 forward $49 $-1 #
coedge $-1 $78 $187 $189 $190 forward $49 $-1 #
coedge $-1 $134 $133 $78 $127 reversed $135 $-1 #
edge $-1 $191 -32.344131656613314 $192 32.344131656613314 $126 $193 forward 7 unknown #
coedge $-1 $80 $79 $194 $195 forward $31 $-1 #
coedge $-1 $196 $197 $79 $130 reversed $182 $-1 #
edge $-1 $137 -74.503006073183386 $198 74.503006073183386 $129 $199 forward 7 unknown #
coedge $-1 $123 $200 $80 $132 reversed $76 $-1 #
edge $-1 $201 -74.503006073183386 $136 74.503006073183386 $131 $202 forward 7 unknown #
coedge $-1 $126 $81 $200 $203 forward $135 $-1 #
coedge $-1 $81 $126 $196 $204 reversed $135 $-1 #
loop $-1 $-1 $133 $181 #
vertex $-1 $82 $205 #
vertex $-1 $82 $206 #
straight-curve $-1 74.503006073183386 0 11.046675367971595 0 1 0 I I #
face $-1 $207 $208 $19 $-1 $209 reversed single #
loop $-1 $-1 $210 $83 #
plane-surface $-1 -80.885548348459579 0 -4.1854734747526461 0 0 1 1 0 0 forward_v I I I I #
coedge $-1 $211 $86 $212 $213 reversed $53 $-1 #
coedge $-1 $86 $211 $148 $214 reversed $53 $-1 #
edge $-1 $150 -0.49878616353642835 $215 4.1854734747526461 $86 $216 forward 7 unknown #
coedge $-1 $88 $87 $210 $217 forward $34 $-1 #
coedge $-1 $218 $219 $87 $147 forward $220 $-1 #
edge $-1 $221 -4.1854734747526461 $151 0.49878616353642835 $146 $222 forward 7 unknown #
coedge $-1 $223 $89 $143 $214 forward $84 $-1 #
coedge $-1 $89 $223 $218 $224 forward $84 $-1 #
vertex $-1 $144 $225 #
vertex $-1 $224 $226 #
straight-curve $-1 -74.503006073183386 0 0.49878616353642835 0 -1 0 I I #
face $-1 $-1 $165 $20 $-1 $227 forward single #
loop $-1 $-1 $228 $91 #
plane-surface $-1 0 -32.344131656613314 0 0 1 0 0 0 1 forward_v I I I I #
coedge $-1 $229 $230 $231 $232 reversed $92 $-1 #
coedge $-1 $233 $94 $96 $163 forward $57 $-1 #
coedge $-1 $94 $233 $229 $234 forward $57 $-1 #
coedge $-1 $231 $97 $94 $160 forward $165 $-1 #
edge $-1 $167 -39.161281445690811 $235 -11.3289151859288 $159 $236 forward 7 unknown #
coedge $-1 $237 $238 $95 $162 forward $154 $-1 #
edge $-1 $239 -57.04511738084409 $166 -47.707626880607798 $161 $240 forward 7 unknown #
edge $-1 $167 -14.837419090632885 $239 0 $96 $241 forward 7 unknown #
coedge $-1 $97 $231 $237 $242 forward $165 $-1 #
loop $-1 $-1 $231 $153 #
vertex $-1 $162 $243 #
vertex $-1 $98 $244 #
straight-curve $-1 64.406379761500617 -63.058327326883969 11.046675367971595 0 1 0 I I #
coedge $-1 $169 $169 $-1 $245 reversed $101 $-1 #
edge $-1 $246 0 $246 6.2831853071796004 $102 $247 forward 7 unknown #
vertex $-1 $105 $248 #
ellipse-curve $-1 42.140486753691007 -26.578711541195133 6.3779301178534498 0 -0.62932039886446345 0.77714595512881146 2.5 0 0 1 I I #
coedge $-1 $173 $173 $-1 $249 reversed $108 $-1 #
edge $-1 $250 0 $250 6.2831853071796004 $109 $251 forward 7 unknown #
vertex $-1 $112 $252 #
ellipse-curve $-1 50.490196631619611 -26.578711541195133 6.3779301178534498 0 -0.62932039886446345 0.77714595512881146 2.5 0 0 1 I I #
coedge $-1 $177 $177 $-1 $253 reversed $115 $-1 #
edge $-1 $254 0 $254 6.2831853071796004 $116 $255 forward 7 unknown #
vertex $-1 $119 $256 #
ellipse-curve $-1 58.839906509548214 -26.578711541195133 6.3779301178534498 0 -0.62932039886446345 0.77714595512881146 2.5 0 0 1 I I #
face $-1 $-1 $135 $18 $-1 $257 reversed single #
loop $-1 $-1 $196 $120 #
plane-surface $-1 0 32.344131656613314 0 0 -1 0 0 0 -1 forward_v I I I I #
coedge $-1 $194 $258 $123 $186 reversed $121 $-1 #
coedge $-1 $200 $123 $124 $188 reversed $76 $-1 #
edge $-1 $201 -11.046675367971595 $259 11.046675367971595 $184 $260 forward 7 unknown #
coedge $-1 $125 $124 $258 $261 forward $49 $-1 #
edge $-1 $192 -74.503006073183386 $259 74.503006073183386 $185 $262 forward 7 unknown #
coedge $-1 $197 $196 $125 $190 reversed $182 $-1 #
edge $-1 $263 -74.503006073183386 $191 74.503006073183386 $189 $264 forward 7 unknown #
vertex $-1 $127 $265 #
vertex $-1 $203 $266 #
straight-curve $-1 74.503006073183386 0 -11.046675367971595 0 -1 0 I I #
coedge $-1 $267 $184 $128 $195 reversed $121 $-1 #
edge $-1 $198 -32.344131656613314 $201 32.344131656613314 $194 $268 forward 7 unknown #
coedge $-1 $189 $129 $134 $204 forward $182 $-1 #
coedge $-1 $129 $189 $267 $269 reversed $182 $-1 #
vertex $-1 $130 $270 #
straight-curve $-1 0 32.344131656613314 11.046675367971595 -1 0 0 I I #
coedge $-1 $131 $185 $133 $203 reversed $76 $-1 #
vertex $-1 $195 $271 #
straight-curve $-1 0 -32.344131656613314 11.046675367971595 1 0 0 I I #
edge $-1 $136 -11.046675367971595 $192 11.046675367971595 $133 $272 forward 7 unknown #
edge $-1 $137 -11.046675367971595 $191 11.046675367971595 $134 $273 forward 7 unknown #
point $-1 74.503006073183386 -32.344131656613314 11.046675367971595 #
point $-1 74.503006073183386 32.344131656613314 11.046675367971595 #
face $-1 $-1 $220 $19 $-1 $274 reversed single #
loop $-1 $-1 $275 $139 #
plane-surface $-1 -87.268090623735773 0 -1.8433436556081091 1 0 0 0 0 -1 forward_v I I I I #
coedge $-1 $276 $212 $145 $217 reversed $140 $-1 #
coedge $-1 $143 $142 $275 $277 reversed $53 $-1 #
coedge $-1 $210 $278 $142 $213 forward $140 $-1 #
edge $-1 $279 -6.3825422752761938 $215 6.3825422752761938 $142 $280 forward 7 unknown #
edge $-1 $150 -6.3825422752761938 $281 6.3825422752761938 $143 $282 forward 7 unknown #
vertex $-1 $144 $283 #
straight-curve $-1 -74.503006073183386 32.344131656613314 0 0 0 -1 I I #
edge $-1 $221 -32.344131656613314 $215 32.344131656613314 $210 $284 forward 7 unknown #
coedge $-1 $285 $146 $149 $224 reversed $220 $-1 #
coedge $-1 $146 $285 $276 $286 reversed $220 $-1 #
loop $-1 $-1 $146 $207 #
vertex $-1 $147 $287 #
straight-curve $-1 -74.503006073183386 -32.344131656613314 0 0 0 1 I I #
coedge $-1 $149 $148 $288 $289 forward $84 $-1 #
edge $-1 $290 -6.3825422752761938 $151 6.3825422752761938 $218 $291 forward 7 unknown #
point $-1 -74.503006073183386 32.344131656613314 0.49878616353642835 #
point $-1 -74.503006073183386 -32.344131656613314 0.49878616353642835 #
plane-surface $-1 0 0 11.046675367971595 0 0 1 1 0 0 forward_v I I I I #
coedge $-1 $238 $237 $230 $292 forward $154 $-1 #
coedge $-1 $230 $156 $158 $234 reversed $92 $-1 #
coedge $-1 $156 $229 $228 $292 reversed $92 $-1 #
coedge $-1 $164 $159 $156 $232 forward $165 $-1 #
edge $-1 $235 -42.245035901107009 $293 -30.714195670270655 $231 $294 forward 7 unknown #
coedge $-1 $158 $157 $238 $295 reversed $57 $-1 #
edge $-1 $296 0 $235 14.837419090632885 $229 $297 forward 7 unknown #
vertex $-1 $160 $298 #
straight-curve $-1 25.245098315809805 -20.813291425776956 11.046675367971595 -1 0 0 I I #
coedge $-1 $228 $161 $164 $242 reversed $154 $-1 #
coedge $-1 $161 $228 $233 $295 forward $154 $-1 #
vertex $-1 $162 $299 #
straight-curve $-1 64.406379761500617 -32.344131656613314 58.754302248579393 0 0 1 I I #
straight-curve $-1 64.406379761500617 -32.344131656613314 1.7091848677353028 0 -0.77714595512881146 -0.62932039886446345 I I #
edge $-1 $293 36.574013501738605 $166 64.406379761500617 $237 $300 forward 7 unknown #
point $-1 64.406379761500617 -32.344131656613314 11.046675367971595 #
point $-1 64.406379761500617 -20.81329142577696 11.046675367971595 #
edge $-1 $301 1 $301 0 $169 $-1 forward 7 unknown #
vertex $-1 $170 $302 #
ellipse-curve $-1 42.140486753691007 -24.891327375930238 4.2941842530281757 0 -0.62932039886446345 0.77714595512881146 2.5 0 0 1 I I #
point $-1 44.640486753691007 -26.57871154119513 6.3779301178534435 #
edge $-1 $303 1 $303 0 $173 $-1 forward 7 unknown #
vertex $-1 $174 $304 #
ellipse-curve $-1 50.490196631619611 -24.891327375930238 4.2941842530281757 0 -0.62932039886446345 0.77714595512881146 2.5 0 0 1 I I #
point $-1 52.990196631619611 -26.57871154119513 6.3779301178534435 #
edge $-1 $305 1 $305 0 $177 $-1 forward 7 unknown #
vertex $-1 $178 $306 #
ellipse-curve $-1 58.839906509548214 -24.891327375930238 4.2941842530281757 0 -0.62932039886446345 0.77714595512881146 2.5 0 0 1 I I #
point $-1 61.339906509548214 -26.57871154119513 6.3779301178534435 #
plane-surface $-1 74.503006073183386 0 0 -1 0 0 0 0 1 forward_v I I I I #
coedge $-1 $184 $267 $187 $261 reversed $121 $-1 #
vertex $-1 $261 $307 #
straight-curve $-1 -74.503006073183386 -32.344131656613314 0 0 0 -1 I I #
edge $-1 $259 -32.344131656613314 $263 32.344131656613314 $258 $308 forward 7 unknown #
straight-curve $-1 0 -32.344131656613314 -11.046675367971595 -1 0 0 I I #
vertex $-1 $190 $309 #
straight-curve $-1 0 32.344131656613314 -11.046675367971595 1 0 0 I I #
point $-1 74.503006073183386 32.344131656613314 -11.046675367971595 #
point $-1 74.503006073183386 -32.344131656613314 -11.046675367971595 #
coedge $-1 $258 $194 $197 $269 forward $121 $-1 #
straight-curve $-1 -74.503006073183386 0 11.046675367971595 0 -1 0 I I #
edge $-1 $198 -11.046675367971595 $263 11.046675367971595 $197 $310 forward 7 unknown #
point $-1 -74.503006073183386 32.344131656613314 11.046675367971595 #
point $-1 -74.503006073183386 -32.344131656613314 11.046675367971595 #
straight-curve $-1 74.503006073183386 -32.344131656613314 0 0 0 -1 I I #
straight-curve $-1 74.503006073183386 32.344131656613314 0 0 0 -1 I I #
plane-surface $-1 0 -32.344131656613314 0 0 1 0 0 0 1 forward_v I I I I #
coedge $-1 $311 $288 $211 $277 forward $208 $-1 #
coedge $-1 $278 $210 $219 $286 forward $140 $-1 #
edge $-1 $281 -2.3421298191445374 $279 2.342129819144537 $211 $312 forward 7 unknown #
coedge $-1 $212 $276 $311 $313 forward $140 $-1 #
vertex $-1 $213 $314 #
straight-curve $-1 -80.885548348459579 32.344131656613314 -4.1854734747526461 1 0 0 I I #
vertex $-1 $214 $315 #
straight-curve $-1 -80.885548348459579 32.344131656613314 0.49878616353642835 -1 0 0 I I #
point $-1 -74.503006073183386 32.344131656613314 -4.1854734747526461 #
straight-curve $-1 -74.503006073183386 0 -4.1854734747526461 0 1 0 I I #
coedge $-1 $219 $218 $316 $317 forward $220 $-1 #
edge $-1 $221 -6.3825422752761938 $318 6.3825422752761938 $219 $319 forward 7 unknown #
point $-1 -74.503006073183386 -32.344131656613314 -4.1854734747526461 #
coedge $-1 $275 $316 $223 $289 reversed $208 $-1 #
edge $-1 $281 -32.344131656613314 $290 32.344131656613314 $288 $320 forward 7 unknown #
vertex $-1 $289 $321 #
straight-curve $-1 -80.885548348459579 -32.344131656613314 0.49878616353642835 1 0 0 I I #
edge $-1 $293 47.707626880607798 $296 57.04511738084409 $228 $322 forward 7 unknown #
vertex $-1 $242 $323 #
straight-curve $-1 36.574013501738605 -63.058327326883969 11.046675367971595 0 -1 0 I I #
edge $-1 $296 11.3289151859288 $239 39.161281445690811 $238 $324 forward 7 unknown #
vertex $-1 $295 $325 #
straight-curve $-1 36.574013501738605 -32.344131656613314 1.7091848677353028 0 0.77714595512881146 0.62932039886446345 I I #
point $-1 36.574013501738605 -20.81329142577696 11.046675367971595 #
point $-1 64.406379761500617 -32.344131656613314 1.7091848677353028 #
straight-curve $-1 0 -32.344131656613314 11.046675367971595 1 0 0 I I #
vertex $-1 $245 $326 #
point $-1 44.640486753691007 -24.891327375930238 4.2941842530281757 #
vertex $-1 $249 $327 #
point $-1 52.990196631619611 -24.891327375930238 4.2941842530281757 #
vertex $-1 $253 $328 #
point $-1 61.339906509548214 -24.891327375930238 4.2941842530281757 #
point $-1 -74.503006073183386 -32.344131656613314 -11.046675367971595 #
straight-curve $-1 -74.503006073183386 0 -11.046675367971595 0 1 0 I I #
point $-1 -74.503006073183386 32.344131656613314 -11.046675367971595 #
straight-curve $-1 -74.503006073183386 32.344131656613314 0 0 0 -1 I I #
coedge $-1 $316 $275 $278 $313 reversed $208 $-1 #
straight-curve $-1 -87.268090623735773 32.344131656613314 -1.8433436556081091 0 0 -1 I I #
edge $-1 $318 -32.344131656613314 $279 32.344131656613314 $311 $329 forward 7 unknown #
point $-1 -87.268090623735773 32.344131656613314 -4.1854734747526461 #
point $-1 -87.268090623735773 32.344131656613314 0.49878616353642835 #
coedge $-1 $288 $311 $285 $317 reversed $208 $-1 #
edge $-1 $290 -2.3421298191445374 $318 2.342129819144537 $316 $330 forward 7 unknown #
vertex $-1 $313 $331 #
straight-curve $-1 -80.885548348459579 -32.344131656613314 -4.1854734747526461 -1 0 0 I I #
straight-curve $-1 -87.268090623735773 0 0.49878616353642835 0 -1 0 I I #
point $-1 -87.268090623735773 -32.344131656613314 0.49878616353642835 #
straight-curve $-1 36.574013501738605 -32.344131656613314 58.754302248579393 0 0 -1 I I #
point $-1 36.574013501738605 -32.344131656613314 11.046675367971595 #
straight-curve $-1 25.245098315809805 -32.344131656613314 1.7091848677353054 1 0 0 I I #
point $-1 36.574013501738605 -32.344131656613314 1.7091848677353028 #
point $-1 42.140486753691007 -23.318026378769083 2.3513193652061468 #
point $-1 50.490196631619611 -23.318026378769083 2.3513193652061468 #
point $-1 58.839906509548214 -23.318026378769083 2.3513193652061468 #
straight-curve $-1 -87.268090623735773 0 -4.1854734747526461 0 1 0 I I #
straight-curve $-1 -87.268090623735773 -32.344131656613314 -1.8433436556081091 0 0 -1 I I #
point $-1 -87.268090623735773 -32.344131656613314 -4.1854734747526461 #
End-of-ACIS-data 