500 0 14 0           
7 Unknown 11 ACIS 5.0 NT 24 Thu Mar 25 18:29:44 1999 
-1 9.9999999999999995e-007 1e-010 
body $-1 $14 $-1 $15 #
body $-1 $16 $-1 $17 #
body $-1 $18 $-1 $19 #
body $-1 $20 $-1 $21 #
body $-1 $22 $-1 $23 #
body $-1 $24 $-1 $25 #
body $-1 $26 $-1 $27 #
body $-1 $28 $-1 $29 #
body $-1 $30 $-1 $31 #
body $-1 $32 $-1 $33 #
body $-1 $34 $-1 $35 #
body $-1 $36 $-1 $37 #
body $-1 $38 $-1 $39 #
body $-1 $40 $-1 $41 #
lump $-1 $-1 $42 $0 #
transform $-1 1 0 0 0 1 0 0 0 1 52.373424481948305 35.960356945164875 11.588701596061984 1 rotate no_reflect no_shear #
lump $-1 $-1 $43 $1 #
transform $-1 1 0 0 0 1 0 0 0 1 52.373424481948305 35.960356945164875 11.588701596061984 1 rotate no_reflect no_shear #
lump $-1 $-1 $44 $2 #
transform $-1 1 0 0 0 1 0 0 0 1 52.373424481948305 35.960356945164875 11.588701596061984 1 rotate no_reflect no_shear #
lump $-1 $-1 $45 $3 #
transform $-1 1 0 0 0 1 0 0 0 1 52.373424481948305 35.960356945164875 11.588701596061984 1 rotate no_reflect no_shear #
lump $-1 $-1 $46 $4 #
transform $-1 1 0 0 0 1 0 0 0 1 52.373424481948305 35.960356945164875 11.588701596061984 1 rotate no_reflect no_shear #
lump $-1 $-1 $47 $5 #
transform $-1 1 0 0 0 1 0 0 0 1 52.373424481948305 35.960356945164875 11.588701596061984 1 rotate no_reflect no_shear #
lump $-1 $-1 $48 $6 #
transform $-1 1 0 0 0 1 0 0 0 1 52.373424481948305 35.960356945164875 11.588701596061984 1 rotate no_reflect no_shear #
lump $-1 $-1 $49 $7 #
transform $-1 1 0 0 0 1 0 0 0 1 52.373424481948305 35.960356945164875 11.588701596061984 1 rotate no_reflect no_shear #
lump $-1 $-1 $50 $8 #
transform $-1 1 0 0 0 1 0 0 0 1 52.373424481948305 35.960356945164875 11.588701596061984 1 rotate no_reflect no_shear #
lump $-1 $-1 $51 $9 #
transform $-1 1 0 0 0 1 0 0 0 1 52.373424481948305 35.960356945164875 11.588701596061984 1 rotate no_reflect no_shear #
lump $-1 $-1 $52 $10 #
transform $-1 1 0 0 0 1 0 0 0 1 52.373424481948305 35.960356945164875 11.588701596061984 1 rotate no_reflect no_shear #
lump $-1 $-1 $53 $11 #
transform $-1 1 0 0 0 1 0 0 0 1 52.373424481948305 35.960356945164875 11.588701596061984 1 rotate no_reflect no_shear #
lump $-1 $-1 $54 $12 #
transform $-1 1 0 0 0 1 0 0 0 1 52.373424481948305 35.960356945164875 11.588701596061984 1 rotate no_reflect no_shear #
lump $-1 $-1 $55 $13 #
transform $-1 1 0 0 0 1 0 0 0 1 52.373424481948305 35.960356945164875 11.588701596061984 1 rotate no_reflect no_shear #
shell $-1 $-1 $-1 $56 $-1 $14 #
shell $-1 $-1 $-1 $57 $-1 $16 #
shell $-1 $-1 $-1 $58 $-1 $18 #
shell $-1 $-1 $-1 $59 $-1 $20 #
shell $-1 $-1 $-1 $60 $-1 $22 #
shell $-1 $-1 $-1 $61 $-1 $24 #
shell $-1 $-1 $-1 $62 $-1 $26 #
shell $-1 $-1 $-1 $63 $-1 $28 #
shell $-1 $-1 $-1 $64 $-1 $30 #
shell $-1 $-1 $-1 $65 $-1 $32 #
shell $-1 $-1 $-1 $66 $-1 $34 #
shell $-1 $-1 $-1 $67 $-1 $36 #
shell $-1 $-1 $-1 $68 $-1 $38 #
shell $-1 $-1 $-1 $69 $-1 $40 #
face $-1 $70 $71 $42 $-1 $72 forward single #
face $-1 $73 $74 $43 $-1 $75 reversed single #
face $-1 $76 $77 $44 $-1 $78 reversed single #
face $-1 $79 $80 $45 $-1 $81 forward single #
face $-1 $82 $83 $46 $-1 $84 forward single #
face $-1 $85 $86 $47 $-1 $87 forward single #
face $-1 $88 $89 $48 $-1 $90 reversed single #
face $-1 $91 $92 $49 $-1 $93 forward single #
face $-1 $94 $95 $50 $-1 $96 reversed single #
face $-1 $97 $98 $51 $-1 $99 forward single #
face $-1 $100 $101 $52 $-1 $102 reversed single #
face $-1 $103 $104 $53 $-1 $105 forward single #
face $-1 $106 $107 $54 $-1 $108 reversed single #
face $-1 $109 $110 $55 $-1 $111 forward single #
face $-1 $112 $113 $42 $-1 $114 reversed single #
loop $-1 $-1 $115 $56 #
plane-surface $-1 0 0 11.588701596061984 0 0 1 1 0 0 forward_v I I I I #
face $-1 $116 $117 $43 $-1 $118 reversed single #
loop $-1 $-1 $119 $57 #
plane-surface $-1 -47.778159647792691 0 8.4019235998622683 0 0 1 1 0 0 forward_v I I I I #
face $-1 $120 $121 $44 $-1 $122 reversed single #
loop $-1 $-1 $123 $58 #
plane-surface $-1 36.071954428834104 88.704026458851828 120.01070483926677 1 0 0 0 -0.85716730853699208 -0.51503806187062418 forward_v I I I I #
face $-1 $124 $125 $45 $-1 $126 forward single #
loop $-1 $127 $128 $59 #
cone-surface $-1 39.332248439456947 32.918120415553162 7.4685463220820898 0 -0.85716730853699208 -0.51503806187062418 1 0 0 1 I I 0 1 1 forward I I I I #
face $-1 $129 $130 $46 $-1 $131 forward single #
loop $-1 $132 $133 $60 #
cone-surface $-1 44.222689455391205 32.918120415553162 7.4685463220820898 0 -0.85716730853699208 -0.51503806187062418 1 0 0 1 I I 0 1 1 forward I I I I #
face $-1 $134 $135 $47 $-1 $136 forward single #
loop $-1 $137 $138 $61 #
cone-surface $-1 49.113130471325462 32.918120415553162 7.4685463220820898 0 -0.85716730853699208 -0.51503806187062418 1 0 0 1 I I 0 1 1 forward I I I I #
face $-1 $139 $140 $48 $-1 $141 reversed single #
loop $-1 $-1 $142 $62 #
plane-surface $-1 -30.755280336079792 -116.20109939618023 67.632717731816584 -1 0 0 0 -0.7660444514056185 0.64278759981090561 forward_v I I I I #
face $-1 $143 $144 $49 $-1 $145 forward single #
loop $-1 $146 $147 $63 #
cone-surface $-1 -36.969087574858435 -29.621918030578477 4.6002954264283069 0 0.7660444514056185 -0.64278759981090561 2.5 0 0 1 I I 0 1 2.5 forward I I I I #
face $-1 $148 $149 $50 $-1 $150 reversed single #
loop $-1 $-1 $151 $64 #
plane-surface $-1 -6.8662005121834468 -116.20109939618023 67.632717731816584 -1 0 0 0 -0.7660444514056185 0.64278759981090561 forward_v I I I I #
face $-1 $152 $153 $51 $-1 $154 forward single #
loop $-1 $155 $156 $65 #
cone-surface $-1 -13.080007750962089 -29.621918030578477 4.6002954264283069 0 0.7660444514056185 -0.64278759981090561 2.5 0 0 1 I I 0 1 2.5 forward I I I I #
face $-1 $157 $158 $52 $-1 $159 reversed single #
loop $-1 $-1 $160 $66 #
plane-surface $-1 17.022879311712899 -116.20109939618023 67.632717731816584 -1 0 0 0 -0.7660444514056185 0.64278759981090561 forward_v I I I I #
face $-1 $161 $162 $53 $-1 $163 forward single #
loop $-1 $164 $165 $67 #
cone-surface $-1 10.809072072934256 -29.621918030578477 4.6002954264283069 0 0.7660444514056185 -0.64278759981090561 2.5 0 0 1 I I 0 1 2.5 forward I I I I #
face $-1 $166 $167 $54 $-1 $168 reversed single #
loop $-1 $-1 $169 $68 #
plane-surface $-1 40.911959135609237 -116.20109939618023 67.632717731816584 -1 0 0 0 -0.7660444514056185 0.64278759981090561 forward_v I I I I #
face $-1 $170 $171 $55 $-1 $172 forward single #
loop $-1 $173 $174 $69 #
cone-surface $-1 34.698151896830595 -29.621918030578477 4.6002954264283069 0 0.7660444514056185 -0.64278759981090561 2.5 0 0 1 I I 0 1 2.5 forward I I I I #
face $-1 $175 $176 $42 $-1 $177 reversed single #
loop $-1 $-1 $178 $70 #
plane-surface $-1 0 0 -11.588701596061984 0 0 1 1 0 0 forward_v I I I I #
coedge $-1 $179 $180 $181 $182 forward $71 $-1 #
face $-1 $183 $184 $43 $-1 $185 reversed single #
loop $-1 $-1 $186 $73 #
plane-surface $-1 -43.182894813637077 0 9.9953125979621262 -1 0 0 0 0 1 forward_v I I I I #
coedge $-1 $187 $188 $189 $190 forward $74 $-1 #
face $-1 $191 $192 $44 $-1 $193 forward single #
loop $-1 $-1 $194 $76 #
plane-surface $-1 44.222689455391205 -1.0815481452622464 66.062090761846463 0 0.85716730853699208 0.51503806187062418 1 0 0 forward_v I I I I #
coedge $-1 $195 $196 $197 $198 reversed $77 $-1 #
face $-1 $-1 $199 $45 $-1 $200 forward single #
loop $-1 $201 $202 $79 #
cone-surface $-1 39.332248439456947 31.602796173463602 6.6782198109911484 0 -0.85716730853699208 -0.51503806187062418 0.5 0 0 1 I I -0.70710678118654746 0.70710678118654746 0.5 forward I I I I #
loop $-1 $-1 $203 $59 #
coedge $-1 $128 $128 $204 $205 reversed $80 $-1 #
face $-1 $-1 $206 $46 $-1 $207 forward single #
loop $-1 $208 $209 $82 #
cone-surface $-1 44.222689455391205 31.602796173463602 6.6782198109911484 0 -0.85716730853699208 -0.51503806187062418 0.5 0 0 1 I I -0.70710678118654746 0.70710678118654746 0.5 forward I I I I #
loop $-1 $-1 $210 $60 #
coedge $-1 $133 $133 $211 $212 reversed $83 $-1 #
face $-1 $-1 $213 $47 $-1 $214 forward single #
loop $-1 $215 $216 $85 #
cone-surface $-1 49.113130471325462 31.602796173463602 6.6782198109911484 0 -0.85716730853699208 -0.51503806187062418 0.5 0 0 1 I I -0.70710678118654746 0.70710678118654746 0.5 forward I I I I #
loop $-1 $-1 $217 $61 #
coedge $-1 $138 $138 $218 $219 reversed $86 $-1 #
face $-1 $220 $221 $48 $-1 $222 forward single #
loop $-1 $-1 $223 $88 #
plane-surface $-1 -36.969087574858435 -35.960356945164875 0.30274209855804202 0 -0.7660444514056185 0.64278759981090561 1 0 0 forward_v I I I I #
coedge $-1 $224 $225 $226 $227 reversed $89 $-1 #
face $-1 $-1 $228 $49 $-1 $229 forward single #
loop $-1 $230 $231 $91 #
cone-surface $-1 -36.969087574858435 -27.060945653685135 2.4513845057829666 0 0.7660444514056185 -0.64278759981090561 1.25 0 0 1 I I -0.70710678118654746 0.70710678118654746 1.25 forward I I I I #
loop $-1 $-1 $232 $63 #
coedge $-1 $147 $147 $233 $234 reversed $92 $-1 #
face $-1 $235 $236 $50 $-1 $237 reversed single #
loop $-1 $-1 $238 $94 #
plane-surface $-1 -13.080007750962089 -35.960356945164875 0.30274209855804202 0 -0.7660444514056185 0.64278759981090561 1 0 0 forward_v I I I I #
coedge $-1 $239 $240 $241 $242 reversed $95 $-1 #
face $-1 $-1 $243 $51 $-1 $244 forward single #
loop $-1 $245 $246 $97 #
cone-surface $-1 -13.080007750962089 -27.060945653685135 2.4513845057829666 0 0.7660444514056185 -0.64278759981090561 1.25 0 0 1 I I -0.70710678118654746 0.70710678118654746 1.25 forward I I I I #
loop $-1 $-1 $247 $65 #
coedge $-1 $156 $156 $248 $249 reversed $98 $-1 #
face $-1 $250 $251 $52 $-1 $252 reversed single #
loop $-1 $-1 $253 $100 #
plane-surface $-1 10.809072072934256 -35.960356945164875 0.30274209855804202 0 -0.7660444514056185 0.64278759981090561 1 0 0 forward_v I I I I #
coedge $-1 $254 $255 $256 $257 reversed $101 $-1 #
face $-1 $-1 $258 $53 $-1 $259 forward single #
loop $-1 $260 $261 $103 #
cone-surface $-1 10.809072072934256 -27.060945653685135 2.4513845057829666 0 0.7660444514056185 -0.64278759981090561 1.25 0 0 1 I I -0.70710678118654746 0.70710678118654746 1.25 forward I I I I #
loop $-1 $-1 $262 $67 #
coedge $-1 $165 $165 $263 $264 reversed $104 $-1 #
face $-1 $265 $266 $54 $-1 $267 reversed single #
loop $-1 $-1 $268 $106 #
plane-surface $-1 34.698151896830595 -35.960356945164875 0.30274209855804202 0 -0.7660444514056185 0.64278759981090561 1 0 0 forward_v I I I I #
coedge $-1 $269 $270 $271 $272 reversed $107 $-1 #
face $-1 $-1 $273 $55 $-1 $274 forward single #
loop $-1 $275 $276 $109 #
cone-surface $-1 34.698151896830595 -27.060945653685135 2.4513845057829666 0 0.7660444514056185 -0.64278759981090561 1.25 0 0 1 I I -0.70710678118654746 0.70710678118654746 1.25 forward I I I I #
loop $-1 $-1 $277 $69 #
coedge $-1 $174 $174 $278 $279 reversed $110 $-1 #
face $-1 $280 $281 $42 $-1 $282 reversed single #
loop $-1 $-1 $283 $112 #
plane-surface $-1 0 -35.960356945164875 0 0 1 0 0 0 1 forward_v I I I I #
coedge $-1 $284 $285 $286 $287 forward $113 $-1 #
coedge $-1 $288 $115 $289 $290 forward $71 $-1 #
coedge $-1 $115 $288 $291 $292 forward $71 $-1 #
coedge $-1 $293 $294 $115 $182 reversed $295 $-1 #
edge $-1 $296 -35.960356945164875 $297 35.960356945164875 $181 $298 forward 7 unknown #
face $-1 $299 $300 $43 $-1 $301 reversed single #
loop $-1 $-1 $302 $116 #
plane-surface $-1 0 35.960356945164875 0 0 -1 0 0 0 -1 forward_v I I I I #
coedge $-1 $189 $303 $304 $305 reversed $117 $-1 #
coedge $-1 $306 $119 $307 $308 reversed $74 $-1 #
coedge $-1 $119 $306 $309 $310 reversed $74 $-1 #
coedge $-1 $311 $186 $119 $190 reversed $117 $-1 #
edge $-1 $312 -35.960356945164875 $313 35.960356945164875 $189 $314 forward 7 unknown #
face $-1 $315 $316 $44 $-1 $317 reversed single #
loop $-1 $-1 $197 $120 #
plane-surface $-1 0 0 11.588701596061984 0 0 1 1 0 0 forward_v I I I I #
coedge $-1 $318 $319 $320 $321 reversed $121 $-1 #
coedge $-1 $196 $123 $322 $323 reversed $77 $-1 #
coedge $-1 $123 $195 $318 $324 reversed $77 $-1 #
coedge $-1 $320 $325 $123 $198 forward $192 $-1 #
edge $-1 $326 8.3916562842610389 $327 12.702648167842369 $197 $328 forward 7 unknown #
loop $-1 $-1 $204 $124 #
plane-surface $-1 44.222689455391205 -1.0815481452622464 66.062090761846463 0 0.85716730853699208 0.51503806187062418 1 0 0 forward_v I I I I #
loop $-1 $-1 $329 $79 #
coedge $-1 $202 $202 $203 $330 reversed $125 $-1 #
coedge $-1 $203 $203 $202 $330 forward $127 $-1 #
coedge $-1 $204 $204 $128 $205 forward $199 $-1 #
edge $-1 $331 1.2285910259226982e-015 $331 6.2831853071796013 $204 $332 forward 7 unknown #
loop $-1 $-1 $211 $129 #
plane-surface $-1 44.222689455391205 -1.0815481452622464 66.062090761846463 0 0.85716730853699208 0.51503806187062418 1 0 0 forward_v I I I I #
loop $-1 $-1 $333 $82 #
coedge $-1 $209 $209 $210 $334 reversed $130 $-1 #
coedge $-1 $210 $210 $209 $334 forward $132 $-1 #
coedge $-1 $211 $211 $133 $212 forward $206 $-1 #
edge $-1 $335 1.2285910259226982e-015 $335 6.2831853071796013 $211 $336 forward 7 unknown #
loop $-1 $-1 $218 $134 #
plane-surface $-1 44.222689455391205 -1.0815481452622464 66.062090761846463 0 0.85716730853699208 0.51503806187062418 1 0 0 forward_v I I I I #
loop $-1 $-1 $337 $85 #
coedge $-1 $216 $216 $217 $338 reversed $135 $-1 #
coedge $-1 $217 $217 $216 $338 forward $137 $-1 #
coedge $-1 $218 $218 $138 $219 forward $213 $-1 #
edge $-1 $339 1.2285910259226982e-015 $339 6.2831853071796013 $218 $340 forward 7 unknown #
face $-1 $341 $342 $48 $-1 $343 forward single #
loop $-1 $-1 $344 $139 #
plane-surface $-1 -43.182894813637077 0 9.9953125979621262 -1 0 0 0 0 1 forward_v I I I I #
coedge $-1 $345 $346 $347 $348 reversed $140 $-1 #
coedge $-1 $225 $142 $349 $350 reversed $89 $-1 #
coedge $-1 $142 $224 $345 $351 reversed $89 $-1 #
coedge $-1 $347 $352 $142 $227 forward $342 $-1 #
edge $-1 $353 22.140192752925238 $354 31.610236956825396 $226 $355 forward 7 unknown #
loop $-1 $-1 $233 $143 #
plane-surface $-1 -36.969087574858435 -35.960356945164875 0.30274209855804202 0 -0.7660444514056185 0.64278759981090561 1 0 0 forward_v I I I I #
loop $-1 $-1 $356 $91 #
coedge $-1 $231 $231 $232 $357 reversed $144 $-1 #
coedge $-1 $232 $232 $231 $357 forward $146 $-1 #
coedge $-1 $233 $233 $147 $234 forward $228 $-1 #
edge $-1 $358 -9.6995139041228759e-017 $358 6.2831853071796004 $233 $359 forward 7 unknown #
face $-1 $360 $361 $50 $-1 $362 reversed single #
loop $-1 $-1 $363 $148 #
plane-surface $-1 -19.293814989740731 -116.20109939618023 67.632717731816584 1 0 0 0 0.7660444514056185 -0.64278759981090561 forward_v I I I I #
coedge $-1 $364 $365 $366 $367 reversed $149 $-1 #
coedge $-1 $240 $151 $368 $369 reversed $95 $-1 #
coedge $-1 $151 $239 $364 $370 reversed $95 $-1 #
coedge $-1 $366 $371 $151 $242 forward $372 $-1 #
edge $-1 $373 22.140192752925238 $374 31.610236956825396 $241 $375 forward 7 unknown #
loop $-1 $-1 $248 $152 #
plane-surface $-1 -13.080007750962089 -35.960356945164875 0.30274209855804202 0 -0.7660444514056185 0.64278759981090561 1 0 0 forward_v I I I I #
loop $-1 $-1 $376 $97 #
coedge $-1 $246 $246 $247 $377 reversed $153 $-1 #
coedge $-1 $247 $247 $246 $377 forward $155 $-1 #
coedge $-1 $248 $248 $156 $249 forward $243 $-1 #
edge $-1 $378 -9.6995139041228759e-017 $378 6.2831853071796004 $248 $379 forward 7 unknown #
face $-1 $380 $381 $52 $-1 $382 reversed single #
loop $-1 $-1 $383 $157 #
plane-surface $-1 4.5952648341556142 -116.20109939618023 67.632717731816584 1 0 0 0 0.7660444514056185 -0.64278759981090561 forward_v I I I I #
coedge $-1 $384 $385 $386 $387 reversed $158 $-1 #
coedge $-1 $255 $160 $388 $389 reversed $101 $-1 #
coedge $-1 $160 $254 $384 $390 reversed $101 $-1 #
coedge $-1 $386 $391 $160 $257 forward $392 $-1 #
edge $-1 $393 22.140192752925238 $394 31.610236956825396 $256 $395 forward 7 unknown #
loop $-1 $-1 $263 $161 #
plane-surface $-1 10.809072072934256 -35.960356945164875 0.30274209855804202 0 -0.7660444514056185 0.64278759981090561 1 0 0 forward_v I I I I #
loop $-1 $-1 $396 $103 #
coedge $-1 $261 $261 $262 $397 reversed $162 $-1 #
coedge $-1 $262 $262 $261 $397 forward $164 $-1 #
coedge $-1 $263 $263 $165 $264 forward $258 $-1 #
edge $-1 $398 -9.6995139041228759e-017 $398 6.2831853071796004 $263 $399 forward 7 unknown #
face $-1 $400 $401 $54 $-1 $402 reversed single #
loop $-1 $-1 $403 $166 #
plane-surface $-1 28.484344658051953 -116.20109939618023 67.632717731816584 1 0 0 0 0.7660444514056185 -0.64278759981090561 forward_v I I I I #
coedge $-1 $404 $405 $406 $407 reversed $167 $-1 #
coedge $-1 $270 $169 $408 $409 reversed $107 $-1 #
coedge $-1 $169 $269 $404 $410 reversed $107 $-1 #
coedge $-1 $406 $411 $169 $272 forward $412 $-1 #
edge $-1 $413 22.140192752925238 $414 31.610236956825396 $271 $415 forward 7 unknown #
loop $-1 $-1 $278 $170 #
plane-surface $-1 34.698151896830595 -35.960356945164875 0.30274209855804202 0 -0.7660444514056185 0.64278759981090561 1 0 0 forward_v I I I I #
loop $-1 $-1 $416 $109 #
coedge $-1 $276 $276 $277 $417 reversed $171 $-1 #
coedge $-1 $277 $277 $276 $417 forward $173 $-1 #
coedge $-1 $278 $278 $174 $279 forward $273 $-1 #
edge $-1 $418 -9.6995139041228759e-017 $418 6.2831853071796004 $278 $419 forward 7 unknown #
face $-1 $420 $421 $42 $-1 $422 reversed single #
loop $-1 $-1 $423 $175 #
plane-surface $-1 -52.373424481948305 0 0 1 0 0 0 0 -1 forward_v I I I I #
coedge $-1 $424 $291 $425 $426 forward $176 $-1 #
coedge $-1 $427 $178 $424 $428 forward $113 $-1 #
coedge $-1 $178 $427 $429 $430 forward $113 $-1 #
coedge $-1 $294 $293 $178 $287 reversed $295 $-1 #
edge $-1 $431 -35.960356945164875 $432 35.960356945164875 $286 $433 forward 7 unknown #
coedge $-1 $180 $179 $434 $435 forward $71 $-1 #
coedge $-1 $436 $437 $179 $290 reversed $421 $-1 #
edge $-1 $297 -52.373424481948305 $438 52.373424481948305 $289 $439 forward 7 unknown #
coedge $-1 $283 $440 $180 $292 reversed $176 $-1 #
edge $-1 $441 -52.373424481948305 $296 52.373424481948305 $291 $442 forward 7 unknown #
coedge $-1 $286 $181 $440 $443 forward $295 $-1 #
coedge $-1 $181 $286 $436 $444 reversed $295 $-1 #
loop $-1 $-1 $293 $420 #
vertex $-1 $182 $445 #
vertex $-1 $182 $446 #
straight-curve $-1 52.373424481948305 0 11.588701596061984 0 1 0 I I #
face $-1 $447 $448 $43 $-1 $449 forward single #
loop $-1 $-1 $450 $183 #
plane-surface $-1 -52.373424481948305 0 0 1 0 0 0 0 -1 forward_v I I I I #
coedge $-1 $309 $451 $311 $452 forward $184 $-1 #
coedge $-1 $186 $311 $453 $454 reversed $117 $-1 #
coedge $-1 $455 $307 $186 $305 forward $456 $-1 #
edge $-1 $313 3.4042673008812052 $457 6.591045297080921 $304 $458 forward 7 unknown #
coedge $-1 $188 $187 $450 $459 reversed $74 $-1 #
coedge $-1 $304 $460 $187 $308 forward $456 $-1 #
edge $-1 $461 -28.48434465805196 $313 -19.293814989740731 $307 $462 forward 7 unknown #
coedge $-1 $463 $302 $188 $310 forward $184 $-1 #
edge $-1 $312 19.293814989740731 $464 28.48434465805196 $309 $465 forward 7 unknown #
coedge $-1 $303 $189 $302 $452 reversed $117 $-1 #
vertex $-1 $310 $466 #
vertex $-1 $308 $467 #
straight-curve $-1 -43.182894813637077 0 8.4019235998622683 0 -1 0 I I #
face $-1 $-1 $468 $44 $-1 $469 reversed single #
loop $-1 $-1 $470 $191 #
plane-surface $-1 52.373424481948305 0 0 -1 0 0 0 0 1 forward_v I I I I #
coedge $-1 $471 $194 $196 $324 forward $121 $-1 #
coedge $-1 $194 $471 $470 $472 reversed $121 $-1 #
coedge $-1 $473 $197 $194 $321 forward $192 $-1 #
edge $-1 $327 13.960609701138502 $474 30.262079754252703 $320 $475 forward 7 unknown #
coedge $-1 $476 $477 $195 $323 forward $468 $-1 #
edge $-1 $478 -55.591346411219938 $326 -48.416650823571402 $322 $479 forward 7 unknown #
edge $-1 $327 63.55047447943312 $478 71.920713890329779 $196 $480 forward 7 unknown #
coedge $-1 $197 $473 $476 $481 forward $192 $-1 #
vertex $-1 $323 $482 #
vertex $-1 $198 $483 #
straight-curve $-1 36.071954428834104 44.352013229425914 11.588701596061981 0 -1 0 I I #
coedge $-1 $329 $329 $-1 $484 reversed $201 $-1 #
edge $-1 $485 0 $485 6.2831853071796004 $202 $486 forward 7 unknown #
vertex $-1 $205 $487 #
ellipse-curve $-1 39.332248439456947 33.804861003374207 8.0013538022377109 0 0.85716730853699208 0.51503806187062418 1 0 0 1 I I #
coedge $-1 $333 $333 $-1 $488 reversed $208 $-1 #
edge $-1 $489 0 $489 6.2831853071796004 $209 $490 forward 7 unknown #
vertex $-1 $212 $491 #
ellipse-curve $-1 44.222689455391205 33.804861003374207 8.0013538022377109 0 0.85716730853699208 0.51503806187062418 1 0 0 1 I I #
coedge $-1 $337 $337 $-1 $492 reversed $215 $-1 #
edge $-1 $493 0 $493 6.2831853071796004 $216 $494 forward 7 unknown #
vertex $-1 $219 $495 #
ellipse-curve $-1 49.113130471325462 33.804861003374207 8.0013538022377109 0 0.85716730853699208 0.51503806187062418 1 0 0 1 I I #
face $-1 $-1 $496 $48 $-1 $497 reversed single #
loop $-1 $-1 $347 $220 #
plane-surface $-1 0 0 11.588701596061984 0 0 1 1 0 0 forward_v I I I I #
coedge $-1 $498 $499 $346 $500 reversed $221 $-1 #
coedge $-1 $501 $223 $225 $351 forward $140 $-1 #
coedge $-1 $223 $501 $344 $500 forward $140 $-1 #
coedge $-1 $502 $226 $223 $348 forward $342 $-1 #
edge $-1 $354 12.270736548650575 $503 24.69835102620786 $347 $504 forward 7 unknown #
coedge $-1 $505 $506 $224 $350 forward $496 $-1 #
edge $-1 $507 -33.51361676735025 $353 -22.227657269846308 $349 $508 forward 7 unknown #
edge $-1 $354 -14.732773635779603 $507 0 $225 $509 forward 7 unknown #
coedge $-1 $226 $502 $505 $510 forward $342 $-1 #
vertex $-1 $350 $511 #
vertex $-1 $227 $512 #
straight-curve $-1 -30.755280336079792 -58.100549698090113 11.588701596061984 0 1 0 I I #
coedge $-1 $356 $356 $-1 $513 reversed $230 $-1 #
edge $-1 $514 0 $514 6.2831853071796004 $231 $515 forward 7 unknown #
vertex $-1 $234 $516 #
ellipse-curve $-1 -36.969087574858435 -31.225334843214796 5.945721847310014 0 -0.7660444514056185 0.64278759981090561 2.5 0 0 1 I I #
face $-1 $-1 $372 $50 $-1 $517 forward single #
loop $-1 $-1 $518 $235 #
plane-surface $-1 0 -35.960356945164875 0 0 1 0 0 0 1 forward_v I I I I #
coedge $-1 $519 $520 $521 $522 reversed $236 $-1 #
coedge $-1 $523 $238 $240 $370 forward $149 $-1 #
coedge $-1 $238 $523 $519 $524 forward $149 $-1 #
coedge $-1 $521 $241 $238 $367 forward $372 $-1 #
edge $-1 $374 0.32619663670240229 $525 12.753811114259687 $366 $526 forward 7 unknown #
coedge $-1 $527 $528 $239 $369 forward $361 $-1 #
edge $-1 $529 -33.51361676735025 $373 -22.227657269846308 $368 $530 forward 7 unknown #
edge $-1 $374 -14.732773635779603 $529 0 $240 $531 forward 7 unknown #
coedge $-1 $241 $521 $527 $532 forward $372 $-1 #
loop $-1 $-1 $521 $360 #
vertex $-1 $369 $533 #
vertex $-1 $242 $534 #
straight-curve $-1 -6.8662005121834468 -58.100549698090113 11.588701596061984 0 1 0 I I #
coedge $-1 $376 $376 $-1 $535 reversed $245 $-1 #
edge $-1 $536 0 $536 6.2831853071796004 $246 $537 forward 7 unknown #
vertex $-1 $249 $538 #
ellipse-curve $-1 -13.080007750962089 -31.225334843214796 5.945721847310014 0 -0.7660444514056185 0.64278759981090561 2.5 0 0 1 I I #
face $-1 $-1 $392 $52 $-1 $539 forward single #
loop $-1 $-1 $540 $250 #
plane-surface $-1 0 -35.960356945164875 0 0 1 0 0 0 1 forward_v I I I I #
coedge $-1 $541 $542 $543 $544 reversed $251 $-1 #
coedge $-1 $545 $253 $255 $390 forward $158 $-1 #
coedge $-1 $253 $545 $541 $546 forward $158 $-1 #
coedge $-1 $543 $256 $253 $387 forward $392 $-1 #
edge $-1 $394 -11.61834327524577 $547 0.80927120231151406 $386 $548 forward 7 unknown #
coedge $-1 $549 $550 $254 $389 forward $381 $-1 #
edge $-1 $551 -33.51361676735025 $393 -22.227657269846308 $388 $552 forward 7 unknown #
edge $-1 $394 -14.732773635779603 $551 0 $255 $553 forward 7 unknown #
coedge $-1 $256 $543 $549 $554 forward $392 $-1 #
loop $-1 $-1 $543 $380 #
vertex $-1 $389 $555 #
vertex $-1 $257 $556 #
straight-curve $-1 17.022879311712899 -58.100549698090113 11.588701596061984 0 1 0 I I #
coedge $-1 $396 $396 $-1 $557 reversed $260 $-1 #
edge $-1 $558 0 $558 6.2831853071796004 $261 $559 forward 7 unknown #
vertex $-1 $264 $560 #
ellipse-curve $-1 10.809072072934256 -31.225334843214796 5.945721847310014 0 -0.7660444514056185 0.64278759981090561 2.5 0 0 1 I I #
face $-1 $-1 $412 $54 $-1 $561 forward single #
loop $-1 $-1 $562 $265 #
plane-surface $-1 0 -35.960356945164875 0 0 1 0 0 0 1 forward_v I I I I #
coedge $-1 $563 $564 $565 $566 reversed $266 $-1 #
coedge $-1 $567 $268 $270 $410 forward $167 $-1 #
coedge $-1 $268 $567 $563 $568 forward $167 $-1 #
coedge $-1 $565 $271 $268 $407 forward $412 $-1 #
edge $-1 $414 -23.56288318719394 $569 -11.135268709636655 $406 $570 forward 7 unknown #
coedge $-1 $571 $572 $269 $409 forward $401 $-1 #
edge $-1 $573 -33.51361676735025 $413 -22.227657269846308 $408 $574 forward 7 unknown #
edge $-1 $414 -14.732773635779603 $573 0 $270 $575 forward 7 unknown #
coedge $-1 $271 $565 $571 $576 forward $412 $-1 #
loop $-1 $-1 $565 $400 #
vertex $-1 $409 $577 #
vertex $-1 $272 $578 #
straight-curve $-1 40.911959135609237 -58.100549698090113 11.588701596061984 0 1 0 I I #
coedge $-1 $416 $416 $-1 $579 reversed $275 $-1 #
edge $-1 $580 0 $580 6.2831853071796004 $276 $581 forward 7 unknown #
vertex $-1 $279 $582 #
ellipse-curve $-1 34.698151896830595 -31.225334843214796 5.945721847310014 0 -0.7660444514056185 0.64278759981090561 2.5 0 0 1 I I #
face $-1 $-1 $295 $42 $-1 $583 reversed single #
loop $-1 $-1 $436 $280 #
plane-surface $-1 0 35.960356945164875 0 0 -1 0 0 0 -1 forward_v I I I I #
coedge $-1 $584 $434 $437 $585 forward $281 $-1 #
coedge $-1 $440 $283 $284 $428 reversed $176 $-1 #
coedge $-1 $434 $584 $283 $426 reversed $281 $-1 #
edge $-1 $441 -11.588701596061984 $586 11.588701596061984 $425 $587 forward 7 unknown #
coedge $-1 $285 $284 $584 $588 forward $113 $-1 #
edge $-1 $432 -52.373424481948305 $586 52.373424481948305 $424 $589 forward 7 unknown #
coedge $-1 $437 $436 $285 $430 reversed $421 $-1 #
edge $-1 $590 -52.373424481948305 $431 52.373424481948305 $429 $591 forward 7 unknown #
vertex $-1 $287 $592 #
vertex $-1 $443 $593 #
straight-curve $-1 52.373424481948305 0 -11.588701596061984 0 -1 0 I I #
coedge $-1 $423 $425 $288 $435 reversed $281 $-1 #
edge $-1 $438 -35.960356945164875 $441 35.960356945164875 $434 $594 forward 7 unknown #
coedge $-1 $429 $289 $294 $444 forward $421 $-1 #
coedge $-1 $289 $429 $423 $585 reversed $421 $-1 #
vertex $-1 $290 $595 #
straight-curve $-1 0 35.960356945164875 11.588701596061984 -1 0 0 I I #
coedge $-1 $291 $424 $293 $443 reversed $176 $-1 #
vertex $-1 $435 $596 #
straight-curve $-1 0 -35.960356945164875 11.588701596061984 1 0 0 I I #
edge $-1 $296 -11.588701596061984 $432 11.588701596061984 $293 $597 forward 7 unknown #
edge $-1 $297 -11.588701596061984 $431 11.588701596061984 $294 $598 forward 7 unknown #
point $-1 52.373424481948305 -35.960356945164875 11.588701596061984 #
point $-1 52.373424481948305 35.960356945164875 11.588701596061984 #
face $-1 $-1 $456 $43 $-1 $599 reversed single #
loop $-1 $-1 $453 $299 #
plane-surface $-1 0 0 11.588701596061984 0 0 1 1 0 0 forward_v I I I I #
coedge $-1 $600 $601 $306 $459 forward $300 $-1 #
coedge $-1 $302 $463 $602 $603 reversed $184 $-1 #
edge $-1 $604 -6.591045297080921 $312 -3.4042673008812052 $302 $605 forward 7 unknown #
coedge $-1 $602 $606 $303 $454 forward $448 $-1 #
edge $-1 $457 -35.960356945164875 $604 35.960356945164875 $453 $607 forward 7 unknown #
coedge $-1 $460 $304 $606 $608 reversed $456 $-1 #
loop $-1 $-1 $304 $447 #
vertex $-1 $305 $609 #
straight-curve $-1 -43.182894813637077 -35.960356945164875 4.9976562989810631 0 0 1 I I #
edge $-1 $464 -35.960356945164875 $461 35.960356945164875 $450 $610 forward 7 unknown #
coedge $-1 $307 $455 $600 $611 forward $456 $-1 #
vertex $-1 $459 $612 #
straight-curve $-1 -23.889079823896346 -35.960356945164875 8.4019235998622683 1 0 0 I I #
coedge $-1 $451 $309 $601 $613 reversed $184 $-1 #
vertex $-1 $459 $614 #
straight-curve $-1 -23.889079823896346 35.960356945164875 8.4019235998622683 -1 0 0 I I #
point $-1 -43.182894813637077 35.960356945164875 8.4019235998622683 #
point $-1 -43.182894813637077 -35.960356945164875 8.4019235998622683 #
loop $-1 $-1 $322 $315 #
plane-surface $-1 0 35.960356945164875 0 0 -1 0 0 0 -1 forward_v I I I I #
coedge $-1 $615 $616 $319 $472 forward $316 $-1 #
coedge $-1 $319 $318 $477 $617 reversed $121 $-1 #
edge $-1 $474 34.958822981826081 $618 43.329062392722733 $470 $619 forward 7 unknown #
coedge $-1 $325 $320 $616 $620 forward $192 $-1 #
vertex $-1 $620 $621 #
straight-curve $-1 22.111344727695602 31.649365061583545 11.588701596061973 1 0 0 I I #
coedge $-1 $622 $322 $325 $481 reversed $468 $-1 #
coedge $-1 $322 $622 $471 $617 forward $468 $-1 #
vertex $-1 $323 $623 #
straight-curve $-1 36.071954428834104 35.960356945164875 60.005352419633383 0 0 1 I I #
straight-curve $-1 36.071954428834104 -1.0815481452622464 66.062090761846463 0 0.51503806187062418 -0.85716730853699208 I I #
edge $-1 $624 -52.373424481948305 $326 -36.071954428834104 $476 $625 forward 7 unknown #
point $-1 36.071954428834104 35.960356945164875 11.588701596061984 #
point $-1 36.071954428834104 31.649365061583545 11.588701596061981 #
edge $-1 $626 1 $626 0 $329 $-1 forward 7 unknown #
vertex $-1 $330 $627 #
ellipse-curve $-1 39.332248439456947 32.031379827732096 6.9357388419264607 0 0.85716730853699208 0.51503806187062418 1 0 0 1 I I #
point $-1 40.332248439456947 33.804861003374221 8.001353802237718 #
edge $-1 $628 1 $628 0 $333 $-1 forward 7 unknown #
vertex $-1 $334 $629 #
ellipse-curve $-1 44.222689455391205 32.031379827732096 6.9357388419264607 0 0.85716730853699208 0.51503806187062418 1 0 0 1 I I #
point $-1 45.222689455391205 33.804861003374221 8.001353802237718 #
edge $-1 $630 1 $630 0 $337 $-1 forward 7 unknown #
vertex $-1 $338 $631 #
ellipse-curve $-1 49.113130471325462 32.031379827732096 6.9357388419264607 0 0.85716730853699208 0.51503806187062418 1 0 0 1 I I #
point $-1 50.113130471325462 33.804861003374221 8.001353802237718 #
loop $-1 $-1 $349 $341 #
plane-surface $-1 0 -35.960356945164875 0 0 1 0 0 0 1 forward_v I I I I #
coedge $-1 $499 $344 $632 $633 reversed $221 $-1 #
coedge $-1 $344 $498 $502 $634 reversed $221 $-1 #
edge $-1 $635 0 $503 14.732773635779603 $344 $636 forward 7 unknown #
coedge $-1 $346 $345 $506 $637 reversed $140 $-1 #
coedge $-1 $352 $347 $499 $634 forward $342 $-1 #
vertex $-1 $634 $638 #
straight-curve $-1 -18.484543787429217 -26.490312741264717 11.588701596061984 -1 0 0 I I #
coedge $-1 $632 $349 $352 $510 reversed $496 $-1 #
coedge $-1 $349 $632 $501 $637 forward $496 $-1 #
vertex $-1 $350 $639 #
straight-curve $-1 -30.755280336079792 -35.960356945164875 33.816358865908292 0 0 1 I I #
straight-curve $-1 -30.755280336079792 -35.960356945164875 0.30274209855804202 0 -0.64278759981090561 -0.7660444514056185 I I #
edge $-1 $640 -43.182894813637077 $353 -30.755280336079792 $505 $641 forward 7 unknown #
point $-1 -30.755280336079792 -35.960356945164875 11.588701596061984 #
point $-1 -30.755280336079792 -26.490312741264717 11.588701596061984 #
edge $-1 $642 1 $642 0 $356 $-1 forward 7 unknown #
vertex $-1 $357 $643 #
ellipse-curve $-1 -36.969087574858435 -28.018501217942159 3.2548690055465985 0 -0.7660444514056185 0.64278759981090561 2.5 0 0 1 I I #
point $-1 -34.469087574858435 -31.225334843214799 5.9457218473100166 #
plane-surface $-1 0 0 11.588701596061984 0 0 1 1 0 0 forward_v I I I I #
coedge $-1 $528 $527 $520 $644 forward $361 $-1 #
coedge $-1 $520 $363 $365 $524 reversed $236 $-1 #
coedge $-1 $363 $519 $518 $644 reversed $236 $-1 #
coedge $-1 $371 $366 $363 $522 forward $372 $-1 #
edge $-1 $525 -31.610236956825396 $645 -22.140192752925238 $521 $646 forward 7 unknown #
coedge $-1 $365 $364 $528 $647 reversed $149 $-1 #
edge $-1 $648 0 $525 14.732773635779603 $519 $649 forward 7 unknown #
vertex $-1 $367 $650 #
straight-curve $-1 -6.5400038754810446 -26.490312741264717 11.588701596061984 -1 0 0 I I #
coedge $-1 $518 $368 $371 $532 reversed $361 $-1 #
coedge $-1 $368 $518 $523 $647 forward $361 $-1 #
vertex $-1 $369 $651 #
straight-curve $-1 -6.8662005121834468 -35.960356945164875 33.816358865908292 0 0 1 I I #
straight-curve $-1 -6.8662005121834468 -35.960356945164875 0.30274209855804202 0 -0.64278759981090561 -0.7660444514056185 I I #
edge $-1 $645 -19.293814989740731 $373 -6.8662005121834468 $527 $652 forward 7 unknown #
point $-1 -6.8662005121834468 -35.960356945164875 11.588701596061984 #
point $-1 -6.8662005121834468 -26.490312741264717 11.588701596061984 #
edge $-1 $653 1 $653 0 $376 $-1 forward 7 unknown #
vertex $-1 $377 $654 #
ellipse-curve $-1 -13.080007750962089 -28.018501217942159 3.2548690055465985 0 -0.7660444514056185 0.64278759981090561 2.5 0 0 1 I I #
point $-1 -10.580007750962089 -31.225334843214799 5.9457218473100166 #
plane-surface $-1 0 0 11.588701596061984 0 0 1 1 0 0 forward_v I I I I #
coedge $-1 $550 $549 $542 $655 forward $381 $-1 #
coedge $-1 $542 $383 $385 $546 reversed $251 $-1 #
coedge $-1 $383 $541 $540 $655 reversed $251 $-1 #
coedge $-1 $391 $386 $383 $544 forward $392 $-1 #
edge $-1 $547 -31.610236956825396 $656 -22.140192752925238 $543 $657 forward 7 unknown #
coedge $-1 $385 $384 $550 $658 reversed $158 $-1 #
edge $-1 $659 0 $547 14.732773635779603 $541 $660 forward 7 unknown #
vertex $-1 $387 $661 #
straight-curve $-1 5.4045360364671282 -26.490312741264717 11.588701596061984 -1 0 0 I I #
coedge $-1 $540 $388 $391 $554 reversed $381 $-1 #
coedge $-1 $388 $540 $545 $658 forward $381 $-1 #
vertex $-1 $389 $662 #
straight-curve $-1 17.022879311712899 -35.960356945164875 33.816358865908292 0 0 1 I I #
straight-curve $-1 17.022879311712899 -35.960356945164875 0.30274209855804202 0 -0.64278759981090561 -0.7660444514056185 I I #
edge $-1 $656 4.5952648341556142 $393 17.022879311712899 $549 $663 forward 7 unknown #
point $-1 17.022879311712899 -35.960356945164875 11.588701596061984 #
point $-1 17.022879311712899 -26.490312741264717 11.588701596061984 #
edge $-1 $664 1 $664 0 $396 $-1 forward 7 unknown #
vertex $-1 $397 $665 #
ellipse-curve $-1 10.809072072934256 -28.018501217942159 3.2548690055465985 0 -0.7660444514056185 0.64278759981090561 2.5 0 0 1 I I #
point $-1 13.309072072934256 -31.225334843214799 5.9457218473100166 #
plane-surface $-1 0 0 11.588701596061984 0 0 1 1 0 0 forward_v I I I I #
coedge $-1 $572 $571 $564 $666 forward $401 $-1 #
coedge $-1 $564 $403 $405 $568 reversed $266 $-1 #
coedge $-1 $403 $563 $562 $666 reversed $266 $-1 #
coedge $-1 $411 $406 $403 $566 forward $412 $-1 #
edge $-1 $569 -31.610236956825396 $667 -22.140192752925238 $565 $668 forward 7 unknown #
coedge $-1 $405 $404 $572 $669 reversed $167 $-1 #
edge $-1 $670 0 $569 14.732773635779603 $563 $671 forward 7 unknown #
vertex $-1 $407 $672 #
straight-curve $-1 17.349075948415297 -26.490312741264717 11.588701596061984 -1 0 0 I I #
coedge $-1 $562 $408 $411 $576 reversed $401 $-1 #
coedge $-1 $408 $562 $567 $669 forward $401 $-1 #
vertex $-1 $409 $673 #
straight-curve $-1 40.911959135609237 -35.960356945164875 33.816358865908292 0 0 1 I I #
straight-curve $-1 40.911959135609237 -35.960356945164875 0.30274209855804202 0 -0.64278759981090561 -0.7660444514056185 I I #
edge $-1 $667 28.484344658051953 $413 40.911959135609237 $571 $674 forward 7 unknown #
point $-1 40.911959135609237 -35.960356945164875 11.588701596061984 #
point $-1 40.911959135609237 -26.490312741264717 11.588701596061984 #
edge $-1 $675 1 $675 0 $416 $-1 forward 7 unknown #
vertex $-1 $417 $676 #
ellipse-curve $-1 34.698151896830595 -28.018501217942159 3.2548690055465985 0 -0.7660444514056185 0.64278759981090561 2.5 0 0 1 I I #
point $-1 37.198151896830595 -31.225334843214799 5.9457218473100166 #
plane-surface $-1 52.373424481948305 0 0 -1 0 0 0 0 1 forward_v I I I I #
coedge $-1 $425 $423 $427 $588 reversed $281 $-1 #
edge $-1 $438 -11.588701596061984 $590 11.588701596061984 $437 $677 forward 7 unknown #
vertex $-1 $588 $678 #
straight-curve $-1 -52.373424481948305 -35.960356945164875 0 0 0 -1 I I #
edge $-1 $586 -35.960356945164875 $590 35.960356945164875 $584 $679 forward 7 unknown #
straight-curve $-1 0 -35.960356945164875 -11.588701596061984 -1 0 0 I I #
vertex $-1 $430 $680 #
straight-curve $-1 0 35.960356945164875 -11.588701596061984 1 0 0 I I #
point $-1 52.373424481948305 35.960356945164875 -11.588701596061984 #
point $-1 52.373424481948305 -35.960356945164875 -11.588701596061984 #
straight-curve $-1 -52.373424481948305 0 11.588701596061984 0 -1 0 I I #
point $-1 -52.373424481948305 35.960356945164875 11.588701596061984 #
point $-1 -52.373424481948305 -35.960356945164875 11.588701596061984 #
straight-curve $-1 52.373424481948305 -35.960356945164875 0 0 0 -1 I I #
straight-curve $-1 52.373424481948305 35.960356945164875 0 0 0 -1 I I #
plane-surface $-1 0 -35.960356945164875 0 0 1 0 0 0 1 forward_v I I I I #
coedge $-1 $681 $450 $460 $611 reversed $300 $-1 #
coedge $-1 $450 $681 $463 $613 forward $300 $-1 #
coedge $-1 $682 $453 $451 $603 forward $448 $-1 #
edge $-1 $604 43.182894813637077 $683 52.373424481948305 $451 $684 forward 7 unknown #
vertex $-1 $603 $685 #
straight-curve $-1 -43.182894813637077 35.960356945164875 4.9976562989810631 0 0 -1 I I #
coedge $-1 $453 $682 $455 $608 forward $448 $-1 #
straight-curve $-1 -43.182894813637077 0 11.588701596061984 0 1 0 I I #
edge $-1 $686 -52.373424481948305 $457 -43.182894813637077 $455 $687 forward 7 unknown #
point $-1 -43.182894813637077 -35.960356945164875 11.588701596061984 #
straight-curve $-1 -52.373424481948305 0 8.4019235998622683 0 -1 0 I I #
edge $-1 $686 -11.588701596061984 $461 -8.4019235998622683 $600 $688 forward 7 unknown #
point $-1 -52.373424481948305 -35.960356945164875 8.4019235998622683 #
edge $-1 $683 -11.588701596061984 $464 -8.4019235998622683 $463 $689 forward 7 unknown #
point $-1 -52.373424481948305 35.960356945164875 8.4019235998622683 #
coedge $-1 $616 $470 $622 $690 reversed $316 $-1 #
coedge $-1 $470 $615 $473 $620 reversed $316 $-1 #
edge $-1 $618 -30.262079754252703 $478 -13.960609701138502 $477 $691 forward 7 unknown #
vertex $-1 $472 $692 #
straight-curve $-1 52.373424481948305 13.644240627745608 41.554261801014988 0 0.51503806187062429 -0.85716730853699219 I I #
edge $-1 $474 31.649365061583545 $624 35.960356945164875 $616 $693 forward 7 unknown #
point $-1 52.373424481948305 31.649365061583545 11.588701596061981 #
coedge $-1 $477 $476 $615 $690 forward $468 $-1 #
point $-1 36.071954428834104 35.960356945164875 4.4140060084134447 #
vertex $-1 $620 $694 #
straight-curve $-1 0 35.960356945164875 11.588701596061984 -1 0 0 I I #
vertex $-1 $484 $695 #
point $-1 40.332248439456947 32.031379827732096 6.9357388419264607 #
vertex $-1 $488 $696 #
point $-1 45.222689455391205 32.031379827732096 6.9357388419264607 #
vertex $-1 $492 $697 #
point $-1 50.113130471325462 32.031379827732096 6.9357388419264607 #
coedge $-1 $506 $505 $498 $633 forward $496 $-1 #
edge $-1 $640 22.227657269846308 $635 33.51361676735025 $632 $698 forward 7 unknown #
edge $-1 $503 26.490312741264717 $640 35.960356945164875 $502 $699 forward 7 unknown #
vertex $-1 $633 $700 #
straight-curve $-1 -43.182894813637077 -35.960356945164875 0.30274209855804202 0 0.64278759981090561 0.7660444514056185 I I #
edge $-1 $635 -24.69835102620786 $507 -12.270736548650575 $506 $701 forward 7 unknown #
point $-1 -43.182894813637077 -26.490312741264717 11.588701596061984 #
point $-1 -30.755280336079792 -35.960356945164875 0.30274209855804202 #
vertex $-1 $510 $702 #
straight-curve $-1 0 -35.960356945164875 11.588701596061984 1 0 0 I I #
vertex $-1 $513 $703 #
point $-1 -34.469087574858435 -28.018501217942159 3.2548690055465985 #
edge $-1 $645 22.227657269846308 $648 33.51361676735025 $518 $704 forward 7 unknown #
vertex $-1 $532 $705 #
straight-curve $-1 -19.293814989740731 -58.100549698090113 11.588701596061984 0 -1 0 I I #
edge $-1 $648 -12.753811114259687 $529 -0.32619663670240229 $528 $706 forward 7 unknown #
vertex $-1 $647 $707 #
straight-curve $-1 -19.293814989740731 -35.960356945164875 0.30274209855804202 0 0.64278759981090561 0.7660444514056185 I I #
point $-1 -19.293814989740731 -26.490312741264717 11.588701596061984 #
point $-1 -6.8662005121834468 -35.960356945164875 0.30274209855804202 #
straight-curve $-1 0 -35.960356945164875 11.588701596061984 1 0 0 I I #
vertex $-1 $535 $708 #
point $-1 -10.580007750962089 -28.018501217942159 3.2548690055465985 #
edge $-1 $656 22.227657269846308 $659 33.51361676735025 $540 $709 forward 7 unknown #
vertex $-1 $554 $710 #
straight-curve $-1 4.5952648341556142 -58.100549698090113 11.588701596061984 0 -1 0 I I #
edge $-1 $659 -0.80927120231151406 $551 11.61834327524577 $550 $711 forward 7 unknown #
vertex $-1 $658 $712 #
straight-curve $-1 4.5952648341556142 -35.960356945164875 0.30274209855804202 0 0.64278759981090561 0.7660444514056185 I I #
point $-1 4.5952648341556142 -26.490312741264717 11.588701596061984 #
point $-1 17.022879311712899 -35.960356945164875 0.30274209855804202 #
straight-curve $-1 0 -35.960356945164875 11.588701596061984 1 0 0 I I #
vertex $-1 $557 $713 #
point $-1 13.309072072934256 -28.018501217942159 3.2548690055465985 #
edge $-1 $667 22.227657269846308 $670 33.51361676735025 $562 $714 forward 7 unknown #
vertex $-1 $576 $715 #
straight-curve $-1 28.484344658051953 -58.100549698090113 11.588701596061984 0 -1 0 I I #
edge $-1 $670 11.135268709636655 $573 23.56288318719394 $572 $716 forward 7 unknown #
vertex $-1 $669 $717 #
straight-curve $-1 28.484344658051953 -35.960356945164875 0.30274209855804202 0 0.64278759981090561 0.7660444514056185 I I #
point $-1 28.484344658051953 -26.490312741264717 11.588701596061984 #
point $-1 40.911959135609237 -35.960356945164875 0.30274209855804202 #
straight-curve $-1 0 -35.960356945164875 11.588701596061984 1 0 0 I I #
vertex $-1 $579 $718 #
point $-1 37.198151896830595 -28.018501217942159 3.2548690055465985 #
straight-curve $-1 -52.373424481948305 35.960356945164875 0 0 0 -1 I I #
point $-1 -52.373424481948305 -35.960356945164875 -11.588701596061984 #
straight-curve $-1 -52.373424481948305 0 -11.588701596061984 0 1 0 I I #
point $-1 -52.373424481948305 35.960356945164875 -11.588701596061984 #
coedge $-1 $601 $600 $682 $719 reversed $300 $-1 #
coedge $-1 $606 $602 $681 $719 forward $448 $-1 #
vertex $-1 $603 $720 #
straight-curve $-1 0 35.960356945164875 11.588701596061984 -1 0 0 I I #
point $-1 -43.182894813637077 35.960356945164875 11.588701596061984 #
vertex $-1 $719 $721 #
straight-curve $-1 0 -35.960356945164875 11.588701596061984 1 0 0 I I #
straight-curve $-1 -52.373424481948305 -35.960356945164875 0 0 0 -1 I I #
straight-curve $-1 -52.373424481948305 35.960356945164875 0 0 0 -1 I I #
edge $-1 $624 -11.588701596061984 $618 -4.4140060084134447 $615 $722 forward 7 unknown #
straight-curve $-1 22.111344727695602 35.960356945164875 4.414006008413434 -1 0 0 I I #
point $-1 52.373424481948305 35.960356945164875 4.4140060084134447 #
straight-curve $-1 52.373424481948305 0 11.588701596061984 0 1 0 I I #
point $-1 52.373424481948305 35.960356945164875 11.588701596061984 #
point $-1 39.332248439456947 31.174212519195105 6.420700780055836 #
point $-1 44.222689455391205 31.174212519195105 6.420700780055836 #
point $-1 49.113130471325462 31.174212519195105 6.420700780055836 #
straight-curve $-1 -43.182894813637077 -35.960356945164875 33.816358865908292 0 0 -1 I I #
straight-curve $-1 -43.182894813637077 0 11.588701596061984 0 -1 0 I I #
point $-1 -43.182894813637077 -35.960356945164875 0.30274209855804202 #
straight-curve $-1 -18.484543787429217 -35.960356945164875 0.30274209855803913 1 0 0 I I #
point $-1 -43.182894813637077 -35.960356945164875 11.588701596061984 #
point $-1 -36.969087574858435 -26.10339008942811 1.6479000060193347 #
straight-curve $-1 -19.293814989740731 -35.960356945164875 33.816358865908292 0 0 -1 I I #
point $-1 -19.293814989740731 -35.960356945164875 11.588701596061984 #
straight-curve $-1 -6.5400038754810446 -35.960356945164875 0.30274209855803913 1 0 0 I I #
point $-1 -19.293814989740731 -35.960356945164875 0.30274209855804202 #
point $-1 -13.080007750962089 -26.10339008942811 1.6479000060193347 #
straight-curve $-1 4.5952648341556142 -35.960356945164875 33.816358865908292 0 0 -1 I I #
point $-1 4.5952648341556142 -35.960356945164875 11.588701596061984 #
straight-curve $-1 5.4045360364671282 -35.960356945164875 0.30274209855803913 1 0 0 I I #
point $-1 4.5952648341556142 -35.960356945164875 0.30274209855804202 #
point $-1 10.809072072934256 -26.10339008942811 1.6479000060193347 #
straight-curve $-1 28.484344658051953 -35.960356945164875 33.816358865908292 0 0 -1 I I #
point $-1 28.484344658051953 -35.960356945164875 11.588701596061984 #
straight-curve $-1 17.349075948415297 -35.960356945164875 0.30274209855803913 1 0 0 I I #
point $-1 28.484344658051953 -35.960356945164875 0.30274209855804202 #
point $-1 34.698151896830595 -26.10339008942811 1.6479000060193347 #
edge $-1 $683 -35.960356945164875 $686 35.960356945164875 $681 $723 forward 7 unknown #
point $-1 -52.373424481948305 35.960356945164875 11.588701596061984 #
point $-1 -52.373424481948305 -35.960356945164875 11.588701596061984 #
straight-curve $-1 52.373424481948305 35.960356945164875 0 0 0 -1 I I #
straight-curve $-1 -52.373424481948305 0 11.588701596061984 0 -1 0 I I #
End-of-ACIS-data 