500 0 10 0           
7 Unknown 11 ACIS 5.0 NT 24 Thu Mar 25 18:14:48 1999 
-1 9.9999999999999995e-007 1e-010 
body $-1 $10 $-1 $11 #
body $-1 $12 $-1 $13 #
body $-1 $14 $-1 $15 #
body $-1 $16 $-1 $17 #
body $-1 $18 $-1 $19 #
body $-1 $20 $-1 $21 #
body $-1 $22 $-1 $23 #
body $-1 $24 $-1 $25 #
body $-1 $26 $-1 $27 #
body $-1 $28 $-1 $29 #
lump $-1 $-1 $30 $0 #
transform $-1 1 0 0 0 1 0 0 0 1 40.98513748588519 17.80759007149873 5.3578743552016261 1 rotate no_reflect no_shear #
lump $-1 $-1 $31 $1 #
transform $-1 1 0 0 0 1 0 0 0 1 40.98513748588519 17.80759007149873 5.3578743552016261 1 rotate no_reflect no_shear #
lump $-1 $-1 $32 $2 #
transform $-1 1 0 0 0 1 0 0 0 1 40.98513748588519 17.80759007149873 5.3578743552016261 1 rotate no_reflect no_shear #
lump $-1 $-1 $33 $3 #
transform $-1 1 0 0 0 1 0 0 0 1 40.98513748588519 17.80759007149873 5.3578743552016261 1 rotate no_reflect no_shear #
lump $-1 $-1 $34 $4 #
transform $-1 1 0 0 0 1 0 0 0 1 40.98513748588519 17.80759007149873 5.3578743552016261 1 rotate no_reflect no_shear #
lump $-1 $-1 $35 $5 #
transform $-1 1 0 0 0 1 0 0 0 1 40.98513748588519 17.80759007149873 5.3578743552016261 1 rotate no_reflect no_shear #
lump $-1 $-1 $36 $6 #
transform $-1 1 0 0 0 1 0 0 0 1 40.98513748588519 17.80759007149873 5.3578743552016261 1 rotate no_reflect no_shear #
lump $-1 $-1 $37 $7 #
transform $-1 1 0 0 0 1 0 0 0 1 40.98513748588519 17.80759007149873 5.3578743552016261 1 rotate no_reflect no_shear #
lump $-1 $-1 $38 $8 #
transform $-1 1 0 0 0 1 0 0 0 1 40.98513748588519 17.80759007149873 5.3578743552016261 1 rotate no_reflect no_shear #
lump $-1 $-1 $39 $9 #
transform $-1 1 0 0 0 1 0 0 0 1 40.98513748588519 17.80759007149873 5.3578743552016261 1 rotate no_reflect no_shear #
shell $-1 $-1 $-1 $40 $-1 $10 #
shell $-1 $-1 $-1 $41 $-1 $12 #
shell $-1 $-1 $-1 $42 $-1 $14 #
shell $-1 $-1 $-1 $43 $-1 $16 #
shell $-1 $-1 $-1 $44 $-1 $18 #
shell $-1 $-1 $-1 $45 $-1 $20 #
shell $-1 $-1 $-1 $46 $-1 $22 #
shell $-1 $-1 $-1 $47 $-1 $24 #
shell $-1 $-1 $-1 $48 $-1 $26 #
shell $-1 $-1 $-1 $49 $-1 $28 #
face $-1 $50 $51 $30 $-1 $52 forward single #
face $-1 $53 $54 $31 $-1 $55 forward single #
face $-1 $56 $57 $32 $-1 $58 reversed single #
face $-1 $59 $60 $33 $-1 $61 forward single #
face $-1 $62 $63 $34 $-1 $64 forward single #
face $-1 $65 $66 $35 $-1 $67 forward single #
face $-1 $68 $69 $36 $-1 $70 reversed single #
face $-1 $71 $72 $37 $-1 $73 forward single #
face $-1 $74 $75 $38 $-1 $76 forward single #
face $-1 $77 $78 $39 $-1 $79 forward single #
face $-1 $80 $81 $30 $-1 $82 reversed single #
loop $-1 $-1 $83 $40 #
plane-surface $-1 0 0 5.3578743552016261 0 0 1 1 0 0 forward_v I I I I #
face $-1 $84 $85 $31 $-1 $86 reversed single #
loop $-1 $-1 $87 $41 #
plane-surface $-1 0 -15.04188400975876 -2.3578743552016261 0 0 1 1 0 0 forward_v I I I I #
face $-1 $88 $89 $32 $-1 $90 reversed single #
loop $-1 $-1 $91 $42 #
plane-surface $-1 38.961995206872231 7.7689037424865646 116.09255200697761 0 -1 0 -0.69465837861970381 0 -0.71933979245794832 forward_v I I I I #
face $-1 $92 $93 $33 $-1 $94 forward single #
loop $-1 $95 $96 $43 #
cone-surface $-1 37.807896345053784 2.3213908601810012 2.2547410920218303 -0.69465837861970381 0 -0.71933979245794832 0.35966989622897416 0 -0.3473291893098519 1 I I 0 1 0.5 forward I I I I #
face $-1 $97 $98 $34 $-1 $99 forward single #
loop $-1 $100 $101 $44 #
cone-surface $-1 37.807896345053784 4.3642081910455879 2.2547410920218303 -0.69465837861970381 0 -0.71933979245794832 0.35966989622897416 0 -0.3473291893098519 1 I I 0 1 0.5 forward I I I I #
face $-1 $102 $103 $35 $-1 $104 forward single #
loop $-1 $105 $106 $45 #
cone-surface $-1 37.807896345053784 6.4070255219101746 2.2547410920218303 -0.69465837861970381 0 -0.71933979245794832 0.35966989622897416 0 -0.3473291893098519 1 I I 0 1 0.5 forward I I I I #
face $-1 $107 $108 $36 $-1 $109 reversed single #
loop $-1 $-1 $110 $46 #
plane-surface $-1 -97.926475792786491 0.95951263960461119 59.151213700076319 0 1 0 -0.69465837861970381 0 0.71933979245794832 forward_v I I I I #
face $-1 $111 $112 $37 $-1 $113 forward single #
loop $-1 $114 $115 $47 #
cone-surface $-1 -37.80789634505377 2.3213908601810012 2.2547410920218356 0.69465837861970381 0 -0.71933979245794832 0.35966989622897416 0 0.3473291893098519 1 I I 0 1 0.5 forward I I I I #
face $-1 $116 $117 $38 $-1 $118 forward single #
loop $-1 $119 $120 $48 #
cone-surface $-1 -37.80789634505377 4.3642081910455879 2.2547410920218356 0.69465837861970381 0 -0.71933979245794832 0.35966989622897416 0 0.3473291893098519 1 I I 0 1 0.5 forward I I I I #
face $-1 $121 $122 $39 $-1 $123 forward single #
loop $-1 $124 $125 $49 #
cone-surface $-1 -37.80789634505377 6.4070255219101746 2.2547410920218356 0.69465837861970381 0 -0.71933979245794832 0.35966989622897416 0 0.3473291893098519 1 I I 0 1 0.5 forward I I I I #
face $-1 $126 $127 $30 $-1 $128 reversed single #
loop $-1 $-1 $129 $50 #
plane-surface $-1 0 0 -5.3578743552016261 0 0 1 1 0 0 forward_v I I I I #
coedge $-1 $130 $131 $132 $133 forward $51 $-1 #
face $-1 $134 $135 $31 $-1 $136 reversed single #
loop $-1 $-1 $137 $53 #
plane-surface $-1 0 -12.276177948018791 -3.8578743552016261 0 -1 0 0 0 -1 forward_v I I I I #
coedge $-1 $138 $139 $140 $141 reversed $54 $-1 #
face $-1 $142 $143 $32 $-1 $144 reversed single #
loop $-1 $-1 $145 $56 #
plane-surface $-1 -17.97934310002907 4.3642081910455879 57.128071421063353 0.69465837861970381 0 0.71933979245794832 0.71933979245794832 0 -0.69465837861970381 forward_v I I I I #
coedge $-1 $146 $147 $148 $149 reversed $57 $-1 #
face $-1 $-1 $150 $33 $-1 $151 forward single #
loop $-1 $152 $153 $59 #
cone-surface $-1 37.134427304775414 2.3213908601810012 1.5573435012473356 -0.69465837861970381 0 -0.71933979245794832 0.17983494811448708 0 -0.17366459465492595 1 I I -0.70710678118654746 0.70710678118654746 0.25 forward I I I I #
loop $-1 $-1 $154 $43 #
coedge $-1 $96 $96 $155 $156 reversed $60 $-1 #
face $-1 $-1 $157 $34 $-1 $158 forward single #
loop $-1 $159 $160 $62 #
cone-surface $-1 37.134427304775414 4.3642081910455879 1.5573435012473356 -0.69465837861970381 0 -0.71933979245794832 0.17983494811448708 0 -0.17366459465492595 1 I I -0.70710678118654746 0.70710678118654746 0.25 forward I I I I #
loop $-1 $-1 $161 $44 #
coedge $-1 $101 $101 $162 $163 reversed $63 $-1 #
face $-1 $-1 $164 $35 $-1 $165 forward single #
loop $-1 $166 $167 $65 #
cone-surface $-1 37.134427304775414 6.4070255219101746 1.5573435012473356 -0.69465837861970381 0 -0.71933979245794832 0.17983494811448708 0 -0.17366459465492595 1 I I -0.70710678118654746 0.70710678118654746 0.25 forward I I I I #
loop $-1 $-1 $168 $45 #
coedge $-1 $106 $106 $169 $170 reversed $66 $-1 #
face $-1 $171 $172 $36 $-1 $173 reversed single #
loop $-1 $-1 $174 $68 #
plane-surface $-1 -40.98513748588519 4.3642081910455879 0.18673311416205962 -0.69465837861970381 0 0.71933979245794832 0.71933979245794832 0 0.69465837861970381 forward_v I I I I #
coedge $-1 $175 $176 $177 $178 reversed $69 $-1 #
face $-1 $-1 $179 $37 $-1 $180 forward single #
loop $-1 $181 $182 $71 #
cone-surface $-1 -37.1344273047754 2.3213908601810012 1.5573435012473409 0.69465837861970381 0 -0.71933979245794832 0.17983494811448708 0 0.17366459465492595 1 I I -0.70710678118654746 0.70710678118654746 0.25 forward I I I I #
loop $-1 $-1 $183 $47 #
coedge $-1 $115 $115 $184 $185 reversed $72 $-1 #
face $-1 $-1 $186 $38 $-1 $187 forward single #
loop $-1 $188 $189 $74 #
cone-surface $-1 -37.1344273047754 4.3642081910455879 1.5573435012473409 0.69465837861970381 0 -0.71933979245794832 0.17983494811448708 0 0.17366459465492595 1 I I -0.70710678118654746 0.70710678118654746 0.25 forward I I I I #
loop $-1 $-1 $190 $48 #
coedge $-1 $120 $120 $191 $192 reversed $75 $-1 #
face $-1 $-1 $193 $39 $-1 $194 forward single #
loop $-1 $195 $196 $77 #
cone-surface $-1 -37.1344273047754 6.4070255219101746 1.5573435012473409 0.69465837861970381 0 -0.71933979245794832 0.17983494811448708 0 0.17366459465492595 1 I I -0.70710678118654746 0.70710678118654746 0.25 forward I I I I #
loop $-1 $-1 $197 $49 #
coedge $-1 $125 $125 $198 $199 reversed $78 $-1 #
face $-1 $200 $201 $30 $-1 $202 reversed single #
loop $-1 $-1 $203 $80 #
plane-surface $-1 0 -17.80759007149873 0 0 1 0 0 0 1 forward_v I I I I #
coedge $-1 $204 $205 $206 $207 forward $81 $-1 #
coedge $-1 $208 $83 $209 $210 forward $51 $-1 #
coedge $-1 $83 $208 $211 $212 forward $51 $-1 #
coedge $-1 $213 $214 $83 $133 reversed $215 $-1 #
edge $-1 $216 -17.80759007149873 $217 17.80759007149873 $132 $218 forward 7 unknown #
face $-1 $219 $220 $31 $-1 $221 reversed single #
loop $-1 $-1 $222 $84 #
plane-surface $-1 0 0 -5.3578743552016261 0 0 1 1 0 0 forward_v I I I I #
coedge $-1 $223 $224 $225 $226 reversed $85 $-1 #
coedge $-1 $227 $87 $224 $228 forward $54 $-1 #
coedge $-1 $87 $227 $229 $230 reversed $54 $-1 #
coedge $-1 $231 $225 $87 $141 forward $220 $-1 #
edge $-1 $232 4.7552359431394109 $233 10.28664806661935 $140 $234 forward 7 unknown #
face $-1 $235 $236 $32 $-1 $237 reversed single #
loop $-1 $-1 $238 $88 #
plane-surface $-1 38.961995206872231 0.95951263960461119 116.09255200697761 0 1 0 0.69465837861970381 0 0.71933979245794832 forward_v I I I I #
coedge $-1 $239 $240 $241 $242 reversed $89 $-1 #
coedge $-1 $147 $91 $243 $244 reversed $57 $-1 #
coedge $-1 $91 $146 $239 $245 reversed $57 $-1 #
coedge $-1 $241 $246 $91 $149 forward $247 $-1 #
edge $-1 $248 -21.504139882449074 $249 -16.149266492033128 $148 $250 forward 7 unknown #
loop $-1 $-1 $155 $92 #
plane-surface $-1 -17.97934310002907 4.3642081910455879 57.128071421063353 0.69465837861970381 0 0.71933979245794832 0.71933979245794832 0 -0.69465837861970381 forward_v I I I I #
loop $-1 $-1 $251 $59 #
coedge $-1 $153 $153 $154 $252 reversed $93 $-1 #
coedge $-1 $154 $154 $153 $252 forward $95 $-1 #
coedge $-1 $155 $155 $96 $156 forward $150 $-1 #
edge $-1 $253 0 $253 6.2831853071796004 $155 $254 forward 7 unknown #
loop $-1 $-1 $162 $97 #
plane-surface $-1 -17.97934310002907 4.3642081910455879 57.128071421063353 0.69465837861970381 0 0.71933979245794832 0.71933979245794832 0 -0.69465837861970381 forward_v I I I I #
loop $-1 $-1 $255 $62 #
coedge $-1 $160 $160 $161 $256 reversed $98 $-1 #
coedge $-1 $161 $161 $160 $256 forward $100 $-1 #
coedge $-1 $162 $162 $101 $163 forward $157 $-1 #
edge $-1 $257 0 $257 6.2831853071796004 $162 $258 forward 7 unknown #
loop $-1 $-1 $169 $102 #
plane-surface $-1 -17.97934310002907 4.3642081910455879 57.128071421063353 0.69465837861970381 0 0.71933979245794832 0.71933979245794832 0 -0.69465837861970381 forward_v I I I I #
loop $-1 $-1 $259 $65 #
coedge $-1 $167 $167 $168 $260 reversed $103 $-1 #
coedge $-1 $168 $168 $167 $260 forward $105 $-1 #
coedge $-1 $169 $169 $106 $170 forward $164 $-1 #
edge $-1 $261 0 $261 6.2831853071796004 $169 $262 forward 7 unknown #
face $-1 $263 $264 $36 $-1 $265 forward single #
loop $-1 $-1 $266 $107 #
plane-surface $-1 -97.926475792786491 7.7689037424865646 59.151213700076319 0 -1 0 0.69465837861970381 0 -0.71933979245794832 forward_v I I I I #
coedge $-1 $267 $268 $269 $270 reversed $108 $-1 #
coedge $-1 $176 $110 $271 $272 reversed $69 $-1 #
coedge $-1 $110 $175 $267 $273 reversed $69 $-1 #
coedge $-1 $269 $274 $110 $178 forward $264 $-1 #
edge $-1 $275 7.9781004105080555 $276 13.332973800924002 $177 $277 forward 7 unknown #
loop $-1 $-1 $184 $111 #
plane-surface $-1 -40.98513748588519 4.3642081910455879 0.18673311416205962 -0.69465837861970381 0 0.71933979245794832 0.71933979245794832 0 0.69465837861970381 forward_v I I I I #
loop $-1 $-1 $278 $71 #
coedge $-1 $182 $182 $183 $279 reversed $112 $-1 #
coedge $-1 $183 $183 $182 $279 forward $114 $-1 #
coedge $-1 $184 $184 $115 $185 forward $179 $-1 #
edge $-1 $280 0 $280 6.2831853071796004 $184 $281 forward 7 unknown #
loop $-1 $-1 $191 $116 #
plane-surface $-1 -40.98513748588519 4.3642081910455879 0.18673311416205962 -0.69465837861970381 0 0.71933979245794832 0.71933979245794832 0 0.69465837861970381 forward_v I I I I #
loop $-1 $-1 $282 $74 #
coedge $-1 $189 $189 $190 $283 reversed $117 $-1 #
coedge $-1 $190 $190 $189 $283 forward $119 $-1 #
coedge $-1 $191 $191 $120 $192 forward $186 $-1 #
edge $-1 $284 0 $284 6.2831853071796004 $191 $285 forward 7 unknown #
loop $-1 $-1 $198 $121 #
plane-surface $-1 -40.98513748588519 4.3642081910455879 0.18673311416205962 -0.69465837861970381 0 0.71933979245794832 0.71933979245794832 0 0.69465837861970381 forward_v I I I I #
loop $-1 $-1 $286 $77 #
coedge $-1 $196 $196 $197 $287 reversed $122 $-1 #
coedge $-1 $197 $197 $196 $287 forward $124 $-1 #
coedge $-1 $198 $198 $125 $199 forward $193 $-1 #
edge $-1 $288 0 $288 6.2831853071796004 $198 $289 forward 7 unknown #
face $-1 $290 $291 $30 $-1 $292 reversed single #
loop $-1 $-1 $293 $126 #
plane-surface $-1 -40.98513748588519 0 0 1 0 0 0 0 -1 forward_v I I I I #
coedge $-1 $294 $211 $295 $296 forward $127 $-1 #
coedge $-1 $297 $129 $294 $298 forward $81 $-1 #
coedge $-1 $129 $297 $299 $300 forward $81 $-1 #
coedge $-1 $214 $213 $129 $207 reversed $215 $-1 #
edge $-1 $301 -17.80759007149873 $302 17.80759007149873 $206 $303 forward 7 unknown #
coedge $-1 $131 $130 $304 $305 forward $51 $-1 #
coedge $-1 $306 $307 $130 $210 reversed $291 $-1 #
edge $-1 $217 -40.98513748588519 $308 40.98513748588519 $209 $309 forward 7 unknown #
coedge $-1 $203 $310 $131 $212 reversed $127 $-1 #
edge $-1 $311 -40.98513748588519 $216 40.98513748588519 $211 $312 forward 7 unknown #
coedge $-1 $206 $132 $310 $313 forward $215 $-1 #
coedge $-1 $132 $206 $306 $314 reversed $215 $-1 #
loop $-1 $-1 $213 $290 #
vertex $-1 $133 $315 #
vertex $-1 $133 $316 #
straight-curve $-1 40.98513748588519 0 5.3578743552016261 0 1 0 I I #
face $-1 $317 $318 $31 $-1 $319 reversed single #
loop $-1 $-1 $225 $134 #
plane-surface $-1 40.98513748588519 0 0 -1 0 0 0 0 1 forward_v I I I I #
coedge $-1 $320 $321 $223 $322 forward $135 $-1 #
coedge $-1 $323 $137 $222 $322 reversed $85 $-1 #
coedge $-1 $137 $323 $138 $228 reversed $85 $-1 #
coedge $-1 $140 $324 $137 $226 forward $220 $-1 #
edge $-1 $325 -3.4289371776008131 $232 -0.42893717760081307 $225 $326 forward 7 unknown #
coedge $-1 $139 $138 $327 $328 reversed $54 $-1 #
edge $-1 $232 -40.98513748588519 $329 40.98513748588519 $224 $330 forward 7 unknown #
coedge $-1 $331 $332 $139 $230 forward $318 $-1 #
edge $-1 $233 -40.98513748588519 $333 40.98513748588519 $229 $334 forward 7 unknown #
coedge $-1 $324 $140 $332 $335 forward $220 $-1 #
vertex $-1 $141 $336 #
vertex $-1 $335 $337 #
straight-curve $-1 40.98513748588519 -7.5209420048793802 -2.3578743552016261 0 -1 0 I I #
face $-1 $-1 $247 $32 $-1 $338 forward single #
loop $-1 $-1 $339 $142 #
plane-surface $-1 40.98513748588519 0 0 -1 0 0 0 0 1 forward_v I I I I #
coedge $-1 $340 $341 $342 $343 reversed $143 $-1 #
coedge $-1 $344 $145 $147 $245 forward $89 $-1 #
coedge $-1 $145 $344 $340 $345 forward $89 $-1 #
coedge $-1 $342 $148 $145 $242 forward $247 $-1 #
edge $-1 $249 -5.5867996469637706 $346 1.2225914559181827 $241 $347 forward 7 unknown #
coedge $-1 $348 $349 $146 $244 forward $236 $-1 #
edge $-1 $350 -57.859542889326754 $248 -52.688401648287183 $243 $351 forward 7 unknown #
edge $-1 $249 74.526124868355936 $350 81.97027497177038 $147 $352 forward 7 unknown #
coedge $-1 $148 $342 $348 $353 forward $247 $-1 #
loop $-1 $-1 $342 $235 #
vertex $-1 $244 $354 #
vertex $-1 $149 $355 #
straight-curve $-1 19.480997603436116 7.7689037424865646 5.3578743552016235 -1 0 0 I I #
coedge $-1 $251 $251 $-1 $356 reversed $152 $-1 #
edge $-1 $357 0 $357 6.2831853071796004 $153 $358 forward 7 unknown #
vertex $-1 $156 $359 #
ellipse-curve $-1 38.307700790677224 2.3213908601810012 2.7723037346818336 0.69465837861970381 0 0.71933979245794832 0.35966989622897416 0 -0.3473291893098519 1 I I #
coedge $-1 $255 $255 $-1 $360 reversed $159 $-1 #
edge $-1 $361 0 $361 6.2831853071796004 $160 $362 forward 7 unknown #
vertex $-1 $163 $363 #
ellipse-curve $-1 38.307700790677224 4.3642081910455879 2.7723037346818336 0.69465837861970381 0 0.71933979245794832 0.35966989622897416 0 -0.3473291893098519 1 I I #
coedge $-1 $259 $259 $-1 $364 reversed $166 $-1 #
edge $-1 $365 0 $365 6.2831853071796004 $167 $366 forward 7 unknown #
vertex $-1 $170 $367 #
ellipse-curve $-1 38.307700790677224 6.4070255219101746 2.7723037346818336 0.69465837861970381 0 0.71933979245794832 0.35966989622897416 0 -0.3473291893098519 1 I I #
face $-1 $-1 $368 $36 $-1 $369 reversed single #
loop $-1 $-1 $177 $171 #
plane-surface $-1 0 0 5.3578743552016261 0 0 1 1 0 0 forward_v I I I I #
coedge $-1 $370 $371 $372 $373 reversed $172 $-1 #
coedge $-1 $374 $174 $176 $273 forward $108 $-1 #
coedge $-1 $174 $374 $370 $375 forward $108 $-1 #
coedge $-1 $372 $177 $174 $270 forward $264 $-1 #
edge $-1 $276 -1.2225914559181827 $376 5.5867996469637706 $269 $377 forward 7 unknown #
coedge $-1 $378 $379 $175 $272 forward $368 $-1 #
edge $-1 $380 -29.3888737358761 $275 -24.217732494836532 $271 $381 forward 7 unknown #
edge $-1 $276 -7.4441501034144251 $380 0 $176 $382 forward 7 unknown #
coedge $-1 $177 $372 $378 $383 forward $264 $-1 #
vertex $-1 $272 $384 #
vertex $-1 $178 $385 #
straight-curve $-1 -48.963237896393245 0.95951263960461119 5.357874355201627 1 0 0 I I #
coedge $-1 $278 $278 $-1 $386 reversed $181 $-1 #
edge $-1 $387 0 $387 6.2831853071796004 $182 $388 forward 7 unknown #
vertex $-1 $185 $389 #
ellipse-curve $-1 -38.307700790677217 2.3213908601810012 2.7723037346818424 -0.69465837861970381 0 0.71933979245794832 0.35966989622897416 0 0.3473291893098519 1 I I #
coedge $-1 $282 $282 $-1 $390 reversed $188 $-1 #
edge $-1 $391 0 $391 6.2831853071796004 $189 $392 forward 7 unknown #
vertex $-1 $192 $393 #
ellipse-curve $-1 -38.307700790677217 4.3642081910455879 2.7723037346818424 -0.69465837861970381 0 0.71933979245794832 0.35966989622897416 0 0.3473291893098519 1 I I #
coedge $-1 $286 $286 $-1 $394 reversed $195 $-1 #
edge $-1 $395 0 $395 6.2831853071796004 $196 $396 forward 7 unknown #
vertex $-1 $199 $397 #
ellipse-curve $-1 -38.307700790677217 6.4070255219101746 2.7723037346818424 -0.69465837861970381 0 0.71933979245794832 0.35966989622897416 0 0.3473291893098519 1 I I #
face $-1 $-1 $215 $30 $-1 $398 reversed single #
loop $-1 $-1 $306 $200 #
plane-surface $-1 0 17.80759007149873 0 0 -1 0 0 0 -1 forward_v I I I I #
coedge $-1 $399 $304 $307 $400 forward $201 $-1 #
coedge $-1 $310 $203 $204 $298 reversed $127 $-1 #
coedge $-1 $304 $399 $203 $296 reversed $201 $-1 #
edge $-1 $311 -5.3578743552016261 $401 5.3578743552016261 $295 $402 forward 7 unknown #
coedge $-1 $205 $204 $399 $403 forward $81 $-1 #
edge $-1 $302 -40.98513748588519 $401 40.98513748588519 $294 $404 forward 7 unknown #
coedge $-1 $307 $306 $205 $300 reversed $291 $-1 #
edge $-1 $405 -40.98513748588519 $301 40.98513748588519 $299 $406 forward 7 unknown #
vertex $-1 $207 $407 #
vertex $-1 $313 $408 #
straight-curve $-1 40.98513748588519 0 -5.3578743552016261 0 -1 0 I I #
coedge $-1 $293 $295 $208 $305 reversed $201 $-1 #
edge $-1 $308 -17.80759007149873 $311 17.80759007149873 $304 $409 forward 7 unknown #
coedge $-1 $299 $209 $214 $314 forward $291 $-1 #
coedge $-1 $209 $299 $293 $400 reversed $291 $-1 #
vertex $-1 $210 $410 #
straight-curve $-1 0 17.80759007149873 5.3578743552016261 -1 0 0 I I #
coedge $-1 $211 $294 $213 $313 reversed $127 $-1 #
vertex $-1 $305 $411 #
straight-curve $-1 0 -17.80759007149873 5.3578743552016261 1 0 0 I I #
edge $-1 $216 -5.3578743552016261 $302 5.3578743552016261 $213 $412 forward 7 unknown #
edge $-1 $217 -5.3578743552016261 $301 5.3578743552016261 $214 $413 forward 7 unknown #
point $-1 40.98513748588519 -17.80759007149873 5.3578743552016261 #
point $-1 40.98513748588519 17.80759007149873 5.3578743552016261 #
face $-1 $-1 $414 $31 $-1 $415 reversed single #
loop $-1 $-1 $229 $219 #
plane-surface $-1 0 -17.80759007149873 0 0 1 0 0 0 1 forward_v I I I I #
coedge $-1 $416 $222 $324 $417 forward $135 $-1 #
coedge $-1 $222 $416 $418 $419 forward $135 $-1 #
edge $-1 $420 -40.98513748588519 $325 40.98513748588519 $222 $421 forward 7 unknown #
coedge $-1 $224 $223 $422 $423 reversed $85 $-1 #
coedge $-1 $225 $231 $320 $417 reversed $220 $-1 #
vertex $-1 $417 $424 #
straight-curve $-1 40.98513748588519 -12.276177948018791 -1.9289371776008131 0 0 1 I I #
coedge $-1 $422 $425 $227 $328 forward $414 $-1 #
edge $-1 $333 -10.28664806661935 $329 -4.7552359431394109 $327 $426 forward 7 unknown #
vertex $-1 $328 $427 #
straight-curve $-1 0 -12.276177948018791 -2.3578743552016261 -1 0 0 I I #
coedge $-1 $428 $229 $425 $429 forward $318 $-1 #
coedge $-1 $229 $428 $231 $335 reversed $318 $-1 #
vertex $-1 $429 $430 #
straight-curve $-1 0 -17.80759007149873 -2.3578743552016261 -1 0 0 I I #
edge $-1 $233 2.3578743552016261 $431 5.3578743552016261 $231 $432 forward 7 unknown #
point $-1 40.98513748588519 -12.276177948018791 -2.3578743552016261 #
point $-1 40.98513748588519 -17.80759007149873 -2.3578743552016261 #
plane-surface $-1 0 0 5.3578743552016261 0 0 1 1 0 0 forward_v I I I I #
coedge $-1 $349 $348 $341 $433 forward $236 $-1 #
coedge $-1 $341 $238 $240 $345 reversed $143 $-1 #
coedge $-1 $238 $340 $339 $433 reversed $143 $-1 #
coedge $-1 $246 $241 $238 $343 forward $247 $-1 #
edge $-1 $346 16.149266492033128 $434 21.504139882449074 $342 $435 forward 7 unknown #
coedge $-1 $240 $239 $349 $436 reversed $89 $-1 #
edge $-1 $437 -81.97027497177038 $346 -74.526124868355936 $340 $438 forward 7 unknown #
vertex $-1 $242 $439 #
straight-curve $-1 35.630264095469244 2.1821040955227939 5.3578743552016235 0 -1 0 I I #
coedge $-1 $339 $243 $246 $353 reversed $236 $-1 #
coedge $-1 $243 $339 $344 $436 forward $236 $-1 #
vertex $-1 $244 $440 #
straight-curve $-1 40.98513748588519 7.7689037424865646 58.046276003488806 0 0 1 I I #
straight-curve $-1 -17.97934310002907 7.7689037424865646 57.128071421063353 0.71933979245794832 0 -0.69465837861970381 I I #
edge $-1 $434 0.95951263960461119 $248 7.7689037424865646 $348 $441 forward 7 unknown #
point $-1 40.98513748588519 7.7689037424865646 5.3578743552016261 #
point $-1 35.630264095469244 7.7689037424865646 5.3578743552016235 #
edge $-1 $442 1 $442 0 $251 $-1 forward 7 unknown #
vertex $-1 $252 $443 #
ellipse-curve $-1 37.308091899430337 2.3213908601810012 1.7371784493618225 0.69465837861970381 0 0.71933979245794832 0.35966989622897416 0 -0.3473291893098519 1 I I #
point $-1 38.66737068690621 2.3213908601810012 2.4249745453719864 #
edge $-1 $444 1 $444 0 $255 $-1 forward 7 unknown #
vertex $-1 $256 $445 #
ellipse-curve $-1 37.308091899430337 4.3642081910455879 1.7371784493618225 0.69465837861970381 0 0.71933979245794832 0.35966989622897416 0 -0.3473291893098519 1 I I #
point $-1 38.66737068690621 4.3642081910455879 2.4249745453719864 #
edge $-1 $446 1 $446 0 $259 $-1 forward 7 unknown #
vertex $-1 $260 $447 #
ellipse-curve $-1 37.308091899430337 6.4070255219101746 1.7371784493618225 0.69465837861970381 0 0.71933979245794832 0.35966989622897416 0 -0.3473291893098519 1 I I #
point $-1 38.66737068690621 6.4070255219101746 2.4249745453719864 #
loop $-1 $-1 $271 $263 #
plane-surface $-1 -40.98513748588519 0 0 1 0 0 0 0 -1 forward_v I I I I #
coedge $-1 $371 $266 $268 $375 reversed $172 $-1 #
coedge $-1 $266 $370 $448 $449 reversed $172 $-1 #
coedge $-1 $274 $269 $266 $373 forward $264 $-1 #
edge $-1 $376 -13.332973800924002 $450 -7.9781004105080555 $372 $451 forward 7 unknown #
coedge $-1 $268 $267 $379 $452 reversed $108 $-1 #
edge $-1 $453 0 $376 7.4441501034144251 $370 $454 forward 7 unknown #
vertex $-1 $270 $455 #
straight-curve $-1 -35.630264095469244 2.1821040955227939 5.3578743552016252 0 1 0 I I #
coedge $-1 $448 $271 $274 $383 reversed $368 $-1 #
coedge $-1 $271 $448 $374 $452 forward $368 $-1 #
vertex $-1 $272 $456 #
straight-curve $-1 -40.98513748588519 0.95951263960461119 29.575606850038159 0 0 1 I I #
straight-curve $-1 -40.98513748588519 0.95951263960461119 0.18673311416205962 -0.71933979245794832 0 -0.69465837861970381 I I #
edge $-1 $450 -7.7689037424865646 $275 -0.95951263960461119 $378 $457 forward 7 unknown #
point $-1 -40.98513748588519 0.95951263960461119 5.3578743552016261 #
point $-1 -35.630264095469244 0.95951263960461119 5.3578743552016261 #
edge $-1 $458 1 $458 0 $278 $-1 forward 7 unknown #
vertex $-1 $279 $459 #
ellipse-curve $-1 -37.308091899430323 2.3213908601810012 1.7371784493618279 -0.69465837861970381 0 0.71933979245794832 0.35966989622897416 0 0.3473291893098519 1 I I #
point $-1 -37.948030894448245 2.3213908601810012 3.1196329239916953 #
edge $-1 $460 1 $460 0 $282 $-1 forward 7 unknown #
vertex $-1 $283 $461 #
ellipse-curve $-1 -37.308091899430323 4.3642081910455879 1.7371784493618279 -0.69465837861970381 0 0.71933979245794832 0.35966989622897416 0 0.3473291893098519 1 I I #
point $-1 -37.948030894448245 4.3642081910455879 3.1196329239916953 #
edge $-1 $462 1 $462 0 $286 $-1 forward 7 unknown #
vertex $-1 $287 $463 #
ellipse-curve $-1 -37.308091899430323 6.4070255219101746 1.7371784493618279 -0.69465837861970381 0 0.71933979245794832 0.35966989622897416 0 0.3473291893098519 1 I I #
point $-1 -37.948030894448245 6.4070255219101746 3.1196329239916953 #
plane-surface $-1 40.98513748588519 0 0 -1 0 0 0 0 1 forward_v I I I I #
coedge $-1 $295 $293 $297 $403 reversed $201 $-1 #
edge $-1 $308 -5.3578743552016261 $405 5.3578743552016261 $307 $464 forward 7 unknown #
vertex $-1 $403 $465 #
straight-curve $-1 -40.98513748588519 -17.80759007149873 0 0 0 -1 I I #
edge $-1 $401 -17.80759007149873 $405 17.80759007149873 $399 $466 forward 7 unknown #
straight-curve $-1 0 -17.80759007149873 -5.3578743552016261 -1 0 0 I I #
vertex $-1 $300 $467 #
straight-curve $-1 0 17.80759007149873 -5.3578743552016261 1 0 0 I I #
point $-1 40.98513748588519 17.80759007149873 -5.3578743552016261 #
point $-1 40.98513748588519 -17.80759007149873 -5.3578743552016261 #
straight-curve $-1 -40.98513748588519 0 5.3578743552016261 0 -1 0 I I #
point $-1 -40.98513748588519 17.80759007149873 5.3578743552016261 #
point $-1 -40.98513748588519 -17.80759007149873 5.3578743552016261 #
straight-curve $-1 40.98513748588519 -17.80759007149873 0 0 0 -1 I I #
straight-curve $-1 40.98513748588519 17.80759007149873 0 0 0 -1 I I #
loop $-1 $-1 $422 $317 #
plane-surface $-1 -40.98513748588519 0 0 1 0 0 0 0 -1 forward_v I I I I #
coedge $-1 $321 $320 $428 $468 forward $135 $-1 #
edge $-1 $325 12.276177948018791 $431 17.80759007149873 $324 $469 forward 7 unknown #
coedge $-1 $425 $422 $321 $419 reversed $414 $-1 #
edge $-1 $470 -17.80759007149873 $420 -12.276177948018791 $418 $471 forward 7 unknown #
vertex $-1 $423 $472 #
straight-curve $-1 0 -12.276177948018791 -5.3578743552016261 1 0 0 I I #
coedge $-1 $418 $327 $323 $423 forward $414 $-1 #
edge $-1 $329 0.42893717760081307 $420 3.4289371776008131 $422 $473 forward 7 unknown #
point $-1 40.98513748588519 -12.276177948018791 -5.3578743552016261 #
coedge $-1 $327 $418 $331 $429 reversed $414 $-1 #
straight-curve $-1 -40.98513748588519 -7.5209420048793802 -2.3578743552016261 0 1 0 I I #
point $-1 -40.98513748588519 -12.276177948018791 -2.3578743552016261 #
coedge $-1 $332 $331 $416 $468 reversed $318 $-1 #
edge $-1 $333 2.3578743552016261 $470 5.3578743552016261 $425 $474 forward 7 unknown #
point $-1 -40.98513748588519 -17.80759007149873 -2.3578743552016261 #
vertex $-1 $335 $475 #
straight-curve $-1 40.98513748588519 -17.80759007149873 0 0 0 -1 I I #
edge $-1 $434 52.688401648287183 $437 57.859542889326754 $339 $476 forward 7 unknown #
vertex $-1 $353 $477 #
straight-curve $-1 19.480997603436116 0.95951263960461119 5.3578743552016235 1 0 0 I I #
edge $-1 $437 -1.2225914559181827 $350 5.5867996469637706 $349 $478 forward 7 unknown #
vertex $-1 $436 $479 #
straight-curve $-1 -17.97934310002907 0.95951263960461119 57.128071421063353 -0.71933979245794832 0 0.69465837861970381 I I #
point $-1 35.630264095469244 0.95951263960461119 5.3578743552016235 #
point $-1 40.98513748588519 7.7689037424865646 0.18673311416205252 #
straight-curve $-1 40.98513748588519 0 5.3578743552016261 0 1 0 I I #
vertex $-1 $356 $480 #
point $-1 37.667761795659317 2.3213908601810012 1.3898492600519707 #
vertex $-1 $360 $481 #
point $-1 37.667761795659317 4.3642081910455879 1.3898492600519707 #
vertex $-1 $364 $482 #
point $-1 37.667761795659317 6.4070255219101746 1.3898492600519707 #
coedge $-1 $379 $378 $371 $449 forward $368 $-1 #
edge $-1 $450 24.217732494836532 $453 29.3888737358761 $448 $483 forward 7 unknown #
vertex $-1 $383 $484 #
straight-curve $-1 -48.963237896393245 7.7689037424865646 5.357874355201627 -1 0 0 I I #
edge $-1 $453 -5.5867996469637706 $380 1.2225914559181827 $379 $485 forward 7 unknown #
vertex $-1 $452 $486 #
straight-curve $-1 -40.98513748588519 7.7689037424865646 0.18673311416205962 0.71933979245794832 0 0.69465837861970381 I I #
point $-1 -35.630264095469244 7.7689037424865646 5.3578743552016261 #
point $-1 -40.98513748588519 0.95951263960461119 0.18673311416205962 #
straight-curve $-1 -40.98513748588519 0 5.3578743552016261 0 -1 0 I I #
vertex $-1 $386 $487 #
point $-1 -36.948422003201351 2.3213908601810012 2.0845076386716799 #
vertex $-1 $390 $488 #
point $-1 -36.948422003201351 4.3642081910455879 2.0845076386716799 #
vertex $-1 $394 $489 #
point $-1 -36.948422003201351 6.4070255219101746 2.0845076386716799 #
straight-curve $-1 -40.98513748588519 17.80759007149873 0 0 0 -1 I I #
point $-1 -40.98513748588519 -17.80759007149873 -5.3578743552016261 #
straight-curve $-1 -40.98513748588519 0 -5.3578743552016261 0 1 0 I I #
point $-1 -40.98513748588519 17.80759007149873 -5.3578743552016261 #
edge $-1 $431 -40.98513748588519 $470 40.98513748588519 $428 $490 forward 7 unknown #
straight-curve $-1 40.98513748588519 0 -5.3578743552016261 0 -1 0 I I #
vertex $-1 $419 $491 #
straight-curve $-1 -40.98513748588519 0 -5.3578743552016261 0 1 0 I I #
point $-1 -40.98513748588519 -12.276177948018791 -5.3578743552016261 #
straight-curve $-1 -40.98513748588519 -12.276177948018791 -1.9289371776008131 0 0 -1 I I #
straight-curve $-1 -40.98513748588519 -17.80759007149873 0 0 0 -1 I I #
point $-1 40.98513748588519 -17.80759007149873 -5.3578743552016261 #
straight-curve $-1 40.98513748588519 0.95951263960461119 58.046276003488806 0 0 -1 I I #
point $-1 40.98513748588519 0.95951263960461119 5.3578743552016261 #
straight-curve $-1 40.98513748588519 2.1821040955227939 0.18673311416205252 0 1 0 I I #
point $-1 40.98513748588519 0.95951263960461119 0.18673311416205252 #
point $-1 36.960762710120491 2.3213908601810012 1.3775085531328486 #
point $-1 36.960762710120491 4.3642081910455879 1.3775085531328486 #
point $-1 36.960762710120491 6.4070255219101746 1.3775085531328486 #
straight-curve $-1 -40.98513748588519 7.7689037424865646 29.575606850038159 0 0 -1 I I #
point $-1 -40.98513748588519 7.7689037424865646 5.3578743552016261 #
straight-curve $-1 -40.98513748588519 2.1821040955227939 0.18673311416206101 0 -1 0 I I #
point $-1 -40.98513748588519 7.7689037424865646 0.18673311416205962 #
point $-1 -36.960762710120477 2.3213908601810012 1.3775085531328539 #
point $-1 -36.960762710120477 4.3642081910455879 1.3775085531328539 #
point $-1 -36.960762710120477 6.4070255219101746 1.3775085531328539 #
straight-curve $-1 0 -17.80759007149873 -5.3578743552016261 -1 0 0 I I #
point $-1 -40.98513748588519 -17.80759007149873 -5.3578743552016261 #
End-of-ACIS-data 