500 0 6 0           
7 Unknown 11 ACIS 5.0 NT 24 Thu Mar 25 17:42:26 1999 
-1 9.9999999999999995e-007 1e-010 
body $-1 $6 $-1 $7 #
body $-1 $8 $-1 $9 #
body $-1 $10 $-1 $11 #
body $-1 $12 $-1 $13 #
body $-1 $14 $-1 $15 #
body $-1 $16 $-1 $17 #
lump $-1 $-1 $18 $0 #
transform $-1 1 0 0 0 1 0 0 0 1 54.702597125156409 29.50621394601739 11.854173455859923 1 rotate no_reflect no_shear #
lump $-1 $-1 $19 $1 #
transform $-1 1 0 0 0 1 0 0 0 1 54.702597125156409 29.50621394601739 11.854173455859923 1 rotate no_reflect no_shear #
lump $-1 $-1 $20 $2 #
transform $-1 1 0 0 0 1 0 0 0 1 54.702597125156409 29.50621394601739 11.854173455859923 1 rotate no_reflect no_shear #
lump $-1 $-1 $21 $3 #
transform $-1 1 0 0 0 1 0 0 0 1 54.702597125156409 29.50621394601739 11.854173455859923 1 rotate no_reflect no_shear #
lump $-1 $-1 $22 $4 #
transform $-1 1 0 0 0 1 0 0 0 1 54.702597125156409 29.50621394601739 11.854173455859923 1 rotate no_reflect no_shear #
lump $-1 $-1 $23 $5 #
transform $-1 1 0 0 0 1 0 0 0 1 54.702597125156409 29.50621394601739 11.854173455859923 1 rotate no_reflect no_shear #
shell $-1 $-1 $-1 $24 $-1 $6 #
shell $-1 $-1 $-1 $25 $-1 $8 #
shell $-1 $-1 $-1 $26 $-1 $10 #
shell $-1 $-1 $-1 $27 $-1 $12 #
shell $-1 $-1 $-1 $28 $-1 $14 #
shell $-1 $-1 $-1 $29 $-1 $16 #
face $-1 $30 $31 $18 $-1 $32 forward single #
face $-1 $33 $34 $19 $-1 $35 forward single #
face $-1 $36 $37 $20 $-1 $38 reversed single #
face $-1 $39 $40 $21 $-1 $41 forward single #
face $-1 $42 $43 $22 $-1 $44 reversed single #
face $-1 $45 $46 $23 $-1 $47 forward single #
face $-1 $48 $49 $18 $-1 $50 reversed single #
loop $-1 $-1 $51 $24 #
plane-surface $-1 0 0 11.854173455859923 0 0 1 1 0 0 forward_v I I I I #
face $-1 $52 $53 $19 $-1 $54 reversed single #
loop $-1 $-1 $55 $25 #
plane-surface $-1 0 -29.50621394601739 0 0 1 0 0 0 1 forward_v I I I I #
face $-1 $56 $57 $20 $-1 $58 reversed single #
loop $-1 $-1 $59 $26 #
plane-surface $-1 -13.698604105059086 65.139282142444188 124.63299735211044 1 0 0 0 -0.70710678939079041 -0.70710677298230451 forward_v I I I I #
face $-1 $60 $61 $21 $-1 $62 forward single #
loop $-1 $63 $64 $27 #
cone-surface $-1 -6.8493020525295449 25.269034548719951 7.6169940104527525 0 -0.70710678939079041 -0.70710677298230451 1 0 0 1 I I 0 1 1 forward I I I I #
face $-1 $65 $66 $22 $-1 $67 reversed single #
loop $-1 $-1 $68 $28 #
plane-surface $-1 41.003993020097312 65.139282142444188 124.63299735211044 1 0 0 0 -0.70710678939079041 -0.70710677298230451 forward_v I I I I #
face $-1 $69 $70 $23 $-1 $71 forward single #
loop $-1 $72 $73 $29 #
cone-surface $-1 47.853295072626857 25.269034548719951 7.6169940104527525 0 -0.70710678939079041 -0.70710677298230451 1 0 0 1 I I 0 1 1 forward I I I I #
face $-1 $74 $75 $18 $-1 $76 reversed single #
loop $-1 $-1 $77 $30 #
plane-surface $-1 0 0 -11.854173455859923 0 0 1 1 0 0 forward_v I I I I #
coedge $-1 $78 $79 $80 $81 forward $31 $-1 #
face $-1 $82 $83 $19 $-1 $84 reversed single #
loop $-1 $-1 $85 $33 #
plane-surface $-1 0 0 -11.854173455859923 0 0 1 1 0 0 forward_v I I I I #
coedge $-1 $86 $87 $88 $89 forward $34 $-1 #
face $-1 $90 $91 $20 $-1 $92 reversed single #
loop $-1 $-1 $93 $36 #
plane-surface $-1 -6.8493020525295449 -12.221873506570276 47.271843498269561 0 0.70710678939079041 0.70710677298230451 1 0 0 forward_v I I I I #
coedge $-1 $94 $95 $96 $97 reversed $37 $-1 #
face $-1 $-1 $98 $21 $-1 $99 forward single #
loop $-1 $100 $101 $39 #
cone-surface $-1 -6.8493020525295449 23.833510872751461 6.1814703677957379 0 -0.70710678939079041 -0.70710677298230451 0.5 0 0 1 I I -0.70710678118654746 0.70710678118654746 0.5 forward I I I I #
loop $-1 $-1 $102 $27 #
coedge $-1 $64 $64 $103 $104 reversed $40 $-1 #
face $-1 $105 $106 $22 $-1 $107 forward single #
loop $-1 $-1 $108 $42 #
plane-surface $-1 47.853295072626857 -12.221873506570276 47.271843498269561 0 0.70710678939079041 0.70710677298230451 1 0 0 forward_v I I I I #
coedge $-1 $109 $110 $111 $112 reversed $43 $-1 #
face $-1 $-1 $113 $23 $-1 $114 forward single #
loop $-1 $115 $116 $45 #
cone-surface $-1 47.853295072626857 23.833510872751461 6.1814703677957379 0 -0.70710678939079041 -0.70710677298230451 0.5 0 0 1 I I -0.70710678118654746 0.70710678118654746 0.5 forward I I I I #
loop $-1 $-1 $117 $29 #
coedge $-1 $73 $73 $118 $119 reversed $46 $-1 #
face $-1 $120 $121 $18 $-1 $122 reversed single #
loop $-1 $-1 $123 $48 #
plane-surface $-1 0 -29.50621394601739 0 0 1 0 0 0 1 forward_v I I I I #
coedge $-1 $124 $125 $126 $127 forward $49 $-1 #
coedge $-1 $128 $51 $129 $130 forward $31 $-1 #
coedge $-1 $51 $128 $131 $132 forward $31 $-1 #
coedge $-1 $133 $134 $51 $81 reversed $135 $-1 #
edge $-1 $136 -29.50621394601739 $137 29.50621394601739 $80 $138 forward 7 unknown #
face $-1 $139 $140 $19 $-1 $141 reversed single #
loop $-1 $-1 $142 $52 #
plane-surface $-1 -34.461144639073673 -41.538755323282295 0 0 1 0 0 0 1 forward_v I I I I #
coedge $-1 $143 $144 $87 $145 forward $53 $-1 #
coedge $-1 $146 $55 $147 $148 reversed $34 $-1 #
coedge $-1 $55 $146 $85 $145 reversed $34 $-1 #
coedge $-1 $149 $150 $55 $89 reversed $140 $-1 #
edge $-1 $151 -11.854173455859923 $152 11.854173455859923 $88 $153 forward 7 unknown #
face $-1 $154 $155 $20 $-1 $156 forward single #
loop $-1 $-1 $157 $56 #
plane-surface $-1 -3.5527136788005009e-015 65.139282142444188 124.63299735211044 -1 0 0 0 0.70710678939079041 0.70710677298230451 forward_v I I I I #
coedge $-1 $158 $159 $160 $161 reversed $57 $-1 #
coedge $-1 $95 $59 $162 $163 reversed $37 $-1 #
coedge $-1 $59 $94 $158 $164 reversed $37 $-1 #
coedge $-1 $160 $165 $59 $97 forward $155 $-1 #
edge $-1 $166 3.0634271252047043 $167 9.3738453572534155 $96 $168 forward 7 unknown #
loop $-1 $-1 $103 $60 #
plane-surface $-1 -6.8493020525295449 -12.221873506570276 47.271843498269561 0 0.70710678939079041 0.70710677298230451 1 0 0 forward_v I I I I #
loop $-1 $-1 $169 $39 #
coedge $-1 $101 $101 $102 $170 reversed $61 $-1 #
coedge $-1 $102 $102 $101 $170 forward $63 $-1 #
coedge $-1 $103 $103 $64 $104 forward $98 $-1 #
edge $-1 $171 -5.8294651990167239e-023 $171 6.2831853071796004 $103 $172 forward 7 unknown #
face $-1 $173 $174 $22 $-1 $175 reversed single #
loop $-1 $-1 $111 $65 #
plane-surface $-1 0 0 11.854173455859923 0 0 1 1 0 0 forward_v I I I I #
coedge $-1 $176 $177 $178 $179 reversed $66 $-1 #
coedge $-1 $110 $68 $180 $181 reversed $43 $-1 #
coedge $-1 $68 $109 $176 $182 reversed $43 $-1 #
coedge $-1 $178 $183 $68 $112 forward $106 $-1 #
edge $-1 $184 3.0634271252047043 $185 9.3738453572534155 $111 $186 forward 7 unknown #
loop $-1 $-1 $118 $69 #
plane-surface $-1 47.853295072626857 -12.221873506570276 47.271843498269561 0 0.70710678939079041 0.70710677298230451 1 0 0 forward_v I I I I #
loop $-1 $-1 $187 $45 #
coedge $-1 $116 $116 $117 $188 reversed $70 $-1 #
coedge $-1 $117 $117 $116 $188 forward $72 $-1 #
coedge $-1 $118 $118 $73 $119 forward $113 $-1 #
edge $-1 $189 -5.8294651990167239e-023 $189 6.2831853071796004 $118 $190 forward 7 unknown #
face $-1 $191 $192 $18 $-1 $193 reversed single #
loop $-1 $-1 $194 $74 #
plane-surface $-1 -54.702597125156409 0 0 1 0 0 0 0 -1 forward_v I I I I #
coedge $-1 $195 $131 $196 $197 forward $75 $-1 #
coedge $-1 $198 $77 $195 $199 forward $49 $-1 #
coedge $-1 $77 $198 $200 $201 forward $49 $-1 #
coedge $-1 $134 $133 $77 $127 reversed $135 $-1 #
edge $-1 $202 -29.50621394601739 $203 29.50621394601739 $126 $204 forward 7 unknown #
coedge $-1 $79 $78 $205 $206 forward $31 $-1 #
coedge $-1 $207 $208 $78 $130 reversed $192 $-1 #
edge $-1 $137 -54.702597125156409 $209 54.702597125156409 $129 $210 forward 7 unknown #
coedge $-1 $123 $211 $79 $132 reversed $75 $-1 #
edge $-1 $212 -54.702597125156409 $136 54.702597125156409 $131 $213 forward 7 unknown #
coedge $-1 $126 $80 $211 $214 forward $135 $-1 #
coedge $-1 $80 $126 $207 $215 reversed $135 $-1 #
loop $-1 $-1 $133 $191 #
vertex $-1 $81 $216 #
vertex $-1 $81 $217 #
straight-curve $-1 54.702597125156409 0 11.854173455859923 0 1 0 I I #
face $-1 $218 $219 $19 $-1 $220 reversed single #
loop $-1 $-1 $88 $82 #
plane-surface $-1 -37.928039064710788 -35.522484634649842 0 1 0 0 0 0 -1 forward_v I I I I #
coedge $-1 $221 $222 $223 $224 forward $83 $-1 #
coedge $-1 $225 $85 $226 $227 forward $53 $-1 #
coedge $-1 $85 $225 $149 $228 forward $53 $-1 #
edge $-1 $151 -37.928039064710788 $229 -30.994250213436562 $85 $230 forward 7 unknown #
coedge $-1 $87 $86 $231 $232 forward $34 $-1 #
coedge $-1 $233 $234 $86 $148 forward $235 $-1 #
edge $-1 $236 30.994250213436562 $152 37.928039064710788 $147 $237 forward 7 unknown #
coedge $-1 $223 $88 $144 $228 reversed $140 $-1 #
coedge $-1 $88 $223 $233 $238 reversed $140 $-1 #
vertex $-1 $145 $239 #
vertex $-1 $238 $240 #
straight-curve $-1 -37.928039064710788 -29.50621394601739 0 0 0 1 I I #
face $-1 $-1 $241 $20 $-1 $242 reversed single #
loop $-1 $-1 $96 $90 #
plane-surface $-1 0 0 11.854173455859923 0 0 1 1 0 0 forward_v I I I I #
coedge $-1 $243 $244 $245 $246 reversed $91 $-1 #
coedge $-1 $247 $93 $95 $164 forward $57 $-1 #
coedge $-1 $93 $247 $243 $248 forward $57 $-1 #
coedge $-1 $245 $96 $93 $161 forward $155 $-1 #
edge $-1 $167 -10.273953078794314 $249 3.4246510262647689 $160 $250 forward 7 unknown #
coedge $-1 $251 $252 $94 $163 forward $241 $-1 #
edge $-1 $253 -56.772743598677913 $166 -50.462325220195297 $162 $254 forward 7 unknown #
edge $-1 $167 50.088148740480669 $253 59.012427892034815 $95 $255 forward 7 unknown #
coedge $-1 $96 $245 $251 $256 forward $155 $-1 #
vertex $-1 $163 $257 #
vertex $-1 $97 $258 #
straight-curve $-1 -13.698604105059086 32.569641071222094 11.854173455859922 0 -1 0 I I #
coedge $-1 $169 $169 $-1 $259 reversed $100 $-1 #
edge $-1 $260 0 $260 6.2831853071796004 $101 $261 forward 7 unknown #
vertex $-1 $104 $262 #
ellipse-curve $-1 -6.8493020525295449 26.351004829993041 8.69896426661861 0 0.70710678939079041 0.70710677298230451 1 0 0 1 I I #
face $-1 $-1 $263 $22 $-1 $264 reversed single #
loop $-1 $-1 $265 $105 #
plane-surface $-1 54.702597125156409 0 0 -1 0 0 0 0 1 forward_v I I I I #
coedge $-1 $266 $108 $110 $182 forward $66 $-1 #
coedge $-1 $108 $266 $265 $267 reversed $66 $-1 #
coedge $-1 $268 $111 $108 $179 forward $106 $-1 #
edge $-1 $185 17.077345483783883 $269 30.775949588842973 $178 $270 forward 7 unknown #
coedge $-1 $271 $272 $109 $181 forward $263 $-1 #
edge $-1 $273 -56.772743598677913 $184 -50.462325220195297 $180 $274 forward 7 unknown #
edge $-1 $185 50.088148740480669 $273 59.012427892034815 $110 $275 forward 7 unknown #
coedge $-1 $111 $268 $271 $276 forward $106 $-1 #
vertex $-1 $181 $277 #
vertex $-1 $112 $278 #
straight-curve $-1 41.003993020097312 32.569641071222094 11.854173455859922 0 -1 0 I I #
coedge $-1 $187 $187 $-1 $279 reversed $115 $-1 #
edge $-1 $280 0 $280 6.2831853071796004 $116 $281 forward 7 unknown #
vertex $-1 $119 $282 #
ellipse-curve $-1 47.853295072626857 26.351004829993041 8.69896426661861 0 0.70710678939079041 0.70710677298230451 1 0 0 1 I I #
face $-1 $-1 $135 $18 $-1 $283 reversed single #
loop $-1 $-1 $207 $120 #
plane-surface $-1 0 29.50621394601739 0 0 -1 0 0 0 -1 forward_v I I I I #
coedge $-1 $284 $205 $208 $285 forward $121 $-1 #
coedge $-1 $211 $123 $124 $199 reversed $75 $-1 #
coedge $-1 $205 $284 $123 $197 reversed $121 $-1 #
edge $-1 $212 -11.854173455859923 $286 11.854173455859923 $196 $287 forward 7 unknown #
coedge $-1 $125 $124 $284 $288 forward $49 $-1 #
edge $-1 $203 -54.702597125156409 $286 54.702597125156409 $195 $289 forward 7 unknown #
coedge $-1 $208 $207 $125 $201 reversed $192 $-1 #
edge $-1 $290 -54.702597125156409 $202 54.702597125156409 $200 $291 forward 7 unknown #
vertex $-1 $127 $292 #
vertex $-1 $214 $293 #
straight-curve $-1 54.702597125156409 0 -11.854173455859923 0 -1 0 I I #
coedge $-1 $194 $196 $128 $206 reversed $121 $-1 #
edge $-1 $209 -29.50621394601739 $212 29.50621394601739 $205 $294 forward 7 unknown #
coedge $-1 $200 $129 $134 $215 forward $192 $-1 #
coedge $-1 $129 $200 $194 $285 reversed $192 $-1 #
vertex $-1 $130 $295 #
straight-curve $-1 0 29.50621394601739 11.854173455859923 -1 0 0 I I #
coedge $-1 $131 $195 $133 $214 reversed $75 $-1 #
vertex $-1 $206 $296 #
straight-curve $-1 0 -29.50621394601739 11.854173455859923 1 0 0 I I #
edge $-1 $136 -11.854173455859923 $203 11.854173455859923 $133 $297 forward 7 unknown #
edge $-1 $137 -11.854173455859923 $202 11.854173455859923 $134 $298 forward 7 unknown #
point $-1 54.702597125156409 -29.50621394601739 11.854173455859923 #
point $-1 54.702597125156409 29.50621394601739 11.854173455859923 #
face $-1 $-1 $235 $19 $-1 $299 forward single #
loop $-1 $-1 $300 $139 #
plane-surface $-1 -30.994250213436562 -35.522484634649842 0 -1 0 0 0 0 1 forward_v I I I I #
coedge $-1 $301 $142 $225 $302 reversed $83 $-1 #
coedge $-1 $142 $301 $303 $304 reversed $83 $-1 #
coedge $-1 $150 $149 $142 $224 reversed $140 $-1 #
edge $-1 $305 -11.854173455859923 $306 11.854173455859923 $223 $307 forward 7 unknown #
coedge $-1 $144 $143 $221 $302 forward $53 $-1 #
coedge $-1 $231 $300 $143 $227 reversed $219 $-1 #
edge $-1 $229 -6.0162706886324528 $308 6.0162706886324528 $226 $309 forward 7 unknown #
edge $-1 $306 -6.0162706886324528 $151 6.0162706886324528 $149 $310 forward 7 unknown #
vertex $-1 $227 $311 #
straight-curve $-1 0 -29.50621394601739 -11.854173455859923 1 0 0 I I #
coedge $-1 $312 $226 $146 $232 reversed $219 $-1 #
edge $-1 $236 -11.854173455859923 $229 11.854173455859923 $231 $313 forward 7 unknown #
coedge $-1 $303 $147 $150 $238 forward $235 $-1 #
coedge $-1 $147 $303 $312 $314 forward $235 $-1 #
loop $-1 $-1 $147 $218 #
vertex $-1 $148 $315 #
straight-curve $-1 0 -29.50621394601739 11.854173455859923 -1 0 0 I I #
edge $-1 $152 -6.0162706886324528 $305 6.0162706886324528 $150 $316 forward 7 unknown #
point $-1 -37.928039064710788 -29.50621394601739 -11.854173455859923 #
point $-1 -37.928039064710788 -29.50621394601739 11.854173455859923 #
loop $-1 $-1 $162 $154 #
plane-surface $-1 0 29.50621394601739 0 0 -1 0 0 0 -1 forward_v I I I I #
coedge $-1 $244 $157 $159 $248 reversed $91 $-1 #
coedge $-1 $157 $243 $317 $318 reversed $91 $-1 #
coedge $-1 $165 $160 $157 $246 forward $155 $-1 #
edge $-1 $249 -9.3738453572534155 $319 -3.0634271252047043 $245 $320 forward 7 unknown #
coedge $-1 $159 $158 $252 $321 reversed $57 $-1 #
edge $-1 $322 -59.012427892034815 $249 -50.088148740480669 $243 $323 forward 7 unknown #
vertex $-1 $161 $324 #
straight-curve $-1 -3.4246510262647725 23.195795713968682 11.854173455859918 1 0 0 I I #
coedge $-1 $317 $162 $165 $256 reversed $241 $-1 #
coedge $-1 $162 $317 $247 $321 forward $241 $-1 #
vertex $-1 $163 $325 #
straight-curve $-1 -13.698604105059086 29.50621394601739 62.316498676055218 0 0 1 I I #
straight-curve $-1 -13.698604105059086 -12.221873506570276 47.271843498269561 0 0.70710677298230451 -0.70710678939079041 I I #
edge $-1 $319 3.5527136788005009e-015 $166 13.698604105059086 $251 $326 forward 7 unknown #
point $-1 -13.698604105059086 29.50621394601739 11.854173455859923 #
point $-1 -13.698604105059086 23.195795713968678 11.854173455859922 #
edge $-1 $327 1 $327 0 $169 $-1 forward 7 unknown #
vertex $-1 $170 $328 #
ellipse-curve $-1 -6.8493020525295449 24.187064267446857 6.5350237542868905 0 0.70710678939079041 0.70710677298230451 1 0 0 1 I I #
point $-1 -5.8493020525295449 26.351004829993045 8.6989642666186136 #
loop $-1 $-1 $180 $173 #
plane-surface $-1 0 29.50621394601739 0 0 -1 0 0 0 -1 forward_v I I I I #
coedge $-1 $329 $330 $177 $267 forward $174 $-1 #
coedge $-1 $177 $176 $272 $331 reversed $66 $-1 #
edge $-1 $269 29.05394323064359 $332 37.978222382197735 $265 $333 forward 7 unknown #
coedge $-1 $183 $178 $330 $334 forward $106 $-1 #
vertex $-1 $334 $335 #
straight-curve $-1 23.926647536313428 23.195795713968682 11.854173455859918 1 0 0 I I #
coedge $-1 $336 $180 $183 $276 reversed $263 $-1 #
coedge $-1 $180 $336 $266 $331 forward $263 $-1 #
vertex $-1 $181 $337 #
straight-curve $-1 41.003993020097312 29.50621394601739 62.316498676055218 0 0 1 I I #
straight-curve $-1 41.003993020097312 -12.221873506570276 47.271843498269561 0 0.70710677298230451 -0.70710678939079041 I I #
edge $-1 $338 -54.702597125156409 $184 -41.003993020097312 $271 $339 forward 7 unknown #
point $-1 41.003993020097312 29.50621394601739 11.854173455859923 #
point $-1 41.003993020097312 23.195795713968678 11.854173455859922 #
edge $-1 $340 1 $340 0 $187 $-1 forward 7 unknown #
vertex $-1 $188 $341 #
ellipse-curve $-1 47.853295072626857 24.187064267446857 6.5350237542868905 0 0.70710678939079041 0.70710677298230451 1 0 0 1 I I #
point $-1 48.853295072626857 26.351004829993045 8.6989642666186136 #
plane-surface $-1 54.702597125156409 0 0 -1 0 0 0 0 1 forward_v I I I I #
coedge $-1 $196 $194 $198 $288 reversed $121 $-1 #
edge $-1 $209 -11.854173455859923 $290 11.854173455859923 $208 $342 forward 7 unknown #
vertex $-1 $288 $343 #
straight-curve $-1 -54.702597125156409 -29.50621394601739 0 0 0 -1 I I #
edge $-1 $286 -29.50621394601739 $290 29.50621394601739 $284 $344 forward 7 unknown #
straight-curve $-1 0 -29.50621394601739 -11.854173455859923 -1 0 0 I I #
vertex $-1 $201 $345 #
straight-curve $-1 0 29.50621394601739 -11.854173455859923 1 0 0 I I #
point $-1 54.702597125156409 29.50621394601739 -11.854173455859923 #
point $-1 54.702597125156409 -29.50621394601739 -11.854173455859923 #
straight-curve $-1 -54.702597125156409 0 11.854173455859923 0 -1 0 I I #
point $-1 -54.702597125156409 29.50621394601739 11.854173455859923 #
point $-1 -54.702597125156409 -29.50621394601739 11.854173455859923 #
straight-curve $-1 54.702597125156409 -29.50621394601739 0 0 0 -1 I I #
straight-curve $-1 54.702597125156409 29.50621394601739 0 0 0 -1 I I #
plane-surface $-1 0 0 11.854173455859923 0 0 1 1 0 0 forward_v I I I I #
coedge $-1 $226 $312 $301 $346 forward $219 $-1 #
coedge $-1 $222 $221 $300 $346 reversed $83 $-1 #
edge $-1 $308 -3.4668944256371113 $306 3.4668944256371148 $221 $347 forward 7 unknown #
coedge $-1 $234 $233 $222 $304 forward $235 $-1 #
edge $-1 $305 -3.4668944256371148 $348 3.4668944256371113 $222 $349 forward 7 unknown #
vertex $-1 $238 $350 #
vertex $-1 $228 $351 #
straight-curve $-1 -37.928039064710788 -41.538755323282295 0 0 0 -1 I I #
vertex $-1 $346 $352 #
straight-curve $-1 -30.994250213436562 -35.522484634649842 -11.854173455859923 0 -1 0 I I #
straight-curve $-1 -37.928039064710788 -35.522484634649842 -11.854173455859923 0 1 0 I I #
point $-1 -30.994250213436562 -29.50621394601739 -11.854173455859923 #
coedge $-1 $300 $231 $234 $314 reversed $219 $-1 #
straight-curve $-1 -30.994250213436562 -29.50621394601739 0 0 0 -1 I I #
edge $-1 $348 -6.0162706886324528 $236 6.0162706886324528 $312 $353 forward 7 unknown #
point $-1 -30.994250213436562 -29.50621394601739 11.854173455859923 #
straight-curve $-1 -37.928039064710788 -35.522484634649842 11.854173455859923 0 -1 0 I I #
coedge $-1 $252 $251 $244 $318 forward $241 $-1 #
edge $-1 $319 50.462325220195297 $322 56.772743598677913 $317 $354 forward 7 unknown #
vertex $-1 $256 $355 #
straight-curve $-1 -3.5527136788005009e-015 32.569641071222094 11.854173455859922 0 1 0 I I #
edge $-1 $322 -3.4246510262647689 $253 10.273953078794314 $252 $356 forward 7 unknown #
vertex $-1 $321 $357 #
straight-curve $-1 -3.5527136788005009e-015 -12.221873506570276 47.271843498269561 0 -0.70710677298230451 0.70710678939079041 I I #
point $-1 -3.5527136788005009e-015 23.195795713968678 11.854173455859922 #
point $-1 -13.698604105059086 29.50621394601739 5.5437550773773054 #
straight-curve $-1 0 29.50621394601739 11.854173455859923 -1 0 0 I I #
vertex $-1 $259 $358 #
point $-1 -5.8493020525295449 24.187064267446857 6.5350237542868905 #
coedge $-1 $330 $265 $336 $359 reversed $174 $-1 #
coedge $-1 $265 $329 $268 $334 reversed $174 $-1 #
edge $-1 $332 -30.775949588842973 $273 -17.077345483783883 $272 $360 forward 7 unknown #
vertex $-1 $267 $361 #
straight-curve $-1 54.702597125156409 2.6515556737372208 32.398413972822595 0 0.70710677298230462 -0.70710678939079052 I I #
edge $-1 $269 23.195795713968678 $338 29.50621394601739 $330 $362 forward 7 unknown #
point $-1 54.702597125156402 23.195795713968678 11.854173455859922 #
coedge $-1 $272 $271 $329 $359 forward $263 $-1 #
point $-1 41.003993020097312 29.50621394601739 5.5437550773773054 #
vertex $-1 $334 $363 #
straight-curve $-1 0 29.50621394601739 11.854173455859923 -1 0 0 I I #
vertex $-1 $279 $364 #
point $-1 48.853295072626857 24.187064267446857 6.5350237542868905 #
straight-curve $-1 -54.702597125156409 29.50621394601739 0 0 0 -1 I I #
point $-1 -54.702597125156409 -29.50621394601739 -11.854173455859923 #
straight-curve $-1 -54.702597125156409 0 -11.854173455859923 0 1 0 I I #
point $-1 -54.702597125156409 29.50621394601739 -11.854173455859923 #
edge $-1 $348 -11.854173455859923 $308 11.854173455859923 $300 $365 forward 7 unknown #
straight-curve $-1 -34.461144639073673 -41.538755323282295 -11.854173455859923 -1 0 0 I I #
vertex $-1 $314 $366 #
straight-curve $-1 -34.461144639073673 -41.538755323282295 11.854173455859923 1 0 0 I I #
point $-1 -37.928039064710788 -41.538755323282295 11.854173455859923 #
point $-1 -37.928039064710788 -41.538755323282295 -11.854173455859923 #
point $-1 -30.994250213436562 -41.538755323282295 -11.854173455859923 #
straight-curve $-1 -30.994250213436562 -35.522484634649842 11.854173455859923 0 1 0 I I #
straight-curve $-1 -3.5527136788005009e-015 29.50621394601739 62.316498676055218 0 0 -1 I I #
point $-1 -3.5527136788005009e-015 29.50621394601739 11.854173455859923 #
straight-curve $-1 -3.4246510262647725 29.50621394601739 5.5437550773773019 -1 0 0 I I #
point $-1 -3.5527136788005009e-015 29.50621394601739 5.5437550773773054 #
point $-1 -6.8493020525295449 23.479957478056065 5.8279169813045852 #
edge $-1 $338 -11.854173455859923 $332 -5.5437550773773054 $329 $367 forward 7 unknown #
straight-curve $-1 23.926647536313428 29.50621394601739 5.5437550773773019 -1 0 0 I I #
point $-1 54.702597125156402 29.50621394601739 5.5437550773773054 #
straight-curve $-1 54.702597125156409 0 11.854173455859923 0 1 0 I I #
point $-1 54.702597125156409 29.50621394601739 11.854173455859923 #
point $-1 47.853295072626857 23.479957478056065 5.8279169813045852 #
straight-curve $-1 -30.994250213436562 -41.538755323282295 0 0 0 -1 I I #
point $-1 -30.994250213436562 -41.538755323282295 11.854173455859923 #
straight-curve $-1 54.702597125156409 29.50621394601739 0 0 0 -1 I I #
End-of-ACIS-data 