500 0 4 0           
7 Unknown 11 ACIS 5.0 NT 24 Fri Mar 26 17:07:02 1999 
-1 9.9999999999999995e-007 1e-010 
body $-1 $4 $-1 $5 #
body $-1 $6 $-1 $7 #
body $-1 $8 $-1 $9 #
body $-1 $10 $-1 $11 #
lump $-1 $-1 $12 $0 #
transform $-1 1 0 0 0 1 0 0 0 1 56.230964079714347 30.811966730504935 12.814325248673452 1 rotate no_reflect no_shear #
lump $-1 $-1 $13 $1 #
transform $-1 1 0 0 0 1 0 0 0 1 56.230964079714347 30.811966730504935 12.814325248673452 1 rotate no_reflect no_shear #
lump $-1 $-1 $14 $2 #
transform $-1 1 0 0 0 1 0 0 0 1 56.230964079714347 30.811966730504935 12.814325248673452 1 rotate no_reflect no_shear #
lump $-1 $-1 $15 $3 #
transform $-1 1 0 0 0 1 0 0 0 1 56.230964079714347 30.811966730504935 12.814325248673452 1 rotate no_reflect no_shear #
shell $-1 $-1 $-1 $16 $-1 $4 #
shell $-1 $-1 $-1 $17 $-1 $6 #
shell $-1 $-1 $-1 $18 $-1 $8 #
shell $-1 $-1 $-1 $19 $-1 $10 #
face $-1 $20 $21 $12 $-1 $22 forward single #
face $-1 $23 $24 $13 $-1 $25 forward single #
face $-1 $26 $27 $14 $-1 $28 reversed single #
face $-1 $29 $30 $15 $-1 $31 forward single #
face $-1 $32 $33 $12 $-1 $34 reversed single #
loop $-1 $-1 $35 $16 #
plane-surface $-1 0 0 12.814325248673452 0 0 1 1 0 0 forward_v I I I I #
face $-1 $36 $37 $13 $-1 $38 reversed single #
loop $-1 $-1 $39 $17 #
plane-surface $-1 0 -30.811966730504935 0 0 1 0 0 0 1 forward_v I I I I #
face $-1 $40 $41 $14 $-1 $42 reversed single #
loop $-1 $-1 $43 $18 #
plane-surface $-1 23.462316992640609 42.61132377950581 135.66951224003492 1 0 0 0 -0.55919291073839883 -0.82903756765294845 forward_v I I I I #
face $-1 $44 $45 $15 $-1 $46 forward single #
loop $-1 $47 $48 $19 #
cone-surface $-1 39.846640536177482 26.135725302780706 8.7804269831289705 0 -0.55919291073839883 -0.82903756765294845 1.5 0 0 1 I I 0 1 1.5 forward I I I I #
face $-1 $49 $50 $12 $-1 $51 reversed single #
loop $-1 $-1 $52 $20 #
plane-surface $-1 0 0 -12.814325248673452 0 0 1 1 0 0 forward_v I I I I #
coedge $-1 $53 $54 $55 $56 forward $21 $-1 #
face $-1 $57 $58 $13 $-1 $59 reversed single #
loop $-1 $-1 $60 $23 #
plane-surface $-1 0 0 -12.814325248673452 0 0 1 1 0 0 forward_v I I I I #
coedge $-1 $61 $62 $63 $64 forward $24 $-1 #
face $-1 $65 $66 $14 $-1 $67 forward single #
loop $-1 $-1 $68 $26 #
plane-surface $-1 39.846640536177482 -20.276589175217822 42.434348865181519 0 0.55919291073839883 0.82903756765294845 1 0 0 forward_v I I I I #
coedge $-1 $69 $70 $71 $72 reversed $27 $-1 #
face $-1 $-1 $73 $15 $-1 $74 forward single #
loop $-1 $75 $76 $29 #
cone-surface $-1 39.846640536177482 24.627622109928751 6.5445720951965107 0 -0.55919291073839883 -0.82903756765294845 0.75 0 0 1 I I -0.70710678118654757 0.70710678118654757 0.75 forward I I I I #
loop $-1 $-1 $77 $19 #
coedge $-1 $48 $48 $78 $79 reversed $30 $-1 #
face $-1 $80 $81 $12 $-1 $82 reversed single #
loop $-1 $-1 $83 $32 #
plane-surface $-1 0 -30.811966730504935 0 0 1 0 0 0 1 forward_v I I I I #
coedge $-1 $84 $85 $86 $87 forward $33 $-1 #
coedge $-1 $88 $35 $89 $90 forward $21 $-1 #
coedge $-1 $35 $88 $91 $92 forward $21 $-1 #
coedge $-1 $93 $94 $35 $56 reversed $95 $-1 #
edge $-1 $96 -30.811966730504935 $97 30.811966730504935 $55 $98 forward 7 unknown #
face $-1 $99 $100 $13 $-1 $101 reversed single #
loop $-1 $-1 $102 $36 #
plane-surface $-1 -33.390476424874151 -46.21977813145439 0 0 1 0 0 0 1 forward_v I I I I #
coedge $-1 $103 $104 $62 $105 forward $37 $-1 #
coedge $-1 $106 $39 $107 $108 reversed $24 $-1 #
coedge $-1 $39 $106 $60 $105 reversed $24 $-1 #
coedge $-1 $109 $110 $39 $64 reversed $100 $-1 #
edge $-1 $111 -12.814325248673452 $112 12.814325248673452 $63 $113 forward 7 unknown #
face $-1 $114 $115 $14 $-1 $116 reversed single #
loop $-1 $-1 $71 $40 #
plane-surface $-1 0 0 12.814325248673452 0 0 1 1 0 0 forward_v I I I I #
coedge $-1 $117 $118 $119 $120 reversed $41 $-1 #
coedge $-1 $70 $43 $121 $122 reversed $27 $-1 #
coedge $-1 $43 $69 $117 $123 reversed $27 $-1 #
coedge $-1 $119 $124 $43 $72 forward $66 $-1 #
edge $-1 $125 -9.5063048407520299 $126 -2.3312390048999134 $71 $127 forward 7 unknown #
loop $-1 $-1 $78 $44 #
plane-surface $-1 39.846640536177482 -20.276589175217822 42.434348865181519 0 0.55919291073839883 0.82903756765294845 1 0 0 forward_v I I I I #
loop $-1 $-1 $128 $29 #
coedge $-1 $76 $76 $77 $129 reversed $45 $-1 #
coedge $-1 $77 $77 $76 $129 forward $47 $-1 #
coedge $-1 $78 $78 $48 $79 forward $73 $-1 #
edge $-1 $130 -5.9292673883071215e-016 $130 6.2831853071795996 $78 $131 forward 7 unknown #
face $-1 $132 $133 $12 $-1 $134 reversed single #
loop $-1 $-1 $135 $49 #
plane-surface $-1 -56.230964079714347 0 0 1 0 0 0 0 -1 forward_v I I I I #
coedge $-1 $136 $91 $137 $138 forward $50 $-1 #
coedge $-1 $139 $52 $136 $140 forward $33 $-1 #
coedge $-1 $52 $139 $141 $142 forward $33 $-1 #
coedge $-1 $94 $93 $52 $87 reversed $95 $-1 #
edge $-1 $143 -30.811966730504935 $144 30.811966730504935 $86 $145 forward 7 unknown #
coedge $-1 $54 $53 $146 $147 forward $21 $-1 #
coedge $-1 $148 $149 $53 $90 reversed $133 $-1 #
edge $-1 $97 -56.230964079714347 $150 56.230964079714347 $89 $151 forward 7 unknown #
coedge $-1 $83 $152 $54 $92 reversed $50 $-1 #
edge $-1 $153 -56.230964079714347 $96 56.230964079714347 $91 $154 forward 7 unknown #
coedge $-1 $86 $55 $152 $155 forward $95 $-1 #
coedge $-1 $55 $86 $148 $156 reversed $95 $-1 #
loop $-1 $-1 $93 $132 #
vertex $-1 $56 $157 #
vertex $-1 $56 $158 #
straight-curve $-1 56.230964079714347 0 12.814325248673452 0 1 0 I I #
face $-1 $159 $160 $13 $-1 $161 reversed single #
loop $-1 $-1 $63 $57 #
plane-surface $-1 -36.178639267380859 -38.515872430979663 0 1 0 0 0 0 -1 forward_v I I I I #
coedge $-1 $162 $163 $164 $165 forward $58 $-1 #
coedge $-1 $166 $60 $167 $168 forward $37 $-1 #
coedge $-1 $60 $166 $109 $169 forward $37 $-1 #
edge $-1 $111 -36.178639267380859 $170 -30.60231358236744 $60 $171 forward 7 unknown #
coedge $-1 $62 $61 $172 $173 forward $24 $-1 #
coedge $-1 $174 $175 $61 $108 forward $176 $-1 #
edge $-1 $177 30.60231358236744 $112 36.178639267380859 $107 $178 forward 7 unknown #
coedge $-1 $164 $63 $104 $169 reversed $100 $-1 #
coedge $-1 $63 $164 $174 $179 reversed $100 $-1 #
vertex $-1 $105 $180 #
vertex $-1 $179 $181 #
straight-curve $-1 -36.178639267380859 -30.811966730504935 0 0 0 1 I I #
face $-1 $-1 $182 $14 $-1 $183 reversed single #
loop $-1 $-1 $184 $65 #
plane-surface $-1 56.230964079714347 0 0 -1 0 0 0 0 1 forward_v I I I I #
coedge $-1 $185 $68 $70 $123 forward $41 $-1 #
coedge $-1 $68 $185 $184 $186 reversed $41 $-1 #
coedge $-1 $187 $71 $68 $120 forward $66 $-1 #
edge $-1 $126 3.5389967245518683 $188 36.30764381162561 $119 $189 forward 7 unknown #
coedge $-1 $190 $191 $69 $122 forward $182 $-1 #
edge $-1 $192 -59.86007397804746 $125 -55.020430871344004 $121 $193 forward 7 unknown #
edge $-1 $126 52.969240216932725 $192 61.623933461009862 $70 $194 forward 7 unknown #
coedge $-1 $71 $187 $190 $195 forward $66 $-1 #
vertex $-1 $122 $196 #
vertex $-1 $72 $197 #
straight-curve $-1 23.462316992640609 21.305661889752905 12.814325248673455 0 -1 0 I I #
coedge $-1 $128 $128 $-1 $198 reversed $75 $-1 #
edge $-1 $199 0 $199 6.2831853071796004 $76 $200 forward 7 unknown #
vertex $-1 $79 $201 #
ellipse-curve $-1 39.846640536177482 27.224433812578869 10.394503695321735 0 0.55919291073839883 0.82903756765294845 1.5 0 0 1 I I #
face $-1 $-1 $95 $12 $-1 $202 reversed single #
loop $-1 $-1 $148 $80 #
plane-surface $-1 0 30.811966730504935 0 0 -1 0 0 0 -1 forward_v I I I I #
coedge $-1 $203 $146 $149 $204 forward $81 $-1 #
coedge $-1 $152 $83 $84 $140 reversed $50 $-1 #
coedge $-1 $146 $203 $83 $138 reversed $81 $-1 #
edge $-1 $153 -12.814325248673452 $205 12.814325248673452 $137 $206 forward 7 unknown #
coedge $-1 $85 $84 $203 $207 forward $33 $-1 #
edge $-1 $144 -56.230964079714347 $205 56.230964079714347 $136 $208 forward 7 unknown #
coedge $-1 $149 $148 $85 $142 reversed $133 $-1 #
edge $-1 $209 -56.230964079714347 $143 56.230964079714347 $141 $210 forward 7 unknown #
vertex $-1 $87 $211 #
vertex $-1 $155 $212 #
straight-curve $-1 56.230964079714347 0 -12.814325248673452 0 -1 0 I I #
coedge $-1 $135 $137 $88 $147 reversed $81 $-1 #
edge $-1 $150 -30.811966730504935 $153 30.811966730504935 $146 $213 forward 7 unknown #
coedge $-1 $141 $89 $94 $156 forward $133 $-1 #
coedge $-1 $89 $141 $135 $204 reversed $133 $-1 #
vertex $-1 $90 $214 #
straight-curve $-1 0 30.811966730504935 12.814325248673452 -1 0 0 I I #
coedge $-1 $91 $136 $93 $155 reversed $50 $-1 #
vertex $-1 $147 $215 #
straight-curve $-1 0 -30.811966730504935 12.814325248673452 1 0 0 I I #
edge $-1 $96 -12.814325248673452 $144 12.814325248673452 $93 $216 forward 7 unknown #
edge $-1 $97 -12.814325248673452 $143 12.814325248673452 $94 $217 forward 7 unknown #
point $-1 56.230964079714347 -30.811966730504935 12.814325248673452 #
point $-1 56.230964079714347 30.811966730504935 12.814325248673452 #
face $-1 $-1 $176 $13 $-1 $218 forward single #
loop $-1 $-1 $219 $99 #
plane-surface $-1 -30.60231358236744 -38.515872430979663 0 -1 0 0 0 0 1 forward_v I I I I #
coedge $-1 $220 $102 $166 $221 reversed $58 $-1 #
coedge $-1 $102 $220 $222 $223 reversed $58 $-1 #
coedge $-1 $110 $109 $102 $165 reversed $100 $-1 #
edge $-1 $224 -12.814325248673452 $225 12.814325248673452 $164 $226 forward 7 unknown #
coedge $-1 $104 $103 $162 $221 forward $37 $-1 #
coedge $-1 $172 $219 $103 $168 reversed $160 $-1 #
edge $-1 $170 -7.7039057004747278 $227 7.7039057004747278 $167 $228 forward 7 unknown #
edge $-1 $225 -7.7039057004747278 $111 7.7039057004747278 $109 $229 forward 7 unknown #
vertex $-1 $168 $230 #
straight-curve $-1 0 -30.811966730504935 -12.814325248673452 1 0 0 I I #
coedge $-1 $231 $167 $106 $173 reversed $160 $-1 #
edge $-1 $177 -12.814325248673452 $170 12.814325248673452 $172 $232 forward 7 unknown #
coedge $-1 $222 $107 $110 $179 forward $176 $-1 #
coedge $-1 $107 $222 $231 $233 forward $176 $-1 #
loop $-1 $-1 $107 $159 #
vertex $-1 $108 $234 #
straight-curve $-1 0 -30.811966730504935 12.814325248673452 -1 0 0 I I #
edge $-1 $112 -7.7039057004747278 $224 7.7039057004747278 $110 $235 forward 7 unknown #
point $-1 -36.178639267380859 -30.811966730504935 -12.814325248673452 #
point $-1 -36.178639267380859 -30.811966730504935 12.814325248673452 #
loop $-1 $-1 $121 $114 #
plane-surface $-1 0 30.811966730504935 0 0 -1 0 0 0 -1 forward_v I I I I #
coedge $-1 $236 $237 $118 $186 forward $115 $-1 #
coedge $-1 $118 $117 $191 $238 reversed $41 $-1 #
edge $-1 $188 32.699719603267617 $239 41.354412847344747 $184 $240 forward 7 unknown #
coedge $-1 $124 $119 $237 $241 forward $66 $-1 #
vertex $-1 $241 $242 #
straight-curve $-1 19.923320268088741 23.636900894652822 12.814325248673452 1 0 0 I I #
coedge $-1 $243 $121 $124 $195 reversed $182 $-1 #
coedge $-1 $121 $243 $185 $238 forward $182 $-1 #
vertex $-1 $122 $244 #
straight-curve $-1 23.462316992640609 30.811966730504935 67.83475612001746 0 0 1 I I #
straight-curve $-1 23.462316992640609 -20.276589175217822 42.434348865181519 0 0.82903756765294845 -0.55919291073839883 I I #
edge $-1 $245 -56.230964079714347 $125 -23.462316992640609 $190 $246 forward 7 unknown #
point $-1 23.462316992640609 30.811966730504935 12.814325248673452 #
point $-1 23.462316992640609 23.636900894652818 12.814325248673452 #
edge $-1 $247 1 $247 0 $128 $-1 forward 7 unknown #
vertex $-1 $129 $248 #
ellipse-curve $-1 39.846640536177482 25.04701679298255 7.1663502709362223 0 0.55919291073839883 0.82903756765294845 1.5 0 0 1 I I #
point $-1 41.346640536177482 27.224433812578859 10.39450369532172 #
plane-surface $-1 56.230964079714347 0 0 -1 0 0 0 0 1 forward_v I I I I #
coedge $-1 $137 $135 $139 $207 reversed $81 $-1 #
edge $-1 $150 -12.814325248673452 $209 12.814325248673452 $149 $249 forward 7 unknown #
vertex $-1 $207 $250 #
straight-curve $-1 -56.230964079714347 -30.811966730504935 0 0 0 -1 I I #
edge $-1 $205 -30.811966730504935 $209 30.811966730504935 $203 $251 forward 7 unknown #
straight-curve $-1 0 -30.811966730504935 -12.814325248673452 -1 0 0 I I #
vertex $-1 $142 $252 #
straight-curve $-1 0 30.811966730504935 -12.814325248673452 1 0 0 I I #
point $-1 56.230964079714347 30.811966730504935 -12.814325248673452 #
point $-1 56.230964079714347 -30.811966730504935 -12.814325248673452 #
straight-curve $-1 -56.230964079714347 0 12.814325248673452 0 -1 0 I I #
point $-1 -56.230964079714347 30.811966730504935 12.814325248673452 #
point $-1 -56.230964079714347 -30.811966730504935 12.814325248673452 #
straight-curve $-1 56.230964079714347 -30.811966730504935 0 0 0 -1 I I #
straight-curve $-1 56.230964079714347 30.811966730504935 0 0 0 -1 I I #
plane-surface $-1 0 0 12.814325248673452 0 0 1 1 0 0 forward_v I I I I #
coedge $-1 $167 $231 $220 $253 forward $160 $-1 #
coedge $-1 $163 $162 $219 $253 reversed $58 $-1 #
edge $-1 $227 -2.7881628425067113 $225 2.7881628425067078 $162 $254 forward 7 unknown #
coedge $-1 $175 $174 $163 $223 forward $176 $-1 #
edge $-1 $224 -2.7881628425067078 $255 2.7881628425067113 $163 $256 forward 7 unknown #
vertex $-1 $179 $257 #
vertex $-1 $169 $258 #
straight-curve $-1 -36.178639267380859 -46.21977813145439 0 0 0 -1 I I #
vertex $-1 $253 $259 #
straight-curve $-1 -30.60231358236744 -38.515872430979663 -12.814325248673452 0 -1 0 I I #
straight-curve $-1 -36.178639267380859 -38.515872430979663 -12.814325248673452 0 1 0 I I #
point $-1 -30.60231358236744 -30.811966730504935 -12.814325248673452 #
coedge $-1 $219 $172 $175 $233 reversed $160 $-1 #
straight-curve $-1 -30.60231358236744 -30.811966730504935 0 0 0 -1 I I #
edge $-1 $255 -7.7039057004747278 $177 7.7039057004747278 $231 $260 forward 7 unknown #
point $-1 -30.60231358236744 -30.811966730504935 12.814325248673452 #
straight-curve $-1 -36.178639267380859 -38.515872430979663 12.814325248673452 0 -1 0 I I #
coedge $-1 $237 $184 $243 $261 reversed $115 $-1 #
coedge $-1 $184 $236 $187 $241 reversed $115 $-1 #
edge $-1 $239 -36.30764381162561 $192 -3.5389967245518683 $191 $262 forward 7 unknown #
vertex $-1 $186 $263 #
straight-curve $-1 56.230964079714347 -3.4723951081736031 31.09977663395415 0 0.82903756765294845 -0.55919291073839883 I I #
edge $-1 $188 23.636900894652818 $245 30.811966730504935 $237 $264 forward 7 unknown #
point $-1 56.230964079714354 23.636900894652818 12.814325248673452 #
coedge $-1 $191 $190 $236 $261 forward $182 $-1 #
point $-1 23.462316992640609 30.811966730504935 7.9746821419699998 #
vertex $-1 $241 $265 #
straight-curve $-1 0 30.811966730504935 12.814325248673452 -1 0 0 I I #
vertex $-1 $198 $266 #
point $-1 41.346640536177482 25.04701679298255 7.1663502709362223 #
straight-curve $-1 -56.230964079714347 30.811966730504935 0 0 0 -1 I I #
point $-1 -56.230964079714347 -30.811966730504935 -12.814325248673452 #
straight-curve $-1 -56.230964079714347 0 -12.814325248673452 0 1 0 I I #
point $-1 -56.230964079714347 30.811966730504935 -12.814325248673452 #
edge $-1 $255 -12.814325248673452 $227 12.814325248673452 $219 $267 forward 7 unknown #
straight-curve $-1 -33.390476424874151 -46.21977813145439 -12.814325248673452 -1 0 0 I I #
vertex $-1 $233 $268 #
straight-curve $-1 -33.390476424874151 -46.21977813145439 12.814325248673452 1 0 0 I I #
point $-1 -36.178639267380859 -46.21977813145439 12.814325248673452 #
point $-1 -36.178639267380859 -46.21977813145439 -12.814325248673452 #
point $-1 -30.60231358236744 -46.21977813145439 -12.814325248673452 #
straight-curve $-1 -30.60231358236744 -38.515872430979663 12.814325248673452 0 1 0 I I #
edge $-1 $245 -12.814325248673452 $239 -7.9746821419699998 $236 $269 forward 7 unknown #
straight-curve $-1 19.923320268088741 30.811966730504935 7.9746821419700034 -1 0 0 I I #
point $-1 56.230964079714354 30.811966730504935 7.9746821419699998 #
straight-curve $-1 56.230964079714347 0 12.814325248673452 0 1 0 I I #
point $-1 56.230964079714347 30.811966730504935 12.814325248673452 #
point $-1 39.846640536177482 24.208227426874952 5.9227939194567991 #
straight-curve $-1 -30.60231358236744 -46.21977813145439 0 0 0 -1 I I #
point $-1 -30.60231358236744 -46.21977813145439 12.814325248673452 #
straight-curve $-1 56.230964079714347 30.811966730504935 0 0 0 -1 I I #
End-of-ACIS-data 