500 0 3 0           
7 Unknown 11 ACIS 5.0 NT 24 Fri Mar 26 00:55:39 1999 
-1 9.9999999999999995e-007 1e-010 
body $-1 $3 $-1 $4 #
body $-1 $5 $-1 $6 #
body $-1 $7 $-1 $8 #
lump $-1 $-1 $9 $0 #
transform $-1 1 0 0 0 1 0 0 0 1 54.923551133762629 25.405934767737058 7.3381569390635049 1 rotate no_reflect no_shear #
lump $-1 $-1 $10 $1 #
transform $-1 1 0 0 0 1 0 0 0 1 54.923551133762629 25.405934767737058 7.3381569390635049 1 rotate no_reflect no_shear #
lump $-1 $-1 $11 $2 #
transform $-1 1 0 0 0 1 0 0 0 1 54.923551133762629 25.405934767737058 7.3381569390635049 1 rotate no_reflect no_shear #
shell $-1 $-1 $-1 $12 $-1 $3 #
shell $-1 $-1 $-1 $13 $-1 $5 #
shell $-1 $-1 $-1 $14 $-1 $7 #
face $-1 $15 $16 $9 $-1 $17 forward single #
face $-1 $18 $19 $10 $-1 $20 forward single #
face $-1 $21 $22 $11 $-1 $23 reversed single #
face $-1 $24 $25 $9 $-1 $26 reversed single #
loop $-1 $-1 $27 $12 #
plane-surface $-1 0 0 7.3381569390635049 0 0 1 1 0 0 forward_v I I I I #
face $-1 $28 $29 $10 $-1 $30 forward single #
loop $-1 $-1 $31 $13 #
plane-surface $-1 -26.708753714077574 -20.485964211459979 77.724635935067141 0.66913061440640931 0 0.74314481823134659 0.74314481823134659 0 -0.66913061440640931 forward_v I I I I #
face $-1 $32 $33 $11 $-1 $34 reversed single #
loop $-1 $35 $36 $14 #
cone-surface $-1 52.65709085310322 -20.485964211459979 5.1846796618958813 -0.66913061440640931 0 -0.74314481823134659 0.3715724091156733 0 -0.33456530720320465 1 I I 0 1 0.5 forward I I I I #
face $-1 $37 $38 $9 $-1 $39 reversed single #
loop $-1 $-1 $40 $15 #
plane-surface $-1 0 0 -7.3381569390635049 0 0 1 1 0 0 forward_v I I I I #
coedge $-1 $41 $42 $43 $44 forward $16 $-1 #
face $-1 $45 $46 $10 $-1 $47 reversed single #
loop $-1 $-1 $48 $18 #
plane-surface $-1 46.793305316955284 -15.565993655182901 159.35694078290734 0 -1 0 -0.66913061440640931 0 -0.74314481823134659 forward_v I I I I #
coedge $-1 $49 $50 $51 $52 reversed $19 $-1 #
face $-1 $53 $54 $11 $-1 $55 forward single #
loop $-1 $56 $57 $21 #
cone-surface $-1 51.953448970092822 -20.485964211459979 4.4032061976850132 -0.66913061440640931 0 -0.74314481823134659 0.18578620455783665 0 -0.16728265360160233 1 I I -0.70710678118654746 0.70710678118654746 0.25 forward I I I I #
loop $-1 $-1 $58 $14 #
coedge $-1 $36 $36 $59 $60 reversed $22 $-1 #
face $-1 $61 $62 $9 $-1 $63 reversed single #
loop $-1 $-1 $64 $24 #
plane-surface $-1 0 -25.405934767737058 0 0 1 0 0 0 1 forward_v I I I I #
coedge $-1 $65 $66 $67 $68 forward $25 $-1 #
coedge $-1 $69 $27 $70 $71 forward $16 $-1 #
coedge $-1 $27 $69 $72 $73 forward $16 $-1 #
coedge $-1 $74 $75 $27 $44 reversed $76 $-1 #
edge $-1 $77 -25.405934767737058 $78 25.405934767737058 $43 $79 forward 7 unknown #
face $-1 $80 $81 $10 $-1 $82 reversed single #
loop $-1 $-1 $83 $28 #
plane-surface $-1 54.923551133762629 0 0 -1 0 0 0 0 1 forward_v I I I I #
coedge $-1 $84 $85 $83 $86 reversed $29 $-1 #
coedge $-1 $87 $31 $85 $88 reversed $19 $-1 #
coedge $-1 $31 $87 $89 $90 reversed $19 $-1 #
coedge $-1 $91 $83 $31 $52 forward $46 $-1 #
edge $-1 $92 5.3230115494529109 $93 15.162952662007068 $51 $94 forward 7 unknown #
face $-1 $95 $96 $11 $-1 $97 forward single #
loop $-1 $98 $59 $32 #
plane-surface $-1 -26.708753714077574 -20.485964211459979 77.724635935067141 0.66913061440640931 0 0.74314481823134659 0.74314481823134659 0 -0.66913061440640931 forward_v I I I I #
loop $-1 $-1 $99 $21 #
coedge $-1 $57 $57 $58 $100 forward $33 $-1 #
coedge $-1 $58 $58 $57 $100 reversed $35 $-1 #
coedge $-1 $59 $59 $36 $60 forward $54 $-1 #
edge $-1 $101 0 $101 6.2831853071796004 $59 $102 forward 7 unknown #
face $-1 $103 $104 $9 $-1 $105 reversed single #
loop $-1 $-1 $106 $37 #
plane-surface $-1 -54.923551133762629 0 0 1 0 0 0 0 -1 forward_v I I I I #
coedge $-1 $107 $72 $108 $109 forward $38 $-1 #
coedge $-1 $110 $40 $107 $111 forward $25 $-1 #
coedge $-1 $40 $110 $112 $113 forward $25 $-1 #
coedge $-1 $75 $74 $40 $68 reversed $76 $-1 #
edge $-1 $114 -25.405934767737058 $115 25.405934767737058 $67 $116 forward 7 unknown #
coedge $-1 $42 $41 $117 $118 forward $16 $-1 #
coedge $-1 $119 $120 $41 $71 reversed $104 $-1 #
edge $-1 $78 -54.923551133762629 $121 54.923551133762629 $70 $122 forward 7 unknown #
coedge $-1 $64 $123 $42 $73 reversed $38 $-1 #
edge $-1 $124 -54.923551133762629 $77 54.923551133762629 $72 $125 forward 7 unknown #
coedge $-1 $67 $43 $123 $126 forward $76 $-1 #
coedge $-1 $43 $67 $119 $127 reversed $76 $-1 #
loop $-1 $-1 $74 $103 #
vertex $-1 $44 $128 #
vertex $-1 $44 $129 #
straight-curve $-1 54.923551133762629 0 7.3381569390635049 0 1 0 I I #
face $-1 $130 $131 $10 $-1 $132 forward single #
loop $-1 $-1 $89 $45 #
plane-surface $-1 0 -25.405934767737058 0 0 1 0 0 0 1 forward_v I I I I #
coedge $-1 $51 $133 $48 $86 forward $46 $-1 #
coedge $-1 $85 $48 $134 $135 reversed $29 $-1 #
coedge $-1 $48 $84 $49 $88 forward $29 $-1 #
edge $-1 $136 72.340313452390163 $92 75.455893487419388 $83 $137 forward 7 unknown #
coedge $-1 $50 $49 $138 $139 reversed $19 $-1 #
edge $-1 $140 105.1909410219468 $92 109.84710226752526 $85 $141 forward 7 unknown #
coedge $-1 $142 $143 $50 $90 forward $81 $-1 #
edge $-1 $93 -73.918899606635293 $144 -69.262738361056847 $89 $145 forward 7 unknown #
coedge $-1 $146 $51 $143 $147 forward $46 $-1 #
vertex $-1 $52 $148 #
vertex $-1 $147 $149 #
straight-curve $-1 54.923551133762629 -10.24298210572999 4.2225769040342911 0 -1 0 I I #
face $-1 $150 $151 $11 $-1 $152 reversed single #
loop $-1 $-1 $153 $53 #
plane-surface $-1 46.793305316955284 -15.565993655182901 159.35694078290734 0 -1 0 -0.66913061440640931 0 -0.74314481823134659 forward_v I I I I #
loop $-1 $-1 $154 $32 #
coedge $-1 $99 $99 $-1 $155 forward $56 $-1 #
edge $-1 $156 0 $156 6.2831853071796004 $57 $157 forward 7 unknown #
vertex $-1 $60 $158 #
ellipse-curve $-1 53.193450082511994 -20.485964211459979 5.7803669215488904 -0.66913061440640931 0 -0.74314481823134659 0.3715724091156733 0 -0.33456530720320465 1 I I #
face $-1 $-1 $76 $9 $-1 $159 reversed single #
loop $-1 $-1 $119 $61 #
plane-surface $-1 0 25.405934767737058 0 0 -1 0 0 0 -1 forward_v I I I I #
coedge $-1 $160 $117 $120 $161 forward $62 $-1 #
coedge $-1 $123 $64 $65 $111 reversed $38 $-1 #
coedge $-1 $117 $160 $64 $109 reversed $62 $-1 #
edge $-1 $124 -7.3381569390635049 $162 7.3381569390635049 $108 $163 forward 7 unknown #
coedge $-1 $66 $65 $160 $164 forward $25 $-1 #
edge $-1 $115 -54.923551133762629 $162 54.923551133762629 $107 $165 forward 7 unknown #
coedge $-1 $120 $119 $66 $113 reversed $104 $-1 #
edge $-1 $166 -54.923551133762629 $114 54.923551133762629 $112 $167 forward 7 unknown #
vertex $-1 $68 $168 #
vertex $-1 $126 $169 #
straight-curve $-1 54.923551133762629 0 -7.3381569390635049 0 -1 0 I I #
coedge $-1 $106 $108 $69 $118 reversed $62 $-1 #
edge $-1 $121 -25.405934767737058 $124 25.405934767737058 $117 $170 forward 7 unknown #
coedge $-1 $112 $70 $75 $127 forward $104 $-1 #
coedge $-1 $70 $112 $106 $161 reversed $104 $-1 #
vertex $-1 $71 $171 #
straight-curve $-1 0 25.405934767737058 7.3381569390635049 -1 0 0 I I #
coedge $-1 $72 $107 $74 $126 reversed $38 $-1 #
vertex $-1 $118 $172 #
straight-curve $-1 0 -25.405934767737058 7.3381569390635049 1 0 0 I I #
edge $-1 $77 -7.3381569390635049 $115 7.3381569390635049 $74 $173 forward 7 unknown #
edge $-1 $78 -7.3381569390635049 $114 7.3381569390635049 $75 $174 forward 7 unknown #
point $-1 54.923551133762629 -25.405934767737058 7.3381569390635049 #
point $-1 54.923551133762629 25.405934767737058 7.3381569390635049 #
face $-1 $175 $176 $10 $-1 $177 reversed single #
loop $-1 $-1 $134 $80 #
plane-surface $-1 0 0 7.3381569390635049 0 0 1 1 0 0 forward_v I I I I #
coedge $-1 $83 $178 $179 $180 reversed $46 $-1 #
coedge $-1 $179 $138 $84 $135 forward $131 $-1 #
edge $-1 $140 28.066696372783746 $136 31.526898475284987 $134 $181 forward 7 unknown #
vertex $-1 $180 $182 #
straight-curve $-1 54.923551133762629 -15.565993655182901 79.678470391453672 0 0 -1 I I #
coedge $-1 $134 $183 $87 $139 forward $131 $-1 #
edge $-1 $144 -15.162952662007068 $140 -5.3230115494529109 $138 $184 forward 7 unknown #
vertex $-1 $139 $185 #
straight-curve $-1 -26.708753714077574 -15.565993655182901 77.724635935067141 0.74314481823134659 0 -0.66913061440640931 I I #
coedge $-1 $186 $89 $183 $187 reversed $81 $-1 #
coedge $-1 $89 $188 $91 $147 reversed $81 $-1 #
vertex $-1 $139 $189 #
straight-curve $-1 -0.0088960782715137299 -25.405934767737058 53.683975614067847 -0.74314481823134659 0 0.66913061440640931 I I #
coedge $-1 $178 $91 $190 $191 reversed $46 $-1 #
edge $-1 $93 -4.2225769040342858 $192 7.3381569390635049 $91 $193 forward 7 unknown #
point $-1 54.923551133762629 -15.565993655182901 4.222576904034284 #
point $-1 54.923551133762629 -25.405934767737058 4.2225769040342858 #
face $-1 $194 $195 $11 $-1 $196 reversed single #
loop $-1 $-1 $197 $95 #
plane-surface $-1 54.923551133762629 0 0 -1 0 0 0 0 1 forward_v I I I I #
coedge $-1 $198 $199 $197 $200 reversed $96 $-1 #
coedge $-1 $201 $202 $203 $204 reversed $98 $-1 #
edge $-1 $205 1 $205 0 $99 $-1 forward 7 unknown #
vertex $-1 $100 $206 #
ellipse-curve $-1 52.120731623694425 -20.485964211459979 4.5889924022428499 0.66913061440640931 0 0.74314481823134659 0.3715724091156733 0 -0.33456530720320465 1 I I #
point $-1 53.565022491627687 -20.485964211459979 5.445801614345708 #
plane-surface $-1 54.923551133762629 0 0 -1 0 0 0 0 1 forward_v I I I I #
coedge $-1 $108 $106 $110 $164 reversed $62 $-1 #
edge $-1 $121 -7.3381569390635049 $166 7.3381569390635049 $120 $207 forward 7 unknown #
vertex $-1 $164 $208 #
straight-curve $-1 -54.923551133762629 -25.405934767737058 0 0 0 -1 I I #
edge $-1 $162 -25.405934767737058 $166 25.405934767737058 $160 $209 forward 7 unknown #
straight-curve $-1 0 -25.405934767737058 -7.3381569390635049 -1 0 0 I I #
vertex $-1 $113 $210 #
straight-curve $-1 0 25.405934767737058 -7.3381569390635049 1 0 0 I I #
point $-1 54.923551133762629 25.405934767737058 -7.3381569390635049 #
point $-1 54.923551133762629 -25.405934767737058 -7.3381569390635049 #
straight-curve $-1 -54.923551133762629 0 7.3381569390635049 0 -1 0 I I #
point $-1 -54.923551133762629 25.405934767737058 7.3381569390635049 #
point $-1 -54.923551133762629 -25.405934767737058 7.3381569390635049 #
straight-curve $-1 54.923551133762629 -25.405934767737058 0 0 0 -1 I I #
straight-curve $-1 54.923551133762629 25.405934767737058 0 0 0 -1 I I #
face $-1 $211 $212 $10 $-1 $213 reversed single #
loop $-1 $-1 $190 $130 #
plane-surface $-1 0 0 -7.3381569390635049 0 0 1 1 0 0 forward_v I I I I #
coedge $-1 $133 $146 $214 $215 reversed $46 $-1 #
coedge $-1 $216 $134 $133 $180 forward $131 $-1 #
edge $-1 $136 -15.565993655182901 $217 25.405934767737058 $133 $218 forward 7 unknown #
straight-curve $-1 23.396652658477642 -15.565993655182901 7.3381569390635093 1 0 0 I I #
point $-1 54.923551133762629 -15.565993655182901 7.3381569390635049 #
coedge $-1 $138 $219 $142 $187 forward $131 $-1 #
straight-curve $-1 51.463349031261401 -10.24298210572999 7.3381569390634951 0 1 0 I I #
point $-1 51.463349031261387 -15.565993655182901 7.3381569390635093 #
coedge $-1 $188 $142 $220 $221 forward $81 $-1 #
edge $-1 $222 -54.923551133762629 $144 51.463349031261387 $142 $223 forward 7 unknown #
coedge $-1 $143 $186 $224 $225 reversed $81 $-1 #
point $-1 51.463349031261387 -25.405934767737058 7.3381569390635093 #
coedge $-1 $224 $226 $146 $191 forward $176 $-1 #
edge $-1 $227 -25.405934767737058 $192 25.405934767737058 $146 $228 forward 7 unknown #
vertex $-1 $147 $229 #
straight-curve $-1 54.923551133762629 -25.405934767737058 0 0 0 -1 I I #
face $-1 $230 $231 $11 $-1 $232 forward single #
loop $-1 $-1 $233 $150 #
plane-surface $-1 0 -25.405934767737058 0 0 1 0 0 0 1 forward_v I I I I #
coedge $-1 $203 $234 $153 $200 forward $151 $-1 #
coedge $-1 $199 $153 $235 $236 reversed $96 $-1 #
coedge $-1 $153 $198 $201 $237 forward $96 $-1 #
edge $-1 $238 72.340313452390163 $239 75.455893487419388 $197 $240 forward 7 unknown #
coedge $-1 $241 $154 $199 $237 reversed $98 $-1 #
coedge $-1 $154 $241 $233 $242 reversed $98 $-1 #
coedge $-1 $243 $197 $154 $204 forward $151 $-1 #
edge $-1 $239 5.3230115494529109 $244 15.162952662007068 $203 $245 forward 7 unknown #
vertex $-1 $155 $246 #
point $-1 52.492304032810097 -20.485964211459979 4.2544270950396452 #
straight-curve $-1 -54.923551133762629 25.405934767737058 0 0 0 -1 I I #
point $-1 -54.923551133762629 -25.405934767737058 -7.3381569390635049 #
straight-curve $-1 -54.923551133762629 0 -7.3381569390635049 0 1 0 I I #
point $-1 -54.923551133762629 25.405934767737058 -7.3381569390635049 #
face $-1 $-1 $247 $10 $-1 $248 reversed single #
loop $-1 $-1 $249 $175 #
plane-surface $-1 -54.923551133762629 0 0 1 0 0 0 0 -1 forward_v I I I I #
coedge $-1 $250 $251 $178 $215 forward $247 $-1 #
edge $-1 $217 -7.3381569390635049 $227 7.3381569390635049 $178 $252 forward 7 unknown #
coedge $-1 $219 $179 $251 $253 forward $131 $-1 #
vertex $-1 $180 $254 #
straight-curve $-1 54.923551133762629 0 7.3381569390635049 0 1 0 I I #
coedge $-1 $183 $216 $255 $256 forward $131 $-1 #
coedge $-1 $255 $257 $186 $221 reversed $212 $-1 #
edge $-1 $222 -7.3381569390635049 $258 7.3381569390635049 $220 $259 forward 7 unknown #
vertex $-1 $256 $260 #
straight-curve $-1 0 -25.405934767737058 7.3381569390635049 1 0 0 I I #
coedge $-1 $261 $190 $188 $225 forward $176 $-1 #
edge $-1 $192 -54.923551133762629 $258 54.923551133762629 $188 $262 forward 7 unknown #
coedge $-1 $190 $261 $250 $263 forward $176 $-1 #
vertex $-1 $191 $264 #
straight-curve $-1 54.923551133762629 0 -7.3381569390635049 0 -1 0 I I #
point $-1 54.923551133762629 -25.405934767737058 -7.3381569390635049 #
face $-1 $265 $266 $11 $-1 $267 reversed single #
loop $-1 $-1 $235 $194 #
plane-surface $-1 0 0 7.3381569390635049 0 0 1 1 0 0 forward_v I I I I #
coedge $-1 $268 $269 $202 $242 forward $195 $-1 #
coedge $-1 $197 $270 $271 $272 reversed $151 $-1 #
coedge $-1 $271 $273 $198 $236 forward $231 $-1 #
edge $-1 $274 28.066696372783746 $238 31.526898475284987 $235 $275 forward 7 unknown #
edge $-1 $274 105.1909410219468 $239 109.84710226752526 $199 $276 forward 7 unknown #
vertex $-1 $272 $277 #
vertex $-1 $204 $278 #
straight-curve $-1 54.923551133762629 -15.565993655182901 79.678470391453672 0 0 -1 I I #
coedge $-1 $202 $201 $273 $279 reversed $98 $-1 #
edge $-1 $244 -73.918899606635293 $280 -69.262738361056847 $233 $281 forward 7 unknown #
coedge $-1 $282 $203 $269 $283 forward $151 $-1 #
vertex $-1 $283 $284 #
straight-curve $-1 54.923551133762629 -10.24298210572999 4.2225769040342911 0 -1 0 I I #
point $-1 51.786166316491219 -20.485964211459979 4.2174199931271765 #
loop $-1 $-1 $214 $211 #
plane-surface $-1 0 25.405934767737058 0 0 -1 0 0 0 -1 forward_v I I I I #
coedge $-1 $257 $255 $285 $286 forward $212 $-1 #
coedge $-1 $285 $214 $226 $263 reversed $247 $-1 #
coedge $-1 $214 $285 $216 $253 reversed $247 $-1 #
straight-curve $-1 54.923551133762629 25.405934767737058 0 0 0 -1 I I #
edge $-1 $217 -54.923551133762629 $287 54.923551133762629 $251 $288 forward 7 unknown #
point $-1 54.923551133762629 25.405934767737058 7.3381569390635049 #
coedge $-1 $249 $220 $219 $256 reversed $212 $-1 #
edge $-1 $287 -25.405934767737058 $222 25.405934767737058 $255 $289 forward 7 unknown #
coedge $-1 $220 $249 $261 $290 reversed $212 $-1 #
vertex $-1 $290 $291 #
straight-curve $-1 -54.923551133762629 -25.405934767737058 0 0 0 -1 I I #
point $-1 -54.923551133762629 -25.405934767737058 7.3381569390635049 #
coedge $-1 $226 $224 $257 $290 forward $176 $-1 #
straight-curve $-1 0 -25.405934767737058 -7.3381569390635049 -1 0 0 I I #
edge $-1 $292 -54.923551133762629 $227 54.923551133762629 $250 $293 forward 7 unknown #
point $-1 54.923551133762629 25.405934767737058 -7.3381569390635049 #
face $-1 $294 $295 $11 $-1 $296 reversed single #
loop $-1 $-1 $297 $230 #
plane-surface $-1 0 0 -7.3381569390635049 0 0 1 1 0 0 forward_v I I I I #
coedge $-1 $298 $233 $299 $300 reversed $195 $-1 #
coedge $-1 $233 $301 $243 $283 reversed $195 $-1 #
coedge $-1 $234 $282 $302 $303 reversed $151 $-1 #
coedge $-1 $304 $235 $234 $272 forward $231 $-1 #
edge $-1 $238 -15.565993655182901 $305 25.405934767737058 $234 $306 forward 7 unknown #
coedge $-1 $235 $299 $241 $279 forward $231 $-1 #
vertex $-1 $279 $307 #
straight-curve $-1 23.396652658477642 -15.565993655182901 7.3381569390635093 1 0 0 I I #
straight-curve $-1 -26.708753714077574 -15.565993655182901 77.724635935067141 0.74314481823134659 0 -0.66913061440640931 I I #
point $-1 54.923551133762629 -15.565993655182901 7.3381569390635049 #
point $-1 54.923551133762629 -15.565993655182901 4.222576904034284 #
edge $-1 $280 -15.162952662007068 $274 -5.3230115494529109 $273 $308 forward 7 unknown #
vertex $-1 $279 $309 #
straight-curve $-1 -0.0088960782715137299 -25.405934767737058 53.683975614067847 -0.74314481823134659 0 0.66913061440640931 I I #
coedge $-1 $270 $243 $297 $310 reversed $151 $-1 #
edge $-1 $244 -4.2225769040342858 $311 7.3381569390635049 $243 $312 forward 7 unknown #
point $-1 54.923551133762629 -25.405934767737058 4.2225769040342858 #
coedge $-1 $251 $250 $249 $286 reversed $247 $-1 #
edge $-1 $287 -7.3381569390635049 $292 7.3381569390635049 $285 $313 forward 7 unknown #
vertex $-1 $253 $314 #
straight-curve $-1 0 25.405934767737058 7.3381569390635049 -1 0 0 I I #
straight-curve $-1 -54.923551133762629 0 7.3381569390635049 0 -1 0 I I #
edge $-1 $258 -25.405934767737058 $292 25.405934767737058 $257 $315 forward 7 unknown #
point $-1 -54.923551133762629 -25.405934767737058 -7.3381569390635049 #
vertex $-1 $263 $316 #
straight-curve $-1 0 25.405934767737058 -7.3381569390635049 1 0 0 I I #
face $-1 $-1 $317 $11 $-1 $318 reversed single #
loop $-1 $-1 $319 $265 #
plane-surface $-1 -54.923551133762629 0 0 1 0 0 0 0 -1 forward_v I I I I #
coedge $-1 $320 $321 $282 $310 forward $266 $-1 #
coedge $-1 $301 $268 $322 $323 forward $195 $-1 #
coedge $-1 $273 $324 $268 $300 forward $231 $-1 #
edge $-1 $325 -54.923551133762629 $280 51.463349031261387 $268 $326 forward 7 unknown #
coedge $-1 $269 $298 $320 $327 reversed $195 $-1 #
coedge $-1 $328 $329 $270 $303 forward $317 $-1 #
edge $-1 $305 -7.3381569390635049 $330 7.3381569390635049 $270 $331 forward 7 unknown #
coedge $-1 $324 $271 $329 $332 forward $231 $-1 #
vertex $-1 $272 $333 #
straight-curve $-1 54.923551133762629 0 7.3381569390635049 0 1 0 I I #
point $-1 51.463349031261387 -15.565993655182901 7.3381569390635093 #
straight-curve $-1 51.463349031261401 -10.24298210572999 7.3381569390634951 0 1 0 I I #
point $-1 51.463349031261387 -25.405934767737058 7.3381569390635093 #
edge $-1 $330 -25.405934767737058 $311 25.405934767737058 $282 $334 forward 7 unknown #
vertex $-1 $283 $335 #
straight-curve $-1 54.923551133762629 -25.405934767737058 0 0 0 -1 I I #
straight-curve $-1 -54.923551133762629 25.405934767737058 0 0 0 -1 I I #
point $-1 -54.923551133762629 25.405934767737058 7.3381569390635049 #
straight-curve $-1 -54.923551133762629 0 -7.3381569390635049 0 1 0 I I #
point $-1 -54.923551133762629 25.405934767737058 -7.3381569390635049 #
loop $-1 $-1 $302 $294 #
plane-surface $-1 0 25.405934767737058 0 0 -1 0 0 0 -1 forward_v I I I I #
coedge $-1 $336 $337 $338 $339 forward $295 $-1 #
coedge $-1 $340 $297 $301 $327 forward $266 $-1 #
coedge $-1 $297 $340 $328 $341 forward $266 $-1 #
coedge $-1 $337 $336 $298 $323 reversed $295 $-1 #
edge $-1 $325 -7.3381569390635049 $342 7.3381569390635049 $322 $343 forward 7 unknown #
coedge $-1 $299 $304 $337 $344 forward $231 $-1 #
vertex $-1 $344 $345 #
straight-curve $-1 0 -25.405934767737058 7.3381569390635049 1 0 0 I I #
edge $-1 $311 -54.923551133762629 $342 54.923551133762629 $301 $346 forward 7 unknown #
coedge $-1 $338 $302 $321 $341 reversed $317 $-1 #
coedge $-1 $302 $338 $304 $332 reversed $317 $-1 #
vertex $-1 $310 $347 #
straight-curve $-1 54.923551133762629 25.405934767737058 0 0 0 -1 I I #
edge $-1 $305 -54.923551133762629 $348 54.923551133762629 $329 $349 forward 7 unknown #
point $-1 54.923551133762629 25.405934767737058 7.3381569390635049 #
straight-curve $-1 54.923551133762629 0 -7.3381569390635049 0 -1 0 I I #
point $-1 54.923551133762629 -25.405934767737058 -7.3381569390635049 #
coedge $-1 $322 $319 $340 $350 reversed $295 $-1 #
coedge $-1 $319 $322 $324 $344 reversed $295 $-1 #
coedge $-1 $329 $328 $319 $339 reversed $317 $-1 #
edge $-1 $348 -7.3381569390635049 $351 7.3381569390635049 $338 $352 forward 7 unknown #
coedge $-1 $321 $320 $336 $350 forward $266 $-1 #
edge $-1 $351 -54.923551133762629 $330 54.923551133762629 $328 $353 forward 7 unknown #
vertex $-1 $350 $354 #
straight-curve $-1 -54.923551133762629 -25.405934767737058 0 0 0 -1 I I #
edge $-1 $348 -25.405934767737058 $325 25.405934767737058 $337 $355 forward 7 unknown #
point $-1 -54.923551133762629 -25.405934767737058 7.3381569390635049 #
straight-curve $-1 0 -25.405934767737058 -7.3381569390635049 -1 0 0 I I #
point $-1 54.923551133762629 25.405934767737058 -7.3381569390635049 #
vertex $-1 $332 $356 #
straight-curve $-1 0 25.405934767737058 7.3381569390635049 -1 0 0 I I #
edge $-1 $342 -25.405934767737058 $351 25.405934767737058 $336 $357 forward 7 unknown #
vertex $-1 $341 $358 #
straight-curve $-1 -54.923551133762629 25.405934767737058 0 0 0 -1 I I #
straight-curve $-1 0 25.405934767737058 -7.3381569390635049 1 0 0 I I #
point $-1 -54.923551133762629 -25.405934767737058 -7.3381569390635049 #
straight-curve $-1 -54.923551133762629 0 7.3381569390635049 0 -1 0 I I #
point $-1 -54.923551133762629 25.405934767737058 7.3381569390635049 #
straight-curve $-1 -54.923551133762629 0 -7.3381569390635049 0 1 0 I I #
point $-1 -54.923551133762629 25.405934767737058 -7.3381569390635049 #
End-of-ACIS-data 