500 0 19 0           
7 Unknown 11 ACIS 5.0 NT 24 Fri Mar 26 19:17:34 1999 
-1 9.9999999999999995e-007 1e-010 
body $-1 $19 $-1 $20 #
body $-1 $21 $-1 $22 #
body $-1 $23 $-1 $24 #
body $-1 $25 $-1 $26 #
body $-1 $27 $-1 $28 #
body $-1 $29 $-1 $30 #
body $-1 $31 $-1 $32 #
body $-1 $33 $-1 $34 #
body $-1 $35 $-1 $36 #
body $-1 $37 $-1 $38 #
body $-1 $39 $-1 $40 #
body $-1 $41 $-1 $42 #
body $-1 $43 $-1 $44 #
body $-1 $45 $-1 $46 #
body $-1 $47 $-1 $48 #
body $-1 $49 $-1 $50 #
body $-1 $51 $-1 $52 #
body $-1 $53 $-1 $54 #
body $-1 $55 $-1 $56 #
lump $-1 $-1 $57 $0 #
transform $-1 1 0 0 0 1 0 0 0 1 72.208014160588391 37.839185471665004 13.355094944952503 1 rotate no_reflect no_shear #
lump $-1 $-1 $58 $1 #
transform $-1 1 0 0 0 1 0 0 0 1 72.208014160588391 37.839185471665004 13.355094944952503 1 rotate no_reflect no_shear #
lump $-1 $-1 $59 $2 #
transform $-1 1 0 0 0 1 0 0 0 1 72.208014160588391 37.839185471665004 13.355094944952503 1 rotate no_reflect no_shear #
lump $-1 $-1 $60 $3 #
transform $-1 1 0 0 0 1 0 0 0 1 72.208014160588391 37.839185471665004 13.355094944952503 1 rotate no_reflect no_shear #
lump $-1 $-1 $61 $4 #
transform $-1 1 0 0 0 1 0 0 0 1 72.208014160588391 37.839185471665004 13.355094944952503 1 rotate no_reflect no_shear #
lump $-1 $-1 $62 $5 #
transform $-1 1 0 0 0 1 0 0 0 1 72.208014160588391 37.839185471665004 13.355094944952503 1 rotate no_reflect no_shear #
lump $-1 $-1 $63 $6 #
transform $-1 1 0 0 0 1 0 0 0 1 72.208014160588391 37.839185471665004 13.355094944952503 1 rotate no_reflect no_shear #
lump $-1 $-1 $64 $7 #
transform $-1 1 0 0 0 1 0 0 0 1 72.208014160588391 37.839185471665004 13.355094944952503 1 rotate no_reflect no_shear #
lump $-1 $-1 $65 $8 #
transform $-1 1 0 0 0 1 0 0 0 1 72.208014160588391 37.839185471665004 13.355094944952503 1 rotate no_reflect no_shear #
lump $-1 $-1 $66 $9 #
transform $-1 1 0 0 0 1 0 0 0 1 72.208014160588391 37.839185471665004 13.355094944952503 1 rotate no_reflect no_shear #
lump $-1 $-1 $67 $10 #
transform $-1 1 0 0 0 1 0 0 0 1 72.208014160588391 37.839185471665004 13.355094944952503 1 rotate no_reflect no_shear #
lump $-1 $-1 $68 $11 #
transform $-1 1 0 0 0 1 0 0 0 1 72.208014160588391 37.839185471665004 13.355094944952503 1 rotate no_reflect no_shear #
lump $-1 $-1 $69 $12 #
transform $-1 1 0 0 0 1 0 0 0 1 72.208014160588391 37.839185471665004 13.355094944952503 1 rotate no_reflect no_shear #
lump $-1 $-1 $70 $13 #
transform $-1 1 0 0 0 1 0 0 0 1 72.208014160588391 37.839185471665004 13.355094944952503 1 rotate no_reflect no_shear #
lump $-1 $-1 $71 $14 #
transform $-1 1 0 0 0 1 0 0 0 1 72.208014160588391 37.839185471665004 13.355094944952503 1 rotate no_reflect no_shear #
lump $-1 $-1 $72 $15 #
transform $-1 1 0 0 0 1 0 0 0 1 72.208014160588391 37.839185471665004 13.355094944952503 1 rotate no_reflect no_shear #
lump $-1 $-1 $73 $16 #
transform $-1 1 0 0 0 1 0 0 0 1 72.208014160588391 37.839185471665004 13.355094944952503 1 rotate no_reflect no_shear #
lump $-1 $-1 $74 $17 #
transform $-1 1 0 0 0 1 0 0 0 1 72.208014160588391 37.839185471665004 13.355094944952503 1 rotate no_reflect no_shear #
lump $-1 $-1 $75 $18 #
transform $-1 1 0 0 0 1 0 0 0 1 72.208014160588391 37.839185471665004 13.355094944952503 1 rotate no_reflect no_shear #
shell $-1 $-1 $-1 $76 $-1 $19 #
shell $-1 $-1 $-1 $77 $-1 $21 #
shell $-1 $-1 $-1 $78 $-1 $23 #
shell $-1 $-1 $-1 $79 $-1 $25 #
shell $-1 $-1 $-1 $80 $-1 $27 #
shell $-1 $-1 $-1 $81 $-1 $29 #
shell $-1 $-1 $-1 $82 $-1 $31 #
shell $-1 $-1 $-1 $83 $-1 $33 #
shell $-1 $-1 $-1 $84 $-1 $35 #
shell $-1 $-1 $-1 $85 $-1 $37 #
shell $-1 $-1 $-1 $86 $-1 $39 #
shell $-1 $-1 $-1 $87 $-1 $41 #
shell $-1 $-1 $-1 $88 $-1 $43 #
shell $-1 $-1 $-1 $89 $-1 $45 #
shell $-1 $-1 $-1 $90 $-1 $47 #
shell $-1 $-1 $-1 $91 $-1 $49 #
shell $-1 $-1 $-1 $92 $-1 $51 #
shell $-1 $-1 $-1 $93 $-1 $53 #
shell $-1 $-1 $-1 $94 $-1 $55 #
face $-1 $95 $96 $57 $-1 $97 forward single #
face $-1 $98 $99 $58 $-1 $100 reversed single #
face $-1 $101 $102 $59 $-1 $103 forward single #
face $-1 $104 $105 $60 $-1 $106 reversed single #
face $-1 $107 $108 $61 $-1 $109 forward single #
face $-1 $110 $111 $62 $-1 $112 forward single #
face $-1 $113 $114 $63 $-1 $115 forward single #
face $-1 $116 $117 $64 $-1 $118 reversed single #
face $-1 $119 $120 $65 $-1 $121 forward single #
face $-1 $122 $123 $66 $-1 $124 forward single #
face $-1 $125 $126 $67 $-1 $127 forward single #
face $-1 $128 $129 $68 $-1 $130 reversed single #
face $-1 $131 $132 $69 $-1 $133 forward single #
face $-1 $134 $135 $70 $-1 $136 forward single #
face $-1 $137 $138 $71 $-1 $139 forward single #
face $-1 $140 $141 $72 $-1 $142 reversed single #
face $-1 $143 $144 $73 $-1 $145 forward single #
face $-1 $146 $147 $74 $-1 $148 forward single #
face $-1 $149 $150 $75 $-1 $151 forward single #
face $-1 $152 $153 $57 $-1 $154 reversed single #
loop $-1 $-1 $155 $76 #
plane-surface $-1 0 0 13.355094944952503 0 0 1 1 0 0 forward_v I I I I #
face $-1 $156 $157 $58 $-1 $158 reversed single #
loop $-1 $-1 $159 $77 #
plane-surface $-1 -68.484833618804075 -21.969459059630573 0 0 -1 0 0 0 -1 forward_v I I I I #
face $-1 $160 $161 $59 $-1 $162 reversed single #
loop $-1 $-1 $163 $78 #
plane-surface $-1 0 37.839185471665004 0 0 -1 0 0 0 -1 forward_v I I I I #
face $-1 $164 $165 $60 $-1 $166 reversed single #
loop $-1 $-1 $167 $79 #
plane-surface $-1 -155.04164610457252 -15.703597462311821 125.99698153949112 0 1 0 -0.57357644374324357 0 0.81915203911291934 forward_v I I I I #
face $-1 $168 $169 $61 $-1 $170 forward single #
loop $-1 $171 $172 $80 #
cone-surface $-1 -67.881853989682057 -14.153630762922937 10.117120182724822 0.57357644374324357 0 -0.81915203911291934 0.40957601955645967 0 0.28678822187162178 1 I I 0 1 0.5 forward I I I I #
face $-1 $173 $174 $62 $-1 $175 forward single #
loop $-1 $176 $177 $81 #
cone-surface $-1 -67.881853989682057 -11.82868071383961 10.117120182724822 0.57357644374324357 0 -0.81915203911291934 0.40957601955645967 0 0.28678822187162178 1 I I 0 1 0.5 forward I I I I #
face $-1 $178 $179 $63 $-1 $180 forward single #
loop $-1 $181 $182 $82 #
cone-surface $-1 -67.881853989682057 -9.5037306647562829 10.117120182724822 0.57357644374324357 0 -0.81915203911291934 0.40957601955645967 0 0.28678822187162178 1 I I 0 1 0.5 forward I I I I #
face $-1 $183 $184 $64 $-1 $185 reversed single #
loop $-1 $-1 $186 $83 #
plane-surface $-1 -155.04164610457252 9.155069098436746 125.99698153949112 0 1 0 -0.57357644374324357 0 0.81915203911291934 forward_v I I I I #
face $-1 $187 $188 $65 $-1 $189 forward single #
loop $-1 $190 $191 $84 #
cone-surface $-1 -67.881853989682057 10.70503579782563 10.117120182724822 0.57357644374324357 0 -0.81915203911291934 0.40957601955645967 0 0.28678822187162178 1 I I 0 1 0.5 forward I I I I #
face $-1 $192 $193 $66 $-1 $194 forward single #
loop $-1 $195 $196 $85 #
cone-surface $-1 -67.881853989682057 13.029985846908957 10.117120182724822 0.57357644374324357 0 -0.81915203911291934 0.40957601955645967 0 0.28678822187162178 1 I I 0 1 0.5 forward I I I I #
face $-1 $197 $198 $67 $-1 $199 forward single #
loop $-1 $200 $201 $86 #
cone-surface $-1 -67.881853989682057 15.354935895992284 10.117120182724822 0.57357644374324357 0 -0.81915203911291934 0.40957601955645967 0 0.28678822187162178 1 I I 0 1 0.5 forward I I I I #
face $-1 $202 $203 $68 $-1 $204 reversed single #
loop $-1 $-1 $205 $87 #
plane-surface $-1 36.742962024691423 -7.9537639653673988 208.83061348347525 0 -1 0 -0.57357644374324357 0 -0.81915203911291934 forward_v I I I I #
face $-1 $206 $207 $69 $-1 $208 forward single #
loop $-1 $209 $210 $88 #
cone-surface $-1 67.881853989682057 -14.153630762922937 10.117120182724815 -0.57357644374324357 0 -0.81915203911291934 0.40957601955645967 0 -0.28678822187162178 1 I I 0 1 0.5 forward I I I I #
face $-1 $211 $212 $70 $-1 $213 forward single #
loop $-1 $214 $215 $89 #
cone-surface $-1 67.881853989682057 -11.82868071383961 10.117120182724815 -0.57357644374324357 0 -0.81915203911291934 0.40957601955645967 0 -0.28678822187162178 1 I I 0 1 0.5 forward I I I I #
face $-1 $216 $217 $71 $-1 $218 forward single #
loop $-1 $219 $220 $90 #
cone-surface $-1 67.881853989682057 -9.5037306647562829 10.117120182724815 -0.57357644374324357 0 -0.81915203911291934 0.40957601955645967 0 -0.28678822187162178 1 I I 0 1 0.5 forward I I I I #
face $-1 $221 $222 $72 $-1 $223 reversed single #
loop $-1 $-1 $224 $91 #
plane-surface $-1 36.742962024691423 16.904902595381166 208.83061348347525 0 -1 0 -0.57357644374324357 0 -0.81915203911291934 forward_v I I I I #
face $-1 $225 $226 $73 $-1 $227 forward single #
loop $-1 $228 $229 $92 #
cone-surface $-1 67.881853989682057 10.70503579782563 10.117120182724815 -0.57357644374324357 0 -0.81915203911291934 0.40957601955645967 0 -0.28678822187162178 1 I I 0 1 0.5 forward I I I I #
face $-1 $230 $231 $74 $-1 $232 forward single #
loop $-1 $233 $234 $93 #
cone-surface $-1 67.881853989682057 13.029985846908957 10.117120182724815 -0.57357644374324357 0 -0.81915203911291934 0.40957601955645967 0 -0.28678822187162178 1 I I 0 1 0.5 forward I I I I #
face $-1 $235 $236 $75 $-1 $237 forward single #
loop $-1 $238 $239 $94 #
cone-surface $-1 67.881853989682057 15.354935895992284 10.117120182724815 -0.57357644374324357 0 -0.81915203911291934 0.40957601955645967 0 -0.28678822187162178 1 I I 0 1 0.5 forward I I I I #
face $-1 $240 $241 $57 $-1 $242 reversed single #
loop $-1 $-1 $243 $95 #
plane-surface $-1 0 0 -13.355094944952503 0 0 1 1 0 0 forward_v I I I I #
coedge $-1 $244 $245 $246 $247 forward $96 $-1 #
face $-1 $248 $249 $58 $-1 $250 forward single #
loop $-1 $-1 $251 $98 #
plane-surface $-1 -64.761653077019758 -29.904322265647789 0 -1 0 0 0 0 1 forward_v I I I I #
coedge $-1 $252 $253 $254 $255 forward $99 $-1 #
face $-1 $256 $257 $59 $-1 $258 reversed single #
loop $-1 $-1 $259 $101 #
plane-surface $-1 0 0 -13.355094944952503 0 0 1 1 0 0 forward_v I I I I #
coedge $-1 $260 $261 $262 $263 forward $102 $-1 #
face $-1 $264 $265 $60 $-1 $266 reversed single #
loop $-1 $-1 $267 $104 #
plane-surface $-1 -72.208014160588391 -11.82868071383961 7.6982974596100462 -0.57357644374324357 0 0.81915203911291934 0.81915203911291934 0 0.57357644374324357 forward_v I I I I #
coedge $-1 $268 $269 $270 $271 reversed $105 $-1 #
face $-1 $-1 $272 $61 $-1 $273 forward single #
loop $-1 $274 $275 $107 #
cone-surface $-1 -67.451671656874623 -14.153630762922937 9.5027561533901324 0.57357644374324357 0 -0.81915203911291934 0.20478800977822983 0 0.14339411093581089 1 I I -0.70710678118654746 0.70710678118654746 0.25 forward I I I I #
loop $-1 $-1 $276 $80 #
coedge $-1 $172 $172 $277 $278 reversed $108 $-1 #
face $-1 $-1 $279 $62 $-1 $280 forward single #
loop $-1 $281 $282 $110 #
cone-surface $-1 -67.451671656874623 -11.82868071383961 9.5027561533901324 0.57357644374324357 0 -0.81915203911291934 0.20478800977822983 0 0.14339411093581089 1 I I -0.70710678118654746 0.70710678118654746 0.25 forward I I I I #
loop $-1 $-1 $283 $81 #
coedge $-1 $177 $177 $284 $285 reversed $111 $-1 #
face $-1 $-1 $286 $63 $-1 $287 forward single #
loop $-1 $288 $289 $113 #
cone-surface $-1 -67.451671656874623 -9.5037306647562829 9.5027561533901324 0.57357644374324357 0 -0.81915203911291934 0.20478800977822983 0 0.14339411093581089 1 I I -0.70710678118654746 0.70710678118654746 0.25 forward I I I I #
loop $-1 $-1 $290 $82 #
coedge $-1 $182 $182 $291 $292 reversed $114 $-1 #
face $-1 $293 $294 $64 $-1 $295 reversed single #
loop $-1 $-1 $296 $116 #
plane-surface $-1 -72.208014160588391 13.029985846908957 7.6982974596100462 -0.57357644374324357 0 0.81915203911291934 0.81915203911291934 0 0.57357644374324357 forward_v I I I I #
coedge $-1 $297 $298 $299 $300 reversed $117 $-1 #
face $-1 $-1 $301 $65 $-1 $302 forward single #
loop $-1 $303 $304 $119 #
cone-surface $-1 -67.451671656874623 10.70503579782563 9.5027561533901324 0.57357644374324357 0 -0.81915203911291934 0.20478800977822983 0 0.14339411093581089 1 I I -0.70710678118654746 0.70710678118654746 0.25 forward I I I I #
loop $-1 $-1 $305 $84 #
coedge $-1 $191 $191 $306 $307 reversed $120 $-1 #
face $-1 $-1 $308 $66 $-1 $309 forward single #
loop $-1 $310 $311 $122 #
cone-surface $-1 -67.451671656874623 13.029985846908957 9.5027561533901324 0.57357644374324357 0 -0.81915203911291934 0.20478800977822983 0 0.14339411093581089 1 I I -0.70710678118654746 0.70710678118654746 0.25 forward I I I I #
loop $-1 $-1 $312 $85 #
coedge $-1 $196 $196 $313 $314 reversed $123 $-1 #
face $-1 $-1 $315 $67 $-1 $316 forward single #
loop $-1 $317 $318 $125 #
cone-surface $-1 -67.451671656874623 15.354935895992284 9.5027561533901324 0.57357644374324357 0 -0.81915203911291934 0.20478800977822983 0 0.14339411093581089 1 I I -0.70710678118654746 0.70710678118654746 0.25 forward I I I I #
loop $-1 $-1 $319 $86 #
coedge $-1 $201 $201 $320 $321 reversed $126 $-1 #
face $-1 $322 $323 $68 $-1 $324 reversed single #
loop $-1 $-1 $325 $128 #
plane-surface $-1 -46.090669919292708 -11.82868071383961 90.531929403594177 0.57357644374324357 0 0.81915203911291934 0.81915203911291934 0 -0.57357644374324357 forward_v I I I I #
coedge $-1 $326 $327 $328 $329 reversed $129 $-1 #
face $-1 $-1 $330 $69 $-1 $331 forward single #
loop $-1 $332 $333 $131 #
cone-surface $-1 67.451671656874623 -14.153630762922937 9.5027561533901252 -0.57357644374324357 0 -0.81915203911291934 0.20478800977822983 0 -0.14339411093581089 1 I I -0.70710678118654746 0.70710678118654746 0.25 forward I I I I #
loop $-1 $-1 $334 $88 #
coedge $-1 $210 $210 $335 $336 reversed $132 $-1 #
face $-1 $-1 $337 $70 $-1 $338 forward single #
loop $-1 $339 $340 $134 #
cone-surface $-1 67.451671656874623 -11.82868071383961 9.5027561533901252 -0.57357644374324357 0 -0.81915203911291934 0.20478800977822983 0 -0.14339411093581089 1 I I -0.70710678118654746 0.70710678118654746 0.25 forward I I I I #
loop $-1 $-1 $341 $89 #
coedge $-1 $215 $215 $342 $343 reversed $135 $-1 #
face $-1 $-1 $344 $71 $-1 $345 forward single #
loop $-1 $346 $347 $137 #
cone-surface $-1 67.451671656874623 -9.5037306647562829 9.5027561533901252 -0.57357644374324357 0 -0.81915203911291934 0.20478800977822983 0 -0.14339411093581089 1 I I -0.70710678118654746 0.70710678118654746 0.25 forward I I I I #
loop $-1 $-1 $348 $90 #
coedge $-1 $220 $220 $349 $350 reversed $138 $-1 #
face $-1 $351 $352 $72 $-1 $353 reversed single #
loop $-1 $-1 $354 $140 #
plane-surface $-1 -46.090669919292708 13.029985846908957 90.531929403594177 0.57357644374324357 0 0.81915203911291934 0.81915203911291934 0 -0.57357644374324357 forward_v I I I I #
coedge $-1 $355 $356 $357 $358 reversed $141 $-1 #
face $-1 $-1 $359 $73 $-1 $360 forward single #
loop $-1 $361 $362 $143 #
cone-surface $-1 67.451671656874623 10.70503579782563 9.5027561533901252 -0.57357644374324357 0 -0.81915203911291934 0.20478800977822983 0 -0.14339411093581089 1 I I -0.70710678118654746 0.70710678118654746 0.25 forward I I I I #
loop $-1 $-1 $363 $92 #
coedge $-1 $229 $229 $364 $365 reversed $144 $-1 #
face $-1 $-1 $366 $74 $-1 $367 forward single #
loop $-1 $368 $369 $146 #
cone-surface $-1 67.451671656874623 13.029985846908957 9.5027561533901252 -0.57357644374324357 0 -0.81915203911291934 0.20478800977822983 0 -0.14339411093581089 1 I I -0.70710678118654746 0.70710678118654746 0.25 forward I I I I #
loop $-1 $-1 $370 $93 #
coedge $-1 $234 $234 $371 $372 reversed $147 $-1 #
face $-1 $-1 $373 $75 $-1 $374 forward single #
loop $-1 $375 $376 $149 #
cone-surface $-1 67.451671656874623 15.354935895992284 9.5027561533901252 -0.57357644374324357 0 -0.81915203911291934 0.20478800977822983 0 -0.14339411093581089 1 I I -0.70710678118654746 0.70710678118654746 0.25 forward I I I I #
loop $-1 $-1 $377 $94 #
coedge $-1 $239 $239 $378 $379 reversed $150 $-1 #
face $-1 $380 $381 $57 $-1 $382 reversed single #
loop $-1 $-1 $383 $152 #
plane-surface $-1 0 -37.839185471665004 0 0 1 0 0 0 1 forward_v I I I I #
coedge $-1 $384 $385 $386 $387 forward $153 $-1 #
coedge $-1 $388 $155 $389 $390 forward $96 $-1 #
coedge $-1 $155 $388 $391 $392 forward $96 $-1 #
coedge $-1 $393 $394 $155 $247 reversed $395 $-1 #
edge $-1 $396 -37.839185471665004 $397 37.839185471665004 $246 $398 forward 7 unknown #
face $-1 $399 $400 $58 $-1 $401 reversed single #
loop $-1 $-1 $402 $156 #
plane-surface $-1 0 0 13.355094944952503 0 0 1 1 0 0 forward_v I I I I #
coedge $-1 $403 $404 $405 $406 reversed $157 $-1 #
coedge $-1 $407 $159 $408 $409 reversed $99 $-1 #
coedge $-1 $159 $407 $410 $411 reversed $99 $-1 #
coedge $-1 $404 $403 $159 $255 reversed $157 $-1 #
edge $-1 $412 -13.355094944952503 $413 13.355094944952503 $254 $414 forward 7 unknown #
face $-1 $415 $416 $59 $-1 $417 reversed single #
loop $-1 $-1 $418 $160 #
plane-surface $-1 -56.259508012872033 42.884841176564223 0 1 0 0 0 0 -1 forward_v I I I I #
coedge $-1 $419 $420 $261 $421 forward $161 $-1 #
coedge $-1 $422 $163 $423 $424 reversed $102 $-1 #
coedge $-1 $163 $422 $259 $421 reversed $102 $-1 #
coedge $-1 $425 $426 $163 $263 reversed $427 $-1 #
edge $-1 $428 -13.355094944952503 $429 13.355094944952503 $262 $430 forward 7 unknown #
face $-1 $431 $432 $60 $-1 $433 reversed single #
loop $-1 $-1 $434 $164 #
plane-surface $-1 -155.04164610457252 -7.9537639653673988 125.99698153949112 0 -1 0 0.57357644374324357 0 -0.81915203911291934 forward_v I I I I #
coedge $-1 $435 $436 $437 $438 reversed $165 $-1 #
coedge $-1 $269 $167 $439 $440 reversed $105 $-1 #
coedge $-1 $167 $268 $435 $441 reversed $105 $-1 #
coedge $-1 $437 $442 $167 $271 forward $443 $-1 #
edge $-1 $444 5.3128088916978697 $445 13.391552789767331 $270 $446 forward 7 unknown #
loop $-1 $-1 $277 $168 #
plane-surface $-1 -72.208014160588391 -11.82868071383961 7.6982974596100462 -0.57357644374324357 0 0.81915203911291934 0.81915203911291934 0 0.57357644374324357 forward_v I I I I #
loop $-1 $-1 $447 $107 #
coedge $-1 $275 $275 $276 $448 reversed $169 $-1 #
coedge $-1 $276 $276 $275 $448 forward $171 $-1 #
coedge $-1 $277 $277 $172 $278 forward $272 $-1 #
edge $-1 $449 0 $449 6.2831853071796004 $277 $450 forward 7 unknown #
loop $-1 $-1 $284 $173 #
plane-surface $-1 -72.208014160588391 -11.82868071383961 7.6982974596100462 -0.57357644374324357 0 0.81915203911291934 0.81915203911291934 0 0.57357644374324357 forward_v I I I I #
loop $-1 $-1 $451 $110 #
coedge $-1 $282 $282 $283 $452 reversed $174 $-1 #
coedge $-1 $283 $283 $282 $452 forward $176 $-1 #
coedge $-1 $284 $284 $177 $285 forward $279 $-1 #
edge $-1 $453 0 $453 6.2831853071796004 $284 $454 forward 7 unknown #
loop $-1 $-1 $291 $178 #
plane-surface $-1 -72.208014160588391 -11.82868071383961 7.6982974596100462 -0.57357644374324357 0 0.81915203911291934 0.81915203911291934 0 0.57357644374324357 forward_v I I I I #
loop $-1 $-1 $455 $113 #
coedge $-1 $289 $289 $290 $456 reversed $179 $-1 #
coedge $-1 $290 $290 $289 $456 forward $181 $-1 #
coedge $-1 $291 $291 $182 $292 forward $286 $-1 #
edge $-1 $457 0 $457 6.2831853071796004 $291 $458 forward 7 unknown #
face $-1 $459 $460 $64 $-1 $461 forward single #
loop $-1 $-1 $462 $183 #
plane-surface $-1 -155.04164610457252 16.904902595381166 125.99698153949112 0 -1 0 0.57357644374324357 0 -0.81915203911291934 forward_v I I I I #
coedge $-1 $463 $464 $465 $466 reversed $184 $-1 #
coedge $-1 $298 $186 $467 $468 reversed $117 $-1 #
coedge $-1 $186 $297 $463 $469 reversed $117 $-1 #
coedge $-1 $465 $470 $186 $300 forward $460 $-1 #
edge $-1 $471 5.3128088916978697 $472 13.391552789767331 $299 $473 forward 7 unknown #
loop $-1 $-1 $306 $187 #
plane-surface $-1 -72.208014160588391 13.029985846908957 7.6982974596100462 -0.57357644374324357 0 0.81915203911291934 0.81915203911291934 0 0.57357644374324357 forward_v I I I I #
loop $-1 $-1 $474 $119 #
coedge $-1 $304 $304 $305 $475 reversed $188 $-1 #
coedge $-1 $305 $305 $304 $475 forward $190 $-1 #
coedge $-1 $306 $306 $191 $307 forward $301 $-1 #
edge $-1 $476 0 $476 6.2831853071796004 $306 $477 forward 7 unknown #
loop $-1 $-1 $313 $192 #
plane-surface $-1 -72.208014160588391 13.029985846908957 7.6982974596100462 -0.57357644374324357 0 0.81915203911291934 0.81915203911291934 0 0.57357644374324357 forward_v I I I I #
loop $-1 $-1 $478 $122 #
coedge $-1 $311 $311 $312 $479 reversed $193 $-1 #
coedge $-1 $312 $312 $311 $479 forward $195 $-1 #
coedge $-1 $313 $313 $196 $314 forward $308 $-1 #
edge $-1 $480 0 $480 6.2831853071796004 $313 $481 forward 7 unknown #
loop $-1 $-1 $320 $197 #
plane-surface $-1 -72.208014160588391 13.029985846908957 7.6982974596100462 -0.57357644374324357 0 0.81915203911291934 0.81915203911291934 0 0.57357644374324357 forward_v I I I I #
loop $-1 $-1 $482 $125 #
coedge $-1 $318 $318 $319 $483 reversed $198 $-1 #
coedge $-1 $319 $319 $318 $483 forward $200 $-1 #
coedge $-1 $320 $320 $201 $321 forward $315 $-1 #
edge $-1 $484 0 $484 6.2831853071796004 $320 $485 forward 7 unknown #
face $-1 $486 $487 $68 $-1 $488 forward single #
loop $-1 $-1 $489 $202 #
plane-surface $-1 36.742962024691423 -15.703597462311821 208.83061348347525 0 1 0 0.57357644374324357 0 0.81915203911291934 forward_v I I I I #
coedge $-1 $490 $491 $492 $493 reversed $203 $-1 #
coedge $-1 $327 $205 $494 $495 reversed $129 $-1 #
coedge $-1 $205 $326 $490 $496 reversed $129 $-1 #
coedge $-1 $492 $497 $205 $329 forward $487 $-1 #
edge $-1 $498 -53.83653314824268 $499 -45.757789250173218 $328 $500 forward 7 unknown #
loop $-1 $-1 $335 $206 #
plane-surface $-1 -46.090669919292708 -11.82868071383961 90.531929403594177 0.57357644374324357 0 0.81915203911291934 0.81915203911291934 0 -0.57357644374324357 forward_v I I I I #
loop $-1 $-1 $501 $131 #
coedge $-1 $333 $333 $334 $502 reversed $207 $-1 #
coedge $-1 $334 $334 $333 $502 forward $209 $-1 #
coedge $-1 $335 $335 $210 $336 forward $330 $-1 #
edge $-1 $503 0 $503 6.2831853071796004 $335 $504 forward 7 unknown #
loop $-1 $-1 $342 $211 #
plane-surface $-1 -46.090669919292708 -11.82868071383961 90.531929403594177 0.57357644374324357 0 0.81915203911291934 0.81915203911291934 0 -0.57357644374324357 forward_v I I I I #
loop $-1 $-1 $505 $134 #
coedge $-1 $340 $340 $341 $506 reversed $212 $-1 #
coedge $-1 $341 $341 $340 $506 forward $214 $-1 #
coedge $-1 $342 $342 $215 $343 forward $337 $-1 #
edge $-1 $507 0 $507 6.2831853071796004 $342 $508 forward 7 unknown #
loop $-1 $-1 $349 $216 #
plane-surface $-1 -46.090669919292708 -11.82868071383961 90.531929403594177 0.57357644374324357 0 0.81915203911291934 0.81915203911291934 0 -0.57357644374324357 forward_v I I I I #
loop $-1 $-1 $509 $137 #
coedge $-1 $347 $347 $348 $510 reversed $217 $-1 #
coedge $-1 $348 $348 $347 $510 forward $219 $-1 #
coedge $-1 $349 $349 $220 $350 forward $344 $-1 #
edge $-1 $511 0 $511 6.2831853071796004 $349 $512 forward 7 unknown #
face $-1 $513 $514 $72 $-1 $515 reversed single #
loop $-1 $-1 $516 $221 #
plane-surface $-1 36.742962024691423 9.155069098436746 208.83061348347525 0 1 0 0.57357644374324357 0 0.81915203911291934 forward_v I I I I #
coedge $-1 $517 $518 $519 $520 reversed $222 $-1 #
coedge $-1 $356 $224 $521 $522 reversed $141 $-1 #
coedge $-1 $224 $355 $517 $523 reversed $141 $-1 #
coedge $-1 $519 $524 $224 $358 forward $525 $-1 #
edge $-1 $526 -53.83653314824268 $527 -45.757789250173218 $357 $528 forward 7 unknown #
loop $-1 $-1 $364 $225 #
plane-surface $-1 -46.090669919292708 13.029985846908957 90.531929403594177 0.57357644374324357 0 0.81915203911291934 0.81915203911291934 0 -0.57357644374324357 forward_v I I I I #
loop $-1 $-1 $529 $143 #
coedge $-1 $362 $362 $363 $530 reversed $226 $-1 #
coedge $-1 $363 $363 $362 $530 forward $228 $-1 #
coedge $-1 $364 $364 $229 $365 forward $359 $-1 #
edge $-1 $531 0 $531 6.2831853071796004 $364 $532 forward 7 unknown #
loop $-1 $-1 $371 $230 #
plane-surface $-1 -46.090669919292708 13.029985846908957 90.531929403594177 0.57357644374324357 0 0.81915203911291934 0.81915203911291934 0 -0.57357644374324357 forward_v I I I I #
loop $-1 $-1 $533 $146 #
coedge $-1 $369 $369 $370 $534 reversed $231 $-1 #
coedge $-1 $370 $370 $369 $534 forward $233 $-1 #
coedge $-1 $371 $371 $234 $372 forward $366 $-1 #
edge $-1 $535 0 $535 6.2831853071796004 $371 $536 forward 7 unknown #
loop $-1 $-1 $378 $235 #
plane-surface $-1 -46.090669919292708 13.029985846908957 90.531929403594177 0.57357644374324357 0 0.81915203911291934 0.81915203911291934 0 -0.57357644374324357 forward_v I I I I #
loop $-1 $-1 $537 $149 #
coedge $-1 $376 $376 $377 $538 reversed $236 $-1 #
coedge $-1 $377 $377 $376 $538 forward $238 $-1 #
coedge $-1 $378 $378 $239 $379 forward $373 $-1 #
edge $-1 $539 0 $539 6.2831853071796004 $378 $540 forward 7 unknown #
face $-1 $541 $542 $57 $-1 $543 reversed single #
loop $-1 $-1 $544 $240 #
plane-surface $-1 -72.208014160588391 0 0 1 0 0 0 0 -1 forward_v I I I I #
coedge $-1 $545 $391 $546 $547 forward $241 $-1 #
coedge $-1 $548 $243 $545 $549 forward $153 $-1 #
coedge $-1 $243 $548 $550 $551 forward $153 $-1 #
coedge $-1 $394 $393 $243 $387 reversed $395 $-1 #
edge $-1 $552 -37.839185471665004 $553 37.839185471665004 $386 $554 forward 7 unknown #
coedge $-1 $245 $244 $555 $556 forward $96 $-1 #
coedge $-1 $557 $558 $244 $390 reversed $542 $-1 #
edge $-1 $397 -72.208014160588391 $559 72.208014160588391 $389 $560 forward 7 unknown #
coedge $-1 $383 $561 $245 $392 reversed $241 $-1 #
edge $-1 $562 -72.208014160588391 $396 72.208014160588391 $391 $563 forward 7 unknown #
coedge $-1 $386 $246 $561 $564 forward $395 $-1 #
coedge $-1 $246 $386 $557 $565 reversed $395 $-1 #
loop $-1 $-1 $393 $541 #
vertex $-1 $247 $566 #
vertex $-1 $247 $567 #
straight-curve $-1 72.208014160588391 0 13.355094944952503 0 1 0 I I #
face $-1 $568 $569 $58 $-1 $570 reversed single #
loop $-1 $-1 $571 $248 #
plane-surface $-1 -72.208014160588391 0 0 1 0 0 0 0 -1 forward_v I I I I #
coedge $-1 $410 $572 $404 $573 forward $249 $-1 #
coedge $-1 $254 $251 $574 $575 reversed $157 $-1 #
coedge $-1 $251 $254 $402 $573 reversed $157 $-1 #
coedge $-1 $576 $577 $251 $406 forward $578 $-1 #
edge $-1 $579 -13.355094944952503 $580 13.355094944952503 $405 $581 forward 7 unknown #
coedge $-1 $253 $252 $571 $582 reversed $99 $-1 #
coedge $-1 $574 $583 $252 $409 forward $569 $-1 #
edge $-1 $584 -37.965597351186354 $413 -30.519236267617721 $408 $585 forward 7 unknown #
coedge $-1 $586 $402 $253 $411 forward $249 $-1 #
edge $-1 $412 30.519236267617721 $587 37.965597351186354 $410 $588 forward 7 unknown #
vertex $-1 $411 $589 #
vertex $-1 $409 $590 #
straight-curve $-1 -64.761653077019758 -21.969459059630573 0 0 0 -1 I I #
face $-1 $591 $427 $59 $-1 $592 reversed single #
loop $-1 $-1 $593 $256 #
plane-surface $-1 -54.279292283935852 47.930496881463448 0 0 -1 0 0 0 -1 forward_v I I I I #
coedge $-1 $594 $595 $596 $597 forward $257 $-1 #
coedge $-1 $598 $259 $594 $599 forward $161 $-1 #
coedge $-1 $259 $598 $425 $600 forward $161 $-1 #
edge $-1 $428 52.299076554999672 $601 56.259508012872033 $259 $602 forward 7 unknown #
coedge $-1 $261 $260 $603 $604 forward $102 $-1 #
coedge $-1 $605 $606 $260 $424 forward $607 $-1 #
edge $-1 $608 -56.259508012872033 $429 -52.299076554999672 $423 $609 forward 7 unknown #
coedge $-1 $610 $262 $420 $600 reversed $427 $-1 #
coedge $-1 $262 $610 $605 $611 reversed $427 $-1 #
loop $-1 $-1 $262 $415 #
vertex $-1 $421 $612 #
vertex $-1 $611 $613 #
straight-curve $-1 -52.299076554999672 37.839185471665004 0 0 0 1 I I #
face $-1 $-1 $443 $60 $-1 $614 forward single #
loop $-1 $-1 $615 $264 #
plane-surface $-1 -72.208014160588391 0 0 1 0 0 0 0 -1 forward_v I I I I #
coedge $-1 $616 $617 $618 $619 reversed $265 $-1 #
coedge $-1 $620 $267 $269 $441 forward $165 $-1 #
coedge $-1 $267 $620 $616 $621 forward $165 $-1 #
coedge $-1 $618 $270 $267 $438 forward $443 $-1 #
edge $-1 $445 -9.7892571053920161 $622 -2.0394236084475938 $437 $623 forward 7 unknown #
coedge $-1 $624 $625 $268 $440 forward $432 $-1 #
edge $-1 $626 -55.300193310135512 $444 -49.643395824793053 $439 $627 forward 7 unknown #
edge $-1 $445 -9.8623253221931044 $626 0 $269 $628 forward 7 unknown #
coedge $-1 $270 $618 $624 $629 forward $443 $-1 #
loop $-1 $-1 $618 $431 #
vertex $-1 $440 $630 #
vertex $-1 $271 $631 #
straight-curve $-1 -77.520823052286261 -15.703597462311821 13.355094944952505 1 0 0 I I #
coedge $-1 $447 $447 $-1 $632 reversed $274 $-1 #
edge $-1 $633 0 $633 6.2831853071796004 $275 $634 forward 7 unknown #
vertex $-1 $278 $635 #
ellipse-curve $-1 -68.168642211553674 -14.153630762922937 10.52669620228127 -0.57357644374324357 0 0.81915203911291934 0.40957601955645967 0 0.28678822187162178 1 I I #
coedge $-1 $451 $451 $-1 $636 reversed $281 $-1 #
edge $-1 $637 0 $637 6.2831853071796004 $282 $638 forward 7 unknown #
vertex $-1 $285 $639 #
ellipse-curve $-1 -68.168642211553674 -11.82868071383961 10.52669620228127 -0.57357644374324357 0 0.81915203911291934 0.40957601955645967 0 0.28678822187162178 1 I I #
coedge $-1 $455 $455 $-1 $640 reversed $288 $-1 #
edge $-1 $641 0 $641 6.2831853071796004 $289 $642 forward 7 unknown #
vertex $-1 $292 $643 #
ellipse-curve $-1 -68.168642211553674 -9.5037306647562829 10.52669620228127 -0.57357644374324357 0 0.81915203911291934 0.40957601955645967 0 0.28678822187162178 1 I I #
face $-1 $-1 $644 $64 $-1 $645 reversed single #
loop $-1 $-1 $299 $293 #
plane-surface $-1 0 0 13.355094944952503 0 0 1 1 0 0 forward_v I I I I #
coedge $-1 $646 $647 $648 $649 reversed $294 $-1 #
coedge $-1 $650 $296 $298 $469 forward $184 $-1 #
coedge $-1 $296 $650 $646 $651 forward $184 $-1 #
coedge $-1 $648 $299 $296 $466 forward $460 $-1 #
edge $-1 $472 2.6400761749822674 $652 10.389909671926688 $465 $653 forward 7 unknown #
coedge $-1 $654 $655 $297 $468 forward $644 $-1 #
edge $-1 $656 -55.300193310135512 $471 -49.643395824793053 $467 $657 forward 7 unknown #
edge $-1 $472 -9.8623253221931044 $656 0 $298 $658 forward 7 unknown #
coedge $-1 $299 $648 $654 $659 forward $460 $-1 #
vertex $-1 $468 $660 #
vertex $-1 $300 $661 #
straight-curve $-1 -77.520823052286261 9.155069098436746 13.355094944952505 1 0 0 I I #
coedge $-1 $474 $474 $-1 $662 reversed $303 $-1 #
edge $-1 $663 0 $663 6.2831853071796004 $304 $664 forward 7 unknown #
vertex $-1 $307 $665 #
ellipse-curve $-1 -68.168642211553674 10.70503579782563 10.52669620228127 -0.57357644374324357 0 0.81915203911291934 0.40957601955645967 0 0.28678822187162178 1 I I #
coedge $-1 $478 $478 $-1 $666 reversed $310 $-1 #
edge $-1 $667 0 $667 6.2831853071796004 $311 $668 forward 7 unknown #
vertex $-1 $314 $669 #
ellipse-curve $-1 -68.168642211553674 13.029985846908957 10.52669620228127 -0.57357644374324357 0 0.81915203911291934 0.40957601955645967 0 0.28678822187162178 1 I I #
coedge $-1 $482 $482 $-1 $670 reversed $317 $-1 #
edge $-1 $671 0 $671 6.2831853071796004 $318 $672 forward 7 unknown #
vertex $-1 $321 $673 #
ellipse-curve $-1 -68.168642211553674 15.354935895992284 10.52669620228127 -0.57357644374324357 0 0.81915203911291934 0.40957601955645967 0 0.28678822187162178 1 I I #
face $-1 $-1 $674 $68 $-1 $675 reversed single #
loop $-1 $-1 $328 $322 #
plane-surface $-1 0 0 13.355094944952503 0 0 1 1 0 0 forward_v I I I I #
coedge $-1 $676 $677 $678 $679 reversed $323 $-1 #
coedge $-1 $680 $325 $327 $496 forward $203 $-1 #
coedge $-1 $325 $680 $676 $681 forward $203 $-1 #
coedge $-1 $678 $328 $325 $493 forward $487 $-1 #
edge $-1 $499 2.0394236084475938 $682 9.7892571053920161 $492 $683 forward 7 unknown #
coedge $-1 $684 $685 $326 $495 forward $674 $-1 #
edge $-1 $686 -96.717009282127592 $498 -91.060211796785126 $494 $687 forward 7 unknown #
edge $-1 $499 134.55370299898371 $686 144.41602832117681 $327 $688 forward 7 unknown #
coedge $-1 $328 $678 $684 $689 forward $487 $-1 #
vertex $-1 $329 $690 #
vertex $-1 $329 $691 #
straight-curve $-1 18.371481012345711 -7.9537639653673988 13.355094944952498 -1 0 0 I I #
coedge $-1 $501 $501 $-1 $692 reversed $332 $-1 #
edge $-1 $693 0 $693 6.2831853071796004 $333 $694 forward 7 unknown #
vertex $-1 $336 $695 #
ellipse-curve $-1 68.168642211553674 -14.153630762922937 10.526696202281263 0.57357644374324357 0 0.81915203911291934 0.40957601955645967 0 -0.28678822187162178 1 I I #
coedge $-1 $505 $505 $-1 $696 reversed $339 $-1 #
edge $-1 $697 0 $697 6.2831853071796004 $340 $698 forward 7 unknown #
vertex $-1 $343 $699 #
ellipse-curve $-1 68.168642211553674 -11.82868071383961 10.526696202281263 0.57357644374324357 0 0.81915203911291934 0.40957601955645967 0 -0.28678822187162178 1 I I #
coedge $-1 $509 $509 $-1 $700 reversed $346 $-1 #
edge $-1 $701 0 $701 6.2831853071796004 $347 $702 forward 7 unknown #
vertex $-1 $350 $703 #
ellipse-curve $-1 68.168642211553674 -9.5037306647562829 10.526696202281263 0.57357644374324357 0 0.81915203911291934 0.40957601955645967 0 -0.28678822187162178 1 I I #
face $-1 $-1 $525 $72 $-1 $704 forward single #
loop $-1 $-1 $705 $351 #
plane-surface $-1 72.208014160588391 0 0 -1 0 0 0 0 1 forward_v I I I I #
coedge $-1 $706 $707 $708 $709 reversed $352 $-1 #
coedge $-1 $710 $354 $356 $523 forward $222 $-1 #
coedge $-1 $354 $710 $706 $711 forward $222 $-1 #
coedge $-1 $708 $357 $354 $520 forward $525 $-1 #
edge $-1 $527 -10.389909671926688 $712 -2.6400761749822674 $519 $713 forward 7 unknown #
coedge $-1 $714 $715 $355 $522 forward $514 $-1 #
edge $-1 $716 -96.717009282127592 $526 -91.060211796785126 $521 $717 forward 7 unknown #
edge $-1 $527 134.55370299898371 $716 144.41602832117681 $356 $718 forward 7 unknown #
coedge $-1 $357 $708 $714 $719 forward $525 $-1 #
loop $-1 $-1 $708 $513 #
vertex $-1 $522 $720 #
vertex $-1 $358 $721 #
straight-curve $-1 18.371481012345711 16.904902595381166 13.355094944952498 -1 0 0 I I #
coedge $-1 $529 $529 $-1 $722 reversed $361 $-1 #
edge $-1 $723 0 $723 6.2831853071796004 $362 $724 forward 7 unknown #
vertex $-1 $365 $725 #
ellipse-curve $-1 68.168642211553674 10.70503579782563 10.526696202281263 0.57357644374324357 0 0.81915203911291934 0.40957601955645967 0 -0.28678822187162178 1 I I #
coedge $-1 $533 $533 $-1 $726 reversed $368 $-1 #
edge $-1 $727 0 $727 6.2831853071796004 $369 $728 forward 7 unknown #
vertex $-1 $372 $729 #
ellipse-curve $-1 68.168642211553674 13.029985846908957 10.526696202281263 0.57357644374324357 0 0.81915203911291934 0.40957601955645967 0 -0.28678822187162178 1 I I #
coedge $-1 $537 $537 $-1 $730 reversed $375 $-1 #
edge $-1 $731 0 $731 6.2831853071796004 $376 $732 forward 7 unknown #
vertex $-1 $379 $733 #
ellipse-curve $-1 68.168642211553674 15.354935895992284 10.526696202281263 0.57357644374324357 0 0.81915203911291934 0.40957601955645967 0 -0.28678822187162178 1 I I #
face $-1 $-1 $395 $57 $-1 $734 reversed single #
loop $-1 $-1 $557 $380 #
plane-surface $-1 0 37.839185471665004 0 0 -1 0 0 0 -1 forward_v I I I I #
coedge $-1 $735 $555 $558 $736 forward $381 $-1 #
coedge $-1 $561 $383 $384 $549 reversed $241 $-1 #
coedge $-1 $555 $735 $383 $547 reversed $381 $-1 #
edge $-1 $562 -13.355094944952503 $737 13.355094944952503 $546 $738 forward 7 unknown #
coedge $-1 $385 $384 $735 $739 forward $153 $-1 #
edge $-1 $553 -72.208014160588391 $737 72.208014160588391 $545 $740 forward 7 unknown #
coedge $-1 $558 $557 $385 $551 reversed $542 $-1 #
edge $-1 $741 -72.208014160588391 $552 72.208014160588391 $550 $742 forward 7 unknown #
vertex $-1 $387 $743 #
vertex $-1 $564 $744 #
straight-curve $-1 72.208014160588391 0 -13.355094944952503 0 -1 0 I I #
coedge $-1 $544 $546 $388 $556 reversed $381 $-1 #
edge $-1 $559 -37.839185471665004 $562 37.839185471665004 $555 $745 forward 7 unknown #
coedge $-1 $550 $389 $394 $565 forward $542 $-1 #
coedge $-1 $389 $550 $544 $736 reversed $542 $-1 #
vertex $-1 $390 $746 #
straight-curve $-1 0 37.839185471665004 13.355094944952503 -1 0 0 I I #
coedge $-1 $391 $545 $393 $564 reversed $241 $-1 #
vertex $-1 $556 $747 #
straight-curve $-1 0 -37.839185471665004 13.355094944952503 1 0 0 I I #
edge $-1 $396 -13.355094944952503 $553 13.355094944952503 $393 $748 forward 7 unknown #
edge $-1 $397 -13.355094944952503 $552 13.355094944952503 $394 $749 forward 7 unknown #
point $-1 72.208014160588391 -37.839185471665004 13.355094944952503 #
point $-1 72.208014160588391 37.839185471665004 13.355094944952503 #
face $-1 $-1 $578 $58 $-1 $750 reversed single #
loop $-1 $-1 $574 $399 #
plane-surface $-1 0 0 -13.355094944952503 0 0 1 1 0 0 forward_v I I I I #
coedge $-1 $751 $752 $407 $582 forward $400 $-1 #
coedge $-1 $402 $586 $576 $753 forward $249 $-1 #
edge $-1 $580 -22.887024338841108 $412 -7.0172979268066786 $402 $754 forward 7 unknown #
coedge $-1 $755 $408 $403 $575 forward $569 $-1 #
edge $-1 $413 7.0172979268066786 $579 22.887024338841108 $574 $756 forward 7 unknown #
coedge $-1 $757 $405 $572 $753 reversed $578 $-1 #
coedge $-1 $405 $757 $755 $758 reversed $578 $-1 #
loop $-1 $-1 $405 $568 #
vertex $-1 $758 $759 #
vertex $-1 $406 $760 #
straight-curve $-1 -64.761653077019758 -37.839185471665004 0 0 0 1 I I #
edge $-1 $587 -13.355094944952503 $584 13.355094944952503 $571 $761 forward 7 unknown #
coedge $-1 $408 $755 $751 $762 forward $569 $-1 #
vertex $-1 $409 $763 #
straight-curve $-1 -34.242416809402037 -21.969459059630573 -13.355094944952503 1 0 0 I I #
coedge $-1 $572 $410 $752 $764 forward $249 $-1 #
vertex $-1 $764 $765 #
straight-curve $-1 -34.242416809402037 -21.969459059630573 13.355094944952503 -1 0 0 I I #
point $-1 -64.761653077019758 -21.969459059630573 13.355094944952503 #
point $-1 -64.761653077019758 -21.969459059630573 -13.355094944952503 #
face $-1 $-1 $607 $59 $-1 $766 forward single #
plane-surface $-1 -52.299076554999672 42.884841176564223 0 -1 0 0 0 0 1 forward_v I I I I #
coedge $-1 $767 $768 $610 $769 forward $416 $-1 #
coedge $-1 $603 $418 $419 $599 reversed $257 $-1 #
coedge $-1 $418 $603 $606 $770 reversed $257 $-1 #
coedge $-1 $768 $767 $418 $597 reversed $416 $-1 #
edge $-1 $771 -13.355094944952503 $772 13.355094944952503 $596 $773 forward 7 unknown #
coedge $-1 $420 $419 $767 $774 forward $161 $-1 #
edge $-1 $601 -5.0456557048992252 $772 5.0456557048992252 $594 $775 forward 7 unknown #
edge $-1 $776 -5.0456557048992252 $428 5.0456557048992252 $425 $777 forward 7 unknown #
vertex $-1 $599 $778 #
straight-curve $-1 0 37.839185471665004 -13.355094944952503 -1 0 0 I I #
coedge $-1 $595 $594 $422 $604 reversed $257 $-1 #
edge $-1 $608 -13.355094944952503 $601 13.355094944952503 $603 $779 forward 7 unknown #
coedge $-1 $780 $423 $426 $611 forward $607 $-1 #
coedge $-1 $423 $780 $595 $770 forward $607 $-1 #
loop $-1 $-1 $423 $591 #
vertex $-1 $424 $781 #
straight-curve $-1 0 37.839185471665004 13.355094944952503 1 0 0 I I #
coedge $-1 $426 $425 $593 $769 reversed $427 $-1 #
edge $-1 $429 -5.0456557048992252 $782 5.0456557048992252 $426 $783 forward 7 unknown #
point $-1 -52.299076554999672 37.839185471664997 -13.355094944952503 #
point $-1 -52.299076554999672 37.839185471664997 13.355094944952503 #
plane-surface $-1 0 0 13.355094944952503 0 0 1 1 0 0 forward_v I I I I #
coedge $-1 $625 $624 $617 $784 forward $432 $-1 #
coedge $-1 $617 $434 $436 $621 reversed $265 $-1 #
coedge $-1 $434 $616 $615 $784 reversed $265 $-1 #
coedge $-1 $442 $437 $434 $619 forward $443 $-1 #
edge $-1 $622 -13.391552789767331 $785 -5.3128088916978697 $618 $786 forward 7 unknown #
coedge $-1 $436 $435 $625 $787 reversed $165 $-1 #
edge $-1 $788 0 $622 9.8623253221931044 $616 $789 forward 7 unknown #
vertex $-1 $438 $790 #
straight-curve $-1 -64.129270262518929 -5.914340356919805 13.355094944952505 0 1 0 I I #
coedge $-1 $615 $439 $442 $629 reversed $432 $-1 #
coedge $-1 $439 $615 $620 $787 forward $432 $-1 #
vertex $-1 $440 $791 #
straight-curve $-1 -72.208014160588391 -15.703597462311821 62.998490769745558 0 0 1 I I #
straight-curve $-1 -72.208014160588391 -15.703597462311821 7.6982974596100462 -0.81915203911291934 0 -0.57357644374324357 I I #
edge $-1 $785 7.9537639653673988 $444 15.703597462311821 $624 $792 forward 7 unknown #
point $-1 -72.208014160588391 -15.703597462311821 13.355094944952503 #
point $-1 -64.129270262518929 -15.703597462311821 13.355094944952503 #
edge $-1 $793 1 $793 0 $447 $-1 forward 7 unknown #
vertex $-1 $448 $794 #
ellipse-curve $-1 -67.595065767810439 -14.153630762922937 9.7075441631683628 -0.57357644374324357 0 0.81915203911291934 0.40957601955645967 0 0.28678822187162178 1 I I #
point $-1 -67.759066191997221 -14.153630762922937 10.813484424152904 #
edge $-1 $795 1 $795 0 $451 $-1 forward 7 unknown #
vertex $-1 $452 $796 #
ellipse-curve $-1 -67.595065767810439 -11.82868071383961 9.7075441631683628 -0.57357644374324357 0 0.81915203911291934 0.40957601955645967 0 0.28678822187162178 1 I I #
point $-1 -67.759066191997221 -11.82868071383961 10.813484424152904 #
edge $-1 $797 1 $797 0 $455 $-1 forward 7 unknown #
vertex $-1 $456 $798 #
ellipse-curve $-1 -67.595065767810439 -9.5037306647562829 9.7075441631683628 -0.57357644374324357 0 0.81915203911291934 0.40957601955645967 0 0.28678822187162178 1 I I #
point $-1 -67.759066191997221 -9.5037306647562829 10.813484424152904 #
loop $-1 $-1 $467 $459 #
plane-surface $-1 -72.208014160588391 0 0 1 0 0 0 0 -1 forward_v I I I I #
coedge $-1 $647 $462 $464 $651 reversed $294 $-1 #
coedge $-1 $462 $646 $799 $800 reversed $294 $-1 #
coedge $-1 $470 $465 $462 $649 forward $460 $-1 #
edge $-1 $652 -13.391552789767331 $801 -5.3128088916978697 $648 $802 forward 7 unknown #
coedge $-1 $464 $463 $655 $803 reversed $184 $-1 #
edge $-1 $804 0 $652 9.8623253221931044 $646 $805 forward 7 unknown #
vertex $-1 $466 $806 #
straight-curve $-1 -64.129270262518929 6.5149929234544786 13.355094944952505 0 1 0 I I #
coedge $-1 $799 $467 $470 $659 reversed $644 $-1 #
coedge $-1 $467 $799 $650 $803 forward $644 $-1 #
vertex $-1 $468 $807 #
straight-curve $-1 -72.208014160588391 9.155069098436746 62.998490769745558 0 0 1 I I #
straight-curve $-1 -72.208014160588391 9.155069098436746 7.6982974596100462 -0.81915203911291934 0 -0.57357644374324357 I I #
edge $-1 $801 -16.904902595381166 $471 -9.155069098436746 $654 $808 forward 7 unknown #
point $-1 -72.208014160588391 9.155069098436746 13.355094944952503 #
point $-1 -64.129270262518929 9.155069098436746 13.355094944952503 #
edge $-1 $809 1 $809 0 $474 $-1 forward 7 unknown #
vertex $-1 $475 $810 #
ellipse-curve $-1 -67.595065767810439 10.70503579782563 9.7075441631683628 -0.57357644374324357 0 0.81915203911291934 0.40957601955645967 0 0.28678822187162178 1 I I #
point $-1 -67.759066191997221 10.70503579782563 10.813484424152904 #
edge $-1 $811 1 $811 0 $478 $-1 forward 7 unknown #
vertex $-1 $479 $812 #
ellipse-curve $-1 -67.595065767810439 13.029985846908957 9.7075441631683628 -0.57357644374324357 0 0.81915203911291934 0.40957601955645967 0 0.28678822187162178 1 I I #
point $-1 -67.759066191997221 13.029985846908957 10.813484424152904 #
edge $-1 $813 1 $813 0 $482 $-1 forward 7 unknown #
vertex $-1 $483 $814 #
ellipse-curve $-1 -67.595065767810439 15.354935895992284 9.7075441631683628 -0.57357644374324357 0 0.81915203911291934 0.40957601955645967 0 0.28678822187162178 1 I I #
point $-1 -67.759066191997221 15.354935895992284 10.813484424152904 #
loop $-1 $-1 $494 $486 #
plane-surface $-1 72.208014160588391 0 0 -1 0 0 0 0 1 forward_v I I I I #
coedge $-1 $677 $489 $491 $681 reversed $323 $-1 #
coedge $-1 $489 $676 $815 $816 reversed $323 $-1 #
coedge $-1 $497 $492 $489 $679 forward $487 $-1 #
edge $-1 $682 45.757789250173218 $817 53.83653314824268 $678 $818 forward 7 unknown #
coedge $-1 $491 $490 $685 $819 reversed $203 $-1 #
edge $-1 $820 -144.41602832117681 $682 -134.55370299898371 $676 $821 forward 7 unknown #
vertex $-1 $493 $822 #
straight-curve $-1 64.129270262518901 -5.914340356919805 13.355094944952512 0 -1 0 I I #
coedge $-1 $815 $494 $497 $689 reversed $674 $-1 #
coedge $-1 $494 $815 $680 $819 forward $674 $-1 #
vertex $-1 $495 $823 #
straight-curve $-1 72.208014160588391 -7.9537639653673988 104.41530674173762 0 0 1 I I #
straight-curve $-1 -46.090669919292708 -7.9537639653673988 90.531929403594177 0.81915203911291934 0 -0.57357644374324357 I I #
edge $-1 $817 -15.703597462311821 $498 -7.9537639653673988 $684 $824 forward 7 unknown #
point $-1 72.208014160588391 -7.9537639653673988 13.355094944952503 #
point $-1 64.129270262518929 -7.9537639653673988 13.355094944952498 #
edge $-1 $825 1 $825 0 $501 $-1 forward 7 unknown #
vertex $-1 $502 $826 #
ellipse-curve $-1 67.595065767810439 -14.153630762922937 9.7075441631683557 0.57357644374324357 0 0.81915203911291934 0.40957601955645967 0 -0.28678822187162178 1 I I #
point $-1 68.578218231110142 -14.153630762922937 10.239907980409653 #
edge $-1 $827 1 $827 0 $505 $-1 forward 7 unknown #
vertex $-1 $506 $828 #
ellipse-curve $-1 67.595065767810439 -11.82868071383961 9.7075441631683557 0.57357644374324357 0 0.81915203911291934 0.40957601955645967 0 -0.28678822187162178 1 I I #
point $-1 68.578218231110142 -11.82868071383961 10.239907980409653 #
edge $-1 $829 1 $829 0 $509 $-1 forward 7 unknown #
vertex $-1 $510 $830 #
ellipse-curve $-1 67.595065767810439 -9.5037306647562829 9.7075441631683557 0.57357644374324357 0 0.81915203911291934 0.40957601955645967 0 -0.28678822187162178 1 I I #
point $-1 68.578218231110142 -9.5037306647562829 10.239907980409653 #
plane-surface $-1 0 0 13.355094944952503 0 0 1 1 0 0 forward_v I I I I #
coedge $-1 $715 $714 $707 $831 forward $514 $-1 #
coedge $-1 $707 $516 $518 $711 reversed $352 $-1 #
coedge $-1 $516 $706 $705 $831 reversed $352 $-1 #
coedge $-1 $524 $519 $516 $709 forward $525 $-1 #
edge $-1 $712 45.757789250173218 $832 53.83653314824268 $708 $833 forward 7 unknown #
coedge $-1 $518 $517 $715 $834 reversed $222 $-1 #
edge $-1 $835 -144.41602832117681 $712 -134.55370299898371 $706 $836 forward 7 unknown #
vertex $-1 $520 $837 #
straight-curve $-1 64.129270262518901 6.5149929234544786 13.355094944952512 0 -1 0 I I #
coedge $-1 $705 $521 $524 $719 reversed $514 $-1 #
coedge $-1 $521 $705 $710 $834 forward $514 $-1 #
vertex $-1 $522 $838 #
straight-curve $-1 72.208014160588391 16.904902595381166 104.41530674173762 0 0 1 I I #
straight-curve $-1 -46.090669919292708 16.904902595381166 90.531929403594177 0.81915203911291934 0 -0.57357644374324357 I I #
edge $-1 $832 9.155069098436746 $526 16.904902595381166 $714 $839 forward 7 unknown #
point $-1 72.208014160588391 16.904902595381166 13.355094944952503 #
point $-1 64.129270262518929 16.904902595381166 13.355094944952498 #
edge $-1 $840 1 $840 0 $529 $-1 forward 7 unknown #
vertex $-1 $530 $841 #
ellipse-curve $-1 67.595065767810439 10.70503579782563 9.7075441631683557 0.57357644374324357 0 0.81915203911291934 0.40957601955645967 0 -0.28678822187162178 1 I I #
point $-1 68.578218231110142 10.70503579782563 10.239907980409653 #
edge $-1 $842 1 $842 0 $533 $-1 forward 7 unknown #
vertex $-1 $534 $843 #
ellipse-curve $-1 67.595065767810439 13.029985846908957 9.7075441631683557 0.57357644374324357 0 0.81915203911291934 0.40957601955645967 0 -0.28678822187162178 1 I I #
point $-1 68.578218231110142 13.029985846908957 10.239907980409653 #
edge $-1 $844 1 $844 0 $537 $-1 forward 7 unknown #
vertex $-1 $538 $845 #
ellipse-curve $-1 67.595065767810439 15.354935895992284 9.7075441631683557 0.57357644374324357 0 0.81915203911291934 0.40957601955645967 0 -0.28678822187162178 1 I I #
point $-1 68.578218231110142 15.354935895992284 10.239907980409653 #
plane-surface $-1 72.208014160588391 0 0 -1 0 0 0 0 1 forward_v I I I I #
coedge $-1 $546 $544 $548 $739 reversed $381 $-1 #
edge $-1 $559 -13.355094944952503 $741 13.355094944952503 $558 $846 forward 7 unknown #
vertex $-1 $739 $847 #
straight-curve $-1 -72.208014160588391 -37.839185471665004 0 0 0 -1 I I #
edge $-1 $737 -37.839185471665004 $741 37.839185471665004 $735 $848 forward 7 unknown #
straight-curve $-1 0 -37.839185471665004 -13.355094944952503 -1 0 0 I I #
vertex $-1 $551 $849 #
straight-curve $-1 0 37.839185471665004 -13.355094944952503 1 0 0 I I #
point $-1 72.208014160588391 37.839185471665004 -13.355094944952503 #
point $-1 72.208014160588391 -37.839185471665004 -13.355094944952503 #
straight-curve $-1 -72.208014160588391 0 13.355094944952503 0 -1 0 I I #
point $-1 -72.208014160588391 37.839185471665004 13.355094944952503 #
point $-1 -72.208014160588391 -37.839185471665004 13.355094944952503 #
straight-curve $-1 72.208014160588391 -37.839185471665004 0 0 0 -1 I I #
straight-curve $-1 72.208014160588391 37.839185471665004 0 0 0 -1 I I #
plane-surface $-1 0 -37.839185471665004 0 0 1 0 0 0 1 forward_v I I I I #
coedge $-1 $850 $571 $583 $762 reversed $400 $-1 #
coedge $-1 $571 $850 $586 $764 reversed $400 $-1 #
edge $-1 $851 -72.208014160588391 $580 -64.761653077019758 $576 $852 forward 7 unknown #
straight-curve $-1 -64.761653077019758 -14.952161132823894 13.355094944952503 0 1 0 I I #
coedge $-1 $583 $574 $577 $758 forward $569 $-1 #
straight-curve $-1 -64.761653077019758 -14.952161132823894 -13.355094944952503 0 -1 0 I I #
coedge $-1 $577 $576 $850 $853 forward $578 $-1 #
edge $-1 $579 64.761653077019758 $854 72.208014160588391 $577 $855 forward 7 unknown #
point $-1 -64.761653077019758 -37.839185471665004 -13.355094944952503 #
point $-1 -64.761653077019758 -37.839185471665004 13.355094944952503 #
straight-curve $-1 -72.208014160588391 -21.969459059630573 0 0 0 -1 I I #
edge $-1 $854 -37.839185471665004 $584 -21.969459059630573 $751 $856 forward 7 unknown #
point $-1 -72.208014160588391 -21.969459059630573 -13.355094944952503 #
edge $-1 $587 21.969459059630573 $851 37.839185471665004 $752 $857 forward 7 unknown #
point $-1 -72.208014160588391 -21.969459059630573 13.355094944952503 #
plane-surface $-1 0 0 13.355094944952503 0 0 1 1 0 0 forward_v I I I I #
coedge $-1 $596 $593 $598 $774 reversed $416 $-1 #
coedge $-1 $593 $596 $780 $858 reversed $416 $-1 #
edge $-1 $782 -13.355094944952503 $776 13.355094944952503 $610 $859 forward 7 unknown #
edge $-1 $771 -5.0456557048992252 $608 5.0456557048992252 $595 $860 forward 7 unknown #
vertex $-1 $858 $861 #
vertex $-1 $774 $862 #
straight-curve $-1 -56.259508012872033 47.930496881463448 0 0 0 -1 I I #
edge $-1 $772 -1.9802157289361801 $776 1.9802157289361801 $767 $863 forward 7 unknown #
straight-curve $-1 -56.259508012872033 42.884841176564223 -13.355094944952503 0 1 0 I I #
vertex $-1 $600 $864 #
straight-curve $-1 -52.299076554999672 42.884841176564223 -13.355094944952503 0 -1 0 I I #
point $-1 -56.259508012872033 37.839185471664997 -13.355094944952503 #
straight-curve $-1 -56.259508012872033 37.839185471665004 0 0 0 -1 I I #
coedge $-1 $606 $605 $768 $858 forward $607 $-1 #
point $-1 -56.259508012872033 37.839185471664997 13.355094944952503 #
vertex $-1 $611 $865 #
straight-curve $-1 -52.299076554999672 42.884841176564223 13.355094944952503 0 1 0 I I #
edge $-1 $785 49.643395824793053 $788 55.300193310135512 $615 $866 forward 7 unknown #
vertex $-1 $629 $867 #
straight-curve $-1 -77.520823052286261 -7.9537639653673988 13.355094944952505 -1 0 0 I I #
edge $-1 $788 2.0394236084475938 $626 9.7892571053920161 $625 $868 forward 7 unknown #
vertex $-1 $787 $869 #
straight-curve $-1 -72.208014160588391 -7.9537639653673988 7.6982974596100462 0.81915203911291934 0 0.57357644374324357 I I #
point $-1 -64.129270262518929 -7.9537639653673988 13.355094944952503 #
point $-1 -72.208014160588391 -15.703597462311821 7.6982974596100462 #
straight-curve $-1 -72.208014160588391 0 13.355094944952503 0 -1 0 I I #
vertex $-1 $632 $870 #
point $-1 -67.185489748253971 -14.153630762922937 9.9943323850399839 #
vertex $-1 $636 $871 #
point $-1 -67.185489748253971 -11.82868071383961 9.9943323850399839 #
vertex $-1 $640 $872 #
point $-1 -67.185489748253971 -9.5037306647562829 9.9943323850399839 #
coedge $-1 $655 $654 $647 $800 forward $644 $-1 #
edge $-1 $801 49.643395824793053 $804 55.300193310135512 $799 $873 forward 7 unknown #
vertex $-1 $659 $874 #
straight-curve $-1 -77.520823052286261 16.904902595381166 13.355094944952505 -1 0 0 I I #
edge $-1 $804 -10.389909671926688 $656 -2.6400761749822674 $655 $875 forward 7 unknown #
vertex $-1 $803 $876 #
straight-curve $-1 -72.208014160588391 16.904902595381166 7.6982974596100462 0.81915203911291934 0 0.57357644374324357 I I #
point $-1 -64.129270262518929 16.904902595381166 13.355094944952503 #
point $-1 -72.208014160588391 9.155069098436746 7.6982974596100462 #
straight-curve $-1 -72.208014160588391 0 13.355094944952503 0 -1 0 I I #
vertex $-1 $662 $877 #
point $-1 -67.185489748253971 10.70503579782563 9.9943323850399839 #
vertex $-1 $666 $878 #
point $-1 -67.185489748253971 13.029985846908957 9.9943323850399839 #
vertex $-1 $670 $879 #
point $-1 -67.185489748253971 15.354935895992284 9.9943323850399839 #
coedge $-1 $685 $684 $677 $816 forward $674 $-1 #
edge $-1 $817 91.060211796785126 $820 96.717009282127592 $815 $880 forward 7 unknown #
vertex $-1 $689 $881 #
straight-curve $-1 18.371481012345711 -15.703597462311821 13.355094944952498 1 0 0 I I #
edge $-1 $820 -9.7892571053920161 $686 -2.0394236084475938 $685 $882 forward 7 unknown #
vertex $-1 $819 $883 #
straight-curve $-1 -46.090669919292708 -15.703597462311821 90.531929403594177 -0.81915203911291934 0 0.57357644374324357 I I #
point $-1 64.129270262518929 -15.703597462311821 13.355094944952498 #
point $-1 72.208014160588391 -7.9537639653673988 7.698297459610032 #
straight-curve $-1 72.208014160588391 0 13.355094944952503 0 1 0 I I #
vertex $-1 $692 $884 #
point $-1 68.004641787366893 -14.153630762922937 9.4207559412967328 #
vertex $-1 $696 $885 #
point $-1 68.004641787366893 -11.82868071383961 9.4207559412967328 #
vertex $-1 $700 $886 #
point $-1 68.004641787366893 -9.5037306647562829 9.4207559412967328 #
edge $-1 $832 91.060211796785126 $835 96.717009282127592 $705 $887 forward 7 unknown #
vertex $-1 $719 $888 #
straight-curve $-1 18.371481012345711 9.155069098436746 13.355094944952498 1 0 0 I I #
edge $-1 $835 2.6400761749822674 $716 10.389909671926688 $715 $889 forward 7 unknown #
vertex $-1 $834 $890 #
straight-curve $-1 -46.090669919292708 9.155069098436746 90.531929403594177 -0.81915203911291934 0 0.57357644374324357 I I #
point $-1 64.129270262518929 9.155069098436746 13.355094944952498 #
point $-1 72.208014160588391 16.904902595381166 7.698297459610032 #
straight-curve $-1 72.208014160588391 0 13.355094944952503 0 1 0 I I #
vertex $-1 $722 $891 #
point $-1 68.004641787366893 10.70503579782563 9.4207559412967328 #
vertex $-1 $726 $892 #
point $-1 68.004641787366893 13.029985846908957 9.4207559412967328 #
vertex $-1 $730 $893 #
point $-1 68.004641787366893 15.354935895992284 9.4207559412967328 #
straight-curve $-1 -72.208014160588391 37.839185471665004 0 0 0 -1 I I #
point $-1 -72.208014160588391 -37.839185471665004 -13.355094944952503 #
straight-curve $-1 -72.208014160588391 0 -13.355094944952503 0 1 0 I I #
point $-1 -72.208014160588391 37.839185471665004 -13.355094944952503 #
coedge $-1 $752 $751 $757 $853 reversed $400 $-1 #
vertex $-1 $764 $894 #
straight-curve $-1 0 -37.839185471665004 13.355094944952503 1 0 0 I I #
edge $-1 $851 -13.355094944952503 $854 13.355094944952503 $850 $895 forward 7 unknown #
vertex $-1 $762 $896 #
straight-curve $-1 0 -37.839185471665004 -13.355094944952503 -1 0 0 I I #
straight-curve $-1 -72.208014160588391 0 -13.355094944952503 0 1 0 I I #
straight-curve $-1 -72.208014160588391 0 13.355094944952503 0 -1 0 I I #
edge $-1 $782 -1.9802157289361801 $771 1.9802157289361801 $768 $897 forward 7 unknown #
straight-curve $-1 -52.299076554999672 47.930496881463448 0 0 0 -1 I I #
straight-curve $-1 -56.259508012872033 42.884841176564223 13.355094944952503 0 -1 0 I I #
point $-1 -56.259508012872033 47.930496881463448 13.355094944952503 #
point $-1 -56.259508012872033 47.930496881463448 -13.355094944952503 #
straight-curve $-1 -54.279292283935852 47.930496881463448 -13.355094944952503 1 0 0 I I #
point $-1 -52.299076554999672 47.930496881463448 -13.355094944952503 #
point $-1 -52.299076554999672 47.930496881463448 13.355094944952503 #
straight-curve $-1 -72.208014160588391 -7.9537639653673988 62.998490769745558 0 0 -1 I I #
point $-1 -72.208014160588391 -7.9537639653673988 13.355094944952503 #
straight-curve $-1 -72.208014160588391 -5.914340356919805 7.6982974596100435 0 -1 0 I I #
point $-1 -72.208014160588391 -7.9537639653673988 7.6982974596100462 #
point $-1 -67.308277545938807 -14.153630762922937 9.2979681436119019 #
point $-1 -67.308277545938807 -11.82868071383961 9.2979681436119019 #
point $-1 -67.308277545938807 -9.5037306647562829 9.2979681436119019 #
straight-curve $-1 -72.208014160588391 16.904902595381166 62.998490769745558 0 0 -1 I I #
point $-1 -72.208014160588391 16.904902595381166 13.355094944952503 #
straight-curve $-1 -72.208014160588391 6.5149929234544786 7.6982974596100435 0 -1 0 I I #
point $-1 -72.208014160588391 16.904902595381166 7.6982974596100462 #
point $-1 -67.308277545938807 10.70503579782563 9.2979681436119019 #
point $-1 -67.308277545938807 13.029985846908957 9.2979681436119019 #
point $-1 -67.308277545938807 15.354935895992284 9.2979681436119019 #
straight-curve $-1 72.208014160588391 -15.703597462311821 104.41530674173762 0 0 -1 I I #
point $-1 72.208014160588391 -15.703597462311821 13.355094944952503 #
straight-curve $-1 72.208014160588391 -5.914340356919805 7.6982974596100249 0 1 0 I I #
point $-1 72.208014160588391 -15.703597462311821 7.698297459610032 #
point $-1 67.308277545938807 -14.153630762922937 9.2979681436118948 #
point $-1 67.308277545938807 -11.82868071383961 9.2979681436118948 #
point $-1 67.308277545938807 -9.5037306647562829 9.2979681436118948 #
straight-curve $-1 72.208014160588391 9.155069098436746 104.41530674173762 0 0 -1 I I #
point $-1 72.208014160588391 9.155069098436746 13.355094944952503 #
straight-curve $-1 72.208014160588391 6.5149929234544786 7.6982974596100249 0 1 0 I I #
point $-1 72.208014160588391 9.155069098436746 7.698297459610032 #
point $-1 67.308277545938807 10.70503579782563 9.2979681436118948 #
point $-1 67.308277545938807 13.029985846908957 9.2979681436118948 #
point $-1 67.308277545938807 15.354935895992284 9.2979681436118948 #
point $-1 -72.208014160588391 -37.839185471665004 13.355094944952503 #
straight-curve $-1 -72.208014160588391 -37.839185471665004 0 0 0 -1 I I #
point $-1 -72.208014160588391 -37.839185471665004 -13.355094944952503 #
straight-curve $-1 -54.279292283935852 47.930496881463448 13.355094944952503 -1 0 0 I I #
End-of-ACIS-data 