500 0 13 0           
7 Unknown 11 ACIS 5.0 NT 24 Thu Mar 25 17:59:43 1999 
-1 9.9999999999999995e-007 1e-010 
body $-1 $13 $-1 $14 #
body $-1 $15 $-1 $16 #
body $-1 $17 $-1 $18 #
body $-1 $19 $-1 $20 #
body $-1 $21 $-1 $22 #
body $-1 $23 $-1 $24 #
body $-1 $25 $-1 $26 #
body $-1 $27 $-1 $28 #
body $-1 $29 $-1 $30 #
body $-1 $31 $-1 $32 #
body $-1 $33 $-1 $34 #
body $-1 $35 $-1 $36 #
body $-1 $37 $-1 $38 #
lump $-1 $-1 $39 $0 #
transform $-1 1 0 0 0 1 0 0 0 1 51.661732840968043 33.709804911226826 11.320823853392813 1 rotate no_reflect no_shear #
lump $-1 $-1 $40 $1 #
transform $-1 1 0 0 0 1 0 0 0 1 51.661732840968043 33.709804911226826 11.320823853392813 1 rotate no_reflect no_shear #
lump $-1 $-1 $41 $2 #
transform $-1 1 0 0 0 1 0 0 0 1 51.661732840968043 33.709804911226826 11.320823853392813 1 rotate no_reflect no_shear #
lump $-1 $-1 $42 $3 #
transform $-1 1 0 0 0 1 0 0 0 1 51.661732840968043 33.709804911226826 11.320823853392813 1 rotate no_reflect no_shear #
lump $-1 $-1 $43 $4 #
transform $-1 1 0 0 0 1 0 0 0 1 51.661732840968043 33.709804911226826 11.320823853392813 1 rotate no_reflect no_shear #
lump $-1 $-1 $44 $5 #
transform $-1 1 0 0 0 1 0 0 0 1 51.661732840968043 33.709804911226826 11.320823853392813 1 rotate no_reflect no_shear #
lump $-1 $-1 $45 $6 #
transform $-1 1 0 0 0 1 0 0 0 1 51.661732840968043 33.709804911226826 11.320823853392813 1 rotate no_reflect no_shear #
lump $-1 $-1 $46 $7 #
transform $-1 1 0 0 0 1 0 0 0 1 51.661732840968043 33.709804911226826 11.320823853392813 1 rotate no_reflect no_shear #
lump $-1 $-1 $47 $8 #
transform $-1 1 0 0 0 1 0 0 0 1 51.661732840968043 33.709804911226826 11.320823853392813 1 rotate no_reflect no_shear #
lump $-1 $-1 $48 $9 #
transform $-1 1 0 0 0 1 0 0 0 1 51.661732840968043 33.709804911226826 11.320823853392813 1 rotate no_reflect no_shear #
lump $-1 $-1 $49 $10 #
transform $-1 1 0 0 0 1 0 0 0 1 51.661732840968043 33.709804911226826 11.320823853392813 1 rotate no_reflect no_shear #
lump $-1 $-1 $50 $11 #
transform $-1 1 0 0 0 1 0 0 0 1 51.661732840968043 33.709804911226826 11.320823853392813 1 rotate no_reflect no_shear #
lump $-1 $-1 $51 $12 #
transform $-1 1 0 0 0 1 0 0 0 1 51.661732840968043 33.709804911226826 11.320823853392813 1 rotate no_reflect no_shear #
shell $-1 $-1 $-1 $52 $-1 $13 #
shell $-1 $-1 $-1 $53 $-1 $15 #
shell $-1 $-1 $-1 $54 $-1 $17 #
shell $-1 $-1 $-1 $55 $-1 $19 #
shell $-1 $-1 $-1 $56 $-1 $21 #
shell $-1 $-1 $-1 $57 $-1 $23 #
shell $-1 $-1 $-1 $58 $-1 $25 #
shell $-1 $-1 $-1 $59 $-1 $27 #
shell $-1 $-1 $-1 $60 $-1 $29 #
shell $-1 $-1 $-1 $61 $-1 $31 #
shell $-1 $-1 $-1 $62 $-1 $33 #
shell $-1 $-1 $-1 $63 $-1 $35 #
shell $-1 $-1 $-1 $64 $-1 $37 #
face $-1 $65 $66 $39 $-1 $67 forward single #
face $-1 $68 $69 $40 $-1 $70 forward single #
face $-1 $71 $72 $41 $-1 $73 forward single #
face $-1 $74 $75 $42 $-1 $76 reversed single #
face $-1 $77 $78 $43 $-1 $79 forward single #
face $-1 $80 $81 $44 $-1 $82 forward single #
face $-1 $83 $84 $45 $-1 $85 forward single #
face $-1 $86 $87 $46 $-1 $88 reversed single #
face $-1 $89 $90 $47 $-1 $91 forward single #
face $-1 $92 $93 $48 $-1 $94 forward single #
face $-1 $95 $96 $49 $-1 $97 forward single #
face $-1 $98 $99 $50 $-1 $100 reversed single #
face $-1 $101 $102 $51 $-1 $103 forward single #
face $-1 $104 $105 $39 $-1 $106 reversed single #
loop $-1 $-1 $107 $52 #
plane-surface $-1 0 0 11.320823853392813 0 0 1 1 0 0 forward_v I I I I #
face $-1 $108 $109 $40 $-1 $110 reversed single #
loop $-1 $-1 $111 $53 #
plane-surface $-1 0 -29.357805484621007 9.4997439335583849 0 0 1 1 0 0 forward_v I I I I #
face $-1 $112 $113 $41 $-1 $114 reversed single #
loop $-1 $-1 $115 $54 #
plane-surface $-1 0 29.357805484621011 9.4997439335583849 0 0 1 1 0 0 forward_v I I I I #
face $-1 $116 $117 $42 $-1 $118 reversed single #
loop $-1 $-1 $119 $55 #
plane-surface $-1 -129.64094310934854 -12.977616736255319 70.570734269884213 0 -1 0 0.75470958851134928 0 -0.65605901945558964 forward_v I I I I #
face $-1 $120 $121 $43 $-1 $122 forward single #
loop $-1 $123 $124 $56 #
cone-surface $-1 -47.574096673304624 -22.600168193663215 6.7246037608885967 0.75470958851134928 0 -0.65605901945558964 0.32802950972779482 0 0.37735479425567464 1 I I 0 1 0.5 forward I I I I #
face $-1 $125 $126 $44 $-1 $127 forward single #
loop $-1 $128 $129 $57 #
cone-surface $-1 -47.574096673304624 -18.991711397135255 6.7246037608885967 0.75470958851134928 0 -0.65605901945558964 0.32802950972779482 0 0.37735479425567464 1 I I 0 1 0.5 forward I I I I #
face $-1 $130 $131 $45 $-1 $132 forward single #
loop $-1 $133 $134 $58 #
cone-surface $-1 -47.574096673304624 -15.383254600607291 6.7246037608885967 0.75470958851134928 0 -0.65605901945558964 0.32802950972779482 0 0.37735479425567464 1 I I 0 1 0.5 forward I I I I #
face $-1 $135 $136 $46 $-1 $137 reversed single #
loop $-1 $-1 $138 $59 #
plane-surface $-1 -129.64094310934854 12.977616736255319 70.570734269884213 0 1 0 -0.75470958851134928 0 0.65605901945558964 forward_v I I I I #
face $-1 $139 $140 $47 $-1 $141 forward single #
loop $-1 $142 $143 $60 #
cone-surface $-1 -47.574096673304624 15.383254600607295 6.7246037608885967 0.75470958851134928 0 -0.65605901945558964 0.32802950972779482 0 0.37735479425567464 1 I I 0 1 0.5 forward I I I I #
face $-1 $144 $145 $48 $-1 $146 forward single #
loop $-1 $147 $148 $61 #
cone-surface $-1 -47.574096673304624 18.991711397135255 6.7246037608885967 0.75470958851134928 0 -0.65605901945558964 0.32802950972779482 0 0.37735479425567464 1 I I 0 1 0.5 forward I I I I #
face $-1 $149 $150 $49 $-1 $151 forward single #
loop $-1 $152 $153 $62 #
cone-surface $-1 -47.574096673304624 22.600168193663222 6.7246037608885967 0.75470958851134928 0 -0.65605901945558964 0.32802950972779482 0 0.37735479425567464 1 I I 0 1 0.5 forward I I I I #
face $-1 $154 $155 $50 $-1 $156 reversed single #
loop $-1 $-1 $157 $63 #
plane-surface $-1 87.011712317687127 3.0007591527099002 144.68430070399685 0 -1 0 -0.85716730853699208 0 -0.51503806187062418 forward_v I I I I #
face $-1 $158 $159 $51 $-1 $160 forward single #
loop $-1 $161 $162 $64 #
cone-surface $-1 47.683431809115767 -0.27992136527945632 6.2411570563651182 -0.85716730853699208 0 -0.51503806187062418 0.77255709280593621 0 -1.2857509628054882 1 I I 0 1 1.5 forward I I I I #
face $-1 $163 $164 $39 $-1 $165 reversed single #
loop $-1 $-1 $166 $65 #
plane-surface $-1 0 0 -11.320823853392813 0 0 1 1 0 0 forward_v I I I I #
coedge $-1 $167 $168 $169 $170 forward $66 $-1 #
face $-1 $171 $172 $40 $-1 $173 reversed single #
loop $-1 $-1 $174 $68 #
plane-surface $-1 0 -29.357805484621007 6.4997439335583849 0 0 1 1 0 0 forward_v I I I I #
coedge $-1 $175 $176 $177 $178 reversed $69 $-1 #
face $-1 $179 $180 $41 $-1 $181 reversed single #
loop $-1 $-1 $182 $71 #
plane-surface $-1 0 29.357805484621011 6.4997439335583849 0 0 1 1 0 0 forward_v I I I I #
coedge $-1 $183 $184 $185 $186 reversed $72 $-1 #
face $-1 $187 $188 $42 $-1 $189 forward single #
loop $-1 $-1 $190 $74 #
plane-surface $-1 -51.661732840968043 -18.991711397135255 2.784442687839956 -0.75470958851134928 0 0.65605901945558964 0.65605901945558964 0 0.75470958851134928 forward_v I I I I #
coedge $-1 $191 $192 $193 $194 reversed $75 $-1 #
face $-1 $-1 $195 $43 $-1 $196 forward single #
loop $-1 $197 $198 $77 #
cone-surface $-1 -47.00806448192111 -22.600168193663215 6.2325594962969042 0.75470958851134928 0 -0.65605901945558964 0.16401475486389741 0 0.18867739712783732 1 I I -0.70710678118654746 0.70710678118654746 0.25 forward I I I I #
loop $-1 $-1 $199 $56 #
coedge $-1 $124 $124 $200 $201 reversed $78 $-1 #
face $-1 $-1 $202 $44 $-1 $203 forward single #
loop $-1 $204 $205 $80 #
cone-surface $-1 -47.00806448192111 -18.991711397135255 6.2325594962969042 0.75470958851134928 0 -0.65605901945558964 0.16401475486389741 0 0.18867739712783732 1 I I -0.70710678118654746 0.70710678118654746 0.25 forward I I I I #
loop $-1 $-1 $206 $57 #
coedge $-1 $129 $129 $207 $208 reversed $81 $-1 #
face $-1 $-1 $209 $45 $-1 $210 forward single #
loop $-1 $211 $212 $83 #
cone-surface $-1 -47.00806448192111 -15.383254600607291 6.2325594962969042 0.75470958851134928 0 -0.65605901945558964 0.16401475486389741 0 0.18867739712783732 1 I I -0.70710678118654746 0.70710678118654746 0.25 forward I I I I #
loop $-1 $-1 $213 $58 #
coedge $-1 $134 $134 $214 $215 reversed $84 $-1 #
face $-1 $216 $217 $46 $-1 $218 forward single #
loop $-1 $-1 $219 $86 #
plane-surface $-1 -51.661732840968043 18.991711397135255 2.784442687839956 -0.75470958851134928 0 0.65605901945558964 0.65605901945558964 0 0.75470958851134928 forward_v I I I I #
coedge $-1 $220 $221 $222 $223 reversed $87 $-1 #
face $-1 $-1 $224 $47 $-1 $225 forward single #
loop $-1 $226 $227 $89 #
cone-surface $-1 -47.00806448192111 15.383254600607295 6.2325594962969042 0.75470958851134928 0 -0.65605901945558964 0.16401475486389741 0 0.18867739712783732 1 I I -0.70710678118654746 0.70710678118654746 0.25 forward I I I I #
loop $-1 $-1 $228 $60 #
coedge $-1 $143 $143 $229 $230 reversed $90 $-1 #
face $-1 $-1 $231 $48 $-1 $232 forward single #
loop $-1 $233 $234 $92 #
cone-surface $-1 -47.00806448192111 18.991711397135255 6.2325594962969042 0.75470958851134928 0 -0.65605901945558964 0.16401475486389741 0 0.18867739712783732 1 I I -0.70710678118654746 0.70710678118654746 0.25 forward I I I I #
loop $-1 $-1 $235 $61 #
coedge $-1 $148 $148 $236 $237 reversed $93 $-1 #
face $-1 $-1 $238 $49 $-1 $239 forward single #
loop $-1 $240 $241 $95 #
cone-surface $-1 -47.00806448192111 22.600168193663222 6.2325594962969042 0.75470958851134928 0 -0.65605901945558964 0.16401475486389741 0 0.18867739712783732 1 I I -0.70710678118654746 0.70710678118654746 0.25 forward I I I I #
loop $-1 $-1 $242 $62 #
coedge $-1 $153 $153 $243 $244 reversed $96 $-1 #
face $-1 $245 $246 $50 $-1 $247 reversed single #
loop $-1 $-1 $248 $98 #
plane-surface $-1 -1.5537846696122983 -0.27992136527946343 91.468783193416542 0.85716730853699208 0 0.51503806187062418 0.51503806187062418 0 -0.85716730853699208 forward_v I I I I #
coedge $-1 $249 $250 $251 $252 reversed $99 $-1 #
face $-1 $-1 $253 $51 $-1 $254 forward single #
loop $-1 $255 $256 $101 #
cone-surface $-1 45.59113864943582 -0.27992136527945632 4.983980536572286 -0.85716730853699208 0 -0.51503806187062418 0.3862785464029681 0 -0.64287548140274409 1 I I -0.70710678118654757 0.70710678118654757 0.75 forward I I I I #
loop $-1 $-1 $257 $64 #
coedge $-1 $162 $162 $258 $259 reversed $102 $-1 #
face $-1 $260 $261 $39 $-1 $262 reversed single #
loop $-1 $-1 $263 $104 #
plane-surface $-1 0 -33.709804911226826 0 0 1 0 0 0 1 forward_v I I I I #
coedge $-1 $264 $265 $266 $267 forward $105 $-1 #
coedge $-1 $268 $107 $269 $270 forward $66 $-1 #
coedge $-1 $107 $268 $271 $272 forward $66 $-1 #
coedge $-1 $273 $274 $107 $170 reversed $275 $-1 #
edge $-1 $276 -33.709804911226826 $277 33.709804911226826 $169 $278 forward 7 unknown #
face $-1 $279 $280 $40 $-1 $281 reversed single #
loop $-1 $-1 $282 $108 #
plane-surface $-1 0 -25.005806058015189 7.9997439335583849 0 -1 0 0 0 -1 forward_v I I I I #
coedge $-1 $283 $284 $285 $286 reversed $109 $-1 #
coedge $-1 $287 $111 $288 $289 forward $69 $-1 #
coedge $-1 $111 $287 $290 $291 reversed $69 $-1 #
coedge $-1 $292 $293 $111 $178 forward $294 $-1 #
edge $-1 $295 10.326903315704685 $296 19.03090216891632 $177 $297 forward 7 unknown #
face $-1 $298 $299 $41 $-1 $300 reversed single #
loop $-1 $-1 $301 $112 #
plane-surface $-1 0 25.005806058015192 7.9997439335583849 0 1 0 0 0 1 forward_v I I I I #
coedge $-1 $302 $303 $304 $305 reversed $113 $-1 #
coedge $-1 $306 $115 $307 $308 reversed $72 $-1 #
coedge $-1 $115 $306 $309 $310 forward $72 $-1 #
coedge $-1 $311 $312 $115 $186 forward $299 $-1 #
edge $-1 $313 -19.03090216891632 $314 -10.326903315704687 $185 $315 forward 7 unknown #
face $-1 $316 $317 $42 $-1 $318 reversed single #
loop $-1 $-1 $319 $116 #
plane-surface $-1 0 0 11.320823853392813 0 0 1 1 0 0 forward_v I I I I #
coedge $-1 $320 $321 $322 $323 reversed $117 $-1 #
coedge $-1 $192 $119 $324 $325 reversed $75 $-1 #
coedge $-1 $119 $191 $320 $326 reversed $75 $-1 #
coedge $-1 $322 $327 $119 $194 forward $317 $-1 #
edge $-1 $328 23.964543281549293 $329 32.50092444710215 $193 $330 forward 7 unknown #
loop $-1 $-1 $200 $120 #
plane-surface $-1 -51.661732840968043 -18.991711397135255 2.784442687839956 -0.75470958851134928 0 0.65605901945558964 0.65605901945558964 0 0.75470958851134928 forward_v I I I I #
loop $-1 $-1 $331 $77 #
coedge $-1 $198 $198 $199 $332 reversed $121 $-1 #
coedge $-1 $199 $199 $198 $332 forward $123 $-1 #
coedge $-1 $200 $200 $124 $201 forward $195 $-1 #
edge $-1 $333 0 $333 6.2831853071796004 $200 $334 forward 7 unknown #
loop $-1 $-1 $207 $125 #
plane-surface $-1 -51.661732840968043 -18.991711397135255 2.784442687839956 -0.75470958851134928 0 0.65605901945558964 0.65605901945558964 0 0.75470958851134928 forward_v I I I I #
loop $-1 $-1 $335 $80 #
coedge $-1 $205 $205 $206 $336 reversed $126 $-1 #
coedge $-1 $206 $206 $205 $336 forward $128 $-1 #
coedge $-1 $207 $207 $129 $208 forward $202 $-1 #
edge $-1 $337 0 $337 6.2831853071796004 $207 $338 forward 7 unknown #
loop $-1 $-1 $214 $130 #
plane-surface $-1 -51.661732840968043 -18.991711397135255 2.784442687839956 -0.75470958851134928 0 0.65605901945558964 0.65605901945558964 0 0.75470958851134928 forward_v I I I I #
loop $-1 $-1 $339 $83 #
coedge $-1 $212 $212 $213 $340 reversed $131 $-1 #
coedge $-1 $213 $213 $212 $340 forward $133 $-1 #
coedge $-1 $214 $214 $134 $215 forward $209 $-1 #
edge $-1 $341 0 $341 6.2831853071796004 $214 $342 forward 7 unknown #
face $-1 $343 $344 $46 $-1 $345 forward single #
loop $-1 $-1 $222 $135 #
plane-surface $-1 0 0 11.320823853392813 0 0 1 1 0 0 forward_v I I I I #
coedge $-1 $346 $347 $348 $349 reversed $136 $-1 #
coedge $-1 $221 $138 $350 $351 reversed $87 $-1 #
coedge $-1 $138 $220 $346 $352 reversed $87 $-1 #
coedge $-1 $348 $353 $138 $223 forward $217 $-1 #
edge $-1 $354 13.158738713706228 $355 20.579301460521727 $222 $356 forward 7 unknown #
loop $-1 $-1 $229 $139 #
plane-surface $-1 -51.661732840968043 18.991711397135255 2.784442687839956 -0.75470958851134928 0 0.65605901945558964 0.65605901945558964 0 0.75470958851134928 forward_v I I I I #
loop $-1 $-1 $357 $89 #
coedge $-1 $227 $227 $228 $358 reversed $140 $-1 #
coedge $-1 $228 $228 $227 $358 forward $142 $-1 #
coedge $-1 $229 $229 $143 $230 forward $224 $-1 #
edge $-1 $359 0 $359 6.2831853071796004 $229 $360 forward 7 unknown #
loop $-1 $-1 $236 $144 #
plane-surface $-1 -51.661732840968043 18.991711397135255 2.784442687839956 -0.75470958851134928 0 0.65605901945558964 0.65605901945558964 0 0.75470958851134928 forward_v I I I I #
loop $-1 $-1 $361 $92 #
coedge $-1 $234 $234 $235 $362 reversed $145 $-1 #
coedge $-1 $235 $235 $234 $362 forward $147 $-1 #
coedge $-1 $236 $236 $148 $237 forward $231 $-1 #
edge $-1 $363 0 $363 6.2831853071796004 $236 $364 forward 7 unknown #
loop $-1 $-1 $243 $149 #
plane-surface $-1 -51.661732840968043 18.991711397135255 2.784442687839956 -0.75470958851134928 0 0.65605901945558964 0.65605901945558964 0 0.75470958851134928 forward_v I I I I #
loop $-1 $-1 $365 $95 #
coedge $-1 $241 $241 $242 $366 reversed $150 $-1 #
coedge $-1 $242 $242 $241 $366 forward $152 $-1 #
coedge $-1 $243 $243 $153 $244 forward $238 $-1 #
edge $-1 $367 0 $367 6.2831853071796004 $243 $368 forward 7 unknown #
face $-1 $369 $370 $50 $-1 $371 reversed single #
loop $-1 $-1 $372 $154 #
plane-surface $-1 87.011712317687127 -3.5606018832688271 144.68430070399685 0 1 0 0.85716730853699208 0 0.51503806187062418 forward_v I I I I #
coedge $-1 $373 $374 $375 $376 reversed $155 $-1 #
coedge $-1 $250 $157 $377 $378 reversed $99 $-1 #
coedge $-1 $157 $249 $373 $379 reversed $99 $-1 #
coedge $-1 $375 $380 $157 $252 forward $381 $-1 #
edge $-1 $382 -8.1558766821244788 $383 -3.0981099749743208 $251 $384 forward 7 unknown #
loop $-1 $-1 $258 $158 #
plane-surface $-1 -1.5537846696122983 -0.27992136527946343 91.468783193416542 0.85716730853699208 0 0.51503806187062418 0.51503806187062418 0 -0.85716730853699208 forward_v I I I I #
loop $-1 $-1 $385 $101 #
coedge $-1 $256 $256 $257 $386 reversed $159 $-1 #
coedge $-1 $257 $257 $256 $386 forward $161 $-1 #
coedge $-1 $258 $258 $162 $259 forward $253 $-1 #
edge $-1 $387 0 $387 6.2831853071796004 $258 $388 forward 7 unknown #
face $-1 $389 $390 $39 $-1 $391 reversed single #
loop $-1 $-1 $392 $163 #
plane-surface $-1 -51.661732840968043 0 0 1 0 0 0 0 -1 forward_v I I I I #
coedge $-1 $393 $271 $394 $395 forward $164 $-1 #
coedge $-1 $396 $166 $393 $397 forward $105 $-1 #
coedge $-1 $166 $396 $398 $399 forward $105 $-1 #
coedge $-1 $274 $273 $166 $267 reversed $275 $-1 #
edge $-1 $400 -33.709804911226826 $401 33.709804911226826 $266 $402 forward 7 unknown #
coedge $-1 $168 $167 $403 $404 forward $66 $-1 #
coedge $-1 $405 $406 $167 $270 reversed $390 $-1 #
edge $-1 $277 -51.661732840968043 $407 51.661732840968043 $269 $408 forward 7 unknown #
coedge $-1 $263 $409 $168 $272 reversed $164 $-1 #
edge $-1 $410 -51.661732840968043 $276 51.661732840968043 $271 $411 forward 7 unknown #
coedge $-1 $266 $169 $409 $412 forward $275 $-1 #
coedge $-1 $169 $266 $405 $413 reversed $275 $-1 #
loop $-1 $-1 $273 $389 #
vertex $-1 $170 $414 #
vertex $-1 $170 $415 #
straight-curve $-1 51.661732840968043 0 11.320823853392813 0 1 0 I I #
face $-1 $416 $417 $40 $-1 $418 reversed single #
loop $-1 $-1 $419 $171 #
plane-surface $-1 -51.661732840968043 0 0 1 0 0 0 0 -1 forward_v I I I I #
coedge $-1 $420 $288 $293 $421 reversed $172 $-1 #
coedge $-1 $422 $174 $423 $424 reversed $109 $-1 #
coedge $-1 $174 $422 $420 $425 forward $109 $-1 #
coedge $-1 $293 $292 $174 $286 forward $294 $-1 #
edge $-1 $426 -19.03090216891632 $427 -10.326903315704685 $285 $428 forward 7 unknown #
coedge $-1 $176 $175 $419 $429 reversed $69 $-1 #
coedge $-1 $282 $430 $175 $289 reversed $172 $-1 #
edge $-1 $295 -51.661732840968043 $431 51.661732840968043 $288 $432 forward 7 unknown #
coedge $-1 $433 $434 $176 $291 forward $417 $-1 #
edge $-1 $296 -51.661732840968043 $435 51.661732840968043 $290 $436 forward 7 unknown #
coedge $-1 $285 $177 $434 $437 forward $294 $-1 #
coedge $-1 $177 $285 $282 $421 forward $294 $-1 #
loop $-1 $-1 $177 $416 #
vertex $-1 $178 $438 #
vertex $-1 $437 $439 #
straight-curve $-1 51.661732840968043 -14.678902742310504 9.4997439335583849 0 -1 0 I I #
face $-1 $440 $441 $41 $-1 $442 reversed single #
loop $-1 $-1 $185 $179 #
plane-surface $-1 51.661732840968043 0 0 -1 0 0 0 0 1 forward_v I I I I #
coedge $-1 $443 $309 $444 $445 reversed $180 $-1 #
coedge $-1 $446 $182 $443 $447 forward $113 $-1 #
coedge $-1 $182 $446 $448 $449 reversed $113 $-1 #
coedge $-1 $312 $311 $182 $305 forward $299 $-1 #
edge $-1 $450 10.326903315704687 $451 19.03090216891632 $304 $452 forward 7 unknown #
coedge $-1 $184 $183 $453 $454 reversed $72 $-1 #
coedge $-1 $455 $456 $183 $308 forward $457 $-1 #
edge $-1 $458 -51.661732840968043 $313 51.661732840968043 $307 $459 forward 7 unknown #
coedge $-1 $301 $460 $184 $310 reversed $180 $-1 #
edge $-1 $461 -51.661732840968043 $314 51.661732840968043 $309 $462 forward 7 unknown #
coedge $-1 $304 $185 $460 $463 forward $299 $-1 #
coedge $-1 $185 $304 $455 $464 reversed $299 $-1 #
vertex $-1 $464 $465 #
vertex $-1 $186 $466 #
straight-curve $-1 51.661732840968043 14.678902742310505 9.4997439335583849 0 -1 0 I I #
face $-1 $-1 $467 $42 $-1 $468 forward single #
loop $-1 $-1 $469 $187 #
plane-surface $-1 -51.661732840968043 0 0 1 0 0 0 0 -1 forward_v I I I I #
coedge $-1 $470 $471 $472 $473 forward $188 $-1 #
coedge $-1 $474 $190 $192 $326 forward $117 $-1 #
coedge $-1 $190 $474 $475 $476 forward $117 $-1 #
coedge $-1 $469 $193 $190 $323 forward $317 $-1 #
edge $-1 $329 3.4817610376876917 $477 15.509950359447561 $322 $478 forward 7 unknown #
coedge $-1 $471 $470 $191 $325 forward $188 $-1 #
edge $-1 $479 -20.579301460521727 $328 -13.158738713706228 $324 $480 forward 7 unknown #
edge $-1 $329 0 $479 11.310815836314886 $192 $481 forward 7 unknown #
coedge $-1 $193 $469 $471 $482 reversed $317 $-1 #
vertex $-1 $482 $483 #
vertex $-1 $194 $484 #
straight-curve $-1 -51.661732840968043 -12.977616736255319 35.285367134942106 0 0 -1 I I #
coedge $-1 $331 $331 $-1 $485 reversed $197 $-1 #
edge $-1 $486 0 $486 6.2831853071796004 $198 $487 forward 7 unknown #
vertex $-1 $201 $488 #
ellipse-curve $-1 -47.95145146756029 -22.600168193663215 7.0526332706163872 -0.75470958851134928 0 0.65605901945558964 0.32802950972779482 0 0.37735479425567464 1 I I #
coedge $-1 $335 $335 $-1 $489 reversed $204 $-1 #
edge $-1 $490 0 $490 6.2831853071796004 $205 $491 forward 7 unknown #
vertex $-1 $208 $492 #
ellipse-curve $-1 -47.95145146756029 -18.991711397135255 7.0526332706163872 -0.75470958851134928 0 0.65605901945558964 0.32802950972779482 0 0.37735479425567464 1 I I #
coedge $-1 $339 $339 $-1 $493 reversed $211 $-1 #
edge $-1 $494 0 $494 6.2831853071796004 $212 $495 forward 7 unknown #
vertex $-1 $215 $496 #
ellipse-curve $-1 -47.95145146756029 -15.383254600607291 7.0526332706163872 -0.75470958851134928 0 0.65605901945558964 0.32802950972779482 0 0.37735479425567464 1 I I #
face $-1 $-1 $497 $46 $-1 $498 reversed single #
loop $-1 $-1 $499 $216 #
plane-surface $-1 0 25.005806058015192 7.9997439335583849 0 1 0 0 0 1 forward_v I I I I #
coedge $-1 $500 $219 $221 $352 forward $136 $-1 #
coedge $-1 $219 $500 $499 $501 forward $136 $-1 #
coedge $-1 $502 $222 $219 $349 forward $217 $-1 #
edge $-1 $355 3.4817610376876917 $503 15.509950359447561 $348 $504 forward 7 unknown #
coedge $-1 $505 $506 $220 $351 forward $497 $-1 #
edge $-1 $507 -32.50092444710215 $354 -23.964543281549293 $350 $508 forward 7 unknown #
edge $-1 $355 -11.310815836314886 $507 0 $221 $509 forward 7 unknown #
coedge $-1 $222 $502 $505 $510 forward $217 $-1 #
vertex $-1 $223 $511 #
vertex $-1 $223 $512 #
straight-curve $-1 -64.82047155467427 12.977616736255319 11.320823853392813 1 0 0 I I #
coedge $-1 $357 $357 $-1 $513 reversed $226 $-1 #
edge $-1 $514 0 $514 6.2831853071796004 $227 $515 forward 7 unknown #
vertex $-1 $230 $516 #
ellipse-curve $-1 -47.95145146756029 15.383254600607295 7.0526332706163872 -0.75470958851134928 0 0.65605901945558964 0.32802950972779482 0 0.37735479425567464 1 I I #
coedge $-1 $361 $361 $-1 $517 reversed $233 $-1 #
edge $-1 $518 0 $518 6.2831853071796004 $234 $519 forward 7 unknown #
vertex $-1 $237 $520 #
ellipse-curve $-1 -47.95145146756029 18.991711397135255 7.0526332706163872 -0.75470958851134928 0 0.65605901945558964 0.32802950972779482 0 0.37735479425567464 1 I I #
coedge $-1 $365 $365 $-1 $521 reversed $240 $-1 #
edge $-1 $522 0 $522 6.2831853071796004 $241 $523 forward 7 unknown #
vertex $-1 $244 $524 #
ellipse-curve $-1 -47.95145146756029 22.600168193663222 7.0526332706163872 -0.75470958851134928 0 0.65605901945558964 0.32802950972779482 0 0.37735479425567464 1 I I #
face $-1 $-1 $381 $50 $-1 $525 forward single #
loop $-1 $-1 $526 $245 #
plane-surface $-1 51.661732840968043 0 0 -1 0 0 0 0 1 forward_v I I I I #
coedge $-1 $527 $528 $529 $530 reversed $246 $-1 #
coedge $-1 $531 $248 $250 $379 forward $155 $-1 #
coedge $-1 $248 $531 $527 $532 forward $155 $-1 #
coedge $-1 $529 $251 $248 $376 forward $381 $-1 #
edge $-1 $383 -3.1407198353496319 $533 3.4206412006290954 $375 $534 forward 7 unknown #
coedge $-1 $535 $536 $249 $378 forward $370 $-1 #
edge $-1 $537 -69.438864145881354 $382 -61.021326498605617 $377 $538 forward 7 unknown #
edge $-1 $383 93.503285230067618 $537 103.32346568193617 $250 $539 forward 7 unknown #
coedge $-1 $251 $529 $535 $540 forward $381 $-1 #
loop $-1 $-1 $529 $369 #
vertex $-1 $378 $541 #
vertex $-1 $252 $542 #
straight-curve $-1 43.505856158843564 3.0007591527099002 11.32082385339281 -1 0 0 I I #
coedge $-1 $385 $385 $-1 $543 reversed $255 $-1 #
edge $-1 $544 0 $544 6.2831853071796004 $256 $545 forward 7 unknown #
vertex $-1 $259 $546 #
ellipse-curve $-1 49.132849487392946 -0.27992136527945632 7.1120550297549681 0.85716730853699208 0 0.51503806187062418 0.77255709280593621 0 -1.2857509628054882 1 I I #
face $-1 $-1 $275 $39 $-1 $547 reversed single #
loop $-1 $-1 $405 $260 #
plane-surface $-1 0 33.709804911226826 0 0 -1 0 0 0 -1 forward_v I I I I #
coedge $-1 $548 $403 $406 $549 forward $261 $-1 #
coedge $-1 $409 $263 $264 $397 reversed $164 $-1 #
coedge $-1 $403 $548 $263 $395 reversed $261 $-1 #
edge $-1 $410 -11.320823853392813 $550 11.320823853392813 $394 $551 forward 7 unknown #
coedge $-1 $265 $264 $548 $552 forward $105 $-1 #
edge $-1 $401 -51.661732840968043 $550 51.661732840968043 $393 $553 forward 7 unknown #
coedge $-1 $406 $405 $265 $399 reversed $390 $-1 #
edge $-1 $554 -51.661732840968043 $400 51.661732840968043 $398 $555 forward 7 unknown #
vertex $-1 $267 $556 #
vertex $-1 $412 $557 #
straight-curve $-1 51.661732840968043 0 -11.320823853392813 0 -1 0 I I #
coedge $-1 $392 $394 $268 $404 reversed $261 $-1 #
edge $-1 $407 -33.709804911226826 $410 33.709804911226826 $403 $558 forward 7 unknown #
coedge $-1 $398 $269 $274 $413 forward $390 $-1 #
coedge $-1 $269 $398 $392 $549 reversed $390 $-1 #
vertex $-1 $270 $559 #
straight-curve $-1 0 33.709804911226826 11.320823853392813 -1 0 0 I I #
coedge $-1 $271 $393 $273 $412 reversed $164 $-1 #
vertex $-1 $404 $560 #
straight-curve $-1 0 -33.709804911226826 11.320823853392813 1 0 0 I I #
edge $-1 $276 -11.320823853392813 $401 11.320823853392813 $273 $561 forward 7 unknown #
edge $-1 $277 -11.320823853392813 $400 11.320823853392813 $274 $562 forward 7 unknown #
point $-1 51.661732840968043 -33.709804911226826 11.320823853392813 #
point $-1 51.661732840968043 33.709804911226826 11.320823853392813 #
face $-1 $-1 $294 $40 $-1 $563 reversed single #
loop $-1 $-1 $290 $279 #
plane-surface $-1 0 -33.709804911226826 0 0 1 0 0 0 1 forward_v I I I I #
coedge $-1 $564 $565 $287 $429 forward $280 $-1 #
coedge $-1 $430 $282 $284 $425 reversed $172 $-1 #
edge $-1 $427 2.4998719667791924 $295 5.4998719667791924 $293 $566 forward 7 unknown #
coedge $-1 $284 $283 $567 $568 reversed $109 $-1 #
coedge $-1 $434 $433 $283 $424 forward $417 $-1 #
edge $-1 $569 -51.661732840968043 $426 51.661732840968043 $423 $570 forward 7 unknown #
edge $-1 $571 -51.661732840968043 $427 51.661732840968043 $420 $572 forward 7 unknown #
vertex $-1 $424 $573 #
vertex $-1 $286 $574 #
straight-curve $-1 51.661732840968043 -14.678902742310504 6.4997439335583849 0 1 0 I I #
edge $-1 $435 -19.03090216891632 $431 -10.326903315704685 $419 $575 forward 7 unknown #
coedge $-1 $288 $420 $564 $576 reversed $172 $-1 #
vertex $-1 $429 $577 #
straight-curve $-1 0 -25.005806058015189 9.4997439335583849 -1 0 0 I I #
coedge $-1 $423 $290 $565 $578 forward $417 $-1 #
coedge $-1 $290 $423 $292 $437 reversed $417 $-1 #
vertex $-1 $578 $579 #
straight-curve $-1 0 -33.709804911226826 9.4997439335583849 -1 0 0 I I #
edge $-1 $296 -9.4997439335583849 $426 -6.4997439335583849 $292 $580 forward 7 unknown #
point $-1 51.661732840968043 -25.005806058015189 9.4997439335583849 #
point $-1 51.661732840968043 -33.709804911226826 9.4997439335583849 #
face $-1 $-1 $457 $41 $-1 $581 reversed single #
loop $-1 $-1 $453 $298 #
plane-surface $-1 -51.661732840968043 0 0 1 0 0 0 0 -1 forward_v I I I I #
coedge $-1 $460 $301 $302 $447 reversed $180 $-1 #
coedge $-1 $453 $582 $301 $445 forward $441 $-1 #
edge $-1 $583 2.4998719667791924 $461 5.4998719667791924 $444 $584 forward 7 unknown #
coedge $-1 $303 $302 $582 $585 reversed $113 $-1 #
edge $-1 $450 -51.661732840968043 $583 51.661732840968043 $443 $586 forward 7 unknown #
coedge $-1 $456 $455 $303 $449 forward $457 $-1 #
edge $-1 $451 -51.661732840968043 $587 51.661732840968043 $448 $588 forward 7 unknown #
vertex $-1 $305 $589 #
vertex $-1 $449 $590 #
straight-curve $-1 51.661732840968043 14.678902742310505 6.4997439335583849 0 1 0 I I #
coedge $-1 $591 $444 $306 $454 forward $441 $-1 #
edge $-1 $461 10.326903315704687 $458 19.03090216891632 $453 $592 forward 7 unknown #
coedge $-1 $448 $307 $312 $464 forward $457 $-1 #
coedge $-1 $307 $448 $591 $593 reversed $457 $-1 #
loop $-1 $-1 $307 $440 #
vertex $-1 $593 $594 #
straight-curve $-1 0 33.709804911226826 9.4997439335583849 1 0 0 I I #
coedge $-1 $309 $443 $311 $463 reversed $180 $-1 #
vertex $-1 $454 $595 #
straight-curve $-1 0 25.005806058015192 9.4997439335583849 1 0 0 I I #
edge $-1 $314 -5.4998719667791924 $450 -2.4998719667791924 $311 $596 forward 7 unknown #
edge $-1 $313 -9.4997439335583849 $451 -6.4997439335583849 $312 $597 forward 7 unknown #
point $-1 51.661732840968043 33.709804911226826 9.4997439335583849 #
point $-1 51.661732840968043 25.005806058015192 9.4997439335583849 #
loop $-1 $-1 $475 $316 #
plane-surface $-1 0 -25.005806058015189 7.9997439335583849 0 -1 0 0 0 -1 forward_v I I I I #
coedge $-1 $327 $322 $598 $599 forward $317 $-1 #
coedge $-1 $324 $319 $474 $600 forward $188 $-1 #
coedge $-1 $319 $324 $327 $482 forward $188 $-1 #
coedge $-1 $598 $475 $319 $473 reversed $467 $-1 #
edge $-1 $601 13.158738713706228 $602 20.579301460521727 $319 $603 forward 7 unknown #
coedge $-1 $321 $320 $470 $600 reversed $117 $-1 #
coedge $-1 $472 $598 $321 $476 reversed $467 $-1 #
edge $-1 $602 -11.310815836314886 $477 0 $475 $604 forward 7 unknown #
vertex $-1 $323 $605 #
straight-curve $-1 -51.661732840968043 -9.4958556985676275 2.7844426878399529 0 -1 0 I I #
vertex $-1 $325 $606 #
straight-curve $-1 -64.82047155467427 -12.977616736255319 11.320823853392813 -1 0 0 I I #
straight-curve $-1 -51.661732840968043 -12.977616736255319 2.784442687839956 0.65605901945558964 0 0.75470958851134928 I I #
edge $-1 $328 12.977616736255319 $601 25.005806058015189 $327 $607 forward 7 unknown #
point $-1 -51.661732840968043 -12.977616736255319 11.320823853392813 #
point $-1 -51.661732840968043 -12.977616736255319 2.784442687839956 #
edge $-1 $608 1 $608 0 $331 $-1 forward 7 unknown #
vertex $-1 $332 $609 #
ellipse-curve $-1 -47.19674187904895 -22.600168193663215 6.3965742511608017 -0.75470958851134928 0 0.65605901945558964 0.32802950972779482 0 0.37735479425567464 1 I I #
point $-1 -47.623421957832505 -22.600168193663215 7.4299880648720658 #
edge $-1 $610 1 $610 0 $335 $-1 forward 7 unknown #
vertex $-1 $336 $611 #
ellipse-curve $-1 -47.19674187904895 -18.991711397135255 6.3965742511608017 -0.75470958851134928 0 0.65605901945558964 0.32802950972779482 0 0.37735479425567464 1 I I #
point $-1 -47.623421957832505 -18.991711397135255 7.4299880648720658 #
edge $-1 $612 1 $612 0 $339 $-1 forward 7 unknown #
vertex $-1 $340 $613 #
ellipse-curve $-1 -47.19674187904895 -15.383254600607291 6.3965742511608017 -0.75470958851134928 0 0.65605901945558964 0.32802950972779482 0 0.37735479425567464 1 I I #
point $-1 -47.623421957832505 -15.383254600607291 7.4299880648720658 #
loop $-1 $-1 $350 $343 #
plane-surface $-1 -51.661732840968043 0 0 1 0 0 0 0 -1 forward_v I I I I #
coedge $-1 $614 $615 $347 $501 reversed $344 $-1 #
coedge $-1 $347 $346 $506 $616 reversed $136 $-1 #
edge $-1 $617 0 $503 11.310815836314886 $499 $618 forward 7 unknown #
coedge $-1 $353 $348 $615 $619 forward $217 $-1 #
vertex $-1 $619 $620 #
straight-curve $-1 -44.241170094152544 9.4958556985676275 11.320823853392813 0 1 0 I I #
coedge $-1 $621 $350 $353 $510 reversed $497 $-1 #
coedge $-1 $350 $621 $500 $616 forward $497 $-1 #
vertex $-1 $351 $622 #
straight-curve $-1 -51.661732840968043 12.977616736255319 35.285367134942106 0 0 1 I I #
straight-curve $-1 -51.661732840968043 12.977616736255319 2.784442687839956 -0.65605901945558964 0 -0.75470958851134928 I I #
edge $-1 $623 -25.005806058015189 $354 -12.977616736255319 $505 $624 forward 7 unknown #
point $-1 -51.661732840968043 12.977616736255319 11.320823853392813 #
point $-1 -44.241170094152544 12.977616736255319 11.320823853392813 #
edge $-1 $625 1 $625 0 $357 $-1 forward 7 unknown #
vertex $-1 $358 $626 #
ellipse-curve $-1 -47.19674187904895 15.383254600607295 6.3965742511608017 -0.75470958851134928 0 0.65605901945558964 0.32802950972779482 0 0.37735479425567464 1 I I #
point $-1 -47.623421957832505 15.383254600607295 7.4299880648720658 #
edge $-1 $627 1 $627 0 $361 $-1 forward 7 unknown #
vertex $-1 $362 $628 #
ellipse-curve $-1 -47.19674187904895 18.991711397135255 6.3965742511608017 -0.75470958851134928 0 0.65605901945558964 0.32802950972779482 0 0.37735479425567464 1 I I #
point $-1 -47.623421957832505 18.991711397135255 7.4299880648720658 #
edge $-1 $629 1 $629 0 $365 $-1 forward 7 unknown #
vertex $-1 $366 $630 #
ellipse-curve $-1 -47.19674187904895 22.600168193663222 6.3965742511608017 -0.75470958851134928 0 0.65605901945558964 0.32802950972779482 0 0.37735479425567464 1 I I #
point $-1 -47.623421957832505 22.600168193663222 7.4299880648720658 #
plane-surface $-1 0 0 11.320823853392813 0 0 1 1 0 0 forward_v I I I I #
coedge $-1 $536 $535 $528 $631 forward $370 $-1 #
coedge $-1 $528 $372 $374 $532 reversed $246 $-1 #
coedge $-1 $372 $527 $526 $631 reversed $246 $-1 #
coedge $-1 $380 $375 $372 $530 forward $381 $-1 #
edge $-1 $533 3.0981099749743208 $632 8.1558766821244788 $529 $633 forward 7 unknown #
coedge $-1 $374 $373 $536 $634 reversed $155 $-1 #
edge $-1 $635 -103.32346568193617 $533 -93.503285230067618 $527 $636 forward 7 unknown #
vertex $-1 $376 $637 #
straight-curve $-1 46.603966133817877 -0.13996068263973171 11.32082385339281 0 -1 0 I I #
coedge $-1 $526 $377 $380 $540 reversed $370 $-1 #
coedge $-1 $377 $526 $531 $634 forward $370 $-1 #
vertex $-1 $378 $638 #
straight-curve $-1 51.661732840968043 3.0007591527099002 72.342150351998427 0 0 1 I I #
straight-curve $-1 -1.5537846696122983 3.0007591527099002 91.468783193416542 0.51503806187062418 0 -0.85716730853699208 I I #
edge $-1 $632 -3.5606018832688271 $382 3.0007591527099002 $535 $639 forward 7 unknown #
point $-1 51.661732840968043 3.0007591527099002 11.320823853392813 #
point $-1 46.603966133817885 3.0007591527099002 11.32082385339281 #
edge $-1 $640 1 $640 0 $385 $-1 forward 7 unknown #
vertex $-1 $386 $641 #
ellipse-curve $-1 46.234014130838567 -0.27992136527945632 5.3702590829752541 0.85716730853699208 0 0.51503806187062418 0.77255709280593621 0 -1.2857509628054882 1 I I #
point $-1 49.905406580198907 -0.27992136527945632 5.8263040669494934 #
plane-surface $-1 51.661732840968043 0 0 -1 0 0 0 0 1 forward_v I I I I #
coedge $-1 $394 $392 $396 $552 reversed $261 $-1 #
edge $-1 $407 -11.320823853392813 $554 11.320823853392813 $406 $642 forward 7 unknown #
vertex $-1 $552 $643 #
straight-curve $-1 -51.661732840968043 -33.709804911226826 0 0 0 -1 I I #
edge $-1 $550 -33.709804911226826 $554 33.709804911226826 $548 $644 forward 7 unknown #
straight-curve $-1 0 -33.709804911226826 -11.320823853392813 -1 0 0 I I #
vertex $-1 $399 $645 #
straight-curve $-1 0 33.709804911226826 -11.320823853392813 1 0 0 I I #
point $-1 51.661732840968043 33.709804911226826 -11.320823853392813 #
point $-1 51.661732840968043 -33.709804911226826 -11.320823853392813 #
straight-curve $-1 -51.661732840968043 0 11.320823853392813 0 -1 0 I I #
point $-1 -51.661732840968043 33.709804911226826 11.320823853392813 #
point $-1 -51.661732840968043 -33.709804911226826 11.320823853392813 #
straight-curve $-1 51.661732840968043 -33.709804911226826 0 0 0 -1 I I #
straight-curve $-1 51.661732840968043 33.709804911226826 0 0 0 -1 I I #
plane-surface $-1 51.661732840968043 0 0 -1 0 0 0 0 1 forward_v I I I I #
coedge $-1 $567 $419 $430 $576 forward $280 $-1 #
coedge $-1 $419 $567 $433 $578 reversed $280 $-1 #
straight-curve $-1 51.661732840968043 -25.005806058015189 3.9998719667791924 0 0 1 I I #
coedge $-1 $565 $564 $422 $568 forward $280 $-1 #
edge $-1 $571 10.326903315704685 $569 19.03090216891632 $567 $646 forward 7 unknown #
vertex $-1 $424 $647 #
straight-curve $-1 0 -33.709804911226826 6.4997439335583849 1 0 0 I I #
vertex $-1 $568 $648 #
straight-curve $-1 0 -25.005806058015189 6.4997439335583849 1 0 0 I I #
point $-1 51.661732840968043 -33.709804911226826 6.4997439335583849 #
point $-1 51.661732840968043 -25.005806058015189 6.4997439335583849 #
straight-curve $-1 -51.661732840968043 -14.678902742310504 9.4997439335583849 0 1 0 I I #
edge $-1 $431 -5.4998719667791924 $571 -2.4998719667791924 $564 $649 forward 7 unknown #
point $-1 -51.661732840968043 -25.005806058015189 9.4997439335583849 #
edge $-1 $435 -9.4997439335583849 $569 -6.4997439335583849 $565 $650 forward 7 unknown #
point $-1 -51.661732840968043 -33.709804911226826 9.4997439335583849 #
straight-curve $-1 51.661732840968043 -33.709804911226826 0 0 0 -1 I I #
plane-surface $-1 0 33.709804911226826 0 0 -1 0 0 0 -1 forward_v I I I I #
coedge $-1 $444 $591 $446 $585 forward $441 $-1 #
vertex $-1 $585 $651 #
straight-curve $-1 -51.661732840968043 25.005806058015192 3.9998719667791924 0 0 1 I I #
edge $-1 $587 -19.03090216891632 $583 -10.326903315704687 $582 $652 forward 7 unknown #
straight-curve $-1 0 25.005806058015192 6.4997439335583849 -1 0 0 I I #
vertex $-1 $449 $653 #
straight-curve $-1 0 33.709804911226826 6.4997439335583849 -1 0 0 I I #
point $-1 51.661732840968043 25.005806058015192 6.4997439335583849 #
point $-1 51.661732840968043 33.709804911226826 6.4997439335583849 #
coedge $-1 $582 $453 $456 $593 forward $441 $-1 #
straight-curve $-1 -51.661732840968043 14.678902742310505 9.4997439335583849 0 1 0 I I #
edge $-1 $458 -9.4997439335583849 $587 -6.4997439335583849 $456 $654 forward 7 unknown #
point $-1 -51.661732840968043 33.709804911226826 9.4997439335583849 #
point $-1 -51.661732840968043 25.005806058015192 9.4997439335583849 #
straight-curve $-1 51.661732840968043 25.005806058015192 3.9998719667791924 0 0 -1 I I #
straight-curve $-1 51.661732840968043 33.709804911226826 0 0 0 -1 I I #
coedge $-1 $475 $472 $469 $599 reversed $467 $-1 #
edge $-1 $477 -32.50092444710215 $601 -23.964543281549293 $469 $655 forward 7 unknown #
edge $-1 $602 -15.509950359447561 $479 -3.4817610376876917 $470 $656 forward 7 unknown #
vertex $-1 $473 $657 #
vertex $-1 $473 $658 #
straight-curve $-1 -64.82047155467427 -25.005806058015189 11.320823853392813 1 0 0 I I #
straight-curve $-1 -51.661732840968043 -25.005806058015189 2.784442687839956 -0.65605901945558964 0 -0.75470958851134928 I I #
point $-1 -51.661732840968043 -25.005806058015189 2.784442687839956 #
point $-1 -44.241170094152544 -12.977616736255319 11.320823853392813 #
straight-curve $-1 -51.661732840968043 0 11.320823853392813 0 -1 0 I I #
vertex $-1 $485 $659 #
point $-1 -46.868712369321152 -22.600168193663215 6.7739290454164767 #
vertex $-1 $489 $660 #
point $-1 -46.868712369321152 -18.991711397135255 6.7739290454164767 #
vertex $-1 $493 $661 #
point $-1 -46.868712369321152 -15.383254600607291 6.7739290454164767 #
coedge $-1 $615 $499 $621 $662 reversed $344 $-1 #
coedge $-1 $499 $614 $502 $619 reversed $344 $-1 #
edge $-1 $617 -15.509950359447561 $507 -3.4817610376876917 $506 $663 forward 7 unknown #
vertex $-1 $662 $664 #
straight-curve $-1 -51.661732840968043 25.005806058015189 2.784442687839956 0.65605901945558964 0 0.75470958851134928 I I #
edge $-1 $503 -20.579301460521727 $623 -13.158738713706228 $502 $665 forward 7 unknown #
point $-1 -44.241170094152544 25.005806058015189 11.320823853392813 #
coedge $-1 $506 $505 $614 $662 forward $497 $-1 #
point $-1 -51.661732840968043 12.977616736255319 2.784442687839956 #
vertex $-1 $510 $666 #
straight-curve $-1 -51.661732840968043 0 11.320823853392813 0 -1 0 I I #
vertex $-1 $513 $667 #
point $-1 -46.868712369321152 15.383254600607295 6.7739290454164767 #
vertex $-1 $517 $668 #
point $-1 -46.868712369321152 18.991711397135255 6.7739290454164767 #
vertex $-1 $521 $669 #
point $-1 -46.868712369321152 22.600168193663222 6.7739290454164767 #
edge $-1 $632 61.021326498605617 $635 69.438864145881354 $526 $670 forward 7 unknown #
vertex $-1 $540 $671 #
straight-curve $-1 43.505856158843564 -3.5606018832688271 11.32082385339281 1 0 0 I I #
edge $-1 $635 -3.4206412006290954 $537 3.1407198353496319 $536 $672 forward 7 unknown #
vertex $-1 $634 $673 #
straight-curve $-1 -1.5537846696122983 -3.5606018832688271 91.468783193416542 -0.51503806187062418 0 0.85716730853699208 I I #
point $-1 46.603966133817885 -3.5606018832688271 11.32082385339281 #
point $-1 51.66173284096805 3.0007591527099002 2.9032862061170732 #
straight-curve $-1 51.661732840968043 0 11.320823853392813 0 1 0 I I #
vertex $-1 $543 $674 #
point $-1 47.006571223644499 -0.27992136527945632 4.0845081201697662 #
straight-curve $-1 -51.661732840968043 33.709804911226826 0 0 0 -1 I I #
point $-1 -51.661732840968043 -33.709804911226826 -11.320823853392813 #
straight-curve $-1 -51.661732840968043 0 -11.320823853392813 0 1 0 I I #
point $-1 -51.661732840968043 33.709804911226826 -11.320823853392813 #
straight-curve $-1 -51.661732840968043 -14.678902742310504 6.4997439335583849 0 -1 0 I I #
point $-1 -51.661732840968043 -33.709804911226826 6.4997439335583849 #
point $-1 -51.661732840968043 -25.005806058015189 6.4997439335583849 #
straight-curve $-1 -51.661732840968043 -25.005806058015189 3.9998719667791924 0 0 -1 I I #
straight-curve $-1 -51.661732840968043 -33.709804911226826 0 0 0 -1 I I #
point $-1 -51.661732840968043 25.005806058015192 6.4997439335583849 #
straight-curve $-1 -51.661732840968043 14.678902742310505 6.4997439335583849 0 -1 0 I I #
point $-1 -51.661732840968043 33.709804911226826 6.4997439335583849 #
straight-curve $-1 -51.661732840968043 33.709804911226826 0 0 0 -1 I I #
straight-curve $-1 -51.661732840968043 -25.005806058015189 35.285367134942106 0 0 1 I I #
straight-curve $-1 -44.241170094152544 -9.4958556985676275 11.320823853392813 0 1 0 I I #
point $-1 -51.661732840968043 -25.005806058015189 11.320823853392813 #
point $-1 -44.241170094152544 -25.005806058015189 11.320823853392813 #
point $-1 -46.81938708479327 -22.600168193663215 6.0685447414330067 #
point $-1 -46.81938708479327 -18.991711397135255 6.0685447414330067 #
point $-1 -46.81938708479327 -15.383254600607291 6.0685447414330067 #
edge $-1 $623 23.964543281549293 $617 32.50092444710215 $621 $675 forward 7 unknown #
straight-curve $-1 -51.661732840968043 9.4958556985676275 2.7844426878399529 0 -1 0 I I #
point $-1 -51.661732840968043 25.005806058015189 2.784442687839956 #
straight-curve $-1 -64.82047155467427 25.005806058015189 11.320823853392813 -1 0 0 I I #
point $-1 -51.661732840968043 25.005806058015189 11.320823853392813 #
point $-1 -46.81938708479327 15.383254600607295 6.0685447414330067 #
point $-1 -46.81938708479327 18.991711397135255 6.0685447414330067 #
point $-1 -46.81938708479327 22.600168193663222 6.0685447414330067 #
straight-curve $-1 51.661732840968043 -3.5606018832688271 72.342150351998427 0 0 -1 I I #
point $-1 51.661732840968043 -3.5606018832688271 11.320823853392813 #
straight-curve $-1 51.661732840968043 -0.13996068263973171 2.9032862061170661 0 1 0 I I #
point $-1 51.66173284096805 -3.5606018832688271 2.9032862061170732 #
point $-1 44.948263168033073 -0.27992136527945632 4.5977019901693179 #
straight-curve $-1 -51.661732840968043 25.005806058015189 35.285367134942106 0 0 -1 I I #
End-of-ACIS-data 