500 0 4 0           
7 Unknown 11 ACIS 5.0 NT 24 Fri Mar 26 02:40:31 1999 
-1 9.9999999999999995e-007 1e-010 
body $-1 $4 $-1 $5 #
body $-1 $6 $-1 $7 #
body $-1 $8 $-1 $9 #
body $-1 $10 $-1 $11 #
lump $-1 $-1 $12 $0 #
transform $-1 1 0 0 0 1 0 0 0 1 68.598284859767446 35.89168112103107 8.1776337090756446 1 rotate no_reflect no_shear #
lump $-1 $-1 $13 $1 #
transform $-1 1 0 0 0 1 0 0 0 1 68.598284859767446 35.89168112103107 8.1776337090756446 1 rotate no_reflect no_shear #
lump $-1 $-1 $14 $2 #
transform $-1 1 0 0 0 1 0 0 0 1 68.598284859767446 35.89168112103107 8.1776337090756446 1 rotate no_reflect no_shear #
lump $-1 $-1 $15 $3 #
transform $-1 1 0 0 0 1 0 0 0 1 68.598284859767446 35.89168112103107 8.1776337090756446 1 rotate no_reflect no_shear #
shell $-1 $-1 $-1 $16 $-1 $4 #
shell $-1 $-1 $-1 $17 $-1 $6 #
shell $-1 $-1 $-1 $18 $-1 $8 #
shell $-1 $-1 $-1 $19 $-1 $10 #
face $-1 $20 $21 $12 $-1 $22 forward single #
face $-1 $23 $24 $13 $-1 $25 forward single #
face $-1 $26 $27 $14 $-1 $28 forward single #
face $-1 $29 $30 $15 $-1 $31 reversed single #
face $-1 $32 $33 $12 $-1 $34 reversed single #
loop $-1 $-1 $35 $16 #
plane-surface $-1 0 0 8.1776337090756446 0 0 1 1 0 0 forward_v I I I I #
face $-1 $36 $37 $13 $-1 $38 forward single #
loop $-1 $-1 $39 $17 #
plane-surface $-1 0 -31.922774776097409 5.1776337090756446 0 0 1 1 0 0 forward_v I I I I #
face $-1 $40 $41 $14 $-1 $42 forward single #
loop $-1 $-1 $43 $18 #
plane-surface $-1 51.687872111786149 33.183433674782577 196.26769487688657 0 -1 0 -0.64278761758704617 0 -0.76604443648966558 forward_v I I I I #
face $-1 $44 $45 $15 $-1 $46 reversed single #
loop $-1 $47 $48 $19 #
cone-surface $-1 63.897248994978938 26.845154906027062 3.6672175156065512 -0.64278761758704617 0 -0.76604443648966558 1.1490666547344983 0 -0.96418142638056925 1 I I 0 1 1.5 forward I I I I #
face $-1 $49 $50 $12 $-1 $51 reversed single #
loop $-1 $-1 $52 $20 #
plane-surface $-1 0 0 -8.1776337090756446 0 0 1 1 0 0 forward_v I I I I #
coedge $-1 $53 $54 $55 $56 forward $21 $-1 #
face $-1 $57 $58 $13 $-1 $59 forward single #
loop $-1 $-1 $60 $23 #
plane-surface $-1 0 -27.953868431163748 6.6776337090756446 0 -1 0 0 0 -1 forward_v I I I I #
coedge $-1 $61 $62 $63 $64 reversed $24 $-1 #
face $-1 $65 $66 $14 $-1 $67 forward single #
loop $-1 $-1 $68 $26 #
plane-surface $-1 -36.500384079348763 26.845154906027062 91.169025937770343 0.64278761758704617 0 0.76604443648966558 0.76604443648966558 0 -0.64278761758704617 forward_v I I I I #
coedge $-1 $69 $70 $71 $72 reversed $27 $-1 #
face $-1 $73 $74 $15 $-1 $75 forward single #
loop $-1 $76 $77 $29 #
cone-surface $-1 61.810813000870823 26.845154906027062 1.1806999759903416 -0.64278761758704617 0 -0.76604443648966558 0.57453332736724916 0 -0.48209071319028463 1 I I -0.70710678118654757 0.70710678118654757 0.75 forward I I I I #
loop $-1 $-1 $78 $19 #
coedge $-1 $48 $48 $79 $80 reversed $30 $-1 #
face $-1 $81 $82 $12 $-1 $83 reversed single #
loop $-1 $-1 $84 $32 #
plane-surface $-1 0 -35.89168112103107 0 0 1 0 0 0 1 forward_v I I I I #
coedge $-1 $85 $86 $87 $88 forward $33 $-1 #
coedge $-1 $89 $35 $90 $91 forward $21 $-1 #
coedge $-1 $35 $89 $92 $93 forward $21 $-1 #
coedge $-1 $94 $95 $35 $56 reversed $96 $-1 #
edge $-1 $97 -35.89168112103107 $98 35.89168112103107 $55 $99 forward 7 unknown #
face $-1 $100 $101 $13 $-1 $102 reversed single #
loop $-1 $-1 $103 $36 #
plane-surface $-1 0 0 8.1776337090756446 0 0 1 1 0 0 forward_v I I I I #
coedge $-1 $104 $105 $106 $107 reversed $37 $-1 #
coedge $-1 $108 $39 $105 $109 reversed $24 $-1 #
coedge $-1 $39 $108 $110 $111 reversed $24 $-1 #
coedge $-1 $112 $106 $39 $64 forward $101 $-1 #
edge $-1 $113 11.992481043115044 $114 19.930293732982364 $63 $115 forward 7 unknown #
face $-1 $116 $117 $14 $-1 $118 forward single #
loop $-1 $-1 $119 $40 #
plane-surface $-1 51.687872111786149 20.506876137271544 196.26769487688657 0 1 0 0.64278761758704617 0 0.76604443648966558 forward_v I I I I #
coedge $-1 $120 $121 $122 $123 reversed $41 $-1 #
coedge $-1 $70 $43 $121 $124 forward $27 $-1 #
coedge $-1 $43 $69 $125 $126 reversed $27 $-1 #
coedge $-1 $127 $122 $43 $72 forward $117 $-1 #
edge $-1 $128 36.560967636132993 $129 42.754348803874372 $71 $130 forward 7 unknown #
face $-1 $131 $132 $15 $-1 $133 forward single #
loop $-1 $-1 $134 $44 #
plane-surface $-1 51.687872111786149 33.183433674782577 196.26769487688657 0 -1 0 -0.64278761758704617 0 -0.76604443648966558 forward_v I I I I #
loop $-1 $-1 $135 $29 #
coedge $-1 $77 $77 $78 $136 forward $45 $-1 #
coedge $-1 $78 $78 $77 $136 reversed $47 $-1 #
coedge $-1 $79 $79 $48 $80 forward $132 $-1 #
edge $-1 $137 0 $137 6.2831853071796004 $79 $138 forward 7 unknown #
face $-1 $139 $140 $12 $-1 $141 reversed single #
loop $-1 $-1 $142 $49 #
plane-surface $-1 -68.598284859767446 0 0 1 0 0 0 0 -1 forward_v I I I I #
coedge $-1 $143 $92 $144 $145 forward $50 $-1 #
coedge $-1 $146 $52 $143 $147 forward $33 $-1 #
coedge $-1 $52 $146 $148 $149 forward $33 $-1 #
coedge $-1 $95 $94 $52 $88 reversed $96 $-1 #
edge $-1 $150 -35.89168112103107 $151 35.89168112103107 $87 $152 forward 7 unknown #
coedge $-1 $54 $53 $153 $154 forward $21 $-1 #
coedge $-1 $155 $156 $53 $91 reversed $140 $-1 #
edge $-1 $98 -68.598284859767446 $157 68.598284859767446 $90 $158 forward 7 unknown #
coedge $-1 $84 $159 $54 $93 reversed $50 $-1 #
edge $-1 $160 -68.598284859767446 $97 68.598284859767446 $92 $161 forward 7 unknown #
coedge $-1 $87 $55 $159 $162 forward $96 $-1 #
coedge $-1 $55 $87 $155 $163 reversed $96 $-1 #
loop $-1 $-1 $94 $139 #
vertex $-1 $56 $164 #
vertex $-1 $56 $165 #
straight-curve $-1 68.598284859767446 0 8.1776337090756446 0 1 0 I I #
face $-1 $166 $167 $13 $-1 $168 reversed single #
loop $-1 $-1 $106 $57 #
plane-surface $-1 68.598284859767446 0 0 -1 0 0 0 0 1 forward_v I I I I #
coedge $-1 $169 $170 $104 $171 forward $58 $-1 #
coedge $-1 $172 $60 $103 $171 reversed $37 $-1 #
coedge $-1 $60 $172 $61 $109 forward $37 $-1 #
coedge $-1 $63 $173 $60 $107 forward $101 $-1 #
edge $-1 $174 -4.8388168545378223 $113 -1.8388168545378223 $106 $175 forward 7 unknown #
coedge $-1 $62 $61 $176 $177 reversed $24 $-1 #
edge $-1 $178 -68.598284859767446 $113 68.598284859767446 $105 $179 forward 7 unknown #
coedge $-1 $180 $181 $62 $111 forward $182 $-1 #
edge $-1 $114 -68.598284859767446 $183 68.598284859767446 $110 $184 forward 7 unknown #
coedge $-1 $185 $63 $181 $186 forward $101 $-1 #
vertex $-1 $64 $187 #
vertex $-1 $186 $188 #
straight-curve $-1 68.598284859767446 -15.961387388048704 5.1776337090756446 0 -1 0 I I #
face $-1 $189 $190 $14 $-1 $191 forward single #
loop $-1 $-1 $192 $65 #
plane-surface $-1 0 0 8.1776337090756446 0 0 1 1 0 0 forward_v I I I I #
coedge $-1 $193 $194 $192 $195 reversed $66 $-1 #
coedge $-1 $196 $68 $194 $197 reversed $41 $-1 #
coedge $-1 $68 $196 $69 $124 reversed $41 $-1 #
coedge $-1 $71 $192 $68 $123 forward $117 $-1 #
edge $-1 $198 7.0842986842580125 $128 19.760856221769046 $122 $199 forward 7 unknown #
edge $-1 $128 129.11168472758581 $200 137.19656971953486 $69 $201 forward 7 unknown #
coedge $-1 $202 $203 $70 $126 forward $204 $-1 #
edge $-1 $129 89.956213729367633 $200 95.153077691807837 $125 $205 forward 7 unknown #
coedge $-1 $206 $71 $203 $207 forward $117 $-1 #
vertex $-1 $123 $208 #
vertex $-1 $207 $209 #
straight-curve $-1 25.843936055893074 33.183433674782577 8.1776337090756499 1 0 0 I I #
face $-1 $210 $211 $15 $-1 $212 forward single #
loop $-1 $213 $79 $73 #
plane-surface $-1 -36.500384079348763 26.845154906027062 91.169025937770343 0.64278761758704617 0 0.76604443648966558 0.76604443648966558 0 -0.64278761758704617 forward_v I I I I #
coedge $-1 $214 $215 $216 $217 reversed $74 $-1 #
coedge $-1 $135 $135 $-1 $218 forward $76 $-1 #
edge $-1 $219 0 $219 6.2831853071796004 $77 $220 forward 7 unknown #
vertex $-1 $80 $221 #
ellipse-curve $-1 65.501594275896778 26.845154906027062 5.5792017278555281 -0.64278761758704617 0 -0.76604443648966558 1.1490666547344983 0 -0.96418142638056925 1 I I #
face $-1 $-1 $96 $12 $-1 $222 reversed single #
loop $-1 $-1 $155 $81 #
plane-surface $-1 0 35.89168112103107 0 0 -1 0 0 0 -1 forward_v I I I I #
coedge $-1 $223 $153 $156 $224 forward $82 $-1 #
coedge $-1 $159 $84 $85 $147 reversed $50 $-1 #
coedge $-1 $153 $223 $84 $145 reversed $82 $-1 #
edge $-1 $160 -8.1776337090756446 $225 8.1776337090756446 $144 $226 forward 7 unknown #
coedge $-1 $86 $85 $223 $227 forward $33 $-1 #
edge $-1 $151 -68.598284859767446 $225 68.598284859767446 $143 $228 forward 7 unknown #
coedge $-1 $156 $155 $86 $149 reversed $140 $-1 #
edge $-1 $229 -68.598284859767446 $150 68.598284859767446 $148 $230 forward 7 unknown #
vertex $-1 $88 $231 #
vertex $-1 $162 $232 #
straight-curve $-1 68.598284859767446 0 -8.1776337090756446 0 -1 0 I I #
coedge $-1 $142 $144 $89 $154 reversed $82 $-1 #
edge $-1 $157 -35.89168112103107 $160 35.89168112103107 $153 $233 forward 7 unknown #
coedge $-1 $148 $90 $95 $163 forward $140 $-1 #
coedge $-1 $90 $148 $142 $224 reversed $140 $-1 #
vertex $-1 $91 $234 #
straight-curve $-1 0 35.89168112103107 8.1776337090756446 -1 0 0 I I #
coedge $-1 $92 $143 $94 $162 reversed $50 $-1 #
vertex $-1 $154 $235 #
straight-curve $-1 0 -35.89168112103107 8.1776337090756446 1 0 0 I I #
edge $-1 $97 -8.1776337090756446 $151 8.1776337090756446 $94 $236 forward 7 unknown #
edge $-1 $98 -8.1776337090756446 $150 8.1776337090756446 $95 $237 forward 7 unknown #
point $-1 68.598284859767446 -35.89168112103107 8.1776337090756446 #
point $-1 68.598284859767446 35.89168112103107 8.1776337090756446 #
face $-1 $238 $182 $13 $-1 $239 reversed single #
loop $-1 $-1 $240 $100 #
plane-surface $-1 0 0 -8.1776337090756446 0 0 1 1 0 0 forward_v I I I I #
coedge $-1 $241 $103 $173 $242 forward $58 $-1 #
coedge $-1 $103 $241 $243 $244 forward $58 $-1 #
edge $-1 $245 -68.598284859767446 $174 68.598284859767446 $103 $246 forward 7 unknown #
coedge $-1 $105 $104 $247 $248 reversed $37 $-1 #
coedge $-1 $106 $249 $169 $242 reversed $101 $-1 #
vertex $-1 $242 $250 #
straight-curve $-1 68.598284859767446 -27.953868431163748 3.3388168545378223 0 0 -1 I I #
coedge $-1 $247 $251 $108 $177 forward $252 $-1 #
edge $-1 $183 -19.930293732982364 $178 -11.992481043115044 $176 $253 forward 7 unknown #
vertex $-1 $177 $254 #
straight-curve $-1 0 -27.953868431163748 5.1776337090756446 1 0 0 I I #
coedge $-1 $255 $110 $251 $256 forward $182 $-1 #
coedge $-1 $110 $255 $112 $186 reversed $182 $-1 #
loop $-1 $-1 $110 $166 #
vertex $-1 $256 $257 #
straight-curve $-1 0 -35.89168112103107 5.1776337090756446 -1 0 0 I I #
coedge $-1 $249 $112 $240 $258 reversed $101 $-1 #
edge $-1 $114 -5.1776337090756446 $259 8.1776337090756446 $112 $260 forward 7 unknown #
point $-1 68.598284859767446 -27.953868431163748 5.1776337090756446 #
point $-1 68.598284859767446 -35.89168112103107 5.1776337090756446 #
face $-1 $261 $262 $14 $-1 $263 forward single #
loop $-1 $-1 $264 $116 #
plane-surface $-1 0 -31.922774776097409 5.1776337090756446 0 0 1 1 0 0 forward_v I I I I #
coedge $-1 $122 $265 $119 $195 forward $117 $-1 #
coedge $-1 $194 $119 $266 $267 reversed $66 $-1 #
coedge $-1 $119 $193 $120 $197 forward $66 $-1 #
edge $-1 $268 -42.754348803874372 $198 -36.560967636132993 $192 $269 forward 7 unknown #
coedge $-1 $121 $120 $202 $270 reversed $41 $-1 #
edge $-1 $271 -137.19656971953486 $198 -129.11168472758581 $194 $272 forward 7 unknown #
vertex $-1 $123 $273 #
straight-curve $-1 62.404903692026075 13.422577453013531 8.1776337090756428 0 1 0 I I #
vertex $-1 $270 $274 #
straight-curve $-1 -36.500384079348763 33.183433674782577 91.169025937770343 0.76604443648966558 0 -0.64278761758704617 I I #
coedge $-1 $266 $125 $196 $270 forward $204 $-1 #
coedge $-1 $125 $275 $127 $207 reversed $204 $-1 #
loop $-1 $-1 $266 $261 #
straight-curve $-1 68.598284859767446 33.183433674782577 98.133847438443283 0 0 -1 I I #
coedge $-1 $276 $127 $277 $278 forward $117 $-1 #
edge $-1 $129 33.183433674782577 $279 35.89168112103107 $203 $280 forward 7 unknown #
point $-1 62.404903692026068 33.183433674782577 8.1776337090756499 #
point $-1 68.598284859767446 33.183433674782577 8.1776337090756446 #
face $-1 $281 $282 $15 $-1 $283 forward single #
loop $-1 $-1 $284 $131 #
plane-surface $-1 51.687872111786149 20.506876137271544 196.26769487688657 0 1 0 0.64278761758704617 0 0.76604443648966558 forward_v I I I I #
loop $-1 $-1 $285 $73 #
coedge $-1 $215 $134 $286 $287 forward $74 $-1 #
coedge $-1 $134 $214 $288 $289 reversed $74 $-1 #
coedge $-1 $290 $291 $134 $217 forward $282 $-1 #
edge $-1 $292 36.560967636132993 $293 42.754348803874372 $216 $294 forward 7 unknown #
edge $-1 $295 1 $295 0 $135 $-1 forward 7 unknown #
vertex $-1 $136 $296 #
ellipse-curve $-1 62.292903714061104 26.845154906027062 1.7552333033575906 0.64278761758704617 0 0.76604443648966558 1.1490666547344983 0 -0.96418142638056925 1 I I #
point $-1 66.650660930631275 26.845154906027062 4.6150203014749431 #
plane-surface $-1 68.598284859767446 0 0 -1 0 0 0 0 1 forward_v I I I I #
coedge $-1 $144 $142 $146 $227 reversed $82 $-1 #
edge $-1 $157 -8.1776337090756446 $229 8.1776337090756446 $156 $297 forward 7 unknown #
vertex $-1 $227 $298 #
straight-curve $-1 -68.598284859767446 -35.89168112103107 0 0 0 -1 I I #
edge $-1 $225 -35.89168112103107 $229 35.89168112103107 $223 $299 forward 7 unknown #
straight-curve $-1 0 -35.89168112103107 -8.1776337090756446 -1 0 0 I I #
vertex $-1 $149 $300 #
straight-curve $-1 0 35.89168112103107 -8.1776337090756446 1 0 0 I I #
point $-1 68.598284859767446 35.89168112103107 -8.1776337090756446 #
point $-1 68.598284859767446 -35.89168112103107 -8.1776337090756446 #
straight-curve $-1 -68.598284859767446 0 8.1776337090756446 0 -1 0 I I #
point $-1 -68.598284859767446 35.89168112103107 8.1776337090756446 #
point $-1 -68.598284859767446 -35.89168112103107 8.1776337090756446 #
straight-curve $-1 68.598284859767446 -35.89168112103107 0 0 0 -1 I I #
straight-curve $-1 68.598284859767446 35.89168112103107 0 0 0 -1 I I #
face $-1 $301 $252 $13 $-1 $302 reversed single #
plane-surface $-1 0 -35.89168112103107 0 0 1 0 0 0 1 forward_v I I I I #
coedge $-1 $303 $304 $185 $258 forward $167 $-1 #
coedge $-1 $170 $169 $305 $306 forward $58 $-1 #
edge $-1 $174 -27.953868431163748 $307 35.89168112103107 $173 $308 forward 7 unknown #
coedge $-1 $309 $247 $170 $244 reversed $252 $-1 #
edge $-1 $310 -35.89168112103107 $245 27.953868431163748 $243 $311 forward 7 unknown #
vertex $-1 $248 $312 #
straight-curve $-1 0 -27.953868431163748 8.1776337090756446 1 0 0 I I #
coedge $-1 $243 $176 $172 $248 forward $252 $-1 #
edge $-1 $178 1.8388168545378223 $245 4.8388168545378223 $247 $313 forward 7 unknown #
coedge $-1 $173 $185 $314 $315 reversed $101 $-1 #
point $-1 68.598284859767446 -27.953868431163748 8.1776337090756446 #
coedge $-1 $176 $316 $180 $256 reversed $252 $-1 #
loop $-1 $-1 $247 $238 #
straight-curve $-1 -68.598284859767446 -15.961387388048704 5.1776337090756446 0 1 0 I I #
point $-1 -68.598284859767446 -27.953868431163748 5.1776337090756446 #
coedge $-1 $181 $180 $303 $317 reversed $182 $-1 #
edge $-1 $183 -5.1776337090756446 $318 8.1776337090756446 $251 $319 forward 7 unknown #
point $-1 -68.598284859767446 -35.89168112103107 5.1776337090756446 #
edge $-1 $320 -35.89168112103107 $259 35.89168112103107 $185 $321 forward 7 unknown #
vertex $-1 $186 $322 #
straight-curve $-1 68.598284859767446 -35.89168112103107 0 0 0 -1 I I #
face $-1 $323 $204 $14 $-1 $324 reversed single #
loop $-1 $-1 $325 $189 #
plane-surface $-1 0 -27.953868431163748 6.6776337090756446 0 -1 0 0 0 -1 forward_v I I I I #
coedge $-1 $326 $327 $328 $329 reversed $190 $-1 #
coedge $-1 $192 $330 $331 $332 forward $117 $-1 #
coedge $-1 $331 $202 $193 $267 forward $204 $-1 #
edge $-1 $271 -95.153077691807837 $268 -89.956213729367633 $266 $333 forward 7 unknown #
vertex $-1 $267 $334 #
straight-curve $-1 25.843936055893074 20.506876137271544 8.1776337090756499 -1 0 0 I I #
edge $-1 $200 -19.760856221769046 $271 -7.0842986842580125 $202 $335 forward 7 unknown #
vertex $-1 $270 $336 #
straight-curve $-1 -36.500384079348763 20.506876137271544 91.169025937770343 -0.76604443648966558 0 0.64278761758704617 I I #
point $-1 62.404903692026068 20.506876137271544 8.1776337090756499 #
point $-1 68.598284859767432 33.183433674782577 2.9807697466354455 #
coedge $-1 $203 $337 $338 $339 reversed $204 $-1 #
coedge $-1 $330 $206 $340 $341 forward $117 $-1 #
coedge $-1 $338 $342 $206 $278 reversed $343 $-1 #
edge $-1 $279 -68.598284859767446 $344 68.598284859767446 $277 $345 forward 7 unknown #
vertex $-1 $207 $346 #
straight-curve $-1 68.598284859767446 0 8.1776337090756446 0 1 0 I I #
face $-1 $347 $348 $15 $-1 $349 forward single #
loop $-1 $-1 $350 $210 #
plane-surface $-1 0 0 8.1776337090756446 0 0 1 1 0 0 forward_v I I I I #
coedge $-1 $351 $352 $350 $353 reversed $211 $-1 #
coedge $-1 $354 $286 $291 $355 reversed $213 $-1 #
coedge $-1 $285 $356 $214 $287 reversed $213 $-1 #
edge $-1 $292 129.11168472758581 $357 137.19656971953486 $214 $358 forward 7 unknown #
coedge $-1 $359 $360 $215 $289 forward $361 $-1 #
edge $-1 $293 89.956213729367633 $357 95.153077691807837 $288 $362 forward 7 unknown #
coedge $-1 $363 $216 $360 $364 forward $282 $-1 #
coedge $-1 $216 $350 $285 $355 forward $282 $-1 #
vertex $-1 $355 $365 #
vertex $-1 $364 $366 #
straight-curve $-1 25.843936055893074 33.183433674782577 8.1776337090756499 1 0 0 I I #
vertex $-1 $218 $367 #
point $-1 63.441970368795609 26.845154906027062 0.79105187697702151 #
straight-curve $-1 -68.598284859767446 35.89168112103107 0 0 0 -1 I I #
point $-1 -68.598284859767446 -35.89168112103107 -8.1776337090756446 #
straight-curve $-1 -68.598284859767446 0 -8.1776337090756446 0 1 0 I I #
point $-1 -68.598284859767446 35.89168112103107 -8.1776337090756446 #
face $-1 $-1 $368 $13 $-1 $369 reversed single #
plane-surface $-1 -68.598284859767446 0 0 1 0 0 0 0 -1 forward_v I I I I #
coedge $-1 $370 $240 $255 $317 forward $167 $-1 #
coedge $-1 $240 $370 $371 $372 forward $167 $-1 #
coedge $-1 $314 $373 $241 $306 reversed $368 $-1 #
edge $-1 $307 -68.598284859767446 $310 68.598284859767446 $305 $374 forward 7 unknown #
vertex $-1 $242 $375 #
straight-curve $-1 68.598284859767446 0 8.1776337090756446 0 1 0 I I #
coedge $-1 $316 $243 $373 $376 forward $252 $-1 #
vertex $-1 $306 $377 #
straight-curve $-1 -68.598284859767446 0 8.1776337090756446 0 -1 0 I I #
point $-1 -68.598284859767446 -27.953868431163748 8.1776337090756446 #
straight-curve $-1 -68.598284859767446 -27.953868431163748 3.3388168545378223 0 0 1 I I #
coedge $-1 $371 $305 $249 $315 forward $368 $-1 #
edge $-1 $307 -8.1776337090756446 $320 8.1776337090756446 $249 $378 forward 7 unknown #
coedge $-1 $251 $309 $370 $379 reversed $252 $-1 #
edge $-1 $259 -68.598284859767446 $318 68.598284859767446 $255 $380 forward 7 unknown #
vertex $-1 $379 $381 #
straight-curve $-1 -68.598284859767446 -35.89168112103107 0 0 0 -1 I I #
vertex $-1 $258 $382 #
straight-curve $-1 68.598284859767446 0 -8.1776337090756446 0 -1 0 I I #
point $-1 68.598284859767446 -35.89168112103107 -8.1776337090756446 #
face $-1 $383 $384 $14 $-1 $385 reversed single #
plane-surface $-1 68.598284859767446 0 0 -1 0 0 0 0 1 forward_v I I I I #
coedge $-1 $386 $387 $388 $389 reversed $262 $-1 #
coedge $-1 $390 $264 $387 $391 reversed $190 $-1 #
coedge $-1 $264 $390 $392 $393 reversed $190 $-1 #
coedge $-1 $394 $388 $264 $329 forward $204 $-1 #
edge $-1 $395 11.992481043115044 $396 19.930293732982364 $328 $397 forward 7 unknown #
coedge $-1 $265 $276 $386 $398 forward $117 $-1 #
coedge $-1 $388 $266 $265 $332 reversed $204 $-1 #
edge $-1 $399 -27.953868431163748 $268 20.506876137271544 $331 $280 forward 7 unknown #
straight-curve $-1 68.598284859767446 20.506876137271544 98.133847438443283 0 0 1 I I #
point $-1 68.598284859767446 20.506876137271544 8.1776337090756446 #
straight-curve $-1 68.598284859767432 13.422577453013531 2.9807697466354526 0 -1 0 I I #
point $-1 68.598284859767432 20.506876137271544 2.9807697466354455 #
coedge $-1 $275 $394 $400 $401 reversed $204 $-1 #
coedge $-1 $402 $277 $275 $339 forward $343 $-1 #
edge $-1 $279 -8.1776337090756446 $403 8.1776337090756446 $275 $404 forward 7 unknown #
coedge $-1 $405 $406 $276 $341 reversed $407 $-1 #
edge $-1 $344 -35.89168112103107 $408 27.953868431163748 $340 $409 forward 7 unknown #
coedge $-1 $277 $402 $405 $410 reversed $343 $-1 #
loop $-1 $-1 $338 $411 #
vertex $-1 $278 $412 #
straight-curve $-1 0 35.89168112103107 8.1776337090756446 -1 0 0 I I #
point $-1 68.598284859767446 35.89168112103107 8.1776337090756446 #
face $-1 $413 $414 $15 $-1 $415 forward single #
loop $-1 $-1 $416 $281 #
plane-surface $-1 0 -31.922774776097409 5.1776337090756446 0 0 1 1 0 0 forward_v I I I I #
coedge $-1 $291 $417 $284 $353 forward $282 $-1 #
coedge $-1 $352 $284 $418 $419 reversed $211 $-1 #
coedge $-1 $284 $351 $354 $420 forward $211 $-1 #
edge $-1 $421 -42.754348803874372 $422 -36.560967636132993 $350 $423 forward 7 unknown #
coedge $-1 $356 $285 $352 $420 reversed $213 $-1 #
edge $-1 $422 7.0842986842580125 $292 19.760856221769046 $291 $424 forward 7 unknown #
coedge $-1 $286 $354 $359 $425 reversed $213 $-1 #
vertex $-1 $425 $426 #
straight-curve $-1 -36.500384079348763 33.183433674782577 91.169025937770343 0.76604443648966558 0 -0.64278761758704617 I I #
coedge $-1 $418 $288 $356 $425 forward $361 $-1 #
coedge $-1 $288 $427 $290 $364 reversed $361 $-1 #
loop $-1 $-1 $418 $413 #
straight-curve $-1 68.598284859767446 33.183433674782577 98.133847438443283 0 0 -1 I I #
coedge $-1 $428 $290 $429 $430 forward $282 $-1 #
edge $-1 $293 33.183433674782577 $431 35.89168112103107 $360 $432 forward 7 unknown #
point $-1 62.404903692026068 33.183433674782577 8.1776337090756499 #
point $-1 68.598284859767446 33.183433674782577 8.1776337090756446 #
point $-1 61.328722287680542 26.845154906027062 0.60616664862309244 #
loop $-1 $-1 $314 $301 #
plane-surface $-1 0 35.89168112103107 0 0 -1 0 0 0 -1 forward_v I I I I #
coedge $-1 $304 $303 $316 $379 forward $167 $-1 #
coedge $-1 $373 $314 $304 $372 reversed $368 $-1 #
edge $-1 $433 -68.598284859767446 $320 68.598284859767446 $371 $434 forward 7 unknown #
coedge $-1 $305 $371 $309 $376 reversed $368 $-1 #
straight-curve $-1 0 35.89168112103107 8.1776337090756446 -1 0 0 I I #
point $-1 68.598284859767446 35.89168112103107 8.1776337090756446 #
edge $-1 $310 -8.1776337090756446 $433 8.1776337090756446 $373 $435 forward 7 unknown #
point $-1 -68.598284859767446 35.89168112103107 8.1776337090756446 #
straight-curve $-1 68.598284859767446 35.89168112103107 0 0 0 -1 I I #
edge $-1 $318 -35.89168112103107 $433 35.89168112103107 $316 $436 forward 7 unknown #
straight-curve $-1 0 -35.89168112103107 -8.1776337090756446 -1 0 0 I I #
point $-1 -68.598284859767446 -35.89168112103107 -8.1776337090756446 #
point $-1 68.598284859767446 35.89168112103107 -8.1776337090756446 #
face $-1 $437 $438 $14 $-1 $439 reversed single #
loop $-1 $-1 $400 $323 #
plane-surface $-1 0 0 -8.1776337090756446 0 0 1 1 0 0 forward_v I I I I #
coedge $-1 $440 $325 $330 $398 reversed $262 $-1 #
coedge $-1 $325 $440 $326 $391 forward $262 $-1 #
coedge $-1 $328 $331 $325 $389 forward $204 $-1 #
edge $-1 $399 -4.8388168545378223 $395 -1.8388168545378223 $388 $441 forward 7 unknown #
coedge $-1 $327 $326 $442 $443 reversed $190 $-1 #
edge $-1 $444 -68.598284859767446 $395 68.598284859767446 $387 $445 forward 7 unknown #
coedge $-1 $446 $447 $327 $393 forward $438 $-1 #
edge $-1 $396 -68.598284859767446 $448 68.598284859767446 $392 $449 forward 7 unknown #
coedge $-1 $337 $328 $447 $450 forward $204 $-1 #
vertex $-1 $329 $451 #
vertex $-1 $450 $452 #
straight-curve $-1 68.598284859767446 -15.961387388048704 5.1776337090756446 0 -1 0 I I #
edge $-1 $408 -68.598284859767446 $399 68.598284859767446 $330 $453 forward 7 unknown #
vertex $-1 $332 $454 #
coedge $-1 $455 $456 $337 $401 forward $384 $-1 #
edge $-1 $403 -35.89168112103107 $457 35.89168112103107 $337 $458 forward 7 unknown #
coedge $-1 $342 $338 $456 $459 reversed $343 $-1 #
vertex $-1 $401 $460 #
straight-curve $-1 68.598284859767446 35.89168112103107 0 0 0 -1 I I #
coedge $-1 $461 $340 $342 $410 forward $407 $-1 #
coedge $-1 $340 $442 $440 $462 forward $407 $-1 #
loop $-1 $-1 $406 $437 #
vertex $-1 $462 $463 #
straight-curve $-1 -68.598284859767446 0 8.1776337090756446 0 -1 0 I I #
edge $-1 $344 -8.1776337090756446 $464 8.1776337090756446 $342 $465 forward 7 unknown #
face $-1 $-1 $343 $14 $-1 $466 reversed single #
point $-1 -68.598284859767446 35.89168112103107 8.1776337090756446 #
face $-1 $467 $361 $15 $-1 $468 reversed single #
loop $-1 $-1 $469 $347 #
plane-surface $-1 0 -27.953868431163748 6.6776337090756446 0 -1 0 0 0 -1 forward_v I I I I #
coedge $-1 $470 $471 $472 $473 reversed $348 $-1 #
coedge $-1 $350 $474 $475 $476 forward $282 $-1 #
coedge $-1 $475 $359 $351 $419 forward $361 $-1 #
edge $-1 $477 -95.153077691807837 $421 -89.956213729367633 $418 $478 forward 7 unknown #
edge $-1 $477 -137.19656971953486 $422 -129.11168472758581 $352 $479 forward 7 unknown #
vertex $-1 $419 $480 #
vertex $-1 $355 $481 #
straight-curve $-1 25.843936055893074 20.506876137271544 8.1776337090756499 -1 0 0 I I #
straight-curve $-1 62.404903692026075 13.422577453013531 8.1776337090756428 0 1 0 I I #
edge $-1 $357 -19.760856221769046 $477 -7.0842986842580125 $359 $482 forward 7 unknown #
point $-1 68.598284859767432 33.183433674782577 2.9807697466354455 #
coedge $-1 $360 $483 $484 $485 reversed $361 $-1 #
coedge $-1 $474 $363 $486 $487 forward $282 $-1 #
coedge $-1 $484 $488 $363 $430 reversed $489 $-1 #
edge $-1 $431 -68.598284859767446 $490 68.598284859767446 $429 $491 forward 7 unknown #
vertex $-1 $364 $492 #
straight-curve $-1 68.598284859767446 0 8.1776337090756446 0 1 0 I I #
vertex $-1 $372 $493 #
straight-curve $-1 0 35.89168112103107 -8.1776337090756446 1 0 0 I I #
straight-curve $-1 -68.598284859767446 35.89168112103107 0 0 0 -1 I I #
straight-curve $-1 -68.598284859767446 0 -8.1776337090756446 0 1 0 I I #
face $-1 $411 $407 $14 $-1 $494 reversed single #
loop $-1 $-1 $392 $383 #
plane-surface $-1 0 -35.89168112103107 0 0 1 0 0 0 1 forward_v I I I I #
coedge $-1 $387 $386 $406 $462 reversed $262 $-1 #
straight-curve $-1 68.598284859767446 -27.953868431163748 3.3388168545378223 0 0 -1 I I #
coedge $-1 $406 $495 $390 $443 forward $407 $-1 #
edge $-1 $448 -19.930293732982364 $444 -11.992481043115044 $442 $496 forward 7 unknown #
vertex $-1 $443 $497 #
straight-curve $-1 0 -27.953868431163748 5.1776337090756446 1 0 0 I I #
coedge $-1 $498 $392 $495 $499 forward $438 $-1 #
coedge $-1 $392 $498 $394 $450 reversed $438 $-1 #
vertex $-1 $499 $500 #
straight-curve $-1 0 -35.89168112103107 5.1776337090756446 -1 0 0 I I #
edge $-1 $396 -5.1776337090756446 $457 8.1776337090756446 $394 $501 forward 7 unknown #
point $-1 68.598284859767446 -27.953868431163748 5.1776337090756446 #
point $-1 68.598284859767446 -35.89168112103107 5.1776337090756446 #
straight-curve $-1 0 -27.953868431163748 8.1776337090756446 1 0 0 I I #
point $-1 68.598284859767446 -27.953868431163748 8.1776337090756446 #
coedge $-1 $502 $400 $498 $503 forward $384 $-1 #
coedge $-1 $400 $502 $402 $459 forward $384 $-1 #
vertex $-1 $450 $504 #
straight-curve $-1 68.598284859767446 0 -8.1776337090756446 0 -1 0 I I #
edge $-1 $464 -68.598284859767446 $403 68.598284859767446 $402 $505 forward 7 unknown #
point $-1 68.598284859767446 35.89168112103107 -8.1776337090756446 #
coedge $-1 $495 $405 $502 $506 reversed $407 $-1 #
edge $-1 $444 1.8388168545378223 $408 4.8388168545378223 $406 $507 forward 7 unknown #
point $-1 -68.598284859767446 -27.953868431163748 8.1776337090756446 #
vertex $-1 $459 $508 #
straight-curve $-1 -68.598284859767446 35.89168112103107 0 0 0 -1 I I #
plane-surface $-1 0 35.89168112103107 0 0 -1 0 0 0 -1 forward_v I I I I #
face $-1 $509 $510 $15 $-1 $511 reversed single #
plane-surface $-1 68.598284859767446 0 0 -1 0 0 0 0 1 forward_v I I I I #
coedge $-1 $512 $513 $514 $515 reversed $414 $-1 #
coedge $-1 $516 $416 $513 $517 reversed $348 $-1 #
coedge $-1 $416 $516 $518 $519 reversed $348 $-1 #
coedge $-1 $520 $514 $416 $473 forward $361 $-1 #
edge $-1 $521 11.992481043115044 $522 19.930293732982364 $472 $523 forward 7 unknown #
coedge $-1 $417 $428 $512 $524 forward $282 $-1 #
coedge $-1 $514 $418 $417 $476 reversed $361 $-1 #
edge $-1 $525 -27.953868431163748 $421 20.506876137271544 $475 $432 forward 7 unknown #
vertex $-1 $425 $526 #
straight-curve $-1 68.598284859767446 20.506876137271544 98.133847438443283 0 0 1 I I #
straight-curve $-1 -36.500384079348763 20.506876137271544 91.169025937770343 -0.76604443648966558 0 0.64278761758704617 I I #
point $-1 68.598284859767446 20.506876137271544 8.1776337090756446 #
point $-1 62.404903692026068 20.506876137271544 8.1776337090756499 #
straight-curve $-1 68.598284859767432 13.422577453013531 2.9807697466354526 0 -1 0 I I #
coedge $-1 $427 $520 $527 $528 reversed $361 $-1 #
coedge $-1 $529 $429 $427 $485 forward $489 $-1 #
edge $-1 $431 -8.1776337090756446 $530 8.1776337090756446 $427 $531 forward 7 unknown #
coedge $-1 $532 $533 $428 $487 reversed $534 $-1 #
edge $-1 $490 -35.89168112103107 $535 27.953868431163748 $486 $536 forward 7 unknown #
coedge $-1 $429 $529 $532 $537 reversed $489 $-1 #
loop $-1 $-1 $484 $538 #
vertex $-1 $430 $539 #
straight-curve $-1 0 35.89168112103107 8.1776337090756446 -1 0 0 I I #
point $-1 68.598284859767446 35.89168112103107 8.1776337090756446 #
point $-1 -68.598284859767446 35.89168112103107 -8.1776337090756446 #
plane-surface $-1 -68.598284859767446 0 0 1 0 0 0 0 -1 forward_v I I I I #
coedge $-1 $442 $461 $446 $499 reversed $407 $-1 #
straight-curve $-1 -68.598284859767446 -15.961387388048704 5.1776337090756446 0 1 0 I I #
point $-1 -68.598284859767446 -27.953868431163748 5.1776337090756446 #
coedge $-1 $447 $446 $455 $503 reversed $438 $-1 #
edge $-1 $448 -5.1776337090756446 $540 8.1776337090756446 $495 $541 forward 7 unknown #
point $-1 -68.598284859767446 -35.89168112103107 5.1776337090756446 #
straight-curve $-1 68.598284859767446 -35.89168112103107 0 0 0 -1 I I #
coedge $-1 $456 $455 $461 $506 forward $384 $-1 #
edge $-1 $457 -68.598284859767446 $540 68.598284859767446 $498 $542 forward 7 unknown #
point $-1 68.598284859767446 -35.89168112103107 -8.1776337090756446 #
straight-curve $-1 0 35.89168112103107 -8.1776337090756446 1 0 0 I I #
edge $-1 $540 -35.89168112103107 $464 35.89168112103107 $461 $543 forward 7 unknown #
straight-curve $-1 -68.598284859767446 -27.953868431163748 3.3388168545378223 0 0 1 I I #
point $-1 -68.598284859767446 35.89168112103107 -8.1776337090756446 #
face $-1 $544 $545 $15 $-1 $546 reversed single #
loop $-1 $-1 $527 $467 #
plane-surface $-1 0 0 -8.1776337090756446 0 0 1 1 0 0 forward_v I I I I #
coedge $-1 $547 $469 $474 $524 reversed $414 $-1 #
coedge $-1 $469 $547 $470 $517 forward $414 $-1 #
coedge $-1 $472 $475 $469 $515 forward $361 $-1 #
edge $-1 $525 -4.8388168545378223 $521 -1.8388168545378223 $514 $548 forward 7 unknown #
coedge $-1 $471 $470 $549 $550 reversed $348 $-1 #
edge $-1 $551 -68.598284859767446 $521 68.598284859767446 $513 $552 forward 7 unknown #
coedge $-1 $553 $554 $471 $519 forward $545 $-1 #
edge $-1 $522 -68.598284859767446 $555 68.598284859767446 $518 $556 forward 7 unknown #
coedge $-1 $483 $472 $554 $557 forward $361 $-1 #
vertex $-1 $473 $558 #
vertex $-1 $557 $559 #
straight-curve $-1 68.598284859767446 -15.961387388048704 5.1776337090756446 0 -1 0 I I #
edge $-1 $535 -68.598284859767446 $525 68.598284859767446 $474 $560 forward 7 unknown #
vertex $-1 $476 $561 #
point $-1 68.598284859767432 20.506876137271544 2.9807697466354455 #
coedge $-1 $562 $563 $483 $528 forward $510 $-1 #
edge $-1 $530 -35.89168112103107 $564 35.89168112103107 $483 $565 forward 7 unknown #
coedge $-1 $488 $484 $563 $566 reversed $489 $-1 #
vertex $-1 $528 $567 #
straight-curve $-1 68.598284859767446 35.89168112103107 0 0 0 -1 I I #
coedge $-1 $568 $486 $488 $537 forward $534 $-1 #
coedge $-1 $486 $549 $547 $569 forward $534 $-1 #
loop $-1 $-1 $533 $544 #
vertex $-1 $569 $570 #
straight-curve $-1 -68.598284859767446 0 8.1776337090756446 0 -1 0 I I #
edge $-1 $490 -8.1776337090756446 $571 8.1776337090756446 $488 $572 forward 7 unknown #
face $-1 $-1 $489 $15 $-1 $573 reversed single #
point $-1 -68.598284859767446 35.89168112103107 8.1776337090756446 #
vertex $-1 $506 $574 #
straight-curve $-1 -68.598284859767446 -35.89168112103107 0 0 0 -1 I I #
straight-curve $-1 0 -35.89168112103107 -8.1776337090756446 -1 0 0 I I #
straight-curve $-1 -68.598284859767446 0 -8.1776337090756446 0 1 0 I I #
face $-1 $538 $534 $15 $-1 $575 reversed single #
loop $-1 $-1 $518 $509 #
plane-surface $-1 0 -35.89168112103107 0 0 1 0 0 0 1 forward_v I I I I #
coedge $-1 $513 $512 $533 $569 reversed $414 $-1 #
straight-curve $-1 68.598284859767446 -27.953868431163748 3.3388168545378223 0 0 -1 I I #
coedge $-1 $533 $576 $516 $550 forward $534 $-1 #
edge $-1 $555 -19.930293732982364 $551 -11.992481043115044 $549 $577 forward 7 unknown #
vertex $-1 $550 $578 #
straight-curve $-1 0 -27.953868431163748 5.1776337090756446 1 0 0 I I #
coedge $-1 $579 $518 $576 $580 forward $545 $-1 #
coedge $-1 $518 $579 $520 $557 reversed $545 $-1 #
vertex $-1 $580 $581 #
straight-curve $-1 0 -35.89168112103107 5.1776337090756446 -1 0 0 I I #
edge $-1 $522 -5.1776337090756446 $564 8.1776337090756446 $520 $582 forward 7 unknown #
point $-1 68.598284859767446 -27.953868431163748 5.1776337090756446 #
point $-1 68.598284859767446 -35.89168112103107 5.1776337090756446 #
straight-curve $-1 0 -27.953868431163748 8.1776337090756446 1 0 0 I I #
point $-1 68.598284859767446 -27.953868431163748 8.1776337090756446 #
coedge $-1 $583 $527 $579 $584 forward $510 $-1 #
coedge $-1 $527 $583 $529 $566 forward $510 $-1 #
vertex $-1 $557 $585 #
straight-curve $-1 68.598284859767446 0 -8.1776337090756446 0 -1 0 I I #
edge $-1 $571 -68.598284859767446 $530 68.598284859767446 $529 $586 forward 7 unknown #
point $-1 68.598284859767446 35.89168112103107 -8.1776337090756446 #
coedge $-1 $576 $532 $583 $587 reversed $534 $-1 #
edge $-1 $551 1.8388168545378223 $535 4.8388168545378223 $533 $588 forward 7 unknown #
point $-1 -68.598284859767446 -27.953868431163748 8.1776337090756446 #
vertex $-1 $566 $589 #
straight-curve $-1 -68.598284859767446 35.89168112103107 0 0 0 -1 I I #
plane-surface $-1 0 35.89168112103107 0 0 -1 0 0 0 -1 forward_v I I I I #
point $-1 -68.598284859767446 -35.89168112103107 -8.1776337090756446 #
plane-surface $-1 -68.598284859767446 0 0 1 0 0 0 0 -1 forward_v I I I I #
coedge $-1 $549 $568 $553 $580 reversed $534 $-1 #
straight-curve $-1 -68.598284859767446 -15.961387388048704 5.1776337090756446 0 1 0 I I #
point $-1 -68.598284859767446 -27.953868431163748 5.1776337090756446 #
coedge $-1 $554 $553 $562 $584 reversed $545 $-1 #
edge $-1 $555 -5.1776337090756446 $590 8.1776337090756446 $576 $591 forward 7 unknown #
point $-1 -68.598284859767446 -35.89168112103107 5.1776337090756446 #
straight-curve $-1 68.598284859767446 -35.89168112103107 0 0 0 -1 I I #
coedge $-1 $563 $562 $568 $587 forward $510 $-1 #
edge $-1 $564 -68.598284859767446 $590 68.598284859767446 $579 $592 forward 7 unknown #
point $-1 68.598284859767446 -35.89168112103107 -8.1776337090756446 #
straight-curve $-1 0 35.89168112103107 -8.1776337090756446 1 0 0 I I #
edge $-1 $590 -35.89168112103107 $571 35.89168112103107 $568 $593 forward 7 unknown #
straight-curve $-1 -68.598284859767446 -27.953868431163748 3.3388168545378223 0 0 1 I I #
point $-1 -68.598284859767446 35.89168112103107 -8.1776337090756446 #
vertex $-1 $587 $594 #
straight-curve $-1 -68.598284859767446 -35.89168112103107 0 0 0 -1 I I #
straight-curve $-1 0 -35.89168112103107 -8.1776337090756446 -1 0 0 I I #
straight-curve $-1 -68.598284859767446 0 -8.1776337090756446 0 1 0 I I #
point $-1 -68.598284859767446 -35.89168112103107 -8.1776337090756446 #
End-of-ACIS-data 