500 0 8 0           
7 Unknown 11 ACIS 5.0 NT 24 Thu Mar 25 21:41:55 1999 
-1 9.9999999999999995e-007 1e-010 
body $-1 $8 $-1 $9 #
body $-1 $10 $-1 $11 #
body $-1 $12 $-1 $13 #
body $-1 $14 $-1 $15 #
body $-1 $16 $-1 $17 #
body $-1 $18 $-1 $19 #
body $-1 $20 $-1 $21 #
body $-1 $22 $-1 $23 #
lump $-1 $-1 $24 $0 #
transform $-1 1 0 0 0 1 0 0 0 1 57.855769524216441 32.15623917350009 14.558090323899181 1 rotate no_reflect no_shear #
lump $-1 $-1 $25 $1 #
transform $-1 1 0 0 0 1 0 0 0 1 57.855769524216441 32.15623917350009 14.558090323899181 1 rotate no_reflect no_shear #
lump $-1 $-1 $26 $2 #
transform $-1 1 0 0 0 1 0 0 0 1 57.855769524216441 32.15623917350009 14.558090323899181 1 rotate no_reflect no_shear #
lump $-1 $-1 $27 $3 #
transform $-1 1 0 0 0 1 0 0 0 1 57.855769524216441 32.15623917350009 14.558090323899181 1 rotate no_reflect no_shear #
lump $-1 $-1 $28 $4 #
transform $-1 1 0 0 0 1 0 0 0 1 57.855769524216441 32.15623917350009 14.558090323899181 1 rotate no_reflect no_shear #
lump $-1 $-1 $29 $5 #
transform $-1 1 0 0 0 1 0 0 0 1 57.855769524216441 32.15623917350009 14.558090323899181 1 rotate no_reflect no_shear #
lump $-1 $-1 $30 $6 #
transform $-1 1 0 0 0 1 0 0 0 1 57.855769524216441 32.15623917350009 14.558090323899181 1 rotate no_reflect no_shear #
lump $-1 $-1 $31 $7 #
transform $-1 1 0 0 0 1 0 0 0 1 57.855769524216441 32.15623917350009 14.558090323899181 1 rotate no_reflect no_shear #
shell $-1 $-1 $-1 $32 $-1 $8 #
shell $-1 $-1 $-1 $33 $-1 $10 #
shell $-1 $-1 $-1 $34 $-1 $12 #
shell $-1 $-1 $-1 $35 $-1 $14 #
shell $-1 $-1 $-1 $36 $-1 $16 #
shell $-1 $-1 $-1 $37 $-1 $18 #
shell $-1 $-1 $-1 $38 $-1 $20 #
shell $-1 $-1 $-1 $39 $-1 $22 #
face $-1 $40 $41 $24 $-1 $42 forward single #
face $-1 $43 $44 $25 $-1 $45 forward single #
face $-1 $46 $47 $26 $-1 $48 reversed single #
face $-1 $49 $50 $27 $-1 $51 forward single #
face $-1 $52 $53 $28 $-1 $54 forward single #
face $-1 $55 $56 $29 $-1 $57 reversed single #
face $-1 $58 $59 $30 $-1 $60 forward single #
face $-1 $61 $62 $31 $-1 $63 forward single #
face $-1 $64 $65 $24 $-1 $66 reversed single #
loop $-1 $-1 $67 $32 #
plane-surface $-1 0 0 14.558090323899181 0 0 1 1 0 0 forward_v I I I I #
face $-1 $68 $69 $25 $-1 $70 forward single #
loop $-1 $-1 $71 $33 #
plane-surface $-1 0 -32.15623917350009 0 0 1 0 0 0 1 forward_v I I I I #
face $-1 $72 $73 $26 $-1 $74 reversed single #
loop $-1 $-1 $75 $34 #
plane-surface $-1 -141.0916858735319 -13.583176288156348 86.69572068435312 0 1 0 -0.71933980857756763 0 0.69465836192734942 forward_v I I I I #
face $-1 $76 $77 $27 $-1 $78 forward single #
loop $-1 $79 $80 $35 #
cone-surface $-1 -53.3969256553588 -11.865624482092347 9.9742810757085056 0.71933980857756763 0 -0.69465836192734942 0.34732918096367471 0 0.35966990428878381 1 I I 0 1 0.5 forward I I I I #
face $-1 $81 $82 $28 $-1 $83 forward single #
loop $-1 $84 $85 $36 #
cone-surface $-1 -53.3969256553588 -9.2892967729963445 9.9742810757085056 0.71933980857756763 0 -0.69465836192734942 0.34732918096367471 0 0.35966990428878381 1 I I 0 1 0.5 forward I I I I #
face $-1 $86 $87 $29 $-1 $88 reversed single #
loop $-1 $-1 $89 $37 #
plane-surface $-1 -141.0916858735319 11.114115323603105 86.69572068435312 0 1 0 -0.71933980857756763 0 0.69465836192734942 forward_v I I I I #
face $-1 $90 $91 $30 $-1 $92 forward single #
loop $-1 $93 $94 $38 #
cone-surface $-1 -53.3969256553588 12.831667129667103 9.9742810757085056 0.71933980857756763 0 -0.69465836192734942 0.34732918096367471 0 0.35966990428878381 1 I I 0 1 0.5 forward I I I I #
face $-1 $95 $96 $31 $-1 $97 forward single #
loop $-1 $98 $99 $39 #
cone-surface $-1 -53.3969256553588 15.407994838763109 9.9742810757085056 0.71933980857756763 0 -0.69465836192734942 0.34732918096367471 0 0.35966990428878381 1 I I 0 1 0.5 forward I I I I #
face $-1 $100 $101 $24 $-1 $102 reversed single #
loop $-1 $-1 $103 $40 #
plane-surface $-1 0 0 -14.558090323899181 0 0 1 1 0 0 forward_v I I I I #
coedge $-1 $104 $105 $106 $107 forward $41 $-1 #
face $-1 $108 $109 $25 $-1 $110 reversed single #
loop $-1 $-1 $111 $43 #
plane-surface $-1 0 0 14.558090323899181 0 0 1 1 0 0 forward_v I I I I #
coedge $-1 $112 $113 $114 $115 forward $44 $-1 #
face $-1 $116 $117 $26 $-1 $118 reversed single #
loop $-1 $-1 $119 $46 #
plane-surface $-1 -57.855769524216456 -10.577460627544347 6.3157325128762096 -0.71933980857756763 0 0.69465836192734942 0.69465836192734942 0 0.71933980857756763 forward_v I I I I #
coedge $-1 $120 $121 $122 $123 reversed $47 $-1 #
face $-1 $-1 $124 $27 $-1 $125 forward single #
loop $-1 $126 $127 $49 #
cone-surface $-1 -52.738022947920001 -11.865624482092347 9.3379861425474768 0.71933980857756763 0 -0.69465836192734942 0.17366459048183736 0 0.17983495214439191 1 I I -0.70710678118654746 0.70710678118654746 0.25 forward I I I I #
loop $-1 $-1 $128 $35 #
coedge $-1 $80 $80 $129 $130 reversed $50 $-1 #
face $-1 $-1 $131 $28 $-1 $132 forward single #
loop $-1 $133 $134 $52 #
cone-surface $-1 -52.738022947920001 -9.2892967729963445 9.3379861425474768 0.71933980857756763 0 -0.69465836192734942 0.17366459048183736 0 0.17983495214439191 1 I I -0.70710678118654746 0.70710678118654746 0.25 forward I I I I #
loop $-1 $-1 $135 $36 #
coedge $-1 $85 $85 $136 $137 reversed $53 $-1 #
face $-1 $138 $139 $29 $-1 $140 reversed single #
loop $-1 $-1 $141 $55 #
plane-surface $-1 -57.855769524216456 14.119830984215106 6.3157325128762096 -0.71933980857756763 0 0.69465836192734942 0.69465836192734942 0 0.71933980857756763 forward_v I I I I #
coedge $-1 $142 $143 $144 $145 reversed $56 $-1 #
face $-1 $-1 $146 $30 $-1 $147 forward single #
loop $-1 $148 $149 $58 #
cone-surface $-1 -52.738022947920001 12.831667129667103 9.3379861425474768 0.71933980857756763 0 -0.69465836192734942 0.17366459048183736 0 0.17983495214439191 1 I I -0.70710678118654746 0.70710678118654746 0.25 forward I I I I #
loop $-1 $-1 $150 $38 #
coedge $-1 $94 $94 $151 $152 reversed $59 $-1 #
face $-1 $-1 $153 $31 $-1 $154 forward single #
loop $-1 $155 $156 $61 #
cone-surface $-1 -52.738022947920001 15.407994838763109 9.3379861425474768 0.71933980857756763 0 -0.69465836192734942 0.17366459048183736 0 0.17983495214439191 1 I I -0.70710678118654746 0.70710678118654746 0.25 forward I I I I #
loop $-1 $-1 $157 $39 #
coedge $-1 $99 $99 $158 $159 reversed $62 $-1 #
face $-1 $160 $161 $24 $-1 $162 reversed single #
loop $-1 $-1 $163 $64 #
plane-surface $-1 0 -32.15623917350009 0 0 1 0 0 0 1 forward_v I I I I #
coedge $-1 $164 $165 $166 $167 forward $65 $-1 #
coedge $-1 $168 $67 $169 $170 forward $41 $-1 #
coedge $-1 $67 $168 $171 $172 forward $41 $-1 #
coedge $-1 $173 $174 $67 $107 reversed $175 $-1 #
edge $-1 $176 -32.15623917350009 $177 32.15623917350009 $106 $178 forward 7 unknown #
face $-1 $179 $180 $25 $-1 $181 reversed single #
loop $-1 $-1 $182 $68 #
plane-surface $-1 -57.855769524216441 0 0 1 0 0 0 0 -1 forward_v I I I I #
coedge $-1 $183 $184 $113 $185 forward $69 $-1 #
coedge $-1 $186 $71 $187 $188 reversed $44 $-1 #
coedge $-1 $71 $186 $111 $185 reversed $44 $-1 #
coedge $-1 $189 $190 $71 $115 reversed $191 $-1 #
edge $-1 $192 -14.558090323899181 $193 14.558090323899181 $114 $194 forward 7 unknown #
face $-1 $195 $196 $26 $-1 $197 reversed single #
loop $-1 $-1 $198 $72 #
plane-surface $-1 -141.0916858735319 -7.5717449669323464 86.69572068435312 0 -1 0 0.71933980857756763 0 -0.69465836192734942 forward_v I I I I #
coedge $-1 $199 $200 $201 $202 reversed $73 $-1 #
coedge $-1 $121 $75 $203 $204 reversed $47 $-1 #
coedge $-1 $75 $120 $199 $205 reversed $47 $-1 #
coedge $-1 $201 $206 $75 $123 forward $207 $-1 #
edge $-1 $208 12.690073412549509 $209 20.649625639675968 $122 $210 forward 7 unknown #
loop $-1 $-1 $129 $76 #
plane-surface $-1 -57.855769524216456 -10.577460627544347 6.3157325128762096 -0.71933980857756763 0 0.69465836192734942 0.69465836192734942 0 0.71933980857756763 forward_v I I I I #
loop $-1 $-1 $211 $49 #
coedge $-1 $127 $127 $128 $212 reversed $77 $-1 #
coedge $-1 $128 $128 $127 $212 forward $79 $-1 #
coedge $-1 $129 $129 $80 $130 forward $124 $-1 #
edge $-1 $213 0 $213 6.2831853071796004 $129 $214 forward 7 unknown #
loop $-1 $-1 $136 $81 #
plane-surface $-1 -57.855769524216456 -10.577460627544347 6.3157325128762096 -0.71933980857756763 0 0.69465836192734942 0.69465836192734942 0 0.71933980857756763 forward_v I I I I #
loop $-1 $-1 $215 $52 #
coedge $-1 $134 $134 $135 $216 reversed $82 $-1 #
coedge $-1 $135 $135 $134 $216 forward $84 $-1 #
coedge $-1 $136 $136 $85 $137 forward $131 $-1 #
edge $-1 $217 0 $217 6.2831853071796004 $136 $218 forward 7 unknown #
face $-1 $219 $220 $29 $-1 $221 forward single #
loop $-1 $-1 $222 $86 #
plane-surface $-1 -141.0916858735319 17.125546644827107 86.69572068435312 0 -1 0 0.71933980857756763 0 -0.69465836192734942 forward_v I I I I #
coedge $-1 $223 $224 $225 $226 reversed $87 $-1 #
coedge $-1 $143 $89 $227 $228 reversed $56 $-1 #
coedge $-1 $89 $142 $223 $229 reversed $56 $-1 #
coedge $-1 $225 $230 $89 $145 forward $220 $-1 #
edge $-1 $231 12.690073412549509 $232 20.649625639675968 $144 $233 forward 7 unknown #
loop $-1 $-1 $151 $90 #
plane-surface $-1 -57.855769524216456 14.119830984215106 6.3157325128762096 -0.71933980857756763 0 0.69465836192734942 0.69465836192734942 0 0.71933980857756763 forward_v I I I I #
loop $-1 $-1 $234 $58 #
coedge $-1 $149 $149 $150 $235 reversed $91 $-1 #
coedge $-1 $150 $150 $149 $235 forward $93 $-1 #
coedge $-1 $151 $151 $94 $152 forward $146 $-1 #
edge $-1 $236 0 $236 6.2831853071796004 $151 $237 forward 7 unknown #
loop $-1 $-1 $158 $95 #
plane-surface $-1 -57.855769524216456 14.119830984215106 6.3157325128762096 -0.71933980857756763 0 0.69465836192734942 0.69465836192734942 0 0.71933980857756763 forward_v I I I I #
loop $-1 $-1 $238 $61 #
coedge $-1 $156 $156 $157 $239 reversed $96 $-1 #
coedge $-1 $157 $157 $156 $239 forward $98 $-1 #
coedge $-1 $158 $158 $99 $159 forward $153 $-1 #
edge $-1 $240 0 $240 6.2831853071796004 $158 $241 forward 7 unknown #
face $-1 $242 $243 $24 $-1 $244 reversed single #
loop $-1 $-1 $245 $100 #
plane-surface $-1 -57.855769524216441 0 0 1 0 0 0 0 -1 forward_v I I I I #
coedge $-1 $246 $171 $247 $248 forward $101 $-1 #
coedge $-1 $249 $103 $246 $250 forward $65 $-1 #
coedge $-1 $103 $249 $251 $252 forward $65 $-1 #
coedge $-1 $174 $173 $103 $167 reversed $175 $-1 #
edge $-1 $253 -32.15623917350009 $254 32.15623917350009 $166 $255 forward 7 unknown #
coedge $-1 $105 $104 $256 $257 forward $41 $-1 #
coedge $-1 $258 $259 $104 $170 reversed $243 $-1 #
edge $-1 $177 -57.855769524216441 $260 57.855769524216441 $169 $261 forward 7 unknown #
coedge $-1 $163 $262 $105 $172 reversed $101 $-1 #
edge $-1 $263 -57.855769524216441 $176 57.855769524216441 $171 $264 forward 7 unknown #
coedge $-1 $166 $106 $262 $265 forward $175 $-1 #
coedge $-1 $106 $166 $258 $266 reversed $175 $-1 #
loop $-1 $-1 $173 $242 #
vertex $-1 $107 $267 #
vertex $-1 $107 $268 #
straight-curve $-1 57.855769524216441 0 14.558090323899181 0 1 0 I I #
face $-1 $269 $191 $25 $-1 $270 reversed single #
loop $-1 $-1 $271 $108 #
plane-surface $-1 -54.712542447752632 -47.074134296981363 0 0 1 0 0 0 1 forward_v I I I I #
coedge $-1 $272 $273 $186 $274 forward $109 $-1 #
coedge $-1 $275 $111 $273 $276 forward $69 $-1 #
coedge $-1 $111 $275 $189 $277 forward $69 $-1 #
edge $-1 $192 51.569315371288823 $278 57.855769524216441 $111 $279 forward 7 unknown #
coedge $-1 $113 $112 $182 $274 reversed $44 $-1 #
coedge $-1 $280 $281 $112 $188 forward $282 $-1 #
edge $-1 $283 -57.855769524216441 $193 -51.569315371288823 $187 $284 forward 7 unknown #
coedge $-1 $285 $114 $184 $277 reversed $191 $-1 #
coedge $-1 $114 $285 $280 $286 reversed $191 $-1 #
loop $-1 $-1 $285 $179 #
vertex $-1 $185 $287 #
vertex $-1 $286 $288 #
straight-curve $-1 -51.569315371288823 -32.15623917350009 0 0 0 -1 I I #
face $-1 $-1 $207 $26 $-1 $289 forward single #
loop $-1 $-1 $290 $116 #
plane-surface $-1 -57.855769524216441 0 0 1 0 0 0 0 -1 forward_v I I I I #
coedge $-1 $291 $292 $293 $294 reversed $117 $-1 #
coedge $-1 $295 $119 $121 $205 forward $73 $-1 #
coedge $-1 $119 $295 $291 $296 forward $73 $-1 #
coedge $-1 $293 $122 $119 $202 forward $207 $-1 #
edge $-1 $209 -8.2944459743841747 $297 -2.2830146531601727 $201 $298 forward 7 unknown #
coedge $-1 $299 $300 $120 $204 forward $196 $-1 #
edge $-1 $301 -37.032127829300336 $208 -28.78977001827738 $203 $302 forward 7 unknown #
edge $-1 $209 -11.458225601779946 $301 -2.0733024663016622e-014 $121 $303 forward 7 unknown #
coedge $-1 $122 $293 $299 $304 forward $207 $-1 #
loop $-1 $-1 $293 $195 #
vertex $-1 $204 $305 #
vertex $-1 $123 $306 #
straight-curve $-1 -70.545842936765951 -13.583176288156348 14.558090323899179 1 0 0 I I #
coedge $-1 $211 $211 $-1 $307 reversed $126 $-1 #
edge $-1 $308 0 $308 6.2831853071796004 $127 $309 forward 7 unknown #
vertex $-1 $130 $310 #
ellipse-curve $-1 -53.875993410653209 -11.865624482092347 10.436911418387703 -0.71933980857756763 0 0.69465836192734942 0.34732918096367471 0 0.35966990428878381 1 I I #
coedge $-1 $215 $215 $-1 $311 reversed $133 $-1 #
edge $-1 $312 0 $312 6.2831853071796004 $134 $313 forward 7 unknown #
vertex $-1 $137 $314 #
ellipse-curve $-1 -53.875993410653209 -9.2892967729963445 10.436911418387703 -0.71933980857756763 0 0.69465836192734942 0.34732918096367471 0 0.35966990428878381 1 I I #
face $-1 $-1 $315 $29 $-1 $316 reversed single #
loop $-1 $-1 $144 $138 #
plane-surface $-1 0 0 14.558090323899181 0 0 1 1 0 0 forward_v I I I I #
coedge $-1 $317 $318 $319 $320 reversed $139 $-1 #
coedge $-1 $321 $141 $143 $229 forward $87 $-1 #
coedge $-1 $141 $321 $317 $322 forward $87 $-1 #
coedge $-1 $319 $144 $141 $226 forward $220 $-1 #
edge $-1 $232 4.0541998314955521 $323 10.065631152719554 $225 $324 forward 7 unknown #
coedge $-1 $325 $326 $142 $228 forward $315 $-1 #
edge $-1 $327 -37.032127829300336 $231 -28.78977001827738 $227 $328 forward 7 unknown #
edge $-1 $232 -11.458225601779946 $327 -2.0733024663016622e-014 $143 $329 forward 7 unknown #
coedge $-1 $144 $319 $325 $330 forward $220 $-1 #
vertex $-1 $228 $331 #
vertex $-1 $145 $332 #
straight-curve $-1 -70.545842936765951 11.114115323603105 14.558090323899179 1 0 0 I I #
coedge $-1 $234 $234 $-1 $333 reversed $148 $-1 #
edge $-1 $334 0 $334 6.2831853071796004 $149 $335 forward 7 unknown #
vertex $-1 $152 $336 #
ellipse-curve $-1 -53.875993410653209 12.831667129667103 10.436911418387703 -0.71933980857756763 0 0.69465836192734942 0.34732918096367471 0 0.35966990428878381 1 I I #
coedge $-1 $238 $238 $-1 $337 reversed $155 $-1 #
edge $-1 $338 0 $338 6.2831853071796004 $156 $339 forward 7 unknown #
vertex $-1 $159 $340 #
ellipse-curve $-1 -53.875993410653209 15.407994838763109 10.436911418387703 -0.71933980857756763 0 0.69465836192734942 0.34732918096367471 0 0.35966990428878381 1 I I #
face $-1 $-1 $175 $24 $-1 $341 reversed single #
loop $-1 $-1 $258 $160 #
plane-surface $-1 0 32.15623917350009 0 0 -1 0 0 0 -1 forward_v I I I I #
coedge $-1 $342 $256 $259 $343 forward $161 $-1 #
coedge $-1 $262 $163 $164 $250 reversed $101 $-1 #
coedge $-1 $256 $342 $163 $248 reversed $161 $-1 #
edge $-1 $263 -14.558090323899181 $344 14.558090323899181 $247 $345 forward 7 unknown #
coedge $-1 $165 $164 $342 $346 forward $65 $-1 #
edge $-1 $254 -57.855769524216441 $344 57.855769524216441 $246 $347 forward 7 unknown #
coedge $-1 $259 $258 $165 $252 reversed $243 $-1 #
edge $-1 $348 -57.855769524216441 $253 57.855769524216441 $251 $349 forward 7 unknown #
vertex $-1 $167 $350 #
vertex $-1 $265 $351 #
straight-curve $-1 57.855769524216441 0 -14.558090323899181 0 -1 0 I I #
coedge $-1 $245 $247 $168 $257 reversed $161 $-1 #
edge $-1 $260 -32.15623917350009 $263 32.15623917350009 $256 $352 forward 7 unknown #
coedge $-1 $251 $169 $174 $266 forward $243 $-1 #
coedge $-1 $169 $251 $245 $343 reversed $243 $-1 #
vertex $-1 $170 $353 #
straight-curve $-1 0 32.15623917350009 14.558090323899181 -1 0 0 I I #
coedge $-1 $171 $246 $173 $265 reversed $101 $-1 #
vertex $-1 $257 $354 #
straight-curve $-1 0 -32.15623917350009 14.558090323899181 1 0 0 I I #
edge $-1 $176 -14.558090323899181 $254 14.558090323899181 $173 $355 forward 7 unknown #
edge $-1 $177 -14.558090323899181 $253 14.558090323899181 $174 $356 forward 7 unknown #
point $-1 57.855769524216441 -32.15623917350009 14.558090323899181 #
point $-1 57.855769524216441 32.15623917350009 14.558090323899181 #
face $-1 $-1 $282 $25 $-1 $357 reversed single #
plane-surface $-1 -51.569315371288823 -39.615186735240727 0 -1 0 0 0 0 1 forward_v I I I I #
coedge $-1 $358 $359 $360 $361 forward $180 $-1 #
coedge $-1 $360 $182 $281 $362 reversed $109 $-1 #
coedge $-1 $182 $360 $183 $276 reversed $109 $-1 #
edge $-1 $278 -14.558090323899181 $283 14.558090323899181 $182 $363 forward 7 unknown #
coedge $-1 $184 $183 $359 $364 forward $69 $-1 #
edge $-1 $278 32.15623917350009 $365 47.074134296981363 $273 $366 forward 7 unknown #
edge $-1 $367 -7.4589475617406364 $192 7.4589475617406364 $189 $368 forward 7 unknown #
vertex $-1 $276 $369 #
straight-curve $-1 0 -32.15623917350009 14.558090323899181 -1 0 0 I I #
coedge $-1 $370 $187 $190 $286 forward $282 $-1 #
coedge $-1 $187 $370 $272 $362 forward $282 $-1 #
loop $-1 $-1 $187 $269 #
vertex $-1 $274 $371 #
straight-curve $-1 0 -32.15623917350009 -14.558090323899181 1 0 0 I I #
coedge $-1 $190 $189 $372 $373 forward $191 $-1 #
edge $-1 $193 -7.4589475617406364 $374 7.4589475617406364 $190 $375 forward 7 unknown #
point $-1 -51.569315371288823 -32.15623917350009 14.558090323899181 #
point $-1 -51.569315371288823 -32.15623917350009 -14.558090323899181 #
plane-surface $-1 0 0 14.558090323899181 0 0 1 1 0 0 forward_v I I I I #
coedge $-1 $300 $299 $292 $376 forward $196 $-1 #
coedge $-1 $292 $198 $200 $296 reversed $117 $-1 #
coedge $-1 $198 $291 $290 $376 reversed $117 $-1 #
coedge $-1 $206 $201 $198 $294 forward $207 $-1 #
edge $-1 $297 -20.649625639675968 $377 -12.690073412549509 $293 $378 forward 7 unknown #
coedge $-1 $200 $199 $300 $379 reversed $73 $-1 #
edge $-1 $380 2.0733024663016622e-014 $297 11.458225601779946 $291 $381 forward 7 unknown #
vertex $-1 $202 $382 #
straight-curve $-1 -49.896217297089976 -5.2887303137721737 14.558090323899181 0 1 0 I I #
coedge $-1 $290 $203 $206 $304 reversed $196 $-1 #
coedge $-1 $203 $290 $295 $379 forward $196 $-1 #
vertex $-1 $204 $383 #
straight-curve $-1 -57.855769524216441 -13.583176288156348 43.34786034217656 0 0 1 I I #
straight-curve $-1 -57.855769524216456 -13.583176288156348 6.3157325128762096 -0.69465836192734942 0 -0.71933980857756763 I I #
edge $-1 $377 7.5717449669323464 $208 13.583176288156348 $299 $384 forward 7 unknown #
point $-1 -57.855769524216441 -13.583176288156348 14.558090323899181 #
point $-1 -49.896217297089983 -13.583176288156348 14.558090323899181 #
edge $-1 $385 1 $385 0 $211 $-1 forward 7 unknown #
vertex $-1 $212 $386 #
ellipse-curve $-1 -52.917857900064391 -11.865624482092347 9.511650733029315 -0.71933980857756763 0 0.69465836192734942 0.34732918096367471 0 0.35966990428878381 1 I I #
point $-1 -53.528664229689532 -11.865624482092347 10.796581322676483 #
edge $-1 $387 1 $387 0 $215 $-1 forward 7 unknown #
vertex $-1 $216 $388 #
ellipse-curve $-1 -52.917857900064391 -9.2892967729963445 9.511650733029315 -0.71933980857756763 0 0.69465836192734942 0.34732918096367471 0 0.35966990428878381 1 I I #
point $-1 -53.528664229689532 -9.2892967729963445 10.796581322676483 #
loop $-1 $-1 $227 $219 #
plane-surface $-1 -57.855769524216441 0 0 1 0 0 0 0 -1 forward_v I I I I #
coedge $-1 $318 $222 $224 $322 reversed $139 $-1 #
coedge $-1 $222 $317 $389 $390 reversed $139 $-1 #
coedge $-1 $230 $225 $222 $320 forward $220 $-1 #
edge $-1 $323 -20.649625639675968 $391 -12.690073412549509 $319 $392 forward 7 unknown #
coedge $-1 $224 $223 $326 $393 reversed $87 $-1 #
edge $-1 $394 2.0733024663016622e-014 $323 11.458225601779946 $317 $395 forward 7 unknown #
vertex $-1 $226 $396 #
straight-curve $-1 -49.896217297089976 7.0599154921075531 14.558090323899181 0 1 0 I I #
coedge $-1 $389 $227 $230 $330 reversed $315 $-1 #
coedge $-1 $227 $389 $321 $393 forward $315 $-1 #
vertex $-1 $228 $397 #
straight-curve $-1 -57.855769524216441 11.114115323603105 43.34786034217656 0 0 1 I I #
straight-curve $-1 -57.855769524216456 11.114115323603105 6.3157325128762096 -0.69465836192734942 0 -0.71933980857756763 I I #
edge $-1 $391 -17.125546644827107 $231 -11.114115323603105 $325 $398 forward 7 unknown #
point $-1 -57.855769524216441 11.114115323603105 14.558090323899181 #
point $-1 -49.896217297089983 11.114115323603105 14.558090323899181 #
edge $-1 $399 1 $399 0 $234 $-1 forward 7 unknown #
vertex $-1 $235 $400 #
ellipse-curve $-1 -52.917857900064391 12.831667129667103 9.511650733029315 -0.71933980857756763 0 0.69465836192734942 0.34732918096367471 0 0.35966990428878381 1 I I #
point $-1 -53.528664229689532 12.831667129667103 10.796581322676483 #
edge $-1 $401 1 $401 0 $238 $-1 forward 7 unknown #
vertex $-1 $239 $402 #
ellipse-curve $-1 -52.917857900064391 15.407994838763109 9.511650733029315 -0.71933980857756763 0 0.69465836192734942 0.34732918096367471 0 0.35966990428878381 1 I I #
point $-1 -53.528664229689532 15.407994838763109 10.796581322676483 #
plane-surface $-1 57.855769524216441 0 0 -1 0 0 0 0 1 forward_v I I I I #
coedge $-1 $247 $245 $249 $346 reversed $161 $-1 #
edge $-1 $260 -14.558090323899181 $348 14.558090323899181 $259 $403 forward 7 unknown #
vertex $-1 $346 $404 #
straight-curve $-1 -57.855769524216441 -32.15623917350009 0 0 0 -1 I I #
edge $-1 $344 -32.15623917350009 $348 32.15623917350009 $342 $405 forward 7 unknown #
straight-curve $-1 0 -32.15623917350009 -14.558090323899181 -1 0 0 I I #
vertex $-1 $252 $406 #
straight-curve $-1 0 32.15623917350009 -14.558090323899181 1 0 0 I I #
point $-1 57.855769524216441 32.15623917350009 -14.558090323899181 #
point $-1 57.855769524216441 -32.15623917350009 -14.558090323899181 #
straight-curve $-1 -57.855769524216441 0 14.558090323899181 0 -1 0 I I #
point $-1 -57.855769524216441 32.15623917350009 14.558090323899181 #
point $-1 -57.855769524216441 -32.15623917350009 14.558090323899181 #
straight-curve $-1 57.855769524216441 -32.15623917350009 0 0 0 -1 I I #
straight-curve $-1 57.855769524216441 32.15623917350009 0 0 0 -1 I I #
plane-surface $-1 0 0 -14.558090323899181 0 0 1 1 0 0 forward_v I I I I #
coedge $-1 $372 $271 $370 $407 reversed $180 $-1 #
coedge $-1 $271 $372 $275 $364 reversed $180 $-1 #
coedge $-1 $273 $272 $271 $361 reversed $109 $-1 #
edge $-1 $365 -14.558090323899181 $408 14.558090323899181 $360 $409 forward 7 unknown #
edge $-1 $408 -47.074134296981363 $283 -32.15623917350009 $272 $410 forward 7 unknown #
straight-curve $-1 -57.855769524216441 -32.15623917350009 0 0 0 -1 I I #
edge $-1 $365 -3.1432270764638091 $367 3.1432270764638091 $359 $411 forward 7 unknown #
vertex $-1 $276 $412 #
straight-curve $-1 -57.855769524216441 0 14.558090323899181 0 -1 0 I I #
vertex $-1 $277 $413 #
straight-curve $-1 -51.569315371288823 -39.615186735240727 14.558090323899181 0 1 0 I I #
point $-1 -57.855769524216441 -32.15623917350009 14.558090323899181 #
coedge $-1 $281 $280 $358 $407 forward $282 $-1 #
point $-1 -57.855769524216441 -32.15623917350009 -14.558090323899181 #
coedge $-1 $359 $358 $285 $373 reversed $180 $-1 #
edge $-1 $367 -14.558090323899181 $374 14.558090323899181 $285 $414 forward 7 unknown #
vertex $-1 $373 $415 #
straight-curve $-1 -51.569315371288823 -39.615186735240727 -14.558090323899181 0 -1 0 I I #
edge $-1 $377 28.78977001827738 $380 37.032127829300336 $290 $416 forward 7 unknown #
vertex $-1 $304 $417 #
straight-curve $-1 -70.545842936765951 -7.5717449669323464 14.558090323899179 -1 0 0 I I #
edge $-1 $380 2.2830146531601727 $301 8.2944459743841747 $300 $418 forward 7 unknown #
vertex $-1 $379 $419 #
straight-curve $-1 -57.855769524216456 -7.5717449669323464 6.3157325128762096 0.69465836192734942 0 0.71933980857756763 I I #
point $-1 -49.896217297089983 -7.5717449669323464 14.558090323899181 #
point $-1 -57.855769524216441 -13.583176288156348 6.3157325128762247 #
straight-curve $-1 -57.855769524216441 0 14.558090323899181 0 -1 0 I I #
vertex $-1 $307 $420 #
point $-1 -52.570528719100722 -11.865624482092347 9.8713206373180977 #
vertex $-1 $311 $421 #
point $-1 -52.570528719100722 -9.2892967729963445 9.8713206373180977 #
coedge $-1 $326 $325 $318 $390 forward $315 $-1 #
edge $-1 $391 28.78977001827738 $394 37.032127829300336 $389 $422 forward 7 unknown #
vertex $-1 $330 $423 #
straight-curve $-1 -70.545842936765951 17.125546644827107 14.558090323899179 -1 0 0 I I #
edge $-1 $394 -10.065631152719554 $327 -4.0541998314955521 $326 $424 forward 7 unknown #
vertex $-1 $393 $425 #
straight-curve $-1 -57.855769524216456 17.125546644827107 6.3157325128762096 0.69465836192734942 0 0.71933980857756763 I I #
point $-1 -49.896217297089983 17.125546644827107 14.558090323899181 #
point $-1 -57.855769524216441 11.114115323603105 6.3157325128762247 #
straight-curve $-1 -57.855769524216441 0 14.558090323899181 0 -1 0 I I #
vertex $-1 $333 $426 #
point $-1 -52.570528719100722 12.831667129667103 9.8713206373180977 #
vertex $-1 $337 $427 #
point $-1 -52.570528719100722 15.407994838763109 9.8713206373180977 #
straight-curve $-1 -57.855769524216441 32.15623917350009 0 0 0 -1 I I #
point $-1 -57.855769524216441 -32.15623917350009 -14.558090323899181 #
straight-curve $-1 -57.855769524216441 0 -14.558090323899181 0 1 0 I I #
point $-1 -57.855769524216441 32.15623917350009 -14.558090323899181 #
edge $-1 $374 -3.1432270764638091 $408 3.1432270764638091 $358 $428 forward 7 unknown #
vertex $-1 $362 $429 #
straight-curve $-1 -57.855769524216441 -47.074134296981363 0 0 0 -1 I I #
straight-curve $-1 -57.855769524216441 0 -14.558090323899181 0 1 0 I I #
straight-curve $-1 -54.712542447752632 -47.074134296981363 14.558090323899181 1 0 0 I I #
point $-1 -57.855769524216441 -47.074134296981363 14.558090323899181 #
point $-1 -51.569315371288823 -47.074134296981363 14.558090323899181 #
straight-curve $-1 -51.569315371288823 -47.074134296981363 0 0 0 -1 I I #
point $-1 -51.569315371288823 -47.074134296981363 -14.558090323899181 #
straight-curve $-1 -57.855769524216441 -7.5717449669323464 43.34786034217656 0 0 -1 I I #
point $-1 -57.855769524216441 -7.5717449669323464 14.558090323899181 #
straight-curve $-1 -57.855769524216441 -5.2887303137721737 6.3157325128762238 0 -1 0 I I #
point $-1 -57.855769524216441 -7.5717449669323464 6.3157325128762247 #
point $-1 -52.558187995775612 -11.865624482092347 9.1643215520656387 #
point $-1 -52.558187995775612 -9.2892967729963445 9.1643215520656387 #
straight-curve $-1 -57.855769524216441 17.125546644827107 43.34786034217656 0 0 -1 I I #
point $-1 -57.855769524216441 17.125546644827107 14.558090323899181 #
straight-curve $-1 -57.855769524216441 7.0599154921075531 6.3157325128762238 0 -1 0 I I #
point $-1 -57.855769524216441 17.125546644827107 6.3157325128762247 #
point $-1 -52.558187995775612 12.831667129667103 9.1643215520656387 #
point $-1 -52.558187995775612 15.407994838763109 9.1643215520656387 #
straight-curve $-1 -54.712542447752632 -47.074134296981363 -14.558090323899181 -1 0 0 I I #
point $-1 -57.855769524216441 -47.074134296981363 -14.558090323899181 #
End-of-ACIS-data 