500 0 6 0           
7 Unknown 11 ACIS 5.0 NT 24 Fri Mar 26 15:32:22 1999 
-1 9.9999999999999995e-007 1e-010 
body $-1 $6 $-1 $7 #
body $-1 $8 $-1 $9 #
body $-1 $10 $-1 $11 #
body $-1 $12 $-1 $13 #
body $-1 $14 $-1 $15 #
body $-1 $16 $-1 $17 #
lump $-1 $-1 $18 $0 #
transform $-1 1 0 0 0 1 0 0 0 1 61.428876613666191 37.193837804869318 12.480316393956043 1 rotate no_reflect no_shear #
lump $-1 $-1 $19 $1 #
transform $-1 1 0 0 0 1 0 0 0 1 61.428876613666191 37.193837804869318 12.480316393956043 1 rotate no_reflect no_shear #
lump $-1 $-1 $20 $2 #
transform $-1 1 0 0 0 1 0 0 0 1 61.428876613666191 37.193837804869318 12.480316393956043 1 rotate no_reflect no_shear #
lump $-1 $-1 $21 $3 #
transform $-1 1 0 0 0 1 0 0 0 1 61.428876613666191 37.193837804869318 12.480316393956043 1 rotate no_reflect no_shear #
lump $-1 $-1 $22 $4 #
transform $-1 1 0 0 0 1 0 0 0 1 61.428876613666191 37.193837804869318 12.480316393956043 1 rotate no_reflect no_shear #
lump $-1 $-1 $23 $5 #
transform $-1 1 0 0 0 1 0 0 0 1 61.428876613666191 37.193837804869318 12.480316393956043 1 rotate no_reflect no_shear #
shell $-1 $-1 $-1 $24 $-1 $6 #
shell $-1 $-1 $-1 $25 $-1 $8 #
shell $-1 $-1 $-1 $26 $-1 $10 #
shell $-1 $-1 $-1 $27 $-1 $12 #
shell $-1 $-1 $-1 $28 $-1 $14 #
shell $-1 $-1 $-1 $29 $-1 $16 #
face $-1 $30 $31 $18 $-1 $32 forward single #
face $-1 $33 $34 $19 $-1 $35 forward single #
face $-1 $36 $37 $20 $-1 $38 reversed single #
face $-1 $39 $40 $21 $-1 $41 forward single #
face $-1 $42 $43 $22 $-1 $44 forward single #
face $-1 $45 $46 $23 $-1 $47 forward single #
face $-1 $48 $49 $18 $-1 $50 reversed single #
loop $-1 $-1 $51 $24 #
plane-surface $-1 0 0 12.480316393956043 0 0 1 1 0 0 forward_v I I I I #
face $-1 $52 $53 $19 $-1 $54 reversed single #
loop $-1 $-1 $55 $25 #
plane-surface $-1 -61.428876613666191 0 0 1 0 0 0 0 -1 forward_v I I I I #
face $-1 $56 $57 $20 $-1 $58 reversed single #
loop $-1 $-1 $59 $26 #
plane-surface $-1 100.51347267227858 21.850684461309683 171.40344282509199 0 1 0 0.84804810408105047 0 0.52991925155115449 forward_v I I I I #
face $-1 $60 $61 $21 $-1 $62 forward single #
loop $-1 $63 $64 $27 #
cone-surface $-1 55.666066287018992 24.919315130021609 5.7185986658751737 -0.84804810408105047 0 -0.52991925155115449 0.79487887732673168 0 -1.2720721561215758 1 I I 0 1 1.5 forward I I I I #
face $-1 $65 $66 $22 $-1 $67 forward single #
loop $-1 $68 $69 $28 #
cone-surface $-1 55.666066287018992 29.522261133089501 5.7185986658751737 -0.84804810408105047 0 -0.52991925155115449 0.79487887732673168 0 -1.2720721561215758 1 I I 0 1 1.5 forward I I I I #
face $-1 $70 $71 $23 $-1 $72 forward single #
loop $-1 $73 $74 $29 #
cone-surface $-1 55.666066287018992 34.125207136157385 5.7185986658751737 -0.84804810408105047 0 -0.52991925155115449 0.79487887732673168 0 -1.2720721561215758 1 I I 0 1 1.5 forward I I I I #
face $-1 $75 $76 $18 $-1 $77 reversed single #
loop $-1 $-1 $78 $30 #
plane-surface $-1 0 0 -12.480316393956043 0 0 1 1 0 0 forward_v I I I I #
coedge $-1 $79 $80 $81 $82 forward $31 $-1 #
face $-1 $83 $84 $19 $-1 $85 forward single #
loop $-1 $-1 $86 $33 #
plane-surface $-1 0 37.193837804869318 0 0 -1 0 0 0 -1 forward_v I I I I #
coedge $-1 $87 $88 $89 $90 forward $34 $-1 #
face $-1 $91 $92 $20 $-1 $93 forward single #
loop $-1 $-1 $94 $36 #
plane-surface $-1 -3.6758120238182102 29.522261133089501 106.29875418760757 0.84804810408105047 0 0.52991925155115449 0.52991925155115449 0 -0.84804810408105047 forward_v I I I I #
coedge $-1 $95 $96 $97 $98 reversed $37 $-1 #
face $-1 $-1 $99 $21 $-1 $100 forward single #
loop $-1 $101 $102 $39 #
cone-surface $-1 52.507431965828715 24.919315130021609 3.7448649503535751 -0.84804810408105047 0 -0.52991925155115449 0.39743943866336584 0 -0.63603607806078788 1 I I -0.70710678118654757 0.70710678118654757 0.75 forward I I I I #
loop $-1 $-1 $103 $27 #
coedge $-1 $64 $64 $104 $105 reversed $40 $-1 #
face $-1 $-1 $106 $22 $-1 $107 forward single #
loop $-1 $108 $109 $42 #
cone-surface $-1 52.507431965828715 29.522261133089501 3.7448649503535751 -0.84804810408105047 0 -0.52991925155115449 0.39743943866336584 0 -0.63603607806078788 1 I I -0.70710678118654757 0.70710678118654757 0.75 forward I I I I #
loop $-1 $-1 $110 $28 #
coedge $-1 $69 $69 $111 $112 reversed $43 $-1 #
face $-1 $-1 $113 $23 $-1 $114 forward single #
loop $-1 $115 $116 $45 #
cone-surface $-1 52.507431965828715 34.125207136157385 3.7448649503535751 -0.84804810408105047 0 -0.52991925155115449 0.39743943866336584 0 -0.63603607806078788 1 I I -0.70710678118654757 0.70710678118654757 0.75 forward I I I I #
loop $-1 $-1 $117 $29 #
coedge $-1 $74 $74 $118 $119 reversed $46 $-1 #
face $-1 $120 $121 $18 $-1 $122 reversed single #
loop $-1 $-1 $123 $48 #
plane-surface $-1 0 -37.193837804869318 0 0 1 0 0 0 1 forward_v I I I I #
coedge $-1 $124 $125 $126 $127 forward $49 $-1 #
coedge $-1 $128 $51 $129 $130 forward $31 $-1 #
coedge $-1 $51 $128 $131 $132 forward $31 $-1 #
coedge $-1 $133 $134 $51 $82 reversed $135 $-1 #
edge $-1 $136 -37.193837804869318 $137 37.193837804869318 $81 $138 forward 7 unknown #
face $-1 $139 $140 $19 $-1 $141 reversed single #
loop $-1 $-1 $89 $52 #
plane-surface $-1 -67.27851787596228 0 -5.2846428999560926 0 0 1 1 0 0 forward_v I I I I #
coedge $-1 $142 $143 $88 $144 forward $53 $-1 #
coedge $-1 $145 $55 $146 $147 reversed $34 $-1 #
coedge $-1 $55 $145 $86 $144 reversed $34 $-1 #
coedge $-1 $148 $149 $55 $90 reversed $84 $-1 #
edge $-1 $150 -37.193837804869318 $151 37.193837804869318 $89 $152 forward 7 unknown #
face $-1 $153 $154 $20 $-1 $155 reversed single #
loop $-1 $-1 $156 $56 #
plane-surface $-1 0 0 12.480316393956043 0 0 1 1 0 0 forward_v I I I I #
coedge $-1 $157 $158 $159 $160 reversed $57 $-1 #
coedge $-1 $96 $59 $161 $162 reversed $37 $-1 #
coedge $-1 $59 $95 $157 $163 reversed $37 $-1 #
coedge $-1 $159 $164 $59 $98 forward $154 $-1 #
edge $-1 $165 73.221405018589948 $166 83.592251921035199 $97 $167 forward 7 unknown #
loop $-1 $-1 $104 $60 #
plane-surface $-1 -3.6758120238182102 29.522261133089501 106.29875418760757 0.84804810408105047 0 0.52991925155115449 0.52991925155115449 0 -0.84804810408105047 forward_v I I I I #
loop $-1 $-1 $168 $39 #
coedge $-1 $102 $102 $103 $169 reversed $61 $-1 #
coedge $-1 $103 $103 $102 $169 forward $63 $-1 #
coedge $-1 $104 $104 $64 $105 forward $99 $-1 #
edge $-1 $170 0 $170 6.2831853071796004 $104 $171 forward 7 unknown #
loop $-1 $-1 $111 $65 #
plane-surface $-1 -3.6758120238182102 29.522261133089501 106.29875418760757 0.84804810408105047 0 0.52991925155115449 0.52991925155115449 0 -0.84804810408105047 forward_v I I I I #
loop $-1 $-1 $172 $42 #
coedge $-1 $109 $109 $110 $173 reversed $66 $-1 #
coedge $-1 $110 $110 $109 $173 forward $68 $-1 #
coedge $-1 $111 $111 $69 $112 forward $106 $-1 #
edge $-1 $174 0 $174 6.2831853071796004 $111 $175 forward 7 unknown #
loop $-1 $-1 $118 $70 #
plane-surface $-1 -3.6758120238182102 29.522261133089501 106.29875418760757 0.84804810408105047 0 0.52991925155115449 0.52991925155115449 0 -0.84804810408105047 forward_v I I I I #
loop $-1 $-1 $176 $45 #
coedge $-1 $116 $116 $117 $177 reversed $71 $-1 #
coedge $-1 $117 $117 $116 $177 forward $73 $-1 #
coedge $-1 $118 $118 $74 $119 forward $113 $-1 #
edge $-1 $178 0 $178 6.2831853071796004 $118 $179 forward 7 unknown #
face $-1 $180 $181 $18 $-1 $182 reversed single #
loop $-1 $-1 $183 $75 #
plane-surface $-1 -61.428876613666191 0 0 1 0 0 0 0 -1 forward_v I I I I #
coedge $-1 $184 $131 $185 $186 forward $76 $-1 #
coedge $-1 $187 $78 $184 $188 forward $49 $-1 #
coedge $-1 $78 $187 $189 $190 forward $49 $-1 #
coedge $-1 $134 $133 $78 $127 reversed $135 $-1 #
edge $-1 $191 -37.193837804869318 $192 37.193837804869318 $126 $193 forward 7 unknown #
coedge $-1 $80 $79 $194 $195 forward $31 $-1 #
coedge $-1 $196 $197 $79 $130 reversed $181 $-1 #
edge $-1 $137 -61.428876613666191 $198 61.428876613666191 $129 $199 forward 7 unknown #
coedge $-1 $123 $200 $80 $132 reversed $76 $-1 #
edge $-1 $201 -61.428876613666191 $136 61.428876613666191 $131 $202 forward 7 unknown #
coedge $-1 $126 $81 $200 $203 forward $135 $-1 #
coedge $-1 $81 $126 $196 $204 reversed $135 $-1 #
loop $-1 $-1 $133 $180 #
vertex $-1 $82 $205 #
vertex $-1 $82 $206 #
straight-curve $-1 61.428876613666191 0 12.480316393956043 0 1 0 I I #
face $-1 $207 $208 $19 $-1 $209 reversed single #
loop $-1 $-1 $210 $83 #
plane-surface $-1 -73.128159138258354 0 -8.8824796469560674 1 0 0 0 0 -1 forward_v I I I I #
coedge $-1 $211 $86 $212 $213 reversed $53 $-1 #
coedge $-1 $86 $211 $148 $214 reversed $53 $-1 #
edge $-1 $150 5.2846428999560926 $215 12.480316393956043 $86 $216 forward 7 unknown #
coedge $-1 $88 $87 $217 $218 reversed $34 $-1 #
coedge $-1 $219 $220 $87 $147 forward $221 $-1 #
edge $-1 $222 -12.480316393956043 $151 -5.2846428999560926 $146 $223 forward 7 unknown #
coedge $-1 $224 $89 $143 $214 forward $84 $-1 #
coedge $-1 $89 $224 $219 $225 forward $84 $-1 #
vertex $-1 $144 $226 #
vertex $-1 $225 $227 #
straight-curve $-1 -61.428876613666191 0 -5.2846428999560926 0 -1 0 I I #
face $-1 $-1 $228 $20 $-1 $229 reversed single #
loop $-1 $-1 $97 $91 #
plane-surface $-1 61.428876613666191 0 0 -1 0 0 0 0 1 forward_v I I I I #
coedge $-1 $161 $230 $231 $232 forward $92 $-1 #
coedge $-1 $231 $94 $96 $163 forward $57 $-1 #
coedge $-1 $94 $231 $233 $234 reversed $57 $-1 #
coedge $-1 $235 $97 $94 $160 forward $154 $-1 #
edge $-1 $166 7.0895538947649328 $236 22.432707238324568 $159 $237 forward 7 unknown #
coedge $-1 $238 $156 $95 $162 forward $92 $-1 #
edge $-1 $239 4.6917161104914982 $165 11.1721402775269 $161 $240 forward 7 unknown #
edge $-1 $166 -122.85775322733235 $239 -110.62867464966942 $96 $241 forward 7 unknown #
coedge $-1 $97 $235 $238 $242 reversed $154 $-1 #
vertex $-1 $242 $243 #
vertex $-1 $98 $244 #
straight-curve $-1 61.428876613666191 21.850684461309683 85.701721412545993 0 0 -1 I I #
coedge $-1 $168 $168 $-1 $245 reversed $101 $-1 #
edge $-1 $246 0 $246 6.2831853071796004 $102 $247 forward 7 unknown #
vertex $-1 $105 $248 #
ellipse-curve $-1 58.188664530148493 24.919315130021609 7.2948929427334139 0.84804810408105047 0 0.52991925155115449 0.79487887732673168 0 -1.2720721561215758 1 I I #
coedge $-1 $172 $172 $-1 $249 reversed $108 $-1 #
edge $-1 $250 0 $250 6.2831853071796004 $109 $251 forward 7 unknown #
vertex $-1 $112 $252 #
ellipse-curve $-1 58.188664530148493 29.522261133089501 7.2948929427334139 0.84804810408105047 0 0.52991925155115449 0.79487887732673168 0 -1.2720721561215758 1 I I #
coedge $-1 $176 $176 $-1 $253 reversed $115 $-1 #
edge $-1 $254 0 $254 6.2831853071796004 $116 $255 forward 7 unknown #
vertex $-1 $119 $256 #
ellipse-curve $-1 58.188664530148493 34.125207136157385 7.2948929427334139 0.84804810408105047 0 0.52991925155115449 0.79487887732673168 0 -1.2720721561215758 1 I I #
face $-1 $-1 $135 $18 $-1 $257 reversed single #
loop $-1 $-1 $196 $120 #
plane-surface $-1 0 37.193837804869318 0 0 -1 0 0 0 -1 forward_v I I I I #
coedge $-1 $258 $194 $197 $259 forward $121 $-1 #
coedge $-1 $200 $123 $124 $188 reversed $76 $-1 #
coedge $-1 $194 $258 $123 $186 reversed $121 $-1 #
edge $-1 $201 -12.480316393956043 $260 12.480316393956043 $185 $261 forward 7 unknown #
coedge $-1 $125 $124 $258 $262 forward $49 $-1 #
edge $-1 $192 -61.428876613666191 $260 61.428876613666191 $184 $263 forward 7 unknown #
coedge $-1 $197 $196 $125 $190 reversed $181 $-1 #
edge $-1 $264 -61.428876613666191 $191 61.428876613666191 $189 $265 forward 7 unknown #
vertex $-1 $127 $266 #
vertex $-1 $203 $267 #
straight-curve $-1 61.428876613666191 0 -12.480316393956043 0 -1 0 I I #
coedge $-1 $183 $185 $128 $195 reversed $121 $-1 #
edge $-1 $198 -37.193837804869318 $201 37.193837804869318 $194 $268 forward 7 unknown #
coedge $-1 $189 $129 $134 $204 forward $181 $-1 #
coedge $-1 $129 $189 $183 $259 reversed $181 $-1 #
vertex $-1 $130 $269 #
straight-curve $-1 0 37.193837804869318 12.480316393956043 -1 0 0 I I #
coedge $-1 $131 $184 $133 $203 reversed $76 $-1 #
vertex $-1 $195 $270 #
straight-curve $-1 0 -37.193837804869318 12.480316393956043 1 0 0 I I #
edge $-1 $136 -12.480316393956043 $192 12.480316393956043 $133 $271 forward 7 unknown #
edge $-1 $137 -12.480316393956043 $191 12.480316393956043 $134 $272 forward 7 unknown #
point $-1 61.428876613666191 -37.193837804869318 12.480316393956043 #
point $-1 61.428876613666191 37.193837804869318 12.480316393956043 #
face $-1 $-1 $221 $19 $-1 $273 reversed single #
loop $-1 $-1 $217 $139 #
plane-surface $-1 0 0 -12.480316393956043 0 0 1 1 0 0 forward_v I I I I #
coedge $-1 $274 $275 $211 $276 forward $140 $-1 #
coedge $-1 $143 $142 $210 $276 reversed $53 $-1 #
coedge $-1 $217 $277 $142 $213 forward $208 $-1 #
edge $-1 $278 -73.128159138258354 $215 -61.428876613666191 $142 $279 forward 7 unknown #
edge $-1 $150 -5.8496412622960818 $280 5.8496412622960747 $143 $281 forward 7 unknown #
vertex $-1 $144 $282 #
straight-curve $-1 -61.428876613666191 37.193837804869318 0 0 0 -1 I I #
coedge $-1 $283 $212 $145 $218 forward $208 $-1 #
edge $-1 $215 -37.193837804869318 $222 37.193837804869318 $217 $284 forward 7 unknown #
coedge $-1 $285 $146 $149 $225 reversed $221 $-1 #
coedge $-1 $146 $285 $283 $286 reversed $221 $-1 #
loop $-1 $-1 $146 $207 #
vertex $-1 $286 $287 #
straight-curve $-1 -61.428876613666191 -37.193837804869318 0 0 0 1 I I #
coedge $-1 $149 $148 $275 $288 forward $84 $-1 #
edge $-1 $289 -5.8496412622960747 $151 5.8496412622960818 $219 $290 forward 7 unknown #
point $-1 -61.428876613666198 37.193837804869318 -5.2846428999560926 #
point $-1 -61.428876613666198 -37.193837804869318 -5.2846428999560926 #
loop $-1 $-1 $233 $153 #
plane-surface $-1 0 37.193837804869318 0 0 -1 0 0 0 -1 forward_v I I I I #
coedge $-1 $156 $238 $291 $292 forward $92 $-1 #
coedge $-1 $158 $157 $156 $232 reversed $57 $-1 #
edge $-1 $293 -22.432707238324568 $239 -7.0895538947649328 $156 $294 forward 7 unknown #
coedge $-1 $291 $295 $158 $234 forward $228 $-1 #
edge $-1 $236 -76.810582971591003 $293 -64.581504393928071 $233 $296 forward 7 unknown #
coedge $-1 $164 $159 $295 $297 reversed $154 $-1 #
vertex $-1 $160 $298 #
straight-curve $-1 61.428876613666191 14.76113056654475 2.1094694915108079 0 1 0 I I #
coedge $-1 $230 $161 $164 $242 forward $92 $-1 #
vertex $-1 $162 $299 #
straight-curve $-1 50.256736336139291 21.850684461309683 12.480316393956045 1 0 0 I I #
straight-curve $-1 -3.6758120238182102 21.850684461309683 106.29875418760757 -0.52991925155115449 0 0.84804810408105047 I I #
edge $-1 $165 21.850684461309683 $300 37.193837804869318 $164 $301 forward 7 unknown #
point $-1 61.428876613666191 21.850684461309683 12.480316393956043 #
point $-1 61.428876613666191 21.850684461309683 2.1094694915107937 #
edge $-1 $302 1 $302 0 $168 $-1 forward 7 unknown #
vertex $-1 $169 $303 #
ellipse-curve $-1 53.143468043889506 24.919315130021609 4.1423043890169406 0.84804810408105047 0 0.52991925155115449 0.79487887732673168 0 -1.2720721561215758 1 I I #
point $-1 58.98354340747521 24.919315130021609 6.0228207866118302 #
edge $-1 $304 1 $304 0 $172 $-1 forward 7 unknown #
vertex $-1 $173 $305 #
ellipse-curve $-1 53.143468043889506 29.522261133089501 4.1423043890169406 0.84804810408105047 0 0.52991925155115449 0.79487887732673168 0 -1.2720721561215758 1 I I #
point $-1 58.98354340747521 29.522261133089501 6.0228207866118302 #
edge $-1 $306 1 $306 0 $176 $-1 forward 7 unknown #
vertex $-1 $177 $307 #
ellipse-curve $-1 53.143468043889506 34.125207136157385 4.1423043890169406 0.84804810408105047 0 0.52991925155115449 0.79487887732673168 0 -1.2720721561215758 1 I I #
point $-1 58.98354340747521 34.125207136157385 6.0228207866118302 #
plane-surface $-1 61.428876613666191 0 0 -1 0 0 0 0 1 forward_v I I I I #
coedge $-1 $185 $183 $187 $262 reversed $121 $-1 #
edge $-1 $198 -12.480316393956043 $264 12.480316393956043 $197 $308 forward 7 unknown #
vertex $-1 $262 $309 #
straight-curve $-1 -61.428876613666191 -37.193837804869318 0 0 0 -1 I I #
edge $-1 $260 -37.193837804869318 $264 37.193837804869318 $258 $310 forward 7 unknown #
straight-curve $-1 0 -37.193837804869318 -12.480316393956043 -1 0 0 I I #
vertex $-1 $190 $311 #
straight-curve $-1 0 37.193837804869318 -12.480316393956043 1 0 0 I I #
point $-1 61.428876613666191 37.193837804869318 -12.480316393956043 #
point $-1 61.428876613666191 -37.193837804869318 -12.480316393956043 #
straight-curve $-1 -61.428876613666191 0 12.480316393956043 0 -1 0 I I #
point $-1 -61.428876613666191 37.193837804869318 12.480316393956043 #
point $-1 -61.428876613666191 -37.193837804869318 12.480316393956043 #
straight-curve $-1 61.428876613666191 -37.193837804869318 0 0 0 -1 I I #
straight-curve $-1 61.428876613666191 37.193837804869318 0 0 0 -1 I I #
plane-surface $-1 0 -37.193837804869318 0 0 1 0 0 0 1 forward_v I I I I #
coedge $-1 $312 $210 $277 $313 reversed $140 $-1 #
coedge $-1 $210 $312 $224 $288 reversed $140 $-1 #
edge $-1 $280 -3.5978367469999748 $278 3.5978367469999739 $211 $314 forward 7 unknown #
coedge $-1 $212 $283 $274 $313 forward $208 $-1 #
vertex $-1 $213 $315 #
straight-curve $-1 0 37.193837804869318 -12.480316393956043 1 0 0 I I #
vertex $-1 $214 $316 #
straight-curve $-1 -67.27851787596228 37.193837804869318 -5.2846428999560926 -1 0 0 I I #
point $-1 -61.428876613666191 37.193837804869318 -12.480316393956043 #
coedge $-1 $277 $217 $220 $286 forward $208 $-1 #
straight-curve $-1 -61.428876613666191 0 -12.480316393956043 0 -1 0 I I #
coedge $-1 $220 $219 $312 $317 forward $221 $-1 #
edge $-1 $222 -5.8496412622960889 $318 5.8496412622960747 $220 $319 forward 7 unknown #
point $-1 -61.428876613666191 -37.193837804869318 -12.480316393956043 #
edge $-1 $280 -37.193837804869318 $289 37.193837804869318 $275 $320 forward 7 unknown #
vertex $-1 $288 $321 #
straight-curve $-1 -67.27851787596228 -37.193837804869318 -5.2846428999560926 1 0 0 I I #
coedge $-1 $295 $233 $230 $292 reversed $228 $-1 #
edge $-1 $300 -61.428876613666191 $293 -54.948452446630789 $291 $322 forward 7 unknown #
vertex $-1 $234 $323 #
straight-curve $-1 54.948452446630796 14.76113056654475 12.480316393956045 0 -1 0 I I #
coedge $-1 $233 $291 $235 $297 forward $228 $-1 #
straight-curve $-1 20.725469974152833 37.193837804869318 67.24853875392877 -0.52991925155115449 0 0.84804810408105047 I I #
edge $-1 $300 -12.480316393956043 $236 -2.1094694915108034 $235 $324 forward 7 unknown #
point $-1 61.428876613666191 37.193837804869318 2.1094694915108034 #
point $-1 54.948452446630789 21.850684461309683 12.480316393956045 #
vertex $-1 $242 $325 #
straight-curve $-1 61.428876613666191 0 12.480316393956043 0 1 0 I I #
vertex $-1 $245 $326 #
point $-1 53.938346921216237 24.919315130021609 2.8702322328953653 #
vertex $-1 $249 $327 #
point $-1 53.938346921216237 29.522261133089501 2.8702322328953653 #
vertex $-1 $253 $328 #
point $-1 53.938346921216237 34.125207136157385 2.8702322328953653 #
straight-curve $-1 -61.428876613666191 37.193837804869318 0 0 0 -1 I I #
point $-1 -61.428876613666191 -37.193837804869318 -12.480316393956043 #
straight-curve $-1 -61.428876613666191 0 -12.480316393956043 0 1 0 I I #
point $-1 -61.428876613666191 37.193837804869318 -12.480316393956043 #
coedge $-1 $275 $274 $285 $317 reversed $140 $-1 #
edge $-1 $318 -37.193837804869318 $278 37.193837804869318 $274 $329 forward 7 unknown #
straight-curve $-1 -73.128159138258354 37.193837804869318 -8.8824796469560674 0 0 -1 I I #
point $-1 -73.128159138258354 37.193837804869318 -12.480316393956041 #
point $-1 -73.128159138258354 37.193837804869318 -5.2846428999560926 #
edge $-1 $289 -3.5978367469999748 $318 3.5978367469999739 $312 $330 forward 7 unknown #
vertex $-1 $313 $331 #
straight-curve $-1 -67.27851787596228 -37.193837804869318 -12.480316393956041 -1 0 0 I I #
straight-curve $-1 -73.128159138258354 0 -5.2846428999560926 0 -1 0 I I #
point $-1 -73.128159138258354 -37.193837804869318 -5.2846428999560926 #
straight-curve $-1 0 37.193837804869318 12.480316393956043 -1 0 0 I I #
point $-1 54.948452446630789 37.193837804869318 12.480316393956045 #
straight-curve $-1 61.428876613666191 37.193837804869318 0 0 0 -1 I I #
point $-1 61.428876613666191 37.193837804869318 12.480316393956043 #
point $-1 51.871395887767925 24.919315130021609 3.3474255116902092 #
point $-1 51.871395887767925 29.522261133089501 3.3474255116902092 #
point $-1 51.871395887767925 34.125207136157385 3.3474255116902092 #
straight-curve $-1 -73.128159138258354 0 -12.480316393956041 0 1 0 I I #
straight-curve $-1 -73.128159138258354 -37.193837804869318 -8.8824796469560674 0 0 -1 I I #
point $-1 -73.128159138258354 -37.193837804869318 -12.480316393956041 #
End-of-ACIS-data 