500 0 10 0           
7 Unknown 11 ACIS 5.0 NT 24 Fri Mar 26 17:37:10 1999 
-1 9.9999999999999995e-007 1e-010 
body $-1 $10 $-1 $11 #
body $-1 $12 $-1 $13 #
body $-1 $14 $-1 $15 #
body $-1 $16 $-1 $17 #
body $-1 $18 $-1 $19 #
body $-1 $20 $-1 $21 #
body $-1 $22 $-1 $23 #
body $-1 $24 $-1 $25 #
body $-1 $26 $-1 $27 #
body $-1 $28 $-1 $29 #
lump $-1 $-1 $30 $0 #
transform $-1 1 0 0 0 1 0 0 0 1 77.813653981139566 47.257659054068945 17.0717157574088 1 rotate no_reflect no_shear #
lump $-1 $-1 $31 $1 #
transform $-1 1 0 0 0 1 0 0 0 1 77.813653981139566 47.257659054068945 17.0717157574088 1 rotate no_reflect no_shear #
lump $-1 $-1 $32 $2 #
transform $-1 1 0 0 0 1 0 0 0 1 77.813653981139566 47.257659054068945 17.0717157574088 1 rotate no_reflect no_shear #
lump $-1 $-1 $33 $3 #
transform $-1 1 0 0 0 1 0 0 0 1 77.813653981139566 47.257659054068945 17.0717157574088 1 rotate no_reflect no_shear #
lump $-1 $-1 $34 $4 #
transform $-1 1 0 0 0 1 0 0 0 1 77.813653981139566 47.257659054068945 17.0717157574088 1 rotate no_reflect no_shear #
lump $-1 $-1 $35 $5 #
transform $-1 1 0 0 0 1 0 0 0 1 77.813653981139566 47.257659054068945 17.0717157574088 1 rotate no_reflect no_shear #
lump $-1 $-1 $36 $6 #
transform $-1 1 0 0 0 1 0 0 0 1 77.813653981139566 47.257659054068945 17.0717157574088 1 rotate no_reflect no_shear #
lump $-1 $-1 $37 $7 #
transform $-1 1 0 0 0 1 0 0 0 1 77.813653981139566 47.257659054068945 17.0717157574088 1 rotate no_reflect no_shear #
lump $-1 $-1 $38 $8 #
transform $-1 1 0 0 0 1 0 0 0 1 77.813653981139566 47.257659054068945 17.0717157574088 1 rotate no_reflect no_shear #
lump $-1 $-1 $39 $9 #
transform $-1 1 0 0 0 1 0 0 0 1 77.813653981139566 47.257659054068945 17.0717157574088 1 rotate no_reflect no_shear #
shell $-1 $-1 $-1 $40 $-1 $10 #
shell $-1 $-1 $-1 $41 $-1 $12 #
shell $-1 $-1 $-1 $42 $-1 $14 #
shell $-1 $-1 $-1 $43 $-1 $16 #
shell $-1 $-1 $-1 $44 $-1 $18 #
shell $-1 $-1 $-1 $45 $-1 $20 #
shell $-1 $-1 $-1 $46 $-1 $22 #
shell $-1 $-1 $-1 $47 $-1 $24 #
shell $-1 $-1 $-1 $48 $-1 $26 #
shell $-1 $-1 $-1 $49 $-1 $28 #
face $-1 $50 $51 $30 $-1 $52 forward single #
face $-1 $53 $54 $31 $-1 $55 forward single #
face $-1 $56 $57 $32 $-1 $58 reversed single #
face $-1 $59 $60 $33 $-1 $61 forward single #
face $-1 $62 $63 $34 $-1 $64 forward single #
face $-1 $65 $66 $35 $-1 $67 forward single #
face $-1 $68 $69 $36 $-1 $70 reversed single #
face $-1 $71 $72 $37 $-1 $73 forward single #
face $-1 $74 $75 $38 $-1 $76 forward single #
face $-1 $77 $78 $39 $-1 $79 forward single #
face $-1 $80 $81 $30 $-1 $82 reversed single #
loop $-1 $-1 $83 $40 #
plane-surface $-1 0 0 17.0717157574088 0 0 1 1 0 0 forward_v I I I I #
face $-1 $84 $85 $31 $-1 $86 reversed single #
loop $-1 $-1 $87 $41 #
plane-surface $-1 0 -47.257659054068945 0 0 1 0 0 0 1 forward_v I I I I #
face $-1 $88 $89 $32 $-1 $90 reversed single #
loop $-1 $-1 $91 $42 #
plane-surface $-1 28.304122053102304 -11.248716793726864 218.74683520720939 0 -1 0 -0.52991927123019833 0 -0.84804809178421925 forward_v I I I I #
face $-1 $92 $93 $33 $-1 $94 forward single #
loop $-1 $95 $96 $43 #
cone-surface $-1 66.571733887327582 -26.034270827720714 9.0516214038683174 -0.52991927123019833 0 -0.84804809178421925 1.2720721376763289 0 -0.79487890684529749 1 I I 0 1 1.5 forward I I I I #
face $-1 $97 $98 $34 $-1 $99 forward single #
loop $-1 $100 $101 $44 #
cone-surface $-1 66.571733887327582 -20.489688064973024 9.0516214038683174 -0.52991927123019833 0 -0.84804809178421925 1.2720721376763289 0 -0.79487890684529749 1 I I 0 1 1.5 forward I I I I #
face $-1 $102 $103 $35 $-1 $104 forward single #
loop $-1 $105 $106 $45 #
cone-surface $-1 66.571733887327582 -14.945105302225329 9.0516214038683174 -0.52991927123019833 0 -0.84804809178421925 1.2720721376763289 0 -0.79487890684529749 1 I I 0 1 1.5 forward I I I I #
face $-1 $107 $108 $36 $-1 $109 reversed single #
loop $-1 $-1 $110 $46 #
plane-surface $-1 -202.10314973275098 31.37762891690533 103.66369542557791 0 1 0 -0.79863551827123203 0 0.60181501223851219 forward_v I I I I #
face $-1 $111 $112 $37 $-1 $113 forward single #
loop $-1 $114 $115 $47 #
cone-surface $-1 -74.22374249763962 34.55363494433805 12.839527084294236 0.79863551827123203 0 -0.60181501223851219 0.60181501223851219 0 0.79863551827123203 1 I I 0 1 1 forward I I I I #
face $-1 $116 $117 $38 $-1 $118 forward single #
loop $-1 $119 $120 $48 #
cone-surface $-1 -74.22374249763962 39.31764398548713 12.839527084294236 0.79863551827123203 0 -0.60181501223851219 0.60181501223851219 0 0.79863551827123203 1 I I 0 1 1 forward I I I I #
face $-1 $121 $122 $39 $-1 $123 forward single #
loop $-1 $124 $125 $49 #
cone-surface $-1 -74.22374249763962 44.081653026636211 12.839527084294236 0.79863551827123203 0 -0.60181501223851219 0.60181501223851219 0 0.79863551827123203 1 I I 0 1 1 forward I I I I #
face $-1 $126 $127 $30 $-1 $128 reversed single #
loop $-1 $-1 $129 $50 #
plane-surface $-1 0 0 -17.0717157574088 0 0 1 1 0 0 forward_v I I I I #
coedge $-1 $130 $131 $132 $133 forward $51 $-1 #
face $-1 $134 $135 $31 $-1 $136 forward single #
loop $-1 $-1 $137 $53 #
plane-surface $-1 -77.813653981139566 0 0 1 0 0 0 0 -1 forward_v I I I I #
coedge $-1 $138 $139 $140 $141 forward $54 $-1 #
face $-1 $142 $143 $32 $-1 $144 reversed single #
loop $-1 $-1 $145 $56 #
plane-surface $-1 -54.165787565786289 -20.48968806497302 86.767393660283545 0.52991927123019833 0 0.84804809178421925 0.84804809178421925 0 -0.52991927123019833 forward_v I I I I #
coedge $-1 $146 $147 $148 $149 reversed $57 $-1 #
face $-1 $-1 $150 $33 $-1 $151 forward single #
loop $-1 $152 $153 $59 #
cone-surface $-1 65.153896200985002 -26.034270827720714 6.7826068394965908 -0.52991927123019833 0 -0.84804809178421925 0.63603606883816444 0 -0.39743945342264875 1 I I -0.70710678118654757 0.70710678118654757 0.75 forward I I I I #
loop $-1 $-1 $154 $43 #
coedge $-1 $96 $96 $155 $156 reversed $60 $-1 #
face $-1 $-1 $157 $34 $-1 $158 forward single #
loop $-1 $159 $160 $62 #
cone-surface $-1 65.153896200985002 -20.489688064973024 6.7826068394965908 -0.52991927123019833 0 -0.84804809178421925 0.63603606883816444 0 -0.39743945342264875 1 I I -0.70710678118654757 0.70710678118654757 0.75 forward I I I I #
loop $-1 $-1 $161 $44 #
coedge $-1 $101 $101 $162 $163 reversed $63 $-1 #
face $-1 $-1 $164 $35 $-1 $165 forward single #
loop $-1 $166 $167 $65 #
cone-surface $-1 65.153896200985002 -14.945105302225329 6.7826068394965908 -0.52991927123019833 0 -0.84804809178421925 0.63603606883816444 0 -0.39743945342264875 1 I I -0.70710678118654757 0.70710678118654757 0.75 forward I I I I #
loop $-1 $-1 $168 $45 #
coedge $-1 $106 $106 $169 $170 reversed $66 $-1 #
face $-1 $171 $172 $36 $-1 $173 forward single #
loop $-1 $-1 $174 $68 #
plane-surface $-1 -77.813653981139552 39.317643985487145 10.00484517961219 -0.79863551827123203 0 0.60181501223851219 0.60181501223851219 0 0.79863551827123203 forward_v I I I I #
coedge $-1 $175 $176 $177 $178 reversed $69 $-1 #
face $-1 $-1 $179 $37 $-1 $180 forward single #
loop $-1 $181 $182 $71 #
cone-surface $-1 -72.897147652025865 34.55363494433805 11.83986619395872 0.79863551827123203 0 -0.60181501223851219 0.3009075061192561 0 0.39931775913561601 1 I I -0.70710678118654746 0.70710678118654746 0.5 forward I I I I #
loop $-1 $-1 $183 $47 #
coedge $-1 $115 $115 $184 $185 reversed $72 $-1 #
face $-1 $-1 $186 $38 $-1 $187 forward single #
loop $-1 $188 $189 $74 #
cone-surface $-1 -72.897147652025865 39.31764398548713 11.83986619395872 0.79863551827123203 0 -0.60181501223851219 0.3009075061192561 0 0.39931775913561601 1 I I -0.70710678118654746 0.70710678118654746 0.5 forward I I I I #
loop $-1 $-1 $190 $48 #
coedge $-1 $120 $120 $191 $192 reversed $75 $-1 #
face $-1 $-1 $193 $39 $-1 $194 forward single #
loop $-1 $195 $196 $77 #
cone-surface $-1 -72.897147652025865 44.081653026636211 11.83986619395872 0.79863551827123203 0 -0.60181501223851219 0.3009075061192561 0 0.39931775913561601 1 I I -0.70710678118654746 0.70710678118654746 0.5 forward I I I I #
loop $-1 $-1 $197 $49 #
coedge $-1 $125 $125 $198 $199 reversed $78 $-1 #
face $-1 $200 $201 $30 $-1 $202 reversed single #
loop $-1 $-1 $203 $80 #
plane-surface $-1 0 -47.257659054068945 0 0 1 0 0 0 1 forward_v I I I I #
coedge $-1 $204 $205 $206 $207 forward $81 $-1 #
coedge $-1 $208 $83 $209 $210 forward $51 $-1 #
coedge $-1 $83 $208 $211 $212 forward $51 $-1 #
coedge $-1 $213 $214 $83 $133 reversed $215 $-1 #
edge $-1 $216 -47.257659054068945 $217 47.257659054068945 $132 $218 forward 7 unknown #
face $-1 $219 $220 $31 $-1 $221 reversed single #
loop $-1 $-1 $222 $84 #
plane-surface $-1 0 -56.021158912993826 -0.27042755269313279 0 0 1 1 0 0 forward_v I I I I #
coedge $-1 $223 $224 $139 $225 forward $85 $-1 #
coedge $-1 $226 $87 $227 $228 reversed $54 $-1 #
coedge $-1 $87 $226 $137 $225 reversed $54 $-1 #
coedge $-1 $229 $222 $87 $141 reversed $135 $-1 #
edge $-1 $230 -77.813653981139566 $231 77.813653981139566 $140 $232 forward 7 unknown #
face $-1 $233 $234 $32 $-1 $235 reversed single #
loop $-1 $-1 $236 $88 #
plane-surface $-1 28.304122053102304 -29.730659336219176 218.74683520720939 0 1 0 0.52991927123019833 0 0.84804809178421925 forward_v I I I I #
coedge $-1 $237 $238 $239 $240 reversed $89 $-1 #
coedge $-1 $147 $91 $241 $242 reversed $57 $-1 #
coedge $-1 $91 $146 $237 $243 reversed $57 $-1 #
coedge $-1 $239 $244 $91 $149 forward $245 $-1 #
edge $-1 $246 -63.661592954588414 $247 -43.218549232804151 $148 $248 forward 7 unknown #
loop $-1 $-1 $155 $92 #
plane-surface $-1 -54.165787565786289 -20.48968806497302 86.767393660283545 0.52991927123019833 0 0.84804809178421925 0.84804809178421925 0 -0.52991927123019833 forward_v I I I I #
loop $-1 $-1 $249 $59 #
coedge $-1 $153 $153 $154 $250 reversed $93 $-1 #
coedge $-1 $154 $154 $153 $250 forward $95 $-1 #
coedge $-1 $155 $155 $96 $156 forward $150 $-1 #
edge $-1 $251 0 $251 6.2831853071796004 $155 $252 forward 7 unknown #
loop $-1 $-1 $162 $97 #
plane-surface $-1 -54.165787565786289 -20.48968806497302 86.767393660283545 0.52991927123019833 0 0.84804809178421925 0.84804809178421925 0 -0.52991927123019833 forward_v I I I I #
loop $-1 $-1 $253 $62 #
coedge $-1 $160 $160 $161 $254 reversed $98 $-1 #
coedge $-1 $161 $161 $160 $254 forward $100 $-1 #
coedge $-1 $162 $162 $101 $163 forward $157 $-1 #
edge $-1 $255 0 $255 6.2831853071796004 $162 $256 forward 7 unknown #
loop $-1 $-1 $169 $102 #
plane-surface $-1 -54.165787565786289 -20.48968806497302 86.767393660283545 0.52991927123019833 0 0.84804809178421925 0.84804809178421925 0 -0.52991927123019833 forward_v I I I I #
loop $-1 $-1 $257 $65 #
coedge $-1 $167 $167 $168 $258 reversed $103 $-1 #
coedge $-1 $168 $168 $167 $258 forward $105 $-1 #
coedge $-1 $169 $169 $106 $170 forward $164 $-1 #
edge $-1 $259 0 $259 6.2831853071796004 $169 $260 forward 7 unknown #
face $-1 $261 $262 $36 $-1 $263 reversed single #
loop $-1 $-1 $177 $107 #
plane-surface $-1 0 0 17.0717157574088 0 0 1 1 0 0 forward_v I I I I #
coedge $-1 $264 $265 $266 $267 reversed $108 $-1 #
coedge $-1 $176 $110 $268 $269 reversed $69 $-1 #
coedge $-1 $110 $175 $264 $270 reversed $69 $-1 #
coedge $-1 $266 $271 $110 $178 forward $172 $-1 #
edge $-1 $272 23.237920885235923 $273 28.56318967927956 $177 $274 forward 7 unknown #
loop $-1 $-1 $184 $111 #
plane-surface $-1 -77.813653981139552 39.317643985487145 10.00484517961219 -0.79863551827123203 0 0.60181501223851219 0.60181501223851219 0 0.79863551827123203 forward_v I I I I #
loop $-1 $-1 $275 $71 #
coedge $-1 $182 $182 $183 $276 reversed $112 $-1 #
coedge $-1 $183 $183 $182 $276 forward $114 $-1 #
coedge $-1 $184 $184 $115 $185 forward $179 $-1 #
edge $-1 $277 0 $277 6.2831853071796004 $184 $278 forward 7 unknown #
loop $-1 $-1 $191 $116 #
plane-surface $-1 -77.813653981139552 39.317643985487145 10.00484517961219 -0.79863551827123203 0 0.60181501223851219 0.60181501223851219 0 0.79863551827123203 forward_v I I I I #
loop $-1 $-1 $279 $74 #
coedge $-1 $189 $189 $190 $280 reversed $117 $-1 #
coedge $-1 $190 $190 $189 $280 forward $119 $-1 #
coedge $-1 $191 $191 $120 $192 forward $186 $-1 #
edge $-1 $281 0 $281 6.2831853071796004 $191 $282 forward 7 unknown #
loop $-1 $-1 $198 $121 #
plane-surface $-1 -77.813653981139552 39.317643985487145 10.00484517961219 -0.79863551827123203 0 0.60181501223851219 0.60181501223851219 0 0.79863551827123203 forward_v I I I I #
loop $-1 $-1 $283 $77 #
coedge $-1 $196 $196 $197 $284 reversed $122 $-1 #
coedge $-1 $197 $197 $196 $284 forward $124 $-1 #
coedge $-1 $198 $198 $125 $199 forward $193 $-1 #
edge $-1 $285 0 $285 6.2831853071796004 $198 $286 forward 7 unknown #
face $-1 $287 $288 $30 $-1 $289 reversed single #
loop $-1 $-1 $290 $126 #
plane-surface $-1 -77.813653981139566 0 0 1 0 0 0 0 -1 forward_v I I I I #
coedge $-1 $291 $211 $292 $293 forward $127 $-1 #
coedge $-1 $294 $129 $291 $295 forward $81 $-1 #
coedge $-1 $129 $294 $296 $297 forward $81 $-1 #
coedge $-1 $214 $213 $129 $207 reversed $215 $-1 #
edge $-1 $298 -47.257659054068945 $299 47.257659054068945 $206 $300 forward 7 unknown #
coedge $-1 $131 $130 $301 $302 forward $51 $-1 #
coedge $-1 $303 $304 $130 $210 reversed $288 $-1 #
edge $-1 $217 -77.813653981139566 $305 77.813653981139566 $209 $306 forward 7 unknown #
coedge $-1 $203 $307 $131 $212 reversed $127 $-1 #
edge $-1 $308 -77.813653981139566 $216 77.813653981139566 $211 $309 forward 7 unknown #
coedge $-1 $206 $132 $307 $310 forward $215 $-1 #
coedge $-1 $132 $206 $303 $311 reversed $215 $-1 #
loop $-1 $-1 $213 $287 #
vertex $-1 $133 $312 #
vertex $-1 $133 $313 #
straight-curve $-1 77.813653981139566 0 17.0717157574088 0 1 0 I I #
face $-1 $314 $315 $31 $-1 $316 reversed single #
loop $-1 $-1 $317 $134 #
plane-surface $-1 0 -56.021158912993826 -9.3222350183161389 0 0 1 1 0 0 forward_v I I I I #
coedge $-1 $140 $318 $319 $320 forward $135 $-1 #
coedge $-1 $321 $137 $322 $323 reversed $85 $-1 #
coedge $-1 $137 $321 $229 $324 reversed $85 $-1 #
edge $-1 $230 0.27042755269313279 $325 9.3222350183161389 $137 $326 forward 7 unknown #
coedge $-1 $139 $138 $327 $328 forward $54 $-1 #
coedge $-1 $319 $329 $138 $228 forward $330 $-1 #
edge $-1 $331 -9.3222350183161389 $231 -0.27042755269313279 $227 $332 forward 7 unknown #
coedge $-1 $318 $140 $224 $324 forward $135 $-1 #
vertex $-1 $225 $333 #
vertex $-1 $320 $334 #
straight-curve $-1 0 -47.257659054068945 -0.27042755269313279 1 0 0 I I #
face $-1 $-1 $245 $32 $-1 $335 forward single #
loop $-1 $-1 $336 $142 #
plane-surface $-1 77.813653981139566 0 0 -1 0 0 0 0 1 forward_v I I I I #
coedge $-1 $337 $338 $339 $340 reversed $143 $-1 #
coedge $-1 $341 $145 $147 $243 forward $89 $-1 #
coedge $-1 $145 $341 $337 $342 forward $89 $-1 #
coedge $-1 $339 $148 $145 $240 forward $245 $-1 #
edge $-1 $247 1.0038727612403537 $343 19.485815303732664 $239 $344 forward 7 unknown #
coedge $-1 $345 $346 $146 $242 forward $234 $-1 #
edge $-1 $347 -105.07593356220974 $246 -92.301701846195897 $241 $348 forward 7 unknown #
edge $-1 $247 131.52131218228288 $347 155.62730796227913 $147 $349 forward 7 unknown #
coedge $-1 $148 $339 $345 $350 forward $245 $-1 #
loop $-1 $-1 $339 $233 #
vertex $-1 $242 $351 #
vertex $-1 $149 $352 #
straight-curve $-1 14.152061026551152 -11.248716793726864 17.071715757408796 -1 0 0 I I #
coedge $-1 $249 $249 $-1 $353 reversed $152 $-1 #
edge $-1 $354 0 $354 6.2831853071796004 $153 $355 forward 7 unknown #
vertex $-1 $156 $356 #
ellipse-curve $-1 67.59213212024747 -26.034270827720714 10.684599899401828 0.52991927123019833 0 0.84804809178421925 1.2720721376763289 0 -0.79487890684529749 1 I I #
coedge $-1 $253 $253 $-1 $357 reversed $159 $-1 #
edge $-1 $358 0 $358 6.2831853071796004 $160 $359 forward 7 unknown #
vertex $-1 $163 $360 #
ellipse-curve $-1 67.59213212024747 -20.489688064973024 10.684599899401828 0.52991927123019833 0 0.84804809178421925 1.2720721376763289 0 -0.79487890684529749 1 I I #
coedge $-1 $257 $257 $-1 $361 reversed $166 $-1 #
edge $-1 $362 0 $362 6.2831853071796004 $167 $363 forward 7 unknown #
vertex $-1 $170 $364 #
ellipse-curve $-1 67.59213212024747 -14.945105302225329 10.684599899401828 0.52991927123019833 0 0.84804809178421925 1.2720721376763289 0 -0.79487890684529749 1 I I #
face $-1 $-1 $365 $36 $-1 $366 reversed single #
loop $-1 $-1 $367 $171 #
plane-surface $-1 0 47.257659054068945 0 0 -1 0 0 0 -1 forward_v I I I I #
coedge $-1 $368 $174 $176 $270 forward $108 $-1 #
coedge $-1 $174 $368 $367 $369 reversed $108 $-1 #
coedge $-1 $370 $177 $174 $267 forward $172 $-1 #
edge $-1 $273 11.718806924161758 $371 27.598837061325387 $266 $372 forward 7 unknown #
coedge $-1 $373 $374 $175 $269 forward $365 $-1 #
edge $-1 $375 -41.827002533176788 $272 -34.76013195538016 $268 $376 forward 7 unknown #
edge $-1 $273 -8.8486805509150468 $375 2.4157584020108747e-014 $176 $377 forward 7 unknown #
coedge $-1 $177 $370 $373 $378 forward $172 $-1 #
vertex $-1 $269 $379 #
vertex $-1 $178 $380 #
straight-curve $-1 -101.05157486637549 31.37762891690533 17.071715757408803 1 0 0 I I #
coedge $-1 $275 $275 $-1 $381 reversed $181 $-1 #
edge $-1 $382 0 $382 6.2831853071796004 $182 $383 forward 7 unknown #
vertex $-1 $185 $384 #
ellipse-curve $-1 -75.151019584117748 34.55363494433805 13.538280468510489 -0.79863551827123203 0 0.60181501223851219 0.60181501223851219 0 0.79863551827123203 1 I I #
coedge $-1 $279 $279 $-1 $385 reversed $188 $-1 #
edge $-1 $386 0 $386 6.2831853071796004 $189 $387 forward 7 unknown #
vertex $-1 $192 $388 #
ellipse-curve $-1 -75.151019584117748 39.31764398548713 13.538280468510489 -0.79863551827123203 0 0.60181501223851219 0.60181501223851219 0 0.79863551827123203 1 I I #
coedge $-1 $283 $283 $-1 $389 reversed $195 $-1 #
edge $-1 $390 0 $390 6.2831853071796004 $196 $391 forward 7 unknown #
vertex $-1 $199 $392 #
ellipse-curve $-1 -75.151019584117748 44.081653026636211 13.538280468510489 -0.79863551827123203 0 0.60181501223851219 0.60181501223851219 0 0.79863551827123203 1 I I #
face $-1 $-1 $215 $30 $-1 $393 reversed single #
loop $-1 $-1 $303 $200 #
plane-surface $-1 0 47.257659054068945 0 0 -1 0 0 0 -1 forward_v I I I I #
coedge $-1 $394 $301 $304 $395 forward $201 $-1 #
coedge $-1 $307 $203 $204 $295 reversed $127 $-1 #
coedge $-1 $301 $394 $203 $293 reversed $201 $-1 #
edge $-1 $308 -17.0717157574088 $396 17.0717157574088 $292 $397 forward 7 unknown #
coedge $-1 $205 $204 $394 $398 forward $81 $-1 #
edge $-1 $299 -77.813653981139566 $396 77.813653981139566 $291 $399 forward 7 unknown #
coedge $-1 $304 $303 $205 $297 reversed $288 $-1 #
edge $-1 $400 -77.813653981139566 $298 77.813653981139566 $296 $401 forward 7 unknown #
vertex $-1 $207 $402 #
vertex $-1 $310 $403 #
straight-curve $-1 77.813653981139566 0 -17.0717157574088 0 -1 0 I I #
coedge $-1 $290 $292 $208 $302 reversed $201 $-1 #
edge $-1 $305 -47.257659054068945 $308 47.257659054068945 $301 $404 forward 7 unknown #
coedge $-1 $296 $209 $214 $311 forward $288 $-1 #
coedge $-1 $209 $296 $290 $395 reversed $288 $-1 #
vertex $-1 $210 $405 #
straight-curve $-1 0 47.257659054068945 17.0717157574088 -1 0 0 I I #
coedge $-1 $211 $291 $213 $310 reversed $127 $-1 #
vertex $-1 $302 $406 #
straight-curve $-1 0 -47.257659054068945 17.0717157574088 1 0 0 I I #
edge $-1 $216 -17.0717157574088 $299 17.0717157574088 $213 $407 forward 7 unknown #
edge $-1 $217 -17.0717157574088 $298 17.0717157574088 $214 $408 forward 7 unknown #
point $-1 77.813653981139566 -47.257659054068945 17.0717157574088 #
point $-1 77.813653981139566 47.257659054068945 17.0717157574088 #
face $-1 $-1 $330 $31 $-1 $409 reversed single #
loop $-1 $-1 $410 $219 #
plane-surface $-1 0 -64.784658771918714 -4.7963312855046354 0 1 0 0 0 1 forward_v I I I I #
coedge $-1 $411 $327 $329 $412 forward $220 $-1 #
coedge $-1 $222 $229 $413 $414 forward $135 $-1 #
coedge $-1 $415 $227 $222 $320 reversed $330 $-1 #
edge $-1 $416 -8.763499858924888 $231 8.763499858924888 $319 $417 forward 7 unknown #
coedge $-1 $224 $223 $410 $418 reversed $85 $-1 #
coedge $-1 $327 $411 $223 $323 forward $220 $-1 #
edge $-1 $419 -8.763499858924888 $325 8.763499858924888 $223 $420 forward 7 unknown #
edge $-1 $230 -8.763499858924888 $421 8.763499858924888 $224 $422 forward 7 unknown #
vertex $-1 $225 $423 #
straight-curve $-1 -77.813653981139566 -47.257659054068945 0 0 0 -1 I I #
coedge $-1 $317 $322 $226 $328 reversed $220 $-1 #
edge $-1 $331 -77.813653981139566 $325 77.813653981139566 $327 $424 forward 7 unknown #
coedge $-1 $227 $415 $317 $412 reversed $330 $-1 #
loop $-1 $-1 $227 $314 #
vertex $-1 $228 $425 #
straight-curve $-1 77.813653981139566 -47.257659054068945 0 0 0 1 I I #
point $-1 -77.813653981139566 -47.257659054068938 -0.27042755269313279 #
point $-1 77.813653981139566 -47.257659054068938 -0.27042755269313279 #
plane-surface $-1 0 0 17.0717157574088 0 0 1 1 0 0 forward_v I I I I #
coedge $-1 $346 $345 $338 $426 forward $234 $-1 #
coedge $-1 $338 $236 $238 $342 reversed $143 $-1 #
coedge $-1 $236 $337 $336 $426 reversed $143 $-1 #
coedge $-1 $244 $239 $236 $340 forward $245 $-1 #
edge $-1 $343 43.218549232804151 $427 63.661592954588414 $339 $428 forward 7 unknown #
coedge $-1 $238 $237 $346 $429 reversed $89 $-1 #
edge $-1 $430 -155.62730796227913 $343 -131.52131218228288 $337 $431 forward 7 unknown #
vertex $-1 $240 $432 #
straight-curve $-1 57.37061025935531 -10.24484403248651 17.071715757408789 0 -1 0 I I #
coedge $-1 $336 $241 $244 $350 reversed $234 $-1 #
coedge $-1 $241 $336 $341 $429 forward $234 $-1 #
vertex $-1 $242 $433 #
straight-curve $-1 77.813653981139566 -11.248716793726864 109.37341760360469 0 0 1 I I #
straight-curve $-1 -54.165787565786289 -11.248716793726864 86.767393660283545 0.84804809178421925 0 -0.52991927123019833 I I #
edge $-1 $427 -29.730659336219176 $246 -11.248716793726864 $345 $434 forward 7 unknown #
point $-1 77.813653981139566 -11.248716793726864 17.0717157574088 #
point $-1 57.370610259355303 -11.248716793726864 17.071715757408796 #
edge $-1 $435 1 $435 0 $249 $-1 forward 7 unknown #
vertex $-1 $250 $436 #
ellipse-curve $-1 65.551335654407652 -26.034270827720714 7.4186429083347551 0.52991927123019833 0 0.84804809178421925 1.2720721376763289 0 -0.79487890684529749 1 I I #
point $-1 68.864204257923831 -26.034270827720714 9.8897209925565832 #
edge $-1 $437 1 $437 0 $253 $-1 forward 7 unknown #
vertex $-1 $254 $438 #
ellipse-curve $-1 65.551335654407652 -20.489688064973024 7.4186429083347551 0.52991927123019833 0 0.84804809178421925 1.2720721376763289 0 -0.79487890684529749 1 I I #
point $-1 68.864204257923831 -20.489688064973024 9.8897209925565832 #
edge $-1 $439 1 $439 0 $257 $-1 forward 7 unknown #
vertex $-1 $258 $440 #
ellipse-curve $-1 65.551335654407652 -14.945105302225329 7.4186429083347551 0.52991927123019833 0 0.84804809178421925 1.2720721376763289 0 -0.79487890684529749 1 I I #
point $-1 68.864204257923831 -14.945105302225329 9.8897209925565832 #
loop $-1 $-1 $268 $261 #
plane-surface $-1 -77.813653981139566 0 0 1 0 0 0 0 -1 forward_v I I I I #
coedge $-1 $441 $442 $265 $369 forward $262 $-1 #
coedge $-1 $265 $264 $374 $443 reversed $108 $-1 #
edge $-1 $371 10.570919652954871 $444 19.41960020386994 $367 $445 forward 7 unknown #
coedge $-1 $271 $266 $442 $446 forward $172 $-1 #
vertex $-1 $446 $447 #
straight-curve $-1 -72.488385187095929 19.658821992743572 17.071715757408803 0 1 0 I I #
coedge $-1 $448 $268 $271 $378 reversed $365 $-1 #
coedge $-1 $268 $448 $368 $443 forward $365 $-1 #
vertex $-1 $269 $449 #
straight-curve $-1 -77.813653981139566 31.37762891690533 51.831847712788957 0 0 1 I I #
straight-curve $-1 -77.813653981139552 31.37762891690533 10.00484517961219 -0.60181501223851219 0 -0.79863551827123203 I I #
edge $-1 $450 -47.257659054068945 $272 -31.37762891690533 $373 $451 forward 7 unknown #
point $-1 -77.813653981139566 31.37762891690533 17.0717157574088 #
point $-1 -72.488385187095929 31.37762891690533 17.0717157574088 #
edge $-1 $452 1 $452 0 $275 $-1 forward 7 unknown #
vertex $-1 $276 $453 #
ellipse-curve $-1 -73.296465411161478 34.55363494433805 12.140773700077975 -0.79863551827123203 0 0.60181501223851219 0.60181501223851219 0 0.79863551827123203 1 I I #
point $-1 -74.549204571879244 34.55363494433805 14.336915986781728 #
edge $-1 $454 1 $454 0 $279 $-1 forward 7 unknown #
vertex $-1 $280 $455 #
ellipse-curve $-1 -73.296465411161478 39.31764398548713 12.140773700077975 -0.79863551827123203 0 0.60181501223851219 0.60181501223851219 0 0.79863551827123203 1 I I #
point $-1 -74.549204571879244 39.31764398548713 14.336915986781728 #
edge $-1 $456 1 $456 0 $283 $-1 forward 7 unknown #
vertex $-1 $284 $457 #
ellipse-curve $-1 -73.296465411161478 44.081653026636211 12.140773700077975 -0.79863551827123203 0 0.60181501223851219 0.60181501223851219 0 0.79863551827123203 1 I I #
point $-1 -74.549204571879244 44.081653026636211 14.336915986781728 #
plane-surface $-1 77.813653981139566 0 0 -1 0 0 0 0 1 forward_v I I I I #
coedge $-1 $292 $290 $294 $398 reversed $201 $-1 #
edge $-1 $305 -17.0717157574088 $400 17.0717157574088 $304 $458 forward 7 unknown #
vertex $-1 $398 $459 #
straight-curve $-1 -77.813653981139566 -47.257659054068945 0 0 0 -1 I I #
edge $-1 $396 -47.257659054068945 $400 47.257659054068945 $394 $460 forward 7 unknown #
straight-curve $-1 0 -47.257659054068945 -17.0717157574088 -1 0 0 I I #
vertex $-1 $297 $461 #
straight-curve $-1 0 47.257659054068945 -17.0717157574088 1 0 0 I I #
point $-1 77.813653981139566 47.257659054068945 -17.0717157574088 #
point $-1 77.813653981139566 -47.257659054068945 -17.0717157574088 #
straight-curve $-1 -77.813653981139566 0 17.0717157574088 0 -1 0 I I #
point $-1 -77.813653981139566 47.257659054068945 17.0717157574088 #
point $-1 -77.813653981139566 -47.257659054068945 17.0717157574088 #
straight-curve $-1 77.813653981139566 -47.257659054068945 0 0 0 -1 I I #
straight-curve $-1 77.813653981139566 47.257659054068945 0 0 0 -1 I I #
plane-surface $-1 77.813653981139566 0 0 -1 0 0 0 0 1 forward_v I I I I #
coedge $-1 $462 $413 $321 $418 forward $315 $-1 #
coedge $-1 $322 $317 $462 $463 forward $220 $-1 #
edge $-1 $331 -8.763499858924888 $464 8.763499858924888 $329 $465 forward 7 unknown #
coedge $-1 $410 $466 $318 $414 reversed $315 $-1 #
edge $-1 $421 -77.813653981139566 $416 77.813653981139566 $413 $467 forward 7 unknown #
coedge $-1 $329 $319 $466 $468 forward $330 $-1 #
vertex $-1 $320 $469 #
straight-curve $-1 77.813653981139566 -56.021158912993826 -0.27042755269313279 0 1 0 I I #
edge $-1 $421 -4.5259037328115026 $419 4.5259037328115035 $321 $470 forward 7 unknown #
vertex $-1 $323 $471 #
straight-curve $-1 -77.813653981139566 -56.021158912993826 -9.3222350183161389 0 1 0 I I #
vertex $-1 $324 $472 #
straight-curve $-1 -77.813653981139566 -56.021158912993826 -0.27042755269313279 0 -1 0 I I #
point $-1 -77.813653981139566 -47.257659054068938 -9.3222350183161389 #
straight-curve $-1 0 -47.257659054068945 -9.3222350183161389 -1 0 0 I I #
point $-1 77.813653981139566 -47.257659054068938 -9.3222350183161389 #
edge $-1 $427 92.301701846195897 $430 105.07593356220974 $336 $473 forward 7 unknown #
vertex $-1 $350 $474 #
straight-curve $-1 14.152061026551152 -29.730659336219176 17.071715757408796 1 0 0 I I #
edge $-1 $430 -19.485815303732664 $347 -1.0038727612403537 $346 $475 forward 7 unknown #
vertex $-1 $429 $476 #
straight-curve $-1 -54.165787565786289 -29.730659336219176 86.767393660283545 -0.84804809178421925 0 0.52991927123019833 I I #
point $-1 57.370610259355303 -29.730659336219176 17.071715757408796 #
point $-1 77.813653981139552 -11.248716793726864 4.2974840413949522 #
straight-curve $-1 77.813653981139566 0 17.0717157574088 0 1 0 I I #
vertex $-1 $353 $477 #
point $-1 66.823407792083984 -26.034270827720714 6.6237640014894579 #
vertex $-1 $357 $478 #
point $-1 66.823407792083984 -20.489688064973024 6.6237640014894579 #
vertex $-1 $361 $479 #
point $-1 66.823407792083984 -14.945105302225329 6.6237640014894579 #
coedge $-1 $442 $367 $448 $480 reversed $262 $-1 #
coedge $-1 $367 $441 $370 $446 reversed $262 $-1 #
edge $-1 $444 -27.598837061325387 $375 -11.718806924161758 $374 $481 forward 7 unknown #
vertex $-1 $369 $482 #
straight-curve $-1 -66.126647046780562 47.257659054068945 25.514027653049965 -0.60181501223851219 0 -0.79863551827123203 I I #
edge $-1 $371 72.488385187095929 $450 77.813653981139566 $442 $483 forward 7 unknown #
point $-1 -72.488385187095929 47.257659054068959 17.0717157574088 #
coedge $-1 $374 $373 $441 $480 forward $365 $-1 #
point $-1 -77.813653981139566 31.37762891690533 10.00484517961217 #
vertex $-1 $446 $484 #
straight-curve $-1 -77.813653981139566 0 17.0717157574088 0 -1 0 I I #
vertex $-1 $381 $485 #
point $-1 -72.694650398922974 34.55363494433805 12.939409218349208 #
vertex $-1 $385 $486 #
point $-1 -72.694650398922974 39.31764398548713 12.939409218349208 #
vertex $-1 $389 $487 #
point $-1 -72.694650398922974 44.081653026636211 12.939409218349208 #
straight-curve $-1 -77.813653981139566 47.257659054068945 0 0 0 -1 I I #
point $-1 -77.813653981139566 -47.257659054068945 -17.0717157574088 #
straight-curve $-1 -77.813653981139566 0 -17.0717157574088 0 1 0 I I #
point $-1 -77.813653981139566 47.257659054068945 -17.0717157574088 #
coedge $-1 $466 $410 $411 $463 reversed $315 $-1 #
edge $-1 $464 -77.813653981139566 $419 77.813653981139566 $462 $488 forward 7 unknown #
vertex $-1 $468 $489 #
straight-curve $-1 77.813653981139566 -56.021158912993826 -9.3222350183161389 0 -1 0 I I #
coedge $-1 $413 $462 $415 $468 reversed $315 $-1 #
straight-curve $-1 0 -64.784658771918714 -0.27042755269313279 1 0 0 I I #
edge $-1 $416 -4.5259037328115026 $464 4.5259037328115035 $415 $490 forward 7 unknown #
point $-1 77.813653981139566 -64.784658771918714 -0.27042755269313279 #
straight-curve $-1 -77.813653981139566 -64.784658771918714 -4.7963312855046354 0 0 -1 I I #
point $-1 -77.813653981139566 -64.784658771918714 -9.3222350183161389 #
point $-1 -77.813653981139566 -64.784658771918714 -0.27042755269313279 #
straight-curve $-1 77.813653981139566 -29.730659336219176 109.37341760360469 0 0 -1 I I #
point $-1 77.813653981139566 -29.730659336219176 17.0717157574088 #
straight-curve $-1 77.813653981139566 -10.24484403248651 4.2974840413949451 0 1 0 I I #
point $-1 77.813653981139552 -29.730659336219176 4.2974840413949522 #
point $-1 64.756456747562353 -26.034270827720714 6.1465707706584265 #
point $-1 64.756456747562353 -20.489688064973024 6.1465707706584265 #
point $-1 64.756456747562353 -14.945105302225329 6.1465707706584265 #
edge $-1 $450 -17.0717157574088 $444 -10.00484517961217 $441 $491 forward 7 unknown #
straight-curve $-1 -77.813653981139566 19.658821992743572 10.004845179612172 0 -1 0 I I #
point $-1 -77.813653981139566 47.257659054068959 10.00484517961217 #
straight-curve $-1 0 47.257659054068945 17.0717157574088 -1 0 0 I I #
point $-1 -77.813653981139566 47.257659054068945 17.0717157574088 #
point $-1 -72.497829892890252 34.55363494433805 11.538958687839465 #
point $-1 -72.497829892890252 39.31764398548713 11.538958687839465 #
point $-1 -72.497829892890252 44.081653026636211 11.538958687839465 #
straight-curve $-1 0 -64.784658771918714 -9.3222350183161389 -1 0 0 I I #
point $-1 77.813653981139566 -64.784658771918714 -9.3222350183161389 #
straight-curve $-1 77.813653981139566 -64.784658771918714 -4.7963312855046354 0 0 -1 I I #
straight-curve $-1 -77.813653981139566 47.257659054068945 0 0 0 -1 I I #
End-of-ACIS-data 