500 0 12 0           
7 Unknown 11 ACIS 5.0 NT 24 Fri Mar 26 02:06:07 1999 
-1 9.9999999999999995e-007 1e-010 
body $-1 $12 $-1 $13 #
body $-1 $14 $-1 $15 #
body $-1 $16 $-1 $17 #
body $-1 $18 $-1 $19 #
body $-1 $20 $-1 $21 #
body $-1 $22 $-1 $23 #
body $-1 $24 $-1 $25 #
body $-1 $26 $-1 $27 #
body $-1 $28 $-1 $29 #
body $-1 $30 $-1 $31 #
body $-1 $32 $-1 $33 #
body $-1 $34 $-1 $35 #
lump $-1 $-1 $36 $0 #
transform $-1 1 0 0 0 1 0 0 0 1 74.252754295480202 32.425160556004414 9.8378849508216639 1 rotate no_reflect no_shear #
lump $-1 $-1 $37 $1 #
transform $-1 1 0 0 0 1 0 0 0 1 74.252754295480202 32.425160556004414 9.8378849508216639 1 rotate no_reflect no_shear #
lump $-1 $-1 $38 $2 #
transform $-1 1 0 0 0 1 0 0 0 1 74.252754295480202 32.425160556004414 9.8378849508216639 1 rotate no_reflect no_shear #
lump $-1 $-1 $39 $3 #
transform $-1 1 0 0 0 1 0 0 0 1 74.252754295480202 32.425160556004414 9.8378849508216639 1 rotate no_reflect no_shear #
lump $-1 $-1 $40 $4 #
transform $-1 1 0 0 0 1 0 0 0 1 74.252754295480202 32.425160556004414 9.8378849508216639 1 rotate no_reflect no_shear #
lump $-1 $-1 $41 $5 #
transform $-1 1 0 0 0 1 0 0 0 1 74.252754295480202 32.425160556004414 9.8378849508216639 1 rotate no_reflect no_shear #
lump $-1 $-1 $42 $6 #
transform $-1 1 0 0 0 1 0 0 0 1 74.252754295480202 32.425160556004414 9.8378849508216639 1 rotate no_reflect no_shear #
lump $-1 $-1 $43 $7 #
transform $-1 1 0 0 0 1 0 0 0 1 74.252754295480202 32.425160556004414 9.8378849508216639 1 rotate no_reflect no_shear #
lump $-1 $-1 $44 $8 #
transform $-1 1 0 0 0 1 0 0 0 1 74.252754295480202 32.425160556004414 9.8378849508216639 1 rotate no_reflect no_shear #
lump $-1 $-1 $45 $9 #
transform $-1 1 0 0 0 1 0 0 0 1 74.252754295480202 32.425160556004414 9.8378849508216639 1 rotate no_reflect no_shear #
lump $-1 $-1 $46 $10 #
transform $-1 1 0 0 0 1 0 0 0 1 74.252754295480202 32.425160556004414 9.8378849508216639 1 rotate no_reflect no_shear #
lump $-1 $-1 $47 $11 #
transform $-1 1 0 0 0 1 0 0 0 1 74.252754295480202 32.425160556004414 9.8378849508216639 1 rotate no_reflect no_shear #
shell $-1 $-1 $-1 $48 $-1 $12 #
shell $-1 $-1 $-1 $49 $-1 $14 #
shell $-1 $-1 $-1 $50 $-1 $16 #
shell $-1 $-1 $-1 $51 $-1 $18 #
shell $-1 $-1 $-1 $52 $-1 $20 #
shell $-1 $-1 $-1 $53 $-1 $22 #
shell $-1 $-1 $-1 $54 $-1 $24 #
shell $-1 $-1 $-1 $55 $-1 $26 #
shell $-1 $-1 $-1 $56 $-1 $28 #
shell $-1 $-1 $-1 $57 $-1 $30 #
shell $-1 $-1 $-1 $58 $-1 $32 #
shell $-1 $-1 $-1 $59 $-1 $34 #
face $-1 $60 $61 $36 $-1 $62 forward single #
face $-1 $63 $64 $37 $-1 $65 forward single #
face $-1 $66 $67 $38 $-1 $68 reversed single #
face $-1 $69 $70 $39 $-1 $71 forward single #
face $-1 $72 $73 $40 $-1 $74 reversed single #
face $-1 $75 $76 $41 $-1 $77 forward single #
face $-1 $78 $79 $42 $-1 $80 forward single #
face $-1 $81 $82 $43 $-1 $83 forward single #
face $-1 $84 $85 $44 $-1 $86 reversed single #
face $-1 $87 $88 $45 $-1 $89 forward single #
face $-1 $90 $91 $46 $-1 $92 forward single #
face $-1 $93 $94 $47 $-1 $95 forward single #
face $-1 $96 $97 $36 $-1 $98 reversed single #
loop $-1 $-1 $99 $48 #
plane-surface $-1 0 0 9.8378849508216639 0 0 1 1 0 0 forward_v I I I I #
face $-1 $100 $101 $37 $-1 $102 reversed single #
loop $-1 $-1 $103 $49 #
plane-surface $-1 0 -32.425160556004414 0 0 1 0 0 0 1 forward_v I I I I #
face $-1 $104 $105 $38 $-1 $106 reversed single #
loop $-1 $-1 $107 $50 #
plane-surface $-1 -152.94868518167192 -19.967240309344156 131.03353350120423 0 1 0 -0.52991927123019833 0 0.84804809178421925 forward_v I I I I #
face $-1 $108 $109 $39 $-1 $110 forward single #
loop $-1 $111 $112 $51 #
cone-surface $-1 -68.970030671326029 -12.170511665316802 5.0867478337680527 0.52991927123019833 0 -0.84804809178421925 1.2720721376763289 0 0.79487890684529749 1 I I 0 1 1.5 forward I I I I #
face $-1 $113 $114 $40 $-1 $115 reversed single #
loop $-1 $-1 $116 $52 #
plane-surface $-1 88.902907225893443 6.2289601233301291 209.54405503637827 0 -1 0 -0.75470958851134928 0 -0.65605901945558964 forward_v I I I I #
face $-1 $117 $118 $41 $-1 $119 forward single #
loop $-1 $120 $121 $53 #
cone-surface $-1 69.358569516583373 -0.3525510366526774 4.3860758187603128 -0.75470958851134928 0 -0.65605901945558964 0.32802950972779482 0 -0.37735479425567464 1 I I 0 1 0.5 forward I I I I #
face $-1 $122 $123 $42 $-1 $124 forward single #
loop $-1 $125 $126 $54 #
cone-surface $-1 69.358569516583373 2.1155156483408746 4.3860758187603128 -0.75470958851134928 0 -0.65605901945558964 0.32802950972779482 0 -0.37735479425567464 1 I I 0 1 0.5 forward I I I I #
face $-1 $127 $128 $43 $-1 $129 forward single #
loop $-1 $130 $131 $55 #
cone-surface $-1 69.358569516583373 4.5835823333344266 4.3860758187603128 -0.75470958851134928 0 -0.65605901945558964 0.32802950972779482 0 -0.37735479425567464 1 I I 0 1 0.5 forward I I I I #
face $-1 $132 $133 $44 $-1 $134 reversed single #
loop $-1 $-1 $135 $56 #
plane-surface $-1 88.902907225893443 14.455849073308638 209.54405503637827 0 -1 0 -0.75470958851134928 0 -0.65605901945558964 forward_v I I I I #
face $-1 $136 $137 $45 $-1 $138 forward single #
loop $-1 $139 $140 $57 #
cone-surface $-1 69.358569516583373 7.8743379133258316 4.3860758187603128 -0.75470958851134928 0 -0.65605901945558964 0.32802950972779482 0 -0.37735479425567464 1 I I 0 1 0.5 forward I I I I #
face $-1 $141 $142 $46 $-1 $143 forward single #
loop $-1 $144 $145 $58 #
cone-surface $-1 69.358569516583373 10.342404598319384 4.3860758187603128 -0.75470958851134928 0 -0.65605901945558964 0.32802950972779482 0 -0.37735479425567464 1 I I 0 1 0.5 forward I I I I #
face $-1 $146 $147 $47 $-1 $148 forward single #
loop $-1 $149 $150 $59 #
cone-surface $-1 69.358569516583373 12.810471283312935 4.3860758187603128 -0.75470958851134928 0 -0.65605901945558964 0.32802950972779482 0 -0.37735479425567464 1 I I 0 1 0.5 forward I I I I #
face $-1 $151 $152 $36 $-1 $153 reversed single #
loop $-1 $-1 $154 $60 #
plane-surface $-1 0 0 -9.8378849508216639 0 0 1 1 0 0 forward_v I I I I #
coedge $-1 $155 $156 $157 $158 forward $61 $-1 #
face $-1 $159 $160 $37 $-1 $161 reversed single #
loop $-1 $-1 $162 $63 #
plane-surface $-1 0 0 -9.8378849508216639 0 0 1 1 0 0 forward_v I I I I #
coedge $-1 $163 $164 $165 $166 forward $64 $-1 #
face $-1 $167 $168 $38 $-1 $169 reversed single #
loop $-1 $-1 $170 $66 #
plane-surface $-1 -74.25275429548023 -12.170511665316802 5.0937203211952777 -0.52991927123019833 0 0.84804809178421925 0.84804809178421925 0 0.52991927123019833 forward_v I I I I #
coedge $-1 $171 $172 $173 $174 reversed $67 $-1 #
face $-1 $-1 $175 $39 $-1 $176 forward single #
loop $-1 $177 $178 $69 #
cone-surface $-1 -67.08599275817744 -12.170511665316802 2.071656962689465 0.52991927123019833 0 -0.84804809178421925 0.63603606883816444 0 0.39743945342264875 1 I I -0.70710678118654757 0.70710678118654757 0.75 forward I I I I #
loop $-1 $-1 $179 $51 #
coedge $-1 $112 $112 $180 $181 reversed $70 $-1 #
face $-1 $182 $183 $40 $-1 $184 reversed single #
loop $-1 $-1 $185 $72 #
plane-surface $-1 -23.175624054458922 2.1155156483408746 112.11567668643914 0.75470958851134928 0 0.65605901945558964 0.65605901945558964 0 -0.75470958851134928 forward_v I I I I #
coedge $-1 $186 $187 $188 $189 reversed $73 $-1 #
face $-1 $-1 $190 $41 $-1 $191 forward single #
loop $-1 $192 $193 $75 #
cone-surface $-1 68.535533685379107 -0.3525510366526774 3.6706217042024853 -0.75470958851134928 0 -0.65605901945558964 0.16401475486389741 0 -0.18867739712783732 1 I I -0.70710678118654746 0.70710678118654746 0.25 forward I I I I #
loop $-1 $-1 $194 $53 #
coedge $-1 $121 $121 $195 $196 reversed $76 $-1 #
face $-1 $-1 $197 $42 $-1 $198 forward single #
loop $-1 $199 $200 $78 #
cone-surface $-1 68.535533685379107 2.1155156483408746 3.6706217042024853 -0.75470958851134928 0 -0.65605901945558964 0.16401475486389741 0 -0.18867739712783732 1 I I -0.70710678118654746 0.70710678118654746 0.25 forward I I I I #
loop $-1 $-1 $201 $54 #
coedge $-1 $126 $126 $202 $203 reversed $79 $-1 #
face $-1 $-1 $204 $43 $-1 $205 forward single #
loop $-1 $206 $207 $81 #
cone-surface $-1 68.535533685379107 4.5835823333344266 3.6706217042024853 -0.75470958851134928 0 -0.65605901945558964 0.16401475486389741 0 -0.18867739712783732 1 I I -0.70710678118654746 0.70710678118654746 0.25 forward I I I I #
loop $-1 $-1 $208 $55 #
coedge $-1 $131 $131 $209 $210 reversed $82 $-1 #
face $-1 $211 $212 $44 $-1 $213 reversed single #
loop $-1 $-1 $214 $84 #
plane-surface $-1 -23.175624054458922 2.1155156483408746 112.11567668643914 0.75470958851134928 0 0.65605901945558964 0.65605901945558964 0 -0.75470958851134928 forward_v I I I I #
coedge $-1 $215 $216 $217 $218 reversed $85 $-1 #
face $-1 $-1 $219 $45 $-1 $220 forward single #
loop $-1 $221 $222 $87 #
cone-surface $-1 68.535533685379107 7.8743379133258316 3.6706217042024853 -0.75470958851134928 0 -0.65605901945558964 0.16401475486389741 0 -0.18867739712783732 1 I I -0.70710678118654746 0.70710678118654746 0.25 forward I I I I #
loop $-1 $-1 $223 $57 #
coedge $-1 $140 $140 $224 $225 reversed $88 $-1 #
face $-1 $-1 $226 $46 $-1 $227 forward single #
loop $-1 $228 $229 $90 #
cone-surface $-1 68.535533685379107 10.342404598319384 3.6706217042024853 -0.75470958851134928 0 -0.65605901945558964 0.16401475486389741 0 -0.18867739712783732 1 I I -0.70710678118654746 0.70710678118654746 0.25 forward I I I I #
loop $-1 $-1 $230 $58 #
coedge $-1 $145 $145 $231 $232 reversed $91 $-1 #
face $-1 $-1 $233 $47 $-1 $234 forward single #
loop $-1 $235 $236 $93 #
cone-surface $-1 68.535533685379107 12.810471283312935 3.6706217042024853 -0.75470958851134928 0 -0.65605901945558964 0.16401475486389741 0 -0.18867739712783732 1 I I -0.70710678118654746 0.70710678118654746 0.25 forward I I I I #
loop $-1 $-1 $237 $59 #
coedge $-1 $150 $150 $238 $239 reversed $94 $-1 #
face $-1 $240 $241 $36 $-1 $242 reversed single #
loop $-1 $-1 $243 $96 #
plane-surface $-1 0 -32.425160556004414 0 0 1 0 0 0 1 forward_v I I I I #
coedge $-1 $244 $245 $246 $247 forward $97 $-1 #
coedge $-1 $248 $99 $249 $250 forward $61 $-1 #
coedge $-1 $99 $248 $251 $252 forward $61 $-1 #
coedge $-1 $253 $254 $99 $158 reversed $255 $-1 #
edge $-1 $256 -32.425160556004414 $257 32.425160556004414 $157 $258 forward 7 unknown #
face $-1 $259 $260 $37 $-1 $261 forward single #
loop $-1 $-1 $262 $100 #
plane-surface $-1 74.252754295480202 0 0 -1 0 0 0 0 1 forward_v I I I I #
coedge $-1 $263 $264 $265 $266 forward $101 $-1 #
coedge $-1 $265 $103 $262 $267 reversed $64 $-1 #
coedge $-1 $103 $265 $268 $269 reversed $64 $-1 #
coedge $-1 $270 $271 $103 $166 reversed $260 $-1 #
edge $-1 $272 -74.252754295480202 $273 74.252754295480202 $165 $274 forward 7 unknown #
face $-1 $275 $276 $38 $-1 $277 forward single #
loop $-1 $-1 $278 $104 #
plane-surface $-1 -152.94868518167192 -4.3737830212894488 131.03353350120423 0 -1 0 0.52991927123019833 0 -0.84804809178421925 forward_v I I I I #
coedge $-1 $279 $280 $281 $282 reversed $105 $-1 #
coedge $-1 $172 $107 $283 $284 reversed $67 $-1 #
coedge $-1 $107 $171 $279 $285 reversed $67 $-1 #
coedge $-1 $281 $286 $107 $174 forward $276 $-1 #
edge $-1 $287 2.2215882953557582 $288 9.8138386242121811 $173 $289 forward 7 unknown #
loop $-1 $-1 $180 $108 #
plane-surface $-1 -74.25275429548023 -12.170511665316802 5.0937203211952777 -0.52991927123019833 0 0.84804809178421925 0.84804809178421925 0 0.52991927123019833 forward_v I I I I #
loop $-1 $-1 $290 $69 #
coedge $-1 $178 $178 $179 $291 reversed $109 $-1 #
coedge $-1 $179 $179 $178 $291 forward $111 $-1 #
coedge $-1 $180 $180 $112 $181 forward $175 $-1 #
edge $-1 $292 0 $292 6.2831853071796004 $180 $293 forward 7 unknown #
face $-1 $294 $295 $40 $-1 $296 reversed single #
loop $-1 $-1 $297 $113 #
plane-surface $-1 88.902907225893443 -1.9979288266483799 209.54405503637827 0 1 0 0.75470958851134928 0 0.65605901945558964 forward_v I I I I #
coedge $-1 $298 $299 $300 $301 reversed $114 $-1 #
coedge $-1 $187 $116 $302 $303 reversed $73 $-1 #
coedge $-1 $116 $186 $298 $304 reversed $73 $-1 #
coedge $-1 $300 $305 $116 $189 forward $306 $-1 #
edge $-1 $307 -29.80130068253348 $308 -21.281647992892715 $188 $309 forward 7 unknown #
loop $-1 $-1 $195 $117 #
plane-surface $-1 -23.175624054458922 2.1155156483408746 112.11567668643914 0.75470958851134928 0 0.65605901945558964 0.65605901945558964 0 -0.75470958851134928 forward_v I I I I #
loop $-1 $-1 $310 $75 #
coedge $-1 $193 $193 $194 $311 reversed $118 $-1 #
coedge $-1 $194 $194 $193 $311 forward $120 $-1 #
coedge $-1 $195 $195 $121 $196 forward $190 $-1 #
edge $-1 $312 0 $312 6.2831853071796004 $195 $313 forward 7 unknown #
loop $-1 $-1 $202 $122 #
plane-surface $-1 -23.175624054458922 2.1155156483408746 112.11567668643914 0.75470958851134928 0 0.65605901945558964 0.65605901945558964 0 -0.75470958851134928 forward_v I I I I #
loop $-1 $-1 $314 $78 #
coedge $-1 $200 $200 $201 $315 reversed $123 $-1 #
coedge $-1 $201 $201 $200 $315 forward $125 $-1 #
coedge $-1 $202 $202 $126 $203 forward $197 $-1 #
edge $-1 $316 0 $316 6.2831853071796004 $202 $317 forward 7 unknown #
loop $-1 $-1 $209 $127 #
plane-surface $-1 -23.175624054458922 2.1155156483408746 112.11567668643914 0.75470958851134928 0 0.65605901945558964 0.65605901945558964 0 -0.75470958851134928 forward_v I I I I #
loop $-1 $-1 $318 $81 #
coedge $-1 $207 $207 $208 $319 reversed $128 $-1 #
coedge $-1 $208 $208 $207 $319 forward $130 $-1 #
coedge $-1 $209 $209 $131 $210 forward $204 $-1 #
edge $-1 $320 0 $320 6.2831853071796004 $209 $321 forward 7 unknown #
face $-1 $322 $323 $44 $-1 $324 forward single #
loop $-1 $-1 $325 $132 #
plane-surface $-1 74.252754295480202 0 0 -1 0 0 0 0 1 forward_v I I I I #
coedge $-1 $326 $327 $328 $329 reversed $133 $-1 #
coedge $-1 $216 $135 $330 $331 reversed $85 $-1 #
coedge $-1 $135 $215 $332 $333 reversed $85 $-1 #
coedge $-1 $334 $325 $135 $218 forward $212 $-1 #
edge $-1 $335 -104.73488211210235 $336 -94.934142567367473 $217 $337 forward 7 unknown #
loop $-1 $-1 $224 $136 #
plane-surface $-1 -23.175624054458922 2.1155156483408746 112.11567668643914 0.75470958851134928 0 0.65605901945558964 0.65605901945558964 0 -0.75470958851134928 forward_v I I I I #
loop $-1 $-1 $338 $87 #
coedge $-1 $222 $222 $223 $339 reversed $137 $-1 #
coedge $-1 $223 $223 $222 $339 forward $139 $-1 #
coedge $-1 $224 $224 $140 $225 forward $219 $-1 #
edge $-1 $340 0 $340 6.2831853071796004 $224 $341 forward 7 unknown #
loop $-1 $-1 $231 $141 #
plane-surface $-1 -23.175624054458922 2.1155156483408746 112.11567668643914 0.75470958851134928 0 0.65605901945558964 0.65605901945558964 0 -0.75470958851134928 forward_v I I I I #
loop $-1 $-1 $342 $90 #
coedge $-1 $229 $229 $230 $343 reversed $142 $-1 #
coedge $-1 $230 $230 $229 $343 forward $144 $-1 #
coedge $-1 $231 $231 $145 $232 forward $226 $-1 #
edge $-1 $344 0 $344 6.2831853071796004 $231 $345 forward 7 unknown #
loop $-1 $-1 $238 $146 #
plane-surface $-1 -23.175624054458922 2.1155156483408746 112.11567668643914 0.75470958851134928 0 0.65605901945558964 0.65605901945558964 0 -0.75470958851134928 forward_v I I I I #
loop $-1 $-1 $346 $93 #
coedge $-1 $236 $236 $237 $347 reversed $147 $-1 #
coedge $-1 $237 $237 $236 $347 forward $149 $-1 #
coedge $-1 $238 $238 $150 $239 forward $233 $-1 #
edge $-1 $348 0 $348 6.2831853071796004 $238 $349 forward 7 unknown #
face $-1 $350 $351 $36 $-1 $352 reversed single #
loop $-1 $-1 $353 $151 #
plane-surface $-1 -74.252754295480202 0 0 1 0 0 0 0 -1 forward_v I I I I #
coedge $-1 $354 $251 $355 $356 forward $152 $-1 #
coedge $-1 $357 $154 $354 $358 forward $97 $-1 #
coedge $-1 $154 $357 $359 $360 forward $97 $-1 #
coedge $-1 $254 $253 $154 $247 reversed $255 $-1 #
edge $-1 $361 -32.425160556004414 $362 32.425160556004414 $246 $363 forward 7 unknown #
coedge $-1 $156 $155 $364 $365 forward $61 $-1 #
coedge $-1 $366 $367 $155 $250 reversed $351 $-1 #
edge $-1 $257 -74.252754295480202 $368 74.252754295480202 $249 $369 forward 7 unknown #
coedge $-1 $243 $370 $156 $252 reversed $152 $-1 #
edge $-1 $371 -74.252754295480202 $256 74.252754295480202 $251 $372 forward 7 unknown #
coedge $-1 $246 $157 $370 $373 forward $255 $-1 #
coedge $-1 $157 $246 $366 $374 reversed $255 $-1 #
loop $-1 $-1 $253 $350 #
vertex $-1 $158 $375 #
vertex $-1 $158 $376 #
straight-curve $-1 74.252754295480202 0 9.8378849508216639 0 1 0 I I #
face $-1 $377 $378 $37 $-1 $379 reversed single #
loop $-1 $-1 $271 $159 #
plane-surface $-1 0 -38.654120679334547 -5.127337383225564 0 0 1 1 0 0 forward_v I I I I #
coedge $-1 $380 $381 $163 $267 forward $160 $-1 #
coedge $-1 $382 $162 $381 $383 forward $101 $-1 #
coedge $-1 $162 $382 $384 $385 forward $101 $-1 #
coedge $-1 $164 $163 $162 $266 reversed $64 $-1 #
edge $-1 $386 -74.252754295480202 $387 74.252754295480202 $162 $388 forward 7 unknown #
edge $-1 $387 -9.8378849508216639 $273 -5.127337383225564 $262 $389 forward 7 unknown #
coedge $-1 $384 $390 $164 $269 forward $391 $-1 #
edge $-1 $272 5.127337383225564 $386 9.8378849508216639 $268 $392 forward 7 unknown #
coedge $-1 $393 $165 $390 $394 forward $260 $-1 #
coedge $-1 $165 $393 $380 $395 forward $260 $-1 #
vertex $-1 $269 $396 #
vertex $-1 $395 $397 #
straight-curve $-1 0 -32.425160556004414 -5.127337383225564 1 0 0 I I #
face $-1 $-1 $398 $38 $-1 $399 reversed single #
loop $-1 $-1 $173 $167 #
plane-surface $-1 0 0 9.8378849508216639 0 0 1 1 0 0 forward_v I I I I #
coedge $-1 $400 $401 $402 $403 reversed $168 $-1 #
coedge $-1 $404 $170 $172 $285 forward $105 $-1 #
coedge $-1 $170 $404 $400 $405 forward $105 $-1 #
coedge $-1 $402 $173 $170 $282 forward $276 $-1 #
edge $-1 $288 -13.881984476685755 $406 1.7114728113689521 $281 $407 forward 7 unknown #
coedge $-1 $408 $409 $171 $284 forward $398 $-1 #
edge $-1 $410 -60.423046429406824 $287 -55.678881799780456 $283 $411 forward 7 unknown #
edge $-1 $288 -8.9526176668625226 $410 -3.3516233665497261e-014 $172 $412 forward 7 unknown #
coedge $-1 $173 $402 $408 $413 forward $276 $-1 #
vertex $-1 $284 $414 #
vertex $-1 $174 $415 #
straight-curve $-1 -76.47434259083596 -19.967240309344156 9.8378849508216604 1 0 0 I I #
coedge $-1 $290 $290 $-1 $416 reversed $177 $-1 #
edge $-1 $417 0 $417 6.2831853071796004 $178 $418 forward 7 unknown #
vertex $-1 $181 $419 #
ellipse-curve $-1 -70.456629131051983 -12.170511665316802 7.465802636008485 -0.52991927123019833 0 0.84804809178421925 1.2720721376763289 0 0.79487890684529749 1 I I #
face $-1 $-1 $306 $40 $-1 $420 forward single #
loop $-1 $-1 $421 $182 #
plane-surface $-1 74.252754295480202 0 0 -1 0 0 0 0 1 forward_v I I I I #
coedge $-1 $422 $423 $424 $425 reversed $183 $-1 #
coedge $-1 $426 $185 $187 $304 forward $114 $-1 #
coedge $-1 $185 $426 $422 $427 forward $114 $-1 #
coedge $-1 $424 $188 $185 $301 forward $306 $-1 #
edge $-1 $308 -5.1712022991596918 $428 3.0556866508188172 $300 $429 forward 7 unknown #
coedge $-1 $430 $431 $186 $303 forward $295 $-1 #
edge $-1 $432 -104.73488211210235 $307 -94.934142567367473 $302 $433 forward 7 unknown #
edge $-1 $308 135.51940149237876 $432 148.50550859096043 $187 $434 forward 7 unknown #
coedge $-1 $188 $424 $430 $435 forward $306 $-1 #
loop $-1 $-1 $424 $294 #
vertex $-1 $303 $436 #
vertex $-1 $189 $437 #
straight-curve $-1 44.451453612946722 6.2289601233301291 9.8378849508216604 -1 0 0 I I #
coedge $-1 $310 $310 $-1 $438 reversed $192 $-1 #
edge $-1 $439 0 $439 6.2831853071796004 $193 $440 forward 7 unknown #
vertex $-1 $196 $441 #
ellipse-curve $-1 69.992927950659791 -0.3525510366526774 4.9375151784542313 0.75470958851134928 0 0.65605901945558964 0.32802950972779482 0 -0.37735479425567464 1 I I #
coedge $-1 $314 $314 $-1 $442 reversed $199 $-1 #
edge $-1 $443 0 $443 6.2831853071796004 $200 $444 forward 7 unknown #
vertex $-1 $203 $445 #
ellipse-curve $-1 69.992927950659791 2.1155156483408746 4.9375151784542313 0.75470958851134928 0 0.65605901945558964 0.32802950972779482 0 -0.37735479425567464 1 I I #
coedge $-1 $318 $318 $-1 $446 reversed $206 $-1 #
edge $-1 $447 0 $447 6.2831853071796004 $207 $448 forward 7 unknown #
vertex $-1 $210 $449 #
ellipse-curve $-1 69.992927950659791 4.5835823333344266 4.9375151784542313 0.75470958851134928 0 0.65605901945558964 0.32802950972779482 0 -0.37735479425567464 1 I I #
face $-1 $-1 $450 $44 $-1 $451 forward single #
loop $-1 $-1 $452 $211 #
plane-surface $-1 88.902907225893443 6.2289601233301291 209.54405503637827 0 -1 0 -0.75470958851134928 0 -0.65605901945558964 forward_v I I I I #
coedge $-1 $217 $453 $327 $454 forward $212 $-1 #
coedge $-1 $330 $214 $455 $456 reversed $133 $-1 #
coedge $-1 $214 $330 $325 $454 reversed $133 $-1 #
coedge $-1 $457 $452 $214 $329 forward $323 $-1 #
edge $-1 $458 135.51940149237876 $459 148.50550859096043 $328 $460 forward 7 unknown #
coedge $-1 $327 $326 $215 $331 forward $133 $-1 #
edge $-1 $461 135.51940149237876 $335 148.50550859096043 $215 $462 forward 7 unknown #
coedge $-1 $455 $463 $216 $333 forward $450 $-1 #
edge $-1 $336 -29.80130068253348 $461 -21.281647992892715 $332 $464 forward 7 unknown #
coedge $-1 $453 $217 $463 $465 reversed $212 $-1 #
vertex $-1 $218 $466 #
vertex $-1 $218 $467 #
straight-curve $-1 74.252754295480202 14.455849073308638 104.77202751818913 0 0 1 I I #
coedge $-1 $338 $338 $-1 $468 reversed $221 $-1 #
edge $-1 $469 0 $469 6.2831853071796004 $222 $470 forward 7 unknown #
vertex $-1 $225 $471 #
ellipse-curve $-1 69.992927950659791 7.8743379133258316 4.9375151784542313 0.75470958851134928 0 0.65605901945558964 0.32802950972779482 0 -0.37735479425567464 1 I I #
coedge $-1 $342 $342 $-1 $472 reversed $228 $-1 #
edge $-1 $473 0 $473 6.2831853071796004 $229 $474 forward 7 unknown #
vertex $-1 $232 $475 #
ellipse-curve $-1 69.992927950659791 10.342404598319384 4.9375151784542313 0.75470958851134928 0 0.65605901945558964 0.32802950972779482 0 -0.37735479425567464 1 I I #
coedge $-1 $346 $346 $-1 $476 reversed $235 $-1 #
edge $-1 $477 0 $477 6.2831853071796004 $236 $478 forward 7 unknown #
vertex $-1 $239 $479 #
ellipse-curve $-1 69.992927950659791 12.810471283312935 4.9375151784542313 0.75470958851134928 0 0.65605901945558964 0.32802950972779482 0 -0.37735479425567464 1 I I #
face $-1 $-1 $255 $36 $-1 $480 reversed single #
loop $-1 $-1 $366 $240 #
plane-surface $-1 0 32.425160556004414 0 0 -1 0 0 0 -1 forward_v I I I I #
coedge $-1 $481 $364 $367 $482 forward $241 $-1 #
coedge $-1 $370 $243 $244 $358 reversed $152 $-1 #
coedge $-1 $364 $481 $243 $356 reversed $241 $-1 #
edge $-1 $371 -9.8378849508216639 $483 9.8378849508216639 $355 $484 forward 7 unknown #
coedge $-1 $245 $244 $481 $485 forward $97 $-1 #
edge $-1 $362 -74.252754295480202 $483 74.252754295480202 $354 $486 forward 7 unknown #
coedge $-1 $367 $366 $245 $360 reversed $351 $-1 #
edge $-1 $487 -74.252754295480202 $361 74.252754295480202 $359 $488 forward 7 unknown #
vertex $-1 $247 $489 #
vertex $-1 $373 $490 #
straight-curve $-1 74.252754295480202 0 -9.8378849508216639 0 -1 0 I I #
coedge $-1 $353 $355 $248 $365 reversed $241 $-1 #
edge $-1 $368 -32.425160556004414 $371 32.425160556004414 $364 $491 forward 7 unknown #
coedge $-1 $359 $249 $254 $374 forward $351 $-1 #
coedge $-1 $249 $359 $353 $482 reversed $351 $-1 #
vertex $-1 $250 $492 #
straight-curve $-1 0 32.425160556004414 9.8378849508216639 -1 0 0 I I #
coedge $-1 $251 $354 $253 $373 reversed $152 $-1 #
vertex $-1 $365 $493 #
straight-curve $-1 0 -32.425160556004414 9.8378849508216639 1 0 0 I I #
edge $-1 $256 -9.8378849508216639 $362 9.8378849508216639 $253 $494 forward 7 unknown #
edge $-1 $257 -9.8378849508216639 $361 9.8378849508216639 $254 $495 forward 7 unknown #
point $-1 74.252754295480202 -32.425160556004414 9.8378849508216639 #
point $-1 74.252754295480202 32.425160556004414 9.8378849508216639 #
face $-1 $-1 $391 $37 $-1 $496 reversed single #
loop $-1 $-1 $497 $259 #
plane-surface $-1 0 -44.883080802664679 -7.482611167023614 0 1 0 0 0 1 forward_v I I I I #
coedge $-1 $498 $262 $271 $395 reversed $160 $-1 #
coedge $-1 $262 $498 $263 $383 reversed $160 $-1 #
coedge $-1 $264 $263 $499 $500 forward $101 $-1 #
edge $-1 $387 32.425160556004414 $501 44.883080802664679 $381 $502 forward 7 unknown #
coedge $-1 $503 $268 $264 $385 reversed $391 $-1 #
edge $-1 $504 -44.883080802664679 $386 -32.425160556004414 $384 $505 forward 7 unknown #
vertex $-1 $269 $506 #
vertex $-1 $383 $507 #
straight-curve $-1 0 -32.425160556004414 -9.8378849508216639 1 0 0 I I #
straight-curve $-1 74.252754295480202 -32.425160556004414 0 0 0 1 I I #
coedge $-1 $268 $503 $270 $394 reversed $391 $-1 #
loop $-1 $-1 $268 $377 #
straight-curve $-1 -74.252754295480202 -32.425160556004414 0 0 0 -1 I I #
coedge $-1 $271 $270 $508 $509 forward $260 $-1 #
edge $-1 $272 -6.2289601233301326 $510 6.2289601233301326 $390 $511 forward 7 unknown #
edge $-1 $512 -6.2289601233301326 $273 6.2289601233301326 $380 $513 forward 7 unknown #
point $-1 -74.252754295480202 -32.425160556004414 -5.127337383225564 #
point $-1 74.252754295480202 -32.425160556004414 -5.127337383225564 #
loop $-1 $-1 $283 $275 #
plane-surface $-1 -74.252754295480202 0 0 1 0 0 0 0 -1 forward_v I I I I #
coedge $-1 $401 $278 $280 $405 reversed $168 $-1 #
coedge $-1 $278 $400 $514 $515 reversed $168 $-1 #
coedge $-1 $286 $281 $278 $403 forward $276 $-1 #
edge $-1 $406 -9.8138386242121811 $516 -2.2215882953557582 $402 $517 forward 7 unknown #
coedge $-1 $280 $279 $409 $518 reversed $105 $-1 #
edge $-1 $519 3.3516233665497261e-014 $406 8.9526176668625226 $400 $520 forward 7 unknown #
vertex $-1 $282 $521 #
straight-curve $-1 -66.660503966623779 -6.085255832658401 9.8378849508216621 0 1 0 I I #
coedge $-1 $514 $283 $286 $413 reversed $398 $-1 #
coedge $-1 $283 $514 $404 $518 forward $398 $-1 #
vertex $-1 $284 $522 #
straight-curve $-1 -74.252754295480202 -19.967240309344156 65.516766750602116 0 0 1 I I #
straight-curve $-1 -74.25275429548023 -19.967240309344156 5.0937203211952777 -0.84804809178421925 0 -0.52991927123019833 I I #
edge $-1 $516 4.3737830212894488 $287 19.967240309344156 $408 $523 forward 7 unknown #
point $-1 -74.252754295480202 -19.967240309344156 9.8378849508216639 #
point $-1 -66.660503966623779 -19.967240309344156 9.8378849508216639 #
edge $-1 $524 1 $524 0 $290 $-1 forward 7 unknown #
vertex $-1 $291 $525 #
ellipse-curve $-1 -67.483432211600089 -12.170511665316802 2.7076930315276293 -0.52991927123019833 0 0.84804809178421925 1.2720721376763289 0 0.79487890684529749 1 I I #
point $-1 -69.184556993375651 -12.170511665316802 8.2606815428537743 #
plane-surface $-1 0 0 9.8378849508216639 0 0 1 1 0 0 forward_v I I I I #
coedge $-1 $431 $430 $423 $526 forward $295 $-1 #
coedge $-1 $423 $297 $299 $427 reversed $183 $-1 #
coedge $-1 $297 $422 $421 $526 reversed $183 $-1 #
coedge $-1 $305 $300 $297 $425 forward $306 $-1 #
edge $-1 $428 21.281647992892715 $527 29.80130068253348 $424 $528 forward 7 unknown #
coedge $-1 $299 $298 $431 $529 reversed $114 $-1 #
edge $-1 $530 -148.50550859096043 $428 -135.51940149237876 $422 $531 forward 7 unknown #
vertex $-1 $301 $532 #
straight-curve $-1 65.733101605839437 1.0577578241704373 9.8378849508216604 0 -1 0 I I #
coedge $-1 $421 $302 $305 $435 reversed $295 $-1 #
coedge $-1 $302 $421 $426 $529 forward $295 $-1 #
vertex $-1 $303 $533 #
straight-curve $-1 74.252754295480202 6.2289601233301291 104.77202751818913 0 0 1 I I #
straight-curve $-1 -23.175624054458922 6.2289601233301291 112.11567668643914 0.65605901945558964 0 -0.75470958851134928 I I #
edge $-1 $527 -1.9979288266483799 $307 6.2289601233301291 $430 $534 forward 7 unknown #
point $-1 74.252754295480202 6.2289601233301291 9.8378849508216639 #
point $-1 65.733101605839437 6.2289601233301291 9.8378849508216604 #
edge $-1 $535 1 $535 0 $310 $-1 forward 7 unknown #
vertex $-1 $311 $536 #
ellipse-curve $-1 68.72421108250694 -0.3525510366526774 3.8346364590663828 0.75470958851134928 0 0.65605901945558964 0.32802950972779482 0 -0.37735479425567464 1 I I #
point $-1 70.320957460387604 -0.3525510366526774 4.5601603841985678 #
edge $-1 $537 1 $537 0 $314 $-1 forward 7 unknown #
vertex $-1 $315 $538 #
ellipse-curve $-1 68.72421108250694 2.1155156483408746 3.8346364590663828 0.75470958851134928 0 0.65605901945558964 0.32802950972779482 0 -0.37735479425567464 1 I I #
point $-1 70.320957460387604 2.1155156483408746 4.5601603841985678 #
edge $-1 $539 1 $539 0 $318 $-1 forward 7 unknown #
vertex $-1 $319 $540 #
ellipse-curve $-1 68.72421108250694 4.5835823333344266 3.8346364590663828 0.75470958851134928 0 0.65605901945558964 0.32802950972779482 0 -0.37735479425567464 1 I I #
point $-1 70.320957460387604 4.5835823333344266 4.5601603841985678 #
loop $-1 $-1 $455 $322 #
plane-surface $-1 0 0 9.8378849508216639 0 0 1 1 0 0 forward_v I I I I #
coedge $-1 $328 $457 $541 $542 reversed $323 $-1 #
coedge $-1 $325 $334 $457 $543 forward $212 $-1 #
edge $-1 $459 5.1712022991596918 $335 13.398091249138201 $325 $544 forward 7 unknown #
coedge $-1 $541 $332 $326 $456 forward $450 $-1 #
edge $-1 $461 -13.398091249138201 $458 -5.1712022991596918 $455 $545 forward 7 unknown #
coedge $-1 $452 $328 $453 $543 reversed $323 $-1 #
vertex $-1 $456 $546 #
vertex $-1 $454 $547 #
straight-curve $-1 -23.175624054458922 6.2289601233301291 112.11567668643914 0.65605901945558964 0 -0.75470958851134928 I I #
vertex $-1 $333 $548 #
straight-curve $-1 -23.175624054458922 14.455849073308638 112.11567668643914 0.65605901945558964 0 -0.75470958851134928 I I #
coedge $-1 $332 $541 $334 $465 forward $450 $-1 #
straight-curve $-1 44.451453612946722 14.455849073308638 9.8378849508216604 -1 0 0 I I #
edge $-1 $549 6.2289601233301291 $336 14.455849073308638 $334 $550 forward 7 unknown #
point $-1 74.252754295480202 14.455849073308638 0.037145406086779076 #
point $-1 74.252754295480202 14.455849073308638 9.8378849508216639 #
edge $-1 $551 1 $551 0 $338 $-1 forward 7 unknown #
vertex $-1 $339 $552 #
ellipse-curve $-1 68.72421108250694 7.8743379133258316 3.8346364590663828 0.75470958851134928 0 0.65605901945558964 0.32802950972779482 0 -0.37735479425567464 1 I I #
point $-1 70.320957460387604 7.8743379133258316 4.5601603841985678 #
edge $-1 $553 1 $553 0 $342 $-1 forward 7 unknown #
vertex $-1 $343 $554 #
ellipse-curve $-1 68.72421108250694 10.342404598319384 3.8346364590663828 0.75470958851134928 0 0.65605901945558964 0.32802950972779482 0 -0.37735479425567464 1 I I #
point $-1 70.320957460387604 10.342404598319384 4.5601603841985678 #
edge $-1 $555 1 $555 0 $346 $-1 forward 7 unknown #
vertex $-1 $347 $556 #
ellipse-curve $-1 68.72421108250694 12.810471283312935 3.8346364590663828 0.75470958851134928 0 0.65605901945558964 0.32802950972779482 0 -0.37735479425567464 1 I I #
point $-1 70.320957460387604 12.810471283312935 4.5601603841985678 #
plane-surface $-1 74.252754295480202 0 0 -1 0 0 0 0 1 forward_v I I I I #
coedge $-1 $355 $353 $357 $485 reversed $241 $-1 #
edge $-1 $368 -9.8378849508216639 $487 9.8378849508216639 $367 $557 forward 7 unknown #
vertex $-1 $485 $558 #
straight-curve $-1 -74.252754295480202 -32.425160556004414 0 0 0 -1 I I #
edge $-1 $483 -32.425160556004414 $487 32.425160556004414 $481 $559 forward 7 unknown #
straight-curve $-1 0 -32.425160556004414 -9.8378849508216639 -1 0 0 I I #
vertex $-1 $360 $560 #
straight-curve $-1 0 32.425160556004414 -9.8378849508216639 1 0 0 I I #
point $-1 74.252754295480202 32.425160556004414 -9.8378849508216639 #
point $-1 74.252754295480202 -32.425160556004414 -9.8378849508216639 #
straight-curve $-1 -74.252754295480202 0 9.8378849508216639 0 -1 0 I I #
point $-1 -74.252754295480202 32.425160556004414 9.8378849508216639 #
point $-1 -74.252754295480202 -32.425160556004414 9.8378849508216639 #
straight-curve $-1 74.252754295480202 -32.425160556004414 0 0 0 -1 I I #
straight-curve $-1 74.252754295480202 32.425160556004414 0 0 0 -1 I I #
plane-surface $-1 -74.252754295480202 0 0 1 0 0 0 0 -1 forward_v I I I I #
coedge $-1 $499 $508 $503 $561 forward $378 $-1 #
coedge $-1 $381 $380 $562 $563 forward $160 $-1 #
coedge $-1 $562 $497 $382 $500 reversed $378 $-1 #
edge $-1 $501 -74.252754295480202 $504 74.252754295480202 $499 $564 forward 7 unknown #
vertex $-1 $563 $565 #
straight-curve $-1 74.252754295480202 0 -9.8378849508216639 0 -1 0 I I #
coedge $-1 $390 $384 $497 $561 reversed $391 $-1 #
vertex $-1 $385 $566 #
straight-curve $-1 -74.252754295480202 0 -9.8378849508216639 0 1 0 I I #
point $-1 -74.252754295480202 -32.425160556004414 -9.8378849508216639 #
point $-1 74.252754295480202 -32.425160556004414 -9.8378849508216639 #
coedge $-1 $497 $562 $393 $509 reversed $378 $-1 #
edge $-1 $510 -74.252754295480202 $512 74.252754295480202 $508 $567 forward 7 unknown #
vertex $-1 $394 $568 #
straight-curve $-1 -74.252754295480202 -38.654120679334547 -5.127337383225564 0 -1 0 I I #
vertex $-1 $395 $569 #
straight-curve $-1 74.252754295480202 -38.654120679334547 -5.127337383225564 0 1 0 I I #
coedge $-1 $409 $408 $401 $515 forward $398 $-1 #
edge $-1 $516 55.678881799780456 $519 60.423046429406824 $514 $570 forward 7 unknown #
vertex $-1 $413 $571 #
straight-curve $-1 -76.47434259083596 -4.3737830212894488 9.8378849508216604 -1 0 0 I I #
edge $-1 $519 -1.7114728113689521 $410 13.881984476685755 $409 $572 forward 7 unknown #
vertex $-1 $518 $573 #
straight-curve $-1 -74.25275429548023 -4.3737830212894488 5.0937203211952777 0.84804809178421925 0 0.52991927123019833 I I #
point $-1 -66.660503966623779 -4.3737830212894488 9.8378849508216639 #
point $-1 -74.252754295480202 -19.967240309344156 5.0937203211952955 #
straight-curve $-1 -74.252754295480202 0 9.8378849508216639 0 -1 0 I I #
vertex $-1 $416 $574 #
point $-1 -66.211360073923757 -12.170511665316802 3.502571938372927 #
edge $-1 $527 94.934142567367473 $530 104.73488211210235 $421 $575 forward 7 unknown #
vertex $-1 $435 $576 #
straight-curve $-1 44.451453612946722 -1.9979288266483799 9.8378849508216604 1 0 0 I I #
edge $-1 $530 -3.0556866508188172 $432 5.1712022991596918 $431 $577 forward 7 unknown #
vertex $-1 $529 $578 #
straight-curve $-1 -23.175624054458922 -1.9979288266483799 112.11567668643914 -0.65605901945558964 0 0.75470958851134928 I I #
point $-1 65.733101605839437 -1.9979288266483799 9.8378849508216604 #
point $-1 74.252754295480202 6.2289601233301291 0.037145406086779076 #
straight-curve $-1 74.252754295480202 0 9.8378849508216639 0 1 0 I I #
vertex $-1 $438 $579 #
point $-1 69.052240592234739 -0.3525510366526774 3.4572816648107083 #
vertex $-1 $442 $580 #
point $-1 69.052240592234739 2.1155156483408746 3.4572816648107083 #
vertex $-1 $446 $581 #
point $-1 69.052240592234739 4.5835823333344266 3.4572816648107083 #
coedge $-1 $463 $455 $452 $542 forward $450 $-1 #
edge $-1 $458 21.281647992892715 $549 29.80130068253348 $541 $582 forward 7 unknown #
edge $-1 $549 94.934142567367473 $459 104.73488211210235 $453 $583 forward 7 unknown #
straight-curve $-1 74.252754295480202 1.0577578241704373 0.037145406086779076 0 1 0 I I #
straight-curve $-1 65.733101605839437 1.0577578241704373 9.8378849508216604 0 -1 0 I I #
point $-1 65.733101605839437 6.2289601233301291 9.8378849508216604 #
point $-1 74.252754295480202 6.2289601233301291 0.037145406086779076 #
point $-1 65.733101605839437 14.455849073308638 9.8378849508216604 #
vertex $-1 $465 $584 #
straight-curve $-1 74.252754295480202 0 9.8378849508216639 0 1 0 I I #
vertex $-1 $468 $585 #
point $-1 69.052240592234739 7.8743379133258316 3.4572816648107083 #
vertex $-1 $472 $586 #
point $-1 69.052240592234739 10.342404598319384 3.4572816648107083 #
vertex $-1 $476 $587 #
point $-1 69.052240592234739 12.810471283312935 3.4572816648107083 #
straight-curve $-1 -74.252754295480202 32.425160556004414 0 0 0 -1 I I #
point $-1 -74.252754295480202 -32.425160556004414 -9.8378849508216639 #
straight-curve $-1 -74.252754295480202 0 -9.8378849508216639 0 1 0 I I #
point $-1 -74.252754295480202 32.425160556004414 -9.8378849508216639 #
edge $-1 $510 -2.35527378379805 $504 2.35527378379805 $503 $588 forward 7 unknown #
coedge $-1 $508 $499 $498 $563 reversed $378 $-1 #
edge $-1 $512 -2.35527378379805 $501 2.35527378379805 $498 $589 forward 7 unknown #
straight-curve $-1 0 -44.883080802664679 -9.8378849508216639 -1 0 0 I I #
point $-1 74.252754295480202 -44.883080802664679 -9.8378849508216639 #
point $-1 -74.252754295480202 -44.883080802664679 -9.8378849508216639 #
straight-curve $-1 0 -44.883080802664679 -5.127337383225564 1 0 0 I I #
point $-1 -74.252754295480202 -44.883080802664679 -5.127337383225564 #
point $-1 74.252754295480202 -44.883080802664679 -5.127337383225564 #
straight-curve $-1 -74.252754295480202 -4.3737830212894488 65.516766750602116 0 0 -1 I I #
point $-1 -74.252754295480202 -4.3737830212894488 9.8378849508216639 #
straight-curve $-1 -74.252754295480202 -6.085255832658401 5.0937203211952973 0 -1 0 I I #
point $-1 -74.252754295480202 -4.3737830212894488 5.0937203211952955 #
point $-1 -66.688553304754791 -12.170511665316802 1.4356208938513007 #
straight-curve $-1 74.252754295480202 -1.9979288266483799 104.77202751818913 0 0 -1 I I #
point $-1 74.252754295480202 -1.9979288266483799 9.8378849508216639 #
straight-curve $-1 74.252754295480202 1.0577578241704373 0.037145406086779076 0 1 0 I I #
point $-1 74.252754295480202 -1.9979288266483799 0.037145406086779076 #
point $-1 68.346856288251274 -0.3525510366526774 3.5066069493385879 #
point $-1 68.346856288251274 2.1155156483408746 3.5066069493385879 #
point $-1 68.346856288251274 4.5835823333344266 3.5066069493385879 #
straight-curve $-1 44.451453612946722 6.2289601233301291 9.8378849508216604 1 0 0 I I #
straight-curve $-1 74.252754295480202 6.2289601233301291 104.77202751818913 0 0 -1 I I #
point $-1 74.252754295480202 6.2289601233301291 9.8378849508216639 #
point $-1 68.346856288251274 7.8743379133258316 3.5066069493385879 #
point $-1 68.346856288251274 10.342404598319384 3.5066069493385879 #
point $-1 68.346856288251274 12.810471283312935 3.5066069493385879 #
straight-curve $-1 -74.252754295480202 -44.883080802664679 -7.482611167023614 0 0 -1 I I #
straight-curve $-1 74.252754295480202 -44.883080802664679 -7.482611167023614 0 0 -1 I I #
End-of-ACIS-data 