500 0 5 0           
7 Unknown 11 ACIS 5.0 NT 24 Fri Mar 26 17:12:20 1999 
-1 9.9999999999999995e-007 1e-010 
body $-1 $5 $-1 $6 #
body $-1 $7 $-1 $8 #
body $-1 $9 $-1 $10 #
body $-1 $11 $-1 $12 #
body $-1 $13 $-1 $14 #
lump $-1 $-1 $15 $0 #
transform $-1 1 0 0 0 1 0 0 0 1 71.573229163487653 34.291018707594837 15.227569048447247 1 rotate no_reflect no_shear #
lump $-1 $-1 $16 $1 #
transform $-1 1 0 0 0 1 0 0 0 1 71.573229163487653 34.291018707594837 15.227569048447247 1 rotate no_reflect no_shear #
lump $-1 $-1 $17 $2 #
transform $-1 1 0 0 0 1 0 0 0 1 71.573229163487653 34.291018707594837 15.227569048447247 1 rotate no_reflect no_shear #
lump $-1 $-1 $18 $3 #
transform $-1 1 0 0 0 1 0 0 0 1 71.573229163487653 34.291018707594837 15.227569048447247 1 rotate no_reflect no_shear #
lump $-1 $-1 $19 $4 #
transform $-1 1 0 0 0 1 0 0 0 1 71.573229163487653 34.291018707594837 15.227569048447247 1 rotate no_reflect no_shear #
shell $-1 $-1 $-1 $20 $-1 $5 #
shell $-1 $-1 $-1 $21 $-1 $7 #
shell $-1 $-1 $-1 $22 $-1 $9 #
shell $-1 $-1 $-1 $23 $-1 $11 #
shell $-1 $-1 $-1 $24 $-1 $13 #
face $-1 $25 $26 $15 $-1 $27 forward single #
face $-1 $28 $29 $16 $-1 $30 forward single #
face $-1 $31 $32 $17 $-1 $33 reversed single #
face $-1 $34 $35 $18 $-1 $36 forward single #
face $-1 $37 $38 $19 $-1 $39 forward single #
face $-1 $40 $41 $15 $-1 $42 reversed single #
loop $-1 $-1 $43 $20 #
plane-surface $-1 0 0 15.227569048447247 0 0 1 1 0 0 forward_v I I I I #
face $-1 $44 $45 $16 $-1 $46 reversed single #
loop $-1 $-1 $47 $21 #
plane-surface $-1 -63.580031076892624 0 6.5045685981033881 0 0 1 1 0 0 forward_v I I I I #
face $-1 $48 $49 $17 $-1 $50 reversed single #
loop $-1 $-1 $51 $22 #
plane-surface $-1 35.47035815842527 -142.32502336840338 97.50724455152276 1 0 0 0 0.75470958851134928 -0.65605901945558964 forward_v I I I I #
face $-1 $52 $53 $18 $-1 $54 forward single #
loop $-1 $55 $56 $23 #
cone-surface $-1 45.785464159871665 -26.224601922146718 6.7943513353544454 0 0.75470958851134928 -0.65605901945558964 2.5 0 0 1 I I 0 1 2.5 forward I I I I #
face $-1 $57 $58 $19 $-1 $59 forward single #
loop $-1 $60 $61 $24 #
cone-surface $-1 61.258123162041258 -26.224601922146718 6.7943513353544454 0 0.75470958851134928 -0.65605901945558964 2.5 0 0 1 I I 0 1 2.5 forward I I I I #
face $-1 $62 $63 $15 $-1 $64 reversed single #
loop $-1 $-1 $65 $25 #
plane-surface $-1 0 0 -15.227569048447247 0 0 1 1 0 0 forward_v I I I I #
coedge $-1 $66 $67 $68 $69 forward $26 $-1 #
face $-1 $70 $71 $16 $-1 $72 reversed single #
loop $-1 $-1 $73 $28 #
plane-surface $-1 -63.580031076892624 0 -1.4746273932302554 0 0 1 1 0 0 forward_v I I I I #
coedge $-1 $74 $75 $76 $77 forward $29 $-1 #
face $-1 $78 $79 $17 $-1 $80 forward single #
loop $-1 $-1 $81 $31 #
plane-surface $-1 53.521793660956462 -34.291018707594844 3.5947194629869159 0 -0.75470958851134928 0.65605901945558964 1 0 0 forward_v I I I I #
coedge $-1 $82 $83 $84 $85 reversed $32 $-1 #
face $-1 $-1 $86 $18 $-1 $87 forward single #
loop $-1 $88 $89 $34 #
cone-surface $-1 45.785464159871665 -22.270938955872246 3.3574846406723182 0 0.75470958851134928 -0.65605901945558964 1.25 0 0 1 I I -0.70710678118654746 0.70710678118654746 1.25 forward I I I I #
loop $-1 $-1 $90 $23 #
coedge $-1 $56 $56 $91 $92 reversed $35 $-1 #
face $-1 $-1 $93 $19 $-1 $94 forward single #
loop $-1 $95 $96 $37 #
cone-surface $-1 61.258123162041258 -22.270938955872246 3.3574846406723182 0 0.75470958851134928 -0.65605901945558964 1.25 0 0 1 I I -0.70710678118654746 0.70710678118654746 1.25 forward I I I I #
loop $-1 $-1 $97 $24 #
coedge $-1 $61 $61 $98 $99 reversed $38 $-1 #
face $-1 $100 $101 $15 $-1 $102 reversed single #
loop $-1 $-1 $103 $40 #
plane-surface $-1 0 -34.291018707594837 0 0 1 0 0 0 1 forward_v I I I I #
coedge $-1 $104 $105 $106 $107 forward $41 $-1 #
coedge $-1 $108 $43 $109 $110 forward $26 $-1 #
coedge $-1 $43 $108 $111 $112 forward $26 $-1 #
coedge $-1 $113 $114 $43 $69 reversed $115 $-1 #
edge $-1 $116 -34.291018707594837 $117 34.291018707594837 $68 $118 forward 7 unknown #
face $-1 $119 $120 $16 $-1 $121 reversed single #
loop $-1 $-1 $122 $44 #
plane-surface $-1 -55.586832990297594 0 2.5149706024365663 -1 0 0 0 0 1 forward_v I I I I #
coedge $-1 $123 $124 $125 $126 forward $45 $-1 #
coedge $-1 $127 $47 $128 $129 reversed $29 $-1 #
coedge $-1 $47 $127 $130 $131 reversed $29 $-1 #
coedge $-1 $122 $132 $47 $77 reversed $71 $-1 #
edge $-1 $133 -34.291018707594837 $134 34.291018707594837 $76 $135 forward 7 unknown #
face $-1 $136 $137 $17 $-1 $138 reversed single #
loop $-1 $-1 $139 $48 #
plane-surface $-1 0 0 15.227569048447247 0 0 1 1 0 0 forward_v I I I I #
coedge $-1 $140 $141 $142 $143 reversed $49 $-1 #
coedge $-1 $83 $51 $144 $145 reversed $32 $-1 #
coedge $-1 $51 $82 $140 $146 reversed $32 $-1 #
coedge $-1 $142 $147 $51 $85 forward $137 $-1 #
edge $-1 $148 33.526053227314137 $149 45.158902812774457 $84 $150 forward 7 unknown #
loop $-1 $-1 $91 $52 #
plane-surface $-1 53.521793660956462 -34.291018707594844 3.5947194629869159 0 -0.75470958851134928 0.65605901945558964 1 0 0 forward_v I I I I #
loop $-1 $-1 $151 $34 #
coedge $-1 $89 $89 $90 $152 reversed $53 $-1 #
coedge $-1 $90 $90 $89 $152 forward $55 $-1 #
coedge $-1 $91 $91 $56 $92 forward $86 $-1 #
edge $-1 $153 -5.3625341572523352e-016 $153 6.2831853071795996 $91 $154 forward 7 unknown #
loop $-1 $-1 $98 $57 #
plane-surface $-1 53.521793660956462 -34.291018707594844 3.5947194629869159 0 -0.75470958851134928 0.65605901945558964 1 0 0 forward_v I I I I #
loop $-1 $-1 $155 $37 #
coedge $-1 $96 $96 $97 $156 reversed $58 $-1 #
coedge $-1 $97 $97 $96 $156 forward $60 $-1 #
coedge $-1 $98 $98 $61 $99 forward $93 $-1 #
edge $-1 $157 -5.3625341572523352e-016 $157 6.2831853071795996 $98 $158 forward 7 unknown #
face $-1 $159 $160 $15 $-1 $161 reversed single #
loop $-1 $-1 $162 $62 #
plane-surface $-1 -71.573229163487653 0 0 1 0 0 0 0 -1 forward_v I I I I #
coedge $-1 $163 $111 $164 $165 forward $63 $-1 #
coedge $-1 $166 $65 $163 $167 forward $41 $-1 #
coedge $-1 $65 $166 $168 $169 forward $41 $-1 #
coedge $-1 $114 $113 $65 $107 reversed $115 $-1 #
edge $-1 $170 -34.291018707594837 $171 34.291018707594837 $106 $172 forward 7 unknown #
coedge $-1 $67 $66 $173 $174 forward $26 $-1 #
coedge $-1 $175 $176 $66 $110 reversed $160 $-1 #
edge $-1 $117 -71.573229163487653 $177 71.573229163487653 $109 $178 forward 7 unknown #
coedge $-1 $103 $179 $67 $112 reversed $63 $-1 #
edge $-1 $180 -71.573229163487653 $116 71.573229163487653 $111 $181 forward 7 unknown #
coedge $-1 $106 $68 $179 $182 forward $115 $-1 #
coedge $-1 $68 $106 $175 $183 reversed $115 $-1 #
loop $-1 $-1 $113 $159 #
vertex $-1 $69 $184 #
vertex $-1 $69 $185 #
straight-curve $-1 71.573229163487653 0 15.227569048447247 0 1 0 I I #
face $-1 $186 $187 $16 $-1 $188 reversed single #
loop $-1 $-1 $189 $70 #
plane-surface $-1 0 -34.291018707594837 0 0 1 0 0 0 1 forward_v I I I I #
coedge $-1 $125 $76 $190 $191 reversed $71 $-1 #
coedge $-1 $192 $73 $189 $193 reversed $45 $-1 #
coedge $-1 $73 $192 $194 $195 reversed $45 $-1 #
coedge $-1 $132 $122 $73 $126 reversed $71 $-1 #
edge $-1 $196 -34.291018707594837 $197 34.291018707594837 $125 $198 forward 7 unknown #
coedge $-1 $75 $74 $199 $200 reversed $29 $-1 #
coedge $-1 $201 $202 $74 $129 forward $203 $-1 #
edge $-1 $204 -39.783213625041341 $134 -23.796817451851282 $128 $205 forward 7 unknown #
coedge $-1 $206 $190 $75 $131 forward $120 $-1 #
edge $-1 $133 23.796817451851282 $207 39.783213625041341 $130 $208 forward 7 unknown #
coedge $-1 $76 $125 $201 $209 reversed $71 $-1 #
vertex $-1 $131 $210 #
vertex $-1 $129 $211 #
straight-curve $-1 -55.586832990297594 0 6.5045685981033881 0 1 0 I I #
face $-1 $-1 $212 $17 $-1 $213 reversed single #
loop $-1 $-1 $84 $78 #
plane-surface $-1 0 -34.291018707594837 0 0 1 0 0 0 1 forward_v I I I I #
coedge $-1 $144 $214 $215 $216 forward $79 $-1 #
coedge $-1 $215 $81 $83 $146 forward $49 $-1 #
coedge $-1 $81 $215 $217 $218 reversed $49 $-1 #
coedge $-1 $219 $84 $81 $143 forward $137 $-1 #
edge $-1 $149 8.7094613279470394 $220 44.812332333009422 $142 $221 forward 7 unknown #
coedge $-1 $222 $139 $82 $145 forward $79 $-1 #
edge $-1 $223 -46.983774586232506 $148 -36.871492976606852 $144 $224 forward 7 unknown #
edge $-1 $149 1.0694430631949516e-014 $223 15.413676681126992 $83 $225 forward 7 unknown #
coedge $-1 $84 $219 $222 $226 reversed $137 $-1 #
vertex $-1 $226 $227 #
vertex $-1 $85 $228 #
straight-curve $-1 35.47035815842527 -34.291018707594837 48.75362227576138 0 0 -1 I I #
coedge $-1 $151 $151 $-1 $229 reversed $88 $-1 #
edge $-1 $230 0 $230 6.2831853071796004 $89 $231 forward 7 unknown #
vertex $-1 $92 $232 #
ellipse-curve $-1 45.785464159871665 -29.234877902782006 9.4111442557170868 0 -0.75470958851134928 0.65605901945558964 2.5 0 0 1 I I #
coedge $-1 $155 $155 $-1 $233 reversed $95 $-1 #
edge $-1 $234 0 $234 6.2831853071796004 $96 $235 forward 7 unknown #
vertex $-1 $99 $236 #
ellipse-curve $-1 61.258123162041258 -29.234877902782006 9.4111442557170868 0 -0.75470958851134928 0.65605901945558964 2.5 0 0 1 I I #
face $-1 $-1 $115 $15 $-1 $237 reversed single #
loop $-1 $-1 $175 $100 #
plane-surface $-1 0 34.291018707594837 0 0 -1 0 0 0 -1 forward_v I I I I #
coedge $-1 $238 $173 $176 $239 forward $101 $-1 #
coedge $-1 $179 $103 $104 $167 reversed $63 $-1 #
coedge $-1 $173 $238 $103 $165 reversed $101 $-1 #
edge $-1 $180 -15.227569048447247 $240 15.227569048447247 $164 $241 forward 7 unknown #
coedge $-1 $105 $104 $238 $242 forward $41 $-1 #
edge $-1 $171 -71.573229163487653 $240 71.573229163487653 $163 $243 forward 7 unknown #
coedge $-1 $176 $175 $105 $169 reversed $160 $-1 #
edge $-1 $244 -71.573229163487653 $170 71.573229163487653 $168 $245 forward 7 unknown #
vertex $-1 $107 $246 #
vertex $-1 $182 $247 #
straight-curve $-1 71.573229163487653 0 -15.227569048447247 0 -1 0 I I #
coedge $-1 $162 $164 $108 $174 reversed $101 $-1 #
edge $-1 $177 -34.291018707594837 $180 34.291018707594837 $173 $248 forward 7 unknown #
coedge $-1 $168 $109 $114 $183 forward $160 $-1 #
coedge $-1 $109 $168 $162 $239 reversed $160 $-1 #
vertex $-1 $110 $249 #
straight-curve $-1 0 34.291018707594837 15.227569048447247 -1 0 0 I I #
coedge $-1 $111 $163 $113 $182 reversed $63 $-1 #
vertex $-1 $174 $250 #
straight-curve $-1 0 -34.291018707594837 15.227569048447247 1 0 0 I I #
edge $-1 $116 -15.227569048447247 $171 15.227569048447247 $113 $251 forward 7 unknown #
edge $-1 $117 -15.227569048447247 $170 15.227569048447247 $114 $252 forward 7 unknown #
point $-1 71.573229163487653 -34.291018707594837 15.227569048447247 #
point $-1 71.573229163487653 34.291018707594837 15.227569048447247 #
face $-1 $-1 $203 $16 $-1 $253 reversed single #
loop $-1 $-1 $254 $119 #
plane-surface $-1 -71.573229163487653 0 0 1 0 0 0 0 -1 forward_v I I I I #
coedge $-1 $190 $206 $123 $193 forward $120 $-1 #
coedge $-1 $130 $189 $122 $191 forward $120 $-1 #
edge $-1 $197 -2.7321126944485385 $133 5.2470832968851049 $190 $255 forward 7 unknown #
coedge $-1 $124 $123 $254 $256 reversed $45 $-1 #
edge $-1 $257 -39.783213625041341 $197 -23.796817451851282 $189 $258 forward 7 unknown #
coedge $-1 $202 $201 $124 $195 forward $203 $-1 #
edge $-1 $196 23.796817451851282 $259 39.783213625041341 $194 $260 forward 7 unknown #
vertex $-1 $195 $261 #
vertex $-1 $193 $262 #
straight-curve $-1 -55.586832990297594 0 -1.4746273932302554 0 -1 0 I I #
coedge $-1 $263 $264 $127 $200 forward $187 $-1 #
edge $-1 $207 -34.291018707594837 $204 34.291018707594837 $199 $265 forward 7 unknown #
coedge $-1 $194 $128 $132 $209 forward $203 $-1 #
coedge $-1 $128 $194 $263 $266 reversed $203 $-1 #
loop $-1 $-1 $194 $186 #
vertex $-1 $266 $267 #
straight-curve $-1 -31.790015538446312 34.291018707594837 6.5045685981033881 1 0 0 I I #
coedge $-1 $189 $130 $264 $268 forward $120 $-1 #
vertex $-1 $268 $269 #
straight-curve $-1 -31.790015538446312 -34.291018707594837 6.5045685981033881 -1 0 0 I I #
edge $-1 $134 -5.2470832968851049 $196 2.7321126944485385 $201 $270 forward 7 unknown #
point $-1 -55.586832990297594 -34.291018707594837 6.5045685981033881 #
point $-1 -55.586832990297594 34.291018707594837 6.5045685981033881 #
loop $-1 $-1 $217 $136 #
plane-surface $-1 71.573229163487653 0 0 -1 0 0 0 0 1 forward_v I I I I #
coedge $-1 $139 $222 $271 $272 forward $79 $-1 #
coedge $-1 $141 $140 $139 $216 reversed $49 $-1 #
edge $-1 $273 -44.812332333009422 $223 -8.7094613279470394 $139 $274 forward 7 unknown #
coedge $-1 $271 $275 $141 $218 forward $212 $-1 #
edge $-1 $220 -9.8919814313566707 $273 5.5216952497703105 $217 $276 forward 7 unknown #
coedge $-1 $147 $142 $275 $277 reversed $137 $-1 #
vertex $-1 $143 $278 #
straight-curve $-1 26.760896830478231 -34.291018707594837 3.5947194629869288 1 0 0 I I #
coedge $-1 $214 $144 $147 $226 forward $79 $-1 #
vertex $-1 $145 $279 #
straight-curve $-1 35.47035815842527 -71.162511684201689 15.227569048447251 0 -1 0 I I #
straight-curve $-1 35.47035815842527 -34.291018707594844 3.5947194629869159 0 0.65605901945558964 0.75470958851134928 I I #
edge $-1 $148 35.47035815842527 $280 71.573229163487653 $147 $281 forward 7 unknown #
point $-1 35.47035815842527 -34.291018707594837 15.227569048447247 #
point $-1 35.47035815842527 -34.291018707594837 3.5947194629869239 #
edge $-1 $282 1 $282 0 $151 $-1 forward 7 unknown #
vertex $-1 $152 $283 #
ellipse-curve $-1 45.785464159871665 -23.214325941511433 4.1775584149918057 0 -0.75470958851134928 0.65605901945558964 2.5 0 0 1 I I #
point $-1 48.285464159871665 -29.234877902782006 9.411144255717085 #
edge $-1 $284 1 $284 0 $155 $-1 forward 7 unknown #
vertex $-1 $156 $285 #
ellipse-curve $-1 61.258123162041258 -23.214325941511433 4.1775584149918057 0 -0.75470958851134928 0.65605901945558964 2.5 0 0 1 I I #
point $-1 63.758123162041258 -29.234877902782006 9.411144255717085 #
plane-surface $-1 71.573229163487653 0 0 -1 0 0 0 0 1 forward_v I I I I #
coedge $-1 $164 $162 $166 $242 reversed $101 $-1 #
edge $-1 $177 -15.227569048447247 $244 15.227569048447247 $176 $286 forward 7 unknown #
vertex $-1 $242 $287 #
straight-curve $-1 -71.573229163487653 -34.291018707594837 0 0 0 -1 I I #
edge $-1 $240 -34.291018707594837 $244 34.291018707594837 $238 $288 forward 7 unknown #
straight-curve $-1 0 -34.291018707594837 -15.227569048447247 -1 0 0 I I #
vertex $-1 $169 $289 #
straight-curve $-1 0 34.291018707594837 -15.227569048447247 1 0 0 I I #
point $-1 71.573229163487653 34.291018707594837 -15.227569048447247 #
point $-1 71.573229163487653 -34.291018707594837 -15.227569048447247 #
straight-curve $-1 -71.573229163487653 0 15.227569048447247 0 -1 0 I I #
point $-1 -71.573229163487653 34.291018707594837 15.227569048447247 #
point $-1 -71.573229163487653 -34.291018707594837 15.227569048447247 #
straight-curve $-1 71.573229163487653 -34.291018707594837 0 0 0 -1 I I #
straight-curve $-1 71.573229163487653 34.291018707594837 0 0 0 -1 I I #
plane-surface $-1 0 34.291018707594837 0 0 -1 0 0 0 -1 forward_v I I I I #
coedge $-1 $264 $263 $192 $256 forward $187 $-1 #
straight-curve $-1 -55.586832990297594 -34.291018707594837 1.2574853012182832 0 0 1 I I #
edge $-1 $259 -34.291018707594837 $257 34.291018707594837 $254 $290 forward 7 unknown #
vertex $-1 $193 $291 #
straight-curve $-1 -31.790015538446312 -34.291018707594837 -1.4746273932302554 1 0 0 I I #
vertex $-1 $195 $292 #
straight-curve $-1 -31.790015538446312 34.291018707594837 -1.4746273932302554 -1 0 0 I I #
point $-1 -55.586832990297594 34.291018707594837 -1.4746273932302554 #
point $-1 -55.586832990297594 -34.291018707594837 -1.4746273932302554 #
coedge $-1 $254 $199 $202 $266 forward $187 $-1 #
coedge $-1 $199 $254 $206 $268 reversed $187 $-1 #
straight-curve $-1 -71.573229163487653 0 6.5045685981033881 0 1 0 I I #
edge $-1 $204 -6.5045685981033881 $259 1.4746273932302554 $202 $293 forward 7 unknown #
point $-1 -71.573229163487653 34.291018707594837 6.5045685981033881 #
edge $-1 $207 -6.5045685981033881 $257 1.4746273932302554 $264 $294 forward 7 unknown #
point $-1 -71.573229163487653 -34.291018707594837 6.5045685981033881 #
straight-curve $-1 -55.586832990297594 34.291018707594837 1.2574853012182832 0 0 -1 I I #
coedge $-1 $275 $217 $214 $272 reversed $212 $-1 #
edge $-1 $280 -34.291018707594837 $273 -24.178737097969183 $271 $295 forward 7 unknown #
vertex $-1 $218 $296 #
straight-curve $-1 26.760896830478231 -24.178737097969179 15.227569048447247 -1 0 0 I I #
coedge $-1 $217 $271 $219 $277 forward $212 $-1 #
straight-curve $-1 71.573229163487653 -27.801295069266079 11.060292698608023 0 0.65605901945558975 0.75470958851134939 I I #
edge $-1 $280 -15.227569048447247 $220 -3.5947194629869239 $275 $297 forward 7 unknown #
point $-1 71.573229163487653 -34.291018707594837 3.5947194629869239 #
point $-1 35.47035815842527 -24.178737097969183 15.227569048447247 #
vertex $-1 $272 $298 #
straight-curve $-1 0 -34.291018707594837 15.227569048447247 1 0 0 I I #
vertex $-1 $229 $299 #
point $-1 48.285464159871665 -23.214325941511433 4.1775584149918057 #
vertex $-1 $233 $300 #
point $-1 63.758123162041258 -23.214325941511433 4.1775584149918057 #
straight-curve $-1 -71.573229163487653 34.291018707594837 0 0 0 -1 I I #
point $-1 -71.573229163487653 -34.291018707594837 -15.227569048447247 #
straight-curve $-1 -71.573229163487653 0 -15.227569048447247 0 1 0 I I #
point $-1 -71.573229163487653 34.291018707594837 -15.227569048447247 #
straight-curve $-1 -71.573229163487653 0 -1.4746273932302554 0 -1 0 I I #
point $-1 -71.573229163487653 -34.291018707594837 -1.4746273932302554 #
point $-1 -71.573229163487653 34.291018707594837 -1.4746273932302554 #
straight-curve $-1 -71.573229163487653 34.291018707594837 0 0 0 -1 I I #
straight-curve $-1 -71.573229163487653 -34.291018707594837 0 0 0 -1 I I #
straight-curve $-1 71.573229163487653 0 15.227569048447247 0 1 0 I I #
point $-1 71.573229163487653 -24.178737097969183 15.227569048447247 #
straight-curve $-1 71.573229163487653 -34.291018707594837 0 0 0 -1 I I #
point $-1 71.573229163487653 -34.291018707594837 15.227569048447247 #
point $-1 45.785464159871665 -21.32755197023306 2.5374108663528312 #
point $-1 61.258123162041258 -21.32755197023306 2.5374108663528312 #
End-of-ACIS-data 