500 0 11 0           
7 Unknown 11 ACIS 5.0 NT 24 Thu Mar 25 15:39:47 1999 
-1 9.9999999999999995e-007 1e-010 
body $-1 $11 $-1 $12 #
body $-1 $13 $-1 $14 #
body $-1 $15 $-1 $16 #
body $-1 $17 $-1 $18 #
body $-1 $19 $-1 $20 #
body $-1 $21 $-1 $22 #
body $-1 $23 $-1 $24 #
body $-1 $25 $-1 $26 #
body $-1 $27 $-1 $28 #
body $-1 $29 $-1 $30 #
body $-1 $31 $-1 $32 #
lump $-1 $-1 $33 $0 #
transform $-1 1 0 0 0 1 0 0 0 1 60.802636799218725 33.722852866316764 6.7921182829231892 1 rotate no_reflect no_shear #
lump $-1 $-1 $34 $1 #
transform $-1 1 0 0 0 1 0 0 0 1 60.802636799218725 33.722852866316764 6.7921182829231892 1 rotate no_reflect no_shear #
lump $-1 $-1 $35 $2 #
transform $-1 1 0 0 0 1 0 0 0 1 60.802636799218725 33.722852866316764 6.7921182829231892 1 rotate no_reflect no_shear #
lump $-1 $-1 $36 $3 #
transform $-1 1 0 0 0 1 0 0 0 1 60.802636799218725 33.722852866316764 6.7921182829231892 1 rotate no_reflect no_shear #
lump $-1 $-1 $37 $4 #
transform $-1 1 0 0 0 1 0 0 0 1 60.802636799218725 33.722852866316764 6.7921182829231892 1 rotate no_reflect no_shear #
lump $-1 $-1 $38 $5 #
transform $-1 1 0 0 0 1 0 0 0 1 60.802636799218725 33.722852866316764 6.7921182829231892 1 rotate no_reflect no_shear #
lump $-1 $-1 $39 $6 #
transform $-1 1 0 0 0 1 0 0 0 1 60.802636799218725 33.722852866316764 6.7921182829231892 1 rotate no_reflect no_shear #
lump $-1 $-1 $40 $7 #
transform $-1 1 0 0 0 1 0 0 0 1 60.802636799218725 33.722852866316764 6.7921182829231892 1 rotate no_reflect no_shear #
lump $-1 $-1 $41 $8 #
transform $-1 1 0 0 0 1 0 0 0 1 60.802636799218725 33.722852866316764 6.7921182829231892 1 rotate no_reflect no_shear #
lump $-1 $-1 $42 $9 #
transform $-1 1 0 0 0 1 0 0 0 1 60.802636799218725 33.722852866316764 6.7921182829231892 1 rotate no_reflect no_shear #
lump $-1 $-1 $43 $10 #
transform $-1 1 0 0 0 1 0 0 0 1 60.802636799218725 33.722852866316764 6.7921182829231892 1 rotate no_reflect no_shear #
shell $-1 $-1 $-1 $44 $-1 $11 #
shell $-1 $-1 $-1 $45 $-1 $13 #
shell $-1 $-1 $-1 $46 $-1 $15 #
shell $-1 $-1 $-1 $47 $-1 $17 #
shell $-1 $-1 $-1 $48 $-1 $19 #
shell $-1 $-1 $-1 $49 $-1 $21 #
shell $-1 $-1 $-1 $50 $-1 $23 #
shell $-1 $-1 $-1 $51 $-1 $25 #
shell $-1 $-1 $-1 $52 $-1 $27 #
shell $-1 $-1 $-1 $53 $-1 $29 #
shell $-1 $-1 $-1 $54 $-1 $31 #
face $-1 $55 $56 $33 $-1 $57 forward single #
face $-1 $58 $59 $34 $-1 $60 reversed single #
face $-1 $61 $62 $35 $-1 $63 reversed single #
face $-1 $64 $65 $36 $-1 $66 reversed single #
face $-1 $67 $68 $37 $-1 $69 forward single #
face $-1 $70 $71 $38 $-1 $72 forward single #
face $-1 $73 $74 $39 $-1 $75 forward single #
face $-1 $76 $77 $40 $-1 $78 reversed single #
face $-1 $79 $80 $41 $-1 $81 forward single #
face $-1 $82 $83 $42 $-1 $84 forward single #
face $-1 $85 $86 $43 $-1 $87 forward single #
face $-1 $88 $89 $33 $-1 $90 reversed single #
loop $-1 $-1 $91 $44 #
plane-surface $-1 0 0 6.7921182829231892 0 0 1 1 0 0 forward_v I I I I #
face $-1 $92 $93 $34 $-1 $94 reversed single #
loop $-1 $-1 $95 $45 #
plane-surface $-1 0 -29.642886883924884 3.7921182829231892 0 0 1 1 0 0 forward_v I I I I #
face $-1 $96 $97 $35 $-1 $98 reversed single #
loop $-1 $-1 $99 $46 #
plane-surface $-1 0 29.642886883924881 3.7921182829231892 0 0 1 1 0 0 forward_v I I I I #
face $-1 $100 $101 $36 $-1 $102 reversed single #
loop $-1 $-1 $103 $47 #
plane-surface $-1 -133.98651827176994 -2.1638483026125623 100.54030339627747 0 1 0 -0.6018150307709319 0 0.79863550430605224 forward_v I I I I #
face $-1 $104 $105 $37 $-1 $106 forward single #
loop $-1 $107 $108 $48 #
cone-surface $-1 -58.076575648659976 -0.94589492238007011 4.4569182477389484 0.6018150307709319 0 -0.79863550430605224 0.39931775215302612 0 0.30090751538546595 1 I I 0 1 0.5 forward I I I I #
face $-1 $109 $110 $38 $-1 $111 forward single #
loop $-1 $112 $113 $49 #
cone-surface $-1 -58.076575648659976 0.88103514796866023 4.4569182477389484 0.6018150307709319 0 -0.79863550430605224 0.39931775215302612 0 0.30090751538546595 1 I I 0 1 0.5 forward I I I I #
face $-1 $114 $115 $39 $-1 $116 forward single #
loop $-1 $117 $118 $50 #
cone-surface $-1 -58.076575648659976 2.7079652183173906 4.4569182477389484 0.6018150307709319 0 -0.79863550430605224 0.39931775215302612 0 0.30090751538546595 1 I I 0 1 0.5 forward I I I I #
face $-1 $119 $120 $40 $-1 $121 reversed single #
loop $-1 $-1 $122 $51 #
plane-surface $-1 30.939349335190137 -10.75037597598584 171.37381771219486 0 -1 0 -0.57357644374324357 0 -0.81915203911291934 forward_v I I I I #
face $-1 $123 $124 $41 $-1 $125 forward single #
loop $-1 $126 $127 $52 #
cone-surface $-1 56.801541633137838 -22.600411916423571 3.563364884818963 -0.57357644374324357 0 -0.81915203911291934 0.81915203911291934 0 -0.57357644374324357 1 I I 0 1 1 forward I I I I #
face $-1 $128 $129 $42 $-1 $130 forward single #
loop $-1 $131 $132 $53 #
cone-surface $-1 56.801541633137838 -18.156648438759422 3.563364884818963 -0.57357644374324357 0 -0.81915203911291934 0.81915203911291934 0 -0.57357644374324357 1 I I 0 1 1 forward I I I I #
face $-1 $133 $134 $43 $-1 $135 forward single #
loop $-1 $136 $137 $54 #
cone-surface $-1 56.801541633137838 -13.712884961095273 3.563364884818963 -0.57357644374324357 0 -0.81915203911291934 0.81915203911291934 0 -0.57357644374324357 1 I I 0 1 1 forward I I I I #
face $-1 $138 $139 $33 $-1 $140 reversed single #
loop $-1 $-1 $141 $55 #
plane-surface $-1 0 0 -6.7921182829231892 0 0 1 1 0 0 forward_v I I I I #
coedge $-1 $142 $143 $144 $145 forward $56 $-1 #
face $-1 $146 $147 $34 $-1 $148 reversed single #
loop $-1 $-1 $149 $58 #
plane-surface $-1 0 -25.562920901533005 5.2921182829231892 0 -1 0 0 0 -1 forward_v I I I I #
coedge $-1 $150 $151 $152 $153 reversed $59 $-1 #
face $-1 $154 $155 $35 $-1 $156 forward single #
loop $-1 $-1 $157 $61 #
plane-surface $-1 0 25.562920901533001 5.2921182829231892 0 1 0 0 0 1 forward_v I I I I #
coedge $-1 $158 $159 $160 $161 reversed $62 $-1 #
face $-1 $162 $163 $36 $-1 $164 reversed single #
loop $-1 $-1 $165 $64 #
plane-surface $-1 -60.802636799218718 0.88103514796866023 3.4220143897139081 -0.6018150307709319 0 0.79863550430605224 0.79863550430605224 0 0.6018150307709319 forward_v I I I I #
coedge $-1 $166 $167 $168 $169 reversed $65 $-1 #
face $-1 $-1 $170 $37 $-1 $171 forward single #
loop $-1 $172 $173 $67 #
cone-surface $-1 -57.436200155927203 -0.94589492238007011 3.6071112830828316 0.6018150307709319 0 -0.79863550430605224 0.19965887607651306 0 0.15045375769273298 1 I I -0.70710678118654746 0.70710678118654746 0.25 forward I I I I #
loop $-1 $-1 $174 $48 #
coedge $-1 $108 $108 $175 $176 reversed $68 $-1 #
face $-1 $-1 $177 $38 $-1 $178 forward single #
loop $-1 $179 $180 $70 #
cone-surface $-1 -57.436200155927203 0.88103514796866023 3.6071112830828316 0.6018150307709319 0 -0.79863550430605224 0.19965887607651306 0 0.15045375769273298 1 I I -0.70710678118654746 0.70710678118654746 0.25 forward I I I I #
loop $-1 $-1 $181 $49 #
coedge $-1 $113 $113 $182 $183 reversed $71 $-1 #
face $-1 $-1 $184 $39 $-1 $185 forward single #
loop $-1 $186 $187 $73 #
cone-surface $-1 -57.436200155927203 2.7079652183173906 3.6071112830828316 0.6018150307709319 0 -0.79863550430605224 0.19965887607651306 0 0.15045375769273298 1 I I -0.70710678118654746 0.70710678118654746 0.25 forward I I I I #
loop $-1 $-1 $188 $50 #
coedge $-1 $118 $118 $189 $190 reversed $74 $-1 #
face $-1 $191 $192 $40 $-1 $193 forward single #
loop $-1 $-1 $194 $76 #
plane-surface $-1 -38.810571035825767 -18.156648438759422 71.760609877150358 0.57357644374324357 0 0.81915203911291934 0.81915203911291934 0 -0.57357644374324357 forward_v I I I I #
coedge $-1 $195 $196 $197 $198 reversed $77 $-1 #
face $-1 $-1 $199 $41 $-1 $200 forward single #
loop $-1 $201 $202 $79 #
cone-surface $-1 55.927952168083046 -22.600411916423571 2.3157498555526477 -0.57357644374324357 0 -0.81915203911291934 0.40957601955645967 0 -0.28678822187162178 1 I I -0.70710678118654746 0.70710678118654746 0.5 forward I I I I #
loop $-1 $-1 $203 $52 #
coedge $-1 $127 $127 $204 $205 reversed $80 $-1 #
face $-1 $-1 $206 $42 $-1 $207 forward single #
loop $-1 $208 $209 $82 #
cone-surface $-1 55.927952168083046 -18.156648438759422 2.3157498555526477 -0.57357644374324357 0 -0.81915203911291934 0.40957601955645967 0 -0.28678822187162178 1 I I -0.70710678118654746 0.70710678118654746 0.5 forward I I I I #
loop $-1 $-1 $210 $53 #
coedge $-1 $132 $132 $211 $212 reversed $83 $-1 #
face $-1 $-1 $213 $43 $-1 $214 forward single #
loop $-1 $215 $216 $85 #
cone-surface $-1 55.927952168083046 -13.712884961095273 2.3157498555526477 -0.57357644374324357 0 -0.81915203911291934 0.40957601955645967 0 -0.28678822187162178 1 I I -0.70710678118654746 0.70710678118654746 0.5 forward I I I I #
loop $-1 $-1 $217 $54 #
coedge $-1 $137 $137 $218 $219 reversed $86 $-1 #
face $-1 $220 $221 $33 $-1 $222 reversed single #
loop $-1 $-1 $223 $88 #
plane-surface $-1 0 -33.722852866316764 0 0 1 0 0 0 1 forward_v I I I I #
coedge $-1 $224 $225 $226 $227 forward $89 $-1 #
coedge $-1 $228 $91 $229 $230 forward $56 $-1 #
coedge $-1 $91 $228 $231 $232 forward $56 $-1 #
coedge $-1 $233 $234 $91 $145 reversed $235 $-1 #
edge $-1 $236 -33.722852866316764 $237 33.722852866316764 $144 $238 forward 7 unknown #
face $-1 $239 $240 $34 $-1 $241 reversed single #
loop $-1 $-1 $242 $92 #
plane-surface $-1 -60.802636799218725 0 0 1 0 0 0 0 -1 forward_v I I I I #
coedge $-1 $243 $244 $151 $245 reversed $93 $-1 #
coedge $-1 $246 $95 $247 $248 reversed $59 $-1 #
coedge $-1 $95 $246 $149 $245 forward $59 $-1 #
coedge $-1 $249 $250 $95 $153 forward $251 $-1 #
edge $-1 $252 -18.90140942435432 $253 -10.741477459570563 $152 $254 forward 7 unknown #
face $-1 $255 $256 $35 $-1 $257 reversed single #
loop $-1 $-1 $258 $96 #
plane-surface $-1 0 0 6.7921182829231892 0 0 1 1 0 0 forward_v I I I I #
coedge $-1 $259 $260 $261 $262 reversed $97 $-1 #
coedge $-1 $263 $99 $259 $264 forward $62 $-1 #
coedge $-1 $99 $263 $265 $266 reversed $62 $-1 #
coedge $-1 $267 $268 $99 $161 forward $256 $-1 #
edge $-1 $269 10.741477459570561 $270 18.901409424354316 $160 $271 forward 7 unknown #
face $-1 $272 $273 $36 $-1 $274 reversed single #
loop $-1 $-1 $275 $100 #
plane-surface $-1 -133.98651827176994 3.9259185985498828 100.54030339627747 0 -1 0 0.6018150307709319 0 -0.79863550430605224 forward_v I I I I #
coedge $-1 $276 $277 $278 $279 reversed $101 $-1 #
coedge $-1 $167 $103 $280 $281 reversed $65 $-1 #
coedge $-1 $103 $166 $276 $282 reversed $65 $-1 #
coedge $-1 $278 $283 $103 $169 forward $284 $-1 #
edge $-1 $285 6.1906223366662445 $286 10.662901167703694 $168 $287 forward 7 unknown #
loop $-1 $-1 $175 $104 #
plane-surface $-1 -60.802636799218718 0.88103514796866023 3.4220143897139081 -0.6018150307709319 0 0.79863550430605224 0.79863550430605224 0 0.6018150307709319 forward_v I I I I #
loop $-1 $-1 $288 $67 #
coedge $-1 $173 $173 $174 $289 reversed $105 $-1 #
coedge $-1 $174 $174 $173 $289 forward $107 $-1 #
coedge $-1 $175 $175 $108 $176 forward $170 $-1 #
edge $-1 $290 0 $290 6.2831853071796004 $175 $291 forward 7 unknown #
loop $-1 $-1 $182 $109 #
plane-surface $-1 -60.802636799218718 0.88103514796866023 3.4220143897139081 -0.6018150307709319 0 0.79863550430605224 0.79863550430605224 0 0.6018150307709319 forward_v I I I I #
loop $-1 $-1 $292 $70 #
coedge $-1 $180 $180 $181 $293 reversed $110 $-1 #
coedge $-1 $181 $181 $180 $293 forward $112 $-1 #
coedge $-1 $182 $182 $113 $183 forward $177 $-1 #
edge $-1 $294 0 $294 6.2831853071796004 $182 $295 forward 7 unknown #
loop $-1 $-1 $189 $114 #
plane-surface $-1 -60.802636799218718 0.88103514796866023 3.4220143897139081 -0.6018150307709319 0 0.79863550430605224 0.79863550430605224 0 0.6018150307709319 forward_v I I I I #
loop $-1 $-1 $296 $73 #
coedge $-1 $187 $187 $188 $297 reversed $115 $-1 #
coedge $-1 $188 $188 $187 $297 forward $117 $-1 #
coedge $-1 $189 $189 $118 $190 forward $184 $-1 #
edge $-1 $298 0 $298 6.2831853071796004 $189 $299 forward 7 unknown #
face $-1 $300 $301 $40 $-1 $302 forward single #
loop $-1 $-1 $197 $119 #
plane-surface $-1 0 0 6.7921182829231892 0 0 1 1 0 0 forward_v I I I I #
coedge $-1 $303 $304 $305 $306 reversed $120 $-1 #
coedge $-1 $196 $122 $307 $308 reversed $77 $-1 #
coedge $-1 $122 $195 $303 $309 reversed $77 $-1 #
coedge $-1 $305 $310 $122 $198 forward $192 $-1 #
edge $-1 $311 -45.33296213162366 $312 -38.504374285828234 $197 $313 forward 7 unknown #
loop $-1 $-1 $204 $123 #
plane-surface $-1 -38.810571035825767 -18.156648438759422 71.760609877150358 0.57357644374324357 0 0.81915203911291934 0.81915203911291934 0 -0.57357644374324357 forward_v I I I I #
loop $-1 $-1 $314 $79 #
coedge $-1 $202 $202 $203 $315 reversed $124 $-1 #
coedge $-1 $203 $203 $202 $315 forward $126 $-1 #
coedge $-1 $204 $204 $127 $205 forward $199 $-1 #
edge $-1 $316 0 $316 6.2831853071796004 $204 $317 forward 7 unknown #
loop $-1 $-1 $211 $128 #
plane-surface $-1 -38.810571035825767 -18.156648438759422 71.760609877150358 0.57357644374324357 0 0.81915203911291934 0.81915203911291934 0 -0.57357644374324357 forward_v I I I I #
loop $-1 $-1 $318 $82 #
coedge $-1 $209 $209 $210 $319 reversed $129 $-1 #
coedge $-1 $210 $210 $209 $319 forward $131 $-1 #
coedge $-1 $211 $211 $132 $212 forward $206 $-1 #
edge $-1 $320 0 $320 6.2831853071796004 $211 $321 forward 7 unknown #
loop $-1 $-1 $218 $133 #
plane-surface $-1 -38.810571035825767 -18.156648438759422 71.760609877150358 0.57357644374324357 0 0.81915203911291934 0.81915203911291934 0 -0.57357644374324357 forward_v I I I I #
loop $-1 $-1 $322 $85 #
coedge $-1 $216 $216 $217 $323 reversed $134 $-1 #
coedge $-1 $217 $217 $216 $323 forward $136 $-1 #
coedge $-1 $218 $218 $137 $219 forward $213 $-1 #
edge $-1 $324 0 $324 6.2831853071796004 $218 $325 forward 7 unknown #
face $-1 $326 $327 $33 $-1 $328 reversed single #
loop $-1 $-1 $329 $138 #
plane-surface $-1 -60.802636799218725 0 0 1 0 0 0 0 -1 forward_v I I I I #
coedge $-1 $330 $231 $331 $332 forward $139 $-1 #
coedge $-1 $333 $141 $330 $334 forward $89 $-1 #
coedge $-1 $141 $333 $335 $336 forward $89 $-1 #
coedge $-1 $234 $233 $141 $227 reversed $235 $-1 #
edge $-1 $337 -33.722852866316764 $338 33.722852866316764 $226 $339 forward 7 unknown #
coedge $-1 $143 $142 $340 $341 forward $56 $-1 #
coedge $-1 $342 $343 $142 $230 reversed $327 $-1 #
edge $-1 $237 -60.802636799218725 $344 60.802636799218725 $229 $345 forward 7 unknown #
coedge $-1 $223 $346 $143 $232 reversed $139 $-1 #
edge $-1 $347 -60.802636799218725 $236 60.802636799218725 $231 $348 forward 7 unknown #
coedge $-1 $226 $144 $346 $349 forward $235 $-1 #
coedge $-1 $144 $226 $342 $350 reversed $235 $-1 #
loop $-1 $-1 $233 $326 #
vertex $-1 $145 $351 #
vertex $-1 $145 $352 #
straight-curve $-1 60.802636799218725 0 6.7921182829231892 0 1 0 I I #
face $-1 $353 $354 $34 $-1 $355 forward single #
loop $-1 $-1 $247 $146 #
plane-surface $-1 0 -33.722852866316764 0 0 1 0 0 0 1 forward_v I I I I #
coedge $-1 $356 $357 $243 $358 forward $147 $-1 #
coedge $-1 $359 $149 $242 $358 reversed $93 $-1 #
coedge $-1 $149 $359 $249 $360 reversed $93 $-1 #
edge $-1 $361 -60.802636799218725 $253 60.802636799218725 $149 $362 forward 7 unknown #
coedge $-1 $151 $150 $356 $363 reversed $59 $-1 #
coedge $-1 $364 $365 $150 $248 forward $240 $-1 #
edge $-1 $366 -60.802636799218725 $252 60.802636799218725 $247 $367 forward 7 unknown #
coedge $-1 $368 $152 $244 $360 forward $251 $-1 #
coedge $-1 $152 $368 $364 $369 forward $251 $-1 #
loop $-1 $-1 $249 $353 #
vertex $-1 $248 $370 #
vertex $-1 $153 $371 #
straight-curve $-1 60.802636799218725 -14.821443441962442 3.7921182829231892 0 1 0 I I #
face $-1 $372 $373 $35 $-1 $374 reversed single #
loop $-1 $-1 $268 $154 #
plane-surface $-1 60.802636799218725 0 0 -1 0 0 0 0 1 forward_v I I I I #
coedge $-1 $375 $376 $260 $377 forward $155 $-1 #
coedge $-1 $378 $157 $158 $264 reversed $97 $-1 #
coedge $-1 $157 $378 $258 $377 reversed $97 $-1 #
coedge $-1 $379 $380 $157 $262 forward $373 $-1 #
edge $-1 $381 1.1460591414615946 $382 4.1460591414615946 $261 $383 forward 7 unknown #
coedge $-1 $159 $158 $380 $384 reversed $62 $-1 #
edge $-1 $269 -60.802636799218725 $381 60.802636799218725 $259 $385 forward 7 unknown #
coedge $-1 $386 $387 $159 $266 forward $388 $-1 #
edge $-1 $270 -60.802636799218725 $389 60.802636799218725 $265 $390 forward 7 unknown #
coedge $-1 $391 $160 $387 $392 reversed $256 $-1 #
coedge $-1 $160 $391 $378 $393 forward $256 $-1 #
vertex $-1 $161 $394 #
vertex $-1 $266 $395 #
straight-curve $-1 60.802636799218725 14.82144344196244 3.7921182829231892 0 1 0 I I #
face $-1 $-1 $284 $36 $-1 $396 forward single #
loop $-1 $-1 $397 $162 #
plane-surface $-1 -60.802636799218725 0 0 1 0 0 0 0 -1 forward_v I I I I #
coedge $-1 $398 $399 $400 $401 reversed $163 $-1 #
coedge $-1 $402 $165 $167 $282 forward $101 $-1 #
coedge $-1 $165 $402 $398 $403 forward $101 $-1 #
coedge $-1 $400 $168 $165 $279 forward $284 $-1 #
edge $-1 $286 -2.6043658765968924 $404 3.4854010245655527 $278 $405 forward 7 unknown #
coedge $-1 $406 $407 $166 $281 forward $273 $-1 #
edge $-1 $408 -46.848137308424832 $285 -43.478033415215542 $280 $409 forward 7 unknown #
edge $-1 $286 -5.5998998378158511 $408 8.8817612989391469e-015 $167 $410 forward 7 unknown #
coedge $-1 $168 $400 $406 $411 forward $284 $-1 #
loop $-1 $-1 $400 $272 #
vertex $-1 $281 $412 #
vertex $-1 $169 $413 #
straight-curve $-1 -66.993259135884969 -2.1638483026125623 6.792118282923191 1 0 0 I I #
coedge $-1 $288 $288 $-1 $414 reversed $172 $-1 #
edge $-1 $415 0 $415 6.2831853071796004 $173 $416 forward 7 unknown #
vertex $-1 $176 $417 #
ellipse-curve $-1 -58.566497383700003 -0.94589492238007011 5.1070663363185425 -0.6018150307709319 0 0.79863550430605224 0.39931775215302612 0 0.30090751538546595 1 I I #
coedge $-1 $292 $292 $-1 $418 reversed $179 $-1 #
edge $-1 $419 0 $419 6.2831853071796004 $180 $420 forward 7 unknown #
vertex $-1 $183 $421 #
ellipse-curve $-1 -58.566497383700003 0.88103514796866023 5.1070663363185425 -0.6018150307709319 0 0.79863550430605224 0.39931775215302612 0 0.30090751538546595 1 I I #
coedge $-1 $296 $296 $-1 $422 reversed $186 $-1 #
edge $-1 $423 0 $423 6.2831853071796004 $187 $424 forward 7 unknown #
vertex $-1 $190 $425 #
ellipse-curve $-1 -58.566497383700003 2.7079652183173906 5.1070663363185425 -0.6018150307709319 0 0.79863550430605224 0.39931775215302612 0 0.30090751538546595 1 I I #
face $-1 $-1 $426 $40 $-1 $427 reversed single #
loop $-1 $-1 $428 $191 #
plane-surface $-1 0 -25.562920901533005 5.2921182829231892 0 -1 0 0 0 -1 forward_v I I I I #
coedge $-1 $429 $194 $196 $309 forward $120 $-1 #
coedge $-1 $194 $429 $428 $430 forward $120 $-1 #
coedge $-1 $431 $197 $194 $306 forward $192 $-1 #
edge $-1 $312 1.6720517566061286 $432 16.484596682153295 $305 $433 forward 7 unknown #
coedge $-1 $434 $435 $195 $308 forward $426 $-1 #
edge $-1 $436 -83.676219349962977 $311 -78.894790573174248 $307 $437 forward 7 unknown #
edge $-1 $312 113.26910702649033 $436 121.60527359843745 $196 $438 forward 7 unknown #
coedge $-1 $197 $431 $434 $439 forward $192 $-1 #
vertex $-1 $308 $440 #
vertex $-1 $198 $441 #
straight-curve $-1 15.469674667595068 -10.75037597598584 6.7921182829231839 -1 0 0 I I #
coedge $-1 $314 $314 $-1 $442 reversed $201 $-1 #
edge $-1 $443 0 $443 6.2831853071796004 $202 $444 forward 7 unknown #
vertex $-1 $205 $445 #
ellipse-curve $-1 57.388342876321012 -22.600411916423571 4.4014038945288236 0.57357644374324357 0 0.81915203911291934 0.81915203911291934 0 -0.57357644374324357 1 I I #
coedge $-1 $318 $318 $-1 $446 reversed $208 $-1 #
edge $-1 $447 0 $447 6.2831853071796004 $209 $448 forward 7 unknown #
vertex $-1 $212 $449 #
ellipse-curve $-1 57.388342876321012 -18.156648438759422 4.4014038945288236 0.57357644374324357 0 0.81915203911291934 0.81915203911291934 0 -0.57357644374324357 1 I I #
coedge $-1 $322 $322 $-1 $450 reversed $215 $-1 #
edge $-1 $451 0 $451 6.2831853071796004 $216 $452 forward 7 unknown #
vertex $-1 $219 $453 #
ellipse-curve $-1 57.388342876321012 -13.712884961095273 4.4014038945288236 0.57357644374324357 0 0.81915203911291934 0.81915203911291934 0 -0.57357644374324357 1 I I #
face $-1 $-1 $235 $33 $-1 $454 reversed single #
loop $-1 $-1 $342 $220 #
plane-surface $-1 0 33.722852866316764 0 0 -1 0 0 0 -1 forward_v I I I I #
coedge $-1 $455 $340 $343 $456 forward $221 $-1 #
coedge $-1 $346 $223 $224 $334 reversed $139 $-1 #
coedge $-1 $340 $455 $223 $332 reversed $221 $-1 #
edge $-1 $347 -6.7921182829231892 $457 6.7921182829231892 $331 $458 forward 7 unknown #
coedge $-1 $225 $224 $455 $459 forward $89 $-1 #
edge $-1 $338 -60.802636799218725 $457 60.802636799218725 $330 $460 forward 7 unknown #
coedge $-1 $343 $342 $225 $336 reversed $327 $-1 #
edge $-1 $461 -60.802636799218725 $337 60.802636799218725 $335 $462 forward 7 unknown #
vertex $-1 $227 $463 #
vertex $-1 $349 $464 #
straight-curve $-1 60.802636799218725 0 -6.7921182829231892 0 -1 0 I I #
coedge $-1 $329 $331 $228 $341 reversed $221 $-1 #
edge $-1 $344 -33.722852866316764 $347 33.722852866316764 $340 $465 forward 7 unknown #
coedge $-1 $335 $229 $234 $350 forward $327 $-1 #
coedge $-1 $229 $335 $329 $456 reversed $327 $-1 #
vertex $-1 $230 $466 #
straight-curve $-1 0 33.722852866316764 6.7921182829231892 -1 0 0 I I #
coedge $-1 $231 $330 $233 $349 reversed $139 $-1 #
vertex $-1 $341 $467 #
straight-curve $-1 0 -33.722852866316764 6.7921182829231892 1 0 0 I I #
edge $-1 $236 -6.7921182829231892 $338 6.7921182829231892 $233 $468 forward 7 unknown #
edge $-1 $237 -6.7921182829231892 $337 6.7921182829231892 $234 $469 forward 7 unknown #
point $-1 60.802636799218725 -33.722852866316764 6.7921182829231892 #
point $-1 60.802636799218725 33.722852866316764 6.7921182829231892 #
face $-1 $-1 $251 $34 $-1 $470 reversed single #
loop $-1 $-1 $471 $239 #
plane-surface $-1 0 0 6.7921182829231892 0 0 1 1 0 0 forward_v I I I I #
coedge $-1 $472 $242 $246 $363 forward $147 $-1 #
coedge $-1 $242 $472 $473 $474 reversed $147 $-1 #
edge $-1 $475 -4.1460591414615946 $361 -1.1460591414615946 $242 $476 forward 7 unknown #
coedge $-1 $244 $243 $471 $477 reversed $93 $-1 #
edge $-1 $253 1.1460591414615946 $478 4.1460591414615946 $249 $479 forward 7 unknown #
vertex $-1 $363 $480 #
straight-curve $-1 0 -25.562920901533005 3.7921182829231892 1 0 0 I I #
edge $-1 $361 10.741477459570563 $366 18.90140942435432 $356 $481 forward 7 unknown #
coedge $-1 $482 $247 $250 $369 reversed $240 $-1 #
coedge $-1 $247 $482 $472 $483 forward $240 $-1 #
vertex $-1 $248 $484 #
straight-curve $-1 0 -33.722852866316764 3.7921182829231892 1 0 0 I I #
coedge $-1 $250 $249 $485 $486 reversed $251 $-1 #
edge $-1 $487 -6.7921182829231892 $252 -3.7921182829231892 $250 $488 forward 7 unknown #
point $-1 60.802636799218725 -33.722852866316764 3.7921182829231892 #
point $-1 60.802636799218725 -25.562920901533005 3.7921182829231892 #
face $-1 $-1 $388 $35 $-1 $489 reversed single #
loop $-1 $-1 $261 $255 #
plane-surface $-1 -60.802636799218725 0 0 1 0 0 0 0 -1 forward_v I I I I #
coedge $-1 $490 $258 $391 $491 forward $155 $-1 #
coedge $-1 $258 $490 $379 $492 forward $155 $-1 #
edge $-1 $382 -60.802636799218725 $493 60.802636799218725 $258 $494 forward 7 unknown #
coedge $-1 $260 $259 $268 $393 reversed $97 $-1 #
coedge $-1 $495 $261 $376 $492 reversed $373 $-1 #
coedge $-1 $261 $495 $263 $384 forward $373 $-1 #
vertex $-1 $384 $496 #
vertex $-1 $262 $497 #
straight-curve $-1 -60.802636799218725 25.562920901533001 2.6460591414615946 0 0 1 I I #
edge $-1 $389 -18.901409424354316 $381 -10.741477459570561 $380 $498 forward 7 unknown #
straight-curve $-1 0 25.562920901533001 3.7921182829231892 -1 0 0 I I #
coedge $-1 $499 $265 $495 $500 reversed $388 $-1 #
coedge $-1 $265 $499 $267 $392 forward $388 $-1 #
loop $-1 $-1 $265 $372 #
vertex $-1 $266 $501 #
straight-curve $-1 0 33.722852866316764 3.7921182829231892 -1 0 0 I I #
coedge $-1 $268 $267 $375 $491 reversed $256 $-1 #
edge $-1 $502 -6.7921182829231892 $270 -3.7921182829231892 $267 $503 forward 7 unknown #
edge $-1 $493 -4.1460591414615946 $269 -1.1460591414615946 $268 $504 forward 7 unknown #
point $-1 60.802636799218725 25.562920901533001 3.7921182829231892 #
point $-1 60.802636799218725 33.722852866316757 3.7921182829231892 #
plane-surface $-1 0 0 6.7921182829231892 0 0 1 1 0 0 forward_v I I I I #
coedge $-1 $407 $406 $399 $505 forward $273 $-1 #
coedge $-1 $399 $275 $277 $403 reversed $163 $-1 #
coedge $-1 $275 $398 $397 $505 reversed $163 $-1 #
coedge $-1 $283 $278 $275 $401 forward $284 $-1 #
edge $-1 $404 -10.662901167703694 $506 -6.1906223366662445 $400 $507 forward 7 unknown #
coedge $-1 $277 $276 $407 $508 reversed $101 $-1 #
edge $-1 $509 -8.8817612989391469e-015 $404 5.5998998378158511 $398 $510 forward 7 unknown #
vertex $-1 $279 $511 #
straight-curve $-1 -56.330357968181289 0.44051757398433011 6.7921182829231874 0 1 0 I I #
coedge $-1 $397 $280 $283 $411 reversed $273 $-1 #
coedge $-1 $280 $397 $402 $508 forward $273 $-1 #
vertex $-1 $281 $512 #
straight-curve $-1 -60.802636799218725 -2.1638483026125623 50.270151698138733 0 0 1 I I #
straight-curve $-1 -60.802636799218718 -2.1638483026125623 3.4220143897139081 -0.79863550430605224 0 -0.6018150307709319 I I #
edge $-1 $506 -3.9259185985498828 $285 2.1638483026125623 $406 $513 forward 7 unknown #
point $-1 -60.802636799218725 -2.1638483026125623 6.7921182829231892 #
point $-1 -56.330357968181275 -2.1638483026125623 6.7921182829231892 #
edge $-1 $514 1 $514 0 $288 $-1 forward 7 unknown #
vertex $-1 $289 $515 #
ellipse-curve $-1 -57.586653913619934 -0.94589492238007011 3.8067701591593446 -0.6018150307709319 0 0.79863550430605224 0.39931775215302612 0 0.30090751538546595 1 I I #
point $-1 -58.167179631546986 -0.94589492238007011 5.4079738517040177 #
edge $-1 $516 1 $516 0 $292 $-1 forward 7 unknown #
vertex $-1 $293 $517 #
ellipse-curve $-1 -57.586653913619934 0.88103514796866023 3.8067701591593446 -0.6018150307709319 0 0.79863550430605224 0.39931775215302612 0 0.30090751538546595 1 I I #
point $-1 -58.167179631546986 0.88103514796866023 5.4079738517040177 #
edge $-1 $518 1 $518 0 $296 $-1 forward 7 unknown #
vertex $-1 $297 $519 #
ellipse-curve $-1 -57.586653913619934 2.7079652183173906 3.8067701591593446 -0.6018150307709319 0 0.79863550430605224 0.39931775215302612 0 0.30090751538546595 1 I I #
point $-1 -58.167179631546986 2.7079652183173906 5.4079738517040177 #
loop $-1 $-1 $307 $300 #
plane-surface $-1 60.802636799218725 0 0 -1 0 0 0 0 1 forward_v I I I I #
coedge $-1 $520 $521 $304 $430 reversed $301 $-1 #
coedge $-1 $304 $303 $435 $522 reversed $120 $-1 #
edge $-1 $523 -121.60527359843745 $432 -113.26910702649033 $428 $524 forward 7 unknown #
coedge $-1 $310 $305 $521 $525 forward $192 $-1 #
vertex $-1 $525 $526 #
straight-curve $-1 53.974048953423285 -9.0783242193797111 6.7921182829231981 0 -1 0 I I #
coedge $-1 $527 $307 $310 $439 reversed $426 $-1 #
coedge $-1 $307 $527 $429 $522 forward $426 $-1 #
vertex $-1 $308 $528 #
straight-curve $-1 60.802636799218725 -10.75037597598584 85.686908856097432 0 0 1 I I #
straight-curve $-1 -38.810571035825767 -10.75037597598584 71.760609877150358 0.81915203911291934 0 -0.57357644374324357 I I #
edge $-1 $529 -25.562920901533005 $311 -10.75037597598584 $434 $530 forward 7 unknown #
point $-1 60.802636799218725 -10.75037597598584 6.7921182829231892 #
point $-1 53.974048953423299 -10.75037597598584 6.7921182829231839 #
edge $-1 $531 1 $531 0 $314 $-1 forward 7 unknown #
vertex $-1 $315 $532 #
ellipse-curve $-1 56.21474038995467 -22.600411916423571 2.7253258751091072 0.57357644374324357 0 0.81915203911291934 0.81915203911291934 0 -0.57357644374324357 1 I I #
point $-1 58.207494915433927 -22.600411916423571 3.8278274507855752 #
edge $-1 $533 1 $533 0 $318 $-1 forward 7 unknown #
vertex $-1 $319 $534 #
ellipse-curve $-1 56.21474038995467 -18.156648438759422 2.7253258751091072 0.57357644374324357 0 0.81915203911291934 0.81915203911291934 0 -0.57357644374324357 1 I I #
point $-1 58.207494915433927 -18.156648438759422 3.8278274507855752 #
edge $-1 $535 1 $535 0 $322 $-1 forward 7 unknown #
vertex $-1 $323 $536 #
ellipse-curve $-1 56.21474038995467 -13.712884961095273 2.7253258751091072 0.57357644374324357 0 0.81915203911291934 0.81915203911291934 0 -0.57357644374324357 1 I I #
point $-1 58.207494915433927 -13.712884961095273 3.8278274507855752 #
plane-surface $-1 60.802636799218725 0 0 -1 0 0 0 0 1 forward_v I I I I #
coedge $-1 $331 $329 $333 $459 reversed $221 $-1 #
edge $-1 $344 -6.7921182829231892 $461 6.7921182829231892 $343 $537 forward 7 unknown #
vertex $-1 $459 $538 #
straight-curve $-1 -60.802636799218725 -33.722852866316764 0 0 0 -1 I I #
edge $-1 $457 -33.722852866316764 $461 33.722852866316764 $455 $539 forward 7 unknown #
straight-curve $-1 0 -33.722852866316764 -6.7921182829231892 -1 0 0 I I #
vertex $-1 $336 $540 #
straight-curve $-1 0 33.722852866316764 -6.7921182829231892 1 0 0 I I #
point $-1 60.802636799218725 33.722852866316764 -6.7921182829231892 #
point $-1 60.802636799218725 -33.722852866316764 -6.7921182829231892 #
straight-curve $-1 -60.802636799218725 0 6.7921182829231892 0 -1 0 I I #
point $-1 -60.802636799218725 33.722852866316764 6.7921182829231892 #
point $-1 -60.802636799218725 -33.722852866316764 6.7921182829231892 #
straight-curve $-1 60.802636799218725 -33.722852866316764 0 0 0 -1 I I #
straight-curve $-1 60.802636799218725 33.722852866316764 0 0 0 -1 I I #
plane-surface $-1 60.802636799218725 0 0 -1 0 0 0 0 1 forward_v I I I I #
coedge $-1 $473 $485 $359 $477 forward $354 $-1 #
coedge $-1 $357 $356 $365 $483 reversed $147 $-1 #
coedge $-1 $541 $471 $357 $474 forward $354 $-1 #
edge $-1 $475 25.562920901533005 $542 33.722852866316764 $357 $543 forward 7 unknown #
vertex $-1 $474 $544 #
straight-curve $-1 -60.802636799218725 -25.562920901533005 2.6460591414615946 0 0 -1 I I #
edge $-1 $478 -60.802636799218725 $475 60.802636799218725 $471 $545 forward 7 unknown #
vertex $-1 $360 $546 #
straight-curve $-1 60.802636799218725 -25.562920901533005 2.6460591414615946 0 0 1 I I #
point $-1 -60.802636799218725 -25.562920901533005 3.7921182829231892 #
straight-curve $-1 -60.802636799218725 -14.821443441962442 3.7921182829231892 0 -1 0 I I #
coedge $-1 $365 $364 $541 $547 reversed $240 $-1 #
edge $-1 $542 -6.7921182829231892 $366 -3.7921182829231892 $472 $548 forward 7 unknown #
point $-1 -60.802636799218725 -33.722852866316764 3.7921182829231892 #
coedge $-1 $471 $541 $368 $486 forward $354 $-1 #
edge $-1 $487 -33.722852866316764 $478 -25.562920901533005 $368 $549 forward 7 unknown #
vertex $-1 $486 $550 #
straight-curve $-1 60.802636799218725 -33.722852866316764 0 0 0 -1 I I #
plane-surface $-1 0 33.722852866316764 0 0 -1 0 0 0 -1 forward_v I I I I #
coedge $-1 $376 $375 $499 $551 forward $155 $-1 #
edge $-1 $493 25.562920901533001 $502 33.722852866316764 $391 $552 forward 7 unknown #
edge $-1 $553 -33.722852866316764 $382 -25.562920901533001 $379 $554 forward 7 unknown #
vertex $-1 $491 $555 #
straight-curve $-1 0 25.562920901533001 6.7921182829231892 1 0 0 I I #
coedge $-1 $380 $379 $386 $500 forward $373 $-1 #
point $-1 -60.802636799218725 25.562920901533001 3.7921182829231892 #
point $-1 -60.802636799218725 25.562920901533001 6.7921182829231892 #
straight-curve $-1 -60.802636799218725 14.82144344196244 3.7921182829231892 0 -1 0 I I #
coedge $-1 $387 $386 $490 $551 reversed $388 $-1 #
edge $-1 $553 -6.7921182829231892 $389 -3.7921182829231892 $386 $556 forward 7 unknown #
point $-1 -60.802636799218725 33.722852866316757 3.7921182829231892 #
vertex $-1 $491 $557 #
straight-curve $-1 60.802636799218725 33.722852866316764 0 0 0 -1 I I #
straight-curve $-1 60.802636799218725 25.562920901533001 2.6460591414615946 0 0 -1 I I #
edge $-1 $506 43.478033415215542 $509 46.848137308424832 $397 $558 forward 7 unknown #
vertex $-1 $411 $559 #
straight-curve $-1 -66.993259135884969 3.9259185985498828 6.792118282923191 -1 0 0 I I #
edge $-1 $509 -3.4854010245655527 $408 2.6043658765968924 $407 $560 forward 7 unknown #
vertex $-1 $508 $561 #
straight-curve $-1 -60.802636799218718 3.9259185985498828 3.4220143897139081 0.79863550430605224 0 0.6018150307709319 I I #
point $-1 -56.330357968181275 3.9259185985498828 6.7921182829231892 #
point $-1 -60.802636799218725 -2.1638483026125623 3.4220143897139028 #
straight-curve $-1 -60.802636799218725 0 6.7921182829231892 0 -1 0 I I #
vertex $-1 $414 $562 #
point $-1 -57.187336161466909 -0.94589492238007011 4.1076776745448109 #
vertex $-1 $418 $563 #
point $-1 -57.187336161466909 0.88103514796866023 4.1076776745448109 #
vertex $-1 $422 $564 #
point $-1 -57.187336161466909 2.7079652183173906 4.1076776745448109 #
coedge $-1 $521 $428 $527 $565 reversed $301 $-1 #
coedge $-1 $428 $520 $431 $525 reversed $301 $-1 #
edge $-1 $523 -16.484596682153295 $436 -1.6720517566061286 $435 $566 forward 7 unknown #
vertex $-1 $565 $567 #
straight-curve $-1 -38.810571035825767 -25.562920901533005 71.760609877150358 -0.81915203911291934 0 0.57357644374324357 I I #
edge $-1 $432 53.974048953423299 $529 60.802636799218725 $431 $568 forward 7 unknown #
point $-1 53.974048953423299 -25.562920901533005 6.7921182829231839 #
coedge $-1 $435 $434 $520 $565 forward $426 $-1 #
point $-1 60.802636799218725 -10.75037597598584 2.0106895061344545 #
vertex $-1 $439 $569 #
straight-curve $-1 60.802636799218725 0 6.7921182829231892 0 1 0 I I #
vertex $-1 $442 $570 #
point $-1 57.033892429067585 -22.600411916423571 2.1517494313658636 #
vertex $-1 $446 $571 #
point $-1 57.033892429067585 -18.156648438759422 2.1517494313658636 #
vertex $-1 $450 $572 #
point $-1 57.033892429067585 -13.712884961095273 2.1517494313658636 #
straight-curve $-1 -60.802636799218725 33.722852866316764 0 0 0 -1 I I #
point $-1 -60.802636799218725 -33.722852866316764 -6.7921182829231892 #
straight-curve $-1 -60.802636799218725 0 -6.7921182829231892 0 1 0 I I #
point $-1 -60.802636799218725 33.722852866316764 -6.7921182829231892 #
coedge $-1 $485 $473 $482 $547 forward $354 $-1 #
vertex $-1 $474 $573 #
straight-curve $-1 -60.802636799218725 0 6.7921182829231892 0 -1 0 I I #
point $-1 -60.802636799218725 -25.562920901533005 6.7921182829231892 #
straight-curve $-1 0 -25.562920901533005 6.7921182829231892 -1 0 0 I I #
point $-1 60.802636799218725 -25.562920901533005 6.7921182829231892 #
edge $-1 $542 -60.802636799218725 $487 60.802636799218725 $482 $574 forward 7 unknown #
straight-curve $-1 -60.802636799218725 -33.722852866316764 0 0 0 -1 I I #
straight-curve $-1 60.802636799218725 0 6.7921182829231892 0 1 0 I I #
point $-1 60.802636799218725 -33.722852866316764 6.7921182829231892 #
edge $-1 $502 -60.802636799218725 $553 60.802636799218725 $499 $575 forward 7 unknown #
straight-curve $-1 60.802636799218725 0 6.7921182829231892 0 1 0 I I #
vertex $-1 $551 $576 #
straight-curve $-1 -60.802636799218725 0 6.7921182829231892 0 -1 0 I I #
point $-1 60.802636799218725 25.562920901533001 6.7921182829231892 #
straight-curve $-1 -60.802636799218725 33.722852866316764 0 0 0 -1 I I #
point $-1 60.802636799218725 33.722852866316764 6.7921182829231892 #
straight-curve $-1 -60.802636799218725 3.9259185985498828 50.270151698138733 0 0 -1 I I #
point $-1 -60.802636799218725 3.9259185985498828 6.7921182829231892 #
straight-curve $-1 -60.802636799218725 0.44051757398433011 3.4220143897139002 0 -1 0 I I #
point $-1 -60.802636799218725 3.9259185985498828 3.4220143897139028 #
point $-1 -57.285746398234473 -0.94589492238007011 3.4074524070063186 #
point $-1 -57.285746398234473 0.88103514796866023 3.4074524070063186 #
point $-1 -57.285746398234473 2.7079652183173906 3.4074524070063186 #
edge $-1 $529 78.894790573174248 $523 83.676219349962977 $527 $577 forward 7 unknown #
straight-curve $-1 60.802636799218732 -9.0783242193797111 2.0106895061344545 0 1 0 I I #
point $-1 60.802636799218725 -25.562920901533005 2.0106895061344545 #
straight-curve $-1 0 -25.562920901533005 6.7921182829231892 1 0 0 I I #
point $-1 60.802636799218725 -25.562920901533005 6.7921182829231892 #
point $-1 55.641163946211421 -22.600411916423571 1.9061738359961879 #
point $-1 55.641163946211421 -18.156648438759422 1.9061738359961879 #
point $-1 55.641163946211421 -13.712884961095273 1.9061738359961879 #
point $-1 -60.802636799218725 -33.722852866316764 6.7921182829231892 #
straight-curve $-1 0 -33.722852866316764 6.7921182829231892 1 0 0 I I #
straight-curve $-1 0 33.722852866316764 6.7921182829231892 -1 0 0 I I #
point $-1 -60.802636799218725 33.722852866316764 6.7921182829231892 #
straight-curve $-1 60.802636799218725 -25.562920901533005 85.686908856097432 0 0 -1 I I #
End-of-ACIS-data 