500 0 17 0           
7 Unknown 11 ACIS 5.0 NT 24 Thu Mar 25 20:47:02 1999 
-1 9.9999999999999995e-007 1e-010 
body $-1 $17 $-1 $18 #
body $-1 $19 $-1 $20 #
body $-1 $21 $-1 $22 #
body $-1 $23 $-1 $24 #
body $-1 $25 $-1 $26 #
body $-1 $27 $-1 $28 #
body $-1 $29 $-1 $30 #
body $-1 $31 $-1 $32 #
body $-1 $33 $-1 $34 #
body $-1 $35 $-1 $36 #
body $-1 $37 $-1 $38 #
body $-1 $39 $-1 $40 #
body $-1 $41 $-1 $42 #
body $-1 $43 $-1 $44 #
body $-1 $45 $-1 $46 #
body $-1 $47 $-1 $48 #
body $-1 $49 $-1 $50 #
lump $-1 $-1 $51 $0 #
transform $-1 1 0 0 0 1 0 0 0 1 55.856196783349105 32.863394907289418 11.587187537549855 1 rotate no_reflect no_shear #
lump $-1 $-1 $52 $1 #
transform $-1 1 0 0 0 1 0 0 0 1 55.856196783349105 32.863394907289418 11.587187537549855 1 rotate no_reflect no_shear #
lump $-1 $-1 $53 $2 #
transform $-1 1 0 0 0 1 0 0 0 1 55.856196783349105 32.863394907289418 11.587187537549855 1 rotate no_reflect no_shear #
lump $-1 $-1 $54 $3 #
transform $-1 1 0 0 0 1 0 0 0 1 55.856196783349105 32.863394907289418 11.587187537549855 1 rotate no_reflect no_shear #
lump $-1 $-1 $55 $4 #
transform $-1 1 0 0 0 1 0 0 0 1 55.856196783349105 32.863394907289418 11.587187537549855 1 rotate no_reflect no_shear #
lump $-1 $-1 $56 $5 #
transform $-1 1 0 0 0 1 0 0 0 1 55.856196783349105 32.863394907289418 11.587187537549855 1 rotate no_reflect no_shear #
lump $-1 $-1 $57 $6 #
transform $-1 1 0 0 0 1 0 0 0 1 55.856196783349105 32.863394907289418 11.587187537549855 1 rotate no_reflect no_shear #
lump $-1 $-1 $58 $7 #
transform $-1 1 0 0 0 1 0 0 0 1 55.856196783349105 32.863394907289418 11.587187537549855 1 rotate no_reflect no_shear #
lump $-1 $-1 $59 $8 #
transform $-1 1 0 0 0 1 0 0 0 1 55.856196783349105 32.863394907289418 11.587187537549855 1 rotate no_reflect no_shear #
lump $-1 $-1 $60 $9 #
transform $-1 1 0 0 0 1 0 0 0 1 55.856196783349105 32.863394907289418 11.587187537549855 1 rotate no_reflect no_shear #
lump $-1 $-1 $61 $10 #
transform $-1 1 0 0 0 1 0 0 0 1 55.856196783349105 32.863394907289418 11.587187537549855 1 rotate no_reflect no_shear #
lump $-1 $-1 $62 $11 #
transform $-1 1 0 0 0 1 0 0 0 1 55.856196783349105 32.863394907289418 11.587187537549855 1 rotate no_reflect no_shear #
lump $-1 $-1 $63 $12 #
transform $-1 1 0 0 0 1 0 0 0 1 55.856196783349105 32.863394907289418 11.587187537549855 1 rotate no_reflect no_shear #
lump $-1 $-1 $64 $13 #
transform $-1 1 0 0 0 1 0 0 0 1 55.856196783349105 32.863394907289418 11.587187537549855 1 rotate no_reflect no_shear #
lump $-1 $-1 $65 $14 #
transform $-1 1 0 0 0 1 0 0 0 1 55.856196783349105 32.863394907289418 11.587187537549855 1 rotate no_reflect no_shear #
lump $-1 $-1 $66 $15 #
transform $-1 1 0 0 0 1 0 0 0 1 55.856196783349105 32.863394907289418 11.587187537549855 1 rotate no_reflect no_shear #
lump $-1 $-1 $67 $16 #
transform $-1 1 0 0 0 1 0 0 0 1 55.856196783349105 32.863394907289418 11.587187537549855 1 rotate no_reflect no_shear #
shell $-1 $-1 $-1 $68 $-1 $17 #
shell $-1 $-1 $-1 $69 $-1 $19 #
shell $-1 $-1 $-1 $70 $-1 $21 #
shell $-1 $-1 $-1 $71 $-1 $23 #
shell $-1 $-1 $-1 $72 $-1 $25 #
shell $-1 $-1 $-1 $73 $-1 $27 #
shell $-1 $-1 $-1 $74 $-1 $29 #
shell $-1 $-1 $-1 $75 $-1 $31 #
shell $-1 $-1 $-1 $76 $-1 $33 #
shell $-1 $-1 $-1 $77 $-1 $35 #
shell $-1 $-1 $-1 $78 $-1 $37 #
shell $-1 $-1 $-1 $79 $-1 $39 #
shell $-1 $-1 $-1 $80 $-1 $41 #
shell $-1 $-1 $-1 $81 $-1 $43 #
shell $-1 $-1 $-1 $82 $-1 $45 #
shell $-1 $-1 $-1 $83 $-1 $47 #
shell $-1 $-1 $-1 $84 $-1 $49 #
face $-1 $85 $86 $51 $-1 $87 forward single #
face $-1 $88 $89 $52 $-1 $90 forward single #
face $-1 $91 $92 $53 $-1 $93 forward single #
face $-1 $94 $95 $54 $-1 $96 reversed single #
face $-1 $97 $98 $55 $-1 $99 forward single #
face $-1 $100 $101 $56 $-1 $102 forward single #
face $-1 $103 $104 $57 $-1 $105 forward single #
face $-1 $106 $107 $58 $-1 $108 reversed single #
face $-1 $109 $110 $59 $-1 $111 forward single #
face $-1 $112 $113 $60 $-1 $114 forward single #
face $-1 $115 $116 $61 $-1 $117 forward single #
face $-1 $118 $119 $62 $-1 $120 reversed single #
face $-1 $121 $122 $63 $-1 $123 forward single #
face $-1 $124 $125 $64 $-1 $126 forward single #
face $-1 $127 $128 $65 $-1 $129 forward single #
face $-1 $130 $131 $66 $-1 $132 reversed single #
face $-1 $133 $134 $67 $-1 $135 forward single #
face $-1 $136 $137 $51 $-1 $138 reversed single #
loop $-1 $-1 $139 $68 #
plane-surface $-1 0 0 11.587187537549855 0 0 1 1 0 0 forward_v I I I I #
face $-1 $140 $141 $52 $-1 $142 reversed single #
loop $-1 $-1 $143 $69 #
plane-surface $-1 0 -32.863394907289418 0 0 1 0 0 0 1 forward_v I I I I #
face $-1 $144 $145 $53 $-1 $146 reversed single #
loop $-1 $-1 $147 $70 #
plane-surface $-1 0 32.863394907289418 0 0 -1 0 0 0 -1 forward_v I I I I #
face $-1 $148 $149 $54 $-1 $150 reversed single #
loop $-1 $-1 $151 $71 #
plane-surface $-1 88.703165382191003 -10.611228981574344 161.34397789628989 0 -1 0 -0.83867057594974714 0 -0.54463902268945019 forward_v I I I I #
face $-1 $152 $153 $55 $-1 $154 forward single #
loop $-1 $155 $156 $72 #
cone-surface $-1 53.886064539927538 -15.552251224765381 8.9268500516884597 -0.83867057594974714 0 -0.54463902268945019 0.2723195113447251 0 -0.41933528797487357 1 I I 0 1 0.5 forward I I I I #
face $-1 $157 $158 $56 $-1 $159 forward single #
loop $-1 $160 $161 $73 #
cone-surface $-1 53.886064539927538 -13.699367883568744 8.9268500516884597 -0.83867057594974714 0 -0.54463902268945019 0.2723195113447251 0 -0.41933528797487357 1 I I 0 1 0.5 forward I I I I #
face $-1 $162 $163 $57 $-1 $164 forward single #
loop $-1 $165 $166 $74 #
cone-surface $-1 53.886064539927538 -11.846484542372107 8.9268500516884597 -0.83867057594974714 0 -0.54463902268945019 0.2723195113447251 0 -0.41933528797487357 1 I I 0 1 0.5 forward I I I I #
face $-1 $167 $168 $58 $-1 $169 reversed single #
loop $-1 $-1 $170 $75 #
plane-surface $-1 88.703165382191003 3.0881389019944034 161.34397789628989 0 -1 0 -0.83867057594974714 0 -0.54463902268945019 forward_v I I I I #
face $-1 $171 $172 $59 $-1 $173 forward single #
loop $-1 $174 $175 $76 #
cone-surface $-1 53.886064539927538 -1.8528833411966374 8.9268500516884597 -0.83867057594974714 0 -0.54463902268945019 0.2723195113447251 0 -0.41933528797487357 1 I I 0 1 0.5 forward I I I I #
face $-1 $176 $177 $60 $-1 $178 forward single #
loop $-1 $179 $180 $77 #
cone-surface $-1 53.886064539927538 0 8.9268500516884597 -0.83867057594974714 0 -0.54463902268945019 0.2723195113447251 0 -0.41933528797487357 1 I I 0 1 0.5 forward I I I I #
face $-1 $181 $182 $61 $-1 $183 forward single #
loop $-1 $184 $185 $78 #
cone-surface $-1 53.886064539927538 1.8528833411966374 8.9268500516884597 -0.83867057594974714 0 -0.54463902268945019 0.2723195113447251 0 -0.41933528797487357 1 I I 0 1 0.5 forward I I I I #
face $-1 $186 $187 $62 $-1 $188 reversed single #
loop $-1 $-1 $189 $79 #
plane-surface $-1 88.703165382191003 16.787506785563153 161.34397789628989 0 -1 0 -0.83867057594974714 0 -0.54463902268945019 forward_v I I I I #
face $-1 $190 $191 $63 $-1 $192 forward single #
loop $-1 $193 $194 $80 #
cone-surface $-1 53.886064539927538 11.84648454237211 8.9268500516884597 -0.83867057594974714 0 -0.54463902268945019 0.2723195113447251 0 -0.41933528797487357 1 I I 0 1 0.5 forward I I I I #
face $-1 $195 $196 $64 $-1 $197 forward single #
loop $-1 $198 $199 $81 #
cone-surface $-1 53.886064539927538 13.699367883568748 8.9268500516884597 -0.83867057594974714 0 -0.54463902268945019 0.2723195113447251 0 -0.41933528797487357 1 I I 0 1 0.5 forward I I I I #
face $-1 $200 $201 $65 $-1 $202 forward single #
loop $-1 $203 $204 $82 #
cone-surface $-1 53.886064539927538 15.552251224765385 8.9268500516884597 -0.83867057594974714 0 -0.54463902268945019 0.2723195113447251 0 -0.41933528797487357 1 I I 0 1 0.5 forward I I I I #
face $-1 $205 $206 $66 $-1 $207 reversed single #
loop $-1 $-1 $208 $83 #
plane-surface $-1 -118.32497530746465 -0.085165242131356678 94.457158506466598 0 1 0 -0.55919291073839883 0 0.82903756765294845 forward_v I I I I #
face $-1 $209 $210 $67 $-1 $211 forward single #
loop $-1 $212 $213 $84 #
cone-surface $-1 -46.128015648454173 5.1160092064415394 3.0010387910287459 0.55919291073839883 0 -0.82903756765294845 2.072593919132371 0 1.3979822768459971 1 I I 0 1 2.5 forward I I I I #
face $-1 $214 $215 $51 $-1 $216 reversed single #
loop $-1 $-1 $217 $85 #
plane-surface $-1 0 0 -11.587187537549855 0 0 1 1 0 0 forward_v I I I I #
coedge $-1 $218 $219 $220 $221 forward $86 $-1 #
face $-1 $222 $223 $52 $-1 $224 forward single #
loop $-1 $-1 $225 $88 #
plane-surface $-1 -55.856196783349105 0 0 1 0 0 0 0 -1 forward_v I I I I #
coedge $-1 $226 $227 $228 $229 forward $89 $-1 #
face $-1 $230 $231 $53 $-1 $232 forward single #
loop $-1 $-1 $233 $91 #
plane-surface $-1 55.856196783349105 0 0 -1 0 0 0 0 1 forward_v I I I I #
coedge $-1 $234 $235 $236 $237 forward $92 $-1 #
face $-1 $238 $239 $54 $-1 $240 reversed single #
loop $-1 $-1 $241 $94 #
plane-surface $-1 -4.9867320711166201 -13.69936788356874 100.50104904182415 0.83867057594974714 0 0.54463902268945019 0.54463902268945019 0 -0.83867057594974714 forward_v I I I I #
coedge $-1 $242 $243 $244 $245 reversed $95 $-1 #
face $-1 $-1 $246 $55 $-1 $247 forward single #
loop $-1 $248 $249 $97 #
cone-surface $-1 53.257061607965227 -15.552251224765381 8.5183707846713723 -0.83867057594974714 0 -0.54463902268945019 0.13615975567236255 0 -0.20966764398743679 1 I I -0.70710678118654746 0.70710678118654746 0.25 forward I I I I #
loop $-1 $-1 $250 $72 #
coedge $-1 $156 $156 $251 $252 reversed $98 $-1 #
face $-1 $-1 $253 $56 $-1 $254 forward single #
loop $-1 $255 $256 $100 #
cone-surface $-1 53.257061607965227 -13.699367883568744 8.5183707846713723 -0.83867057594974714 0 -0.54463902268945019 0.13615975567236255 0 -0.20966764398743679 1 I I -0.70710678118654746 0.70710678118654746 0.25 forward I I I I #
loop $-1 $-1 $257 $73 #
coedge $-1 $161 $161 $258 $259 reversed $101 $-1 #
face $-1 $-1 $260 $57 $-1 $261 forward single #
loop $-1 $262 $263 $103 #
cone-surface $-1 53.257061607965227 -11.846484542372107 8.5183707846713723 -0.83867057594974714 0 -0.54463902268945019 0.13615975567236255 0 -0.20966764398743679 1 I I -0.70710678118654746 0.70710678118654746 0.25 forward I I I I #
loop $-1 $-1 $264 $74 #
coedge $-1 $166 $166 $265 $266 reversed $104 $-1 #
face $-1 $267 $268 $58 $-1 $269 reversed single #
loop $-1 $-1 $270 $106 #
plane-surface $-1 -4.9867320711166201 7.1054273576010019e-015 100.50104904182415 0.83867057594974714 0 0.54463902268945019 0.54463902268945019 0 -0.83867057594974714 forward_v I I I I #
coedge $-1 $271 $272 $273 $274 reversed $107 $-1 #
face $-1 $-1 $275 $59 $-1 $276 forward single #
loop $-1 $277 $278 $109 #
cone-surface $-1 53.257061607965227 -1.8528833411966374 8.5183707846713723 -0.83867057594974714 0 -0.54463902268945019 0.13615975567236255 0 -0.20966764398743679 1 I I -0.70710678118654746 0.70710678118654746 0.25 forward I I I I #
loop $-1 $-1 $279 $76 #
coedge $-1 $175 $175 $280 $281 reversed $110 $-1 #
face $-1 $-1 $282 $60 $-1 $283 forward single #
loop $-1 $284 $285 $112 #
cone-surface $-1 53.257061607965227 0 8.5183707846713723 -0.83867057594974714 0 -0.54463902268945019 0.13615975567236255 0 -0.20966764398743679 1 I I -0.70710678118654746 0.70710678118654746 0.25 forward I I I I #
loop $-1 $-1 $286 $77 #
coedge $-1 $180 $180 $287 $288 reversed $113 $-1 #
face $-1 $-1 $289 $61 $-1 $290 forward single #
loop $-1 $291 $292 $115 #
cone-surface $-1 53.257061607965227 1.8528833411966374 8.5183707846713723 -0.83867057594974714 0 -0.54463902268945019 0.13615975567236255 0 -0.20966764398743679 1 I I -0.70710678118654746 0.70710678118654746 0.25 forward I I I I #
loop $-1 $-1 $293 $78 #
coedge $-1 $185 $185 $294 $295 reversed $116 $-1 #
face $-1 $296 $297 $62 $-1 $298 reversed single #
loop $-1 $-1 $299 $118 #
plane-surface $-1 -4.9867320711166201 13.699367883568755 100.50104904182415 0.83867057594974714 0 0.54463902268945019 0.54463902268945019 0 -0.83867057594974714 forward_v I I I I #
coedge $-1 $300 $301 $302 $303 reversed $119 $-1 #
face $-1 $-1 $304 $63 $-1 $305 forward single #
loop $-1 $306 $307 $121 #
cone-surface $-1 53.257061607965227 11.84648454237211 8.5183707846713723 -0.83867057594974714 0 -0.54463902268945019 0.13615975567236255 0 -0.20966764398743679 1 I I -0.70710678118654746 0.70710678118654746 0.25 forward I I I I #
loop $-1 $-1 $308 $80 #
coedge $-1 $194 $194 $309 $310 reversed $122 $-1 #
face $-1 $-1 $311 $64 $-1 $312 forward single #
loop $-1 $313 $314 $124 #
cone-surface $-1 53.257061607965227 13.699367883568748 8.5183707846713723 -0.83867057594974714 0 -0.54463902268945019 0.13615975567236255 0 -0.20966764398743679 1 I I -0.70710678118654746 0.70710678118654746 0.25 forward I I I I #
loop $-1 $-1 $315 $81 #
coedge $-1 $199 $199 $316 $317 reversed $125 $-1 #
face $-1 $-1 $318 $65 $-1 $319 forward single #
loop $-1 $320 $321 $127 #
cone-surface $-1 53.257061607965227 15.552251224765385 8.5183707846713723 -0.83867057594974714 0 -0.54463902268945019 0.13615975567236255 0 -0.20966764398743679 1 I I -0.70710678118654746 0.70710678118654746 0.25 forward I I I I #
loop $-1 $-1 $322 $82 #
coedge $-1 $204 $204 $323 $324 reversed $128 $-1 #
face $-1 $325 $326 $66 $-1 $327 reversed single #
loop $-1 $-1 $328 $130 #
plane-surface $-1 -55.856196783349105 5.1160092064415466 1.8433874672422235 -0.55919291073839883 0 0.82903756765294845 0.82903756765294845 0 0.55919291073839883 forward_v I I I I #
coedge $-1 $329 $330 $331 $332 reversed $131 $-1 #
face $-1 $-1 $333 $67 $-1 $334 forward single #
loop $-1 $335 $336 $133 #
cone-surface $-1 -42.923732073168665 5.1160092064415394 -1.7495068799047289 0.55919291073839883 0 -0.82903756765294845 1.0362969595661855 0 0.69899113842299854 1 I I -0.70710678118654746 0.70710678118654746 1.25 forward I I I I #
loop $-1 $-1 $337 $84 #
coedge $-1 $213 $213 $338 $339 reversed $134 $-1 #
face $-1 $340 $341 $51 $-1 $342 reversed single #
loop $-1 $-1 $343 $136 #
plane-surface $-1 0 -32.863394907289418 0 0 1 0 0 0 1 forward_v I I I I #
coedge $-1 $344 $345 $346 $347 forward $137 $-1 #
coedge $-1 $348 $139 $349 $350 forward $86 $-1 #
coedge $-1 $139 $348 $351 $352 forward $86 $-1 #
coedge $-1 $353 $354 $139 $221 reversed $355 $-1 #
edge $-1 $356 -32.863394907289418 $357 32.863394907289418 $220 $358 forward 7 unknown #
face $-1 $359 $360 $52 $-1 $361 reversed single #
loop $-1 $-1 $362 $140 #
plane-surface $-1 0 -39.838420679599196 -1.9073249493501638 0 0 1 1 0 0 forward_v I I I I #
coedge $-1 $363 $364 $227 $365 forward $141 $-1 #
coedge $-1 $366 $143 $367 $368 reversed $89 $-1 #
coedge $-1 $143 $366 $225 $365 reversed $89 $-1 #
coedge $-1 $369 $362 $143 $229 reversed $223 $-1 #
edge $-1 $370 -55.856196783349105 $371 55.856196783349105 $228 $372 forward 7 unknown #
face $-1 $373 $374 $53 $-1 $375 reversed single #
loop $-1 $-1 $376 $144 #
plane-surface $-1 0 39.838420679599196 -1.9073249493501638 0 0 1 1 0 0 forward_v I I I I #
coedge $-1 $377 $378 $235 $379 forward $145 $-1 #
coedge $-1 $380 $147 $381 $382 reversed $92 $-1 #
coedge $-1 $147 $380 $233 $379 reversed $92 $-1 #
coedge $-1 $376 $383 $147 $237 reversed $231 $-1 #
edge $-1 $384 -55.856196783349105 $385 55.856196783349105 $236 $386 forward 7 unknown #
face $-1 $387 $388 $54 $-1 $389 forward single #
loop $-1 $-1 $390 $148 #
plane-surface $-1 88.703165382191003 -16.787506785563139 161.34397789628989 0 1 0 0.83867057594974714 0 0.54463902268945019 forward_v I I I I #
coedge $-1 $391 $392 $393 $394 reversed $149 $-1 #
coedge $-1 $243 $151 $395 $396 reversed $95 $-1 #
coedge $-1 $151 $242 $391 $397 reversed $95 $-1 #
coedge $-1 $393 $398 $151 $245 forward $388 $-1 #
edge $-1 $399 -11.504614092253604 $400 -8.403020181360219 $244 $401 forward 7 unknown #
loop $-1 $-1 $251 $152 #
plane-surface $-1 -4.9867320711166201 -13.69936788356874 100.50104904182415 0.83867057594974714 0 0.54463902268945019 0.54463902268945019 0 -0.83867057594974714 forward_v I I I I #
loop $-1 $-1 $402 $97 #
coedge $-1 $249 $249 $250 $403 reversed $153 $-1 #
coedge $-1 $250 $250 $249 $403 forward $155 $-1 #
coedge $-1 $251 $251 $156 $252 forward $246 $-1 #
edge $-1 $404 0 $404 6.2831853071796004 $251 $405 forward 7 unknown #
loop $-1 $-1 $258 $157 #
plane-surface $-1 -4.9867320711166201 -13.69936788356874 100.50104904182415 0.83867057594974714 0 0.54463902268945019 0.54463902268945019 0 -0.83867057594974714 forward_v I I I I #
loop $-1 $-1 $406 $100 #
coedge $-1 $256 $256 $257 $407 reversed $158 $-1 #
coedge $-1 $257 $257 $256 $407 forward $160 $-1 #
coedge $-1 $258 $258 $161 $259 forward $253 $-1 #
edge $-1 $408 0 $408 6.2831853071796004 $258 $409 forward 7 unknown #
loop $-1 $-1 $265 $162 #
plane-surface $-1 -4.9867320711166201 -13.69936788356874 100.50104904182415 0.83867057594974714 0 0.54463902268945019 0.54463902268945019 0 -0.83867057594974714 forward_v I I I I #
loop $-1 $-1 $410 $103 #
coedge $-1 $263 $263 $264 $411 reversed $163 $-1 #
coedge $-1 $264 $264 $263 $411 forward $165 $-1 #
coedge $-1 $265 $265 $166 $266 forward $260 $-1 #
edge $-1 $412 0 $412 6.2831853071796004 $265 $413 forward 7 unknown #
face $-1 $414 $415 $58 $-1 $416 reversed single #
loop $-1 $-1 $417 $167 #
plane-surface $-1 88.703165382191003 -3.0881389019943892 161.34397789628989 0 1 0 0.83867057594974714 0 0.54463902268945019 forward_v I I I I #
coedge $-1 $418 $419 $420 $421 reversed $168 $-1 #
coedge $-1 $272 $170 $422 $423 reversed $107 $-1 #
coedge $-1 $170 $271 $418 $424 reversed $107 $-1 #
coedge $-1 $420 $425 $170 $274 forward $426 $-1 #
edge $-1 $427 -11.504614092253604 $428 -8.403020181360219 $273 $429 forward 7 unknown #
loop $-1 $-1 $280 $171 #
plane-surface $-1 -4.9867320711166201 7.1054273576010019e-015 100.50104904182415 0.83867057594974714 0 0.54463902268945019 0.54463902268945019 0 -0.83867057594974714 forward_v I I I I #
loop $-1 $-1 $430 $109 #
coedge $-1 $278 $278 $279 $431 reversed $172 $-1 #
coedge $-1 $279 $279 $278 $431 forward $174 $-1 #
coedge $-1 $280 $280 $175 $281 forward $275 $-1 #
edge $-1 $432 0 $432 6.2831853071796004 $280 $433 forward 7 unknown #
loop $-1 $-1 $287 $176 #
plane-surface $-1 -4.9867320711166201 7.1054273576010019e-015 100.50104904182415 0.83867057594974714 0 0.54463902268945019 0.54463902268945019 0 -0.83867057594974714 forward_v I I I I #
loop $-1 $-1 $434 $112 #
coedge $-1 $285 $285 $286 $435 reversed $177 $-1 #
coedge $-1 $286 $286 $285 $435 forward $179 $-1 #
coedge $-1 $287 $287 $180 $288 forward $282 $-1 #
edge $-1 $436 0 $436 6.2831853071796004 $287 $437 forward 7 unknown #
loop $-1 $-1 $294 $181 #
plane-surface $-1 -4.9867320711166201 7.1054273576010019e-015 100.50104904182415 0.83867057594974714 0 0.54463902268945019 0.54463902268945019 0 -0.83867057594974714 forward_v I I I I #
loop $-1 $-1 $438 $115 #
coedge $-1 $292 $292 $293 $439 reversed $182 $-1 #
coedge $-1 $293 $293 $292 $439 forward $184 $-1 #
coedge $-1 $294 $294 $185 $295 forward $289 $-1 #
edge $-1 $440 0 $440 6.2831853071796004 $294 $441 forward 7 unknown #
face $-1 $442 $443 $62 $-1 $444 reversed single #
loop $-1 $-1 $445 $186 #
plane-surface $-1 88.703165382191003 10.611228981574358 161.34397789628989 0 1 0 0.83867057594974714 0 0.54463902268945019 forward_v I I I I #
coedge $-1 $446 $447 $448 $449 reversed $187 $-1 #
coedge $-1 $301 $189 $450 $451 reversed $119 $-1 #
coedge $-1 $189 $300 $446 $452 reversed $119 $-1 #
coedge $-1 $448 $453 $189 $303 forward $454 $-1 #
edge $-1 $455 -11.504614092253604 $456 -8.403020181360219 $302 $457 forward 7 unknown #
loop $-1 $-1 $309 $190 #
plane-surface $-1 -4.9867320711166201 13.699367883568755 100.50104904182415 0.83867057594974714 0 0.54463902268945019 0.54463902268945019 0 -0.83867057594974714 forward_v I I I I #
loop $-1 $-1 $458 $121 #
coedge $-1 $307 $307 $308 $459 reversed $191 $-1 #
coedge $-1 $308 $308 $307 $459 forward $193 $-1 #
coedge $-1 $309 $309 $194 $310 forward $304 $-1 #
edge $-1 $460 0 $460 6.2831853071796004 $309 $461 forward 7 unknown #
loop $-1 $-1 $316 $195 #
plane-surface $-1 -4.9867320711166201 13.699367883568755 100.50104904182415 0.83867057594974714 0 0.54463902268945019 0.54463902268945019 0 -0.83867057594974714 forward_v I I I I #
loop $-1 $-1 $462 $124 #
coedge $-1 $314 $314 $315 $463 reversed $196 $-1 #
coedge $-1 $315 $315 $314 $463 forward $198 $-1 #
coedge $-1 $316 $316 $199 $317 forward $311 $-1 #
edge $-1 $464 0 $464 6.2831853071796004 $316 $465 forward 7 unknown #
loop $-1 $-1 $323 $200 #
plane-surface $-1 -4.9867320711166201 13.699367883568755 100.50104904182415 0.83867057594974714 0 0.54463902268945019 0.54463902268945019 0 -0.83867057594974714 forward_v I I I I #
loop $-1 $-1 $466 $127 #
coedge $-1 $321 $321 $322 $467 reversed $201 $-1 #
coedge $-1 $322 $322 $321 $467 forward $203 $-1 #
coedge $-1 $323 $323 $204 $324 forward $318 $-1 #
edge $-1 $468 0 $468 6.2831853071796004 $323 $469 forward 7 unknown #
face $-1 $470 $471 $66 $-1 $472 reversed single #
loop $-1 $-1 $473 $205 #
plane-surface $-1 -118.32497530746465 10.31718365501445 94.457158506466598 0 -1 0 0.55919291073839883 0 -0.82903756765294845 forward_v I I I I #
coedge $-1 $474 $475 $476 $477 reversed $206 $-1 #
coedge $-1 $330 $208 $478 $479 reversed $131 $-1 #
coedge $-1 $208 $329 $474 $480 reversed $131 $-1 #
coedge $-1 $476 $481 $208 $332 forward $482 $-1 #
edge $-1 $483 3.3062908703832221 $484 17.752068266448063 $331 $485 forward 7 unknown #
loop $-1 $-1 $338 $209 #
plane-surface $-1 -55.856196783349105 5.1160092064415466 1.8433874672422235 -0.55919291073839883 0 0.82903756765294845 0.82903756765294845 0 0.55919291073839883 forward_v I I I I #
loop $-1 $-1 $486 $133 #
coedge $-1 $336 $336 $337 $487 reversed $210 $-1 #
coedge $-1 $337 $337 $336 $487 forward $212 $-1 #
coedge $-1 $338 $338 $213 $339 forward $333 $-1 #
edge $-1 $488 0 $488 6.2831853071796004 $338 $489 forward 7 unknown #
face $-1 $490 $491 $51 $-1 $492 reversed single #
loop $-1 $-1 $493 $214 #
plane-surface $-1 -55.856196783349105 0 0 1 0 0 0 0 -1 forward_v I I I I #
coedge $-1 $494 $351 $495 $496 forward $215 $-1 #
coedge $-1 $497 $217 $494 $498 forward $137 $-1 #
coedge $-1 $217 $497 $499 $500 forward $137 $-1 #
coedge $-1 $354 $353 $217 $347 reversed $355 $-1 #
edge $-1 $501 -32.863394907289418 $502 32.863394907289418 $346 $503 forward 7 unknown #
coedge $-1 $219 $218 $504 $505 forward $86 $-1 #
coedge $-1 $506 $507 $218 $350 reversed $491 $-1 #
edge $-1 $357 -55.856196783349105 $508 55.856196783349105 $349 $509 forward 7 unknown #
coedge $-1 $343 $510 $219 $352 reversed $215 $-1 #
edge $-1 $511 -55.856196783349105 $356 55.856196783349105 $351 $512 forward 7 unknown #
coedge $-1 $346 $220 $510 $513 forward $355 $-1 #
coedge $-1 $220 $346 $506 $514 reversed $355 $-1 #
loop $-1 $-1 $353 $490 #
vertex $-1 $221 $515 #
vertex $-1 $221 $516 #
straight-curve $-1 55.856196783349105 0 11.587187537549855 0 1 0 I I #
face $-1 $517 $518 $52 $-1 $519 reversed single #
loop $-1 $-1 $520 $222 #
plane-surface $-1 0 -39.838420679599196 -7.972324902245381 0 0 1 1 0 0 forward_v I I I I #
coedge $-1 $228 $521 $522 $523 forward $223 $-1 #
coedge $-1 $524 $225 $525 $526 reversed $141 $-1 #
coedge $-1 $225 $524 $369 $527 reversed $141 $-1 #
edge $-1 $370 1.9073249493501638 $528 7.972324902245381 $225 $529 forward 7 unknown #
coedge $-1 $227 $226 $530 $531 forward $89 $-1 #
coedge $-1 $522 $532 $226 $368 forward $533 $-1 #
edge $-1 $534 -7.972324902245381 $371 -1.9073249493501638 $367 $535 forward 7 unknown #
coedge $-1 $521 $228 $364 $527 forward $223 $-1 #
vertex $-1 $365 $536 #
vertex $-1 $523 $537 #
straight-curve $-1 0 -32.863394907289418 -1.9073249493501638 1 0 0 I I #
face $-1 $538 $539 $53 $-1 $540 reversed single #
loop $-1 $-1 $541 $230 #
plane-surface $-1 0 39.838420679599196 -7.972324902245381 0 0 1 1 0 0 forward_v I I I I #
coedge $-1 $542 $236 $378 $543 forward $231 $-1 #
coedge $-1 $544 $233 $541 $545 reversed $145 $-1 #
coedge $-1 $233 $544 $376 $543 reversed $145 $-1 #
edge $-1 $384 1.9073249493501638 $546 7.972324902245381 $233 $547 forward 7 unknown #
coedge $-1 $235 $234 $548 $549 forward $92 $-1 #
coedge $-1 $550 $551 $234 $382 forward $552 $-1 #
edge $-1 $553 -7.972324902245381 $385 -1.9073249493501638 $381 $554 forward 7 unknown #
coedge $-1 $236 $542 $550 $555 forward $231 $-1 #
vertex $-1 $379 $556 #
vertex $-1 $555 $557 #
straight-curve $-1 0 32.863394907289418 -1.9073249493501638 -1 0 0 I I #
face $-1 $-1 $558 $54 $-1 $559 reversed single #
loop $-1 $-1 $244 $238 #
plane-surface $-1 0 0 11.587187537549855 0 0 1 1 0 0 forward_v I I I I #
coedge $-1 $560 $561 $562 $563 reversed $239 $-1 #
coedge $-1 $564 $241 $243 $397 forward $149 $-1 #
coedge $-1 $241 $564 $560 $565 forward $149 $-1 #
coedge $-1 $562 $244 $241 $394 forward $388 $-1 #
edge $-1 $400 3.7615450397899739 $566 9.9378228437787683 $393 $567 forward 7 unknown #
coedge $-1 $568 $569 $242 $396 forward $558 $-1 #
edge $-1 $570 -73.860837359628405 $399 -69.084801410595091 $395 $571 forward 7 unknown #
edge $-1 $400 106.01762367015721 $570 111.71239356669821 $243 $572 forward 7 unknown #
coedge $-1 $244 $562 $568 $573 forward $388 $-1 #
vertex $-1 $396 $574 #
vertex $-1 $245 $575 #
straight-curve $-1 44.351582691095501 -10.611228981574344 11.587187537549852 -1 0 0 I I #
coedge $-1 $402 $402 $-1 $576 reversed $248 $-1 #
edge $-1 $577 0 $577 6.2831853071796004 $249 $578 forward 7 unknown #
vertex $-1 $252 $579 #
ellipse-curve $-1 54.30539982790242 -15.552251224765381 9.1991695630331893 0.83867057594974714 0 0.54463902268945019 0.2723195113447251 0 -0.41933528797487357 1 I I #
coedge $-1 $406 $406 $-1 $580 reversed $255 $-1 #
edge $-1 $581 0 $581 6.2831853071796004 $256 $582 forward 7 unknown #
vertex $-1 $259 $583 #
ellipse-curve $-1 54.30539982790242 -13.699367883568744 9.1991695630331893 0.83867057594974714 0 0.54463902268945019 0.2723195113447251 0 -0.41933528797487357 1 I I #
coedge $-1 $410 $410 $-1 $584 reversed $262 $-1 #
edge $-1 $585 0 $585 6.2831853071796004 $263 $586 forward 7 unknown #
vertex $-1 $266 $587 #
ellipse-curve $-1 54.30539982790242 -11.846484542372107 9.1991695630331893 0.83867057594974714 0 0.54463902268945019 0.2723195113447251 0 -0.41933528797487357 1 I I #
face $-1 $-1 $426 $58 $-1 $588 forward single #
loop $-1 $-1 $589 $267 #
plane-surface $-1 55.856196783349105 0 0 -1 0 0 0 0 1 forward_v I I I I #
coedge $-1 $590 $591 $592 $593 reversed $268 $-1 #
coedge $-1 $594 $270 $272 $424 forward $168 $-1 #
coedge $-1 $270 $594 $590 $595 forward $168 $-1 #
coedge $-1 $592 $273 $270 $421 forward $426 $-1 #
edge $-1 $428 -3.0881389019943999 $596 3.0881389019943928 $420 $597 forward 7 unknown #
coedge $-1 $598 $599 $271 $423 forward $415 $-1 #
edge $-1 $600 -73.860837359628405 $427 -69.084801410595091 $422 $601 forward 7 unknown #
edge $-1 $428 106.01762367015721 $600 111.71239356669821 $272 $602 forward 7 unknown #
coedge $-1 $273 $592 $598 $603 forward $426 $-1 #
loop $-1 $-1 $592 $414 #
vertex $-1 $423 $604 #
vertex $-1 $274 $605 #
straight-curve $-1 44.351582691095501 3.0881389019944034 11.587187537549852 -1 0 0 I I #
coedge $-1 $430 $430 $-1 $606 reversed $277 $-1 #
edge $-1 $607 0 $607 6.2831853071796004 $278 $608 forward 7 unknown #
vertex $-1 $281 $609 #
ellipse-curve $-1 54.30539982790242 -1.8528833411966374 9.1991695630331893 0.83867057594974714 0 0.54463902268945019 0.2723195113447251 0 -0.41933528797487357 1 I I #
coedge $-1 $434 $434 $-1 $610 reversed $284 $-1 #
edge $-1 $611 0 $611 6.2831853071796004 $285 $612 forward 7 unknown #
vertex $-1 $288 $613 #
ellipse-curve $-1 54.30539982790242 0 9.1991695630331893 0.83867057594974714 0 0.54463902268945019 0.2723195113447251 0 -0.41933528797487357 1 I I #
coedge $-1 $438 $438 $-1 $614 reversed $291 $-1 #
edge $-1 $615 0 $615 6.2831853071796004 $292 $616 forward 7 unknown #
vertex $-1 $295 $617 #
ellipse-curve $-1 54.30539982790242 1.8528833411966374 9.1991695630331893 0.83867057594974714 0 0.54463902268945019 0.2723195113447251 0 -0.41933528797487357 1 I I #
face $-1 $-1 $454 $62 $-1 $618 forward single #
loop $-1 $-1 $619 $296 #
plane-surface $-1 55.856196783349105 0 0 -1 0 0 0 0 1 forward_v I I I I #
coedge $-1 $620 $621 $622 $623 reversed $297 $-1 #
coedge $-1 $624 $299 $301 $452 forward $187 $-1 #
coedge $-1 $299 $624 $620 $625 forward $187 $-1 #
coedge $-1 $622 $302 $299 $449 forward $454 $-1 #
edge $-1 $456 -9.9378228437787755 $626 -3.761545039789981 $448 $627 forward 7 unknown #
coedge $-1 $628 $629 $300 $451 forward $443 $-1 #
edge $-1 $630 -73.860837359628405 $455 -69.084801410595091 $450 $631 forward 7 unknown #
edge $-1 $456 106.01762367015721 $630 111.71239356669821 $301 $632 forward 7 unknown #
coedge $-1 $302 $622 $628 $633 forward $454 $-1 #
loop $-1 $-1 $622 $442 #
vertex $-1 $451 $634 #
vertex $-1 $303 $635 #
straight-curve $-1 44.351582691095501 16.787506785563153 11.587187537549852 -1 0 0 I I #
coedge $-1 $458 $458 $-1 $636 reversed $306 $-1 #
edge $-1 $637 0 $637 6.2831853071796004 $307 $638 forward 7 unknown #
vertex $-1 $310 $639 #
ellipse-curve $-1 54.30539982790242 11.84648454237211 9.1991695630331893 0.83867057594974714 0 0.54463902268945019 0.2723195113447251 0 -0.41933528797487357 1 I I #
coedge $-1 $462 $462 $-1 $640 reversed $313 $-1 #
edge $-1 $641 0 $641 6.2831853071796004 $314 $642 forward 7 unknown #
vertex $-1 $317 $643 #
ellipse-curve $-1 54.30539982790242 13.699367883568748 9.1991695630331893 0.83867057594974714 0 0.54463902268945019 0.2723195113447251 0 -0.41933528797487357 1 I I #
coedge $-1 $466 $466 $-1 $644 reversed $320 $-1 #
edge $-1 $645 0 $645 6.2831853071796004 $321 $646 forward 7 unknown #
vertex $-1 $324 $647 #
ellipse-curve $-1 54.30539982790242 15.552251224765385 9.1991695630331893 0.83867057594974714 0 0.54463902268945019 0.2723195113447251 0 -0.41933528797487357 1 I I #
face $-1 $-1 $482 $66 $-1 $648 forward single #
loop $-1 $-1 $649 $325 #
plane-surface $-1 -55.856196783349105 0 0 1 0 0 0 0 -1 forward_v I I I I #
coedge $-1 $650 $651 $652 $653 reversed $326 $-1 #
coedge $-1 $654 $328 $330 $480 forward $206 $-1 #
coedge $-1 $328 $654 $650 $655 forward $206 $-1 #
coedge $-1 $652 $331 $328 $477 forward $482 $-1 #
edge $-1 $484 -2.64316984535213 $656 7.7591790517936765 $476 $657 forward 7 unknown #
coedge $-1 $658 $659 $329 $479 forward $471 $-1 #
edge $-1 $660 -45.385191785991076 $483 -35.64139171568344 $478 $661 forward 7 unknown #
edge $-1 $484 -17.424756078257879 $660 0 $330 $662 forward 7 unknown #
coedge $-1 $331 $652 $658 $663 forward $482 $-1 #
loop $-1 $-1 $652 $470 #
vertex $-1 $479 $664 #
vertex $-1 $332 $665 #
straight-curve $-1 -59.162487653732327 -0.085165242131356678 11.587187537549859 1 0 0 I I #
coedge $-1 $486 $486 $-1 $666 reversed $335 $-1 #
edge $-1 $667 0 $667 6.2831853071796004 $336 $668 forward 7 unknown #
vertex $-1 $339 $669 #
ellipse-curve $-1 -48.633308085316685 5.1160092064415394 6.7152875023960386 -0.55919291073839883 0 0.82903756765294845 2.072593919132371 0 1.3979822768459971 1 I I #
face $-1 $-1 $355 $51 $-1 $670 reversed single #
loop $-1 $-1 $507 $340 #
plane-surface $-1 0 32.863394907289418 0 0 -1 0 0 0 -1 forward_v I I I I #
coedge $-1 $671 $504 $507 $672 forward $341 $-1 #
coedge $-1 $510 $343 $344 $498 reversed $215 $-1 #
coedge $-1 $504 $671 $343 $496 reversed $341 $-1 #
edge $-1 $511 -11.587187537549855 $673 11.587187537549855 $495 $674 forward 7 unknown #
coedge $-1 $345 $344 $671 $675 forward $137 $-1 #
edge $-1 $502 -55.856196783349105 $673 55.856196783349105 $494 $676 forward 7 unknown #
coedge $-1 $507 $506 $345 $500 reversed $491 $-1 #
edge $-1 $677 -55.856196783349105 $501 55.856196783349105 $499 $678 forward 7 unknown #
vertex $-1 $347 $679 #
vertex $-1 $513 $680 #
straight-curve $-1 55.856196783349105 0 -11.587187537549855 0 -1 0 I I #
coedge $-1 $493 $495 $348 $505 reversed $341 $-1 #
edge $-1 $508 -32.863394907289418 $511 32.863394907289418 $504 $681 forward 7 unknown #
coedge $-1 $499 $349 $354 $514 forward $491 $-1 #
coedge $-1 $349 $499 $493 $672 reversed $491 $-1 #
vertex $-1 $350 $682 #
straight-curve $-1 0 32.863394907289418 11.587187537549855 -1 0 0 I I #
coedge $-1 $351 $494 $353 $513 reversed $215 $-1 #
vertex $-1 $505 $683 #
straight-curve $-1 0 -32.863394907289418 11.587187537549855 1 0 0 I I #
edge $-1 $356 -11.587187537549855 $502 11.587187537549855 $353 $684 forward 7 unknown #
edge $-1 $357 -11.587187537549855 $501 11.587187537549855 $354 $685 forward 7 unknown #
point $-1 55.856196783349105 -32.863394907289418 11.587187537549855 #
point $-1 55.856196783349105 32.863394907289418 11.587187537549855 #
face $-1 $-1 $533 $52 $-1 $686 reversed single #
loop $-1 $-1 $687 $359 #
plane-surface $-1 0 -46.813446451908973 -4.9398249257977724 0 1 0 0 0 1 forward_v I I I I #
coedge $-1 $688 $530 $532 $689 forward $360 $-1 #
coedge $-1 $362 $369 $690 $691 forward $223 $-1 #
coedge $-1 $692 $367 $362 $523 reversed $533 $-1 #
edge $-1 $693 -6.9750257723097775 $371 6.9750257723097775 $522 $694 forward 7 unknown #
coedge $-1 $364 $363 $687 $695 reversed $141 $-1 #
coedge $-1 $530 $688 $363 $526 forward $360 $-1 #
edge $-1 $696 -6.9750257723097775 $528 6.9750257723097775 $363 $697 forward 7 unknown #
edge $-1 $370 -6.9750257723097775 $698 6.9750257723097775 $364 $699 forward 7 unknown #
vertex $-1 $365 $700 #
straight-curve $-1 -55.856196783349105 -32.863394907289418 0 0 0 -1 I I #
coedge $-1 $520 $525 $366 $531 reversed $360 $-1 #
edge $-1 $534 -55.856196783349105 $528 55.856196783349105 $530 $701 forward 7 unknown #
coedge $-1 $367 $692 $520 $689 reversed $533 $-1 #
loop $-1 $-1 $367 $517 #
vertex $-1 $368 $702 #
straight-curve $-1 55.856196783349105 -32.863394907289418 0 0 0 1 I I #
point $-1 -55.856196783349105 -32.863394907289418 -1.9073249493501638 #
point $-1 55.856196783349105 -32.863394907289418 -1.9073249493501638 #
face $-1 $-1 $552 $53 $-1 $703 reversed single #
loop $-1 $-1 $704 $373 #
plane-surface $-1 0 46.813446451908973 -4.9398249257977724 0 -1 0 0 0 -1 forward_v I I I I #
coedge $-1 $548 $705 $377 $545 forward $374 $-1 #
coedge $-1 $383 $376 $706 $707 forward $231 $-1 #
edge $-1 $384 -6.9750257723097775 $708 6.9750257723097775 $378 $709 forward 7 unknown #
coedge $-1 $378 $377 $704 $710 reversed $145 $-1 #
edge $-1 $711 -6.9750257723097775 $546 6.9750257723097775 $377 $712 forward 7 unknown #
vertex $-1 $379 $713 #
straight-curve $-1 55.856196783349105 32.863394907289418 0 0 0 -1 I I #
coedge $-1 $714 $541 $380 $549 reversed $374 $-1 #
edge $-1 $553 -55.856196783349105 $546 55.856196783349105 $548 $715 forward 7 unknown #
coedge $-1 $716 $381 $383 $555 reversed $552 $-1 #
coedge $-1 $381 $716 $714 $717 reversed $552 $-1 #
loop $-1 $-1 $381 $538 #
vertex $-1 $382 $718 #
straight-curve $-1 -55.856196783349105 32.863394907289418 0 0 0 1 I I #
edge $-1 $719 -6.9750257723097775 $385 6.9750257723097775 $550 $720 forward 7 unknown #
point $-1 55.856196783349105 32.863394907289418 -1.9073249493501638 #
point $-1 -55.856196783349105 32.863394907289418 -1.9073249493501638 #
loop $-1 $-1 $395 $387 #
plane-surface $-1 55.856196783349105 0 0 -1 0 0 0 0 1 forward_v I I I I #
coedge $-1 $561 $390 $392 $565 reversed $239 $-1 #
coedge $-1 $390 $560 $721 $722 reversed $239 $-1 #
coedge $-1 $398 $393 $390 $563 forward $388 $-1 #
edge $-1 $566 8.403020181360219 $723 11.504614092253604 $562 $724 forward 7 unknown #
coedge $-1 $392 $391 $569 $725 reversed $149 $-1 #
edge $-1 $726 -111.71239356669821 $566 -106.01762367015721 $560 $727 forward 7 unknown #
vertex $-1 $394 $728 #
straight-curve $-1 52.75460287245572 -6.8496839417843702 11.587187537549852 0 -1 0 I I #
coedge $-1 $721 $395 $398 $573 reversed $558 $-1 #
coedge $-1 $395 $721 $564 $725 forward $558 $-1 #
vertex $-1 $396 $729 #
straight-curve $-1 55.856196783349105 -10.611228981574344 80.671988948144943 0 0 1 I I #
straight-curve $-1 -4.9867320711166201 -10.611228981574344 100.50104904182415 0.54463902268945019 0 -0.83867057594974714 I I #
edge $-1 $723 -16.787506785563139 $399 -10.611228981574344 $568 $730 forward 7 unknown #
point $-1 55.856196783349105 -10.611228981574344 11.587187537549855 #
point $-1 52.75460287245572 -10.611228981574344 11.587187537549852 #
edge $-1 $731 1 $731 0 $402 $-1 forward 7 unknown #
vertex $-1 $403 $732 #
ellipse-curve $-1 53.466729251952664 -15.552251224765381 8.6545305403437354 0.83867057594974714 0 0.54463902268945019 0.2723195113447251 0 -0.41933528797487357 1 I I #
point $-1 54.577719339247139 -15.552251224765381 8.7798342750583114 #
edge $-1 $733 1 $733 0 $406 $-1 forward 7 unknown #
vertex $-1 $407 $734 #
ellipse-curve $-1 53.466729251952664 -13.699367883568744 8.6545305403437354 0.83867057594974714 0 0.54463902268945019 0.2723195113447251 0 -0.41933528797487357 1 I I #
point $-1 54.577719339247139 -13.699367883568744 8.7798342750583114 #
edge $-1 $735 1 $735 0 $410 $-1 forward 7 unknown #
vertex $-1 $411 $736 #
ellipse-curve $-1 53.466729251952664 -11.846484542372107 8.6545305403437354 0.83867057594974714 0 0.54463902268945019 0.2723195113447251 0 -0.41933528797487357 1 I I #
point $-1 54.577719339247139 -11.846484542372107 8.7798342750583114 #
plane-surface $-1 0 0 11.587187537549855 0 0 1 1 0 0 forward_v I I I I #
coedge $-1 $599 $598 $591 $737 forward $415 $-1 #
coedge $-1 $591 $417 $419 $595 reversed $268 $-1 #
coedge $-1 $417 $590 $589 $737 reversed $268 $-1 #
coedge $-1 $425 $420 $417 $593 forward $426 $-1 #
edge $-1 $596 8.403020181360219 $738 11.504614092253604 $592 $739 forward 7 unknown #
coedge $-1 $419 $418 $599 $740 reversed $168 $-1 #
edge $-1 $741 -111.71239356669821 $596 -106.01762367015721 $590 $742 forward 7 unknown #
vertex $-1 $421 $743 #
straight-curve $-1 52.75460287245572 3.5527136788005009e-015 11.587187537549852 0 -1 0 I I #
coedge $-1 $589 $422 $425 $603 reversed $415 $-1 #
coedge $-1 $422 $589 $594 $740 forward $415 $-1 #
vertex $-1 $423 $744 #
straight-curve $-1 55.856196783349105 3.0881389019944034 80.671988948144943 0 0 1 I I #
straight-curve $-1 -4.9867320711166201 3.0881389019944034 100.50104904182415 0.54463902268945019 0 -0.83867057594974714 I I #
edge $-1 $738 -3.0881389019943892 $427 3.0881389019944034 $598 $745 forward 7 unknown #
point $-1 55.856196783349105 3.0881389019944034 11.587187537549855 #
point $-1 52.75460287245572 3.0881389019944034 11.587187537549852 #
edge $-1 $746 1 $746 0 $430 $-1 forward 7 unknown #
vertex $-1 $431 $747 #
ellipse-curve $-1 53.466729251952664 -1.8528833411966374 8.6545305403437354 0.83867057594974714 0 0.54463902268945019 0.2723195113447251 0 -0.41933528797487357 1 I I #
point $-1 54.577719339247139 -1.8528833411966374 8.7798342750583114 #
edge $-1 $748 1 $748 0 $434 $-1 forward 7 unknown #
vertex $-1 $435 $749 #
ellipse-curve $-1 53.466729251952664 0 8.6545305403437354 0.83867057594974714 0 0.54463902268945019 0.2723195113447251 0 -0.41933528797487357 1 I I #
point $-1 54.577719339247139 0 8.7798342750583114 #
edge $-1 $750 1 $750 0 $438 $-1 forward 7 unknown #
vertex $-1 $439 $751 #
ellipse-curve $-1 53.466729251952664 1.8528833411966374 8.6545305403437354 0.83867057594974714 0 0.54463902268945019 0.2723195113447251 0 -0.41933528797487357 1 I I #
point $-1 54.577719339247139 1.8528833411966374 8.7798342750583114 #
plane-surface $-1 0 0 11.587187537549855 0 0 1 1 0 0 forward_v I I I I #
coedge $-1 $629 $628 $621 $752 forward $443 $-1 #
coedge $-1 $621 $445 $447 $625 reversed $297 $-1 #
coedge $-1 $445 $620 $619 $752 reversed $297 $-1 #
coedge $-1 $453 $448 $445 $623 forward $454 $-1 #
edge $-1 $626 8.403020181360219 $753 11.504614092253604 $622 $754 forward 7 unknown #
coedge $-1 $447 $446 $629 $755 reversed $187 $-1 #
edge $-1 $756 -111.71239356669821 $626 -106.01762367015721 $620 $757 forward 7 unknown #
vertex $-1 $449 $758 #
straight-curve $-1 52.75460287245572 6.8496839417843773 11.587187537549852 0 -1 0 I I #
coedge $-1 $619 $450 $453 $633 reversed $443 $-1 #
coedge $-1 $450 $619 $624 $755 forward $443 $-1 #
vertex $-1 $451 $759 #
straight-curve $-1 55.856196783349105 16.787506785563153 80.671988948144943 0 0 1 I I #
straight-curve $-1 -4.9867320711166201 16.787506785563153 100.50104904182415 0.54463902268945019 0 -0.83867057594974714 I I #
edge $-1 $753 10.611228981574358 $455 16.787506785563153 $628 $760 forward 7 unknown #
point $-1 55.856196783349105 16.787506785563153 11.587187537549855 #
point $-1 52.75460287245572 16.787506785563153 11.587187537549852 #
edge $-1 $761 1 $761 0 $458 $-1 forward 7 unknown #
vertex $-1 $459 $762 #
ellipse-curve $-1 53.466729251952664 11.84648454237211 8.6545305403437354 0.83867057594974714 0 0.54463902268945019 0.2723195113447251 0 -0.41933528797487357 1 I I #
point $-1 54.577719339247139 11.84648454237211 8.7798342750583114 #
edge $-1 $763 1 $763 0 $462 $-1 forward 7 unknown #
vertex $-1 $463 $764 #
ellipse-curve $-1 53.466729251952664 13.699367883568748 8.6545305403437354 0.83867057594974714 0 0.54463902268945019 0.2723195113447251 0 -0.41933528797487357 1 I I #
point $-1 54.577719339247139 13.699367883568748 8.7798342750583114 #
edge $-1 $765 1 $765 0 $466 $-1 forward 7 unknown #
vertex $-1 $467 $766 #
ellipse-curve $-1 53.466729251952664 15.552251224765385 8.6545305403437354 0.83867057594974714 0 0.54463902268945019 0.2723195113447251 0 -0.41933528797487357 1 I I #
point $-1 54.577719339247139 15.552251224765385 8.7798342750583114 #
plane-surface $-1 0 0 11.587187537549855 0 0 1 1 0 0 forward_v I I I I #
coedge $-1 $659 $658 $651 $767 forward $471 $-1 #
coedge $-1 $651 $473 $475 $655 reversed $326 $-1 #
coedge $-1 $473 $650 $649 $767 reversed $326 $-1 #
coedge $-1 $481 $476 $473 $653 forward $482 $-1 #
edge $-1 $656 -17.752068266448063 $768 -3.3062908703832221 $652 $769 forward 7 unknown #
coedge $-1 $475 $474 $659 $770 reversed $206 $-1 #
edge $-1 $771 0 $656 17.424756078257879 $650 $772 forward 7 unknown #
vertex $-1 $477 $773 #
straight-curve $-1 -41.410419387284257 2.5580046032207733 11.587187537549855 0 1 0 I I #
coedge $-1 $649 $478 $481 $663 reversed $471 $-1 #
coedge $-1 $478 $649 $654 $770 forward $471 $-1 #
vertex $-1 $479 $774 #
straight-curve $-1 -55.856196783349105 -0.085165242131356678 47.228579253233299 0 0 1 I I #
straight-curve $-1 -55.856196783349105 -0.085165242131356678 1.8433874672422235 -0.82903756765294845 0 -0.55919291073839883 I I #
edge $-1 $768 -10.31718365501445 $483 0.085165242131356678 $658 $775 forward 7 unknown #
point $-1 -55.856196783349105 -0.085165242131356678 11.587187537549855 #
point $-1 -41.410419387284264 -0.085165242131356678 11.587187537549855 #
edge $-1 $776 1 $776 0 $486 $-1 forward 7 unknown #
vertex $-1 $487 $777 #
ellipse-curve $-1 -43.622723211591662 5.1160092064415394 -0.71320992033854336 -0.55919291073839883 0 0.82903756765294845 2.072593919132371 0 1.3979822768459971 1 I I #
point $-1 -46.560714166184312 5.1160092064415394 8.1132697792420334 #
plane-surface $-1 55.856196783349105 0 0 -1 0 0 0 0 1 forward_v I I I I #
coedge $-1 $495 $493 $497 $675 reversed $341 $-1 #
edge $-1 $508 -11.587187537549855 $677 11.587187537549855 $507 $778 forward 7 unknown #
vertex $-1 $675 $779 #
straight-curve $-1 -55.856196783349105 -32.863394907289418 0 0 0 -1 I I #
edge $-1 $673 -32.863394907289418 $677 32.863394907289418 $671 $780 forward 7 unknown #
straight-curve $-1 0 -32.863394907289418 -11.587187537549855 -1 0 0 I I #
vertex $-1 $500 $781 #
straight-curve $-1 0 32.863394907289418 -11.587187537549855 1 0 0 I I #
point $-1 55.856196783349105 32.863394907289418 -11.587187537549855 #
point $-1 55.856196783349105 -32.863394907289418 -11.587187537549855 #
straight-curve $-1 -55.856196783349105 0 11.587187537549855 0 -1 0 I I #
point $-1 -55.856196783349105 32.863394907289418 11.587187537549855 #
point $-1 -55.856196783349105 -32.863394907289418 11.587187537549855 #
straight-curve $-1 55.856196783349105 -32.863394907289418 0 0 0 -1 I I #
straight-curve $-1 55.856196783349105 32.863394907289418 0 0 0 -1 I I #
plane-surface $-1 55.856196783349105 0 0 -1 0 0 0 0 1 forward_v I I I I #
coedge $-1 $782 $690 $524 $695 forward $518 $-1 #
coedge $-1 $525 $520 $782 $783 forward $360 $-1 #
edge $-1 $534 -6.9750257723097775 $784 6.9750257723097775 $532 $785 forward 7 unknown #
coedge $-1 $687 $786 $521 $691 reversed $518 $-1 #
edge $-1 $698 -55.856196783349105 $693 55.856196783349105 $690 $787 forward 7 unknown #
coedge $-1 $532 $522 $786 $788 forward $533 $-1 #
vertex $-1 $523 $789 #
straight-curve $-1 55.856196783349105 -39.838420679599196 -1.9073249493501638 0 1 0 I I #
edge $-1 $698 -3.0324999764476086 $696 3.0324999764476086 $524 $790 forward 7 unknown #
vertex $-1 $526 $791 #
straight-curve $-1 -55.856196783349105 -39.838420679599196 -7.972324902245381 0 1 0 I I #
vertex $-1 $527 $792 #
straight-curve $-1 -55.856196783349105 -39.838420679599196 -1.9073249493501638 0 -1 0 I I #
point $-1 -55.856196783349105 -32.863394907289418 -7.972324902245381 #
straight-curve $-1 0 -32.863394907289418 -7.972324902245381 -1 0 0 I I #
point $-1 55.856196783349105 -32.863394907289418 -7.972324902245381 #
plane-surface $-1 -55.856196783349105 0 0 1 0 0 0 0 -1 forward_v I I I I #
coedge $-1 $793 $706 $544 $710 forward $539 $-1 #
coedge $-1 $541 $714 $793 $794 forward $374 $-1 #
coedge $-1 $704 $795 $542 $707 reversed $539 $-1 #
edge $-1 $708 -55.856196783349105 $719 55.856196783349105 $706 $796 forward 7 unknown #
vertex $-1 $543 $797 #
straight-curve $-1 55.856196783349105 39.838420679599196 -1.9073249493501638 0 1 0 I I #
edge $-1 $708 -3.0324999764476086 $711 3.0324999764476086 $544 $798 forward 7 unknown #
vertex $-1 $545 $799 #
straight-curve $-1 55.856196783349105 39.838420679599196 -7.972324902245381 0 -1 0 I I #
point $-1 55.856196783349105 32.863394907289418 -7.972324902245381 #
coedge $-1 $705 $548 $551 $717 forward $374 $-1 #
straight-curve $-1 0 32.863394907289418 -7.972324902245381 1 0 0 I I #
coedge $-1 $551 $550 $795 $800 forward $552 $-1 #
edge $-1 $553 -6.9750257723097775 $801 6.9750257723097775 $551 $802 forward 7 unknown #
point $-1 -55.856196783349105 32.863394907289418 -7.972324902245381 #
vertex $-1 $707 $803 #
straight-curve $-1 -55.856196783349105 39.838420679599196 -1.9073249493501638 0 -1 0 I I #
coedge $-1 $569 $568 $561 $722 forward $558 $-1 #
edge $-1 $723 69.084801410595091 $726 73.860837359628405 $721 $804 forward 7 unknown #
vertex $-1 $573 $805 #
straight-curve $-1 44.351582691095501 -16.787506785563139 11.587187537549852 1 0 0 I I #
edge $-1 $726 -9.9378228437787683 $570 -3.7615450397899739 $569 $806 forward 7 unknown #
vertex $-1 $725 $807 #
straight-curve $-1 -4.9867320711166201 -16.787506785563139 100.50104904182415 -0.54463902268945019 0 0.83867057594974714 I I #
point $-1 52.75460287245572 -16.787506785563139 11.587187537549852 #
point $-1 55.856196783349105 -10.611228981574344 6.8111515885165375 #
straight-curve $-1 55.856196783349105 0 11.587187537549855 0 1 0 I I #
vertex $-1 $576 $808 #
point $-1 53.73904876329739 -15.552251224765381 8.235195252368861 #
vertex $-1 $580 $809 #
point $-1 53.73904876329739 -13.699367883568744 8.235195252368861 #
vertex $-1 $584 $810 #
point $-1 53.73904876329739 -11.846484542372107 8.235195252368861 #
edge $-1 $738 69.084801410595091 $741 73.860837359628405 $589 $811 forward 7 unknown #
vertex $-1 $603 $812 #
straight-curve $-1 44.351582691095501 -3.0881389019943892 11.587187537549852 1 0 0 I I #
edge $-1 $741 -3.0881389019943928 $600 3.0881389019943999 $599 $813 forward 7 unknown #
vertex $-1 $740 $814 #
straight-curve $-1 -4.9867320711166201 -3.0881389019943892 100.50104904182415 -0.54463902268945019 0 0.83867057594974714 I I #
point $-1 52.75460287245572 -3.0881389019943892 11.587187537549852 #
point $-1 55.856196783349105 3.0881389019944034 6.8111515885165375 #
straight-curve $-1 55.856196783349105 0 11.587187537549855 0 1 0 I I #
vertex $-1 $606 $815 #
point $-1 53.73904876329739 -1.8528833411966374 8.235195252368861 #
vertex $-1 $610 $816 #
point $-1 53.73904876329739 0 8.235195252368861 #
vertex $-1 $614 $817 #
point $-1 53.73904876329739 1.8528833411966374 8.235195252368861 #
edge $-1 $753 69.084801410595091 $756 73.860837359628405 $619 $818 forward 7 unknown #
vertex $-1 $633 $819 #
straight-curve $-1 44.351582691095501 10.611228981574358 11.587187537549852 1 0 0 I I #
edge $-1 $756 3.761545039789981 $630 9.9378228437787755 $629 $820 forward 7 unknown #
vertex $-1 $755 $821 #
straight-curve $-1 -4.9867320711166201 10.611228981574358 100.50104904182415 -0.54463902268945019 0 0.83867057594974714 I I #
point $-1 52.75460287245572 10.611228981574358 11.587187537549852 #
point $-1 55.856196783349105 16.787506785563153 6.8111515885165375 #
straight-curve $-1 55.856196783349105 0 11.587187537549855 0 1 0 I I #
vertex $-1 $636 $822 #
point $-1 53.73904876329739 11.84648454237211 8.235195252368861 #
vertex $-1 $640 $823 #
point $-1 53.73904876329739 13.699367883568748 8.235195252368861 #
vertex $-1 $644 $824 #
point $-1 53.73904876329739 15.552251224765385 8.235195252368861 #
edge $-1 $768 35.64139171568344 $771 45.385191785991076 $649 $825 forward 7 unknown #
vertex $-1 $663 $826 #
straight-curve $-1 -59.162487653732327 10.31718365501445 11.587187537549859 -1 0 0 I I #
edge $-1 $771 -7.7591790517936765 $660 2.64316984535213 $659 $827 forward 7 unknown #
vertex $-1 $770 $828 #
straight-curve $-1 -55.856196783349105 10.31718365501445 1.8433874672422235 0.82903756765294845 0 0.55919291073839883 I I #
point $-1 -41.410419387284264 10.31718365501445 11.587187537549855 #
point $-1 -55.856196783349105 -0.085165242131356678 1.8433874672422235 #
straight-curve $-1 -55.856196783349105 0 11.587187537549855 0 -1 0 I I #
vertex $-1 $666 $829 #
point $-1 -41.550129292459296 5.1160092064415394 0.68477235650745349 #
straight-curve $-1 -55.856196783349105 32.863394907289418 0 0 0 -1 I I #
point $-1 -55.856196783349105 -32.863394907289418 -11.587187537549855 #
straight-curve $-1 -55.856196783349105 0 -11.587187537549855 0 1 0 I I #
point $-1 -55.856196783349105 32.863394907289418 -11.587187537549855 #
coedge $-1 $786 $687 $688 $783 reversed $518 $-1 #
edge $-1 $784 -55.856196783349105 $696 55.856196783349105 $782 $830 forward 7 unknown #
vertex $-1 $788 $831 #
straight-curve $-1 55.856196783349105 -39.838420679599196 -7.972324902245381 0 -1 0 I I #
coedge $-1 $690 $782 $692 $788 reversed $518 $-1 #
straight-curve $-1 0 -46.813446451908973 -1.9073249493501638 1 0 0 I I #
edge $-1 $693 -3.0324999764476086 $784 3.0324999764476086 $692 $832 forward 7 unknown #
point $-1 55.856196783349105 -46.813446451908973 -1.9073249493501638 #
straight-curve $-1 -55.856196783349105 -46.813446451908973 -4.9398249257977724 0 0 -1 I I #
point $-1 -55.856196783349105 -46.813446451908973 -7.972324902245381 #
point $-1 -55.856196783349105 -46.813446451908973 -1.9073249493501638 #
coedge $-1 $795 $704 $705 $794 reversed $539 $-1 #
edge $-1 $801 -55.856196783349105 $711 55.856196783349105 $793 $833 forward 7 unknown #
coedge $-1 $706 $793 $716 $800 reversed $539 $-1 #
straight-curve $-1 0 46.813446451908973 -1.9073249493501638 -1 0 0 I I #
point $-1 55.856196783349105 46.813446451908973 -1.9073249493501638 #
straight-curve $-1 55.856196783349105 46.813446451908973 -4.9398249257977724 0 0 -1 I I #
point $-1 55.856196783349105 46.813446451908973 -7.972324902245381 #
edge $-1 $719 -3.0324999764476086 $801 3.0324999764476086 $795 $834 forward 7 unknown #
vertex $-1 $794 $835 #
straight-curve $-1 -55.856196783349105 39.838420679599196 -7.972324902245381 0 1 0 I I #
point $-1 -55.856196783349105 46.813446451908973 -1.9073249493501638 #
straight-curve $-1 55.856196783349105 -16.787506785563139 80.671988948144943 0 0 -1 I I #
point $-1 55.856196783349105 -16.787506785563139 11.587187537549855 #
straight-curve $-1 55.856196783349105 -6.8496839417843702 6.8111515885165588 0 1 0 I I #
point $-1 55.856196783349105 -16.787506785563139 6.8111515885165375 #
point $-1 53.04739396397779 -15.552251224765381 8.3822110289990093 #
point $-1 53.04739396397779 -13.699367883568744 8.3822110289990093 #
point $-1 53.04739396397779 -11.846484542372107 8.3822110289990093 #
straight-curve $-1 55.856196783349105 -3.0881389019943892 80.671988948144943 0 0 -1 I I #
point $-1 55.856196783349105 -3.0881389019943892 11.587187537549855 #
straight-curve $-1 55.856196783349105 3.5527136788005009e-015 6.8111515885165588 0 1 0 I I #
point $-1 55.856196783349105 -3.0881389019943892 6.8111515885165375 #
point $-1 53.04739396397779 -1.8528833411966374 8.3822110289990093 #
point $-1 53.04739396397779 0 8.3822110289990093 #
point $-1 53.04739396397779 1.8528833411966374 8.3822110289990093 #
straight-curve $-1 55.856196783349105 10.611228981574358 80.671988948144943 0 0 -1 I I #
point $-1 55.856196783349105 10.611228981574358 11.587187537549855 #
straight-curve $-1 55.856196783349105 6.8496839417843773 6.8111515885165588 0 1 0 I I #
point $-1 55.856196783349105 10.611228981574358 6.8111515885165375 #
point $-1 53.04739396397779 11.84648454237211 8.3822110289990093 #
point $-1 53.04739396397779 13.699367883568748 8.3822110289990093 #
point $-1 53.04739396397779 15.552251224765385 8.3822110289990093 #
straight-curve $-1 -55.856196783349105 10.31718365501445 47.228579253233299 0 0 -1 I I #
point $-1 -55.856196783349105 10.31718365501445 11.587187537549855 #
straight-curve $-1 -55.856196783349105 2.5580046032207733 1.8433874672422226 0 -1 0 I I #
point $-1 -55.856196783349105 10.31718365501445 1.8433874672422235 #
point $-1 -42.224740934745668 5.1160092064415394 -2.7858038394709146 #
straight-curve $-1 0 -46.813446451908973 -7.972324902245381 -1 0 0 I I #
point $-1 55.856196783349105 -46.813446451908973 -7.972324902245381 #
straight-curve $-1 55.856196783349105 -46.813446451908973 -4.9398249257977724 0 0 -1 I I #
straight-curve $-1 0 46.813446451908973 -7.972324902245381 1 0 0 I I #
straight-curve $-1 -55.856196783349105 46.813446451908973 -4.9398249257977724 0 0 -1 I I #
point $-1 -55.856196783349105 46.813446451908973 -7.972324902245381 #
End-of-ACIS-data 