500 0 11 0           
7 Unknown 11 ACIS 5.0 NT 24 Thu Mar 25 20:21:29 1999 
-1 9.9999999999999995e-007 1e-010 
body $-1 $11 $-1 $12 #
body $-1 $13 $-1 $14 #
body $-1 $15 $-1 $16 #
body $-1 $17 $-1 $18 #
body $-1 $19 $-1 $20 #
body $-1 $21 $-1 $22 #
body $-1 $23 $-1 $24 #
body $-1 $25 $-1 $26 #
body $-1 $27 $-1 $28 #
body $-1 $29 $-1 $30 #
body $-1 $31 $-1 $32 #
lump $-1 $-1 $33 $0 #
transform $-1 1 0 0 0 1 0 0 0 1 70.278023621326327 40.915549211686084 12.070005853144933 1 rotate no_reflect no_shear #
lump $-1 $-1 $34 $1 #
transform $-1 1 0 0 0 1 0 0 0 1 70.278023621326327 40.915549211686084 12.070005853144933 1 rotate no_reflect no_shear #
lump $-1 $-1 $35 $2 #
transform $-1 1 0 0 0 1 0 0 0 1 70.278023621326327 40.915549211686084 12.070005853144933 1 rotate no_reflect no_shear #
lump $-1 $-1 $36 $3 #
transform $-1 1 0 0 0 1 0 0 0 1 70.278023621326327 40.915549211686084 12.070005853144933 1 rotate no_reflect no_shear #
lump $-1 $-1 $37 $4 #
transform $-1 1 0 0 0 1 0 0 0 1 70.278023621326327 40.915549211686084 12.070005853144933 1 rotate no_reflect no_shear #
lump $-1 $-1 $38 $5 #
transform $-1 1 0 0 0 1 0 0 0 1 70.278023621326327 40.915549211686084 12.070005853144933 1 rotate no_reflect no_shear #
lump $-1 $-1 $39 $6 #
transform $-1 1 0 0 0 1 0 0 0 1 70.278023621326327 40.915549211686084 12.070005853144933 1 rotate no_reflect no_shear #
lump $-1 $-1 $40 $7 #
transform $-1 1 0 0 0 1 0 0 0 1 70.278023621326327 40.915549211686084 12.070005853144933 1 rotate no_reflect no_shear #
lump $-1 $-1 $41 $8 #
transform $-1 1 0 0 0 1 0 0 0 1 70.278023621326327 40.915549211686084 12.070005853144933 1 rotate no_reflect no_shear #
lump $-1 $-1 $42 $9 #
transform $-1 1 0 0 0 1 0 0 0 1 70.278023621326327 40.915549211686084 12.070005853144933 1 rotate no_reflect no_shear #
lump $-1 $-1 $43 $10 #
transform $-1 1 0 0 0 1 0 0 0 1 70.278023621326327 40.915549211686084 12.070005853144933 1 rotate no_reflect no_shear #
shell $-1 $-1 $-1 $44 $-1 $11 #
shell $-1 $-1 $-1 $45 $-1 $13 #
shell $-1 $-1 $-1 $46 $-1 $15 #
shell $-1 $-1 $-1 $47 $-1 $17 #
shell $-1 $-1 $-1 $48 $-1 $19 #
shell $-1 $-1 $-1 $49 $-1 $21 #
shell $-1 $-1 $-1 $50 $-1 $23 #
shell $-1 $-1 $-1 $51 $-1 $25 #
shell $-1 $-1 $-1 $52 $-1 $27 #
shell $-1 $-1 $-1 $53 $-1 $29 #
shell $-1 $-1 $-1 $54 $-1 $31 #
face $-1 $55 $56 $33 $-1 $57 forward single #
face $-1 $58 $59 $34 $-1 $60 reversed single #
face $-1 $61 $62 $35 $-1 $63 reversed single #
face $-1 $64 $65 $36 $-1 $66 forward single #
face $-1 $67 $68 $37 $-1 $69 forward single #
face $-1 $70 $71 $38 $-1 $72 reversed single #
face $-1 $73 $74 $39 $-1 $75 forward single #
face $-1 $76 $77 $40 $-1 $78 forward single #
face $-1 $79 $80 $41 $-1 $81 reversed single #
face $-1 $82 $83 $42 $-1 $84 forward single #
face $-1 $85 $86 $43 $-1 $87 forward single #
face $-1 $88 $89 $33 $-1 $90 reversed single #
loop $-1 $-1 $91 $44 #
plane-surface $-1 0 0 12.070005853144933 0 0 1 1 0 0 forward_v I I I I #
face $-1 $92 $93 $34 $-1 $94 reversed single #
loop $-1 $-1 $95 $45 #
plane-surface $-1 -68.32332877408021 -26.136000725584356 0 0 -1 0 0 0 -1 forward_v I I I I #
face $-1 $96 $97 $35 $-1 $98 reversed single #
loop $-1 $-1 $99 $46 #
plane-surface $-1 114.99295764676927 34.268285975782362 200.17904295451379 0 -1 0 -0.84804810408105047 0 -0.52991925155115449 forward_v I I I I #
face $-1 $100 $101 $36 $-1 $102 forward single #
loop $-1 $103 $104 $47 #
cone-surface $-1 66.949008994993463 24.35228991856809 8.2914477648705827 -0.84804810408105047 0 -0.52991925155115449 0.52991925155115449 0 -0.84804810408105047 1 I I 0 1 1 forward I I I I #
face $-1 $105 $106 $37 $-1 $107 forward single #
loop $-1 $108 $109 $48 #
cone-surface $-1 66.949008994993463 30.301887552896659 8.2914477648705827 -0.84804810408105047 0 -0.52991925155115449 0.52991925155115449 0 -0.84804810408105047 1 I I 0 1 1 forward I I I I #
face $-1 $110 $111 $38 $-1 $112 reversed single #
loop $-1 $-1 $113 $49 #
plane-surface $-1 -150.89766134537439 -12.215395895730035 120.34011662239079 0 1 0 -0.57357644374324357 0 0.81915203911291934 forward_v I I I I #
face $-1 $114 $115 $39 $-1 $116 forward single #
loop $-1 $117 $118 $50 #
cone-surface $-1 -64.834296389286536 -8.2179227427878132 7.8648715172330732 0.57357644374324357 0 -0.81915203911291934 1.228728058669379 0 0.86036466561486535 1 I I 0 1 1.5 forward I I I I #
face $-1 $119 $120 $40 $-1 $121 forward single #
loop $-1 $122 $123 $51 #
cone-surface $-1 -64.834296389286536 -2.2217130133744831 7.8648715172330732 0.57357644374324357 0 -0.81915203911291934 1.228728058669379 0 0.86036466561486535 1 I I 0 1 1.5 forward I I I I #
face $-1 $124 $125 $41 $-1 $126 reversed single #
loop $-1 $-1 $127 $52 #
plane-surface $-1 -150.89766134537439 21.310379072905185 120.34011662239079 0 1 0 -0.57357644374324357 0 0.81915203911291934 forward_v I I I I #
face $-1 $128 $129 $42 $-1 $130 forward single #
loop $-1 $131 $132 $53 #
cone-surface $-1 -64.834296389286536 25.307852225847398 7.8648715172330732 0.57357644374324357 0 -0.81915203911291934 1.228728058669379 0 0.86036466561486535 1 I I 0 1 1.5 forward I I I I #
face $-1 $133 $134 $43 $-1 $135 forward single #
loop $-1 $136 $137 $54 #
cone-surface $-1 -64.834296389286536 31.304061955260735 7.8648715172330732 0.57357644374324357 0 -0.81915203911291934 1.228728058669379 0 0.86036466561486535 1 I I 0 1 1.5 forward I I I I #
face $-1 $138 $139 $33 $-1 $140 reversed single #
loop $-1 $-1 $141 $55 #
plane-surface $-1 0 0 -12.070005853144933 0 0 1 1 0 0 forward_v I I I I #
coedge $-1 $142 $143 $144 $145 forward $56 $-1 #
face $-1 $146 $147 $34 $-1 $148 forward single #
loop $-1 $-1 $149 $58 #
plane-surface $-1 -66.368633926834093 -33.525774968635218 0 -1 0 0 0 0 1 forward_v I I I I #
coedge $-1 $150 $151 $152 $153 forward $59 $-1 #
face $-1 $154 $155 $35 $-1 $156 reversed single #
loop $-1 $-1 $157 $61 #
plane-surface $-1 -4.2053317344888796 27.327088735732374 125.69568759869858 0.84804810408105047 0 0.52991925155115449 0.52991925155115449 0 -0.84804810408105047 forward_v I I I I #
coedge $-1 $158 $159 $160 $161 reversed $62 $-1 #
face $-1 $-1 $162 $36 $-1 $163 forward single #
loop $-1 $164 $165 $64 #
cone-surface $-1 64.937046119566816 24.35228991856809 7.0342338686729011 -0.84804810408105047 0 -0.52991925155115449 0.26495962577557725 0 -0.42402405204052523 1 I I -0.70710678118654746 0.70710678118654746 0.5 forward I I I I #
loop $-1 $-1 $166 $47 #
coedge $-1 $104 $104 $167 $168 reversed $65 $-1 #
face $-1 $-1 $169 $37 $-1 $170 forward single #
loop $-1 $171 $172 $67 #
cone-surface $-1 64.937046119566816 30.301887552896659 7.0342338686729011 -0.84804810408105047 0 -0.52991925155115449 0.26495962577557725 0 -0.42402405204052523 1 I I -0.70710678118654746 0.70710678118654746 0.5 forward I I I I #
loop $-1 $-1 $173 $48 #
coedge $-1 $109 $109 $174 $175 reversed $68 $-1 #
face $-1 $176 $177 $38 $-1 $178 reversed single #
loop $-1 $-1 $179 $70 #
plane-surface $-1 -70.278023621326341 -5.2198178780811446 5.203343913920051 -0.57357644374324357 0 0.81915203911291934 0.81915203911291934 0 0.57357644374324357 forward_v I I I I #
coedge $-1 $180 $181 $182 $183 reversed $71 $-1 #
face $-1 $-1 $184 $39 $-1 $185 forward single #
loop $-1 $186 $187 $73 #
cone-surface $-1 -63.863691511000866 -8.2179227427878132 6.4787041215989607 0.57357644374324357 0 -0.81915203911291934 0.61436402933468948 0 0.43018233280743268 1 I I -0.70710678118654757 0.70710678118654757 0.75 forward I I I I #
loop $-1 $-1 $188 $50 #
coedge $-1 $118 $118 $189 $190 reversed $74 $-1 #
face $-1 $-1 $191 $40 $-1 $192 forward single #
loop $-1 $193 $194 $76 #
cone-surface $-1 -63.863691511000866 -2.2217130133744831 6.4787041215989607 0.57357644374324357 0 -0.81915203911291934 0.61436402933468948 0 0.43018233280743268 1 I I -0.70710678118654757 0.70710678118654757 0.75 forward I I I I #
loop $-1 $-1 $195 $51 #
coedge $-1 $123 $123 $196 $197 reversed $77 $-1 #
face $-1 $198 $199 $41 $-1 $200 reversed single #
loop $-1 $-1 $201 $79 #
plane-surface $-1 -70.278023621326341 28.305957090554074 5.203343913920051 -0.57357644374324357 0 0.81915203911291934 0.81915203911291934 0 0.57357644374324357 forward_v I I I I #
coedge $-1 $202 $203 $204 $205 reversed $80 $-1 #
face $-1 $-1 $206 $42 $-1 $207 forward single #
loop $-1 $208 $209 $82 #
cone-surface $-1 -63.863691511000866 25.307852225847398 6.4787041215989607 0.57357644374324357 0 -0.81915203911291934 0.61436402933468948 0 0.43018233280743268 1 I I -0.70710678118654757 0.70710678118654757 0.75 forward I I I I #
loop $-1 $-1 $210 $53 #
coedge $-1 $132 $132 $211 $212 reversed $83 $-1 #
face $-1 $-1 $213 $43 $-1 $214 forward single #
loop $-1 $215 $216 $85 #
cone-surface $-1 -63.863691511000866 31.304061955260735 6.4787041215989607 0.57357644374324357 0 -0.81915203911291934 0.61436402933468948 0 0.43018233280743268 1 I I -0.70710678118654757 0.70710678118654757 0.75 forward I I I I #
loop $-1 $-1 $217 $54 #
coedge $-1 $137 $137 $218 $219 reversed $86 $-1 #
face $-1 $220 $221 $33 $-1 $222 reversed single #
loop $-1 $-1 $223 $88 #
plane-surface $-1 0 -40.915549211686084 0 0 1 0 0 0 1 forward_v I I I I #
coedge $-1 $224 $225 $226 $227 forward $89 $-1 #
coedge $-1 $228 $91 $229 $230 forward $56 $-1 #
coedge $-1 $91 $228 $231 $232 forward $56 $-1 #
coedge $-1 $233 $234 $91 $145 reversed $235 $-1 #
edge $-1 $236 -40.915549211686084 $237 40.915549211686084 $144 $238 forward 7 unknown #
face $-1 $239 $240 $34 $-1 $241 reversed single #
loop $-1 $-1 $242 $92 #
plane-surface $-1 0 0 12.070005853144933 0 0 1 1 0 0 forward_v I I I I #
coedge $-1 $243 $244 $245 $246 reversed $93 $-1 #
coedge $-1 $247 $95 $248 $249 reversed $59 $-1 #
coedge $-1 $95 $247 $250 $251 reversed $59 $-1 #
coedge $-1 $244 $243 $95 $153 reversed $93 $-1 #
edge $-1 $252 -12.070005853144933 $253 12.070005853144933 $152 $254 forward 7 unknown #
face $-1 $255 $256 $35 $-1 $257 reversed single #
loop $-1 $-1 $258 $96 #
plane-surface $-1 114.99295764676927 20.385891495682383 200.17904295451379 0 1 0 0.84804810408105047 0 0.52991925155115449 forward_v I I I I #
coedge $-1 $259 $260 $261 $262 reversed $97 $-1 #
coedge $-1 $159 $99 $263 $264 reversed $62 $-1 #
coedge $-1 $99 $158 $259 $265 reversed $62 $-1 #
coedge $-1 $261 $266 $99 $161 forward $267 $-1 #
edge $-1 $268 -12.781544797941692 $269 -9.2993931920481856 $160 $270 forward 7 unknown #
loop $-1 $-1 $167 $100 #
plane-surface $-1 -4.2053317344888796 27.327088735732374 125.69568759869858 0.84804810408105047 0 0.52991925155115449 0.52991925155115449 0 -0.84804810408105047 forward_v I I I I #
loop $-1 $-1 $271 $64 #
coedge $-1 $165 $165 $166 $272 reversed $101 $-1 #
coedge $-1 $166 $166 $165 $272 forward $103 $-1 #
coedge $-1 $167 $167 $104 $168 forward $162 $-1 #
edge $-1 $273 0 $273 6.2831853071796004 $167 $274 forward 7 unknown #
loop $-1 $-1 $174 $105 #
plane-surface $-1 -4.2053317344888796 27.327088735732374 125.69568759869858 0.84804810408105047 0 0.52991925155115449 0.52991925155115449 0 -0.84804810408105047 forward_v I I I I #
loop $-1 $-1 $275 $67 #
coedge $-1 $172 $172 $173 $276 reversed $106 $-1 #
coedge $-1 $173 $173 $172 $276 forward $108 $-1 #
coedge $-1 $174 $174 $109 $175 forward $169 $-1 #
edge $-1 $277 0 $277 6.2831853071796004 $174 $278 forward 7 unknown #
face $-1 $279 $280 $38 $-1 $281 reversed single #
loop $-1 $-1 $282 $110 #
plane-surface $-1 -150.89766134537439 1.7757601395677458 120.34011662239079 0 -1 0 0.57357644374324357 0 -0.81915203911291934 forward_v I I I I #
coedge $-1 $283 $284 $285 $286 reversed $111 $-1 #
coedge $-1 $181 $113 $287 $288 reversed $71 $-1 #
coedge $-1 $113 $180 $283 $289 reversed $71 $-1 #
coedge $-1 $285 $290 $113 $183 forward $291 $-1 #
edge $-1 $292 5.1708070513608675 $293 14.977416424484005 $182 $294 forward 7 unknown #
loop $-1 $-1 $189 $114 #
plane-surface $-1 -70.278023621326341 -5.2198178780811446 5.203343913920051 -0.57357644374324357 0 0.81915203911291934 0.81915203911291934 0 0.57357644374324357 forward_v I I I I #
loop $-1 $-1 $295 $73 #
coedge $-1 $187 $187 $188 $296 reversed $115 $-1 #
coedge $-1 $188 $188 $187 $296 forward $117 $-1 #
coedge $-1 $189 $189 $118 $190 forward $184 $-1 #
edge $-1 $297 0 $297 6.2831853071796004 $189 $298 forward 7 unknown #
loop $-1 $-1 $196 $119 #
plane-surface $-1 -70.278023621326341 -5.2198178780811446 5.203343913920051 -0.57357644374324357 0 0.81915203911291934 0.81915203911291934 0 0.57357644374324357 forward_v I I I I #
loop $-1 $-1 $299 $76 #
coedge $-1 $194 $194 $195 $300 reversed $120 $-1 #
coedge $-1 $195 $195 $194 $300 forward $122 $-1 #
coedge $-1 $196 $196 $123 $197 forward $191 $-1 #
edge $-1 $301 0 $301 6.2831853071796004 $196 $302 forward 7 unknown #
face $-1 $303 $304 $41 $-1 $305 forward single #
loop $-1 $-1 $306 $124 #
plane-surface $-1 -150.89766134537439 35.301535108202962 120.34011662239079 0 -1 0 0.57357644374324357 0 -0.81915203911291934 forward_v I I I I #
coedge $-1 $307 $308 $309 $310 reversed $125 $-1 #
coedge $-1 $203 $127 $311 $312 reversed $80 $-1 #
coedge $-1 $127 $202 $307 $313 reversed $80 $-1 #
coedge $-1 $309 $314 $127 $205 forward $304 $-1 #
edge $-1 $315 5.1708070513608675 $316 14.977416424484005 $204 $317 forward 7 unknown #
loop $-1 $-1 $211 $128 #
plane-surface $-1 -70.278023621326341 28.305957090554074 5.203343913920051 -0.57357644374324357 0 0.81915203911291934 0.81915203911291934 0 0.57357644374324357 forward_v I I I I #
loop $-1 $-1 $318 $82 #
coedge $-1 $209 $209 $210 $319 reversed $129 $-1 #
coedge $-1 $210 $210 $209 $319 forward $131 $-1 #
coedge $-1 $211 $211 $132 $212 forward $206 $-1 #
edge $-1 $320 0 $320 6.2831853071796004 $211 $321 forward 7 unknown #
loop $-1 $-1 $218 $133 #
plane-surface $-1 -70.278023621326341 28.305957090554074 5.203343913920051 -0.57357644374324357 0 0.81915203911291934 0.81915203911291934 0 0.57357644374324357 forward_v I I I I #
loop $-1 $-1 $322 $85 #
coedge $-1 $216 $216 $217 $323 reversed $134 $-1 #
coedge $-1 $217 $217 $216 $323 forward $136 $-1 #
coedge $-1 $218 $218 $137 $219 forward $213 $-1 #
edge $-1 $324 0 $324 6.2831853071796004 $218 $325 forward 7 unknown #
face $-1 $326 $327 $33 $-1 $328 reversed single #
loop $-1 $-1 $329 $138 #
plane-surface $-1 -70.278023621326327 0 0 1 0 0 0 0 -1 forward_v I I I I #
coedge $-1 $330 $231 $331 $332 forward $139 $-1 #
coedge $-1 $333 $141 $330 $334 forward $89 $-1 #
coedge $-1 $141 $333 $335 $336 forward $89 $-1 #
coedge $-1 $234 $233 $141 $227 reversed $235 $-1 #
edge $-1 $337 -40.915549211686084 $338 40.915549211686084 $226 $339 forward 7 unknown #
coedge $-1 $143 $142 $340 $341 forward $56 $-1 #
coedge $-1 $342 $343 $142 $230 reversed $327 $-1 #
edge $-1 $237 -70.278023621326327 $344 70.278023621326327 $229 $345 forward 7 unknown #
coedge $-1 $223 $346 $143 $232 reversed $139 $-1 #
edge $-1 $347 -70.278023621326327 $236 70.278023621326327 $231 $348 forward 7 unknown #
coedge $-1 $226 $144 $346 $349 forward $235 $-1 #
coedge $-1 $144 $226 $342 $350 reversed $235 $-1 #
loop $-1 $-1 $233 $326 #
vertex $-1 $145 $351 #
vertex $-1 $145 $352 #
straight-curve $-1 70.278023621326327 0 12.070005853144933 0 1 0 I I #
face $-1 $353 $354 $34 $-1 $355 reversed single #
loop $-1 $-1 $356 $146 #
plane-surface $-1 -70.278023621326327 0 0 1 0 0 0 0 -1 forward_v I I I I #
coedge $-1 $250 $357 $244 $358 forward $147 $-1 #
coedge $-1 $152 $149 $359 $360 reversed $93 $-1 #
coedge $-1 $149 $152 $242 $358 reversed $93 $-1 #
coedge $-1 $361 $362 $149 $246 forward $363 $-1 #
edge $-1 $364 -12.070005853144933 $365 12.070005853144933 $245 $366 forward 7 unknown #
coedge $-1 $151 $150 $356 $367 reversed $59 $-1 #
coedge $-1 $359 $368 $150 $249 forward $354 $-1 #
edge $-1 $369 -36.116359234286222 $253 -32.206969539793988 $248 $370 forward 7 unknown #
coedge $-1 $371 $242 $151 $251 forward $147 $-1 #
edge $-1 $252 32.206969539793988 $372 36.116359234286222 $250 $373 forward 7 unknown #
vertex $-1 $251 $374 #
vertex $-1 $249 $375 #
straight-curve $-1 -66.368633926834093 -26.136000725584356 0 0 0 -1 I I #
face $-1 $-1 $267 $35 $-1 $376 forward single #
loop $-1 $-1 $377 $154 #
plane-surface $-1 70.278023621326327 0 0 -1 0 0 0 0 1 forward_v I I I I #
coedge $-1 $378 $379 $380 $381 reversed $155 $-1 #
coedge $-1 $382 $157 $159 $265 forward $97 $-1 #
coedge $-1 $157 $382 $378 $383 forward $97 $-1 #
coedge $-1 $380 $160 $157 $262 forward $267 $-1 #
edge $-1 $269 -20.604741607916175 $384 -6.7223471278161959 $261 $385 forward 7 unknown #
coedge $-1 $386 $387 $158 $264 forward $256 $-1 #
edge $-1 $388 -93.592123259816461 $268 -88.019515624111961 $263 $389 forward 7 unknown #
edge $-1 $269 133.98494872962314 $388 140.55604724265265 $159 $390 forward 7 unknown #
coedge $-1 $160 $380 $386 $391 forward $267 $-1 #
loop $-1 $-1 $380 $255 #
vertex $-1 $264 $392 #
vertex $-1 $161 $393 #
straight-curve $-1 57.496478823384635 34.268285975782362 12.070005853144934 -1 0 0 I I #
coedge $-1 $271 $271 $-1 $394 reversed $164 $-1 #
edge $-1 $395 0 $395 6.2831853071796004 $165 $396 forward 7 unknown #
vertex $-1 $168 $397 #
ellipse-curve $-1 68.536947818379574 24.35228991856809 9.2837020352926842 0.84804810408105047 0 0.52991925155115449 0.52991925155115449 0 -0.84804810408105047 1 I I #
coedge $-1 $275 $275 $-1 $398 reversed $171 $-1 #
edge $-1 $399 0 $399 6.2831853071796004 $172 $400 forward 7 unknown #
vertex $-1 $175 $401 #
ellipse-curve $-1 68.536947818379574 30.301887552896659 9.2837020352926842 0.84804810408105047 0 0.52991925155115449 0.52991925155115449 0 -0.84804810408105047 1 I I #
face $-1 $-1 $291 $38 $-1 $402 forward single #
loop $-1 $-1 $403 $176 #
plane-surface $-1 -70.278023621326327 0 0 1 0 0 0 0 -1 forward_v I I I I #
coedge $-1 $404 $405 $406 $407 reversed $177 $-1 #
coedge $-1 $408 $179 $181 $289 forward $111 $-1 #
coedge $-1 $179 $408 $404 $409 forward $111 $-1 #
coedge $-1 $406 $182 $179 $286 forward $291 $-1 #
edge $-1 $293 -9.6054869566894627 $410 4.3856690786083181 $285 $411 forward 7 unknown #
coedge $-1 $412 $413 $180 $288 forward $280 $-1 #
edge $-1 $414 -54.966714397275339 $292 -48.100052458050463 $287 $415 forward 7 unknown #
edge $-1 $293 -11.97165960026539 $414 -1.7244671030687178e-014 $181 $416 forward 7 unknown #
coedge $-1 $182 $406 $412 $417 forward $291 $-1 #
loop $-1 $-1 $406 $279 #
vertex $-1 $288 $418 #
vertex $-1 $183 $419 #
straight-curve $-1 -75.448830672687194 -12.215395895730035 12.070005853144934 1 0 0 I I #
coedge $-1 $295 $295 $-1 $420 reversed $186 $-1 #
edge $-1 $421 0 $421 6.2831853071796004 $187 $422 forward 7 unknown #
vertex $-1 $190 $423 #
ellipse-curve $-1 -65.374718934764758 -8.2179227427878132 8.6366748835324927 -0.57357644374324357 0 0.81915203911291934 1.228728058669379 0 0.86036466561486535 1 I I #
coedge $-1 $299 $299 $-1 $424 reversed $193 $-1 #
edge $-1 $425 0 $425 6.2831853071796004 $194 $426 forward 7 unknown #
vertex $-1 $197 $427 #
ellipse-curve $-1 -65.374718934764758 -2.2217130133744831 8.6366748835324927 -0.57357644374324357 0 0.81915203911291934 1.228728058669379 0 0.86036466561486535 1 I I #
face $-1 $-1 $428 $41 $-1 $429 reversed single #
loop $-1 $-1 $204 $198 #
plane-surface $-1 0 0 12.070005853144933 0 0 1 1 0 0 forward_v I I I I #
coedge $-1 $430 $431 $432 $433 reversed $199 $-1 #
coedge $-1 $434 $201 $203 $313 forward $125 $-1 #
coedge $-1 $201 $434 $430 $435 forward $125 $-1 #
coedge $-1 $432 $204 $201 $310 forward $304 $-1 #
edge $-1 $316 7.1574005276281483 $436 21.148556562925926 $309 $437 forward 7 unknown #
coedge $-1 $438 $439 $202 $312 forward $428 $-1 #
edge $-1 $440 -54.966714397275339 $315 -48.100052458050463 $311 $441 forward 7 unknown #
edge $-1 $316 -11.97165960026539 $440 -1.7244671030687178e-014 $203 $442 forward 7 unknown #
coedge $-1 $204 $432 $438 $443 forward $304 $-1 #
vertex $-1 $312 $444 #
vertex $-1 $205 $445 #
straight-curve $-1 -75.448830672687194 21.310379072905185 12.070005853144934 1 0 0 I I #
coedge $-1 $318 $318 $-1 $446 reversed $208 $-1 #
edge $-1 $447 0 $447 6.2831853071796004 $209 $448 forward 7 unknown #
vertex $-1 $212 $449 #
ellipse-curve $-1 -65.374718934764758 25.307852225847398 8.6366748835324927 -0.57357644374324357 0 0.81915203911291934 1.228728058669379 0 0.86036466561486535 1 I I #
coedge $-1 $322 $322 $-1 $450 reversed $215 $-1 #
edge $-1 $451 0 $451 6.2831853071796004 $216 $452 forward 7 unknown #
vertex $-1 $219 $453 #
ellipse-curve $-1 -65.374718934764758 31.304061955260735 8.6366748835324927 -0.57357644374324357 0 0.81915203911291934 1.228728058669379 0 0.86036466561486535 1 I I #
face $-1 $-1 $235 $33 $-1 $454 reversed single #
loop $-1 $-1 $342 $220 #
plane-surface $-1 0 40.915549211686084 0 0 -1 0 0 0 -1 forward_v I I I I #
coedge $-1 $455 $340 $343 $456 forward $221 $-1 #
coedge $-1 $346 $223 $224 $334 reversed $139 $-1 #
coedge $-1 $340 $455 $223 $332 reversed $221 $-1 #
edge $-1 $347 -12.070005853144933 $457 12.070005853144933 $331 $458 forward 7 unknown #
coedge $-1 $225 $224 $455 $459 forward $89 $-1 #
edge $-1 $338 -70.278023621326327 $457 70.278023621326327 $330 $460 forward 7 unknown #
coedge $-1 $343 $342 $225 $336 reversed $327 $-1 #
edge $-1 $461 -70.278023621326327 $337 70.278023621326327 $335 $462 forward 7 unknown #
vertex $-1 $227 $463 #
vertex $-1 $349 $464 #
straight-curve $-1 70.278023621326327 0 -12.070005853144933 0 -1 0 I I #
coedge $-1 $329 $331 $228 $341 reversed $221 $-1 #
edge $-1 $344 -40.915549211686084 $347 40.915549211686084 $340 $465 forward 7 unknown #
coedge $-1 $335 $229 $234 $350 forward $327 $-1 #
coedge $-1 $229 $335 $329 $456 reversed $327 $-1 #
vertex $-1 $230 $466 #
straight-curve $-1 0 40.915549211686084 12.070005853144933 -1 0 0 I I #
coedge $-1 $231 $330 $233 $349 reversed $139 $-1 #
vertex $-1 $341 $467 #
straight-curve $-1 0 -40.915549211686084 12.070005853144933 1 0 0 I I #
edge $-1 $236 -12.070005853144933 $338 12.070005853144933 $233 $468 forward 7 unknown #
edge $-1 $237 -12.070005853144933 $337 12.070005853144933 $234 $469 forward 7 unknown #
point $-1 70.278023621326327 -40.915549211686084 12.070005853144933 #
point $-1 70.278023621326327 40.915549211686084 12.070005853144933 #
face $-1 $-1 $363 $34 $-1 $470 reversed single #
loop $-1 $-1 $359 $239 #
plane-surface $-1 0 0 -12.070005853144933 0 0 1 1 0 0 forward_v I I I I #
coedge $-1 $471 $472 $247 $367 forward $240 $-1 #
coedge $-1 $242 $371 $361 $473 forward $147 $-1 #
edge $-1 $365 -24.152661727368475 $252 -9.3731132412667471 $242 $474 forward 7 unknown #
coedge $-1 $475 $248 $243 $360 forward $354 $-1 #
edge $-1 $253 9.3731132412667471 $364 24.152661727368475 $359 $476 forward 7 unknown #
coedge $-1 $477 $245 $357 $473 reversed $363 $-1 #
coedge $-1 $245 $477 $475 $478 reversed $363 $-1 #
loop $-1 $-1 $245 $353 #
vertex $-1 $478 $479 #
vertex $-1 $246 $480 #
straight-curve $-1 -66.368633926834093 -40.915549211686084 0 0 0 1 I I #
edge $-1 $372 -12.070005853144933 $369 12.070005853144933 $356 $481 forward 7 unknown #
coedge $-1 $248 $475 $471 $482 forward $354 $-1 #
vertex $-1 $249 $483 #
straight-curve $-1 -34.161664387040105 -26.136000725584356 -12.070005853144933 1 0 0 I I #
coedge $-1 $357 $250 $472 $484 forward $147 $-1 #
vertex $-1 $484 $485 #
straight-curve $-1 -34.161664387040105 -26.136000725584356 12.070005853144933 -1 0 0 I I #
point $-1 -66.368633926834093 -26.136000725584356 12.070005853144933 #
point $-1 -66.368633926834093 -26.136000725584356 -12.070005853144933 #
plane-surface $-1 0 0 12.070005853144933 0 0 1 1 0 0 forward_v I I I I #
coedge $-1 $387 $386 $379 $486 forward $256 $-1 #
coedge $-1 $379 $258 $260 $383 reversed $155 $-1 #
coedge $-1 $258 $378 $377 $486 reversed $155 $-1 #
coedge $-1 $266 $261 $258 $381 forward $267 $-1 #
edge $-1 $384 9.2993931920481856 $487 12.781544797941692 $380 $488 forward 7 unknown #
coedge $-1 $260 $259 $387 $489 reversed $97 $-1 #
edge $-1 $490 -140.55604724265265 $384 -133.98494872962314 $378 $491 forward 7 unknown #
vertex $-1 $262 $492 #
straight-curve $-1 66.795872015432806 13.663544367866187 12.070005853144934 0 -1 0 I I #
coedge $-1 $377 $263 $266 $391 reversed $256 $-1 #
coedge $-1 $263 $377 $382 $489 forward $256 $-1 #
vertex $-1 $264 $493 #
straight-curve $-1 70.278023621326327 34.268285975782362 100.08952147725689 0 0 1 I I #
straight-curve $-1 -4.2053317344888796 34.268285975782362 125.69568759869858 0.52991925155115449 0 -0.84804810408105047 I I #
edge $-1 $487 20.385891495682383 $268 34.268285975782362 $386 $494 forward 7 unknown #
point $-1 70.278023621326327 34.268285975782362 12.070005853144933 #
point $-1 66.79587201543282 34.268285975782362 12.07000585314492 #
edge $-1 $495 1 $495 0 $271 $-1 forward 7 unknown #
vertex $-1 $272 $496 #
ellipse-curve $-1 65.361070171607338 24.35228991856809 7.2991934944484784 0.84804810408105047 0 0.52991925155115449 0.52991925155115449 0 -0.84804810408105047 1 I I #
point $-1 69.066867069930723 24.35228991856809 8.4356539312116361 #
edge $-1 $497 1 $497 0 $275 $-1 forward 7 unknown #
vertex $-1 $276 $498 #
ellipse-curve $-1 65.361070171607338 30.301887552896659 7.2991934944484784 0.84804810408105047 0 0.52991925155115449 0.52991925155115449 0 -0.84804810408105047 1 I I #
point $-1 69.066867069930723 30.301887552896659 8.4356539312116361 #
plane-surface $-1 0 0 12.070005853144933 0 0 1 1 0 0 forward_v I I I I #
coedge $-1 $413 $412 $405 $499 forward $280 $-1 #
coedge $-1 $405 $282 $284 $409 reversed $177 $-1 #
coedge $-1 $282 $404 $403 $499 reversed $177 $-1 #
coedge $-1 $290 $285 $282 $407 forward $291 $-1 #
edge $-1 $410 -14.977416424484005 $500 -5.1708070513608675 $406 $501 forward 7 unknown #
coedge $-1 $284 $283 $413 $502 reversed $111 $-1 #
edge $-1 $503 1.7244671030687178e-014 $410 11.97165960026539 $404 $504 forward 7 unknown #
vertex $-1 $286 $505 #
straight-curve $-1 -60.471414248203189 -2.6099089390405723 12.070005853144934 0 1 0 I I #
coedge $-1 $403 $287 $290 $417 reversed $280 $-1 #
coedge $-1 $287 $403 $408 $502 forward $280 $-1 #
vertex $-1 $288 $506 #
straight-curve $-1 -70.278023621326327 -12.215395895730035 60.170058311195397 0 0 1 I I #
straight-curve $-1 -70.278023621326341 -12.215395895730035 5.203343913920051 -0.81915203911291934 0 -0.57357644374324357 I I #
edge $-1 $500 -1.7757601395677458 $292 12.215395895730035 $412 $507 forward 7 unknown #
point $-1 -70.278023621326327 -12.215395895730035 12.070005853144933 #
point $-1 -60.471414248203189 -12.215395895730035 12.070005853144933 #
edge $-1 $508 1 $508 0 $295 $-1 forward 7 unknown #
vertex $-1 $296 $509 #
ellipse-curve $-1 -64.293873843808299 -8.2179227427878132 7.0930681509336502 -0.57357644374324357 0 0.81915203911291934 1.228728058669379 0 0.86036466561486535 1 I I #
point $-1 -64.145990876095382 -8.2179227427878132 9.4970395491473596 #
edge $-1 $510 1 $510 0 $299 $-1 forward 7 unknown #
vertex $-1 $300 $511 #
ellipse-curve $-1 -64.293873843808299 -2.2217130133744831 7.0930681509336502 -0.57357644374324357 0 0.81915203911291934 1.228728058669379 0 0.86036466561486535 1 I I #
point $-1 -64.145990876095382 -2.2217130133744831 9.4970395491473596 #
loop $-1 $-1 $311 $303 #
plane-surface $-1 -70.278023621326327 0 0 1 0 0 0 0 -1 forward_v I I I I #
coedge $-1 $431 $306 $308 $435 reversed $199 $-1 #
coedge $-1 $306 $430 $512 $513 reversed $199 $-1 #
coedge $-1 $314 $309 $306 $433 forward $304 $-1 #
edge $-1 $436 -14.977416424484005 $514 -5.1708070513608675 $432 $515 forward 7 unknown #
coedge $-1 $308 $307 $439 $516 reversed $125 $-1 #
edge $-1 $517 1.7244671030687178e-014 $436 11.97165960026539 $430 $518 forward 7 unknown #
vertex $-1 $310 $519 #
straight-curve $-1 -60.471414248203189 14.152978545277037 12.070005853144934 0 1 0 I I #
coedge $-1 $512 $311 $314 $443 reversed $428 $-1 #
coedge $-1 $311 $512 $434 $516 forward $428 $-1 #
vertex $-1 $312 $520 #
straight-curve $-1 -70.278023621326327 21.310379072905185 60.170058311195397 0 0 1 I I #
straight-curve $-1 -70.278023621326341 21.310379072905185 5.203343913920051 -0.81915203911291934 0 -0.57357644374324357 I I #
edge $-1 $514 -35.301535108202962 $315 -21.310379072905185 $438 $521 forward 7 unknown #
point $-1 -70.278023621326327 21.310379072905185 12.070005853144933 #
point $-1 -60.471414248203189 21.310379072905185 12.070005853144933 #
edge $-1 $522 1 $522 0 $318 $-1 forward 7 unknown #
vertex $-1 $319 $523 #
ellipse-curve $-1 -64.293873843808299 25.307852225847398 7.0930681509336502 -0.57357644374324357 0 0.81915203911291934 1.228728058669379 0 0.86036466561486535 1 I I #
point $-1 -64.145990876095382 25.307852225847398 9.4970395491473596 #
edge $-1 $524 1 $524 0 $322 $-1 forward 7 unknown #
vertex $-1 $323 $525 #
ellipse-curve $-1 -64.293873843808299 31.304061955260735 7.0930681509336502 -0.57357644374324357 0 0.81915203911291934 1.228728058669379 0 0.86036466561486535 1 I I #
point $-1 -64.145990876095382 31.304061955260735 9.4970395491473596 #
plane-surface $-1 70.278023621326327 0 0 -1 0 0 0 0 1 forward_v I I I I #
coedge $-1 $331 $329 $333 $459 reversed $221 $-1 #
edge $-1 $344 -12.070005853144933 $461 12.070005853144933 $343 $526 forward 7 unknown #
vertex $-1 $459 $527 #
straight-curve $-1 -70.278023621326327 -40.915549211686084 0 0 0 -1 I I #
edge $-1 $457 -40.915549211686084 $461 40.915549211686084 $455 $528 forward 7 unknown #
straight-curve $-1 0 -40.915549211686084 -12.070005853144933 -1 0 0 I I #
vertex $-1 $336 $529 #
straight-curve $-1 0 40.915549211686084 -12.070005853144933 1 0 0 I I #
point $-1 70.278023621326327 40.915549211686084 -12.070005853144933 #
point $-1 70.278023621326327 -40.915549211686084 -12.070005853144933 #
straight-curve $-1 -70.278023621326327 0 12.070005853144933 0 -1 0 I I #
point $-1 -70.278023621326327 40.915549211686084 12.070005853144933 #
point $-1 -70.278023621326327 -40.915549211686084 12.070005853144933 #
straight-curve $-1 70.278023621326327 -40.915549211686084 0 0 0 -1 I I #
straight-curve $-1 70.278023621326327 40.915549211686084 0 0 0 -1 I I #
plane-surface $-1 0 -40.915549211686084 0 0 1 0 0 0 1 forward_v I I I I #
coedge $-1 $530 $356 $368 $482 reversed $240 $-1 #
coedge $-1 $356 $530 $371 $484 reversed $240 $-1 #
edge $-1 $531 -70.278023621326327 $365 -66.368633926834093 $361 $532 forward 7 unknown #
straight-curve $-1 -66.368633926834093 -16.762887484317609 12.070005853144933 0 1 0 I I #
coedge $-1 $368 $359 $362 $478 forward $354 $-1 #
straight-curve $-1 -66.368633926834093 -16.762887484317609 -12.070005853144933 0 -1 0 I I #
coedge $-1 $362 $361 $530 $533 forward $363 $-1 #
edge $-1 $364 66.368633926834093 $534 70.278023621326327 $362 $535 forward 7 unknown #
point $-1 -66.368633926834093 -40.915549211686084 -12.070005853144933 #
point $-1 -66.368633926834093 -40.915549211686084 12.070005853144933 #
straight-curve $-1 -70.278023621326327 -26.136000725584356 0 0 0 -1 I I #
edge $-1 $534 -40.915549211686084 $369 -26.136000725584356 $471 $536 forward 7 unknown #
point $-1 -70.278023621326327 -26.136000725584356 -12.070005853144933 #
edge $-1 $372 26.136000725584356 $531 40.915549211686084 $472 $537 forward 7 unknown #
point $-1 -70.278023621326327 -26.136000725584356 12.070005853144933 #
edge $-1 $487 88.019515624111961 $490 93.592123259816461 $377 $538 forward 7 unknown #
vertex $-1 $391 $539 #
straight-curve $-1 57.496478823384635 20.385891495682383 12.070005853144934 1 0 0 I I #
edge $-1 $490 6.7223471278161959 $388 20.604741607916175 $387 $540 forward 7 unknown #
vertex $-1 $489 $541 #
straight-curve $-1 -4.2053317344888796 20.385891495682383 125.69568759869858 -0.52991925155115449 0 0.84804810408105047 I I #
point $-1 66.79587201543282 20.385891495682383 12.07000585314492 #
point $-1 70.278023621326327 34.268285975782362 6.4973982174404341 #
straight-curve $-1 70.278023621326327 0 12.070005853144933 0 1 0 I I #
vertex $-1 $394 $542 #
point $-1 65.890989423158501 24.35228991856809 6.4511453903674276 #
vertex $-1 $398 $543 #
point $-1 65.890989423158501 30.301887552896659 6.4511453903674276 #
edge $-1 $500 48.100052458050463 $503 54.966714397275339 $403 $544 forward 7 unknown #
vertex $-1 $417 $545 #
straight-curve $-1 -75.448830672687194 1.7757601395677458 12.070005853144934 -1 0 0 I I #
edge $-1 $503 -4.3856690786083181 $414 9.6054869566894627 $413 $546 forward 7 unknown #
vertex $-1 $502 $547 #
straight-curve $-1 -70.278023621326341 1.7757601395677458 5.203343913920051 0.81915203911291934 0 0.57357644374324357 I I #
point $-1 -60.471414248203189 1.7757601395677458 12.070005853144933 #
point $-1 -70.278023621326327 -12.215395895730035 5.2033439139200608 #
straight-curve $-1 -70.278023621326327 0 12.070005853144933 0 -1 0 I I #
vertex $-1 $420 $548 #
point $-1 -63.065145785138917 -8.2179227427878132 7.9534328165485153 #
vertex $-1 $424 $549 #
point $-1 -63.065145785138917 -2.2217130133744831 7.9534328165485153 #
coedge $-1 $439 $438 $431 $513 forward $428 $-1 #
edge $-1 $514 48.100052458050463 $517 54.966714397275339 $512 $550 forward 7 unknown #
vertex $-1 $443 $551 #
straight-curve $-1 -75.448830672687194 35.301535108202962 12.070005853144934 -1 0 0 I I #
edge $-1 $517 -21.148556562925926 $440 -7.1574005276281483 $439 $552 forward 7 unknown #
vertex $-1 $516 $553 #
straight-curve $-1 -70.278023621326341 35.301535108202962 5.203343913920051 0.81915203911291934 0 0.57357644374324357 I I #
point $-1 -60.471414248203189 35.301535108202962 12.070005853144933 #
point $-1 -70.278023621326327 21.310379072905185 5.2033439139200608 #
straight-curve $-1 -70.278023621326327 0 12.070005853144933 0 -1 0 I I #
vertex $-1 $446 $554 #
point $-1 -63.065145785138917 25.307852225847398 7.9534328165485153 #
vertex $-1 $450 $555 #
point $-1 -63.065145785138917 31.304061955260735 7.9534328165485153 #
straight-curve $-1 -70.278023621326327 40.915549211686084 0 0 0 -1 I I #
point $-1 -70.278023621326327 -40.915549211686084 -12.070005853144933 #
straight-curve $-1 -70.278023621326327 0 -12.070005853144933 0 1 0 I I #
point $-1 -70.278023621326327 40.915549211686084 -12.070005853144933 #
coedge $-1 $472 $471 $477 $533 reversed $240 $-1 #
vertex $-1 $484 $556 #
straight-curve $-1 0 -40.915549211686084 12.070005853144933 1 0 0 I I #
edge $-1 $531 -12.070005853144933 $534 12.070005853144933 $530 $557 forward 7 unknown #
vertex $-1 $482 $558 #
straight-curve $-1 0 -40.915549211686084 -12.070005853144933 -1 0 0 I I #
straight-curve $-1 -70.278023621326327 0 -12.070005853144933 0 1 0 I I #
straight-curve $-1 -70.278023621326327 0 12.070005853144933 0 -1 0 I I #
straight-curve $-1 70.278023621326327 20.385891495682383 100.08952147725689 0 0 -1 I I #
point $-1 70.278023621326327 20.385891495682383 12.070005853144933 #
straight-curve $-1 70.278023621326327 13.663544367866187 6.4973982174404412 0 1 0 I I #
point $-1 70.278023621326327 20.385891495682383 6.4973982174404341 #
point $-1 64.513022067526293 24.35228991856809 6.7692742428973238 #
point $-1 64.513022067526293 30.301887552896659 6.7692742428973238 #
straight-curve $-1 -70.278023621326327 1.7757601395677458 60.170058311195397 0 0 -1 I I #
point $-1 -70.278023621326327 1.7757601395677458 12.070005853144933 #
straight-curve $-1 -70.278023621326327 -2.6099089390405723 5.2033439139200537 0 -1 0 I I #
point $-1 -70.278023621326327 1.7757601395677458 5.2033439139200608 #
point $-1 -63.433509178193432 -8.2179227427878132 5.8643400922642712 #
point $-1 -63.433509178193432 -2.2217130133744831 5.8643400922642712 #
straight-curve $-1 -70.278023621326327 35.301535108202962 60.170058311195397 0 0 -1 I I #
point $-1 -70.278023621326327 35.301535108202962 12.070005853144933 #
straight-curve $-1 -70.278023621326327 14.152978545277037 5.2033439139200537 0 -1 0 I I #
point $-1 -70.278023621326327 35.301535108202962 5.2033439139200608 #
point $-1 -63.433509178193432 25.307852225847398 5.8643400922642712 #
point $-1 -63.433509178193432 31.304061955260735 5.8643400922642712 #
point $-1 -70.278023621326327 -40.915549211686084 12.070005853144933 #
straight-curve $-1 -70.278023621326327 -40.915549211686084 0 0 0 -1 I I #
point $-1 -70.278023621326327 -40.915549211686084 -12.070005853144933 #
End-of-ACIS-data 