500 0 6 0           
7 Unknown 11 ACIS 5.0 NT 24 Fri Mar 26 00:41:27 1999 
-1 9.9999999999999995e-007 1e-010 
body $-1 $6 $-1 $7 #
body $-1 $8 $-1 $9 #
body $-1 $10 $-1 $11 #
body $-1 $12 $-1 $13 #
body $-1 $14 $-1 $15 #
body $-1 $16 $-1 $17 #
lump $-1 $-1 $18 $0 #
transform $-1 1 0 0 0 1 0 0 0 1 72.265388958403264 41.587609883410579 13.13829344249096 1 rotate no_reflect no_shear #
lump $-1 $-1 $19 $1 #
transform $-1 1 0 0 0 1 0 0 0 1 72.265388958403264 41.587609883410579 13.13829344249096 1 rotate no_reflect no_shear #
lump $-1 $-1 $20 $2 #
transform $-1 1 0 0 0 1 0 0 0 1 72.265388958403264 41.587609883410579 13.13829344249096 1 rotate no_reflect no_shear #
lump $-1 $-1 $21 $3 #
transform $-1 1 0 0 0 1 0 0 0 1 72.265388958403264 41.587609883410579 13.13829344249096 1 rotate no_reflect no_shear #
lump $-1 $-1 $22 $4 #
transform $-1 1 0 0 0 1 0 0 0 1 72.265388958403264 41.587609883410579 13.13829344249096 1 rotate no_reflect no_shear #
lump $-1 $-1 $23 $5 #
transform $-1 1 0 0 0 1 0 0 0 1 72.265388958403264 41.587609883410579 13.13829344249096 1 rotate no_reflect no_shear #
shell $-1 $-1 $-1 $24 $-1 $6 #
shell $-1 $-1 $-1 $25 $-1 $8 #
shell $-1 $-1 $-1 $26 $-1 $10 #
shell $-1 $-1 $-1 $27 $-1 $12 #
shell $-1 $-1 $-1 $28 $-1 $14 #
shell $-1 $-1 $-1 $29 $-1 $16 #
face $-1 $30 $31 $18 $-1 $32 forward single #
face $-1 $33 $34 $19 $-1 $35 forward single #
face $-1 $36 $37 $20 $-1 $38 reversed single #
face $-1 $39 $40 $21 $-1 $41 forward single #
face $-1 $42 $43 $22 $-1 $44 reversed single #
face $-1 $45 $46 $23 $-1 $47 forward single #
face $-1 $48 $49 $18 $-1 $50 reversed single #
loop $-1 $-1 $51 $24 #
plane-surface $-1 0 0 13.13829344249096 0 0 1 1 0 0 forward_v I I I I #
face $-1 $52 $53 $19 $-1 $54 reversed single #
loop $-1 $-1 $55 $25 #
plane-surface $-1 0 -41.587609883410579 0 0 1 0 0 0 1 forward_v I I I I #
face $-1 $56 $57 $20 $-1 $58 reversed single #
loop $-1 $-1 $59 $26 #
plane-surface $-1 -61.850279155536548 50.548105913958139 166.51820322866411 1 0 0 0 -0.54463904215088732 -0.83867056331134215 forward_v I I I I #
face $-1 $60 $61 $21 $-1 $62 forward single #
loop $-1 $63 $64 $27 #
cone-surface $-1 -51.595130823765949 28.961394530351505 2.7003785177686641 0 -0.54463904215088732 -0.83867056331134215 4 0 0 1 I I 0 1 4 forward I I I I #
face $-1 $65 $66 $22 $-1 $67 reversed single #
loop $-1 $-1 $68 $28 #
plane-surface $-1 41.339982491995372 50.548105913958139 166.51820322866411 1 0 0 0 -0.54463904215088732 -0.83867056331134215 forward_v I I I I #
face $-1 $69 $70 $23 $-1 $71 forward single #
loop $-1 $72 $73 $29 #
cone-surface $-1 51.59513082376597 28.961394530351505 2.7003785177686641 0 -0.54463904215088732 -0.83867056331134215 4 0 0 1 I I 0 1 4 forward I I I I #
face $-1 $74 $75 $18 $-1 $76 reversed single #
loop $-1 $-1 $77 $30 #
plane-surface $-1 0 0 -13.13829344249096 0 0 1 1 0 0 forward_v I I I I #
coedge $-1 $78 $79 $80 $81 forward $31 $-1 #
face $-1 $82 $83 $19 $-1 $84 reversed single #
loop $-1 $-1 $85 $33 #
plane-surface $-1 0 0 -13.13829344249096 0 0 1 1 0 0 forward_v I I I I #
coedge $-1 $86 $87 $88 $89 forward $34 $-1 #
face $-1 $90 $91 $20 $-1 $92 reversed single #
loop $-1 $-1 $93 $36 #
plane-surface $-1 -51.595130823765949 -28.168998531973983 45.304494297349478 0 0.54463904215088732 0.83867056331134215 1 0 0 forward_v I I I I #
coedge $-1 $94 $95 $96 $97 reversed $37 $-1 #
face $-1 $-1 $98 $21 $-1 $99 forward single #
loop $-1 $100 $101 $39 #
cone-surface $-1 -51.595130823765949 25.358402904298487 -2.847741948760051 0 -0.54463904215088732 -0.83867056331134215 2 0 0 1 I I -0.70710678118654746 0.70710678118654746 2 forward I I I I #
loop $-1 $-1 $102 $27 #
coedge $-1 $64 $64 $103 $104 reversed $40 $-1 #
face $-1 $105 $106 $22 $-1 $107 reversed single #
loop $-1 $-1 $108 $42 #
plane-surface $-1 51.59513082376597 -28.168998531973983 45.304494297349478 0 0.54463904215088732 0.83867056331134215 1 0 0 forward_v I I I I #
coedge $-1 $109 $110 $111 $112 reversed $43 $-1 #
face $-1 $-1 $113 $23 $-1 $114 forward single #
loop $-1 $115 $116 $45 #
cone-surface $-1 51.59513082376597 25.358402904298487 -2.847741948760051 0 -0.54463904215088732 -0.83867056331134215 2 0 0 1 I I -0.70710678118654746 0.70710678118654746 2 forward I I I I #
loop $-1 $-1 $117 $29 #
coedge $-1 $73 $73 $118 $119 reversed $46 $-1 #
face $-1 $120 $121 $18 $-1 $122 reversed single #
loop $-1 $-1 $123 $48 #
plane-surface $-1 0 -41.587609883410579 0 0 1 0 0 0 1 forward_v I I I I #
coedge $-1 $124 $125 $126 $127 forward $49 $-1 #
coedge $-1 $128 $51 $129 $130 forward $31 $-1 #
coedge $-1 $51 $128 $131 $132 forward $31 $-1 #
coedge $-1 $133 $134 $51 $81 reversed $135 $-1 #
edge $-1 $136 -41.587609883410579 $137 41.587609883410579 $80 $138 forward 7 unknown #
face $-1 $139 $140 $19 $-1 $141 forward single #
loop $-1 $-1 $142 $52 #
plane-surface $-1 72.265388958403264 0 0 -1 0 0 0 0 1 forward_v I I I I #
coedge $-1 $143 $144 $145 $146 forward $53 $-1 #
coedge $-1 $145 $55 $142 $147 reversed $34 $-1 #
coedge $-1 $55 $145 $148 $149 reversed $34 $-1 #
coedge $-1 $150 $151 $55 $89 reversed $140 $-1 #
edge $-1 $152 -72.265388958403264 $153 72.265388958403264 $88 $154 forward 7 unknown #
face $-1 $155 $156 $20 $-1 $157 forward single #
loop $-1 $-1 $158 $56 #
plane-surface $-1 -41.33998249199535 50.548105913958139 166.51820322866411 -1 0 0 0 0.54463904215088732 0.83867056331134215 forward_v I I I I #
coedge $-1 $159 $160 $161 $162 reversed $57 $-1 #
coedge $-1 $95 $59 $163 $164 reversed $37 $-1 #
coedge $-1 $59 $94 $159 $165 reversed $37 $-1 #
coedge $-1 $161 $166 $59 $97 forward $156 $-1 #
edge $-1 $167 -16.313556926431509 $168 3.9114466961841288 $96 $169 forward 7 unknown #
loop $-1 $-1 $103 $60 #
plane-surface $-1 -51.595130823765949 -28.168998531973983 45.304494297349478 0 0.54463904215088732 0.83867056331134215 1 0 0 forward_v I I I I #
loop $-1 $-1 $170 $39 #
coedge $-1 $101 $101 $102 $171 reversed $61 $-1 #
coedge $-1 $102 $102 $101 $171 forward $63 $-1 #
coedge $-1 $103 $103 $64 $104 forward $98 $-1 #
edge $-1 $172 1.8401593211017982e-016 $172 6.2831853071796004 $103 $173 forward 7 unknown #
face $-1 $174 $175 $22 $-1 $176 forward single #
loop $-1 $-1 $177 $65 #
plane-surface $-1 61.850279155536569 50.548105913958139 166.51820322866411 -1 0 0 0 0.54463904215088732 0.83867056331134215 forward_v I I I I #
coedge $-1 $178 $179 $180 $181 reversed $66 $-1 #
coedge $-1 $110 $68 $182 $183 reversed $43 $-1 #
coedge $-1 $68 $109 $178 $184 reversed $43 $-1 #
coedge $-1 $180 $185 $68 $112 forward $175 $-1 #
edge $-1 $186 -16.313556926431509 $187 3.9114466961841288 $111 $188 forward 7 unknown #
loop $-1 $-1 $118 $69 #
plane-surface $-1 51.59513082376597 -28.168998531973983 45.304494297349478 0 0.54463904215088732 0.83867056331134215 1 0 0 forward_v I I I I #
loop $-1 $-1 $189 $45 #
coedge $-1 $116 $116 $117 $190 reversed $70 $-1 #
coedge $-1 $117 $117 $116 $190 forward $72 $-1 #
coedge $-1 $118 $118 $73 $119 forward $113 $-1 #
edge $-1 $191 1.8401593211017982e-016 $191 6.2831853071796004 $118 $192 forward 7 unknown #
face $-1 $193 $194 $18 $-1 $195 reversed single #
loop $-1 $-1 $196 $74 #
plane-surface $-1 -72.265388958403264 0 0 1 0 0 0 0 -1 forward_v I I I I #
coedge $-1 $131 $197 $133 $198 reversed $75 $-1 #
coedge $-1 $199 $77 $197 $200 forward $49 $-1 #
coedge $-1 $77 $199 $201 $202 forward $49 $-1 #
coedge $-1 $134 $133 $77 $127 reversed $135 $-1 #
edge $-1 $203 -41.587609883410579 $204 41.587609883410579 $126 $205 forward 7 unknown #
coedge $-1 $79 $78 $206 $207 forward $31 $-1 #
coedge $-1 $208 $209 $78 $130 reversed $194 $-1 #
edge $-1 $137 -72.265388958403264 $210 72.265388958403264 $129 $211 forward 7 unknown #
coedge $-1 $212 $123 $79 $132 reversed $75 $-1 #
edge $-1 $213 -72.265388958403264 $136 72.265388958403264 $131 $214 forward 7 unknown #
coedge $-1 $126 $80 $123 $198 forward $135 $-1 #
coedge $-1 $80 $126 $208 $215 reversed $135 $-1 #
loop $-1 $-1 $133 $193 #
vertex $-1 $81 $216 #
vertex $-1 $81 $217 #
straight-curve $-1 72.265388958403264 0 13.13829344249096 0 1 0 I I #
face $-1 $218 $219 $19 $-1 $220 reversed single #
loop $-1 $-1 $151 $82 #
plane-surface $-1 0 -47.350816708257987 -9.1935576245669939 0 0 1 1 0 0 forward_v I I I I #
coedge $-1 $221 $222 $86 $147 forward $83 $-1 #
coedge $-1 $223 $85 $222 $224 forward $53 $-1 #
coedge $-1 $85 $223 $225 $226 forward $53 $-1 #
coedge $-1 $87 $86 $85 $146 reversed $34 $-1 #
edge $-1 $227 -72.265388958403264 $228 72.265388958403264 $85 $229 forward 7 unknown #
edge $-1 $228 -13.13829344249096 $153 -9.1935576245669939 $142 $230 forward 7 unknown #
coedge $-1 $225 $231 $87 $149 forward $232 $-1 #
edge $-1 $152 9.1935576245669939 $227 13.13829344249096 $148 $233 forward 7 unknown #
coedge $-1 $234 $88 $231 $235 forward $140 $-1 #
coedge $-1 $88 $234 $221 $236 forward $140 $-1 #
vertex $-1 $149 $237 #
vertex $-1 $236 $238 #
straight-curve $-1 0 -41.587609883410579 -9.1935576245669939 1 0 0 I I #
face $-1 $-1 $239 $20 $-1 $240 reversed single #
loop $-1 $-1 $96 $90 #
plane-surface $-1 0 0 13.13829344249096 0 0 1 1 0 0 forward_v I I I I #
coedge $-1 $241 $242 $243 $244 reversed $91 $-1 #
coedge $-1 $245 $93 $95 $165 forward $57 $-1 #
coedge $-1 $93 $245 $241 $246 forward $57 $-1 #
coedge $-1 $243 $96 $93 $162 forward $156 $-1 #
edge $-1 $168 -36.05271374365357 $247 -15.542417080112376 $161 $248 forward 7 unknown #
coedge $-1 $249 $250 $94 $164 forward $239 $-1 #
edge $-1 $251 -83.255079341473589 $167 -70.120808171841091 $163 $252 forward 7 unknown #
edge $-1 $168 59.059667716489486 $251 83.175219766821129 $95 $253 forward 7 unknown #
coedge $-1 $96 $243 $249 $254 forward $156 $-1 #
vertex $-1 $164 $255 #
vertex $-1 $97 $256 #
straight-curve $-1 -61.850279155536548 25.27405295697907 13.138293442490962 0 -1 0 I I #
coedge $-1 $170 $170 $-1 $257 reversed $100 $-1 #
edge $-1 $258 0 $258 6.2831853071796004 $101 $259 forward 7 unknown #
vertex $-1 $104 $260 #
ellipse-curve $-1 -51.595130823765949 31.47510807210276 6.5711578576747129 0 0.54463904215088732 0.83867056331134215 4 0 0 1 I I #
face $-1 $-1 $261 $22 $-1 $262 reversed single #
loop $-1 $-1 $111 $105 #
plane-surface $-1 0 0 13.13829344249096 0 0 1 1 0 0 forward_v I I I I #
coedge $-1 $263 $264 $265 $266 reversed $106 $-1 #
coedge $-1 $267 $108 $110 $184 forward $66 $-1 #
coedge $-1 $108 $267 $263 $268 forward $66 $-1 #
coedge $-1 $265 $111 $108 $181 forward $175 $-1 #
edge $-1 $187 15.542417080112386 $269 36.052713743653584 $180 $270 forward 7 unknown #
coedge $-1 $271 $272 $109 $183 forward $261 $-1 #
edge $-1 $273 -83.255079341473589 $186 -70.120808171841091 $182 $274 forward 7 unknown #
edge $-1 $187 59.059667716489486 $273 83.175219766821129 $110 $275 forward 7 unknown #
coedge $-1 $111 $265 $271 $276 forward $175 $-1 #
vertex $-1 $112 $277 #
vertex $-1 $112 $278 #
straight-curve $-1 41.339982491995372 25.27405295697907 13.138293442490962 0 -1 0 I I #
coedge $-1 $189 $189 $-1 $279 reversed $115 $-1 #
edge $-1 $280 0 $280 6.2831853071796004 $116 $281 forward 7 unknown #
vertex $-1 $119 $282 #
ellipse-curve $-1 51.59513082376597 31.47510807210276 6.5711578576747129 0 0.54463904215088732 0.83867056331134215 4 0 0 1 I I #
face $-1 $-1 $135 $18 $-1 $283 reversed single #
loop $-1 $-1 $208 $120 #
plane-surface $-1 0 41.587609883410579 0 0 -1 0 0 0 -1 forward_v I I I I #
coedge $-1 $284 $206 $209 $285 forward $121 $-1 #
coedge $-1 $123 $212 $124 $200 reversed $75 $-1 #
edge $-1 $136 -13.13829344249096 $204 13.13829344249096 $133 $286 forward 7 unknown #
coedge $-1 $125 $124 $284 $287 forward $49 $-1 #
edge $-1 $204 -72.265388958403264 $288 72.265388958403264 $197 $289 forward 7 unknown #
coedge $-1 $209 $208 $125 $202 reversed $194 $-1 #
edge $-1 $290 -72.265388958403264 $203 72.265388958403264 $201 $291 forward 7 unknown #
vertex $-1 $127 $292 #
vertex $-1 $198 $293 #
straight-curve $-1 72.265388958403264 0 -13.13829344249096 0 -1 0 I I #
coedge $-1 $196 $294 $128 $207 reversed $121 $-1 #
edge $-1 $210 -41.587609883410579 $213 41.587609883410579 $206 $295 forward 7 unknown #
coedge $-1 $201 $129 $134 $215 forward $194 $-1 #
coedge $-1 $129 $201 $196 $285 reversed $194 $-1 #
vertex $-1 $130 $296 #
straight-curve $-1 0 41.587609883410579 13.13829344249096 -1 0 0 I I #
coedge $-1 $197 $131 $294 $297 forward $75 $-1 #
vertex $-1 $207 $298 #
straight-curve $-1 0 -41.587609883410579 13.13829344249096 1 0 0 I I #
edge $-1 $137 -13.13829344249096 $203 13.13829344249096 $134 $299 forward 7 unknown #
point $-1 72.265388958403264 -41.587609883410579 13.13829344249096 #
point $-1 72.265388958403264 41.587609883410579 13.13829344249096 #
face $-1 $-1 $232 $19 $-1 $300 reversed single #
loop $-1 $-1 $301 $139 #
plane-surface $-1 0 -53.114023533105396 -11.165925533528977 0 1 0 0 0 1 forward_v I I I I #
coedge $-1 $302 $142 $151 $236 reversed $83 $-1 #
coedge $-1 $142 $302 $143 $224 reversed $83 $-1 #
coedge $-1 $144 $143 $303 $304 forward $53 $-1 #
edge $-1 $228 41.587609883410579 $305 53.114023533105396 $222 $306 forward 7 unknown #
coedge $-1 $307 $148 $144 $226 reversed $232 $-1 #
edge $-1 $308 -53.114023533105396 $227 -41.587609883410579 $225 $309 forward 7 unknown #
vertex $-1 $149 $310 #
vertex $-1 $224 $311 #
straight-curve $-1 0 -41.587609883410579 -13.13829344249096 1 0 0 I I #
straight-curve $-1 72.265388958403264 -41.587609883410579 0 0 0 1 I I #
coedge $-1 $148 $307 $150 $235 reversed $232 $-1 #
loop $-1 $-1 $148 $218 #
straight-curve $-1 -72.265388958403264 -41.587609883410579 0 0 0 -1 I I #
coedge $-1 $151 $150 $312 $313 forward $140 $-1 #
edge $-1 $152 -5.7632068248474084 $314 5.7632068248474084 $231 $315 forward 7 unknown #
edge $-1 $316 -5.7632068248474084 $153 5.7632068248474084 $221 $317 forward 7 unknown #
point $-1 -72.265388958403264 -41.587609883410579 -9.1935576245669939 #
point $-1 72.265388958403264 -41.587609883410579 -9.1935576245669939 #
loop $-1 $-1 $163 $155 #
plane-surface $-1 0 41.587609883410579 0 0 -1 0 0 0 -1 forward_v I I I I #
coedge $-1 $242 $158 $160 $246 reversed $91 $-1 #
coedge $-1 $158 $241 $318 $319 reversed $91 $-1 #
coedge $-1 $166 $161 $158 $244 forward $156 $-1 #
edge $-1 $247 -3.9114466961841288 $320 16.313556926431509 $243 $321 forward 7 unknown #
coedge $-1 $160 $159 $250 $322 reversed $57 $-1 #
edge $-1 $323 -83.175219766821129 $247 -59.059667716489486 $241 $324 forward 7 unknown #
vertex $-1 $162 $325 #
straight-curve $-1 -25.797565411882974 21.362606260794948 13.138293442490962 1 0 0 I I #
coedge $-1 $318 $163 $166 $254 reversed $239 $-1 #
coedge $-1 $163 $318 $245 $322 forward $239 $-1 #
vertex $-1 $164 $326 #
straight-curve $-1 -61.850279155536548 41.587609883410579 83.259101614332053 0 0 1 I I #
straight-curve $-1 -61.850279155536548 -28.168998531973983 45.304494297349478 0 0.83867056331134215 -0.54463904215088732 I I #
edge $-1 $320 41.33998249199535 $167 61.850279155536548 $249 $327 forward 7 unknown #
point $-1 -61.850279155536548 41.587609883410579 13.13829344249096 #
point $-1 -61.850279155536548 21.362606260794941 13.138293442490962 #
edge $-1 $328 1 $328 0 $170 $-1 forward 7 unknown #
vertex $-1 $171 $329 #
ellipse-curve $-1 -51.595130823765949 26.447680988600261 -1.1704008221373667 0 0.54463904215088732 0.83867056331134215 4 0 0 1 I I #
point $-1 -47.595130823765949 31.475108072102749 6.5711578576746952 #
loop $-1 $-1 $182 $174 #
plane-surface $-1 0 41.587609883410579 0 0 -1 0 0 0 -1 forward_v I I I I #
coedge $-1 $264 $177 $179 $268 reversed $106 $-1 #
coedge $-1 $177 $263 $330 $331 reversed $106 $-1 #
coedge $-1 $185 $180 $177 $266 forward $175 $-1 #
edge $-1 $269 -3.9114466961841288 $332 16.313556926431509 $265 $333 forward 7 unknown #
coedge $-1 $179 $178 $272 $334 reversed $66 $-1 #
edge $-1 $335 -83.175219766821129 $269 -59.059667716489486 $263 $336 forward 7 unknown #
vertex $-1 $181 $337 #
straight-curve $-1 25.797565411882985 21.362606260794948 13.138293442490962 1 0 0 I I #
coedge $-1 $330 $182 $185 $276 reversed $261 $-1 #
coedge $-1 $182 $330 $267 $334 forward $261 $-1 #
vertex $-1 $183 $338 #
straight-curve $-1 41.339982491995372 41.587609883410579 83.259101614332053 0 0 1 I I #
straight-curve $-1 41.339982491995372 -28.168998531973983 45.304494297349478 0 0.83867056331134215 -0.54463904215088732 I I #
edge $-1 $332 -61.850279155536569 $186 -41.339982491995372 $271 $339 forward 7 unknown #
point $-1 41.339982491995372 41.587609883410579 13.13829344249096 #
point $-1 41.339982491995372 21.362606260794941 13.138293442490962 #
edge $-1 $340 1 $340 0 $189 $-1 forward 7 unknown #
vertex $-1 $190 $341 #
ellipse-curve $-1 51.59513082376597 26.447680988600261 -1.1704008221373667 0 0.54463904215088732 0.83867056331134215 4 0 0 1 I I #
point $-1 55.59513082376597 31.475108072102749 6.5711578576746952 #
plane-surface $-1 72.265388958403264 0 0 -1 0 0 0 0 1 forward_v I I I I #
coedge $-1 $294 $196 $199 $287 reversed $121 $-1 #
edge $-1 $210 -13.13829344249096 $290 13.13829344249096 $209 $342 forward 7 unknown #
straight-curve $-1 72.265388958403264 -41.587609883410579 0 0 0 -1 I I #
edge $-1 $288 -41.587609883410579 $290 41.587609883410579 $284 $343 forward 7 unknown #
vertex $-1 $287 $344 #
straight-curve $-1 0 -41.587609883410579 -13.13829344249096 -1 0 0 I I #
vertex $-1 $202 $345 #
straight-curve $-1 0 41.587609883410579 -13.13829344249096 1 0 0 I I #
point $-1 72.265388958403264 41.587609883410579 -13.13829344249096 #
point $-1 72.265388958403264 -41.587609883410579 -13.13829344249096 #
coedge $-1 $206 $284 $212 $297 reversed $121 $-1 #
straight-curve $-1 -72.265388958403264 0 13.13829344249096 0 -1 0 I I #
point $-1 -72.265388958403264 41.587609883410579 13.13829344249096 #
edge $-1 $213 -13.13829344249096 $288 13.13829344249096 $294 $346 forward 7 unknown #
point $-1 -72.265388958403264 -41.587609883410579 13.13829344249096 #
straight-curve $-1 72.265388958403264 41.587609883410579 0 0 0 -1 I I #
plane-surface $-1 -72.265388958403264 0 0 1 0 0 0 0 -1 forward_v I I I I #
coedge $-1 $303 $312 $307 $347 forward $219 $-1 #
coedge $-1 $222 $221 $348 $349 forward $83 $-1 #
coedge $-1 $348 $301 $223 $304 reversed $219 $-1 #
edge $-1 $305 -72.265388958403264 $308 72.265388958403264 $303 $350 forward 7 unknown #
vertex $-1 $349 $351 #
straight-curve $-1 72.265388958403264 0 -13.13829344249096 0 -1 0 I I #
coedge $-1 $231 $225 $301 $347 reversed $232 $-1 #
vertex $-1 $226 $352 #
straight-curve $-1 -72.265388958403264 0 -13.13829344249096 0 1 0 I I #
point $-1 -72.265388958403264 -41.587609883410579 -13.13829344249096 #
point $-1 72.265388958403264 -41.587609883410579 -13.13829344249096 #
coedge $-1 $301 $348 $234 $313 reversed $219 $-1 #
edge $-1 $314 -72.265388958403264 $316 72.265388958403264 $312 $353 forward 7 unknown #
vertex $-1 $235 $354 #
straight-curve $-1 -72.265388958403264 -47.350816708257987 -9.1935576245669939 0 -1 0 I I #
vertex $-1 $236 $355 #
straight-curve $-1 72.265388958403264 -47.350816708257987 -9.1935576245669939 0 1 0 I I #
coedge $-1 $250 $249 $242 $319 forward $239 $-1 #
edge $-1 $320 70.120808171841091 $323 83.255079341473589 $318 $356 forward 7 unknown #
vertex $-1 $254 $357 #
straight-curve $-1 -41.33998249199535 25.27405295697907 13.138293442490962 0 1 0 I I #
edge $-1 $323 15.542417080112376 $251 36.05271374365357 $250 $358 forward 7 unknown #
vertex $-1 $322 $359 #
straight-curve $-1 -41.33998249199535 -28.168998531973983 45.304494297349478 0 -0.83867056331134215 0.54463904215088732 I I #
point $-1 -41.33998249199535 21.362606260794941 13.138293442490962 #
point $-1 -61.850279155536548 41.587609883410579 0.0040222728584708989 #
straight-curve $-1 0 41.587609883410579 13.13829344249096 -1 0 0 I I #
vertex $-1 $257 $360 #
point $-1 -47.595130823765949 26.447680988600261 -1.1704008221373667 #
coedge $-1 $272 $271 $264 $331 forward $261 $-1 #
edge $-1 $332 70.120808171841091 $335 83.255079341473589 $330 $361 forward 7 unknown #
vertex $-1 $276 $362 #
straight-curve $-1 61.850279155536569 25.27405295697907 13.138293442490962 0 1 0 I I #
edge $-1 $335 -36.052713743653584 $273 -15.542417080112386 $272 $363 forward 7 unknown #
vertex $-1 $334 $364 #
straight-curve $-1 61.850279155536569 -28.168998531973983 45.304494297349478 0 -0.83867056331134215 0.54463904215088732 I I #
point $-1 61.850279155536569 21.362606260794941 13.138293442490962 #
point $-1 41.339982491995372 41.587609883410579 0.0040222728584708989 #
straight-curve $-1 0 41.587609883410579 13.13829344249096 -1 0 0 I I #
vertex $-1 $279 $365 #
point $-1 55.59513082376597 26.447680988600261 -1.1704008221373667 #
straight-curve $-1 -72.265388958403264 41.587609883410579 0 0 0 -1 I I #
straight-curve $-1 -72.265388958403264 0 -13.13829344249096 0 1 0 I I #
point $-1 -72.265388958403264 -41.587609883410579 -13.13829344249096 #
point $-1 -72.265388958403264 41.587609883410579 -13.13829344249096 #
straight-curve $-1 -72.265388958403264 -41.587609883410579 0 0 0 -1 I I #
edge $-1 $314 -1.9723679089619832 $308 1.9723679089619832 $307 $366 forward 7 unknown #
coedge $-1 $312 $303 $302 $349 reversed $219 $-1 #
edge $-1 $316 -1.9723679089619832 $305 1.9723679089619832 $302 $367 forward 7 unknown #
straight-curve $-1 0 -53.114023533105396 -13.13829344249096 -1 0 0 I I #
point $-1 72.265388958403264 -53.114023533105396 -13.13829344249096 #
point $-1 -72.265388958403264 -53.114023533105396 -13.13829344249096 #
straight-curve $-1 0 -53.114023533105396 -9.1935576245669939 1 0 0 I I #
point $-1 -72.265388958403264 -53.114023533105396 -9.1935576245669939 #
point $-1 72.265388958403264 -53.114023533105396 -9.1935576245669939 #
straight-curve $-1 -41.33998249199535 41.587609883410579 83.259101614332053 0 0 -1 I I #
point $-1 -41.33998249199535 41.587609883410579 13.13829344249096 #
straight-curve $-1 -25.797565411882974 41.587609883410579 0.0040222728584673462 -1 0 0 I I #
point $-1 -41.33998249199535 41.587609883410579 0.0040222728584708989 #
point $-1 -51.595130823765949 24.269124819996712 -4.5250830753827351 #
straight-curve $-1 61.850279155536569 41.587609883410579 83.259101614332053 0 0 -1 I I #
point $-1 61.850279155536569 41.587609883410579 13.13829344249096 #
straight-curve $-1 25.797565411882985 41.587609883410579 0.0040222728584673462 -1 0 0 I I #
point $-1 61.850279155536569 41.587609883410579 0.0040222728584708989 #
point $-1 51.59513082376597 24.269124819996712 -4.5250830753827351 #
straight-curve $-1 -72.265388958403264 -53.114023533105396 -11.165925533528977 0 0 -1 I I #
straight-curve $-1 72.265388958403264 -53.114023533105396 -11.165925533528977 0 0 -1 I I #
End-of-ACIS-data 