500 0 10 0           
7 Unknown 11 ACIS 5.0 NT 24 Thu Mar 25 23:24:37 1999 
-1 9.9999999999999995e-007 1e-010 
body $-1 $10 $-1 $11 #
body $-1 $12 $-1 $13 #
body $-1 $14 $-1 $15 #
body $-1 $16 $-1 $17 #
body $-1 $18 $-1 $19 #
body $-1 $20 $-1 $21 #
body $-1 $22 $-1 $23 #
body $-1 $24 $-1 $25 #
body $-1 $26 $-1 $27 #
body $-1 $28 $-1 $29 #
lump $-1 $-1 $30 $0 #
transform $-1 1 0 0 0 1 0 0 0 1 51.748405407879879 34.750885411422182 8.4735442445198217 1 rotate no_reflect no_shear #
lump $-1 $-1 $31 $1 #
transform $-1 1 0 0 0 1 0 0 0 1 51.748405407879879 34.750885411422182 8.4735442445198217 1 rotate no_reflect no_shear #
lump $-1 $-1 $32 $2 #
transform $-1 1 0 0 0 1 0 0 0 1 51.748405407879879 34.750885411422182 8.4735442445198217 1 rotate no_reflect no_shear #
lump $-1 $-1 $33 $3 #
transform $-1 1 0 0 0 1 0 0 0 1 51.748405407879879 34.750885411422182 8.4735442445198217 1 rotate no_reflect no_shear #
lump $-1 $-1 $34 $4 #
transform $-1 1 0 0 0 1 0 0 0 1 51.748405407879879 34.750885411422182 8.4735442445198217 1 rotate no_reflect no_shear #
lump $-1 $-1 $35 $5 #
transform $-1 1 0 0 0 1 0 0 0 1 51.748405407879879 34.750885411422182 8.4735442445198217 1 rotate no_reflect no_shear #
lump $-1 $-1 $36 $6 #
transform $-1 1 0 0 0 1 0 0 0 1 51.748405407879879 34.750885411422182 8.4735442445198217 1 rotate no_reflect no_shear #
lump $-1 $-1 $37 $7 #
transform $-1 1 0 0 0 1 0 0 0 1 51.748405407879879 34.750885411422182 8.4735442445198217 1 rotate no_reflect no_shear #
lump $-1 $-1 $38 $8 #
transform $-1 1 0 0 0 1 0 0 0 1 51.748405407879879 34.750885411422182 8.4735442445198217 1 rotate no_reflect no_shear #
lump $-1 $-1 $39 $9 #
transform $-1 1 0 0 0 1 0 0 0 1 51.748405407879879 34.750885411422182 8.4735442445198217 1 rotate no_reflect no_shear #
shell $-1 $-1 $-1 $40 $-1 $10 #
shell $-1 $-1 $-1 $41 $-1 $12 #
shell $-1 $-1 $-1 $42 $-1 $14 #
shell $-1 $-1 $-1 $43 $-1 $16 #
shell $-1 $-1 $-1 $44 $-1 $18 #
shell $-1 $-1 $-1 $45 $-1 $20 #
shell $-1 $-1 $-1 $46 $-1 $22 #
shell $-1 $-1 $-1 $47 $-1 $24 #
shell $-1 $-1 $-1 $48 $-1 $26 #
shell $-1 $-1 $-1 $49 $-1 $28 #
face $-1 $50 $51 $30 $-1 $52 forward single #
face $-1 $53 $54 $31 $-1 $55 reversed single #
face $-1 $56 $57 $32 $-1 $58 reversed single #
face $-1 $59 $60 $33 $-1 $61 forward single #
face $-1 $62 $63 $34 $-1 $64 forward single #
face $-1 $65 $66 $35 $-1 $67 forward single #
face $-1 $68 $69 $36 $-1 $70 reversed single #
face $-1 $71 $72 $37 $-1 $73 forward single #
face $-1 $74 $75 $38 $-1 $76 forward single #
face $-1 $77 $78 $39 $-1 $79 forward single #
face $-1 $80 $81 $30 $-1 $82 reversed single #
loop $-1 $-1 $83 $40 #
plane-surface $-1 0 0 8.4735442445198217 0 0 1 1 0 0 forward_v I I I I #
face $-1 $84 $85 $31 $-1 $86 reversed single #
loop $-1 $-1 $87 $41 #
plane-surface $-1 -47.024094818131545 0 5.4735442445198217 0 0 1 1 0 0 forward_v I I I I #
face $-1 $88 $89 $32 $-1 $90 reversed single #
loop $-1 $-1 $91 $42 #
plane-surface $-1 44.287149529436697 -34.750885411422175 2.4134576630397078 0 -0.62932039886446345 0.77714595512881146 1 0 0 forward_v I I I I #
face $-1 $92 $93 $33 $-1 $94 forward single #
loop $-1 $95 $96 $43 #
cone-surface $-1 39.810396002370787 -30.01941255818172 4.2213466196085694 0 0.62932039886446345 -0.77714595512881146 1 0 0 1 I I 0 1 1 forward I I I I #
face $-1 $97 $98 $34 $-1 $99 forward single #
loop $-1 $100 $101 $44 #
cone-surface $-1 44.287149529436697 -30.01941255818172 4.2213466196085694 0 0.62932039886446345 -0.77714595512881146 1 0 0 1 I I 0 1 1 forward I I I I #
face $-1 $102 $103 $35 $-1 $104 forward single #
loop $-1 $105 $106 $45 #
cone-surface $-1 48.763903056502606 -30.01941255818172 4.2213466196085694 0 0.62932039886446345 -0.77714595512881146 1 0 0 1 I I 0 1 1 forward I I I I #
face $-1 $107 $108 $36 $-1 $109 reversed single #
loop $-1 $-1 $110 $46 #
plane-surface $-1 44.287149529436697 -19.262134657840967 46.152339799058666 0 0.62932039886446345 0.77714595512881146 1 0 0 forward_v I I I I #
face $-1 $111 $112 $37 $-1 $113 forward single #
loop $-1 $114 $115 $47 #
cone-surface $-1 39.810396002370787 30.01941255818172 4.2213466196085765 0 -0.62932039886446345 -0.77714595512881146 1 0 0 1 I I 0 1 1 forward I I I I #
face $-1 $116 $117 $38 $-1 $118 forward single #
loop $-1 $119 $120 $48 #
cone-surface $-1 44.287149529436697 30.01941255818172 4.2213466196085765 0 -0.62932039886446345 -0.77714595512881146 1 0 0 1 I I 0 1 1 forward I I I I #
face $-1 $121 $122 $39 $-1 $123 forward single #
loop $-1 $124 $125 $49 #
cone-surface $-1 48.763903056502606 30.01941255818172 4.2213466196085765 0 -0.62932039886446345 -0.77714595512881146 1 0 0 1 I I 0 1 1 forward I I I I #
face $-1 $126 $127 $30 $-1 $128 reversed single #
loop $-1 $-1 $129 $50 #
plane-surface $-1 0 0 -8.4735442445198217 0 0 1 1 0 0 forward_v I I I I #
coedge $-1 $130 $131 $132 $133 forward $51 $-1 #
face $-1 $134 $135 $31 $-1 $136 reversed single #
loop $-1 $-1 $137 $53 #
plane-surface $-1 -42.29978422838321 0 6.9735442445198217 -1 0 0 0 0 1 forward_v I I I I #
coedge $-1 $138 $139 $140 $141 forward $54 $-1 #
face $-1 $142 $143 $32 $-1 $144 reversed single #
loop $-1 $-1 $145 $56 #
plane-surface $-1 36.825893650993514 -99.883539675196033 82.845585557239247 1 0 0 0 0.62932039886446345 -0.77714595512881146 forward_v I I I I #
coedge $-1 $146 $147 $148 $149 reversed $57 $-1 #
face $-1 $-1 $150 $33 $-1 $151 forward single #
loop $-1 $152 $153 $59 #
cone-surface $-1 39.810396002370787 -28.715071272489354 2.610619307872966 0 0.62932039886446345 -0.77714595512881146 0.5 0 0 1 I I -0.70710678118654746 0.70710678118654746 0.5 forward I I I I #
loop $-1 $-1 $154 $43 #
coedge $-1 $96 $96 $155 $156 reversed $60 $-1 #
face $-1 $-1 $157 $34 $-1 $158 forward single #
loop $-1 $159 $160 $62 #
cone-surface $-1 44.287149529436697 -28.715071272489354 2.610619307872966 0 0.62932039886446345 -0.77714595512881146 0.5 0 0 1 I I -0.70710678118654746 0.70710678118654746 0.5 forward I I I I #
loop $-1 $-1 $161 $44 #
coedge $-1 $101 $101 $162 $163 reversed $63 $-1 #
face $-1 $-1 $164 $35 $-1 $165 forward single #
loop $-1 $166 $167 $65 #
cone-surface $-1 48.763903056502606 -28.715071272489354 2.610619307872966 0 0.62932039886446345 -0.77714595512881146 0.5 0 0 1 I I -0.70710678118654746 0.70710678118654746 0.5 forward I I I I #
loop $-1 $-1 $168 $45 #
coedge $-1 $106 $106 $169 $170 reversed $66 $-1 #
face $-1 $171 $172 $36 $-1 $173 forward single #
loop $-1 $-1 $174 $68 #
plane-surface $-1 36.825893650993514 45.870519605932891 126.5844676932582 1 0 0 0 -0.62932039886446345 -0.77714595512881146 forward_v I I I I #
coedge $-1 $175 $176 $177 $178 reversed $69 $-1 #
face $-1 $-1 $179 $37 $-1 $180 forward single #
loop $-1 $181 $182 $71 #
cone-surface $-1 39.810396002370787 28.715071272489354 2.6106193078729731 0 -0.62932039886446345 -0.77714595512881146 0.5 0 0 1 I I -0.70710678118654746 0.70710678118654746 0.5 forward I I I I #
loop $-1 $-1 $183 $47 #
coedge $-1 $115 $115 $184 $185 reversed $72 $-1 #
face $-1 $-1 $186 $38 $-1 $187 forward single #
loop $-1 $188 $189 $74 #
cone-surface $-1 44.287149529436697 28.715071272489354 2.6106193078729731 0 -0.62932039886446345 -0.77714595512881146 0.5 0 0 1 I I -0.70710678118654746 0.70710678118654746 0.5 forward I I I I #
loop $-1 $-1 $190 $48 #
coedge $-1 $120 $120 $191 $192 reversed $75 $-1 #
face $-1 $-1 $193 $39 $-1 $194 forward single #
loop $-1 $195 $196 $77 #
cone-surface $-1 48.763903056502606 28.715071272489354 2.6106193078729731 0 -0.62932039886446345 -0.77714595512881146 0.5 0 0 1 I I -0.70710678118654746 0.70710678118654746 0.5 forward I I I I #
loop $-1 $-1 $197 $49 #
coedge $-1 $125 $125 $198 $199 reversed $78 $-1 #
face $-1 $200 $201 $30 $-1 $202 reversed single #
loop $-1 $-1 $203 $80 #
plane-surface $-1 0 -34.750885411422182 0 0 1 0 0 0 1 forward_v I I I I #
coedge $-1 $204 $205 $206 $207 forward $81 $-1 #
coedge $-1 $208 $83 $209 $210 forward $51 $-1 #
coedge $-1 $83 $208 $211 $212 forward $51 $-1 #
coedge $-1 $213 $214 $83 $133 reversed $215 $-1 #
edge $-1 $216 -34.750885411422182 $217 34.750885411422182 $132 $218 forward 7 unknown #
face $-1 $219 $220 $31 $-1 $221 reversed single #
loop $-1 $-1 $222 $84 #
plane-surface $-1 0 34.750885411422182 0 0 -1 0 0 0 -1 forward_v I I I I #
coedge $-1 $140 $223 $224 $225 reversed $85 $-1 #
coedge $-1 $226 $87 $227 $228 reversed $54 $-1 #
coedge $-1 $87 $226 $229 $230 reversed $54 $-1 #
coedge $-1 $231 $137 $87 $141 reversed $85 $-1 #
edge $-1 $232 -34.750885411422182 $233 34.750885411422182 $140 $234 forward 7 unknown #
face $-1 $235 $236 $32 $-1 $237 forward single #
loop $-1 $-1 $238 $88 #
plane-surface $-1 51.748405407879879 0 0 -1 0 0 0 0 1 forward_v I I I I #
coedge $-1 $239 $240 $241 $242 reversed $89 $-1 #
coedge $-1 $243 $91 $238 $244 reversed $57 $-1 #
coedge $-1 $91 $243 $239 $245 forward $57 $-1 #
coedge $-1 $241 $246 $91 $149 forward $236 $-1 #
edge $-1 $247 -29.604830643161531 $248 -14.682318886275166 $148 $249 forward 7 unknown #
loop $-1 $-1 $155 $92 #
plane-surface $-1 44.287149529436697 -34.750885411422175 2.4134576630397078 0 -0.62932039886446345 0.77714595512881146 1 0 0 forward_v I I I I #
loop $-1 $-1 $250 $59 #
coedge $-1 $153 $153 $154 $251 reversed $93 $-1 #
coedge $-1 $154 $154 $153 $251 forward $95 $-1 #
coedge $-1 $155 $155 $96 $156 forward $150 $-1 #
edge $-1 $252 2.8285109082743077e-015 $252 6.2831853071796031 $155 $253 forward 7 unknown #
loop $-1 $-1 $162 $97 #
plane-surface $-1 44.287149529436697 -34.750885411422175 2.4134576630397078 0 -0.62932039886446345 0.77714595512881146 1 0 0 forward_v I I I I #
loop $-1 $-1 $254 $62 #
coedge $-1 $160 $160 $161 $255 reversed $98 $-1 #
coedge $-1 $161 $161 $160 $255 forward $100 $-1 #
coedge $-1 $162 $162 $101 $163 forward $157 $-1 #
edge $-1 $256 2.8285109082743077e-015 $256 6.2831853071796031 $162 $257 forward 7 unknown #
loop $-1 $-1 $169 $102 #
plane-surface $-1 44.287149529436697 -34.750885411422175 2.4134576630397078 0 -0.62932039886446345 0.77714595512881146 1 0 0 forward_v I I I I #
loop $-1 $-1 $258 $65 #
coedge $-1 $167 $167 $168 $259 reversed $103 $-1 #
coedge $-1 $168 $168 $167 $259 forward $105 $-1 #
coedge $-1 $169 $169 $106 $170 forward $164 $-1 #
edge $-1 $260 2.8285109082743077e-015 $260 6.2831853071796031 $169 $261 forward 7 unknown #
face $-1 $262 $263 $36 $-1 $264 reversed single #
loop $-1 $-1 $265 $107 #
plane-surface $-1 0 0 8.4735442445198217 0 0 1 1 0 0 forward_v I I I I #
coedge $-1 $266 $267 $268 $269 reversed $108 $-1 #
coedge $-1 $270 $110 $271 $272 reversed $69 $-1 #
coedge $-1 $110 $270 $266 $273 forward $69 $-1 #
coedge $-1 $268 $274 $110 $178 forward $275 $-1 #
edge $-1 $276 -29.604830643161531 $277 -14.682318886275166 $177 $278 forward 7 unknown #
loop $-1 $-1 $184 $111 #
plane-surface $-1 44.287149529436697 -19.262134657840967 46.152339799058666 0 0.62932039886446345 0.77714595512881146 1 0 0 forward_v I I I I #
loop $-1 $-1 $279 $71 #
coedge $-1 $182 $182 $183 $280 reversed $112 $-1 #
coedge $-1 $183 $183 $182 $280 forward $114 $-1 #
coedge $-1 $184 $184 $115 $185 forward $179 $-1 #
edge $-1 $281 -2.2020282678621171e-015 $281 6.2831853071795987 $184 $282 forward 7 unknown #
loop $-1 $-1 $191 $116 #
plane-surface $-1 44.287149529436697 -19.262134657840967 46.152339799058666 0 0.62932039886446345 0.77714595512881146 1 0 0 forward_v I I I I #
loop $-1 $-1 $283 $74 #
coedge $-1 $189 $189 $190 $284 reversed $117 $-1 #
coedge $-1 $190 $190 $189 $284 forward $119 $-1 #
coedge $-1 $191 $191 $120 $192 forward $186 $-1 #
edge $-1 $285 -2.2020282678621171e-015 $285 6.2831853071795987 $191 $286 forward 7 unknown #
loop $-1 $-1 $198 $121 #
plane-surface $-1 44.287149529436697 -19.262134657840967 46.152339799058666 0 0.62932039886446345 0.77714595512881146 1 0 0 forward_v I I I I #
loop $-1 $-1 $287 $77 #
coedge $-1 $196 $196 $197 $288 reversed $122 $-1 #
coedge $-1 $197 $197 $196 $288 forward $124 $-1 #
coedge $-1 $198 $198 $125 $199 forward $193 $-1 #
edge $-1 $289 -2.2020282678621171e-015 $289 6.2831853071795987 $198 $290 forward 7 unknown #
face $-1 $291 $292 $30 $-1 $293 reversed single #
loop $-1 $-1 $294 $126 #
plane-surface $-1 -51.748405407879879 0 0 1 0 0 0 0 -1 forward_v I I I I #
coedge $-1 $295 $211 $296 $297 forward $127 $-1 #
coedge $-1 $298 $129 $295 $299 forward $81 $-1 #
coedge $-1 $129 $298 $300 $301 forward $81 $-1 #
coedge $-1 $214 $213 $129 $207 reversed $215 $-1 #
edge $-1 $302 -34.750885411422182 $303 34.750885411422182 $206 $304 forward 7 unknown #
coedge $-1 $131 $130 $305 $306 forward $51 $-1 #
coedge $-1 $307 $308 $130 $210 reversed $292 $-1 #
edge $-1 $217 -51.748405407879879 $309 51.748405407879879 $209 $310 forward 7 unknown #
coedge $-1 $203 $311 $131 $212 reversed $127 $-1 #
edge $-1 $312 -51.748405407879879 $216 51.748405407879879 $211 $313 forward 7 unknown #
coedge $-1 $206 $132 $311 $314 forward $215 $-1 #
coedge $-1 $132 $206 $307 $315 reversed $215 $-1 #
loop $-1 $-1 $213 $291 #
vertex $-1 $133 $316 #
vertex $-1 $133 $317 #
straight-curve $-1 51.748405407879879 0 8.4735442445198217 0 1 0 I I #
face $-1 $318 $319 $31 $-1 $320 forward single #
loop $-1 $-1 $321 $134 #
plane-surface $-1 -51.748405407879879 0 0 1 0 0 0 0 -1 forward_v I I I I #
coedge $-1 $229 $322 $231 $323 forward $135 $-1 #
coedge $-1 $137 $231 $324 $325 reversed $85 $-1 #
coedge $-1 $326 $227 $137 $225 forward $327 $-1 #
edge $-1 $233 1.9867721222599108 $328 4.9867721222599108 $224 $329 forward 7 unknown #
coedge $-1 $139 $138 $321 $330 reversed $54 $-1 #
coedge $-1 $224 $331 $138 $228 forward $327 $-1 #
edge $-1 $332 -28.236357998814107 $233 -18.787736819317438 $227 $333 forward 7 unknown #
coedge $-1 $334 $222 $139 $230 forward $135 $-1 #
edge $-1 $232 18.787736819317438 $335 28.236357998814107 $229 $336 forward 7 unknown #
coedge $-1 $223 $140 $222 $323 reversed $85 $-1 #
vertex $-1 $230 $337 #
vertex $-1 $228 $338 #
straight-curve $-1 -42.29978422838321 0 5.4735442445198217 0 -1 0 I I #
face $-1 $-1 $339 $32 $-1 $340 reversed single #
loop $-1 $-1 $148 $142 #
plane-surface $-1 0 0 8.4735442445198217 0 0 1 1 0 0 forward_v I I I I #
coedge $-1 $341 $342 $146 $244 forward $143 $-1 #
coedge $-1 $240 $145 $147 $245 reversed $89 $-1 #
coedge $-1 $145 $239 $343 $344 reversed $89 $-1 #
coedge $-1 $345 $148 $145 $242 forward $236 $-1 #
edge $-1 $248 -22.674467960136507 $346 -15.190884426175835 $241 $347 forward 7 unknown #
coedge $-1 $147 $146 $348 $349 reversed $57 $-1 #
edge $-1 $350 -12.743835947742468 $247 -3.1142631698461032 $238 $351 forward 7 unknown #
edge $-1 $352 -9.1551213131864128e-015 $248 9.6295727778963567 $239 $353 forward 7 unknown #
coedge $-1 $148 $345 $341 $354 forward $236 $-1 #
vertex $-1 $149 $355 #
vertex $-1 $149 $356 #
straight-curve $-1 22.143574764718348 -27.267301877461513 8.4735442445198217 -1 0 0 I I #
coedge $-1 $250 $250 $-1 $357 reversed $152 $-1 #
edge $-1 $358 0 $358 6.2831853071796004 $153 $359 forward 7 unknown #
vertex $-1 $156 $360 #
ellipse-curve $-1 39.810396002370787 -31.009093644441847 5.4435009537797594 0 -0.62932039886446345 0.77714595512881146 1 0 0 1 I I #
coedge $-1 $254 $254 $-1 $361 reversed $159 $-1 #
edge $-1 $362 0 $362 6.2831853071796004 $160 $363 forward 7 unknown #
vertex $-1 $163 $364 #
ellipse-curve $-1 44.287149529436697 -31.009093644441847 5.4435009537797594 0 -0.62932039886446345 0.77714595512881146 1 0 0 1 I I #
coedge $-1 $258 $258 $-1 $365 reversed $166 $-1 #
edge $-1 $366 0 $366 6.2831853071796004 $167 $367 forward 7 unknown #
vertex $-1 $170 $368 #
ellipse-curve $-1 48.763903056502606 -31.009093644441847 5.4435009537797594 0 -0.62932039886446345 0.77714595512881146 1 0 0 1 I I #
face $-1 $-1 $275 $36 $-1 $369 reversed single #
loop $-1 $-1 $271 $171 #
plane-surface $-1 51.748405407879879 0 0 -1 0 0 0 0 1 forward_v I I I I #
coedge $-1 $370 $371 $267 $372 forward $172 $-1 #
coedge $-1 $267 $174 $176 $273 reversed $108 $-1 #
coedge $-1 $174 $266 $265 $372 reversed $108 $-1 #
coedge $-1 $373 $177 $174 $269 forward $275 $-1 #
edge $-1 $277 -60.87877618358938 $374 -54.818689602109281 $268 $375 forward 7 unknown #
coedge $-1 $176 $175 $370 $376 reversed $69 $-1 #
coedge $-1 $377 $378 $175 $272 forward $263 $-1 #
edge $-1 $379 37.865148581268315 $276 47.494721359164643 $271 $380 forward 7 unknown #
edge $-1 $381 59.872198044948036 $277 69.501770822844364 $266 $382 forward 7 unknown #
coedge $-1 $177 $373 $377 $383 forward $275 $-1 #
loop $-1 $-1 $268 $262 #
vertex $-1 $272 $384 #
vertex $-1 $178 $385 #
straight-curve $-1 22.143574764718348 34.750885411422175 2.4134576630397184 -1 0 0 I I #
coedge $-1 $279 $279 $-1 $386 reversed $181 $-1 #
edge $-1 $387 0 $387 6.2831853071796004 $182 $388 forward 7 unknown #
vertex $-1 $185 $389 #
ellipse-curve $-1 39.810396002370787 31.009093644441855 5.4435009537797763 0 0.62932039886446345 0.77714595512881146 1 0 0 1 I I #
coedge $-1 $283 $283 $-1 $390 reversed $188 $-1 #
edge $-1 $391 0 $391 6.2831853071796004 $189 $392 forward 7 unknown #
vertex $-1 $192 $393 #
ellipse-curve $-1 44.287149529436697 31.009093644441855 5.4435009537797763 0 0.62932039886446345 0.77714595512881146 1 0 0 1 I I #
coedge $-1 $287 $287 $-1 $394 reversed $195 $-1 #
edge $-1 $395 0 $395 6.2831853071796004 $196 $396 forward 7 unknown #
vertex $-1 $199 $397 #
ellipse-curve $-1 48.763903056502606 31.009093644441855 5.4435009537797763 0 0.62932039886446345 0.77714595512881146 1 0 0 1 I I #
face $-1 $-1 $215 $30 $-1 $398 reversed single #
loop $-1 $-1 $307 $200 #
plane-surface $-1 0 34.750885411422182 0 0 -1 0 0 0 -1 forward_v I I I I #
coedge $-1 $399 $305 $308 $400 forward $201 $-1 #
coedge $-1 $311 $203 $204 $299 reversed $127 $-1 #
coedge $-1 $305 $399 $203 $297 reversed $201 $-1 #
edge $-1 $312 -8.4735442445198217 $401 8.4735442445198217 $296 $402 forward 7 unknown #
coedge $-1 $205 $204 $399 $403 forward $81 $-1 #
edge $-1 $303 -51.748405407879879 $401 51.748405407879879 $295 $404 forward 7 unknown #
coedge $-1 $308 $307 $205 $301 reversed $292 $-1 #
edge $-1 $405 -51.748405407879879 $302 51.748405407879879 $300 $406 forward 7 unknown #
vertex $-1 $207 $407 #
vertex $-1 $314 $408 #
straight-curve $-1 51.748405407879879 0 -8.4735442445198217 0 -1 0 I I #
coedge $-1 $294 $296 $208 $306 reversed $201 $-1 #
edge $-1 $309 -34.750885411422182 $312 34.750885411422182 $305 $409 forward 7 unknown #
coedge $-1 $300 $209 $214 $315 forward $292 $-1 #
coedge $-1 $209 $300 $294 $400 reversed $292 $-1 #
vertex $-1 $210 $410 #
straight-curve $-1 0 34.750885411422182 8.4735442445198217 -1 0 0 I I #
coedge $-1 $211 $295 $213 $314 reversed $127 $-1 #
vertex $-1 $306 $411 #
straight-curve $-1 0 -34.750885411422182 8.4735442445198217 1 0 0 I I #
edge $-1 $216 -8.4735442445198217 $303 8.4735442445198217 $213 $412 forward 7 unknown #
edge $-1 $217 -8.4735442445198217 $302 8.4735442445198217 $214 $413 forward 7 unknown #
point $-1 51.748405407879879 -34.750885411422182 8.4735442445198217 #
point $-1 51.748405407879879 34.750885411422182 8.4735442445198217 #
face $-1 $-1 $327 $31 $-1 $414 reversed single #
loop $-1 $-1 $324 $219 #
plane-surface $-1 0 0 8.4735442445198217 0 0 1 1 0 0 forward_v I I I I #
coedge $-1 $415 $416 $226 $330 forward $220 $-1 #
coedge $-1 $222 $334 $417 $418 reversed $135 $-1 #
edge $-1 $419 -4.9867721222599108 $232 -1.9867721222599108 $222 $420 forward 7 unknown #
coedge $-1 $417 $421 $223 $325 forward $319 $-1 #
edge $-1 $328 -34.750885411422182 $419 34.750885411422182 $324 $422 forward 7 unknown #
coedge $-1 $331 $224 $421 $423 reversed $327 $-1 #
loop $-1 $-1 $224 $318 #
vertex $-1 $225 $424 #
straight-curve $-1 -42.29978422838321 -34.750885411422182 3.4867721222599108 0 0 1 I I #
edge $-1 $335 -34.750885411422182 $332 34.750885411422182 $321 $425 forward 7 unknown #
coedge $-1 $227 $326 $415 $426 forward $327 $-1 #
vertex $-1 $330 $427 #
straight-curve $-1 -23.512047409065772 -34.750885411422182 5.4735442445198217 1 0 0 I I #
coedge $-1 $322 $229 $416 $428 reversed $135 $-1 #
vertex $-1 $330 $429 #
straight-curve $-1 -23.512047409065772 34.750885411422182 5.4735442445198217 -1 0 0 I I #
point $-1 -42.29978422838321 34.750885411422182 5.4735442445198217 #
point $-1 -42.29978422838321 -34.750885411422182 5.4735442445198217 #
loop $-1 $-1 $348 $235 #
plane-surface $-1 0 -34.750885411422182 0 0 1 0 0 0 1 forward_v I I I I #
coedge $-1 $342 $238 $246 $354 reversed $143 $-1 #
coedge $-1 $238 $341 $430 $431 forward $143 $-1 #
coedge $-1 $348 $432 $240 $344 forward $339 $-1 #
edge $-1 $346 32.949248534099802 $352 39.009335115579923 $343 $433 forward 7 unknown #
coedge $-1 $246 $241 $432 $434 forward $236 $-1 #
vertex $-1 $434 $435 #
straight-curve $-1 36.825893650993514 -49.941769837598017 8.4735442445198217 0 -1 0 I I #
coedge $-1 $430 $343 $243 $349 forward $339 $-1 #
edge $-1 $352 14.682318886275166 $350 29.604830643161531 $348 $436 forward 7 unknown #
vertex $-1 $349 $437 #
straight-curve $-1 51.748405407879879 -24.84706485180898 10.433413584736281 0 0.77714595512881146 0.62932039886446345 I I #
vertex $-1 $349 $438 #
straight-curve $-1 36.825893650993514 -34.750885411422175 2.4134576630397078 0 0.77714595512881146 0.62932039886446345 I I #
edge $-1 $439 -34.750885411422182 $247 -27.267301877461509 $341 $440 forward 7 unknown #
point $-1 51.748405407879879 -27.267301877461509 8.4735442445198217 #
point $-1 36.825893650993514 -27.267301877461509 8.4735442445198217 #
edge $-1 $441 1 $441 0 $250 $-1 forward 7 unknown #
vertex $-1 $251 $442 #
ellipse-curve $-1 39.810396002370787 -29.029731471921586 2.9991922854373718 0 -0.62932039886446345 0.77714595512881146 1 0 0 1 I I #
point $-1 40.810396002370787 -31.009093644441851 5.4435009537797683 #
edge $-1 $443 1 $443 0 $254 $-1 forward 7 unknown #
vertex $-1 $255 $444 #
ellipse-curve $-1 44.287149529436697 -29.029731471921586 2.9991922854373718 0 -0.62932039886446345 0.77714595512881146 1 0 0 1 I I #
point $-1 45.287149529436697 -31.009093644441851 5.4435009537797683 #
edge $-1 $445 1 $445 0 $258 $-1 forward 7 unknown #
vertex $-1 $259 $446 #
ellipse-curve $-1 48.763903056502606 -29.029731471921586 2.9991922854373718 0 -0.62932039886446345 0.77714595512881146 1 0 0 1 I I #
point $-1 49.763903056502606 -31.009093644441851 5.4435009537797683 #
plane-surface $-1 0 34.750885411422182 0 0 -1 0 0 0 -1 forward_v I I I I #
coedge $-1 $447 $265 $270 $376 forward $172 $-1 #
coedge $-1 $265 $447 $373 $448 forward $172 $-1 #
edge $-1 $374 -11.815625608455736 $381 -4.3320420744950887 $265 $449 forward 7 unknown #
coedge $-1 $274 $268 $371 $448 reversed $275 $-1 #
vertex $-1 $372 $450 #
straight-curve $-1 36.825893650993514 34.750885411422182 63.292233846629102 0 0 1 I I #
edge $-1 $381 14.682318886275166 $379 29.604830643161531 $370 $451 forward 7 unknown #
coedge $-1 $378 $271 $274 $383 reversed $263 $-1 #
coedge $-1 $271 $377 $447 $452 reversed $263 $-1 #
vertex $-1 $452 $453 #
straight-curve $-1 51.748405407879879 -2.1594451828225898 32.302854652745765 0 0.77714595512881146 -0.62932039886446345 I I #
vertex $-1 $376 $454 #
straight-curve $-1 36.825893650993514 -19.262134657840967 46.152339799058666 0 0.77714595512881146 -0.62932039886446345 I I #
edge $-1 $455 -8.4735442445198217 $276 -2.4134576630397109 $377 $456 forward 7 unknown #
point $-1 51.748405407879879 34.750885411422182 2.4134576630397109 #
point $-1 36.825893650993514 34.750885411422175 2.413457663039722 #
edge $-1 $457 1 $457 0 $279 $-1 forward 7 unknown #
vertex $-1 $280 $458 #
ellipse-curve $-1 39.810396002370787 29.029731471921586 2.9991922854373789 0 0.62932039886446345 0.77714595512881146 1 0 0 1 I I #
point $-1 40.810396002370787 31.009093644441851 5.4435009537797754 #
edge $-1 $459 1 $459 0 $283 $-1 forward 7 unknown #
vertex $-1 $284 $460 #
ellipse-curve $-1 44.287149529436697 29.029731471921586 2.9991922854373789 0 0.62932039886446345 0.77714595512881146 1 0 0 1 I I #
point $-1 45.287149529436697 31.009093644441851 5.4435009537797754 #
edge $-1 $461 1 $461 0 $287 $-1 forward 7 unknown #
vertex $-1 $288 $462 #
ellipse-curve $-1 48.763903056502606 29.029731471921586 2.9991922854373789 0 0.62932039886446345 0.77714595512881146 1 0 0 1 I I #
point $-1 49.763903056502606 31.009093644441851 5.4435009537797754 #
plane-surface $-1 51.748405407879879 0 0 -1 0 0 0 0 1 forward_v I I I I #
coedge $-1 $296 $294 $298 $403 reversed $201 $-1 #
edge $-1 $309 -8.4735442445198217 $405 8.4735442445198217 $308 $463 forward 7 unknown #
vertex $-1 $403 $464 #
straight-curve $-1 -51.748405407879879 -34.750885411422182 0 0 0 -1 I I #
edge $-1 $401 -34.750885411422182 $405 34.750885411422182 $399 $465 forward 7 unknown #
straight-curve $-1 0 -34.750885411422182 -8.4735442445198217 -1 0 0 I I #
vertex $-1 $301 $466 #
straight-curve $-1 0 34.750885411422182 -8.4735442445198217 1 0 0 I I #
point $-1 51.748405407879879 34.750885411422182 -8.4735442445198217 #
point $-1 51.748405407879879 -34.750885411422182 -8.4735442445198217 #
straight-curve $-1 -51.748405407879879 0 8.4735442445198217 0 -1 0 I I #
point $-1 -51.748405407879879 34.750885411422182 8.4735442445198217 #
point $-1 -51.748405407879879 -34.750885411422182 8.4735442445198217 #
straight-curve $-1 51.748405407879879 -34.750885411422182 0 0 0 -1 I I #
straight-curve $-1 51.748405407879879 34.750885411422182 0 0 0 -1 I I #
plane-surface $-1 0 -34.750885411422182 0 0 1 0 0 0 1 forward_v I I I I #
coedge $-1 $467 $321 $331 $426 reversed $220 $-1 #
coedge $-1 $321 $467 $334 $428 forward $220 $-1 #
coedge $-1 $468 $324 $322 $418 forward $319 $-1 #
edge $-1 $419 42.29978422838321 $469 51.748405407879879 $322 $470 forward 7 unknown #
vertex $-1 $418 $471 #
straight-curve $-1 -42.29978422838321 34.750885411422182 3.4867721222599108 0 0 -1 I I #
coedge $-1 $324 $468 $326 $423 forward $319 $-1 #
straight-curve $-1 -42.29978422838321 0 8.4735442445198217 0 1 0 I I #
edge $-1 $472 -51.748405407879879 $328 -42.29978422838321 $326 $473 forward 7 unknown #
point $-1 -42.29978422838321 -34.750885411422182 8.4735442445198217 #
straight-curve $-1 -51.748405407879879 0 5.4735442445198217 0 -1 0 I I #
edge $-1 $472 -8.4735442445198217 $332 -5.4735442445198217 $415 $474 forward 7 unknown #
point $-1 -51.748405407879879 -34.750885411422182 5.4735442445198217 #
edge $-1 $469 -8.4735442445198217 $335 -5.4735442445198217 $334 $475 forward 7 unknown #
point $-1 -51.748405407879879 34.750885411422182 5.4735442445198217 #
coedge $-1 $432 $348 $342 $431 reversed $339 $-1 #
edge $-1 $439 -8.4735442445198217 $350 -2.413457663039702 $342 $476 forward 7 unknown #
coedge $-1 $343 $430 $345 $434 reversed $339 $-1 #
straight-curve $-1 36.825893650993514 -34.750885411422182 41.422792778619623 0 0 -1 I I #
edge $-1 $346 36.825893650993514 $439 51.748405407879879 $432 $477 forward 7 unknown #
point $-1 36.825893650993514 -34.750885411422182 8.4735442445198217 #
straight-curve $-1 22.143574764718348 -34.750885411422182 2.4134576630396962 1 0 0 I I #
point $-1 51.748405407879879 -34.750885411422182 2.413457663039702 #
point $-1 36.825893650993514 -34.750885411422182 2.413457663039702 #
vertex $-1 $354 $478 #
straight-curve $-1 51.748405407879879 0 8.4735442445198217 0 1 0 I I #
vertex $-1 $357 $479 #
point $-1 40.810396002370787 -29.029731471921586 2.9991922854373718 #
vertex $-1 $361 $480 #
point $-1 45.287149529436697 -29.029731471921586 2.9991922854373718 #
vertex $-1 $365 $481 #
point $-1 49.763903056502606 -29.029731471921586 2.9991922854373718 #
coedge $-1 $371 $370 $378 $452 forward $172 $-1 #
edge $-1 $455 -51.748405407879879 $374 -36.825893650993514 $373 $482 forward 7 unknown #
straight-curve $-1 36.825893650993514 22.935259802966446 8.4735442445198217 0 -1 0 I I #
point $-1 36.825893650993514 34.750885411422182 8.4735442445198217 #
straight-curve $-1 22.143574764718348 27.267301877461524 8.4735442445198217 1 0 0 I I #
edge $-1 $379 27.267301877461534 $455 34.750885411422182 $378 $483 forward 7 unknown #
point $-1 51.748405407879879 27.267301877461534 8.4735442445198217 #
point $-1 36.825893650993514 27.267301877461534 8.4735442445198217 #
vertex $-1 $452 $484 #
straight-curve $-1 51.748405407879879 34.750885411422182 0 0 0 -1 I I #
vertex $-1 $386 $485 #
point $-1 40.810396002370787 29.029731471921586 2.9991922854373789 #
vertex $-1 $390 $486 #
point $-1 45.287149529436697 29.029731471921586 2.9991922854373789 #
vertex $-1 $394 $487 #
point $-1 49.763903056502606 29.029731471921586 2.9991922854373789 #
straight-curve $-1 -51.748405407879879 34.750885411422182 0 0 0 -1 I I #
point $-1 -51.748405407879879 -34.750885411422182 -8.4735442445198217 #
straight-curve $-1 -51.748405407879879 0 -8.4735442445198217 0 1 0 I I #
point $-1 -51.748405407879879 34.750885411422182 -8.4735442445198217 #
coedge $-1 $416 $415 $468 $488 reversed $220 $-1 #
coedge $-1 $421 $417 $467 $488 forward $319 $-1 #
vertex $-1 $418 $489 #
straight-curve $-1 0 34.750885411422182 8.4735442445198217 -1 0 0 I I #
point $-1 -42.29978422838321 34.750885411422182 8.4735442445198217 #
vertex $-1 $488 $490 #
straight-curve $-1 0 -34.750885411422182 8.4735442445198217 1 0 0 I I #
straight-curve $-1 -51.748405407879879 -34.750885411422182 0 0 0 -1 I I #
straight-curve $-1 -51.748405407879879 34.750885411422182 0 0 0 -1 I I #
straight-curve $-1 51.748405407879879 -34.750885411422182 0 0 0 -1 I I #
straight-curve $-1 0 -34.750885411422182 8.4735442445198217 1 0 0 I I #
point $-1 51.748405407879879 -34.750885411422182 8.4735442445198217 #
point $-1 39.810396002370787 -28.400411073057121 2.2220463303085602 #
point $-1 44.287149529436697 -28.400411073057121 2.2220463303085602 #
point $-1 48.763903056502606 -28.400411073057121 2.2220463303085602 #
straight-curve $-1 0 34.750885411422182 8.4735442445198217 -1 0 0 I I #
straight-curve $-1 51.748405407879879 0 8.4735442445198217 0 1 0 I I #
point $-1 51.748405407879879 34.750885411422182 8.4735442445198217 #
point $-1 39.810396002370787 28.400411073057121 2.2220463303085674 #
point $-1 44.287149529436697 28.400411073057121 2.2220463303085674 #
point $-1 48.763903056502606 28.400411073057121 2.2220463303085674 #
edge $-1 $469 -34.750885411422182 $472 34.750885411422182 $467 $491 forward 7 unknown #
point $-1 -51.748405407879879 34.750885411422182 8.4735442445198217 #
point $-1 -51.748405407879879 -34.750885411422182 8.4735442445198217 #
straight-curve $-1 -51.748405407879879 0 8.4735442445198217 0 -1 0 I I #
End-of-ACIS-data 