500 0 21 0           
7 Unknown 11 ACIS 5.0 NT 24 Fri Mar 26 17:16:31 1999 
-1 9.9999999999999995e-007 1e-010 
body $-1 $21 $-1 $22 #
body $-1 $23 $-1 $24 #
body $-1 $25 $-1 $26 #
body $-1 $27 $-1 $28 #
body $-1 $29 $-1 $30 #
body $-1 $31 $-1 $32 #
body $-1 $33 $-1 $34 #
body $-1 $35 $-1 $36 #
body $-1 $37 $-1 $38 #
body $-1 $39 $-1 $40 #
body $-1 $41 $-1 $42 #
body $-1 $43 $-1 $44 #
body $-1 $45 $-1 $46 #
body $-1 $47 $-1 $48 #
body $-1 $49 $-1 $50 #
body $-1 $51 $-1 $52 #
body $-1 $53 $-1 $54 #
body $-1 $55 $-1 $56 #
body $-1 $57 $-1 $58 #
body $-1 $59 $-1 $60 #
body $-1 $61 $-1 $62 #
lump $-1 $-1 $63 $0 #
transform $-1 1 0 0 0 1 0 0 0 1 59.509872737815485 40.307327908216479 19.108185332653935 1 rotate no_reflect no_shear #
lump $-1 $-1 $64 $1 #
transform $-1 1 0 0 0 1 0 0 0 1 59.509872737815485 40.307327908216479 19.108185332653935 1 rotate no_reflect no_shear #
lump $-1 $-1 $65 $2 #
transform $-1 1 0 0 0 1 0 0 0 1 59.509872737815485 40.307327908216479 19.108185332653935 1 rotate no_reflect no_shear #
lump $-1 $-1 $66 $3 #
transform $-1 1 0 0 0 1 0 0 0 1 59.509872737815485 40.307327908216479 19.108185332653935 1 rotate no_reflect no_shear #
lump $-1 $-1 $67 $4 #
transform $-1 1 0 0 0 1 0 0 0 1 59.509872737815485 40.307327908216479 19.108185332653935 1 rotate no_reflect no_shear #
lump $-1 $-1 $68 $5 #
transform $-1 1 0 0 0 1 0 0 0 1 59.509872737815485 40.307327908216479 19.108185332653935 1 rotate no_reflect no_shear #
lump $-1 $-1 $69 $6 #
transform $-1 1 0 0 0 1 0 0 0 1 59.509872737815485 40.307327908216479 19.108185332653935 1 rotate no_reflect no_shear #
lump $-1 $-1 $70 $7 #
transform $-1 1 0 0 0 1 0 0 0 1 59.509872737815485 40.307327908216479 19.108185332653935 1 rotate no_reflect no_shear #
lump $-1 $-1 $71 $8 #
transform $-1 1 0 0 0 1 0 0 0 1 59.509872737815485 40.307327908216479 19.108185332653935 1 rotate no_reflect no_shear #
lump $-1 $-1 $72 $9 #
transform $-1 1 0 0 0 1 0 0 0 1 59.509872737815485 40.307327908216479 19.108185332653935 1 rotate no_reflect no_shear #
lump $-1 $-1 $73 $10 #
transform $-1 1 0 0 0 1 0 0 0 1 59.509872737815485 40.307327908216479 19.108185332653935 1 rotate no_reflect no_shear #
lump $-1 $-1 $74 $11 #
transform $-1 1 0 0 0 1 0 0 0 1 59.509872737815485 40.307327908216479 19.108185332653935 1 rotate no_reflect no_shear #
lump $-1 $-1 $75 $12 #
transform $-1 1 0 0 0 1 0 0 0 1 59.509872737815485 40.307327908216479 19.108185332653935 1 rotate no_reflect no_shear #
lump $-1 $-1 $76 $13 #
transform $-1 1 0 0 0 1 0 0 0 1 59.509872737815485 40.307327908216479 19.108185332653935 1 rotate no_reflect no_shear #
lump $-1 $-1 $77 $14 #
transform $-1 1 0 0 0 1 0 0 0 1 59.509872737815485 40.307327908216479 19.108185332653935 1 rotate no_reflect no_shear #
lump $-1 $-1 $78 $15 #
transform $-1 1 0 0 0 1 0 0 0 1 59.509872737815485 40.307327908216479 19.108185332653935 1 rotate no_reflect no_shear #
lump $-1 $-1 $79 $16 #
transform $-1 1 0 0 0 1 0 0 0 1 59.509872737815485 40.307327908216479 19.108185332653935 1 rotate no_reflect no_shear #
lump $-1 $-1 $80 $17 #
transform $-1 1 0 0 0 1 0 0 0 1 59.509872737815485 40.307327908216479 19.108185332653935 1 rotate no_reflect no_shear #
lump $-1 $-1 $81 $18 #
transform $-1 1 0 0 0 1 0 0 0 1 59.509872737815485 40.307327908216479 19.108185332653935 1 rotate no_reflect no_shear #
lump $-1 $-1 $82 $19 #
transform $-1 1 0 0 0 1 0 0 0 1 59.509872737815485 40.307327908216479 19.108185332653935 1 rotate no_reflect no_shear #
lump $-1 $-1 $83 $20 #
transform $-1 1 0 0 0 1 0 0 0 1 59.509872737815485 40.307327908216479 19.108185332653935 1 rotate no_reflect no_shear #
shell $-1 $-1 $-1 $84 $-1 $21 #
shell $-1 $-1 $-1 $85 $-1 $23 #
shell $-1 $-1 $-1 $86 $-1 $25 #
shell $-1 $-1 $-1 $87 $-1 $27 #
shell $-1 $-1 $-1 $88 $-1 $29 #
shell $-1 $-1 $-1 $89 $-1 $31 #
shell $-1 $-1 $-1 $90 $-1 $33 #
shell $-1 $-1 $-1 $91 $-1 $35 #
shell $-1 $-1 $-1 $92 $-1 $37 #
shell $-1 $-1 $-1 $93 $-1 $39 #
shell $-1 $-1 $-1 $94 $-1 $41 #
shell $-1 $-1 $-1 $95 $-1 $43 #
shell $-1 $-1 $-1 $96 $-1 $45 #
shell $-1 $-1 $-1 $97 $-1 $47 #
shell $-1 $-1 $-1 $98 $-1 $49 #
shell $-1 $-1 $-1 $99 $-1 $51 #
shell $-1 $-1 $-1 $100 $-1 $53 #
shell $-1 $-1 $-1 $101 $-1 $55 #
shell $-1 $-1 $-1 $102 $-1 $57 #
shell $-1 $-1 $-1 $103 $-1 $59 #
shell $-1 $-1 $-1 $104 $-1 $61 #
face $-1 $105 $106 $63 $-1 $107 forward single #
face $-1 $108 $109 $64 $-1 $110 reversed single #
face $-1 $111 $112 $65 $-1 $113 forward single #
face $-1 $114 $115 $66 $-1 $116 forward single #
face $-1 $117 $118 $67 $-1 $119 forward single #
face $-1 $120 $121 $68 $-1 $122 reversed single #
face $-1 $123 $124 $69 $-1 $125 forward single #
face $-1 $126 $127 $70 $-1 $128 forward single #
face $-1 $129 $130 $71 $-1 $131 forward single #
face $-1 $132 $133 $72 $-1 $134 reversed single #
face $-1 $135 $136 $73 $-1 $137 forward single #
face $-1 $138 $139 $74 $-1 $140 forward single #
face $-1 $141 $142 $75 $-1 $143 forward single #
face $-1 $144 $145 $76 $-1 $146 reversed single #
face $-1 $147 $148 $77 $-1 $149 forward single #
face $-1 $150 $151 $78 $-1 $152 forward single #
face $-1 $153 $154 $79 $-1 $155 forward single #
face $-1 $156 $157 $80 $-1 $158 reversed single #
face $-1 $159 $160 $81 $-1 $161 forward single #
face $-1 $162 $163 $82 $-1 $164 forward single #
face $-1 $165 $166 $83 $-1 $167 forward single #
face $-1 $168 $169 $63 $-1 $170 reversed single #
loop $-1 $-1 $171 $84 #
plane-surface $-1 0 0 19.108185332653935 0 0 1 1 0 0 forward_v I I I I #
face $-1 $172 $173 $64 $-1 $174 reversed single #
loop $-1 $-1 $175 $85 #
plane-surface $-1 -49.631900946152903 52.559527911845294 157.91366240958493 1 0 0 0 -0.62932039886446345 -0.77714595512881146 forward_v I I I I #
face $-1 $176 $177 $65 $-1 $178 forward single #
loop $-1 $179 $180 $86 #
cone-surface $-1 -47.082712812596199 36.929202828629805 16.0974386311877 0 -0.62932039886446345 -0.77714595512881146 1 0 0 1 I I 0 1 1 forward I I I I #
face $-1 $181 $182 $66 $-1 $183 forward single #
loop $-1 $184 $185 $87 #
cone-surface $-1 -43.258930612261139 36.929202828629805 16.0974386311877 0 -0.62932039886446345 -0.77714595512881146 1 0 0 1 I I 0 1 1 forward I I I I #
face $-1 $186 $187 $67 $-1 $188 forward single #
loop $-1 $189 $190 $88 #
cone-surface $-1 -39.435148411926079 36.929202828629805 16.0974386311877 0 -0.62932039886446345 -0.77714595512881146 1 0 0 1 I I 0 1 1 forward I I I I #
face $-1 $191 $192 $68 $-1 $193 reversed single #
loop $-1 $-1 $194 $89 #
plane-surface $-1 -20.792613871312149 52.559527911845294 157.91366240958493 1 0 0 0 -0.62932039886446345 -0.77714595512881146 forward_v I I I I #
face $-1 $195 $196 $69 $-1 $197 forward single #
loop $-1 $198 $199 $90 #
cone-surface $-1 -18.243425737755437 36.929202828629805 16.0974386311877 0 -0.62932039886446345 -0.77714595512881146 1 0 0 1 I I 0 1 1 forward I I I I #
face $-1 $200 $201 $70 $-1 $202 forward single #
loop $-1 $203 $204 $91 #
cone-surface $-1 -14.419643537420384 36.929202828629805 16.0974386311877 0 -0.62932039886446345 -0.77714595512881146 1 0 0 1 I I 0 1 1 forward I I I I #
face $-1 $205 $206 $71 $-1 $207 forward single #
loop $-1 $208 $209 $92 #
cone-surface $-1 -10.595861337085324 36.929202828629805 16.0974386311877 0 -0.62932039886446345 -0.77714595512881146 1 0 0 1 I I 0 1 1 forward I I I I #
face $-1 $210 $211 $72 $-1 $212 reversed single #
loop $-1 $-1 $213 $93 #
plane-surface $-1 8.0466732035286057 52.559527911845294 157.91366240958493 1 0 0 0 -0.62932039886446345 -0.77714595512881146 forward_v I I I I #
face $-1 $214 $215 $73 $-1 $216 forward single #
loop $-1 $217 $218 $94 #
cone-surface $-1 10.595861337085324 36.929202828629805 16.0974386311877 0 -0.62932039886446345 -0.77714595512881146 1 0 0 1 I I 0 1 1 forward I I I I #
face $-1 $219 $220 $74 $-1 $221 forward single #
loop $-1 $222 $223 $95 #
cone-surface $-1 14.41964353742037 36.929202828629805 16.0974386311877 0 -0.62932039886446345 -0.77714595512881146 1 0 0 1 I I 0 1 1 forward I I I I #
face $-1 $224 $225 $75 $-1 $226 forward single #
loop $-1 $227 $228 $96 #
cone-surface $-1 18.24342573775543 36.929202828629805 16.0974386311877 0 -0.62932039886446345 -0.77714595512881146 1 0 0 1 I I 0 1 1 forward I I I I #
face $-1 $229 $230 $76 $-1 $231 reversed single #
loop $-1 $-1 $232 $97 #
plane-surface $-1 36.88596027836936 52.559527911845294 157.91366240958493 1 0 0 0 -0.62932039886446345 -0.77714595512881146 forward_v I I I I #
face $-1 $233 $234 $77 $-1 $235 forward single #
loop $-1 $236 $237 $98 #
cone-surface $-1 39.435148411926079 36.929202828629805 16.0974386311877 0 -0.62932039886446345 -0.77714595512881146 1 0 0 1 I I 0 1 1 forward I I I I #
face $-1 $238 $239 $78 $-1 $240 forward single #
loop $-1 $241 $242 $99 #
cone-surface $-1 43.258930612261125 36.929202828629805 16.0974386311877 0 -0.62932039886446345 -0.77714595512881146 1 0 0 1 I I 0 1 1 forward I I I I #
face $-1 $243 $244 $79 $-1 $245 forward single #
loop $-1 $246 $247 $100 #
cone-surface $-1 47.082712812596185 36.929202828629805 16.0974386311877 0 -0.62932039886446345 -0.77714595512881146 1 0 0 1 I I 0 1 1 forward I I I I #
face $-1 $248 $249 $80 $-1 $250 reversed single #
loop $-1 $-1 $251 $101 #
plane-surface $-1 -3.9563943116119891 -142.32716280032093 71.756967578560733 -1 0 0 0 -0.85716730853699208 0.51503806187062418 forward_v I I I I #
face $-1 $252 $253 $81 $-1 $254 forward single #
loop $-1 $255 $256 $102 #
cone-surface $-1 -24.595733798040747 -35.516820905197115 13.465935238576357 0 0.85716730853699208 -0.51503806187062418 1.5 0 0 1 I I 0 1 1.5 forward I I I I #
face $-1 $257 $258 $82 $-1 $259 forward single #
loop $-1 $260 $261 $103 #
cone-surface $-1 -16.855981490629965 -35.516820905197115 13.465935238576357 0 0.85716730853699208 -0.51503806187062418 1.5 0 0 1 I I 0 1 1.5 forward I I I I #
face $-1 $262 $263 $83 $-1 $264 forward single #
loop $-1 $265 $266 $104 #
cone-surface $-1 -9.1162291832191826 -35.516820905197115 13.465935238576357 0 0.85716730853699208 -0.51503806187062418 1.5 0 0 1 I I 0 1 1.5 forward I I I I #
face $-1 $267 $268 $63 $-1 $269 reversed single #
loop $-1 $-1 $270 $105 #
plane-surface $-1 0 0 -19.108185332653935 0 0 1 1 0 0 forward_v I I I I #
coedge $-1 $271 $272 $273 $274 forward $106 $-1 #
face $-1 $275 $276 $64 $-1 $277 reversed single #
loop $-1 $-1 $278 $108 #
plane-surface $-1 -43.258930612261139 -22.342025783625701 65.417948632737676 0 0.62932039886446345 0.77714595512881146 1 0 0 forward_v I I I I #
coedge $-1 $279 $280 $281 $282 reversed $109 $-1 #
face $-1 $-1 $283 $65 $-1 $284 forward single #
loop $-1 $285 $286 $111 #
cone-surface $-1 -47.082712812596199 35.967197473891133 14.909460978474694 0 -0.62932039886446345 -0.77714595512881146 0.5 0 0 1 I I -0.70710678118654746 0.70710678118654746 0.5 forward I I I I #
loop $-1 $-1 $287 $86 #
coedge $-1 $180 $180 $288 $289 reversed $112 $-1 #
face $-1 $-1 $290 $66 $-1 $291 forward single #
loop $-1 $292 $293 $114 #
cone-surface $-1 -43.258930612261139 35.967197473891133 14.909460978474694 0 -0.62932039886446345 -0.77714595512881146 0.5 0 0 1 I I -0.70710678118654746 0.70710678118654746 0.5 forward I I I I #
loop $-1 $-1 $294 $87 #
coedge $-1 $185 $185 $295 $296 reversed $115 $-1 #
face $-1 $-1 $297 $67 $-1 $298 forward single #
loop $-1 $299 $300 $117 #
cone-surface $-1 -39.435148411926079 35.967197473891133 14.909460978474694 0 -0.62932039886446345 -0.77714595512881146 0.5 0 0 1 I I -0.70710678118654746 0.70710678118654746 0.5 forward I I I I #
loop $-1 $-1 $301 $88 #
coedge $-1 $190 $190 $302 $303 reversed $118 $-1 #
face $-1 $304 $305 $68 $-1 $306 reversed single #
loop $-1 $-1 $307 $120 #
plane-surface $-1 -14.419643537420384 -22.342025783625701 65.417948632737676 0 0.62932039886446345 0.77714595512881146 1 0 0 forward_v I I I I #
coedge $-1 $308 $309 $310 $311 reversed $121 $-1 #
face $-1 $-1 $312 $69 $-1 $313 forward single #
loop $-1 $314 $315 $123 #
cone-surface $-1 -18.243425737755437 35.967197473891133 14.909460978474694 0 -0.62932039886446345 -0.77714595512881146 0.5 0 0 1 I I -0.70710678118654746 0.70710678118654746 0.5 forward I I I I #
loop $-1 $-1 $316 $90 #
coedge $-1 $199 $199 $317 $318 reversed $124 $-1 #
face $-1 $-1 $319 $70 $-1 $320 forward single #
loop $-1 $321 $322 $126 #
cone-surface $-1 -14.419643537420384 35.967197473891133 14.909460978474694 0 -0.62932039886446345 -0.77714595512881146 0.5 0 0 1 I I -0.70710678118654746 0.70710678118654746 0.5 forward I I I I #
loop $-1 $-1 $323 $91 #
coedge $-1 $204 $204 $324 $325 reversed $127 $-1 #
face $-1 $-1 $326 $71 $-1 $327 forward single #
loop $-1 $328 $329 $129 #
cone-surface $-1 -10.595861337085324 35.967197473891133 14.909460978474694 0 -0.62932039886446345 -0.77714595512881146 0.5 0 0 1 I I -0.70710678118654746 0.70710678118654746 0.5 forward I I I I #
loop $-1 $-1 $330 $92 #
coedge $-1 $209 $209 $331 $332 reversed $130 $-1 #
face $-1 $333 $334 $72 $-1 $335 reversed single #
loop $-1 $-1 $336 $132 #
plane-surface $-1 14.41964353742037 -22.342025783625701 65.417948632737676 0 0.62932039886446345 0.77714595512881146 1 0 0 forward_v I I I I #
coedge $-1 $337 $338 $339 $340 reversed $133 $-1 #
face $-1 $-1 $341 $73 $-1 $342 forward single #
loop $-1 $343 $344 $135 #
cone-surface $-1 10.595861337085324 35.967197473891133 14.909460978474694 0 -0.62932039886446345 -0.77714595512881146 0.5 0 0 1 I I -0.70710678118654746 0.70710678118654746 0.5 forward I I I I #
loop $-1 $-1 $345 $94 #
coedge $-1 $218 $218 $346 $347 reversed $136 $-1 #
face $-1 $-1 $348 $74 $-1 $349 forward single #
loop $-1 $350 $351 $138 #
cone-surface $-1 14.41964353742037 35.967197473891133 14.909460978474694 0 -0.62932039886446345 -0.77714595512881146 0.5 0 0 1 I I -0.70710678118654746 0.70710678118654746 0.5 forward I I I I #
loop $-1 $-1 $352 $95 #
coedge $-1 $223 $223 $353 $354 reversed $139 $-1 #
face $-1 $-1 $355 $75 $-1 $356 forward single #
loop $-1 $357 $358 $141 #
cone-surface $-1 18.24342573775543 35.967197473891133 14.909460978474694 0 -0.62932039886446345 -0.77714595512881146 0.5 0 0 1 I I -0.70710678118654746 0.70710678118654746 0.5 forward I I I I #
loop $-1 $-1 $359 $96 #
coedge $-1 $228 $228 $360 $361 reversed $142 $-1 #
face $-1 $362 $363 $76 $-1 $364 reversed single #
loop $-1 $-1 $365 $144 #
plane-surface $-1 43.258930612261125 -22.342025783625701 65.417948632737676 0 0.62932039886446345 0.77714595512881146 1 0 0 forward_v I I I I #
coedge $-1 $366 $367 $368 $369 reversed $145 $-1 #
face $-1 $-1 $370 $77 $-1 $371 forward single #
loop $-1 $372 $373 $147 #
cone-surface $-1 39.435148411926079 35.967197473891133 14.909460978474694 0 -0.62932039886446345 -0.77714595512881146 0.5 0 0 1 I I -0.70710678118654746 0.70710678118654746 0.5 forward I I I I #
loop $-1 $-1 $374 $98 #
coedge $-1 $237 $237 $375 $376 reversed $148 $-1 #
face $-1 $-1 $377 $78 $-1 $378 forward single #
loop $-1 $379 $380 $150 #
cone-surface $-1 43.258930612261125 35.967197473891133 14.909460978474694 0 -0.62932039886446345 -0.77714595512881146 0.5 0 0 1 I I -0.70710678118654746 0.70710678118654746 0.5 forward I I I I #
loop $-1 $-1 $381 $99 #
coedge $-1 $242 $242 $382 $383 reversed $151 $-1 #
face $-1 $-1 $384 $79 $-1 $385 forward single #
loop $-1 $386 $387 $153 #
cone-surface $-1 47.082712812596185 35.967197473891133 14.909460978474694 0 -0.62932039886446345 -0.77714595512881146 0.5 0 0 1 I I -0.70710678118654746 0.70710678118654746 0.5 forward I I I I #
loop $-1 $-1 $388 $100 #
coedge $-1 $247 $247 $389 $390 reversed $154 $-1 #
face $-1 $391 $392 $80 $-1 $393 reversed single #
loop $-1 $-1 $394 $156 #
plane-surface $-1 -16.855981490629965 -40.307327908216479 10.45726854445676 0 -0.85716730853699208 0.51503806187062418 1 0 0 forward_v I I I I #
coedge $-1 $395 $396 $397 $398 reversed $157 $-1 #
face $-1 $-1 $399 $81 $-1 $400 forward single #
loop $-1 $401 $402 $159 #
cone-surface $-1 -24.595733798040747 -32.682435939475191 11.762864992194398 0 0.85716730853699208 -0.51503806187062418 0.75 0 0 1 I I -0.70710678118654757 0.70710678118654757 0.75 forward I I I I #
loop $-1 $-1 $403 $102 #
coedge $-1 $256 $256 $404 $405 reversed $160 $-1 #
face $-1 $-1 $406 $82 $-1 $407 forward single #
loop $-1 $408 $409 $162 #
cone-surface $-1 -16.855981490629965 -32.682435939475191 11.762864992194398 0 0.85716730853699208 -0.51503806187062418 0.75 0 0 1 I I -0.70710678118654757 0.70710678118654757 0.75 forward I I I I #
loop $-1 $-1 $410 $103 #
coedge $-1 $261 $261 $411 $412 reversed $163 $-1 #
face $-1 $-1 $413 $83 $-1 $414 forward single #
loop $-1 $415 $416 $165 #
cone-surface $-1 -9.1162291832191826 -32.682435939475191 11.762864992194398 0 0.85716730853699208 -0.51503806187062418 0.75 0 0 1 I I -0.70710678118654757 0.70710678118654757 0.75 forward I I I I #
loop $-1 $-1 $417 $104 #
coedge $-1 $266 $266 $418 $419 reversed $166 $-1 #
face $-1 $420 $421 $63 $-1 $422 reversed single #
loop $-1 $-1 $423 $168 #
plane-surface $-1 0 -40.307327908216479 0 0 1 0 0 0 1 forward_v I I I I #
coedge $-1 $424 $425 $426 $427 forward $169 $-1 #
coedge $-1 $428 $171 $429 $430 forward $106 $-1 #
coedge $-1 $171 $428 $431 $432 forward $106 $-1 #
coedge $-1 $433 $434 $171 $274 reversed $435 $-1 #
edge $-1 $436 -40.307327908216479 $437 40.307327908216479 $273 $438 forward 7 unknown #
face $-1 $439 $440 $64 $-1 $441 reversed single #
loop $-1 $-1 $442 $172 #
plane-surface $-1 -36.885960278369375 52.559527911845294 157.91366240958493 -1 0 0 0 0.62932039886446345 0.77714595512881146 forward_v I I I I #
coedge $-1 $443 $444 $445 $446 reversed $173 $-1 #
coedge $-1 $280 $175 $447 $448 reversed $109 $-1 #
coedge $-1 $175 $279 $443 $449 reversed $109 $-1 #
coedge $-1 $445 $450 $175 $282 forward $451 $-1 #
edge $-1 $452 -14.027563952293832 $453 -8.5660041037333841 $281 $454 forward 7 unknown #
loop $-1 $-1 $288 $176 #
plane-surface $-1 -43.258930612261139 -22.342025783625701 65.417948632737676 0 0.62932039886446345 0.77714595512881146 1 0 0 forward_v I I I I #
loop $-1 $-1 $455 $111 #
coedge $-1 $286 $286 $287 $456 reversed $177 $-1 #
coedge $-1 $287 $287 $286 $456 forward $179 $-1 #
coedge $-1 $288 $288 $180 $289 forward $283 $-1 #
edge $-1 $457 0 $457 6.2831853071796004 $288 $458 forward 7 unknown #
loop $-1 $-1 $295 $181 #
plane-surface $-1 -43.258930612261139 -22.342025783625701 65.417948632737676 0 0.62932039886446345 0.77714595512881146 1 0 0 forward_v I I I I #
loop $-1 $-1 $459 $114 #
coedge $-1 $293 $293 $294 $460 reversed $182 $-1 #
coedge $-1 $294 $294 $293 $460 forward $184 $-1 #
coedge $-1 $295 $295 $185 $296 forward $290 $-1 #
edge $-1 $461 0 $461 6.2831853071796004 $295 $462 forward 7 unknown #
loop $-1 $-1 $302 $186 #
plane-surface $-1 -43.258930612261139 -22.342025783625701 65.417948632737676 0 0.62932039886446345 0.77714595512881146 1 0 0 forward_v I I I I #
loop $-1 $-1 $463 $117 #
coedge $-1 $300 $300 $301 $464 reversed $187 $-1 #
coedge $-1 $301 $301 $300 $464 forward $189 $-1 #
coedge $-1 $302 $302 $190 $303 forward $297 $-1 #
edge $-1 $465 0 $465 6.2831853071796004 $302 $466 forward 7 unknown #
face $-1 $467 $468 $68 $-1 $469 forward single #
loop $-1 $-1 $470 $191 #
plane-surface $-1 -8.0466732035286199 52.559527911845294 157.91366240958493 -1 0 0 0 0.62932039886446345 0.77714595512881146 forward_v I I I I #
coedge $-1 $471 $472 $473 $474 reversed $192 $-1 #
coedge $-1 $309 $194 $475 $476 reversed $121 $-1 #
coedge $-1 $194 $308 $471 $477 reversed $121 $-1 #
coedge $-1 $473 $478 $194 $311 forward $468 $-1 #
edge $-1 $479 -14.027563952293832 $480 -8.5660041037333841 $310 $481 forward 7 unknown #
loop $-1 $-1 $317 $195 #
plane-surface $-1 -14.419643537420384 -22.342025783625701 65.417948632737676 0 0.62932039886446345 0.77714595512881146 1 0 0 forward_v I I I I #
loop $-1 $-1 $482 $123 #
coedge $-1 $315 $315 $316 $483 reversed $196 $-1 #
coedge $-1 $316 $316 $315 $483 forward $198 $-1 #
coedge $-1 $317 $317 $199 $318 forward $312 $-1 #
edge $-1 $484 0 $484 6.2831853071796004 $317 $485 forward 7 unknown #
loop $-1 $-1 $324 $200 #
plane-surface $-1 -14.419643537420384 -22.342025783625701 65.417948632737676 0 0.62932039886446345 0.77714595512881146 1 0 0 forward_v I I I I #
loop $-1 $-1 $486 $126 #
coedge $-1 $322 $322 $323 $487 reversed $201 $-1 #
coedge $-1 $323 $323 $322 $487 forward $203 $-1 #
coedge $-1 $324 $324 $204 $325 forward $319 $-1 #
edge $-1 $488 0 $488 6.2831853071796004 $324 $489 forward 7 unknown #
loop $-1 $-1 $331 $205 #
plane-surface $-1 -14.419643537420384 -22.342025783625701 65.417948632737676 0 0.62932039886446345 0.77714595512881146 1 0 0 forward_v I I I I #
loop $-1 $-1 $490 $129 #
coedge $-1 $329 $329 $330 $491 reversed $206 $-1 #
coedge $-1 $330 $330 $329 $491 forward $208 $-1 #
coedge $-1 $331 $331 $209 $332 forward $326 $-1 #
edge $-1 $492 0 $492 6.2831853071796004 $331 $493 forward 7 unknown #
face $-1 $494 $495 $72 $-1 $496 forward single #
loop $-1 $-1 $497 $210 #
plane-surface $-1 20.792613871312135 52.559527911845294 157.91366240958493 -1 0 0 0 0.62932039886446345 0.77714595512881146 forward_v I I I I #
coedge $-1 $498 $499 $500 $501 reversed $211 $-1 #
coedge $-1 $338 $213 $502 $503 reversed $133 $-1 #
coedge $-1 $213 $337 $498 $504 reversed $133 $-1 #
coedge $-1 $500 $505 $213 $340 forward $495 $-1 #
edge $-1 $506 -14.027563952293832 $507 -8.5660041037333841 $339 $508 forward 7 unknown #
loop $-1 $-1 $346 $214 #
plane-surface $-1 14.41964353742037 -22.342025783625701 65.417948632737676 0 0.62932039886446345 0.77714595512881146 1 0 0 forward_v I I I I #
loop $-1 $-1 $509 $135 #
coedge $-1 $344 $344 $345 $510 reversed $215 $-1 #
coedge $-1 $345 $345 $344 $510 forward $217 $-1 #
coedge $-1 $346 $346 $218 $347 forward $341 $-1 #
edge $-1 $511 0 $511 6.2831853071796004 $346 $512 forward 7 unknown #
loop $-1 $-1 $353 $219 #
plane-surface $-1 14.41964353742037 -22.342025783625701 65.417948632737676 0 0.62932039886446345 0.77714595512881146 1 0 0 forward_v I I I I #
loop $-1 $-1 $513 $138 #
coedge $-1 $351 $351 $352 $514 reversed $220 $-1 #
coedge $-1 $352 $352 $351 $514 forward $222 $-1 #
coedge $-1 $353 $353 $223 $354 forward $348 $-1 #
edge $-1 $515 0 $515 6.2831853071796004 $353 $516 forward 7 unknown #
loop $-1 $-1 $360 $224 #
plane-surface $-1 14.41964353742037 -22.342025783625701 65.417948632737676 0 0.62932039886446345 0.77714595512881146 1 0 0 forward_v I I I I #
loop $-1 $-1 $517 $141 #
coedge $-1 $358 $358 $359 $518 reversed $225 $-1 #
coedge $-1 $359 $359 $358 $518 forward $227 $-1 #
coedge $-1 $360 $360 $228 $361 forward $355 $-1 #
edge $-1 $519 0 $519 6.2831853071796004 $360 $520 forward 7 unknown #
face $-1 $521 $522 $76 $-1 $523 forward single #
loop $-1 $-1 $524 $229 #
plane-surface $-1 49.631900946152889 52.559527911845294 157.91366240958493 -1 0 0 0 0.62932039886446345 0.77714595512881146 forward_v I I I I #
coedge $-1 $525 $526 $527 $528 reversed $230 $-1 #
coedge $-1 $367 $232 $529 $530 reversed $145 $-1 #
coedge $-1 $232 $366 $525 $531 reversed $145 $-1 #
coedge $-1 $527 $532 $232 $369 forward $522 $-1 #
edge $-1 $533 -14.027563952293832 $534 -8.5660041037333841 $368 $535 forward 7 unknown #
loop $-1 $-1 $375 $233 #
plane-surface $-1 43.258930612261125 -22.342025783625701 65.417948632737676 0 0.62932039886446345 0.77714595512881146 1 0 0 forward_v I I I I #
loop $-1 $-1 $536 $147 #
coedge $-1 $373 $373 $374 $537 reversed $234 $-1 #
coedge $-1 $374 $374 $373 $537 forward $236 $-1 #
coedge $-1 $375 $375 $237 $376 forward $370 $-1 #
edge $-1 $538 0 $538 6.2831853071796004 $375 $539 forward 7 unknown #
loop $-1 $-1 $382 $238 #
plane-surface $-1 43.258930612261125 -22.342025783625701 65.417948632737676 0 0.62932039886446345 0.77714595512881146 1 0 0 forward_v I I I I #
loop $-1 $-1 $540 $150 #
coedge $-1 $380 $380 $381 $541 reversed $239 $-1 #
coedge $-1 $381 $381 $380 $541 forward $241 $-1 #
coedge $-1 $382 $382 $242 $383 forward $377 $-1 #
edge $-1 $542 0 $542 6.2831853071796004 $382 $543 forward 7 unknown #
loop $-1 $-1 $389 $243 #
plane-surface $-1 43.258930612261125 -22.342025783625701 65.417948632737676 0 0.62932039886446345 0.77714595512881146 1 0 0 forward_v I I I I #
loop $-1 $-1 $544 $153 #
coedge $-1 $387 $387 $388 $545 reversed $244 $-1 #
coedge $-1 $388 $388 $387 $545 forward $246 $-1 #
coedge $-1 $389 $389 $247 $390 forward $384 $-1 #
edge $-1 $546 0 $546 6.2831853071796004 $389 $547 forward 7 unknown #
face $-1 $548 $549 $80 $-1 $550 reversed single #
loop $-1 $-1 $551 $248 #
plane-surface $-1 -29.755568669647943 -142.32716280032093 71.756967578560733 1 0 0 0 0.85716730853699208 -0.51503806187062418 forward_v I I I I #
coedge $-1 $552 $553 $554 $555 reversed $249 $-1 #
coedge $-1 $396 $251 $556 $557 reversed $157 $-1 #
coedge $-1 $251 $395 $552 $558 reversed $157 $-1 #
coedge $-1 $554 $559 $251 $398 forward $560 $-1 #
edge $-1 $561 30.856253491943988 $562 36.054248529344363 $397 $563 forward 7 unknown #
loop $-1 $-1 $404 $252 #
plane-surface $-1 -16.855981490629965 -40.307327908216479 10.45726854445676 0 -0.85716730853699208 0.51503806187062418 1 0 0 forward_v I I I I #
loop $-1 $-1 $564 $159 #
coedge $-1 $402 $402 $403 $565 reversed $253 $-1 #
coedge $-1 $403 $403 $402 $565 forward $255 $-1 #
coedge $-1 $404 $404 $256 $405 forward $399 $-1 #
edge $-1 $566 0 $566 6.2831853071796004 $404 $567 forward 7 unknown #
loop $-1 $-1 $411 $257 #
plane-surface $-1 -16.855981490629965 -40.307327908216479 10.45726854445676 0 -0.85716730853699208 0.51503806187062418 1 0 0 forward_v I I I I #
loop $-1 $-1 $568 $162 #
coedge $-1 $409 $409 $410 $569 reversed $258 $-1 #
coedge $-1 $410 $410 $409 $569 forward $260 $-1 #
coedge $-1 $411 $411 $261 $412 forward $406 $-1 #
edge $-1 $570 0 $570 6.2831853071796004 $411 $571 forward 7 unknown #
loop $-1 $-1 $418 $262 #
plane-surface $-1 -16.855981490629965 -40.307327908216479 10.45726854445676 0 -0.85716730853699208 0.51503806187062418 1 0 0 forward_v I I I I #
loop $-1 $-1 $572 $165 #
coedge $-1 $416 $416 $417 $573 reversed $263 $-1 #
coedge $-1 $417 $417 $416 $573 forward $265 $-1 #
coedge $-1 $418 $418 $266 $419 forward $413 $-1 #
edge $-1 $574 0 $574 6.2831853071796004 $418 $575 forward 7 unknown #
face $-1 $576 $577 $63 $-1 $578 reversed single #
loop $-1 $-1 $579 $267 #
plane-surface $-1 -59.509872737815485 0 0 1 0 0 0 0 -1 forward_v I I I I #
coedge $-1 $580 $431 $581 $582 forward $268 $-1 #
coedge $-1 $583 $270 $580 $584 forward $169 $-1 #
coedge $-1 $270 $583 $585 $586 forward $169 $-1 #
coedge $-1 $434 $433 $270 $427 reversed $435 $-1 #
edge $-1 $587 -40.307327908216479 $588 40.307327908216479 $426 $589 forward 7 unknown #
coedge $-1 $272 $271 $590 $591 forward $106 $-1 #
coedge $-1 $592 $593 $271 $430 reversed $577 $-1 #
edge $-1 $437 -59.509872737815485 $594 59.509872737815485 $429 $595 forward 7 unknown #
coedge $-1 $423 $596 $272 $432 reversed $268 $-1 #
edge $-1 $597 -59.509872737815485 $436 59.509872737815485 $431 $598 forward 7 unknown #
coedge $-1 $426 $273 $596 $599 forward $435 $-1 #
coedge $-1 $273 $426 $592 $600 reversed $435 $-1 #
loop $-1 $-1 $433 $576 #
vertex $-1 $274 $601 #
vertex $-1 $274 $602 #
straight-curve $-1 59.509872737815485 0 19.108185332653935 0 1 0 I I #
face $-1 $-1 $451 $64 $-1 $603 forward single #
loop $-1 $-1 $604 $275 #
plane-surface $-1 0 40.307327908216479 0 0 -1 0 0 0 -1 forward_v I I I I #
coedge $-1 $605 $606 $607 $608 reversed $276 $-1 #
coedge $-1 $609 $278 $280 $449 forward $173 $-1 #
coedge $-1 $278 $609 $605 $610 forward $173 $-1 #
coedge $-1 $607 $281 $278 $446 forward $451 $-1 #
edge $-1 $453 -28.002435640022334 $611 -15.256494972238805 $445 $612 forward 7 unknown #
coedge $-1 $613 $614 $279 $448 forward $440 $-1 #
edge $-1 $615 -64.271329924773809 $452 -59.848645872138533 $447 $616 forward 7 unknown #
edge $-1 $453 73.586941379374338 $615 80.614655816432943 $280 $617 forward 7 unknown #
coedge $-1 $281 $607 $613 $618 forward $451 $-1 #
loop $-1 $-1 $607 $439 #
vertex $-1 $448 $619 #
vertex $-1 $282 $620 #
straight-curve $-1 -49.631900946152903 26.279763955922647 19.108185332653932 0 -1 0 I I #
coedge $-1 $455 $455 $-1 $621 reversed $285 $-1 #
edge $-1 $622 0 $622 6.2831853071796004 $286 $623 forward 7 unknown #
vertex $-1 $289 $624 #
ellipse-curve $-1 -47.082712812596199 37.576547983936244 16.896843306336297 0 0.62932039886446345 0.77714595512881146 1 0 0 1 I I #
coedge $-1 $459 $459 $-1 $625 reversed $292 $-1 #
edge $-1 $626 0 $626 6.2831853071796004 $293 $627 forward 7 unknown #
vertex $-1 $296 $628 #
ellipse-curve $-1 -43.258930612261139 37.576547983936244 16.896843306336297 0 0.62932039886446345 0.77714595512881146 1 0 0 1 I I #
coedge $-1 $463 $463 $-1 $629 reversed $299 $-1 #
edge $-1 $630 0 $630 6.2831853071796004 $300 $631 forward 7 unknown #
vertex $-1 $303 $632 #
ellipse-curve $-1 -39.435148411926079 37.576547983936244 16.896843306336297 0 0.62932039886446345 0.77714595512881146 1 0 0 1 I I #
face $-1 $-1 $633 $68 $-1 $634 reversed single #
loop $-1 $-1 $310 $304 #
plane-surface $-1 0 0 19.108185332653935 0 0 1 1 0 0 forward_v I I I I #
coedge $-1 $635 $636 $637 $638 reversed $305 $-1 #
coedge $-1 $639 $307 $309 $477 forward $192 $-1 #
coedge $-1 $307 $639 $635 $640 forward $192 $-1 #
coedge $-1 $637 $310 $307 $474 forward $468 $-1 #
edge $-1 $480 -13.582792102601957 $641 -0.83685143481842772 $473 $642 forward 7 unknown #
coedge $-1 $643 $644 $308 $476 forward $633 $-1 #
edge $-1 $645 -64.271329924773809 $479 -59.848645872138533 $475 $646 forward 7 unknown #
edge $-1 $480 73.586941379374338 $645 80.614655816432943 $309 $647 forward 7 unknown #
coedge $-1 $310 $637 $643 $648 forward $468 $-1 #
vertex $-1 $311 $649 #
vertex $-1 $311 $650 #
straight-curve $-1 -20.792613871312149 26.279763955922647 19.108185332653932 0 -1 0 I I #
coedge $-1 $482 $482 $-1 $651 reversed $314 $-1 #
edge $-1 $652 0 $652 6.2831853071796004 $315 $653 forward 7 unknown #
vertex $-1 $318 $654 #
ellipse-curve $-1 -18.243425737755437 37.576547983936244 16.896843306336297 0 0.62932039886446345 0.77714595512881146 1 0 0 1 I I #
coedge $-1 $486 $486 $-1 $655 reversed $321 $-1 #
edge $-1 $656 0 $656 6.2831853071796004 $322 $657 forward 7 unknown #
vertex $-1 $325 $658 #
ellipse-curve $-1 -14.419643537420384 37.576547983936244 16.896843306336297 0 0.62932039886446345 0.77714595512881146 1 0 0 1 I I #
coedge $-1 $490 $490 $-1 $659 reversed $328 $-1 #
edge $-1 $660 0 $660 6.2831853071796004 $329 $661 forward 7 unknown #
vertex $-1 $332 $662 #
ellipse-curve $-1 -10.595861337085324 37.576547983936244 16.896843306336297 0 0.62932039886446345 0.77714595512881146 1 0 0 1 I I #
face $-1 $-1 $663 $72 $-1 $664 reversed single #
loop $-1 $-1 $339 $333 #
plane-surface $-1 0 0 19.108185332653935 0 0 1 1 0 0 forward_v I I I I #
coedge $-1 $665 $666 $667 $668 reversed $334 $-1 #
coedge $-1 $669 $336 $338 $504 forward $211 $-1 #
coedge $-1 $336 $669 $665 $670 forward $211 $-1 #
coedge $-1 $667 $339 $336 $501 forward $495 $-1 #
edge $-1 $507 0.83685143481842061 $671 13.58279210260195 $500 $672 forward 7 unknown #
coedge $-1 $673 $674 $337 $503 forward $663 $-1 #
edge $-1 $675 -64.271329924773809 $506 -59.848645872138533 $502 $676 forward 7 unknown #
edge $-1 $507 73.586941379374338 $675 80.614655816432943 $338 $677 forward 7 unknown #
coedge $-1 $339 $667 $673 $678 forward $495 $-1 #
vertex $-1 $340 $679 #
vertex $-1 $340 $680 #
straight-curve $-1 8.0466732035286057 26.279763955922647 19.108185332653932 0 -1 0 I I #
coedge $-1 $509 $509 $-1 $681 reversed $343 $-1 #
edge $-1 $682 0 $682 6.2831853071796004 $344 $683 forward 7 unknown #
vertex $-1 $347 $684 #
ellipse-curve $-1 10.595861337085324 37.576547983936244 16.896843306336297 0 0.62932039886446345 0.77714595512881146 1 0 0 1 I I #
coedge $-1 $513 $513 $-1 $685 reversed $350 $-1 #
edge $-1 $686 0 $686 6.2831853071796004 $351 $687 forward 7 unknown #
vertex $-1 $354 $688 #
ellipse-curve $-1 14.41964353742037 37.576547983936244 16.896843306336297 0 0.62932039886446345 0.77714595512881146 1 0 0 1 I I #
coedge $-1 $517 $517 $-1 $689 reversed $357 $-1 #
edge $-1 $690 0 $690 6.2831853071796004 $358 $691 forward 7 unknown #
vertex $-1 $361 $692 #
ellipse-curve $-1 18.24342573775543 37.576547983936244 16.896843306336297 0 0.62932039886446345 0.77714595512881146 1 0 0 1 I I #
face $-1 $-1 $693 $76 $-1 $694 reversed single #
loop $-1 $-1 $368 $362 #
plane-surface $-1 0 0 19.108185332653935 0 0 1 1 0 0 forward_v I I I I #
coedge $-1 $695 $696 $697 $698 reversed $363 $-1 #
coedge $-1 $699 $365 $367 $531 forward $230 $-1 #
coedge $-1 $365 $699 $695 $700 forward $230 $-1 #
coedge $-1 $697 $368 $365 $528 forward $522 $-1 #
edge $-1 $534 15.256494972238798 $701 28.002435640022327 $527 $702 forward 7 unknown #
coedge $-1 $703 $704 $366 $530 forward $693 $-1 #
edge $-1 $705 -64.271329924773809 $533 -59.848645872138533 $529 $706 forward 7 unknown #
edge $-1 $534 73.586941379374338 $705 80.614655816432943 $367 $707 forward 7 unknown #
coedge $-1 $368 $697 $703 $708 forward $522 $-1 #
vertex $-1 $369 $709 #
vertex $-1 $369 $710 #
straight-curve $-1 36.88596027836936 26.279763955922647 19.108185332653932 0 -1 0 I I #
coedge $-1 $536 $536 $-1 $711 reversed $372 $-1 #
edge $-1 $712 0 $712 6.2831853071796004 $373 $713 forward 7 unknown #
vertex $-1 $376 $714 #
ellipse-curve $-1 39.435148411926079 37.576547983936244 16.896843306336297 0 0.62932039886446345 0.77714595512881146 1 0 0 1 I I #
coedge $-1 $540 $540 $-1 $715 reversed $379 $-1 #
edge $-1 $716 0 $716 6.2831853071796004 $380 $717 forward 7 unknown #
vertex $-1 $383 $718 #
ellipse-curve $-1 43.258930612261125 37.576547983936244 16.896843306336297 0 0.62932039886446345 0.77714595512881146 1 0 0 1 I I #
coedge $-1 $544 $544 $-1 $719 reversed $386 $-1 #
edge $-1 $720 0 $720 6.2831853071796004 $387 $721 forward 7 unknown #
vertex $-1 $390 $722 #
ellipse-curve $-1 47.082712812596185 37.576547983936244 16.896843306336297 0 0.62932039886446345 0.77714595512881146 1 0 0 1 I I #
face $-1 $-1 $560 $80 $-1 $723 forward single #
loop $-1 $-1 $724 $391 #
plane-surface $-1 0 -40.307327908216479 0 0 1 0 0 0 1 forward_v I I I I #
coedge $-1 $725 $726 $727 $728 reversed $392 $-1 #
coedge $-1 $729 $394 $396 $558 forward $249 $-1 #
coedge $-1 $394 $729 $725 $730 forward $249 $-1 #
coedge $-1 $727 $397 $394 $555 forward $560 $-1 #
edge $-1 $562 -4.4715964337029934 $731 21.32757792433296 $554 $732 forward 7 unknown #
coedge $-1 $733 $734 $395 $557 forward $549 $-1 #
edge $-1 $735 -25.421215244823607 $561 -16.770298456626431 $556 $736 forward 7 unknown #
edge $-1 $562 -10.092448349392267 $735 0 $396 $737 forward 7 unknown #
coedge $-1 $397 $727 $733 $738 forward $560 $-1 #
loop $-1 $-1 $727 $548 #
vertex $-1 $557 $739 #
vertex $-1 $398 $740 #
straight-curve $-1 -3.9563943116119891 -71.163581400160467 19.108185332653935 0 1 0 I I #
coedge $-1 $564 $564 $-1 $741 reversed $401 $-1 #
edge $-1 $742 0 $742 6.2831853071796004 $402 $743 forward 7 unknown #
vertex $-1 $405 $744 #
ellipse-curve $-1 -24.595733798040747 -37.708330389516291 14.782726938555346 0 -0.85716730853699208 0.51503806187062418 1.5 0 0 1 I I #
coedge $-1 $568 $568 $-1 $745 reversed $408 $-1 #
edge $-1 $746 0 $746 6.2831853071796004 $409 $747 forward 7 unknown #
vertex $-1 $412 $748 #
ellipse-curve $-1 -16.855981490629965 -37.708330389516291 14.782726938555346 0 -0.85716730853699208 0.51503806187062418 1.5 0 0 1 I I #
coedge $-1 $572 $572 $-1 $749 reversed $415 $-1 #
edge $-1 $750 0 $750 6.2831853071796004 $416 $751 forward 7 unknown #
vertex $-1 $419 $752 #
ellipse-curve $-1 -9.1162291832191826 -37.708330389516291 14.782726938555346 0 -0.85716730853699208 0.51503806187062418 1.5 0 0 1 I I #
face $-1 $-1 $435 $63 $-1 $753 reversed single #
loop $-1 $-1 $592 $420 #
plane-surface $-1 0 40.307327908216479 0 0 -1 0 0 0 -1 forward_v I I I I #
coedge $-1 $754 $590 $593 $755 forward $421 $-1 #
coedge $-1 $596 $423 $424 $584 reversed $268 $-1 #
coedge $-1 $590 $754 $423 $582 reversed $421 $-1 #
edge $-1 $597 -19.108185332653935 $756 19.108185332653935 $581 $757 forward 7 unknown #
coedge $-1 $425 $424 $754 $758 forward $169 $-1 #
edge $-1 $588 -59.509872737815485 $756 59.509872737815485 $580 $759 forward 7 unknown #
coedge $-1 $593 $592 $425 $586 reversed $577 $-1 #
edge $-1 $760 -59.509872737815485 $587 59.509872737815485 $585 $761 forward 7 unknown #
vertex $-1 $427 $762 #
vertex $-1 $599 $763 #
straight-curve $-1 59.509872737815485 0 -19.108185332653935 0 -1 0 I I #
coedge $-1 $579 $581 $428 $591 reversed $421 $-1 #
edge $-1 $594 -40.307327908216479 $597 40.307327908216479 $590 $764 forward 7 unknown #
coedge $-1 $585 $429 $434 $600 forward $577 $-1 #
coedge $-1 $429 $585 $579 $755 reversed $577 $-1 #
vertex $-1 $430 $765 #
straight-curve $-1 0 40.307327908216479 19.108185332653935 -1 0 0 I I #
coedge $-1 $431 $580 $433 $599 reversed $268 $-1 #
vertex $-1 $591 $766 #
straight-curve $-1 0 -40.307327908216479 19.108185332653935 1 0 0 I I #
edge $-1 $436 -19.108185332653935 $588 19.108185332653935 $433 $767 forward 7 unknown #
edge $-1 $437 -19.108185332653935 $587 19.108185332653935 $434 $768 forward 7 unknown #
point $-1 59.509872737815485 -40.307327908216479 19.108185332653935 #
point $-1 59.509872737815485 40.307327908216479 19.108185332653935 #
plane-surface $-1 0 0 19.108185332653935 0 0 1 1 0 0 forward_v I I I I #
coedge $-1 $614 $613 $606 $769 forward $440 $-1 #
coedge $-1 $606 $442 $444 $610 reversed $276 $-1 #
coedge $-1 $442 $605 $604 $769 reversed $276 $-1 #
coedge $-1 $450 $445 $442 $608 forward $451 $-1 #
edge $-1 $611 8.5660041037333841 $770 14.027563952293832 $607 $771 forward 7 unknown #
coedge $-1 $444 $443 $614 $772 reversed $173 $-1 #
edge $-1 $773 -80.614655816432943 $611 -73.586941379374338 $605 $774 forward 7 unknown #
vertex $-1 $446 $775 #
straight-curve $-1 -21.62946530613057 34.845768059656024 19.108185332653932 1 0 0 I I #
coedge $-1 $604 $447 $450 $618 reversed $440 $-1 #
coedge $-1 $447 $604 $609 $772 forward $440 $-1 #
vertex $-1 $448 $776 #
straight-curve $-1 -49.631900946152903 40.307327908216479 78.956831204792465 0 0 1 I I #
straight-curve $-1 -49.631900946152903 -22.342025783625701 65.417948632737676 0 0.77714595512881146 -0.62932039886446345 I I #
edge $-1 $770 36.885960278369375 $452 49.631900946152903 $613 $777 forward 7 unknown #
point $-1 -49.631900946152903 40.307327908216479 19.108185332653935 #
point $-1 -49.631900946152903 34.845768059656031 19.108185332653932 #
edge $-1 $778 1 $778 0 $455 $-1 forward 7 unknown #
vertex $-1 $456 $779 #
ellipse-curve $-1 -47.082712812596199 36.281857673323366 15.298033956039101 0 0.62932039886446345 0.77714595512881146 1 0 0 1 I I #
point $-1 -46.082712812596199 37.576547983936244 16.896843306336297 #
edge $-1 $780 1 $780 0 $459 $-1 forward 7 unknown #
vertex $-1 $460 $781 #
ellipse-curve $-1 -43.258930612261139 36.281857673323366 15.298033956039101 0 0.62932039886446345 0.77714595512881146 1 0 0 1 I I #
point $-1 -42.258930612261139 37.576547983936244 16.896843306336297 #
edge $-1 $782 1 $782 0 $463 $-1 forward 7 unknown #
vertex $-1 $464 $783 #
ellipse-curve $-1 -39.435148411926079 36.281857673323366 15.298033956039101 0 0.62932039886446345 0.77714595512881146 1 0 0 1 I I #
point $-1 -38.435148411926079 37.576547983936244 16.896843306336297 #
loop $-1 $-1 $475 $467 #
plane-surface $-1 0 40.307327908216479 0 0 -1 0 0 0 -1 forward_v I I I I #
coedge $-1 $636 $470 $472 $640 reversed $305 $-1 #
coedge $-1 $470 $635 $784 $785 reversed $305 $-1 #
coedge $-1 $478 $473 $470 $638 forward $468 $-1 #
edge $-1 $641 8.5660041037333841 $786 14.027563952293832 $637 $787 forward 7 unknown #
coedge $-1 $472 $471 $644 $788 reversed $192 $-1 #
edge $-1 $789 -80.614655816432943 $641 -73.586941379374338 $635 $790 forward 7 unknown #
vertex $-1 $474 $791 #
straight-curve $-1 -7.2098217687101922 34.845768059656024 19.108185332653932 1 0 0 I I #
coedge $-1 $784 $475 $478 $648 reversed $633 $-1 #
coedge $-1 $475 $784 $639 $788 forward $633 $-1 #
vertex $-1 $476 $792 #
straight-curve $-1 -20.792613871312149 40.307327908216479 78.956831204792465 0 0 1 I I #
straight-curve $-1 -20.792613871312149 -22.342025783625701 65.417948632737676 0 0.77714595512881146 -0.62932039886446345 I I #
edge $-1 $786 8.0466732035286199 $479 20.792613871312149 $643 $793 forward 7 unknown #
point $-1 -20.792613871312149 40.307327908216479 19.108185332653935 #
point $-1 -20.792613871312149 34.845768059656031 19.108185332653932 #
edge $-1 $794 1 $794 0 $482 $-1 forward 7 unknown #
vertex $-1 $483 $795 #
ellipse-curve $-1 -18.243425737755437 36.281857673323366 15.298033956039101 0 0.62932039886446345 0.77714595512881146 1 0 0 1 I I #
point $-1 -17.243425737755437 37.576547983936244 16.896843306336297 #
edge $-1 $796 1 $796 0 $486 $-1 forward 7 unknown #
vertex $-1 $487 $797 #
ellipse-curve $-1 -14.419643537420384 36.281857673323366 15.298033956039101 0 0.62932039886446345 0.77714595512881146 1 0 0 1 I I #
point $-1 -13.419643537420384 37.576547983936244 16.896843306336297 #
edge $-1 $798 1 $798 0 $490 $-1 forward 7 unknown #
vertex $-1 $491 $799 #
ellipse-curve $-1 -10.595861337085324 36.281857673323366 15.298033956039101 0 0.62932039886446345 0.77714595512881146 1 0 0 1 I I #
point $-1 -9.5958613370853243 37.576547983936244 16.896843306336297 #
loop $-1 $-1 $502 $494 #
plane-surface $-1 0 40.307327908216479 0 0 -1 0 0 0 -1 forward_v I I I I #
coedge $-1 $666 $497 $499 $670 reversed $334 $-1 #
coedge $-1 $497 $665 $800 $801 reversed $334 $-1 #
coedge $-1 $505 $500 $497 $668 forward $495 $-1 #
edge $-1 $671 8.5660041037333841 $802 14.027563952293832 $667 $803 forward 7 unknown #
coedge $-1 $499 $498 $674 $804 reversed $211 $-1 #
edge $-1 $805 -80.614655816432943 $671 -73.586941379374338 $665 $806 forward 7 unknown #
vertex $-1 $501 $807 #
straight-curve $-1 7.2098217687101851 34.845768059656024 19.108185332653932 1 0 0 I I #
coedge $-1 $800 $502 $505 $678 reversed $663 $-1 #
coedge $-1 $502 $800 $669 $804 forward $663 $-1 #
vertex $-1 $503 $808 #
straight-curve $-1 8.0466732035286057 40.307327908216479 78.956831204792465 0 0 1 I I #
straight-curve $-1 8.0466732035286057 -22.342025783625701 65.417948632737676 0 0.77714595512881146 -0.62932039886446345 I I #
edge $-1 $802 -20.792613871312135 $506 -8.0466732035286057 $673 $809 forward 7 unknown #
point $-1 8.0466732035286057 40.307327908216479 19.108185332653935 #
point $-1 8.0466732035286057 34.845768059656031 19.108185332653932 #
edge $-1 $810 1 $810 0 $509 $-1 forward 7 unknown #
vertex $-1 $510 $811 #
ellipse-curve $-1 10.595861337085324 36.281857673323366 15.298033956039101 0 0.62932039886446345 0.77714595512881146 1 0 0 1 I I #
point $-1 11.595861337085324 37.576547983936244 16.896843306336297 #
edge $-1 $812 1 $812 0 $513 $-1 forward 7 unknown #
vertex $-1 $514 $813 #
ellipse-curve $-1 14.41964353742037 36.281857673323366 15.298033956039101 0 0.62932039886446345 0.77714595512881146 1 0 0 1 I I #
point $-1 15.41964353742037 37.576547983936244 16.896843306336297 #
edge $-1 $814 1 $814 0 $517 $-1 forward 7 unknown #
vertex $-1 $518 $815 #
ellipse-curve $-1 18.24342573775543 36.281857673323366 15.298033956039101 0 0.62932039886446345 0.77714595512881146 1 0 0 1 I I #
point $-1 19.24342573775543 37.576547983936244 16.896843306336297 #
loop $-1 $-1 $529 $521 #
plane-surface $-1 0 40.307327908216479 0 0 -1 0 0 0 -1 forward_v I I I I #
coedge $-1 $696 $524 $526 $700 reversed $363 $-1 #
coedge $-1 $524 $695 $816 $817 reversed $363 $-1 #
coedge $-1 $532 $527 $524 $698 forward $522 $-1 #
edge $-1 $701 8.5660041037333841 $818 14.027563952293832 $697 $819 forward 7 unknown #
coedge $-1 $526 $525 $704 $820 reversed $230 $-1 #
edge $-1 $821 -80.614655816432943 $701 -73.586941379374338 $695 $822 forward 7 unknown #
vertex $-1 $528 $823 #
straight-curve $-1 21.629465306130562 34.845768059656024 19.108185332653932 1 0 0 I I #
coedge $-1 $816 $529 $532 $708 reversed $693 $-1 #
coedge $-1 $529 $816 $699 $820 forward $693 $-1 #
vertex $-1 $530 $824 #
straight-curve $-1 36.88596027836936 40.307327908216479 78.956831204792465 0 0 1 I I #
straight-curve $-1 36.88596027836936 -22.342025783625701 65.417948632737676 0 0.77714595512881146 -0.62932039886446345 I I #
edge $-1 $818 -49.631900946152889 $533 -36.88596027836936 $703 $825 forward 7 unknown #
point $-1 36.88596027836936 40.307327908216479 19.108185332653935 #
point $-1 36.88596027836936 34.845768059656031 19.108185332653932 #
edge $-1 $826 1 $826 0 $536 $-1 forward 7 unknown #
vertex $-1 $537 $827 #
ellipse-curve $-1 39.435148411926079 36.281857673323366 15.298033956039101 0 0.62932039886446345 0.77714595512881146 1 0 0 1 I I #
point $-1 40.435148411926079 37.576547983936244 16.896843306336297 #
edge $-1 $828 1 $828 0 $540 $-1 forward 7 unknown #
vertex $-1 $541 $829 #
ellipse-curve $-1 43.258930612261125 36.281857673323366 15.298033956039101 0 0.62932039886446345 0.77714595512881146 1 0 0 1 I I #
point $-1 44.258930612261125 37.576547983936244 16.896843306336297 #
edge $-1 $830 1 $830 0 $544 $-1 forward 7 unknown #
vertex $-1 $545 $831 #
ellipse-curve $-1 47.082712812596185 36.281857673323366 15.298033956039101 0 0.62932039886446345 0.77714595512881146 1 0 0 1 I I #
point $-1 48.082712812596185 37.576547983936244 16.896843306336297 #
plane-surface $-1 0 0 19.108185332653935 0 0 1 1 0 0 forward_v I I I I #
coedge $-1 $734 $733 $726 $832 forward $549 $-1 #
coedge $-1 $726 $551 $553 $730 reversed $392 $-1 #
coedge $-1 $551 $725 $724 $832 reversed $392 $-1 #
coedge $-1 $559 $554 $551 $728 forward $560 $-1 #
edge $-1 $731 -36.054248529344363 $833 -30.856253491943988 $727 $834 forward 7 unknown #
coedge $-1 $553 $552 $734 $835 reversed $249 $-1 #
edge $-1 $836 0 $731 10.092448349392267 $725 $837 forward 7 unknown #
vertex $-1 $555 $838 #
straight-curve $-1 -8.4279907453149825 -35.109332870816104 19.108185332653935 -1 0 0 I I #
coedge $-1 $724 $556 $559 $738 reversed $549 $-1 #
coedge $-1 $556 $724 $729 $835 forward $549 $-1 #
vertex $-1 $557 $839 #
straight-curve $-1 -3.9563943116119891 -40.307327908216479 35.878483789280367 0 0 1 I I #
straight-curve $-1 -3.9563943116119891 -40.307327908216479 10.45726854445676 0 -0.51503806187062418 -0.85716730853699208 I I #
edge $-1 $833 -29.755568669647943 $561 -3.9563943116119891 $733 $840 forward 7 unknown #
point $-1 -3.9563943116119891 -40.307327908216479 19.108185332653935 #
point $-1 -3.9563943116119891 -35.109332870816104 19.108185332653935 #
edge $-1 $841 1 $841 0 $564 $-1 forward 7 unknown #
vertex $-1 $565 $842 #
ellipse-curve $-1 -24.595733798040747 -33.325311420877938 12.149143538597366 0 -0.85716730853699208 0.51503806187062418 1.5 0 0 1 I I #
point $-1 -23.095733798040747 -37.708330389516291 14.782726938555346 #
edge $-1 $843 1 $843 0 $568 $-1 forward 7 unknown #
vertex $-1 $569 $844 #
ellipse-curve $-1 -16.855981490629965 -33.325311420877938 12.149143538597366 0 -0.85716730853699208 0.51503806187062418 1.5 0 0 1 I I #
point $-1 -15.355981490629965 -37.708330389516291 14.782726938555346 #
edge $-1 $845 1 $845 0 $572 $-1 forward 7 unknown #
vertex $-1 $573 $846 #
ellipse-curve $-1 -9.1162291832191826 -33.325311420877938 12.149143538597366 0 -0.85716730853699208 0.51503806187062418 1.5 0 0 1 I I #
point $-1 -7.6162291832191826 -37.708330389516291 14.782726938555346 #
plane-surface $-1 59.509872737815485 0 0 -1 0 0 0 0 1 forward_v I I I I #
coedge $-1 $581 $579 $583 $758 reversed $421 $-1 #
edge $-1 $594 -19.108185332653935 $760 19.108185332653935 $593 $847 forward 7 unknown #
vertex $-1 $758 $848 #
straight-curve $-1 -59.509872737815485 -40.307327908216479 0 0 0 -1 I I #
edge $-1 $756 -40.307327908216479 $760 40.307327908216479 $754 $849 forward 7 unknown #
straight-curve $-1 0 -40.307327908216479 -19.108185332653935 -1 0 0 I I #
vertex $-1 $586 $850 #
straight-curve $-1 0 40.307327908216479 -19.108185332653935 1 0 0 I I #
point $-1 59.509872737815485 40.307327908216479 -19.108185332653935 #
point $-1 59.509872737815485 -40.307327908216479 -19.108185332653935 #
straight-curve $-1 -59.509872737815485 0 19.108185332653935 0 -1 0 I I #
point $-1 -59.509872737815485 40.307327908216479 19.108185332653935 #
point $-1 -59.509872737815485 -40.307327908216479 19.108185332653935 #
straight-curve $-1 59.509872737815485 -40.307327908216479 0 0 0 -1 I I #
straight-curve $-1 59.509872737815485 40.307327908216479 0 0 0 -1 I I #
edge $-1 $770 59.848645872138533 $773 64.271329924773809 $604 $851 forward 7 unknown #
vertex $-1 $618 $852 #
straight-curve $-1 -36.885960278369375 26.279763955922647 19.108185332653932 0 1 0 I I #
edge $-1 $773 15.256494972238805 $615 28.002435640022334 $614 $853 forward 7 unknown #
vertex $-1 $772 $854 #
straight-curve $-1 -36.885960278369375 -22.342025783625701 65.417948632737676 0 -0.77714595512881146 0.62932039886446345 I I #
point $-1 -36.885960278369375 34.845768059656031 19.108185332653932 #
point $-1 -49.631900946152903 40.307327908216479 14.685501280018656 #
straight-curve $-1 0 40.307327908216479 19.108185332653935 -1 0 0 I I #
vertex $-1 $621 $855 #
point $-1 -46.082712812596199 36.281857673323366 15.298033956039101 #
vertex $-1 $625 $856 #
point $-1 -42.258930612261139 36.281857673323366 15.298033956039101 #
vertex $-1 $629 $857 #
point $-1 -38.435148411926079 36.281857673323366 15.298033956039101 #
coedge $-1 $644 $643 $636 $785 forward $633 $-1 #
edge $-1 $786 59.848645872138533 $789 64.271329924773809 $784 $858 forward 7 unknown #
vertex $-1 $648 $859 #
straight-curve $-1 -8.0466732035286199 26.279763955922647 19.108185332653932 0 1 0 I I #
edge $-1 $789 0.83685143481842772 $645 13.582792102601957 $644 $860 forward 7 unknown #
vertex $-1 $788 $861 #
straight-curve $-1 -8.0466732035286199 -22.342025783625701 65.417948632737676 0 -0.77714595512881146 0.62932039886446345 I I #
point $-1 -8.0466732035286199 34.845768059656031 19.108185332653932 #
point $-1 -20.792613871312149 40.307327908216479 14.685501280018656 #
straight-curve $-1 0 40.307327908216479 19.108185332653935 -1 0 0 I I #
vertex $-1 $651 $862 #
point $-1 -17.243425737755437 36.281857673323366 15.298033956039101 #
vertex $-1 $655 $863 #
point $-1 -13.419643537420384 36.281857673323366 15.298033956039101 #
vertex $-1 $659 $864 #
point $-1 -9.5958613370853243 36.281857673323366 15.298033956039101 #
coedge $-1 $674 $673 $666 $801 forward $663 $-1 #
edge $-1 $802 59.848645872138533 $805 64.271329924773809 $800 $865 forward 7 unknown #
vertex $-1 $678 $866 #
straight-curve $-1 20.792613871312135 26.279763955922647 19.108185332653932 0 1 0 I I #
edge $-1 $805 -13.58279210260195 $675 -0.83685143481842061 $674 $867 forward 7 unknown #
vertex $-1 $804 $868 #
straight-curve $-1 20.792613871312135 -22.342025783625701 65.417948632737676 0 -0.77714595512881146 0.62932039886446345 I I #
point $-1 20.792613871312135 34.845768059656031 19.108185332653932 #
point $-1 8.0466732035286057 40.307327908216479 14.685501280018656 #
straight-curve $-1 0 40.307327908216479 19.108185332653935 -1 0 0 I I #
vertex $-1 $681 $869 #
point $-1 11.595861337085324 36.281857673323366 15.298033956039101 #
vertex $-1 $685 $870 #
point $-1 15.41964353742037 36.281857673323366 15.298033956039101 #
vertex $-1 $689 $871 #
point $-1 19.24342573775543 36.281857673323366 15.298033956039101 #
coedge $-1 $704 $703 $696 $817 forward $693 $-1 #
edge $-1 $818 59.848645872138533 $821 64.271329924773809 $816 $872 forward 7 unknown #
vertex $-1 $708 $873 #
straight-curve $-1 49.631900946152889 26.279763955922647 19.108185332653932 0 1 0 I I #
edge $-1 $821 -28.002435640022327 $705 -15.256494972238798 $704 $874 forward 7 unknown #
vertex $-1 $820 $875 #
straight-curve $-1 49.631900946152889 -22.342025783625701 65.417948632737676 0 -0.77714595512881146 0.62932039886446345 I I #
point $-1 49.631900946152889 34.845768059656031 19.108185332653932 #
point $-1 36.88596027836936 40.307327908216479 14.685501280018656 #
straight-curve $-1 0 40.307327908216479 19.108185332653935 -1 0 0 I I #
vertex $-1 $711 $876 #
point $-1 40.435148411926079 36.281857673323366 15.298033956039101 #
vertex $-1 $715 $877 #
point $-1 44.258930612261125 36.281857673323366 15.298033956039101 #
vertex $-1 $719 $878 #
point $-1 48.082712812596185 36.281857673323366 15.298033956039101 #
edge $-1 $833 16.770298456626431 $836 25.421215244823607 $724 $879 forward 7 unknown #
vertex $-1 $738 $880 #
straight-curve $-1 -29.755568669647943 -71.163581400160467 19.108185332653935 0 -1 0 I I #
edge $-1 $836 -21.32757792433296 $735 4.4715964337029934 $734 $881 forward 7 unknown #
vertex $-1 $835 $882 #
straight-curve $-1 -29.755568669647943 -40.307327908216479 10.45726854445676 0 0.51503806187062418 0.85716730853699208 I I #
point $-1 -29.755568669647943 -35.109332870816104 19.108185332653935 #
point $-1 -3.9563943116119891 -40.307327908216479 10.45726854445676 #
straight-curve $-1 0 -40.307327908216479 19.108185332653935 1 0 0 I I #
vertex $-1 $741 $883 #
point $-1 -23.095733798040747 -33.325311420877938 12.149143538597366 #
vertex $-1 $745 $884 #
point $-1 -15.355981490629965 -33.325311420877938 12.149143538597366 #
vertex $-1 $749 $885 #
point $-1 -7.6162291832191826 -33.325311420877938 12.149143538597366 #
straight-curve $-1 -59.509872737815485 40.307327908216479 0 0 0 -1 I I #
point $-1 -59.509872737815485 -40.307327908216479 -19.108185332653935 #
straight-curve $-1 -59.509872737815485 0 -19.108185332653935 0 1 0 I I #
point $-1 -59.509872737815485 40.307327908216479 -19.108185332653935 #
straight-curve $-1 -36.885960278369375 40.307327908216479 78.956831204792465 0 0 -1 I I #
point $-1 -36.885960278369375 40.307327908216479 19.108185332653935 #
straight-curve $-1 -21.62946530613057 40.307327908216479 14.685501280018659 -1 0 0 I I #
point $-1 -36.885960278369375 40.307327908216479 14.685501280018656 #
point $-1 -47.082712812596199 35.652537274458901 14.520888000910288 #
point $-1 -43.258930612261139 35.652537274458901 14.520888000910288 #
point $-1 -39.435148411926079 35.652537274458901 14.520888000910288 #
straight-curve $-1 -8.0466732035286199 40.307327908216479 78.956831204792465 0 0 -1 I I #
point $-1 -8.0466732035286199 40.307327908216479 19.108185332653935 #
straight-curve $-1 -7.2098217687101922 40.307327908216479 14.685501280018659 -1 0 0 I I #
point $-1 -8.0466732035286199 40.307327908216479 14.685501280018656 #
point $-1 -18.243425737755437 35.652537274458901 14.520888000910288 #
point $-1 -14.419643537420384 35.652537274458901 14.520888000910288 #
point $-1 -10.595861337085324 35.652537274458901 14.520888000910288 #
straight-curve $-1 20.792613871312135 40.307327908216479 78.956831204792465 0 0 -1 I I #
point $-1 20.792613871312135 40.307327908216479 19.108185332653935 #
straight-curve $-1 7.2098217687101851 40.307327908216479 14.685501280018659 -1 0 0 I I #
point $-1 20.792613871312135 40.307327908216479 14.685501280018656 #
point $-1 10.595861337085324 35.652537274458901 14.520888000910288 #
point $-1 14.41964353742037 35.652537274458901 14.520888000910288 #
point $-1 18.24342573775543 35.652537274458901 14.520888000910288 #
straight-curve $-1 49.631900946152889 40.307327908216479 78.956831204792465 0 0 -1 I I #
point $-1 49.631900946152889 40.307327908216479 19.108185332653935 #
straight-curve $-1 21.629465306130562 40.307327908216479 14.685501280018659 -1 0 0 I I #
point $-1 49.631900946152889 40.307327908216479 14.685501280018656 #
point $-1 39.435148411926079 35.652537274458901 14.520888000910288 #
point $-1 43.258930612261125 35.652537274458901 14.520888000910288 #
point $-1 47.082712812596185 35.652537274458901 14.520888000910288 #
straight-curve $-1 -29.755568669647943 -40.307327908216479 35.878483789280367 0 0 -1 I I #
point $-1 -29.755568669647943 -40.307327908216479 19.108185332653935 #
straight-curve $-1 -8.4279907453149825 -40.307327908216479 10.457268544456765 1 0 0 I I #
point $-1 -29.755568669647943 -40.307327908216479 10.45726854445676 #
point $-1 -24.595733798040747 -32.039560458072444 11.37658644579143 #
point $-1 -16.855981490629965 -32.039560458072444 11.37658644579143 #
point $-1 -9.1162291832191826 -32.039560458072444 11.37658644579143 #
End-of-ACIS-data 