500 0 6 0           
7 Unknown 11 ACIS 5.0 NT 24 Fri Mar 26 16:57:55 1999 
-1 9.9999999999999995e-007 1e-010 
body $-1 $6 $-1 $7 #
body $-1 $8 $-1 $9 #
body $-1 $10 $-1 $11 #
body $-1 $12 $-1 $13 #
body $-1 $14 $-1 $15 #
body $-1 $16 $-1 $17 #
lump $-1 $-1 $18 $0 #
transform $-1 1 0 0 0 1 0 0 0 1 65.320596942045341 42.754520544320215 12.338881299092506 1 rotate no_reflect no_shear #
lump $-1 $-1 $19 $1 #
transform $-1 1 0 0 0 1 0 0 0 1 65.320596942045341 42.754520544320215 12.338881299092506 1 rotate no_reflect no_shear #
lump $-1 $-1 $20 $2 #
transform $-1 1 0 0 0 1 0 0 0 1 65.320596942045341 42.754520544320215 12.338881299092506 1 rotate no_reflect no_shear #
lump $-1 $-1 $21 $3 #
transform $-1 1 0 0 0 1 0 0 0 1 65.320596942045341 42.754520544320215 12.338881299092506 1 rotate no_reflect no_shear #
lump $-1 $-1 $22 $4 #
transform $-1 1 0 0 0 1 0 0 0 1 65.320596942045341 42.754520544320215 12.338881299092506 1 rotate no_reflect no_shear #
lump $-1 $-1 $23 $5 #
transform $-1 1 0 0 0 1 0 0 0 1 65.320596942045341 42.754520544320215 12.338881299092506 1 rotate no_reflect no_shear #
shell $-1 $-1 $-1 $24 $-1 $6 #
shell $-1 $-1 $-1 $25 $-1 $8 #
shell $-1 $-1 $-1 $26 $-1 $10 #
shell $-1 $-1 $-1 $27 $-1 $12 #
shell $-1 $-1 $-1 $28 $-1 $14 #
shell $-1 $-1 $-1 $29 $-1 $16 #
face $-1 $30 $31 $18 $-1 $32 forward single #
face $-1 $33 $34 $19 $-1 $35 reversed single #
face $-1 $36 $37 $20 $-1 $38 reversed single #
face $-1 $39 $40 $21 $-1 $41 forward single #
face $-1 $42 $43 $22 $-1 $44 forward single #
face $-1 $45 $46 $23 $-1 $47 forward single #
face $-1 $48 $49 $18 $-1 $50 reversed single #
loop $-1 $-1 $51 $24 #
plane-surface $-1 0 0 12.338881299092506 0 0 1 1 0 0 forward_v I I I I #
face $-1 $52 $53 $19 $-1 $54 reversed single #
loop $-1 $-1 $55 $25 #
plane-surface $-1 -63.329889950631646 -31.69184566733313 0 0 -1 0 0 0 -1 forward_v I I I I #
face $-1 $56 $57 $20 $-1 $58 reversed single #
loop $-1 $-1 $59 $26 #
plane-surface $-1 65.3205990856695 15.047454837170584 187.10159514816064 0 -1 0 -0.70710678939079041 0 -0.70710677298230451 forward_v I I I I #
face $-1 $60 $61 $21 $-1 $62 forward single #
loop $-1 $63 $64 $27 #
cone-surface $-1 59.611919175916206 0.72608874832558001 6.6302034335722926 -0.70710678939079041 0 -0.70710677298230451 0.70710677298230451 0 -0.70710678939079041 1 I I 0 1 1 forward I I I I #
face $-1 $65 $66 $22 $-1 $67 forward single #
loop $-1 $68 $69 $28 #
cone-surface $-1 59.611919175916206 6.0966010316424573 6.6302034335722926 -0.70710678939079041 0 -0.70710677298230451 0.70710677298230451 0 -0.70710678939079041 1 I I 0 1 1 forward I I I I #
face $-1 $70 $71 $23 $-1 $72 forward single #
loop $-1 $73 $74 $29 #
cone-surface $-1 59.611919175916206 11.467113314959335 6.6302034335722926 -0.70710678939079041 0 -0.70710677298230451 0.70710677298230451 0 -0.70710678939079041 1 I I 0 1 1 forward I I I I #
face $-1 $75 $76 $18 $-1 $77 reversed single #
loop $-1 $-1 $78 $30 #
plane-surface $-1 0 0 -12.338881299092506 0 0 1 1 0 0 forward_v I I I I #
coedge $-1 $79 $80 $81 $82 forward $31 $-1 #
face $-1 $83 $84 $19 $-1 $85 forward single #
loop $-1 $-1 $86 $33 #
plane-surface $-1 -61.33918295921795 -37.223183105826671 0 -1 0 0 0 0 1 forward_v I I I I #
coedge $-1 $87 $88 $89 $90 forward $34 $-1 #
face $-1 $91 $92 $20 $-1 $93 reversed single #
loop $-1 $-1 $94 $36 #
plane-surface $-1 -27.056676083889627 6.0966010316424573 94.724322122225701 0.70710678939079041 0 0.70710677298230451 0.70710677298230451 0 -0.70710678939079041 forward_v I I I I #
coedge $-1 $95 $96 $97 $98 reversed $37 $-1 #
face $-1 $-1 $99 $21 $-1 $100 forward single #
loop $-1 $101 $102 $39 #
cone-surface $-1 58.545605072373846 0.72608874832558001 5.5638893547738633 -0.70710678939079041 0 -0.70710677298230451 0.35355338649115226 0 -0.35355339469539521 1 I I -0.70710678118654746 0.70710678118654746 0.5 forward I I I I #
loop $-1 $-1 $103 $27 #
coedge $-1 $64 $64 $104 $105 reversed $40 $-1 #
face $-1 $-1 $106 $22 $-1 $107 forward single #
loop $-1 $108 $109 $42 #
cone-surface $-1 58.545605072373846 6.0966010316424573 5.5638893547738633 -0.70710678939079041 0 -0.70710677298230451 0.35355338649115226 0 -0.35355339469539521 1 I I -0.70710678118654746 0.70710678118654746 0.5 forward I I I I #
loop $-1 $-1 $110 $28 #
coedge $-1 $69 $69 $111 $112 reversed $43 $-1 #
face $-1 $-1 $113 $23 $-1 $114 forward single #
loop $-1 $115 $116 $45 #
cone-surface $-1 58.545605072373846 11.467113314959335 5.5638893547738633 -0.70710678939079041 0 -0.70710677298230451 0.35355338649115226 0 -0.35355339469539521 1 I I -0.70710678118654746 0.70710678118654746 0.5 forward I I I I #
loop $-1 $-1 $117 $29 #
coedge $-1 $74 $74 $118 $119 reversed $46 $-1 #
face $-1 $120 $121 $18 $-1 $122 reversed single #
loop $-1 $-1 $123 $48 #
plane-surface $-1 0 -42.754520544320215 0 0 1 0 0 0 1 forward_v I I I I #
coedge $-1 $124 $125 $126 $127 forward $49 $-1 #
coedge $-1 $128 $51 $129 $130 forward $31 $-1 #
coedge $-1 $51 $128 $131 $132 forward $31 $-1 #
coedge $-1 $133 $134 $51 $82 reversed $135 $-1 #
edge $-1 $136 -42.754520544320215 $137 42.754520544320215 $81 $138 forward 7 unknown #
face $-1 $139 $140 $19 $-1 $141 reversed single #
loop $-1 $-1 $142 $52 #
plane-surface $-1 0 0 12.338881299092506 0 0 1 1 0 0 forward_v I I I I #
coedge $-1 $143 $144 $145 $146 reversed $53 $-1 #
coedge $-1 $147 $55 $148 $149 reversed $34 $-1 #
coedge $-1 $55 $147 $150 $151 reversed $34 $-1 #
coedge $-1 $144 $143 $55 $90 reversed $53 $-1 #
edge $-1 $152 -12.338881299092506 $153 12.338881299092506 $89 $154 forward 7 unknown #
face $-1 $155 $156 $20 $-1 $157 reversed single #
loop $-1 $-1 $158 $56 #
plane-surface $-1 65.3205990856695 -2.8542527738856691 187.10159514816064 0 1 0 0.70710678939079041 0 0.70710677298230451 forward_v I I I I #
coedge $-1 $159 $160 $161 $162 reversed $57 $-1 #
coedge $-1 $96 $59 $163 $164 reversed $37 $-1 #
coedge $-1 $59 $95 $159 $165 reversed $37 $-1 #
coedge $-1 $161 $166 $59 $98 forward $167 $-1 #
edge $-1 $168 -32.660297399210592 $169 -22.66846328464618 $97 $170 forward 7 unknown #
loop $-1 $-1 $104 $60 #
plane-surface $-1 -27.056676083889627 6.0966010316424573 94.724322122225701 0.70710678939079041 0 0.70710677298230451 0.70710677298230451 0 -0.70710678939079041 forward_v I I I I #
loop $-1 $-1 $171 $39 #
coedge $-1 $102 $102 $103 $172 reversed $61 $-1 #
coedge $-1 $103 $103 $102 $172 forward $63 $-1 #
coedge $-1 $104 $104 $64 $105 forward $99 $-1 #
edge $-1 $173 0 $173 6.2831853071796004 $104 $174 forward 7 unknown #
loop $-1 $-1 $111 $65 #
plane-surface $-1 -27.056676083889627 6.0966010316424573 94.724322122225701 0.70710678939079041 0 0.70710677298230451 0.70710677298230451 0 -0.70710678939079041 forward_v I I I I #
loop $-1 $-1 $175 $42 #
coedge $-1 $109 $109 $110 $176 reversed $66 $-1 #
coedge $-1 $110 $110 $109 $176 forward $68 $-1 #
coedge $-1 $111 $111 $69 $112 forward $106 $-1 #
edge $-1 $177 0 $177 6.2831853071796004 $111 $178 forward 7 unknown #
loop $-1 $-1 $118 $70 #
plane-surface $-1 -27.056676083889627 6.0966010316424573 94.724322122225701 0.70710678939079041 0 0.70710677298230451 0.70710677298230451 0 -0.70710678939079041 forward_v I I I I #
loop $-1 $-1 $179 $45 #
coedge $-1 $116 $116 $117 $180 reversed $71 $-1 #
coedge $-1 $117 $117 $116 $180 forward $73 $-1 #
coedge $-1 $118 $118 $74 $119 forward $113 $-1 #
edge $-1 $181 0 $181 6.2831853071796004 $118 $182 forward 7 unknown #
face $-1 $183 $184 $18 $-1 $185 reversed single #
loop $-1 $-1 $186 $75 #
plane-surface $-1 -65.320596942045341 0 0 1 0 0 0 0 -1 forward_v I I I I #
coedge $-1 $187 $131 $188 $189 forward $76 $-1 #
coedge $-1 $190 $78 $187 $191 forward $49 $-1 #
coedge $-1 $78 $190 $192 $193 forward $49 $-1 #
coedge $-1 $134 $133 $78 $127 reversed $135 $-1 #
edge $-1 $194 -42.754520544320215 $195 42.754520544320215 $126 $196 forward 7 unknown #
coedge $-1 $80 $79 $197 $198 forward $31 $-1 #
coedge $-1 $199 $200 $79 $130 reversed $184 $-1 #
edge $-1 $137 -65.320596942045341 $201 65.320596942045341 $129 $202 forward 7 unknown #
coedge $-1 $123 $203 $80 $132 reversed $76 $-1 #
edge $-1 $204 -65.320596942045341 $136 65.320596942045341 $131 $205 forward 7 unknown #
coedge $-1 $126 $81 $203 $206 forward $135 $-1 #
coedge $-1 $81 $126 $199 $207 reversed $135 $-1 #
loop $-1 $-1 $133 $183 #
vertex $-1 $82 $208 #
vertex $-1 $82 $209 #
straight-curve $-1 65.320596942045341 0 12.338881299092506 0 1 0 I I #
face $-1 $210 $211 $19 $-1 $212 reversed single #
loop $-1 $-1 $213 $83 #
plane-surface $-1 -65.320596942045341 0 0 1 0 0 0 0 -1 forward_v I I I I #
coedge $-1 $150 $214 $144 $215 forward $84 $-1 #
coedge $-1 $89 $86 $216 $217 reversed $53 $-1 #
coedge $-1 $86 $89 $142 $215 reversed $53 $-1 #
coedge $-1 $218 $219 $86 $146 forward $220 $-1 #
edge $-1 $221 -12.338881299092506 $222 12.338881299092506 $145 $223 forward 7 unknown #
coedge $-1 $88 $87 $213 $224 reversed $34 $-1 #
coedge $-1 $216 $225 $87 $149 forward $211 $-1 #
edge $-1 $226 -33.655651966729522 $153 -29.674237983902128 $148 $227 forward 7 unknown #
coedge $-1 $228 $142 $88 $151 forward $84 $-1 #
edge $-1 $152 29.674237983902128 $229 33.655651966729522 $150 $230 forward 7 unknown #
vertex $-1 $151 $231 #
vertex $-1 $149 $232 #
straight-curve $-1 -61.33918295921795 -31.69184566733313 0 0 0 -1 I I #
face $-1 $-1 $167 $20 $-1 $233 forward single #
loop $-1 $-1 $234 $91 #
plane-surface $-1 65.320596942045341 0 0 -1 0 0 0 0 1 forward_v I I I I #
coedge $-1 $235 $236 $237 $238 reversed $92 $-1 #
coedge $-1 $239 $94 $96 $165 forward $57 $-1 #
coedge $-1 $94 $239 $235 $240 forward $57 $-1 #
coedge $-1 $237 $97 $94 $162 forward $167 $-1 #
edge $-1 $169 -11.999154321349355 $241 5.9025532897068977 $161 $242 forward 7 unknown #
coedge $-1 $243 $244 $95 $164 forward $156 $-1 #
edge $-1 $245 -91.203750621413775 $168 -81.211916274987814 $163 $246 forward 7 unknown #
edge $-1 $169 116.51060640234071 $245 130.64119388409077 $96 $247 forward 7 unknown #
coedge $-1 $97 $237 $243 $248 forward $167 $-1 #
loop $-1 $-1 $237 $155 #
vertex $-1 $164 $249 #
vertex $-1 $98 $250 #
straight-curve $-1 32.66029954283475 15.047454837170584 12.338881299092506 -1 0 0 I I #
coedge $-1 $171 $171 $-1 $251 reversed $101 $-1 #
edge $-1 $252 0 $252 6.2831853071796004 $102 $253 forward 7 unknown #
vertex $-1 $105 $254 #
ellipse-curve $-1 60.324679884763128 0.72608874832558001 7.3429641258795293 0.70710678939079041 0 0.70710677298230451 0.70710677298230451 0 -0.70710678939079041 1 I I #
coedge $-1 $175 $175 $-1 $255 reversed $108 $-1 #
edge $-1 $256 0 $256 6.2831853071796004 $109 $257 forward 7 unknown #
vertex $-1 $112 $258 #
ellipse-curve $-1 60.324679884763128 6.0966010316424573 7.3429641258795293 0.70710678939079041 0 0.70710677298230451 0.70710677298230451 0 -0.70710678939079041 1 I I #
coedge $-1 $179 $179 $-1 $259 reversed $115 $-1 #
edge $-1 $260 0 $260 6.2831853071796004 $116 $261 forward 7 unknown #
vertex $-1 $119 $262 #
ellipse-curve $-1 60.324679884763128 11.467113314959335 7.3429641258795293 0.70710678939079041 0 0.70710677298230451 0.70710677298230451 0 -0.70710678939079041 1 I I #
face $-1 $-1 $135 $18 $-1 $263 reversed single #
loop $-1 $-1 $199 $120 #
plane-surface $-1 0 42.754520544320215 0 0 -1 0 0 0 -1 forward_v I I I I #
coedge $-1 $264 $197 $200 $265 forward $121 $-1 #
coedge $-1 $203 $123 $124 $191 reversed $76 $-1 #
coedge $-1 $197 $264 $123 $189 reversed $121 $-1 #
edge $-1 $204 -12.338881299092506 $266 12.338881299092506 $188 $267 forward 7 unknown #
coedge $-1 $125 $124 $264 $268 forward $49 $-1 #
edge $-1 $195 -65.320596942045341 $266 65.320596942045341 $187 $269 forward 7 unknown #
coedge $-1 $200 $199 $125 $193 reversed $184 $-1 #
edge $-1 $270 -65.320596942045341 $194 65.320596942045341 $192 $271 forward 7 unknown #
vertex $-1 $127 $272 #
vertex $-1 $206 $273 #
straight-curve $-1 65.320596942045341 0 -12.338881299092506 0 -1 0 I I #
coedge $-1 $186 $188 $128 $198 reversed $121 $-1 #
edge $-1 $201 -42.754520544320215 $204 42.754520544320215 $197 $274 forward 7 unknown #
coedge $-1 $192 $129 $134 $207 forward $184 $-1 #
coedge $-1 $129 $192 $186 $265 reversed $184 $-1 #
vertex $-1 $130 $275 #
straight-curve $-1 0 42.754520544320215 12.338881299092506 -1 0 0 I I #
coedge $-1 $131 $187 $133 $206 reversed $76 $-1 #
vertex $-1 $198 $276 #
straight-curve $-1 0 -42.754520544320215 12.338881299092506 1 0 0 I I #
edge $-1 $136 -12.338881299092506 $195 12.338881299092506 $133 $277 forward 7 unknown #
edge $-1 $137 -12.338881299092506 $194 12.338881299092506 $134 $278 forward 7 unknown #
point $-1 65.320596942045341 -42.754520544320215 12.338881299092506 #
point $-1 65.320596942045341 42.754520544320215 12.338881299092506 #
face $-1 $-1 $220 $19 $-1 $279 reversed single #
loop $-1 $-1 $216 $139 #
plane-surface $-1 0 0 -12.338881299092506 0 0 1 1 0 0 forward_v I I I I #
coedge $-1 $280 $281 $147 $224 forward $140 $-1 #
coedge $-1 $142 $228 $218 $282 forward $84 $-1 #
edge $-1 $222 -24.14292899140688 $152 -13.080254114419795 $142 $283 forward 7 unknown #
coedge $-1 $284 $148 $143 $217 forward $211 $-1 #
edge $-1 $153 13.080254114419795 $221 24.14292899140688 $216 $285 forward 7 unknown #
coedge $-1 $286 $145 $214 $282 reversed $220 $-1 #
coedge $-1 $145 $286 $284 $287 reversed $220 $-1 #
loop $-1 $-1 $145 $210 #
vertex $-1 $287 $288 #
vertex $-1 $146 $289 #
straight-curve $-1 -61.33918295921795 -42.754520544320215 0 0 0 1 I I #
edge $-1 $229 -12.338881299092506 $226 12.338881299092506 $213 $290 forward 7 unknown #
coedge $-1 $148 $284 $280 $291 forward $211 $-1 #
vertex $-1 $149 $292 #
straight-curve $-1 -31.664944975315823 -31.69184566733313 -12.338881299092506 1 0 0 I I #
coedge $-1 $214 $150 $281 $293 forward $84 $-1 #
vertex $-1 $293 $294 #
straight-curve $-1 -31.664944975315823 -31.69184566733313 12.338881299092506 -1 0 0 I I #
point $-1 -61.33918295921795 -31.69184566733313 12.338881299092506 #
point $-1 -61.33918295921795 -31.69184566733313 -12.338881299092506 #
plane-surface $-1 0 0 12.338881299092506 0 0 1 1 0 0 forward_v I I I I #
coedge $-1 $244 $243 $236 $295 forward $156 $-1 #
coedge $-1 $236 $158 $160 $240 reversed $92 $-1 #
coedge $-1 $158 $235 $234 $295 reversed $92 $-1 #
coedge $-1 $166 $161 $158 $238 forward $167 $-1 #
edge $-1 $241 22.66846328464618 $296 32.660297399210592 $237 $297 forward 7 unknown #
coedge $-1 $160 $159 $244 $298 reversed $57 $-1 #
edge $-1 $299 -130.64119388409077 $241 -116.51060640234071 $235 $300 forward 7 unknown #
vertex $-1 $162 $301 #
straight-curve $-1 55.328762827480929 3.0483005158212286 12.338881299092499 0 -1 0 I I #
coedge $-1 $234 $163 $166 $248 reversed $156 $-1 #
coedge $-1 $163 $234 $239 $298 forward $156 $-1 #
vertex $-1 $164 $302 #
straight-curve $-1 65.320596942045341 15.047454837170584 93.55079757408032 0 0 1 I I #
straight-curve $-1 -27.056676083889627 15.047454837170584 94.724322122225701 0.70710677298230451 0 -0.70710678939079041 I I #
edge $-1 $296 -2.8542527738856691 $168 15.047454837170584 $243 $303 forward 7 unknown #
point $-1 65.320596942045341 15.047454837170584 12.338881299092506 #
point $-1 55.328762827480929 15.047454837170584 12.338881299092506 #
edge $-1 $304 1 $304 0 $171 $-1 forward 7 unknown #
vertex $-1 $172 $305 #
ellipse-curve $-1 58.899158467069242 0.72608874832558001 5.9174427412650159 0.70710678939079041 0 0.70710677298230451 0.70710677298230451 0 -0.70710678939079041 1 I I #
point $-1 61.031786657745471 0.72608874832558001 6.6358573364887778 #
edge $-1 $306 1 $306 0 $175 $-1 forward 7 unknown #
vertex $-1 $176 $307 #
ellipse-curve $-1 58.899158467069242 6.0966010316424573 5.9174427412650159 0.70710678939079041 0 0.70710677298230451 0.70710677298230451 0 -0.70710678939079041 1 I I #
point $-1 61.031786657745471 6.0966010316424573 6.6358573364887778 #
edge $-1 $308 1 $308 0 $179 $-1 forward 7 unknown #
vertex $-1 $180 $309 #
ellipse-curve $-1 58.899158467069242 11.467113314959335 5.9174427412650159 0.70710678939079041 0 0.70710677298230451 0.70710677298230451 0 -0.70710678939079041 1 I I #
point $-1 61.031786657745471 11.467113314959335 6.6358573364887778 #
plane-surface $-1 65.320596942045341 0 0 -1 0 0 0 0 1 forward_v I I I I #
coedge $-1 $188 $186 $190 $268 reversed $121 $-1 #
edge $-1 $201 -12.338881299092506 $270 12.338881299092506 $200 $310 forward 7 unknown #
vertex $-1 $268 $311 #
straight-curve $-1 -65.320596942045341 -42.754520544320215 0 0 0 -1 I I #
edge $-1 $266 -42.754520544320215 $270 42.754520544320215 $264 $312 forward 7 unknown #
straight-curve $-1 0 -42.754520544320215 -12.338881299092506 -1 0 0 I I #
vertex $-1 $193 $313 #
straight-curve $-1 0 42.754520544320215 -12.338881299092506 1 0 0 I I #
point $-1 65.320596942045341 42.754520544320215 -12.338881299092506 #
point $-1 65.320596942045341 -42.754520544320215 -12.338881299092506 #
straight-curve $-1 -65.320596942045341 0 12.338881299092506 0 -1 0 I I #
point $-1 -65.320596942045341 42.754520544320215 12.338881299092506 #
point $-1 -65.320596942045341 -42.754520544320215 12.338881299092506 #
straight-curve $-1 65.320596942045341 -42.754520544320215 0 0 0 -1 I I #
straight-curve $-1 65.320596942045341 42.754520544320215 0 0 0 -1 I I #
plane-surface $-1 0 -42.754520544320215 0 0 1 0 0 0 1 forward_v I I I I #
coedge $-1 $314 $213 $225 $291 reversed $140 $-1 #
coedge $-1 $213 $314 $228 $293 reversed $140 $-1 #
edge $-1 $315 -65.320596942045341 $222 -61.33918295921795 $218 $316 forward 7 unknown #
straight-curve $-1 -61.33918295921795 -18.611591552913335 12.338881299092506 0 1 0 I I #
coedge $-1 $225 $216 $219 $287 forward $211 $-1 #
straight-curve $-1 -61.33918295921795 -18.611591552913335 -12.338881299092506 0 -1 0 I I #
coedge $-1 $219 $218 $314 $317 forward $220 $-1 #
edge $-1 $221 61.33918295921795 $318 65.320596942045341 $219 $319 forward 7 unknown #
point $-1 -61.33918295921795 -42.754520544320215 -12.338881299092506 #
point $-1 -61.33918295921795 -42.754520544320215 12.338881299092506 #
straight-curve $-1 -65.320596942045341 -31.69184566733313 0 0 0 -1 I I #
edge $-1 $318 -42.754520544320215 $226 -31.69184566733313 $280 $320 forward 7 unknown #
point $-1 -65.320596942045341 -31.69184566733313 -12.338881299092506 #
edge $-1 $229 31.69184566733313 $315 42.754520544320215 $281 $321 forward 7 unknown #
point $-1 -65.320596942045341 -31.69184566733313 12.338881299092506 #
edge $-1 $296 81.211916274987814 $299 91.203750621413775 $234 $322 forward 7 unknown #
vertex $-1 $248 $323 #
straight-curve $-1 32.66029954283475 -2.8542527738856691 12.338881299092506 1 0 0 I I #
edge $-1 $299 -5.9025532897068977 $245 11.999154321349355 $244 $324 forward 7 unknown #
vertex $-1 $298 $325 #
straight-curve $-1 -27.056676083889627 -2.8542527738856691 94.724322122225701 -0.70710677298230451 0 0.70710678939079041 I I #
point $-1 55.328762827480929 -2.8542527738856691 12.338881299092506 #
point $-1 65.320596942045341 15.047454837170584 2.3470469526665454 #
straight-curve $-1 65.320596942045341 0 12.338881299092506 0 1 0 I I #
vertex $-1 $251 $326 #
point $-1 59.606265240051542 0.72608874832558001 5.2103359518742254 #
vertex $-1 $255 $327 #
point $-1 59.606265240051542 6.0966010316424573 5.2103359518742254 #
vertex $-1 $259 $328 #
point $-1 59.606265240051542 11.467113314959335 5.2103359518742254 #
straight-curve $-1 -65.320596942045341 42.754520544320215 0 0 0 -1 I I #
point $-1 -65.320596942045341 -42.754520544320215 -12.338881299092506 #
straight-curve $-1 -65.320596942045341 0 -12.338881299092506 0 1 0 I I #
point $-1 -65.320596942045341 42.754520544320215 -12.338881299092506 #
coedge $-1 $281 $280 $286 $317 reversed $140 $-1 #
vertex $-1 $293 $329 #
straight-curve $-1 0 -42.754520544320215 12.338881299092506 1 0 0 I I #
edge $-1 $315 -12.338881299092506 $318 12.338881299092506 $314 $330 forward 7 unknown #
vertex $-1 $291 $331 #
straight-curve $-1 0 -42.754520544320215 -12.338881299092506 -1 0 0 I I #
straight-curve $-1 -65.320596942045341 0 -12.338881299092506 0 1 0 I I #
straight-curve $-1 -65.320596942045341 0 12.338881299092506 0 -1 0 I I #
straight-curve $-1 65.320596942045341 -2.8542527738856691 93.55079757408032 0 0 -1 I I #
point $-1 65.320596942045341 -2.8542527738856691 12.338881299092506 #
straight-curve $-1 65.320596942045341 3.0483005158212286 2.3470469526665454 0 1 0 I I #
point $-1 65.320596942045341 -2.8542527738856691 2.3470469526665454 #
point $-1 58.19205167767845 0.72608874832558001 5.2103359682827106 #
point $-1 58.19205167767845 6.0966010316424573 5.2103359682827106 #
point $-1 58.19205167767845 11.467113314959335 5.2103359682827106 #
point $-1 -65.320596942045341 -42.754520544320215 12.338881299092506 #
straight-curve $-1 -65.320596942045341 -42.754520544320215 0 0 0 -1 I I #
point $-1 -65.320596942045341 -42.754520544320215 -12.338881299092506 #
End-of-ACIS-data 