500 0 6 0           
7 Unknown 11 ACIS 5.0 NT 24 Fri Mar 26 16:24:09 1999 
-1 9.9999999999999995e-007 1e-010 
body $-1 $6 $-1 $7 #
body $-1 $8 $-1 $9 #
body $-1 $10 $-1 $11 #
body $-1 $12 $-1 $13 #
body $-1 $14 $-1 $15 #
body $-1 $16 $-1 $17 #
lump $-1 $-1 $18 $0 #
transform $-1 1 0 0 0 1 0 0 0 1 52.445448164311657 29.589495535558015 7.8757525960072394 1 rotate no_reflect no_shear #
lump $-1 $-1 $19 $1 #
transform $-1 1 0 0 0 1 0 0 0 1 52.445448164311657 29.589495535558015 7.8757525960072394 1 rotate no_reflect no_shear #
lump $-1 $-1 $20 $2 #
transform $-1 1 0 0 0 1 0 0 0 1 52.445448164311657 29.589495535558015 7.8757525960072394 1 rotate no_reflect no_shear #
lump $-1 $-1 $21 $3 #
transform $-1 1 0 0 0 1 0 0 0 1 52.445448164311657 29.589495535558015 7.8757525960072394 1 rotate no_reflect no_shear #
lump $-1 $-1 $22 $4 #
transform $-1 1 0 0 0 1 0 0 0 1 52.445448164311657 29.589495535558015 7.8757525960072394 1 rotate no_reflect no_shear #
lump $-1 $-1 $23 $5 #
transform $-1 1 0 0 0 1 0 0 0 1 52.445448164311657 29.589495535558015 7.8757525960072394 1 rotate no_reflect no_shear #
shell $-1 $-1 $-1 $24 $-1 $6 #
shell $-1 $-1 $-1 $25 $-1 $8 #
shell $-1 $-1 $-1 $26 $-1 $10 #
shell $-1 $-1 $-1 $27 $-1 $12 #
shell $-1 $-1 $-1 $28 $-1 $14 #
shell $-1 $-1 $-1 $29 $-1 $16 #
face $-1 $30 $31 $18 $-1 $32 forward single #
face $-1 $33 $34 $19 $-1 $35 forward single #
face $-1 $36 $37 $20 $-1 $38 reversed single #
face $-1 $39 $40 $21 $-1 $41 forward single #
face $-1 $42 $43 $22 $-1 $44 reversed single #
face $-1 $45 $46 $23 $-1 $47 forward single #
face $-1 $48 $49 $18 $-1 $50 reversed single #
loop $-1 $-1 $51 $24 #
plane-surface $-1 0 0 7.8757525960072394 0 0 1 1 0 0 forward_v I I I I #
face $-1 $52 $53 $19 $-1 $54 reversed single #
loop $-1 $-1 $55 $25 #
plane-surface $-1 -52.445448164311657 0 0 1 0 0 0 0 -1 forward_v I I I I #
face $-1 $56 $57 $20 $-1 $58 reversed single #
loop $-1 $-1 $59 $26 #
plane-surface $-1 -20.857913313982444 -89.75244283277101 89.776422592904524 -1 0 0 0 -0.57357644374324357 0.81915203911291934 forward_v I I I I #
face $-1 $60 $61 $21 $-1 $62 forward single #
loop $-1 $63 $64 $27 #
cone-surface $-1 -26.169638836811302 -25.743668422500686 4.4734308024266944 0 0.57357644374324357 -0.81915203911291934 1 0 0 1 I I 0 1 1 forward I I I I #
face $-1 $65 $66 $22 $-1 $67 reversed single #
loop $-1 $-1 $68 $28 #
plane-surface $-1 -31.48136435964016 41.275851624221076 123.72009783578842 1 0 0 0 -0.57357644374324357 -0.81915203911291934 forward_v I I I I #
face $-1 $69 $70 $23 $-1 $71 forward single #
loop $-1 $72 $73 $29 #
cone-surface $-1 -26.169638836811302 25.743668422500686 4.473430802426698 0 -0.57357644374324357 -0.81915203911291934 1 0 0 1 I I 0 1 1 forward I I I I #
face $-1 $74 $75 $18 $-1 $76 reversed single #
loop $-1 $-1 $77 $30 #
plane-surface $-1 0 0 -7.8757525960072394 0 0 1 1 0 0 forward_v I I I I #
coedge $-1 $78 $79 $80 $81 forward $31 $-1 #
face $-1 $82 $83 $19 $-1 $84 forward single #
loop $-1 $-1 $85 $33 #
plane-surface $-1 0 29.589495535558015 0 0 -1 0 0 0 -1 forward_v I I I I #
coedge $-1 $86 $87 $88 $89 forward $34 $-1 #
face $-1 $90 $91 $20 $-1 $92 reversed single #
loop $-1 $-1 $93 $36 #
plane-surface $-1 -26.169638836811302 -29.589495535558008 3.8548309809309131 0 -0.57357644374324357 0.81915203911291934 1 0 0 forward_v I I I I #
coedge $-1 $94 $95 $96 $97 reversed $37 $-1 #
face $-1 $-1 $98 $21 $-1 $99 forward single #
loop $-1 $100 $101 $39 #
cone-surface $-1 -26.169638836811302 -24.482288627343479 2.6719937968278478 0 0.57357644374324357 -0.81915203911291934 0.5 0 0 1 I I -0.70710678118654724 0.70710678118654791 0.5 forward I I I I #
loop $-1 $-1 $102 $27 #
coedge $-1 $64 $64 $103 $104 reversed $40 $-1 #
face $-1 $105 $106 $22 $-1 $107 reversed single #
loop $-1 $-1 $108 $42 #
plane-surface $-1 -26.169638836811302 -18.887095672991926 37.798506223814812 0 0.57357644374324357 0.81915203911291934 1 0 0 forward_v I I I I #
coedge $-1 $109 $110 $111 $112 reversed $43 $-1 #
face $-1 $-1 $113 $23 $-1 $114 forward single #
loop $-1 $115 $116 $45 #
cone-surface $-1 -26.169638836811302 24.482288627343479 2.6719937968278513 0 -0.57357644374324357 -0.81915203911291934 0.5 0 0 1 I I -0.70710678118654724 0.70710678118654791 0.5 forward I I I I #
loop $-1 $-1 $117 $29 #
coedge $-1 $73 $73 $118 $119 reversed $46 $-1 #
face $-1 $120 $121 $18 $-1 $122 reversed single #
loop $-1 $-1 $123 $48 #
plane-surface $-1 0 -29.589495535558015 0 0 1 0 0 0 1 forward_v I I I I #
coedge $-1 $124 $125 $126 $127 forward $49 $-1 #
coedge $-1 $128 $51 $129 $130 forward $31 $-1 #
coedge $-1 $51 $128 $131 $132 forward $31 $-1 #
coedge $-1 $133 $134 $51 $81 reversed $135 $-1 #
edge $-1 $136 -29.589495535558015 $137 29.589495535558015 $80 $138 forward 7 unknown #
face $-1 $139 $140 $19 $-1 $141 reversed single #
loop $-1 $-1 $88 $52 #
plane-surface $-1 -57.415565539355917 0 2.1341312207522085 0 0 1 1 0 0 forward_v I I I I #
coedge $-1 $142 $143 $87 $144 forward $53 $-1 #
coedge $-1 $145 $55 $146 $147 reversed $34 $-1 #
coedge $-1 $55 $145 $85 $144 reversed $34 $-1 #
coedge $-1 $148 $149 $55 $89 reversed $83 $-1 #
edge $-1 $150 -29.589495535558015 $151 29.589495535558015 $88 $152 forward 7 unknown #
face $-1 $153 $154 $20 $-1 $155 reversed single #
loop $-1 $-1 $156 $56 #
plane-surface $-1 -31.48136435964016 -89.75244283277101 89.776422592904524 1 0 0 0 0.57357644374324357 -0.81915203911291934 forward_v I I I I #
coedge $-1 $157 $158 $159 $160 reversed $57 $-1 #
coedge $-1 $95 $59 $161 $162 reversed $37 $-1 #
coedge $-1 $59 $94 $157 $163 reversed $37 $-1 #
coedge $-1 $159 $164 $59 $97 forward $165 $-1 #
edge $-1 $166 15.28672588082749 $167 21.029196960370996 $96 $168 forward 7 unknown #
loop $-1 $-1 $103 $60 #
plane-surface $-1 -26.169638836811302 -29.589495535558008 3.8548309809309131 0 -0.57357644374324357 0.81915203911291934 1 0 0 forward_v I I I I #
loop $-1 $-1 $169 $39 #
coedge $-1 $101 $101 $102 $170 reversed $61 $-1 #
coedge $-1 $102 $102 $101 $170 forward $63 $-1 #
coedge $-1 $103 $103 $64 $104 forward $98 $-1 #
edge $-1 $171 -2.6173793305482722e-015 $171 6.2831853071795978 $103 $172 forward 7 unknown #
face $-1 $173 $174 $22 $-1 $175 forward single #
loop $-1 $-1 $176 $65 #
plane-surface $-1 -20.857913313982444 41.275851624221076 123.72009783578842 -1 0 0 0 0.57357644374324357 0.81915203911291934 forward_v I I I I #
coedge $-1 $177 $178 $179 $180 reversed $66 $-1 #
coedge $-1 $110 $68 $181 $182 reversed $43 $-1 #
coedge $-1 $68 $109 $177 $183 reversed $43 $-1 #
coedge $-1 $179 $184 $68 $112 forward $174 $-1 #
edge $-1 $185 -8.9515697234474771 $186 -3.2090986439039781 $111 $187 forward 7 unknown #
loop $-1 $-1 $118 $69 #
plane-surface $-1 -26.169638836811302 -18.887095672991926 37.798506223814812 0 0.57357644374324357 0.81915203911291934 1 0 0 forward_v I I I I #
loop $-1 $-1 $188 $45 #
coedge $-1 $116 $116 $117 $189 reversed $70 $-1 #
coedge $-1 $117 $117 $116 $189 forward $72 $-1 #
coedge $-1 $118 $118 $73 $119 forward $113 $-1 #
edge $-1 $190 3.2732342118421233e-015 $190 6.283185307179604 $118 $191 forward 7 unknown #
face $-1 $192 $193 $18 $-1 $194 reversed single #
loop $-1 $-1 $195 $74 #
plane-surface $-1 -52.445448164311657 0 0 1 0 0 0 0 -1 forward_v I I I I #
coedge $-1 $196 $131 $197 $198 forward $75 $-1 #
coedge $-1 $199 $77 $196 $200 forward $49 $-1 #
coedge $-1 $77 $199 $201 $202 forward $49 $-1 #
coedge $-1 $134 $133 $77 $127 reversed $135 $-1 #
edge $-1 $203 -29.589495535558015 $204 29.589495535558015 $126 $205 forward 7 unknown #
coedge $-1 $79 $78 $206 $207 forward $31 $-1 #
coedge $-1 $208 $209 $78 $130 reversed $193 $-1 #
edge $-1 $137 -52.445448164311657 $210 52.445448164311657 $129 $211 forward 7 unknown #
coedge $-1 $123 $212 $79 $132 reversed $75 $-1 #
edge $-1 $213 -52.445448164311657 $136 52.445448164311657 $131 $214 forward 7 unknown #
coedge $-1 $126 $80 $212 $215 forward $135 $-1 #
coedge $-1 $80 $126 $208 $216 reversed $135 $-1 #
loop $-1 $-1 $133 $192 #
vertex $-1 $81 $217 #
vertex $-1 $81 $218 #
straight-curve $-1 52.445448164311657 0 7.8757525960072394 0 1 0 I I #
face $-1 $219 $220 $19 $-1 $221 reversed single #
loop $-1 $-1 $222 $82 #
plane-surface $-1 -57.415565539355917 0 -0.86586877924779149 0 0 1 1 0 0 forward_v I I I I #
coedge $-1 $223 $85 $224 $225 reversed $53 $-1 #
coedge $-1 $85 $223 $148 $226 reversed $53 $-1 #
edge $-1 $150 -2.1341312207522085 $227 0.86586877924779149 $85 $228 forward 7 unknown #
coedge $-1 $87 $86 $222 $229 forward $34 $-1 #
coedge $-1 $230 $231 $86 $147 forward $232 $-1 #
edge $-1 $233 -0.86586877924779149 $151 2.1341312207522085 $146 $234 forward 7 unknown #
coedge $-1 $235 $88 $143 $226 forward $83 $-1 #
coedge $-1 $88 $235 $230 $236 forward $83 $-1 #
vertex $-1 $144 $237 #
vertex $-1 $236 $238 #
straight-curve $-1 -52.445448164311657 0 2.1341312207522085 0 -1 0 I I #
face $-1 $-1 $165 $20 $-1 $239 forward single #
loop $-1 $-1 $240 $90 #
plane-surface $-1 0 -29.589495535558015 0 0 1 0 0 0 1 forward_v I I I I #
coedge $-1 $241 $242 $243 $244 reversed $91 $-1 #
coedge $-1 $245 $93 $95 $163 forward $57 $-1 #
coedge $-1 $93 $245 $241 $246 forward $57 $-1 #
coedge $-1 $243 $96 $93 $160 forward $165 $-1 #
edge $-1 $167 7.7730938955767925 $247 18.396544941234509 $159 $248 forward 7 unknown #
coedge $-1 $249 $250 $94 $162 forward $154 $-1 #
edge $-1 $251 -41.033380315521356 $166 -37.012458700445023 $161 $252 forward 7 unknown #
edge $-1 $167 -7.0102628149008428 $251 8.6223355153435888e-015 $95 $253 forward 7 unknown #
coedge $-1 $96 $243 $249 $254 forward $165 $-1 #
loop $-1 $-1 $243 $153 #
vertex $-1 $162 $255 #
vertex $-1 $97 $256 #
straight-curve $-1 -20.857913313982444 -44.876221416385505 7.8757525960072385 0 1 0 I I #
coedge $-1 $169 $169 $-1 $257 reversed $100 $-1 #
edge $-1 $258 0 $258 6.2831853071796004 $101 $259 forward 7 unknown #
vertex $-1 $104 $260 #
ellipse-curve $-1 -26.169638836811302 -26.718259995786266 5.8652917884690705 0 -0.57357644374324357 0.81915203911291934 1 0 0 1 I I #
face $-1 $-1 $261 $22 $-1 $262 reversed single #
loop $-1 $-1 $111 $105 #
plane-surface $-1 0 0 7.8757525960072394 0 0 1 1 0 0 forward_v I I I I #
coedge $-1 $263 $264 $265 $266 reversed $106 $-1 #
coedge $-1 $267 $108 $110 $183 forward $66 $-1 #
coedge $-1 $108 $267 $263 $268 forward $66 $-1 #
coedge $-1 $265 $111 $108 $180 forward $174 $-1 #
edge $-1 $186 -18.396544941234509 $269 -7.7730938955767925 $179 $270 forward 7 unknown #
coedge $-1 $271 $272 $109 $182 forward $261 $-1 #
edge $-1 $273 -58.005217936963298 $185 -53.984296321886973 $181 $274 forward 7 unknown #
edge $-1 $186 52.168728256215189 $273 59.17899107111603 $110 $275 forward 7 unknown #
coedge $-1 $111 $265 $271 $276 forward $174 $-1 #
vertex $-1 $112 $277 #
vertex $-1 $112 $278 #
straight-curve $-1 -31.48136435964016 20.637925812110538 7.8757525960072385 0 -1 0 I I #
coedge $-1 $188 $188 $-1 $279 reversed $115 $-1 #
edge $-1 $280 0 $280 6.2831853071796004 $116 $281 forward 7 unknown #
vertex $-1 $119 $282 #
ellipse-curve $-1 -26.169638836811302 26.718259995786269 5.8652917884690803 0 0.57357644374324357 0.81915203911291934 1 0 0 1 I I #
face $-1 $-1 $135 $18 $-1 $283 reversed single #
loop $-1 $-1 $208 $120 #
plane-surface $-1 0 29.589495535558015 0 0 -1 0 0 0 -1 forward_v I I I I #
coedge $-1 $284 $206 $209 $285 forward $121 $-1 #
coedge $-1 $212 $123 $124 $200 reversed $75 $-1 #
coedge $-1 $206 $284 $123 $198 reversed $121 $-1 #
edge $-1 $213 -7.8757525960072394 $286 7.8757525960072394 $197 $287 forward 7 unknown #
coedge $-1 $125 $124 $284 $288 forward $49 $-1 #
edge $-1 $204 -52.445448164311657 $286 52.445448164311657 $196 $289 forward 7 unknown #
coedge $-1 $209 $208 $125 $202 reversed $193 $-1 #
edge $-1 $290 -52.445448164311657 $203 52.445448164311657 $201 $291 forward 7 unknown #
vertex $-1 $127 $292 #
vertex $-1 $215 $293 #
straight-curve $-1 52.445448164311657 0 -7.8757525960072394 0 -1 0 I I #
coedge $-1 $195 $197 $128 $207 reversed $121 $-1 #
edge $-1 $210 -29.589495535558015 $213 29.589495535558015 $206 $294 forward 7 unknown #
coedge $-1 $201 $129 $134 $216 forward $193 $-1 #
coedge $-1 $129 $201 $195 $285 reversed $193 $-1 #
vertex $-1 $130 $295 #
straight-curve $-1 0 29.589495535558015 7.8757525960072394 -1 0 0 I I #
coedge $-1 $131 $196 $133 $215 reversed $75 $-1 #
vertex $-1 $207 $296 #
straight-curve $-1 0 -29.589495535558015 7.8757525960072394 1 0 0 I I #
edge $-1 $136 -7.8757525960072394 $204 7.8757525960072394 $133 $297 forward 7 unknown #
edge $-1 $137 -7.8757525960072394 $203 7.8757525960072394 $134 $298 forward 7 unknown #
point $-1 52.445448164311657 -29.589495535558015 7.8757525960072394 #
point $-1 52.445448164311657 29.589495535558015 7.8757525960072394 #
face $-1 $-1 $232 $19 $-1 $299 reversed single #
loop $-1 $-1 $300 $139 #
plane-surface $-1 -62.385682914400178 0 0.63413122075220851 1 0 0 0 0 -1 forward_v I I I I #
coedge $-1 $301 $224 $145 $229 reversed $140 $-1 #
coedge $-1 $143 $142 $300 $302 reversed $53 $-1 #
coedge $-1 $222 $303 $142 $225 forward $140 $-1 #
edge $-1 $304 -4.9701173750442607 $227 4.9701173750442607 $142 $305 forward 7 unknown #
edge $-1 $150 -4.9701173750442607 $306 4.9701173750442607 $143 $307 forward 7 unknown #
vertex $-1 $144 $308 #
straight-curve $-1 -52.445448164311657 29.589495535558015 0 0 0 -1 I I #
edge $-1 $233 -29.589495535558015 $227 29.589495535558015 $222 $309 forward 7 unknown #
coedge $-1 $310 $146 $149 $236 reversed $232 $-1 #
coedge $-1 $146 $310 $301 $311 reversed $232 $-1 #
loop $-1 $-1 $146 $219 #
vertex $-1 $147 $312 #
straight-curve $-1 -52.445448164311657 -29.589495535558015 0 0 0 1 I I #
coedge $-1 $149 $148 $313 $314 forward $83 $-1 #
edge $-1 $315 -4.9701173750442607 $151 4.9701173750442607 $230 $316 forward 7 unknown #
point $-1 -52.445448164311657 29.589495535558015 2.1341312207522085 #
point $-1 -52.445448164311657 -29.589495535558015 2.1341312207522085 #
plane-surface $-1 0 0 7.8757525960072394 0 0 1 1 0 0 forward_v I I I I #
coedge $-1 $250 $249 $242 $317 forward $154 $-1 #
coedge $-1 $242 $156 $158 $246 reversed $91 $-1 #
coedge $-1 $156 $241 $240 $317 reversed $91 $-1 #
coedge $-1 $164 $159 $156 $244 forward $165 $-1 #
edge $-1 $247 -21.029196960370996 $318 -15.28672588082749 $243 $319 forward 7 unknown #
coedge $-1 $158 $157 $250 $320 reversed $57 $-1 #
edge $-1 $321 -8.6223355153435888e-015 $247 7.0102628149008428 $241 $322 forward 7 unknown #
vertex $-1 $160 $323 #
straight-curve $-1 -13.084819418405651 -23.847024456014509 7.8757525960072403 -1 0 0 I I #
coedge $-1 $240 $161 $164 $254 reversed $154 $-1 #
coedge $-1 $161 $240 $245 $320 forward $154 $-1 #
vertex $-1 $162 $324 #
straight-curve $-1 -20.857913313982444 -29.589495535558015 44.888211296452262 0 0 1 I I #
straight-curve $-1 -20.857913313982444 -29.589495535558008 3.8548309809309131 0 -0.81915203911291934 -0.57357644374324357 I I #
edge $-1 $318 -31.48136435964016 $166 -20.857913313982444 $249 $325 forward 7 unknown #
point $-1 -20.857913313982444 -29.589495535558015 7.8757525960072394 #
point $-1 -20.857913313982444 -23.847024456014509 7.8757525960072394 #
edge $-1 $326 1 $326 0 $169 $-1 forward 7 unknown #
vertex $-1 $170 $327 #
ellipse-curve $-1 -26.169638836811302 -24.7690768492151 3.0815698163843077 0 -0.57357644374324357 0.81915203911291934 1 0 0 1 I I #
point $-1 -25.169638836811302 -26.718259995786276 5.8652917884690812 #
loop $-1 $-1 $181 $173 #
plane-surface $-1 0 29.589495535558015 0 0 -1 0 0 0 -1 forward_v I I I I #
coedge $-1 $264 $176 $178 $268 reversed $106 $-1 #
coedge $-1 $176 $263 $328 $329 reversed $106 $-1 #
coedge $-1 $184 $179 $176 $266 forward $174 $-1 #
edge $-1 $269 3.2090986439039781 $330 8.9515697234474771 $265 $331 forward 7 unknown #
coedge $-1 $178 $177 $272 $332 reversed $66 $-1 #
edge $-1 $333 -59.17899107111603 $269 -52.168728256215189 $263 $334 forward 7 unknown #
vertex $-1 $180 $335 #
straight-curve $-1 -13.084819418405651 23.847024456014516 7.8757525960072421 1 0 0 I I #
coedge $-1 $328 $181 $184 $276 reversed $261 $-1 #
coedge $-1 $181 $328 $267 $332 forward $261 $-1 #
vertex $-1 $182 $336 #
straight-curve $-1 -31.48136435964016 29.589495535558015 61.860048917894211 0 0 1 I I #
straight-curve $-1 -31.48136435964016 -18.887095672991926 37.798506223814812 0 0.81915203911291934 -0.57357644374324357 I I #
edge $-1 $330 20.857913313982444 $185 31.48136435964016 $271 $337 forward 7 unknown #
point $-1 -31.48136435964016 29.589495535558015 7.8757525960072394 #
point $-1 -31.48136435964016 23.847024456014516 7.8757525960072385 #
edge $-1 $338 1 $338 0 $188 $-1 forward 7 unknown #
vertex $-1 $189 $339 #
ellipse-curve $-1 -26.169638836811302 24.7690768492151 3.0815698163843113 0 0.57357644374324357 0.81915203911291934 1 0 0 1 I I #
point $-1 -25.169638836811302 26.718259995786276 5.8652917884690847 #
plane-surface $-1 52.445448164311657 0 0 -1 0 0 0 0 1 forward_v I I I I #
coedge $-1 $197 $195 $199 $288 reversed $121 $-1 #
edge $-1 $210 -7.8757525960072394 $290 7.8757525960072394 $209 $340 forward 7 unknown #
vertex $-1 $288 $341 #
straight-curve $-1 -52.445448164311657 -29.589495535558015 0 0 0 -1 I I #
edge $-1 $286 -29.589495535558015 $290 29.589495535558015 $284 $342 forward 7 unknown #
straight-curve $-1 0 -29.589495535558015 -7.8757525960072394 -1 0 0 I I #
vertex $-1 $202 $343 #
straight-curve $-1 0 29.589495535558015 -7.8757525960072394 1 0 0 I I #
point $-1 52.445448164311657 29.589495535558015 -7.8757525960072394 #
point $-1 52.445448164311657 -29.589495535558015 -7.8757525960072394 #
straight-curve $-1 -52.445448164311657 0 7.8757525960072394 0 -1 0 I I #
point $-1 -52.445448164311657 29.589495535558015 7.8757525960072394 #
point $-1 -52.445448164311657 -29.589495535558015 7.8757525960072394 #
straight-curve $-1 52.445448164311657 -29.589495535558015 0 0 0 -1 I I #
straight-curve $-1 52.445448164311657 29.589495535558015 0 0 0 -1 I I #
plane-surface $-1 0 -29.589495535558015 0 0 1 0 0 0 1 forward_v I I I I #
coedge $-1 $344 $313 $223 $302 forward $220 $-1 #
coedge $-1 $303 $222 $231 $311 forward $140 $-1 #
edge $-1 $306 -1.5 $304 1.5 $223 $345 forward 7 unknown #
coedge $-1 $224 $301 $344 $346 forward $140 $-1 #
vertex $-1 $225 $347 #
straight-curve $-1 -57.415565539355917 29.589495535558015 -0.86586877924779149 1 0 0 I I #
vertex $-1 $226 $348 #
straight-curve $-1 -57.415565539355917 29.589495535558015 2.1341312207522085 -1 0 0 I I #
point $-1 -52.445448164311657 29.589495535558015 -0.86586877924779149 #
straight-curve $-1 -52.445448164311657 0 -0.86586877924779149 0 1 0 I I #
coedge $-1 $231 $230 $349 $350 forward $232 $-1 #
edge $-1 $233 -4.9701173750442607 $351 4.9701173750442607 $231 $352 forward 7 unknown #
point $-1 -52.445448164311657 -29.589495535558015 -0.86586877924779149 #
coedge $-1 $300 $349 $235 $314 reversed $220 $-1 #
edge $-1 $306 -29.589495535558015 $315 29.589495535558015 $313 $353 forward 7 unknown #
vertex $-1 $314 $354 #
straight-curve $-1 -57.415565539355917 -29.589495535558015 2.1341312207522085 1 0 0 I I #
edge $-1 $318 37.012458700445023 $321 41.033380315521356 $240 $355 forward 7 unknown #
vertex $-1 $254 $356 #
straight-curve $-1 -31.48136435964016 -44.876221416385505 7.8757525960072385 0 -1 0 I I #
edge $-1 $321 -18.396544941234509 $251 -7.7730938955767925 $250 $357 forward 7 unknown #
vertex $-1 $320 $358 #
straight-curve $-1 -31.48136435964016 -29.589495535558008 3.8548309809309131 0 0.81915203911291934 0.57357644374324357 I I #
point $-1 -31.48136435964016 -23.847024456014509 7.8757525960072394 #
point $-1 -20.857913313982444 -29.589495535558015 3.8548309809309083 #
straight-curve $-1 0 -29.589495535558015 7.8757525960072394 1 0 0 I I #
vertex $-1 $257 $359 #
point $-1 -25.169638836811302 -24.7690768492151 3.0815698163843077 #
coedge $-1 $272 $271 $264 $329 forward $261 $-1 #
edge $-1 $330 53.984296321886973 $333 58.005217936963298 $328 $360 forward 7 unknown #
vertex $-1 $276 $361 #
straight-curve $-1 -20.857913313982444 20.637925812110538 7.8757525960072385 0 1 0 I I #
edge $-1 $333 7.7730938955767925 $273 18.396544941234509 $272 $362 forward 7 unknown #
vertex $-1 $332 $363 #
straight-curve $-1 -20.857913313982444 -18.887095672991926 37.798506223814812 0 -0.81915203911291934 0.57357644374324357 I I #
point $-1 -20.857913313982444 23.847024456014516 7.8757525960072385 #
point $-1 -31.48136435964016 29.589495535558015 3.8548309809309131 #
straight-curve $-1 0 29.589495535558015 7.8757525960072394 -1 0 0 I I #
vertex $-1 $279 $364 #
point $-1 -25.169638836811302 24.7690768492151 3.0815698163843113 #
straight-curve $-1 -52.445448164311657 29.589495535558015 0 0 0 -1 I I #
point $-1 -52.445448164311657 -29.589495535558015 -7.8757525960072394 #
straight-curve $-1 -52.445448164311657 0 -7.8757525960072394 0 1 0 I I #
point $-1 -52.445448164311657 29.589495535558015 -7.8757525960072394 #
coedge $-1 $349 $300 $303 $346 reversed $220 $-1 #
straight-curve $-1 -62.385682914400178 29.589495535558015 0.63413122075220851 0 0 -1 I I #
edge $-1 $351 -29.589495535558015 $304 29.589495535558015 $344 $365 forward 7 unknown #
point $-1 -62.385682914400178 29.589495535558015 -0.86586877924779149 #
point $-1 -62.385682914400178 29.589495535558015 2.1341312207522085 #
coedge $-1 $313 $344 $310 $350 reversed $220 $-1 #
edge $-1 $315 -1.5 $351 1.5 $349 $366 forward 7 unknown #
vertex $-1 $346 $367 #
straight-curve $-1 -57.415565539355917 -29.589495535558015 -0.86586877924779149 -1 0 0 I I #
straight-curve $-1 -62.385682914400178 0 2.1341312207522085 0 -1 0 I I #
point $-1 -62.385682914400178 -29.589495535558015 2.1341312207522085 #
straight-curve $-1 -31.48136435964016 -29.589495535558015 44.888211296452262 0 0 -1 I I #
point $-1 -31.48136435964016 -29.589495535558015 7.8757525960072394 #
straight-curve $-1 -13.084819418405651 -29.589495535558015 3.8548309809309083 1 0 0 I I #
point $-1 -31.48136435964016 -29.589495535558015 3.8548309809309083 #
point $-1 -26.169638836811302 -24.195500405471858 2.2624177772713878 #
straight-curve $-1 -20.857913313982444 29.589495535558015 61.860048917894211 0 0 -1 I I #
point $-1 -20.857913313982444 29.589495535558015 7.8757525960072394 #
straight-curve $-1 -13.084819418405651 29.589495535558015 3.8548309809309167 -1 0 0 I I #
point $-1 -20.857913313982444 29.589495535558015 3.8548309809309131 #
point $-1 -26.169638836811302 24.195500405471858 2.2624177772713914 #
straight-curve $-1 -62.385682914400178 0 -0.86586877924779149 0 1 0 I I #
straight-curve $-1 -62.385682914400178 -29.589495535558015 0.63413122075220851 0 0 -1 I I #
point $-1 -62.385682914400178 -29.589495535558015 -0.86586877924779149 #
End-of-ACIS-data 