500 0 14 0           
7 Unknown 11 ACIS 5.0 NT 24 Fri Mar 26 02:24:04 1999 
-1 9.9999999999999995e-007 1e-010 
body $-1 $14 $-1 $15 #
body $-1 $16 $-1 $17 #
body $-1 $18 $-1 $19 #
body $-1 $20 $-1 $21 #
body $-1 $22 $-1 $23 #
body $-1 $24 $-1 $25 #
body $-1 $26 $-1 $27 #
body $-1 $28 $-1 $29 #
body $-1 $30 $-1 $31 #
body $-1 $32 $-1 $33 #
body $-1 $34 $-1 $35 #
body $-1 $36 $-1 $37 #
body $-1 $38 $-1 $39 #
body $-1 $40 $-1 $41 #
lump $-1 $-1 $42 $0 #
transform $-1 1 0 0 0 1 0 0 0 1 75.579699087496564 39.721610095088906 11.219563760859 1 rotate no_reflect no_shear #
lump $-1 $-1 $43 $1 #
transform $-1 1 0 0 0 1 0 0 0 1 75.579699087496564 39.721610095088906 11.219563760859 1 rotate no_reflect no_shear #
lump $-1 $-1 $44 $2 #
transform $-1 1 0 0 0 1 0 0 0 1 75.579699087496564 39.721610095088906 11.219563760859 1 rotate no_reflect no_shear #
lump $-1 $-1 $45 $3 #
transform $-1 1 0 0 0 1 0 0 0 1 75.579699087496564 39.721610095088906 11.219563760859 1 rotate no_reflect no_shear #
lump $-1 $-1 $46 $4 #
transform $-1 1 0 0 0 1 0 0 0 1 75.579699087496564 39.721610095088906 11.219563760859 1 rotate no_reflect no_shear #
lump $-1 $-1 $47 $5 #
transform $-1 1 0 0 0 1 0 0 0 1 75.579699087496564 39.721610095088906 11.219563760859 1 rotate no_reflect no_shear #
lump $-1 $-1 $48 $6 #
transform $-1 1 0 0 0 1 0 0 0 1 75.579699087496564 39.721610095088906 11.219563760859 1 rotate no_reflect no_shear #
lump $-1 $-1 $49 $7 #
transform $-1 1 0 0 0 1 0 0 0 1 75.579699087496564 39.721610095088906 11.219563760859 1 rotate no_reflect no_shear #
lump $-1 $-1 $50 $8 #
transform $-1 1 0 0 0 1 0 0 0 1 75.579699087496564 39.721610095088906 11.219563760859 1 rotate no_reflect no_shear #
lump $-1 $-1 $51 $9 #
transform $-1 1 0 0 0 1 0 0 0 1 75.579699087496564 39.721610095088906 11.219563760859 1 rotate no_reflect no_shear #
lump $-1 $-1 $52 $10 #
transform $-1 1 0 0 0 1 0 0 0 1 75.579699087496564 39.721610095088906 11.219563760859 1 rotate no_reflect no_shear #
lump $-1 $-1 $53 $11 #
transform $-1 1 0 0 0 1 0 0 0 1 75.579699087496564 39.721610095088906 11.219563760859 1 rotate no_reflect no_shear #
lump $-1 $-1 $54 $12 #
transform $-1 1 0 0 0 1 0 0 0 1 75.579699087496564 39.721610095088906 11.219563760859 1 rotate no_reflect no_shear #
lump $-1 $-1 $55 $13 #
transform $-1 1 0 0 0 1 0 0 0 1 75.579699087496564 39.721610095088906 11.219563760859 1 rotate no_reflect no_shear #
shell $-1 $-1 $-1 $56 $-1 $14 #
shell $-1 $-1 $-1 $57 $-1 $16 #
shell $-1 $-1 $-1 $58 $-1 $18 #
shell $-1 $-1 $-1 $59 $-1 $20 #
shell $-1 $-1 $-1 $60 $-1 $22 #
shell $-1 $-1 $-1 $61 $-1 $24 #
shell $-1 $-1 $-1 $62 $-1 $26 #
shell $-1 $-1 $-1 $63 $-1 $28 #
shell $-1 $-1 $-1 $64 $-1 $30 #
shell $-1 $-1 $-1 $65 $-1 $32 #
shell $-1 $-1 $-1 $66 $-1 $34 #
shell $-1 $-1 $-1 $67 $-1 $36 #
shell $-1 $-1 $-1 $68 $-1 $38 #
shell $-1 $-1 $-1 $69 $-1 $40 #
face $-1 $70 $71 $42 $-1 $72 forward single #
face $-1 $73 $74 $43 $-1 $75 reversed single #
face $-1 $76 $77 $44 $-1 $78 reversed single #
face $-1 $79 $80 $45 $-1 $81 reversed single #
face $-1 $82 $83 $46 $-1 $84 forward single #
face $-1 $85 $86 $47 $-1 $87 reversed single #
face $-1 $88 $89 $48 $-1 $90 forward single #
face $-1 $91 $92 $49 $-1 $93 reversed single #
face $-1 $94 $95 $50 $-1 $96 forward single #
face $-1 $97 $98 $51 $-1 $99 reversed single #
face $-1 $100 $101 $52 $-1 $102 forward single #
face $-1 $103 $104 $53 $-1 $105 reversed single #
face $-1 $106 $107 $54 $-1 $108 forward single #
face $-1 $109 $110 $55 $-1 $111 forward single #
face $-1 $112 $113 $42 $-1 $114 reversed single #
loop $-1 $-1 $115 $56 #
plane-surface $-1 0 0 11.219563760859 0 0 1 1 0 0 forward_v I I I I #
face $-1 $116 $117 $43 $-1 $118 reversed single #
loop $-1 $-1 $119 $57 #
plane-surface $-1 0 -35.040517872120489 4.8815905217387812 0 0 1 1 0 0 forward_v I I I I #
face $-1 $120 $121 $44 $-1 $122 reversed single #
loop $-1 $-1 $123 $58 #
plane-surface $-1 0 35.040517872120489 4.8815905217387812 0 0 1 1 0 0 forward_v I I I I #
face $-1 $124 $125 $45 $-1 $126 reversed single #
loop $-1 $-1 $127 $59 #
plane-surface $-1 -187.91302491530053 -21.451866207651008 106.89031837570619 0 1 0 -0.74314483375859142 0 0.66913059716165679 forward_v I I I I #
face $-1 $128 $129 $46 $-1 $130 forward single #
loop $-1 $131 $132 $60 #
cone-surface $-1 -72.566164386764981 -18.315789516113526 7.9880668675898834 0.74314483375859142 0 -0.66913059716165679 0.66913059716165679 0 0.74314483375859142 1 I I 0 1 1 forward I I I I #
face $-1 $133 $134 $47 $-1 $135 reversed single #
loop $-1 $-1 $136 $61 #
plane-surface $-1 -187.91302491530053 -9.2413398635753286 106.89031837570619 0 1 0 -0.74314483375859142 0 0.66913059716165679 forward_v I I I I #
face $-1 $137 $138 $48 $-1 $139 forward single #
loop $-1 $140 $141 $62 #
cone-surface $-1 -72.566164386764981 -6.1052631720378443 7.9880668675898834 0.74314483375859142 0 -0.66913059716165679 0.66913059716165679 0 0.74314483375859142 1 I I 0 1 1 forward I I I I #
face $-1 $142 $143 $49 $-1 $144 reversed single #
loop $-1 $-1 $145 $63 #
plane-surface $-1 -187.91302491530053 2.9691864805003529 106.89031837570619 0 1 0 -0.74314483375859142 0 0.66913059716165679 forward_v I I I I #
face $-1 $146 $147 $50 $-1 $148 forward single #
loop $-1 $149 $150 $64 #
cone-surface $-1 -72.566164386764981 6.1052631720378372 7.9880668675898834 0.74314483375859142 0 -0.66913059716165679 0.66913059716165679 0 0.74314483375859142 1 I I 0 1 1 forward I I I I #
face $-1 $151 $152 $51 $-1 $153 reversed single #
loop $-1 $-1 $154 $65 #
plane-surface $-1 -187.91302491530053 15.179712824576034 106.89031837570619 0 1 0 -0.74314483375859142 0 0.66913059716165679 forward_v I I I I #
face $-1 $155 $156 $52 $-1 $157 forward single #
loop $-1 $158 $159 $66 #
cone-surface $-1 -72.566164386764981 18.315789516113519 7.9880668675898834 0.74314483375859142 0 -0.66913059716165679 0.66913059716165679 0 0.74314483375859142 1 I I 0 1 1 forward I I I I #
face $-1 $160 $161 $53 $-1 $162 reversed single #
loop $-1 $-1 $163 $67 #
plane-surface $-1 116.36925989689099 22.829243847007934 211.2696566218948 0 -1 0 -0.82903758062907751 0 -0.55919289150049634 forward_v I I I I #
face $-1 $164 $165 $54 $-1 $166 forward single #
loop $-1 $167 $168 $68 #
cone-surface $-1 70.478170375320147 10.557957355116969 5.1094895716485347 -0.82903758062907751 0 -0.55919289150049634 0.83878933725074445 0 -1.2435563709436162 1 I I 0 1 1.5 forward I I I I #
face $-1 $169 $170 $55 $-1 $171 forward single #
loop $-1 $172 $173 $69 #
cone-surface $-1 70.478170375320147 17.920729250251547 5.1094895716485347 -0.82903758062907751 0 -0.55919289150049634 0.83878933725074445 0 -1.2435563709436162 1 I I 0 1 1.5 forward I I I I #
face $-1 $174 $175 $42 $-1 $176 reversed single #
loop $-1 $-1 $177 $70 #
plane-surface $-1 0 0 -11.219563760859 0 0 1 1 0 0 forward_v I I I I #
coedge $-1 $178 $179 $180 $181 forward $71 $-1 #
face $-1 $182 $183 $43 $-1 $184 reversed single #
loop $-1 $-1 $185 $73 #
plane-surface $-1 0 -30.359425649152076 8.0505771412988913 0 -1 0 0 0 -1 forward_v I I I I #
coedge $-1 $186 $187 $188 $189 reversed $74 $-1 #
face $-1 $190 $191 $44 $-1 $192 forward single #
loop $-1 $-1 $193 $76 #
plane-surface $-1 0 30.359425649152072 8.0505771412988913 0 1 0 0 0 1 forward_v I I I I #
coedge $-1 $194 $195 $196 $197 reversed $77 $-1 #
face $-1 $198 $199 $45 $-1 $200 reversed single #
loop $-1 $-1 $201 $79 #
plane-surface $-1 -75.579699087496536 -18.315789516113526 5.7449400082763873 -0.74314483375859142 0 0.66913059716165679 0.66913059716165679 0 0.74314483375859142 forward_v I I I I #
coedge $-1 $202 $203 $204 $205 reversed $80 $-1 #
face $-1 $-1 $206 $46 $-1 $207 forward single #
loop $-1 $208 $209 $82 #
cone-surface $-1 -71.645743891729069 -18.315789516113526 7.159316552031239 0.74314483375859142 0 -0.66913059716165679 0.3345652985808284 0 0.37157241687929571 1 I I -0.70710678118654746 0.70710678118654746 0.5 forward I I I I #
loop $-1 $-1 $210 $60 #
coedge $-1 $132 $132 $211 $212 reversed $83 $-1 #
face $-1 $213 $214 $47 $-1 $215 reversed single #
loop $-1 $-1 $216 $85 #
plane-surface $-1 -75.579699087496536 -6.1052631720378443 5.7449400082763873 -0.74314483375859142 0 0.66913059716165679 0.66913059716165679 0 0.74314483375859142 forward_v I I I I #
coedge $-1 $217 $218 $219 $220 reversed $86 $-1 #
face $-1 $-1 $221 $48 $-1 $222 forward single #
loop $-1 $223 $224 $88 #
cone-surface $-1 -71.645743891729069 -6.1052631720378443 7.159316552031239 0.74314483375859142 0 -0.66913059716165679 0.3345652985808284 0 0.37157241687929571 1 I I -0.70710678118654746 0.70710678118654746 0.5 forward I I I I #
loop $-1 $-1 $225 $62 #
coedge $-1 $141 $141 $226 $227 reversed $89 $-1 #
face $-1 $228 $229 $49 $-1 $230 reversed single #
loop $-1 $-1 $231 $91 #
plane-surface $-1 -75.579699087496536 6.1052631720378372 5.7449400082763873 -0.74314483375859142 0 0.66913059716165679 0.66913059716165679 0 0.74314483375859142 forward_v I I I I #
coedge $-1 $232 $233 $234 $235 reversed $92 $-1 #
face $-1 $-1 $236 $50 $-1 $237 forward single #
loop $-1 $238 $239 $94 #
cone-surface $-1 -71.645743891729069 6.1052631720378372 7.159316552031239 0.74314483375859142 0 -0.66913059716165679 0.3345652985808284 0 0.37157241687929571 1 I I -0.70710678118654746 0.70710678118654746 0.5 forward I I I I #
loop $-1 $-1 $240 $64 #
coedge $-1 $150 $150 $241 $242 reversed $95 $-1 #
face $-1 $243 $244 $51 $-1 $245 reversed single #
loop $-1 $-1 $246 $97 #
plane-surface $-1 -75.579699087496536 18.315789516113519 5.7449400082763873 -0.74314483375859142 0 0.66913059716165679 0.66913059716165679 0 0.74314483375859142 forward_v I I I I #
coedge $-1 $247 $248 $249 $250 reversed $98 $-1 #
face $-1 $-1 $251 $52 $-1 $252 forward single #
loop $-1 $253 $254 $100 #
cone-surface $-1 -71.645743891729069 18.315789516113519 7.159316552031239 0.74314483375859142 0 -0.66913059716165679 0.3345652985808284 0 0.37157241687929571 1 I I -0.70710678118654746 0.70710678118654746 0.5 forward I I I I #
loop $-1 $-1 $255 $66 #
coedge $-1 $159 $159 $256 $257 reversed $101 $-1 #
face $-1 $258 $259 $53 $-1 $260 reversed single #
loop $-1 $-1 $261 $103 #
plane-surface $-1 -8.9475618554527045 14.239343302684262 126.74239567894554 0.82903758062907751 0 0.55919289150049634 0.55919289150049634 0 -0.82903758062907751 forward_v I I I I #
coedge $-1 $262 $263 $264 $265 reversed $104 $-1 #
face $-1 $-1 $266 $54 $-1 $267 forward single #
loop $-1 $268 $269 $106 #
cone-surface $-1 68.057928153334117 10.557957355116969 3.4770156309412847 -0.82903758062907751 0 -0.55919289150049634 0.41939466862537222 0 -0.62177818547180808 1 I I -0.70710678118654724 0.70710678118654768 0.75 forward I I I I #
loop $-1 $-1 $270 $68 #
coedge $-1 $168 $168 $271 $272 reversed $107 $-1 #
face $-1 $-1 $273 $55 $-1 $274 forward single #
loop $-1 $275 $276 $109 #
cone-surface $-1 68.057928153334117 17.920729250251547 3.4770156309412847 -0.82903758062907751 0 -0.55919289150049634 0.41939466862537222 0 -0.62177818547180808 1 I I -0.70710678118654724 0.70710678118654768 0.75 forward I I I I #
loop $-1 $-1 $277 $69 #
coedge $-1 $173 $173 $278 $279 reversed $110 $-1 #
face $-1 $280 $281 $42 $-1 $282 reversed single #
loop $-1 $-1 $283 $112 #
plane-surface $-1 0 -39.721610095088906 0 0 1 0 0 0 1 forward_v I I I I #
coedge $-1 $284 $285 $286 $287 forward $113 $-1 #
coedge $-1 $288 $115 $289 $290 forward $71 $-1 #
coedge $-1 $115 $288 $291 $292 forward $71 $-1 #
coedge $-1 $293 $294 $115 $181 reversed $295 $-1 #
edge $-1 $296 -39.721610095088906 $297 39.721610095088906 $180 $298 forward 7 unknown #
face $-1 $299 $300 $43 $-1 $301 reversed single #
loop $-1 $-1 $302 $116 #
plane-surface $-1 -75.579699087496564 0 0 1 0 0 0 0 -1 forward_v I I I I #
coedge $-1 $303 $304 $305 $306 reversed $117 $-1 #
coedge $-1 $307 $119 $308 $309 reversed $74 $-1 #
coedge $-1 $119 $307 $303 $310 forward $74 $-1 #
coedge $-1 $305 $311 $119 $189 forward $312 $-1 #
edge $-1 $313 -22.201351159028661 $314 -12.839166713091831 $188 $315 forward 7 unknown #
face $-1 $316 $317 $44 $-1 $318 reversed single #
loop $-1 $-1 $319 $120 #
plane-surface $-1 0 0 11.219563760859 0 0 1 1 0 0 forward_v I I I I #
coedge $-1 $320 $321 $322 $323 reversed $121 $-1 #
coedge $-1 $324 $123 $320 $325 forward $77 $-1 #
coedge $-1 $123 $324 $326 $327 reversed $77 $-1 #
coedge $-1 $328 $329 $123 $197 forward $317 $-1 #
edge $-1 $330 12.839166713091828 $331 22.201351159028661 $196 $332 forward 7 unknown #
face $-1 $333 $334 $45 $-1 $335 reversed single #
loop $-1 $-1 $336 $124 #
plane-surface $-1 -187.91302491530053 -15.179712824576042 106.89031837570619 0 -1 0 0.74314483375859142 0 -0.66913059716165679 forward_v I I I I #
coedge $-1 $337 $338 $339 $340 reversed $125 $-1 #
coedge $-1 $203 $127 $341 $342 reversed $80 $-1 #
coedge $-1 $127 $202 $337 $343 reversed $80 $-1 #
coedge $-1 $339 $344 $127 $205 forward $345 $-1 #
edge $-1 $346 18.376813370153698 $347 23.306186615303659 $204 $348 forward 7 unknown #
loop $-1 $-1 $211 $128 #
plane-surface $-1 -75.579699087496536 -18.315789516113526 5.7449400082763873 -0.74314483375859142 0 0.66913059716165679 0.66913059716165679 0 0.74314483375859142 forward_v I I I I #
loop $-1 $-1 $349 $82 #
coedge $-1 $209 $209 $210 $350 reversed $129 $-1 #
coedge $-1 $210 $210 $209 $350 forward $131 $-1 #
coedge $-1 $211 $211 $132 $212 forward $206 $-1 #
edge $-1 $351 0 $351 6.2831853071796004 $211 $352 forward 7 unknown #
face $-1 $353 $354 $47 $-1 $355 forward single #
loop $-1 $-1 $356 $133 #
plane-surface $-1 -187.91302491530053 -2.96918648050036 106.89031837570619 0 -1 0 0.74314483375859142 0 -0.66913059716165679 forward_v I I I I #
coedge $-1 $357 $358 $359 $360 reversed $134 $-1 #
coedge $-1 $218 $136 $361 $362 reversed $86 $-1 #
coedge $-1 $136 $217 $357 $363 reversed $86 $-1 #
coedge $-1 $359 $364 $136 $220 forward $354 $-1 #
edge $-1 $365 18.376813370153698 $366 23.306186615303659 $219 $367 forward 7 unknown #
loop $-1 $-1 $226 $137 #
plane-surface $-1 -75.579699087496536 -6.1052631720378443 5.7449400082763873 -0.74314483375859142 0 0.66913059716165679 0.66913059716165679 0 0.74314483375859142 forward_v I I I I #
loop $-1 $-1 $368 $88 #
coedge $-1 $224 $224 $225 $369 reversed $138 $-1 #
coedge $-1 $225 $225 $224 $369 forward $140 $-1 #
coedge $-1 $226 $226 $141 $227 forward $221 $-1 #
edge $-1 $370 0 $370 6.2831853071796004 $226 $371 forward 7 unknown #
face $-1 $372 $373 $49 $-1 $374 forward single #
loop $-1 $-1 $375 $142 #
plane-surface $-1 -187.91302491530053 9.2413398635753214 106.89031837570619 0 -1 0 0.74314483375859142 0 -0.66913059716165679 forward_v I I I I #
coedge $-1 $376 $377 $378 $379 reversed $143 $-1 #
coedge $-1 $233 $145 $380 $381 reversed $92 $-1 #
coedge $-1 $145 $232 $376 $382 reversed $92 $-1 #
coedge $-1 $378 $383 $145 $235 forward $373 $-1 #
edge $-1 $384 18.376813370153698 $385 23.306186615303659 $234 $386 forward 7 unknown #
loop $-1 $-1 $241 $146 #
plane-surface $-1 -75.579699087496536 6.1052631720378372 5.7449400082763873 -0.74314483375859142 0 0.66913059716165679 0.66913059716165679 0 0.74314483375859142 forward_v I I I I #
loop $-1 $-1 $387 $94 #
coedge $-1 $239 $239 $240 $388 reversed $147 $-1 #
coedge $-1 $240 $240 $239 $388 forward $149 $-1 #
coedge $-1 $241 $241 $150 $242 forward $236 $-1 #
edge $-1 $389 0 $389 6.2831853071796004 $241 $390 forward 7 unknown #
face $-1 $391 $392 $51 $-1 $393 forward single #
loop $-1 $-1 $394 $151 #
plane-surface $-1 -187.91302491530053 21.451866207651001 106.89031837570619 0 -1 0 0.74314483375859142 0 -0.66913059716165679 forward_v I I I I #
coedge $-1 $395 $396 $397 $398 reversed $152 $-1 #
coedge $-1 $248 $154 $399 $400 reversed $98 $-1 #
coedge $-1 $154 $247 $395 $401 reversed $98 $-1 #
coedge $-1 $397 $402 $154 $250 forward $392 $-1 #
edge $-1 $403 18.376813370153698 $404 23.306186615303659 $249 $405 forward 7 unknown #
loop $-1 $-1 $256 $155 #
plane-surface $-1 -75.579699087496536 18.315789516113519 5.7449400082763873 -0.74314483375859142 0 0.66913059716165679 0.66913059716165679 0 0.74314483375859142 forward_v I I I I #
loop $-1 $-1 $406 $100 #
coedge $-1 $254 $254 $255 $407 reversed $156 $-1 #
coedge $-1 $255 $255 $254 $407 forward $158 $-1 #
coedge $-1 $256 $256 $159 $257 forward $251 $-1 #
edge $-1 $408 0 $408 6.2831853071796004 $256 $409 forward 7 unknown #
face $-1 $410 $411 $53 $-1 $412 forward single #
loop $-1 $-1 $413 $160 #
plane-surface $-1 116.36925989689099 5.6494427583605891 211.2696566218948 0 1 0 0.82903758062907751 0 0.55919289150049634 forward_v I I I I #
coedge $-1 $414 $415 $416 $417 reversed $161 $-1 #
coedge $-1 $263 $163 $418 $419 reversed $104 $-1 #
coedge $-1 $163 $262 $414 $420 reversed $104 $-1 #
coedge $-1 $416 $421 $163 $265 forward $411 $-1 #
edge $-1 $422 -17.395069139051067 $423 -10.78893978772664 $264 $424 forward 7 unknown #
loop $-1 $-1 $271 $164 #
plane-surface $-1 -8.9475618554527045 14.239343302684262 126.74239567894554 0.82903758062907751 0 0.55919289150049634 0.55919289150049634 0 -0.82903758062907751 forward_v I I I I #
loop $-1 $-1 $425 $106 #
coedge $-1 $269 $269 $270 $426 reversed $165 $-1 #
coedge $-1 $270 $270 $269 $426 forward $167 $-1 #
coedge $-1 $271 $271 $168 $272 forward $266 $-1 #
edge $-1 $427 0 $427 6.2831853071796004 $271 $428 forward 7 unknown #
loop $-1 $-1 $278 $169 #
plane-surface $-1 -8.9475618554527045 14.239343302684262 126.74239567894554 0.82903758062907751 0 0.55919289150049634 0.55919289150049634 0 -0.82903758062907751 forward_v I I I I #
loop $-1 $-1 $429 $109 #
coedge $-1 $276 $276 $277 $430 reversed $170 $-1 #
coedge $-1 $277 $277 $276 $430 forward $172 $-1 #
coedge $-1 $278 $278 $173 $279 forward $273 $-1 #
edge $-1 $431 0 $431 6.2831853071796004 $278 $432 forward 7 unknown #
face $-1 $433 $434 $42 $-1 $435 reversed single #
loop $-1 $-1 $436 $174 #
plane-surface $-1 -75.579699087496564 0 0 1 0 0 0 0 -1 forward_v I I I I #
coedge $-1 $437 $291 $438 $439 forward $175 $-1 #
coedge $-1 $440 $177 $437 $441 forward $113 $-1 #
coedge $-1 $177 $440 $442 $443 forward $113 $-1 #
coedge $-1 $294 $293 $177 $287 reversed $295 $-1 #
edge $-1 $444 -39.721610095088906 $445 39.721610095088906 $286 $446 forward 7 unknown #
coedge $-1 $179 $178 $447 $448 forward $71 $-1 #
coedge $-1 $449 $450 $178 $290 reversed $434 $-1 #
edge $-1 $297 -75.579699087496564 $451 75.579699087496564 $289 $452 forward 7 unknown #
coedge $-1 $283 $453 $179 $292 reversed $175 $-1 #
edge $-1 $454 -75.579699087496564 $296 75.579699087496564 $291 $455 forward 7 unknown #
coedge $-1 $286 $180 $453 $456 forward $295 $-1 #
coedge $-1 $180 $286 $449 $457 reversed $295 $-1 #
loop $-1 $-1 $293 $433 #
vertex $-1 $181 $458 #
vertex $-1 $181 $459 #
straight-curve $-1 75.579699087496564 0 11.219563760859 0 1 0 I I #
face $-1 $460 $461 $43 $-1 $462 forward single #
loop $-1 $-1 $308 $182 #
plane-surface $-1 0 -39.721610095088906 0 0 1 0 0 0 1 forward_v I I I I #
coedge $-1 $463 $464 $465 $466 forward $183 $-1 #
coedge $-1 $465 $185 $187 $310 reversed $117 $-1 #
coedge $-1 $185 $465 $467 $468 reversed $117 $-1 #
coedge $-1 $469 $188 $185 $306 forward $312 $-1 #
edge $-1 $314 0.85630195108933549 $470 7.1942751902095559 $305 $471 forward 7 unknown #
coedge $-1 $187 $186 $463 $472 reversed $74 $-1 #
coedge $-1 $473 $474 $186 $309 forward $300 $-1 #
edge $-1 $475 -75.579699087496564 $313 75.579699087496564 $308 $476 forward 7 unknown #
edge $-1 $477 -75.579699087496564 $314 75.579699087496564 $303 $478 forward 7 unknown #
coedge $-1 $188 $469 $473 $479 forward $312 $-1 #
loop $-1 $-1 $305 $460 #
vertex $-1 $309 $480 #
vertex $-1 $189 $481 #
straight-curve $-1 75.579699087496564 -17.520258936060245 4.8815905217387812 0 1 0 I I #
face $-1 $482 $483 $44 $-1 $484 reversed single #
loop $-1 $-1 $329 $190 #
plane-surface $-1 75.579699087496564 0 0 -1 0 0 0 0 1 forward_v I I I I #
coedge $-1 $485 $486 $321 $487 forward $191 $-1 #
coedge $-1 $488 $193 $194 $325 reversed $121 $-1 #
coedge $-1 $193 $488 $319 $487 reversed $121 $-1 #
coedge $-1 $489 $490 $193 $323 forward $483 $-1 #
edge $-1 $491 0.85630195108933549 $492 7.1942751902095559 $322 $493 forward 7 unknown #
coedge $-1 $195 $194 $490 $494 reversed $77 $-1 #
edge $-1 $330 -75.579699087496564 $491 75.579699087496564 $320 $495 forward 7 unknown #
coedge $-1 $496 $497 $195 $327 forward $498 $-1 #
edge $-1 $331 -75.579699087496564 $499 75.579699087496564 $326 $500 forward 7 unknown #
coedge $-1 $501 $196 $497 $502 reversed $317 $-1 #
coedge $-1 $196 $501 $488 $503 forward $317 $-1 #
vertex $-1 $197 $504 #
vertex $-1 $327 $505 #
straight-curve $-1 75.579699087496564 17.520258936060245 4.8815905217387812 0 1 0 I I #
face $-1 $-1 $345 $45 $-1 $506 forward single #
loop $-1 $-1 $507 $198 #
plane-surface $-1 -75.579699087496564 0 0 1 0 0 0 0 -1 forward_v I I I I #
coedge $-1 $508 $509 $510 $511 reversed $199 $-1 #
coedge $-1 $512 $201 $203 $343 forward $125 $-1 #
coedge $-1 $201 $512 $508 $513 forward $125 $-1 #
coedge $-1 $510 $204 $201 $340 forward $345 $-1 #
edge $-1 $347 -12.293971449594245 $514 -6.0218180665192786 $339 $515 forward 7 unknown #
coedge $-1 $516 $517 $202 $342 forward $334 $-1 #
edge $-1 $518 -47.700219179576735 $346 -42.22559542699409 $341 $519 forward 7 unknown #
edge $-1 $347 -7.36683282166371 $518 4.2779462749537973e-014 $203 $520 forward 7 unknown #
coedge $-1 $204 $510 $516 $521 forward $345 $-1 #
loop $-1 $-1 $510 $333 #
vertex $-1 $342 $522 #
vertex $-1 $205 $523 #
straight-curve $-1 -93.956512457650263 -21.451866207651008 11.219563760858996 1 0 0 I I #
coedge $-1 $349 $349 $-1 $524 reversed $208 $-1 #
edge $-1 $525 0 $525 6.2831853071796004 $209 $526 forward 7 unknown #
vertex $-1 $212 $527 #
ellipse-curve $-1 -73.115012464921577 -18.315789516113526 8.4822518845676811 -0.74314483375859142 0 0.66913059716165679 0.66913059716165679 0 0.74314483375859142 1 I I #
face $-1 $-1 $528 $47 $-1 $529 reversed single #
loop $-1 $-1 $219 $213 #
plane-surface $-1 0 0 11.219563760859 0 0 1 1 0 0 forward_v I I I I #
coedge $-1 $530 $531 $532 $533 reversed $214 $-1 #
coedge $-1 $534 $216 $218 $363 forward $134 $-1 #
coedge $-1 $216 $534 $530 $535 forward $134 $-1 #
coedge $-1 $532 $219 $216 $360 forward $354 $-1 #
edge $-1 $366 -6.1887082775564064 $536 0.083445105518562102 $359 $537 forward 7 unknown #
coedge $-1 $538 $539 $217 $362 forward $528 $-1 #
edge $-1 $540 -47.700219179576735 $365 -42.22559542699409 $361 $541 forward 7 unknown #
edge $-1 $366 -7.36683282166371 $540 4.2779462749537973e-014 $218 $542 forward 7 unknown #
coedge $-1 $219 $532 $538 $543 forward $354 $-1 #
vertex $-1 $220 $544 #
vertex $-1 $220 $545 #
straight-curve $-1 -93.956512457650263 -9.2413398635753286 11.219563760858996 1 0 0 I I #
coedge $-1 $368 $368 $-1 $546 reversed $223 $-1 #
edge $-1 $547 0 $547 6.2831853071796004 $224 $548 forward 7 unknown #
vertex $-1 $227 $549 #
ellipse-curve $-1 -73.115012464921577 -6.1052631720378443 8.4822518845676811 -0.74314483375859142 0 0.66913059716165679 0.66913059716165679 0 0.74314483375859142 1 I I #
face $-1 $-1 $550 $49 $-1 $551 reversed single #
loop $-1 $-1 $234 $228 #
plane-surface $-1 0 0 11.219563760859 0 0 1 1 0 0 forward_v I I I I #
coedge $-1 $552 $553 $554 $555 reversed $229 $-1 #
coedge $-1 $556 $231 $233 $382 forward $143 $-1 #
coedge $-1 $231 $556 $552 $557 forward $143 $-1 #
coedge $-1 $554 $234 $231 $379 forward $373 $-1 #
edge $-1 $385 -0.083445105518565654 $558 6.1887082775564028 $378 $559 forward 7 unknown #
coedge $-1 $560 $561 $232 $381 forward $550 $-1 #
edge $-1 $562 -47.700219179576735 $384 -42.22559542699409 $380 $563 forward 7 unknown #
edge $-1 $385 -7.36683282166371 $562 4.2779462749537973e-014 $233 $564 forward 7 unknown #
coedge $-1 $234 $554 $560 $565 forward $373 $-1 #
vertex $-1 $235 $566 #
vertex $-1 $235 $567 #
straight-curve $-1 -93.956512457650263 2.9691864805003529 11.219563760858996 1 0 0 I I #
coedge $-1 $387 $387 $-1 $568 reversed $238 $-1 #
edge $-1 $569 0 $569 6.2831853071796004 $239 $570 forward 7 unknown #
vertex $-1 $242 $571 #
ellipse-curve $-1 -73.115012464921577 6.1052631720378372 8.4822518845676811 -0.74314483375859142 0 0.66913059716165679 0.66913059716165679 0 0.74314483375859142 1 I I #
face $-1 $-1 $572 $51 $-1 $573 reversed single #
loop $-1 $-1 $249 $243 #
plane-surface $-1 0 0 11.219563760859 0 0 1 1 0 0 forward_v I I I I #
coedge $-1 $574 $575 $576 $577 reversed $244 $-1 #
coedge $-1 $578 $246 $248 $401 forward $152 $-1 #
coedge $-1 $246 $578 $574 $579 forward $152 $-1 #
coedge $-1 $576 $249 $246 $398 forward $392 $-1 #
edge $-1 $404 6.0218180665192751 $580 12.293971449594242 $397 $581 forward 7 unknown #
coedge $-1 $582 $583 $247 $400 forward $572 $-1 #
edge $-1 $584 -47.700219179576735 $403 -42.22559542699409 $399 $585 forward 7 unknown #
edge $-1 $404 -7.36683282166371 $584 4.2779462749537973e-014 $248 $586 forward 7 unknown #
coedge $-1 $249 $576 $582 $587 forward $392 $-1 #
vertex $-1 $250 $588 #
vertex $-1 $250 $589 #
straight-curve $-1 -93.956512457650263 15.179712824576034 11.219563760858996 1 0 0 I I #
coedge $-1 $406 $406 $-1 $590 reversed $253 $-1 #
edge $-1 $591 0 $591 6.2831853071796004 $254 $592 forward 7 unknown #
vertex $-1 $257 $593 #
ellipse-curve $-1 -73.115012464921577 18.315789516113519 8.4822518845676811 -0.74314483375859142 0 0.66913059716165679 0.66913059716165679 0 0.74314483375859142 1 I I #
face $-1 $-1 $594 $53 $-1 $595 reversed single #
loop $-1 $-1 $264 $258 #
plane-surface $-1 0 0 11.219563760859 0 0 1 1 0 0 forward_v I I I I #
coedge $-1 $596 $597 $598 $599 reversed $259 $-1 #
coedge $-1 $600 $261 $263 $420 forward $161 $-1 #
coedge $-1 $261 $600 $596 $601 forward $161 $-1 #
coedge $-1 $598 $264 $261 $417 forward $411 $-1 #
edge $-1 $423 -15.709572195665803 $602 1.4702288929815417 $416 $603 forward 7 unknown #
coedge $-1 $604 $605 $262 $419 forward $594 $-1 #
edge $-1 $606 -104.20925438434558 $422 -94.415264550088395 $418 $607 forward 7 unknown #
edge $-1 $423 139.34571196450142 $606 151.15939817499316 $263 $608 forward 7 unknown #
coedge $-1 $264 $598 $604 $609 forward $411 $-1 #
vertex $-1 $419 $610 #
vertex $-1 $265 $611 #
straight-curve $-1 58.184629948445497 22.829243847007934 11.219563760859003 -1 0 0 I I #
coedge $-1 $425 $425 $-1 $612 reversed $268 $-1 #
edge $-1 $613 0 $613 6.2831853071796004 $269 $614 forward 7 unknown #
vertex $-1 $272 $615 #
ellipse-curve $-1 72.276634411834365 10.557957355116969 6.3225688437304068 0.82903758062907751 0 0.55919289150049634 0.83878933725074445 0 -1.2435563709436162 1 I I #
coedge $-1 $429 $429 $-1 $616 reversed $275 $-1 #
edge $-1 $617 0 $617 6.2831853071796004 $276 $618 forward 7 unknown #
vertex $-1 $279 $619 #
ellipse-curve $-1 72.276634411834365 17.920729250251547 6.3225688437304068 0.82903758062907751 0 0.55919289150049634 0.83878933725074445 0 -1.2435563709436162 1 I I #
face $-1 $-1 $295 $42 $-1 $620 reversed single #
loop $-1 $-1 $449 $280 #
plane-surface $-1 0 39.721610095088906 0 0 -1 0 0 0 -1 forward_v I I I I #
coedge $-1 $621 $447 $450 $622 forward $281 $-1 #
coedge $-1 $453 $283 $284 $441 reversed $175 $-1 #
coedge $-1 $447 $621 $283 $439 reversed $281 $-1 #
edge $-1 $454 -11.219563760859 $623 11.219563760859 $438 $624 forward 7 unknown #
coedge $-1 $285 $284 $621 $625 forward $113 $-1 #
edge $-1 $445 -75.579699087496564 $623 75.579699087496564 $437 $626 forward 7 unknown #
coedge $-1 $450 $449 $285 $443 reversed $434 $-1 #
edge $-1 $627 -75.579699087496564 $444 75.579699087496564 $442 $628 forward 7 unknown #
vertex $-1 $287 $629 #
vertex $-1 $456 $630 #
straight-curve $-1 75.579699087496564 0 -11.219563760859 0 -1 0 I I #
coedge $-1 $436 $438 $288 $448 reversed $281 $-1 #
edge $-1 $451 -39.721610095088906 $454 39.721610095088906 $447 $631 forward 7 unknown #
coedge $-1 $442 $289 $294 $457 forward $434 $-1 #
coedge $-1 $289 $442 $436 $622 reversed $434 $-1 #
vertex $-1 $290 $632 #
straight-curve $-1 0 39.721610095088906 11.219563760859 -1 0 0 I I #
coedge $-1 $291 $437 $293 $456 reversed $175 $-1 #
vertex $-1 $448 $633 #
straight-curve $-1 0 -39.721610095088906 11.219563760859 1 0 0 I I #
edge $-1 $296 -11.219563760859 $445 11.219563760859 $293 $634 forward 7 unknown #
edge $-1 $297 -11.219563760859 $444 11.219563760859 $294 $635 forward 7 unknown #
point $-1 75.579699087496564 -39.721610095088906 11.219563760859 #
point $-1 75.579699087496564 39.721610095088906 11.219563760859 #
face $-1 $-1 $312 $43 $-1 $636 reversed single #
loop $-1 $-1 $467 $299 #
plane-surface $-1 0 0 11.219563760859 0 0 1 1 0 0 forward_v I I I I #
coedge $-1 $637 $302 $307 $472 forward $183 $-1 #
coedge $-1 $302 $637 $638 $639 reversed $183 $-1 #
coedge $-1 $304 $303 $302 $466 reversed $117 $-1 #
edge $-1 $640 -7.1942751902095559 $477 -0.85630195108933549 $302 $641 forward 7 unknown #
coedge $-1 $638 $642 $304 $468 forward $461 $-1 #
edge $-1 $470 -75.579699087496564 $640 75.579699087496564 $467 $643 forward 7 unknown #
coedge $-1 $311 $305 $642 $644 reversed $312 $-1 #
vertex $-1 $306 $645 #
straight-curve $-1 75.579699087496564 -30.359425649152076 4.0252885706494457 0 0 1 I I #
edge $-1 $477 12.839166713091831 $475 22.201351159028661 $463 $646 forward 7 unknown #
coedge $-1 $647 $308 $311 $479 reversed $300 $-1 #
coedge $-1 $308 $647 $637 $648 forward $300 $-1 #
vertex $-1 $309 $649 #
straight-curve $-1 0 -39.721610095088906 4.8815905217387812 1 0 0 I I #
vertex $-1 $472 $650 #
straight-curve $-1 0 -30.359425649152076 4.8815905217387812 1 0 0 I I #
edge $-1 $651 -11.219563760859 $313 -4.8815905217387812 $311 $652 forward 7 unknown #
point $-1 75.579699087496564 -39.721610095088906 4.8815905217387812 #
point $-1 75.579699087496564 -30.359425649152076 4.8815905217387812 #
face $-1 $-1 $498 $44 $-1 $653 reversed single #
loop $-1 $-1 $322 $316 #
plane-surface $-1 -75.579699087496564 0 0 1 0 0 0 0 -1 forward_v I I I I #
coedge $-1 $654 $319 $501 $655 forward $191 $-1 #
coedge $-1 $319 $654 $489 $656 forward $191 $-1 #
edge $-1 $492 -75.579699087496564 $657 75.579699087496564 $319 $658 forward 7 unknown #
coedge $-1 $321 $320 $329 $503 reversed $121 $-1 #
coedge $-1 $659 $322 $486 $656 reversed $483 $-1 #
coedge $-1 $322 $659 $324 $494 forward $483 $-1 #
vertex $-1 $494 $660 #
vertex $-1 $323 $661 #
straight-curve $-1 -75.579699087496564 30.359425649152072 4.0252885706494457 0 0 1 I I #
edge $-1 $499 -22.201351159028661 $491 -12.839166713091828 $490 $662 forward 7 unknown #
straight-curve $-1 0 30.359425649152072 4.8815905217387812 -1 0 0 I I #
coedge $-1 $663 $326 $659 $664 reversed $498 $-1 #
coedge $-1 $326 $663 $328 $502 forward $498 $-1 #
loop $-1 $-1 $326 $482 #
vertex $-1 $327 $665 #
straight-curve $-1 0 39.721610095088906 4.8815905217387812 -1 0 0 I I #
coedge $-1 $329 $328 $485 $655 reversed $317 $-1 #
edge $-1 $666 -11.219563760859 $331 -4.8815905217387812 $328 $667 forward 7 unknown #
edge $-1 $657 -7.1942751902095559 $330 -0.85630195108933549 $329 $668 forward 7 unknown #
point $-1 75.579699087496564 30.359425649152072 4.8815905217387812 #
point $-1 75.579699087496564 39.721610095088906 4.8815905217387812 #
plane-surface $-1 0 0 11.219563760859 0 0 1 1 0 0 forward_v I I I I #
coedge $-1 $517 $516 $509 $669 forward $334 $-1 #
coedge $-1 $509 $336 $338 $513 reversed $199 $-1 #
coedge $-1 $336 $508 $507 $669 reversed $199 $-1 #
coedge $-1 $344 $339 $336 $511 forward $345 $-1 #
edge $-1 $514 -23.306186615303659 $670 -18.376813370153698 $510 $671 forward 7 unknown #
coedge $-1 $338 $337 $517 $672 reversed $125 $-1 #
edge $-1 $673 -4.2779462749537973e-014 $514 7.36683282166371 $508 $674 forward 7 unknown #
vertex $-1 $340 $675 #
straight-curve $-1 -70.650325842346589 -9.1578947580567629 11.219563760859002 0 1 0 I I #
coedge $-1 $507 $341 $344 $521 reversed $334 $-1 #
coedge $-1 $341 $507 $512 $672 forward $334 $-1 #
vertex $-1 $342 $676 #
straight-curve $-1 -75.579699087496564 -21.451866207651008 53.445159187853093 0 0 1 I I #
straight-curve $-1 -75.579699087496536 -21.451866207651008 5.7449400082763873 -0.66913059716165679 0 -0.74314483375859142 I I #
edge $-1 $670 15.179712824576042 $346 21.451866207651008 $516 $677 forward 7 unknown #
point $-1 -75.579699087496564 -21.451866207651008 11.219563760859 #
point $-1 -70.650325842346604 -21.451866207651008 11.219563760859 #
edge $-1 $678 1 $678 0 $349 $-1 forward 7 unknown #
vertex $-1 $350 $679 #
ellipse-curve $-1 -72.017316308608358 -18.315789516113526 7.493881850612067 -0.74314483375859142 0 0.66913059716165679 0.66913059716165679 0 0.74314483375859142 1 I I #
point $-1 -72.445881867759951 -18.315789516113526 9.2253967183262908 #
loop $-1 $-1 $361 $353 #
plane-surface $-1 -75.579699087496564 0 0 1 0 0 0 0 -1 forward_v I I I I #
coedge $-1 $531 $356 $358 $535 reversed $214 $-1 #
coedge $-1 $356 $530 $680 $681 reversed $214 $-1 #
coedge $-1 $364 $359 $356 $533 forward $354 $-1 #
edge $-1 $536 -23.306186615303659 $682 -18.376813370153698 $532 $683 forward 7 unknown #
coedge $-1 $358 $357 $539 $684 reversed $134 $-1 #
edge $-1 $685 -4.2779462749537973e-014 $536 7.36683282166371 $530 $686 forward 7 unknown #
vertex $-1 $360 $687 #
straight-curve $-1 -70.650325842346589 -3.0526315860189221 11.219563760859002 0 1 0 I I #
coedge $-1 $680 $361 $364 $543 reversed $528 $-1 #
coedge $-1 $361 $680 $534 $684 forward $528 $-1 #
vertex $-1 $362 $688 #
straight-curve $-1 -75.579699087496564 -9.2413398635753286 53.445159187853093 0 0 1 I I #
straight-curve $-1 -75.579699087496536 -9.2413398635753286 5.7449400082763873 -0.66913059716165679 0 -0.74314483375859142 I I #
edge $-1 $682 2.96918648050036 $365 9.2413398635753286 $538 $689 forward 7 unknown #
point $-1 -75.579699087496564 -9.2413398635753286 11.219563760859 #
point $-1 -70.650325842346604 -9.2413398635753286 11.219563760859 #
edge $-1 $690 1 $690 0 $368 $-1 forward 7 unknown #
vertex $-1 $369 $691 #
ellipse-curve $-1 -72.017316308608358 -6.1052631720378443 7.493881850612067 -0.74314483375859142 0 0.66913059716165679 0.66913059716165679 0 0.74314483375859142 1 I I #
point $-1 -72.445881867759951 -6.1052631720378443 9.2253967183262908 #
loop $-1 $-1 $380 $372 #
plane-surface $-1 -75.579699087496564 0 0 1 0 0 0 0 -1 forward_v I I I I #
coedge $-1 $553 $375 $377 $557 reversed $229 $-1 #
coedge $-1 $375 $552 $692 $693 reversed $229 $-1 #
coedge $-1 $383 $378 $375 $555 forward $373 $-1 #
edge $-1 $558 -23.306186615303659 $694 -18.376813370153698 $554 $695 forward 7 unknown #
coedge $-1 $377 $376 $561 $696 reversed $143 $-1 #
edge $-1 $697 -4.2779462749537973e-014 $558 7.36683282166371 $552 $698 forward 7 unknown #
vertex $-1 $379 $699 #
straight-curve $-1 -70.650325842346589 3.0526315860189186 11.219563760859002 0 1 0 I I #
coedge $-1 $692 $380 $383 $565 reversed $550 $-1 #
coedge $-1 $380 $692 $556 $696 forward $550 $-1 #
vertex $-1 $381 $700 #
straight-curve $-1 -75.579699087496564 2.9691864805003529 53.445159187853093 0 0 1 I I #
straight-curve $-1 -75.579699087496536 2.9691864805003529 5.7449400082763873 -0.66913059716165679 0 -0.74314483375859142 I I #
edge $-1 $694 -9.2413398635753214 $384 -2.9691864805003529 $560 $701 forward 7 unknown #
point $-1 -75.579699087496564 2.9691864805003529 11.219563760859 #
point $-1 -70.650325842346604 2.9691864805003529 11.219563760859 #
edge $-1 $702 1 $702 0 $387 $-1 forward 7 unknown #
vertex $-1 $388 $703 #
ellipse-curve $-1 -72.017316308608358 6.1052631720378372 7.493881850612067 -0.74314483375859142 0 0.66913059716165679 0.66913059716165679 0 0.74314483375859142 1 I I #
point $-1 -72.445881867759951 6.1052631720378372 9.2253967183262908 #
loop $-1 $-1 $399 $391 #
plane-surface $-1 -75.579699087496564 0 0 1 0 0 0 0 -1 forward_v I I I I #
coedge $-1 $575 $394 $396 $579 reversed $244 $-1 #
coedge $-1 $394 $574 $704 $705 reversed $244 $-1 #
coedge $-1 $402 $397 $394 $577 forward $392 $-1 #
edge $-1 $580 -23.306186615303659 $706 -18.376813370153698 $576 $707 forward 7 unknown #
coedge $-1 $396 $395 $583 $708 reversed $152 $-1 #
edge $-1 $709 -4.2779462749537973e-014 $580 7.36683282166371 $574 $710 forward 7 unknown #
vertex $-1 $398 $711 #
straight-curve $-1 -70.650325842346589 9.1578947580567593 11.219563760859002 0 1 0 I I #
coedge $-1 $704 $399 $402 $587 reversed $572 $-1 #
coedge $-1 $399 $704 $578 $708 forward $572 $-1 #
vertex $-1 $400 $712 #
straight-curve $-1 -75.579699087496564 15.179712824576034 53.445159187853093 0 0 1 I I #
straight-curve $-1 -75.579699087496536 15.179712824576034 5.7449400082763873 -0.66913059716165679 0 -0.74314483375859142 I I #
edge $-1 $706 -21.451866207651001 $403 -15.179712824576034 $582 $713 forward 7 unknown #
point $-1 -75.579699087496564 15.179712824576034 11.219563760859 #
point $-1 -70.650325842346604 15.179712824576034 11.219563760859 #
edge $-1 $714 1 $714 0 $406 $-1 forward 7 unknown #
vertex $-1 $407 $715 #
ellipse-curve $-1 -72.017316308608358 18.315789516113519 7.493881850612067 -0.74314483375859142 0 0.66913059716165679 0.66913059716165679 0 0.74314483375859142 1 I I #
point $-1 -72.445881867759951 18.315789516113519 9.2253967183262908 #
loop $-1 $-1 $418 $410 #
plane-surface $-1 75.579699087496564 0 0 -1 0 0 0 0 1 forward_v I I I I #
coedge $-1 $597 $413 $415 $601 reversed $259 $-1 #
coedge $-1 $413 $596 $716 $717 reversed $259 $-1 #
coedge $-1 $421 $416 $413 $599 forward $411 $-1 #
edge $-1 $602 10.78893978772664 $718 17.395069139051067 $598 $719 forward 7 unknown #
coedge $-1 $415 $414 $605 $720 reversed $161 $-1 #
edge $-1 $721 -151.15939817499316 $602 -139.34571196450142 $596 $722 forward 7 unknown #
vertex $-1 $417 $723 #
straight-curve $-1 68.973569736172138 7.1196716513421308 11.219563760859003 0 -1 0 I I #
coedge $-1 $716 $418 $421 $609 reversed $594 $-1 #
coedge $-1 $418 $716 $600 $720 forward $594 $-1 #
vertex $-1 $419 $724 #
straight-curve $-1 75.579699087496564 22.829243847007934 105.6348283109474 0 0 1 I I #
straight-curve $-1 -8.9475618554527045 22.829243847007934 126.74239567894554 0.55919289150049634 0 -0.82903758062907751 I I #
edge $-1 $718 5.6494427583605891 $422 22.829243847007934 $604 $725 forward 7 unknown #
point $-1 75.579699087496564 22.829243847007934 11.219563760859 #
point $-1 68.973569736172138 22.829243847007934 11.219563760859003 #
edge $-1 $726 1 $726 0 $425 $-1 forward 7 unknown #
vertex $-1 $426 $727 #
ellipse-curve $-1 68.679706338805929 10.557957355116969 3.8964102995666572 0.82903758062907751 0 0.55919289150049634 0.83878933725074445 0 -1.2435563709436162 1 I I #
point $-1 73.11542374908511 10.557957355116969 5.0790124727867969 #
edge $-1 $728 1 $728 0 $429 $-1 forward 7 unknown #
vertex $-1 $430 $729 #
ellipse-curve $-1 68.679706338805929 17.920729250251547 3.8964102995666572 0.82903758062907751 0 0.55919289150049634 0.83878933725074445 0 -1.2435563709436162 1 I I #
point $-1 73.11542374908511 17.920729250251547 5.0790124727867969 #
plane-surface $-1 75.579699087496564 0 0 -1 0 0 0 0 1 forward_v I I I I #
coedge $-1 $438 $436 $440 $625 reversed $281 $-1 #
edge $-1 $451 -11.219563760859 $627 11.219563760859 $450 $730 forward 7 unknown #
vertex $-1 $625 $731 #
straight-curve $-1 -75.579699087496564 -39.721610095088906 0 0 0 -1 I I #
edge $-1 $623 -39.721610095088906 $627 39.721610095088906 $621 $732 forward 7 unknown #
straight-curve $-1 0 -39.721610095088906 -11.219563760859 -1 0 0 I I #
vertex $-1 $443 $733 #
straight-curve $-1 0 39.721610095088906 -11.219563760859 1 0 0 I I #
point $-1 75.579699087496564 39.721610095088906 -11.219563760859 #
point $-1 75.579699087496564 -39.721610095088906 -11.219563760859 #
straight-curve $-1 -75.579699087496564 0 11.219563760859 0 -1 0 I I #
point $-1 -75.579699087496564 39.721610095088906 11.219563760859 #
point $-1 -75.579699087496564 -39.721610095088906 11.219563760859 #
straight-curve $-1 75.579699087496564 -39.721610095088906 0 0 0 -1 I I #
straight-curve $-1 75.579699087496564 39.721610095088906 0 0 0 -1 I I #
plane-surface $-1 75.579699087496564 0 0 -1 0 0 0 0 1 forward_v I I I I #
coedge $-1 $464 $463 $474 $648 reversed $183 $-1 #
coedge $-1 $734 $467 $464 $639 forward $461 $-1 #
edge $-1 $640 30.359425649152076 $735 39.721610095088906 $464 $736 forward 7 unknown #
vertex $-1 $639 $737 #
straight-curve $-1 -75.579699087496564 -30.359425649152076 4.0252885706494457 0 0 -1 I I #
coedge $-1 $467 $734 $469 $644 forward $461 $-1 #
straight-curve $-1 0 -30.359425649152076 11.219563760859 -1 0 0 I I #
edge $-1 $651 -39.721610095088906 $470 -30.359425649152076 $469 $738 forward 7 unknown #
point $-1 75.579699087496564 -30.359425649152076 11.219563760859002 #
straight-curve $-1 -75.579699087496564 -17.520258936060245 4.8815905217387812 0 -1 0 I I #
coedge $-1 $474 $473 $734 $739 reversed $300 $-1 #
edge $-1 $735 -11.219563760859 $475 -4.8815905217387812 $637 $740 forward 7 unknown #
point $-1 -75.579699087496564 -39.721610095088906 4.8815905217387812 #
point $-1 -75.579699087496564 -30.359425649152076 4.8815905217387812 #
vertex $-1 $644 $741 #
straight-curve $-1 75.579699087496564 -39.721610095088906 0 0 0 -1 I I #
plane-surface $-1 0 39.721610095088906 0 0 -1 0 0 0 -1 forward_v I I I I #
coedge $-1 $486 $485 $663 $742 forward $191 $-1 #
edge $-1 $657 30.359425649152072 $666 39.721610095088906 $501 $743 forward 7 unknown #
edge $-1 $744 -39.721610095088906 $492 -30.359425649152072 $489 $745 forward 7 unknown #
vertex $-1 $655 $746 #
straight-curve $-1 0 30.359425649152072 11.219563760859 1 0 0 I I #
coedge $-1 $490 $489 $496 $664 forward $483 $-1 #
point $-1 -75.579699087496564 30.359425649152072 4.8815905217387812 #
point $-1 -75.579699087496564 30.359425649152072 11.219563760859002 #
straight-curve $-1 -75.579699087496564 17.520258936060245 4.8815905217387812 0 -1 0 I I #
coedge $-1 $497 $496 $654 $742 reversed $498 $-1 #
edge $-1 $744 -11.219563760859 $499 -4.8815905217387812 $496 $747 forward 7 unknown #
point $-1 -75.579699087496564 39.721610095088906 4.8815905217387812 #
vertex $-1 $655 $748 #
straight-curve $-1 75.579699087496564 39.721610095088906 0 0 0 -1 I I #
straight-curve $-1 75.579699087496564 30.359425649152072 4.0252885706494457 0 0 -1 I I #
edge $-1 $670 42.22559542699409 $673 47.700219179576735 $507 $749 forward 7 unknown #
vertex $-1 $521 $750 #
straight-curve $-1 -93.956512457650263 -15.179712824576042 11.219563760858996 -1 0 0 I I #
edge $-1 $673 6.0218180665192786 $518 12.293971449594245 $517 $751 forward 7 unknown #
vertex $-1 $672 $752 #
straight-curve $-1 -75.579699087496536 -15.179712824576042 5.7449400082763873 0.66913059716165679 0 0.74314483375859142 I I #
point $-1 -70.650325842346604 -15.179712824576042 11.219563760859 #
point $-1 -75.579699087496564 -21.451866207651008 5.7449400082763553 #
straight-curve $-1 -75.579699087496564 0 11.219563760859 0 -1 0 I I #
vertex $-1 $524 $753 #
point $-1 -71.348185711446703 -18.315789516113526 8.2370266843706581 #
coedge $-1 $539 $538 $531 $681 forward $528 $-1 #
edge $-1 $682 42.22559542699409 $685 47.700219179576735 $680 $754 forward 7 unknown #
vertex $-1 $543 $755 #
straight-curve $-1 -93.956512457650263 -2.96918648050036 11.219563760858996 -1 0 0 I I #
edge $-1 $685 -0.083445105518562102 $540 6.1887082775564064 $539 $756 forward 7 unknown #
vertex $-1 $684 $757 #
straight-curve $-1 -75.579699087496536 -2.96918648050036 5.7449400082763873 0.66913059716165679 0 0.74314483375859142 I I #
point $-1 -70.650325842346604 -2.96918648050036 11.219563760859 #
point $-1 -75.579699087496564 -9.2413398635753286 5.7449400082763553 #
straight-curve $-1 -75.579699087496564 0 11.219563760859 0 -1 0 I I #
vertex $-1 $546 $758 #
point $-1 -71.348185711446703 -6.1052631720378443 8.2370266843706581 #
coedge $-1 $561 $560 $553 $693 forward $550 $-1 #
edge $-1 $694 42.22559542699409 $697 47.700219179576735 $692 $759 forward 7 unknown #
vertex $-1 $565 $760 #
straight-curve $-1 -93.956512457650263 9.2413398635753214 11.219563760858996 -1 0 0 I I #
edge $-1 $697 -6.1887082775564028 $562 0.083445105518565654 $561 $761 forward 7 unknown #
vertex $-1 $696 $762 #
straight-curve $-1 -75.579699087496536 9.2413398635753214 5.7449400082763873 0.66913059716165679 0 0.74314483375859142 I I #
point $-1 -70.650325842346604 9.2413398635753214 11.219563760859 #
point $-1 -75.579699087496564 2.9691864805003529 5.7449400082763553 #
straight-curve $-1 -75.579699087496564 0 11.219563760859 0 -1 0 I I #
vertex $-1 $568 $763 #
point $-1 -71.348185711446703 6.1052631720378372 8.2370266843706581 #
coedge $-1 $583 $582 $575 $705 forward $572 $-1 #
edge $-1 $706 42.22559542699409 $709 47.700219179576735 $704 $764 forward 7 unknown #
vertex $-1 $587 $765 #
straight-curve $-1 -93.956512457650263 21.451866207651001 11.219563760858996 -1 0 0 I I #
edge $-1 $709 -12.293971449594242 $584 -6.0218180665192751 $583 $766 forward 7 unknown #
vertex $-1 $708 $767 #
straight-curve $-1 -75.579699087496536 21.451866207651001 5.7449400082763873 0.66913059716165679 0 0.74314483375859142 I I #
point $-1 -70.650325842346604 21.451866207651001 11.219563760859 #
point $-1 -75.579699087496564 15.179712824576034 5.7449400082763553 #
straight-curve $-1 -75.579699087496564 0 11.219563760859 0 -1 0 I I #
vertex $-1 $590 $768 #
point $-1 -71.348185711446703 18.315789516113519 8.2370266843706581 #
coedge $-1 $605 $604 $597 $717 forward $594 $-1 #
edge $-1 $718 94.415264550088395 $721 104.20925438434558 $716 $769 forward 7 unknown #
vertex $-1 $609 $770 #
straight-curve $-1 58.184629948445497 5.6494427583605891 11.219563760859003 1 0 0 I I #
edge $-1 $721 -1.4702288929815417 $606 15.709572195665803 $605 $771 forward 7 unknown #
vertex $-1 $720 $772 #
straight-curve $-1 -8.9475618554527045 5.6494427583605891 126.74239567894554 -0.55919289150049634 0 0.82903758062907751 I I #
point $-1 68.973569736172138 5.6494427583605891 11.219563760859003 #
point $-1 75.579699087496564 22.829243847007934 1.4255739266018139 #
straight-curve $-1 75.579699087496564 0 11.219563760859 0 1 0 I I #
vertex $-1 $612 $773 #
point $-1 69.518495676056673 10.557957355116969 2.652853928623041 #
vertex $-1 $616 $774 #
point $-1 69.518495676056673 17.920729250251547 2.652853928623041 #
straight-curve $-1 -75.579699087496564 39.721610095088906 0 0 0 -1 I I #
point $-1 -75.579699087496564 -39.721610095088906 -11.219563760859 #
straight-curve $-1 -75.579699087496564 0 -11.219563760859 0 1 0 I I #
point $-1 -75.579699087496564 39.721610095088906 -11.219563760859 #
coedge $-1 $642 $638 $647 $739 forward $461 $-1 #
vertex $-1 $639 $775 #
straight-curve $-1 -75.579699087496564 0 11.219563760859 0 -1 0 I I #
point $-1 -75.579699087496564 -30.359425649152076 11.219563760859002 #
straight-curve $-1 75.579699087496564 0 11.219563760859 0 1 0 I I #
edge $-1 $735 -75.579699087496564 $651 75.579699087496564 $647 $776 forward 7 unknown #
straight-curve $-1 -75.579699087496564 -39.721610095088906 0 0 0 -1 I I #
point $-1 75.579699087496564 -39.721610095088906 11.219563760859 #
edge $-1 $666 -75.579699087496564 $744 75.579699087496564 $663 $777 forward 7 unknown #
straight-curve $-1 75.579699087496564 0 11.219563760859 0 1 0 I I #
vertex $-1 $742 $778 #
straight-curve $-1 -75.579699087496564 0 11.219563760859 0 -1 0 I I #
point $-1 75.579699087496564 30.359425649152072 11.219563760859002 #
straight-curve $-1 -75.579699087496564 39.721610095088906 0 0 0 -1 I I #
point $-1 75.579699087496564 39.721610095088906 11.219563760859 #
straight-curve $-1 -75.579699087496564 -15.179712824576042 53.445159187853093 0 0 -1 I I #
point $-1 -75.579699087496564 -15.179712824576042 11.219563760859 #
straight-curve $-1 -75.579699087496564 -9.1578947580567629 5.74494000827635 0 -1 0 I I #
point $-1 -75.579699087496564 -15.179712824576042 5.7449400082763553 #
point $-1 -71.27417147484978 -18.315789516113526 6.8247512534504109 #
straight-curve $-1 -75.579699087496564 -2.96918648050036 53.445159187853093 0 0 -1 I I #
point $-1 -75.579699087496564 -2.96918648050036 11.219563760859 #
straight-curve $-1 -75.579699087496564 -3.0526315860189221 5.74494000827635 0 -1 0 I I #
point $-1 -75.579699087496564 -2.96918648050036 5.7449400082763553 #
point $-1 -71.27417147484978 -6.1052631720378443 6.8247512534504109 #
straight-curve $-1 -75.579699087496564 9.2413398635753214 53.445159187853093 0 0 -1 I I #
point $-1 -75.579699087496564 9.2413398635753214 11.219563760859 #
straight-curve $-1 -75.579699087496564 3.0526315860189186 5.74494000827635 0 -1 0 I I #
point $-1 -75.579699087496564 9.2413398635753214 5.7449400082763553 #
point $-1 -71.27417147484978 6.1052631720378372 6.8247512534504109 #
straight-curve $-1 -75.579699087496564 21.451866207651001 53.445159187853093 0 0 -1 I I #
point $-1 -75.579699087496564 21.451866207651001 11.219563760859 #
straight-curve $-1 -75.579699087496564 9.1578947580567593 5.74494000827635 0 -1 0 I I #
point $-1 -75.579699087496564 21.451866207651001 5.7449400082763553 #
point $-1 -71.27417147484978 18.315789516113519 6.8247512534504109 #
straight-curve $-1 75.579699087496564 5.6494427583605891 105.6348283109474 0 0 -1 I I #
point $-1 75.579699087496564 5.6494427583605891 11.219563760859 #
straight-curve $-1 75.579699087496564 7.1196716513421308 1.4255739266018068 0 1 0 I I #
point $-1 75.579699087496564 5.6494427583605891 1.4255739266018139 #
point $-1 67.436149967862306 10.557957355116969 3.0576209623159123 #
point $-1 67.436149967862306 17.920729250251547 3.0576209623159123 #
point $-1 -75.579699087496564 -39.721610095088906 11.219563760859 #
straight-curve $-1 0 -39.721610095088906 11.219563760859 1 0 0 I I #
straight-curve $-1 0 39.721610095088906 11.219563760859 -1 0 0 I I #
point $-1 -75.579699087496564 39.721610095088906 11.219563760859 #
End-of-ACIS-data 