500 0 8 0           
7 Unknown 11 ACIS 5.0 NT 24 Fri Mar 26 01:41:12 1999 
-1 9.9999999999999995e-007 1e-010 
body $-1 $8 $-1 $9 #
body $-1 $10 $-1 $11 #
body $-1 $12 $-1 $13 #
body $-1 $14 $-1 $15 #
body $-1 $16 $-1 $17 #
body $-1 $18 $-1 $19 #
body $-1 $20 $-1 $21 #
body $-1 $22 $-1 $23 #
lump $-1 $-1 $24 $0 #
transform $-1 1 0 0 0 1 0 0 0 1 76.787011322367022 35.773790705365947 17.80435808722304 1 rotate no_reflect no_shear #
lump $-1 $-1 $25 $1 #
transform $-1 1 0 0 0 1 0 0 0 1 76.787011322367022 35.773790705365947 17.80435808722304 1 rotate no_reflect no_shear #
lump $-1 $-1 $26 $2 #
transform $-1 1 0 0 0 1 0 0 0 1 76.787011322367022 35.773790705365947 17.80435808722304 1 rotate no_reflect no_shear #
lump $-1 $-1 $27 $3 #
transform $-1 1 0 0 0 1 0 0 0 1 76.787011322367022 35.773790705365947 17.80435808722304 1 rotate no_reflect no_shear #
lump $-1 $-1 $28 $4 #
transform $-1 1 0 0 0 1 0 0 0 1 76.787011322367022 35.773790705365947 17.80435808722304 1 rotate no_reflect no_shear #
lump $-1 $-1 $29 $5 #
transform $-1 1 0 0 0 1 0 0 0 1 76.787011322367022 35.773790705365947 17.80435808722304 1 rotate no_reflect no_shear #
lump $-1 $-1 $30 $6 #
transform $-1 1 0 0 0 1 0 0 0 1 76.787011322367022 35.773790705365947 17.80435808722304 1 rotate no_reflect no_shear #
lump $-1 $-1 $31 $7 #
transform $-1 1 0 0 0 1 0 0 0 1 76.787011322367022 35.773790705365947 17.80435808722304 1 rotate no_reflect no_shear #
shell $-1 $-1 $-1 $32 $-1 $8 #
shell $-1 $-1 $-1 $33 $-1 $10 #
shell $-1 $-1 $-1 $34 $-1 $12 #
shell $-1 $-1 $-1 $35 $-1 $14 #
shell $-1 $-1 $-1 $36 $-1 $16 #
shell $-1 $-1 $-1 $37 $-1 $18 #
shell $-1 $-1 $-1 $38 $-1 $20 #
shell $-1 $-1 $-1 $39 $-1 $22 #
face $-1 $40 $41 $24 $-1 $42 forward single #
face $-1 $43 $44 $25 $-1 $45 reversed single #
face $-1 $46 $47 $26 $-1 $48 reversed single #
face $-1 $49 $50 $27 $-1 $51 forward single #
face $-1 $52 $53 $28 $-1 $54 reversed single #
face $-1 $55 $56 $29 $-1 $57 forward single #
face $-1 $58 $59 $30 $-1 $60 forward single #
face $-1 $61 $62 $31 $-1 $63 forward single #
face $-1 $64 $65 $24 $-1 $66 reversed single #
loop $-1 $-1 $67 $32 #
plane-surface $-1 0 0 17.80435808722304 0 0 1 1 0 0 forward_v I I I I #
face $-1 $68 $69 $25 $-1 $70 reversed single #
loop $-1 $-1 $71 $33 #
plane-surface $-1 -72.497979657536703 -17.758553643148211 0 0 -1 0 0 0 -1 forward_v I I I I #
face $-1 $72 $73 $26 $-1 $74 reversed single #
loop $-1 $-1 $75 $34 #
plane-surface $-1 95.71606184029207 -5.5140281994202649 222.63605557540694 0 -1 0 -0.7660444514056185 0 -0.64278759981090561 forward_v I I I I #
face $-1 $76 $77 $27 $-1 $78 forward single #
loop $-1 $79 $80 $35 #
cone-surface $-1 70.179563341513003 -11.636290921284239 10.554369641351032 -0.7660444514056185 0 -0.64278759981090561 0.96418139971635841 0 -1.1490666771084277 1 I I 0 1 1.5 forward I I I I #
face $-1 $81 $82 $28 $-1 $83 reversed single #
loop $-1 $-1 $84 $36 #
plane-surface $-1 -194.43153924940634 -3.7937595214996591 112.80326968541975 0 1 0 -0.7660444514056185 0 0.64278759981090561 forward_v I I I I #
face $-1 $85 $86 $29 $-1 $87 forward single #
loop $-1 $88 $89 $37 #
cone-surface $-1 -74.701002627809984 -2.5132622466055849 15.504101082193364 0.7660444514056185 0 -0.64278759981090561 0.3213937999054528 0 0.38302222570280925 1 I I 0 1 0.5 forward I I I I #
face $-1 $90 $91 $30 $-1 $92 forward single #
loop $-1 $93 $94 $38 #
cone-surface $-1 -74.701002627809984 -0.5925163342644737 15.504101082193364 0.7660444514056185 0 -0.64278759981090561 0.3213937999054528 0 0.38302222570280925 1 I I 0 1 0.5 forward I I I I #
face $-1 $95 $96 $31 $-1 $97 forward single #
loop $-1 $98 $99 $39 #
cone-surface $-1 -74.701002627809984 1.3282295780766376 15.504101082193364 0.7660444514056185 0 -0.64278759981090561 0.3213937999054528 0 0.38302222570280925 1 I I 0 1 0.5 forward I I I I #
face $-1 $100 $101 $24 $-1 $102 reversed single #
loop $-1 $-1 $103 $40 #
plane-surface $-1 0 0 -17.80435808722304 0 0 1 1 0 0 forward_v I I I I #
coedge $-1 $104 $105 $106 $107 forward $41 $-1 #
face $-1 $108 $109 $25 $-1 $110 forward single #
loop $-1 $-1 $111 $43 #
plane-surface $-1 -68.208947992706385 -26.766172174257079 0 -1 0 0 0 0 1 forward_v I I I I #
coedge $-1 $112 $113 $114 $115 forward $44 $-1 #
face $-1 $116 $117 $26 $-1 $118 reversed single #
loop $-1 $-1 $119 $46 #
plane-surface $-1 -21.92846608674725 -11.636290921284235 123.92057816629269 0.7660444514056185 0 0.64278759981090561 0.64278759981090561 0 -0.7660444514056185 forward_v I I I I #
coedge $-1 $120 $121 $122 $123 reversed $47 $-1 #
face $-1 $-1 $124 $27 $-1 $125 forward single #
loop $-1 $126 $127 $49 #
cone-surface $-1 67.83428132713891 -11.636290921284239 8.586444419605666 -0.7660444514056185 0 -0.64278759981090561 0.48209069985817921 0 -0.57453333855421385 1 I I -0.70710678118654757 0.70710678118654757 0.75 forward I I I I #
loop $-1 $-1 $128 $35 #
coedge $-1 $80 $80 $129 $130 reversed $50 $-1 #
face $-1 $131 $132 $28 $-1 $133 reversed single #
loop $-1 $-1 $134 $52 #
plane-surface $-1 -76.787011322367022 -0.5925163342644737 14.087792276305493 -0.7660444514056185 0 0.64278759981090561 0.64278759981090561 0 0.7660444514056185 forward_v I I I I #
coedge $-1 $135 $136 $137 $138 reversed $53 $-1 #
face $-1 $-1 $139 $29 $-1 $140 forward single #
loop $-1 $141 $142 $55 #
cone-surface $-1 -73.982767280171089 -2.5132622466055849 14.901430082669737 0.7660444514056185 0 -0.64278759981090561 0.1606968999527264 0 0.19151111285140462 1 I I -0.70710678118654746 0.70710678118654746 0.25 forward I I I I #
loop $-1 $-1 $143 $37 #
coedge $-1 $89 $89 $144 $145 reversed $56 $-1 #
face $-1 $-1 $146 $30 $-1 $147 forward single #
loop $-1 $148 $149 $58 #
cone-surface $-1 -73.982767280171089 -0.5925163342644737 14.901430082669737 0.7660444514056185 0 -0.64278759981090561 0.1606968999527264 0 0.19151111285140462 1 I I -0.70710678118654746 0.70710678118654746 0.25 forward I I I I #
loop $-1 $-1 $150 $38 #
coedge $-1 $94 $94 $151 $152 reversed $59 $-1 #
face $-1 $-1 $153 $31 $-1 $154 forward single #
loop $-1 $155 $156 $61 #
cone-surface $-1 -73.982767280171089 1.3282295780766376 14.901430082669737 0.7660444514056185 0 -0.64278759981090561 0.1606968999527264 0 0.19151111285140462 1 I I -0.70710678118654746 0.70710678118654746 0.25 forward I I I I #
loop $-1 $-1 $157 $39 #
coedge $-1 $99 $99 $158 $159 reversed $62 $-1 #
face $-1 $160 $161 $24 $-1 $162 reversed single #
loop $-1 $-1 $163 $64 #
plane-surface $-1 0 -35.773790705365947 0 0 1 0 0 0 1 forward_v I I I I #
coedge $-1 $164 $165 $166 $167 forward $65 $-1 #
coedge $-1 $168 $67 $169 $170 forward $41 $-1 #
coedge $-1 $67 $168 $171 $172 forward $41 $-1 #
coedge $-1 $173 $174 $67 $107 reversed $175 $-1 #
edge $-1 $176 -35.773790705365947 $177 35.773790705365947 $106 $178 forward 7 unknown #
face $-1 $179 $180 $25 $-1 $181 reversed single #
loop $-1 $-1 $182 $68 #
plane-surface $-1 0 0 17.80435808722304 0 0 1 1 0 0 forward_v I I I I #
coedge $-1 $183 $184 $185 $186 reversed $69 $-1 #
coedge $-1 $187 $71 $188 $189 reversed $44 $-1 #
coedge $-1 $71 $187 $190 $191 reversed $44 $-1 #
coedge $-1 $184 $183 $71 $115 reversed $69 $-1 #
edge $-1 $192 -17.80435808722304 $193 17.80435808722304 $114 $194 forward 7 unknown #
face $-1 $195 $196 $26 $-1 $197 reversed single #
loop $-1 $-1 $198 $72 #
plane-surface $-1 95.71606184029207 -17.758553643148204 222.63605557540694 0 1 0 0.7660444514056185 0 0.64278759981090561 forward_v I I I I #
coedge $-1 $199 $200 $201 $202 reversed $73 $-1 #
coedge $-1 $121 $75 $203 $204 reversed $47 $-1 #
coedge $-1 $75 $120 $199 $205 reversed $47 $-1 #
coedge $-1 $201 $206 $75 $123 forward $207 $-1 #
edge $-1 $208 -28.928980402220986 $209 -19.255581792152654 $122 $210 forward 7 unknown #
loop $-1 $-1 $129 $76 #
plane-surface $-1 -21.92846608674725 -11.636290921284235 123.92057816629269 0.7660444514056185 0 0.64278759981090561 0.64278759981090561 0 -0.7660444514056185 forward_v I I I I #
loop $-1 $-1 $211 $49 #
coedge $-1 $127 $127 $128 $212 reversed $77 $-1 #
coedge $-1 $128 $128 $127 $212 forward $79 $-1 #
coedge $-1 $129 $129 $80 $130 forward $124 $-1 #
edge $-1 $213 0 $213 6.2831853071796004 $129 $214 forward 7 unknown #
face $-1 $215 $216 $28 $-1 $217 reversed single #
loop $-1 $-1 $218 $81 #
plane-surface $-1 -194.43153924940634 2.6087268529707117 112.80326968541975 0 -1 0 0.7660444514056185 0 -0.64278759981090561 forward_v I I I I #
coedge $-1 $219 $220 $221 $222 reversed $82 $-1 #
coedge $-1 $136 $84 $223 $224 reversed $53 $-1 #
coedge $-1 $84 $135 $219 $225 reversed $53 $-1 #
coedge $-1 $221 $226 $84 $138 forward $227 $-1 #
edge $-1 $228 20.428758302336149 $229 23.547327221875278 $137 $230 forward 7 unknown #
loop $-1 $-1 $144 $85 #
plane-surface $-1 -76.787011322367022 -0.5925163342644737 14.087792276305493 -0.7660444514056185 0 0.64278759981090561 0.64278759981090561 0 0.7660444514056185 forward_v I I I I #
loop $-1 $-1 $231 $55 #
coedge $-1 $142 $142 $143 $232 reversed $86 $-1 #
coedge $-1 $143 $143 $142 $232 forward $88 $-1 #
coedge $-1 $144 $144 $89 $145 forward $139 $-1 #
edge $-1 $233 0 $233 6.2831853071796004 $144 $234 forward 7 unknown #
loop $-1 $-1 $151 $90 #
plane-surface $-1 -76.787011322367022 -0.5925163342644737 14.087792276305493 -0.7660444514056185 0 0.64278759981090561 0.64278759981090561 0 0.7660444514056185 forward_v I I I I #
loop $-1 $-1 $235 $58 #
coedge $-1 $149 $149 $150 $236 reversed $91 $-1 #
coedge $-1 $150 $150 $149 $236 forward $93 $-1 #
coedge $-1 $151 $151 $94 $152 forward $146 $-1 #
edge $-1 $237 0 $237 6.2831853071796004 $151 $238 forward 7 unknown #
loop $-1 $-1 $158 $95 #
plane-surface $-1 -76.787011322367022 -0.5925163342644737 14.087792276305493 -0.7660444514056185 0 0.64278759981090561 0.64278759981090561 0 0.7660444514056185 forward_v I I I I #
loop $-1 $-1 $239 $61 #
coedge $-1 $156 $156 $157 $240 reversed $96 $-1 #
coedge $-1 $157 $157 $156 $240 forward $98 $-1 #
coedge $-1 $158 $158 $99 $159 forward $153 $-1 #
edge $-1 $241 0 $241 6.2831853071796004 $158 $242 forward 7 unknown #
face $-1 $243 $244 $24 $-1 $245 reversed single #
loop $-1 $-1 $246 $100 #
plane-surface $-1 -76.787011322367022 0 0 1 0 0 0 0 -1 forward_v I I I I #
coedge $-1 $247 $171 $248 $249 forward $101 $-1 #
coedge $-1 $250 $103 $247 $251 forward $65 $-1 #
coedge $-1 $103 $250 $252 $253 forward $65 $-1 #
coedge $-1 $174 $173 $103 $167 reversed $175 $-1 #
edge $-1 $254 -35.773790705365947 $255 35.773790705365947 $166 $256 forward 7 unknown #
coedge $-1 $105 $104 $257 $258 forward $41 $-1 #
coedge $-1 $259 $260 $104 $170 reversed $244 $-1 #
edge $-1 $177 -76.787011322367022 $261 76.787011322367022 $169 $262 forward 7 unknown #
coedge $-1 $163 $263 $105 $172 reversed $101 $-1 #
edge $-1 $264 -76.787011322367022 $176 76.787011322367022 $171 $265 forward 7 unknown #
coedge $-1 $166 $106 $263 $266 forward $175 $-1 #
coedge $-1 $106 $166 $259 $267 reversed $175 $-1 #
loop $-1 $-1 $173 $243 #
vertex $-1 $107 $268 #
vertex $-1 $107 $269 #
straight-curve $-1 76.787011322367022 0 17.80435808722304 0 1 0 I I #
face $-1 $270 $271 $25 $-1 $272 reversed single #
loop $-1 $-1 $273 $108 #
plane-surface $-1 -76.787011322367022 0 0 1 0 0 0 0 -1 forward_v I I I I #
coedge $-1 $190 $274 $184 $275 forward $109 $-1 #
coedge $-1 $114 $111 $276 $277 reversed $69 $-1 #
coedge $-1 $111 $114 $182 $275 reversed $69 $-1 #
coedge $-1 $278 $279 $111 $186 forward $280 $-1 #
edge $-1 $281 -17.80435808722304 $282 17.80435808722304 $185 $283 forward 7 unknown #
coedge $-1 $113 $112 $273 $284 reversed $44 $-1 #
coedge $-1 $276 $285 $112 $189 forward $271 $-1 #
edge $-1 $286 -40.53802149359867 $193 -31.959958163938033 $188 $287 forward 7 unknown #
coedge $-1 $288 $182 $113 $191 forward $109 $-1 #
edge $-1 $192 31.959958163938033 $289 40.53802149359867 $190 $290 forward 7 unknown #
vertex $-1 $191 $291 #
vertex $-1 $189 $292 #
straight-curve $-1 -68.208947992706385 -17.758553643148211 0 0 0 -1 I I #
face $-1 $-1 $207 $26 $-1 $293 forward single #
loop $-1 $-1 $294 $116 #
plane-surface $-1 76.787011322367022 0 0 -1 0 0 0 0 1 forward_v I I I I #
coedge $-1 $295 $296 $297 $298 reversed $117 $-1 #
coedge $-1 $299 $119 $121 $205 forward $73 $-1 #
coedge $-1 $119 $299 $295 $300 forward $73 $-1 #
coedge $-1 $297 $122 $119 $202 forward $207 $-1 #
edge $-1 $209 -0.30411726122185279 $301 11.940408182506086 $201 $302 forward 7 unknown #
coedge $-1 $303 $304 $120 $204 forward $196 $-1 #
edge $-1 $305 -105.04197754845012 $208 -93.513669700480435 $203 $306 forward 7 unknown #
edge $-1 $209 138.52488570912109 $305 153.5740226447341 $121 $307 forward 7 unknown #
coedge $-1 $122 $297 $303 $308 forward $207 $-1 #
loop $-1 $-1 $297 $195 #
vertex $-1 $204 $309 #
vertex $-1 $123 $310 #
straight-curve $-1 47.858030920146035 -5.5140281994202649 17.804358087223036 -1 0 0 I I #
coedge $-1 $211 $211 $-1 $311 reversed $126 $-1 #
edge $-1 $312 0 $312 6.2831853071796004 $127 $313 forward 7 unknown #
vertex $-1 $130 $314 #
ellipse-curve $-1 71.950312017332863 -11.636290921284239 12.040204163238197 0.7660444514056185 0 0.64278759981090561 0.96418139971635841 0 -1.1490666771084277 1 I I #
face $-1 $-1 $227 $28 $-1 $315 forward single #
loop $-1 $-1 $316 $131 #
plane-surface $-1 -76.787011322367022 0 0 1 0 0 0 0 -1 forward_v I I I I #
coedge $-1 $317 $318 $319 $320 reversed $132 $-1 #
coedge $-1 $321 $134 $136 $225 forward $82 $-1 #
coedge $-1 $134 $321 $317 $322 forward $82 $-1 #
coedge $-1 $319 $137 $134 $222 forward $227 $-1 #
edge $-1 $229 -3.4975013543674223 $323 2.9049850201029486 $221 $324 forward 7 unknown #
coedge $-1 $325 $326 $135 $224 forward $216 $-1 #
edge $-1 $327 -42.313842566404382 $228 -38.597276755486831 $223 $328 forward 7 unknown #
edge $-1 $229 -4.8516320483726583 $327 0 $136 $329 forward 7 unknown #
coedge $-1 $137 $319 $325 $330 forward $227 $-1 #
loop $-1 $-1 $319 $215 #
vertex $-1 $224 $331 #
vertex $-1 $138 $332 #
straight-curve $-1 -97.215769624703171 -3.7937595214996591 17.804358087223036 1 0 0 I I #
coedge $-1 $231 $231 $-1 $333 reversed $141 $-1 #
edge $-1 $334 0 $334 6.2831853071796004 $142 $335 forward 7 unknown #
vertex $-1 $145 $336 #
ellipse-curve $-1 -75.227726862597464 -2.5132622466055849 15.946075181764261 -0.7660444514056185 0 0.64278759981090561 0.3213937999054528 0 0.38302222570280925 1 I I #
coedge $-1 $235 $235 $-1 $337 reversed $148 $-1 #
edge $-1 $338 0 $338 6.2831853071796004 $149 $339 forward 7 unknown #
vertex $-1 $152 $340 #
ellipse-curve $-1 -75.227726862597464 -0.5925163342644737 15.946075181764261 -0.7660444514056185 0 0.64278759981090561 0.3213937999054528 0 0.38302222570280925 1 I I #
coedge $-1 $239 $239 $-1 $341 reversed $155 $-1 #
edge $-1 $342 0 $342 6.2831853071796004 $156 $343 forward 7 unknown #
vertex $-1 $159 $344 #
ellipse-curve $-1 -75.227726862597464 1.3282295780766376 15.946075181764261 -0.7660444514056185 0 0.64278759981090561 0.3213937999054528 0 0.38302222570280925 1 I I #
face $-1 $-1 $175 $24 $-1 $345 reversed single #
loop $-1 $-1 $259 $160 #
plane-surface $-1 0 35.773790705365947 0 0 -1 0 0 0 -1 forward_v I I I I #
coedge $-1 $346 $257 $260 $347 forward $161 $-1 #
coedge $-1 $263 $163 $164 $251 reversed $101 $-1 #
coedge $-1 $257 $346 $163 $249 reversed $161 $-1 #
edge $-1 $264 -17.80435808722304 $348 17.80435808722304 $248 $349 forward 7 unknown #
coedge $-1 $165 $164 $346 $350 forward $65 $-1 #
edge $-1 $255 -76.787011322367022 $348 76.787011322367022 $247 $351 forward 7 unknown #
coedge $-1 $260 $259 $165 $253 reversed $244 $-1 #
edge $-1 $352 -76.787011322367022 $254 76.787011322367022 $252 $353 forward 7 unknown #
vertex $-1 $167 $354 #
vertex $-1 $266 $355 #
straight-curve $-1 76.787011322367022 0 -17.80435808722304 0 -1 0 I I #
coedge $-1 $246 $248 $168 $258 reversed $161 $-1 #
edge $-1 $261 -35.773790705365947 $264 35.773790705365947 $257 $356 forward 7 unknown #
coedge $-1 $252 $169 $174 $267 forward $244 $-1 #
coedge $-1 $169 $252 $246 $347 reversed $244 $-1 #
vertex $-1 $170 $357 #
straight-curve $-1 0 35.773790705365947 17.80435808722304 -1 0 0 I I #
coedge $-1 $171 $247 $173 $266 reversed $101 $-1 #
vertex $-1 $258 $358 #
straight-curve $-1 0 -35.773790705365947 17.80435808722304 1 0 0 I I #
edge $-1 $176 -17.80435808722304 $255 17.80435808722304 $173 $359 forward 7 unknown #
edge $-1 $177 -17.80435808722304 $254 17.80435808722304 $174 $360 forward 7 unknown #
point $-1 76.787011322367022 -35.773790705365947 17.80435808722304 #
point $-1 76.787011322367022 35.773790705365947 17.80435808722304 #
face $-1 $-1 $280 $25 $-1 $361 reversed single #
loop $-1 $-1 $276 $179 #
plane-surface $-1 0 0 -17.80435808722304 0 0 1 1 0 0 forward_v I I I I #
coedge $-1 $362 $363 $187 $284 forward $180 $-1 #
coedge $-1 $182 $288 $278 $364 forward $109 $-1 #
edge $-1 $282 -22.390704618237407 $192 -4.3754675560196716 $182 $365 forward 7 unknown #
coedge $-1 $366 $188 $183 $277 forward $271 $-1 #
edge $-1 $193 4.3754675560196716 $281 22.390704618237407 $276 $367 forward 7 unknown #
coedge $-1 $368 $185 $274 $364 reversed $280 $-1 #
coedge $-1 $185 $368 $366 $369 reversed $280 $-1 #
loop $-1 $-1 $185 $270 #
vertex $-1 $369 $370 #
vertex $-1 $186 $371 #
straight-curve $-1 -68.208947992706385 -35.773790705365947 0 0 0 1 I I #
edge $-1 $289 -17.80435808722304 $286 17.80435808722304 $273 $372 forward 7 unknown #
coedge $-1 $188 $366 $362 $373 forward $271 $-1 #
vertex $-1 $189 $374 #
straight-curve $-1 -36.248989828768352 -17.758553643148211 -17.80435808722304 1 0 0 I I #
coedge $-1 $274 $190 $363 $375 forward $109 $-1 #
vertex $-1 $375 $376 #
straight-curve $-1 -36.248989828768352 -17.758553643148211 17.80435808722304 -1 0 0 I I #
point $-1 -68.208947992706385 -17.758553643148211 17.80435808722304 #
point $-1 -68.208947992706385 -17.758553643148211 -17.80435808722304 #
plane-surface $-1 0 0 17.80435808722304 0 0 1 1 0 0 forward_v I I I I #
coedge $-1 $304 $303 $296 $377 forward $196 $-1 #
coedge $-1 $296 $198 $200 $300 reversed $117 $-1 #
coedge $-1 $198 $295 $294 $377 reversed $117 $-1 #
coedge $-1 $206 $201 $198 $298 forward $207 $-1 #
edge $-1 $301 19.255581792152654 $378 28.928980402220986 $297 $379 forward 7 unknown #
coedge $-1 $200 $199 $304 $380 reversed $73 $-1 #
edge $-1 $381 -153.5740226447341 $301 -138.52488570912109 $295 $382 forward 7 unknown #
vertex $-1 $202 $383 #
straight-curve $-1 67.113612712298703 -5.8181454606421177 17.804358087223036 0 -1 0 I I #
coedge $-1 $294 $203 $206 $308 reversed $196 $-1 #
coedge $-1 $203 $294 $299 $380 forward $196 $-1 #
vertex $-1 $204 $384 #
straight-curve $-1 76.787011322367022 -5.5140281994202649 111.31802778770347 0 0 1 I I #
straight-curve $-1 -21.92846608674725 -5.5140281994202649 123.92057816629269 0.64278759981090561 0 -0.7660444514056185 I I #
edge $-1 $378 -17.758553643148204 $208 -5.5140281994202649 $303 $385 forward 7 unknown #
point $-1 76.787011322367022 -5.5140281994202649 17.80435808722304 #
point $-1 67.113612712298689 -5.5140281994202649 17.804358087223036 #
edge $-1 $386 1 $386 0 $211 $-1 forward 7 unknown #
vertex $-1 $212 $387 #
ellipse-curve $-1 68.408814665693129 -11.636290921284239 9.0685351194638457 0.7660444514056185 0 0.64278759981090561 0.96418139971635841 0 -1.1490666771084277 1 I I #
point $-1 72.914493417049243 -11.636290921284239 10.891137486129793 #
plane-surface $-1 0 0 17.80435808722304 0 0 1 1 0 0 forward_v I I I I #
coedge $-1 $326 $325 $318 $388 forward $216 $-1 #
coedge $-1 $318 $218 $220 $322 reversed $132 $-1 #
coedge $-1 $218 $317 $316 $388 reversed $132 $-1 #
coedge $-1 $226 $221 $218 $320 forward $227 $-1 #
edge $-1 $323 -23.547327221875278 $389 -20.428758302336149 $319 $390 forward 7 unknown #
coedge $-1 $220 $219 $326 $391 reversed $82 $-1 #
edge $-1 $392 0 $323 4.8516320483726583 $317 $393 forward 7 unknown #
vertex $-1 $222 $394 #
straight-curve $-1 -73.668442402827893 -0.29625816713223685 17.80435808722304 0 1 0 I I #
coedge $-1 $316 $223 $226 $330 reversed $216 $-1 #
coedge $-1 $223 $316 $321 $391 forward $216 $-1 #
vertex $-1 $224 $395 #
straight-curve $-1 -76.787011322367022 -3.7937595214996591 56.401634842709875 0 0 1 I I #
straight-curve $-1 -76.787011322367022 -3.7937595214996591 14.087792276305493 -0.64278759981090561 0 -0.7660444514056185 I I #
edge $-1 $389 -2.6087268529707117 $228 3.7937595214996591 $325 $396 forward 7 unknown #
point $-1 -76.787011322367022 -3.7937595214996591 17.80435808722304 #
point $-1 -73.668442402827893 -3.7937595214996591 17.80435808722304 #
edge $-1 $397 1 $397 0 $231 $-1 forward 7 unknown #
vertex $-1 $232 $398 #
ellipse-curve $-1 -74.17427839302249 -2.5132622466055849 15.062126982622464 -0.7660444514056185 0 0.64278759981090561 0.3213937999054528 0 0.38302222570280925 1 I I #
point $-1 -74.906333062692013 -2.5132622466055849 16.329097407467074 #
edge $-1 $399 1 $399 0 $235 $-1 forward 7 unknown #
vertex $-1 $236 $400 #
ellipse-curve $-1 -74.17427839302249 -0.5925163342644737 15.062126982622464 -0.7660444514056185 0 0.64278759981090561 0.3213937999054528 0 0.38302222570280925 1 I I #
point $-1 -74.906333062692013 -0.5925163342644737 16.329097407467074 #
edge $-1 $401 1 $401 0 $239 $-1 forward 7 unknown #
vertex $-1 $240 $402 #
ellipse-curve $-1 -74.17427839302249 1.3282295780766376 15.062126982622464 -0.7660444514056185 0 0.64278759981090561 0.3213937999054528 0 0.38302222570280925 1 I I #
point $-1 -74.906333062692013 1.3282295780766376 16.329097407467074 #
plane-surface $-1 76.787011322367022 0 0 -1 0 0 0 0 1 forward_v I I I I #
coedge $-1 $248 $246 $250 $350 reversed $161 $-1 #
edge $-1 $261 -17.80435808722304 $352 17.80435808722304 $260 $403 forward 7 unknown #
vertex $-1 $350 $404 #
straight-curve $-1 -76.787011322367022 -35.773790705365947 0 0 0 -1 I I #
edge $-1 $348 -35.773790705365947 $352 35.773790705365947 $346 $405 forward 7 unknown #
straight-curve $-1 0 -35.773790705365947 -17.80435808722304 -1 0 0 I I #
vertex $-1 $253 $406 #
straight-curve $-1 0 35.773790705365947 -17.80435808722304 1 0 0 I I #
point $-1 76.787011322367022 35.773790705365947 -17.80435808722304 #
point $-1 76.787011322367022 -35.773790705365947 -17.80435808722304 #
straight-curve $-1 -76.787011322367022 0 17.80435808722304 0 -1 0 I I #
point $-1 -76.787011322367022 35.773790705365947 17.80435808722304 #
point $-1 -76.787011322367022 -35.773790705365947 17.80435808722304 #
straight-curve $-1 76.787011322367022 -35.773790705365947 0 0 0 -1 I I #
straight-curve $-1 76.787011322367022 35.773790705365947 0 0 0 -1 I I #
plane-surface $-1 0 -35.773790705365947 0 0 1 0 0 0 1 forward_v I I I I #
coedge $-1 $407 $273 $285 $373 reversed $180 $-1 #
coedge $-1 $273 $407 $288 $375 reversed $180 $-1 #
edge $-1 $408 -76.787011322367022 $282 -68.208947992706385 $278 $409 forward 7 unknown #
straight-curve $-1 -68.208947992706385 -13.38308608712854 17.80435808722304 0 1 0 I I #
coedge $-1 $285 $276 $279 $369 forward $271 $-1 #
straight-curve $-1 -68.208947992706385 -13.38308608712854 -17.80435808722304 0 -1 0 I I #
coedge $-1 $279 $278 $407 $410 forward $280 $-1 #
edge $-1 $281 68.208947992706385 $411 76.787011322367022 $279 $412 forward 7 unknown #
point $-1 -68.208947992706385 -35.773790705365947 -17.80435808722304 #
point $-1 -68.208947992706385 -35.773790705365947 17.80435808722304 #
straight-curve $-1 -76.787011322367022 -17.758553643148211 0 0 0 -1 I I #
edge $-1 $411 -35.773790705365947 $286 -17.758553643148211 $362 $413 forward 7 unknown #
point $-1 -76.787011322367022 -17.758553643148211 -17.80435808722304 #
edge $-1 $289 17.758553643148211 $408 35.773790705365947 $363 $414 forward 7 unknown #
point $-1 -76.787011322367022 -17.758553643148211 17.80435808722304 #
edge $-1 $378 93.513669700480435 $381 105.04197754845012 $294 $415 forward 7 unknown #
vertex $-1 $308 $416 #
straight-curve $-1 47.858030920146035 -17.758553643148204 17.804358087223036 1 0 0 I I #
edge $-1 $381 -11.940408182506086 $305 0.30411726122185279 $304 $417 forward 7 unknown #
vertex $-1 $380 $418 #
straight-curve $-1 -21.92846608674725 -17.758553643148204 123.92057816629269 -0.64278759981090561 0 0.7660444514056185 I I #
point $-1 67.113612712298689 -17.758553643148204 17.804358087223036 #
point $-1 76.787011322367036 -5.5140281994202649 6.276050239253351 #
straight-curve $-1 76.787011322367022 0 17.80435808722304 0 1 0 I I #
vertex $-1 $311 $419 #
point $-1 69.372996065409481 -11.636290921284239 7.9194684423554174 #
edge $-1 $389 38.597276755486831 $392 42.313842566404382 $316 $420 forward 7 unknown #
vertex $-1 $330 $421 #
straight-curve $-1 -97.215769624703171 2.6087268529707117 17.804358087223036 -1 0 0 I I #
edge $-1 $392 -2.9049850201029486 $327 3.4975013543674223 $326 $422 forward 7 unknown #
vertex $-1 $391 $423 #
straight-curve $-1 -76.787011322367022 2.6087268529707117 14.087792276305493 0.64278759981090561 0 0.7660444514056185 I I #
point $-1 -73.668442402827893 2.6087268529707117 17.80435808722304 #
point $-1 -76.787011322367022 -3.7937595214996591 14.087792276305493 #
straight-curve $-1 -76.787011322367022 0 17.80435808722304 0 -1 0 I I #
vertex $-1 $333 $424 #
point $-1 -73.852884593117039 -2.5132622466055849 15.445149208325272 #
vertex $-1 $337 $425 #
point $-1 -73.852884593117039 -0.5925163342644737 15.445149208325272 #
vertex $-1 $341 $426 #
point $-1 -73.852884593117039 1.3282295780766376 15.445149208325272 #
straight-curve $-1 -76.787011322367022 35.773790705365947 0 0 0 -1 I I #
point $-1 -76.787011322367022 -35.773790705365947 -17.80435808722304 #
straight-curve $-1 -76.787011322367022 0 -17.80435808722304 0 1 0 I I #
point $-1 -76.787011322367022 35.773790705365947 -17.80435808722304 #
coedge $-1 $363 $362 $368 $410 reversed $180 $-1 #
vertex $-1 $375 $427 #
straight-curve $-1 0 -35.773790705365947 17.80435808722304 1 0 0 I I #
edge $-1 $408 -17.80435808722304 $411 17.80435808722304 $407 $428 forward 7 unknown #
vertex $-1 $373 $429 #
straight-curve $-1 0 -35.773790705365947 -17.80435808722304 -1 0 0 I I #
straight-curve $-1 -76.787011322367022 0 -17.80435808722304 0 1 0 I I #
straight-curve $-1 -76.787011322367022 0 17.80435808722304 0 -1 0 I I #
straight-curve $-1 76.787011322367022 -17.758553643148204 111.31802778770347 0 0 -1 I I #
point $-1 76.787011322367022 -17.758553643148204 17.80435808722304 #
straight-curve $-1 76.787011322367022 -5.8181454606421177 6.276050239253351 0 1 0 I I #
point $-1 76.787011322367036 -17.758553643148204 6.276050239253351 #
point $-1 67.259747988584692 -11.636290921284239 8.1043537197474862 #
straight-curve $-1 -76.787011322367022 2.6087268529707117 56.401634842709875 0 0 -1 I I #
point $-1 -76.787011322367022 2.6087268529707117 17.80435808722304 #
straight-curve $-1 -76.787011322367022 -0.29625816713223685 14.087792276305484 0 -1 0 I I #
point $-1 -76.787011322367022 2.6087268529707117 14.087792276305493 #
point $-1 -73.791256167319688 -2.5132622466055849 14.74073318271701 #
point $-1 -73.791256167319688 -0.5925163342644737 14.74073318271701 #
point $-1 -73.791256167319688 1.3282295780766376 14.74073318271701 #
point $-1 -76.787011322367022 -35.773790705365947 17.80435808722304 #
straight-curve $-1 -76.787011322367022 -35.773790705365947 0 0 0 -1 I I #
point $-1 -76.787011322367022 -35.773790705365947 -17.80435808722304 #
End-of-ACIS-data 