500 0 8 0           
7 Unknown 11 ACIS 5.0 NT 24 Fri Mar 26 19:07:21 1999 
-1 9.9999999999999995e-007 1e-010 
body $-1 $8 $-1 $9 #
body $-1 $10 $-1 $11 #
body $-1 $12 $-1 $13 #
body $-1 $14 $-1 $15 #
body $-1 $16 $-1 $17 #
body $-1 $18 $-1 $19 #
body $-1 $20 $-1 $21 #
body $-1 $22 $-1 $23 #
lump $-1 $-1 $24 $0 #
transform $-1 1 0 0 0 1 0 0 0 1 43.071382793664355 21.770193630493782 7.3278656461735325 1 rotate no_reflect no_shear #
lump $-1 $-1 $25 $1 #
transform $-1 1 0 0 0 1 0 0 0 1 43.071382793664355 21.770193630493782 7.3278656461735325 1 rotate no_reflect no_shear #
lump $-1 $-1 $26 $2 #
transform $-1 1 0 0 0 1 0 0 0 1 43.071382793664355 21.770193630493782 7.3278656461735325 1 rotate no_reflect no_shear #
lump $-1 $-1 $27 $3 #
transform $-1 1 0 0 0 1 0 0 0 1 43.071382793664355 21.770193630493782 7.3278656461735325 1 rotate no_reflect no_shear #
lump $-1 $-1 $28 $4 #
transform $-1 1 0 0 0 1 0 0 0 1 43.071382793664355 21.770193630493782 7.3278656461735325 1 rotate no_reflect no_shear #
lump $-1 $-1 $29 $5 #
transform $-1 1 0 0 0 1 0 0 0 1 43.071382793664355 21.770193630493782 7.3278656461735325 1 rotate no_reflect no_shear #
lump $-1 $-1 $30 $6 #
transform $-1 1 0 0 0 1 0 0 0 1 43.071382793664355 21.770193630493782 7.3278656461735325 1 rotate no_reflect no_shear #
lump $-1 $-1 $31 $7 #
transform $-1 1 0 0 0 1 0 0 0 1 43.071382793664355 21.770193630493782 7.3278656461735325 1 rotate no_reflect no_shear #
shell $-1 $-1 $-1 $32 $-1 $8 #
shell $-1 $-1 $-1 $33 $-1 $10 #
shell $-1 $-1 $-1 $34 $-1 $12 #
shell $-1 $-1 $-1 $35 $-1 $14 #
shell $-1 $-1 $-1 $36 $-1 $16 #
shell $-1 $-1 $-1 $37 $-1 $18 #
shell $-1 $-1 $-1 $38 $-1 $20 #
shell $-1 $-1 $-1 $39 $-1 $22 #
face $-1 $40 $41 $24 $-1 $42 forward single #
face $-1 $43 $44 $25 $-1 $45 forward single #
face $-1 $46 $47 $26 $-1 $48 reversed single #
face $-1 $49 $50 $27 $-1 $51 forward single #
face $-1 $52 $53 $28 $-1 $54 forward single #
face $-1 $55 $56 $29 $-1 $57 reversed single #
face $-1 $58 $59 $30 $-1 $60 forward single #
face $-1 $61 $62 $31 $-1 $63 forward single #
face $-1 $64 $65 $24 $-1 $66 reversed single #
loop $-1 $-1 $67 $32 #
plane-surface $-1 0 0 7.3278656461735325 0 0 1 1 0 0 forward_v I I I I #
face $-1 $68 $69 $25 $-1 $70 reversed single #
loop $-1 $-1 $71 $33 #
plane-surface $-1 0 -17.521690931398872 -4.3278656461735325 0 0 1 1 0 0 forward_v I I I I #
face $-1 $72 $73 $26 $-1 $74 reversed single #
loop $-1 $-1 $75 $34 #
plane-surface $-1 21.916821847765704 3.8229819310318902 121.32492587483648 0 -1 0 -0.57357644374324357 0 -0.81915203911291934 forward_v I I I I #
face $-1 $76 $77 $27 $-1 $78 forward single #
loop $-1 $79 $80 $35 #
cone-surface $-1 38.336998676203415 -0.81364993577181721 3.673029083313474 -0.57357644374324357 0 -0.81915203911291934 0.40957601955645967 0 -0.28678822187162178 1 I I 0 1 0.5 forward I I I I #
face $-1 $81 $82 $28 $-1 $83 forward single #
loop $-1 $84 $85 $36 #
cone-surface $-1 38.336998676203415 1.9683291843104058 3.673029083313474 -0.57357644374324357 0 -0.81915203911291934 0.40957601955645967 0 -0.28678822187162178 1 I I 0 1 0.5 forward I I I I #
face $-1 $86 $87 $29 $-1 $88 reversed single #
loop $-1 $-1 $89 $37 #
plane-surface $-1 -91.24180662149827 -13.273188232303962 72.627026693521586 0 1 0 -0.55919291073839883 0 0.82903756765294845 forward_v I I I I #
face $-1 $90 $91 $30 $-1 $92 forward single #
loop $-1 $93 $94 $38 #
cone-surface $-1 -38.099180392016102 -10.711623971515717 3.6199728997236083 0.55919291073839883 0 -0.82903756765294845 0.41451878382647422 0 0.27959645536919941 1 I I 0 1 0.5 forward I I I I #
face $-1 $95 $96 $31 $-1 $97 forward single #
loop $-1 $98 $99 $39 #
cone-surface $-1 -38.099180392016102 -6.8692775803333497 3.6199728997236083 0.55919291073839883 0 -0.82903756765294845 0.41451878382647422 0 0.27959645536919941 1 I I 0 1 0.5 forward I I I I #
face $-1 $100 $101 $24 $-1 $102 reversed single #
loop $-1 $-1 $103 $40 #
plane-surface $-1 0 0 -7.3278656461735325 0 0 1 1 0 0 forward_v I I I I #
coedge $-1 $104 $105 $106 $107 forward $41 $-1 #
face $-1 $108 $109 $25 $-1 $110 reversed single #
loop $-1 $-1 $111 $43 #
plane-surface $-1 0 -13.273188232303962 -5.8278656461735325 0 -1 0 0 0 -1 forward_v I I I I #
coedge $-1 $112 $113 $114 $115 reversed $44 $-1 #
face $-1 $116 $117 $26 $-1 $118 reversed single #
loop $-1 $-1 $119 $46 #
plane-surface $-1 -27.492639292022162 0.57733962426929608 50.76090378914995 0.57357644374324357 0 0.81915203911291934 0.81915203911291934 0 -0.57357644374324357 forward_v I I I I #
coedge $-1 $120 $121 $122 $123 reversed $47 $-1 #
face $-1 $-1 $124 $27 $-1 $125 forward single #
loop $-1 $126 $127 $49 #
cone-surface $-1 37.726828661011908 -0.81364993577181721 2.801616009080905 -0.57357644374324357 0 -0.81915203911291934 0.20478800977822983 0 -0.14339411093581089 1 I I -0.70710678118654746 0.70710678118654746 0.25 forward I I I I #
loop $-1 $-1 $128 $35 #
coedge $-1 $80 $80 $129 $130 reversed $50 $-1 #
face $-1 $-1 $131 $28 $-1 $132 forward single #
loop $-1 $133 $134 $52 #
cone-surface $-1 37.726828661011908 1.9683291843104058 2.801616009080905 -0.57357644374324357 0 -0.81915203911291934 0.20478800977822983 0 -0.14339411093581089 1 I I -0.70710678118654746 0.70710678118654746 0.25 forward I I I I #
loop $-1 $-1 $135 $36 #
coedge $-1 $85 $85 $136 $137 reversed $53 $-1 #
face $-1 $138 $139 $29 $-1 $140 reversed single #
loop $-1 $-1 $141 $55 #
plane-surface $-1 -43.071382793664355 -8.7904507759245334 1.2114378401044803 -0.55919291073839883 0 0.82903756765294845 0.82903756765294845 0 0.55919291073839883 forward_v I I I I #
coedge $-1 $142 $143 $144 $145 reversed $56 $-1 #
face $-1 $-1 $146 $30 $-1 $147 forward single #
loop $-1 $148 $149 $58 #
cone-surface $-1 -37.521168242948995 -10.711623971515717 2.7630346643949713 0.55919291073839883 0 -0.82903756765294845 0.20725939191323711 0 0.13979822768459971 1 I I -0.70710678118654746 0.70710678118654746 0.25 forward I I I I #
loop $-1 $-1 $150 $38 #
coedge $-1 $94 $94 $151 $152 reversed $59 $-1 #
face $-1 $-1 $153 $31 $-1 $154 forward single #
loop $-1 $155 $156 $61 #
cone-surface $-1 -37.521168242948995 -6.8692775803333497 2.7630346643949713 0.55919291073839883 0 -0.82903756765294845 0.20725939191323711 0 0.13979822768459971 1 I I -0.70710678118654746 0.70710678118654746 0.25 forward I I I I #
loop $-1 $-1 $157 $39 #
coedge $-1 $99 $99 $158 $159 reversed $62 $-1 #
face $-1 $160 $161 $24 $-1 $162 reversed single #
loop $-1 $-1 $163 $64 #
plane-surface $-1 0 -21.770193630493782 0 0 1 0 0 0 1 forward_v I I I I #
coedge $-1 $164 $165 $166 $167 forward $65 $-1 #
coedge $-1 $168 $67 $169 $170 forward $41 $-1 #
coedge $-1 $67 $168 $171 $172 forward $41 $-1 #
coedge $-1 $173 $174 $67 $107 reversed $175 $-1 #
edge $-1 $176 -21.770193630493782 $177 21.770193630493782 $106 $178 forward 7 unknown #
face $-1 $179 $180 $25 $-1 $181 reversed single #
loop $-1 $-1 $182 $68 #
plane-surface $-1 0 0 -7.3278656461735325 0 0 1 1 0 0 forward_v I I I I #
coedge $-1 $183 $184 $185 $186 reversed $69 $-1 #
coedge $-1 $187 $71 $184 $188 forward $44 $-1 #
coedge $-1 $71 $187 $189 $190 reversed $44 $-1 #
coedge $-1 $191 $185 $71 $115 forward $180 $-1 #
edge $-1 $192 4.5123427666045259 $193 13.009348164794346 $114 $194 forward 7 unknown #
face $-1 $195 $196 $26 $-1 $197 reversed single #
loop $-1 $-1 $198 $72 #
plane-surface $-1 21.916821847765704 -2.6683026824932981 121.32492587483648 0 1 0 0.57357644374324357 0 0.81915203911291934 forward_v I I I I #
coedge $-1 $199 $200 $201 $202 reversed $73 $-1 #
coedge $-1 $121 $75 $203 $204 reversed $47 $-1 #
coedge $-1 $75 $120 $199 $205 reversed $47 $-1 #
coedge $-1 $201 $206 $75 $123 forward $207 $-1 #
edge $-1 $208 -32.112971869781504 $209 -23.577755443371032 $122 $210 forward 7 unknown #
loop $-1 $-1 $129 $76 #
plane-surface $-1 -27.492639292022162 0.57733962426929608 50.76090378914995 0.57357644374324357 0 0.81915203911291934 0.81915203911291934 0 -0.57357644374324357 forward_v I I I I #
loop $-1 $-1 $211 $49 #
coedge $-1 $127 $127 $128 $212 reversed $77 $-1 #
coedge $-1 $128 $128 $127 $212 forward $79 $-1 #
coedge $-1 $129 $129 $80 $130 forward $124 $-1 #
edge $-1 $213 0 $213 6.2831853071796004 $129 $214 forward 7 unknown #
loop $-1 $-1 $136 $81 #
plane-surface $-1 -27.492639292022162 0.57733962426929608 50.76090378914995 0.57357644374324357 0 0.81915203911291934 0.81915203911291934 0 -0.57357644374324357 forward_v I I I I #
loop $-1 $-1 $215 $52 #
coedge $-1 $134 $134 $135 $216 reversed $82 $-1 #
coedge $-1 $135 $135 $134 $216 forward $84 $-1 #
coedge $-1 $136 $136 $85 $137 forward $131 $-1 #
edge $-1 $217 0 $217 6.2831853071796004 $136 $218 forward 7 unknown #
face $-1 $219 $220 $29 $-1 $221 forward single #
loop $-1 $-1 $222 $86 #
plane-surface $-1 -91.24180662149827 -4.3077133195451047 72.627026693521586 0 -1 0 0.55919291073839883 0 -0.82903756765294845 forward_v I I I I #
coedge $-1 $223 $224 $225 $226 reversed $87 $-1 #
coedge $-1 $143 $89 $227 $228 reversed $56 $-1 #
coedge $-1 $89 $142 $223 $229 reversed $56 $-1 #
coedge $-1 $225 $230 $89 $145 forward $220 $-1 #
edge $-1 $231 2.5495205170847797 $232 11.617497477616276 $144 $233 forward 7 unknown #
loop $-1 $-1 $151 $90 #
plane-surface $-1 -43.071382793664355 -8.7904507759245334 1.2114378401044803 -0.55919291073839883 0 0.82903756765294845 0.82903756765294845 0 0.55919291073839883 forward_v I I I I #
loop $-1 $-1 $234 $58 #
coedge $-1 $149 $149 $150 $235 reversed $91 $-1 #
coedge $-1 $150 $150 $149 $235 forward $93 $-1 #
coedge $-1 $151 $151 $94 $152 forward $146 $-1 #
edge $-1 $236 0 $236 6.2831853071796004 $151 $237 forward 7 unknown #
loop $-1 $-1 $158 $95 #
plane-surface $-1 -43.071382793664355 -8.7904507759245334 1.2114378401044803 -0.55919291073839883 0 0.82903756765294845 0.82903756765294845 0 0.55919291073839883 forward_v I I I I #
loop $-1 $-1 $238 $61 #
coedge $-1 $156 $156 $157 $239 reversed $96 $-1 #
coedge $-1 $157 $157 $156 $239 forward $98 $-1 #
coedge $-1 $158 $158 $99 $159 forward $153 $-1 #
edge $-1 $240 0 $240 6.2831853071796004 $158 $241 forward 7 unknown #
face $-1 $242 $243 $24 $-1 $244 reversed single #
loop $-1 $-1 $245 $100 #
plane-surface $-1 -43.071382793664355 0 0 1 0 0 0 0 -1 forward_v I I I I #
coedge $-1 $246 $171 $247 $248 forward $101 $-1 #
coedge $-1 $249 $103 $246 $250 forward $65 $-1 #
coedge $-1 $103 $249 $251 $252 forward $65 $-1 #
coedge $-1 $174 $173 $103 $167 reversed $175 $-1 #
edge $-1 $253 -21.770193630493782 $254 21.770193630493782 $166 $255 forward 7 unknown #
coedge $-1 $105 $104 $256 $257 forward $41 $-1 #
coedge $-1 $258 $259 $104 $170 reversed $243 $-1 #
edge $-1 $177 -43.071382793664355 $260 43.071382793664355 $169 $261 forward 7 unknown #
coedge $-1 $163 $262 $105 $172 reversed $101 $-1 #
edge $-1 $263 -43.071382793664355 $176 43.071382793664355 $171 $264 forward 7 unknown #
coedge $-1 $166 $106 $262 $265 forward $175 $-1 #
coedge $-1 $106 $166 $258 $266 reversed $175 $-1 #
loop $-1 $-1 $173 $242 #
vertex $-1 $107 $267 #
vertex $-1 $107 $268 #
straight-curve $-1 43.071382793664355 0 7.3278656461735325 0 1 0 I I #
face $-1 $269 $270 $25 $-1 $271 reversed single #
loop $-1 $-1 $185 $108 #
plane-surface $-1 43.071382793664355 0 0 -1 0 0 0 0 1 forward_v I I I I #
coedge $-1 $272 $273 $183 $274 forward $109 $-1 #
coedge $-1 $275 $111 $182 $274 reversed $69 $-1 #
coedge $-1 $111 $275 $112 $188 reversed $69 $-1 #
coedge $-1 $114 $276 $111 $186 forward $180 $-1 #
edge $-1 $277 -4.4139328230867658 $192 -1.4139328230867663 $185 $278 forward 7 unknown #
coedge $-1 $113 $112 $279 $280 reversed $44 $-1 #
edge $-1 $192 -43.071382793664355 $281 43.071382793664355 $184 $282 forward 7 unknown #
coedge $-1 $283 $284 $113 $190 forward $270 $-1 #
edge $-1 $193 -43.071382793664355 $285 43.071382793664355 $189 $286 forward 7 unknown #
coedge $-1 $276 $114 $284 $287 forward $180 $-1 #
vertex $-1 $115 $288 #
vertex $-1 $287 $289 #
straight-curve $-1 43.071382793664355 -8.7608454656994361 -4.3278656461735325 0 -1 0 I I #
face $-1 $-1 $207 $26 $-1 $290 forward single #
loop $-1 $-1 $291 $116 #
plane-surface $-1 43.071382793664355 0 0 -1 0 0 0 0 1 forward_v I I I I #
coedge $-1 $292 $293 $294 $295 reversed $117 $-1 #
coedge $-1 $296 $119 $121 $205 forward $73 $-1 #
coedge $-1 $119 $296 $292 $297 forward $73 $-1 #
coedge $-1 $294 $122 $119 $202 forward $207 $-1 #
edge $-1 $209 -3.5343121188972422 $298 2.9569724946279461 $201 $299 forward 7 unknown #
coedge $-1 $300 $301 $120 $204 forward $196 $-1 #
edge $-1 $302 -59.311020288056149 $208 -53.334597291244705 $203 $303 forward 7 unknown #
edge $-1 $209 75.723190198548025 $302 86.142765587328697 $121 $304 forward 7 unknown #
coedge $-1 $122 $294 $300 $305 forward $207 $-1 #
loop $-1 $-1 $294 $195 #
vertex $-1 $204 $306 #
vertex $-1 $123 $307 #
straight-curve $-1 10.958410923882852 3.8229819310318902 7.3278656461735352 -1 0 0 I I #
coedge $-1 $211 $211 $-1 $308 reversed $126 $-1 #
edge $-1 $309 0 $309 6.2831853071796004 $127 $310 forward 7 unknown #
vertex $-1 $130 $311 #
ellipse-curve $-1 38.80377458045912 -0.81364993577181721 4.3396541477678232 0.57357644374324357 0 0.81915203911291934 0.40957601955645967 0 -0.28678822187162178 1 I I #
coedge $-1 $215 $215 $-1 $312 reversed $133 $-1 #
edge $-1 $313 0 $313 6.2831853071796004 $134 $314 forward 7 unknown #
vertex $-1 $137 $315 #
ellipse-curve $-1 38.80377458045912 1.9683291843104058 4.3396541477678232 0.57357644374324357 0 0.81915203911291934 0.40957601955645967 0 -0.28678822187162178 1 I I #
face $-1 $-1 $316 $29 $-1 $317 reversed single #
loop $-1 $-1 $144 $138 #
plane-surface $-1 0 0 7.3278656461735325 0 0 1 1 0 0 forward_v I I I I #
coedge $-1 $318 $319 $320 $321 reversed $139 $-1 #
coedge $-1 $322 $141 $143 $229 forward $87 $-1 #
coedge $-1 $141 $322 $318 $323 forward $87 $-1 #
coedge $-1 $320 $144 $141 $226 forward $220 $-1 #
edge $-1 $232 -8.8779628443416954 $324 0.08751206841716197 $225 $325 forward 7 unknown #
coedge $-1 $326 $327 $142 $228 forward $316 $-1 #
edge $-1 $328 -35.102075506656313 $231 -28.985647700587261 $227 $329 forward 7 unknown #
edge $-1 $232 -10.93795663108904 $328 0 $143 $330 forward 7 unknown #
coedge $-1 $144 $320 $326 $331 forward $220 $-1 #
vertex $-1 $228 $332 #
vertex $-1 $145 $333 #
straight-curve $-1 -45.620903310749135 -13.273188232303962 7.3278656461735352 1 0 0 I I #
coedge $-1 $234 $234 $-1 $334 reversed $148 $-1 #
edge $-1 $335 0 $335 6.2831853071796004 $149 $336 forward 7 unknown #
vertex $-1 $152 $337 #
ellipse-curve $-1 -38.537394313398607 -10.711623971515717 4.269651743139006 -0.55919291073839883 0 0.82903756765294845 0.41451878382647422 0 0.27959645536919941 1 I I #
coedge $-1 $238 $238 $-1 $338 reversed $155 $-1 #
edge $-1 $339 0 $339 6.2831853071796004 $156 $340 forward 7 unknown #
vertex $-1 $159 $341 #
ellipse-curve $-1 -38.537394313398607 -6.8692775803333497 4.269651743139006 -0.55919291073839883 0 0.82903756765294845 0.41451878382647422 0 0.27959645536919941 1 I I #
face $-1 $-1 $175 $24 $-1 $342 reversed single #
loop $-1 $-1 $258 $160 #
plane-surface $-1 0 21.770193630493782 0 0 -1 0 0 0 -1 forward_v I I I I #
coedge $-1 $343 $256 $259 $344 forward $161 $-1 #
coedge $-1 $262 $163 $164 $250 reversed $101 $-1 #
coedge $-1 $256 $343 $163 $248 reversed $161 $-1 #
edge $-1 $263 -7.3278656461735325 $345 7.3278656461735325 $247 $346 forward 7 unknown #
coedge $-1 $165 $164 $343 $347 forward $65 $-1 #
edge $-1 $254 -43.071382793664355 $345 43.071382793664355 $246 $348 forward 7 unknown #
coedge $-1 $259 $258 $165 $252 reversed $243 $-1 #
edge $-1 $349 -43.071382793664355 $253 43.071382793664355 $251 $350 forward 7 unknown #
vertex $-1 $167 $351 #
vertex $-1 $265 $352 #
straight-curve $-1 43.071382793664355 0 -7.3278656461735325 0 -1 0 I I #
coedge $-1 $245 $247 $168 $257 reversed $161 $-1 #
edge $-1 $260 -21.770193630493782 $263 21.770193630493782 $256 $353 forward 7 unknown #
coedge $-1 $251 $169 $174 $266 forward $243 $-1 #
coedge $-1 $169 $251 $245 $344 reversed $243 $-1 #
vertex $-1 $170 $354 #
straight-curve $-1 0 21.770193630493782 7.3278656461735325 -1 0 0 I I #
coedge $-1 $171 $246 $173 $265 reversed $101 $-1 #
vertex $-1 $257 $355 #
straight-curve $-1 0 -21.770193630493782 7.3278656461735325 1 0 0 I I #
edge $-1 $176 -7.3278656461735325 $254 7.3278656461735325 $173 $356 forward 7 unknown #
edge $-1 $177 -7.3278656461735325 $253 7.3278656461735325 $174 $357 forward 7 unknown #
point $-1 43.071382793664355 -21.770193630493782 7.3278656461735325 #
point $-1 43.071382793664355 21.770193630493782 7.3278656461735325 #
face $-1 $-1 $358 $25 $-1 $359 reversed single #
loop $-1 $-1 $189 $179 #
plane-surface $-1 0 -21.770193630493782 0 0 1 0 0 0 1 forward_v I I I I #
coedge $-1 $360 $182 $276 $361 forward $109 $-1 #
coedge $-1 $182 $360 $362 $363 forward $109 $-1 #
edge $-1 $364 -43.071382793664355 $277 43.071382793664355 $182 $365 forward 7 unknown #
coedge $-1 $184 $183 $366 $367 reversed $69 $-1 #
coedge $-1 $185 $191 $272 $361 reversed $180 $-1 #
vertex $-1 $361 $368 #
straight-curve $-1 43.071382793664355 -13.273188232303962 -2.9139328230867663 0 0 1 I I #
coedge $-1 $366 $369 $187 $280 forward $358 $-1 #
edge $-1 $285 -13.009348164794346 $281 -4.5123427666045259 $279 $370 forward 7 unknown #
vertex $-1 $280 $371 #
straight-curve $-1 0 -13.273188232303962 -4.3278656461735325 -1 0 0 I I #
coedge $-1 $372 $189 $369 $373 forward $270 $-1 #
coedge $-1 $189 $372 $191 $287 reversed $270 $-1 #
vertex $-1 $373 $374 #
straight-curve $-1 0 -21.770193630493782 -4.3278656461735325 -1 0 0 I I #
edge $-1 $193 4.3278656461735325 $375 7.3278656461735325 $191 $376 forward 7 unknown #
point $-1 43.071382793664355 -13.273188232303962 -4.3278656461735325 #
point $-1 43.071382793664355 -21.770193630493782 -4.3278656461735325 #
plane-surface $-1 0 0 7.3278656461735325 0 0 1 1 0 0 forward_v I I I I #
coedge $-1 $301 $300 $293 $377 forward $196 $-1 #
coedge $-1 $293 $198 $200 $297 reversed $117 $-1 #
coedge $-1 $198 $292 $291 $377 reversed $117 $-1 #
coedge $-1 $206 $201 $198 $295 forward $207 $-1 #
edge $-1 $298 23.577755443371032 $378 32.112971869781504 $294 $379 forward 7 unknown #
coedge $-1 $200 $199 $301 $380 reversed $73 $-1 #
edge $-1 $381 -86.142765587328697 $298 -75.723190198548025 $292 $382 forward 7 unknown #
vertex $-1 $202 $383 #
straight-curve $-1 34.53616636725387 0.28866981213464804 7.3278656461735352 0 -1 0 I I #
coedge $-1 $291 $203 $206 $305 reversed $196 $-1 #
coedge $-1 $203 $291 $296 $380 forward $196 $-1 #
vertex $-1 $204 $384 #
straight-curve $-1 43.071382793664355 3.8229819310318902 60.66246293741824 0 0 1 I I #
straight-curve $-1 -27.492639292022162 3.8229819310318902 50.76090378914995 0.81915203911291934 0 -0.57357644374324357 I I #
edge $-1 $378 -2.6683026824932981 $208 3.8229819310318902 $300 $385 forward 7 unknown #
point $-1 43.071382793664355 3.8229819310318902 7.3278656461735325 #
point $-1 34.536166367253884 3.8229819310318902 7.3278656461735352 #
edge $-1 $386 1 $386 0 $211 $-1 forward 7 unknown #
vertex $-1 $212 $387 #
ellipse-curve $-1 37.870222771947716 -0.81364993577181721 3.006404018859135 0.57357644374324357 0 0.81915203911291934 0.40957601955645967 0 -0.28678822187162178 1 I I #
point $-1 39.213350600015573 -0.81364993577181721 4.0528659258961914 #
edge $-1 $388 1 $388 0 $215 $-1 forward 7 unknown #
vertex $-1 $216 $389 #
ellipse-curve $-1 37.870222771947716 1.9683291843104058 3.006404018859135 0.57357644374324357 0 0.81915203911291934 0.40957601955645967 0 -0.28678822187162178 1 I I #
point $-1 39.213350600015573 1.9683291843104058 4.0528659258961914 #
loop $-1 $-1 $227 $219 #
plane-surface $-1 -43.071382793664355 0 0 1 0 0 0 0 -1 forward_v I I I I #
coedge $-1 $319 $222 $224 $323 reversed $139 $-1 #
coedge $-1 $222 $318 $390 $391 reversed $139 $-1 #
coedge $-1 $230 $225 $222 $321 forward $220 $-1 #
edge $-1 $324 -11.617497477616276 $392 -2.5495205170847797 $320 $393 forward 7 unknown #
coedge $-1 $224 $223 $327 $394 reversed $87 $-1 #
edge $-1 $395 0 $324 10.93795663108904 $318 $396 forward 7 unknown #
vertex $-1 $226 $397 #
straight-curve $-1 -34.003405833132859 -4.3952253879622667 7.3278656461735325 0 1 0 I I #
coedge $-1 $390 $227 $230 $331 reversed $316 $-1 #
coedge $-1 $227 $390 $322 $394 forward $316 $-1 #
vertex $-1 $228 $398 #
straight-curve $-1 -43.071382793664355 -13.273188232303962 36.313513346760793 0 0 1 I I #
straight-curve $-1 -43.071382793664355 -13.273188232303962 1.2114378401044803 -0.82903756765294845 0 -0.55919291073839883 I I #
edge $-1 $392 4.3077133195451047 $231 13.273188232303962 $326 $399 forward 7 unknown #
point $-1 -43.071382793664355 -13.273188232303962 7.3278656461735325 #
point $-1 -34.003405833132859 -13.273188232303962 7.3278656461735325 #
edge $-1 $400 1 $400 0 $234 $-1 forward 7 unknown #
vertex $-1 $235 $401 #
ellipse-curve $-1 -37.660966470633596 -10.711623971515717 2.9702940563082083 -0.55919291073839883 0 0.82903756765294845 0.41451878382647422 0 0.27959645536919941 1 I I #
point $-1 -38.122875529572134 -10.711623971515717 4.5492481985082076 #
edge $-1 $402 1 $402 0 $238 $-1 forward 7 unknown #
vertex $-1 $239 $403 #
ellipse-curve $-1 -37.660966470633596 -6.8692775803333497 2.9702940563082083 -0.55919291073839883 0 0.82903756765294845 0.41451878382647422 0 0.27959645536919941 1 I I #
point $-1 -38.122875529572134 -6.8692775803333497 4.5492481985082076 #
plane-surface $-1 43.071382793664355 0 0 -1 0 0 0 0 1 forward_v I I I I #
coedge $-1 $247 $245 $249 $347 reversed $161 $-1 #
edge $-1 $260 -7.3278656461735325 $349 7.3278656461735325 $259 $404 forward 7 unknown #
vertex $-1 $347 $405 #
straight-curve $-1 -43.071382793664355 -21.770193630493782 0 0 0 -1 I I #
edge $-1 $345 -21.770193630493782 $349 21.770193630493782 $343 $406 forward 7 unknown #
straight-curve $-1 0 -21.770193630493782 -7.3278656461735325 -1 0 0 I I #
vertex $-1 $252 $407 #
straight-curve $-1 0 21.770193630493782 -7.3278656461735325 1 0 0 I I #
point $-1 43.071382793664355 21.770193630493782 -7.3278656461735325 #
point $-1 43.071382793664355 -21.770193630493782 -7.3278656461735325 #
straight-curve $-1 -43.071382793664355 0 7.3278656461735325 0 -1 0 I I #
point $-1 -43.071382793664355 21.770193630493782 7.3278656461735325 #
point $-1 -43.071382793664355 -21.770193630493782 7.3278656461735325 #
straight-curve $-1 43.071382793664355 -21.770193630493782 0 0 0 -1 I I #
straight-curve $-1 43.071382793664355 21.770193630493782 0 0 0 -1 I I #
loop $-1 $-1 $366 $269 #
plane-surface $-1 -43.071382793664355 0 0 1 0 0 0 0 -1 forward_v I I I I #
coedge $-1 $273 $272 $372 $408 forward $109 $-1 #
edge $-1 $277 13.273188232303962 $375 21.770193630493782 $276 $409 forward 7 unknown #
coedge $-1 $369 $366 $273 $363 reversed $358 $-1 #
edge $-1 $410 -21.770193630493782 $364 -13.273188232303962 $362 $411 forward 7 unknown #
vertex $-1 $367 $412 #
straight-curve $-1 0 -13.273188232303962 -7.3278656461735325 1 0 0 I I #
coedge $-1 $362 $279 $275 $367 forward $358 $-1 #
edge $-1 $281 1.4139328230867663 $364 4.4139328230867658 $366 $413 forward 7 unknown #
point $-1 43.071382793664355 -13.273188232303962 -7.3278656461735325 #
coedge $-1 $279 $362 $283 $373 reversed $358 $-1 #
straight-curve $-1 -43.071382793664355 -8.7608454656994361 -4.3278656461735325 0 1 0 I I #
point $-1 -43.071382793664355 -13.273188232303962 -4.3278656461735325 #
coedge $-1 $284 $283 $360 $408 reversed $270 $-1 #
edge $-1 $285 4.3278656461735325 $410 7.3278656461735325 $369 $414 forward 7 unknown #
point $-1 -43.071382793664355 -21.770193630493782 -4.3278656461735325 #
vertex $-1 $287 $415 #
straight-curve $-1 43.071382793664355 -21.770193630493782 0 0 0 -1 I I #
edge $-1 $378 53.334597291244705 $381 59.311020288056149 $291 $416 forward 7 unknown #
vertex $-1 $305 $417 #
straight-curve $-1 10.958410923882852 -2.6683026824932981 7.3278656461735352 1 0 0 I I #
edge $-1 $381 -2.9569724946279461 $302 3.5343121188972422 $301 $418 forward 7 unknown #
vertex $-1 $380 $419 #
straight-curve $-1 -27.492639292022162 -2.6683026824932981 50.76090378914995 -0.81915203911291934 0 0.57357644374324357 I I #
point $-1 34.536166367253884 -2.6683026824932981 7.3278656461735352 #
point $-1 43.071382793664355 3.8229819310318902 1.3514426493620917 #
straight-curve $-1 43.071382793664355 0 7.3278656461735325 0 1 0 I I #
vertex $-1 $308 $420 #
point $-1 38.279798791504177 -0.81364993577181721 2.719615796987513 #
vertex $-1 $312 $421 #
point $-1 38.279798791504177 1.9683291843104058 2.719615796987513 #
coedge $-1 $327 $326 $319 $391 forward $316 $-1 #
edge $-1 $392 28.985647700587261 $395 35.102075506656313 $390 $422 forward 7 unknown #
vertex $-1 $331 $423 #
straight-curve $-1 -45.620903310749135 -4.3077133195451047 7.3278656461735352 -1 0 0 I I #
edge $-1 $395 -0.08751206841716197 $328 8.8779628443416954 $327 $424 forward 7 unknown #
vertex $-1 $394 $425 #
straight-curve $-1 -43.071382793664355 -4.3077133195451047 1.2114378401044803 0.82903756765294845 0 0.55919291073839883 I I #
point $-1 -34.003405833132859 -4.3077133195451047 7.3278656461735325 #
point $-1 -43.071382793664355 -13.273188232303962 1.2114378401044803 #
straight-curve $-1 -43.071382793664355 0 7.3278656461735325 0 -1 0 I I #
vertex $-1 $334 $426 #
point $-1 -37.246447686807123 -10.711623971515717 3.2498905116774077 #
vertex $-1 $338 $427 #
point $-1 -37.246447686807123 -6.8692775803333497 3.2498905116774077 #
straight-curve $-1 -43.071382793664355 21.770193630493782 0 0 0 -1 I I #
point $-1 -43.071382793664355 -21.770193630493782 -7.3278656461735325 #
straight-curve $-1 -43.071382793664355 0 -7.3278656461735325 0 1 0 I I #
point $-1 -43.071382793664355 21.770193630493782 -7.3278656461735325 #
edge $-1 $375 -43.071382793664355 $410 43.071382793664355 $372 $428 forward 7 unknown #
straight-curve $-1 43.071382793664355 0 -7.3278656461735325 0 -1 0 I I #
vertex $-1 $363 $429 #
straight-curve $-1 -43.071382793664355 0 -7.3278656461735325 0 1 0 I I #
point $-1 -43.071382793664355 -13.273188232303962 -7.3278656461735325 #
straight-curve $-1 -43.071382793664355 -13.273188232303962 -2.9139328230867663 0 0 -1 I I #
straight-curve $-1 -43.071382793664355 -21.770193630493782 0 0 0 -1 I I #
point $-1 43.071382793664355 -21.770193630493782 -7.3278656461735325 #
straight-curve $-1 43.071382793664355 -2.6683026824932981 60.66246293741824 0 0 -1 I I #
point $-1 43.071382793664355 -2.6683026824932981 7.3278656461735325 #
straight-curve $-1 43.071382793664355 0.28866981213464804 1.3514426493620952 0 1 0 I I #
point $-1 43.071382793664355 -2.6683026824932981 1.3514426493620917 #
point $-1 37.583434550076099 -0.81364993577181721 2.596827999302675 #
point $-1 37.583434550076099 1.9683291843104058 2.596827999302675 #
straight-curve $-1 -43.071382793664355 -4.3077133195451047 36.313513346760793 0 0 -1 I I #
point $-1 -43.071382793664355 -4.3077133195451047 7.3278656461735325 #
straight-curve $-1 -43.071382793664355 -4.3952253879622667 1.2114378401044821 0 -1 0 I I #
point $-1 -43.071382793664355 -4.3077133195451047 1.2114378401044803 #
point $-1 -37.381370015264395 -10.711623971515717 2.5557752724817342 #
point $-1 -37.381370015264395 -6.8692775803333497 2.5557752724817342 #
straight-curve $-1 0 -21.770193630493782 -7.3278656461735325 -1 0 0 I I #
point $-1 -43.071382793664355 -21.770193630493782 -7.3278656461735325 #
End-of-ACIS-data 