500 0 7 0           
7 Unknown 11 ACIS 5.0 NT 24 Fri Mar 26 01:48:02 1999 
-1 9.9999999999999995e-007 1e-010 
body $-1 $7 $-1 $8 #
body $-1 $9 $-1 $10 #
body $-1 $11 $-1 $12 #
body $-1 $13 $-1 $14 #
body $-1 $15 $-1 $16 #
body $-1 $17 $-1 $18 #
body $-1 $19 $-1 $20 #
lump $-1 $-1 $21 $0 #
transform $-1 1 0 0 0 1 0 0 0 1 65.4536576433607 41.979870996294302 12.562316570545493 1 rotate no_reflect no_shear #
lump $-1 $-1 $22 $1 #
transform $-1 1 0 0 0 1 0 0 0 1 65.4536576433607 41.979870996294302 12.562316570545493 1 rotate no_reflect no_shear #
lump $-1 $-1 $23 $2 #
transform $-1 1 0 0 0 1 0 0 0 1 65.4536576433607 41.979870996294302 12.562316570545493 1 rotate no_reflect no_shear #
lump $-1 $-1 $24 $3 #
transform $-1 1 0 0 0 1 0 0 0 1 65.4536576433607 41.979870996294302 12.562316570545493 1 rotate no_reflect no_shear #
lump $-1 $-1 $25 $4 #
transform $-1 1 0 0 0 1 0 0 0 1 65.4536576433607 41.979870996294302 12.562316570545493 1 rotate no_reflect no_shear #
lump $-1 $-1 $26 $5 #
transform $-1 1 0 0 0 1 0 0 0 1 65.4536576433607 41.979870996294302 12.562316570545493 1 rotate no_reflect no_shear #
lump $-1 $-1 $27 $6 #
transform $-1 1 0 0 0 1 0 0 0 1 65.4536576433607 41.979870996294302 12.562316570545493 1 rotate no_reflect no_shear #
shell $-1 $-1 $-1 $28 $-1 $7 #
shell $-1 $-1 $-1 $29 $-1 $9 #
shell $-1 $-1 $-1 $30 $-1 $11 #
shell $-1 $-1 $-1 $31 $-1 $13 #
shell $-1 $-1 $-1 $32 $-1 $15 #
shell $-1 $-1 $-1 $33 $-1 $17 #
shell $-1 $-1 $-1 $34 $-1 $19 #
face $-1 $35 $36 $21 $-1 $37 forward single #
face $-1 $38 $39 $22 $-1 $40 reversed single #
face $-1 $41 $42 $23 $-1 $43 forward single #
face $-1 $44 $45 $24 $-1 $46 forward single #
face $-1 $47 $48 $25 $-1 $49 reversed single #
face $-1 $50 $51 $26 $-1 $52 forward single #
face $-1 $53 $54 $27 $-1 $55 forward single #
face $-1 $56 $57 $21 $-1 $58 reversed single #
loop $-1 $-1 $59 $28 #
plane-surface $-1 0 0 12.562316570545493 0 0 1 1 0 0 forward_v I I I I #
face $-1 $60 $61 $22 $-1 $62 reversed single #
loop $-1 $-1 $63 $29 #
plane-surface $-1 -173.98074159531205 -18.649131479550597 79.693270719930467 0 1 0 -0.82903758062907751 0 0.55919289150049634 forward_v I I I I #
face $-1 $64 $65 $23 $-1 $66 forward single #
loop $-1 $67 $68 $30 #
cone-surface $-1 -61.40410123948385 -14.864136453405983 8.1762601998736635 0.82903758062907751 0 -0.55919289150049634 0.83878933725074445 0 1.2435563709436162 1 I I 0 1 1.5 forward I I I I #
face $-1 $69 $70 $24 $-1 $71 forward single #
loop $-1 $72 $73 $31 #
cone-surface $-1 -61.40410123948385 -9.1866439141890552 8.1762601998736635 0.82903758062907751 0 -0.55919289150049634 0.83878933725074445 0 1.2435563709436162 1 I I 0 1 1.5 forward I I I I #
face $-1 $74 $75 $25 $-1 $76 reversed single #
loop $-1 $-1 $77 $32 #
plane-surface $-1 100.77830144156319 -5.4016488880444395 188.22035467188184 0 -1 0 -0.82903758062907751 0 -0.55919289150049634 forward_v I I I I #
face $-1 $78 $79 $26 $-1 $80 forward single #
loop $-1 $81 $82 $33 #
cone-surface $-1 61.404101239483857 -14.864136453405983 8.1762601998736741 -0.82903758062907751 0 -0.55919289150049634 0.83878933725074445 0 -1.2435563709436162 1 I I 0 1 1.5 forward I I I I #
face $-1 $83 $84 $27 $-1 $85 forward single #
loop $-1 $86 $87 $34 #
cone-surface $-1 61.404101239483857 -9.1866439141890552 8.1762601998736741 -0.82903758062907751 0 -0.55919289150049634 0.83878933725074445 0 -1.2435563709436162 1 I I 0 1 1.5 forward I I I I #
face $-1 $88 $89 $21 $-1 $90 reversed single #
loop $-1 $-1 $91 $35 #
plane-surface $-1 0 0 -12.562316570545493 0 0 1 1 0 0 forward_v I I I I #
coedge $-1 $92 $93 $94 $95 forward $36 $-1 #
face $-1 $96 $97 $22 $-1 $98 reversed single #
loop $-1 $-1 $99 $38 #
plane-surface $-1 -65.453657643360685 -12.025390183797519 6.4908305661816001 -0.82903758062907751 0 0.55919289150049634 0.55919289150049634 0 0.82903758062907751 forward_v I I I I #
coedge $-1 $100 $101 $102 $103 reversed $39 $-1 #
face $-1 $-1 $104 $23 $-1 $105 forward single #
loop $-1 $106 $107 $41 #
cone-surface $-1 -58.780401096277423 -14.864136453405983 6.4065521627584037 0.82903758062907751 0 -0.55919289150049634 0.41939466862537222 0 0.62177818547180808 1 I I -0.70710678118654757 0.70710678118654757 0.75 forward I I I I #
loop $-1 $-1 $108 $30 #
coedge $-1 $68 $68 $109 $110 reversed $42 $-1 #
face $-1 $-1 $111 $24 $-1 $112 forward single #
loop $-1 $113 $114 $44 #
cone-surface $-1 -58.780401096277423 -9.1866439141890552 6.4065521627584037 0.82903758062907751 0 -0.55919289150049634 0.41939466862537222 0 0.62177818547180808 1 I I -0.70710678118654757 0.70710678118654757 0.75 forward I I I I #
loop $-1 $-1 $115 $31 #
coedge $-1 $73 $73 $116 $117 reversed $45 $-1 #
face $-1 $118 $119 $25 $-1 $120 reversed single #
loop $-1 $-1 $121 $47 #
plane-surface $-1 -7.7487825103881818 -12.025390183797519 115.01791451813297 0.82903758062907751 0 0.55919289150049634 0.55919289150049634 0 -0.82903758062907751 forward_v I I I I #
coedge $-1 $122 $123 $124 $125 reversed $48 $-1 #
face $-1 $-1 $126 $26 $-1 $127 forward single #
loop $-1 $128 $129 $50 #
cone-surface $-1 58.78040109627743 -14.864136453405983 6.4065521627584143 -0.82903758062907751 0 -0.55919289150049634 0.41939466862537222 0 -0.62177818547180808 1 I I -0.70710678118654757 0.70710678118654757 0.75 forward I I I I #
loop $-1 $-1 $130 $33 #
coedge $-1 $82 $82 $131 $132 reversed $51 $-1 #
face $-1 $-1 $133 $27 $-1 $134 forward single #
loop $-1 $135 $136 $53 #
cone-surface $-1 58.78040109627743 -9.1866439141890552 6.4065521627584143 -0.82903758062907751 0 -0.55919289150049634 0.41939466862537222 0 -0.62177818547180808 1 I I -0.70710678118654757 0.70710678118654757 0.75 forward I I I I #
loop $-1 $-1 $137 $34 #
coedge $-1 $87 $87 $138 $139 reversed $54 $-1 #
face $-1 $140 $141 $21 $-1 $142 reversed single #
loop $-1 $-1 $143 $56 #
plane-surface $-1 0 -41.979870996294302 0 0 1 0 0 0 1 forward_v I I I I #
coedge $-1 $144 $145 $146 $147 forward $57 $-1 #
coedge $-1 $148 $59 $149 $150 forward $36 $-1 #
coedge $-1 $59 $148 $151 $152 forward $36 $-1 #
coedge $-1 $153 $154 $59 $95 reversed $155 $-1 #
edge $-1 $156 -41.979870996294302 $157 41.979870996294302 $94 $158 forward 7 unknown #
face $-1 $159 $160 $22 $-1 $161 reversed single #
loop $-1 $-1 $162 $60 #
plane-surface $-1 -173.98074159531205 -5.4016488880444395 79.693270719930467 0 -1 0 0.82903758062907751 0 -0.55919289150049634 forward_v I I I I #
coedge $-1 $163 $164 $165 $166 reversed $61 $-1 #
coedge $-1 $101 $63 $167 $168 reversed $39 $-1 #
coedge $-1 $63 $100 $163 $169 reversed $39 $-1 #
coedge $-1 $165 $170 $63 $103 forward $171 $-1 #
edge $-1 $172 21.536713154295327 $173 25.631982046579814 $102 $174 forward 7 unknown #
loop $-1 $-1 $109 $64 #
plane-surface $-1 -65.453657643360685 -12.025390183797519 6.4908305661816001 -0.82903758062907751 0 0.55919289150049634 0.55919289150049634 0 0.82903758062907751 forward_v I I I I #
loop $-1 $-1 $175 $41 #
coedge $-1 $107 $107 $108 $176 reversed $65 $-1 #
coedge $-1 $108 $108 $107 $176 forward $67 $-1 #
coedge $-1 $109 $109 $68 $110 forward $104 $-1 #
edge $-1 $177 0 $177 6.2831853071796004 $109 $178 forward 7 unknown #
loop $-1 $-1 $116 $69 #
plane-surface $-1 -65.453657643360685 -12.025390183797519 6.4908305661816001 -0.82903758062907751 0 0.55919289150049634 0.55919289150049634 0 0.82903758062907751 forward_v I I I I #
loop $-1 $-1 $179 $44 #
coedge $-1 $114 $114 $115 $180 reversed $70 $-1 #
coedge $-1 $115 $115 $114 $180 forward $72 $-1 #
coedge $-1 $116 $116 $73 $117 forward $111 $-1 #
edge $-1 $181 0 $181 6.2831853071796004 $116 $182 forward 7 unknown #
face $-1 $183 $184 $25 $-1 $185 forward single #
loop $-1 $-1 $186 $74 #
plane-surface $-1 100.77830144156319 -18.649131479550597 188.22035467188184 0 1 0 0.82903758062907751 0 0.55919289150049634 forward_v I I I I #
coedge $-1 $187 $188 $189 $190 reversed $75 $-1 #
coedge $-1 $123 $77 $191 $192 reversed $48 $-1 #
coedge $-1 $77 $122 $187 $193 reversed $48 $-1 #
coedge $-1 $189 $194 $77 $125 forward $184 $-1 #
edge $-1 $195 -15.064506922579106 $196 -10.969238030294626 $124 $197 forward 7 unknown #
loop $-1 $-1 $131 $78 #
plane-surface $-1 -7.7487825103881818 -12.025390183797519 115.01791451813297 0.82903758062907751 0 0.55919289150049634 0.55919289150049634 0 -0.82903758062907751 forward_v I I I I #
loop $-1 $-1 $198 $50 #
coedge $-1 $129 $129 $130 $199 reversed $79 $-1 #
coedge $-1 $130 $130 $129 $199 forward $81 $-1 #
coedge $-1 $131 $131 $82 $132 forward $126 $-1 #
edge $-1 $200 0 $200 6.2831853071796004 $131 $201 forward 7 unknown #
loop $-1 $-1 $138 $83 #
plane-surface $-1 -7.7487825103881818 -12.025390183797519 115.01791451813297 0.82903758062907751 0 0.55919289150049634 0.55919289150049634 0 -0.82903758062907751 forward_v I I I I #
loop $-1 $-1 $202 $53 #
coedge $-1 $136 $136 $137 $203 reversed $84 $-1 #
coedge $-1 $137 $137 $136 $203 forward $86 $-1 #
coedge $-1 $138 $138 $87 $139 forward $133 $-1 #
edge $-1 $204 0 $204 6.2831853071796004 $138 $205 forward 7 unknown #
face $-1 $206 $207 $21 $-1 $208 reversed single #
loop $-1 $-1 $209 $88 #
plane-surface $-1 -65.4536576433607 0 0 1 0 0 0 0 -1 forward_v I I I I #
coedge $-1 $210 $151 $211 $212 forward $89 $-1 #
coedge $-1 $213 $91 $210 $214 forward $57 $-1 #
coedge $-1 $91 $213 $215 $216 forward $57 $-1 #
coedge $-1 $154 $153 $91 $147 reversed $155 $-1 #
edge $-1 $217 -41.979870996294302 $218 41.979870996294302 $146 $219 forward 7 unknown #
coedge $-1 $93 $92 $220 $221 forward $36 $-1 #
coedge $-1 $222 $223 $92 $150 reversed $207 $-1 #
edge $-1 $157 -65.4536576433607 $224 65.4536576433607 $149 $225 forward 7 unknown #
coedge $-1 $143 $226 $93 $152 reversed $89 $-1 #
edge $-1 $227 -65.4536576433607 $156 65.4536576433607 $151 $228 forward 7 unknown #
coedge $-1 $146 $94 $226 $229 forward $155 $-1 #
coedge $-1 $94 $146 $222 $230 reversed $155 $-1 #
loop $-1 $-1 $153 $206 #
vertex $-1 $95 $231 #
vertex $-1 $95 $232 #
straight-curve $-1 65.4536576433607 0 12.562316570545493 0 1 0 I I #
face $-1 $-1 $171 $22 $-1 $233 forward single #
loop $-1 $-1 $234 $96 #
plane-surface $-1 -65.4536576433607 0 0 1 0 0 0 0 -1 forward_v I I I I #
coedge $-1 $235 $236 $237 $238 reversed $97 $-1 #
coedge $-1 $239 $99 $101 $169 forward $61 $-1 #
coedge $-1 $99 $239 $235 $240 forward $61 $-1 #
coedge $-1 $237 $102 $99 $166 forward $171 $-1 #
edge $-1 $173 -12.636436387651838 $241 0.61104620385432007 $165 $242 forward 7 unknown #
coedge $-1 $243 $244 $100 $168 forward $160 $-1 #
edge $-1 $245 -33.355804793783655 $172 -27.284318789419743 $167 $246 forward 7 unknown #
edge $-1 $173 -7.3235353212297358 $245 2.5618607856530852e-014 $101 $247 forward 7 unknown #
coedge $-1 $102 $237 $243 $248 forward $171 $-1 #
loop $-1 $-1 $237 $159 #
vertex $-1 $168 $249 #
vertex $-1 $103 $250 #
straight-curve $-1 -86.990370797656027 -18.649131479550597 12.562316570545491 1 0 0 I I #
coedge $-1 $175 $175 $-1 $251 reversed $106 $-1 #
edge $-1 $252 0 $252 6.2831853071796004 $107 $253 forward 7 unknown #
vertex $-1 $110 $254 #
ellipse-curve $-1 -63.406023197218452 -14.864136453405983 9.5265735683635402 -0.82903758062907751 0 0.55919289150049634 0.83878933725074445 0 1.2435563709436162 1 I I #
coedge $-1 $179 $179 $-1 $255 reversed $113 $-1 #
edge $-1 $256 0 $256 6.2831853071796004 $114 $257 forward 7 unknown #
vertex $-1 $117 $258 #
ellipse-curve $-1 -63.406023197218452 -9.1866439141890552 9.5265735683635402 -0.82903758062907751 0 0.55919289150049634 0.83878933725074445 0 1.2435563709436162 1 I I #
face $-1 $-1 $259 $25 $-1 $260 reversed single #
loop $-1 $-1 $124 $118 #
plane-surface $-1 0 0 12.562316570545493 0 0 1 1 0 0 forward_v I I I I #
coedge $-1 $261 $262 $263 $264 reversed $119 $-1 #
coedge $-1 $265 $121 $123 $193 forward $75 $-1 #
coedge $-1 $121 $265 $261 $266 forward $75 $-1 #
coedge $-1 $263 $124 $121 $190 forward $184 $-1 #
edge $-1 $196 -0.61104620385432007 $267 12.636436387651838 $189 $268 forward 7 unknown #
coedge $-1 $269 $270 $122 $192 forward $259 $-1 #
edge $-1 $271 -87.619346769759332 $195 -81.547860765395427 $191 $272 forward 7 unknown #
edge $-1 $196 123.58377996549169 $271 130.90731528672143 $123 $273 forward 7 unknown #
coedge $-1 $124 $263 $269 $274 forward $184 $-1 #
vertex $-1 $192 $275 #
vertex $-1 $125 $276 #
straight-curve $-1 50.389150720781593 -5.4016488880444395 12.562316570545491 -1 0 0 I I #
coedge $-1 $198 $198 $-1 $277 reversed $128 $-1 #
edge $-1 $278 0 $278 6.2831853071796004 $129 $279 forward 7 unknown #
vertex $-1 $132 $280 #
ellipse-curve $-1 63.406023197218445 -14.864136453405983 9.5265735683635384 0.82903758062907751 0 0.55919289150049634 0.83878933725074445 0 -1.2435563709436162 1 I I #
coedge $-1 $202 $202 $-1 $281 reversed $135 $-1 #
edge $-1 $282 0 $282 6.2831853071796004 $136 $283 forward 7 unknown #
vertex $-1 $139 $284 #
ellipse-curve $-1 63.406023197218445 -9.1866439141890552 9.5265735683635384 0.82903758062907751 0 0.55919289150049634 0.83878933725074445 0 -1.2435563709436162 1 I I #
face $-1 $-1 $155 $21 $-1 $285 reversed single #
loop $-1 $-1 $222 $140 #
plane-surface $-1 0 41.979870996294302 0 0 -1 0 0 0 -1 forward_v I I I I #
coedge $-1 $286 $220 $223 $287 forward $141 $-1 #
coedge $-1 $226 $143 $144 $214 reversed $89 $-1 #
coedge $-1 $220 $286 $143 $212 reversed $141 $-1 #
edge $-1 $227 -12.562316570545493 $288 12.562316570545493 $211 $289 forward 7 unknown #
coedge $-1 $145 $144 $286 $290 forward $57 $-1 #
edge $-1 $218 -65.4536576433607 $288 65.4536576433607 $210 $291 forward 7 unknown #
coedge $-1 $223 $222 $145 $216 reversed $207 $-1 #
edge $-1 $292 -65.4536576433607 $217 65.4536576433607 $215 $293 forward 7 unknown #
vertex $-1 $147 $294 #
vertex $-1 $229 $295 #
straight-curve $-1 65.4536576433607 0 -12.562316570545493 0 -1 0 I I #
coedge $-1 $209 $211 $148 $221 reversed $141 $-1 #
edge $-1 $224 -41.979870996294302 $227 41.979870996294302 $220 $296 forward 7 unknown #
coedge $-1 $215 $149 $154 $230 forward $207 $-1 #
coedge $-1 $149 $215 $209 $287 reversed $207 $-1 #
vertex $-1 $150 $297 #
straight-curve $-1 0 41.979870996294302 12.562316570545493 -1 0 0 I I #
coedge $-1 $151 $210 $153 $229 reversed $89 $-1 #
vertex $-1 $221 $298 #
straight-curve $-1 0 -41.979870996294302 12.562316570545493 1 0 0 I I #
edge $-1 $156 -12.562316570545493 $218 12.562316570545493 $153 $299 forward 7 unknown #
edge $-1 $157 -12.562316570545493 $217 12.562316570545493 $154 $300 forward 7 unknown #
point $-1 65.4536576433607 -41.979870996294302 12.562316570545493 #
point $-1 65.4536576433607 41.979870996294302 12.562316570545493 #
plane-surface $-1 0 0 12.562316570545493 0 0 1 1 0 0 forward_v I I I I #
coedge $-1 $244 $243 $236 $301 forward $160 $-1 #
coedge $-1 $236 $162 $164 $240 reversed $97 $-1 #
coedge $-1 $162 $235 $234 $301 reversed $97 $-1 #
coedge $-1 $170 $165 $162 $238 forward $171 $-1 #
edge $-1 $241 -25.631982046579814 $302 -21.536713154295327 $237 $303 forward 7 unknown #
coedge $-1 $164 $163 $244 $304 reversed $61 $-1 #
edge $-1 $305 -2.5618607856530852e-014 $241 7.3235353212297358 $235 $306 forward 7 unknown #
vertex $-1 $166 $307 #
straight-curve $-1 -61.35838875107622 -6.0126950918987596 12.562316570545491 0 1 0 I I #
coedge $-1 $234 $167 $170 $248 reversed $160 $-1 #
coedge $-1 $167 $234 $239 $304 forward $160 $-1 #
vertex $-1 $168 $308 #
straight-curve $-1 -65.4536576433607 -18.649131479550597 39.846635359965234 0 0 1 I I #
straight-curve $-1 -65.453657643360685 -18.649131479550597 6.4908305661816001 -0.55919289150049634 0 -0.82903758062907751 I I #
edge $-1 $302 5.4016488880444395 $172 18.649131479550597 $243 $309 forward 7 unknown #
point $-1 -65.4536576433607 -18.649131479550597 12.562316570545493 #
point $-1 -61.358388751076212 -18.649131479550597 12.562316570545493 #
edge $-1 $310 1 $310 0 $175 $-1 forward 7 unknown #
vertex $-1 $176 $311 #
ellipse-curve $-1 -59.402179281749234 -14.864136453405983 6.8259468313837761 -0.82903758062907751 0 0.55919289150049634 0.83878933725074445 0 1.2435563709436162 1 I I #
point $-1 -62.567233859967729 -14.864136453405983 10.770129939307168 #
edge $-1 $312 1 $312 0 $179 $-1 forward 7 unknown #
vertex $-1 $180 $313 #
ellipse-curve $-1 -59.402179281749234 -9.1866439141890552 6.8259468313837761 -0.82903758062907751 0 0.55919289150049634 0.83878933725074445 0 1.2435563709436162 1 I I #
point $-1 -62.567233859967729 -9.1866439141890552 10.770129939307168 #
loop $-1 $-1 $191 $183 #
plane-surface $-1 65.4536576433607 0 0 -1 0 0 0 0 1 forward_v I I I I #
coedge $-1 $262 $186 $188 $266 reversed $119 $-1 #
coedge $-1 $186 $261 $314 $315 reversed $119 $-1 #
coedge $-1 $194 $189 $186 $264 forward $184 $-1 #
edge $-1 $267 10.969238030294626 $316 15.064506922579106 $263 $317 forward 7 unknown #
coedge $-1 $188 $187 $270 $318 reversed $75 $-1 #
edge $-1 $319 -130.90731528672143 $267 -123.58377996549169 $261 $320 forward 7 unknown #
vertex $-1 $190 $321 #
straight-curve $-1 61.35838875107622 -6.0126950918987596 12.562316570545491 0 -1 0 I I #
coedge $-1 $314 $191 $194 $274 reversed $259 $-1 #
coedge $-1 $191 $314 $265 $318 forward $259 $-1 #
vertex $-1 $192 $322 #
straight-curve $-1 65.4536576433607 -5.4016488880444395 94.110177335940918 0 0 1 I I #
straight-curve $-1 -7.7487825103881818 -5.4016488880444395 115.01791451813297 0.55919289150049634 0 -0.82903758062907751 I I #
edge $-1 $316 -18.649131479550597 $195 -5.4016488880444395 $269 $323 forward 7 unknown #
point $-1 65.4536576433607 -5.4016488880444395 12.562316570545493 #
point $-1 61.35838875107622 -5.4016488880444395 12.562316570545491 #
edge $-1 $324 1 $324 0 $198 $-1 forward 7 unknown #
vertex $-1 $199 $325 #
ellipse-curve $-1 59.402179281749241 -14.864136453405983 6.8259468313837868 0.82903758062907751 0 0.55919289150049634 0.83878933725074445 0 -1.2435563709436162 1 I I #
point $-1 64.244812534469219 -14.864136453405983 8.2830171974199462 #
edge $-1 $326 1 $326 0 $202 $-1 forward 7 unknown #
vertex $-1 $203 $327 #
ellipse-curve $-1 59.402179281749241 -9.1866439141890552 6.8259468313837868 0.82903758062907751 0 0.55919289150049634 0.83878933725074445 0 -1.2435563709436162 1 I I #
point $-1 64.244812534469219 -9.1866439141890552 8.2830171974199462 #
plane-surface $-1 65.4536576433607 0 0 -1 0 0 0 0 1 forward_v I I I I #
coedge $-1 $211 $209 $213 $290 reversed $141 $-1 #
edge $-1 $224 -12.562316570545493 $292 12.562316570545493 $223 $328 forward 7 unknown #
vertex $-1 $290 $329 #
straight-curve $-1 -65.4536576433607 -41.979870996294302 0 0 0 -1 I I #
edge $-1 $288 -41.979870996294302 $292 41.979870996294302 $286 $330 forward 7 unknown #
straight-curve $-1 0 -41.979870996294302 -12.562316570545493 -1 0 0 I I #
vertex $-1 $216 $331 #
straight-curve $-1 0 41.979870996294302 -12.562316570545493 1 0 0 I I #
point $-1 65.4536576433607 41.979870996294302 -12.562316570545493 #
point $-1 65.4536576433607 -41.979870996294302 -12.562316570545493 #
straight-curve $-1 -65.4536576433607 0 12.562316570545493 0 -1 0 I I #
point $-1 -65.4536576433607 41.979870996294302 12.562316570545493 #
point $-1 -65.4536576433607 -41.979870996294302 12.562316570545493 #
straight-curve $-1 65.4536576433607 -41.979870996294302 0 0 0 -1 I I #
straight-curve $-1 65.4536576433607 41.979870996294302 0 0 0 -1 I I #
edge $-1 $302 27.284318789419743 $305 33.355804793783655 $234 $332 forward 7 unknown #
vertex $-1 $248 $333 #
straight-curve $-1 -86.990370797656027 -5.4016488880444395 12.562316570545491 -1 0 0 I I #
edge $-1 $305 -0.61104620385432007 $245 12.636436387651838 $244 $334 forward 7 unknown #
vertex $-1 $304 $335 #
straight-curve $-1 -65.453657643360685 -5.4016488880444395 6.4908305661816001 0.55919289150049634 0 0.82903758062907751 I I #
point $-1 -61.358388751076212 -5.4016488880444395 12.562316570545493 #
point $-1 -65.4536576433607 -18.649131479550597 6.4908305661815788 #
straight-curve $-1 -65.4536576433607 0 12.562316570545493 0 -1 0 I I #
vertex $-1 $251 $336 #
point $-1 -58.563389944498489 -14.864136453405983 8.0695032023273914 #
vertex $-1 $255 $337 #
point $-1 -58.563389944498489 -9.1866439141890552 8.0695032023273914 #
coedge $-1 $270 $269 $262 $315 forward $259 $-1 #
edge $-1 $316 81.547860765395427 $319 87.619346769759332 $314 $338 forward 7 unknown #
vertex $-1 $274 $339 #
straight-curve $-1 50.389150720781593 -18.649131479550597 12.562316570545491 1 0 0 I I #
edge $-1 $319 -12.636436387651838 $271 0.61104620385432007 $270 $340 forward 7 unknown #
vertex $-1 $318 $341 #
straight-curve $-1 -7.7487825103881818 -18.649131479550597 115.01791451813297 -0.55919289150049634 0 0.82903758062907751 I I #
point $-1 61.35838875107622 -18.649131479550597 12.562316570545491 #
point $-1 65.4536576433607 -5.4016488880444395 6.4908305661815859 #
straight-curve $-1 65.4536576433607 0 12.562316570545493 0 1 0 I I #
vertex $-1 $277 $342 #
point $-1 60.240968618999986 -14.864136453405983 5.5823904604401706 #
vertex $-1 $281 $343 #
point $-1 60.240968618999986 -9.1866439141890552 5.5823904604401706 #
straight-curve $-1 -65.4536576433607 41.979870996294302 0 0 0 -1 I I #
point $-1 -65.4536576433607 -41.979870996294302 -12.562316570545493 #
straight-curve $-1 -65.4536576433607 0 -12.562316570545493 0 1 0 I I #
point $-1 -65.4536576433607 41.979870996294302 -12.562316570545493 #
straight-curve $-1 -65.4536576433607 -5.4016488880444395 39.846635359965234 0 0 -1 I I #
point $-1 -65.4536576433607 -5.4016488880444395 12.562316570545493 #
straight-curve $-1 -65.4536576433607 -6.0126950918987596 6.4908305661815691 0 -1 0 I I #
point $-1 -65.4536576433607 -5.4016488880444395 6.4908305661815788 #
point $-1 -58.158622910805612 -14.864136453405983 5.9871574941330312 #
point $-1 -58.158622910805612 -9.1866439141890552 5.9871574941330312 #
straight-curve $-1 65.4536576433607 -18.649131479550597 94.110177335940918 0 0 -1 I I #
point $-1 65.4536576433607 -18.649131479550597 12.562316570545493 #
straight-curve $-1 65.453657643360714 -6.0126950918987596 6.4908305661815788 0 1 0 I I #
point $-1 65.4536576433607 -18.649131479550597 6.4908305661815859 #
point $-1 58.158622910805619 -14.864136453405983 5.9871574941330419 #
point $-1 58.158622910805619 -9.1866439141890552 5.9871574941330419 #
End-of-ACIS-data 