500 0 5 0           
7 Unknown 11 ACIS 5.0 NT 24 Thu Mar 25 21:08:06 1999 
-1 9.9999999999999995e-007 1e-010 
body $-1 $5 $-1 $6 #
body $-1 $7 $-1 $8 #
body $-1 $9 $-1 $10 #
body $-1 $11 $-1 $12 #
body $-1 $13 $-1 $14 #
lump $-1 $-1 $15 $0 #
transform $-1 1 0 0 0 1 0 0 0 1 69.078035828730123 30.670125084600802 9.5749721233384921 1 rotate no_reflect no_shear #
lump $-1 $-1 $16 $1 #
transform $-1 1 0 0 0 1 0 0 0 1 69.078035828730123 30.670125084600802 9.5749721233384921 1 rotate no_reflect no_shear #
lump $-1 $-1 $17 $2 #
transform $-1 1 0 0 0 1 0 0 0 1 69.078035828730123 30.670125084600802 9.5749721233384921 1 rotate no_reflect no_shear #
lump $-1 $-1 $18 $3 #
transform $-1 1 0 0 0 1 0 0 0 1 69.078035828730123 30.670125084600802 9.5749721233384921 1 rotate no_reflect no_shear #
lump $-1 $-1 $19 $4 #
transform $-1 1 0 0 0 1 0 0 0 1 69.078035828730123 30.670125084600802 9.5749721233384921 1 rotate no_reflect no_shear #
shell $-1 $-1 $-1 $20 $-1 $5 #
shell $-1 $-1 $-1 $21 $-1 $7 #
shell $-1 $-1 $-1 $22 $-1 $9 #
shell $-1 $-1 $-1 $23 $-1 $11 #
shell $-1 $-1 $-1 $24 $-1 $13 #
face $-1 $25 $26 $15 $-1 $27 forward single #
face $-1 $28 $29 $16 $-1 $30 forward single #
face $-1 $31 $32 $17 $-1 $33 reversed single #
face $-1 $34 $35 $18 $-1 $36 forward single #
face $-1 $37 $38 $19 $-1 $39 forward single #
face $-1 $40 $41 $15 $-1 $42 reversed single #
loop $-1 $-1 $43 $20 #
plane-surface $-1 0 0 9.5749721233384921 0 0 1 1 0 0 forward_v I I I I #
face $-1 $44 $45 $16 $-1 $46 reversed single #
loop $-1 $-1 $47 $21 #
plane-surface $-1 -69.078035828730123 0 0 1 0 0 0 0 -1 forward_v I I I I #
face $-1 $48 $49 $17 $-1 $50 reversed single #
loop $-1 $-1 $51 $22 #
plane-surface $-1 113.02946837515603 12.725195609917446 195.9648983309115 0 1 0 0.84804810408105047 0 0.52991925155115449 forward_v I I I I #
face $-1 $52 $53 $18 $-1 $54 forward single #
loop $-1 $55 $56 $23 #
cone-surface $-1 67.33980413746437 17.852318316969832 7.2744119549014714 -0.84804810408105047 0 -0.52991925155115449 0.26495962577557725 0 -0.42402405204052523 1 I I 0 1 0.5 forward I I I I #
face $-1 $57 $58 $19 $-1 $59 forward single #
loop $-1 $60 $61 $24 #
cone-surface $-1 67.33980413746437 25.543002377548415 7.2744119549014714 -0.84804810408105047 0 -0.52991925155115449 0.26495962577557725 0 -0.42402405204052523 1 I I 0 1 0.5 forward I I I I #
face $-1 $62 $63 $15 $-1 $64 reversed single #
loop $-1 $-1 $65 $25 #
plane-surface $-1 0 0 -9.5749721233384921 0 0 1 1 0 0 forward_v I I I I #
coedge $-1 $66 $67 $68 $69 forward $26 $-1 #
face $-1 $70 $71 $16 $-1 $72 forward single #
loop $-1 $-1 $73 $28 #
plane-surface $-1 0 30.670125084600802 0 0 -1 0 0 0 -1 forward_v I I I I #
coedge $-1 $74 $75 $76 $77 forward $29 $-1 #
face $-1 $78 $79 $17 $-1 $80 forward single #
loop $-1 $-1 $81 $31 #
plane-surface $-1 -4.1335262612388846 21.697660347259127 122.75333624094249 0.84804810408105047 0 0.52991925155115449 0.52991925155115449 0 -0.84804810408105047 forward_v I I I I #
coedge $-1 $82 $83 $84 $85 reversed $32 $-1 #
face $-1 $-1 $86 $18 $-1 $87 forward single #
loop $-1 $88 $89 $34 #
cone-surface $-1 66.63449712368859 17.852318316969832 6.8336872329721157 -0.84804810408105047 0 -0.52991925155115449 0.13247981288778862 0 -0.21201202602026262 1 I I -0.70710678118654746 0.70710678118654746 0.25 forward I I I I #
loop $-1 $-1 $90 $23 #
coedge $-1 $56 $56 $91 $92 reversed $35 $-1 #
face $-1 $-1 $93 $19 $-1 $94 forward single #
loop $-1 $95 $96 $37 #
cone-surface $-1 66.63449712368859 25.543002377548415 6.8336872329721157 -0.84804810408105047 0 -0.52991925155115449 0.13247981288778862 0 -0.21201202602026262 1 I I -0.70710678118654746 0.70710678118654746 0.25 forward I I I I #
loop $-1 $-1 $97 $24 #
coedge $-1 $61 $61 $98 $99 reversed $38 $-1 #
face $-1 $100 $101 $15 $-1 $102 reversed single #
loop $-1 $-1 $103 $40 #
plane-surface $-1 0 -30.670125084600802 0 0 1 0 0 0 1 forward_v I I I I #
coedge $-1 $104 $105 $106 $107 forward $41 $-1 #
coedge $-1 $108 $43 $109 $110 forward $26 $-1 #
coedge $-1 $43 $108 $111 $112 forward $26 $-1 #
coedge $-1 $113 $114 $43 $69 reversed $115 $-1 #
edge $-1 $116 -30.670125084600802 $117 30.670125084600802 $68 $118 forward 7 unknown #
face $-1 $119 $120 $16 $-1 $121 reversed single #
loop $-1 $-1 $76 $44 #
plane-surface $-1 -75.262321757579315 0 6.7274551843008839 0 0 1 1 0 0 forward_v I I I I #
coedge $-1 $122 $123 $75 $124 forward $45 $-1 #
coedge $-1 $125 $47 $126 $127 reversed $29 $-1 #
coedge $-1 $47 $125 $73 $124 reversed $29 $-1 #
coedge $-1 $128 $129 $47 $77 reversed $71 $-1 #
edge $-1 $130 -30.670125084600802 $131 30.670125084600802 $76 $132 forward 7 unknown #
face $-1 $133 $134 $17 $-1 $135 reversed single #
loop $-1 $-1 $136 $48 #
plane-surface $-1 0 0 9.5749721233384921 0 0 1 1 0 0 forward_v I I I I #
coedge $-1 $137 $138 $139 $140 reversed $49 $-1 #
coedge $-1 $83 $51 $141 $142 reversed $32 $-1 #
coedge $-1 $51 $82 $137 $143 reversed $32 $-1 #
coedge $-1 $139 $144 $51 $85 forward $134 $-1 #
edge $-1 $145 88.40747704211725 $146 92.392107560908173 $84 $147 forward 7 unknown #
loop $-1 $-1 $91 $52 #
plane-surface $-1 -4.1335262612388846 21.697660347259127 122.75333624094249 0.84804810408105047 0 0.52991925155115449 0.52991925155115449 0 -0.84804810408105047 forward_v I I I I #
loop $-1 $-1 $148 $34 #
coedge $-1 $89 $89 $90 $149 reversed $53 $-1 #
coedge $-1 $90 $90 $89 $149 forward $55 $-1 #
coedge $-1 $91 $91 $56 $92 forward $86 $-1 #
edge $-1 $150 0 $150 6.2831853071796004 $91 $151 forward 7 unknown #
loop $-1 $-1 $98 $57 #
plane-surface $-1 -4.1335262612388846 21.697660347259127 122.75333624094249 0.84804810408105047 0 0.52991925155115449 0.52991925155115449 0 -0.84804810408105047 forward_v I I I I #
loop $-1 $-1 $152 $37 #
coedge $-1 $96 $96 $97 $153 reversed $58 $-1 #
coedge $-1 $97 $97 $96 $153 forward $60 $-1 #
coedge $-1 $98 $98 $61 $99 forward $93 $-1 #
edge $-1 $154 0 $154 6.2831853071796004 $98 $155 forward 7 unknown #
face $-1 $156 $157 $15 $-1 $158 reversed single #
loop $-1 $-1 $159 $62 #
plane-surface $-1 -69.078035828730123 0 0 1 0 0 0 0 -1 forward_v I I I I #
coedge $-1 $160 $111 $159 $161 forward $63 $-1 #
coedge $-1 $162 $65 $160 $163 forward $41 $-1 #
coedge $-1 $65 $162 $164 $165 forward $41 $-1 #
coedge $-1 $114 $113 $65 $107 reversed $115 $-1 #
edge $-1 $166 -30.670125084600802 $167 30.670125084600802 $106 $168 forward 7 unknown #
coedge $-1 $67 $66 $169 $170 forward $26 $-1 #
coedge $-1 $171 $172 $66 $110 reversed $157 $-1 #
edge $-1 $117 -69.078035828730123 $173 69.078035828730123 $109 $174 forward 7 unknown #
coedge $-1 $103 $175 $67 $112 reversed $63 $-1 #
edge $-1 $176 -69.078035828730123 $116 69.078035828730123 $111 $177 forward 7 unknown #
coedge $-1 $106 $68 $175 $178 forward $115 $-1 #
coedge $-1 $68 $106 $171 $179 reversed $115 $-1 #
loop $-1 $-1 $113 $156 #
vertex $-1 $69 $180 #
vertex $-1 $69 $181 #
straight-curve $-1 69.078035828730123 0 9.5749721233384921 0 1 0 I I #
face $-1 $182 $183 $16 $-1 $184 reversed single #
loop $-1 $-1 $185 $70 #
plane-surface $-1 -75.262321757579315 0 1.568302291866714 0 0 1 1 0 0 forward_v I I I I #
coedge $-1 $186 $73 $187 $188 reversed $45 $-1 #
coedge $-1 $73 $186 $128 $189 reversed $45 $-1 #
edge $-1 $130 -6.7274551843008839 $190 -1.568302291866714 $73 $191 forward 7 unknown #
coedge $-1 $75 $74 $185 $192 forward $29 $-1 #
coedge $-1 $193 $194 $74 $127 forward $195 $-1 #
edge $-1 $196 1.568302291866714 $131 6.7274551843008839 $126 $197 forward 7 unknown #
coedge $-1 $198 $76 $123 $189 forward $71 $-1 #
coedge $-1 $76 $198 $193 $199 forward $71 $-1 #
vertex $-1 $124 $200 #
vertex $-1 $199 $201 #
straight-curve $-1 -69.078035828730123 0 6.7274551843008839 0 -1 0 I I #
face $-1 $-1 $202 $17 $-1 $203 reversed single #
loop $-1 $-1 $84 $78 #
plane-surface $-1 69.078035828730123 0 0 -1 0 0 0 0 1 forward_v I I I I #
coedge $-1 $141 $204 $205 $206 forward $79 $-1 #
coedge $-1 $205 $81 $83 $143 forward $49 $-1 #
coedge $-1 $81 $205 $207 $208 reversed $49 $-1 #
coedge $-1 $209 $84 $81 $140 forward $134 $-1 #
edge $-1 $146 1.8763654362878821 $210 19.82129491097124 $139 $211 forward 7 unknown #
coedge $-1 $212 $136 $82 $142 forward $79 $-1 #
edge $-1 $213 10.073428234131583 $145 12.563301641152108 $141 $214 forward 7 unknown #
edge $-1 $146 -138.15607165746025 $213 -133.45748144823068 $83 $215 forward 7 unknown #
coedge $-1 $84 $209 $212 $216 reversed $134 $-1 #
vertex $-1 $216 $217 #
vertex $-1 $85 $218 #
straight-curve $-1 69.078035828730123 12.725195609917446 97.982449165455748 0 0 -1 I I #
coedge $-1 $148 $148 $-1 $219 reversed $88 $-1 #
edge $-1 $220 0 $220 6.2831853071796004 $89 $221 forward 7 unknown #
vertex $-1 $92 $222 #
ellipse-curve $-1 67.83309912521986 17.852318316969832 7.5826568639430292 0.84804810408105047 0 0.52991925155115449 0.26495962577557725 0 -0.42402405204052523 1 I I #
coedge $-1 $152 $152 $-1 $223 reversed $95 $-1 #
edge $-1 $224 0 $224 6.2831853071796004 $96 $225 forward 7 unknown #
vertex $-1 $99 $226 #
ellipse-curve $-1 67.83309912521986 25.543002377548415 7.5826568639430292 0.84804810408105047 0 0.52991925155115449 0.26495962577557725 0 -0.42402405204052523 1 I I #
face $-1 $-1 $115 $15 $-1 $227 reversed single #
loop $-1 $-1 $171 $100 #
plane-surface $-1 0 30.670125084600802 0 0 -1 0 0 0 -1 forward_v I I I I #
coedge $-1 $169 $228 $103 $161 reversed $101 $-1 #
coedge $-1 $175 $103 $104 $163 reversed $63 $-1 #
edge $-1 $176 -9.5749721233384921 $229 9.5749721233384921 $159 $230 forward 7 unknown #
coedge $-1 $105 $104 $228 $231 forward $41 $-1 #
edge $-1 $167 -69.078035828730123 $229 69.078035828730123 $160 $232 forward 7 unknown #
coedge $-1 $172 $171 $105 $165 reversed $157 $-1 #
edge $-1 $233 -69.078035828730123 $166 69.078035828730123 $164 $234 forward 7 unknown #
vertex $-1 $107 $235 #
vertex $-1 $178 $236 #
straight-curve $-1 69.078035828730123 0 -9.5749721233384921 0 -1 0 I I #
coedge $-1 $237 $159 $108 $170 reversed $101 $-1 #
edge $-1 $173 -30.670125084600802 $176 30.670125084600802 $169 $238 forward 7 unknown #
coedge $-1 $164 $109 $114 $179 forward $157 $-1 #
coedge $-1 $109 $164 $237 $239 reversed $157 $-1 #
vertex $-1 $110 $240 #
straight-curve $-1 0 30.670125084600802 9.5749721233384921 -1 0 0 I I #
coedge $-1 $111 $160 $113 $178 reversed $63 $-1 #
vertex $-1 $170 $241 #
straight-curve $-1 0 -30.670125084600802 9.5749721233384921 1 0 0 I I #
edge $-1 $116 -9.5749721233384921 $167 9.5749721233384921 $113 $242 forward 7 unknown #
edge $-1 $117 -9.5749721233384921 $166 9.5749721233384921 $114 $243 forward 7 unknown #
point $-1 69.078035828730123 -30.670125084600802 9.5749721233384921 #
point $-1 69.078035828730123 30.670125084600802 9.5749721233384921 #
face $-1 $-1 $195 $16 $-1 $244 reversed single #
loop $-1 $-1 $245 $119 #
plane-surface $-1 -81.446607686428507 0 4.1478787380837989 1 0 0 0 0 -1 forward_v I I I I #
coedge $-1 $246 $187 $125 $192 reversed $120 $-1 #
coedge $-1 $123 $122 $245 $247 reversed $45 $-1 #
coedge $-1 $185 $248 $122 $188 forward $120 $-1 #
edge $-1 $249 -6.1842859288491923 $190 6.1842859288491923 $122 $250 forward 7 unknown #
edge $-1 $130 -6.1842859288491923 $251 6.1842859288491923 $123 $252 forward 7 unknown #
vertex $-1 $124 $253 #
straight-curve $-1 -69.078035828730123 30.670125084600802 0 0 0 -1 I I #
edge $-1 $196 -30.670125084600802 $190 30.670125084600802 $185 $254 forward 7 unknown #
coedge $-1 $255 $126 $129 $199 reversed $195 $-1 #
coedge $-1 $126 $255 $246 $256 reversed $195 $-1 #
loop $-1 $-1 $126 $182 #
vertex $-1 $127 $257 #
straight-curve $-1 -69.078035828730123 -30.670125084600802 0 0 0 1 I I #
coedge $-1 $129 $128 $258 $259 forward $71 $-1 #
edge $-1 $260 -6.1842859288491923 $131 6.1842859288491923 $193 $261 forward 7 unknown #
point $-1 -69.078035828730123 30.670125084600802 6.7274551843008839 #
point $-1 -69.078035828730123 -30.670125084600802 6.7274551843008839 #
loop $-1 $-1 $207 $133 #
plane-surface $-1 0 30.670125084600802 0 0 -1 0 0 0 -1 forward_v I I I I #
coedge $-1 $136 $212 $262 $263 forward $79 $-1 #
coedge $-1 $138 $137 $136 $206 reversed $49 $-1 #
edge $-1 $264 -19.821294910971247 $213 -1.8763654362878821 $136 $265 forward 7 unknown #
coedge $-1 $262 $266 $138 $208 forward $202 $-1 #
edge $-1 $210 -85.010487051771378 $264 -80.311896842541799 $207 $267 forward 7 unknown #
coedge $-1 $144 $139 $266 $268 reversed $134 $-1 #
vertex $-1 $140 $269 #
straight-curve $-1 69.078035828730123 10.848830173629564 5.590341604547568 0 1 0 I I #
coedge $-1 $204 $141 $144 $216 forward $79 $-1 #
vertex $-1 $142 $270 #
straight-curve $-1 56.514734187578014 12.725195609917446 9.5749721233384975 1 0 0 I I #
straight-curve $-1 -4.1335262612388846 12.725195609917446 122.75333624094249 -0.52991925155115449 0 0.84804810408105047 I I #
edge $-1 $145 12.725195609917446 $271 30.670125084600802 $144 $272 forward 7 unknown #
point $-1 69.078035828730123 12.725195609917446 9.5749721233384921 #
point $-1 69.078035828730123 12.725195609917446 5.5903416045475751 #
edge $-1 $273 1 $273 0 $148 $-1 forward 7 unknown #
vertex $-1 $149 $274 #
ellipse-curve $-1 66.846509149708851 17.852318316969832 6.9661670458599039 0.84804810408105047 0 0.52991925155115449 0.26495962577557725 0 -0.42402405204052523 1 I I #
point $-1 68.098058750995449 17.852318316969832 7.1586328119025122 #
edge $-1 $275 1 $275 0 $152 $-1 forward 7 unknown #
vertex $-1 $153 $276 #
ellipse-curve $-1 66.846509149708851 25.543002377548415 6.9661670458599039 0.84804810408105047 0 0.52991925155115449 0.26495962577557725 0 -0.42402405204052523 1 I I #
point $-1 68.098058750995449 25.543002377548415 7.1586328119025122 #
plane-surface $-1 69.078035828730123 0 0 -1 0 0 0 0 1 forward_v I I I I #
coedge $-1 $159 $237 $162 $231 reversed $101 $-1 #
vertex $-1 $231 $277 #
straight-curve $-1 -69.078035828730123 -30.670125084600802 0 0 0 -1 I I #
edge $-1 $229 -30.670125084600802 $233 30.670125084600802 $228 $278 forward 7 unknown #
straight-curve $-1 0 -30.670125084600802 -9.5749721233384921 -1 0 0 I I #
vertex $-1 $165 $279 #
straight-curve $-1 0 30.670125084600802 -9.5749721233384921 1 0 0 I I #
point $-1 69.078035828730123 30.670125084600802 -9.5749721233384921 #
point $-1 69.078035828730123 -30.670125084600802 -9.5749721233384921 #
coedge $-1 $228 $169 $172 $239 forward $101 $-1 #
straight-curve $-1 -69.078035828730123 0 9.5749721233384921 0 -1 0 I I #
edge $-1 $173 -9.5749721233384921 $233 9.5749721233384921 $172 $280 forward 7 unknown #
point $-1 -69.078035828730123 30.670125084600802 9.5749721233384921 #
point $-1 -69.078035828730123 -30.670125084600802 9.5749721233384921 #
straight-curve $-1 69.078035828730123 -30.670125084600802 0 0 0 -1 I I #
straight-curve $-1 69.078035828730123 30.670125084600802 0 0 0 -1 I I #
plane-surface $-1 0 -30.670125084600802 0 0 1 0 0 0 1 forward_v I I I I #
coedge $-1 $281 $258 $186 $247 forward $183 $-1 #
coedge $-1 $248 $185 $194 $256 forward $120 $-1 #
edge $-1 $251 -2.5795764462170849 $249 2.5795764462170849 $186 $282 forward 7 unknown #
coedge $-1 $187 $246 $281 $283 forward $120 $-1 #
vertex $-1 $188 $284 #
straight-curve $-1 -75.262321757579315 30.670125084600802 1.568302291866714 1 0 0 I I #
vertex $-1 $189 $285 #
straight-curve $-1 -75.262321757579315 30.670125084600802 6.7274551843008839 -1 0 0 I I #
point $-1 -69.078035828730123 30.670125084600802 1.568302291866714 #
straight-curve $-1 -69.078035828730123 0 1.568302291866714 0 1 0 I I #
coedge $-1 $194 $193 $286 $287 forward $195 $-1 #
edge $-1 $196 -6.1842859288491923 $288 6.1842859288491923 $194 $289 forward 7 unknown #
point $-1 -69.078035828730123 -30.670125084600802 1.568302291866714 #
coedge $-1 $245 $286 $198 $259 reversed $183 $-1 #
edge $-1 $251 -30.670125084600802 $260 30.670125084600802 $258 $290 forward 7 unknown #
vertex $-1 $259 $291 #
straight-curve $-1 -75.262321757579315 -30.670125084600802 6.7274551843008839 1 0 0 I I #
coedge $-1 $266 $207 $204 $263 reversed $202 $-1 #
edge $-1 $271 -69.078035828730123 $264 -66.588162421709598 $262 $292 forward 7 unknown #
vertex $-1 $208 $293 #
straight-curve $-1 66.588162421709598 10.848830173629564 9.5749721233384975 0 -1 0 I I #
coedge $-1 $207 $262 $209 $268 forward $202 $-1 #
straight-curve $-1 24.02934215625632 30.670125084600802 77.683323975808975 -0.52991925155115449 0 0.84804810408105047 I I #
edge $-1 $271 -9.5749721233384921 $210 -5.5903416045475716 $209 $294 forward 7 unknown #
point $-1 69.078035828730123 30.670125084600802 5.5903416045475716 #
point $-1 66.588162421709598 12.725195609917446 9.5749721233384975 #
vertex $-1 $216 $295 #
straight-curve $-1 69.078035828730123 0 9.5749721233384921 0 1 0 I I #
vertex $-1 $219 $296 #
point $-1 67.111468775484425 17.852318316969832 6.5421429938193789 #
vertex $-1 $223 $297 #
point $-1 67.111468775484425 25.543002377548415 6.5421429938193789 #
point $-1 -69.078035828730123 -30.670125084600802 -9.5749721233384921 #
straight-curve $-1 -69.078035828730123 0 -9.5749721233384921 0 1 0 I I #
point $-1 -69.078035828730123 30.670125084600802 -9.5749721233384921 #
straight-curve $-1 -69.078035828730123 30.670125084600802 0 0 0 -1 I I #
coedge $-1 $286 $245 $248 $283 reversed $183 $-1 #
straight-curve $-1 -81.446607686428507 30.670125084600802 4.1478787380837989 0 0 -1 I I #
edge $-1 $288 -30.670125084600802 $249 30.670125084600802 $281 $298 forward 7 unknown #
point $-1 -81.446607686428507 30.670125084600802 1.568302291866714 #
point $-1 -81.446607686428507 30.670125084600802 6.7274551843008839 #
coedge $-1 $258 $281 $255 $287 reversed $183 $-1 #
edge $-1 $260 -2.5795764462170849 $288 2.5795764462170849 $286 $299 forward 7 unknown #
vertex $-1 $283 $300 #
straight-curve $-1 -75.262321757579315 -30.670125084600802 1.568302291866714 -1 0 0 I I #
straight-curve $-1 -81.446607686428507 0 6.7274551843008839 0 -1 0 I I #
point $-1 -81.446607686428507 -30.670125084600802 6.7274551843008839 #
straight-curve $-1 0 30.670125084600802 9.5749721233384921 -1 0 0 I I #
point $-1 66.588162421709598 30.670125084600809 9.5749721233384975 #
straight-curve $-1 69.078035828730123 30.670125084600802 0 0 0 -1 I I #
point $-1 69.078035828730123 30.670125084600802 9.5749721233384921 #
point $-1 66.422485097668329 17.852318316969832 6.7012074200843275 #
point $-1 66.422485097668329 25.543002377548415 6.7012074200843275 #
straight-curve $-1 -81.446607686428507 0 1.568302291866714 0 1 0 I I #
straight-curve $-1 -81.446607686428507 -30.670125084600802 4.1478787380837989 0 0 -1 I I #
point $-1 -81.446607686428507 -30.670125084600802 1.568302291866714 #
End-of-ACIS-data 