500 0 5 0           
7 Unknown 11 ACIS 5.0 NT 24 Thu Mar 25 15:32:46 1999 
-1 9.9999999999999995e-007 1e-010 
body $-1 $5 $-1 $6 #
body $-1 $7 $-1 $8 #
body $-1 $9 $-1 $10 #
body $-1 $11 $-1 $12 #
body $-1 $13 $-1 $14 #
lump $-1 $-1 $15 $0 #
transform $-1 1 0 0 0 1 0 0 0 1 67.277443769646297 30.251340472696242 7.2780661137243658 1 rotate no_reflect no_shear #
lump $-1 $-1 $16 $1 #
transform $-1 1 0 0 0 1 0 0 0 1 67.277443769646297 30.251340472696242 7.2780661137243658 1 rotate no_reflect no_shear #
lump $-1 $-1 $17 $2 #
transform $-1 1 0 0 0 1 0 0 0 1 67.277443769646297 30.251340472696242 7.2780661137243658 1 rotate no_reflect no_shear #
lump $-1 $-1 $18 $3 #
transform $-1 1 0 0 0 1 0 0 0 1 67.277443769646297 30.251340472696242 7.2780661137243658 1 rotate no_reflect no_shear #
lump $-1 $-1 $19 $4 #
transform $-1 1 0 0 0 1 0 0 0 1 67.277443769646297 30.251340472696242 7.2780661137243658 1 rotate no_reflect no_shear #
shell $-1 $-1 $-1 $20 $-1 $5 #
shell $-1 $-1 $-1 $21 $-1 $7 #
shell $-1 $-1 $-1 $22 $-1 $9 #
shell $-1 $-1 $-1 $23 $-1 $11 #
shell $-1 $-1 $-1 $24 $-1 $13 #
face $-1 $25 $26 $15 $-1 $27 forward single #
face $-1 $28 $29 $16 $-1 $30 reversed single #
face $-1 $31 $32 $17 $-1 $33 reversed single #
face $-1 $34 $35 $18 $-1 $36 forward single #
face $-1 $37 $38 $19 $-1 $39 forward single #
face $-1 $40 $41 $15 $-1 $42 reversed single #
loop $-1 $-1 $43 $20 #
plane-surface $-1 0 0 7.2780661137243658 0 0 1 1 0 0 forward_v I I I I #
face $-1 $44 $45 $16 $-1 $46 reversed single #
loop $-1 $-1 $47 $21 #
plane-surface $-1 -64.050710814805655 0 3.2603035262212519 0 0 1 1 0 0 forward_v I I I I #
face $-1 $48 $49 $17 $-1 $50 reversed single #
loop $-1 $-1 $51 $22 #
plane-surface $-1 5.7300261803553809 96.744558817801078 132.44095750937672 1 0 0 0 -0.77714596973225614 -0.62932038083071107 forward_v I I I I #
face $-1 $52 $53 $18 $-1 $54 forward single #
loop $-1 $55 $56 $23 #
cone-surface $-1 12.25447555128801 26.320030719482098 2.9697770854503585 0 -0.77714596973225614 -0.62932038083071107 1 0 0 1 I I 0 1 1 forward I I I I #
face $-1 $57 $58 $19 $-1 $59 forward single #
loop $-1 $60 $61 $24 #
cone-surface $-1 22.041149607686947 26.320030719482098 2.9697770854503585 0 -0.77714596973225614 -0.62932038083071107 1 0 0 1 I I 0 1 1 forward I I I I #
face $-1 $62 $63 $15 $-1 $64 reversed single #
loop $-1 $-1 $65 $25 #
plane-surface $-1 0 0 -7.2780661137243658 0 0 1 1 0 0 forward_v I I I I #
coedge $-1 $66 $67 $68 $69 forward $26 $-1 #
face $-1 $70 $71 $16 $-1 $72 reversed single #
loop $-1 $-1 $73 $28 #
plane-surface $-1 -60.823977859965012 0 5.2691848199728089 -1 0 0 0 0 1 forward_v I I I I #
coedge $-1 $74 $75 $76 $77 forward $29 $-1 #
face $-1 $78 $79 $17 $-1 $80 reversed single #
loop $-1 $-1 $81 $31 #
plane-surface $-1 17.147812579487479 -7.8242297411371311 47.762824440515601 0 0.77714596973225614 0.62932038083071107 1 0 0 forward_v I I I I #
coedge $-1 $82 $83 $84 $85 reversed $32 $-1 #
face $-1 $-1 $86 $18 $-1 $87 forward single #
loop $-1 $88 $89 $34 #
cone-surface $-1 12.25447555128801 24.645978088646295 1.6141560307195473 0 -0.77714596973225614 -0.62932038083071107 0.5 0 0 1 I I -0.70710678118654746 0.70710678118654746 0.5 forward I I I I #
loop $-1 $-1 $90 $23 #
coedge $-1 $56 $56 $91 $92 reversed $35 $-1 #
face $-1 $-1 $93 $19 $-1 $94 forward single #
loop $-1 $95 $96 $37 #
cone-surface $-1 22.041149607686947 24.645978088646295 1.6141560307195473 0 -0.77714596973225614 -0.62932038083071107 0.5 0 0 1 I I -0.70710678118654746 0.70710678118654746 0.5 forward I I I I #
loop $-1 $-1 $97 $24 #
coedge $-1 $61 $61 $98 $99 reversed $38 $-1 #
face $-1 $100 $101 $15 $-1 $102 reversed single #
loop $-1 $-1 $103 $40 #
plane-surface $-1 0 -30.251340472696242 0 0 1 0 0 0 1 forward_v I I I I #
coedge $-1 $104 $105 $106 $107 forward $41 $-1 #
coedge $-1 $108 $43 $109 $110 forward $26 $-1 #
coedge $-1 $43 $108 $111 $112 forward $26 $-1 #
coedge $-1 $113 $114 $43 $69 reversed $115 $-1 #
edge $-1 $116 -30.251340472696242 $117 30.251340472696242 $68 $118 forward 7 unknown #
face $-1 $119 $120 $16 $-1 $121 reversed single #
loop $-1 $-1 $122 $44 #
plane-surface $-1 0 30.251340472696242 0 0 -1 0 0 0 -1 forward_v I I I I #
coedge $-1 $76 $123 $124 $125 reversed $45 $-1 #
coedge $-1 $126 $47 $127 $128 reversed $29 $-1 #
coedge $-1 $47 $126 $129 $130 reversed $29 $-1 #
coedge $-1 $131 $73 $47 $77 reversed $45 $-1 #
edge $-1 $132 -30.251340472696242 $133 30.251340472696242 $76 $134 forward 7 unknown #
face $-1 $135 $136 $17 $-1 $137 forward single #
loop $-1 $-1 $138 $48 #
plane-surface $-1 28.565598978619576 96.744558817801078 132.44095750937672 -1 0 0 0 0.77714596973225614 0.62932038083071107 forward_v I I I I #
coedge $-1 $139 $140 $141 $142 reversed $49 $-1 #
coedge $-1 $83 $51 $143 $144 reversed $32 $-1 #
coedge $-1 $51 $82 $139 $145 reversed $32 $-1 #
coedge $-1 $141 $146 $51 $85 forward $136 $-1 #
edge $-1 $147 18.120938936204297 $148 23.412599150693204 $84 $149 forward 7 unknown #
loop $-1 $-1 $91 $52 #
plane-surface $-1 17.147812579487479 -7.8242297411371311 47.762824440515601 0 0.77714596973225614 0.62932038083071107 1 0 0 forward_v I I I I #
loop $-1 $-1 $150 $34 #
coedge $-1 $89 $89 $90 $151 reversed $53 $-1 #
coedge $-1 $90 $90 $89 $151 forward $55 $-1 #
coedge $-1 $91 $91 $56 $92 forward $86 $-1 #
edge $-1 $152 -1.3506715825617249e-016 $152 6.2831853071796004 $91 $153 forward 7 unknown #
loop $-1 $-1 $98 $57 #
plane-surface $-1 17.147812579487479 -7.8242297411371311 47.762824440515601 0 0.77714596973225614 0.62932038083071107 1 0 0 forward_v I I I I #
loop $-1 $-1 $154 $37 #
coedge $-1 $96 $96 $97 $155 reversed $58 $-1 #
coedge $-1 $97 $97 $96 $155 forward $60 $-1 #
coedge $-1 $98 $98 $61 $99 forward $93 $-1 #
edge $-1 $156 -1.3506715825617249e-016 $156 6.2831853071796004 $98 $157 forward 7 unknown #
face $-1 $158 $159 $15 $-1 $160 reversed single #
loop $-1 $-1 $161 $62 #
plane-surface $-1 -67.277443769646297 0 0 1 0 0 0 0 -1 forward_v I I I I #
coedge $-1 $162 $111 $163 $164 forward $63 $-1 #
coedge $-1 $165 $65 $162 $166 forward $41 $-1 #
coedge $-1 $65 $165 $167 $168 forward $41 $-1 #
coedge $-1 $114 $113 $65 $107 reversed $115 $-1 #
edge $-1 $169 -30.251340472696242 $170 30.251340472696242 $106 $171 forward 7 unknown #
coedge $-1 $67 $66 $172 $173 forward $26 $-1 #
coedge $-1 $174 $175 $66 $110 reversed $159 $-1 #
edge $-1 $117 -67.277443769646297 $176 67.277443769646297 $109 $177 forward 7 unknown #
coedge $-1 $103 $178 $67 $112 reversed $63 $-1 #
edge $-1 $179 -67.277443769646297 $116 67.277443769646297 $111 $180 forward 7 unknown #
coedge $-1 $106 $68 $178 $181 forward $115 $-1 #
coedge $-1 $68 $106 $174 $182 reversed $115 $-1 #
loop $-1 $-1 $113 $158 #
vertex $-1 $69 $183 #
vertex $-1 $69 $184 #
straight-curve $-1 67.277443769646297 0 7.2780661137243658 0 1 0 I I #
face $-1 $185 $186 $16 $-1 $187 forward single #
loop $-1 $-1 $188 $70 #
plane-surface $-1 -67.277443769646297 0 0 1 0 0 0 0 -1 forward_v I I I I #
coedge $-1 $129 $189 $131 $190 forward $71 $-1 #
coedge $-1 $73 $131 $191 $192 reversed $45 $-1 #
coedge $-1 $193 $127 $73 $125 forward $194 $-1 #
edge $-1 $133 0.62571111623484743 $195 4.6434737037379614 $124 $196 forward 7 unknown #
coedge $-1 $75 $74 $188 $197 reversed $29 $-1 #
coedge $-1 $124 $198 $74 $128 forward $194 $-1 #
edge $-1 $199 -35.25208836224347 $133 -28.798622452562185 $127 $200 forward 7 unknown #
coedge $-1 $201 $122 $75 $130 forward $71 $-1 #
edge $-1 $132 28.798622452562185 $202 35.25208836224347 $129 $203 forward 7 unknown #
coedge $-1 $123 $76 $122 $190 reversed $45 $-1 #
vertex $-1 $130 $204 #
vertex $-1 $128 $205 #
straight-curve $-1 -60.823977859965012 0 3.2603035262212519 0 -1 0 I I #
face $-1 $-1 $206 $17 $-1 $207 reversed single #
loop $-1 $-1 $84 $78 #
plane-surface $-1 0 0 7.2780661137243658 0 0 1 1 0 0 forward_v I I I I #
coedge $-1 $208 $209 $210 $211 reversed $79 $-1 #
coedge $-1 $212 $81 $83 $145 forward $49 $-1 #
coedge $-1 $81 $212 $208 $213 forward $49 $-1 #
coedge $-1 $210 $84 $81 $142 forward $136 $-1 #
edge $-1 $148 -2.8438801093883583 $214 19.991692688875837 $141 $215 forward 7 unknown #
coedge $-1 $216 $217 $82 $144 forward $206 $-1 #
edge $-1 $218 -65.477068968881056 $147 -58.942412640963994 $143 $219 forward 7 unknown #
edge $-1 $148 52.094149495157424 $218 60.502680945392427 $83 $220 forward 7 unknown #
coedge $-1 $84 $210 $216 $221 forward $136 $-1 #
vertex $-1 $144 $222 #
vertex $-1 $85 $223 #
straight-curve $-1 5.7300261803553809 48.372279408900539 7.2780661137243641 0 -1 0 I I #
coedge $-1 $150 $150 $-1 $224 reversed $88 $-1 #
edge $-1 $225 0 $225 6.2831853071796004 $89 $226 forward 7 unknown #
vertex $-1 $92 $227 #
ellipse-curve $-1 12.25447555128801 27.605510365451789 4.0107379497658293 0 0.77714596973225614 0.62932038083071107 1 0 0 1 I I #
coedge $-1 $154 $154 $-1 $228 reversed $95 $-1 #
edge $-1 $229 0 $229 6.2831853071796004 $96 $230 forward 7 unknown #
vertex $-1 $99 $231 #
ellipse-curve $-1 22.041149607686947 27.605510365451789 4.0107379497658293 0 0.77714596973225614 0.62932038083071107 1 0 0 1 I I #
face $-1 $-1 $115 $15 $-1 $232 reversed single #
loop $-1 $-1 $174 $100 #
plane-surface $-1 0 30.251340472696242 0 0 -1 0 0 0 -1 forward_v I I I I #
coedge $-1 $233 $172 $175 $234 forward $101 $-1 #
coedge $-1 $178 $103 $104 $166 reversed $63 $-1 #
coedge $-1 $172 $233 $103 $164 reversed $101 $-1 #
edge $-1 $179 -7.2780661137243658 $235 7.2780661137243658 $163 $236 forward 7 unknown #
coedge $-1 $105 $104 $233 $237 forward $41 $-1 #
edge $-1 $170 -67.277443769646297 $235 67.277443769646297 $162 $238 forward 7 unknown #
coedge $-1 $175 $174 $105 $168 reversed $159 $-1 #
edge $-1 $239 -67.277443769646297 $169 67.277443769646297 $167 $240 forward 7 unknown #
vertex $-1 $107 $241 #
vertex $-1 $181 $242 #
straight-curve $-1 67.277443769646297 0 -7.2780661137243658 0 -1 0 I I #
coedge $-1 $161 $163 $108 $173 reversed $101 $-1 #
edge $-1 $176 -30.251340472696242 $179 30.251340472696242 $172 $243 forward 7 unknown #
coedge $-1 $167 $109 $114 $182 forward $159 $-1 #
coedge $-1 $109 $167 $161 $234 reversed $159 $-1 #
vertex $-1 $110 $244 #
straight-curve $-1 0 30.251340472696242 7.2780661137243658 -1 0 0 I I #
coedge $-1 $111 $162 $113 $181 reversed $63 $-1 #
vertex $-1 $173 $245 #
straight-curve $-1 0 -30.251340472696242 7.2780661137243658 1 0 0 I I #
edge $-1 $116 -7.2780661137243658 $170 7.2780661137243658 $113 $246 forward 7 unknown #
edge $-1 $117 -7.2780661137243658 $169 7.2780661137243658 $114 $247 forward 7 unknown #
point $-1 67.277443769646297 -30.251340472696242 7.2780661137243658 #
point $-1 67.277443769646297 30.251340472696242 7.2780661137243658 #
face $-1 $-1 $194 $16 $-1 $248 reversed single #
loop $-1 $-1 $191 $119 #
plane-surface $-1 0 0 7.2780661137243658 0 0 1 1 0 0 forward_v I I I I #
coedge $-1 $249 $250 $126 $197 forward $120 $-1 #
coedge $-1 $122 $201 $251 $252 reversed $71 $-1 #
edge $-1 $253 -4.6434737037379614 $132 -0.62571111623484743 $122 $254 forward 7 unknown #
coedge $-1 $251 $255 $123 $192 forward $186 $-1 #
edge $-1 $195 -30.251340472696242 $253 30.251340472696242 $191 $256 forward 7 unknown #
coedge $-1 $198 $124 $255 $257 reversed $194 $-1 #
loop $-1 $-1 $124 $185 #
vertex $-1 $125 $258 #
straight-curve $-1 -60.823977859965012 -30.251340472696242 2.6345924099864044 0 0 1 I I #
edge $-1 $202 -30.251340472696242 $199 30.251340472696242 $188 $259 forward 7 unknown #
coedge $-1 $127 $193 $249 $260 forward $194 $-1 #
vertex $-1 $197 $261 #
straight-curve $-1 -32.025355407402827 -30.251340472696242 3.2603035262212519 1 0 0 I I #
coedge $-1 $189 $129 $250 $262 reversed $71 $-1 #
vertex $-1 $197 $263 #
straight-curve $-1 -32.025355407402827 30.251340472696242 3.2603035262212519 -1 0 0 I I #
point $-1 -60.823977859965012 30.251340472696242 3.2603035262212519 #
point $-1 -60.823977859965012 -30.251340472696242 3.2603035262212519 #
loop $-1 $-1 $143 $135 #
plane-surface $-1 0 30.251340472696242 0 0 -1 0 0 0 -1 forward_v I I I I #
coedge $-1 $209 $138 $140 $213 reversed $79 $-1 #
coedge $-1 $138 $208 $264 $265 reversed $79 $-1 #
coedge $-1 $146 $141 $138 $211 forward $136 $-1 #
edge $-1 $214 -23.412599150693204 $266 -18.120938936204297 $210 $267 forward 7 unknown #
coedge $-1 $140 $139 $217 $268 reversed $49 $-1 #
edge $-1 $269 -60.502680945392427 $214 -52.094149495157424 $208 $270 forward 7 unknown #
vertex $-1 $142 $271 #
straight-curve $-1 8.5739062897437393 24.959680258207328 7.2780661137243676 1 0 0 I I #
coedge $-1 $264 $143 $146 $221 reversed $206 $-1 #
coedge $-1 $143 $264 $212 $268 forward $206 $-1 #
vertex $-1 $144 $272 #
straight-curve $-1 5.7300261803553809 30.251340472696242 66.220478754688358 0 0 1 I I #
straight-curve $-1 5.7300261803553809 -7.8242297411371311 47.762824440515601 0 0.62932038083071107 -0.77714596973225614 I I #
edge $-1 $266 -28.565598978619576 $147 -5.7300261803553809 $216 $273 forward 7 unknown #
point $-1 5.7300261803553809 30.251340472696242 7.2780661137243658 #
point $-1 5.7300261803553809 24.959680258207335 7.2780661137243641 #
edge $-1 $274 1 $274 0 $150 $-1 forward 7 unknown #
vertex $-1 $151 $275 #
ellipse-curve $-1 12.25447555128801 25.034551073512421 1.9288162211349027 0 0.77714596973225614 0.62932038083071107 1 0 0 1 I I #
point $-1 13.25447555128801 27.605510365451771 4.0107379497658151 #
edge $-1 $276 1 $276 0 $154 $-1 forward 7 unknown #
vertex $-1 $155 $277 #
ellipse-curve $-1 22.041149607686947 25.034551073512421 1.9288162211349027 0 0.77714596973225614 0.62932038083071107 1 0 0 1 I I #
point $-1 23.041149607686947 27.605510365451771 4.0107379497658151 #
plane-surface $-1 67.277443769646297 0 0 -1 0 0 0 0 1 forward_v I I I I #
coedge $-1 $163 $161 $165 $237 reversed $101 $-1 #
edge $-1 $176 -7.2780661137243658 $239 7.2780661137243658 $175 $278 forward 7 unknown #
vertex $-1 $237 $279 #
straight-curve $-1 -67.277443769646297 -30.251340472696242 0 0 0 -1 I I #
edge $-1 $235 -30.251340472696242 $239 30.251340472696242 $233 $280 forward 7 unknown #
straight-curve $-1 0 -30.251340472696242 -7.2780661137243658 -1 0 0 I I #
vertex $-1 $168 $281 #
straight-curve $-1 0 30.251340472696242 -7.2780661137243658 1 0 0 I I #
point $-1 67.277443769646297 30.251340472696242 -7.2780661137243658 #
point $-1 67.277443769646297 -30.251340472696242 -7.2780661137243658 #
straight-curve $-1 -67.277443769646297 0 7.2780661137243658 0 -1 0 I I #
point $-1 -67.277443769646297 30.251340472696242 7.2780661137243658 #
point $-1 -67.277443769646297 -30.251340472696242 7.2780661137243658 #
straight-curve $-1 67.277443769646297 -30.251340472696242 0 0 0 -1 I I #
straight-curve $-1 67.277443769646297 30.251340472696242 0 0 0 -1 I I #
plane-surface $-1 0 -30.251340472696242 0 0 1 0 0 0 1 forward_v I I I I #
coedge $-1 $282 $188 $198 $260 reversed $120 $-1 #
coedge $-1 $188 $282 $201 $262 forward $120 $-1 #
coedge $-1 $283 $191 $189 $252 forward $186 $-1 #
edge $-1 $253 60.823977859965012 $284 67.277443769646297 $189 $285 forward 7 unknown #
vertex $-1 $252 $286 #
straight-curve $-1 -60.823977859965012 30.251340472696242 2.6345924099864044 0 0 -1 I I #
coedge $-1 $191 $283 $193 $257 forward $186 $-1 #
straight-curve $-1 -60.823977859965012 0 7.2780661137243658 0 1 0 I I #
edge $-1 $287 -67.277443769646297 $195 -60.823977859965012 $193 $288 forward 7 unknown #
point $-1 -60.823977859965012 -30.251340472696242 7.2780661137243658 #
straight-curve $-1 -67.277443769646297 0 3.2603035262212519 0 -1 0 I I #
edge $-1 $287 -7.2780661137243658 $199 -3.2603035262212519 $249 $289 forward 7 unknown #
point $-1 -67.277443769646297 -30.251340472696242 3.2603035262212519 #
edge $-1 $284 -7.2780661137243658 $202 -3.2603035262212519 $201 $290 forward 7 unknown #
point $-1 -67.277443769646297 30.251340472696242 3.2603035262212519 #
coedge $-1 $217 $216 $209 $265 forward $206 $-1 #
edge $-1 $266 58.942412640963994 $269 65.477068968881056 $264 $291 forward 7 unknown #
vertex $-1 $221 $292 #
straight-curve $-1 28.565598978619576 48.372279408900539 7.2780661137243641 0 1 0 I I #
edge $-1 $269 -19.991692688875837 $218 2.8438801093883583 $217 $293 forward 7 unknown #
vertex $-1 $268 $294 #
straight-curve $-1 28.565598978619576 -7.8242297411371311 47.762824440515601 0 -0.62932038083071107 0.77714596973225614 I I #
point $-1 28.565598978619576 24.959680258207335 7.2780661137243641 #
point $-1 5.7300261803553809 30.251340472696242 0.74340978580730166 #
straight-curve $-1 0 30.251340472696242 7.2780661137243658 -1 0 0 I I #
vertex $-1 $224 $295 #
point $-1 13.25447555128801 25.034551073512421 1.9288162211349027 #
vertex $-1 $228 $296 #
point $-1 23.041149607686947 25.034551073512421 1.9288162211349027 #
straight-curve $-1 -67.277443769646297 30.251340472696242 0 0 0 -1 I I #
point $-1 -67.277443769646297 -30.251340472696242 -7.2780661137243658 #
straight-curve $-1 -67.277443769646297 0 -7.2780661137243658 0 1 0 I I #
point $-1 -67.277443769646297 30.251340472696242 -7.2780661137243658 #
coedge $-1 $250 $249 $283 $297 reversed $120 $-1 #
coedge $-1 $255 $251 $282 $297 forward $186 $-1 #
vertex $-1 $252 $298 #
straight-curve $-1 0 30.251340472696242 7.2780661137243658 -1 0 0 I I #
point $-1 -60.823977859965012 30.251340472696242 7.2780661137243658 #
vertex $-1 $297 $299 #
straight-curve $-1 0 -30.251340472696242 7.2780661137243658 1 0 0 I I #
straight-curve $-1 -67.277443769646297 -30.251340472696242 0 0 0 -1 I I #
straight-curve $-1 -67.277443769646297 30.251340472696242 0 0 0 -1 I I #
straight-curve $-1 28.565598978619576 30.251340472696242 66.220478754688358 0 0 -1 I I #
point $-1 28.565598978619576 30.251340472696242 7.2780661137243658 #
straight-curve $-1 8.5739062897437393 30.251340472696242 0.74340978580729811 -1 0 0 I I #
point $-1 28.565598978619576 30.251340472696242 0.74340978580730166 #
point $-1 12.25447555128801 24.257405103780169 1.2994958403041919 #
point $-1 22.041149607686947 24.257405103780169 1.2994958403041919 #
edge $-1 $284 -30.251340472696242 $287 30.251340472696242 $282 $300 forward 7 unknown #
point $-1 -67.277443769646297 30.251340472696242 7.2780661137243658 #
point $-1 -67.277443769646297 -30.251340472696242 7.2780661137243658 #
straight-curve $-1 -67.277443769646297 0 7.2780661137243658 0 -1 0 I I #
End-of-ACIS-data 