500 0 11 0           
7 Unknown 11 ACIS 5.0 NT 24 Fri Mar 26 15:48:12 1999 
-1 9.9999999999999995e-007 1e-010 
body $-1 $11 $-1 $12 #
body $-1 $13 $-1 $14 #
body $-1 $15 $-1 $16 #
body $-1 $17 $-1 $18 #
body $-1 $19 $-1 $20 #
body $-1 $21 $-1 $22 #
body $-1 $23 $-1 $24 #
body $-1 $25 $-1 $26 #
body $-1 $27 $-1 $28 #
body $-1 $29 $-1 $30 #
body $-1 $31 $-1 $32 #
lump $-1 $-1 $33 $0 #
transform $-1 1 0 0 0 1 0 0 0 1 49.875789666432695 26.309490465053944 10.185202108775774 1 rotate no_reflect no_shear #
lump $-1 $-1 $34 $1 #
transform $-1 1 0 0 0 1 0 0 0 1 49.875789666432695 26.309490465053944 10.185202108775774 1 rotate no_reflect no_shear #
lump $-1 $-1 $35 $2 #
transform $-1 1 0 0 0 1 0 0 0 1 49.875789666432695 26.309490465053944 10.185202108775774 1 rotate no_reflect no_shear #
lump $-1 $-1 $36 $3 #
transform $-1 1 0 0 0 1 0 0 0 1 49.875789666432695 26.309490465053944 10.185202108775774 1 rotate no_reflect no_shear #
lump $-1 $-1 $37 $4 #
transform $-1 1 0 0 0 1 0 0 0 1 49.875789666432695 26.309490465053944 10.185202108775774 1 rotate no_reflect no_shear #
lump $-1 $-1 $38 $5 #
transform $-1 1 0 0 0 1 0 0 0 1 49.875789666432695 26.309490465053944 10.185202108775774 1 rotate no_reflect no_shear #
lump $-1 $-1 $39 $6 #
transform $-1 1 0 0 0 1 0 0 0 1 49.875789666432695 26.309490465053944 10.185202108775774 1 rotate no_reflect no_shear #
lump $-1 $-1 $40 $7 #
transform $-1 1 0 0 0 1 0 0 0 1 49.875789666432695 26.309490465053944 10.185202108775774 1 rotate no_reflect no_shear #
lump $-1 $-1 $41 $8 #
transform $-1 1 0 0 0 1 0 0 0 1 49.875789666432695 26.309490465053944 10.185202108775774 1 rotate no_reflect no_shear #
lump $-1 $-1 $42 $9 #
transform $-1 1 0 0 0 1 0 0 0 1 49.875789666432695 26.309490465053944 10.185202108775774 1 rotate no_reflect no_shear #
lump $-1 $-1 $43 $10 #
transform $-1 1 0 0 0 1 0 0 0 1 49.875789666432695 26.309490465053944 10.185202108775774 1 rotate no_reflect no_shear #
shell $-1 $-1 $-1 $44 $-1 $11 #
shell $-1 $-1 $-1 $45 $-1 $13 #
shell $-1 $-1 $-1 $46 $-1 $15 #
shell $-1 $-1 $-1 $47 $-1 $17 #
shell $-1 $-1 $-1 $48 $-1 $19 #
shell $-1 $-1 $-1 $49 $-1 $21 #
shell $-1 $-1 $-1 $50 $-1 $23 #
shell $-1 $-1 $-1 $51 $-1 $25 #
shell $-1 $-1 $-1 $52 $-1 $27 #
shell $-1 $-1 $-1 $53 $-1 $29 #
shell $-1 $-1 $-1 $54 $-1 $31 #
face $-1 $55 $56 $33 $-1 $57 forward single #
face $-1 $58 $59 $34 $-1 $60 reversed single #
face $-1 $61 $62 $35 $-1 $63 reversed single #
face $-1 $64 $65 $36 $-1 $66 reversed single #
face $-1 $67 $68 $37 $-1 $69 forward single #
face $-1 $70 $71 $38 $-1 $72 forward single #
face $-1 $73 $74 $39 $-1 $75 forward single #
face $-1 $76 $77 $40 $-1 $78 reversed single #
face $-1 $79 $80 $41 $-1 $81 forward single #
face $-1 $82 $83 $42 $-1 $84 forward single #
face $-1 $85 $86 $43 $-1 $87 forward single #
face $-1 $88 $89 $33 $-1 $90 reversed single #
loop $-1 $-1 $91 $44 #
plane-surface $-1 0 0 10.185202108775774 0 0 1 1 0 0 forward_v I I I I #
face $-1 $92 $93 $34 $-1 $94 reversed single #
loop $-1 $-1 $95 $45 #
plane-surface $-1 -33.106061256481382 -20.863100741084882 0 1 0 0 0 0 -1 forward_v I I I I #
face $-1 $96 $97 $35 $-1 $98 reversed single #
loop $-1 $-1 $99 $46 #
plane-surface $-1 -31.305723352681262 15.416711017115819 0 0 1 0 0 0 1 forward_v I I I I #
face $-1 $100 $101 $36 $-1 $102 reversed single #
loop $-1 $-1 $103 $47 #
plane-surface $-1 49.875791303205091 15.416711017115816 145.60719315966927 0 -1 0 -0.70710678939079041 0 -0.70710677298230451 forward_v I I I I #
face $-1 $104 $105 $37 $-1 $106 forward single #
loop $-1 $107 $108 $48 #
cone-surface $-1 46.60531784352785 9.5934292234566989 6.9147302306990808 -0.70710678939079041 0 -0.70710677298230451 0.35355338649115226 0 -0.35355339469539521 1 I I 0 1 0.5 forward I I I I #
face $-1 $109 $110 $38 $-1 $111 forward single #
loop $-1 $112 $113 $49 #
cone-surface $-1 46.60531784352785 11.777159896078867 6.9147302306990808 -0.70710678939079041 0 -0.70710677298230451 0.35355338649115226 0 -0.35355339469539521 1 I I 0 1 0.5 forward I I I I #
face $-1 $114 $115 $39 $-1 $116 forward single #
loop $-1 $117 $118 $50 #
cone-surface $-1 46.60531784352785 13.960890568701036 6.9147302306990808 -0.70710678939079041 0 -0.70710677298230451 0.35355338649115226 0 -0.35355339469539521 1 I I 0 1 0.5 forward I I I I #
face $-1 $119 $120 $40 $-1 $121 reversed single #
loop $-1 $-1 $122 $51 #
plane-surface $-1 -130.5765133788056 -15.416711017115819 60.45188602290596 0 1 0 -0.80901700255871778 0 0.5877852410284794 forward_v I I I I #
face $-1 $123 $124 $41 $-1 $125 forward single #
loop $-1 $126 $127 $52 #
cone-surface $-1 -46.124537932836972 -14.183801112965684 5.4848554177558979 0.80901700255871778 0 -0.5877852410284794 0.2938926205142397 0 0.40450850127935889 1 I I 0 1 0.5 forward I I I I #
face $-1 $128 $129 $42 $-1 $130 forward single #
loop $-1 $131 $132 $53 #
cone-surface $-1 -46.124537932836972 -12.334436256740483 5.4848554177558979 0.80901700255871778 0 -0.5877852410284794 0.2938926205142397 0 0.40450850127935889 1 I I 0 1 0.5 forward I I I I #
face $-1 $133 $134 $43 $-1 $135 forward single #
loop $-1 $136 $137 $54 #
cone-surface $-1 -46.124537932836972 -10.485071400515283 5.4848554177558979 0.80901700255871778 0 -0.5877852410284794 0.2938926205142397 0 0.40450850127935889 1 I I 0 1 0.5 forward I I I I #
face $-1 $138 $139 $33 $-1 $140 reversed single #
loop $-1 $-1 $141 $55 #
plane-surface $-1 0 0 -10.185202108775774 0 0 1 1 0 0 forward_v I I I I #
coedge $-1 $142 $143 $144 $145 forward $56 $-1 #
face $-1 $146 $147 $34 $-1 $148 reversed single #
loop $-1 $-1 $149 $58 #
plane-surface $-1 -31.305723352681262 -15.416711017115819 0 0 -1 0 0 0 -1 forward_v I I I I #
coedge $-1 $150 $151 $152 $153 forward $59 $-1 #
face $-1 $154 $155 $35 $-1 $156 reversed single #
loop $-1 $-1 $157 $61 #
plane-surface $-1 -33.106061256481382 20.863100741084882 0 1 0 0 0 0 -1 forward_v I I I I #
coedge $-1 $158 $159 $160 $161 forward $62 $-1 #
face $-1 $162 $163 $36 $-1 $164 reversed single #
loop $-1 $-1 $165 $64 #
plane-surface $-1 -20.659227695518084 11.777159896078867 75.072175797718486 0.70710678939079041 0 0.70710677298230451 0.70710677298230451 0 -0.70710678939079041 forward_v I I I I #
coedge $-1 $166 $167 $168 $169 reversed $65 $-1 #
face $-1 $-1 $170 $37 $-1 $171 forward single #
loop $-1 $172 $173 $67 #
cone-surface $-1 45.982091912633777 9.5934292234566989 6.2915043142670317 -0.70710678939079041 0 -0.70710677298230451 0.17677669324557613 0 -0.1767766973476976 1 I I -0.70710678118654746 0.70710678118654746 0.25 forward I I I I #
loop $-1 $-1 $174 $48 #
coedge $-1 $108 $108 $175 $176 reversed $68 $-1 #
face $-1 $-1 $177 $38 $-1 $178 forward single #
loop $-1 $179 $180 $70 #
cone-surface $-1 45.982091912633777 11.777159896078867 6.2915043142670317 -0.70710678939079041 0 -0.70710677298230451 0.17677669324557613 0 -0.1767766973476976 1 I I -0.70710678118654746 0.70710678118654746 0.25 forward I I I I #
loop $-1 $-1 $181 $49 #
coedge $-1 $113 $113 $182 $183 reversed $71 $-1 #
face $-1 $-1 $184 $39 $-1 $185 forward single #
loop $-1 $186 $187 $73 #
cone-surface $-1 45.982091912633777 13.960890568701036 6.2915043142670317 -0.70710678939079041 0 -0.70710677298230451 0.17677669324557613 0 -0.1767766973476976 1 I I -0.70710678118654746 0.70710678118654746 0.25 forward I I I I #
loop $-1 $-1 $188 $50 #
coedge $-1 $118 $118 $189 $190 reversed $74 $-1 #
face $-1 $191 $192 $40 $-1 $193 reversed single #
loop $-1 $-1 $194 $76 #
plane-surface $-1 -49.875789666432695 -12.334436256740485 1.8193799217661919 -0.80901700255871778 0 0.5877852410284794 0.5877852410284794 0 0.80901700255871778 forward_v I I I I #
coedge $-1 $195 $196 $197 $198 reversed $77 $-1 #
face $-1 $-1 $199 $41 $-1 $200 forward single #
loop $-1 $201 $202 $79 #
cone-surface $-1 -45.210094659917047 -14.183801112965684 4.8204735099836942 0.80901700255871778 0 -0.5877852410284794 0.14694631025711985 0 0.20225425063967944 1 I I -0.70710678118654746 0.70710678118654746 0.25 forward I I I I #
loop $-1 $-1 $203 $52 #
coedge $-1 $127 $127 $204 $205 reversed $80 $-1 #
face $-1 $-1 $206 $42 $-1 $207 forward single #
loop $-1 $208 $209 $82 #
cone-surface $-1 -45.210094659917047 -12.334436256740483 4.8204735099836942 0.80901700255871778 0 -0.5877852410284794 0.14694631025711985 0 0.20225425063967944 1 I I -0.70710678118654746 0.70710678118654746 0.25 forward I I I I #
loop $-1 $-1 $210 $53 #
coedge $-1 $132 $132 $211 $212 reversed $83 $-1 #
face $-1 $-1 $213 $43 $-1 $214 forward single #
loop $-1 $215 $216 $85 #
cone-surface $-1 -45.210094659917047 -10.485071400515283 4.8204735099836942 0.80901700255871778 0 -0.5877852410284794 0.14694631025711985 0 0.20225425063967944 1 I I -0.70710678118654746 0.70710678118654746 0.25 forward I I I I #
loop $-1 $-1 $217 $54 #
coedge $-1 $137 $137 $218 $219 reversed $86 $-1 #
face $-1 $220 $221 $33 $-1 $222 reversed single #
loop $-1 $-1 $223 $88 #
plane-surface $-1 0 -26.309490465053944 0 0 1 0 0 0 1 forward_v I I I I #
coedge $-1 $224 $225 $226 $227 forward $89 $-1 #
coedge $-1 $228 $91 $229 $230 forward $56 $-1 #
coedge $-1 $91 $228 $231 $232 forward $56 $-1 #
coedge $-1 $233 $234 $91 $145 reversed $235 $-1 #
edge $-1 $236 -26.309490465053944 $237 26.309490465053944 $144 $238 forward 7 unknown #
face $-1 $239 $240 $34 $-1 $241 forward single #
loop $-1 $-1 $242 $92 #
plane-surface $-1 -29.505385448881146 -20.863100741084882 0 -1 0 0 0 0 1 forward_v I I I I #
coedge $-1 $243 $244 $245 $246 forward $93 $-1 #
coedge $-1 $247 $95 $248 $249 reversed $59 $-1 #
coedge $-1 $95 $247 $250 $251 reversed $59 $-1 #
coedge $-1 $244 $243 $95 $153 reversed $93 $-1 #
edge $-1 $252 -10.185202108775774 $253 10.185202108775774 $152 $254 forward 7 unknown #
face $-1 $255 $256 $35 $-1 $257 reversed single #
loop $-1 $-1 $258 $96 #
plane-surface $-1 -29.505385448881146 20.863100741084882 0 -1 0 0 0 0 1 forward_v I I I I #
coedge $-1 $259 $260 $261 $262 reversed $97 $-1 #
coedge $-1 $263 $99 $264 $265 reversed $62 $-1 #
coedge $-1 $99 $263 $266 $267 reversed $62 $-1 #
coedge $-1 $260 $259 $99 $161 reversed $97 $-1 #
edge $-1 $268 -10.185202108775774 $269 10.185202108775774 $160 $270 forward 7 unknown #
face $-1 $271 $272 $36 $-1 $273 forward single #
loop $-1 $-1 $274 $100 #
plane-surface $-1 49.875791303205091 8.1376087750419188 145.60719315966927 0 1 0 0.70710678939079041 0 0.70710677298230451 forward_v I I I I #
coedge $-1 $275 $276 $277 $278 reversed $101 $-1 #
coedge $-1 $167 $103 $279 $280 reversed $65 $-1 #
coedge $-1 $103 $166 $275 $281 reversed $65 $-1 #
coedge $-1 $277 $282 $103 $169 forward $272 $-1 #
edge $-1 $283 -24.93789401483015 $284 -19.28984883611318 $168 $285 forward 7 unknown #
loop $-1 $-1 $175 $104 #
plane-surface $-1 -20.659227695518084 11.777159896078867 75.072175797718486 0.70710678939079041 0 0.70710677298230451 0.70710677298230451 0 -0.70710678939079041 forward_v I I I I #
loop $-1 $-1 $286 $67 #
coedge $-1 $173 $173 $174 $287 reversed $105 $-1 #
coedge $-1 $174 $174 $173 $287 forward $107 $-1 #
coedge $-1 $175 $175 $108 $176 forward $170 $-1 #
edge $-1 $288 0 $288 6.2831853071796004 $175 $289 forward 7 unknown #
loop $-1 $-1 $182 $109 #
plane-surface $-1 -20.659227695518084 11.777159896078867 75.072175797718486 0.70710678939079041 0 0.70710677298230451 0.70710677298230451 0 -0.70710678939079041 forward_v I I I I #
loop $-1 $-1 $290 $70 #
coedge $-1 $180 $180 $181 $291 reversed $110 $-1 #
coedge $-1 $181 $181 $180 $291 forward $112 $-1 #
coedge $-1 $182 $182 $113 $183 forward $177 $-1 #
edge $-1 $292 0 $292 6.2831853071796004 $182 $293 forward 7 unknown #
loop $-1 $-1 $189 $114 #
plane-surface $-1 -20.659227695518084 11.777159896078867 75.072175797718486 0.70710678939079041 0 0.70710677298230451 0.70710677298230451 0 -0.70710678939079041 forward_v I I I I #
loop $-1 $-1 $294 $73 #
coedge $-1 $187 $187 $188 $295 reversed $115 $-1 #
coedge $-1 $188 $188 $187 $295 forward $117 $-1 #
coedge $-1 $189 $189 $118 $190 forward $184 $-1 #
edge $-1 $296 0 $296 6.2831853071796004 $189 $297 forward 7 unknown #
face $-1 $298 $299 $40 $-1 $300 reversed single #
loop $-1 $-1 $301 $119 #
plane-surface $-1 -130.5765133788056 -9.2521614963651508 60.45188602290596 0 -1 0 0.80901700255871778 0 -0.5877852410284794 forward_v I I I I #
coedge $-1 $302 $303 $304 $305 reversed $120 $-1 #
coedge $-1 $196 $122 $306 $307 reversed $77 $-1 #
coedge $-1 $122 $195 $302 $308 reversed $77 $-1 #
coedge $-1 $304 $309 $122 $198 forward $310 $-1 #
edge $-1 $311 15.412467022970105 $312 21.490592445601052 $197 $313 forward 7 unknown #
loop $-1 $-1 $204 $123 #
plane-surface $-1 -49.875789666432695 -12.334436256740485 1.8193799217661919 -0.80901700255871778 0 0.5877852410284794 0.5877852410284794 0 0.80901700255871778 forward_v I I I I #
loop $-1 $-1 $314 $79 #
coedge $-1 $202 $202 $203 $315 reversed $124 $-1 #
coedge $-1 $203 $203 $202 $315 forward $126 $-1 #
coedge $-1 $204 $204 $127 $205 forward $199 $-1 #
edge $-1 $316 0 $316 6.2831853071796004 $204 $317 forward 7 unknown #
loop $-1 $-1 $211 $128 #
plane-surface $-1 -49.875789666432695 -12.334436256740485 1.8193799217661919 -0.80901700255871778 0 0.5877852410284794 0.5877852410284794 0 0.80901700255871778 forward_v I I I I #
loop $-1 $-1 $318 $82 #
coedge $-1 $209 $209 $210 $319 reversed $129 $-1 #
coedge $-1 $210 $210 $209 $319 forward $131 $-1 #
coedge $-1 $211 $211 $132 $212 forward $206 $-1 #
edge $-1 $320 0 $320 6.2831853071796004 $211 $321 forward 7 unknown #
loop $-1 $-1 $218 $133 #
plane-surface $-1 -49.875789666432695 -12.334436256740485 1.8193799217661919 -0.80901700255871778 0 0.5877852410284794 0.5877852410284794 0 0.80901700255871778 forward_v I I I I #
loop $-1 $-1 $322 $85 #
coedge $-1 $216 $216 $217 $323 reversed $134 $-1 #
coedge $-1 $217 $217 $216 $323 forward $136 $-1 #
coedge $-1 $218 $218 $137 $219 forward $213 $-1 #
edge $-1 $324 0 $324 6.2831853071796004 $218 $325 forward 7 unknown #
face $-1 $326 $327 $33 $-1 $328 reversed single #
loop $-1 $-1 $329 $138 #
plane-surface $-1 -49.875789666432695 0 0 1 0 0 0 0 -1 forward_v I I I I #
coedge $-1 $330 $231 $331 $332 forward $139 $-1 #
coedge $-1 $333 $141 $330 $334 forward $89 $-1 #
coedge $-1 $141 $333 $335 $336 forward $89 $-1 #
coedge $-1 $234 $233 $141 $227 reversed $235 $-1 #
edge $-1 $337 -26.309490465053944 $338 26.309490465053944 $226 $339 forward 7 unknown #
coedge $-1 $143 $142 $340 $341 forward $56 $-1 #
coedge $-1 $342 $343 $142 $230 reversed $327 $-1 #
edge $-1 $237 -49.875789666432695 $344 49.875789666432695 $229 $345 forward 7 unknown #
coedge $-1 $223 $346 $143 $232 reversed $139 $-1 #
edge $-1 $347 -49.875789666432695 $236 49.875789666432695 $231 $348 forward 7 unknown #
coedge $-1 $226 $144 $346 $349 forward $235 $-1 #
coedge $-1 $144 $226 $342 $350 reversed $235 $-1 #
loop $-1 $-1 $233 $326 #
vertex $-1 $145 $351 #
vertex $-1 $145 $352 #
straight-curve $-1 49.875789666432695 0 10.185202108775774 0 1 0 I I #
face $-1 $353 $354 $34 $-1 $355 reversed single #
loop $-1 $-1 $356 $146 #
plane-surface $-1 0 0 10.185202108775774 0 0 1 1 0 0 forward_v I I I I #
coedge $-1 $357 $358 $359 $360 reversed $147 $-1 #
coedge $-1 $152 $149 $361 $362 reversed $93 $-1 #
coedge $-1 $149 $152 $363 $364 reversed $93 $-1 #
coedge $-1 $358 $357 $149 $246 reversed $147 $-1 #
edge $-1 $365 -10.185202108775774 $366 10.185202108775774 $245 $367 forward 7 unknown #
coedge $-1 $151 $150 $368 $369 reversed $59 $-1 #
coedge $-1 $361 $370 $150 $249 forward $354 $-1 #
edge $-1 $371 -15.877940094511503 $253 -4.9851606465733784 $248 $372 forward 7 unknown #
coedge $-1 $373 $363 $151 $251 forward $240 $-1 #
edge $-1 $252 4.9851606465733784 $374 15.877940094511503 $250 $375 forward 7 unknown #
vertex $-1 $251 $376 #
vertex $-1 $249 $377 #
straight-curve $-1 -33.106061256481382 -15.416711017115819 0 0 0 -1 I I #
face $-1 $378 $379 $35 $-1 $380 forward single #
loop $-1 $-1 $381 $154 #
plane-surface $-1 0 0 -10.185202108775774 0 0 1 1 0 0 forward_v I I I I #
coedge $-1 $382 $383 $263 $384 forward $155 $-1 #
coedge $-1 $160 $157 $385 $386 reversed $97 $-1 #
coedge $-1 $157 $160 $387 $388 reversed $97 $-1 #
coedge $-1 $389 $390 $157 $262 forward $391 $-1 #
edge $-1 $392 -10.185202108775774 $393 10.185202108775774 $261 $394 forward 7 unknown #
coedge $-1 $159 $158 $258 $384 reversed $62 $-1 #
coedge $-1 $385 $381 $158 $265 forward $256 $-1 #
edge $-1 $395 13.852523772540515 $269 17.453199580140751 $264 $396 forward 7 unknown #
coedge $-1 $397 $387 $159 $267 forward $379 $-1 #
edge $-1 $268 -17.453199580140751 $398 -13.852523772540515 $266 $399 forward 7 unknown #
vertex $-1 $267 $400 #
vertex $-1 $265 $401 #
straight-curve $-1 -33.106061256481382 15.416711017115819 0 0 0 -1 I I #
face $-1 $-1 $402 $36 $-1 $403 reversed single #
loop $-1 $-1 $168 $162 #
plane-surface $-1 0 0 10.185202108775774 0 0 1 1 0 0 forward_v I I I I #
coedge $-1 $404 $405 $406 $407 reversed $163 $-1 #
coedge $-1 $408 $165 $167 $281 forward $101 $-1 #
coedge $-1 $165 $408 $404 $409 forward $101 $-1 #
coedge $-1 $406 $168 $165 $278 forward $272 $-1 #
edge $-1 $284 -9.5281310690763821 $410 -2.2490288270024852 $277 $411 forward 7 unknown #
coedge $-1 $412 $413 $166 $280 forward $402 $-1 #
edge $-1 $414 -68.266439780839306 $283 -62.618394471058856 $279 $415 forward 7 unknown #
edge $-1 $284 91.764037147552017 $414 99.751579332865404 $167 $416 forward 7 unknown #
coedge $-1 $168 $406 $412 $417 forward $272 $-1 #
vertex $-1 $169 $418 #
vertex $-1 $169 $419 #
straight-curve $-1 24.937895651602545 15.416711017115816 10.185202108775769 -1 0 0 I I #
coedge $-1 $286 $286 $-1 $420 reversed $172 $-1 #
edge $-1 $421 0 $421 6.2831853071796004 $173 $422 forward 7 unknown #
vertex $-1 $176 $423 #
ellipse-curve $-1 47.05176707707421 9.5934292234566989 7.3611794538855415 0.70710678939079041 0 0.70710677298230451 0.35355338649115226 0 -0.35355339469539521 1 I I #
coedge $-1 $290 $290 $-1 $424 reversed $179 $-1 #
edge $-1 $425 0 $425 6.2831853071796004 $180 $426 forward 7 unknown #
vertex $-1 $183 $427 #
ellipse-curve $-1 47.05176707707421 11.777159896078867 7.3611794538855415 0.70710678939079041 0 0.70710677298230451 0.35355338649115226 0 -0.35355339469539521 1 I I #
coedge $-1 $294 $294 $-1 $428 reversed $186 $-1 #
edge $-1 $429 0 $429 6.2831853071796004 $187 $430 forward 7 unknown #
vertex $-1 $190 $431 #
ellipse-curve $-1 47.05176707707421 13.960890568701036 7.3611794538855415 0.70710678939079041 0 0.70710677298230451 0.35355338649115226 0 -0.35355339469539521 1 I I #
face $-1 $-1 $310 $40 $-1 $432 forward single #
loop $-1 $-1 $433 $191 #
plane-surface $-1 -49.875789666432695 0 0 1 0 0 0 0 -1 forward_v I I I I #
coedge $-1 $434 $435 $436 $437 reversed $192 $-1 #
coedge $-1 $438 $194 $196 $308 forward $120 $-1 #
coedge $-1 $194 $438 $434 $439 forward $120 $-1 #
coedge $-1 $436 $197 $194 $305 forward $310 $-1 #
edge $-1 $312 -9.2494928887455767 $440 -3.0849433679949083 $304 $441 forward 7 unknown #
coedge $-1 $442 $443 $195 $307 forward $299 $-1 #
edge $-1 $444 -28.406563089686788 $311 -20.040740902677207 $306 $445 forward 7 unknown #
edge $-1 $312 -10.340724806216169 $444 0 $196 $446 forward 7 unknown #
coedge $-1 $197 $436 $442 $447 forward $310 $-1 #
loop $-1 $-1 $436 $298 #
vertex $-1 $307 $448 #
vertex $-1 $198 $449 #
straight-curve $-1 -65.2882566894028 -15.416711017115819 10.185202108775776 1 0 0 I I #
coedge $-1 $314 $314 $-1 $450 reversed $201 $-1 #
edge $-1 $451 0 $451 6.2831853071796004 $202 $452 forward 7 unknown #
vertex $-1 $205 $453 #
ellipse-curve $-1 -46.836726955117221 -14.183801112965684 6.0022910152709832 -0.80901700255871778 0 0.5877852410284794 0.2938926205142397 0 0.40450850127935889 1 I I #
coedge $-1 $318 $318 $-1 $454 reversed $208 $-1 #
edge $-1 $455 0 $455 6.2831853071796004 $209 $456 forward 7 unknown #
vertex $-1 $212 $457 #
ellipse-curve $-1 -46.836726955117221 -12.334436256740483 6.0022910152709832 -0.80901700255871778 0 0.5877852410284794 0.2938926205142397 0 0.40450850127935889 1 I I #
coedge $-1 $322 $322 $-1 $458 reversed $215 $-1 #
edge $-1 $459 0 $459 6.2831853071796004 $216 $460 forward 7 unknown #
vertex $-1 $219 $461 #
ellipse-curve $-1 -46.836726955117221 -10.485071400515283 6.0022910152709832 -0.80901700255871778 0 0.5877852410284794 0.2938926205142397 0 0.40450850127935889 1 I I #
face $-1 $-1 $235 $33 $-1 $462 reversed single #
loop $-1 $-1 $342 $220 #
plane-surface $-1 0 26.309490465053944 0 0 -1 0 0 0 -1 forward_v I I I I #
coedge $-1 $463 $340 $343 $464 forward $221 $-1 #
coedge $-1 $346 $223 $224 $334 reversed $139 $-1 #
coedge $-1 $340 $463 $223 $332 reversed $221 $-1 #
edge $-1 $347 -10.185202108775774 $465 10.185202108775774 $331 $466 forward 7 unknown #
coedge $-1 $225 $224 $463 $467 forward $89 $-1 #
edge $-1 $338 -49.875789666432695 $465 49.875789666432695 $330 $468 forward 7 unknown #
coedge $-1 $343 $342 $225 $336 reversed $327 $-1 #
edge $-1 $469 -49.875789666432695 $337 49.875789666432695 $335 $470 forward 7 unknown #
vertex $-1 $227 $471 #
vertex $-1 $349 $472 #
straight-curve $-1 49.875789666432695 0 -10.185202108775774 0 -1 0 I I #
coedge $-1 $329 $331 $228 $341 reversed $221 $-1 #
edge $-1 $344 -26.309490465053944 $347 26.309490465053944 $340 $473 forward 7 unknown #
coedge $-1 $335 $229 $234 $350 forward $327 $-1 #
coedge $-1 $229 $335 $329 $464 reversed $327 $-1 #
vertex $-1 $230 $474 #
straight-curve $-1 0 26.309490465053944 10.185202108775774 -1 0 0 I I #
coedge $-1 $231 $330 $233 $349 reversed $139 $-1 #
vertex $-1 $341 $475 #
straight-curve $-1 0 -26.309490465053944 10.185202108775774 1 0 0 I I #
edge $-1 $236 -10.185202108775774 $338 10.185202108775774 $233 $476 forward 7 unknown #
edge $-1 $237 -10.185202108775774 $337 10.185202108775774 $234 $477 forward 7 unknown #
point $-1 49.875789666432695 -26.309490465053944 10.185202108775774 #
point $-1 49.875789666432695 26.309490465053944 10.185202108775774 #
face $-1 $-1 $478 $34 $-1 $479 reversed single #
loop $-1 $-1 $480 $239 #
plane-surface $-1 0 0 -10.185202108775774 0 0 1 1 0 0 forward_v I I I I #
coedge $-1 $363 $373 $358 $481 forward $240 $-1 #
coedge $-1 $245 $242 $480 $482 reversed $147 $-1 #
coedge $-1 $242 $245 $356 $481 reversed $147 $-1 #
coedge $-1 $483 $484 $242 $360 forward $478 $-1 #
edge $-1 $485 -10.185202108775774 $486 10.185202108775774 $359 $487 forward 7 unknown #
coedge $-1 $480 $248 $243 $362 forward $354 $-1 #
edge $-1 $253 -17.453199580140751 $366 -13.852523772540515 $361 $488 forward 7 unknown #
coedge $-1 $250 $356 $244 $364 forward $240 $-1 #
edge $-1 $365 13.852523772540515 $252 17.453199580140751 $363 $489 forward 7 unknown #
vertex $-1 $364 $490 #
vertex $-1 $362 $491 #
straight-curve $-1 -29.505385448881146 -15.416711017115819 0 0 0 -1 I I #
coedge $-1 $484 $483 $247 $369 forward $478 $-1 #
edge $-1 $374 -10.185202108775774 $371 10.185202108775774 $368 $492 forward 7 unknown #
coedge $-1 $248 $480 $484 $493 forward $354 $-1 #
vertex $-1 $249 $494 #
straight-curve $-1 -33.106061256481382 -10.431550370542441 -10.185202108775774 0 1 0 I I #
coedge $-1 $356 $250 $483 $495 forward $240 $-1 #
vertex $-1 $495 $496 #
straight-curve $-1 -33.106061256481382 -10.431550370542441 10.185202108775774 0 -1 0 I I #
point $-1 -33.106061256481382 -15.416711017115819 10.185202108775774 #
point $-1 -33.106061256481382 -15.416711017115819 -10.185202108775774 #
face $-1 $-1 $391 $35 $-1 $497 reversed single #
loop $-1 $-1 $397 $255 #
plane-surface $-1 0 0 10.185202108775774 0 0 1 1 0 0 forward_v I I I I #
coedge $-1 $264 $498 $382 $499 forward $256 $-1 #
coedge $-1 $500 $258 $381 $499 reversed $155 $-1 #
coedge $-1 $258 $500 $397 $501 reversed $155 $-1 #
edge $-1 $398 -10.185202108775774 $395 10.185202108775774 $258 $502 forward 7 unknown #
coedge $-1 $498 $264 $259 $386 forward $256 $-1 #
edge $-1 $269 4.9851606465733784 $392 15.877940094511503 $385 $503 forward 7 unknown #
coedge $-1 $266 $504 $260 $388 forward $379 $-1 #
edge $-1 $393 -15.877940094511503 $268 -4.9851606465733784 $387 $505 forward 7 unknown #
coedge $-1 $506 $261 $504 $507 reversed $391 $-1 #
coedge $-1 $261 $506 $498 $508 reversed $391 $-1 #
loop $-1 $-1 $506 $378 #
vertex $-1 $508 $509 #
vertex $-1 $262 $510 #
straight-curve $-1 -33.106061256481382 26.309490465053944 0 0 0 1 I I #
vertex $-1 $265 $511 #
straight-curve $-1 -15.652861676340631 15.416711017115819 -10.185202108775774 -1 0 0 I I #
coedge $-1 $504 $266 $383 $501 forward $379 $-1 #
vertex $-1 $267 $512 #
straight-curve $-1 -15.652861676340631 15.416711017115819 10.185202108775774 1 0 0 I I #
point $-1 -33.106061256481382 15.416711017115819 10.185202108775774 #
point $-1 -33.106061256481382 15.416711017115819 -10.185202108775774 #
loop $-1 $-1 $279 $271 #
plane-surface $-1 49.875789666432695 0 0 -1 0 0 0 0 1 forward_v I I I I #
coedge $-1 $405 $274 $276 $409 reversed $163 $-1 #
coedge $-1 $274 $404 $513 $514 reversed $163 $-1 #
coedge $-1 $282 $277 $274 $407 forward $272 $-1 #
edge $-1 $410 19.28984883611318 $515 24.93789401483015 $406 $516 forward 7 unknown #
coedge $-1 $276 $275 $413 $517 reversed $101 $-1 #
edge $-1 $518 -99.751579332865404 $410 -91.764037147552017 $404 $519 forward 7 unknown #
vertex $-1 $278 $520 #
straight-curve $-1 44.227744487715725 5.8885799480394336 10.185202108775776 0 -1 0 I I #
coedge $-1 $513 $279 $282 $417 reversed $402 $-1 #
coedge $-1 $279 $513 $408 $517 forward $402 $-1 #
vertex $-1 $280 $521 #
straight-curve $-1 49.875789666432695 15.416711017115816 72.803596579834633 0 0 1 I I #
straight-curve $-1 -20.659227695518084 15.416711017115816 75.072175797718486 0.70710677298230451 0 -0.70710678939079041 I I #
edge $-1 $515 8.1376087750419188 $283 15.416711017115816 $412 $522 forward 7 unknown #
point $-1 49.875789666432695 15.416711017115816 10.185202108775774 #
point $-1 44.227744487715725 15.416711017115816 10.185202108775769 #
edge $-1 $523 1 $523 0 $286 $-1 forward 7 unknown #
vertex $-1 $287 $524 #
ellipse-curve $-1 46.158868609981475 9.5934292234566989 6.4682810075126076 0.70710678939079041 0 0.70710677298230451 0.35355338649115226 0 -0.35355339469539521 1 I I #
point $-1 47.405320463565374 9.5934292234566989 7.0076260591901587 #
edge $-1 $525 1 $525 0 $290 $-1 forward 7 unknown #
vertex $-1 $291 $526 #
ellipse-curve $-1 46.158868609981475 11.777159896078867 6.4682810075126076 0.70710678939079041 0 0.70710677298230451 0.35355338649115226 0 -0.35355339469539521 1 I I #
point $-1 47.405320463565374 11.777159896078867 7.0076260591901587 #
edge $-1 $527 1 $527 0 $294 $-1 forward 7 unknown #
vertex $-1 $295 $528 #
ellipse-curve $-1 46.158868609981475 13.960890568701036 6.4682810075126076 0.70710678939079041 0 0.70710677298230451 0.35355338649115226 0 -0.35355339469539521 1 I I #
point $-1 47.405320463565374 13.960890568701036 7.0076260591901587 #
plane-surface $-1 0 0 10.185202108775774 0 0 1 1 0 0 forward_v I I I I #
coedge $-1 $443 $442 $435 $529 forward $299 $-1 #
coedge $-1 $435 $301 $303 $439 reversed $192 $-1 #
coedge $-1 $301 $434 $433 $529 reversed $192 $-1 #
coedge $-1 $309 $304 $301 $437 forward $310 $-1 #
edge $-1 $440 -21.490592445601052 $530 -15.412467022970105 $436 $531 forward 7 unknown #
coedge $-1 $303 $302 $443 $532 reversed $120 $-1 #
edge $-1 $533 0 $440 10.340724806216169 $434 $534 forward 7 unknown #
vertex $-1 $305 $535 #
straight-curve $-1 -43.797664243801755 -6.1672181283702425 10.185202108775774 0 1 0 I I #
coedge $-1 $433 $306 $309 $447 reversed $299 $-1 #
coedge $-1 $306 $433 $438 $532 forward $299 $-1 #
vertex $-1 $307 $536 #
straight-curve $-1 -49.875789666432695 -15.416711017115819 30.22594301145298 0 0 1 I I #
straight-curve $-1 -49.875789666432695 -15.416711017115819 1.8193799217661919 -0.5877852410284794 0 -0.80901700255871778 I I #
edge $-1 $530 9.2521614963651508 $311 15.416711017115819 $442 $537 forward 7 unknown #
point $-1 -49.875789666432695 -15.416711017115819 10.185202108775774 #
point $-1 -43.797664243801748 -15.416711017115819 10.185202108775774 #
edge $-1 $538 1 $538 0 $314 $-1 forward 7 unknown #
vertex $-1 $315 $539 #
ellipse-curve $-1 -45.412348910556723 -14.183801112965684 4.9674198202408144 -0.80901700255871778 0 0.5877852410284794 0.2938926205142397 0 0.40450850127935889 1 I I #
point $-1 -46.542834334602979 -14.183801112965684 6.4067995165503397 #
edge $-1 $540 1 $540 0 $318 $-1 forward 7 unknown #
vertex $-1 $319 $541 #
ellipse-curve $-1 -45.412348910556723 -12.334436256740483 4.9674198202408144 -0.80901700255871778 0 0.5877852410284794 0.2938926205142397 0 0.40450850127935889 1 I I #
point $-1 -46.542834334602979 -12.334436256740483 6.4067995165503397 #
edge $-1 $542 1 $542 0 $322 $-1 forward 7 unknown #
vertex $-1 $323 $543 #
ellipse-curve $-1 -45.412348910556723 -10.485071400515283 4.9674198202408144 -0.80901700255871778 0 0.5877852410284794 0.2938926205142397 0 0.40450850127935889 1 I I #
point $-1 -46.542834334602979 -10.485071400515283 6.4067995165503397 #
plane-surface $-1 49.875789666432695 0 0 -1 0 0 0 0 1 forward_v I I I I #
coedge $-1 $331 $329 $333 $467 reversed $221 $-1 #
edge $-1 $344 -10.185202108775774 $469 10.185202108775774 $343 $544 forward 7 unknown #
vertex $-1 $467 $545 #
straight-curve $-1 -49.875789666432695 -26.309490465053944 0 0 0 -1 I I #
edge $-1 $465 -26.309490465053944 $469 26.309490465053944 $463 $546 forward 7 unknown #
straight-curve $-1 0 -26.309490465053944 -10.185202108775774 -1 0 0 I I #
vertex $-1 $336 $547 #
straight-curve $-1 0 26.309490465053944 -10.185202108775774 1 0 0 I I #
point $-1 49.875789666432695 26.309490465053944 -10.185202108775774 #
point $-1 49.875789666432695 -26.309490465053944 -10.185202108775774 #
straight-curve $-1 -49.875789666432695 0 10.185202108775774 0 -1 0 I I #
point $-1 -49.875789666432695 26.309490465053944 10.185202108775774 #
point $-1 -49.875789666432695 -26.309490465053944 10.185202108775774 #
straight-curve $-1 49.875789666432695 -26.309490465053944 0 0 0 -1 I I #
straight-curve $-1 49.875789666432695 26.309490465053944 0 0 0 -1 I I #
loop $-1 $-1 $359 $353 #
plane-surface $-1 0 -26.309490465053944 0 0 1 0 0 0 1 forward_v I I I I #
coedge $-1 $370 $361 $357 $482 forward $354 $-1 #
edge $-1 $486 -15.877940094511503 $365 -4.9851606465733784 $356 $548 forward 7 unknown #
edge $-1 $366 4.9851606465733784 $485 15.877940094511503 $480 $549 forward 7 unknown #
coedge $-1 $368 $359 $373 $495 reversed $478 $-1 #
coedge $-1 $359 $368 $370 $493 reversed $478 $-1 #
vertex $-1 $493 $550 #
vertex $-1 $360 $551 #
straight-curve $-1 -29.505385448881146 -26.309490465053944 0 0 0 1 I I #
straight-curve $-1 -15.652861676340631 -15.416711017115819 -10.185202108775774 1 0 0 I I #
straight-curve $-1 -15.652861676340631 -15.416711017115819 10.185202108775774 -1 0 0 I I #
point $-1 -29.505385448881146 -15.416711017115819 10.185202108775774 #
point $-1 -29.505385448881146 -15.416711017115819 -10.185202108775774 #
straight-curve $-1 -33.106061256481382 -26.309490465053944 0 0 0 -1 I I #
edge $-1 $485 29.505385448881146 $371 33.106061256481382 $484 $552 forward 7 unknown #
point $-1 -33.106061256481382 -26.309490465053944 -10.185202108775774 #
edge $-1 $374 -33.106061256481382 $486 -29.505385448881146 $483 $553 forward 7 unknown #
point $-1 -33.106061256481382 -26.309490465053944 10.185202108775774 #
plane-surface $-1 0 26.309490465053944 0 0 -1 0 0 0 -1 forward_v I I I I #
coedge $-1 $381 $385 $390 $508 forward $256 $-1 #
edge $-1 $554 -15.877940094511503 $395 -4.9851606465733784 $381 $555 forward 7 unknown #
coedge $-1 $383 $382 $506 $556 reversed $155 $-1 #
edge $-1 $398 4.9851606465733784 $557 15.877940094511503 $397 $558 forward 7 unknown #
straight-curve $-1 -29.505385448881146 15.416711017115819 0 0 0 -1 I I #
straight-curve $-1 -33.106061256481382 10.431550370542441 -10.185202108775774 0 1 0 I I #
coedge $-1 $387 $397 $389 $507 forward $379 $-1 #
straight-curve $-1 -33.106061256481382 10.431550370542441 10.185202108775774 0 -1 0 I I #
coedge $-1 $390 $389 $500 $556 forward $391 $-1 #
edge $-1 $557 29.505385448881146 $393 33.106061256481382 $389 $559 forward 7 unknown #
edge $-1 $392 -33.106061256481382 $554 -29.505385448881146 $390 $560 forward 7 unknown #
point $-1 -33.106061256481382 26.309490465053944 -10.185202108775774 #
point $-1 -33.106061256481382 26.309490465053944 10.185202108775774 #
point $-1 -29.505385448881146 15.416711017115819 -10.185202108775774 #
point $-1 -29.505385448881146 15.416711017115819 10.185202108775774 #
coedge $-1 $413 $412 $405 $514 forward $402 $-1 #
edge $-1 $515 62.618394471058856 $518 68.266439780839306 $513 $561 forward 7 unknown #
vertex $-1 $417 $562 #
straight-curve $-1 24.937895651602545 8.1376087750419188 10.185202108775769 1 0 0 I I #
edge $-1 $518 2.2490288270024852 $414 9.5281310690763821 $413 $563 forward 7 unknown #
vertex $-1 $517 $564 #
straight-curve $-1 -20.659227695518084 8.1376087750419188 75.072175797718486 -0.70710677298230451 0 0.70710678939079041 I I #
point $-1 44.227744487715725 8.1376087750419188 10.185202108775769 #
point $-1 49.875789666432695 15.416711017115816 4.5371567989953263 #
straight-curve $-1 49.875789666432695 0 10.185202108775774 0 1 0 I I #
vertex $-1 $420 $565 #
point $-1 46.512421996472625 9.5934292234566989 6.1147276128172123 #
vertex $-1 $424 $566 #
point $-1 46.512421996472625 11.777159896078867 6.1147276128172123 #
vertex $-1 $428 $567 #
point $-1 46.512421996472625 13.960890568701036 6.1147276128172123 #
edge $-1 $530 20.040740902677207 $533 28.406563089686788 $433 $568 forward 7 unknown #
vertex $-1 $447 $569 #
straight-curve $-1 -65.2882566894028 -9.2521614963651508 10.185202108775776 -1 0 0 I I #
edge $-1 $533 3.0849433679949083 $444 9.2494928887455767 $443 $570 forward 7 unknown #
vertex $-1 $532 $571 #
straight-curve $-1 -49.875789666432695 -9.2521614963651508 1.8193799217661919 0.5877852410284794 0 0.80901700255871778 I I #
point $-1 -43.797664243801748 -9.2521614963651508 10.185202108775774 #
point $-1 -49.875789666432695 -15.416711017115819 1.8193799217661919 #
straight-curve $-1 -49.875789666432695 0 10.185202108775774 0 -1 0 I I #
vertex $-1 $450 $572 #
point $-1 -45.118456290042488 -14.183801112965684 5.3719283215201727 #
vertex $-1 $454 $573 #
point $-1 -45.118456290042488 -12.334436256740483 5.3719283215201727 #
vertex $-1 $458 $574 #
point $-1 -45.118456290042488 -10.485071400515283 5.3719283215201727 #
straight-curve $-1 -49.875789666432695 26.309490465053944 0 0 0 -1 I I #
point $-1 -49.875789666432695 -26.309490465053944 -10.185202108775774 #
straight-curve $-1 -49.875789666432695 0 -10.185202108775774 0 1 0 I I #
point $-1 -49.875789666432695 26.309490465053944 -10.185202108775774 #
straight-curve $-1 -29.505385448881146 -10.431550370542441 10.185202108775774 0 1 0 I I #
straight-curve $-1 -29.505385448881146 -10.431550370542441 -10.185202108775774 0 -1 0 I I #
point $-1 -29.505385448881146 -26.309490465053944 -10.185202108775774 #
point $-1 -29.505385448881146 -26.309490465053944 10.185202108775774 #
straight-curve $-1 0 -26.309490465053944 -10.185202108775774 -1 0 0 I I #
straight-curve $-1 0 -26.309490465053944 10.185202108775774 1 0 0 I I #
vertex $-1 $556 $575 #
straight-curve $-1 -29.505385448881146 10.431550370542441 -10.185202108775774 0 -1 0 I I #
edge $-1 $557 -10.185202108775774 $554 10.185202108775774 $506 $576 forward 7 unknown #
vertex $-1 $507 $577 #
straight-curve $-1 -29.505385448881146 10.431550370542441 10.185202108775774 0 1 0 I I #
straight-curve $-1 0 26.309490465053944 10.185202108775774 -1 0 0 I I #
straight-curve $-1 0 26.309490465053944 -10.185202108775774 1 0 0 I I #
straight-curve $-1 49.875789666432695 8.1376087750419188 72.803596579834633 0 0 -1 I I #
point $-1 49.875789666432695 8.1376087750419188 10.185202108775774 #
straight-curve $-1 49.875789666432695 5.8885799480394336 4.5371567989953263 0 1 0 I I #
point $-1 49.875789666432695 8.1376087750419188 4.5371567989953263 #
point $-1 45.805315215286079 9.5934292234566989 6.1147276210214558 #
point $-1 45.805315215286079 11.777159896078867 6.1147276210214558 #
point $-1 45.805315215286079 13.960890568701036 6.1147276210214558 #
straight-curve $-1 -49.875789666432695 -9.2521614963651508 30.22594301145298 0 0 -1 I I #
point $-1 -49.875789666432695 -9.2521614963651508 10.185202108775774 #
straight-curve $-1 -49.875789666432695 -6.1672181283702425 1.8193799217661959 0 -1 0 I I #
point $-1 -49.875789666432695 -9.2521614963651508 1.8193799217661919 #
point $-1 -45.007840409277371 -14.183801112965684 4.6735271997265739 #
point $-1 -45.007840409277371 -12.334436256740483 4.6735271997265739 #
point $-1 -45.007840409277371 -10.485071400515283 4.6735271997265739 #
point $-1 -29.505385448881146 26.309490465053944 -10.185202108775774 #
straight-curve $-1 -29.505385448881146 26.309490465053944 0 0 0 -1 I I #
point $-1 -29.505385448881146 26.309490465053944 10.185202108775774 #
End-of-ACIS-data 