500 0 10 0           
7 Unknown 11 ACIS 5.0 NT 24 Thu Mar 25 21:31:22 1999 
-1 9.9999999999999995e-007 1e-010 
body $-1 $10 $-1 $11 #
body $-1 $12 $-1 $13 #
body $-1 $14 $-1 $15 #
body $-1 $16 $-1 $17 #
body $-1 $18 $-1 $19 #
body $-1 $20 $-1 $21 #
body $-1 $22 $-1 $23 #
body $-1 $24 $-1 $25 #
body $-1 $26 $-1 $27 #
body $-1 $28 $-1 $29 #
lump $-1 $-1 $30 $0 #
transform $-1 1 0 0 0 1 0 0 0 1 74.844813379314559 43.836762747025702 21.767473849544697 1 rotate no_reflect no_shear #
lump $-1 $-1 $31 $1 #
transform $-1 1 0 0 0 1 0 0 0 1 74.844813379314559 43.836762747025702 21.767473849544697 1 rotate no_reflect no_shear #
lump $-1 $-1 $32 $2 #
transform $-1 1 0 0 0 1 0 0 0 1 74.844813379314559 43.836762747025702 21.767473849544697 1 rotate no_reflect no_shear #
lump $-1 $-1 $33 $3 #
transform $-1 1 0 0 0 1 0 0 0 1 74.844813379314559 43.836762747025702 21.767473849544697 1 rotate no_reflect no_shear #
lump $-1 $-1 $34 $4 #
transform $-1 1 0 0 0 1 0 0 0 1 74.844813379314559 43.836762747025702 21.767473849544697 1 rotate no_reflect no_shear #
lump $-1 $-1 $35 $5 #
transform $-1 1 0 0 0 1 0 0 0 1 74.844813379314559 43.836762747025702 21.767473849544697 1 rotate no_reflect no_shear #
lump $-1 $-1 $36 $6 #
transform $-1 1 0 0 0 1 0 0 0 1 74.844813379314559 43.836762747025702 21.767473849544697 1 rotate no_reflect no_shear #
lump $-1 $-1 $37 $7 #
transform $-1 1 0 0 0 1 0 0 0 1 74.844813379314559 43.836762747025702 21.767473849544697 1 rotate no_reflect no_shear #
lump $-1 $-1 $38 $8 #
transform $-1 1 0 0 0 1 0 0 0 1 74.844813379314559 43.836762747025702 21.767473849544697 1 rotate no_reflect no_shear #
lump $-1 $-1 $39 $9 #
transform $-1 1 0 0 0 1 0 0 0 1 74.844813379314559 43.836762747025702 21.767473849544697 1 rotate no_reflect no_shear #
shell $-1 $-1 $-1 $40 $-1 $10 #
shell $-1 $-1 $-1 $41 $-1 $12 #
shell $-1 $-1 $-1 $42 $-1 $14 #
shell $-1 $-1 $-1 $43 $-1 $16 #
shell $-1 $-1 $-1 $44 $-1 $18 #
shell $-1 $-1 $-1 $45 $-1 $20 #
shell $-1 $-1 $-1 $46 $-1 $22 #
shell $-1 $-1 $-1 $47 $-1 $24 #
shell $-1 $-1 $-1 $48 $-1 $26 #
shell $-1 $-1 $-1 $49 $-1 $28 #
face $-1 $50 $51 $30 $-1 $52 forward single #
face $-1 $53 $54 $31 $-1 $55 forward single #
face $-1 $56 $57 $32 $-1 $58 forward single #
face $-1 $59 $60 $33 $-1 $61 reversed single #
face $-1 $62 $63 $34 $-1 $64 forward single #
face $-1 $65 $66 $35 $-1 $67 forward single #
face $-1 $68 $69 $36 $-1 $70 reversed single #
face $-1 $71 $72 $37 $-1 $73 forward single #
face $-1 $74 $75 $38 $-1 $76 forward single #
face $-1 $77 $78 $39 $-1 $79 forward single #
face $-1 $80 $81 $30 $-1 $82 reversed single #
loop $-1 $-1 $83 $40 #
plane-surface $-1 0 0 21.767473849544697 0 0 1 1 0 0 forward_v I I I I #
face $-1 $84 $85 $31 $-1 $86 reversed single #
loop $-1 $-1 $87 $41 #
plane-surface $-1 -74.844813379314559 0 0 1 0 0 0 0 -1 forward_v I I I I #
face $-1 $88 $89 $32 $-1 $90 reversed single #
loop $-1 $-1 $91 $42 #
plane-surface $-1 74.844813379314559 0 0 -1 0 0 0 0 1 forward_v I I I I #
face $-1 $92 $93 $33 $-1 $94 reversed single #
loop $-1 $-1 $95 $43 #
plane-surface $-1 -38.41608277967471 -135.99490035389931 134.40714047659898 -1 0 0 0 -0.61566148304635926 0.78801074757464917 forward_v I I I I #
face $-1 $96 $97 $34 $-1 $98 forward single #
loop $-1 $99 $100 $44 #
cone-surface $-1 -46.379240491972503 -39.964878902096316 18.508595074327665 0 0.61566148304635926 -0.78801074757464917 0.5 0 0 1 I I 0 1 0.5 forward I I I I #
face $-1 $101 $102 $35 $-1 $103 forward single #
loop $-1 $104 $105 $45 #
cone-surface $-1 -41.601345864593824 -39.964878902096316 18.508595074327665 0 0.61566148304635926 -0.78801074757464917 0.5 0 0 1 I I 0 1 0.5 forward I I I I #
face $-1 $106 $107 $36 $-1 $108 reversed single #
loop $-1 $-1 $109 $46 #
plane-surface $-1 20.724962333640811 42.754077150959347 182.17823596018403 1 0 0 0 -0.50000000669873634 -0.8660253999169214 forward_v I I I I #
face $-1 $110 $111 $37 $-1 $112 forward single #
loop $-1 $113 $114 $47 #
cone-surface $-1 25.451824985623006 30.755666761723543 12.171370789853093 0 -0.50000000669873634 -0.8660253999169214 2 0 0 1 I I 0 1 2 forward I I I I #
face $-1 $115 $116 $38 $-1 $117 forward single #
loop $-1 $118 $119 $48 #
cone-surface $-1 32.54211896359628 30.755666761723543 12.171370789853093 0 -0.50000000669873634 -0.8660253999169214 2 0 0 1 I I 0 1 2 forward I I I I #
face $-1 $120 $121 $39 $-1 $122 forward single #
loop $-1 $123 $124 $49 #
cone-surface $-1 39.632412941569555 30.755666761723543 12.171370789853093 0 -0.50000000669873634 -0.8660253999169214 2 0 0 1 I I 0 1 2 forward I I I I #
face $-1 $125 $126 $30 $-1 $127 reversed single #
loop $-1 $-1 $128 $50 #
plane-surface $-1 0 0 -21.767473849544697 0 0 1 1 0 0 forward_v I I I I #
coedge $-1 $129 $130 $131 $132 forward $51 $-1 #
face $-1 $133 $134 $31 $-1 $135 forward single #
loop $-1 $-1 $136 $53 #
plane-surface $-1 0 43.836762747025702 0 0 -1 0 0 0 -1 forward_v I I I I #
coedge $-1 $137 $138 $139 $140 forward $54 $-1 #
face $-1 $141 $142 $32 $-1 $143 forward single #
loop $-1 $-1 $144 $56 #
plane-surface $-1 0 -43.836762747025702 0 0 1 0 0 0 1 forward_v I I I I #
coedge $-1 $145 $146 $147 $148 forward $57 $-1 #
face $-1 $149 $150 $33 $-1 $151 reversed single #
loop $-1 $-1 $152 $59 #
plane-surface $-1 -43.990293178283167 -43.83676274702573 16.450105790361448 0 -0.61566148304635926 0.78801074757464917 1 0 0 forward_v I I I I #
coedge $-1 $153 $154 $155 $156 reversed $60 $-1 #
face $-1 $-1 $157 $34 $-1 $158 forward single #
loop $-1 $159 $160 $62 #
cone-surface $-1 -46.379240491972503 -39.34203999400269 17.711397641808606 0 0.61566148304635926 -0.78801074757464917 0.25 0 0 1 I I -0.70710678118654746 0.70710678118654746 0.25 forward I I I I #
loop $-1 $-1 $161 $44 #
coedge $-1 $100 $100 $162 $163 reversed $63 $-1 #
face $-1 $-1 $164 $35 $-1 $165 forward single #
loop $-1 $166 $167 $65 #
cone-surface $-1 -41.601345864593824 -39.34203999400269 17.711397641808606 0 0.61566148304635926 -0.78801074757464917 0.25 0 0 1 I I -0.70710678118654746 0.70710678118654746 0.25 forward I I I I #
loop $-1 $-1 $168 $45 #
coedge $-1 $105 $105 $169 $170 reversed $66 $-1 #
face $-1 $171 $172 $36 $-1 $173 reversed single #
loop $-1 $-1 $174 $68 #
plane-surface $-1 32.542118963596266 -32.09073723108655 52.543217083127558 0 0.50000000669873634 0.8660253999169214 1 0 0 forward_v I I I I #
coedge $-1 $175 $176 $177 $178 reversed $69 $-1 #
face $-1 $-1 $179 $37 $-1 $180 forward single #
loop $-1 $181 $182 $71 #
cone-surface $-1 25.451824985623006 28.485745774251882 8.2397523806169275 0 -0.50000000669873634 -0.8660253999169214 1 0 0 1 I I -0.70710678118654746 0.70710678118654746 1 forward I I I I #
loop $-1 $-1 $183 $47 #
coedge $-1 $114 $114 $184 $185 reversed $72 $-1 #
face $-1 $-1 $186 $38 $-1 $187 forward single #
loop $-1 $188 $189 $74 #
cone-surface $-1 32.54211896359628 28.485745774251882 8.2397523806169275 0 -0.50000000669873634 -0.8660253999169214 1 0 0 1 I I -0.70710678118654746 0.70710678118654746 1 forward I I I I #
loop $-1 $-1 $190 $48 #
coedge $-1 $119 $119 $191 $192 reversed $75 $-1 #
face $-1 $-1 $193 $39 $-1 $194 forward single #
loop $-1 $195 $196 $77 #
cone-surface $-1 39.632412941569555 28.485745774251882 8.2397523806169275 0 -0.50000000669873634 -0.8660253999169214 1 0 0 1 I I -0.70710678118654746 0.70710678118654746 1 forward I I I I #
loop $-1 $-1 $197 $49 #
coedge $-1 $124 $124 $198 $199 reversed $78 $-1 #
face $-1 $200 $201 $30 $-1 $202 reversed single #
loop $-1 $-1 $203 $80 #
plane-surface $-1 0 -43.836762747025702 0 0 1 0 0 0 1 forward_v I I I I #
coedge $-1 $204 $205 $206 $207 forward $81 $-1 #
coedge $-1 $208 $83 $209 $210 forward $51 $-1 #
coedge $-1 $83 $208 $211 $212 forward $51 $-1 #
coedge $-1 $213 $214 $83 $132 reversed $215 $-1 #
edge $-1 $216 -43.836762747025702 $217 43.836762747025702 $131 $218 forward 7 unknown #
face $-1 $219 $220 $31 $-1 $221 reversed single #
loop $-1 $-1 $139 $84 #
plane-surface $-1 -87.484968280526033 0 21.2674738495447 0 0 1 1 0 0 forward_v I I I I #
coedge $-1 $222 $223 $138 $224 forward $85 $-1 #
coedge $-1 $225 $87 $226 $227 reversed $54 $-1 #
coedge $-1 $87 $225 $136 $224 reversed $54 $-1 #
coedge $-1 $228 $229 $87 $140 reversed $134 $-1 #
edge $-1 $230 -43.836762747025702 $231 43.836762747025702 $139 $232 forward 7 unknown #
face $-1 $233 $234 $32 $-1 $235 reversed single #
loop $-1 $-1 $236 $88 #
plane-surface $-1 87.484968280526033 0 21.2674738495447 0 0 1 1 0 0 forward_v I I I I #
coedge $-1 $237 $238 $146 $239 forward $89 $-1 #
coedge $-1 $240 $91 $241 $242 reversed $57 $-1 #
coedge $-1 $91 $240 $144 $239 reversed $57 $-1 #
coedge $-1 $243 $244 $91 $148 reversed $142 $-1 #
edge $-1 $245 -43.836762747025702 $246 43.836762747025702 $147 $247 forward 7 unknown #
face $-1 $248 $249 $33 $-1 $250 forward single #
loop $-1 $-1 $251 $92 #
plane-surface $-1 -49.564503576891624 -135.99490035389931 134.40714047659898 1 0 0 0 0.61566148304635926 -0.78801074757464917 forward_v I I I I #
coedge $-1 $252 $253 $254 $255 reversed $93 $-1 #
coedge $-1 $154 $95 $256 $257 reversed $60 $-1 #
coedge $-1 $95 $153 $252 $258 reversed $60 $-1 #
coedge $-1 $254 $259 $95 $156 forward $249 $-1 #
edge $-1 $260 24.160687429923954 $261 30.966608045118619 $155 $262 forward 7 unknown #
loop $-1 $-1 $162 $96 #
plane-surface $-1 -43.990293178283167 -43.83676274702573 16.450105790361448 0 -0.61566148304635926 0.78801074757464917 1 0 0 forward_v I I I I #
loop $-1 $-1 $263 $62 #
coedge $-1 $160 $160 $161 $264 reversed $97 $-1 #
coedge $-1 $161 $161 $160 $264 forward $99 $-1 #
coedge $-1 $162 $162 $100 $163 forward $157 $-1 #
edge $-1 $265 7.3476910754503401e-015 $265 6.2831853071796075 $162 $266 forward 7 unknown #
loop $-1 $-1 $169 $101 #
plane-surface $-1 -43.990293178283167 -43.83676274702573 16.450105790361448 0 -0.61566148304635926 0.78801074757464917 1 0 0 forward_v I I I I #
loop $-1 $-1 $267 $65 #
coedge $-1 $167 $167 $168 $268 reversed $102 $-1 #
coedge $-1 $168 $168 $167 $268 forward $104 $-1 #
coedge $-1 $169 $169 $105 $170 forward $164 $-1 #
edge $-1 $269 7.3476910754503401e-015 $269 6.2831853071796075 $169 $270 forward 7 unknown #
face $-1 $271 $272 $36 $-1 $273 reversed single #
loop $-1 $-1 $274 $106 #
plane-surface $-1 44.359275593551722 42.754077150959347 182.17823596018403 -1 0 0 0 0.50000000669873634 0.8660253999169214 forward_v I I I I #
coedge $-1 $275 $276 $277 $278 reversed $107 $-1 #
coedge $-1 $176 $109 $279 $280 reversed $69 $-1 #
coedge $-1 $109 $175 $275 $281 reversed $69 $-1 #
coedge $-1 $277 $282 $109 $178 forward $283 $-1 #
edge $-1 $284 -22.459724171546029 $285 0.16262583751234416 $177 $286 forward 7 unknown #
loop $-1 $-1 $184 $110 #
plane-surface $-1 32.542118963596266 -32.09073723108655 52.543217083127558 0 0.50000000669873634 0.8660253999169214 1 0 0 forward_v I I I I #
loop $-1 $-1 $287 $71 #
coedge $-1 $182 $182 $183 $288 reversed $111 $-1 #
coedge $-1 $183 $183 $182 $288 forward $113 $-1 #
coedge $-1 $184 $184 $114 $185 forward $179 $-1 #
edge $-1 $289 5.3974189417362257e-016 $289 6.2831853071796013 $184 $290 forward 7 unknown #
loop $-1 $-1 $191 $115 #
plane-surface $-1 32.542118963596266 -32.09073723108655 52.543217083127558 0 0.50000000669873634 0.8660253999169214 1 0 0 forward_v I I I I #
loop $-1 $-1 $291 $74 #
coedge $-1 $189 $189 $190 $292 reversed $116 $-1 #
coedge $-1 $190 $190 $189 $292 forward $118 $-1 #
coedge $-1 $191 $191 $119 $192 forward $186 $-1 #
edge $-1 $293 5.3974189417362257e-016 $293 6.2831853071796013 $191 $294 forward 7 unknown #
loop $-1 $-1 $198 $120 #
plane-surface $-1 32.542118963596266 -32.09073723108655 52.543217083127558 0 0.50000000669873634 0.8660253999169214 1 0 0 forward_v I I I I #
loop $-1 $-1 $295 $77 #
coedge $-1 $196 $196 $197 $296 reversed $121 $-1 #
coedge $-1 $197 $197 $196 $296 forward $123 $-1 #
coedge $-1 $198 $198 $124 $199 forward $193 $-1 #
edge $-1 $297 5.3974189417362257e-016 $297 6.2831853071796013 $198 $298 forward 7 unknown #
face $-1 $299 $300 $30 $-1 $301 reversed single #
loop $-1 $-1 $302 $125 #
plane-surface $-1 -74.844813379314559 0 0 1 0 0 0 0 -1 forward_v I I I I #
coedge $-1 $303 $211 $304 $305 forward $126 $-1 #
coedge $-1 $306 $128 $303 $307 forward $81 $-1 #
coedge $-1 $128 $306 $308 $309 forward $81 $-1 #
coedge $-1 $214 $213 $128 $207 reversed $215 $-1 #
edge $-1 $310 -43.836762747025702 $311 43.836762747025702 $206 $312 forward 7 unknown #
coedge $-1 $130 $129 $313 $314 forward $51 $-1 #
coedge $-1 $315 $316 $129 $210 reversed $300 $-1 #
edge $-1 $217 -74.844813379314559 $317 74.844813379314559 $209 $318 forward 7 unknown #
coedge $-1 $203 $319 $130 $212 reversed $126 $-1 #
edge $-1 $320 -74.844813379314559 $216 74.844813379314559 $211 $321 forward 7 unknown #
coedge $-1 $206 $131 $319 $322 forward $215 $-1 #
coedge $-1 $131 $206 $315 $323 reversed $215 $-1 #
loop $-1 $-1 $213 $299 #
vertex $-1 $132 $324 #
vertex $-1 $132 $325 #
straight-curve $-1 74.844813379314559 0 21.767473849544697 0 1 0 I I #
face $-1 $326 $327 $31 $-1 $328 reversed single #
loop $-1 $-1 $329 $133 #
plane-surface $-1 -87.484968280526033 0 9.375113750671467 0 0 1 1 0 0 forward_v I I I I #
coedge $-1 $330 $136 $331 $332 reversed $85 $-1 #
coedge $-1 $136 $330 $228 $333 reversed $85 $-1 #
edge $-1 $230 -21.2674738495447 $334 -9.375113750671467 $136 $335 forward 7 unknown #
coedge $-1 $138 $137 $329 $336 forward $54 $-1 #
coedge $-1 $337 $338 $137 $227 forward $339 $-1 #
edge $-1 $340 9.375113750671467 $231 21.2674738495447 $226 $341 forward 7 unknown #
coedge $-1 $342 $139 $223 $333 forward $134 $-1 #
coedge $-1 $139 $342 $337 $343 forward $134 $-1 #
vertex $-1 $224 $344 #
vertex $-1 $343 $345 #
straight-curve $-1 -74.844813379314559 0 21.2674738495447 0 -1 0 I I #
face $-1 $346 $347 $32 $-1 $348 reversed single #
loop $-1 $-1 $349 $141 #
plane-surface $-1 87.484968280526033 0 9.375113750671467 0 0 1 1 0 0 forward_v I I I I #
coedge $-1 $244 $243 $350 $351 forward $142 $-1 #
coedge $-1 $352 $144 $353 $354 reversed $89 $-1 #
coedge $-1 $144 $352 $243 $355 reversed $89 $-1 #
edge $-1 $245 -21.2674738495447 $356 -9.375113750671467 $144 $357 forward 7 unknown #
coedge $-1 $146 $145 $358 $359 forward $57 $-1 #
coedge $-1 $360 $361 $145 $242 forward $362 $-1 #
edge $-1 $363 9.375113750671467 $246 21.2674738495447 $241 $364 forward 7 unknown #
coedge $-1 $236 $147 $238 $355 forward $142 $-1 #
coedge $-1 $147 $236 $360 $365 forward $142 $-1 #
vertex $-1 $239 $366 #
vertex $-1 $365 $367 #
straight-curve $-1 74.844813379314559 0 21.2674738495447 0 1 0 I I #
face $-1 $-1 $368 $33 $-1 $369 reversed single #
loop $-1 $-1 $155 $149 #
plane-surface $-1 0 0 21.767473849544697 0 0 1 1 0 0 forward_v I I I I #
coedge $-1 $370 $371 $372 $373 reversed $150 $-1 #
coedge $-1 $374 $152 $154 $258 forward $93 $-1 #
coedge $-1 $152 $374 $370 $375 forward $93 $-1 #
coedge $-1 $372 $155 $152 $255 forward $249 $-1 #
edge $-1 $261 16.420936190533126 $376 27.569356987750041 $254 $377 forward 7 unknown #
coedge $-1 $378 $379 $153 $257 forward $368 $-1 #
edge $-1 $380 -50.753464447938022 $260 -45.436096388754791 $256 $381 forward 7 unknown #
edge $-1 $261 -8.6368372971333862 $380 -3.5520226329578538e-014 $154 $382 forward 7 unknown #
coedge $-1 $155 $372 $378 $383 forward $249 $-1 #
vertex $-1 $257 $384 #
vertex $-1 $156 $385 #
straight-curve $-1 -38.41608277967471 -67.997450176949656 21.7674738495447 0 1 0 I I #
coedge $-1 $263 $263 $-1 $386 reversed $159 $-1 #
edge $-1 $387 0 $387 6.2831853071796004 $160 $388 forward 7 unknown #
vertex $-1 $163 $389 #
ellipse-curve $-1 -46.379240491972503 -40.433802439428369 19.108789819953085 0 -0.61566148304635926 0.78801074757464917 0.5 0 0 1 I I #
coedge $-1 $267 $267 $-1 $390 reversed $166 $-1 #
edge $-1 $391 0 $391 6.2831853071796004 $167 $392 forward 7 unknown #
vertex $-1 $170 $393 #
ellipse-curve $-1 -41.601345864593824 -40.433802439428369 19.108789819953085 0 -0.61566148304635926 0.78801074757464917 0.5 0 0 1 I I #
face $-1 $-1 $283 $36 $-1 $394 forward single #
loop $-1 $-1 $395 $171 #
plane-surface $-1 0 43.836762747025702 0 0 -1 0 0 0 -1 forward_v I I I I #
coedge $-1 $396 $397 $398 $399 reversed $172 $-1 #
coedge $-1 $400 $174 $176 $281 forward $107 $-1 #
coedge $-1 $174 $400 $396 $401 forward $107 $-1 #
coedge $-1 $398 $177 $174 $278 forward $283 $-1 #
edge $-1 $285 4.4539028518426775 $402 28.088216111753589 $277 $403 forward 7 unknown #
coedge $-1 $404 $405 $175 $280 forward $272 $-1 #
edge $-1 $406 -82.382664231291983 $284 -69.321644130547313 $279 $407 forward 7 unknown #
edge $-1 $285 61.551485642531375 $406 87.67352549405139 $176 $408 forward 7 unknown #
coedge $-1 $177 $398 $404 $409 forward $283 $-1 #
loop $-1 $-1 $398 $271 #
vertex $-1 $280 $410 #
vertex $-1 $178 $411 #
straight-curve $-1 20.724962333640811 21.377038575479673 21.7674738495447 0 -1 0 I I #
coedge $-1 $287 $287 $-1 $412 reversed $181 $-1 #
edge $-1 $413 0 $413 6.2831853071796004 $182 $414 forward 7 unknown #
vertex $-1 $185 $415 #
ellipse-curve $-1 25.451824985623006 32.525587742496491 15.236963799172379 0 0.50000000669873634 0.8660253999169214 2 0 0 1 I I #
coedge $-1 $291 $291 $-1 $416 reversed $188 $-1 #
edge $-1 $417 0 $417 6.2831853071796004 $189 $418 forward 7 unknown #
vertex $-1 $192 $419 #
ellipse-curve $-1 32.54211896359628 32.525587742496491 15.236963799172379 0 0.50000000669873634 0.8660253999169214 2 0 0 1 I I #
coedge $-1 $295 $295 $-1 $420 reversed $195 $-1 #
edge $-1 $421 0 $421 6.2831853071796004 $196 $422 forward 7 unknown #
vertex $-1 $199 $423 #
ellipse-curve $-1 39.632412941569555 32.525587742496491 15.236963799172379 0 0.50000000669873634 0.8660253999169214 2 0 0 1 I I #
face $-1 $-1 $215 $30 $-1 $424 reversed single #
loop $-1 $-1 $315 $200 #
plane-surface $-1 0 43.836762747025702 0 0 -1 0 0 0 -1 forward_v I I I I #
coedge $-1 $425 $313 $316 $426 forward $201 $-1 #
coedge $-1 $319 $203 $204 $307 reversed $126 $-1 #
coedge $-1 $313 $425 $203 $305 reversed $201 $-1 #
edge $-1 $320 -21.767473849544697 $427 21.767473849544697 $304 $428 forward 7 unknown #
coedge $-1 $205 $204 $425 $429 forward $81 $-1 #
edge $-1 $311 -74.844813379314559 $427 74.844813379314559 $303 $430 forward 7 unknown #
coedge $-1 $316 $315 $205 $309 reversed $300 $-1 #
edge $-1 $431 -74.844813379314559 $310 74.844813379314559 $308 $432 forward 7 unknown #
vertex $-1 $207 $433 #
vertex $-1 $322 $434 #
straight-curve $-1 74.844813379314559 0 -21.767473849544697 0 -1 0 I I #
coedge $-1 $302 $304 $208 $314 reversed $201 $-1 #
edge $-1 $317 -43.836762747025702 $320 43.836762747025702 $313 $435 forward 7 unknown #
coedge $-1 $308 $209 $214 $323 forward $300 $-1 #
coedge $-1 $209 $308 $302 $426 reversed $300 $-1 #
vertex $-1 $210 $436 #
straight-curve $-1 0 43.836762747025702 21.767473849544697 -1 0 0 I I #
coedge $-1 $211 $303 $213 $322 reversed $126 $-1 #
vertex $-1 $314 $437 #
straight-curve $-1 0 -43.836762747025702 21.767473849544697 1 0 0 I I #
edge $-1 $216 -21.767473849544697 $311 21.767473849544697 $213 $438 forward 7 unknown #
edge $-1 $217 -21.767473849544697 $310 21.767473849544697 $214 $439 forward 7 unknown #
point $-1 74.844813379314559 -43.836762747025702 21.767473849544697 #
point $-1 74.844813379314559 43.836762747025702 21.767473849544697 #
face $-1 $-1 $339 $31 $-1 $440 reversed single #
loop $-1 $-1 $441 $219 #
plane-surface $-1 -100.12512318173751 0 15.321293800108084 1 0 0 0 0 -1 forward_v I I I I #
coedge $-1 $442 $331 $225 $336 reversed $220 $-1 #
coedge $-1 $223 $222 $441 $443 reversed $85 $-1 #
coedge $-1 $329 $444 $222 $332 forward $220 $-1 #
edge $-1 $445 -12.640154901211474 $334 12.640154901211474 $222 $446 forward 7 unknown #
edge $-1 $230 -12.640154901211474 $447 12.640154901211474 $223 $448 forward 7 unknown #
vertex $-1 $224 $449 #
straight-curve $-1 -74.844813379314559 43.836762747025702 0 0 0 -1 I I #
edge $-1 $340 -43.836762747025702 $334 43.836762747025702 $329 $450 forward 7 unknown #
coedge $-1 $451 $226 $229 $343 reversed $339 $-1 #
coedge $-1 $226 $451 $442 $452 reversed $339 $-1 #
loop $-1 $-1 $226 $326 #
vertex $-1 $227 $453 #
straight-curve $-1 -74.844813379314559 -43.836762747025702 0 0 0 1 I I #
coedge $-1 $229 $228 $454 $455 forward $134 $-1 #
edge $-1 $456 -12.640154901211474 $231 12.640154901211474 $337 $457 forward 7 unknown #
point $-1 -74.844813379314559 43.836762747025702 21.2674738495447 #
point $-1 -74.844813379314559 -43.836762747025702 21.2674738495447 #
face $-1 $-1 $362 $32 $-1 $458 reversed single #
loop $-1 $-1 $459 $233 #
plane-surface $-1 100.12512318173751 0 15.321293800108084 -1 0 0 0 0 1 forward_v I I I I #
coedge $-1 $353 $460 $461 $462 forward $234 $-1 #
coedge $-1 $459 $463 $236 $351 reversed $347 $-1 #
edge $-1 $464 -43.836762747025702 $465 43.836762747025702 $350 $466 forward 7 unknown #
coedge $-1 $238 $237 $459 $467 reversed $89 $-1 #
coedge $-1 $358 $349 $237 $354 forward $234 $-1 #
edge $-1 $468 -12.640154901211474 $356 12.640154901211474 $237 $469 forward 7 unknown #
edge $-1 $245 -12.640154901211474 $464 12.640154901211474 $238 $470 forward 7 unknown #
vertex $-1 $239 $471 #
straight-curve $-1 74.844813379314559 -43.836762747025702 0 0 0 -1 I I #
coedge $-1 $460 $353 $240 $359 reversed $234 $-1 #
edge $-1 $363 -43.836762747025702 $356 43.836762747025702 $358 $472 forward 7 unknown #
coedge $-1 $473 $241 $244 $365 reversed $362 $-1 #
coedge $-1 $241 $473 $460 $474 reversed $362 $-1 #
loop $-1 $-1 $241 $346 #
vertex $-1 $242 $475 #
straight-curve $-1 74.844813379314559 43.836762747025702 0 0 0 1 I I #
edge $-1 $465 -12.640154901211474 $246 12.640154901211474 $360 $476 forward 7 unknown #
point $-1 74.844813379314559 -43.836762747025702 21.2674738495447 #
point $-1 74.844813379314559 43.836762747025702 21.2674738495447 #
loop $-1 $-1 $256 $248 #
plane-surface $-1 0 -43.836762747025702 0 0 1 0 0 0 1 forward_v I I I I #
coedge $-1 $371 $251 $253 $375 reversed $150 $-1 #
coedge $-1 $251 $370 $477 $478 reversed $150 $-1 #
coedge $-1 $259 $254 $251 $373 forward $249 $-1 #
edge $-1 $376 -30.966608045118619 $479 -24.160687429923954 $372 $480 forward 7 unknown #
coedge $-1 $253 $252 $379 $481 reversed $93 $-1 #
edge $-1 $482 3.5520226329578538e-014 $376 8.6368372971333862 $370 $483 forward 7 unknown #
vertex $-1 $255 $484 #
straight-curve $-1 -21.995146589141584 -37.030842131831044 21.767473849544697 -1 0 0 I I #
coedge $-1 $477 $256 $259 $383 reversed $368 $-1 #
coedge $-1 $256 $477 $374 $481 forward $368 $-1 #
vertex $-1 $257 $485 #
straight-curve $-1 -38.41608277967471 -43.836762747025702 67.203570238299491 0 0 1 I I #
straight-curve $-1 -38.41608277967471 -43.83676274702573 16.450105790361448 0 -0.78801074757464917 -0.61566148304635926 I I #
edge $-1 $479 -49.564503576891624 $260 -38.41608277967471 $378 $486 forward 7 unknown #
point $-1 -38.41608277967471 -43.836762747025702 21.767473849544697 #
point $-1 -38.41608277967471 -37.030842131831037 21.767473849544697 #
edge $-1 $487 1 $487 0 $263 $-1 forward 7 unknown #
vertex $-1 $264 $488 #
ellipse-curve $-1 -46.379240491972503 -39.495955364764278 17.908400328702268 0 -0.61566148304635926 0.78801074757464917 0.5 0 0 1 I I #
point $-1 -45.879240491972503 -40.433802439428348 19.108789819953063 #
edge $-1 $489 1 $489 0 $267 $-1 forward 7 unknown #
vertex $-1 $268 $490 #
ellipse-curve $-1 -41.601345864593824 -39.495955364764278 17.908400328702268 0 -0.61566148304635926 0.78801074757464917 0.5 0 0 1 I I #
point $-1 -41.101345864593824 -40.433802439428348 19.108789819953063 #
plane-surface $-1 0 0 21.767473849544697 0 0 1 1 0 0 forward_v I I I I #
coedge $-1 $405 $404 $397 $491 forward $272 $-1 #
coedge $-1 $397 $274 $276 $401 reversed $172 $-1 #
coedge $-1 $274 $396 $395 $491 reversed $172 $-1 #
coedge $-1 $282 $277 $274 $399 forward $283 $-1 #
edge $-1 $402 -0.16262583751234416 $492 22.459724171546029 $398 $493 forward 7 unknown #
coedge $-1 $276 $275 $405 $494 reversed $107 $-1 #
edge $-1 $495 -87.67352549405139 $402 -61.551485642531375 $396 $496 forward 7 unknown #
vertex $-1 $278 $497 #
straight-curve $-1 16.271059481798133 21.214412737967329 21.7674738495447 1 0 0 I I #
coedge $-1 $395 $279 $282 $409 reversed $272 $-1 #
coedge $-1 $279 $395 $400 $494 forward $272 $-1 #
vertex $-1 $280 $498 #
straight-curve $-1 20.724962333640811 43.836762747025702 91.089117980092013 0 0 1 I I #
straight-curve $-1 20.724962333640811 -32.09073723108655 52.543217083127558 0 0.8660253999169214 -0.50000000669873634 I I #
edge $-1 $492 -44.359275593551722 $284 -20.724962333640811 $404 $499 forward 7 unknown #
point $-1 20.724962333640811 43.836762747025702 21.767473849544697 #
point $-1 20.724962333640811 21.214412737967329 21.767473849544697 #
edge $-1 $500 1 $500 0 $287 $-1 forward 7 unknown #
vertex $-1 $288 $501 #
ellipse-curve $-1 25.451824985623006 28.985745780950619 9.1057777805338489 0 0.50000000669873634 0.8660253999169214 2 0 0 1 I I #
point $-1 27.451824985623006 32.525587742496469 15.23696379917234 #
edge $-1 $502 1 $502 0 $291 $-1 forward 7 unknown #
vertex $-1 $292 $503 #
ellipse-curve $-1 32.54211896359628 28.985745780950619 9.1057777805338489 0 0.50000000669873634 0.8660253999169214 2 0 0 1 I I #
point $-1 34.54211896359628 32.525587742496469 15.23696379917234 #
edge $-1 $504 1 $504 0 $295 $-1 forward 7 unknown #
vertex $-1 $296 $505 #
ellipse-curve $-1 39.632412941569555 28.985745780950619 9.1057777805338489 0 0.50000000669873634 0.8660253999169214 2 0 0 1 I I #
point $-1 41.632412941569555 32.525587742496469 15.23696379917234 #
plane-surface $-1 74.844813379314559 0 0 -1 0 0 0 0 1 forward_v I I I I #
coedge $-1 $304 $302 $306 $429 reversed $201 $-1 #
edge $-1 $317 -21.767473849544697 $431 21.767473849544697 $316 $506 forward 7 unknown #
vertex $-1 $429 $507 #
straight-curve $-1 -74.844813379314559 -43.836762747025702 0 0 0 -1 I I #
edge $-1 $427 -43.836762747025702 $431 43.836762747025702 $425 $508 forward 7 unknown #
straight-curve $-1 0 -43.836762747025702 -21.767473849544697 -1 0 0 I I #
vertex $-1 $309 $509 #
straight-curve $-1 0 43.836762747025702 -21.767473849544697 1 0 0 I I #
point $-1 74.844813379314559 43.836762747025702 -21.767473849544697 #
point $-1 74.844813379314559 -43.836762747025702 -21.767473849544697 #
straight-curve $-1 -74.844813379314559 0 21.767473849544697 0 -1 0 I I #
point $-1 -74.844813379314559 43.836762747025702 21.767473849544697 #
point $-1 -74.844813379314559 -43.836762747025702 21.767473849544697 #
straight-curve $-1 74.844813379314559 -43.836762747025702 0 0 0 -1 I I #
straight-curve $-1 74.844813379314559 43.836762747025702 0 0 0 -1 I I #
plane-surface $-1 0 -43.836762747025702 0 0 1 0 0 0 1 forward_v I I I I #
coedge $-1 $510 $454 $330 $443 forward $327 $-1 #
coedge $-1 $444 $329 $338 $452 forward $220 $-1 #
edge $-1 $447 -5.9461800494366166 $445 5.9461800494366166 $330 $511 forward 7 unknown #
coedge $-1 $331 $442 $510 $512 forward $220 $-1 #
vertex $-1 $332 $513 #
straight-curve $-1 -87.484968280526033 43.836762747025702 9.375113750671467 1 0 0 I I #
vertex $-1 $333 $514 #
straight-curve $-1 -87.484968280526033 43.836762747025702 21.2674738495447 -1 0 0 I I #
point $-1 -74.844813379314559 43.836762747025702 9.375113750671467 #
straight-curve $-1 -74.844813379314559 0 9.375113750671467 0 1 0 I I #
coedge $-1 $338 $337 $515 $516 forward $339 $-1 #
edge $-1 $340 -12.640154901211474 $517 12.640154901211474 $338 $518 forward 7 unknown #
point $-1 -74.844813379314559 -43.836762747025702 9.375113750671467 #
coedge $-1 $441 $515 $342 $455 reversed $327 $-1 #
edge $-1 $447 -43.836762747025702 $456 43.836762747025702 $454 $519 forward 7 unknown #
vertex $-1 $455 $520 #
straight-curve $-1 -87.484968280526033 -43.836762747025702 21.2674738495447 1 0 0 I I #
plane-surface $-1 0 43.836762747025702 0 0 -1 0 0 0 -1 forward_v I I I I #
coedge $-1 $461 $350 $352 $467 forward $347 $-1 #
coedge $-1 $349 $358 $361 $474 forward $234 $-1 #
coedge $-1 $463 $459 $349 $462 reversed $347 $-1 #
edge $-1 $521 -43.836762747025702 $468 43.836762747025702 $461 $522 forward 7 unknown #
coedge $-1 $350 $461 $473 $523 reversed $347 $-1 #
vertex $-1 $351 $524 #
vertex $-1 $351 $525 #
straight-curve $-1 100.12512318173751 0 21.2674738495447 0 1 0 I I #
edge $-1 $464 -5.9461800494366166 $468 5.9461800494366166 $459 $526 forward 7 unknown #
vertex $-1 $467 $527 #
straight-curve $-1 87.484968280526033 -43.836762747025702 9.375113750671467 -1 0 0 I I #
straight-curve $-1 87.484968280526033 -43.836762747025702 21.2674738495447 1 0 0 I I #
point $-1 74.844813379314559 -43.836762747025702 9.375113750671467 #
straight-curve $-1 74.844813379314559 0 9.375113750671467 0 -1 0 I I #
coedge $-1 $361 $360 $463 $523 forward $362 $-1 #
edge $-1 $363 -12.640154901211474 $521 12.640154901211474 $361 $528 forward 7 unknown #
point $-1 74.844813379314559 43.836762747025702 9.375113750671467 #
straight-curve $-1 87.484968280526033 43.836762747025702 21.2674738495447 -1 0 0 I I #
coedge $-1 $379 $378 $371 $478 forward $368 $-1 #
edge $-1 $479 45.436096388754791 $482 50.753464447938022 $477 $529 forward 7 unknown #
vertex $-1 $383 $530 #
straight-curve $-1 -49.564503576891624 -67.997450176949656 21.7674738495447 0 -1 0 I I #
edge $-1 $482 -27.569356987750041 $380 -16.420936190533126 $379 $531 forward 7 unknown #
vertex $-1 $481 $532 #
straight-curve $-1 -49.564503576891624 -43.83676274702573 16.450105790361448 0 0.78801074757464917 0.61566148304635926 I I #
point $-1 -49.564503576891624 -37.030842131831037 21.767473849544697 #
point $-1 -38.41608277967471 -43.836762747025702 16.450105790361469 #
straight-curve $-1 0 -43.836762747025702 21.767473849544697 1 0 0 I I #
vertex $-1 $386 $533 #
point $-1 -45.879240491972503 -39.495955364764278 17.908400328702268 #
vertex $-1 $390 $534 #
point $-1 -41.101345864593824 -39.495955364764278 17.908400328702268 #
edge $-1 $492 69.321644130547313 $495 82.382664231291983 $395 $535 forward 7 unknown #
vertex $-1 $409 $536 #
straight-curve $-1 44.359275593551722 21.377038575479673 21.7674738495447 0 1 0 I I #
edge $-1 $495 -28.088216111753589 $406 -4.4539028518426775 $405 $537 forward 7 unknown #
vertex $-1 $494 $538 #
straight-curve $-1 44.359275593551722 -32.09073723108655 52.543217083127558 0 -0.8660253999169214 0.50000000669873634 I I #
point $-1 44.359275593551722 21.214412737967329 21.767473849544697 #
point $-1 20.724962333640811 43.836762747025702 8.7064537488000369 #
straight-curve $-1 0 43.836762747025702 21.767473849544697 -1 0 0 I I #
vertex $-1 $412 $539 #
point $-1 27.451824985623006 28.985745780950619 9.1057777805338489 #
vertex $-1 $416 $540 #
point $-1 34.54211896359628 28.985745780950619 9.1057777805338489 #
vertex $-1 $420 $541 #
point $-1 41.632412941569555 28.985745780950619 9.1057777805338489 #
straight-curve $-1 -74.844813379314559 43.836762747025702 0 0 0 -1 I I #
point $-1 -74.844813379314559 -43.836762747025702 -21.767473849544697 #
straight-curve $-1 -74.844813379314559 0 -21.767473849544697 0 1 0 I I #
point $-1 -74.844813379314559 43.836762747025702 -21.767473849544697 #
coedge $-1 $515 $441 $444 $512 reversed $327 $-1 #
straight-curve $-1 -100.12512318173751 43.836762747025702 15.321293800108084 0 0 -1 I I #
edge $-1 $517 -43.836762747025702 $445 43.836762747025702 $510 $542 forward 7 unknown #
point $-1 -100.12512318173751 43.836762747025702 9.375113750671467 #
point $-1 -100.12512318173751 43.836762747025702 21.2674738495447 #
coedge $-1 $454 $510 $451 $516 reversed $327 $-1 #
edge $-1 $456 -5.9461800494366166 $517 5.9461800494366166 $515 $543 forward 7 unknown #
vertex $-1 $512 $544 #
straight-curve $-1 -87.484968280526033 -43.836762747025702 9.375113750671467 -1 0 0 I I #
straight-curve $-1 -100.12512318173751 0 21.2674738495447 0 -1 0 I I #
point $-1 -100.12512318173751 -43.836762747025702 21.2674738495447 #
vertex $-1 $462 $545 #
straight-curve $-1 100.12512318173751 0 9.375113750671467 0 -1 0 I I #
edge $-1 $465 -5.9461800494366166 $521 5.9461800494366166 $463 $546 forward 7 unknown #
point $-1 100.12512318173751 -43.836762747025702 21.2674738495447 #
point $-1 100.12512318173751 43.836762747025702 21.2674738495447 #
straight-curve $-1 100.12512318173751 -43.836762747025702 15.321293800108084 0 0 -1 I I #
point $-1 100.12512318173751 -43.836762747025702 9.375113750671467 #
straight-curve $-1 87.484968280526033 43.836762747025702 9.375113750671467 1 0 0 I I #
straight-curve $-1 -49.564503576891624 -43.836762747025702 67.203570238299491 0 0 -1 I I #
point $-1 -49.564503576891624 -43.836762747025702 21.767473849544697 #
straight-curve $-1 -21.995146589141584 -43.836762747025702 16.450105790361469 1 0 0 I I #
point $-1 -49.564503576891624 -43.836762747025702 16.450105790361469 #
point $-1 -46.379240491972503 -39.188124623241102 17.514394954914945 #
point $-1 -41.601345864593824 -39.188124623241102 17.514394954914945 #
straight-curve $-1 44.359275593551722 43.836762747025702 91.089117980092013 0 0 -1 I I #
point $-1 44.359275593551722 43.836762747025702 21.767473849544697 #
straight-curve $-1 16.271059481798133 43.836762747025702 8.7064537488000369 -1 0 0 I I #
point $-1 44.359275593551722 43.836762747025702 8.7064537488000369 #
point $-1 25.451824985623006 27.985745767553144 7.3737269807000061 #
point $-1 32.54211896359628 27.985745767553144 7.3737269807000061 #
point $-1 39.632412941569555 27.985745767553144 7.3737269807000061 #
straight-curve $-1 -100.12512318173751 0 9.375113750671467 0 1 0 I I #
straight-curve $-1 -100.12512318173751 -43.836762747025702 15.321293800108084 0 0 -1 I I #
point $-1 -100.12512318173751 -43.836762747025702 9.375113750671467 #
point $-1 100.12512318173751 43.836762747025702 9.375113750671467 #
straight-curve $-1 100.12512318173751 43.836762747025702 15.321293800108084 0 0 -1 I I #
End-of-ACIS-data 