500 0 15 0           
7 Unknown 11 ACIS 5.0 NT 24 Thu Mar 25 21:05:23 1999 
-1 9.9999999999999995e-007 1e-010 
body $-1 $15 $-1 $16 #
body $-1 $17 $-1 $18 #
body $-1 $19 $-1 $20 #
body $-1 $21 $-1 $22 #
body $-1 $23 $-1 $24 #
body $-1 $25 $-1 $26 #
body $-1 $27 $-1 $28 #
body $-1 $29 $-1 $30 #
body $-1 $31 $-1 $32 #
body $-1 $33 $-1 $34 #
body $-1 $35 $-1 $36 #
body $-1 $37 $-1 $38 #
body $-1 $39 $-1 $40 #
body $-1 $41 $-1 $42 #
body $-1 $43 $-1 $44 #
lump $-1 $-1 $45 $0 #
transform $-1 1 0 0 0 1 0 0 0 1 40.601825006866662 22.352006620498255 8.9302293243485469 1 rotate no_reflect no_shear #
lump $-1 $-1 $46 $1 #
transform $-1 1 0 0 0 1 0 0 0 1 40.601825006866662 22.352006620498255 8.9302293243485469 1 rotate no_reflect no_shear #
lump $-1 $-1 $47 $2 #
transform $-1 1 0 0 0 1 0 0 0 1 40.601825006866662 22.352006620498255 8.9302293243485469 1 rotate no_reflect no_shear #
lump $-1 $-1 $48 $3 #
transform $-1 1 0 0 0 1 0 0 0 1 40.601825006866662 22.352006620498255 8.9302293243485469 1 rotate no_reflect no_shear #
lump $-1 $-1 $49 $4 #
transform $-1 1 0 0 0 1 0 0 0 1 40.601825006866662 22.352006620498255 8.9302293243485469 1 rotate no_reflect no_shear #
lump $-1 $-1 $50 $5 #
transform $-1 1 0 0 0 1 0 0 0 1 40.601825006866662 22.352006620498255 8.9302293243485469 1 rotate no_reflect no_shear #
lump $-1 $-1 $51 $6 #
transform $-1 1 0 0 0 1 0 0 0 1 40.601825006866662 22.352006620498255 8.9302293243485469 1 rotate no_reflect no_shear #
lump $-1 $-1 $52 $7 #
transform $-1 1 0 0 0 1 0 0 0 1 40.601825006866662 22.352006620498255 8.9302293243485469 1 rotate no_reflect no_shear #
lump $-1 $-1 $53 $8 #
transform $-1 1 0 0 0 1 0 0 0 1 40.601825006866662 22.352006620498255 8.9302293243485469 1 rotate no_reflect no_shear #
lump $-1 $-1 $54 $9 #
transform $-1 1 0 0 0 1 0 0 0 1 40.601825006866662 22.352006620498255 8.9302293243485469 1 rotate no_reflect no_shear #
lump $-1 $-1 $55 $10 #
transform $-1 1 0 0 0 1 0 0 0 1 40.601825006866662 22.352006620498255 8.9302293243485469 1 rotate no_reflect no_shear #
lump $-1 $-1 $56 $11 #
transform $-1 1 0 0 0 1 0 0 0 1 40.601825006866662 22.352006620498255 8.9302293243485469 1 rotate no_reflect no_shear #
lump $-1 $-1 $57 $12 #
transform $-1 1 0 0 0 1 0 0 0 1 40.601825006866662 22.352006620498255 8.9302293243485469 1 rotate no_reflect no_shear #
lump $-1 $-1 $58 $13 #
transform $-1 1 0 0 0 1 0 0 0 1 40.601825006866662 22.352006620498255 8.9302293243485469 1 rotate no_reflect no_shear #
lump $-1 $-1 $59 $14 #
transform $-1 1 0 0 0 1 0 0 0 1 40.601825006866662 22.352006620498255 8.9302293243485469 1 rotate no_reflect no_shear #
shell $-1 $-1 $-1 $60 $-1 $15 #
shell $-1 $-1 $-1 $61 $-1 $17 #
shell $-1 $-1 $-1 $62 $-1 $19 #
shell $-1 $-1 $-1 $63 $-1 $21 #
shell $-1 $-1 $-1 $64 $-1 $23 #
shell $-1 $-1 $-1 $65 $-1 $25 #
shell $-1 $-1 $-1 $66 $-1 $27 #
shell $-1 $-1 $-1 $67 $-1 $29 #
shell $-1 $-1 $-1 $68 $-1 $31 #
shell $-1 $-1 $-1 $69 $-1 $33 #
shell $-1 $-1 $-1 $70 $-1 $35 #
shell $-1 $-1 $-1 $71 $-1 $37 #
shell $-1 $-1 $-1 $72 $-1 $39 #
shell $-1 $-1 $-1 $73 $-1 $41 #
shell $-1 $-1 $-1 $74 $-1 $43 #
face $-1 $75 $76 $45 $-1 $77 forward single #
face $-1 $78 $79 $46 $-1 $80 forward single #
face $-1 $81 $82 $47 $-1 $83 reversed single #
face $-1 $84 $85 $48 $-1 $86 reversed single #
face $-1 $87 $88 $49 $-1 $89 forward single #
face $-1 $90 $91 $50 $-1 $92 forward single #
face $-1 $93 $94 $51 $-1 $95 reversed single #
face $-1 $96 $97 $52 $-1 $98 forward single #
face $-1 $99 $100 $53 $-1 $101 forward single #
face $-1 $102 $103 $54 $-1 $104 reversed single #
face $-1 $105 $106 $55 $-1 $107 forward single #
face $-1 $108 $109 $56 $-1 $110 forward single #
face $-1 $111 $112 $57 $-1 $113 reversed single #
face $-1 $114 $115 $58 $-1 $116 forward single #
face $-1 $117 $118 $59 $-1 $119 forward single #
face $-1 $120 $121 $45 $-1 $122 reversed single #
loop $-1 $-1 $123 $60 #
plane-surface $-1 0 0 8.9302293243485469 0 0 1 1 0 0 forward_v I I I I #
face $-1 $124 $125 $46 $-1 $126 reversed single #
loop $-1 $-1 $127 $61 #
plane-surface $-1 0 -22.352006620498255 0 0 1 0 0 0 1 forward_v I I I I #
face $-1 $128 $129 $47 $-1 $130 reversed single #
loop $-1 $-1 $131 $62 #
plane-surface $-1 -38.464614846076572 16.07492234659518 0 0 1 0 0 0 1 forward_v I I I I #
face $-1 $132 $133 $48 $-1 $134 reversed single #
loop $-1 $-1 $135 $63 #
plane-surface $-1 -95.982581805756197 -9.1946019141154629 64.129949552557022 0 1 0 -0.68199836817093118 0 0.7313536940579346 forward_v I I I I #
face $-1 $136 $137 $49 $-1 $138 forward single #
loop $-1 $139 $140 $64 #
cone-surface $-1 -37.90137016638645 -7.5702178797545905 6.3484581029884222 0.68199836817093118 0 -0.7313536940579346 0.3656768470289673 0 0.34099918408546559 1 I I 0 1 0.5 forward I I I I #
face $-1 $141 $142 $50 $-1 $143 forward single #
loop $-1 $144 $145 $65 #
cone-surface $-1 -37.90137016638645 -5.1336418282132854 6.3484581029884222 0.68199836817093118 0 -0.7313536940579346 0.3656768470289673 0 0.34099918408546559 1 I I 0 1 0.5 forward I I I I #
face $-1 $146 $147 $51 $-1 $148 reversed single #
loop $-1 $-1 $149 $66 #
plane-surface $-1 -95.982581805756197 -0.17012743321288948 64.129949552557022 0 1 0 -0.68199836817093118 0 0.7313536940579346 forward_v I I I I #
face $-1 $150 $151 $52 $-1 $152 forward single #
loop $-1 $153 $154 $67 #
cone-surface $-1 -37.90137016638645 1.4542566011479785 6.3484581029884222 0.68199836817093118 0 -0.7313536940579346 0.3656768470289673 0 0.34099918408546559 1 I I 0 1 0.5 forward I I I I #
face $-1 $155 $156 $53 $-1 $157 forward single #
loop $-1 $158 $159 $68 #
cone-surface $-1 -37.90137016638645 3.8908326526892871 6.3484581029884222 0.68199836817093118 0 -0.7313536940579346 0.3656768470289673 0 0.34099918408546559 1 I I 0 1 0.5 forward I I I I #
face $-1 $160 $161 $54 $-1 $162 reversed single #
loop $-1 $-1 $163 $69 #
plane-surface $-1 -95.982581805756197 8.8543470476896786 64.129949552557022 0 1 0 -0.68199836817093118 0 0.7313536940579346 forward_v I I I I #
face $-1 $164 $165 $55 $-1 $166 forward single #
loop $-1 $167 $168 $70 #
cone-surface $-1 -37.90137016638645 10.478731082050547 6.3484581029884222 0.68199836817093118 0 -0.7313536940579346 0.3656768470289673 0 0.34099918408546559 1 I I 0 1 0.5 forward I I I I #
face $-1 $169 $170 $56 $-1 $171 forward single #
loop $-1 $172 $173 $71 #
cone-surface $-1 -37.90137016638645 12.915307133591856 6.3484581029884222 0.68199836817093118 0 -0.7313536940579346 0.3656768470289673 0 0.34099918408546559 1 I I 0 1 0.5 forward I I I I #
face $-1 $174 $175 $57 $-1 $176 reversed single #
loop $-1 $-1 $177 $72 #
plane-surface $-1 62.514198700928631 -3.6806126681902178 114.80252745606198 0 -1 0 -0.82903758062907751 0 -0.55919289150049634 forward_v I I I I #
face $-1 $178 $179 $58 $-1 $180 forward single #
loop $-1 $181 $182 $73 #
cone-surface $-1 37.848336823056208 -8.907675830991872 5.2042916857490065 -0.82903758062907751 0 -0.55919289150049634 0.27959644575024817 0 -0.41451879031453875 1 I I 0 1 0.5 forward I I I I #
face $-1 $183 $184 $59 $-1 $185 forward single #
loop $-1 $186 $187 $74 #
cone-surface $-1 37.848336823056208 -5.7714379333108781 5.2042916857490065 -0.82903758062907751 0 -0.55919289150049634 0.27959644575024817 0 -0.41451879031453875 1 I I 0 1 0.5 forward I I I I #
face $-1 $188 $189 $45 $-1 $190 reversed single #
loop $-1 $-1 $191 $75 #
plane-surface $-1 0 0 -8.9302293243485469 0 0 1 1 0 0 forward_v I I I I #
coedge $-1 $192 $193 $194 $195 forward $76 $-1 #
face $-1 $196 $197 $46 $-1 $198 forward single #
loop $-1 $-1 $199 $78 #
plane-surface $-1 -40.601825006866662 0 0 1 0 0 0 0 -1 forward_v I I I I #
coedge $-1 $200 $201 $202 $203 forward $79 $-1 #
face $-1 $204 $205 $47 $-1 $206 reversed single #
loop $-1 $-1 $207 $81 #
plane-surface $-1 -36.327404685286481 19.213464483546719 0 -1 0 0 0 0 1 forward_v I I I I #
coedge $-1 $208 $209 $210 $211 reversed $82 $-1 #
face $-1 $212 $213 $48 $-1 $214 reversed single #
loop $-1 $-1 $215 $84 #
plane-surface $-1 -40.601825006866655 -6.3519298539839397 4.7413601440255064 -0.68199836817093118 0 0.7313536940579346 0.7313536940579346 0 0.68199836817093118 forward_v I I I I #
coedge $-1 $216 $217 $218 $219 reversed $85 $-1 #
face $-1 $-1 $220 $49 $-1 $221 forward single #
loop $-1 $222 $223 $87 #
cone-surface $-1 -37.276421803622071 -7.5702178797545905 5.6782830482753397 0.68199836817093118 0 -0.7313536940579346 0.18283842351448365 0 0.17049959204273279 1 I I -0.70710678118654746 0.70710678118654746 0.25 forward I I I I #
loop $-1 $-1 $224 $64 #
coedge $-1 $140 $140 $225 $226 reversed $88 $-1 #
face $-1 $-1 $227 $50 $-1 $228 forward single #
loop $-1 $229 $230 $90 #
cone-surface $-1 -37.276421803622071 -5.1336418282132854 5.6782830482753397 0.68199836817093118 0 -0.7313536940579346 0.18283842351448365 0 0.17049959204273279 1 I I -0.70710678118654746 0.70710678118654746 0.25 forward I I I I #
loop $-1 $-1 $231 $65 #
coedge $-1 $145 $145 $232 $233 reversed $91 $-1 #
face $-1 $234 $235 $51 $-1 $236 reversed single #
loop $-1 $-1 $237 $93 #
plane-surface $-1 -40.601825006866655 2.6725446269186328 4.7413601440255064 -0.68199836817093118 0 0.7313536940579346 0.7313536940579346 0 0.68199836817093118 forward_v I I I I #
coedge $-1 $238 $239 $240 $241 reversed $94 $-1 #
face $-1 $-1 $242 $52 $-1 $243 forward single #
loop $-1 $244 $245 $96 #
cone-surface $-1 -37.276421803622071 1.4542566011479785 5.6782830482753397 0.68199836817093118 0 -0.7313536940579346 0.18283842351448365 0 0.17049959204273279 1 I I -0.70710678118654746 0.70710678118654746 0.25 forward I I I I #
loop $-1 $-1 $246 $67 #
coedge $-1 $154 $154 $247 $248 reversed $97 $-1 #
face $-1 $-1 $249 $53 $-1 $250 forward single #
loop $-1 $251 $252 $99 #
cone-surface $-1 -37.276421803622071 3.8908326526892871 5.6782830482753397 0.68199836817093118 0 -0.7313536940579346 0.18283842351448365 0 0.17049959204273279 1 I I -0.70710678118654746 0.70710678118654746 0.25 forward I I I I #
loop $-1 $-1 $253 $68 #
coedge $-1 $159 $159 $254 $255 reversed $100 $-1 #
face $-1 $256 $257 $54 $-1 $258 reversed single #
loop $-1 $-1 $259 $102 #
plane-surface $-1 -40.601825006866655 11.697019107821202 4.7413601440255064 -0.68199836817093118 0 0.7313536940579346 0.7313536940579346 0 0.68199836817093118 forward_v I I I I #
coedge $-1 $260 $261 $262 $263 reversed $103 $-1 #
face $-1 $-1 $264 $55 $-1 $265 forward single #
loop $-1 $266 $267 $105 #
cone-surface $-1 -37.276421803622071 10.478731082050547 5.6782830482753397 0.68199836817093118 0 -0.7313536940579346 0.18283842351448365 0 0.17049959204273279 1 I I -0.70710678118654746 0.70710678118654746 0.25 forward I I I I #
loop $-1 $-1 $268 $70 #
coedge $-1 $168 $168 $269 $270 reversed $106 $-1 #
face $-1 $-1 $271 $56 $-1 $272 forward single #
loop $-1 $273 $274 $108 #
cone-surface $-1 -37.276421803622071 12.915307133591856 5.6782830482753397 0.68199836817093118 0 -0.7313536940579346 0.18283842351448365 0 0.17049959204273279 1 I I -0.70710678118654746 0.70710678118654746 0.25 forward I I I I #
loop $-1 $-1 $275 $71 #
coedge $-1 $173 $173 $276 $277 reversed $109 $-1 #
face $-1 $278 $279 $57 $-1 $280 reversed single #
loop $-1 $-1 $281 $111 #
plane-surface $-1 -4.8066788447072071 -7.3395568821513759 69.394023604488126 0.82903758062907751 0 0.55919289150049634 0.55919289150049634 0 -0.82903758062907751 forward_v I I I I #
coedge $-1 $282 $283 $284 $285 reversed $112 $-1 #
face $-1 $-1 $286 $58 $-1 $287 forward single #
loop $-1 $288 $289 $114 #
cone-surface $-1 37.200169703699814 -8.907675830991872 4.767097457022464 -0.82903758062907751 0 -0.55919289150049634 0.13979822287512408 0 -0.20725939515726938 1 I I -0.70710678118654746 0.70710678118654746 0.25 forward I I I I #
loop $-1 $-1 $290 $73 #
coedge $-1 $182 $182 $291 $292 reversed $115 $-1 #
face $-1 $-1 $293 $59 $-1 $294 forward single #
loop $-1 $295 $296 $117 #
cone-surface $-1 37.200169703699814 -5.7714379333108781 4.767097457022464 -0.82903758062907751 0 -0.55919289150049634 0.13979822287512408 0 -0.20725939515726938 1 I I -0.70710678118654746 0.70710678118654746 0.25 forward I I I I #
loop $-1 $-1 $297 $74 #
coedge $-1 $187 $187 $298 $299 reversed $118 $-1 #
face $-1 $300 $301 $45 $-1 $302 reversed single #
loop $-1 $-1 $303 $120 #
plane-surface $-1 0 -22.352006620498255 0 0 1 0 0 0 1 forward_v I I I I #
coedge $-1 $304 $305 $306 $307 forward $121 $-1 #
coedge $-1 $308 $123 $309 $310 forward $76 $-1 #
coedge $-1 $123 $308 $311 $312 forward $76 $-1 #
coedge $-1 $313 $314 $123 $195 reversed $315 $-1 #
edge $-1 $316 -22.352006620498255 $317 22.352006620498255 $194 $318 forward 7 unknown #
face $-1 $319 $320 $46 $-1 $321 reversed single #
loop $-1 $-1 $322 $124 #
plane-surface $-1 0 -28.028759382691113 7.2437977904383697 0 0 1 1 0 0 forward_v I I I I #
coedge $-1 $323 $324 $201 $325 forward $125 $-1 #
coedge $-1 $326 $127 $327 $328 reversed $79 $-1 #
coedge $-1 $127 $326 $199 $325 reversed $79 $-1 #
coedge $-1 $329 $322 $127 $203 reversed $197 $-1 #
edge $-1 $330 -40.601825006866662 $331 40.601825006866662 $202 $332 forward 7 unknown #
face $-1 $333 $334 $47 $-1 $335 reversed single #
loop $-1 $-1 $336 $128 #
plane-surface $-1 0 22.352006620498255 0 0 -1 0 0 0 -1 forward_v I I I I #
coedge $-1 $337 $338 $339 $340 forward $129 $-1 #
coedge $-1 $339 $131 $341 $342 reversed $82 $-1 #
coedge $-1 $131 $339 $343 $344 reversed $82 $-1 #
coedge $-1 $345 $346 $131 $211 forward $347 $-1 #
edge $-1 $348 -8.9302293243485469 $349 8.9302293243485469 $210 $350 forward 7 unknown #
face $-1 $351 $352 $48 $-1 $353 forward single #
loop $-1 $-1 $354 $132 #
plane-surface $-1 -95.982581805756197 -3.5092577938524174 64.129949552557022 0 -1 0 0.68199836817093118 0 -0.7313536940579346 forward_v I I I I #
coedge $-1 $355 $356 $357 $358 reversed $133 $-1 #
coedge $-1 $217 $135 $359 $360 reversed $85 $-1 #
coedge $-1 $135 $216 $355 $361 reversed $85 $-1 #
coedge $-1 $357 $362 $135 $219 forward $352 $-1 #
edge $-1 $363 7.389465896011437 $364 11.881478035528566 $218 $365 forward 7 unknown #
loop $-1 $-1 $225 $136 #
plane-surface $-1 -40.601825006866655 -6.3519298539839397 4.7413601440255064 -0.68199836817093118 0 0.7313536940579346 0.7313536940579346 0 0.68199836817093118 forward_v I I I I #
loop $-1 $-1 $366 $87 #
coedge $-1 $223 $223 $224 $367 reversed $137 $-1 #
coedge $-1 $224 $224 $223 $367 forward $139 $-1 #
coedge $-1 $225 $225 $140 $226 forward $220 $-1 #
edge $-1 $368 0 $368 6.2831853071796004 $225 $369 forward 7 unknown #
loop $-1 $-1 $232 $141 #
plane-surface $-1 -40.601825006866655 -6.3519298539839397 4.7413601440255064 -0.68199836817093118 0 0.7313536940579346 0.7313536940579346 0 0.68199836817093118 forward_v I I I I #
loop $-1 $-1 $370 $90 #
coedge $-1 $230 $230 $231 $371 reversed $142 $-1 #
coedge $-1 $231 $231 $230 $371 forward $144 $-1 #
coedge $-1 $232 $232 $145 $233 forward $227 $-1 #
edge $-1 $372 0 $372 6.2831853071796004 $232 $373 forward 7 unknown #
face $-1 $374 $375 $51 $-1 $376 forward single #
loop $-1 $-1 $377 $146 #
plane-surface $-1 -95.982581805756197 5.5152166870501551 64.129949552557022 0 -1 0 0.68199836817093118 0 -0.7313536940579346 forward_v I I I I #
coedge $-1 $378 $379 $380 $381 reversed $147 $-1 #
coedge $-1 $239 $149 $382 $383 reversed $94 $-1 #
coedge $-1 $149 $238 $378 $384 reversed $94 $-1 #
coedge $-1 $380 $385 $149 $241 forward $375 $-1 #
edge $-1 $386 7.389465896011437 $387 11.881478035528566 $240 $388 forward 7 unknown #
loop $-1 $-1 $247 $150 #
plane-surface $-1 -40.601825006866655 2.6725446269186328 4.7413601440255064 -0.68199836817093118 0 0.7313536940579346 0.7313536940579346 0 0.68199836817093118 forward_v I I I I #
loop $-1 $-1 $389 $96 #
coedge $-1 $245 $245 $246 $390 reversed $151 $-1 #
coedge $-1 $246 $246 $245 $390 forward $153 $-1 #
coedge $-1 $247 $247 $154 $248 forward $242 $-1 #
edge $-1 $391 0 $391 6.2831853071796004 $247 $392 forward 7 unknown #
loop $-1 $-1 $254 $155 #
plane-surface $-1 -40.601825006866655 2.6725446269186328 4.7413601440255064 -0.68199836817093118 0 0.7313536940579346 0.7313536940579346 0 0.68199836817093118 forward_v I I I I #
loop $-1 $-1 $393 $99 #
coedge $-1 $252 $252 $253 $394 reversed $156 $-1 #
coedge $-1 $253 $253 $252 $394 forward $158 $-1 #
coedge $-1 $254 $254 $159 $255 forward $249 $-1 #
edge $-1 $395 0 $395 6.2831853071796004 $254 $396 forward 7 unknown #
face $-1 $397 $398 $54 $-1 $399 forward single #
loop $-1 $-1 $400 $160 #
plane-surface $-1 -95.982581805756197 14.539691167952725 64.129949552557022 0 -1 0 0.68199836817093118 0 -0.7313536940579346 forward_v I I I I #
coedge $-1 $401 $402 $403 $404 reversed $161 $-1 #
coedge $-1 $261 $163 $405 $406 reversed $103 $-1 #
coedge $-1 $163 $260 $401 $407 reversed $103 $-1 #
coedge $-1 $403 $408 $163 $263 forward $398 $-1 #
edge $-1 $409 7.389465896011437 $410 11.881478035528566 $262 $411 forward 7 unknown #
loop $-1 $-1 $269 $164 #
plane-surface $-1 -40.601825006866655 11.697019107821202 4.7413601440255064 -0.68199836817093118 0 0.7313536940579346 0.7313536940579346 0 0.68199836817093118 forward_v I I I I #
loop $-1 $-1 $412 $105 #
coedge $-1 $267 $267 $268 $413 reversed $165 $-1 #
coedge $-1 $268 $268 $267 $413 forward $167 $-1 #
coedge $-1 $269 $269 $168 $270 forward $264 $-1 #
edge $-1 $414 0 $414 6.2831853071796004 $269 $415 forward 7 unknown #
loop $-1 $-1 $276 $169 #
plane-surface $-1 -40.601825006866655 11.697019107821202 4.7413601440255064 -0.68199836817093118 0 0.7313536940579346 0.7313536940579346 0 0.68199836817093118 forward_v I I I I #
loop $-1 $-1 $416 $108 #
coedge $-1 $274 $274 $275 $417 reversed $170 $-1 #
coedge $-1 $275 $275 $274 $417 forward $172 $-1 #
coedge $-1 $276 $276 $173 $277 forward $271 $-1 #
edge $-1 $418 0 $418 6.2831853071796004 $276 $419 forward 7 unknown #
face $-1 $420 $421 $57 $-1 $422 reversed single #
loop $-1 $-1 $423 $174 #
plane-surface $-1 62.514198700928631 -10.998501096112534 114.80252745606198 0 1 0 0.82903758062907751 0 0.55919289150049634 forward_v I I I I #
coedge $-1 $424 $425 $426 $427 reversed $175 $-1 #
coedge $-1 $283 $177 $428 $429 reversed $112 $-1 #
coedge $-1 $177 $282 $424 $430 reversed $112 $-1 #
coedge $-1 $426 $431 $177 $285 forward $432 $-1 #
edge $-1 $433 -9.3447256564023462 $434 -4.7195647371796738 $284 $435 forward 7 unknown #
loop $-1 $-1 $291 $178 #
plane-surface $-1 -4.8066788447072071 -7.3395568821513759 69.394023604488126 0.82903758062907751 0 0.55919289150049634 0.55919289150049634 0 -0.82903758062907751 forward_v I I I I #
loop $-1 $-1 $436 $114 #
coedge $-1 $289 $289 $290 $437 reversed $179 $-1 #
coedge $-1 $290 $290 $289 $437 forward $181 $-1 #
coedge $-1 $291 $291 $182 $292 forward $286 $-1 #
edge $-1 $438 0 $438 6.2831853071796004 $291 $439 forward 7 unknown #
loop $-1 $-1 $298 $183 #
plane-surface $-1 -4.8066788447072071 -7.3395568821513759 69.394023604488126 0.82903758062907751 0 0.55919289150049634 0.55919289150049634 0 -0.82903758062907751 forward_v I I I I #
loop $-1 $-1 $440 $117 #
coedge $-1 $296 $296 $297 $441 reversed $184 $-1 #
coedge $-1 $297 $297 $296 $441 forward $186 $-1 #
coedge $-1 $298 $298 $187 $299 forward $293 $-1 #
edge $-1 $442 0 $442 6.2831853071796004 $298 $443 forward 7 unknown #
face $-1 $444 $445 $45 $-1 $446 reversed single #
loop $-1 $-1 $447 $188 #
plane-surface $-1 -40.601825006866662 0 0 1 0 0 0 0 -1 forward_v I I I I #
coedge $-1 $448 $311 $449 $450 forward $189 $-1 #
coedge $-1 $451 $191 $448 $452 forward $121 $-1 #
coedge $-1 $191 $451 $453 $454 forward $121 $-1 #
coedge $-1 $314 $313 $191 $307 reversed $315 $-1 #
edge $-1 $455 -22.352006620498255 $456 22.352006620498255 $306 $457 forward 7 unknown #
coedge $-1 $193 $192 $458 $459 forward $76 $-1 #
coedge $-1 $460 $461 $192 $310 reversed $445 $-1 #
edge $-1 $317 -40.601825006866662 $462 40.601825006866662 $309 $463 forward 7 unknown #
coedge $-1 $303 $464 $193 $312 reversed $189 $-1 #
edge $-1 $465 -40.601825006866662 $316 40.601825006866662 $311 $466 forward 7 unknown #
coedge $-1 $306 $194 $464 $467 forward $315 $-1 #
coedge $-1 $194 $306 $460 $468 reversed $315 $-1 #
loop $-1 $-1 $313 $444 #
vertex $-1 $195 $469 #
vertex $-1 $195 $470 #
straight-curve $-1 40.601825006866662 0 8.9302293243485469 0 1 0 I I #
face $-1 $471 $472 $46 $-1 $473 reversed single #
loop $-1 $-1 $474 $196 #
plane-surface $-1 0 -28.028759382691113 2.7730416063971557 0 0 1 1 0 0 forward_v I I I I #
coedge $-1 $202 $475 $476 $477 forward $197 $-1 #
coedge $-1 $478 $199 $479 $480 reversed $125 $-1 #
coedge $-1 $199 $478 $329 $481 reversed $125 $-1 #
edge $-1 $330 -7.2437977904383697 $482 -2.7730416063971557 $199 $483 forward 7 unknown #
coedge $-1 $201 $200 $484 $485 forward $79 $-1 #
coedge $-1 $476 $486 $200 $328 forward $487 $-1 #
edge $-1 $488 2.7730416063971557 $331 7.2437977904383697 $327 $489 forward 7 unknown #
coedge $-1 $475 $202 $324 $481 forward $197 $-1 #
vertex $-1 $325 $490 #
vertex $-1 $477 $491 #
straight-curve $-1 0 -22.352006620498255 7.2437977904383697 1 0 0 I I #
face $-1 $492 $493 $47 $-1 $494 forward single #
loop $-1 $-1 $495 $204 #
plane-surface $-1 0 0 -8.9302293243485469 0 0 1 1 0 0 forward_v I I I I #
coedge $-1 $496 $497 $498 $499 forward $205 $-1 #
coedge $-1 $498 $207 $495 $500 reversed $129 $-1 #
coedge $-1 $207 $498 $501 $502 reversed $129 $-1 #
coedge $-1 $209 $208 $207 $340 reversed $82 $-1 #
edge $-1 $503 -8.9302293243485469 $504 8.9302293243485469 $207 $505 forward 7 unknown #
coedge $-1 $506 $495 $208 $342 forward $334 $-1 #
edge $-1 $504 17.095097262248196 $348 21.369517583828376 $341 $507 forward 7 unknown #
coedge $-1 $501 $508 $209 $344 forward $493 $-1 #
edge $-1 $349 -21.369517583828376 $503 -17.095097262248196 $343 $509 forward 7 unknown #
coedge $-1 $510 $210 $508 $511 reversed $347 $-1 #
coedge $-1 $210 $510 $506 $512 reversed $347 $-1 #
loop $-1 $-1 $210 $492 #
vertex $-1 $512 $513 #
vertex $-1 $211 $514 #
straight-curve $-1 -40.601825006866662 16.07492234659518 0 0 0 1 I I #
face $-1 $-1 $515 $48 $-1 $516 reversed single #
loop $-1 $-1 $218 $212 #
plane-surface $-1 0 0 8.9302293243485469 0 0 1 1 0 0 forward_v I I I I #
coedge $-1 $517 $518 $519 $520 reversed $213 $-1 #
coedge $-1 $521 $215 $217 $361 forward $133 $-1 #
coedge $-1 $215 $521 $517 $522 forward $133 $-1 #
coedge $-1 $519 $218 $215 $358 forward $352 $-1 #
edge $-1 $364 -6.018636987123493 $523 -0.33329286686044757 $357 $524 forward 7 unknown #
coedge $-1 $525 $526 $216 $360 forward $515 $-1 #
edge $-1 $527 -27.323614632253012 $363 -23.134745451929966 $359 $528 forward 7 unknown #
edge $-1 $364 -6.142051617450754 $527 9.4367341760026555e-015 $217 $529 forward 7 unknown #
coedge $-1 $218 $519 $525 $530 forward $352 $-1 #
vertex $-1 $360 $531 #
vertex $-1 $219 $532 #
straight-curve $-1 -47.991290902878099 -9.1946019141154629 8.9302293243485451 1 0 0 I I #
coedge $-1 $366 $366 $-1 $533 reversed $222 $-1 #
edge $-1 $534 0 $534 6.2831853071796004 $223 $535 forward 7 unknown #
vertex $-1 $226 $536 #
ellipse-curve $-1 -38.355818937108097 -7.5702178797545905 6.835794734187024 -0.68199836817093118 0 0.7313536940579346 0.3656768470289673 0 0.34099918408546559 1 I I #
coedge $-1 $370 $370 $-1 $537 reversed $229 $-1 #
edge $-1 $538 0 $538 6.2831853071796004 $230 $539 forward 7 unknown #
vertex $-1 $233 $540 #
ellipse-curve $-1 -38.355818937108097 -5.1336418282132854 6.835794734187024 -0.68199836817093118 0 0.7313536940579346 0.3656768470289673 0 0.34099918408546559 1 I I #
face $-1 $-1 $541 $51 $-1 $542 reversed single #
loop $-1 $-1 $240 $234 #
plane-surface $-1 0 0 8.9302293243485469 0 0 1 1 0 0 forward_v I I I I #
coedge $-1 $543 $544 $545 $546 reversed $235 $-1 #
coedge $-1 $547 $237 $239 $384 forward $147 $-1 #
coedge $-1 $237 $547 $543 $548 forward $147 $-1 #
coedge $-1 $545 $240 $237 $381 forward $375 $-1 #
edge $-1 $387 -1.5063997466722059 $549 4.1789443735908387 $380 $550 forward 7 unknown #
coedge $-1 $551 $552 $238 $383 forward $541 $-1 #
edge $-1 $553 -27.323614632253012 $386 -23.134745451929966 $382 $554 forward 7 unknown #
edge $-1 $387 -6.142051617450754 $553 9.4367341760026555e-015 $239 $555 forward 7 unknown #
coedge $-1 $240 $545 $551 $556 forward $375 $-1 #
vertex $-1 $241 $557 #
vertex $-1 $241 $558 #
straight-curve $-1 -47.991290902878099 -0.17012743321288948 8.9302293243485451 1 0 0 I I #
coedge $-1 $389 $389 $-1 $559 reversed $244 $-1 #
edge $-1 $560 0 $560 6.2831853071796004 $245 $561 forward 7 unknown #
vertex $-1 $248 $562 #
ellipse-curve $-1 -38.355818937108097 1.4542566011479785 6.835794734187024 -0.68199836817093118 0 0.7313536940579346 0.3656768470289673 0 0.34099918408546559 1 I I #
coedge $-1 $393 $393 $-1 $563 reversed $251 $-1 #
edge $-1 $564 0 $564 6.2831853071796004 $252 $565 forward 7 unknown #
vertex $-1 $255 $566 #
ellipse-curve $-1 -38.355818937108097 3.8908326526892871 6.835794734187024 -0.68199836817093118 0 0.7313536940579346 0.3656768470289673 0 0.34099918408546559 1 I I #
face $-1 $-1 $567 $54 $-1 $568 reversed single #
loop $-1 $-1 $262 $256 #
plane-surface $-1 0 0 8.9302293243485469 0 0 1 1 0 0 forward_v I I I I #
coedge $-1 $569 $570 $571 $572 reversed $257 $-1 #
coedge $-1 $573 $259 $261 $407 forward $161 $-1 #
coedge $-1 $259 $573 $569 $574 forward $161 $-1 #
coedge $-1 $571 $262 $259 $404 forward $398 $-1 #
edge $-1 $410 3.0058374937790777 $575 8.6911816140421241 $403 $576 forward 7 unknown #
coedge $-1 $577 $578 $260 $406 forward $567 $-1 #
edge $-1 $579 -27.323614632253012 $409 -23.134745451929966 $405 $580 forward 7 unknown #
edge $-1 $410 -6.142051617450754 $579 9.4367341760026555e-015 $261 $581 forward 7 unknown #
coedge $-1 $262 $571 $577 $582 forward $398 $-1 #
vertex $-1 $263 $583 #
vertex $-1 $263 $584 #
straight-curve $-1 -47.991290902878099 8.8543470476896786 8.9302293243485451 1 0 0 I I #
coedge $-1 $412 $412 $-1 $585 reversed $266 $-1 #
edge $-1 $586 0 $586 6.2831853071796004 $267 $587 forward 7 unknown #
vertex $-1 $270 $588 #
ellipse-curve $-1 -38.355818937108097 10.478731082050547 6.835794734187024 -0.68199836817093118 0 0.7313536940579346 0.3656768470289673 0 0.34099918408546559 1 I I #
coedge $-1 $416 $416 $-1 $589 reversed $273 $-1 #
edge $-1 $590 0 $590 6.2831853071796004 $274 $591 forward 7 unknown #
vertex $-1 $277 $592 #
ellipse-curve $-1 -38.355818937108097 12.915307133591856 6.835794734187024 -0.68199836817093118 0 0.7313536940579346 0.3656768470289673 0 0.34099918408546559 1 I I #
face $-1 $-1 $432 $57 $-1 $593 forward single #
loop $-1 $-1 $594 $278 #
plane-surface $-1 40.601825006866662 0 0 -1 0 0 0 0 1 forward_v I I I I #
coedge $-1 $595 $596 $597 $598 reversed $279 $-1 #
coedge $-1 $599 $281 $283 $430 forward $175 $-1 #
coedge $-1 $281 $599 $595 $600 forward $175 $-1 #
coedge $-1 $597 $284 $281 $427 forward $432 $-1 #
edge $-1 $434 0.01083422711452986 $601 7.3287226550368461 $426 $602 forward 7 unknown #
coedge $-1 $603 $604 $282 $429 forward $421 $-1 #
edge $-1 $605 -55.328117669178717 $433 -48.471034403682445 $428 $606 forward 7 unknown #
edge $-1 $434 72.932513185058966 $605 81.203650013733352 $283 $607 forward 7 unknown #
coedge $-1 $284 $597 $603 $608 forward $432 $-1 #
loop $-1 $-1 $597 $420 #
vertex $-1 $429 $609 #
vertex $-1 $285 $610 #
straight-curve $-1 31.257099350464316 -3.6806126681902178 8.9302293243485451 -1 0 0 I I #
coedge $-1 $436 $436 $-1 $611 reversed $288 $-1 #
edge $-1 $612 0 $612 6.2831853071796004 $289 $613 forward 7 unknown #
vertex $-1 $292 $614 #
ellipse-curve $-1 38.289244547255315 -8.907675830991872 5.5016876916004156 0.82903758062907751 0 0.55919289150049634 0.27959644575024817 0 -0.41451879031453875 1 I I #
coedge $-1 $440 $440 $-1 $615 reversed $295 $-1 #
edge $-1 $616 0 $616 6.2831853071796004 $296 $617 forward 7 unknown #
vertex $-1 $299 $618 #
ellipse-curve $-1 38.289244547255315 -5.7714379333108781 5.5016876916004156 0.82903758062907751 0 0.55919289150049634 0.27959644575024817 0 -0.41451879031453875 1 I I #
face $-1 $-1 $315 $45 $-1 $619 reversed single #
loop $-1 $-1 $460 $300 #
plane-surface $-1 0 22.352006620498255 0 0 -1 0 0 0 -1 forward_v I I I I #
coedge $-1 $620 $458 $461 $621 forward $301 $-1 #
coedge $-1 $464 $303 $304 $452 reversed $189 $-1 #
coedge $-1 $458 $620 $303 $450 reversed $301 $-1 #
edge $-1 $465 -8.9302293243485469 $622 8.9302293243485469 $449 $623 forward 7 unknown #
coedge $-1 $305 $304 $620 $624 forward $121 $-1 #
edge $-1 $456 -40.601825006866662 $622 40.601825006866662 $448 $625 forward 7 unknown #
coedge $-1 $461 $460 $305 $454 reversed $445 $-1 #
edge $-1 $626 -40.601825006866662 $455 40.601825006866662 $453 $627 forward 7 unknown #
vertex $-1 $307 $628 #
vertex $-1 $467 $629 #
straight-curve $-1 40.601825006866662 0 -8.9302293243485469 0 -1 0 I I #
coedge $-1 $447 $449 $308 $459 reversed $301 $-1 #
edge $-1 $462 -22.352006620498255 $465 22.352006620498255 $458 $630 forward 7 unknown #
coedge $-1 $453 $309 $314 $468 forward $445 $-1 #
coedge $-1 $309 $453 $447 $621 reversed $445 $-1 #
vertex $-1 $310 $631 #
straight-curve $-1 0 22.352006620498255 8.9302293243485469 -1 0 0 I I #
coedge $-1 $311 $448 $313 $467 reversed $189 $-1 #
vertex $-1 $459 $632 #
straight-curve $-1 0 -22.352006620498255 8.9302293243485469 1 0 0 I I #
edge $-1 $316 -8.9302293243485469 $456 8.9302293243485469 $313 $633 forward 7 unknown #
edge $-1 $317 -8.9302293243485469 $455 8.9302293243485469 $314 $634 forward 7 unknown #
point $-1 40.601825006866662 -22.352006620498255 8.9302293243485469 #
point $-1 40.601825006866662 22.352006620498255 8.9302293243485469 #
face $-1 $-1 $487 $46 $-1 $635 reversed single #
loop $-1 $-1 $636 $319 #
plane-surface $-1 0 -33.705512144883976 5.0084196984177627 0 1 0 0 0 1 forward_v I I I I #
coedge $-1 $637 $484 $486 $638 forward $320 $-1 #
coedge $-1 $322 $329 $639 $640 forward $197 $-1 #
coedge $-1 $641 $327 $322 $477 reversed $487 $-1 #
edge $-1 $642 -5.6767527621928622 $331 5.6767527621928622 $476 $643 forward 7 unknown #
coedge $-1 $324 $323 $636 $644 reversed $125 $-1 #
coedge $-1 $484 $637 $323 $480 forward $320 $-1 #
edge $-1 $645 -5.6767527621928622 $482 5.6767527621928622 $323 $646 forward 7 unknown #
edge $-1 $330 -5.6767527621928622 $647 5.6767527621928622 $324 $648 forward 7 unknown #
vertex $-1 $325 $649 #
straight-curve $-1 -40.601825006866662 -22.352006620498255 0 0 0 -1 I I #
coedge $-1 $474 $479 $326 $485 reversed $320 $-1 #
edge $-1 $488 -40.601825006866662 $482 40.601825006866662 $484 $650 forward 7 unknown #
coedge $-1 $327 $641 $474 $638 reversed $487 $-1 #
loop $-1 $-1 $327 $471 #
vertex $-1 $328 $651 #
straight-curve $-1 40.601825006866662 -22.352006620498255 0 0 0 1 I I #
point $-1 -40.601825006866662 -22.352006620498251 7.2437977904383697 #
point $-1 40.601825006866662 -22.352006620498251 7.2437977904383697 #
face $-1 $-1 $347 $47 $-1 $652 reversed single #
loop $-1 $-1 $501 $333 #
plane-surface $-1 0 0 8.9302293243485469 0 0 1 1 0 0 forward_v I I I I #
coedge $-1 $341 $653 $337 $500 forward $334 $-1 #
coedge $-1 $654 $336 $653 $655 reversed $205 $-1 #
coedge $-1 $336 $654 $656 $657 reversed $205 $-1 #
coedge $-1 $338 $337 $336 $499 reversed $129 $-1 #
edge $-1 $658 -8.9302293243485469 $659 8.9302293243485469 $336 $660 forward 7 unknown #
edge $-1 $659 -12.745274378724899 $504 -6.4681901048218204 $495 $661 forward 7 unknown #
coedge $-1 $656 $343 $338 $502 forward $493 $-1 #
edge $-1 $503 6.4681901048218204 $658 12.745274378724899 $501 $662 forward 7 unknown #
vertex $-1 $344 $663 #
vertex $-1 $342 $664 #
straight-curve $-1 -36.327404685286481 16.07492234659518 0 0 0 -1 I I #
coedge $-1 $653 $341 $346 $512 forward $334 $-1 #
straight-curve $-1 -19.232307423038286 16.07492234659518 -8.9302293243485469 -1 0 0 I I #
coedge $-1 $343 $656 $345 $511 forward $493 $-1 #
straight-curve $-1 -19.232307423038286 16.07492234659518 8.9302293243485469 1 0 0 I I #
coedge $-1 $346 $345 $654 $665 forward $347 $-1 #
edge $-1 $666 -22.352006620498255 $349 -16.07492234659518 $345 $667 forward 7 unknown #
edge $-1 $348 16.07492234659518 $668 22.352006620498255 $346 $669 forward 7 unknown #
point $-1 -40.601825006866662 16.07492234659518 -8.9302293243485469 #
point $-1 -40.601825006866662 16.07492234659518 8.9302293243485469 #
loop $-1 $-1 $359 $351 #
plane-surface $-1 -40.601825006866662 0 0 1 0 0 0 0 -1 forward_v I I I I #
coedge $-1 $518 $354 $356 $522 reversed $213 $-1 #
coedge $-1 $354 $517 $670 $671 reversed $213 $-1 #
coedge $-1 $362 $357 $354 $520 forward $352 $-1 #
edge $-1 $523 -11.881478035528566 $672 -7.389465896011437 $519 $673 forward 7 unknown #
coedge $-1 $356 $355 $526 $674 reversed $133 $-1 #
edge $-1 $675 -9.4367341760026555e-015 $523 6.142051617450754 $517 $676 forward 7 unknown #
vertex $-1 $358 $677 #
straight-curve $-1 -36.109812867349532 -3.1759649269919699 8.9302293243485469 0 1 0 I I #
coedge $-1 $670 $359 $362 $530 reversed $515 $-1 #
coedge $-1 $359 $670 $521 $674 forward $515 $-1 #
vertex $-1 $360 $678 #
straight-curve $-1 -40.601825006866662 -9.1946019141154629 32.064974776278511 0 0 1 I I #
straight-curve $-1 -40.601825006866655 -9.1946019141154629 4.7413601440255064 -0.7313536940579346 0 -0.68199836817093118 I I #
edge $-1 $672 3.5092577938524174 $363 9.1946019141154629 $525 $679 forward 7 unknown #
point $-1 -40.601825006866662 -9.1946019141154629 8.9302293243485469 #
point $-1 -36.109812867349532 -9.1946019141154629 8.9302293243485469 #
edge $-1 $680 1 $680 0 $366 $-1 forward 7 unknown #
vertex $-1 $367 $681 #
ellipse-curve $-1 -37.446921395664802 -7.5702178797545905 5.861121471789823 -0.68199836817093118 0 0.7313536940579346 0.3656768470289673 0 0.34099918408546559 1 I I #
point $-1 -37.990142090079125 -7.5702178797545905 7.1767939182724856 #
edge $-1 $682 1 $682 0 $370 $-1 forward 7 unknown #
vertex $-1 $371 $683 #
ellipse-curve $-1 -37.446921395664802 -5.1336418282132854 5.861121471789823 -0.68199836817093118 0 0.7313536940579346 0.3656768470289673 0 0.34099918408546559 1 I I #
point $-1 -37.990142090079125 -5.1336418282132854 7.1767939182724856 #
loop $-1 $-1 $382 $374 #
plane-surface $-1 -40.601825006866662 0 0 1 0 0 0 0 -1 forward_v I I I I #
coedge $-1 $544 $377 $379 $548 reversed $235 $-1 #
coedge $-1 $377 $543 $684 $685 reversed $235 $-1 #
coedge $-1 $385 $380 $377 $546 forward $375 $-1 #
edge $-1 $549 -11.881478035528566 $686 -7.389465896011437 $545 $687 forward 7 unknown #
coedge $-1 $379 $378 $552 $688 reversed $147 $-1 #
edge $-1 $689 -9.4367341760026555e-015 $549 6.142051617450754 $543 $690 forward 7 unknown #
vertex $-1 $381 $691 #
straight-curve $-1 -36.109812867349532 1.3362723134593164 8.9302293243485469 0 1 0 I I #
coedge $-1 $684 $382 $385 $556 reversed $541 $-1 #
coedge $-1 $382 $684 $547 $688 forward $541 $-1 #
vertex $-1 $383 $692 #
straight-curve $-1 -40.601825006866662 -0.17012743321288948 32.064974776278511 0 0 1 I I #
straight-curve $-1 -40.601825006866655 -0.17012743321288948 4.7413601440255064 -0.7313536940579346 0 -0.68199836817093118 I I #
edge $-1 $686 -5.5152166870501551 $386 0.17012743321288948 $551 $693 forward 7 unknown #
point $-1 -40.601825006866662 -0.17012743321288948 8.9302293243485469 #
point $-1 -36.109812867349532 -0.17012743321288948 8.9302293243485469 #
edge $-1 $694 1 $694 0 $389 $-1 forward 7 unknown #
vertex $-1 $390 $695 #
ellipse-curve $-1 -37.446921395664802 1.4542566011479785 5.861121471789823 -0.68199836817093118 0 0.7313536940579346 0.3656768470289673 0 0.34099918408546559 1 I I #
point $-1 -37.990142090079125 1.4542566011479785 7.1767939182724856 #
edge $-1 $696 1 $696 0 $393 $-1 forward 7 unknown #
vertex $-1 $394 $697 #
ellipse-curve $-1 -37.446921395664802 3.8908326526892871 5.861121471789823 -0.68199836817093118 0 0.7313536940579346 0.3656768470289673 0 0.34099918408546559 1 I I #
point $-1 -37.990142090079125 3.8908326526892871 7.1767939182724856 #
loop $-1 $-1 $405 $397 #
plane-surface $-1 -40.601825006866662 0 0 1 0 0 0 0 -1 forward_v I I I I #
coedge $-1 $570 $400 $402 $574 reversed $257 $-1 #
coedge $-1 $400 $569 $698 $699 reversed $257 $-1 #
coedge $-1 $408 $403 $400 $572 forward $398 $-1 #
edge $-1 $575 -11.881478035528566 $700 -7.389465896011437 $571 $701 forward 7 unknown #
coedge $-1 $402 $401 $578 $702 reversed $161 $-1 #
edge $-1 $703 -9.4367341760026555e-015 $575 6.142051617450754 $569 $704 forward 7 unknown #
vertex $-1 $404 $705 #
straight-curve $-1 -36.109812867349532 5.8485095539106009 8.9302293243485469 0 1 0 I I #
coedge $-1 $698 $405 $408 $582 reversed $567 $-1 #
coedge $-1 $405 $698 $573 $702 forward $567 $-1 #
vertex $-1 $406 $706 #
straight-curve $-1 -40.601825006866662 8.8543470476896786 32.064974776278511 0 0 1 I I #
straight-curve $-1 -40.601825006866655 8.8543470476896786 4.7413601440255064 -0.7313536940579346 0 -0.68199836817093118 I I #
edge $-1 $700 -14.539691167952725 $409 -8.8543470476896786 $577 $707 forward 7 unknown #
point $-1 -40.601825006866662 8.8543470476896786 8.9302293243485469 #
point $-1 -36.109812867349532 8.8543470476896786 8.9302293243485469 #
edge $-1 $708 1 $708 0 $412 $-1 forward 7 unknown #
vertex $-1 $413 $709 #
ellipse-curve $-1 -37.446921395664802 10.478731082050547 5.861121471789823 -0.68199836817093118 0 0.7313536940579346 0.3656768470289673 0 0.34099918408546559 1 I I #
point $-1 -37.990142090079125 10.478731082050547 7.1767939182724856 #
edge $-1 $710 1 $710 0 $416 $-1 forward 7 unknown #
vertex $-1 $417 $711 #
ellipse-curve $-1 -37.446921395664802 12.915307133591856 5.861121471789823 -0.68199836817093118 0 0.7313536940579346 0.3656768470289673 0 0.34099918408546559 1 I I #
point $-1 -37.990142090079125 12.915307133591856 7.1767939182724856 #
plane-surface $-1 0 0 8.9302293243485469 0 0 1 1 0 0 forward_v I I I I #
coedge $-1 $604 $603 $596 $712 forward $421 $-1 #
coedge $-1 $596 $423 $425 $600 reversed $279 $-1 #
coedge $-1 $423 $595 $594 $712 reversed $279 $-1 #
coedge $-1 $431 $426 $423 $598 forward $432 $-1 #
edge $-1 $601 4.7195647371796738 $713 9.3447256564023462 $597 $714 forward 7 unknown #
coedge $-1 $425 $424 $604 $715 reversed $175 $-1 #
edge $-1 $716 -81.203650013733352 $601 -72.932513185058966 $595 $717 forward 7 unknown #
vertex $-1 $427 $718 #
straight-curve $-1 35.976664087643989 -3.669778441075688 8.9302293243485451 0 -1 0 I I #
coedge $-1 $594 $428 $431 $608 reversed $421 $-1 #
coedge $-1 $428 $594 $599 $715 forward $421 $-1 #
vertex $-1 $429 $719 #
straight-curve $-1 40.601825006866662 -3.6806126681902178 57.40126372803099 0 0 1 I I #
straight-curve $-1 -4.8066788447072071 -3.6806126681902178 69.394023604488126 0.55919289150049634 0 -0.82903758062907751 I I #
edge $-1 $713 -10.998501096112534 $433 -3.6806126681902178 $603 $720 forward 7 unknown #
point $-1 40.601825006866662 -3.6806126681902178 8.9302293243485469 #
point $-1 35.976664087643989 -3.6806126681902178 8.9302293243485451 #
edge $-1 $721 1 $721 0 $436 $-1 forward 7 unknown #
vertex $-1 $437 $722 #
ellipse-curve $-1 37.407429098857087 -8.907675830991872 4.9068956798975885 0.82903758062907751 0 0.55919289150049634 0.27959644575024817 0 -0.41451879031453875 1 I I #
point $-1 38.568840993005573 -8.907675830991872 5.0871689012858852 #
edge $-1 $723 1 $723 0 $440 $-1 forward 7 unknown #
vertex $-1 $441 $724 #
ellipse-curve $-1 37.407429098857087 -5.7714379333108781 4.9068956798975885 0.82903758062907751 0 0.55919289150049634 0.27959644575024817 0 -0.41451879031453875 1 I I #
point $-1 38.568840993005573 -5.7714379333108781 5.0871689012858852 #
plane-surface $-1 40.601825006866662 0 0 -1 0 0 0 0 1 forward_v I I I I #
coedge $-1 $449 $447 $451 $624 reversed $301 $-1 #
edge $-1 $462 -8.9302293243485469 $626 8.9302293243485469 $461 $725 forward 7 unknown #
vertex $-1 $624 $726 #
straight-curve $-1 -40.601825006866662 -22.352006620498255 0 0 0 -1 I I #
edge $-1 $622 -22.352006620498255 $626 22.352006620498255 $620 $727 forward 7 unknown #
straight-curve $-1 0 -22.352006620498255 -8.9302293243485469 -1 0 0 I I #
vertex $-1 $454 $728 #
straight-curve $-1 0 22.352006620498255 -8.9302293243485469 1 0 0 I I #
point $-1 40.601825006866662 22.352006620498255 -8.9302293243485469 #
point $-1 40.601825006866662 -22.352006620498255 -8.9302293243485469 #
straight-curve $-1 -40.601825006866662 0 8.9302293243485469 0 -1 0 I I #
point $-1 -40.601825006866662 22.352006620498255 8.9302293243485469 #
point $-1 -40.601825006866662 -22.352006620498255 8.9302293243485469 #
straight-curve $-1 40.601825006866662 -22.352006620498255 0 0 0 -1 I I #
straight-curve $-1 40.601825006866662 22.352006620498255 0 0 0 -1 I I #
plane-surface $-1 40.601825006866662 0 0 -1 0 0 0 0 1 forward_v I I I I #
coedge $-1 $729 $639 $478 $644 forward $472 $-1 #
coedge $-1 $479 $474 $729 $730 forward $320 $-1 #
edge $-1 $488 -5.6767527621928622 $731 5.6767527621928622 $486 $732 forward 7 unknown #
coedge $-1 $636 $733 $475 $640 reversed $472 $-1 #
edge $-1 $647 -40.601825006866662 $642 40.601825006866662 $639 $734 forward 7 unknown #
coedge $-1 $486 $476 $733 $735 forward $487 $-1 #
vertex $-1 $477 $736 #
straight-curve $-1 40.601825006866662 -28.028759382691113 7.2437977904383697 0 1 0 I I #
edge $-1 $647 -2.235378092020607 $645 2.235378092020607 $478 $737 forward 7 unknown #
vertex $-1 $480 $738 #
straight-curve $-1 -40.601825006866662 -28.028759382691113 2.7730416063971557 0 1 0 I I #
vertex $-1 $481 $739 #
straight-curve $-1 -40.601825006866662 -28.028759382691113 7.2437977904383697 0 -1 0 I I #
point $-1 -40.601825006866662 -22.352006620498251 2.7730416063971557 #
straight-curve $-1 0 -22.352006620498255 2.7730416063971557 -1 0 0 I I #
point $-1 40.601825006866662 -22.352006620498251 2.7730416063971557 #
plane-surface $-1 -40.601825006866662 0 0 1 0 0 0 0 -1 forward_v I I I I #
coedge $-1 $495 $506 $496 $655 forward $334 $-1 #
coedge $-1 $497 $496 $510 $665 reversed $205 $-1 #
edge $-1 $668 -40.601825006866662 $659 -36.327404685286481 $496 $740 forward 7 unknown #
coedge $-1 $508 $501 $497 $657 forward $493 $-1 #
edge $-1 $658 36.327404685286481 $666 40.601825006866662 $497 $741 forward 7 unknown #
vertex $-1 $657 $742 #
vertex $-1 $500 $743 #
straight-curve $-1 -36.327404685286481 22.352006620498255 0 0 0 -1 I I #
straight-curve $-1 -36.327404685286481 9.6067322417733596 -8.9302293243485469 0 -1 0 I I #
straight-curve $-1 -36.327404685286481 9.6067322417733596 8.9302293243485469 0 1 0 I I #
point $-1 -36.327404685286481 16.07492234659518 8.9302293243485469 #
point $-1 -36.327404685286481 16.07492234659518 -8.9302293243485469 #
edge $-1 $666 -8.9302293243485469 $668 8.9302293243485469 $654 $744 forward 7 unknown #
vertex $-1 $657 $745 #
straight-curve $-1 -40.601825006866662 0 8.9302293243485469 0 -1 0 I I #
vertex $-1 $655 $746 #
straight-curve $-1 -40.601825006866662 0 -8.9302293243485469 0 1 0 I I #
coedge $-1 $526 $525 $518 $671 forward $515 $-1 #
edge $-1 $672 23.134745451929966 $675 27.323614632253012 $670 $747 forward 7 unknown #
vertex $-1 $530 $748 #
straight-curve $-1 -47.991290902878099 -3.5092577938524174 8.9302293243485451 -1 0 0 I I #
edge $-1 $675 0.33329286686044757 $527 6.018636987123493 $526 $749 forward 7 unknown #
vertex $-1 $674 $750 #
straight-curve $-1 -40.601825006866655 -3.5092577938524174 4.7413601440255064 0.7313536940579346 0 0.68199836817093118 I I #
point $-1 -36.109812867349532 -3.5092577938524174 8.9302293243485469 #
point $-1 -40.601825006866662 -9.1946019141154629 4.7413601440255002 #
straight-curve $-1 -40.601825006866662 0 8.9302293243485469 0 -1 0 I I #
vertex $-1 $533 $751 #
point $-1 -37.081244548635837 -7.5702178797545905 6.202120655875289 #
vertex $-1 $537 $752 #
point $-1 -37.081244548635837 -5.1336418282132854 6.202120655875289 #
coedge $-1 $552 $551 $544 $685 forward $541 $-1 #
edge $-1 $686 23.134745451929966 $689 27.323614632253012 $684 $753 forward 7 unknown #
vertex $-1 $556 $754 #
straight-curve $-1 -47.991290902878099 5.5152166870501551 8.9302293243485451 -1 0 0 I I #
edge $-1 $689 -4.1789443735908387 $553 1.5063997466722059 $552 $755 forward 7 unknown #
vertex $-1 $688 $756 #
straight-curve $-1 -40.601825006866655 5.5152166870501551 4.7413601440255064 0.7313536940579346 0 0.68199836817093118 I I #
point $-1 -36.109812867349532 5.5152166870501551 8.9302293243485469 #
point $-1 -40.601825006866662 -0.17012743321288948 4.7413601440255002 #
straight-curve $-1 -40.601825006866662 0 8.9302293243485469 0 -1 0 I I #
vertex $-1 $559 $757 #
point $-1 -37.081244548635837 1.4542566011479785 6.202120655875289 #
vertex $-1 $563 $758 #
point $-1 -37.081244548635837 3.8908326526892871 6.202120655875289 #
coedge $-1 $578 $577 $570 $699 forward $567 $-1 #
edge $-1 $700 23.134745451929966 $703 27.323614632253012 $698 $759 forward 7 unknown #
vertex $-1 $582 $760 #
straight-curve $-1 -47.991290902878099 14.539691167952725 8.9302293243485451 -1 0 0 I I #
edge $-1 $703 -8.6911816140421241 $579 -3.0058374937790777 $578 $761 forward 7 unknown #
vertex $-1 $702 $762 #
straight-curve $-1 -40.601825006866655 14.539691167952725 4.7413601440255064 0.7313536940579346 0 0.68199836817093118 I I #
point $-1 -36.109812867349532 14.539691167952725 8.9302293243485469 #
point $-1 -40.601825006866662 8.8543470476896786 4.7413601440255002 #
straight-curve $-1 -40.601825006866662 0 8.9302293243485469 0 -1 0 I I #
vertex $-1 $585 $763 #
point $-1 -37.081244548635837 10.478731082050547 6.202120655875289 #
vertex $-1 $589 $764 #
point $-1 -37.081244548635837 12.915307133591856 6.202120655875289 #
edge $-1 $713 48.471034403682445 $716 55.328117669178717 $594 $765 forward 7 unknown #
vertex $-1 $608 $766 #
straight-curve $-1 31.257099350464316 -10.998501096112534 8.9302293243485451 1 0 0 I I #
edge $-1 $716 -7.3287226550368461 $605 -0.01083422711452986 $604 $767 forward 7 unknown #
vertex $-1 $715 $768 #
straight-curve $-1 -4.8066788447072071 -10.998501096112534 69.394023604488126 -0.55919289150049634 0 0.82903758062907751 I I #
point $-1 35.976664087643989 -10.998501096112534 8.9302293243485451 #
point $-1 40.601825006866662 -3.6806126681902178 2.0731460588522737 #
straight-curve $-1 40.601825006866662 0 8.9302293243485469 0 1 0 I I #
vertex $-1 $611 $769 #
point $-1 37.68702554460733 -8.907675830991872 4.4923768895830491 #
vertex $-1 $615 $770 #
point $-1 37.68702554460733 -5.7714379333108781 4.4923768895830491 #
straight-curve $-1 -40.601825006866662 22.352006620498255 0 0 0 -1 I I #
point $-1 -40.601825006866662 -22.352006620498255 -8.9302293243485469 #
straight-curve $-1 -40.601825006866662 0 -8.9302293243485469 0 1 0 I I #
point $-1 -40.601825006866662 22.352006620498255 -8.9302293243485469 #
coedge $-1 $733 $636 $637 $730 reversed $472 $-1 #
edge $-1 $731 -40.601825006866662 $645 40.601825006866662 $729 $771 forward 7 unknown #
vertex $-1 $735 $772 #
straight-curve $-1 40.601825006866662 -28.028759382691113 2.7730416063971557 0 -1 0 I I #
coedge $-1 $639 $729 $641 $735 reversed $472 $-1 #
straight-curve $-1 0 -33.705512144883976 7.2437977904383697 1 0 0 I I #
edge $-1 $642 -2.235378092020607 $731 2.235378092020607 $641 $773 forward 7 unknown #
point $-1 40.601825006866662 -33.705512144883976 7.2437977904383697 #
straight-curve $-1 -40.601825006866662 -33.705512144883976 5.0084196984177627 0 0 -1 I I #
point $-1 -40.601825006866662 -33.705512144883976 2.7730416063971557 #
point $-1 -40.601825006866662 -33.705512144883976 7.2437977904383697 #
straight-curve $-1 0 22.352006620498255 -8.9302293243485469 1 0 0 I I #
straight-curve $-1 0 22.352006620498255 8.9302293243485469 -1 0 0 I I #
point $-1 -36.327404685286481 22.352006620498258 8.9302293243485469 #
point $-1 -36.327404685286481 22.352006620498258 -8.9302293243485469 #
straight-curve $-1 -40.601825006866662 22.352006620498255 0 0 0 -1 I I #
point $-1 -40.601825006866662 22.352006620498255 8.9302293243485469 #
point $-1 -40.601825006866662 22.352006620498255 -8.9302293243485469 #
straight-curve $-1 -40.601825006866662 -3.5092577938524174 32.064974776278511 0 0 -1 I I #
point $-1 -40.601825006866662 -3.5092577938524174 8.9302293243485469 #
straight-curve $-1 -40.601825006866662 -3.1759649269919699 4.7413601440255029 0 -1 0 I I #
point $-1 -40.601825006866662 -3.5092577938524174 4.7413601440255002 #
point $-1 -37.10592221157934 -7.5702178797545905 5.4954446247608564 #
point $-1 -37.10592221157934 -5.1336418282132854 5.4954446247608564 #
straight-curve $-1 -40.601825006866662 5.5152166870501551 32.064974776278511 0 0 -1 I I #
point $-1 -40.601825006866662 5.5152166870501551 8.9302293243485469 #
straight-curve $-1 -40.601825006866662 1.3362723134593164 4.7413601440255029 0 -1 0 I I #
point $-1 -40.601825006866662 5.5152166870501551 4.7413601440255002 #
point $-1 -37.10592221157934 1.4542566011479785 5.4954446247608564 #
point $-1 -37.10592221157934 3.8908326526892871 5.4954446247608564 #
straight-curve $-1 -40.601825006866662 14.539691167952725 32.064974776278511 0 0 -1 I I #
point $-1 -40.601825006866662 14.539691167952725 8.9302293243485469 #
straight-curve $-1 -40.601825006866662 5.8485095539106009 4.7413601440255029 0 -1 0 I I #
point $-1 -40.601825006866662 14.539691167952725 4.7413601440255002 #
point $-1 -37.10592221157934 10.478731082050547 5.4954446247608564 #
point $-1 -37.10592221157934 12.915307133591856 5.4954446247608564 #
straight-curve $-1 40.601825006866662 -10.998501096112534 57.40126372803099 0 0 -1 I I #
point $-1 40.601825006866662 -10.998501096112534 8.9302293243485469 #
straight-curve $-1 40.601825006866662 -3.669778441075688 2.0731460588522808 0 1 0 I I #
point $-1 40.601825006866662 -10.998501096112534 2.0731460588522737 #
point $-1 36.992910308542541 -8.907675830991872 4.6272992341473396 #
point $-1 36.992910308542541 -5.7714379333108781 4.6272992341473396 #
straight-curve $-1 0 -33.705512144883976 2.7730416063971557 -1 0 0 I I #
point $-1 40.601825006866662 -33.705512144883976 2.7730416063971557 #
straight-curve $-1 40.601825006866662 -33.705512144883976 5.0084196984177627 0 0 -1 I I #
End-of-ACIS-data 