500 0 14 0           
7 Unknown 11 ACIS 5.0 NT 24 Fri Mar 26 20:31:26 1999 
-1 9.9999999999999995e-007 1e-010 
body $-1 $14 $-1 $15 #
body $-1 $16 $-1 $17 #
body $-1 $18 $-1 $19 #
body $-1 $20 $-1 $21 #
body $-1 $22 $-1 $23 #
body $-1 $24 $-1 $25 #
body $-1 $26 $-1 $27 #
body $-1 $28 $-1 $29 #
body $-1 $30 $-1 $31 #
body $-1 $32 $-1 $33 #
body $-1 $34 $-1 $35 #
body $-1 $36 $-1 $37 #
body $-1 $38 $-1 $39 #
body $-1 $40 $-1 $41 #
lump $-1 $-1 $42 $0 #
transform $-1 1 0 0 0 1 0 0 0 1 50.810876796777244 33.819851092939608 13.408213189433267 1 rotate no_reflect no_shear #
lump $-1 $-1 $43 $1 #
transform $-1 1 0 0 0 1 0 0 0 1 50.810876796777244 33.819851092939608 13.408213189433267 1 rotate no_reflect no_shear #
lump $-1 $-1 $44 $2 #
transform $-1 1 0 0 0 1 0 0 0 1 50.810876796777244 33.819851092939608 13.408213189433267 1 rotate no_reflect no_shear #
lump $-1 $-1 $45 $3 #
transform $-1 1 0 0 0 1 0 0 0 1 50.810876796777244 33.819851092939608 13.408213189433267 1 rotate no_reflect no_shear #
lump $-1 $-1 $46 $4 #
transform $-1 1 0 0 0 1 0 0 0 1 50.810876796777244 33.819851092939608 13.408213189433267 1 rotate no_reflect no_shear #
lump $-1 $-1 $47 $5 #
transform $-1 1 0 0 0 1 0 0 0 1 50.810876796777244 33.819851092939608 13.408213189433267 1 rotate no_reflect no_shear #
lump $-1 $-1 $48 $6 #
transform $-1 1 0 0 0 1 0 0 0 1 50.810876796777244 33.819851092939608 13.408213189433267 1 rotate no_reflect no_shear #
lump $-1 $-1 $49 $7 #
transform $-1 1 0 0 0 1 0 0 0 1 50.810876796777244 33.819851092939608 13.408213189433267 1 rotate no_reflect no_shear #
lump $-1 $-1 $50 $8 #
transform $-1 1 0 0 0 1 0 0 0 1 50.810876796777244 33.819851092939608 13.408213189433267 1 rotate no_reflect no_shear #
lump $-1 $-1 $51 $9 #
transform $-1 1 0 0 0 1 0 0 0 1 50.810876796777244 33.819851092939608 13.408213189433267 1 rotate no_reflect no_shear #
lump $-1 $-1 $52 $10 #
transform $-1 1 0 0 0 1 0 0 0 1 50.810876796777244 33.819851092939608 13.408213189433267 1 rotate no_reflect no_shear #
lump $-1 $-1 $53 $11 #
transform $-1 1 0 0 0 1 0 0 0 1 50.810876796777244 33.819851092939608 13.408213189433267 1 rotate no_reflect no_shear #
lump $-1 $-1 $54 $12 #
transform $-1 1 0 0 0 1 0 0 0 1 50.810876796777244 33.819851092939608 13.408213189433267 1 rotate no_reflect no_shear #
lump $-1 $-1 $55 $13 #
transform $-1 1 0 0 0 1 0 0 0 1 50.810876796777244 33.819851092939608 13.408213189433267 1 rotate no_reflect no_shear #
shell $-1 $-1 $-1 $56 $-1 $14 #
shell $-1 $-1 $-1 $57 $-1 $16 #
shell $-1 $-1 $-1 $58 $-1 $18 #
shell $-1 $-1 $-1 $59 $-1 $20 #
shell $-1 $-1 $-1 $60 $-1 $22 #
shell $-1 $-1 $-1 $61 $-1 $24 #
shell $-1 $-1 $-1 $62 $-1 $26 #
shell $-1 $-1 $-1 $63 $-1 $28 #
shell $-1 $-1 $-1 $64 $-1 $30 #
shell $-1 $-1 $-1 $65 $-1 $32 #
shell $-1 $-1 $-1 $66 $-1 $34 #
shell $-1 $-1 $-1 $67 $-1 $36 #
shell $-1 $-1 $-1 $68 $-1 $38 #
shell $-1 $-1 $-1 $69 $-1 $40 #
face $-1 $70 $71 $42 $-1 $72 forward single #
face $-1 $73 $74 $43 $-1 $75 forward single #
face $-1 $76 $77 $44 $-1 $78 forward single #
face $-1 $79 $80 $45 $-1 $81 reversed single #
face $-1 $82 $83 $46 $-1 $84 forward single #
face $-1 $85 $86 $47 $-1 $87 reversed single #
face $-1 $88 $89 $48 $-1 $90 forward single #
face $-1 $91 $92 $49 $-1 $93 reversed single #
face $-1 $94 $95 $50 $-1 $96 forward single #
face $-1 $97 $98 $51 $-1 $99 reversed single #
face $-1 $100 $101 $52 $-1 $102 forward single #
face $-1 $103 $104 $53 $-1 $105 reversed single #
face $-1 $106 $107 $54 $-1 $108 forward single #
face $-1 $109 $110 $55 $-1 $111 forward single #
face $-1 $112 $113 $42 $-1 $114 reversed single #
loop $-1 $-1 $115 $56 #
plane-surface $-1 0 0 13.408213189433267 0 0 1 1 0 0 forward_v I I I I #
face $-1 $116 $117 $43 $-1 $118 reversed single #
loop $-1 $-1 $119 $57 #
plane-surface $-1 0 -27.630766050466164 -5.765609419205747 0 0 1 1 0 0 forward_v I I I I #
face $-1 $120 $121 $44 $-1 $122 reversed single #
loop $-1 $-1 $123 $58 #
plane-surface $-1 0 27.630766050466164 -5.765609419205747 0 0 1 1 0 0 forward_v I I I I #
face $-1 $124 $125 $45 $-1 $126 reversed single #
loop $-1 $-1 $127 $59 #
plane-surface $-1 58.332333310645971 -12.962771138245941 149.3069523078982 0 -1 0 -0.74314483375859142 0 -0.66913059716165679 forward_v I I I I #
face $-1 $128 $129 $46 $-1 $130 forward single #
loop $-1 $131 $132 $60 #
cone-surface $-1 46.309528994794512 -16.177393165193433 8.6341317863475098 -0.74314483375859142 0 -0.66913059716165679 0.66913059716165679 0 -0.74314483375859142 1 I I 0 1 1 forward I I I I #
face $-1 $133 $134 $47 $-1 $135 reversed single #
loop $-1 $-1 $136 $61 #
plane-surface $-1 58.332333310645971 -2.1778423614503204 149.3069523078982 0 -1 0 -0.74314483375859142 0 -0.66913059716165679 forward_v I I I I #
face $-1 $137 $138 $48 $-1 $139 forward single #
loop $-1 $140 $141 $62 #
cone-surface $-1 46.309528994794512 -5.3924643883978121 8.6341317863475098 -0.74314483375859142 0 -0.66913059716165679 0.66913059716165679 0 -0.74314483375859142 1 I I 0 1 1 forward I I I I #
face $-1 $142 $143 $49 $-1 $144 reversed single #
loop $-1 $-1 $145 $63 #
plane-surface $-1 58.332333310645971 8.6070864153453037 149.3069523078982 0 -1 0 -0.74314483375859142 0 -0.66913059716165679 forward_v I I I I #
face $-1 $146 $147 $50 $-1 $148 forward single #
loop $-1 $149 $150 $64 #
cone-surface $-1 46.309528994794512 5.3924643883978121 8.6341317863475098 -0.74314483375859142 0 -0.66913059716165679 0.66913059716165679 0 -0.74314483375859142 1 I I 0 1 1 forward I I I I #
face $-1 $151 $152 $51 $-1 $153 reversed single #
loop $-1 $-1 $154 $65 #
plane-surface $-1 58.332333310645971 19.392015192140928 149.3069523078982 0 -1 0 -0.74314483375859142 0 -0.66913059716165679 forward_v I I I I #
face $-1 $155 $156 $52 $-1 $157 forward single #
loop $-1 $158 $159 $66 #
cone-surface $-1 46.309528994794512 16.177393165193436 8.6341317863475098 -0.74314483375859142 0 -0.66913059716165679 0.66913059716165679 0 -0.74314483375859142 1 I I 0 1 1 forward I I I I #
face $-1 $160 $161 $53 $-1 $162 reversed single #
loop $-1 $-1 $163 $67 #
plane-surface $-1 -118.80910321588911 -3.1563785500903201 77.992531547569371 0 1 0 -0.66913061440640931 0 0.74314481823134659 forward_v I I I I #
face $-1 $164 $165 $54 $-1 $166 forward single #
loop $-1 $167 $168 $68 #
cone-surface $-1 -44.403837095658659 -1.2764004901251624 7.568960158069264 0.66913061440640931 0 -0.74314481823134659 0.3715724091156733 0 0.33456530720320465 1 I I 0 1 0.5 forward I I I I #
face $-1 $169 $170 $55 $-1 $171 forward single #
loop $-1 $172 $173 $69 #
cone-surface $-1 -44.403837095658659 1.5435665998225758 7.568960158069264 0.66913061440640931 0 -0.74314481823134659 0.3715724091156733 0 0.33456530720320465 1 I I 0 1 0.5 forward I I I I #
face $-1 $174 $175 $42 $-1 $176 reversed single #
loop $-1 $-1 $177 $70 #
plane-surface $-1 0 0 -13.408213189433267 0 0 1 1 0 0 forward_v I I I I #
coedge $-1 $178 $179 $180 $181 forward $71 $-1 #
face $-1 $182 $183 $43 $-1 $184 reversed single #
loop $-1 $-1 $185 $73 #
plane-surface $-1 0 -21.44168100799272 -9.5869113043195071 0 -1 0 0 0 -1 forward_v I I I I #
coedge $-1 $186 $187 $188 $189 reversed $74 $-1 #
face $-1 $190 $191 $44 $-1 $192 reversed single #
loop $-1 $-1 $193 $76 #
plane-surface $-1 0 21.44168100799272 -9.5869113043195071 0 1 0 0 0 1 forward_v I I I I #
coedge $-1 $194 $195 $196 $197 reversed $77 $-1 #
face $-1 $198 $199 $45 $-1 $200 reversed single #
loop $-1 $-1 $201 $79 #
plane-surface $-1 -17.187347869892612 -16.177393165193433 81.308727641228344 0.74314483375859142 0 0.66913059716165679 0.66913059716165679 0 -0.74314483375859142 forward_v I I I I #
coedge $-1 $202 $203 $204 $205 reversed $80 $-1 #
face $-1 $-1 $206 $46 $-1 $207 forward single #
loop $-1 $208 $209 $82 #
cone-surface $-1 44.866772958931115 -16.177393165193433 7.335068449052665 -0.74314483375859142 0 -0.66913059716165679 0.3345652985808284 0 -0.37157241687929571 1 I I -0.70710678118654746 0.70710678118654746 0.5 forward I I I I #
loop $-1 $-1 $210 $60 #
coedge $-1 $132 $132 $211 $212 reversed $83 $-1 #
face $-1 $213 $214 $47 $-1 $215 reversed single #
loop $-1 $-1 $216 $85 #
plane-surface $-1 -17.187347869892612 -5.3924643883978121 81.308727641228344 0.74314483375859142 0 0.66913059716165679 0.66913059716165679 0 -0.74314483375859142 forward_v I I I I #
coedge $-1 $217 $218 $219 $220 reversed $86 $-1 #
face $-1 $-1 $221 $48 $-1 $222 forward single #
loop $-1 $223 $224 $88 #
cone-surface $-1 44.866772958931115 -5.3924643883978121 7.335068449052665 -0.74314483375859142 0 -0.66913059716165679 0.3345652985808284 0 -0.37157241687929571 1 I I -0.70710678118654746 0.70710678118654746 0.5 forward I I I I #
loop $-1 $-1 $225 $62 #
coedge $-1 $141 $141 $226 $227 reversed $89 $-1 #
face $-1 $228 $229 $49 $-1 $230 reversed single #
loop $-1 $-1 $231 $91 #
plane-surface $-1 -17.187347869892612 5.3924643883978121 81.308727641228344 0.74314483375859142 0 0.66913059716165679 0.66913059716165679 0 -0.74314483375859142 forward_v I I I I #
coedge $-1 $232 $233 $234 $235 reversed $92 $-1 #
face $-1 $-1 $236 $50 $-1 $237 forward single #
loop $-1 $238 $239 $94 #
cone-surface $-1 44.866772958931115 5.3924643883978121 7.335068449052665 -0.74314483375859142 0 -0.66913059716165679 0.3345652985808284 0 -0.37157241687929571 1 I I -0.70710678118654746 0.70710678118654746 0.5 forward I I I I #
loop $-1 $-1 $240 $64 #
coedge $-1 $150 $150 $241 $242 reversed $95 $-1 #
face $-1 $243 $244 $51 $-1 $245 reversed single #
loop $-1 $-1 $246 $97 #
plane-surface $-1 -17.187347869892612 16.177393165193436 81.308727641228344 0.74314483375859142 0 0.66913059716165679 0.66913059716165679 0 -0.74314483375859142 forward_v I I I I #
coedge $-1 $247 $248 $249 $250 reversed $98 $-1 #
face $-1 $-1 $251 $52 $-1 $252 forward single #
loop $-1 $253 $254 $100 #
cone-surface $-1 44.866772958931115 16.177393165193436 7.335068449052665 -0.74314483375859142 0 -0.66913059716165679 0.3345652985808284 0 -0.37157241687929571 1 I I -0.70710678118654746 0.70710678118654746 0.5 forward I I I I #
loop $-1 $-1 $255 $66 #
coedge $-1 $159 $159 $256 $257 reversed $101 $-1 #
face $-1 $258 $259 $53 $-1 $260 reversed single #
loop $-1 $-1 $261 $103 #
plane-surface $-1 -50.810876796777265 0.13358305484870669 2.4728519449366217 -0.66913061440640931 0 0.74314481823134659 0.74314481823134659 0 0.66913061440640931 forward_v I I I I #
coedge $-1 $262 $263 $264 $265 reversed $104 $-1 #
face $-1 $-1 $266 $54 $-1 $267 forward single #
loop $-1 $268 $269 $106 #
cone-surface $-1 -43.901989134853849 -1.2764004901251624 7.011601544395754 0.66913061440640931 0 -0.74314481823134659 0.18578620455783665 0 0.16728265360160233 1 I I -0.70710678118654746 0.70710678118654746 0.25 forward I I I I #
loop $-1 $-1 $270 $68 #
coedge $-1 $168 $168 $271 $272 reversed $107 $-1 #
face $-1 $-1 $273 $55 $-1 $274 forward single #
loop $-1 $275 $276 $109 #
cone-surface $-1 -43.901989134853849 1.5435665998225758 7.011601544395754 0.66913061440640931 0 -0.74314481823134659 0.18578620455783665 0 0.16728265360160233 1 I I -0.70710678118654746 0.70710678118654746 0.25 forward I I I I #
loop $-1 $-1 $277 $69 #
coedge $-1 $173 $173 $278 $279 reversed $110 $-1 #
face $-1 $280 $281 $42 $-1 $282 reversed single #
loop $-1 $-1 $283 $112 #
plane-surface $-1 0 -33.819851092939608 0 0 1 0 0 0 1 forward_v I I I I #
coedge $-1 $284 $285 $286 $287 forward $113 $-1 #
coedge $-1 $288 $115 $289 $290 forward $71 $-1 #
coedge $-1 $115 $288 $291 $292 forward $71 $-1 #
coedge $-1 $293 $294 $115 $181 reversed $295 $-1 #
edge $-1 $296 -33.819851092939608 $297 33.819851092939608 $180 $298 forward 7 unknown #
face $-1 $299 $300 $43 $-1 $301 reversed single #
loop $-1 $-1 $302 $116 #
plane-surface $-1 0 0 -13.408213189433267 0 0 1 1 0 0 forward_v I I I I #
coedge $-1 $303 $304 $305 $306 reversed $117 $-1 #
coedge $-1 $307 $119 $304 $308 forward $74 $-1 #
coedge $-1 $119 $307 $309 $310 reversed $74 $-1 #
coedge $-1 $311 $305 $119 $189 forward $300 $-1 #
edge $-1 $312 7.6262979827596382 $313 20.004468067706526 $188 $314 forward 7 unknown #
face $-1 $315 $316 $44 $-1 $317 reversed single #
loop $-1 $-1 $196 $120 #
plane-surface $-1 50.810876796777244 0 0 -1 0 0 0 0 1 forward_v I I I I #
coedge $-1 $318 $319 $320 $321 reversed $121 $-1 #
coedge $-1 $322 $123 $323 $324 reversed $77 $-1 #
coedge $-1 $123 $322 $319 $325 forward $77 $-1 #
coedge $-1 $326 $327 $123 $197 forward $191 $-1 #
edge $-1 $328 -20.004468067706526 $329 -7.6262979827596382 $196 $330 forward 7 unknown #
face $-1 $331 $332 $45 $-1 $333 forward single #
loop $-1 $-1 $334 $124 #
plane-surface $-1 58.332333310645971 -19.392015192140924 149.3069523078982 0 1 0 0.74314483375859142 0 0.66913059716165679 forward_v I I I I #
coedge $-1 $335 $336 $337 $338 reversed $125 $-1 #
coedge $-1 $203 $127 $339 $340 reversed $80 $-1 #
coedge $-1 $127 $202 $335 $341 reversed $80 $-1 #
coedge $-1 $337 $342 $127 $205 forward $332 $-1 #
edge $-1 $343 -21.644710141454258 $344 -14.78438177545701 $204 $345 forward 7 unknown #
loop $-1 $-1 $211 $128 #
plane-surface $-1 -17.187347869892612 -16.177393165193433 81.308727641228344 0.74314483375859142 0 0.66913059716165679 0.66913059716165679 0 -0.74314483375859142 forward_v I I I I #
loop $-1 $-1 $346 $82 #
coedge $-1 $209 $209 $210 $347 reversed $129 $-1 #
coedge $-1 $210 $210 $209 $347 forward $131 $-1 #
coedge $-1 $211 $211 $132 $212 forward $206 $-1 #
edge $-1 $348 0 $348 6.2831853071796004 $211 $349 forward 7 unknown #
face $-1 $350 $351 $47 $-1 $352 reversed single #
loop $-1 $-1 $353 $133 #
plane-surface $-1 58.332333310645971 -8.6070864153453037 149.3069523078982 0 1 0 0.74314483375859142 0 0.66913059716165679 forward_v I I I I #
coedge $-1 $354 $355 $356 $357 reversed $134 $-1 #
coedge $-1 $218 $136 $358 $359 reversed $86 $-1 #
coedge $-1 $136 $217 $354 $360 reversed $86 $-1 #
coedge $-1 $356 $361 $136 $220 forward $362 $-1 #
edge $-1 $363 -21.644710141454258 $364 -14.78438177545701 $219 $365 forward 7 unknown #
loop $-1 $-1 $226 $137 #
plane-surface $-1 -17.187347869892612 -5.3924643883978121 81.308727641228344 0.74314483375859142 0 0.66913059716165679 0.66913059716165679 0 -0.74314483375859142 forward_v I I I I #
loop $-1 $-1 $366 $88 #
coedge $-1 $224 $224 $225 $367 reversed $138 $-1 #
coedge $-1 $225 $225 $224 $367 forward $140 $-1 #
coedge $-1 $226 $226 $141 $227 forward $221 $-1 #
edge $-1 $368 0 $368 6.2831853071796004 $226 $369 forward 7 unknown #
face $-1 $370 $371 $49 $-1 $372 reversed single #
loop $-1 $-1 $373 $142 #
plane-surface $-1 58.332333310645971 2.1778423614503204 149.3069523078982 0 1 0 0.74314483375859142 0 0.66913059716165679 forward_v I I I I #
coedge $-1 $374 $375 $376 $377 reversed $143 $-1 #
coedge $-1 $233 $145 $378 $379 reversed $92 $-1 #
coedge $-1 $145 $232 $374 $380 reversed $92 $-1 #
coedge $-1 $376 $381 $145 $235 forward $382 $-1 #
edge $-1 $383 -21.644710141454258 $384 -14.78438177545701 $234 $385 forward 7 unknown #
loop $-1 $-1 $241 $146 #
plane-surface $-1 -17.187347869892612 5.3924643883978121 81.308727641228344 0.74314483375859142 0 0.66913059716165679 0.66913059716165679 0 -0.74314483375859142 forward_v I I I I #
loop $-1 $-1 $386 $94 #
coedge $-1 $239 $239 $240 $387 reversed $147 $-1 #
coedge $-1 $240 $240 $239 $387 forward $149 $-1 #
coedge $-1 $241 $241 $150 $242 forward $236 $-1 #
edge $-1 $388 0 $388 6.2831853071796004 $241 $389 forward 7 unknown #
face $-1 $390 $391 $51 $-1 $392 reversed single #
loop $-1 $-1 $393 $151 #
plane-surface $-1 58.332333310645971 12.962771138245945 149.3069523078982 0 1 0 0.74314483375859142 0 0.66913059716165679 forward_v I I I I #
coedge $-1 $394 $395 $396 $397 reversed $152 $-1 #
coedge $-1 $248 $154 $398 $399 reversed $98 $-1 #
coedge $-1 $154 $247 $394 $400 reversed $98 $-1 #
coedge $-1 $396 $401 $154 $250 forward $402 $-1 #
edge $-1 $403 -21.644710141454258 $404 -14.78438177545701 $249 $405 forward 7 unknown #
loop $-1 $-1 $256 $155 #
plane-surface $-1 -17.187347869892612 16.177393165193436 81.308727641228344 0.74314483375859142 0 0.66913059716165679 0.66913059716165679 0 -0.74314483375859142 forward_v I I I I #
loop $-1 $-1 $406 $100 #
coedge $-1 $254 $254 $255 $407 reversed $156 $-1 #
coedge $-1 $255 $255 $254 $407 forward $158 $-1 #
coedge $-1 $256 $256 $159 $257 forward $251 $-1 #
edge $-1 $408 0 $408 6.2831853071796004 $256 $409 forward 7 unknown #
face $-1 $410 $411 $53 $-1 $412 reversed single #
loop $-1 $-1 $413 $160 #
plane-surface $-1 -118.80910321588911 3.4235446597877335 77.992531547569371 0 -1 0 0.66913061440640931 0 -0.74314481823134659 forward_v I I I I #
coedge $-1 $414 $415 $416 $417 reversed $161 $-1 #
coedge $-1 $263 $163 $418 $419 reversed $104 $-1 #
coedge $-1 $163 $262 $414 $420 reversed $104 $-1 #
coedge $-1 $416 $421 $163 $265 forward $422 $-1 #
edge $-1 $423 8.5936748111673111 $424 20.738623598998046 $264 $425 forward 7 unknown #
loop $-1 $-1 $271 $164 #
plane-surface $-1 -50.810876796777265 0.13358305484870669 2.4728519449366217 -0.66913061440640931 0 0.74314481823134659 0.74314481823134659 0 0.66913061440640931 forward_v I I I I #
loop $-1 $-1 $426 $106 #
coedge $-1 $269 $269 $270 $427 reversed $165 $-1 #
coedge $-1 $270 $270 $269 $427 forward $167 $-1 #
coedge $-1 $271 $271 $168 $272 forward $266 $-1 #
edge $-1 $428 0 $428 6.2831853071796004 $271 $429 forward 7 unknown #
loop $-1 $-1 $278 $169 #
plane-surface $-1 -50.810876796777265 0.13358305484870669 2.4728519449366217 -0.66913061440640931 0 0.74314481823134659 0.74314481823134659 0 0.66913061440640931 forward_v I I I I #
loop $-1 $-1 $430 $109 #
coedge $-1 $276 $276 $277 $431 reversed $170 $-1 #
coedge $-1 $277 $277 $276 $431 forward $172 $-1 #
coedge $-1 $278 $278 $173 $279 forward $273 $-1 #
edge $-1 $432 0 $432 6.2831853071796004 $278 $433 forward 7 unknown #
face $-1 $434 $435 $42 $-1 $436 reversed single #
loop $-1 $-1 $437 $174 #
plane-surface $-1 -50.810876796777244 0 0 1 0 0 0 0 -1 forward_v I I I I #
coedge $-1 $438 $291 $439 $440 forward $175 $-1 #
coedge $-1 $441 $177 $438 $442 forward $113 $-1 #
coedge $-1 $177 $441 $443 $444 forward $113 $-1 #
coedge $-1 $294 $293 $177 $287 reversed $295 $-1 #
edge $-1 $445 -33.819851092939608 $446 33.819851092939608 $286 $447 forward 7 unknown #
coedge $-1 $179 $178 $448 $449 forward $71 $-1 #
coedge $-1 $450 $451 $178 $290 reversed $435 $-1 #
edge $-1 $297 -50.810876796777244 $452 50.810876796777244 $289 $453 forward 7 unknown #
coedge $-1 $283 $454 $179 $292 reversed $175 $-1 #
edge $-1 $455 -50.810876796777244 $296 50.810876796777244 $291 $456 forward 7 unknown #
coedge $-1 $286 $180 $454 $457 forward $295 $-1 #
coedge $-1 $180 $286 $450 $458 reversed $295 $-1 #
loop $-1 $-1 $293 $434 #
vertex $-1 $181 $459 #
vertex $-1 $181 $460 #
straight-curve $-1 50.810876796777244 0 13.408213189433267 0 1 0 I I #
face $-1 $461 $462 $43 $-1 $463 reversed single #
loop $-1 $-1 $305 $182 #
plane-surface $-1 50.810876796777244 0 0 -1 0 0 0 0 1 forward_v I I I I #
coedge $-1 $464 $465 $303 $466 forward $183 $-1 #
coedge $-1 $467 $185 $302 $466 reversed $117 $-1 #
coedge $-1 $185 $467 $186 $308 reversed $117 $-1 #
coedge $-1 $188 $468 $185 $306 forward $300 $-1 #
edge $-1 $469 -8.6147575372735137 $312 -0.97215376704599343 $305 $470 forward 7 unknown #
coedge $-1 $187 $186 $471 $472 reversed $74 $-1 #
edge $-1 $312 -50.810876796777244 $473 50.810876796777244 $304 $474 forward 7 unknown #
coedge $-1 $475 $476 $187 $310 forward $462 $-1 #
edge $-1 $313 -50.810876796777244 $477 50.810876796777244 $309 $478 forward 7 unknown #
coedge $-1 $468 $188 $476 $479 forward $300 $-1 #
vertex $-1 $189 $480 #
vertex $-1 $479 $481 #
straight-curve $-1 50.810876796777244 -13.815383025233082 -5.765609419205747 0 -1 0 I I #
face $-1 $482 $483 $44 $-1 $484 reversed single #
loop $-1 $-1 $485 $190 #
plane-surface $-1 0 0 -13.408213189433267 0 0 1 1 0 0 forward_v I I I I #
coedge $-1 $486 $193 $485 $487 reversed $121 $-1 #
coedge $-1 $193 $486 $195 $325 reversed $121 $-1 #
coedge $-1 $488 $489 $193 $321 forward $483 $-1 #
edge $-1 $490 -8.6147575372735137 $491 -0.97215376704599343 $320 $492 forward 7 unknown #
coedge $-1 $195 $194 $488 $493 reversed $77 $-1 #
coedge $-1 $494 $495 $194 $324 forward $496 $-1 #
edge $-1 $497 -50.810876796777244 $328 50.810876796777244 $323 $498 forward 7 unknown #
edge $-1 $491 -50.810876796777244 $329 50.810876796777244 $319 $499 forward 7 unknown #
coedge $-1 $500 $196 $486 $501 forward $191 $-1 #
coedge $-1 $196 $500 $494 $502 reversed $191 $-1 #
vertex $-1 $502 $503 #
vertex $-1 $197 $504 #
straight-curve $-1 50.810876796777244 13.815383025233082 -5.765609419205747 0 -1 0 I I #
face $-1 $-1 $505 $45 $-1 $506 reversed single #
loop $-1 $-1 $204 $198 #
plane-surface $-1 0 0 13.408213189433267 0 0 1 1 0 0 forward_v I I I I #
coedge $-1 $507 $508 $509 $510 reversed $199 $-1 #
coedge $-1 $511 $201 $203 $341 forward $125 $-1 #
coedge $-1 $201 $511 $507 $512 forward $125 $-1 #
coedge $-1 $509 $204 $201 $338 forward $332 $-1 #
edge $-1 $344 4.8740745556492246 $513 11.303318609544208 $337 $514 forward 7 unknown #
coedge $-1 $515 $516 $202 $340 forward $505 $-1 #
edge $-1 $517 -68.864429693259339 $343 -61.245262964515831 $339 $518 forward 7 unknown #
edge $-1 $344 91.369153585278582 $517 101.62175359355447 $203 $519 forward 7 unknown #
coedge $-1 $204 $509 $515 $520 forward $332 $-1 #
vertex $-1 $340 $521 #
vertex $-1 $205 $522 #
straight-curve $-1 29.166166655322986 -12.962771138245941 13.408213189433269 -1 0 0 I I #
coedge $-1 $346 $346 $-1 $523 reversed $208 $-1 #
edge $-1 $524 0 $524 6.2831853071796004 $209 $525 forward 7 unknown #
vertex $-1 $212 $526 #
ellipse-curve $-1 47.380712613778606 -16.177393165193433 9.5986298250615238 0.74314483375859142 0 0.66913059716165679 0.66913059716165679 0 -0.74314483375859142 1 I I #
face $-1 $-1 $362 $47 $-1 $527 forward single #
loop $-1 $-1 $528 $213 #
plane-surface $-1 50.810876796777244 0 0 -1 0 0 0 0 1 forward_v I I I I #
coedge $-1 $529 $530 $531 $532 reversed $214 $-1 #
coedge $-1 $533 $216 $218 $360 forward $134 $-1 #
coedge $-1 $216 $533 $529 $534 forward $134 $-1 #
coedge $-1 $531 $219 $216 $357 forward $362 $-1 #
edge $-1 $364 -0.51838983274858563 $535 5.9108542211463977 $356 $536 forward 7 unknown #
coedge $-1 $537 $538 $217 $359 forward $351 $-1 #
edge $-1 $539 -68.864429693259339 $363 -61.245262964515831 $358 $540 forward 7 unknown #
edge $-1 $364 91.369153585278582 $539 101.62175359355447 $218 $541 forward 7 unknown #
coedge $-1 $219 $531 $537 $542 forward $362 $-1 #
loop $-1 $-1 $531 $350 #
vertex $-1 $359 $543 #
vertex $-1 $220 $544 #
straight-curve $-1 29.166166655322986 -2.1778423614503204 13.408213189433269 -1 0 0 I I #
coedge $-1 $366 $366 $-1 $545 reversed $223 $-1 #
edge $-1 $546 0 $546 6.2831853071796004 $224 $547 forward 7 unknown #
vertex $-1 $227 $548 #
ellipse-curve $-1 47.380712613778606 -5.3924643883978121 9.5986298250615238 0.74314483375859142 0 0.66913059716165679 0.66913059716165679 0 -0.74314483375859142 1 I I #
face $-1 $-1 $382 $49 $-1 $549 forward single #
loop $-1 $-1 $550 $228 #
plane-surface $-1 50.810876796777244 0 0 -1 0 0 0 0 1 forward_v I I I I #
coedge $-1 $551 $552 $553 $554 reversed $229 $-1 #
coedge $-1 $555 $231 $233 $380 forward $143 $-1 #
coedge $-1 $231 $555 $551 $556 forward $143 $-1 #
coedge $-1 $553 $234 $231 $377 forward $382 $-1 #
edge $-1 $384 -5.9108542211463977 $557 0.51838983274858563 $376 $558 forward 7 unknown #
coedge $-1 $559 $560 $232 $379 forward $371 $-1 #
edge $-1 $561 -68.864429693259339 $383 -61.245262964515831 $378 $562 forward 7 unknown #
edge $-1 $384 91.369153585278582 $561 101.62175359355447 $233 $563 forward 7 unknown #
coedge $-1 $234 $553 $559 $564 forward $382 $-1 #
loop $-1 $-1 $553 $370 #
vertex $-1 $379 $565 #
vertex $-1 $235 $566 #
straight-curve $-1 29.166166655322986 8.6070864153453037 13.408213189433269 -1 0 0 I I #
coedge $-1 $386 $386 $-1 $567 reversed $238 $-1 #
edge $-1 $568 0 $568 6.2831853071796004 $239 $569 forward 7 unknown #
vertex $-1 $242 $570 #
ellipse-curve $-1 47.380712613778606 5.3924643883978121 9.5986298250615238 0.74314483375859142 0 0.66913059716165679 0.66913059716165679 0 -0.74314483375859142 1 I I #
face $-1 $-1 $402 $51 $-1 $571 forward single #
loop $-1 $-1 $572 $243 #
plane-surface $-1 50.810876796777244 0 0 -1 0 0 0 0 1 forward_v I I I I #
coedge $-1 $573 $574 $575 $576 reversed $244 $-1 #
coedge $-1 $577 $246 $248 $400 forward $152 $-1 #
coedge $-1 $246 $577 $573 $578 forward $152 $-1 #
coedge $-1 $575 $249 $246 $397 forward $402 $-1 #
edge $-1 $404 -11.30331860954421 $579 -4.8740745556492264 $396 $580 forward 7 unknown #
coedge $-1 $581 $582 $247 $399 forward $391 $-1 #
edge $-1 $583 -68.864429693259339 $403 -61.245262964515831 $398 $584 forward 7 unknown #
edge $-1 $404 91.369153585278582 $583 101.62175359355447 $248 $585 forward 7 unknown #
coedge $-1 $249 $575 $581 $586 forward $402 $-1 #
loop $-1 $-1 $575 $390 #
vertex $-1 $399 $587 #
vertex $-1 $250 $588 #
straight-curve $-1 29.166166655322986 19.392015192140928 13.408213189433269 -1 0 0 I I #
coedge $-1 $406 $406 $-1 $589 reversed $253 $-1 #
edge $-1 $590 0 $590 6.2831853071796004 $254 $591 forward 7 unknown #
vertex $-1 $257 $592 #
ellipse-curve $-1 47.380712613778606 16.177393165193436 9.5986298250615238 0.74314483375859142 0 0.66913059716165679 0.66913059716165679 0 -0.74314483375859142 1 I I #
face $-1 $-1 $422 $53 $-1 $593 forward single #
loop $-1 $-1 $594 $258 #
plane-surface $-1 -50.810876796777244 0 0 1 0 0 0 0 -1 forward_v I I I I #
coedge $-1 $595 $596 $597 $598 reversed $259 $-1 #
coedge $-1 $599 $261 $263 $420 forward $161 $-1 #
coedge $-1 $261 $599 $595 $600 forward $161 $-1 #
coedge $-1 $597 $264 $261 $417 forward $422 $-1 #
edge $-1 $424 -3.2231700775146734 $601 3.3567531323633801 $416 $602 forward 7 unknown #
coedge $-1 $603 $604 $262 $419 forward $411 $-1 #
edge $-1 $605 -36.523413828848042 $423 -25.588052584351416 $418 $606 forward 7 unknown #
edge $-1 $424 -16.342640747647579 $605 -2.8618693057405159e-014 $263 $607 forward 7 unknown #
coedge $-1 $264 $597 $603 $608 forward $422 $-1 #
loop $-1 $-1 $597 $410 #
vertex $-1 $419 $609 #
vertex $-1 $265 $610 #
straight-curve $-1 -59.404551607944555 -3.1563785500903201 13.408213189433269 1 0 0 I I #
coedge $-1 $426 $426 $-1 $611 reversed $268 $-1 #
edge $-1 $612 0 $612 6.2831853071796004 $269 $613 forward 7 unknown #
vertex $-1 $272 $614 #
ellipse-curve $-1 -44.73840240286188 -1.2764004901251624 7.9405325671849525 -0.66913061440640931 0 0.74314481823134659 0.3715724091156733 0 0.33456530720320465 1 I I #
coedge $-1 $430 $430 $-1 $615 reversed $275 $-1 #
edge $-1 $616 0 $616 6.2831853071796004 $276 $617 forward 7 unknown #
vertex $-1 $279 $618 #
ellipse-curve $-1 -44.73840240286188 1.5435665998225758 7.9405325671849525 -0.66913061440640931 0 0.74314481823134659 0.3715724091156733 0 0.33456530720320465 1 I I #
face $-1 $-1 $295 $42 $-1 $619 reversed single #
loop $-1 $-1 $450 $280 #
plane-surface $-1 0 33.819851092939608 0 0 -1 0 0 0 -1 forward_v I I I I #
coedge $-1 $620 $448 $451 $621 forward $281 $-1 #
coedge $-1 $454 $283 $284 $442 reversed $175 $-1 #
coedge $-1 $448 $620 $283 $440 reversed $281 $-1 #
edge $-1 $455 -13.408213189433267 $622 13.408213189433267 $439 $623 forward 7 unknown #
coedge $-1 $285 $284 $620 $624 forward $113 $-1 #
edge $-1 $446 -50.810876796777244 $622 50.810876796777244 $438 $625 forward 7 unknown #
coedge $-1 $451 $450 $285 $444 reversed $435 $-1 #
edge $-1 $626 -50.810876796777244 $445 50.810876796777244 $443 $627 forward 7 unknown #
vertex $-1 $287 $628 #
vertex $-1 $457 $629 #
straight-curve $-1 50.810876796777244 0 -13.408213189433267 0 -1 0 I I #
coedge $-1 $437 $439 $288 $449 reversed $281 $-1 #
edge $-1 $452 -33.819851092939608 $455 33.819851092939608 $448 $630 forward 7 unknown #
coedge $-1 $443 $289 $294 $458 forward $435 $-1 #
coedge $-1 $289 $443 $437 $621 reversed $435 $-1 #
vertex $-1 $290 $631 #
straight-curve $-1 0 33.819851092939608 13.408213189433267 -1 0 0 I I #
coedge $-1 $291 $438 $293 $457 reversed $175 $-1 #
vertex $-1 $449 $632 #
straight-curve $-1 0 -33.819851092939608 13.408213189433267 1 0 0 I I #
edge $-1 $296 -13.408213189433267 $446 13.408213189433267 $293 $633 forward 7 unknown #
edge $-1 $297 -13.408213189433267 $445 13.408213189433267 $294 $634 forward 7 unknown #
point $-1 50.810876796777244 -33.819851092939608 13.408213189433267 #
point $-1 50.810876796777244 33.819851092939608 13.408213189433267 #
face $-1 $-1 $635 $43 $-1 $636 reversed single #
loop $-1 $-1 $309 $299 #
plane-surface $-1 0 -33.819851092939608 0 0 1 0 0 0 1 forward_v I I I I #
coedge $-1 $637 $302 $468 $638 forward $183 $-1 #
coedge $-1 $302 $637 $639 $640 forward $183 $-1 #
edge $-1 $641 -50.810876796777244 $469 50.810876796777244 $302 $642 forward 7 unknown #
coedge $-1 $304 $303 $643 $644 reversed $117 $-1 #
coedge $-1 $305 $311 $464 $638 reversed $300 $-1 #
vertex $-1 $638 $645 #
straight-curve $-1 50.810876796777244 -21.44168100799272 -4.7934556521597536 0 0 1 I I #
coedge $-1 $643 $646 $307 $472 forward $635 $-1 #
edge $-1 $477 -20.004468067706526 $473 -7.6262979827596382 $471 $647 forward 7 unknown #
vertex $-1 $472 $648 #
straight-curve $-1 0 -21.44168100799272 -5.765609419205747 -1 0 0 I I #
coedge $-1 $649 $309 $646 $650 forward $462 $-1 #
coedge $-1 $309 $649 $311 $479 reversed $462 $-1 #
vertex $-1 $650 $651 #
straight-curve $-1 0 -33.819851092939608 -5.765609419205747 -1 0 0 I I #
edge $-1 $313 5.765609419205747 $652 13.408213189433267 $311 $653 forward 7 unknown #
point $-1 50.810876796777244 -21.44168100799272 -5.765609419205747 #
point $-1 50.810876796777244 -33.819851092939608 -5.765609419205747 #
face $-1 $-1 $496 $44 $-1 $654 reversed single #
loop $-1 $-1 $488 $315 #
plane-surface $-1 -50.810876796777244 0 0 1 0 0 0 0 -1 forward_v I I I I #
coedge $-1 $655 $656 $318 $487 forward $316 $-1 #
coedge $-1 $319 $318 $326 $501 reversed $121 $-1 #
edge $-1 $657 -50.810876796777244 $490 50.810876796777244 $485 $658 forward 7 unknown #
coedge $-1 $659 $320 $322 $493 forward $483 $-1 #
coedge $-1 $320 $659 $655 $660 reversed $483 $-1 #
vertex $-1 $660 $661 #
vertex $-1 $493 $662 #
straight-curve $-1 -50.810876796777244 21.44168100799272 -4.7934556521597536 0 0 1 I I #
edge $-1 $491 7.6262979827596382 $497 20.004468067706526 $488 $663 forward 7 unknown #
coedge $-1 $664 $323 $327 $502 forward $496 $-1 #
coedge $-1 $323 $664 $659 $665 reversed $496 $-1 #
loop $-1 $-1 $323 $482 #
vertex $-1 $665 $666 #
straight-curve $-1 0 33.819851092939608 -5.765609419205747 1 0 0 I I #
straight-curve $-1 0 21.44168100799272 -5.765609419205747 1 0 0 I I #
coedge $-1 $327 $326 $656 $667 reversed $191 $-1 #
edge $-1 $329 0.97215376704599343 $657 8.6147575372735137 $326 $668 forward 7 unknown #
edge $-1 $328 5.765609419205747 $669 13.408213189433267 $327 $670 forward 7 unknown #
point $-1 50.810876796777244 33.819851092939608 -5.765609419205747 #
point $-1 50.810876796777244 21.44168100799272 -5.765609419205747 #
loop $-1 $-1 $339 $331 #
plane-surface $-1 50.810876796777244 0 0 -1 0 0 0 0 1 forward_v I I I I #
coedge $-1 $508 $334 $336 $512 reversed $199 $-1 #
coedge $-1 $334 $507 $671 $672 reversed $199 $-1 #
coedge $-1 $342 $337 $334 $510 forward $332 $-1 #
edge $-1 $513 14.78438177545701 $673 21.644710141454258 $509 $674 forward 7 unknown #
coedge $-1 $336 $335 $516 $675 reversed $125 $-1 #
edge $-1 $676 -101.62175359355447 $513 -91.369153585278582 $507 $677 forward 7 unknown #
vertex $-1 $338 $678 #
straight-curve $-1 43.950548430779989 -8.0886965825967163 13.408213189433269 0 -1 0 I I #
coedge $-1 $671 $339 $342 $520 reversed $505 $-1 #
coedge $-1 $339 $671 $511 $675 forward $505 $-1 #
vertex $-1 $340 $679 #
straight-curve $-1 50.810876796777244 -12.962771138245941 74.6534761539491 0 0 1 I I #
straight-curve $-1 -17.187347869892612 -12.962771138245941 81.308727641228344 0.66913059716165679 0 -0.74314483375859142 I I #
edge $-1 $673 -19.392015192140924 $343 -12.962771138245941 $515 $680 forward 7 unknown #
point $-1 50.810876796777244 -12.962771138245941 13.408213189433267 #
point $-1 43.950548430779996 -12.962771138245941 13.408213189433269 #
edge $-1 $681 1 $681 0 $346 $-1 forward 7 unknown #
vertex $-1 $347 $682 #
ellipse-curve $-1 45.238345375810411 -16.177393165193433 7.669633747633493 0.74314483375859142 0 0.66913059716165679 0.66913059716165679 0 -0.74314483375859142 1 I I #
point $-1 48.049843210940267 -16.177393165193433 8.8554849913029354 #
plane-surface $-1 0 0 13.408213189433267 0 0 1 1 0 0 forward_v I I I I #
coedge $-1 $538 $537 $530 $683 forward $351 $-1 #
coedge $-1 $530 $353 $355 $534 reversed $214 $-1 #
coedge $-1 $353 $529 $528 $683 reversed $214 $-1 #
coedge $-1 $361 $356 $353 $532 forward $362 $-1 #
edge $-1 $535 14.78438177545701 $684 21.644710141454258 $531 $685 forward 7 unknown #
coedge $-1 $355 $354 $538 $686 reversed $134 $-1 #
edge $-1 $687 -101.62175359355447 $535 -91.369153585278582 $529 $688 forward 7 unknown #
vertex $-1 $357 $689 #
straight-curve $-1 43.950548430779989 -2.696232194198906 13.408213189433269 0 -1 0 I I #
coedge $-1 $528 $358 $361 $542 reversed $351 $-1 #
coedge $-1 $358 $528 $533 $686 forward $351 $-1 #
vertex $-1 $359 $690 #
straight-curve $-1 50.810876796777244 -2.1778423614503204 74.6534761539491 0 0 1 I I #
straight-curve $-1 -17.187347869892612 -2.1778423614503204 81.308727641228344 0.66913059716165679 0 -0.74314483375859142 I I #
edge $-1 $684 -8.6070864153453037 $363 -2.1778423614503204 $537 $691 forward 7 unknown #
point $-1 50.810876796777244 -2.1778423614503204 13.408213189433267 #
point $-1 43.950548430779996 -2.1778423614503204 13.408213189433269 #
edge $-1 $692 1 $692 0 $366 $-1 forward 7 unknown #
vertex $-1 $367 $693 #
ellipse-curve $-1 45.238345375810411 -5.3924643883978121 7.669633747633493 0.74314483375859142 0 0.66913059716165679 0.66913059716165679 0 -0.74314483375859142 1 I I #
point $-1 48.049843210940267 -5.3924643883978121 8.8554849913029354 #
plane-surface $-1 0 0 13.408213189433267 0 0 1 1 0 0 forward_v I I I I #
coedge $-1 $560 $559 $552 $694 forward $371 $-1 #
coedge $-1 $552 $373 $375 $556 reversed $229 $-1 #
coedge $-1 $373 $551 $550 $694 reversed $229 $-1 #
coedge $-1 $381 $376 $373 $554 forward $382 $-1 #
edge $-1 $557 14.78438177545701 $695 21.644710141454258 $553 $696 forward 7 unknown #
coedge $-1 $375 $374 $560 $697 reversed $143 $-1 #
edge $-1 $698 -101.62175359355447 $557 -91.369153585278582 $551 $699 forward 7 unknown #
vertex $-1 $377 $700 #
straight-curve $-1 43.950548430779989 2.696232194198906 13.408213189433269 0 -1 0 I I #
coedge $-1 $550 $378 $381 $564 reversed $371 $-1 #
coedge $-1 $378 $550 $555 $697 forward $371 $-1 #
vertex $-1 $379 $701 #
straight-curve $-1 50.810876796777244 8.6070864153453037 74.6534761539491 0 0 1 I I #
straight-curve $-1 -17.187347869892612 8.6070864153453037 81.308727641228344 0.66913059716165679 0 -0.74314483375859142 I I #
edge $-1 $695 2.1778423614503204 $383 8.6070864153453037 $559 $702 forward 7 unknown #
point $-1 50.810876796777244 8.6070864153453037 13.408213189433267 #
point $-1 43.950548430779996 8.6070864153453037 13.408213189433269 #
edge $-1 $703 1 $703 0 $386 $-1 forward 7 unknown #
vertex $-1 $387 $704 #
ellipse-curve $-1 45.238345375810411 5.3924643883978121 7.669633747633493 0.74314483375859142 0 0.66913059716165679 0.66913059716165679 0 -0.74314483375859142 1 I I #
point $-1 48.049843210940267 5.3924643883978121 8.8554849913029354 #
plane-surface $-1 0 0 13.408213189433267 0 0 1 1 0 0 forward_v I I I I #
coedge $-1 $582 $581 $574 $705 forward $391 $-1 #
coedge $-1 $574 $393 $395 $578 reversed $244 $-1 #
coedge $-1 $393 $573 $572 $705 reversed $244 $-1 #
coedge $-1 $401 $396 $393 $576 forward $402 $-1 #
edge $-1 $579 14.78438177545701 $706 21.644710141454258 $575 $707 forward 7 unknown #
coedge $-1 $395 $394 $582 $708 reversed $152 $-1 #
edge $-1 $709 -101.62175359355447 $579 -91.369153585278582 $573 $710 forward 7 unknown #
vertex $-1 $397 $711 #
straight-curve $-1 43.950548430779989 8.0886965825967181 13.408213189433269 0 -1 0 I I #
coedge $-1 $572 $398 $401 $586 reversed $391 $-1 #
coedge $-1 $398 $572 $577 $708 forward $391 $-1 #
vertex $-1 $399 $712 #
straight-curve $-1 50.810876796777244 19.392015192140928 74.6534761539491 0 0 1 I I #
straight-curve $-1 -17.187347869892612 19.392015192140928 81.308727641228344 0.66913059716165679 0 -0.74314483375859142 I I #
edge $-1 $706 12.962771138245945 $403 19.392015192140928 $581 $713 forward 7 unknown #
point $-1 50.810876796777244 19.392015192140928 13.408213189433267 #
point $-1 43.950548430779996 19.392015192140928 13.408213189433269 #
edge $-1 $714 1 $714 0 $406 $-1 forward 7 unknown #
vertex $-1 $407 $715 #
ellipse-curve $-1 45.238345375810411 16.177393165193436 7.669633747633493 0.74314483375859142 0 0.66913059716165679 0.66913059716165679 0 -0.74314483375859142 1 I I #
point $-1 48.049843210940267 16.177393165193436 8.8554849913029354 #
plane-surface $-1 0 0 13.408213189433267 0 0 1 1 0 0 forward_v I I I I #
coedge $-1 $604 $603 $596 $716 forward $411 $-1 #
coedge $-1 $596 $413 $415 $600 reversed $259 $-1 #
coedge $-1 $413 $595 $594 $716 reversed $259 $-1 #
coedge $-1 $421 $416 $413 $598 forward $422 $-1 #
edge $-1 $601 -20.738623598998046 $717 -8.5936748111673111 $597 $718 forward 7 unknown #
coedge $-1 $415 $414 $604 $719 reversed $161 $-1 #
edge $-1 $720 2.8618693057405159e-014 $601 16.342640747647579 $595 $721 forward 7 unknown #
vertex $-1 $417 $722 #
straight-curve $-1 -38.665928008946508 0.066791527424353347 13.408213189433267 0 1 0 I I #
coedge $-1 $594 $418 $421 $608 reversed $411 $-1 #
coedge $-1 $418 $594 $599 $719 forward $411 $-1 #
vertex $-1 $419 $723 #
straight-curve $-1 -50.810876796777244 -3.1563785500903201 38.996265773784685 0 0 1 I I #
straight-curve $-1 -50.810876796777265 -3.1563785500903201 2.4728519449366217 -0.74314481823134659 0 -0.66913061440640931 I I #
edge $-1 $717 -3.4235446597877335 $423 3.1563785500903201 $603 $724 forward 7 unknown #
point $-1 -50.810876796777244 -3.1563785500903201 13.408213189433267 #
point $-1 -38.665928008946508 -3.1563785500903201 13.408213189433267 #
edge $-1 $725 1 $725 0 $426 $-1 forward 7 unknown #
vertex $-1 $427 $726 #
ellipse-curve $-1 -44.069271788455453 -1.2764004901251624 7.1973877489535907 -0.66913061440640931 0 0.74314481823134659 0.3715724091156733 0 0.33456530720320465 1 I I #
point $-1 -44.366829993746187 -1.2764004901251624 8.2750978743881412 #
edge $-1 $727 1 $727 0 $430 $-1 forward 7 unknown #
vertex $-1 $431 $728 #
ellipse-curve $-1 -44.069271788455453 1.5435665998225758 7.1973877489535907 -0.66913061440640931 0 0.74314481823134659 0.3715724091156733 0 0.33456530720320465 1 I I #
point $-1 -44.366829993746187 1.5435665998225758 8.2750978743881412 #
plane-surface $-1 50.810876796777244 0 0 -1 0 0 0 0 1 forward_v I I I I #
coedge $-1 $439 $437 $441 $624 reversed $281 $-1 #
edge $-1 $452 -13.408213189433267 $626 13.408213189433267 $451 $729 forward 7 unknown #
vertex $-1 $624 $730 #
straight-curve $-1 -50.810876796777244 -33.819851092939608 0 0 0 -1 I I #
edge $-1 $622 -33.819851092939608 $626 33.819851092939608 $620 $731 forward 7 unknown #
straight-curve $-1 0 -33.819851092939608 -13.408213189433267 -1 0 0 I I #
vertex $-1 $444 $732 #
straight-curve $-1 0 33.819851092939608 -13.408213189433267 1 0 0 I I #
point $-1 50.810876796777244 33.819851092939608 -13.408213189433267 #
point $-1 50.810876796777244 -33.819851092939608 -13.408213189433267 #
straight-curve $-1 -50.810876796777244 0 13.408213189433267 0 -1 0 I I #
point $-1 -50.810876796777244 33.819851092939608 13.408213189433267 #
point $-1 -50.810876796777244 -33.819851092939608 13.408213189433267 #
straight-curve $-1 50.810876796777244 -33.819851092939608 0 0 0 -1 I I #
straight-curve $-1 50.810876796777244 33.819851092939608 0 0 0 -1 I I #
loop $-1 $-1 $643 $461 #
plane-surface $-1 -50.810876796777244 0 0 1 0 0 0 0 -1 forward_v I I I I #
coedge $-1 $465 $464 $649 $733 forward $183 $-1 #
edge $-1 $469 21.44168100799272 $652 33.819851092939608 $468 $734 forward 7 unknown #
coedge $-1 $646 $643 $465 $640 reversed $635 $-1 #
edge $-1 $735 -33.819851092939608 $641 -21.44168100799272 $639 $736 forward 7 unknown #
vertex $-1 $644 $737 #
straight-curve $-1 0 -21.44168100799272 -13.408213189433267 1 0 0 I I #
coedge $-1 $639 $471 $467 $644 forward $635 $-1 #
edge $-1 $473 0.97215376704599343 $641 8.6147575372735137 $643 $738 forward 7 unknown #
point $-1 50.810876796777244 -21.44168100799272 -13.408213189433267 #
coedge $-1 $471 $639 $475 $650 reversed $635 $-1 #
straight-curve $-1 -50.810876796777244 -13.815383025233082 -5.765609419205747 0 1 0 I I #
point $-1 -50.810876796777244 -21.44168100799272 -5.765609419205747 #
coedge $-1 $476 $475 $637 $733 reversed $462 $-1 #
edge $-1 $477 5.765609419205747 $735 13.408213189433267 $646 $739 forward 7 unknown #
point $-1 -50.810876796777244 -33.819851092939608 -5.765609419205747 #
vertex $-1 $479 $740 #
straight-curve $-1 50.810876796777244 -33.819851092939608 0 0 0 -1 I I #
plane-surface $-1 0 33.819851092939608 0 0 -1 0 0 0 -1 forward_v I I I I #
coedge $-1 $741 $485 $489 $660 forward $316 $-1 #
coedge $-1 $485 $741 $500 $667 forward $316 $-1 #
vertex $-1 $487 $742 #
straight-curve $-1 0 21.44168100799272 -13.408213189433267 -1 0 0 I I #
coedge $-1 $489 $488 $495 $665 forward $483 $-1 #
edge $-1 $490 21.44168100799272 $743 33.819851092939608 $489 $744 forward 7 unknown #
point $-1 -50.810876796777244 21.44168100799272 -13.408213189433267 #
point $-1 -50.810876796777244 21.44168100799272 -5.765609419205747 #
straight-curve $-1 -50.810876796777244 13.815383025233082 -5.765609419205747 0 1 0 I I #
coedge $-1 $495 $494 $741 $745 reversed $496 $-1 #
edge $-1 $497 5.765609419205747 $743 13.408213189433267 $495 $746 forward 7 unknown #
point $-1 -50.810876796777244 33.819851092939608 -5.765609419205747 #
edge $-1 $669 -33.819851092939608 $657 -21.44168100799272 $500 $747 forward 7 unknown #
straight-curve $-1 50.810876796777244 21.44168100799272 -4.7934556521597536 0 0 -1 I I #
vertex $-1 $667 $748 #
straight-curve $-1 50.810876796777244 33.819851092939608 0 0 0 -1 I I #
coedge $-1 $516 $515 $508 $672 forward $505 $-1 #
edge $-1 $673 61.245262964515831 $676 68.864429693259339 $671 $749 forward 7 unknown #
vertex $-1 $520 $750 #
straight-curve $-1 29.166166655322986 -19.392015192140924 13.408213189433269 1 0 0 I I #
edge $-1 $676 -11.303318609544208 $517 -4.8740745556492246 $516 $751 forward 7 unknown #
vertex $-1 $675 $752 #
straight-curve $-1 -17.187347869892612 -19.392015192140924 81.308727641228344 -0.66913059716165679 0 0.74314483375859142 I I #
point $-1 43.950548430779996 -19.392015192140924 13.408213189433269 #
point $-1 50.810876796777244 -12.962771138245941 5.7890464606897609 #
straight-curve $-1 50.810876796777244 0 13.408213189433267 0 1 0 I I #
vertex $-1 $523 $753 #
point $-1 45.907475972972065 -16.177393165193433 6.926488913874902 #
edge $-1 $684 61.245262964515831 $687 68.864429693259339 $528 $754 forward 7 unknown #
vertex $-1 $542 $755 #
straight-curve $-1 29.166166655322986 -8.6070864153453037 13.408213189433269 1 0 0 I I #
edge $-1 $687 -5.9108542211463977 $539 0.51838983274858563 $538 $756 forward 7 unknown #
vertex $-1 $686 $757 #
straight-curve $-1 -17.187347869892612 -8.6070864153453037 81.308727641228344 -0.66913059716165679 0 0.74314483375859142 I I #
point $-1 43.950548430779996 -8.6070864153453037 13.408213189433269 #
point $-1 50.810876796777244 -2.1778423614503204 5.7890464606897609 #
straight-curve $-1 50.810876796777244 0 13.408213189433267 0 1 0 I I #
vertex $-1 $545 $758 #
point $-1 45.907475972972065 -5.3924643883978121 6.926488913874902 #
edge $-1 $695 61.245262964515831 $698 68.864429693259339 $550 $759 forward 7 unknown #
vertex $-1 $564 $760 #
straight-curve $-1 29.166166655322986 2.1778423614503204 13.408213189433269 1 0 0 I I #
edge $-1 $698 -0.51838983274858563 $561 5.9108542211463977 $560 $761 forward 7 unknown #
vertex $-1 $697 $762 #
straight-curve $-1 -17.187347869892612 2.1778423614503204 81.308727641228344 -0.66913059716165679 0 0.74314483375859142 I I #
point $-1 43.950548430779996 2.1778423614503204 13.408213189433269 #
point $-1 50.810876796777244 8.6070864153453037 5.7890464606897609 #
straight-curve $-1 50.810876796777244 0 13.408213189433267 0 1 0 I I #
vertex $-1 $567 $763 #
point $-1 45.907475972972065 5.3924643883978121 6.926488913874902 #
edge $-1 $706 61.245262964515831 $709 68.864429693259339 $572 $764 forward 7 unknown #
vertex $-1 $586 $765 #
straight-curve $-1 29.166166655322986 12.962771138245945 13.408213189433269 1 0 0 I I #
edge $-1 $709 4.8740745556492264 $583 11.30331860954421 $582 $766 forward 7 unknown #
vertex $-1 $708 $767 #
straight-curve $-1 -17.187347869892612 12.962771138245945 81.308727641228344 -0.66913059716165679 0 0.74314483375859142 I I #
point $-1 43.950548430779996 12.962771138245945 13.408213189433269 #
point $-1 50.810876796777244 19.392015192140928 5.7890464606897609 #
straight-curve $-1 50.810876796777244 0 13.408213189433267 0 1 0 I I #
vertex $-1 $589 $768 #
point $-1 45.907475972972065 16.177393165193436 6.926488913874902 #
edge $-1 $717 25.588052584351416 $720 36.523413828848042 $594 $769 forward 7 unknown #
vertex $-1 $608 $770 #
straight-curve $-1 -59.404551607944555 3.4235446597877335 13.408213189433269 -1 0 0 I I #
edge $-1 $720 -3.3567531323633801 $605 3.2231700775146734 $604 $771 forward 7 unknown #
vertex $-1 $719 $772 #
straight-curve $-1 -50.810876796777265 3.4235446597877335 2.4728519449366217 0.74314481823134659 0 0.66913061440640931 I I #
point $-1 -38.665928008946508 3.4235446597877335 13.408213189433267 #
point $-1 -50.810876796777244 -3.1563785500903201 2.4728519449366408 #
straight-curve $-1 -50.810876796777244 0 13.408213189433267 0 -1 0 I I #
vertex $-1 $611 $773 #
point $-1 -43.697699379339781 -1.2764004901251624 7.5319530561567953 #
vertex $-1 $615 $774 #
point $-1 -43.697699379339781 1.5435665998225758 7.5319530561567953 #
straight-curve $-1 -50.810876796777244 33.819851092939608 0 0 0 -1 I I #
point $-1 -50.810876796777244 -33.819851092939608 -13.408213189433267 #
straight-curve $-1 -50.810876796777244 0 -13.408213189433267 0 1 0 I I #
point $-1 -50.810876796777244 33.819851092939608 -13.408213189433267 #
edge $-1 $652 -50.810876796777244 $735 50.810876796777244 $649 $775 forward 7 unknown #
straight-curve $-1 50.810876796777244 0 -13.408213189433267 0 -1 0 I I #
vertex $-1 $640 $776 #
straight-curve $-1 -50.810876796777244 0 -13.408213189433267 0 1 0 I I #
point $-1 -50.810876796777244 -21.44168100799272 -13.408213189433267 #
straight-curve $-1 -50.810876796777244 -21.44168100799272 -4.7934556521597536 0 0 -1 I I #
straight-curve $-1 -50.810876796777244 -33.819851092939608 0 0 0 -1 I I #
point $-1 50.810876796777244 -33.819851092939608 -13.408213189433267 #
coedge $-1 $656 $655 $664 $745 forward $316 $-1 #
point $-1 50.810876796777244 21.44168100799272 -13.408213189433267 #
vertex $-1 $745 $777 #
straight-curve $-1 -50.810876796777244 0 -13.408213189433267 0 1 0 I I #
edge $-1 $743 -50.810876796777244 $669 50.810876796777244 $664 $778 forward 7 unknown #
straight-curve $-1 -50.810876796777244 33.819851092939608 0 0 0 -1 I I #
straight-curve $-1 50.810876796777244 0 -13.408213189433267 0 -1 0 I I #
point $-1 50.810876796777244 33.819851092939608 -13.408213189433267 #
straight-curve $-1 50.810876796777244 -19.392015192140924 74.6534761539491 0 0 -1 I I #
point $-1 50.810876796777244 -19.392015192140924 13.408213189433267 #
straight-curve $-1 50.810876796777244 -8.0886965825967163 5.7890464606897538 0 1 0 I I #
point $-1 50.810876796777244 -19.392015192140924 5.7890464606897609 #
point $-1 44.495200542051819 -16.177393165193433 7.0005031504718369 #
straight-curve $-1 50.810876796777244 -8.6070864153453037 74.6534761539491 0 0 -1 I I #
point $-1 50.810876796777244 -8.6070864153453037 13.408213189433267 #
straight-curve $-1 50.810876796777244 -2.696232194198906 5.7890464606897538 0 1 0 I I #
point $-1 50.810876796777244 -8.6070864153453037 5.7890464606897609 #
point $-1 44.495200542051819 -5.3924643883978121 7.0005031504718369 #
straight-curve $-1 50.810876796777244 2.1778423614503204 74.6534761539491 0 0 -1 I I #
point $-1 50.810876796777244 2.1778423614503204 13.408213189433267 #
straight-curve $-1 50.810876796777244 2.696232194198906 5.7890464606897538 0 1 0 I I #
point $-1 50.810876796777244 2.1778423614503204 5.7890464606897609 #
point $-1 44.495200542051819 5.3924643883978121 7.0005031504718369 #
straight-curve $-1 50.810876796777244 12.962771138245945 74.6534761539491 0 0 -1 I I #
point $-1 50.810876796777244 12.962771138245945 13.408213189433267 #
straight-curve $-1 50.810876796777244 8.0886965825967181 5.7890464606897538 0 1 0 I I #
point $-1 50.810876796777244 12.962771138245945 5.7890464606897609 #
point $-1 44.495200542051819 16.177393165193436 7.0005031504718369 #
straight-curve $-1 -50.810876796777244 3.4235446597877335 38.996265773784685 0 0 -1 I I #
point $-1 -50.810876796777244 3.4235446597877335 13.408213189433267 #
straight-curve $-1 -50.810876796777244 0.066791527424353347 2.4728519449366386 0 -1 0 I I #
point $-1 -50.810876796777244 3.4235446597877335 2.4728519449366408 #
point $-1 -43.734706481252246 -1.2764004901251624 6.8258153398379173 #
point $-1 -43.734706481252246 1.5435665998225758 6.8258153398379173 #
straight-curve $-1 0 -33.819851092939608 -13.408213189433267 -1 0 0 I I #
point $-1 -50.810876796777244 -33.819851092939608 -13.408213189433267 #
point $-1 -50.810876796777244 33.819851092939608 -13.408213189433267 #
straight-curve $-1 0 33.819851092939608 -13.408213189433267 1 0 0 I I #
End-of-ACIS-data 