500 0 7 0           
7 Unknown 11 ACIS 5.0 NT 24 Fri Mar 26 00:07:02 1999 
-1 9.9999999999999995e-007 1e-010 
body $-1 $7 $-1 $8 #
body $-1 $9 $-1 $10 #
body $-1 $11 $-1 $12 #
body $-1 $13 $-1 $14 #
body $-1 $15 $-1 $16 #
body $-1 $17 $-1 $18 #
body $-1 $19 $-1 $20 #
lump $-1 $-1 $21 $0 #
transform $-1 1 0 0 0 1 0 0 0 1 76.710104678487511 38.96864889786162 11.142819173208244 1 rotate no_reflect no_shear #
lump $-1 $-1 $22 $1 #
transform $-1 1 0 0 0 1 0 0 0 1 76.710104678487511 38.96864889786162 11.142819173208244 1 rotate no_reflect no_shear #
lump $-1 $-1 $23 $2 #
transform $-1 1 0 0 0 1 0 0 0 1 76.710104678487511 38.96864889786162 11.142819173208244 1 rotate no_reflect no_shear #
lump $-1 $-1 $24 $3 #
transform $-1 1 0 0 0 1 0 0 0 1 76.710104678487511 38.96864889786162 11.142819173208244 1 rotate no_reflect no_shear #
lump $-1 $-1 $25 $4 #
transform $-1 1 0 0 0 1 0 0 0 1 76.710104678487511 38.96864889786162 11.142819173208244 1 rotate no_reflect no_shear #
lump $-1 $-1 $26 $5 #
transform $-1 1 0 0 0 1 0 0 0 1 76.710104678487511 38.96864889786162 11.142819173208244 1 rotate no_reflect no_shear #
lump $-1 $-1 $27 $6 #
transform $-1 1 0 0 0 1 0 0 0 1 76.710104678487511 38.96864889786162 11.142819173208244 1 rotate no_reflect no_shear #
shell $-1 $-1 $-1 $28 $-1 $7 #
shell $-1 $-1 $-1 $29 $-1 $9 #
shell $-1 $-1 $-1 $30 $-1 $11 #
shell $-1 $-1 $-1 $31 $-1 $13 #
shell $-1 $-1 $-1 $32 $-1 $15 #
shell $-1 $-1 $-1 $33 $-1 $17 #
shell $-1 $-1 $-1 $34 $-1 $19 #
face $-1 $35 $36 $21 $-1 $37 forward single #
face $-1 $38 $39 $22 $-1 $40 forward single #
face $-1 $41 $42 $23 $-1 $43 forward single #
face $-1 $44 $45 $24 $-1 $46 reversed single #
face $-1 $47 $48 $25 $-1 $49 forward single #
face $-1 $50 $51 $26 $-1 $52 reversed single #
face $-1 $53 $54 $27 $-1 $55 forward single #
face $-1 $56 $57 $21 $-1 $58 reversed single #
loop $-1 $-1 $59 $28 #
plane-surface $-1 0 0 11.142819173208244 0 0 1 1 0 0 forward_v I I I I #
face $-1 $60 $61 $22 $-1 $62 reversed single #
loop $-1 $-1 $63 $29 #
plane-surface $-1 0 -32.833664375157674 -4.9609638729951211 0 0 1 1 0 0 forward_v I I I I #
face $-1 $64 $65 $23 $-1 $66 reversed single #
loop $-1 $-1 $67 $30 #
plane-surface $-1 0 32.833664375157674 -4.9609638729951211 0 0 1 1 0 0 forward_v I I I I #
face $-1 $68 $69 $24 $-1 $70 reversed single #
loop $-1 $-1 $71 $31 #
plane-surface $-1 110.65152784886905 -13.120749933022097 219.73402530030751 0 -1 0 -0.80901700255871778 0 -0.5877852410284794 forward_v I I I I #
face $-1 $72 $73 $25 $-1 $74 forward single #
loop $-1 $75 $76 $32 #
cone-surface $-1 73.745021858397436 -19.909714892737917 7.6414416501632463 -0.80901700255871778 0 -0.5877852410284794 0.8816778615427191 0 -1.2135255038380768 1 I I 0 1 1.5 forward I I I I #
face $-1 $77 $78 $26 $-1 $79 reversed single #
loop $-1 $-1 $80 $33 #
plane-surface $-1 -194.23680478988661 3.8833472371959701 104.9917991220095 0 1 0 -0.7660444514056185 0 0.64278759981090561 forward_v I I I I #
face $-1 $81 $82 $27 $-1 $83 forward single #
loop $-1 $84 $85 $34 #
cone-surface $-1 -73.550458904273626 11.464259842125358 7.7861628104244218 0.7660444514056185 0 -0.64278759981090561 0.64278759981090561 0 0.7660444514056185 1 I I 0 1 1 forward I I I I #
face $-1 $86 $87 $21 $-1 $88 reversed single #
loop $-1 $-1 $89 $35 #
plane-surface $-1 0 0 -11.142819173208244 0 0 1 1 0 0 forward_v I I I I #
coedge $-1 $90 $91 $92 $93 forward $36 $-1 #
face $-1 $94 $95 $22 $-1 $96 reversed single #
loop $-1 $-1 $97 $38 #
plane-surface $-1 0 -26.698679852453733 -8.0518915231016823 0 -1 0 0 0 -1 forward_v I I I I #
coedge $-1 $98 $99 $100 $101 reversed $39 $-1 #
face $-1 $102 $103 $23 $-1 $104 reversed single #
loop $-1 $-1 $105 $41 #
plane-surface $-1 0 26.698679852453729 -8.0518915231016823 0 1 0 0 0 1 forward_v I I I I #
coedge $-1 $106 $107 $108 $109 reversed $42 $-1 #
face $-1 $110 $111 $24 $-1 $112 reversed single #
loop $-1 $-1 $113 $44 #
plane-surface $-1 -13.46803005704183 -19.909714892737917 129.55589056477817 0.80901700255871778 0 0.5877852410284794 0.5877852410284794 0 -0.80901700255871778 forward_v I I I I #
coedge $-1 $114 $115 $116 $117 reversed $45 $-1 #
face $-1 $-1 $118 $25 $-1 $119 forward single #
loop $-1 $120 $121 $47 #
cone-surface $-1 72.24617879477151 -19.909714892737917 6.5524684535173723 -0.80901700255871778 0 -0.5877852410284794 0.44083893077135955 0 -0.60676275191903839 1 I I -0.70710678118654757 0.70710678118654757 0.75 forward I I I I #
loop $-1 $-1 $122 $32 #
coedge $-1 $76 $76 $123 $124 reversed $48 $-1 #
face $-1 $125 $126 $26 $-1 $127 reversed single #
loop $-1 $-1 $128 $50 #
plane-surface $-1 -76.710104678487539 11.464259842125358 6.3751909869528731 -0.7660444514056185 0 0.64278759981090561 0.64278759981090561 0 0.7660444514056185 forward_v I I I I #
coedge $-1 $129 $130 $131 $132 reversed $51 $-1 #
face $-1 $-1 $133 $27 $-1 $134 forward single #
loop $-1 $135 $136 $53 #
cone-surface $-1 -72.008048378326436 11.464259842125358 6.4919267408628389 0.7660444514056185 0 -0.64278759981090561 0.3213937999054528 0 0.38302222570280925 1 I I -0.70710678118654746 0.70710678118654746 0.5 forward I I I I #
loop $-1 $-1 $137 $34 #
coedge $-1 $85 $85 $138 $139 reversed $54 $-1 #
face $-1 $140 $141 $21 $-1 $142 reversed single #
loop $-1 $-1 $143 $56 #
plane-surface $-1 0 -38.96864889786162 0 0 1 0 0 0 1 forward_v I I I I #
coedge $-1 $144 $145 $146 $147 forward $57 $-1 #
coedge $-1 $148 $59 $149 $150 forward $36 $-1 #
coedge $-1 $59 $148 $151 $152 forward $36 $-1 #
coedge $-1 $153 $154 $59 $93 reversed $155 $-1 #
edge $-1 $156 -38.96864889786162 $157 38.96864889786162 $92 $158 forward 7 unknown #
face $-1 $159 $160 $22 $-1 $161 reversed single #
loop $-1 $-1 $162 $60 #
plane-surface $-1 0 0 -11.142819173208244 0 0 1 1 0 0 forward_v I I I I #
coedge $-1 $163 $164 $165 $166 reversed $61 $-1 #
coedge $-1 $167 $63 $164 $168 forward $39 $-1 #
coedge $-1 $63 $167 $169 $170 reversed $39 $-1 #
coedge $-1 $171 $165 $63 $101 forward $160 $-1 #
edge $-1 $172 10.281847664874896 $173 22.551816710282782 $100 $174 forward 7 unknown #
face $-1 $175 $176 $23 $-1 $177 reversed single #
loop $-1 $-1 $108 $64 #
plane-surface $-1 76.710104678487511 0 0 -1 0 0 0 0 1 forward_v I I I I #
coedge $-1 $178 $179 $180 $181 reversed $65 $-1 #
coedge $-1 $182 $67 $183 $184 reversed $42 $-1 #
coedge $-1 $67 $182 $179 $185 forward $42 $-1 #
coedge $-1 $186 $187 $67 $109 forward $103 $-1 #
edge $-1 $188 -22.551816710282782 $189 -10.281847664874892 $108 $190 forward 7 unknown #
face $-1 $191 $192 $24 $-1 $193 forward single #
loop $-1 $-1 $194 $68 #
plane-surface $-1 110.65152784886905 -26.698679852453736 219.73402530030751 0 1 0 0.80901700255871778 0 0.5877852410284794 forward_v I I I I #
coedge $-1 $195 $196 $197 $198 reversed $69 $-1 #
coedge $-1 $115 $71 $199 $200 reversed $45 $-1 #
coedge $-1 $71 $114 $195 $201 reversed $45 $-1 #
coedge $-1 $197 $202 $71 $117 forward $192 $-1 #
edge $-1 $203 -21.384340754052985 $204 -17.238335737286704 $116 $205 forward 7 unknown #
loop $-1 $-1 $123 $72 #
plane-surface $-1 -13.46803005704183 -19.909714892737917 129.55589056477817 0.80901700255871778 0 0.5877852410284794 0.5877852410284794 0 -0.80901700255871778 forward_v I I I I #
loop $-1 $-1 $206 $47 #
coedge $-1 $121 $121 $122 $207 reversed $73 $-1 #
coedge $-1 $122 $122 $121 $207 forward $75 $-1 #
coedge $-1 $123 $123 $76 $124 forward $118 $-1 #
edge $-1 $208 0 $208 6.2831853071796004 $123 $209 forward 7 unknown #
face $-1 $210 $211 $26 $-1 $212 reversed single #
loop $-1 $-1 $213 $77 #
plane-surface $-1 -194.23680478988661 19.045172447054746 104.9917991220095 0 -1 0 0.7660444514056185 0 -0.64278759981090561 forward_v I I I I #
coedge $-1 $214 $215 $216 $217 reversed $78 $-1 #
coedge $-1 $130 $80 $218 $219 reversed $51 $-1 #
coedge $-1 $80 $129 $214 $220 reversed $51 $-1 #
coedge $-1 $216 $221 $80 $132 forward $222 $-1 #
edge $-1 $223 20.408297716455792 $224 24.408812664394773 $131 $225 forward 7 unknown #
loop $-1 $-1 $138 $81 #
plane-surface $-1 -76.710104678487539 11.464259842125358 6.3751909869528731 -0.7660444514056185 0 0.64278759981090561 0.64278759981090561 0 0.7660444514056185 forward_v I I I I #
loop $-1 $-1 $226 $53 #
coedge $-1 $136 $136 $137 $227 reversed $82 $-1 #
coedge $-1 $137 $137 $136 $227 forward $84 $-1 #
coedge $-1 $138 $138 $85 $139 forward $133 $-1 #
edge $-1 $228 0 $228 6.2831853071796004 $138 $229 forward 7 unknown #
face $-1 $230 $231 $21 $-1 $232 reversed single #
loop $-1 $-1 $233 $86 #
plane-surface $-1 -76.710104678487511 0 0 1 0 0 0 0 -1 forward_v I I I I #
coedge $-1 $234 $151 $235 $236 forward $87 $-1 #
coedge $-1 $237 $89 $234 $238 forward $57 $-1 #
coedge $-1 $89 $237 $239 $240 forward $57 $-1 #
coedge $-1 $154 $153 $89 $147 reversed $155 $-1 #
edge $-1 $241 -38.96864889786162 $242 38.96864889786162 $146 $243 forward 7 unknown #
coedge $-1 $91 $90 $244 $245 forward $36 $-1 #
coedge $-1 $246 $247 $90 $150 reversed $231 $-1 #
edge $-1 $157 -76.710104678487511 $248 76.710104678487511 $149 $249 forward 7 unknown #
coedge $-1 $143 $250 $91 $152 reversed $87 $-1 #
edge $-1 $251 -76.710104678487511 $156 76.710104678487511 $151 $252 forward 7 unknown #
coedge $-1 $146 $92 $250 $253 forward $155 $-1 #
coedge $-1 $92 $146 $246 $254 reversed $155 $-1 #
loop $-1 $-1 $153 $230 #
vertex $-1 $93 $255 #
vertex $-1 $93 $256 #
straight-curve $-1 76.710104678487511 0 11.142819173208244 0 1 0 I I #
face $-1 $257 $258 $22 $-1 $259 reversed single #
loop $-1 $-1 $165 $94 #
plane-surface $-1 76.710104678487511 0 0 -1 0 0 0 0 1 forward_v I I I I #
coedge $-1 $260 $261 $163 $262 forward $95 $-1 #
coedge $-1 $263 $97 $162 $262 reversed $61 $-1 #
coedge $-1 $97 $263 $98 $168 reversed $61 $-1 #
coedge $-1 $100 $264 $97 $166 forward $160 $-1 #
edge $-1 $265 -7.1168734116574024 $172 -0.93501811144427993 $165 $266 forward 7 unknown #
coedge $-1 $99 $98 $267 $268 reversed $39 $-1 #
edge $-1 $172 -76.710104678487511 $269 76.710104678487511 $164 $270 forward 7 unknown #
coedge $-1 $271 $272 $99 $170 forward $258 $-1 #
edge $-1 $173 -76.710104678487511 $273 76.710104678487511 $169 $274 forward 7 unknown #
coedge $-1 $264 $100 $272 $275 forward $160 $-1 #
vertex $-1 $101 $276 #
vertex $-1 $275 $277 #
straight-curve $-1 76.710104678487511 -16.416832187578837 -4.9609638729951211 0 -1 0 I I #
face $-1 $278 $279 $23 $-1 $280 reversed single #
loop $-1 $-1 $281 $102 #
plane-surface $-1 0 0 -11.142819173208244 0 0 1 1 0 0 forward_v I I I I #
coedge $-1 $282 $105 $281 $283 reversed $65 $-1 #
coedge $-1 $105 $282 $107 $185 reversed $65 $-1 #
coedge $-1 $284 $285 $105 $181 forward $279 $-1 #
edge $-1 $286 -7.1168734116574024 $287 -0.93501811144427993 $180 $288 forward 7 unknown #
coedge $-1 $107 $106 $284 $289 reversed $42 $-1 #
coedge $-1 $290 $291 $106 $184 forward $292 $-1 #
edge $-1 $293 -76.710104678487511 $188 76.710104678487511 $183 $294 forward 7 unknown #
edge $-1 $287 -76.710104678487511 $189 76.710104678487511 $179 $295 forward 7 unknown #
coedge $-1 $296 $108 $282 $297 forward $103 $-1 #
coedge $-1 $108 $296 $290 $298 reversed $103 $-1 #
vertex $-1 $298 $299 #
vertex $-1 $109 $300 #
straight-curve $-1 76.710104678487511 16.416832187578837 -4.9609638729951211 0 -1 0 I I #
face $-1 $-1 $301 $24 $-1 $302 reversed single #
loop $-1 $-1 $116 $110 #
plane-surface $-1 0 0 11.142819173208244 0 0 1 1 0 0 forward_v I I I I #
coedge $-1 $303 $304 $305 $306 reversed $111 $-1 #
coedge $-1 $307 $113 $115 $201 forward $69 $-1 #
coedge $-1 $113 $307 $303 $308 forward $69 $-1 #
coedge $-1 $305 $116 $113 $198 forward $192 $-1 #
edge $-1 $204 3.1658924866531386 $309 16.743822406084778 $197 $310 forward 7 unknown #
coedge $-1 $311 $312 $114 $200 forward $301 $-1 #
edge $-1 $313 -104.43067999128647 $203 -98.724193476945516 $199 $314 forward 7 unknown #
edge $-1 $204 146.36660418391591 $313 153.42020935697502 $115 $315 forward 7 unknown #
coedge $-1 $116 $305 $311 $316 forward $192 $-1 #
vertex $-1 $200 $317 #
vertex $-1 $117 $318 #
straight-curve $-1 55.325763924434526 -13.120749933022097 11.142819173208238 -1 0 0 I I #
coedge $-1 $206 $206 $-1 $319 reversed $120 $-1 #
edge $-1 $320 0 $320 6.2831853071796004 $121 $321 forward 7 unknown #
vertex $-1 $124 $322 #
ellipse-curve $-1 74.637102170104356 -19.909714892737917 8.28957591603778 0.80901700255871778 0 0.5877852410284794 0.8816778615427191 0 -1.2135255038380768 1 I I #
face $-1 $-1 $222 $26 $-1 $323 forward single #
loop $-1 $-1 $324 $125 #
plane-surface $-1 -76.710104678487511 0 0 1 0 0 0 0 -1 forward_v I I I I #
coedge $-1 $325 $326 $327 $328 reversed $126 $-1 #
coedge $-1 $329 $128 $130 $220 forward $78 $-1 #
coedge $-1 $128 $329 $325 $330 forward $78 $-1 #
coedge $-1 $327 $131 $128 $217 forward $222 $-1 #
edge $-1 $224 -1.848782683866709 $331 13.313042525992067 $216 $332 forward 7 unknown #
coedge $-1 $333 $334 $129 $219 forward $211 $-1 #
edge $-1 $335 -46.120708574051839 $223 -41.353080387796503 $218 $336 forward 7 unknown #
edge $-1 $224 -6.2236965198393266 $335 -4.4123720097533069e-014 $130 $337 forward 7 unknown #
coedge $-1 $131 $327 $333 $338 forward $222 $-1 #
loop $-1 $-1 $327 $210 #
vertex $-1 $219 $339 #
vertex $-1 $132 $340 #
straight-curve $-1 -97.118402394943303 3.8833472371959701 11.142819173208245 1 0 0 I I #
coedge $-1 $226 $226 $-1 $341 reversed $135 $-1 #
edge $-1 $342 0 $342 6.2831853071796004 $136 $343 forward 7 unknown #
vertex $-1 $139 $344 #
ellipse-curve $-1 -74.709847204518027 11.464259842125358 8.7590050800805734 -0.7660444514056185 0 0.64278759981090561 0.64278759981090561 0 0.7660444514056185 1 I I #
face $-1 $-1 $155 $21 $-1 $345 reversed single #
loop $-1 $-1 $246 $140 #
plane-surface $-1 0 38.96864889786162 0 0 -1 0 0 0 -1 forward_v I I I I #
coedge $-1 $346 $244 $247 $347 forward $141 $-1 #
coedge $-1 $250 $143 $144 $238 reversed $87 $-1 #
coedge $-1 $244 $346 $143 $236 reversed $141 $-1 #
edge $-1 $251 -11.142819173208244 $348 11.142819173208244 $235 $349 forward 7 unknown #
coedge $-1 $145 $144 $346 $350 forward $57 $-1 #
edge $-1 $242 -76.710104678487511 $348 76.710104678487511 $234 $351 forward 7 unknown #
coedge $-1 $247 $246 $145 $240 reversed $231 $-1 #
edge $-1 $352 -76.710104678487511 $241 76.710104678487511 $239 $353 forward 7 unknown #
vertex $-1 $147 $354 #
vertex $-1 $253 $355 #
straight-curve $-1 76.710104678487511 0 -11.142819173208244 0 -1 0 I I #
coedge $-1 $233 $235 $148 $245 reversed $141 $-1 #
edge $-1 $248 -38.96864889786162 $251 38.96864889786162 $244 $356 forward 7 unknown #
coedge $-1 $239 $149 $154 $254 forward $231 $-1 #
coedge $-1 $149 $239 $233 $347 reversed $231 $-1 #
vertex $-1 $150 $357 #
straight-curve $-1 0 38.96864889786162 11.142819173208244 -1 0 0 I I #
coedge $-1 $151 $234 $153 $253 reversed $87 $-1 #
vertex $-1 $245 $358 #
straight-curve $-1 0 -38.96864889786162 11.142819173208244 1 0 0 I I #
edge $-1 $156 -11.142819173208244 $242 11.142819173208244 $153 $359 forward 7 unknown #
edge $-1 $157 -11.142819173208244 $241 11.142819173208244 $154 $360 forward 7 unknown #
point $-1 76.710104678487511 -38.96864889786162 11.142819173208244 #
point $-1 76.710104678487511 38.96864889786162 11.142819173208244 #
face $-1 $-1 $361 $22 $-1 $362 reversed single #
loop $-1 $-1 $169 $159 #
plane-surface $-1 0 -38.96864889786162 0 0 1 0 0 0 1 forward_v I I I I #
coedge $-1 $363 $162 $264 $364 forward $95 $-1 #
coedge $-1 $162 $363 $365 $366 forward $95 $-1 #
edge $-1 $367 -76.710104678487511 $265 76.710104678487511 $162 $368 forward 7 unknown #
coedge $-1 $164 $163 $369 $370 reversed $61 $-1 #
coedge $-1 $165 $171 $260 $364 reversed $160 $-1 #
vertex $-1 $364 $371 #
straight-curve $-1 76.710104678487511 -26.698679852453733 -4.0259457615508412 0 0 1 I I #
coedge $-1 $369 $372 $167 $268 forward $361 $-1 #
edge $-1 $273 -22.551816710282782 $269 -10.281847664874896 $267 $373 forward 7 unknown #
vertex $-1 $268 $374 #
straight-curve $-1 0 -26.698679852453733 -4.9609638729951211 -1 0 0 I I #
coedge $-1 $375 $169 $372 $376 forward $258 $-1 #
coedge $-1 $169 $375 $171 $275 reversed $258 $-1 #
vertex $-1 $376 $377 #
straight-curve $-1 0 -38.96864889786162 -4.9609638729951211 -1 0 0 I I #
edge $-1 $173 4.9609638729951211 $378 11.142819173208244 $171 $379 forward 7 unknown #
point $-1 76.710104678487511 -26.698679852453733 -4.9609638729951211 #
point $-1 76.710104678487511 -38.96864889786162 -4.9609638729951211 #
face $-1 $-1 $292 $23 $-1 $380 reversed single #
loop $-1 $-1 $284 $175 #
plane-surface $-1 -76.710104678487511 0 0 1 0 0 0 0 -1 forward_v I I I I #
coedge $-1 $381 $382 $178 $283 forward $176 $-1 #
coedge $-1 $179 $178 $186 $297 reversed $65 $-1 #
edge $-1 $383 -76.710104678487511 $286 76.710104678487511 $281 $384 forward 7 unknown #
coedge $-1 $385 $180 $182 $289 forward $279 $-1 #
coedge $-1 $180 $385 $381 $386 reversed $279 $-1 #
vertex $-1 $386 $387 #
vertex $-1 $289 $388 #
straight-curve $-1 -76.710104678487511 26.698679852453729 -4.0259457615508412 0 0 1 I I #
edge $-1 $287 10.281847664874892 $293 22.551816710282782 $284 $389 forward 7 unknown #
coedge $-1 $390 $183 $187 $298 forward $292 $-1 #
coedge $-1 $183 $390 $385 $391 reversed $292 $-1 #
loop $-1 $-1 $183 $278 #
vertex $-1 $391 $392 #
straight-curve $-1 0 38.96864889786162 -4.9609638729951211 1 0 0 I I #
straight-curve $-1 0 26.698679852453729 -4.9609638729951211 1 0 0 I I #
coedge $-1 $187 $186 $382 $393 reversed $103 $-1 #
edge $-1 $189 0.93501811144427993 $383 7.1168734116574024 $186 $394 forward 7 unknown #
edge $-1 $188 4.9609638729951211 $395 11.142819173208244 $187 $396 forward 7 unknown #
point $-1 76.710104678487511 38.96864889786162 -4.9609638729951211 #
point $-1 76.710104678487511 26.698679852453729 -4.9609638729951211 #
loop $-1 $-1 $199 $191 #
plane-surface $-1 76.710104678487511 0 0 -1 0 0 0 0 1 forward_v I I I I #
coedge $-1 $304 $194 $196 $308 reversed $111 $-1 #
coedge $-1 $194 $303 $397 $398 reversed $111 $-1 #
coedge $-1 $202 $197 $194 $306 forward $192 $-1 #
edge $-1 $309 17.238335737286704 $399 21.384340754052985 $305 $400 forward 7 unknown #
coedge $-1 $196 $195 $312 $401 reversed $69 $-1 #
edge $-1 $402 -153.42020935697502 $309 -146.36660418391591 $303 $403 forward 7 unknown #
vertex $-1 $198 $404 #
straight-curve $-1 72.564099661721229 -9.9548574463689583 11.142819173208238 0 -1 0 I I #
coedge $-1 $397 $199 $202 $316 reversed $301 $-1 #
coedge $-1 $199 $397 $307 $401 forward $301 $-1 #
vertex $-1 $200 $405 #
straight-curve $-1 76.710104678487511 -13.120749933022097 109.86701265015375 0 0 1 I I #
straight-curve $-1 -13.46803005704183 -13.120749933022097 129.55589056477817 0.5877852410284794 0 -0.80901700255871778 I I #
edge $-1 $399 -26.698679852453736 $203 -13.120749933022097 $311 $406 forward 7 unknown #
point $-1 76.710104678487511 -13.120749933022097 11.142819173208244 #
point $-1 72.564099661721229 -13.120749933022097 11.142819173208238 #
edge $-1 $407 1 $407 0 $206 $-1 forward 7 unknown #
vertex $-1 $207 $408 #
ellipse-curve $-1 72.852941546690545 -19.909714892737917 6.9933073842887321 0.80901700255871778 0 0.5877852410284794 0.8816778615427191 0 -1.2135255038380768 1 I I #
point $-1 75.51878003164704 -19.909714892737917 7.0760504121996846 #
plane-surface $-1 0 0 11.142819173208244 0 0 1 1 0 0 forward_v I I I I #
coedge $-1 $334 $333 $326 $409 forward $211 $-1 #
coedge $-1 $326 $213 $215 $330 reversed $126 $-1 #
coedge $-1 $213 $325 $324 $409 reversed $126 $-1 #
coedge $-1 $221 $216 $213 $328 forward $222 $-1 #
edge $-1 $331 -24.408812664394773 $410 -20.408297716455792 $327 $411 forward 7 unknown #
coedge $-1 $215 $214 $334 $412 reversed $78 $-1 #
edge $-1 $413 4.4123720097533069e-014 $331 6.2236965198393266 $325 $414 forward 7 unknown #
vertex $-1 $217 $415 #
straight-curve $-1 -72.709589730548529 5.732129921062679 11.142819173208244 0 1 0 I I #
coedge $-1 $324 $218 $221 $338 reversed $211 $-1 #
coedge $-1 $218 $324 $329 $412 forward $211 $-1 #
vertex $-1 $219 $416 #
straight-curve $-1 -76.710104678487511 3.8833472371959701 52.495899561004748 0 0 1 I I #
straight-curve $-1 -76.710104678487539 3.8833472371959701 6.3751909869528731 -0.64278759981090561 0 -0.7660444514056185 I I #
edge $-1 $410 -19.045172447054746 $223 -3.8833472371959701 $333 $417 forward 7 unknown #
point $-1 -76.710104678487511 3.8833472371959701 11.142819173208244 #
point $-1 -72.709589730548529 3.8833472371959701 11.142819173208244 #
edge $-1 $418 1 $418 0 $226 $-1 forward 7 unknown #
vertex $-1 $227 $419 #
ellipse-curve $-1 -72.391070604029238 11.464259842125358 6.8133205407682915 -0.7660444514056185 0 0.64278759981090561 0.64278759981090561 0 0.7660444514056185 1 I I #
point $-1 -74.067059604707083 11.464259842125358 9.5250495314861716 #
plane-surface $-1 76.710104678487511 0 0 -1 0 0 0 0 1 forward_v I I I I #
coedge $-1 $235 $233 $237 $350 reversed $141 $-1 #
edge $-1 $248 -11.142819173208244 $352 11.142819173208244 $247 $420 forward 7 unknown #
vertex $-1 $350 $421 #
straight-curve $-1 -76.710104678487511 -38.96864889786162 0 0 0 -1 I I #
edge $-1 $348 -38.96864889786162 $352 38.96864889786162 $346 $422 forward 7 unknown #
straight-curve $-1 0 -38.96864889786162 -11.142819173208244 -1 0 0 I I #
vertex $-1 $240 $423 #
straight-curve $-1 0 38.96864889786162 -11.142819173208244 1 0 0 I I #
point $-1 76.710104678487511 38.96864889786162 -11.142819173208244 #
point $-1 76.710104678487511 -38.96864889786162 -11.142819173208244 #
straight-curve $-1 -76.710104678487511 0 11.142819173208244 0 -1 0 I I #
point $-1 -76.710104678487511 38.96864889786162 11.142819173208244 #
point $-1 -76.710104678487511 -38.96864889786162 11.142819173208244 #
straight-curve $-1 76.710104678487511 -38.96864889786162 0 0 0 -1 I I #
straight-curve $-1 76.710104678487511 38.96864889786162 0 0 0 -1 I I #
loop $-1 $-1 $369 $257 #
plane-surface $-1 -76.710104678487511 0 0 1 0 0 0 0 -1 forward_v I I I I #
coedge $-1 $261 $260 $375 $424 forward $95 $-1 #
edge $-1 $265 26.698679852453733 $378 38.96864889786162 $264 $425 forward 7 unknown #
coedge $-1 $372 $369 $261 $366 reversed $361 $-1 #
edge $-1 $426 -38.96864889786162 $367 -26.698679852453733 $365 $427 forward 7 unknown #
vertex $-1 $370 $428 #
straight-curve $-1 0 -26.698679852453733 -11.142819173208244 1 0 0 I I #
coedge $-1 $365 $267 $263 $370 forward $361 $-1 #
edge $-1 $269 0.93501811144427993 $367 7.1168734116574024 $369 $429 forward 7 unknown #
point $-1 76.710104678487511 -26.698679852453733 -11.142819173208244 #
coedge $-1 $267 $365 $271 $376 reversed $361 $-1 #
straight-curve $-1 -76.710104678487511 -16.416832187578837 -4.9609638729951211 0 1 0 I I #
point $-1 -76.710104678487511 -26.698679852453733 -4.9609638729951211 #
coedge $-1 $272 $271 $363 $424 reversed $258 $-1 #
edge $-1 $273 4.9609638729951211 $426 11.142819173208244 $372 $430 forward 7 unknown #
point $-1 -76.710104678487511 -38.96864889786162 -4.9609638729951211 #
vertex $-1 $275 $431 #
straight-curve $-1 76.710104678487511 -38.96864889786162 0 0 0 -1 I I #
plane-surface $-1 0 38.96864889786162 0 0 -1 0 0 0 -1 forward_v I I I I #
coedge $-1 $432 $281 $285 $386 forward $176 $-1 #
coedge $-1 $281 $432 $296 $393 forward $176 $-1 #
vertex $-1 $283 $433 #
straight-curve $-1 0 26.698679852453729 -11.142819173208244 -1 0 0 I I #
coedge $-1 $285 $284 $291 $391 forward $279 $-1 #
edge $-1 $286 26.698679852453729 $434 38.96864889786162 $285 $435 forward 7 unknown #
point $-1 -76.710104678487511 26.698679852453729 -11.142819173208244 #
point $-1 -76.710104678487511 26.698679852453729 -4.9609638729951211 #
straight-curve $-1 -76.710104678487511 16.416832187578837 -4.9609638729951211 0 1 0 I I #
coedge $-1 $291 $290 $432 $436 reversed $292 $-1 #
edge $-1 $293 4.9609638729951211 $434 11.142819173208244 $291 $437 forward 7 unknown #
point $-1 -76.710104678487511 38.96864889786162 -4.9609638729951211 #
edge $-1 $395 -38.96864889786162 $383 -26.698679852453729 $296 $438 forward 7 unknown #
straight-curve $-1 76.710104678487511 26.698679852453729 -4.0259457615508412 0 0 -1 I I #
vertex $-1 $393 $439 #
straight-curve $-1 76.710104678487511 38.96864889786162 0 0 0 -1 I I #
coedge $-1 $312 $311 $304 $398 forward $301 $-1 #
edge $-1 $399 98.724193476945516 $402 104.43067999128647 $397 $440 forward 7 unknown #
vertex $-1 $316 $441 #
straight-curve $-1 55.325763924434526 -26.698679852453736 11.142819173208238 1 0 0 I I #
edge $-1 $402 -16.743822406084778 $313 -3.1658924866531386 $312 $442 forward 7 unknown #
vertex $-1 $401 $443 #
straight-curve $-1 -13.46803005704183 -26.698679852453736 129.55589056477817 -0.5877852410284794 0 0.80901700255871778 I I #
point $-1 72.564099661721229 -26.698679852453736 11.142819173208238 #
point $-1 76.710104678487511 -13.120749933022097 5.4363326588672862 #
straight-curve $-1 76.710104678487511 0 11.142819173208244 0 1 0 I I #
vertex $-1 $319 $444 #
point $-1 73.734619408233272 -19.909714892737917 5.7797818804506553 #
edge $-1 $410 41.353080387796503 $413 46.120708574051839 $324 $445 forward 7 unknown #
vertex $-1 $338 $446 #
straight-curve $-1 -97.118402394943303 19.045172447054746 11.142819173208245 -1 0 0 I I #
edge $-1 $413 -13.313042525992067 $335 1.848782683866709 $334 $447 forward 7 unknown #
vertex $-1 $412 $448 #
straight-curve $-1 -76.710104678487539 19.045172447054746 6.3751909869528731 0.64278759981090561 0 0.7660444514056185 I I #
point $-1 -72.709589730548529 19.045172447054746 11.142819173208244 #
point $-1 -76.710104678487511 3.8833472371959701 6.3751909869529069 #
straight-curve $-1 -76.710104678487511 0 11.142819173208244 0 -1 0 I I #
vertex $-1 $341 $449 #
point $-1 -71.748283004218337 11.464259842125358 7.5793649921739101 #
straight-curve $-1 -76.710104678487511 38.96864889786162 0 0 0 -1 I I #
point $-1 -76.710104678487511 -38.96864889786162 -11.142819173208244 #
straight-curve $-1 -76.710104678487511 0 -11.142819173208244 0 1 0 I I #
point $-1 -76.710104678487511 38.96864889786162 -11.142819173208244 #
edge $-1 $378 -76.710104678487511 $426 76.710104678487511 $375 $450 forward 7 unknown #
straight-curve $-1 76.710104678487511 0 -11.142819173208244 0 -1 0 I I #
vertex $-1 $366 $451 #
straight-curve $-1 -76.710104678487511 0 -11.142819173208244 0 1 0 I I #
point $-1 -76.710104678487511 -26.698679852453733 -11.142819173208244 #
straight-curve $-1 -76.710104678487511 -26.698679852453733 -4.0259457615508412 0 0 -1 I I #
straight-curve $-1 -76.710104678487511 -38.96864889786162 0 0 0 -1 I I #
point $-1 76.710104678487511 -38.96864889786162 -11.142819173208244 #
coedge $-1 $382 $381 $390 $436 forward $176 $-1 #
point $-1 76.710104678487511 26.698679852453729 -11.142819173208244 #
vertex $-1 $436 $452 #
straight-curve $-1 -76.710104678487511 0 -11.142819173208244 0 1 0 I I #
edge $-1 $434 -76.710104678487511 $395 76.710104678487511 $390 $453 forward 7 unknown #
straight-curve $-1 -76.710104678487511 38.96864889786162 0 0 0 -1 I I #
straight-curve $-1 76.710104678487511 0 -11.142819173208244 0 -1 0 I I #
point $-1 76.710104678487511 38.96864889786162 -11.142819173208244 #
straight-curve $-1 76.710104678487511 -26.698679852453736 109.86701265015375 0 0 -1 I I #
point $-1 76.710104678487511 -26.698679852453736 11.142819173208244 #
straight-curve $-1 76.710104678487511 -9.9548574463689583 5.4363326588672862 0 1 0 I I #
point $-1 76.710104678487511 -26.698679852453736 5.4363326588672862 #
point $-1 71.639416042852474 -19.909714892737917 6.1116295227460125 #
straight-curve $-1 -76.710104678487511 19.045172447054746 52.495899561004748 0 0 -1 I I #
point $-1 -76.710104678487511 19.045172447054746 11.142819173208244 #
straight-curve $-1 -76.710104678487511 5.732129921062679 6.3751909869529033 0 -1 0 I I #
point $-1 -76.710104678487511 19.045172447054746 6.3751909869529069 #
point $-1 -71.625026152623633 11.464259842125358 6.1705329409573864 #
straight-curve $-1 0 -38.96864889786162 -11.142819173208244 -1 0 0 I I #
point $-1 -76.710104678487511 -38.96864889786162 -11.142819173208244 #
point $-1 -76.710104678487511 38.96864889786162 -11.142819173208244 #
straight-curve $-1 0 38.96864889786162 -11.142819173208244 1 0 0 I I #
End-of-ACIS-data 