500 0 5 0           
7 Unknown 11 ACIS 5.0 NT 24 Thu Mar 25 15:41:45 1999 
-1 9.9999999999999995e-007 1e-010 
body $-1 $5 $-1 $6 #
body $-1 $7 $-1 $8 #
body $-1 $9 $-1 $10 #
body $-1 $11 $-1 $12 #
body $-1 $13 $-1 $14 #
lump $-1 $-1 $15 $0 #
transform $-1 1 0 0 0 1 0 0 0 1 60.210577715384375 26.084757712294042 11.108411438127455 1 rotate no_reflect no_shear #
lump $-1 $-1 $16 $1 #
transform $-1 1 0 0 0 1 0 0 0 1 60.210577715384375 26.084757712294042 11.108411438127455 1 rotate no_reflect no_shear #
lump $-1 $-1 $17 $2 #
transform $-1 1 0 0 0 1 0 0 0 1 60.210577715384375 26.084757712294042 11.108411438127455 1 rotate no_reflect no_shear #
lump $-1 $-1 $18 $3 #
transform $-1 1 0 0 0 1 0 0 0 1 60.210577715384375 26.084757712294042 11.108411438127455 1 rotate no_reflect no_shear #
lump $-1 $-1 $19 $4 #
transform $-1 1 0 0 0 1 0 0 0 1 60.210577715384375 26.084757712294042 11.108411438127455 1 rotate no_reflect no_shear #
shell $-1 $-1 $-1 $20 $-1 $5 #
shell $-1 $-1 $-1 $21 $-1 $7 #
shell $-1 $-1 $-1 $22 $-1 $9 #
shell $-1 $-1 $-1 $23 $-1 $11 #
shell $-1 $-1 $-1 $24 $-1 $13 #
face $-1 $25 $26 $15 $-1 $27 forward single #
face $-1 $28 $29 $16 $-1 $30 forward single #
face $-1 $31 $32 $17 $-1 $33 forward single #
face $-1 $34 $35 $18 $-1 $36 reversed single #
face $-1 $37 $38 $19 $-1 $39 reversed single #
face $-1 $40 $41 $15 $-1 $42 reversed single #
loop $-1 $-1 $43 $20 #
plane-surface $-1 0 0 11.108411438127455 0 0 1 1 0 0 forward_v I I I I #
face $-1 $44 $45 $16 $-1 $46 forward single #
loop $-1 $-1 $47 $21 #
plane-surface $-1 0 -19.416395310495332 7.4771165903123258 0 0 1 1 0 0 forward_v I I I I #
face $-1 $48 $49 $17 $-1 $50 forward single #
loop $-1 $-1 $51 $22 #
plane-surface $-1 -43.821584440335897 90.860972026840898 117.81982144535877 -1 0 0 0 0.79863551827123203 0.60181501223851219 forward_v I I I I #
face $-1 $52 $53 $18 $-1 $54 reversed single #
loop $-1 $55 $56 $23 #
cone-surface $-1 -55.528008208227668 22.505508662320011 6.8070297375969737 0 -0.79863551827123203 -0.60181501223851219 1 0 0 1 I I 0 1 1 forward I I I I #
face $-1 $57 $58 $19 $-1 $59 reversed single #
loop $-1 $60 $61 $24 #
cone-surface $-1 -48.504153947492611 22.505508662320011 6.8070297375969737 0 -0.79863551827123203 -0.60181501223851219 1 0 0 1 I I 0 1 1 forward I I I I #
face $-1 $62 $63 $15 $-1 $64 reversed single #
loop $-1 $-1 $65 $25 #
plane-surface $-1 0 0 -11.108411438127455 0 0 1 1 0 0 forward_v I I I I #
coedge $-1 $66 $67 $68 $69 forward $26 $-1 #
face $-1 $70 $71 $16 $-1 $72 forward single #
loop $-1 $-1 $73 $28 #
plane-surface $-1 0 -12.748032908696622 9.2927640142198911 0 -1 0 0 0 -1 forward_v I I I I #
coedge $-1 $74 $75 $76 $77 reversed $29 $-1 #
face $-1 $78 $79 $17 $-1 $80 reversed single #
loop $-1 $-1 $81 $31 #
plane-surface $-1 -52.016081077860136 -5.3116398514316927 45.348562316014892 0 0.79863551827123203 0.60181501223851219 1 0 0 forward_v I I I I #
coedge $-1 $82 $83 $84 $85 reversed $32 $-1 #
face $-1 $86 $87 $18 $-1 $88 forward single #
loop $-1 $89 $90 $34 #
cone-surface $-1 -55.528008208227668 21.324238816788423 5.9168790865409804 0 -0.79863551827123203 -0.60181501223851219 0.5 0 0 1 I I -0.70710678118654746 0.70710678118654746 0.5 forward I I I I #
loop $-1 $-1 $91 $23 #
coedge $-1 $56 $56 $92 $93 reversed $35 $-1 #
face $-1 $94 $95 $19 $-1 $96 reversed single #
loop $-1 $97 $98 $37 #
cone-surface $-1 -48.504153947492611 21.324238816788423 5.9168790865409804 0 -0.79863551827123203 -0.60181501223851219 0.5 0 0 1 I I -0.70710678118654746 0.70710678118654746 0.5 forward I I I I #
loop $-1 $-1 $99 $24 #
coedge $-1 $61 $61 $100 $101 reversed $38 $-1 #
face $-1 $102 $103 $15 $-1 $104 reversed single #
loop $-1 $-1 $105 $40 #
plane-surface $-1 0 -26.084757712294042 0 0 1 0 0 0 1 forward_v I I I I #
coedge $-1 $106 $107 $108 $109 forward $41 $-1 #
coedge $-1 $110 $43 $111 $112 forward $26 $-1 #
coedge $-1 $43 $110 $113 $114 forward $26 $-1 #
coedge $-1 $115 $116 $43 $69 reversed $117 $-1 #
edge $-1 $118 -26.084757712294042 $119 26.084757712294042 $68 $120 forward 7 unknown #
face $-1 $121 $122 $16 $-1 $123 reversed single #
loop $-1 $-1 $124 $44 #
plane-surface $-1 0 0 11.108411438127455 0 0 1 1 0 0 forward_v I I I I #
coedge $-1 $125 $126 $127 $128 reversed $45 $-1 #
coedge $-1 $129 $47 $126 $130 reversed $29 $-1 #
coedge $-1 $47 $129 $131 $132 reversed $29 $-1 #
coedge $-1 $133 $127 $47 $77 forward $122 $-1 #
edge $-1 $134 3.0398352534489561 $135 16.376560057046376 $76 $136 forward 7 unknown #
face $-1 $137 $138 $17 $-1 $139 forward single #
loop $-1 $-1 $140 $48 #
plane-surface $-1 0 26.084757712294042 0 0 -1 0 0 0 -1 forward_v I I I I #
coedge $-1 $141 $142 $140 $143 reversed $49 $-1 #
coedge $-1 $83 $51 $142 $144 forward $32 $-1 #
coedge $-1 $51 $82 $145 $146 reversed $32 $-1 #
coedge $-1 $147 $140 $51 $85 forward $79 $-1 #
edge $-1 $148 -55.225776395739437 $149 -47.80149928455193 $84 $150 forward 7 unknown #
face $-1 $151 $152 $18 $-1 $153 forward single #
loop $-1 $-1 $154 $52 #
plane-surface $-1 -43.821584440335897 90.860972026840898 117.81982144535877 -1 0 0 0 0.79863551827123203 0.60181501223851219 forward_v I I I I #
loop $-1 $-1 $155 $34 #
coedge $-1 $90 $90 $91 $156 forward $53 $-1 #
coedge $-1 $91 $91 $90 $156 reversed $55 $-1 #
coedge $-1 $92 $92 $56 $93 forward $152 $-1 #
edge $-1 $157 6.8916297556722708e-016 $157 6.2831853071796013 $92 $158 forward 7 unknown #
face $-1 $159 $160 $19 $-1 $161 reversed single #
loop $-1 $162 $163 $57 #
cone-surface $-1 -55.528008208227668 22.505508662320011 6.8070297375969737 0 -0.79863551827123203 -0.60181501223851219 1 0 0 1 I I 0 1 1 forward I I I I #
loop $-1 $-1 $164 $37 #
coedge $-1 $98 $98 $99 $165 forward $58 $-1 #
coedge $-1 $99 $99 $98 $165 reversed $60 $-1 #
coedge $-1 $100 $100 $61 $101 forward $166 $-1 #
edge $-1 $167 6.8916297556722708e-016 $167 6.2831853071796013 $100 $168 forward 7 unknown #
face $-1 $169 $170 $15 $-1 $171 reversed single #
loop $-1 $-1 $172 $62 #
plane-surface $-1 -60.210577715384375 0 0 1 0 0 0 0 -1 forward_v I I I I #
coedge $-1 $173 $113 $174 $175 forward $63 $-1 #
coedge $-1 $176 $65 $173 $177 forward $41 $-1 #
coedge $-1 $65 $176 $178 $179 forward $41 $-1 #
coedge $-1 $116 $115 $65 $109 reversed $117 $-1 #
edge $-1 $180 -26.084757712294042 $181 26.084757712294042 $108 $182 forward 7 unknown #
coedge $-1 $67 $66 $183 $184 forward $26 $-1 #
coedge $-1 $185 $186 $66 $112 reversed $170 $-1 #
edge $-1 $119 -60.210577715384375 $187 60.210577715384375 $111 $188 forward 7 unknown #
coedge $-1 $105 $189 $67 $114 reversed $63 $-1 #
edge $-1 $190 -60.210577715384375 $118 60.210577715384375 $113 $191 forward 7 unknown #
coedge $-1 $108 $68 $189 $192 forward $117 $-1 #
coedge $-1 $68 $108 $185 $193 reversed $117 $-1 #
loop $-1 $-1 $115 $169 #
vertex $-1 $69 $194 #
vertex $-1 $69 $195 #
straight-curve $-1 60.210577715384375 0 11.108411438127455 0 1 0 I I #
face $-1 $196 $197 $16 $-1 $198 reversed single #
loop $-1 $-1 $127 $70 #
plane-surface $-1 60.210577715384375 0 0 -1 0 0 0 0 1 forward_v I I I I #
coedge $-1 $199 $200 $125 $201 forward $71 $-1 #
coedge $-1 $202 $73 $124 $201 reversed $45 $-1 #
coedge $-1 $73 $202 $74 $130 forward $45 $-1 #
coedge $-1 $76 $203 $73 $128 forward $122 $-1 #
edge $-1 $204 -6.4620294310175108 $134 -2.8307345832023803 $127 $205 forward 7 unknown #
coedge $-1 $75 $74 $206 $207 reversed $29 $-1 #
edge $-1 $208 -60.210577715384375 $134 60.210577715384375 $126 $209 forward 7 unknown #
coedge $-1 $210 $211 $75 $132 forward $212 $-1 #
edge $-1 $135 -60.210577715384375 $213 60.210577715384375 $131 $214 forward 7 unknown #
coedge $-1 $215 $76 $211 $216 forward $122 $-1 #
vertex $-1 $77 $217 #
vertex $-1 $216 $218 #
straight-curve $-1 60.210577715384375 -9.7081976552476661 7.4771165903123258 0 -1 0 I I #
face $-1 $219 $220 $17 $-1 $221 forward single #
loop $-1 $-1 $145 $78 #
plane-surface $-1 0 0 11.108411438127455 0 0 1 1 0 0 forward_v I I I I #
coedge $-1 $84 $222 $81 $143 forward $79 $-1 #
coedge $-1 $223 $81 $224 $225 reversed $49 $-1 #
coedge $-1 $81 $223 $82 $144 reversed $49 $-1 #
edge $-1 $226 -34.202537176454307 $148 -17.813543901405829 $140 $227 forward 7 unknown #
edge $-1 $148 -52.169515424588091 $228 -42.873313413364649 $82 $229 forward 7 unknown #
coedge $-1 $230 $231 $83 $146 forward $138 $-1 #
edge $-1 $149 19.345728301126407 $228 24.940322228282525 $145 $232 forward 7 unknown #
coedge $-1 $233 $84 $231 $234 reversed $79 $-1 #
vertex $-1 $143 $235 #
vertex $-1 $146 $236 #
straight-curve $-1 -43.821584440335897 26.084757712294042 58.909910722679385 0 0 1 I I #
face $-1 $237 $238 $18 $-1 $239 reversed single #
loop $-1 $240 $92 $86 #
plane-surface $-1 -52.016081077860136 -5.3116398514316927 45.348562316014892 0 0.79863551827123203 0.60181501223851219 1 0 0 forward_v I I I I #
coedge $-1 $241 $242 $243 $244 reversed $87 $-1 #
coedge $-1 $155 $155 $-1 $245 forward $89 $-1 #
edge $-1 $246 0 $246 6.2831853071796004 $90 $247 forward 7 unknown #
vertex $-1 $93 $248 #
ellipse-curve $-1 -55.528008208227668 23.287460748715976 7.3962728825337045 0 -0.79863551827123203 -0.60181501223851219 1 0 0 1 I I #
face $-1 $249 $250 $19 $-1 $251 forward single #
loop $-1 $252 $253 $94 #
cone-surface $-1 -55.528008208227668 21.324238816788423 5.9168790865409804 0 -0.79863551827123203 -0.60181501223851219 0.5 0 0 1 I I -0.70710678118654746 0.70710678118654746 0.5 forward I I I I #
loop $-1 $-1 $254 $57 #
coedge $-1 $163 $163 $255 $256 reversed $95 $-1 #
coedge $-1 $164 $164 $-1 $257 forward $97 $-1 #
edge $-1 $258 0 $258 6.2831853071796004 $98 $259 forward 7 unknown #
loop $-1 $260 $100 $249 #
vertex $-1 $101 $261 #
ellipse-curve $-1 -48.504153947492611 23.287460748715976 7.3962728825337045 0 -0.79863551827123203 -0.60181501223851219 1 0 0 1 I I #
face $-1 $-1 $117 $15 $-1 $262 reversed single #
loop $-1 $-1 $185 $102 #
plane-surface $-1 0 26.084757712294042 0 0 -1 0 0 0 -1 forward_v I I I I #
coedge $-1 $263 $183 $186 $264 forward $103 $-1 #
coedge $-1 $189 $105 $106 $177 reversed $63 $-1 #
coedge $-1 $183 $263 $105 $175 reversed $103 $-1 #
edge $-1 $190 -11.108411438127455 $265 11.108411438127455 $174 $266 forward 7 unknown #
coedge $-1 $107 $106 $263 $267 forward $41 $-1 #
edge $-1 $181 -60.210577715384375 $265 60.210577715384375 $173 $268 forward 7 unknown #
coedge $-1 $186 $185 $107 $179 reversed $170 $-1 #
edge $-1 $269 -60.210577715384375 $180 60.210577715384375 $178 $270 forward 7 unknown #
vertex $-1 $109 $271 #
vertex $-1 $192 $272 #
straight-curve $-1 60.210577715384375 0 -11.108411438127455 0 -1 0 I I #
coedge $-1 $172 $174 $110 $184 reversed $103 $-1 #
edge $-1 $187 -26.084757712294042 $190 26.084757712294042 $183 $273 forward 7 unknown #
coedge $-1 $178 $111 $116 $193 forward $170 $-1 #
coedge $-1 $111 $178 $172 $264 reversed $170 $-1 #
vertex $-1 $112 $274 #
straight-curve $-1 0 26.084757712294042 11.108411438127455 -1 0 0 I I #
coedge $-1 $113 $173 $115 $192 reversed $63 $-1 #
vertex $-1 $184 $275 #
straight-curve $-1 0 -26.084757712294042 11.108411438127455 1 0 0 I I #
edge $-1 $118 -11.108411438127455 $181 11.108411438127455 $115 $276 forward 7 unknown #
edge $-1 $119 -11.108411438127455 $180 11.108411438127455 $116 $277 forward 7 unknown #
point $-1 60.210577715384375 -26.084757712294042 11.108411438127455 #
point $-1 60.210577715384375 26.084757712294042 11.108411438127455 #
face $-1 $278 $212 $16 $-1 $279 reversed single #
loop $-1 $-1 $280 $121 #
plane-surface $-1 0 0 -11.108411438127455 0 0 1 1 0 0 forward_v I I I I #
coedge $-1 $281 $124 $203 $282 forward $71 $-1 #
coedge $-1 $124 $281 $283 $284 forward $71 $-1 #
edge $-1 $285 -60.210577715384375 $204 60.210577715384375 $124 $286 forward 7 unknown #
coedge $-1 $126 $125 $287 $288 reversed $45 $-1 #
coedge $-1 $127 $289 $199 $282 reversed $122 $-1 #
vertex $-1 $282 $290 #
straight-curve $-1 60.210577715384375 -12.748032908696622 4.6463820071099455 0 0 -1 I I #
coedge $-1 $287 $291 $129 $207 forward $292 $-1 #
edge $-1 $213 -16.376560057046376 $208 -3.0398352534489561 $206 $293 forward 7 unknown #
vertex $-1 $207 $294 #
straight-curve $-1 0 -12.748032908696622 7.4771165903123258 1 0 0 I I #
coedge $-1 $295 $131 $291 $296 forward $212 $-1 #
coedge $-1 $131 $295 $133 $216 reversed $212 $-1 #
loop $-1 $-1 $131 $196 #
vertex $-1 $296 $297 #
straight-curve $-1 0 -26.084757712294042 7.4771165903123258 -1 0 0 I I #
coedge $-1 $289 $133 $280 $298 reversed $122 $-1 #
edge $-1 $135 -7.4771165903123258 $299 11.108411438127455 $133 $300 forward 7 unknown #
point $-1 60.210577715384375 -12.748032908696622 7.4771165903123258 #
point $-1 60.210577715384375 -26.084757712294042 7.4771165903123258 #
face $-1 $301 $302 $17 $-1 $303 forward single #
loop $-1 $-1 $304 $137 #
plane-surface $-1 0 -19.416395310495332 7.4771165903123258 0 0 1 1 0 0 forward_v I I I I #
coedge $-1 $140 $305 $306 $307 reversed $79 $-1 #
coedge $-1 $142 $141 $230 $308 reversed $49 $-1 #
coedge $-1 $306 $309 $141 $225 forward $310 $-1 #
edge $-1 $311 23.166514828213771 $226 32.462716839437221 $224 $312 forward 7 unknown #
vertex $-1 $307 $313 #
straight-curve $-1 -26.008040538930068 26.084757712294042 3.6841343269399438 1 0 0 I I #
vertex $-1 $308 $314 #
straight-curve $-1 -43.821584440335897 -5.3116398514316927 45.348562316014892 0 -0.60181501223851219 0.79863551827123203 I I #
coedge $-1 $315 $145 $223 $308 forward $138 $-1 #
coedge $-1 $145 $316 $147 $234 forward $138 $-1 #
straight-curve $-1 -43.821584440335897 45.430486013420449 11.108411438127455 0 -1 0 I I #
coedge $-1 $305 $147 $317 $318 forward $79 $-1 #
edge $-1 $319 -60.210577715384375 $149 43.821584440335897 $147 $320 forward 7 unknown #
point $-1 -43.821584440335897 26.084757712294039 3.6841343269399474 #
point $-1 -43.821584440335897 26.084757712294042 11.108411438127455 #
face $-1 $321 $322 $18 $-1 $323 forward single #
loop $-1 $-1 $324 $151 #
plane-surface $-1 0 26.084757712294042 0 0 -1 0 0 0 -1 forward_v I I I I #
loop $-1 $-1 $325 $86 #
coedge $-1 $242 $154 $326 $327 forward $87 $-1 #
coedge $-1 $154 $241 $328 $329 reversed $87 $-1 #
coedge $-1 $330 $324 $154 $244 forward $238 $-1 #
edge $-1 $331 -55.225776395739437 $332 -47.80149928455193 $243 $333 forward 7 unknown #
edge $-1 $334 1 $334 0 $155 $-1 forward 7 unknown #
vertex $-1 $156 $335 #
ellipse-curve $-1 -55.528008208227668 21.723556575924039 6.2177865926602367 0 0.79863551827123203 0.60181501223851219 1 0 0 1 I I #
point $-1 -54.528008208227668 23.287460748715983 7.3962728825337107 #
face $-1 $336 $166 $19 $-1 $337 forward single #
loop $-1 $-1 $338 $159 #
plane-surface $-1 -43.821584440335897 90.860972026840898 117.81982144535877 -1 0 0 0 0.79863551827123203 0.60181501223851219 forward_v I I I I #
loop $-1 $-1 $339 $94 #
coedge $-1 $253 $253 $254 $340 forward $160 $-1 #
coedge $-1 $254 $254 $253 $340 reversed $162 $-1 #
coedge $-1 $255 $255 $163 $256 forward $260 $-1 #
edge $-1 $341 6.8916297556722708e-016 $341 6.2831853071796013 $255 $342 forward 7 unknown #
edge $-1 $343 1 $343 0 $164 $-1 forward 7 unknown #
vertex $-1 $165 $344 #
ellipse-curve $-1 -48.504153947492611 21.723556575924039 6.2177865926602367 0 0.79863551827123203 0.60181501223851219 1 0 0 1 I I #
loop $-1 $345 $255 $249 #
point $-1 -47.504153947492611 23.287460748715983 7.3962728825337107 #
plane-surface $-1 60.210577715384375 0 0 -1 0 0 0 0 1 forward_v I I I I #
coedge $-1 $174 $172 $176 $267 reversed $103 $-1 #
edge $-1 $187 -11.108411438127455 $269 11.108411438127455 $186 $346 forward 7 unknown #
vertex $-1 $267 $347 #
straight-curve $-1 -60.210577715384375 -26.084757712294042 0 0 0 -1 I I #
edge $-1 $265 -26.084757712294042 $269 26.084757712294042 $263 $348 forward 7 unknown #
straight-curve $-1 0 -26.084757712294042 -11.108411438127455 -1 0 0 I I #
vertex $-1 $179 $349 #
straight-curve $-1 0 26.084757712294042 -11.108411438127455 1 0 0 I I #
point $-1 60.210577715384375 26.084757712294042 -11.108411438127455 #
point $-1 60.210577715384375 -26.084757712294042 -11.108411438127455 #
straight-curve $-1 -60.210577715384375 0 11.108411438127455 0 -1 0 I I #
point $-1 -60.210577715384375 26.084757712294042 11.108411438127455 #
point $-1 -60.210577715384375 -26.084757712294042 11.108411438127455 #
straight-curve $-1 60.210577715384375 -26.084757712294042 0 0 0 -1 I I #
straight-curve $-1 60.210577715384375 26.084757712294042 0 0 0 -1 I I #
face $-1 $350 $292 $16 $-1 $351 reversed single #
plane-surface $-1 0 -26.084757712294042 0 0 1 0 0 0 1 forward_v I I I I #
coedge $-1 $352 $353 $215 $298 forward $197 $-1 #
coedge $-1 $200 $199 $354 $355 forward $71 $-1 #
edge $-1 $204 -12.748032908696622 $356 26.084757712294042 $203 $357 forward 7 unknown #
coedge $-1 $358 $287 $200 $284 reversed $292 $-1 #
edge $-1 $359 -26.084757712294042 $285 12.748032908696622 $283 $360 forward 7 unknown #
vertex $-1 $288 $361 #
straight-curve $-1 0 -12.748032908696622 11.108411438127455 1 0 0 I I #
coedge $-1 $283 $206 $202 $288 forward $292 $-1 #
edge $-1 $208 2.8307345832023803 $285 6.4620294310175108 $287 $362 forward 7 unknown #
coedge $-1 $203 $215 $363 $364 reversed $122 $-1 #
point $-1 60.210577715384375 -12.748032908696622 11.108411438127456 #
coedge $-1 $206 $365 $210 $296 reversed $292 $-1 #
loop $-1 $-1 $287 $278 #
straight-curve $-1 -60.210577715384375 -9.7081976552476661 7.4771165903123258 0 1 0 I I #
point $-1 -60.210577715384375 -12.748032908696622 7.4771165903123258 #
coedge $-1 $211 $210 $352 $366 reversed $212 $-1 #
edge $-1 $213 -7.4771165903123258 $367 11.108411438127455 $291 $368 forward 7 unknown #
point $-1 -60.210577715384375 -26.084757712294042 7.4771165903123258 #
edge $-1 $369 -26.084757712294042 $299 26.084757712294042 $215 $370 forward 7 unknown #
vertex $-1 $216 $371 #
straight-curve $-1 60.210577715384375 -26.084757712294042 0 0 0 -1 I I #
face $-1 $372 $373 $17 $-1 $374 reversed single #
loop $-1 $-1 $375 $219 #
plane-surface $-1 0 -12.748032908696622 9.2927640142198911 0 -1 0 0 0 -1 forward_v I I I I #
coedge $-1 $376 $377 $378 $379 reversed $220 $-1 #
coedge $-1 $222 $233 $380 $381 reversed $79 $-1 #
coedge $-1 $382 $224 $222 $307 forward $310 $-1 #
edge $-1 $226 -3.6841343269399438 $383 11.108411438127455 $222 $384 forward 7 unknown #
edge $-1 $228 17.813543901405829 $311 34.202537176454307 $230 $385 forward 7 unknown #
coedge $-1 $224 $386 $315 $387 reversed $310 $-1 #
loop $-1 $-1 $224 $388 #
vertex $-1 $387 $389 #
straight-curve $-1 -60.210577715384375 6.5482073802727747 29.61001301449614 0 0.60181501223851219 -0.79863551827123203 I I #
point $-1 -60.210577715384375 26.084757712294042 3.6841343269399438 #
point $-1 -43.821584440335897 20.490163785137923 11.108411438127455 #
coedge $-1 $390 $230 $309 $387 forward $138 $-1 #
coedge $-1 $231 $390 $391 $392 forward $138 $-1 #
coedge $-1 $391 $393 $233 $318 reversed $373 $-1 #
edge $-1 $319 -11.108411438127455 $394 11.108411438127455 $317 $395 forward 7 unknown #
vertex $-1 $392 $396 #
straight-curve $-1 0 26.084757712294042 11.108411438127455 -1 0 0 I I #
face $-1 $397 $398 $18 $-1 $399 forward single #
loop $-1 $-1 $328 $237 #
plane-surface $-1 0 0 11.108411438127455 0 0 1 1 0 0 forward_v I I I I #
coedge $-1 $243 $400 $325 $401 forward $238 $-1 #
coedge $-1 $402 $326 $324 $401 reversed $240 $-1 #
coedge $-1 $325 $403 $241 $327 reversed $240 $-1 #
edge $-1 $331 -52.169515424588091 $404 -42.873313413364649 $241 $405 forward 7 unknown #
coedge $-1 $406 $407 $242 $329 forward $322 $-1 #
edge $-1 $332 19.345728301126407 $404 24.940322228282525 $328 $408 forward 7 unknown #
coedge $-1 $409 $243 $407 $410 reversed $238 $-1 #
vertex $-1 $401 $411 #
vertex $-1 $329 $412 #
straight-curve $-1 -43.821584440335897 26.084757712294042 58.909910722679385 0 0 1 I I #
vertex $-1 $245 $413 #
point $-1 -54.528008208227668 21.723556575924039 6.2177865926602367 #
face $-1 $414 $415 $19 $-1 $416 reversed single #
plane-surface $-1 -52.016081077860136 -5.3116398514316927 45.348562316014892 0 0.79863551827123203 0.60181501223851219 1 0 0 forward_v I I I I #
coedge $-1 $417 $418 $419 $420 reversed $250 $-1 #
coedge $-1 $339 $339 $-1 $421 forward $252 $-1 #
edge $-1 $422 0 $422 6.2831853071796004 $253 $423 forward 7 unknown #
vertex $-1 $256 $424 #
ellipse-curve $-1 -55.528008208227668 23.287460748715976 7.3962728825337045 0 -0.79863551827123203 -0.60181501223851219 1 0 0 1 I I #
vertex $-1 $257 $425 #
point $-1 -47.504153947492611 21.723556575924039 6.2177865926602367 #
loop $-1 $-1 $426 $249 #
straight-curve $-1 -60.210577715384375 26.084757712294042 0 0 0 -1 I I #
point $-1 -60.210577715384375 -26.084757712294042 -11.108411438127455 #
straight-curve $-1 -60.210577715384375 0 -11.108411438127455 0 1 0 I I #
point $-1 -60.210577715384375 26.084757712294042 -11.108411438127455 #
face $-1 $-1 $427 $16 $-1 $428 reversed single #
plane-surface $-1 -60.210577715384375 0 0 1 0 0 0 0 -1 forward_v I I I I #
coedge $-1 $429 $280 $295 $366 forward $197 $-1 #
coedge $-1 $280 $429 $430 $431 forward $197 $-1 #
coedge $-1 $363 $432 $281 $355 reversed $427 $-1 #
edge $-1 $356 -60.210577715384375 $359 60.210577715384375 $354 $433 forward 7 unknown #
vertex $-1 $282 $434 #
straight-curve $-1 60.210577715384375 0 11.108411438127455 0 1 0 I I #
coedge $-1 $365 $283 $432 $435 forward $292 $-1 #
vertex $-1 $355 $436 #
straight-curve $-1 -60.210577715384375 0 11.108411438127455 0 -1 0 I I #
point $-1 -60.210577715384375 -12.748032908696622 11.108411438127456 #
straight-curve $-1 -60.210577715384375 -12.748032908696622 4.6463820071099455 0 0 1 I I #
coedge $-1 $430 $354 $289 $364 forward $427 $-1 #
edge $-1 $356 -11.108411438127455 $369 11.108411438127455 $289 $437 forward 7 unknown #
coedge $-1 $291 $358 $429 $438 reversed $292 $-1 #
edge $-1 $299 -60.210577715384375 $367 60.210577715384375 $295 $439 forward 7 unknown #
vertex $-1 $438 $440 #
straight-curve $-1 -60.210577715384375 -26.084757712294042 0 0 0 -1 I I #
vertex $-1 $298 $441 #
straight-curve $-1 60.210577715384375 0 -11.108411438127455 0 -1 0 I I #
point $-1 60.210577715384375 -26.084757712294042 -11.108411438127455 #
face $-1 $442 $443 $17 $-1 $444 reversed single #
loop $-1 $-1 $445 $301 #
plane-surface $-1 60.210577715384375 0 0 -1 0 0 0 0 1 forward_v I I I I #
coedge $-1 $446 $447 $445 $448 reversed $302 $-1 #
coedge $-1 $449 $304 $447 $450 reversed $220 $-1 #
coedge $-1 $304 $449 $451 $452 reversed $220 $-1 #
coedge $-1 $453 $445 $304 $379 forward $373 $-1 #
edge $-1 $454 3.0398352534489561 $455 16.376560057046376 $378 $456 forward 7 unknown #
coedge $-1 $457 $458 $305 $381 forward $443 $-1 #
edge $-1 $383 -60.210577715384375 $394 60.210577715384375 $305 $459 forward 7 unknown #
coedge $-1 $460 $306 $458 $461 reversed $310 $-1 #
vertex $-1 $381 $462 #
straight-curve $-1 -60.210577715384375 26.084757712294042 0 0 0 -1 I I #
straight-curve $-1 -26.008040538930068 20.490163785137916 11.108411438127458 -1 0 0 I I #
coedge $-1 $309 $463 $464 $465 forward $310 $-1 #
edge $-1 $311 -20.490163785137923 $466 12.748032908696622 $309 $467 forward 7 unknown #
face $-1 $-1 $310 $17 $-1 $468 reversed single #
point $-1 -60.210577715384375 20.490163785137923 11.108411438127455 #
coedge $-1 $316 $315 $446 $469 forward $138 $-1 #
coedge $-1 $445 $317 $316 $392 reversed $373 $-1 #
edge $-1 $470 -12.748032908696622 $319 26.084757712294042 $391 $471 forward 7 unknown #
coedge $-1 $317 $453 $457 $472 reversed $373 $-1 #
vertex $-1 $472 $473 #
straight-curve $-1 60.210577715384375 26.084757712294042 0 0 0 -1 I I #
point $-1 60.210577715384375 26.084757712294042 11.108411438127455 #
face $-1 $474 $475 $18 $-1 $476 forward single #
loop $-1 $-1 $477 $321 #
plane-surface $-1 0 -19.416395310495332 7.4771165903123258 0 0 1 1 0 0 forward_v I I I I #
coedge $-1 $324 $478 $479 $480 reversed $238 $-1 #
edge $-1 $481 -34.202537176454307 $331 -17.813543901405829 $324 $482 forward 7 unknown #
coedge $-1 $403 $325 $483 $484 reversed $240 $-1 #
coedge $-1 $326 $402 $406 $485 reversed $240 $-1 #
vertex $-1 $485 $486 #
straight-curve $-1 -43.821584440335897 -5.3116398514316927 45.348562316014892 0 -0.60181501223851219 0.79863551827123203 I I #
coedge $-1 $487 $328 $403 $485 forward $322 $-1 #
coedge $-1 $328 $488 $330 $410 forward $322 $-1 #
straight-curve $-1 -43.821584440335897 45.430486013420449 11.108411438127455 0 -1 0 I I #
coedge $-1 $478 $330 $489 $490 forward $238 $-1 #
edge $-1 $491 -60.210577715384375 $332 43.821584440335897 $330 $492 forward 7 unknown #
point $-1 -43.821584440335897 26.084757712294039 3.6841343269399474 #
point $-1 -43.821584440335897 26.084757712294042 11.108411438127455 #
point $-1 -55.528008208227668 20.924921057652806 5.6159715804217241 #
face $-1 $493 $494 $19 $-1 $495 forward single #
loop $-1 $-1 $496 $336 #
plane-surface $-1 0 26.084757712294042 0 0 -1 0 0 0 -1 forward_v I I I I #
coedge $-1 $418 $338 $497 $498 forward $250 $-1 #
coedge $-1 $338 $417 $499 $500 reversed $250 $-1 #
coedge $-1 $501 $496 $338 $420 forward $415 $-1 #
edge $-1 $502 -55.225776395739437 $503 -47.80149928455193 $419 $504 forward 7 unknown #
edge $-1 $505 1 $505 0 $339 $-1 forward 7 unknown #
vertex $-1 $340 $506 #
ellipse-curve $-1 -55.528008208227668 21.723556575924039 6.2177865926602367 0 0.79863551827123203 0.60181501223851219 1 0 0 1 I I #
point $-1 -54.528008208227668 23.287460748715983 7.3962728825337107 #
point $-1 -48.504153947492611 20.924921057652806 5.6159715804217241 #
coedge $-1 $507 $497 $496 $508 reversed $345 $-1 #
loop $-1 $-1 $363 $350 #
plane-surface $-1 0 26.084757712294042 0 0 -1 0 0 0 -1 forward_v I I I I #
coedge $-1 $353 $352 $365 $438 forward $197 $-1 #
coedge $-1 $432 $363 $353 $431 reversed $427 $-1 #
edge $-1 $509 -60.210577715384375 $369 60.210577715384375 $430 $510 forward 7 unknown #
coedge $-1 $354 $430 $358 $435 reversed $427 $-1 #
straight-curve $-1 0 26.084757712294042 11.108411438127455 -1 0 0 I I #
point $-1 60.210577715384375 26.084757712294042 11.108411438127455 #
edge $-1 $359 -11.108411438127455 $509 11.108411438127455 $432 $511 forward 7 unknown #
point $-1 -60.210577715384375 26.084757712294042 11.108411438127455 #
straight-curve $-1 60.210577715384375 26.084757712294042 0 0 0 -1 I I #
edge $-1 $367 -26.084757712294042 $509 26.084757712294042 $365 $512 forward 7 unknown #
straight-curve $-1 0 -26.084757712294042 -11.108411438127455 -1 0 0 I I #
point $-1 -60.210577715384375 -26.084757712294042 -11.108411438127455 #
point $-1 60.210577715384375 26.084757712294042 -11.108411438127455 #
face $-1 $388 $513 $17 $-1 $514 reversed single #
loop $-1 $-1 $457 $372 #
plane-surface $-1 0 0 -11.108411438127455 0 0 1 1 0 0 forward_v I I I I #
coedge $-1 $378 $391 $375 $448 forward $373 $-1 #
coedge $-1 $464 $375 $390 $469 reversed $302 $-1 #
coedge $-1 $375 $464 $376 $450 forward $302 $-1 #
edge $-1 $470 -6.4620294310175108 $454 -2.8307345832023803 $445 $515 forward 7 unknown #
coedge $-1 $377 $376 $463 $516 reversed $220 $-1 #
edge $-1 $517 -60.210577715384375 $454 60.210577715384375 $447 $518 forward 7 unknown #
coedge $-1 $519 $520 $377 $452 forward $513 $-1 #
edge $-1 $455 -60.210577715384375 $521 60.210577715384375 $451 $522 forward 7 unknown #
coedge $-1 $393 $378 $520 $523 forward $373 $-1 #
vertex $-1 $379 $524 #
vertex $-1 $523 $525 #
straight-curve $-1 60.210577715384375 -9.7081976552476661 7.4771165903123258 0 -1 0 I I #
coedge $-1 $526 $380 $393 $472 forward $443 $-1 #
coedge $-1 $380 $526 $382 $461 forward $443 $-1 #
straight-curve $-1 0 26.084757712294042 -11.108411438127455 1 0 0 I I #
coedge $-1 $463 $382 $519 $527 reversed $310 $-1 #
edge $-1 $528 -26.084757712294042 $383 26.084757712294042 $382 $529 forward 7 unknown #
point $-1 -60.210577715384375 26.084757712294042 -11.108411438127455 #
coedge $-1 $386 $460 $449 $516 forward $310 $-1 #
coedge $-1 $447 $446 $386 $465 reversed $302 $-1 #
edge $-1 $517 2.8307345832023803 $466 6.4620294310175108 $386 $530 forward 7 unknown #
vertex $-1 $465 $531 #
straight-curve $-1 -60.210577715384375 0 11.108411438127455 0 -1 0 I I #
plane-surface $-1 -60.210577715384375 0 0 1 0 0 0 0 -1 forward_v I I I I #
edge $-1 $466 -60.210577715384375 $470 60.210577715384375 $390 $532 forward 7 unknown #
vertex $-1 $392 $533 #
straight-curve $-1 60.210577715384375 0 11.108411438127455 0 1 0 I I #
edge $-1 $394 -26.084757712294042 $534 26.084757712294042 $393 $535 forward 7 unknown #
point $-1 60.210577715384375 26.084757712294042 -11.108411438127455 #
face $-1 $536 $537 $18 $-1 $538 reversed single #
loop $-1 $-1 $539 $397 #
plane-surface $-1 0 -12.748032908696622 9.2927640142198911 0 -1 0 0 0 -1 forward_v I I I I #
coedge $-1 $540 $541 $542 $543 reversed $398 $-1 #
coedge $-1 $400 $409 $544 $545 reversed $238 $-1 #
coedge $-1 $546 $483 $400 $480 forward $547 $-1 #
edge $-1 $481 -3.6841343269399438 $548 11.108411438127455 $400 $549 forward 7 unknown #
vertex $-1 $480 $550 #
straight-curve $-1 -26.008040538930068 26.084757712294042 3.6841343269399438 1 0 0 I I #
coedge $-1 $479 $551 $402 $484 forward $547 $-1 #
edge $-1 $552 23.166514828213771 $481 32.462716839437221 $483 $553 forward 7 unknown #
edge $-1 $404 17.813543901405829 $552 34.202537176454307 $406 $554 forward 7 unknown #
point $-1 -43.821584440335897 20.490163785137923 11.108411438127455 #
coedge $-1 $555 $406 $551 $556 forward $322 $-1 #
coedge $-1 $407 $555 $557 $558 forward $322 $-1 #
coedge $-1 $557 $559 $409 $490 reversed $537 $-1 #
edge $-1 $491 -11.108411438127455 $560 11.108411438127455 $489 $561 forward 7 unknown #
vertex $-1 $558 $562 #
straight-curve $-1 0 26.084757712294042 11.108411438127455 -1 0 0 I I #
face $-1 $563 $564 $19 $-1 $565 forward single #
loop $-1 $-1 $499 $414 #
plane-surface $-1 0 0 11.108411438127455 0 0 1 1 0 0 forward_v I I I I #
coedge $-1 $419 $566 $426 $508 forward $415 $-1 #
coedge $-1 $426 $567 $417 $498 reversed $345 $-1 #
edge $-1 $502 -52.169515424588091 $568 -42.873313413364649 $417 $569 forward 7 unknown #
coedge $-1 $570 $571 $418 $500 forward $494 $-1 #
edge $-1 $503 19.345728301126407 $568 24.940322228282525 $499 $572 forward 7 unknown #
coedge $-1 $573 $419 $571 $574 reversed $415 $-1 #
vertex $-1 $508 $575 #
vertex $-1 $500 $576 #
straight-curve $-1 -43.821584440335897 26.084757712294042 58.909910722679385 0 0 1 I I #
vertex $-1 $421 $577 #
point $-1 -54.528008208227668 21.723556575924039 6.2177865926602367 #
coedge $-1 $567 $426 $578 $579 reversed $345 $-1 #
edge $-1 $580 -34.202537176454307 $502 -17.813543901405829 $496 $581 forward 7 unknown #
vertex $-1 $431 $582 #
straight-curve $-1 0 26.084757712294042 -11.108411438127455 1 0 0 I I #
straight-curve $-1 -60.210577715384375 26.084757712294042 0 0 0 -1 I I #
straight-curve $-1 -60.210577715384375 0 -11.108411438127455 0 1 0 I I #
loop $-1 $-1 $451 $442 #
plane-surface $-1 0 -26.084757712294042 0 0 1 0 0 0 1 forward_v I I I I #
straight-curve $-1 60.210577715384375 -12.748032908696622 4.6463820071099455 0 0 -1 I I #
edge $-1 $521 -16.376560057046376 $517 -3.0398352534489561 $463 $583 forward 7 unknown #
vertex $-1 $516 $584 #
straight-curve $-1 0 -12.748032908696622 7.4771165903123258 1 0 0 I I #
coedge $-1 $585 $451 $460 $527 forward $513 $-1 #
coedge $-1 $451 $585 $453 $523 reversed $513 $-1 #
vertex $-1 $527 $586 #
straight-curve $-1 0 -26.084757712294042 7.4771165903123258 -1 0 0 I I #
edge $-1 $455 -7.4771165903123258 $534 11.108411438127455 $453 $587 forward 7 unknown #
point $-1 60.210577715384375 -12.748032908696622 7.4771165903123258 #
point $-1 60.210577715384375 -26.084757712294042 7.4771165903123258 #
coedge $-1 $458 $457 $585 $588 forward $443 $-1 #
edge $-1 $521 -7.4771165903123258 $528 11.108411438127455 $460 $589 forward 7 unknown #
vertex $-1 $461 $590 #
straight-curve $-1 -60.210577715384375 0 -11.108411438127455 0 1 0 I I #
straight-curve $-1 -60.210577715384375 -12.748032908696622 4.6463820071099455 0 0 1 I I #
point $-1 -60.210577715384375 -12.748032908696622 11.108411438127456 #
straight-curve $-1 0 -12.748032908696622 11.108411438127455 1 0 0 I I #
point $-1 60.210577715384375 -12.748032908696622 11.108411438127456 #
vertex $-1 $523 $591 #
straight-curve $-1 60.210577715384375 0 -11.108411438127455 0 -1 0 I I #
face $-1 $592 $593 $18 $-1 $594 reversed single #
loop $-1 $-1 $595 $474 #
plane-surface $-1 60.210577715384375 0 0 -1 0 0 0 0 1 forward_v I I I I #
coedge $-1 $596 $597 $595 $598 reversed $475 $-1 #
coedge $-1 $599 $477 $597 $600 reversed $398 $-1 #
coedge $-1 $477 $599 $601 $602 reversed $398 $-1 #
coedge $-1 $603 $595 $477 $543 forward $537 $-1 #
edge $-1 $604 3.0398352534489561 $605 16.376560057046376 $542 $606 forward 7 unknown #
coedge $-1 $607 $608 $478 $545 forward $593 $-1 #
edge $-1 $548 -60.210577715384375 $560 60.210577715384375 $478 $609 forward 7 unknown #
coedge $-1 $610 $479 $608 $611 reversed $547 $-1 #
loop $-1 $-1 $483 $612 #
vertex $-1 $545 $613 #
straight-curve $-1 -60.210577715384375 26.084757712294042 0 0 0 -1 I I #
point $-1 -60.210577715384375 26.084757712294042 3.6841343269399438 #
coedge $-1 $483 $614 $487 $556 reversed $547 $-1 #
vertex $-1 $556 $615 #
straight-curve $-1 -60.210577715384375 6.5482073802727747 29.61001301449614 0 0.60181501223851219 -0.79863551827123203 I I #
straight-curve $-1 -26.008040538930068 20.490163785137916 11.108411438127458 -1 0 0 I I #
coedge $-1 $488 $487 $596 $616 forward $322 $-1 #
edge $-1 $552 -20.490163785137923 $617 12.748032908696622 $551 $618 forward 7 unknown #
coedge $-1 $595 $489 $488 $558 reversed $537 $-1 #
edge $-1 $619 -12.748032908696622 $491 26.084757712294042 $557 $620 forward 7 unknown #
coedge $-1 $489 $603 $607 $621 reversed $537 $-1 #
vertex $-1 $621 $622 #
straight-curve $-1 60.210577715384375 26.084757712294042 0 0 0 -1 I I #
point $-1 60.210577715384375 26.084757712294042 11.108411438127455 #
face $-1 $623 $624 $19 $-1 $625 forward single #
loop $-1 $-1 $626 $493 #
plane-surface $-1 0 -19.416395310495332 7.4771165903123258 0 0 1 1 0 0 forward_v I I I I #
coedge $-1 $496 $627 $628 $629 reversed $415 $-1 #
coedge $-1 $497 $507 $570 $630 reversed $345 $-1 #
vertex $-1 $630 $631 #
straight-curve $-1 -43.821584440335897 -5.3116398514316927 45.348562316014892 0 -0.60181501223851219 0.79863551827123203 I I #
coedge $-1 $632 $499 $567 $630 forward $494 $-1 #
coedge $-1 $499 $633 $501 $574 forward $494 $-1 #
straight-curve $-1 -43.821584440335897 45.430486013420449 11.108411438127455 0 -1 0 I I #
coedge $-1 $627 $501 $634 $635 forward $415 $-1 #
edge $-1 $636 -60.210577715384375 $503 43.821584440335897 $501 $637 forward 7 unknown #
point $-1 -43.821584440335897 26.084757712294039 3.6841343269399474 #
point $-1 -43.821584440335897 26.084757712294042 11.108411438127455 #
point $-1 -55.528008208227668 20.924921057652806 5.6159715804217241 #
coedge $-1 $628 $638 $507 $579 forward $639 $-1 #
edge $-1 $640 23.166514828213771 $580 32.462716839437221 $578 $641 forward 7 unknown #
vertex $-1 $629 $642 #
straight-curve $-1 -26.008040538930068 26.084757712294042 3.6841343269399438 1 0 0 I I #
point $-1 -60.210577715384375 26.084757712294042 -11.108411438127455 #
straight-curve $-1 -60.210577715384375 -9.7081976552476661 7.4771165903123258 0 1 0 I I #
point $-1 -60.210577715384375 -12.748032908696622 7.4771165903123258 #
coedge $-1 $520 $519 $526 $588 reversed $513 $-1 #
point $-1 -60.210577715384375 -26.084757712294042 7.4771165903123258 #
straight-curve $-1 60.210577715384375 -26.084757712294042 0 0 0 -1 I I #
edge $-1 $534 -60.210577715384375 $528 60.210577715384375 $585 $643 forward 7 unknown #
straight-curve $-1 -60.210577715384375 -26.084757712294042 0 0 0 -1 I I #
point $-1 -60.210577715384375 -26.084757712294042 -11.108411438127455 #
point $-1 60.210577715384375 -26.084757712294042 -11.108411438127455 #
face $-1 $612 $644 $18 $-1 $645 reversed single #
loop $-1 $-1 $607 $536 #
plane-surface $-1 0 0 -11.108411438127455 0 0 1 1 0 0 forward_v I I I I #
coedge $-1 $542 $557 $539 $598 forward $537 $-1 #
coedge $-1 $646 $539 $555 $616 reversed $475 $-1 #
coedge $-1 $539 $646 $540 $600 forward $475 $-1 #
edge $-1 $619 -6.4620294310175108 $604 -2.8307345832023803 $595 $647 forward 7 unknown #
coedge $-1 $541 $540 $648 $649 reversed $398 $-1 #
edge $-1 $650 -60.210577715384375 $604 60.210577715384375 $597 $651 forward 7 unknown #
coedge $-1 $652 $653 $541 $602 forward $644 $-1 #
edge $-1 $605 -60.210577715384375 $654 60.210577715384375 $601 $655 forward 7 unknown #
coedge $-1 $559 $542 $653 $656 forward $537 $-1 #
vertex $-1 $543 $657 #
vertex $-1 $656 $658 #
straight-curve $-1 60.210577715384375 -9.7081976552476661 7.4771165903123258 0 -1 0 I I #
coedge $-1 $659 $544 $559 $621 forward $593 $-1 #
coedge $-1 $544 $659 $546 $611 forward $593 $-1 #
straight-curve $-1 0 26.084757712294042 -11.108411438127455 1 0 0 I I #
coedge $-1 $648 $546 $652 $660 reversed $547 $-1 #
edge $-1 $661 -26.084757712294042 $548 26.084757712294042 $546 $662 forward 7 unknown #
face $-1 $-1 $547 $18 $-1 $663 reversed single #
point $-1 -60.210577715384375 26.084757712294042 -11.108411438127455 #
coedge $-1 $551 $648 $646 $664 forward $547 $-1 #
point $-1 -60.210577715384375 20.490163785137923 11.108411438127455 #
edge $-1 $617 -60.210577715384375 $619 60.210577715384375 $555 $665 forward 7 unknown #
vertex $-1 $664 $666 #
straight-curve $-1 -60.210577715384375 0 11.108411438127455 0 -1 0 I I #
vertex $-1 $558 $667 #
straight-curve $-1 60.210577715384375 0 11.108411438127455 0 1 0 I I #
edge $-1 $560 -26.084757712294042 $668 26.084757712294042 $559 $669 forward 7 unknown #
point $-1 60.210577715384375 26.084757712294042 -11.108411438127455 #
face $-1 $670 $671 $19 $-1 $672 reversed single #
loop $-1 $-1 $673 $563 #
plane-surface $-1 0 -12.748032908696622 9.2927640142198911 0 -1 0 0 0 -1 forward_v I I I I #
coedge $-1 $674 $675 $676 $677 reversed $564 $-1 #
coedge $-1 $566 $573 $678 $679 reversed $415 $-1 #
coedge $-1 $680 $578 $566 $629 forward $639 $-1 #
edge $-1 $580 -3.6841343269399438 $681 11.108411438127455 $566 $682 forward 7 unknown #
edge $-1 $568 17.813543901405829 $640 34.202537176454307 $570 $683 forward 7 unknown #
point $-1 -43.821584440335897 20.490163785137923 11.108411438127455 #
coedge $-1 $684 $570 $638 $685 forward $494 $-1 #
coedge $-1 $571 $684 $686 $687 forward $494 $-1 #
coedge $-1 $686 $688 $573 $635 reversed $671 $-1 #
edge $-1 $636 -11.108411438127455 $689 11.108411438127455 $634 $690 forward 7 unknown #
vertex $-1 $687 $691 #
straight-curve $-1 0 26.084757712294042 11.108411438127455 -1 0 0 I I #
coedge $-1 $578 $692 $632 $685 reversed $639 $-1 #
loop $-1 $-1 $578 $693 #
vertex $-1 $685 $694 #
straight-curve $-1 -60.210577715384375 6.5482073802727747 29.61001301449614 0 0.60181501223851219 -0.79863551827123203 I I #
point $-1 -60.210577715384375 26.084757712294042 3.6841343269399438 #
straight-curve $-1 0 -26.084757712294042 -11.108411438127455 -1 0 0 I I #
loop $-1 $-1 $601 $592 #
plane-surface $-1 0 -26.084757712294042 0 0 1 0 0 0 1 forward_v I I I I #
coedge $-1 $597 $596 $614 $664 reversed $475 $-1 #
straight-curve $-1 60.210577715384375 -12.748032908696622 4.6463820071099455 0 0 -1 I I #
coedge $-1 $614 $610 $599 $649 forward $547 $-1 #
edge $-1 $654 -16.376560057046376 $650 -3.0398352534489561 $648 $695 forward 7 unknown #
vertex $-1 $649 $696 #
straight-curve $-1 0 -12.748032908696622 7.4771165903123258 1 0 0 I I #
coedge $-1 $697 $601 $610 $660 forward $644 $-1 #
coedge $-1 $601 $697 $603 $656 reversed $644 $-1 #
vertex $-1 $660 $698 #
straight-curve $-1 0 -26.084757712294042 7.4771165903123258 -1 0 0 I I #
edge $-1 $605 -7.4771165903123258 $668 11.108411438127455 $603 $699 forward 7 unknown #
point $-1 60.210577715384375 -12.748032908696622 7.4771165903123258 #
point $-1 60.210577715384375 -26.084757712294042 7.4771165903123258 #
coedge $-1 $608 $607 $697 $700 forward $593 $-1 #
edge $-1 $654 -7.4771165903123258 $661 11.108411438127455 $610 $701 forward 7 unknown #
vertex $-1 $611 $702 #
straight-curve $-1 -60.210577715384375 0 -11.108411438127455 0 1 0 I I #
plane-surface $-1 -60.210577715384375 0 0 1 0 0 0 0 -1 forward_v I I I I #
edge $-1 $650 2.8307345832023803 $617 6.4620294310175108 $614 $703 forward 7 unknown #
straight-curve $-1 0 -12.748032908696622 11.108411438127455 1 0 0 I I #
point $-1 -60.210577715384375 -12.748032908696622 11.108411438127456 #
point $-1 60.210577715384375 -12.748032908696622 11.108411438127456 #
vertex $-1 $656 $704 #
straight-curve $-1 60.210577715384375 0 -11.108411438127455 0 -1 0 I I #
face $-1 $705 $706 $19 $-1 $707 reversed single #
loop $-1 $-1 $708 $623 #
plane-surface $-1 60.210577715384375 0 0 -1 0 0 0 0 1 forward_v I I I I #
coedge $-1 $709 $710 $708 $711 reversed $624 $-1 #
coedge $-1 $712 $626 $710 $713 reversed $564 $-1 #
coedge $-1 $626 $712 $714 $715 reversed $564 $-1 #
coedge $-1 $716 $708 $626 $677 forward $671 $-1 #
edge $-1 $717 3.0398352534489561 $718 16.376560057046376 $676 $719 forward 7 unknown #
coedge $-1 $720 $721 $627 $679 forward $706 $-1 #
edge $-1 $681 -60.210577715384375 $689 60.210577715384375 $627 $722 forward 7 unknown #
coedge $-1 $723 $628 $721 $724 reversed $639 $-1 #
vertex $-1 $679 $725 #
straight-curve $-1 -60.210577715384375 26.084757712294042 0 0 0 -1 I I #
straight-curve $-1 -26.008040538930068 20.490163785137916 11.108411438127458 -1 0 0 I I #
coedge $-1 $633 $632 $709 $726 forward $494 $-1 #
edge $-1 $640 -20.490163785137923 $727 12.748032908696622 $638 $728 forward 7 unknown #
coedge $-1 $708 $634 $633 $687 reversed $671 $-1 #
edge $-1 $729 -12.748032908696622 $636 26.084757712294042 $686 $730 forward 7 unknown #
coedge $-1 $634 $716 $720 $731 reversed $671 $-1 #
vertex $-1 $731 $732 #
straight-curve $-1 60.210577715384375 26.084757712294042 0 0 0 -1 I I #
point $-1 60.210577715384375 26.084757712294042 11.108411438127455 #
coedge $-1 $638 $733 $734 $735 forward $639 $-1 #
face $-1 $-1 $639 $19 $-1 $736 reversed single #
point $-1 -60.210577715384375 20.490163785137923 11.108411438127455 #
straight-curve $-1 -60.210577715384375 -9.7081976552476661 7.4771165903123258 0 1 0 I I #
point $-1 -60.210577715384375 -12.748032908696622 7.4771165903123258 #
coedge $-1 $653 $652 $659 $700 reversed $644 $-1 #
point $-1 -60.210577715384375 -26.084757712294042 7.4771165903123258 #
straight-curve $-1 60.210577715384375 -26.084757712294042 0 0 0 -1 I I #
edge $-1 $668 -60.210577715384375 $661 60.210577715384375 $697 $737 forward 7 unknown #
straight-curve $-1 -60.210577715384375 -26.084757712294042 0 0 0 -1 I I #
point $-1 -60.210577715384375 -26.084757712294042 -11.108411438127455 #
straight-curve $-1 -60.210577715384375 -12.748032908696622 4.6463820071099455 0 0 1 I I #
point $-1 60.210577715384375 -26.084757712294042 -11.108411438127455 #
face $-1 $693 $738 $19 $-1 $739 reversed single #
loop $-1 $-1 $720 $670 #
plane-surface $-1 0 0 -11.108411438127455 0 0 1 1 0 0 forward_v I I I I #
coedge $-1 $676 $686 $673 $711 forward $671 $-1 #
coedge $-1 $734 $673 $684 $726 reversed $624 $-1 #
coedge $-1 $673 $734 $674 $713 forward $624 $-1 #
edge $-1 $729 -6.4620294310175108 $717 -2.8307345832023803 $708 $740 forward 7 unknown #
coedge $-1 $675 $674 $733 $741 reversed $564 $-1 #
edge $-1 $742 -60.210577715384375 $717 60.210577715384375 $710 $743 forward 7 unknown #
coedge $-1 $744 $745 $675 $715 forward $738 $-1 #
edge $-1 $718 -60.210577715384375 $746 60.210577715384375 $714 $747 forward 7 unknown #
coedge $-1 $688 $676 $745 $748 forward $671 $-1 #
vertex $-1 $677 $749 #
vertex $-1 $748 $750 #
straight-curve $-1 60.210577715384375 -9.7081976552476661 7.4771165903123258 0 -1 0 I I #
coedge $-1 $751 $678 $688 $731 forward $706 $-1 #
coedge $-1 $678 $751 $680 $724 forward $706 $-1 #
straight-curve $-1 0 26.084757712294042 -11.108411438127455 1 0 0 I I #
coedge $-1 $733 $680 $744 $752 reversed $639 $-1 #
edge $-1 $753 -26.084757712294042 $681 26.084757712294042 $680 $754 forward 7 unknown #
point $-1 -60.210577715384375 26.084757712294042 -11.108411438127455 #
edge $-1 $727 -60.210577715384375 $729 60.210577715384375 $684 $755 forward 7 unknown #
vertex $-1 $735 $756 #
straight-curve $-1 -60.210577715384375 0 11.108411438127455 0 -1 0 I I #
vertex $-1 $687 $757 #
straight-curve $-1 60.210577715384375 0 11.108411438127455 0 1 0 I I #
edge $-1 $689 -26.084757712294042 $758 26.084757712294042 $688 $759 forward 7 unknown #
point $-1 60.210577715384375 26.084757712294042 -11.108411438127455 #
coedge $-1 $692 $723 $712 $741 forward $639 $-1 #
coedge $-1 $710 $709 $692 $735 reversed $624 $-1 #
edge $-1 $742 2.8307345832023803 $727 6.4620294310175108 $692 $760 forward 7 unknown #
plane-surface $-1 -60.210577715384375 0 0 1 0 0 0 0 -1 forward_v I I I I #
straight-curve $-1 0 -26.084757712294042 -11.108411438127455 -1 0 0 I I #
loop $-1 $-1 $714 $705 #
plane-surface $-1 0 -26.084757712294042 0 0 1 0 0 0 1 forward_v I I I I #
straight-curve $-1 60.210577715384375 -12.748032908696622 4.6463820071099455 0 0 -1 I I #
edge $-1 $746 -16.376560057046376 $742 -3.0398352534489561 $733 $761 forward 7 unknown #
vertex $-1 $741 $762 #
straight-curve $-1 0 -12.748032908696622 7.4771165903123258 1 0 0 I I #
coedge $-1 $763 $714 $723 $752 forward $738 $-1 #
coedge $-1 $714 $763 $716 $748 reversed $738 $-1 #
vertex $-1 $752 $764 #
straight-curve $-1 0 -26.084757712294042 7.4771165903123258 -1 0 0 I I #
edge $-1 $718 -7.4771165903123258 $758 11.108411438127455 $716 $765 forward 7 unknown #
point $-1 60.210577715384375 -12.748032908696622 7.4771165903123258 #
point $-1 60.210577715384375 -26.084757712294042 7.4771165903123258 #
coedge $-1 $721 $720 $763 $766 forward $706 $-1 #
edge $-1 $746 -7.4771165903123258 $753 11.108411438127455 $723 $767 forward 7 unknown #
vertex $-1 $724 $768 #
straight-curve $-1 -60.210577715384375 0 -11.108411438127455 0 1 0 I I #
straight-curve $-1 0 -12.748032908696622 11.108411438127455 1 0 0 I I #
point $-1 -60.210577715384375 -12.748032908696622 11.108411438127456 #
point $-1 60.210577715384375 -12.748032908696622 11.108411438127456 #
vertex $-1 $748 $769 #
straight-curve $-1 60.210577715384375 0 -11.108411438127455 0 -1 0 I I #
straight-curve $-1 -60.210577715384375 -12.748032908696622 4.6463820071099455 0 0 1 I I #
straight-curve $-1 -60.210577715384375 -9.7081976552476661 7.4771165903123258 0 1 0 I I #
point $-1 -60.210577715384375 -12.748032908696622 7.4771165903123258 #
coedge $-1 $745 $744 $751 $766 reversed $738 $-1 #
point $-1 -60.210577715384375 -26.084757712294042 7.4771165903123258 #
straight-curve $-1 60.210577715384375 -26.084757712294042 0 0 0 -1 I I #
edge $-1 $758 -60.210577715384375 $753 60.210577715384375 $763 $770 forward 7 unknown #
straight-curve $-1 -60.210577715384375 -26.084757712294042 0 0 0 -1 I I #
point $-1 -60.210577715384375 -26.084757712294042 -11.108411438127455 #
point $-1 60.210577715384375 -26.084757712294042 -11.108411438127455 #
straight-curve $-1 0 -26.084757712294042 -11.108411438127455 -1 0 0 I I #
End-of-ACIS-data 