500 0 10 0           
7 Unknown 11 ACIS 5.0 NT 24 Thu Mar 25 23:11:43 1999 
-1 9.9999999999999995e-007 1e-010 
body $-1 $10 $-1 $11 #
body $-1 $12 $-1 $13 #
body $-1 $14 $-1 $15 #
body $-1 $16 $-1 $17 #
body $-1 $18 $-1 $19 #
body $-1 $20 $-1 $21 #
body $-1 $22 $-1 $23 #
body $-1 $24 $-1 $25 #
body $-1 $26 $-1 $27 #
body $-1 $28 $-1 $29 #
lump $-1 $-1 $30 $0 #
transform $-1 1 0 0 0 1 0 0 0 1 76.245002594073298 43.805915061983825 20.67127963717784 1 rotate no_reflect no_shear #
lump $-1 $-1 $31 $1 #
transform $-1 1 0 0 0 1 0 0 0 1 76.245002594073298 43.805915061983825 20.67127963717784 1 rotate no_reflect no_shear #
lump $-1 $-1 $32 $2 #
transform $-1 1 0 0 0 1 0 0 0 1 76.245002594073298 43.805915061983825 20.67127963717784 1 rotate no_reflect no_shear #
lump $-1 $-1 $33 $3 #
transform $-1 1 0 0 0 1 0 0 0 1 76.245002594073298 43.805915061983825 20.67127963717784 1 rotate no_reflect no_shear #
lump $-1 $-1 $34 $4 #
transform $-1 1 0 0 0 1 0 0 0 1 76.245002594073298 43.805915061983825 20.67127963717784 1 rotate no_reflect no_shear #
lump $-1 $-1 $35 $5 #
transform $-1 1 0 0 0 1 0 0 0 1 76.245002594073298 43.805915061983825 20.67127963717784 1 rotate no_reflect no_shear #
lump $-1 $-1 $36 $6 #
transform $-1 1 0 0 0 1 0 0 0 1 76.245002594073298 43.805915061983825 20.67127963717784 1 rotate no_reflect no_shear #
lump $-1 $-1 $37 $7 #
transform $-1 1 0 0 0 1 0 0 0 1 76.245002594073298 43.805915061983825 20.67127963717784 1 rotate no_reflect no_shear #
lump $-1 $-1 $38 $8 #
transform $-1 1 0 0 0 1 0 0 0 1 76.245002594073298 43.805915061983825 20.67127963717784 1 rotate no_reflect no_shear #
lump $-1 $-1 $39 $9 #
transform $-1 1 0 0 0 1 0 0 0 1 76.245002594073298 43.805915061983825 20.67127963717784 1 rotate no_reflect no_shear #
shell $-1 $-1 $-1 $40 $-1 $10 #
shell $-1 $-1 $-1 $41 $-1 $12 #
shell $-1 $-1 $-1 $42 $-1 $14 #
shell $-1 $-1 $-1 $43 $-1 $16 #
shell $-1 $-1 $-1 $44 $-1 $18 #
shell $-1 $-1 $-1 $45 $-1 $20 #
shell $-1 $-1 $-1 $46 $-1 $22 #
shell $-1 $-1 $-1 $47 $-1 $24 #
shell $-1 $-1 $-1 $48 $-1 $26 #
shell $-1 $-1 $-1 $49 $-1 $28 #
face $-1 $50 $51 $30 $-1 $52 forward single #
face $-1 $53 $54 $31 $-1 $55 reversed single #
face $-1 $56 $57 $32 $-1 $58 reversed single #
face $-1 $59 $60 $33 $-1 $61 forward single #
face $-1 $62 $63 $34 $-1 $64 reversed single #
face $-1 $65 $66 $35 $-1 $67 forward single #
face $-1 $68 $69 $36 $-1 $70 forward single #
face $-1 $71 $72 $37 $-1 $73 reversed single #
face $-1 $74 $75 $38 $-1 $76 forward single #
face $-1 $77 $78 $39 $-1 $79 forward single #
face $-1 $80 $81 $30 $-1 $82 reversed single #
loop $-1 $-1 $83 $40 #
plane-surface $-1 0 0 20.67127963717784 0 0 1 1 0 0 forward_v I I I I #
face $-1 $84 $85 $31 $-1 $86 reversed single #
loop $-1 $-1 $87 $41 #
plane-surface $-1 -65.370371476420928 0 9.8554948272300535 0 0 1 1 0 0 forward_v I I I I #
face $-1 $88 $89 $32 $-1 $90 reversed single #
loop $-1 $-1 $91 $42 #
plane-surface $-1 -45.128986273287929 -18.145003412048766 66.952937753793549 0 0.70710678939079041 0.70710677298230451 1 0 0 forward_v I I I I #
face $-1 $92 $93 $33 $-1 $94 forward single #
loop $-1 $95 $96 $43 #
cone-surface $-1 -45.128986273287929 34.877865957110458 11.743230375873946 0 -0.70710678939079041 -0.70710677298230451 1.5 0 0 1 I I 0 1 1.5 forward I I I I #
face $-1 $97 $98 $34 $-1 $99 reversed single #
loop $-1 $-1 $100 $44 #
plane-surface $-1 -0.39117407731356479 -157.12807461737577 103.33059020998823 -1 0 0 0 -0.74314483375859142 0.66913059716165679 forward_v I I I I #
face $-1 $101 $102 $35 $-1 $103 forward single #
loop $-1 $104 $105 $45 #
cone-surface $-1 -20.271981872092702 -33.094495752246154 9.1929621614733268 0 0.74314483375859142 -0.66913059716165679 1.5 0 0 1 I I 0 1 1.5 forward I I I I #
face $-1 $106 $107 $36 $-1 $108 forward single #
loop $-1 $109 $110 $46 #
cone-surface $-1 -8.3434971952252255 -33.094495752246154 9.1929621614733268 0 0.74314483375859142 -0.66913059716165679 1.5 0 0 1 I I 0 1 1.5 forward I I I I #
face $-1 $111 $112 $37 $-1 $113 reversed single #
loop $-1 $-1 $114 $47 #
plane-surface $-1 49.973567225309097 -157.12807461737577 103.33059020998823 -1 0 0 0 -0.74314483375859142 0.66913059716165679 forward_v I I I I #
face $-1 $115 $116 $38 $-1 $117 forward single #
loop $-1 $118 $119 $48 #
cone-surface $-1 30.092759430529952 -33.094495752246154 9.1929621614733268 0 0.74314483375859142 -0.66913059716165679 1.5 0 0 1 I I 0 1 1.5 forward I I I I #
face $-1 $120 $121 $39 $-1 $122 forward single #
loop $-1 $123 $124 $49 #
cone-surface $-1 42.021244107397436 -33.094495752246154 9.1929621614733268 0 0.74314483375859142 -0.66913059716165679 1.5 0 0 1 I I 0 1 1.5 forward I I I I #
face $-1 $125 $126 $30 $-1 $127 reversed single #
loop $-1 $-1 $128 $50 #
plane-surface $-1 0 0 -20.67127963717784 0 0 1 1 0 0 forward_v I I I I #
coedge $-1 $129 $130 $131 $132 forward $51 $-1 #
face $-1 $133 $134 $31 $-1 $135 reversed single #
loop $-1 $-1 $136 $53 #
plane-surface $-1 -54.495740358768558 0 15.263387232203947 -1 0 0 0 0 1 forward_v I I I I #
coedge $-1 $137 $138 $139 $140 forward $54 $-1 #
face $-1 $141 $142 $32 $-1 $143 forward single #
loop $-1 $-1 $144 $56 #
plane-surface $-1 -35.7622321878073 89.681714570726541 174.77965323443877 -1 0 0 0 0.70710678939079041 0.70710677298230451 forward_v I I I I #
coedge $-1 $145 $146 $147 $148 reversed $57 $-1 #
face $-1 $-1 $149 $33 $-1 $150 forward single #
loop $-1 $151 $152 $59 #
cone-surface $-1 -45.128986273287929 33.254117475887782 10.119481932330523 0 -0.70710678939079041 -0.70710677298230451 0.75 0 0 1 I I -0.70710678118654757 0.70710678118654757 0.75 forward I I I I #
loop $-1 $-1 $153 $43 #
coedge $-1 $96 $96 $154 $155 reversed $60 $-1 #
face $-1 $156 $157 $34 $-1 $158 reversed single #
loop $-1 $-1 $159 $62 #
plane-surface $-1 -14.30773953365896 -43.805915061983825 1.2948619772595578 0 -0.74314483375859142 0.66913059716165679 1 0 0 forward_v I I I I #
coedge $-1 $160 $161 $162 $163 reversed $63 $-1 #
face $-1 $-1 $164 $35 $-1 $165 forward single #
loop $-1 $166 $167 $65 #
cone-surface $-1 -20.271981872092702 -30.549020012577301 6.901005567856707 0 0.74314483375859142 -0.66913059716165679 0.75 0 0 1 I I -0.70710678118654757 0.70710678118654757 0.75 forward I I I I #
loop $-1 $-1 $168 $45 #
coedge $-1 $105 $105 $169 $170 reversed $66 $-1 #
face $-1 $-1 $171 $36 $-1 $172 forward single #
loop $-1 $173 $174 $68 #
cone-surface $-1 -8.3434971952252255 -30.549020012577301 6.901005567856707 0 0.74314483375859142 -0.66913059716165679 0.75 0 0 1 I I -0.70710678118654757 0.70710678118654757 0.75 forward I I I I #
loop $-1 $-1 $175 $46 #
coedge $-1 $110 $110 $176 $177 reversed $69 $-1 #
face $-1 $178 $179 $37 $-1 $180 reversed single #
loop $-1 $-1 $181 $71 #
plane-surface $-1 36.057001768963701 -43.805915061983825 1.2948619772595578 0 -0.74314483375859142 0.66913059716165679 1 0 0 forward_v I I I I #
coedge $-1 $182 $183 $184 $185 reversed $72 $-1 #
face $-1 $-1 $186 $38 $-1 $187 forward single #
loop $-1 $188 $189 $74 #
cone-surface $-1 30.092759430529952 -30.549020012577301 6.901005567856707 0 0.74314483375859142 -0.66913059716165679 0.75 0 0 1 I I -0.70710678118654757 0.70710678118654757 0.75 forward I I I I #
loop $-1 $-1 $190 $48 #
coedge $-1 $119 $119 $191 $192 reversed $75 $-1 #
face $-1 $-1 $193 $39 $-1 $194 forward single #
loop $-1 $195 $196 $77 #
cone-surface $-1 42.021244107397436 -30.549020012577301 6.901005567856707 0 0.74314483375859142 -0.66913059716165679 0.75 0 0 1 I I -0.70710678118654757 0.70710678118654757 0.75 forward I I I I #
loop $-1 $-1 $197 $49 #
coedge $-1 $124 $124 $198 $199 reversed $78 $-1 #
face $-1 $200 $201 $30 $-1 $202 reversed single #
loop $-1 $-1 $203 $80 #
plane-surface $-1 0 -43.805915061983825 0 0 1 0 0 0 1 forward_v I I I I #
coedge $-1 $204 $205 $206 $207 forward $81 $-1 #
coedge $-1 $208 $83 $209 $210 forward $51 $-1 #
coedge $-1 $83 $208 $211 $212 forward $51 $-1 #
coedge $-1 $213 $214 $83 $132 reversed $215 $-1 #
edge $-1 $216 -43.805915061983825 $217 43.805915061983825 $131 $218 forward 7 unknown #
face $-1 $219 $220 $31 $-1 $221 reversed single #
loop $-1 $-1 $222 $84 #
plane-surface $-1 0 43.805915061983825 0 0 -1 0 0 0 -1 forward_v I I I I #
coedge $-1 $223 $224 $225 $226 reversed $85 $-1 #
coedge $-1 $227 $87 $228 $229 reversed $54 $-1 #
coedge $-1 $87 $227 $230 $231 reversed $54 $-1 #
coedge $-1 $224 $223 $87 $140 reversed $85 $-1 #
edge $-1 $232 -43.805915061983825 $233 43.805915061983825 $139 $234 forward 7 unknown #
face $-1 $235 $236 $32 $-1 $237 reversed single #
loop $-1 $-1 $147 $88 #
plane-surface $-1 0 0 20.67127963717784 0 0 1 1 0 0 forward_v I I I I #
coedge $-1 $238 $239 $240 $241 reversed $89 $-1 #
coedge $-1 $242 $91 $243 $244 reversed $57 $-1 #
coedge $-1 $91 $242 $238 $245 forward $57 $-1 #
coedge $-1 $240 $246 $91 $148 forward $142 $-1 #
edge $-1 $247 -31.931247222124593 $248 -13.197739051163335 $147 $249 forward 7 unknown #
loop $-1 $-1 $154 $92 #
plane-surface $-1 -45.128986273287929 -18.145003412048766 66.952937753793549 0 0.70710678939079041 0.70710677298230451 1 0 0 forward_v I I I I #
loop $-1 $-1 $250 $59 #
coedge $-1 $152 $152 $153 $251 reversed $93 $-1 #
coedge $-1 $153 $153 $152 $251 forward $95 $-1 #
coedge $-1 $154 $154 $96 $155 forward $149 $-1 #
edge $-1 $252 2.3317860944815935e-022 $252 6.2831853071796004 $154 $253 forward 7 unknown #
face $-1 $254 $255 $34 $-1 $256 reversed single #
loop $-1 $-1 $257 $97 #
plane-surface $-1 -28.224304990004356 -157.12807461737577 103.33059020998823 1 0 0 0 0.74314483375859142 -0.66913059716165679 forward_v I I I I #
coedge $-1 $258 $259 $260 $261 reversed $98 $-1 #
coedge $-1 $161 $100 $262 $263 reversed $63 $-1 #
coedge $-1 $100 $160 $258 $264 reversed $63 $-1 #
coedge $-1 $260 $265 $100 $163 forward $266 $-1 #
edge $-1 $267 34.758122246704062 $268 52.204726637479595 $162 $269 forward 7 unknown #
loop $-1 $-1 $169 $101 #
plane-surface $-1 -14.30773953365896 -43.805915061983825 1.2948619772595578 0 -0.74314483375859142 0.66913059716165679 1 0 0 forward_v I I I I #
loop $-1 $-1 $270 $65 #
coedge $-1 $167 $167 $168 $271 reversed $102 $-1 #
coedge $-1 $168 $168 $167 $271 forward $104 $-1 #
coedge $-1 $169 $169 $105 $170 forward $164 $-1 #
edge $-1 $272 -1.4095186897708394e-015 $272 6.2831853071795987 $169 $273 forward 7 unknown #
loop $-1 $-1 $176 $106 #
plane-surface $-1 -14.30773953365896 -43.805915061983825 1.2948619772595578 0 -0.74314483375859142 0.66913059716165679 1 0 0 forward_v I I I I #
loop $-1 $-1 $274 $68 #
coedge $-1 $174 $174 $175 $275 reversed $107 $-1 #
coedge $-1 $175 $175 $174 $275 forward $109 $-1 #
coedge $-1 $176 $176 $110 $177 forward $171 $-1 #
edge $-1 $276 -1.4095186897708394e-015 $276 6.2831853071795987 $176 $277 forward 7 unknown #
face $-1 $278 $279 $37 $-1 $280 reversed single #
loop $-1 $-1 $281 $111 #
plane-surface $-1 22.140436312618306 -157.12807461737577 103.33059020998823 1 0 0 0 0.74314483375859142 -0.66913059716165679 forward_v I I I I #
coedge $-1 $282 $283 $284 $285 reversed $112 $-1 #
coedge $-1 $183 $114 $286 $287 reversed $72 $-1 #
coedge $-1 $114 $182 $282 $288 reversed $72 $-1 #
coedge $-1 $284 $289 $114 $185 forward $290 $-1 #
edge $-1 $291 34.758122246704062 $292 52.204726637479595 $184 $293 forward 7 unknown #
loop $-1 $-1 $191 $115 #
plane-surface $-1 36.057001768963701 -43.805915061983825 1.2948619772595578 0 -0.74314483375859142 0.66913059716165679 1 0 0 forward_v I I I I #
loop $-1 $-1 $294 $74 #
coedge $-1 $189 $189 $190 $295 reversed $116 $-1 #
coedge $-1 $190 $190 $189 $295 forward $118 $-1 #
coedge $-1 $191 $191 $119 $192 forward $186 $-1 #
edge $-1 $296 -1.4095186897708394e-015 $296 6.2831853071795987 $191 $297 forward 7 unknown #
loop $-1 $-1 $198 $120 #
plane-surface $-1 36.057001768963701 -43.805915061983825 1.2948619772595578 0 -0.74314483375859142 0.66913059716165679 1 0 0 forward_v I I I I #
loop $-1 $-1 $298 $77 #
coedge $-1 $196 $196 $197 $299 reversed $121 $-1 #
coedge $-1 $197 $197 $196 $299 forward $123 $-1 #
coedge $-1 $198 $198 $124 $199 forward $193 $-1 #
edge $-1 $300 -1.4095186897708394e-015 $300 6.2831853071795987 $198 $301 forward 7 unknown #
face $-1 $302 $303 $30 $-1 $304 reversed single #
loop $-1 $-1 $305 $125 #
plane-surface $-1 -76.245002594073298 0 0 1 0 0 0 0 -1 forward_v I I I I #
coedge $-1 $306 $211 $307 $308 forward $126 $-1 #
coedge $-1 $309 $128 $306 $310 forward $81 $-1 #
coedge $-1 $128 $309 $311 $312 forward $81 $-1 #
coedge $-1 $214 $213 $128 $207 reversed $215 $-1 #
edge $-1 $313 -43.805915061983825 $314 43.805915061983825 $206 $315 forward 7 unknown #
coedge $-1 $130 $129 $316 $317 forward $51 $-1 #
coedge $-1 $318 $319 $129 $210 reversed $303 $-1 #
edge $-1 $217 -76.245002594073298 $320 76.245002594073298 $209 $321 forward 7 unknown #
coedge $-1 $203 $322 $130 $212 reversed $126 $-1 #
edge $-1 $323 -76.245002594073298 $216 76.245002594073298 $211 $324 forward 7 unknown #
coedge $-1 $206 $131 $322 $325 forward $215 $-1 #
coedge $-1 $131 $206 $318 $326 reversed $215 $-1 #
loop $-1 $-1 $213 $302 #
vertex $-1 $132 $327 #
vertex $-1 $132 $328 #
straight-curve $-1 76.245002594073298 0 20.67127963717784 0 1 0 I I #
face $-1 $329 $330 $31 $-1 $331 forward single #
loop $-1 $-1 $332 $133 #
plane-surface $-1 -76.245002594073298 0 0 1 0 0 0 0 -1 forward_v I I I I #
coedge $-1 $230 $333 $224 $334 forward $134 $-1 #
coedge $-1 $139 $136 $335 $336 reversed $85 $-1 #
coedge $-1 $136 $139 $222 $334 reversed $85 $-1 #
coedge $-1 $337 $338 $136 $226 forward $330 $-1 #
edge $-1 $339 -43.805915061983825 $340 43.805915061983825 $225 $341 forward 7 unknown #
coedge $-1 $138 $137 $332 $342 reversed $54 $-1 #
coedge $-1 $335 $343 $137 $229 forward $344 $-1 #
edge $-1 $345 -43.559816855862834 $233 -21.810554620558094 $228 $346 forward 7 unknown #
coedge $-1 $347 $222 $138 $231 forward $134 $-1 #
edge $-1 $232 21.810554620558094 $348 43.559816855862834 $230 $349 forward 7 unknown #
vertex $-1 $231 $350 #
vertex $-1 $229 $351 #
straight-curve $-1 -54.495740358768558 0 9.8554948272300535 0 -1 0 I I #
face $-1 $-1 $352 $32 $-1 $353 forward single #
loop $-1 $-1 $354 $141 #
plane-surface $-1 0 43.805915061983825 0 0 -1 0 0 0 -1 forward_v I I I I #
coedge $-1 $239 $144 $146 $245 reversed $89 $-1 #
coedge $-1 $144 $238 $354 $355 reversed $89 $-1 #
coedge $-1 $356 $147 $144 $241 forward $142 $-1 #
edge $-1 $248 -16.704203654766971 $357 -1.0349422233794456 $240 $358 forward 7 unknown #
coedge $-1 $146 $145 $359 $360 reversed $57 $-1 #
coedge $-1 $361 $362 $145 $244 forward $352 $-1 #
edge $-1 $363 -62.921586662557118 $247 -40.761904376810357 $243 $364 forward 7 unknown #
edge $-1 $365 -87.611830123967636 $248 -65.452147838220867 $238 $366 forward 7 unknown #
coedge $-1 $147 $356 $361 $367 forward $142 $-1 #
vertex $-1 $244 $368 #
vertex $-1 $148 $369 #
straight-curve $-1 -22.564493136643964 28.1366536305963 20.67127963717784 1 0 0 I I #
coedge $-1 $250 $250 $-1 $370 reversed $151 $-1 #
edge $-1 $371 0 $371 6.2831853071796004 $152 $372 forward 7 unknown #
vertex $-1 $155 $373 #
ellipse-curve $-1 -45.128986273287929 35.971284346290055 12.836648739680658 0 0.70710678939079041 0.70710677298230451 1.5 0 0 1 I I #
face $-1 $-1 $266 $34 $-1 $374 forward single #
loop $-1 $-1 $375 $156 #
plane-surface $-1 0 -43.805915061983825 0 0 1 0 0 0 1 forward_v I I I I #
coedge $-1 $376 $377 $378 $379 reversed $157 $-1 #
coedge $-1 $380 $159 $161 $264 forward $98 $-1 #
coedge $-1 $159 $380 $376 $381 forward $98 $-1 #
coedge $-1 $378 $162 $159 $261 forward $266 $-1 #
edge $-1 $268 -6.7626956895159154 $382 21.070435223174876 $260 $383 forward 7 unknown #
coedge $-1 $384 $385 $160 $263 forward $255 $-1 #
edge $-1 $386 -50.370433127734557 $267 -30.994015467816276 $262 $387 forward 7 unknown #
edge $-1 $268 -26.073541495159819 $386 0 $161 $388 forward 7 unknown #
coedge $-1 $162 $378 $384 $389 forward $266 $-1 #
loop $-1 $-1 $378 $254 #
vertex $-1 $263 $390 #
vertex $-1 $163 $391 #
straight-curve $-1 -0.39117407731356479 -78.564037308687887 20.67127963717784 0 1 0 I I #
coedge $-1 $270 $270 $-1 $392 reversed $166 $-1 #
edge $-1 $393 0 $393 6.2831853071796004 $167 $394 forward 7 unknown #
vertex $-1 $170 $395 #
ellipse-curve $-1 -20.271981872092702 -35.082612866596058 10.983070807218699 0 -0.74314483375859142 0.66913059716165679 1.5 0 0 1 I I #
coedge $-1 $274 $274 $-1 $396 reversed $173 $-1 #
edge $-1 $397 0 $397 6.2831853071796004 $174 $398 forward 7 unknown #
vertex $-1 $177 $399 #
ellipse-curve $-1 -8.3434971952252255 -35.082612866596058 10.983070807218699 0 -0.74314483375859142 0.66913059716165679 1.5 0 0 1 I I #
face $-1 $-1 $290 $37 $-1 $400 forward single #
loop $-1 $-1 $401 $178 #
plane-surface $-1 0 -43.805915061983825 0 0 1 0 0 0 1 forward_v I I I I #
coedge $-1 $402 $403 $404 $405 reversed $179 $-1 #
coedge $-1 $406 $181 $183 $288 forward $112 $-1 #
coedge $-1 $181 $406 $402 $407 forward $112 $-1 #
coedge $-1 $404 $184 $181 $285 forward $290 $-1 #
edge $-1 $292 -31.945066340827246 $408 -4.1119354281364551 $284 $409 forward 7 unknown #
coedge $-1 $410 $411 $182 $287 forward $279 $-1 #
edge $-1 $412 -50.370433127734557 $291 -30.994015467816276 $286 $413 forward 7 unknown #
edge $-1 $292 -26.073541495159819 $412 0 $183 $414 forward 7 unknown #
coedge $-1 $184 $404 $410 $415 forward $290 $-1 #
loop $-1 $-1 $404 $278 #
vertex $-1 $287 $416 #
vertex $-1 $185 $417 #
straight-curve $-1 49.973567225309097 -78.564037308687887 20.67127963717784 0 1 0 I I #
coedge $-1 $294 $294 $-1 $418 reversed $188 $-1 #
edge $-1 $419 0 $419 6.2831853071796004 $189 $420 forward 7 unknown #
vertex $-1 $192 $421 #
ellipse-curve $-1 30.092759430529952 -35.082612866596058 10.983070807218699 0 -0.74314483375859142 0.66913059716165679 1.5 0 0 1 I I #
coedge $-1 $298 $298 $-1 $422 reversed $195 $-1 #
edge $-1 $423 0 $423 6.2831853071796004 $196 $424 forward 7 unknown #
vertex $-1 $199 $425 #
ellipse-curve $-1 42.021244107397436 -35.082612866596058 10.983070807218699 0 -0.74314483375859142 0.66913059716165679 1.5 0 0 1 I I #
face $-1 $-1 $215 $30 $-1 $426 reversed single #
loop $-1 $-1 $318 $200 #
plane-surface $-1 0 43.805915061983825 0 0 -1 0 0 0 -1 forward_v I I I I #
coedge $-1 $427 $316 $319 $428 forward $201 $-1 #
coedge $-1 $322 $203 $204 $310 reversed $126 $-1 #
coedge $-1 $316 $427 $203 $308 reversed $201 $-1 #
edge $-1 $323 -20.67127963717784 $429 20.67127963717784 $307 $430 forward 7 unknown #
coedge $-1 $205 $204 $427 $431 forward $81 $-1 #
edge $-1 $314 -76.245002594073298 $429 76.245002594073298 $306 $432 forward 7 unknown #
coedge $-1 $319 $318 $205 $312 reversed $303 $-1 #
edge $-1 $433 -76.245002594073298 $313 76.245002594073298 $311 $434 forward 7 unknown #
vertex $-1 $207 $435 #
vertex $-1 $325 $436 #
straight-curve $-1 76.245002594073298 0 -20.67127963717784 0 -1 0 I I #
coedge $-1 $305 $307 $208 $317 reversed $201 $-1 #
edge $-1 $320 -43.805915061983825 $323 43.805915061983825 $316 $437 forward 7 unknown #
coedge $-1 $311 $209 $214 $326 forward $303 $-1 #
coedge $-1 $209 $311 $305 $428 reversed $303 $-1 #
vertex $-1 $210 $438 #
straight-curve $-1 0 43.805915061983825 20.67127963717784 -1 0 0 I I #
coedge $-1 $211 $306 $213 $325 reversed $126 $-1 #
vertex $-1 $317 $439 #
straight-curve $-1 0 -43.805915061983825 20.67127963717784 1 0 0 I I #
edge $-1 $216 -20.67127963717784 $314 20.67127963717784 $213 $440 forward 7 unknown #
edge $-1 $217 -20.67127963717784 $313 20.67127963717784 $214 $441 forward 7 unknown #
point $-1 76.245002594073298 -43.805915061983825 20.67127963717784 #
point $-1 76.245002594073298 43.805915061983825 20.67127963717784 #
face $-1 $-1 $344 $31 $-1 $442 reversed single #
loop $-1 $-1 $225 $219 #
plane-surface $-1 0 0 20.67127963717784 0 0 1 1 0 0 forward_v I I I I #
coedge $-1 $443 $444 $227 $342 forward $220 $-1 #
coedge $-1 $222 $347 $337 $445 reversed $134 $-1 #
edge $-1 $340 -13.039586021075866 $232 -2.2238012111280803 $222 $446 forward 7 unknown #
coedge $-1 $447 $228 $223 $336 forward $344 $-1 #
edge $-1 $233 2.2238012111280803 $339 13.039586021075866 $335 $448 forward 7 unknown #
coedge $-1 $449 $225 $333 $445 forward $330 $-1 #
coedge $-1 $225 $449 $447 $450 forward $330 $-1 #
vertex $-1 $336 $451 #
vertex $-1 $445 $452 #
straight-curve $-1 -54.495740358768558 0 20.67127963717784 0 1 0 I I #
edge $-1 $348 -43.805915061983825 $345 43.805915061983825 $332 $453 forward 7 unknown #
coedge $-1 $228 $447 $443 $454 forward $344 $-1 #
loop $-1 $-1 $335 $329 #
vertex $-1 $342 $455 #
straight-curve $-1 -32.685185738210464 -43.805915061983825 9.8554948272300535 1 0 0 I I #
coedge $-1 $333 $230 $444 $456 reversed $134 $-1 #
vertex $-1 $342 $457 #
straight-curve $-1 -32.685185738210464 43.805915061983825 9.8554948272300535 -1 0 0 I I #
point $-1 -54.495740358768558 43.805915061983825 9.8554948272300535 #
point $-1 -54.495740358768558 -43.805915061983825 9.8554948272300535 #
loop $-1 $-1 $243 $235 #
plane-surface $-1 -54.495740358768558 0 15.263387232203947 -1 0 0 0 0 1 forward_v I I I I #
coedge $-1 $359 $458 $239 $355 forward $236 $-1 #
edge $-1 $357 66.718546980041538 $365 82.387808775035907 $354 $459 forward 7 unknown #
coedge $-1 $246 $240 $458 $460 forward $142 $-1 #
vertex $-1 $460 $461 #
straight-curve $-1 -35.7622321878073 44.840857285363271 20.671279637177832 0 1 0 I I #
coedge $-1 $462 $354 $242 $360 forward $236 $-1 #
edge $-1 $365 13.197739051163335 $363 31.931247222124593 $359 $463 forward 7 unknown #
coedge $-1 $362 $243 $246 $367 reversed $352 $-1 #
coedge $-1 $243 $361 $462 $464 reversed $352 $-1 #
vertex $-1 $464 $465 #
straight-curve $-1 -54.495740358768558 -0.68636503390334802 49.494298970518614 0 -0.70710677298230462 0.70710678939079052 I I #
vertex $-1 $360 $466 #
straight-curve $-1 -35.7622321878073 -18.145003412048766 66.952937753793549 0 -0.70710677298230451 0.70710678939079041 I I #
edge $-1 $467 -43.805915061983825 $247 -28.136653630596296 $246 $468 forward 7 unknown #
point $-1 -54.495740358768558 28.136653630596296 20.67127963717784 #
point $-1 -35.7622321878073 28.1366536305963 20.67127963717784 #
edge $-1 $469 1 $469 0 $250 $-1 forward 7 unknown #
vertex $-1 $251 $470 #
ellipse-curve $-1 -45.128986273287929 33.784447567930876 10.649812012067251 0 0.70710678939079041 0.70710677298230451 1.5 0 0 1 I I #
point $-1 -43.628986273287929 35.971284346290034 12.836648739680637 #
plane-surface $-1 0 0 20.67127963717784 0 0 1 1 0 0 forward_v I I I I #
coedge $-1 $385 $384 $377 $471 forward $255 $-1 #
coedge $-1 $377 $257 $259 $381 reversed $157 $-1 #
coedge $-1 $257 $376 $375 $471 reversed $157 $-1 #
coedge $-1 $265 $260 $257 $379 forward $266 $-1 #
edge $-1 $382 -52.204726637479595 $472 -34.758122246704062 $378 $473 forward 7 unknown #
coedge $-1 $259 $258 $385 $474 reversed $98 $-1 #
edge $-1 $475 0 $382 26.073541495159819 $376 $476 forward 7 unknown #
vertex $-1 $261 $477 #
straight-curve $-1 -7.1538697668294802 -26.359310671208295 20.67127963717784 -1 0 0 I I #
coedge $-1 $375 $262 $265 $389 reversed $255 $-1 #
coedge $-1 $262 $375 $380 $474 forward $255 $-1 #
vertex $-1 $263 $478 #
straight-curve $-1 -0.39117407731356479 -43.805915061983825 51.665295104994115 0 0 1 I I #
straight-curve $-1 -0.39117407731356479 -43.805915061983825 1.2948619772595578 0 -0.66913059716165679 -0.74314483375859142 I I #
edge $-1 $472 -28.224304990004356 $267 -0.39117407731356479 $384 $479 forward 7 unknown #
point $-1 -0.39117407731356479 -43.805915061983825 20.67127963717784 #
point $-1 -0.39117407731356479 -26.359310671208295 20.67127963717784 #
edge $-1 $480 1 $480 0 $270 $-1 forward 7 unknown #
vertex $-1 $271 $481 #
ellipse-curve $-1 -20.271981872092702 -31.106378637896245 7.4028535157279496 0 -0.74314483375859142 0.66913059716165679 1.5 0 0 1 I I #
point $-1 -18.771981872092702 -35.082612866596065 10.983070807218702 #
edge $-1 $482 1 $482 0 $274 $-1 forward 7 unknown #
vertex $-1 $275 $483 #
ellipse-curve $-1 -8.3434971952252255 -31.106378637896245 7.4028535157279496 0 -0.74314483375859142 0.66913059716165679 1.5 0 0 1 I I #
point $-1 -6.8434971952252255 -35.082612866596065 10.983070807218702 #
plane-surface $-1 0 0 20.67127963717784 0 0 1 1 0 0 forward_v I I I I #
coedge $-1 $411 $410 $403 $484 forward $279 $-1 #
coedge $-1 $403 $281 $283 $407 reversed $179 $-1 #
coedge $-1 $281 $402 $401 $484 reversed $179 $-1 #
coedge $-1 $289 $284 $281 $405 forward $290 $-1 #
edge $-1 $408 -52.204726637479595 $485 -34.758122246704062 $404 $486 forward 7 unknown #
coedge $-1 $283 $282 $411 $487 reversed $112 $-1 #
edge $-1 $488 0 $408 26.073541495159819 $402 $489 forward 7 unknown #
vertex $-1 $285 $490 #
straight-curve $-1 18.028500884481851 -26.359310671208295 20.67127963717784 -1 0 0 I I #
coedge $-1 $401 $286 $289 $415 reversed $279 $-1 #
coedge $-1 $286 $401 $406 $487 forward $279 $-1 #
vertex $-1 $287 $491 #
straight-curve $-1 49.973567225309097 -43.805915061983825 51.665295104994115 0 0 1 I I #
straight-curve $-1 49.973567225309097 -43.805915061983825 1.2948619772595578 0 -0.66913059716165679 -0.74314483375859142 I I #
edge $-1 $485 22.140436312618306 $291 49.973567225309097 $410 $492 forward 7 unknown #
point $-1 49.973567225309097 -43.805915061983825 20.67127963717784 #
point $-1 49.973567225309097 -26.359310671208295 20.67127963717784 #
edge $-1 $493 1 $493 0 $294 $-1 forward 7 unknown #
vertex $-1 $295 $494 #
ellipse-curve $-1 30.092759430529952 -31.106378637896245 7.4028535157279496 0 -0.74314483375859142 0.66913059716165679 1.5 0 0 1 I I #
point $-1 31.592759430529952 -35.082612866596065 10.983070807218702 #
edge $-1 $495 1 $495 0 $298 $-1 forward 7 unknown #
vertex $-1 $299 $496 #
ellipse-curve $-1 42.021244107397436 -31.106378637896245 7.4028535157279496 0 -0.74314483375859142 0.66913059716165679 1.5 0 0 1 I I #
point $-1 43.521244107397436 -35.082612866596065 10.983070807218702 #
plane-surface $-1 76.245002594073298 0 0 -1 0 0 0 0 1 forward_v I I I I #
coedge $-1 $307 $305 $309 $431 reversed $201 $-1 #
edge $-1 $320 -20.67127963717784 $433 20.67127963717784 $319 $497 forward 7 unknown #
vertex $-1 $431 $498 #
straight-curve $-1 -76.245002594073298 -43.805915061983825 0 0 0 -1 I I #
edge $-1 $429 -43.805915061983825 $433 43.805915061983825 $427 $499 forward 7 unknown #
straight-curve $-1 0 -43.805915061983825 -20.67127963717784 -1 0 0 I I #
vertex $-1 $312 $500 #
straight-curve $-1 0 43.805915061983825 -20.67127963717784 1 0 0 I I #
point $-1 76.245002594073298 43.805915061983825 -20.67127963717784 #
point $-1 76.245002594073298 -43.805915061983825 -20.67127963717784 #
straight-curve $-1 -76.245002594073298 0 20.67127963717784 0 -1 0 I I #
point $-1 -76.245002594073298 43.805915061983825 20.67127963717784 #
point $-1 -76.245002594073298 -43.805915061983825 20.67127963717784 #
straight-curve $-1 76.245002594073298 -43.805915061983825 0 0 0 -1 I I #
straight-curve $-1 76.245002594073298 43.805915061983825 0 0 0 -1 I I #
plane-surface $-1 0 -43.805915061983825 0 0 1 0 0 0 1 forward_v I I I I #
coedge $-1 $501 $332 $343 $454 reversed $220 $-1 #
coedge $-1 $332 $501 $347 $456 forward $220 $-1 #
edge $-1 $340 54.495740358768558 $502 76.245002594073298 $333 $503 forward 7 unknown #
straight-curve $-1 -54.495740358768558 43.805915061983825 7.6316936161019733 0 0 -1 I I #
coedge $-1 $343 $335 $338 $450 reversed $344 $-1 #
straight-curve $-1 -54.495740358768558 -43.805915061983825 7.6316936161019733 0 0 1 I I #
coedge $-1 $338 $337 $501 $504 forward $330 $-1 #
edge $-1 $505 -76.245002594073298 $339 -54.495740358768558 $447 $506 forward 7 unknown #
point $-1 -54.495740358768558 -43.805915061983825 20.67127963717784 #
point $-1 -54.495740358768558 43.805915061983825 20.67127963717784 #
straight-curve $-1 -76.245002594073298 0 9.8554948272300535 0 -1 0 I I #
edge $-1 $505 -20.67127963717784 $345 -9.8554948272300535 $443 $507 forward 7 unknown #
point $-1 -76.245002594073298 -43.805915061983825 9.8554948272300535 #
edge $-1 $502 -20.67127963717784 $348 -9.8554948272300535 $347 $508 forward 7 unknown #
point $-1 -76.245002594073298 43.805915061983825 9.8554948272300535 #
coedge $-1 $354 $462 $356 $460 reversed $236 $-1 #
straight-curve $-1 -35.7622321878073 43.805915061983825 87.389826617219384 0 0 -1 I I #
edge $-1 $357 35.7622321878073 $467 54.495740358768558 $458 $509 forward 7 unknown #
point $-1 -35.7622321878073 43.805915061983825 20.67127963717784 #
coedge $-1 $458 $359 $362 $464 forward $236 $-1 #
straight-curve $-1 -22.564493136643964 43.805915061983825 5.0020178421834842 -1 0 0 I I #
edge $-1 $363 -82.387808775035907 $467 -66.718546980041538 $462 $510 forward 7 unknown #
point $-1 -54.495740358768558 43.805915061983825 5.0020178421834771 #
point $-1 -35.7622321878073 43.805915061983825 5.0020178421834771 #
vertex $-1 $367 $511 #
straight-curve $-1 -54.495740358768558 0 20.67127963717784 0 -1 0 I I #
vertex $-1 $370 $512 #
point $-1 -43.628986273287929 33.784447567930876 10.649812012067251 #
edge $-1 $472 30.994015467816276 $475 50.370433127734557 $375 $513 forward 7 unknown #
vertex $-1 $389 $514 #
straight-curve $-1 -28.224304990004356 -78.564037308687887 20.67127963717784 0 -1 0 I I #
edge $-1 $475 -21.070435223174876 $386 6.7626956895159154 $385 $515 forward 7 unknown #
vertex $-1 $474 $516 #
straight-curve $-1 -28.224304990004356 -43.805915061983825 1.2948619772595578 0 0.66913059716165679 0.74314483375859142 I I #
point $-1 -28.224304990004356 -26.359310671208295 20.67127963717784 #
point $-1 -0.39117407731356479 -43.805915061983825 1.2948619772595578 #
straight-curve $-1 0 -43.805915061983825 20.67127963717784 1 0 0 I I #
vertex $-1 $392 $517 #
point $-1 -18.771981872092702 -31.106378637896245 7.4028535157279496 #
vertex $-1 $396 $518 #
point $-1 -6.8434971952252255 -31.106378637896245 7.4028535157279496 #
edge $-1 $485 30.994015467816276 $488 50.370433127734557 $401 $519 forward 7 unknown #
vertex $-1 $415 $520 #
straight-curve $-1 22.140436312618306 -78.564037308687887 20.67127963717784 0 -1 0 I I #
edge $-1 $488 4.1119354281364551 $412 31.945066340827246 $411 $521 forward 7 unknown #
vertex $-1 $487 $522 #
straight-curve $-1 22.140436312618306 -43.805915061983825 1.2948619772595578 0 0.66913059716165679 0.74314483375859142 I I #
point $-1 22.140436312618306 -26.359310671208295 20.67127963717784 #
point $-1 49.973567225309097 -43.805915061983825 1.2948619772595578 #
straight-curve $-1 0 -43.805915061983825 20.67127963717784 1 0 0 I I #
vertex $-1 $418 $523 #
point $-1 31.592759430529952 -31.106378637896245 7.4028535157279496 #
vertex $-1 $422 $524 #
point $-1 43.521244107397436 -31.106378637896245 7.4028535157279496 #
straight-curve $-1 -76.245002594073298 43.805915061983825 0 0 0 -1 I I #
point $-1 -76.245002594073298 -43.805915061983825 -20.67127963717784 #
straight-curve $-1 -76.245002594073298 0 -20.67127963717784 0 1 0 I I #
point $-1 -76.245002594073298 43.805915061983825 -20.67127963717784 #
coedge $-1 $444 $443 $449 $504 reversed $220 $-1 #
vertex $-1 $445 $525 #
straight-curve $-1 0 43.805915061983825 20.67127963717784 -1 0 0 I I #
edge $-1 $502 -43.805915061983825 $505 43.805915061983825 $501 $526 forward 7 unknown #
vertex $-1 $504 $527 #
straight-curve $-1 0 -43.805915061983825 20.67127963717784 1 0 0 I I #
straight-curve $-1 -76.245002594073298 -43.805915061983825 0 0 0 -1 I I #
straight-curve $-1 -76.245002594073298 43.805915061983825 0 0 0 -1 I I #
straight-curve $-1 0 43.805915061983825 20.67127963717784 -1 0 0 I I #
straight-curve $-1 -54.495740358768558 43.805915061983825 87.389826617219384 0 0 1 I I #
point $-1 -54.495740358768558 43.805915061983825 20.67127963717784 #
point $-1 -45.128986273287929 32.723787383844687 9.589151852593794 #
straight-curve $-1 -28.224304990004356 -43.805915061983825 51.665295104994115 0 0 -1 I I #
point $-1 -28.224304990004356 -43.805915061983825 20.67127963717784 #
straight-curve $-1 -7.1538697668294802 -43.805915061983825 1.294861977259556 1 0 0 I I #
point $-1 -28.224304990004356 -43.805915061983825 1.2948619772595578 #
point $-1 -20.271981872092702 -29.991661387258358 6.3991576199854645 #
point $-1 -8.3434971952252255 -29.991661387258358 6.3991576199854645 #
straight-curve $-1 22.140436312618306 -43.805915061983825 51.665295104994115 0 0 -1 I I #
point $-1 22.140436312618306 -43.805915061983825 20.67127963717784 #
straight-curve $-1 18.028500884481851 -43.805915061983825 1.294861977259556 1 0 0 I I #
point $-1 22.140436312618306 -43.805915061983825 1.2948619772595578 #
point $-1 30.092759430529952 -29.991661387258358 6.3991576199854645 #
point $-1 42.021244107397436 -29.991661387258358 6.3991576199854645 #
point $-1 -76.245002594073298 43.805915061983825 20.67127963717784 #
straight-curve $-1 -76.245002594073298 0 20.67127963717784 0 -1 0 I I #
point $-1 -76.245002594073298 -43.805915061983825 20.67127963717784 #
End-of-ACIS-data 