500 0 6 0           
7 Unknown 11 ACIS 5.0 NT 24 Thu Mar 25 18:52:04 1999 
-1 9.9999999999999995e-007 1e-010 
body $-1 $6 $-1 $7 #
body $-1 $8 $-1 $9 #
body $-1 $10 $-1 $11 #
body $-1 $12 $-1 $13 #
body $-1 $14 $-1 $15 #
body $-1 $16 $-1 $17 #
lump $-1 $-1 $18 $0 #
transform $-1 1 0 0 0 1 0 0 0 1 47.883541367839598 29.423820218125353 9.1624484876748582 1 rotate no_reflect no_shear #
lump $-1 $-1 $19 $1 #
transform $-1 1 0 0 0 1 0 0 0 1 47.883541367839598 29.423820218125353 9.1624484876748582 1 rotate no_reflect no_shear #
lump $-1 $-1 $20 $2 #
transform $-1 1 0 0 0 1 0 0 0 1 47.883541367839598 29.423820218125353 9.1624484876748582 1 rotate no_reflect no_shear #
lump $-1 $-1 $21 $3 #
transform $-1 1 0 0 0 1 0 0 0 1 47.883541367839598 29.423820218125353 9.1624484876748582 1 rotate no_reflect no_shear #
lump $-1 $-1 $22 $4 #
transform $-1 1 0 0 0 1 0 0 0 1 47.883541367839598 29.423820218125353 9.1624484876748582 1 rotate no_reflect no_shear #
lump $-1 $-1 $23 $5 #
transform $-1 1 0 0 0 1 0 0 0 1 47.883541367839598 29.423820218125353 9.1624484876748582 1 rotate no_reflect no_shear #
shell $-1 $-1 $-1 $24 $-1 $6 #
shell $-1 $-1 $-1 $25 $-1 $8 #
shell $-1 $-1 $-1 $26 $-1 $10 #
shell $-1 $-1 $-1 $27 $-1 $12 #
shell $-1 $-1 $-1 $28 $-1 $14 #
shell $-1 $-1 $-1 $29 $-1 $16 #
face $-1 $30 $31 $18 $-1 $32 forward single #
face $-1 $33 $34 $19 $-1 $35 reversed single #
face $-1 $36 $37 $20 $-1 $38 reversed single #
face $-1 $39 $40 $21 $-1 $41 forward single #
face $-1 $42 $43 $22 $-1 $44 reversed single #
face $-1 $45 $46 $23 $-1 $47 forward single #
face $-1 $48 $49 $18 $-1 $50 reversed single #
loop $-1 $-1 $51 $24 #
plane-surface $-1 0 0 9.1624484876748582 0 0 1 1 0 0 forward_v I I I I #
face $-1 $52 $53 $19 $-1 $54 reversed single #
loop $-1 $-1 $55 $25 #
plane-surface $-1 -46.383541367839598 -20.974475138825941 0 0 -1 0 0 0 -1 forward_v I I I I #
face $-1 $56 $57 $20 $-1 $58 reversed single #
loop $-1 $-1 $59 $26 #
plane-surface $-1 -126.33134374531721 10.069913059593283 58.081208841992513 0 1 0 -0.81915205242281985 0 0.57357642473473569 forward_v I I I I #
face $-1 $60 $61 $21 $-1 $62 forward single #
loop $-1 $63 $64 $27 #
cone-surface $-1 -43.820035608472558 15.108974715521843 4.7852244605242529 0.81915205242281985 0 -0.57357642473473569 0.86036463710210354 0 1.2287280786342298 1 I I 0 1 1.5 forward I I I I #
face $-1 $65 $66 $22 $-1 $67 reversed single #
loop $-1 $-1 $68 $28 #
plane-surface $-1 71.401602822510711 20.148036371450402 136.52901121947014 0 -1 0 -0.81915205242281985 0 -0.57357642473473569 forward_v I I I I #
face $-1 $69 $70 $23 $-1 $71 forward single #
loop $-1 $72 $73 $29 #
cone-surface $-1 43.820035608472558 15.108974715521843 4.7852244605242475 -0.81915205242281985 0 -0.57357642473473569 0.86036463710210354 0 -1.2287280786342298 1 I I 0 1 1.5 forward I I I I #
face $-1 $74 $75 $18 $-1 $76 reversed single #
loop $-1 $-1 $77 $30 #
plane-surface $-1 0 0 -9.1624484876748582 0 0 1 1 0 0 forward_v I I I I #
coedge $-1 $78 $79 $80 $81 forward $31 $-1 #
face $-1 $82 $83 $19 $-1 $84 forward single #
loop $-1 $-1 $85 $33 #
plane-surface $-1 -44.883541367839598 -25.199147678475647 0 -1 0 0 0 0 1 forward_v I I I I #
coedge $-1 $86 $87 $88 $89 forward $34 $-1 #
face $-1 $90 $91 $20 $-1 $92 reversed single #
loop $-1 $-1 $93 $36 #
plane-surface $-1 -47.883541367839598 15.108974715521843 3.1514679191860111 -0.81915205242281985 0 0.57357642473473569 0.57357642473473569 0 0.81915205242281985 forward_v I I I I #
coedge $-1 $94 $95 $96 $97 reversed $37 $-1 #
face $-1 $-1 $98 $21 $-1 $99 forward single #
loop $-1 $100 $101 $39 #
cone-surface $-1 -41.246632699315398 15.108974715521843 2.9833083990670257 0.81915205242281985 0 -0.57357642473473569 0.43018231855105177 0 0.61436403931711492 1 I I -0.70710678118654757 0.70710678118654757 0.75 forward I I I I #
loop $-1 $-1 $102 $27 #
coedge $-1 $64 $64 $103 $104 reversed $40 $-1 #
face $-1 $105 $106 $22 $-1 $107 reversed single #
loop $-1 $-1 $108 $42 #
plane-surface $-1 -7.0461995549669041 15.108974715521843 81.599270296663633 0.81915205242281985 0 0.57357642473473569 0.57357642473473569 0 -0.81915205242281985 forward_v I I I I #
coedge $-1 $109 $110 $111 $112 reversed $43 $-1 #
face $-1 $-1 $113 $23 $-1 $114 forward single #
loop $-1 $115 $116 $45 #
cone-surface $-1 41.246632699315398 15.108974715521843 2.9833083990670204 -0.81915205242281985 0 -0.57357642473473569 0.43018231855105177 0 -0.61436403931711492 1 I I -0.70710678118654757 0.70710678118654757 0.75 forward I I I I #
loop $-1 $-1 $117 $29 #
coedge $-1 $73 $73 $118 $119 reversed $46 $-1 #
face $-1 $120 $121 $18 $-1 $122 reversed single #
loop $-1 $-1 $123 $48 #
plane-surface $-1 0 -29.423820218125353 0 0 1 0 0 0 1 forward_v I I I I #
coedge $-1 $124 $125 $126 $127 forward $49 $-1 #
coedge $-1 $128 $51 $129 $130 forward $31 $-1 #
coedge $-1 $51 $128 $131 $132 forward $31 $-1 #
coedge $-1 $133 $134 $51 $81 reversed $135 $-1 #
edge $-1 $136 -29.423820218125353 $137 29.423820218125353 $80 $138 forward 7 unknown #
face $-1 $139 $140 $19 $-1 $141 reversed single #
loop $-1 $-1 $142 $52 #
plane-surface $-1 0 0 9.1624484876748582 0 0 1 1 0 0 forward_v I I I I #
coedge $-1 $143 $144 $145 $146 reversed $53 $-1 #
coedge $-1 $147 $55 $148 $149 reversed $34 $-1 #
coedge $-1 $55 $147 $150 $151 reversed $34 $-1 #
coedge $-1 $144 $143 $55 $89 reversed $53 $-1 #
edge $-1 $152 -9.1624484876748582 $153 9.1624484876748582 $88 $154 forward 7 unknown #
face $-1 $155 $156 $20 $-1 $157 reversed single #
loop $-1 $-1 $158 $56 #
plane-surface $-1 -126.33134374531721 20.148036371450402 58.081208841992513 0 -1 0 0.81915205242281985 0 -0.57357642473473569 forward_v I I I I #
coedge $-1 $159 $160 $161 $162 reversed $57 $-1 #
coedge $-1 $95 $59 $163 $164 reversed $37 $-1 #
coedge $-1 $59 $94 $159 $165 reversed $37 $-1 #
coedge $-1 $161 $166 $59 $97 forward $167 $-1 #
edge $-1 $168 15.282130504819008 $169 19.491064283872987 $96 $170 forward 7 unknown #
loop $-1 $-1 $103 $60 #
plane-surface $-1 -47.883541367839598 15.108974715521843 3.1514679191860111 -0.81915205242281985 0 0.57357642473473569 0.57357642473473569 0 0.81915205242281985 forward_v I I I I #
loop $-1 $-1 $171 $39 #
coedge $-1 $101 $101 $102 $172 reversed $61 $-1 #
coedge $-1 $102 $102 $101 $172 forward $63 $-1 #
coedge $-1 $103 $103 $64 $104 forward $98 $-1 #
edge $-1 $173 0 $173 6.2831853071796004 $103 $174 forward 7 unknown #
face $-1 $175 $176 $22 $-1 $177 forward single #
loop $-1 $-1 $178 $65 #
plane-surface $-1 71.401602822510711 10.069913059593283 136.52901121947014 0 1 0 0.81915205242281985 0 0.57357642473473569 forward_v I I I I #
coedge $-1 $179 $180 $181 $182 reversed $66 $-1 #
coedge $-1 $110 $68 $183 $184 reversed $43 $-1 #
coedge $-1 $68 $109 $179 $185 reversed $43 $-1 #
coedge $-1 $181 $186 $68 $112 forward $176 $-1 #
edge $-1 $187 -12.182739956584243 $188 -7.9738061775302782 $111 $189 forward 7 unknown #
loop $-1 $-1 $118 $69 #
plane-surface $-1 -7.0461995549669041 15.108974715521843 81.599270296663633 0.81915205242281985 0 0.57357642473473569 0.57357642473473569 0 -0.81915205242281985 forward_v I I I I #
loop $-1 $-1 $190 $45 #
coedge $-1 $116 $116 $117 $191 reversed $70 $-1 #
coedge $-1 $117 $117 $116 $191 forward $72 $-1 #
coedge $-1 $118 $118 $73 $119 forward $113 $-1 #
edge $-1 $192 0 $192 6.2831853071796004 $118 $193 forward 7 unknown #
face $-1 $194 $195 $18 $-1 $196 reversed single #
loop $-1 $-1 $197 $74 #
plane-surface $-1 -47.883541367839598 0 0 1 0 0 0 0 -1 forward_v I I I I #
coedge $-1 $198 $131 $199 $200 forward $75 $-1 #
coedge $-1 $201 $77 $198 $202 forward $49 $-1 #
coedge $-1 $77 $201 $203 $204 forward $49 $-1 #
coedge $-1 $134 $133 $77 $127 reversed $135 $-1 #
edge $-1 $205 -29.423820218125353 $206 29.423820218125353 $126 $207 forward 7 unknown #
coedge $-1 $79 $78 $208 $209 forward $31 $-1 #
coedge $-1 $210 $211 $78 $130 reversed $195 $-1 #
edge $-1 $137 -47.883541367839598 $212 47.883541367839598 $129 $213 forward 7 unknown #
coedge $-1 $123 $214 $79 $132 reversed $75 $-1 #
edge $-1 $215 -47.883541367839598 $136 47.883541367839598 $131 $216 forward 7 unknown #
coedge $-1 $126 $80 $214 $217 forward $135 $-1 #
coedge $-1 $80 $126 $210 $218 reversed $135 $-1 #
loop $-1 $-1 $133 $194 #
vertex $-1 $81 $219 #
vertex $-1 $81 $220 #
straight-curve $-1 47.883541367839598 0 9.1624484876748582 0 1 0 I I #
face $-1 $221 $222 $19 $-1 $223 reversed single #
loop $-1 $-1 $224 $82 #
plane-surface $-1 -47.883541367839598 0 0 1 0 0 0 0 -1 forward_v I I I I #
coedge $-1 $150 $225 $144 $226 forward $83 $-1 #
coedge $-1 $88 $85 $227 $228 reversed $53 $-1 #
coedge $-1 $85 $88 $142 $226 reversed $53 $-1 #
coedge $-1 $229 $230 $85 $146 forward $231 $-1 #
edge $-1 $232 -9.1624484876748582 $233 9.1624484876748582 $145 $234 forward 7 unknown #
coedge $-1 $87 $86 $224 $235 reversed $34 $-1 #
coedge $-1 $227 $236 $86 $149 forward $222 $-1 #
edge $-1 $237 -24.691770683919799 $153 -21.691770683919799 $148 $238 forward 7 unknown #
coedge $-1 $239 $142 $87 $151 forward $83 $-1 #
edge $-1 $152 21.691770683919799 $240 24.691770683919799 $150 $241 forward 7 unknown #
vertex $-1 $151 $242 #
vertex $-1 $149 $243 #
straight-curve $-1 -44.883541367839598 -20.974475138825941 0 0 0 -1 I I #
face $-1 $-1 $167 $20 $-1 $244 forward single #
loop $-1 $-1 $245 $90 #
plane-surface $-1 -47.883541367839598 0 0 1 0 0 0 0 -1 forward_v I I I I #
coedge $-1 $246 $247 $248 $249 reversed $91 $-1 #
coedge $-1 $250 $93 $95 $165 forward $57 $-1 #
coedge $-1 $93 $250 $246 $251 forward $57 $-1 #
coedge $-1 $248 $96 $93 $162 forward $167 $-1 #
edge $-1 $169 2.5154257018323616 $252 12.593549013689481 $161 $253 forward 7 unknown #
coedge $-1 $254 $255 $94 $164 forward $156 $-1 #
edge $-1 $256 -25.889136501810246 $168 -19.878155933321398 $163 $257 forward 7 unknown #
edge $-1 $169 -7.3380522586863677 $256 0 $95 $258 forward 7 unknown #
coedge $-1 $96 $248 $254 $259 forward $167 $-1 #
loop $-1 $-1 $248 $155 #
vertex $-1 $164 $260 #
vertex $-1 $97 $261 #
straight-curve $-1 -63.165671872658606 10.069913059593283 9.1624484876748582 1 0 0 I I #
coedge $-1 $171 $171 $-1 $262 reversed $100 $-1 #
edge $-1 $263 0 $263 6.2831853071796004 $101 $264 forward 7 unknown #
vertex $-1 $104 $265 #
ellipse-curve $-1 -45.779074478312609 15.108974715521843 6.1569582034304329 -0.81915205242281985 0 0.57357642473473569 0.86036463710210354 0 1.2287280786342298 1 I I #
face $-1 $-1 $266 $22 $-1 $267 reversed single #
loop $-1 $-1 $111 $105 #
plane-surface $-1 0 0 9.1624484876748582 0 0 1 1 0 0 forward_v I I I I #
coedge $-1 $268 $269 $270 $271 reversed $106 $-1 #
coedge $-1 $272 $108 $110 $185 forward $66 $-1 #
coedge $-1 $108 $272 $268 $273 forward $66 $-1 #
coedge $-1 $270 $111 $108 $182 forward $176 $-1 #
edge $-1 $188 -12.593549013689481 $274 -2.5154257018323616 $181 $275 forward 7 unknown #
coedge $-1 $276 $277 $109 $184 forward $266 $-1 #
edge $-1 $278 -65.113037690549049 $187 -59.102057122060209 $183 $279 forward 7 unknown #
edge $-1 $188 88.429030476992864 $278 95.76708273567921 $110 $280 forward 7 unknown #
coedge $-1 $111 $270 $276 $281 forward $176 $-1 #
vertex $-1 $112 $282 #
vertex $-1 $112 $283 #
straight-curve $-1 35.700801411255355 20.148036371450402 9.1624484876748582 -1 0 0 I I #
coedge $-1 $190 $190 $-1 $284 reversed $115 $-1 #
edge $-1 $285 0 $285 6.2831853071796004 $116 $286 forward 7 unknown #
vertex $-1 $119 $287 #
ellipse-curve $-1 45.779074478312616 15.108974715521843 6.1569582034304329 0.81915205242281985 0 0.57357642473473569 0.86036463710210354 0 -1.2287280786342298 1 I I #
face $-1 $-1 $135 $18 $-1 $288 reversed single #
loop $-1 $-1 $210 $120 #
plane-surface $-1 0 29.423820218125353 0 0 -1 0 0 0 -1 forward_v I I I I #
coedge $-1 $289 $208 $211 $290 forward $121 $-1 #
coedge $-1 $214 $123 $124 $202 reversed $75 $-1 #
coedge $-1 $208 $289 $123 $200 reversed $121 $-1 #
edge $-1 $215 -9.1624484876748582 $291 9.1624484876748582 $199 $292 forward 7 unknown #
coedge $-1 $125 $124 $289 $293 forward $49 $-1 #
edge $-1 $206 -47.883541367839598 $291 47.883541367839598 $198 $294 forward 7 unknown #
coedge $-1 $211 $210 $125 $204 reversed $195 $-1 #
edge $-1 $295 -47.883541367839598 $205 47.883541367839598 $203 $296 forward 7 unknown #
vertex $-1 $127 $297 #
vertex $-1 $217 $298 #
straight-curve $-1 47.883541367839598 0 -9.1624484876748582 0 -1 0 I I #
coedge $-1 $197 $199 $128 $209 reversed $121 $-1 #
edge $-1 $212 -29.423820218125353 $215 29.423820218125353 $208 $299 forward 7 unknown #
coedge $-1 $203 $129 $134 $218 forward $195 $-1 #
coedge $-1 $129 $203 $197 $290 reversed $195 $-1 #
vertex $-1 $130 $300 #
straight-curve $-1 0 29.423820218125353 9.1624484876748582 -1 0 0 I I #
coedge $-1 $131 $198 $133 $217 reversed $75 $-1 #
vertex $-1 $209 $301 #
straight-curve $-1 0 -29.423820218125353 9.1624484876748582 1 0 0 I I #
edge $-1 $136 -9.1624484876748582 $206 9.1624484876748582 $133 $302 forward 7 unknown #
edge $-1 $137 -9.1624484876748582 $205 9.1624484876748582 $134 $303 forward 7 unknown #
point $-1 47.883541367839598 -29.423820218125353 9.1624484876748582 #
point $-1 47.883541367839598 29.423820218125353 9.1624484876748582 #
face $-1 $-1 $231 $19 $-1 $304 reversed single #
loop $-1 $-1 $227 $139 #
plane-surface $-1 0 0 -9.1624484876748582 0 0 1 1 0 0 forward_v I I I I #
coedge $-1 $305 $306 $147 $235 forward $140 $-1 #
coedge $-1 $142 $239 $229 $307 forward $83 $-1 #
edge $-1 $233 -16.82424637888753 $152 -8.3749012995881174 $142 $308 forward 7 unknown #
coedge $-1 $309 $148 $143 $228 forward $222 $-1 #
edge $-1 $153 8.3749012995881174 $232 16.82424637888753 $227 $310 forward 7 unknown #
coedge $-1 $311 $145 $225 $307 reversed $231 $-1 #
coedge $-1 $145 $311 $309 $312 reversed $231 $-1 #
loop $-1 $-1 $145 $221 #
vertex $-1 $312 $313 #
vertex $-1 $146 $314 #
straight-curve $-1 -44.883541367839598 -29.423820218125353 0 0 0 1 I I #
edge $-1 $240 -9.1624484876748582 $237 9.1624484876748582 $224 $315 forward 7 unknown #
coedge $-1 $148 $309 $305 $316 forward $222 $-1 #
vertex $-1 $149 $317 #
straight-curve $-1 -23.191770683919799 -20.974475138825941 -9.1624484876748582 1 0 0 I I #
coedge $-1 $225 $150 $306 $318 forward $83 $-1 #
vertex $-1 $318 $319 #
straight-curve $-1 -23.191770683919799 -20.974475138825941 9.1624484876748582 -1 0 0 I I #
point $-1 -44.883541367839598 -20.974475138825941 9.1624484876748582 #
point $-1 -44.883541367839598 -20.974475138825941 -9.1624484876748582 #
plane-surface $-1 0 0 9.1624484876748582 0 0 1 1 0 0 forward_v I I I I #
coedge $-1 $255 $254 $247 $320 forward $156 $-1 #
coedge $-1 $247 $158 $160 $251 reversed $91 $-1 #
coedge $-1 $158 $246 $245 $320 reversed $91 $-1 #
coedge $-1 $166 $161 $158 $249 forward $167 $-1 #
edge $-1 $252 -19.491064283872987 $321 -15.282130504819008 $248 $322 forward 7 unknown #
coedge $-1 $160 $159 $255 $323 reversed $57 $-1 #
edge $-1 $324 0 $252 7.3380522586863677 $246 $325 forward 7 unknown #
vertex $-1 $162 $326 #
straight-curve $-1 -43.674607588785626 7.5544873577609213 9.1624484876748582 0 1 0 I I #
coedge $-1 $245 $163 $166 $259 reversed $156 $-1 #
coedge $-1 $163 $245 $250 $323 forward $156 $-1 #
vertex $-1 $164 $327 #
straight-curve $-1 -47.883541367839598 10.069913059593283 29.040604420996257 0 0 1 I I #
straight-curve $-1 -47.883541367839598 10.069913059593283 3.1514679191860111 -0.57357642473473569 0 -0.81915205242281985 I I #
edge $-1 $321 -20.148036371450402 $168 -10.069913059593283 $254 $328 forward 7 unknown #
point $-1 -47.883541367839598 10.069913059593283 9.1624484876748582 #
point $-1 -43.674607588785619 10.069913059593283 9.1624484876748582 #
edge $-1 $329 1 $329 0 $171 $-1 forward 7 unknown #
vertex $-1 $172 $330 #
ellipse-curve $-1 -41.860996738632515 15.108974715521843 3.4134907176180773 -0.81915205242281985 0 0.57357642473473569 0.86036463710210354 0 1.2287280786342298 1 I I #
point $-1 -44.9187098412105 15.108974715521843 7.3856862820646585 #
loop $-1 $-1 $183 $175 #
plane-surface $-1 47.883541367839598 0 0 -1 0 0 0 0 1 forward_v I I I I #
coedge $-1 $269 $178 $180 $273 reversed $106 $-1 #
coedge $-1 $178 $268 $331 $332 reversed $106 $-1 #
coedge $-1 $186 $181 $178 $271 forward $176 $-1 #
edge $-1 $274 7.9738061775302782 $333 12.182739956584243 $270 $334 forward 7 unknown #
coedge $-1 $180 $179 $277 $335 reversed $66 $-1 #
edge $-1 $336 -95.76708273567921 $274 -88.429030476992864 $268 $337 forward 7 unknown #
vertex $-1 $182 $338 #
straight-curve $-1 43.674607588785626 7.5544873577609213 9.1624484876748582 0 -1 0 I I #
coedge $-1 $331 $183 $186 $281 reversed $266 $-1 #
coedge $-1 $183 $331 $272 $335 forward $266 $-1 #
vertex $-1 $184 $339 #
straight-curve $-1 47.883541367839598 20.148036371450402 68.264505609735068 0 0 1 I I #
straight-curve $-1 -7.0461995549669041 20.148036371450402 81.599270296663633 0.57357642473473569 0 -0.81915205242281985 I I #
edge $-1 $333 10.069913059593283 $187 20.148036371450402 $276 $340 forward 7 unknown #
point $-1 47.883541367839598 20.148036371450402 9.1624484876748582 #
point $-1 43.674607588785634 20.148036371450402 9.1624484876748511 #
edge $-1 $341 1 $341 0 $190 $-1 forward 7 unknown #
vertex $-1 $191 $342 #
ellipse-curve $-1 41.860996738632515 15.108974715521843 3.413490717618072 0.81915205242281985 0 0.57357642473473569 0.86036463710210354 0 -1.2287280786342298 1 I I #
point $-1 46.639439115414703 15.108974715521843 4.928230124796193 #
plane-surface $-1 47.883541367839598 0 0 -1 0 0 0 0 1 forward_v I I I I #
coedge $-1 $199 $197 $201 $293 reversed $121 $-1 #
edge $-1 $212 -9.1624484876748582 $295 9.1624484876748582 $211 $343 forward 7 unknown #
vertex $-1 $293 $344 #
straight-curve $-1 -47.883541367839598 -29.423820218125353 0 0 0 -1 I I #
edge $-1 $291 -29.423820218125353 $295 29.423820218125353 $289 $345 forward 7 unknown #
straight-curve $-1 0 -29.423820218125353 -9.1624484876748582 -1 0 0 I I #
vertex $-1 $204 $346 #
straight-curve $-1 0 29.423820218125353 -9.1624484876748582 1 0 0 I I #
point $-1 47.883541367839598 29.423820218125353 -9.1624484876748582 #
point $-1 47.883541367839598 -29.423820218125353 -9.1624484876748582 #
straight-curve $-1 -47.883541367839598 0 9.1624484876748582 0 -1 0 I I #
point $-1 -47.883541367839598 29.423820218125353 9.1624484876748582 #
point $-1 -47.883541367839598 -29.423820218125353 9.1624484876748582 #
straight-curve $-1 47.883541367839598 -29.423820218125353 0 0 0 -1 I I #
straight-curve $-1 47.883541367839598 29.423820218125353 0 0 0 -1 I I #
plane-surface $-1 0 -29.423820218125353 0 0 1 0 0 0 1 forward_v I I I I #
coedge $-1 $347 $224 $236 $316 reversed $140 $-1 #
coedge $-1 $224 $347 $239 $318 reversed $140 $-1 #
edge $-1 $348 -47.883541367839598 $233 -44.883541367839598 $229 $349 forward 7 unknown #
straight-curve $-1 -44.883541367839598 -12.599573839237824 9.1624484876748582 0 1 0 I I #
coedge $-1 $236 $227 $230 $312 forward $222 $-1 #
straight-curve $-1 -44.883541367839598 -12.599573839237824 -9.1624484876748582 0 -1 0 I I #
coedge $-1 $230 $229 $347 $350 forward $231 $-1 #
edge $-1 $232 44.883541367839598 $351 47.883541367839598 $230 $352 forward 7 unknown #
point $-1 -44.883541367839598 -29.423820218125353 -9.1624484876748582 #
point $-1 -44.883541367839598 -29.423820218125353 9.1624484876748582 #
straight-curve $-1 -47.883541367839598 -20.974475138825941 0 0 0 -1 I I #
edge $-1 $351 -29.423820218125353 $237 -20.974475138825941 $305 $353 forward 7 unknown #
point $-1 -47.883541367839598 -20.974475138825941 -9.1624484876748582 #
edge $-1 $240 20.974475138825941 $348 29.423820218125353 $306 $354 forward 7 unknown #
point $-1 -47.883541367839598 -20.974475138825941 9.1624484876748582 #
edge $-1 $321 19.878155933321398 $324 25.889136501810246 $245 $355 forward 7 unknown #
vertex $-1 $259 $356 #
straight-curve $-1 -63.165671872658606 20.148036371450402 9.1624484876748582 -1 0 0 I I #
edge $-1 $324 -12.593549013689481 $256 -2.5154257018323616 $255 $357 forward 7 unknown #
vertex $-1 $323 $358 #
straight-curve $-1 -47.883541367839598 20.148036371450402 3.1514679191860111 0.57357642473473569 0 0.81915205242281985 I I #
point $-1 -43.674607588785619 20.148036371450402 9.1624484876748582 #
point $-1 -47.883541367839598 10.069913059593283 3.1514679191860111 #
straight-curve $-1 -47.883541367839598 0 9.1624484876748582 0 -1 0 I I #
vertex $-1 $262 $359 #
point $-1 -41.000632101530407 15.108974715521843 4.6422187962523074 #
coedge $-1 $277 $276 $269 $332 forward $266 $-1 #
edge $-1 $333 59.102057122060209 $336 65.113037690549049 $331 $360 forward 7 unknown #
vertex $-1 $281 $361 #
straight-curve $-1 35.700801411255355 10.069913059593283 9.1624484876748582 1 0 0 I I #
edge $-1 $336 2.5154257018323616 $278 12.593549013689481 $277 $362 forward 7 unknown #
vertex $-1 $335 $363 #
straight-curve $-1 -7.0461995549669041 10.069913059593283 81.599270296663633 -0.57357642473473569 0 0.81915205242281985 I I #
point $-1 43.674607588785634 10.069913059593283 9.1624484876748511 #
point $-1 47.883541367839598 20.148036371450402 3.1514679191860182 #
straight-curve $-1 47.883541367839598 0 9.1624484876748582 0 1 0 I I #
vertex $-1 $284 $364 #
point $-1 42.721361375734617 15.108974715521843 2.1847626389838424 #
straight-curve $-1 -47.883541367839598 29.423820218125353 0 0 0 -1 I I #
point $-1 -47.883541367839598 -29.423820218125353 -9.1624484876748582 #
straight-curve $-1 -47.883541367839598 0 -9.1624484876748582 0 1 0 I I #
point $-1 -47.883541367839598 29.423820218125353 -9.1624484876748582 #
coedge $-1 $306 $305 $311 $350 reversed $140 $-1 #
vertex $-1 $318 $365 #
straight-curve $-1 0 -29.423820218125353 9.1624484876748582 1 0 0 I I #
edge $-1 $348 -9.1624484876748582 $351 9.1624484876748582 $347 $366 forward 7 unknown #
vertex $-1 $316 $367 #
straight-curve $-1 0 -29.423820218125353 -9.1624484876748582 -1 0 0 I I #
straight-curve $-1 -47.883541367839598 0 -9.1624484876748582 0 1 0 I I #
straight-curve $-1 -47.883541367839598 0 9.1624484876748582 0 -1 0 I I #
straight-curve $-1 -47.883541367839598 20.148036371450402 29.040604420996257 0 0 -1 I I #
point $-1 -47.883541367839598 20.148036371450402 9.1624484876748582 #
straight-curve $-1 -47.883541367839598 7.5544873577609213 3.1514679191860093 0 -1 0 I I #
point $-1 -47.883541367839598 20.148036371450402 3.1514679191860111 #
point $-1 -40.632268659998282 15.108974715521843 2.5531260805159741 #
straight-curve $-1 47.883541367839598 10.069913059593283 68.264505609735068 0 0 -1 I I #
point $-1 47.883541367839598 10.069913059593283 9.1624484876748582 #
straight-curve $-1 47.883541367839598 7.5544873577609213 3.1514679191860182 0 1 0 I I #
point $-1 47.883541367839598 10.069913059593283 3.1514679191860182 #
point $-1 40.632268659998282 15.108974715521843 2.5531260805159688 #
point $-1 -47.883541367839598 -29.423820218125353 9.1624484876748582 #
straight-curve $-1 -47.883541367839598 -29.423820218125353 0 0 0 -1 I I #
point $-1 -47.883541367839598 -29.423820218125353 -9.1624484876748582 #
End-of-ACIS-data 