500 0 8 0           
7 Unknown 11 ACIS 5.0 NT 24 Thu Mar 25 19:25:04 1999 
-1 9.9999999999999995e-007 1e-010 
body $-1 $8 $-1 $9 #
body $-1 $10 $-1 $11 #
body $-1 $12 $-1 $13 #
body $-1 $14 $-1 $15 #
body $-1 $16 $-1 $17 #
body $-1 $18 $-1 $19 #
body $-1 $20 $-1 $21 #
body $-1 $22 $-1 $23 #
lump $-1 $-1 $24 $0 #
transform $-1 1 0 0 0 1 0 0 0 1 57.612842188787496 39.104714437816924 9.6150075628272234 1 rotate no_reflect no_shear #
lump $-1 $-1 $25 $1 #
transform $-1 1 0 0 0 1 0 0 0 1 57.612842188787496 39.104714437816924 9.6150075628272234 1 rotate no_reflect no_shear #
lump $-1 $-1 $26 $2 #
transform $-1 1 0 0 0 1 0 0 0 1 57.612842188787496 39.104714437816924 9.6150075628272234 1 rotate no_reflect no_shear #
lump $-1 $-1 $27 $3 #
transform $-1 1 0 0 0 1 0 0 0 1 57.612842188787496 39.104714437816924 9.6150075628272234 1 rotate no_reflect no_shear #
lump $-1 $-1 $28 $4 #
transform $-1 1 0 0 0 1 0 0 0 1 57.612842188787496 39.104714437816924 9.6150075628272234 1 rotate no_reflect no_shear #
lump $-1 $-1 $29 $5 #
transform $-1 1 0 0 0 1 0 0 0 1 57.612842188787496 39.104714437816924 9.6150075628272234 1 rotate no_reflect no_shear #
lump $-1 $-1 $30 $6 #
transform $-1 1 0 0 0 1 0 0 0 1 57.612842188787496 39.104714437816924 9.6150075628272234 1 rotate no_reflect no_shear #
lump $-1 $-1 $31 $7 #
transform $-1 1 0 0 0 1 0 0 0 1 57.612842188787496 39.104714437816924 9.6150075628272234 1 rotate no_reflect no_shear #
shell $-1 $-1 $-1 $32 $-1 $8 #
shell $-1 $-1 $-1 $33 $-1 $10 #
shell $-1 $-1 $-1 $34 $-1 $12 #
shell $-1 $-1 $-1 $35 $-1 $14 #
shell $-1 $-1 $-1 $36 $-1 $16 #
shell $-1 $-1 $-1 $37 $-1 $18 #
shell $-1 $-1 $-1 $38 $-1 $20 #
shell $-1 $-1 $-1 $39 $-1 $22 #
face $-1 $40 $41 $24 $-1 $42 forward single #
face $-1 $43 $44 $25 $-1 $45 forward single #
face $-1 $46 $47 $26 $-1 $48 reversed single #
face $-1 $49 $50 $27 $-1 $51 forward single #
face $-1 $52 $53 $28 $-1 $54 forward single #
face $-1 $55 $56 $29 $-1 $57 reversed single #
face $-1 $58 $59 $30 $-1 $60 forward single #
face $-1 $61 $62 $31 $-1 $63 forward single #
face $-1 $64 $65 $24 $-1 $66 reversed single #
loop $-1 $-1 $67 $32 #
plane-surface $-1 0 0 9.6150075628272234 0 0 1 1 0 0 forward_v I I I I #
face $-1 $68 $69 $25 $-1 $70 reversed single #
loop $-1 $-1 $71 $33 #
plane-surface $-1 0 -39.104714437816924 0 0 1 0 0 0 1 forward_v I I I I #
face $-1 $72 $73 $26 $-1 $74 reversed single #
loop $-1 $-1 $75 $34 #
plane-surface $-1 -27.251417657040207 93.145198611036236 133.55181229521972 1 0 0 0 -0.83867057594974714 -0.54463902268945019 forward_v I I I I #
face $-1 $76 $77 $27 $-1 $78 forward single #
loop $-1 $79 $80 $35 #
cone-surface $-1 -19.465298326457287 36.496025984973841 6.6453735601306008 0 -0.83867057594974714 -0.54463902268945019 1 0 0 1 I I 0 1 1 forward I I I I #
face $-1 $81 $82 $28 $-1 $83 forward single #
loop $-1 $84 $85 $36 #
cone-surface $-1 -7.7861193305829133 36.496025984973841 6.6453735601306008 0 -0.83867057594974714 -0.54463902268945019 1 0 0 1 I I 0 1 1 forward I I I I #
face $-1 $86 $87 $29 $-1 $88 reversed single #
loop $-1 $-1 $89 $37 #
plane-surface $-1 30.361424531747289 93.145198611036236 133.55181229521972 1 0 0 0 -0.83867057594974714 -0.54463902268945019 forward_v I I I I #
face $-1 $90 $91 $30 $-1 $92 forward single #
loop $-1 $93 $94 $38 #
cone-surface $-1 38.14754386233021 36.496025984973841 6.6453735601306008 0 -0.83867057594974714 -0.54463902268945019 1 0 0 1 I I 0 1 1 forward I I I I #
face $-1 $95 $96 $31 $-1 $97 forward single #
loop $-1 $98 $99 $39 #
cone-surface $-1 49.826722858204576 36.496025984973841 6.6453735601306008 0 -0.83867057594974714 -0.54463902268945019 1 0 0 1 I I 0 1 1 forward I I I I #
face $-1 $100 $101 $24 $-1 $102 reversed single #
loop $-1 $-1 $103 $40 #
plane-surface $-1 0 0 -9.6150075628272234 0 0 1 1 0 0 forward_v I I I I #
coedge $-1 $104 $105 $106 $107 forward $41 $-1 #
face $-1 $108 $109 $25 $-1 $110 reversed single #
loop $-1 $-1 $111 $43 #
plane-surface $-1 0 0 -9.6150075628272234 0 0 1 1 0 0 forward_v I I I I #
coedge $-1 $112 $113 $114 $115 forward $44 $-1 #
face $-1 $116 $117 $26 $-1 $118 reversed single #
loop $-1 $-1 $119 $46 #
plane-surface $-1 -13.625708828520104 -3.4911924701083592 70.795408167094223 0 0.83867057594974714 0.54463902268945019 1 0 0 forward_v I I I I #
coedge $-1 $120 $121 $122 $123 reversed $47 $-1 #
face $-1 $-1 $124 $27 $-1 $125 forward single #
loop $-1 $126 $127 $49 #
cone-surface $-1 -19.465298326457287 34.900447983648746 5.6091931238700639 0 -0.83867057594974714 -0.54463902268945019 0.5 0 0 1 I I -0.70710678118654746 0.70710678118654746 0.5 forward I I I I #
loop $-1 $-1 $128 $35 #
coedge $-1 $80 $80 $129 $130 reversed $50 $-1 #
face $-1 $-1 $131 $28 $-1 $132 forward single #
loop $-1 $133 $134 $52 #
cone-surface $-1 -7.7861193305829133 34.900447983648746 5.6091931238700639 0 -0.83867057594974714 -0.54463902268945019 0.5 0 0 1 I I -0.70710678118654746 0.70710678118654746 0.5 forward I I I I #
loop $-1 $-1 $135 $36 #
coedge $-1 $85 $85 $136 $137 reversed $53 $-1 #
face $-1 $138 $139 $29 $-1 $140 forward single #
loop $-1 $-1 $141 $55 #
plane-surface $-1 43.987133360267393 -3.4911924701083592 70.795408167094223 0 0.83867057594974714 0.54463902268945019 1 0 0 forward_v I I I I #
coedge $-1 $142 $143 $144 $145 reversed $56 $-1 #
face $-1 $-1 $146 $30 $-1 $147 forward single #
loop $-1 $148 $149 $58 #
cone-surface $-1 38.14754386233021 34.900447983648746 5.6091931238700639 0 -0.83867057594974714 -0.54463902268945019 0.5 0 0 1 I I -0.70710678118654746 0.70710678118654746 0.5 forward I I I I #
loop $-1 $-1 $150 $38 #
coedge $-1 $94 $94 $151 $152 reversed $59 $-1 #
face $-1 $-1 $153 $31 $-1 $154 forward single #
loop $-1 $155 $156 $61 #
cone-surface $-1 49.826722858204576 34.900447983648746 5.6091931238700639 0 -0.83867057594974714 -0.54463902268945019 0.5 0 0 1 I I -0.70710678118654746 0.70710678118654746 0.5 forward I I I I #
loop $-1 $-1 $157 $39 #
coedge $-1 $99 $99 $158 $159 reversed $62 $-1 #
face $-1 $160 $161 $24 $-1 $162 reversed single #
loop $-1 $-1 $163 $64 #
plane-surface $-1 0 -39.104714437816924 0 0 1 0 0 0 1 forward_v I I I I #
coedge $-1 $164 $165 $166 $167 forward $65 $-1 #
coedge $-1 $168 $67 $169 $170 forward $41 $-1 #
coedge $-1 $67 $168 $171 $172 forward $41 $-1 #
coedge $-1 $173 $174 $67 $107 reversed $175 $-1 #
edge $-1 $176 -39.104714437816924 $177 39.104714437816924 $106 $178 forward 7 unknown #
face $-1 $179 $180 $25 $-1 $181 reversed single #
loop $-1 $-1 $182 $68 #
plane-surface $-1 -50.527660434068437 -48.268482450793243 0 0 1 0 0 0 1 forward_v I I I I #
coedge $-1 $183 $184 $113 $185 forward $69 $-1 #
coedge $-1 $186 $71 $187 $188 reversed $44 $-1 #
coedge $-1 $71 $186 $111 $185 reversed $44 $-1 #
coedge $-1 $189 $190 $71 $115 reversed $180 $-1 #
edge $-1 $191 -9.6150075628272234 $192 9.6150075628272234 $114 $193 forward 7 unknown #
face $-1 $194 $195 $26 $-1 $196 forward single #
loop $-1 $-1 $197 $72 #
plane-surface $-1 -1.7763568394002505e-015 93.145198611036236 133.55181229521972 -1 0 0 0 0.83867057594974714 0.54463902268945019 forward_v I I I I #
coedge $-1 $198 $199 $200 $201 reversed $73 $-1 #
coedge $-1 $121 $75 $202 $203 reversed $47 $-1 #
coedge $-1 $75 $120 $198 $204 reversed $47 $-1 #
coedge $-1 $200 $205 $75 $123 forward $195 $-1 #
edge $-1 $206 7.4678848677011942 $207 10.332776346686927 $122 $208 forward 7 unknown #
loop $-1 $-1 $129 $76 #
plane-surface $-1 -13.625708828520104 -3.4911924701083592 70.795408167094223 0 0.83867057594974714 0.54463902268945019 1 0 0 forward_v I I I I #
loop $-1 $-1 $209 $49 #
coedge $-1 $127 $127 $128 $210 reversed $77 $-1 #
coedge $-1 $128 $128 $127 $210 forward $79 $-1 #
coedge $-1 $129 $129 $80 $130 forward $124 $-1 #
edge $-1 $211 -3.2704513828931425e-015 $211 6.2831853071795969 $129 $212 forward 7 unknown #
loop $-1 $-1 $136 $81 #
plane-surface $-1 -13.625708828520104 -3.4911924701083592 70.795408167094223 0 0.83867057594974714 0.54463902268945019 1 0 0 forward_v I I I I #
loop $-1 $-1 $213 $52 #
coedge $-1 $134 $134 $135 $214 reversed $82 $-1 #
coedge $-1 $135 $135 $134 $214 forward $84 $-1 #
coedge $-1 $136 $136 $85 $137 forward $131 $-1 #
edge $-1 $215 -3.2704513828931425e-015 $215 6.2831853071795969 $136 $216 forward 7 unknown #
face $-1 $217 $218 $29 $-1 $219 reversed single #
loop $-1 $-1 $144 $86 #
plane-surface $-1 0 0 9.6150075628272234 0 0 1 1 0 0 forward_v I I I I #
coedge $-1 $220 $221 $222 $223 reversed $87 $-1 #
coedge $-1 $143 $89 $224 $225 reversed $56 $-1 #
coedge $-1 $89 $142 $220 $226 reversed $56 $-1 #
coedge $-1 $222 $227 $89 $145 forward $139 $-1 #
edge $-1 $228 7.4678848677011942 $229 10.332776346686927 $144 $230 forward 7 unknown #
loop $-1 $-1 $151 $90 #
plane-surface $-1 43.987133360267393 -3.4911924701083592 70.795408167094223 0 0.83867057594974714 0.54463902268945019 1 0 0 forward_v I I I I #
loop $-1 $-1 $231 $58 #
coedge $-1 $149 $149 $150 $232 reversed $91 $-1 #
coedge $-1 $150 $150 $149 $232 forward $93 $-1 #
coedge $-1 $151 $151 $94 $152 forward $146 $-1 #
edge $-1 $233 -3.2704513828931425e-015 $233 6.2831853071795969 $151 $234 forward 7 unknown #
loop $-1 $-1 $158 $95 #
plane-surface $-1 43.987133360267393 -3.4911924701083592 70.795408167094223 0 0.83867057594974714 0.54463902268945019 1 0 0 forward_v I I I I #
loop $-1 $-1 $235 $61 #
coedge $-1 $156 $156 $157 $236 reversed $96 $-1 #
coedge $-1 $157 $157 $156 $236 forward $98 $-1 #
coedge $-1 $158 $158 $99 $159 forward $153 $-1 #
edge $-1 $237 -3.2704513828931425e-015 $237 6.2831853071795969 $158 $238 forward 7 unknown #
face $-1 $239 $240 $24 $-1 $241 reversed single #
loop $-1 $-1 $242 $100 #
plane-surface $-1 -57.612842188787496 0 0 1 0 0 0 0 -1 forward_v I I I I #
coedge $-1 $243 $171 $244 $245 forward $101 $-1 #
coedge $-1 $246 $103 $243 $247 forward $65 $-1 #
coedge $-1 $103 $246 $248 $249 forward $65 $-1 #
coedge $-1 $174 $173 $103 $167 reversed $175 $-1 #
edge $-1 $250 -39.104714437816924 $251 39.104714437816924 $166 $252 forward 7 unknown #
coedge $-1 $105 $104 $253 $254 forward $41 $-1 #
coedge $-1 $255 $256 $104 $170 reversed $240 $-1 #
edge $-1 $177 -57.612842188787496 $257 57.612842188787496 $169 $258 forward 7 unknown #
coedge $-1 $163 $259 $105 $172 reversed $101 $-1 #
edge $-1 $260 -57.612842188787496 $176 57.612842188787496 $171 $261 forward 7 unknown #
coedge $-1 $166 $106 $259 $262 forward $175 $-1 #
coedge $-1 $106 $166 $255 $263 reversed $175 $-1 #
loop $-1 $-1 $173 $239 #
vertex $-1 $107 $264 #
vertex $-1 $107 $265 #
straight-curve $-1 57.612842188787496 0 9.6150075628272234 0 1 0 I I #
face $-1 $266 $267 $25 $-1 $268 reversed single #
loop $-1 $-1 $114 $108 #
plane-surface $-1 -52.027660434068437 -43.686598444305083 0 1 0 0 0 0 -1 forward_v I I I I #
coedge $-1 $269 $270 $271 $272 forward $109 $-1 #
coedge $-1 $273 $111 $274 $275 forward $69 $-1 #
coedge $-1 $111 $273 $189 $276 forward $69 $-1 #
edge $-1 $191 -52.027660434068437 $277 -49.027660434068437 $111 $278 forward 7 unknown #
coedge $-1 $113 $112 $279 $280 forward $44 $-1 #
coedge $-1 $281 $282 $112 $188 forward $283 $-1 #
edge $-1 $284 49.027660434068437 $192 52.027660434068437 $187 $285 forward 7 unknown #
coedge $-1 $271 $114 $184 $276 reversed $180 $-1 #
coedge $-1 $114 $271 $281 $286 reversed $180 $-1 #
vertex $-1 $185 $287 #
vertex $-1 $286 $288 #
straight-curve $-1 -52.027660434068437 -39.104714437816924 0 0 0 1 I I #
face $-1 $-1 $289 $26 $-1 $290 reversed single #
loop $-1 $-1 $122 $116 #
plane-surface $-1 0 0 9.6150075628272234 0 0 1 1 0 0 forward_v I I I I #
coedge $-1 $291 $292 $293 $294 reversed $117 $-1 #
coedge $-1 $295 $119 $121 $204 forward $73 $-1 #
coedge $-1 $119 $295 $291 $296 forward $73 $-1 #
coedge $-1 $293 $122 $119 $201 forward $195 $-1 #
edge $-1 $207 -20.438563242780155 $297 6.81285441426005 $200 $298 forward 7 unknown #
coedge $-1 $299 $300 $120 $203 forward $289 $-1 #
edge $-1 $301 -61.572444740344267 $206 -57.160898584782636 $202 $302 forward 7 unknown #
edge $-1 $207 72.949263225293961 $301 78.209428875633861 $121 $303 forward 7 unknown #
coedge $-1 $122 $293 $299 $304 forward $195 $-1 #
vertex $-1 $203 $305 #
vertex $-1 $123 $306 #
straight-curve $-1 -27.251417657040207 46.572599305518118 9.6150075628272234 0 -1 0 I I #
coedge $-1 $209 $209 $-1 $307 reversed $126 $-1 #
edge $-1 $308 0 $308 6.2831853071796004 $127 $309 forward 7 unknown #
vertex $-1 $130 $310 #
ellipse-curve $-1 -19.465298326457287 37.672268698324068 7.4092344850464169 0 0.83867057594974714 0.54463902268945019 1 0 0 1 I I #
coedge $-1 $213 $213 $-1 $311 reversed $133 $-1 #
edge $-1 $312 0 $312 6.2831853071796004 $134 $313 forward 7 unknown #
vertex $-1 $137 $314 #
ellipse-curve $-1 -7.7861193305829133 37.672268698324068 7.4092344850464169 0 0.83867057594974714 0.54463902268945019 1 0 0 1 I I #
face $-1 $-1 $315 $29 $-1 $316 reversed single #
loop $-1 $-1 $317 $138 #
plane-surface $-1 57.612842188787496 0 0 -1 0 0 0 0 1 forward_v I I I I #
coedge $-1 $318 $141 $143 $226 forward $87 $-1 #
coedge $-1 $141 $318 $317 $319 reversed $87 $-1 #
coedge $-1 $320 $144 $141 $223 forward $139 $-1 #
edge $-1 $229 8.3678578516135929 $321 35.6192755086538 $222 $322 forward 7 unknown #
coedge $-1 $323 $324 $142 $225 forward $315 $-1 #
edge $-1 $325 -61.572444740344267 $228 -57.160898584782636 $224 $326 forward 7 unknown #
edge $-1 $229 72.949263225293961 $325 78.209428875633861 $143 $327 forward 7 unknown #
coedge $-1 $144 $320 $323 $328 forward $139 $-1 #
vertex $-1 $225 $329 #
vertex $-1 $145 $330 #
straight-curve $-1 30.361424531747289 46.572599305518118 9.6150075628272234 0 -1 0 I I #
coedge $-1 $231 $231 $-1 $331 reversed $148 $-1 #
edge $-1 $332 0 $332 6.2831853071796004 $149 $333 forward 7 unknown #
vertex $-1 $152 $334 #
ellipse-curve $-1 38.14754386233021 37.672268698324068 7.4092344850464169 0 0.83867057594974714 0.54463902268945019 1 0 0 1 I I #
coedge $-1 $235 $235 $-1 $335 reversed $155 $-1 #
edge $-1 $336 0 $336 6.2831853071796004 $156 $337 forward 7 unknown #
vertex $-1 $159 $338 #
ellipse-curve $-1 49.826722858204576 37.672268698324068 7.4092344850464169 0 0.83867057594974714 0.54463902268945019 1 0 0 1 I I #
face $-1 $-1 $175 $24 $-1 $339 reversed single #
loop $-1 $-1 $255 $160 #
plane-surface $-1 0 39.104714437816924 0 0 -1 0 0 0 -1 forward_v I I I I #
coedge $-1 $340 $253 $256 $341 forward $161 $-1 #
coedge $-1 $259 $163 $164 $247 reversed $101 $-1 #
coedge $-1 $253 $340 $163 $245 reversed $161 $-1 #
edge $-1 $260 -9.6150075628272234 $342 9.6150075628272234 $244 $343 forward 7 unknown #
coedge $-1 $165 $164 $340 $344 forward $65 $-1 #
edge $-1 $251 -57.612842188787496 $342 57.612842188787496 $243 $345 forward 7 unknown #
coedge $-1 $256 $255 $165 $249 reversed $240 $-1 #
edge $-1 $346 -57.612842188787496 $250 57.612842188787496 $248 $347 forward 7 unknown #
vertex $-1 $167 $348 #
vertex $-1 $262 $349 #
straight-curve $-1 57.612842188787496 0 -9.6150075628272234 0 -1 0 I I #
coedge $-1 $242 $244 $168 $254 reversed $161 $-1 #
edge $-1 $257 -39.104714437816924 $260 39.104714437816924 $253 $350 forward 7 unknown #
coedge $-1 $248 $169 $174 $263 forward $240 $-1 #
coedge $-1 $169 $248 $242 $341 reversed $240 $-1 #
vertex $-1 $170 $351 #
straight-curve $-1 0 39.104714437816924 9.6150075628272234 -1 0 0 I I #
coedge $-1 $171 $243 $173 $262 reversed $101 $-1 #
vertex $-1 $254 $352 #
straight-curve $-1 0 -39.104714437816924 9.6150075628272234 1 0 0 I I #
edge $-1 $176 -9.6150075628272234 $251 9.6150075628272234 $173 $353 forward 7 unknown #
edge $-1 $177 -9.6150075628272234 $250 9.6150075628272234 $174 $354 forward 7 unknown #
point $-1 57.612842188787496 -39.104714437816924 9.6150075628272234 #
point $-1 57.612842188787496 39.104714437816924 9.6150075628272234 #
face $-1 $-1 $283 $25 $-1 $355 forward single #
loop $-1 $-1 $356 $179 #
plane-surface $-1 -49.027660434068437 -43.686598444305083 0 -1 0 0 0 0 1 forward_v I I I I #
coedge $-1 $357 $182 $273 $358 reversed $109 $-1 #
coedge $-1 $182 $357 $359 $360 reversed $109 $-1 #
coedge $-1 $190 $189 $182 $272 reversed $180 $-1 #
edge $-1 $361 -9.6150075628272234 $362 9.6150075628272234 $271 $363 forward 7 unknown #
coedge $-1 $184 $183 $269 $358 forward $69 $-1 #
coedge $-1 $279 $356 $183 $275 reversed $267 $-1 #
edge $-1 $277 -4.5818840064881599 $364 4.5818840064881599 $274 $365 forward 7 unknown #
edge $-1 $362 -4.5818840064881599 $191 4.5818840064881599 $189 $366 forward 7 unknown #
vertex $-1 $275 $367 #
straight-curve $-1 0 -39.104714437816924 -9.6150075628272234 1 0 0 I I #
coedge $-1 $368 $274 $186 $280 reversed $267 $-1 #
edge $-1 $284 -9.6150075628272234 $277 9.6150075628272234 $279 $369 forward 7 unknown #
coedge $-1 $359 $187 $190 $286 forward $283 $-1 #
coedge $-1 $187 $359 $368 $370 forward $283 $-1 #
loop $-1 $-1 $187 $266 #
vertex $-1 $188 $371 #
straight-curve $-1 0 -39.104714437816924 9.6150075628272234 -1 0 0 I I #
edge $-1 $192 -4.5818840064881599 $361 4.5818840064881599 $190 $372 forward 7 unknown #
point $-1 -52.027660434068437 -39.104714437816924 -9.6150075628272234 #
point $-1 -52.027660434068437 -39.104714437816924 9.6150075628272234 #
loop $-1 $-1 $202 $194 #
plane-surface $-1 0 39.104714437816924 0 0 -1 0 0 0 -1 forward_v I I I I #
coedge $-1 $292 $197 $199 $296 reversed $117 $-1 #
coedge $-1 $197 $291 $373 $374 reversed $117 $-1 #
coedge $-1 $205 $200 $197 $294 forward $195 $-1 #
edge $-1 $297 -10.332776346686927 $375 -7.4678848677011942 $293 $376 forward 7 unknown #
coedge $-1 $199 $198 $300 $377 reversed $73 $-1 #
edge $-1 $378 -78.209428875633861 $297 -72.949263225293961 $291 $379 forward 7 unknown #
vertex $-1 $201 $380 #
straight-curve $-1 -6.8128544142600518 36.239822958831205 9.6150075628272234 1 0 0 I I #
coedge $-1 $373 $202 $205 $304 reversed $289 $-1 #
coedge $-1 $202 $373 $295 $377 forward $289 $-1 #
vertex $-1 $203 $381 #
straight-curve $-1 -27.251417657040207 39.104714437816924 66.775906147609859 0 0 1 I I #
straight-curve $-1 -27.251417657040207 -3.4911924701083592 70.795408167094223 0 0.54463902268945019 -0.83867057594974714 I I #
edge $-1 $375 1.7763568394002505e-015 $206 27.251417657040207 $299 $382 forward 7 unknown #
point $-1 -27.251417657040207 39.104714437816924 9.6150075628272234 #
point $-1 -27.251417657040207 36.239822958831191 9.6150075628272305 #
edge $-1 $383 1 $383 0 $209 $-1 forward 7 unknown #
vertex $-1 $210 $384 #
ellipse-curve $-1 -19.465298326457287 35.319783271623621 5.8815126352147891 0 0.83867057594974714 0.54463902268945019 1 0 0 1 I I #
point $-1 -18.465298326457287 37.672268698324054 7.4092344850464116 #
edge $-1 $385 1 $385 0 $213 $-1 forward 7 unknown #
vertex $-1 $214 $386 #
ellipse-curve $-1 -7.7861193305829133 35.319783271623621 5.8815126352147891 0 0.83867057594974714 0.54463902268945019 1 0 0 1 I I #
point $-1 -6.7861193305829133 37.672268698324054 7.4092344850464116 #
loop $-1 $-1 $224 $217 #
plane-surface $-1 0 39.104714437816924 0 0 -1 0 0 0 -1 forward_v I I I I #
coedge $-1 $387 $388 $221 $319 forward $218 $-1 #
coedge $-1 $221 $220 $324 $389 reversed $87 $-1 #
edge $-1 $321 42.311530526776494 $390 47.571696177116387 $317 $391 forward 7 unknown #
coedge $-1 $227 $222 $388 $392 forward $139 $-1 #
vertex $-1 $392 $393 #
straight-curve $-1 21.993566680133696 36.239822958831205 9.6150075628272234 1 0 0 I I #
coedge $-1 $394 $224 $227 $328 reversed $315 $-1 #
coedge $-1 $224 $394 $318 $389 forward $315 $-1 #
vertex $-1 $225 $395 #
straight-curve $-1 30.361424531747289 39.104714437816924 66.775906147609859 0 0 1 I I #
straight-curve $-1 30.361424531747289 -3.4911924701083592 70.795408167094223 0 0.54463902268945019 -0.83867057594974714 I I #
edge $-1 $396 -57.612842188787496 $228 -30.361424531747289 $323 $397 forward 7 unknown #
point $-1 30.361424531747289 39.104714437816924 9.6150075628272234 #
point $-1 30.361424531747289 36.239822958831191 9.6150075628272305 #
edge $-1 $398 1 $398 0 $231 $-1 forward 7 unknown #
vertex $-1 $232 $399 #
ellipse-curve $-1 38.14754386233021 35.319783271623621 5.8815126352147891 0 0.83867057594974714 0.54463902268945019 1 0 0 1 I I #
point $-1 39.14754386233021 37.672268698324054 7.4092344850464116 #
edge $-1 $400 1 $400 0 $235 $-1 forward 7 unknown #
vertex $-1 $236 $401 #
ellipse-curve $-1 49.826722858204576 35.319783271623621 5.8815126352147891 0 0.83867057594974714 0.54463902268945019 1 0 0 1 I I #
point $-1 50.826722858204576 37.672268698324054 7.4092344850464116 #
plane-surface $-1 57.612842188787496 0 0 -1 0 0 0 0 1 forward_v I I I I #
coedge $-1 $244 $242 $246 $344 reversed $161 $-1 #
edge $-1 $257 -9.6150075628272234 $346 9.6150075628272234 $256 $402 forward 7 unknown #
vertex $-1 $344 $403 #
straight-curve $-1 -57.612842188787496 -39.104714437816924 0 0 0 -1 I I #
edge $-1 $342 -39.104714437816924 $346 39.104714437816924 $340 $404 forward 7 unknown #
straight-curve $-1 0 -39.104714437816924 -9.6150075628272234 -1 0 0 I I #
vertex $-1 $249 $405 #
straight-curve $-1 0 39.104714437816924 -9.6150075628272234 1 0 0 I I #
point $-1 57.612842188787496 39.104714437816924 -9.6150075628272234 #
point $-1 57.612842188787496 -39.104714437816924 -9.6150075628272234 #
straight-curve $-1 -57.612842188787496 0 9.6150075628272234 0 -1 0 I I #
point $-1 -57.612842188787496 39.104714437816924 9.6150075628272234 #
point $-1 -57.612842188787496 -39.104714437816924 9.6150075628272234 #
straight-curve $-1 57.612842188787496 -39.104714437816924 0 0 0 -1 I I #
straight-curve $-1 57.612842188787496 39.104714437816924 0 0 0 -1 I I #
plane-surface $-1 0 0 9.6150075628272234 0 0 1 1 0 0 forward_v I I I I #
coedge $-1 $274 $368 $357 $406 forward $267 $-1 #
coedge $-1 $270 $269 $356 $406 reversed $109 $-1 #
edge $-1 $364 -1.5 $362 1.5 $269 $407 forward 7 unknown #
coedge $-1 $282 $281 $270 $360 forward $283 $-1 #
edge $-1 $361 -1.5 $408 1.5 $270 $409 forward 7 unknown #
vertex $-1 $286 $410 #
vertex $-1 $276 $411 #
straight-curve $-1 -52.027660434068437 -48.268482450793243 0 0 0 -1 I I #
vertex $-1 $406 $412 #
straight-curve $-1 -49.027660434068437 -43.686598444305083 -9.6150075628272234 0 -1 0 I I #
straight-curve $-1 -52.027660434068437 -43.686598444305083 -9.6150075628272234 0 1 0 I I #
point $-1 -49.027660434068437 -39.104714437816924 -9.6150075628272234 #
coedge $-1 $356 $279 $282 $370 reversed $267 $-1 #
straight-curve $-1 -49.027660434068437 -39.104714437816924 0 0 0 -1 I I #
edge $-1 $408 -4.5818840064881599 $284 4.5818840064881599 $368 $413 forward 7 unknown #
point $-1 -49.027660434068437 -39.104714437816924 9.6150075628272234 #
straight-curve $-1 -52.027660434068437 -43.686598444305083 9.6150075628272234 0 -1 0 I I #
coedge $-1 $300 $299 $292 $374 forward $289 $-1 #
edge $-1 $375 57.160898584782636 $378 61.572444740344267 $373 $414 forward 7 unknown #
vertex $-1 $304 $415 #
straight-curve $-1 -1.7763568394002505e-015 46.572599305518118 9.6150075628272234 0 1 0 I I #
edge $-1 $378 -6.81285441426005 $301 20.438563242780155 $300 $416 forward 7 unknown #
vertex $-1 $377 $417 #
straight-curve $-1 -1.7763568394002505e-015 -3.4911924701083592 70.795408167094223 0 -0.54463902268945019 0.83867057594974714 I I #
point $-1 -1.7763568394002505e-015 36.239822958831191 9.6150075628272305 #
point $-1 -27.251417657040207 39.104714437816924 5.2034614072655927 #
straight-curve $-1 0 39.104714437816924 9.6150075628272234 -1 0 0 I I #
vertex $-1 $307 $418 #
point $-1 -18.465298326457287 35.319783271623621 5.8815126352147891 #
vertex $-1 $311 $419 #
point $-1 -6.7861193305829133 35.319783271623621 5.8815126352147891 #
coedge $-1 $388 $317 $394 $420 reversed $218 $-1 #
coedge $-1 $317 $387 $320 $392 reversed $218 $-1 #
edge $-1 $390 -35.6192755086538 $325 -8.3678578516135929 $324 $421 forward 7 unknown #
vertex $-1 $319 $422 #
straight-curve $-1 57.612842188787496 13.195312324232805 45.100443239034178 0 0.54463902268945019 -0.83867057594974714 I I #
edge $-1 $321 36.239822958831191 $396 39.104714437816924 $388 $423 forward 7 unknown #
point $-1 57.612842188787496 36.239822958831191 9.6150075628272305 #
coedge $-1 $324 $323 $387 $420 forward $315 $-1 #
point $-1 30.361424531747289 39.104714437816924 5.2034614072655927 #
vertex $-1 $392 $424 #
straight-curve $-1 0 39.104714437816924 9.6150075628272234 -1 0 0 I I #
vertex $-1 $331 $425 #
point $-1 39.14754386233021 35.319783271623621 5.8815126352147891 #
vertex $-1 $335 $426 #
point $-1 50.826722858204576 35.319783271623621 5.8815126352147891 #
straight-curve $-1 -57.612842188787496 39.104714437816924 0 0 0 -1 I I #
point $-1 -57.612842188787496 -39.104714437816924 -9.6150075628272234 #
straight-curve $-1 -57.612842188787496 0 -9.6150075628272234 0 1 0 I I #
point $-1 -57.612842188787496 39.104714437816924 -9.6150075628272234 #
edge $-1 $408 -9.6150075628272234 $364 9.6150075628272234 $356 $427 forward 7 unknown #
straight-curve $-1 -50.527660434068437 -48.268482450793243 -9.6150075628272234 -1 0 0 I I #
vertex $-1 $370 $428 #
straight-curve $-1 -50.527660434068437 -48.268482450793243 9.6150075628272234 1 0 0 I I #
point $-1 -52.027660434068437 -48.268482450793243 9.6150075628272234 #
point $-1 -52.027660434068437 -48.268482450793243 -9.6150075628272234 #
point $-1 -49.027660434068437 -48.268482450793243 -9.6150075628272234 #
straight-curve $-1 -49.027660434068437 -43.686598444305083 9.6150075628272234 0 1 0 I I #
straight-curve $-1 -1.7763568394002505e-015 39.104714437816924 66.775906147609859 0 0 -1 I I #
point $-1 -1.7763568394002505e-015 39.104714437816924 9.6150075628272234 #
straight-curve $-1 -6.8128544142600518 39.104714437816924 5.2034614072655963 -1 0 0 I I #
point $-1 -1.7763568394002505e-015 39.104714437816924 5.2034614072655927 #
point $-1 -19.465298326457287 34.481112695673872 5.3368736125253387 #
point $-1 -7.7861193305829133 34.481112695673872 5.3368736125253387 #
edge $-1 $396 -9.6150075628272234 $390 -5.2034614072655927 $387 $429 forward 7 unknown #
straight-curve $-1 21.993566680133696 39.104714437816924 5.2034614072655963 -1 0 0 I I #
point $-1 57.612842188787496 39.104714437816924 5.2034614072655927 #
straight-curve $-1 57.612842188787496 0 9.6150075628272234 0 1 0 I I #
point $-1 57.612842188787496 39.104714437816924 9.6150075628272234 #
point $-1 38.14754386233021 34.481112695673872 5.3368736125253387 #
point $-1 49.826722858204576 34.481112695673872 5.3368736125253387 #
straight-curve $-1 -49.027660434068437 -48.268482450793243 0 0 0 -1 I I #
point $-1 -49.027660434068437 -48.268482450793243 9.6150075628272234 #
straight-curve $-1 57.612842188787496 39.104714437816924 0 0 0 -1 I I #
End-of-ACIS-data 