500 0 11 0           
7 Unknown 11 ACIS 5.0 NT 24 Fri Mar 26 18:06:54 1999 
-1 9.9999999999999995e-007 1e-010 
body $-1 $11 $-1 $12 #
body $-1 $13 $-1 $14 #
body $-1 $15 $-1 $16 #
body $-1 $17 $-1 $18 #
body $-1 $19 $-1 $20 #
body $-1 $21 $-1 $22 #
body $-1 $23 $-1 $24 #
body $-1 $25 $-1 $26 #
body $-1 $27 $-1 $28 #
body $-1 $29 $-1 $30 #
body $-1 $31 $-1 $32 #
lump $-1 $-1 $33 $0 #
transform $-1 1 0 0 0 1 0 0 0 1 58.757896664326914 34.359750168609708 15.088845151408201 1 rotate no_reflect no_shear #
lump $-1 $-1 $34 $1 #
transform $-1 1 0 0 0 1 0 0 0 1 58.757896664326914 34.359750168609708 15.088845151408201 1 rotate no_reflect no_shear #
lump $-1 $-1 $35 $2 #
transform $-1 1 0 0 0 1 0 0 0 1 58.757896664326914 34.359750168609708 15.088845151408201 1 rotate no_reflect no_shear #
lump $-1 $-1 $36 $3 #
transform $-1 1 0 0 0 1 0 0 0 1 58.757896664326914 34.359750168609708 15.088845151408201 1 rotate no_reflect no_shear #
lump $-1 $-1 $37 $4 #
transform $-1 1 0 0 0 1 0 0 0 1 58.757896664326914 34.359750168609708 15.088845151408201 1 rotate no_reflect no_shear #
lump $-1 $-1 $38 $5 #
transform $-1 1 0 0 0 1 0 0 0 1 58.757896664326914 34.359750168609708 15.088845151408201 1 rotate no_reflect no_shear #
lump $-1 $-1 $39 $6 #
transform $-1 1 0 0 0 1 0 0 0 1 58.757896664326914 34.359750168609708 15.088845151408201 1 rotate no_reflect no_shear #
lump $-1 $-1 $40 $7 #
transform $-1 1 0 0 0 1 0 0 0 1 58.757896664326914 34.359750168609708 15.088845151408201 1 rotate no_reflect no_shear #
lump $-1 $-1 $41 $8 #
transform $-1 1 0 0 0 1 0 0 0 1 58.757896664326914 34.359750168609708 15.088845151408201 1 rotate no_reflect no_shear #
lump $-1 $-1 $42 $9 #
transform $-1 1 0 0 0 1 0 0 0 1 58.757896664326914 34.359750168609708 15.088845151408201 1 rotate no_reflect no_shear #
lump $-1 $-1 $43 $10 #
transform $-1 1 0 0 0 1 0 0 0 1 58.757896664326914 34.359750168609708 15.088845151408201 1 rotate no_reflect no_shear #
shell $-1 $-1 $-1 $44 $-1 $11 #
shell $-1 $-1 $-1 $45 $-1 $13 #
shell $-1 $-1 $-1 $46 $-1 $15 #
shell $-1 $-1 $-1 $47 $-1 $17 #
shell $-1 $-1 $-1 $48 $-1 $19 #
shell $-1 $-1 $-1 $49 $-1 $21 #
shell $-1 $-1 $-1 $50 $-1 $23 #
shell $-1 $-1 $-1 $51 $-1 $25 #
shell $-1 $-1 $-1 $52 $-1 $27 #
shell $-1 $-1 $-1 $53 $-1 $29 #
shell $-1 $-1 $-1 $54 $-1 $31 #
face $-1 $55 $56 $33 $-1 $57 forward single #
face $-1 $58 $59 $34 $-1 $60 forward single #
face $-1 $61 $62 $35 $-1 $63 reversed single #
face $-1 $64 $65 $36 $-1 $66 forward single #
face $-1 $67 $68 $37 $-1 $69 forward single #
face $-1 $70 $71 $38 $-1 $72 reversed single #
face $-1 $73 $74 $39 $-1 $75 forward single #
face $-1 $76 $77 $40 $-1 $78 forward single #
face $-1 $79 $80 $41 $-1 $81 reversed single #
face $-1 $82 $83 $42 $-1 $84 forward single #
face $-1 $85 $86 $43 $-1 $87 forward single #
face $-1 $88 $89 $33 $-1 $90 reversed single #
loop $-1 $-1 $91 $44 #
plane-surface $-1 0 0 15.088845151408201 0 0 1 1 0 0 forward_v I I I I #
face $-1 $92 $93 $34 $-1 $94 reversed single #
loop $-1 $-1 $95 $45 #
plane-surface $-1 0 -34.359750168609708 0 0 1 0 0 0 1 forward_v I I I I #
face $-1 $96 $97 $35 $-1 $98 reversed single #
loop $-1 $-1 $99 $46 #
plane-surface $-1 29.898885752302981 -0.69477470433532318 172.07116062147989 0 -1 0 -0.57357644374324357 0 -0.81915203911291934 forward_v I I I I #
face $-1 $100 $101 $36 $-1 $102 forward single #
loop $-1 $103 $104 $47 #
cone-surface $-1 53.468180712079096 -7.6966573711640898 11.00937726269327 -0.57357644374324357 0 -0.81915203911291934 0.81915203911291934 0 -0.57357644374324357 1 I I 0 1 1 forward I I I I #
face $-1 $105 $106 $37 $-1 $107 forward single #
loop $-1 $108 $109 $48 #
cone-surface $-1 53.468180712079096 -3.4955277710668327 11.00937726269327 -0.57357644374324357 0 -0.81915203911291934 0.81915203911291934 0 -0.57357644374324357 1 I I 0 1 1 forward I I I I #
face $-1 $110 $111 $38 $-1 $112 reversed single #
loop $-1 $-1 $113 $49 #
plane-surface $-1 -138.90347594878122 -19.319827375332725 98.032241111256127 0 1 0 -0.68199836817093118 0 0.7313536940579346 forward_v I I I I #
face $-1 $114 $115 $39 $-1 $116 forward single #
loop $-1 $117 $118 $50 #
cone-surface $-1 -56.520185202394295 -17.310129135671652 12.914321341559884 0.68199836817093118 0 -0.7313536940579346 0.3656768470289673 0 0.34099918408546559 1 I I 0 1 0.5 forward I I I I #
face $-1 $119 $120 $40 $-1 $121 forward single #
loop $-1 $122 $123 $51 #
cone-surface $-1 -56.520185202394295 -14.295581776180043 12.914321341559884 0.68199836817093118 0 -0.7313536940579346 0.3656768470289673 0 0.34099918408546559 1 I I 0 1 0.5 forward I I I I #
face $-1 $124 $125 $41 $-1 $126 reversed single #
loop $-1 $-1 $127 $52 #
plane-surface $-1 -138.90347594878122 27.325806329795945 98.032241111256127 0 1 0 -0.68199836817093118 0 0.7313536940579346 forward_v I I I I #
face $-1 $128 $129 $42 $-1 $130 forward single #
loop $-1 $131 $132 $53 #
cone-surface $-1 -56.520185202394295 29.335504569457022 12.914321341559884 0.68199836817093118 0 -0.7313536940579346 0.3656768470289673 0 0.34099918408546559 1 I I 0 1 0.5 forward I I I I #
face $-1 $133 $134 $43 $-1 $135 forward single #
loop $-1 $136 $137 $54 #
cone-surface $-1 -56.520185202394295 32.350051928948631 12.914321341559884 0.68199836817093118 0 -0.7313536940579346 0.3656768470289673 0 0.34099918408546559 1 I I 0 1 0.5 forward I I I I #
face $-1 $138 $139 $33 $-1 $140 reversed single #
loop $-1 $-1 $141 $55 #
plane-surface $-1 0 0 -15.088845151408201 0 0 1 1 0 0 forward_v I I I I #
coedge $-1 $142 $143 $144 $145 forward $56 $-1 #
face $-1 $146 $147 $34 $-1 $148 reversed single #
loop $-1 $-1 $149 $58 #
plane-surface $-1 0 0 -15.088845151408201 0 0 1 1 0 0 forward_v I I I I #
coedge $-1 $150 $151 $152 $153 forward $59 $-1 #
face $-1 $154 $155 $35 $-1 $156 reversed single #
loop $-1 $-1 $157 $61 #
plane-surface $-1 -37.505405068812273 -5.5960925711154594 75.807858888340704 0.57357644374324357 0 0.81915203911291934 0.81915203911291934 0 -0.57357644374324357 forward_v I I I I #
coedge $-1 $158 $159 $160 $161 reversed $62 $-1 #
face $-1 $-1 $162 $36 $-1 $163 forward single #
loop $-1 $164 $165 $64 #
cone-surface $-1 52.665459017418137 -7.6966573711640898 9.8629718965132511 -0.57357644374324357 0 -0.81915203911291934 0.40957601955645967 0 -0.28678822187162178 1 I I -0.70710678118654746 0.70710678118654746 0.5 forward I I I I #
loop $-1 $-1 $166 $47 #
coedge $-1 $104 $104 $167 $168 reversed $65 $-1 #
face $-1 $-1 $169 $37 $-1 $170 forward single #
loop $-1 $171 $172 $67 #
cone-surface $-1 52.665459017418137 -3.4955277710668327 9.8629718965132511 -0.57357644374324357 0 -0.81915203911291934 0.40957601955645967 0 -0.28678822187162178 1 I I -0.70710678118654746 0.70710678118654746 0.5 forward I I I I #
loop $-1 $-1 $173 $48 #
coedge $-1 $109 $109 $174 $175 reversed $68 $-1 #
face $-1 $176 $177 $38 $-1 $178 reversed single #
loop $-1 $-1 $179 $70 #
plane-surface $-1 -58.757896664326921 -15.802855455925847 12.086631550196373 -0.68199836817093118 0 0.7313536940579346 0.7313536940579346 0 0.68199836817093118 forward_v I I I I #
coedge $-1 $180 $181 $182 $183 reversed $71 $-1 #
face $-1 $-1 $184 $39 $-1 $185 forward single #
loop $-1 $186 $187 $73 #
cone-surface $-1 -55.72171407601283 -17.310129135671652 12.058065908803009 0.68199836817093118 0 -0.7313536940579346 0.18283842351448365 0 0.17049959204273279 1 I I -0.70710678118654746 0.70710678118654746 0.25 forward I I I I #
loop $-1 $-1 $188 $50 #
coedge $-1 $118 $118 $189 $190 reversed $74 $-1 #
face $-1 $-1 $191 $40 $-1 $192 forward single #
loop $-1 $193 $194 $76 #
cone-surface $-1 -55.72171407601283 -14.295581776180043 12.058065908803009 0.68199836817093118 0 -0.7313536940579346 0.18283842351448365 0 0.17049959204273279 1 I I -0.70710678118654746 0.70710678118654746 0.25 forward I I I I #
loop $-1 $-1 $195 $51 #
coedge $-1 $123 $123 $196 $197 reversed $77 $-1 #
face $-1 $198 $199 $41 $-1 $200 forward single #
loop $-1 $-1 $201 $79 #
plane-surface $-1 -58.757896664326921 30.842778249202823 12.086631550196373 -0.68199836817093118 0 0.7313536940579346 0.7313536940579346 0 0.68199836817093118 forward_v I I I I #
coedge $-1 $202 $203 $204 $205 reversed $80 $-1 #
face $-1 $-1 $206 $42 $-1 $207 forward single #
loop $-1 $208 $209 $82 #
cone-surface $-1 -55.72171407601283 29.335504569457022 12.058065908803009 0.68199836817093118 0 -0.7313536940579346 0.18283842351448365 0 0.17049959204273279 1 I I -0.70710678118654746 0.70710678118654746 0.25 forward I I I I #
loop $-1 $-1 $210 $53 #
coedge $-1 $132 $132 $211 $212 reversed $83 $-1 #
face $-1 $-1 $213 $43 $-1 $214 forward single #
loop $-1 $215 $216 $85 #
cone-surface $-1 -55.72171407601283 32.350051928948631 12.058065908803009 0.68199836817093118 0 -0.7313536940579346 0.18283842351448365 0 0.17049959204273279 1 I I -0.70710678118654746 0.70710678118654746 0.25 forward I I I I #
loop $-1 $-1 $217 $54 #
coedge $-1 $137 $137 $218 $219 reversed $86 $-1 #
face $-1 $220 $221 $33 $-1 $222 reversed single #
loop $-1 $-1 $223 $88 #
plane-surface $-1 0 -34.359750168609708 0 0 1 0 0 0 1 forward_v I I I I #
coedge $-1 $224 $225 $226 $227 forward $89 $-1 #
coedge $-1 $228 $91 $229 $230 forward $56 $-1 #
coedge $-1 $91 $228 $231 $232 forward $56 $-1 #
coedge $-1 $233 $234 $91 $145 reversed $235 $-1 #
edge $-1 $236 -34.359750168609708 $237 34.359750168609708 $144 $238 forward 7 unknown #
face $-1 $239 $240 $34 $-1 $241 forward single #
loop $-1 $-1 $242 $92 #
plane-surface $-1 58.757896664326914 0 0 -1 0 0 0 0 1 forward_v I I I I #
coedge $-1 $243 $244 $245 $246 forward $93 $-1 #
coedge $-1 $245 $95 $242 $247 reversed $59 $-1 #
coedge $-1 $95 $245 $248 $249 reversed $59 $-1 #
coedge $-1 $250 $251 $95 $153 reversed $240 $-1 #
edge $-1 $252 -58.757896664326914 $253 58.757896664326914 $152 $254 forward 7 unknown #
face $-1 $255 $256 $35 $-1 $257 reversed single #
loop $-1 $-1 $258 $96 #
plane-surface $-1 29.898885752302981 -10.497410437895596 172.07116062147989 0 1 0 0.57357644374324357 0 0.81915203911291934 forward_v I I I I #
coedge $-1 $259 $260 $261 $262 reversed $97 $-1 #
coedge $-1 $159 $99 $263 $264 reversed $62 $-1 #
coedge $-1 $99 $158 $259 $265 reversed $62 $-1 #
coedge $-1 $261 $266 $99 $161 forward $267 $-1 #
edge $-1 $268 -43.808453788175427 $269 -34.260888829258519 $160 $270 forward 7 unknown #
loop $-1 $-1 $167 $100 #
plane-surface $-1 -37.505405068812273 -5.5960925711154594 75.807858888340704 0.57357644374324357 0 0.81915203911291934 0.81915203911291934 0 -0.57357644374324357 forward_v I I I I #
loop $-1 $-1 $271 $64 #
coedge $-1 $165 $165 $166 $272 reversed $101 $-1 #
coedge $-1 $166 $166 $165 $272 forward $103 $-1 #
coedge $-1 $167 $167 $104 $168 forward $162 $-1 #
edge $-1 $273 0 $273 6.2831853071796004 $167 $274 forward 7 unknown #
loop $-1 $-1 $174 $105 #
plane-surface $-1 -37.505405068812273 -5.5960925711154594 75.807858888340704 0.57357644374324357 0 0.81915203911291934 0.81915203911291934 0 -0.57357644374324357 forward_v I I I I #
loop $-1 $-1 $275 $67 #
coedge $-1 $172 $172 $173 $276 reversed $106 $-1 #
coedge $-1 $173 $173 $172 $276 forward $108 $-1 #
coedge $-1 $174 $174 $109 $175 forward $169 $-1 #
edge $-1 $277 0 $277 6.2831853071796004 $174 $278 forward 7 unknown #
face $-1 $279 $280 $38 $-1 $281 forward single #
loop $-1 $-1 $282 $110 #
plane-surface $-1 -138.90347594878122 -12.28588353651897 98.032241111256127 0 -1 0 0.68199836817093118 0 -0.7313536940579346 forward_v I I I I #
coedge $-1 $283 $284 $285 $286 reversed $111 $-1 #
coedge $-1 $181 $113 $287 $288 reversed $71 $-1 #
coedge $-1 $113 $180 $283 $289 reversed $71 $-1 #
coedge $-1 $285 $290 $113 $183 forward $280 $-1 #
edge $-1 $291 10.693841310063696 $292 13.91332116525146 $182 $293 forward 7 unknown #
loop $-1 $-1 $189 $114 #
plane-surface $-1 -58.757896664326921 -15.802855455925847 12.086631550196373 -0.68199836817093118 0 0.7313536940579346 0.7313536940579346 0 0.68199836817093118 forward_v I I I I #
loop $-1 $-1 $294 $73 #
coedge $-1 $187 $187 $188 $295 reversed $115 $-1 #
coedge $-1 $188 $188 $187 $295 forward $117 $-1 #
coedge $-1 $189 $189 $118 $190 forward $184 $-1 #
edge $-1 $296 0 $296 6.2831853071796004 $189 $297 forward 7 unknown #
loop $-1 $-1 $196 $119 #
plane-surface $-1 -58.757896664326921 -15.802855455925847 12.086631550196373 -0.68199836817093118 0 0.7313536940579346 0.7313536940579346 0 0.68199836817093118 forward_v I I I I #
loop $-1 $-1 $298 $76 #
coedge $-1 $194 $194 $195 $299 reversed $120 $-1 #
coedge $-1 $195 $195 $194 $299 forward $122 $-1 #
coedge $-1 $196 $196 $123 $197 forward $191 $-1 #
edge $-1 $300 0 $300 6.2831853071796004 $196 $301 forward 7 unknown #
face $-1 $302 $303 $41 $-1 $304 reversed single #
loop $-1 $-1 $204 $124 #
plane-surface $-1 0 0 15.088845151408201 0 0 1 1 0 0 forward_v I I I I #
coedge $-1 $305 $306 $307 $308 reversed $125 $-1 #
coedge $-1 $203 $127 $309 $310 reversed $80 $-1 #
coedge $-1 $127 $202 $305 $311 reversed $80 $-1 #
coedge $-1 $307 $312 $127 $205 forward $199 $-1 #
edge $-1 $313 10.693841310063696 $314 13.91332116525146 $204 $315 forward 7 unknown #
loop $-1 $-1 $211 $128 #
plane-surface $-1 -58.757896664326921 30.842778249202823 12.086631550196373 -0.68199836817093118 0 0.7313536940579346 0.7313536940579346 0 0.68199836817093118 forward_v I I I I #
loop $-1 $-1 $316 $82 #
coedge $-1 $209 $209 $210 $317 reversed $129 $-1 #
coedge $-1 $210 $210 $209 $317 forward $131 $-1 #
coedge $-1 $211 $211 $132 $212 forward $206 $-1 #
edge $-1 $318 0 $318 6.2831853071796004 $211 $319 forward 7 unknown #
loop $-1 $-1 $218 $133 #
plane-surface $-1 -58.757896664326921 30.842778249202823 12.086631550196373 -0.68199836817093118 0 0.7313536940579346 0.7313536940579346 0 0.68199836817093118 forward_v I I I I #
loop $-1 $-1 $320 $85 #
coedge $-1 $216 $216 $217 $321 reversed $134 $-1 #
coedge $-1 $217 $217 $216 $321 forward $136 $-1 #
coedge $-1 $218 $218 $137 $219 forward $213 $-1 #
edge $-1 $322 0 $322 6.2831853071796004 $218 $323 forward 7 unknown #
face $-1 $324 $325 $33 $-1 $326 reversed single #
loop $-1 $-1 $327 $138 #
plane-surface $-1 -58.757896664326914 0 0 1 0 0 0 0 -1 forward_v I I I I #
coedge $-1 $231 $328 $233 $329 reversed $139 $-1 #
coedge $-1 $330 $141 $328 $331 forward $89 $-1 #
coedge $-1 $141 $330 $332 $333 forward $89 $-1 #
coedge $-1 $234 $233 $141 $227 reversed $235 $-1 #
edge $-1 $334 -34.359750168609708 $335 34.359750168609708 $226 $336 forward 7 unknown #
coedge $-1 $143 $142 $337 $338 forward $56 $-1 #
coedge $-1 $339 $340 $142 $230 reversed $325 $-1 #
edge $-1 $237 -58.757896664326914 $341 58.757896664326914 $229 $342 forward 7 unknown #
coedge $-1 $343 $223 $143 $232 reversed $139 $-1 #
edge $-1 $344 -58.757896664326914 $236 58.757896664326914 $231 $345 forward 7 unknown #
coedge $-1 $226 $144 $223 $329 forward $235 $-1 #
coedge $-1 $144 $226 $339 $346 reversed $235 $-1 #
loop $-1 $-1 $233 $324 #
vertex $-1 $145 $347 #
vertex $-1 $145 $348 #
straight-curve $-1 58.757896664326914 0 15.088845151408201 0 1 0 I I #
face $-1 $349 $350 $34 $-1 $351 reversed single #
loop $-1 $-1 $251 $146 #
plane-surface $-1 0 -41.879711565248201 -11.142177581760105 0 0 1 1 0 0 forward_v I I I I #
coedge $-1 $352 $353 $150 $247 forward $147 $-1 #
coedge $-1 $354 $149 $353 $355 forward $93 $-1 #
coedge $-1 $149 $354 $356 $357 forward $93 $-1 #
coedge $-1 $151 $150 $149 $246 reversed $59 $-1 #
edge $-1 $358 -58.757896664326914 $359 58.757896664326914 $149 $360 forward 7 unknown #
edge $-1 $359 -15.088845151408201 $253 -11.142177581760105 $242 $361 forward 7 unknown #
coedge $-1 $356 $362 $151 $249 forward $363 $-1 #
edge $-1 $252 11.142177581760105 $358 15.088845151408201 $248 $364 forward 7 unknown #
coedge $-1 $365 $152 $362 $366 forward $240 $-1 #
coedge $-1 $152 $365 $352 $367 forward $240 $-1 #
vertex $-1 $249 $368 #
vertex $-1 $367 $369 #
straight-curve $-1 0 -34.359750168609708 -11.142177581760105 1 0 0 I I #
face $-1 $-1 $267 $35 $-1 $370 forward single #
loop $-1 $-1 $371 $154 #
plane-surface $-1 58.757896664326914 0 0 -1 0 0 0 0 1 forward_v I I I I #
coedge $-1 $372 $373 $374 $375 reversed $155 $-1 #
coedge $-1 $376 $157 $159 $265 forward $97 $-1 #
coedge $-1 $157 $376 $372 $377 forward $97 $-1 #
coedge $-1 $374 $160 $157 $262 forward $267 $-1 #
edge $-1 $269 -2.1032715812224065 $378 7.699364152337866 $261 $379 forward 7 unknown #
coedge $-1 $380 $381 $158 $264 forward $256 $-1 #
edge $-1 $382 -77.632012243514495 $268 -70.946735159331752 $263 $383 forward 7 unknown #
edge $-1 $269 105.86036856861024 $382 117.51579332865381 $159 $384 forward 7 unknown #
coedge $-1 $160 $374 $380 $385 forward $267 $-1 #
loop $-1 $-1 $374 $255 #
vertex $-1 $264 $386 #
vertex $-1 $161 $387 #
straight-curve $-1 14.94944287615149 -0.69477470433532318 15.088845151408208 -1 0 0 I I #
coedge $-1 $271 $271 $-1 $388 reversed $164 $-1 #
edge $-1 $389 0 $389 6.2831853071796004 $165 $390 forward 7 unknown #
vertex $-1 $168 $391 #
ellipse-curve $-1 53.984114184868446 -7.6966573711640898 11.746206609316838 0.57357644374324357 0 0.81915203911291934 0.81915203911291934 0 -0.57357644374324357 1 I I #
coedge $-1 $275 $275 $-1 $392 reversed $171 $-1 #
edge $-1 $393 0 $393 6.2831853071796004 $172 $394 forward 7 unknown #
vertex $-1 $175 $395 #
ellipse-curve $-1 53.984114184868446 -3.4955277710668327 11.746206609316838 0.57357644374324357 0 0.81915203911291934 0.81915203911291934 0 -0.57357644374324357 1 I I #
face $-1 $-1 $396 $38 $-1 $397 reversed single #
loop $-1 $-1 $182 $176 #
plane-surface $-1 0 0 15.088845151408201 0 0 1 1 0 0 forward_v I I I I #
coedge $-1 $398 $399 $400 $401 reversed $177 $-1 #
coedge $-1 $402 $179 $181 $289 forward $111 $-1 #
coedge $-1 $179 $402 $398 $403 forward $111 $-1 #
coedge $-1 $400 $182 $179 $286 forward $280 $-1 #
edge $-1 $292 -11.418399647369801 $404 -4.3844558085560461 $285 $405 forward 7 unknown #
coedge $-1 $406 $407 $180 $288 forward $396 $-1 #
edge $-1 $408 -36.929489005431684 $291 -33.927275404219863 $287 $409 forward 7 unknown #
edge $-1 $292 -4.402083261963722 $408 -1.0042470408882777e-014 $181 $410 forward 7 unknown #
coedge $-1 $182 $400 $406 $411 forward $280 $-1 #
vertex $-1 $288 $412 #
vertex $-1 $183 $413 #
straight-curve $-1 -69.45173797439061 -19.319827375332725 15.088845151408201 1 0 0 I I #
coedge $-1 $294 $294 $-1 $414 reversed $186 $-1 #
edge $-1 $415 0 $415 6.2831853071796004 $187 $416 forward 7 unknown #
vertex $-1 $190 $417 #
ellipse-curve $-1 -57.148156736733036 -17.310129135671652 13.587738350802287 -0.68199836817093118 0 0.7313536940579346 0.3656768470289673 0 0.34099918408546559 1 I I #
coedge $-1 $298 $298 $-1 $418 reversed $193 $-1 #
edge $-1 $419 0 $419 6.2831853071796004 $194 $420 forward 7 unknown #
vertex $-1 $197 $421 #
ellipse-curve $-1 -57.148156736733036 -14.295581776180043 13.587738350802287 -0.68199836817093118 0 0.7313536940579346 0.3656768470289673 0 0.34099918408546559 1 I I #
face $-1 $-1 $422 $41 $-1 $423 reversed single #
loop $-1 $-1 $424 $198 #
plane-surface $-1 0 34.359750168609708 0 0 -1 0 0 0 -1 forward_v I I I I #
coedge $-1 $425 $201 $203 $311 forward $125 $-1 #
coedge $-1 $201 $425 $424 $426 reversed $125 $-1 #
coedge $-1 $427 $204 $201 $308 forward $199 $-1 #
edge $-1 $314 11.904417205194534 $428 18.938361044008289 $307 $429 forward 7 unknown #
coedge $-1 $430 $431 $202 $310 forward $422 $-1 #
edge $-1 $432 -36.929489005431684 $313 -33.927275404219863 $309 $433 forward 7 unknown #
edge $-1 $314 -4.402083261963722 $432 -1.0042470408882777e-014 $203 $434 forward 7 unknown #
coedge $-1 $204 $427 $430 $435 forward $199 $-1 #
vertex $-1 $310 $436 #
vertex $-1 $205 $437 #
straight-curve $-1 -69.45173797439061 27.325806329795945 15.088845151408201 1 0 0 I I #
coedge $-1 $316 $316 $-1 $438 reversed $208 $-1 #
edge $-1 $439 0 $439 6.2831853071796004 $209 $440 forward 7 unknown #
vertex $-1 $212 $441 #
ellipse-curve $-1 -57.148156736733036 29.335504569457022 13.587738350802287 -0.68199836817093118 0 0.7313536940579346 0.3656768470289673 0 0.34099918408546559 1 I I #
coedge $-1 $320 $320 $-1 $442 reversed $215 $-1 #
edge $-1 $443 0 $443 6.2831853071796004 $216 $444 forward 7 unknown #
vertex $-1 $219 $445 #
ellipse-curve $-1 -57.148156736733036 32.350051928948631 13.587738350802287 -0.68199836817093118 0 0.7313536940579346 0.3656768470289673 0 0.34099918408546559 1 I I #
face $-1 $-1 $235 $33 $-1 $446 reversed single #
loop $-1 $-1 $339 $220 #
plane-surface $-1 0 34.359750168609708 0 0 -1 0 0 0 -1 forward_v I I I I #
coedge $-1 $447 $337 $340 $448 forward $221 $-1 #
coedge $-1 $223 $343 $224 $331 reversed $139 $-1 #
edge $-1 $236 -15.088845151408201 $335 15.088845151408201 $233 $449 forward 7 unknown #
coedge $-1 $225 $224 $447 $450 forward $89 $-1 #
edge $-1 $335 -58.757896664326914 $451 58.757896664326914 $328 $452 forward 7 unknown #
coedge $-1 $340 $339 $225 $333 reversed $325 $-1 #
edge $-1 $453 -58.757896664326914 $334 58.757896664326914 $332 $454 forward 7 unknown #
vertex $-1 $227 $455 #
vertex $-1 $329 $456 #
straight-curve $-1 58.757896664326914 0 -15.088845151408201 0 -1 0 I I #
coedge $-1 $327 $457 $228 $338 reversed $221 $-1 #
edge $-1 $341 -34.359750168609708 $344 34.359750168609708 $337 $458 forward 7 unknown #
coedge $-1 $332 $229 $234 $346 forward $325 $-1 #
coedge $-1 $229 $332 $327 $448 reversed $325 $-1 #
vertex $-1 $230 $459 #
straight-curve $-1 0 34.359750168609708 15.088845151408201 -1 0 0 I I #
coedge $-1 $328 $231 $457 $460 forward $139 $-1 #
vertex $-1 $338 $461 #
straight-curve $-1 0 -34.359750168609708 15.088845151408201 1 0 0 I I #
edge $-1 $237 -15.088845151408201 $334 15.088845151408201 $234 $462 forward 7 unknown #
point $-1 58.757896664326914 -34.359750168609708 15.088845151408201 #
point $-1 58.757896664326914 34.359750168609708 15.088845151408201 #
face $-1 $-1 $363 $34 $-1 $463 reversed single #
loop $-1 $-1 $464 $239 #
plane-surface $-1 0 -49.399672961886694 -13.115511366584153 0 1 0 0 0 1 forward_v I I I I #
coedge $-1 $465 $242 $251 $367 reversed $147 $-1 #
coedge $-1 $242 $465 $243 $355 reversed $147 $-1 #
coedge $-1 $244 $243 $466 $467 forward $93 $-1 #
edge $-1 $359 34.359750168609708 $468 49.399672961886694 $353 $469 forward 7 unknown #
coedge $-1 $470 $248 $244 $357 reversed $363 $-1 #
edge $-1 $471 -49.399672961886694 $358 -34.359750168609708 $356 $472 forward 7 unknown #
vertex $-1 $249 $473 #
vertex $-1 $355 $474 #
straight-curve $-1 0 -34.359750168609708 -15.088845151408201 1 0 0 I I #
straight-curve $-1 58.757896664326914 -34.359750168609708 0 0 0 1 I I #
coedge $-1 $248 $470 $250 $366 reversed $363 $-1 #
loop $-1 $-1 $248 $349 #
straight-curve $-1 -58.757896664326914 -34.359750168609708 0 0 0 -1 I I #
coedge $-1 $251 $250 $475 $476 forward $240 $-1 #
edge $-1 $252 -7.5199613966384931 $477 7.5199613966384931 $362 $478 forward 7 unknown #
edge $-1 $479 -7.5199613966384931 $253 7.5199613966384931 $352 $480 forward 7 unknown #
point $-1 -58.757896664326914 -34.359750168609708 -11.142177581760105 #
point $-1 58.757896664326914 -34.359750168609708 -11.142177581760105 #
plane-surface $-1 0 0 15.088845151408201 0 0 1 1 0 0 forward_v I I I I #
coedge $-1 $381 $380 $373 $481 forward $256 $-1 #
coedge $-1 $373 $258 $260 $377 reversed $155 $-1 #
coedge $-1 $258 $372 $371 $481 reversed $155 $-1 #
coedge $-1 $266 $261 $258 $375 forward $267 $-1 #
edge $-1 $378 34.260888829258519 $482 43.808453788175427 $374 $483 forward 7 unknown #
coedge $-1 $260 $259 $381 $484 reversed $97 $-1 #
edge $-1 $485 -117.51579332865381 $378 -105.86036856861024 $372 $486 forward 7 unknown #
vertex $-1 $262 $487 #
straight-curve $-1 49.210331705409999 -2.7980462855577297 15.088845151408201 0 -1 0 I I #
coedge $-1 $371 $263 $266 $385 reversed $256 $-1 #
coedge $-1 $263 $371 $376 $484 forward $256 $-1 #
vertex $-1 $264 $488 #
straight-curve $-1 58.757896664326914 -0.69477470433532318 86.035580310739945 0 0 1 I I #
straight-curve $-1 -37.505405068812273 -0.69477470433532318 75.807858888340704 0.81915203911291934 0 -0.57357644374324357 I I #
edge $-1 $482 -10.497410437895596 $268 -0.69477470433532318 $380 $489 forward 7 unknown #
point $-1 58.757896664326914 -0.69477470433532318 15.088845151408201 #
point $-1 49.210331705410006 -0.69477470433532318 15.088845151408201 #
edge $-1 $490 1 $490 0 $271 $-1 forward 7 unknown #
vertex $-1 $272 $491 #
ellipse-curve $-1 52.952247239289761 -7.6966573711640898 10.27254791606971 0.57357644374324357 0 0.81915203911291934 0.81915203911291934 0 -0.57357644374324357 1 I I #
point $-1 54.80326622398136 -7.6966573711640898 11.172630165573587 #
edge $-1 $492 1 $492 0 $275 $-1 forward 7 unknown #
vertex $-1 $276 $493 #
ellipse-curve $-1 52.952247239289761 -3.4955277710668327 10.27254791606971 0.57357644374324357 0 0.81915203911291934 0.81915203911291934 0 -0.57357644374324357 1 I I #
point $-1 54.80326622398136 -3.4955277710668327 11.172630165573587 #
loop $-1 $-1 $287 $279 #
plane-surface $-1 -58.757896664326914 0 0 1 0 0 0 0 -1 forward_v I I I I #
coedge $-1 $399 $282 $284 $403 reversed $177 $-1 #
coedge $-1 $282 $398 $494 $495 reversed $177 $-1 #
coedge $-1 $290 $285 $282 $401 forward $280 $-1 #
edge $-1 $404 -13.91332116525146 $496 -10.693841310063696 $400 $497 forward 7 unknown #
coedge $-1 $284 $283 $407 $498 reversed $111 $-1 #
edge $-1 $499 1.0042470408882777e-014 $404 4.402083261963722 $398 $500 forward 7 unknown #
vertex $-1 $286 $501 #
straight-curve $-1 -55.53841680913915 -7.9014277279629237 15.088845151408199 0 1 0 I I #
coedge $-1 $494 $287 $290 $411 reversed $396 $-1 #
coedge $-1 $287 $494 $402 $498 forward $396 $-1 #
vertex $-1 $288 $502 #
straight-curve $-1 -58.757896664326914 -19.319827375332725 49.016120555628063 0 0 1 I I #
straight-curve $-1 -58.757896664326921 -19.319827375332725 12.086631550196373 -0.7313536940579346 0 -0.68199836817093118 I I #
edge $-1 $496 12.28588353651897 $291 19.319827375332725 $406 $503 forward 7 unknown #
point $-1 -58.757896664326914 -19.319827375332725 15.088845151408201 #
point $-1 -55.53841680913915 -19.319827375332725 15.088845151408201 #
edge $-1 $504 1 $504 0 $294 $-1 forward 7 unknown #
vertex $-1 $295 $505 #
ellipse-curve $-1 -55.892213668055561 -17.310129135671652 12.240904332317493 -0.68199836817093118 0 0.7313536940579346 0.3656768470289673 0 0.34099918408546559 1 I I #
point $-1 -56.782479889704057 -17.310129135671652 13.928737534887741 #
edge $-1 $506 1 $506 0 $298 $-1 forward 7 unknown #
vertex $-1 $299 $507 #
ellipse-curve $-1 -55.892213668055561 -14.295581776180043 12.240904332317493 -0.68199836817093118 0 0.7313536940579346 0.3656768470289673 0 0.34099918408546559 1 I I #
point $-1 -56.782479889704057 -14.295581776180043 13.928737534887741 #
loop $-1 $-1 $309 $302 #
plane-surface $-1 -58.757896664326914 0 0 1 0 0 0 0 -1 forward_v I I I I #
coedge $-1 $508 $509 $306 $426 forward $303 $-1 #
coedge $-1 $306 $305 $431 $510 reversed $125 $-1 #
edge $-1 $428 12.962787631342609 $511 17.364870893306325 $424 $512 forward 7 unknown #
coedge $-1 $312 $307 $509 $513 forward $199 $-1 #
vertex $-1 $513 $514 #
straight-curve $-1 -55.53841680913915 15.421389124601411 15.088845151408199 0 1 0 I I #
coedge $-1 $515 $309 $312 $435 reversed $422 $-1 #
coedge $-1 $309 $515 $425 $510 forward $422 $-1 #
vertex $-1 $310 $516 #
straight-curve $-1 -58.757896664326914 27.325806329795945 49.016120555628063 0 0 1 I I #
straight-curve $-1 -58.757896664326921 27.325806329795945 12.086631550196373 -0.7313536940579346 0 -0.68199836817093118 I I #
edge $-1 $517 -34.359750168609708 $313 -27.325806329795945 $430 $518 forward 7 unknown #
point $-1 -58.757896664326914 27.325806329795945 15.088845151408201 #
point $-1 -55.53841680913915 27.325806329795945 15.088845151408201 #
edge $-1 $519 1 $519 0 $316 $-1 forward 7 unknown #
vertex $-1 $317 $520 #
ellipse-curve $-1 -55.892213668055561 29.335504569457022 12.240904332317493 -0.68199836817093118 0 0.7313536940579346 0.3656768470289673 0 0.34099918408546559 1 I I #
point $-1 -56.782479889704057 29.335504569457022 13.928737534887741 #
edge $-1 $521 1 $521 0 $320 $-1 forward 7 unknown #
vertex $-1 $321 $522 #
ellipse-curve $-1 -55.892213668055561 32.350051928948631 12.240904332317493 -0.68199836817093118 0 0.7313536940579346 0.3656768470289673 0 0.34099918408546559 1 I I #
point $-1 -56.782479889704057 32.350051928948631 13.928737534887741 #
plane-surface $-1 58.757896664326914 0 0 -1 0 0 0 0 1 forward_v I I I I #
coedge $-1 $457 $327 $330 $450 reversed $221 $-1 #
edge $-1 $341 -15.088845151408201 $453 15.088845151408201 $340 $523 forward 7 unknown #
straight-curve $-1 58.757896664326914 -34.359750168609708 0 0 0 -1 I I #
edge $-1 $451 -34.359750168609708 $453 34.359750168609708 $447 $524 forward 7 unknown #
vertex $-1 $450 $525 #
straight-curve $-1 0 -34.359750168609708 -15.088845151408201 -1 0 0 I I #
vertex $-1 $333 $526 #
straight-curve $-1 0 34.359750168609708 -15.088845151408201 1 0 0 I I #
point $-1 58.757896664326914 34.359750168609708 -15.088845151408201 #
point $-1 58.757896664326914 -34.359750168609708 -15.088845151408201 #
coedge $-1 $337 $447 $343 $460 reversed $221 $-1 #
straight-curve $-1 -58.757896664326914 0 15.088845151408201 0 -1 0 I I #
point $-1 -58.757896664326914 34.359750168609708 15.088845151408201 #
edge $-1 $344 -15.088845151408201 $451 15.088845151408201 $457 $527 forward 7 unknown #
point $-1 -58.757896664326914 -34.359750168609708 15.088845151408201 #
straight-curve $-1 58.757896664326914 34.359750168609708 0 0 0 -1 I I #
plane-surface $-1 -58.757896664326914 0 0 1 0 0 0 0 -1 forward_v I I I I #
coedge $-1 $466 $475 $470 $528 forward $350 $-1 #
coedge $-1 $353 $352 $529 $530 forward $147 $-1 #
coedge $-1 $529 $464 $354 $467 reversed $350 $-1 #
edge $-1 $468 -58.757896664326914 $471 58.757896664326914 $466 $531 forward 7 unknown #
vertex $-1 $530 $532 #
straight-curve $-1 58.757896664326914 0 -15.088845151408201 0 -1 0 I I #
coedge $-1 $362 $356 $464 $528 reversed $363 $-1 #
vertex $-1 $357 $533 #
straight-curve $-1 -58.757896664326914 0 -15.088845151408201 0 1 0 I I #
point $-1 -58.757896664326914 -34.359750168609708 -15.088845151408201 #
point $-1 58.757896664326914 -34.359750168609708 -15.088845151408201 #
coedge $-1 $464 $529 $365 $476 reversed $350 $-1 #
edge $-1 $477 -58.757896664326914 $479 58.757896664326914 $475 $534 forward 7 unknown #
vertex $-1 $366 $535 #
straight-curve $-1 -58.757896664326914 -41.879711565248201 -11.142177581760105 0 -1 0 I I #
vertex $-1 $367 $536 #
straight-curve $-1 58.757896664326914 -41.879711565248201 -11.142177581760105 0 1 0 I I #
edge $-1 $482 70.946735159331752 $485 77.632012243514495 $371 $537 forward 7 unknown #
vertex $-1 $385 $538 #
straight-curve $-1 14.94944287615149 -10.497410437895596 15.088845151408208 1 0 0 I I #
edge $-1 $485 -7.699364152337866 $382 2.1032715812224065 $381 $539 forward 7 unknown #
vertex $-1 $484 $540 #
straight-curve $-1 -37.505405068812273 -10.497410437895596 75.807858888340704 -0.81915203911291934 0 0.57357644374324357 I I #
point $-1 49.210331705410006 -10.497410437895596 15.088845151408201 #
point $-1 58.757896664326914 -0.69477470433532318 8.40356806722545 #
straight-curve $-1 58.757896664326914 0 15.088845151408201 0 1 0 I I #
vertex $-1 $388 $541 #
point $-1 53.771399278402676 -7.6966573711640898 9.6989714723264679 #
vertex $-1 $392 $542 #
point $-1 53.771399278402676 -3.4955277710668327 9.6989714723264679 #
coedge $-1 $407 $406 $399 $495 forward $396 $-1 #
edge $-1 $496 33.927275404219863 $499 36.929489005431684 $494 $543 forward 7 unknown #
vertex $-1 $411 $544 #
straight-curve $-1 -69.45173797439061 -12.28588353651897 15.088845151408201 -1 0 0 I I #
edge $-1 $499 4.3844558085560461 $408 11.418399647369801 $407 $545 forward 7 unknown #
vertex $-1 $498 $546 #
straight-curve $-1 -58.757896664326921 -12.28588353651897 12.086631550196373 0.7313536940579346 0 0.68199836817093118 I I #
point $-1 -55.53841680913915 -12.28588353651897 15.088845151408201 #
point $-1 -58.757896664326914 -19.319827375332725 12.08663155019638 #
straight-curve $-1 -58.757896664326914 0 15.088845151408201 0 -1 0 I I #
vertex $-1 $414 $547 #
point $-1 -55.526536821026596 -17.310129135671652 12.581903516402958 #
vertex $-1 $418 $548 #
point $-1 -55.526536821026596 -14.295581776180043 12.581903516402958 #
coedge $-1 $509 $424 $515 $549 reversed $303 $-1 #
coedge $-1 $424 $508 $427 $513 reversed $303 $-1 #
edge $-1 $511 -18.938361044008289 $432 -11.904417205194534 $431 $550 forward 7 unknown #
vertex $-1 $426 $551 #
straight-curve $-1 -46.058034189668234 34.359750168609708 23.929445162930197 -0.7313536940579346 0 -0.68199836817093118 I I #
edge $-1 $428 55.53841680913915 $517 58.757896664326914 $509 $552 forward 7 unknown #
point $-1 -55.53841680913915 34.3597501686097 15.088845151408201 #
coedge $-1 $431 $430 $508 $549 forward $422 $-1 #
point $-1 -58.757896664326914 27.325806329795945 12.08663155019638 #
vertex $-1 $513 $553 #
straight-curve $-1 -58.757896664326914 0 15.088845151408201 0 -1 0 I I #
vertex $-1 $438 $554 #
point $-1 -55.526536821026596 29.335504569457022 12.581903516402958 #
vertex $-1 $442 $555 #
point $-1 -55.526536821026596 32.350051928948631 12.581903516402958 #
straight-curve $-1 -58.757896664326914 34.359750168609708 0 0 0 -1 I I #
straight-curve $-1 -58.757896664326914 0 -15.088845151408201 0 1 0 I I #
point $-1 -58.757896664326914 -34.359750168609708 -15.088845151408201 #
point $-1 -58.757896664326914 34.359750168609708 -15.088845151408201 #
straight-curve $-1 -58.757896664326914 -34.359750168609708 0 0 0 -1 I I #
edge $-1 $477 -1.9733337848240478 $471 1.9733337848240478 $470 $556 forward 7 unknown #
coedge $-1 $475 $466 $465 $530 reversed $350 $-1 #
edge $-1 $479 -1.9733337848240478 $468 1.9733337848240478 $465 $557 forward 7 unknown #
straight-curve $-1 0 -49.399672961886694 -15.088845151408201 -1 0 0 I I #
point $-1 58.757896664326914 -49.399672961886694 -15.088845151408201 #
point $-1 -58.757896664326914 -49.399672961886694 -15.088845151408201 #
straight-curve $-1 0 -49.399672961886694 -11.142177581760105 1 0 0 I I #
point $-1 -58.757896664326914 -49.399672961886694 -11.142177581760105 #
point $-1 58.757896664326914 -49.399672961886694 -11.142177581760105 #
straight-curve $-1 58.757896664326914 -10.497410437895596 86.035580310739945 0 0 -1 I I #
point $-1 58.757896664326914 -10.497410437895596 15.088845151408201 #
straight-curve $-1 58.757896664326921 -2.7980462855577297 8.40356806722545 0 1 0 I I #
point $-1 58.757896664326914 -10.497410437895596 8.40356806722545 #
point $-1 52.378670795546512 -7.6966573711640898 9.4533958769567921 #
point $-1 52.378670795546512 -3.4955277710668327 9.4533958769567921 #
straight-curve $-1 -58.757896664326914 -12.28588353651897 49.016120555628063 0 0 -1 I I #
point $-1 -58.757896664326914 -12.28588353651897 15.088845151408201 #
straight-curve $-1 -58.757896664326914 -7.9014277279629237 12.086631550196381 0 -1 0 I I #
point $-1 -58.757896664326914 -12.28588353651897 12.08663155019638 #
point $-1 -55.551214483970099 -17.310129135671652 11.875227485288525 #
point $-1 -55.551214483970099 -14.295581776180043 11.875227485288525 #
edge $-1 $517 -15.088845151408201 $511 -12.08663155019638 $508 $558 forward 7 unknown #
straight-curve $-1 -58.757896664326914 15.421389124601411 12.086631550196381 0 -1 0 I I #
point $-1 -58.757896664326914 34.3597501686097 12.08663155019638 #
straight-curve $-1 0 34.359750168609708 15.088845151408201 -1 0 0 I I #
point $-1 -58.757896664326914 34.359750168609708 15.088845151408201 #
point $-1 -55.551214483970099 29.335504569457022 11.875227485288525 #
point $-1 -55.551214483970099 32.350051928948631 11.875227485288525 #
straight-curve $-1 -58.757896664326914 -49.399672961886694 -13.115511366584153 0 0 -1 I I #
straight-curve $-1 58.757896664326914 -49.399672961886694 -13.115511366584153 0 0 -1 I I #
straight-curve $-1 -58.757896664326914 34.359750168609708 0 0 0 -1 I I #
End-of-ACIS-data 