500 0 14 0           
7 Unknown 11 ACIS 5.0 NT 24 Fri Mar 26 15:37:19 1999 
-1 9.9999999999999995e-007 1e-010 
body $-1 $14 $-1 $15 #
body $-1 $16 $-1 $17 #
body $-1 $18 $-1 $19 #
body $-1 $20 $-1 $21 #
body $-1 $22 $-1 $23 #
body $-1 $24 $-1 $25 #
body $-1 $26 $-1 $27 #
body $-1 $28 $-1 $29 #
body $-1 $30 $-1 $31 #
body $-1 $32 $-1 $33 #
body $-1 $34 $-1 $35 #
body $-1 $36 $-1 $37 #
body $-1 $38 $-1 $39 #
body $-1 $40 $-1 $41 #
lump $-1 $-1 $42 $0 #
transform $-1 1 0 0 0 1 0 0 0 1 46.165959654530475 19.203106183152379 9.2657463395712352 1 rotate no_reflect no_shear #
lump $-1 $-1 $43 $1 #
transform $-1 1 0 0 0 1 0 0 0 1 46.165959654530475 19.203106183152379 9.2657463395712352 1 rotate no_reflect no_shear #
lump $-1 $-1 $44 $2 #
transform $-1 1 0 0 0 1 0 0 0 1 46.165959654530475 19.203106183152379 9.2657463395712352 1 rotate no_reflect no_shear #
lump $-1 $-1 $45 $3 #
transform $-1 1 0 0 0 1 0 0 0 1 46.165959654530475 19.203106183152379 9.2657463395712352 1 rotate no_reflect no_shear #
lump $-1 $-1 $46 $4 #
transform $-1 1 0 0 0 1 0 0 0 1 46.165959654530475 19.203106183152379 9.2657463395712352 1 rotate no_reflect no_shear #
lump $-1 $-1 $47 $5 #
transform $-1 1 0 0 0 1 0 0 0 1 46.165959654530475 19.203106183152379 9.2657463395712352 1 rotate no_reflect no_shear #
lump $-1 $-1 $48 $6 #
transform $-1 1 0 0 0 1 0 0 0 1 46.165959654530475 19.203106183152379 9.2657463395712352 1 rotate no_reflect no_shear #
lump $-1 $-1 $49 $7 #
transform $-1 1 0 0 0 1 0 0 0 1 46.165959654530475 19.203106183152379 9.2657463395712352 1 rotate no_reflect no_shear #
lump $-1 $-1 $50 $8 #
transform $-1 1 0 0 0 1 0 0 0 1 46.165959654530475 19.203106183152379 9.2657463395712352 1 rotate no_reflect no_shear #
lump $-1 $-1 $51 $9 #
transform $-1 1 0 0 0 1 0 0 0 1 46.165959654530475 19.203106183152379 9.2657463395712352 1 rotate no_reflect no_shear #
lump $-1 $-1 $52 $10 #
transform $-1 1 0 0 0 1 0 0 0 1 46.165959654530475 19.203106183152379 9.2657463395712352 1 rotate no_reflect no_shear #
lump $-1 $-1 $53 $11 #
transform $-1 1 0 0 0 1 0 0 0 1 46.165959654530475 19.203106183152379 9.2657463395712352 1 rotate no_reflect no_shear #
lump $-1 $-1 $54 $12 #
transform $-1 1 0 0 0 1 0 0 0 1 46.165959654530475 19.203106183152379 9.2657463395712352 1 rotate no_reflect no_shear #
lump $-1 $-1 $55 $13 #
transform $-1 1 0 0 0 1 0 0 0 1 46.165959654530475 19.203106183152379 9.2657463395712352 1 rotate no_reflect no_shear #
shell $-1 $-1 $-1 $56 $-1 $14 #
shell $-1 $-1 $-1 $57 $-1 $16 #
shell $-1 $-1 $-1 $58 $-1 $18 #
shell $-1 $-1 $-1 $59 $-1 $20 #
shell $-1 $-1 $-1 $60 $-1 $22 #
shell $-1 $-1 $-1 $61 $-1 $24 #
shell $-1 $-1 $-1 $62 $-1 $26 #
shell $-1 $-1 $-1 $63 $-1 $28 #
shell $-1 $-1 $-1 $64 $-1 $30 #
shell $-1 $-1 $-1 $65 $-1 $32 #
shell $-1 $-1 $-1 $66 $-1 $34 #
shell $-1 $-1 $-1 $67 $-1 $36 #
shell $-1 $-1 $-1 $68 $-1 $38 #
shell $-1 $-1 $-1 $69 $-1 $40 #
face $-1 $70 $71 $42 $-1 $72 forward single #
face $-1 $73 $74 $43 $-1 $75 forward single #
face $-1 $76 $77 $44 $-1 $78 reversed single #
face $-1 $79 $80 $45 $-1 $81 forward single #
face $-1 $82 $83 $46 $-1 $84 forward single #
face $-1 $85 $86 $47 $-1 $87 forward single #
face $-1 $88 $89 $48 $-1 $90 reversed single #
face $-1 $91 $92 $49 $-1 $93 forward single #
face $-1 $94 $95 $50 $-1 $96 forward single #
face $-1 $97 $98 $51 $-1 $99 forward single #
face $-1 $100 $101 $52 $-1 $102 reversed single #
face $-1 $103 $104 $53 $-1 $105 forward single #
face $-1 $106 $107 $54 $-1 $108 forward single #
face $-1 $109 $110 $55 $-1 $111 forward single #
face $-1 $112 $113 $42 $-1 $114 reversed single #
loop $-1 $-1 $115 $56 #
plane-surface $-1 0 0 9.2657463395712352 0 0 1 1 0 0 forward_v I I I I #
face $-1 $116 $117 $43 $-1 $118 reversed single #
loop $-1 $-1 $119 $57 #
plane-surface $-1 -41.14768720059724 0 -2.3254570244016897 0 0 1 1 0 0 forward_v I I I I #
face $-1 $120 $121 $44 $-1 $122 reversed single #
loop $-1 $-1 $123 $58 #
plane-surface $-1 25.080715489526469 40.701992929969315 102.67220148302862 1 0 0 0 -0.57357644374324357 -0.81915203911291934 forward_v I I I I #
face $-1 $124 $125 $45 $-1 $126 forward single #
loop $-1 $127 $128 $59 #
cone-surface $-1 28.419496117031564 15.091324663131884 5.6059650007302304 0 -0.57357644374324357 -0.81915203911291934 1 0 0 1 I I 0 1 1 forward I I I I #
face $-1 $129 $130 $46 $-1 $131 forward single #
loop $-1 $132 $133 $60 #
cone-surface $-1 33.427667058289224 15.091324663131884 5.6059650007302304 0 -0.57357644374324357 -0.81915203911291934 1 0 0 1 I I 0 1 1 forward I I I I #
face $-1 $134 $135 $47 $-1 $136 forward single #
loop $-1 $137 $138 $61 #
cone-surface $-1 38.435837999546884 15.091324663131884 5.6059650007302304 0 -0.57357644374324357 -0.81915203911291934 1 0 0 1 I I 0 1 1 forward I I I I #
face $-1 $139 $140 $48 $-1 $141 reversed single #
loop $-1 $-1 $142 $62 #
plane-surface $-1 -17.265171090055468 -68.131569574695447 84.35539874506226 -1 0 0 0 -0.52991927123019833 0.84804809178421925 forward_v I I I I #
face $-1 $143 $144 $49 $-1 $145 forward single #
loop $-1 $146 $147 $63 #
cone-surface $-1 -32.356566015342295 -15.613825795021549 6.0289758313975605 0 0.52991927123019833 -0.84804809178421925 1 0 0 1 I I 0 1 1 forward I I I I #
face $-1 $148 $149 $50 $-1 $150 forward single #
loop $-1 $151 $152 $64 #
cone-surface $-1 -26.697292918359736 -15.613825795021549 6.0289758313975605 0 0.52991927123019833 -0.84804809178421925 1 0 0 1 I I 0 1 1 forward I I I I #
face $-1 $153 $154 $51 $-1 $155 forward single #
loop $-1 $156 $157 $65 #
cone-surface $-1 -21.038019821377176 -15.613825795021549 6.0289758313975605 0 0.52991927123019833 -0.84804809178421925 1 0 0 1 I I 0 1 1 forward I I I I #
face $-1 $158 $159 $52 $-1 $160 reversed single #
loop $-1 $-1 $161 $66 #
plane-surface $-1 23.882516110541772 -68.131569574695447 84.35539874506226 -1 0 0 0 -0.52991927123019833 0.84804809178421925 forward_v I I I I #
face $-1 $162 $163 $53 $-1 $164 forward single #
loop $-1 $165 $166 $67 #
cone-surface $-1 8.7911211852549442 -15.613825795021549 6.0289758313975605 0 0.52991927123019833 -0.84804809178421925 1 0 0 1 I I 0 1 1 forward I I I I #
face $-1 $167 $168 $54 $-1 $169 forward single #
loop $-1 $170 $171 $68 #
cone-surface $-1 14.450394282237504 -15.613825795021549 6.0289758313975605 0 0.52991927123019833 -0.84804809178421925 1 0 0 1 I I 0 1 1 forward I I I I #
face $-1 $172 $173 $55 $-1 $174 forward single #
loop $-1 $175 $176 $69 #
cone-surface $-1 20.109667379220063 -15.613825795021549 6.0289758313975605 0 0.52991927123019833 -0.84804809178421925 1 0 0 1 I I 0 1 1 forward I I I I #
face $-1 $177 $178 $42 $-1 $179 reversed single #
loop $-1 $-1 $180 $70 #
plane-surface $-1 0 0 -9.2657463395712352 0 0 1 1 0 0 forward_v I I I I #
coedge $-1 $181 $182 $183 $184 forward $71 $-1 #
face $-1 $185 $186 $43 $-1 $187 reversed single #
loop $-1 $-1 $188 $73 #
plane-surface $-1 -41.14768720059724 0 -6.5687486416488614 0 0 1 1 0 0 forward_v I I I I #
coedge $-1 $189 $190 $191 $192 forward $74 $-1 #
face $-1 $193 $194 $44 $-1 $195 reversed single #
loop $-1 $-1 $196 $76 #
plane-surface $-1 33.427667058289238 -12.257420991309985 27.038321505801804 0 0.57357644374324357 0.81915203911291934 1 0 0 forward_v I I I I #
coedge $-1 $197 $198 $199 $200 reversed $77 $-1 #
face $-1 $-1 $201 $45 $-1 $202 forward single #
loop $-1 $203 $204 $79 #
cone-surface $-1 28.419496117031564 13.732084853058858 3.664769412573909 0 -0.57357644374324357 -0.81915203911291934 0.5 0 0 1 I I -0.70710678118654746 0.70710678118654746 0.5 forward I I I I #
loop $-1 $-1 $205 $59 #
coedge $-1 $128 $128 $206 $207 reversed $80 $-1 #
face $-1 $-1 $208 $46 $-1 $209 forward single #
loop $-1 $210 $211 $82 #
cone-surface $-1 33.427667058289224 13.732084853058858 3.664769412573909 0 -0.57357644374324357 -0.81915203911291934 0.5 0 0 1 I I -0.70710678118654746 0.70710678118654746 0.5 forward I I I I #
loop $-1 $-1 $212 $60 #
coedge $-1 $133 $133 $213 $214 reversed $83 $-1 #
face $-1 $-1 $215 $47 $-1 $216 forward single #
loop $-1 $217 $218 $85 #
cone-surface $-1 38.435837999546884 13.732084853058858 3.664769412573909 0 -0.57357644374324357 -0.81915203911291934 0.5 0 0 1 I I -0.70710678118654746 0.70710678118654746 0.5 forward I I I I #
loop $-1 $-1 $219 $61 #
coedge $-1 $138 $138 $220 $221 reversed $86 $-1 #
face $-1 $222 $223 $48 $-1 $224 reversed single #
loop $-1 $-1 $225 $88 #
plane-surface $-1 -26.697292918359736 -19.203106183152393 6.0534907642386173 0 -0.52991927123019833 0.84804809178421925 1 0 0 forward_v I I I I #
coedge $-1 $226 $227 $228 $229 reversed $89 $-1 #
face $-1 $-1 $230 $49 $-1 $231 forward single #
loop $-1 $232 $233 $91 #
cone-surface $-1 -32.356566015342295 -14.32992748074015 3.9743090649980886 0 0.52991927123019833 -0.84804809178421925 0.5 0 0 1 I I -0.70710678118654746 0.70710678118654746 0.5 forward I I I I #
loop $-1 $-1 $234 $63 #
coedge $-1 $147 $147 $235 $236 reversed $92 $-1 #
face $-1 $-1 $237 $50 $-1 $238 forward single #
loop $-1 $239 $240 $94 #
cone-surface $-1 -26.697292918359736 -14.32992748074015 3.9743090649980886 0 0.52991927123019833 -0.84804809178421925 0.5 0 0 1 I I -0.70710678118654746 0.70710678118654746 0.5 forward I I I I #
loop $-1 $-1 $241 $64 #
coedge $-1 $152 $152 $242 $243 reversed $95 $-1 #
face $-1 $-1 $244 $51 $-1 $245 forward single #
loop $-1 $246 $247 $97 #
cone-surface $-1 -21.038019821377176 -14.32992748074015 3.9743090649980886 0 0.52991927123019833 -0.84804809178421925 0.5 0 0 1 I I -0.70710678118654746 0.70710678118654746 0.5 forward I I I I #
loop $-1 $-1 $248 $65 #
coedge $-1 $157 $157 $249 $250 reversed $98 $-1 #
face $-1 $251 $252 $52 $-1 $253 reversed single #
loop $-1 $-1 $254 $100 #
plane-surface $-1 14.450394282237504 -19.203106183152393 6.0534907642386173 0 -0.52991927123019833 0.84804809178421925 1 0 0 forward_v I I I I #
coedge $-1 $255 $256 $257 $258 reversed $101 $-1 #
face $-1 $-1 $259 $53 $-1 $260 forward single #
loop $-1 $261 $262 $103 #
cone-surface $-1 8.7911211852549442 -14.32992748074015 3.9743090649980886 0 0.52991927123019833 -0.84804809178421925 0.5 0 0 1 I I -0.70710678118654746 0.70710678118654746 0.5 forward I I I I #
loop $-1 $-1 $263 $67 #
coedge $-1 $166 $166 $264 $265 reversed $104 $-1 #
face $-1 $-1 $266 $54 $-1 $267 forward single #
loop $-1 $268 $269 $106 #
cone-surface $-1 14.450394282237504 -14.32992748074015 3.9743090649980886 0 0.52991927123019833 -0.84804809178421925 0.5 0 0 1 I I -0.70710678118654746 0.70710678118654746 0.5 forward I I I I #
loop $-1 $-1 $270 $68 #
coedge $-1 $171 $171 $271 $272 reversed $107 $-1 #
face $-1 $-1 $273 $55 $-1 $274 forward single #
loop $-1 $275 $276 $109 #
cone-surface $-1 20.109667379220063 -14.32992748074015 3.9743090649980886 0 0.52991927123019833 -0.84804809178421925 0.5 0 0 1 I I -0.70710678118654746 0.70710678118654746 0.5 forward I I I I #
loop $-1 $-1 $277 $69 #
coedge $-1 $176 $176 $278 $279 reversed $110 $-1 #
face $-1 $280 $281 $42 $-1 $282 reversed single #
loop $-1 $-1 $283 $112 #
plane-surface $-1 0 -19.203106183152379 0 0 1 0 0 0 1 forward_v I I I I #
coedge $-1 $284 $285 $286 $287 forward $113 $-1 #
coedge $-1 $288 $115 $289 $290 forward $71 $-1 #
coedge $-1 $115 $288 $291 $292 forward $71 $-1 #
coedge $-1 $293 $294 $115 $184 reversed $295 $-1 #
edge $-1 $296 -19.203106183152379 $297 19.203106183152379 $183 $298 forward 7 unknown #
face $-1 $299 $300 $43 $-1 $301 reversed single #
loop $-1 $-1 $302 $116 #
plane-surface $-1 -36.129414746664004 0 -4.4471028330252755 -1 0 0 0 0 1 forward_v I I I I #
coedge $-1 $303 $304 $305 $306 forward $117 $-1 #
coedge $-1 $307 $119 $308 $309 reversed $74 $-1 #
coedge $-1 $119 $307 $310 $311 reversed $74 $-1 #
coedge $-1 $302 $312 $119 $192 reversed $186 $-1 #
edge $-1 $313 -19.203106183152379 $314 19.203106183152379 $191 $315 forward 7 unknown #
face $-1 $316 $317 $44 $-1 $318 forward single #
loop $-1 $-1 $319 $120 #
plane-surface $-1 41.774618627052007 40.701992929969315 102.67220148302862 -1 0 0 0 0.57357644374324357 0.81915203911291934 forward_v I I I I #
coedge $-1 $320 $321 $322 $323 reversed $121 $-1 #
coedge $-1 $198 $123 $324 $325 reversed $77 $-1 #
coedge $-1 $123 $197 $320 $326 reversed $77 $-1 #
coedge $-1 $322 $327 $123 $200 forward $317 $-1 #
edge $-1 $328 1.1478902818322787 $329 7.2265501454704939 $199 $330 forward 7 unknown #
loop $-1 $-1 $206 $124 #
plane-surface $-1 33.427667058289238 -12.257420991309985 27.038321505801804 0 0.57357644374324357 0.81915203911291934 1 0 0 forward_v I I I I #
loop $-1 $-1 $331 $79 #
coedge $-1 $204 $204 $205 $332 reversed $125 $-1 #
coedge $-1 $205 $205 $204 $332 forward $127 $-1 #
coedge $-1 $206 $206 $128 $207 forward $201 $-1 #
edge $-1 $333 1.0890646724049962e-015 $333 6.2831853071796013 $206 $334 forward 7 unknown #
loop $-1 $-1 $213 $129 #
plane-surface $-1 33.427667058289238 -12.257420991309985 27.038321505801804 0 0.57357644374324357 0.81915203911291934 1 0 0 forward_v I I I I #
loop $-1 $-1 $335 $82 #
coedge $-1 $211 $211 $212 $336 reversed $130 $-1 #
coedge $-1 $212 $212 $211 $336 forward $132 $-1 #
coedge $-1 $213 $213 $133 $214 forward $208 $-1 #
edge $-1 $337 1.0890646724049962e-015 $337 6.2831853071796013 $213 $338 forward 7 unknown #
loop $-1 $-1 $220 $134 #
plane-surface $-1 33.427667058289238 -12.257420991309985 27.038321505801804 0 0.57357644374324357 0.81915203911291934 1 0 0 forward_v I I I I #
loop $-1 $-1 $339 $85 #
coedge $-1 $218 $218 $219 $340 reversed $135 $-1 #
coedge $-1 $219 $219 $218 $340 forward $137 $-1 #
coedge $-1 $220 $220 $138 $221 forward $215 $-1 #
edge $-1 $341 1.0890646724049962e-015 $341 6.2831853071796013 $220 $342 forward 7 unknown #
face $-1 $343 $344 $48 $-1 $345 reversed single #
loop $-1 $-1 $346 $139 #
plane-surface $-1 -36.129414746664004 -68.131569574695447 84.35539874506226 1 0 0 0 0.52991927123019833 -0.84804809178421925 forward_v I I I I #
coedge $-1 $347 $348 $349 $350 reversed $140 $-1 #
coedge $-1 $227 $142 $351 $352 reversed $89 $-1 #
coedge $-1 $142 $226 $347 $353 reversed $89 $-1 #
coedge $-1 $349 $354 $142 $229 forward $355 $-1 #
edge $-1 $356 14.862678604195345 $357 20.003362023124382 $228 $358 forward 7 unknown #
loop $-1 $-1 $235 $143 #
plane-surface $-1 -26.697292918359736 -19.203106183152393 6.0534907642386173 0 -0.52991927123019833 0.84804809178421925 1 0 0 forward_v I I I I #
loop $-1 $-1 $359 $91 #
coedge $-1 $233 $233 $234 $360 reversed $144 $-1 #
coedge $-1 $234 $234 $233 $360 forward $146 $-1 #
coedge $-1 $235 $235 $147 $236 forward $230 $-1 #
edge $-1 $361 3.7778978124636169e-016 $361 6.2831853071796004 $235 $362 forward 7 unknown #
loop $-1 $-1 $242 $148 #
plane-surface $-1 -26.697292918359736 -19.203106183152393 6.0534907642386173 0 -0.52991927123019833 0.84804809178421925 1 0 0 forward_v I I I I #
loop $-1 $-1 $363 $94 #
coedge $-1 $240 $240 $241 $364 reversed $149 $-1 #
coedge $-1 $241 $241 $240 $364 forward $151 $-1 #
coedge $-1 $242 $242 $152 $243 forward $237 $-1 #
edge $-1 $365 3.7778978124636169e-016 $365 6.2831853071796004 $242 $366 forward 7 unknown #
loop $-1 $-1 $249 $153 #
plane-surface $-1 -26.697292918359736 -19.203106183152393 6.0534907642386173 0 -0.52991927123019833 0.84804809178421925 1 0 0 forward_v I I I I #
loop $-1 $-1 $367 $97 #
coedge $-1 $247 $247 $248 $368 reversed $154 $-1 #
coedge $-1 $248 $248 $247 $368 forward $156 $-1 #
coedge $-1 $249 $249 $157 $250 forward $244 $-1 #
edge $-1 $369 3.7778978124636169e-016 $369 6.2831853071796004 $249 $370 forward 7 unknown #
face $-1 $371 $372 $52 $-1 $373 reversed single #
loop $-1 $-1 $374 $158 #
plane-surface $-1 5.0182724539332355 -68.131569574695447 84.35539874506226 1 0 0 0 0.52991927123019833 -0.84804809178421925 forward_v I I I I #
coedge $-1 $375 $376 $377 $378 reversed $159 $-1 #
coedge $-1 $256 $161 $379 $380 reversed $101 $-1 #
coedge $-1 $161 $255 $375 $381 reversed $101 $-1 #
coedge $-1 $377 $382 $161 $258 forward $383 $-1 #
edge $-1 $384 14.862678604195345 $385 20.003362023124382 $257 $386 forward 7 unknown #
loop $-1 $-1 $264 $162 #
plane-surface $-1 14.450394282237504 -19.203106183152393 6.0534907642386173 0 -0.52991927123019833 0.84804809178421925 1 0 0 forward_v I I I I #
loop $-1 $-1 $387 $103 #
coedge $-1 $262 $262 $263 $388 reversed $163 $-1 #
coedge $-1 $263 $263 $262 $388 forward $165 $-1 #
coedge $-1 $264 $264 $166 $265 forward $259 $-1 #
edge $-1 $389 3.7778978124636169e-016 $389 6.2831853071796004 $264 $390 forward 7 unknown #
loop $-1 $-1 $271 $167 #
plane-surface $-1 14.450394282237504 -19.203106183152393 6.0534907642386173 0 -0.52991927123019833 0.84804809178421925 1 0 0 forward_v I I I I #
loop $-1 $-1 $391 $106 #
coedge $-1 $269 $269 $270 $392 reversed $168 $-1 #
coedge $-1 $270 $270 $269 $392 forward $170 $-1 #
coedge $-1 $271 $271 $171 $272 forward $266 $-1 #
edge $-1 $393 3.7778978124636169e-016 $393 6.2831853071796004 $271 $394 forward 7 unknown #
loop $-1 $-1 $278 $172 #
plane-surface $-1 14.450394282237504 -19.203106183152393 6.0534907642386173 0 -0.52991927123019833 0.84804809178421925 1 0 0 forward_v I I I I #
loop $-1 $-1 $395 $109 #
coedge $-1 $276 $276 $277 $396 reversed $173 $-1 #
coedge $-1 $277 $277 $276 $396 forward $175 $-1 #
coedge $-1 $278 $278 $176 $279 forward $273 $-1 #
edge $-1 $397 3.7778978124636169e-016 $397 6.2831853071796004 $278 $398 forward 7 unknown #
face $-1 $399 $400 $42 $-1 $401 reversed single #
loop $-1 $-1 $402 $177 #
plane-surface $-1 -46.165959654530475 0 0 1 0 0 0 0 -1 forward_v I I I I #
coedge $-1 $403 $291 $404 $405 forward $178 $-1 #
coedge $-1 $406 $180 $403 $407 forward $113 $-1 #
coedge $-1 $180 $406 $408 $409 forward $113 $-1 #
coedge $-1 $294 $293 $180 $287 reversed $295 $-1 #
edge $-1 $410 -19.203106183152379 $411 19.203106183152379 $286 $412 forward 7 unknown #
coedge $-1 $182 $181 $413 $414 forward $71 $-1 #
coedge $-1 $415 $416 $181 $290 reversed $400 $-1 #
edge $-1 $297 -46.165959654530475 $417 46.165959654530475 $289 $418 forward 7 unknown #
coedge $-1 $283 $419 $182 $292 reversed $178 $-1 #
edge $-1 $420 -46.165959654530475 $296 46.165959654530475 $291 $421 forward 7 unknown #
coedge $-1 $286 $183 $419 $422 forward $295 $-1 #
coedge $-1 $183 $286 $415 $423 reversed $295 $-1 #
loop $-1 $-1 $293 $399 #
vertex $-1 $184 $424 #
vertex $-1 $184 $425 #
straight-curve $-1 46.165959654530475 0 9.2657463395712352 0 1 0 I I #
face $-1 $426 $427 $43 $-1 $428 reversed single #
loop $-1 $-1 $429 $185 #
plane-surface $-1 0 -19.203106183152379 0 0 1 0 0 0 1 forward_v I I I I #
coedge $-1 $305 $191 $430 $431 reversed $186 $-1 #
coedge $-1 $432 $188 $429 $433 reversed $117 $-1 #
coedge $-1 $188 $432 $434 $435 reversed $117 $-1 #
coedge $-1 $312 $302 $188 $306 reversed $186 $-1 #
edge $-1 $436 -19.203106183152379 $437 19.203106183152379 $305 $438 forward 7 unknown #
coedge $-1 $190 $189 $439 $440 reversed $74 $-1 #
coedge $-1 $441 $442 $189 $309 forward $443 $-1 #
edge $-1 $444 -25.592116054231855 $314 -15.555571146365384 $308 $445 forward 7 unknown #
coedge $-1 $446 $430 $190 $311 forward $300 $-1 #
edge $-1 $313 15.555571146365384 $447 25.592116054231855 $310 $448 forward 7 unknown #
coedge $-1 $191 $305 $441 $449 reversed $186 $-1 #
vertex $-1 $311 $450 #
vertex $-1 $309 $451 #
straight-curve $-1 -36.129414746664004 0 -2.3254570244016897 0 1 0 I I #
face $-1 $-1 $452 $44 $-1 $453 reversed single #
loop $-1 $-1 $199 $193 #
plane-surface $-1 0 0 9.2657463395712352 0 0 1 1 0 0 forward_v I I I I #
coedge $-1 $454 $455 $456 $457 reversed $194 $-1 #
coedge $-1 $458 $196 $198 $326 forward $121 $-1 #
coedge $-1 $196 $458 $454 $459 forward $121 $-1 #
coedge $-1 $456 $199 $196 $323 forward $317 $-1 #
edge $-1 $329 8.3668819603818498 $460 25.060785097907388 $322 $461 forward 7 unknown #
coedge $-1 $462 $463 $197 $325 forward $452 $-1 #
edge $-1 $464 -46.32667794242537 $328 -42.070354401943071 $324 $465 forward 7 unknown #
edge $-1 $329 30.985538824161168 $464 38.406212366304757 $198 $466 forward 7 unknown #
coedge $-1 $199 $456 $462 $467 forward $317 $-1 #
vertex $-1 $325 $468 #
vertex $-1 $200 $469 #
straight-curve $-1 25.080715489526469 20.350996464984657 9.2657463395712369 0 -1 0 I I #
coedge $-1 $331 $331 $-1 $470 reversed $203 $-1 #
edge $-1 $471 0 $471 6.2831853071796004 $204 $472 forward 7 unknown #
vertex $-1 $207 $473 #
ellipse-curve $-1 28.419496117031564 16.163776251333278 7.1375845693300795 0 0.57357644374324357 0.81915203911291934 1 0 0 1 I I #
coedge $-1 $335 $335 $-1 $474 reversed $210 $-1 #
edge $-1 $475 0 $475 6.2831853071796004 $211 $476 forward 7 unknown #
vertex $-1 $214 $477 #
ellipse-curve $-1 33.427667058289224 16.163776251333278 7.1375845693300795 0 0.57357644374324357 0.81915203911291934 1 0 0 1 I I #
coedge $-1 $339 $339 $-1 $478 reversed $217 $-1 #
edge $-1 $479 0 $479 6.2831853071796004 $218 $480 forward 7 unknown #
vertex $-1 $221 $481 #
ellipse-curve $-1 38.435837999546884 16.163776251333278 7.1375845693300795 0 0.57357644374324357 0.81915203911291934 1 0 0 1 I I #
face $-1 $-1 $355 $48 $-1 $482 forward single #
loop $-1 $-1 $483 $222 #
plane-surface $-1 0 -19.203106183152379 0 0 1 0 0 0 1 forward_v I I I I #
coedge $-1 $484 $485 $486 $487 reversed $223 $-1 #
coedge $-1 $488 $225 $227 $353 forward $140 $-1 #
coedge $-1 $225 $488 $484 $489 forward $140 $-1 #
coedge $-1 $486 $228 $225 $350 forward $355 $-1 #
edge $-1 $357 3.9165246308755997 $490 22.780768287484136 $349 $491 forward 7 unknown #
coedge $-1 $492 $493 $226 $352 forward $344 $-1 #
edge $-1 $494 -36.124208608292506 $356 -32.911953032959893 $351 $495 forward 7 unknown #
edge $-1 $357 -6.0617828973749583 $494 -1.675811683274863e-014 $227 $496 forward 7 unknown #
coedge $-1 $228 $486 $492 $497 forward $355 $-1 #
loop $-1 $-1 $486 $343 #
vertex $-1 $352 $498 #
vertex $-1 $229 $499 #
straight-curve $-1 -17.265171090055468 -34.065784787347724 9.2657463395712369 0 1 0 I I #
coedge $-1 $359 $359 $-1 $500 reversed $232 $-1 #
edge $-1 $501 0 $501 6.2831853071796004 $233 $502 forward 7 unknown #
vertex $-1 $236 $503 #
ellipse-curve $-1 -32.356566015342295 -16.632764473687857 7.6596185519049342 0 -0.52991927123019833 0.84804809178421925 1 0 0 1 I I #
coedge $-1 $363 $363 $-1 $504 reversed $239 $-1 #
edge $-1 $505 0 $505 6.2831853071796004 $240 $506 forward 7 unknown #
vertex $-1 $243 $507 #
ellipse-curve $-1 -26.697292918359736 -16.632764473687857 7.6596185519049342 0 -0.52991927123019833 0.84804809178421925 1 0 0 1 I I #
coedge $-1 $367 $367 $-1 $508 reversed $246 $-1 #
edge $-1 $509 0 $509 6.2831853071796004 $247 $510 forward 7 unknown #
vertex $-1 $250 $511 #
ellipse-curve $-1 -21.038019821377176 -16.632764473687857 7.6596185519049342 0 -0.52991927123019833 0.84804809178421925 1 0 0 1 I I #
face $-1 $-1 $383 $52 $-1 $512 forward single #
loop $-1 $-1 $513 $251 #
plane-surface $-1 0 -19.203106183152379 0 0 1 0 0 0 1 forward_v I I I I #
coedge $-1 $514 $515 $516 $517 reversed $252 $-1 #
coedge $-1 $518 $254 $256 $381 forward $159 $-1 #
coedge $-1 $254 $518 $514 $519 forward $159 $-1 #
coedge $-1 $516 $257 $254 $378 forward $383 $-1 #
edge $-1 $385 -16.65731896942302 $520 2.2069246871855164 $377 $521 forward 7 unknown #
coedge $-1 $522 $523 $255 $380 forward $372 $-1 #
edge $-1 $524 -36.124208608292506 $384 -32.911953032959893 $379 $525 forward 7 unknown #
edge $-1 $385 -6.0617828973749583 $524 -1.675811683274863e-014 $256 $526 forward 7 unknown #
coedge $-1 $257 $516 $522 $527 forward $383 $-1 #
loop $-1 $-1 $516 $371 #
vertex $-1 $380 $528 #
vertex $-1 $258 $529 #
straight-curve $-1 23.882516110541772 -34.065784787347724 9.2657463395712369 0 1 0 I I #
coedge $-1 $387 $387 $-1 $530 reversed $261 $-1 #
edge $-1 $531 0 $531 6.2831853071796004 $262 $532 forward 7 unknown #
vertex $-1 $265 $533 #
ellipse-curve $-1 8.7911211852549442 -16.632764473687857 7.6596185519049342 0 -0.52991927123019833 0.84804809178421925 1 0 0 1 I I #
coedge $-1 $391 $391 $-1 $534 reversed $268 $-1 #
edge $-1 $535 0 $535 6.2831853071796004 $269 $536 forward 7 unknown #
vertex $-1 $272 $537 #
ellipse-curve $-1 14.450394282237504 -16.632764473687857 7.6596185519049342 0 -0.52991927123019833 0.84804809178421925 1 0 0 1 I I #
coedge $-1 $395 $395 $-1 $538 reversed $275 $-1 #
edge $-1 $539 0 $539 6.2831853071796004 $276 $540 forward 7 unknown #
vertex $-1 $279 $541 #
ellipse-curve $-1 20.109667379220063 -16.632764473687857 7.6596185519049342 0 -0.52991927123019833 0.84804809178421925 1 0 0 1 I I #
face $-1 $-1 $295 $42 $-1 $542 reversed single #
loop $-1 $-1 $415 $280 #
plane-surface $-1 0 19.203106183152379 0 0 -1 0 0 0 -1 forward_v I I I I #
coedge $-1 $543 $413 $416 $544 forward $281 $-1 #
coedge $-1 $419 $283 $284 $407 reversed $178 $-1 #
coedge $-1 $413 $543 $283 $405 reversed $281 $-1 #
edge $-1 $420 -9.2657463395712352 $545 9.2657463395712352 $404 $546 forward 7 unknown #
coedge $-1 $285 $284 $543 $547 forward $113 $-1 #
edge $-1 $411 -46.165959654530475 $545 46.165959654530475 $403 $548 forward 7 unknown #
coedge $-1 $416 $415 $285 $409 reversed $400 $-1 #
edge $-1 $549 -46.165959654530475 $410 46.165959654530475 $408 $550 forward 7 unknown #
vertex $-1 $287 $551 #
vertex $-1 $422 $552 #
straight-curve $-1 46.165959654530475 0 -9.2657463395712352 0 -1 0 I I #
coedge $-1 $402 $404 $288 $414 reversed $281 $-1 #
edge $-1 $417 -19.203106183152379 $420 19.203106183152379 $413 $553 forward 7 unknown #
coedge $-1 $408 $289 $294 $423 forward $400 $-1 #
coedge $-1 $289 $408 $402 $544 reversed $400 $-1 #
vertex $-1 $290 $554 #
straight-curve $-1 0 19.203106183152379 9.2657463395712352 -1 0 0 I I #
coedge $-1 $291 $403 $293 $422 reversed $178 $-1 #
vertex $-1 $414 $555 #
straight-curve $-1 0 -19.203106183152379 9.2657463395712352 1 0 0 I I #
edge $-1 $296 -9.2657463395712352 $411 9.2657463395712352 $293 $556 forward 7 unknown #
edge $-1 $297 -9.2657463395712352 $410 9.2657463395712352 $294 $557 forward 7 unknown #
point $-1 46.165959654530475 -19.203106183152379 9.2657463395712352 #
point $-1 46.165959654530475 19.203106183152379 9.2657463395712352 #
face $-1 $-1 $443 $43 $-1 $558 reversed single #
loop $-1 $-1 $559 $299 #
plane-surface $-1 -46.165959654530475 0 0 1 0 0 0 0 -1 forward_v I I I I #
coedge $-1 $430 $446 $303 $433 forward $300 $-1 #
coedge $-1 $310 $429 $302 $431 forward $300 $-1 #
edge $-1 $437 -4.3451972251362232 $313 -0.1019056078890519 $430 $560 forward 7 unknown #
coedge $-1 $304 $303 $559 $561 reversed $117 $-1 #
edge $-1 $562 -25.592116054231855 $437 -15.555571146365384 $429 $563 forward 7 unknown #
coedge $-1 $442 $441 $304 $435 forward $443 $-1 #
edge $-1 $436 15.555571146365384 $564 25.592116054231855 $434 $565 forward 7 unknown #
vertex $-1 $435 $566 #
vertex $-1 $433 $567 #
straight-curve $-1 -36.129414746664004 0 -6.5687486416488614 0 -1 0 I I #
coedge $-1 $568 $569 $307 $440 forward $427 $-1 #
edge $-1 $447 -19.203106183152379 $444 19.203106183152379 $439 $570 forward 7 unknown #
coedge $-1 $434 $308 $312 $449 forward $443 $-1 #
coedge $-1 $308 $434 $568 $571 reversed $443 $-1 #
loop $-1 $-1 $434 $426 #
vertex $-1 $571 $572 #
straight-curve $-1 -20.57384360029862 19.203106183152379 -2.3254570244016897 1 0 0 I I #
coedge $-1 $429 $310 $569 $573 forward $300 $-1 #
vertex $-1 $573 $574 #
straight-curve $-1 -20.57384360029862 -19.203106183152379 -2.3254570244016897 -1 0 0 I I #
edge $-1 $314 0.1019056078890519 $436 4.3451972251362232 $441 $575 forward 7 unknown #
point $-1 -36.129414746664004 -19.203106183152379 -2.3254570244016897 #
point $-1 -36.129414746664004 19.203106183152379 -2.3254570244016897 #
loop $-1 $-1 $324 $316 #
plane-surface $-1 0 19.203106183152379 0 0 -1 0 0 0 -1 forward_v I I I I #
coedge $-1 $455 $319 $321 $459 reversed $194 $-1 #
coedge $-1 $319 $454 $576 $577 reversed $194 $-1 #
coedge $-1 $327 $322 $319 $457 forward $317 $-1 #
edge $-1 $460 -7.2265501454704939 $578 -1.1478902818322787 $456 $579 forward 7 unknown #
coedge $-1 $321 $320 $463 $580 reversed $121 $-1 #
edge $-1 $581 -38.406212366304757 $460 -30.985538824161168 $454 $582 forward 7 unknown #
vertex $-1 $323 $583 #
straight-curve $-1 16.713833529144619 13.124446319514167 9.2657463395712369 1 0 0 I I #
coedge $-1 $576 $324 $327 $467 reversed $452 $-1 #
coedge $-1 $324 $576 $458 $580 forward $452 $-1 #
vertex $-1 $325 $584 #
straight-curve $-1 25.080715489526469 19.203106183152379 51.336100741514308 0 0 1 I I #
straight-curve $-1 25.080715489526469 -12.257420991309985 27.038321505801804 0 0.81915203911291934 -0.57357644374324357 I I #
edge $-1 $578 -41.774618627052007 $328 -25.080715489526469 $462 $585 forward 7 unknown #
point $-1 25.080715489526469 19.203106183152379 9.2657463395712352 #
point $-1 25.080715489526469 13.124446319514163 9.2657463395712369 #
edge $-1 $586 1 $586 0 $331 $-1 forward 7 unknown #
vertex $-1 $332 $587 #
ellipse-curve $-1 28.419496117031564 14.018873074930479 4.0743454321303689 0 0.57357644374324357 0.81915203911291934 1 0 0 1 I I #
point $-1 29.419496117031564 16.163776251333289 7.1375845693300928 #
edge $-1 $588 1 $588 0 $335 $-1 forward 7 unknown #
vertex $-1 $336 $589 #
ellipse-curve $-1 33.427667058289224 14.018873074930479 4.0743454321303689 0 0.57357644374324357 0.81915203911291934 1 0 0 1 I I #
point $-1 34.427667058289224 16.163776251333289 7.1375845693300928 #
edge $-1 $590 1 $590 0 $339 $-1 forward 7 unknown #
vertex $-1 $340 $591 #
ellipse-curve $-1 38.435837999546884 14.018873074930479 4.0743454321303689 0 0.57357644374324357 0.81915203911291934 1 0 0 1 I I #
point $-1 39.435837999546884 16.163776251333289 7.1375845693300928 #
plane-surface $-1 0 0 9.2657463395712352 0 0 1 1 0 0 forward_v I I I I #
coedge $-1 $493 $492 $485 $592 forward $344 $-1 #
coedge $-1 $485 $346 $348 $489 reversed $223 $-1 #
coedge $-1 $346 $484 $483 $592 reversed $223 $-1 #
coedge $-1 $354 $349 $346 $487 forward $355 $-1 #
edge $-1 $490 -20.003362023124382 $593 -14.862678604195345 $486 $594 forward 7 unknown #
coedge $-1 $348 $347 $493 $595 reversed $140 $-1 #
edge $-1 $596 1.675811683274863e-014 $490 6.0617828973749583 $484 $597 forward 7 unknown #
vertex $-1 $350 $598 #
straight-curve $-1 -13.348646459179868 -14.062422764223344 9.2657463395712352 -1 0 0 I I #
coedge $-1 $483 $351 $354 $497 reversed $344 $-1 #
coedge $-1 $351 $483 $488 $595 forward $344 $-1 #
vertex $-1 $352 $599 #
straight-curve $-1 -17.265171090055468 -19.203106183152379 42.17769937253113 0 0 1 I I #
straight-curve $-1 -17.265171090055468 -19.203106183152393 6.0534907642386173 0 -0.84804809178421925 -0.52991927123019833 I I #
edge $-1 $593 -36.129414746664004 $356 -17.265171090055468 $492 $600 forward 7 unknown #
point $-1 -17.265171090055468 -19.203106183152379 9.2657463395712352 #
point $-1 -17.265171090055468 -14.062422764223344 9.2657463395712352 #
edge $-1 $601 1 $601 0 $359 $-1 forward 7 unknown #
vertex $-1 $360 $602 #
ellipse-curve $-1 -32.356566015342295 -14.594887116355249 4.3983331108901984 0 -0.52991927123019833 0.84804809178421925 1 0 0 1 I I #
point $-1 -31.356566015342295 -16.63276447368785 7.6596185519049236 #
edge $-1 $603 1 $603 0 $363 $-1 forward 7 unknown #
vertex $-1 $364 $604 #
ellipse-curve $-1 -26.697292918359736 -14.594887116355249 4.3983331108901984 0 -0.52991927123019833 0.84804809178421925 1 0 0 1 I I #
point $-1 -25.697292918359736 -16.63276447368785 7.6596185519049236 #
edge $-1 $605 1 $605 0 $367 $-1 forward 7 unknown #
vertex $-1 $368 $606 #
ellipse-curve $-1 -21.038019821377176 -14.594887116355249 4.3983331108901984 0 -0.52991927123019833 0.84804809178421925 1 0 0 1 I I #
point $-1 -20.038019821377176 -16.63276447368785 7.6596185519049236 #
plane-surface $-1 0 0 9.2657463395712352 0 0 1 1 0 0 forward_v I I I I #
coedge $-1 $523 $522 $515 $607 forward $372 $-1 #
coedge $-1 $515 $374 $376 $519 reversed $252 $-1 #
coedge $-1 $374 $514 $513 $607 reversed $252 $-1 #
coedge $-1 $382 $377 $374 $517 forward $383 $-1 #
edge $-1 $520 -20.003362023124382 $608 -14.862678604195345 $516 $609 forward 7 unknown #
coedge $-1 $376 $375 $523 $610 reversed $159 $-1 #
edge $-1 $611 1.675811683274863e-014 $520 6.0617828973749583 $514 $612 forward 7 unknown #
vertex $-1 $378 $613 #
straight-curve $-1 7.2251971411187519 -14.062422764223344 9.2657463395712352 -1 0 0 I I #
coedge $-1 $513 $379 $382 $527 reversed $372 $-1 #
coedge $-1 $379 $513 $518 $610 forward $372 $-1 #
vertex $-1 $380 $614 #
straight-curve $-1 23.882516110541772 -19.203106183152379 42.17769937253113 0 0 1 I I #
straight-curve $-1 23.882516110541772 -19.203106183152393 6.0534907642386173 0 -0.84804809178421925 -0.52991927123019833 I I #
edge $-1 $608 5.0182724539332355 $384 23.882516110541772 $522 $615 forward 7 unknown #
point $-1 23.882516110541772 -19.203106183152379 9.2657463395712352 #
point $-1 23.882516110541772 -14.062422764223344 9.2657463395712352 #
edge $-1 $616 1 $616 0 $387 $-1 forward 7 unknown #
vertex $-1 $388 $617 #
ellipse-curve $-1 8.7911211852549442 -14.594887116355249 4.3983331108901984 0 -0.52991927123019833 0.84804809178421925 1 0 0 1 I I #
point $-1 9.7911211852549442 -16.63276447368785 7.6596185519049236 #
edge $-1 $618 1 $618 0 $391 $-1 forward 7 unknown #
vertex $-1 $392 $619 #
ellipse-curve $-1 14.450394282237504 -14.594887116355249 4.3983331108901984 0 -0.52991927123019833 0.84804809178421925 1 0 0 1 I I #
point $-1 15.450394282237504 -16.63276447368785 7.6596185519049236 #
edge $-1 $620 1 $620 0 $395 $-1 forward 7 unknown #
vertex $-1 $396 $621 #
ellipse-curve $-1 20.109667379220063 -14.594887116355249 4.3983331108901984 0 -0.52991927123019833 0.84804809178421925 1 0 0 1 I I #
point $-1 21.109667379220063 -16.63276447368785 7.6596185519049236 #
plane-surface $-1 46.165959654530475 0 0 -1 0 0 0 0 1 forward_v I I I I #
coedge $-1 $404 $402 $406 $547 reversed $281 $-1 #
edge $-1 $417 -9.2657463395712352 $549 9.2657463395712352 $416 $622 forward 7 unknown #
vertex $-1 $547 $623 #
straight-curve $-1 -46.165959654530475 -19.203106183152379 0 0 0 -1 I I #
edge $-1 $545 -19.203106183152379 $549 19.203106183152379 $543 $624 forward 7 unknown #
straight-curve $-1 0 -19.203106183152379 -9.2657463395712352 -1 0 0 I I #
vertex $-1 $409 $625 #
straight-curve $-1 0 19.203106183152379 -9.2657463395712352 1 0 0 I I #
point $-1 46.165959654530475 19.203106183152379 -9.2657463395712352 #
point $-1 46.165959654530475 -19.203106183152379 -9.2657463395712352 #
straight-curve $-1 -46.165959654530475 0 9.2657463395712352 0 -1 0 I I #
point $-1 -46.165959654530475 19.203106183152379 9.2657463395712352 #
point $-1 -46.165959654530475 -19.203106183152379 9.2657463395712352 #
straight-curve $-1 46.165959654530475 -19.203106183152379 0 0 0 -1 I I #
straight-curve $-1 46.165959654530475 19.203106183152379 0 0 0 -1 I I #
plane-surface $-1 0 19.203106183152379 0 0 -1 0 0 0 -1 forward_v I I I I #
coedge $-1 $569 $568 $432 $561 forward $427 $-1 #
straight-curve $-1 -36.129414746664004 -19.203106183152379 -2.2235514165126378 0 0 1 I I #
edge $-1 $564 -19.203106183152379 $562 19.203106183152379 $559 $626 forward 7 unknown #
vertex $-1 $433 $627 #
straight-curve $-1 -20.57384360029862 -19.203106183152379 -6.5687486416488614 1 0 0 I I #
vertex $-1 $435 $628 #
straight-curve $-1 -20.57384360029862 19.203106183152379 -6.5687486416488614 -1 0 0 I I #
point $-1 -36.129414746664004 19.203106183152379 -6.5687486416488614 #
point $-1 -36.129414746664004 -19.203106183152379 -6.5687486416488614 #
coedge $-1 $559 $439 $442 $571 forward $427 $-1 #
coedge $-1 $439 $559 $446 $573 reversed $427 $-1 #
straight-curve $-1 -46.165959654530475 0 -2.3254570244016897 0 1 0 I I #
edge $-1 $444 2.3254570244016897 $564 6.5687486416488614 $442 $629 forward 7 unknown #
point $-1 -46.165959654530475 19.203106183152379 -2.3254570244016897 #
edge $-1 $447 2.3254570244016897 $562 6.5687486416488614 $569 $630 forward 7 unknown #
point $-1 -46.165959654530475 -19.203106183152379 -2.3254570244016897 #
straight-curve $-1 -36.129414746664004 19.203106183152379 -2.2235514165126378 0 0 -1 I I #
coedge $-1 $463 $462 $455 $577 forward $452 $-1 #
edge $-1 $578 42.070354401943071 $581 46.32667794242537 $576 $631 forward 7 unknown #
vertex $-1 $467 $632 #
straight-curve $-1 41.774618627052007 20.350996464984657 9.2657463395712369 0 1 0 I I #
edge $-1 $581 -25.060785097907388 $464 -8.3668819603818498 $463 $633 forward 7 unknown #
vertex $-1 $580 $634 #
straight-curve $-1 41.774618627052007 -12.257420991309985 27.038321505801804 0 -0.81915203911291934 0.57357644374324357 I I #
point $-1 41.774618627052007 13.124446319514163 9.2657463395712369 #
point $-1 25.080715489526469 19.203106183152375 5.0094227990889379 #
straight-curve $-1 0 19.203106183152379 9.2657463395712352 -1 0 0 I I #
vertex $-1 $470 $635 #
point $-1 29.419496117031564 14.018873074930479 4.0743454321303689 #
vertex $-1 $474 $636 #
point $-1 34.427667058289224 14.018873074930479 4.0743454321303689 #
vertex $-1 $478 $637 #
point $-1 39.435837999546884 14.018873074930479 4.0743454321303689 #
edge $-1 $593 32.911953032959893 $596 36.124208608292506 $483 $638 forward 7 unknown #
vertex $-1 $497 $639 #
straight-curve $-1 -36.129414746664004 -34.065784787347724 9.2657463395712369 0 -1 0 I I #
edge $-1 $596 -22.780768287484136 $494 -3.9165246308755997 $493 $640 forward 7 unknown #
vertex $-1 $595 $641 #
straight-curve $-1 -36.129414746664004 -19.203106183152393 6.0534907642386173 0 0.84804809178421925 0.52991927123019833 I I #
point $-1 -36.129414746664004 -14.062422764223344 9.2657463395712352 #
point $-1 -17.265171090055468 -19.203106183152379 6.0534907642386262 #
straight-curve $-1 0 -19.203106183152379 9.2657463395712352 1 0 0 I I #
vertex $-1 $500 $642 #
point $-1 -31.356566015342295 -14.594887116355249 4.3983331108901984 #
vertex $-1 $504 $643 #
point $-1 -25.697292918359736 -14.594887116355249 4.3983331108901984 #
vertex $-1 $508 $644 #
point $-1 -20.038019821377176 -14.594887116355249 4.3983331108901984 #
edge $-1 $608 32.911953032959893 $611 36.124208608292506 $513 $645 forward 7 unknown #
vertex $-1 $527 $646 #
straight-curve $-1 5.0182724539332355 -34.065784787347724 9.2657463395712369 0 -1 0 I I #
edge $-1 $611 -2.2069246871855164 $524 16.65731896942302 $523 $647 forward 7 unknown #
vertex $-1 $610 $648 #
straight-curve $-1 5.0182724539332355 -19.203106183152393 6.0534907642386173 0 0.84804809178421925 0.52991927123019833 I I #
point $-1 5.0182724539332355 -14.062422764223344 9.2657463395712352 #
point $-1 23.882516110541772 -19.203106183152379 6.0534907642386262 #
straight-curve $-1 0 -19.203106183152379 9.2657463395712352 1 0 0 I I #
vertex $-1 $530 $649 #
point $-1 9.7911211852549442 -14.594887116355249 4.3983331108901984 #
vertex $-1 $534 $650 #
point $-1 15.450394282237504 -14.594887116355249 4.3983331108901984 #
vertex $-1 $538 $651 #
point $-1 21.109667379220063 -14.594887116355249 4.3983331108901984 #
straight-curve $-1 -46.165959654530475 19.203106183152379 0 0 0 -1 I I #
point $-1 -46.165959654530475 -19.203106183152379 -9.2657463395712352 #
straight-curve $-1 -46.165959654530475 0 -9.2657463395712352 0 1 0 I I #
point $-1 -46.165959654530475 19.203106183152379 -9.2657463395712352 #
straight-curve $-1 -46.165959654530475 0 -6.5687486416488614 0 -1 0 I I #
point $-1 -46.165959654530475 -19.203106183152379 -6.5687486416488614 #
point $-1 -46.165959654530475 19.203106183152379 -6.5687486416488614 #
straight-curve $-1 -46.165959654530475 19.203106183152379 0 0 0 -1 I I #
straight-curve $-1 -46.165959654530475 -19.203106183152379 0 0 0 -1 I I #
straight-curve $-1 41.774618627052007 19.203106183152379 51.336100741514308 0 0 -1 I I #
point $-1 41.774618627052007 19.203106183152379 9.2657463395712352 #
straight-curve $-1 16.713833529144619 19.203106183152379 5.0094227990889344 -1 0 0 I I #
point $-1 41.774618627052007 19.203106183152375 5.0094227990889379 #
point $-1 28.419496117031564 13.445296631187237 3.2551933930174495 #
point $-1 33.427667058289224 13.445296631187237 3.2551933930174495 #
point $-1 38.435837999546884 13.445296631187237 3.2551933930174495 #
straight-curve $-1 -36.129414746664004 -19.203106183152379 42.17769937253113 0 0 -1 I I #
point $-1 -36.129414746664004 -19.203106183152379 9.2657463395712352 #
straight-curve $-1 -13.348646459179868 -19.203106183152379 6.0534907642386262 1 0 0 I I #
point $-1 -36.129414746664004 -19.203106183152379 6.0534907642386262 #
point $-1 -32.356566015342295 -14.06496784512505 3.5502850191059787 #
point $-1 -26.697292918359736 -14.06496784512505 3.5502850191059787 #
point $-1 -21.038019821377176 -14.06496784512505 3.5502850191059787 #
straight-curve $-1 5.0182724539332355 -19.203106183152379 42.17769937253113 0 0 -1 I I #
point $-1 5.0182724539332355 -19.203106183152379 9.2657463395712352 #
straight-curve $-1 7.2251971411187519 -19.203106183152379 6.0534907642386262 1 0 0 I I #
point $-1 5.0182724539332355 -19.203106183152379 6.0534907642386262 #
point $-1 8.7911211852549442 -14.06496784512505 3.5502850191059787 #
point $-1 14.450394282237504 -14.06496784512505 3.5502850191059787 #
point $-1 20.109667379220063 -14.06496784512505 3.5502850191059787 #
End-of-ACIS-data 