500 0 7 0           
7 Unknown 11 ACIS 5.0 NT 24 Thu Mar 25 21:07:01 1999 
-1 9.9999999999999995e-007 1e-010 
body $-1 $7 $-1 $8 #
body $-1 $9 $-1 $10 #
body $-1 $11 $-1 $12 #
body $-1 $13 $-1 $14 #
body $-1 $15 $-1 $16 #
body $-1 $17 $-1 $18 #
body $-1 $19 $-1 $20 #
lump $-1 $-1 $21 $0 #
transform $-1 1 0 0 0 1 0 0 0 1 68.987701040681173 40.095482570538543 18.873400191395991 1 rotate no_reflect no_shear #
lump $-1 $-1 $22 $1 #
transform $-1 1 0 0 0 1 0 0 0 1 68.987701040681173 40.095482570538543 18.873400191395991 1 rotate no_reflect no_shear #
lump $-1 $-1 $23 $2 #
transform $-1 1 0 0 0 1 0 0 0 1 68.987701040681173 40.095482570538543 18.873400191395991 1 rotate no_reflect no_shear #
lump $-1 $-1 $24 $3 #
transform $-1 1 0 0 0 1 0 0 0 1 68.987701040681173 40.095482570538543 18.873400191395991 1 rotate no_reflect no_shear #
lump $-1 $-1 $25 $4 #
transform $-1 1 0 0 0 1 0 0 0 1 68.987701040681173 40.095482570538543 18.873400191395991 1 rotate no_reflect no_shear #
lump $-1 $-1 $26 $5 #
transform $-1 1 0 0 0 1 0 0 0 1 68.987701040681173 40.095482570538543 18.873400191395991 1 rotate no_reflect no_shear #
lump $-1 $-1 $27 $6 #
transform $-1 1 0 0 0 1 0 0 0 1 68.987701040681173 40.095482570538543 18.873400191395991 1 rotate no_reflect no_shear #
shell $-1 $-1 $-1 $28 $-1 $7 #
shell $-1 $-1 $-1 $29 $-1 $9 #
shell $-1 $-1 $-1 $30 $-1 $11 #
shell $-1 $-1 $-1 $31 $-1 $13 #
shell $-1 $-1 $-1 $32 $-1 $15 #
shell $-1 $-1 $-1 $33 $-1 $17 #
shell $-1 $-1 $-1 $34 $-1 $19 #
face $-1 $35 $36 $21 $-1 $37 forward single #
face $-1 $38 $39 $22 $-1 $40 forward single #
face $-1 $41 $42 $23 $-1 $43 reversed single #
face $-1 $44 $45 $24 $-1 $46 forward single #
face $-1 $47 $48 $25 $-1 $49 forward single #
face $-1 $50 $51 $26 $-1 $52 reversed single #
face $-1 $53 $54 $27 $-1 $55 forward single #
face $-1 $56 $57 $21 $-1 $58 reversed single #
loop $-1 $-1 $59 $28 #
plane-surface $-1 0 0 18.873400191395991 0 0 1 1 0 0 forward_v I I I I #
face $-1 $60 $61 $22 $-1 $62 forward single #
loop $-1 $-1 $63 $29 #
plane-surface $-1 0 -40.095482570538543 0 0 1 0 0 0 1 forward_v I I I I #
face $-1 $64 $65 $23 $-1 $66 reversed single #
loop $-1 $-1 $67 $30 #
plane-surface $-1 -153.93384171001043 23.174480701143217 113.39554474501047 0 1 0 -0.61566148304635926 0 0.78801074757464917 forward_v I I I I #
face $-1 $68 $69 $24 $-1 $70 forward single #
loop $-1 $71 $72 $31 #
cone-surface $-1 -59.324320486382575 26.164675532124157 11.037678223343386 0.61566148304635926 0 -0.78801074757464917 0.78801074757464917 0 0.61566148304635926 1 I I 0 1 1 forward I I I I #
face $-1 $73 $74 $25 $-1 $75 forward single #
loop $-1 $76 $77 $32 #
cone-surface $-1 -59.324320486382575 30.649967778595574 11.037678223343386 0.61566148304635926 0 -0.78801074757464917 0.78801074757464917 0 0.61566148304635926 1 I I 0 1 1 forward I I I I #
face $-1 $78 $79 $26 $-1 $80 reversed single #
loop $-1 $-1 $81 $33 #
plane-surface $-1 58.775561508203552 -5.780549237726925 195.60578117214089 0 -1 0 -0.66913061440640931 0 -0.74314481823134659 forward_v I I I I #
face $-1 $82 $83 $27 $-1 $84 forward single #
loop $-1 $85 $86 $34 #
cone-surface $-1 57.673776053516519 -15.081792438006534 8.4239665615973927 -0.66913061440640931 0 -0.74314481823134659 2.2294344546940397 0 -2.0073918432192279 1 I I 0 1 3 forward I I I I #
face $-1 $87 $88 $21 $-1 $89 reversed single #
loop $-1 $-1 $90 $35 #
plane-surface $-1 0 0 -18.873400191395991 0 0 1 1 0 0 forward_v I I I I #
coedge $-1 $91 $92 $93 $94 forward $36 $-1 #
face $-1 $95 $96 $22 $-1 $97 reversed single #
loop $-1 $-1 $98 $38 #
plane-surface $-1 0 0 18.873400191395991 0 0 1 1 0 0 forward_v I I I I #
coedge $-1 $99 $100 $101 $102 forward $39 $-1 #
face $-1 $103 $104 $23 $-1 $105 reversed single #
loop $-1 $-1 $106 $41 #
plane-surface $-1 -68.987701040681159 28.407321655359873 4.6694450039633182 -0.61566148304635926 0 0.78801074757464917 0.78801074757464917 0 0.61566148304635926 forward_v I I I I #
coedge $-1 $107 $108 $109 $110 reversed $42 $-1 #
face $-1 $-1 $111 $24 $-1 $112 forward single #
loop $-1 $113 $114 $44 #
cone-surface $-1 -58.44322580008307 26.164675532124157 9.9099284752198002 0.61566148304635926 0 -0.78801074757464917 0.39400537378732459 0 0.30783074152317963 1 I I -0.70710678118654746 0.70710678118654746 0.5 forward I I I I #
loop $-1 $-1 $115 $31 #
coedge $-1 $72 $72 $116 $117 reversed $45 $-1 #
face $-1 $-1 $118 $25 $-1 $119 forward single #
loop $-1 $120 $121 $47 #
cone-surface $-1 -58.44322580008307 30.649967778595574 9.9099284752198002 0.61566148304635926 0 -0.78801074757464917 0.39400537378732459 0 0.30783074152317963 1 I I -0.70710678118654746 0.70710678118654746 0.5 forward I I I I #
loop $-1 $-1 $122 $32 #
coedge $-1 $77 $77 $123 $124 reversed $48 $-1 #
face $-1 $125 $126 $26 $-1 $127 reversed single #
loop $-1 $-1 $128 $50 #
plane-surface $-1 -33.548004059469804 -15.081792438006538 93.070076071989916 0.66913061440640931 0 0.74314481823134659 0.74314481823134659 0 -0.66913061440640931 forward_v I I I I #
coedge $-1 $129 $130 $131 $132 reversed $51 $-1 #
face $-1 $-1 $133 $27 $-1 $134 forward single #
loop $-1 $135 $136 $53 #
cone-surface $-1 55.422130196230853 -15.081792438006534 5.9232605479914859 -0.66913061440640931 0 -0.74314481823134659 1.1147172273470198 0 -1.003695921609614 1 I I -0.70710678118654757 0.70710678118654757 1.5 forward I I I I #
loop $-1 $-1 $137 $34 #
coedge $-1 $86 $86 $138 $139 reversed $54 $-1 #
face $-1 $140 $141 $21 $-1 $142 reversed single #
loop $-1 $-1 $143 $56 #
plane-surface $-1 0 -40.095482570538543 0 0 1 0 0 0 1 forward_v I I I I #
coedge $-1 $144 $145 $146 $147 forward $57 $-1 #
coedge $-1 $148 $59 $149 $150 forward $36 $-1 #
coedge $-1 $59 $148 $151 $152 forward $36 $-1 #
coedge $-1 $153 $154 $59 $94 reversed $155 $-1 #
edge $-1 $156 -40.095482570538543 $157 40.095482570538543 $93 $158 forward 7 unknown #
face $-1 $159 $160 $22 $-1 $161 reversed single #
loop $-1 $-1 $162 $60 #
plane-surface $-1 -68.987701040681173 0 0 1 0 0 0 0 -1 forward_v I I I I #
coedge $-1 $163 $164 $100 $165 forward $61 $-1 #
coedge $-1 $166 $63 $167 $168 reversed $39 $-1 #
coedge $-1 $63 $166 $98 $165 reversed $39 $-1 #
coedge $-1 $169 $170 $63 $102 reversed $171 $-1 #
edge $-1 $172 -18.873400191395991 $173 18.873400191395991 $101 $174 forward 7 unknown #
face $-1 $175 $176 $23 $-1 $177 reversed single #
loop $-1 $-1 $178 $64 #
plane-surface $-1 -153.93384171001043 33.640162609576528 113.39554474501047 0 -1 0 0.61566148304635926 0 -0.78801074757464917 forward_v I I I I #
coedge $-1 $179 $180 $181 $182 reversed $65 $-1 #
coedge $-1 $108 $67 $183 $184 reversed $42 $-1 #
coedge $-1 $67 $107 $179 $185 reversed $42 $-1 #
coedge $-1 $181 $186 $67 $110 forward $187 $-1 #
edge $-1 $188 7.9792198143240398 $189 26.159453033368578 $109 $190 forward 7 unknown #
loop $-1 $-1 $116 $68 #
plane-surface $-1 -68.987701040681159 28.407321655359873 4.6694450039633182 -0.61566148304635926 0 0.78801074757464917 0.78801074757464917 0 0.61566148304635926 forward_v I I I I #
loop $-1 $-1 $191 $44 #
coedge $-1 $114 $114 $115 $192 reversed $69 $-1 #
coedge $-1 $115 $115 $114 $192 forward $71 $-1 #
coedge $-1 $116 $116 $72 $117 forward $111 $-1 #
edge $-1 $193 0 $193 6.2831853071796004 $116 $194 forward 7 unknown #
loop $-1 $-1 $123 $73 #
plane-surface $-1 -68.987701040681159 28.407321655359873 4.6694450039633182 -0.61566148304635926 0 0.78801074757464917 0.78801074757464917 0 0.61566148304635926 forward_v I I I I #
loop $-1 $-1 $195 $47 #
coedge $-1 $121 $121 $122 $196 reversed $74 $-1 #
coedge $-1 $122 $122 $121 $196 forward $76 $-1 #
coedge $-1 $123 $123 $77 $124 forward $118 $-1 #
edge $-1 $197 0 $197 6.2831853071796004 $123 $198 forward 7 unknown #
face $-1 $199 $200 $26 $-1 $201 forward single #
loop $-1 $-1 $202 $78 #
plane-surface $-1 58.775561508203552 -24.383035638286152 195.60578117214089 0 1 0 0.66913061440640931 0 0.74314481823134659 forward_v I I I I #
coedge $-1 $203 $204 $205 $206 reversed $79 $-1 #
coedge $-1 $130 $81 $207 $208 reversed $51 $-1 #
coedge $-1 $81 $129 $203 $209 reversed $51 $-1 #
coedge $-1 $205 $210 $81 $132 forward $200 $-1 #
edge $-1 $211 -39.599920286579398 $212 -19.467970183602198 $131 $213 forward 7 unknown #
loop $-1 $-1 $138 $82 #
plane-surface $-1 -33.548004059469804 -15.081792438006538 93.070076071989916 0.66913061440640931 0 0.74314481823134659 0.74314481823134659 0 -0.66913061440640931 forward_v I I I I #
loop $-1 $-1 $214 $53 #
coedge $-1 $136 $136 $137 $215 reversed $83 $-1 #
coedge $-1 $137 $137 $136 $215 forward $85 $-1 #
coedge $-1 $138 $138 $86 $139 forward $133 $-1 #
edge $-1 $216 0 $216 6.2831853071796004 $138 $217 forward 7 unknown #
face $-1 $218 $219 $21 $-1 $220 reversed single #
loop $-1 $-1 $221 $87 #
plane-surface $-1 -68.987701040681173 0 0 1 0 0 0 0 -1 forward_v I I I I #
coedge $-1 $222 $151 $223 $224 forward $88 $-1 #
coedge $-1 $225 $90 $222 $226 forward $57 $-1 #
coedge $-1 $90 $225 $227 $228 forward $57 $-1 #
coedge $-1 $154 $153 $90 $147 reversed $155 $-1 #
edge $-1 $229 -40.095482570538543 $230 40.095482570538543 $146 $231 forward 7 unknown #
coedge $-1 $92 $91 $232 $233 forward $36 $-1 #
coedge $-1 $234 $235 $91 $150 reversed $219 $-1 #
edge $-1 $157 -68.987701040681173 $236 68.987701040681173 $149 $237 forward 7 unknown #
coedge $-1 $143 $238 $92 $152 reversed $88 $-1 #
edge $-1 $239 -68.987701040681173 $156 68.987701040681173 $151 $240 forward 7 unknown #
coedge $-1 $146 $93 $238 $241 forward $155 $-1 #
coedge $-1 $93 $146 $234 $242 reversed $155 $-1 #
loop $-1 $-1 $153 $218 #
vertex $-1 $94 $243 #
vertex $-1 $94 $244 #
straight-curve $-1 68.987701040681173 0 18.873400191395991 0 1 0 I I #
face $-1 $245 $171 $22 $-1 $246 reversed single #
loop $-1 $-1 $247 $95 #
plane-surface $-1 -65.833072130245171 -55.807929502790934 0 0 1 0 0 0 1 forward_v I I I I #
coedge $-1 $248 $249 $166 $250 forward $96 $-1 #
coedge $-1 $251 $98 $249 $252 forward $61 $-1 #
coedge $-1 $98 $251 $169 $253 forward $61 $-1 #
edge $-1 $172 62.678443219809161 $254 68.987701040681173 $98 $255 forward 7 unknown #
coedge $-1 $100 $99 $162 $250 reversed $39 $-1 #
coedge $-1 $256 $257 $99 $168 forward $258 $-1 #
edge $-1 $259 -68.987701040681173 $173 -62.678443219809161 $167 $260 forward 7 unknown #
coedge $-1 $261 $101 $164 $253 reversed $171 $-1 #
coedge $-1 $101 $261 $256 $262 reversed $171 $-1 #
loop $-1 $-1 $261 $159 #
vertex $-1 $165 $263 #
vertex $-1 $262 $264 #
straight-curve $-1 -62.678443219809161 -40.095482570538543 0 0 0 -1 I I #
face $-1 $-1 $187 $23 $-1 $265 forward single #
loop $-1 $-1 $266 $103 #
plane-surface $-1 -68.987701040681173 0 0 1 0 0 0 0 -1 forward_v I I I I #
coedge $-1 $267 $268 $269 $270 reversed $104 $-1 #
coedge $-1 $271 $106 $108 $185 forward $65 $-1 #
coedge $-1 $106 $271 $267 $272 forward $65 $-1 #
coedge $-1 $269 $109 $106 $182 forward $187 $-1 #
edge $-1 $189 8.9708198734632809 $273 19.436501781896592 $181 $274 forward 7 unknown #
coedge $-1 $275 $276 $107 $184 forward $176 $-1 #
edge $-1 $277 -52.02832736854193 $188 -37.82437218110924 $183 $278 forward 7 unknown #
edge $-1 $189 -23.071047285839573 $277 1.830693040787162e-014 $108 $279 forward 7 unknown #
coedge $-1 $109 $269 $275 $280 forward $187 $-1 #
loop $-1 $-1 $269 $175 #
vertex $-1 $184 $281 #
vertex $-1 $110 $282 #
straight-curve $-1 -76.966920855005213 23.174480701143217 18.873400191395987 1 0 0 I I #
coedge $-1 $191 $191 $-1 $283 reversed $113 $-1 #
edge $-1 $284 0 $284 6.2831853071796004 $114 $285 forward 7 unknown #
vertex $-1 $117 $286 #
ellipse-curve $-1 -59.897584431158904 26.164675532124157 11.771422597679649 -0.61566148304635926 0 0.78801074757464917 0.78801074757464917 0 0.61566148304635926 1 I I #
coedge $-1 $195 $195 $-1 $287 reversed $120 $-1 #
edge $-1 $288 0 $288 6.2831853071796004 $121 $289 forward 7 unknown #
vertex $-1 $124 $290 #
ellipse-curve $-1 -59.897584431158904 30.649967778595574 11.771422597679649 -0.61566148304635926 0 0.78801074757464917 0.78801074757464917 0 0.61566148304635926 1 I I #
face $-1 $-1 $291 $26 $-1 $292 reversed single #
loop $-1 $-1 $131 $125 #
plane-surface $-1 0 0 18.873400191395991 0 0 1 1 0 0 forward_v I I I I #
coedge $-1 $293 $294 $295 $296 reversed $126 $-1 #
coedge $-1 $297 $128 $130 $209 forward $79 $-1 #
coedge $-1 $128 $297 $293 $298 forward $79 $-1 #
coedge $-1 $295 $131 $128 $206 forward $200 $-1 #
edge $-1 $212 -1.7603469812763439 $299 16.842139419282883 $205 $300 forward 7 unknown #
coedge $-1 $301 $302 $129 $208 forward $291 $-1 #
edge $-1 $303 -97.056380081753886 $211 -78.92949039467446 $207 $304 forward 7 unknown #
edge $-1 $212 110.88519084785015 $303 137.97540208136235 $130 $305 forward 7 unknown #
coedge $-1 $131 $295 $301 $306 forward $200 $-1 #
vertex $-1 $132 $307 #
vertex $-1 $132 $308 #
straight-curve $-1 29.387780754101776 -5.780549237726925 18.873400191395987 -1 0 0 I I #
coedge $-1 $214 $214 $-1 $309 reversed $135 $-1 #
edge $-1 $310 0 $310 6.2831853071796004 $136 $311 forward 7 unknown #
vertex $-1 $139 $312 #
ellipse-curve $-1 58.921725989192574 -15.081792438006534 9.8099553478562775 0.66913061440640931 0 0.74314481823134659 2.2294344546940397 0 -2.0073918432192279 1 I I #
face $-1 $-1 $155 $21 $-1 $313 reversed single #
loop $-1 $-1 $234 $140 #
plane-surface $-1 0 40.095482570538543 0 0 -1 0 0 0 -1 forward_v I I I I #
coedge $-1 $314 $232 $235 $315 forward $141 $-1 #
coedge $-1 $238 $143 $144 $226 reversed $88 $-1 #
coedge $-1 $232 $314 $143 $224 reversed $141 $-1 #
edge $-1 $239 -18.873400191395991 $316 18.873400191395991 $223 $317 forward 7 unknown #
coedge $-1 $145 $144 $314 $318 forward $57 $-1 #
edge $-1 $230 -68.987701040681173 $316 68.987701040681173 $222 $319 forward 7 unknown #
coedge $-1 $235 $234 $145 $228 reversed $219 $-1 #
edge $-1 $320 -68.987701040681173 $229 68.987701040681173 $227 $321 forward 7 unknown #
vertex $-1 $147 $322 #
vertex $-1 $241 $323 #
straight-curve $-1 68.987701040681173 0 -18.873400191395991 0 -1 0 I I #
coedge $-1 $221 $223 $148 $233 reversed $141 $-1 #
edge $-1 $236 -40.095482570538543 $239 40.095482570538543 $232 $324 forward 7 unknown #
coedge $-1 $227 $149 $154 $242 forward $219 $-1 #
coedge $-1 $149 $227 $221 $315 reversed $219 $-1 #
vertex $-1 $150 $325 #
straight-curve $-1 0 40.095482570538543 18.873400191395991 -1 0 0 I I #
coedge $-1 $151 $222 $153 $241 reversed $88 $-1 #
vertex $-1 $233 $326 #
straight-curve $-1 0 -40.095482570538543 18.873400191395991 1 0 0 I I #
edge $-1 $156 -18.873400191395991 $230 18.873400191395991 $153 $327 forward 7 unknown #
edge $-1 $157 -18.873400191395991 $229 18.873400191395991 $154 $328 forward 7 unknown #
point $-1 68.987701040681173 -40.095482570538543 18.873400191395991 #
point $-1 68.987701040681173 40.095482570538543 18.873400191395991 #
face $-1 $-1 $258 $22 $-1 $329 reversed single #
plane-surface $-1 -62.678443219809161 -47.951706036664739 0 -1 0 0 0 0 1 forward_v I I I I #
coedge $-1 $330 $331 $332 $333 forward $160 $-1 #
coedge $-1 $332 $162 $257 $334 reversed $96 $-1 #
coedge $-1 $162 $332 $163 $252 reversed $96 $-1 #
edge $-1 $254 -18.873400191395991 $259 18.873400191395991 $162 $335 forward 7 unknown #
coedge $-1 $164 $163 $331 $336 forward $61 $-1 #
edge $-1 $254 40.095482570538543 $337 55.807929502790934 $249 $338 forward 7 unknown #
edge $-1 $339 -7.8562234661261954 $172 7.8562234661261954 $169 $340 forward 7 unknown #
vertex $-1 $252 $341 #
straight-curve $-1 0 -40.095482570538543 18.873400191395991 -1 0 0 I I #
coedge $-1 $342 $167 $170 $262 forward $258 $-1 #
coedge $-1 $167 $342 $248 $334 forward $258 $-1 #
loop $-1 $-1 $167 $245 #
vertex $-1 $250 $343 #
straight-curve $-1 0 -40.095482570538543 -18.873400191395991 1 0 0 I I #
coedge $-1 $170 $169 $344 $345 forward $171 $-1 #
edge $-1 $173 -7.8562234661261954 $346 7.8562234661261954 $170 $347 forward 7 unknown #
point $-1 -62.678443219809161 -40.095482570538543 18.873400191395991 #
point $-1 -62.678443219809161 -40.095482570538543 -18.873400191395991 #
plane-surface $-1 0 0 18.873400191395991 0 0 1 1 0 0 forward_v I I I I #
coedge $-1 $276 $275 $268 $348 forward $176 $-1 #
coedge $-1 $268 $178 $180 $272 reversed $104 $-1 #
coedge $-1 $178 $267 $266 $348 reversed $104 $-1 #
coedge $-1 $186 $181 $178 $270 forward $187 $-1 #
edge $-1 $273 -26.159453033368578 $349 -7.9792198143240398 $269 $350 forward 7 unknown #
coedge $-1 $180 $179 $276 $351 reversed $65 $-1 #
edge $-1 $352 -1.830693040787162e-014 $273 23.071047285839573 $267 $353 forward 7 unknown #
vertex $-1 $182 $354 #
straight-curve $-1 -50.807467821636635 14.203660827679936 18.873400191395991 0 1 0 I I #
coedge $-1 $266 $183 $186 $280 reversed $176 $-1 #
coedge $-1 $183 $266 $271 $351 forward $176 $-1 #
vertex $-1 $184 $355 #
straight-curve $-1 -68.987701040681173 23.174480701143217 56.697772372505234 0 0 1 I I #
straight-curve $-1 -68.987701040681159 23.174480701143217 4.6694450039633182 -0.78801074757464917 0 -0.61566148304635926 I I #
edge $-1 $349 -33.640162609576528 $188 -23.174480701143217 $275 $356 forward 7 unknown #
point $-1 -68.987701040681173 23.174480701143217 18.873400191395991 #
point $-1 -50.807467821636635 23.174480701143217 18.873400191395991 #
edge $-1 $357 1 $357 0 $191 $-1 forward 7 unknown #
vertex $-1 $192 $358 #
ellipse-curve $-1 -58.751056541606246 26.164675532124157 10.303933849007125 -0.61566148304635926 0 0.78801074757464917 0.78801074757464917 0 0.61566148304635926 1 I I #
point $-1 -59.109573683584259 26.164675532124157 12.387084080726009 #
edge $-1 $359 1 $359 0 $195 $-1 forward 7 unknown #
vertex $-1 $196 $360 #
ellipse-curve $-1 -58.751056541606246 30.649967778595574 10.303933849007125 -0.61566148304635926 0 0.78801074757464917 0.78801074757464917 0 0.61566148304635926 1 I I #
point $-1 -59.109573683584259 30.649967778595574 12.387084080726009 #
loop $-1 $-1 $207 $199 #
plane-surface $-1 68.987701040681173 0 0 -1 0 0 0 0 1 forward_v I I I I #
coedge $-1 $294 $202 $204 $298 reversed $126 $-1 #
coedge $-1 $202 $293 $361 $362 reversed $126 $-1 #
coedge $-1 $210 $205 $202 $296 forward $200 $-1 #
edge $-1 $299 19.467970183602198 $363 39.599920286579398 $295 $364 forward 7 unknown #
coedge $-1 $204 $203 $302 $365 reversed $79 $-1 #
edge $-1 $366 -137.97540208136235 $299 -110.88519084785015 $293 $367 forward 7 unknown #
vertex $-1 $206 $368 #
straight-curve $-1 48.855750937703995 -7.5408962190032689 18.873400191395973 0 -1 0 I I #
coedge $-1 $361 $207 $210 $306 reversed $291 $-1 #
coedge $-1 $207 $361 $297 $365 forward $291 $-1 #
vertex $-1 $208 $369 #
straight-curve $-1 68.987701040681173 -5.780549237726925 97.802890586070447 0 0 1 I I #
straight-curve $-1 -33.548004059469804 -5.780549237726925 93.070076071989916 0.74314481823134659 0 -0.66913061440640931 I I #
edge $-1 $363 -24.383035638286152 $211 -5.780549237726925 $301 $370 forward 7 unknown #
point $-1 68.987701040681173 -5.780549237726925 18.873400191395991 #
point $-1 48.855750937703974 -5.780549237726925 18.873400191395987 #
edge $-1 $371 1 $371 0 $214 $-1 forward 7 unknown #
vertex $-1 $215 $372 #
ellipse-curve $-1 56.425826117840465 -15.081792438006534 7.037977775338506 0.66913061440640931 0 0.74314481823134659 2.2294344546940397 0 -2.0073918432192279 1 I I #
point $-1 61.151160443886617 -15.081792438006534 7.8025635046370514 #
plane-surface $-1 68.987701040681173 0 0 -1 0 0 0 0 1 forward_v I I I I #
coedge $-1 $223 $221 $225 $318 reversed $141 $-1 #
edge $-1 $236 -18.873400191395991 $320 18.873400191395991 $235 $373 forward 7 unknown #
vertex $-1 $318 $374 #
straight-curve $-1 -68.987701040681173 -40.095482570538543 0 0 0 -1 I I #
edge $-1 $316 -40.095482570538543 $320 40.095482570538543 $314 $375 forward 7 unknown #
straight-curve $-1 0 -40.095482570538543 -18.873400191395991 -1 0 0 I I #
vertex $-1 $228 $376 #
straight-curve $-1 0 40.095482570538543 -18.873400191395991 1 0 0 I I #
point $-1 68.987701040681173 40.095482570538543 -18.873400191395991 #
point $-1 68.987701040681173 -40.095482570538543 -18.873400191395991 #
straight-curve $-1 -68.987701040681173 0 18.873400191395991 0 -1 0 I I #
point $-1 -68.987701040681173 40.095482570538543 18.873400191395991 #
point $-1 -68.987701040681173 -40.095482570538543 18.873400191395991 #
straight-curve $-1 68.987701040681173 -40.095482570538543 0 0 0 -1 I I #
straight-curve $-1 68.987701040681173 40.095482570538543 0 0 0 -1 I I #
plane-surface $-1 0 0 -18.873400191395991 0 0 1 1 0 0 forward_v I I I I #
coedge $-1 $344 $247 $342 $377 reversed $160 $-1 #
coedge $-1 $247 $344 $251 $336 reversed $160 $-1 #
coedge $-1 $249 $248 $247 $333 reversed $96 $-1 #
edge $-1 $337 -18.873400191395991 $378 18.873400191395991 $332 $379 forward 7 unknown #
edge $-1 $378 -55.807929502790934 $259 -40.095482570538543 $248 $380 forward 7 unknown #
straight-curve $-1 -68.987701040681173 -40.095482570538543 0 0 0 -1 I I #
edge $-1 $337 -3.1546289104360028 $339 3.1546289104360099 $331 $381 forward 7 unknown #
vertex $-1 $252 $382 #
straight-curve $-1 -68.987701040681173 0 18.873400191395991 0 -1 0 I I #
vertex $-1 $253 $383 #
straight-curve $-1 -62.678443219809161 -47.951706036664739 18.873400191395991 0 1 0 I I #
point $-1 -68.987701040681173 -40.095482570538543 18.873400191395991 #
coedge $-1 $257 $256 $330 $377 forward $258 $-1 #
point $-1 -68.987701040681173 -40.095482570538543 -18.873400191395991 #
coedge $-1 $331 $330 $261 $345 reversed $160 $-1 #
edge $-1 $339 -18.873400191395991 $346 18.873400191395991 $261 $384 forward 7 unknown #
vertex $-1 $345 $385 #
straight-curve $-1 -62.678443219809161 -47.951706036664739 -18.873400191395991 0 -1 0 I I #
edge $-1 $349 37.82437218110924 $352 52.02832736854193 $266 $386 forward 7 unknown #
vertex $-1 $280 $387 #
straight-curve $-1 -76.966920855005213 33.640162609576528 18.873400191395987 -1 0 0 I I #
edge $-1 $352 -19.436501781896592 $277 -8.9708198734632809 $276 $388 forward 7 unknown #
vertex $-1 $351 $389 #
straight-curve $-1 -68.987701040681159 33.640162609576528 4.6694450039633182 0.78801074757464917 0 0.61566148304635926 I I #
point $-1 -50.807467821636635 33.640162609576528 18.873400191395991 #
point $-1 -68.987701040681173 23.174480701143217 4.6694450039633066 #
straight-curve $-1 -68.987701040681173 0 18.873400191395991 0 -1 0 I I #
vertex $-1 $283 $390 #
point $-1 -57.963045794031601 26.164675532124157 10.919595332053484 #
vertex $-1 $287 $391 #
point $-1 -57.963045794031601 30.649967778595574 10.919595332053484 #
coedge $-1 $302 $301 $294 $362 forward $291 $-1 #
edge $-1 $363 78.92949039467446 $366 97.056380081753886 $361 $392 forward 7 unknown #
vertex $-1 $306 $393 #
straight-curve $-1 29.387780754101776 -24.383035638286152 18.873400191395987 1 0 0 I I #
edge $-1 $366 -16.842139419282883 $303 1.7603469812763439 $302 $394 forward 7 unknown #
vertex $-1 $365 $395 #
straight-curve $-1 -33.548004059469804 -24.383035638286152 93.070076071989916 -0.74314481823134659 0 0.66913061440640931 I I #
point $-1 48.855750937703974 -24.383035638286152 18.873400191395987 #
point $-1 68.987701040681173 -5.780549237726925 0.74651050431656074 #
straight-curve $-1 68.987701040681173 0 18.873400191395991 0 1 0 I I #
vertex $-1 $309 $396 #
point $-1 58.655260572534509 -15.081792438006534 5.0305859321192781 #
straight-curve $-1 -68.987701040681173 40.095482570538543 0 0 0 -1 I I #
point $-1 -68.987701040681173 -40.095482570538543 -18.873400191395991 #
straight-curve $-1 -68.987701040681173 0 -18.873400191395991 0 1 0 I I #
point $-1 -68.987701040681173 40.095482570538543 -18.873400191395991 #
edge $-1 $346 -3.1546289104360099 $378 3.1546289104360028 $330 $397 forward 7 unknown #
vertex $-1 $334 $398 #
straight-curve $-1 -68.987701040681173 -55.807929502790934 0 0 0 -1 I I #
straight-curve $-1 -68.987701040681173 0 -18.873400191395991 0 1 0 I I #
straight-curve $-1 -65.833072130245171 -55.807929502790934 18.873400191395991 1 0 0 I I #
point $-1 -68.987701040681173 -55.807929502790934 18.873400191395991 #
point $-1 -62.678443219809161 -55.807929502790934 18.873400191395991 #
straight-curve $-1 -62.678443219809161 -55.807929502790934 0 0 0 -1 I I #
point $-1 -62.678443219809161 -55.807929502790934 -18.873400191395991 #
straight-curve $-1 -68.987701040681173 33.640162609576528 56.697772372505234 0 0 -1 I I #
point $-1 -68.987701040681173 33.640162609576528 18.873400191395991 #
straight-curve $-1 -68.987701040681173 14.203660827679936 4.6694450039633075 0 -1 0 I I #
point $-1 -68.987701040681173 33.640162609576528 4.6694450039633066 #
point $-1 -58.135395058559894 26.164675532124157 9.5159231014324757 #
point $-1 -58.135395058559894 30.649967778595574 9.5159231014324757 #
straight-curve $-1 68.987701040681173 -24.383035638286152 97.802890586070447 0 0 -1 I I #
point $-1 68.987701040681173 -24.383035638286152 18.873400191395991 #
straight-curve $-1 68.987701040681173 -7.5408962190032689 0.74651050431656785 0 1 0 I I #
point $-1 68.987701040681173 -24.383035638286152 0.74651050431656074 #
point $-1 54.418434274621241 -15.081792438006534 4.8085433206444659 #
straight-curve $-1 -65.833072130245171 -55.807929502790934 -18.873400191395991 -1 0 0 I I #
point $-1 -68.987701040681173 -55.807929502790934 -18.873400191395991 #
End-of-ACIS-data 