500 0 6 0           
7 Unknown 11 ACIS 5.0 NT 24 Fri Mar 26 03:33:55 1999 
-1 9.9999999999999995e-007 1e-010 
body $-1 $6 $-1 $7 #
body $-1 $8 $-1 $9 #
body $-1 $10 $-1 $11 #
body $-1 $12 $-1 $13 #
body $-1 $14 $-1 $15 #
body $-1 $16 $-1 $17 #
lump $-1 $-1 $18 $0 #
transform $-1 1 0 0 0 1 0 0 0 1 55.956297494430373 28.273581330806493 12.131141309486422 1 rotate no_reflect no_shear #
lump $-1 $-1 $19 $1 #
transform $-1 1 0 0 0 1 0 0 0 1 55.956297494430373 28.273581330806493 12.131141309486422 1 rotate no_reflect no_shear #
lump $-1 $-1 $20 $2 #
transform $-1 1 0 0 0 1 0 0 0 1 55.956297494430373 28.273581330806493 12.131141309486422 1 rotate no_reflect no_shear #
lump $-1 $-1 $21 $3 #
transform $-1 1 0 0 0 1 0 0 0 1 55.956297494430373 28.273581330806493 12.131141309486422 1 rotate no_reflect no_shear #
lump $-1 $-1 $22 $4 #
transform $-1 1 0 0 0 1 0 0 0 1 55.956297494430373 28.273581330806493 12.131141309486422 1 rotate no_reflect no_shear #
lump $-1 $-1 $23 $5 #
transform $-1 1 0 0 0 1 0 0 0 1 55.956297494430373 28.273581330806493 12.131141309486422 1 rotate no_reflect no_shear #
shell $-1 $-1 $-1 $24 $-1 $6 #
shell $-1 $-1 $-1 $25 $-1 $8 #
shell $-1 $-1 $-1 $26 $-1 $10 #
shell $-1 $-1 $-1 $27 $-1 $12 #
shell $-1 $-1 $-1 $28 $-1 $14 #
shell $-1 $-1 $-1 $29 $-1 $16 #
face $-1 $30 $31 $18 $-1 $32 forward single #
face $-1 $33 $34 $19 $-1 $35 forward single #
face $-1 $36 $37 $20 $-1 $38 reversed single #
face $-1 $39 $40 $21 $-1 $41 forward single #
face $-1 $42 $43 $22 $-1 $44 forward single #
face $-1 $45 $46 $23 $-1 $47 forward single #
face $-1 $48 $49 $18 $-1 $50 reversed single #
loop $-1 $-1 $51 $24 #
plane-surface $-1 0 0 12.131141309486422 0 0 1 1 0 0 forward_v I I I I #
face $-1 $52 $53 $19 $-1 $54 reversed single #
loop $-1 $-1 $55 $25 #
plane-surface $-1 0 -28.273581330806493 0 0 1 0 0 0 1 forward_v I I I I #
face $-1 $56 $57 $20 $-1 $58 reversed single #
loop $-1 $-1 $59 $26 #
plane-surface $-1 -30.072646225681897 89.432556927397158 116.95218313781444 -1 0 0 0 0.82903758062907751 0.55919289150049634 forward_v I I I I #
face $-1 $60 $61 $21 $-1 $62 forward single #
loop $-1 $63 $64 $27 #
cone-surface $-1 -50.779567240680677 25.660384714250952 9.1041903048822821 0 -0.82903758062907751 -0.55919289150049634 1 0 0 1 I I 0 1 1 forward I I I I #
face $-1 $65 $66 $22 $-1 $67 forward single #
loop $-1 $68 $69 $28 #
cone-surface $-1 -43.014471860056133 25.660384714250952 9.1041903048822821 0 -0.82903758062907751 -0.55919289150049634 1 0 0 1 I I 0 1 1 forward I I I I #
face $-1 $70 $71 $23 $-1 $72 forward single #
loop $-1 $73 $74 $29 #
cone-surface $-1 -35.249376479431596 25.660384714250952 9.1041903048822821 0 -0.82903758062907751 -0.55919289150049634 1 0 0 1 I I 0 1 1 forward I I I I #
face $-1 $75 $76 $18 $-1 $77 reversed single #
loop $-1 $-1 $78 $30 #
plane-surface $-1 0 0 -12.131141309486422 0 0 1 1 0 0 forward_v I I I I #
coedge $-1 $79 $80 $81 $82 forward $31 $-1 #
face $-1 $83 $84 $19 $-1 $85 reversed single #
loop $-1 $-1 $86 $33 #
plane-surface $-1 0 0 -12.131141309486422 0 0 1 1 0 0 forward_v I I I I #
coedge $-1 $87 $88 $89 $90 forward $34 $-1 #
face $-1 $91 $92 $20 $-1 $93 reversed single #
loop $-1 $-1 $94 $36 #
plane-surface $-1 -43.014471860056133 -3.3471900640897729 54.371455550669445 0 0.82903758062907751 0.55919289150049634 1 0 0 forward_v I I I I #
coedge $-1 $95 $96 $97 $98 reversed $37 $-1 #
face $-1 $-1 $99 $21 $-1 $100 forward single #
loop $-1 $101 $102 $39 #
cone-surface $-1 -50.779567240680677 24.197329593627856 8.1173471961476498 0 -0.82903758062907751 -0.55919289150049634 0.5 0 0 1 I I -0.70710678118654746 0.70710678118654746 0.5 forward I I I I #
loop $-1 $-1 $103 $27 #
coedge $-1 $64 $64 $104 $105 reversed $40 $-1 #
face $-1 $-1 $106 $22 $-1 $107 forward single #
loop $-1 $108 $109 $42 #
cone-surface $-1 -43.014471860056133 24.197329593627856 8.1173471961476498 0 -0.82903758062907751 -0.55919289150049634 0.5 0 0 1 I I -0.70710678118654746 0.70710678118654746 0.5 forward I I I I #
loop $-1 $-1 $110 $28 #
coedge $-1 $69 $69 $111 $112 reversed $43 $-1 #
face $-1 $-1 $113 $23 $-1 $114 forward single #
loop $-1 $115 $116 $45 #
cone-surface $-1 -35.249376479431596 24.197329593627856 8.1173471961476498 0 -0.82903758062907751 -0.55919289150049634 0.5 0 0 1 I I -0.70710678118654746 0.70710678118654746 0.5 forward I I I I #
loop $-1 $-1 $117 $29 #
coedge $-1 $74 $74 $118 $119 reversed $46 $-1 #
face $-1 $120 $121 $18 $-1 $122 reversed single #
loop $-1 $-1 $123 $48 #
plane-surface $-1 0 -28.273581330806493 0 0 1 0 0 0 1 forward_v I I I I #
coedge $-1 $124 $125 $126 $127 forward $49 $-1 #
coedge $-1 $128 $51 $129 $130 forward $31 $-1 #
coedge $-1 $51 $128 $131 $132 forward $31 $-1 #
coedge $-1 $133 $134 $51 $82 reversed $135 $-1 #
edge $-1 $136 -28.273581330806493 $137 28.273581330806493 $81 $138 forward 7 unknown #
face $-1 $139 $140 $19 $-1 $141 reversed single #
loop $-1 $-1 $142 $52 #
plane-surface $-1 -34.897158937945569 -39.042000849101854 0 0 1 0 0 0 1 forward_v I I I I #
coedge $-1 $143 $144 $88 $145 forward $53 $-1 #
coedge $-1 $146 $55 $147 $148 reversed $34 $-1 #
coedge $-1 $55 $146 $86 $145 reversed $34 $-1 #
coedge $-1 $149 $150 $55 $90 reversed $140 $-1 #
edge $-1 $151 -12.131141309486422 $152 12.131141309486422 $89 $153 forward 7 unknown #
face $-1 $154 $155 $20 $-1 $156 forward single #
loop $-1 $-1 $157 $56 #
plane-surface $-1 -55.956297494430373 0 0 1 0 0 0 0 -1 forward_v I I I I #
coedge $-1 $158 $159 $160 $161 reversed $57 $-1 #
coedge $-1 $96 $59 $162 $163 reversed $37 $-1 #
coedge $-1 $59 $95 $158 $164 reversed $37 $-1 #
coedge $-1 $160 $165 $59 $98 forward $166 $-1 #
edge $-1 $167 46.344950259420798 $168 50.984358942660307 $97 $169 forward 7 unknown #
loop $-1 $-1 $104 $60 #
plane-surface $-1 -43.014471860056133 -3.3471900640897729 54.371455550669445 0 0.82903758062907751 0.55919289150049634 1 0 0 forward_v I I I I #
loop $-1 $-1 $170 $39 #
coedge $-1 $102 $102 $103 $171 reversed $61 $-1 #
coedge $-1 $103 $103 $102 $171 forward $63 $-1 #
coedge $-1 $104 $104 $64 $105 forward $99 $-1 #
edge $-1 $172 1.0279713165030387e-015 $172 6.2831853071796013 $104 $173 forward 7 unknown #
loop $-1 $-1 $111 $65 #
plane-surface $-1 -43.014471860056133 -3.3471900640897729 54.371455550669445 0 0.82903758062907751 0.55919289150049634 1 0 0 forward_v I I I I #
loop $-1 $-1 $174 $42 #
coedge $-1 $109 $109 $110 $175 reversed $66 $-1 #
coedge $-1 $110 $110 $109 $175 forward $68 $-1 #
coedge $-1 $111 $111 $69 $112 forward $106 $-1 #
edge $-1 $176 1.0279713165030387e-015 $176 6.2831853071796013 $111 $177 forward 7 unknown #
loop $-1 $-1 $118 $70 #
plane-surface $-1 -43.014471860056133 -3.3471900640897729 54.371455550669445 0 0.82903758062907751 0.55919289150049634 1 0 0 forward_v I I I I #
loop $-1 $-1 $178 $45 #
coedge $-1 $116 $116 $117 $179 reversed $71 $-1 #
coedge $-1 $117 $117 $116 $179 forward $73 $-1 #
coedge $-1 $118 $118 $74 $119 forward $113 $-1 #
edge $-1 $180 1.0279713165030387e-015 $180 6.2831853071796013 $118 $181 forward 7 unknown #
face $-1 $182 $183 $18 $-1 $184 reversed single #
loop $-1 $-1 $185 $75 #
plane-surface $-1 -55.956297494430373 0 0 1 0 0 0 0 -1 forward_v I I I I #
coedge $-1 $186 $131 $187 $188 forward $76 $-1 #
coedge $-1 $189 $78 $186 $190 forward $49 $-1 #
coedge $-1 $78 $189 $191 $192 forward $49 $-1 #
coedge $-1 $134 $133 $78 $127 reversed $135 $-1 #
edge $-1 $193 -28.273581330806493 $194 28.273581330806493 $126 $195 forward 7 unknown #
coedge $-1 $80 $79 $196 $197 forward $31 $-1 #
coedge $-1 $198 $199 $79 $130 reversed $183 $-1 #
edge $-1 $137 -55.956297494430373 $200 55.956297494430373 $129 $201 forward 7 unknown #
coedge $-1 $123 $202 $80 $132 reversed $76 $-1 #
edge $-1 $203 -55.956297494430373 $136 55.956297494430373 $131 $204 forward 7 unknown #
coedge $-1 $126 $81 $202 $205 forward $135 $-1 #
coedge $-1 $81 $126 $198 $206 reversed $135 $-1 #
loop $-1 $-1 $133 $182 #
vertex $-1 $82 $207 #
vertex $-1 $82 $208 #
straight-curve $-1 55.956297494430373 0 12.131141309486422 0 1 0 I I #
face $-1 $209 $210 $19 $-1 $211 reversed single #
loop $-1 $-1 $89 $83 #
plane-surface $-1 -38.100303000433613 -33.657791089954173 0 1 0 0 0 0 -1 forward_v I I I I #
coedge $-1 $212 $213 $214 $215 forward $84 $-1 #
coedge $-1 $216 $86 $217 $218 forward $53 $-1 #
coedge $-1 $86 $216 $149 $219 forward $53 $-1 #
edge $-1 $151 -38.100303000433613 $220 -31.69401487545753 $86 $221 forward 7 unknown #
coedge $-1 $88 $87 $222 $223 forward $34 $-1 #
coedge $-1 $224 $225 $87 $148 forward $226 $-1 #
edge $-1 $227 31.69401487545753 $152 38.100303000433613 $147 $228 forward 7 unknown #
coedge $-1 $214 $89 $144 $219 reversed $140 $-1 #
coedge $-1 $89 $214 $224 $229 reversed $140 $-1 #
vertex $-1 $145 $230 #
vertex $-1 $229 $231 #
straight-curve $-1 -38.100303000433613 -28.273581330806493 0 0 0 1 I I #
face $-1 $-1 $166 $20 $-1 $232 reversed single #
loop $-1 $-1 $162 $91 #
plane-surface $-1 0 0 12.131141309486422 0 0 1 1 0 0 forward_v I I I I #
coedge $-1 $233 $234 $159 $235 forward $92 $-1 #
coedge $-1 $236 $94 $96 $164 forward $57 $-1 #
coedge $-1 $94 $236 $157 $235 reversed $57 $-1 #
coedge $-1 $237 $97 $94 $161 forward $166 $-1 #
edge $-1 $168 8.5654102956538303 $238 34.449061564402307 $160 $239 forward 7 unknown #
coedge $-1 $240 $241 $95 $163 forward $155 $-1 #
edge $-1 $242 -19.57201770538607 $167 -16.442697132892086 $162 $243 forward 7 unknown #
edge $-1 $168 -56.547162661612987 $242 -50.951024691945662 $96 $244 forward 7 unknown #
coedge $-1 $97 $237 $240 $245 reversed $166 $-1 #
loop $-1 $-1 $160 $154 #
vertex $-1 $245 $246 #
vertex $-1 $98 $247 #
straight-curve $-1 -30.072646225681897 28.273581330806493 58.476091568907222 0 0 -1 I I #
coedge $-1 $170 $170 $-1 $248 reversed $101 $-1 #
edge $-1 $249 0 $249 6.2831853071796004 $102 $250 forward 7 unknown #
vertex $-1 $105 $251 #
ellipse-curve $-1 -50.779567240680677 26.708921044559503 9.811436967866662 0 0.82903758062907751 0.55919289150049634 1 0 0 1 I I #
coedge $-1 $174 $174 $-1 $252 reversed $108 $-1 #
edge $-1 $253 0 $253 6.2831853071796004 $109 $254 forward 7 unknown #
vertex $-1 $112 $255 #
ellipse-curve $-1 -43.014471860056133 26.708921044559503 9.811436967866662 0 0.82903758062907751 0.55919289150049634 1 0 0 1 I I #
coedge $-1 $178 $178 $-1 $256 reversed $115 $-1 #
edge $-1 $257 0 $257 6.2831853071796004 $116 $258 forward 7 unknown #
vertex $-1 $119 $259 #
ellipse-curve $-1 -35.249376479431596 26.708921044559503 9.811436967866662 0 0.82903758062907751 0.55919289150049634 1 0 0 1 I I #
face $-1 $-1 $135 $18 $-1 $260 reversed single #
loop $-1 $-1 $198 $120 #
plane-surface $-1 0 28.273581330806493 0 0 -1 0 0 0 -1 forward_v I I I I #
coedge $-1 $261 $196 $199 $262 forward $121 $-1 #
coedge $-1 $202 $123 $124 $190 reversed $76 $-1 #
coedge $-1 $196 $261 $123 $188 reversed $121 $-1 #
edge $-1 $203 -12.131141309486422 $263 12.131141309486422 $187 $264 forward 7 unknown #
coedge $-1 $125 $124 $261 $265 forward $49 $-1 #
edge $-1 $194 -55.956297494430373 $263 55.956297494430373 $186 $266 forward 7 unknown #
coedge $-1 $199 $198 $125 $192 reversed $183 $-1 #
edge $-1 $267 -55.956297494430373 $193 55.956297494430373 $191 $268 forward 7 unknown #
vertex $-1 $127 $269 #
vertex $-1 $205 $270 #
straight-curve $-1 55.956297494430373 0 -12.131141309486422 0 -1 0 I I #
coedge $-1 $185 $187 $128 $197 reversed $121 $-1 #
edge $-1 $200 -28.273581330806493 $203 28.273581330806493 $196 $271 forward 7 unknown #
coedge $-1 $191 $129 $134 $206 forward $183 $-1 #
coedge $-1 $129 $191 $185 $262 reversed $183 $-1 #
vertex $-1 $130 $272 #
straight-curve $-1 0 28.273581330806493 12.131141309486422 -1 0 0 I I #
coedge $-1 $131 $186 $133 $205 reversed $76 $-1 #
vertex $-1 $197 $273 #
straight-curve $-1 0 -28.273581330806493 12.131141309486422 1 0 0 I I #
edge $-1 $136 -12.131141309486422 $194 12.131141309486422 $133 $274 forward 7 unknown #
edge $-1 $137 -12.131141309486422 $193 12.131141309486422 $134 $275 forward 7 unknown #
point $-1 55.956297494430373 -28.273581330806493 12.131141309486422 #
point $-1 55.956297494430373 28.273581330806493 12.131141309486422 #
face $-1 $-1 $226 $19 $-1 $276 forward single #
loop $-1 $-1 $277 $139 #
plane-surface $-1 -31.69401487545753 -33.657791089954173 0 -1 0 0 0 0 1 forward_v I I I I #
coedge $-1 $278 $142 $216 $279 reversed $84 $-1 #
coedge $-1 $142 $278 $280 $281 reversed $84 $-1 #
coedge $-1 $150 $149 $142 $215 reversed $140 $-1 #
edge $-1 $282 -12.131141309486422 $283 12.131141309486422 $214 $284 forward 7 unknown #
coedge $-1 $144 $143 $212 $279 forward $53 $-1 #
coedge $-1 $222 $277 $143 $218 reversed $210 $-1 #
edge $-1 $220 -5.3842097591476801 $285 5.3842097591476801 $217 $286 forward 7 unknown #
edge $-1 $283 -5.3842097591476801 $151 5.3842097591476801 $149 $287 forward 7 unknown #
vertex $-1 $218 $288 #
straight-curve $-1 0 -28.273581330806493 -12.131141309486422 1 0 0 I I #
coedge $-1 $289 $217 $146 $223 reversed $210 $-1 #
edge $-1 $227 -12.131141309486422 $220 12.131141309486422 $222 $290 forward 7 unknown #
coedge $-1 $280 $147 $150 $229 forward $226 $-1 #
coedge $-1 $147 $280 $289 $291 forward $226 $-1 #
loop $-1 $-1 $147 $209 #
vertex $-1 $148 $292 #
straight-curve $-1 0 -28.273581330806493 12.131141309486422 -1 0 0 I I #
edge $-1 $152 -5.3842097591476801 $282 5.3842097591476801 $150 $293 forward 7 unknown #
point $-1 -38.100303000433613 -28.273581330806493 -12.131141309486422 #
point $-1 -38.100303000433613 -28.273581330806493 12.131141309486422 #
plane-surface $-1 0 28.273581330806493 0 0 -1 0 0 0 -1 forward_v I I I I #
coedge $-1 $234 $157 $294 $295 reversed $92 $-1 #
coedge $-1 $157 $233 $237 $296 forward $92 $-1 #
edge $-1 $238 -33.073310233938727 $297 -27.47717226427141 $157 $298 forward 7 unknown #
coedge $-1 $159 $158 $241 $299 reversed $57 $-1 #
coedge $-1 $165 $160 $234 $296 reversed $166 $-1 #
vertex $-1 $235 $300 #
straight-curve $-1 -21.507235930028067 28.273581330806493 7.4917326262469111 -1 0 0 I I #
coedge $-1 $294 $162 $165 $245 forward $155 $-1 #
coedge $-1 $162 $294 $236 $299 forward $155 $-1 #
vertex $-1 $163 $301 #
straight-curve $-1 -30.072646225681897 44.716278463698579 12.131141309486424 0 1 0 I I #
straight-curve $-1 -30.072646225681897 -3.3471900640897729 54.371455550669445 0 -0.55919289150049634 0.82903758062907751 I I #
edge $-1 $167 30.072646225681897 $302 55.956297494430373 $165 $303 forward 7 unknown #
point $-1 -30.072646225681897 28.273581330806493 12.131141309486422 #
point $-1 -30.072646225681897 28.273581330806493 7.4917326262469146 #
edge $-1 $304 1 $304 0 $170 $-1 forward 7 unknown #
vertex $-1 $171 $305 #
ellipse-curve $-1 -50.779567240680677 24.611848383942394 8.3969436418978987 0 0.82903758062907751 0.55919289150049634 1 0 0 1 I I #
point $-1 -49.779567240680677 26.70892104455951 9.8114369678666655 #
edge $-1 $306 1 $306 0 $174 $-1 forward 7 unknown #
vertex $-1 $175 $307 #
ellipse-curve $-1 -43.014471860056133 24.611848383942394 8.3969436418978987 0 0.82903758062907751 0.55919289150049634 1 0 0 1 I I #
point $-1 -42.014471860056133 26.70892104455951 9.8114369678666655 #
edge $-1 $308 1 $308 0 $178 $-1 forward 7 unknown #
vertex $-1 $179 $309 #
ellipse-curve $-1 -35.249376479431596 24.611848383942394 8.3969436418978987 0 0.82903758062907751 0.55919289150049634 1 0 0 1 I I #
point $-1 -34.249376479431596 26.70892104455951 9.8114369678666655 #
plane-surface $-1 55.956297494430373 0 0 -1 0 0 0 0 1 forward_v I I I I #
coedge $-1 $187 $185 $189 $265 reversed $121 $-1 #
edge $-1 $200 -12.131141309486422 $267 12.131141309486422 $199 $310 forward 7 unknown #
vertex $-1 $265 $311 #
straight-curve $-1 -55.956297494430373 -28.273581330806493 0 0 0 -1 I I #
edge $-1 $263 -28.273581330806493 $267 28.273581330806493 $261 $312 forward 7 unknown #
straight-curve $-1 0 -28.273581330806493 -12.131141309486422 -1 0 0 I I #
vertex $-1 $192 $313 #
straight-curve $-1 0 28.273581330806493 -12.131141309486422 1 0 0 I I #
point $-1 55.956297494430373 28.273581330806493 -12.131141309486422 #
point $-1 55.956297494430373 -28.273581330806493 -12.131141309486422 #
straight-curve $-1 -55.956297494430373 0 12.131141309486422 0 -1 0 I I #
point $-1 -55.956297494430373 28.273581330806493 12.131141309486422 #
point $-1 -55.956297494430373 -28.273581330806493 12.131141309486422 #
straight-curve $-1 55.956297494430373 -28.273581330806493 0 0 0 -1 I I #
straight-curve $-1 55.956297494430373 28.273581330806493 0 0 0 -1 I I #
plane-surface $-1 0 0 12.131141309486422 0 0 1 1 0 0 forward_v I I I I #
coedge $-1 $217 $289 $278 $314 forward $210 $-1 #
coedge $-1 $213 $212 $277 $314 reversed $84 $-1 #
edge $-1 $285 -3.2031440624880396 $283 3.2031440624880432 $212 $315 forward 7 unknown #
coedge $-1 $225 $224 $213 $281 forward $226 $-1 #
edge $-1 $282 -3.2031440624880432 $316 3.2031440624880396 $213 $317 forward 7 unknown #
vertex $-1 $229 $318 #
vertex $-1 $219 $319 #
straight-curve $-1 -38.100303000433613 -39.042000849101854 0 0 0 -1 I I #
vertex $-1 $314 $320 #
straight-curve $-1 -31.69401487545753 -33.657791089954173 -12.131141309486422 0 -1 0 I I #
straight-curve $-1 -38.100303000433613 -33.657791089954173 -12.131141309486422 0 1 0 I I #
point $-1 -31.69401487545753 -28.273581330806493 -12.131141309486422 #
coedge $-1 $277 $222 $225 $291 reversed $210 $-1 #
straight-curve $-1 -31.69401487545753 -28.273581330806493 0 0 0 -1 I I #
edge $-1 $316 -5.3842097591476801 $227 5.3842097591476801 $289 $321 forward 7 unknown #
point $-1 -31.69401487545753 -28.273581330806493 12.131141309486422 #
straight-curve $-1 -38.100303000433613 -33.657791089954173 12.131141309486422 0 -1 0 I I #
coedge $-1 $241 $240 $233 $295 forward $155 $-1 #
edge $-1 $302 -28.273581330806493 $297 -25.144260758312509 $233 $322 forward 7 unknown #
edge $-1 $302 -12.131141309486422 $238 -7.4917326262469128 $237 $323 forward 7 unknown #
vertex $-1 $235 $324 #
straight-curve $-1 -55.956297494430373 9.779221349597341 34.910749725986385 0 -0.55919289150049634 0.82903758062907751 I I #
edge $-1 $297 -34.449061564402307 $242 -8.5654102956538303 $241 $325 forward 7 unknown #
point $-1 -55.956297494430373 28.273581330806493 7.4917326262469128 #
point $-1 -30.072646225681897 25.144260758312509 12.131141309486424 #
vertex $-1 $245 $326 #
straight-curve $-1 0 28.273581330806493 12.131141309486422 -1 0 0 I I #
vertex $-1 $248 $327 #
point $-1 -49.779567240680677 24.611848383942394 8.3969436418978987 #
vertex $-1 $252 $328 #
point $-1 -42.014471860056133 24.611848383942394 8.3969436418978987 #
vertex $-1 $256 $329 #
point $-1 -34.249376479431596 24.611848383942394 8.3969436418978987 #
straight-curve $-1 -55.956297494430373 28.273581330806493 0 0 0 -1 I I #
point $-1 -55.956297494430373 -28.273581330806493 -12.131141309486422 #
straight-curve $-1 -55.956297494430373 0 -12.131141309486422 0 1 0 I I #
point $-1 -55.956297494430373 28.273581330806493 -12.131141309486422 #
edge $-1 $316 -12.131141309486422 $285 12.131141309486422 $277 $330 forward 7 unknown #
straight-curve $-1 -34.897158937945569 -39.042000849101854 -12.131141309486422 -1 0 0 I I #
vertex $-1 $291 $331 #
straight-curve $-1 -34.897158937945569 -39.042000849101854 12.131141309486422 1 0 0 I I #
point $-1 -38.100303000433613 -39.042000849101854 12.131141309486422 #
point $-1 -38.100303000433613 -39.042000849101854 -12.131141309486422 #
point $-1 -31.69401487545753 -39.042000849101854 -12.131141309486422 #
straight-curve $-1 -31.69401487545753 -33.657791089954173 12.131141309486422 0 1 0 I I #
straight-curve $-1 -55.956297494430373 0 12.131141309486422 0 -1 0 I I #
straight-curve $-1 -55.956297494430373 28.273581330806493 0 0 0 -1 I I #
point $-1 -55.956297494430373 25.144260758312509 12.131141309486424 #
straight-curve $-1 -21.507235930028067 25.144260758312509 12.13114130948642 1 0 0 I I #
point $-1 -55.956297494430373 28.273581330806493 12.131141309486422 #
point $-1 -50.779567240680677 23.782810803313318 7.8377507503974018 #
point $-1 -43.014471860056133 23.782810803313318 7.8377507503974018 #
point $-1 -35.249376479431596 23.782810803313318 7.8377507503974018 #
straight-curve $-1 -31.69401487545753 -39.042000849101854 0 0 0 -1 I I #
point $-1 -31.69401487545753 -39.042000849101854 12.131141309486422 #
End-of-ACIS-data 