500 0 8 0           
7 Unknown 11 ACIS 5.0 NT 24 Fri Mar 26 19:46:28 1999 
-1 9.9999999999999995e-007 1e-010 
body $-1 $8 $-1 $9 #
body $-1 $10 $-1 $11 #
body $-1 $12 $-1 $13 #
body $-1 $14 $-1 $15 #
body $-1 $16 $-1 $17 #
body $-1 $18 $-1 $19 #
body $-1 $20 $-1 $21 #
body $-1 $22 $-1 $23 #
lump $-1 $-1 $24 $0 #
transform $-1 1 0 0 0 1 0 0 0 1 61.972106082338939 39.418397624686669 10.605205479291675 1 rotate no_reflect no_shear #
lump $-1 $-1 $25 $1 #
transform $-1 1 0 0 0 1 0 0 0 1 61.972106082338939 39.418397624686669 10.605205479291675 1 rotate no_reflect no_shear #
lump $-1 $-1 $26 $2 #
transform $-1 1 0 0 0 1 0 0 0 1 61.972106082338939 39.418397624686669 10.605205479291675 1 rotate no_reflect no_shear #
lump $-1 $-1 $27 $3 #
transform $-1 1 0 0 0 1 0 0 0 1 61.972106082338939 39.418397624686669 10.605205479291675 1 rotate no_reflect no_shear #
lump $-1 $-1 $28 $4 #
transform $-1 1 0 0 0 1 0 0 0 1 61.972106082338939 39.418397624686669 10.605205479291675 1 rotate no_reflect no_shear #
lump $-1 $-1 $29 $5 #
transform $-1 1 0 0 0 1 0 0 0 1 61.972106082338939 39.418397624686669 10.605205479291675 1 rotate no_reflect no_shear #
lump $-1 $-1 $30 $6 #
transform $-1 1 0 0 0 1 0 0 0 1 61.972106082338939 39.418397624686669 10.605205479291675 1 rotate no_reflect no_shear #
lump $-1 $-1 $31 $7 #
transform $-1 1 0 0 0 1 0 0 0 1 61.972106082338939 39.418397624686669 10.605205479291675 1 rotate no_reflect no_shear #
shell $-1 $-1 $-1 $32 $-1 $8 #
shell $-1 $-1 $-1 $33 $-1 $10 #
shell $-1 $-1 $-1 $34 $-1 $12 #
shell $-1 $-1 $-1 $35 $-1 $14 #
shell $-1 $-1 $-1 $36 $-1 $16 #
shell $-1 $-1 $-1 $37 $-1 $18 #
shell $-1 $-1 $-1 $38 $-1 $20 #
shell $-1 $-1 $-1 $39 $-1 $22 #
face $-1 $40 $41 $24 $-1 $42 forward single #
face $-1 $43 $44 $25 $-1 $45 forward single #
face $-1 $46 $47 $26 $-1 $48 reversed single #
face $-1 $49 $50 $27 $-1 $51 forward single #
face $-1 $52 $53 $28 $-1 $54 forward single #
face $-1 $55 $56 $29 $-1 $57 reversed single #
face $-1 $58 $59 $30 $-1 $60 forward single #
face $-1 $61 $62 $31 $-1 $63 forward single #
face $-1 $64 $65 $24 $-1 $66 reversed single #
loop $-1 $-1 $67 $32 #
plane-surface $-1 0 0 10.605205479291675 0 0 1 1 0 0 forward_v I I I I #
face $-1 $68 $69 $25 $-1 $70 reversed single #
loop $-1 $-1 $71 $33 #
plane-surface $-1 -61.972106082338939 0 0 1 0 0 0 0 -1 forward_v I I I I #
face $-1 $72 $73 $26 $-1 $74 reversed single #
loop $-1 $-1 $75 $34 #
plane-surface $-1 35.733839597114972 95.728626248632025 139.67150040812498 1 0 0 0 -0.81915205242281985 -0.57357642473473569 forward_v I I I I #
face $-1 $76 $77 $27 $-1 $78 forward single #
loop $-1 $79 $80 $35 #
cone-surface $-1 43.230487164321815 34.660547585935966 5.5905336671970005 0 -0.81915205242281985 -0.57357642473473569 1.5 0 0 1 I I 0 1 1.5 forward I I I I #
face $-1 $81 $82 $28 $-1 $83 forward single #
loop $-1 $84 $85 $36 #
cone-surface $-1 54.47545851513209 34.660547585935966 5.5905336671970005 0 -0.81915205242281985 -0.57357642473473569 1.5 0 0 1 I I 0 1 1.5 forward I I I I #
face $-1 $86 $87 $29 $-1 $88 reversed single #
loop $-1 $-1 $89 $37 #
plane-surface $-1 55.837107719916617 -39.418397624686676 0.87710414460411812 0 -0.82903758062907751 0.55919289150049634 1 0 0 forward_v I I I I #
face $-1 $90 $91 $30 $-1 $92 forward single #
loop $-1 $93 $94 $38 #
cone-surface $-1 53.207822707449921 -33.74152495204337 4.1250127782558152 0 0.82903758062907751 -0.55919289150049634 1.5 0 0 1 I I 0 1 1.5 forward I I I I #
face $-1 $95 $96 $31 $-1 $97 forward single #
loop $-1 $98 $99 $39 #
cone-surface $-1 58.466392732383326 -33.74152495204337 4.1250127782558152 0 0.82903758062907751 -0.55919289150049634 1.5 0 0 1 I I 0 1 1.5 forward I I I I #
face $-1 $100 $101 $24 $-1 $102 reversed single #
loop $-1 $-1 $103 $40 #
plane-surface $-1 0 0 -10.605205479291675 0 0 1 1 0 0 forward_v I I I I #
coedge $-1 $104 $105 $106 $107 forward $41 $-1 #
face $-1 $108 $109 $25 $-1 $110 forward single #
loop $-1 $-1 $111 $43 #
plane-surface $-1 0 39.418397624686669 0 0 -1 0 0 0 -1 forward_v I I I I #
coedge $-1 $112 $113 $114 $115 forward $44 $-1 #
face $-1 $116 $117 $26 $-1 $118 forward single #
loop $-1 $-1 $119 $46 #
plane-surface $-1 48.852972839726959 -5.8005295319932912 68.580022328145517 0 0.81915205242281985 0.57357642473473569 1 0 0 forward_v I I I I #
coedge $-1 $120 $121 $122 $123 reversed $47 $-1 #
face $-1 $-1 $124 $27 $-1 $125 forward single #
loop $-1 $126 $127 $49 #
cone-surface $-1 43.230487164321815 31.600595806870693 3.4479324296052543 0 -0.81915205242281985 -0.57357642473473569 0.75 0 0 1 I I -0.70710678118654757 0.70710678118654757 0.75 forward I I I I #
loop $-1 $-1 $128 $35 #
coedge $-1 $80 $80 $129 $130 reversed $50 $-1 #
face $-1 $-1 $131 $28 $-1 $132 forward single #
loop $-1 $133 $134 $52 #
cone-surface $-1 54.47545851513209 31.600595806870693 3.4479324296052543 0 -0.81915205242281985 -0.57357642473473569 0.75 0 0 1 I I -0.70710678118654757 0.70710678118654757 0.75 forward I I I I #
loop $-1 $-1 $135 $36 #
coedge $-1 $85 $85 $136 $137 reversed $53 $-1 #
face $-1 $138 $139 $29 $-1 $140 reversed single #
loop $-1 $-1 $141 $55 #
plane-surface $-1 49.702109357494301 -142.1728074106683 70.185826529721339 1 0 0 0 0.82903758062907751 -0.55919289150049634 forward_v I I I I #
coedge $-1 $142 $143 $144 $145 reversed $56 $-1 #
face $-1 $-1 $146 $30 $-1 $147 forward single #
loop $-1 $148 $149 $58 #
cone-surface $-1 53.207822707449921 -30.723717593221721 2.089476075938359 0 0.82903758062907751 -0.55919289150049634 0.75 0 0 1 I I -0.70710678118654757 0.70710678118654757 0.75 forward I I I I #
loop $-1 $-1 $150 $38 #
coedge $-1 $94 $94 $151 $152 reversed $59 $-1 #
face $-1 $-1 $153 $31 $-1 $154 forward single #
loop $-1 $155 $156 $61 #
cone-surface $-1 58.466392732383326 -30.723717593221721 2.089476075938359 0 0.82903758062907751 -0.55919289150049634 0.75 0 0 1 I I -0.70710678118654757 0.70710678118654757 0.75 forward I I I I #
loop $-1 $-1 $157 $39 #
coedge $-1 $99 $99 $158 $159 reversed $62 $-1 #
face $-1 $160 $161 $24 $-1 $162 reversed single #
loop $-1 $-1 $163 $64 #
plane-surface $-1 0 -39.418397624686669 0 0 1 0 0 0 1 forward_v I I I I #
coedge $-1 $164 $165 $166 $167 forward $65 $-1 #
coedge $-1 $168 $67 $169 $170 forward $41 $-1 #
coedge $-1 $67 $168 $171 $172 forward $41 $-1 #
coedge $-1 $173 $174 $67 $107 reversed $175 $-1 #
edge $-1 $176 -39.418397624686669 $177 39.418397624686669 $106 $178 forward 7 unknown #
face $-1 $179 $180 $25 $-1 $181 reversed single #
loop $-1 $-1 $114 $68 #
plane-surface $-1 -67.242242982523493 0 4.2064643248073592 0 0 1 1 0 0 forward_v I I I I #
coedge $-1 $182 $183 $113 $184 forward $69 $-1 #
coedge $-1 $185 $71 $186 $187 reversed $44 $-1 #
coedge $-1 $71 $185 $111 $184 reversed $44 $-1 #
coedge $-1 $188 $189 $71 $115 reversed $109 $-1 #
edge $-1 $190 -39.418397624686669 $191 39.418397624686669 $114 $192 forward 7 unknown #
face $-1 $193 $194 $26 $-1 $195 reversed single #
loop $-1 $-1 $122 $72 #
plane-surface $-1 0 0 10.605205479291675 0 0 1 1 0 0 forward_v I I I I #
coedge $-1 $196 $197 $198 $199 reversed $73 $-1 #
coedge $-1 $121 $75 $200 $201 reversed $47 $-1 #
coedge $-1 $75 $120 $196 $202 reversed $47 $-1 #
coedge $-1 $198 $203 $75 $123 forward $117 $-1 #
edge $-1 $204 8.4459154996293435 $205 13.070440097634417 $122 $206 forward 7 unknown #
loop $-1 $-1 $129 $76 #
plane-surface $-1 48.852972839726959 -5.8005295319932912 68.580022328145517 0 0.81915205242281985 0.57357642473473569 1 0 0 forward_v I I I I #
loop $-1 $-1 $207 $49 #
coedge $-1 $127 $127 $128 $208 reversed $77 $-1 #
coedge $-1 $128 $128 $127 $208 forward $79 $-1 #
coedge $-1 $129 $129 $80 $130 forward $124 $-1 #
edge $-1 $209 -1.068688440823465e-015 $209 6.2831853071795996 $129 $210 forward 7 unknown #
loop $-1 $-1 $136 $81 #
plane-surface $-1 48.852972839726959 -5.8005295319932912 68.580022328145517 0 0.81915205242281985 0.57357642473473569 1 0 0 forward_v I I I I #
loop $-1 $-1 $211 $52 #
coedge $-1 $134 $134 $135 $212 reversed $82 $-1 #
coedge $-1 $135 $135 $134 $212 forward $84 $-1 #
coedge $-1 $136 $136 $85 $137 forward $131 $-1 #
edge $-1 $213 -1.068688440823465e-015 $213 6.2831853071795996 $136 $214 forward 7 unknown #
face $-1 $215 $216 $29 $-1 $217 forward single #
loop $-1 $-1 $218 $86 #
plane-surface $-1 0 -39.418397624686669 0 0 1 0 0 0 1 forward_v I I I I #
coedge $-1 $219 $220 $221 $222 reversed $87 $-1 #
coedge $-1 $223 $89 $224 $225 reversed $56 $-1 #
coedge $-1 $89 $223 $219 $226 forward $56 $-1 #
coedge $-1 $221 $227 $89 $145 forward $216 $-1 #
edge $-1 $228 -34.053552222380624 $229 -21.783555497535993 $144 $230 forward 7 unknown #
loop $-1 $-1 $151 $90 #
plane-surface $-1 55.837107719916617 -39.418397624686676 0.87710414460411812 0 -0.82903758062907751 0.55919289150049634 1 0 0 forward_v I I I I #
loop $-1 $-1 $231 $58 #
coedge $-1 $149 $149 $150 $232 reversed $91 $-1 #
coedge $-1 $150 $150 $149 $232 forward $93 $-1 #
coedge $-1 $151 $151 $94 $152 forward $146 $-1 #
edge $-1 $233 -9.8177771764686556e-016 $233 6.2831853071795996 $151 $234 forward 7 unknown #
loop $-1 $-1 $158 $95 #
plane-surface $-1 55.837107719916617 -39.418397624686676 0.87710414460411812 0 -0.82903758062907751 0.55919289150049634 1 0 0 forward_v I I I I #
loop $-1 $-1 $235 $61 #
coedge $-1 $156 $156 $157 $236 reversed $96 $-1 #
coedge $-1 $157 $157 $156 $236 forward $98 $-1 #
coedge $-1 $158 $158 $99 $159 forward $153 $-1 #
edge $-1 $237 -9.8177771764686556e-016 $237 6.2831853071795996 $158 $238 forward 7 unknown #
face $-1 $239 $240 $24 $-1 $241 reversed single #
loop $-1 $-1 $242 $100 #
plane-surface $-1 -61.972106082338939 0 0 1 0 0 0 0 -1 forward_v I I I I #
coedge $-1 $243 $171 $242 $244 forward $101 $-1 #
coedge $-1 $245 $103 $243 $246 forward $65 $-1 #
coedge $-1 $103 $245 $247 $248 forward $65 $-1 #
coedge $-1 $174 $173 $103 $167 reversed $175 $-1 #
edge $-1 $249 -39.418397624686669 $250 39.418397624686669 $166 $251 forward 7 unknown #
coedge $-1 $105 $104 $252 $253 forward $41 $-1 #
coedge $-1 $254 $255 $104 $170 reversed $240 $-1 #
edge $-1 $177 -61.972106082338939 $256 61.972106082338939 $169 $257 forward 7 unknown #
coedge $-1 $163 $258 $105 $172 reversed $101 $-1 #
edge $-1 $259 -61.972106082338939 $176 61.972106082338939 $171 $260 forward 7 unknown #
coedge $-1 $166 $106 $258 $261 forward $175 $-1 #
coedge $-1 $106 $166 $254 $262 reversed $175 $-1 #
loop $-1 $-1 $173 $239 #
vertex $-1 $107 $263 #
vertex $-1 $107 $264 #
straight-curve $-1 61.972106082338939 0 10.605205479291675 0 1 0 I I #
face $-1 $265 $266 $25 $-1 $267 reversed single #
loop $-1 $-1 $268 $108 #
plane-surface $-1 -67.242242982523493 0 -1.9416225383027443 0 0 1 1 0 0 forward_v I I I I #
coedge $-1 $269 $111 $270 $271 reversed $69 $-1 #
coedge $-1 $111 $269 $188 $272 reversed $69 $-1 #
edge $-1 $190 -4.2064643248073592 $273 1.9416225383027443 $111 $274 forward 7 unknown #
coedge $-1 $113 $112 $268 $275 forward $44 $-1 #
coedge $-1 $276 $277 $112 $187 forward $278 $-1 #
edge $-1 $279 -1.9416225383027443 $191 4.2064643248073592 $186 $280 forward 7 unknown #
coedge $-1 $281 $114 $183 $272 forward $109 $-1 #
coedge $-1 $114 $281 $276 $282 forward $109 $-1 #
vertex $-1 $184 $283 #
vertex $-1 $282 $284 #
straight-curve $-1 -61.972106082338939 0 4.2064643248073592 0 -1 0 I I #
face $-1 $-1 $285 $26 $-1 $286 reversed single #
loop $-1 $-1 $287 $116 #
plane-surface $-1 61.972106082338939 0 0 -1 0 0 0 0 1 forward_v I I I I #
coedge $-1 $288 $119 $121 $202 forward $73 $-1 #
coedge $-1 $119 $288 $287 $289 reversed $73 $-1 #
coedge $-1 $290 $122 $119 $199 forward $117 $-1 #
edge $-1 $205 11.307353177251493 $291 37.545619662475467 $198 $292 forward 7 unknown #
coedge $-1 $293 $294 $120 $201 forward $285 $-1 #
edge $-1 $295 -65.835050510878773 $204 -59.230544724770816 $200 $296 forward 7 unknown #
edge $-1 $205 70.774182494423059 $295 78.836795249373367 $121 $297 forward 7 unknown #
coedge $-1 $122 $290 $293 $298 forward $117 $-1 #
vertex $-1 $201 $299 #
vertex $-1 $123 $300 #
straight-curve $-1 35.733839597114972 47.864313124316013 10.605205479291669 0 -1 0 I I #
coedge $-1 $207 $207 $-1 $301 reversed $126 $-1 #
edge $-1 $302 0 $302 6.2831853071796004 $127 $303 forward 7 unknown #
vertex $-1 $130 $304 #
ellipse-curve $-1 43.230487164321815 37.106135325684136 7.3029525862377032 0 0.81915205242281985 0.57357642473473569 1.5 0 0 1 I I #
coedge $-1 $211 $211 $-1 $305 reversed $133 $-1 #
edge $-1 $306 0 $306 6.2831853071796004 $134 $307 forward 7 unknown #
vertex $-1 $137 $308 #
ellipse-curve $-1 54.47545851513209 37.106135325684136 7.3029525862377032 0 0.81915205242281985 0.57357642473473569 1.5 0 0 1 I I #
face $-1 $-1 $309 $29 $-1 $310 reversed single #
loop $-1 $-1 $221 $138 #
plane-surface $-1 0 0 10.605205479291675 0 0 1 1 0 0 forward_v I I I I #
coedge $-1 $311 $312 $220 $313 forward $139 $-1 #
coedge $-1 $220 $141 $143 $226 reversed $87 $-1 #
coedge $-1 $141 $219 $218 $313 reversed $87 $-1 #
coedge $-1 $314 $144 $141 $222 forward $216 $-1 #
edge $-1 $229 -38.229693079234394 $315 -31.66800608064748 $221 $316 forward 7 unknown #
coedge $-1 $143 $142 $311 $317 reversed $56 $-1 #
coedge $-1 $318 $319 $142 $225 forward $309 $-1 #
edge $-1 $320 -10.65766772403124 $228 1.0765425964536524 $224 $321 forward 7 unknown #
edge $-1 $322 1.2717262267236031e-014 $229 11.734210320484905 $219 $323 forward 7 unknown #
coedge $-1 $144 $314 $318 $324 forward $216 $-1 #
vertex $-1 $225 $325 #
vertex $-1 $145 $326 #
straight-curve $-1 27.918553859958308 -32.856710626099755 10.605205479291675 -1 0 0 I I #
coedge $-1 $231 $231 $-1 $327 reversed $148 $-1 #
edge $-1 $328 0 $328 6.2831853071796004 $149 $329 forward 7 unknown #
vertex $-1 $152 $330 #
ellipse-curve $-1 53.207822707449921 -36.137554125393216 5.7411548119478999 0 -0.82903758062907751 0.55919289150049634 1.5 0 0 1 I I #
coedge $-1 $235 $235 $-1 $331 reversed $155 $-1 #
edge $-1 $332 0 $332 6.2831853071796004 $156 $333 forward 7 unknown #
vertex $-1 $159 $334 #
ellipse-curve $-1 58.466392732383326 -36.137554125393216 5.7411548119478999 0 -0.82903758062907751 0.55919289150049634 1.5 0 0 1 I I #
face $-1 $-1 $175 $24 $-1 $335 reversed single #
loop $-1 $-1 $254 $160 #
plane-surface $-1 0 39.418397624686669 0 0 -1 0 0 0 -1 forward_v I I I I #
coedge $-1 $252 $336 $163 $244 reversed $161 $-1 #
coedge $-1 $258 $163 $164 $246 reversed $101 $-1 #
edge $-1 $259 -10.605205479291675 $337 10.605205479291675 $242 $338 forward 7 unknown #
coedge $-1 $165 $164 $336 $339 forward $65 $-1 #
edge $-1 $250 -61.972106082338939 $337 61.972106082338939 $243 $340 forward 7 unknown #
coedge $-1 $255 $254 $165 $248 reversed $240 $-1 #
edge $-1 $341 -61.972106082338939 $249 61.972106082338939 $247 $342 forward 7 unknown #
vertex $-1 $167 $343 #
vertex $-1 $261 $344 #
straight-curve $-1 61.972106082338939 0 -10.605205479291675 0 -1 0 I I #
coedge $-1 $345 $242 $168 $253 reversed $161 $-1 #
edge $-1 $256 -39.418397624686669 $259 39.418397624686669 $252 $346 forward 7 unknown #
coedge $-1 $247 $169 $174 $262 forward $240 $-1 #
coedge $-1 $169 $247 $345 $347 reversed $240 $-1 #
vertex $-1 $170 $348 #
straight-curve $-1 0 39.418397624686669 10.605205479291675 -1 0 0 I I #
coedge $-1 $171 $243 $173 $261 reversed $101 $-1 #
vertex $-1 $253 $349 #
straight-curve $-1 0 -39.418397624686669 10.605205479291675 1 0 0 I I #
edge $-1 $176 -10.605205479291675 $250 10.605205479291675 $173 $350 forward 7 unknown #
edge $-1 $177 -10.605205479291675 $249 10.605205479291675 $174 $351 forward 7 unknown #
point $-1 61.972106082338939 -39.418397624686669 10.605205479291675 #
point $-1 61.972106082338939 39.418397624686669 10.605205479291675 #
face $-1 $-1 $278 $25 $-1 $352 reversed single #
loop $-1 $-1 $353 $179 #
plane-surface $-1 -72.512379882708046 0 1.1324208932523074 1 0 0 0 0 -1 forward_v I I I I #
coedge $-1 $354 $270 $185 $275 reversed $180 $-1 #
coedge $-1 $183 $182 $353 $355 reversed $69 $-1 #
coedge $-1 $268 $356 $182 $271 forward $180 $-1 #
edge $-1 $357 -5.2701369001845535 $273 5.2701369001845606 $182 $358 forward 7 unknown #
edge $-1 $190 -5.2701369001845606 $359 5.2701369001845535 $183 $360 forward 7 unknown #
vertex $-1 $184 $361 #
straight-curve $-1 -61.972106082338939 39.418397624686669 0 0 0 -1 I I #
edge $-1 $279 -39.418397624686669 $273 39.418397624686669 $268 $362 forward 7 unknown #
coedge $-1 $363 $186 $189 $282 reversed $278 $-1 #
coedge $-1 $186 $363 $354 $364 reversed $278 $-1 #
loop $-1 $-1 $186 $265 #
vertex $-1 $187 $365 #
straight-curve $-1 -61.972106082338939 -39.418397624686669 0 0 0 1 I I #
coedge $-1 $189 $188 $366 $367 forward $109 $-1 #
edge $-1 $368 -5.2701369001845535 $191 5.2701369001845606 $276 $369 forward 7 unknown #
point $-1 -61.972106082338932 39.418397624686669 4.2064643248073592 #
point $-1 -61.972106082338932 -39.418397624686669 4.2064643248073592 #
loop $-1 $-1 $200 $193 #
plane-surface $-1 0 39.418397624686669 0 0 -1 0 0 0 -1 forward_v I I I I #
coedge $-1 $370 $371 $197 $289 forward $194 $-1 #
coedge $-1 $197 $196 $294 $372 reversed $73 $-1 #
edge $-1 $291 41.021925976506964 $373 49.084538731457279 $287 $374 forward 7 unknown #
coedge $-1 $203 $198 $371 $375 forward $117 $-1 #
vertex $-1 $375 $376 #
straight-curve $-1 24.42648641986348 34.793873026681595 10.605205479291676 1 0 0 I I #
coedge $-1 $377 $200 $203 $298 reversed $285 $-1 #
coedge $-1 $200 $377 $288 $372 forward $285 $-1 #
vertex $-1 $201 $378 #
straight-curve $-1 35.733839597114972 39.418397624686669 69.835750204062492 0 0 1 I I #
straight-curve $-1 35.733839597114972 -5.8005295319932912 68.580022328145517 0 0.57357642473473569 -0.81915205242281985 I I #
edge $-1 $379 -61.972106082338939 $204 -35.733839597114972 $293 $380 forward 7 unknown #
point $-1 35.733839597114972 39.418397624686669 10.605205479291675 #
point $-1 35.733839597114972 34.793873026681595 10.605205479291669 #
edge $-1 $381 1 $381 0 $207 $-1 forward 7 unknown #
vertex $-1 $208 $382 #
ellipse-curve $-1 43.230487164321815 32.21495984618781 3.8781147481563059 0 0.81915205242281985 0.57357642473473569 1.5 0 0 1 I I #
point $-1 44.730487164321815 37.106135325684122 7.3029525862376952 #
edge $-1 $383 1 $383 0 $211 $-1 forward 7 unknown #
vertex $-1 $212 $384 #
ellipse-curve $-1 54.47545851513209 32.21495984618781 3.8781147481563059 0 0.81915205242281985 0.57357642473473569 1.5 0 0 1 I I #
point $-1 55.97545851513209 37.106135325684122 7.3029525862376952 #
loop $-1 $-1 $224 $215 #
plane-surface $-1 61.972106082338939 0 0 -1 0 0 0 0 1 forward_v I I I I #
coedge $-1 $385 $218 $223 $317 forward $139 $-1 #
coedge $-1 $218 $385 $314 $386 reversed $139 $-1 #
edge $-1 $315 24.487707785568993 $322 34.215809120256544 $218 $387 forward 7 unknown #
coedge $-1 $227 $221 $312 $386 forward $216 $-1 #
vertex $-1 $386 $388 #
straight-curve $-1 49.702109357494301 -71.086403705334149 10.605205479291676 0 -1 0 I I #
edge $-1 $322 21.783555497535993 $320 34.053552222380624 $311 $389 forward 7 unknown #
coedge $-1 $319 $224 $227 $324 reversed $309 $-1 #
coedge $-1 $224 $318 $385 $390 forward $309 $-1 #
vertex $-1 $317 $391 #
straight-curve $-1 61.972106082338939 -33.458705593434125 9.7127112096835937 0 0.55919289150049634 0.82903758062907751 I I #
vertex $-1 $317 $392 #
straight-curve $-1 49.702109357494301 -39.418397624686676 0.87710414460411812 0 0.55919289150049634 0.82903758062907751 I I #
edge $-1 $393 -39.418397624686669 $228 -32.856710626099755 $318 $394 forward 7 unknown #
point $-1 61.972106082338932 -32.856710626099755 10.605205479291675 #
point $-1 49.702109357494301 -32.856710626099755 10.605205479291675 #
edge $-1 $395 1 $395 0 $231 $-1 forward 7 unknown #
vertex $-1 $232 $396 #
ellipse-curve $-1 53.207822707449921 -31.345495778693529 2.5088707445637315 0 -0.82903758062907751 0.55919289150049634 1.5 0 0 1 I I #
point $-1 54.707822707449921 -36.137554125393216 5.7411548119478981 #
edge $-1 $397 1 $397 0 $235 $-1 forward 7 unknown #
vertex $-1 $236 $398 #
ellipse-curve $-1 58.466392732383326 -31.345495778693529 2.5088707445637315 0 -0.82903758062907751 0.55919289150049634 1.5 0 0 1 I I #
point $-1 59.966392732383326 -36.137554125393216 5.7411548119478981 #
plane-surface $-1 61.972106082338939 0 0 -1 0 0 0 0 1 forward_v I I I I #
coedge $-1 $242 $345 $245 $339 reversed $161 $-1 #
vertex $-1 $339 $399 #
straight-curve $-1 -61.972106082338939 -39.418397624686669 0 0 0 -1 I I #
edge $-1 $337 -39.418397624686669 $341 39.418397624686669 $336 $400 forward 7 unknown #
straight-curve $-1 0 -39.418397624686669 -10.605205479291675 -1 0 0 I I #
vertex $-1 $248 $401 #
straight-curve $-1 0 39.418397624686669 -10.605205479291675 1 0 0 I I #
point $-1 61.972106082338939 39.418397624686669 -10.605205479291675 #
point $-1 61.972106082338939 -39.418397624686669 -10.605205479291675 #
coedge $-1 $336 $252 $255 $347 forward $161 $-1 #
straight-curve $-1 -61.972106082338939 0 10.605205479291675 0 -1 0 I I #
edge $-1 $256 -10.605205479291675 $341 10.605205479291675 $255 $402 forward 7 unknown #
point $-1 -61.972106082338939 39.418397624686669 10.605205479291675 #
point $-1 -61.972106082338939 -39.418397624686669 10.605205479291675 #
straight-curve $-1 61.972106082338939 -39.418397624686669 0 0 0 -1 I I #
straight-curve $-1 61.972106082338939 39.418397624686669 0 0 0 -1 I I #
plane-surface $-1 0 -39.418397624686669 0 0 1 0 0 0 1 forward_v I I I I #
coedge $-1 $403 $366 $269 $355 forward $266 $-1 #
coedge $-1 $356 $268 $277 $364 forward $180 $-1 #
edge $-1 $359 -3.0740434315550518 $357 3.0740434315550518 $269 $404 forward 7 unknown #
coedge $-1 $270 $354 $403 $405 forward $180 $-1 #
vertex $-1 $271 $406 #
straight-curve $-1 -67.242242982523493 39.418397624686669 -1.9416225383027443 1 0 0 I I #
vertex $-1 $272 $407 #
straight-curve $-1 -67.242242982523493 39.418397624686669 4.2064643248073592 -1 0 0 I I #
point $-1 -61.972106082338932 39.418397624686669 -1.9416225383027443 #
straight-curve $-1 -61.972106082338939 0 -1.9416225383027443 0 1 0 I I #
coedge $-1 $277 $276 $408 $409 forward $278 $-1 #
edge $-1 $279 -5.2701369001845606 $410 5.2701369001845535 $277 $411 forward 7 unknown #
point $-1 -61.972106082338932 -39.418397624686669 -1.9416225383027443 #
coedge $-1 $353 $408 $281 $367 reversed $266 $-1 #
edge $-1 $359 -39.418397624686669 $368 39.418397624686669 $366 $412 forward 7 unknown #
vertex $-1 $367 $413 #
straight-curve $-1 -67.242242982523493 -39.418397624686669 4.2064643248073592 1 0 0 I I #
coedge $-1 $371 $287 $377 $414 reversed $194 $-1 #
coedge $-1 $287 $370 $290 $375 reversed $194 $-1 #
edge $-1 $373 -37.545619662475467 $295 -11.307353177251493 $294 $415 forward 7 unknown #
vertex $-1 $289 $416 #
straight-curve $-1 61.972106082338939 11.264663389343752 44.208400337284338 0 0.57357642473473569 -0.81915205242281985 I I #
edge $-1 $291 34.793873026681595 $379 39.418397624686669 $371 $417 forward 7 unknown #
point $-1 61.972106082338946 34.793873026681595 10.605205479291669 #
coedge $-1 $294 $293 $370 $414 forward $285 $-1 #
point $-1 35.733839597114972 39.418397624686669 4.0006996931837193 #
vertex $-1 $375 $418 #
straight-curve $-1 0 39.418397624686669 10.605205479291675 -1 0 0 I I #
vertex $-1 $301 $419 #
point $-1 44.730487164321815 32.21495984618781 3.8781147481563059 #
vertex $-1 $305 $420 #
point $-1 55.97545851513209 32.21495984618781 3.8781147481563059 #
coedge $-1 $312 $311 $319 $390 reversed $139 $-1 #
edge $-1 $315 49.702109357494301 $393 61.972106082338939 $312 $421 forward 7 unknown #
straight-curve $-1 49.702109357494301 -39.418397624686669 35.09291326486067 0 0 -1 I I #
point $-1 49.702109357494301 -39.418397624686669 10.605205479291675 #
straight-curve $-1 27.918553859958308 -39.418397624686669 0.87710414460413122 1 0 0 I I #
edge $-1 $393 -10.605205479291675 $320 -0.87710414460412867 $319 $422 forward 7 unknown #
point $-1 61.972106082338932 -39.418397624686669 0.87710414460412867 #
point $-1 49.702109357494301 -39.418397624686669 0.87710414460412867 #
vertex $-1 $324 $423 #
straight-curve $-1 61.972106082338939 0 10.605205479291675 0 1 0 I I #
vertex $-1 $327 $424 #
point $-1 54.707822707449921 -31.345495778693529 2.5088707445637315 #
vertex $-1 $331 $425 #
point $-1 59.966392732383326 -31.345495778693529 2.5088707445637315 #
point $-1 -61.972106082338939 -39.418397624686669 -10.605205479291675 #
straight-curve $-1 -61.972106082338939 0 -10.605205479291675 0 1 0 I I #
point $-1 -61.972106082338939 39.418397624686669 -10.605205479291675 #
straight-curve $-1 -61.972106082338939 39.418397624686669 0 0 0 -1 I I #
coedge $-1 $408 $353 $356 $405 reversed $266 $-1 #
straight-curve $-1 -72.512379882708046 39.418397624686669 1.1324208932523074 0 0 -1 I I #
edge $-1 $410 -39.418397624686669 $357 39.418397624686669 $403 $426 forward 7 unknown #
point $-1 -72.512379882708046 39.418397624686669 -1.9416225383027443 #
point $-1 -72.512379882708046 39.418397624686669 4.2064643248073592 #
coedge $-1 $366 $403 $363 $409 reversed $266 $-1 #
edge $-1 $368 -3.0740434315550518 $410 3.0740434315550518 $408 $427 forward 7 unknown #
vertex $-1 $405 $428 #
straight-curve $-1 -67.242242982523493 -39.418397624686669 -1.9416225383027443 -1 0 0 I I #
straight-curve $-1 -72.512379882708046 0 4.2064643248073592 0 -1 0 I I #
point $-1 -72.512379882708046 -39.418397624686669 4.2064643248073592 #
edge $-1 $379 -10.605205479291675 $373 -4.0006996931837193 $370 $429 forward 7 unknown #
straight-curve $-1 24.42648641986348 39.418397624686669 4.0006996931837193 -1 0 0 I I #
point $-1 61.972106082338946 39.418397624686669 4.0006996931837193 #
straight-curve $-1 61.972106082338939 0 10.605205479291675 0 1 0 I I #
point $-1 61.972106082338939 39.418397624686669 10.605205479291675 #
point $-1 43.230487164321815 30.98623176755358 3.0177501110542027 #
point $-1 54.47545851513209 30.98623176755358 3.0177501110542027 #
straight-curve $-1 0 -39.418397624686669 10.605205479291675 1 0 0 I I #
straight-curve $-1 61.972106082338939 -39.418397624686669 0 0 0 -1 I I #
point $-1 61.972106082338939 -39.418397624686669 10.605205479291675 #
point $-1 53.207822707449921 -30.101939407749914 1.6700814073129868 #
point $-1 58.466392732383326 -30.101939407749914 1.6700814073129868 #
straight-curve $-1 -72.512379882708046 0 -1.9416225383027443 0 1 0 I I #
straight-curve $-1 -72.512379882708046 -39.418397624686669 1.1324208932523074 0 0 -1 I I #
point $-1 -72.512379882708046 -39.418397624686669 -1.9416225383027443 #
straight-curve $-1 61.972106082338939 39.418397624686669 0 0 0 -1 I I #
End-of-ACIS-data 