500 0 12 0           
7 Unknown 11 ACIS 5.0 NT 24 Fri Mar 26 15:09:10 1999 
-1 9.9999999999999995e-007 1e-010 
body $-1 $12 $-1 $13 #
body $-1 $14 $-1 $15 #
body $-1 $16 $-1 $17 #
body $-1 $18 $-1 $19 #
body $-1 $20 $-1 $21 #
body $-1 $22 $-1 $23 #
body $-1 $24 $-1 $25 #
body $-1 $26 $-1 $27 #
body $-1 $28 $-1 $29 #
body $-1 $30 $-1 $31 #
body $-1 $32 $-1 $33 #
body $-1 $34 $-1 $35 #
lump $-1 $-1 $36 $0 #
transform $-1 1 0 0 0 1 0 0 0 1 53.312173833429974 33.751469163719229 15.934788902332727 1 rotate no_reflect no_shear #
lump $-1 $-1 $37 $1 #
transform $-1 1 0 0 0 1 0 0 0 1 53.312173833429974 33.751469163719229 15.934788902332727 1 rotate no_reflect no_shear #
lump $-1 $-1 $38 $2 #
transform $-1 1 0 0 0 1 0 0 0 1 53.312173833429974 33.751469163719229 15.934788902332727 1 rotate no_reflect no_shear #
lump $-1 $-1 $39 $3 #
transform $-1 1 0 0 0 1 0 0 0 1 53.312173833429974 33.751469163719229 15.934788902332727 1 rotate no_reflect no_shear #
lump $-1 $-1 $40 $4 #
transform $-1 1 0 0 0 1 0 0 0 1 53.312173833429974 33.751469163719229 15.934788902332727 1 rotate no_reflect no_shear #
lump $-1 $-1 $41 $5 #
transform $-1 1 0 0 0 1 0 0 0 1 53.312173833429974 33.751469163719229 15.934788902332727 1 rotate no_reflect no_shear #
lump $-1 $-1 $42 $6 #
transform $-1 1 0 0 0 1 0 0 0 1 53.312173833429974 33.751469163719229 15.934788902332727 1 rotate no_reflect no_shear #
lump $-1 $-1 $43 $7 #
transform $-1 1 0 0 0 1 0 0 0 1 53.312173833429974 33.751469163719229 15.934788902332727 1 rotate no_reflect no_shear #
lump $-1 $-1 $44 $8 #
transform $-1 1 0 0 0 1 0 0 0 1 53.312173833429974 33.751469163719229 15.934788902332727 1 rotate no_reflect no_shear #
lump $-1 $-1 $45 $9 #
transform $-1 1 0 0 0 1 0 0 0 1 53.312173833429974 33.751469163719229 15.934788902332727 1 rotate no_reflect no_shear #
lump $-1 $-1 $46 $10 #
transform $-1 1 0 0 0 1 0 0 0 1 53.312173833429974 33.751469163719229 15.934788902332727 1 rotate no_reflect no_shear #
lump $-1 $-1 $47 $11 #
transform $-1 1 0 0 0 1 0 0 0 1 53.312173833429974 33.751469163719229 15.934788902332727 1 rotate no_reflect no_shear #
shell $-1 $-1 $-1 $48 $-1 $12 #
shell $-1 $-1 $-1 $49 $-1 $14 #
shell $-1 $-1 $-1 $50 $-1 $16 #
shell $-1 $-1 $-1 $51 $-1 $18 #
shell $-1 $-1 $-1 $52 $-1 $20 #
shell $-1 $-1 $-1 $53 $-1 $22 #
shell $-1 $-1 $-1 $54 $-1 $24 #
shell $-1 $-1 $-1 $55 $-1 $26 #
shell $-1 $-1 $-1 $56 $-1 $28 #
shell $-1 $-1 $-1 $57 $-1 $30 #
shell $-1 $-1 $-1 $58 $-1 $32 #
shell $-1 $-1 $-1 $59 $-1 $34 #
face $-1 $60 $61 $36 $-1 $62 forward single #
face $-1 $63 $64 $37 $-1 $65 forward single #
face $-1 $66 $67 $38 $-1 $68 reversed single #
face $-1 $69 $70 $39 $-1 $71 reversed single #
face $-1 $72 $73 $40 $-1 $74 forward single #
face $-1 $75 $76 $41 $-1 $77 forward single #
face $-1 $78 $79 $42 $-1 $80 reversed single #
face $-1 $81 $82 $43 $-1 $83 forward single #
face $-1 $84 $85 $44 $-1 $86 forward single #
face $-1 $87 $88 $45 $-1 $89 reversed single #
face $-1 $90 $91 $46 $-1 $92 forward single #
face $-1 $93 $94 $47 $-1 $95 forward single #
face $-1 $96 $97 $36 $-1 $98 reversed single #
loop $-1 $-1 $99 $48 #
plane-surface $-1 0 0 15.934788902332727 0 0 1 1 0 0 forward_v I I I I #
face $-1 $100 $101 $37 $-1 $102 reversed single #
loop $-1 $-1 $103 $49 #
plane-surface $-1 -53.312173833429974 0 0 1 0 0 0 0 -1 forward_v I I I I #
face $-1 $104 $105 $38 $-1 $106 reversed single #
loop $-1 $-1 $107 $50 #
plane-surface $-1 33.281258619960603 -30.181739925840468 0 1 0 0 0 0 -1 forward_v I I I I #
face $-1 $108 $109 $39 $-1 $110 reversed single #
loop $-1 $-1 $111 $51 #
plane-surface $-1 -15.086425245231283 -124.1740450514786 62.759089584073465 -1 0 0 0 -0.84804810408105047 0.52991925155115449 forward_v I I I I #
face $-1 $112 $113 $40 $-1 $114 forward single #
loop $-1 $115 $116 $52 #
cone-surface $-1 -24.719528292839907 -29.139705460686166 10.103485156281213 0 0.84804810408105047 -0.52991925155115449 1.5 0 0 1 I I 0 1 1.5 forward I I I I #
face $-1 $117 $118 $41 $-1 $119 forward single #
loop $-1 $120 $121 $53 #
cone-surface $-1 -18.93966646427473 -29.139705460686166 10.103485156281213 0 0.84804810408105047 -0.52991925155115449 1.5 0 0 1 I I 0 1 1.5 forward I I I I #
face $-1 $122 $123 $42 $-1 $124 reversed single #
loop $-1 $-1 $125 $54 #
plane-surface $-1 -38.101144433876378 90.379791751097883 122.11354763325421 1 0 0 0 -0.85716730853699208 -0.51503806187062418 forward_v I I I I #
face $-1 $126 $127 $43 $-1 $128 forward single #
loop $-1 $129 $130 $55 #
cone-surface $-1 -34.249179184351561 30.912593003587006 12.121021338676146 0 -0.85716730853699208 -0.51503806187062418 1.5 0 0 1 I I 0 1 1.5 forward I I I I #
face $-1 $131 $132 $44 $-1 $133 forward single #
loop $-1 $134 $135 $56 #
cone-surface $-1 -28.471231310064347 30.912593003587006 12.121021338676146 0 -0.85716730853699208 -0.51503806187062418 1.5 0 0 1 I I 0 1 1.5 forward I I I I #
face $-1 $136 $137 $45 $-1 $138 reversed single #
loop $-1 $-1 $139 $57 #
plane-surface $-1 19.799380246623755 90.379791751097883 122.11354763325421 1 0 0 0 -0.85716730853699208 -0.51503806187062418 forward_v I I I I #
face $-1 $140 $141 $46 $-1 $142 forward single #
loop $-1 $143 $144 $58 #
cone-surface $-1 23.651345496148572 30.912593003587006 12.121021338676146 0 -0.85716730853699208 -0.51503806187062418 1.5 0 0 1 I I 0 1 1.5 forward I I I I #
face $-1 $145 $146 $47 $-1 $147 forward single #
loop $-1 $148 $149 $59 #
cone-surface $-1 29.429293370435794 30.912593003587006 12.121021338676146 0 -0.85716730853699208 -0.51503806187062418 1.5 0 0 1 I I 0 1 1.5 forward I I I I #
face $-1 $150 $151 $36 $-1 $152 reversed single #
loop $-1 $-1 $153 $60 #
plane-surface $-1 0 0 -15.934788902332727 0 0 1 1 0 0 forward_v I I I I #
coedge $-1 $154 $155 $156 $157 forward $61 $-1 #
face $-1 $158 $159 $37 $-1 $160 forward single #
loop $-1 $-1 $161 $63 #
plane-surface $-1 0 33.751469163719229 0 0 -1 0 0 0 -1 forward_v I I I I #
coedge $-1 $162 $163 $164 $165 forward $64 $-1 #
face $-1 $166 $167 $38 $-1 $168 reversed single #
loop $-1 $-1 $169 $66 #
plane-surface $-1 43.296716226695288 -26.612010687961707 0 0 -1 0 0 0 -1 forward_v I I I I #
coedge $-1 $170 $171 $172 $173 forward $67 $-1 #
face $-1 $174 $175 $39 $-1 $176 reversed single #
loop $-1 $-1 $177 $69 #
plane-surface $-1 -21.82959737855732 -33.75146916371925 6.2567950713209584 0 -0.84804810408105047 0.52991925155115449 1 0 0 forward_v I I I I #
coedge $-1 $178 $179 $180 $181 reversed $70 $-1 #
face $-1 $-1 $182 $40 $-1 $183 forward single #
loop $-1 $184 $185 $72 #
cone-surface $-1 -24.719528292839907 -26.915646445455938 8.7137388870722177 0 0.84804810408105047 -0.52991925155115449 0.75 0 0 1 I I -0.70710678118654757 0.70710678118654757 0.75 forward I I I I #
loop $-1 $-1 $186 $52 #
coedge $-1 $116 $116 $187 $188 reversed $73 $-1 #
face $-1 $-1 $189 $41 $-1 $190 forward single #
loop $-1 $191 $192 $75 #
cone-surface $-1 -18.93966646427473 -26.915646445455938 8.7137388870722177 0 0.84804810408105047 -0.52991925155115449 0.75 0 0 1 I I -0.70710678118654757 0.70710678118654757 0.75 forward I I I I #
loop $-1 $-1 $193 $53 #
coedge $-1 $121 $121 $194 $195 reversed $76 $-1 #
face $-1 $196 $197 $42 $-1 $198 reversed single #
loop $-1 $-1 $199 $78 #
plane-surface $-1 -31.360205247207958 -1.0151133630169653 67.197950262695059 0 0.85716730853699208 0.51503806187062418 1 0 0 forward_v I I I I #
coedge $-1 $200 $201 $202 $203 reversed $79 $-1 #
face $-1 $-1 $204 $43 $-1 $205 forward single #
loop $-1 $206 $207 $81 #
cone-surface $-1 -34.249179184351561 29.413125721957087 11.22005053066993 0 -0.85716730853699208 -0.51503806187062418 0.75 0 0 1 I I -0.70710678118654757 0.70710678118654757 0.75 forward I I I I #
loop $-1 $-1 $208 $55 #
coedge $-1 $130 $130 $209 $210 reversed $82 $-1 #
face $-1 $-1 $211 $44 $-1 $212 forward single #
loop $-1 $213 $214 $84 #
cone-surface $-1 -28.471231310064347 29.413125721957087 11.22005053066993 0 -0.85716730853699208 -0.51503806187062418 0.75 0 0 1 I I -0.70710678118654757 0.70710678118654757 0.75 forward I I I I #
loop $-1 $-1 $215 $56 #
coedge $-1 $135 $135 $216 $217 reversed $85 $-1 #
face $-1 $218 $219 $45 $-1 $220 reversed single #
loop $-1 $-1 $221 $87 #
plane-surface $-1 26.540319433292176 -1.0151133630169653 67.197950262695059 0 0.85716730853699208 0.51503806187062418 1 0 0 forward_v I I I I #
coedge $-1 $222 $223 $224 $225 reversed $88 $-1 #
face $-1 $-1 $226 $46 $-1 $227 forward single #
loop $-1 $228 $229 $90 #
cone-surface $-1 23.651345496148572 29.413125721957087 11.22005053066993 0 -0.85716730853699208 -0.51503806187062418 0.75 0 0 1 I I -0.70710678118654757 0.70710678118654757 0.75 forward I I I I #
loop $-1 $-1 $230 $58 #
coedge $-1 $144 $144 $231 $232 reversed $91 $-1 #
face $-1 $-1 $233 $47 $-1 $234 forward single #
loop $-1 $235 $236 $93 #
cone-surface $-1 29.429293370435794 29.413125721957087 11.22005053066993 0 -0.85716730853699208 -0.51503806187062418 0.75 0 0 1 I I -0.70710678118654757 0.70710678118654757 0.75 forward I I I I #
loop $-1 $-1 $237 $59 #
coedge $-1 $149 $149 $238 $239 reversed $94 $-1 #
face $-1 $240 $241 $36 $-1 $242 reversed single #
loop $-1 $-1 $243 $96 #
plane-surface $-1 0 -33.751469163719229 0 0 1 0 0 0 1 forward_v I I I I #
coedge $-1 $244 $245 $246 $247 forward $97 $-1 #
coedge $-1 $248 $99 $249 $250 forward $61 $-1 #
coedge $-1 $99 $248 $251 $252 forward $61 $-1 #
coedge $-1 $253 $254 $99 $157 reversed $255 $-1 #
edge $-1 $256 -33.751469163719229 $257 33.751469163719229 $156 $258 forward 7 unknown #
face $-1 $259 $260 $37 $-1 $261 reversed single #
loop $-1 $-1 $164 $100 #
plane-surface $-1 -60.917688533206771 0 8.3111328576090813 0 0 1 1 0 0 forward_v I I I I #
coedge $-1 $262 $263 $163 $264 forward $101 $-1 #
coedge $-1 $265 $103 $266 $267 reversed $64 $-1 #
coedge $-1 $103 $265 $161 $264 reversed $64 $-1 #
coedge $-1 $268 $269 $103 $165 reversed $159 $-1 #
edge $-1 $270 -33.751469163719229 $271 33.751469163719229 $164 $272 forward 7 unknown #
face $-1 $273 $274 $38 $-1 $275 forward single #
loop $-1 $-1 $276 $104 #
plane-surface $-1 53.312173833429974 0 0 -1 0 0 0 0 1 forward_v I I I I #
coedge $-1 $277 $278 $276 $279 reversed $105 $-1 #
coedge $-1 $280 $107 $281 $282 reversed $67 $-1 #
coedge $-1 $107 $280 $283 $284 reversed $67 $-1 #
coedge $-1 $278 $277 $107 $173 reversed $105 $-1 #
edge $-1 $285 -15.934788902332727 $286 15.934788902332727 $172 $287 forward 7 unknown #
face $-1 $288 $289 $39 $-1 $290 reversed single #
loop $-1 $-1 $291 $108 #
plane-surface $-1 -28.572769511883358 -124.1740450514786 62.759089584073465 1 0 0 0 0.84804810408105047 -0.52991925155115449 forward_v I I I I #
coedge $-1 $292 $293 $294 $295 reversed $109 $-1 #
coedge $-1 $179 $111 $296 $297 reversed $70 $-1 #
coedge $-1 $111 $178 $292 $298 reversed $70 $-1 #
coedge $-1 $294 $299 $111 $181 forward $300 $-1 #
edge $-1 $301 28.335553362020072 $302 34.383034893747279 $180 $303 forward 7 unknown #
loop $-1 $-1 $187 $112 #
plane-surface $-1 -21.82959737855732 -33.75146916371925 6.2567950713209584 0 -0.84804810408105047 0.52991925155115449 1 0 0 forward_v I I I I #
loop $-1 $-1 $304 $72 #
coedge $-1 $185 $185 $186 $305 reversed $113 $-1 #
coedge $-1 $186 $186 $185 $305 forward $115 $-1 #
coedge $-1 $187 $187 $116 $188 forward $182 $-1 #
edge $-1 $306 2.4976037951920986e-016 $306 6.2831853071796004 $187 $307 forward 7 unknown #
loop $-1 $-1 $194 $117 #
plane-surface $-1 -21.82959737855732 -33.75146916371925 6.2567950713209584 0 -0.84804810408105047 0.52991925155115449 1 0 0 forward_v I I I I #
loop $-1 $-1 $308 $75 #
coedge $-1 $192 $192 $193 $309 reversed $118 $-1 #
coedge $-1 $193 $193 $192 $309 forward $120 $-1 #
coedge $-1 $194 $194 $121 $195 forward $189 $-1 #
edge $-1 $310 2.4976037951920986e-016 $310 6.2831853071796004 $194 $311 forward 7 unknown #
face $-1 $312 $313 $42 $-1 $314 forward single #
loop $-1 $-1 $315 $122 #
plane-surface $-1 -24.619266060539537 90.379791751097883 122.11354763325421 -1 0 0 0 0.85716730853699208 0.51503806187062418 forward_v I I I I #
coedge $-1 $316 $317 $318 $319 reversed $123 $-1 #
coedge $-1 $201 $125 $320 $321 reversed $79 $-1 #
coedge $-1 $125 $200 $316 $322 reversed $79 $-1 #
coedge $-1 $318 $323 $125 $203 forward $313 $-1 #
edge $-1 $324 11.438426711829713 $325 15.402995431639837 $202 $326 forward 7 unknown #
loop $-1 $-1 $209 $126 #
plane-surface $-1 -31.360205247207958 -1.0151133630169653 67.197950262695059 0 0.85716730853699208 0.51503806187062418 1 0 0 forward_v I I I I #
loop $-1 $-1 $327 $81 #
coedge $-1 $207 $207 $208 $328 reversed $127 $-1 #
coedge $-1 $208 $208 $207 $328 forward $129 $-1 #
coedge $-1 $209 $209 $130 $210 forward $204 $-1 #
edge $-1 $329 -1.9602932340486182e-016 $329 6.2831853071796004 $209 $330 forward 7 unknown #
loop $-1 $-1 $216 $131 #
plane-surface $-1 -31.360205247207958 -1.0151133630169653 67.197950262695059 0 0.85716730853699208 0.51503806187062418 1 0 0 forward_v I I I I #
loop $-1 $-1 $331 $84 #
coedge $-1 $214 $214 $215 $332 reversed $132 $-1 #
coedge $-1 $215 $215 $214 $332 forward $134 $-1 #
coedge $-1 $216 $216 $135 $217 forward $211 $-1 #
edge $-1 $333 -1.9602932340486182e-016 $333 6.2831853071796004 $216 $334 forward 7 unknown #
face $-1 $335 $336 $45 $-1 $337 forward single #
loop $-1 $-1 $338 $136 #
plane-surface $-1 33.281258619960596 90.379791751097883 122.11354763325421 -1 0 0 0 0.85716730853699208 0.51503806187062418 forward_v I I I I #
coedge $-1 $339 $340 $341 $342 reversed $137 $-1 #
coedge $-1 $223 $139 $343 $344 reversed $88 $-1 #
coedge $-1 $139 $222 $339 $345 reversed $88 $-1 #
coedge $-1 $341 $346 $139 $225 forward $336 $-1 #
edge $-1 $347 11.438426711829713 $348 15.402995431639837 $224 $349 forward 7 unknown #
loop $-1 $-1 $231 $140 #
plane-surface $-1 26.540319433292176 -1.0151133630169653 67.197950262695059 0 0.85716730853699208 0.51503806187062418 1 0 0 forward_v I I I I #
loop $-1 $-1 $350 $90 #
coedge $-1 $229 $229 $230 $351 reversed $141 $-1 #
coedge $-1 $230 $230 $229 $351 forward $143 $-1 #
coedge $-1 $231 $231 $144 $232 forward $226 $-1 #
edge $-1 $352 -1.9602932340486182e-016 $352 6.2831853071796004 $231 $353 forward 7 unknown #
loop $-1 $-1 $238 $145 #
plane-surface $-1 26.540319433292176 -1.0151133630169653 67.197950262695059 0 0.85716730853699208 0.51503806187062418 1 0 0 forward_v I I I I #
loop $-1 $-1 $354 $93 #
coedge $-1 $236 $236 $237 $355 reversed $146 $-1 #
coedge $-1 $237 $237 $236 $355 forward $148 $-1 #
coedge $-1 $238 $238 $149 $239 forward $233 $-1 #
edge $-1 $356 -1.9602932340486182e-016 $356 6.2831853071796004 $238 $357 forward 7 unknown #
face $-1 $358 $359 $36 $-1 $360 reversed single #
loop $-1 $-1 $361 $150 #
plane-surface $-1 -53.312173833429974 0 0 1 0 0 0 0 -1 forward_v I I I I #
coedge $-1 $362 $251 $363 $364 forward $151 $-1 #
coedge $-1 $365 $153 $362 $366 forward $97 $-1 #
coedge $-1 $153 $365 $367 $368 forward $97 $-1 #
coedge $-1 $254 $253 $153 $247 reversed $255 $-1 #
edge $-1 $369 -33.751469163719229 $370 33.751469163719229 $246 $371 forward 7 unknown #
coedge $-1 $155 $154 $372 $373 forward $61 $-1 #
coedge $-1 $374 $375 $154 $250 reversed $359 $-1 #
edge $-1 $257 -53.312173833429974 $376 53.312173833429974 $249 $377 forward 7 unknown #
coedge $-1 $243 $378 $155 $252 reversed $151 $-1 #
edge $-1 $379 -53.312173833429974 $256 53.312173833429974 $251 $380 forward 7 unknown #
coedge $-1 $246 $156 $378 $381 forward $255 $-1 #
coedge $-1 $156 $246 $374 $382 reversed $255 $-1 #
loop $-1 $-1 $253 $358 #
vertex $-1 $157 $383 #
vertex $-1 $157 $384 #
straight-curve $-1 53.312173833429974 0 15.934788902332727 0 1 0 I I #
face $-1 $385 $386 $37 $-1 $387 reversed single #
loop $-1 $-1 $388 $158 #
plane-surface $-1 -60.917688533206771 0 -0.32731525139379247 0 0 1 1 0 0 forward_v I I I I #
coedge $-1 $389 $161 $390 $391 reversed $101 $-1 #
coedge $-1 $161 $389 $268 $392 reversed $101 $-1 #
edge $-1 $270 -8.3111328576090813 $393 0.32731525139379247 $161 $394 forward 7 unknown #
coedge $-1 $163 $162 $388 $395 forward $64 $-1 #
coedge $-1 $396 $397 $162 $267 forward $398 $-1 #
edge $-1 $399 -0.32731525139379247 $271 8.3111328576090813 $266 $400 forward 7 unknown #
coedge $-1 $401 $164 $263 $392 forward $159 $-1 #
coedge $-1 $164 $401 $396 $402 forward $159 $-1 #
vertex $-1 $264 $403 #
vertex $-1 $402 $404 #
straight-curve $-1 -53.312173833429974 0 8.3111328576090813 0 -1 0 I I #
face $-1 $405 $406 $38 $-1 $407 reversed single #
loop $-1 $-1 $408 $166 #
plane-surface $-1 0 0 15.934788902332727 0 0 1 1 0 0 forward_v I I I I #
coedge $-1 $409 $410 $169 $279 forward $167 $-1 #
coedge $-1 $172 $169 $411 $412 reversed $105 $-1 #
coedge $-1 $169 $172 $408 $413 reversed $105 $-1 #
edge $-1 $414 -15.934788902332727 $415 15.934788902332727 $276 $416 forward 7 unknown #
coedge $-1 $171 $170 $417 $418 reversed $67 $-1 #
coedge $-1 $411 $419 $170 $282 forward $406 $-1 #
edge $-1 $420 -18.660599200798995 $286 -11.521140725041473 $281 $421 forward 7 unknown #
coedge $-1 $422 $408 $171 $284 forward $274 $-1 #
edge $-1 $285 11.521140725041473 $423 18.660599200798995 $283 $424 forward 7 unknown #
vertex $-1 $284 $425 #
vertex $-1 $282 $426 #
straight-curve $-1 33.281258619960603 -26.612010687961707 0 0 0 -1 I I #
face $-1 $-1 $300 $39 $-1 $427 forward single #
loop $-1 $-1 $428 $174 #
plane-surface $-1 0 -33.751469163719229 0 0 1 0 0 0 1 forward_v I I I I #
coedge $-1 $429 $430 $431 $432 reversed $175 $-1 #
coedge $-1 $433 $177 $179 $298 forward $109 $-1 #
coedge $-1 $177 $433 $429 $434 forward $109 $-1 #
coedge $-1 $431 $180 $177 $295 forward $300 $-1 #
edge $-1 $302 4.1716265559526224 $435 17.657970822604696 $294 $436 forward 7 unknown #
coedge $-1 $437 $438 $178 $297 forward $289 $-1 #
edge $-1 $439 -25.122749720715738 $301 -15.444755889704005 $296 $440 forward 7 unknown #
edge $-1 $302 -11.412081206759957 $439 -3.9918193188544054e-014 $179 $441 forward 7 unknown #
coedge $-1 $180 $431 $437 $442 forward $300 $-1 #
loop $-1 $-1 $431 $288 #
vertex $-1 $297 $443 #
vertex $-1 $181 $444 #
straight-curve $-1 -15.086425245231283 -62.0870225257393 15.934788902332727 0 1 0 I I #
coedge $-1 $304 $304 $-1 $445 reversed $184 $-1 #
edge $-1 $446 0 $446 6.2831853071796004 $185 $447 forward 7 unknown #
vertex $-1 $188 $448 #
ellipse-curve $-1 -24.719528292839907 -30.727728397855628 11.095791986826853 0 -0.84804810408105047 0.52991925155115449 1.5 0 0 1 I I #
coedge $-1 $308 $308 $-1 $449 reversed $191 $-1 #
edge $-1 $450 0 $450 6.2831853071796004 $192 $451 forward 7 unknown #
vertex $-1 $195 $452 #
ellipse-curve $-1 -18.93966646427473 -30.727728397855628 11.095791986826853 0 -0.84804810408105047 0.52991925155115449 1.5 0 0 1 I I #
face $-1 $-1 $453 $42 $-1 $454 reversed single #
loop $-1 $-1 $202 $196 #
plane-surface $-1 0 0 15.934788902332727 0 0 1 1 0 0 forward_v I I I I #
coedge $-1 $455 $456 $457 $458 reversed $197 $-1 #
coedge $-1 $459 $199 $201 $322 forward $123 $-1 #
coedge $-1 $199 $459 $455 $460 forward $123 $-1 #
coedge $-1 $457 $202 $199 $319 forward $313 $-1 #
edge $-1 $325 -22.421041810272399 $461 -8.9391634369355586 $318 $462 forward 7 unknown #
coedge $-1 $463 $464 $200 $321 forward $453 $-1 #
edge $-1 $465 -51.720135518401058 $324 -45.12198491429438 $320 $466 forward 7 unknown #
edge $-1 $325 59.805315543190737 $465 67.5029383274385 $201 $467 forward 7 unknown #
coedge $-1 $202 $457 $463 $468 forward $313 $-1 #
vertex $-1 $321 $469 #
vertex $-1 $203 $470 #
straight-curve $-1 -38.101144433876378 45.189895875548942 15.934788902332727 0 -1 0 I I #
coedge $-1 $327 $327 $-1 $471 reversed $206 $-1 #
edge $-1 $472 0 $472 6.2831853071796004 $207 $473 forward 7 unknown #
vertex $-1 $210 $474 #
ellipse-curve $-1 -34.249179184351561 31.769184803814163 12.635713600279383 0 0.85716730853699208 0.51503806187062418 1.5 0 0 1 I I #
coedge $-1 $331 $331 $-1 $475 reversed $213 $-1 #
edge $-1 $476 0 $476 6.2831853071796004 $214 $477 forward 7 unknown #
vertex $-1 $217 $478 #
ellipse-curve $-1 -28.471231310064347 31.769184803814163 12.635713600279383 0 0.85716730853699208 0.51503806187062418 1.5 0 0 1 I I #
face $-1 $-1 $479 $45 $-1 $480 reversed single #
loop $-1 $-1 $224 $218 #
plane-surface $-1 0 0 15.934788902332727 0 0 1 1 0 0 forward_v I I I I #
coedge $-1 $481 $482 $483 $484 reversed $219 $-1 #
coedge $-1 $485 $221 $223 $345 forward $137 $-1 #
coedge $-1 $221 $485 $481 $486 forward $137 $-1 #
coedge $-1 $483 $224 $221 $342 forward $336 $-1 #
edge $-1 $348 6.5292205299776676 $487 20.011098903314508 $341 $488 forward 7 unknown #
coedge $-1 $489 $490 $222 $344 forward $479 $-1 #
edge $-1 $491 -51.720135518401058 $347 -45.12198491429438 $343 $492 forward 7 unknown #
edge $-1 $348 59.805315543190737 $491 67.5029383274385 $223 $493 forward 7 unknown #
coedge $-1 $224 $483 $489 $494 forward $336 $-1 #
vertex $-1 $225 $495 #
vertex $-1 $225 $496 #
straight-curve $-1 19.799380246623755 45.189895875548942 15.934788902332727 0 -1 0 I I #
coedge $-1 $350 $350 $-1 $497 reversed $228 $-1 #
edge $-1 $498 0 $498 6.2831853071796004 $229 $499 forward 7 unknown #
vertex $-1 $232 $500 #
ellipse-curve $-1 23.651345496148572 31.769184803814163 12.635713600279383 0 0.85716730853699208 0.51503806187062418 1.5 0 0 1 I I #
coedge $-1 $354 $354 $-1 $501 reversed $235 $-1 #
edge $-1 $502 0 $502 6.2831853071796004 $236 $503 forward 7 unknown #
vertex $-1 $239 $504 #
ellipse-curve $-1 29.429293370435794 31.769184803814163 12.635713600279383 0 0.85716730853699208 0.51503806187062418 1.5 0 0 1 I I #
face $-1 $-1 $255 $36 $-1 $505 reversed single #
loop $-1 $-1 $374 $240 #
plane-surface $-1 0 33.751469163719229 0 0 -1 0 0 0 -1 forward_v I I I I #
coedge $-1 $506 $372 $375 $507 forward $241 $-1 #
coedge $-1 $378 $243 $244 $366 reversed $151 $-1 #
coedge $-1 $372 $506 $243 $364 reversed $241 $-1 #
edge $-1 $379 -15.934788902332727 $508 15.934788902332727 $363 $509 forward 7 unknown #
coedge $-1 $245 $244 $506 $510 forward $97 $-1 #
edge $-1 $370 -53.312173833429974 $508 53.312173833429974 $362 $511 forward 7 unknown #
coedge $-1 $375 $374 $245 $368 reversed $359 $-1 #
edge $-1 $512 -53.312173833429974 $369 53.312173833429974 $367 $513 forward 7 unknown #
vertex $-1 $247 $514 #
vertex $-1 $381 $515 #
straight-curve $-1 53.312173833429974 0 -15.934788902332727 0 -1 0 I I #
coedge $-1 $361 $363 $248 $373 reversed $241 $-1 #
edge $-1 $376 -33.751469163719229 $379 33.751469163719229 $372 $516 forward 7 unknown #
coedge $-1 $367 $249 $254 $382 forward $359 $-1 #
coedge $-1 $249 $367 $361 $507 reversed $359 $-1 #
vertex $-1 $250 $517 #
straight-curve $-1 0 33.751469163719229 15.934788902332727 -1 0 0 I I #
coedge $-1 $251 $362 $253 $381 reversed $151 $-1 #
vertex $-1 $373 $518 #
straight-curve $-1 0 -33.751469163719229 15.934788902332727 1 0 0 I I #
edge $-1 $256 -15.934788902332727 $370 15.934788902332727 $253 $519 forward 7 unknown #
edge $-1 $257 -15.934788902332727 $369 15.934788902332727 $254 $520 forward 7 unknown #
point $-1 53.312173833429974 -33.751469163719229 15.934788902332727 #
point $-1 53.312173833429974 33.751469163719229 15.934788902332727 #
face $-1 $-1 $398 $37 $-1 $521 reversed single #
loop $-1 $-1 $522 $259 #
plane-surface $-1 -68.523203232983576 0 3.9919088031076448 1 0 0 0 0 -1 forward_v I I I I #
coedge $-1 $523 $390 $265 $395 reversed $260 $-1 #
coedge $-1 $263 $262 $522 $524 reversed $101 $-1 #
coedge $-1 $388 $525 $262 $391 forward $260 $-1 #
edge $-1 $526 -7.6055146997768048 $393 7.6055146997767977 $262 $527 forward 7 unknown #
edge $-1 $270 -7.6055146997767977 $528 7.6055146997768048 $263 $529 forward 7 unknown #
vertex $-1 $264 $530 #
straight-curve $-1 -53.312173833429974 33.751469163719229 0 0 0 -1 I I #
edge $-1 $399 -33.751469163719229 $393 33.751469163719229 $388 $531 forward 7 unknown #
coedge $-1 $532 $266 $269 $402 reversed $398 $-1 #
coedge $-1 $266 $532 $523 $533 reversed $398 $-1 #
loop $-1 $-1 $266 $385 #
vertex $-1 $267 $534 #
straight-curve $-1 -53.312173833429974 -33.751469163719229 0 0 0 1 I I #
coedge $-1 $269 $268 $535 $536 forward $159 $-1 #
edge $-1 $537 -7.6055146997768048 $271 7.6055146997767977 $396 $538 forward 7 unknown #
point $-1 -53.312173833429974 33.751469163719229 8.3111328576090813 #
point $-1 -53.312173833429974 -33.751469163719229 8.3111328576090813 #
face $-1 $-1 $539 $38 $-1 $540 reversed single #
loop $-1 $-1 $411 $273 #
plane-surface $-1 0 0 -15.934788902332727 0 0 1 1 0 0 forward_v I I I I #
coedge $-1 $283 $541 $278 $413 forward $274 $-1 #
coedge $-1 $542 $276 $541 $543 reversed $167 $-1 #
coedge $-1 $276 $542 $544 $545 reversed $167 $-1 #
coedge $-1 $544 $281 $277 $412 forward $406 $-1 #
edge $-1 $286 11.632900506612959 $414 31.663815720082329 $411 $546 forward 7 unknown #
edge $-1 $415 -31.663815720082329 $285 -11.632900506612959 $408 $547 forward 7 unknown #
vertex $-1 $545 $548 #
vertex $-1 $279 $549 #
straight-curve $-1 53.312173833429974 -26.612010687961707 0 0 0 1 I I #
coedge $-1 $550 $551 $280 $418 forward $539 $-1 #
edge $-1 $423 -15.934788902332727 $420 15.934788902332727 $417 $552 forward 7 unknown #
coedge $-1 $281 $544 $550 $553 forward $406 $-1 #
vertex $-1 $418 $554 #
straight-curve $-1 33.281258619960603 -15.090869962920234 -15.934788902332727 0 1 0 I I #
coedge $-1 $541 $283 $551 $555 forward $274 $-1 #
vertex $-1 $555 $556 #
straight-curve $-1 33.281258619960603 -15.090869962920234 15.934788902332727 0 -1 0 I I #
point $-1 33.281258619960603 -26.612010687961707 15.934788902332727 #
point $-1 33.281258619960603 -26.612010687961707 -15.934788902332727 #
plane-surface $-1 0 0 15.934788902332727 0 0 1 1 0 0 forward_v I I I I #
coedge $-1 $438 $437 $430 $557 forward $289 $-1 #
coedge $-1 $430 $291 $293 $434 reversed $175 $-1 #
coedge $-1 $291 $429 $428 $557 reversed $175 $-1 #
coedge $-1 $299 $294 $291 $432 forward $300 $-1 #
edge $-1 $435 -34.383034893747279 $558 -28.335553362020072 $431 $559 forward 7 unknown #
coedge $-1 $293 $292 $438 $560 reversed $109 $-1 #
edge $-1 $561 3.9918193188544054e-014 $435 11.412081206759957 $429 $562 forward 7 unknown #
vertex $-1 $295 $563 #
straight-curve $-1 -10.91479868927866 -27.703987631992018 15.934788902332727 -1 0 0 I I #
coedge $-1 $428 $296 $299 $442 reversed $289 $-1 #
coedge $-1 $296 $428 $433 $560 forward $289 $-1 #
vertex $-1 $297 $564 #
straight-curve $-1 -15.086425245231283 -33.751469163719229 31.379544792036732 0 0 1 I I #
straight-curve $-1 -15.086425245231283 -33.75146916371925 6.2567950713209584 0 -0.52991925155115449 -0.84804810408105047 I I #
edge $-1 $558 -28.572769511883358 $301 -15.086425245231283 $437 $565 forward 7 unknown #
point $-1 -15.086425245231283 -33.751469163719229 15.934788902332727 #
point $-1 -15.086425245231283 -27.703987631992018 15.934788902332727 #
edge $-1 $566 1 $566 0 $304 $-1 forward 7 unknown #
vertex $-1 $305 $567 #
ellipse-curve $-1 -24.719528292839907 -27.551682523516725 9.1111783257355832 0 -0.84804810408105047 0.52991925155115449 1.5 0 0 1 I I #
point $-1 -23.219528292839907 -30.727728397855611 11.095791986826843 #
edge $-1 $568 1 $568 0 $308 $-1 forward 7 unknown #
vertex $-1 $309 $569 #
ellipse-curve $-1 -18.93966646427473 -27.551682523516725 9.1111783257355832 0 -0.84804810408105047 0.52991925155115449 1.5 0 0 1 I I #
point $-1 -17.43966646427473 -30.727728397855611 11.095791986826843 #
loop $-1 $-1 $320 $312 #
plane-surface $-1 0 33.751469163719229 0 0 -1 0 0 0 -1 forward_v I I I I #
coedge $-1 $456 $315 $317 $460 reversed $197 $-1 #
coedge $-1 $315 $455 $570 $571 reversed $197 $-1 #
coedge $-1 $323 $318 $315 $458 forward $313 $-1 #
edge $-1 $461 -15.402995431639837 $572 -11.438426711829713 $457 $573 forward 7 unknown #
coedge $-1 $317 $316 $464 $574 reversed $123 $-1 #
edge $-1 $575 -67.5029383274385 $461 -59.805315543190737 $455 $576 forward 7 unknown #
vertex $-1 $319 $577 #
straight-curve $-1 -15.680102623603979 29.786900443909097 15.934788902332727 1 0 0 I I #
coedge $-1 $570 $320 $323 $468 reversed $453 $-1 #
coedge $-1 $320 $570 $459 $574 forward $453 $-1 #
vertex $-1 $321 $578 #
straight-curve $-1 -38.101144433876378 33.751469163719229 61.056773816627107 0 0 1 I I #
straight-curve $-1 -38.101144433876378 -1.0151133630169653 67.197950262695059 0 0.51503806187062418 -0.85716730853699208 I I #
edge $-1 $572 24.619266060539537 $324 38.101144433876378 $463 $579 forward 7 unknown #
point $-1 -38.101144433876378 33.751469163719229 15.934788902332727 #
point $-1 -38.101144433876378 29.786900443909104 15.934788902332727 #
edge $-1 $580 1 $580 0 $327 $-1 forward 7 unknown #
vertex $-1 $328 $581 #
ellipse-curve $-1 -34.249179184351561 30.05600120335983 11.606329077072898 0 0.85716730853699208 0.51503806187062418 1.5 0 0 1 I I #
point $-1 -32.749179184351561 31.769184803814177 12.635713600279391 #
edge $-1 $582 1 $582 0 $331 $-1 forward 7 unknown #
vertex $-1 $332 $583 #
ellipse-curve $-1 -28.471231310064347 30.05600120335983 11.606329077072898 0 0.85716730853699208 0.51503806187062418 1.5 0 0 1 I I #
point $-1 -26.971231310064347 31.769184803814177 12.635713600279391 #
loop $-1 $-1 $343 $335 #
plane-surface $-1 0 33.751469163719229 0 0 -1 0 0 0 -1 forward_v I I I I #
coedge $-1 $482 $338 $340 $486 reversed $219 $-1 #
coedge $-1 $338 $481 $584 $585 reversed $219 $-1 #
coedge $-1 $346 $341 $338 $484 forward $336 $-1 #
edge $-1 $487 -15.402995431639837 $586 -11.438426711829713 $483 $587 forward 7 unknown #
coedge $-1 $340 $339 $490 $588 reversed $137 $-1 #
edge $-1 $589 -67.5029383274385 $487 -59.805315543190737 $481 $590 forward 7 unknown #
vertex $-1 $342 $591 #
straight-curve $-1 13.270159716646088 29.786900443909097 15.934788902332727 1 0 0 I I #
coedge $-1 $584 $343 $346 $494 reversed $479 $-1 #
coedge $-1 $343 $584 $485 $588 forward $479 $-1 #
vertex $-1 $344 $592 #
straight-curve $-1 19.799380246623755 33.751469163719229 61.056773816627107 0 0 1 I I #
straight-curve $-1 19.799380246623755 -1.0151133630169653 67.197950262695059 0 0.51503806187062418 -0.85716730853699208 I I #
edge $-1 $586 -33.281258619960596 $347 -19.799380246623755 $489 $593 forward 7 unknown #
point $-1 19.799380246623755 33.751469163719229 15.934788902332727 #
point $-1 19.799380246623755 29.786900443909104 15.934788902332727 #
edge $-1 $594 1 $594 0 $350 $-1 forward 7 unknown #
vertex $-1 $351 $595 #
ellipse-curve $-1 23.651345496148572 30.05600120335983 11.606329077072898 0 0.85716730853699208 0.51503806187062418 1.5 0 0 1 I I #
point $-1 25.151345496148572 31.769184803814177 12.635713600279391 #
edge $-1 $596 1 $596 0 $354 $-1 forward 7 unknown #
vertex $-1 $355 $597 #
ellipse-curve $-1 29.429293370435794 30.05600120335983 11.606329077072898 0 0.85716730853699208 0.51503806187062418 1.5 0 0 1 I I #
point $-1 30.929293370435794 31.769184803814177 12.635713600279391 #
plane-surface $-1 53.312173833429974 0 0 -1 0 0 0 0 1 forward_v I I I I #
coedge $-1 $363 $361 $365 $510 reversed $241 $-1 #
edge $-1 $376 -15.934788902332727 $512 15.934788902332727 $375 $598 forward 7 unknown #
vertex $-1 $510 $599 #
straight-curve $-1 -53.312173833429974 -33.751469163719229 0 0 0 -1 I I #
edge $-1 $508 -33.751469163719229 $512 33.751469163719229 $506 $600 forward 7 unknown #
straight-curve $-1 0 -33.751469163719229 -15.934788902332727 -1 0 0 I I #
vertex $-1 $368 $601 #
straight-curve $-1 0 33.751469163719229 -15.934788902332727 1 0 0 I I #
point $-1 53.312173833429974 33.751469163719229 -15.934788902332727 #
point $-1 53.312173833429974 -33.751469163719229 -15.934788902332727 #
straight-curve $-1 -53.312173833429974 0 15.934788902332727 0 -1 0 I I #
point $-1 -53.312173833429974 33.751469163719229 15.934788902332727 #
point $-1 -53.312173833429974 -33.751469163719229 15.934788902332727 #
straight-curve $-1 53.312173833429974 -33.751469163719229 0 0 0 -1 I I #
straight-curve $-1 53.312173833429974 33.751469163719229 0 0 0 -1 I I #
plane-surface $-1 0 -33.751469163719229 0 0 1 0 0 0 1 forward_v I I I I #
coedge $-1 $602 $535 $389 $524 forward $386 $-1 #
coedge $-1 $525 $388 $397 $533 forward $260 $-1 #
edge $-1 $528 -4.3192240545014364 $526 4.3192240545014373 $389 $603 forward 7 unknown #
coedge $-1 $390 $523 $602 $604 forward $260 $-1 #
vertex $-1 $391 $605 #
straight-curve $-1 -60.917688533206771 33.751469163719229 -0.32731525139379247 1 0 0 I I #
vertex $-1 $392 $606 #
straight-curve $-1 -60.917688533206771 33.751469163719229 8.3111328576090813 -1 0 0 I I #
point $-1 -53.312173833429974 33.751469163719229 -0.32731525139379247 #
straight-curve $-1 -53.312173833429974 0 -0.32731525139379247 0 1 0 I I #
coedge $-1 $397 $396 $607 $608 forward $398 $-1 #
edge $-1 $399 -7.6055146997767977 $609 7.6055146997768048 $397 $610 forward 7 unknown #
point $-1 -53.312173833429974 -33.751469163719229 -0.32731525139379247 #
coedge $-1 $522 $607 $401 $536 reversed $386 $-1 #
edge $-1 $528 -33.751469163719229 $537 33.751469163719229 $535 $611 forward 7 unknown #
vertex $-1 $536 $612 #
straight-curve $-1 -60.917688533206771 -33.751469163719229 8.3111328576090813 1 0 0 I I #
loop $-1 $-1 $417 $405 #
plane-surface $-1 0 -33.751469163719229 0 0 1 0 0 0 1 forward_v I I I I #
coedge $-1 $408 $422 $409 $543 forward $274 $-1 #
coedge $-1 $410 $409 $613 $614 forward $167 $-1 #
edge $-1 $615 -33.751469163719229 $415 -26.612010687961707 $409 $616 forward 7 unknown #
coedge $-1 $419 $411 $410 $545 forward $406 $-1 #
edge $-1 $414 26.612010687961707 $617 33.751469163719229 $410 $618 forward 7 unknown #
straight-curve $-1 21.648358113347644 -26.612010687961707 -15.934788902332727 1 0 0 I I #
straight-curve $-1 21.648358113347644 -26.612010687961707 15.934788902332727 -1 0 0 I I #
point $-1 53.312173833429974 -26.612010687961707 -15.934788902332727 #
point $-1 53.312173833429974 -26.612010687961707 15.934788902332727 #
coedge $-1 $613 $417 $419 $553 reversed $539 $-1 #
coedge $-1 $417 $613 $422 $555 reversed $539 $-1 #
straight-curve $-1 33.281258619960603 -33.751469163719229 0 0 0 -1 I I #
edge $-1 $617 -53.312173833429974 $420 -33.281258619960603 $550 $619 forward 7 unknown #
point $-1 33.281258619960603 -33.751469163719229 -15.934788902332727 #
edge $-1 $423 33.281258619960603 $615 53.312173833429974 $551 $620 forward 7 unknown #
point $-1 33.281258619960603 -33.751469163719229 15.934788902332727 #
edge $-1 $558 15.444755889704005 $561 25.122749720715738 $428 $621 forward 7 unknown #
vertex $-1 $442 $622 #
straight-curve $-1 -28.572769511883358 -62.0870225257393 15.934788902332727 0 -1 0 I I #
edge $-1 $561 -17.657970822604696 $439 -4.1716265559526224 $438 $623 forward 7 unknown #
vertex $-1 $560 $624 #
straight-curve $-1 -28.572769511883358 -33.75146916371925 6.2567950713209584 0 0.52991925155115449 0.84804810408105047 I I #
point $-1 -28.572769511883358 -27.703987631992018 15.934788902332727 #
point $-1 -15.086425245231283 -33.751469163719229 6.2567950713209921 #
straight-curve $-1 0 -33.751469163719229 15.934788902332727 1 0 0 I I #
vertex $-1 $445 $625 #
point $-1 -23.219528292839907 -27.551682523516725 9.1111783257355832 #
vertex $-1 $449 $626 #
point $-1 -17.43966646427473 -27.551682523516725 9.1111783257355832 #
coedge $-1 $464 $463 $456 $571 forward $453 $-1 #
edge $-1 $572 45.12198491429438 $575 51.720135518401058 $570 $627 forward 7 unknown #
vertex $-1 $468 $628 #
straight-curve $-1 -24.619266060539537 45.189895875548942 15.934788902332727 0 1 0 I I #
edge $-1 $575 8.9391634369355586 $465 22.421041810272399 $464 $629 forward 7 unknown #
vertex $-1 $574 $630 #
straight-curve $-1 -24.619266060539537 -1.0151133630169653 67.197950262695059 0 -0.51503806187062418 0.85716730853699208 I I #
point $-1 -24.619266060539537 29.786900443909104 15.934788902332727 #
point $-1 -38.101144433876378 33.751469163719229 9.336638298226049 #
straight-curve $-1 0 33.751469163719229 15.934788902332727 -1 0 0 I I #
vertex $-1 $471 $631 #
point $-1 -32.749179184351561 30.05600120335983 11.606329077072898 #
vertex $-1 $475 $632 #
point $-1 -26.971231310064347 30.05600120335983 11.606329077072898 #
coedge $-1 $490 $489 $482 $585 forward $479 $-1 #
edge $-1 $586 45.12198491429438 $589 51.720135518401058 $584 $633 forward 7 unknown #
vertex $-1 $494 $634 #
straight-curve $-1 33.281258619960596 45.189895875548942 15.934788902332727 0 1 0 I I #
edge $-1 $589 -20.011098903314508 $491 -6.5292205299776676 $490 $635 forward 7 unknown #
vertex $-1 $588 $636 #
straight-curve $-1 33.281258619960596 -1.0151133630169653 67.197950262695059 0 -0.51503806187062418 0.85716730853699208 I I #
point $-1 33.281258619960596 29.786900443909104 15.934788902332727 #
point $-1 19.799380246623755 33.751469163719229 9.336638298226049 #
straight-curve $-1 0 33.751469163719229 15.934788902332727 -1 0 0 I I #
vertex $-1 $497 $637 #
point $-1 25.151345496148572 30.05600120335983 11.606329077072898 #
vertex $-1 $501 $638 #
point $-1 30.929293370435794 30.05600120335983 11.606329077072898 #
straight-curve $-1 -53.312173833429974 33.751469163719229 0 0 0 -1 I I #
point $-1 -53.312173833429974 -33.751469163719229 -15.934788902332727 #
straight-curve $-1 -53.312173833429974 0 -15.934788902332727 0 1 0 I I #
point $-1 -53.312173833429974 33.751469163719229 -15.934788902332727 #
coedge $-1 $607 $522 $525 $604 reversed $386 $-1 #
straight-curve $-1 -68.523203232983576 33.751469163719229 3.9919088031076448 0 0 -1 I I #
edge $-1 $609 -33.751469163719229 $526 33.751469163719229 $602 $639 forward 7 unknown #
point $-1 -68.523203232983576 33.751469163719229 -0.32731525139379247 #
point $-1 -68.523203232983576 33.751469163719229 8.3111328576090813 #
coedge $-1 $535 $602 $532 $608 reversed $386 $-1 #
edge $-1 $537 -4.3192240545014364 $609 4.3192240545014373 $607 $640 forward 7 unknown #
vertex $-1 $604 $641 #
straight-curve $-1 -60.917688533206771 -33.751469163719229 -0.32731525139379247 -1 0 0 I I #
straight-curve $-1 -68.523203232983576 0 8.3111328576090813 0 -1 0 I I #
point $-1 -68.523203232983576 -33.751469163719229 8.3111328576090813 #
coedge $-1 $551 $550 $542 $614 reversed $539 $-1 #
edge $-1 $615 -15.934788902332727 $617 15.934788902332727 $542 $642 forward 7 unknown #
vertex $-1 $543 $643 #
straight-curve $-1 53.312173833429974 0 15.934788902332727 0 1 0 I I #
vertex $-1 $614 $644 #
straight-curve $-1 53.312173833429974 0 -15.934788902332727 0 -1 0 I I #
straight-curve $-1 0 -33.751469163719229 -15.934788902332727 -1 0 0 I I #
straight-curve $-1 0 -33.751469163719229 15.934788902332727 1 0 0 I I #
straight-curve $-1 -28.572769511883358 -33.751469163719229 31.379544792036732 0 0 -1 I I #
point $-1 -28.572769511883358 -33.751469163719229 15.934788902332727 #
straight-curve $-1 -10.91479868927866 -33.751469163719229 6.2567950713209868 1 0 0 I I #
point $-1 -28.572769511883358 -33.751469163719229 6.2567950713209921 #
point $-1 -24.719528292839907 -26.279610367395151 8.3162994484088522 #
point $-1 -18.93966646427473 -26.279610367395151 8.3162994484088522 #
straight-curve $-1 -24.619266060539537 33.751469163719229 61.056773816627107 0 0 -1 I I #
point $-1 -24.619266060539537 33.751469163719229 15.934788902332727 #
straight-curve $-1 -15.680102623603979 33.751469163719229 9.3366382982260347 -1 0 0 I I #
point $-1 -24.619266060539537 33.751469163719229 9.336638298226049 #
point $-1 -34.249179184351561 28.770250240554343 10.833771984266962 #
point $-1 -28.471231310064347 28.770250240554343 10.833771984266962 #
straight-curve $-1 33.281258619960596 33.751469163719229 61.056773816627107 0 0 -1 I I #
point $-1 33.281258619960596 33.751469163719229 15.934788902332727 #
straight-curve $-1 13.270159716646088 33.751469163719229 9.3366382982260347 -1 0 0 I I #
point $-1 33.281258619960596 33.751469163719229 9.336638298226049 #
point $-1 23.651345496148572 28.770250240554343 10.833771984266962 #
point $-1 29.429293370435794 28.770250240554343 10.833771984266962 #
straight-curve $-1 -68.523203232983576 0 -0.32731525139379247 0 1 0 I I #
straight-curve $-1 -68.523203232983576 -33.751469163719229 3.9919088031076448 0 0 -1 I I #
point $-1 -68.523203232983576 -33.751469163719229 -0.32731525139379247 #
straight-curve $-1 53.312173833429974 -33.751469163719229 0 0 0 -1 I I #
point $-1 53.312173833429974 -33.751469163719229 15.934788902332727 #
point $-1 53.312173833429974 -33.751469163719229 -15.934788902332727 #
End-of-ACIS-data 