500 0 12 0           
7 Unknown 11 ACIS 5.0 NT 24 Thu Mar 25 19:39:42 1999 
-1 9.9999999999999995e-007 1e-010 
body $-1 $12 $-1 $13 #
body $-1 $14 $-1 $15 #
body $-1 $16 $-1 $17 #
body $-1 $18 $-1 $19 #
body $-1 $20 $-1 $21 #
body $-1 $22 $-1 $23 #
body $-1 $24 $-1 $25 #
body $-1 $26 $-1 $27 #
body $-1 $28 $-1 $29 #
body $-1 $30 $-1 $31 #
body $-1 $32 $-1 $33 #
body $-1 $34 $-1 $35 #
lump $-1 $-1 $36 $0 #
transform $-1 1 0 0 0 1 0 0 0 1 48.802758873256629 26.976232475969301 10.757726669011227 1 rotate no_reflect no_shear #
lump $-1 $-1 $37 $1 #
transform $-1 1 0 0 0 1 0 0 0 1 48.802758873256629 26.976232475969301 10.757726669011227 1 rotate no_reflect no_shear #
lump $-1 $-1 $38 $2 #
transform $-1 1 0 0 0 1 0 0 0 1 48.802758873256629 26.976232475969301 10.757726669011227 1 rotate no_reflect no_shear #
lump $-1 $-1 $39 $3 #
transform $-1 1 0 0 0 1 0 0 0 1 48.802758873256629 26.976232475969301 10.757726669011227 1 rotate no_reflect no_shear #
lump $-1 $-1 $40 $4 #
transform $-1 1 0 0 0 1 0 0 0 1 48.802758873256629 26.976232475969301 10.757726669011227 1 rotate no_reflect no_shear #
lump $-1 $-1 $41 $5 #
transform $-1 1 0 0 0 1 0 0 0 1 48.802758873256629 26.976232475969301 10.757726669011227 1 rotate no_reflect no_shear #
lump $-1 $-1 $42 $6 #
transform $-1 1 0 0 0 1 0 0 0 1 48.802758873256629 26.976232475969301 10.757726669011227 1 rotate no_reflect no_shear #
lump $-1 $-1 $43 $7 #
transform $-1 1 0 0 0 1 0 0 0 1 48.802758873256629 26.976232475969301 10.757726669011227 1 rotate no_reflect no_shear #
lump $-1 $-1 $44 $8 #
transform $-1 1 0 0 0 1 0 0 0 1 48.802758873256629 26.976232475969301 10.757726669011227 1 rotate no_reflect no_shear #
lump $-1 $-1 $45 $9 #
transform $-1 1 0 0 0 1 0 0 0 1 48.802758873256629 26.976232475969301 10.757726669011227 1 rotate no_reflect no_shear #
lump $-1 $-1 $46 $10 #
transform $-1 1 0 0 0 1 0 0 0 1 48.802758873256629 26.976232475969301 10.757726669011227 1 rotate no_reflect no_shear #
lump $-1 $-1 $47 $11 #
transform $-1 1 0 0 0 1 0 0 0 1 48.802758873256629 26.976232475969301 10.757726669011227 1 rotate no_reflect no_shear #
shell $-1 $-1 $-1 $48 $-1 $12 #
shell $-1 $-1 $-1 $49 $-1 $14 #
shell $-1 $-1 $-1 $50 $-1 $16 #
shell $-1 $-1 $-1 $51 $-1 $18 #
shell $-1 $-1 $-1 $52 $-1 $20 #
shell $-1 $-1 $-1 $53 $-1 $22 #
shell $-1 $-1 $-1 $54 $-1 $24 #
shell $-1 $-1 $-1 $55 $-1 $26 #
shell $-1 $-1 $-1 $56 $-1 $28 #
shell $-1 $-1 $-1 $57 $-1 $30 #
shell $-1 $-1 $-1 $58 $-1 $32 #
shell $-1 $-1 $-1 $59 $-1 $34 #
face $-1 $60 $61 $36 $-1 $62 forward single #
face $-1 $63 $64 $37 $-1 $65 reversed single #
face $-1 $66 $67 $38 $-1 $68 reversed single #
face $-1 $69 $70 $39 $-1 $71 reversed single #
face $-1 $72 $73 $40 $-1 $74 forward single #
face $-1 $75 $76 $41 $-1 $77 forward single #
face $-1 $78 $79 $42 $-1 $80 reversed single #
face $-1 $81 $82 $43 $-1 $83 forward single #
face $-1 $84 $85 $44 $-1 $86 forward single #
face $-1 $87 $88 $45 $-1 $89 reversed single #
face $-1 $90 $91 $46 $-1 $92 forward single #
face $-1 $93 $94 $47 $-1 $95 forward single #
face $-1 $96 $97 $36 $-1 $98 reversed single #
loop $-1 $-1 $99 $48 #
plane-surface $-1 0 0 10.757726669011227 0 0 1 1 0 0 forward_v I I I I #
face $-1 $100 $101 $37 $-1 $102 reversed single #
loop $-1 $-1 $103 $49 #
plane-surface $-1 0 -21.510475391120742 7.352694582613843 0 0 1 1 0 0 forward_v I I I I #
face $-1 $104 $105 $38 $-1 $106 reversed single #
loop $-1 $-1 $107 $50 #
plane-surface $-1 0 20.242112922244811 4.7520871272297143 0 0 1 1 0 0 forward_v I I I I #
face $-1 $108 $109 $39 $-1 $110 reversed single #
loop $-1 $-1 $111 $51 #
plane-surface $-1 58.431598741932227 5.5387821728488014 144.02132277718826 0 -1 0 -0.75470958851134928 0 -0.65605901945558964 forward_v I I I I #
face $-1 $112 $113 $40 $-1 $114 forward single #
loop $-1 $115 $116 $52 #
cone-surface $-1 46.244969692919192 0.97981674465966506 7.9924242607657057 -0.75470958851134928 0 -0.65605901945558964 0.32802950972779482 0 -0.37735479425567464 1 I I 0 1 0.5 forward I I I I #
face $-1 $117 $118 $41 $-1 $119 forward single #
loop $-1 $120 $121 $53 #
cone-surface $-1 46.244969692919192 3.715196001573144 7.9924242607657057 -0.75470958851134928 0 -0.65605901945558964 0.32802950972779482 0 -0.37735479425567464 1 I I 0 1 0.5 forward I I I I #
face $-1 $122 $123 $42 $-1 $124 reversed single #
loop $-1 $-1 $125 $54 #
plane-surface $-1 -131.57693314603654 -13.891649391164631 55.260388233364701 0 1 0 -0.84804810408105047 0 0.52991925155115449 forward_v I I I I #
face $-1 $126 $127 $43 $-1 $128 forward single #
loop $-1 $129 $130 $55 #
cone-surface $-1 -45.89758067807265 -12.009876197219278 6.7418203588650165 0.84804810408105047 0 -0.52991925155115449 0.26495962577557725 0 0.42402405204052523 1 I I 0 1 0.5 forward I I I I #
face $-1 $131 $132 $44 $-1 $133 forward single #
loop $-1 $134 $135 $56 #
cone-surface $-1 -45.89758067807265 -9.1872164063012463 6.7418203588650165 0.84804810408105047 0 -0.52991925155115449 0.26495962577557725 0 0.42402405204052523 1 I I 0 1 0.5 forward I I I I #
face $-1 $136 $137 $45 $-1 $138 reversed single #
loop $-1 $-1 $139 $57 #
plane-surface $-1 -131.57693314603654 4.768718274604022 55.260388233364701 0 1 0 -0.84804810408105047 0 0.52991925155115449 forward_v I I I I #
face $-1 $140 $141 $46 $-1 $142 forward single #
loop $-1 $143 $144 $58 #
cone-surface $-1 -45.89758067807265 6.6504914685493794 6.7418203588650165 0.84804810408105047 0 -0.52991925155115449 0.26495962577557725 0 0.42402405204052523 1 I I 0 1 0.5 forward I I I I #
face $-1 $145 $146 $47 $-1 $147 forward single #
loop $-1 $148 $149 $59 #
cone-surface $-1 -45.89758067807265 9.4731512594674108 6.7418203588650165 0.84804810408105047 0 -0.52991925155115449 0.26495962577557725 0 0.42402405204052523 1 I I 0 1 0.5 forward I I I I #
face $-1 $150 $151 $36 $-1 $152 reversed single #
loop $-1 $-1 $153 $60 #
plane-surface $-1 0 0 -10.757726669011227 0 0 1 1 0 0 forward_v I I I I #
coedge $-1 $154 $155 $156 $157 forward $61 $-1 #
face $-1 $158 $159 $37 $-1 $160 reversed single #
loop $-1 $-1 $161 $63 #
plane-surface $-1 0 -16.044718306272188 9.0552106258125349 0 -1 0 0 0 -1 forward_v I I I I #
coedge $-1 $162 $163 $164 $165 reversed $64 $-1 #
face $-1 $166 $167 $38 $-1 $168 forward single #
loop $-1 $-1 $169 $66 #
plane-surface $-1 0 13.507993368520321 7.7549068981204705 0 1 0 0 0 1 forward_v I I I I #
coedge $-1 $170 $171 $172 $173 reversed $67 $-1 #
face $-1 $174 $175 $39 $-1 $176 reversed single #
loop $-1 $-1 $177 $69 #
plane-surface $-1 -15.232221392975994 2.3475063731164063 79.986342510955623 0.75470958851134928 0 0.65605901945558964 0.65605901945558964 0 -0.75470958851134928 forward_v I I I I #
coedge $-1 $178 $179 $180 $181 reversed $70 $-1 #
face $-1 $-1 $182 $40 $-1 $183 forward single #
loop $-1 $184 $185 $72 #
cone-surface $-1 45.426235201955244 0.97981674465966506 7.2807092441382153 -0.75470958851134928 0 -0.65605901945558964 0.16401475486389741 0 -0.18867739712783732 1 I I -0.70710678118654746 0.70710678118654746 0.25 forward I I I I #
loop $-1 $-1 $186 $52 #
coedge $-1 $116 $116 $187 $188 reversed $73 $-1 #
face $-1 $-1 $189 $41 $-1 $190 forward single #
loop $-1 $191 $192 $75 #
cone-surface $-1 45.426235201955244 3.715196001573144 7.2807092441382153 -0.75470958851134928 0 -0.65605901945558964 0.16401475486389741 0 -0.18867739712783732 1 I I -0.70710678118654746 0.70710678118654746 0.25 forward I I I I #
loop $-1 $-1 $193 $53 #
coedge $-1 $121 $121 $194 $195 reversed $76 $-1 #
face $-1 $196 $197 $42 $-1 $198 reversed single #
loop $-1 $-1 $199 $78 #
plane-surface $-1 -48.80275887325665 -10.598546301760262 3.5373453218694664 -0.84804810408105047 0 0.52991925155115449 0.52991925155115449 0 0.84804810408105047 forward_v I I I I #
coedge $-1 $200 $201 $202 $203 reversed $79 $-1 #
face $-1 $-1 $204 $43 $-1 $205 forward single #
loop $-1 $206 $207 $81 #
cone-surface $-1 -45.036287888263168 -12.009876197219278 6.2036249094018991 0.84804810408105047 0 -0.52991925155115449 0.13247981288778862 0 0.21201202602026262 1 I I -0.70710678118654746 0.70710678118654746 0.25 forward I I I I #
loop $-1 $-1 $208 $55 #
coedge $-1 $130 $130 $209 $210 reversed $82 $-1 #
face $-1 $-1 $211 $44 $-1 $212 forward single #
loop $-1 $213 $214 $84 #
cone-surface $-1 -45.036287888263168 -9.1872164063012463 6.2036249094018991 0.84804810408105047 0 -0.52991925155115449 0.13247981288778862 0 0.21201202602026262 1 I I -0.70710678118654746 0.70710678118654746 0.25 forward I I I I #
loop $-1 $-1 $215 $56 #
coedge $-1 $135 $135 $216 $217 reversed $85 $-1 #
face $-1 $218 $219 $45 $-1 $220 reversed single #
loop $-1 $-1 $221 $87 #
plane-surface $-1 -48.80275887325665 8.0618213640083916 3.5373453218694664 -0.84804810408105047 0 0.52991925155115449 0.52991925155115449 0 0.84804810408105047 forward_v I I I I #
coedge $-1 $222 $223 $224 $225 reversed $88 $-1 #
face $-1 $-1 $226 $46 $-1 $227 forward single #
loop $-1 $228 $229 $90 #
cone-surface $-1 -45.036287888263168 6.6504914685493794 6.2036249094018991 0.84804810408105047 0 -0.52991925155115449 0.13247981288778862 0 0.21201202602026262 1 I I -0.70710678118654746 0.70710678118654746 0.25 forward I I I I #
loop $-1 $-1 $230 $58 #
coedge $-1 $144 $144 $231 $232 reversed $91 $-1 #
face $-1 $-1 $233 $47 $-1 $234 forward single #
loop $-1 $235 $236 $93 #
cone-surface $-1 -45.036287888263168 9.4731512594674108 6.2036249094018991 0.84804810408105047 0 -0.52991925155115449 0.13247981288778862 0 0.21201202602026262 1 I I -0.70710678118654746 0.70710678118654746 0.25 forward I I I I #
loop $-1 $-1 $237 $59 #
coedge $-1 $149 $149 $238 $239 reversed $94 $-1 #
face $-1 $240 $241 $36 $-1 $242 reversed single #
loop $-1 $-1 $243 $96 #
plane-surface $-1 0 -26.976232475969301 0 0 1 0 0 0 1 forward_v I I I I #
coedge $-1 $244 $245 $246 $247 forward $97 $-1 #
coedge $-1 $248 $99 $249 $250 forward $61 $-1 #
coedge $-1 $99 $248 $251 $252 forward $61 $-1 #
coedge $-1 $253 $254 $99 $157 reversed $255 $-1 #
edge $-1 $256 -26.976232475969301 $257 26.976232475969301 $156 $258 forward 7 unknown #
face $-1 $259 $260 $37 $-1 $261 reversed single #
loop $-1 $-1 $262 $100 #
plane-surface $-1 -48.802758873256629 0 0 1 0 0 0 0 -1 forward_v I I I I #
coedge $-1 $263 $264 $265 $266 reversed $101 $-1 #
coedge $-1 $267 $103 $268 $269 reversed $64 $-1 #
coedge $-1 $103 $267 $263 $270 forward $64 $-1 #
coedge $-1 $265 $271 $103 $165 forward $272 $-1 #
edge $-1 $273 -16.220994780408926 $274 -5.2894806107118164 $164 $275 forward 7 unknown #
face $-1 $276 $277 $38 $-1 $278 reversed single #
loop $-1 $-1 $279 $104 #
plane-surface $-1 0 0 10.757726669011227 0 0 1 1 0 0 forward_v I I I I #
coedge $-1 $280 $281 $282 $283 reversed $105 $-1 #
coedge $-1 $284 $107 $280 $285 forward $67 $-1 #
coedge $-1 $107 $284 $286 $287 reversed $67 $-1 #
coedge $-1 $288 $289 $107 $173 forward $277 $-1 #
edge $-1 $290 3.3869369073979154 $291 16.855176014846897 $172 $292 forward 7 unknown #
face $-1 $293 $294 $39 $-1 $295 forward single #
loop $-1 $-1 $296 $108 #
plane-surface $-1 58.431598741932227 -0.84376942661598875 144.02132277718826 0 1 0 0.75470958851134928 0 0.65605901945558964 forward_v I I I I #
coedge $-1 $297 $298 $299 $300 reversed $109 $-1 #
coedge $-1 $179 $111 $301 $302 reversed $70 $-1 #
coedge $-1 $111 $178 $297 $303 reversed $70 $-1 #
coedge $-1 $299 $304 $111 $181 forward $294 $-1 #
edge $-1 $305 -19.586959502290515 $306 -15.731495329287892 $180 $307 forward 7 unknown #
loop $-1 $-1 $187 $112 #
plane-surface $-1 -15.232221392975994 2.3475063731164063 79.986342510955623 0.75470958851134928 0 0.65605901945558964 0.65605901945558964 0 -0.75470958851134928 forward_v I I I I #
loop $-1 $-1 $308 $72 #
coedge $-1 $185 $185 $186 $309 reversed $113 $-1 #
coedge $-1 $186 $186 $185 $309 forward $115 $-1 #
coedge $-1 $187 $187 $116 $188 forward $182 $-1 #
edge $-1 $310 0 $310 6.2831853071796004 $187 $311 forward 7 unknown #
loop $-1 $-1 $194 $117 #
plane-surface $-1 -15.232221392975994 2.3475063731164063 79.986342510955623 0.75470958851134928 0 0.65605901945558964 0.65605901945558964 0 -0.75470958851134928 forward_v I I I I #
loop $-1 $-1 $312 $75 #
coedge $-1 $192 $192 $193 $313 reversed $118 $-1 #
coedge $-1 $193 $193 $192 $313 forward $120 $-1 #
coedge $-1 $194 $194 $121 $195 forward $189 $-1 #
edge $-1 $314 0 $314 6.2831853071796004 $194 $315 forward 7 unknown #
face $-1 $316 $317 $42 $-1 $318 reversed single #
loop $-1 $-1 $319 $122 #
plane-surface $-1 -131.57693314603654 -7.3054432123558923 55.260388233364701 0 -1 0 0.84804810408105047 0 -0.52991925155115449 forward_v I I I I #
coedge $-1 $320 $321 $322 $323 reversed $123 $-1 #
coedge $-1 $201 $125 $324 $325 reversed $79 $-1 #
coedge $-1 $125 $200 $320 $326 reversed $79 $-1 #
coedge $-1 $322 $327 $125 $203 forward $328 $-1 #
edge $-1 $329 16.98570769976164 $330 21.497502562551141 $202 $331 forward 7 unknown #
loop $-1 $-1 $209 $126 #
plane-surface $-1 -48.80275887325665 -10.598546301760262 3.5373453218694664 -0.84804810408105047 0 0.52991925155115449 0.52991925155115449 0 0.84804810408105047 forward_v I I I I #
loop $-1 $-1 $332 $81 #
coedge $-1 $207 $207 $208 $333 reversed $127 $-1 #
coedge $-1 $208 $208 $207 $333 forward $129 $-1 #
coedge $-1 $209 $209 $130 $210 forward $204 $-1 #
edge $-1 $334 0 $334 6.2831853071796004 $209 $335 forward 7 unknown #
loop $-1 $-1 $216 $131 #
plane-surface $-1 -48.80275887325665 -10.598546301760262 3.5373453218694664 -0.84804810408105047 0 0.52991925155115449 0.52991925155115449 0 0.84804810408105047 forward_v I I I I #
loop $-1 $-1 $336 $84 #
coedge $-1 $214 $214 $215 $337 reversed $132 $-1 #
coedge $-1 $215 $215 $214 $337 forward $134 $-1 #
coedge $-1 $216 $216 $135 $217 forward $211 $-1 #
edge $-1 $338 0 $338 6.2831853071796004 $216 $339 forward 7 unknown #
face $-1 $340 $341 $45 $-1 $342 forward single #
loop $-1 $-1 $343 $136 #
plane-surface $-1 -131.57693314603654 11.35492445341276 55.260388233364701 0 -1 0 0.84804810408105047 0 -0.52991925155115449 forward_v I I I I #
coedge $-1 $344 $345 $346 $347 reversed $137 $-1 #
coedge $-1 $223 $139 $348 $349 reversed $88 $-1 #
coedge $-1 $139 $222 $344 $350 reversed $88 $-1 #
coedge $-1 $346 $351 $139 $225 forward $341 $-1 #
edge $-1 $352 16.98570769976164 $353 21.497502562551141 $224 $354 forward 7 unknown #
loop $-1 $-1 $231 $140 #
plane-surface $-1 -48.80275887325665 8.0618213640083916 3.5373453218694664 -0.84804810408105047 0 0.52991925155115449 0.52991925155115449 0 0.84804810408105047 forward_v I I I I #
loop $-1 $-1 $355 $90 #
coedge $-1 $229 $229 $230 $356 reversed $141 $-1 #
coedge $-1 $230 $230 $229 $356 forward $143 $-1 #
coedge $-1 $231 $231 $144 $232 forward $226 $-1 #
edge $-1 $357 0 $357 6.2831853071796004 $231 $358 forward 7 unknown #
loop $-1 $-1 $238 $145 #
plane-surface $-1 -48.80275887325665 8.0618213640083916 3.5373453218694664 -0.84804810408105047 0 0.52991925155115449 0.52991925155115449 0 0.84804810408105047 forward_v I I I I #
loop $-1 $-1 $359 $93 #
coedge $-1 $236 $236 $237 $360 reversed $146 $-1 #
coedge $-1 $237 $237 $236 $360 forward $148 $-1 #
coedge $-1 $238 $238 $149 $239 forward $233 $-1 #
edge $-1 $361 0 $361 6.2831853071796004 $238 $362 forward 7 unknown #
face $-1 $363 $364 $36 $-1 $365 reversed single #
loop $-1 $-1 $366 $150 #
plane-surface $-1 -48.802758873256629 0 0 1 0 0 0 0 -1 forward_v I I I I #
coedge $-1 $367 $251 $368 $369 forward $151 $-1 #
coedge $-1 $370 $153 $367 $371 forward $97 $-1 #
coedge $-1 $153 $370 $372 $373 forward $97 $-1 #
coedge $-1 $254 $253 $153 $247 reversed $255 $-1 #
edge $-1 $374 -26.976232475969301 $375 26.976232475969301 $246 $376 forward 7 unknown #
coedge $-1 $155 $154 $377 $378 forward $61 $-1 #
coedge $-1 $379 $380 $154 $250 reversed $364 $-1 #
edge $-1 $257 -48.802758873256629 $381 48.802758873256629 $249 $382 forward 7 unknown #
coedge $-1 $243 $383 $155 $252 reversed $151 $-1 #
edge $-1 $384 -48.802758873256629 $256 48.802758873256629 $251 $385 forward 7 unknown #
coedge $-1 $246 $156 $383 $386 forward $255 $-1 #
coedge $-1 $156 $246 $379 $387 reversed $255 $-1 #
loop $-1 $-1 $253 $363 #
vertex $-1 $157 $388 #
vertex $-1 $157 $389 #
straight-curve $-1 48.802758873256629 0 10.757726669011227 0 1 0 I I #
face $-1 $390 $391 $37 $-1 $392 forward single #
loop $-1 $-1 $268 $158 #
plane-surface $-1 0 -26.976232475969301 0 0 1 0 0 0 1 forward_v I I I I #
coedge $-1 $393 $394 $395 $396 forward $159 $-1 #
coedge $-1 $395 $161 $163 $270 reversed $101 $-1 #
coedge $-1 $161 $395 $397 $398 reversed $101 $-1 #
coedge $-1 $399 $164 $161 $266 forward $272 $-1 #
edge $-1 $274 2.8250892697075756 $400 6.2301213561049593 $265 $401 forward 7 unknown #
coedge $-1 $163 $162 $393 $402 reversed $64 $-1 #
coedge $-1 $403 $404 $162 $269 forward $260 $-1 #
edge $-1 $405 -48.802758873256629 $273 48.802758873256629 $268 $406 forward 7 unknown #
edge $-1 $407 -48.802758873256629 $274 48.802758873256629 $263 $408 forward 7 unknown #
coedge $-1 $164 $399 $403 $409 forward $272 $-1 #
loop $-1 $-1 $265 $390 #
vertex $-1 $269 $410 #
vertex $-1 $165 $411 #
straight-curve $-1 48.802758873256629 -10.755237695560371 7.352694582613843 0 1 0 I I #
face $-1 $412 $413 $38 $-1 $414 reversed single #
loop $-1 $-1 $289 $166 #
plane-surface $-1 48.802758873256629 0 0 -1 0 0 0 0 1 forward_v I I I I #
coedge $-1 $415 $416 $281 $417 forward $167 $-1 #
coedge $-1 $418 $169 $170 $285 reversed $105 $-1 #
coedge $-1 $169 $418 $279 $417 reversed $105 $-1 #
coedge $-1 $419 $420 $169 $283 forward $413 $-1 #
edge $-1 $421 0.87463367816947901 $422 6.8802732199509915 $282 $423 forward 7 unknown #
coedge $-1 $171 $170 $420 $424 reversed $67 $-1 #
edge $-1 $290 -48.802758873256629 $421 48.802758873256629 $280 $425 forward 7 unknown #
coedge $-1 $426 $427 $171 $287 forward $428 $-1 #
edge $-1 $291 -48.802758873256629 $429 48.802758873256629 $286 $430 forward 7 unknown #
coedge $-1 $431 $172 $427 $432 reversed $277 $-1 #
coedge $-1 $172 $431 $418 $433 forward $277 $-1 #
vertex $-1 $173 $434 #
vertex $-1 $287 $435 #
straight-curve $-1 48.802758873256629 10.121056461122405 4.7520871272297143 0 1 0 I I #
face $-1 $-1 $436 $39 $-1 $437 reversed single #
loop $-1 $-1 $180 $174 #
plane-surface $-1 0 0 10.757726669011227 0 0 1 1 0 0 forward_v I I I I #
coedge $-1 $438 $439 $440 $441 reversed $175 $-1 #
coedge $-1 $442 $177 $179 $303 forward $109 $-1 #
coedge $-1 $177 $442 $438 $443 forward $109 $-1 #
coedge $-1 $440 $180 $177 $300 forward $294 $-1 #
edge $-1 $306 -4.3650289862905982 $444 2.0175226131741919 $299 $445 forward 7 unknown #
coedge $-1 $446 $447 $178 $302 forward $436 $-1 #
edge $-1 $448 -65.688139012546699 $305 -61.252934719582903 $301 $449 forward 7 unknown #
edge $-1 $306 91.72881449472051 $448 97.605517746513243 $179 $450 forward 7 unknown #
coedge $-1 $180 $440 $446 $451 forward $294 $-1 #
vertex $-1 $302 $452 #
vertex $-1 $181 $453 #
straight-curve $-1 29.215799370966113 5.5387821728488014 10.757726669011234 -1 0 0 I I #
coedge $-1 $308 $308 $-1 $454 reversed $184 $-1 #
edge $-1 $455 0 $455 6.2831853071796004 $185 $456 forward 7 unknown #
vertex $-1 $188 $457 #
ellipse-curve $-1 46.875026786755328 0.97981674465966506 8.5401245225293199 0.75470958851134928 0 0.65605901945558964 0.32802950972779482 0 -0.37735479425567464 1 I I #
coedge $-1 $312 $312 $-1 $458 reversed $191 $-1 #
edge $-1 $459 0 $459 6.2831853071796004 $192 $460 forward 7 unknown #
vertex $-1 $195 $461 #
ellipse-curve $-1 46.875026786755328 3.715196001573144 8.5401245225293199 0.75470958851134928 0 0.65605901945558964 0.32802950972779482 0 -0.37735479425567464 1 I I #
face $-1 $-1 $328 $42 $-1 $462 forward single #
loop $-1 $-1 $463 $196 #
plane-surface $-1 -48.802758873256629 0 0 1 0 0 0 0 -1 forward_v I I I I #
coedge $-1 $464 $465 $466 $467 reversed $197 $-1 #
coedge $-1 $468 $199 $201 $326 forward $123 $-1 #
coedge $-1 $199 $468 $464 $469 forward $123 $-1 #
coedge $-1 $466 $202 $199 $323 forward $328 $-1 #
edge $-1 $330 -8.5923762402844996 $470 -2.0061700614757614 $322 $471 forward 7 unknown #
coedge $-1 $472 $473 $200 $325 forward $317 $-1 #
edge $-1 $474 -24.092848794812848 $329 -16.872467447671124 $324 $475 forward 7 unknown #
edge $-1 $330 -8.5141176690275184 $474 -4.0294802201000261e-014 $201 $476 forward 7 unknown #
coedge $-1 $202 $466 $472 $477 forward $328 $-1 #
loop $-1 $-1 $466 $316 #
vertex $-1 $325 $478 #
vertex $-1 $203 $479 #
straight-curve $-1 -65.788466573018269 -13.891649391164631 10.757726669011227 1 0 0 I I #
coedge $-1 $332 $332 $-1 $480 reversed $206 $-1 #
edge $-1 $481 0 $481 6.2831853071796004 $207 $482 forward 7 unknown #
vertex $-1 $210 $483 #
ellipse-curve $-1 -46.546861441861886 -12.009876197219278 7.1475359954403554 -0.84804810408105047 0 0.52991925155115449 0.26495962577557725 0 0.42402405204052523 1 I I #
coedge $-1 $336 $336 $-1 $484 reversed $213 $-1 #
edge $-1 $485 0 $485 6.2831853071796004 $214 $486 forward 7 unknown #
vertex $-1 $217 $487 #
ellipse-curve $-1 -46.546861441861886 -9.1872164063012463 7.1475359954403554 -0.84804810408105047 0 0.52991925155115449 0.26495962577557725 0 0.42402405204052523 1 I I #
face $-1 $-1 $488 $45 $-1 $489 reversed single #
loop $-1 $-1 $224 $218 #
plane-surface $-1 0 0 10.757726669011227 0 0 1 1 0 0 forward_v I I I I #
coedge $-1 $490 $491 $492 $493 reversed $219 $-1 #
coedge $-1 $494 $221 $223 $350 forward $137 $-1 #
coedge $-1 $221 $494 $490 $495 forward $137 $-1 #
coedge $-1 $492 $224 $221 $347 forward $341 $-1 #
edge $-1 $353 0.7378075925998262 $496 7.3240137714085645 $346 $497 forward 7 unknown #
coedge $-1 $498 $499 $222 $349 forward $488 $-1 #
edge $-1 $500 -24.092848794812848 $352 -16.872467447671124 $348 $501 forward 7 unknown #
edge $-1 $353 -8.5141176690275184 $500 -4.0294802201000261e-014 $223 $502 forward 7 unknown #
coedge $-1 $224 $492 $498 $503 forward $341 $-1 #
vertex $-1 $225 $504 #
vertex $-1 $225 $505 #
straight-curve $-1 -65.788466573018269 4.768718274604022 10.757726669011227 1 0 0 I I #
coedge $-1 $355 $355 $-1 $506 reversed $228 $-1 #
edge $-1 $507 0 $507 6.2831853071796004 $229 $508 forward 7 unknown #
vertex $-1 $232 $509 #
ellipse-curve $-1 -46.546861441861886 6.6504914685493794 7.1475359954403554 -0.84804810408105047 0 0.52991925155115449 0.26495962577557725 0 0.42402405204052523 1 I I #
coedge $-1 $359 $359 $-1 $510 reversed $235 $-1 #
edge $-1 $511 0 $511 6.2831853071796004 $236 $512 forward 7 unknown #
vertex $-1 $239 $513 #
ellipse-curve $-1 -46.546861441861886 9.4731512594674108 7.1475359954403554 -0.84804810408105047 0 0.52991925155115449 0.26495962577557725 0 0.42402405204052523 1 I I #
face $-1 $-1 $255 $36 $-1 $514 reversed single #
loop $-1 $-1 $379 $240 #
plane-surface $-1 0 26.976232475969301 0 0 -1 0 0 0 -1 forward_v I I I I #
coedge $-1 $515 $377 $380 $516 forward $241 $-1 #
coedge $-1 $383 $243 $244 $371 reversed $151 $-1 #
coedge $-1 $377 $515 $243 $369 reversed $241 $-1 #
edge $-1 $384 -10.757726669011227 $517 10.757726669011227 $368 $518 forward 7 unknown #
coedge $-1 $245 $244 $515 $519 forward $97 $-1 #
edge $-1 $375 -48.802758873256629 $517 48.802758873256629 $367 $520 forward 7 unknown #
coedge $-1 $380 $379 $245 $373 reversed $364 $-1 #
edge $-1 $521 -48.802758873256629 $374 48.802758873256629 $372 $522 forward 7 unknown #
vertex $-1 $247 $523 #
vertex $-1 $386 $524 #
straight-curve $-1 48.802758873256629 0 -10.757726669011227 0 -1 0 I I #
coedge $-1 $366 $368 $248 $378 reversed $241 $-1 #
edge $-1 $381 -26.976232475969301 $384 26.976232475969301 $377 $525 forward 7 unknown #
coedge $-1 $372 $249 $254 $387 forward $364 $-1 #
coedge $-1 $249 $372 $366 $516 reversed $364 $-1 #
vertex $-1 $250 $526 #
straight-curve $-1 0 26.976232475969301 10.757726669011227 -1 0 0 I I #
coedge $-1 $251 $367 $253 $386 reversed $151 $-1 #
vertex $-1 $378 $527 #
straight-curve $-1 0 -26.976232475969301 10.757726669011227 1 0 0 I I #
edge $-1 $256 -10.757726669011227 $375 10.757726669011227 $253 $528 forward 7 unknown #
edge $-1 $257 -10.757726669011227 $374 10.757726669011227 $254 $529 forward 7 unknown #
point $-1 48.802758873256629 -26.976232475969301 10.757726669011227 #
point $-1 48.802758873256629 26.976232475969301 10.757726669011227 #
face $-1 $-1 $272 $37 $-1 $530 reversed single #
loop $-1 $-1 $397 $259 #
plane-surface $-1 0 0 10.757726669011227 0 0 1 1 0 0 forward_v I I I I #
coedge $-1 $531 $262 $267 $402 forward $159 $-1 #
coedge $-1 $262 $531 $532 $533 reversed $159 $-1 #
coedge $-1 $264 $263 $262 $396 reversed $101 $-1 #
edge $-1 $534 -6.2301213561049593 $407 -2.8250892697075756 $262 $535 forward 7 unknown #
coedge $-1 $532 $536 $264 $398 forward $391 $-1 #
edge $-1 $400 -48.802758873256629 $534 48.802758873256629 $397 $537 forward 7 unknown #
coedge $-1 $271 $265 $536 $538 reversed $272 $-1 #
vertex $-1 $266 $539 #
straight-curve $-1 48.802758873256629 -16.044718306272188 4.5276053129062674 0 0 1 I I #
edge $-1 $407 5.2894806107118164 $405 16.220994780408926 $393 $540 forward 7 unknown #
coedge $-1 $541 $268 $271 $409 reversed $260 $-1 #
coedge $-1 $268 $541 $531 $542 forward $260 $-1 #
vertex $-1 $269 $543 #
straight-curve $-1 0 -26.976232475969301 7.352694582613843 1 0 0 I I #
vertex $-1 $402 $544 #
straight-curve $-1 0 -16.044718306272188 7.352694582613843 1 0 0 I I #
edge $-1 $545 -10.757726669011227 $273 -7.352694582613843 $271 $546 forward 7 unknown #
point $-1 48.802758873256629 -26.976232475969297 7.352694582613843 #
point $-1 48.802758873256629 -16.044718306272188 7.352694582613843 #
face $-1 $-1 $428 $38 $-1 $547 reversed single #
loop $-1 $-1 $282 $276 #
plane-surface $-1 -48.802758873256629 0 0 1 0 0 0 0 -1 forward_v I I I I #
coedge $-1 $548 $279 $431 $549 forward $167 $-1 #
coedge $-1 $279 $548 $419 $550 forward $167 $-1 #
edge $-1 $422 -48.802758873256629 $551 48.802758873256629 $279 $552 forward 7 unknown #
coedge $-1 $281 $280 $289 $433 reversed $105 $-1 #
coedge $-1 $553 $282 $416 $550 reversed $413 $-1 #
coedge $-1 $282 $553 $284 $424 forward $413 $-1 #
vertex $-1 $424 $554 #
vertex $-1 $283 $555 #
straight-curve $-1 -48.802758873256629 13.507993368520321 3.8774534490602353 0 0 1 I I #
edge $-1 $429 -16.855176014846897 $421 -3.3869369073979154 $420 $556 forward 7 unknown #
straight-curve $-1 0 13.507993368520321 4.7520871272297143 -1 0 0 I I #
coedge $-1 $557 $286 $553 $558 reversed $428 $-1 #
coedge $-1 $286 $557 $288 $432 forward $428 $-1 #
loop $-1 $-1 $286 $412 #
vertex $-1 $287 $559 #
straight-curve $-1 0 26.976232475969301 4.7520871272297143 -1 0 0 I I #
coedge $-1 $289 $288 $415 $549 reversed $277 $-1 #
edge $-1 $560 -10.757726669011227 $291 -4.7520871272297143 $288 $561 forward 7 unknown #
edge $-1 $551 -6.8802732199509915 $290 -0.87463367816947901 $289 $562 forward 7 unknown #
point $-1 48.802758873256629 13.507993368520321 4.7520871272297143 #
point $-1 48.802758873256629 26.976232475969301 4.7520871272297143 #
loop $-1 $-1 $301 $293 #
plane-surface $-1 48.802758873256629 0 0 -1 0 0 0 0 1 forward_v I I I I #
coedge $-1 $439 $296 $298 $443 reversed $175 $-1 #
coedge $-1 $296 $438 $563 $564 reversed $175 $-1 #
coedge $-1 $304 $299 $296 $441 forward $294 $-1 #
edge $-1 $444 15.731495329287892 $565 19.586959502290515 $440 $566 forward 7 unknown #
coedge $-1 $298 $297 $447 $567 reversed $109 $-1 #
edge $-1 $568 -97.605517746513243 $444 -91.72881449472051 $438 $569 forward 7 unknown #
vertex $-1 $300 $570 #
straight-curve $-1 44.947294700254005 1.1737531865582032 10.75772666901122 0 -1 0 I I #
coedge $-1 $563 $301 $304 $451 reversed $436 $-1 #
coedge $-1 $301 $563 $442 $567 forward $436 $-1 #
vertex $-1 $302 $571 #
straight-curve $-1 48.802758873256629 5.5387821728488014 72.01066138859413 0 0 1 I I #
straight-curve $-1 -15.232221392975994 5.5387821728488014 79.986342510955623 0.65605901945558964 0 -0.75470958851134928 I I #
edge $-1 $565 -0.84376942661598875 $305 5.5387821728488014 $446 $572 forward 7 unknown #
point $-1 48.802758873256629 5.5387821728488014 10.757726669011227 #
point $-1 44.947294700254005 5.5387821728488014 10.757726669011234 #
edge $-1 $573 1 $573 0 $308 $-1 forward 7 unknown #
vertex $-1 $309 $574 #
ellipse-curve $-1 45.614912599083084 0.97981674465966506 7.4447239990021128 0.75470958851134928 0 0.65605901945558964 0.32802950972779482 0 -0.37735479425567464 1 I I #
point $-1 47.203056296483105 0.97981674465966506 8.1627697282736236 #
edge $-1 $575 1 $575 0 $312 $-1 forward 7 unknown #
vertex $-1 $313 $576 #
ellipse-curve $-1 45.614912599083084 3.715196001573144 7.4447239990021128 0.75470958851134928 0 0.65605901945558964 0.32802950972779482 0 -0.37735479425567464 1 I I #
point $-1 47.203056296483105 3.715196001573144 8.1627697282736236 #
plane-surface $-1 0 0 10.757726669011227 0 0 1 1 0 0 forward_v I I I I #
coedge $-1 $473 $472 $465 $577 forward $317 $-1 #
coedge $-1 $465 $319 $321 $469 reversed $197 $-1 #
coedge $-1 $319 $464 $463 $577 reversed $197 $-1 #
coedge $-1 $327 $322 $319 $467 forward $328 $-1 #
edge $-1 $470 -21.497502562551141 $578 -16.98570769976164 $466 $579 forward 7 unknown #
coedge $-1 $321 $320 $473 $580 reversed $123 $-1 #
edge $-1 $581 4.0294802201000261e-014 $470 8.5141176690275184 $464 $582 forward 7 unknown #
vertex $-1 $323 $583 #
straight-curve $-1 -44.290964010467128 -5.299273150880131 10.757726669011227 0 1 0 I I #
coedge $-1 $463 $324 $327 $477 reversed $317 $-1 #
coedge $-1 $324 $463 $468 $580 forward $317 $-1 #
vertex $-1 $325 $584 #
straight-curve $-1 -48.802758873256629 -13.891649391164631 27.63019411668235 0 0 1 I I #
straight-curve $-1 -48.80275887325665 -13.891649391164631 3.5373453218694664 -0.52991925155115449 0 -0.84804810408105047 I I #
edge $-1 $578 7.3054432123558923 $329 13.891649391164631 $472 $585 forward 7 unknown #
point $-1 -48.802758873256629 -13.891649391164631 10.757726669011227 #
point $-1 -44.290964010467128 -13.891649391164631 10.757726669011227 #
edge $-1 $586 1 $586 0 $332 $-1 forward 7 unknown #
vertex $-1 $333 $587 #
ellipse-curve $-1 -45.248299914283429 -12.009876197219278 6.3361047222896874 -0.84804810408105047 0 0.52991925155115449 0.26495962577557725 0 0.42402405204052523 1 I I #
point $-1 -46.28190181608629 -12.009876197219278 7.5715600474808706 #
edge $-1 $588 1 $588 0 $336 $-1 forward 7 unknown #
vertex $-1 $337 $589 #
ellipse-curve $-1 -45.248299914283429 -9.1872164063012463 6.3361047222896874 -0.84804810408105047 0 0.52991925155115449 0.26495962577557725 0 0.42402405204052523 1 I I #
point $-1 -46.28190181608629 -9.1872164063012463 7.5715600474808706 #
loop $-1 $-1 $348 $340 #
plane-surface $-1 -48.802758873256629 0 0 1 0 0 0 0 -1 forward_v I I I I #
coedge $-1 $491 $343 $345 $495 reversed $219 $-1 #
coedge $-1 $343 $490 $590 $591 reversed $219 $-1 #
coedge $-1 $351 $346 $343 $493 forward $341 $-1 #
edge $-1 $496 -21.497502562551141 $592 -16.98570769976164 $492 $593 forward 7 unknown #
coedge $-1 $345 $344 $499 $594 reversed $137 $-1 #
edge $-1 $595 4.0294802201000261e-014 $496 8.5141176690275184 $490 $596 forward 7 unknown #
vertex $-1 $347 $597 #
straight-curve $-1 -44.290964010467128 4.0309106820041958 10.757726669011227 0 1 0 I I #
coedge $-1 $590 $348 $351 $503 reversed $488 $-1 #
coedge $-1 $348 $590 $494 $594 forward $488 $-1 #
vertex $-1 $349 $598 #
straight-curve $-1 -48.802758873256629 4.768718274604022 27.63019411668235 0 0 1 I I #
straight-curve $-1 -48.80275887325665 4.768718274604022 3.5373453218694664 -0.52991925155115449 0 -0.84804810408105047 I I #
edge $-1 $592 -11.35492445341276 $352 -4.768718274604022 $498 $599 forward 7 unknown #
point $-1 -48.802758873256629 4.768718274604022 10.757726669011227 #
point $-1 -44.290964010467128 4.768718274604022 10.757726669011227 #
edge $-1 $600 1 $600 0 $355 $-1 forward 7 unknown #
vertex $-1 $356 $601 #
ellipse-curve $-1 -45.248299914283429 6.6504914685493794 6.3361047222896874 -0.84804810408105047 0 0.52991925155115449 0.26495962577557725 0 0.42402405204052523 1 I I #
point $-1 -46.28190181608629 6.6504914685493794 7.5715600474808706 #
edge $-1 $602 1 $602 0 $359 $-1 forward 7 unknown #
vertex $-1 $360 $603 #
ellipse-curve $-1 -45.248299914283429 9.4731512594674108 6.3361047222896874 -0.84804810408105047 0 0.52991925155115449 0.26495962577557725 0 0.42402405204052523 1 I I #
point $-1 -46.28190181608629 9.4731512594674108 7.5715600474808706 #
plane-surface $-1 48.802758873256629 0 0 -1 0 0 0 0 1 forward_v I I I I #
coedge $-1 $368 $366 $370 $519 reversed $241 $-1 #
edge $-1 $381 -10.757726669011227 $521 10.757726669011227 $380 $604 forward 7 unknown #
vertex $-1 $519 $605 #
straight-curve $-1 -48.802758873256629 -26.976232475969301 0 0 0 -1 I I #
edge $-1 $517 -26.976232475969301 $521 26.976232475969301 $515 $606 forward 7 unknown #
straight-curve $-1 0 -26.976232475969301 -10.757726669011227 -1 0 0 I I #
vertex $-1 $373 $607 #
straight-curve $-1 0 26.976232475969301 -10.757726669011227 1 0 0 I I #
point $-1 48.802758873256629 26.976232475969301 -10.757726669011227 #
point $-1 48.802758873256629 -26.976232475969301 -10.757726669011227 #
straight-curve $-1 -48.802758873256629 0 10.757726669011227 0 -1 0 I I #
point $-1 -48.802758873256629 26.976232475969301 10.757726669011227 #
point $-1 -48.802758873256629 -26.976232475969301 10.757726669011227 #
straight-curve $-1 48.802758873256629 -26.976232475969301 0 0 0 -1 I I #
straight-curve $-1 48.802758873256629 26.976232475969301 0 0 0 -1 I I #
plane-surface $-1 48.802758873256629 0 0 -1 0 0 0 0 1 forward_v I I I I #
coedge $-1 $394 $393 $404 $542 reversed $159 $-1 #
coedge $-1 $608 $397 $394 $533 forward $391 $-1 #
edge $-1 $534 16.044718306272188 $609 26.976232475969301 $394 $610 forward 7 unknown #
vertex $-1 $533 $611 #
straight-curve $-1 -48.802758873256629 -16.044718306272188 4.5276053129062674 0 0 -1 I I #
coedge $-1 $397 $608 $399 $538 forward $391 $-1 #
straight-curve $-1 0 -16.044718306272188 10.757726669011227 -1 0 0 I I #
edge $-1 $545 -26.976232475969301 $400 -16.044718306272188 $399 $612 forward 7 unknown #
point $-1 48.802758873256629 -16.044718306272188 10.757726669011227 #
straight-curve $-1 -48.802758873256629 -10.755237695560371 7.352694582613843 0 -1 0 I I #
coedge $-1 $404 $403 $608 $613 reversed $260 $-1 #
edge $-1 $609 -10.757726669011227 $405 -7.352694582613843 $531 $614 forward 7 unknown #
point $-1 -48.802758873256629 -26.976232475969297 7.352694582613843 #
point $-1 -48.802758873256629 -16.044718306272188 7.352694582613843 #
vertex $-1 $538 $615 #
straight-curve $-1 48.802758873256629 -26.976232475969301 0 0 0 -1 I I #
plane-surface $-1 0 26.976232475969301 0 0 -1 0 0 0 -1 forward_v I I I I #
coedge $-1 $416 $415 $557 $616 forward $167 $-1 #
edge $-1 $551 13.507993368520321 $560 26.976232475969301 $431 $617 forward 7 unknown #
edge $-1 $618 -26.976232475969301 $422 -13.507993368520321 $419 $619 forward 7 unknown #
vertex $-1 $549 $620 #
straight-curve $-1 0 13.507993368520321 10.757726669011227 1 0 0 I I #
coedge $-1 $420 $419 $426 $558 forward $413 $-1 #
point $-1 -48.802758873256629 13.507993368520321 4.7520871272297143 #
point $-1 -48.802758873256629 13.507993368520321 10.757726669011227 #
straight-curve $-1 -48.802758873256629 10.121056461122405 4.7520871272297143 0 -1 0 I I #
coedge $-1 $427 $426 $548 $616 reversed $428 $-1 #
edge $-1 $618 -10.757726669011227 $429 -4.7520871272297143 $426 $621 forward 7 unknown #
point $-1 -48.802758873256629 26.976232475969301 4.7520871272297143 #
vertex $-1 $549 $622 #
straight-curve $-1 48.802758873256629 26.976232475969301 0 0 0 -1 I I #
straight-curve $-1 48.802758873256629 13.507993368520321 3.8774534490602353 0 0 -1 I I #
coedge $-1 $447 $446 $439 $564 forward $436 $-1 #
edge $-1 $565 61.252934719582903 $568 65.688139012546699 $563 $623 forward 7 unknown #
vertex $-1 $451 $624 #
straight-curve $-1 29.215799370966113 -0.84376942661598875 10.757726669011234 1 0 0 I I #
edge $-1 $568 -2.0175226131741919 $448 4.3650289862905982 $447 $625 forward 7 unknown #
vertex $-1 $567 $626 #
straight-curve $-1 -15.232221392975994 -0.84376942661598875 79.986342510955623 -0.65605901945558964 0 0.75470958851134928 I I #
point $-1 44.947294700254005 -0.84376942661598875 10.757726669011234 #
point $-1 48.802758873256629 5.5387821728488014 6.3225223760474307 #
straight-curve $-1 48.802758873256629 0 10.757726669011227 0 1 0 I I #
vertex $-1 $454 $627 #
point $-1 45.942942108810875 0.97981674465966506 7.0673692047464378 #
vertex $-1 $458 $628 #
point $-1 45.942942108810875 3.715196001573144 7.0673692047464378 #
edge $-1 $578 16.872467447671124 $581 24.092848794812848 $463 $629 forward 7 unknown #
vertex $-1 $477 $630 #
straight-curve $-1 -65.788466573018269 -7.3054432123558923 10.757726669011227 -1 0 0 I I #
edge $-1 $581 2.0061700614757614 $474 8.5923762402844996 $473 $631 forward 7 unknown #
vertex $-1 $580 $632 #
straight-curve $-1 -48.80275887325665 -7.3054432123558923 3.5373453218694664 0.52991925155115449 0 0.84804810408105047 I I #
point $-1 -44.290964010467128 -7.3054432123558923 10.757726669011227 #
point $-1 -48.802758873256629 -13.891649391164631 3.5373453218695006 #
straight-curve $-1 -48.802758873256629 0 10.757726669011227 0 -1 0 I I #
vertex $-1 $480 $633 #
point $-1 -44.983340288507854 -12.009876197219278 6.7601287743302132 #
vertex $-1 $484 $634 #
point $-1 -44.983340288507854 -9.1872164063012463 6.7601287743302132 #
coedge $-1 $499 $498 $491 $591 forward $488 $-1 #
edge $-1 $592 16.872467447671124 $595 24.092848794812848 $590 $635 forward 7 unknown #
vertex $-1 $503 $636 #
straight-curve $-1 -65.788466573018269 11.35492445341276 10.757726669011227 -1 0 0 I I #
edge $-1 $595 -7.3240137714085645 $500 -0.7378075925998262 $499 $637 forward 7 unknown #
vertex $-1 $594 $638 #
straight-curve $-1 -48.80275887325665 11.35492445341276 3.5373453218694664 0.52991925155115449 0 0.84804810408105047 I I #
point $-1 -44.290964010467128 11.35492445341276 10.757726669011227 #
point $-1 -48.802758873256629 4.768718274604022 3.5373453218695006 #
straight-curve $-1 -48.802758873256629 0 10.757726669011227 0 -1 0 I I #
vertex $-1 $506 $639 #
point $-1 -44.983340288507854 6.6504914685493794 6.7601287743302132 #
vertex $-1 $510 $640 #
point $-1 -44.983340288507854 9.4731512594674108 6.7601287743302132 #
straight-curve $-1 -48.802758873256629 26.976232475969301 0 0 0 -1 I I #
point $-1 -48.802758873256629 -26.976232475969301 -10.757726669011227 #
straight-curve $-1 -48.802758873256629 0 -10.757726669011227 0 1 0 I I #
point $-1 -48.802758873256629 26.976232475969301 -10.757726669011227 #
coedge $-1 $536 $532 $541 $613 forward $391 $-1 #
vertex $-1 $533 $641 #
straight-curve $-1 -48.802758873256629 0 10.757726669011227 0 -1 0 I I #
point $-1 -48.802758873256629 -16.044718306272188 10.757726669011227 #
straight-curve $-1 48.802758873256629 0 10.757726669011227 0 1 0 I I #
edge $-1 $609 -48.802758873256629 $545 48.802758873256629 $541 $642 forward 7 unknown #
straight-curve $-1 -48.802758873256629 -26.976232475969301 0 0 0 -1 I I #
point $-1 48.802758873256629 -26.976232475969301 10.757726669011227 #
edge $-1 $560 -48.802758873256629 $618 48.802758873256629 $557 $643 forward 7 unknown #
straight-curve $-1 48.802758873256629 0 10.757726669011227 0 1 0 I I #
vertex $-1 $616 $644 #
straight-curve $-1 -48.802758873256629 0 10.757726669011227 0 -1 0 I I #
point $-1 48.802758873256629 13.507993368520321 10.757726669011227 #
straight-curve $-1 -48.802758873256629 26.976232475969301 0 0 0 -1 I I #
point $-1 48.802758873256629 26.976232475969301 10.757726669011227 #
straight-curve $-1 48.802758873256629 -0.84376942661598875 72.01066138859413 0 0 -1 I I #
point $-1 48.802758873256629 -0.84376942661598875 10.757726669011227 #
straight-curve $-1 48.802758873256636 1.1737531865582032 6.3225223760474165 0 1 0 I I #
point $-1 48.802758873256629 -0.84376942661598875 6.3225223760474307 #
point $-1 45.237557804827404 0.97981674465966506 7.1166944892743178 #
point $-1 45.237557804827404 3.715196001573144 7.1166944892743178 #
straight-curve $-1 -48.802758873256629 -7.3054432123558923 27.63019411668235 0 0 -1 I I #
point $-1 -48.802758873256629 -7.3054432123558923 10.757726669011227 #
straight-curve $-1 -48.802758873256629 -5.299273150880131 3.5373453218694912 0 -1 0 I I #
point $-1 -48.802758873256629 -7.3054432123558923 3.5373453218695006 #
point $-1 -44.824275862242906 -12.009876197219278 6.0711450965141109 #
point $-1 -44.824275862242906 -9.1872164063012463 6.0711450965141109 #
straight-curve $-1 -48.802758873256629 11.35492445341276 27.63019411668235 0 0 -1 I I #
point $-1 -48.802758873256629 11.35492445341276 10.757726669011227 #
straight-curve $-1 -48.802758873256629 4.0309106820041958 3.5373453218694912 0 -1 0 I I #
point $-1 -48.802758873256629 11.35492445341276 3.5373453218695006 #
point $-1 -44.824275862242906 6.6504914685493794 6.0711450965141109 #
point $-1 -44.824275862242906 9.4731512594674108 6.0711450965141109 #
point $-1 -48.802758873256629 -26.976232475969301 10.757726669011227 #
straight-curve $-1 0 -26.976232475969301 10.757726669011227 1 0 0 I I #
straight-curve $-1 0 26.976232475969301 10.757726669011227 -1 0 0 I I #
point $-1 -48.802758873256629 26.976232475969301 10.757726669011227 #
End-of-ACIS-data 