500 0 9 0           
7 Unknown 11 ACIS 5.0 NT 24 Fri Mar 26 17:10:28 1999 
-1 9.9999999999999995e-007 1e-010 
body $-1 $9 $-1 $10 #
body $-1 $11 $-1 $12 #
body $-1 $13 $-1 $14 #
body $-1 $15 $-1 $16 #
body $-1 $17 $-1 $18 #
body $-1 $19 $-1 $20 #
body $-1 $21 $-1 $22 #
body $-1 $23 $-1 $24 #
body $-1 $25 $-1 $26 #
lump $-1 $-1 $27 $0 #
transform $-1 1 0 0 0 1 0 0 0 1 52.837305825983456 33.516141288279854 9.2274487682677755 1 rotate no_reflect no_shear #
lump $-1 $-1 $28 $1 #
transform $-1 1 0 0 0 1 0 0 0 1 52.837305825983456 33.516141288279854 9.2274487682677755 1 rotate no_reflect no_shear #
lump $-1 $-1 $29 $2 #
transform $-1 1 0 0 0 1 0 0 0 1 52.837305825983456 33.516141288279854 9.2274487682677755 1 rotate no_reflect no_shear #
lump $-1 $-1 $30 $3 #
transform $-1 1 0 0 0 1 0 0 0 1 52.837305825983456 33.516141288279854 9.2274487682677755 1 rotate no_reflect no_shear #
lump $-1 $-1 $31 $4 #
transform $-1 1 0 0 0 1 0 0 0 1 52.837305825983456 33.516141288279854 9.2274487682677755 1 rotate no_reflect no_shear #
lump $-1 $-1 $32 $5 #
transform $-1 1 0 0 0 1 0 0 0 1 52.837305825983456 33.516141288279854 9.2274487682677755 1 rotate no_reflect no_shear #
lump $-1 $-1 $33 $6 #
transform $-1 1 0 0 0 1 0 0 0 1 52.837305825983456 33.516141288279854 9.2274487682677755 1 rotate no_reflect no_shear #
lump $-1 $-1 $34 $7 #
transform $-1 1 0 0 0 1 0 0 0 1 52.837305825983456 33.516141288279854 9.2274487682677755 1 rotate no_reflect no_shear #
lump $-1 $-1 $35 $8 #
transform $-1 1 0 0 0 1 0 0 0 1 52.837305825983456 33.516141288279854 9.2274487682677755 1 rotate no_reflect no_shear #
shell $-1 $-1 $-1 $36 $-1 $9 #
shell $-1 $-1 $-1 $37 $-1 $11 #
shell $-1 $-1 $-1 $38 $-1 $13 #
shell $-1 $-1 $-1 $39 $-1 $15 #
shell $-1 $-1 $-1 $40 $-1 $17 #
shell $-1 $-1 $-1 $41 $-1 $19 #
shell $-1 $-1 $-1 $42 $-1 $21 #
shell $-1 $-1 $-1 $43 $-1 $23 #
shell $-1 $-1 $-1 $44 $-1 $25 #
face $-1 $45 $46 $27 $-1 $47 forward single #
face $-1 $48 $49 $28 $-1 $50 forward single #
face $-1 $51 $52 $29 $-1 $53 reversed single #
face $-1 $54 $55 $30 $-1 $56 forward single #
face $-1 $57 $58 $31 $-1 $59 forward single #
face $-1 $60 $61 $32 $-1 $62 reversed single #
face $-1 $63 $64 $33 $-1 $65 forward single #
face $-1 $66 $67 $34 $-1 $68 forward single #
face $-1 $69 $70 $35 $-1 $71 forward single #
face $-1 $72 $73 $27 $-1 $74 reversed single #
loop $-1 $-1 $75 $36 #
plane-surface $-1 0 0 9.2274487682677755 0 0 1 1 0 0 forward_v I I I I #
face $-1 $76 $77 $28 $-1 $78 reversed single #
loop $-1 $-1 $79 $37 #
plane-surface $-1 0 -28.694342397908052 4.611015886342928 0 0 1 1 0 0 forward_v I I I I #
face $-1 $80 $81 $29 $-1 $82 reversed single #
loop $-1 $-1 $83 $38 #
plane-surface $-1 47.621700929918113 1.5947397315640472 153.95907090273477 0 1 0 0.68199836817093118 0 0.7313536940579346 forward_v I I I I #
face $-1 $84 $85 $30 $-1 $86 forward single #
loop $-1 $87 $88 $39 #
cone-surface $-1 49.898767929903066 6.1856373608370774 6.4229796336092102 -0.68199836817093118 0 -0.7313536940579346 0.7313536940579346 0 -0.68199836817093118 1 I I 0 1 1 forward I I I I #
face $-1 $89 $90 $31 $-1 $91 forward single #
loop $-1 $92 $93 $40 #
cone-surface $-1 49.898767929903066 13.071983804746623 6.4229796336092102 -0.68199836817093118 0 -0.7313536940579346 0.7313536940579346 0 -0.68199836817093118 1 I I 0 1 1 forward I I I I #
face $-1 $94 $95 $32 $-1 $96 reversed single #
loop $-1 $-1 $97 $41 #
plane-surface $-1 -52.837305825983456 -18.87137539953423 0.23452472853915651 -0.6018150307709319 0 0.79863550430605224 0.79863550430605224 0 0.6018150307709319 forward_v I I I I #
face $-1 $98 $99 $33 $-1 $100 forward single #
loop $-1 $101 $102 $42 #
cone-surface $-1 -46.569391789961266 -21.872076264335444 4.3316689962504382 0.6018150307709319 0 -0.79863550430605224 0.19965887607651306 0 0.15045375769273298 1 I I 0 1 0.25 forward I I I I #
face $-1 $103 $104 $34 $-1 $105 forward single #
loop $-1 $106 $107 $43 #
cone-surface $-1 -46.569391789961266 -18.87137539953423 4.3316689962504382 0.6018150307709319 0 -0.79863550430605224 0.19965887607651306 0 0.15045375769273298 1 I I 0 1 0.25 forward I I I I #
face $-1 $108 $109 $35 $-1 $110 forward single #
loop $-1 $111 $112 $44 #
cone-surface $-1 -46.569391789961266 -15.870674534733016 4.3316689962504382 0.6018150307709319 0 -0.79863550430605224 0.19965887607651306 0 0.15045375769273298 1 I I 0 1 0.25 forward I I I I #
face $-1 $113 $114 $27 $-1 $115 reversed single #
loop $-1 $-1 $116 $45 #
plane-surface $-1 0 0 -9.2274487682677755 0 0 1 1 0 0 forward_v I I I I #
coedge $-1 $117 $118 $119 $120 forward $46 $-1 #
face $-1 $121 $122 $28 $-1 $123 reversed single #
loop $-1 $-1 $124 $48 #
plane-surface $-1 0 -28.694342397908052 0.3502307868939365 0 0 1 1 0 0 forward_v I I I I #
coedge $-1 $125 $126 $127 $128 reversed $49 $-1 #
face $-1 $129 $130 $29 $-1 $131 reversed single #
loop $-1 $-1 $132 $51 #
plane-surface $-1 -24.448211773820198 9.62881058279185 76.673553302931111 0.68199836817093118 0 0.7313536940579346 0.7313536940579346 0 -0.68199836817093118 forward_v I I I I #
coedge $-1 $133 $134 $135 $136 reversed $52 $-1 #
face $-1 $-1 $137 $30 $-1 $138 forward single #
loop $-1 $139 $140 $54 #
cone-surface $-1 49.098444395465712 6.1856373608370774 5.5647377364591595 -0.68199836817093118 0 -0.7313536940579346 0.3656768470289673 0 -0.34099918408546559 1 I I -0.70710678118654746 0.70710678118654746 0.5 forward I I I I #
loop $-1 $-1 $141 $39 #
coedge $-1 $88 $88 $142 $143 reversed $55 $-1 #
face $-1 $-1 $144 $31 $-1 $145 forward single #
loop $-1 $146 $147 $57 #
cone-surface $-1 49.098444395465712 13.071983804746623 5.5647377364591595 -0.68199836817093118 0 -0.7313536940579346 0.3656768470289673 0 -0.34099918408546559 1 I I -0.70710678118654746 0.70710678118654746 0.5 forward I I I I #
loop $-1 $-1 $148 $40 #
coedge $-1 $93 $93 $149 $150 reversed $58 $-1 #
face $-1 $151 $152 $32 $-1 $153 forward single #
loop $-1 $-1 $154 $60 #
plane-surface $-1 -116.43387548901821 -13.870207291532207 84.630021497553969 0 -1 0 0.6018150307709319 0 -0.79863550430605224 forward_v I I I I #
coedge $-1 $155 $156 $157 $158 reversed $61 $-1 #
face $-1 $-1 $159 $33 $-1 $160 forward single #
loop $-1 $161 $162 $63 #
cone-surface $-1 -46.193257395729432 -21.872076264335444 3.8325218060591553 0.6018150307709319 0 -0.79863550430605224 0.099829438038256529 0 0.075226878846366488 1 I I -0.70710678118654746 0.70710678118654746 0.125 forward I I I I #
loop $-1 $-1 $163 $42 #
coedge $-1 $102 $102 $164 $165 reversed $64 $-1 #
face $-1 $-1 $166 $34 $-1 $167 forward single #
loop $-1 $168 $169 $66 #
cone-surface $-1 -46.193257395729432 -18.87137539953423 3.8325218060591553 0.6018150307709319 0 -0.79863550430605224 0.099829438038256529 0 0.075226878846366488 1 I I -0.70710678118654746 0.70710678118654746 0.125 forward I I I I #
loop $-1 $-1 $170 $43 #
coedge $-1 $107 $107 $171 $172 reversed $67 $-1 #
face $-1 $-1 $173 $35 $-1 $174 forward single #
loop $-1 $175 $176 $69 #
cone-surface $-1 -46.193257395729432 -15.870674534733016 3.8325218060591553 0.6018150307709319 0 -0.79863550430605224 0.099829438038256529 0 0.075226878846366488 1 I I -0.70710678118654746 0.70710678118654746 0.125 forward I I I I #
loop $-1 $-1 $177 $44 #
coedge $-1 $112 $112 $178 $179 reversed $70 $-1 #
face $-1 $180 $181 $27 $-1 $182 reversed single #
loop $-1 $-1 $183 $72 #
plane-surface $-1 0 -33.516141288279854 0 0 1 0 0 0 1 forward_v I I I I #
coedge $-1 $184 $185 $186 $187 forward $73 $-1 #
coedge $-1 $188 $75 $189 $190 forward $46 $-1 #
coedge $-1 $75 $188 $191 $192 forward $46 $-1 #
coedge $-1 $193 $194 $75 $120 reversed $195 $-1 #
edge $-1 $196 -33.516141288279854 $197 33.516141288279854 $119 $198 forward 7 unknown #
face $-1 $199 $200 $28 $-1 $201 reversed single #
loop $-1 $-1 $202 $76 #
plane-surface $-1 0 -23.87254350753625 2.4806233366184323 0 -1 0 0 0 -1 forward_v I I I I #
coedge $-1 $203 $204 $205 $206 reversed $77 $-1 #
coedge $-1 $207 $79 $202 $208 forward $49 $-1 #
coedge $-1 $79 $207 $209 $210 reversed $49 $-1 #
coedge $-1 $211 $212 $79 $128 forward $213 $-1 #
edge $-1 $214 9.5253723085822237 $215 19.168970089325828 $127 $216 forward 7 unknown #
face $-1 $217 $218 $29 $-1 $219 forward single #
loop $-1 $-1 $220 $80 #
plane-surface $-1 47.621700929918113 17.662881434019653 153.95907090273477 0 -1 0 -0.68199836817093118 0 -0.7313536940579346 forward_v I I I I #
coedge $-1 $221 $222 $223 $224 reversed $81 $-1 #
coedge $-1 $134 $83 $225 $226 reversed $52 $-1 #
coedge $-1 $83 $133 $221 $227 reversed $52 $-1 #
coedge $-1 $223 $228 $83 $136 forward $229 $-1 #
edge $-1 $230 67.752086683099606 $231 72.375894852174568 $135 $232 forward 7 unknown #
loop $-1 $-1 $142 $84 #
plane-surface $-1 -24.448211773820198 9.62881058279185 76.673553302931111 0.68199836817093118 0 0.7313536940579346 0.7313536940579346 0 -0.68199836817093118 forward_v I I I I #
loop $-1 $-1 $233 $54 #
coedge $-1 $140 $140 $141 $234 reversed $85 $-1 #
coedge $-1 $141 $141 $140 $234 forward $87 $-1 #
coedge $-1 $142 $142 $88 $143 forward $137 $-1 #
edge $-1 $235 0 $235 6.2831853071796004 $142 $236 forward 7 unknown #
loop $-1 $-1 $149 $89 #
plane-surface $-1 -24.448211773820198 9.62881058279185 76.673553302931111 0.68199836817093118 0 0.7313536940579346 0.7313536940579346 0 -0.68199836817093118 forward_v I I I I #
loop $-1 $-1 $237 $57 #
coedge $-1 $147 $147 $148 $238 reversed $90 $-1 #
coedge $-1 $148 $148 $147 $238 forward $92 $-1 #
coedge $-1 $149 $149 $93 $150 forward $144 $-1 #
edge $-1 $239 0 $239 6.2831853071796004 $149 $240 forward 7 unknown #
face $-1 $241 $242 $32 $-1 $243 forward single #
loop $-1 $-1 $244 $94 #
plane-surface $-1 0 -23.87254350753625 2.4806233366184323 0 -1 0 0 0 -1 forward_v I I I I #
coedge $-1 $245 $246 $247 $248 reversed $95 $-1 #
coedge $-1 $249 $97 $244 $250 forward $61 $-1 #
coedge $-1 $97 $249 $245 $251 forward $61 $-1 #
coedge $-1 $247 $252 $97 $158 forward $242 $-1 #
edge $-1 $253 -14.436855807769138 $254 -4.4345195917650919 $157 $255 forward 7 unknown #
loop $-1 $-1 $164 $98 #
plane-surface $-1 -52.837305825983456 -18.87137539953423 0.23452472853915651 -0.6018150307709319 0 0.79863550430605224 0.79863550430605224 0 0.6018150307709319 forward_v I I I I #
loop $-1 $-1 $256 $63 #
coedge $-1 $162 $162 $163 $257 reversed $99 $-1 #
coedge $-1 $163 $163 $162 $257 forward $101 $-1 #
coedge $-1 $164 $164 $102 $165 forward $159 $-1 #
edge $-1 $258 0 $258 6.2831853071796004 $164 $259 forward 7 unknown #
loop $-1 $-1 $171 $103 #
plane-surface $-1 -52.837305825983456 -18.87137539953423 0.23452472853915651 -0.6018150307709319 0 0.79863550430605224 0.79863550430605224 0 0.6018150307709319 forward_v I I I I #
loop $-1 $-1 $260 $66 #
coedge $-1 $169 $169 $170 $261 reversed $104 $-1 #
coedge $-1 $170 $170 $169 $261 forward $106 $-1 #
coedge $-1 $171 $171 $107 $172 forward $166 $-1 #
edge $-1 $262 0 $262 6.2831853071796004 $171 $263 forward 7 unknown #
loop $-1 $-1 $178 $108 #
plane-surface $-1 -52.837305825983456 -18.87137539953423 0.23452472853915651 -0.6018150307709319 0 0.79863550430605224 0.79863550430605224 0 0.6018150307709319 forward_v I I I I #
loop $-1 $-1 $264 $69 #
coedge $-1 $176 $176 $177 $265 reversed $109 $-1 #
coedge $-1 $177 $177 $176 $265 forward $111 $-1 #
coedge $-1 $178 $178 $112 $179 forward $173 $-1 #
edge $-1 $266 0 $266 6.2831853071796004 $178 $267 forward 7 unknown #
face $-1 $268 $269 $27 $-1 $270 reversed single #
loop $-1 $-1 $271 $113 #
plane-surface $-1 -52.837305825983456 0 0 1 0 0 0 0 -1 forward_v I I I I #
coedge $-1 $272 $191 $273 $274 forward $114 $-1 #
coedge $-1 $275 $116 $272 $276 forward $73 $-1 #
coedge $-1 $116 $275 $277 $278 forward $73 $-1 #
coedge $-1 $194 $193 $116 $187 reversed $195 $-1 #
edge $-1 $279 -33.516141288279854 $280 33.516141288279854 $186 $281 forward 7 unknown #
coedge $-1 $118 $117 $282 $283 forward $46 $-1 #
coedge $-1 $284 $285 $117 $190 reversed $269 $-1 #
edge $-1 $197 -52.837305825983456 $286 52.837305825983456 $189 $287 forward 7 unknown #
coedge $-1 $183 $288 $118 $192 reversed $114 $-1 #
edge $-1 $289 -52.837305825983456 $196 52.837305825983456 $191 $290 forward 7 unknown #
coedge $-1 $186 $119 $288 $291 forward $195 $-1 #
coedge $-1 $119 $186 $284 $292 reversed $195 $-1 #
loop $-1 $-1 $193 $268 #
vertex $-1 $120 $293 #
vertex $-1 $120 $294 #
straight-curve $-1 52.837305825983456 0 9.2274487682677755 0 1 0 I I #
face $-1 $295 $296 $28 $-1 $297 reversed single #
loop $-1 $-1 $298 $121 #
plane-surface $-1 -52.837305825983456 0 0 1 0 0 0 0 -1 forward_v I I I I #
coedge $-1 $299 $300 $125 $208 reversed $122 $-1 #
coedge $-1 $301 $124 $302 $303 reversed $77 $-1 #
coedge $-1 $124 $301 $304 $305 forward $77 $-1 #
coedge $-1 $212 $211 $124 $206 forward $213 $-1 #
edge $-1 $306 -19.168970089325828 $307 -9.5253723085822237 $205 $308 forward 7 unknown #
coedge $-1 $126 $125 $298 $309 reversed $49 $-1 #
edge $-1 $214 -52.837305825983456 $310 52.837305825983456 $202 $311 forward 7 unknown #
coedge $-1 $312 $313 $126 $210 forward $296 $-1 #
edge $-1 $215 -52.837305825983456 $314 52.837305825983456 $209 $315 forward 7 unknown #
coedge $-1 $205 $127 $313 $316 forward $213 $-1 #
coedge $-1 $127 $205 $299 $317 forward $213 $-1 #
loop $-1 $-1 $127 $295 #
vertex $-1 $128 $318 #
vertex $-1 $316 $319 #
straight-curve $-1 52.837305825983456 -14.347171198954026 4.611015886342928 0 -1 0 I I #
face $-1 $-1 $229 $29 $-1 $320 reversed single #
loop $-1 $-1 $321 $129 #
plane-surface $-1 0 0 9.2274487682677755 0 0 1 1 0 0 forward_v I I I I #
coedge $-1 $322 $323 $324 $325 reversed $130 $-1 #
coedge $-1 $326 $132 $134 $227 forward $81 $-1 #
coedge $-1 $132 $326 $322 $327 forward $81 $-1 #
coedge $-1 $324 $135 $132 $224 forward $229 $-1 #
edge $-1 $231 -3.2196655598318777 $328 12.848476142623728 $223 $329 forward 7 unknown #
coedge $-1 $330 $331 $133 $226 forward $218 $-1 #
edge $-1 $332 24.06802826956736 $230 29.0264553610244 $225 $333 forward 7 unknown #
edge $-1 $231 -105.6746116519669 $332 -98.894818055868313 $134 $334 forward 7 unknown #
coedge $-1 $135 $324 $330 $335 reversed $229 $-1 #
loop $-1 $-1 $324 $217 #
vertex $-1 $335 $336 #
vertex $-1 $136 $337 #
straight-curve $-1 52.837305825983456 1.5947397315640472 76.979535451367383 0 0 -1 I I #
coedge $-1 $233 $233 $-1 $338 reversed $139 $-1 #
edge $-1 $339 0 $339 6.2831853071796004 $140 $340 forward 7 unknown #
vertex $-1 $143 $341 #
ellipse-curve $-1 50.358092280254944 6.1856373608370774 6.9155446837302845 0.68199836817093118 0 0.7313536940579346 0.7313536940579346 0 -0.68199836817093118 1 I I #
coedge $-1 $237 $237 $-1 $342 reversed $146 $-1 #
edge $-1 $343 0 $343 6.2831853071796004 $147 $344 forward 7 unknown #
vertex $-1 $150 $345 #
ellipse-curve $-1 50.358092280254944 13.071983804746623 6.9155446837302845 0.68199836817093118 0 0.7313536940579346 0.7313536940579346 0 -0.68199836817093118 1 I I #
face $-1 $-1 $346 $32 $-1 $347 reversed single #
loop $-1 $-1 $252 $151 #
plane-surface $-1 0 0 9.2274487682677755 0 0 1 1 0 0 forward_v I I I I #
coedge $-1 $348 $349 $155 $250 reversed $152 $-1 #
coedge $-1 $246 $154 $156 $251 reversed $95 $-1 #
coedge $-1 $154 $245 $350 $351 reversed $95 $-1 #
coedge $-1 $352 $157 $154 $248 forward $242 $-1 #
edge $-1 $254 -17.313644959799099 $353 -5.3796319185256465 $247 $354 forward 7 unknown #
coedge $-1 $156 $155 $355 $356 reversed $61 $-1 #
edge $-1 $253 -14.94300338130236 $357 0 $244 $358 forward 7 unknown #
edge $-1 $359 0 $254 14.94300338130236 $245 $360 forward 7 unknown #
coedge $-1 $157 $352 $348 $361 forward $242 $-1 #
vertex $-1 $361 $362 #
vertex $-1 $158 $363 #
straight-curve $-1 -40.903292784710004 -9.4356876997671151 9.2274487682677773 0 1 0 I I #
coedge $-1 $256 $256 $-1 $364 reversed $161 $-1 #
edge $-1 $365 0 $365 6.2831853071796004 $162 $366 forward 7 unknown #
vertex $-1 $165 $367 #
ellipse-curve $-1 -46.870299305346734 -21.872076264335444 4.7309867484034651 -0.6018150307709319 0 0.79863550430605224 0.19965887607651306 0 0.15045375769273298 1 I I #
coedge $-1 $260 $260 $-1 $368 reversed $168 $-1 #
edge $-1 $369 0 $369 6.2831853071796004 $169 $370 forward 7 unknown #
vertex $-1 $172 $371 #
ellipse-curve $-1 -46.870299305346734 -18.87137539953423 4.7309867484034651 -0.6018150307709319 0 0.79863550430605224 0.19965887607651306 0 0.15045375769273298 1 I I #
coedge $-1 $264 $264 $-1 $372 reversed $175 $-1 #
edge $-1 $373 0 $373 6.2831853071796004 $176 $374 forward 7 unknown #
vertex $-1 $179 $375 #
ellipse-curve $-1 -46.870299305346734 -15.870674534733016 4.7309867484034651 -0.6018150307709319 0 0.79863550430605224 0.19965887607651306 0 0.15045375769273298 1 I I #
face $-1 $-1 $195 $27 $-1 $376 reversed single #
loop $-1 $-1 $284 $180 #
plane-surface $-1 0 33.516141288279854 0 0 -1 0 0 0 -1 forward_v I I I I #
coedge $-1 $377 $282 $285 $378 forward $181 $-1 #
coedge $-1 $288 $183 $184 $276 reversed $114 $-1 #
coedge $-1 $282 $377 $183 $274 reversed $181 $-1 #
edge $-1 $289 -9.2274487682677755 $379 9.2274487682677755 $273 $380 forward 7 unknown #
coedge $-1 $185 $184 $377 $381 forward $73 $-1 #
edge $-1 $280 -52.837305825983456 $379 52.837305825983456 $272 $382 forward 7 unknown #
coedge $-1 $285 $284 $185 $278 reversed $269 $-1 #
edge $-1 $383 -52.837305825983456 $279 52.837305825983456 $277 $384 forward 7 unknown #
vertex $-1 $187 $385 #
vertex $-1 $291 $386 #
straight-curve $-1 52.837305825983456 0 -9.2274487682677755 0 -1 0 I I #
coedge $-1 $271 $273 $188 $283 reversed $181 $-1 #
edge $-1 $286 -33.516141288279854 $289 33.516141288279854 $282 $387 forward 7 unknown #
coedge $-1 $277 $189 $194 $292 forward $269 $-1 #
coedge $-1 $189 $277 $271 $378 reversed $269 $-1 #
vertex $-1 $190 $388 #
straight-curve $-1 0 33.516141288279854 9.2274487682677755 -1 0 0 I I #
coedge $-1 $191 $272 $193 $291 reversed $114 $-1 #
vertex $-1 $283 $389 #
straight-curve $-1 0 -33.516141288279854 9.2274487682677755 1 0 0 I I #
edge $-1 $196 -9.2274487682677755 $280 9.2274487682677755 $193 $390 forward 7 unknown #
edge $-1 $197 -9.2274487682677755 $279 9.2274487682677755 $194 $391 forward 7 unknown #
point $-1 52.837305825983456 -33.516141288279854 9.2274487682677755 #
point $-1 52.837305825983456 33.516141288279854 9.2274487682677755 #
face $-1 $-1 $213 $28 $-1 $392 reversed single #
loop $-1 $-1 $209 $199 #
plane-surface $-1 0 -33.516141288279854 0 0 1 0 0 0 1 forward_v I I I I #
coedge $-1 $393 $394 $207 $309 forward $200 $-1 #
coedge $-1 $304 $202 $212 $317 reversed $122 $-1 #
coedge $-1 $202 $304 $393 $395 reversed $122 $-1 #
coedge $-1 $204 $203 $396 $397 reversed $77 $-1 #
coedge $-1 $313 $312 $203 $303 forward $296 $-1 #
edge $-1 $398 -52.837305825983456 $306 52.837305825983456 $302 $399 forward 7 unknown #
coedge $-1 $300 $299 $204 $305 reversed $122 $-1 #
edge $-1 $400 -52.837305825983456 $307 52.837305825983456 $304 $401 forward 7 unknown #
vertex $-1 $303 $402 #
vertex $-1 $206 $403 #
straight-curve $-1 52.837305825983456 -14.347171198954026 0.3502307868939365 0 1 0 I I #
edge $-1 $314 -19.168970089325828 $310 -9.5253723085822237 $298 $404 forward 7 unknown #
vertex $-1 $309 $405 #
straight-curve $-1 0 -23.87254350753625 4.611015886342928 -1 0 0 I I #
coedge $-1 $302 $209 $394 $406 forward $296 $-1 #
coedge $-1 $209 $302 $211 $316 reversed $296 $-1 #
vertex $-1 $406 $407 #
straight-curve $-1 0 -33.516141288279854 4.611015886342928 -1 0 0 I I #
edge $-1 $215 -4.611015886342928 $306 -0.3502307868939365 $211 $408 forward 7 unknown #
edge $-1 $307 -0.89008088141527963 $214 3.3707042180337119 $212 $409 forward 7 unknown #
point $-1 52.837305825983456 -23.87254350753625 4.611015886342928 #
point $-1 52.837305825983456 -33.516141288279854 4.611015886342928 #
plane-surface $-1 52.837305825983456 0 0 -1 0 0 0 0 1 forward_v I I I I #
coedge $-1 $331 $330 $323 $410 forward $218 $-1 #
coedge $-1 $323 $220 $222 $327 reversed $130 $-1 #
coedge $-1 $220 $322 $321 $410 reversed $130 $-1 #
coedge $-1 $228 $223 $220 $325 forward $229 $-1 #
edge $-1 $328 -72.375894852174568 $411 -67.752086683099606 $324 $412 forward 7 unknown #
coedge $-1 $222 $221 $331 $413 reversed $81 $-1 #
edge $-1 $414 98.894818055868313 $328 105.6746116519669 $322 $415 forward 7 unknown #
vertex $-1 $224 $416 #
straight-curve $-1 52.837305825983456 4.814405291395925 4.6036405991928149 0 1 0 I I #
coedge $-1 $321 $225 $228 $335 forward $218 $-1 #
coedge $-1 $225 $321 $326 $413 forward $218 $-1 #
vertex $-1 $226 $417 #
straight-curve $-1 23.810850464959056 1.5947397315640472 9.2274487682677773 1 0 0 I I #
straight-curve $-1 -24.448211773820198 1.5947397315640472 76.673553302931111 -0.7313536940579346 0 0.68199836817093118 I I #
edge $-1 $230 1.5947397315640472 $411 17.662881434019653 $228 $418 forward 7 unknown #
point $-1 52.837305825983456 1.5947397315640472 9.2274487682677755 #
point $-1 52.837305825983456 1.5947397315640472 4.6036405991928149 #
edge $-1 $419 1 $419 0 $233 $-1 forward 7 unknown #
vertex $-1 $234 $420 #
ellipse-curve $-1 49.439443579551181 6.1856373608370774 5.930414583488127 0.68199836817093118 0 0.7313536940579346 0.7313536940579346 0 -0.68199836817093118 1 I I #
point $-1 51.089445974312881 6.1856373608370774 6.2335463155593622 #
edge $-1 $421 1 $421 0 $237 $-1 forward 7 unknown #
vertex $-1 $238 $422 #
ellipse-curve $-1 49.439443579551181 13.071983804746623 5.930414583488127 0.68199836817093118 0 0.7313536940579346 0.7313536940579346 0 -0.68199836817093118 1 I I #
point $-1 51.089445974312881 13.071983804746623 6.2335463155593622 #
loop $-1 $-1 $423 $241 #
plane-surface $-1 -52.837305825983456 0 0 1 0 0 0 0 -1 forward_v I I I I #
coedge $-1 $349 $244 $252 $361 reversed $152 $-1 #
coedge $-1 $244 $348 $423 $424 reversed $152 $-1 #
coedge $-1 $355 $425 $246 $351 forward $346 $-1 #
edge $-1 $353 33.087561980509207 $359 42.080486020237828 $350 $426 forward 7 unknown #
coedge $-1 $252 $247 $425 $427 forward $242 $-1 #
vertex $-1 $427 $428 #
straight-curve $-1 -58.216937744509103 -13.870207291532207 9.2274487682677773 -1 0 0 I I #
coedge $-1 $423 $350 $249 $356 forward $346 $-1 #
edge $-1 $359 4.4345195917650919 $357 14.436855807769138 $355 $429 forward 7 unknown #
vertex $-1 $424 $430 #
straight-curve $-1 -52.837305825983456 -23.872543507536253 0.23452472853915651 -0.79863550430605224 0 -0.6018150307709319 I I #
vertex $-1 $356 $431 #
straight-curve $-1 -52.837305825983456 -13.870207291532207 0.23452472853915651 0.79863550430605224 0 0.6018150307709319 I I #
edge $-1 $432 5.3796319185256465 $253 17.313644959799099 $252 $433 forward 7 unknown #
point $-1 -40.903292784710004 -23.872543507536253 9.2274487682677755 #
point $-1 -40.903292784710004 -13.870207291532207 9.2274487682677755 #
edge $-1 $434 1 $434 0 $256 $-1 forward 7 unknown #
vertex $-1 $257 $435 #
ellipse-curve $-1 -46.268484274575798 -21.872076264335444 3.9323512440974118 -0.6018150307709319 0 0.79863550430605224 0.19965887607651306 0 0.15045375769273298 1 I I #
point $-1 -46.670640429270215 -21.872076264335444 4.8814405060961974 #
edge $-1 $436 1 $436 0 $260 $-1 forward 7 unknown #
vertex $-1 $261 $437 #
ellipse-curve $-1 -46.268484274575798 -18.87137539953423 3.9323512440974118 -0.6018150307709319 0 0.79863550430605224 0.19965887607651306 0 0.15045375769273298 1 I I #
point $-1 -46.670640429270215 -18.87137539953423 4.8814405060961974 #
edge $-1 $438 1 $438 0 $264 $-1 forward 7 unknown #
vertex $-1 $265 $439 #
ellipse-curve $-1 -46.268484274575798 -15.870674534733016 3.9323512440974118 -0.6018150307709319 0 0.79863550430605224 0.19965887607651306 0 0.15045375769273298 1 I I #
point $-1 -46.670640429270215 -15.870674534733016 4.8814405060961974 #
plane-surface $-1 52.837305825983456 0 0 -1 0 0 0 0 1 forward_v I I I I #
coedge $-1 $273 $271 $275 $381 reversed $181 $-1 #
edge $-1 $286 -9.2274487682677755 $383 9.2274487682677755 $285 $440 forward 7 unknown #
vertex $-1 $381 $441 #
straight-curve $-1 -52.837305825983456 -33.516141288279854 0 0 0 -1 I I #
edge $-1 $379 -33.516141288279854 $383 33.516141288279854 $377 $442 forward 7 unknown #
straight-curve $-1 0 -33.516141288279854 -9.2274487682677755 -1 0 0 I I #
vertex $-1 $278 $443 #
straight-curve $-1 0 33.516141288279854 -9.2274487682677755 1 0 0 I I #
point $-1 52.837305825983456 33.516141288279854 -9.2274487682677755 #
point $-1 52.837305825983456 -33.516141288279854 -9.2274487682677755 #
straight-curve $-1 -52.837305825983456 0 9.2274487682677755 0 -1 0 I I #
point $-1 -52.837305825983456 33.516141288279854 9.2274487682677755 #
point $-1 -52.837305825983456 -33.516141288279854 9.2274487682677755 #
straight-curve $-1 52.837305825983456 -33.516141288279854 0 0 0 -1 I I #
straight-curve $-1 52.837305825983456 33.516141288279854 0 0 0 -1 I I #
plane-surface $-1 52.837305825983456 0 0 -1 0 0 0 0 1 forward_v I I I I #
coedge $-1 $396 $298 $300 $395 forward $200 $-1 #
coedge $-1 $298 $396 $312 $406 reversed $200 $-1 #
edge $-1 $310 -3.3707042180337119 $400 0.89008088141527963 $393 $444 forward 7 unknown #
coedge $-1 $394 $393 $301 $397 forward $200 $-1 #
edge $-1 $400 9.5253723085822237 $398 19.168970089325828 $396 $445 forward 7 unknown #
vertex $-1 $303 $446 #
straight-curve $-1 0 -33.516141288279854 0.3502307868939365 1 0 0 I I #
vertex $-1 $397 $447 #
straight-curve $-1 0 -23.87254350753625 0.3502307868939365 1 0 0 I I #
point $-1 52.837305825983456 -33.516141288279854 0.3502307868939365 #
point $-1 52.837305825983456 -23.87254350753625 0.3502307868939365 #
straight-curve $-1 -52.837305825983456 -14.347171198954026 4.611015886342928 0 1 0 I I #
point $-1 -52.837305825983456 -23.87254350753625 4.611015886342928 #
edge $-1 $314 -4.611015886342928 $398 -0.3502307868939365 $394 $448 forward 7 unknown #
point $-1 -52.837305825983456 -33.516141288279854 4.611015886342928 #
straight-curve $-1 52.837305825983456 -33.516141288279854 0 0 0 -1 I I #
straight-curve $-1 52.837305825983456 -23.87254350753625 1.2403116683092161 0 0 1 I I #
edge $-1 $411 -29.0264553610244 $414 -24.06802826956736 $321 $449 forward 7 unknown #
vertex $-1 $410 $450 #
straight-curve $-1 52.837305825983456 17.662881434019653 76.979535451367383 0 0 1 I I #
edge $-1 $414 -12.848476142623728 $332 3.2196655598318777 $331 $451 forward 7 unknown #
vertex $-1 $413 $452 #
straight-curve $-1 -24.448211773820198 17.662881434019653 76.673553302931111 0.7313536940579346 0 -0.68199836817093118 I I #
point $-1 52.837305825983456 17.662881434019653 4.6036405991928149 #
point $-1 47.878878734526417 1.5947397315640472 9.2274487682677773 #
straight-curve $-1 52.837305825983456 0 9.2274487682677755 0 1 0 I I #
vertex $-1 $338 $453 #
point $-1 50.170797273609111 6.1856373608370774 5.2484162153171958 #
vertex $-1 $342 $454 #
point $-1 50.170797273609111 13.071983804746623 5.2484162153171958 #
coedge $-1 $425 $355 $349 $424 forward $346 $-1 #
edge $-1 $357 -42.080486020237828 $432 -33.087561980509207 $423 $455 forward 7 unknown #
coedge $-1 $350 $423 $352 $427 reversed $346 $-1 #
straight-curve $-1 -52.837305825983456 -13.870207291532207 42.315010748776984 0 0 -1 I I #
edge $-1 $353 13.870207291532207 $432 23.872543507536253 $425 $456 forward 7 unknown #
point $-1 -52.837305825983456 -13.870207291532207 9.2274487682677755 #
straight-curve $-1 -52.837305825983456 -9.4356876997671151 0.23452472853915782 0 -1 0 I I #
point $-1 -52.837305825983456 -23.872543507536253 0.23452472853915651 #
point $-1 -52.837305825983456 -13.870207291532207 0.23452472853915651 #
vertex $-1 $424 $457 #
straight-curve $-1 -58.216937744509103 -23.872543507536253 9.2274487682677773 1 0 0 I I #
vertex $-1 $364 $458 #
point $-1 -46.068825398499285 -21.872076264335444 4.0828050017901445 #
vertex $-1 $368 $459 #
point $-1 -46.068825398499285 -18.87137539953423 4.0828050017901445 #
vertex $-1 $372 $460 #
point $-1 -46.068825398499285 -15.870674534733016 4.0828050017901445 #
straight-curve $-1 -52.837305825983456 33.516141288279854 0 0 0 -1 I I #
point $-1 -52.837305825983456 -33.516141288279854 -9.2274487682677755 #
straight-curve $-1 -52.837305825983456 0 -9.2274487682677755 0 1 0 I I #
point $-1 -52.837305825983456 33.516141288279854 -9.2274487682677755 #
straight-curve $-1 -52.837305825983456 -23.87254350753625 1.2403116683092161 0 0 -1 I I #
straight-curve $-1 -52.837305825983456 -14.347171198954026 0.3502307868939365 0 -1 0 I I #
point $-1 -52.837305825983456 -33.516141288279854 0.3502307868939365 #
point $-1 -52.837305825983456 -23.87254350753625 0.3502307868939365 #
straight-curve $-1 -52.837305825983456 -33.516141288279854 0 0 0 -1 I I #
straight-curve $-1 23.810850464959056 17.662881434019653 9.2274487682677773 -1 0 0 I I #
point $-1 52.837305825983456 17.662881434019653 9.2274487682677755 #
straight-curve $-1 47.878878734526431 4.814405291395925 9.2274487682677773 0 -1 0 I I #
point $-1 47.878878734526417 17.662881434019653 9.2274487682677773 #
point $-1 48.757445211380244 6.1856373608370774 5.199060889430192 #
point $-1 48.757445211380244 13.071983804746623 5.199060889430192 #
straight-curve $-1 -52.837305825983456 -23.872543507536253 42.315010748776984 0 0 1 I I #
straight-curve $-1 -52.837305825983456 0 9.2274487682677755 0 -1 0 I I #
point $-1 -52.837305825983456 -23.872543507536253 9.2274487682677755 #
point $-1 -46.118030516883067 -21.872076264335444 3.7326923680208988 #
point $-1 -46.118030516883067 -18.87137539953423 3.7326923680208988 #
point $-1 -46.118030516883067 -15.870674534733016 3.7326923680208988 #
End-of-ACIS-data 