500 0 3 0           
7 Unknown 11 ACIS 5.0 NT 24 Fri Mar 26 19:33:22 1999 
-1 9.9999999999999995e-007 1e-010 
body $-1 $3 $-1 $4 #
body $-1 $5 $-1 $6 #
body $-1 $7 $-1 $8 #
lump $-1 $-1 $9 $0 #
transform $-1 1 0 0 0 1 0 0 0 1 64.420911282692956 28.692048010757553 5.8088109406953174 1 rotate no_reflect no_shear #
lump $-1 $-1 $10 $1 #
transform $-1 1 0 0 0 1 0 0 0 1 64.420911282692956 28.692048010757553 5.8088109406953174 1 rotate no_reflect no_shear #
lump $-1 $-1 $11 $2 #
transform $-1 1 0 0 0 1 0 0 0 1 64.420911282692956 28.692048010757553 5.8088109406953174 1 rotate no_reflect no_shear #
shell $-1 $-1 $-1 $12 $-1 $3 #
shell $-1 $-1 $-1 $13 $-1 $5 #
shell $-1 $-1 $-1 $14 $-1 $7 #
face $-1 $15 $16 $9 $-1 $17 forward single #
face $-1 $18 $19 $10 $-1 $20 forward single #
face $-1 $21 $22 $11 $-1 $23 forward single #
face $-1 $24 $25 $9 $-1 $26 reversed single #
loop $-1 $-1 $27 $12 #
plane-surface $-1 0 0 5.8088109406953174 0 0 1 1 0 0 forward_v I I I I #
face $-1 $28 $29 $10 $-1 $30 forward single #
loop $-1 $-1 $31 $13 #
plane-surface $-1 0 -28.692048010757553 0 0 1 0 0 0 1 forward_v I I I I #
face $-1 $32 $33 $11 $-1 $34 reversed single #
loop $-1 $-1 $35 $14 #
plane-surface $-1 0 28.692048010757553 0 0 -1 0 0 0 -1 forward_v I I I I #
face $-1 $36 $37 $9 $-1 $38 reversed single #
loop $-1 $-1 $39 $15 #
plane-surface $-1 0 0 -5.8088109406953174 0 0 1 1 0 0 forward_v I I I I #
coedge $-1 $40 $41 $42 $43 forward $16 $-1 #
face $-1 $44 $45 $10 $-1 $46 reversed single #
loop $-1 $-1 $47 $18 #
plane-surface $-1 0 0 5.8088109406953174 0 0 1 1 0 0 forward_v I I I I #
coedge $-1 $48 $49 $50 $51 forward $19 $-1 #
face $-1 $52 $53 $11 $-1 $54 reversed single #
loop $-1 $-1 $55 $21 #
plane-surface $-1 64.420911282692956 0 0 -1 0 0 0 0 1 forward_v I I I I #
coedge $-1 $56 $57 $58 $59 forward $22 $-1 #
face $-1 $60 $61 $9 $-1 $62 reversed single #
loop $-1 $-1 $63 $24 #
plane-surface $-1 0 -28.692048010757553 0 0 1 0 0 0 1 forward_v I I I I #
coedge $-1 $64 $65 $66 $67 forward $25 $-1 #
coedge $-1 $68 $27 $69 $70 forward $16 $-1 #
coedge $-1 $27 $68 $71 $72 forward $16 $-1 #
coedge $-1 $73 $74 $27 $43 reversed $75 $-1 #
edge $-1 $76 -28.692048010757553 $77 28.692048010757553 $42 $78 forward 7 unknown #
face $-1 $79 $80 $10 $-1 $81 reversed single #
loop $-1 $-1 $82 $28 #
plane-surface $-1 -64.420911282692956 0 0 1 0 0 0 0 -1 forward_v I I I I #
coedge $-1 $83 $84 $85 $86 forward $29 $-1 #
coedge $-1 $85 $31 $82 $87 reversed $19 $-1 #
coedge $-1 $31 $85 $88 $89 reversed $19 $-1 #
coedge $-1 $90 $91 $31 $51 reversed $80 $-1 #
edge $-1 $92 -64.420911282692956 $93 64.420911282692956 $50 $94 forward 7 unknown #
face $-1 $95 $96 $11 $-1 $97 reversed single #
loop $-1 $-1 $98 $32 #
plane-surface $-1 0 31.31465515134267 2.6066700055538785 0 0 1 1 0 0 forward_v I I I I #
coedge $-1 $99 $100 $56 $101 forward $33 $-1 #
coedge $-1 $102 $35 $55 $101 reversed $22 $-1 #
coedge $-1 $35 $102 $103 $104 reversed $22 $-1 #
coedge $-1 $105 $98 $35 $59 reversed $53 $-1 #
edge $-1 $106 -64.420911282692956 $107 64.420911282692956 $58 $108 forward 7 unknown #
face $-1 $109 $110 $9 $-1 $111 reversed single #
loop $-1 $-1 $112 $36 #
plane-surface $-1 -64.420911282692956 0 0 1 0 0 0 0 -1 forward_v I I I I #
coedge $-1 $113 $71 $114 $115 forward $37 $-1 #
coedge $-1 $116 $39 $113 $117 forward $25 $-1 #
coedge $-1 $39 $116 $118 $119 forward $25 $-1 #
coedge $-1 $74 $73 $39 $67 reversed $75 $-1 #
edge $-1 $120 -28.692048010757553 $121 28.692048010757553 $66 $122 forward 7 unknown #
coedge $-1 $41 $40 $123 $124 forward $16 $-1 #
coedge $-1 $125 $126 $40 $70 reversed $110 $-1 #
edge $-1 $77 -64.420911282692956 $127 64.420911282692956 $69 $128 forward 7 unknown #
coedge $-1 $63 $129 $41 $72 reversed $37 $-1 #
edge $-1 $130 -64.420911282692956 $76 64.420911282692956 $71 $131 forward 7 unknown #
coedge $-1 $66 $42 $129 $132 forward $75 $-1 #
coedge $-1 $42 $66 $125 $133 reversed $75 $-1 #
loop $-1 $-1 $73 $109 #
vertex $-1 $43 $134 #
vertex $-1 $43 $135 #
straight-curve $-1 64.420911282692956 0 5.8088109406953174 0 1 0 I I #
face $-1 $136 $137 $10 $-1 $138 reversed single #
loop $-1 $-1 $90 $44 #
plane-surface $-1 0 -31.314655151342667 2.6066700055538785 0 0 1 1 0 0 forward_v I I I I #
coedge $-1 $139 $140 $48 $87 forward $45 $-1 #
coedge $-1 $141 $47 $140 $142 forward $29 $-1 #
coedge $-1 $47 $141 $143 $144 forward $29 $-1 #
coedge $-1 $49 $48 $47 $86 reversed $19 $-1 #
edge $-1 $145 -64.420911282692956 $146 64.420911282692956 $47 $147 forward 7 unknown #
edge $-1 $146 -5.8088109406953174 $93 -2.6066700055538785 $82 $148 forward 7 unknown #
coedge $-1 $143 $149 $49 $89 forward $150 $-1 #
edge $-1 $92 2.6066700055538785 $145 5.8088109406953174 $88 $151 forward 7 unknown #
coedge $-1 $152 $50 $149 $153 forward $80 $-1 #
coedge $-1 $50 $152 $139 $154 forward $80 $-1 #
vertex $-1 $89 $155 #
vertex $-1 $87 $156 #
straight-curve $-1 0 -28.692048010757553 2.6066700055538785 -1 0 0 I I #
face $-1 $157 $158 $11 $-1 $159 forward single #
loop $-1 $-1 $160 $52 #
plane-surface $-1 0 33.93726229192778 4.2077404731245975 0 -1 0 0 0 -1 forward_v I I I I #
coedge $-1 $58 $161 $99 $162 forward $53 $-1 #
coedge $-1 $163 $55 $98 $162 reversed $33 $-1 #
coedge $-1 $55 $163 $164 $165 reversed $33 $-1 #
edge $-1 $166 -5.8088109406953174 $107 -2.6066700055538785 $55 $167 forward 7 unknown #
coedge $-1 $57 $56 $168 $169 reversed $22 $-1 #
coedge $-1 $170 $171 $57 $104 forward $172 $-1 #
edge $-1 $106 2.6066700055538785 $173 5.8088109406953174 $103 $174 forward 7 unknown #
coedge $-1 $161 $58 $171 $175 forward $53 $-1 #
vertex $-1 $104 $176 #
vertex $-1 $101 $177 #
straight-curve $-1 0 28.692048010757553 2.6066700055538785 1 0 0 I I #
face $-1 $-1 $75 $9 $-1 $178 reversed single #
loop $-1 $-1 $125 $60 #
plane-surface $-1 0 28.692048010757553 0 0 -1 0 0 0 -1 forward_v I I I I #
coedge $-1 $179 $123 $126 $180 forward $61 $-1 #
coedge $-1 $129 $63 $64 $117 reversed $37 $-1 #
coedge $-1 $123 $179 $63 $115 reversed $61 $-1 #
edge $-1 $130 -5.8088109406953174 $181 5.8088109406953174 $114 $182 forward 7 unknown #
coedge $-1 $65 $64 $179 $183 forward $25 $-1 #
edge $-1 $121 -64.420911282692956 $181 64.420911282692956 $113 $184 forward 7 unknown #
coedge $-1 $126 $125 $65 $119 reversed $110 $-1 #
edge $-1 $185 -64.420911282692956 $120 64.420911282692956 $118 $186 forward 7 unknown #
vertex $-1 $67 $187 #
vertex $-1 $132 $188 #
straight-curve $-1 64.420911282692956 0 -5.8088109406953174 0 -1 0 I I #
coedge $-1 $112 $114 $68 $124 reversed $61 $-1 #
edge $-1 $127 -28.692048010757553 $130 28.692048010757553 $123 $189 forward 7 unknown #
coedge $-1 $118 $69 $74 $133 forward $110 $-1 #
coedge $-1 $69 $118 $112 $180 reversed $110 $-1 #
vertex $-1 $70 $190 #
straight-curve $-1 0 28.692048010757553 5.8088109406953174 -1 0 0 I I #
coedge $-1 $71 $113 $73 $132 reversed $37 $-1 #
vertex $-1 $124 $191 #
straight-curve $-1 0 -28.692048010757553 5.8088109406953174 1 0 0 I I #
edge $-1 $76 -5.8088109406953174 $121 5.8088109406953174 $73 $192 forward 7 unknown #
edge $-1 $77 -5.8088109406953174 $120 5.8088109406953174 $74 $193 forward 7 unknown #
point $-1 64.420911282692956 -28.692048010757553 5.8088109406953174 #
point $-1 64.420911282692956 28.692048010757553 5.8088109406953174 #
face $-1 $-1 $150 $10 $-1 $194 reversed single #
loop $-1 $-1 $195 $79 #
plane-surface $-1 0 -33.93726229192778 4.2077404731245975 0 1 0 0 0 1 forward_v I I I I #
coedge $-1 $196 $82 $91 $154 reversed $45 $-1 #
coedge $-1 $82 $196 $83 $142 reversed $45 $-1 #
coedge $-1 $84 $83 $197 $198 forward $29 $-1 #
edge $-1 $146 28.692048010757553 $199 33.93726229192778 $140 $200 forward 7 unknown #
coedge $-1 $201 $88 $84 $144 reversed $150 $-1 #
edge $-1 $202 -33.93726229192778 $145 -28.692048010757553 $143 $203 forward 7 unknown #
vertex $-1 $89 $204 #
vertex $-1 $142 $205 #
straight-curve $-1 0 -28.692048010757553 5.8088109406953174 -1 0 0 I I #
straight-curve $-1 -64.420911282692956 -28.692048010757553 0 0 0 -1 I I #
coedge $-1 $88 $201 $90 $153 reversed $150 $-1 #
loop $-1 $-1 $88 $136 #
straight-curve $-1 64.420911282692956 -28.692048010757553 0 0 0 1 I I #
coedge $-1 $91 $90 $206 $207 forward $80 $-1 #
edge $-1 $92 -2.6226071405851137 $208 2.6226071405851137 $149 $209 forward 7 unknown #
edge $-1 $210 -2.6226071405851137 $93 2.6226071405851137 $139 $211 forward 7 unknown #
point $-1 64.420911282692956 -28.692048010757553 2.6066700055538785 #
point $-1 -64.420911282692956 -28.692048010757553 2.6066700055538785 #
face $-1 $-1 $172 $11 $-1 $212 reversed single #
loop $-1 $-1 $168 $95 #
plane-surface $-1 0 0 5.8088109406953174 0 0 1 1 0 0 forward_v I I I I #
coedge $-1 $213 $214 $163 $215 forward $96 $-1 #
coedge $-1 $98 $105 $213 $216 forward $53 $-1 #
edge $-1 $217 -2.6226071405851101 $107 2.6226071405851137 $99 $218 forward 7 unknown #
coedge $-1 $100 $99 $160 $215 reversed $33 $-1 #
coedge $-1 $219 $168 $100 $165 forward $158 $-1 #
edge $-1 $166 28.692048010757553 $220 33.93726229192778 $100 $221 forward 7 unknown #
vertex $-1 $165 $222 #
straight-curve $-1 64.420911282692956 28.692048010757553 0 0 0 -1 I I #
coedge $-1 $164 $223 $102 $169 forward $158 $-1 #
edge $-1 $173 -64.420911282692956 $166 64.420911282692956 $168 $224 forward 7 unknown #
coedge $-1 $225 $103 $223 $226 reversed $172 $-1 #
coedge $-1 $103 $225 $105 $175 reversed $172 $-1 #
loop $-1 $-1 $103 $157 #
vertex $-1 $104 $227 #
straight-curve $-1 -64.420911282692956 28.692048010757553 0 0 0 1 I I #
edge $-1 $106 -2.6226071405851137 $228 2.6226071405851101 $171 $229 forward 7 unknown #
point $-1 -64.420911282692956 28.692048010757556 2.6066700055538785 #
point $-1 64.420911282692956 28.692048010757556 2.6066700055538785 #
plane-surface $-1 64.420911282692956 0 0 -1 0 0 0 0 1 forward_v I I I I #
coedge $-1 $114 $112 $116 $183 reversed $61 $-1 #
edge $-1 $127 -5.8088109406953174 $185 5.8088109406953174 $126 $230 forward 7 unknown #
vertex $-1 $183 $231 #
straight-curve $-1 -64.420911282692956 -28.692048010757553 0 0 0 -1 I I #
edge $-1 $181 -28.692048010757553 $185 28.692048010757553 $179 $232 forward 7 unknown #
straight-curve $-1 0 -28.692048010757553 -5.8088109406953174 -1 0 0 I I #
vertex $-1 $119 $233 #
straight-curve $-1 0 28.692048010757553 -5.8088109406953174 1 0 0 I I #
point $-1 64.420911282692956 28.692048010757553 -5.8088109406953174 #
point $-1 64.420911282692956 -28.692048010757553 -5.8088109406953174 #
straight-curve $-1 -64.420911282692956 0 5.8088109406953174 0 -1 0 I I #
point $-1 -64.420911282692956 28.692048010757553 5.8088109406953174 #
point $-1 -64.420911282692956 -28.692048010757553 5.8088109406953174 #
straight-curve $-1 64.420911282692956 -28.692048010757553 0 0 0 -1 I I #
straight-curve $-1 64.420911282692956 28.692048010757553 0 0 0 -1 I I #
plane-surface $-1 64.420911282692956 0 0 -1 0 0 0 0 1 forward_v I I I I #
coedge $-1 $206 $197 $196 $234 forward $137 $-1 #
coedge $-1 $140 $139 $195 $234 reversed $45 $-1 #
coedge $-1 $195 $235 $141 $198 reversed $137 $-1 #
edge $-1 $199 -64.420911282692956 $202 64.420911282692956 $197 $236 forward 7 unknown #
vertex $-1 $142 $237 #
straight-curve $-1 -64.420911282692956 0 5.8088109406953174 0 -1 0 I I #
coedge $-1 $149 $143 $235 $238 forward $150 $-1 #
vertex $-1 $144 $239 #
straight-curve $-1 64.420911282692956 0 5.8088109406953174 0 1 0 I I #
point $-1 64.420911282692956 -28.692048010757553 5.8088109406953174 #
point $-1 -64.420911282692956 -28.692048010757553 5.8088109406953174 #
coedge $-1 $235 $195 $152 $207 reversed $137 $-1 #
edge $-1 $208 -64.420911282692956 $210 64.420911282692956 $206 $240 forward 7 unknown #
vertex $-1 $238 $241 #
straight-curve $-1 64.420911282692956 -31.314655151342667 2.6066700055538785 0 -1 0 I I #
vertex $-1 $154 $242 #
straight-curve $-1 -64.420911282692956 -31.314655151342667 2.6066700055538785 0 1 0 I I #
plane-surface $-1 -64.420911282692956 0 0 1 0 0 0 0 -1 forward_v I I I I #
coedge $-1 $243 $160 $161 $216 reversed $96 $-1 #
coedge $-1 $160 $243 $219 $244 reversed $96 $-1 #
edge $-1 $220 -1.601070467570719 $217 1.601070467570719 $163 $245 forward 7 unknown #
edge $-1 $228 -64.420911282692956 $217 64.420911282692956 $213 $246 forward 7 unknown #
vertex $-1 $162 $247 #
straight-curve $-1 64.420911282692956 31.31465515134267 2.6066700055538785 0 -1 0 I I #
coedge $-1 $223 $164 $214 $244 forward $158 $-1 #
vertex $-1 $165 $248 #
straight-curve $-1 64.420911282692956 0 5.8088109406953174 0 1 0 I I #
point $-1 64.420911282692956 28.692048010757553 5.8088109406953174 #
coedge $-1 $168 $219 $170 $226 forward $158 $-1 #
straight-curve $-1 0 28.692048010757553 5.8088109406953174 1 0 0 I I #
coedge $-1 $171 $170 $243 $249 forward $172 $-1 #
edge $-1 $250 -33.93726229192778 $173 -28.692048010757553 $170 $251 forward 7 unknown #
point $-1 -64.420911282692956 28.692048010757553 5.8088109406953174 #
vertex $-1 $216 $252 #
straight-curve $-1 -64.420911282692956 31.31465515134267 2.6066700055538785 0 1 0 I I #
straight-curve $-1 -64.420911282692956 28.692048010757553 0 0 0 -1 I I #
point $-1 -64.420911282692956 -28.692048010757553 -5.8088109406953174 #
straight-curve $-1 -64.420911282692956 0 -5.8088109406953174 0 1 0 I I #
point $-1 -64.420911282692956 28.692048010757553 -5.8088109406953174 #
edge $-1 $199 -1.601070467570719 $210 1.601070467570719 $196 $253 forward 7 unknown #
coedge $-1 $197 $206 $201 $238 reversed $137 $-1 #
straight-curve $-1 0 -33.93726229192778 5.8088109406953166 1 0 0 I I #
point $-1 -64.420911282692956 -33.93726229192778 5.8088109406953166 #
edge $-1 $202 -1.601070467570719 $208 1.601070467570719 $201 $254 forward 7 unknown #
point $-1 64.420911282692956 -33.93726229192778 5.8088109406953166 #
straight-curve $-1 0 -33.93726229192778 2.6066700055538785 -1 0 0 I I #
point $-1 64.420911282692956 -33.93726229192778 2.6066700055538785 #
point $-1 -64.420911282692956 -33.93726229192778 2.6066700055538785 #
coedge $-1 $214 $213 $225 $249 reversed $96 $-1 #
edge $-1 $220 -64.420911282692956 $250 64.420911282692956 $214 $255 forward 7 unknown #
straight-curve $-1 64.420911282692956 33.93726229192778 4.2077404731245975 0 0 -1 I I #
straight-curve $-1 0 33.93726229192778 2.6066700055538785 1 0 0 I I #
point $-1 64.420911282692956 33.93726229192778 2.6066700055538785 #
point $-1 64.420911282692956 33.93726229192778 5.8088109406953166 #
edge $-1 $250 -1.601070467570719 $228 1.601070467570719 $243 $256 forward 7 unknown #
vertex $-1 $244 $257 #
straight-curve $-1 -64.420911282692956 0 5.8088109406953174 0 -1 0 I I #
point $-1 -64.420911282692956 33.93726229192778 2.6066700055538785 #
straight-curve $-1 -64.420911282692956 -33.93726229192778 4.2077404731245975 0 0 -1 I I #
straight-curve $-1 64.420911282692956 -33.93726229192778 4.2077404731245975 0 0 -1 I I #
straight-curve $-1 0 33.93726229192778 5.8088109406953166 -1 0 0 I I #
straight-curve $-1 -64.420911282692956 33.93726229192778 4.2077404731245975 0 0 -1 I I #
point $-1 -64.420911282692956 33.93726229192778 5.8088109406953166 #
End-of-ACIS-data 