500 0 11 0           
7 Unknown 11 ACIS 5.0 NT 24 Thu Mar 25 21:07:51 1999 
-1 9.9999999999999995e-007 1e-010 
body $-1 $11 $-1 $12 #
body $-1 $13 $-1 $14 #
body $-1 $15 $-1 $16 #
body $-1 $17 $-1 $18 #
body $-1 $19 $-1 $20 #
body $-1 $21 $-1 $22 #
body $-1 $23 $-1 $24 #
body $-1 $25 $-1 $26 #
body $-1 $27 $-1 $28 #
body $-1 $29 $-1 $30 #
body $-1 $31 $-1 $32 #
lump $-1 $-1 $33 $0 #
transform $-1 1 0 0 0 1 0 0 0 1 59.8345896786401 34.797081636958829 12.095349611513718 1 rotate no_reflect no_shear #
lump $-1 $-1 $34 $1 #
transform $-1 1 0 0 0 1 0 0 0 1 59.8345896786401 34.797081636958829 12.095349611513718 1 rotate no_reflect no_shear #
lump $-1 $-1 $35 $2 #
transform $-1 1 0 0 0 1 0 0 0 1 59.8345896786401 34.797081636958829 12.095349611513718 1 rotate no_reflect no_shear #
lump $-1 $-1 $36 $3 #
transform $-1 1 0 0 0 1 0 0 0 1 59.8345896786401 34.797081636958829 12.095349611513718 1 rotate no_reflect no_shear #
lump $-1 $-1 $37 $4 #
transform $-1 1 0 0 0 1 0 0 0 1 59.8345896786401 34.797081636958829 12.095349611513718 1 rotate no_reflect no_shear #
lump $-1 $-1 $38 $5 #
transform $-1 1 0 0 0 1 0 0 0 1 59.8345896786401 34.797081636958829 12.095349611513718 1 rotate no_reflect no_shear #
lump $-1 $-1 $39 $6 #
transform $-1 1 0 0 0 1 0 0 0 1 59.8345896786401 34.797081636958829 12.095349611513718 1 rotate no_reflect no_shear #
lump $-1 $-1 $40 $7 #
transform $-1 1 0 0 0 1 0 0 0 1 59.8345896786401 34.797081636958829 12.095349611513718 1 rotate no_reflect no_shear #
lump $-1 $-1 $41 $8 #
transform $-1 1 0 0 0 1 0 0 0 1 59.8345896786401 34.797081636958829 12.095349611513718 1 rotate no_reflect no_shear #
lump $-1 $-1 $42 $9 #
transform $-1 1 0 0 0 1 0 0 0 1 59.8345896786401 34.797081636958829 12.095349611513718 1 rotate no_reflect no_shear #
lump $-1 $-1 $43 $10 #
transform $-1 1 0 0 0 1 0 0 0 1 59.8345896786401 34.797081636958829 12.095349611513718 1 rotate no_reflect no_shear #
shell $-1 $-1 $-1 $44 $-1 $11 #
shell $-1 $-1 $-1 $45 $-1 $13 #
shell $-1 $-1 $-1 $46 $-1 $15 #
shell $-1 $-1 $-1 $47 $-1 $17 #
shell $-1 $-1 $-1 $48 $-1 $19 #
shell $-1 $-1 $-1 $49 $-1 $21 #
shell $-1 $-1 $-1 $50 $-1 $23 #
shell $-1 $-1 $-1 $51 $-1 $25 #
shell $-1 $-1 $-1 $52 $-1 $27 #
shell $-1 $-1 $-1 $53 $-1 $29 #
shell $-1 $-1 $-1 $54 $-1 $31 #
face $-1 $55 $56 $33 $-1 $57 forward single #
face $-1 $58 $59 $34 $-1 $60 forward single #
face $-1 $61 $62 $35 $-1 $63 reversed single #
face $-1 $64 $65 $36 $-1 $66 forward single #
face $-1 $67 $68 $37 $-1 $69 forward single #
face $-1 $70 $71 $38 $-1 $72 reversed single #
face $-1 $73 $74 $39 $-1 $75 forward single #
face $-1 $76 $77 $40 $-1 $78 forward single #
face $-1 $79 $80 $41 $-1 $81 reversed single #
face $-1 $82 $83 $42 $-1 $84 forward single #
face $-1 $85 $86 $43 $-1 $87 forward single #
face $-1 $88 $89 $33 $-1 $90 reversed single #
loop $-1 $-1 $91 $44 #
plane-surface $-1 0 0 12.095349611513718 0 0 1 1 0 0 forward_v I I I I #
face $-1 $92 $93 $34 $-1 $94 reversed single #
loop $-1 $-1 $95 $45 #
plane-surface $-1 -59.8345896786401 0 0 1 0 0 0 0 -1 forward_v I I I I #
face $-1 $96 $97 $35 $-1 $98 reversed single #
loop $-1 $-1 $99 $46 #
plane-surface $-1 -50.617443805579306 95.090767174485876 125.29716939753669 1 0 0 0 -0.82903758062907751 -0.55919289150049634 forward_v I I I I #
face $-1 $100 $101 $36 $-1 $102 forward single #
loop $-1 $103 $104 $47 #
cone-surface $-1 -46.755819318762633 30.243961201937807 5.9141033549993436 0 -0.82903758062907751 -0.55919289150049634 1 0 0 1 I I 0 1 1 forward I I I I #
face $-1 $105 $106 $37 $-1 $107 forward single #
loop $-1 $108 $109 $48 #
cone-surface $-1 -40.963382588537634 30.243961201937807 5.9141033549993436 0 -0.82903758062907751 -0.55919289150049634 1 0 0 1 I I 0 1 1 forward I I I I #
face $-1 $110 $111 $38 $-1 $112 reversed single #
loop $-1 $-1 $113 $49 #
plane-surface $-1 4.6085729365303933 95.090767174485876 125.29716939753669 1 0 0 0 -0.82903758062907751 -0.55919289150049634 forward_v I I I I #
face $-1 $114 $115 $39 $-1 $116 forward single #
loop $-1 $117 $118 $50 #
cone-surface $-1 8.4701974233470736 30.243961201937807 5.9141033549993436 0 -0.82903758062907751 -0.55919289150049634 1 0 0 1 I I 0 1 1 forward I I I I #
face $-1 $119 $120 $40 $-1 $121 forward single #
loop $-1 $122 $123 $51 #
cone-surface $-1 14.262634153572066 30.243961201937807 5.9141033549993436 0 -0.82903758062907751 -0.55919289150049634 1 0 0 1 I I 0 1 1 forward I I I I #
face $-1 $124 $125 $41 $-1 $126 reversed single #
loop $-1 $-1 $127 $52 #
plane-surface $-1 41.829459915678967 -99.973588857090647 100.4945893298835 -1 0 0 0 -0.54463904215088732 0.83867056331134215 forward_v I I I I #
face $-1 $128 $129 $42 $-1 $130 forward single #
loop $-1 $131 $132 $53 #
cone-surface $-1 24.868158478266253 -23.556203234159771 2.9881859518732981 0 0.54463904215088732 -0.83867056331134215 2.5 0 0 1 I I 0 1 2.5 forward I I I I #
face $-1 $133 $134 $43 $-1 $135 forward single #
loop $-1 $136 $137 $54 #
cone-surface $-1 35.044939340713881 -23.556203234159771 2.9881859518732981 0 0.54463904215088732 -0.83867056331134215 2.5 0 0 1 I I 0 1 2.5 forward I I I I #
face $-1 $138 $139 $33 $-1 $140 reversed single #
loop $-1 $-1 $141 $55 #
plane-surface $-1 0 0 -12.095349611513718 0 0 1 1 0 0 forward_v I I I I #
coedge $-1 $142 $143 $144 $145 forward $56 $-1 #
face $-1 $146 $147 $34 $-1 $148 reversed single #
loop $-1 $-1 $149 $58 #
plane-surface $-1 0 34.797081636958829 0 0 -1 0 0 0 -1 forward_v I I I I #
coedge $-1 $150 $151 $152 $153 forward $59 $-1 #
face $-1 $154 $155 $35 $-1 $156 reversed single #
loop $-1 $-1 $157 $61 #
plane-surface $-1 -43.859600953650137 -4.1194797557408407 58.379014969247663 0 0.82903758062907751 0.55919289150049634 1 0 0 forward_v I I I I #
coedge $-1 $158 $159 $160 $161 reversed $62 $-1 #
face $-1 $-1 $162 $36 $-1 $163 forward single #
loop $-1 $164 $165 $64 #
cone-surface $-1 -46.755819318762633 29.125239921872939 5.1595163471246011 0 -0.82903758062907751 -0.55919289150049634 0.5 0 0 1 I I -0.70710678118654746 0.70710678118654746 0.5 forward I I I I #
loop $-1 $-1 $166 $47 #
coedge $-1 $104 $104 $167 $168 reversed $65 $-1 #
face $-1 $-1 $169 $37 $-1 $170 forward single #
loop $-1 $171 $172 $67 #
cone-surface $-1 -40.963382588537634 29.125239921872939 5.1595163471246011 0 -0.82903758062907751 -0.55919289150049634 0.5 0 0 1 I I -0.70710678118654746 0.70710678118654746 0.5 forward I I I I #
loop $-1 $-1 $173 $48 #
coedge $-1 $109 $109 $174 $175 reversed $68 $-1 #
face $-1 $176 $177 $38 $-1 $178 reversed single #
loop $-1 $-1 $179 $70 #
plane-surface $-1 11.366415788459562 -4.1194797557408407 58.379014969247663 0 0.82903758062907751 0.55919289150049634 1 0 0 forward_v I I I I #
coedge $-1 $180 $181 $182 $183 reversed $71 $-1 #
face $-1 $-1 $184 $39 $-1 $185 forward single #
loop $-1 $186 $187 $73 #
cone-surface $-1 8.4701974233470736 29.125239921872939 5.1595163471246011 0 -0.82903758062907751 -0.55919289150049634 0.5 0 0 1 I I -0.70710678118654746 0.70710678118654746 0.5 forward I I I I #
loop $-1 $-1 $188 $50 #
coedge $-1 $118 $118 $189 $190 reversed $74 $-1 #
face $-1 $-1 $191 $40 $-1 $192 forward single #
loop $-1 $193 $194 $76 #
cone-surface $-1 14.262634153572066 29.125239921872939 5.1595163471246011 0 -0.82903758062907751 -0.55919289150049634 0.5 0 0 1 I I -0.70710678118654746 0.70710678118654746 0.5 forward I I I I #
loop $-1 $-1 $195 $51 #
coedge $-1 $123 $123 $196 $197 reversed $77 $-1 #
face $-1 $198 $199 $41 $-1 $200 reversed single #
loop $-1 $-1 $201 $79 #
plane-surface $-1 29.956548909490067 -34.797081636958822 0.13157126730727953 0 -0.54463904215088732 0.83867056331134215 1 0 0 forward_v I I I I #
coedge $-1 $202 $203 $204 $205 reversed $80 $-1 #
face $-1 $-1 $206 $42 $-1 $207 forward single #
loop $-1 $208 $209 $82 #
cone-surface $-1 24.868158478266253 -20.845827410632083 -1.1854267398030807 0 0.54463904215088732 -0.83867056331134215 1.25 0 0 1 I I -0.70710678118654746 0.70710678118654768 1.25 forward I I I I #
loop $-1 $-1 $210 $53 #
coedge $-1 $132 $132 $211 $212 reversed $83 $-1 #
face $-1 $-1 $213 $43 $-1 $214 forward single #
loop $-1 $215 $216 $85 #
cone-surface $-1 35.044939340713881 -20.845827410632083 -1.1854267398030807 0 0.54463904215088732 -0.83867056331134215 1.25 0 0 1 I I -0.70710678118654746 0.70710678118654768 1.25 forward I I I I #
loop $-1 $-1 $217 $54 #
coedge $-1 $137 $137 $218 $219 reversed $86 $-1 #
face $-1 $220 $221 $33 $-1 $222 reversed single #
loop $-1 $-1 $223 $88 #
plane-surface $-1 0 -34.797081636958829 0 0 1 0 0 0 1 forward_v I I I I #
coedge $-1 $224 $225 $226 $227 forward $89 $-1 #
coedge $-1 $228 $91 $229 $230 forward $56 $-1 #
coedge $-1 $91 $228 $231 $232 forward $56 $-1 #
coedge $-1 $233 $234 $91 $145 reversed $235 $-1 #
edge $-1 $236 -34.797081636958829 $237 34.797081636958829 $144 $238 forward 7 unknown #
face $-1 $239 $240 $34 $-1 $241 reversed single #
loop $-1 $-1 $152 $92 #
plane-surface $-1 -64.443162615170493 0 9.0953496115137185 0 0 1 1 0 0 forward_v I I I I #
coedge $-1 $242 $243 $150 $244 forward $93 $-1 #
coedge $-1 $245 $95 $149 $244 reversed $59 $-1 #
coedge $-1 $95 $245 $246 $247 reversed $59 $-1 #
coedge $-1 $248 $249 $95 $153 reversed $147 $-1 #
edge $-1 $250 -34.797081636958829 $251 34.797081636958829 $152 $252 forward 7 unknown #
face $-1 $253 $254 $35 $-1 $255 forward single #
loop $-1 $-1 $256 $96 #
plane-surface $-1 -37.101758101720968 95.090767174485876 125.29716939753669 -1 0 0 0 0.82903758062907751 0.55919289150049634 forward_v I I I I #
coedge $-1 $257 $258 $259 $260 reversed $97 $-1 #
coedge $-1 $159 $99 $261 $262 reversed $62 $-1 #
coedge $-1 $99 $158 $257 $263 reversed $62 $-1 #
coedge $-1 $259 $264 $99 $161 forward $254 $-1 #
edge $-1 $265 12.748301950284109 $266 20.446137840825479 $160 $267 forward 7 unknown #
loop $-1 $-1 $167 $100 #
plane-surface $-1 -43.859600953650137 -4.1194797557408407 58.379014969247663 0 0.82903758062907751 0.55919289150049634 1 0 0 forward_v I I I I #
loop $-1 $-1 $268 $64 #
coedge $-1 $165 $165 $166 $269 reversed $101 $-1 #
coedge $-1 $166 $166 $165 $269 forward $103 $-1 #
coedge $-1 $167 $167 $104 $168 forward $162 $-1 #
edge $-1 $270 9.5868091821877876e-016 $270 6.2831853071796013 $167 $271 forward 7 unknown #
loop $-1 $-1 $174 $105 #
plane-surface $-1 -43.859600953650137 -4.1194797557408407 58.379014969247663 0 0.82903758062907751 0.55919289150049634 1 0 0 forward_v I I I I #
loop $-1 $-1 $272 $67 #
coedge $-1 $172 $172 $173 $273 reversed $106 $-1 #
coedge $-1 $173 $173 $172 $273 forward $108 $-1 #
coedge $-1 $174 $174 $109 $175 forward $169 $-1 #
edge $-1 $274 9.5868091821877876e-016 $274 6.2831853071796013 $174 $275 forward 7 unknown #
face $-1 $276 $277 $38 $-1 $278 forward single #
loop $-1 $-1 $279 $110 #
plane-surface $-1 18.124258640388732 95.090767174485876 125.29716939753669 -1 0 0 0 0.82903758062907751 0.55919289150049634 forward_v I I I I #
coedge $-1 $280 $281 $282 $283 reversed $111 $-1 #
coedge $-1 $181 $113 $284 $285 reversed $71 $-1 #
coedge $-1 $113 $180 $280 $286 reversed $71 $-1 #
coedge $-1 $282 $287 $113 $183 forward $277 $-1 #
edge $-1 $288 12.748301950284109 $289 20.446137840825479 $182 $290 forward 7 unknown #
loop $-1 $-1 $189 $114 #
plane-surface $-1 11.366415788459562 -4.1194797557408407 58.379014969247663 0 0.82903758062907751 0.55919289150049634 1 0 0 forward_v I I I I #
loop $-1 $-1 $291 $73 #
coedge $-1 $187 $187 $188 $292 reversed $115 $-1 #
coedge $-1 $188 $188 $187 $292 forward $117 $-1 #
coedge $-1 $189 $189 $118 $190 forward $184 $-1 #
edge $-1 $293 9.5868091821877876e-016 $293 6.2831853071796013 $189 $294 forward 7 unknown #
loop $-1 $-1 $196 $119 #
plane-surface $-1 11.366415788459562 -4.1194797557408407 58.379014969247663 0 0.82903758062907751 0.55919289150049634 1 0 0 forward_v I I I I #
loop $-1 $-1 $295 $76 #
coedge $-1 $194 $194 $195 $296 reversed $120 $-1 #
coedge $-1 $195 $195 $194 $296 forward $122 $-1 #
coedge $-1 $196 $196 $123 $197 forward $191 $-1 #
edge $-1 $297 9.5868091821877876e-016 $297 6.2831853071796013 $196 $298 forward 7 unknown #
face $-1 $299 $300 $41 $-1 $301 reversed single #
loop $-1 $-1 $302 $124 #
plane-surface $-1 18.083637903301167 -99.973588857090647 100.4945893298835 1 0 0 0 0.54463904215088732 -0.83867056331134215 forward_v I I I I #
coedge $-1 $303 $304 $305 $306 reversed $125 $-1 #
coedge $-1 $203 $127 $307 $308 reversed $80 $-1 #
coedge $-1 $127 $202 $303 $309 reversed $80 $-1 #
coedge $-1 $305 $310 $127 $205 forward $311 $-1 #
edge $-1 $312 15.189712791586494 $313 33.612315555506456 $204 $314 forward 7 unknown #
loop $-1 $-1 $211 $128 #
plane-surface $-1 29.956548909490067 -34.797081636958822 0.13157126730727953 0 -0.54463904215088732 0.83867056331134215 1 0 0 forward_v I I I I #
loop $-1 $-1 $315 $82 #
coedge $-1 $209 $209 $210 $316 reversed $129 $-1 #
coedge $-1 $210 $210 $209 $316 forward $131 $-1 #
coedge $-1 $211 $211 $132 $212 forward $206 $-1 #
edge $-1 $317 -9.9832789540758488e-016 $317 6.2831853071795996 $211 $318 forward 7 unknown #
loop $-1 $-1 $218 $133 #
plane-surface $-1 29.956548909490067 -34.797081636958822 0.13157126730727953 0 -0.54463904215088732 0.83867056331134215 1 0 0 forward_v I I I I #
loop $-1 $-1 $319 $85 #
coedge $-1 $216 $216 $217 $320 reversed $134 $-1 #
coedge $-1 $217 $217 $216 $320 forward $136 $-1 #
coedge $-1 $218 $218 $137 $219 forward $213 $-1 #
edge $-1 $321 -9.9832789540758488e-016 $321 6.2831853071795996 $218 $322 forward 7 unknown #
face $-1 $323 $324 $33 $-1 $325 reversed single #
loop $-1 $-1 $326 $138 #
plane-surface $-1 -59.8345896786401 0 0 1 0 0 0 0 -1 forward_v I I I I #
coedge $-1 $327 $231 $328 $329 forward $139 $-1 #
coedge $-1 $330 $141 $327 $331 forward $89 $-1 #
coedge $-1 $141 $330 $332 $333 forward $89 $-1 #
coedge $-1 $234 $233 $141 $227 reversed $235 $-1 #
edge $-1 $334 -34.797081636958829 $335 34.797081636958829 $226 $336 forward 7 unknown #
coedge $-1 $143 $142 $337 $338 forward $56 $-1 #
coedge $-1 $339 $340 $142 $230 reversed $324 $-1 #
edge $-1 $237 -59.8345896786401 $341 59.8345896786401 $229 $342 forward 7 unknown #
coedge $-1 $223 $343 $143 $232 reversed $139 $-1 #
edge $-1 $344 -59.8345896786401 $236 59.8345896786401 $231 $345 forward 7 unknown #
coedge $-1 $226 $144 $343 $346 forward $235 $-1 #
coedge $-1 $144 $226 $339 $347 reversed $235 $-1 #
loop $-1 $-1 $233 $323 #
vertex $-1 $145 $348 #
vertex $-1 $145 $349 #
straight-curve $-1 59.8345896786401 0 12.095349611513718 0 1 0 I I #
face $-1 $350 $351 $34 $-1 $352 forward single #
loop $-1 $-1 $353 $146 #
plane-surface $-1 -69.051735551700887 0 10.595349611513718 1 0 0 0 0 -1 forward_v I I I I #
coedge $-1 $354 $149 $249 $355 reversed $93 $-1 #
coedge $-1 $149 $354 $356 $357 reversed $93 $-1 #
edge $-1 $358 -12.095349611513718 $251 -9.0953496115137185 $149 $359 forward 7 unknown #
coedge $-1 $151 $150 $360 $361 reversed $59 $-1 #
coedge $-1 $362 $363 $151 $247 forward $364 $-1 #
edge $-1 $250 9.0953496115137185 $365 12.095349611513718 $246 $366 forward 7 unknown #
coedge $-1 $367 $152 $363 $368 forward $147 $-1 #
coedge $-1 $152 $367 $242 $355 forward $147 $-1 #
vertex $-1 $247 $369 #
vertex $-1 $244 $370 #
straight-curve $-1 -59.8345896786401 0 9.0953496115137185 0 1 0 I I #
face $-1 $-1 $371 $35 $-1 $372 reversed single #
loop $-1 $-1 $160 $154 #
plane-surface $-1 0 0 12.095349611513718 0 0 1 1 0 0 forward_v I I I I #
coedge $-1 $373 $374 $375 $376 reversed $155 $-1 #
coedge $-1 $377 $157 $159 $263 forward $97 $-1 #
coedge $-1 $157 $377 $373 $378 forward $97 $-1 #
coedge $-1 $375 $160 $157 $260 forward $254 $-1 #
edge $-1 $266 -28.687643328754238 $379 -15.171957624895899 $259 $380 forward 7 unknown #
coedge $-1 $381 $382 $158 $262 forward $371 $-1 #
edge $-1 $383 -61.96574647603439 $265 -50.553235087254627 $261 $384 forward 7 unknown #
edge $-1 $266 55.828187333333773 $383 69.594163273917673 $159 $385 forward 7 unknown #
coedge $-1 $160 $375 $381 $386 forward $254 $-1 #
vertex $-1 $262 $387 #
vertex $-1 $161 $388 #
straight-curve $-1 -50.617443805579306 47.545383587242938 12.095349611513718 0 -1 0 I I #
coedge $-1 $268 $268 $-1 $389 reversed $164 $-1 #
edge $-1 $390 0 $390 6.2831853071796004 $165 $391 forward 7 unknown #
vertex $-1 $168 $392 #
ellipse-curve $-1 -46.755819318762633 30.948163691688144 6.3890939171238408 0 0.82903758062907751 0.55919289150049634 1 0 0 1 I I #
coedge $-1 $272 $272 $-1 $393 reversed $171 $-1 #
edge $-1 $394 0 $394 6.2831853071796004 $172 $395 forward 7 unknown #
vertex $-1 $175 $396 #
ellipse-curve $-1 -40.963382588537634 30.948163691688144 6.3890939171238408 0 0.82903758062907751 0.55919289150049634 1 0 0 1 I I #
face $-1 $-1 $397 $38 $-1 $398 reversed single #
loop $-1 $-1 $182 $176 #
plane-surface $-1 0 0 12.095349611513718 0 0 1 1 0 0 forward_v I I I I #
coedge $-1 $399 $400 $401 $402 reversed $177 $-1 #
coedge $-1 $403 $179 $181 $286 forward $111 $-1 #
coedge $-1 $179 $403 $399 $404 forward $111 $-1 #
coedge $-1 $401 $182 $179 $283 forward $277 $-1 #
edge $-1 $289 -1.0746349576993879 $405 12.44105074615895 $282 $406 forward 7 unknown #
coedge $-1 $407 $408 $180 $285 forward $397 $-1 #
edge $-1 $409 -61.96574647603439 $288 -50.553235087254627 $284 $410 forward 7 unknown #
edge $-1 $289 55.828187333333773 $409 69.594163273917673 $181 $411 forward 7 unknown #
coedge $-1 $182 $401 $407 $412 forward $277 $-1 #
vertex $-1 $183 $413 #
vertex $-1 $183 $414 #
straight-curve $-1 4.6085729365303933 47.545383587242938 12.095349611513718 0 -1 0 I I #
coedge $-1 $291 $291 $-1 $415 reversed $186 $-1 #
edge $-1 $416 0 $416 6.2831853071796004 $187 $417 forward 7 unknown #
vertex $-1 $190 $418 #
ellipse-curve $-1 8.4701974233470736 30.948163691688144 6.3890939171238408 0 0.82903758062907751 0.55919289150049634 1 0 0 1 I I #
coedge $-1 $295 $295 $-1 $419 reversed $193 $-1 #
edge $-1 $420 0 $420 6.2831853071796004 $194 $421 forward 7 unknown #
vertex $-1 $197 $422 #
ellipse-curve $-1 14.262634153572066 30.948163691688144 6.3890939171238408 0 0.82903758062907751 0.55919289150049634 1 0 0 1 I I #
face $-1 $-1 $311 $41 $-1 $423 forward single #
loop $-1 $-1 $424 $198 #
plane-surface $-1 0 -34.797081636958829 0 0 1 0 0 0 1 forward_v I I I I #
coedge $-1 $425 $426 $427 $428 reversed $199 $-1 #
coedge $-1 $429 $201 $203 $309 forward $125 $-1 #
coedge $-1 $201 $429 $425 $430 forward $125 $-1 #
coedge $-1 $427 $204 $201 $306 forward $311 $-1 #
edge $-1 $313 -26.851185460933934 $431 -3.1053634485561332 $305 $432 forward 7 unknown #
coedge $-1 $433 $434 $202 $308 forward $300 $-1 #
edge $-1 $435 -50.115723397634476 $312 -38.15194505342803 $307 $436 forward 7 unknown #
edge $-1 $313 -21.966435415571958 $435 8.4684966040957343e-015 $203 $437 forward 7 unknown #
coedge $-1 $204 $427 $433 $438 forward $311 $-1 #
loop $-1 $-1 $427 $299 #
vertex $-1 $308 $439 #
vertex $-1 $205 $440 #
straight-curve $-1 41.829459915678967 -49.986794428545323 12.095349611513718 0 1 0 I I #
coedge $-1 $315 $315 $-1 $441 reversed $208 $-1 #
edge $-1 $442 0 $442 6.2831853071796004 $209 $443 forward 7 unknown #
vertex $-1 $212 $444 #
ellipse-curve $-1 24.868158478266253 -25.585780254998848 6.1134604394104972 0 -0.54463904215088732 0.83867056331134215 2.5 0 0 1 I I #
coedge $-1 $319 $319 $-1 $445 reversed $215 $-1 #
edge $-1 $446 0 $446 6.2831853071796004 $216 $447 forward 7 unknown #
vertex $-1 $219 $448 #
ellipse-curve $-1 35.044939340713881 -25.585780254998848 6.1134604394104972 0 -0.54463904215088732 0.83867056331134215 2.5 0 0 1 I I #
face $-1 $-1 $235 $33 $-1 $449 reversed single #
loop $-1 $-1 $339 $220 #
plane-surface $-1 0 34.797081636958829 0 0 -1 0 0 0 -1 forward_v I I I I #
coedge $-1 $450 $337 $340 $451 forward $221 $-1 #
coedge $-1 $343 $223 $224 $331 reversed $139 $-1 #
coedge $-1 $337 $450 $223 $329 reversed $221 $-1 #
edge $-1 $344 -12.095349611513718 $452 12.095349611513718 $328 $453 forward 7 unknown #
coedge $-1 $225 $224 $450 $454 forward $89 $-1 #
edge $-1 $335 -59.8345896786401 $452 59.8345896786401 $327 $455 forward 7 unknown #
coedge $-1 $340 $339 $225 $333 reversed $324 $-1 #
edge $-1 $456 -59.8345896786401 $334 59.8345896786401 $332 $457 forward 7 unknown #
vertex $-1 $227 $458 #
vertex $-1 $346 $459 #
straight-curve $-1 59.8345896786401 0 -12.095349611513718 0 -1 0 I I #
coedge $-1 $326 $328 $228 $338 reversed $221 $-1 #
edge $-1 $341 -34.797081636958829 $344 34.797081636958829 $337 $460 forward 7 unknown #
coedge $-1 $332 $229 $234 $347 forward $324 $-1 #
coedge $-1 $229 $332 $326 $451 reversed $324 $-1 #
vertex $-1 $230 $461 #
straight-curve $-1 0 34.797081636958829 12.095349611513718 -1 0 0 I I #
coedge $-1 $231 $327 $233 $346 reversed $139 $-1 #
vertex $-1 $338 $462 #
straight-curve $-1 0 -34.797081636958829 12.095349611513718 1 0 0 I I #
edge $-1 $236 -12.095349611513718 $335 12.095349611513718 $233 $463 forward 7 unknown #
edge $-1 $237 -12.095349611513718 $334 12.095349611513718 $234 $464 forward 7 unknown #
point $-1 59.8345896786401 -34.797081636958829 12.095349611513718 #
point $-1 59.8345896786401 34.797081636958829 12.095349611513718 #
face $-1 $-1 $364 $34 $-1 $465 reversed single #
loop $-1 $-1 $360 $239 #
plane-surface $-1 0 0 12.095349611513718 0 0 1 1 0 0 forward_v I I I I #
coedge $-1 $466 $467 $354 $468 forward $240 $-1 #
coedge $-1 $243 $242 $353 $468 reversed $93 $-1 #
edge $-1 $469 -4.6085729365303933 $251 4.6085729365303933 $242 $470 forward 7 unknown #
coedge $-1 $471 $360 $243 $357 forward $351 $-1 #
edge $-1 $358 59.8345896786401 $472 69.051735551700887 $243 $473 forward 7 unknown #
vertex $-1 $357 $474 #
straight-curve $-1 -59.8345896786401 34.797081636958829 0 0 0 -1 I I #
coedge $-1 $356 $475 $245 $361 forward $351 $-1 #
edge $-1 $365 -34.797081636958829 $358 34.797081636958829 $360 $476 forward 7 unknown #
coedge $-1 $477 $246 $475 $478 reversed $364 $-1 #
coedge $-1 $246 $477 $248 $368 reversed $364 $-1 #
loop $-1 $-1 $246 $350 #
vertex $-1 $247 $479 #
straight-curve $-1 -59.8345896786401 -34.797081636958829 0 0 0 1 I I #
coedge $-1 $249 $248 $466 $480 forward $147 $-1 #
edge $-1 $250 -4.6085729365303933 $481 4.6085729365303933 $363 $482 forward 7 unknown #
point $-1 -59.8345896786401 -34.797081636958829 9.0953496115137185 #
point $-1 -59.8345896786401 34.797081636958829 9.0953496115137185 #
loop $-1 $-1 $261 $253 #
plane-surface $-1 0 34.797081636958829 0 0 -1 0 0 0 -1 forward_v I I I I #
coedge $-1 $374 $256 $258 $378 reversed $155 $-1 #
coedge $-1 $256 $373 $483 $484 reversed $155 $-1 #
coedge $-1 $264 $259 $256 $376 forward $254 $-1 #
edge $-1 $379 -20.446137840825479 $485 -12.748301950284109 $375 $486 forward 7 unknown #
coedge $-1 $258 $257 $382 $487 reversed $97 $-1 #
edge $-1 $488 -69.594163273917673 $379 -55.828187333333773 $373 $489 forward 7 unknown #
vertex $-1 $260 $490 #
straight-curve $-1 -21.929800476825069 27.099245746417459 12.095349611513722 1 0 0 I I #
coedge $-1 $483 $261 $264 $386 reversed $371 $-1 #
coedge $-1 $261 $483 $377 $487 forward $371 $-1 #
vertex $-1 $262 $491 #
straight-curve $-1 -50.617443805579306 34.797081636958829 62.648584698768346 0 0 1 I I #
straight-curve $-1 -50.617443805579306 -4.1194797557408407 58.379014969247663 0 0.55919289150049634 -0.82903758062907751 I I #
edge $-1 $485 37.101758101720968 $265 50.617443805579306 $381 $492 forward 7 unknown #
point $-1 -50.617443805579306 34.797081636958829 12.095349611513718 #
point $-1 -50.617443805579306 27.099245746417459 12.095349611513718 #
edge $-1 $493 1 $493 0 $268 $-1 forward 7 unknown #
vertex $-1 $269 $494 #
ellipse-curve $-1 -46.755819318762633 29.539758712187478 5.4391127928748491 0 0.82903758062907751 0.55919289150049634 1 0 0 1 I I #
point $-1 -45.755819318762633 30.948163691688141 6.3890939171238372 #
edge $-1 $495 1 $495 0 $272 $-1 forward 7 unknown #
vertex $-1 $273 $496 #
ellipse-curve $-1 -40.963382588537634 29.539758712187478 5.4391127928748491 0 0.82903758062907751 0.55919289150049634 1 0 0 1 I I #
point $-1 -39.963382588537634 30.948163691688141 6.3890939171238372 #
loop $-1 $-1 $284 $276 #
plane-surface $-1 0 34.797081636958829 0 0 -1 0 0 0 -1 forward_v I I I I #
coedge $-1 $400 $279 $281 $404 reversed $177 $-1 #
coedge $-1 $279 $399 $497 $498 reversed $177 $-1 #
coedge $-1 $287 $282 $279 $402 forward $277 $-1 #
edge $-1 $405 -20.446137840825479 $499 -12.748301950284109 $401 $500 forward 7 unknown #
coedge $-1 $281 $280 $408 $501 reversed $111 $-1 #
edge $-1 $502 -69.594163273917673 $405 -55.828187333333773 $399 $503 forward 7 unknown #
vertex $-1 $283 $504 #
straight-curve $-1 5.6832078942297812 27.099245746417459 12.095349611513722 1 0 0 I I #
coedge $-1 $497 $284 $287 $412 reversed $397 $-1 #
coedge $-1 $284 $497 $403 $501 forward $397 $-1 #
vertex $-1 $285 $505 #
straight-curve $-1 4.6085729365303933 34.797081636958829 62.648584698768346 0 0 1 I I #
straight-curve $-1 4.6085729365303933 -4.1194797557408407 58.379014969247663 0 0.55919289150049634 -0.82903758062907751 I I #
edge $-1 $499 -18.124258640388732 $288 -4.6085729365303933 $407 $506 forward 7 unknown #
point $-1 4.6085729365303933 34.797081636958829 12.095349611513718 #
point $-1 4.6085729365303933 27.099245746417459 12.095349611513718 #
edge $-1 $507 1 $507 0 $291 $-1 forward 7 unknown #
vertex $-1 $292 $508 #
ellipse-curve $-1 8.4701974233470736 29.539758712187478 5.4391127928748491 0 0.82903758062907751 0.55919289150049634 1 0 0 1 I I #
point $-1 9.4701974233470736 30.948163691688141 6.3890939171238372 #
edge $-1 $509 1 $509 0 $295 $-1 forward 7 unknown #
vertex $-1 $296 $510 #
ellipse-curve $-1 14.262634153572066 29.539758712187478 5.4391127928748491 0 0.82903758062907751 0.55919289150049634 1 0 0 1 I I #
point $-1 15.262634153572066 30.948163691688141 6.3890939171238372 #
plane-surface $-1 0 0 12.095349611513718 0 0 1 1 0 0 forward_v I I I I #
coedge $-1 $434 $433 $426 $511 forward $300 $-1 #
coedge $-1 $426 $302 $304 $430 reversed $199 $-1 #
coedge $-1 $302 $425 $424 $511 reversed $199 $-1 #
coedge $-1 $310 $305 $302 $428 forward $311 $-1 #
edge $-1 $431 -33.612315555506456 $512 -15.189712791586494 $427 $513 forward 7 unknown #
coedge $-1 $304 $303 $434 $514 reversed $125 $-1 #
edge $-1 $515 -8.4684966040957343e-015 $431 21.966435415571958 $425 $516 forward 7 unknown #
vertex $-1 $306 $517 #
straight-curve $-1 14.978274454745033 -16.374478873038875 12.095349611513718 -1 0 0 I I #
coedge $-1 $424 $307 $310 $438 reversed $300 $-1 #
coedge $-1 $307 $424 $429 $514 forward $300 $-1 #
vertex $-1 $308 $518 #
straight-curve $-1 41.829459915678967 -34.797081636958829 50.247294664941748 0 0 1 I I #
straight-curve $-1 41.829459915678967 -34.797081636958822 0.13157126730727953 0 -0.83867056331134215 -0.54463904215088732 I I #
edge $-1 $512 18.083637903301167 $312 41.829459915678967 $433 $519 forward 7 unknown #
point $-1 41.829459915678967 -34.797081636958829 12.095349611513718 #
point $-1 41.829459915678967 -16.374478873038871 12.095349611513718 #
edge $-1 $520 1 $520 0 $315 $-1 forward 7 unknown #
vertex $-1 $316 $521 #
ellipse-curve $-1 24.868158478266253 -21.526626213320693 -0.13708853566390267 0 -0.54463904215088732 0.83867056331134215 2.5 0 0 1 I I #
point $-1 27.368158478266253 -25.585780254998852 6.1134604394104981 #
edge $-1 $522 1 $522 0 $319 $-1 forward 7 unknown #
vertex $-1 $320 $523 #
ellipse-curve $-1 35.044939340713881 -21.526626213320693 -0.13708853566390267 0 -0.54463904215088732 0.83867056331134215 2.5 0 0 1 I I #
point $-1 37.544939340713881 -25.585780254998852 6.1134604394104981 #
plane-surface $-1 59.8345896786401 0 0 -1 0 0 0 0 1 forward_v I I I I #
coedge $-1 $328 $326 $330 $454 reversed $221 $-1 #
edge $-1 $341 -12.095349611513718 $456 12.095349611513718 $340 $524 forward 7 unknown #
vertex $-1 $454 $525 #
straight-curve $-1 -59.8345896786401 -34.797081636958829 0 0 0 -1 I I #
edge $-1 $452 -34.797081636958829 $456 34.797081636958829 $450 $526 forward 7 unknown #
straight-curve $-1 0 -34.797081636958829 -12.095349611513718 -1 0 0 I I #
vertex $-1 $333 $527 #
straight-curve $-1 0 34.797081636958829 -12.095349611513718 1 0 0 I I #
point $-1 59.8345896786401 34.797081636958829 -12.095349611513718 #
point $-1 59.8345896786401 -34.797081636958829 -12.095349611513718 #
straight-curve $-1 -59.8345896786401 0 12.095349611513718 0 -1 0 I I #
point $-1 -59.8345896786401 34.797081636958829 12.095349611513718 #
point $-1 -59.8345896786401 -34.797081636958829 12.095349611513718 #
straight-curve $-1 59.8345896786401 -34.797081636958829 0 0 0 -1 I I #
straight-curve $-1 59.8345896786401 34.797081636958829 0 0 0 -1 I I #
plane-surface $-1 0 -34.797081636958829 0 0 1 0 0 0 1 forward_v I I I I #
coedge $-1 $528 $353 $367 $480 reversed $240 $-1 #
coedge $-1 $353 $528 $471 $529 reversed $240 $-1 #
edge $-1 $472 -1.5 $469 1.5 $354 $530 forward 7 unknown #
vertex $-1 $355 $531 #
straight-curve $-1 -64.443162615170493 34.797081636958829 9.0953496115137185 1 0 0 I I #
coedge $-1 $475 $356 $467 $529 forward $351 $-1 #
vertex $-1 $357 $532 #
straight-curve $-1 0 34.797081636958829 12.095349611513718 -1 0 0 I I #
point $-1 -59.8345896786401 34.797081636958829 12.095349611513718 #
coedge $-1 $360 $471 $362 $478 forward $351 $-1 #
straight-curve $-1 -59.8345896786401 0 12.095349611513718 0 1 0 I I #
coedge $-1 $363 $362 $528 $533 forward $364 $-1 #
edge $-1 $534 -69.051735551700887 $365 -59.8345896786401 $362 $535 forward 7 unknown #
point $-1 -59.8345896786401 -34.797081636958829 12.095349611513718 #
edge $-1 $481 -34.797081636958829 $469 34.797081636958829 $466 $536 forward 7 unknown #
vertex $-1 $480 $537 #
straight-curve $-1 -64.443162615170493 -34.797081636958829 9.0953496115137185 -1 0 0 I I #
coedge $-1 $382 $381 $374 $484 forward $371 $-1 #
edge $-1 $485 50.553235087254627 $488 61.96574647603439 $483 $538 forward 7 unknown #
vertex $-1 $386 $539 #
straight-curve $-1 -37.101758101720968 47.545383587242938 12.095349611513718 0 1 0 I I #
edge $-1 $488 15.171957624895899 $383 28.687643328754238 $382 $540 forward 7 unknown #
vertex $-1 $487 $541 #
straight-curve $-1 -37.101758101720968 -4.1194797557408407 58.379014969247663 0 -0.55919289150049634 0.82903758062907751 I I #
point $-1 -37.101758101720968 27.099245746417459 12.095349611513718 #
point $-1 -50.617443805579306 34.797081636958829 0.682838222733956 #
straight-curve $-1 0 34.797081636958829 12.095349611513718 -1 0 0 I I #
vertex $-1 $389 $542 #
point $-1 -45.755819318762633 29.539758712187478 5.4391127928748491 #
vertex $-1 $393 $543 #
point $-1 -39.963382588537634 29.539758712187478 5.4391127928748491 #
coedge $-1 $408 $407 $400 $498 forward $397 $-1 #
edge $-1 $499 50.553235087254627 $502 61.96574647603439 $497 $544 forward 7 unknown #
vertex $-1 $412 $545 #
straight-curve $-1 18.124258640388732 47.545383587242938 12.095349611513718 0 1 0 I I #
edge $-1 $502 -12.44105074615895 $409 1.0746349576993879 $408 $546 forward 7 unknown #
vertex $-1 $501 $547 #
straight-curve $-1 18.124258640388732 -4.1194797557408407 58.379014969247663 0 -0.55919289150049634 0.82903758062907751 I I #
point $-1 18.124258640388732 27.099245746417459 12.095349611513718 #
point $-1 4.6085729365303933 34.797081636958829 0.682838222733956 #
straight-curve $-1 0 34.797081636958829 12.095349611513718 -1 0 0 I I #
vertex $-1 $415 $548 #
point $-1 9.4701974233470736 29.539758712187478 5.4391127928748491 #
vertex $-1 $419 $549 #
point $-1 15.262634153572066 29.539758712187478 5.4391127928748491 #
edge $-1 $512 38.15194505342803 $515 50.115723397634476 $424 $550 forward 7 unknown #
vertex $-1 $438 $551 #
straight-curve $-1 18.083637903301167 -49.986794428545323 12.095349611513718 0 -1 0 I I #
edge $-1 $515 3.1053634485561332 $435 26.851185460933934 $434 $552 forward 7 unknown #
vertex $-1 $514 $553 #
straight-curve $-1 18.083637903301167 -34.797081636958822 0.13157126730727953 0 0.83867056331134215 0.54463904215088732 I I #
point $-1 18.083637903301167 -16.374478873038871 12.095349611513718 #
point $-1 41.829459915678967 -34.797081636958829 0.13157126730727492 #
straight-curve $-1 0 -34.797081636958829 12.095349611513718 1 0 0 I I #
vertex $-1 $441 $554 #
point $-1 27.368158478266253 -21.526626213320693 -0.13708853566390267 #
vertex $-1 $445 $555 #
point $-1 37.544939340713881 -21.526626213320693 -0.13708853566390267 #
straight-curve $-1 -59.8345896786401 34.797081636958829 0 0 0 -1 I I #
point $-1 -59.8345896786401 -34.797081636958829 -12.095349611513718 #
straight-curve $-1 -59.8345896786401 0 -12.095349611513718 0 1 0 I I #
point $-1 -59.8345896786401 34.797081636958829 -12.095349611513718 #
coedge $-1 $467 $466 $477 $533 reversed $240 $-1 #
edge $-1 $472 -34.797081636958829 $534 34.797081636958829 $467 $556 forward 7 unknown #
straight-curve $-1 -69.051735551700887 34.797081636958829 10.595349611513718 0 0 -1 I I #
point $-1 -69.051735551700887 34.797081636958829 9.0953496115137185 #
point $-1 -69.051735551700887 34.797081636958829 12.095349611513718 #
edge $-1 $534 -1.5 $481 1.5 $528 $557 forward 7 unknown #
vertex $-1 $529 $558 #
straight-curve $-1 0 -34.797081636958829 12.095349611513718 1 0 0 I I #
straight-curve $-1 -69.051735551700887 0 9.0953496115137185 0 1 0 I I #
point $-1 -69.051735551700887 -34.797081636958829 9.0953496115137185 #
straight-curve $-1 -37.101758101720968 34.797081636958829 62.648584698768346 0 0 -1 I I #
point $-1 -37.101758101720968 34.797081636958829 12.095349611513718 #
straight-curve $-1 -21.929800476825069 34.797081636958829 0.682838222733956 -1 0 0 I I #
point $-1 -37.101758101720968 34.797081636958829 0.682838222733956 #
point $-1 -46.755819318762633 28.710721131558401 4.8799199013743531 #
point $-1 -40.963382588537634 28.710721131558401 4.8799199013743531 #
straight-curve $-1 18.124258640388732 34.797081636958829 62.648584698768346 0 0 -1 I I #
point $-1 18.124258640388732 34.797081636958829 12.095349611513718 #
straight-curve $-1 5.6832078942297812 34.797081636958829 0.682838222733956 -1 0 0 I I #
point $-1 18.124258640388732 34.797081636958829 0.682838222733956 #
point $-1 8.4701974233470736 28.710721131558401 4.8799199013743531 #
point $-1 14.262634153572066 28.710721131558401 4.8799199013743531 #
straight-curve $-1 18.083637903301167 -34.797081636958829 50.247294664941748 0 0 -1 I I #
point $-1 18.083637903301167 -34.797081636958829 12.095349611513718 #
straight-curve $-1 14.978274454745033 -34.797081636958829 0.13157126730727101 1 0 0 I I #
point $-1 18.083637903301167 -34.797081636958829 0.13157126730727492 #
point $-1 24.868158478266253 -20.165028607943473 -2.2337649439422584 #
point $-1 35.044939340713881 -20.165028607943473 -2.2337649439422584 #
straight-curve $-1 -69.051735551700887 0 12.095349611513718 0 -1 0 I I #
straight-curve $-1 -69.051735551700887 -34.797081636958829 10.595349611513718 0 0 -1 I I #
point $-1 -69.051735551700887 -34.797081636958829 12.095349611513718 #
End-of-ACIS-data 