500 0 11 0           
7 Unknown 11 ACIS 5.0 NT 24 Fri Mar 26 03:15:43 1999 
-1 9.9999999999999995e-007 1e-010 
body $-1 $11 $-1 $12 #
body $-1 $13 $-1 $14 #
body $-1 $15 $-1 $16 #
body $-1 $17 $-1 $18 #
body $-1 $19 $-1 $20 #
body $-1 $21 $-1 $22 #
body $-1 $23 $-1 $24 #
body $-1 $25 $-1 $26 #
body $-1 $27 $-1 $28 #
body $-1 $29 $-1 $30 #
body $-1 $31 $-1 $32 #
lump $-1 $-1 $33 $0 #
transform $-1 1 0 0 0 1 0 0 0 1 64.344004638813445 38.611311991076299 19.007648829714508 1 rotate no_reflect no_shear #
lump $-1 $-1 $34 $1 #
transform $-1 1 0 0 0 1 0 0 0 1 64.344004638813445 38.611311991076299 19.007648829714508 1 rotate no_reflect no_shear #
lump $-1 $-1 $35 $2 #
transform $-1 1 0 0 0 1 0 0 0 1 64.344004638813445 38.611311991076299 19.007648829714508 1 rotate no_reflect no_shear #
lump $-1 $-1 $36 $3 #
transform $-1 1 0 0 0 1 0 0 0 1 64.344004638813445 38.611311991076299 19.007648829714508 1 rotate no_reflect no_shear #
lump $-1 $-1 $37 $4 #
transform $-1 1 0 0 0 1 0 0 0 1 64.344004638813445 38.611311991076299 19.007648829714508 1 rotate no_reflect no_shear #
lump $-1 $-1 $38 $5 #
transform $-1 1 0 0 0 1 0 0 0 1 64.344004638813445 38.611311991076299 19.007648829714508 1 rotate no_reflect no_shear #
lump $-1 $-1 $39 $6 #
transform $-1 1 0 0 0 1 0 0 0 1 64.344004638813445 38.611311991076299 19.007648829714508 1 rotate no_reflect no_shear #
lump $-1 $-1 $40 $7 #
transform $-1 1 0 0 0 1 0 0 0 1 64.344004638813445 38.611311991076299 19.007648829714508 1 rotate no_reflect no_shear #
lump $-1 $-1 $41 $8 #
transform $-1 1 0 0 0 1 0 0 0 1 64.344004638813445 38.611311991076299 19.007648829714508 1 rotate no_reflect no_shear #
lump $-1 $-1 $42 $9 #
transform $-1 1 0 0 0 1 0 0 0 1 64.344004638813445 38.611311991076299 19.007648829714508 1 rotate no_reflect no_shear #
lump $-1 $-1 $43 $10 #
transform $-1 1 0 0 0 1 0 0 0 1 64.344004638813445 38.611311991076299 19.007648829714508 1 rotate no_reflect no_shear #
shell $-1 $-1 $-1 $44 $-1 $11 #
shell $-1 $-1 $-1 $45 $-1 $13 #
shell $-1 $-1 $-1 $46 $-1 $15 #
shell $-1 $-1 $-1 $47 $-1 $17 #
shell $-1 $-1 $-1 $48 $-1 $19 #
shell $-1 $-1 $-1 $49 $-1 $21 #
shell $-1 $-1 $-1 $50 $-1 $23 #
shell $-1 $-1 $-1 $51 $-1 $25 #
shell $-1 $-1 $-1 $52 $-1 $27 #
shell $-1 $-1 $-1 $53 $-1 $29 #
shell $-1 $-1 $-1 $54 $-1 $31 #
face $-1 $55 $56 $33 $-1 $57 forward single #
face $-1 $58 $59 $34 $-1 $60 forward single #
face $-1 $61 $62 $35 $-1 $63 reversed single #
face $-1 $64 $65 $36 $-1 $66 forward single #
face $-1 $67 $68 $37 $-1 $69 forward single #
face $-1 $70 $71 $38 $-1 $72 reversed single #
face $-1 $73 $74 $39 $-1 $75 forward single #
face $-1 $76 $77 $40 $-1 $78 forward single #
face $-1 $79 $80 $41 $-1 $81 reversed single #
face $-1 $82 $83 $42 $-1 $84 forward single #
face $-1 $85 $86 $43 $-1 $87 forward single #
face $-1 $88 $89 $33 $-1 $90 reversed single #
loop $-1 $-1 $91 $44 #
plane-surface $-1 0 0 19.007648829714508 0 0 1 1 0 0 forward_v I I I I #
face $-1 $92 $93 $34 $-1 $94 reversed single #
loop $-1 $-1 $95 $45 #
plane-surface $-1 -57.783955538926044 0 10.906726180256685 0 0 1 1 0 0 forward_v I I I I #
face $-1 $96 $97 $35 $-1 $98 reversed single #
loop $-1 $-1 $99 $46 #
plane-surface $-1 32.925488794439111 -144.02635891305127 84.308466347662929 1 0 0 0 0.81915205242281985 -0.57357642473473569 forward_v I I I I #
face $-1 $100 $101 $36 $-1 $102 forward single #
loop $-1 $103 $104 $47 #
cone-surface $-1 41.902207607117489 -33.203471343224969 13.051819109321242 0 0.81915205242281985 -0.57357642473473569 2.5 0 0 1 I I 0 1 2.5 forward I I I I #
face $-1 $105 $106 $37 $-1 $107 forward single #
loop $-1 $108 $109 $48 #
cone-surface $-1 55.36728582613506 -33.203471343224969 13.051819109321242 0 0.81915205242281985 -0.57357642473473569 2.5 0 0 1 I I 0 1 2.5 forward I I I I #
face $-1 $110 $111 $38 $-1 $112 reversed single #
loop $-1 $-1 $113 $49 #
plane-surface $-1 -19.623449059898189 97.331780871909274 148.01928856046871 1 0 0 0 -0.80901700255871778 -0.5877852410284794 forward_v I I I I #
face $-1 $114 $115 $39 $-1 $116 forward single #
loop $-1 $117 $118 $50 #
cone-surface $-1 -16.038394594420119 34.399352411124895 13.798391661067431 0 -0.80901700255871778 -0.5877852410284794 1 0 0 1 I I 0 1 1 forward I I I I #
face $-1 $119 $120 $40 $-1 $121 forward single #
loop $-1 $122 $123 $51 #
cone-surface $-1 -10.660812896203005 34.399352411124895 13.798391661067431 0 -0.80901700255871778 -0.5877852410284794 1 0 0 1 I I 0 1 1 forward I I I I #
face $-1 $124 $125 $41 $-1 $126 reversed single #
loop $-1 $-1 $127 $52 #
plane-surface $-1 20.195856630499751 97.331780871909274 148.01928856046871 1 0 0 0 -0.80901700255871778 -0.5877852410284794 forward_v I I I I #
face $-1 $128 $129 $42 $-1 $130 forward single #
loop $-1 $131 $132 $53 #
cone-surface $-1 23.780911095977814 34.399352411124895 13.798391661067431 0 -0.80901700255871778 -0.5877852410284794 1 0 0 1 I I 0 1 1 forward I I I I #
face $-1 $133 $134 $43 $-1 $135 forward single #
loop $-1 $136 $137 $54 #
cone-surface $-1 29.158492794194927 34.399352411124895 13.798391661067431 0 -0.80901700255871778 -0.5877852410284794 1 0 0 1 I I 0 1 1 forward I I I I #
face $-1 $138 $139 $33 $-1 $140 reversed single #
loop $-1 $-1 $141 $55 #
plane-surface $-1 0 0 -19.007648829714508 0 0 1 1 0 0 forward_v I I I I #
coedge $-1 $142 $143 $144 $145 forward $56 $-1 #
face $-1 $146 $147 $34 $-1 $148 reversed single #
loop $-1 $-1 $149 $58 #
plane-surface $-1 -57.783955538926044 0 6.411182587601834 0 0 1 1 0 0 forward_v I I I I #
coedge $-1 $150 $151 $152 $153 forward $59 $-1 #
face $-1 $154 $155 $35 $-1 $156 forward single #
loop $-1 $-1 $157 $61 #
plane-surface $-1 48.634746716626282 -38.61131199107632 10.496058079971206 0 -0.81915205242281985 0.57357642473473569 1 0 0 forward_v I I I I #
coedge $-1 $158 $159 $160 $161 reversed $62 $-1 #
face $-1 $-1 $162 $36 $-1 $163 forward single #
loop $-1 $164 $165 $64 #
cone-surface $-1 41.902207607117489 -29.751630542467744 10.634814232881212 0 0.81915205242281985 -0.57357642473473569 1.25 0 0 1 I I -0.70710678118654746 0.70710678118654746 1.25 forward I I I I #
loop $-1 $-1 $166 $47 #
coedge $-1 $104 $104 $167 $168 reversed $65 $-1 #
face $-1 $-1 $169 $37 $-1 $170 forward single #
loop $-1 $171 $172 $67 #
cone-surface $-1 55.36728582613506 -29.751630542467744 10.634814232881212 0 0.81915205242281985 -0.57357642473473569 1.25 0 0 1 I I -0.70710678118654746 0.70710678118654746 1.25 forward I I I I #
loop $-1 $-1 $173 $48 #
coedge $-1 $109 $109 $174 $175 reversed $68 $-1 #
face $-1 $176 $177 $38 $-1 $178 reversed single #
loop $-1 $-1 $179 $70 #
plane-surface $-1 -13.349603745311555 -6.779006659124903 72.37837600974359 0 0.80901700255871778 0.5877852410284794 1 0 0 forward_v I I I I #
coedge $-1 $180 $181 $182 $183 reversed $71 $-1 #
face $-1 $-1 $184 $39 $-1 $185 forward single #
loop $-1 $186 $187 $73 #
cone-surface $-1 -16.038394594420119 33.089992699228965 12.847086173771604 0 -0.80901700255871778 -0.5877852410284794 0.5 0 0 1 I I -0.70710678118654746 0.70710678118654746 0.5 forward I I I I #
loop $-1 $-1 $188 $50 #
coedge $-1 $118 $118 $189 $190 reversed $74 $-1 #
face $-1 $-1 $191 $40 $-1 $192 forward single #
loop $-1 $193 $194 $76 #
cone-surface $-1 -10.660812896203005 33.089992699228965 12.847086173771604 0 -0.80901700255871778 -0.5877852410284794 0.5 0 0 1 I I -0.70710678118654746 0.70710678118654746 0.5 forward I I I I #
loop $-1 $-1 $195 $51 #
coedge $-1 $123 $123 $196 $197 reversed $77 $-1 #
face $-1 $198 $199 $41 $-1 $200 reversed single #
loop $-1 $-1 $201 $79 #
plane-surface $-1 26.469701945086385 -6.779006659124903 72.37837600974359 0 0.80901700255871778 0.5877852410284794 1 0 0 forward_v I I I I #
coedge $-1 $202 $203 $204 $205 reversed $80 $-1 #
face $-1 $-1 $206 $42 $-1 $207 forward single #
loop $-1 $208 $209 $82 #
cone-surface $-1 23.780911095977814 33.089992699228965 12.847086173771604 0 -0.80901700255871778 -0.5877852410284794 0.5 0 0 1 I I -0.70710678118654746 0.70710678118654746 0.5 forward I I I I #
loop $-1 $-1 $210 $53 #
coedge $-1 $132 $132 $211 $212 reversed $83 $-1 #
face $-1 $-1 $213 $43 $-1 $214 forward single #
loop $-1 $215 $216 $85 #
cone-surface $-1 29.158492794194927 33.089992699228965 12.847086173771604 0 -0.80901700255871778 -0.5877852410284794 0.5 0 0 1 I I -0.70710678118654746 0.70710678118654746 0.5 forward I I I I #
loop $-1 $-1 $217 $54 #
coedge $-1 $137 $137 $218 $219 reversed $86 $-1 #
face $-1 $220 $221 $33 $-1 $222 reversed single #
loop $-1 $-1 $223 $88 #
plane-surface $-1 0 -38.611311991076299 0 0 1 0 0 0 1 forward_v I I I I #
coedge $-1 $224 $225 $226 $227 forward $89 $-1 #
coedge $-1 $228 $91 $229 $230 forward $56 $-1 #
coedge $-1 $91 $228 $231 $232 forward $56 $-1 #
coedge $-1 $233 $234 $91 $145 reversed $235 $-1 #
edge $-1 $236 -38.611311991076299 $237 38.611311991076299 $144 $238 forward 7 unknown #
face $-1 $239 $240 $34 $-1 $241 reversed single #
loop $-1 $-1 $242 $92 #
plane-surface $-1 -51.223906439038643 0 8.6589543839292595 -1 0 0 0 0 1 forward_v I I I I #
coedge $-1 $243 $244 $245 $246 forward $93 $-1 #
coedge $-1 $247 $95 $248 $249 reversed $59 $-1 #
coedge $-1 $95 $247 $250 $251 reversed $59 $-1 #
coedge $-1 $242 $252 $95 $153 reversed $147 $-1 #
edge $-1 $253 -38.611311991076299 $254 38.611311991076299 $152 $255 forward 7 unknown #
face $-1 $256 $257 $35 $-1 $258 reversed single #
loop $-1 $-1 $259 $96 #
plane-surface $-1 0 0 19.007648829714508 0 0 1 1 0 0 forward_v I I I I #
coedge $-1 $260 $261 $262 $263 reversed $97 $-1 #
coedge $-1 $159 $99 $264 $265 reversed $62 $-1 #
coedge $-1 $99 $158 $260 $266 reversed $62 $-1 #
coedge $-1 $262 $267 $99 $161 forward $257 $-1 #
edge $-1 $268 23.146584344116956 $269 31.65817509386023 $160 $270 forward 7 unknown #
loop $-1 $-1 $167 $100 #
plane-surface $-1 48.634746716626282 -38.61131199107632 10.496058079971206 0 -0.81915205242281985 0.57357642473473569 1 0 0 forward_v I I I I #
loop $-1 $-1 $271 $64 #
coedge $-1 $165 $165 $166 $272 reversed $101 $-1 #
coedge $-1 $166 $166 $165 $272 forward $103 $-1 #
coedge $-1 $167 $167 $104 $168 forward $162 $-1 #
edge $-1 $273 8.1630896165811584e-016 $273 6.2831853071796013 $167 $274 forward 7 unknown #
loop $-1 $-1 $174 $105 #
plane-surface $-1 48.634746716626282 -38.61131199107632 10.496058079971206 0 -0.81915205242281985 0.57357642473473569 1 0 0 forward_v I I I I #
loop $-1 $-1 $275 $67 #
coedge $-1 $172 $172 $173 $276 reversed $106 $-1 #
coedge $-1 $173 $173 $172 $276 forward $108 $-1 #
coedge $-1 $174 $174 $109 $175 forward $169 $-1 #
edge $-1 $277 8.1630896165811584e-016 $277 6.2831853071796013 $174 $278 forward 7 unknown #
face $-1 $279 $280 $38 $-1 $281 reversed single #
loop $-1 $-1 $282 $110 #
plane-surface $-1 -7.0757584307249211 97.331780871909274 148.01928856046871 -1 0 0 0 0.80901700255871778 0.5877852410284794 forward_v I I I I #
coedge $-1 $283 $284 $285 $286 reversed $111 $-1 #
coedge $-1 $181 $113 $287 $288 reversed $71 $-1 #
coedge $-1 $113 $180 $283 $289 reversed $71 $-1 #
coedge $-1 $285 $290 $113 $183 forward $291 $-1 #
edge $-1 $292 10.054578444878338 $293 16.668795183548006 $182 $294 forward 7 unknown #
loop $-1 $-1 $189 $114 #
plane-surface $-1 -13.349603745311555 -6.779006659124903 72.37837600974359 0 0.80901700255871778 0.5877852410284794 1 0 0 forward_v I I I I #
loop $-1 $-1 $295 $73 #
coedge $-1 $187 $187 $188 $296 reversed $115 $-1 #
coedge $-1 $188 $188 $187 $296 forward $117 $-1 #
coedge $-1 $189 $189 $118 $190 forward $184 $-1 #
edge $-1 $297 1.4371028856862683e-015 $297 6.2831853071796022 $189 $298 forward 7 unknown #
loop $-1 $-1 $196 $119 #
plane-surface $-1 -13.349603745311555 -6.779006659124903 72.37837600974359 0 0.80901700255871778 0.5877852410284794 1 0 0 forward_v I I I I #
loop $-1 $-1 $299 $76 #
coedge $-1 $194 $194 $195 $300 reversed $120 $-1 #
coedge $-1 $195 $195 $194 $300 forward $122 $-1 #
coedge $-1 $196 $196 $123 $197 forward $191 $-1 #
edge $-1 $301 1.4371028856862683e-015 $301 6.2831853071796022 $196 $302 forward 7 unknown #
face $-1 $303 $304 $41 $-1 $305 forward single #
loop $-1 $-1 $306 $124 #
plane-surface $-1 32.743547259673022 97.331780871909274 148.01928856046871 -1 0 0 0 0.80901700255871778 0.5877852410284794 forward_v I I I I #
coedge $-1 $307 $308 $309 $310 reversed $125 $-1 #
coedge $-1 $203 $127 $311 $312 reversed $80 $-1 #
coedge $-1 $127 $202 $307 $313 reversed $80 $-1 #
coedge $-1 $309 $314 $127 $205 forward $304 $-1 #
edge $-1 $315 10.054578444878338 $316 16.668795183548006 $204 $317 forward 7 unknown #
loop $-1 $-1 $211 $128 #
plane-surface $-1 26.469701945086385 -6.779006659124903 72.37837600974359 0 0.80901700255871778 0.5877852410284794 1 0 0 forward_v I I I I #
loop $-1 $-1 $318 $82 #
coedge $-1 $209 $209 $210 $319 reversed $129 $-1 #
coedge $-1 $210 $210 $209 $319 forward $131 $-1 #
coedge $-1 $211 $211 $132 $212 forward $206 $-1 #
edge $-1 $320 1.4371028856862683e-015 $320 6.2831853071796022 $211 $321 forward 7 unknown #
loop $-1 $-1 $218 $133 #
plane-surface $-1 26.469701945086385 -6.779006659124903 72.37837600974359 0 0.80901700255871778 0.5877852410284794 1 0 0 forward_v I I I I #
loop $-1 $-1 $322 $85 #
coedge $-1 $216 $216 $217 $323 reversed $134 $-1 #
coedge $-1 $217 $217 $216 $323 forward $136 $-1 #
coedge $-1 $218 $218 $137 $219 forward $213 $-1 #
edge $-1 $324 1.4371028856862683e-015 $324 6.2831853071796022 $218 $325 forward 7 unknown #
face $-1 $326 $327 $33 $-1 $328 reversed single #
loop $-1 $-1 $329 $138 #
plane-surface $-1 -64.344004638813445 0 0 1 0 0 0 0 -1 forward_v I I I I #
coedge $-1 $330 $231 $331 $332 forward $139 $-1 #
coedge $-1 $333 $141 $330 $334 forward $89 $-1 #
coedge $-1 $141 $333 $335 $336 forward $89 $-1 #
coedge $-1 $234 $233 $141 $227 reversed $235 $-1 #
edge $-1 $337 -38.611311991076299 $338 38.611311991076299 $226 $339 forward 7 unknown #
coedge $-1 $143 $142 $340 $341 forward $56 $-1 #
coedge $-1 $342 $343 $142 $230 reversed $327 $-1 #
edge $-1 $237 -64.344004638813445 $344 64.344004638813445 $229 $345 forward 7 unknown #
coedge $-1 $223 $346 $143 $232 reversed $139 $-1 #
edge $-1 $347 -64.344004638813445 $236 64.344004638813445 $231 $348 forward 7 unknown #
coedge $-1 $226 $144 $346 $349 forward $235 $-1 #
coedge $-1 $144 $226 $342 $350 reversed $235 $-1 #
loop $-1 $-1 $233 $326 #
vertex $-1 $145 $351 #
vertex $-1 $145 $352 #
straight-curve $-1 64.344004638813445 0 19.007648829714508 0 1 0 I I #
face $-1 $353 $354 $34 $-1 $355 reversed single #
loop $-1 $-1 $356 $146 #
plane-surface $-1 0 -38.611311991076299 0 0 1 0 0 0 1 forward_v I I I I #
coedge $-1 $245 $152 $357 $358 reversed $147 $-1 #
coedge $-1 $359 $149 $356 $360 reversed $93 $-1 #
coedge $-1 $149 $359 $361 $362 reversed $93 $-1 #
coedge $-1 $252 $242 $149 $246 reversed $147 $-1 #
edge $-1 $363 -38.611311991076299 $364 38.611311991076299 $245 $365 forward 7 unknown #
coedge $-1 $151 $150 $366 $367 reversed $59 $-1 #
coedge $-1 $368 $369 $150 $249 forward $370 $-1 #
edge $-1 $371 -35.452026869350419 $254 -22.331928669575621 $248 $372 forward 7 unknown #
coedge $-1 $373 $357 $151 $251 forward $240 $-1 #
edge $-1 $253 22.331928669575621 $374 35.452026869350419 $250 $375 forward 7 unknown #
coedge $-1 $152 $245 $368 $376 reversed $147 $-1 #
vertex $-1 $251 $377 #
vertex $-1 $249 $378 #
straight-curve $-1 -51.223906439038643 0 10.906726180256685 0 1 0 I I #
face $-1 $-1 $379 $35 $-1 $380 reversed single #
loop $-1 $-1 $160 $154 #
plane-surface $-1 0 -38.611311991076299 0 0 1 0 0 0 1 forward_v I I I I #
coedge $-1 $264 $381 $382 $383 forward $155 $-1 #
coedge $-1 $382 $157 $159 $266 forward $97 $-1 #
coedge $-1 $157 $382 $384 $385 reversed $97 $-1 #
coedge $-1 $386 $160 $157 $263 forward $257 $-1 #
edge $-1 $269 8.6081154361259706 $387 40.026631280500318 $262 $388 forward 7 unknown #
coedge $-1 $389 $259 $158 $265 forward $155 $-1 #
edge $-1 $390 -39.361747290694574 $268 -33.401867465449335 $264 $391 forward 7 unknown #
edge $-1 $269 3.6963324824065977e-014 $390 10.390733594048172 $159 $392 forward 7 unknown #
coedge $-1 $160 $386 $389 $393 reversed $257 $-1 #
vertex $-1 $393 $394 #
vertex $-1 $161 $395 #
straight-curve $-1 32.925488794439111 -38.611311991076299 42.154233173831464 0 0 -1 I I #
coedge $-1 $271 $271 $-1 $396 reversed $164 $-1 #
edge $-1 $397 0 $397 6.2831853071796004 $165 $398 forward 7 unknown #
vertex $-1 $168 $399 #
ellipse-curve $-1 41.902207607117489 -35.631372078453687 14.751853454842866 0 -0.81915205242281985 0.57357642473473569 2.5 0 0 1 I I #
coedge $-1 $275 $275 $-1 $400 reversed $171 $-1 #
edge $-1 $401 0 $401 6.2831853071796004 $172 $402 forward 7 unknown #
vertex $-1 $175 $403 #
ellipse-curve $-1 55.36728582613506 -35.631372078453687 14.751853454842866 0 -0.81915205242281985 0.57357642473473569 2.5 0 0 1 I I #
face $-1 $-1 $291 $38 $-1 $404 forward single #
loop $-1 $-1 $405 $176 #
plane-surface $-1 0 38.611311991076299 0 0 -1 0 0 0 -1 forward_v I I I I #
coedge $-1 $406 $407 $408 $409 reversed $177 $-1 #
coedge $-1 $410 $179 $181 $289 forward $111 $-1 #
coedge $-1 $179 $410 $406 $411 forward $111 $-1 #
coedge $-1 $408 $182 $179 $286 forward $291 $-1 #
edge $-1 $293 -12.948647187242411 $412 -0.40095655806914365 $285 $413 forward 7 unknown #
coedge $-1 $414 $415 $180 $288 forward $280 $-1 #
edge $-1 $416 -64.105684054250816 $292 -55.001995450519843 $287 $417 forward 7 unknown #
edge $-1 $293 65.969846135780656 $416 77.222623982152598 $181 $418 forward 7 unknown #
coedge $-1 $182 $408 $414 $419 forward $291 $-1 #
loop $-1 $-1 $408 $279 #
vertex $-1 $288 $420 #
vertex $-1 $183 $421 #
straight-curve $-1 -19.623449059898189 48.665890435954637 19.007648829714512 0 -1 0 I I #
coedge $-1 $295 $295 $-1 $422 reversed $186 $-1 #
edge $-1 $423 0 $423 6.2831853071796004 $187 $424 forward 7 unknown #
vertex $-1 $190 $425 #
ellipse-curve $-1 -16.038394594420119 35.304203621741465 14.455804527849018 0 0.80901700255871778 0.5877852410284794 1 0 0 1 I I #
coedge $-1 $299 $299 $-1 $426 reversed $193 $-1 #
edge $-1 $427 0 $427 6.2831853071796004 $194 $428 forward 7 unknown #
vertex $-1 $197 $429 #
ellipse-curve $-1 -10.660812896203005 35.304203621741465 14.455804527849018 0 0.80901700255871778 0.5877852410284794 1 0 0 1 I I #
face $-1 $-1 $430 $41 $-1 $431 reversed single #
loop $-1 $-1 $204 $198 #
plane-surface $-1 0 0 19.007648829714508 0 0 1 1 0 0 forward_v I I I I #
coedge $-1 $432 $433 $434 $435 reversed $199 $-1 #
coedge $-1 $436 $201 $203 $313 forward $125 $-1 #
coedge $-1 $201 $436 $432 $437 forward $125 $-1 #
coedge $-1 $434 $204 $201 $310 forward $304 $-1 #
edge $-1 $316 6.9610056579565587 $438 19.50869628712983 $309 $439 forward 7 unknown #
coedge $-1 $440 $441 $202 $312 forward $430 $-1 #
edge $-1 $442 -64.105684054250816 $315 -55.001995450519843 $311 $443 forward 7 unknown #
edge $-1 $316 65.969846135780656 $442 77.222623982152598 $203 $444 forward 7 unknown #
coedge $-1 $204 $434 $440 $445 forward $304 $-1 #
vertex $-1 $205 $446 #
vertex $-1 $205 $447 #
straight-curve $-1 20.195856630499751 48.665890435954637 19.007648829714512 0 -1 0 I I #
coedge $-1 $318 $318 $-1 $448 reversed $208 $-1 #
edge $-1 $449 0 $449 6.2831853071796004 $209 $450 forward 7 unknown #
vertex $-1 $212 $451 #
ellipse-curve $-1 23.780911095977814 35.304203621741465 14.455804527849018 0 0.80901700255871778 0.5877852410284794 1 0 0 1 I I #
coedge $-1 $322 $322 $-1 $452 reversed $215 $-1 #
edge $-1 $453 0 $453 6.2831853071796004 $216 $454 forward 7 unknown #
vertex $-1 $219 $455 #
ellipse-curve $-1 29.158492794194927 35.304203621741465 14.455804527849018 0 0.80901700255871778 0.5877852410284794 1 0 0 1 I I #
face $-1 $-1 $235 $33 $-1 $456 reversed single #
loop $-1 $-1 $342 $220 #
plane-surface $-1 0 38.611311991076299 0 0 -1 0 0 0 -1 forward_v I I I I #
coedge $-1 $457 $340 $343 $458 forward $221 $-1 #
coedge $-1 $346 $223 $224 $334 reversed $139 $-1 #
coedge $-1 $340 $457 $223 $332 reversed $221 $-1 #
edge $-1 $347 -19.007648829714508 $459 19.007648829714508 $331 $460 forward 7 unknown #
coedge $-1 $225 $224 $457 $461 forward $89 $-1 #
edge $-1 $338 -64.344004638813445 $459 64.344004638813445 $330 $462 forward 7 unknown #
coedge $-1 $343 $342 $225 $336 reversed $327 $-1 #
edge $-1 $463 -64.344004638813445 $337 64.344004638813445 $335 $464 forward 7 unknown #
vertex $-1 $227 $465 #
vertex $-1 $349 $466 #
straight-curve $-1 64.344004638813445 0 -19.007648829714508 0 -1 0 I I #
coedge $-1 $329 $331 $228 $341 reversed $221 $-1 #
edge $-1 $344 -38.611311991076299 $347 38.611311991076299 $340 $467 forward 7 unknown #
coedge $-1 $335 $229 $234 $350 forward $327 $-1 #
coedge $-1 $229 $335 $329 $458 reversed $327 $-1 #
vertex $-1 $230 $468 #
straight-curve $-1 0 38.611311991076299 19.007648829714508 -1 0 0 I I #
coedge $-1 $231 $330 $233 $349 reversed $139 $-1 #
vertex $-1 $341 $469 #
straight-curve $-1 0 -38.611311991076299 19.007648829714508 1 0 0 I I #
edge $-1 $236 -19.007648829714508 $338 19.007648829714508 $233 $470 forward 7 unknown #
edge $-1 $237 -19.007648829714508 $337 19.007648829714508 $234 $471 forward 7 unknown #
point $-1 64.344004638813445 -38.611311991076299 19.007648829714508 #
point $-1 64.344004638813445 38.611311991076299 19.007648829714508 #
face $-1 $-1 $370 $34 $-1 $472 reversed single #
loop $-1 $-1 $473 $239 #
plane-surface $-1 -64.344004638813445 0 0 1 0 0 0 0 -1 forward_v I I I I #
coedge $-1 $357 $373 $243 $360 forward $240 $-1 #
coedge $-1 $250 $356 $242 $358 forward $240 $-1 #
edge $-1 $364 2.0817053956372042 $253 6.5772489882920553 $357 $474 forward 7 unknown #
coedge $-1 $244 $243 $473 $475 reversed $93 $-1 #
edge $-1 $476 -35.452026869350419 $364 -22.331928669575621 $356 $477 forward 7 unknown #
coedge $-1 $369 $368 $244 $362 forward $370 $-1 #
edge $-1 $363 22.331928669575621 $478 35.452026869350419 $361 $479 forward 7 unknown #
vertex $-1 $362 $480 #
vertex $-1 $360 $481 #
straight-curve $-1 -51.223906439038643 0 6.411182587601834 0 -1 0 I I #
coedge $-1 $482 $483 $247 $367 forward $354 $-1 #
edge $-1 $374 -38.611311991076299 $371 38.611311991076299 $366 $484 forward 7 unknown #
coedge $-1 $361 $248 $252 $376 forward $370 $-1 #
coedge $-1 $248 $361 $482 $485 reversed $370 $-1 #
loop $-1 $-1 $361 $353 #
vertex $-1 $485 $486 #
straight-curve $-1 -28.891977769463022 38.611311991076299 10.906726180256685 1 0 0 I I #
coedge $-1 $356 $250 $483 $487 forward $240 $-1 #
vertex $-1 $487 $488 #
straight-curve $-1 -28.891977769463022 -38.611311991076299 10.906726180256685 -1 0 0 I I #
edge $-1 $254 -6.5772489882920553 $363 -2.0817053956372042 $368 $489 forward 7 unknown #
point $-1 -51.223906439038643 -38.611311991076299 10.906726180256685 #
point $-1 -51.223906439038643 38.611311991076299 10.906726180256685 #
loop $-1 $-1 $384 $256 #
plane-surface $-1 64.344004638813445 0 0 -1 0 0 0 0 1 forward_v I I I I #
coedge $-1 $259 $389 $490 $491 forward $155 $-1 #
coedge $-1 $261 $260 $259 $383 reversed $97 $-1 #
edge $-1 $492 -40.026631280500318 $390 -8.6081154361259706 $259 $493 forward 7 unknown #
coedge $-1 $490 $494 $261 $385 forward $379 $-1 #
edge $-1 $387 -6.7743353838006861 $492 3.6163982102474472 $384 $495 forward 7 unknown #
coedge $-1 $267 $262 $494 $496 reversed $257 $-1 #
vertex $-1 $263 $497 #
straight-curve $-1 24.317373358313141 -38.611311991076299 10.496058079971235 1 0 0 I I #
coedge $-1 $381 $264 $267 $393 forward $155 $-1 #
vertex $-1 $265 $498 #
straight-curve $-1 32.925488794439111 -72.013179456525634 19.007648829714512 0 -1 0 I I #
straight-curve $-1 32.925488794439111 -38.61131199107632 10.496058079971206 0 0.57357642473473569 0.81915205242281985 I I #
edge $-1 $268 32.925488794439111 $499 64.344004638813445 $267 $500 forward 7 unknown #
point $-1 32.925488794439111 -38.611311991076299 19.007648829714508 #
point $-1 32.925488794439111 -38.611311991076299 10.496058079971236 #
edge $-1 $501 1 $501 0 $271 $-1 forward 7 unknown #
vertex $-1 $272 $502 #
ellipse-curve $-1 41.902207607117489 -30.775570607996269 11.351784763799632 0 -0.81915205242281985 0.57357642473473569 2.5 0 0 1 I I #
point $-1 44.402207607117489 -35.631372078453666 14.751853454842854 #
edge $-1 $503 1 $503 0 $275 $-1 forward 7 unknown #
vertex $-1 $276 $504 #
ellipse-curve $-1 55.36728582613506 -30.775570607996269 11.351784763799632 0 -0.81915205242281985 0.57357642473473569 2.5 0 0 1 I I #
point $-1 57.86728582613506 -35.631372078453666 14.751853454842854 #
plane-surface $-1 0 0 19.007648829714508 0 0 1 1 0 0 forward_v I I I I #
coedge $-1 $415 $414 $407 $505 forward $280 $-1 #
coedge $-1 $407 $282 $284 $411 reversed $177 $-1 #
coedge $-1 $282 $406 $405 $505 reversed $177 $-1 #
coedge $-1 $290 $285 $282 $409 forward $291 $-1 #
edge $-1 $412 -16.668795183548006 $506 -10.054578444878338 $408 $507 forward 7 unknown #
coedge $-1 $284 $283 $415 $508 reversed $111 $-1 #
edge $-1 $509 -77.222623982152598 $412 -65.969846135780656 $406 $510 forward 7 unknown #
vertex $-1 $286 $511 #
straight-curve $-1 -6.6748018726557774 31.997095252406634 19.007648829714512 1 0 0 I I #
coedge $-1 $405 $287 $290 $419 reversed $280 $-1 #
coedge $-1 $287 $405 $410 $508 forward $280 $-1 #
vertex $-1 $288 $512 #
straight-curve $-1 -19.623449059898189 38.611311991076299 74.009644280234355 0 0 1 I I #
straight-curve $-1 -19.623449059898189 -6.779006659124903 72.37837600974359 0 0.5877852410284794 -0.80901700255871778 I I #
edge $-1 $506 7.0757584307249211 $292 19.623449059898189 $414 $513 forward 7 unknown #
point $-1 -19.623449059898189 38.611311991076299 19.007648829714508 #
point $-1 -19.623449059898189 31.997095252406631 19.007648829714512 #
edge $-1 $514 1 $514 0 $295 $-1 forward 7 unknown #
vertex $-1 $296 $515 #
ellipse-curve $-1 -16.038394594420119 33.494501200508324 13.140978794285845 0 0.80901700255871778 0.5877852410284794 1 0 0 1 I I #
point $-1 -15.038394594420119 35.304203621741465 14.455804527849017 #
edge $-1 $516 1 $516 0 $299 $-1 forward 7 unknown #
vertex $-1 $300 $517 #
ellipse-curve $-1 -10.660812896203005 33.494501200508324 13.140978794285845 0 0.80901700255871778 0.5877852410284794 1 0 0 1 I I #
point $-1 -9.6608128962030051 35.304203621741465 14.455804527849017 #
loop $-1 $-1 $311 $303 #
plane-surface $-1 0 38.611311991076299 0 0 -1 0 0 0 -1 forward_v I I I I #
coedge $-1 $433 $306 $308 $437 reversed $199 $-1 #
coedge $-1 $306 $432 $518 $519 reversed $199 $-1 #
coedge $-1 $314 $309 $306 $435 forward $304 $-1 #
edge $-1 $438 -16.668795183548006 $520 -10.054578444878338 $434 $521 forward 7 unknown #
coedge $-1 $308 $307 $441 $522 reversed $125 $-1 #
edge $-1 $523 -77.222623982152598 $438 -65.969846135780656 $432 $524 forward 7 unknown #
vertex $-1 $310 $525 #
straight-curve $-1 13.234850972543192 31.997095252406634 19.007648829714512 1 0 0 I I #
coedge $-1 $518 $311 $314 $445 reversed $430 $-1 #
coedge $-1 $311 $518 $436 $522 forward $430 $-1 #
vertex $-1 $312 $526 #
straight-curve $-1 20.195856630499751 38.611311991076299 74.009644280234355 0 0 1 I I #
straight-curve $-1 20.195856630499751 -6.779006659124903 72.37837600974359 0 0.5877852410284794 -0.80901700255871778 I I #
edge $-1 $520 -32.743547259673022 $315 -20.195856630499751 $440 $527 forward 7 unknown #
point $-1 20.195856630499751 38.611311991076299 19.007648829714508 #
point $-1 20.195856630499751 31.997095252406631 19.007648829714512 #
edge $-1 $528 1 $528 0 $318 $-1 forward 7 unknown #
vertex $-1 $319 $529 #
ellipse-curve $-1 23.780911095977814 33.494501200508324 13.140978794285845 0 0.80901700255871778 0.5877852410284794 1 0 0 1 I I #
point $-1 24.780911095977814 35.304203621741465 14.455804527849017 #
edge $-1 $530 1 $530 0 $322 $-1 forward 7 unknown #
vertex $-1 $323 $531 #
ellipse-curve $-1 29.158492794194927 33.494501200508324 13.140978794285845 0 0.80901700255871778 0.5877852410284794 1 0 0 1 I I #
point $-1 30.158492794194927 35.304203621741465 14.455804527849017 #
plane-surface $-1 64.344004638813445 0 0 -1 0 0 0 0 1 forward_v I I I I #
coedge $-1 $331 $329 $333 $461 reversed $221 $-1 #
edge $-1 $344 -19.007648829714508 $463 19.007648829714508 $343 $532 forward 7 unknown #
vertex $-1 $461 $533 #
straight-curve $-1 -64.344004638813445 -38.611311991076299 0 0 0 -1 I I #
edge $-1 $459 -38.611311991076299 $463 38.611311991076299 $457 $534 forward 7 unknown #
straight-curve $-1 0 -38.611311991076299 -19.007648829714508 -1 0 0 I I #
vertex $-1 $336 $535 #
straight-curve $-1 0 38.611311991076299 -19.007648829714508 1 0 0 I I #
point $-1 64.344004638813445 38.611311991076299 -19.007648829714508 #
point $-1 64.344004638813445 -38.611311991076299 -19.007648829714508 #
straight-curve $-1 -64.344004638813445 0 19.007648829714508 0 -1 0 I I #
point $-1 -64.344004638813445 38.611311991076299 19.007648829714508 #
point $-1 -64.344004638813445 -38.611311991076299 19.007648829714508 #
straight-curve $-1 64.344004638813445 -38.611311991076299 0 0 0 -1 I I #
straight-curve $-1 64.344004638813445 38.611311991076299 0 0 0 -1 I I #
plane-surface $-1 0 38.611311991076299 0 0 -1 0 0 0 -1 forward_v I I I I #
coedge $-1 $483 $482 $359 $475 forward $354 $-1 #
straight-curve $-1 -51.223906439038643 -38.611311991076299 4.3294771919646298 0 0 1 I I #
edge $-1 $478 -38.611311991076299 $476 38.611311991076299 $473 $536 forward 7 unknown #
vertex $-1 $360 $537 #
straight-curve $-1 -28.891977769463022 -38.611311991076299 6.411182587601834 1 0 0 I I #
vertex $-1 $362 $538 #
straight-curve $-1 -28.891977769463022 38.611311991076299 6.411182587601834 -1 0 0 I I #
point $-1 -51.223906439038643 38.611311991076299 6.411182587601834 #
point $-1 -51.223906439038643 -38.611311991076299 6.411182587601834 #
coedge $-1 $473 $366 $369 $485 forward $354 $-1 #
coedge $-1 $366 $473 $373 $487 reversed $354 $-1 #
straight-curve $-1 -64.344004638813445 0 10.906726180256685 0 1 0 I I #
edge $-1 $371 -10.906726180256685 $478 -6.411182587601834 $369 $539 forward 7 unknown #
point $-1 -64.344004638813445 38.611311991076299 10.906726180256685 #
edge $-1 $374 -10.906726180256685 $476 -6.411182587601834 $483 $540 forward 7 unknown #
point $-1 -64.344004638813445 -38.611311991076299 10.906726180256685 #
straight-curve $-1 -51.223906439038643 38.611311991076299 4.3294771919646298 0 0 -1 I I #
coedge $-1 $494 $384 $381 $491 reversed $379 $-1 #
edge $-1 $499 -38.611311991076299 $492 -32.651432165831061 $490 $541 forward 7 unknown #
vertex $-1 $385 $542 #
straight-curve $-1 24.317373358313141 -32.651432165831061 19.007648829714508 -1 0 0 I I #
coedge $-1 $384 $490 $386 $496 forward $379 $-1 #
straight-curve $-1 64.344004638813445 -34.72571292168189 16.0452688134121 0 0.57357642473473569 0.81915205242281985 I I #
edge $-1 $499 -19.007648829714508 $387 -10.496058079971236 $494 $543 forward 7 unknown #
point $-1 64.344004638813459 -38.611311991076299 10.496058079971236 #
point $-1 32.925488794439111 -32.651432165831061 19.007648829714508 #
vertex $-1 $491 $544 #
straight-curve $-1 0 -38.611311991076299 19.007648829714508 1 0 0 I I #
vertex $-1 $396 $545 #
point $-1 44.402207607117489 -30.775570607996269 11.351784763799632 #
vertex $-1 $400 $546 #
point $-1 57.86728582613506 -30.775570607996269 11.351784763799632 #
edge $-1 $506 55.001995450519843 $509 64.105684054250816 $405 $547 forward 7 unknown #
vertex $-1 $419 $548 #
straight-curve $-1 -7.0757584307249211 48.665890435954637 19.007648829714512 0 1 0 I I #
edge $-1 $509 0.40095655806914365 $416 12.948647187242411 $415 $549 forward 7 unknown #
vertex $-1 $508 $550 #
straight-curve $-1 -7.0757584307249211 -6.779006659124903 72.37837600974359 0 -0.5877852410284794 0.80901700255871778 I I #
point $-1 -7.0757584307249211 31.997095252406631 19.007648829714512 #
point $-1 -19.623449059898189 38.611311991076299 9.9039602259835391 #
straight-curve $-1 0 38.611311991076299 19.007648829714508 -1 0 0 I I #
vertex $-1 $422 $551 #
point $-1 -15.038394594420119 33.494501200508324 13.140978794285845 #
vertex $-1 $426 $552 #
point $-1 -9.6608128962030051 33.494501200508324 13.140978794285845 #
coedge $-1 $441 $440 $433 $519 forward $430 $-1 #
edge $-1 $520 55.001995450519843 $523 64.105684054250816 $518 $553 forward 7 unknown #
vertex $-1 $445 $554 #
straight-curve $-1 32.743547259673022 48.665890435954637 19.007648829714512 0 1 0 I I #
edge $-1 $523 -19.50869628712983 $442 -6.9610056579565587 $441 $555 forward 7 unknown #
vertex $-1 $522 $556 #
straight-curve $-1 32.743547259673022 -6.779006659124903 72.37837600974359 0 -0.5877852410284794 0.80901700255871778 I I #
point $-1 32.743547259673022 31.997095252406631 19.007648829714512 #
point $-1 20.195856630499751 38.611311991076299 9.9039602259835391 #
straight-curve $-1 0 38.611311991076299 19.007648829714508 -1 0 0 I I #
vertex $-1 $448 $557 #
point $-1 24.780911095977814 33.494501200508324 13.140978794285845 #
vertex $-1 $452 $558 #
point $-1 30.158492794194927 33.494501200508324 13.140978794285845 #
straight-curve $-1 -64.344004638813445 38.611311991076299 0 0 0 -1 I I #
point $-1 -64.344004638813445 -38.611311991076299 -19.007648829714508 #
straight-curve $-1 -64.344004638813445 0 -19.007648829714508 0 1 0 I I #
point $-1 -64.344004638813445 38.611311991076299 -19.007648829714508 #
straight-curve $-1 -64.344004638813445 0 6.411182587601834 0 -1 0 I I #
point $-1 -64.344004638813445 -38.611311991076299 6.411182587601834 #
point $-1 -64.344004638813445 38.611311991076299 6.411182587601834 #
straight-curve $-1 -64.344004638813445 38.611311991076299 0 0 0 -1 I I #
straight-curve $-1 -64.344004638813445 -38.611311991076299 0 0 0 -1 I I #
straight-curve $-1 64.344004638813445 0 19.007648829714508 0 1 0 I I #
point $-1 64.344004638813459 -32.651432165831061 19.007648829714508 #
straight-curve $-1 64.344004638813445 -38.611311991076299 0 0 0 -1 I I #
point $-1 64.344004638813445 -38.611311991076299 19.007648829714508 #
point $-1 41.902207607117489 -28.72769047693922 9.9178437019627914 #
point $-1 55.36728582613506 -28.72769047693922 9.9178437019627914 #
straight-curve $-1 -7.0757584307249211 38.611311991076299 74.009644280234355 0 0 -1 I I #
point $-1 -7.0757584307249211 38.611311991076299 19.007648829714508 #
straight-curve $-1 -6.6748018726557774 38.611311991076299 9.9039602259835391 -1 0 0 I I #
point $-1 -7.0757584307249211 38.611311991076299 9.9039602259835391 #
point $-1 -16.038394594420119 32.685484197949606 12.553193553257364 #
point $-1 -10.660812896203005 32.685484197949606 12.553193553257364 #
straight-curve $-1 32.743547259673022 38.611311991076299 74.009644280234355 0 0 -1 I I #
point $-1 32.743547259673022 38.611311991076299 19.007648829714508 #
straight-curve $-1 13.234850972543192 38.611311991076299 9.9039602259835391 -1 0 0 I I #
point $-1 32.743547259673022 38.611311991076299 9.9039602259835391 #
point $-1 23.780911095977814 32.685484197949606 12.553193553257364 #
point $-1 29.158492794194927 32.685484197949606 12.553193553257364 #
End-of-ACIS-data 