500 0 8 0           
7 Unknown 11 ACIS 5.0 NT 24 Fri Mar 26 15:05:37 1999 
-1 9.9999999999999995e-007 1e-010 
body $-1 $8 $-1 $9 #
body $-1 $10 $-1 $11 #
body $-1 $12 $-1 $13 #
body $-1 $14 $-1 $15 #
body $-1 $16 $-1 $17 #
body $-1 $18 $-1 $19 #
body $-1 $20 $-1 $21 #
body $-1 $22 $-1 $23 #
lump $-1 $-1 $24 $0 #
transform $-1 1 0 0 0 1 0 0 0 1 79.510483108005005 51.403853699147859 14.459030084362499 1 rotate no_reflect no_shear #
lump $-1 $-1 $25 $1 #
transform $-1 1 0 0 0 1 0 0 0 1 79.510483108005005 51.403853699147859 14.459030084362499 1 rotate no_reflect no_shear #
lump $-1 $-1 $26 $2 #
transform $-1 1 0 0 0 1 0 0 0 1 79.510483108005005 51.403853699147859 14.459030084362499 1 rotate no_reflect no_shear #
lump $-1 $-1 $27 $3 #
transform $-1 1 0 0 0 1 0 0 0 1 79.510483108005005 51.403853699147859 14.459030084362499 1 rotate no_reflect no_shear #
lump $-1 $-1 $28 $4 #
transform $-1 1 0 0 0 1 0 0 0 1 79.510483108005005 51.403853699147859 14.459030084362499 1 rotate no_reflect no_shear #
lump $-1 $-1 $29 $5 #
transform $-1 1 0 0 0 1 0 0 0 1 79.510483108005005 51.403853699147859 14.459030084362499 1 rotate no_reflect no_shear #
lump $-1 $-1 $30 $6 #
transform $-1 1 0 0 0 1 0 0 0 1 79.510483108005005 51.403853699147859 14.459030084362499 1 rotate no_reflect no_shear #
lump $-1 $-1 $31 $7 #
transform $-1 1 0 0 0 1 0 0 0 1 79.510483108005005 51.403853699147859 14.459030084362499 1 rotate no_reflect no_shear #
shell $-1 $-1 $-1 $32 $-1 $8 #
shell $-1 $-1 $-1 $33 $-1 $10 #
shell $-1 $-1 $-1 $34 $-1 $12 #
shell $-1 $-1 $-1 $35 $-1 $14 #
shell $-1 $-1 $-1 $36 $-1 $16 #
shell $-1 $-1 $-1 $37 $-1 $18 #
shell $-1 $-1 $-1 $38 $-1 $20 #
shell $-1 $-1 $-1 $39 $-1 $22 #
face $-1 $40 $41 $24 $-1 $42 forward single #
face $-1 $43 $44 $25 $-1 $45 forward single #
face $-1 $46 $47 $26 $-1 $48 forward single #
face $-1 $49 $50 $27 $-1 $51 reversed single #
face $-1 $52 $53 $28 $-1 $54 forward single #
face $-1 $55 $56 $29 $-1 $57 reversed single #
face $-1 $58 $59 $30 $-1 $60 forward single #
face $-1 $61 $62 $31 $-1 $63 forward single #
face $-1 $64 $65 $24 $-1 $66 reversed single #
loop $-1 $-1 $67 $32 #
plane-surface $-1 0 0 14.459030084362499 0 0 1 1 0 0 forward_v I I I I #
face $-1 $68 $69 $25 $-1 $70 reversed single #
loop $-1 $-1 $71 $33 #
plane-surface $-1 0 -42.140044422455659 3.5996632443839767 0 0 1 1 0 0 forward_v I I I I #
face $-1 $72 $73 $26 $-1 $74 reversed single #
loop $-1 $-1 $75 $34 #
plane-surface $-1 0 42.140044422455659 3.5996632443839767 0 0 1 1 0 0 forward_v I I I I #
face $-1 $76 $77 $27 $-1 $78 reversed single #
loop $-1 $-1 $79 $35 #
plane-surface $-1 32.753306515106303 6.5546412043683127 224.55646402511246 0 1 0 0.54463904215088732 0 0.83867056331134215 forward_v I I I I #
face $-1 $80 $81 $28 $-1 $82 forward single #
loop $-1 $83 $84 $36 #
cone-surface $-1 71.42451393181085 9.9074814090436831 8.7798677553634867 -0.54463904215088732 0 -0.83867056331134215 1.2580058449670133 0 -0.81695856322633098 1 I I 0 1 1.5 forward I I I I #
face $-1 $85 $86 $29 $-1 $87 reversed single #
loop $-1 $-1 $88 $37 #
plane-surface $-1 -217.2266808154493 32.876235145763459 87.465741341888815 0 -1 0 0.86602541151947299 0 -0.49999998660252726 forward_v I I I I #
face $-1 $89 $90 $30 $-1 $91 forward single #
loop $-1 $92 $93 $38 #
cone-surface $-1 -76.758708635386967 20.552574051205809 10.702369091155138 0.86602541151947299 0 -0.49999998660252726 0.49999998660252726 0 0.86602541151947299 1 I I 0 1 1 forward I I I I #
face $-1 $94 $95 $31 $-1 $96 forward single #
loop $-1 $97 $98 $39 #
cone-surface $-1 -76.758708635386967 27.946770707940402 10.702369091155138 0.86602541151947299 0 -0.49999998660252726 0.49999998660252726 0 0.86602541151947299 1 I I 0 1 1 forward I I I I #
face $-1 $99 $100 $24 $-1 $101 reversed single #
loop $-1 $-1 $102 $40 #
plane-surface $-1 0 0 -14.459030084362499 0 0 1 1 0 0 forward_v I I I I #
coedge $-1 $103 $104 $105 $106 forward $41 $-1 #
face $-1 $107 $108 $25 $-1 $109 reversed single #
loop $-1 $-1 $110 $43 #
plane-surface $-1 0 -42.140044422455659 -1.8885639589379659 0 0 1 1 0 0 forward_v I I I I #
coedge $-1 $111 $112 $113 $114 reversed $44 $-1 #
face $-1 $115 $116 $26 $-1 $117 reversed single #
loop $-1 $-1 $118 $46 #
plane-surface $-1 0 42.140044422455659 -1.8885639589379659 0 0 1 1 0 0 forward_v I I I I #
coedge $-1 $119 $120 $121 $122 reversed $47 $-1 #
face $-1 $123 $124 $27 $-1 $125 reversed single #
loop $-1 $-1 $126 $49 #
plane-surface $-1 -53.855720206689995 9.9074814090436831 91.190260710417448 0.54463904215088732 0 0.83867056331134215 0.83867056331134215 0 -0.54463904215088732 forward_v I I I I #
coedge $-1 $127 $128 $129 $130 reversed $50 $-1 #
face $-1 $-1 $131 $28 $-1 $132 forward single #
loop $-1 $133 $134 $52 #
cone-surface $-1 70.535301396105197 9.9074814090436831 7.4106005517516671 -0.54463904215088732 0 -0.83867056331134215 0.62900292248350664 0 -0.40847928161316549 1 I I -0.70710678118654757 0.70710678118654757 0.75 forward I I I I #
loop $-1 $-1 $135 $36 #
coedge $-1 $84 $84 $136 $137 reversed $53 $-1 #
face $-1 $138 $139 $29 $-1 $140 reversed single #
loop $-1 $-1 $141 $55 #
plane-surface $-1 -79.510483108005019 24.249672379573099 7.9552603643628714 -0.86602541151947299 0 0.49999998660252726 0.49999998660252726 0 0.86602541151947299 forward_v I I I I #
coedge $-1 $142 $143 $144 $145 reversed $56 $-1 #
face $-1 $-1 $146 $30 $-1 $147 forward single #
loop $-1 $148 $149 $58 #
cone-surface $-1 -75.451397989227928 20.552574051205809 9.9475929646463292 0.86602541151947299 0 -0.49999998660252726 0.24999999330126363 0 0.43301270575973649 1 I I -0.70710678118654746 0.70710678118654746 0.5 forward I I I I #
loop $-1 $-1 $150 $38 #
coedge $-1 $93 $93 $151 $152 reversed $59 $-1 #
face $-1 $-1 $153 $31 $-1 $154 forward single #
loop $-1 $155 $156 $61 #
cone-surface $-1 -75.451397989227928 27.946770707940402 9.9475929646463292 0.86602541151947299 0 -0.49999998660252726 0.24999999330126363 0 0.43301270575973649 1 I I -0.70710678118654746 0.70710678118654746 0.5 forward I I I I #
loop $-1 $-1 $157 $39 #
coedge $-1 $98 $98 $158 $159 reversed $62 $-1 #
face $-1 $160 $161 $24 $-1 $162 reversed single #
loop $-1 $-1 $163 $64 #
plane-surface $-1 0 -51.403853699147859 0 0 1 0 0 0 1 forward_v I I I I #
coedge $-1 $164 $165 $166 $167 forward $65 $-1 #
coedge $-1 $168 $67 $169 $170 forward $41 $-1 #
coedge $-1 $67 $168 $171 $172 forward $41 $-1 #
coedge $-1 $173 $174 $67 $106 reversed $175 $-1 #
edge $-1 $176 -51.403853699147859 $177 51.403853699147859 $105 $178 forward 7 unknown #
face $-1 $179 $180 $25 $-1 $181 reversed single #
loop $-1 $-1 $182 $68 #
plane-surface $-1 0 -32.876235145763459 0.85554964272300538 0 -1 0 0 0 -1 forward_v I I I I #
coedge $-1 $183 $184 $185 $186 reversed $69 $-1 #
coedge $-1 $187 $71 $188 $189 forward $44 $-1 #
coedge $-1 $71 $187 $190 $191 reversed $44 $-1 #
coedge $-1 $192 $193 $71 $114 forward $194 $-1 #
edge $-1 $195 11.80621293453563 $196 30.33383148792003 $113 $197 forward 7 unknown #
face $-1 $198 $199 $26 $-1 $200 reversed single #
loop $-1 $-1 $201 $72 #
plane-surface $-1 0 32.876235145763459 0.85554964272300538 0 1 0 0 0 1 forward_v I I I I #
coedge $-1 $202 $203 $204 $205 reversed $73 $-1 #
coedge $-1 $206 $75 $207 $208 reversed $47 $-1 #
coedge $-1 $75 $206 $209 $210 forward $47 $-1 #
coedge $-1 $211 $212 $75 $122 forward $199 $-1 #
edge $-1 $213 -30.33383148792003 $214 -11.80621293453563 $121 $215 forward 7 unknown #
face $-1 $216 $217 $27 $-1 $218 forward single #
loop $-1 $-1 $219 $76 #
plane-surface $-1 32.753306515106303 13.260321613719054 224.55646402511246 0 -1 0 -0.54463904215088732 0 -0.83867056331134215 forward_v I I I I #
coedge $-1 $220 $221 $222 $223 reversed $77 $-1 #
coedge $-1 $128 $79 $224 $225 reversed $50 $-1 #
coedge $-1 $79 $127 $220 $226 reversed $50 $-1 #
coedge $-1 $222 $227 $79 $130 forward $228 $-1 #
edge $-1 $229 97.819201928193735 $230 107.69699802393505 $129 $231 forward 7 unknown #
loop $-1 $-1 $136 $80 #
plane-surface $-1 -53.855720206689995 9.9074814090436831 91.190260710417448 0.54463904215088732 0 0.83867056331134215 0.83867056331134215 0 -0.54463904215088732 forward_v I I I I #
loop $-1 $-1 $232 $52 #
coedge $-1 $134 $134 $135 $233 reversed $81 $-1 #
coedge $-1 $135 $135 $134 $233 forward $83 $-1 #
coedge $-1 $136 $136 $84 $137 forward $131 $-1 #
edge $-1 $234 0 $234 6.2831853071796004 $136 $235 forward 7 unknown #
face $-1 $236 $237 $29 $-1 $238 reversed single #
loop $-1 $-1 $239 $85 #
plane-surface $-1 -217.2266808154493 15.623109613382738 87.465741341888815 0 1 0 -0.86602541151947299 0 0.49999998660252726 forward_v I I I I #
coedge $-1 $240 $241 $242 $243 reversed $86 $-1 #
coedge $-1 $143 $88 $244 $245 reversed $56 $-1 #
coedge $-1 $88 $142 $240 $246 reversed $56 $-1 #
coedge $-1 $242 $247 $88 $145 forward $237 $-1 #
edge $-1 $248 29.273840586581908 $249 35.777610306581508 $144 $250 forward 7 unknown #
loop $-1 $-1 $151 $89 #
plane-surface $-1 -79.510483108005019 24.249672379573099 7.9552603643628714 -0.86602541151947299 0 0.49999998660252726 0.49999998660252726 0 0.86602541151947299 forward_v I I I I #
loop $-1 $-1 $251 $58 #
coedge $-1 $149 $149 $150 $252 reversed $90 $-1 #
coedge $-1 $150 $150 $149 $252 forward $92 $-1 #
coedge $-1 $151 $151 $93 $152 forward $146 $-1 #
edge $-1 $253 0 $253 6.2831853071796004 $151 $254 forward 7 unknown #
loop $-1 $-1 $158 $94 #
plane-surface $-1 -79.510483108005019 24.249672379573099 7.9552603643628714 -0.86602541151947299 0 0.49999998660252726 0.49999998660252726 0 0.86602541151947299 forward_v I I I I #
loop $-1 $-1 $255 $61 #
coedge $-1 $156 $156 $157 $256 reversed $95 $-1 #
coedge $-1 $157 $157 $156 $256 forward $97 $-1 #
coedge $-1 $158 $158 $98 $159 forward $153 $-1 #
edge $-1 $257 0 $257 6.2831853071796004 $158 $258 forward 7 unknown #
face $-1 $259 $260 $24 $-1 $261 reversed single #
loop $-1 $-1 $262 $99 #
plane-surface $-1 -79.510483108005005 0 0 1 0 0 0 0 -1 forward_v I I I I #
coedge $-1 $263 $171 $264 $265 forward $100 $-1 #
coedge $-1 $266 $102 $263 $267 forward $65 $-1 #
coedge $-1 $102 $266 $268 $269 forward $65 $-1 #
coedge $-1 $174 $173 $102 $167 reversed $175 $-1 #
edge $-1 $270 -51.403853699147859 $271 51.403853699147859 $166 $272 forward 7 unknown #
coedge $-1 $104 $103 $273 $274 forward $41 $-1 #
coedge $-1 $275 $276 $103 $170 reversed $260 $-1 #
edge $-1 $177 -79.510483108005005 $277 79.510483108005005 $169 $278 forward 7 unknown #
coedge $-1 $163 $279 $104 $172 reversed $100 $-1 #
edge $-1 $280 -79.510483108005005 $176 79.510483108005005 $171 $281 forward 7 unknown #
coedge $-1 $166 $105 $279 $282 forward $175 $-1 #
coedge $-1 $105 $166 $275 $283 reversed $175 $-1 #
loop $-1 $-1 $173 $259 #
vertex $-1 $106 $284 #
vertex $-1 $106 $285 #
straight-curve $-1 79.510483108005005 0 14.459030084362499 0 1 0 I I #
face $-1 $286 $287 $25 $-1 $288 reversed single #
loop $-1 $-1 $289 $107 #
plane-surface $-1 -79.510483108005005 0 0 1 0 0 0 0 -1 forward_v I I I I #
coedge $-1 $290 $188 $193 $291 reversed $108 $-1 #
coedge $-1 $292 $110 $293 $294 reversed $69 $-1 #
coedge $-1 $110 $292 $290 $295 forward $69 $-1 #
coedge $-1 $193 $192 $110 $186 forward $194 $-1 #
edge $-1 $296 -30.33383148792003 $297 -11.80621293453563 $185 $298 forward 7 unknown #
coedge $-1 $112 $111 $289 $299 reversed $44 $-1 #
coedge $-1 $182 $300 $111 $189 reversed $108 $-1 #
edge $-1 $195 -79.510483108005005 $301 79.510483108005005 $188 $302 forward 7 unknown #
coedge $-1 $303 $304 $112 $191 forward $287 $-1 #
edge $-1 $196 -79.510483108005005 $305 79.510483108005005 $190 $306 forward 7 unknown #
coedge $-1 $185 $113 $304 $307 forward $194 $-1 #
coedge $-1 $113 $185 $182 $291 forward $194 $-1 #
loop $-1 $-1 $113 $286 #
vertex $-1 $114 $308 #
vertex $-1 $307 $309 #
straight-curve $-1 79.510483108005005 -21.07002221122783 3.5996632443839767 0 -1 0 I I #
face $-1 $310 $311 $26 $-1 $312 reversed single #
loop $-1 $-1 $121 $115 #
plane-surface $-1 79.510483108005005 0 0 -1 0 0 0 0 1 forward_v I I I I #
coedge $-1 $313 $209 $314 $315 reversed $116 $-1 #
coedge $-1 $316 $118 $313 $317 forward $73 $-1 #
coedge $-1 $118 $316 $318 $319 reversed $73 $-1 #
coedge $-1 $212 $211 $118 $205 forward $199 $-1 #
edge $-1 $320 11.80621293453563 $321 30.33383148792003 $204 $322 forward 7 unknown #
coedge $-1 $120 $119 $323 $324 reversed $47 $-1 #
coedge $-1 $325 $326 $119 $208 forward $327 $-1 #
edge $-1 $328 -79.510483108005005 $213 79.510483108005005 $207 $329 forward 7 unknown #
coedge $-1 $201 $330 $120 $210 reversed $116 $-1 #
edge $-1 $331 -79.510483108005005 $214 79.510483108005005 $209 $332 forward 7 unknown #
coedge $-1 $204 $121 $330 $333 forward $199 $-1 #
coedge $-1 $121 $204 $325 $334 reversed $199 $-1 #
vertex $-1 $334 $335 #
vertex $-1 $122 $336 #
straight-curve $-1 79.510483108005005 21.07002221122783 3.5996632443839767 0 -1 0 I I #
face $-1 $-1 $228 $27 $-1 $337 reversed single #
loop $-1 $-1 $338 $123 #
plane-surface $-1 0 0 14.459030084362499 0 0 1 1 0 0 forward_v I I I I #
coedge $-1 $339 $340 $341 $342 reversed $124 $-1 #
coedge $-1 $343 $126 $128 $226 forward $77 $-1 #
coedge $-1 $126 $343 $339 $344 forward $77 $-1 #
coedge $-1 $341 $129 $126 $223 forward $228 $-1 #
edge $-1 $230 1.6009004998464711 $345 8.306580909197212 $222 $346 forward 7 unknown #
coedge $-1 $347 $348 $127 $225 forward $217 $-1 #
edge $-1 $349 47.923358006248485 $229 63.133829850451853 $224 $350 forward 7 unknown #
edge $-1 $230 -159.02096621600995 $349 -140.88455782205429 $128 $351 forward 7 unknown #
coedge $-1 $129 $341 $347 $352 reversed $228 $-1 #
loop $-1 $-1 $341 $216 #
vertex $-1 $352 $353 #
vertex $-1 $130 $354 #
straight-curve $-1 79.510483108005005 6.5546412043683127 112.27823201255623 0 0 -1 I I #
coedge $-1 $232 $232 $-1 $355 reversed $133 $-1 #
edge $-1 $356 0 $356 6.2831853071796004 $134 $357 forward 7 unknown #
vertex $-1 $137 $358 #
ellipse-curve $-1 71.905247185903349 9.9074814090436831 9.5201320364918214 0.54463904215088732 0 0.83867056331134215 1.2580058449670133 0 -0.81695856322633098 1 I I #
face $-1 $-1 $359 $29 $-1 $360 forward single #
loop $-1 $-1 $144 $138 #
plane-surface $-1 -79.510483108005005 0 0 1 0 0 0 0 -1 forward_v I I I I #
coedge $-1 $361 $362 $363 $364 reversed $139 $-1 #
coedge $-1 $365 $141 $143 $246 forward $86 $-1 #
coedge $-1 $141 $365 $361 $366 forward $86 $-1 #
coedge $-1 $363 $144 $141 $243 forward $237 $-1 #
edge $-1 $249 -20.75139895597691 $367 -3.4982734235961885 $242 $368 forward 7 unknown #
coedge $-1 $369 $370 $142 $245 forward $359 $-1 #
edge $-1 $371 -32.857810364157061 $248 -29.102857299719645 $244 $372 forward 7 unknown #
edge $-1 $249 2.8642609447069912e-014 $371 7.5099063301023996 $143 $373 forward 7 unknown #
coedge $-1 $144 $363 $369 $374 reversed $237 $-1 #
vertex $-1 $374 $375 #
vertex $-1 $145 $376 #
straight-curve $-1 -79.510483108005005 32.876235145763459 43.732870670944408 0 0 -1 I I #
coedge $-1 $251 $251 $-1 $377 reversed $148 $-1 #
edge $-1 $378 0 $378 6.2831853071796004 $149 $379 forward 7 unknown #
vertex $-1 $152 $380 #
ellipse-curve $-1 -77.633006575786297 20.552574051205809 11.207145224362694 -0.86602541151947299 0 0.49999998660252726 0.49999998660252726 0 0.86602541151947299 1 I I #
coedge $-1 $255 $255 $-1 $381 reversed $155 $-1 #
edge $-1 $382 0 $382 6.2831853071796004 $156 $383 forward 7 unknown #
vertex $-1 $159 $384 #
ellipse-curve $-1 -77.633006575786297 27.946770707940402 11.207145224362694 -0.86602541151947299 0 0.49999998660252726 0.49999998660252726 0 0.86602541151947299 1 I I #
face $-1 $-1 $175 $24 $-1 $385 reversed single #
loop $-1 $-1 $275 $160 #
plane-surface $-1 0 51.403853699147859 0 0 -1 0 0 0 -1 forward_v I I I I #
coedge $-1 $386 $273 $276 $387 forward $161 $-1 #
coedge $-1 $279 $163 $164 $267 reversed $100 $-1 #
coedge $-1 $273 $386 $163 $265 reversed $161 $-1 #
edge $-1 $280 -14.459030084362499 $388 14.459030084362499 $264 $389 forward 7 unknown #
coedge $-1 $165 $164 $386 $390 forward $65 $-1 #
edge $-1 $271 -79.510483108005005 $388 79.510483108005005 $263 $391 forward 7 unknown #
coedge $-1 $276 $275 $165 $269 reversed $260 $-1 #
edge $-1 $392 -79.510483108005005 $270 79.510483108005005 $268 $393 forward 7 unknown #
vertex $-1 $167 $394 #
vertex $-1 $282 $395 #
straight-curve $-1 79.510483108005005 0 -14.459030084362499 0 -1 0 I I #
coedge $-1 $262 $264 $168 $274 reversed $161 $-1 #
edge $-1 $277 -51.403853699147859 $280 51.403853699147859 $273 $396 forward 7 unknown #
coedge $-1 $268 $169 $174 $283 forward $260 $-1 #
coedge $-1 $169 $268 $262 $387 reversed $260 $-1 #
vertex $-1 $170 $397 #
straight-curve $-1 0 51.403853699147859 14.459030084362499 -1 0 0 I I #
coedge $-1 $171 $263 $173 $282 reversed $100 $-1 #
vertex $-1 $274 $398 #
straight-curve $-1 0 -51.403853699147859 14.459030084362499 1 0 0 I I #
edge $-1 $176 -14.459030084362499 $271 14.459030084362499 $173 $399 forward 7 unknown #
edge $-1 $177 -14.459030084362499 $270 14.459030084362499 $174 $400 forward 7 unknown #
point $-1 79.510483108005005 -51.403853699147859 14.459030084362499 #
point $-1 79.510483108005005 51.403853699147859 14.459030084362499 #
face $-1 $-1 $194 $25 $-1 $401 reversed single #
loop $-1 $-1 $190 $179 #
plane-surface $-1 0 -51.403853699147859 0 0 1 0 0 0 1 forward_v I I I I #
coedge $-1 $402 $403 $187 $299 forward $180 $-1 #
coedge $-1 $300 $182 $184 $295 reversed $108 $-1 #
edge $-1 $297 -2.3163387802994686 $195 3.171888423022474 $193 $404 forward 7 unknown #
coedge $-1 $184 $183 $405 $406 reversed $69 $-1 #
coedge $-1 $304 $303 $183 $294 forward $287 $-1 #
edge $-1 $407 -79.510483108005005 $296 79.510483108005005 $293 $408 forward 7 unknown #
edge $-1 $409 -79.510483108005005 $297 79.510483108005005 $290 $410 forward 7 unknown #
vertex $-1 $294 $411 #
vertex $-1 $186 $412 #
straight-curve $-1 79.510483108005005 -21.07002221122783 -1.8885639589379659 0 1 0 I I #
edge $-1 $305 -30.33383148792003 $301 -11.80621293453563 $289 $413 forward 7 unknown #
coedge $-1 $188 $290 $402 $414 reversed $108 $-1 #
vertex $-1 $299 $415 #
straight-curve $-1 0 -32.876235145763459 3.5996632443839767 -1 0 0 I I #
coedge $-1 $293 $190 $403 $416 forward $287 $-1 #
coedge $-1 $190 $293 $192 $307 reversed $287 $-1 #
vertex $-1 $416 $417 #
straight-curve $-1 0 -51.403853699147859 3.5996632443839767 -1 0 0 I I #
edge $-1 $196 -3.5996632443839767 $296 1.8885639589379659 $192 $418 forward 7 unknown #
point $-1 79.510483108005005 -32.876235145763459 3.5996632443839767 #
point $-1 79.510483108005005 -51.403853699147859 3.5996632443839767 #
face $-1 $-1 $327 $26 $-1 $419 reversed single #
loop $-1 $-1 $323 $198 #
plane-surface $-1 -79.510483108005005 0 0 1 0 0 0 0 -1 forward_v I I I I #
coedge $-1 $330 $201 $202 $317 reversed $116 $-1 #
coedge $-1 $323 $420 $201 $315 forward $311 $-1 #
edge $-1 $421 -2.3163387802994686 $331 3.171888423022474 $314 $422 forward 7 unknown #
coedge $-1 $203 $202 $420 $423 reversed $73 $-1 #
edge $-1 $320 -79.510483108005005 $421 79.510483108005005 $313 $424 forward 7 unknown #
coedge $-1 $326 $325 $203 $319 forward $327 $-1 #
edge $-1 $321 -79.510483108005005 $425 79.510483108005005 $318 $426 forward 7 unknown #
vertex $-1 $205 $427 #
vertex $-1 $319 $428 #
straight-curve $-1 79.510483108005005 21.07002221122783 -1.8885639589379659 0 1 0 I I #
coedge $-1 $429 $314 $206 $324 forward $311 $-1 #
edge $-1 $331 11.80621293453563 $328 30.33383148792003 $323 $430 forward 7 unknown #
coedge $-1 $318 $207 $212 $334 forward $327 $-1 #
coedge $-1 $207 $318 $429 $431 reversed $327 $-1 #
loop $-1 $-1 $207 $310 #
vertex $-1 $431 $432 #
straight-curve $-1 0 51.403853699147859 3.5996632443839767 1 0 0 I I #
coedge $-1 $209 $313 $211 $333 reversed $116 $-1 #
vertex $-1 $324 $433 #
straight-curve $-1 0 32.876235145763459 3.5996632443839767 1 0 0 I I #
edge $-1 $214 -3.171888423022474 $320 2.3163387802994686 $211 $434 forward 7 unknown #
edge $-1 $213 -3.5996632443839767 $321 1.8885639589379659 $212 $435 forward 7 unknown #
point $-1 79.510483108005005 51.403853699147859 3.5996632443839767 #
point $-1 79.510483108005005 32.876235145763459 3.5996632443839767 #
plane-surface $-1 79.510483108005005 0 0 -1 0 0 0 0 1 forward_v I I I I #
coedge $-1 $348 $347 $340 $436 forward $217 $-1 #
coedge $-1 $340 $219 $221 $344 reversed $124 $-1 #
coedge $-1 $219 $339 $338 $436 reversed $124 $-1 #
coedge $-1 $227 $222 $219 $342 forward $228 $-1 #
edge $-1 $345 -107.69699802393505 $437 -97.819201928193735 $341 $438 forward 7 unknown #
coedge $-1 $221 $220 $348 $439 reversed $77 $-1 #
edge $-1 $440 140.88455782205429 $345 159.02096621600995 $339 $441 forward 7 unknown #
vertex $-1 $223 $442 #
straight-curve $-1 79.510483108005019 4.9537407045218416 4.5812339886211717 0 1 0 I I #
coedge $-1 $338 $224 $227 $352 forward $217 $-1 #
coedge $-1 $224 $338 $343 $439 forward $217 $-1 #
vertex $-1 $225 $443 #
straight-curve $-1 16.376653257553151 6.5546412043683127 14.459030084362496 1 0 0 I I #
straight-curve $-1 -53.855720206689995 6.5546412043683127 91.190260710417448 -0.83867056331134215 0 0.54463904215088732 I I #
edge $-1 $229 6.5546412043683127 $437 13.260321613719054 $227 $444 forward 7 unknown #
point $-1 79.510483108005005 6.5546412043683127 14.459030084362499 #
point $-1 79.510483108004991 6.5546412043683127 4.5812339886211788 #
edge $-1 $445 1 $445 0 $232 $-1 forward 7 unknown #
vertex $-1 $233 $446 #
ellipse-curve $-1 70.943780677718365 9.9074814090436831 8.0396034742351734 0.54463904215088732 0 0.83867056331134215 1.2580058449670133 0 -0.81695856322633098 1 I I #
point $-1 73.163253030870351 9.9074814090436831 8.7031734732654709 #
loop $-1 $-1 $244 $236 #
plane-surface $-1 0 0 14.459030084362499 0 0 1 1 0 0 forward_v I I I I #
coedge $-1 $362 $239 $241 $366 reversed $139 $-1 #
coedge $-1 $239 $361 $447 $448 reversed $139 $-1 #
coedge $-1 $247 $242 $239 $364 forward $237 $-1 #
edge $-1 $367 -35.777610306581508 $449 -29.273840586581908 $363 $450 forward 7 unknown #
coedge $-1 $241 $240 $370 $451 reversed $86 $-1 #
edge $-1 $452 -7.5099063301023996 $367 -2.8642609447069912e-014 $361 $453 forward 7 unknown #
vertex $-1 $243 $454 #
straight-curve $-1 -79.510483108005005 12.124836189786549 7.955260364362907 0 -1 0 I I #
coedge $-1 $447 $244 $247 $374 forward $359 $-1 #
coedge $-1 $244 $447 $365 $451 forward $359 $-1 #
vertex $-1 $245 $455 #
straight-curve $-1 -108.61334040772465 32.876235145763459 14.459030084362496 -1 0 0 I I #
straight-curve $-1 -79.510483108005019 32.876235145763459 7.9552603643628714 0.49999998660252726 0 0.86602541151947299 I I #
edge $-1 $248 -32.876235145763459 $449 -15.623109613382738 $247 $456 forward 7 unknown #
point $-1 -79.510483108005005 32.876235145763459 14.459030084362499 #
point $-1 -79.510483108005005 32.876235145763459 7.9552603643628963 #
edge $-1 $457 1 $457 0 $251 $-1 forward 7 unknown #
vertex $-1 $252 $458 #
ellipse-curve $-1 -75.884410694987665 20.552574051205809 10.197592957947593 -0.86602541151947299 0 0.49999998660252726 0.49999998660252726 0 0.86602541151947299 1 I I #
point $-1 -77.133006589183751 20.552574051205809 12.073170635882153 #
edge $-1 $459 1 $459 0 $255 $-1 forward 7 unknown #
vertex $-1 $256 $460 #
ellipse-curve $-1 -75.884410694987665 27.946770707940402 10.197592957947593 -0.86602541151947299 0 0.49999998660252726 0.49999998660252726 0 0.86602541151947299 1 I I #
point $-1 -77.133006589183751 27.946770707940402 12.073170635882153 #
plane-surface $-1 79.510483108005005 0 0 -1 0 0 0 0 1 forward_v I I I I #
coedge $-1 $264 $262 $266 $390 reversed $161 $-1 #
edge $-1 $277 -14.459030084362499 $392 14.459030084362499 $276 $461 forward 7 unknown #
vertex $-1 $390 $462 #
straight-curve $-1 -79.510483108005005 -51.403853699147859 0 0 0 -1 I I #
edge $-1 $388 -51.403853699147859 $392 51.403853699147859 $386 $463 forward 7 unknown #
straight-curve $-1 0 -51.403853699147859 -14.459030084362499 -1 0 0 I I #
vertex $-1 $269 $464 #
straight-curve $-1 0 51.403853699147859 -14.459030084362499 1 0 0 I I #
point $-1 79.510483108005005 51.403853699147859 -14.459030084362499 #
point $-1 79.510483108005005 -51.403853699147859 -14.459030084362499 #
straight-curve $-1 -79.510483108005005 0 14.459030084362499 0 -1 0 I I #
point $-1 -79.510483108005005 51.403853699147859 14.459030084362499 #
point $-1 -79.510483108005005 -51.403853699147859 14.459030084362499 #
straight-curve $-1 79.510483108005005 -51.403853699147859 0 0 0 -1 I I #
straight-curve $-1 79.510483108005005 51.403853699147859 0 0 0 -1 I I #
plane-surface $-1 79.510483108005005 0 0 -1 0 0 0 0 1 forward_v I I I I #
coedge $-1 $405 $289 $300 $414 forward $180 $-1 #
coedge $-1 $289 $405 $303 $416 reversed $180 $-1 #
straight-curve $-1 79.510483108005005 -32.876235145763459 0.42777482136150269 0 0 1 I I #
coedge $-1 $403 $402 $292 $406 forward $180 $-1 #
edge $-1 $409 11.80621293453563 $407 30.33383148792003 $405 $465 forward 7 unknown #
vertex $-1 $294 $466 #
straight-curve $-1 0 -51.403853699147859 -1.8885639589379659 1 0 0 I I #
vertex $-1 $406 $467 #
straight-curve $-1 0 -32.876235145763459 -1.8885639589379659 1 0 0 I I #
point $-1 79.510483108005005 -51.403853699147859 -1.8885639589379659 #
point $-1 79.510483108005005 -32.876235145763459 -1.8885639589379659 #
straight-curve $-1 -79.510483108005005 -21.07002221122783 3.5996632443839767 0 1 0 I I #
edge $-1 $301 -3.171888423022474 $409 2.3163387802994686 $402 $468 forward 7 unknown #
point $-1 -79.510483108005005 -32.876235145763459 3.5996632443839767 #
edge $-1 $305 -3.5996632443839767 $407 1.8885639589379659 $403 $469 forward 7 unknown #
point $-1 -79.510483108005005 -51.403853699147859 3.5996632443839767 #
straight-curve $-1 79.510483108005005 -51.403853699147859 0 0 0 -1 I I #
plane-surface $-1 0 51.403853699147859 0 0 -1 0 0 0 -1 forward_v I I I I #
coedge $-1 $314 $429 $316 $423 forward $311 $-1 #
vertex $-1 $423 $470 #
straight-curve $-1 -79.510483108005005 32.876235145763459 0.42777482136150269 0 0 1 I I #
edge $-1 $425 -30.33383148792003 $421 -11.80621293453563 $420 $471 forward 7 unknown #
straight-curve $-1 0 32.876235145763459 -1.8885639589379659 -1 0 0 I I #
vertex $-1 $319 $472 #
straight-curve $-1 0 51.403853699147859 -1.8885639589379659 -1 0 0 I I #
point $-1 79.510483108005005 32.876235145763459 -1.8885639589379659 #
point $-1 79.510483108005005 51.403853699147859 -1.8885639589379659 #
coedge $-1 $420 $323 $326 $431 forward $311 $-1 #
straight-curve $-1 -79.510483108005005 21.07002221122783 3.5996632443839767 0 1 0 I I #
edge $-1 $328 -3.5996632443839767 $425 1.8885639589379659 $326 $473 forward 7 unknown #
point $-1 -79.510483108005005 51.403853699147859 3.5996632443839767 #
point $-1 -79.510483108005005 32.876235145763459 3.5996632443839767 #
straight-curve $-1 79.510483108005005 32.876235145763459 0.42777482136150269 0 0 -1 I I #
straight-curve $-1 79.510483108005005 51.403853699147859 0 0 0 -1 I I #
edge $-1 $437 -63.133829850451853 $440 -47.923358006248485 $338 $474 forward 7 unknown #
vertex $-1 $436 $475 #
straight-curve $-1 79.510483108005005 13.260321613719054 112.27823201255623 0 0 1 I I #
edge $-1 $440 -8.306580909197212 $349 -1.6009004998464711 $348 $476 forward 7 unknown #
vertex $-1 $439 $477 #
straight-curve $-1 -53.855720206689995 13.260321613719054 91.190260710417448 0.83867056331134215 0 -0.54463904215088732 I I #
point $-1 79.510483108004991 13.260321613719054 4.5812339886211788 #
point $-1 64.300011263801636 6.5546412043683127 14.459030084362496 #
straight-curve $-1 79.510483108005005 0 14.459030084362499 0 1 0 I I #
vertex $-1 $355 $478 #
point $-1 72.201786522685381 9.9074814090436831 7.2226449110088424 #
coedge $-1 $370 $369 $362 $448 forward $359 $-1 #
edge $-1 $449 29.102857299719645 $452 32.857810364157061 $447 $479 forward 7 unknown #
vertex $-1 $448 $480 #
straight-curve $-1 -79.510483108005005 15.623109613382738 43.732870670944408 0 0 1 I I #
edge $-1 $452 3.4982734235961885 $371 20.75139895597691 $370 $481 forward 7 unknown #
vertex $-1 $451 $482 #
straight-curve $-1 -79.510483108005019 15.623109613382738 7.9552603643628714 -0.49999998660252726 0 -0.86602541151947299 I I #
point $-1 -79.510483108005005 15.623109613382738 7.9552603643628963 #
point $-1 -75.755530043567589 32.876235145763459 14.459030084362499 #
straight-curve $-1 -79.510483108005005 0 14.459030084362499 0 -1 0 I I #
vertex $-1 $377 $483 #
point $-1 -75.384410708385133 20.552574051205809 11.063618369467065 #
vertex $-1 $381 $484 #
point $-1 -75.384410708385133 27.946770707940402 11.063618369467065 #
straight-curve $-1 -79.510483108005005 51.403853699147859 0 0 0 -1 I I #
point $-1 -79.510483108005005 -51.403853699147859 -14.459030084362499 #
straight-curve $-1 -79.510483108005005 0 -14.459030084362499 0 1 0 I I #
point $-1 -79.510483108005005 51.403853699147859 -14.459030084362499 #
straight-curve $-1 -79.510483108005005 -21.07002221122783 -1.8885639589379659 0 -1 0 I I #
point $-1 -79.510483108005005 -51.403853699147859 -1.8885639589379659 #
point $-1 -79.510483108005005 -32.876235145763459 -1.8885639589379659 #
straight-curve $-1 -79.510483108005005 -32.876235145763459 0.42777482136150269 0 0 -1 I I #
straight-curve $-1 -79.510483108005005 -51.403853699147859 0 0 0 -1 I I #
point $-1 -79.510483108005005 32.876235145763459 -1.8885639589379659 #
straight-curve $-1 -79.510483108005005 21.07002221122783 -1.8885639589379659 0 -1 0 I I #
point $-1 -79.510483108005005 51.403853699147859 -1.8885639589379659 #
straight-curve $-1 -79.510483108005005 51.403853699147859 0 0 0 -1 I I #
straight-curve $-1 16.376653257553151 13.260321613719054 14.459030084362496 -1 0 0 I I #
point $-1 79.510483108005005 13.260321613719054 14.459030084362499 #
straight-curve $-1 64.300011263801665 4.9537407045218416 14.459030084362489 0 -1 0 I I #
point $-1 64.300011263801636 13.260321613719054 14.459030084362496 #
point $-1 70.126822114492029 9.9074814090436831 6.7815976292681608 #
straight-curve $-1 -108.61334040772465 15.623109613382738 14.459030084362496 1 0 0 I I #
point $-1 -79.510483108005005 15.623109613382738 14.459030084362499 #
straight-curve $-1 -75.755530043567589 12.124836189786549 14.459030084362499 0 1 0 I I #
point $-1 -75.755530043567589 15.623109613382738 14.459030084362499 #
point $-1 -75.018385283468191 20.552574051205809 9.697592971345065 #
point $-1 -75.018385283468191 27.946770707940402 9.697592971345065 #
End-of-ACIS-data 