500 0 9 0           
7 Unknown 11 ACIS 5.0 NT 24 Fri Mar 26 15:53:12 1999 
-1 9.9999999999999995e-007 1e-010 
body $-1 $9 $-1 $10 #
body $-1 $11 $-1 $12 #
body $-1 $13 $-1 $14 #
body $-1 $15 $-1 $16 #
body $-1 $17 $-1 $18 #
body $-1 $19 $-1 $20 #
body $-1 $21 $-1 $22 #
body $-1 $23 $-1 $24 #
body $-1 $25 $-1 $26 #
lump $-1 $-1 $27 $0 #
transform $-1 1 0 0 0 1 0 0 0 1 56.292001098666347 29.657966556808265 12.47070110842324 1 rotate no_reflect no_shear #
lump $-1 $-1 $28 $1 #
transform $-1 1 0 0 0 1 0 0 0 1 56.292001098666347 29.657966556808265 12.47070110842324 1 rotate no_reflect no_shear #
lump $-1 $-1 $29 $2 #
transform $-1 1 0 0 0 1 0 0 0 1 56.292001098666347 29.657966556808265 12.47070110842324 1 rotate no_reflect no_shear #
lump $-1 $-1 $30 $3 #
transform $-1 1 0 0 0 1 0 0 0 1 56.292001098666347 29.657966556808265 12.47070110842324 1 rotate no_reflect no_shear #
lump $-1 $-1 $31 $4 #
transform $-1 1 0 0 0 1 0 0 0 1 56.292001098666347 29.657966556808265 12.47070110842324 1 rotate no_reflect no_shear #
lump $-1 $-1 $32 $5 #
transform $-1 1 0 0 0 1 0 0 0 1 56.292001098666347 29.657966556808265 12.47070110842324 1 rotate no_reflect no_shear #
lump $-1 $-1 $33 $6 #
transform $-1 1 0 0 0 1 0 0 0 1 56.292001098666347 29.657966556808265 12.47070110842324 1 rotate no_reflect no_shear #
lump $-1 $-1 $34 $7 #
transform $-1 1 0 0 0 1 0 0 0 1 56.292001098666347 29.657966556808265 12.47070110842324 1 rotate no_reflect no_shear #
lump $-1 $-1 $35 $8 #
transform $-1 1 0 0 0 1 0 0 0 1 56.292001098666347 29.657966556808265 12.47070110842324 1 rotate no_reflect no_shear #
shell $-1 $-1 $-1 $36 $-1 $9 #
shell $-1 $-1 $-1 $37 $-1 $11 #
shell $-1 $-1 $-1 $38 $-1 $13 #
shell $-1 $-1 $-1 $39 $-1 $15 #
shell $-1 $-1 $-1 $40 $-1 $17 #
shell $-1 $-1 $-1 $41 $-1 $19 #
shell $-1 $-1 $-1 $42 $-1 $21 #
shell $-1 $-1 $-1 $43 $-1 $23 #
shell $-1 $-1 $-1 $44 $-1 $25 #
face $-1 $45 $46 $27 $-1 $47 forward single #
face $-1 $48 $49 $28 $-1 $50 forward single #
face $-1 $51 $52 $29 $-1 $53 forward single #
face $-1 $54 $55 $30 $-1 $56 reversed single #
face $-1 $57 $58 $31 $-1 $59 forward single #
face $-1 $60 $61 $32 $-1 $62 forward single #
face $-1 $63 $64 $33 $-1 $65 reversed single #
face $-1 $66 $67 $34 $-1 $68 forward single #
face $-1 $69 $70 $35 $-1 $71 forward single #
face $-1 $72 $73 $27 $-1 $74 reversed single #
loop $-1 $-1 $75 $36 #
plane-surface $-1 0 0 12.47070110842324 0 0 1 1 0 0 forward_v I I I I #
face $-1 $76 $77 $28 $-1 $78 reversed single #
loop $-1 $-1 $79 $37 #
plane-surface $-1 0 -29.657966556808265 0 0 1 0 0 0 1 forward_v I I I I #
face $-1 $80 $81 $29 $-1 $82 reversed single #
loop $-1 $-1 $83 $38 #
plane-surface $-1 0 29.657966556808265 0 0 -1 0 0 0 -1 forward_v I I I I #
face $-1 $84 $85 $30 $-1 $86 reversed single #
loop $-1 $-1 $87 $39 #
plane-surface $-1 20.475785266377599 -6.1315794826620245 159.89020662809313 0 -1 0 -0.52991927123019833 0 -0.84804809178421925 forward_v I I I I #
face $-1 $88 $89 $31 $-1 $90 forward single #
loop $-1 $91 $92 $40 #
cone-surface $-1 49.851690615289478 -10.637973305689805 8.1878895096321216 -0.52991927123019833 0 -0.84804809178421925 0.21201202294605481 0 -0.13247981780754958 1 I I 0 1 0.25 forward I I I I #
face $-1 $93 $94 $32 $-1 $95 forward single #
loop $-1 $96 $97 $41 #
cone-surface $-1 49.851690615289478 -7.9341370118731369 8.1878895096321216 -0.52991927123019833 0 -0.84804809178421925 0.21201202294605481 0 -0.13247981780754958 1 I I 0 1 0.25 forward I I I I #
face $-1 $98 $99 $33 $-1 $100 reversed single #
loop $-1 $-1 $101 $42 #
plane-surface $-1 20.475785266377599 12.440530834900906 159.89020662809313 0 -1 0 -0.52991927123019833 0 -0.84804809178421925 forward_v I I I I #
face $-1 $102 $103 $34 $-1 $104 forward single #
loop $-1 $105 $106 $43 #
cone-surface $-1 49.851690615289478 7.9341370118731298 8.1878895096321216 -0.52991927123019833 0 -0.84804809178421925 0.21201202294605481 0 -0.13247981780754958 1 I I 0 1 0.25 forward I I I I #
face $-1 $107 $108 $35 $-1 $109 forward single #
loop $-1 $110 $111 $44 #
cone-surface $-1 49.851690615289478 10.637973305689794 8.1878895096321216 -0.52991927123019833 0 -0.84804809178421925 0.21201202294605481 0 -0.13247981780754958 1 I I 0 1 0.25 forward I I I I #
face $-1 $112 $113 $27 $-1 $114 reversed single #
loop $-1 $-1 $115 $45 #
plane-surface $-1 0 0 -12.47070110842324 0 0 1 1 0 0 forward_v I I I I #
coedge $-1 $116 $117 $118 $119 forward $46 $-1 #
face $-1 $120 $121 $28 $-1 $122 reversed single #
loop $-1 $-1 $123 $48 #
plane-surface $-1 0 0 -12.47070110842324 0 0 1 1 0 0 forward_v I I I I #
coedge $-1 $124 $125 $126 $127 forward $49 $-1 #
face $-1 $128 $129 $29 $-1 $130 forward single #
loop $-1 $-1 $131 $51 #
plane-surface $-1 -56.292001098666347 0 0 1 0 0 0 0 -1 forward_v I I I I #
coedge $-1 $132 $133 $134 $135 forward $52 $-1 #
face $-1 $136 $137 $30 $-1 $138 reversed single #
loop $-1 $-1 $139 $54 #
plane-surface $-1 -39.184647130211992 -9.286055158781469 64.413558399214793 0.52991927123019833 0 0.84804809178421925 0.84804809178421925 0 -0.52991927123019833 forward_v I I I I #
coedge $-1 $140 $141 $142 $143 reversed $55 $-1 #
face $-1 $-1 $144 $31 $-1 $145 forward single #
loop $-1 $146 $147 $57 #
cone-surface $-1 49.520491070770603 -10.637973305689805 7.6578594522669849 -0.52991927123019833 0 -0.84804809178421925 0.10600601147302741 0 -0.066239908903774791 1 I I -0.70710678118654746 0.70710678118654746 0.125 forward I I I I #
loop $-1 $-1 $148 $40 #
coedge $-1 $92 $92 $149 $150 reversed $58 $-1 #
face $-1 $-1 $151 $32 $-1 $152 forward single #
loop $-1 $153 $154 $60 #
cone-surface $-1 49.520491070770603 -7.9341370118731369 7.6578594522669849 -0.52991927123019833 0 -0.84804809178421925 0.10600601147302741 0 -0.066239908903774791 1 I I -0.70710678118654746 0.70710678118654746 0.125 forward I I I I #
loop $-1 $-1 $155 $41 #
coedge $-1 $97 $97 $156 $157 reversed $61 $-1 #
face $-1 $158 $159 $33 $-1 $160 reversed single #
loop $-1 $-1 $161 $63 #
plane-surface $-1 -39.184647130211992 9.2860551587814619 64.413558399214793 0.52991927123019833 0 0.84804809178421925 0.84804809178421925 0 -0.52991927123019833 forward_v I I I I #
coedge $-1 $162 $163 $164 $165 reversed $64 $-1 #
face $-1 $-1 $166 $34 $-1 $167 forward single #
loop $-1 $168 $169 $66 #
cone-surface $-1 49.520491070770603 7.9341370118731298 7.6578594522669849 -0.52991927123019833 0 -0.84804809178421925 0.10600601147302741 0 -0.066239908903774791 1 I I -0.70710678118654746 0.70710678118654746 0.125 forward I I I I #
loop $-1 $-1 $170 $43 #
coedge $-1 $106 $106 $171 $172 reversed $67 $-1 #
face $-1 $-1 $173 $35 $-1 $174 forward single #
loop $-1 $175 $176 $69 #
cone-surface $-1 49.520491070770603 10.637973305689794 7.6578594522669849 -0.52991927123019833 0 -0.84804809178421925 0.10600601147302741 0 -0.066239908903774791 1 I I -0.70710678118654746 0.70710678118654746 0.125 forward I I I I #
loop $-1 $-1 $177 $44 #
coedge $-1 $111 $111 $178 $179 reversed $70 $-1 #
face $-1 $180 $181 $27 $-1 $182 reversed single #
loop $-1 $-1 $183 $72 #
plane-surface $-1 0 -29.657966556808265 0 0 1 0 0 0 1 forward_v I I I I #
coedge $-1 $184 $185 $186 $187 forward $73 $-1 #
coedge $-1 $188 $75 $189 $190 forward $46 $-1 #
coedge $-1 $75 $188 $191 $192 forward $46 $-1 #
coedge $-1 $193 $194 $75 $119 reversed $195 $-1 #
edge $-1 $196 -29.657966556808265 $197 29.657966556808265 $118 $198 forward 7 unknown #
face $-1 $199 $200 $28 $-1 $201 forward single #
loop $-1 $-1 $202 $76 #
plane-surface $-1 56.292001098666347 0 0 -1 0 0 0 0 1 forward_v I I I I #
coedge $-1 $203 $204 $205 $206 forward $77 $-1 #
coedge $-1 $205 $79 $202 $207 reversed $49 $-1 #
coedge $-1 $79 $205 $208 $209 reversed $49 $-1 #
coedge $-1 $210 $211 $79 $127 reversed $200 $-1 #
edge $-1 $212 -56.292001098666347 $213 56.292001098666347 $126 $214 forward 7 unknown #
face $-1 $215 $216 $29 $-1 $217 reversed single #
loop $-1 $-1 $218 $80 #
plane-surface $-1 0 36.657307876273009 -8.8580911941382876 0 0 1 1 0 0 forward_v I I I I #
coedge $-1 $219 $220 $132 $221 forward $81 $-1 #
coedge $-1 $222 $83 $131 $221 reversed $52 $-1 #
coedge $-1 $83 $222 $223 $224 reversed $52 $-1 #
coedge $-1 $218 $225 $83 $135 reversed $129 $-1 #
edge $-1 $226 -56.292001098666347 $227 56.292001098666347 $134 $228 forward 7 unknown #
face $-1 $229 $230 $30 $-1 $231 forward single #
loop $-1 $-1 $232 $84 #
plane-surface $-1 20.475785266377599 -12.440530834900914 159.89020662809313 0 1 0 0.52991927123019833 0 0.84804809178421925 forward_v I I I I #
coedge $-1 $233 $234 $235 $236 reversed $85 $-1 #
coedge $-1 $141 $87 $237 $238 reversed $55 $-1 #
coedge $-1 $87 $140 $233 $239 reversed $55 $-1 #
coedge $-1 $235 $240 $87 $143 forward $230 $-1 #
edge $-1 $241 -46.054108465477547 $242 -33.703406769953986 $142 $243 forward 7 unknown #
loop $-1 $-1 $149 $88 #
plane-surface $-1 -39.184647130211992 -9.286055158781469 64.413558399214793 0.52991927123019833 0 0.84804809178421925 0.84804809178421925 0 -0.52991927123019833 forward_v I I I I #
loop $-1 $-1 $244 $57 #
coedge $-1 $147 $147 $148 $245 reversed $89 $-1 #
coedge $-1 $148 $148 $147 $245 forward $91 $-1 #
coedge $-1 $149 $149 $92 $150 forward $144 $-1 #
edge $-1 $246 0 $246 6.2831853071796004 $149 $247 forward 7 unknown #
loop $-1 $-1 $156 $93 #
plane-surface $-1 -39.184647130211992 -9.286055158781469 64.413558399214793 0.52991927123019833 0 0.84804809178421925 0.84804809178421925 0 -0.52991927123019833 forward_v I I I I #
loop $-1 $-1 $248 $60 #
coedge $-1 $154 $154 $155 $249 reversed $94 $-1 #
coedge $-1 $155 $155 $154 $249 forward $96 $-1 #
coedge $-1 $156 $156 $97 $157 forward $151 $-1 #
edge $-1 $250 0 $250 6.2831853071796004 $156 $251 forward 7 unknown #
face $-1 $252 $253 $33 $-1 $254 reversed single #
loop $-1 $-1 $255 $98 #
plane-surface $-1 20.475785266377599 6.1315794826620174 159.89020662809313 0 1 0 0.52991927123019833 0 0.84804809178421925 forward_v I I I I #
coedge $-1 $256 $257 $258 $259 reversed $99 $-1 #
coedge $-1 $163 $101 $260 $261 reversed $64 $-1 #
coedge $-1 $101 $162 $256 $262 reversed $64 $-1 #
coedge $-1 $258 $263 $101 $165 forward $264 $-1 #
edge $-1 $265 -46.054108465477547 $266 -33.703406769953986 $164 $267 forward 7 unknown #
loop $-1 $-1 $171 $102 #
plane-surface $-1 -39.184647130211992 9.2860551587814619 64.413558399214793 0.52991927123019833 0 0.84804809178421925 0.84804809178421925 0 -0.52991927123019833 forward_v I I I I #
loop $-1 $-1 $268 $66 #
coedge $-1 $169 $169 $170 $269 reversed $103 $-1 #
coedge $-1 $170 $170 $169 $269 forward $105 $-1 #
coedge $-1 $171 $171 $106 $172 forward $166 $-1 #
edge $-1 $270 0 $270 6.2831853071796004 $171 $271 forward 7 unknown #
loop $-1 $-1 $178 $107 #
plane-surface $-1 -39.184647130211992 9.2860551587814619 64.413558399214793 0.52991927123019833 0 0.84804809178421925 0.84804809178421925 0 -0.52991927123019833 forward_v I I I I #
loop $-1 $-1 $272 $69 #
coedge $-1 $176 $176 $177 $273 reversed $108 $-1 #
coedge $-1 $177 $177 $176 $273 forward $110 $-1 #
coedge $-1 $178 $178 $111 $179 forward $173 $-1 #
edge $-1 $274 0 $274 6.2831853071796004 $178 $275 forward 7 unknown #
face $-1 $276 $277 $27 $-1 $278 reversed single #
loop $-1 $-1 $279 $112 #
plane-surface $-1 -56.292001098666347 0 0 1 0 0 0 0 -1 forward_v I I I I #
coedge $-1 $280 $191 $281 $282 forward $113 $-1 #
coedge $-1 $283 $115 $280 $284 forward $73 $-1 #
coedge $-1 $115 $283 $285 $286 forward $73 $-1 #
coedge $-1 $194 $193 $115 $187 reversed $195 $-1 #
edge $-1 $287 -29.657966556808265 $288 29.657966556808265 $186 $289 forward 7 unknown #
coedge $-1 $117 $116 $290 $291 forward $46 $-1 #
coedge $-1 $292 $293 $116 $190 reversed $277 $-1 #
edge $-1 $197 -56.292001098666347 $294 56.292001098666347 $189 $295 forward 7 unknown #
coedge $-1 $183 $296 $117 $192 reversed $113 $-1 #
edge $-1 $297 -56.292001098666347 $196 56.292001098666347 $191 $298 forward 7 unknown #
coedge $-1 $186 $118 $296 $299 forward $195 $-1 #
coedge $-1 $118 $186 $292 $300 reversed $195 $-1 #
loop $-1 $-1 $193 $276 #
vertex $-1 $119 $301 #
vertex $-1 $119 $302 #
straight-curve $-1 56.292001098666347 0 12.47070110842324 0 1 0 I I #
face $-1 $303 $304 $28 $-1 $305 reversed single #
loop $-1 $-1 $211 $120 #
plane-surface $-1 0 -36.657307876273002 -8.8580911941382876 0 0 1 1 0 0 forward_v I I I I #
coedge $-1 $306 $307 $124 $207 forward $121 $-1 #
coedge $-1 $308 $123 $307 $309 forward $77 $-1 #
coedge $-1 $123 $308 $310 $311 forward $77 $-1 #
coedge $-1 $125 $124 $123 $206 reversed $49 $-1 #
edge $-1 $312 -56.292001098666347 $313 56.292001098666347 $123 $314 forward 7 unknown #
edge $-1 $313 -12.47070110842324 $213 -8.8580911941382876 $202 $315 forward 7 unknown #
coedge $-1 $310 $316 $125 $209 forward $317 $-1 #
edge $-1 $212 8.8580911941382876 $312 12.47070110842324 $208 $318 forward 7 unknown #
coedge $-1 $319 $126 $316 $320 forward $200 $-1 #
coedge $-1 $126 $319 $306 $321 forward $200 $-1 #
vertex $-1 $209 $322 #
vertex $-1 $321 $323 #
straight-curve $-1 0 -29.657966556808265 -8.8580911941382876 1 0 0 I I #
face $-1 $324 $325 $29 $-1 $326 reversed single #
loop $-1 $-1 $327 $128 #
plane-surface $-1 0 43.656649195737742 -10.664396151280764 0 -1 0 0 0 -1 forward_v I I I I #
coedge $-1 $328 $134 $329 $330 forward $129 $-1 #
coedge $-1 $331 $131 $225 $332 reversed $81 $-1 #
coedge $-1 $131 $331 $333 $334 reversed $81 $-1 #
edge $-1 $335 -12.47070110842324 $227 -8.8580911941382876 $131 $336 forward 7 unknown #
coedge $-1 $133 $132 $337 $338 reversed $52 $-1 #
coedge $-1 $339 $329 $133 $224 forward $340 $-1 #
edge $-1 $226 8.8580911941382876 $341 12.47070110842324 $223 $342 forward 7 unknown #
coedge $-1 $134 $328 $219 $332 forward $129 $-1 #
vertex $-1 $224 $343 #
vertex $-1 $332 $344 #
straight-curve $-1 0 29.657966556808265 -8.8580911941382876 -1 0 0 I I #
face $-1 $-1 $345 $30 $-1 $346 reversed single #
loop $-1 $-1 $142 $136 #
plane-surface $-1 0 0 12.47070110842324 0 0 1 1 0 0 forward_v I I I I #
coedge $-1 $347 $348 $349 $350 reversed $137 $-1 #
coedge $-1 $351 $139 $141 $239 forward $85 $-1 #
coedge $-1 $139 $351 $347 $352 forward $85 $-1 #
coedge $-1 $349 $142 $139 $236 forward $230 $-1 #
edge $-1 $242 1.4885519032712899 $353 7.7975032555101791 $235 $354 forward 7 unknown #
coedge $-1 $355 $356 $140 $238 forward $345 $-1 #
edge $-1 $357 -75.191977311421368 $241 -67.474402205623321 $237 $358 forward 7 unknown #
edge $-1 $242 98.02032141651901 $357 112.58400219733269 $141 $359 forward 7 unknown #
coedge $-1 $142 $349 $355 $360 forward $230 $-1 #
vertex $-1 $238 $361 #
vertex $-1 $143 $362 #
straight-curve $-1 10.2378926331888 -6.1315794826620245 12.470701108423242 -1 0 0 I I #
coedge $-1 $244 $244 $-1 $363 reversed $146 $-1 #
edge $-1 $364 0 $364 6.2831853071796004 $147 $365 forward 7 unknown #
vertex $-1 $150 $366 #
ellipse-curve $-1 50.11665025090457 -10.637973305689805 8.6119135555242199 0.52991927123019833 0 0.84804809178421925 0.21201202294605481 0 -0.13247981780754958 1 I I #
coedge $-1 $248 $248 $-1 $367 reversed $153 $-1 #
edge $-1 $368 0 $368 6.2831853071796004 $154 $369 forward 7 unknown #
vertex $-1 $157 $370 #
ellipse-curve $-1 50.11665025090457 -7.9341370118731369 8.6119135555242199 0.52991927123019833 0 0.84804809178421925 0.21201202294605481 0 -0.13247981780754958 1 I I #
face $-1 $-1 $264 $33 $-1 $371 forward single #
loop $-1 $-1 $372 $158 #
plane-surface $-1 56.292001098666347 0 0 -1 0 0 0 0 1 forward_v I I I I #
coedge $-1 $373 $374 $375 $376 reversed $159 $-1 #
coedge $-1 $377 $161 $163 $262 forward $99 $-1 #
coedge $-1 $161 $377 $373 $378 forward $99 $-1 #
coedge $-1 $375 $164 $161 $259 forward $264 $-1 #
edge $-1 $266 -7.7975032555101755 $379 -1.4885519032712864 $258 $380 forward 7 unknown #
coedge $-1 $381 $382 $162 $261 forward $253 $-1 #
edge $-1 $383 -75.191977311421368 $265 -67.474402205623321 $260 $384 forward 7 unknown #
edge $-1 $266 98.02032141651901 $383 112.58400219733269 $163 $385 forward 7 unknown #
coedge $-1 $164 $375 $381 $386 forward $264 $-1 #
loop $-1 $-1 $375 $252 #
vertex $-1 $261 $387 #
vertex $-1 $165 $388 #
straight-curve $-1 10.2378926331888 12.440530834900906 12.470701108423242 -1 0 0 I I #
coedge $-1 $268 $268 $-1 $389 reversed $168 $-1 #
edge $-1 $390 0 $390 6.2831853071796004 $169 $391 forward 7 unknown #
vertex $-1 $172 $392 #
ellipse-curve $-1 50.11665025090457 7.9341370118731298 8.6119135555242199 0.52991927123019833 0 0.84804809178421925 0.21201202294605481 0 -0.13247981780754958 1 I I #
coedge $-1 $272 $272 $-1 $393 reversed $175 $-1 #
edge $-1 $394 0 $394 6.2831853071796004 $176 $395 forward 7 unknown #
vertex $-1 $179 $396 #
ellipse-curve $-1 50.11665025090457 10.637973305689794 8.6119135555242199 0.52991927123019833 0 0.84804809178421925 0.21201202294605481 0 -0.13247981780754958 1 I I #
face $-1 $-1 $195 $27 $-1 $397 reversed single #
loop $-1 $-1 $292 $180 #
plane-surface $-1 0 29.657966556808265 0 0 -1 0 0 0 -1 forward_v I I I I #
coedge $-1 $398 $290 $293 $399 forward $181 $-1 #
coedge $-1 $296 $183 $184 $284 reversed $113 $-1 #
coedge $-1 $290 $398 $183 $282 reversed $181 $-1 #
edge $-1 $297 -12.47070110842324 $400 12.47070110842324 $281 $401 forward 7 unknown #
coedge $-1 $185 $184 $398 $402 forward $73 $-1 #
edge $-1 $288 -56.292001098666347 $400 56.292001098666347 $280 $403 forward 7 unknown #
coedge $-1 $293 $292 $185 $286 reversed $277 $-1 #
edge $-1 $404 -56.292001098666347 $287 56.292001098666347 $285 $405 forward 7 unknown #
vertex $-1 $187 $406 #
vertex $-1 $299 $407 #
straight-curve $-1 56.292001098666347 0 -12.47070110842324 0 -1 0 I I #
coedge $-1 $279 $281 $188 $291 reversed $181 $-1 #
edge $-1 $294 -29.657966556808265 $297 29.657966556808265 $290 $408 forward 7 unknown #
coedge $-1 $285 $189 $194 $300 forward $277 $-1 #
coedge $-1 $189 $285 $279 $399 reversed $277 $-1 #
vertex $-1 $190 $409 #
straight-curve $-1 0 29.657966556808265 12.47070110842324 -1 0 0 I I #
coedge $-1 $191 $280 $193 $299 reversed $113 $-1 #
vertex $-1 $291 $410 #
straight-curve $-1 0 -29.657966556808265 12.47070110842324 1 0 0 I I #
edge $-1 $196 -12.47070110842324 $288 12.47070110842324 $193 $411 forward 7 unknown #
edge $-1 $197 -12.47070110842324 $287 12.47070110842324 $194 $412 forward 7 unknown #
point $-1 56.292001098666347 -29.657966556808265 12.47070110842324 #
point $-1 56.292001098666347 29.657966556808265 12.47070110842324 #
face $-1 $-1 $317 $28 $-1 $413 reversed single #
loop $-1 $-1 $414 $199 #
plane-surface $-1 0 -43.656649195737735 -10.664396151280764 0 1 0 0 0 1 forward_v I I I I #
coedge $-1 $415 $202 $211 $321 reversed $121 $-1 #
coedge $-1 $202 $415 $203 $309 reversed $121 $-1 #
coedge $-1 $204 $203 $416 $417 forward $77 $-1 #
edge $-1 $313 29.657966556808265 $418 43.656649195737735 $307 $419 forward 7 unknown #
coedge $-1 $420 $208 $204 $311 reversed $317 $-1 #
edge $-1 $421 -43.656649195737735 $312 -29.657966556808265 $310 $422 forward 7 unknown #
vertex $-1 $209 $423 #
vertex $-1 $309 $424 #
straight-curve $-1 0 -29.657966556808265 -12.47070110842324 1 0 0 I I #
straight-curve $-1 56.292001098666347 -29.657966556808265 0 0 0 1 I I #
coedge $-1 $208 $420 $210 $320 reversed $317 $-1 #
loop $-1 $-1 $208 $303 #
straight-curve $-1 -56.292001098666347 -29.657966556808265 0 0 0 -1 I I #
coedge $-1 $211 $210 $425 $426 forward $200 $-1 #
edge $-1 $212 -6.9993413194647331 $427 6.9993413194647331 $316 $428 forward 7 unknown #
edge $-1 $429 -6.9993413194647331 $213 6.9993413194647331 $306 $430 forward 7 unknown #
point $-1 -56.292001098666347 -29.657966556808269 -8.8580911941382876 #
point $-1 56.292001098666347 -29.657966556808269 -8.8580911941382876 #
face $-1 $-1 $340 $29 $-1 $431 reversed single #
loop $-1 $-1 $337 $215 #
plane-surface $-1 0 0 -12.47070110842324 0 0 1 1 0 0 forward_v I I I I #
coedge $-1 $432 $433 $434 $435 forward $216 $-1 #
coedge $-1 $225 $218 $433 $436 forward $129 $-1 #
coedge $-1 $223 $434 $218 $330 reversed $340 $-1 #
edge $-1 $226 -6.9993413194647367 $437 6.9993413194647331 $329 $438 forward 7 unknown #
coedge $-1 $220 $219 $439 $440 forward $81 $-1 #
edge $-1 $441 -6.9993413194647331 $227 6.9993413194647367 $219 $442 forward 7 unknown #
coedge $-1 $443 $337 $220 $334 forward $325 $-1 #
edge $-1 $335 -6.9993413194647438 $444 6.9993413194647331 $220 $445 forward 7 unknown #
vertex $-1 $334 $446 #
straight-curve $-1 -56.292001098666347 29.657966556808265 0 0 0 1 I I #
coedge $-1 $333 $447 $222 $338 forward $325 $-1 #
edge $-1 $341 -56.292001098666347 $335 56.292001098666347 $337 $448 forward 7 unknown #
coedge $-1 $434 $223 $447 $449 reversed $340 $-1 #
loop $-1 $-1 $223 $324 #
vertex $-1 $224 $450 #
straight-curve $-1 56.292001098666347 29.657966556808265 0 0 0 -1 I I #
point $-1 56.292001098666347 29.657966556808272 -8.8580911941382876 #
point $-1 -56.292001098666347 29.657966556808272 -8.8580911941382876 #
loop $-1 $-1 $237 $229 #
plane-surface $-1 56.292001098666347 0 0 -1 0 0 0 0 1 forward_v I I I I #
coedge $-1 $348 $232 $234 $352 reversed $137 $-1 #
coedge $-1 $232 $347 $451 $452 reversed $137 $-1 #
coedge $-1 $240 $235 $232 $350 forward $230 $-1 #
edge $-1 $353 33.703406769953986 $453 46.054108465477547 $349 $454 forward 7 unknown #
coedge $-1 $234 $233 $356 $455 reversed $85 $-1 #
edge $-1 $456 -112.58400219733269 $353 -98.02032141651901 $347 $457 forward 7 unknown #
vertex $-1 $236 $458 #
straight-curve $-1 43.941299403142793 -4.6430275793907345 12.470701108423242 0 -1 0 I I #
coedge $-1 $451 $237 $240 $360 reversed $345 $-1 #
coedge $-1 $237 $451 $351 $455 forward $345 $-1 #
vertex $-1 $238 $459 #
straight-curve $-1 56.292001098666347 -6.1315794826620245 79.945103314046563 0 0 1 I I #
straight-curve $-1 -39.184647130211992 -6.1315794826620245 64.413558399214793 0.84804809178421925 0 -0.52991927123019833 I I #
edge $-1 $453 -12.440530834900914 $241 -6.1315794826620245 $355 $460 forward 7 unknown #
point $-1 56.292001098666347 -6.1315794826620245 12.47070110842324 #
point $-1 43.941299403142786 -6.1315794826620245 12.470701108423242 #
edge $-1 $461 1 $461 0 $244 $-1 forward 7 unknown #
vertex $-1 $245 $462 #
ellipse-curve $-1 49.586730979674378 -10.637973305689805 7.7638654637400126 0.52991927123019833 0 0.84804809178421925 0.21201202294605481 0 -0.13247981780754958 1 I I #
point $-1 50.328662273850632 -10.637973305689805 8.4794337377166826 #
edge $-1 $463 1 $463 0 $248 $-1 forward 7 unknown #
vertex $-1 $249 $464 #
ellipse-curve $-1 49.586730979674378 -7.9341370118731369 7.7638654637400126 0.52991927123019833 0 0.84804809178421925 0.21201202294605481 0 -0.13247981780754958 1 I I #
point $-1 50.328662273850632 -7.9341370118731369 8.4794337377166826 #
plane-surface $-1 0 0 12.47070110842324 0 0 1 1 0 0 forward_v I I I I #
coedge $-1 $382 $381 $374 $465 forward $253 $-1 #
coedge $-1 $374 $255 $257 $378 reversed $159 $-1 #
coedge $-1 $255 $373 $372 $465 reversed $159 $-1 #
coedge $-1 $263 $258 $255 $376 forward $264 $-1 #
edge $-1 $379 33.703406769953986 $466 46.054108465477547 $375 $467 forward 7 unknown #
coedge $-1 $257 $256 $382 $468 reversed $99 $-1 #
edge $-1 $469 -112.58400219733269 $379 -98.02032141651901 $373 $470 forward 7 unknown #
vertex $-1 $259 $471 #
straight-curve $-1 43.941299403142793 4.643027579390731 12.470701108423242 0 -1 0 I I #
coedge $-1 $372 $260 $263 $386 reversed $253 $-1 #
coedge $-1 $260 $372 $377 $468 forward $253 $-1 #
vertex $-1 $261 $472 #
straight-curve $-1 56.292001098666347 12.440530834900906 79.945103314046563 0 0 1 I I #
straight-curve $-1 -39.184647130211992 12.440530834900906 64.413558399214793 0.84804809178421925 0 -0.52991927123019833 I I #
edge $-1 $466 6.1315794826620174 $265 12.440530834900906 $381 $473 forward 7 unknown #
point $-1 56.292001098666347 12.440530834900906 12.47070110842324 #
point $-1 43.941299403142786 12.440530834900906 12.470701108423242 #
edge $-1 $474 1 $474 0 $268 $-1 forward 7 unknown #
vertex $-1 $269 $475 #
ellipse-curve $-1 49.586730979674378 7.9341370118731298 7.7638654637400126 0.52991927123019833 0 0.84804809178421925 0.21201202294605481 0 -0.13247981780754958 1 I I #
point $-1 50.328662273850632 7.9341370118731298 8.4794337377166826 #
edge $-1 $476 1 $476 0 $272 $-1 forward 7 unknown #
vertex $-1 $273 $477 #
ellipse-curve $-1 49.586730979674378 10.637973305689794 7.7638654637400126 0.52991927123019833 0 0.84804809178421925 0.21201202294605481 0 -0.13247981780754958 1 I I #
point $-1 50.328662273850632 10.637973305689794 8.4794337377166826 #
plane-surface $-1 56.292001098666347 0 0 -1 0 0 0 0 1 forward_v I I I I #
coedge $-1 $281 $279 $283 $402 reversed $181 $-1 #
edge $-1 $294 -12.47070110842324 $404 12.47070110842324 $293 $478 forward 7 unknown #
vertex $-1 $402 $479 #
straight-curve $-1 -56.292001098666347 -29.657966556808265 0 0 0 -1 I I #
edge $-1 $400 -29.657966556808265 $404 29.657966556808265 $398 $480 forward 7 unknown #
straight-curve $-1 0 -29.657966556808265 -12.47070110842324 -1 0 0 I I #
vertex $-1 $286 $481 #
straight-curve $-1 0 29.657966556808265 -12.47070110842324 1 0 0 I I #
point $-1 56.292001098666347 29.657966556808265 -12.47070110842324 #
point $-1 56.292001098666347 -29.657966556808265 -12.47070110842324 #
straight-curve $-1 -56.292001098666347 0 12.47070110842324 0 -1 0 I I #
point $-1 -56.292001098666347 29.657966556808265 12.47070110842324 #
point $-1 -56.292001098666347 -29.657966556808265 12.47070110842324 #
straight-curve $-1 56.292001098666347 -29.657966556808265 0 0 0 -1 I I #
straight-curve $-1 56.292001098666347 29.657966556808265 0 0 0 -1 I I #
plane-surface $-1 -56.292001098666347 0 0 1 0 0 0 0 -1 forward_v I I I I #
coedge $-1 $416 $425 $420 $482 forward $304 $-1 #
coedge $-1 $307 $306 $483 $484 forward $121 $-1 #
coedge $-1 $483 $414 $308 $417 reversed $304 $-1 #
edge $-1 $418 -56.292001098666347 $421 56.292001098666347 $416 $485 forward 7 unknown #
vertex $-1 $484 $486 #
straight-curve $-1 56.292001098666347 0 -12.47070110842324 0 -1 0 I I #
coedge $-1 $316 $310 $414 $482 reversed $317 $-1 #
vertex $-1 $311 $487 #
straight-curve $-1 -56.292001098666347 0 -12.47070110842324 0 1 0 I I #
point $-1 -56.292001098666347 -29.657966556808265 -12.47070110842324 #
point $-1 56.292001098666347 -29.657966556808265 -12.47070110842324 #
coedge $-1 $414 $483 $319 $426 reversed $304 $-1 #
edge $-1 $427 -56.292001098666347 $429 56.292001098666347 $425 $488 forward 7 unknown #
vertex $-1 $320 $489 #
straight-curve $-1 -56.292001098666347 -36.657307876273002 -8.8580911941382876 0 -1 0 I I #
vertex $-1 $321 $490 #
straight-curve $-1 56.292001098666347 -36.657307876273002 -8.8580911941382876 0 1 0 I I #
plane-surface $-1 56.292001098666347 0 0 -1 0 0 0 0 1 forward_v I I I I #
coedge $-1 $439 $327 $443 $491 reversed $216 $-1 #
coedge $-1 $327 $439 $328 $436 reversed $216 $-1 #
coedge $-1 $329 $339 $327 $435 reversed $340 $-1 #
edge $-1 $437 -1.8063049571424763 $492 1.8063049571424763 $434 $493 forward 7 unknown #
edge $-1 $437 -56.292001098666347 $441 56.292001098666347 $433 $494 forward 7 unknown #
vertex $-1 $330 $495 #
straight-curve $-1 56.292001098666347 36.657307876273009 -8.8580911941382876 0 1 0 I I #
coedge $-1 $433 $432 $331 $440 reversed $216 $-1 #
edge $-1 $441 -1.8063049571424763 $444 1.8063049571424763 $439 $496 forward 7 unknown #
vertex $-1 $436 $497 #
straight-curve $-1 -56.292001098666347 36.657307876273009 -8.8580911941382876 0 -1 0 I I #
coedge $-1 $447 $333 $432 $491 forward $325 $-1 #
vertex $-1 $491 $498 #
straight-curve $-1 -56.292001098666347 36.657307876273009 -12.47070110842324 0 1 0 I I #
point $-1 -56.292001098666347 29.657966556808265 -12.47070110842324 #
coedge $-1 $337 $443 $339 $449 forward $325 $-1 #
straight-curve $-1 0 29.657966556808265 -12.47070110842324 -1 0 0 I I #
edge $-1 $492 -43.656649195737742 $341 -29.657966556808265 $339 $499 forward 7 unknown #
point $-1 56.292001098666347 29.657966556808265 -12.47070110842324 #
coedge $-1 $356 $355 $348 $452 forward $345 $-1 #
edge $-1 $453 67.474402205623321 $456 75.191977311421368 $451 $500 forward 7 unknown #
vertex $-1 $360 $501 #
straight-curve $-1 10.2378926331888 -12.440530834900914 12.470701108423242 1 0 0 I I #
edge $-1 $456 -7.7975032555101791 $357 -1.4885519032712899 $356 $502 forward 7 unknown #
vertex $-1 $455 $503 #
straight-curve $-1 -39.184647130211992 -12.440530834900914 64.413558399214793 -0.84804809178421925 0 0.52991927123019833 I I #
point $-1 43.941299403142786 -12.440530834900914 12.470701108423242 #
point $-1 56.29200109866634 -6.1315794826620245 4.7531260026252014 #
straight-curve $-1 56.292001098666347 0 12.47070110842324 0 1 0 I I #
vertex $-1 $363 $504 #
point $-1 49.798743002620434 -10.637973305689805 7.6313856459324629 #
vertex $-1 $367 $505 #
point $-1 49.798743002620434 -7.9341370118731369 7.6313856459324629 #
edge $-1 $466 67.474402205623321 $469 75.191977311421368 $372 $506 forward 7 unknown #
vertex $-1 $386 $507 #
straight-curve $-1 10.2378926331888 6.1315794826620174 12.470701108423242 1 0 0 I I #
edge $-1 $469 1.4885519032712864 $383 7.7975032555101755 $382 $508 forward 7 unknown #
vertex $-1 $468 $509 #
straight-curve $-1 -39.184647130211992 6.1315794826620174 64.413558399214793 -0.84804809178421925 0 0.52991927123019833 I I #
point $-1 43.941299403142786 6.1315794826620174 12.470701108423242 #
point $-1 56.29200109866634 12.440530834900906 4.7531260026252014 #
straight-curve $-1 56.292001098666347 0 12.47070110842324 0 1 0 I I #
vertex $-1 $389 $510 #
point $-1 49.798743002620434 7.9341370118731298 7.6313856459324629 #
vertex $-1 $393 $511 #
point $-1 49.798743002620434 10.637973305689794 7.6313856459324629 #
straight-curve $-1 -56.292001098666347 29.657966556808265 0 0 0 -1 I I #
point $-1 -56.292001098666347 -29.657966556808265 -12.47070110842324 #
straight-curve $-1 -56.292001098666347 0 -12.47070110842324 0 1 0 I I #
point $-1 -56.292001098666347 29.657966556808265 -12.47070110842324 #
edge $-1 $427 -1.8063049571424763 $421 1.8063049571424763 $420 $512 forward 7 unknown #
coedge $-1 $425 $416 $415 $484 reversed $304 $-1 #
edge $-1 $429 -1.8063049571424763 $418 1.8063049571424763 $415 $513 forward 7 unknown #
straight-curve $-1 0 -43.656649195737735 -12.47070110842324 -1 0 0 I I #
point $-1 56.292001098666347 -43.656649195737735 -12.47070110842324 #
point $-1 -56.292001098666347 -43.656649195737735 -12.47070110842324 #
straight-curve $-1 0 -43.656649195737735 -8.8580911941382876 1 0 0 I I #
point $-1 -56.292001098666347 -43.656649195737735 -8.8580911941382876 #
point $-1 56.292001098666347 -43.656649195737735 -8.8580911941382876 #
edge $-1 $444 -56.292001098666347 $492 56.292001098666347 $432 $514 forward 7 unknown #
vertex $-1 $449 $515 #
straight-curve $-1 56.292001098666347 43.656649195737742 -10.664396151280764 0 0 -1 I I #
straight-curve $-1 0 43.656649195737742 -8.8580911941382876 -1 0 0 I I #
point $-1 56.292001098666347 43.656649195737742 -8.8580911941382876 #
straight-curve $-1 -56.292001098666347 43.656649195737742 -10.664396151280764 0 0 -1 I I #
point $-1 -56.292001098666347 43.656649195737742 -8.8580911941382876 #
point $-1 -56.292001098666347 43.656649195737742 -12.47070110842324 #
straight-curve $-1 56.292001098666347 0 -12.47070110842324 0 -1 0 I I #
straight-curve $-1 56.292001098666347 -12.440530834900914 79.945103314046563 0 0 -1 I I #
point $-1 56.292001098666347 -12.440530834900914 12.47070110842324 #
straight-curve $-1 56.292001098666347 -4.6430275793907345 4.7531260026252049 0 1 0 I I #
point $-1 56.29200109866634 -12.440530834900914 4.7531260026252014 #
point $-1 49.454251161866829 -10.637973305689805 7.5518534407939573 #
point $-1 49.454251161866829 -7.9341370118731369 7.5518534407939573 #
straight-curve $-1 56.292001098666347 6.1315794826620174 79.945103314046563 0 0 -1 I I #
point $-1 56.292001098666347 6.1315794826620174 12.47070110842324 #
straight-curve $-1 56.292001098666347 4.643027579390731 4.7531260026252049 0 1 0 I I #
point $-1 56.29200109866634 6.1315794826620174 4.7531260026252014 #
point $-1 49.454251161866829 7.9341370118731298 7.5518534407939573 #
point $-1 49.454251161866829 10.637973305689794 7.5518534407939573 #
straight-curve $-1 -56.292001098666347 -43.656649195737735 -10.664396151280764 0 0 -1 I I #
straight-curve $-1 56.292001098666347 -43.656649195737735 -10.664396151280764 0 0 -1 I I #
straight-curve $-1 0 43.656649195737742 -12.47070110842324 1 0 0 I I #
point $-1 56.292001098666347 43.656649195737742 -12.47070110842324 #
End-of-ACIS-data 