500 0 8 0           
7 Unknown 11 ACIS 5.0 NT 24 Thu Mar 25 23:13:12 1999 
-1 9.9999999999999995e-007 1e-010 
body $-1 $8 $-1 $9 #
body $-1 $10 $-1 $11 #
body $-1 $12 $-1 $13 #
body $-1 $14 $-1 $15 #
body $-1 $16 $-1 $17 #
body $-1 $18 $-1 $19 #
body $-1 $20 $-1 $21 #
body $-1 $22 $-1 $23 #
lump $-1 $-1 $24 $0 #
transform $-1 1 0 0 0 1 0 0 0 1 42.8064821314127 26.630499494992574 6.4264457733925839 1 rotate no_reflect no_shear #
lump $-1 $-1 $25 $1 #
transform $-1 1 0 0 0 1 0 0 0 1 42.8064821314127 26.630499494992574 6.4264457733925839 1 rotate no_reflect no_shear #
lump $-1 $-1 $26 $2 #
transform $-1 1 0 0 0 1 0 0 0 1 42.8064821314127 26.630499494992574 6.4264457733925839 1 rotate no_reflect no_shear #
lump $-1 $-1 $27 $3 #
transform $-1 1 0 0 0 1 0 0 0 1 42.8064821314127 26.630499494992574 6.4264457733925839 1 rotate no_reflect no_shear #
lump $-1 $-1 $28 $4 #
transform $-1 1 0 0 0 1 0 0 0 1 42.8064821314127 26.630499494992574 6.4264457733925839 1 rotate no_reflect no_shear #
lump $-1 $-1 $29 $5 #
transform $-1 1 0 0 0 1 0 0 0 1 42.8064821314127 26.630499494992574 6.4264457733925839 1 rotate no_reflect no_shear #
lump $-1 $-1 $30 $6 #
transform $-1 1 0 0 0 1 0 0 0 1 42.8064821314127 26.630499494992574 6.4264457733925839 1 rotate no_reflect no_shear #
lump $-1 $-1 $31 $7 #
transform $-1 1 0 0 0 1 0 0 0 1 42.8064821314127 26.630499494992574 6.4264457733925839 1 rotate no_reflect no_shear #
shell $-1 $-1 $-1 $32 $-1 $8 #
shell $-1 $-1 $-1 $33 $-1 $10 #
shell $-1 $-1 $-1 $34 $-1 $12 #
shell $-1 $-1 $-1 $35 $-1 $14 #
shell $-1 $-1 $-1 $36 $-1 $16 #
shell $-1 $-1 $-1 $37 $-1 $18 #
shell $-1 $-1 $-1 $38 $-1 $20 #
shell $-1 $-1 $-1 $39 $-1 $22 #
face $-1 $40 $41 $24 $-1 $42 reversed single #
face $-1 $43 $44 $25 $-1 $45 forward single #
face $-1 $46 $47 $26 $-1 $48 reversed single #
face $-1 $49 $50 $27 $-1 $51 forward single #
face $-1 $52 $53 $28 $-1 $54 forward single #
face $-1 $55 $56 $29 $-1 $57 reversed single #
face $-1 $58 $59 $30 $-1 $60 forward single #
face $-1 $61 $62 $31 $-1 $63 forward single #
face $-1 $64 $65 $24 $-1 $66 forward single #
loop $-1 $-1 $67 $32 #
plane-surface $-1 0 -26.630499494992574 0 0 1 0 0 0 1 forward_v I I I I #
face $-1 $68 $69 $25 $-1 $70 forward single #
loop $-1 $-1 $71 $33 #
plane-surface $-1 0 -26.630499494992574 0 0 1 0 0 0 1 forward_v I I I I #
face $-1 $72 $73 $26 $-1 $74 reversed single #
loop $-1 $-1 $75 $34 #
plane-surface $-1 25.956097964458074 19.201959121169562 122.03883842612107 0 1 0 0.6018150307709319 0 0.79863550430605224 forward_v I I I I #
face $-1 $76 $77 $27 $-1 $78 forward single #
loop $-1 $79 $80 $35 #
cone-surface $-1 39.662826393089887 21.324399227976134 3.884963541903522 -0.6018150307709319 0 -0.79863550430605224 0.39931775215302612 0 -0.30090751538546595 1 I I 0 1 0.5 forward I I I I #
face $-1 $81 $82 $28 $-1 $83 forward single #
loop $-1 $84 $85 $36 #
cone-surface $-1 39.662826393089887 24.508059388185995 3.884963541903522 -0.6018150307709319 0 -0.79863550430605224 0.39931775215302612 0 -0.30090751538546595 1 I I 0 1 0.5 forward I I I I #
face $-1 $86 $87 $29 $-1 $88 reversed single #
loop $-1 $-1 $89 $37 #
plane-surface $-1 -91.912061711601496 1.4092193331778589 70.480134670003608 0 1 0 -0.57357644374324357 0 0.81915203911291934 forward_v I I I I #
face $-1 $90 $91 $30 $-1 $92 forward single #
loop $-1 $93 $94 $38 #
cone-surface $-1 -37.170301297522592 5.409946409995225 1.5356500256506691 0.57357644374324357 0 -0.81915203911291934 1.6383040782258387 0 1.1471528874864871 1 I I 0 1 2 forward I I I I #
face $-1 $95 $96 $31 $-1 $97 forward single #
loop $-1 $98 $99 $39 #
cone-surface $-1 -37.170301297522592 11.411037025221265 1.5356500256506691 0.57357644374324357 0 -0.81915203911291934 1.6383040782258387 0 1.1471528874864871 1 I I 0 1 2 forward I I I I #
face $-1 $100 $101 $24 $-1 $102 reversed single #
loop $-1 $-1 $103 $40 #
plane-surface $-1 0 0 6.4264457733925839 0 0 1 1 0 0 forward_v I I I I #
coedge $-1 $104 $105 $106 $107 reversed $41 $-1 #
face $-1 $108 $109 $25 $-1 $110 reversed single #
loop $-1 $-1 $111 $43 #
plane-surface $-1 0 0 6.4264457733925839 0 0 1 1 0 0 forward_v I I I I #
coedge $-1 $112 $113 $114 $115 forward $44 $-1 #
face $-1 $116 $117 $26 $-1 $118 reversed single #
loop $-1 $-1 $119 $46 #
plane-surface $-1 -25.567070757764888 22.916229308081068 53.665285536943486 0.6018150307709319 0 0.79863550430605224 0.79863550430605224 0 -0.6018150307709319 forward_v I I I I #
coedge $-1 $120 $121 $122 $123 reversed $47 $-1 #
face $-1 $-1 $124 $27 $-1 $125 forward single #
loop $-1 $126 $127 $49 #
cone-surface $-1 39.211465120011688 21.324399227976134 3.285986913673983 -0.6018150307709319 0 -0.79863550430605224 0.19965887607651306 0 -0.15045375769273298 1 I I -0.70710678118654746 0.70710678118654746 0.25 forward I I I I #
loop $-1 $-1 $128 $35 #
coedge $-1 $80 $80 $129 $130 reversed $50 $-1 #
face $-1 $-1 $131 $28 $-1 $132 forward single #
loop $-1 $133 $134 $52 #
cone-surface $-1 39.211465120011688 24.508059388185995 3.285986913673983 -0.6018150307709319 0 -0.79863550430605224 0.19965887607651306 0 -0.15045375769273298 1 I I -0.70710678118654746 0.70710678118654746 0.25 forward I I I I #
loop $-1 $-1 $135 $36 #
coedge $-1 $85 $85 $136 $137 reversed $53 $-1 #
face $-1 $138 $139 $29 $-1 $140 reversed single #
loop $-1 $-1 $141 $55 #
plane-surface $-1 -42.8064821314127 8.4104917176082417 0.35010041960869387 -0.57357644374324357 0 0.81915203911291934 0.81915203911291934 0 0.57357644374324357 forward_v I I I I #
coedge $-1 $142 $143 $144 $145 reversed $56 $-1 #
face $-1 $-1 $146 $30 $-1 $147 forward single #
loop $-1 $148 $149 $58 #
cone-surface $-1 -35.29950418919362 5.409946409995225 -1.1361250843122246 0.57357644374324357 0 -0.81915203911291934 0.81915203911291934 0 0.57357644374324357 1 I I -0.70710678118654746 0.70710678118654746 1 forward I I I I #
loop $-1 $-1 $150 $38 #
coedge $-1 $94 $94 $151 $152 reversed $59 $-1 #
face $-1 $-1 $153 $31 $-1 $154 forward single #
loop $-1 $155 $156 $61 #
cone-surface $-1 -35.29950418919362 11.411037025221265 -1.1361250843122246 0.57357644374324357 0 -0.81915203911291934 0.81915203911291934 0 0.57357644374324357 1 I I -0.70710678118654746 0.70710678118654746 1 forward I I I I #
loop $-1 $-1 $157 $39 #
coedge $-1 $99 $99 $158 $159 reversed $62 $-1 #
face $-1 $160 $161 $24 $-1 $162 reversed single #
loop $-1 $-1 $163 $64 #
plane-surface $-1 0 0 -6.4264457733925839 0 0 1 1 0 0 forward_v I I I I #
coedge $-1 $164 $165 $166 $167 forward $65 $-1 #
coedge $-1 $168 $67 $169 $170 reversed $41 $-1 #
coedge $-1 $67 $168 $171 $172 forward $41 $-1 #
coedge $-1 $173 $163 $67 $107 forward $101 $-1 #
edge $-1 $174 -42.8064821314127 $175 42.8064821314127 $67 $176 forward 7 unknown #
face $-1 $177 $178 $25 $-1 $179 reversed single #
loop $-1 $-1 $180 $68 #
plane-surface $-1 -42.8064821314127 0 0 1 0 0 0 0 -1 forward_v I I I I #
coedge $-1 $181 $182 $113 $183 forward $69 $-1 #
coedge $-1 $184 $71 $185 $186 reversed $44 $-1 #
coedge $-1 $71 $184 $111 $183 reversed $44 $-1 #
coedge $-1 $187 $188 $71 $115 reversed $189 $-1 #
edge $-1 $190 -6.4264457733925839 $191 6.4264457733925839 $114 $192 forward 7 unknown #
face $-1 $193 $194 $26 $-1 $195 forward single #
loop $-1 $-1 $196 $72 #
plane-surface $-1 0 26.630499494992574 0 0 -1 0 0 0 -1 forward_v I I I I #
coedge $-1 $197 $198 $199 $200 reversed $73 $-1 #
coedge $-1 $121 $75 $201 $202 reversed $47 $-1 #
coedge $-1 $75 $120 $197 $203 reversed $47 $-1 #
coedge $-1 $199 $204 $75 $123 forward $205 $-1 #
edge $-1 $206 54.592973439667951 $207 58.877302398340014 $122 $208 forward 7 unknown #
loop $-1 $-1 $129 $76 #
plane-surface $-1 -25.567070757764888 22.916229308081068 53.665285536943486 0.6018150307709319 0 0.79863550430605224 0.79863550430605224 0 -0.6018150307709319 forward_v I I I I #
loop $-1 $-1 $209 $49 #
coedge $-1 $127 $127 $128 $210 reversed $77 $-1 #
coedge $-1 $128 $128 $127 $210 forward $79 $-1 #
coedge $-1 $129 $129 $80 $130 forward $124 $-1 #
edge $-1 $211 0 $211 6.2831853071796004 $129 $212 forward 7 unknown #
loop $-1 $-1 $136 $81 #
plane-surface $-1 -25.567070757764888 22.916229308081068 53.665285536943486 0.6018150307709319 0 0.79863550430605224 0.79863550430605224 0 -0.6018150307709319 forward_v I I I I #
loop $-1 $-1 $213 $52 #
coedge $-1 $134 $134 $135 $214 reversed $82 $-1 #
coedge $-1 $135 $135 $134 $214 forward $84 $-1 #
coedge $-1 $136 $136 $85 $137 forward $131 $-1 #
edge $-1 $215 0 $215 6.2831853071796004 $136 $216 forward 7 unknown #
face $-1 $217 $218 $29 $-1 $219 reversed single #
loop $-1 $-1 $220 $86 #
plane-surface $-1 -91.912061711601496 15.411764102038624 70.480134670003608 0 -1 0 0.57357644374324357 0 -0.81915203911291934 forward_v I I I I #
coedge $-1 $221 $222 $223 $224 reversed $87 $-1 #
coedge $-1 $143 $89 $225 $226 reversed $56 $-1 #
coedge $-1 $89 $142 $221 $227 reversed $56 $-1 #
coedge $-1 $223 $228 $89 $145 forward $229 $-1 #
edge $-1 $230 3.1495487243880476 $231 11.827469062996826 $144 $232 forward 7 unknown #
loop $-1 $-1 $151 $90 #
plane-surface $-1 -42.8064821314127 8.4104917176082417 0.35010041960869387 -0.57357644374324357 0 0.81915203911291934 0.81915203911291934 0 0.57357644374324357 forward_v I I I I #
loop $-1 $-1 $233 $58 #
coedge $-1 $149 $149 $150 $234 reversed $91 $-1 #
coedge $-1 $150 $150 $149 $234 forward $93 $-1 #
coedge $-1 $151 $151 $94 $152 forward $146 $-1 #
edge $-1 $235 0 $235 6.2831853071796004 $151 $236 forward 7 unknown #
loop $-1 $-1 $158 $95 #
plane-surface $-1 -42.8064821314127 8.4104917176082417 0.35010041960869387 -0.57357644374324357 0 0.81915203911291934 0.81915203911291934 0 0.57357644374324357 forward_v I I I I #
loop $-1 $-1 $237 $61 #
coedge $-1 $156 $156 $157 $238 reversed $96 $-1 #
coedge $-1 $157 $157 $156 $238 forward $98 $-1 #
coedge $-1 $158 $158 $99 $159 forward $153 $-1 #
edge $-1 $239 0 $239 6.2831853071796004 $158 $240 forward 7 unknown #
face $-1 $241 $242 $24 $-1 $243 reversed single #
loop $-1 $-1 $244 $100 #
plane-surface $-1 -42.8064821314127 0 0 1 0 0 0 0 -1 forward_v I I I I #
coedge $-1 $106 $245 $246 $247 forward $101 $-1 #
coedge $-1 $248 $103 $249 $250 forward $65 $-1 #
coedge $-1 $103 $248 $168 $251 forward $65 $-1 #
coedge $-1 $169 $252 $103 $167 reversed $253 $-1 #
edge $-1 $254 -26.630499494992574 $255 26.630499494992574 $166 $256 forward 7 unknown #
coedge $-1 $105 $104 $165 $251 reversed $41 $-1 #
coedge $-1 $246 $166 $104 $170 forward $253 $-1 #
edge $-1 $254 -6.4264457733925839 $174 6.4264457733925839 $169 $257 forward 7 unknown #
coedge $-1 $258 $259 $105 $172 reversed $161 $-1 #
edge $-1 $260 -6.4264457733925839 $175 6.4264457733925839 $171 $261 forward 7 unknown #
coedge $-1 $245 $106 $259 $262 forward $101 $-1 #
vertex $-1 $170 $263 #
vertex $-1 $262 $264 #
straight-curve $-1 0 -26.630499494992574 -6.4264457733925839 -1 0 0 I I #
face $-1 $265 $189 $25 $-1 $266 reversed single #
loop $-1 $-1 $267 $108 #
plane-surface $-1 -40.997086679537702 -32.896698929580623 0 0 1 0 0 0 1 forward_v I I I I #
coedge $-1 $268 $269 $184 $270 forward $109 $-1 #
coedge $-1 $271 $111 $269 $272 forward $69 $-1 #
coedge $-1 $111 $271 $187 $273 forward $69 $-1 #
edge $-1 $190 39.187691227662704 $274 42.8064821314127 $111 $275 forward 7 unknown #
coedge $-1 $113 $112 $180 $270 reversed $44 $-1 #
coedge $-1 $276 $277 $112 $186 forward $278 $-1 #
edge $-1 $279 -42.8064821314127 $191 -39.187691227662704 $185 $280 forward 7 unknown #
coedge $-1 $281 $114 $182 $273 reversed $189 $-1 #
coedge $-1 $114 $281 $276 $282 reversed $189 $-1 #
loop $-1 $-1 $281 $177 #
vertex $-1 $183 $283 #
vertex $-1 $282 $284 #
straight-curve $-1 -39.187691227662704 -26.630499494992574 0 0 0 -1 I I #
face $-1 $-1 $205 $26 $-1 $285 reversed single #
loop $-1 $-1 $201 $116 #
plane-surface $-1 0 0 6.4264457733925839 0 0 1 1 0 0 forward_v I I I I #
coedge $-1 $286 $287 $198 $288 forward $117 $-1 #
coedge $-1 $289 $119 $121 $203 forward $73 $-1 #
coedge $-1 $119 $289 $196 $288 reversed $73 $-1 #
coedge $-1 $290 $122 $119 $200 forward $205 $-1 #
edge $-1 $207 7.7438444671290281 $291 15.17238484095204 $199 $292 forward 7 unknown #
coedge $-1 $293 $294 $120 $202 forward $194 $-1 #
edge $-1 $295 24.142936703309001 $206 29.828433149183663 $201 $296 forward 7 unknown #
edge $-1 $207 -85.612964262825415 $295 -78.493951377448013 $121 $297 forward 7 unknown #
coedge $-1 $122 $290 $293 $298 reversed $205 $-1 #
loop $-1 $-1 $199 $193 #
vertex $-1 $298 $299 #
vertex $-1 $123 $300 #
straight-curve $-1 42.8064821314127 19.201959121169562 61.019419213060537 0 0 -1 I I #
coedge $-1 $209 $209 $-1 $301 reversed $126 $-1 #
edge $-1 $302 0 $302 6.2831853071796004 $127 $303 forward 7 unknown #
vertex $-1 $130 $304 #
ellipse-curve $-1 39.963733908475355 21.324399227976134 4.2842812940565533 0.6018150307709319 0 0.79863550430605224 0.39931775215302612 0 -0.30090751538546595 1 I I #
coedge $-1 $213 $213 $-1 $305 reversed $133 $-1 #
edge $-1 $306 0 $306 6.2831853071796004 $134 $307 forward 7 unknown #
vertex $-1 $137 $308 #
ellipse-curve $-1 39.963733908475355 24.508059388185995 4.2842812940565533 0.6018150307709319 0 0.79863550430605224 0.39931775215302612 0 -0.30090751538546595 1 I I #
face $-1 $-1 $229 $29 $-1 $309 forward single #
loop $-1 $-1 $310 $138 #
plane-surface $-1 -42.8064821314127 0 0 1 0 0 0 0 -1 forward_v I I I I #
coedge $-1 $311 $312 $313 $314 reversed $139 $-1 #
coedge $-1 $315 $141 $143 $227 forward $87 $-1 #
coedge $-1 $141 $315 $311 $316 forward $87 $-1 #
coedge $-1 $313 $144 $141 $224 forward $229 $-1 #
edge $-1 $231 -2.796026525626262 $317 11.206518243234504 $223 $318 forward 7 unknown #
coedge $-1 $319 $320 $142 $226 forward $218 $-1 #
edge $-1 $321 -34.88996691539311 $230 -28.813621561609221 $225 $322 forward 7 unknown #
edge $-1 $231 -10.593784699610001 $321 0 $143 $323 forward 7 unknown #
coedge $-1 $144 $313 $319 $324 forward $229 $-1 #
loop $-1 $-1 $313 $217 #
vertex $-1 $226 $325 #
vertex $-1 $145 $326 #
straight-curve $-1 -45.956030855800748 1.4092193331778589 6.4264457733925866 1 0 0 I I #
coedge $-1 $233 $233 $-1 $327 reversed $148 $-1 #
edge $-1 $328 0 $328 6.2831853071796004 $149 $329 forward 7 unknown #
vertex $-1 $152 $330 #
ellipse-curve $-1 -38.467521962108314 5.409946409995225 3.3882730965006367 -0.57357644374324357 0 0.81915203911291934 1.6383040782258387 0 1.1471528874864871 1 I I #
coedge $-1 $237 $237 $-1 $331 reversed $155 $-1 #
edge $-1 $332 0 $332 6.2831853071796004 $156 $333 forward 7 unknown #
vertex $-1 $159 $334 #
ellipse-curve $-1 -38.467521962108314 11.411037025221265 3.3882730965006367 -0.57357644374324357 0 0.81915203911291934 1.6383040782258387 0 1.1471528874864871 1 I I #
face $-1 $-1 $253 $24 $-1 $335 reversed single #
loop $-1 $-1 $336 $160 #
plane-surface $-1 0 26.630499494992574 0 0 -1 0 0 0 -1 forward_v I I I I #
coedge $-1 $259 $258 $337 $338 forward $161 $-1 #
coedge $-1 $163 $173 $339 $340 forward $101 $-1 #
coedge $-1 $252 $169 $163 $247 reversed $253 $-1 #
edge $-1 $341 -26.630499494992574 $174 26.630499494992574 $246 $342 forward 7 unknown #
coedge $-1 $165 $164 $258 $343 forward $65 $-1 #
coedge $-1 $336 $337 $164 $250 reversed $242 $-1 #
edge $-1 $255 -42.8064821314127 $344 42.8064821314127 $249 $345 forward 7 unknown #
edge $-1 $260 -42.8064821314127 $254 42.8064821314127 $168 $346 forward 7 unknown #
coedge $-1 $166 $246 $336 $347 reversed $253 $-1 #
loop $-1 $-1 $169 $241 #
vertex $-1 $167 $348 #
vertex $-1 $167 $349 #
straight-curve $-1 42.8064821314127 0 6.4264457733925839 0 1 0 I I #
straight-curve $-1 42.8064821314127 -26.630499494992574 0 0 0 -1 I I #
coedge $-1 $244 $171 $248 $343 reversed $161 $-1 #
coedge $-1 $171 $244 $173 $262 reversed $161 $-1 #
vertex $-1 $343 $350 #
straight-curve $-1 -42.8064821314127 -26.630499494992574 0 0 0 -1 I I #
edge $-1 $175 -26.630499494992574 $351 26.630499494992574 $259 $352 forward 7 unknown #
point $-1 42.8064821314127 -26.630499494992574 -6.4264457733925839 #
point $-1 -42.8064821314127 -26.630499494992574 -6.4264457733925839 #
face $-1 $-1 $278 $25 $-1 $353 reversed single #
plane-surface $-1 -39.187691227662704 -29.7635992122866 0 -1 0 0 0 0 1 forward_v I I I I #
coedge $-1 $354 $355 $356 $357 forward $178 $-1 #
coedge $-1 $356 $180 $277 $358 reversed $109 $-1 #
coedge $-1 $180 $356 $181 $272 reversed $109 $-1 #
edge $-1 $274 -6.4264457733925839 $279 6.4264457733925839 $180 $359 forward 7 unknown #
coedge $-1 $182 $181 $355 $360 forward $69 $-1 #
edge $-1 $274 26.630499494992574 $361 32.896698929580623 $269 $362 forward 7 unknown #
edge $-1 $363 -3.1330997172940229 $190 3.1330997172940265 $187 $364 forward 7 unknown #
vertex $-1 $272 $365 #
straight-curve $-1 0 -26.630499494992574 6.4264457733925839 -1 0 0 I I #
coedge $-1 $366 $185 $188 $282 forward $278 $-1 #
coedge $-1 $185 $366 $268 $358 forward $278 $-1 #
loop $-1 $-1 $185 $265 #
vertex $-1 $270 $367 #
straight-curve $-1 0 -26.630499494992574 -6.4264457733925839 1 0 0 I I #
coedge $-1 $188 $187 $368 $369 forward $189 $-1 #
edge $-1 $191 -3.1330997172940265 $370 3.1330997172940229 $188 $371 forward 7 unknown #
point $-1 -39.187691227662704 -26.630499494992574 6.4264457733925839 #
point $-1 -39.187691227662704 -26.630499494992574 -6.4264457733925839 #
plane-surface $-1 42.8064821314127 0 0 -1 0 0 0 0 1 forward_v I I I I #
coedge $-1 $287 $196 $372 $373 reversed $117 $-1 #
coedge $-1 $196 $286 $290 $374 forward $117 $-1 #
edge $-1 $291 -59.255291305324121 $375 -52.13627841994672 $196 $376 forward 7 unknown #
coedge $-1 $198 $197 $294 $377 reversed $73 $-1 #
coedge $-1 $204 $199 $287 $374 reversed $205 $-1 #
vertex $-1 $288 $378 #
straight-curve $-1 42.806482131412707 11.458114654040534 2.1421168147205236 0 1 0 I I #
coedge $-1 $372 $201 $204 $298 forward $194 $-1 #
coedge $-1 $201 $372 $289 $377 forward $194 $-1 #
vertex $-1 $202 $379 #
straight-curve $-1 12.978048982229037 19.201959121169562 6.4264457733925866 1 0 0 I I #
straight-curve $-1 -25.567070757764888 19.201959121169562 53.665285536943486 -0.79863550430605224 0 0.6018150307709319 I I #
edge $-1 $206 19.201959121169562 $380 26.630499494992574 $204 $381 forward 7 unknown #
point $-1 42.8064821314127 19.201959121169562 6.4264457733925839 #
point $-1 42.8064821314127 19.201959121169562 2.1421168147205236 #
edge $-1 $382 1 $382 0 $209 $-1 forward 7 unknown #
vertex $-1 $210 $383 #
ellipse-curve $-1 39.361918877704419 21.324399227976134 3.485645789750496 0.6018150307709319 0 0.79863550430605224 0.39931775215302612 0 -0.30090751538546595 1 I I #
point $-1 40.363051660628379 21.324399227976134 3.9833737786710826 #
edge $-1 $384 1 $384 0 $213 $-1 forward 7 unknown #
vertex $-1 $214 $385 #
ellipse-curve $-1 39.361918877704419 24.508059388185995 3.485645789750496 0.6018150307709319 0 0.79863550430605224 0.39931775215302612 0 -0.30090751538546595 1 I I #
point $-1 40.363051660628379 24.508059388185995 3.9833737786710826 #
plane-surface $-1 0 0 6.4264457733925839 0 0 1 1 0 0 forward_v I I I I #
coedge $-1 $320 $319 $312 $386 forward $218 $-1 #
coedge $-1 $312 $220 $222 $316 reversed $139 $-1 #
coedge $-1 $220 $311 $310 $386 reversed $139 $-1 #
coedge $-1 $228 $223 $220 $314 forward $229 $-1 #
edge $-1 $317 -11.827469062996826 $387 -3.1495487243880476 $313 $388 forward 7 unknown #
coedge $-1 $222 $221 $320 $389 reversed $87 $-1 #
edge $-1 $390 0 $317 10.593784699610001 $311 $391 forward 7 unknown #
vertex $-1 $224 $392 #
straight-curve $-1 -34.128561792803922 4.2052458588041208 6.4264457733925848 0 1 0 I I #
coedge $-1 $310 $225 $228 $324 reversed $218 $-1 #
coedge $-1 $225 $310 $315 $389 forward $218 $-1 #
vertex $-1 $226 $393 #
straight-curve $-1 -42.8064821314127 1.4092193331778589 35.240067335001804 0 0 1 I I #
straight-curve $-1 -42.8064821314127 1.4092193331778589 0.35010041960869387 -0.81915203911291934 0 -0.57357644374324357 I I #
edge $-1 $387 -15.411764102038624 $230 -1.4092193331778589 $319 $394 forward 7 unknown #
point $-1 -42.8064821314127 1.4092193331778589 6.4264457733925839 #
point $-1 -34.128561792803922 1.4092193331778589 6.4264457733925839 #
edge $-1 $395 1 $395 0 $233 $-1 forward 7 unknown #
vertex $-1 $234 $396 #
ellipse-curve $-1 -35.873080632936862 5.409946409995225 -0.31697304519930525 -0.57357644374324357 0 0.81915203911291934 1.6383040782258387 0 1.1471528874864871 1 I I #
point $-1 -36.829217883882478 5.409946409995225 4.53542598398713 #
edge $-1 $397 1 $397 0 $237 $-1 forward 7 unknown #
vertex $-1 $238 $398 #
ellipse-curve $-1 -35.873080632936862 11.411037025221265 -0.31697304519930525 -0.57357644374324357 0 0.81915203911291934 1.6383040782258387 0 1.1471528874864871 1 I I #
point $-1 -36.829217883882478 11.411037025221265 4.53542598398713 #
plane-surface $-1 42.8064821314127 0 0 -1 0 0 0 0 1 forward_v I I I I #
coedge $-1 $339 $249 $252 $347 forward $242 $-1 #
coedge $-1 $249 $339 $244 $338 reversed $242 $-1 #
edge $-1 $344 -6.4264457733925839 $351 6.4264457733925839 $337 $399 forward 7 unknown #
coedge $-1 $337 $336 $245 $340 reversed $242 $-1 #
edge $-1 $351 -42.8064821314127 $341 42.8064821314127 $339 $400 forward 7 unknown #
vertex $-1 $247 $401 #
straight-curve $-1 42.8064821314127 0 -6.4264457733925839 0 -1 0 I I #
edge $-1 $344 -26.630499494992574 $260 26.630499494992574 $258 $402 forward 7 unknown #
vertex $-1 $250 $403 #
straight-curve $-1 0 26.630499494992574 6.4264457733925839 -1 0 0 I I #
straight-curve $-1 0 -26.630499494992574 6.4264457733925839 1 0 0 I I #
edge $-1 $255 -6.4264457733925839 $341 6.4264457733925839 $252 $404 forward 7 unknown #
point $-1 42.8064821314127 -26.630499494992574 6.4264457733925839 #
point $-1 42.8064821314127 26.630499494992574 6.4264457733925839 #
point $-1 -42.8064821314127 -26.630499494992574 6.4264457733925839 #
vertex $-1 $340 $405 #
straight-curve $-1 -42.8064821314127 0 -6.4264457733925839 0 1 0 I I #
plane-surface $-1 0 0 -6.4264457733925839 0 0 1 1 0 0 forward_v I I I I #
coedge $-1 $368 $267 $366 $406 reversed $178 $-1 #
coedge $-1 $267 $368 $271 $360 reversed $178 $-1 #
coedge $-1 $269 $268 $267 $357 reversed $109 $-1 #
edge $-1 $361 -6.4264457733925839 $407 6.4264457733925839 $356 $408 forward 7 unknown #
edge $-1 $407 -32.896698929580623 $279 -26.630499494992574 $268 $409 forward 7 unknown #
straight-curve $-1 -42.8064821314127 -26.630499494992574 0 0 0 -1 I I #
edge $-1 $361 -1.8093954518749982 $363 1.8093954518749982 $355 $410 forward 7 unknown #
vertex $-1 $272 $411 #
straight-curve $-1 -42.8064821314127 0 6.4264457733925839 0 -1 0 I I #
vertex $-1 $273 $412 #
straight-curve $-1 -39.187691227662704 -29.7635992122866 6.4264457733925839 0 1 0 I I #
point $-1 -42.8064821314127 -26.630499494992574 6.4264457733925839 #
coedge $-1 $277 $276 $354 $406 forward $278 $-1 #
point $-1 -42.8064821314127 -26.630499494992574 -6.4264457733925839 #
coedge $-1 $355 $354 $281 $369 reversed $178 $-1 #
edge $-1 $363 -6.4264457733925839 $370 6.4264457733925839 $281 $413 forward 7 unknown #
vertex $-1 $369 $414 #
straight-curve $-1 -39.187691227662704 -29.7635992122866 -6.4264457733925839 0 -1 0 I I #
coedge $-1 $294 $293 $286 $373 forward $194 $-1 #
edge $-1 $380 -42.8064821314127 $375 -37.120985685538038 $286 $415 forward 7 unknown #
edge $-1 $380 -6.4264457733925839 $291 -2.1421168147205267 $290 $416 forward 7 unknown #
vertex $-1 $288 $417 #
straight-curve $-1 -4.5168973230168543 26.630499494992574 37.802841774974695 -0.79863550430605224 0 0.6018150307709319 I I #
edge $-1 $375 -15.17238484095204 $295 -7.7438444671290281 $294 $418 forward 7 unknown #
point $-1 42.8064821314127 26.630499494992574 2.1421168147205267 #
point $-1 37.120985685538038 19.201959121169562 6.4264457733925866 #
vertex $-1 $298 $419 #
straight-curve $-1 42.8064821314127 0 6.4264457733925839 0 1 0 I I #
vertex $-1 $301 $420 #
point $-1 39.76123662985745 21.324399227976134 3.1847382743650301 #
vertex $-1 $305 $421 #
point $-1 39.76123662985745 24.508059388185995 3.1847382743650301 #
edge $-1 $387 28.813621561609221 $390 34.88996691539311 $310 $422 forward 7 unknown #
vertex $-1 $324 $423 #
straight-curve $-1 -45.956030855800748 15.411764102038624 6.4264457733925866 -1 0 0 I I #
edge $-1 $390 -11.206518243234504 $321 2.796026525626262 $320 $424 forward 7 unknown #
vertex $-1 $389 $425 #
straight-curve $-1 -42.8064821314127 15.411764102038624 0.35010041960869387 0.81915203911291934 0 0.57357644374324357 I I #
point $-1 -34.128561792803922 15.411764102038624 6.4264457733925839 #
point $-1 -42.8064821314127 1.4092193331778589 0.35010041960869387 #
straight-curve $-1 -42.8064821314127 0 6.4264457733925839 0 -1 0 I I #
vertex $-1 $327 $426 #
point $-1 -34.234776554711026 5.409946409995225 0.830179842287182 #
vertex $-1 $331 $427 #
point $-1 -34.234776554711026 11.411037025221265 0.830179842287182 #
straight-curve $-1 -42.8064821314127 26.630499494992574 0 0 0 -1 I I #
straight-curve $-1 0 26.630499494992574 -6.4264457733925839 1 0 0 I I #
point $-1 42.8064821314127 26.630499494992574 -6.4264457733925839 #
straight-curve $-1 -42.8064821314127 0 6.4264457733925839 0 -1 0 I I #
point $-1 -42.8064821314127 26.630499494992574 6.4264457733925839 #
straight-curve $-1 42.8064821314127 26.630499494992574 0 0 0 -1 I I #
point $-1 -42.8064821314127 26.630499494992574 -6.4264457733925839 #
edge $-1 $370 -1.8093954518749982 $407 1.8093954518749982 $354 $428 forward 7 unknown #
vertex $-1 $358 $429 #
straight-curve $-1 -42.8064821314127 -32.896698929580623 0 0 0 -1 I I #
straight-curve $-1 -42.8064821314127 0 -6.4264457733925839 0 1 0 I I #
straight-curve $-1 -40.997086679537702 -32.896698929580623 6.4264457733925839 1 0 0 I I #
point $-1 -42.8064821314127 -32.896698929580623 6.4264457733925839 #
point $-1 -39.187691227662704 -32.896698929580623 6.4264457733925839 #
straight-curve $-1 -39.187691227662704 -32.896698929580623 0 0 0 -1 I I #
point $-1 -39.187691227662704 -32.896698929580623 -6.4264457733925839 #
straight-curve $-1 0 26.630499494992574 6.4264457733925839 -1 0 0 I I #
straight-curve $-1 42.8064821314127 26.630499494992574 0 0 0 -1 I I #
point $-1 37.120985685538038 26.630499494992574 6.4264457733925866 #
straight-curve $-1 37.120985685538031 11.458114654040534 6.4264457733925937 0 -1 0 I I #
point $-1 42.8064821314127 26.630499494992574 6.4264457733925839 #
point $-1 39.061011362318958 21.324399227976134 3.08632803759747 #
point $-1 39.061011362318958 24.508059388185995 3.08632803759747 #
straight-curve $-1 -42.8064821314127 15.411764102038624 35.240067335001804 0 0 -1 I I #
point $-1 -42.8064821314127 15.411764102038624 6.4264457733925839 #
straight-curve $-1 -42.8064821314127 4.2052458588041208 0.35010041960869398 0 -1 0 I I #
point $-1 -42.8064821314127 15.411764102038624 0.35010041960869387 #
point $-1 -34.725927745450377 5.409946409995225 -1.955277123425144 #
point $-1 -34.725927745450377 11.411037025221265 -1.955277123425144 #
straight-curve $-1 -40.997086679537702 -32.896698929580623 -6.4264457733925839 -1 0 0 I I #
point $-1 -42.8064821314127 -32.896698929580623 -6.4264457733925839 #
End-of-ACIS-data 