500 0 10 0           
7 Unknown 11 ACIS 5.0 NT 24 Thu Mar 25 19:43:35 1999 
-1 9.9999999999999995e-007 1e-010 
body $-1 $10 $-1 $11 #
body $-1 $12 $-1 $13 #
body $-1 $14 $-1 $15 #
body $-1 $16 $-1 $17 #
body $-1 $18 $-1 $19 #
body $-1 $20 $-1 $21 #
body $-1 $22 $-1 $23 #
body $-1 $24 $-1 $25 #
body $-1 $26 $-1 $27 #
body $-1 $28 $-1 $29 #
lump $-1 $-1 $30 $0 #
transform $-1 1 0 0 0 1 0 0 0 1 60.70009460737937 41.45304992946528 17.32977094206916 1 rotate no_reflect no_shear #
lump $-1 $-1 $31 $1 #
transform $-1 1 0 0 0 1 0 0 0 1 60.70009460737937 41.45304992946528 17.32977094206916 1 rotate no_reflect no_shear #
lump $-1 $-1 $32 $2 #
transform $-1 1 0 0 0 1 0 0 0 1 60.70009460737937 41.45304992946528 17.32977094206916 1 rotate no_reflect no_shear #
lump $-1 $-1 $33 $3 #
transform $-1 1 0 0 0 1 0 0 0 1 60.70009460737937 41.45304992946528 17.32977094206916 1 rotate no_reflect no_shear #
lump $-1 $-1 $34 $4 #
transform $-1 1 0 0 0 1 0 0 0 1 60.70009460737937 41.45304992946528 17.32977094206916 1 rotate no_reflect no_shear #
lump $-1 $-1 $35 $5 #
transform $-1 1 0 0 0 1 0 0 0 1 60.70009460737937 41.45304992946528 17.32977094206916 1 rotate no_reflect no_shear #
lump $-1 $-1 $36 $6 #
transform $-1 1 0 0 0 1 0 0 0 1 60.70009460737937 41.45304992946528 17.32977094206916 1 rotate no_reflect no_shear #
lump $-1 $-1 $37 $7 #
transform $-1 1 0 0 0 1 0 0 0 1 60.70009460737937 41.45304992946528 17.32977094206916 1 rotate no_reflect no_shear #
lump $-1 $-1 $38 $8 #
transform $-1 1 0 0 0 1 0 0 0 1 60.70009460737937 41.45304992946528 17.32977094206916 1 rotate no_reflect no_shear #
lump $-1 $-1 $39 $9 #
transform $-1 1 0 0 0 1 0 0 0 1 60.70009460737937 41.45304992946528 17.32977094206916 1 rotate no_reflect no_shear #
shell $-1 $-1 $-1 $40 $-1 $10 #
shell $-1 $-1 $-1 $41 $-1 $12 #
shell $-1 $-1 $-1 $42 $-1 $14 #
shell $-1 $-1 $-1 $43 $-1 $16 #
shell $-1 $-1 $-1 $44 $-1 $18 #
shell $-1 $-1 $-1 $45 $-1 $20 #
shell $-1 $-1 $-1 $46 $-1 $22 #
shell $-1 $-1 $-1 $47 $-1 $24 #
shell $-1 $-1 $-1 $48 $-1 $26 #
shell $-1 $-1 $-1 $49 $-1 $28 #
face $-1 $50 $51 $30 $-1 $52 forward single #
face $-1 $53 $54 $31 $-1 $55 forward single #
face $-1 $56 $57 $32 $-1 $58 reversed single #
face $-1 $59 $60 $33 $-1 $61 forward single #
face $-1 $62 $63 $34 $-1 $64 forward single #
face $-1 $65 $66 $35 $-1 $67 forward single #
face $-1 $68 $69 $36 $-1 $70 reversed single #
face $-1 $71 $72 $37 $-1 $73 forward single #
face $-1 $74 $75 $38 $-1 $76 reversed single #
face $-1 $77 $78 $39 $-1 $79 forward single #
face $-1 $80 $81 $30 $-1 $82 reversed single #
loop $-1 $-1 $83 $40 #
plane-surface $-1 0 0 17.32977094206916 0 0 1 1 0 0 forward_v I I I I #
face $-1 $84 $85 $31 $-1 $86 reversed single #
loop $-1 $-1 $87 $41 #
plane-surface $-1 -51.285073920558062 0 -2.9679198098893034 0 0 1 1 0 0 forward_v I I I I #
face $-1 $88 $89 $32 $-1 $90 reversed single #
loop $-1 $-1 $91 $42 #
plane-surface $-1 29.05148026036553 -116.19447046353228 102.85381077025126 1 0 0 0 0.61566148304635926 -0.78801074757464917 forward_v I I I I #
face $-1 $92 $93 $33 $-1 $94 forward single #
loop $-1 $95 $96 $43 #
cone-surface $-1 32.73689356824417 -34.188435376431492 11.267614588625943 0 0.61566148304635926 -0.78801074757464917 1 0 0 1 I I 0 1 1 forward I I I I #
face $-1 $97 $98 $34 $-1 $99 forward single #
loop $-1 $100 $101 $44 #
cone-surface $-1 38.265013530062149 -34.188435376431492 11.267614588625943 0 0.61566148304635926 -0.78801074757464917 1 0 0 1 I I 0 1 1 forward I I I I #
face $-1 $102 $103 $35 $-1 $104 forward single #
loop $-1 $105 $106 $45 #
cone-surface $-1 43.793133491880113 -34.188435376431492 11.267614588625943 0 0.61566148304635926 -0.78801074757464917 1 0 0 1 I I 0 1 1 forward I I I I #
face $-1 $107 $108 $36 $-1 $109 reversed single #
loop $-1 $-1 $110 $46 #
plane-surface $-1 -38.723273505650077 40.606903730018345 156.00418407514701 1 0 0 0 -0.55919291073839883 -0.82903756765294845 forward_v I I I I #
face $-1 $111 $112 $37 $-1 $113 forward single #
loop $-1 $114 $115 $47 #
cone-surface $-1 -30.027646390325621 33.832444621443948 11.022218013584681 0 -0.55919291073839883 -0.82903756765294845 1.5 0 0 1 I I 0 1 1.5 forward I I I I #
face $-1 $116 $117 $38 $-1 $118 reversed single #
loop $-1 $-1 $119 $48 #
plane-surface $-1 12.56180041490799 40.606903730018345 156.00418407514701 1 0 0 0 -0.55919291073839883 -0.82903756765294845 forward_v I I I I #
face $-1 $120 $121 $39 $-1 $122 forward single #
loop $-1 $123 $124 $49 #
cone-surface $-1 21.257427530232448 33.832444621443948 11.022218013584681 0 -0.55919291073839883 -0.82903756765294845 1.5 0 0 1 I I 0 1 1.5 forward I I I I #
face $-1 $125 $126 $30 $-1 $127 reversed single #
loop $-1 $-1 $128 $50 #
plane-surface $-1 0 0 -17.32977094206916 0 0 1 1 0 0 forward_v I I I I #
coedge $-1 $129 $130 $131 $132 forward $51 $-1 #
face $-1 $133 $134 $31 $-1 $135 reversed single #
loop $-1 $-1 $136 $53 #
plane-surface $-1 -51.285073920558062 0 -7.288330553190888 0 0 1 1 0 0 forward_v I I I I #
coedge $-1 $137 $138 $139 $140 forward $54 $-1 #
face $-1 $141 $142 $32 $-1 $143 reversed single #
loop $-1 $-1 $144 $56 #
plane-surface $-1 38.265013530062149 -41.453049929465294 7.1891569114253571 0 -0.61566148304635926 0.78801074757464917 1 0 0 forward_v I I I I #
coedge $-1 $145 $146 $147 $148 reversed $57 $-1 #
face $-1 $-1 $149 $33 $-1 $150 forward single #
loop $-1 $151 $152 $59 #
cone-surface $-1 32.73689356824417 -33.105686987724226 9.8817598767173003 0 0.61566148304635926 -0.78801074757464917 0.5 0 0 1 I I -0.70710678118654746 0.70710678118654746 0.5 forward I I I I #
loop $-1 $-1 $153 $43 #
coedge $-1 $96 $96 $154 $155 reversed $60 $-1 #
face $-1 $-1 $156 $34 $-1 $157 forward single #
loop $-1 $158 $159 $62 #
cone-surface $-1 38.265013530062149 -33.105686987724226 9.8817598767173003 0 0.61566148304635926 -0.78801074757464917 0.5 0 0 1 I I -0.70710678118654746 0.70710678118654746 0.5 forward I I I I #
loop $-1 $-1 $160 $44 #
coedge $-1 $101 $101 $161 $162 reversed $63 $-1 #
face $-1 $-1 $163 $35 $-1 $164 forward single #
loop $-1 $165 $166 $65 #
cone-surface $-1 43.793133491880113 -33.105686987724226 9.8817598767173003 0 0.61566148304635926 -0.78801074757464917 0.5 0 0 1 I I -0.70710678118654746 0.70710678118654746 0.5 forward I I I I #
loop $-1 $-1 $167 $45 #
coedge $-1 $106 $106 $168 $169 reversed $66 $-1 #
face $-1 $170 $171 $36 $-1 $172 reversed single #
loop $-1 $-1 $173 $68 #
plane-surface $-1 -30.027646390325621 -27.279221441174968 55.358866495935715 0 0.55919291073839883 0.82903756765294845 1 0 0 forward_v I I I I #
coedge $-1 $174 $175 $176 $177 reversed $69 $-1 #
face $-1 $-1 $178 $37 $-1 $179 forward single #
loop $-1 $180 $181 $71 #
cone-surface $-1 -30.027646390325621 31.968354480754982 8.2585907814690884 0 -0.55919291073839883 -0.82903756765294845 0.75 0 0 1 I I -0.70710678118654757 0.70710678118654757 0.75 forward I I I I #
loop $-1 $-1 $182 $47 #
coedge $-1 $115 $115 $183 $184 reversed $72 $-1 #
face $-1 $185 $186 $38 $-1 $187 reversed single #
loop $-1 $-1 $188 $74 #
plane-surface $-1 21.257427530232448 -27.279221441174968 55.358866495935715 0 0.55919291073839883 0.82903756765294845 1 0 0 forward_v I I I I #
coedge $-1 $189 $190 $191 $192 reversed $75 $-1 #
face $-1 $-1 $193 $39 $-1 $194 forward single #
loop $-1 $195 $196 $77 #
cone-surface $-1 21.257427530232448 31.968354480754982 8.2585907814690884 0 -0.55919291073839883 -0.82903756765294845 0.75 0 0 1 I I -0.70710678118654757 0.70710678118654757 0.75 forward I I I I #
loop $-1 $-1 $197 $49 #
coedge $-1 $124 $124 $198 $199 reversed $78 $-1 #
face $-1 $200 $201 $30 $-1 $202 reversed single #
loop $-1 $-1 $203 $80 #
plane-surface $-1 0 -41.45304992946528 0 0 1 0 0 0 1 forward_v I I I I #
coedge $-1 $204 $205 $206 $207 forward $81 $-1 #
coedge $-1 $208 $83 $209 $210 forward $51 $-1 #
coedge $-1 $83 $208 $211 $212 forward $51 $-1 #
coedge $-1 $213 $214 $83 $132 reversed $215 $-1 #
edge $-1 $216 -41.45304992946528 $217 41.45304992946528 $131 $218 forward 7 unknown #
face $-1 $219 $220 $31 $-1 $221 reversed single #
loop $-1 $-1 $222 $84 #
plane-surface $-1 -41.870053233736755 0 -5.1281251815400957 -1 0 0 0 0 1 forward_v I I I I #
coedge $-1 $223 $224 $225 $226 forward $85 $-1 #
coedge $-1 $227 $87 $228 $229 reversed $54 $-1 #
coedge $-1 $87 $227 $230 $231 reversed $54 $-1 #
coedge $-1 $222 $232 $87 $140 reversed $134 $-1 #
edge $-1 $233 -41.45304992946528 $234 41.45304992946528 $139 $235 forward 7 unknown #
face $-1 $236 $237 $32 $-1 $238 forward single #
loop $-1 $-1 $239 $88 #
plane-surface $-1 47.478546799758767 -116.19447046353228 102.85381077025126 -1 0 0 0 -0.61566148304635926 0.78801074757464917 forward_v I I I I #
coedge $-1 $240 $241 $242 $243 reversed $89 $-1 #
coedge $-1 $146 $91 $244 $245 reversed $57 $-1 #
coedge $-1 $91 $145 $240 $246 reversed $57 $-1 #
coedge $-1 $242 $247 $91 $148 forward $248 $-1 #
edge $-1 $249 34.097134443056468 $250 44.237748473700258 $147 $251 forward 7 unknown #
loop $-1 $-1 $154 $92 #
plane-surface $-1 38.265013530062149 -41.453049929465294 7.1891569114253571 0 -0.61566148304635926 0.78801074757464917 1 0 0 forward_v I I I I #
loop $-1 $-1 $252 $59 #
coedge $-1 $152 $152 $153 $253 reversed $93 $-1 #
coedge $-1 $153 $153 $152 $253 forward $95 $-1 #
coedge $-1 $154 $154 $96 $155 forward $149 $-1 #
edge $-1 $254 -1.0936344861647016e-015 $254 6.2831853071795996 $154 $255 forward 7 unknown #
loop $-1 $-1 $161 $97 #
plane-surface $-1 38.265013530062149 -41.453049929465294 7.1891569114253571 0 -0.61566148304635926 0.78801074757464917 1 0 0 forward_v I I I I #
loop $-1 $-1 $256 $62 #
coedge $-1 $159 $159 $160 $257 reversed $98 $-1 #
coedge $-1 $160 $160 $159 $257 forward $100 $-1 #
coedge $-1 $161 $161 $101 $162 forward $156 $-1 #
edge $-1 $258 -1.0936344861647016e-015 $258 6.2831853071795996 $161 $259 forward 7 unknown #
loop $-1 $-1 $168 $102 #
plane-surface $-1 38.265013530062149 -41.453049929465294 7.1891569114253571 0 -0.61566148304635926 0.78801074757464917 1 0 0 forward_v I I I I #
loop $-1 $-1 $260 $65 #
coedge $-1 $166 $166 $167 $261 reversed $103 $-1 #
coedge $-1 $167 $167 $166 $261 forward $105 $-1 #
coedge $-1 $168 $168 $106 $169 forward $163 $-1 #
edge $-1 $262 -1.0936344861647016e-015 $262 6.2831853071795996 $168 $263 forward 7 unknown #
face $-1 $264 $265 $36 $-1 $266 reversed single #
loop $-1 $-1 $267 $107 #
plane-surface $-1 -21.332019275001166 40.606903730018345 156.00418407514701 -1 0 0 0 0.55919291073839883 0.82903756765294845 forward_v I I I I #
coedge $-1 $268 $269 $270 $271 reversed $108 $-1 #
coedge $-1 $175 $110 $272 $273 reversed $69 $-1 #
coedge $-1 $110 $174 $268 $274 reversed $69 $-1 #
coedge $-1 $270 $275 $110 $177 forward $276 $-1 #
edge $-1 $277 -21.149598064456107 $278 -8.7977783636838183 $176 $279 forward 7 unknown #
loop $-1 $-1 $183 $111 #
plane-surface $-1 -30.027646390325621 -27.279221441174968 55.358866495935715 0 0.55919291073839883 0.82903756765294845 1 0 0 forward_v I I I I #
loop $-1 $-1 $280 $71 #
coedge $-1 $181 $181 $182 $281 reversed $112 $-1 #
coedge $-1 $182 $182 $181 $281 forward $114 $-1 #
coedge $-1 $183 $183 $115 $184 forward $178 $-1 #
edge $-1 $282 9.238759403397406e-017 $282 6.2831853071796004 $183 $283 forward 7 unknown #
face $-1 $284 $285 $38 $-1 $286 forward single #
loop $-1 $-1 $287 $116 #
plane-surface $-1 29.953054645556904 40.606903730018345 156.00418407514701 -1 0 0 0 0.55919291073839883 0.82903756765294845 forward_v I I I I #
coedge $-1 $288 $289 $290 $291 reversed $117 $-1 #
coedge $-1 $190 $119 $292 $293 reversed $75 $-1 #
coedge $-1 $119 $189 $288 $294 reversed $75 $-1 #
coedge $-1 $290 $295 $119 $192 forward $285 $-1 #
edge $-1 $296 -21.149598064456107 $297 -8.7977783636838183 $191 $298 forward 7 unknown #
loop $-1 $-1 $198 $120 #
plane-surface $-1 21.257427530232448 -27.279221441174968 55.358866495935715 0 0.55919291073839883 0.82903756765294845 1 0 0 forward_v I I I I #
loop $-1 $-1 $299 $77 #
coedge $-1 $196 $196 $197 $300 reversed $121 $-1 #
coedge $-1 $197 $197 $196 $300 forward $123 $-1 #
coedge $-1 $198 $198 $124 $199 forward $193 $-1 #
edge $-1 $301 9.238759403397406e-017 $301 6.2831853071796004 $198 $302 forward 7 unknown #
face $-1 $303 $304 $30 $-1 $305 reversed single #
loop $-1 $-1 $306 $125 #
plane-surface $-1 -60.70009460737937 0 0 1 0 0 0 0 -1 forward_v I I I I #
coedge $-1 $307 $211 $308 $309 forward $126 $-1 #
coedge $-1 $310 $128 $307 $311 forward $81 $-1 #
coedge $-1 $128 $310 $312 $313 forward $81 $-1 #
coedge $-1 $214 $213 $128 $207 reversed $215 $-1 #
edge $-1 $314 -41.45304992946528 $315 41.45304992946528 $206 $316 forward 7 unknown #
coedge $-1 $130 $129 $317 $318 forward $51 $-1 #
coedge $-1 $319 $320 $129 $210 reversed $304 $-1 #
edge $-1 $217 -60.70009460737937 $321 60.70009460737937 $209 $322 forward 7 unknown #
coedge $-1 $203 $323 $130 $212 reversed $126 $-1 #
edge $-1 $324 -60.70009460737937 $216 60.70009460737937 $211 $325 forward 7 unknown #
coedge $-1 $206 $131 $323 $326 forward $215 $-1 #
coedge $-1 $131 $206 $319 $327 reversed $215 $-1 #
loop $-1 $-1 $213 $303 #
vertex $-1 $132 $328 #
vertex $-1 $132 $329 #
straight-curve $-1 60.70009460737937 0 17.32977094206916 0 1 0 I I #
face $-1 $330 $331 $31 $-1 $332 reversed single #
loop $-1 $-1 $333 $133 #
plane-surface $-1 0 -41.45304992946528 0 0 1 0 0 0 1 forward_v I I I I #
coedge $-1 $225 $139 $334 $335 reversed $134 $-1 #
coedge $-1 $336 $136 $333 $337 reversed $85 $-1 #
coedge $-1 $136 $336 $338 $339 reversed $85 $-1 #
coedge $-1 $232 $222 $136 $226 reversed $134 $-1 #
edge $-1 $340 -41.45304992946528 $341 41.45304992946528 $225 $342 forward 7 unknown #
coedge $-1 $138 $137 $343 $344 reversed $54 $-1 #
coedge $-1 $345 $346 $137 $229 forward $347 $-1 #
edge $-1 $348 -35.057557647100339 $234 -16.227516273457724 $228 $349 forward 7 unknown #
coedge $-1 $350 $334 $138 $231 forward $220 $-1 #
edge $-1 $233 16.227516273457724 $351 35.057557647100339 $230 $352 forward 7 unknown #
coedge $-1 $139 $225 $345 $353 reversed $134 $-1 #
vertex $-1 $231 $354 #
vertex $-1 $229 $355 #
straight-curve $-1 -41.870053233736755 0 -2.9679198098893034 0 1 0 I I #
face $-1 $-1 $248 $32 $-1 $356 reversed single #
loop $-1 $-1 $357 $141 #
plane-surface $-1 0 0 17.32977094206916 0 0 1 1 0 0 forward_v I I I I #
coedge $-1 $358 $359 $360 $361 reversed $142 $-1 #
coedge $-1 $362 $144 $146 $246 forward $89 $-1 #
coedge $-1 $144 $362 $358 $363 forward $89 $-1 #
coedge $-1 $360 $147 $144 $243 forward $248 $-1 #
edge $-1 $250 9.9189734953344555 $364 28.346040034727693 $242 $365 forward 7 unknown #
coedge $-1 $366 $367 $145 $245 forward $237 $-1 #
edge $-1 $368 -29.623579114000265 $249 -16.644185302300862 $244 $369 forward 7 unknown #
edge $-1 $250 1.830693040787162e-014 $368 16.471087293729916 $146 $370 forward 7 unknown #
coedge $-1 $147 $360 $366 $371 reversed $248 $-1 #
loop $-1 $-1 $360 $236 #
vertex $-1 $371 $372 #
vertex $-1 $148 $373 #
straight-curve $-1 29.05148026036553 -41.45304992946528 51.426905385125629 0 0 -1 I I #
coedge $-1 $252 $252 $-1 $374 reversed $151 $-1 #
edge $-1 $375 0 $375 6.2831853071796004 $152 $376 forward 7 unknown #
vertex $-1 $155 $377 #
ellipse-curve $-1 32.73689356824417 -34.963353023615582 12.259463926747264 0 -0.61566148304635926 0.78801074757464917 1 0 0 1 I I #
coedge $-1 $256 $256 $-1 $378 reversed $158 $-1 #
edge $-1 $379 0 $379 6.2831853071796004 $159 $380 forward 7 unknown #
vertex $-1 $162 $381 #
ellipse-curve $-1 38.265013530062149 -34.963353023615582 12.259463926747264 0 -0.61566148304635926 0.78801074757464917 1 0 0 1 I I #
coedge $-1 $260 $260 $-1 $382 reversed $165 $-1 #
edge $-1 $383 0 $383 6.2831853071796004 $166 $384 forward 7 unknown #
vertex $-1 $169 $385 #
ellipse-curve $-1 43.793133491880113 -34.963353023615582 12.259463926747264 0 -0.61566148304635926 0.78801074757464917 1 0 0 1 I I #
face $-1 $-1 $276 $36 $-1 $386 forward single #
loop $-1 $-1 $387 $170 #
plane-surface $-1 0 41.45304992946528 0 0 -1 0 0 0 -1 forward_v I I I I #
coedge $-1 $388 $389 $390 $391 reversed $171 $-1 #
coedge $-1 $392 $173 $175 $274 forward $108 $-1 #
coedge $-1 $173 $392 $388 $393 forward $108 $-1 #
coedge $-1 $390 $176 $173 $271 forward $276 $-1 #
edge $-1 $278 -23.709450310487266 $394 -6.318196079838355 $270 $395 forward 7 unknown #
coedge $-1 $396 $397 $174 $273 forward $265 $-1 #
edge $-1 $398 -69.003728839721532 $277 -60.672321095504344 $272 $399 forward 7 unknown #
edge $-1 $278 68.007113151077291 $398 82.90609985893056 $175 $400 forward 7 unknown #
coedge $-1 $176 $390 $396 $401 forward $276 $-1 #
loop $-1 $-1 $390 $264 #
vertex $-1 $273 $402 #
vertex $-1 $177 $403 #
straight-curve $-1 -38.723273505650077 20.303451865009173 17.32977094206916 0 -1 0 I I #
coedge $-1 $280 $280 $-1 $404 reversed $180 $-1 #
edge $-1 $405 0 $405 6.2831853071796004 $181 $406 forward 7 unknown #
vertex $-1 $184 $407 #
ellipse-curve $-1 -30.027646390325621 35.277140079079125 13.164067069960581 0 0.55919291073839883 0.82903756765294845 1.5 0 0 1 I I #
face $-1 $-1 $408 $38 $-1 $409 reversed single #
loop $-1 $-1 $191 $185 #
plane-surface $-1 0 0 17.32977094206916 0 0 1 1 0 0 forward_v I I I I #
coedge $-1 $410 $411 $412 $413 reversed $186 $-1 #
coedge $-1 $414 $188 $190 $294 forward $117 $-1 #
coedge $-1 $188 $414 $410 $415 forward $117 $-1 #
coedge $-1 $412 $191 $188 $291 forward $285 $-1 #
edge $-1 $297 1.9330866497917665 $416 19.32434088044068 $290 $417 forward 7 unknown #
coedge $-1 $418 $419 $189 $293 forward $408 $-1 #
edge $-1 $420 -69.003728839721532 $296 -60.672321095504344 $292 $421 forward 7 unknown #
edge $-1 $297 68.007113151077291 $420 82.90609985893056 $190 $422 forward 7 unknown #
coedge $-1 $191 $412 $418 $423 forward $285 $-1 #
vertex $-1 $192 $424 #
vertex $-1 $192 $425 #
straight-curve $-1 12.56180041490799 20.303451865009173 17.32977094206916 0 -1 0 I I #
coedge $-1 $299 $299 $-1 $426 reversed $195 $-1 #
edge $-1 $427 0 $427 6.2831853071796004 $196 $428 forward 7 unknown #
vertex $-1 $199 $429 #
ellipse-curve $-1 21.257427530232448 35.277140079079125 13.164067069960581 0 0.55919291073839883 0.82903756765294845 1.5 0 0 1 I I #
face $-1 $-1 $215 $30 $-1 $430 reversed single #
loop $-1 $-1 $319 $200 #
plane-surface $-1 0 41.45304992946528 0 0 -1 0 0 0 -1 forward_v I I I I #
coedge $-1 $431 $317 $320 $432 forward $201 $-1 #
coedge $-1 $323 $203 $204 $311 reversed $126 $-1 #
coedge $-1 $317 $431 $203 $309 reversed $201 $-1 #
edge $-1 $324 -17.32977094206916 $433 17.32977094206916 $308 $434 forward 7 unknown #
coedge $-1 $205 $204 $431 $435 forward $81 $-1 #
edge $-1 $315 -60.70009460737937 $433 60.70009460737937 $307 $436 forward 7 unknown #
coedge $-1 $320 $319 $205 $313 reversed $304 $-1 #
edge $-1 $437 -60.70009460737937 $314 60.70009460737937 $312 $438 forward 7 unknown #
vertex $-1 $207 $439 #
vertex $-1 $326 $440 #
straight-curve $-1 60.70009460737937 0 -17.32977094206916 0 -1 0 I I #
coedge $-1 $306 $308 $208 $318 reversed $201 $-1 #
edge $-1 $321 -41.45304992946528 $324 41.45304992946528 $317 $441 forward 7 unknown #
coedge $-1 $312 $209 $214 $327 forward $304 $-1 #
coedge $-1 $209 $312 $306 $432 reversed $304 $-1 #
vertex $-1 $210 $442 #
straight-curve $-1 0 41.45304992946528 17.32977094206916 -1 0 0 I I #
coedge $-1 $211 $307 $213 $326 reversed $126 $-1 #
vertex $-1 $318 $443 #
straight-curve $-1 0 -41.45304992946528 17.32977094206916 1 0 0 I I #
edge $-1 $216 -17.32977094206916 $315 17.32977094206916 $213 $444 forward 7 unknown #
edge $-1 $217 -17.32977094206916 $314 17.32977094206916 $214 $445 forward 7 unknown #
point $-1 60.70009460737937 -41.45304992946528 17.32977094206916 #
point $-1 60.70009460737937 41.45304992946528 17.32977094206916 #
face $-1 $-1 $347 $31 $-1 $446 reversed single #
loop $-1 $-1 $447 $219 #
plane-surface $-1 -60.70009460737937 0 0 1 0 0 0 0 -1 forward_v I I I I #
coedge $-1 $334 $350 $223 $337 forward $220 $-1 #
coedge $-1 $230 $333 $222 $335 forward $220 $-1 #
edge $-1 $341 -4.7242679624208401 $233 -0.40385721911925554 $334 $448 forward 7 unknown #
coedge $-1 $224 $223 $447 $449 reversed $85 $-1 #
edge $-1 $450 -35.057557647100339 $341 -16.227516273457724 $333 $451 forward 7 unknown #
coedge $-1 $346 $345 $224 $339 forward $347 $-1 #
edge $-1 $340 16.227516273457724 $452 35.057557647100339 $338 $453 forward 7 unknown #
vertex $-1 $339 $454 #
vertex $-1 $337 $455 #
straight-curve $-1 -41.870053233736755 0 -7.288330553190888 0 -1 0 I I #
coedge $-1 $456 $457 $227 $344 forward $331 $-1 #
edge $-1 $351 -41.45304992946528 $348 41.45304992946528 $343 $458 forward 7 unknown #
coedge $-1 $338 $228 $232 $353 forward $347 $-1 #
coedge $-1 $228 $338 $456 $459 reversed $347 $-1 #
loop $-1 $-1 $338 $330 #
vertex $-1 $459 $460 #
straight-curve $-1 -25.642536960279031 41.45304992946528 -2.9679198098893034 1 0 0 I I #
coedge $-1 $333 $230 $457 $461 forward $220 $-1 #
vertex $-1 $461 $462 #
straight-curve $-1 -25.642536960279031 -41.45304992946528 -2.9679198098893034 -1 0 0 I I #
edge $-1 $234 0.40385721911925554 $340 4.7242679624208401 $345 $463 forward 7 unknown #
point $-1 -41.870053233736755 -41.45304992946528 -2.9679198098893034 #
point $-1 -41.870053233736755 41.45304992946528 -2.9679198098893034 #
plane-surface $-1 0 -41.45304992946528 0 0 1 0 0 0 1 forward_v I I I I #
coedge $-1 $367 $366 $359 $464 forward $237 $-1 #
coedge $-1 $359 $239 $241 $363 reversed $142 $-1 #
coedge $-1 $239 $358 $357 $464 reversed $142 $-1 #
coedge $-1 $247 $242 $239 $361 forward $248 $-1 #
edge $-1 $364 -44.237748473700258 $465 -34.097134443056468 $360 $466 forward 7 unknown #
coedge $-1 $241 $240 $367 $467 reversed $89 $-1 #
edge $-1 $468 -16.471087293729916 $364 -1.830693040787162e-014 $358 $469 forward 7 unknown #
vertex $-1 $243 $470 #
straight-curve $-1 19.132506765031074 -41.45304992946528 7.1891569114253659 1 0 0 I I #
coedge $-1 $357 $244 $247 $371 forward $237 $-1 #
coedge $-1 $244 $357 $362 $467 forward $237 $-1 #
vertex $-1 $245 $471 #
straight-curve $-1 29.05148026036553 -58.097235231766142 17.32977094206916 0 -1 0 I I #
straight-curve $-1 29.05148026036553 -41.453049929465294 7.1891569114253571 0 0.78801074757464917 0.61566148304635926 I I #
edge $-1 $249 29.05148026036553 $465 47.478546799758767 $247 $472 forward 7 unknown #
point $-1 29.05148026036553 -41.45304992946528 17.32977094206916 #
point $-1 29.05148026036553 -41.45304992946528 7.1891569114253686 #
edge $-1 $473 1 $473 0 $252 $-1 forward 7 unknown #
vertex $-1 $253 $474 #
ellipse-curve $-1 32.73689356824417 -33.413517729247403 10.275765250504625 0 -0.61566148304635926 0.78801074757464917 1 0 0 1 I I #
point $-1 33.73689356824417 -34.963353023615582 12.259463926747262 #
edge $-1 $475 1 $475 0 $256 $-1 forward 7 unknown #
vertex $-1 $257 $476 #
ellipse-curve $-1 38.265013530062149 -33.413517729247403 10.275765250504625 0 -0.61566148304635926 0.78801074757464917 1 0 0 1 I I #
point $-1 39.265013530062149 -34.963353023615582 12.259463926747262 #
edge $-1 $477 1 $477 0 $260 $-1 forward 7 unknown #
vertex $-1 $261 $478 #
ellipse-curve $-1 43.793133491880113 -33.413517729247403 10.275765250504625 0 -0.61566148304635926 0.78801074757464917 1 0 0 1 I I #
point $-1 44.793133491880113 -34.963353023615582 12.259463926747262 #
plane-surface $-1 0 0 17.32977094206916 0 0 1 1 0 0 forward_v I I I I #
coedge $-1 $397 $396 $389 $479 forward $265 $-1 #
coedge $-1 $389 $267 $269 $393 reversed $171 $-1 #
coedge $-1 $267 $388 $387 $479 reversed $171 $-1 #
coedge $-1 $275 $270 $267 $391 forward $276 $-1 #
edge $-1 $394 8.7977783636838183 $480 21.149598064456107 $390 $481 forward 7 unknown #
coedge $-1 $269 $268 $397 $482 reversed $108 $-1 #
edge $-1 $483 -82.90609985893056 $394 -68.007113151077291 $388 $484 forward 7 unknown #
vertex $-1 $271 $485 #
straight-curve $-1 -15.013823195162811 29.101230228692991 17.329770942069157 1 0 0 I I #
coedge $-1 $387 $272 $275 $401 reversed $265 $-1 #
coedge $-1 $272 $387 $392 $482 forward $265 $-1 #
vertex $-1 $273 $486 #
straight-curve $-1 -38.723273505650077 41.45304992946528 78.002092037573505 0 0 1 I I #
straight-curve $-1 -38.723273505650077 -27.279221441174968 55.358866495935715 0 0.82903756765294845 -0.55919291073839883 I I #
edge $-1 $480 21.332019275001166 $277 38.723273505650077 $396 $487 forward 7 unknown #
point $-1 -38.723273505650077 41.45304992946528 17.32977094206916 #
point $-1 -38.723273505650077 29.101230228692991 17.32977094206916 #
edge $-1 $488 1 $488 0 $280 $-1 forward 7 unknown #
vertex $-1 $281 $489 #
ellipse-curve $-1 -30.027646390325621 32.387749163808785 8.8803689572088 0 0.55919291073839883 0.82903756765294845 1.5 0 0 1 I I #
point $-1 -28.527646390325621 35.277140079079111 13.164067069960559 #
loop $-1 $-1 $292 $284 #
plane-surface $-1 0 41.45304992946528 0 0 -1 0 0 0 -1 forward_v I I I I #
coedge $-1 $411 $287 $289 $415 reversed $186 $-1 #
coedge $-1 $287 $410 $490 $491 reversed $186 $-1 #
coedge $-1 $295 $290 $287 $413 forward $285 $-1 #
edge $-1 $416 8.7977783636838183 $492 21.149598064456107 $412 $493 forward 7 unknown #
coedge $-1 $289 $288 $419 $494 reversed $117 $-1 #
edge $-1 $495 -82.90609985893056 $416 -68.007113151077291 $410 $496 forward 7 unknown #
vertex $-1 $291 $497 #
straight-curve $-1 10.628713765116224 29.101230228692991 17.329770942069157 1 0 0 I I #
coedge $-1 $490 $292 $295 $423 reversed $408 $-1 #
coedge $-1 $292 $490 $414 $494 forward $408 $-1 #
vertex $-1 $293 $498 #
straight-curve $-1 12.56180041490799 41.45304992946528 78.002092037573505 0 0 1 I I #
straight-curve $-1 12.56180041490799 -27.279221441174968 55.358866495935715 0 0.82903756765294845 -0.55919291073839883 I I #
edge $-1 $492 -29.953054645556904 $296 -12.56180041490799 $418 $499 forward 7 unknown #
point $-1 12.56180041490799 41.45304992946528 17.32977094206916 #
point $-1 12.56180041490799 29.101230228692991 17.32977094206916 #
edge $-1 $500 1 $500 0 $299 $-1 forward 7 unknown #
vertex $-1 $300 $501 #
ellipse-curve $-1 21.257427530232448 32.387749163808785 8.8803689572088 0 0.55919291073839883 0.82903756765294845 1.5 0 0 1 I I #
point $-1 22.757427530232448 35.277140079079111 13.164067069960559 #
plane-surface $-1 60.70009460737937 0 0 -1 0 0 0 0 1 forward_v I I I I #
coedge $-1 $308 $306 $310 $435 reversed $201 $-1 #
edge $-1 $321 -17.32977094206916 $437 17.32977094206916 $320 $502 forward 7 unknown #
vertex $-1 $435 $503 #
straight-curve $-1 -60.70009460737937 -41.45304992946528 0 0 0 -1 I I #
edge $-1 $433 -41.45304992946528 $437 41.45304992946528 $431 $504 forward 7 unknown #
straight-curve $-1 0 -41.45304992946528 -17.32977094206916 -1 0 0 I I #
vertex $-1 $313 $505 #
straight-curve $-1 0 41.45304992946528 -17.32977094206916 1 0 0 I I #
point $-1 60.70009460737937 41.45304992946528 -17.32977094206916 #
point $-1 60.70009460737937 -41.45304992946528 -17.32977094206916 #
straight-curve $-1 -60.70009460737937 0 17.32977094206916 0 -1 0 I I #
point $-1 -60.70009460737937 41.45304992946528 17.32977094206916 #
point $-1 -60.70009460737937 -41.45304992946528 17.32977094206916 #
straight-curve $-1 60.70009460737937 -41.45304992946528 0 0 0 -1 I I #
straight-curve $-1 60.70009460737937 41.45304992946528 0 0 0 -1 I I #
plane-surface $-1 0 41.45304992946528 0 0 -1 0 0 0 -1 forward_v I I I I #
coedge $-1 $457 $456 $336 $449 forward $331 $-1 #
straight-curve $-1 -41.870053233736755 -41.45304992946528 -2.5640625907700478 0 0 1 I I #
edge $-1 $452 -41.45304992946528 $450 41.45304992946528 $447 $506 forward 7 unknown #
vertex $-1 $337 $507 #
straight-curve $-1 -25.642536960279031 -41.45304992946528 -7.288330553190888 1 0 0 I I #
vertex $-1 $339 $508 #
straight-curve $-1 -25.642536960279031 41.45304992946528 -7.288330553190888 -1 0 0 I I #
point $-1 -41.870053233736755 41.45304992946528 -7.288330553190888 #
point $-1 -41.870053233736755 -41.45304992946528 -7.288330553190888 #
coedge $-1 $447 $343 $346 $459 forward $331 $-1 #
coedge $-1 $343 $447 $350 $461 reversed $331 $-1 #
straight-curve $-1 -60.70009460737937 0 -2.9679198098893034 0 1 0 I I #
edge $-1 $348 2.9679198098893034 $452 7.288330553190888 $346 $509 forward 7 unknown #
point $-1 -60.70009460737937 41.45304992946528 -2.9679198098893034 #
edge $-1 $351 2.9679198098893034 $450 7.288330553190888 $457 $510 forward 7 unknown #
point $-1 -60.70009460737937 -41.45304992946528 -2.9679198098893034 #
straight-curve $-1 -41.870053233736755 41.45304992946528 -2.5640625907700478 0 0 -1 I I #
edge $-1 $465 16.644185302300862 $468 29.623579114000265 $357 $511 forward 7 unknown #
vertex $-1 $464 $512 #
straight-curve $-1 47.478546799758767 -41.45304992946528 51.426905385125629 0 0 1 I I #
edge $-1 $468 -28.346040034727693 $368 -9.9189734953344555 $367 $513 forward 7 unknown #
vertex $-1 $467 $514 #
straight-curve $-1 47.478546799758767 -41.453049929465294 7.1891569114253571 0 -0.78801074757464917 -0.61566148304635926 I I #
point $-1 47.478546799758767 -41.45304992946528 7.1891569114253686 #
point $-1 29.05148026036553 -28.473656117765877 17.32977094206916 #
straight-curve $-1 0 -41.45304992946528 17.32977094206916 1 0 0 I I #
vertex $-1 $374 $515 #
point $-1 33.73689356824417 -33.413517729247403 10.275765250504625 #
vertex $-1 $378 $516 #
point $-1 39.265013530062149 -33.413517729247403 10.275765250504625 #
vertex $-1 $382 $517 #
point $-1 44.793133491880113 -33.413517729247403 10.275765250504625 #
edge $-1 $480 60.672321095504344 $483 69.003728839721532 $387 $518 forward 7 unknown #
vertex $-1 $401 $519 #
straight-curve $-1 -21.332019275001166 20.303451865009173 17.32977094206916 0 1 0 I I #
edge $-1 $483 6.318196079838355 $398 23.709450310487266 $397 $520 forward 7 unknown #
vertex $-1 $482 $521 #
straight-curve $-1 -21.332019275001166 -27.279221441174968 55.358866495935715 0 -0.82903756765294845 0.55919291073839883 I I #
point $-1 -21.332019275001166 29.101230228692991 17.32977094206916 #
point $-1 -38.723273505650077 41.45304992946528 8.9983631978519796 #
straight-curve $-1 0 41.45304992946528 17.32977094206916 -1 0 0 I I #
vertex $-1 $404 $522 #
point $-1 -28.527646390325621 32.387749163808785 8.8803689572088 #
coedge $-1 $419 $418 $411 $491 forward $408 $-1 #
edge $-1 $492 60.672321095504344 $495 69.003728839721532 $490 $523 forward 7 unknown #
vertex $-1 $423 $524 #
straight-curve $-1 29.953054645556904 20.303451865009173 17.32977094206916 0 1 0 I I #
edge $-1 $495 -19.32434088044068 $420 -1.9330866497917665 $419 $525 forward 7 unknown #
vertex $-1 $494 $526 #
straight-curve $-1 29.953054645556904 -27.279221441174968 55.358866495935715 0 -0.82903756765294845 0.55919291073839883 I I #
point $-1 29.953054645556904 29.101230228692991 17.32977094206916 #
point $-1 12.56180041490799 41.45304992946528 8.9983631978519796 #
straight-curve $-1 0 41.45304992946528 17.32977094206916 -1 0 0 I I #
vertex $-1 $426 $527 #
point $-1 22.757427530232448 32.387749163808785 8.8803689572088 #
straight-curve $-1 -60.70009460737937 41.45304992946528 0 0 0 -1 I I #
point $-1 -60.70009460737937 -41.45304992946528 -17.32977094206916 #
straight-curve $-1 -60.70009460737937 0 -17.32977094206916 0 1 0 I I #
point $-1 -60.70009460737937 41.45304992946528 -17.32977094206916 #
straight-curve $-1 -60.70009460737937 0 -7.288330553190888 0 -1 0 I I #
point $-1 -60.70009460737937 -41.45304992946528 -7.288330553190888 #
point $-1 -60.70009460737937 41.45304992946528 -7.288330553190888 #
straight-curve $-1 -60.70009460737937 41.45304992946528 0 0 0 -1 I I #
straight-curve $-1 -60.70009460737937 -41.45304992946528 0 0 0 -1 I I #
straight-curve $-1 47.478546799758767 -58.097235231766142 17.32977094206916 0 1 0 I I #
point $-1 47.478546799758767 -41.45304992946528 17.32977094206916 #
straight-curve $-1 19.132506765031074 -28.473656117765884 17.32977094206916 -1 0 0 I I #
point $-1 47.478546799758767 -28.473656117765877 17.32977094206916 #
point $-1 32.73689356824417 -32.79785624620105 9.4877545029299757 #
point $-1 38.265013530062149 -32.79785624620105 9.4877545029299757 #
point $-1 43.793133491880113 -32.79785624620105 9.4877545029299757 #
straight-curve $-1 -21.332019275001166 41.45304992946528 78.002092037573505 0 0 -1 I I #
point $-1 -21.332019275001166 41.45304992946528 17.32977094206916 #
straight-curve $-1 -15.013823195162811 41.45304992946528 8.9983631978519689 -1 0 0 I I #
point $-1 -21.332019275001166 41.45304992946528 8.9983631978519796 #
point $-1 -30.027646390325621 31.548959797701183 7.6368126057293768 #
straight-curve $-1 29.953054645556904 41.45304992946528 78.002092037573505 0 0 -1 I I #
point $-1 29.953054645556904 41.45304992946528 17.32977094206916 #
straight-curve $-1 10.628713765116224 41.45304992946528 8.9983631978519689 -1 0 0 I I #
point $-1 29.953054645556904 41.45304992946528 8.9983631978519796 #
point $-1 21.257427530232448 31.548959797701183 7.6368126057293768 #
End-of-ACIS-data 