500 0 10 0           
7 Unknown 11 ACIS 5.0 NT 24 Thu Mar 25 16:30:14 1999 
-1 9.9999999999999995e-007 1e-010 
body $-1 $10 $-1 $11 #
body $-1 $12 $-1 $13 #
body $-1 $14 $-1 $15 #
body $-1 $16 $-1 $17 #
body $-1 $18 $-1 $19 #
body $-1 $20 $-1 $21 #
body $-1 $22 $-1 $23 #
body $-1 $24 $-1 $25 #
body $-1 $26 $-1 $27 #
body $-1 $28 $-1 $29 #
lump $-1 $-1 $30 $0 #
transform $-1 1 0 0 0 1 0 0 0 1 53.508713034455397 21.445616772859552 4.9716237107454369 1 rotate no_reflect no_shear #
lump $-1 $-1 $31 $1 #
transform $-1 1 0 0 0 1 0 0 0 1 53.508713034455397 21.445616772859552 4.9716237107454369 1 rotate no_reflect no_shear #
lump $-1 $-1 $32 $2 #
transform $-1 1 0 0 0 1 0 0 0 1 53.508713034455397 21.445616772859552 4.9716237107454369 1 rotate no_reflect no_shear #
lump $-1 $-1 $33 $3 #
transform $-1 1 0 0 0 1 0 0 0 1 53.508713034455397 21.445616772859552 4.9716237107454369 1 rotate no_reflect no_shear #
lump $-1 $-1 $34 $4 #
transform $-1 1 0 0 0 1 0 0 0 1 53.508713034455397 21.445616772859552 4.9716237107454369 1 rotate no_reflect no_shear #
lump $-1 $-1 $35 $5 #
transform $-1 1 0 0 0 1 0 0 0 1 53.508713034455397 21.445616772859552 4.9716237107454369 1 rotate no_reflect no_shear #
lump $-1 $-1 $36 $6 #
transform $-1 1 0 0 0 1 0 0 0 1 53.508713034455397 21.445616772859552 4.9716237107454369 1 rotate no_reflect no_shear #
lump $-1 $-1 $37 $7 #
transform $-1 1 0 0 0 1 0 0 0 1 53.508713034455397 21.445616772859552 4.9716237107454369 1 rotate no_reflect no_shear #
lump $-1 $-1 $38 $8 #
transform $-1 1 0 0 0 1 0 0 0 1 53.508713034455397 21.445616772859552 4.9716237107454369 1 rotate no_reflect no_shear #
lump $-1 $-1 $39 $9 #
transform $-1 1 0 0 0 1 0 0 0 1 53.508713034455397 21.445616772859552 4.9716237107454369 1 rotate no_reflect no_shear #
shell $-1 $-1 $-1 $40 $-1 $10 #
shell $-1 $-1 $-1 $41 $-1 $12 #
shell $-1 $-1 $-1 $42 $-1 $14 #
shell $-1 $-1 $-1 $43 $-1 $16 #
shell $-1 $-1 $-1 $44 $-1 $18 #
shell $-1 $-1 $-1 $45 $-1 $20 #
shell $-1 $-1 $-1 $46 $-1 $22 #
shell $-1 $-1 $-1 $47 $-1 $24 #
shell $-1 $-1 $-1 $48 $-1 $26 #
shell $-1 $-1 $-1 $49 $-1 $28 #
face $-1 $50 $51 $30 $-1 $52 forward single #
face $-1 $53 $54 $31 $-1 $55 forward single #
face $-1 $56 $57 $32 $-1 $58 reversed single #
face $-1 $59 $60 $33 $-1 $61 forward single #
face $-1 $62 $63 $34 $-1 $64 forward single #
face $-1 $65 $66 $35 $-1 $67 forward single #
face $-1 $68 $69 $36 $-1 $70 reversed single #
face $-1 $71 $72 $37 $-1 $73 forward single #
face $-1 $74 $75 $38 $-1 $76 forward single #
face $-1 $77 $78 $39 $-1 $79 forward single #
face $-1 $80 $81 $30 $-1 $82 reversed single #
loop $-1 $-1 $83 $40 #
plane-surface $-1 0 0 4.9716237107454369 0 0 1 1 0 0 forward_v I I I I #
face $-1 $84 $85 $31 $-1 $86 reversed single #
loop $-1 $-1 $87 $41 #
plane-surface $-1 0 -21.445616772859552 0 0 1 0 0 0 1 forward_v I I I I #
face $-1 $88 $89 $32 $-1 $90 reversed single #
loop $-1 $-1 $91 $42 #
plane-surface $-1 -25.477182394962995 89.47265167558011 94.011839498984642 1 0 0 0 -0.84804810408105047 -0.52991925155115449 forward_v I I I I #
face $-1 $92 $93 $33 $-1 $94 forward single #
loop $-1 $95 $96 $43 #
cone-surface $-1 -20.381745915970399 19.758042000858122 2.6845601713330214 0 -0.84804810408105047 -0.52991925155115449 0.25 0 0 1 I I 0 1 0.25 forward I I I I #
face $-1 $97 $98 $34 $-1 $99 forward single #
loop $-1 $100 $101 $44 #
cone-surface $-1 -12.738591197481497 19.758042000858122 2.6845601713330214 0 -0.84804810408105047 -0.52991925155115449 0.25 0 0 1 I I 0 1 0.25 forward I I I I #
face $-1 $102 $103 $35 $-1 $104 forward single #
loop $-1 $105 $106 $45 #
cone-surface $-1 -5.0954364789925961 19.758042000858122 2.6845601713330214 0 -0.84804810408105047 -0.52991925155115449 0.25 0 0 1 I I 0 1 0.25 forward I I I I #
face $-1 $107 $108 $36 $-1 $109 reversed single #
loop $-1 $-1 $110 $46 #
plane-surface $-1 28.031530639492402 89.47265167558011 94.011839498984642 1 0 0 0 -0.84804810408105047 -0.52991925155115449 forward_v I I I I #
face $-1 $111 $112 $37 $-1 $113 forward single #
loop $-1 $114 $115 $47 #
cone-surface $-1 33.126967118484998 19.758042000858122 2.6845601713330214 0 -0.84804810408105047 -0.52991925155115449 0.25 0 0 1 I I 0 1 0.25 forward I I I I #
face $-1 $116 $117 $38 $-1 $118 forward single #
loop $-1 $119 $120 $48 #
cone-surface $-1 40.7701218369739 19.758042000858122 2.6845601713330214 0 -0.84804810408105047 -0.52991925155115449 0.25 0 0 1 I I 0 1 0.25 forward I I I I #
face $-1 $121 $122 $39 $-1 $123 forward single #
loop $-1 $124 $125 $49 #
cone-surface $-1 48.413276555462801 19.758042000858122 2.6845601713330214 0 -0.84804810408105047 -0.52991925155115449 0.25 0 0 1 I I 0 1 0.25 forward I I I I #
face $-1 $126 $127 $30 $-1 $128 reversed single #
loop $-1 $-1 $129 $50 #
plane-surface $-1 0 0 -4.9716237107454369 0 0 1 1 0 0 forward_v I I I I #
coedge $-1 $130 $131 $132 $133 forward $51 $-1 #
face $-1 $134 $135 $31 $-1 $136 forward single #
loop $-1 $-1 $137 $53 #
plane-surface $-1 -53.508713034455397 0 0 1 0 0 0 0 -1 forward_v I I I I #
coedge $-1 $138 $139 $140 $141 forward $54 $-1 #
face $-1 $142 $143 $32 $-1 $144 reversed single #
loop $-1 $-1 $145 $56 #
plane-surface $-1 -12.738591197481497 -1.2832736057936813 37.301245173616422 0 0.84804810408105047 0.52991925155115449 1 0 0 forward_v I I I I #
coedge $-1 $146 $147 $148 $149 reversed $57 $-1 #
face $-1 $-1 $150 $33 $-1 $151 forward single #
loop $-1 $152 $153 $59 #
cone-surface $-1 -20.381745915970399 19.228011935807466 2.35336063911355 0 -0.84804810408105047 -0.52991925155115449 0.125 0 0 1 I I -0.70710678118654746 0.70710678118654746 0.125 forward I I I I #
loop $-1 $-1 $154 $43 #
coedge $-1 $96 $96 $155 $156 reversed $60 $-1 #
face $-1 $-1 $157 $34 $-1 $158 forward single #
loop $-1 $159 $160 $62 #
cone-surface $-1 -12.738591197481497 19.228011935807466 2.35336063911355 0 -0.84804810408105047 -0.52991925155115449 0.125 0 0 1 I I -0.70710678118654746 0.70710678118654746 0.125 forward I I I I #
loop $-1 $-1 $161 $44 #
coedge $-1 $101 $101 $162 $163 reversed $63 $-1 #
face $-1 $-1 $164 $35 $-1 $165 forward single #
loop $-1 $166 $167 $65 #
cone-surface $-1 -5.0954364789925961 19.228011935807466 2.35336063911355 0 -0.84804810408105047 -0.52991925155115449 0.125 0 0 1 I I -0.70710678118654746 0.70710678118654746 0.125 forward I I I I #
loop $-1 $-1 $168 $45 #
coedge $-1 $106 $106 $169 $170 reversed $66 $-1 #
face $-1 $171 $172 $36 $-1 $173 forward single #
loop $-1 $-1 $174 $68 #
plane-surface $-1 40.7701218369739 -1.2832736057936813 37.301245173616422 0 0.84804810408105047 0.52991925155115449 1 0 0 forward_v I I I I #
coedge $-1 $175 $176 $177 $178 reversed $69 $-1 #
face $-1 $-1 $179 $37 $-1 $180 forward single #
loop $-1 $181 $182 $71 #
cone-surface $-1 33.126967118484998 19.228011935807466 2.35336063911355 0 -0.84804810408105047 -0.52991925155115449 0.125 0 0 1 I I -0.70710678118654746 0.70710678118654746 0.125 forward I I I I #
loop $-1 $-1 $183 $47 #
coedge $-1 $115 $115 $184 $185 reversed $72 $-1 #
face $-1 $-1 $186 $38 $-1 $187 forward single #
loop $-1 $188 $189 $74 #
cone-surface $-1 40.7701218369739 19.228011935807466 2.35336063911355 0 -0.84804810408105047 -0.52991925155115449 0.125 0 0 1 I I -0.70710678118654746 0.70710678118654746 0.125 forward I I I I #
loop $-1 $-1 $190 $48 #
coedge $-1 $120 $120 $191 $192 reversed $75 $-1 #
face $-1 $-1 $193 $39 $-1 $194 forward single #
loop $-1 $195 $196 $77 #
cone-surface $-1 48.413276555462801 19.228011935807466 2.35336063911355 0 -0.84804810408105047 -0.52991925155115449 0.125 0 0 1 I I -0.70710678118654746 0.70710678118654746 0.125 forward I I I I #
loop $-1 $-1 $197 $49 #
coedge $-1 $125 $125 $198 $199 reversed $78 $-1 #
face $-1 $200 $201 $30 $-1 $202 reversed single #
loop $-1 $-1 $203 $80 #
plane-surface $-1 0 -21.445616772859552 0 0 1 0 0 0 1 forward_v I I I I #
coedge $-1 $204 $205 $206 $207 forward $81 $-1 #
coedge $-1 $208 $83 $209 $210 forward $51 $-1 #
coedge $-1 $83 $208 $211 $212 forward $51 $-1 #
coedge $-1 $213 $214 $83 $133 reversed $215 $-1 #
edge $-1 $216 -21.445616772859552 $217 21.445616772859552 $132 $218 forward 7 unknown #
face $-1 $219 $220 $31 $-1 $221 reversed single #
loop $-1 $-1 $222 $84 #
plane-surface $-1 0 -23.315522028253536 -0.23597077854438897 0 0 1 1 0 0 forward_v I I I I #
coedge $-1 $223 $224 $139 $225 forward $85 $-1 #
coedge $-1 $226 $87 $227 $228 reversed $54 $-1 #
coedge $-1 $87 $226 $137 $225 reversed $54 $-1 #
coedge $-1 $229 $222 $87 $141 reversed $135 $-1 #
edge $-1 $230 -53.508713034455397 $231 53.508713034455397 $140 $232 forward 7 unknown #
face $-1 $233 $234 $32 $-1 $235 forward single #
loop $-1 $-1 $236 $88 #
plane-surface $-1 0 89.47265167558011 94.011839498984642 -1 0 0 0 0.84804810408105047 0.52991925155115449 forward_v I I I I #
coedge $-1 $237 $238 $239 $240 reversed $89 $-1 #
coedge $-1 $147 $91 $241 $242 reversed $57 $-1 #
coedge $-1 $91 $146 $237 $243 reversed $57 $-1 #
coedge $-1 $239 $244 $91 $149 forward $234 $-1 #
edge $-1 $245 23.290709064930503 $246 25.817810504852297 $148 $247 forward 7 unknown #
loop $-1 $-1 $155 $92 #
plane-surface $-1 -12.738591197481497 -1.2832736057936813 37.301245173616422 0 0.84804810408105047 0.52991925155115449 1 0 0 forward_v I I I I #
loop $-1 $-1 $248 $59 #
coedge $-1 $153 $153 $154 $249 reversed $93 $-1 #
coedge $-1 $154 $154 $153 $249 forward $95 $-1 #
coedge $-1 $155 $155 $96 $156 forward $150 $-1 #
edge $-1 $250 1.5127350679924191e-015 $250 6.2831853071796022 $155 $251 forward 7 unknown #
loop $-1 $-1 $162 $97 #
plane-surface $-1 -12.738591197481497 -1.2832736057936813 37.301245173616422 0 0.84804810408105047 0.52991925155115449 1 0 0 forward_v I I I I #
loop $-1 $-1 $252 $62 #
coedge $-1 $160 $160 $161 $253 reversed $98 $-1 #
coedge $-1 $161 $161 $160 $253 forward $100 $-1 #
coedge $-1 $162 $162 $101 $163 forward $157 $-1 #
edge $-1 $254 1.5127350679924191e-015 $254 6.2831853071796022 $162 $255 forward 7 unknown #
loop $-1 $-1 $169 $102 #
plane-surface $-1 -12.738591197481497 -1.2832736057936813 37.301245173616422 0 0.84804810408105047 0.52991925155115449 1 0 0 forward_v I I I I #
loop $-1 $-1 $256 $65 #
coedge $-1 $167 $167 $168 $257 reversed $103 $-1 #
coedge $-1 $168 $168 $167 $257 forward $105 $-1 #
coedge $-1 $169 $169 $106 $170 forward $164 $-1 #
edge $-1 $258 1.5127350679924191e-015 $258 6.2831853071796022 $169 $259 forward 7 unknown #
face $-1 $260 $261 $36 $-1 $262 reversed single #
loop $-1 $-1 $177 $107 #
plane-surface $-1 0 0 4.9716237107454369 0 0 1 1 0 0 forward_v I I I I #
coedge $-1 $263 $264 $265 $266 reversed $108 $-1 #
coedge $-1 $176 $110 $267 $268 reversed $69 $-1 #
coedge $-1 $110 $175 $263 $269 reversed $69 $-1 #
coedge $-1 $265 $270 $110 $178 forward $172 $-1 #
edge $-1 $271 23.290709064930503 $272 25.817810504852297 $177 $273 forward 7 unknown #
loop $-1 $-1 $184 $111 #
plane-surface $-1 40.7701218369739 -1.2832736057936813 37.301245173616422 0 0.84804810408105047 0.52991925155115449 1 0 0 forward_v I I I I #
loop $-1 $-1 $274 $71 #
coedge $-1 $182 $182 $183 $275 reversed $112 $-1 #
coedge $-1 $183 $183 $182 $275 forward $114 $-1 #
coedge $-1 $184 $184 $115 $185 forward $179 $-1 #
edge $-1 $276 1.5127350679924191e-015 $276 6.2831853071796022 $184 $277 forward 7 unknown #
loop $-1 $-1 $191 $116 #
plane-surface $-1 40.7701218369739 -1.2832736057936813 37.301245173616422 0 0.84804810408105047 0.52991925155115449 1 0 0 forward_v I I I I #
loop $-1 $-1 $278 $74 #
coedge $-1 $189 $189 $190 $279 reversed $117 $-1 #
coedge $-1 $190 $190 $189 $279 forward $119 $-1 #
coedge $-1 $191 $191 $120 $192 forward $186 $-1 #
edge $-1 $280 1.5127350679924191e-015 $280 6.2831853071796022 $191 $281 forward 7 unknown #
loop $-1 $-1 $198 $121 #
plane-surface $-1 40.7701218369739 -1.2832736057936813 37.301245173616422 0 0.84804810408105047 0.52991925155115449 1 0 0 forward_v I I I I #
loop $-1 $-1 $282 $77 #
coedge $-1 $196 $196 $197 $283 reversed $122 $-1 #
coedge $-1 $197 $197 $196 $283 forward $124 $-1 #
coedge $-1 $198 $198 $125 $199 forward $193 $-1 #
edge $-1 $284 1.5127350679924191e-015 $284 6.2831853071796022 $198 $285 forward 7 unknown #
face $-1 $286 $287 $30 $-1 $288 reversed single #
loop $-1 $-1 $289 $126 #
plane-surface $-1 -53.508713034455397 0 0 1 0 0 0 0 -1 forward_v I I I I #
coedge $-1 $290 $211 $291 $292 forward $127 $-1 #
coedge $-1 $293 $129 $290 $294 forward $81 $-1 #
coedge $-1 $129 $293 $295 $296 forward $81 $-1 #
coedge $-1 $214 $213 $129 $207 reversed $215 $-1 #
edge $-1 $297 -21.445616772859552 $298 21.445616772859552 $206 $299 forward 7 unknown #
coedge $-1 $131 $130 $300 $301 forward $51 $-1 #
coedge $-1 $302 $303 $130 $210 reversed $287 $-1 #
edge $-1 $217 -53.508713034455397 $304 53.508713034455397 $209 $305 forward 7 unknown #
coedge $-1 $203 $306 $131 $212 reversed $127 $-1 #
edge $-1 $307 -53.508713034455397 $216 53.508713034455397 $211 $308 forward 7 unknown #
coedge $-1 $206 $132 $306 $309 forward $215 $-1 #
coedge $-1 $132 $206 $302 $310 reversed $215 $-1 #
loop $-1 $-1 $213 $286 #
vertex $-1 $133 $311 #
vertex $-1 $133 $312 #
straight-curve $-1 53.508713034455397 0 4.9716237107454369 0 1 0 I I #
face $-1 $313 $314 $31 $-1 $315 reversed single #
loop $-1 $-1 $316 $134 #
plane-surface $-1 0 -23.315522028253536 -3.235970778544389 0 0 1 1 0 0 forward_v I I I I #
coedge $-1 $140 $317 $318 $319 forward $135 $-1 #
coedge $-1 $320 $137 $321 $322 reversed $85 $-1 #
coedge $-1 $137 $320 $229 $323 reversed $85 $-1 #
edge $-1 $230 0.23597077854438897 $324 3.235970778544389 $137 $325 forward 7 unknown #
coedge $-1 $139 $138 $326 $327 forward $54 $-1 #
coedge $-1 $318 $328 $138 $228 forward $329 $-1 #
edge $-1 $330 -3.235970778544389 $231 -0.23597077854438897 $227 $331 forward 7 unknown #
coedge $-1 $317 $140 $224 $323 forward $135 $-1 #
vertex $-1 $225 $332 #
vertex $-1 $319 $333 #
straight-curve $-1 0 -21.445616772859552 -0.23597077854438897 1 0 0 I I #
face $-1 $-1 $334 $32 $-1 $335 reversed single #
loop $-1 $-1 $148 $142 #
plane-surface $-1 0 0 4.9716237107454369 0 0 1 1 0 0 forward_v I I I I #
coedge $-1 $336 $337 $338 $339 reversed $143 $-1 #
coedge $-1 $340 $145 $147 $243 forward $89 $-1 #
coedge $-1 $145 $340 $336 $341 forward $89 $-1 #
coedge $-1 $338 $148 $145 $240 forward $234 $-1 #
edge $-1 $246 -19.107886796222246 $342 6.3692955987407487 $239 $343 forward 7 unknown #
coedge $-1 $344 $345 $146 $242 forward $334 $-1 #
edge $-1 $346 -46.078503866020533 $245 -42.034296038746888 $241 $347 forward 7 unknown #
edge $-1 $246 38.122391061652735 $346 42.891233545719096 $147 $348 forward 7 unknown #
coedge $-1 $148 $338 $344 $349 forward $234 $-1 #
vertex $-1 $242 $350 #
vertex $-1 $149 $351 #
straight-curve $-1 -25.477182394962995 44.736325837790055 4.9716237107454333 0 -1 0 I I #
coedge $-1 $248 $248 $-1 $352 reversed $152 $-1 #
edge $-1 $353 0 $353 6.2831853071796004 $153 $354 forward 7 unknown #
vertex $-1 $156 $355 #
ellipse-curve $-1 -20.381745915970399 20.182066052898662 2.949519797108608 0 0.84804810408105047 0.52991925155115449 0.25 0 0 1 I I #
coedge $-1 $252 $252 $-1 $356 reversed $159 $-1 #
edge $-1 $357 0 $357 6.2831853071796004 $160 $358 forward 7 unknown #
vertex $-1 $163 $359 #
ellipse-curve $-1 -12.738591197481497 20.182066052898662 2.949519797108608 0 0.84804810408105047 0.52991925155115449 0.25 0 0 1 I I #
coedge $-1 $256 $256 $-1 $360 reversed $166 $-1 #
edge $-1 $361 0 $361 6.2831853071796004 $167 $362 forward 7 unknown #
vertex $-1 $170 $363 #
ellipse-curve $-1 -5.0954364789925961 20.182066052898662 2.949519797108608 0 0.84804810408105047 0.52991925155115449 0.25 0 0 1 I I #
face $-1 $-1 $364 $36 $-1 $365 reversed single #
loop $-1 $-1 $366 $171 #
plane-surface $-1 53.508713034455397 0 0 -1 0 0 0 0 1 forward_v I I I I #
coedge $-1 $367 $174 $176 $269 forward $108 $-1 #
coedge $-1 $174 $367 $366 $368 reversed $108 $-1 #
coedge $-1 $369 $177 $174 $266 forward $172 $-1 #
edge $-1 $272 7.6464697210054524 $370 33.123652115968447 $265 $371 forward 7 unknown #
coedge $-1 $372 $373 $175 $268 forward $364 $-1 #
edge $-1 $374 -46.078503866020533 $271 -42.034296038746888 $267 $375 forward 7 unknown #
edge $-1 $272 38.122391061652735 $374 42.891233545719096 $176 $376 forward 7 unknown #
coedge $-1 $177 $369 $372 $377 forward $172 $-1 #
vertex $-1 $268 $378 #
vertex $-1 $178 $379 #
straight-curve $-1 28.031530639492402 44.736325837790055 4.9716237107454333 0 -1 0 I I #
coedge $-1 $274 $274 $-1 $380 reversed $181 $-1 #
edge $-1 $381 0 $381 6.2831853071796004 $182 $382 forward 7 unknown #
vertex $-1 $185 $383 #
ellipse-curve $-1 33.126967118484998 20.182066052898662 2.949519797108608 0 0.84804810408105047 0.52991925155115449 0.25 0 0 1 I I #
coedge $-1 $278 $278 $-1 $384 reversed $188 $-1 #
edge $-1 $385 0 $385 6.2831853071796004 $189 $386 forward 7 unknown #
vertex $-1 $192 $387 #
ellipse-curve $-1 40.7701218369739 20.182066052898662 2.949519797108608 0 0.84804810408105047 0.52991925155115449 0.25 0 0 1 I I #
coedge $-1 $282 $282 $-1 $388 reversed $195 $-1 #
edge $-1 $389 0 $389 6.2831853071796004 $196 $390 forward 7 unknown #
vertex $-1 $199 $391 #
ellipse-curve $-1 48.413276555462801 20.182066052898662 2.949519797108608 0 0.84804810408105047 0.52991925155115449 0.25 0 0 1 I I #
face $-1 $-1 $215 $30 $-1 $392 reversed single #
loop $-1 $-1 $302 $200 #
plane-surface $-1 0 21.445616772859552 0 0 -1 0 0 0 -1 forward_v I I I I #
coedge $-1 $393 $300 $303 $394 forward $201 $-1 #
coedge $-1 $306 $203 $204 $294 reversed $127 $-1 #
coedge $-1 $300 $393 $203 $292 reversed $201 $-1 #
edge $-1 $307 -4.9716237107454369 $395 4.9716237107454369 $291 $396 forward 7 unknown #
coedge $-1 $205 $204 $393 $397 forward $81 $-1 #
edge $-1 $298 -53.508713034455397 $395 53.508713034455397 $290 $398 forward 7 unknown #
coedge $-1 $303 $302 $205 $296 reversed $287 $-1 #
edge $-1 $399 -53.508713034455397 $297 53.508713034455397 $295 $400 forward 7 unknown #
vertex $-1 $207 $401 #
vertex $-1 $309 $402 #
straight-curve $-1 53.508713034455397 0 -4.9716237107454369 0 -1 0 I I #
coedge $-1 $289 $291 $208 $301 reversed $201 $-1 #
edge $-1 $304 -21.445616772859552 $307 21.445616772859552 $300 $403 forward 7 unknown #
coedge $-1 $295 $209 $214 $310 forward $287 $-1 #
coedge $-1 $209 $295 $289 $394 reversed $287 $-1 #
vertex $-1 $210 $404 #
straight-curve $-1 0 21.445616772859552 4.9716237107454369 -1 0 0 I I #
coedge $-1 $211 $290 $213 $309 reversed $127 $-1 #
vertex $-1 $301 $405 #
straight-curve $-1 0 -21.445616772859552 4.9716237107454369 1 0 0 I I #
edge $-1 $216 -4.9716237107454369 $298 4.9716237107454369 $213 $406 forward 7 unknown #
edge $-1 $217 -4.9716237107454369 $297 4.9716237107454369 $214 $407 forward 7 unknown #
point $-1 53.508713034455397 -21.445616772859552 4.9716237107454369 #
point $-1 53.508713034455397 21.445616772859552 4.9716237107454369 #
face $-1 $-1 $329 $31 $-1 $408 reversed single #
loop $-1 $-1 $409 $219 #
plane-surface $-1 0 -25.18542728364752 -1.735970778544389 0 1 0 0 0 1 forward_v I I I I #
coedge $-1 $410 $326 $328 $411 forward $220 $-1 #
coedge $-1 $222 $229 $412 $413 forward $135 $-1 #
coedge $-1 $414 $227 $222 $319 reversed $329 $-1 #
edge $-1 $415 -1.8699052553939843 $231 1.8699052553939843 $318 $416 forward 7 unknown #
coedge $-1 $224 $223 $409 $417 reversed $85 $-1 #
coedge $-1 $326 $410 $223 $322 forward $220 $-1 #
edge $-1 $418 -1.8699052553939843 $324 1.8699052553939843 $223 $419 forward 7 unknown #
edge $-1 $230 -1.8699052553939843 $420 1.8699052553939843 $224 $421 forward 7 unknown #
vertex $-1 $225 $422 #
straight-curve $-1 -53.508713034455397 -21.445616772859552 0 0 0 -1 I I #
coedge $-1 $316 $321 $226 $327 reversed $220 $-1 #
edge $-1 $330 -53.508713034455397 $324 53.508713034455397 $326 $423 forward 7 unknown #
coedge $-1 $227 $414 $316 $411 reversed $329 $-1 #
loop $-1 $-1 $227 $313 #
vertex $-1 $228 $424 #
straight-curve $-1 53.508713034455397 -21.445616772859552 0 0 0 1 I I #
point $-1 -53.508713034455397 -21.445616772859552 -0.23597077854438897 #
point $-1 53.508713034455397 -21.445616772859552 -0.23597077854438897 #
loop $-1 $-1 $241 $233 #
plane-surface $-1 0 21.445616772859552 0 0 -1 0 0 0 -1 forward_v I I I I #
coedge $-1 $337 $236 $238 $341 reversed $143 $-1 #
coedge $-1 $236 $336 $425 $426 reversed $143 $-1 #
coedge $-1 $244 $239 $236 $339 forward $234 $-1 #
edge $-1 $342 -25.817810504852297 $427 -23.290709064930503 $338 $428 forward 7 unknown #
coedge $-1 $238 $237 $345 $429 reversed $89 $-1 #
edge $-1 $430 -42.891233545719096 $342 -38.122391061652735 $336 $431 forward 7 unknown #
vertex $-1 $240 $432 #
straight-curve $-1 -6.3692955987407487 18.918515332937758 4.9716237107454369 1 0 0 I I #
coedge $-1 $425 $241 $244 $349 reversed $334 $-1 #
coedge $-1 $241 $425 $340 $429 forward $334 $-1 #
vertex $-1 $242 $433 #
straight-curve $-1 -25.477182394962995 21.445616772859552 47.005919749492321 0 0 1 I I #
straight-curve $-1 -25.477182394962995 -1.2832736057936813 37.301245173616422 0 0.52991925155115449 -0.84804810408105047 I I #
edge $-1 $427 0 $245 25.477182394962995 $344 $434 forward 7 unknown #
point $-1 -25.477182394962995 21.445616772859552 4.9716237107454369 #
point $-1 -25.477182394962995 18.918515332937758 4.9716237107454333 #
edge $-1 $435 1 $435 0 $248 $-1 forward 7 unknown #
vertex $-1 $249 $436 #
ellipse-curve $-1 -20.381745915970399 19.334017948817596 2.4196005455574441 0 0.84804810408105047 0.52991925155115449 0.25 0 0 1 I I #
point $-1 -20.131745915970399 20.182066052898648 2.9495197971085987 #
edge $-1 $437 1 $437 0 $252 $-1 forward 7 unknown #
vertex $-1 $253 $438 #
ellipse-curve $-1 -12.738591197481497 19.334017948817596 2.4196005455574441 0 0.84804810408105047 0.52991925155115449 0.25 0 0 1 I I #
point $-1 -12.488591197481497 20.182066052898648 2.9495197971085987 #
edge $-1 $439 1 $439 0 $256 $-1 forward 7 unknown #
vertex $-1 $257 $440 #
ellipse-curve $-1 -5.0954364789925961 19.334017948817596 2.4196005455574441 0 0.84804810408105047 0.52991925155115449 0.25 0 0 1 I I #
point $-1 -4.8454364789925961 20.182066052898648 2.9495197971085987 #
loop $-1 $-1 $267 $260 #
plane-surface $-1 0 21.445616772859552 0 0 -1 0 0 0 -1 forward_v I I I I #
coedge $-1 $441 $442 $264 $368 forward $261 $-1 #
coedge $-1 $264 $263 $373 $443 reversed $108 $-1 #
edge $-1 $370 21.965750242620047 $444 26.734592726686405 $366 $445 forward 7 unknown #
coedge $-1 $270 $265 $442 $446 forward $172 $-1 #
vertex $-1 $446 $447 #
straight-curve $-1 20.38506091848695 18.918515332937758 4.9716237107454369 1 0 0 I I #
coedge $-1 $448 $267 $270 $377 reversed $364 $-1 #
coedge $-1 $267 $448 $367 $443 forward $364 $-1 #
vertex $-1 $268 $449 #
straight-curve $-1 28.031530639492402 21.445616772859552 47.005919749492321 0 0 1 I I #
straight-curve $-1 28.031530639492402 -1.2832736057936813 37.301245173616422 0 0.52991925155115449 -0.84804810408105047 I I #
edge $-1 $450 -53.508713034455397 $271 -28.031530639492402 $372 $451 forward 7 unknown #
point $-1 28.031530639492402 21.445616772859552 4.9716237107454369 #
point $-1 28.031530639492402 18.918515332937758 4.9716237107454333 #
edge $-1 $452 1 $452 0 $274 $-1 forward 7 unknown #
vertex $-1 $275 $453 #
ellipse-curve $-1 33.126967118484998 19.334017948817596 2.4196005455574441 0 0.84804810408105047 0.52991925155115449 0.25 0 0 1 I I #
point $-1 33.376967118484998 20.182066052898648 2.9495197971085987 #
edge $-1 $454 1 $454 0 $278 $-1 forward 7 unknown #
vertex $-1 $279 $455 #
ellipse-curve $-1 40.7701218369739 19.334017948817596 2.4196005455574441 0 0.84804810408105047 0.52991925155115449 0.25 0 0 1 I I #
point $-1 41.0201218369739 20.182066052898648 2.9495197971085987 #
edge $-1 $456 1 $456 0 $282 $-1 forward 7 unknown #
vertex $-1 $283 $457 #
ellipse-curve $-1 48.413276555462801 19.334017948817596 2.4196005455574441 0 0.84804810408105047 0.52991925155115449 0.25 0 0 1 I I #
point $-1 48.663276555462801 20.182066052898648 2.9495197971085987 #
plane-surface $-1 53.508713034455397 0 0 -1 0 0 0 0 1 forward_v I I I I #
coedge $-1 $291 $289 $293 $397 reversed $201 $-1 #
edge $-1 $304 -4.9716237107454369 $399 4.9716237107454369 $303 $458 forward 7 unknown #
vertex $-1 $397 $459 #
straight-curve $-1 -53.508713034455397 -21.445616772859552 0 0 0 -1 I I #
edge $-1 $395 -21.445616772859552 $399 21.445616772859552 $393 $460 forward 7 unknown #
straight-curve $-1 0 -21.445616772859552 -4.9716237107454369 -1 0 0 I I #
vertex $-1 $296 $461 #
straight-curve $-1 0 21.445616772859552 -4.9716237107454369 1 0 0 I I #
point $-1 53.508713034455397 21.445616772859552 -4.9716237107454369 #
point $-1 53.508713034455397 -21.445616772859552 -4.9716237107454369 #
straight-curve $-1 -53.508713034455397 0 4.9716237107454369 0 -1 0 I I #
point $-1 -53.508713034455397 21.445616772859552 4.9716237107454369 #
point $-1 -53.508713034455397 -21.445616772859552 4.9716237107454369 #
straight-curve $-1 53.508713034455397 -21.445616772859552 0 0 0 -1 I I #
straight-curve $-1 53.508713034455397 21.445616772859552 0 0 0 -1 I I #
plane-surface $-1 53.508713034455397 0 0 -1 0 0 0 0 1 forward_v I I I I #
coedge $-1 $462 $412 $320 $417 forward $314 $-1 #
coedge $-1 $321 $316 $462 $463 forward $220 $-1 #
edge $-1 $330 -1.8699052553939843 $464 1.8699052553939843 $328 $465 forward 7 unknown #
coedge $-1 $409 $466 $317 $413 reversed $314 $-1 #
edge $-1 $420 -53.508713034455397 $415 53.508713034455397 $412 $467 forward 7 unknown #
coedge $-1 $328 $318 $466 $468 forward $329 $-1 #
vertex $-1 $319 $469 #
straight-curve $-1 53.508713034455397 -23.315522028253536 -0.23597077854438897 0 1 0 I I #
edge $-1 $420 -1.5 $418 1.5 $320 $470 forward 7 unknown #
vertex $-1 $322 $471 #
straight-curve $-1 -53.508713034455397 -23.315522028253536 -3.235970778544389 0 1 0 I I #
vertex $-1 $323 $472 #
straight-curve $-1 -53.508713034455397 -23.315522028253536 -0.23597077854438897 0 -1 0 I I #
point $-1 -53.508713034455397 -21.445616772859552 -3.235970778544389 #
straight-curve $-1 0 -21.445616772859552 -3.235970778544389 -1 0 0 I I #
point $-1 53.508713034455397 -21.445616772859552 -3.235970778544389 #
coedge $-1 $345 $344 $337 $426 forward $334 $-1 #
edge $-1 $427 42.034296038746888 $430 46.078503866020533 $425 $473 forward 7 unknown #
vertex $-1 $349 $474 #
straight-curve $-1 0 44.736325837790055 4.9716237107454333 0 1 0 I I #
edge $-1 $430 -6.3692955987407487 $346 19.107886796222246 $345 $475 forward 7 unknown #
vertex $-1 $429 $476 #
straight-curve $-1 0 -1.2832736057936813 37.301245173616422 0 -0.52991925155115449 0.84804810408105047 I I #
point $-1 0 18.918515332937758 4.9716237107454333 #
point $-1 -25.477182394962995 21.445616772859552 0.92741588347178805 #
straight-curve $-1 0 21.445616772859552 4.9716237107454369 -1 0 0 I I #
vertex $-1 $352 $477 #
point $-1 -20.131745915970399 19.334017948817596 2.4196005455574441 #
vertex $-1 $356 $478 #
point $-1 -12.488591197481497 19.334017948817596 2.4196005455574441 #
vertex $-1 $360 $479 #
point $-1 -4.8454364789925961 19.334017948817596 2.4196005455574441 #
coedge $-1 $442 $366 $448 $480 reversed $261 $-1 #
coedge $-1 $366 $441 $369 $446 reversed $261 $-1 #
edge $-1 $444 -33.123652115968447 $374 -7.6464697210054524 $373 $481 forward 7 unknown #
vertex $-1 $368 $482 #
straight-curve $-1 53.508713034455397 7.2784414046089543 23.59963655871724 0 0.52991925155115449 -0.84804810408105047 I I #
edge $-1 $370 18.918515332937758 $450 21.445616772859552 $442 $483 forward 7 unknown #
point $-1 53.508713034455397 18.918515332937758 4.9716237107454333 #
coedge $-1 $373 $372 $441 $480 forward $364 $-1 #
point $-1 28.031530639492402 21.445616772859552 0.92741588347178805 #
vertex $-1 $446 $484 #
straight-curve $-1 0 21.445616772859552 4.9716237107454369 -1 0 0 I I #
vertex $-1 $380 $485 #
point $-1 33.376967118484998 19.334017948817596 2.4196005455574441 #
vertex $-1 $384 $486 #
point $-1 41.0201218369739 19.334017948817596 2.4196005455574441 #
vertex $-1 $388 $487 #
point $-1 48.663276555462801 19.334017948817596 2.4196005455574441 #
straight-curve $-1 -53.508713034455397 21.445616772859552 0 0 0 -1 I I #
point $-1 -53.508713034455397 -21.445616772859552 -4.9716237107454369 #
straight-curve $-1 -53.508713034455397 0 -4.9716237107454369 0 1 0 I I #
point $-1 -53.508713034455397 21.445616772859552 -4.9716237107454369 #
coedge $-1 $466 $409 $410 $463 reversed $314 $-1 #
edge $-1 $464 -53.508713034455397 $418 53.508713034455397 $462 $488 forward 7 unknown #
vertex $-1 $468 $489 #
straight-curve $-1 53.508713034455397 -23.315522028253536 -3.235970778544389 0 -1 0 I I #
coedge $-1 $412 $462 $414 $468 reversed $314 $-1 #
straight-curve $-1 0 -25.18542728364752 -0.23597077854438897 1 0 0 I I #
edge $-1 $415 -1.5 $464 1.5 $414 $490 forward 7 unknown #
point $-1 53.508713034455397 -25.18542728364752 -0.23597077854438897 #
straight-curve $-1 -53.508713034455397 -25.18542728364752 -1.735970778544389 0 0 -1 I I #
point $-1 -53.508713034455397 -25.18542728364752 -3.235970778544389 #
point $-1 -53.508713034455397 -25.18542728364752 -0.23597077854438897 #
straight-curve $-1 0 21.445616772859552 47.005919749492321 0 0 -1 I I #
point $-1 0 21.445616772859552 4.9716237107454369 #
straight-curve $-1 -6.3692955987407487 21.445616772859552 0.9274158834717916 -1 0 0 I I #
point $-1 0 21.445616772859552 0.92741588347178805 #
point $-1 -20.381745915970399 19.122005922797335 2.2871207326696559 #
point $-1 -12.738591197481497 19.122005922797335 2.2871207326696559 #
point $-1 -5.0954364789925961 19.122005922797335 2.2871207326696559 #
edge $-1 $450 -4.9716237107454369 $444 -0.92741588347178805 $441 $491 forward 7 unknown #
straight-curve $-1 20.38506091848695 21.445616772859552 0.9274158834717916 -1 0 0 I I #
point $-1 53.508713034455397 21.445616772859552 0.92741588347178805 #
straight-curve $-1 53.508713034455397 0 4.9716237107454369 0 1 0 I I #
point $-1 53.508713034455397 21.445616772859552 4.9716237107454369 #
point $-1 33.126967118484998 19.122005922797335 2.2871207326696559 #
point $-1 40.7701218369739 19.122005922797335 2.2871207326696559 #
point $-1 48.413276555462801 19.122005922797335 2.2871207326696559 #
straight-curve $-1 0 -25.18542728364752 -3.235970778544389 -1 0 0 I I #
point $-1 53.508713034455397 -25.18542728364752 -3.235970778544389 #
straight-curve $-1 53.508713034455397 -25.18542728364752 -1.735970778544389 0 0 -1 I I #
straight-curve $-1 53.508713034455397 21.445616772859552 0 0 0 -1 I I #
End-of-ACIS-data 