500 0 4 0           
7 Unknown 11 ACIS 5.0 NT 24 Fri Mar 26 18:46:20 1999 
-1 9.9999999999999995e-007 1e-010 
body $-1 $4 $-1 $5 #
body $-1 $6 $-1 $7 #
body $-1 $8 $-1 $9 #
body $-1 $10 $-1 $11 #
lump $-1 $-1 $12 $0 #
transform $-1 1 0 0 0 1 0 0 0 1 78.497268593401898 40.717388695169369 17.783459619600158 1 rotate no_reflect no_shear #
lump $-1 $-1 $13 $1 #
transform $-1 1 0 0 0 1 0 0 0 1 78.497268593401898 40.717388695169369 17.783459619600158 1 rotate no_reflect no_shear #
lump $-1 $-1 $14 $2 #
transform $-1 1 0 0 0 1 0 0 0 1 78.497268593401898 40.717388695169369 17.783459619600158 1 rotate no_reflect no_shear #
lump $-1 $-1 $15 $3 #
transform $-1 1 0 0 0 1 0 0 0 1 78.497268593401898 40.717388695169369 17.783459619600158 1 rotate no_reflect no_shear #
shell $-1 $-1 $-1 $16 $-1 $4 #
shell $-1 $-1 $-1 $17 $-1 $6 #
shell $-1 $-1 $-1 $18 $-1 $8 #
shell $-1 $-1 $-1 $19 $-1 $10 #
face $-1 $20 $21 $12 $-1 $22 forward single #
face $-1 $23 $24 $13 $-1 $25 reversed single #
face $-1 $26 $27 $14 $-1 $28 forward single #
face $-1 $29 $30 $15 $-1 $31 reversed single #
face $-1 $32 $33 $12 $-1 $34 reversed single #
loop $-1 $-1 $35 $16 #
plane-surface $-1 0 0 17.783459619600158 0 0 1 1 0 0 forward_v I I I I #
face $-1 $36 $37 $13 $-1 $38 reversed single #
loop $-1 $-1 $39 $17 #
plane-surface $-1 -74.067278385418675 -55.773537393732902 0 0 1 0 0 0 1 forward_v I I I I #
face $-1 $40 $41 $14 $-1 $42 forward single #
loop $-1 $-1 $43 $18 #
plane-surface $-1 4.7515860272303243 82.255467476271633 179.18053918407625 1 0 0 0 -0.6560590369687036 -0.75470957328743171 forward_v I I I I #
face $-1 $44 $45 $15 $-1 $46 reversed single #
loop $-1 $47 $48 $19 #
cone-surface $-1 25.044640396804837 33.479309539057979 11.156875501714952 0 -0.6560590369687036 -0.75470957328743171 2 0 0 1 I I 0 1 2 forward I I I I #
face $-1 $49 $50 $12 $-1 $51 reversed single #
loop $-1 $-1 $52 $20 #
plane-surface $-1 0 0 -17.783459619600158 0 0 1 1 0 0 forward_v I I I I #
coedge $-1 $53 $54 $55 $56 forward $21 $-1 #
face $-1 $57 $58 $13 $-1 $59 reversed single #
loop $-1 $-1 $60 $23 #
plane-surface $-1 -69.637288177435451 -48.245463044451135 0 -1 0 0 0 0 1 forward_v I I I I #
coedge $-1 $61 $62 $63 $64 forward $24 $-1 #
face $-1 $65 $66 $14 $-1 $67 forward single #
loop $-1 $-1 $68 $26 #
plane-surface $-1 25.044640396804837 -20.74221739985019 60.695259015365735 0 0.6560590369687036 0.75470957328743171 1 0 0 forward_v I I I I #
coedge $-1 $69 $70 $71 $72 reversed $27 $-1 #
face $-1 $73 $74 $15 $-1 $75 forward single #
loop $-1 $76 $77 $29 #
cone-surface $-1 25.044640396804837 31.632785759510305 9.0326929278927111 0 -0.6560590369687036 -0.75470957328743171 1 0 0 1 I I -0.70710678118654746 0.70710678118654746 1 forward I I I I #
loop $-1 $-1 $78 $19 #
coedge $-1 $48 $48 $79 $80 reversed $30 $-1 #
face $-1 $81 $82 $12 $-1 $83 reversed single #
loop $-1 $-1 $84 $32 #
plane-surface $-1 0 -40.717388695169369 0 0 1 0 0 0 1 forward_v I I I I #
coedge $-1 $85 $86 $87 $88 forward $33 $-1 #
coedge $-1 $89 $35 $90 $91 forward $21 $-1 #
coedge $-1 $35 $89 $92 $93 forward $21 $-1 #
coedge $-1 $94 $95 $35 $56 reversed $96 $-1 #
edge $-1 $97 -40.717388695169369 $98 40.717388695169369 $55 $99 forward 7 unknown #
face $-1 $100 $101 $13 $-1 $102 forward single #
loop $-1 $-1 $103 $36 #
plane-surface $-1 0 -40.717388695169369 0 0 1 0 0 0 1 forward_v I I I I #
coedge $-1 $104 $105 $106 $107 forward $37 $-1 #
coedge $-1 $106 $39 $108 $109 reversed $24 $-1 #
coedge $-1 $39 $106 $110 $111 reversed $24 $-1 #
coedge $-1 $112 $113 $39 $64 reversed $114 $-1 #
edge $-1 $115 -17.783459619600158 $116 17.783459619600158 $63 $117 forward 7 unknown #
face $-1 $118 $119 $14 $-1 $120 forward single #
loop $-1 $-1 $121 $40 #
plane-surface $-1 45.33769476637935 82.255467476271633 179.18053918407625 -1 0 0 0 0.6560590369687036 0.75470957328743171 forward_v I I I I #
coedge $-1 $122 $123 $124 $125 reversed $41 $-1 #
coedge $-1 $70 $43 $123 $126 forward $27 $-1 #
coedge $-1 $43 $69 $127 $128 reversed $27 $-1 #
coedge $-1 $129 $124 $43 $72 forward $119 $-1 #
edge $-1 $130 -12.505573870031327 $131 -0.41034504296644769 $71 $132 forward 7 unknown #
face $-1 $133 $134 $15 $-1 $135 forward single #
loop $-1 $-1 $136 $44 #
plane-surface $-1 4.7515860272303243 82.255467476271633 179.18053918407625 1 0 0 0 -0.6560590369687036 -0.75470957328743171 forward_v I I I I #
loop $-1 $-1 $137 $29 #
coedge $-1 $77 $77 $78 $138 forward $45 $-1 #
coedge $-1 $78 $78 $77 $138 reversed $47 $-1 #
coedge $-1 $79 $79 $48 $80 forward $134 $-1 #
edge $-1 $139 -2.7995237654562005e-015 $139 6.2831853071795978 $79 $140 forward 7 unknown #
face $-1 $141 $142 $12 $-1 $143 reversed single #
loop $-1 $-1 $144 $49 #
plane-surface $-1 -78.497268593401898 0 0 1 0 0 0 0 -1 forward_v I I I I #
coedge $-1 $145 $92 $146 $147 forward $50 $-1 #
coedge $-1 $148 $52 $145 $149 forward $33 $-1 #
coedge $-1 $52 $148 $150 $151 forward $33 $-1 #
coedge $-1 $95 $94 $52 $88 reversed $96 $-1 #
edge $-1 $152 -40.717388695169369 $153 40.717388695169369 $87 $154 forward 7 unknown #
coedge $-1 $54 $53 $155 $156 forward $21 $-1 #
coedge $-1 $157 $158 $53 $91 reversed $142 $-1 #
edge $-1 $98 -78.497268593401898 $159 78.497268593401898 $90 $160 forward 7 unknown #
coedge $-1 $84 $161 $54 $93 reversed $50 $-1 #
edge $-1 $162 -78.497268593401898 $97 78.497268593401898 $92 $163 forward 7 unknown #
coedge $-1 $87 $55 $161 $164 forward $96 $-1 #
coedge $-1 $55 $87 $157 $165 reversed $96 $-1 #
loop $-1 $-1 $94 $141 #
vertex $-1 $56 $166 #
vertex $-1 $56 $167 #
straight-curve $-1 78.497268593401898 0 17.783459619600158 0 1 0 I I #
face $-1 $168 $169 $13 $-1 $170 reversed single #
loop $-1 $-1 $171 $57 #
plane-surface $-1 0 0 17.783459619600158 0 0 1 1 0 0 forward_v I I I I #
coedge $-1 $172 $173 $174 $175 forward $58 $-1 #
coedge $-1 $174 $60 $176 $177 reversed $37 $-1 #
coedge $-1 $60 $174 $178 $179 reversed $37 $-1 #
coedge $-1 $62 $61 $60 $107 reversed $24 $-1 #
edge $-1 $180 -17.783459619600158 $181 17.783459619600158 $60 $182 forward 7 unknown #
coedge $-1 $183 $176 $61 $109 forward $169 $-1 #
edge $-1 $181 -4.4299902079832236 $116 4.4299902079832236 $61 $184 forward 7 unknown #
coedge $-1 $178 $185 $62 $111 forward $101 $-1 #
edge $-1 $115 -4.4299902079832236 $180 4.4299902079832236 $62 $186 forward 7 unknown #
coedge $-1 $187 $63 $185 $188 reversed $114 $-1 #
coedge $-1 $63 $187 $183 $189 reversed $114 $-1 #
loop $-1 $-1 $187 $168 #
vertex $-1 $188 $190 #
vertex $-1 $189 $191 #
straight-curve $-1 -78.497268593401898 -55.773537393732902 0 0 0 -1 I I #
face $-1 $192 $193 $14 $-1 $194 reversed single #
loop $-1 $-1 $195 $65 #
plane-surface $-1 0 0 17.783459619600158 0 0 1 1 0 0 forward_v I I I I #
coedge $-1 $196 $197 $195 $198 reversed $66 $-1 #
coedge $-1 $199 $68 $197 $200 reversed $41 $-1 #
coedge $-1 $68 $199 $69 $126 reversed $41 $-1 #
coedge $-1 $71 $195 $68 $125 forward $119 $-1 #
edge $-1 $201 -32.815374567976932 $130 7.7707341711720943 $124 $202 forward 7 unknown #
edge $-1 $130 65.408441889678031 $203 81.43477739033878 $69 $204 forward 7 unknown #
coedge $-1 $205 $206 $70 $128 forward $207 $-1 #
edge $-1 $131 71.806809972437975 $203 82.321032207138799 $127 $208 forward 7 unknown #
coedge $-1 $209 $71 $206 $210 forward $119 $-1 #
vertex $-1 $125 $211 #
vertex $-1 $210 $212 #
straight-curve $-1 4.7515860272303243 41.127733738135817 17.783459619600166 0 1 0 I I #
face $-1 $213 $214 $15 $-1 $215 forward single #
loop $-1 $216 $79 $73 #
plane-surface $-1 25.044640396804837 -20.74221739985019 60.695259015365735 0 0.6560590369687036 0.75470957328743171 1 0 0 forward_v I I I I #
coedge $-1 $217 $218 $219 $220 reversed $74 $-1 #
coedge $-1 $137 $137 $-1 $221 forward $76 $-1 #
edge $-1 $222 0 $222 6.2831853071796004 $77 $223 forward 7 unknown #
vertex $-1 $80 $224 #
ellipse-curve $-1 25.044640396804837 34.669774281636933 12.526348502249744 0 -0.6560590369687036 -0.75470957328743171 2 0 0 1 I I #
face $-1 $-1 $96 $12 $-1 $225 reversed single #
loop $-1 $-1 $157 $81 #
plane-surface $-1 0 40.717388695169369 0 0 -1 0 0 0 -1 forward_v I I I I #
coedge $-1 $226 $155 $158 $227 forward $82 $-1 #
coedge $-1 $161 $84 $85 $149 reversed $50 $-1 #
coedge $-1 $155 $226 $84 $147 reversed $82 $-1 #
edge $-1 $162 -17.783459619600158 $228 17.783459619600158 $146 $229 forward 7 unknown #
coedge $-1 $86 $85 $226 $230 forward $33 $-1 #
edge $-1 $153 -78.497268593401898 $228 78.497268593401898 $145 $231 forward 7 unknown #
coedge $-1 $158 $157 $86 $151 reversed $142 $-1 #
edge $-1 $232 -78.497268593401898 $152 78.497268593401898 $150 $233 forward 7 unknown #
vertex $-1 $88 $234 #
vertex $-1 $164 $235 #
straight-curve $-1 78.497268593401898 0 -17.783459619600158 0 -1 0 I I #
coedge $-1 $144 $146 $89 $156 reversed $82 $-1 #
edge $-1 $159 -40.717388695169369 $162 40.717388695169369 $155 $236 forward 7 unknown #
coedge $-1 $150 $90 $95 $165 forward $142 $-1 #
coedge $-1 $90 $150 $144 $227 reversed $142 $-1 #
vertex $-1 $91 $237 #
straight-curve $-1 0 40.717388695169369 17.783459619600158 -1 0 0 I I #
coedge $-1 $92 $145 $94 $164 reversed $50 $-1 #
vertex $-1 $156 $238 #
straight-curve $-1 0 -40.717388695169369 17.783459619600158 1 0 0 I I #
edge $-1 $97 -17.783459619600158 $153 17.783459619600158 $94 $239 forward 7 unknown #
edge $-1 $98 -17.783459619600158 $152 17.783459619600158 $95 $240 forward 7 unknown #
point $-1 78.497268593401898 -40.717388695169369 17.783459619600158 #
point $-1 78.497268593401898 40.717388695169369 17.783459619600158 #
face $-1 $241 $114 $13 $-1 $242 reversed single #
loop $-1 $-1 $243 $100 #
plane-surface $-1 0 0 -17.783459619600158 0 0 1 1 0 0 forward_v I I I I #
coedge $-1 $244 $245 $246 $247 forward $101 $-1 #
coedge $-1 $248 $103 $249 $250 reversed $58 $-1 #
coedge $-1 $103 $248 $245 $251 reversed $58 $-1 #
coedge $-1 $105 $104 $103 $175 reversed $37 $-1 #
edge $-1 $252 -17.783459619600158 $253 17.783459619600158 $103 $254 forward 7 unknown #
coedge $-1 $108 $249 $104 $177 forward $169 $-1 #
edge $-1 $253 -7.5280743492817663 $181 7.5280743492817663 $104 $255 forward 7 unknown #
coedge $-1 $245 $110 $105 $179 forward $101 $-1 #
edge $-1 $180 -7.5280743492817663 $252 7.5280743492817663 $105 $256 forward 7 unknown #
vertex $-1 $179 $257 #
vertex $-1 $107 $258 #
straight-curve $-1 -69.637288177435451 -55.773537393732902 0 0 0 -1 I I #
coedge $-1 $259 $108 $113 $189 forward $169 $-1 #
straight-curve $-1 -74.067278385418675 -55.773537393732902 -17.783459619600158 -1 0 0 I I #
coedge $-1 $110 $244 $112 $188 forward $101 $-1 #
straight-curve $-1 -74.067278385418675 -55.773537393732902 17.783459619600158 1 0 0 I I #
coedge $-1 $113 $112 $260 $261 forward $114 $-1 #
edge $-1 $262 -40.717388695169369 $115 55.773537393732902 $112 $263 forward 7 unknown #
edge $-1 $116 -55.773537393732902 $264 40.717388695169369 $113 $265 forward 7 unknown #
point $-1 -78.497268593401898 -55.773537393732902 17.783459619600158 #
point $-1 -78.497268593401898 -55.773537393732902 -17.783459619600158 #
face $-1 $266 $267 $14 $-1 $268 reversed single #
loop $-1 $-1 $269 $118 #
plane-surface $-1 -74.067278385418675 -55.773537393732902 0 0 1 0 0 0 1 forward_v I I I I #
coedge $-1 $124 $270 $121 $198 forward $119 $-1 #
coedge $-1 $197 $121 $271 $272 reversed $66 $-1 #
coedge $-1 $121 $196 $122 $200 forward $66 $-1 #
edge $-1 $273 0.41034504296644769 $201 12.505573870031327 $195 $274 forward 7 unknown #
coedge $-1 $123 $122 $205 $275 reversed $41 $-1 #
edge $-1 $276 -81.43477739033878 $201 -65.408441889678031 $197 $277 forward 7 unknown #
vertex $-1 $125 $278 #
straight-curve $-1 12.522320198402419 28.62215986810449 17.783459619600162 -1 0 0 I I #
vertex $-1 $275 $279 #
straight-curve $-1 4.7515860272303243 -20.74221739985019 60.695259015365735 0 0.75470957328743171 -0.6560590369687036 I I #
coedge $-1 $271 $127 $199 $275 forward $207 $-1 #
coedge $-1 $127 $280 $129 $210 reversed $207 $-1 #
loop $-1 $-1 $271 $281 #
straight-curve $-1 4.7515860272303243 40.717388695169369 89.590269592038126 0 0 -1 I I #
coedge $-1 $282 $129 $283 $284 forward $119 $-1 #
edge $-1 $131 -4.7515860272303243 $285 78.497268593401898 $206 $286 forward 7 unknown #
point $-1 4.7515860272303243 28.62215986810449 17.783459619600158 #
point $-1 4.7515860272303243 40.717388695169369 17.783459619600158 #
face $-1 $287 $288 $15 $-1 $289 forward single #
loop $-1 $-1 $290 $133 #
plane-surface $-1 45.33769476637935 82.255467476271633 179.18053918407625 -1 0 0 0 0.6560590369687036 0.75470957328743171 forward_v I I I I #
loop $-1 $-1 $291 $73 #
coedge $-1 $218 $136 $292 $293 forward $74 $-1 #
coedge $-1 $136 $217 $294 $295 reversed $74 $-1 #
coedge $-1 $296 $297 $136 $220 forward $288 $-1 #
edge $-1 $298 -12.505573870031327 $299 -0.41034504296644769 $219 $300 forward 7 unknown #
edge $-1 $301 1 $301 0 $137 $-1 forward 7 unknown #
vertex $-1 $138 $302 #
ellipse-curve $-1 25.044640396804837 32.288844796479012 9.7874025011801429 0 0.6560590369687036 0.75470957328743171 2 0 0 1 I I #
point $-1 27.044640396804837 34.669774281636954 12.52634850224976 #
plane-surface $-1 78.497268593401898 0 0 -1 0 0 0 0 1 forward_v I I I I #
coedge $-1 $146 $144 $148 $230 reversed $82 $-1 #
edge $-1 $159 -17.783459619600158 $232 17.783459619600158 $158 $303 forward 7 unknown #
vertex $-1 $230 $304 #
straight-curve $-1 -78.497268593401898 -40.717388695169369 0 0 0 -1 I I #
edge $-1 $228 -40.717388695169369 $232 40.717388695169369 $226 $305 forward 7 unknown #
straight-curve $-1 0 -40.717388695169369 -17.783459619600158 -1 0 0 I I #
vertex $-1 $151 $306 #
straight-curve $-1 0 40.717388695169369 -17.783459619600158 1 0 0 I I #
point $-1 78.497268593401898 40.717388695169369 -17.783459619600158 #
point $-1 78.497268593401898 -40.717388695169369 -17.783459619600158 #
straight-curve $-1 -78.497268593401898 0 17.783459619600158 0 -1 0 I I #
point $-1 -78.497268593401898 40.717388695169369 17.783459619600158 #
point $-1 -78.497268593401898 -40.717388695169369 17.783459619600158 #
straight-curve $-1 78.497268593401898 -40.717388695169369 0 0 0 -1 I I #
straight-curve $-1 78.497268593401898 40.717388695169369 0 0 0 -1 I I #
face $-1 $307 $308 $13 $-1 $309 reversed single #
plane-surface $-1 -78.497268593401898 0 0 1 0 0 0 0 -1 forward_v I I I I #
coedge $-1 $249 $259 $310 $311 forward $169 $-1 #
coedge $-1 $185 $171 $312 $313 forward $101 $-1 #
coedge $-1 $171 $178 $173 $251 forward $101 $-1 #
coedge $-1 $314 $315 $171 $247 reversed $316 $-1 #
edge $-1 $317 -40.717388695169369 $318 40.717388695169369 $246 $319 forward 7 unknown #
coedge $-1 $173 $172 $314 $320 reversed $58 $-1 #
coedge $-1 $176 $243 $172 $250 forward $169 $-1 #
edge $-1 $321 -78.497268593401898 $253 69.637288177435451 $172 $322 forward 7 unknown #
edge $-1 $252 -69.637288177435451 $317 78.497268593401898 $173 $323 forward 7 unknown #
vertex $-1 $251 $324 #
vertex $-1 $177 $325 #
straight-curve $-1 -69.637288177435451 -40.717388695169369 0 0 0 -1 I I #
straight-curve $-1 -69.637288177435451 -48.245463044451135 -17.783459619600158 0 -1 0 I I #
straight-curve $-1 -69.637288177435451 -48.245463044451135 17.783459619600158 0 1 0 I I #
point $-1 -69.637288177435451 -55.773537393732902 17.783459619600158 #
point $-1 -69.637288177435451 -55.773537393732902 -17.783459619600158 #
coedge $-1 $243 $183 $326 $327 forward $169 $-1 #
coedge $-1 $312 $326 $187 $261 reversed $308 $-1 #
edge $-1 $262 -17.783459619600158 $264 17.783459619600158 $260 $328 forward 7 unknown #
vertex $-1 $313 $329 #
straight-curve $-1 -78.497268593401898 0 17.783459619600158 0 -1 0 I I #
vertex $-1 $327 $330 #
straight-curve $-1 -78.497268593401898 0 -17.783459619600158 0 1 0 I I #
face $-1 $331 $332 $14 $-1 $333 reversed single #
loop $-1 $-1 $334 $192 #
plane-surface $-1 -69.637288177435451 -48.245463044451135 0 -1 0 0 0 0 1 forward_v I I I I #
coedge $-1 $335 $336 $337 $338 forward $193 $-1 #
coedge $-1 $195 $339 $340 $341 forward $119 $-1 #
coedge $-1 $340 $205 $196 $272 forward $207 $-1 #
edge $-1 $276 -82.321032207138799 $273 -71.806809972437975 $271 $342 forward 7 unknown #
vertex $-1 $272 $343 #
straight-curve $-1 45.33769476637935 41.127733738135817 17.783459619600166 0 -1 0 I I #
edge $-1 $203 -7.7707341711720943 $276 32.815374567976932 $205 $344 forward 7 unknown #
vertex $-1 $275 $345 #
straight-curve $-1 45.33769476637935 -20.74221739985019 60.695259015365735 0 -0.75470957328743171 0.6560590369687036 I I #
point $-1 45.33769476637935 28.62215986810449 17.783459619600158 #
point $-1 4.7515860272303243 40.717388695169369 7.269237384899327 #
coedge $-1 $206 $346 $347 $348 reversed $207 $-1 #
face $-1 $349 $207 $14 $-1 $350 reversed single #
coedge $-1 $351 $209 $336 $352 forward $119 $-1 #
coedge $-1 $347 $337 $209 $284 reversed $353 $-1 #
edge $-1 $285 -40.717388695169369 $354 55.773537393732902 $283 $355 forward 7 unknown #
vertex $-1 $210 $356 #
straight-curve $-1 0 40.717388695169369 17.783459619600158 -1 0 0 I I #
face $-1 $357 $358 $15 $-1 $359 reversed single #
loop $-1 $-1 $360 $213 #
plane-surface $-1 0 0 17.783459619600158 0 0 1 1 0 0 forward_v I I I I #
coedge $-1 $361 $362 $360 $363 reversed $214 $-1 #
coedge $-1 $364 $292 $297 $365 reversed $216 $-1 #
coedge $-1 $291 $366 $217 $293 reversed $216 $-1 #
edge $-1 $298 65.408441889678031 $367 81.43477739033878 $217 $368 forward 7 unknown #
coedge $-1 $369 $370 $218 $295 forward $371 $-1 #
edge $-1 $299 71.806809972437975 $367 82.321032207138799 $294 $372 forward 7 unknown #
coedge $-1 $373 $219 $370 $374 forward $288 $-1 #
coedge $-1 $219 $360 $291 $365 forward $288 $-1 #
vertex $-1 $365 $375 #
vertex $-1 $374 $376 #
straight-curve $-1 4.7515860272303243 41.127733738135817 17.783459619600166 0 1 0 I I #
vertex $-1 $221 $377 #
point $-1 27.044640396804837 32.288844796479012 9.7874025011801429 #
straight-curve $-1 -78.497268593401898 40.717388695169369 0 0 0 -1 I I #
point $-1 -78.497268593401898 -40.717388695169369 -17.783459619600158 #
straight-curve $-1 -78.497268593401898 0 -17.783459619600158 0 1 0 I I #
point $-1 -78.497268593401898 40.717388695169369 -17.783459619600158 #
face $-1 $-1 $316 $13 $-1 $378 reversed single #
loop $-1 $-1 $379 $241 #
plane-surface $-1 0 40.717388695169369 0 0 -1 0 0 0 -1 forward_v I I I I #
coedge $-1 $315 $314 $243 $311 reversed $316 $-1 #
edge $-1 $380 -40.717388695169369 $321 40.717388695169369 $310 $381 forward 7 unknown #
coedge $-1 $379 $260 $244 $313 reversed $308 $-1 #
edge $-1 $318 -78.497268593401898 $262 78.497268593401898 $312 $382 forward 7 unknown #
coedge $-1 $310 $246 $248 $320 forward $316 $-1 #
coedge $-1 $246 $310 $379 $383 reversed $316 $-1 #
loop $-1 $-1 $314 $307 #
vertex $-1 $247 $384 #
vertex $-1 $247 $385 #
straight-curve $-1 78.497268593401898 0 17.783459619600158 0 1 0 I I #
edge $-1 $317 -17.783459619600158 $321 17.783459619600158 $314 $386 forward 7 unknown #
vertex $-1 $320 $387 #
straight-curve $-1 0 -40.717388695169369 -17.783459619600158 -1 0 0 I I #
straight-curve $-1 0 -40.717388695169369 17.783459619600158 1 0 0 I I #
point $-1 -69.637288177435451 -40.717388695169369 17.783459619600158 #
point $-1 -69.637288177435451 -40.717388695169369 -17.783459619600158 #
coedge $-1 $260 $379 $259 $327 reversed $308 $-1 #
edge $-1 $264 -78.497268593401898 $380 78.497268593401898 $326 $388 forward 7 unknown #
straight-curve $-1 -78.497268593401898 40.717388695169369 0 0 0 -1 I I #
point $-1 -78.497268593401898 40.717388695169369 17.783459619600158 #
point $-1 -78.497268593401898 40.717388695169369 -17.783459619600158 #
face $-1 $389 $390 $14 $-1 $391 reversed single #
loop $-1 $-1 $392 $266 #
plane-surface $-1 0 -40.717388695169369 0 0 1 0 0 0 1 forward_v I I I I #
coedge $-1 $393 $394 $395 $396 forward $267 $-1 #
coedge $-1 $395 $269 $397 $398 reversed $193 $-1 #
coedge $-1 $269 $395 $282 $352 reversed $193 $-1 #
coedge $-1 $283 $399 $269 $338 reversed $353 $-1 #
edge $-1 $354 -17.783459619600158 $400 17.783459619600158 $337 $401 forward 7 unknown #
coedge $-1 $270 $402 $403 $404 forward $119 $-1 #
coedge $-1 $405 $271 $270 $341 reversed $207 $-1 #
edge $-1 $406 -78.497268593401898 $273 -45.33769476637935 $340 $286 forward 7 unknown #
straight-curve $-1 45.33769476637935 40.717388695169369 89.590269592038126 0 0 1 I I #
point $-1 45.33769476637935 40.717388695169369 17.783459619600158 #
straight-curve $-1 12.522320198402419 40.717388695169362 7.2692373848993341 1 0 0 I I #
point $-1 45.33769476637935 40.717388695169369 7.269237384899327 #
coedge $-1 $280 $405 $407 $408 reversed $207 $-1 #
coedge $-1 $399 $283 $280 $348 forward $353 $-1 #
edge $-1 $285 -17.783459619600158 $409 17.783459619600158 $280 $410 forward 7 unknown #
face $-1 $-1 $411 $14 $-1 $412 reversed single #
plane-surface $-1 0 40.717388695169369 0 0 -1 0 0 0 -1 forward_v I I I I #
coedge $-1 $402 $282 $394 $413 forward $119 $-1 #
edge $-1 $354 -4.4299902079832236 $414 4.4299902079832236 $336 $415 forward 7 unknown #
loop $-1 $-1 $347 $389 #
vertex $-1 $284 $416 #
straight-curve $-1 -78.497268593401898 0 17.783459619600158 0 -1 0 I I #
point $-1 -78.497268593401898 40.717388695169369 17.783459619600158 #
face $-1 $417 $418 $15 $-1 $419 reversed single #
loop $-1 $-1 $420 $287 #
plane-surface $-1 -74.067278385418675 -55.773537393732902 0 0 1 0 0 0 1 forward_v I I I I #
coedge $-1 $297 $421 $290 $363 forward $288 $-1 #
coedge $-1 $362 $290 $422 $423 reversed $214 $-1 #
coedge $-1 $290 $361 $364 $424 forward $214 $-1 #
edge $-1 $425 0.41034504296644769 $426 12.505573870031327 $360 $427 forward 7 unknown #
coedge $-1 $366 $291 $362 $424 reversed $216 $-1 #
edge $-1 $426 -32.815374567976932 $298 7.7707341711720943 $297 $428 forward 7 unknown #
coedge $-1 $292 $364 $369 $429 reversed $216 $-1 #
vertex $-1 $429 $430 #
straight-curve $-1 4.7515860272303243 -20.74221739985019 60.695259015365735 0 0.75470957328743171 -0.6560590369687036 I I #
coedge $-1 $422 $294 $366 $429 forward $371 $-1 #
coedge $-1 $294 $431 $296 $374 reversed $371 $-1 #
loop $-1 $-1 $422 $432 #
straight-curve $-1 4.7515860272303243 40.717388695169369 89.590269592038126 0 0 -1 I I #
coedge $-1 $433 $296 $434 $435 forward $288 $-1 #
edge $-1 $299 -4.7515860272303243 $436 78.497268593401898 $370 $437 forward 7 unknown #
point $-1 4.7515860272303243 28.62215986810449 17.783459619600158 #
point $-1 4.7515860272303243 40.717388695169369 17.783459619600158 #
point $-1 25.044640396804837 30.976726722541603 8.2779833546052792 #
plane-surface $-1 78.497268593401898 0 0 -1 0 0 0 0 1 forward_v I I I I #
coedge $-1 $326 $312 $315 $383 forward $308 $-1 #
vertex $-1 $311 $438 #
straight-curve $-1 78.497268593401898 0 -17.783459619600158 0 -1 0 I I #
straight-curve $-1 0 40.717388695169369 17.783459619600158 -1 0 0 I I #
edge $-1 $318 -17.783459619600158 $380 17.783459619600158 $315 $439 forward 7 unknown #
point $-1 78.497268593401898 -40.717388695169369 17.783459619600158 #
point $-1 78.497268593401898 40.717388695169369 17.783459619600158 #
straight-curve $-1 78.497268593401898 -40.717388695169369 0 0 0 -1 I I #
point $-1 78.497268593401898 -40.717388695169369 -17.783459619600158 #
straight-curve $-1 0 40.717388695169369 -17.783459619600158 1 0 0 I I #
face $-1 $281 $353 $14 $-1 $440 reversed single #
loop $-1 $-1 $441 $331 #
plane-surface $-1 0 0 -17.783459619600158 0 0 1 1 0 0 forward_v I I I I #
coedge $-1 $442 $443 $444 $445 forward $332 $-1 #
coedge $-1 $444 $334 $446 $447 reversed $267 $-1 #
coedge $-1 $334 $444 $351 $413 reversed $267 $-1 #
coedge $-1 $336 $335 $334 $396 reversed $193 $-1 #
edge $-1 $414 -17.783459619600158 $448 17.783459619600158 $334 $449 forward 7 unknown #
coedge $-1 $450 $446 $335 $398 forward $390 $-1 #
edge $-1 $448 -4.4299902079832236 $400 4.4299902079832236 $335 $451 forward 7 unknown #
coedge $-1 $337 $347 $450 $452 reversed $353 $-1 #
vertex $-1 $452 $453 #
straight-curve $-1 -78.497268593401898 -55.773537393732902 0 0 0 -1 I I #
coedge $-1 $339 $351 $443 $454 forward $119 $-1 #
coedge $-1 $455 $456 $339 $404 reversed $411 $-1 #
edge $-1 $457 -40.717388695169369 $406 40.717388695169369 $403 $458 forward 7 unknown #
coedge $-1 $346 $340 $456 $459 forward $207 $-1 #
vertex $-1 $404 $460 #
coedge $-1 $441 $450 $346 $408 forward $390 $-1 #
edge $-1 $409 -78.497268593401898 $461 78.497268593401898 $346 $462 forward 7 unknown #
vertex $-1 $408 $463 #
straight-curve $-1 -78.497268593401898 40.717388695169369 0 0 0 -1 I I #
loop $-1 $-1 $455 $349 #
plane-surface $-1 78.497268593401898 0 0 -1 0 0 0 0 1 forward_v I I I I #
edge $-1 $414 -7.5280743492817663 $464 7.5280743492817663 $394 $465 forward 7 unknown #
vertex $-1 $413 $466 #
straight-curve $-1 -74.067278385418675 -55.773537393732902 17.783459619600158 1 0 0 I I #
point $-1 -78.497268593401898 -55.773537393732902 17.783459619600158 #
face $-1 $467 $468 $15 $-1 $469 reversed single #
loop $-1 $-1 $470 $357 #
plane-surface $-1 -69.637288177435451 -48.245463044451135 0 -1 0 0 0 0 1 forward_v I I I I #
coedge $-1 $471 $472 $473 $474 forward $358 $-1 #
coedge $-1 $360 $475 $476 $477 forward $288 $-1 #
coedge $-1 $476 $369 $361 $423 forward $371 $-1 #
edge $-1 $478 -82.321032207138799 $425 -71.806809972437975 $422 $479 forward 7 unknown #
edge $-1 $478 -81.43477739033878 $426 -65.408441889678031 $362 $480 forward 7 unknown #
vertex $-1 $423 $481 #
vertex $-1 $365 $482 #
straight-curve $-1 45.33769476637935 41.127733738135817 17.783459619600166 0 -1 0 I I #
straight-curve $-1 12.522320198402419 28.62215986810449 17.783459619600162 -1 0 0 I I #
edge $-1 $367 -7.7707341711720943 $478 32.815374567976932 $369 $483 forward 7 unknown #
point $-1 4.7515860272303243 40.717388695169369 7.269237384899327 #
coedge $-1 $370 $484 $485 $486 reversed $371 $-1 #
face $-1 $487 $371 $15 $-1 $488 reversed single #
coedge $-1 $489 $373 $472 $490 forward $288 $-1 #
coedge $-1 $485 $473 $373 $435 reversed $491 $-1 #
edge $-1 $436 -40.717388695169369 $492 55.773537393732902 $434 $493 forward 7 unknown #
vertex $-1 $374 $494 #
straight-curve $-1 0 40.717388695169369 17.783459619600158 -1 0 0 I I #
point $-1 78.497268593401898 40.717388695169369 -17.783459619600158 #
straight-curve $-1 78.497268593401898 40.717388695169369 0 0 0 -1 I I #
plane-surface $-1 -78.497268593401898 0 0 1 0 0 0 0 -1 forward_v I I I I #
coedge $-1 $495 $407 $496 $497 forward $390 $-1 #
coedge $-1 $498 $392 $495 $499 reversed $332 $-1 #
coedge $-1 $392 $498 $402 $454 reversed $332 $-1 #
coedge $-1 $394 $393 $392 $445 reversed $267 $-1 #
edge $-1 $464 -17.783459619600158 $500 17.783459619600158 $392 $501 forward 7 unknown #
coedge $-1 $397 $495 $393 $447 forward $390 $-1 #
edge $-1 $500 -7.5280743492817663 $448 7.5280743492817663 $393 $502 forward 7 unknown #
vertex $-1 $396 $503 #
straight-curve $-1 -69.637288177435451 -55.773537393732902 0 0 0 -1 I I #
coedge $-1 $407 $397 $399 $452 forward $390 $-1 #
straight-curve $-1 -74.067278385418675 -55.773537393732902 -17.783459619600158 -1 0 0 I I #
edge $-1 $400 -55.773537393732902 $409 40.717388695169369 $399 $504 forward 7 unknown #
point $-1 -78.497268593401898 -55.773537393732902 -17.783459619600158 #
edge $-1 $464 -69.637288177435451 $457 78.497268593401898 $443 $505 forward 7 unknown #
coedge $-1 $496 $403 $498 $506 forward $411 $-1 #
coedge $-1 $403 $496 $405 $459 reversed $411 $-1 #
vertex $-1 $404 $507 #
straight-curve $-1 78.497268593401898 0 17.783459619600158 0 1 0 I I #
edge $-1 $406 -17.783459619600158 $461 17.783459619600158 $456 $508 forward 7 unknown #
point $-1 78.497268593401898 40.717388695169369 17.783459619600158 #
vertex $-1 $497 $509 #
straight-curve $-1 0 40.717388695169369 -17.783459619600158 1 0 0 I I #
point $-1 -78.497268593401898 40.717388695169369 -17.783459619600158 #
vertex $-1 $454 $510 #
straight-curve $-1 -69.637288177435451 -48.245463044451135 17.783459619600158 0 1 0 I I #
point $-1 -69.637288177435451 -55.773537393732902 17.783459619600158 #
face $-1 $511 $512 $15 $-1 $513 reversed single #
loop $-1 $-1 $514 $417 #
plane-surface $-1 0 -40.717388695169369 0 0 1 0 0 0 1 forward_v I I I I #
coedge $-1 $515 $516 $517 $518 forward $418 $-1 #
coedge $-1 $517 $420 $519 $520 reversed $358 $-1 #
coedge $-1 $420 $517 $433 $490 reversed $358 $-1 #
coedge $-1 $434 $521 $420 $474 reversed $491 $-1 #
edge $-1 $492 -17.783459619600158 $522 17.783459619600158 $473 $523 forward 7 unknown #
coedge $-1 $421 $524 $525 $526 forward $288 $-1 #
coedge $-1 $527 $422 $421 $477 reversed $371 $-1 #
edge $-1 $528 -78.497268593401898 $425 -45.33769476637935 $476 $437 forward 7 unknown #
vertex $-1 $429 $529 #
straight-curve $-1 45.33769476637935 40.717388695169369 89.590269592038126 0 0 1 I I #
straight-curve $-1 45.33769476637935 -20.74221739985019 60.695259015365735 0 -0.75470957328743171 0.6560590369687036 I I #
point $-1 45.33769476637935 40.717388695169369 17.783459619600158 #
point $-1 45.33769476637935 28.62215986810449 17.783459619600158 #
straight-curve $-1 12.522320198402419 40.717388695169362 7.2692373848993341 1 0 0 I I #
coedge $-1 $431 $527 $530 $531 reversed $371 $-1 #
coedge $-1 $521 $434 $431 $486 forward $491 $-1 #
edge $-1 $436 -17.783459619600158 $532 17.783459619600158 $431 $533 forward 7 unknown #
face $-1 $-1 $534 $15 $-1 $535 reversed single #
plane-surface $-1 0 40.717388695169369 0 0 -1 0 0 0 -1 forward_v I I I I #
coedge $-1 $524 $433 $516 $536 forward $288 $-1 #
edge $-1 $492 -4.4299902079832236 $537 4.4299902079832236 $472 $538 forward 7 unknown #
loop $-1 $-1 $485 $511 #
vertex $-1 $435 $539 #
straight-curve $-1 -78.497268593401898 0 17.783459619600158 0 -1 0 I I #
point $-1 -78.497268593401898 40.717388695169369 17.783459619600158 #
coedge $-1 $446 $441 $442 $499 forward $390 $-1 #
coedge $-1 $456 $455 $441 $497 reversed $411 $-1 #
edge $-1 $461 -40.717388695169369 $540 40.717388695169369 $496 $541 forward 7 unknown #
coedge $-1 $443 $442 $455 $506 reversed $332 $-1 #
edge $-1 $540 -78.497268593401898 $500 69.637288177435451 $442 $542 forward 7 unknown #
vertex $-1 $447 $543 #
straight-curve $-1 -69.637288177435451 -40.717388695169369 0 0 0 -1 I I #
straight-curve $-1 -69.637288177435451 -48.245463044451135 -17.783459619600158 0 -1 0 I I #
point $-1 -69.637288177435451 -55.773537393732902 -17.783459619600158 #
straight-curve $-1 -78.497268593401898 0 -17.783459619600158 0 1 0 I I #
straight-curve $-1 0 -40.717388695169369 17.783459619600158 1 0 0 I I #
edge $-1 $457 -17.783459619600158 $540 17.783459619600158 $455 $544 forward 7 unknown #
point $-1 78.497268593401898 -40.717388695169369 17.783459619600158 #
straight-curve $-1 78.497268593401898 40.717388695169369 0 0 0 -1 I I #
point $-1 78.497268593401898 40.717388695169369 -17.783459619600158 #
point $-1 -69.637288177435451 -40.717388695169369 17.783459619600158 #
face $-1 $432 $491 $15 $-1 $545 reversed single #
loop $-1 $-1 $546 $467 #
plane-surface $-1 0 0 -17.783459619600158 0 0 1 1 0 0 forward_v I I I I #
coedge $-1 $547 $548 $549 $550 forward $468 $-1 #
coedge $-1 $549 $470 $551 $552 reversed $418 $-1 #
coedge $-1 $470 $549 $489 $536 reversed $418 $-1 #
coedge $-1 $472 $471 $470 $518 reversed $358 $-1 #
edge $-1 $537 -17.783459619600158 $553 17.783459619600158 $470 $554 forward 7 unknown #
coedge $-1 $555 $551 $471 $520 forward $512 $-1 #
edge $-1 $553 -4.4299902079832236 $522 4.4299902079832236 $471 $556 forward 7 unknown #
coedge $-1 $473 $485 $555 $557 reversed $491 $-1 #
vertex $-1 $557 $558 #
straight-curve $-1 -78.497268593401898 -55.773537393732902 0 0 0 -1 I I #
coedge $-1 $475 $489 $548 $559 forward $288 $-1 #
coedge $-1 $560 $561 $475 $526 reversed $534 $-1 #
edge $-1 $562 -40.717388695169369 $528 40.717388695169369 $525 $563 forward 7 unknown #
coedge $-1 $484 $476 $561 $564 forward $371 $-1 #
vertex $-1 $526 $565 #
point $-1 45.33769476637935 40.717388695169369 7.269237384899327 #
coedge $-1 $546 $555 $484 $531 forward $512 $-1 #
edge $-1 $532 -78.497268593401898 $566 78.497268593401898 $484 $567 forward 7 unknown #
vertex $-1 $531 $568 #
straight-curve $-1 -78.497268593401898 40.717388695169369 0 0 0 -1 I I #
loop $-1 $-1 $560 $487 #
plane-surface $-1 78.497268593401898 0 0 -1 0 0 0 0 1 forward_v I I I I #
edge $-1 $537 -7.5280743492817663 $569 7.5280743492817663 $516 $570 forward 7 unknown #
vertex $-1 $536 $571 #
straight-curve $-1 -74.067278385418675 -55.773537393732902 17.783459619600158 1 0 0 I I #
point $-1 -78.497268593401898 -55.773537393732902 17.783459619600158 #
vertex $-1 $506 $572 #
straight-curve $-1 78.497268593401898 0 -17.783459619600158 0 -1 0 I I #
straight-curve $-1 0 -40.717388695169369 -17.783459619600158 -1 0 0 I I #
point $-1 -69.637288177435451 -40.717388695169369 -17.783459619600158 #
straight-curve $-1 78.497268593401898 -40.717388695169369 0 0 0 -1 I I #
plane-surface $-1 -78.497268593401898 0 0 1 0 0 0 0 -1 forward_v I I I I #
coedge $-1 $573 $530 $574 $575 forward $512 $-1 #
coedge $-1 $576 $514 $573 $577 reversed $468 $-1 #
coedge $-1 $514 $576 $524 $559 reversed $468 $-1 #
coedge $-1 $516 $515 $514 $550 reversed $418 $-1 #
edge $-1 $569 -17.783459619600158 $578 17.783459619600158 $514 $579 forward 7 unknown #
coedge $-1 $519 $573 $515 $552 forward $512 $-1 #
edge $-1 $578 -7.5280743492817663 $553 7.5280743492817663 $515 $580 forward 7 unknown #
vertex $-1 $518 $581 #
straight-curve $-1 -69.637288177435451 -55.773537393732902 0 0 0 -1 I I #
coedge $-1 $530 $519 $521 $557 forward $512 $-1 #
straight-curve $-1 -74.067278385418675 -55.773537393732902 -17.783459619600158 -1 0 0 I I #
edge $-1 $522 -55.773537393732902 $532 40.717388695169369 $521 $582 forward 7 unknown #
point $-1 -78.497268593401898 -55.773537393732902 -17.783459619600158 #
edge $-1 $569 -69.637288177435451 $562 78.497268593401898 $548 $583 forward 7 unknown #
coedge $-1 $574 $525 $576 $584 forward $534 $-1 #
coedge $-1 $525 $574 $527 $564 reversed $534 $-1 #
vertex $-1 $526 $585 #
straight-curve $-1 78.497268593401898 0 17.783459619600158 0 1 0 I I #
edge $-1 $528 -17.783459619600158 $566 17.783459619600158 $561 $586 forward 7 unknown #
point $-1 78.497268593401898 40.717388695169369 17.783459619600158 #
vertex $-1 $575 $587 #
straight-curve $-1 0 40.717388695169369 -17.783459619600158 1 0 0 I I #
point $-1 -78.497268593401898 40.717388695169369 -17.783459619600158 #
vertex $-1 $559 $588 #
straight-curve $-1 -69.637288177435451 -48.245463044451135 17.783459619600158 0 1 0 I I #
point $-1 -69.637288177435451 -55.773537393732902 17.783459619600158 #
point $-1 78.497268593401898 -40.717388695169369 -17.783459619600158 #
coedge $-1 $551 $546 $547 $577 forward $512 $-1 #
coedge $-1 $561 $560 $546 $575 reversed $534 $-1 #
edge $-1 $566 -40.717388695169369 $589 40.717388695169369 $574 $590 forward 7 unknown #
coedge $-1 $548 $547 $560 $584 reversed $468 $-1 #
edge $-1 $589 -78.497268593401898 $578 69.637288177435451 $547 $591 forward 7 unknown #
vertex $-1 $552 $592 #
straight-curve $-1 -69.637288177435451 -40.717388695169369 0 0 0 -1 I I #
straight-curve $-1 -69.637288177435451 -48.245463044451135 -17.783459619600158 0 -1 0 I I #
point $-1 -69.637288177435451 -55.773537393732902 -17.783459619600158 #
straight-curve $-1 -78.497268593401898 0 -17.783459619600158 0 1 0 I I #
straight-curve $-1 0 -40.717388695169369 17.783459619600158 1 0 0 I I #
edge $-1 $562 -17.783459619600158 $589 17.783459619600158 $560 $593 forward 7 unknown #
point $-1 78.497268593401898 -40.717388695169369 17.783459619600158 #
straight-curve $-1 78.497268593401898 40.717388695169369 0 0 0 -1 I I #
point $-1 78.497268593401898 40.717388695169369 -17.783459619600158 #
point $-1 -69.637288177435451 -40.717388695169369 17.783459619600158 #
vertex $-1 $584 $594 #
straight-curve $-1 78.497268593401898 0 -17.783459619600158 0 -1 0 I I #
straight-curve $-1 0 -40.717388695169369 -17.783459619600158 -1 0 0 I I #
point $-1 -69.637288177435451 -40.717388695169369 -17.783459619600158 #
straight-curve $-1 78.497268593401898 -40.717388695169369 0 0 0 -1 I I #
point $-1 78.497268593401898 -40.717388695169369 -17.783459619600158 #
End-of-ACIS-data 