500 0 10 0           
7 Unknown 11 ACIS 5.0 NT 24 Fri Mar 26 18:43:39 1999 
-1 9.9999999999999995e-007 1e-010 
body $-1 $10 $-1 $11 #
body $-1 $12 $-1 $13 #
body $-1 $14 $-1 $15 #
body $-1 $16 $-1 $17 #
body $-1 $18 $-1 $19 #
body $-1 $20 $-1 $21 #
body $-1 $22 $-1 $23 #
body $-1 $24 $-1 $25 #
body $-1 $26 $-1 $27 #
body $-1 $28 $-1 $29 #
lump $-1 $-1 $30 $0 #
transform $-1 1 0 0 0 1 0 0 0 1 70.071718497268591 30.363270823800413 8.8011508516914567 1 rotate no_reflect no_shear #
lump $-1 $-1 $31 $1 #
transform $-1 1 0 0 0 1 0 0 0 1 70.071718497268591 30.363270823800413 8.8011508516914567 1 rotate no_reflect no_shear #
lump $-1 $-1 $32 $2 #
transform $-1 1 0 0 0 1 0 0 0 1 70.071718497268591 30.363270823800413 8.8011508516914567 1 rotate no_reflect no_shear #
lump $-1 $-1 $33 $3 #
transform $-1 1 0 0 0 1 0 0 0 1 70.071718497268591 30.363270823800413 8.8011508516914567 1 rotate no_reflect no_shear #
lump $-1 $-1 $34 $4 #
transform $-1 1 0 0 0 1 0 0 0 1 70.071718497268591 30.363270823800413 8.8011508516914567 1 rotate no_reflect no_shear #
lump $-1 $-1 $35 $5 #
transform $-1 1 0 0 0 1 0 0 0 1 70.071718497268591 30.363270823800413 8.8011508516914567 1 rotate no_reflect no_shear #
lump $-1 $-1 $36 $6 #
transform $-1 1 0 0 0 1 0 0 0 1 70.071718497268591 30.363270823800413 8.8011508516914567 1 rotate no_reflect no_shear #
lump $-1 $-1 $37 $7 #
transform $-1 1 0 0 0 1 0 0 0 1 70.071718497268591 30.363270823800413 8.8011508516914567 1 rotate no_reflect no_shear #
lump $-1 $-1 $38 $8 #
transform $-1 1 0 0 0 1 0 0 0 1 70.071718497268591 30.363270823800413 8.8011508516914567 1 rotate no_reflect no_shear #
lump $-1 $-1 $39 $9 #
transform $-1 1 0 0 0 1 0 0 0 1 70.071718497268591 30.363270823800413 8.8011508516914567 1 rotate no_reflect no_shear #
shell $-1 $-1 $-1 $40 $-1 $10 #
shell $-1 $-1 $-1 $41 $-1 $12 #
shell $-1 $-1 $-1 $42 $-1 $14 #
shell $-1 $-1 $-1 $43 $-1 $16 #
shell $-1 $-1 $-1 $44 $-1 $18 #
shell $-1 $-1 $-1 $45 $-1 $20 #
shell $-1 $-1 $-1 $46 $-1 $22 #
shell $-1 $-1 $-1 $47 $-1 $24 #
shell $-1 $-1 $-1 $48 $-1 $26 #
shell $-1 $-1 $-1 $49 $-1 $28 #
face $-1 $50 $51 $30 $-1 $52 forward single #
face $-1 $53 $54 $31 $-1 $55 forward single #
face $-1 $56 $57 $32 $-1 $58 forward single #
face $-1 $59 $60 $33 $-1 $61 reversed single #
face $-1 $62 $63 $34 $-1 $64 forward single #
face $-1 $65 $66 $35 $-1 $67 forward single #
face $-1 $68 $69 $36 $-1 $70 forward single #
face $-1 $71 $72 $37 $-1 $73 reversed single #
face $-1 $74 $75 $38 $-1 $76 forward single #
face $-1 $77 $78 $39 $-1 $79 forward single #
face $-1 $80 $81 $30 $-1 $82 reversed single #
loop $-1 $-1 $83 $40 #
plane-surface $-1 0 0 8.8011508516914567 0 0 1 1 0 0 forward_v I I I I #
face $-1 $84 $85 $31 $-1 $86 reversed single #
loop $-1 $-1 $87 $41 #
plane-surface $-1 -66.860653513339798 0 -5.6127313656204514 0 0 1 1 0 0 forward_v I I I I #
face $-1 $88 $89 $32 $-1 $90 reversed single #
loop $-1 $-1 $91 $42 #
plane-surface $-1 66.860653513339798 0 -5.6127313656204514 0 0 1 1 0 0 forward_v I I I I #
face $-1 $92 $93 $33 $-1 $94 reversed single #
loop $-1 $-1 $95 $43 #
plane-surface $-1 -63.649588529411012 -104.62797882364077 123.18219711963357 1 0 0 0 0.52991927123019833 -0.84804809178421925 forward_v I I I I #
face $-1 $96 $97 $34 $-1 $98 forward single #
loop $-1 $99 $100 $44 #
cone-surface $-1 -60.171209514309055 -26.125497990457767 5.5062038262966047 0 0.52991927123019833 -0.84804809178421925 1 0 0 1 I I 0 1 1 forward I I I I #
face $-1 $101 $102 $35 $-1 $103 forward single #
loop $-1 $104 $105 $45 #
cone-surface $-1 -54.95364099165613 -26.125497990457767 5.5062038262966047 0 0.52991927123019833 -0.84804809178421925 1 0 0 1 I I 0 1 1 forward I I I I #
face $-1 $106 $107 $36 $-1 $108 forward single #
loop $-1 $109 $110 $46 #
cone-surface $-1 -49.736072469003197 -26.125497990457767 5.5062038262966047 0 0.52991927123019833 -0.84804809178421925 1 0 0 1 I I 0 1 1 forward I I I I #
face $-1 $111 $112 $37 $-1 $113 reversed single #
loop $-1 $-1 $114 $47 #
plane-surface $-1 -28.542958537957162 114.82340354932651 132.60152948048969 -1 0 0 0 0.83867057594974714 0.54463902268945019 forward_v I I I I #
face $-1 $115 $116 $38 $-1 $117 forward single #
loop $-1 $118 $119 $48 #
cone-surface $-1 -50.722593372613254 28.720217244483802 6.7346666767835339 0 -0.83867057594974714 -0.54463902268945019 0.5 0 0 1 I I 0 1 0.5 forward I I I I #
face $-1 $120 $121 $39 $-1 $122 forward single #
loop $-1 $123 $124 $49 #
cone-surface $-1 -37.414812471819602 28.720217244483802 6.7346666767835339 0 -0.83867057594974714 -0.54463902268945019 0.5 0 0 1 I I 0 1 0.5 forward I I I I #
face $-1 $125 $126 $30 $-1 $127 reversed single #
loop $-1 $-1 $128 $50 #
plane-surface $-1 0 0 -8.8011508516914567 0 0 1 1 0 0 forward_v I I I I #
coedge $-1 $129 $130 $131 $132 forward $51 $-1 #
face $-1 $133 $134 $31 $-1 $135 reversed single #
loop $-1 $-1 $136 $53 #
plane-surface $-1 -63.649588529411005 0 -7.2069411086559541 -1 0 0 0 0 1 forward_v I I I I #
coedge $-1 $137 $138 $139 $140 forward $54 $-1 #
face $-1 $141 $142 $32 $-1 $143 reversed single #
loop $-1 $-1 $144 $56 #
plane-surface $-1 63.649588529411005 0 -7.2069411086559541 1 0 0 0 0 -1 forward_v I I I I #
coedge $-1 $145 $146 $147 $148 reversed $57 $-1 #
face $-1 $149 $150 $33 $-1 $151 reversed single #
loop $-1 $-1 $152 $59 #
plane-surface $-1 -54.95364099165613 -30.36327082380042 4.3338228003343602 0 -0.52991927123019833 0.84804809178421925 1 0 0 forward_v I I I I #
coedge $-1 $153 $154 $155 $156 reversed $60 $-1 #
face $-1 $-1 $157 $34 $-1 $158 forward single #
loop $-1 $159 $160 $62 #
cone-surface $-1 -60.171209514309055 -25.197375122442217 4.0208967806882043 0 0.52991927123019833 -0.84804809178421925 0.5 0 0 1 I I -0.70710678118654746 0.70710678118654746 0.5 forward I I I I #
loop $-1 $-1 $161 $44 #
coedge $-1 $100 $100 $162 $163 reversed $63 $-1 #
face $-1 $-1 $164 $35 $-1 $165 forward single #
loop $-1 $166 $167 $65 #
cone-surface $-1 -54.95364099165613 -25.197375122442217 4.0208967806882043 0 0.52991927123019833 -0.84804809178421925 0.5 0 0 1 I I -0.70710678118654746 0.70710678118654746 0.5 forward I I I I #
loop $-1 $-1 $168 $45 #
coedge $-1 $105 $105 $169 $170 reversed $66 $-1 #
face $-1 $-1 $171 $36 $-1 $172 forward single #
loop $-1 $173 $174 $68 #
cone-surface $-1 -49.736072469003197 -25.197375122442217 4.0208967806882043 0 0.52991927123019833 -0.84804809178421925 0.5 0 0 1 I I -0.70710678118654746 0.70710678118654746 0.5 forward I I I I #
loop $-1 $-1 $175 $46 #
coedge $-1 $110 $110 $176 $177 reversed $69 $-1 #
face $-1 $178 $179 $37 $-1 $180 reversed single #
loop $-1 $-1 $181 $71 #
plane-surface $-1 -44.068702922216424 -2.7107734704590882 56.273944919444418 0 0.83867057594974714 0.54463902268945019 1 0 0 forward_v I I I I #
coedge $-1 $182 $183 $184 $185 reversed $72 $-1 #
face $-1 $-1 $186 $38 $-1 $187 forward single #
loop $-1 $188 $189 $74 #
cone-surface $-1 -50.722593372613254 27.989922195320617 6.2604075418415981 0 -0.83867057594974714 -0.54463902268945019 0.25 0 0 1 I I -0.70710678118654746 0.70710678118654746 0.25 forward I I I I #
loop $-1 $-1 $190 $48 #
coedge $-1 $119 $119 $191 $192 reversed $75 $-1 #
face $-1 $-1 $193 $39 $-1 $194 forward single #
loop $-1 $195 $196 $77 #
cone-surface $-1 -37.414812471819602 27.989922195320617 6.2604075418415981 0 -0.83867057594974714 -0.54463902268945019 0.25 0 0 1 I I -0.70710678118654746 0.70710678118654746 0.25 forward I I I I #
loop $-1 $-1 $197 $49 #
coedge $-1 $124 $124 $198 $199 reversed $78 $-1 #
face $-1 $200 $201 $30 $-1 $202 reversed single #
loop $-1 $-1 $203 $80 #
plane-surface $-1 0 -30.363270823800413 0 0 1 0 0 0 1 forward_v I I I I #
coedge $-1 $204 $205 $206 $207 forward $81 $-1 #
coedge $-1 $208 $83 $209 $210 forward $51 $-1 #
coedge $-1 $83 $208 $211 $212 forward $51 $-1 #
coedge $-1 $213 $214 $83 $132 reversed $215 $-1 #
edge $-1 $216 -30.363270823800413 $217 30.363270823800413 $131 $218 forward 7 unknown #
face $-1 $219 $220 $31 $-1 $221 reversed single #
loop $-1 $-1 $222 $84 #
plane-surface $-1 0 0 -8.8011508516914567 0 0 1 1 0 0 forward_v I I I I #
coedge $-1 $223 $139 $224 $225 reversed $85 $-1 #
coedge $-1 $226 $87 $227 $228 reversed $54 $-1 #
coedge $-1 $87 $226 $229 $230 reversed $54 $-1 #
coedge $-1 $136 $231 $87 $140 reversed $85 $-1 #
edge $-1 $232 -30.363270823800413 $233 30.363270823800413 $139 $234 forward 7 unknown #
face $-1 $235 $236 $32 $-1 $237 reversed single #
loop $-1 $-1 $238 $88 #
plane-surface $-1 0 -30.363270823800413 0 0 1 0 0 0 1 forward_v I I I I #
coedge $-1 $239 $240 $241 $242 reversed $89 $-1 #
coedge $-1 $243 $91 $244 $245 reversed $57 $-1 #
coedge $-1 $91 $243 $238 $246 reversed $57 $-1 #
coedge $-1 $247 $248 $91 $148 forward $249 $-1 #
edge $-1 $250 -30.363270823800413 $251 30.363270823800413 $147 $252 forward 7 unknown #
face $-1 $253 $254 $33 $-1 $255 forward single #
loop $-1 $-1 $256 $92 #
plane-surface $-1 -46.257693453901247 -104.62797882364077 123.18219711963357 -1 0 0 0 -0.52991927123019833 0.84804809178421925 forward_v I I I I #
coedge $-1 $257 $258 $259 $260 reversed $93 $-1 #
coedge $-1 $154 $95 $261 $262 reversed $60 $-1 #
coedge $-1 $95 $153 $257 $263 reversed $60 $-1 #
coedge $-1 $259 $264 $95 $156 forward $265 $-1 #
edge $-1 $266 52.789947708125325 $267 57.257275759482418 $155 $268 forward 7 unknown #
loop $-1 $-1 $162 $96 #
plane-surface $-1 -54.95364099165613 -30.36327082380042 4.3338228003343602 0 -0.52991927123019833 0.84804809178421925 1 0 0 forward_v I I I I #
loop $-1 $-1 $269 $62 #
coedge $-1 $160 $160 $161 $270 reversed $97 $-1 #
coedge $-1 $161 $161 $160 $270 forward $99 $-1 #
coedge $-1 $162 $162 $100 $163 forward $157 $-1 #
edge $-1 $271 1.2262424233826032e-015 $271 6.2831853071796013 $162 $272 forward 7 unknown #
loop $-1 $-1 $169 $101 #
plane-surface $-1 -54.95364099165613 -30.36327082380042 4.3338228003343602 0 -0.52991927123019833 0.84804809178421925 1 0 0 forward_v I I I I #
loop $-1 $-1 $273 $65 #
coedge $-1 $167 $167 $168 $274 reversed $102 $-1 #
coedge $-1 $168 $168 $167 $274 forward $104 $-1 #
coedge $-1 $169 $169 $105 $170 forward $164 $-1 #
edge $-1 $275 1.2262424233826032e-015 $275 6.2831853071796013 $169 $276 forward 7 unknown #
loop $-1 $-1 $176 $106 #
plane-surface $-1 -54.95364099165613 -30.36327082380042 4.3338228003343602 0 -0.52991927123019833 0.84804809178421925 1 0 0 forward_v I I I I #
loop $-1 $-1 $277 $68 #
coedge $-1 $174 $174 $175 $278 reversed $107 $-1 #
coedge $-1 $175 $175 $174 $278 forward $109 $-1 #
coedge $-1 $176 $176 $110 $177 forward $171 $-1 #
edge $-1 $279 1.2262424233826032e-015 $279 6.2831853071796013 $176 $280 forward 7 unknown #
face $-1 $281 $282 $37 $-1 $283 reversed single #
loop $-1 $-1 $284 $111 #
plane-surface $-1 -59.594447306475686 114.82340354932651 132.60152948048969 1 0 0 0 -0.83867057594974714 -0.54463902268945019 forward_v I I I I #
coedge $-1 $285 $286 $287 $288 reversed $112 $-1 #
coedge $-1 $183 $114 $289 $290 reversed $72 $-1 #
coedge $-1 $114 $182 $285 $291 reversed $72 $-1 #
coedge $-1 $287 $292 $114 $185 forward $282 $-1 #
edge $-1 $293 57.499613888553384 $294 60.956383479830109 $184 $295 forward 7 unknown #
loop $-1 $-1 $191 $115 #
plane-surface $-1 -44.068702922216424 -2.7107734704590882 56.273944919444418 0 0.83867057594974714 0.54463902268945019 1 0 0 forward_v I I I I #
loop $-1 $-1 $296 $74 #
coedge $-1 $189 $189 $190 $297 reversed $116 $-1 #
coedge $-1 $190 $190 $189 $297 forward $118 $-1 #
coedge $-1 $191 $191 $119 $192 forward $186 $-1 #
edge $-1 $298 0 $298 6.2831853071796004 $191 $299 forward 7 unknown #
loop $-1 $-1 $198 $120 #
plane-surface $-1 -44.068702922216424 -2.7107734704590882 56.273944919444418 0 0.83867057594974714 0.54463902268945019 1 0 0 forward_v I I I I #
loop $-1 $-1 $300 $77 #
coedge $-1 $196 $196 $197 $301 reversed $121 $-1 #
coedge $-1 $197 $197 $196 $301 forward $123 $-1 #
coedge $-1 $198 $198 $124 $199 forward $193 $-1 #
edge $-1 $302 0 $302 6.2831853071796004 $198 $303 forward 7 unknown #
face $-1 $304 $305 $30 $-1 $306 reversed single #
loop $-1 $-1 $307 $125 #
plane-surface $-1 -70.071718497268591 0 0 1 0 0 0 0 -1 forward_v I I I I #
coedge $-1 $308 $211 $309 $310 forward $126 $-1 #
coedge $-1 $311 $128 $308 $312 forward $81 $-1 #
coedge $-1 $128 $311 $313 $314 forward $81 $-1 #
coedge $-1 $214 $213 $128 $207 reversed $215 $-1 #
edge $-1 $315 -30.363270823800413 $316 30.363270823800413 $206 $317 forward 7 unknown #
coedge $-1 $130 $129 $318 $319 forward $51 $-1 #
coedge $-1 $320 $321 $129 $210 reversed $305 $-1 #
edge $-1 $217 -70.071718497268591 $322 70.071718497268591 $209 $323 forward 7 unknown #
coedge $-1 $203 $324 $130 $212 reversed $126 $-1 #
edge $-1 $325 -70.071718497268591 $216 70.071718497268591 $211 $326 forward 7 unknown #
coedge $-1 $206 $131 $324 $327 forward $215 $-1 #
coedge $-1 $131 $206 $320 $328 reversed $215 $-1 #
loop $-1 $-1 $213 $304 #
vertex $-1 $132 $329 #
vertex $-1 $132 $330 #
straight-curve $-1 70.071718497268591 0 8.8011508516914567 0 1 0 I I #
face $-1 $331 $332 $31 $-1 $333 reversed single #
loop $-1 $-1 $224 $133 #
plane-surface $-1 0 -30.363270823800413 0 0 1 0 0 0 1 forward_v I I I I #
coedge $-1 $334 $335 $223 $336 forward $134 $-1 #
coedge $-1 $231 $136 $222 $336 reversed $85 $-1 #
coedge $-1 $229 $337 $136 $225 forward $220 $-1 #
edge $-1 $338 -5.1976802973634797 $232 -2.0092608112924744 $224 $339 forward 7 unknown #
coedge $-1 $138 $137 $340 $341 reversed $54 $-1 #
coedge $-1 $342 $343 $137 $228 forward $344 $-1 #
edge $-1 $345 -36.641391740598692 $233 -30.219261772741106 $227 $346 forward 7 unknown #
coedge $-1 $347 $224 $138 $230 forward $220 $-1 #
edge $-1 $232 30.219261772741106 $348 36.641391740598692 $229 $349 forward 7 unknown #
coedge $-1 $139 $223 $342 $350 reversed $85 $-1 #
vertex $-1 $230 $351 #
vertex $-1 $228 $352 #
straight-curve $-1 -63.649588529411005 0 -5.6127313656204514 0 1 0 I I #
face $-1 $353 $354 $32 $-1 $355 reversed single #
loop $-1 $-1 $356 $141 #
plane-surface $-1 0 0 -8.8011508516914567 0 0 1 1 0 0 forward_v I I I I #
coedge $-1 $357 $358 $146 $246 forward $142 $-1 #
coedge $-1 $359 $144 $356 $360 reversed $89 $-1 #
coedge $-1 $144 $359 $243 $361 reversed $89 $-1 #
coedge $-1 $244 $362 $144 $242 forward $354 $-1 #
edge $-1 $363 -5.1976802973634797 $364 -2.0092608112924744 $241 $365 forward 7 unknown #
coedge $-1 $146 $145 $240 $361 forward $57 $-1 #
coedge $-1 $366 $241 $145 $245 forward $354 $-1 #
edge $-1 $364 30.219261772741106 $250 36.641391740598692 $244 $367 forward 7 unknown #
edge $-1 $251 -36.641391740598692 $368 -30.219261772741106 $238 $369 forward 7 unknown #
coedge $-1 $370 $147 $358 $371 forward $249 $-1 #
coedge $-1 $147 $370 $366 $372 reversed $249 $-1 #
loop $-1 $-1 $147 $353 #
vertex $-1 $372 $373 #
vertex $-1 $371 $374 #
straight-curve $-1 70.071718497268591 0 -5.6127313656204514 0 -1 0 I I #
face $-1 $-1 $265 $33 $-1 $375 reversed single #
loop $-1 $-1 $376 $149 #
plane-surface $-1 0 0 8.8011508516914567 0 0 1 1 0 0 forward_v I I I I #
coedge $-1 $377 $378 $379 $380 reversed $150 $-1 #
coedge $-1 $381 $152 $154 $263 forward $93 $-1 #
coedge $-1 $152 $381 $377 $382 forward $93 $-1 #
coedge $-1 $379 $155 $152 $260 forward $265 $-1 #
edge $-1 $267 -36.172768033582948 $383 -18.780872958073182 $259 $384 forward 7 unknown #
coedge $-1 $385 $386 $153 $262 forward $254 $-1 #
edge $-1 $387 -29.099937789904327 $266 -21.950718588019974 $261 $388 forward 7 unknown #
edge $-1 $267 8.3790584163743152e-015 $387 8.4302049272265052 $154 $389 forward 7 unknown #
coedge $-1 $155 $379 $385 $390 reversed $265 $-1 #
loop $-1 $-1 $379 $253 #
vertex $-1 $390 $391 #
vertex $-1 $156 $392 #
straight-curve $-1 -63.649588529411012 -30.363270823800413 61.591098559816785 0 0 -1 I I #
coedge $-1 $269 $269 $-1 $393 reversed $159 $-1 #
edge $-1 $394 0 $394 6.2831853071796004 $160 $395 forward 7 unknown #
vertex $-1 $163 $396 #
ellipse-curve $-1 -60.171209514309055 -26.788661222858227 6.5674868260129156 0 -0.52991927123019833 0.84804809178421925 1 0 0 1 I I #
coedge $-1 $273 $273 $-1 $397 reversed $166 $-1 #
edge $-1 $398 0 $398 6.2831853071796004 $167 $399 forward 7 unknown #
vertex $-1 $170 $400 #
ellipse-curve $-1 -54.95364099165613 -26.788661222858227 6.5674868260129156 0 -0.52991927123019833 0.84804809178421925 1 0 0 1 I I #
coedge $-1 $277 $277 $-1 $401 reversed $173 $-1 #
edge $-1 $402 0 $402 6.2831853071796004 $174 $403 forward 7 unknown #
vertex $-1 $177 $404 #
ellipse-curve $-1 -49.736072469003197 -26.788661222858227 6.5674868260129156 0 -0.52991927123019833 0.84804809178421925 1 0 0 1 I I #
face $-1 $-1 $405 $37 $-1 $406 forward single #
loop $-1 $-1 $184 $178 #
plane-surface $-1 0 30.363270823800413 0 0 -1 0 0 0 -1 forward_v I I I I #
coedge $-1 $407 $408 $409 $410 reversed $179 $-1 #
coedge $-1 $411 $181 $183 $291 forward $112 $-1 #
coedge $-1 $181 $411 $407 $412 forward $112 $-1 #
coedge $-1 $409 $184 $181 $288 forward $282 $-1 #
edge $-1 $294 6.5086070768489499 $413 37.560095845367471 $287 $414 forward 7 unknown #
coedge $-1 $415 $416 $182 $290 forward $405 $-1 #
edge $-1 $417 -29.293283299144555 $293 -27.048430950862844 $289 $418 forward 7 unknown #
edge $-1 $294 -60.726541647600818 $417 -56.604816514508926 $183 $419 forward 7 unknown #
coedge $-1 $184 $409 $415 $420 reversed $282 $-1 #
vertex $-1 $420 $421 #
vertex $-1 $185 $422 #
straight-curve $-1 -28.542958537957162 30.363270823800413 66.300764740244844 0 0 -1 I I #
coedge $-1 $296 $296 $-1 $423 reversed $188 $-1 #
edge $-1 $424 0 $424 6.2831853071796004 $189 $425 forward 7 unknown #
vertex $-1 $192 $426 #
ellipse-curve $-1 -50.722593372613254 29.240844649659554 7.0727660560531076 0 0.83867057594974714 0.54463902268945019 0.5 0 0 1 I I #
coedge $-1 $300 $300 $-1 $427 reversed $195 $-1 #
edge $-1 $428 0 $428 6.2831853071796004 $196 $429 forward 7 unknown #
vertex $-1 $199 $430 #
ellipse-curve $-1 -37.414812471819602 29.240844649659554 7.0727660560531076 0 0.83867057594974714 0.54463902268945019 0.5 0 0 1 I I #
face $-1 $-1 $215 $30 $-1 $431 reversed single #
loop $-1 $-1 $320 $200 #
plane-surface $-1 0 30.363270823800413 0 0 -1 0 0 0 -1 forward_v I I I I #
coedge $-1 $432 $318 $321 $433 forward $201 $-1 #
coedge $-1 $324 $203 $204 $312 reversed $126 $-1 #
coedge $-1 $318 $432 $203 $310 reversed $201 $-1 #
edge $-1 $325 -8.8011508516914567 $434 8.8011508516914567 $309 $435 forward 7 unknown #
coedge $-1 $205 $204 $432 $436 forward $81 $-1 #
edge $-1 $316 -70.071718497268591 $434 70.071718497268591 $308 $437 forward 7 unknown #
coedge $-1 $321 $320 $205 $314 reversed $305 $-1 #
edge $-1 $438 -70.071718497268591 $315 70.071718497268591 $313 $439 forward 7 unknown #
vertex $-1 $207 $440 #
vertex $-1 $327 $441 #
straight-curve $-1 70.071718497268591 0 -8.8011508516914567 0 -1 0 I I #
coedge $-1 $307 $309 $208 $319 reversed $201 $-1 #
edge $-1 $322 -30.363270823800413 $325 30.363270823800413 $318 $442 forward 7 unknown #
coedge $-1 $313 $209 $214 $328 forward $305 $-1 #
coedge $-1 $209 $313 $307 $433 reversed $305 $-1 #
vertex $-1 $210 $443 #
straight-curve $-1 0 30.363270823800413 8.8011508516914567 -1 0 0 I I #
coedge $-1 $211 $308 $213 $327 reversed $126 $-1 #
vertex $-1 $319 $444 #
straight-curve $-1 0 -30.363270823800413 8.8011508516914567 1 0 0 I I #
edge $-1 $216 -8.8011508516914567 $316 8.8011508516914567 $213 $445 forward 7 unknown #
edge $-1 $217 -8.8011508516914567 $315 8.8011508516914567 $214 $446 forward 7 unknown #
point $-1 70.071718497268591 -30.363270823800413 8.8011508516914567 #
point $-1 70.071718497268591 30.363270823800413 8.8011508516914567 #
face $-1 $-1 $344 $31 $-1 $447 reversed single #
loop $-1 $-1 $340 $219 #
plane-surface $-1 -70.071718497268591 0 0 1 0 0 0 0 -1 forward_v I I I I #
coedge $-1 $448 $222 $337 $449 forward $134 $-1 #
coedge $-1 $222 $448 $450 $451 forward $134 $-1 #
edge $-1 $452 -30.363270823800413 $338 30.363270823800413 $222 $453 forward 7 unknown #
coedge $-1 $224 $347 $334 $449 reversed $220 $-1 #
vertex $-1 $449 $454 #
straight-curve $-1 -63.649588529411005 -30.363270823800413 -3.603470554327977 0 0 1 I I #
coedge $-1 $455 $456 $226 $341 forward $332 $-1 #
edge $-1 $348 -30.363270823800413 $345 30.363270823800413 $340 $457 forward 7 unknown #
coedge $-1 $450 $227 $231 $350 forward $344 $-1 #
coedge $-1 $227 $450 $455 $458 reversed $344 $-1 #
loop $-1 $-1 $342 $331 #
vertex $-1 $458 $459 #
straight-curve $-1 -33.430326756669899 30.363270823800413 -5.6127313656204514 1 0 0 I I #
coedge $-1 $337 $229 $456 $460 forward $220 $-1 #
vertex $-1 $460 $461 #
straight-curve $-1 -33.430326756669899 -30.363270823800413 -5.6127313656204514 -1 0 0 I I #
edge $-1 $233 2.0092608112924744 $452 5.1976802973634797 $342 $462 forward 7 unknown #
point $-1 -63.649588529411005 -30.363270823800413 -5.6127313656204514 #
point $-1 -63.649588529411005 30.363270823800413 -5.6127313656204514 #
face $-1 $-1 $249 $32 $-1 $463 reversed single #
loop $-1 $-1 $244 $235 #
plane-surface $-1 0 30.363270823800413 0 0 -1 0 0 0 -1 forward_v I I I I #
coedge $-1 $464 $465 $239 $360 forward $236 $-1 #
coedge $-1 $466 $238 $359 $467 forward $142 $-1 #
coedge $-1 $238 $466 $247 $371 reversed $142 $-1 #
coedge $-1 $240 $239 $357 $467 reversed $89 $-1 #
edge $-1 $468 -30.363270823800413 $363 30.363270823800413 $356 $469 forward 7 unknown #
edge $-1 $364 -30.363270823800413 $368 30.363270823800413 $240 $470 forward 7 unknown #
coedge $-1 $241 $366 $464 $471 reversed $354 $-1 #
vertex $-1 $471 $472 #
vertex $-1 $245 $473 #
straight-curve $-1 63.649588529411005 30.363270823800413 -3.603470554327977 0 0 1 I I #
coedge $-1 $362 $244 $248 $372 forward $354 $-1 #
straight-curve $-1 33.430326756669899 30.363270823800413 -5.6127313656204514 1 0 0 I I #
vertex $-1 $246 $474 #
straight-curve $-1 33.430326756669899 -30.363270823800413 -5.6127313656204514 -1 0 0 I I #
coedge $-1 $248 $247 $475 $476 reversed $249 $-1 #
edge $-1 $251 5.6127313656204514 $477 8.8011508516914567 $247 $478 forward 7 unknown #
edge $-1 $250 5.6127313656204514 $479 8.8011508516914567 $248 $480 forward 7 unknown #
point $-1 70.071718497268591 30.363270823800413 -5.6127313656204514 #
point $-1 70.071718497268591 -30.363270823800413 -5.6127313656204514 #
plane-surface $-1 0 -30.363270823800413 0 0 1 0 0 0 1 forward_v I I I I #
coedge $-1 $386 $385 $378 $481 forward $254 $-1 #
coedge $-1 $378 $256 $258 $382 reversed $150 $-1 #
coedge $-1 $256 $377 $376 $481 reversed $150 $-1 #
coedge $-1 $264 $259 $256 $380 forward $265 $-1 #
edge $-1 $383 -57.257275759482418 $482 -52.789947708125325 $379 $483 forward 7 unknown #
coedge $-1 $258 $257 $386 $484 reversed $93 $-1 #
edge $-1 $485 -8.4302049272265052 $383 -8.3790584163743152e-015 $377 $486 forward 7 unknown #
vertex $-1 $260 $487 #
straight-curve $-1 -27.476820495828065 -30.363270823800413 4.3338228003343646 1 0 0 I I #
coedge $-1 $376 $261 $264 $390 forward $254 $-1 #
coedge $-1 $261 $376 $381 $484 forward $254 $-1 #
vertex $-1 $262 $488 #
straight-curve $-1 -63.649588529411012 -52.313989411820387 8.8011508516914603 0 -1 0 I I #
straight-curve $-1 -63.649588529411012 -30.36327082380042 4.3338228003343602 0 0.84804809178421925 0.52991927123019833 I I #
edge $-1 $266 -63.649588529411012 $482 -46.257693453901247 $264 $489 forward 7 unknown #
point $-1 -63.649588529411012 -30.363270823800413 8.8011508516914567 #
point $-1 -63.649588529411012 -30.363270823800413 4.3338228003343646 #
edge $-1 $490 1 $490 0 $269 $-1 forward 7 unknown #
vertex $-1 $270 $491 #
ellipse-curve $-1 -60.171209514309055 -25.462334758057317 4.4449208265803142 0 -0.52991927123019833 0.84804809178421925 1 0 0 1 I I #
point $-1 -59.171209514309055 -26.788661222858213 6.5674868260128951 #
edge $-1 $492 1 $492 0 $273 $-1 forward 7 unknown #
vertex $-1 $274 $493 #
ellipse-curve $-1 -54.95364099165613 -25.462334758057317 4.4449208265803142 0 -0.52991927123019833 0.84804809178421925 1 0 0 1 I I #
point $-1 -53.95364099165613 -26.788661222858213 6.5674868260128951 #
edge $-1 $494 1 $494 0 $277 $-1 forward 7 unknown #
vertex $-1 $278 $495 #
ellipse-curve $-1 -49.736072469003197 -25.462334758057317 4.4449208265803142 0 -0.52991927123019833 0.84804809178421925 1 0 0 1 I I #
point $-1 -48.736072469003197 -26.788661222858213 6.5674868260128951 #
loop $-1 $-1 $289 $281 #
plane-surface $-1 0 0 8.8011508516914567 0 0 1 1 0 0 forward_v I I I I #
coedge $-1 $408 $284 $286 $412 reversed $179 $-1 #
coedge $-1 $284 $407 $496 $497 reversed $179 $-1 #
coedge $-1 $292 $287 $284 $410 forward $282 $-1 #
edge $-1 $413 -60.956383479830109 $498 -57.499613888553384 $409 $499 forward 7 unknown #
coedge $-1 $286 $285 $416 $500 reversed $112 $-1 #
edge $-1 $501 56.604816514508926 $413 60.726541647600818 $407 $502 forward 7 unknown #
vertex $-1 $288 $503 #
straight-curve $-1 -22.034351461108212 30.363270823800413 5.3443812604147389 -1 0 0 I I #
coedge $-1 $496 $289 $292 $420 forward $405 $-1 #
coedge $-1 $289 $496 $411 $500 forward $405 $-1 #
vertex $-1 $290 $504 #
straight-curve $-1 -28.542958537957162 57.411701774663257 8.8011508516914603 0 1 0 I I #
straight-curve $-1 -28.542958537957162 -2.7107734704590882 56.273944919444418 0 -0.54463902268945019 0.83867057594974714 I I #
edge $-1 $293 28.542958537957162 $498 59.594447306475686 $292 $505 forward 7 unknown #
point $-1 -28.542958537957162 30.363270823800413 8.8011508516914567 #
point $-1 -28.542958537957162 30.363270823800413 5.3443812604147354 #
edge $-1 $506 1 $506 0 $296 $-1 forward 7 unknown #
vertex $-1 $297 $507 #
ellipse-curve $-1 -50.722593372613254 28.199589839308054 6.3965672975139602 0 0.83867057594974714 0.54463902268945019 0.5 0 0 1 I I #
point $-1 -50.222593372613254 29.240844649659554 7.0727660560531076 #
edge $-1 $508 1 $508 0 $300 $-1 forward 7 unknown #
vertex $-1 $301 $509 #
ellipse-curve $-1 -37.414812471819602 28.199589839308054 6.3965672975139602 0 0.83867057594974714 0.54463902268945019 0.5 0 0 1 I I #
point $-1 -36.914812471819602 29.240844649659554 7.0727660560531076 #
plane-surface $-1 70.071718497268591 0 0 -1 0 0 0 0 1 forward_v I I I I #
coedge $-1 $309 $307 $311 $436 reversed $201 $-1 #
edge $-1 $322 -8.8011508516914567 $438 8.8011508516914567 $321 $510 forward 7 unknown #
vertex $-1 $436 $511 #
straight-curve $-1 -70.071718497268591 -30.363270823800413 0 0 0 -1 I I #
edge $-1 $434 -30.363270823800413 $438 30.363270823800413 $432 $512 forward 7 unknown #
straight-curve $-1 0 -30.363270823800413 -8.8011508516914567 -1 0 0 I I #
vertex $-1 $314 $513 #
straight-curve $-1 0 30.363270823800413 -8.8011508516914567 1 0 0 I I #
point $-1 70.071718497268591 30.363270823800413 -8.8011508516914567 #
point $-1 70.071718497268591 -30.363270823800413 -8.8011508516914567 #
straight-curve $-1 -70.071718497268591 0 8.8011508516914567 0 -1 0 I I #
point $-1 -70.071718497268591 30.363270823800413 8.8011508516914567 #
point $-1 -70.071718497268591 -30.363270823800413 8.8011508516914567 #
straight-curve $-1 70.071718497268591 -30.363270823800413 0 0 0 -1 I I #
straight-curve $-1 70.071718497268591 30.363270823800413 0 0 0 -1 I I #
plane-surface $-1 0 30.363270823800413 0 0 -1 0 0 0 -1 forward_v I I I I #
coedge $-1 $335 $334 $514 $515 forward $134 $-1 #
edge $-1 $338 63.649588529411005 $516 70.071718497268591 $337 $517 forward 7 unknown #
coedge $-1 $343 $342 $335 $451 reversed $344 $-1 #
edge $-1 $518 -70.071718497268591 $452 -63.649588529411005 $450 $519 forward 7 unknown #
vertex $-1 $350 $520 #
straight-curve $-1 -63.649588529411005 0 -8.8011508516914567 0 -1 0 I I #
point $-1 -63.649588529411005 -30.363270823800413 -8.8011508516914567 #
coedge $-1 $514 $340 $343 $458 forward $332 $-1 #
coedge $-1 $340 $514 $347 $460 reversed $332 $-1 #
straight-curve $-1 -70.071718497268591 0 -5.6127313656204514 0 1 0 I I #
edge $-1 $345 5.6127313656204514 $518 8.8011508516914567 $343 $521 forward 7 unknown #
point $-1 -70.071718497268591 30.363270823800413 -5.6127313656204514 #
edge $-1 $348 5.6127313656204514 $516 8.8011508516914567 $456 $522 forward 7 unknown #
point $-1 -70.071718497268591 -30.363270823800413 -5.6127313656204514 #
straight-curve $-1 -63.649588529411005 30.363270823800413 -3.603470554327977 0 0 -1 I I #
plane-surface $-1 70.071718497268591 0 0 -1 0 0 0 0 1 forward_v I I I I #
coedge $-1 $475 $356 $362 $471 forward $236 $-1 #
coedge $-1 $356 $475 $466 $523 forward $236 $-1 #
coedge $-1 $358 $357 $465 $523 reversed $142 $-1 #
edge $-1 $368 2.0092608112924744 $468 5.1976802973634797 $357 $524 forward 7 unknown #
vertex $-1 $360 $525 #
straight-curve $-1 63.649588529411005 0 -8.8011508516914567 0 1 0 I I #
straight-curve $-1 63.649588529411005 0 -5.6127313656204514 0 -1 0 I I #
edge $-1 $363 63.649588529411005 $479 70.071718497268591 $362 $526 forward 7 unknown #
point $-1 63.649588529411005 30.363270823800413 -8.8011508516914567 #
point $-1 63.649588529411005 30.363270823800413 -5.6127313656204514 #
point $-1 63.649588529411005 -30.363270823800413 -5.6127313656204514 #
coedge $-1 $465 $464 $370 $476 forward $236 $-1 #
edge $-1 $479 -30.363270823800413 $477 30.363270823800413 $370 $527 forward 7 unknown #
vertex $-1 $371 $528 #
straight-curve $-1 70.071718497268591 -30.363270823800413 0 0 0 -1 I I #
vertex $-1 $476 $529 #
straight-curve $-1 70.071718497268591 30.363270823800413 0 0 0 -1 I I #
edge $-1 $482 21.950718588019974 $485 29.099937789904327 $376 $530 forward 7 unknown #
vertex $-1 $481 $531 #
straight-curve $-1 -46.257693453901247 -30.363270823800413 61.591098559816785 0 0 1 I I #
edge $-1 $485 18.780872958073182 $387 36.172768033582948 $386 $532 forward 7 unknown #
vertex $-1 $484 $533 #
straight-curve $-1 -46.257693453901247 -30.36327082380042 4.3338228003343602 0 -0.84804809178421925 -0.52991927123019833 I I #
point $-1 -46.257693453901247 -30.363270823800413 4.3338228003343646 #
point $-1 -63.649588529411012 -23.21405162191606 8.8011508516914567 #
straight-curve $-1 0 -30.363270823800413 8.8011508516914567 1 0 0 I I #
vertex $-1 $393 $534 #
point $-1 -59.171209514309055 -25.462334758057317 4.4449208265803142 #
vertex $-1 $397 $535 #
point $-1 -53.95364099165613 -25.462334758057317 4.4449208265803142 #
vertex $-1 $401 $536 #
point $-1 -48.736072469003197 -25.462334758057317 4.4449208265803142 #
coedge $-1 $416 $415 $408 $497 forward $405 $-1 #
edge $-1 $498 27.048430950862844 $501 29.293283299144555 $496 $537 forward 7 unknown #
vertex $-1 $497 $538 #
straight-curve $-1 -59.594447306475686 30.363270823800413 66.300764740244844 0 0 1 I I #
edge $-1 $501 -37.560095845367471 $417 -6.5086070768489499 $416 $539 forward 7 unknown #
vertex $-1 $500 $540 #
straight-curve $-1 -59.594447306475686 -2.7107734704590882 56.273944919444418 0 0.54463902268945019 -0.83867057594974714 I I #
point $-1 -59.594447306475686 30.363270823800413 5.3443812604147354 #
point $-1 -28.542958537957162 28.118418475518702 8.8011508516914603 #
straight-curve $-1 0 30.363270823800413 8.8011508516914567 -1 0 0 I I #
vertex $-1 $423 $541 #
point $-1 -50.222593372613254 28.199589839308054 6.3965672975139602 #
vertex $-1 $427 $542 #
point $-1 -36.914812471819602 28.199589839308054 6.3965672975139602 #
straight-curve $-1 -70.071718497268591 30.363270823800413 0 0 0 -1 I I #
point $-1 -70.071718497268591 -30.363270823800413 -8.8011508516914567 #
straight-curve $-1 -70.071718497268591 0 -8.8011508516914567 0 1 0 I I #
point $-1 -70.071718497268591 30.363270823800413 -8.8011508516914567 #
coedge $-1 $456 $455 $448 $515 reversed $332 $-1 #
edge $-1 $516 -30.363270823800413 $518 30.363270823800413 $514 $543 forward 7 unknown #
vertex $-1 $515 $544 #
straight-curve $-1 0 -30.363270823800413 -8.8011508516914567 -1 0 0 I I #
vertex $-1 $451 $545 #
straight-curve $-1 0 30.363270823800413 -8.8011508516914567 1 0 0 I I #
point $-1 -63.649588529411005 30.363270823800413 -8.8011508516914567 #
straight-curve $-1 -70.071718497268591 30.363270823800413 0 0 0 -1 I I #
straight-curve $-1 -70.071718497268591 -30.363270823800413 0 0 0 -1 I I #
edge $-1 $477 -70.071718497268591 $468 -63.649588529411005 $466 $546 forward 7 unknown #
straight-curve $-1 63.649588529411005 -30.363270823800413 -3.603470554327977 0 0 -1 I I #
point $-1 63.649588529411005 -30.363270823800413 -8.8011508516914567 #
straight-curve $-1 0 30.363270823800413 -8.8011508516914567 1 0 0 I I #
straight-curve $-1 70.071718497268591 0 -8.8011508516914567 0 -1 0 I I #
point $-1 70.071718497268591 -30.363270823800413 -8.8011508516914567 #
point $-1 70.071718497268591 30.363270823800413 -8.8011508516914567 #
straight-curve $-1 -46.257693453901247 -52.313989411820387 8.8011508516914603 0 1 0 I I #
point $-1 -46.257693453901247 -30.363270823800413 8.8011508516914567 #
straight-curve $-1 -27.476820495828065 -23.214051621916063 8.8011508516914567 -1 0 0 I I #
point $-1 -46.257693453901247 -23.21405162191606 8.8011508516914567 #
point $-1 -60.171209514309055 -24.932415486827118 3.5968727347960945 #
point $-1 -54.95364099165613 -24.932415486827118 3.5968727347960945 #
point $-1 -49.736072469003197 -24.932415486827118 3.5968727347960945 #
straight-curve $-1 -59.594447306475686 57.411701774663257 8.8011508516914603 0 -1 0 I I #
point $-1 -59.594447306475686 30.363270823800413 8.8011508516914567 #
straight-curve $-1 -22.034351461108212 28.118418475518702 8.8011508516914603 1 0 0 I I #
point $-1 -59.594447306475686 28.118418475518702 8.8011508516914603 #
point $-1 -50.722593372613254 27.780254551333179 6.1242477861692359 #
point $-1 -37.414812471819602 27.780254551333179 6.1242477861692359 #
straight-curve $-1 -70.071718497268591 0 -8.8011508516914567 0 1 0 I I #
point $-1 -70.071718497268591 -30.363270823800413 -8.8011508516914567 #
point $-1 -70.071718497268591 30.363270823800413 -8.8011508516914567 #
straight-curve $-1 0 -30.363270823800413 -8.8011508516914567 -1 0 0 I I #
End-of-ACIS-data 