500 0 7 0           
7 Unknown 11 ACIS 5.0 NT 24 Thu Mar 25 22:13:17 1999 
-1 9.9999999999999995e-007 1e-010 
body $-1 $7 $-1 $8 #
body $-1 $9 $-1 $10 #
body $-1 $11 $-1 $12 #
body $-1 $13 $-1 $14 #
body $-1 $15 $-1 $16 #
body $-1 $17 $-1 $18 #
body $-1 $19 $-1 $20 #
lump $-1 $-1 $21 $0 #
transform $-1 1 0 0 0 1 0 0 0 1 41.792046876430554 19.876188827710994 5.8734450380589394 1 rotate no_reflect no_shear #
lump $-1 $-1 $22 $1 #
transform $-1 1 0 0 0 1 0 0 0 1 41.792046876430554 19.876188827710994 5.8734450380589394 1 rotate no_reflect no_shear #
lump $-1 $-1 $23 $2 #
transform $-1 1 0 0 0 1 0 0 0 1 41.792046876430554 19.876188827710994 5.8734450380589394 1 rotate no_reflect no_shear #
lump $-1 $-1 $24 $3 #
transform $-1 1 0 0 0 1 0 0 0 1 41.792046876430554 19.876188827710994 5.8734450380589394 1 rotate no_reflect no_shear #
lump $-1 $-1 $25 $4 #
transform $-1 1 0 0 0 1 0 0 0 1 41.792046876430554 19.876188827710994 5.8734450380589394 1 rotate no_reflect no_shear #
lump $-1 $-1 $26 $5 #
transform $-1 1 0 0 0 1 0 0 0 1 41.792046876430554 19.876188827710994 5.8734450380589394 1 rotate no_reflect no_shear #
lump $-1 $-1 $27 $6 #
transform $-1 1 0 0 0 1 0 0 0 1 41.792046876430554 19.876188827710994 5.8734450380589394 1 rotate no_reflect no_shear #
shell $-1 $-1 $-1 $28 $-1 $7 #
shell $-1 $-1 $-1 $29 $-1 $9 #
shell $-1 $-1 $-1 $30 $-1 $11 #
shell $-1 $-1 $-1 $31 $-1 $13 #
shell $-1 $-1 $-1 $32 $-1 $15 #
shell $-1 $-1 $-1 $33 $-1 $17 #
shell $-1 $-1 $-1 $34 $-1 $19 #
face $-1 $35 $36 $21 $-1 $37 forward single #
face $-1 $38 $39 $22 $-1 $40 reversed single #
face $-1 $41 $42 $23 $-1 $43 forward single #
face $-1 $44 $45 $24 $-1 $46 forward single #
face $-1 $47 $48 $25 $-1 $49 reversed single #
face $-1 $50 $51 $26 $-1 $52 forward single #
face $-1 $53 $54 $27 $-1 $55 forward single #
face $-1 $56 $57 $21 $-1 $58 reversed single #
loop $-1 $-1 $59 $28 #
plane-surface $-1 0 0 5.8734450380589394 0 0 1 1 0 0 forward_v I I I I #
face $-1 $60 $61 $22 $-1 $62 reversed single #
loop $-1 $-1 $63 $29 #
plane-surface $-1 33.546431199995943 11.992364547203222 120.42628147475139 0 -1 0 -0.6560590369687036 0 -0.75470957328743171 forward_v I I I I #
face $-1 $64 $65 $23 $-1 $66 forward single #
loop $-1 $67 $68 $30 #
cone-surface $-1 38.596162559393093 6.2951633301198555 2.7410294531040287 -0.6560590369687036 0 -0.75470957328743171 0.75470957328743171 0 -0.6560590369687036 1 I I 0 1 1 forward I I I I #
face $-1 $69 $70 $24 $-1 $71 forward single #
loop $-1 $72 $73 $31 #
cone-surface $-1 38.596162559393093 9.7134840603698756 2.7410294531040287 -0.6560590369687036 0 -0.75470957328743171 0.75470957328743171 0 -0.6560590369687036 1 I I 0 1 1 forward I I I I #
face $-1 $74 $75 $25 $-1 $76 reversed single #
loop $-1 $-1 $77 $32 #
plane-surface $-1 -96.628146929834443 4.016282843286513 65.590181421347495 0 1 0 -0.6560590369687036 0 0.75470957328743171 forward_v I I I I #
face $-1 $78 $79 $26 $-1 $80 forward single #
loop $-1 $81 $82 $33 #
cone-surface $-1 -38.596162559393079 6.2951633301198555 2.7410294531040216 0.6560590369687036 0 -0.75470957328743171 0.75470957328743171 0 0.6560590369687036 1 I I 0 1 1 forward I I I I #
face $-1 $83 $84 $27 $-1 $85 forward single #
loop $-1 $86 $87 $34 #
cone-surface $-1 -38.596162559393079 9.7134840603698756 2.7410294531040216 0.6560590369687036 0 -0.75470957328743171 0.75470957328743171 0 0.6560590369687036 1 I I 0 1 1 forward I I I I #
face $-1 $88 $89 $21 $-1 $90 reversed single #
loop $-1 $-1 $91 $35 #
plane-surface $-1 0 0 -5.8734450380589394 0 0 1 1 0 0 forward_v I I I I #
coedge $-1 $92 $93 $94 $95 forward $36 $-1 #
face $-1 $96 $97 $22 $-1 $98 reversed single #
loop $-1 $-1 $99 $38 #
plane-surface $-1 -21.289668853407953 8.0043236952448673 57.344565744912899 0.6560590369687036 0 0.75470957328743171 0.75470957328743171 0 -0.6560590369687036 forward_v I I I I #
coedge $-1 $100 $101 $102 $103 reversed $39 $-1 #
face $-1 $-1 $104 $23 $-1 $105 forward single #
loop $-1 $106 $107 $41 #
cone-surface $-1 37.007731648159428 6.2951633301198555 0.91374875478035733 -0.6560590369687036 0 -0.75470957328743171 0.37735478664371586 0 -0.3280295184843518 1 I I -0.70710678118654746 0.70710678118654746 0.5 forward I I I I #
loop $-1 $-1 $108 $30 #
coedge $-1 $68 $68 $109 $110 reversed $42 $-1 #
face $-1 $-1 $111 $24 $-1 $112 forward single #
loop $-1 $113 $114 $44 #
cone-surface $-1 37.007731648159428 9.7134840603698756 0.91374875478035733 -0.6560590369687036 0 -0.75470957328743171 0.37735478664371586 0 -0.3280295184843518 1 I I -0.70710678118654746 0.70710678118654746 0.5 forward I I I I #
loop $-1 $-1 $115 $31 #
coedge $-1 $73 $73 $116 $117 reversed $45 $-1 #
face $-1 $118 $119 $25 $-1 $120 reversed single #
loop $-1 $-1 $121 $47 #
plane-surface $-1 -41.792046876430547 8.0043236952448673 2.5084656915090022 -0.6560590369687036 0 0.75470957328743171 0.75470957328743171 0 0.6560590369687036 forward_v I I I I #
coedge $-1 $122 $123 $124 $125 reversed $48 $-1 #
face $-1 $-1 $126 $26 $-1 $127 forward single #
loop $-1 $128 $129 $50 #
cone-surface $-1 -37.007731648159414 6.2951633301198555 0.91374875478035023 0.6560590369687036 0 -0.75470957328743171 0.37735478664371586 0 0.3280295184843518 1 I I -0.70710678118654746 0.70710678118654746 0.5 forward I I I I #
loop $-1 $-1 $130 $33 #
coedge $-1 $82 $82 $131 $132 reversed $51 $-1 #
face $-1 $-1 $133 $27 $-1 $134 forward single #
loop $-1 $135 $136 $53 #
cone-surface $-1 -37.007731648159414 9.7134840603698756 0.91374875478035023 0.6560590369687036 0 -0.75470957328743171 0.37735478664371586 0 0.3280295184843518 1 I I -0.70710678118654746 0.70710678118654746 0.5 forward I I I I #
loop $-1 $-1 $137 $34 #
coedge $-1 $87 $87 $138 $139 reversed $54 $-1 #
face $-1 $140 $141 $21 $-1 $142 reversed single #
loop $-1 $-1 $143 $56 #
plane-surface $-1 0 -19.876188827710994 0 0 1 0 0 0 1 forward_v I I I I #
coedge $-1 $144 $145 $146 $147 forward $57 $-1 #
coedge $-1 $148 $59 $149 $150 forward $36 $-1 #
coedge $-1 $59 $148 $151 $152 forward $36 $-1 #
coedge $-1 $153 $154 $59 $95 reversed $155 $-1 #
edge $-1 $156 -19.876188827710994 $157 19.876188827710994 $94 $158 forward 7 unknown #
face $-1 $159 $160 $22 $-1 $161 forward single #
loop $-1 $-1 $162 $60 #
plane-surface $-1 33.546431199995943 4.016282843286513 120.42628147475139 0 1 0 0.6560590369687036 0 0.75470957328743171 forward_v I I I I #
coedge $-1 $163 $164 $165 $166 reversed $61 $-1 #
coedge $-1 $101 $63 $167 $168 reversed $39 $-1 #
coedge $-1 $63 $100 $163 $169 reversed $39 $-1 #
coedge $-1 $165 $170 $63 $103 forward $160 $-1 #
edge $-1 $171 -25.018831276432582 $172 -21.147865427856249 $102 $173 forward 7 unknown #
loop $-1 $-1 $109 $64 #
plane-surface $-1 -21.289668853407953 8.0043236952448673 57.344565744912899 0.6560590369687036 0 0.75470957328743171 0.75470957328743171 0 -0.6560590369687036 forward_v I I I I #
loop $-1 $-1 $174 $41 #
coedge $-1 $107 $107 $108 $175 reversed $65 $-1 #
coedge $-1 $108 $108 $107 $175 forward $67 $-1 #
coedge $-1 $109 $109 $68 $110 forward $104 $-1 #
edge $-1 $176 0 $176 6.2831853071796004 $109 $177 forward 7 unknown #
loop $-1 $-1 $116 $69 #
plane-surface $-1 -21.289668853407953 8.0043236952448673 57.344565744912899 0.6560590369687036 0 0.75470957328743171 0.75470957328743171 0 -0.6560590369687036 forward_v I I I I #
loop $-1 $-1 $178 $44 #
coedge $-1 $114 $114 $115 $179 reversed $70 $-1 #
coedge $-1 $115 $115 $114 $179 forward $72 $-1 #
coedge $-1 $116 $116 $73 $117 forward $111 $-1 #
edge $-1 $180 0 $180 6.2831853071796004 $116 $181 forward 7 unknown #
face $-1 $182 $183 $25 $-1 $184 reversed single #
loop $-1 $-1 $185 $74 #
plane-surface $-1 -96.628146929834443 11.992364547203222 65.590181421347495 0 -1 0 0.6560590369687036 0 -0.75470957328743171 forward_v I I I I #
coedge $-1 $186 $187 $188 $189 reversed $75 $-1 #
coedge $-1 $123 $77 $190 $191 reversed $48 $-1 #
coedge $-1 $77 $122 $186 $192 reversed $48 $-1 #
coedge $-1 $188 $193 $77 $125 forward $194 $-1 #
edge $-1 $195 6.5220265884866677 $196 10.392992437063 $124 $197 forward 7 unknown #
loop $-1 $-1 $131 $78 #
plane-surface $-1 -41.792046876430547 8.0043236952448673 2.5084656915090022 -0.6560590369687036 0 0.75470957328743171 0.75470957328743171 0 0.6560590369687036 forward_v I I I I #
loop $-1 $-1 $198 $50 #
coedge $-1 $129 $129 $130 $199 reversed $79 $-1 #
coedge $-1 $130 $130 $129 $199 forward $81 $-1 #
coedge $-1 $131 $131 $82 $132 forward $126 $-1 #
edge $-1 $200 0 $200 6.2831853071796004 $131 $201 forward 7 unknown #
loop $-1 $-1 $138 $83 #
plane-surface $-1 -41.792046876430547 8.0043236952448673 2.5084656915090022 -0.6560590369687036 0 0.75470957328743171 0.75470957328743171 0 0.6560590369687036 forward_v I I I I #
loop $-1 $-1 $202 $53 #
coedge $-1 $136 $136 $137 $203 reversed $84 $-1 #
coedge $-1 $137 $137 $136 $203 forward $86 $-1 #
coedge $-1 $138 $138 $87 $139 forward $133 $-1 #
edge $-1 $204 0 $204 6.2831853071796004 $138 $205 forward 7 unknown #
face $-1 $206 $207 $21 $-1 $208 reversed single #
loop $-1 $-1 $209 $88 #
plane-surface $-1 -41.792046876430554 0 0 1 0 0 0 0 -1 forward_v I I I I #
coedge $-1 $210 $151 $211 $212 forward $89 $-1 #
coedge $-1 $213 $91 $210 $214 forward $57 $-1 #
coedge $-1 $91 $213 $215 $216 forward $57 $-1 #
coedge $-1 $154 $153 $91 $147 reversed $155 $-1 #
edge $-1 $217 -19.876188827710994 $218 19.876188827710994 $146 $219 forward 7 unknown #
coedge $-1 $93 $92 $220 $221 forward $36 $-1 #
coedge $-1 $222 $223 $92 $150 reversed $207 $-1 #
edge $-1 $157 -41.792046876430554 $224 41.792046876430554 $149 $225 forward 7 unknown #
coedge $-1 $143 $226 $93 $152 reversed $89 $-1 #
edge $-1 $227 -41.792046876430554 $156 41.792046876430554 $151 $228 forward 7 unknown #
coedge $-1 $146 $94 $226 $229 forward $155 $-1 #
coedge $-1 $94 $146 $222 $230 reversed $155 $-1 #
loop $-1 $-1 $153 $206 #
vertex $-1 $95 $231 #
vertex $-1 $95 $232 #
straight-curve $-1 41.792046876430554 0 5.8734450380589394 0 1 0 I I #
face $-1 $-1 $233 $22 $-1 $234 reversed single #
loop $-1 $-1 $102 $96 #
plane-surface $-1 0 0 5.8734450380589394 0 0 1 1 0 0 forward_v I I I I #
coedge $-1 $235 $236 $237 $238 reversed $97 $-1 #
coedge $-1 $239 $99 $101 $169 forward $61 $-1 #
coedge $-1 $99 $239 $235 $240 forward $61 $-1 #
coedge $-1 $237 $102 $99 $166 forward $160 $-1 #
edge $-1 $172 -7.990202699580788 $241 -0.014120995664079317 $165 $242 forward 7 unknown #
coedge $-1 $243 $244 $100 $168 forward $233 $-1 #
edge $-1 $245 -57.704675045866701 $171 -54.339695699316756 $167 $246 forward 7 unknown #
edge $-1 $172 78.455013659554737 $245 83.584093752861122 $101 $247 forward 7 unknown #
coedge $-1 $102 $237 $243 $248 forward $160 $-1 #
vertex $-1 $168 $249 #
vertex $-1 $103 $250 #
straight-curve $-1 16.773215599997972 11.992364547203222 5.8734450380589394 -1 0 0 I I #
coedge $-1 $174 $174 $-1 $251 reversed $106 $-1 #
edge $-1 $252 0 $252 6.2831853071796004 $107 $253 forward 7 unknown #
vertex $-1 $110 $254 #
ellipse-curve $-1 39.856563952142395 6.2951633301198555 4.1909553647839646 0.6560590369687036 0 0.75470957328743171 0.75470957328743171 0 -0.6560590369687036 1 I I #
coedge $-1 $178 $178 $-1 $255 reversed $113 $-1 #
edge $-1 $256 0 $256 6.2831853071796004 $114 $257 forward 7 unknown #
vertex $-1 $117 $258 #
ellipse-curve $-1 39.856563952142395 9.7134840603698756 4.1909553647839646 0.6560590369687036 0 0.75470957328743171 0.75470957328743171 0 -0.6560590369687036 1 I I #
face $-1 $-1 $194 $25 $-1 $259 forward single #
loop $-1 $-1 $260 $118 #
plane-surface $-1 -41.792046876430554 0 0 1 0 0 0 0 -1 forward_v I I I I #
coedge $-1 $261 $262 $263 $264 reversed $119 $-1 #
coedge $-1 $265 $121 $123 $192 forward $75 $-1 #
coedge $-1 $121 $265 $261 $266 forward $75 $-1 #
coedge $-1 $263 $124 $121 $189 forward $194 $-1 #
edge $-1 $196 0.014120995664079317 $267 7.990202699580788 $188 $268 forward 7 unknown #
coedge $-1 $269 $270 $122 $191 forward $183 $-1 #
edge $-1 $271 -30.286625019164752 $195 -26.921645672614808 $190 $272 forward 7 unknown #
edge $-1 $196 -5.1290800933063885 $271 9.44141639987384e-015 $123 $273 forward 7 unknown #
coedge $-1 $124 $263 $269 $274 forward $194 $-1 #
loop $-1 $-1 $263 $182 #
vertex $-1 $191 $275 #
vertex $-1 $125 $276 #
straight-curve $-1 -48.314073464917222 4.016282843286513 5.8734450380589394 1 0 0 I I #
coedge $-1 $198 $198 $-1 $277 reversed $128 $-1 #
edge $-1 $278 0 $278 6.2831853071796004 $129 $279 forward 7 unknown #
vertex $-1 $132 $280 #
ellipse-curve $-1 -39.856563952142388 6.2951633301198555 4.1909553647839681 -0.6560590369687036 0 0.75470957328743171 0.75470957328743171 0 0.6560590369687036 1 I I #
coedge $-1 $202 $202 $-1 $281 reversed $135 $-1 #
edge $-1 $282 0 $282 6.2831853071796004 $136 $283 forward 7 unknown #
vertex $-1 $139 $284 #
ellipse-curve $-1 -39.856563952142388 9.7134840603698756 4.1909553647839681 -0.6560590369687036 0 0.75470957328743171 0.75470957328743171 0 0.6560590369687036 1 I I #
face $-1 $-1 $155 $21 $-1 $285 reversed single #
loop $-1 $-1 $222 $140 #
plane-surface $-1 0 19.876188827710994 0 0 -1 0 0 0 -1 forward_v I I I I #
coedge $-1 $286 $220 $223 $287 forward $141 $-1 #
coedge $-1 $226 $143 $144 $214 reversed $89 $-1 #
coedge $-1 $220 $286 $143 $212 reversed $141 $-1 #
edge $-1 $227 -5.8734450380589394 $288 5.8734450380589394 $211 $289 forward 7 unknown #
coedge $-1 $145 $144 $286 $290 forward $57 $-1 #
edge $-1 $218 -41.792046876430554 $288 41.792046876430554 $210 $291 forward 7 unknown #
coedge $-1 $223 $222 $145 $216 reversed $207 $-1 #
edge $-1 $292 -41.792046876430554 $217 41.792046876430554 $215 $293 forward 7 unknown #
vertex $-1 $147 $294 #
vertex $-1 $229 $295 #
straight-curve $-1 41.792046876430554 0 -5.8734450380589394 0 -1 0 I I #
coedge $-1 $209 $211 $148 $221 reversed $141 $-1 #
edge $-1 $224 -19.876188827710994 $227 19.876188827710994 $220 $296 forward 7 unknown #
coedge $-1 $215 $149 $154 $230 forward $207 $-1 #
coedge $-1 $149 $215 $209 $287 reversed $207 $-1 #
vertex $-1 $150 $297 #
straight-curve $-1 0 19.876188827710994 5.8734450380589394 -1 0 0 I I #
coedge $-1 $151 $210 $153 $229 reversed $89 $-1 #
vertex $-1 $221 $298 #
straight-curve $-1 0 -19.876188827710994 5.8734450380589394 1 0 0 I I #
edge $-1 $156 -5.8734450380589394 $218 5.8734450380589394 $153 $299 forward 7 unknown #
edge $-1 $157 -5.8734450380589394 $217 5.8734450380589394 $154 $300 forward 7 unknown #
point $-1 41.792046876430554 -19.876188827710994 5.8734450380589394 #
point $-1 41.792046876430554 19.876188827710994 5.8734450380589394 #
loop $-1 $-1 $167 $159 #
plane-surface $-1 41.792046876430554 0 0 -1 0 0 0 0 1 forward_v I I I I #
coedge $-1 $236 $162 $164 $240 reversed $97 $-1 #
coedge $-1 $162 $235 $301 $302 reversed $97 $-1 #
coedge $-1 $170 $165 $162 $238 forward $160 $-1 #
edge $-1 $241 21.147865427856249 $303 25.018831276432582 $237 $304 forward 7 unknown #
coedge $-1 $164 $163 $244 $305 reversed $61 $-1 #
edge $-1 $306 -83.584093752861122 $241 -78.455013659554737 $235 $307 forward 7 unknown #
vertex $-1 $166 $308 #
straight-curve $-1 37.921081027854214 4.0021618476224337 5.8734450380589465 0 -1 0 I I #
coedge $-1 $301 $167 $170 $248 reversed $233 $-1 #
coedge $-1 $167 $301 $239 $305 forward $233 $-1 #
vertex $-1 $168 $309 #
straight-curve $-1 41.792046876430554 11.992364547203222 60.213140737375696 0 0 1 I I #
straight-curve $-1 -21.289668853407953 11.992364547203222 57.344565744912899 0.75470957328743171 0 -0.6560590369687036 I I #
edge $-1 $303 4.016282843286513 $171 11.992364547203222 $243 $310 forward 7 unknown #
point $-1 41.792046876430554 11.992364547203222 5.8734450380589394 #
point $-1 37.921081027854221 11.992364547203222 5.8734450380589394 #
edge $-1 $311 1 $311 0 $174 $-1 forward 7 unknown #
vertex $-1 $175 $312 #
ellipse-curve $-1 37.335761166643778 6.2951633301198555 1.2911035414240732 0.6560590369687036 0 0.75470957328743171 0.75470957328743171 0 -0.6560590369687036 1 I I #
point $-1 40.611273525429844 6.2951633301198555 3.5348963278152805 #
edge $-1 $313 1 $313 0 $178 $-1 forward 7 unknown #
vertex $-1 $179 $314 #
ellipse-curve $-1 37.335761166643778 9.7134840603698756 1.2911035414240732 0.6560590369687036 0 0.75470957328743171 0.75470957328743171 0 -0.6560590369687036 1 I I #
point $-1 40.611273525429844 9.7134840603698756 3.5348963278152805 #
plane-surface $-1 0 0 5.8734450380589394 0 0 1 1 0 0 forward_v I I I I #
coedge $-1 $270 $269 $262 $315 forward $183 $-1 #
coedge $-1 $262 $185 $187 $266 reversed $119 $-1 #
coedge $-1 $185 $261 $260 $315 reversed $119 $-1 #
coedge $-1 $193 $188 $185 $264 forward $194 $-1 #
edge $-1 $267 -10.392992437063 $316 -6.5220265884866677 $263 $317 forward 7 unknown #
coedge $-1 $187 $186 $270 $318 reversed $75 $-1 #
edge $-1 $319 -9.44141639987384e-015 $267 5.1290800933063885 $261 $320 forward 7 unknown #
vertex $-1 $189 $321 #
straight-curve $-1 -37.921081027854214 4.0021618476224337 5.8734450380589411 0 1 0 I I #
coedge $-1 $260 $190 $193 $274 reversed $183 $-1 #
coedge $-1 $190 $260 $265 $318 forward $183 $-1 #
vertex $-1 $191 $322 #
straight-curve $-1 -41.792046876430554 4.016282843286513 32.795090710673747 0 0 1 I I #
straight-curve $-1 -41.792046876430547 4.016282843286513 2.5084656915090022 -0.75470957328743171 0 -0.6560590369687036 I I #
edge $-1 $316 -11.992364547203222 $195 -4.016282843286513 $269 $323 forward 7 unknown #
point $-1 -41.792046876430554 4.016282843286513 5.8734450380589394 #
point $-1 -37.921081027854221 4.016282843286513 5.8734450380589394 #
edge $-1 $324 1 $324 0 $198 $-1 forward 7 unknown #
vertex $-1 $199 $325 #
ellipse-curve $-1 -37.335761166643763 6.2951633301198555 1.2911035414240661 -0.6560590369687036 0 0.75470957328743171 0.75470957328743171 0 0.6560590369687036 1 I I #
point $-1 -39.101854378854966 6.2951633301198555 4.8470144017526806 #
edge $-1 $326 1 $326 0 $202 $-1 forward 7 unknown #
vertex $-1 $203 $327 #
ellipse-curve $-1 -37.335761166643763 9.7134840603698756 1.2911035414240661 -0.6560590369687036 0 0.75470957328743171 0.75470957328743171 0 0.6560590369687036 1 I I #
point $-1 -39.101854378854966 9.7134840603698756 4.8470144017526806 #
plane-surface $-1 41.792046876430554 0 0 -1 0 0 0 0 1 forward_v I I I I #
coedge $-1 $211 $209 $213 $290 reversed $141 $-1 #
edge $-1 $224 -5.8734450380589394 $292 5.8734450380589394 $223 $328 forward 7 unknown #
vertex $-1 $290 $329 #
straight-curve $-1 -41.792046876430554 -19.876188827710994 0 0 0 -1 I I #
edge $-1 $288 -19.876188827710994 $292 19.876188827710994 $286 $330 forward 7 unknown #
straight-curve $-1 0 -19.876188827710994 -5.8734450380589394 -1 0 0 I I #
vertex $-1 $216 $331 #
straight-curve $-1 0 19.876188827710994 -5.8734450380589394 1 0 0 I I #
point $-1 41.792046876430554 19.876188827710994 -5.8734450380589394 #
point $-1 41.792046876430554 -19.876188827710994 -5.8734450380589394 #
straight-curve $-1 -41.792046876430554 0 5.8734450380589394 0 -1 0 I I #
point $-1 -41.792046876430554 19.876188827710994 5.8734450380589394 #
point $-1 -41.792046876430554 -19.876188827710994 5.8734450380589394 #
straight-curve $-1 41.792046876430554 -19.876188827710994 0 0 0 -1 I I #
straight-curve $-1 41.792046876430554 19.876188827710994 0 0 0 -1 I I #
coedge $-1 $244 $243 $236 $302 forward $233 $-1 #
edge $-1 $303 54.339695699316756 $306 57.704675045866701 $301 $332 forward 7 unknown #
vertex $-1 $248 $333 #
straight-curve $-1 16.773215599997972 4.016282843286513 5.8734450380589394 1 0 0 I I #
edge $-1 $306 0.014120995664079317 $245 7.990202699580788 $244 $334 forward 7 unknown #
vertex $-1 $305 $335 #
straight-curve $-1 -21.289668853407953 4.016282843286513 57.344565744912899 -0.75470957328743171 0 0.6560590369687036 I I #
point $-1 37.921081027854221 4.016282843286513 5.8734450380589394 #
point $-1 41.792046876430554 11.992364547203222 2.5084656915089951 #
straight-curve $-1 41.792046876430554 0 5.8734450380589394 0 1 0 I I #
vertex $-1 $251 $336 #
point $-1 38.090470739931213 6.2951633301198555 0.63504450445536964 #
vertex $-1 $255 $337 #
point $-1 38.090470739931213 9.7134840603698756 0.63504450445536964 #
edge $-1 $316 26.921645672614808 $319 30.286625019164752 $260 $338 forward 7 unknown #
vertex $-1 $274 $339 #
straight-curve $-1 -48.314073464917222 11.992364547203222 5.8734450380589394 -1 0 0 I I #
edge $-1 $319 -7.990202699580788 $271 -0.014120995664079317 $270 $340 forward 7 unknown #
vertex $-1 $318 $341 #
straight-curve $-1 -41.792046876430547 11.992364547203222 2.5084656915090022 0.75470957328743171 0 0.6560590369687036 I I #
point $-1 -37.921081027854221 11.992364547203222 5.8734450380589394 #
point $-1 -41.792046876430554 4.016282843286513 2.508465691508996 #
straight-curve $-1 -41.792046876430554 0 5.8734450380589394 0 -1 0 I I #
vertex $-1 $277 $342 #
point $-1 -36.581051593356335 6.2951633301198555 1.9471625783927697 #
vertex $-1 $281 $343 #
point $-1 -36.581051593356335 9.7134840603698756 1.9471625783927697 #
straight-curve $-1 -41.792046876430554 19.876188827710994 0 0 0 -1 I I #
point $-1 -41.792046876430554 -19.876188827710994 -5.8734450380589394 #
straight-curve $-1 -41.792046876430554 0 -5.8734450380589394 0 1 0 I I #
point $-1 -41.792046876430554 19.876188827710994 -5.8734450380589394 #
straight-curve $-1 41.792046876430554 4.016282843286513 60.213140737375696 0 0 -1 I I #
point $-1 41.792046876430554 4.016282843286513 5.8734450380589394 #
straight-curve $-1 41.792046876430554 4.0021618476224337 2.5084656915089951 0 1 0 I I #
point $-1 41.792046876430554 4.016282843286513 2.5084656915089951 #
point $-1 36.679702129675078 6.2951633301198555 0.53639396813664142 #
point $-1 36.679702129675078 9.7134840603698756 0.53639396813664142 #
straight-curve $-1 -41.792046876430554 11.992364547203222 32.795090710673747 0 0 -1 I I #
point $-1 -41.792046876430554 11.992364547203222 5.8734450380589394 #
straight-curve $-1 -41.792046876430554 4.0021618476224337 2.5084656915089907 0 -1 0 I I #
point $-1 -41.792046876430554 11.992364547203222 2.508465691508996 #
point $-1 -36.679702129675064 6.2951633301198555 0.53639396813663431 #
point $-1 -36.679702129675064 9.7134840603698756 0.53639396813663431 #
End-of-ACIS-data 