500 0 13 0           
7 Unknown 11 ACIS 5.0 NT 24 Fri Mar 26 18:32:31 1999 
-1 9.9999999999999995e-007 1e-010 
body $-1 $13 $-1 $14 #
body $-1 $15 $-1 $16 #
body $-1 $17 $-1 $18 #
body $-1 $19 $-1 $20 #
body $-1 $21 $-1 $22 #
body $-1 $23 $-1 $24 #
body $-1 $25 $-1 $26 #
body $-1 $27 $-1 $28 #
body $-1 $29 $-1 $30 #
body $-1 $31 $-1 $32 #
body $-1 $33 $-1 $34 #
body $-1 $35 $-1 $36 #
body $-1 $37 $-1 $38 #
lump $-1 $-1 $39 $0 #
transform $-1 1 0 0 0 1 0 0 0 1 65.723441267128521 33.471077042663467 16.641153087244327 1 rotate no_reflect no_shear #
lump $-1 $-1 $40 $1 #
transform $-1 1 0 0 0 1 0 0 0 1 65.723441267128521 33.471077042663467 16.641153087244327 1 rotate no_reflect no_shear #
lump $-1 $-1 $41 $2 #
transform $-1 1 0 0 0 1 0 0 0 1 65.723441267128521 33.471077042663467 16.641153087244327 1 rotate no_reflect no_shear #
lump $-1 $-1 $42 $3 #
transform $-1 1 0 0 0 1 0 0 0 1 65.723441267128521 33.471077042663467 16.641153087244327 1 rotate no_reflect no_shear #
lump $-1 $-1 $43 $4 #
transform $-1 1 0 0 0 1 0 0 0 1 65.723441267128521 33.471077042663467 16.641153087244327 1 rotate no_reflect no_shear #
lump $-1 $-1 $44 $5 #
transform $-1 1 0 0 0 1 0 0 0 1 65.723441267128521 33.471077042663467 16.641153087244327 1 rotate no_reflect no_shear #
lump $-1 $-1 $45 $6 #
transform $-1 1 0 0 0 1 0 0 0 1 65.723441267128521 33.471077042663467 16.641153087244327 1 rotate no_reflect no_shear #
lump $-1 $-1 $46 $7 #
transform $-1 1 0 0 0 1 0 0 0 1 65.723441267128521 33.471077042663467 16.641153087244327 1 rotate no_reflect no_shear #
lump $-1 $-1 $47 $8 #
transform $-1 1 0 0 0 1 0 0 0 1 65.723441267128521 33.471077042663467 16.641153087244327 1 rotate no_reflect no_shear #
lump $-1 $-1 $48 $9 #
transform $-1 1 0 0 0 1 0 0 0 1 65.723441267128521 33.471077042663467 16.641153087244327 1 rotate no_reflect no_shear #
lump $-1 $-1 $49 $10 #
transform $-1 1 0 0 0 1 0 0 0 1 65.723441267128521 33.471077042663467 16.641153087244327 1 rotate no_reflect no_shear #
lump $-1 $-1 $50 $11 #
transform $-1 1 0 0 0 1 0 0 0 1 65.723441267128521 33.471077042663467 16.641153087244327 1 rotate no_reflect no_shear #
lump $-1 $-1 $51 $12 #
transform $-1 1 0 0 0 1 0 0 0 1 65.723441267128521 33.471077042663467 16.641153087244327 1 rotate no_reflect no_shear #
shell $-1 $-1 $-1 $52 $-1 $13 #
shell $-1 $-1 $-1 $53 $-1 $15 #
shell $-1 $-1 $-1 $54 $-1 $17 #
shell $-1 $-1 $-1 $55 $-1 $19 #
shell $-1 $-1 $-1 $56 $-1 $21 #
shell $-1 $-1 $-1 $57 $-1 $23 #
shell $-1 $-1 $-1 $58 $-1 $25 #
shell $-1 $-1 $-1 $59 $-1 $27 #
shell $-1 $-1 $-1 $60 $-1 $29 #
shell $-1 $-1 $-1 $61 $-1 $31 #
shell $-1 $-1 $-1 $62 $-1 $33 #
shell $-1 $-1 $-1 $63 $-1 $35 #
shell $-1 $-1 $-1 $64 $-1 $37 #
face $-1 $65 $66 $39 $-1 $67 forward single #
face $-1 $68 $69 $40 $-1 $70 forward single #
face $-1 $71 $72 $41 $-1 $73 reversed single #
face $-1 $74 $75 $42 $-1 $76 forward single #
face $-1 $77 $78 $43 $-1 $79 forward single #
face $-1 $80 $81 $44 $-1 $82 forward single #
face $-1 $83 $84 $45 $-1 $85 reversed single #
face $-1 $86 $87 $46 $-1 $88 forward single #
face $-1 $89 $90 $47 $-1 $91 forward single #
face $-1 $92 $93 $48 $-1 $94 forward single #
face $-1 $95 $96 $49 $-1 $97 reversed single #
face $-1 $98 $99 $50 $-1 $100 forward single #
face $-1 $101 $102 $51 $-1 $103 forward single #
face $-1 $104 $105 $39 $-1 $106 reversed single #
loop $-1 $-1 $107 $52 #
plane-surface $-1 0 0 16.641153087244327 0 0 1 1 0 0 forward_v I I I I #
face $-1 $108 $109 $40 $-1 $110 reversed single #
loop $-1 $-1 $111 $53 #
plane-surface $-1 0 -23.514937258756611 -8.3712105034841642 0 0 1 1 0 0 forward_v I I I I #
face $-1 $112 $113 $41 $-1 $114 reversed single #
loop $-1 $-1 $115 $54 #
plane-surface $-1 88.378219077979281 9.9561397839068633 191.28957375910699 0 -1 0 -0.78801076186113728 0 -0.61566146476048833 forward_v I I I I #
face $-1 $116 $117 $42 $-1 $118 forward single #
loop $-1 $119 $120 $55 #
cone-surface $-1 61.41430102568868 2.4205558855620382 11.353807373354881 -0.78801076186113728 0 -0.61566146476048833 0.30783073238024417 0 -0.39400538093056864 1 I I 0 1 0.5 forward I I I I #
face $-1 $121 $122 $43 $-1 $123 forward single #
loop $-1 $124 $125 $56 #
cone-surface $-1 61.41430102568868 5.2463998474413458 11.353807373354881 -0.78801076186113728 0 -0.61566146476048833 0.30783073238024417 0 -0.39400538093056864 1 I I 0 1 0.5 forward I I I I #
face $-1 $126 $127 $44 $-1 $128 forward single #
loop $-1 $129 $130 $57 #
cone-surface $-1 61.41430102568868 8.0722438093206534 11.353807373354881 -0.78801076186113728 0 -0.61566146476048833 0.30783073238024417 0 -0.39400538093056864 1 I I 0 1 0.5 forward I I I I #
face $-1 $131 $132 $45 $-1 $133 reversed single #
loop $-1 $-1 $134 $58 #
plane-surface $-1 88.378219077979281 19.375619656837891 191.28957375910699 0 -1 0 -0.78801076186113728 0 -0.61566146476048833 forward_v I I I I #
face $-1 $135 $136 $46 $-1 $137 forward single #
loop $-1 $138 $139 $59 #
cone-surface $-1 61.41430102568868 11.840035758493073 11.353807373354881 -0.78801076186113728 0 -0.61566146476048833 0.30783073238024417 0 -0.39400538093056864 1 I I 0 1 0.5 forward I I I I #
face $-1 $140 $141 $47 $-1 $142 forward single #
loop $-1 $143 $144 $60 #
cone-surface $-1 61.41430102568868 14.665879720372374 11.353807373354881 -0.78801076186113728 0 -0.61566146476048833 0.30783073238024417 0 -0.39400538093056864 1 I I 0 1 0.5 forward I I I I #
face $-1 $145 $146 $48 $-1 $147 forward single #
loop $-1 $148 $149 $61 #
cone-surface $-1 61.41430102568868 17.491723682251688 11.353807373354881 -0.78801076186113728 0 -0.61566146476048833 0.30783073238024417 0 -0.39400538093056864 1 I I 0 1 0.5 forward I I I I #
face $-1 $150 $151 $49 $-1 $152 reversed single #
loop $-1 $-1 $153 $62 #
plane-surface $-1 -166.41759628706222 13.67307762097531 97.334684814992528 0 1 0 -0.7660444514056185 0 0.64278759981090561 forward_v I I I I #
face $-1 $154 $155 $50 $-1 $156 forward single #
loop $-1 $157 $158 $63 #
cone-surface $-1 -63.746593638582219 17.293262391243921 14.420312087802426 0.7660444514056185 0 -0.64278759981090561 0.3213937999054528 0 0.38302222570280925 1 I I 0 1 0.5 forward I I I I #
face $-1 $159 $160 $51 $-1 $161 forward single #
loop $-1 $162 $163 $64 #
cone-surface $-1 -63.746593638582219 22.72353954664684 14.420312087802426 0.7660444514056185 0 -0.64278759981090561 0.3213937999054528 0 0.38302222570280925 1 I I 0 1 0.5 forward I I I I #
face $-1 $164 $165 $39 $-1 $166 reversed single #
loop $-1 $-1 $167 $65 #
plane-surface $-1 0 0 -16.641153087244327 0 0 1 1 0 0 forward_v I I I I #
coedge $-1 $168 $169 $170 $171 forward $66 $-1 #
face $-1 $172 $173 $40 $-1 $174 reversed single #
loop $-1 $-1 $175 $68 #
plane-surface $-1 0 -13.558797474849753 -12.506181795364245 0 -1 0 0 0 -1 forward_v I I I I #
coedge $-1 $176 $177 $178 $179 reversed $69 $-1 #
face $-1 $180 $181 $41 $-1 $182 reversed single #
loop $-1 $-1 $183 $71 #
plane-surface $-1 -15.203338972112036 5.2463998474413458 110.36279351986644 0.78801076186113728 0 0.61566146476048833 0.61566146476048833 0 -0.78801076186113728 forward_v I I I I #
coedge $-1 $184 $185 $186 $187 reversed $72 $-1 #
face $-1 $-1 $188 $42 $-1 $189 forward single #
loop $-1 $190 $191 $74 #
cone-surface $-1 60.75986394387354 2.4205558855620382 10.842505102009902 -0.78801076186113728 0 -0.61566146476048833 0.15391536619012208 0 -0.19700269046528432 1 I I -0.70710678118654746 0.70710678118654746 0.25 forward I I I I #
loop $-1 $-1 $192 $55 #
coedge $-1 $120 $120 $193 $194 reversed $75 $-1 #
face $-1 $-1 $195 $43 $-1 $196 forward single #
loop $-1 $197 $198 $77 #
cone-surface $-1 60.75986394387354 5.2463998474413458 10.842505102009902 -0.78801076186113728 0 -0.61566146476048833 0.15391536619012208 0 -0.19700269046528432 1 I I -0.70710678118654746 0.70710678118654746 0.25 forward I I I I #
loop $-1 $-1 $199 $56 #
coedge $-1 $125 $125 $200 $201 reversed $78 $-1 #
face $-1 $-1 $202 $44 $-1 $203 forward single #
loop $-1 $204 $205 $80 #
cone-surface $-1 60.75986394387354 8.0722438093206534 10.842505102009902 -0.78801076186113728 0 -0.61566146476048833 0.15391536619012208 0 -0.19700269046528432 1 I I -0.70710678118654746 0.70710678118654746 0.25 forward I I I I #
loop $-1 $-1 $206 $57 #
coedge $-1 $130 $130 $207 $208 reversed $81 $-1 #
face $-1 $209 $210 $45 $-1 $211 forward single #
loop $-1 $-1 $212 $83 #
plane-surface $-1 -15.203338972112036 5.2463998474413458 110.36279351986644 0.78801076186113728 0 0.61566146476048833 0.61566146476048833 0 -0.78801076186113728 forward_v I I I I #
coedge $-1 $213 $214 $215 $216 reversed $84 $-1 #
face $-1 $-1 $217 $46 $-1 $218 forward single #
loop $-1 $219 $220 $86 #
cone-surface $-1 60.75986394387354 11.840035758493073 10.842505102009902 -0.78801076186113728 0 -0.61566146476048833 0.15391536619012208 0 -0.19700269046528432 1 I I -0.70710678118654746 0.70710678118654746 0.25 forward I I I I #
loop $-1 $-1 $221 $59 #
coedge $-1 $139 $139 $222 $223 reversed $87 $-1 #
face $-1 $-1 $224 $47 $-1 $225 forward single #
loop $-1 $226 $227 $89 #
cone-surface $-1 60.75986394387354 14.665879720372374 10.842505102009902 -0.78801076186113728 0 -0.61566146476048833 0.15391536619012208 0 -0.19700269046528432 1 I I -0.70710678118654746 0.70710678118654746 0.25 forward I I I I #
loop $-1 $-1 $228 $60 #
coedge $-1 $144 $144 $229 $230 reversed $90 $-1 #
face $-1 $-1 $231 $48 $-1 $232 forward single #
loop $-1 $233 $234 $92 #
cone-surface $-1 60.75986394387354 17.491723682251688 10.842505102009902 -0.78801076186113728 0 -0.61566146476048833 0.15391536619012208 0 -0.19700269046528432 1 I I -0.70710678118654746 0.70710678118654746 0.25 forward I I I I #
loop $-1 $-1 $235 $61 #
coedge $-1 $149 $149 $236 $237 reversed $93 $-1 #
face $-1 $238 $239 $49 $-1 $240 reversed single #
loop $-1 $-1 $241 $95 #
plane-surface $-1 -65.723441267128507 20.008400968945381 12.842258688171398 -0.7660444514056185 0 0.64278759981090561 0.64278759981090561 0 0.7660444514056185 forward_v I I I I #
coedge $-1 $242 $243 $244 $245 reversed $96 $-1 #
face $-1 $-1 $246 $50 $-1 $247 forward single #
loop $-1 $248 $249 $98 #
cone-surface $-1 -63.172060300028008 17.293262391243921 13.938221387944246 0.7660444514056185 0 -0.64278759981090561 0.1606968999527264 0 0.19151111285140462 1 I I -0.70710678118654746 0.70710678118654746 0.25 forward I I I I #
loop $-1 $-1 $250 $63 #
coedge $-1 $158 $158 $251 $252 reversed $99 $-1 #
face $-1 $-1 $253 $51 $-1 $254 forward single #
loop $-1 $255 $256 $101 #
cone-surface $-1 -63.172060300028008 22.72353954664684 13.938221387944246 0.7660444514056185 0 -0.64278759981090561 0.1606968999527264 0 0.19151111285140462 1 I I -0.70710678118654746 0.70710678118654746 0.25 forward I I I I #
loop $-1 $-1 $257 $64 #
coedge $-1 $163 $163 $258 $259 reversed $102 $-1 #
face $-1 $260 $261 $39 $-1 $262 reversed single #
loop $-1 $-1 $263 $104 #
plane-surface $-1 0 -33.471077042663467 0 0 1 0 0 0 1 forward_v I I I I #
coedge $-1 $264 $265 $266 $267 forward $105 $-1 #
coedge $-1 $268 $107 $269 $270 forward $66 $-1 #
coedge $-1 $107 $268 $271 $272 forward $66 $-1 #
coedge $-1 $273 $274 $107 $171 reversed $275 $-1 #
edge $-1 $276 -33.471077042663467 $277 33.471077042663467 $170 $278 forward 7 unknown #
face $-1 $279 $280 $40 $-1 $281 reversed single #
loop $-1 $-1 $282 $108 #
plane-surface $-1 0 0 -16.641153087244327 0 0 1 1 0 0 forward_v I I I I #
coedge $-1 $283 $284 $285 $286 reversed $109 $-1 #
coedge $-1 $287 $111 $284 $288 forward $69 $-1 #
coedge $-1 $111 $287 $289 $290 reversed $69 $-1 #
coedge $-1 $291 $285 $111 $179 forward $280 $-1 #
edge $-1 $292 1.8013288454714473 $293 21.713608413285161 $178 $294 forward 7 unknown #
face $-1 $295 $296 $41 $-1 $297 reversed single #
loop $-1 $-1 $298 $112 #
plane-surface $-1 88.378219077979281 0.53665991097582832 191.28957375910699 0 1 0 0.78801076186113728 0 0.61566146476048833 forward_v I I I I #
coedge $-1 $299 $300 $301 $302 reversed $113 $-1 #
coedge $-1 $185 $115 $303 $304 reversed $72 $-1 #
coedge $-1 $115 $184 $299 $305 reversed $72 $-1 #
coedge $-1 $301 $306 $115 $187 forward $307 $-1 #
edge $-1 $308 -21.534331728138881 $309 -13.830920027958868 $186 $310 forward 7 unknown #
loop $-1 $-1 $193 $116 #
plane-surface $-1 -15.203338972112036 5.2463998474413458 110.36279351986644 0.78801076186113728 0 0.61566146476048833 0.61566146476048833 0 -0.78801076186113728 forward_v I I I I #
loop $-1 $-1 $311 $74 #
coedge $-1 $191 $191 $192 $312 reversed $117 $-1 #
coedge $-1 $192 $192 $191 $312 forward $119 $-1 #
coedge $-1 $193 $193 $120 $194 forward $188 $-1 #
edge $-1 $313 0 $313 6.2831853071796004 $193 $314 forward 7 unknown #
loop $-1 $-1 $200 $121 #
plane-surface $-1 -15.203338972112036 5.2463998474413458 110.36279351986644 0.78801076186113728 0 0.61566146476048833 0.61566146476048833 0 -0.78801076186113728 forward_v I I I I #
loop $-1 $-1 $315 $77 #
coedge $-1 $198 $198 $199 $316 reversed $122 $-1 #
coedge $-1 $199 $199 $198 $316 forward $124 $-1 #
coedge $-1 $200 $200 $125 $201 forward $195 $-1 #
edge $-1 $317 0 $317 6.2831853071796004 $200 $318 forward 7 unknown #
loop $-1 $-1 $207 $126 #
plane-surface $-1 -15.203338972112036 5.2463998474413458 110.36279351986644 0.78801076186113728 0 0.61566146476048833 0.61566146476048833 0 -0.78801076186113728 forward_v I I I I #
loop $-1 $-1 $319 $80 #
coedge $-1 $205 $205 $206 $320 reversed $127 $-1 #
coedge $-1 $206 $206 $205 $320 forward $129 $-1 #
coedge $-1 $207 $207 $130 $208 forward $202 $-1 #
edge $-1 $321 0 $321 6.2831853071796004 $207 $322 forward 7 unknown #
face $-1 $323 $324 $45 $-1 $325 forward single #
loop $-1 $-1 $326 $131 #
plane-surface $-1 0 0 16.641153087244327 0 0 1 1 0 0 forward_v I I I I #
coedge $-1 $327 $328 $329 $330 reversed $132 $-1 #
coedge $-1 $214 $134 $331 $332 reversed $84 $-1 #
coedge $-1 $134 $213 $326 $333 reversed $84 $-1 #
coedge $-1 $334 $335 $134 $216 forward $336 $-1 #
edge $-1 $337 -88.863551409778381 $338 -79.003633792309159 $215 $339 forward 7 unknown #
loop $-1 $-1 $222 $135 #
plane-surface $-1 -15.203338972112036 5.2463998474413458 110.36279351986644 0.78801076186113728 0 0.61566146476048833 0.61566146476048833 0 -0.78801076186113728 forward_v I I I I #
loop $-1 $-1 $340 $86 #
coedge $-1 $220 $220 $221 $341 reversed $136 $-1 #
coedge $-1 $221 $221 $220 $341 forward $138 $-1 #
coedge $-1 $222 $222 $139 $223 forward $217 $-1 #
edge $-1 $342 0 $342 6.2831853071796004 $222 $343 forward 7 unknown #
loop $-1 $-1 $229 $140 #
plane-surface $-1 -15.203338972112036 5.2463998474413458 110.36279351986644 0.78801076186113728 0 0.61566146476048833 0.61566146476048833 0 -0.78801076186113728 forward_v I I I I #
loop $-1 $-1 $344 $89 #
coedge $-1 $227 $227 $228 $345 reversed $141 $-1 #
coedge $-1 $228 $228 $227 $345 forward $143 $-1 #
coedge $-1 $229 $229 $144 $230 forward $224 $-1 #
edge $-1 $346 0 $346 6.2831853071796004 $229 $347 forward 7 unknown #
loop $-1 $-1 $236 $145 #
plane-surface $-1 -15.203338972112036 5.2463998474413458 110.36279351986644 0.78801076186113728 0 0.61566146476048833 0.61566146476048833 0 -0.78801076186113728 forward_v I I I I #
loop $-1 $-1 $348 $92 #
coedge $-1 $234 $234 $235 $349 reversed $146 $-1 #
coedge $-1 $235 $235 $234 $349 forward $148 $-1 #
coedge $-1 $236 $236 $149 $237 forward $231 $-1 #
edge $-1 $350 0 $350 6.2831853071796004 $236 $351 forward 7 unknown #
face $-1 $352 $353 $49 $-1 $354 reversed single #
loop $-1 $-1 $355 $150 #
plane-surface $-1 -166.41759628706222 26.343724316915452 97.334684814992528 0 -1 0 0.7660444514056185 0 -0.64278759981090561 forward_v I I I I #
coedge $-1 $356 $357 $358 $359 reversed $151 $-1 #
coedge $-1 $243 $153 $360 $361 reversed $96 $-1 #
coedge $-1 $153 $242 $356 $362 reversed $96 $-1 #
coedge $-1 $358 $363 $153 $245 forward $364 $-1 #
edge $-1 $365 17.485356876402591 $366 20.673007682089612 $244 $367 forward 7 unknown #
loop $-1 $-1 $251 $154 #
plane-surface $-1 -65.723441267128507 20.008400968945381 12.842258688171398 -0.7660444514056185 0 0.64278759981090561 0.64278759981090561 0 0.7660444514056185 forward_v I I I I #
loop $-1 $-1 $368 $98 #
coedge $-1 $249 $249 $250 $369 reversed $155 $-1 #
coedge $-1 $250 $250 $249 $369 forward $157 $-1 #
coedge $-1 $251 $251 $158 $252 forward $246 $-1 #
edge $-1 $370 0 $370 6.2831853071796004 $251 $371 forward 7 unknown #
loop $-1 $-1 $258 $159 #
plane-surface $-1 -65.723441267128507 20.008400968945381 12.842258688171398 -0.7660444514056185 0 0.64278759981090561 0.64278759981090561 0 0.7660444514056185 forward_v I I I I #
loop $-1 $-1 $372 $101 #
coedge $-1 $256 $256 $257 $373 reversed $160 $-1 #
coedge $-1 $257 $257 $256 $373 forward $162 $-1 #
coedge $-1 $258 $258 $163 $259 forward $253 $-1 #
edge $-1 $374 0 $374 6.2831853071796004 $258 $375 forward 7 unknown #
face $-1 $376 $377 $39 $-1 $378 reversed single #
loop $-1 $-1 $379 $164 #
plane-surface $-1 -65.723441267128521 0 0 1 0 0 0 0 -1 forward_v I I I I #
coedge $-1 $380 $271 $381 $382 forward $165 $-1 #
coedge $-1 $383 $167 $380 $384 forward $105 $-1 #
coedge $-1 $167 $383 $385 $386 forward $105 $-1 #
coedge $-1 $274 $273 $167 $267 reversed $275 $-1 #
edge $-1 $387 -33.471077042663467 $388 33.471077042663467 $266 $389 forward 7 unknown #
coedge $-1 $169 $168 $390 $391 forward $66 $-1 #
coedge $-1 $392 $393 $168 $270 reversed $377 $-1 #
edge $-1 $277 -65.723441267128521 $394 65.723441267128521 $269 $395 forward 7 unknown #
coedge $-1 $263 $396 $169 $272 reversed $165 $-1 #
edge $-1 $397 -65.723441267128521 $276 65.723441267128521 $271 $398 forward 7 unknown #
coedge $-1 $266 $170 $396 $399 forward $275 $-1 #
coedge $-1 $170 $266 $392 $400 reversed $275 $-1 #
loop $-1 $-1 $273 $376 #
vertex $-1 $171 $401 #
vertex $-1 $171 $402 #
straight-curve $-1 65.723441267128521 0 16.641153087244327 0 1 0 I I #
face $-1 $403 $404 $40 $-1 $405 reversed single #
loop $-1 $-1 $285 $172 #
plane-surface $-1 65.723441267128521 0 0 -1 0 0 0 0 1 forward_v I I I I #
coedge $-1 $406 $407 $283 $408 forward $173 $-1 #
coedge $-1 $409 $175 $282 $408 reversed $109 $-1 #
coedge $-1 $175 $409 $176 $288 reversed $109 $-1 #
coedge $-1 $178 $410 $175 $286 forward $280 $-1 #
edge $-1 $411 -10.388062189562204 $292 -2.1181196058020415 $285 $412 forward 7 unknown #
coedge $-1 $177 $176 $413 $414 reversed $69 $-1 #
edge $-1 $292 -65.723441267128521 $415 65.723441267128521 $284 $416 forward 7 unknown #
coedge $-1 $417 $418 $177 $290 forward $404 $-1 #
edge $-1 $293 -65.723441267128521 $419 65.723441267128521 $289 $420 forward 7 unknown #
coedge $-1 $410 $178 $418 $421 forward $280 $-1 #
vertex $-1 $179 $422 #
vertex $-1 $421 $423 #
straight-curve $-1 65.723441267128521 -11.757468629378305 -8.3712105034841642 0 -1 0 I I #
face $-1 $-1 $307 $41 $-1 $424 forward single #
loop $-1 $-1 $425 $180 #
plane-surface $-1 65.723441267128521 0 0 -1 0 0 0 0 1 forward_v I I I I #
coedge $-1 $426 $427 $428 $429 reversed $181 $-1 #
coedge $-1 $430 $183 $185 $305 forward $113 $-1 #
coedge $-1 $183 $430 $426 $431 forward $113 $-1 #
coedge $-1 $428 $186 $183 $302 forward $307 $-1 #
edge $-1 $309 -7.3329398601861904 $432 2.0865400127448446 $301 $433 forward 7 unknown #
coedge $-1 $434 $435 $184 $304 forward $296 $-1 #
edge $-1 $436 -88.863551409778381 $308 -79.003633792309159 $303 $437 forward 7 unknown #
edge $-1 $309 118.93446760964119 $436 131.44688253425707 $185 $438 forward 7 unknown #
coedge $-1 $186 $428 $434 $439 forward $307 $-1 #
loop $-1 $-1 $428 $295 #
vertex $-1 $304 $440 #
vertex $-1 $187 $441 #
straight-curve $-1 44.189109538989641 9.9561397839068633 16.641153087244334 -1 0 0 I I #
coedge $-1 $311 $311 $-1 $442 reversed $190 $-1 #
edge $-1 $443 0 $443 6.2831853071796004 $191 $444 forward 7 unknown #
vertex $-1 $194 $445 #
ellipse-curve $-1 61.871735417038508 2.4205558855620382 11.711194278509721 0.78801076186113728 0 0.61566146476048833 0.30783073238024417 0 -0.39400538093056864 1 I I #
coedge $-1 $315 $315 $-1 $446 reversed $197 $-1 #
edge $-1 $447 0 $447 6.2831853071796004 $198 $448 forward 7 unknown #
vertex $-1 $201 $449 #
ellipse-curve $-1 61.871735417038508 5.2463998474413458 11.711194278509721 0.78801076186113728 0 0.61566146476048833 0.30783073238024417 0 -0.39400538093056864 1 I I #
coedge $-1 $319 $319 $-1 $450 reversed $204 $-1 #
edge $-1 $451 0 $451 6.2831853071796004 $205 $452 forward 7 unknown #
vertex $-1 $208 $453 #
ellipse-curve $-1 61.871735417038508 8.0722438093206534 11.711194278509721 0.78801076186113728 0 0.61566146476048833 0.30783073238024417 0 -0.39400538093056864 1 I I #
face $-1 $-1 $336 $45 $-1 $454 reversed single #
loop $-1 $-1 $455 $209 #
plane-surface $-1 88.378219077979281 9.9561397839068633 191.28957375910699 0 -1 0 -0.78801076186113728 0 -0.61566146476048833 forward_v I I I I #
coedge $-1 $456 $457 $214 $333 forward $210 $-1 #
coedge $-1 $331 $212 $456 $458 reversed $132 $-1 #
coedge $-1 $212 $331 $335 $459 reversed $132 $-1 #
coedge $-1 $460 $455 $212 $330 forward $324 $-1 #
edge $-1 $461 118.93446760964119 $462 131.44688253425707 $329 $463 forward 7 unknown #
coedge $-1 $328 $327 $213 $332 forward $132 $-1 #
edge $-1 $464 118.93446760964119 $337 131.44688253425707 $213 $465 forward 7 unknown #
edge $-1 $338 -21.534331728138881 $464 -13.830920027958868 $326 $466 forward 7 unknown #
coedge $-1 $467 $215 $457 $468 reversed $336 $-1 #
coedge $-1 $215 $467 $328 $459 forward $336 $-1 #
loop $-1 $-1 $215 $323 #
vertex $-1 $216 $469 #
vertex $-1 $216 $470 #
straight-curve $-1 65.723441267128521 19.375619656837891 95.644786879553493 0 0 1 I I #
coedge $-1 $340 $340 $-1 $471 reversed $219 $-1 #
edge $-1 $472 0 $472 6.2831853071796004 $220 $473 forward 7 unknown #
vertex $-1 $223 $474 #
ellipse-curve $-1 61.871735417038508 11.840035758493073 11.711194278509721 0.78801076186113728 0 0.61566146476048833 0.30783073238024417 0 -0.39400538093056864 1 I I #
coedge $-1 $344 $344 $-1 $475 reversed $226 $-1 #
edge $-1 $476 0 $476 6.2831853071796004 $227 $477 forward 7 unknown #
vertex $-1 $230 $478 #
ellipse-curve $-1 61.871735417038508 14.665879720372374 11.711194278509721 0.78801076186113728 0 0.61566146476048833 0.30783073238024417 0 -0.39400538093056864 1 I I #
coedge $-1 $348 $348 $-1 $479 reversed $233 $-1 #
edge $-1 $480 0 $480 6.2831853071796004 $234 $481 forward 7 unknown #
vertex $-1 $237 $482 #
ellipse-curve $-1 61.871735417038508 17.491723682251688 11.711194278509721 0.78801076186113728 0 0.61566146476048833 0.30783073238024417 0 -0.39400538093056864 1 I I #
face $-1 $-1 $364 $49 $-1 $483 forward single #
loop $-1 $-1 $484 $238 #
plane-surface $-1 -65.723441267128521 0 0 1 0 0 0 0 -1 forward_v I I I I #
coedge $-1 $485 $486 $487 $488 reversed $239 $-1 #
coedge $-1 $489 $241 $243 $362 forward $151 $-1 #
coedge $-1 $241 $489 $485 $490 forward $151 $-1 #
coedge $-1 $487 $244 $241 $359 forward $364 $-1 #
edge $-1 $366 3.6688771365026192 $491 16.339523832442762 $358 $492 forward 7 unknown #
coedge $-1 $493 $494 $242 $361 forward $353 $-1 #
edge $-1 $495 -35.82508371932488 $365 -32.026189320251937 $360 $496 forward 7 unknown #
edge $-1 $366 -4.9591043863085504 $495 2.2742244199036027e-014 $243 $497 forward 7 unknown #
coedge $-1 $244 $487 $493 $498 forward $364 $-1 #
loop $-1 $-1 $487 $352 #
vertex $-1 $361 $499 #
vertex $-1 $245 $500 #
straight-curve $-1 -83.208798143531112 13.67307762097531 16.641153087244327 1 0 0 I I #
coedge $-1 $368 $368 $-1 $501 reversed $248 $-1 #
edge $-1 $502 0 $502 6.2831853071796004 $249 $503 forward 7 unknown #
vertex $-1 $252 $504 #
ellipse-curve $-1 -64.129615864285 17.293262391243921 14.741705887707861 -0.7660444514056185 0 0.64278759981090561 0.3213937999054528 0 0.38302222570280925 1 I I #
coedge $-1 $372 $372 $-1 $505 reversed $255 $-1 #
edge $-1 $506 0 $506 6.2831853071796004 $256 $507 forward 7 unknown #
vertex $-1 $259 $508 #
ellipse-curve $-1 -64.129615864285 22.72353954664684 14.741705887707861 -0.7660444514056185 0 0.64278759981090561 0.3213937999054528 0 0.38302222570280925 1 I I #
face $-1 $-1 $275 $39 $-1 $509 reversed single #
loop $-1 $-1 $392 $260 #
plane-surface $-1 0 33.471077042663467 0 0 -1 0 0 0 -1 forward_v I I I I #
coedge $-1 $510 $390 $393 $511 forward $261 $-1 #
coedge $-1 $396 $263 $264 $384 reversed $165 $-1 #
coedge $-1 $390 $510 $263 $382 reversed $261 $-1 #
edge $-1 $397 -16.641153087244327 $512 16.641153087244327 $381 $513 forward 7 unknown #
coedge $-1 $265 $264 $510 $514 forward $105 $-1 #
edge $-1 $388 -65.723441267128521 $512 65.723441267128521 $380 $515 forward 7 unknown #
coedge $-1 $393 $392 $265 $386 reversed $377 $-1 #
edge $-1 $516 -65.723441267128521 $387 65.723441267128521 $385 $517 forward 7 unknown #
vertex $-1 $267 $518 #
vertex $-1 $399 $519 #
straight-curve $-1 65.723441267128521 0 -16.641153087244327 0 -1 0 I I #
coedge $-1 $379 $381 $268 $391 reversed $261 $-1 #
edge $-1 $394 -33.471077042663467 $397 33.471077042663467 $390 $520 forward 7 unknown #
coedge $-1 $385 $269 $274 $400 forward $377 $-1 #
coedge $-1 $269 $385 $379 $511 reversed $377 $-1 #
vertex $-1 $270 $521 #
straight-curve $-1 0 33.471077042663467 16.641153087244327 -1 0 0 I I #
coedge $-1 $271 $380 $273 $399 reversed $165 $-1 #
vertex $-1 $391 $522 #
straight-curve $-1 0 -33.471077042663467 16.641153087244327 1 0 0 I I #
edge $-1 $276 -16.641153087244327 $388 16.641153087244327 $273 $523 forward 7 unknown #
edge $-1 $277 -16.641153087244327 $387 16.641153087244327 $274 $524 forward 7 unknown #
point $-1 65.723441267128521 -33.471077042663467 16.641153087244327 #
point $-1 65.723441267128521 33.471077042663467 16.641153087244327 #
face $-1 $-1 $525 $40 $-1 $526 reversed single #
loop $-1 $-1 $289 $279 #
plane-surface $-1 0 -33.471077042663467 0 0 1 0 0 0 1 forward_v I I I I #
coedge $-1 $527 $282 $410 $528 forward $173 $-1 #
coedge $-1 $282 $527 $529 $530 forward $173 $-1 #
edge $-1 $531 -65.723441267128521 $411 65.723441267128521 $282 $532 forward 7 unknown #
coedge $-1 $284 $283 $533 $534 reversed $109 $-1 #
coedge $-1 $285 $291 $406 $528 reversed $280 $-1 #
vertex $-1 $528 $535 #
straight-curve $-1 65.723441267128521 -13.558797474849753 -6.2530908976821227 0 0 1 I I #
coedge $-1 $533 $536 $287 $414 forward $525 $-1 #
edge $-1 $419 -21.713608413285161 $415 -1.8013288454714473 $413 $537 forward 7 unknown #
vertex $-1 $414 $538 #
straight-curve $-1 0 -13.558797474849753 -8.3712105034841642 -1 0 0 I I #
coedge $-1 $539 $289 $536 $540 forward $404 $-1 #
coedge $-1 $289 $539 $291 $421 reversed $404 $-1 #
vertex $-1 $540 $541 #
straight-curve $-1 0 -33.471077042663467 -8.3712105034841642 -1 0 0 I I #
edge $-1 $293 8.3712105034841642 $542 16.641153087244327 $291 $543 forward 7 unknown #
point $-1 65.723441267128521 -13.558797474849753 -8.3712105034841642 #
point $-1 65.723441267128521 -33.471077042663467 -8.3712105034841642 #
plane-surface $-1 0 0 16.641153087244327 0 0 1 1 0 0 forward_v I I I I #
coedge $-1 $435 $434 $427 $544 forward $296 $-1 #
coedge $-1 $427 $298 $300 $431 reversed $181 $-1 #
coedge $-1 $298 $426 $425 $544 reversed $181 $-1 #
coedge $-1 $306 $301 $298 $429 forward $307 $-1 #
edge $-1 $432 13.830920027958868 $545 21.534331728138881 $428 $546 forward 7 unknown #
coedge $-1 $300 $299 $435 $547 reversed $113 $-1 #
edge $-1 $548 -131.44688253425707 $432 -118.93446760964119 $426 $549 forward 7 unknown #
vertex $-1 $302 $550 #
straight-curve $-1 58.020029566948516 2.6231999237206729 16.641153087244327 0 -1 0 I I #
coedge $-1 $425 $303 $306 $439 reversed $296 $-1 #
coedge $-1 $303 $425 $430 $547 forward $296 $-1 #
vertex $-1 $304 $551 #
straight-curve $-1 65.723441267128521 9.9561397839068633 95.644786879553493 0 0 1 I I #
straight-curve $-1 -15.203338972112036 9.9561397839068633 110.36279351986644 0.61566146476048833 0 -0.78801076186113728 I I #
edge $-1 $545 0.53665991097582832 $308 9.9561397839068633 $434 $552 forward 7 unknown #
point $-1 65.723441267128521 9.9561397839068633 16.641153087244327 #
point $-1 58.020029566948509 9.9561397839068633 16.641153087244334 #
edge $-1 $553 1 $553 0 $311 $-1 forward 7 unknown #
vertex $-1 $312 $554 #
ellipse-curve $-1 60.956866634338823 2.4205558855620382 10.996420468200023 0.78801076186113728 0 0.61566146476048833 0.30783073238024417 0 -0.39400538093056864 1 I I #
point $-1 62.179566149418775 2.4205558855620382 11.31718889757917 #
edge $-1 $555 1 $555 0 $315 $-1 forward 7 unknown #
vertex $-1 $316 $556 #
ellipse-curve $-1 60.956866634338823 5.2463998474413458 10.996420468200023 0.78801076186113728 0 0.61566146476048833 0.30783073238024417 0 -0.39400538093056864 1 I I #
point $-1 62.179566149418775 5.2463998474413458 11.31718889757917 #
edge $-1 $557 1 $557 0 $319 $-1 forward 7 unknown #
vertex $-1 $320 $558 #
ellipse-curve $-1 60.956866634338823 8.0722438093206534 10.996420468200023 0.78801076186113728 0 0.61566146476048833 0.30783073238024417 0 -0.39400538093056864 1 I I #
point $-1 62.179566149418775 8.0722438093206534 11.31718889757917 #
plane-surface $-1 65.723441267128521 0 0 -1 0 0 0 0 1 forward_v I I I I #
coedge $-1 $329 $460 $559 $560 reversed $324 $-1 #
coedge $-1 $559 $326 $327 $458 forward $210 $-1 #
coedge $-1 $326 $559 $334 $468 forward $210 $-1 #
edge $-1 $464 -16.752419733117218 $461 -7.3329398601861904 $456 $561 forward 7 unknown #
edge $-1 $462 7.3329398601861904 $337 16.752419733117218 $335 $562 forward 7 unknown #
coedge $-1 $455 $329 $467 $563 reversed $324 $-1 #
vertex $-1 $458 $564 #
vertex $-1 $459 $565 #
straight-curve $-1 -15.203338972112036 9.9561397839068633 110.36279351986644 0.61566146476048833 0 -0.78801076186113728 I I #
vertex $-1 $333 $566 #
straight-curve $-1 -15.203338972112036 19.375619656837891 110.36279351986644 0.61566146476048833 0 -0.78801076186113728 I I #
straight-curve $-1 44.189109538989641 19.375619656837891 16.641153087244334 -1 0 0 I I #
coedge $-1 $335 $334 $460 $563 forward $336 $-1 #
edge $-1 $567 9.9561397839068633 $338 19.375619656837891 $334 $568 forward 7 unknown #
point $-1 65.723441267128521 19.375619656837891 6.7812354697751118 #
point $-1 65.723441267128521 19.375619656837891 16.641153087244327 #
edge $-1 $569 1 $569 0 $340 $-1 forward 7 unknown #
vertex $-1 $341 $570 #
ellipse-curve $-1 60.956866634338823 11.840035758493073 10.996420468200023 0.78801076186113728 0 0.61566146476048833 0.30783073238024417 0 -0.39400538093056864 1 I I #
point $-1 62.179566149418775 11.840035758493073 11.31718889757917 #
edge $-1 $571 1 $571 0 $344 $-1 forward 7 unknown #
vertex $-1 $345 $572 #
ellipse-curve $-1 60.956866634338823 14.665879720372374 10.996420468200023 0.78801076186113728 0 0.61566146476048833 0.30783073238024417 0 -0.39400538093056864 1 I I #
point $-1 62.179566149418775 14.665879720372374 11.31718889757917 #
edge $-1 $573 1 $573 0 $348 $-1 forward 7 unknown #
vertex $-1 $349 $574 #
ellipse-curve $-1 60.956866634338823 17.491723682251688 10.996420468200023 0.78801076186113728 0 0.61566146476048833 0.30783073238024417 0 -0.39400538093056864 1 I I #
point $-1 62.179566149418775 17.491723682251688 11.31718889757917 #
plane-surface $-1 0 0 16.641153087244327 0 0 1 1 0 0 forward_v I I I I #
coedge $-1 $494 $493 $486 $575 forward $353 $-1 #
coedge $-1 $486 $355 $357 $490 reversed $239 $-1 #
coedge $-1 $355 $485 $484 $575 reversed $239 $-1 #
coedge $-1 $363 $358 $355 $488 forward $364 $-1 #
edge $-1 $491 -20.673007682089612 $576 -17.485356876402591 $487 $577 forward 7 unknown #
coedge $-1 $357 $356 $494 $578 reversed $151 $-1 #
edge $-1 $579 -2.2742244199036027e-014 $491 4.9591043863085504 $485 $580 forward 7 unknown #
vertex $-1 $359 $581 #
straight-curve $-1 -62.535790461441501 10.00420048447269 16.641153087244327 0 1 0 I I #
coedge $-1 $484 $360 $363 $498 reversed $353 $-1 #
coedge $-1 $360 $484 $489 $578 forward $353 $-1 #
vertex $-1 $361 $582 #
straight-curve $-1 -65.723441267128521 13.67307762097531 48.667342407496264 0 0 1 I I #
straight-curve $-1 -65.723441267128507 13.67307762097531 12.842258688171398 -0.64278759981090561 0 -0.7660444514056185 I I #
edge $-1 $576 -26.343724316915452 $365 -13.67307762097531 $493 $583 forward 7 unknown #
point $-1 -65.723441267128521 13.67307762097531 16.641153087244327 #
point $-1 -62.535790461441501 13.67307762097531 16.641153087244327 #
edge $-1 $584 1 $584 0 $368 $-1 forward 7 unknown #
vertex $-1 $369 $585 #
ellipse-curve $-1 -63.363571412879409 17.293262391243921 14.098918287896973 -0.7660444514056185 0 0.64278759981090561 0.3213937999054528 0 0.38302222570280925 1 I I #
point $-1 -63.808222064379578 17.293262391243921 15.124728113410686 #
edge $-1 $586 1 $586 0 $372 $-1 forward 7 unknown #
vertex $-1 $373 $587 #
ellipse-curve $-1 -63.363571412879409 22.72353954664684 14.098918287896973 -0.7660444514056185 0 0.64278759981090561 0.3213937999054528 0 0.38302222570280925 1 I I #
point $-1 -63.808222064379578 22.72353954664684 15.124728113410686 #
plane-surface $-1 65.723441267128521 0 0 -1 0 0 0 0 1 forward_v I I I I #
coedge $-1 $381 $379 $383 $514 reversed $261 $-1 #
edge $-1 $394 -16.641153087244327 $516 16.641153087244327 $393 $588 forward 7 unknown #
vertex $-1 $514 $589 #
straight-curve $-1 -65.723441267128521 -33.471077042663467 0 0 0 -1 I I #
edge $-1 $512 -33.471077042663467 $516 33.471077042663467 $510 $590 forward 7 unknown #
straight-curve $-1 0 -33.471077042663467 -16.641153087244327 -1 0 0 I I #
vertex $-1 $386 $591 #
straight-curve $-1 0 33.471077042663467 -16.641153087244327 1 0 0 I I #
point $-1 65.723441267128521 33.471077042663467 -16.641153087244327 #
point $-1 65.723441267128521 -33.471077042663467 -16.641153087244327 #
straight-curve $-1 -65.723441267128521 0 16.641153087244327 0 -1 0 I I #
point $-1 -65.723441267128521 33.471077042663467 16.641153087244327 #
point $-1 -65.723441267128521 -33.471077042663467 16.641153087244327 #
straight-curve $-1 65.723441267128521 -33.471077042663467 0 0 0 -1 I I #
straight-curve $-1 65.723441267128521 33.471077042663467 0 0 0 -1 I I #
loop $-1 $-1 $533 $403 #
plane-surface $-1 -65.723441267128521 0 0 1 0 0 0 0 -1 forward_v I I I I #
coedge $-1 $407 $406 $539 $592 forward $173 $-1 #
edge $-1 $411 13.558797474849753 $542 33.471077042663467 $410 $593 forward 7 unknown #
coedge $-1 $536 $533 $407 $530 reversed $525 $-1 #
edge $-1 $594 -33.471077042663467 $531 -13.558797474849753 $529 $595 forward 7 unknown #
vertex $-1 $534 $596 #
straight-curve $-1 0 -13.558797474849753 -16.641153087244327 1 0 0 I I #
coedge $-1 $529 $413 $409 $534 forward $525 $-1 #
edge $-1 $415 2.1181196058020415 $531 10.388062189562204 $533 $597 forward 7 unknown #
point $-1 65.723441267128521 -13.558797474849753 -16.641153087244327 #
coedge $-1 $413 $529 $417 $540 reversed $525 $-1 #
straight-curve $-1 -65.723441267128521 -11.757468629378305 -8.3712105034841642 0 1 0 I I #
point $-1 -65.723441267128521 -13.558797474849753 -8.3712105034841642 #
coedge $-1 $418 $417 $527 $592 reversed $404 $-1 #
edge $-1 $419 8.3712105034841642 $594 16.641153087244327 $536 $598 forward 7 unknown #
point $-1 -65.723441267128521 -33.471077042663467 -8.3712105034841642 #
vertex $-1 $421 $599 #
straight-curve $-1 65.723441267128521 -33.471077042663467 0 0 0 -1 I I #
edge $-1 $545 79.003633792309159 $548 88.863551409778381 $425 $600 forward 7 unknown #
vertex $-1 $439 $601 #
straight-curve $-1 44.189109538989641 0.53665991097582832 16.641153087244334 1 0 0 I I #
edge $-1 $548 -2.0865400127448446 $436 7.3329398601861904 $435 $602 forward 7 unknown #
vertex $-1 $547 $603 #
straight-curve $-1 -15.203338972112036 0.53665991097582832 110.36279351986644 -0.61566146476048833 0 0.78801076186113728 I I #
point $-1 58.020029566948509 0.53665991097582832 16.641153087244334 #
point $-1 65.723441267128521 9.9561397839068633 6.7812354697751118 #
straight-curve $-1 65.723441267128521 0 16.641153087244327 0 1 0 I I #
vertex $-1 $442 $604 #
point $-1 61.264697366719069 2.4205558855620382 10.602415087269456 #
vertex $-1 $446 $605 #
point $-1 61.264697366719069 5.2463998474413458 10.602415087269456 #
vertex $-1 $450 $606 #
point $-1 61.264697366719069 8.0722438093206534 10.602415087269456 #
coedge $-1 $457 $456 $455 $560 forward $210 $-1 #
edge $-1 $461 13.830920027958868 $567 21.534331728138881 $559 $607 forward 7 unknown #
straight-curve $-1 58.020029566948516 2.6231999237206729 16.641153087244327 0 -1 0 I I #
straight-curve $-1 65.723441267128521 2.6231999237206729 6.7812354697751047 0 1 0 I I #
edge $-1 $567 79.003633792309159 $462 88.863551409778381 $467 $608 forward 7 unknown #
point $-1 58.020029566948509 9.9561397839068633 16.641153087244334 #
point $-1 65.723441267128521 9.9561397839068633 6.7812354697751118 #
point $-1 58.020029566948509 19.375619656837891 16.641153087244334 #
vertex $-1 $468 $609 #
straight-curve $-1 65.723441267128521 0 16.641153087244327 0 1 0 I I #
vertex $-1 $471 $610 #
point $-1 61.264697366719069 11.840035758493073 10.602415087269456 #
vertex $-1 $475 $611 #
point $-1 61.264697366719069 14.665879720372374 10.602415087269456 #
vertex $-1 $479 $612 #
point $-1 61.264697366719069 17.491723682251688 10.602415087269456 #
edge $-1 $576 32.026189320251937 $579 35.82508371932488 $484 $613 forward 7 unknown #
vertex $-1 $498 $614 #
straight-curve $-1 -83.208798143531112 26.343724316915452 16.641153087244327 -1 0 0 I I #
edge $-1 $579 -16.339523832442762 $495 -3.6688771365026192 $494 $615 forward 7 unknown #
vertex $-1 $578 $616 #
straight-curve $-1 -65.723441267128507 26.343724316915452 12.842258688171398 0.64278759981090561 0 0.7660444514056185 I I #
point $-1 -62.535790461441501 26.343724316915452 16.641153087244327 #
point $-1 -65.723441267128521 13.67307762097531 12.84225868817138 #
straight-curve $-1 -65.723441267128521 0 16.641153087244327 0 -1 0 I I #
vertex $-1 $501 $617 #
point $-1 -63.042177612973958 17.293262391243921 14.481940513599781 #
vertex $-1 $505 $618 #
point $-1 -63.042177612973958 22.72353954664684 14.481940513599781 #
straight-curve $-1 -65.723441267128521 33.471077042663467 0 0 0 -1 I I #
point $-1 -65.723441267128521 -33.471077042663467 -16.641153087244327 #
straight-curve $-1 -65.723441267128521 0 -16.641153087244327 0 1 0 I I #
point $-1 -65.723441267128521 33.471077042663467 -16.641153087244327 #
edge $-1 $542 -65.723441267128521 $594 65.723441267128521 $539 $619 forward 7 unknown #
straight-curve $-1 65.723441267128521 0 -16.641153087244327 0 -1 0 I I #
vertex $-1 $530 $620 #
straight-curve $-1 -65.723441267128521 0 -16.641153087244327 0 1 0 I I #
point $-1 -65.723441267128521 -13.558797474849753 -16.641153087244327 #
straight-curve $-1 -65.723441267128521 -13.558797474849753 -6.2530908976821227 0 0 -1 I I #
straight-curve $-1 -65.723441267128521 -33.471077042663467 0 0 0 -1 I I #
point $-1 65.723441267128521 -33.471077042663467 -16.641153087244327 #
straight-curve $-1 65.723441267128521 0.53665991097582832 95.644786879553493 0 0 -1 I I #
point $-1 65.723441267128521 0.53665991097582832 16.641153087244327 #
straight-curve $-1 65.723441267128521 2.6231999237206729 6.7812354697751047 0 1 0 I I #
point $-1 65.723441267128521 0.53665991097582832 6.7812354697751118 #
point $-1 60.562861253408258 2.4205558855620382 10.688589735819781 #
point $-1 60.562861253408258 5.2463998474413458 10.688589735819781 #
point $-1 60.562861253408258 8.0722438093206534 10.688589735819781 #
straight-curve $-1 44.189109538989641 9.9561397839068633 16.641153087244334 1 0 0 I I #
straight-curve $-1 65.723441267128521 9.9561397839068633 95.644786879553493 0 0 -1 I I #
point $-1 65.723441267128521 9.9561397839068633 16.641153087244327 #
point $-1 60.562861253408258 11.840035758493073 10.688589735819781 #
point $-1 60.562861253408258 14.665879720372374 10.688589735819781 #
point $-1 60.562861253408258 17.491723682251688 10.688589735819781 #
straight-curve $-1 -65.723441267128521 26.343724316915452 48.667342407496264 0 0 -1 I I #
point $-1 -65.723441267128521 26.343724316915452 16.641153087244327 #
straight-curve $-1 -65.723441267128521 10.00420048447269 12.842258688171386 0 -1 0 I I #
point $-1 -65.723441267128521 26.343724316915452 12.84225868817138 #
point $-1 -62.980549187176607 17.293262391243921 13.777524487991519 #
point $-1 -62.980549187176607 22.72353954664684 13.777524487991519 #
straight-curve $-1 0 -33.471077042663467 -16.641153087244327 -1 0 0 I I #
point $-1 -65.723441267128521 -33.471077042663467 -16.641153087244327 #
End-of-ACIS-data 