500 0 9 0           
7 Unknown 11 ACIS 5.0 NT 24 Fri Mar 26 17:30:07 1999 
-1 9.9999999999999995e-007 1e-010 
body $-1 $9 $-1 $10 #
body $-1 $11 $-1 $12 #
body $-1 $13 $-1 $14 #
body $-1 $15 $-1 $16 #
body $-1 $17 $-1 $18 #
body $-1 $19 $-1 $20 #
body $-1 $21 $-1 $22 #
body $-1 $23 $-1 $24 #
body $-1 $25 $-1 $26 #
lump $-1 $-1 $27 $0 #
transform $-1 1 0 0 0 1 0 0 0 1 46.14764854884487 27.843790120245451 8.1075590049828765 1 rotate no_reflect no_shear #
lump $-1 $-1 $28 $1 #
transform $-1 1 0 0 0 1 0 0 0 1 46.14764854884487 27.843790120245451 8.1075590049828765 1 rotate no_reflect no_shear #
lump $-1 $-1 $29 $2 #
transform $-1 1 0 0 0 1 0 0 0 1 46.14764854884487 27.843790120245451 8.1075590049828765 1 rotate no_reflect no_shear #
lump $-1 $-1 $30 $3 #
transform $-1 1 0 0 0 1 0 0 0 1 46.14764854884487 27.843790120245451 8.1075590049828765 1 rotate no_reflect no_shear #
lump $-1 $-1 $31 $4 #
transform $-1 1 0 0 0 1 0 0 0 1 46.14764854884487 27.843790120245451 8.1075590049828765 1 rotate no_reflect no_shear #
lump $-1 $-1 $32 $5 #
transform $-1 1 0 0 0 1 0 0 0 1 46.14764854884487 27.843790120245451 8.1075590049828765 1 rotate no_reflect no_shear #
lump $-1 $-1 $33 $6 #
transform $-1 1 0 0 0 1 0 0 0 1 46.14764854884487 27.843790120245451 8.1075590049828765 1 rotate no_reflect no_shear #
lump $-1 $-1 $34 $7 #
transform $-1 1 0 0 0 1 0 0 0 1 46.14764854884487 27.843790120245451 8.1075590049828765 1 rotate no_reflect no_shear #
lump $-1 $-1 $35 $8 #
transform $-1 1 0 0 0 1 0 0 0 1 46.14764854884487 27.843790120245451 8.1075590049828765 1 rotate no_reflect no_shear #
shell $-1 $-1 $-1 $36 $-1 $9 #
shell $-1 $-1 $-1 $37 $-1 $11 #
shell $-1 $-1 $-1 $38 $-1 $13 #
shell $-1 $-1 $-1 $39 $-1 $15 #
shell $-1 $-1 $-1 $40 $-1 $17 #
shell $-1 $-1 $-1 $41 $-1 $19 #
shell $-1 $-1 $-1 $42 $-1 $21 #
shell $-1 $-1 $-1 $43 $-1 $23 #
shell $-1 $-1 $-1 $44 $-1 $25 #
face $-1 $45 $46 $27 $-1 $47 forward single #
face $-1 $48 $49 $28 $-1 $50 reversed single #
face $-1 $51 $52 $29 $-1 $53 reversed single #
face $-1 $54 $55 $30 $-1 $56 reversed single #
face $-1 $57 $58 $31 $-1 $59 forward single #
face $-1 $60 $61 $32 $-1 $62 forward single #
face $-1 $63 $64 $33 $-1 $65 reversed single #
face $-1 $66 $67 $34 $-1 $68 forward single #
face $-1 $69 $70 $35 $-1 $71 forward single #
face $-1 $72 $73 $27 $-1 $74 reversed single #
loop $-1 $-1 $75 $36 #
plane-surface $-1 0 0 8.1075590049828765 0 0 1 1 0 0 forward_v I I I I #
face $-1 $76 $77 $28 $-1 $78 reversed single #
loop $-1 $-1 $79 $37 #
plane-surface $-1 0 -22.885792750552881 5.1075590049828765 0 0 1 1 0 0 forward_v I I I I #
face $-1 $80 $81 $29 $-1 $82 reversed single #
loop $-1 $-1 $83 $38 #
plane-surface $-1 0 22.885792750552881 5.1075590049828765 0 0 1 1 0 0 forward_v I I I I #
face $-1 $84 $85 $30 $-1 $86 reversed single #
loop $-1 $-1 $87 $39 #
plane-surface $-1 -46.14764854884487 -14.507174870297067 0.83564634619321509 -0.80901700255871778 0 0.5877852410284794 0.5877852410284794 0 0.80901700255871778 forward_v I I I I #
face $-1 $88 $89 $31 $-1 $90 forward single #
loop $-1 $91 $92 $40 #
cone-surface $-1 -43.101463221635946 -15.973155089109884 4.1777100550738098 0.80901700255871778 0 -0.5877852410284794 0.2938926205142397 0 0.40450850127935889 1 I I 0 1 0.5 forward I I I I #
face $-1 $93 $94 $32 $-1 $95 forward single #
loop $-1 $96 $97 $41 #
cone-surface $-1 -43.101463221635946 -13.04119465148425 4.1777100550738098 0.80901700255871778 0 -0.5877852410284794 0.2938926205142397 0 0.40450850127935889 1 I I 0 1 0.5 forward I I I I #
face $-1 $98 $99 $33 $-1 $100 reversed single #
loop $-1 $-1 $101 $42 #
plane-surface $-1 16.785854540473899 10.043287338443582 128.56220743976897 0 -1 0 -0.52991927123019833 0 -0.84804809178421925 forward_v I I I I #
face $-1 $102 $103 $34 $-1 $104 forward single #
loop $-1 $105 $106 $43 #
cone-surface $-1 40.370243879867317 4.9217239375683803 4.1110805317046557 -0.52991927123019833 0 -0.84804809178421925 0.42402404589210962 0 -0.26495963561509916 1 I I 0 1 0.5 forward I I I I #
face $-1 $107 $108 $35 $-1 $109 forward single #
loop $-1 $110 $111 $44 #
cone-surface $-1 40.370243879867317 7.9946619780935038 4.1110805317046557 -0.52991927123019833 0 -0.84804809178421925 0.42402404589210962 0 -0.26495963561509916 1 I I 0 1 0.5 forward I I I I #
face $-1 $112 $113 $27 $-1 $114 reversed single #
loop $-1 $-1 $115 $45 #
plane-surface $-1 0 0 -8.1075590049828765 0 0 1 1 0 0 forward_v I I I I #
coedge $-1 $116 $117 $118 $119 forward $46 $-1 #
face $-1 $120 $121 $28 $-1 $122 reversed single #
loop $-1 $-1 $123 $48 #
plane-surface $-1 0 -17.92779538086031 6.6075590049828765 0 -1 0 0 0 -1 forward_v I I I I #
coedge $-1 $124 $125 $126 $127 reversed $49 $-1 #
face $-1 $128 $129 $29 $-1 $130 forward single #
loop $-1 $-1 $131 $51 #
plane-surface $-1 0 17.92779538086031 6.6075590049828765 0 1 0 0 0 1 forward_v I I I I #
coedge $-1 $132 $133 $134 $135 reversed $52 $-1 #
face $-1 $136 $137 $30 $-1 $138 reversed single #
loop $-1 $-1 $139 $54 #
plane-surface $-1 -120.81611315708415 -11.086554359733828 55.085459796553891 0 -1 0 0.80901700255871778 0 -0.5877852410284794 forward_v I I I I #
coedge $-1 $140 $141 $142 $143 reversed $55 $-1 #
face $-1 $-1 $144 $31 $-1 $145 forward single #
loop $-1 $146 $147 $57 #
cone-surface $-1 -42.494700469716911 -15.973155089109884 3.7368711243024499 0.80901700255871778 0 -0.5877852410284794 0.14694631025711985 0 0.20225425063967944 1 I I -0.70710678118654746 0.70710678118654746 0.25 forward I I I I #
loop $-1 $-1 $148 $40 #
coedge $-1 $92 $92 $149 $150 reversed $58 $-1 #
face $-1 $-1 $151 $32 $-1 $152 forward single #
loop $-1 $153 $154 $60 #
cone-surface $-1 -42.494700469716911 -13.04119465148425 3.7368711243024499 0.80901700255871778 0 -0.5877852410284794 0.14694631025711985 0 0.20225425063967944 1 I I -0.70710678118654746 0.70710678118654746 0.25 forward I I I I #
loop $-1 $-1 $155 $41 #
coedge $-1 $97 $97 $156 $157 reversed $61 $-1 #
face $-1 $158 $159 $33 $-1 $160 reversed single #
loop $-1 $-1 $161 $63 #
plane-surface $-1 -32.123202035508484 6.4581929578309385 50.2913568554156 0.52991927123019833 0 0.84804809178421925 0.84804809178421925 0 -0.52991927123019833 forward_v I I I I #
coedge $-1 $162 $163 $164 $165 reversed $64 $-1 #
face $-1 $-1 $166 $34 $-1 $167 forward single #
loop $-1 $168 $169 $66 #
cone-surface $-1 39.841691171899512 4.9217239375683803 3.2652193982552173 -0.52991927123019833 0 -0.84804809178421925 0.21201202294605481 0 -0.13247981780754958 1 I I -0.70710678118654746 0.70710678118654746 0.25 forward I I I I #
loop $-1 $-1 $170 $43 #
coedge $-1 $106 $106 $171 $172 reversed $67 $-1 #
face $-1 $-1 $173 $35 $-1 $174 forward single #
loop $-1 $175 $176 $69 #
cone-surface $-1 39.841691171899512 7.9946619780935038 3.2652193982552173 -0.52991927123019833 0 -0.84804809178421925 0.21201202294605481 0 -0.13247981780754958 1 I I -0.70710678118654746 0.70710678118654746 0.25 forward I I I I #
loop $-1 $-1 $177 $44 #
coedge $-1 $111 $111 $178 $179 reversed $70 $-1 #
face $-1 $180 $181 $27 $-1 $182 reversed single #
loop $-1 $-1 $183 $72 #
plane-surface $-1 0 -27.843790120245451 0 0 1 0 0 0 1 forward_v I I I I #
coedge $-1 $184 $185 $186 $187 forward $73 $-1 #
coedge $-1 $188 $75 $189 $190 forward $46 $-1 #
coedge $-1 $75 $188 $191 $192 forward $46 $-1 #
coedge $-1 $193 $194 $75 $119 reversed $195 $-1 #
edge $-1 $196 -27.843790120245451 $197 27.843790120245451 $118 $198 forward 7 unknown #
face $-1 $199 $200 $28 $-1 $201 reversed single #
loop $-1 $-1 $202 $76 #
plane-surface $-1 -46.14764854884487 0 0 1 0 0 0 0 -1 forward_v I I I I #
coedge $-1 $203 $204 $205 $206 reversed $77 $-1 #
coedge $-1 $207 $79 $208 $209 reversed $49 $-1 #
coedge $-1 $79 $207 $203 $210 forward $49 $-1 #
coedge $-1 $205 $211 $79 $127 forward $212 $-1 #
edge $-1 $213 -16.400893744969011 $214 -6.4848990055838698 $126 $215 forward 7 unknown #
face $-1 $216 $217 $29 $-1 $218 reversed single #
loop $-1 $-1 $219 $80 #
plane-surface $-1 0 0 8.1075590049828765 0 0 1 1 0 0 forward_v I I I I #
coedge $-1 $220 $221 $222 $223 reversed $81 $-1 #
coedge $-1 $224 $83 $220 $225 forward $52 $-1 #
coedge $-1 $83 $224 $226 $227 reversed $52 $-1 #
coedge $-1 $228 $229 $83 $135 forward $217 $-1 #
edge $-1 $230 6.4848990055838698 $231 16.400893744969011 $134 $232 forward 7 unknown #
face $-1 $233 $234 $30 $-1 $235 forward single #
loop $-1 $-1 $236 $84 #
plane-surface $-1 -46.14764854884487 0 0 1 0 0 0 0 -1 forward_v I I I I #
coedge $-1 $237 $238 $239 $240 reversed $85 $-1 #
coedge $-1 $241 $87 $242 $243 reversed $55 $-1 #
coedge $-1 $87 $241 $237 $244 forward $55 $-1 #
coedge $-1 $239 $245 $87 $143 forward $234 $-1 #
edge $-1 $246 -10.674207945711773 $247 -3.8329669245852944 $142 $248 forward 7 unknown #
loop $-1 $-1 $149 $88 #
plane-surface $-1 -46.14764854884487 -14.507174870297067 0.83564634619321509 -0.80901700255871778 0 0.5877852410284794 0.5877852410284794 0 0.80901700255871778 forward_v I I I I #
loop $-1 $-1 $249 $57 #
coedge $-1 $147 $147 $148 $250 reversed $89 $-1 #
coedge $-1 $148 $148 $147 $250 forward $91 $-1 #
coedge $-1 $149 $149 $92 $150 forward $144 $-1 #
edge $-1 $251 0 $251 6.2831853071796004 $149 $252 forward 7 unknown #
loop $-1 $-1 $156 $93 #
plane-surface $-1 -46.14764854884487 -14.507174870297067 0.83564634619321509 -0.80901700255871778 0 0.5877852410284794 0.5877852410284794 0 0.80901700255871778 forward_v I I I I #
loop $-1 $-1 $253 $60 #
coedge $-1 $154 $154 $155 $254 reversed $94 $-1 #
coedge $-1 $155 $155 $154 $254 forward $96 $-1 #
coedge $-1 $156 $156 $97 $157 forward $151 $-1 #
edge $-1 $255 0 $255 6.2831853071796004 $156 $256 forward 7 unknown #
face $-1 $257 $258 $33 $-1 $259 forward single #
loop $-1 $-1 $260 $98 #
plane-surface $-1 16.785854540473899 2.8730985772182951 128.56220743976897 0 1 0 0.52991927123019833 0 0.84804809178421925 forward_v I I I I #
coedge $-1 $261 $262 $263 $264 reversed $99 $-1 #
coedge $-1 $163 $101 $265 $266 reversed $64 $-1 #
coedge $-1 $101 $162 $261 $267 reversed $64 $-1 #
coedge $-1 $263 $268 $101 $165 forward $258 $-1 #
edge $-1 $269 -37.754721278607917 $270 -26.992057720973296 $164 $271 forward 7 unknown #
loop $-1 $-1 $171 $102 #
plane-surface $-1 -32.123202035508484 6.4581929578309385 50.2913568554156 0.52991927123019833 0 0.84804809178421925 0.84804809178421925 0 -0.52991927123019833 forward_v I I I I #
loop $-1 $-1 $272 $66 #
coedge $-1 $169 $169 $170 $273 reversed $103 $-1 #
coedge $-1 $170 $170 $169 $273 forward $105 $-1 #
coedge $-1 $171 $171 $106 $172 forward $166 $-1 #
edge $-1 $274 0 $274 6.2831853071796004 $171 $275 forward 7 unknown #
loop $-1 $-1 $178 $107 #
plane-surface $-1 -32.123202035508484 6.4581929578309385 50.2913568554156 0.52991927123019833 0 0.84804809178421925 0.84804809178421925 0 -0.52991927123019833 forward_v I I I I #
loop $-1 $-1 $276 $69 #
coedge $-1 $176 $176 $177 $277 reversed $108 $-1 #
coedge $-1 $177 $177 $176 $277 forward $110 $-1 #
coedge $-1 $178 $178 $111 $179 forward $173 $-1 #
edge $-1 $278 0 $278 6.2831853071796004 $178 $279 forward 7 unknown #
face $-1 $280 $281 $27 $-1 $282 reversed single #
loop $-1 $-1 $283 $112 #
plane-surface $-1 -46.14764854884487 0 0 1 0 0 0 0 -1 forward_v I I I I #
coedge $-1 $284 $191 $285 $286 forward $113 $-1 #
coedge $-1 $287 $115 $284 $288 forward $73 $-1 #
coedge $-1 $115 $287 $289 $290 forward $73 $-1 #
coedge $-1 $194 $193 $115 $187 reversed $195 $-1 #
edge $-1 $291 -27.843790120245451 $292 27.843790120245451 $186 $293 forward 7 unknown #
coedge $-1 $117 $116 $294 $295 forward $46 $-1 #
coedge $-1 $296 $297 $116 $190 reversed $281 $-1 #
edge $-1 $197 -46.14764854884487 $298 46.14764854884487 $189 $299 forward 7 unknown #
coedge $-1 $183 $300 $117 $192 reversed $113 $-1 #
edge $-1 $301 -46.14764854884487 $196 46.14764854884487 $191 $302 forward 7 unknown #
coedge $-1 $186 $118 $300 $303 forward $195 $-1 #
coedge $-1 $118 $186 $296 $304 reversed $195 $-1 #
loop $-1 $-1 $193 $280 #
vertex $-1 $119 $305 #
vertex $-1 $119 $306 #
straight-curve $-1 46.14764854884487 0 8.1075590049828765 0 1 0 I I #
face $-1 $307 $308 $28 $-1 $309 forward single #
loop $-1 $-1 $208 $120 #
plane-surface $-1 0 -27.843790120245451 0 0 1 0 0 0 1 forward_v I I I I #
coedge $-1 $310 $311 $312 $313 forward $121 $-1 #
coedge $-1 $312 $123 $125 $210 reversed $77 $-1 #
coedge $-1 $123 $312 $314 $315 reversed $77 $-1 #
coedge $-1 $316 $126 $123 $206 forward $212 $-1 #
edge $-1 $214 1.8037795024914383 $317 4.8037795024914383 $205 $318 forward 7 unknown #
coedge $-1 $125 $124 $310 $319 reversed $49 $-1 #
coedge $-1 $320 $321 $124 $209 forward $200 $-1 #
edge $-1 $322 -46.14764854884487 $213 46.14764854884487 $208 $323 forward 7 unknown #
edge $-1 $324 -46.14764854884487 $214 46.14764854884487 $203 $325 forward 7 unknown #
coedge $-1 $126 $316 $320 $326 forward $212 $-1 #
loop $-1 $-1 $205 $307 #
vertex $-1 $209 $327 #
vertex $-1 $127 $328 #
straight-curve $-1 46.14764854884487 -11.44289637527644 5.1075590049828765 0 1 0 I I #
face $-1 $329 $330 $29 $-1 $331 reversed single #
loop $-1 $-1 $229 $128 #
plane-surface $-1 46.14764854884487 0 0 -1 0 0 0 0 1 forward_v I I I I #
coedge $-1 $332 $333 $221 $334 forward $129 $-1 #
coedge $-1 $335 $131 $132 $225 reversed $81 $-1 #
coedge $-1 $131 $335 $219 $334 reversed $81 $-1 #
coedge $-1 $336 $337 $131 $223 forward $330 $-1 #
edge $-1 $338 1.8037795024914383 $339 4.8037795024914383 $222 $340 forward 7 unknown #
coedge $-1 $133 $132 $337 $341 reversed $52 $-1 #
edge $-1 $230 -46.14764854884487 $338 46.14764854884487 $220 $342 forward 7 unknown #
coedge $-1 $343 $344 $133 $227 forward $345 $-1 #
edge $-1 $231 -46.14764854884487 $346 46.14764854884487 $226 $347 forward 7 unknown #
coedge $-1 $348 $134 $344 $349 reversed $217 $-1 #
coedge $-1 $134 $348 $335 $350 forward $217 $-1 #
vertex $-1 $135 $351 #
vertex $-1 $227 $352 #
straight-curve $-1 46.14764854884487 11.44289637527644 5.1075590049828765 0 1 0 I I #
face $-1 $-1 $353 $30 $-1 $354 forward single #
loop $-1 $-1 $239 $136 #
plane-surface $-1 0 0 8.1075590049828765 0 0 1 1 0 0 forward_v I I I I #
coedge $-1 $355 $356 $238 $357 forward $137 $-1 #
coedge $-1 $238 $139 $141 $244 reversed $85 $-1 #
coedge $-1 $139 $237 $236 $357 reversed $85 $-1 #
coedge $-1 $358 $142 $139 $240 forward $234 $-1 #
edge $-1 $247 -19.543761681556333 $359 -14.260408029697203 $239 $360 forward 7 unknown #
coedge $-1 $141 $140 $355 $361 reversed $55 $-1 #
coedge $-1 $362 $363 $140 $243 forward $353 $-1 #
edge $-1 $364 -15.897241101712535 $246 -6.90866281993301 $242 $365 forward 7 unknown #
edge $-1 $366 0 $247 8.9885782817795246 $237 $367 forward 7 unknown #
coedge $-1 $142 $358 $362 $368 forward $234 $-1 #
vertex $-1 $243 $369 #
vertex $-1 $143 $370 #
straight-curve $-1 -40.86429489698574 -7.2535874351485337 8.1075590049828783 0 1 0 I I #
coedge $-1 $249 $249 $-1 $371 reversed $146 $-1 #
edge $-1 $372 0 $372 6.2831853071796004 $147 $373 forward 7 unknown #
vertex $-1 $150 $374 #
ellipse-curve $-1 -43.505971722915305 -15.973155089109884 4.4716026755880476 -0.80901700255871778 0 0.5877852410284794 0.2938926205142397 0 0.40450850127935889 1 I I #
coedge $-1 $253 $253 $-1 $375 reversed $153 $-1 #
edge $-1 $376 0 $376 6.2831853071796004 $154 $377 forward 7 unknown #
vertex $-1 $157 $378 #
ellipse-curve $-1 -43.505971722915305 -13.04119465148425 4.4716026755880476 -0.80901700255871778 0 0.5877852410284794 0.2938926205142397 0 0.40450850127935889 1 I I #
face $-1 $-1 $379 $33 $-1 $380 reversed single #
loop $-1 $-1 $164 $158 #
plane-surface $-1 0 0 8.1075590049828765 0 0 1 1 0 0 forward_v I I I I #
coedge $-1 $381 $382 $383 $384 reversed $159 $-1 #
coedge $-1 $385 $161 $163 $267 forward $99 $-1 #
coedge $-1 $161 $385 $381 $386 forward $99 $-1 #
coedge $-1 $383 $164 $161 $264 forward $258 $-1 #
edge $-1 $270 -6.8141908595281127 $387 0.35599790169717416 $263 $388 forward 7 unknown #
coedge $-1 $389 $390 $162 $266 forward $379 $-1 #
edge $-1 $391 -62.898803440451253 $269 -56.17354471490161 $265 $392 forward 7 unknown #
edge $-1 $270 79.604196602444318 $391 92.295297097689712 $163 $393 forward 7 unknown #
coedge $-1 $164 $383 $389 $394 forward $258 $-1 #
vertex $-1 $266 $395 #
vertex $-1 $165 $396 #
straight-curve $-1 8.3929272702369495 10.043287338443582 8.1075590049828747 -1 0 0 I I #
coedge $-1 $272 $272 $-1 $397 reversed $168 $-1 #
edge $-1 $398 0 $398 6.2831853071796004 $169 $399 forward 7 unknown #
vertex $-1 $172 $400 #
ellipse-curve $-1 40.766316770027572 4.9217239375683803 4.7449296422080396 0.52991927123019833 0 0.84804809178421925 0.42402404589210962 0 -0.26495963561509916 1 I I #
coedge $-1 $276 $276 $-1 $401 reversed $175 $-1 #
edge $-1 $402 0 $402 6.2831853071796004 $176 $403 forward 7 unknown #
vertex $-1 $179 $404 #
ellipse-curve $-1 40.766316770027572 7.9946619780935038 4.7449296422080396 0.52991927123019833 0 0.84804809178421925 0.42402404589210962 0 -0.26495963561509916 1 I I #
face $-1 $-1 $195 $27 $-1 $405 reversed single #
loop $-1 $-1 $296 $180 #
plane-surface $-1 0 27.843790120245451 0 0 -1 0 0 0 -1 forward_v I I I I #
coedge $-1 $406 $294 $297 $407 forward $181 $-1 #
coedge $-1 $300 $183 $184 $288 reversed $113 $-1 #
coedge $-1 $294 $406 $183 $286 reversed $181 $-1 #
edge $-1 $301 -8.1075590049828765 $408 8.1075590049828765 $285 $409 forward 7 unknown #
coedge $-1 $185 $184 $406 $410 forward $73 $-1 #
edge $-1 $292 -46.14764854884487 $408 46.14764854884487 $284 $411 forward 7 unknown #
coedge $-1 $297 $296 $185 $290 reversed $281 $-1 #
edge $-1 $412 -46.14764854884487 $291 46.14764854884487 $289 $413 forward 7 unknown #
vertex $-1 $187 $414 #
vertex $-1 $303 $415 #
straight-curve $-1 46.14764854884487 0 -8.1075590049828765 0 -1 0 I I #
coedge $-1 $283 $285 $188 $295 reversed $181 $-1 #
edge $-1 $298 -27.843790120245451 $301 27.843790120245451 $294 $416 forward 7 unknown #
coedge $-1 $289 $189 $194 $304 forward $281 $-1 #
coedge $-1 $189 $289 $283 $407 reversed $281 $-1 #
vertex $-1 $190 $417 #
straight-curve $-1 0 27.843790120245451 8.1075590049828765 -1 0 0 I I #
coedge $-1 $191 $284 $193 $303 reversed $113 $-1 #
vertex $-1 $295 $418 #
straight-curve $-1 0 -27.843790120245451 8.1075590049828765 1 0 0 I I #
edge $-1 $196 -8.1075590049828765 $292 8.1075590049828765 $193 $419 forward 7 unknown #
edge $-1 $197 -8.1075590049828765 $291 8.1075590049828765 $194 $420 forward 7 unknown #
point $-1 46.14764854884487 -27.843790120245451 8.1075590049828765 #
point $-1 46.14764854884487 27.843790120245451 8.1075590049828765 #
face $-1 $-1 $212 $28 $-1 $421 reversed single #
loop $-1 $-1 $314 $199 #
plane-surface $-1 0 0 8.1075590049828765 0 0 1 1 0 0 forward_v I I I I #
coedge $-1 $422 $202 $207 $319 forward $121 $-1 #
coedge $-1 $202 $422 $423 $424 reversed $121 $-1 #
coedge $-1 $204 $203 $202 $313 reversed $77 $-1 #
edge $-1 $425 -4.8037795024914383 $324 -1.8037795024914383 $202 $426 forward 7 unknown #
coedge $-1 $423 $427 $204 $315 forward $308 $-1 #
edge $-1 $317 -46.14764854884487 $425 46.14764854884487 $314 $428 forward 7 unknown #
coedge $-1 $211 $205 $427 $429 reversed $212 $-1 #
vertex $-1 $206 $430 #
straight-curve $-1 46.14764854884487 -17.92779538086031 3.3037795024914383 0 0 1 I I #
edge $-1 $324 6.4848990055838698 $322 16.400893744969011 $310 $431 forward 7 unknown #
coedge $-1 $432 $208 $211 $326 reversed $200 $-1 #
coedge $-1 $208 $432 $422 $433 forward $200 $-1 #
vertex $-1 $209 $434 #
straight-curve $-1 0 -27.843790120245451 5.1075590049828765 1 0 0 I I #
vertex $-1 $319 $435 #
straight-curve $-1 0 -17.92779538086031 5.1075590049828765 1 0 0 I I #
edge $-1 $436 -8.1075590049828765 $213 -5.1075590049828765 $211 $437 forward 7 unknown #
point $-1 46.14764854884487 -27.843790120245451 5.1075590049828765 #
point $-1 46.14764854884487 -17.92779538086031 5.1075590049828765 #
face $-1 $-1 $345 $29 $-1 $438 reversed single #
loop $-1 $-1 $222 $216 #
plane-surface $-1 -46.14764854884487 0 0 1 0 0 0 0 -1 forward_v I I I I #
coedge $-1 $439 $219 $348 $440 forward $129 $-1 #
coedge $-1 $219 $439 $336 $441 forward $129 $-1 #
edge $-1 $339 -46.14764854884487 $442 46.14764854884487 $219 $443 forward 7 unknown #
coedge $-1 $221 $220 $229 $350 reversed $81 $-1 #
coedge $-1 $444 $222 $333 $441 reversed $330 $-1 #
coedge $-1 $222 $444 $224 $341 forward $330 $-1 #
vertex $-1 $341 $445 #
vertex $-1 $223 $446 #
straight-curve $-1 -46.14764854884487 17.92779538086031 3.3037795024914383 0 0 1 I I #
edge $-1 $346 -16.400893744969011 $338 -6.4848990055838698 $337 $447 forward 7 unknown #
straight-curve $-1 0 17.92779538086031 5.1075590049828765 -1 0 0 I I #
coedge $-1 $448 $226 $444 $449 reversed $345 $-1 #
coedge $-1 $226 $448 $228 $349 forward $345 $-1 #
loop $-1 $-1 $226 $329 #
vertex $-1 $227 $450 #
straight-curve $-1 0 27.843790120245451 5.1075590049828765 -1 0 0 I I #
coedge $-1 $229 $228 $332 $440 reversed $217 $-1 #
edge $-1 $451 -8.1075590049828765 $231 -5.1075590049828765 $228 $452 forward 7 unknown #
edge $-1 $442 -4.8037795024914383 $230 -1.8037795024914383 $229 $453 forward 7 unknown #
point $-1 46.14764854884487 17.92779538086031 5.1075590049828765 #
point $-1 46.14764854884487 27.843790120245451 5.1075590049828765 #
loop $-1 $-1 $242 $233 #
plane-surface $-1 0 -17.92779538086031 6.6075590049828765 0 -1 0 0 0 -1 forward_v I I I I #
coedge $-1 $454 $236 $241 $361 forward $137 $-1 #
coedge $-1 $236 $454 $358 $455 reversed $137 $-1 #
edge $-1 $359 19.435170893294071 $366 26.707083552083731 $236 $456 forward 7 unknown #
coedge $-1 $245 $239 $356 $455 forward $234 $-1 #
vertex $-1 $455 $457 #
straight-curve $-1 -60.408056578542073 -11.086554359733828 8.1075590049828747 -1 0 0 I I #
edge $-1 $366 3.8329669245852944 $364 10.674207945711773 $355 $458 forward 7 unknown #
coedge $-1 $363 $242 $245 $368 reversed $353 $-1 #
coedge $-1 $242 $362 $454 $459 reversed $353 $-1 #
vertex $-1 $459 $460 #
straight-curve $-1 -36.80348485618692 -17.92779538086031 13.696784691253939 0.5877852410284794 0 0.80901700255871778 I I #
vertex $-1 $361 $461 #
straight-curve $-1 -46.14764854884487 -11.086554359733828 0.83564634619321509 0.5877852410284794 0 0.80901700255871778 I I #
edge $-1 $462 -46.14764854884487 $246 -40.86429489698574 $245 $463 forward 7 unknown #
point $-1 -40.86429489698574 -17.927795380860307 8.1075590049828783 #
point $-1 -40.86429489698574 -11.086554359733828 8.1075590049828783 #
edge $-1 $464 1 $464 0 $249 $-1 forward 7 unknown #
vertex $-1 $250 $465 #
ellipse-curve $-1 -42.696954720356587 -15.973155089109884 3.8838174345595697 -0.80901700255871778 0 0.5877852410284794 0.2938926205142397 0 0.40450850127935889 1 I I #
point $-1 -43.21207910240107 -15.973155089109884 4.8761111768674077 #
edge $-1 $466 1 $466 0 $253 $-1 forward 7 unknown #
vertex $-1 $254 $467 #
ellipse-curve $-1 -42.696954720356587 -13.04119465148425 3.8838174345595697 -0.80901700255871778 0 0.5877852410284794 0.2938926205142397 0 0.40450850127935889 1 I I #
point $-1 -43.21207910240107 -13.04119465148425 4.8761111768674077 #
loop $-1 $-1 $265 $257 #
plane-surface $-1 46.14764854884487 0 0 -1 0 0 0 0 1 forward_v I I I I #
coedge $-1 $382 $260 $262 $386 reversed $159 $-1 #
coedge $-1 $260 $381 $468 $469 reversed $159 $-1 #
coedge $-1 $268 $263 $260 $384 forward $258 $-1 #
edge $-1 $387 26.992057720973296 $470 37.754721278607917 $383 $471 forward 7 unknown #
coedge $-1 $262 $261 $390 $472 reversed $99 $-1 #
edge $-1 $473 -92.295297097689712 $387 -79.604196602444318 $381 $474 forward 7 unknown #
vertex $-1 $264 $475 #
straight-curve $-1 35.38498499121026 3.2290964789154692 8.1075590049828676 0 -1 0 I I #
coedge $-1 $468 $265 $268 $394 reversed $379 $-1 #
coedge $-1 $265 $468 $385 $472 forward $379 $-1 #
vertex $-1 $266 $476 #
straight-curve $-1 46.14764854884487 10.043287338443582 64.281103719884484 0 0 1 I I #
straight-curve $-1 -32.123202035508484 10.043287338443582 50.2913568554156 0.84804809178421925 0 -0.52991927123019833 I I #
edge $-1 $470 2.8730985772182951 $269 10.043287338443582 $389 $477 forward 7 unknown #
point $-1 46.14764854884487 10.043287338443582 8.1075590049828765 #
point $-1 35.384984991210246 10.043287338443582 8.1075590049828747 #
edge $-1 $478 1 $478 0 $272 $-1 forward 7 unknown #
vertex $-1 $273 $479 #
ellipse-curve $-1 39.974170989707062 4.9217239375683803 3.4772314212012723 0.52991927123019833 0 0.84804809178421925 0.42402404589210962 0 -0.26495963561509916 1 I I #
point $-1 41.190340815919676 4.9217239375683803 4.4799700065929402 #
edge $-1 $480 1 $480 0 $276 $-1 forward 7 unknown #
vertex $-1 $277 $481 #
ellipse-curve $-1 39.974170989707062 7.9946619780935038 3.4772314212012723 0.52991927123019833 0 0.84804809178421925 0.42402404589210962 0 -0.26495963561509916 1 I I #
point $-1 41.190340815919676 7.9946619780935038 4.4799700065929402 #
plane-surface $-1 46.14764854884487 0 0 -1 0 0 0 0 1 forward_v I I I I #
coedge $-1 $285 $283 $287 $410 reversed $181 $-1 #
edge $-1 $298 -8.1075590049828765 $412 8.1075590049828765 $297 $482 forward 7 unknown #
vertex $-1 $410 $483 #
straight-curve $-1 -46.14764854884487 -27.843790120245451 0 0 0 -1 I I #
edge $-1 $408 -27.843790120245451 $412 27.843790120245451 $406 $484 forward 7 unknown #
straight-curve $-1 0 -27.843790120245451 -8.1075590049828765 -1 0 0 I I #
vertex $-1 $290 $485 #
straight-curve $-1 0 27.843790120245451 -8.1075590049828765 1 0 0 I I #
point $-1 46.14764854884487 27.843790120245451 -8.1075590049828765 #
point $-1 46.14764854884487 -27.843790120245451 -8.1075590049828765 #
straight-curve $-1 -46.14764854884487 0 8.1075590049828765 0 -1 0 I I #
point $-1 -46.14764854884487 27.843790120245451 8.1075590049828765 #
point $-1 -46.14764854884487 -27.843790120245451 8.1075590049828765 #
straight-curve $-1 46.14764854884487 -27.843790120245451 0 0 0 -1 I I #
straight-curve $-1 46.14764854884487 27.843790120245451 0 0 0 -1 I I #
plane-surface $-1 46.14764854884487 0 0 -1 0 0 0 0 1 forward_v I I I I #
coedge $-1 $311 $310 $321 $433 reversed $121 $-1 #
coedge $-1 $486 $314 $311 $424 forward $308 $-1 #
edge $-1 $425 17.92779538086031 $487 27.843790120245451 $311 $488 forward 7 unknown #
vertex $-1 $424 $489 #
straight-curve $-1 -46.14764854884487 -17.92779538086031 3.3037795024914383 0 0 -1 I I #
coedge $-1 $314 $486 $316 $429 forward $308 $-1 #
straight-curve $-1 0 -17.92779538086031 8.1075590049828765 -1 0 0 I I #
edge $-1 $436 -27.843790120245451 $317 -17.92779538086031 $316 $490 forward 7 unknown #
point $-1 46.14764854884487 -17.92779538086031 8.1075590049828765 #
straight-curve $-1 -46.14764854884487 -11.44289637527644 5.1075590049828765 0 -1 0 I I #
coedge $-1 $321 $320 $486 $491 reversed $200 $-1 #
edge $-1 $487 -8.1075590049828765 $322 -5.1075590049828765 $422 $492 forward 7 unknown #
point $-1 -46.14764854884487 -27.843790120245451 5.1075590049828765 #
point $-1 -46.14764854884487 -17.92779538086031 5.1075590049828765 #
vertex $-1 $429 $493 #
straight-curve $-1 46.14764854884487 -27.843790120245451 0 0 0 -1 I I #
plane-surface $-1 0 27.843790120245451 0 0 -1 0 0 0 -1 forward_v I I I I #
coedge $-1 $333 $332 $448 $494 forward $129 $-1 #
edge $-1 $442 17.92779538086031 $451 27.843790120245451 $348 $495 forward 7 unknown #
edge $-1 $496 -27.843790120245451 $339 -17.92779538086031 $336 $497 forward 7 unknown #
vertex $-1 $440 $498 #
straight-curve $-1 0 17.92779538086031 8.1075590049828765 1 0 0 I I #
coedge $-1 $337 $336 $343 $449 forward $330 $-1 #
point $-1 -46.14764854884487 17.92779538086031 5.1075590049828765 #
point $-1 -46.14764854884487 17.92779538086031 8.1075590049828765 #
straight-curve $-1 -46.14764854884487 11.44289637527644 5.1075590049828765 0 -1 0 I I #
coedge $-1 $344 $343 $439 $494 reversed $345 $-1 #
edge $-1 $496 -8.1075590049828765 $346 -5.1075590049828765 $343 $499 forward 7 unknown #
point $-1 -46.14764854884487 27.843790120245451 5.1075590049828765 #
vertex $-1 $440 $500 #
straight-curve $-1 46.14764854884487 27.843790120245451 0 0 0 -1 I I #
straight-curve $-1 46.14764854884487 17.92779538086031 3.3037795024914383 0 0 -1 I I #
coedge $-1 $356 $355 $363 $459 forward $137 $-1 #
edge $-1 $359 11.086554359733828 $462 17.92779538086031 $356 $501 forward 7 unknown #
straight-curve $-1 -46.14764854884487 -11.086554359733828 27.542729898276946 0 0 -1 I I #
point $-1 -46.14764854884487 -11.086554359733828 8.1075590049828765 #
straight-curve $-1 -46.14764854884487 -7.2535874351485337 0.83564634619321598 0 -1 0 I I #
edge $-1 $364 -26.707083552083731 $462 -19.435170893294071 $454 $502 forward 7 unknown #
point $-1 -46.14764854884487 -17.927795380860307 0.83564634619321509 #
point $-1 -46.14764854884487 -11.086554359733828 0.83564634619321509 #
vertex $-1 $459 $503 #
straight-curve $-1 0 -17.92779538086031 8.1075590049828765 1 0 0 I I #
vertex $-1 $371 $504 #
point $-1 -42.403062099842352 -15.973155089109884 4.2883259358389285 #
vertex $-1 $375 $505 #
point $-1 -42.403062099842352 -13.04119465148425 4.2883259358389285 #
coedge $-1 $390 $389 $382 $469 forward $379 $-1 #
edge $-1 $470 56.17354471490161 $473 62.898803440451253 $468 $506 forward 7 unknown #
vertex $-1 $394 $507 #
straight-curve $-1 8.3929272702369495 2.8730985772182951 8.1075590049828747 1 0 0 I I #
edge $-1 $473 -0.35599790169717416 $391 6.8141908595281127 $390 $508 forward 7 unknown #
vertex $-1 $472 $509 #
straight-curve $-1 -32.123202035508484 2.8730985772182951 50.2913568554156 -0.84804809178421925 0 0.52991927123019833 I I #
point $-1 35.384984991210246 2.8730985772182951 8.1075590049828747 #
point $-1 46.14764854884487 10.043287338443582 1.3823002794332311 #
straight-curve $-1 46.14764854884487 0 8.1075590049828765 0 1 0 I I #
vertex $-1 $397 $510 #
point $-1 40.398195035599173 4.9217239375683803 3.2122717855861729 #
vertex $-1 $401 $511 #
point $-1 40.398195035599173 7.9946619780935038 3.2122717855861729 #
straight-curve $-1 -46.14764854884487 27.843790120245451 0 0 0 -1 I I #
point $-1 -46.14764854884487 -27.843790120245451 -8.1075590049828765 #
straight-curve $-1 -46.14764854884487 0 -8.1075590049828765 0 1 0 I I #
point $-1 -46.14764854884487 27.843790120245451 -8.1075590049828765 #
coedge $-1 $427 $423 $432 $491 forward $308 $-1 #
vertex $-1 $424 $512 #
straight-curve $-1 -46.14764854884487 0 8.1075590049828765 0 -1 0 I I #
point $-1 -46.14764854884487 -17.92779538086031 8.1075590049828765 #
straight-curve $-1 46.14764854884487 0 8.1075590049828765 0 1 0 I I #
edge $-1 $487 -46.14764854884487 $436 46.14764854884487 $432 $513 forward 7 unknown #
straight-curve $-1 -46.14764854884487 -27.843790120245451 0 0 0 -1 I I #
point $-1 46.14764854884487 -27.843790120245451 8.1075590049828765 #
edge $-1 $451 -46.14764854884487 $496 46.14764854884487 $448 $514 forward 7 unknown #
straight-curve $-1 46.14764854884487 0 8.1075590049828765 0 1 0 I I #
vertex $-1 $494 $515 #
straight-curve $-1 -46.14764854884487 0 8.1075590049828765 0 -1 0 I I #
point $-1 46.14764854884487 17.92779538086031 8.1075590049828765 #
straight-curve $-1 -46.14764854884487 27.843790120245451 0 0 0 -1 I I #
point $-1 46.14764854884487 27.843790120245451 8.1075590049828765 #
straight-curve $-1 -46.14764854884487 0 8.1075590049828765 0 -1 0 I I #
straight-curve $-1 -46.14764854884487 -17.927795380860307 27.542729898276946 0 0 1 I I #
point $-1 -46.14764854884487 -17.92779538086031 8.1075590049828765 #
point $-1 -42.292446219077235 -15.973155089109884 3.5899248140453301 #
point $-1 -42.292446219077235 -13.04119465148425 3.5899248140453301 #
straight-curve $-1 46.14764854884487 2.8730985772182951 64.281103719884484 0 0 -1 I I #
point $-1 46.14764854884487 2.8730985772182951 8.1075590049828765 #
straight-curve $-1 46.14764854884487 3.2290964789154692 1.3823002794332204 0 1 0 I I #
point $-1 46.14764854884487 2.8730985772182951 1.3823002794332311 #
point $-1 39.709211354091963 4.9217239375683803 3.0532073753091624 #
point $-1 39.709211354091963 7.9946619780935038 3.0532073753091624 #
point $-1 -46.14764854884487 -27.843790120245451 8.1075590049828765 #
straight-curve $-1 0 -27.843790120245451 8.1075590049828765 1 0 0 I I #
straight-curve $-1 0 27.843790120245451 8.1075590049828765 -1 0 0 I I #
point $-1 -46.14764854884487 27.843790120245451 8.1075590049828765 #
End-of-ACIS-data 