500 0 10 0           
7 Unknown 11 ACIS 5.0 NT 24 Thu Mar 25 20:43:17 1999 
-1 9.9999999999999995e-007 1e-010 
body $-1 $10 $-1 $11 #
body $-1 $12 $-1 $13 #
body $-1 $14 $-1 $15 #
body $-1 $16 $-1 $17 #
body $-1 $18 $-1 $19 #
body $-1 $20 $-1 $21 #
body $-1 $22 $-1 $23 #
body $-1 $24 $-1 $25 #
body $-1 $26 $-1 $27 #
body $-1 $28 $-1 $29 #
lump $-1 $-1 $30 $0 #
transform $-1 1 0 0 0 1 0 0 0 1 49.681691946165351 26.88121136667851 11.598700847362004 1 rotate no_reflect no_shear #
lump $-1 $-1 $31 $1 #
transform $-1 1 0 0 0 1 0 0 0 1 49.681691946165351 26.88121136667851 11.598700847362004 1 rotate no_reflect no_shear #
lump $-1 $-1 $32 $2 #
transform $-1 1 0 0 0 1 0 0 0 1 49.681691946165351 26.88121136667851 11.598700847362004 1 rotate no_reflect no_shear #
lump $-1 $-1 $33 $3 #
transform $-1 1 0 0 0 1 0 0 0 1 49.681691946165351 26.88121136667851 11.598700847362004 1 rotate no_reflect no_shear #
lump $-1 $-1 $34 $4 #
transform $-1 1 0 0 0 1 0 0 0 1 49.681691946165351 26.88121136667851 11.598700847362004 1 rotate no_reflect no_shear #
lump $-1 $-1 $35 $5 #
transform $-1 1 0 0 0 1 0 0 0 1 49.681691946165351 26.88121136667851 11.598700847362004 1 rotate no_reflect no_shear #
lump $-1 $-1 $36 $6 #
transform $-1 1 0 0 0 1 0 0 0 1 49.681691946165351 26.88121136667851 11.598700847362004 1 rotate no_reflect no_shear #
lump $-1 $-1 $37 $7 #
transform $-1 1 0 0 0 1 0 0 0 1 49.681691946165351 26.88121136667851 11.598700847362004 1 rotate no_reflect no_shear #
lump $-1 $-1 $38 $8 #
transform $-1 1 0 0 0 1 0 0 0 1 49.681691946165351 26.88121136667851 11.598700847362004 1 rotate no_reflect no_shear #
lump $-1 $-1 $39 $9 #
transform $-1 1 0 0 0 1 0 0 0 1 49.681691946165351 26.88121136667851 11.598700847362004 1 rotate no_reflect no_shear #
shell $-1 $-1 $-1 $40 $-1 $10 #
shell $-1 $-1 $-1 $41 $-1 $12 #
shell $-1 $-1 $-1 $42 $-1 $14 #
shell $-1 $-1 $-1 $43 $-1 $16 #
shell $-1 $-1 $-1 $44 $-1 $18 #
shell $-1 $-1 $-1 $45 $-1 $20 #
shell $-1 $-1 $-1 $46 $-1 $22 #
shell $-1 $-1 $-1 $47 $-1 $24 #
shell $-1 $-1 $-1 $48 $-1 $26 #
shell $-1 $-1 $-1 $49 $-1 $28 #
face $-1 $50 $51 $30 $-1 $52 forward single #
face $-1 $53 $54 $31 $-1 $55 reversed single #
face $-1 $56 $57 $32 $-1 $58 reversed single #
face $-1 $59 $60 $33 $-1 $61 reversed single #
face $-1 $62 $63 $34 $-1 $64 forward single #
face $-1 $65 $66 $35 $-1 $67 forward single #
face $-1 $68 $69 $36 $-1 $70 reversed single #
face $-1 $71 $72 $37 $-1 $73 forward single #
face $-1 $74 $75 $38 $-1 $76 forward single #
face $-1 $77 $78 $39 $-1 $79 forward single #
face $-1 $80 $81 $30 $-1 $82 reversed single #
loop $-1 $-1 $83 $40 #
plane-surface $-1 0 0 11.598700847362004 0 0 1 1 0 0 forward_v I I I I #
face $-1 $84 $85 $31 $-1 $86 reversed single #
loop $-1 $-1 $87 $41 #
plane-surface $-1 0 -22.693275775465537 6.8698064078268644 0 0 1 1 0 0 forward_v I I I I #
face $-1 $88 $89 $32 $-1 $90 reversed single #
loop $-1 $-1 $91 $42 #
plane-surface $-1 0 22.693275775465541 6.8698064078268644 0 0 1 1 0 0 forward_v I I I I #
face $-1 $92 $93 $33 $-1 $94 reversed single #
loop $-1 $-1 $95 $43 #
plane-surface $-1 44.777579752923948 -9.1509650466733241 141.43421227797145 0 -1 0 -0.68199836817093118 0 -0.7313536940579346 forward_v I I I I #
face $-1 $96 $97 $34 $-1 $98 forward single #
loop $-1 $99 $100 $44 #
cone-surface $-1 43.351340478855832 -15.83266157351564 5.6050904452101156 -0.68199836817093118 0 -0.7313536940579346 0.7313536940579346 0 -0.68199836817093118 1 I I 0 1 1 forward I I I I #
face $-1 $101 $102 $35 $-1 $103 forward single #
loop $-1 $104 $105 $45 #
cone-surface $-1 43.351340478855832 -11.823643657410251 5.6050904452101156 -0.68199836817093118 0 -0.7313536940579346 0.7313536940579346 0 -0.68199836817093118 1 I I 0 1 1 forward I I I I #
face $-1 $106 $107 $36 $-1 $108 reversed single #
loop $-1 $-1 $109 $46 #
plane-surface $-1 -122.35147138242735 2.7752265678302805 74.45027675573553 0 1 0 -0.73135370988377701 0 0.68199835119979291 forward_v I I I I #
face $-1 $110 $111 $37 $-1 $112 forward single #
loop $-1 $113 $114 $47 #
cone-surface $-1 -46.9477197380292 4.8690932529738511 8.728793569176144 0.73135370988377701 0 -0.68199835119979291 0.34099917559989645 0 0.36567685494188851 1 I I 0 1 0.5 forward I I I I #
face $-1 $115 $116 $38 $-1 $117 forward single #
loop $-1 $118 $119 $48 #
cone-surface $-1 -46.9477197380292 8.0098932806892158 8.728793569176144 0.73135370988377701 0 -0.68199835119979291 0.34099917559989645 0 0.36567685494188851 1 I I 0 1 0.5 forward I I I I #
face $-1 $120 $121 $39 $-1 $122 forward single #
loop $-1 $123 $124 $49 #
cone-surface $-1 -46.9477197380292 11.150693308404573 8.728793569176144 0.73135370988377701 0 -0.68199835119979291 0.34099917559989645 0 0.36567685494188851 1 I I 0 1 0.5 forward I I I I #
face $-1 $125 $126 $30 $-1 $127 reversed single #
loop $-1 $-1 $128 $50 #
plane-surface $-1 0 0 -11.598700847362004 0 0 1 1 0 0 forward_v I I I I #
coedge $-1 $129 $130 $131 $132 forward $51 $-1 #
face $-1 $133 $134 $31 $-1 $135 reversed single #
loop $-1 $-1 $136 $53 #
plane-surface $-1 0 -18.505340184252564 9.234253627594434 0 -1 0 0 0 -1 forward_v I I I I #
coedge $-1 $137 $138 $139 $140 reversed $54 $-1 #
face $-1 $141 $142 $32 $-1 $143 forward single #
loop $-1 $-1 $144 $56 #
plane-surface $-1 0 18.505340184252567 9.234253627594434 0 1 0 0 0 1 forward_v I I I I #
coedge $-1 $145 $146 $147 $148 reversed $57 $-1 #
face $-1 $149 $150 $33 $-1 $151 forward single #
loop $-1 $-1 $152 $59 #
plane-surface $-1 -22.988085917587377 -13.828152615462944 68.764434414218712 0.68199836817093118 0 0.7313536940579346 0.7313536940579346 0 -0.68199836817093118 forward_v I I I I #
coedge $-1 $153 $154 $155 $156 reversed $60 $-1 #
face $-1 $-1 $157 $34 $-1 $158 forward single #
loop $-1 $159 $160 $62 #
cone-surface $-1 42.36350745930077 -15.83266157351564 4.545769247856569 -0.68199836817093118 0 -0.7313536940579346 0.3656768470289673 0 -0.34099918408546559 1 I I -0.70710678118654691 0.70710678118654813 0.5 forward I I I I #
loop $-1 $-1 $161 $44 #
coedge $-1 $100 $100 $162 $163 reversed $63 $-1 #
face $-1 $-1 $164 $35 $-1 $165 forward single #
loop $-1 $166 $167 $65 #
cone-surface $-1 42.36350745930077 -11.823643657410251 4.545769247856569 -0.68199836817093118 0 -0.7313536940579346 0.3656768470289673 0 -0.34099918408546559 1 I I -0.70710678118654691 0.70710678118654813 0.5 forward I I I I #
loop $-1 $-1 $168 $45 #
coedge $-1 $105 $105 $169 $170 reversed $66 $-1 #
face $-1 $171 $172 $36 $-1 $173 reversed single #
loop $-1 $-1 $174 $68 #
plane-surface $-1 -49.681691946165358 8.0098932806892158 6.684612771533935 -0.73135370988377701 0 0.68199835119979291 0.68199835119979291 0 0.73135370988377701 forward_v I I I I #
coedge $-1 $175 $176 $177 $178 reversed $69 $-1 #
face $-1 $-1 $179 $37 $-1 $180 forward single #
loop $-1 $181 $182 $71 #
cone-surface $-1 -46.322139679414661 4.8690932529738511 8.14543074110437 0.73135370988377701 0 -0.68199835119979291 0.17049958779994823 0 0.18283842747094425 1 I I -0.70710678118654746 0.70710678118654746 0.25 forward I I I I #
loop $-1 $-1 $183 $47 #
coedge $-1 $114 $114 $184 $185 reversed $72 $-1 #
face $-1 $-1 $186 $38 $-1 $187 forward single #
loop $-1 $188 $189 $74 #
cone-surface $-1 -46.322139679414661 8.0098932806892158 8.14543074110437 0.73135370988377701 0 -0.68199835119979291 0.17049958779994823 0 0.18283842747094425 1 I I -0.70710678118654746 0.70710678118654746 0.25 forward I I I I #
loop $-1 $-1 $190 $48 #
coedge $-1 $119 $119 $191 $192 reversed $75 $-1 #
face $-1 $-1 $193 $39 $-1 $194 forward single #
loop $-1 $195 $196 $77 #
cone-surface $-1 -46.322139679414661 11.150693308404573 8.14543074110437 0.73135370988377701 0 -0.68199835119979291 0.17049958779994823 0 0.18283842747094425 1 I I -0.70710678118654746 0.70710678118654746 0.25 forward I I I I #
loop $-1 $-1 $197 $49 #
coedge $-1 $124 $124 $198 $199 reversed $78 $-1 #
face $-1 $200 $201 $30 $-1 $202 reversed single #
loop $-1 $-1 $203 $80 #
plane-surface $-1 0 -26.88121136667851 0 0 1 0 0 0 1 forward_v I I I I #
coedge $-1 $204 $205 $206 $207 forward $81 $-1 #
coedge $-1 $208 $83 $209 $210 forward $51 $-1 #
coedge $-1 $83 $208 $211 $212 forward $51 $-1 #
coedge $-1 $213 $214 $83 $132 reversed $215 $-1 #
edge $-1 $216 -26.88121136667851 $217 26.88121136667851 $131 $218 forward 7 unknown #
face $-1 $219 $220 $31 $-1 $221 reversed single #
loop $-1 $-1 $222 $84 #
plane-surface $-1 -49.681691946165351 0 0 1 0 0 0 0 -1 forward_v I I I I #
coedge $-1 $223 $224 $225 $226 reversed $85 $-1 #
coedge $-1 $227 $87 $228 $229 reversed $54 $-1 #
coedge $-1 $87 $227 $223 $230 forward $54 $-1 #
coedge $-1 $225 $231 $87 $140 forward $232 $-1 #
edge $-1 $233 -15.534573478945742 $234 -7.1587022965197953 $139 $235 forward 7 unknown #
face $-1 $236 $237 $32 $-1 $238 reversed single #
loop $-1 $-1 $239 $88 #
plane-surface $-1 0 0 11.598700847362004 0 0 1 1 0 0 forward_v I I I I #
coedge $-1 $240 $241 $242 $243 reversed $89 $-1 #
coedge $-1 $244 $91 $240 $245 forward $57 $-1 #
coedge $-1 $91 $244 $246 $247 reversed $57 $-1 #
coedge $-1 $248 $249 $91 $148 forward $237 $-1 #
edge $-1 $250 7.1587022965197971 $251 15.534573478945743 $147 $252 forward 7 unknown #
face $-1 $253 $254 $33 $-1 $255 forward single #
loop $-1 $-1 $155 $92 #
plane-surface $-1 0 0 11.598700847362004 0 0 1 1 0 0 forward_v I I I I #
coedge $-1 $256 $257 $258 $259 reversed $93 $-1 #
coedge $-1 $154 $95 $260 $261 reversed $60 $-1 #
coedge $-1 $95 $153 $256 $262 reversed $60 $-1 #
coedge $-1 $258 $263 $95 $156 forward $150 $-1 #
edge $-1 $264 -27.292902069703377 $265 -15.925866806023524 $155 $266 forward 7 unknown #
loop $-1 $-1 $162 $96 #
plane-surface $-1 -22.988085917587377 -13.828152615462944 68.764434414218712 0.68199836817093118 0 0.7313536940579346 0.7313536940579346 0 -0.68199836817093118 forward_v I I I I #
loop $-1 $-1 $267 $62 #
coedge $-1 $160 $160 $161 $268 reversed $97 $-1 #
coedge $-1 $161 $161 $160 $268 forward $99 $-1 #
coedge $-1 $162 $162 $100 $163 forward $157 $-1 #
edge $-1 $269 0 $269 6.2831853071796004 $162 $270 forward 7 unknown #
loop $-1 $-1 $169 $101 #
plane-surface $-1 -22.988085917587377 -13.828152615462944 68.764434414218712 0.68199836817093118 0 0.7313536940579346 0.7313536940579346 0 -0.68199836817093118 forward_v I I I I #
loop $-1 $-1 $271 $65 #
coedge $-1 $167 $167 $168 $272 reversed $102 $-1 #
coedge $-1 $168 $168 $167 $272 forward $104 $-1 #
coedge $-1 $169 $169 $105 $170 forward $164 $-1 #
edge $-1 $273 0 $273 6.2831853071796004 $169 $274 forward 7 unknown #
face $-1 $275 $276 $36 $-1 $277 reversed single #
loop $-1 $-1 $278 $106 #
plane-surface $-1 -122.35147138242735 13.244559993548151 74.45027675573553 0 -1 0 0.73135370988377701 0 -0.68199835119979291 forward_v I I I I #
coedge $-1 $279 $280 $281 $282 reversed $107 $-1 #
coedge $-1 $176 $109 $283 $284 reversed $69 $-1 #
coedge $-1 $109 $175 $279 $285 reversed $69 $-1 #
coedge $-1 $281 $286 $109 $178 forward $287 $-1 #
edge $-1 $288 11.494043745048323 $289 16.076504899033431 $177 $290 forward 7 unknown #
loop $-1 $-1 $184 $110 #
plane-surface $-1 -49.681691946165358 8.0098932806892158 6.684612771533935 -0.73135370988377701 0 0.68199835119979291 0.68199835119979291 0 0.73135370988377701 forward_v I I I I #
loop $-1 $-1 $291 $71 #
coedge $-1 $182 $182 $183 $292 reversed $111 $-1 #
coedge $-1 $183 $183 $182 $292 forward $113 $-1 #
coedge $-1 $184 $184 $114 $185 forward $179 $-1 #
edge $-1 $293 0 $293 6.2831853071796004 $184 $294 forward 7 unknown #
loop $-1 $-1 $191 $115 #
plane-surface $-1 -49.681691946165358 8.0098932806892158 6.684612771533935 -0.73135370988377701 0 0.68199835119979291 0.68199835119979291 0 0.73135370988377701 forward_v I I I I #
loop $-1 $-1 $295 $74 #
coedge $-1 $189 $189 $190 $296 reversed $116 $-1 #
coedge $-1 $190 $190 $189 $296 forward $118 $-1 #
coedge $-1 $191 $191 $119 $192 forward $186 $-1 #
edge $-1 $297 0 $297 6.2831853071796004 $191 $298 forward 7 unknown #
loop $-1 $-1 $198 $120 #
plane-surface $-1 -49.681691946165358 8.0098932806892158 6.684612771533935 -0.73135370988377701 0 0.68199835119979291 0.68199835119979291 0 0.73135370988377701 forward_v I I I I #
loop $-1 $-1 $299 $77 #
coedge $-1 $196 $196 $197 $300 reversed $121 $-1 #
coedge $-1 $197 $197 $196 $300 forward $123 $-1 #
coedge $-1 $198 $198 $124 $199 forward $193 $-1 #
edge $-1 $301 0 $301 6.2831853071796004 $198 $302 forward 7 unknown #
face $-1 $303 $304 $30 $-1 $305 reversed single #
loop $-1 $-1 $306 $125 #
plane-surface $-1 -49.681691946165351 0 0 1 0 0 0 0 -1 forward_v I I I I #
coedge $-1 $307 $211 $308 $309 forward $126 $-1 #
coedge $-1 $310 $128 $307 $311 forward $81 $-1 #
coedge $-1 $128 $310 $312 $313 forward $81 $-1 #
coedge $-1 $214 $213 $128 $207 reversed $215 $-1 #
edge $-1 $314 -26.88121136667851 $315 26.88121136667851 $206 $316 forward 7 unknown #
coedge $-1 $130 $129 $317 $318 forward $51 $-1 #
coedge $-1 $319 $320 $129 $210 reversed $304 $-1 #
edge $-1 $217 -49.681691946165351 $321 49.681691946165351 $209 $322 forward 7 unknown #
coedge $-1 $203 $323 $130 $212 reversed $126 $-1 #
edge $-1 $324 -49.681691946165351 $216 49.681691946165351 $211 $325 forward 7 unknown #
coedge $-1 $206 $131 $323 $326 forward $215 $-1 #
coedge $-1 $131 $206 $319 $327 reversed $215 $-1 #
loop $-1 $-1 $213 $303 #
vertex $-1 $132 $328 #
vertex $-1 $132 $329 #
straight-curve $-1 49.681691946165351 0 11.598700847362004 0 1 0 I I #
face $-1 $330 $331 $31 $-1 $332 forward single #
loop $-1 $-1 $228 $133 #
plane-surface $-1 0 -26.88121136667851 0 0 1 0 0 0 1 forward_v I I I I #
coedge $-1 $333 $334 $335 $336 forward $134 $-1 #
coedge $-1 $335 $136 $138 $230 reversed $85 $-1 #
coedge $-1 $136 $335 $337 $338 reversed $85 $-1 #
coedge $-1 $339 $139 $136 $226 forward $232 $-1 #
edge $-1 $234 2.2526795940296473 $340 6.9815740335647867 $225 $341 forward 7 unknown #
coedge $-1 $138 $137 $333 $342 reversed $54 $-1 #
coedge $-1 $343 $344 $137 $229 forward $220 $-1 #
edge $-1 $345 -49.681691946165351 $233 49.681691946165351 $228 $346 forward 7 unknown #
edge $-1 $347 -49.681691946165351 $234 49.681691946165351 $223 $348 forward 7 unknown #
coedge $-1 $139 $339 $343 $349 forward $232 $-1 #
loop $-1 $-1 $225 $330 #
vertex $-1 $229 $350 #
vertex $-1 $140 $351 #
straight-curve $-1 49.681691946165351 -11.346637887732768 6.8698064078268644 0 1 0 I I #
face $-1 $352 $353 $32 $-1 $354 reversed single #
loop $-1 $-1 $249 $141 #
plane-surface $-1 49.681691946165351 0 0 -1 0 0 0 0 1 forward_v I I I I #
coedge $-1 $355 $356 $241 $357 forward $142 $-1 #
coedge $-1 $358 $144 $145 $245 reversed $89 $-1 #
coedge $-1 $144 $358 $239 $357 reversed $89 $-1 #
coedge $-1 $359 $360 $144 $243 forward $353 $-1 #
edge $-1 $361 2.2526795940296473 $362 6.9815740335647867 $242 $363 forward 7 unknown #
coedge $-1 $146 $145 $360 $364 reversed $57 $-1 #
edge $-1 $250 -49.681691946165351 $361 49.681691946165351 $240 $365 forward 7 unknown #
coedge $-1 $366 $367 $146 $247 forward $368 $-1 #
edge $-1 $251 -49.681691946165351 $369 49.681691946165351 $246 $370 forward 7 unknown #
coedge $-1 $371 $147 $367 $372 reversed $237 $-1 #
coedge $-1 $147 $371 $358 $373 forward $237 $-1 #
vertex $-1 $148 $374 #
vertex $-1 $247 $375 #
straight-curve $-1 49.681691946165351 11.34663788773277 6.8698064078268644 0 1 0 I I #
face $-1 $-1 $376 $33 $-1 $377 reversed single #
loop $-1 $-1 $378 $149 #
plane-surface $-1 0 -18.505340184252564 9.234253627594434 0 -1 0 0 0 -1 forward_v I I I I #
coedge $-1 $379 $152 $154 $262 forward $93 $-1 #
coedge $-1 $152 $379 $378 $380 forward $93 $-1 #
coedge $-1 $381 $155 $152 $259 forward $150 $-1 #
edge $-1 $265 2.2368887389418521 $382 11.591263876521092 $258 $383 forward 7 unknown #
coedge $-1 $384 $385 $153 $261 forward $376 $-1 #
edge $-1 $386 -69.718337395278326 $264 -59.118405291623723 $260 $387 forward 7 unknown #
edge $-1 $265 83.820924264336526 $386 99.363383892330688 $154 $388 forward 7 unknown #
coedge $-1 $155 $381 $384 $389 forward $150 $-1 #
vertex $-1 $261 $390 #
vertex $-1 $156 $391 #
straight-curve $-1 22.388789876461974 -9.1509650466733241 11.598700847361997 -1 0 0 I I #
coedge $-1 $267 $267 $-1 $392 reversed $159 $-1 #
edge $-1 $393 0 $393 6.2831853071796004 $160 $394 forward 7 unknown #
vertex $-1 $163 $395 #
ellipse-curve $-1 43.998174314325432 -15.83266157351564 6.2987347955346999 0.68199836817093118 0 0.7313536940579346 0.7313536940579346 0 -0.68199836817093118 1 I I #
coedge $-1 $271 $271 $-1 $396 reversed $166 $-1 #
edge $-1 $397 0 $397 6.2831853071796004 $167 $398 forward 7 unknown #
vertex $-1 $170 $399 #
ellipse-curve $-1 43.998174314325432 -11.823643657410251 6.2987347955346999 0.68199836817093118 0 0.7313536940579346 0.7313536940579346 0 -0.68199836817093118 1 I I #
face $-1 $-1 $287 $36 $-1 $400 forward single #
loop $-1 $-1 $401 $171 #
plane-surface $-1 -49.681691946165351 0 0 1 0 0 0 0 -1 forward_v I I I I #
coedge $-1 $402 $403 $404 $405 reversed $172 $-1 #
coedge $-1 $406 $174 $176 $285 forward $107 $-1 #
coedge $-1 $174 $406 $402 $407 forward $107 $-1 #
coedge $-1 $404 $177 $174 $282 forward $287 $-1 #
edge $-1 $289 -1.2297200725143274 $408 9.2396133532035432 $281 $409 forward 7 unknown #
coedge $-1 $410 $411 $175 $284 forward $276 $-1 #
edge $-1 $412 -30.540525606333823 $288 -25.626437530505761 $283 $413 forward 7 unknown #
edge $-1 $289 -6.7191674964074384 $412 -1.0692042983031357e-014 $176 $414 forward 7 unknown #
coedge $-1 $177 $404 $410 $415 forward $287 $-1 #
loop $-1 $-1 $404 $275 #
vertex $-1 $284 $416 #
vertex $-1 $178 $417 #
straight-curve $-1 -61.175735691213674 2.7752265678302805 11.598700847362004 1 0 0 I I #
coedge $-1 $291 $291 $-1 $418 reversed $181 $-1 #
edge $-1 $419 0 $419 6.2831853071796004 $182 $420 forward 7 unknown #
vertex $-1 $185 $421 #
ellipse-curve $-1 -47.390461369172797 4.8690932529738511 9.1416568094479747 -0.73135370988377701 0 0.68199835119979291 0.34099917559989645 0 0.36567685494188851 1 I I #
coedge $-1 $295 $295 $-1 $422 reversed $188 $-1 #
edge $-1 $423 0 $423 6.2831853071796004 $189 $424 forward 7 unknown #
vertex $-1 $192 $425 #
ellipse-curve $-1 -47.390461369172797 8.0098932806892158 9.1416568094479747 -0.73135370988377701 0 0.68199835119979291 0.34099917559989645 0 0.36567685494188851 1 I I #
coedge $-1 $299 $299 $-1 $426 reversed $195 $-1 #
edge $-1 $427 0 $427 6.2831853071796004 $196 $428 forward 7 unknown #
vertex $-1 $199 $429 #
ellipse-curve $-1 -47.390461369172797 11.150693308404573 9.1416568094479747 -0.73135370988377701 0 0.68199835119979291 0.34099917559989645 0 0.36567685494188851 1 I I #
face $-1 $-1 $215 $30 $-1 $430 reversed single #
loop $-1 $-1 $319 $200 #
plane-surface $-1 0 26.88121136667851 0 0 -1 0 0 0 -1 forward_v I I I I #
coedge $-1 $431 $317 $320 $432 forward $201 $-1 #
coedge $-1 $323 $203 $204 $311 reversed $126 $-1 #
coedge $-1 $317 $431 $203 $309 reversed $201 $-1 #
edge $-1 $324 -11.598700847362004 $433 11.598700847362004 $308 $434 forward 7 unknown #
coedge $-1 $205 $204 $431 $435 forward $81 $-1 #
edge $-1 $315 -49.681691946165351 $433 49.681691946165351 $307 $436 forward 7 unknown #
coedge $-1 $320 $319 $205 $313 reversed $304 $-1 #
edge $-1 $437 -49.681691946165351 $314 49.681691946165351 $312 $438 forward 7 unknown #
vertex $-1 $207 $439 #
vertex $-1 $326 $440 #
straight-curve $-1 49.681691946165351 0 -11.598700847362004 0 -1 0 I I #
coedge $-1 $306 $308 $208 $318 reversed $201 $-1 #
edge $-1 $321 -26.88121136667851 $324 26.88121136667851 $317 $441 forward 7 unknown #
coedge $-1 $312 $209 $214 $327 forward $304 $-1 #
coedge $-1 $209 $312 $306 $432 reversed $304 $-1 #
vertex $-1 $210 $442 #
straight-curve $-1 0 26.88121136667851 11.598700847362004 -1 0 0 I I #
coedge $-1 $211 $307 $213 $326 reversed $126 $-1 #
vertex $-1 $318 $443 #
straight-curve $-1 0 -26.88121136667851 11.598700847362004 1 0 0 I I #
edge $-1 $216 -11.598700847362004 $315 11.598700847362004 $213 $444 forward 7 unknown #
edge $-1 $217 -11.598700847362004 $314 11.598700847362004 $214 $445 forward 7 unknown #
point $-1 49.681691946165351 -26.88121136667851 11.598700847362004 #
point $-1 49.681691946165351 26.88121136667851 11.598700847362004 #
face $-1 $-1 $232 $31 $-1 $446 reversed single #
loop $-1 $-1 $337 $219 #
plane-surface $-1 0 0 11.598700847362004 0 0 1 1 0 0 forward_v I I I I #
coedge $-1 $447 $222 $227 $342 forward $134 $-1 #
coedge $-1 $222 $447 $448 $449 reversed $134 $-1 #
coedge $-1 $224 $223 $222 $336 reversed $85 $-1 #
edge $-1 $450 -6.9815740335647867 $347 -2.2526795940296473 $222 $451 forward 7 unknown #
coedge $-1 $448 $452 $224 $338 forward $331 $-1 #
edge $-1 $340 -49.681691946165351 $450 49.681691946165351 $337 $453 forward 7 unknown #
coedge $-1 $231 $225 $452 $454 reversed $232 $-1 #
vertex $-1 $226 $455 #
straight-curve $-1 49.681691946165351 -18.505340184252564 4.617126813797217 0 0 1 I I #
edge $-1 $347 7.1587022965197953 $345 15.534573478945742 $333 $456 forward 7 unknown #
coedge $-1 $457 $228 $231 $349 reversed $220 $-1 #
coedge $-1 $228 $457 $447 $458 forward $220 $-1 #
vertex $-1 $229 $459 #
straight-curve $-1 0 -26.88121136667851 6.8698064078268644 1 0 0 I I #
vertex $-1 $342 $460 #
straight-curve $-1 0 -18.505340184252564 6.8698064078268644 1 0 0 I I #
edge $-1 $461 -11.598700847362004 $233 -6.8698064078268644 $231 $462 forward 7 unknown #
point $-1 49.681691946165351 -26.88121136667851 6.8698064078268644 #
point $-1 49.681691946165351 -18.505340184252564 6.8698064078268644 #
face $-1 $-1 $368 $32 $-1 $463 reversed single #
loop $-1 $-1 $242 $236 #
plane-surface $-1 -49.681691946165351 0 0 1 0 0 0 0 -1 forward_v I I I I #
coedge $-1 $464 $239 $371 $465 forward $142 $-1 #
coedge $-1 $239 $464 $359 $466 forward $142 $-1 #
edge $-1 $362 -49.681691946165351 $467 49.681691946165351 $239 $468 forward 7 unknown #
coedge $-1 $241 $240 $249 $373 reversed $89 $-1 #
coedge $-1 $469 $242 $356 $466 reversed $353 $-1 #
coedge $-1 $242 $469 $244 $364 forward $353 $-1 #
vertex $-1 $364 $470 #
vertex $-1 $243 $471 #
straight-curve $-1 -49.681691946165351 18.505340184252567 4.617126813797217 0 0 1 I I #
edge $-1 $369 -15.534573478945743 $361 -7.1587022965197971 $360 $472 forward 7 unknown #
straight-curve $-1 0 18.505340184252567 6.8698064078268644 -1 0 0 I I #
coedge $-1 $473 $246 $469 $474 reversed $368 $-1 #
coedge $-1 $246 $473 $248 $372 forward $368 $-1 #
loop $-1 $-1 $246 $352 #
vertex $-1 $247 $475 #
straight-curve $-1 0 26.88121136667851 6.8698064078268644 -1 0 0 I I #
coedge $-1 $249 $248 $355 $465 reversed $237 $-1 #
edge $-1 $476 -11.598700847362004 $251 -6.8698064078268644 $248 $477 forward 7 unknown #
edge $-1 $467 -6.9815740335647867 $250 -2.2526795940296473 $249 $478 forward 7 unknown #
point $-1 49.681691946165351 18.505340184252567 6.8698064078268644 #
point $-1 49.681691946165351 26.881211366678514 6.8698064078268644 #
loop $-1 $-1 $260 $253 #
plane-surface $-1 49.681691946165351 0 0 -1 0 0 0 0 1 forward_v I I I I #
coedge $-1 $479 $480 $257 $380 reversed $254 $-1 #
coedge $-1 $257 $256 $385 $481 reversed $93 $-1 #
edge $-1 $482 -99.363383892330688 $382 -83.820924264336526 $378 $483 forward 7 unknown #
coedge $-1 $263 $258 $480 $484 forward $150 $-1 #
vertex $-1 $484 $485 #
straight-curve $-1 38.314656682485492 -6.914076307731472 11.598700847362011 0 -1 0 I I #
coedge $-1 $486 $260 $263 $389 reversed $376 $-1 #
coedge $-1 $260 $486 $379 $481 forward $376 $-1 #
vertex $-1 $261 $487 #
straight-curve $-1 49.681691946165351 -9.1509650466733241 70.717106138985727 0 0 1 I I #
straight-curve $-1 -22.988085917587377 -9.1509650466733241 68.764434414218712 0.7313536940579346 0 -0.68199836817093118 I I #
edge $-1 $488 -18.505340184252564 $264 -9.1509650466733241 $384 $489 forward 7 unknown #
point $-1 49.681691946165351 -9.1509650466733241 11.598700847362004 #
point $-1 38.314656682485499 -9.1509650466733241 11.598700847362004 #
edge $-1 $490 1 $490 0 $267 $-1 forward 7 unknown #
vertex $-1 $268 $491 #
ellipse-curve $-1 42.704506643386239 -15.83266157351564 4.9114460948855374 0.68199836817093118 0 0.7313536940579346 0.7313536940579346 0 -0.68199836817093118 1 I I #
point $-1 44.729528008383355 -15.83266157351564 5.6167364273637634 #
edge $-1 $492 1 $492 0 $271 $-1 forward 7 unknown #
vertex $-1 $272 $493 #
ellipse-curve $-1 42.704506643386239 -11.823643657410251 4.9114460948855374 0.68199836817093118 0 0.7313536940579346 0.7313536940579346 0 -0.68199836817093118 1 I I #
point $-1 44.729528008383355 -11.823643657410251 5.6167364273637634 #
plane-surface $-1 0 0 11.598700847362004 0 0 1 1 0 0 forward_v I I I I #
coedge $-1 $411 $410 $403 $494 forward $276 $-1 #
coedge $-1 $403 $278 $280 $407 reversed $172 $-1 #
coedge $-1 $278 $402 $401 $494 reversed $172 $-1 #
coedge $-1 $286 $281 $278 $405 forward $287 $-1 #
edge $-1 $408 -16.076504899033431 $495 -11.494043745048323 $404 $496 forward 7 unknown #
coedge $-1 $280 $279 $411 $497 reversed $107 $-1 #
edge $-1 $498 1.0692042983031357e-014 $408 6.7191674964074384 $402 $499 forward 7 unknown #
vertex $-1 $282 $500 #
straight-curve $-1 -45.099230792180251 4.0049466403446079 11.598700847362004 0 1 0 I I #
coedge $-1 $401 $283 $286 $415 reversed $276 $-1 #
coedge $-1 $283 $401 $406 $497 forward $276 $-1 #
vertex $-1 $284 $501 #
straight-curve $-1 -49.681691946165351 2.7752265678302805 37.225138377867765 0 0 1 I I #
straight-curve $-1 -49.681691946165358 2.7752265678302805 6.684612771533935 -0.68199835119979291 0 -0.73135370988377701 I I #
edge $-1 $495 -13.244559993548151 $288 -2.7752265678302805 $410 $502 forward 7 unknown #
point $-1 -49.681691946165351 2.7752265678302805 11.598700847362004 #
point $-1 -45.099230792180244 2.7752265678302805 11.598700847362004 #
edge $-1 $503 1 $503 0 $291 $-1 forward 7 unknown #
vertex $-1 $292 $504 #
ellipse-curve $-1 -46.504978106885602 4.8690932529738511 8.3159303289043187 -0.73135370988377701 0 0.68199835119979291 0.34099917559989645 0 0.36567685494188851 1 I I #
point $-1 -47.049462193572893 4.8690932529738511 9.5073336643898578 #
edge $-1 $505 1 $505 0 $295 $-1 forward 7 unknown #
vertex $-1 $296 $506 #
ellipse-curve $-1 -46.504978106885602 8.0098932806892158 8.3159303289043187 -0.73135370988377701 0 0.68199835119979291 0.34099917559989645 0 0.36567685494188851 1 I I #
point $-1 -47.049462193572893 8.0098932806892158 9.5073336643898578 #
edge $-1 $507 1 $507 0 $299 $-1 forward 7 unknown #
vertex $-1 $300 $508 #
ellipse-curve $-1 -46.504978106885602 11.150693308404573 8.3159303289043187 -0.73135370988377701 0 0.68199835119979291 0.34099917559989645 0 0.36567685494188851 1 I I #
point $-1 -47.049462193572893 11.150693308404573 9.5073336643898578 #
plane-surface $-1 49.681691946165351 0 0 -1 0 0 0 0 1 forward_v I I I I #
coedge $-1 $308 $306 $310 $435 reversed $201 $-1 #
edge $-1 $321 -11.598700847362004 $437 11.598700847362004 $320 $509 forward 7 unknown #
vertex $-1 $435 $510 #
straight-curve $-1 -49.681691946165351 -26.88121136667851 0 0 0 -1 I I #
edge $-1 $433 -26.88121136667851 $437 26.88121136667851 $431 $511 forward 7 unknown #
straight-curve $-1 0 -26.88121136667851 -11.598700847362004 -1 0 0 I I #
vertex $-1 $313 $512 #
straight-curve $-1 0 26.88121136667851 -11.598700847362004 1 0 0 I I #
point $-1 49.681691946165351 26.88121136667851 -11.598700847362004 #
point $-1 49.681691946165351 -26.88121136667851 -11.598700847362004 #
straight-curve $-1 -49.681691946165351 0 11.598700847362004 0 -1 0 I I #
point $-1 -49.681691946165351 26.88121136667851 11.598700847362004 #
point $-1 -49.681691946165351 -26.88121136667851 11.598700847362004 #
straight-curve $-1 49.681691946165351 -26.88121136667851 0 0 0 -1 I I #
straight-curve $-1 49.681691946165351 26.88121136667851 0 0 0 -1 I I #
plane-surface $-1 49.681691946165351 0 0 -1 0 0 0 0 1 forward_v I I I I #
coedge $-1 $334 $333 $344 $458 reversed $134 $-1 #
coedge $-1 $513 $337 $334 $449 forward $331 $-1 #
edge $-1 $450 18.505340184252564 $514 26.88121136667851 $334 $515 forward 7 unknown #
vertex $-1 $449 $516 #
straight-curve $-1 -49.681691946165351 -18.505340184252564 4.617126813797217 0 0 -1 I I #
coedge $-1 $337 $513 $339 $454 forward $331 $-1 #
straight-curve $-1 0 -18.505340184252564 11.598700847362004 -1 0 0 I I #
edge $-1 $461 -26.88121136667851 $340 -18.505340184252564 $339 $517 forward 7 unknown #
point $-1 49.681691946165351 -18.505340184252564 11.598700847362004 #
straight-curve $-1 -49.681691946165351 -11.346637887732768 6.8698064078268644 0 -1 0 I I #
coedge $-1 $344 $343 $513 $518 reversed $220 $-1 #
edge $-1 $514 -11.598700847362004 $345 -6.8698064078268644 $447 $519 forward 7 unknown #
point $-1 -49.681691946165351 -26.88121136667851 6.8698064078268644 #
point $-1 -49.681691946165351 -18.505340184252564 6.8698064078268644 #
vertex $-1 $454 $520 #
straight-curve $-1 49.681691946165351 -26.88121136667851 0 0 0 -1 I I #
plane-surface $-1 0 26.88121136667851 0 0 -1 0 0 0 -1 forward_v I I I I #
coedge $-1 $356 $355 $473 $521 forward $142 $-1 #
edge $-1 $467 18.505340184252567 $476 26.88121136667851 $371 $522 forward 7 unknown #
edge $-1 $523 -26.88121136667851 $362 -18.505340184252567 $359 $524 forward 7 unknown #
vertex $-1 $465 $525 #
straight-curve $-1 0 18.505340184252567 11.598700847362004 1 0 0 I I #
coedge $-1 $360 $359 $366 $474 forward $353 $-1 #
point $-1 -49.681691946165351 18.505340184252567 6.8698064078268644 #
point $-1 -49.681691946165351 18.505340184252567 11.598700847362004 #
straight-curve $-1 -49.681691946165351 11.34663788773277 6.8698064078268644 0 -1 0 I I #
coedge $-1 $367 $366 $464 $521 reversed $368 $-1 #
edge $-1 $523 -11.598700847362004 $369 -6.8698064078268644 $366 $526 forward 7 unknown #
point $-1 -49.681691946165351 26.881211366678514 6.8698064078268644 #
vertex $-1 $465 $527 #
straight-curve $-1 49.681691946165351 26.88121136667851 0 0 0 -1 I I #
straight-curve $-1 49.681691946165351 18.505340184252567 4.617126813797217 0 0 -1 I I #
coedge $-1 $480 $378 $486 $528 reversed $254 $-1 #
coedge $-1 $378 $479 $381 $484 reversed $254 $-1 #
edge $-1 $482 -11.591263876521092 $386 -2.2368887389418521 $385 $529 forward 7 unknown #
vertex $-1 $528 $530 #
straight-curve $-1 -22.988085917587377 -18.505340184252564 68.764434414218712 -0.7313536940579346 0 0.68199836817093118 I I #
edge $-1 $382 38.314656682485499 $488 49.681691946165351 $381 $531 forward 7 unknown #
point $-1 38.314656682485499 -18.505340184252564 11.598700847362004 #
coedge $-1 $385 $384 $479 $528 forward $376 $-1 #
point $-1 49.681691946165351 -9.1509650466733241 0.99876874370740154 #
vertex $-1 $389 $532 #
straight-curve $-1 49.681691946165351 0 11.598700847362004 0 1 0 I I #
vertex $-1 $392 $533 #
point $-1 43.435860337444169 -15.83266157351564 4.2294477267146053 #
vertex $-1 $396 $534 #
point $-1 43.435860337444169 -11.823643657410251 4.2294477267146053 #
edge $-1 $495 25.626437530505761 $498 30.540525606333823 $401 $535 forward 7 unknown #
vertex $-1 $415 $536 #
straight-curve $-1 -61.175735691213674 13.244559993548151 11.598700847362004 -1 0 0 I I #
edge $-1 $498 -9.2396133532035432 $412 1.2297200725143274 $411 $537 forward 7 unknown #
vertex $-1 $497 $538 #
straight-curve $-1 -49.681691946165358 13.244559993548151 6.684612771533935 0.68199835119979291 0 0.73135370988377701 I I #
point $-1 -45.099230792180244 13.244559993548151 11.598700847362004 #
point $-1 -49.681691946165351 2.7752265678302805 6.684612771533943 #
straight-curve $-1 -49.681691946165351 0 11.598700847362004 0 -1 0 I I #
vertex $-1 $418 $539 #
point $-1 -46.163978931285712 4.8690932529738511 8.6816071838462072 #
vertex $-1 $422 $540 #
point $-1 -46.163978931285712 8.0098932806892158 8.6816071838462072 #
vertex $-1 $426 $541 #
point $-1 -46.163978931285712 11.150693308404573 8.6816071838462072 #
straight-curve $-1 -49.681691946165351 26.88121136667851 0 0 0 -1 I I #
point $-1 -49.681691946165351 -26.88121136667851 -11.598700847362004 #
straight-curve $-1 -49.681691946165351 0 -11.598700847362004 0 1 0 I I #
point $-1 -49.681691946165351 26.88121136667851 -11.598700847362004 #
coedge $-1 $452 $448 $457 $518 forward $331 $-1 #
vertex $-1 $449 $542 #
straight-curve $-1 -49.681691946165351 0 11.598700847362004 0 -1 0 I I #
point $-1 -49.681691946165351 -18.505340184252564 11.598700847362004 #
straight-curve $-1 49.681691946165351 0 11.598700847362004 0 1 0 I I #
edge $-1 $514 -49.681691946165351 $461 49.681691946165351 $457 $543 forward 7 unknown #
straight-curve $-1 -49.681691946165351 -26.88121136667851 0 0 0 -1 I I #
point $-1 49.681691946165351 -26.88121136667851 11.598700847362004 #
edge $-1 $476 -49.681691946165351 $523 49.681691946165351 $473 $544 forward 7 unknown #
straight-curve $-1 49.681691946165351 0 11.598700847362004 0 1 0 I I #
vertex $-1 $521 $545 #
straight-curve $-1 -49.681691946165351 0 11.598700847362004 0 -1 0 I I #
point $-1 49.681691946165351 18.505340184252567 11.598700847362004 #
straight-curve $-1 -49.681691946165351 26.88121136667851 0 0 0 -1 I I #
point $-1 49.681691946165351 26.88121136667851 11.598700847362004 #
edge $-1 $488 59.118405291623723 $482 69.718337395278326 $486 $546 forward 7 unknown #
straight-curve $-1 49.681691946165351 -6.914076307731472 0.99876874370739444 0 1 0 I I #
point $-1 49.681691946165351 -18.505340184252564 0.99876874370740154 #
straight-curve $-1 0 -18.505340184252564 11.598700847362004 1 0 0 I I #
point $-1 49.681691946165351 -18.505340184252564 11.598700847362004 #
point $-1 42.022508275215301 -15.83266157351564 4.1800924008276006 #
point $-1 42.022508275215301 -11.823643657410251 4.1800924008276006 #
straight-curve $-1 -49.681691946165351 13.244559993548151 37.225138377867765 0 0 -1 I I #
point $-1 -49.681691946165351 13.244559993548151 11.598700847362004 #
straight-curve $-1 -49.681691946165351 4.0049466403446079 6.6846127715339492 0 -1 0 I I #
point $-1 -49.681691946165351 13.244559993548151 6.684612771533943 #
point $-1 -46.139301251943721 4.8690932529738511 7.9749311533044214 #
point $-1 -46.139301251943721 8.0098932806892158 7.9749311533044214 #
point $-1 -46.139301251943721 11.150693308404573 7.9749311533044214 #
point $-1 -49.681691946165351 -26.88121136667851 11.598700847362004 #
straight-curve $-1 0 -26.88121136667851 11.598700847362004 1 0 0 I I #
straight-curve $-1 0 26.88121136667851 11.598700847362004 -1 0 0 I I #
point $-1 -49.681691946165351 26.88121136667851 11.598700847362004 #
straight-curve $-1 49.681691946165351 -18.505340184252564 70.717106138985727 0 0 -1 I I #
End-of-ACIS-data 