500 0 6 0           
7 Unknown 11 ACIS 5.0 NT 24 Thu Mar 25 15:31:10 1999 
-1 9.9999999999999995e-007 1e-010 
body $-1 $6 $-1 $7 #
body $-1 $8 $-1 $9 #
body $-1 $10 $-1 $11 #
body $-1 $12 $-1 $13 #
body $-1 $14 $-1 $15 #
body $-1 $16 $-1 $17 #
lump $-1 $-1 $18 $0 #
transform $-1 1 0 0 0 1 0 0 0 1 49.952696310312206 26.58056039086097 11.472383047814914 1 rotate no_reflect no_shear #
lump $-1 $-1 $19 $1 #
transform $-1 1 0 0 0 1 0 0 0 1 49.952696310312206 26.58056039086097 11.472383047814914 1 rotate no_reflect no_shear #
lump $-1 $-1 $20 $2 #
transform $-1 1 0 0 0 1 0 0 0 1 49.952696310312206 26.58056039086097 11.472383047814914 1 rotate no_reflect no_shear #
lump $-1 $-1 $21 $3 #
transform $-1 1 0 0 0 1 0 0 0 1 49.952696310312206 26.58056039086097 11.472383047814914 1 rotate no_reflect no_shear #
lump $-1 $-1 $22 $4 #
transform $-1 1 0 0 0 1 0 0 0 1 49.952696310312206 26.58056039086097 11.472383047814914 1 rotate no_reflect no_shear #
lump $-1 $-1 $23 $5 #
transform $-1 1 0 0 0 1 0 0 0 1 49.952696310312206 26.58056039086097 11.472383047814914 1 rotate no_reflect no_shear #
shell $-1 $-1 $-1 $24 $-1 $6 #
shell $-1 $-1 $-1 $25 $-1 $8 #
shell $-1 $-1 $-1 $26 $-1 $10 #
shell $-1 $-1 $-1 $27 $-1 $12 #
shell $-1 $-1 $-1 $28 $-1 $14 #
shell $-1 $-1 $-1 $29 $-1 $16 #
face $-1 $30 $31 $18 $-1 $32 forward single #
face $-1 $33 $34 $19 $-1 $35 forward single #
face $-1 $36 $37 $20 $-1 $38 reversed single #
face $-1 $39 $40 $21 $-1 $41 forward single #
face $-1 $42 $43 $22 $-1 $44 reversed single #
face $-1 $45 $46 $23 $-1 $47 forward single #
face $-1 $48 $49 $18 $-1 $50 reversed single #
loop $-1 $-1 $51 $24 #
plane-surface $-1 0 0 11.472383047814914 0 0 1 1 0 0 forward_v I I I I #
face $-1 $52 $53 $19 $-1 $54 reversed single #
loop $-1 $-1 $55 $25 #
plane-surface $-1 0 -26.58056039086097 0 0 1 0 0 0 1 forward_v I I I I #
face $-1 $56 $57 $20 $-1 $58 reversed single #
loop $-1 $-1 $59 $26 #
plane-surface $-1 59.80842014407591 -0.28806624067066267 141.74468306850645 0 -1 0 -0.75470958851134928 0 -0.65605901945558964 forward_v I I I I #
face $-1 $60 $61 $21 $-1 $62 forward single #
loop $-1 $63 $64 $27 #
cone-surface $-1 43.878332632199275 -4.4710008243005994 4.8883288955434798 -0.75470958851134928 0 -0.65605901945558964 0.65605901945558964 0 -0.75470958851134928 1 I I 0 1 1 forward I I I I #
face $-1 $65 $66 $22 $-1 $67 reversed single #
loop $-1 $-1 $68 $28 #
plane-surface $-1 -118.08801104905424 -14.250404274893226 77.690604073556457 0 1 0 -0.68199836817093118 0 0.7313536940579346 forward_v I I I I #
face $-1 $69 $70 $23 $-1 $71 forward single #
loop $-1 $72 $73 $29 #
cone-surface $-1 -44.322330116955186 -9.5032275363791037 5.9480644474843825 0.68199836817093118 0 -0.7313536940579346 1.4627073881158692 0 1.3639967363418624 1 I I 0 1 2 forward I I I I #
face $-1 $74 $75 $18 $-1 $76 reversed single #
loop $-1 $-1 $77 $30 #
plane-surface $-1 0 0 -11.472383047814914 0 0 1 1 0 0 forward_v I I I I #
coedge $-1 $78 $79 $80 $81 forward $31 $-1 #
face $-1 $82 $83 $19 $-1 $84 reversed single #
loop $-1 $-1 $85 $33 #
plane-surface $-1 0 0 -11.472383047814914 0 0 1 1 0 0 forward_v I I I I #
coedge $-1 $86 $87 $88 $89 forward $34 $-1 #
face $-1 $90 $91 $20 $-1 $92 reversed single #
loop $-1 $-1 $93 $36 #
plane-surface $-1 -15.591137610700329 -4.4710008243005994 76.200849147493898 0.75470958851134928 0 0.65605901945558964 0.65605901945558964 0 -0.75470958851134928 forward_v I I I I #
coedge $-1 $94 $95 $96 $97 reversed $37 $-1 #
face $-1 $-1 $98 $21 $-1 $99 forward single #
loop $-1 $100 $101 $39 #
cone-surface $-1 42.064733268382696 -4.4710008243005994 3.3117910610928778 -0.75470958851134928 0 -0.65605901945558964 0.32802950972779482 0 -0.37735479425567464 1 I I -0.70710678118654746 0.70710678118654746 0.5 forward I I I I #
loop $-1 $-1 $102 $27 #
coedge $-1 $64 $64 $103 $104 reversed $40 $-1 #
face $-1 $105 $106 $22 $-1 $107 reversed single #
loop $-1 $-1 $108 $42 #
plane-surface $-1 -49.952696310312206 -9.5032275363791037 4.6244261241544677 -0.68199836817093118 0 0.7313536940579346 0.7313536940579346 0 0.68199836817093118 forward_v I I I I #
coedge $-1 $109 $110 $111 $112 reversed $43 $-1 #
face $-1 $-1 $113 $23 $-1 $114 forward single #
loop $-1 $115 $116 $45 #
cone-surface $-1 -41.681732840076684 -9.5032275363791037 3.1163706149261348 0.68199836817093118 0 -0.7313536940579346 0.7313536940579346 0 0.68199836817093118 1 I I -0.70710678118654746 0.70710678118654746 1 forward I I I I #
loop $-1 $-1 $117 $29 #
coedge $-1 $73 $73 $118 $119 reversed $46 $-1 #
face $-1 $120 $121 $18 $-1 $122 reversed single #
loop $-1 $-1 $123 $48 #
plane-surface $-1 0 -26.58056039086097 0 0 1 0 0 0 1 forward_v I I I I #
coedge $-1 $124 $125 $126 $127 forward $49 $-1 #
coedge $-1 $128 $51 $129 $130 forward $31 $-1 #
coedge $-1 $51 $128 $131 $132 forward $31 $-1 #
coedge $-1 $133 $134 $51 $81 reversed $135 $-1 #
edge $-1 $136 -26.58056039086097 $137 26.58056039086097 $80 $138 forward 7 unknown #
face $-1 $139 $140 $19 $-1 $141 forward single #
loop $-1 $-1 $142 $52 #
plane-surface $-1 49.952696310312206 0 0 -1 0 0 0 0 1 forward_v I I I I #
coedge $-1 $143 $144 $145 $146 forward $53 $-1 #
coedge $-1 $145 $55 $142 $147 reversed $34 $-1 #
coedge $-1 $55 $145 $148 $149 reversed $34 $-1 #
coedge $-1 $150 $151 $55 $89 reversed $140 $-1 #
edge $-1 $152 -49.952696310312206 $153 49.952696310312206 $88 $154 forward 7 unknown #
face $-1 $155 $156 $20 $-1 $157 reversed single #
loop $-1 $-1 $158 $56 #
plane-surface $-1 59.80842014407591 -8.6539354079305362 141.74468306850645 0 1 0 0.75470958851134928 0 0.65605901945558964 forward_v I I I I #
coedge $-1 $159 $160 $161 $162 reversed $57 $-1 #
coedge $-1 $95 $59 $163 $164 reversed $37 $-1 #
coedge $-1 $59 $94 $159 $165 reversed $37 $-1 #
coedge $-1 $161 $166 $59 $97 forward $167 $-1 #
edge $-1 $168 -20.048486238274251 $169 -10.772248021170242 $96 $170 forward 7 unknown #
loop $-1 $-1 $103 $60 #
plane-surface $-1 -15.591137610700329 -4.4710008243005994 76.200849147493898 0.75470958851134928 0 0.65605901945558964 0.65605901945558964 0 -0.75470958851134928 forward_v I I I I #
loop $-1 $-1 $171 $39 #
coedge $-1 $101 $101 $102 $172 reversed $61 $-1 #
coedge $-1 $102 $102 $101 $172 forward $63 $-1 #
coedge $-1 $103 $103 $64 $104 forward $98 $-1 #
edge $-1 $173 0 $173 6.2831853071796004 $103 $174 forward 7 unknown #
face $-1 $175 $176 $22 $-1 $177 forward single #
loop $-1 $-1 $178 $65 #
plane-surface $-1 -118.08801104905424 -4.7560507978649813 77.690604073556457 0 -1 0 0.68199836817093118 0 -0.7313536940579346 forward_v I I I I #
coedge $-1 $179 $180 $181 $182 reversed $66 $-1 #
coedge $-1 $110 $68 $183 $184 reversed $43 $-1 #
coedge $-1 $68 $109 $179 $185 reversed $43 $-1 #
coedge $-1 $181 $186 $68 $112 forward $176 $-1 #
edge $-1 $187 9.0913092142149168 $188 16.434843783513827 $111 $189 forward 7 unknown #
loop $-1 $-1 $118 $69 #
plane-surface $-1 -49.952696310312206 -9.5032275363791037 4.6244261241544677 -0.68199836817093118 0 0.7313536940579346 0.7313536940579346 0 0.68199836817093118 forward_v I I I I #
loop $-1 $-1 $190 $45 #
coedge $-1 $116 $116 $117 $191 reversed $70 $-1 #
coedge $-1 $117 $117 $116 $191 forward $72 $-1 #
coedge $-1 $118 $118 $73 $119 forward $113 $-1 #
edge $-1 $192 0 $192 6.2831853071796004 $118 $193 forward 7 unknown #
face $-1 $194 $195 $18 $-1 $196 reversed single #
loop $-1 $-1 $197 $74 #
plane-surface $-1 -49.952696310312206 0 0 1 0 0 0 0 -1 forward_v I I I I #
coedge $-1 $198 $131 $199 $200 forward $75 $-1 #
coedge $-1 $201 $77 $198 $202 forward $49 $-1 #
coedge $-1 $77 $201 $203 $204 forward $49 $-1 #
coedge $-1 $134 $133 $77 $127 reversed $135 $-1 #
edge $-1 $205 -26.58056039086097 $206 26.58056039086097 $126 $207 forward 7 unknown #
coedge $-1 $79 $78 $208 $209 forward $31 $-1 #
coedge $-1 $210 $211 $78 $130 reversed $195 $-1 #
edge $-1 $137 -49.952696310312206 $212 49.952696310312206 $129 $213 forward 7 unknown #
coedge $-1 $123 $214 $79 $132 reversed $75 $-1 #
edge $-1 $215 -49.952696310312206 $136 49.952696310312206 $131 $216 forward 7 unknown #
coedge $-1 $126 $80 $214 $217 forward $135 $-1 #
coedge $-1 $80 $126 $210 $218 reversed $135 $-1 #
loop $-1 $-1 $133 $194 #
vertex $-1 $81 $219 #
vertex $-1 $81 $220 #
straight-curve $-1 49.952696310312206 0 11.472383047814914 0 1 0 I I #
face $-1 $221 $222 $19 $-1 $223 reversed single #
loop $-1 $-1 $151 $82 #
plane-surface $-1 0 -32.745638448844844 -5.6219473578714467 0 0 1 1 0 0 forward_v I I I I #
coedge $-1 $224 $225 $86 $147 forward $83 $-1 #
coedge $-1 $226 $85 $225 $227 forward $53 $-1 #
coedge $-1 $85 $226 $228 $229 forward $53 $-1 #
coedge $-1 $87 $86 $85 $146 reversed $34 $-1 #
edge $-1 $230 -49.952696310312206 $231 49.952696310312206 $85 $232 forward 7 unknown #
edge $-1 $231 -11.472383047814914 $153 -5.6219473578714467 $142 $233 forward 7 unknown #
coedge $-1 $228 $234 $87 $149 forward $235 $-1 #
edge $-1 $152 5.6219473578714467 $230 11.472383047814914 $148 $236 forward 7 unknown #
coedge $-1 $237 $88 $234 $238 forward $140 $-1 #
coedge $-1 $88 $237 $224 $239 forward $140 $-1 #
vertex $-1 $149 $240 #
vertex $-1 $239 $241 #
straight-curve $-1 0 -26.58056039086097 -5.6219473578714467 1 0 0 I I #
face $-1 $-1 $167 $20 $-1 $242 forward single #
loop $-1 $-1 $243 $90 #
plane-surface $-1 49.952696310312206 0 0 -1 0 0 0 0 1 forward_v I I I I #
coedge $-1 $244 $245 $246 $247 reversed $91 $-1 #
coedge $-1 $248 $93 $95 $165 forward $57 $-1 #
coedge $-1 $93 $248 $244 $249 forward $57 $-1 #
coedge $-1 $246 $96 $93 $162 forward $167 $-1 #
edge $-1 $169 -1.947434171479637 $250 6.4184349957802365 $161 $251 forward 7 unknown #
coedge $-1 $252 $253 $94 $164 forward $156 $-1 #
edge $-1 $254 -70.071050141535551 $168 -59.399958486438308 $163 $255 forward 7 unknown #
edge $-1 $169 85.766057679689354 $254 99.905392620624397 $95 $256 forward 7 unknown #
coedge $-1 $96 $246 $252 $257 forward $167 $-1 #
loop $-1 $-1 $246 $155 #
vertex $-1 $164 $258 #
vertex $-1 $97 $259 #
straight-curve $-1 29.904210072037955 -0.28806624067066267 11.472383047814915 -1 0 0 I I #
coedge $-1 $171 $171 $-1 $260 reversed $100 $-1 #
edge $-1 $261 0 $261 6.2831853071796004 $101 $262 forward 7 unknown #
vertex $-1 $104 $263 #
ellipse-curve $-1 45.314577201760194 -4.4710008243005994 6.1368372202662975 0.75470958851134928 0 0.65605901945558964 0.65605901945558964 0 -0.75470958851134928 1 I I #
face $-1 $-1 $264 $22 $-1 $265 reversed single #
loop $-1 $-1 $111 $105 #
plane-surface $-1 0 0 11.472383047814914 0 0 1 1 0 0 forward_v I I I I #
coedge $-1 $266 $267 $268 $269 reversed $106 $-1 #
coedge $-1 $270 $108 $110 $185 forward $66 $-1 #
coedge $-1 $108 $270 $266 $271 forward $66 $-1 #
coedge $-1 $268 $111 $108 $182 forward $176 $-1 #
edge $-1 $188 -9.4987905067036742 $272 -0.0044370296754294714 $181 $273 forward 7 unknown #
coedge $-1 $274 $275 $109 $184 forward $264 $-1 #
edge $-1 $276 -34.220875912623761 $187 -27.372918988963313 $183 $277 forward 7 unknown #
edge $-1 $188 -10.041016581940156 $276 0 $110 $278 forward 7 unknown #
coedge $-1 $111 $268 $274 $279 forward $176 $-1 #
vertex $-1 $184 $280 #
vertex $-1 $112 $281 #
straight-curve $-1 -59.044005524527122 -14.250404274893226 11.472383047814915 1 0 0 I I #
coedge $-1 $190 $190 $-1 $282 reversed $115 $-1 #
edge $-1 $283 0 $283 6.2831853071796004 $116 $284 forward 7 unknown #
vertex $-1 $119 $285 #
ellipse-curve $-1 -46.280929025662751 -9.5032275363791037 8.0484045859846916 -0.68199836817093118 0 0.7313536940579346 1.4627073881158692 0 1.3639967363418624 1 I I #
face $-1 $-1 $135 $18 $-1 $286 reversed single #
loop $-1 $-1 $210 $120 #
plane-surface $-1 0 26.58056039086097 0 0 -1 0 0 0 -1 forward_v I I I I #
coedge $-1 $287 $208 $211 $288 forward $121 $-1 #
coedge $-1 $214 $123 $124 $202 reversed $75 $-1 #
coedge $-1 $208 $287 $123 $200 reversed $121 $-1 #
edge $-1 $215 -11.472383047814914 $289 11.472383047814914 $199 $290 forward 7 unknown #
coedge $-1 $125 $124 $287 $291 forward $49 $-1 #
edge $-1 $206 -49.952696310312206 $289 49.952696310312206 $198 $292 forward 7 unknown #
coedge $-1 $211 $210 $125 $204 reversed $195 $-1 #
edge $-1 $293 -49.952696310312206 $205 49.952696310312206 $203 $294 forward 7 unknown #
vertex $-1 $127 $295 #
vertex $-1 $217 $296 #
straight-curve $-1 49.952696310312206 0 -11.472383047814914 0 -1 0 I I #
coedge $-1 $197 $199 $128 $209 reversed $121 $-1 #
edge $-1 $212 -26.58056039086097 $215 26.58056039086097 $208 $297 forward 7 unknown #
coedge $-1 $203 $129 $134 $218 forward $195 $-1 #
coedge $-1 $129 $203 $197 $288 reversed $195 $-1 #
vertex $-1 $130 $298 #
straight-curve $-1 0 26.58056039086097 11.472383047814914 -1 0 0 I I #
coedge $-1 $131 $198 $133 $217 reversed $75 $-1 #
vertex $-1 $209 $299 #
straight-curve $-1 0 -26.58056039086097 11.472383047814914 1 0 0 I I #
edge $-1 $136 -11.472383047814914 $206 11.472383047814914 $133 $300 forward 7 unknown #
edge $-1 $137 -11.472383047814914 $205 11.472383047814914 $134 $301 forward 7 unknown #
point $-1 49.952696310312206 -26.58056039086097 11.472383047814914 #
point $-1 49.952696310312206 26.58056039086097 11.472383047814914 #
face $-1 $-1 $235 $19 $-1 $302 reversed single #
loop $-1 $-1 $303 $139 #
plane-surface $-1 0 -38.910716506828713 -8.5471652028431802 0 1 0 0 0 1 forward_v I I I I #
coedge $-1 $304 $142 $151 $239 reversed $83 $-1 #
coedge $-1 $142 $304 $143 $227 reversed $83 $-1 #
coedge $-1 $144 $143 $305 $306 forward $53 $-1 #
edge $-1 $231 26.58056039086097 $307 38.910716506828713 $225 $308 forward 7 unknown #
coedge $-1 $309 $148 $144 $229 reversed $235 $-1 #
edge $-1 $310 -38.910716506828713 $230 -26.58056039086097 $228 $311 forward 7 unknown #
vertex $-1 $149 $312 #
vertex $-1 $227 $313 #
straight-curve $-1 0 -26.58056039086097 -11.472383047814914 1 0 0 I I #
straight-curve $-1 49.952696310312206 -26.58056039086097 0 0 0 1 I I #
coedge $-1 $148 $309 $150 $238 reversed $235 $-1 #
loop $-1 $-1 $148 $221 #
straight-curve $-1 -49.952696310312206 -26.58056039086097 0 0 0 -1 I I #
coedge $-1 $151 $150 $314 $315 forward $140 $-1 #
edge $-1 $152 -6.1650780579838695 $316 6.1650780579838695 $234 $317 forward 7 unknown #
edge $-1 $318 -6.1650780579838695 $153 6.1650780579838695 $224 $319 forward 7 unknown #
point $-1 -49.952696310312206 -26.580560390860974 -5.6219473578714467 #
point $-1 49.952696310312206 -26.580560390860974 -5.6219473578714467 #
plane-surface $-1 0 0 11.472383047814914 0 0 1 1 0 0 forward_v I I I I #
coedge $-1 $253 $252 $245 $320 forward $156 $-1 #
coedge $-1 $245 $158 $160 $249 reversed $91 $-1 #
coedge $-1 $158 $244 $243 $320 reversed $91 $-1 #
coedge $-1 $166 $161 $158 $247 forward $167 $-1 #
edge $-1 $250 10.772248021170242 $321 20.048486238274251 $246 $322 forward 7 unknown #
coedge $-1 $160 $159 $253 $323 reversed $57 $-1 #
edge $-1 $324 -99.905392620624397 $250 -85.766057679689354 $244 $325 forward 7 unknown #
vertex $-1 $162 $326 #
straight-curve $-1 40.676458093208197 -2.2355004121502997 11.472383047814908 0 -1 0 I I #
coedge $-1 $243 $163 $166 $257 reversed $156 $-1 #
coedge $-1 $163 $243 $248 $323 forward $156 $-1 #
vertex $-1 $164 $327 #
straight-curve $-1 49.952696310312206 -0.28806624067066267 70.872341534253223 0 0 1 I I #
straight-curve $-1 -15.591137610700329 -0.28806624067066267 76.200849147493898 0.65605901945558964 0 -0.75470958851134928 I I #
edge $-1 $321 -8.6539354079305362 $168 -0.28806624067066267 $252 $328 forward 7 unknown #
point $-1 49.952696310312206 -0.28806624067066267 11.472383047814914 #
point $-1 40.676458093208197 -0.28806624067066267 11.472383047814915 #
edge $-1 $329 1 $329 0 $171 $-1 forward 7 unknown #
vertex $-1 $172 $330 #
ellipse-curve $-1 42.442088062638369 -4.4710008243005994 3.6398205708206728 0.75470958851134928 0 0.65605901945558964 0.65605901945558964 0 -0.75470958851134928 1 I I #
point $-1 45.97063622121577 -4.4710008243005994 5.3821276317549369 #
loop $-1 $-1 $183 $175 #
plane-surface $-1 -49.952696310312206 0 0 1 0 0 0 0 -1 forward_v I I I I #
coedge $-1 $267 $178 $180 $271 reversed $106 $-1 #
coedge $-1 $178 $266 $331 $332 reversed $106 $-1 #
coedge $-1 $186 $181 $178 $269 forward $176 $-1 #
edge $-1 $272 -16.434843783513827 $333 -9.0913092142149168 $268 $334 forward 7 unknown #
coedge $-1 $180 $179 $275 $335 reversed $66 $-1 #
edge $-1 $336 0 $272 10.041016581940156 $266 $337 forward 7 unknown #
vertex $-1 $182 $338 #
straight-curve $-1 -42.609161741013303 -4.7516137681895518 11.472383047814912 0 1 0 I I #
coedge $-1 $331 $183 $186 $279 reversed $264 $-1 #
coedge $-1 $183 $331 $270 $335 forward $264 $-1 #
vertex $-1 $184 $339 #
straight-curve $-1 -49.952696310312206 -14.250404274893226 38.845302036778229 0 0 1 I I #
straight-curve $-1 -49.952696310312206 -14.250404274893226 4.6244261241544677 -0.7313536940579346 0 -0.68199836817093118 I I #
edge $-1 $333 4.7560507978649813 $187 14.250404274893226 $274 $340 forward 7 unknown #
point $-1 -49.952696310312206 -14.250404274893226 11.472383047814914 #
point $-1 -42.609161741013295 -14.250404274893226 11.472383047814914 #
edge $-1 $341 1 $341 0 $190 $-1 forward 7 unknown #
vertex $-1 $191 $342 #
ellipse-curve $-1 -42.363731208247614 -9.5032275363791037 3.8477243089840694 -0.68199836817093118 0 0.7313536940579346 1.4627073881158692 0 1.3639967363418624 1 I I #
point $-1 -44.818221637546884 -9.5032275363791037 9.4124013223265592 #
plane-surface $-1 49.952696310312206 0 0 -1 0 0 0 0 1 forward_v I I I I #
coedge $-1 $199 $197 $201 $291 reversed $121 $-1 #
edge $-1 $212 -11.472383047814914 $293 11.472383047814914 $211 $343 forward 7 unknown #
vertex $-1 $291 $344 #
straight-curve $-1 -49.952696310312206 -26.58056039086097 0 0 0 -1 I I #
edge $-1 $289 -26.58056039086097 $293 26.58056039086097 $287 $345 forward 7 unknown #
straight-curve $-1 0 -26.58056039086097 -11.472383047814914 -1 0 0 I I #
vertex $-1 $204 $346 #
straight-curve $-1 0 26.58056039086097 -11.472383047814914 1 0 0 I I #
point $-1 49.952696310312206 26.58056039086097 -11.472383047814914 #
point $-1 49.952696310312206 -26.58056039086097 -11.472383047814914 #
straight-curve $-1 -49.952696310312206 0 11.472383047814914 0 -1 0 I I #
point $-1 -49.952696310312206 26.58056039086097 11.472383047814914 #
point $-1 -49.952696310312206 -26.58056039086097 11.472383047814914 #
straight-curve $-1 49.952696310312206 -26.58056039086097 0 0 0 -1 I I #
straight-curve $-1 49.952696310312206 26.58056039086097 0 0 0 -1 I I #
plane-surface $-1 -49.952696310312206 0 0 1 0 0 0 0 -1 forward_v I I I I #
coedge $-1 $305 $314 $309 $347 forward $222 $-1 #
coedge $-1 $225 $224 $348 $349 forward $83 $-1 #
coedge $-1 $348 $303 $226 $306 reversed $222 $-1 #
edge $-1 $307 -49.952696310312206 $310 49.952696310312206 $305 $350 forward 7 unknown #
vertex $-1 $349 $351 #
straight-curve $-1 49.952696310312206 0 -11.472383047814914 0 -1 0 I I #
coedge $-1 $234 $228 $303 $347 reversed $235 $-1 #
vertex $-1 $229 $352 #
straight-curve $-1 -49.952696310312206 0 -11.472383047814914 0 1 0 I I #
point $-1 -49.952696310312206 -26.58056039086097 -11.472383047814914 #
point $-1 49.952696310312206 -26.58056039086097 -11.472383047814914 #
coedge $-1 $303 $348 $237 $315 reversed $222 $-1 #
edge $-1 $316 -49.952696310312206 $318 49.952696310312206 $314 $353 forward 7 unknown #
vertex $-1 $238 $354 #
straight-curve $-1 -49.952696310312206 -32.745638448844844 -5.6219473578714467 0 -1 0 I I #
vertex $-1 $239 $355 #
straight-curve $-1 49.952696310312206 -32.745638448844844 -5.6219473578714467 0 1 0 I I #
edge $-1 $321 59.399958486438308 $324 70.071050141535551 $243 $356 forward 7 unknown #
vertex $-1 $257 $357 #
straight-curve $-1 29.904210072037955 -8.6539354079305362 11.472383047814915 1 0 0 I I #
edge $-1 $324 -6.4184349957802365 $254 1.947434171479637 $253 $358 forward 7 unknown #
vertex $-1 $323 $359 #
straight-curve $-1 -15.591137610700329 -8.6539354079305362 76.200849147493898 -0.65605901945558964 0 0.75470958851134928 I I #
point $-1 40.676458093208197 -8.6539354079305362 11.472383047814915 #
point $-1 49.952696310312206 -0.28806624067066267 0.80129139271767258 #
straight-curve $-1 49.952696310312206 0 11.472383047814914 0 1 0 I I #
vertex $-1 $260 $360 #
point $-1 43.098147082093959 -4.4710008243005994 2.8851109823093233 #
coedge $-1 $275 $274 $267 $332 forward $264 $-1 #
edge $-1 $333 27.372918988963313 $336 34.220875912623761 $331 $361 forward 7 unknown #
vertex $-1 $279 $362 #
straight-curve $-1 -59.044005524527122 -4.7560507978649813 11.472383047814915 -1 0 0 I I #
edge $-1 $336 0.0044370296754294714 $276 9.4987905067036742 $275 $363 forward 7 unknown #
vertex $-1 $335 $364 #
straight-curve $-1 -49.952696310312206 -4.7560507978649813 4.6244261241544677 0.7313536940579346 0 0.68199836817093118 I I #
point $-1 -42.609161741013295 -4.7560507978649813 11.472383047814914 #
point $-1 -49.952696310312206 -14.250404274893226 4.6244261241544677 #
straight-curve $-1 -49.952696310312206 0 11.472383047814914 0 -1 0 I I #
vertex $-1 $282 $365 #
point $-1 -40.901023820131748 -9.5032275363791037 5.2117210453259322 #
straight-curve $-1 -49.952696310312206 26.58056039086097 0 0 0 -1 I I #
point $-1 -49.952696310312206 -26.58056039086097 -11.472383047814914 #
straight-curve $-1 -49.952696310312206 0 -11.472383047814914 0 1 0 I I #
point $-1 -49.952696310312206 26.58056039086097 -11.472383047814914 #
edge $-1 $316 -2.9252178449717334 $310 2.9252178449717334 $309 $366 forward 7 unknown #
coedge $-1 $314 $305 $304 $349 reversed $222 $-1 #
edge $-1 $318 -2.9252178449717334 $307 2.9252178449717334 $304 $367 forward 7 unknown #
straight-curve $-1 0 -38.910716506828713 -11.472383047814914 -1 0 0 I I #
point $-1 49.952696310312206 -38.910716506828713 -11.472383047814914 #
point $-1 -49.952696310312206 -38.910716506828713 -11.472383047814914 #
straight-curve $-1 0 -38.910716506828713 -5.6219473578714467 1 0 0 I I #
point $-1 -49.952696310312206 -38.910716506828713 -5.6219473578714467 #
point $-1 49.952696310312206 -38.910716506828713 -5.6219473578714467 #
straight-curve $-1 49.952696310312206 -8.6539354079305362 70.872341534253223 0 0 -1 I I #
point $-1 49.952696310312206 -8.6539354079305362 11.472383047814914 #
straight-curve $-1 49.952696310312206 -2.2355004121502997 0.80129139271767968 0 1 0 I I #
point $-1 49.952696310312206 -8.6539354079305362 0.80129139271767258 #
point $-1 41.687378474127023 -4.4710008243005994 2.9837615513650828 #
straight-curve $-1 -49.952696310312206 -4.7560507978649813 38.845302036778229 0 0 -1 I I #
point $-1 -49.952696310312206 -4.7560507978649813 11.472383047814914 #
straight-curve $-1 -49.952696310312206 -4.7516137681895518 4.6244261241544695 0 -1 0 I I #
point $-1 -49.952696310312206 -4.7560507978649813 4.6244261241544677 #
point $-1 -40.999734471905754 -9.5032275363791037 2.3850169208682002 #
straight-curve $-1 -49.952696310312206 -38.910716506828713 -8.5471652028431802 0 0 -1 I I #
straight-curve $-1 49.952696310312206 -38.910716506828713 -8.5471652028431802 0 0 -1 I I #
End-of-ACIS-data 