500 0 5 0           
7 Unknown 11 ACIS 5.0 NT 24 Thu Mar 25 15:54:48 1999 
-1 9.9999999999999995e-007 1e-010 
body $-1 $5 $-1 $6 #
body $-1 $7 $-1 $8 #
body $-1 $9 $-1 $10 #
body $-1 $11 $-1 $12 #
body $-1 $13 $-1 $14 #
lump $-1 $-1 $15 $0 #
transform $-1 1 0 0 0 1 0 0 0 1 51.849726859340194 22.817234456036314 6.3284801312266499 1 rotate no_reflect no_shear #
lump $-1 $-1 $16 $1 #
transform $-1 1 0 0 0 1 0 0 0 1 51.849726859340194 22.817234456036314 6.3284801312266499 1 rotate no_reflect no_shear #
lump $-1 $-1 $17 $2 #
transform $-1 1 0 0 0 1 0 0 0 1 51.849726859340194 22.817234456036314 6.3284801312266499 1 rotate no_reflect no_shear #
lump $-1 $-1 $18 $3 #
transform $-1 1 0 0 0 1 0 0 0 1 51.849726859340194 22.817234456036314 6.3284801312266499 1 rotate no_reflect no_shear #
lump $-1 $-1 $19 $4 #
transform $-1 1 0 0 0 1 0 0 0 1 51.849726859340194 22.817234456036314 6.3284801312266499 1 rotate no_reflect no_shear #
shell $-1 $-1 $-1 $20 $-1 $5 #
shell $-1 $-1 $-1 $21 $-1 $7 #
shell $-1 $-1 $-1 $22 $-1 $9 #
shell $-1 $-1 $-1 $23 $-1 $11 #
shell $-1 $-1 $-1 $24 $-1 $13 #
face $-1 $25 $26 $15 $-1 $27 forward single #
face $-1 $28 $29 $16 $-1 $30 forward single #
face $-1 $31 $32 $17 $-1 $33 reversed single #
face $-1 $34 $35 $18 $-1 $36 forward single #
face $-1 $37 $38 $19 $-1 $39 forward single #
face $-1 $40 $41 $15 $-1 $42 reversed single #
loop $-1 $-1 $43 $20 #
plane-surface $-1 0 0 6.3284801312266499 0 0 1 1 0 0 forward_v I I I I #
face $-1 $44 $45 $16 $-1 $46 reversed single #
loop $-1 $-1 $47 $21 #
plane-surface $-1 -48.693324243713903 0 -0.23630989333357655 0 0 1 1 0 0 forward_v I I I I #
face $-1 $48 $49 $17 $-1 $50 reversed single #
loop $-1 $-1 $51 $22 #
plane-surface $-1 44.174494355271122 -11.280010800750237 146.63280055366084 0 -1 0 -0.66913061440640931 0 -0.74314481823134659 forward_v I I I I #
face $-1 $52 $53 $18 $-1 $54 forward single #
loop $-1 $55 $56 $23 #
cone-surface $-1 48.040039986958291 -19.520884840240292 2.8150355428970451 -0.66913061440640931 0 -0.74314481823134659 0.74314481823134659 0 -0.66913061440640931 1 I I 0 1 1 forward I I I I #
face $-1 $57 $58 $19 $-1 $59 forward single #
loop $-1 $60 $61 $24 #
cone-surface $-1 48.040039986958291 -14.57636041654626 2.8150355428970451 -0.66913061440640931 0 -0.74314481823134659 0.74314481823134659 0 -0.66913061440640931 1 I I 0 1 1 forward I I I I #
face $-1 $62 $63 $15 $-1 $64 reversed single #
loop $-1 $-1 $65 $25 #
plane-surface $-1 0 0 -6.3284801312266499 0 0 1 1 0 0 forward_v I I I I #
coedge $-1 $66 $67 $68 $69 forward $26 $-1 #
face $-1 $70 $71 $16 $-1 $72 reversed single #
loop $-1 $-1 $73 $28 #
plane-surface $-1 -48.693324243713903 0 -3.3798264896613208 0 0 1 1 0 0 forward_v I I I I #
coedge $-1 $74 $75 $76 $77 forward $29 $-1 #
face $-1 $78 $79 $17 $-1 $80 reversed single #
loop $-1 $-1 $81 $31 #
plane-surface $-1 -25.213984825118487 -17.048622628393275 69.569088869202162 0.66913061440640931 0 0.74314481823134659 0.74314481823134659 0 -0.66913061440640931 forward_v I I I I #
coedge $-1 $82 $83 $84 $85 reversed $32 $-1 #
face $-1 $-1 $86 $18 $-1 $87 forward single #
loop $-1 $88 $89 $34 #
cone-surface $-1 47.309738659473041 -19.520884840240292 2.0039537666588014 -0.66913061440640931 0 -0.74314481823134659 0.3715724091156733 0 -0.33456530720320465 1 I I -0.70710678118654746 0.70710678118654746 0.5 forward I I I I #
loop $-1 $-1 $90 $23 #
coedge $-1 $56 $56 $91 $92 reversed $35 $-1 #
face $-1 $-1 $93 $19 $-1 $94 forward single #
loop $-1 $95 $96 $37 #
cone-surface $-1 47.309738659473041 -14.57636041654626 2.0039537666588014 -0.66913061440640931 0 -0.74314481823134659 0.3715724091156733 0 -0.33456530720320465 1 I I -0.70710678118654746 0.70710678118654746 0.5 forward I I I I #
loop $-1 $-1 $97 $24 #
coedge $-1 $61 $61 $98 $99 reversed $38 $-1 #
face $-1 $100 $101 $15 $-1 $102 reversed single #
loop $-1 $-1 $103 $40 #
plane-surface $-1 0 -22.817234456036314 0 0 1 0 0 0 1 forward_v I I I I #
coedge $-1 $104 $105 $106 $107 forward $41 $-1 #
coedge $-1 $108 $43 $109 $110 forward $26 $-1 #
coedge $-1 $43 $108 $111 $112 forward $26 $-1 #
coedge $-1 $113 $114 $43 $69 reversed $115 $-1 #
edge $-1 $116 -22.817234456036314 $117 22.817234456036314 $68 $118 forward 7 unknown #
face $-1 $119 $120 $16 $-1 $121 reversed single #
loop $-1 $-1 $122 $44 #
plane-surface $-1 -45.536921628087612 0 -1.8080681914974486 -1 0 0 0 0 1 forward_v I I I I #
coedge $-1 $123 $124 $125 $126 forward $45 $-1 #
coedge $-1 $127 $47 $128 $129 reversed $29 $-1 #
coedge $-1 $47 $127 $130 $131 reversed $29 $-1 #
coedge $-1 $122 $132 $47 $77 reversed $71 $-1 #
edge $-1 $133 -22.817234456036314 $134 22.817234456036314 $76 $135 forward 7 unknown #
face $-1 $136 $137 $17 $-1 $138 forward single #
loop $-1 $-1 $139 $48 #
plane-surface $-1 0 -22.817234456036314 0 0 1 0 0 0 1 forward_v I I I I #
coedge $-1 $140 $141 $142 $143 reversed $49 $-1 #
coedge $-1 $83 $51 $144 $145 reversed $32 $-1 #
coedge $-1 $51 $82 $140 $146 reversed $32 $-1 #
coedge $-1 $142 $147 $51 $85 forward $137 $-1 #
edge $-1 $148 -29.762479681704633 $149 -22.934577977504958 $84 $150 forward 7 unknown #
loop $-1 $-1 $91 $52 #
plane-surface $-1 -25.213984825118487 -17.048622628393275 69.569088869202162 0.66913061440640931 0 0.74314481823134659 0.74314481823134659 0 -0.66913061440640931 forward_v I I I I #
loop $-1 $-1 $151 $34 #
coedge $-1 $89 $89 $90 $152 reversed $53 $-1 #
coedge $-1 $90 $90 $89 $152 forward $55 $-1 #
coedge $-1 $91 $91 $56 $92 forward $86 $-1 #
edge $-1 $153 0 $153 6.2831853071796004 $91 $154 forward 7 unknown #
loop $-1 $-1 $98 $57 #
plane-surface $-1 -25.213984825118487 -17.048622628393275 69.569088869202162 0.66913061440640931 0 0.74314481823134659 0.74314481823134659 0 -0.66913061440640931 forward_v I I I I #
loop $-1 $-1 $155 $37 #
coedge $-1 $96 $96 $97 $156 reversed $58 $-1 #
coedge $-1 $97 $97 $96 $156 forward $60 $-1 #
coedge $-1 $98 $98 $61 $99 forward $93 $-1 #
edge $-1 $157 0 $157 6.2831853071796004 $98 $158 forward 7 unknown #
face $-1 $159 $160 $15 $-1 $161 reversed single #
loop $-1 $-1 $162 $62 #
plane-surface $-1 -51.849726859340194 0 0 1 0 0 0 0 -1 forward_v I I I I #
coedge $-1 $163 $111 $164 $165 forward $63 $-1 #
coedge $-1 $166 $65 $163 $167 forward $41 $-1 #
coedge $-1 $65 $166 $168 $169 forward $41 $-1 #
coedge $-1 $114 $113 $65 $107 reversed $115 $-1 #
edge $-1 $170 -22.817234456036314 $171 22.817234456036314 $106 $172 forward 7 unknown #
coedge $-1 $67 $66 $173 $174 forward $26 $-1 #
coedge $-1 $175 $176 $66 $110 reversed $160 $-1 #
edge $-1 $117 -51.849726859340194 $177 51.849726859340194 $109 $178 forward 7 unknown #
coedge $-1 $103 $179 $67 $112 reversed $63 $-1 #
edge $-1 $180 -51.849726859340194 $116 51.849726859340194 $111 $181 forward 7 unknown #
coedge $-1 $106 $68 $179 $182 forward $115 $-1 #
coedge $-1 $68 $106 $175 $183 reversed $115 $-1 #
loop $-1 $-1 $113 $159 #
vertex $-1 $69 $184 #
vertex $-1 $69 $185 #
straight-curve $-1 51.849726859340194 0 6.3284801312266499 0 1 0 I I #
face $-1 $186 $187 $16 $-1 $188 reversed single #
loop $-1 $-1 $189 $70 #
plane-surface $-1 0 -22.817234456036314 0 0 1 0 0 0 1 forward_v I I I I #
coedge $-1 $125 $76 $190 $191 reversed $71 $-1 #
coedge $-1 $192 $73 $189 $193 reversed $45 $-1 #
coedge $-1 $73 $192 $194 $195 reversed $45 $-1 #
coedge $-1 $132 $122 $73 $126 reversed $71 $-1 #
edge $-1 $196 -22.817234456036314 $197 22.817234456036314 $125 $198 forward 7 unknown #
coedge $-1 $75 $74 $199 $200 reversed $29 $-1 #
coedge $-1 $201 $202 $74 $129 forward $203 $-1 #
edge $-1 $204 -27.503064737483243 $134 -21.19025950623066 $128 $205 forward 7 unknown #
coedge $-1 $206 $190 $75 $131 forward $120 $-1 #
edge $-1 $133 21.19025950623066 $207 27.503064737483243 $130 $208 forward 7 unknown #
coedge $-1 $76 $125 $201 $209 reversed $71 $-1 #
vertex $-1 $131 $210 #
vertex $-1 $129 $211 #
straight-curve $-1 -45.536921628087612 0 -0.23630989333357655 0 1 0 I I #
face $-1 $-1 $212 $17 $-1 $213 reversed single #
loop $-1 $-1 $142 $78 #
plane-surface $-1 0 0 6.3284801312266499 0 0 1 1 0 0 forward_v I I I I #
coedge $-1 $214 $215 $141 $216 forward $79 $-1 #
coedge $-1 $217 $81 $83 $146 forward $49 $-1 #
coedge $-1 $81 $217 $139 $216 reversed $49 $-1 #
coedge $-1 $218 $84 $81 $143 forward $137 $-1 #
edge $-1 $149 2.7556994865535991 $219 14.292923141839676 $142 $220 forward 7 unknown #
coedge $-1 $221 $222 $82 $145 forward $212 $-1 #
edge $-1 $223 -73.135790588017883 $148 -66.987920145603766 $144 $224 forward 7 unknown #
edge $-1 $149 94.511605621387872 $223 103.69945371868039 $83 $225 forward 7 unknown #
coedge $-1 $84 $218 $221 $226 forward $137 $-1 #
vertex $-1 $145 $227 #
vertex $-1 $85 $228 #
straight-curve $-1 22.087247177635561 -11.280010800750237 6.3284801312266552 -1 0 0 I I #
coedge $-1 $151 $151 $-1 $229 reversed $88 $-1 #
edge $-1 $230 0 $230 6.2831853071796004 $89 $231 forward 7 unknown #
vertex $-1 $92 $232 #
ellipse-curve $-1 48.435776007240328 -19.520884840240292 3.2545449100196082 0.66913061440640931 0 0.74314481823134659 0.74314481823134659 0 -0.66913061440640931 1 I I #
coedge $-1 $155 $155 $-1 $233 reversed $95 $-1 #
edge $-1 $234 0 $234 6.2831853071796004 $96 $235 forward 7 unknown #
vertex $-1 $99 $236 #
ellipse-curve $-1 48.435776007240328 -14.57636041654626 3.2545449100196082 0.66913061440640931 0 0.74314481823134659 0.74314481823134659 0 -0.66913061440640931 1 I I #
face $-1 $-1 $115 $15 $-1 $237 reversed single #
loop $-1 $-1 $175 $100 #
plane-surface $-1 0 22.817234456036314 0 0 -1 0 0 0 -1 forward_v I I I I #
coedge $-1 $238 $173 $176 $239 forward $101 $-1 #
coedge $-1 $179 $103 $104 $167 reversed $63 $-1 #
coedge $-1 $173 $238 $103 $165 reversed $101 $-1 #
edge $-1 $180 -6.3284801312266499 $240 6.3284801312266499 $164 $241 forward 7 unknown #
coedge $-1 $105 $104 $238 $242 forward $41 $-1 #
edge $-1 $171 -51.849726859340194 $240 51.849726859340194 $163 $243 forward 7 unknown #
coedge $-1 $176 $175 $105 $169 reversed $160 $-1 #
edge $-1 $244 -51.849726859340194 $170 51.849726859340194 $168 $245 forward 7 unknown #
vertex $-1 $107 $246 #
vertex $-1 $182 $247 #
straight-curve $-1 51.849726859340194 0 -6.3284801312266499 0 -1 0 I I #
coedge $-1 $162 $164 $108 $174 reversed $101 $-1 #
edge $-1 $177 -22.817234456036314 $180 22.817234456036314 $173 $248 forward 7 unknown #
coedge $-1 $168 $109 $114 $183 forward $160 $-1 #
coedge $-1 $109 $168 $162 $239 reversed $160 $-1 #
vertex $-1 $110 $249 #
straight-curve $-1 0 22.817234456036314 6.3284801312266499 -1 0 0 I I #
coedge $-1 $111 $163 $113 $182 reversed $63 $-1 #
vertex $-1 $174 $250 #
straight-curve $-1 0 -22.817234456036314 6.3284801312266499 1 0 0 I I #
edge $-1 $116 -6.3284801312266499 $171 6.3284801312266499 $113 $251 forward 7 unknown #
edge $-1 $117 -6.3284801312266499 $170 6.3284801312266499 $114 $252 forward 7 unknown #
point $-1 51.849726859340194 -22.817234456036314 6.3284801312266499 #
point $-1 51.849726859340194 22.817234456036314 6.3284801312266499 #
face $-1 $-1 $203 $16 $-1 $253 reversed single #
loop $-1 $-1 $254 $119 #
plane-surface $-1 -51.849726859340194 0 0 1 0 0 0 0 -1 forward_v I I I I #
coedge $-1 $190 $206 $123 $193 forward $120 $-1 #
coedge $-1 $130 $189 $122 $191 forward $120 $-1 #
edge $-1 $197 -2.4757923939125965 $133 0.66772420241514774 $190 $255 forward 7 unknown #
coedge $-1 $124 $123 $254 $256 reversed $45 $-1 #
edge $-1 $257 -27.503064737483243 $197 -21.19025950623066 $189 $258 forward 7 unknown #
coedge $-1 $202 $201 $124 $195 forward $203 $-1 #
edge $-1 $196 21.19025950623066 $259 27.503064737483243 $194 $260 forward 7 unknown #
vertex $-1 $195 $261 #
vertex $-1 $193 $262 #
straight-curve $-1 -45.536921628087612 0 -3.3798264896613208 0 -1 0 I I #
coedge $-1 $263 $264 $127 $200 forward $187 $-1 #
edge $-1 $207 -22.817234456036314 $204 22.817234456036314 $199 $265 forward 7 unknown #
coedge $-1 $194 $128 $132 $209 forward $203 $-1 #
coedge $-1 $128 $194 $263 $266 reversed $203 $-1 #
loop $-1 $-1 $194 $186 #
vertex $-1 $266 $267 #
straight-curve $-1 -24.346662121856951 22.817234456036314 -0.23630989333357655 1 0 0 I I #
coedge $-1 $189 $130 $264 $268 forward $120 $-1 #
vertex $-1 $268 $269 #
straight-curve $-1 -24.346662121856951 -22.817234456036314 -0.23630989333357655 -1 0 0 I I #
edge $-1 $134 -0.66772420241514774 $196 2.4757923939125965 $201 $270 forward 7 unknown #
point $-1 -45.536921628087612 -22.817234456036314 -0.23630989333357655 #
point $-1 -45.536921628087612 22.817234456036314 -0.23630989333357655 #
loop $-1 $-1 $144 $136 #
plane-surface $-1 51.849726859340194 0 0 -1 0 0 0 0 1 forward_v I I I I #
coedge $-1 $215 $139 $271 $272 reversed $79 $-1 #
coedge $-1 $139 $214 $218 $273 reversed $79 $-1 #
edge $-1 $219 61.867380947140902 $274 71.055229044433418 $139 $275 forward 7 unknown #
coedge $-1 $141 $140 $222 $276 reversed $49 $-1 #
coedge $-1 $147 $142 $215 $273 forward $137 $-1 #
vertex $-1 $273 $277 #
straight-curve $-1 45.021825155140533 -8.5243113141966376 6.3284801312266481 0 -1 0 I I #
coedge $-1 $271 $144 $147 $226 reversed $212 $-1 #
coedge $-1 $144 $271 $217 $276 forward $212 $-1 #
vertex $-1 $145 $278 #
straight-curve $-1 51.849726859340194 -11.280010800750237 73.316400276830421 0 0 1 I I #
straight-curve $-1 -25.213984825118487 -11.280010800750237 69.569088869202162 0.74314481823134659 0 -0.66913061440640931 I I #
edge $-1 $279 -22.817234456036314 $148 -11.280010800750237 $221 $280 forward 7 unknown #
point $-1 51.849726859340194 -11.280010800750237 6.3284801312266499 #
point $-1 45.021825155140519 -11.280010800750237 6.3284801312266481 #
edge $-1 $281 1 $281 0 $151 $-1 forward 7 unknown #
vertex $-1 $152 $282 #
ellipse-curve $-1 47.644303966676247 -19.520884840240292 2.3755261757744748 0.66913061440640931 0 0.74314481823134659 0.74314481823134659 0 -0.66913061440640931 1 I I #
point $-1 49.178920825471685 -19.520884840240292 2.5854142956132065 #
edge $-1 $283 1 $283 0 $155 $-1 forward 7 unknown #
vertex $-1 $156 $284 #
ellipse-curve $-1 47.644303966676247 -14.57636041654626 2.3755261757744748 0.66913061440640931 0 0.74314481823134659 0.74314481823134659 0 -0.66913061440640931 1 I I #
point $-1 49.178920825471685 -14.57636041654626 2.5854142956132065 #
plane-surface $-1 51.849726859340194 0 0 -1 0 0 0 0 1 forward_v I I I I #
coedge $-1 $164 $162 $166 $242 reversed $101 $-1 #
edge $-1 $177 -6.3284801312266499 $244 6.3284801312266499 $176 $285 forward 7 unknown #
vertex $-1 $242 $286 #
straight-curve $-1 -51.849726859340194 -22.817234456036314 0 0 0 -1 I I #
edge $-1 $240 -22.817234456036314 $244 22.817234456036314 $238 $287 forward 7 unknown #
straight-curve $-1 0 -22.817234456036314 -6.3284801312266499 -1 0 0 I I #
vertex $-1 $169 $288 #
straight-curve $-1 0 22.817234456036314 -6.3284801312266499 1 0 0 I I #
point $-1 51.849726859340194 22.817234456036314 -6.3284801312266499 #
point $-1 51.849726859340194 -22.817234456036314 -6.3284801312266499 #
straight-curve $-1 -51.849726859340194 0 6.3284801312266499 0 -1 0 I I #
point $-1 -51.849726859340194 22.817234456036314 6.3284801312266499 #
point $-1 -51.849726859340194 -22.817234456036314 6.3284801312266499 #
straight-curve $-1 51.849726859340194 -22.817234456036314 0 0 0 -1 I I #
straight-curve $-1 51.849726859340194 22.817234456036314 0 0 0 -1 I I #
plane-surface $-1 0 22.817234456036314 0 0 -1 0 0 0 -1 forward_v I I I I #
coedge $-1 $264 $263 $192 $256 forward $187 $-1 #
straight-curve $-1 -45.536921628087612 -22.817234456036314 -0.90403409574872429 0 0 1 I I #
edge $-1 $259 -22.817234456036314 $257 22.817234456036314 $254 $289 forward 7 unknown #
vertex $-1 $193 $290 #
straight-curve $-1 -24.346662121856951 -22.817234456036314 -3.3798264896613208 1 0 0 I I #
vertex $-1 $195 $291 #
straight-curve $-1 -24.346662121856951 22.817234456036314 -3.3798264896613208 -1 0 0 I I #
point $-1 -45.536921628087612 22.817234456036314 -3.3798264896613208 #
point $-1 -45.536921628087612 -22.817234456036314 -3.3798264896613208 #
coedge $-1 $254 $199 $202 $266 forward $187 $-1 #
coedge $-1 $199 $254 $206 $268 reversed $187 $-1 #
straight-curve $-1 -51.849726859340194 0 -0.23630989333357655 0 1 0 I I #
edge $-1 $204 0.23630989333357655 $259 3.3798264896613208 $202 $292 forward 7 unknown #
point $-1 -51.849726859340194 22.817234456036314 -0.23630989333357655 #
edge $-1 $207 0.23630989333357655 $257 3.3798264896613208 $264 $293 forward 7 unknown #
point $-1 -51.849726859340194 -22.817234456036314 -0.23630989333357655 #
straight-curve $-1 -45.536921628087612 22.817234456036314 -0.90403409574872429 0 0 -1 I I #
coedge $-1 $222 $221 $214 $272 forward $212 $-1 #
edge $-1 $279 -6.3284801312266499 $274 -0.180609688812539 $271 $294 forward 7 unknown #
edge $-1 $219 45.021825155140512 $279 51.849726859340194 $215 $295 forward 7 unknown #
vertex $-1 $216 $296 #
straight-curve $-1 -0.95459841327198447 -22.817234456036314 47.725838756102419 0.74314481823134659 0 -0.66913061440640931 I I #
edge $-1 $274 -14.292923141839676 $223 -2.7556994865535991 $222 $297 forward 7 unknown #
point $-1 45.021825155140512 -22.817234456036314 6.3284801312266499 #
point $-1 51.849726859340194 -11.280010800750237 0.18060968881253814 #
vertex $-1 $226 $298 #
straight-curve $-1 51.849726859340194 0 6.3284801312266499 0 1 0 I I #
vertex $-1 $229 $299 #
point $-1 48.38744878490759 -19.520884840240292 1.7063955613680655 #
vertex $-1 $233 $300 #
point $-1 48.38744878490759 -14.57636041654626 1.7063955613680655 #
straight-curve $-1 -51.849726859340194 22.817234456036314 0 0 0 -1 I I #
point $-1 -51.849726859340194 -22.817234456036314 -6.3284801312266499 #
straight-curve $-1 -51.849726859340194 0 -6.3284801312266499 0 1 0 I I #
point $-1 -51.849726859340194 22.817234456036314 -6.3284801312266499 #
straight-curve $-1 -51.849726859340194 0 -3.3798264896613208 0 -1 0 I I #
point $-1 -51.849726859340194 -22.817234456036314 -3.3798264896613208 #
point $-1 -51.849726859340194 22.817234456036314 -3.3798264896613208 #
straight-curve $-1 -51.849726859340194 22.817234456036314 0 0 0 -1 I I #
straight-curve $-1 -51.849726859340194 -22.817234456036314 0 0 0 -1 I I #
straight-curve $-1 51.849726859340194 -22.817234456036314 0 0 0 -1 I I #
straight-curve $-1 0 -22.817234456036314 6.3284801312266499 1 0 0 I I #
point $-1 51.849726859340194 -22.817234456036314 0.180609688812539 #
straight-curve $-1 51.849726859340187 -8.5243113141966376 0.18060968881254524 0 1 0 I I #
point $-1 51.849726859340194 -22.817234456036314 6.3284801312266499 #
point $-1 46.975173352269834 -19.520884840240292 1.6323813575431281 #
point $-1 46.975173352269834 -14.57636041654626 1.6323813575431281 #
End-of-ACIS-data 