500 0 4 0           
7 Unknown 11 ACIS 5.0 NT 24 Fri Mar 26 19:34:09 1999 
-1 9.9999999999999995e-007 1e-010 
body $-1 $4 $-1 $5 #
body $-1 $6 $-1 $7 #
body $-1 $8 $-1 $9 #
body $-1 $10 $-1 $11 #
lump $-1 $-1 $12 $0 #
transform $-1 1 0 0 0 1 0 0 0 1 63.552964873195592 38.595717313079263 9.6796132003363979 1 rotate no_reflect no_shear #
lump $-1 $-1 $13 $1 #
transform $-1 1 0 0 0 1 0 0 0 1 63.552964873195592 38.595717313079263 9.6796132003363979 1 rotate no_reflect no_shear #
lump $-1 $-1 $14 $2 #
transform $-1 1 0 0 0 1 0 0 0 1 63.552964873195592 38.595717313079263 9.6796132003363979 1 rotate no_reflect no_shear #
lump $-1 $-1 $15 $3 #
transform $-1 1 0 0 0 1 0 0 0 1 63.552964873195592 38.595717313079263 9.6796132003363979 1 rotate no_reflect no_shear #
shell $-1 $-1 $-1 $16 $-1 $4 #
shell $-1 $-1 $-1 $17 $-1 $6 #
shell $-1 $-1 $-1 $18 $-1 $8 #
shell $-1 $-1 $-1 $19 $-1 $10 #
face $-1 $20 $21 $12 $-1 $22 forward single #
face $-1 $23 $24 $13 $-1 $25 forward single #
face $-1 $26 $27 $14 $-1 $28 reversed single #
face $-1 $29 $30 $15 $-1 $31 forward single #
face $-1 $32 $33 $12 $-1 $34 reversed single #
loop $-1 $-1 $35 $16 #
plane-surface $-1 0 0 9.6796132003363979 0 0 1 1 0 0 forward_v I I I I #
face $-1 $36 $37 $13 $-1 $38 reversed single #
loop $-1 $-1 $39 $17 #
plane-surface $-1 0 -34.647110428583382 -1.5233021895779597 0 0 1 1 0 0 forward_v I I I I #
face $-1 $40 $41 $14 $-1 $42 reversed single #
loop $-1 $-1 $43 $18 #
plane-surface $-1 47.886292308995579 -26.478780720296601 182.14091678152047 0 1 0 0.64278761758704617 0 0.76604443648966558 forward_v I I I I #
face $-1 $44 $45 $15 $-1 $46 forward single #
loop $-1 $47 $48 $19 #
cone-surface $-1 58.897319251839093 -22.717157887883339 5.5201618641161012 -0.64278761758704617 0 -0.76604443648966558 0.76604443648966558 0 -0.64278761758704617 1 I I 0 1 1 forward I I I I #
face $-1 $49 $50 $12 $-1 $51 reversed single #
loop $-1 $-1 $52 $20 #
plane-surface $-1 0 0 -9.6796132003363979 0 0 1 1 0 0 forward_v I I I I #
coedge $-1 $53 $54 $55 $56 forward $21 $-1 #
face $-1 $57 $58 $13 $-1 $59 reversed single #
loop $-1 $-1 $60 $23 #
plane-surface $-1 0 -34.647110428583382 -6.679165131890386 0 0 1 1 0 0 forward_v I I I I #
coedge $-1 $61 $62 $63 $64 reversed $24 $-1 #
face $-1 $65 $66 $14 $-1 $67 reversed single #
loop $-1 $-1 $68 $26 #
plane-surface $-1 -33.815825453873671 -22.717157887883339 84.772126454451211 0.64278761758704617 0 0.76604443648966558 0.76604443648966558 0 -0.64278761758704617 forward_v I I I I #
coedge $-1 $69 $70 $71 $72 reversed $27 $-1 #
face $-1 $-1 $73 $15 $-1 $74 forward single #
loop $-1 $75 $76 $29 #
cone-surface $-1 57.858789698664651 -22.717157887883339 4.2824905640281727 -0.64278761758704617 0 -0.76604443648966558 0.38302221824483279 0 -0.32139380879352308 1 I I -0.70710678118654746 0.70710678118654746 0.5 forward I I I I #
loop $-1 $-1 $77 $19 #
coedge $-1 $48 $48 $78 $79 reversed $30 $-1 #
face $-1 $80 $81 $12 $-1 $82 reversed single #
loop $-1 $-1 $83 $32 #
plane-surface $-1 0 -38.595717313079263 0 0 1 0 0 0 1 forward_v I I I I #
coedge $-1 $84 $85 $86 $87 forward $33 $-1 #
coedge $-1 $88 $35 $89 $90 forward $21 $-1 #
coedge $-1 $35 $88 $91 $92 forward $21 $-1 #
coedge $-1 $93 $94 $35 $56 reversed $95 $-1 #
edge $-1 $96 -38.595717313079263 $97 38.595717313079263 $55 $98 forward 7 unknown #
face $-1 $99 $100 $13 $-1 $101 reversed single #
loop $-1 $-1 $102 $36 #
plane-surface $-1 0 -30.698503544087501 -4.1012336607341728 0 -1 0 0 0 -1 forward_v I I I I #
coedge $-1 $103 $104 $105 $106 reversed $37 $-1 #
coedge $-1 $107 $39 $108 $109 forward $24 $-1 #
coedge $-1 $39 $107 $110 $111 reversed $24 $-1 #
coedge $-1 $112 $113 $39 $64 forward $114 $-1 #
edge $-1 $115 13.37494832979581 $116 21.272162098787572 $63 $117 forward 7 unknown #
face $-1 $118 $119 $14 $-1 $120 forward single #
loop $-1 $-1 $121 $40 #
plane-surface $-1 47.886292308995579 -18.955535055470076 182.14091678152047 0 -1 0 -0.64278761758704617 0 -0.76604443648966558 forward_v I I I I #
coedge $-1 $122 $123 $124 $125 reversed $41 $-1 #
coedge $-1 $70 $43 $126 $127 reversed $27 $-1 #
coedge $-1 $43 $69 $122 $128 reversed $27 $-1 #
coedge $-1 $124 $129 $43 $72 forward $130 $-1 #
edge $-1 $131 81.390845190423846 $132 88.00044969917829 $71 $133 forward 7 unknown #
loop $-1 $-1 $78 $44 #
plane-surface $-1 -33.815825453873671 -22.717157887883339 84.772126454451211 0.64278761758704617 0 0.76604443648966558 0.76604443648966558 0 -0.64278761758704617 forward_v I I I I #
loop $-1 $-1 $134 $29 #
coedge $-1 $76 $76 $77 $135 reversed $45 $-1 #
coedge $-1 $77 $77 $76 $135 forward $47 $-1 #
coedge $-1 $78 $78 $48 $79 forward $73 $-1 #
edge $-1 $136 0 $136 6.2831853071796004 $78 $137 forward 7 unknown #
face $-1 $138 $139 $12 $-1 $140 reversed single #
loop $-1 $-1 $141 $49 #
plane-surface $-1 -63.552964873195592 0 0 1 0 0 0 0 -1 forward_v I I I I #
coedge $-1 $142 $91 $143 $144 forward $50 $-1 #
coedge $-1 $145 $52 $142 $146 forward $33 $-1 #
coedge $-1 $52 $145 $147 $148 forward $33 $-1 #
coedge $-1 $94 $93 $52 $87 reversed $95 $-1 #
edge $-1 $149 -38.595717313079263 $150 38.595717313079263 $86 $151 forward 7 unknown #
coedge $-1 $54 $53 $152 $153 forward $21 $-1 #
coedge $-1 $154 $155 $53 $90 reversed $139 $-1 #
edge $-1 $97 -63.552964873195592 $156 63.552964873195592 $89 $157 forward 7 unknown #
coedge $-1 $83 $158 $54 $92 reversed $50 $-1 #
edge $-1 $159 -63.552964873195592 $96 63.552964873195592 $91 $160 forward 7 unknown #
coedge $-1 $86 $55 $158 $161 forward $95 $-1 #
coedge $-1 $55 $86 $154 $162 reversed $95 $-1 #
loop $-1 $-1 $93 $138 #
vertex $-1 $56 $163 #
vertex $-1 $56 $164 #
straight-curve $-1 63.552964873195592 0 9.6796132003363979 0 1 0 I I #
face $-1 $165 $166 $13 $-1 $167 reversed single #
loop $-1 $-1 $168 $57 #
plane-surface $-1 -63.552964873195592 0 0 1 0 0 0 0 -1 forward_v I I I I #
coedge $-1 $169 $108 $113 $170 reversed $58 $-1 #
coedge $-1 $171 $60 $172 $173 reversed $37 $-1 #
coedge $-1 $60 $171 $169 $174 forward $37 $-1 #
coedge $-1 $113 $112 $60 $106 forward $114 $-1 #
edge $-1 $175 -21.272162098787572 $176 -13.37494832979581 $105 $177 forward 7 unknown #
coedge $-1 $62 $61 $168 $178 reversed $24 $-1 #
coedge $-1 $102 $179 $61 $109 reversed $58 $-1 #
edge $-1 $115 -63.552964873195592 $180 63.552964873195592 $108 $181 forward 7 unknown #
coedge $-1 $182 $183 $62 $111 forward $166 $-1 #
edge $-1 $116 -63.552964873195592 $184 63.552964873195592 $110 $185 forward 7 unknown #
coedge $-1 $105 $63 $183 $186 forward $114 $-1 #
coedge $-1 $63 $105 $102 $170 forward $114 $-1 #
loop $-1 $-1 $63 $165 #
vertex $-1 $64 $187 #
vertex $-1 $186 $188 #
straight-curve $-1 63.552964873195592 -17.323555214291691 -1.5233021895779597 0 -1 0 I I #
face $-1 $-1 $130 $14 $-1 $189 reversed single #
loop $-1 $-1 $190 $65 #
plane-surface $-1 0 0 9.6796132003363979 0 0 1 1 0 0 forward_v I I I I #
coedge $-1 $191 $192 $193 $194 reversed $66 $-1 #
coedge $-1 $195 $68 $70 $128 forward $41 $-1 #
coedge $-1 $68 $195 $191 $196 forward $41 $-1 #
coedge $-1 $193 $71 $68 $125 forward $130 $-1 #
edge $-1 $132 -15.120201776354932 $197 -7.5969561115284066 $124 $198 forward 7 unknown #
coedge $-1 $199 $200 $69 $127 forward $119 $-1 #
edge $-1 $201 31.732798964746657 $131 39.609818718697802 $126 $202 forward 7 unknown #
edge $-1 $132 -127.10592974639118 $201 -116.82321065238284 $70 $203 forward 7 unknown #
coedge $-1 $71 $193 $199 $204 reversed $130 $-1 #
loop $-1 $-1 $193 $118 #
vertex $-1 $204 $205 #
vertex $-1 $72 $206 #
straight-curve $-1 63.552964873195592 -26.478780720296601 91.070458390760237 0 0 -1 I I #
coedge $-1 $134 $134 $-1 $207 reversed $75 $-1 #
edge $-1 $208 0 $208 6.2831853071796004 $76 $209 forward 7 unknown #
vertex $-1 $79 $210 #
ellipse-curve $-1 59.614454996220005 -22.717157887883339 6.3748109459591884 0.64278761758704617 0 0.76604443648966558 0.76604443648966558 0 -0.64278761758704617 1 I I #
face $-1 $-1 $95 $12 $-1 $211 reversed single #
loop $-1 $-1 $154 $80 #
plane-surface $-1 0 38.595717313079263 0 0 -1 0 0 0 -1 forward_v I I I I #
coedge $-1 $212 $152 $155 $213 forward $81 $-1 #
coedge $-1 $158 $83 $84 $146 reversed $50 $-1 #
coedge $-1 $152 $212 $83 $144 reversed $81 $-1 #
edge $-1 $159 -9.6796132003363979 $214 9.6796132003363979 $143 $215 forward 7 unknown #
coedge $-1 $85 $84 $212 $216 forward $33 $-1 #
edge $-1 $150 -63.552964873195592 $214 63.552964873195592 $142 $217 forward 7 unknown #
coedge $-1 $155 $154 $85 $148 reversed $139 $-1 #
edge $-1 $218 -63.552964873195592 $149 63.552964873195592 $147 $219 forward 7 unknown #
vertex $-1 $87 $220 #
vertex $-1 $161 $221 #
straight-curve $-1 63.552964873195592 0 -9.6796132003363979 0 -1 0 I I #
coedge $-1 $141 $143 $88 $153 reversed $81 $-1 #
edge $-1 $156 -38.595717313079263 $159 38.595717313079263 $152 $222 forward 7 unknown #
coedge $-1 $147 $89 $94 $162 forward $139 $-1 #
coedge $-1 $89 $147 $141 $213 reversed $139 $-1 #
vertex $-1 $90 $223 #
straight-curve $-1 0 38.595717313079263 9.6796132003363979 -1 0 0 I I #
coedge $-1 $91 $142 $93 $161 reversed $50 $-1 #
vertex $-1 $153 $224 #
straight-curve $-1 0 -38.595717313079263 9.6796132003363979 1 0 0 I I #
edge $-1 $96 -9.6796132003363979 $150 9.6796132003363979 $93 $225 forward 7 unknown #
edge $-1 $97 -9.6796132003363979 $149 9.6796132003363979 $94 $226 forward 7 unknown #
point $-1 63.552964873195592 -38.595717313079263 9.6796132003363979 #
point $-1 63.552964873195592 38.595717313079263 9.6796132003363979 #
face $-1 $-1 $114 $13 $-1 $227 reversed single #
loop $-1 $-1 $110 $99 #
plane-surface $-1 0 -38.595717313079263 0 0 1 0 0 0 1 forward_v I I I I #
coedge $-1 $228 $229 $107 $178 forward $100 $-1 #
coedge $-1 $179 $102 $104 $174 reversed $58 $-1 #
edge $-1 $176 -4.6285483015232991 $115 0.52731464078912671 $113 $230 forward 7 unknown #
coedge $-1 $104 $103 $231 $232 reversed $37 $-1 #
coedge $-1 $183 $182 $103 $173 forward $166 $-1 #
edge $-1 $233 -63.552964873195592 $175 63.552964873195592 $172 $234 forward 7 unknown #
edge $-1 $235 -63.552964873195592 $176 63.552964873195592 $169 $236 forward 7 unknown #
vertex $-1 $173 $237 #
vertex $-1 $106 $238 #
straight-curve $-1 63.552964873195592 -17.323555214291691 -6.679165131890386 0 1 0 I I #
edge $-1 $184 -21.272162098787572 $180 -13.37494832979581 $168 $239 forward 7 unknown #
coedge $-1 $108 $169 $228 $240 reversed $58 $-1 #
vertex $-1 $178 $241 #
straight-curve $-1 0 -30.698503544087501 -1.5233021895779597 -1 0 0 I I #
coedge $-1 $172 $110 $229 $242 forward $166 $-1 #
coedge $-1 $110 $172 $112 $186 reversed $166 $-1 #
vertex $-1 $242 $243 #
straight-curve $-1 0 -38.595717313079263 -1.5233021895779597 -1 0 0 I I #
edge $-1 $116 1.5233021895779597 $175 6.679165131890386 $112 $244 forward 7 unknown #
point $-1 63.552964873195592 -30.698503544087501 -1.5233021895779597 #
point $-1 63.552964873195592 -38.595717313079263 -1.5233021895779597 #
plane-surface $-1 63.552964873195592 0 0 -1 0 0 0 0 1 forward_v I I I I #
coedge $-1 $200 $199 $192 $245 forward $119 $-1 #
coedge $-1 $192 $121 $123 $196 reversed $66 $-1 #
coedge $-1 $121 $191 $190 $245 reversed $66 $-1 #
coedge $-1 $129 $124 $121 $194 forward $130 $-1 #
edge $-1 $197 -88.00044969917829 $246 -81.390845190423846 $193 $247 forward 7 unknown #
coedge $-1 $123 $122 $200 $248 reversed $41 $-1 #
edge $-1 $249 116.82321065238284 $197 127.10592974639118 $191 $250 forward 7 unknown #
vertex $-1 $125 $251 #
straight-curve $-1 63.552964873195592 -11.358578943941669 3.070008691581954 0 1 0 I I #
coedge $-1 $190 $126 $129 $204 forward $119 $-1 #
coedge $-1 $126 $190 $195 $248 forward $119 $-1 #
vertex $-1 $127 $252 #
straight-curve $-1 23.943146154497789 -26.478780720296601 9.6796132003363908 1 0 0 I I #
straight-curve $-1 -33.815825453873671 -26.478780720296601 84.772126454451211 -0.76604443648966558 0 0.64278761758704617 I I #
edge $-1 $131 -26.478780720296601 $246 -18.955535055470076 $129 $253 forward 7 unknown #
point $-1 63.552964873195592 -26.478780720296601 9.6796132003363979 #
point $-1 63.552964873195592 -26.478780720296601 3.0700086915819469 #
edge $-1 $254 1 $254 0 $134 $-1 forward 7 unknown #
vertex $-1 $135 $255 #
ellipse-curve $-1 58.180183507458175 -22.717157887883339 4.6655127822730051 0.64278761758704617 0 0.76604443648966558 0.76604443648966558 0 -0.64278761758704617 1 I I #
point $-1 60.380499432709684 -22.717157887883339 5.7320233283721507 #
plane-surface $-1 63.552964873195592 0 0 -1 0 0 0 0 1 forward_v I I I I #
coedge $-1 $143 $141 $145 $216 reversed $81 $-1 #
edge $-1 $156 -9.6796132003363979 $218 9.6796132003363979 $155 $256 forward 7 unknown #
vertex $-1 $216 $257 #
straight-curve $-1 -63.552964873195592 -38.595717313079263 0 0 0 -1 I I #
edge $-1 $214 -38.595717313079263 $218 38.595717313079263 $212 $258 forward 7 unknown #
straight-curve $-1 0 -38.595717313079263 -9.6796132003363979 -1 0 0 I I #
vertex $-1 $148 $259 #
straight-curve $-1 0 38.595717313079263 -9.6796132003363979 1 0 0 I I #
point $-1 63.552964873195592 38.595717313079263 -9.6796132003363979 #
point $-1 63.552964873195592 -38.595717313079263 -9.6796132003363979 #
straight-curve $-1 -63.552964873195592 0 9.6796132003363979 0 -1 0 I I #
point $-1 -63.552964873195592 38.595717313079263 9.6796132003363979 #
point $-1 -63.552964873195592 -38.595717313079263 9.6796132003363979 #
straight-curve $-1 63.552964873195592 -38.595717313079263 0 0 0 -1 I I #
straight-curve $-1 63.552964873195592 38.595717313079263 0 0 0 -1 I I #
plane-surface $-1 63.552964873195592 0 0 -1 0 0 0 0 1 forward_v I I I I #
coedge $-1 $231 $168 $179 $240 forward $100 $-1 #
coedge $-1 $168 $231 $182 $242 reversed $100 $-1 #
straight-curve $-1 63.552964873195592 -30.698503544087501 -2.0506168303670864 0 0 1 I I #
coedge $-1 $229 $228 $171 $232 forward $100 $-1 #
edge $-1 $235 13.37494832979581 $233 21.272162098787572 $231 $260 forward 7 unknown #
vertex $-1 $173 $261 #
straight-curve $-1 0 -38.595717313079263 -6.679165131890386 1 0 0 I I #
vertex $-1 $232 $262 #
straight-curve $-1 0 -30.698503544087501 -6.679165131890386 1 0 0 I I #
point $-1 63.552964873195592 -38.595717313079263 -6.679165131890386 #
point $-1 63.552964873195592 -30.698503544087501 -6.679165131890386 #
straight-curve $-1 -63.552964873195592 -17.323555214291691 -1.5233021895779597 0 1 0 I I #
edge $-1 $180 -0.52731464078912671 $235 4.6285483015232991 $228 $263 forward 7 unknown #
point $-1 -63.552964873195592 -30.698503544087501 -1.5233021895779597 #
edge $-1 $184 1.5233021895779597 $233 6.679165131890386 $229 $264 forward 7 unknown #
point $-1 -63.552964873195592 -38.595717313079263 -1.5233021895779597 #
straight-curve $-1 63.552964873195592 -38.595717313079263 0 0 0 -1 I I #
edge $-1 $246 -39.609818718697802 $249 -31.732798964746657 $190 $265 forward 7 unknown #
vertex $-1 $245 $266 #
straight-curve $-1 63.552964873195592 -18.955535055470076 91.070458390760237 0 0 1 I I #
edge $-1 $249 7.5969561115284066 $201 15.120201776354932 $200 $267 forward 7 unknown #
vertex $-1 $248 $268 #
straight-curve $-1 -33.815825453873671 -18.955535055470076 84.772126454451211 0.76604443648966558 0 -0.64278761758704617 I I #
point $-1 63.552964873195592 -18.955535055470076 3.0700086915819469 #
point $-1 55.675945119244446 -26.478780720296601 9.679613200336405 #
straight-curve $-1 63.552964873195592 0 9.6796132003363979 0 1 0 I I #
vertex $-1 $207 $269 #
point $-1 58.946227943947839 -22.717157887883339 4.0227251646859594 #
straight-curve $-1 -63.552964873195592 38.595717313079263 0 0 0 -1 I I #
point $-1 -63.552964873195592 -38.595717313079263 -9.6796132003363979 #
straight-curve $-1 -63.552964873195592 0 -9.6796132003363979 0 1 0 I I #
point $-1 -63.552964873195592 38.595717313079263 -9.6796132003363979 #
straight-curve $-1 -63.552964873195592 -17.323555214291691 -6.679165131890386 0 -1 0 I I #
point $-1 -63.552964873195592 -38.595717313079263 -6.679165131890386 #
point $-1 -63.552964873195592 -30.698503544087501 -6.679165131890386 #
straight-curve $-1 -63.552964873195592 -30.698503544087501 -2.0506168303670864 0 0 -1 I I #
straight-curve $-1 -63.552964873195592 -38.595717313079263 0 0 0 -1 I I #
straight-curve $-1 23.943146154497789 -18.955535055470076 9.6796132003363908 -1 0 0 I I #
point $-1 63.552964873195592 -18.955535055470076 9.6796132003363979 #
straight-curve $-1 55.675945119244446 -11.358578943941669 9.679613200336405 0 -1 0 I I #
point $-1 55.675945119244446 -18.955535055470076 9.679613200336405 #
point $-1 57.537395889871128 -22.717157887883339 3.8994683457833399 #
End-of-ACIS-data 