500 0 11 0           
7 Unknown 11 ACIS 5.0 NT 24 Thu Mar 25 23:34:07 1999 
-1 9.9999999999999995e-007 1e-010 
body $-1 $11 $-1 $12 #
body $-1 $13 $-1 $14 #
body $-1 $15 $-1 $16 #
body $-1 $17 $-1 $18 #
body $-1 $19 $-1 $20 #
body $-1 $21 $-1 $22 #
body $-1 $23 $-1 $24 #
body $-1 $25 $-1 $26 #
body $-1 $27 $-1 $28 #
body $-1 $29 $-1 $30 #
body $-1 $31 $-1 $32 #
lump $-1 $-1 $33 $0 #
transform $-1 1 0 0 0 1 0 0 0 1 54.713583788567767 28.986661248695974 10.648376113671631 1 rotate no_reflect no_shear #
lump $-1 $-1 $34 $1 #
transform $-1 1 0 0 0 1 0 0 0 1 54.713583788567767 28.986661248695974 10.648376113671631 1 rotate no_reflect no_shear #
lump $-1 $-1 $35 $2 #
transform $-1 1 0 0 0 1 0 0 0 1 54.713583788567767 28.986661248695974 10.648376113671631 1 rotate no_reflect no_shear #
lump $-1 $-1 $36 $3 #
transform $-1 1 0 0 0 1 0 0 0 1 54.713583788567767 28.986661248695974 10.648376113671631 1 rotate no_reflect no_shear #
lump $-1 $-1 $37 $4 #
transform $-1 1 0 0 0 1 0 0 0 1 54.713583788567767 28.986661248695974 10.648376113671631 1 rotate no_reflect no_shear #
lump $-1 $-1 $38 $5 #
transform $-1 1 0 0 0 1 0 0 0 1 54.713583788567767 28.986661248695974 10.648376113671631 1 rotate no_reflect no_shear #
lump $-1 $-1 $39 $6 #
transform $-1 1 0 0 0 1 0 0 0 1 54.713583788567767 28.986661248695974 10.648376113671631 1 rotate no_reflect no_shear #
lump $-1 $-1 $40 $7 #
transform $-1 1 0 0 0 1 0 0 0 1 54.713583788567767 28.986661248695974 10.648376113671631 1 rotate no_reflect no_shear #
lump $-1 $-1 $41 $8 #
transform $-1 1 0 0 0 1 0 0 0 1 54.713583788567767 28.986661248695974 10.648376113671631 1 rotate no_reflect no_shear #
lump $-1 $-1 $42 $9 #
transform $-1 1 0 0 0 1 0 0 0 1 54.713583788567767 28.986661248695974 10.648376113671631 1 rotate no_reflect no_shear #
lump $-1 $-1 $43 $10 #
transform $-1 1 0 0 0 1 0 0 0 1 54.713583788567767 28.986661248695974 10.648376113671631 1 rotate no_reflect no_shear #
shell $-1 $-1 $-1 $44 $-1 $11 #
shell $-1 $-1 $-1 $45 $-1 $13 #
shell $-1 $-1 $-1 $46 $-1 $15 #
shell $-1 $-1 $-1 $47 $-1 $17 #
shell $-1 $-1 $-1 $48 $-1 $19 #
shell $-1 $-1 $-1 $49 $-1 $21 #
shell $-1 $-1 $-1 $50 $-1 $23 #
shell $-1 $-1 $-1 $51 $-1 $25 #
shell $-1 $-1 $-1 $52 $-1 $27 #
shell $-1 $-1 $-1 $53 $-1 $29 #
shell $-1 $-1 $-1 $54 $-1 $31 #
face $-1 $55 $56 $33 $-1 $57 forward single #
face $-1 $58 $59 $34 $-1 $60 reversed single #
face $-1 $61 $62 $35 $-1 $63 reversed single #
face $-1 $64 $65 $36 $-1 $66 reversed single #
face $-1 $67 $68 $37 $-1 $69 forward single #
face $-1 $70 $71 $38 $-1 $72 forward single #
face $-1 $73 $74 $39 $-1 $75 forward single #
face $-1 $76 $77 $40 $-1 $78 reversed single #
face $-1 $79 $80 $41 $-1 $81 forward single #
face $-1 $82 $83 $42 $-1 $84 forward single #
face $-1 $85 $86 $43 $-1 $87 forward single #
face $-1 $88 $89 $33 $-1 $90 reversed single #
loop $-1 $-1 $91 $44 #
plane-surface $-1 0 0 10.648376113671631 0 0 1 1 0 0 forward_v I I I I #
face $-1 $92 $93 $34 $-1 $94 reversed single #
loop $-1 $-1 $95 $45 #
plane-surface $-1 -53.519215812149042 -22.892801663946642 0 1 0 0 0 0 -1 forward_v I I I I #
face $-1 $96 $97 $35 $-1 $98 reversed single #
loop $-1 $-1 $99 $46 #
plane-surface $-1 -50.990311790450953 16.79894207919731 0 0 1 0 0 0 1 forward_v I I I I #
face $-1 $100 $101 $36 $-1 $102 reversed single #
loop $-1 $-1 $103 $47 #
plane-surface $-1 38.537451871045668 16.79894207919731 155.42354041399864 0 -1 0 -0.62932039886446345 0 -0.77714595512881146 forward_v I I I I #
face $-1 $104 $105 $37 $-1 $106 forward single #
loop $-1 $107 $108 $48 #
cone-surface $-1 48.761331004142356 11.528545837514415 5.6945705812582652 -0.62932039886446345 0 -0.77714595512881146 0.38857297756440573 0 -0.31466019943223172 1 I I 0 1 0.5 forward I I I I #
face $-1 $109 $110 $38 $-1 $111 forward single #
loop $-1 $112 $113 $49 #
cone-surface $-1 48.761331004142356 13.5049444281455 5.6945705812582652 -0.62932039886446345 0 -0.77714595512881146 0.38857297756440573 0 -0.31466019943223172 1 I I 0 1 0.5 forward I I I I #
face $-1 $114 $115 $39 $-1 $116 forward single #
loop $-1 $117 $118 $50 #
cone-surface $-1 48.761331004142356 15.481343018776585 5.6945705812582652 -0.62932039886446345 0 -0.77714595512881146 0.38857297756440573 0 -0.31466019943223172 1 I I 0 1 0.5 forward I I I I #
face $-1 $119 $120 $40 $-1 $121 reversed single #
loop $-1 $-1 $122 $51 #
plane-surface $-1 -123.57833253481917 10.210946777093689 86.558791667747215 0 1 0 -0.62932039886446345 0 0.77714595512881146 forward_v I I I I #
face $-1 $123 $124 $41 $-1 $125 forward single #
loop $-1 $126 $127 $52 #
cone-surface $-1 -48.76133100414237 11.528545837514415 5.6945705812582652 0.62932039886446345 0 -0.77714595512881146 0.38857297756440573 0 0.31466019943223172 1 I I 0 1 0.5 forward I I I I #
face $-1 $128 $129 $42 $-1 $130 forward single #
loop $-1 $131 $132 $53 #
cone-surface $-1 -48.76133100414237 13.5049444281455 5.6945705812582652 0.62932039886446345 0 -0.77714595512881146 0.38857297756440573 0 0.31466019943223172 1 I I 0 1 0.5 forward I I I I #
face $-1 $133 $134 $43 $-1 $135 forward single #
loop $-1 $136 $137 $54 #
cone-surface $-1 -48.76133100414237 15.481343018776585 5.6945705812582652 0.62932039886446345 0 -0.77714595512881146 0.38857297756440573 0 0.31466019943223172 1 I I 0 1 0.5 forward I I I I #
face $-1 $138 $139 $33 $-1 $140 reversed single #
loop $-1 $-1 $141 $55 #
plane-surface $-1 0 0 -10.648376113671631 0 0 1 1 0 0 forward_v I I I I #
coedge $-1 $142 $143 $144 $145 forward $56 $-1 #
face $-1 $146 $147 $34 $-1 $148 reversed single #
loop $-1 $-1 $149 $58 #
plane-surface $-1 -50.990311790450953 -16.79894207919731 0 0 -1 0 0 0 -1 forward_v I I I I #
coedge $-1 $150 $151 $152 $153 forward $59 $-1 #
face $-1 $154 $155 $35 $-1 $156 reversed single #
loop $-1 $-1 $157 $61 #
plane-surface $-1 -53.519215812149042 22.892801663946642 0 1 0 0 0 0 -1 forward_v I I I I #
coedge $-1 $158 $159 $160 $161 forward $62 $-1 #
face $-1 $162 $163 $36 $-1 $164 reversed single #
loop $-1 $-1 $165 $64 #
plane-surface $-1 -30.327296875205754 13.5049444281455 70.38265975022513 0.62932039886446345 0 0.77714595512881146 0.77714595512881146 0 -0.62932039886446345 forward_v I I I I #
coedge $-1 $166 $167 $168 $169 reversed $65 $-1 #
face $-1 $-1 $170 $37 $-1 $171 forward single #
loop $-1 $172 $173 $67 #
cone-surface $-1 48.289340704994011 11.528545837514415 5.1117111149116568 -0.62932039886446345 0 -0.77714595512881146 0.19428648878220287 0 -0.15733009971611586 1 I I -0.70710678118654746 0.70710678118654746 0.25 forward I I I I #
loop $-1 $-1 $174 $48 #
coedge $-1 $108 $108 $175 $176 reversed $68 $-1 #
face $-1 $-1 $177 $38 $-1 $178 forward single #
loop $-1 $179 $180 $70 #
cone-surface $-1 48.289340704994011 13.5049444281455 5.1117111149116568 -0.62932039886446345 0 -0.77714595512881146 0.19428648878220287 0 -0.15733009971611586 1 I I -0.70710678118654746 0.70710678118654746 0.25 forward I I I I #
loop $-1 $-1 $181 $49 #
coedge $-1 $113 $113 $182 $183 reversed $71 $-1 #
face $-1 $-1 $184 $39 $-1 $185 forward single #
loop $-1 $186 $187 $73 #
cone-surface $-1 48.289340704994011 15.481343018776585 5.1117111149116568 -0.62932039886446345 0 -0.77714595512881146 0.19428648878220287 0 -0.15733009971611586 1 I I -0.70710678118654746 0.70710678118654746 0.25 forward I I I I #
loop $-1 $-1 $188 $50 #
coedge $-1 $118 $118 $189 $190 reversed $74 $-1 #
face $-1 $191 $192 $40 $-1 $193 forward single #
loop $-1 $-1 $194 $76 #
plane-surface $-1 -54.713583788567746 13.5049444281455 1.5179110039737083 -0.62932039886446345 0 0.77714595512881146 0.77714595512881146 0 0.62932039886446345 forward_v I I I I #
coedge $-1 $195 $196 $197 $198 reversed $77 $-1 #
face $-1 $-1 $199 $41 $-1 $200 forward single #
loop $-1 $201 $202 $79 #
cone-surface $-1 -48.289340704994025 11.528545837514415 5.1117111149116568 0.62932039886446345 0 -0.77714595512881146 0.19428648878220287 0 0.15733009971611586 1 I I -0.70710678118654746 0.70710678118654746 0.25 forward I I I I #
loop $-1 $-1 $203 $52 #
coedge $-1 $127 $127 $204 $205 reversed $80 $-1 #
face $-1 $-1 $206 $42 $-1 $207 forward single #
loop $-1 $208 $209 $82 #
cone-surface $-1 -48.289340704994025 13.5049444281455 5.1117111149116568 0.62932039886446345 0 -0.77714595512881146 0.19428648878220287 0 0.15733009971611586 1 I I -0.70710678118654746 0.70710678118654746 0.25 forward I I I I #
loop $-1 $-1 $210 $53 #
coedge $-1 $132 $132 $211 $212 reversed $83 $-1 #
face $-1 $-1 $213 $43 $-1 $214 forward single #
loop $-1 $215 $216 $85 #
cone-surface $-1 -48.289340704994025 15.481343018776585 5.1117111149116568 0.62932039886446345 0 -0.77714595512881146 0.19428648878220287 0 0.15733009971611586 1 I I -0.70710678118654746 0.70710678118654746 0.25 forward I I I I #
loop $-1 $-1 $217 $54 #
coedge $-1 $137 $137 $218 $219 reversed $86 $-1 #
face $-1 $220 $221 $33 $-1 $222 reversed single #
loop $-1 $-1 $223 $88 #
plane-surface $-1 0 -28.986661248695974 0 0 1 0 0 0 1 forward_v I I I I #
coedge $-1 $224 $225 $226 $227 forward $89 $-1 #
coedge $-1 $228 $91 $229 $230 forward $56 $-1 #
coedge $-1 $91 $228 $231 $232 forward $56 $-1 #
coedge $-1 $233 $234 $91 $145 reversed $235 $-1 #
edge $-1 $236 -28.986661248695974 $237 28.986661248695974 $144 $238 forward 7 unknown #
face $-1 $239 $240 $34 $-1 $241 forward single #
loop $-1 $-1 $242 $92 #
plane-surface $-1 -48.461407768752863 -22.892801663946642 0 -1 0 0 0 0 1 forward_v I I I I #
coedge $-1 $243 $244 $245 $246 forward $93 $-1 #
coedge $-1 $247 $95 $248 $249 reversed $59 $-1 #
coedge $-1 $95 $247 $250 $251 reversed $59 $-1 #
coedge $-1 $244 $243 $95 $153 reversed $93 $-1 #
edge $-1 $252 -10.648376113671631 $253 10.648376113671631 $152 $254 forward 7 unknown #
face $-1 $255 $256 $35 $-1 $257 reversed single #
loop $-1 $-1 $258 $96 #
plane-surface $-1 -48.461407768752863 22.892801663946642 0 -1 0 0 0 0 1 forward_v I I I I #
coedge $-1 $259 $260 $261 $262 reversed $97 $-1 #
coedge $-1 $263 $99 $264 $265 reversed $62 $-1 #
coedge $-1 $99 $263 $266 $267 reversed $62 $-1 #
coedge $-1 $260 $259 $99 $161 reversed $97 $-1 #
edge $-1 $268 -10.648376113671631 $269 10.648376113671631 $160 $270 forward 7 unknown #
face $-1 $271 $272 $36 $-1 $273 forward single #
loop $-1 $-1 $274 $100 #
plane-surface $-1 38.537451871045668 10.210946777093689 155.42354041399864 0 1 0 0.62932039886446345 0 0.77714595512881146 forward_v I I I I #
coedge $-1 $275 $276 $277 $278 reversed $101 $-1 #
coedge $-1 $167 $103 $279 $280 reversed $65 $-1 #
coedge $-1 $103 $166 $275 $281 reversed $65 $-1 #
coedge $-1 $277 $282 $103 $169 forward $272 $-1 #
edge $-1 $283 -35.444857853044937 $284 -24.16967268305859 $168 $285 forward 7 unknown #
loop $-1 $-1 $175 $104 #
plane-surface $-1 -30.327296875205754 13.5049444281455 70.38265975022513 0.62932039886446345 0 0.77714595512881146 0.77714595512881146 0 -0.62932039886446345 forward_v I I I I #
loop $-1 $-1 $286 $67 #
coedge $-1 $173 $173 $174 $287 reversed $105 $-1 #
coedge $-1 $174 $174 $173 $287 forward $107 $-1 #
coedge $-1 $175 $175 $108 $176 forward $170 $-1 #
edge $-1 $288 0 $288 6.2831853071796004 $175 $289 forward 7 unknown #
loop $-1 $-1 $182 $109 #
plane-surface $-1 -30.327296875205754 13.5049444281455 70.38265975022513 0.62932039886446345 0 0.77714595512881146 0.77714595512881146 0 -0.62932039886446345 forward_v I I I I #
loop $-1 $-1 $290 $70 #
coedge $-1 $180 $180 $181 $291 reversed $110 $-1 #
coedge $-1 $181 $181 $180 $291 forward $112 $-1 #
coedge $-1 $182 $182 $113 $183 forward $177 $-1 #
edge $-1 $292 0 $292 6.2831853071796004 $182 $293 forward 7 unknown #
loop $-1 $-1 $189 $114 #
plane-surface $-1 -30.327296875205754 13.5049444281455 70.38265975022513 0.62932039886446345 0 0.77714595512881146 0.77714595512881146 0 -0.62932039886446345 forward_v I I I I #
loop $-1 $-1 $294 $73 #
coedge $-1 $187 $187 $188 $295 reversed $115 $-1 #
coedge $-1 $188 $188 $187 $295 forward $117 $-1 #
coedge $-1 $189 $189 $118 $190 forward $184 $-1 #
edge $-1 $296 0 $296 6.2831853071796004 $189 $297 forward 7 unknown #
face $-1 $298 $299 $40 $-1 $300 forward single #
loop $-1 $-1 $301 $119 #
plane-surface $-1 -50.990311790450953 16.79894207919731 0 0 1 0 0 0 1 forward_v I I I I #
coedge $-1 $302 $303 $304 $305 reversed $120 $-1 #
coedge $-1 $196 $122 $306 $307 reversed $77 $-1 #
coedge $-1 $122 $195 $302 $308 reversed $77 $-1 #
coedge $-1 $304 $309 $122 $198 forward $299 $-1 #
edge $-1 $310 7.0755824788418167 $311 18.350767648828167 $197 $312 forward 7 unknown #
loop $-1 $-1 $204 $123 #
plane-surface $-1 -54.713583788567746 13.5049444281455 1.5179110039737083 -0.62932039886446345 0 0.77714595512881146 0.77714595512881146 0 0.62932039886446345 forward_v I I I I #
loop $-1 $-1 $313 $79 #
coedge $-1 $202 $202 $203 $314 reversed $124 $-1 #
coedge $-1 $203 $203 $202 $314 forward $126 $-1 #
coedge $-1 $204 $204 $127 $205 forward $199 $-1 #
edge $-1 $315 0 $315 6.2831853071796004 $204 $316 forward 7 unknown #
loop $-1 $-1 $211 $128 #
plane-surface $-1 -54.713583788567746 13.5049444281455 1.5179110039737083 -0.62932039886446345 0 0.77714595512881146 0.77714595512881146 0 0.62932039886446345 forward_v I I I I #
loop $-1 $-1 $317 $82 #
coedge $-1 $209 $209 $210 $318 reversed $129 $-1 #
coedge $-1 $210 $210 $209 $318 forward $131 $-1 #
coedge $-1 $211 $211 $132 $212 forward $206 $-1 #
edge $-1 $319 0 $319 6.2831853071796004 $211 $320 forward 7 unknown #
loop $-1 $-1 $218 $133 #
plane-surface $-1 -54.713583788567746 13.5049444281455 1.5179110039737083 -0.62932039886446345 0 0.77714595512881146 0.77714595512881146 0 0.62932039886446345 forward_v I I I I #
loop $-1 $-1 $321 $85 #
coedge $-1 $216 $216 $217 $322 reversed $134 $-1 #
coedge $-1 $217 $217 $216 $322 forward $136 $-1 #
coedge $-1 $218 $218 $137 $219 forward $213 $-1 #
edge $-1 $323 0 $323 6.2831853071796004 $218 $324 forward 7 unknown #
face $-1 $325 $326 $33 $-1 $327 reversed single #
loop $-1 $-1 $328 $138 #
plane-surface $-1 -54.713583788567767 0 0 1 0 0 0 0 -1 forward_v I I I I #
coedge $-1 $329 $231 $330 $331 forward $139 $-1 #
coedge $-1 $332 $141 $329 $333 forward $89 $-1 #
coedge $-1 $141 $332 $334 $335 forward $89 $-1 #
coedge $-1 $234 $233 $141 $227 reversed $235 $-1 #
edge $-1 $336 -28.986661248695974 $337 28.986661248695974 $226 $338 forward 7 unknown #
coedge $-1 $143 $142 $339 $340 forward $56 $-1 #
coedge $-1 $341 $342 $142 $230 reversed $326 $-1 #
edge $-1 $237 -54.713583788567767 $343 54.713583788567767 $229 $344 forward 7 unknown #
coedge $-1 $223 $345 $143 $232 reversed $139 $-1 #
edge $-1 $346 -54.713583788567767 $236 54.713583788567767 $231 $347 forward 7 unknown #
coedge $-1 $226 $144 $345 $348 forward $235 $-1 #
coedge $-1 $144 $226 $341 $349 reversed $235 $-1 #
loop $-1 $-1 $233 $325 #
vertex $-1 $145 $350 #
vertex $-1 $145 $351 #
straight-curve $-1 54.713583788567767 0 10.648376113671631 0 1 0 I I #
face $-1 $352 $353 $34 $-1 $354 reversed single #
loop $-1 $-1 $355 $146 #
plane-surface $-1 0 0 10.648376113671631 0 0 1 1 0 0 forward_v I I I I #
coedge $-1 $356 $357 $358 $359 reversed $147 $-1 #
coedge $-1 $152 $149 $360 $361 reversed $93 $-1 #
coedge $-1 $149 $152 $362 $363 reversed $93 $-1 #
coedge $-1 $357 $356 $149 $246 reversed $147 $-1 #
edge $-1 $364 -10.648376113671631 $365 10.648376113671631 $245 $366 forward 7 unknown #
coedge $-1 $151 $150 $367 $368 reversed $59 $-1 #
coedge $-1 $360 $369 $150 $249 forward $353 $-1 #
edge $-1 $370 -17.540260416722653 $253 -5.3525412472239893 $248 $371 forward 7 unknown #
coedge $-1 $372 $362 $151 $251 forward $240 $-1 #
edge $-1 $252 5.3525412472239893 $373 17.540260416722653 $250 $374 forward 7 unknown #
vertex $-1 $251 $375 #
vertex $-1 $249 $376 #
straight-curve $-1 -53.519215812149042 -16.79894207919731 0 0 0 -1 I I #
face $-1 $377 $378 $35 $-1 $379 forward single #
loop $-1 $-1 $380 $154 #
plane-surface $-1 0 0 -10.648376113671631 0 0 1 1 0 0 forward_v I I I I #
coedge $-1 $381 $382 $263 $383 forward $155 $-1 #
coedge $-1 $160 $157 $384 $385 reversed $97 $-1 #
coedge $-1 $157 $160 $386 $387 reversed $97 $-1 #
coedge $-1 $388 $389 $157 $262 forward $390 $-1 #
edge $-1 $391 -10.648376113671631 $392 10.648376113671631 $261 $393 forward 7 unknown #
coedge $-1 $159 $158 $258 $383 reversed $62 $-1 #
coedge $-1 $384 $380 $158 $265 forward $256 $-1 #
edge $-1 $394 22.966251873527387 $269 28.024059916923566 $264 $395 forward 7 unknown #
coedge $-1 $396 $386 $159 $267 forward $378 $-1 #
edge $-1 $268 -28.024059916923566 $397 -22.966251873527387 $266 $398 forward 7 unknown #
vertex $-1 $267 $399 #
vertex $-1 $265 $400 #
straight-curve $-1 -53.519215812149042 16.79894207919731 0 0 0 -1 I I #
face $-1 $-1 $401 $36 $-1 $402 reversed single #
loop $-1 $-1 $168 $162 #
plane-surface $-1 0 0 10.648376113671631 0 0 1 1 0 0 forward_v I I I I #
coedge $-1 $403 $404 $405 $406 reversed $163 $-1 #
coedge $-1 $407 $165 $167 $281 forward $101 $-1 #
coedge $-1 $165 $407 $403 $408 forward $101 $-1 #
coedge $-1 $405 $168 $165 $278 forward $272 $-1 #
edge $-1 $284 -10.046469865124561 $409 -3.458474563020939 $277 $410 forward 7 unknown #
coedge $-1 $411 $412 $166 $280 forward $401 $-1 #
edge $-1 $413 -76.19385920302561 $283 -67.063394093327688 $279 $414 forward 7 unknown #
edge $-1 $284 94.918715084299137 $413 109.42716757713555 $167 $415 forward 7 unknown #
coedge $-1 $168 $405 $411 $416 forward $272 $-1 #
vertex $-1 $169 $417 #
vertex $-1 $169 $418 #
straight-curve $-1 19.268725935522834 16.79894207919731 10.648376113671631 -1 0 0 I I #
coedge $-1 $286 $286 $-1 $419 reversed $172 $-1 #
edge $-1 $420 0 $420 6.2831853071796004 $173 $421 forward 7 unknown #
vertex $-1 $176 $422 #
ellipse-curve $-1 49.075991203574596 11.528545837514415 6.0831435588226768 0.62932039886446345 0 0.77714595512881146 0.38857297756440573 0 -0.31466019943223172 1 I I #
coedge $-1 $290 $290 $-1 $423 reversed $179 $-1 #
edge $-1 $424 0 $424 6.2831853071796004 $180 $425 forward 7 unknown #
vertex $-1 $183 $426 #
ellipse-curve $-1 49.075991203574596 13.5049444281455 6.0831435588226768 0.62932039886446345 0 0.77714595512881146 0.38857297756440573 0 -0.31466019943223172 1 I I #
coedge $-1 $294 $294 $-1 $427 reversed $186 $-1 #
edge $-1 $428 0 $428 6.2831853071796004 $187 $429 forward 7 unknown #
vertex $-1 $190 $430 #
ellipse-curve $-1 49.075991203574596 15.481343018776585 6.0831435588226768 0.62932039886446345 0 0.77714595512881146 0.38857297756440573 0 -0.31466019943223172 1 I I #
face $-1 $-1 $431 $40 $-1 $432 reversed single #
loop $-1 $-1 $433 $191 #
plane-surface $-1 0 0 10.648376113671631 0 0 1 1 0 0 forward_v I I I I #
coedge $-1 $434 $435 $303 $436 forward $192 $-1 #
coedge $-1 $437 $194 $196 $308 forward $120 $-1 #
coedge $-1 $194 $437 $301 $436 reversed $120 $-1 #
coedge $-1 $433 $197 $194 $305 forward $299 $-1 #
edge $-1 $311 3.458474563020939 $438 10.046469865124561 $304 $439 forward 7 unknown #
coedge $-1 $440 $441 $195 $307 forward $431 $-1 #
edge $-1 $442 -41.761484829899914 $310 -32.631019720201976 $306 $443 forward 7 unknown #
edge $-1 $311 -14.508452492836401 $442 2.7465363939559239e-014 $196 $444 forward 7 unknown #
coedge $-1 $197 $433 $440 $445 forward $299 $-1 #
vertex $-1 $307 $446 #
vertex $-1 $198 $447 #
straight-curve $-1 -61.789166267409584 10.210946777093689 10.648376113671631 1 0 0 I I #
coedge $-1 $313 $313 $-1 $448 reversed $201 $-1 #
edge $-1 $449 0 $449 6.2831853071796004 $202 $450 forward 7 unknown #
vertex $-1 $205 $451 #
ellipse-curve $-1 -49.075991203574596 11.528545837514415 6.0831435588226599 -0.62932039886446345 0 0.77714595512881146 0.38857297756440573 0 0.31466019943223172 1 I I #
coedge $-1 $317 $317 $-1 $452 reversed $208 $-1 #
edge $-1 $453 0 $453 6.2831853071796004 $209 $454 forward 7 unknown #
vertex $-1 $212 $455 #
ellipse-curve $-1 -49.075991203574596 13.5049444281455 6.0831435588226599 -0.62932039886446345 0 0.77714595512881146 0.38857297756440573 0 0.31466019943223172 1 I I #
coedge $-1 $321 $321 $-1 $456 reversed $215 $-1 #
edge $-1 $457 0 $457 6.2831853071796004 $216 $458 forward 7 unknown #
vertex $-1 $219 $459 #
ellipse-curve $-1 -49.075991203574596 15.481343018776585 6.0831435588226599 -0.62932039886446345 0 0.77714595512881146 0.38857297756440573 0 0.31466019943223172 1 I I #
face $-1 $-1 $235 $33 $-1 $460 reversed single #
loop $-1 $-1 $341 $220 #
plane-surface $-1 0 28.986661248695974 0 0 -1 0 0 0 -1 forward_v I I I I #
coedge $-1 $461 $339 $342 $462 forward $221 $-1 #
coedge $-1 $345 $223 $224 $333 reversed $139 $-1 #
coedge $-1 $339 $461 $223 $331 reversed $221 $-1 #
edge $-1 $346 -10.648376113671631 $463 10.648376113671631 $330 $464 forward 7 unknown #
coedge $-1 $225 $224 $461 $465 forward $89 $-1 #
edge $-1 $337 -54.713583788567767 $463 54.713583788567767 $329 $466 forward 7 unknown #
coedge $-1 $342 $341 $225 $335 reversed $326 $-1 #
edge $-1 $467 -54.713583788567767 $336 54.713583788567767 $334 $468 forward 7 unknown #
vertex $-1 $227 $469 #
vertex $-1 $348 $470 #
straight-curve $-1 54.713583788567767 0 -10.648376113671631 0 -1 0 I I #
coedge $-1 $328 $330 $228 $340 reversed $221 $-1 #
edge $-1 $343 -28.986661248695974 $346 28.986661248695974 $339 $471 forward 7 unknown #
coedge $-1 $334 $229 $234 $349 forward $326 $-1 #
coedge $-1 $229 $334 $328 $462 reversed $326 $-1 #
vertex $-1 $230 $472 #
straight-curve $-1 0 28.986661248695974 10.648376113671631 -1 0 0 I I #
coedge $-1 $231 $329 $233 $348 reversed $139 $-1 #
vertex $-1 $340 $473 #
straight-curve $-1 0 -28.986661248695974 10.648376113671631 1 0 0 I I #
edge $-1 $236 -10.648376113671631 $337 10.648376113671631 $233 $474 forward 7 unknown #
edge $-1 $237 -10.648376113671631 $336 10.648376113671631 $234 $475 forward 7 unknown #
point $-1 54.713583788567767 -28.986661248695974 10.648376113671631 #
point $-1 54.713583788567767 28.986661248695974 10.648376113671631 #
face $-1 $-1 $476 $34 $-1 $477 reversed single #
loop $-1 $-1 $478 $239 #
plane-surface $-1 0 0 -10.648376113671631 0 0 1 1 0 0 forward_v I I I I #
coedge $-1 $362 $372 $357 $479 forward $240 $-1 #
coedge $-1 $245 $242 $478 $480 reversed $147 $-1 #
coedge $-1 $242 $245 $355 $479 reversed $147 $-1 #
coedge $-1 $481 $482 $242 $359 forward $476 $-1 #
edge $-1 $483 -10.648376113671631 $484 10.648376113671631 $358 $485 forward 7 unknown #
coedge $-1 $478 $248 $243 $361 forward $353 $-1 #
edge $-1 $253 -28.024059916923566 $365 -22.966251873527387 $360 $486 forward 7 unknown #
coedge $-1 $250 $355 $244 $363 forward $240 $-1 #
edge $-1 $364 22.966251873527387 $252 28.024059916923566 $362 $487 forward 7 unknown #
vertex $-1 $363 $488 #
vertex $-1 $361 $489 #
straight-curve $-1 -48.461407768752863 -16.79894207919731 0 0 0 -1 I I #
coedge $-1 $482 $481 $247 $368 forward $476 $-1 #
edge $-1 $373 -10.648376113671631 $370 10.648376113671631 $367 $490 forward 7 unknown #
coedge $-1 $248 $478 $482 $491 forward $353 $-1 #
vertex $-1 $249 $492 #
straight-curve $-1 -53.519215812149042 -11.446400831973321 -10.648376113671631 0 1 0 I I #
coedge $-1 $355 $250 $481 $493 forward $240 $-1 #
vertex $-1 $493 $494 #
straight-curve $-1 -53.519215812149042 -11.446400831973321 10.648376113671631 0 -1 0 I I #
point $-1 -53.519215812149042 -16.79894207919731 10.648376113671631 #
point $-1 -53.519215812149042 -16.79894207919731 -10.648376113671631 #
face $-1 $-1 $390 $35 $-1 $495 reversed single #
loop $-1 $-1 $396 $255 #
plane-surface $-1 0 0 10.648376113671631 0 0 1 1 0 0 forward_v I I I I #
coedge $-1 $264 $496 $381 $497 forward $256 $-1 #
coedge $-1 $498 $258 $380 $497 reversed $155 $-1 #
coedge $-1 $258 $498 $396 $499 reversed $155 $-1 #
edge $-1 $397 -10.648376113671631 $394 10.648376113671631 $258 $500 forward 7 unknown #
coedge $-1 $496 $264 $259 $385 forward $256 $-1 #
edge $-1 $269 5.3525412472239893 $391 17.540260416722653 $384 $501 forward 7 unknown #
coedge $-1 $266 $502 $260 $387 forward $378 $-1 #
edge $-1 $392 -17.540260416722653 $268 -5.3525412472239893 $386 $503 forward 7 unknown #
coedge $-1 $504 $261 $502 $505 reversed $390 $-1 #
coedge $-1 $261 $504 $496 $506 reversed $390 $-1 #
loop $-1 $-1 $504 $377 #
vertex $-1 $506 $507 #
vertex $-1 $262 $508 #
straight-curve $-1 -53.519215812149042 28.986661248695974 0 0 0 1 I I #
vertex $-1 $265 $509 #
straight-curve $-1 -25.495155895225476 16.79894207919731 -10.648376113671631 -1 0 0 I I #
coedge $-1 $502 $266 $382 $499 forward $378 $-1 #
vertex $-1 $267 $510 #
straight-curve $-1 -25.495155895225476 16.79894207919731 10.648376113671631 1 0 0 I I #
point $-1 -53.519215812149042 16.79894207919731 10.648376113671631 #
point $-1 -53.519215812149042 16.79894207919731 -10.648376113671631 #
loop $-1 $-1 $279 $271 #
plane-surface $-1 54.713583788567767 0 0 -1 0 0 0 0 1 forward_v I I I I #
coedge $-1 $404 $274 $276 $408 reversed $163 $-1 #
coedge $-1 $274 $403 $511 $512 reversed $163 $-1 #
coedge $-1 $282 $277 $274 $406 forward $272 $-1 #
edge $-1 $409 24.16967268305859 $513 35.444857853044937 $405 $514 forward 7 unknown #
coedge $-1 $276 $275 $412 $515 reversed $101 $-1 #
edge $-1 $516 -109.42716757713555 $409 -94.918715084299137 $403 $517 forward 7 unknown #
vertex $-1 $278 $518 #
straight-curve $-1 43.438398618581438 6.7524722140727498 10.648376113671624 0 -1 0 I I #
coedge $-1 $511 $279 $282 $416 reversed $401 $-1 #
coedge $-1 $279 $511 $407 $515 forward $401 $-1 #
vertex $-1 $280 $519 #
straight-curve $-1 54.713583788567767 16.79894207919731 77.711770206999319 0 0 1 I I #
straight-curve $-1 -30.327296875205754 16.79894207919731 70.38265975022513 0.77714595512881146 0 -0.62932039886446345 I I #
edge $-1 $513 10.210946777093689 $283 16.79894207919731 $411 $520 forward 7 unknown #
point $-1 54.713583788567767 16.79894207919731 10.648376113671631 #
point $-1 43.438398618581424 16.79894207919731 10.648376113671631 #
edge $-1 $521 1 $521 0 $286 $-1 forward 7 unknown #
vertex $-1 $287 $522 #
ellipse-curve $-1 48.446670804710124 11.528545837514415 5.3059976036938599 0.62932039886446345 0 0.77714595512881146 0.38857297756440573 0 -0.31466019943223172 1 I I #
point $-1 49.464564181138996 11.528545837514415 5.768483359390439 #
edge $-1 $523 1 $523 0 $290 $-1 forward 7 unknown #
vertex $-1 $291 $524 #
ellipse-curve $-1 48.446670804710124 13.5049444281455 5.3059976036938599 0.62932039886446345 0 0.77714595512881146 0.38857297756440573 0 -0.31466019943223172 1 I I #
point $-1 49.464564181138996 13.5049444281455 5.768483359390439 #
edge $-1 $525 1 $525 0 $294 $-1 forward 7 unknown #
vertex $-1 $295 $526 #
ellipse-curve $-1 48.446670804710124 15.481343018776585 5.3059976036938599 0.62932039886446345 0 0.77714595512881146 0.38857297756440573 0 -0.31466019943223172 1 I I #
point $-1 49.464564181138996 15.481343018776585 5.768483359390439 #
loop $-1 $-1 $527 $298 #
plane-surface $-1 -54.713583788567767 0 0 1 0 0 0 0 -1 forward_v I I I I #
coedge $-1 $309 $304 $435 $528 forward $299 $-1 #
coedge $-1 $435 $301 $527 $529 reversed $192 $-1 #
coedge $-1 $301 $434 $433 $528 reversed $192 $-1 #
edge $-1 $438 -13.539315785476731 $530 0.9691367073596947 $301 $531 forward 7 unknown #
coedge $-1 $303 $302 $441 $532 reversed $120 $-1 #
vertex $-1 $305 $533 #
straight-curve $-1 -43.438398618581424 6.7524722140727498 10.648376113671631 0 1 0 I I #
coedge $-1 $527 $306 $309 $445 reversed $431 $-1 #
coedge $-1 $306 $527 $437 $532 forward $431 $-1 #
vertex $-1 $307 $534 #
straight-curve $-1 -54.713583788567767 10.210946777093689 43.279395833873608 0 0 1 I I #
straight-curve $-1 -54.713583788567746 10.210946777093689 1.5179110039737083 -0.77714595512881146 0 -0.62932039886446345 I I #
edge $-1 $535 -16.79894207919731 $310 -10.210946777093689 $440 $536 forward 7 unknown #
point $-1 -54.713583788567767 10.210946777093689 10.648376113671631 #
point $-1 -43.438398618581417 10.210946777093689 10.648376113671631 #
edge $-1 $537 1 $537 0 $313 $-1 forward 7 unknown #
vertex $-1 $314 $538 #
ellipse-curve $-1 -48.446670804710138 11.528545837514415 5.3059976036938599 -0.62932039886446345 0 0.77714595512881146 0.38857297756440573 0 0.31466019943223172 1 I I #
point $-1 -48.687418226010202 11.528545837514415 6.397803758254903 #
edge $-1 $539 1 $539 0 $317 $-1 forward 7 unknown #
vertex $-1 $318 $540 #
ellipse-curve $-1 -48.446670804710138 13.5049444281455 5.3059976036938599 -0.62932039886446345 0 0.77714595512881146 0.38857297756440573 0 0.31466019943223172 1 I I #
point $-1 -48.687418226010202 13.5049444281455 6.397803758254903 #
edge $-1 $541 1 $541 0 $321 $-1 forward 7 unknown #
vertex $-1 $322 $542 #
ellipse-curve $-1 -48.446670804710138 15.481343018776585 5.3059976036938599 -0.62932039886446345 0 0.77714595512881146 0.38857297756440573 0 0.31466019943223172 1 I I #
point $-1 -48.687418226010202 15.481343018776585 6.397803758254903 #
plane-surface $-1 54.713583788567767 0 0 -1 0 0 0 0 1 forward_v I I I I #
coedge $-1 $330 $328 $332 $465 reversed $221 $-1 #
edge $-1 $343 -10.648376113671631 $467 10.648376113671631 $342 $543 forward 7 unknown #
vertex $-1 $465 $544 #
straight-curve $-1 -54.713583788567767 -28.986661248695974 0 0 0 -1 I I #
edge $-1 $463 -28.986661248695974 $467 28.986661248695974 $461 $545 forward 7 unknown #
straight-curve $-1 0 -28.986661248695974 -10.648376113671631 -1 0 0 I I #
vertex $-1 $335 $546 #
straight-curve $-1 0 28.986661248695974 -10.648376113671631 1 0 0 I I #
point $-1 54.713583788567767 28.986661248695974 -10.648376113671631 #
point $-1 54.713583788567767 -28.986661248695974 -10.648376113671631 #
straight-curve $-1 -54.713583788567767 0 10.648376113671631 0 -1 0 I I #
point $-1 -54.713583788567767 28.986661248695974 10.648376113671631 #
point $-1 -54.713583788567767 -28.986661248695974 10.648376113671631 #
straight-curve $-1 54.713583788567767 -28.986661248695974 0 0 0 -1 I I #
straight-curve $-1 54.713583788567767 28.986661248695974 0 0 0 -1 I I #
loop $-1 $-1 $358 $352 #
plane-surface $-1 0 -28.986661248695974 0 0 1 0 0 0 1 forward_v I I I I #
coedge $-1 $369 $360 $356 $480 forward $353 $-1 #
edge $-1 $484 -17.540260416722653 $364 -5.3525412472239893 $355 $547 forward 7 unknown #
edge $-1 $365 5.3525412472239893 $483 17.540260416722653 $478 $548 forward 7 unknown #
coedge $-1 $367 $358 $372 $493 reversed $476 $-1 #
coedge $-1 $358 $367 $369 $491 reversed $476 $-1 #
vertex $-1 $491 $549 #
vertex $-1 $359 $550 #
straight-curve $-1 -48.461407768752863 -28.986661248695974 0 0 0 1 I I #
straight-curve $-1 -25.495155895225476 -16.79894207919731 -10.648376113671631 1 0 0 I I #
straight-curve $-1 -25.495155895225476 -16.79894207919731 10.648376113671631 -1 0 0 I I #
point $-1 -48.461407768752863 -16.79894207919731 10.648376113671631 #
point $-1 -48.461407768752863 -16.79894207919731 -10.648376113671631 #
straight-curve $-1 -53.519215812149042 -28.986661248695974 0 0 0 -1 I I #
edge $-1 $483 48.461407768752863 $370 53.519215812149042 $482 $551 forward 7 unknown #
point $-1 -53.519215812149042 -28.986661248695974 -10.648376113671631 #
edge $-1 $373 -53.519215812149042 $484 -48.461407768752863 $481 $552 forward 7 unknown #
point $-1 -53.519215812149042 -28.986661248695974 10.648376113671631 #
plane-surface $-1 0 28.986661248695974 0 0 -1 0 0 0 -1 forward_v I I I I #
coedge $-1 $380 $384 $389 $506 forward $256 $-1 #
edge $-1 $553 -17.540260416722653 $394 -5.3525412472239893 $380 $554 forward 7 unknown #
coedge $-1 $382 $381 $504 $555 reversed $155 $-1 #
edge $-1 $397 5.3525412472239893 $556 17.540260416722653 $396 $557 forward 7 unknown #
straight-curve $-1 -48.461407768752863 16.79894207919731 0 0 0 -1 I I #
straight-curve $-1 -53.519215812149042 11.446400831973321 -10.648376113671631 0 1 0 I I #
coedge $-1 $386 $396 $388 $505 forward $378 $-1 #
straight-curve $-1 -53.519215812149042 11.446400831973321 10.648376113671631 0 -1 0 I I #
coedge $-1 $389 $388 $498 $555 forward $390 $-1 #
edge $-1 $556 48.461407768752863 $392 53.519215812149042 $388 $558 forward 7 unknown #
edge $-1 $391 -53.519215812149042 $553 -48.461407768752863 $389 $559 forward 7 unknown #
point $-1 -53.519215812149042 28.986661248695974 -10.648376113671631 #
point $-1 -53.519215812149042 28.986661248695974 10.648376113671631 #
point $-1 -48.461407768752863 16.79894207919731 -10.648376113671631 #
point $-1 -48.461407768752863 16.79894207919731 10.648376113671631 #
coedge $-1 $412 $411 $404 $512 forward $401 $-1 #
edge $-1 $513 67.063394093327688 $516 76.19385920302561 $511 $560 forward 7 unknown #
vertex $-1 $416 $561 #
straight-curve $-1 19.268725935522834 10.210946777093689 10.648376113671631 1 0 0 I I #
edge $-1 $516 3.458474563020939 $413 10.046469865124561 $412 $562 forward 7 unknown #
vertex $-1 $515 $563 #
straight-curve $-1 -30.327296875205754 10.210946777093689 70.38265975022513 -0.77714595512881146 0 0.62932039886446345 I I #
point $-1 43.438398618581424 10.210946777093689 10.648376113671631 #
point $-1 54.713583788567767 16.79894207919731 1.5179110039737083 #
straight-curve $-1 54.713583788567767 0 10.648376113671631 0 1 0 I I #
vertex $-1 $419 $564 #
point $-1 48.835243782274532 11.528545837514415 4.9913374042616283 #
vertex $-1 $423 $565 #
point $-1 48.835243782274532 13.5049444281455 4.9913374042616283 #
vertex $-1 $427 $566 #
point $-1 48.835243782274532 15.481343018776585 4.9913374042616283 #
coedge $-1 $441 $440 $434 $529 forward $431 $-1 #
edge $-1 $438 17.94324272335594 $535 29.218427893342291 $433 $567 forward 7 unknown #
edge $-1 $535 32.631019720201976 $530 41.761484829899914 $527 $568 forward 7 unknown #
vertex $-1 $529 $569 #
straight-curve $-1 -53.960423116476328 16.79894207919731 2.127808503203489 -0.77714595512881146 0 -0.62932039886446345 I I #
edge $-1 $530 -10.046469865124561 $442 -3.458474563020939 $441 $570 forward 7 unknown #
point $-1 -43.438398618581417 16.79894207919731 10.648376113671631 #
point $-1 -54.713583788567767 10.210946777093689 1.5179110039736909 #
vertex $-1 $445 $571 #
straight-curve $-1 -54.713583788567767 0 10.648376113671631 0 -1 0 I I #
vertex $-1 $448 $572 #
point $-1 -48.058097827145737 11.528545837514415 5.6206578031260914 #
vertex $-1 $452 $573 #
point $-1 -48.058097827145737 13.5049444281455 5.6206578031260914 #
vertex $-1 $456 $574 #
point $-1 -48.058097827145737 15.481343018776585 5.6206578031260914 #
straight-curve $-1 -54.713583788567767 28.986661248695974 0 0 0 -1 I I #
point $-1 -54.713583788567767 -28.986661248695974 -10.648376113671631 #
straight-curve $-1 -54.713583788567767 0 -10.648376113671631 0 1 0 I I #
point $-1 -54.713583788567767 28.986661248695974 -10.648376113671631 #
straight-curve $-1 -48.461407768752863 -11.446400831973321 10.648376113671631 0 1 0 I I #
straight-curve $-1 -48.461407768752863 -11.446400831973321 -10.648376113671631 0 -1 0 I I #
point $-1 -48.461407768752863 -28.986661248695974 -10.648376113671631 #
point $-1 -48.461407768752863 -28.986661248695974 10.648376113671631 #
straight-curve $-1 0 -28.986661248695974 -10.648376113671631 -1 0 0 I I #
straight-curve $-1 0 -28.986661248695974 10.648376113671631 1 0 0 I I #
vertex $-1 $555 $575 #
straight-curve $-1 -48.461407768752863 11.446400831973321 -10.648376113671631 0 -1 0 I I #
edge $-1 $556 -10.648376113671631 $553 10.648376113671631 $504 $576 forward 7 unknown #
vertex $-1 $505 $577 #
straight-curve $-1 -48.461407768752863 11.446400831973321 10.648376113671631 0 1 0 I I #
straight-curve $-1 0 28.986661248695974 10.648376113671631 -1 0 0 I I #
straight-curve $-1 0 28.986661248695974 -10.648376113671631 1 0 0 I I #
straight-curve $-1 54.713583788567767 10.210946777093689 77.711770206999319 0 0 -1 I I #
point $-1 54.713583788567767 10.210946777093689 10.648376113671631 #
straight-curve $-1 54.713583788567767 6.7524722140727498 1.5179110039737012 0 1 0 I I #
point $-1 54.713583788567767 10.210946777093689 1.5179110039737083 #
point $-1 48.132010605277898 11.528545837514415 4.9174246261294536 #
point $-1 48.132010605277898 13.5049444281455 4.9174246261294536 #
point $-1 48.132010605277898 15.481343018776585 4.9174246261294536 #
straight-curve $-1 -25.495155895225476 16.79894207919731 10.648376113671631 -1 0 0 I I #
straight-curve $-1 -54.713583788567767 16.79894207919731 43.279395833873608 0 0 -1 I I #
point $-1 -54.713583788567767 16.79894207919731 1.5179110039736909 #
straight-curve $-1 -54.713583788567767 6.7524722140727498 1.5179110039736923 0 -1 0 I I #
point $-1 -54.713583788567767 16.79894207919731 10.648376113671631 #
point $-1 -48.132010605277912 11.528545837514415 4.9174246261294536 #
point $-1 -48.132010605277912 13.5049444281455 4.9174246261294536 #
point $-1 -48.132010605277912 15.481343018776585 4.9174246261294536 #
point $-1 -48.461407768752863 28.986661248695974 -10.648376113671631 #
straight-curve $-1 -48.461407768752863 28.986661248695974 0 0 0 -1 I I #
point $-1 -48.461407768752863 28.986661248695974 10.648376113671631 #
End-of-ACIS-data 