500 0 13 0           
7 Unknown 11 ACIS 5.0 NT 24 Thu Mar 25 23:53:15 1999 
-1 9.9999999999999995e-007 1e-010 
body $-1 $13 $-1 $14 #
body $-1 $15 $-1 $16 #
body $-1 $17 $-1 $18 #
body $-1 $19 $-1 $20 #
body $-1 $21 $-1 $22 #
body $-1 $23 $-1 $24 #
body $-1 $25 $-1 $26 #
body $-1 $27 $-1 $28 #
body $-1 $29 $-1 $30 #
body $-1 $31 $-1 $32 #
body $-1 $33 $-1 $34 #
body $-1 $35 $-1 $36 #
body $-1 $37 $-1 $38 #
lump $-1 $-1 $39 $0 #
transform $-1 1 0 0 0 1 0 0 0 1 67.759636219367053 42.568610599167286 13.185525476126847 1 rotate no_reflect no_shear #
lump $-1 $-1 $40 $1 #
transform $-1 1 0 0 0 1 0 0 0 1 67.759636219367053 42.568610599167286 13.185525476126847 1 rotate no_reflect no_shear #
lump $-1 $-1 $41 $2 #
transform $-1 1 0 0 0 1 0 0 0 1 67.759636219367053 42.568610599167286 13.185525476126847 1 rotate no_reflect no_shear #
lump $-1 $-1 $42 $3 #
transform $-1 1 0 0 0 1 0 0 0 1 67.759636219367053 42.568610599167286 13.185525476126847 1 rotate no_reflect no_shear #
lump $-1 $-1 $43 $4 #
transform $-1 1 0 0 0 1 0 0 0 1 67.759636219367053 42.568610599167286 13.185525476126847 1 rotate no_reflect no_shear #
lump $-1 $-1 $44 $5 #
transform $-1 1 0 0 0 1 0 0 0 1 67.759636219367053 42.568610599167286 13.185525476126847 1 rotate no_reflect no_shear #
lump $-1 $-1 $45 $6 #
transform $-1 1 0 0 0 1 0 0 0 1 67.759636219367053 42.568610599167286 13.185525476126847 1 rotate no_reflect no_shear #
lump $-1 $-1 $46 $7 #
transform $-1 1 0 0 0 1 0 0 0 1 67.759636219367053 42.568610599167286 13.185525476126847 1 rotate no_reflect no_shear #
lump $-1 $-1 $47 $8 #
transform $-1 1 0 0 0 1 0 0 0 1 67.759636219367053 42.568610599167286 13.185525476126847 1 rotate no_reflect no_shear #
lump $-1 $-1 $48 $9 #
transform $-1 1 0 0 0 1 0 0 0 1 67.759636219367053 42.568610599167286 13.185525476126847 1 rotate no_reflect no_shear #
lump $-1 $-1 $49 $10 #
transform $-1 1 0 0 0 1 0 0 0 1 67.759636219367053 42.568610599167286 13.185525476126847 1 rotate no_reflect no_shear #
lump $-1 $-1 $50 $11 #
transform $-1 1 0 0 0 1 0 0 0 1 67.759636219367053 42.568610599167286 13.185525476126847 1 rotate no_reflect no_shear #
lump $-1 $-1 $51 $12 #
transform $-1 1 0 0 0 1 0 0 0 1 67.759636219367053 42.568610599167286 13.185525476126847 1 rotate no_reflect no_shear #
shell $-1 $-1 $-1 $52 $-1 $13 #
shell $-1 $-1 $-1 $53 $-1 $15 #
shell $-1 $-1 $-1 $54 $-1 $17 #
shell $-1 $-1 $-1 $55 $-1 $19 #
shell $-1 $-1 $-1 $56 $-1 $21 #
shell $-1 $-1 $-1 $57 $-1 $23 #
shell $-1 $-1 $-1 $58 $-1 $25 #
shell $-1 $-1 $-1 $59 $-1 $27 #
shell $-1 $-1 $-1 $60 $-1 $29 #
shell $-1 $-1 $-1 $61 $-1 $31 #
shell $-1 $-1 $-1 $62 $-1 $33 #
shell $-1 $-1 $-1 $63 $-1 $35 #
shell $-1 $-1 $-1 $64 $-1 $37 #
face $-1 $65 $66 $39 $-1 $67 forward single #
face $-1 $68 $69 $40 $-1 $70 reversed single #
face $-1 $71 $72 $41 $-1 $73 reversed single #
face $-1 $74 $75 $42 $-1 $76 forward single #
face $-1 $77 $78 $43 $-1 $79 forward single #
face $-1 $80 $81 $44 $-1 $82 reversed single #
face $-1 $83 $84 $45 $-1 $85 forward single #
face $-1 $86 $87 $46 $-1 $88 forward single #
face $-1 $89 $90 $47 $-1 $91 forward single #
face $-1 $92 $93 $48 $-1 $94 reversed single #
face $-1 $95 $96 $49 $-1 $97 forward single #
face $-1 $98 $99 $50 $-1 $100 forward single #
face $-1 $101 $102 $51 $-1 $103 forward single #
face $-1 $104 $105 $39 $-1 $106 reversed single #
loop $-1 $-1 $107 $52 #
plane-surface $-1 0 0 13.185525476126847 0 0 1 1 0 0 forward_v I I I I #
face $-1 $108 $109 $40 $-1 $110 reversed single #
loop $-1 $-1 $111 $53 #
plane-surface $-1 -59.990855953036593 0 10.185525476126847 0 0 1 1 0 0 forward_v I I I I #
face $-1 $112 $113 $41 $-1 $114 reversed single #
loop $-1 $-1 $115 $54 #
plane-surface $-1 7.9861945201934361 50.558944594224727 162.39720148548906 1 0 0 0 -0.57357644374324357 -0.81915203911291934 forward_v I I I I #
face $-1 $116 $117 $42 $-1 $118 forward single #
loop $-1 $119 $120 $55 #
cone-surface $-1 16.651676965918995 30.78240457037888 1.8795849192060654 0 -0.57357644374324357 -0.81915203911291934 4 0 0 1 I I 0 1 4 forward I I I I #
face $-1 $121 $122 $43 $-1 $123 forward single #
loop $-1 $124 $125 $56 #
cone-surface $-1 29.649900634507347 30.78240457037888 1.8795849192060654 0 -0.57357644374324357 -0.81915203911291934 4 0 0 1 I I 0 1 4 forward I I I I #
face $-1 $126 $127 $44 $-1 $128 reversed single #
loop $-1 $-1 $129 $57 #
plane-surface $-1 -35.608561352936178 -152.20600617649023 88.081737660812493 -1 0 0 0 -0.80901700255871778 0.5877852410284794 forward_v I I I I #
face $-1 $130 $131 $45 $-1 $132 forward single #
loop $-1 $133 $134 $58 #
cone-surface $-1 -48.899372819952148 -39.67896690125211 9.9623890697083386 0 0.80901700255871778 -0.5877852410284794 1 0 0 1 I I 0 1 1 forward I I I I #
face $-1 $135 $136 $46 $-1 $137 forward single #
loop $-1 $138 $139 $59 #
cone-surface $-1 -43.915318519821156 -39.67896690125211 9.9623890697083386 0 0.80901700255871778 -0.5877852410284794 1 0 0 1 I I 0 1 1 forward I I I I #
face $-1 $140 $141 $47 $-1 $142 forward single #
loop $-1 $143 $144 $60 #
cone-surface $-1 -38.931264219690178 -39.67896690125211 9.9623890697083386 0 0.80901700255871778 -0.5877852410284794 1 0 0 1 I I 0 1 1 forward I I I I #
face $-1 $145 $146 $48 $-1 $147 reversed single #
loop $-1 $-1 $148 $61 #
plane-surface $-1 59.452879052482061 -42.568610599167314 8.4255094464070055 0 -0.80901700255871778 0.5877852410284794 1 0 0 forward_v I I I I #
face $-1 $149 $150 $49 $-1 $151 forward single #
loop $-1 $152 $153 $62 #
cone-surface $-1 54.468824752351068 -39.67896690125211 9.9623890697083386 0 0.80901700255871778 -0.5877852410284794 1 0 0 1 I I 0 1 1 forward I I I I #
face $-1 $154 $155 $50 $-1 $156 forward single #
loop $-1 $157 $158 $63 #
cone-surface $-1 59.452879052482061 -39.67896690125211 9.9623890697083386 0 0.80901700255871778 -0.5877852410284794 1 0 0 1 I I 0 1 1 forward I I I I #
face $-1 $159 $160 $51 $-1 $161 forward single #
loop $-1 $162 $163 $64 #
cone-surface $-1 64.436933352613039 -39.67896690125211 9.9623890697083386 0 0.80901700255871778 -0.5877852410284794 1 0 0 1 I I 0 1 1 forward I I I I #
face $-1 $164 $165 $39 $-1 $166 reversed single #
loop $-1 $-1 $167 $65 #
plane-surface $-1 0 0 -13.185525476126847 0 0 1 1 0 0 forward_v I I I I #
coedge $-1 $168 $169 $170 $171 forward $66 $-1 #
face $-1 $172 $173 $40 $-1 $174 reversed single #
loop $-1 $-1 $175 $68 #
plane-surface $-1 -52.222075686706134 0 11.685525476126847 -1 0 0 0 0 1 forward_v I I I I #
coedge $-1 $176 $177 $175 $178 forward $69 $-1 #
face $-1 $179 $180 $41 $-1 $181 reversed single #
loop $-1 $-1 $182 $71 #
plane-surface $-1 23.150788800213178 -27.171717749856143 51.386313128200769 0 0.57357644374324357 0.81915203911291934 1 0 0 forward_v I I I I #
coedge $-1 $183 $184 $185 $186 reversed $72 $-1 #
face $-1 $-1 $187 $42 $-1 $188 forward single #
loop $-1 $189 $190 $74 #
cone-surface $-1 16.651676965918995 25.441020981896159 -5.7487012594162135 0 -0.57357644374324357 -0.81915203911291934 2 0 0 1 I I -0.70710678118654746 0.70710678118654746 2 forward I I I I #
loop $-1 $-1 $191 $55 #
coedge $-1 $120 $120 $192 $193 reversed $75 $-1 #
face $-1 $-1 $194 $43 $-1 $195 forward single #
loop $-1 $196 $197 $77 #
cone-surface $-1 29.649900634507347 25.441020981896159 -5.7487012594162135 0 -0.57357644374324357 -0.81915203911291934 2 0 0 1 I I -0.70710678118654746 0.70710678118654746 2 forward I I I I #
loop $-1 $-1 $198 $56 #
coedge $-1 $125 $125 $199 $200 reversed $78 $-1 #
face $-1 $201 $202 $44 $-1 $203 forward single #
loop $-1 $-1 $204 $80 #
plane-surface $-1 -43.915318519821156 -42.568610599167314 8.4255094464070055 0 -0.80901700255871778 0.5877852410284794 1 0 0 forward_v I I I I #
coedge $-1 $205 $206 $207 $208 reversed $81 $-1 #
face $-1 $-1 $209 $45 $-1 $210 forward single #
loop $-1 $211 $212 $83 #
cone-surface $-1 -48.899372819952148 -38.113991691218104 8.8253680576355169 0 0.80901700255871778 -0.5877852410284794 0.5 0 0 1 I I -0.70710678118654746 0.70710678118654746 0.5 forward I I I I #
loop $-1 $-1 $213 $58 #
coedge $-1 $134 $134 $214 $215 reversed $84 $-1 #
face $-1 $-1 $216 $46 $-1 $217 forward single #
loop $-1 $218 $219 $86 #
cone-surface $-1 -43.915318519821156 -38.113991691218104 8.8253680576355169 0 0.80901700255871778 -0.5877852410284794 0.5 0 0 1 I I -0.70710678118654746 0.70710678118654746 0.5 forward I I I I #
loop $-1 $-1 $220 $59 #
coedge $-1 $139 $139 $221 $222 reversed $87 $-1 #
face $-1 $-1 $223 $47 $-1 $224 forward single #
loop $-1 $225 $226 $89 #
cone-surface $-1 -38.931264219690178 -38.113991691218104 8.8253680576355169 0 0.80901700255871778 -0.5877852410284794 0.5 0 0 1 I I -0.70710678118654746 0.70710678118654746 0.5 forward I I I I #
loop $-1 $-1 $227 $60 #
coedge $-1 $144 $144 $228 $229 reversed $90 $-1 #
face $-1 $230 $231 $48 $-1 $232 forward single #
loop $-1 $-1 $233 $92 #
plane-surface $-1 51.146121885597083 -152.20600617649023 88.081737660812493 1 0 0 0 0.80901700255871778 -0.5877852410284794 forward_v I I I I #
coedge $-1 $234 $235 $236 $237 reversed $93 $-1 #
face $-1 $-1 $238 $49 $-1 $239 forward single #
loop $-1 $240 $241 $95 #
cone-surface $-1 54.468824752351068 -38.113991691218104 8.8253680576355169 0 0.80901700255871778 -0.5877852410284794 0.5 0 0 1 I I -0.70710678118654746 0.70710678118654746 0.5 forward I I I I #
loop $-1 $-1 $242 $62 #
coedge $-1 $153 $153 $243 $244 reversed $96 $-1 #
face $-1 $-1 $245 $50 $-1 $246 forward single #
loop $-1 $247 $248 $98 #
cone-surface $-1 59.452879052482061 -38.113991691218104 8.8253680576355169 0 0.80901700255871778 -0.5877852410284794 0.5 0 0 1 I I -0.70710678118654746 0.70710678118654746 0.5 forward I I I I #
loop $-1 $-1 $249 $63 #
coedge $-1 $158 $158 $250 $251 reversed $99 $-1 #
face $-1 $-1 $252 $51 $-1 $253 forward single #
loop $-1 $254 $255 $101 #
cone-surface $-1 64.436933352613039 -38.113991691218104 8.8253680576355169 0 0.80901700255871778 -0.5877852410284794 0.5 0 0 1 I I -0.70710678118654746 0.70710678118654746 0.5 forward I I I I #
loop $-1 $-1 $256 $64 #
coedge $-1 $163 $163 $257 $258 reversed $102 $-1 #
face $-1 $259 $260 $39 $-1 $261 reversed single #
loop $-1 $-1 $262 $104 #
plane-surface $-1 0 -42.568610599167286 0 0 1 0 0 0 1 forward_v I I I I #
coedge $-1 $263 $264 $265 $266 forward $105 $-1 #
coedge $-1 $267 $107 $268 $269 forward $66 $-1 #
coedge $-1 $107 $267 $270 $271 forward $66 $-1 #
coedge $-1 $272 $273 $107 $171 reversed $274 $-1 #
edge $-1 $275 -42.568610599167286 $276 42.568610599167286 $170 $277 forward 7 unknown #
face $-1 $278 $279 $40 $-1 $280 reversed single #
loop $-1 $-1 $281 $108 #
plane-surface $-1 0 42.568610599167286 0 0 -1 0 0 0 -1 forward_v I I I I #
coedge $-1 $282 $283 $111 $178 reversed $109 $-1 #
coedge $-1 $284 $111 $285 $286 reversed $69 $-1 #
coedge $-1 $111 $284 $287 $288 reversed $69 $-1 #
edge $-1 $289 -42.568610599167286 $290 42.568610599167286 $175 $291 forward 7 unknown #
face $-1 $292 $293 $41 $-1 $294 forward single #
loop $-1 $-1 $295 $112 #
plane-surface $-1 38.31538308023292 50.558944594224727 162.39720148548906 -1 0 0 0 0.57357644374324357 0.81915203911291934 forward_v I I I I #
coedge $-1 $296 $297 $298 $299 reversed $113 $-1 #
coedge $-1 $184 $115 $300 $301 reversed $72 $-1 #
coedge $-1 $115 $183 $296 $302 reversed $72 $-1 #
coedge $-1 $298 $303 $115 $186 forward $293 $-1 #
edge $-1 $304 -17.289138302054923 $305 -2.105187646470533 $185 $306 forward 7 unknown #
loop $-1 $-1 $192 $116 #
plane-surface $-1 23.150788800213178 -27.171717749856143 51.386313128200769 0 0.57357644374324357 0.81915203911291934 1 0 0 forward_v I I I I #
loop $-1 $-1 $307 $74 #
coedge $-1 $190 $190 $191 $308 reversed $117 $-1 #
coedge $-1 $191 $191 $190 $308 forward $119 $-1 #
coedge $-1 $192 $192 $120 $193 forward $187 $-1 #
edge $-1 $309 9.2661100073831691e-016 $309 6.2831853071796013 $192 $310 forward 7 unknown #
loop $-1 $-1 $199 $121 #
plane-surface $-1 23.150788800213178 -27.171717749856143 51.386313128200769 0 0.57357644374324357 0.81915203911291934 1 0 0 forward_v I I I I #
loop $-1 $-1 $311 $77 #
coedge $-1 $197 $197 $198 $312 reversed $122 $-1 #
coedge $-1 $198 $198 $197 $312 forward $124 $-1 #
coedge $-1 $199 $199 $125 $200 forward $194 $-1 #
edge $-1 $313 9.2661100073831691e-016 $313 6.2831853071796013 $199 $314 forward 7 unknown #
face $-1 $315 $316 $44 $-1 $317 forward single #
loop $-1 $-1 $318 $126 #
plane-surface $-1 -52.222075686706134 0 11.685525476126847 -1 0 0 0 0 1 forward_v I I I I #
coedge $-1 $319 $320 $321 $322 reversed $127 $-1 #
coedge $-1 $206 $129 $323 $324 reversed $81 $-1 #
coedge $-1 $129 $205 $319 $325 reversed $81 $-1 #
coedge $-1 $321 $326 $129 $208 forward $316 $-1 #
edge $-1 $327 33.534392489077831 $328 36.992746467398838 $207 $329 forward 7 unknown #
loop $-1 $-1 $214 $130 #
plane-surface $-1 -43.915318519821156 -42.568610599167314 8.4255094464070055 0 -0.80901700255871778 0.5877852410284794 1 0 0 forward_v I I I I #
loop $-1 $-1 $330 $83 #
coedge $-1 $212 $212 $213 $331 reversed $131 $-1 #
coedge $-1 $213 $213 $212 $331 forward $133 $-1 #
coedge $-1 $214 $214 $134 $215 forward $209 $-1 #
edge $-1 $332 -5.3937330024379315e-016 $332 6.2831853071795996 $214 $333 forward 7 unknown #
loop $-1 $-1 $221 $135 #
plane-surface $-1 -43.915318519821156 -42.568610599167314 8.4255094464070055 0 -0.80901700255871778 0.5877852410284794 1 0 0 forward_v I I I I #
loop $-1 $-1 $334 $86 #
coedge $-1 $219 $219 $220 $335 reversed $136 $-1 #
coedge $-1 $220 $220 $219 $335 forward $138 $-1 #
coedge $-1 $221 $221 $139 $222 forward $216 $-1 #
edge $-1 $336 -5.3937330024379315e-016 $336 6.2831853071795996 $221 $337 forward 7 unknown #
loop $-1 $-1 $228 $140 #
plane-surface $-1 -43.915318519821156 -42.568610599167314 8.4255094464070055 0 -0.80901700255871778 0.5877852410284794 1 0 0 forward_v I I I I #
loop $-1 $-1 $338 $89 #
coedge $-1 $226 $226 $227 $339 reversed $141 $-1 #
coedge $-1 $227 $227 $226 $339 forward $143 $-1 #
coedge $-1 $228 $228 $144 $229 forward $223 $-1 #
edge $-1 $340 -5.3937330024379315e-016 $340 6.2831853071795996 $228 $341 forward 7 unknown #
face $-1 $342 $343 $48 $-1 $344 reversed single #
loop $-1 $-1 $236 $145 #
plane-surface $-1 0 0 13.185525476126847 0 0 1 1 0 0 forward_v I I I I #
coedge $-1 $345 $346 $347 $348 reversed $146 $-1 #
coedge $-1 $349 $148 $350 $351 reversed $93 $-1 #
coedge $-1 $148 $349 $345 $352 forward $93 $-1 #
coedge $-1 $347 $353 $148 $237 forward $231 $-1 #
edge $-1 $354 -38.033196693126008 $355 -21.419682359356052 $236 $356 forward 7 unknown #
loop $-1 $-1 $243 $149 #
plane-surface $-1 59.452879052482061 -42.568610599167314 8.4255094464070055 0 -0.80901700255871778 0.5877852410284794 1 0 0 forward_v I I I I #
loop $-1 $-1 $357 $95 #
coedge $-1 $241 $241 $242 $358 reversed $150 $-1 #
coedge $-1 $242 $242 $241 $358 forward $152 $-1 #
coedge $-1 $243 $243 $153 $244 forward $238 $-1 #
edge $-1 $359 -5.3937330024379315e-016 $359 6.2831853071795996 $243 $360 forward 7 unknown #
loop $-1 $-1 $250 $154 #
plane-surface $-1 59.452879052482061 -42.568610599167314 8.4255094464070055 0 -0.80901700255871778 0.5877852410284794 1 0 0 forward_v I I I I #
loop $-1 $-1 $361 $98 #
coedge $-1 $248 $248 $249 $362 reversed $155 $-1 #
coedge $-1 $249 $249 $248 $362 forward $157 $-1 #
coedge $-1 $250 $250 $158 $251 forward $245 $-1 #
edge $-1 $363 -5.3937330024379315e-016 $363 6.2831853071795996 $250 $364 forward 7 unknown #
loop $-1 $-1 $257 $159 #
plane-surface $-1 59.452879052482061 -42.568610599167314 8.4255094464070055 0 -0.80901700255871778 0.5877852410284794 1 0 0 forward_v I I I I #
loop $-1 $-1 $365 $101 #
coedge $-1 $255 $255 $256 $366 reversed $160 $-1 #
coedge $-1 $256 $256 $255 $366 forward $162 $-1 #
coedge $-1 $257 $257 $163 $258 forward $252 $-1 #
edge $-1 $367 -5.3937330024379315e-016 $367 6.2831853071795996 $257 $368 forward 7 unknown #
face $-1 $369 $370 $39 $-1 $371 reversed single #
loop $-1 $-1 $372 $164 #
plane-surface $-1 -67.759636219367053 0 0 1 0 0 0 0 -1 forward_v I I I I #
coedge $-1 $373 $270 $374 $375 forward $165 $-1 #
coedge $-1 $376 $167 $373 $377 forward $105 $-1 #
coedge $-1 $167 $376 $378 $379 forward $105 $-1 #
coedge $-1 $273 $272 $167 $266 reversed $274 $-1 #
edge $-1 $380 -42.568610599167286 $381 42.568610599167286 $265 $382 forward 7 unknown #
coedge $-1 $169 $168 $383 $384 forward $66 $-1 #
coedge $-1 $385 $386 $168 $269 reversed $370 $-1 #
edge $-1 $276 -67.759636219367053 $387 67.759636219367053 $268 $388 forward 7 unknown #
coedge $-1 $262 $389 $169 $271 reversed $165 $-1 #
edge $-1 $390 -67.759636219367053 $275 67.759636219367053 $270 $391 forward 7 unknown #
coedge $-1 $265 $170 $389 $392 forward $274 $-1 #
coedge $-1 $170 $265 $385 $393 reversed $274 $-1 #
loop $-1 $-1 $272 $369 #
vertex $-1 $171 $394 #
vertex $-1 $171 $395 #
straight-curve $-1 67.759636219367053 0 13.185525476126847 0 1 0 I I #
face $-1 $396 $397 $40 $-1 $398 forward single #
loop $-1 $-1 $399 $172 #
plane-surface $-1 -67.759636219367053 0 0 1 0 0 0 0 -1 forward_v I I I I #
coedge $-1 $287 $400 $282 $401 forward $173 $-1 #
coedge $-1 $402 $175 $281 $401 reversed $109 $-1 #
coedge $-1 $175 $402 $403 $404 reversed $109 $-1 #
coedge $-1 $177 $176 $399 $405 reversed $69 $-1 #
coedge $-1 $403 $406 $176 $286 forward $407 $-1 #
edge $-1 $408 -37.764208242848753 $290 -22.226647710187837 $285 $409 forward 7 unknown #
coedge $-1 $410 $281 $177 $288 forward $173 $-1 #
edge $-1 $289 22.226647710187837 $411 37.764208242848753 $287 $412 forward 7 unknown #
vertex $-1 $288 $413 #
vertex $-1 $286 $414 #
straight-curve $-1 -52.222075686706134 0 10.185525476126847 0 -1 0 I I #
face $-1 $-1 $415 $41 $-1 $416 reversed single #
loop $-1 $-1 $185 $179 #
plane-surface $-1 0 0 13.185525476126847 0 0 1 1 0 0 forward_v I I I I #
coedge $-1 $417 $418 $419 $420 reversed $180 $-1 #
coedge $-1 $421 $182 $184 $302 forward $113 $-1 #
coedge $-1 $182 $421 $417 $422 forward $113 $-1 #
coedge $-1 $419 $185 $182 $299 forward $293 $-1 #
edge $-1 $305 -3.5891998799131528 $423 26.739988680126331 $298 $424 forward 7 unknown #
coedge $-1 $425 $426 $183 $301 forward $415 $-1 #
edge $-1 $427 -78.644992179666389 $304 -68.01307526661769 $300 $428 forward 7 unknown #
edge $-1 $305 66.601039963862547 $427 85.137221198334572 $184 $429 forward 7 unknown #
coedge $-1 $185 $419 $425 $430 forward $293 $-1 #
vertex $-1 $301 $431 #
vertex $-1 $186 $432 #
straight-curve $-1 7.9861945201934361 25.279472297112363 13.185525476126841 0 -1 0 I I #
coedge $-1 $307 $307 $-1 $433 reversed $189 $-1 #
edge $-1 $434 0 $434 6.2831853071796004 $190 $435 forward 7 unknown #
vertex $-1 $193 $436 #
ellipse-curve $-1 16.651676965918995 34.976635271375095 7.8695670196024805 0 0.57357644374324357 0.81915203911291934 4 0 0 1 I I #
coedge $-1 $311 $311 $-1 $437 reversed $196 $-1 #
edge $-1 $438 0 $438 6.2831853071796004 $197 $439 forward 7 unknown #
vertex $-1 $200 $440 #
ellipse-curve $-1 29.649900634507347 34.976635271375095 7.8695670196024805 0 0.57357644374324357 0.81915203911291934 4 0 0 1 I I #
face $-1 $-1 $441 $44 $-1 $442 reversed single #
loop $-1 $-1 $321 $201 #
plane-surface $-1 0 0 13.185525476126847 0 0 1 1 0 0 forward_v I I I I #
coedge $-1 $443 $444 $320 $445 reversed $202 $-1 #
coedge $-1 $446 $204 $206 $325 forward $127 $-1 #
coedge $-1 $204 $446 $318 $445 forward $127 $-1 #
coedge $-1 $447 $207 $204 $322 forward $316 $-1 #
edge $-1 $328 13.6509020930256 $448 30.264416426795556 $321 $449 forward 7 unknown #
coedge $-1 $450 $451 $205 $324 forward $441 $-1 #
edge $-1 $452 -35.615359383999206 $327 -30.855343354279398 $323 $453 forward 7 unknown #
edge $-1 $328 -5.8837033272046249 $452 -4.8322124813089328e-014 $206 $454 forward 7 unknown #
coedge $-1 $207 $447 $450 $455 forward $316 $-1 #
vertex $-1 $324 $456 #
vertex $-1 $208 $457 #
straight-curve $-1 -35.608561352936178 -76.103003088245117 13.185525476126848 0 1 0 I I #
coedge $-1 $330 $330 $-1 $458 reversed $211 $-1 #
edge $-1 $459 0 $459 6.2831853071796004 $212 $460 forward 7 unknown #
vertex $-1 $215 $461 #
ellipse-curve $-1 -48.899372819952148 -40.839433610006786 10.805517461266941 0 -0.80901700255871778 0.5877852410284794 1 0 0 1 I I #
coedge $-1 $334 $334 $-1 $462 reversed $218 $-1 #
edge $-1 $463 0 $463 6.2831853071796004 $219 $464 forward 7 unknown #
vertex $-1 $222 $465 #
ellipse-curve $-1 -43.915318519821156 -40.839433610006786 10.805517461266941 0 -0.80901700255871778 0.5877852410284794 1 0 0 1 I I #
coedge $-1 $338 $338 $-1 $466 reversed $225 $-1 #
edge $-1 $467 0 $467 6.2831853071796004 $226 $468 forward 7 unknown #
vertex $-1 $229 $469 #
ellipse-curve $-1 -38.931264219690178 -40.839433610006786 10.805517461266941 0 -0.80901700255871778 0.5877852410284794 1 0 0 1 I I #
face $-1 $-1 $470 $48 $-1 $471 reversed single #
loop $-1 $-1 $472 $230 #
plane-surface $-1 0 -42.568610599167286 0 0 1 0 0 0 1 forward_v I I I I #
coedge $-1 $346 $233 $235 $352 reversed $146 $-1 #
coedge $-1 $233 $345 $473 $474 reversed $146 $-1 #
coedge $-1 $475 $236 $233 $348 forward $231 $-1 #
edge $-1 $355 -36.992746467398838 $476 -33.534392489077831 $347 $477 forward 7 unknown #
coedge $-1 $235 $234 $472 $478 reversed $93 $-1 #
coedge $-1 $479 $480 $234 $351 forward $470 $-1 #
edge $-1 $481 -9.1024103219582955 $354 -3.2187069947537195 $350 $482 forward 7 unknown #
edge $-1 $483 4.8322124813089328e-014 $355 5.8837033272046249 $345 $484 forward 7 unknown #
coedge $-1 $236 $475 $479 $485 forward $231 $-1 #
vertex $-1 $237 $486 #
vertex $-1 $237 $487 #
straight-curve $-1 29.72643952624103 -39.110256620846279 13.185525476126848 -1 0 0 I I #
coedge $-1 $357 $357 $-1 $488 reversed $240 $-1 #
edge $-1 $489 0 $489 6.2831853071796004 $241 $490 forward 7 unknown #
vertex $-1 $244 $491 #
ellipse-curve $-1 54.468824752351068 -40.839433610006786 10.805517461266941 0 -0.80901700255871778 0.5877852410284794 1 0 0 1 I I #
coedge $-1 $361 $361 $-1 $492 reversed $247 $-1 #
edge $-1 $493 0 $493 6.2831853071796004 $248 $494 forward 7 unknown #
vertex $-1 $251 $495 #
ellipse-curve $-1 59.452879052482061 -40.839433610006786 10.805517461266941 0 -0.80901700255871778 0.5877852410284794 1 0 0 1 I I #
coedge $-1 $365 $365 $-1 $496 reversed $254 $-1 #
edge $-1 $497 0 $497 6.2831853071796004 $255 $498 forward 7 unknown #
vertex $-1 $258 $499 #
ellipse-curve $-1 64.436933352613039 -40.839433610006786 10.805517461266941 0 -0.80901700255871778 0.5877852410284794 1 0 0 1 I I #
face $-1 $-1 $274 $39 $-1 $500 reversed single #
loop $-1 $-1 $385 $259 #
plane-surface $-1 0 42.568610599167286 0 0 -1 0 0 0 -1 forward_v I I I I #
coedge $-1 $501 $383 $386 $502 forward $260 $-1 #
coedge $-1 $389 $262 $263 $377 reversed $165 $-1 #
coedge $-1 $383 $501 $262 $375 reversed $260 $-1 #
edge $-1 $390 -13.185525476126847 $503 13.185525476126847 $374 $504 forward 7 unknown #
coedge $-1 $264 $263 $501 $505 forward $105 $-1 #
edge $-1 $381 -67.759636219367053 $503 67.759636219367053 $373 $506 forward 7 unknown #
coedge $-1 $386 $385 $264 $379 reversed $370 $-1 #
edge $-1 $507 -67.759636219367053 $380 67.759636219367053 $378 $508 forward 7 unknown #
vertex $-1 $266 $509 #
vertex $-1 $392 $510 #
straight-curve $-1 67.759636219367053 0 -13.185525476126847 0 -1 0 I I #
coedge $-1 $372 $374 $267 $384 reversed $260 $-1 #
edge $-1 $387 -42.568610599167286 $390 42.568610599167286 $383 $511 forward 7 unknown #
coedge $-1 $378 $268 $273 $393 forward $370 $-1 #
coedge $-1 $268 $378 $372 $502 reversed $370 $-1 #
vertex $-1 $269 $512 #
straight-curve $-1 0 42.568610599167286 13.185525476126847 -1 0 0 I I #
coedge $-1 $270 $373 $272 $392 reversed $165 $-1 #
vertex $-1 $384 $513 #
straight-curve $-1 0 -42.568610599167286 13.185525476126847 1 0 0 I I #
edge $-1 $275 -13.185525476126847 $381 13.185525476126847 $272 $514 forward 7 unknown #
edge $-1 $276 -13.185525476126847 $380 13.185525476126847 $273 $515 forward 7 unknown #
point $-1 67.759636219367053 -42.568610599167286 13.185525476126847 #
point $-1 67.759636219367053 42.568610599167286 13.185525476126847 #
face $-1 $-1 $407 $40 $-1 $516 reversed single #
loop $-1 $-1 $517 $278 #
plane-surface $-1 0 0 13.185525476126847 0 0 1 1 0 0 forward_v I I I I #
coedge $-1 $518 $519 $284 $405 forward $279 $-1 #
coedge $-1 $281 $410 $520 $521 reversed $173 $-1 #
edge $-1 $522 -7.3427627380634233 $289 -4.3427627380634233 $281 $523 forward 7 unknown #
coedge $-1 $283 $282 $517 $524 reversed $109 $-1 #
coedge $-1 $525 $285 $283 $404 forward $407 $-1 #
edge $-1 $290 4.3427627380634233 $526 7.3427627380634233 $403 $527 forward 7 unknown #
edge $-1 $411 -42.568610599167286 $408 42.568610599167286 $399 $528 forward 7 unknown #
coedge $-1 $285 $525 $518 $529 forward $407 $-1 #
loop $-1 $-1 $403 $396 #
vertex $-1 $405 $530 #
straight-curve $-1 -29.995427976518297 -42.568610599167286 10.185525476126847 1 0 0 I I #
coedge $-1 $400 $287 $519 $531 reversed $173 $-1 #
vertex $-1 $405 $532 #
straight-curve $-1 -29.995427976518297 42.568610599167286 10.185525476126847 -1 0 0 I I #
point $-1 -52.222075686706134 42.568610599167286 10.185525476126847 #
point $-1 -52.222075686706134 -42.568610599167286 10.185525476126847 #
loop $-1 $-1 $300 $292 #
plane-surface $-1 0 42.568610599167286 0 0 -1 0 0 0 -1 forward_v I I I I #
coedge $-1 $418 $295 $297 $422 reversed $180 $-1 #
coedge $-1 $295 $417 $533 $534 reversed $180 $-1 #
coedge $-1 $303 $298 $295 $420 forward $293 $-1 #
edge $-1 $423 2.105187646470533 $535 17.289138302054923 $419 $536 forward 7 unknown #
coedge $-1 $297 $296 $426 $537 reversed $113 $-1 #
edge $-1 $538 -85.137221198334572 $423 -66.601039963862547 $417 $539 forward 7 unknown #
vertex $-1 $299 $540 #
straight-curve $-1 11.575394400106589 27.384659943582879 13.185525476126848 1 0 0 I I #
coedge $-1 $533 $300 $303 $430 reversed $415 $-1 #
coedge $-1 $300 $533 $421 $537 forward $415 $-1 #
vertex $-1 $301 $541 #
straight-curve $-1 7.9861945201934361 42.568610599167286 81.198600742744532 0 0 1 I I #
straight-curve $-1 7.9861945201934361 -27.171717749856143 51.386313128200769 0 0.81915203911291934 -0.57357644374324357 I I #
edge $-1 $535 -38.31538308023292 $304 -7.9861945201934361 $425 $542 forward 7 unknown #
point $-1 7.9861945201934361 42.568610599167286 13.185525476126847 #
point $-1 7.9861945201934361 27.384659943582896 13.185525476126848 #
edge $-1 $543 1 $543 0 $307 $-1 forward 7 unknown #
vertex $-1 $308 $544 #
ellipse-curve $-1 16.651676965918995 26.588173869382647 -4.1103971811903746 0 0.57357644374324357 0.81915203911291934 4 0 0 1 I I #
point $-1 20.651676965918995 34.976635271375116 7.8695670196025045 #
edge $-1 $545 1 $545 0 $311 $-1 forward 7 unknown #
vertex $-1 $312 $546 #
ellipse-curve $-1 29.649900634507347 26.588173869382647 -4.1103971811903746 0 0.57357644374324357 0.81915203911291934 4 0 0 1 I I #
point $-1 33.649900634507347 34.976635271375116 7.8695670196025045 #
loop $-1 $-1 $323 $315 #
plane-surface $-1 0 -42.568610599167286 0 0 1 0 0 0 1 forward_v I I I I #
coedge $-1 $444 $318 $547 $548 reversed $202 $-1 #
coedge $-1 $318 $443 $447 $549 reversed $202 $-1 #
edge $-1 $550 4.8322124813089328e-014 $448 5.8837033272046249 $318 $551 forward 7 unknown #
coedge $-1 $320 $319 $451 $552 reversed $127 $-1 #
coedge $-1 $326 $321 $444 $549 forward $316 $-1 #
vertex $-1 $549 $553 #
straight-curve $-1 -21.957659259910578 -39.110256620846279 13.185525476126848 -1 0 0 I I #
coedge $-1 $547 $323 $326 $455 reversed $441 $-1 #
coedge $-1 $323 $547 $446 $552 forward $441 $-1 #
vertex $-1 $324 $554 #
straight-curve $-1 -35.608561352936178 -42.568610599167286 44.040868830406247 0 0 1 I I #
straight-curve $-1 -35.608561352936178 -42.568610599167314 8.4255094464070055 0 -0.5877852410284794 -0.80901700255871778 I I #
edge $-1 $555 -52.222075686706134 $327 -35.608561352936178 $450 $556 forward 7 unknown #
point $-1 -35.608561352936178 -42.568610599167286 13.185525476126847 #
point $-1 -35.608561352936178 -39.110256620846279 13.185525476126847 #
edge $-1 $557 1 $557 0 $330 $-1 forward 7 unknown #
vertex $-1 $331 $558 #
ellipse-curve $-1 -48.899372819952148 -38.518500192497463 9.1192606781497574 0 -0.80901700255871778 0.5877852410284794 1 0 0 1 I I #
point $-1 -47.899372819952148 -40.839433610006758 10.80551746126692 #
edge $-1 $559 1 $559 0 $334 $-1 forward 7 unknown #
vertex $-1 $335 $560 #
ellipse-curve $-1 -43.915318519821156 -38.518500192497463 9.1192606781497574 0 -0.80901700255871778 0.5877852410284794 1 0 0 1 I I #
point $-1 -42.915318519821156 -40.839433610006758 10.80551746126692 #
edge $-1 $561 1 $561 0 $338 $-1 forward 7 unknown #
vertex $-1 $339 $562 #
ellipse-curve $-1 -38.931264219690178 -38.518500192497463 9.1192606781497574 0 -0.80901700255871778 0.5877852410284794 1 0 0 1 I I #
point $-1 -37.931264219690178 -40.839433610006758 10.80551746126692 #
loop $-1 $-1 $350 $342 #
plane-surface $-1 67.759636219367053 0 0 -1 0 0 0 0 1 forward_v I I I I #
coedge $-1 $563 $473 $349 $478 forward $343 $-1 #
coedge $-1 $472 $564 $346 $474 forward $343 $-1 #
edge $-1 $476 30.855343354279398 $483 35.615359383999206 $473 $565 forward 7 unknown #
coedge $-1 $353 $347 $564 $566 forward $231 $-1 #
vertex $-1 $566 $567 #
straight-curve $-1 51.146121885597083 -76.103003088245117 13.185525476126848 0 -1 0 I I #
edge $-1 $483 21.419682359356052 $481 38.033196693126008 $472 $568 forward 7 unknown #
coedge $-1 $480 $350 $353 $485 reversed $470 $-1 #
coedge $-1 $350 $479 $563 $569 forward $470 $-1 #
vertex $-1 $478 $570 #
straight-curve $-1 67.759636219367053 -37.218348154134908 15.789514161137276 0 0.5877852410284794 0.80901700255871778 I I #
vertex $-1 $478 $571 #
straight-curve $-1 51.146121885597083 -42.568610599167314 8.4255094464070055 0 0.5877852410284794 0.80901700255871778 I I #
edge $-1 $572 -42.568610599167286 $354 -39.110256620846279 $479 $573 forward 7 unknown #
point $-1 67.759636219367039 -39.110256620846279 13.185525476126847 #
point $-1 51.146121885597083 -39.110256620846279 13.185525476126847 #
edge $-1 $574 1 $574 0 $357 $-1 forward 7 unknown #
vertex $-1 $358 $575 #
ellipse-curve $-1 54.468824752351068 -38.518500192497463 9.1192606781497574 0 -0.80901700255871778 0.5877852410284794 1 0 0 1 I I #
point $-1 55.468824752351068 -40.839433610006758 10.80551746126692 #
edge $-1 $576 1 $576 0 $361 $-1 forward 7 unknown #
vertex $-1 $362 $577 #
ellipse-curve $-1 59.452879052482061 -38.518500192497463 9.1192606781497574 0 -0.80901700255871778 0.5877852410284794 1 0 0 1 I I #
point $-1 60.452879052482061 -40.839433610006758 10.80551746126692 #
edge $-1 $578 1 $578 0 $365 $-1 forward 7 unknown #
vertex $-1 $366 $579 #
ellipse-curve $-1 64.436933352613039 -38.518500192497463 9.1192606781497574 0 -0.80901700255871778 0.5877852410284794 1 0 0 1 I I #
point $-1 65.436933352613039 -40.839433610006758 10.80551746126692 #
plane-surface $-1 67.759636219367053 0 0 -1 0 0 0 0 1 forward_v I I I I #
coedge $-1 $374 $372 $376 $505 reversed $260 $-1 #
edge $-1 $387 -13.185525476126847 $507 13.185525476126847 $386 $580 forward 7 unknown #
vertex $-1 $505 $581 #
straight-curve $-1 -67.759636219367053 -42.568610599167286 0 0 0 -1 I I #
edge $-1 $503 -42.568610599167286 $507 42.568610599167286 $501 $582 forward 7 unknown #
straight-curve $-1 0 -42.568610599167286 -13.185525476126847 -1 0 0 I I #
vertex $-1 $379 $583 #
straight-curve $-1 0 42.568610599167286 -13.185525476126847 1 0 0 I I #
point $-1 67.759636219367053 42.568610599167286 -13.185525476126847 #
point $-1 67.759636219367053 -42.568610599167286 -13.185525476126847 #
straight-curve $-1 -67.759636219367053 0 13.185525476126847 0 -1 0 I I #
point $-1 -67.759636219367053 42.568610599167286 13.185525476126847 #
point $-1 -67.759636219367053 -42.568610599167286 13.185525476126847 #
straight-curve $-1 67.759636219367053 -42.568610599167286 0 0 0 -1 I I #
straight-curve $-1 67.759636219367053 42.568610599167286 0 0 0 -1 I I #
plane-surface $-1 0 -42.568610599167286 0 0 1 0 0 0 1 forward_v I I I I #
coedge $-1 $520 $584 $402 $524 forward $397 $-1 #
coedge $-1 $585 $399 $406 $529 reversed $279 $-1 #
coedge $-1 $399 $585 $410 $531 forward $279 $-1 #
coedge $-1 $586 $517 $400 $521 forward $397 $-1 #
edge $-1 $522 52.222075686706134 $587 67.759636219367053 $400 $588 forward 7 unknown #
vertex $-1 $521 $589 #
straight-curve $-1 -52.222075686706134 42.568610599167286 5.8427627380634233 0 0 -1 I I #
edge $-1 $526 -42.568610599167286 $522 42.568610599167286 $517 $590 forward 7 unknown #
coedge $-1 $406 $403 $584 $591 reversed $407 $-1 #
vertex $-1 $404 $592 #
straight-curve $-1 -52.222075686706134 -42.568610599167286 5.8427627380634233 0 0 1 I I #
straight-curve $-1 -67.759636219367053 0 10.185525476126847 0 -1 0 I I #
edge $-1 $593 -13.185525476126847 $408 -10.185525476126847 $518 $594 forward 7 unknown #
point $-1 -67.759636219367053 -42.568610599167286 10.185525476126847 #
edge $-1 $587 -13.185525476126847 $411 -10.185525476126847 $410 $595 forward 7 unknown #
point $-1 -67.759636219367053 42.568610599167286 10.185525476126847 #
coedge $-1 $426 $425 $418 $534 forward $415 $-1 #
edge $-1 $535 68.01307526661769 $538 78.644992179666389 $533 $596 forward 7 unknown #
vertex $-1 $430 $597 #
straight-curve $-1 38.31538308023292 25.279472297112363 13.185525476126841 0 1 0 I I #
edge $-1 $538 -26.739988680126331 $427 3.5891998799131528 $426 $598 forward 7 unknown #
vertex $-1 $537 $599 #
straight-curve $-1 38.31538308023292 -27.171717749856143 51.386313128200769 0 -0.81915203911291934 0.57357644374324357 I I #
point $-1 38.31538308023292 27.384659943582896 13.185525476126848 #
point $-1 7.9861945201934361 42.568610599167286 2.5536085630781358 #
straight-curve $-1 0 42.568610599167286 13.185525476126847 -1 0 0 I I #
vertex $-1 $433 $600 #
point $-1 20.651676965918995 26.588173869382647 -4.1103971811903746 #
vertex $-1 $437 $601 #
point $-1 33.649900634507347 26.588173869382647 -4.1103971811903746 #
coedge $-1 $451 $450 $443 $548 forward $441 $-1 #
edge $-1 $555 30.855343354279398 $550 35.615359383999206 $547 $602 forward 7 unknown #
edge $-1 $448 39.110256620846279 $555 42.568610599167286 $447 $603 forward 7 unknown #
vertex $-1 $548 $604 #
straight-curve $-1 -52.222075686706134 -42.568610599167314 8.4255094464070055 0 0.5877852410284794 0.80901700255871778 I I #
edge $-1 $550 -30.264416426795556 $452 -13.6509020930256 $451 $605 forward 7 unknown #
point $-1 -52.222075686706134 -39.110256620846279 13.185525476126847 #
point $-1 -35.608561352936178 -42.568610599167286 8.4255094464070446 #
vertex $-1 $455 $606 #
straight-curve $-1 0 -42.568610599167286 13.185525476126847 1 0 0 I I #
vertex $-1 $458 $607 #
point $-1 -47.899372819952148 -38.518500192497463 9.1192606781497574 #
vertex $-1 $462 $608 #
point $-1 -42.915318519821156 -38.518500192497463 9.1192606781497574 #
vertex $-1 $466 $609 #
point $-1 -37.931264219690178 -38.518500192497463 9.1192606781497574 #
coedge $-1 $564 $472 $480 $569 reversed $343 $-1 #
coedge $-1 $473 $563 $475 $566 reversed $343 $-1 #
straight-curve $-1 51.146121885597083 -42.568610599167286 44.040868830406247 0 0 -1 I I #
edge $-1 $476 51.146121885597083 $572 67.759636219367053 $564 $610 forward 7 unknown #
point $-1 51.146121885597083 -42.568610599167286 13.185525476126847 #
straight-curve $-1 29.72643952624103 -42.568610599167286 8.425509446407041 1 0 0 I I #
edge $-1 $572 -13.185525476126847 $481 -8.4255094464070446 $480 $611 forward 7 unknown #
point $-1 67.759636219367039 -42.568610599167286 8.4255094464070446 #
point $-1 51.146121885597083 -42.568610599167286 8.4255094464070446 #
vertex $-1 $485 $612 #
straight-curve $-1 67.759636219367053 0 13.185525476126847 0 1 0 I I #
vertex $-1 $488 $613 #
point $-1 55.468824752351068 -38.518500192497463 9.1192606781497574 #
vertex $-1 $492 $614 #
point $-1 60.452879052482061 -38.518500192497463 9.1192606781497574 #
vertex $-1 $496 $615 #
point $-1 65.436933352613039 -38.518500192497463 9.1192606781497574 #
straight-curve $-1 -67.759636219367053 42.568610599167286 0 0 0 -1 I I #
point $-1 -67.759636219367053 -42.568610599167286 -13.185525476126847 #
straight-curve $-1 -67.759636219367053 0 -13.185525476126847 0 1 0 I I #
point $-1 -67.759636219367053 42.568610599167286 -13.185525476126847 #
coedge $-1 $517 $586 $525 $591 forward $397 $-1 #
coedge $-1 $519 $518 $586 $616 reversed $279 $-1 #
coedge $-1 $584 $520 $585 $616 forward $397 $-1 #
vertex $-1 $521 $617 #
straight-curve $-1 0 42.568610599167286 13.185525476126847 -1 0 0 I I #
point $-1 -52.222075686706134 42.568610599167286 13.185525476126847 #
straight-curve $-1 -52.222075686706134 0 13.185525476126847 0 1 0 I I #
edge $-1 $593 -67.759636219367053 $526 -52.222075686706134 $525 $618 forward 7 unknown #
point $-1 -52.222075686706134 -42.568610599167286 13.185525476126847 #
vertex $-1 $616 $619 #
straight-curve $-1 -67.759636219367053 -42.568610599167286 0 0 0 -1 I I #
straight-curve $-1 -67.759636219367053 42.568610599167286 0 0 0 -1 I I #
straight-curve $-1 38.31538308023292 42.568610599167286 81.198600742744532 0 0 -1 I I #
point $-1 38.31538308023292 42.568610599167286 13.185525476126847 #
straight-curve $-1 11.575394400106589 42.568610599167286 2.5536085630781322 -1 0 0 I I #
point $-1 38.31538308023292 42.568610599167286 2.5536085630781358 #
point $-1 16.651676965918995 24.293868094409671 -7.3870053376420524 #
point $-1 29.649900634507347 24.293868094409671 -7.3870053376420524 #
straight-curve $-1 -52.222075686706134 -42.568610599167286 44.040868830406247 0 0 -1 I I #
straight-curve $-1 -52.222075686706134 0 13.185525476126847 0 -1 0 I I #
point $-1 -52.222075686706134 -42.568610599167286 8.4255094464070446 #
straight-curve $-1 -21.957659259910578 -42.568610599167286 8.425509446407041 1 0 0 I I #
point $-1 -52.222075686706134 -42.568610599167286 13.185525476126847 #
point $-1 -48.899372819952148 -37.709483189938744 8.5314754371212764 #
point $-1 -43.915318519821156 -37.709483189938744 8.5314754371212764 #
point $-1 -38.931264219690178 -37.709483189938744 8.5314754371212764 #
straight-curve $-1 0 -42.568610599167286 13.185525476126847 1 0 0 I I #
straight-curve $-1 67.759636219367053 -42.568610599167286 0 0 0 -1 I I #
point $-1 67.759636219367053 -42.568610599167286 13.185525476126847 #
point $-1 54.468824752351068 -37.709483189938744 8.5314754371212764 #
point $-1 59.452879052482061 -37.709483189938744 8.5314754371212764 #
point $-1 64.436933352613039 -37.709483189938744 8.5314754371212764 #
edge $-1 $587 -42.568610599167286 $593 42.568610599167286 $585 $620 forward 7 unknown #
point $-1 -67.759636219367053 42.568610599167286 13.185525476126847 #
straight-curve $-1 0 -42.568610599167286 13.185525476126847 1 0 0 I I #
point $-1 -67.759636219367053 -42.568610599167286 13.185525476126847 #
straight-curve $-1 -67.759636219367053 0 13.185525476126847 0 -1 0 I I #
End-of-ACIS-data 