500 0 8 0           
7 Unknown 11 ACIS 5.0 NT 24 Fri Mar 26 01:45:43 1999 
-1 9.9999999999999995e-007 1e-010 
body $-1 $8 $-1 $9 #
body $-1 $10 $-1 $11 #
body $-1 $12 $-1 $13 #
body $-1 $14 $-1 $15 #
body $-1 $16 $-1 $17 #
body $-1 $18 $-1 $19 #
body $-1 $20 $-1 $21 #
body $-1 $22 $-1 $23 #
lump $-1 $-1 $24 $0 #
transform $-1 1 0 0 0 1 0 0 0 1 71.34739219336528 47.370121971651365 10.573453019454357 1 rotate no_reflect no_shear #
lump $-1 $-1 $25 $1 #
transform $-1 1 0 0 0 1 0 0 0 1 71.34739219336528 47.370121971651365 10.573453019454357 1 rotate no_reflect no_shear #
lump $-1 $-1 $26 $2 #
transform $-1 1 0 0 0 1 0 0 0 1 71.34739219336528 47.370121971651365 10.573453019454357 1 rotate no_reflect no_shear #
lump $-1 $-1 $27 $3 #
transform $-1 1 0 0 0 1 0 0 0 1 71.34739219336528 47.370121971651365 10.573453019454357 1 rotate no_reflect no_shear #
lump $-1 $-1 $28 $4 #
transform $-1 1 0 0 0 1 0 0 0 1 71.34739219336528 47.370121971651365 10.573453019454357 1 rotate no_reflect no_shear #
lump $-1 $-1 $29 $5 #
transform $-1 1 0 0 0 1 0 0 0 1 71.34739219336528 47.370121971651365 10.573453019454357 1 rotate no_reflect no_shear #
lump $-1 $-1 $30 $6 #
transform $-1 1 0 0 0 1 0 0 0 1 71.34739219336528 47.370121971651365 10.573453019454357 1 rotate no_reflect no_shear #
lump $-1 $-1 $31 $7 #
transform $-1 1 0 0 0 1 0 0 0 1 71.34739219336528 47.370121971651365 10.573453019454357 1 rotate no_reflect no_shear #
shell $-1 $-1 $-1 $32 $-1 $8 #
shell $-1 $-1 $-1 $33 $-1 $10 #
shell $-1 $-1 $-1 $34 $-1 $12 #
shell $-1 $-1 $-1 $35 $-1 $14 #
shell $-1 $-1 $-1 $36 $-1 $16 #
shell $-1 $-1 $-1 $37 $-1 $18 #
shell $-1 $-1 $-1 $38 $-1 $20 #
shell $-1 $-1 $-1 $39 $-1 $22 #
face $-1 $40 $41 $24 $-1 $42 forward single #
face $-1 $43 $44 $25 $-1 $45 forward single #
face $-1 $46 $47 $26 $-1 $48 reversed single #
face $-1 $49 $50 $27 $-1 $51 forward single #
face $-1 $52 $53 $28 $-1 $54 forward single #
face $-1 $55 $56 $29 $-1 $57 reversed single #
face $-1 $58 $59 $30 $-1 $60 forward single #
face $-1 $61 $62 $31 $-1 $63 forward single #
face $-1 $64 $65 $24 $-1 $66 reversed single #
loop $-1 $-1 $67 $32 #
plane-surface $-1 0 0 10.573453019454357 0 0 1 1 0 0 forward_v I I I I #
face $-1 $68 $69 $25 $-1 $70 reversed single #
loop $-1 $-1 $71 $33 #
plane-surface $-1 -67.665625306292327 0 -6.2735326463522387 0 0 1 1 0 0 forward_v I I I I #
face $-1 $72 $73 $26 $-1 $74 reversed single #
loop $-1 $-1 $75 $34 #
plane-surface $-1 53.693245315607371 -125.08727265996768 126.76130078591645 1 0 0 0 0.54463904215088732 -0.83867056331134215 forward_v I I I I #
face $-1 $76 $77 $27 $-1 $78 forward single #
loop $-1 $79 $80 $35 #
cone-surface $-1 58.737287280681059 -43.658589765940064 7.2482146985164162 0 0.54463904215088732 -0.83867056331134215 1 0 0 1 I I 0 1 1 forward I I I I #
face $-1 $81 $82 $28 $-1 $83 forward single #
loop $-1 $84 $85 $36 #
cone-surface $-1 66.303350228291592 -43.658589765940064 7.2482146985164162 0 0.54463904215088732 -0.83867056331134215 1 0 0 1 I I 0 1 1 forward I I I I #
face $-1 $86 $87 $29 $-1 $88 reversed single #
loop $-1 $-1 $89 $37 #
plane-surface $-1 50.515540178691509 72.44584935649533 173.94907908231374 1 0 0 0 -0.66913061440640931 -0.74314481823134659 forward_v I I I I #
face $-1 $90 $91 $30 $-1 $92 forward single #
loop $-1 $93 $94 $38 #
cone-surface $-1 56.467497897169721 43.646581545030713 7.1455271542531387 0 -0.66913061440640931 -0.74314481823134659 1 0 0 1 I I 0 1 1 forward I I I I #
face $-1 $95 $96 $31 $-1 $97 forward single #
loop $-1 $98 $99 $39 #
cone-surface $-1 65.395434474887068 43.646581545030713 7.1455271542531387 0 -0.66913061440640931 -0.74314481823134659 1 0 0 1 I I 0 1 1 forward I I I I #
face $-1 $100 $101 $24 $-1 $102 reversed single #
loop $-1 $-1 $103 $40 #
plane-surface $-1 0 0 -10.573453019454357 0 0 1 1 0 0 forward_v I I I I #
coedge $-1 $104 $105 $106 $107 forward $41 $-1 #
face $-1 $108 $109 $25 $-1 $110 reversed single #
loop $-1 $-1 $111 $43 #
plane-surface $-1 -63.983858419219374 0 -8.4234928329032979 -1 0 0 0 0 1 forward_v I I I I #
coedge $-1 $112 $113 $114 $115 forward $44 $-1 #
face $-1 $116 $117 $26 $-1 $118 forward single #
loop $-1 $-1 $119 $46 #
plane-surface $-1 62.520318754486325 -47.370121971651358 7.0873855827066166 0 -0.54463904215088732 0.83867056331134215 1 0 0 forward_v I I I I #
coedge $-1 $120 $121 $122 $123 reversed $47 $-1 #
face $-1 $-1 $124 $27 $-1 $125 forward single #
loop $-1 $126 $127 $49 #
cone-surface $-1 58.737287280681059 -42.358774542827774 5.2466748142966644 0 0.54463904215088732 -0.83867056331134215 0.5 0 0 1 I I -0.70710678118654746 0.70710678118654746 0.5 forward I I I I #
loop $-1 $-1 $128 $35 #
coedge $-1 $80 $80 $129 $130 reversed $50 $-1 #
face $-1 $-1 $131 $28 $-1 $132 forward single #
loop $-1 $133 $134 $52 #
cone-surface $-1 66.303350228291592 -42.358774542827774 5.2466748142966644 0 0.54463904215088732 -0.83867056331134215 0.5 0 0 1 I I -0.70710678118654746 0.70710678118654746 0.5 forward I I I I #
loop $-1 $-1 $135 $36 #
coedge $-1 $85 $85 $136 $137 reversed $53 $-1 #
face $-1 $138 $139 $29 $-1 $140 reversed single #
loop $-1 $-1 $141 $55 #
plane-surface $-1 60.931466186028402 -23.035599392787788 67.906189476675664 0 0.66913061440640931 0.74314481823134659 1 0 0 forward_v I I I I #
coedge $-1 $142 $143 $144 $145 reversed $56 $-1 #
face $-1 $-1 $146 $30 $-1 $147 forward single #
loop $-1 $148 $149 $58 #
cone-surface $-1 56.467497897169721 42.954109877361368 6.3764594707232174 0 -0.66913061440640931 -0.74314481823134659 0.5 0 0 1 I I -0.70710678118654746 0.70710678118654746 0.5 forward I I I I #
loop $-1 $-1 $150 $38 #
coedge $-1 $94 $94 $151 $152 reversed $59 $-1 #
face $-1 $-1 $153 $31 $-1 $154 forward single #
loop $-1 $155 $156 $61 #
cone-surface $-1 65.395434474887068 42.954109877361368 6.3764594707232174 0 -0.66913061440640931 -0.74314481823134659 0.5 0 0 1 I I -0.70710678118654746 0.70710678118654746 0.5 forward I I I I #
loop $-1 $-1 $157 $39 #
coedge $-1 $99 $99 $158 $159 reversed $62 $-1 #
face $-1 $160 $161 $24 $-1 $162 reversed single #
loop $-1 $-1 $163 $64 #
plane-surface $-1 0 -47.370121971651365 0 0 1 0 0 0 1 forward_v I I I I #
coedge $-1 $164 $165 $166 $167 forward $65 $-1 #
coedge $-1 $168 $67 $169 $170 forward $41 $-1 #
coedge $-1 $67 $168 $171 $172 forward $41 $-1 #
coedge $-1 $173 $174 $67 $107 reversed $175 $-1 #
edge $-1 $176 -47.370121971651365 $177 47.370121971651365 $106 $178 forward 7 unknown #
face $-1 $179 $180 $25 $-1 $181 reversed single #
loop $-1 $-1 $182 $68 #
plane-surface $-1 0 0 -10.573453019454357 0 0 1 1 0 0 forward_v I I I I #
coedge $-1 $183 $114 $184 $185 reversed $69 $-1 #
coedge $-1 $186 $71 $187 $188 reversed $44 $-1 #
coedge $-1 $71 $186 $189 $190 reversed $44 $-1 #
coedge $-1 $111 $191 $71 $115 reversed $69 $-1 #
edge $-1 $192 -47.370121971651365 $193 47.370121971651365 $114 $194 forward 7 unknown #
face $-1 $195 $196 $26 $-1 $197 reversed single #
loop $-1 $-1 $198 $72 #
plane-surface $-1 0 0 10.573453019454357 0 0 1 1 0 0 forward_v I I I I #
coedge $-1 $199 $200 $201 $202 reversed $73 $-1 #
coedge $-1 $121 $75 $203 $204 reversed $47 $-1 #
coedge $-1 $75 $120 $199 $205 reversed $47 $-1 #
coedge $-1 $201 $206 $75 $123 forward $196 $-1 #
edge $-1 $207 52.807197373503868 $208 56.293264810251614 $122 $209 forward 7 unknown #
loop $-1 $-1 $129 $76 #
plane-surface $-1 62.520318754486325 -47.370121971651358 7.0873855827066166 0 -0.54463904215088732 0.83867056331134215 1 0 0 forward_v I I I I #
loop $-1 $-1 $210 $49 #
coedge $-1 $127 $127 $128 $211 reversed $77 $-1 #
coedge $-1 $128 $128 $127 $211 forward $79 $-1 #
coedge $-1 $129 $129 $80 $130 forward $124 $-1 #
edge $-1 $212 -3.2109659413719381e-015 $212 6.2831853071795969 $129 $213 forward 7 unknown #
loop $-1 $-1 $136 $81 #
plane-surface $-1 62.520318754486325 -47.370121971651358 7.0873855827066166 0 -0.54463904215088732 0.83867056331134215 1 0 0 forward_v I I I I #
loop $-1 $-1 $214 $52 #
coedge $-1 $134 $134 $135 $215 reversed $82 $-1 #
coedge $-1 $135 $135 $134 $215 forward $84 $-1 #
coedge $-1 $136 $136 $85 $137 forward $131 $-1 #
edge $-1 $216 -3.2109659413719381e-015 $216 6.2831853071795969 $136 $217 forward 7 unknown #
face $-1 $218 $219 $29 $-1 $220 reversed single #
loop $-1 $-1 $221 $86 #
plane-surface $-1 71.34739219336528 0 0 -1 0 0 0 0 1 forward_v I I I I #
coedge $-1 $222 $223 $224 $225 reversed $87 $-1 #
coedge $-1 $143 $89 $226 $227 reversed $56 $-1 #
coedge $-1 $89 $142 $222 $228 reversed $56 $-1 #
coedge $-1 $224 $229 $89 $145 forward $230 $-1 #
edge $-1 $231 -11.1471972934037 $232 -4.4159291610947022 $144 $233 forward 7 unknown #
loop $-1 $-1 $151 $90 #
plane-surface $-1 60.931466186028402 -23.035599392787788 67.906189476675664 0 0.66913061440640931 0.74314481823134659 1 0 0 forward_v I I I I #
loop $-1 $-1 $234 $58 #
coedge $-1 $149 $149 $150 $235 reversed $91 $-1 #
coedge $-1 $150 $150 $149 $235 forward $93 $-1 #
coedge $-1 $151 $151 $94 $152 forward $146 $-1 #
edge $-1 $236 -2.9031320354146e-015 $236 6.2831853071795978 $151 $237 forward 7 unknown #
loop $-1 $-1 $158 $95 #
plane-surface $-1 60.931466186028402 -23.035599392787788 67.906189476675664 0 0.66913061440640931 0.74314481823134659 1 0 0 forward_v I I I I #
loop $-1 $-1 $238 $61 #
coedge $-1 $156 $156 $157 $239 reversed $96 $-1 #
coedge $-1 $157 $157 $156 $239 forward $98 $-1 #
coedge $-1 $158 $158 $99 $159 forward $153 $-1 #
edge $-1 $240 -2.9031320354146e-015 $240 6.2831853071795978 $158 $241 forward 7 unknown #
face $-1 $242 $243 $24 $-1 $244 reversed single #
loop $-1 $-1 $245 $100 #
plane-surface $-1 -71.34739219336528 0 0 1 0 0 0 0 -1 forward_v I I I I #
coedge $-1 $246 $171 $247 $248 forward $101 $-1 #
coedge $-1 $249 $103 $246 $250 forward $65 $-1 #
coedge $-1 $103 $249 $251 $252 forward $65 $-1 #
coedge $-1 $174 $173 $103 $167 reversed $175 $-1 #
edge $-1 $253 -47.370121971651365 $254 47.370121971651365 $166 $255 forward 7 unknown #
coedge $-1 $105 $104 $256 $257 forward $41 $-1 #
coedge $-1 $258 $259 $104 $170 reversed $243 $-1 #
edge $-1 $177 -71.34739219336528 $260 71.34739219336528 $169 $261 forward 7 unknown #
coedge $-1 $163 $262 $105 $172 reversed $101 $-1 #
edge $-1 $263 -71.34739219336528 $176 71.34739219336528 $171 $264 forward 7 unknown #
coedge $-1 $166 $106 $262 $265 forward $175 $-1 #
coedge $-1 $106 $166 $258 $266 reversed $175 $-1 #
loop $-1 $-1 $173 $242 #
vertex $-1 $107 $267 #
vertex $-1 $107 $268 #
straight-curve $-1 71.34739219336528 0 10.573453019454357 0 1 0 I I #
face $-1 $269 $270 $25 $-1 $271 reversed single #
loop $-1 $-1 $184 $108 #
plane-surface $-1 0 -47.370121971651365 0 0 1 0 0 0 1 forward_v I I I I #
coedge $-1 $272 $273 $183 $274 forward $109 $-1 #
coedge $-1 $191 $111 $182 $274 reversed $69 $-1 #
coedge $-1 $189 $275 $111 $185 forward $180 $-1 #
edge $-1 $276 -6.3617066030027081 $192 -2.0617862299005898 $184 $277 forward 7 unknown #
coedge $-1 $113 $112 $278 $279 reversed $44 $-1 #
coedge $-1 $280 $281 $112 $188 forward $282 $-1 #
edge $-1 $283 -37.514579540219117 $193 -30.15104576607321 $187 $284 forward 7 unknown #
coedge $-1 $285 $184 $113 $190 forward $180 $-1 #
edge $-1 $192 30.15104576607321 $286 37.514579540219117 $189 $287 forward 7 unknown #
coedge $-1 $114 $183 $280 $288 reversed $69 $-1 #
vertex $-1 $190 $289 #
vertex $-1 $188 $290 #
straight-curve $-1 -63.983858419219374 0 -6.2735326463522387 0 1 0 I I #
face $-1 $-1 $291 $26 $-1 $292 reversed single #
loop $-1 $-1 $201 $116 #
plane-surface $-1 0 -47.370121971651365 0 0 1 0 0 0 1 forward_v I I I I #
coedge $-1 $203 $293 $294 $295 forward $117 $-1 #
coedge $-1 $294 $119 $121 $205 forward $73 $-1 #
coedge $-1 $119 $294 $296 $297 reversed $73 $-1 #
coedge $-1 $298 $122 $119 $202 forward $196 $-1 #
edge $-1 $208 22.433085938364208 $299 40.087232816122118 $201 $300 forward 7 unknown #
coedge $-1 $301 $198 $120 $204 forward $117 $-1 #
edge $-1 $302 -20.541587365681409 $207 -15.173514358332476 $203 $303 forward 7 unknown #
edge $-1 $208 -8.3777959833898778e-015 $302 6.4006932425934222 $121 $304 forward 7 unknown #
coedge $-1 $122 $298 $301 $305 reversed $196 $-1 #
vertex $-1 $305 $306 #
vertex $-1 $123 $307 #
straight-curve $-1 53.693245315607371 -47.370121971651365 63.380650392958223 0 0 -1 I I #
coedge $-1 $210 $210 $-1 $308 reversed $126 $-1 #
edge $-1 $309 0 $309 6.2831853071796004 $127 $310 forward 7 unknown #
vertex $-1 $130 $311 #
ellipse-curve $-1 58.737287280681059 -44.686085467976902 8.8304193010804806 0 -0.54463904215088732 0.83867056331134215 1 0 0 1 I I #
coedge $-1 $214 $214 $-1 $312 reversed $133 $-1 #
edge $-1 $313 0 $313 6.2831853071796004 $134 $314 forward 7 unknown #
vertex $-1 $137 $315 #
ellipse-curve $-1 66.303350228291592 -44.686085467976902 8.8304193010804806 0 -0.54463904215088732 0.83867056331134215 1 0 0 1 I I #
face $-1 $-1 $230 $29 $-1 $316 forward single #
loop $-1 $-1 $317 $138 #
plane-surface $-1 0 47.370121971651365 0 0 -1 0 0 0 -1 forward_v I I I I #
coedge $-1 $318 $319 $223 $320 forward $139 $-1 #
coedge $-1 $321 $141 $143 $228 forward $87 $-1 #
coedge $-1 $141 $321 $221 $320 reversed $87 $-1 #
coedge $-1 $322 $144 $141 $225 forward $230 $-1 #
edge $-1 $232 20.049807085677308 $323 40.881659100351094 $224 $324 forward 7 unknown #
coedge $-1 $325 $317 $142 $227 forward $219 $-1 #
edge $-1 $326 -82.461947703276479 $231 -76.40108652170251 $226 $327 forward 7 unknown #
edge $-1 $232 85.682429144392984 $326 94.740243943302744 $143 $328 forward 7 unknown #
coedge $-1 $144 $322 $325 $329 forward $230 $-1 #
loop $-1 $-1 $224 $218 #
vertex $-1 $227 $330 #
vertex $-1 $145 $331 #
straight-curve $-1 50.515540178691509 36.222924678247665 10.573453019454362 0 -1 0 I I #
coedge $-1 $234 $234 $-1 $332 reversed $148 $-1 #
edge $-1 $333 0 $333 6.2831853071796004 $149 $334 forward 7 unknown #
vertex $-1 $152 $335 #
ellipse-curve $-1 56.467497897169721 44.004487905496852 7.5430224286673919 0 0.66913061440640931 0.74314481823134659 1 0 0 1 I I #
coedge $-1 $238 $238 $-1 $336 reversed $155 $-1 #
edge $-1 $337 0 $337 6.2831853071796004 $156 $338 forward 7 unknown #
vertex $-1 $159 $339 #
ellipse-curve $-1 65.395434474887068 44.004487905496852 7.5430224286673919 0 0.66913061440640931 0.74314481823134659 1 0 0 1 I I #
face $-1 $-1 $175 $24 $-1 $340 reversed single #
loop $-1 $-1 $258 $160 #
plane-surface $-1 0 47.370121971651365 0 0 -1 0 0 0 -1 forward_v I I I I #
coedge $-1 $341 $256 $259 $342 forward $161 $-1 #
coedge $-1 $262 $163 $164 $250 reversed $101 $-1 #
coedge $-1 $256 $341 $163 $248 reversed $161 $-1 #
edge $-1 $263 -10.573453019454357 $343 10.573453019454357 $247 $344 forward 7 unknown #
coedge $-1 $165 $164 $341 $345 forward $65 $-1 #
edge $-1 $254 -71.34739219336528 $343 71.34739219336528 $246 $346 forward 7 unknown #
coedge $-1 $259 $258 $165 $252 reversed $243 $-1 #
edge $-1 $347 -71.34739219336528 $253 71.34739219336528 $251 $348 forward 7 unknown #
vertex $-1 $167 $349 #
vertex $-1 $265 $350 #
straight-curve $-1 71.34739219336528 0 -10.573453019454357 0 -1 0 I I #
coedge $-1 $245 $247 $168 $257 reversed $161 $-1 #
edge $-1 $260 -47.370121971651365 $263 47.370121971651365 $256 $351 forward 7 unknown #
coedge $-1 $251 $169 $174 $266 forward $243 $-1 #
coedge $-1 $169 $251 $245 $342 reversed $243 $-1 #
vertex $-1 $170 $352 #
straight-curve $-1 0 47.370121971651365 10.573453019454357 -1 0 0 I I #
coedge $-1 $171 $246 $173 $265 reversed $101 $-1 #
vertex $-1 $257 $353 #
straight-curve $-1 0 -47.370121971651365 10.573453019454357 1 0 0 I I #
edge $-1 $176 -10.573453019454357 $254 10.573453019454357 $173 $354 forward 7 unknown #
edge $-1 $177 -10.573453019454357 $253 10.573453019454357 $174 $355 forward 7 unknown #
point $-1 71.34739219336528 -47.370121971651365 10.573453019454357 #
point $-1 71.34739219336528 47.370121971651365 10.573453019454357 #
face $-1 $-1 $282 $25 $-1 $356 reversed single #
loop $-1 $-1 $278 $179 #
plane-surface $-1 -71.34739219336528 0 0 1 0 0 0 0 -1 forward_v I I I I #
coedge $-1 $357 $182 $275 $358 forward $109 $-1 #
coedge $-1 $182 $357 $359 $360 forward $109 $-1 #
edge $-1 $361 -47.370121971651365 $276 47.370121971651365 $182 $362 forward 7 unknown #
coedge $-1 $184 $285 $272 $358 reversed $180 $-1 #
vertex $-1 $358 $363 #
straight-curve $-1 -63.983858419219374 -47.370121971651365 -4.2117464164516489 0 0 1 I I #
coedge $-1 $364 $365 $186 $279 forward $270 $-1 #
edge $-1 $286 -47.370121971651365 $283 47.370121971651365 $278 $366 forward 7 unknown #
coedge $-1 $359 $187 $191 $288 forward $282 $-1 #
coedge $-1 $187 $359 $364 $367 reversed $282 $-1 #
loop $-1 $-1 $280 $269 #
vertex $-1 $367 $368 #
straight-curve $-1 -33.832812653146163 47.370121971651365 -6.2735326463522387 1 0 0 I I #
coedge $-1 $275 $189 $365 $369 forward $180 $-1 #
vertex $-1 $369 $370 #
straight-curve $-1 -33.832812653146163 -47.370121971651365 -6.2735326463522387 -1 0 0 I I #
edge $-1 $193 2.0617862299005898 $361 6.3617066030027081 $280 $371 forward 7 unknown #
point $-1 -63.983858419219374 -47.370121971651365 -6.2735326463522387 #
point $-1 -63.983858419219374 47.370121971651365 -6.2735326463522387 #
loop $-1 $-1 $296 $195 #
plane-surface $-1 71.34739219336528 0 0 -1 0 0 0 0 1 forward_v I I I I #
coedge $-1 $198 $301 $372 $373 forward $117 $-1 #
coedge $-1 $200 $199 $198 $295 reversed $73 $-1 #
edge $-1 $374 -40.087232816122118 $302 -22.433085938364208 $198 $375 forward 7 unknown #
coedge $-1 $372 $376 $200 $297 forward $291 $-1 #
edge $-1 $299 -17.933929991486252 $374 -11.533236748892818 $296 $377 forward 7 unknown #
coedge $-1 $206 $201 $376 $378 reversed $196 $-1 #
vertex $-1 $202 $379 #
straight-curve $-1 31.260159377243163 -47.370121971651365 7.0873855827066112 1 0 0 I I #
coedge $-1 $293 $203 $206 $305 forward $117 $-1 #
vertex $-1 $204 $380 #
straight-curve $-1 53.693245315607371 -62.54363632998384 10.573453019454355 0 -1 0 I I #
straight-curve $-1 53.693245315607371 -47.370121971651358 7.0873855827066166 0 0.83867056331134215 0.54463904215088732 I I #
edge $-1 $207 53.693245315607371 $381 71.34739219336528 $206 $382 forward 7 unknown #
point $-1 53.693245315607371 -47.370121971651365 10.573453019454357 #
point $-1 53.693245315607371 -47.370121971651365 7.0873855827066121 #
edge $-1 $383 1 $383 0 $210 $-1 forward 7 unknown #
vertex $-1 $211 $384 #
ellipse-curve $-1 58.737287280681059 -42.63109406390322 5.6660100959523358 0 -0.54463904215088732 0.83867056331134215 1 0 0 1 I I #
point $-1 59.737287280681059 -44.686085467976916 8.8304193010804966 #
edge $-1 $385 1 $385 0 $214 $-1 forward 7 unknown #
vertex $-1 $215 $386 #
ellipse-curve $-1 66.303350228291592 -42.63109406390322 5.6660100959523358 0 -0.54463904215088732 0.83867056331134215 1 0 0 1 I I #
point $-1 67.303350228291592 -44.686085467976916 8.8304193010804966 #
plane-surface $-1 0 0 10.573453019454357 0 0 1 1 0 0 forward_v I I I I #
coedge $-1 $226 $387 $321 $388 forward $219 $-1 #
coedge $-1 $319 $221 $387 $389 reversed $139 $-1 #
coedge $-1 $221 $318 $322 $390 reversed $139 $-1 #
edge $-1 $323 54.403980839328263 $391 63.461795638238044 $221 $392 forward 7 unknown #
coedge $-1 $223 $222 $317 $388 reversed $87 $-1 #
coedge $-1 $229 $224 $319 $390 forward $230 $-1 #
vertex $-1 $390 $393 #
straight-curve $-1 30.465733093014201 40.638853839342381 10.573453019454355 1 0 0 I I #
coedge $-1 $387 $226 $229 $329 reversed $219 $-1 #
vertex $-1 $227 $394 #
straight-curve $-1 50.515540178691509 47.370121971651365 86.974539541156872 0 0 1 I I #
straight-curve $-1 50.515540178691509 -23.035599392787788 67.906189476675664 0 0.74314481823134659 -0.66913061440640931 I I #
edge $-1 $395 -71.34739219336528 $231 -50.515540178691509 $325 $396 forward 7 unknown #
point $-1 50.515540178691509 47.370121971651365 10.573453019454357 #
point $-1 50.515540178691509 40.638853839342367 10.573453019454355 #
edge $-1 $397 1 $397 0 $234 $-1 forward 7 unknown #
vertex $-1 $235 $398 #
ellipse-curve $-1 56.467497897169721 43.288675184564575 6.7480318798388907 0 0.66913061440640931 0.74314481823134659 1 0 0 1 I I #
point $-1 57.467497897169721 44.004487905496845 7.5430224286673884 #
edge $-1 $399 1 $399 0 $238 $-1 forward 7 unknown #
vertex $-1 $239 $400 #
ellipse-curve $-1 65.395434474887068 43.288675184564575 6.7480318798388907 0 0.66913061440640931 0.74314481823134659 1 0 0 1 I I #
point $-1 66.395434474887068 44.004487905496845 7.5430224286673884 #
plane-surface $-1 71.34739219336528 0 0 -1 0 0 0 0 1 forward_v I I I I #
coedge $-1 $247 $245 $249 $345 reversed $161 $-1 #
edge $-1 $260 -10.573453019454357 $347 10.573453019454357 $259 $401 forward 7 unknown #
vertex $-1 $345 $402 #
straight-curve $-1 -71.34739219336528 -47.370121971651365 0 0 0 -1 I I #
edge $-1 $343 -47.370121971651365 $347 47.370121971651365 $341 $403 forward 7 unknown #
straight-curve $-1 0 -47.370121971651365 -10.573453019454357 -1 0 0 I I #
vertex $-1 $252 $404 #
straight-curve $-1 0 47.370121971651365 -10.573453019454357 1 0 0 I I #
point $-1 71.34739219336528 47.370121971651365 -10.573453019454357 #
point $-1 71.34739219336528 -47.370121971651365 -10.573453019454357 #
straight-curve $-1 -71.34739219336528 0 10.573453019454357 0 -1 0 I I #
point $-1 -71.34739219336528 47.370121971651365 10.573453019454357 #
point $-1 -71.34739219336528 -47.370121971651365 10.573453019454357 #
straight-curve $-1 71.34739219336528 -47.370121971651365 0 0 0 -1 I I #
straight-curve $-1 71.34739219336528 47.370121971651365 0 0 0 -1 I I #
plane-surface $-1 0 47.370121971651365 0 0 -1 0 0 0 -1 forward_v I I I I #
coedge $-1 $273 $272 $405 $406 forward $109 $-1 #
edge $-1 $276 63.983858419219374 $407 71.34739219336528 $275 $408 forward 7 unknown #
coedge $-1 $281 $280 $273 $360 reversed $282 $-1 #
edge $-1 $409 -71.34739219336528 $361 -63.983858419219374 $359 $410 forward 7 unknown #
vertex $-1 $288 $411 #
straight-curve $-1 -63.983858419219374 0 -10.573453019454357 0 -1 0 I I #
point $-1 -63.983858419219374 -47.370121971651365 -10.573453019454357 #
coedge $-1 $405 $278 $281 $367 forward $270 $-1 #
coedge $-1 $278 $405 $285 $369 reversed $270 $-1 #
straight-curve $-1 -71.34739219336528 0 -6.2735326463522387 0 1 0 I I #
edge $-1 $283 6.2735326463522387 $409 10.573453019454357 $281 $412 forward 7 unknown #
point $-1 -71.34739219336528 47.370121971651365 -6.2735326463522387 #
edge $-1 $286 6.2735326463522387 $407 10.573453019454357 $365 $413 forward 7 unknown #
point $-1 -71.34739219336528 -47.370121971651365 -6.2735326463522387 #
straight-curve $-1 -63.983858419219374 47.370121971651365 -4.2117464164516489 0 0 -1 I I #
coedge $-1 $376 $296 $293 $373 reversed $291 $-1 #
edge $-1 $381 -47.370121971651365 $374 -42.002048964302432 $372 $414 forward 7 unknown #
vertex $-1 $295 $415 #
straight-curve $-1 31.260159377243163 -42.002048964302425 10.573453019454357 -1 0 0 I I #
coedge $-1 $296 $372 $298 $378 forward $291 $-1 #
straight-curve $-1 71.34739219336528 -32.329462803305418 16.854904035270756 0 0.83867056331134215 0.54463904215088732 I I #
edge $-1 $381 -10.573453019454357 $299 -7.0873855827066121 $376 $416 forward 7 unknown #
point $-1 71.34739219336528 -47.370121971651365 7.0873855827066121 #
point $-1 53.693245315607371 -42.002048964302432 10.573453019454357 #
vertex $-1 $373 $417 #
straight-curve $-1 0 -47.370121971651365 10.573453019454357 1 0 0 I I #
vertex $-1 $308 $418 #
point $-1 59.737287280681059 -42.63109406390322 5.6660100959523358 #
vertex $-1 $312 $419 #
point $-1 67.303350228291592 -42.63109406390322 5.6660100959523358 #
coedge $-1 $317 $325 $318 $389 forward $219 $-1 #
edge $-1 $391 -40.881659100351094 $326 -20.049807085677308 $317 $420 forward 7 unknown #
edge $-1 $395 -10.573453019454357 $391 -4.5125918378803931 $318 $421 forward 7 unknown #
edge $-1 $323 40.638853839342367 $395 47.370121971651365 $319 $422 forward 7 unknown #
vertex $-1 $388 $423 #
straight-curve $-1 71.34739219336528 0.20881738743810274 46.976822144628599 0 0.74314481823134659 -0.66913061440640931 I I #
point $-1 71.347392193365295 40.638853839342367 10.573453019454355 #
point $-1 50.515540178691509 47.370121971651372 4.5125918378803931 #
vertex $-1 $390 $424 #
straight-curve $-1 0 47.370121971651365 10.573453019454357 -1 0 0 I I #
vertex $-1 $332 $425 #
point $-1 57.467497897169721 43.288675184564575 6.7480318798388907 #
vertex $-1 $336 $426 #
point $-1 66.395434474887068 43.288675184564575 6.7480318798388907 #
straight-curve $-1 -71.34739219336528 47.370121971651365 0 0 0 -1 I I #
point $-1 -71.34739219336528 -47.370121971651365 -10.573453019454357 #
straight-curve $-1 -71.34739219336528 0 -10.573453019454357 0 1 0 I I #
point $-1 -71.34739219336528 47.370121971651365 -10.573453019454357 #
coedge $-1 $365 $364 $357 $406 reversed $270 $-1 #
edge $-1 $407 -47.370121971651365 $409 47.370121971651365 $405 $427 forward 7 unknown #
vertex $-1 $406 $428 #
straight-curve $-1 0 -47.370121971651365 -10.573453019454357 -1 0 0 I I #
vertex $-1 $360 $429 #
straight-curve $-1 0 47.370121971651365 -10.573453019454357 1 0 0 I I #
point $-1 -63.983858419219374 47.370121971651365 -10.573453019454357 #
straight-curve $-1 -71.34739219336528 47.370121971651365 0 0 0 -1 I I #
straight-curve $-1 -71.34739219336528 -47.370121971651365 0 0 0 -1 I I #
straight-curve $-1 71.34739219336528 0 10.573453019454357 0 1 0 I I #
point $-1 71.34739219336528 -42.002048964302432 10.573453019454357 #
straight-curve $-1 71.34739219336528 -47.370121971651365 0 0 0 -1 I I #
point $-1 71.34739219336528 -47.370121971651365 10.573453019454357 #
point $-1 58.737287280681059 -42.086455021752329 4.8273395326409929 #
point $-1 66.303350228291592 -42.086455021752329 4.8273395326409929 #
straight-curve $-1 30.465733093014201 47.370121971651365 4.5125918378804073 -1 0 0 I I #
straight-curve $-1 71.34739219336528 47.370121971651365 0 0 0 -1 I I #
straight-curve $-1 71.34739219336528 0 10.573453019454357 0 1 0 I I #
point $-1 71.347392193365295 47.370121971651372 4.5125918378803931 #
point $-1 71.34739219336528 47.370121971651365 10.573453019454357 #
point $-1 56.467497897169721 42.619544570158162 6.004887061607544 #
point $-1 65.395434474887068 42.619544570158162 6.004887061607544 #
straight-curve $-1 -71.34739219336528 0 -10.573453019454357 0 1 0 I I #
point $-1 -71.34739219336528 -47.370121971651365 -10.573453019454357 #
point $-1 -71.34739219336528 47.370121971651365 -10.573453019454357 #
End-of-ACIS-data 