500 0 8 0           
7 Unknown 11 ACIS 5.0 NT 24 Fri Mar 26 19:01:01 1999 
-1 9.9999999999999995e-007 1e-010 
body $-1 $8 $-1 $9 #
body $-1 $10 $-1 $11 #
body $-1 $12 $-1 $13 #
body $-1 $14 $-1 $15 #
body $-1 $16 $-1 $17 #
body $-1 $18 $-1 $19 #
body $-1 $20 $-1 $21 #
body $-1 $22 $-1 $23 #
lump $-1 $-1 $24 $0 #
transform $-1 1 0 0 0 1 0 0 0 1 73.559373760185551 47.031125225864045 16.156677788779522 1 rotate no_reflect no_shear #
lump $-1 $-1 $25 $1 #
transform $-1 1 0 0 0 1 0 0 0 1 73.559373760185551 47.031125225864045 16.156677788779522 1 rotate no_reflect no_shear #
lump $-1 $-1 $26 $2 #
transform $-1 1 0 0 0 1 0 0 0 1 73.559373760185551 47.031125225864045 16.156677788779522 1 rotate no_reflect no_shear #
lump $-1 $-1 $27 $3 #
transform $-1 1 0 0 0 1 0 0 0 1 73.559373760185551 47.031125225864045 16.156677788779522 1 rotate no_reflect no_shear #
lump $-1 $-1 $28 $4 #
transform $-1 1 0 0 0 1 0 0 0 1 73.559373760185551 47.031125225864045 16.156677788779522 1 rotate no_reflect no_shear #
lump $-1 $-1 $29 $5 #
transform $-1 1 0 0 0 1 0 0 0 1 73.559373760185551 47.031125225864045 16.156677788779522 1 rotate no_reflect no_shear #
lump $-1 $-1 $30 $6 #
transform $-1 1 0 0 0 1 0 0 0 1 73.559373760185551 47.031125225864045 16.156677788779522 1 rotate no_reflect no_shear #
lump $-1 $-1 $31 $7 #
transform $-1 1 0 0 0 1 0 0 0 1 73.559373760185551 47.031125225864045 16.156677788779522 1 rotate no_reflect no_shear #
shell $-1 $-1 $-1 $32 $-1 $8 #
shell $-1 $-1 $-1 $33 $-1 $10 #
shell $-1 $-1 $-1 $34 $-1 $12 #
shell $-1 $-1 $-1 $35 $-1 $14 #
shell $-1 $-1 $-1 $36 $-1 $16 #
shell $-1 $-1 $-1 $37 $-1 $18 #
shell $-1 $-1 $-1 $38 $-1 $20 #
shell $-1 $-1 $-1 $39 $-1 $22 #
face $-1 $40 $41 $24 $-1 $42 forward single #
face $-1 $43 $44 $25 $-1 $45 reversed single #
face $-1 $46 $47 $26 $-1 $48 reversed single #
face $-1 $49 $50 $27 $-1 $51 forward single #
face $-1 $52 $53 $28 $-1 $54 forward single #
face $-1 $55 $56 $29 $-1 $57 reversed single #
face $-1 $58 $59 $30 $-1 $60 forward single #
face $-1 $61 $62 $31 $-1 $63 forward single #
face $-1 $64 $65 $24 $-1 $66 reversed single #
loop $-1 $-1 $67 $32 #
plane-surface $-1 0 0 16.156677788779522 0 0 1 1 0 0 forward_v I I I I #
face $-1 $68 $69 $25 $-1 $70 reversed single #
loop $-1 $-1 $71 $33 #
plane-surface $-1 -69.071429622312309 -31.765468469372863 0 0 -1 0 0 0 -1 forward_v I I I I #
face $-1 $72 $73 $26 $-1 $74 reversed single #
loop $-1 $-1 $75 $34 #
plane-surface $-1 26.756660130145093 29.442990620084046 202.73527214771966 0 1 0 0.52991927123019833 0 0.84804809178421925 forward_v I I I I #
face $-1 $76 $77 $27 $-1 $78 forward single #
loop $-1 $79 $80 $35 #
cone-surface $-1 58.538927295491085 34.468171936021193 4.7216472773563938 -0.52991927123019833 0 -0.84804809178421925 1.6960961835684385 0 -1.0598385424603967 1 I I 0 1 2 forward I I I I #
face $-1 $81 $82 $28 $-1 $83 forward single #
loop $-1 $84 $85 $36 #
cone-surface $-1 58.538927295491085 42.005943909926899 4.7216472773563938 -0.52991927123019833 0 -0.84804809178421925 1.6960961835684385 0 -1.0598385424603967 1 I I 0 1 2 forward I I I I #
face $-1 $86 $87 $29 $-1 $88 reversed single #
loop $-1 $-1 $89 $37 #
plane-surface $-1 -151.52043323048014 29.442990620084046 124.77421267742506 0 1 0 -0.52991927123019833 0 0.84804809178421925 forward_v I I I I #
face $-1 $90 $91 $30 $-1 $92 forward single #
loop $-1 $93 $94 $38 #
cone-surface $-1 -58.538927295491057 34.468171936021193 4.7216472773563938 0.52991927123019833 0 -0.84804809178421925 1.6960961835684385 0 1.0598385424603967 1 I I 0 1 2 forward I I I I #
face $-1 $95 $96 $31 $-1 $97 forward single #
loop $-1 $98 $99 $39 #
cone-surface $-1 -58.538927295491057 42.005943909926899 4.7216472773563938 0.52991927123019833 0 -0.84804809178421925 1.6960961835684385 0 1.0598385424603967 1 I I 0 1 2 forward I I I I #
face $-1 $100 $101 $24 $-1 $102 reversed single #
loop $-1 $-1 $103 $40 #
plane-surface $-1 0 0 -16.156677788779522 0 0 1 1 0 0 forward_v I I I I #
coedge $-1 $104 $105 $106 $107 forward $41 $-1 #
face $-1 $108 $109 $25 $-1 $110 forward single #
loop $-1 $-1 $111 $43 #
plane-surface $-1 -64.58348548443908 -39.398296847618454 0 -1 0 0 0 0 1 forward_v I I I I #
coedge $-1 $112 $113 $114 $115 forward $44 $-1 #
face $-1 $116 $117 $26 $-1 $118 reversed single #
loop $-1 $-1 $119 $46 #
plane-surface $-1 -51.204399340149493 38.237057922974046 77.971499047384626 0.52991927123019833 0 0.84804809178421925 0.84804809178421925 0 -0.52991927123019833 forward_v I I I I #
coedge $-1 $120 $121 $122 $123 reversed $47 $-1 #
face $-1 $-1 $124 $27 $-1 $125 forward single #
loop $-1 $126 $127 $49 #
cone-surface $-1 55.908252584511743 34.468171936021193 0.5116877799938031 -0.52991927123019833 0 -0.84804809178421925 0.84804809178421925 0 -0.52991927123019833 1 I I -0.70710678118654746 0.70710678118654746 1 forward I I I I #
loop $-1 $-1 $128 $35 #
coedge $-1 $80 $80 $129 $130 reversed $50 $-1 #
face $-1 $-1 $131 $28 $-1 $132 forward single #
loop $-1 $133 $134 $52 #
cone-surface $-1 55.908252584511743 42.005943909926899 0.5116877799938031 -0.52991927123019833 0 -0.84804809178421925 0.84804809178421925 0 -0.52991927123019833 1 I I -0.70710678118654746 0.70710678118654746 1 forward I I I I #
loop $-1 $-1 $135 $36 #
coedge $-1 $85 $85 $136 $137 reversed $53 $-1 #
face $-1 $138 $139 $29 $-1 $140 reversed single #
loop $-1 $-1 $141 $55 #
plane-surface $-1 -73.559373760185551 38.237057922974046 0.010439577090025409 -0.52991927123019833 0 0.84804809178421925 0.84804809178421925 0 0.52991927123019833 forward_v I I I I #
coedge $-1 $142 $143 $144 $145 reversed $56 $-1 #
face $-1 $-1 $146 $30 $-1 $147 forward single #
loop $-1 $148 $149 $58 #
cone-surface $-1 -55.908252584511715 34.468171936021193 0.5116877799938031 0.52991927123019833 0 -0.84804809178421925 0.84804809178421925 0 0.52991927123019833 1 I I -0.70710678118654746 0.70710678118654746 1 forward I I I I #
loop $-1 $-1 $150 $38 #
coedge $-1 $94 $94 $151 $152 reversed $59 $-1 #
face $-1 $-1 $153 $31 $-1 $154 forward single #
loop $-1 $155 $156 $61 #
cone-surface $-1 -55.908252584511715 42.005943909926899 0.5116877799938031 0.52991927123019833 0 -0.84804809178421925 0.84804809178421925 0 0.52991927123019833 1 I I -0.70710678118654746 0.70710678118654746 1 forward I I I I #
loop $-1 $-1 $157 $39 #
coedge $-1 $99 $99 $158 $159 reversed $62 $-1 #
face $-1 $160 $161 $24 $-1 $162 reversed single #
loop $-1 $-1 $163 $64 #
plane-surface $-1 0 -47.031125225864045 0 0 1 0 0 0 1 forward_v I I I I #
coedge $-1 $164 $165 $166 $167 forward $65 $-1 #
coedge $-1 $168 $67 $169 $170 forward $41 $-1 #
coedge $-1 $67 $168 $171 $172 forward $41 $-1 #
coedge $-1 $173 $174 $67 $107 reversed $175 $-1 #
edge $-1 $176 -47.031125225864045 $177 47.031125225864045 $106 $178 forward 7 unknown #
face $-1 $179 $180 $25 $-1 $181 reversed single #
loop $-1 $-1 $182 $68 #
plane-surface $-1 0 0 16.156677788779522 0 0 1 1 0 0 forward_v I I I I #
coedge $-1 $183 $184 $185 $186 reversed $69 $-1 #
coedge $-1 $187 $71 $188 $189 reversed $44 $-1 #
coedge $-1 $71 $187 $190 $191 reversed $44 $-1 #
coedge $-1 $184 $183 $71 $115 reversed $69 $-1 #
edge $-1 $192 -16.156677788779522 $193 16.156677788779522 $114 $194 forward 7 unknown #
face $-1 $195 $196 $26 $-1 $197 reversed single #
loop $-1 $-1 $122 $72 #
plane-surface $-1 73.559373760185551 0 0 -1 0 0 0 0 1 forward_v I I I I #
coedge $-1 $198 $199 $200 $201 reversed $73 $-1 #
coedge $-1 $121 $75 $202 $203 reversed $47 $-1 #
coedge $-1 $75 $120 $198 $204 reversed $47 $-1 #
coedge $-1 $200 $205 $75 $123 forward $117 $-1 #
edge $-1 $206 85.210958285080309 $207 101.3571964967698 $122 $208 forward 7 unknown #
loop $-1 $-1 $129 $76 #
plane-surface $-1 -51.204399340149493 38.237057922974046 77.971499047384626 0.52991927123019833 0 0.84804809178421925 0.84804809178421925 0 -0.52991927123019833 forward_v I I I I #
loop $-1 $-1 $209 $49 #
coedge $-1 $127 $127 $128 $210 reversed $77 $-1 #
coedge $-1 $128 $128 $127 $210 forward $79 $-1 #
coedge $-1 $129 $129 $80 $130 forward $124 $-1 #
edge $-1 $211 0 $211 6.2831853071796004 $129 $212 forward 7 unknown #
loop $-1 $-1 $136 $81 #
plane-surface $-1 -51.204399340149493 38.237057922974046 77.971499047384626 0.52991927123019833 0 0.84804809178421925 0.84804809178421925 0 -0.52991927123019833 forward_v I I I I #
loop $-1 $-1 $213 $52 #
coedge $-1 $134 $134 $135 $214 reversed $82 $-1 #
coedge $-1 $135 $135 $134 $214 forward $84 $-1 #
coedge $-1 $136 $136 $85 $137 forward $131 $-1 #
edge $-1 $215 0 $215 6.2831853071796004 $136 $216 forward 7 unknown #
face $-1 $217 $218 $29 $-1 $219 reversed single #
loop $-1 $-1 $220 $86 #
plane-surface $-1 0 47.031125225864045 0 0 -1 0 0 0 -1 forward_v I I I I #
coedge $-1 $221 $222 $223 $224 reversed $87 $-1 #
coedge $-1 $143 $89 $225 $226 reversed $56 $-1 #
coedge $-1 $89 $142 $221 $227 reversed $56 $-1 #
coedge $-1 $223 $228 $89 $145 forward $229 $-1 #
edge $-1 $230 2.2008428550545176 $231 28.04022490494517 $144 $232 forward 7 unknown #
loop $-1 $-1 $151 $90 #
plane-surface $-1 -73.559373760185551 38.237057922974046 0.010439577090025409 -0.52991927123019833 0 0.84804809178421925 0.84804809178421925 0 0.52991927123019833 forward_v I I I I #
loop $-1 $-1 $233 $58 #
coedge $-1 $149 $149 $150 $234 reversed $91 $-1 #
coedge $-1 $150 $150 $149 $234 forward $93 $-1 #
coedge $-1 $151 $151 $94 $152 forward $146 $-1 #
edge $-1 $235 0 $235 6.2831853071796004 $151 $236 forward 7 unknown #
loop $-1 $-1 $158 $95 #
plane-surface $-1 -73.559373760185551 38.237057922974046 0.010439577090025409 -0.52991927123019833 0 0.84804809178421925 0.84804809178421925 0 0.52991927123019833 forward_v I I I I #
loop $-1 $-1 $237 $61 #
coedge $-1 $156 $156 $157 $238 reversed $96 $-1 #
coedge $-1 $157 $157 $156 $238 forward $98 $-1 #
coedge $-1 $158 $158 $99 $159 forward $153 $-1 #
edge $-1 $239 0 $239 6.2831853071796004 $158 $240 forward 7 unknown #
face $-1 $241 $242 $24 $-1 $243 reversed single #
loop $-1 $-1 $244 $100 #
plane-surface $-1 -73.559373760185551 0 0 1 0 0 0 0 -1 forward_v I I I I #
coedge $-1 $245 $171 $246 $247 forward $101 $-1 #
coedge $-1 $248 $103 $245 $249 forward $65 $-1 #
coedge $-1 $103 $248 $250 $251 forward $65 $-1 #
coedge $-1 $174 $173 $103 $167 reversed $175 $-1 #
edge $-1 $252 -47.031125225864045 $253 47.031125225864045 $166 $254 forward 7 unknown #
coedge $-1 $105 $104 $255 $256 forward $41 $-1 #
coedge $-1 $257 $258 $104 $170 reversed $242 $-1 #
edge $-1 $177 -73.559373760185551 $259 73.559373760185551 $169 $260 forward 7 unknown #
coedge $-1 $163 $261 $105 $172 reversed $101 $-1 #
edge $-1 $262 -73.559373760185551 $176 73.559373760185551 $171 $263 forward 7 unknown #
coedge $-1 $166 $106 $261 $264 forward $175 $-1 #
coedge $-1 $106 $166 $257 $265 reversed $175 $-1 #
loop $-1 $-1 $173 $241 #
vertex $-1 $107 $266 #
vertex $-1 $107 $267 #
straight-curve $-1 73.559373760185551 0 16.156677788779522 0 1 0 I I #
face $-1 $268 $269 $25 $-1 $270 reversed single #
loop $-1 $-1 $271 $108 #
plane-surface $-1 -73.559373760185551 0 0 1 0 0 0 0 -1 forward_v I I I I #
coedge $-1 $190 $272 $184 $273 forward $109 $-1 #
coedge $-1 $114 $111 $274 $275 reversed $69 $-1 #
coedge $-1 $111 $114 $182 $273 reversed $69 $-1 #
coedge $-1 $276 $277 $111 $186 forward $278 $-1 #
edge $-1 $279 -16.156677788779522 $280 16.156677788779522 $185 $281 forward 7 unknown #
coedge $-1 $113 $112 $271 $282 reversed $44 $-1 #
coedge $-1 $274 $283 $112 $189 forward $269 $-1 #
edge $-1 $284 -39.023658949029382 $193 -30.047770673282926 $188 $285 forward 7 unknown #
coedge $-1 $286 $182 $113 $191 forward $109 $-1 #
edge $-1 $192 30.047770673282926 $287 39.023658949029382 $190 $288 forward 7 unknown #
vertex $-1 $191 $289 #
vertex $-1 $189 $290 #
straight-curve $-1 -64.58348548443908 -31.765468469372863 0 0 0 -1 I I #
face $-1 $-1 $291 $26 $-1 $292 forward single #
loop $-1 $-1 $293 $116 #
plane-surface $-1 0 47.031125225864045 0 0 -1 0 0 0 -1 forward_v I I I I #
coedge $-1 $294 $119 $121 $204 forward $73 $-1 #
coedge $-1 $119 $294 $293 $295 reversed $73 $-1 #
coedge $-1 $296 $122 $119 $201 forward $117 $-1 #
edge $-1 $207 10.324461658597023 $297 27.912596264377022 $200 $298 forward 7 unknown #
coedge $-1 $299 $300 $120 $203 forward $291 $-1 #
edge $-1 $301 34.341661645222359 $206 60.181043695113004 $202 $302 forward 7 unknown #
edge $-1 $207 -147.1187475203711 $301 -116.64950609383027 $121 $303 forward 7 unknown #
coedge $-1 $122 $296 $299 $304 reversed $117 $-1 #
vertex $-1 $304 $305 #
vertex $-1 $123 $306 #
straight-curve $-1 73.559373760185551 29.442990620084046 101.36763607385983 0 0 -1 I I #
coedge $-1 $209 $209 $-1 $307 reversed $126 $-1 #
edge $-1 $308 0 $308 6.2831853071796004 $127 $309 forward 7 unknown #
vertex $-1 $130 $310 #
ellipse-curve $-1 60.639682735240228 34.468171936021193 8.0835586829347612 0.52991927123019833 0 0.84804809178421925 1.6960961835684385 0 -1.0598385424603967 1 I I #
coedge $-1 $213 $213 $-1 $311 reversed $133 $-1 #
edge $-1 $312 0 $312 6.2831853071796004 $134 $313 forward 7 unknown #
vertex $-1 $137 $314 #
ellipse-curve $-1 60.639682735240228 42.005943909926899 8.0835586829347612 0.52991927123019833 0 0.84804809178421925 1.6960961835684385 0 -1.0598385424603967 1 I I #
face $-1 $-1 $229 $29 $-1 $315 forward single #
loop $-1 $-1 $316 $138 #
plane-surface $-1 -73.559373760185551 0 0 1 0 0 0 0 -1 forward_v I I I I #
coedge $-1 $317 $318 $222 $319 forward $139 $-1 #
coedge $-1 $320 $141 $143 $227 forward $87 $-1 #
coedge $-1 $141 $320 $220 $319 reversed $87 $-1 #
coedge $-1 $321 $144 $141 $224 forward $229 $-1 #
edge $-1 $231 10.324461658597023 $322 27.912596264377022 $223 $323 forward 7 unknown #
coedge $-1 $324 $316 $142 $226 forward $218 $-1 #
edge $-1 $325 -62.376666761622502 $230 -46.230428549933009 $225 $326 forward 7 unknown #
edge $-1 $231 -30.469241426540854 $325 0 $143 $327 forward 7 unknown #
coedge $-1 $144 $321 $324 $328 forward $229 $-1 #
loop $-1 $-1 $223 $217 #
vertex $-1 $226 $329 #
vertex $-1 $145 $330 #
straight-curve $-1 -75.760216615240068 29.442990620084046 16.156677788779518 1 0 0 I I #
coedge $-1 $233 $233 $-1 $331 reversed $148 $-1 #
edge $-1 $332 0 $332 6.2831853071796004 $149 $333 forward 7 unknown #
vertex $-1 $152 $334 #
ellipse-curve $-1 -60.639682735240214 34.468171936021193 8.0835586829347825 -0.52991927123019833 0 0.84804809178421925 1.6960961835684385 0 1.0598385424603967 1 I I #
coedge $-1 $237 $237 $-1 $335 reversed $155 $-1 #
edge $-1 $336 0 $336 6.2831853071796004 $156 $337 forward 7 unknown #
vertex $-1 $159 $338 #
ellipse-curve $-1 -60.639682735240214 42.005943909926899 8.0835586829347825 -0.52991927123019833 0 0.84804809178421925 1.6960961835684385 0 1.0598385424603967 1 I I #
face $-1 $-1 $175 $24 $-1 $339 reversed single #
loop $-1 $-1 $257 $160 #
plane-surface $-1 0 47.031125225864045 0 0 -1 0 0 0 -1 forward_v I I I I #
coedge $-1 $340 $255 $258 $341 forward $161 $-1 #
coedge $-1 $261 $163 $164 $249 reversed $101 $-1 #
coedge $-1 $255 $340 $163 $247 reversed $161 $-1 #
edge $-1 $262 -16.156677788779522 $342 16.156677788779522 $246 $343 forward 7 unknown #
coedge $-1 $165 $164 $340 $344 forward $65 $-1 #
edge $-1 $253 -73.559373760185551 $342 73.559373760185551 $245 $345 forward 7 unknown #
coedge $-1 $258 $257 $165 $251 reversed $242 $-1 #
edge $-1 $346 -73.559373760185551 $252 73.559373760185551 $250 $347 forward 7 unknown #
vertex $-1 $167 $348 #
vertex $-1 $264 $349 #
straight-curve $-1 73.559373760185551 0 -16.156677788779522 0 -1 0 I I #
coedge $-1 $244 $246 $168 $256 reversed $161 $-1 #
edge $-1 $259 -47.031125225864045 $262 47.031125225864045 $255 $350 forward 7 unknown #
coedge $-1 $250 $169 $174 $265 forward $242 $-1 #
coedge $-1 $169 $250 $244 $341 reversed $242 $-1 #
vertex $-1 $170 $351 #
straight-curve $-1 0 47.031125225864045 16.156677788779522 -1 0 0 I I #
coedge $-1 $171 $245 $173 $264 reversed $101 $-1 #
vertex $-1 $256 $352 #
straight-curve $-1 0 -47.031125225864045 16.156677788779522 1 0 0 I I #
edge $-1 $176 -16.156677788779522 $253 16.156677788779522 $173 $353 forward 7 unknown #
edge $-1 $177 -16.156677788779522 $252 16.156677788779522 $174 $354 forward 7 unknown #
point $-1 73.559373760185551 -47.031125225864045 16.156677788779522 #
point $-1 73.559373760185551 47.031125225864045 16.156677788779522 #
face $-1 $-1 $278 $25 $-1 $355 reversed single #
loop $-1 $-1 $274 $179 #
plane-surface $-1 0 0 -16.156677788779522 0 0 1 1 0 0 forward_v I I I I #
coedge $-1 $356 $357 $187 $282 forward $180 $-1 #
coedge $-1 $182 $286 $276 $358 forward $109 $-1 #
edge $-1 $280 -27.331976802054818 $192 -12.066320045563636 $182 $359 forward 7 unknown #
coedge $-1 $360 $188 $183 $275 forward $269 $-1 #
edge $-1 $193 12.066320045563636 $279 27.331976802054818 $274 $361 forward 7 unknown #
coedge $-1 $362 $185 $272 $358 reversed $278 $-1 #
coedge $-1 $185 $362 $360 $363 reversed $278 $-1 #
loop $-1 $-1 $185 $268 #
vertex $-1 $363 $364 #
vertex $-1 $186 $365 #
straight-curve $-1 -64.58348548443908 -47.031125225864045 0 0 0 1 I I #
edge $-1 $287 -16.156677788779522 $284 16.156677788779522 $271 $366 forward 7 unknown #
coedge $-1 $188 $360 $356 $367 forward $269 $-1 #
vertex $-1 $189 $368 #
straight-curve $-1 -34.535714811156154 -31.765468469372863 -16.156677788779522 1 0 0 I I #
coedge $-1 $272 $190 $357 $369 forward $109 $-1 #
vertex $-1 $369 $370 #
straight-curve $-1 -34.535714811156154 -31.765468469372863 16.156677788779522 -1 0 0 I I #
point $-1 -64.58348548443908 -31.765468469372863 16.156677788779522 #
point $-1 -64.58348548443908 -31.765468469372863 -16.156677788779522 #
loop $-1 $-1 $202 $195 #
plane-surface $-1 0 0 16.156677788779522 0 0 1 1 0 0 forward_v I I I I #
coedge $-1 $371 $372 $199 $295 forward $196 $-1 #
coedge $-1 $199 $198 $300 $373 reversed $73 $-1 #
edge $-1 $297 -104.74755096872755 $374 -74.278309542186719 $293 $375 forward 7 unknown #
coedge $-1 $205 $200 $372 $376 reversed $117 $-1 #
vertex $-1 $295 $377 #
straight-curve $-1 73.559373760185565 19.118528961487023 0.010439577090025409 0 1 0 I I #
coedge $-1 $378 $202 $205 $304 forward $291 $-1 #
coedge $-1 $202 $378 $294 $373 forward $291 $-1 #
vertex $-1 $203 $379 #
straight-curve $-1 13.378330065072547 29.442990620084046 16.156677788779518 1 0 0 I I #
straight-curve $-1 -51.204399340149493 29.442990620084046 77.971499047384626 -0.84804809178421925 0 0.52991927123019833 I I #
edge $-1 $206 29.442990620084046 $380 47.031125225864045 $205 $381 forward 7 unknown #
point $-1 73.559373760185551 29.442990620084046 16.156677788779522 #
point $-1 73.559373760185551 29.442990620084046 0.010439577090025409 #
edge $-1 $382 1 $382 0 $209 $-1 forward 7 unknown #
vertex $-1 $210 $383 #
ellipse-curve $-1 56.438171855741942 34.468171936021193 1.3597358717780224 0.52991927123019833 0 0.84804809178421925 1.6960961835684385 0 -1.0598385424603967 1 I I #
point $-1 62.335778918808671 34.468171936021193 7.0237201404743681 #
edge $-1 $384 1 $384 0 $213 $-1 forward 7 unknown #
vertex $-1 $214 $385 #
ellipse-curve $-1 56.438171855741942 42.005943909926899 1.3597358717780224 0.52991927123019833 0 0.84804809178421925 1.6960961835684385 0 -1.0598385424603967 1 I I #
point $-1 62.335778918808671 42.005943909926899 7.0237201404743681 #
plane-surface $-1 0 0 16.156677788779522 0 0 1 1 0 0 forward_v I I I I #
coedge $-1 $225 $386 $320 $387 forward $218 $-1 #
coedge $-1 $318 $220 $386 $388 reversed $139 $-1 #
coedge $-1 $220 $317 $321 $389 reversed $139 $-1 #
edge $-1 $322 0.71893578200116137 $390 31.188177208542015 $220 $391 forward 7 unknown #
coedge $-1 $222 $221 $316 $387 reversed $87 $-1 #
coedge $-1 $228 $223 $318 $389 forward $229 $-1 #
vertex $-1 $389 $392 #
straight-curve $-1 -47.719991710294899 19.118528961487023 16.156677788779522 0 1 0 I I #
coedge $-1 $386 $225 $228 $328 reversed $218 $-1 #
vertex $-1 $226 $393 #
straight-curve $-1 -73.559373760185551 29.442990620084046 62.387106338712528 0 0 1 I I #
straight-curve $-1 -73.559373760185551 29.442990620084046 0.010439577090025409 -0.84804809178421925 0 -0.52991927123019833 I I #
edge $-1 $394 -47.031125225864045 $230 -29.442990620084046 $324 $395 forward 7 unknown #
point $-1 -73.559373760185551 29.442990620084046 16.156677788779522 #
point $-1 -47.719991710294899 29.442990620084046 16.156677788779522 #
edge $-1 $396 1 $396 0 $233 $-1 forward 7 unknown #
vertex $-1 $234 $397 #
ellipse-curve $-1 -56.438171855741913 34.468171936021193 1.3597358717780224 -0.52991927123019833 0 0.84804809178421925 1.6960961835684385 0 1.0598385424603967 1 I I #
point $-1 -58.943586551671771 34.468171936021193 9.1433972253951623 #
edge $-1 $398 1 $398 0 $237 $-1 forward 7 unknown #
vertex $-1 $238 $399 #
ellipse-curve $-1 -56.438171855741913 42.005943909926899 1.3597358717780224 -0.52991927123019833 0 0.84804809178421925 1.6960961835684385 0 1.0598385424603967 1 I I #
point $-1 -58.943586551671771 42.005943909926899 9.1433972253951623 #
plane-surface $-1 73.559373760185551 0 0 -1 0 0 0 0 1 forward_v I I I I #
coedge $-1 $246 $244 $248 $344 reversed $161 $-1 #
edge $-1 $259 -16.156677788779522 $346 16.156677788779522 $258 $400 forward 7 unknown #
vertex $-1 $344 $401 #
straight-curve $-1 -73.559373760185551 -47.031125225864045 0 0 0 -1 I I #
edge $-1 $342 -47.031125225864045 $346 47.031125225864045 $340 $402 forward 7 unknown #
straight-curve $-1 0 -47.031125225864045 -16.156677788779522 -1 0 0 I I #
vertex $-1 $251 $403 #
straight-curve $-1 0 47.031125225864045 -16.156677788779522 1 0 0 I I #
point $-1 73.559373760185551 47.031125225864045 -16.156677788779522 #
point $-1 73.559373760185551 -47.031125225864045 -16.156677788779522 #
straight-curve $-1 -73.559373760185551 0 16.156677788779522 0 -1 0 I I #
point $-1 -73.559373760185551 47.031125225864045 16.156677788779522 #
point $-1 -73.559373760185551 -47.031125225864045 16.156677788779522 #
straight-curve $-1 73.559373760185551 -47.031125225864045 0 0 0 -1 I I #
straight-curve $-1 73.559373760185551 47.031125225864045 0 0 0 -1 I I #
plane-surface $-1 0 -47.031125225864045 0 0 1 0 0 0 1 forward_v I I I I #
coedge $-1 $404 $271 $283 $367 reversed $180 $-1 #
coedge $-1 $271 $404 $286 $369 reversed $180 $-1 #
edge $-1 $405 -73.559373760185551 $280 -64.58348548443908 $276 $406 forward 7 unknown #
straight-curve $-1 -64.58348548443908 -19.699148423809227 16.156677788779522 0 1 0 I I #
coedge $-1 $283 $274 $277 $363 forward $269 $-1 #
straight-curve $-1 -64.58348548443908 -19.699148423809227 -16.156677788779522 0 -1 0 I I #
coedge $-1 $277 $276 $404 $407 forward $278 $-1 #
edge $-1 $279 64.58348548443908 $408 73.559373760185551 $277 $409 forward 7 unknown #
point $-1 -64.58348548443908 -47.031125225864045 -16.156677788779522 #
point $-1 -64.58348548443908 -47.031125225864045 16.156677788779522 #
straight-curve $-1 -73.559373760185551 -31.765468469372863 0 0 0 -1 I I #
edge $-1 $408 -47.031125225864045 $284 -31.765468469372863 $356 $410 forward 7 unknown #
point $-1 -73.559373760185537 -31.765468469372863 -16.156677788779522 #
edge $-1 $287 31.765468469372863 $405 47.031125225864045 $357 $411 forward 7 unknown #
point $-1 -73.559373760185537 -31.765468469372863 16.156677788779522 #
coedge $-1 $372 $293 $378 $412 reversed $196 $-1 #
coedge $-1 $293 $371 $296 $376 forward $196 $-1 #
edge $-1 $374 -27.912596264377022 $301 -10.324461658597023 $300 $413 forward 7 unknown #
vertex $-1 $295 $414 #
straight-curve $-1 -15.271586957914103 47.031125225864045 55.518185449586184 -0.84804809178421925 0 0.52991927123019833 I I #
edge $-1 $380 -16.156677788779522 $297 -0.010439577090019643 $296 $415 forward 7 unknown #
point $-1 73.559373760185551 47.031125225864045 0.010439577090019643 #
coedge $-1 $300 $299 $371 $412 forward $291 $-1 #
point $-1 47.719991710294906 29.442990620084046 16.156677788779518 #
vertex $-1 $304 $416 #
straight-curve $-1 73.559373760185551 0 16.156677788779522 0 1 0 I I #
vertex $-1 $307 $417 #
point $-1 58.134268039310378 34.468171936021193 0.29989732931762569 #
vertex $-1 $311 $418 #
point $-1 58.134268039310378 42.005943909926899 0.29989732931762569 #
coedge $-1 $316 $324 $317 $388 forward $218 $-1 #
edge $-1 $390 -27.912596264377022 $325 -10.324461658597023 $316 $419 forward 7 unknown #
edge $-1 $394 -16.156677788779522 $390 -0.010439577090025409 $317 $420 forward 7 unknown #
edge $-1 $322 47.719991710294899 $394 73.559373760185551 $318 $421 forward 7 unknown #
vertex $-1 $387 $422 #
straight-curve $-1 -47.110299592253419 47.031125225864045 16.537655714438891 -0.84804809178421925 0 -0.52991927123019833 I I #
point $-1 -47.719991710294899 47.031125225864045 16.156677788779522 #
point $-1 -73.559373760185551 29.442990620084046 0.010439577090025409 #
vertex $-1 $389 $423 #
straight-curve $-1 -73.559373760185551 0 16.156677788779522 0 -1 0 I I #
vertex $-1 $331 $424 #
point $-1 -54.742075672173478 34.468171936021193 2.419574414238419 #
vertex $-1 $335 $425 #
point $-1 -54.742075672173478 42.005943909926899 2.419574414238419 #
straight-curve $-1 -73.559373760185551 47.031125225864045 0 0 0 -1 I I #
point $-1 -73.559373760185551 -47.031125225864045 -16.156677788779522 #
straight-curve $-1 -73.559373760185551 0 -16.156677788779522 0 1 0 I I #
point $-1 -73.559373760185551 47.031125225864045 -16.156677788779522 #
coedge $-1 $357 $356 $362 $407 reversed $180 $-1 #
vertex $-1 $369 $426 #
straight-curve $-1 0 -47.031125225864045 16.156677788779522 1 0 0 I I #
edge $-1 $405 -16.156677788779522 $408 16.156677788779522 $404 $427 forward 7 unknown #
vertex $-1 $367 $428 #
straight-curve $-1 0 -47.031125225864045 -16.156677788779522 -1 0 0 I I #
straight-curve $-1 -73.559373760185551 0 -16.156677788779522 0 1 0 I I #
straight-curve $-1 -73.559373760185551 0 16.156677788779522 0 -1 0 I I #
edge $-1 $380 -73.559373760185551 $374 -47.719991710294906 $371 $429 forward 7 unknown #
straight-curve $-1 47.719991710294906 19.118528961487023 16.156677788779518 0 -1 0 I I #
point $-1 47.719991710294906 47.031125225864045 16.156677788779518 #
straight-curve $-1 73.559373760185551 47.031125225864045 0 0 0 -1 I I #
point $-1 73.559373760185551 47.031125225864045 16.156677788779522 #
point $-1 55.378333313281544 34.468171936021193 -0.33636031179041614 #
point $-1 55.378333313281544 42.005943909926899 -0.33636031179041614 #
straight-curve $-1 -73.559373760185551 19.118528961487023 0.010439577090022795 0 -1 0 I I #
straight-curve $-1 -73.559373760185551 47.031125225864045 0 0 0 -1 I I #
straight-curve $-1 0 47.031125225864045 16.156677788779522 -1 0 0 I I #
point $-1 -73.559373760185551 47.031125225864045 0.010439577090025409 #
point $-1 -73.559373760185551 47.031125225864045 16.156677788779522 #
point $-1 -55.378333313281516 34.468171936021193 -0.33636031179041614 #
point $-1 -55.378333313281516 42.005943909926899 -0.33636031179041614 #
point $-1 -73.559373760185551 -47.031125225864045 16.156677788779522 #
straight-curve $-1 -73.559373760185551 -47.031125225864045 0 0 0 -1 I I #
point $-1 -73.559373760185551 -47.031125225864045 -16.156677788779522 #
straight-curve $-1 0 47.031125225864045 16.156677788779522 -1 0 0 I I #
End-of-ACIS-data 