500 0 18 0           
7 Unknown 11 ACIS 5.0 NT 24 Thu Mar 25 15:56:50 1999 
-1 9.9999999999999995e-007 1e-010 
body $-1 $18 $-1 $19 #
body $-1 $20 $-1 $21 #
body $-1 $22 $-1 $23 #
body $-1 $24 $-1 $25 #
body $-1 $26 $-1 $27 #
body $-1 $28 $-1 $29 #
body $-1 $30 $-1 $31 #
body $-1 $32 $-1 $33 #
body $-1 $34 $-1 $35 #
body $-1 $36 $-1 $37 #
body $-1 $38 $-1 $39 #
body $-1 $40 $-1 $41 #
body $-1 $42 $-1 $43 #
body $-1 $44 $-1 $45 #
body $-1 $46 $-1 $47 #
body $-1 $48 $-1 $49 #
body $-1 $50 $-1 $51 #
body $-1 $52 $-1 $53 #
lump $-1 $-1 $54 $0 #
transform $-1 1 0 0 0 1 0 0 0 1 42.551347392193364 25.14992797051514 10.942409989063664 1 rotate no_reflect no_shear #
lump $-1 $-1 $55 $1 #
transform $-1 1 0 0 0 1 0 0 0 1 42.551347392193364 25.14992797051514 10.942409989063664 1 rotate no_reflect no_shear #
lump $-1 $-1 $56 $2 #
transform $-1 1 0 0 0 1 0 0 0 1 42.551347392193364 25.14992797051514 10.942409989063664 1 rotate no_reflect no_shear #
lump $-1 $-1 $57 $3 #
transform $-1 1 0 0 0 1 0 0 0 1 42.551347392193364 25.14992797051514 10.942409989063664 1 rotate no_reflect no_shear #
lump $-1 $-1 $58 $4 #
transform $-1 1 0 0 0 1 0 0 0 1 42.551347392193364 25.14992797051514 10.942409989063664 1 rotate no_reflect no_shear #
lump $-1 $-1 $59 $5 #
transform $-1 1 0 0 0 1 0 0 0 1 42.551347392193364 25.14992797051514 10.942409989063664 1 rotate no_reflect no_shear #
lump $-1 $-1 $60 $6 #
transform $-1 1 0 0 0 1 0 0 0 1 42.551347392193364 25.14992797051514 10.942409989063664 1 rotate no_reflect no_shear #
lump $-1 $-1 $61 $7 #
transform $-1 1 0 0 0 1 0 0 0 1 42.551347392193364 25.14992797051514 10.942409989063664 1 rotate no_reflect no_shear #
lump $-1 $-1 $62 $8 #
transform $-1 1 0 0 0 1 0 0 0 1 42.551347392193364 25.14992797051514 10.942409989063664 1 rotate no_reflect no_shear #
lump $-1 $-1 $63 $9 #
transform $-1 1 0 0 0 1 0 0 0 1 42.551347392193364 25.14992797051514 10.942409989063664 1 rotate no_reflect no_shear #
lump $-1 $-1 $64 $10 #
transform $-1 1 0 0 0 1 0 0 0 1 42.551347392193364 25.14992797051514 10.942409989063664 1 rotate no_reflect no_shear #
lump $-1 $-1 $65 $11 #
transform $-1 1 0 0 0 1 0 0 0 1 42.551347392193364 25.14992797051514 10.942409989063664 1 rotate no_reflect no_shear #
lump $-1 $-1 $66 $12 #
transform $-1 1 0 0 0 1 0 0 0 1 42.551347392193364 25.14992797051514 10.942409989063664 1 rotate no_reflect no_shear #
lump $-1 $-1 $67 $13 #
transform $-1 1 0 0 0 1 0 0 0 1 42.551347392193364 25.14992797051514 10.942409989063664 1 rotate no_reflect no_shear #
lump $-1 $-1 $68 $14 #
transform $-1 1 0 0 0 1 0 0 0 1 42.551347392193364 25.14992797051514 10.942409989063664 1 rotate no_reflect no_shear #
lump $-1 $-1 $69 $15 #
transform $-1 1 0 0 0 1 0 0 0 1 42.551347392193364 25.14992797051514 10.942409989063664 1 rotate no_reflect no_shear #
lump $-1 $-1 $70 $16 #
transform $-1 1 0 0 0 1 0 0 0 1 42.551347392193364 25.14992797051514 10.942409989063664 1 rotate no_reflect no_shear #
lump $-1 $-1 $71 $17 #
transform $-1 1 0 0 0 1 0 0 0 1 42.551347392193364 25.14992797051514 10.942409989063664 1 rotate no_reflect no_shear #
shell $-1 $-1 $-1 $72 $-1 $18 #
shell $-1 $-1 $-1 $73 $-1 $20 #
shell $-1 $-1 $-1 $74 $-1 $22 #
shell $-1 $-1 $-1 $75 $-1 $24 #
shell $-1 $-1 $-1 $76 $-1 $26 #
shell $-1 $-1 $-1 $77 $-1 $28 #
shell $-1 $-1 $-1 $78 $-1 $30 #
shell $-1 $-1 $-1 $79 $-1 $32 #
shell $-1 $-1 $-1 $80 $-1 $34 #
shell $-1 $-1 $-1 $81 $-1 $36 #
shell $-1 $-1 $-1 $82 $-1 $38 #
shell $-1 $-1 $-1 $83 $-1 $40 #
shell $-1 $-1 $-1 $84 $-1 $42 #
shell $-1 $-1 $-1 $85 $-1 $44 #
shell $-1 $-1 $-1 $86 $-1 $46 #
shell $-1 $-1 $-1 $87 $-1 $48 #
shell $-1 $-1 $-1 $88 $-1 $50 #
shell $-1 $-1 $-1 $89 $-1 $52 #
face $-1 $90 $91 $54 $-1 $92 forward single #
face $-1 $93 $94 $55 $-1 $95 reversed single #
face $-1 $96 $97 $56 $-1 $98 reversed single #
face $-1 $99 $100 $57 $-1 $101 forward single #
face $-1 $102 $103 $58 $-1 $104 forward single #
face $-1 $105 $106 $59 $-1 $107 forward single #
face $-1 $108 $109 $60 $-1 $110 reversed single #
face $-1 $111 $112 $61 $-1 $113 forward single #
face $-1 $114 $115 $62 $-1 $116 forward single #
face $-1 $117 $118 $63 $-1 $119 forward single #
face $-1 $120 $121 $64 $-1 $122 reversed single #
face $-1 $123 $124 $65 $-1 $125 forward single #
face $-1 $126 $127 $66 $-1 $128 forward single #
face $-1 $129 $130 $67 $-1 $131 forward single #
face $-1 $132 $133 $68 $-1 $134 reversed single #
face $-1 $135 $136 $69 $-1 $137 forward single #
face $-1 $138 $139 $70 $-1 $140 forward single #
face $-1 $141 $142 $71 $-1 $143 forward single #
face $-1 $144 $145 $54 $-1 $146 reversed single #
loop $-1 $-1 $147 $72 #
plane-surface $-1 0 0 10.942409989063664 0 0 1 1 0 0 forward_v I I I I #
face $-1 $148 $149 $55 $-1 $150 reversed single #
loop $-1 $-1 $151 $73 #
plane-surface $-1 0 -18.176773932170541 7.1847823246774762 0 0 1 1 0 0 forward_v I I I I #
face $-1 $152 $153 $56 $-1 $154 reversed single #
loop $-1 $-1 $155 $74 #
plane-surface $-1 -31.90000506567953 64.433942066652833 97.366257585782762 1 0 0 0 -0.80901700255871778 -0.5877852410284794 forward_v I I I I #
face $-1 $156 $157 $57 $-1 $158 forward single #
loop $-1 $159 $160 $75 #
cone-surface $-1 -29.775138791762959 22.782100801754527 8.2089501208261026 0 -0.80901700255871778 -0.5877852410284794 0.5 0 0 1 I I 0 1 0.5 forward I I I I #
face $-1 $161 $162 $58 $-1 $163 forward single #
loop $-1 $164 $165 $76 #
cone-surface $-1 -26.587839380888106 22.782100801754527 8.2089501208261026 0 -0.80901700255871778 -0.5877852410284794 0.5 0 0 1 I I 0 1 0.5 forward I I I I #
face $-1 $166 $167 $59 $-1 $168 forward single #
loop $-1 $169 $170 $77 #
cone-surface $-1 -23.400539970013252 22.782100801754527 8.2089501208261026 0 -0.80901700255871778 -0.5877852410284794 0.5 0 0 1 I I 0 1 0.5 forward I I I I #
face $-1 $171 $172 $60 $-1 $173 reversed single #
loop $-1 $-1 $174 $78 #
plane-surface $-1 -10.624331369582848 64.433942066652833 97.366257585782762 1 0 0 0 -0.80901700255871778 -0.5877852410284794 forward_v I I I I #
face $-1 $175 $176 $61 $-1 $177 forward single #
loop $-1 $178 $179 $79 #
cone-surface $-1 -8.4994650956662809 22.782100801754527 8.2089501208261026 0 -0.80901700255871778 -0.5877852410284794 0.5 0 0 1 I I 0 1 0.5 forward I I I I #
face $-1 $180 $181 $62 $-1 $182 forward single #
loop $-1 $183 $184 $80 #
cone-surface $-1 -5.3121656847914238 22.782100801754527 8.2089501208261026 0 -0.80901700255871778 -0.5877852410284794 0.5 0 0 1 I I 0 1 0.5 forward I I I I #
face $-1 $185 $186 $63 $-1 $187 forward single #
loop $-1 $188 $189 $81 #
cone-surface $-1 -2.1248662739165667 22.782100801754527 8.2089501208261026 0 -0.80901700255871778 -0.5877852410284794 0.5 0 0 1 I I 0 1 0.5 forward I I I I #
face $-1 $190 $191 $64 $-1 $192 reversed single #
loop $-1 $-1 $193 $82 #
plane-surface $-1 10.651342326513834 64.433942066652833 97.366257585782762 1 0 0 0 -0.80901700255871778 -0.5877852410284794 forward_v I I I I #
face $-1 $194 $195 $65 $-1 $196 forward single #
loop $-1 $197 $198 $83 #
cone-surface $-1 12.776208600430401 22.782100801754527 8.2089501208261026 0 -0.80901700255871778 -0.5877852410284794 0.5 0 0 1 I I 0 1 0.5 forward I I I I #
face $-1 $199 $200 $66 $-1 $201 forward single #
loop $-1 $202 $203 $84 #
cone-surface $-1 15.963508011305258 22.782100801754527 8.2089501208261026 0 -0.80901700255871778 -0.5877852410284794 0.5 0 0 1 I I 0 1 0.5 forward I I I I #
face $-1 $204 $205 $67 $-1 $206 forward single #
loop $-1 $207 $208 $85 #
cone-surface $-1 19.150807422180115 22.782100801754527 8.2089501208261026 0 -0.80901700255871778 -0.5877852410284794 0.5 0 0 1 I I 0 1 0.5 forward I I I I #
face $-1 $209 $210 $68 $-1 $211 reversed single #
loop $-1 $-1 $212 $86 #
plane-surface $-1 37.23918170740194 -4.4155849774811458 47.344149619768892 0 0.80901700255871778 0.5877852410284794 1 0 0 forward_v I I I I #
face $-1 $213 $214 $69 $-1 $215 forward single #
loop $-1 $216 $217 $87 #
cone-surface $-1 34.051882296527083 22.782100801754527 8.2089501208261026 0 -0.80901700255871778 -0.5877852410284794 0.5 0 0 1 I I 0 1 0.5 forward I I I I #
face $-1 $218 $219 $70 $-1 $220 forward single #
loop $-1 $221 $222 $88 #
cone-surface $-1 37.23918170740194 22.782100801754527 8.2089501208261026 0 -0.80901700255871778 -0.5877852410284794 0.5 0 0 1 I I 0 1 0.5 forward I I I I #
face $-1 $223 $224 $71 $-1 $225 forward single #
loop $-1 $226 $227 $89 #
cone-surface $-1 40.426481118276797 22.782100801754527 8.2089501208261026 0 -0.80901700255871778 -0.5877852410284794 0.5 0 0 1 I I 0 1 0.5 forward I I I I #
face $-1 $228 $229 $54 $-1 $230 reversed single #
loop $-1 $-1 $231 $90 #
plane-surface $-1 0 0 -10.942409989063664 0 0 1 1 0 0 forward_v I I I I #
coedge $-1 $232 $233 $234 $235 forward $91 $-1 #
face $-1 $236 $237 $55 $-1 $238 reversed single #
loop $-1 $-1 $239 $93 #
plane-surface $-1 0 -11.203619893825941 9.0635961568705685 0 -1 0 0 0 -1 forward_v I I I I #
coedge $-1 $240 $241 $242 $243 reversed $94 $-1 #
face $-1 $244 $245 $56 $-1 $246 reversed single #
loop $-1 $-1 $247 $96 #
plane-surface $-1 -26.587839380888106 -4.4155849774811458 47.344149619768892 0 0.80901700255871778 0.5877852410284794 1 0 0 forward_v I I I I #
coedge $-1 $248 $249 $250 $251 reversed $97 $-1 #
face $-1 $-1 $252 $57 $-1 $253 forward single #
loop $-1 $254 $255 $99 #
cone-surface $-1 -29.775138791762959 21.771070275988453 7.4743934682526234 0 -0.80901700255871778 -0.5877852410284794 0.25 0 0 1 I I -0.70710678118654746 0.70710678118654746 0.25 forward I I I I #
loop $-1 $-1 $256 $75 #
coedge $-1 $160 $160 $257 $258 reversed $100 $-1 #
face $-1 $-1 $259 $58 $-1 $260 forward single #
loop $-1 $261 $262 $102 #
cone-surface $-1 -26.587839380888106 21.771070275988453 7.4743934682526234 0 -0.80901700255871778 -0.5877852410284794 0.25 0 0 1 I I -0.70710678118654746 0.70710678118654746 0.25 forward I I I I #
loop $-1 $-1 $263 $76 #
coedge $-1 $165 $165 $264 $265 reversed $103 $-1 #
face $-1 $-1 $266 $59 $-1 $267 forward single #
loop $-1 $268 $269 $105 #
cone-surface $-1 -23.400539970013252 21.771070275988453 7.4743934682526234 0 -0.80901700255871778 -0.5877852410284794 0.25 0 0 1 I I -0.70710678118654746 0.70710678118654746 0.25 forward I I I I #
loop $-1 $-1 $270 $77 #
coedge $-1 $170 $170 $271 $272 reversed $106 $-1 #
face $-1 $273 $274 $60 $-1 $275 reversed single #
loop $-1 $-1 $276 $108 #
plane-surface $-1 -5.3121656847914238 -4.4155849774811458 47.344149619768892 0 0.80901700255871778 0.5877852410284794 1 0 0 forward_v I I I I #
coedge $-1 $277 $278 $279 $280 reversed $109 $-1 #
face $-1 $-1 $281 $61 $-1 $282 forward single #
loop $-1 $283 $284 $111 #
cone-surface $-1 -8.4994650956662809 21.771070275988453 7.4743934682526234 0 -0.80901700255871778 -0.5877852410284794 0.25 0 0 1 I I -0.70710678118654746 0.70710678118654746 0.25 forward I I I I #
loop $-1 $-1 $285 $79 #
coedge $-1 $179 $179 $286 $287 reversed $112 $-1 #
face $-1 $-1 $288 $62 $-1 $289 forward single #
loop $-1 $290 $291 $114 #
cone-surface $-1 -5.3121656847914238 21.771070275988453 7.4743934682526234 0 -0.80901700255871778 -0.5877852410284794 0.25 0 0 1 I I -0.70710678118654746 0.70710678118654746 0.25 forward I I I I #
loop $-1 $-1 $292 $80 #
coedge $-1 $184 $184 $293 $294 reversed $115 $-1 #
face $-1 $-1 $295 $63 $-1 $296 forward single #
loop $-1 $297 $298 $117 #
cone-surface $-1 -2.1248662739165667 21.771070275988453 7.4743934682526234 0 -0.80901700255871778 -0.5877852410284794 0.25 0 0 1 I I -0.70710678118654746 0.70710678118654746 0.25 forward I I I I #
loop $-1 $-1 $299 $81 #
coedge $-1 $189 $189 $300 $301 reversed $118 $-1 #
face $-1 $302 $303 $64 $-1 $304 reversed single #
loop $-1 $-1 $305 $120 #
plane-surface $-1 15.963508011305258 -4.4155849774811458 47.344149619768892 0 0.80901700255871778 0.5877852410284794 1 0 0 forward_v I I I I #
coedge $-1 $306 $307 $308 $309 reversed $121 $-1 #
face $-1 $-1 $310 $65 $-1 $311 forward single #
loop $-1 $312 $313 $123 #
cone-surface $-1 12.776208600430401 21.771070275988453 7.4743934682526234 0 -0.80901700255871778 -0.5877852410284794 0.25 0 0 1 I I -0.70710678118654746 0.70710678118654746 0.25 forward I I I I #
loop $-1 $-1 $314 $83 #
coedge $-1 $198 $198 $315 $316 reversed $124 $-1 #
face $-1 $-1 $317 $66 $-1 $318 forward single #
loop $-1 $319 $320 $126 #
cone-surface $-1 15.963508011305258 21.771070275988453 7.4743934682526234 0 -0.80901700255871778 -0.5877852410284794 0.25 0 0 1 I I -0.70710678118654746 0.70710678118654746 0.25 forward I I I I #
loop $-1 $-1 $321 $84 #
coedge $-1 $203 $203 $322 $323 reversed $127 $-1 #
face $-1 $-1 $324 $67 $-1 $325 forward single #
loop $-1 $326 $327 $129 #
cone-surface $-1 19.150807422180115 21.771070275988453 7.4743934682526234 0 -0.80901700255871778 -0.5877852410284794 0.25 0 0 1 I I -0.70710678118654746 0.70710678118654746 0.25 forward I I I I #
loop $-1 $-1 $328 $85 #
coedge $-1 $208 $208 $329 $330 reversed $130 $-1 #
face $-1 $331 $332 $68 $-1 $333 forward single #
loop $-1 $-1 $334 $132 #
plane-surface $-1 31.927016022610516 64.433942066652833 97.366257585782762 1 0 0 0 -0.80901700255871778 -0.5877852410284794 forward_v I I I I #
coedge $-1 $335 $336 $337 $338 reversed $133 $-1 #
face $-1 $-1 $339 $69 $-1 $340 forward single #
loop $-1 $341 $342 $135 #
cone-surface $-1 34.051882296527083 21.771070275988453 7.4743934682526234 0 -0.80901700255871778 -0.5877852410284794 0.25 0 0 1 I I -0.70710678118654746 0.70710678118654746 0.25 forward I I I I #
loop $-1 $-1 $343 $87 #
coedge $-1 $217 $217 $344 $345 reversed $136 $-1 #
face $-1 $-1 $346 $70 $-1 $347 forward single #
loop $-1 $348 $349 $138 #
cone-surface $-1 37.23918170740194 21.771070275988453 7.4743934682526234 0 -0.80901700255871778 -0.5877852410284794 0.25 0 0 1 I I -0.70710678118654746 0.70710678118654746 0.25 forward I I I I #
loop $-1 $-1 $350 $88 #
coedge $-1 $222 $222 $351 $352 reversed $139 $-1 #
face $-1 $-1 $353 $71 $-1 $354 forward single #
loop $-1 $355 $356 $141 #
cone-surface $-1 40.426481118276797 21.771070275988453 7.4743934682526234 0 -0.80901700255871778 -0.5877852410284794 0.25 0 0 1 I I -0.70710678118654746 0.70710678118654746 0.25 forward I I I I #
loop $-1 $-1 $357 $89 #
coedge $-1 $227 $227 $358 $359 reversed $142 $-1 #
face $-1 $360 $361 $54 $-1 $362 reversed single #
loop $-1 $-1 $363 $144 #
plane-surface $-1 0 -25.14992797051514 0 0 1 0 0 0 1 forward_v I I I I #
coedge $-1 $364 $365 $366 $367 forward $145 $-1 #
coedge $-1 $368 $147 $369 $370 forward $91 $-1 #
coedge $-1 $147 $368 $371 $372 forward $91 $-1 #
coedge $-1 $373 $374 $147 $235 reversed $375 $-1 #
edge $-1 $376 -25.14992797051514 $377 25.14992797051514 $234 $378 forward 7 unknown #
face $-1 $379 $380 $55 $-1 $381 reversed single #
loop $-1 $-1 $382 $148 #
plane-surface $-1 -42.551347392193364 0 0 1 0 0 0 0 -1 forward_v I I I I #
coedge $-1 $383 $384 $385 $386 reversed $149 $-1 #
coedge $-1 $387 $151 $388 $389 reversed $94 $-1 #
coedge $-1 $151 $387 $383 $390 forward $94 $-1 #
coedge $-1 $385 $391 $151 $243 forward $392 $-1 #
edge $-1 $393 -16.06154100442987 $394 -2.1152329277406707 $242 $395 forward 7 unknown #
face $-1 $396 $397 $56 $-1 $398 forward single #
loop $-1 $-1 $399 $152 #
plane-surface $-1 -21.275673696096682 64.433942066652833 97.366257585782762 -1 0 0 0 0.80901700255871778 0.5877852410284794 forward_v I I I I #
coedge $-1 $400 $401 $402 $403 reversed $153 $-1 #
coedge $-1 $249 $155 $404 $405 reversed $97 $-1 #
coedge $-1 $155 $248 $400 $406 reversed $97 $-1 #
coedge $-1 $402 $407 $155 $251 forward $397 $-1 #
edge $-1 $408 7.0670430628112761 $409 10.185144850079713 $250 $410 forward 7 unknown #
loop $-1 $-1 $257 $156 #
plane-surface $-1 -26.587839380888106 -4.4155849774811458 47.344149619768892 0 0.80901700255871778 0.5877852410284794 1 0 0 forward_v I I I I #
loop $-1 $-1 $411 $99 #
coedge $-1 $255 $255 $256 $412 reversed $157 $-1 #
coedge $-1 $256 $256 $255 $412 forward $159 $-1 #
coedge $-1 $257 $257 $160 $258 forward $252 $-1 #
edge $-1 $413 1.30225956062532e-015 $413 6.2831853071796013 $257 $414 forward 7 unknown #
loop $-1 $-1 $264 $161 #
plane-surface $-1 -26.587839380888106 -4.4155849774811458 47.344149619768892 0 0.80901700255871778 0.5877852410284794 1 0 0 forward_v I I I I #
loop $-1 $-1 $415 $102 #
coedge $-1 $262 $262 $263 $416 reversed $162 $-1 #
coedge $-1 $263 $263 $262 $416 forward $164 $-1 #
coedge $-1 $264 $264 $165 $265 forward $259 $-1 #
edge $-1 $417 1.30225956062532e-015 $417 6.2831853071796013 $264 $418 forward 7 unknown #
loop $-1 $-1 $271 $166 #
plane-surface $-1 -26.587839380888106 -4.4155849774811458 47.344149619768892 0 0.80901700255871778 0.5877852410284794 1 0 0 forward_v I I I I #
loop $-1 $-1 $419 $105 #
coedge $-1 $269 $269 $270 $420 reversed $167 $-1 #
coedge $-1 $270 $270 $269 $420 forward $169 $-1 #
coedge $-1 $271 $271 $170 $272 forward $266 $-1 #
edge $-1 $421 1.30225956062532e-015 $421 6.2831853071796013 $271 $422 forward 7 unknown #
face $-1 $423 $424 $60 $-1 $425 forward single #
loop $-1 $-1 $426 $171 #
plane-surface $-1 0 64.433942066652833 97.366257585782762 -1 0 0 0 0.80901700255871778 0.5877852410284794 forward_v I I I I #
coedge $-1 $427 $428 $429 $430 reversed $172 $-1 #
coedge $-1 $278 $174 $431 $432 reversed $109 $-1 #
coedge $-1 $174 $277 $427 $433 reversed $109 $-1 #
coedge $-1 $429 $434 $174 $280 forward $424 $-1 #
edge $-1 $435 7.0670430628112761 $436 10.185144850079713 $279 $437 forward 7 unknown #
loop $-1 $-1 $286 $175 #
plane-surface $-1 -5.3121656847914238 -4.4155849774811458 47.344149619768892 0 0.80901700255871778 0.5877852410284794 1 0 0 forward_v I I I I #
loop $-1 $-1 $438 $111 #
coedge $-1 $284 $284 $285 $439 reversed $176 $-1 #
coedge $-1 $285 $285 $284 $439 forward $178 $-1 #
coedge $-1 $286 $286 $179 $287 forward $281 $-1 #
edge $-1 $440 1.30225956062532e-015 $440 6.2831853071796013 $286 $441 forward 7 unknown #
loop $-1 $-1 $293 $180 #
plane-surface $-1 -5.3121656847914238 -4.4155849774811458 47.344149619768892 0 0.80901700255871778 0.5877852410284794 1 0 0 forward_v I I I I #
loop $-1 $-1 $442 $114 #
coedge $-1 $291 $291 $292 $443 reversed $181 $-1 #
coedge $-1 $292 $292 $291 $443 forward $183 $-1 #
coedge $-1 $293 $293 $184 $294 forward $288 $-1 #
edge $-1 $444 1.30225956062532e-015 $444 6.2831853071796013 $293 $445 forward 7 unknown #
loop $-1 $-1 $300 $185 #
plane-surface $-1 -5.3121656847914238 -4.4155849774811458 47.344149619768892 0 0.80901700255871778 0.5877852410284794 1 0 0 forward_v I I I I #
loop $-1 $-1 $446 $117 #
coedge $-1 $298 $298 $299 $447 reversed $186 $-1 #
coedge $-1 $299 $299 $298 $447 forward $188 $-1 #
coedge $-1 $300 $300 $189 $301 forward $295 $-1 #
edge $-1 $448 1.30225956062532e-015 $448 6.2831853071796013 $300 $449 forward 7 unknown #
face $-1 $450 $451 $64 $-1 $452 forward single #
loop $-1 $-1 $453 $190 #
plane-surface $-1 21.275673696096682 64.433942066652833 97.366257585782762 -1 0 0 0 0.80901700255871778 0.5877852410284794 forward_v I I I I #
coedge $-1 $454 $455 $456 $457 reversed $191 $-1 #
coedge $-1 $307 $193 $458 $459 reversed $121 $-1 #
coedge $-1 $193 $306 $454 $460 reversed $121 $-1 #
coedge $-1 $456 $461 $193 $309 forward $451 $-1 #
edge $-1 $462 7.0670430628112761 $463 10.185144850079713 $308 $464 forward 7 unknown #
loop $-1 $-1 $315 $194 #
plane-surface $-1 15.963508011305258 -4.4155849774811458 47.344149619768892 0 0.80901700255871778 0.5877852410284794 1 0 0 forward_v I I I I #
loop $-1 $-1 $465 $123 #
coedge $-1 $313 $313 $314 $466 reversed $195 $-1 #
coedge $-1 $314 $314 $313 $466 forward $197 $-1 #
coedge $-1 $315 $315 $198 $316 forward $310 $-1 #
edge $-1 $467 1.30225956062532e-015 $467 6.2831853071796013 $315 $468 forward 7 unknown #
loop $-1 $-1 $322 $199 #
plane-surface $-1 15.963508011305258 -4.4155849774811458 47.344149619768892 0 0.80901700255871778 0.5877852410284794 1 0 0 forward_v I I I I #
loop $-1 $-1 $469 $126 #
coedge $-1 $320 $320 $321 $470 reversed $200 $-1 #
coedge $-1 $321 $321 $320 $470 forward $202 $-1 #
coedge $-1 $322 $322 $203 $323 forward $317 $-1 #
edge $-1 $471 1.30225956062532e-015 $471 6.2831853071796013 $322 $472 forward 7 unknown #
loop $-1 $-1 $329 $204 #
plane-surface $-1 15.963508011305258 -4.4155849774811458 47.344149619768892 0 0.80901700255871778 0.5877852410284794 1 0 0 forward_v I I I I #
loop $-1 $-1 $473 $129 #
coedge $-1 $327 $327 $328 $474 reversed $205 $-1 #
coedge $-1 $328 $328 $327 $474 forward $207 $-1 #
coedge $-1 $329 $329 $208 $330 forward $324 $-1 #
edge $-1 $475 1.30225956062532e-015 $475 6.2831853071796013 $329 $476 forward 7 unknown #
face $-1 $477 $478 $68 $-1 $479 reversed single #
loop $-1 $-1 $480 $209 #
plane-surface $-1 0 0 10.942409989063664 0 0 1 1 0 0 forward_v I I I I #
coedge $-1 $481 $482 $483 $484 reversed $210 $-1 #
coedge $-1 $485 $212 $486 $487 reversed $133 $-1 #
coedge $-1 $212 $485 $481 $488 forward $133 $-1 #
coedge $-1 $483 $489 $212 $338 forward $490 $-1 #
edge $-1 $491 -23.931756538492394 $492 -13.307425168909546 $337 $493 forward 7 unknown #
loop $-1 $-1 $344 $213 #
plane-surface $-1 37.23918170740194 -4.4155849774811458 47.344149619768892 0 0.80901700255871778 0.5877852410284794 1 0 0 forward_v I I I I #
loop $-1 $-1 $494 $135 #
coedge $-1 $342 $342 $343 $495 reversed $214 $-1 #
coedge $-1 $343 $343 $342 $495 forward $216 $-1 #
coedge $-1 $344 $344 $217 $345 forward $339 $-1 #
edge $-1 $496 1.30225956062532e-015 $496 6.2831853071796013 $344 $497 forward 7 unknown #
loop $-1 $-1 $351 $218 #
plane-surface $-1 37.23918170740194 -4.4155849774811458 47.344149619768892 0 0.80901700255871778 0.5877852410284794 1 0 0 forward_v I I I I #
loop $-1 $-1 $498 $138 #
coedge $-1 $349 $349 $350 $499 reversed $219 $-1 #
coedge $-1 $350 $350 $349 $499 forward $221 $-1 #
coedge $-1 $351 $351 $222 $352 forward $346 $-1 #
edge $-1 $500 1.30225956062532e-015 $500 6.2831853071796013 $351 $501 forward 7 unknown #
loop $-1 $-1 $358 $223 #
plane-surface $-1 37.23918170740194 -4.4155849774811458 47.344149619768892 0 0.80901700255871778 0.5877852410284794 1 0 0 forward_v I I I I #
loop $-1 $-1 $502 $141 #
coedge $-1 $356 $356 $357 $503 reversed $224 $-1 #
coedge $-1 $357 $357 $356 $503 forward $226 $-1 #
coedge $-1 $358 $358 $227 $359 forward $353 $-1 #
edge $-1 $504 1.30225956062532e-015 $504 6.2831853071796013 $358 $505 forward 7 unknown #
face $-1 $506 $507 $54 $-1 $508 reversed single #
loop $-1 $-1 $509 $228 #
plane-surface $-1 -42.551347392193364 0 0 1 0 0 0 0 -1 forward_v I I I I #
coedge $-1 $510 $371 $511 $512 forward $229 $-1 #
coedge $-1 $513 $231 $510 $514 forward $145 $-1 #
coedge $-1 $231 $513 $515 $516 forward $145 $-1 #
coedge $-1 $374 $373 $231 $367 reversed $375 $-1 #
edge $-1 $517 -25.14992797051514 $518 25.14992797051514 $366 $519 forward 7 unknown #
coedge $-1 $233 $232 $520 $521 forward $91 $-1 #
coedge $-1 $522 $523 $232 $370 reversed $507 $-1 #
edge $-1 $377 -42.551347392193364 $524 42.551347392193364 $369 $525 forward 7 unknown #
coedge $-1 $363 $526 $233 $372 reversed $229 $-1 #
edge $-1 $527 -42.551347392193364 $376 42.551347392193364 $371 $528 forward 7 unknown #
coedge $-1 $366 $234 $526 $529 forward $375 $-1 #
coedge $-1 $234 $366 $522 $530 reversed $375 $-1 #
loop $-1 $-1 $373 $506 #
vertex $-1 $235 $531 #
vertex $-1 $235 $532 #
straight-curve $-1 42.551347392193364 0 10.942409989063664 0 1 0 I I #
face $-1 $533 $534 $55 $-1 $535 forward single #
loop $-1 $-1 $388 $236 #
plane-surface $-1 0 -25.14992797051514 0 0 1 0 0 0 1 forward_v I I I I #
coedge $-1 $536 $537 $538 $539 forward $237 $-1 #
coedge $-1 $538 $239 $241 $390 reversed $149 $-1 #
coedge $-1 $239 $538 $540 $541 reversed $149 $-1 #
coedge $-1 $542 $242 $239 $386 forward $392 $-1 #
edge $-1 $394 2.652984246242192 $543 6.4106119106283765 $385 $544 forward 7 unknown #
coedge $-1 $241 $240 $536 $545 reversed $94 $-1 #
coedge $-1 $546 $547 $240 $389 forward $380 $-1 #
edge $-1 $548 -42.551347392193364 $393 42.551347392193364 $388 $549 forward 7 unknown #
edge $-1 $550 -42.551347392193364 $394 42.551347392193364 $383 $551 forward 7 unknown #
coedge $-1 $242 $542 $546 $552 forward $392 $-1 #
loop $-1 $-1 $385 $533 #
vertex $-1 $389 $553 #
vertex $-1 $243 $554 #
straight-curve $-1 42.551347392193364 -9.0883869660852703 7.1847823246774762 0 1 0 I I #
face $-1 $-1 $555 $56 $-1 $556 reversed single #
loop $-1 $-1 $250 $244 #
plane-surface $-1 0 0 10.942409989063664 0 0 1 1 0 0 forward_v I I I I #
coedge $-1 $557 $558 $559 $560 reversed $245 $-1 #
coedge $-1 $561 $247 $249 $406 forward $153 $-1 #
coedge $-1 $247 $561 $557 $562 forward $153 $-1 #
coedge $-1 $559 $250 $247 $403 forward $397 $-1 #
edge $-1 $409 -18.606085375235477 $563 -7.981754005652629 $402 $564 forward 7 unknown #
coedge $-1 $565 $566 $248 $405 forward $555 $-1 #
edge $-1 $567 -42.032417855670133 $408 -37.740718803827718 $404 $568 forward 7 unknown #
edge $-1 $409 44.995024227643746 $567 50.299855941030295 $249 $569 forward 7 unknown #
coedge $-1 $250 $559 $565 $570 forward $397 $-1 #
vertex $-1 $405 $571 #
vertex $-1 $251 $572 #
straight-curve $-1 -31.90000506567953 32.216971033326416 10.942409989063663 0 -1 0 I I #
coedge $-1 $411 $411 $-1 $573 reversed $254 $-1 #
edge $-1 $574 0 $574 6.2831853071796004 $255 $575 forward 7 unknown #
vertex $-1 $258 $576 #
ellipse-curve $-1 -29.775138791762959 23.590877076880918 8.7965604631424608 0 0.80901700255871778 0.5877852410284794 0.5 0 0 1 I I #
coedge $-1 $415 $415 $-1 $577 reversed $261 $-1 #
edge $-1 $578 0 $578 6.2831853071796004 $262 $579 forward 7 unknown #
vertex $-1 $265 $580 #
ellipse-curve $-1 -26.587839380888106 23.590877076880918 8.7965604631424608 0 0.80901700255871778 0.5877852410284794 0.5 0 0 1 I I #
coedge $-1 $419 $419 $-1 $581 reversed $268 $-1 #
edge $-1 $582 0 $582 6.2831853071796004 $269 $583 forward 7 unknown #
vertex $-1 $272 $584 #
ellipse-curve $-1 -23.400539970013252 23.590877076880918 8.7965604631424608 0 0.80901700255871778 0.5877852410284794 0.5 0 0 1 I I #
face $-1 $-1 $585 $60 $-1 $586 reversed single #
loop $-1 $-1 $279 $273 #
plane-surface $-1 0 0 10.942409989063664 0 0 1 1 0 0 forward_v I I I I #
coedge $-1 $587 $588 $589 $590 reversed $274 $-1 #
coedge $-1 $591 $276 $278 $433 forward $172 $-1 #
coedge $-1 $276 $591 $587 $592 forward $172 $-1 #
coedge $-1 $589 $279 $276 $430 forward $424 $-1 #
edge $-1 $436 -7.9682485271871357 $593 2.6560828423957119 $429 $594 forward 7 unknown #
coedge $-1 $595 $596 $277 $432 forward $585 $-1 #
edge $-1 $597 -42.032417855670133 $435 -37.740718803827718 $431 $598 forward 7 unknown #
edge $-1 $436 44.995024227643746 $597 50.299855941030295 $278 $599 forward 7 unknown #
coedge $-1 $279 $589 $595 $600 forward $424 $-1 #
vertex $-1 $280 $601 #
vertex $-1 $280 $602 #
straight-curve $-1 -10.624331369582848 32.216971033326416 10.942409989063663 0 -1 0 I I #
coedge $-1 $438 $438 $-1 $603 reversed $283 $-1 #
edge $-1 $604 0 $604 6.2831853071796004 $284 $605 forward 7 unknown #
vertex $-1 $287 $606 #
ellipse-curve $-1 -8.4994650956662809 23.590877076880918 8.7965604631424608 0 0.80901700255871778 0.5877852410284794 0.5 0 0 1 I I #
coedge $-1 $442 $442 $-1 $607 reversed $290 $-1 #
edge $-1 $608 0 $608 6.2831853071796004 $291 $609 forward 7 unknown #
vertex $-1 $294 $610 #
ellipse-curve $-1 -5.3121656847914238 23.590877076880918 8.7965604631424608 0 0.80901700255871778 0.5877852410284794 0.5 0 0 1 I I #
coedge $-1 $446 $446 $-1 $611 reversed $297 $-1 #
edge $-1 $612 0 $612 6.2831853071796004 $298 $613 forward 7 unknown #
vertex $-1 $301 $614 #
ellipse-curve $-1 -2.1248662739165667 23.590877076880918 8.7965604631424608 0 0.80901700255871778 0.5877852410284794 0.5 0 0 1 I I #
face $-1 $-1 $615 $64 $-1 $616 reversed single #
loop $-1 $-1 $308 $302 #
plane-surface $-1 0 0 10.942409989063664 0 0 1 1 0 0 forward_v I I I I #
coedge $-1 $617 $618 $619 $620 reversed $303 $-1 #
coedge $-1 $621 $305 $307 $460 forward $191 $-1 #
coedge $-1 $305 $621 $617 $622 forward $191 $-1 #
coedge $-1 $619 $308 $305 $457 forward $451 $-1 #
edge $-1 $463 2.6695883208612052 $623 13.293919690444053 $456 $624 forward 7 unknown #
coedge $-1 $625 $626 $306 $459 forward $615 $-1 #
edge $-1 $627 -42.032417855670133 $462 -37.740718803827718 $458 $628 forward 7 unknown #
edge $-1 $463 44.995024227643746 $627 50.299855941030295 $307 $629 forward 7 unknown #
coedge $-1 $308 $619 $625 $630 forward $451 $-1 #
vertex $-1 $309 $631 #
vertex $-1 $309 $632 #
straight-curve $-1 10.651342326513834 32.216971033326416 10.942409989063663 0 -1 0 I I #
coedge $-1 $465 $465 $-1 $633 reversed $312 $-1 #
edge $-1 $634 0 $634 6.2831853071796004 $313 $635 forward 7 unknown #
vertex $-1 $316 $636 #
ellipse-curve $-1 12.776208600430401 23.590877076880918 8.7965604631424608 0 0.80901700255871778 0.5877852410284794 0.5 0 0 1 I I #
coedge $-1 $469 $469 $-1 $637 reversed $319 $-1 #
edge $-1 $638 0 $638 6.2831853071796004 $320 $639 forward 7 unknown #
vertex $-1 $323 $640 #
ellipse-curve $-1 15.963508011305258 23.590877076880918 8.7965604631424608 0 0.80901700255871778 0.5877852410284794 0.5 0 0 1 I I #
coedge $-1 $473 $473 $-1 $641 reversed $326 $-1 #
edge $-1 $642 0 $642 6.2831853071796004 $327 $643 forward 7 unknown #
vertex $-1 $330 $644 #
ellipse-curve $-1 19.150807422180115 23.590877076880918 8.7965604631424608 0 0.80901700255871778 0.5877852410284794 0.5 0 0 1 I I #
face $-1 $-1 $490 $68 $-1 $645 reversed single #
loop $-1 $-1 $486 $331 #
plane-surface $-1 42.551347392193364 0 0 -1 0 0 0 0 1 forward_v I I I I #
coedge $-1 $646 $647 $482 $648 forward $332 $-1 #
coedge $-1 $482 $334 $336 $488 reversed $210 $-1 #
coedge $-1 $334 $481 $480 $648 reversed $210 $-1 #
coedge $-1 $649 $337 $334 $484 forward $490 $-1 #
edge $-1 $492 -42.032417855670133 $650 -37.740718803827718 $483 $651 forward 7 unknown #
coedge $-1 $336 $335 $646 $652 reversed $133 $-1 #
coedge $-1 $653 $654 $335 $487 forward $478 $-1 #
edge $-1 $655 24.54620538047006 $491 29.851037093856611 $486 $656 forward 7 unknown #
edge $-1 $657 44.995024227643746 $492 50.299855941030295 $481 $658 forward 7 unknown #
coedge $-1 $337 $649 $653 $659 forward $490 $-1 #
loop $-1 $-1 $483 $477 #
vertex $-1 $487 $660 #
vertex $-1 $338 $661 #
straight-curve $-1 18.61959085370097 25.14992797051514 6.6507109372212447 -1 0 0 I I #
coedge $-1 $494 $494 $-1 $662 reversed $341 $-1 #
edge $-1 $663 0 $663 6.2831853071796004 $342 $664 forward 7 unknown #
vertex $-1 $345 $665 #
ellipse-curve $-1 34.051882296527083 23.590877076880918 8.7965604631424608 0 0.80901700255871778 0.5877852410284794 0.5 0 0 1 I I #
coedge $-1 $498 $498 $-1 $666 reversed $348 $-1 #
edge $-1 $667 0 $667 6.2831853071796004 $349 $668 forward 7 unknown #
vertex $-1 $352 $669 #
ellipse-curve $-1 37.23918170740194 23.590877076880918 8.7965604631424608 0 0.80901700255871778 0.5877852410284794 0.5 0 0 1 I I #
coedge $-1 $502 $502 $-1 $670 reversed $355 $-1 #
edge $-1 $671 0 $671 6.2831853071796004 $356 $672 forward 7 unknown #
vertex $-1 $359 $673 #
ellipse-curve $-1 40.426481118276797 23.590877076880918 8.7965604631424608 0 0.80901700255871778 0.5877852410284794 0.5 0 0 1 I I #
face $-1 $-1 $375 $54 $-1 $674 reversed single #
loop $-1 $-1 $522 $360 #
plane-surface $-1 0 25.14992797051514 0 0 -1 0 0 0 -1 forward_v I I I I #
coedge $-1 $675 $520 $523 $676 forward $361 $-1 #
coedge $-1 $526 $363 $364 $514 reversed $229 $-1 #
coedge $-1 $520 $675 $363 $512 reversed $361 $-1 #
edge $-1 $527 -10.942409989063664 $677 10.942409989063664 $511 $678 forward 7 unknown #
coedge $-1 $365 $364 $675 $679 forward $145 $-1 #
edge $-1 $518 -42.551347392193364 $677 42.551347392193364 $510 $680 forward 7 unknown #
coedge $-1 $523 $522 $365 $516 reversed $507 $-1 #
edge $-1 $681 -42.551347392193364 $517 42.551347392193364 $515 $682 forward 7 unknown #
vertex $-1 $367 $683 #
vertex $-1 $529 $684 #
straight-curve $-1 42.551347392193364 0 -10.942409989063664 0 -1 0 I I #
coedge $-1 $509 $511 $368 $521 reversed $361 $-1 #
edge $-1 $524 -25.14992797051514 $527 25.14992797051514 $520 $685 forward 7 unknown #
coedge $-1 $515 $369 $374 $530 forward $507 $-1 #
coedge $-1 $369 $515 $509 $676 reversed $507 $-1 #
vertex $-1 $370 $686 #
straight-curve $-1 0 25.14992797051514 10.942409989063664 -1 0 0 I I #
coedge $-1 $371 $510 $373 $529 reversed $229 $-1 #
vertex $-1 $521 $687 #
straight-curve $-1 0 -25.14992797051514 10.942409989063664 1 0 0 I I #
edge $-1 $376 -10.942409989063664 $518 10.942409989063664 $373 $688 forward 7 unknown #
edge $-1 $377 -10.942409989063664 $517 10.942409989063664 $374 $689 forward 7 unknown #
point $-1 42.551347392193364 -25.14992797051514 10.942409989063664 #
point $-1 42.551347392193364 25.14992797051514 10.942409989063664 #
face $-1 $-1 $392 $55 $-1 $690 reversed single #
loop $-1 $-1 $540 $379 #
plane-surface $-1 0 0 10.942409989063664 0 0 1 1 0 0 forward_v I I I I #
coedge $-1 $691 $382 $387 $545 forward $237 $-1 #
coedge $-1 $382 $691 $692 $693 reversed $237 $-1 #
coedge $-1 $384 $383 $382 $539 reversed $149 $-1 #
edge $-1 $694 -6.4106119106283765 $550 -2.652984246242192 $382 $695 forward 7 unknown #
coedge $-1 $692 $696 $384 $541 forward $534 $-1 #
edge $-1 $543 -42.551347392193364 $694 42.551347392193364 $540 $697 forward 7 unknown #
coedge $-1 $391 $385 $696 $698 reversed $392 $-1 #
vertex $-1 $386 $699 #
straight-curve $-1 42.551347392193364 -11.203619893825941 4.5317980784352843 0 0 1 I I #
edge $-1 $550 2.1152329277406707 $548 16.06154100442987 $536 $700 forward 7 unknown #
coedge $-1 $701 $388 $391 $552 reversed $380 $-1 #
coedge $-1 $388 $701 $691 $702 forward $380 $-1 #
vertex $-1 $389 $703 #
straight-curve $-1 0 -25.14992797051514 7.1847823246774762 1 0 0 I I #
vertex $-1 $545 $704 #
straight-curve $-1 0 -11.203619893825941 7.1847823246774762 1 0 0 I I #
edge $-1 $705 -10.942409989063664 $393 -7.1847823246774762 $391 $706 forward 7 unknown #
point $-1 42.551347392193364 -25.14992797051514 7.1847823246774762 #
point $-1 42.551347392193364 -11.203619893825941 7.1847823246774762 #
loop $-1 $-1 $404 $396 #
plane-surface $-1 0 25.14992797051514 0 0 -1 0 0 0 -1 forward_v I I I I #
coedge $-1 $558 $399 $401 $562 reversed $245 $-1 #
coedge $-1 $399 $557 $707 $708 reversed $245 $-1 #
coedge $-1 $407 $402 $399 $560 forward $397 $-1 #
edge $-1 $563 -10.185144850079713 $709 -7.0670430628112761 $559 $710 forward 7 unknown #
coedge $-1 $401 $400 $566 $711 reversed $153 $-1 #
edge $-1 $712 -50.299855941030295 $563 -44.995024227643746 $557 $713 forward 7 unknown #
vertex $-1 $403 $714 #
straight-curve $-1 -13.293919690444053 22.0318261832467 10.942409989063663 1 0 0 I I #
coedge $-1 $707 $404 $407 $570 reversed $555 $-1 #
coedge $-1 $404 $707 $561 $711 forward $555 $-1 #
vertex $-1 $405 $715 #
straight-curve $-1 -31.90000506567953 25.14992797051514 48.683128792891381 0 0 1 I I #
straight-curve $-1 -31.90000506567953 -4.4155849774811458 47.344149619768892 0 0.5877852410284794 -0.80901700255871778 I I #
edge $-1 $709 21.275673696096682 $408 31.90000506567953 $565 $716 forward 7 unknown #
point $-1 -31.90000506567953 25.14992797051514 10.942409989063664 #
point $-1 -31.90000506567953 22.031826183246704 10.942409989063663 #
edge $-1 $717 1 $717 0 $411 $-1 forward 7 unknown #
vertex $-1 $412 $718 #
ellipse-curve $-1 -29.775138791762959 21.973324526628133 7.6213397785097436 0 0.80901700255871778 0.5877852410284794 0.5 0 0 1 I I #
point $-1 -29.275138791762959 23.590877076880922 8.7965604631424625 #
edge $-1 $719 1 $719 0 $415 $-1 forward 7 unknown #
vertex $-1 $416 $720 #
ellipse-curve $-1 -26.587839380888106 21.973324526628133 7.6213397785097436 0 0.80901700255871778 0.5877852410284794 0.5 0 0 1 I I #
point $-1 -26.087839380888106 23.590877076880922 8.7965604631424625 #
edge $-1 $721 1 $721 0 $419 $-1 forward 7 unknown #
vertex $-1 $420 $722 #
ellipse-curve $-1 -23.400539970013252 21.973324526628133 7.6213397785097436 0 0.80901700255871778 0.5877852410284794 0.5 0 0 1 I I #
point $-1 -22.900539970013252 23.590877076880922 8.7965604631424625 #
loop $-1 $-1 $431 $423 #
plane-surface $-1 0 25.14992797051514 0 0 -1 0 0 0 -1 forward_v I I I I #
coedge $-1 $588 $426 $428 $592 reversed $274 $-1 #
coedge $-1 $426 $587 $723 $724 reversed $274 $-1 #
coedge $-1 $434 $429 $426 $590 forward $424 $-1 #
edge $-1 $593 -10.185144850079713 $725 -7.0670430628112761 $589 $726 forward 7 unknown #
coedge $-1 $428 $427 $596 $727 reversed $172 $-1 #
edge $-1 $728 -50.299855941030295 $593 -44.995024227643746 $587 $729 forward 7 unknown #
vertex $-1 $430 $730 #
straight-curve $-1 -2.6560828423957119 22.0318261832467 10.942409989063663 1 0 0 I I #
coedge $-1 $723 $431 $434 $600 reversed $585 $-1 #
coedge $-1 $431 $723 $591 $727 forward $585 $-1 #
vertex $-1 $432 $731 #
straight-curve $-1 -10.624331369582848 25.14992797051514 48.683128792891381 0 0 1 I I #
straight-curve $-1 -10.624331369582848 -4.4155849774811458 47.344149619768892 0 0.5877852410284794 -0.80901700255871778 I I #
edge $-1 $725 0 $435 10.624331369582848 $595 $732 forward 7 unknown #
point $-1 -10.624331369582848 25.14992797051514 10.942409989063664 #
point $-1 -10.624331369582848 22.031826183246704 10.942409989063663 #
edge $-1 $733 1 $733 0 $438 $-1 forward 7 unknown #
vertex $-1 $439 $734 #
ellipse-curve $-1 -8.4994650956662809 21.973324526628133 7.6213397785097436 0 0.80901700255871778 0.5877852410284794 0.5 0 0 1 I I #
point $-1 -7.9994650956662809 23.590877076880922 8.7965604631424625 #
edge $-1 $735 1 $735 0 $442 $-1 forward 7 unknown #
vertex $-1 $443 $736 #
ellipse-curve $-1 -5.3121656847914238 21.973324526628133 7.6213397785097436 0 0.80901700255871778 0.5877852410284794 0.5 0 0 1 I I #
point $-1 -4.8121656847914238 23.590877076880922 8.7965604631424625 #
edge $-1 $737 1 $737 0 $446 $-1 forward 7 unknown #
vertex $-1 $447 $738 #
ellipse-curve $-1 -2.1248662739165667 21.973324526628133 7.6213397785097436 0 0.80901700255871778 0.5877852410284794 0.5 0 0 1 I I #
point $-1 -1.6248662739165667 23.590877076880922 8.7965604631424625 #
loop $-1 $-1 $458 $450 #
plane-surface $-1 0 25.14992797051514 0 0 -1 0 0 0 -1 forward_v I I I I #
coedge $-1 $618 $453 $455 $622 reversed $303 $-1 #
coedge $-1 $453 $617 $739 $740 reversed $303 $-1 #
coedge $-1 $461 $456 $453 $620 forward $451 $-1 #
edge $-1 $623 -10.185144850079713 $741 -7.0670430628112761 $619 $742 forward 7 unknown #
coedge $-1 $455 $454 $626 $743 reversed $191 $-1 #
edge $-1 $744 -50.299855941030295 $623 -44.995024227643746 $617 $745 forward 7 unknown #
vertex $-1 $457 $746 #
straight-curve $-1 7.981754005652629 22.0318261832467 10.942409989063663 1 0 0 I I #
coedge $-1 $739 $458 $461 $630 reversed $615 $-1 #
coedge $-1 $458 $739 $621 $743 forward $615 $-1 #
vertex $-1 $459 $747 #
straight-curve $-1 10.651342326513834 25.14992797051514 48.683128792891381 0 0 1 I I #
straight-curve $-1 10.651342326513834 -4.4155849774811458 47.344149619768892 0 0.5877852410284794 -0.80901700255871778 I I #
edge $-1 $741 -21.275673696096682 $462 -10.651342326513834 $625 $748 forward 7 unknown #
point $-1 10.651342326513834 25.14992797051514 10.942409989063664 #
point $-1 10.651342326513834 22.031826183246704 10.942409989063663 #
edge $-1 $749 1 $749 0 $465 $-1 forward 7 unknown #
vertex $-1 $466 $750 #
ellipse-curve $-1 12.776208600430401 21.973324526628133 7.6213397785097436 0 0.80901700255871778 0.5877852410284794 0.5 0 0 1 I I #
point $-1 13.276208600430401 23.590877076880922 8.7965604631424625 #
edge $-1 $751 1 $751 0 $469 $-1 forward 7 unknown #
vertex $-1 $470 $752 #
ellipse-curve $-1 15.963508011305258 21.973324526628133 7.6213397785097436 0 0.80901700255871778 0.5877852410284794 0.5 0 0 1 I I #
point $-1 16.463508011305258 23.590877076880922 8.7965604631424625 #
edge $-1 $753 1 $753 0 $473 $-1 forward 7 unknown #
vertex $-1 $474 $754 #
ellipse-curve $-1 19.150807422180115 21.973324526628133 7.6213397785097436 0 0.80901700255871778 0.5877852410284794 0.5 0 0 1 I I #
point $-1 19.650807422180115 23.590877076880922 8.7965604631424625 #
plane-surface $-1 0 25.14992797051514 0 0 -1 0 0 0 -1 forward_v I I I I #
coedge $-1 $755 $480 $485 $652 forward $332 $-1 #
coedge $-1 $480 $755 $649 $756 forward $332 $-1 #
edge $-1 $650 7.0670430628112761 $657 10.185144850079713 $480 $757 forward 7 unknown #
coedge $-1 $489 $483 $647 $756 reversed $490 $-1 #
vertex $-1 $648 $758 #
straight-curve $-1 31.927016022610516 25.14992797051514 48.683128792891381 0 0 1 I I #
edge $-1 $657 13.307425168909546 $655 23.931756538492394 $646 $759 forward 7 unknown #
coedge $-1 $654 $486 $489 $659 reversed $478 $-1 #
coedge $-1 $486 $653 $755 $760 reversed $478 $-1 #
vertex $-1 $760 $761 #
straight-curve $-1 42.551347392193364 7.6039289373525527 30.800707490162221 0 0.5877852410284794 -0.80901700255871778 I I #
vertex $-1 $652 $762 #
straight-curve $-1 31.927016022610516 -4.4155849774811458 47.344149619768892 0 0.5877852410284794 -0.80901700255871778 I I #
edge $-1 $763 -10.942409989063664 $491 -6.6507109372212456 $653 $764 forward 7 unknown #
point $-1 42.551347392193364 25.14992797051514 6.6507109372212456 #
point $-1 31.927016022610516 25.14992797051514 6.6507109372212483 #
edge $-1 $765 1 $765 0 $494 $-1 forward 7 unknown #
vertex $-1 $495 $766 #
ellipse-curve $-1 34.051882296527083 21.973324526628133 7.6213397785097436 0 0.80901700255871778 0.5877852410284794 0.5 0 0 1 I I #
point $-1 34.551882296527083 23.590877076880922 8.7965604631424625 #
edge $-1 $767 1 $767 0 $498 $-1 forward 7 unknown #
vertex $-1 $499 $768 #
ellipse-curve $-1 37.23918170740194 21.973324526628133 7.6213397785097436 0 0.80901700255871778 0.5877852410284794 0.5 0 0 1 I I #
point $-1 37.73918170740194 23.590877076880922 8.7965604631424625 #
edge $-1 $769 1 $769 0 $502 $-1 forward 7 unknown #
vertex $-1 $503 $770 #
ellipse-curve $-1 40.426481118276797 21.973324526628133 7.6213397785097436 0 0.80901700255871778 0.5877852410284794 0.5 0 0 1 I I #
point $-1 40.926481118276797 23.590877076880922 8.7965604631424625 #
plane-surface $-1 42.551347392193364 0 0 -1 0 0 0 0 1 forward_v I I I I #
coedge $-1 $511 $509 $513 $679 reversed $361 $-1 #
edge $-1 $524 -10.942409989063664 $681 10.942409989063664 $523 $771 forward 7 unknown #
vertex $-1 $679 $772 #
straight-curve $-1 -42.551347392193364 -25.14992797051514 0 0 0 -1 I I #
edge $-1 $677 -25.14992797051514 $681 25.14992797051514 $675 $773 forward 7 unknown #
straight-curve $-1 0 -25.14992797051514 -10.942409989063664 -1 0 0 I I #
vertex $-1 $516 $774 #
straight-curve $-1 0 25.14992797051514 -10.942409989063664 1 0 0 I I #
point $-1 42.551347392193364 25.14992797051514 -10.942409989063664 #
point $-1 42.551347392193364 -25.14992797051514 -10.942409989063664 #
straight-curve $-1 -42.551347392193364 0 10.942409989063664 0 -1 0 I I #
point $-1 -42.551347392193364 25.14992797051514 10.942409989063664 #
point $-1 -42.551347392193364 -25.14992797051514 10.942409989063664 #
straight-curve $-1 42.551347392193364 -25.14992797051514 0 0 0 -1 I I #
straight-curve $-1 42.551347392193364 25.14992797051514 0 0 0 -1 I I #
plane-surface $-1 42.551347392193364 0 0 -1 0 0 0 0 1 forward_v I I I I #
coedge $-1 $537 $536 $547 $702 reversed $237 $-1 #
coedge $-1 $775 $540 $537 $693 forward $534 $-1 #
edge $-1 $694 11.203619893825941 $776 25.14992797051514 $537 $777 forward 7 unknown #
vertex $-1 $693 $778 #
straight-curve $-1 -42.551347392193364 -11.203619893825941 4.5317980784352843 0 0 -1 I I #
coedge $-1 $540 $775 $542 $698 forward $534 $-1 #
straight-curve $-1 0 -11.203619893825941 10.942409989063664 -1 0 0 I I #
edge $-1 $705 -25.14992797051514 $543 -11.203619893825941 $542 $779 forward 7 unknown #
point $-1 42.551347392193364 -11.203619893825941 10.942409989063661 #
straight-curve $-1 -42.551347392193364 -9.0883869660852703 7.1847823246774762 0 -1 0 I I #
coedge $-1 $547 $546 $775 $780 reversed $380 $-1 #
edge $-1 $776 -10.942409989063664 $548 -7.1847823246774762 $691 $781 forward 7 unknown #
point $-1 -42.551347392193364 -25.14992797051514 7.1847823246774762 #
point $-1 -42.551347392193364 -11.203619893825941 7.1847823246774762 #
vertex $-1 $698 $782 #
straight-curve $-1 42.551347392193364 -25.14992797051514 0 0 0 -1 I I #
coedge $-1 $566 $565 $558 $708 forward $555 $-1 #
edge $-1 $709 37.740718803827718 $712 42.032417855670133 $707 $783 forward 7 unknown #
vertex $-1 $570 $784 #
straight-curve $-1 -21.275673696096682 32.216971033326416 10.942409989063663 0 1 0 I I #
edge $-1 $712 7.981754005652629 $567 18.606085375235477 $566 $785 forward 7 unknown #
vertex $-1 $711 $786 #
straight-curve $-1 -21.275673696096682 -4.4155849774811458 47.344149619768892 0 -0.5877852410284794 0.80901700255871778 I I #
point $-1 -21.275673696096682 22.031826183246704 10.942409989063663 #
point $-1 -31.90000506567953 25.14992797051514 6.6507109372212483 #
straight-curve $-1 0 25.14992797051514 10.942409989063664 -1 0 0 I I #
vertex $-1 $573 $787 #
point $-1 -29.275138791762959 21.973324526628133 7.6213397785097436 #
vertex $-1 $577 $788 #
point $-1 -26.087839380888106 21.973324526628133 7.6213397785097436 #
vertex $-1 $581 $789 #
point $-1 -22.900539970013252 21.973324526628133 7.6213397785097436 #
coedge $-1 $596 $595 $588 $724 forward $585 $-1 #
edge $-1 $725 37.740718803827718 $728 42.032417855670133 $723 $790 forward 7 unknown #
vertex $-1 $600 $791 #
straight-curve $-1 0 32.216971033326416 10.942409989063663 0 1 0 I I #
edge $-1 $728 -2.6560828423957119 $597 7.9682485271871357 $596 $792 forward 7 unknown #
vertex $-1 $727 $793 #
straight-curve $-1 0 -4.4155849774811458 47.344149619768892 0 -0.5877852410284794 0.80901700255871778 I I #
point $-1 0 22.031826183246704 10.942409989063663 #
point $-1 -10.624331369582848 25.14992797051514 6.6507109372212483 #
straight-curve $-1 0 25.14992797051514 10.942409989063664 -1 0 0 I I #
vertex $-1 $603 $794 #
point $-1 -7.9994650956662809 21.973324526628133 7.6213397785097436 #
vertex $-1 $607 $795 #
point $-1 -4.8121656847914238 21.973324526628133 7.6213397785097436 #
vertex $-1 $611 $796 #
point $-1 -1.6248662739165667 21.973324526628133 7.6213397785097436 #
coedge $-1 $626 $625 $618 $740 forward $615 $-1 #
edge $-1 $741 37.740718803827718 $744 42.032417855670133 $739 $797 forward 7 unknown #
vertex $-1 $630 $798 #
straight-curve $-1 21.275673696096682 32.216971033326416 10.942409989063663 0 1 0 I I #
edge $-1 $744 -13.293919690444053 $627 -2.6695883208612052 $626 $799 forward 7 unknown #
vertex $-1 $743 $800 #
straight-curve $-1 21.275673696096682 -4.4155849774811458 47.344149619768892 0 -0.5877852410284794 0.80901700255871778 I I #
point $-1 21.275673696096682 22.031826183246704 10.942409989063663 #
point $-1 10.651342326513834 25.14992797051514 6.6507109372212483 #
straight-curve $-1 0 25.14992797051514 10.942409989063664 -1 0 0 I I #
vertex $-1 $633 $801 #
point $-1 13.276208600430401 21.973324526628133 7.6213397785097436 #
vertex $-1 $637 $802 #
point $-1 16.463508011305258 21.973324526628133 7.6213397785097436 #
vertex $-1 $641 $803 #
point $-1 19.650807422180115 21.973324526628133 7.6213397785097436 #
coedge $-1 $647 $646 $654 $760 forward $332 $-1 #
edge $-1 $763 -42.551347392193364 $650 -31.927016022610516 $649 $804 forward 7 unknown #
straight-curve $-1 31.927016022610516 32.216971033326416 10.942409989063663 0 -1 0 I I #
point $-1 31.927016022610516 25.14992797051514 10.942409989063664 #
straight-curve $-1 18.61959085370097 22.0318261832467 10.942409989063663 1 0 0 I I #
edge $-1 $655 22.031826183246704 $763 25.14992797051514 $654 $805 forward 7 unknown #
point $-1 42.551347392193364 22.031826183246704 10.942409989063663 #
point $-1 31.927016022610516 22.031826183246704 10.942409989063663 #
vertex $-1 $760 $806 #
straight-curve $-1 42.551347392193364 25.14992797051514 0 0 0 -1 I I #
vertex $-1 $662 $807 #
point $-1 34.551882296527083 21.973324526628133 7.6213397785097436 #
vertex $-1 $666 $808 #
point $-1 37.73918170740194 21.973324526628133 7.6213397785097436 #
vertex $-1 $670 $809 #
point $-1 40.926481118276797 21.973324526628133 7.6213397785097436 #
straight-curve $-1 -42.551347392193364 25.14992797051514 0 0 0 -1 I I #
point $-1 -42.551347392193364 -25.14992797051514 -10.942409989063664 #
straight-curve $-1 -42.551347392193364 0 -10.942409989063664 0 1 0 I I #
point $-1 -42.551347392193364 25.14992797051514 -10.942409989063664 #
coedge $-1 $696 $692 $701 $780 forward $534 $-1 #
vertex $-1 $693 $810 #
straight-curve $-1 -42.551347392193364 0 10.942409989063664 0 -1 0 I I #
point $-1 -42.551347392193364 -11.203619893825941 10.942409989063661 #
straight-curve $-1 42.551347392193364 0 10.942409989063664 0 1 0 I I #
edge $-1 $776 -42.551347392193364 $705 42.551347392193364 $701 $811 forward 7 unknown #
straight-curve $-1 -42.551347392193364 -25.14992797051514 0 0 0 -1 I I #
point $-1 42.551347392193364 -25.14992797051514 10.942409989063664 #
straight-curve $-1 -21.275673696096682 25.14992797051514 48.683128792891381 0 0 -1 I I #
point $-1 -21.275673696096682 25.14992797051514 10.942409989063664 #
straight-curve $-1 -13.293919690444053 25.14992797051514 6.6507109372212447 -1 0 0 I I #
point $-1 -21.275673696096682 25.14992797051514 6.6507109372212483 #
point $-1 -29.775138791762959 21.568816025348774 7.3274471579955032 #
point $-1 -26.587839380888106 21.568816025348774 7.3274471579955032 #
point $-1 -23.400539970013252 21.568816025348774 7.3274471579955032 #
straight-curve $-1 0 25.14992797051514 48.683128792891381 0 0 -1 I I #
point $-1 0 25.14992797051514 10.942409989063664 #
straight-curve $-1 -2.6560828423957119 25.14992797051514 6.6507109372212447 -1 0 0 I I #
point $-1 0 25.14992797051514 6.6507109372212483 #
point $-1 -8.4994650956662809 21.568816025348774 7.3274471579955032 #
point $-1 -5.3121656847914238 21.568816025348774 7.3274471579955032 #
point $-1 -2.1248662739165667 21.568816025348774 7.3274471579955032 #
straight-curve $-1 21.275673696096682 25.14992797051514 48.683128792891381 0 0 -1 I I #
point $-1 21.275673696096682 25.14992797051514 10.942409989063664 #
straight-curve $-1 7.981754005652629 25.14992797051514 6.6507109372212447 -1 0 0 I I #
point $-1 21.275673696096682 25.14992797051514 6.6507109372212483 #
point $-1 12.776208600430401 21.568816025348774 7.3274471579955032 #
point $-1 15.963508011305258 21.568816025348774 7.3274471579955032 #
point $-1 19.150807422180115 21.568816025348774 7.3274471579955032 #
straight-curve $-1 0 25.14992797051514 10.942409989063664 -1 0 0 I I #
straight-curve $-1 42.551347392193364 0 10.942409989063664 0 1 0 I I #
point $-1 42.551347392193364 25.14992797051514 10.942409989063664 #
point $-1 34.051882296527083 21.568816025348774 7.3274471579955032 #
point $-1 37.23918170740194 21.568816025348774 7.3274471579955032 #
point $-1 40.426481118276797 21.568816025348774 7.3274471579955032 #
point $-1 -42.551347392193364 -25.14992797051514 10.942409989063664 #
straight-curve $-1 0 -25.14992797051514 10.942409989063664 1 0 0 I I #
End-of-ACIS-data 