500 0 9 0           
7 Unknown 11 ACIS 5.0 NT 24 Fri Mar 26 16:49:27 1999 
-1 9.9999999999999995e-007 1e-010 
body $-1 $9 $-1 $10 #
body $-1 $11 $-1 $12 #
body $-1 $13 $-1 $14 #
body $-1 $15 $-1 $16 #
body $-1 $17 $-1 $18 #
body $-1 $19 $-1 $20 #
body $-1 $21 $-1 $22 #
body $-1 $23 $-1 $24 #
body $-1 $25 $-1 $26 #
lump $-1 $-1 $27 $0 #
transform $-1 1 0 0 0 1 0 0 0 1 53.296304208502455 30.279854366794162 8.7181991043625029 1 rotate no_reflect no_shear #
lump $-1 $-1 $28 $1 #
transform $-1 1 0 0 0 1 0 0 0 1 53.296304208502455 30.279854366794162 8.7181991043625029 1 rotate no_reflect no_shear #
lump $-1 $-1 $29 $2 #
transform $-1 1 0 0 0 1 0 0 0 1 53.296304208502455 30.279854366794162 8.7181991043625029 1 rotate no_reflect no_shear #
lump $-1 $-1 $30 $3 #
transform $-1 1 0 0 0 1 0 0 0 1 53.296304208502455 30.279854366794162 8.7181991043625029 1 rotate no_reflect no_shear #
lump $-1 $-1 $31 $4 #
transform $-1 1 0 0 0 1 0 0 0 1 53.296304208502455 30.279854366794162 8.7181991043625029 1 rotate no_reflect no_shear #
lump $-1 $-1 $32 $5 #
transform $-1 1 0 0 0 1 0 0 0 1 53.296304208502455 30.279854366794162 8.7181991043625029 1 rotate no_reflect no_shear #
lump $-1 $-1 $33 $6 #
transform $-1 1 0 0 0 1 0 0 0 1 53.296304208502455 30.279854366794162 8.7181991043625029 1 rotate no_reflect no_shear #
lump $-1 $-1 $34 $7 #
transform $-1 1 0 0 0 1 0 0 0 1 53.296304208502455 30.279854366794162 8.7181991043625029 1 rotate no_reflect no_shear #
lump $-1 $-1 $35 $8 #
transform $-1 1 0 0 0 1 0 0 0 1 53.296304208502455 30.279854366794162 8.7181991043625029 1 rotate no_reflect no_shear #
shell $-1 $-1 $-1 $36 $-1 $9 #
shell $-1 $-1 $-1 $37 $-1 $11 #
shell $-1 $-1 $-1 $38 $-1 $13 #
shell $-1 $-1 $-1 $39 $-1 $15 #
shell $-1 $-1 $-1 $40 $-1 $17 #
shell $-1 $-1 $-1 $41 $-1 $19 #
shell $-1 $-1 $-1 $42 $-1 $21 #
shell $-1 $-1 $-1 $43 $-1 $23 #
shell $-1 $-1 $-1 $44 $-1 $25 #
face $-1 $45 $46 $27 $-1 $47 forward single #
face $-1 $48 $49 $28 $-1 $50 forward single #
face $-1 $51 $52 $29 $-1 $53 reversed single #
face $-1 $54 $55 $30 $-1 $56 forward single #
face $-1 $57 $58 $31 $-1 $59 forward single #
face $-1 $60 $61 $32 $-1 $62 reversed single #
face $-1 $63 $64 $33 $-1 $65 forward single #
face $-1 $66 $67 $34 $-1 $68 forward single #
face $-1 $69 $70 $35 $-1 $71 forward single #
face $-1 $72 $73 $27 $-1 $74 reversed single #
loop $-1 $-1 $75 $36 #
plane-surface $-1 0 0 8.7181991043625029 0 0 1 1 0 0 forward_v I I I I #
face $-1 $76 $77 $28 $-1 $78 reversed single #
loop $-1 $-1 $79 $37 #
plane-surface $-1 -47.847931303519026 0 5.2297076032582019 0 0 1 1 0 0 forward_v I I I I #
face $-1 $80 $81 $29 $-1 $82 reversed single #
loop $-1 $-1 $83 $38 #
plane-surface $-1 -16.594082892266979 64.887852833594252 121.77193741997934 1 0 0 0 -0.71933980857756763 -0.69465836192734942 forward_v I I I I #
face $-1 $84 $85 $30 $-1 $86 forward single #
loop $-1 $87 $88 $39 #
cone-surface $-1 -10.005195641557819 27.514088843040977 5.8937334451125922 0 -0.71933980857756763 -0.69465836192734942 0.5 0 0 1 I I 0 1 0.5 forward I I I I #
face $-1 $89 $90 $31 $-1 $91 forward single #
loop $-1 $92 $93 $40 #
cone-surface $-1 -0.12186476549408098 27.514088843040977 5.8937334451125922 0 -0.71933980857756763 -0.69465836192734942 0.5 0 0 1 I I 0 1 0.5 forward I I I I #
face $-1 $94 $95 $32 $-1 $96 reversed single #
loop $-1 $-1 $97 $41 #
plane-surface $-1 -15.132940091760808 -114.27597693424406 70.706719233292304 -1 0 0 0 -0.78801076186113728 0.61566146476048833 forward_v I I I I #
face $-1 $98 $99 $33 $-1 $100 forward single #
loop $-1 $101 $102 $42 #
cone-surface $-1 -36.946234737180632 -28.46529936478505 6.5921477211199573 0 0.78801076186113728 -0.61566146476048833 0.5 0 0 1 I I 0 1 0.5 forward I I I I #
face $-1 $103 $104 $34 $-1 $105 forward single #
loop $-1 $106 $107 $43 #
cone-surface $-1 -28.766249245148202 -28.46529936478505 6.5921477211199573 0 0.78801076186113728 -0.61566146476048833 0.5 0 0 1 I I 0 1 0.5 forward I I I I #
face $-1 $108 $109 $35 $-1 $110 forward single #
loop $-1 $111 $112 $44 #
cone-surface $-1 -20.586263753115766 -28.46529936478505 6.5921477211199573 0 0.78801076186113728 -0.61566146476048833 0.5 0 0 1 I I 0 1 0.5 forward I I I I #
face $-1 $113 $114 $27 $-1 $115 reversed single #
loop $-1 $-1 $116 $45 #
plane-surface $-1 0 0 -8.7181991043625029 0 0 1 1 0 0 forward_v I I I I #
coedge $-1 $117 $118 $119 $120 forward $46 $-1 #
face $-1 $121 $122 $28 $-1 $123 reversed single #
loop $-1 $-1 $124 $48 #
plane-surface $-1 -47.847931303519026 0 2.2297076032582019 0 0 1 1 0 0 forward_v I I I I #
coedge $-1 $125 $126 $127 $128 forward $49 $-1 #
face $-1 $129 $130 $29 $-1 $131 reversed single #
loop $-1 $-1 $132 $51 #
plane-surface $-1 -5.06353020352595 -11.788453700877682 47.726490663459302 0 0.71933980857756763 0.69465836192734942 1 0 0 forward_v I I I I #
coedge $-1 $133 $134 $135 $136 reversed $52 $-1 #
face $-1 $-1 $137 $30 $-1 $138 forward single #
loop $-1 $139 $140 $54 #
cone-surface $-1 -10.005195641557819 26.76770820652019 5.1729620597987864 0 -0.71933980857756763 -0.69465836192734942 0.25 0 0 1 I I -0.70710678118654746 0.70710678118654746 0.25 forward I I I I #
loop $-1 $-1 $141 $39 #
coedge $-1 $88 $88 $142 $143 reversed $55 $-1 #
face $-1 $-1 $144 $31 $-1 $145 forward single #
loop $-1 $146 $147 $57 #
cone-surface $-1 -0.12186476549408098 26.76770820652019 5.1729620597987864 0 -0.71933980857756763 -0.69465836192734942 0.25 0 0 1 I I -0.70710678118654746 0.70710678118654746 0.25 forward I I I I #
loop $-1 $-1 $148 $40 #
coedge $-1 $93 $93 $149 $150 reversed $58 $-1 #
face $-1 $151 $152 $32 $-1 $153 forward single #
loop $-1 $-1 $154 $60 #
plane-surface $-1 -28.766249245148199 -30.27985436679414 5.0817578026379095 0 -0.78801076186113728 0.61566146476048833 1 0 0 forward_v I I I I #
coedge $-1 $155 $156 $157 $158 reversed $61 $-1 #
face $-1 $-1 $159 $33 $-1 $160 forward single #
loop $-1 $161 $162 $63 #
cone-surface $-1 -36.946234737180632 -27.874291293389199 6.1304016225495914 0 0.78801076186113728 -0.61566146476048833 0.25 0 0 1 I I -0.70710678118654746 0.70710678118654746 0.25 forward I I I I #
loop $-1 $-1 $163 $42 #
coedge $-1 $102 $102 $164 $165 reversed $64 $-1 #
face $-1 $-1 $166 $34 $-1 $167 forward single #
loop $-1 $168 $169 $66 #
cone-surface $-1 -28.766249245148202 -27.874291293389199 6.1304016225495914 0 0.78801076186113728 -0.61566146476048833 0.25 0 0 1 I I -0.70710678118654746 0.70710678118654746 0.25 forward I I I I #
loop $-1 $-1 $170 $43 #
coedge $-1 $107 $107 $171 $172 reversed $67 $-1 #
face $-1 $-1 $173 $35 $-1 $174 forward single #
loop $-1 $175 $176 $69 #
cone-surface $-1 -20.586263753115766 -27.874291293389199 6.1304016225495914 0 0.78801076186113728 -0.61566146476048833 0.25 0 0 1 I I -0.70710678118654746 0.70710678118654746 0.25 forward I I I I #
loop $-1 $-1 $177 $44 #
coedge $-1 $112 $112 $178 $179 reversed $70 $-1 #
face $-1 $180 $181 $27 $-1 $182 reversed single #
loop $-1 $-1 $183 $72 #
plane-surface $-1 0 -30.279854366794162 0 0 1 0 0 0 1 forward_v I I I I #
coedge $-1 $184 $185 $186 $187 forward $73 $-1 #
coedge $-1 $188 $75 $189 $190 forward $46 $-1 #
coedge $-1 $75 $188 $191 $192 forward $46 $-1 #
coedge $-1 $193 $194 $75 $120 reversed $195 $-1 #
edge $-1 $196 -30.279854366794162 $197 30.279854366794162 $119 $198 forward 7 unknown #
face $-1 $199 $200 $28 $-1 $201 reversed single #
loop $-1 $-1 $202 $76 #
plane-surface $-1 -42.399558398535596 0 3.7297076032582019 -1 0 0 0 0 1 forward_v I I I I #
coedge $-1 $203 $204 $205 $206 forward $77 $-1 #
coedge $-1 $207 $79 $208 $209 reversed $49 $-1 #
coedge $-1 $79 $207 $210 $211 reversed $49 $-1 #
coedge $-1 $202 $212 $79 $128 reversed $122 $-1 #
edge $-1 $213 -30.279854366794162 $214 30.279854366794162 $127 $215 forward 7 unknown #
face $-1 $216 $217 $29 $-1 $218 forward single #
loop $-1 $-1 $219 $80 #
plane-surface $-1 6.4670224852150788 64.887852833594252 121.77193741997934 -1 0 0 0 0.71933980857756763 0.69465836192734942 forward_v I I I I #
coedge $-1 $220 $221 $222 $223 reversed $81 $-1 #
coedge $-1 $134 $83 $224 $225 reversed $52 $-1 #
coedge $-1 $83 $133 $220 $226 reversed $52 $-1 #
coedge $-1 $222 $227 $83 $136 forward $217 $-1 #
edge $-1 $228 2.1640720500029644 $229 6.5625117287565402 $135 $230 forward 7 unknown #
loop $-1 $-1 $142 $84 #
plane-surface $-1 -5.06353020352595 -11.788453700877682 47.726490663459302 0 0.71933980857756763 0.69465836192734942 1 0 0 forward_v I I I I #
loop $-1 $-1 $231 $54 #
coedge $-1 $140 $140 $141 $232 reversed $85 $-1 #
coedge $-1 $141 $141 $140 $232 forward $87 $-1 #
coedge $-1 $142 $142 $88 $143 forward $137 $-1 #
edge $-1 $233 -9.2705973631236988e-016 $233 6.2831853071795996 $142 $234 forward 7 unknown #
loop $-1 $-1 $149 $89 #
plane-surface $-1 -5.06353020352595 -11.788453700877682 47.726490663459302 0 0.71933980857756763 0.69465836192734942 1 0 0 forward_v I I I I #
loop $-1 $-1 $235 $57 #
coedge $-1 $147 $147 $148 $236 reversed $90 $-1 #
coedge $-1 $148 $148 $147 $236 forward $92 $-1 #
coedge $-1 $149 $149 $93 $150 forward $144 $-1 #
edge $-1 $237 -9.2705973631236988e-016 $237 6.2831853071795996 $149 $238 forward 7 unknown #
face $-1 $239 $240 $32 $-1 $241 forward single #
loop $-1 $-1 $157 $94 #
plane-surface $-1 0 0 8.7181991043625029 0 0 1 1 0 0 forward_v I I I I #
coedge $-1 $242 $243 $244 $245 reversed $95 $-1 #
coedge $-1 $156 $97 $246 $247 reversed $61 $-1 #
coedge $-1 $97 $155 $242 $248 reversed $61 $-1 #
coedge $-1 $244 $249 $97 $158 forward $152 $-1 #
edge $-1 $250 26.858134100327867 $251 29.699233342484966 $157 $252 forward 7 unknown #
loop $-1 $-1 $164 $98 #
plane-surface $-1 -28.766249245148199 -30.27985436679414 5.0817578026379095 0 -0.78801076186113728 0.61566146476048833 1 0 0 forward_v I I I I #
loop $-1 $-1 $253 $63 #
coedge $-1 $162 $162 $163 $254 reversed $99 $-1 #
coedge $-1 $163 $163 $162 $254 forward $101 $-1 #
coedge $-1 $164 $164 $102 $165 forward $159 $-1 #
edge $-1 $255 -1.9253069933653708e-015 $255 6.2831853071795987 $164 $256 forward 7 unknown #
loop $-1 $-1 $171 $103 #
plane-surface $-1 -28.766249245148199 -30.27985436679414 5.0817578026379095 0 -0.78801076186113728 0.61566146476048833 1 0 0 forward_v I I I I #
loop $-1 $-1 $257 $66 #
coedge $-1 $169 $169 $170 $258 reversed $104 $-1 #
coedge $-1 $170 $170 $169 $258 forward $106 $-1 #
coedge $-1 $171 $171 $107 $172 forward $166 $-1 #
edge $-1 $259 -1.9253069933653708e-015 $259 6.2831853071795987 $171 $260 forward 7 unknown #
loop $-1 $-1 $178 $108 #
plane-surface $-1 -28.766249245148199 -30.27985436679414 5.0817578026379095 0 -0.78801076186113728 0.61566146476048833 1 0 0 forward_v I I I I #
loop $-1 $-1 $261 $69 #
coedge $-1 $176 $176 $177 $262 reversed $109 $-1 #
coedge $-1 $177 $177 $176 $262 forward $111 $-1 #
coedge $-1 $178 $178 $112 $179 forward $173 $-1 #
edge $-1 $263 -1.9253069933653708e-015 $263 6.2831853071795987 $178 $264 forward 7 unknown #
face $-1 $265 $266 $27 $-1 $267 reversed single #
loop $-1 $-1 $268 $113 #
plane-surface $-1 -53.296304208502455 0 0 1 0 0 0 0 -1 forward_v I I I I #
coedge $-1 $269 $191 $270 $271 forward $114 $-1 #
coedge $-1 $272 $116 $269 $273 forward $73 $-1 #
coedge $-1 $116 $272 $274 $275 forward $73 $-1 #
coedge $-1 $194 $193 $116 $187 reversed $195 $-1 #
edge $-1 $276 -30.279854366794162 $277 30.279854366794162 $186 $278 forward 7 unknown #
coedge $-1 $118 $117 $279 $280 forward $46 $-1 #
coedge $-1 $281 $282 $117 $190 reversed $266 $-1 #
edge $-1 $197 -53.296304208502455 $283 53.296304208502455 $189 $284 forward 7 unknown #
coedge $-1 $183 $285 $118 $192 reversed $114 $-1 #
edge $-1 $286 -53.296304208502455 $196 53.296304208502455 $191 $287 forward 7 unknown #
coedge $-1 $186 $119 $285 $288 forward $195 $-1 #
coedge $-1 $119 $186 $281 $289 reversed $195 $-1 #
loop $-1 $-1 $193 $265 #
vertex $-1 $120 $290 #
vertex $-1 $120 $291 #
straight-curve $-1 53.296304208502455 0 8.7181991043625029 0 1 0 I I #
face $-1 $292 $293 $28 $-1 $294 reversed single #
loop $-1 $-1 $295 $121 #
plane-surface $-1 0 -30.279854366794162 0 0 1 0 0 0 1 forward_v I I I I #
coedge $-1 $205 $127 $296 $297 reversed $122 $-1 #
coedge $-1 $298 $124 $295 $299 reversed $77 $-1 #
coedge $-1 $124 $298 $300 $301 reversed $77 $-1 #
coedge $-1 $212 $202 $124 $206 reversed $122 $-1 #
edge $-1 $302 -30.279854366794162 $303 30.279854366794162 $205 $304 forward 7 unknown #
coedge $-1 $126 $125 $305 $306 reversed $49 $-1 #
coedge $-1 $307 $308 $125 $209 forward $309 $-1 #
edge $-1 $310 -29.372338556742942 $214 -18.475592746776083 $208 $311 forward 7 unknown #
coedge $-1 $312 $296 $126 $211 forward $200 $-1 #
edge $-1 $213 18.475592746776083 $313 29.372338556742942 $210 $314 forward 7 unknown #
coedge $-1 $127 $205 $307 $315 reversed $122 $-1 #
vertex $-1 $211 $316 #
vertex $-1 $209 $317 #
straight-curve $-1 -42.399558398535596 0 5.2297076032582019 0 1 0 I I #
face $-1 $-1 $318 $29 $-1 $319 reversed single #
loop $-1 $-1 $135 $129 #
plane-surface $-1 0 0 8.7181991043625029 0 0 1 1 0 0 forward_v I I I I #
coedge $-1 $320 $321 $322 $323 reversed $130 $-1 #
coedge $-1 $324 $132 $134 $226 forward $81 $-1 #
coedge $-1 $132 $324 $320 $325 forward $81 $-1 #
coedge $-1 $322 $135 $132 $223 forward $217 $-1 #
edge $-1 $229 -14.062317790504004 $326 8.9987875869780538 $222 $327 forward 7 unknown #
coedge $-1 $328 $329 $133 $225 forward $318 $-1 #
edge $-1 $330 -56.722487334463018 $228 -52.167769605627164 $224 $331 forward 7 unknown #
edge $-1 $229 54.227906052123444 $330 60.559708733588295 $134 $332 forward 7 unknown #
coedge $-1 $135 $322 $328 $333 forward $217 $-1 #
vertex $-1 $225 $334 #
vertex $-1 $136 $335 #
straight-curve $-1 -16.594082892266979 32.443926416797126 8.7181991043625047 0 -1 0 I I #
coedge $-1 $231 $231 $-1 $336 reversed $139 $-1 #
edge $-1 $337 0 $337 6.2831853071796004 $140 $338 forward 7 unknown #
vertex $-1 $143 $339 #
ellipse-curve $-1 -10.005195641557819 28.080634527417377 6.440840239944567 0 0.71933980857756763 0.69465836192734942 0.5 0 0 1 I I #
coedge $-1 $235 $235 $-1 $340 reversed $146 $-1 #
edge $-1 $341 0 $341 6.2831853071796004 $147 $342 forward 7 unknown #
vertex $-1 $150 $343 #
ellipse-curve $-1 -0.12186476549408098 28.080634527417377 6.440840239944567 0 0.71933980857756763 0.69465836192734942 0.5 0 0 1 I I #
face $-1 $-1 $344 $32 $-1 $345 reversed single #
loop $-1 $-1 $346 $151 #
plane-surface $-1 -42.399558398535596 0 3.7297076032582019 -1 0 0 0 0 1 forward_v I I I I #
coedge $-1 $347 $154 $156 $248 forward $95 $-1 #
coedge $-1 $154 $347 $346 $348 reversed $95 $-1 #
coedge $-1 $349 $157 $154 $245 forward $152 $-1 #
edge $-1 $251 0.74981546918670894 $350 28.016433775961488 $244 $351 forward 7 unknown #
coedge $-1 $352 $353 $155 $247 forward $344 $-1 #
edge $-1 $354 -30.271601814008271 $250 -26.635160512283647 $246 $355 forward 7 unknown #
edge $-1 $251 -4.6147102015916426 $354 3.482033219266165e-014 $156 $356 forward 7 unknown #
coedge $-1 $157 $349 $352 $357 forward $152 $-1 #
vertex $-1 $247 $358 #
vertex $-1 $158 $359 #
straight-curve $-1 -15.132940091760808 -57.137988467122028 8.7181991043625047 0 1 0 I I #
coedge $-1 $253 $253 $-1 $360 reversed $161 $-1 #
edge $-1 $361 0 $361 6.2831853071796004 $162 $362 forward 7 unknown #
vertex $-1 $165 $363 #
ellipse-curve $-1 -36.946234737180632 -28.859304745715608 6.8999784535001947 0 -0.78801076186113728 0.61566146476048833 0.5 0 0 1 I I #
coedge $-1 $257 $257 $-1 $364 reversed $168 $-1 #
edge $-1 $365 0 $365 6.2831853071796004 $169 $366 forward 7 unknown #
vertex $-1 $172 $367 #
ellipse-curve $-1 -28.766249245148202 -28.859304745715608 6.8999784535001947 0 -0.78801076186113728 0.61566146476048833 0.5 0 0 1 I I #
coedge $-1 $261 $261 $-1 $368 reversed $175 $-1 #
edge $-1 $369 0 $369 6.2831853071796004 $176 $370 forward 7 unknown #
vertex $-1 $179 $371 #
ellipse-curve $-1 -20.586263753115766 -28.859304745715608 6.8999784535001947 0 -0.78801076186113728 0.61566146476048833 0.5 0 0 1 I I #
face $-1 $-1 $195 $27 $-1 $372 reversed single #
loop $-1 $-1 $281 $180 #
plane-surface $-1 0 30.279854366794162 0 0 -1 0 0 0 -1 forward_v I I I I #
coedge $-1 $373 $279 $282 $374 forward $181 $-1 #
coedge $-1 $285 $183 $184 $273 reversed $114 $-1 #
coedge $-1 $279 $373 $183 $271 reversed $181 $-1 #
edge $-1 $286 -8.7181991043625029 $375 8.7181991043625029 $270 $376 forward 7 unknown #
coedge $-1 $185 $184 $373 $377 forward $73 $-1 #
edge $-1 $277 -53.296304208502455 $375 53.296304208502455 $269 $378 forward 7 unknown #
coedge $-1 $282 $281 $185 $275 reversed $266 $-1 #
edge $-1 $379 -53.296304208502455 $276 53.296304208502455 $274 $380 forward 7 unknown #
vertex $-1 $187 $381 #
vertex $-1 $288 $382 #
straight-curve $-1 53.296304208502455 0 -8.7181991043625029 0 -1 0 I I #
coedge $-1 $268 $270 $188 $280 reversed $181 $-1 #
edge $-1 $283 -30.279854366794162 $286 30.279854366794162 $279 $383 forward 7 unknown #
coedge $-1 $274 $189 $194 $289 forward $266 $-1 #
coedge $-1 $189 $274 $268 $374 reversed $266 $-1 #
vertex $-1 $190 $384 #
straight-curve $-1 0 30.279854366794162 8.7181991043625029 -1 0 0 I I #
coedge $-1 $191 $269 $193 $288 reversed $114 $-1 #
vertex $-1 $280 $385 #
straight-curve $-1 0 -30.279854366794162 8.7181991043625029 1 0 0 I I #
edge $-1 $196 -8.7181991043625029 $277 8.7181991043625029 $193 $386 forward 7 unknown #
edge $-1 $197 -8.7181991043625029 $276 8.7181991043625029 $194 $387 forward 7 unknown #
point $-1 53.296304208502455 -30.279854366794162 8.7181991043625029 #
point $-1 53.296304208502455 30.279854366794162 8.7181991043625029 #
face $-1 $-1 $309 $28 $-1 $388 reversed single #
loop $-1 $-1 $389 $199 #
plane-surface $-1 -53.296304208502455 0 0 1 0 0 0 0 -1 forward_v I I I I #
coedge $-1 $296 $312 $203 $299 forward $200 $-1 #
coedge $-1 $210 $295 $202 $297 forward $200 $-1 #
edge $-1 $303 0.36485380162910097 $213 3.364853801629101 $296 $390 forward 7 unknown #
coedge $-1 $204 $203 $389 $391 reversed $77 $-1 #
edge $-1 $392 -29.372338556742942 $303 -18.475592746776083 $295 $393 forward 7 unknown #
coedge $-1 $308 $307 $204 $301 forward $309 $-1 #
edge $-1 $302 18.475592746776083 $394 29.372338556742942 $300 $395 forward 7 unknown #
vertex $-1 $301 $396 #
vertex $-1 $299 $397 #
straight-curve $-1 -42.399558398535596 0 2.2297076032582019 0 -1 0 I I #
coedge $-1 $398 $399 $207 $306 forward $293 $-1 #
edge $-1 $313 -30.279854366794162 $310 30.279854366794162 $305 $400 forward 7 unknown #
coedge $-1 $300 $208 $212 $315 forward $309 $-1 #
coedge $-1 $208 $300 $398 $401 reversed $309 $-1 #
loop $-1 $-1 $300 $292 #
vertex $-1 $401 $402 #
straight-curve $-1 -23.923965651759513 30.279854366794162 5.2297076032582019 1 0 0 I I #
coedge $-1 $295 $210 $399 $403 forward $200 $-1 #
vertex $-1 $403 $404 #
straight-curve $-1 -23.923965651759513 -30.279854366794162 5.2297076032582019 -1 0 0 I I #
edge $-1 $214 -3.364853801629101 $302 -0.36485380162910097 $307 $405 forward 7 unknown #
point $-1 -42.399558398535596 -30.279854366794162 5.2297076032582019 #
point $-1 -42.399558398535596 30.279854366794162 5.2297076032582019 #
loop $-1 $-1 $224 $216 #
plane-surface $-1 0 30.279854366794162 0 0 -1 0 0 0 -1 forward_v I I I I #
coedge $-1 $321 $219 $221 $325 reversed $130 $-1 #
coedge $-1 $219 $320 $406 $407 reversed $130 $-1 #
coedge $-1 $227 $222 $219 $323 forward $217 $-1 #
edge $-1 $326 -6.5625117287565402 $408 -2.1640720500029644 $322 $409 forward 7 unknown #
coedge $-1 $221 $220 $329 $410 reversed $81 $-1 #
edge $-1 $411 -60.559708733588295 $326 -54.227906052123444 $320 $412 forward 7 unknown #
vertex $-1 $223 $413 #
straight-curve $-1 -2.531765101762975 25.881414688040586 8.7181991043625047 1 0 0 I I #
coedge $-1 $406 $224 $227 $333 reversed $318 $-1 #
coedge $-1 $224 $406 $324 $410 forward $318 $-1 #
vertex $-1 $225 $414 #
straight-curve $-1 -16.594082892266979 30.279854366794162 60.885968709989669 0 0 1 I I #
straight-curve $-1 -16.594082892266979 -11.788453700877682 47.726490663459302 0 0.69465836192734942 -0.71933980857756763 I I #
edge $-1 $408 -6.4670224852150788 $228 16.594082892266979 $328 $415 forward 7 unknown #
point $-1 -16.594082892266979 30.279854366794162 8.7181991043625029 #
point $-1 -16.594082892266979 25.881414688040586 8.7181991043625047 #
edge $-1 $416 1 $416 0 $231 $-1 forward 7 unknown #
vertex $-1 $232 $417 #
ellipse-curve $-1 -10.005195641557819 26.947543158664583 5.3466266502806237 0 0.71933980857756763 0.69465836192734942 0.5 0 0 1 I I #
point $-1 -9.5051956415578189 28.08063452741737 6.4408402399445608 #
edge $-1 $418 1 $418 0 $235 $-1 forward 7 unknown #
vertex $-1 $236 $419 #
ellipse-curve $-1 -0.12186476549408098 26.947543158664583 5.3466266502806237 0 0.71933980857756763 0.69465836192734942 0.5 0 0 1 I I #
point $-1 0.37813523450591902 28.08063452741737 6.4408402399445608 #
loop $-1 $-1 $246 $239 #
plane-surface $-1 0 -30.279854366794162 0 0 1 0 0 0 1 forward_v I I I I #
coedge $-1 $420 $421 $243 $348 forward $240 $-1 #
coedge $-1 $243 $242 $353 $422 reversed $95 $-1 #
edge $-1 $350 4.1736444906618786 $423 8.7883546922535558 $346 $424 forward 7 unknown #
coedge $-1 $249 $244 $421 $425 forward $152 $-1 #
vertex $-1 $245 $426 #
straight-curve $-1 -14.383124622574099 -27.438755124637058 8.7181991043625029 -1 0 0 I I #
coedge $-1 $427 $246 $249 $357 reversed $344 $-1 #
coedge $-1 $246 $427 $347 $422 forward $344 $-1 #
vertex $-1 $247 $428 #
straight-curve $-1 -15.132940091760808 -30.279854366794162 35.353359616646152 0 0 1 I I #
straight-curve $-1 -15.132940091760808 -30.27985436679414 5.0817578026379095 0 -0.61566146476048833 -0.78801076186113728 I I #
edge $-1 $429 -42.399558398535589 $250 -15.132940091760808 $352 $430 forward 7 unknown #
point $-1 -15.132940091760808 -30.279854366794162 8.7181991043625029 #
point $-1 -15.132940091760808 -27.438755124637062 8.7181991043625029 #
edge $-1 $431 1 $431 0 $253 $-1 forward 7 unknown #
vertex $-1 $254 $432 #
ellipse-curve $-1 -36.946234737180632 -28.071293983854481 6.2843169887397137 0 -0.78801076186113728 0.61566146476048833 0.5 0 0 1 I I #
point $-1 -36.446234737180632 -28.859304745715619 6.8999784535002018 #
edge $-1 $433 1 $433 0 $257 $-1 forward 7 unknown #
vertex $-1 $258 $434 #
ellipse-curve $-1 -28.766249245148202 -28.071293983854481 6.2843169887397137 0 -0.78801076186113728 0.61566146476048833 0.5 0 0 1 I I #
point $-1 -28.266249245148202 -28.859304745715619 6.8999784535002018 #
edge $-1 $435 1 $435 0 $261 $-1 forward 7 unknown #
vertex $-1 $262 $436 #
ellipse-curve $-1 -20.586263753115766 -28.071293983854481 6.2843169887397137 0 -0.78801076186113728 0.61566146476048833 0.5 0 0 1 I I #
point $-1 -20.086263753115766 -28.859304745715619 6.8999784535002018 #
plane-surface $-1 53.296304208502455 0 0 -1 0 0 0 0 1 forward_v I I I I #
coedge $-1 $270 $268 $272 $377 reversed $181 $-1 #
edge $-1 $283 -8.7181991043625029 $379 8.7181991043625029 $282 $437 forward 7 unknown #
vertex $-1 $377 $438 #
straight-curve $-1 -53.296304208502455 -30.279854366794162 0 0 0 -1 I I #
edge $-1 $375 -30.279854366794162 $379 30.279854366794162 $373 $439 forward 7 unknown #
straight-curve $-1 0 -30.279854366794162 -8.7181991043625029 -1 0 0 I I #
vertex $-1 $275 $440 #
straight-curve $-1 0 30.279854366794162 -8.7181991043625029 1 0 0 I I #
point $-1 53.296304208502455 30.279854366794162 -8.7181991043625029 #
point $-1 53.296304208502455 -30.279854366794162 -8.7181991043625029 #
straight-curve $-1 -53.296304208502455 0 8.7181991043625029 0 -1 0 I I #
point $-1 -53.296304208502455 30.279854366794162 8.7181991043625029 #
point $-1 -53.296304208502455 -30.279854366794162 8.7181991043625029 #
straight-curve $-1 53.296304208502455 -30.279854366794162 0 0 0 -1 I I #
straight-curve $-1 53.296304208502455 30.279854366794162 0 0 0 -1 I I #
plane-surface $-1 0 30.279854366794162 0 0 -1 0 0 0 -1 forward_v I I I I #
coedge $-1 $399 $398 $298 $391 forward $293 $-1 #
straight-curve $-1 -42.399558398535596 -30.279854366794162 1.864853801629101 0 0 1 I I #
edge $-1 $394 -30.279854366794162 $392 30.279854366794162 $389 $441 forward 7 unknown #
vertex $-1 $299 $442 #
straight-curve $-1 -23.923965651759513 -30.279854366794162 2.2297076032582019 1 0 0 I I #
vertex $-1 $301 $443 #
straight-curve $-1 -23.923965651759513 30.279854366794162 2.2297076032582019 -1 0 0 I I #
point $-1 -42.399558398535596 30.279854366794162 2.2297076032582019 #
point $-1 -42.399558398535596 -30.279854366794162 2.2297076032582019 #
coedge $-1 $389 $305 $308 $401 forward $293 $-1 #
coedge $-1 $305 $389 $312 $403 reversed $293 $-1 #
straight-curve $-1 -53.296304208502455 0 5.2297076032582019 0 1 0 I I #
edge $-1 $310 -5.2297076032582019 $394 -2.2297076032582019 $308 $444 forward 7 unknown #
point $-1 -53.296304208502455 30.279854366794162 5.2297076032582019 #
edge $-1 $313 -5.2297076032582019 $392 -2.2297076032582019 $399 $445 forward 7 unknown #
point $-1 -53.296304208502455 -30.279854366794162 5.2297076032582019 #
straight-curve $-1 -42.399558398535596 30.279854366794162 1.864853801629101 0 0 -1 I I #
coedge $-1 $329 $328 $321 $407 forward $318 $-1 #
edge $-1 $408 52.167769605627164 $411 56.722487334463018 $406 $446 forward 7 unknown #
vertex $-1 $333 $447 #
straight-curve $-1 6.4670224852150788 32.443926416797126 8.7181991043625047 0 1 0 I I #
edge $-1 $411 -8.9987875869780538 $330 14.062317790504004 $329 $448 forward 7 unknown #
vertex $-1 $410 $449 #
straight-curve $-1 6.4670224852150788 -11.788453700877682 47.726490663459302 0 -0.69465836192734942 0.71933980857756763 I I #
point $-1 6.4670224852150788 25.881414688040586 8.7181991043625047 #
point $-1 -16.594082892266979 30.279854366794162 4.1634813755266507 #
straight-curve $-1 0 30.279854366794162 8.7181991043625029 -1 0 0 I I #
vertex $-1 $336 $450 #
point $-1 -9.5051956415578189 26.947543158664583 5.3466266502806237 #
vertex $-1 $340 $451 #
point $-1 0.37813523450591902 26.947543158664583 5.3466266502806237 #
coedge $-1 $421 $346 $427 $452 reversed $240 $-1 #
coedge $-1 $346 $420 $349 $425 reversed $240 $-1 #
edge $-1 $423 -28.016433775961495 $354 -0.74981546918670894 $353 $453 forward 7 unknown #
vertex $-1 $348 $454 #
straight-curve $-1 -42.399558398535596 -24.869203044126628 12.007075879186509 0 -0.61566146476048833 -0.78801076186113728 I I #
edge $-1 $350 -29.699233342484966 $429 -26.858134100327867 $349 $455 forward 7 unknown #
point $-1 -42.399558398535589 -27.438755124637062 8.7181991043625029 #
coedge $-1 $353 $352 $420 $452 forward $344 $-1 #
point $-1 -15.132940091760808 -30.279854366794162 5.081757802637882 #
vertex $-1 $357 $456 #
straight-curve $-1 0 -30.279854366794162 8.7181991043625029 1 0 0 I I #
vertex $-1 $360 $457 #
point $-1 -36.446234737180632 -28.071293983854481 6.2843169887397137 #
vertex $-1 $364 $458 #
point $-1 -28.266249245148202 -28.071293983854481 6.2843169887397137 #
vertex $-1 $368 $459 #
point $-1 -20.086263753115766 -28.071293983854481 6.2843169887397137 #
straight-curve $-1 -53.296304208502455 30.279854366794162 0 0 0 -1 I I #
point $-1 -53.296304208502455 -30.279854366794162 -8.7181991043625029 #
straight-curve $-1 -53.296304208502455 0 -8.7181991043625029 0 1 0 I I #
point $-1 -53.296304208502455 30.279854366794162 -8.7181991043625029 #
straight-curve $-1 -53.296304208502455 0 2.2297076032582019 0 -1 0 I I #
point $-1 -53.296304208502455 -30.279854366794162 2.2297076032582019 #
point $-1 -53.296304208502455 30.279854366794162 2.2297076032582019 #
straight-curve $-1 -53.296304208502455 30.279854366794162 0 0 0 -1 I I #
straight-curve $-1 -53.296304208502455 -30.279854366794162 0 0 0 -1 I I #
straight-curve $-1 6.4670224852150788 30.279854366794162 60.885968709989669 0 0 -1 I I #
point $-1 6.4670224852150788 30.279854366794162 8.7181991043625029 #
straight-curve $-1 -2.531765101762975 30.279854366794162 4.1634813755266435 -1 0 0 I I #
point $-1 6.4670224852150788 30.279854366794162 4.1634813755266507 #
point $-1 -10.005195641557819 26.587873254375797 4.9992974693169492 #
point $-1 -0.12186476549408098 26.587873254375797 4.9992974693169492 #
edge $-1 $429 26.635160512283647 $423 30.271601814008271 $427 $460 forward 7 unknown #
straight-curve $-1 -14.383124622574099 -30.279854366794162 5.0817578026378811 1 0 0 I I #
point $-1 -42.399558398535596 -30.279854366794162 5.081757802637882 #
straight-curve $-1 -42.399558398535589 -57.137988467122028 8.7181991043625047 0 -1 0 I I #
point $-1 -42.399558398535589 -30.279854366794162 8.7181991043625029 #
point $-1 -36.946234737180632 -27.677288602923916 5.9764862563594692 #
point $-1 -28.766249245148202 -27.677288602923916 5.9764862563594692 #
point $-1 -20.586263753115766 -27.677288602923916 5.9764862563594692 #
straight-curve $-1 -42.399558398535589 -30.279854366794162 35.353359616646152 0 0 -1 I I #
End-of-ACIS-data 