500 0 6 0           
7 Unknown 11 ACIS 5.0 NT 24 Thu Mar 25 17:34:00 1999 
-1 9.9999999999999995e-007 1e-010 
body $-1 $6 $-1 $7 #
body $-1 $8 $-1 $9 #
body $-1 $10 $-1 $11 #
body $-1 $12 $-1 $13 #
body $-1 $14 $-1 $15 #
body $-1 $16 $-1 $17 #
lump $-1 $-1 $18 $0 #
transform $-1 1 0 0 0 1 0 0 0 1 42.778405102694784 18.457497283895037 7.4283441856718353 1 rotate no_reflect no_shear #
lump $-1 $-1 $19 $1 #
transform $-1 1 0 0 0 1 0 0 0 1 42.778405102694784 18.457497283895037 7.4283441856718353 1 rotate no_reflect no_shear #
lump $-1 $-1 $20 $2 #
transform $-1 1 0 0 0 1 0 0 0 1 42.778405102694784 18.457497283895037 7.4283441856718353 1 rotate no_reflect no_shear #
lump $-1 $-1 $21 $3 #
transform $-1 1 0 0 0 1 0 0 0 1 42.778405102694784 18.457497283895037 7.4283441856718353 1 rotate no_reflect no_shear #
lump $-1 $-1 $22 $4 #
transform $-1 1 0 0 0 1 0 0 0 1 42.778405102694784 18.457497283895037 7.4283441856718353 1 rotate no_reflect no_shear #
lump $-1 $-1 $23 $5 #
transform $-1 1 0 0 0 1 0 0 0 1 42.778405102694784 18.457497283895037 7.4283441856718353 1 rotate no_reflect no_shear #
shell $-1 $-1 $-1 $24 $-1 $6 #
shell $-1 $-1 $-1 $25 $-1 $8 #
shell $-1 $-1 $-1 $26 $-1 $10 #
shell $-1 $-1 $-1 $27 $-1 $12 #
shell $-1 $-1 $-1 $28 $-1 $14 #
shell $-1 $-1 $-1 $29 $-1 $16 #
face $-1 $30 $31 $18 $-1 $32 forward single #
face $-1 $33 $34 $19 $-1 $35 reversed single #
face $-1 $36 $37 $20 $-1 $38 reversed single #
face $-1 $39 $40 $21 $-1 $41 forward single #
face $-1 $42 $43 $22 $-1 $44 reversed single #
face $-1 $45 $46 $23 $-1 $47 forward single #
face $-1 $48 $49 $18 $-1 $50 reversed single #
loop $-1 $-1 $51 $24 #
plane-surface $-1 0 0 7.4283441856718353 0 0 1 1 0 0 forward_v I I I I #
face $-1 $52 $53 $19 $-1 $54 reversed single #
loop $-1 $-1 $55 $25 #
plane-surface $-1 0 -13.559652879089064 4.4283441856718353 0 0 1 1 0 0 forward_v I I I I #
face $-1 $56 $57 $20 $-1 $58 reversed single #
loop $-1 $-1 $59 $26 #
plane-surface $-1 -105.35069565222864 6.7765905743685426 58.834103567405649 0 1 0 -0.73135370988377701 0 0.68199835119979291 forward_v I I I I #
face $-1 $60 $61 $21 $-1 $62 forward single #
loop $-1 $63 $64 $27 #
cone-surface $-1 -38.412685724721349 10.631865428696994 2.9044521089283641 0.73135370988377701 0 -0.68199835119979291 1.0229975267996894 0 1.0970305648256655 1 I I 0 1 1.5 forward I I I I #
face $-1 $65 $66 $22 $-1 $67 reversed single #
loop $-1 $-1 $68 $28 #
plane-surface $-1 47.001092158239352 14.487140283025438 121.4063941169395 0 -1 0 -0.73135370988377701 0 -0.68199835119979291 forward_v I I I I #
face $-1 $69 $70 $23 $-1 $71 forward single #
loop $-1 $72 $73 $29 #
cone-surface $-1 38.412685724721364 10.631865428696994 2.9044521089283677 -0.73135370988377701 0 -0.68199835119979291 1.0229975267996894 0 -1.0970305648256655 1 I I 0 1 1.5 forward I I I I #
face $-1 $74 $75 $18 $-1 $76 reversed single #
loop $-1 $-1 $77 $30 #
plane-surface $-1 0 0 -7.4283441856718353 0 0 1 1 0 0 forward_v I I I I #
coedge $-1 $78 $79 $80 $81 forward $31 $-1 #
face $-1 $82 $83 $19 $-1 $84 reversed single #
loop $-1 $-1 $85 $33 #
plane-surface $-1 0 -8.6618084742830916 5.9283441856718353 0 -1 0 0 0 -1 forward_v I I I I #
coedge $-1 $86 $87 $88 $89 reversed $34 $-1 #
face $-1 $90 $91 $20 $-1 $92 reversed single #
loop $-1 $-1 $93 $36 #
plane-surface $-1 -42.778405102694784 10.63186542869699 0.48450007341634915 -0.73135370988377701 0 0.68199835119979291 0.68199835119979291 0 0.73135370988377701 forward_v I I I I #
coedge $-1 $94 $95 $96 $97 reversed $37 $-1 #
face $-1 $-1 $98 $21 $-1 $99 forward single #
loop $-1 $100 $101 $39 #
cone-surface $-1 -36.736070680908306 10.631865428696994 1.3409833249127923 0.73135370988377701 0 -0.68199835119979291 0.51149876339984468 0 0.54851528241283276 1 I I -0.70710678118654757 0.70710678118654757 0.75 forward I I I I #
loop $-1 $-1 $102 $27 #
coedge $-1 $64 $64 $103 $104 reversed $40 $-1 #
face $-1 $105 $106 $22 $-1 $107 reversed single #
loop $-1 $-1 $108 $42 #
plane-surface $-1 -15.571198391294502 10.63186542869699 63.056790622950196 0.73135370988377701 0 0.68199835119979291 0.68199835119979291 0 -0.73135370988377701 forward_v I I I I #
coedge $-1 $109 $110 $111 $112 reversed $43 $-1 #
face $-1 $-1 $113 $23 $-1 $114 forward single #
loop $-1 $115 $116 $45 #
cone-surface $-1 36.73607068090832 10.631865428696994 1.3409833249127958 -0.73135370988377701 0 -0.68199835119979291 0.51149876339984468 0 -0.54851528241283276 1 I I -0.70710678118654757 0.70710678118654757 0.75 forward I I I I #
loop $-1 $-1 $117 $29 #
coedge $-1 $73 $73 $118 $119 reversed $46 $-1 #
face $-1 $120 $121 $18 $-1 $122 reversed single #
loop $-1 $-1 $123 $48 #
plane-surface $-1 0 -18.457497283895037 0 0 1 0 0 0 1 forward_v I I I I #
coedge $-1 $124 $125 $126 $127 forward $49 $-1 #
coedge $-1 $128 $51 $129 $130 forward $31 $-1 #
coedge $-1 $51 $128 $131 $132 forward $31 $-1 #
coedge $-1 $133 $134 $51 $81 reversed $135 $-1 #
edge $-1 $136 -18.457497283895037 $137 18.457497283895037 $80 $138 forward 7 unknown #
face $-1 $139 $140 $19 $-1 $141 reversed single #
loop $-1 $-1 $142 $52 #
plane-surface $-1 -42.778405102694784 0 0 1 0 0 0 0 -1 forward_v I I I I #
coedge $-1 $143 $144 $145 $146 reversed $53 $-1 #
coedge $-1 $147 $55 $148 $149 reversed $34 $-1 #
coedge $-1 $55 $147 $143 $150 forward $34 $-1 #
coedge $-1 $145 $151 $55 $89 forward $152 $-1 #
edge $-1 $153 -11.677670844350505 $154 -1.8819820347385594 $88 $155 forward 7 unknown #
face $-1 $156 $157 $20 $-1 $158 forward single #
loop $-1 $-1 $159 $56 #
plane-surface $-1 -105.35069565222864 14.487140283025438 58.834103567405649 0 -1 0 0.73135370988377701 0 -0.68199835119979291 forward_v I I I I #
coedge $-1 $160 $161 $162 $163 reversed $57 $-1 #
coedge $-1 $95 $59 $164 $165 reversed $37 $-1 #
coedge $-1 $59 $94 $160 $166 reversed $37 $-1 #
coedge $-1 $162 $167 $59 $97 forward $157 $-1 #
edge $-1 $168 9.8969427234195351 $169 16.372181956565974 $96 $170 forward 7 unknown #
loop $-1 $-1 $103 $60 #
plane-surface $-1 -42.778405102694784 10.63186542869699 0.48450007341634915 -0.73135370988377701 0 0.68199835119979291 0.68199835119979291 0 0.73135370988377701 forward_v I I I I #
loop $-1 $-1 $171 $39 #
coedge $-1 $101 $101 $102 $172 reversed $61 $-1 #
coedge $-1 $102 $102 $101 $172 forward $63 $-1 #
coedge $-1 $103 $103 $64 $104 forward $98 $-1 #
edge $-1 $173 0 $173 6.2831853071796004 $103 $174 forward 7 unknown #
face $-1 $175 $176 $22 $-1 $177 reversed single #
loop $-1 $-1 $178 $65 #
plane-surface $-1 47.001092158239352 6.7765905743685426 121.4063941169395 0 1 0 0.73135370988377701 0 0.68199835119979291 forward_v I I I I #
coedge $-1 $179 $180 $181 $182 reversed $66 $-1 #
coedge $-1 $110 $68 $183 $184 reversed $43 $-1 #
coedge $-1 $68 $109 $179 $185 reversed $43 $-1 #
coedge $-1 $181 $186 $68 $112 forward $187 $-1 #
edge $-1 $188 -19.277859023575107 $189 -12.802619790428682 $111 $190 forward 7 unknown #
loop $-1 $-1 $118 $69 #
plane-surface $-1 -15.571198391294502 10.63186542869699 63.056790622950196 0.73135370988377701 0 0.68199835119979291 0.68199835119979291 0 -0.73135370988377701 forward_v I I I I #
loop $-1 $-1 $191 $45 #
coedge $-1 $116 $116 $117 $192 reversed $70 $-1 #
coedge $-1 $117 $117 $116 $192 forward $72 $-1 #
coedge $-1 $118 $118 $73 $119 forward $113 $-1 #
edge $-1 $193 0 $193 6.2831853071796004 $118 $194 forward 7 unknown #
face $-1 $195 $196 $18 $-1 $197 reversed single #
loop $-1 $-1 $198 $74 #
plane-surface $-1 -42.778405102694784 0 0 1 0 0 0 0 -1 forward_v I I I I #
coedge $-1 $199 $131 $200 $201 forward $75 $-1 #
coedge $-1 $202 $77 $199 $203 forward $49 $-1 #
coedge $-1 $77 $202 $204 $205 forward $49 $-1 #
coedge $-1 $134 $133 $77 $127 reversed $135 $-1 #
edge $-1 $206 -18.457497283895037 $207 18.457497283895037 $126 $208 forward 7 unknown #
coedge $-1 $79 $78 $209 $210 forward $31 $-1 #
coedge $-1 $211 $212 $78 $130 reversed $196 $-1 #
edge $-1 $137 -42.778405102694784 $213 42.778405102694784 $129 $214 forward 7 unknown #
coedge $-1 $123 $215 $79 $132 reversed $75 $-1 #
edge $-1 $216 -42.778405102694784 $136 42.778405102694784 $131 $217 forward 7 unknown #
coedge $-1 $126 $80 $215 $218 forward $135 $-1 #
coedge $-1 $80 $126 $211 $219 reversed $135 $-1 #
loop $-1 $-1 $133 $195 #
vertex $-1 $81 $220 #
vertex $-1 $81 $221 #
straight-curve $-1 42.778405102694784 0 7.4283441856718353 0 1 0 I I #
face $-1 $222 $223 $19 $-1 $224 forward single #
loop $-1 $-1 $148 $82 #
plane-surface $-1 0 -18.457497283895037 0 0 1 0 0 0 1 forward_v I I I I #
coedge $-1 $225 $226 $227 $228 forward $83 $-1 #
coedge $-1 $227 $85 $87 $150 reversed $53 $-1 #
coedge $-1 $85 $227 $229 $230 reversed $53 $-1 #
coedge $-1 $231 $88 $85 $146 forward $152 $-1 #
edge $-1 $154 1.4641720928359176 $232 4.4641720928359181 $145 $233 forward 7 unknown #
coedge $-1 $87 $86 $225 $234 reversed $34 $-1 #
coedge $-1 $235 $236 $86 $149 forward $140 $-1 #
edge $-1 $237 -42.778405102694784 $153 42.778405102694784 $148 $238 forward 7 unknown #
edge $-1 $239 -42.778405102694784 $154 42.778405102694784 $143 $240 forward 7 unknown #
coedge $-1 $88 $231 $235 $241 forward $152 $-1 #
loop $-1 $-1 $145 $222 #
vertex $-1 $149 $242 #
vertex $-1 $89 $243 #
straight-curve $-1 42.778405102694784 -6.7798264395445322 4.4283441856718353 0 1 0 I I #
face $-1 $-1 $244 $20 $-1 $245 reversed single #
loop $-1 $-1 $96 $90 #
plane-surface $-1 0 0 7.4283441856718353 0 0 1 1 0 0 forward_v I I I I #
coedge $-1 $246 $247 $248 $249 reversed $91 $-1 #
coedge $-1 $250 $93 $95 $166 forward $57 $-1 #
coedge $-1 $93 $250 $246 $251 forward $57 $-1 #
coedge $-1 $248 $96 $93 $163 forward $157 $-1 #
edge $-1 $169 1.4606578600200475 $252 9.1712075686769428 $162 $253 forward 7 unknown #
coedge $-1 $254 $255 $94 $165 forward $244 $-1 #
edge $-1 $256 -28.932551710286475 $168 -21.988707598030988 $164 $257 forward 7 unknown #
edge $-1 $169 -9.4945086329827557 $256 0 $95 $258 forward 7 unknown #
coedge $-1 $96 $248 $254 $259 forward $157 $-1 #
vertex $-1 $165 $260 #
vertex $-1 $97 $261 #
straight-curve $-1 -52.675347826114319 6.7765905743685426 7.4283441856718362 1 0 0 I I #
coedge $-1 $171 $171 $-1 $262 reversed $100 $-1 #
edge $-1 $263 0 $263 6.2831853071796004 $101 $264 forward 7 unknown #
vertex $-1 $104 $265 #
ellipse-curve $-1 -39.540785486121564 10.631865428696994 3.9564221295440922 -0.73135370988377701 0 0.68199835119979291 1.0229975267996894 0 1.0970305648256655 1 I I #
face $-1 $-1 $187 $22 $-1 $266 forward single #
loop $-1 $-1 $267 $105 #
plane-surface $-1 42.778405102694784 0 0 -1 0 0 0 0 1 forward_v I I I I #
coedge $-1 $268 $269 $270 $271 reversed $106 $-1 #
coedge $-1 $272 $108 $110 $185 forward $66 $-1 #
coedge $-1 $108 $272 $268 $273 forward $66 $-1 #
coedge $-1 $270 $111 $108 $182 forward $187 $-1 #
edge $-1 $189 -9.1712075686769428 $274 -1.4606578600200475 $181 $275 forward 7 unknown #
coedge $-1 $276 $277 $109 $184 forward $176 $-1 #
edge $-1 $278 -60.218696985053384 $188 -53.274852872797915 $183 $279 forward 7 unknown #
edge $-1 $189 76.062301572406795 $278 85.556810205389525 $110 $280 forward 7 unknown #
coedge $-1 $111 $270 $276 $281 forward $187 $-1 #
loop $-1 $-1 $270 $175 #
vertex $-1 $184 $282 #
vertex $-1 $112 $283 #
straight-curve $-1 23.500546079119676 14.487140283025438 7.4283441856718326 -1 0 0 I I #
coedge $-1 $191 $191 $-1 $284 reversed $115 $-1 #
edge $-1 $285 0 $285 6.2831853071796004 $116 $286 forward 7 unknown #
vertex $-1 $119 $287 #
ellipse-curve $-1 39.540785486121571 10.631865428696994 3.9564221295440891 0.73135370988377701 0 0.68199835119979291 1.0229975267996894 0 -1.0970305648256655 1 I I #
face $-1 $-1 $135 $18 $-1 $288 reversed single #
loop $-1 $-1 $211 $120 #
plane-surface $-1 0 18.457497283895037 0 0 -1 0 0 0 -1 forward_v I I I I #
coedge $-1 $289 $209 $212 $290 forward $121 $-1 #
coedge $-1 $215 $123 $124 $203 reversed $75 $-1 #
coedge $-1 $209 $289 $123 $201 reversed $121 $-1 #
edge $-1 $216 -7.4283441856718353 $291 7.4283441856718353 $200 $292 forward 7 unknown #
coedge $-1 $125 $124 $289 $293 forward $49 $-1 #
edge $-1 $207 -42.778405102694784 $291 42.778405102694784 $199 $294 forward 7 unknown #
coedge $-1 $212 $211 $125 $205 reversed $196 $-1 #
edge $-1 $295 -42.778405102694784 $206 42.778405102694784 $204 $296 forward 7 unknown #
vertex $-1 $127 $297 #
vertex $-1 $218 $298 #
straight-curve $-1 42.778405102694784 0 -7.4283441856718353 0 -1 0 I I #
coedge $-1 $198 $200 $128 $210 reversed $121 $-1 #
edge $-1 $213 -18.457497283895037 $216 18.457497283895037 $209 $299 forward 7 unknown #
coedge $-1 $204 $129 $134 $219 forward $196 $-1 #
coedge $-1 $129 $204 $198 $290 reversed $196 $-1 #
vertex $-1 $130 $300 #
straight-curve $-1 0 18.457497283895037 7.4283441856718353 -1 0 0 I I #
coedge $-1 $131 $199 $133 $218 reversed $75 $-1 #
vertex $-1 $210 $301 #
straight-curve $-1 0 -18.457497283895037 7.4283441856718353 1 0 0 I I #
edge $-1 $136 -7.4283441856718353 $207 7.4283441856718353 $133 $302 forward 7 unknown #
edge $-1 $137 -7.4283441856718353 $206 7.4283441856718353 $134 $303 forward 7 unknown #
point $-1 42.778405102694784 -18.457497283895037 7.4283441856718353 #
point $-1 42.778405102694784 18.457497283895037 7.4283441856718353 #
face $-1 $-1 $152 $19 $-1 $304 reversed single #
loop $-1 $-1 $229 $139 #
plane-surface $-1 0 0 7.4283441856718353 0 0 1 1 0 0 forward_v I I I I #
coedge $-1 $305 $142 $147 $234 forward $83 $-1 #
coedge $-1 $142 $305 $306 $307 reversed $83 $-1 #
coedge $-1 $144 $143 $142 $228 reversed $53 $-1 #
edge $-1 $308 -4.4641720928359181 $239 -1.4641720928359176 $142 $309 forward 7 unknown #
coedge $-1 $306 $310 $144 $230 forward $223 $-1 #
edge $-1 $232 -42.778405102694784 $308 42.778405102694784 $229 $311 forward 7 unknown #
coedge $-1 $151 $145 $310 $312 reversed $152 $-1 #
vertex $-1 $146 $313 #
straight-curve $-1 42.778405102694784 -8.6618084742830916 2.9641720928359176 0 0 1 I I #
edge $-1 $239 1.8819820347385594 $237 11.677670844350505 $225 $314 forward 7 unknown #
coedge $-1 $315 $148 $151 $241 reversed $140 $-1 #
coedge $-1 $148 $315 $305 $316 forward $140 $-1 #
vertex $-1 $149 $317 #
straight-curve $-1 0 -18.457497283895037 4.4283441856718353 1 0 0 I I #
vertex $-1 $234 $318 #
straight-curve $-1 0 -8.6618084742830916 4.4283441856718353 1 0 0 I I #
edge $-1 $319 -7.4283441856718353 $153 -4.4283441856718353 $151 $320 forward 7 unknown #
point $-1 42.778405102694784 -18.457497283895037 4.4283441856718353 #
point $-1 42.778405102694784 -8.6618084742830916 4.4283441856718353 #
loop $-1 $-1 $164 $156 #
plane-surface $-1 -42.778405102694784 0 0 1 0 0 0 0 -1 forward_v I I I I #
coedge $-1 $247 $159 $161 $251 reversed $91 $-1 #
coedge $-1 $159 $246 $321 $322 reversed $91 $-1 #
coedge $-1 $167 $162 $159 $249 forward $157 $-1 #
edge $-1 $252 -16.372181956565974 $323 -9.8969427234195351 $248 $324 forward 7 unknown #
coedge $-1 $161 $160 $255 $325 reversed $57 $-1 #
edge $-1 $326 0 $252 9.4945086329827557 $246 $327 forward 7 unknown #
vertex $-1 $163 $328 #
straight-curve $-1 -36.303165869548344 5.3159327143484951 7.4283441856718353 0 1 0 I I #
coedge $-1 $321 $164 $167 $259 reversed $244 $-1 #
coedge $-1 $164 $321 $250 $325 forward $244 $-1 #
vertex $-1 $165 $329 #
straight-curve $-1 -42.778405102694784 6.7765905743685426 29.417051783702824 0 0 1 I I #
straight-curve $-1 -42.778405102694784 6.7765905743685426 0.48450007341634915 -0.68199835119979291 0 -0.73135370988377701 I I #
edge $-1 $323 -14.487140283025438 $168 -6.7765905743685426 $254 $330 forward 7 unknown #
point $-1 -42.778405102694784 6.7765905743685426 7.4283441856718353 #
point $-1 -36.303165869548344 6.7765905743685426 7.4283441856718362 #
edge $-1 $331 1 $331 0 $171 $-1 forward 7 unknown #
vertex $-1 $172 $332 #
ellipse-curve $-1 -37.284585963321135 10.631865428696994 1.8524820883126369 -0.73135370988377701 0 0.68199835119979291 1.0229975267996894 0 1.0970305648256655 1 I I #
point $-1 -38.517787959321879 10.631865428696994 5.0534526943697564 #
plane-surface $-1 0 0 7.4283441856718353 0 0 1 1 0 0 forward_v I I I I #
coedge $-1 $277 $276 $269 $333 forward $176 $-1 #
coedge $-1 $269 $178 $180 $273 reversed $106 $-1 #
coedge $-1 $178 $268 $267 $333 reversed $106 $-1 #
coedge $-1 $186 $181 $178 $271 forward $187 $-1 #
edge $-1 $274 12.802619790428682 $334 19.277859023575107 $270 $335 forward 7 unknown #
coedge $-1 $180 $179 $277 $336 reversed $66 $-1 #
edge $-1 $337 -85.556810205389525 $274 -76.062301572406795 $268 $338 forward 7 unknown #
vertex $-1 $182 $339 #
straight-curve $-1 36.303165869548359 5.3159327143484951 7.4283441856718255 0 -1 0 I I #
coedge $-1 $267 $183 $186 $281 reversed $176 $-1 #
coedge $-1 $183 $267 $272 $336 forward $176 $-1 #
vertex $-1 $184 $340 #
straight-curve $-1 42.778405102694784 14.487140283025438 60.703197058469748 0 0 1 I I #
straight-curve $-1 -15.571198391294502 14.487140283025438 63.056790622950196 0.68199835119979291 0 -0.73135370988377701 I I #
edge $-1 $334 6.7765905743685426 $188 14.487140283025438 $276 $341 forward 7 unknown #
point $-1 42.778405102694784 14.487140283025438 7.4283441856718353 #
point $-1 36.303165869548359 14.487140283025438 7.4283441856718326 #
edge $-1 $342 1 $342 0 $191 $-1 forward 7 unknown #
vertex $-1 $192 $343 #
ellipse-curve $-1 37.284585963321149 10.631865428696994 1.8524820883126405 0.73135370988377701 0 0.68199835119979291 1.0229975267996894 0 -1.0970305648256655 1 I I #
point $-1 40.56378301292127 10.631865428696994 2.8593915647184294 #
plane-surface $-1 42.778405102694784 0 0 -1 0 0 0 0 1 forward_v I I I I #
coedge $-1 $200 $198 $202 $293 reversed $121 $-1 #
edge $-1 $213 -7.4283441856718353 $295 7.4283441856718353 $212 $344 forward 7 unknown #
vertex $-1 $293 $345 #
straight-curve $-1 -42.778405102694784 -18.457497283895037 0 0 0 -1 I I #
edge $-1 $291 -18.457497283895037 $295 18.457497283895037 $289 $346 forward 7 unknown #
straight-curve $-1 0 -18.457497283895037 -7.4283441856718353 -1 0 0 I I #
vertex $-1 $205 $347 #
straight-curve $-1 0 18.457497283895037 -7.4283441856718353 1 0 0 I I #
point $-1 42.778405102694784 18.457497283895037 -7.4283441856718353 #
point $-1 42.778405102694784 -18.457497283895037 -7.4283441856718353 #
straight-curve $-1 -42.778405102694784 0 7.4283441856718353 0 -1 0 I I #
point $-1 -42.778405102694784 18.457497283895037 7.4283441856718353 #
point $-1 -42.778405102694784 -18.457497283895037 7.4283441856718353 #
straight-curve $-1 42.778405102694784 -18.457497283895037 0 0 0 -1 I I #
straight-curve $-1 42.778405102694784 18.457497283895037 0 0 0 -1 I I #
plane-surface $-1 42.778405102694784 0 0 -1 0 0 0 0 1 forward_v I I I I #
coedge $-1 $226 $225 $236 $316 reversed $83 $-1 #
coedge $-1 $348 $229 $226 $307 forward $223 $-1 #
edge $-1 $308 8.6618084742830916 $349 18.457497283895037 $226 $350 forward 7 unknown #
vertex $-1 $307 $351 #
straight-curve $-1 -42.778405102694784 -8.6618084742830916 2.9641720928359176 0 0 -1 I I #
coedge $-1 $229 $348 $231 $312 forward $223 $-1 #
straight-curve $-1 0 -8.6618084742830916 7.4283441856718353 -1 0 0 I I #
edge $-1 $319 -18.457497283895037 $232 -8.6618084742830916 $231 $352 forward 7 unknown #
point $-1 42.778405102694784 -8.6618084742830916 7.4283441856718353 #
straight-curve $-1 -42.778405102694784 -6.7798264395445322 4.4283441856718353 0 -1 0 I I #
coedge $-1 $236 $235 $348 $353 reversed $140 $-1 #
edge $-1 $349 -7.4283441856718353 $237 -4.4283441856718353 $305 $354 forward 7 unknown #
point $-1 -42.778405102694784 -18.457497283895037 4.4283441856718353 #
point $-1 -42.778405102694784 -8.6618084742830916 4.4283441856718353 #
vertex $-1 $312 $355 #
straight-curve $-1 42.778405102694784 -18.457497283895037 0 0 0 -1 I I #
coedge $-1 $255 $254 $247 $322 forward $244 $-1 #
edge $-1 $323 21.988707598030988 $326 28.932551710286475 $321 $356 forward 7 unknown #
vertex $-1 $259 $357 #
straight-curve $-1 -52.675347826114319 14.487140283025438 7.4283441856718362 -1 0 0 I I #
edge $-1 $326 -9.1712075686769428 $256 -1.4606578600200475 $255 $358 forward 7 unknown #
vertex $-1 $325 $359 #
straight-curve $-1 -42.778405102694784 14.487140283025438 0.48450007341634915 0.68199835119979291 0 0.73135370988377701 I I #
point $-1 -36.303165869548344 14.487140283025438 7.4283441856718362 #
point $-1 -42.778405102694784 6.7765905743685426 0.48450007341634915 #
straight-curve $-1 -42.778405102694784 0 7.4283441856718353 0 -1 0 I I #
vertex $-1 $262 $360 #
point $-1 -36.26158843652145 10.631865428696994 2.9495126531383025 #
edge $-1 $334 53.274852872797915 $337 60.218696985053384 $267 $361 forward 7 unknown #
vertex $-1 $281 $362 #
straight-curve $-1 23.500546079119676 6.7765905743685426 7.4283441856718326 1 0 0 I I #
edge $-1 $337 1.4606578600200475 $278 9.1712075686769428 $277 $363 forward 7 unknown #
vertex $-1 $336 $364 #
straight-curve $-1 -15.571198391294502 6.7765905743685426 63.056790622950196 -0.68199835119979291 0 0.73135370988377701 I I #
point $-1 36.303165869548359 6.7765905743685426 7.4283441856718326 #
point $-1 42.778405102694776 14.487140283025438 0.48450007341636336 #
straight-curve $-1 42.778405102694784 0 7.4283441856718353 0 1 0 I I #
vertex $-1 $284 $365 #
point $-1 38.307583490120841 10.631865428696994 0.75545152348697497 #
straight-curve $-1 -42.778405102694784 18.457497283895037 0 0 0 -1 I I #
point $-1 -42.778405102694784 -18.457497283895037 -7.4283441856718353 #
straight-curve $-1 -42.778405102694784 0 -7.4283441856718353 0 1 0 I I #
point $-1 -42.778405102694784 18.457497283895037 -7.4283441856718353 #
coedge $-1 $310 $306 $315 $353 forward $223 $-1 #
vertex $-1 $307 $366 #
straight-curve $-1 -42.778405102694784 0 7.4283441856718353 0 -1 0 I I #
point $-1 -42.778405102694784 -8.6618084742830916 7.4283441856718353 #
straight-curve $-1 42.778405102694784 0 7.4283441856718353 0 1 0 I I #
edge $-1 $349 -42.778405102694784 $319 42.778405102694784 $315 $367 forward 7 unknown #
straight-curve $-1 -42.778405102694784 -18.457497283895037 0 0 0 -1 I I #
point $-1 42.778405102694784 -18.457497283895037 7.4283441856718353 #
straight-curve $-1 -42.778405102694784 14.487140283025438 29.417051783702824 0 0 -1 I I #
point $-1 -42.778405102694784 14.487140283025438 7.4283441856718353 #
straight-curve $-1 -42.778405102694784 5.3159327143484951 0.48450007341634571 0 -1 0 I I #
point $-1 -42.778405102694784 14.487140283025438 0.48450007341634915 #
point $-1 -36.187555398495476 10.631865428696994 0.82948456151294758 #
straight-curve $-1 42.778405102694784 6.7765905743685426 60.703197058469748 0 0 -1 I I #
point $-1 42.778405102694784 6.7765905743685426 7.4283441856718353 #
straight-curve $-1 42.778405102694784 5.3159327143484951 0.48450007341636336 0 1 0 I I #
point $-1 42.778405102694776 6.7765905743685426 0.48450007341636336 #
point $-1 36.187555398495491 10.631865428696994 0.82948456151295114 #
point $-1 -42.778405102694784 -18.457497283895037 7.4283441856718353 #
straight-curve $-1 0 -18.457497283895037 7.4283441856718353 1 0 0 I I #
End-of-ACIS-data 