500 0 2 0           
7 Unknown 11 ACIS 5.0 NT 24 Fri Mar 26 15:52:12 1999 
-1 9.9999999999999995e-007 1e-010 
body $-1 $2 $-1 $3 #
body $-1 $4 $-1 $5 #
lump $-1 $-1 $6 $0 #
transform $-1 1 0 0 0 1 0 0 0 1 66.638996551408425 45.973118461965029 11.784057800898594 1 rotate no_reflect no_shear #
lump $-1 $-1 $7 $1 #
transform $-1 1 0 0 0 1 0 0 0 1 66.638996551408425 45.973118461965029 11.784057800898594 1 rotate no_reflect no_shear #
shell $-1 $-1 $-1 $8 $-1 $2 #
shell $-1 $-1 $-1 $9 $-1 $4 #
face $-1 $10 $11 $6 $-1 $12 forward single #
face $-1 $13 $14 $7 $-1 $15 forward single #
face $-1 $16 $17 $6 $-1 $18 reversed single #
loop $-1 $-1 $19 $8 #
plane-surface $-1 0 0 11.784057800898594 0 0 1 1 0 0 forward_v I I I I #
face $-1 $20 $21 $7 $-1 $22 reversed single #
loop $-1 $-1 $23 $9 #
plane-surface $-1 -61.430433652982373 0 1.429137369701178 0 0 1 1 0 0 forward_v I I I I #
face $-1 $24 $25 $6 $-1 $26 reversed single #
loop $-1 $-1 $27 $10 #
plane-surface $-1 0 0 -11.784057800898594 0 0 1 1 0 0 forward_v I I I I #
coedge $-1 $28 $29 $30 $31 forward $11 $-1 #
face $-1 $32 $33 $7 $-1 $34 reversed single #
loop $-1 $-1 $35 $13 #
plane-surface $-1 -61.430433652982373 0 -1.8822810518544744 0 0 1 1 0 0 forward_v I I I I #
coedge $-1 $36 $37 $38 $39 forward $14 $-1 #
face $-1 $40 $41 $6 $-1 $42 reversed single #
loop $-1 $-1 $43 $16 #
plane-surface $-1 0 -45.973118461965029 0 0 1 0 0 0 1 forward_v I I I I #
coedge $-1 $44 $45 $46 $47 forward $17 $-1 #
coedge $-1 $48 $19 $49 $50 forward $11 $-1 #
coedge $-1 $19 $48 $51 $52 forward $11 $-1 #
coedge $-1 $53 $54 $19 $31 reversed $55 $-1 #
edge $-1 $56 -45.973118461965029 $57 45.973118461965029 $30 $58 forward 7 unknown #
face $-1 $59 $60 $7 $-1 $61 reversed single #
loop $-1 $-1 $62 $20 #
plane-surface $-1 -56.221870754556321 0 -0.22657184107664818 -1 0 0 0 0 1 forward_v I I I I #
coedge $-1 $63 $64 $65 $66 forward $21 $-1 #
coedge $-1 $67 $23 $68 $69 reversed $14 $-1 #
coedge $-1 $23 $67 $70 $71 reversed $14 $-1 #
coedge $-1 $62 $72 $23 $39 reversed $33 $-1 #
edge $-1 $73 -45.973118461965029 $74 45.973118461965029 $38 $75 forward 7 unknown #
face $-1 $76 $77 $6 $-1 $78 reversed single #
loop $-1 $-1 $79 $24 #
plane-surface $-1 -66.638996551408425 0 0 1 0 0 0 0 -1 forward_v I I I I #
coedge $-1 $80 $51 $81 $82 forward $25 $-1 #
coedge $-1 $83 $27 $80 $84 forward $17 $-1 #
coedge $-1 $27 $83 $85 $86 forward $17 $-1 #
coedge $-1 $54 $53 $27 $47 reversed $55 $-1 #
edge $-1 $87 -45.973118461965029 $88 45.973118461965029 $46 $89 forward 7 unknown #
coedge $-1 $29 $28 $90 $91 forward $11 $-1 #
coedge $-1 $92 $93 $28 $50 reversed $77 $-1 #
edge $-1 $57 -66.638996551408425 $94 66.638996551408425 $49 $95 forward 7 unknown #
coedge $-1 $43 $96 $29 $52 reversed $25 $-1 #
edge $-1 $97 -66.638996551408425 $56 66.638996551408425 $51 $98 forward 7 unknown #
coedge $-1 $46 $30 $96 $99 forward $55 $-1 #
coedge $-1 $30 $46 $92 $100 reversed $55 $-1 #
loop $-1 $-1 $53 $76 #
vertex $-1 $31 $101 #
vertex $-1 $31 $102 #
straight-curve $-1 66.638996551408425 0 11.784057800898594 0 1 0 I I #
face $-1 $103 $104 $7 $-1 $105 reversed single #
loop $-1 $-1 $106 $32 #
plane-surface $-1 0 -45.973118461965029 0 0 1 0 0 0 1 forward_v I I I I #
coedge $-1 $65 $38 $107 $108 reversed $33 $-1 #
coedge $-1 $109 $35 $106 $110 reversed $21 $-1 #
coedge $-1 $35 $109 $111 $112 reversed $21 $-1 #
coedge $-1 $72 $62 $35 $66 reversed $33 $-1 #
edge $-1 $113 -45.973118461965029 $114 45.973118461965029 $65 $115 forward 7 unknown #
coedge $-1 $37 $36 $116 $117 reversed $14 $-1 #
coedge $-1 $118 $119 $36 $69 forward $120 $-1 #
edge $-1 $121 -35.923779724917239 $74 -25.506653928065134 $68 $122 forward 7 unknown #
coedge $-1 $123 $107 $37 $71 forward $60 $-1 #
edge $-1 $73 25.506653928065134 $124 35.923779724917239 $70 $125 forward 7 unknown #
coedge $-1 $38 $65 $118 $126 reversed $33 $-1 #
vertex $-1 $71 $127 #
vertex $-1 $69 $128 #
straight-curve $-1 -56.221870754556321 0 1.429137369701178 0 1 0 I I #
face $-1 $-1 $55 $6 $-1 $129 reversed single #
loop $-1 $-1 $92 $40 #
plane-surface $-1 0 45.973118461965029 0 0 -1 0 0 0 -1 forward_v I I I I #
coedge $-1 $130 $90 $93 $131 forward $41 $-1 #
coedge $-1 $96 $43 $44 $84 reversed $25 $-1 #
coedge $-1 $90 $130 $43 $82 reversed $41 $-1 #
edge $-1 $97 -11.784057800898594 $132 11.784057800898594 $81 $133 forward 7 unknown #
coedge $-1 $45 $44 $130 $134 forward $17 $-1 #
edge $-1 $88 -66.638996551408425 $132 66.638996551408425 $80 $135 forward 7 unknown #
coedge $-1 $93 $92 $45 $86 reversed $77 $-1 #
edge $-1 $136 -66.638996551408425 $87 66.638996551408425 $85 $137 forward 7 unknown #
vertex $-1 $47 $138 #
vertex $-1 $99 $139 #
straight-curve $-1 66.638996551408425 0 -11.784057800898594 0 -1 0 I I #
coedge $-1 $79 $81 $48 $91 reversed $41 $-1 #
edge $-1 $94 -45.973118461965029 $97 45.973118461965029 $90 $140 forward 7 unknown #
coedge $-1 $85 $49 $54 $100 forward $77 $-1 #
coedge $-1 $49 $85 $79 $131 reversed $77 $-1 #
vertex $-1 $50 $141 #
straight-curve $-1 0 45.973118461965029 11.784057800898594 -1 0 0 I I #
coedge $-1 $51 $80 $53 $99 reversed $25 $-1 #
vertex $-1 $91 $142 #
straight-curve $-1 0 -45.973118461965029 11.784057800898594 1 0 0 I I #
edge $-1 $56 -11.784057800898594 $88 11.784057800898594 $53 $143 forward 7 unknown #
edge $-1 $57 -11.784057800898594 $87 11.784057800898594 $54 $144 forward 7 unknown #
point $-1 66.638996551408425 -45.973118461965029 11.784057800898594 #
point $-1 66.638996551408425 45.973118461965029 11.784057800898594 #
face $-1 $-1 $120 $7 $-1 $145 reversed single #
loop $-1 $-1 $146 $59 #
plane-surface $-1 -66.638996551408425 0 0 1 0 0 0 0 -1 forward_v I I I I #
coedge $-1 $107 $123 $63 $110 forward $60 $-1 #
coedge $-1 $70 $106 $62 $108 forward $60 $-1 #
edge $-1 $114 -1.7689951313161503 $73 1.5424232902395021 $107 $147 forward 7 unknown #
coedge $-1 $64 $63 $146 $148 reversed $21 $-1 #
edge $-1 $149 -35.923779724917239 $114 -25.506653928065134 $106 $150 forward 7 unknown #
coedge $-1 $119 $118 $64 $112 forward $120 $-1 #
edge $-1 $113 25.506653928065134 $151 35.923779724917239 $111 $152 forward 7 unknown #
vertex $-1 $112 $153 #
vertex $-1 $110 $154 #
straight-curve $-1 -56.221870754556321 0 -1.8822810518544744 0 -1 0 I I #
coedge $-1 $155 $156 $67 $117 forward $104 $-1 #
edge $-1 $124 -45.973118461965029 $121 45.973118461965029 $116 $157 forward 7 unknown #
coedge $-1 $111 $68 $72 $126 forward $120 $-1 #
coedge $-1 $68 $111 $155 $158 reversed $120 $-1 #
loop $-1 $-1 $111 $103 #
vertex $-1 $158 $159 #
straight-curve $-1 -30.715216826491186 45.973118461965029 1.429137369701178 1 0 0 I I #
coedge $-1 $106 $70 $156 $160 forward $60 $-1 #
vertex $-1 $160 $161 #
straight-curve $-1 -30.715216826491186 -45.973118461965029 1.429137369701178 -1 0 0 I I #
edge $-1 $74 -1.5424232902395021 $113 1.7689951313161503 $118 $162 forward 7 unknown #
point $-1 -56.221870754556321 -45.973118461965029 1.429137369701178 #
point $-1 -56.221870754556321 45.973118461965029 1.429137369701178 #
plane-surface $-1 66.638996551408425 0 0 -1 0 0 0 0 1 forward_v I I I I #
coedge $-1 $81 $79 $83 $134 reversed $41 $-1 #
edge $-1 $94 -11.784057800898594 $136 11.784057800898594 $93 $163 forward 7 unknown #
vertex $-1 $134 $164 #
straight-curve $-1 -66.638996551408425 -45.973118461965029 0 0 0 -1 I I #
edge $-1 $132 -45.973118461965029 $136 45.973118461965029 $130 $165 forward 7 unknown #
straight-curve $-1 0 -45.973118461965029 -11.784057800898594 -1 0 0 I I #
vertex $-1 $86 $166 #
straight-curve $-1 0 45.973118461965029 -11.784057800898594 1 0 0 I I #
point $-1 66.638996551408425 45.973118461965029 -11.784057800898594 #
point $-1 66.638996551408425 -45.973118461965029 -11.784057800898594 #
straight-curve $-1 -66.638996551408425 0 11.784057800898594 0 -1 0 I I #
point $-1 -66.638996551408425 45.973118461965029 11.784057800898594 #
point $-1 -66.638996551408425 -45.973118461965029 11.784057800898594 #
straight-curve $-1 66.638996551408425 -45.973118461965029 0 0 0 -1 I I #
straight-curve $-1 66.638996551408425 45.973118461965029 0 0 0 -1 I I #
plane-surface $-1 0 45.973118461965029 0 0 -1 0 0 0 -1 forward_v I I I I #
coedge $-1 $156 $155 $109 $148 forward $104 $-1 #
straight-curve $-1 -56.221870754556321 -45.973118461965029 -0.11328592053832409 0 0 1 I I #
edge $-1 $151 -45.973118461965029 $149 45.973118461965029 $146 $167 forward 7 unknown #
vertex $-1 $110 $168 #
straight-curve $-1 -30.715216826491186 -45.973118461965029 -1.8822810518544744 1 0 0 I I #
vertex $-1 $112 $169 #
straight-curve $-1 -30.715216826491186 45.973118461965029 -1.8822810518544744 -1 0 0 I I #
point $-1 -56.221870754556321 45.973118461965029 -1.8822810518544744 #
point $-1 -56.221870754556321 -45.973118461965029 -1.8822810518544744 #
coedge $-1 $146 $116 $119 $158 forward $104 $-1 #
coedge $-1 $116 $146 $123 $160 reversed $104 $-1 #
straight-curve $-1 -66.638996551408425 0 1.429137369701178 0 1 0 I I #
edge $-1 $121 -1.429137369701178 $151 1.8822810518544744 $119 $170 forward 7 unknown #
point $-1 -66.638996551408425 45.973118461965029 1.429137369701178 #
edge $-1 $124 -1.429137369701178 $149 1.8822810518544744 $156 $171 forward 7 unknown #
point $-1 -66.638996551408425 -45.973118461965029 1.429137369701178 #
straight-curve $-1 -56.221870754556321 45.973118461965029 -0.11328592053832409 0 0 -1 I I #
straight-curve $-1 -66.638996551408425 45.973118461965029 0 0 0 -1 I I #
point $-1 -66.638996551408425 -45.973118461965029 -11.784057800898594 #
straight-curve $-1 -66.638996551408425 0 -11.784057800898594 0 1 0 I I #
point $-1 -66.638996551408425 45.973118461965029 -11.784057800898594 #
straight-curve $-1 -66.638996551408425 0 -1.8822810518544744 0 -1 0 I I #
point $-1 -66.638996551408425 -45.973118461965029 -1.8822810518544744 #
point $-1 -66.638996551408425 45.973118461965029 -1.8822810518544744 #
straight-curve $-1 -66.638996551408425 45.973118461965029 0 0 0 -1 I I #
straight-curve $-1 -66.638996551408425 -45.973118461965029 0 0 0 -1 I I #
End-of-ACIS-data 